<svg xmlns="http://www.w3.org/2000/svg" width="191.737pt" height="127.957pt" viewBox="0 0 191.737 127.957"><defs><clipPath id="a"><path d="M.19922.26172h191.07812v126.26953H.19922Zm0 0"/></clipPath><clipPath id="b"><path d="M0 127h42v.84766H0Zm0 0"/></clipPath><clipPath id="c"><path d="M0 .0664h191.47266v127.78126H0Zm0 0"/></clipPath></defs><g clip-path="url(#a)"><path fill="#CCE5E5" fill-rule="evenodd" stroke="#000" stroke-miterlimit="10" stroke-width=".39795" d="M.19922 127.64844H191.2773L127.58591.26174Zm168.78512 0c0-35.17578-28.51562-63.6914-63.6914-63.6914-35.17967 0-63.6953 28.51562-63.6953 63.6914 0 35.17968 28.51563 63.6953 63.6953 63.6953 35.17578 0 63.6914-28.51562 63.6914-63.6953Zm0 0"/></g><g clip-path="url(#b)"><path fill="none" stroke="#000" stroke-miterlimit="10" stroke-width=".39795" d="M.19922 127.64844h41.39843"/></g><g clip-path="url(#c)"><path fill="none" stroke="#000" stroke-miterlimit="10" stroke-width=".39795" d="M168.98434 127.64844h22.29296L127.58591.26174.19921 127.64845"/></g></svg>