<svg xmlns="http://www.w3.org/2000/svg" xmlns:xlink="http://www.w3.org/1999/xlink" width="113.784pt" height="170.079pt" viewBox="0 0 113.784 170.079"><defs><clipPath id="a"><path d="M.19922 28h113.17187v113H.19922Zm0 0"/></clipPath><clipPath id="b"><path d="M.19922 22h113.17187v125H.19922Zm0 0"/></clipPath><clipPath id="c"><path d="M101 76h12.3711v17H101Zm0 0"/></clipPath><path id="d" d="M1.98438.21875 3.59375 0c.3125-1.20312.64063-2.71875.9375-3.79687.67188-2.4375 1.60938-4.04688 2.32813-4.04688.57812 0 .70312.46875 1.29687.46875.48438 0 .875-.60937.875-1.1875 0-.45312-.1875-.78125-.82812-.78125-1.04688 0-2.34375 1.15625-3.34375 3.1875L5.67188-9.25l-.10938-.09375-3.1875.5-.10937.46875 1.14062.09375c.28125.01563.375.125.375.34375 0 .125-.03125.3125-.09375.54688Zm0 0"/></defs><g clip-path="url(#a)"><path fill="#FFE5CC" d="M113.17188 84.58203c0-31.14453-25.2461-56.38672-56.38672-56.38672-31.14453 0-56.39063 25.24219-56.39063 56.38672s25.2461 56.38672 56.39063 56.38672c31.14062 0 56.38672-25.24219 56.38672-56.38672m0 0"/></g><g clip-path="url(#b)"><path fill="none" stroke="#000" stroke-miterlimit="10" stroke-width=".39635" d="M113.17187 84.58203c0-31.14453-25.24609-56.38671-56.38671-56.38671-31.14453 0-56.39063 25.24218-56.39063 56.38671s25.2461 56.38672 56.39063 56.38672c31.14062 0 56.38671-25.24219 56.38671-56.38672Zm0 0"/></g><path fill="none" stroke="#007F7F" stroke-miterlimit="10" stroke-width=".39635" d="M57.58984 84.58203h54.77735"/><path fill="#007F7F" stroke="#007F7F" stroke-miterlimit="10" stroke-width=".39635" d="m62.76562 86.90625-5.47265-2.32422 5.47265-2.32422Zm0 0"/><path fill="#007F7F" d="m107.1914 82.25781 5.47266 2.32422-5.47265 2.32422Zm0 0"/><g clip-path="url(#c)"><path fill="none" stroke="#007F7F" stroke-miterlimit="10" stroke-width=".39635" d="m107.1914 82.25781 5.47266 2.32422-5.47265 2.32422Zm0 0"/></g><use xlink:href="#d" x="80.46037" y="77.36207" fill="#007F7F"/></svg>