<svg xmlns="http://www.w3.org/2000/svg" width="291.435pt" height="106.698pt" viewBox="0 0 291.435 106.698"><defs><clipPath id="a"><path d="M4 0h107v106.39844H4Zm0 0"/></clipPath><clipPath id="b"><path d="M.1289 0H116v106.39844H.1289Zm0 0"/></clipPath><clipPath id="c"><path d="M.1289 26H14v23H.1289Zm0 0"/></clipPath><clipPath id="d"><path d="M.1289 0H116v106.39844H.1289Zm0 0"/></clipPath><clipPath id="e"><path d="M180 0h107v106.39844H180Zm0 0"/></clipPath><clipPath id="f"><path d="M175 0h115.74219v106.39844H175Zm0 0"/></clipPath><clipPath id="g"><path d="M216 70h36v36.39844h-36Zm0 0"/></clipPath><clipPath id="h"><path d="M210 65h48v41.39844h-48Zm0 0"/></clipPath><clipPath id="i"><path d="M277 22h13.74219v23H277Zm0 0"/></clipPath><clipPath id="j"><path d="M175 0h115.74219v106.39844H175Zm0 0"/></clipPath></defs><g clip-path="url(#a)"><path fill="#CCE5E5" d="M4.10156 70.86719H39.4375v35.33203l35.33203-35.33203h35.33594V.19922H74.76953L39.4375 35.53125V.19922H4.10156Zm0 0"/></g><g clip-path="url(#b)"><path fill="none" stroke="#000" stroke-miterlimit="10" stroke-width=".39738" d="M4.10156 70.86719h35.33595v35.33204L74.76956 70.8672h35.33595V.19919H74.76956L39.43751 35.53123V.1992H4.10156Zm0 0"/></g><path fill="none" stroke="red" stroke-miterlimit="10" stroke-width=".39738" d="M4.10156 70.86719v-7.06641h7.06641v7.0664h-7.0664m106.00394.00001h-7.0664v-7.06641h7.0664v7.0664m0-70.66799v7.0664h-7.0664V.1992h7.0664M4.10156.19919h7.06641v7.0664h-7.0664V.1992M39.43751.19919v7.0664h-7.0664V.1992h7.0664m0 70.66799v7.0664h-7.0664v-7.0664h7.0664"/><g clip-path="url(#c)"><path fill="none" stroke="red" stroke-miterlimit="10" stroke-width=".39738" d="m.1289 32.55076 7.94923 3.97266M.1289 35.53123l7.94923 3.97266M.1289 38.5117l7.94923 3.97266"/></g><path fill="none" stroke="red" stroke-miterlimit="10" stroke-width=".39738" d="m114.07817 38.5117-7.94922-3.97265m7.94922.99218-7.94922-3.97265m7.94922.99218-7.94922-3.97265M43.41017 91.51173l-7.94531-3.97266m7.94531.99219-7.94531-3.97266m7.94531-63.71487-7.94531-3.97266m7.94531.99219-7.94531-3.97266m21.63672 78.61722v-7.94531m.00392-70.67581v7.94922"/><g clip-path="url(#d)"><path fill="none" stroke="#000" stroke-miterlimit="10" stroke-width=".39738" d="M4.10156 70.86719h35.33595v35.33204L74.76956 70.8672h35.33595V.19919H74.76956L39.43751 35.53123V.1992H4.10156Zm0 0"/></g><path fill="none" stroke="#000" stroke-miterlimit="10" stroke-width=".39738" d="M127.76958 35.53123h30.76564"/><path stroke="#000" stroke-miterlimit="10" stroke-width=".39738" d="M162.36328 35.53125c-.47265-.125-2.53906-.83984-3.82812-1.6211v3.2422c1.28906-.77735 3.35547-1.4922 3.82812-1.6211Zm0 0"/><g clip-path="url(#e)"><path fill="#CCE5E5" d="M180.76953 70.86719h35.33594v35.33203l35.33203-35.33203h35.33594V.19922H251.4375l-35.33203 35.33203V.19922h-35.33594Zm0 0"/></g><g clip-path="url(#f)"><path fill="none" stroke="#000" stroke-miterlimit="10" stroke-width=".39738" d="M180.7696 70.86719h35.33596v35.33204l35.33205-35.33204h35.33595V.19919H251.4376l-35.33205 35.33204V.1992H180.7696Zm0 0"/></g><g clip-path="url(#g)"><path fill="#FBCCE8" d="M216.10547 70.86719v35.33203l35.33203-35.33203Zm0 0"/></g><g clip-path="url(#h)"><path fill="none" stroke="#000" stroke-miterlimit="10" stroke-width=".39738" d="M216.10556 70.86719v35.33204l35.33205-35.33204Zm0 0"/></g><path fill="#CFC" stroke="#000" stroke-miterlimit="10" stroke-width=".39738" d="m251.4376.19919-35.33204 35.33204V.1992Zm0 0"/><path fill="none" stroke="red" stroke-miterlimit="10" stroke-width=".39738" d="M180.7696 70.86719v-7.06641h7.06642v7.0664h-7.06641m106.00395.00001h-7.06641v-7.06641h7.0664v7.0664m.00001-70.66799v7.0664h-7.06641V.1992h7.0664M180.7696.19919h7.06642v7.0664h-7.06641V.1992m35.33595-.00001v7.0664h-7.06641V.1992h7.06641m0 70.66799v7.0664h-7.06641v-7.0664h7.06641m-39.30861-38.31643 7.94922 3.97266m-7.94922-.99219 7.94922 3.97266m-7.94922-.99219 7.94922 3.97266"/><g clip-path="url(#i)"><path fill="none" stroke="red" stroke-miterlimit="10" stroke-width=".39738" d="m290.74622 38.5117-7.94923-3.97265m7.94923.99218-7.94923-3.97265m7.94923.99218-7.94923-3.97265"/></g><path fill="none" stroke="red" stroke-miterlimit="10" stroke-width=".39738" d="m220.07822 91.51173-7.94922-3.97266m7.94922.99219L212.129 84.5586m7.94922-63.71487-7.94922-3.97266m7.94922.99219L212.129 13.8906m21.64063 78.61722v-7.94531m.00391-70.67581v7.94922"/><g clip-path="url(#j)"><path fill="none" stroke="#000" stroke-miterlimit="10" stroke-width=".39738" d="M180.7696 70.86719h35.33596v35.33204l35.33205-35.33204h35.33595V.19919H251.4376l-35.33205 35.33204V.1992H180.7696Zm0 0"/></g></svg>