<svg xmlns="http://www.w3.org/2000/svg" xmlns:xlink="http://www.w3.org/1999/xlink" width="240.409" height="209.844" viewBox="0 0 240.409 209.844"><defs><clipPath id="a"><path d="M48 32h191.82031v128H48Zm0 0"/></clipPath><clipPath id="b"><path d="M43 26h196.82031v139H43Zm0 0"/></clipPath><clipPath id="d"><path d="M49 178h190.82031v1H49Zm0 0"/></clipPath><clipPath id="e"><path d="M233 175h6.82031v6H233Zm0 0"/></clipPath><clipPath id="f"><path d="M228 170h11.82031v17H228Zm0 0"/></clipPath><clipPath id="h"><path d="M43 26h196.82031v139H43Zm0 0"/></clipPath><path id="c" d="M2.01563.25 3.84375 0c.5625-2.14062.875-3.3125 1.40625-4.625.625-1.64062 2.70313-4.82812 4.54688-4.82812.48437 0 .75.32812.75.85937 0 .1875-.01563.39063-.07813.60938L8.75-2.01562q-.1875.58593-.1875 1.03125C8.5625-.20312 8.96875.25 9.84375.25c1.45313 0 2.625-1.4375 3.34375-3.01562l-.51562-.29688c-.375.73438-1.3125 2.21875-1.89063 2.21875-.25 0-.34375-.15625-.34375-.40625 0-.20312.04688-.45312.14063-.73437l1.65625-5.53125c.15625-.48438.21875-.9375.21875-1.35938 0-.98437-.46875-1.67187-1.67188-1.67187-2 0-4.25 2.15625-5.59375 4.6875h-.04687L7.48438-15.5l-.10938-.07812-3.78125.48437-.125.5 1.20313.125c.35937.04688.51562.10938.51562.42188 0 .15625-.01562.34375-.09375.60937Zm0 0"/><path id="g" d="M1.82813 0h.76562l.64063-1.23437C3.625-.35937 4.67188.25 5.875.25c2.46875 0 4.25-1.64062 5.28125-3.48437 1.04688-1.85938 1.39063-3.71875 1.39063-4.65625 0-1.5625-.67188-2.65625-2.23438-2.65625-1.59375 0-3.6875 1.45312-5.29687 4.32812h-.04688L7.29688-15.5l-.09375-.07812-3.76563.48437-.125.5 1.1875.125c.35938.04688.51563.10938.51563.42188 0 .15625-.03125.34375-.09375.60937Zm2.59375-2.28125c0-1 .45312-2.45312 1.125-3.6875.9375-1.67187 2.53125-3.48437 3.82812-3.48437.78125 0 1.10938.53125 1.10938 1.73437 0 1.53125-1.25 7.23438-4.32813 7.23438-1.07812 0-1.73437-.75-1.73437-1.79688m0 0"/></defs><g clip-path="url(#a)"><path fill="#CFC" d="M48.75 159.23828h190.85156L48.75 32.00391Zm0 0"/></g><g clip-path="url(#b)"><path fill="none" stroke="#000" stroke-miterlimit="10" stroke-width=".39752" d="M48.75 159.2383h190.85162L48.75 32.00389Zm0 0"/></g><path fill="none" stroke="#007F7F" stroke-miterlimit="10" stroke-width=".39752" d="M29.66406 158.4297V32.79687"/><path fill="#007F7F" stroke="#007F7F" stroke-miterlimit="10" stroke-width=".39752" d="m31.99219 153.23828-2.32813 5.49219-2.33203-5.49219Zm-4.66016-115.25L29.66406 32.5l2.32813 5.48828Zm0 0"/><use xlink:href="#c" x="7.45268" y="103.28403" fill="#007F7F"/><g clip-path="url(#d)"><path fill="none" stroke="#007F7F" stroke-miterlimit="10" stroke-width=".39752" d="M49.5586 178.32424h189.25786"/></g><path fill="#007F7F" stroke="#007F7F" stroke-miterlimit="10" stroke-width=".39752" d="m54.75 180.65625-5.48828-2.33203 5.48828-2.32813Zm0 0"/><g clip-path="url(#e)"><path fill="#007F7F" d="m233.625 175.9961 5.48828 2.32812-5.48828 2.33203Zm0 0"/></g><g clip-path="url(#f)"><path fill="none" stroke="#007F7F" stroke-miterlimit="10" stroke-width=".39752" d="m233.625 175.9961 5.48828 2.32812-5.48828 2.33203Zm0 0"/></g><use xlink:href="#g" x="137.68952" y="201.80982" fill="#007F7F"/><path fill="none" stroke="red" stroke-miterlimit="10" stroke-width=".39752" d="M48.75 159.2383v-12.72657h12.72657v12.72657H48.75"/><g clip-path="url(#h)"><path fill="none" stroke="#000" stroke-miterlimit="10" stroke-width=".39752" d="M48.75 159.2383h190.85162L48.75 32.00389Zm0 0"/></g></svg>