<svg xmlns="http://www.w3.org/2000/svg" xmlns:xlink="http://www.w3.org/1999/xlink" width="215.022pt" height="185.372pt" viewBox="0 0 215.022 185.372"><defs><clipPath id="b"><path d="M199 150h15.04688v17H199Zm0 0"/></clipPath><clipPath id="d"><path d="M202 76h12.04688v18H202Zm0 0"/></clipPath><path id="a" d="m.8125-2.04687 1.53125-.78125c.0625 1.71875.75 3.0625 2.17188 3.0625 1.76562 0 2.54687-1.0625 2.95312-1.76563l-.125-.35937C5.92188-.64062 5.25-.59375 4.70313-.59375c-.625 0-.95313-.39062-.95313-1.20312 0-.39063.23438-1.60938.375-2.15625 1.46875-1.21875 6.34375-5.65625 6.34375-9.39063 0-.73437-.25-1.39062-1.1875-1.39062-3.625 0-6.46875 6.98437-6.92187 11.04687l-1.32813.95313Zm3.59375-2.90625c.54688-1.67188 1.39063-4.60938 2.6875-6.76563C7.75-12.79687 8.57813-13.875 9.20313-13.875c.35937 0 .45312.35938.45312.8125 0 3.17188-3.45312 6.34375-5.25 8.10938m0 0"/><path id="c" d="M.39063 0H9.9375l.95313-3.26562h-.5625C9.375-.96875 8.53125-.65625 6.42188-.65625c-1.90625 0-2.3125-.17187-2.3125-.76562 0-.20313.04687-.48438.14062-.85938l2.07813-9.0625c.15625-.60937.3125-.89062.79687-.9375l1.10938-.07812.14062-.53125H3.17188l-.14063.53125 1.10938.07812c.32812.03125.45312.1875.45312.5 0 .125-.01562.26563-.04687.4375l-2.25 9.79688c-.15625.65625-.3125.85937-.76563.89062L.5-.53125Zm0 0"/></defs><path fill="#FCC" stroke="#000" stroke-miterlimit="10" stroke-width=".39669" d="M41.9336 141.1992h169.31246V28.32424H41.93359Zm0 0"/><path fill="none" stroke="#007F7F" stroke-miterlimit="10" stroke-width=".39669" d="M25.00391 140.39452V29.12892"/><path fill="#007F7F" stroke="#007F7F" stroke-miterlimit="10" stroke-width=".39669" d="m27.32812 135.21094-2.32421 5.48047-2.32422-5.48047ZM22.67969 34.3086l2.32422-5.47657 2.32421 5.47656Zm0 0"/><use xlink:href="#a" x="6.61093" y="92.01107" fill="#007F7F"/><path fill="none" stroke="#007F7F" stroke-miterlimit="10" stroke-width=".39669" d="M42.74219 158.12889h167.69918"/><path fill="#007F7F" stroke="#007F7F" stroke-miterlimit="10" stroke-width=".39669" d="m47.92187 160.45312-5.48046-2.32421 5.48046-2.32422Zm0 0"/><path fill="#007F7F" d="m205.26172 155.80469 5.47656 2.32422-5.47656 2.32422Zm0 0"/><g clip-path="url(#b)"><path fill="none" stroke="#007F7F" stroke-miterlimit="10" stroke-width=".39669" d="m205.26172 155.80469 5.47656 2.32422-5.47656 2.32421Zm0 0"/></g><use xlink:href="#c" x="120.99567" y="178.02883" fill="#007F7F"/><path fill="none" stroke="red" stroke-miterlimit="10" stroke-width=".39669" d="M211.24606 141.1992H199.957v-11.28905h11.28906v11.28906m0-112.87498V39.6133H199.957V28.32423h11.28906m-169.31246 0h11.28905V39.6133H41.9336V28.32423m0 112.87497v-11.28905h11.28905v11.28906H41.9336m81.68357 3.96484 3.96484-7.9336m-.99219 7.9336 3.96875-7.9336"/><g clip-path="url(#d)"><path fill="none" stroke="red" stroke-miterlimit="10" stroke-width=".39669" d="m214.05074 87.5664-5.60937-5.60937"/></g><path fill="none" stroke="red" stroke-miterlimit="10" stroke-width=".39669" d="m129.56639 24.35548-3.96875 7.9375m.99218-7.9375-3.96484 7.9375M39.1289 81.95703l5.61329 5.60938"/><path fill="none" stroke="#000" stroke-miterlimit="10" stroke-width=".39669" d="M41.9336 141.1992h169.31246V28.32424H41.93359Zm0 0"/></svg>