<svg xmlns="http://www.w3.org/2000/svg" width="49.459pt" height="49.459pt" viewBox="0 0 49.459 49.459"><defs><clipPath id="a"><path d="M3 0h45.92578v46H3Zm0 0"/></clipPath><clipPath id="b"><path d="M0 0h48.92578v48.92578H0Zm0 0"/></clipPath><clipPath id="c"><path d="M19 37h12v11.92578H19Zm0 0"/></clipPath><clipPath id="d"><path d="M21 37h12v11.92578H21Zm0 0"/></clipPath><clipPath id="e"><path d="M0 0h48.92578v48.92578H0Zm0 0"/></clipPath></defs><g clip-path="url(#a)"><path fill="#cce5e5" d="M3.15234 45.76953h45.57422L3.15234.19531Zm0 0"/></g><g clip-path="url(#b)"><path fill="none" stroke="#000" stroke-miterlimit="10" stroke-width=".39419" d="M3.15234 45.76953h45.57422L3.15234.19531Zm0 0"/></g><path fill="none" stroke="red" stroke-miterlimit="10" stroke-width=".39419" d="M3.15234 38.48047h7.29297v7.28906"/><g clip-path="url(#c)"><path fill="none" stroke="red" stroke-miterlimit="10" stroke-width=".39419" d="m24.70313 48.72656.49218-5.91406"/></g><g clip-path="url(#d)"><path fill="none" stroke="red" stroke-miterlimit="10" stroke-width=".39419" d="m26.67578 48.72656.49219-5.91406"/></g><path fill="none" stroke="red" stroke-miterlimit="10" stroke-width=".39419" d="m.19531 21.75781 5.91407.49219M.19531 23.72656l5.91407.49219"/><g clip-path="url(#e)"><path fill="none" stroke="#000" stroke-miterlimit="10" stroke-width=".39419" d="M3.15234 45.76953h45.57422L3.15234.19531Zm0 0"/></g></svg>