<svg xmlns="http://www.w3.org/2000/svg" xmlns:xlink="http://www.w3.org/1999/xlink" width="241.527" height="208.544" viewBox="0 0 241.527 208.544"><defs><clipPath id="b"><path d="M226 170h15.02734v17H226Zm0 0"/></clipPath><clipPath id="d"><path d="M229 87h12.02734v17H229Zm0 0"/></clipPath><path id="a" d="m.92188-2.29687 1.71875-.90625C2.70313-1.25 3.48438.26563 5.09375.26563c2 0 2.85938-1.20313 3.32813-1.98438L8.26563-2.125C6.6875-.71875 5.92188-.67187 5.29688-.67187c-.6875 0-1.07813-.45313-1.07813-1.35938 0-.42187.28125-1.8125.4375-2.42187 1.65625-1.375 7.15625-6.39063 7.15625-10.59375 0-.82813-.29687-1.5625-1.34375-1.5625-4.09375 0-7.29687 7.85937-7.8125 12.45312l-1.5 1.07813Zm4.04687-3.29688c.625-1.875 1.5625-5.1875 3.03125-7.625.75-1.20312 1.6875-2.4375 2.375-2.4375.40625 0 .51563.40625.51563.92188 0 3.57812-3.89063 7.15625-5.92188 9.14062m0 0"/><path id="c" d="M.45313 0h10.75l1.07812-3.6875h-.625C10.57813-1.09375 9.60938-.73437 7.25-.73437c-2.15625 0-2.625-.20313-2.625-.875 0-.21876.07813-.53125.15625-.96875L7.125-12.79687c.1875-.6875.35938-1 .90625-1.04688l1.25-.09375.15625-.59375H3.57813l-.15625.59375 1.25.09375c.35937.03125.51562.20313.51562.5625 0 .14063-.01562.29688-.0625.48438L2.59375-1.75c-.17187.75-.35937.96875-.875 1.01563l-1.15625.125Zm0 0"/></defs><path fill="#FCC" stroke="#000" stroke-miterlimit="10" stroke-width=".39763" d="M47.3164 159.10155h190.90231V31.83205H47.31641Zm0 0"/><path fill="none" stroke="#007F7F" stroke-miterlimit="10" stroke-width=".39763" d="M28.22266 158.29296V32.625"/><path fill="#007F7F" stroke="#007F7F" stroke-miterlimit="10" stroke-width=".39763" d="m30.55469 153.10156-2.33203 5.49219-2.33203-5.49219ZM25.89063 37.82031l2.33203-5.49218 2.33203 5.49218Zm0 0"/><use xlink:href="#a" x="7.4822" y="103.63539" fill="#007F7F"/><path fill="none" stroke="#007F7F" stroke-miterlimit="10" stroke-width=".39763" d="M48.1211 178.1953h189.30855"/><path fill="#007F7F" stroke="#007F7F" stroke-miterlimit="10" stroke-width=".39763" d="m53.3125 180.52344-5.48828-2.32813 5.48828-2.33203Zm0 0"/><path fill="#007F7F" d="m232.23828 175.86328 5.49219 2.33203-5.49219 2.32813Zm0 0"/><g clip-path="url(#b)"><path fill="none" stroke="#007F7F" stroke-miterlimit="10" stroke-width=".39763" d="m232.23828 175.86328 5.49219 2.33203-5.49219 2.32813Zm0 0"/></g><use xlink:href="#c" x="136.46816" y="200.6343" fill="#007F7F"/><path fill="none" stroke="red" stroke-miterlimit="10" stroke-width=".39763" d="M238.21871 159.10155h-12.73046V146.375h12.73046v12.72656m0-127.26952v12.73047h-12.73046V31.83204h12.73046m-190.90231 0h12.72657v12.73047H47.3164V31.83204m0 127.26951V146.375h12.72657v12.72656H47.3164m92.46874 3.97655 3.97656-7.95312m-.9961 7.95312 3.97657-7.95312"/><g clip-path="url(#d)"><path fill="none" stroke="red" stroke-miterlimit="10" stroke-width=".39763" d="m241.03121 98.27734-5.625-5.62109"/></g><path fill="none" stroke="red" stroke-miterlimit="10" stroke-width=".39763" d="m145.74998 27.85548-3.97656 7.95312m.99219-7.95312-3.97656 7.95312M44.5039 92.65625l5.6211 5.6211"/><path fill="none" stroke="#000" stroke-miterlimit="10" stroke-width=".39763" d="M47.3164 159.10155h190.90231V31.83205H47.31641Zm0 0"/></svg>