<svg xmlns="http://www.w3.org/2000/svg" xmlns:xlink="http://www.w3.org/1999/xlink" width="135.446pt" height="115.858pt" viewBox="0 0 135.446 115.858"><defs><clipPath id="b"><path d="M120 91h14.89453v16H120Zm0 0"/></clipPath><clipPath id="d"><path d="M123 44h11.89453v18H123Zm0 0"/></clipPath><path id="a" d="m.51563-1.28125.95312-.5C1.5-.6875 1.9375.15625 2.82813.15625c1.10937 0 1.59375-.67187 1.84375-1.10937l-.07813-.21876C3.70313-.39062 3.28125-.375 2.9375-.375c-.375 0-.59375-.25-.59375-.75 0-.23437.15625-1.01562.23438-1.34375.92187-.76562 3.96875-3.54687 3.96875-5.875 0-.46875-.15625-.875-.73438-.875-2.28125 0-4.04687 4.375-4.34375 6.90625l-.82812.59375ZM2.75-3.10937c.35938-1.03125.875-2.875 1.6875-4.21875C4.84375-8 5.375-8.6875 5.75-8.6875c.23438 0 .29688.21875.29688.51563 0 1.98437-2.15625 3.96875-3.29688 5.0625m0 0"/><path id="c" d="M.25 0h5.96875l.59375-2.04687h-.34375C5.875-.60937 5.32813-.40625 4.01563-.40625c-1.1875 0-1.45313-.10937-1.45313-.48437 0-.125.04688-.29688.09375-.53125l1.29688-5.67188c.10937-.39062.20312-.5625.5-.57812l.70312-.0625.07813-.32813h-3.25l-.09376.32813.70313.0625c.20313 0 .28125.10937.28125.29687 0 .07813-.01562.17188-.03125.28125L1.4375-.96875c-.09375.40625-.20312.53125-.48437.5625L.3125-.32812Zm0 0"/></defs><path fill="#FCC" stroke="#000" stroke-miterlimit="10" stroke-width=".39688" d="M26.22266 88.3867h105.86713V17.80861H26.22266Zm0 0"/><path fill="none" stroke="#007F7F" stroke-miterlimit="10" stroke-width=".39688" d="M15.63672 87.58202V18.6133"/><path fill="#007F7F" stroke="#007F7F" stroke-miterlimit="10" stroke-width=".39688" d="m17.96094 82.39844-2.32422 5.48047-2.32813-5.48047ZM13.3086 23.79687l2.32812-5.48046 2.32422 5.48046Zm0 0"/><use xlink:href="#a" x="4.13409" y="57.63221" fill="#007F7F"/><path fill="none" stroke="#007F7F" stroke-miterlimit="10" stroke-width=".39688" d="M27.02734 98.97654h104.25777"/><path fill="#007F7F" stroke="#007F7F" stroke-miterlimit="10" stroke-width=".39688" d="m32.21093 101.30078-5.48046-2.32422 5.48046-2.32812Zm0 0"/><path fill="#007F7F" d="m126.10156 96.64844 5.48047 2.32812-5.48047 2.32422Zm0 0"/><g clip-path="url(#b)"><path fill="none" stroke="#007F7F" stroke-miterlimit="10" stroke-width=".39688" d="m126.10156 96.64844 5.48047 2.32812-5.48047 2.32422Zm0 0"/></g><use xlink:href="#c" x="75.65655" y="111.41722" fill="#007F7F"/><path fill="none" stroke="red" stroke-miterlimit="10" stroke-width=".39688" d="M132.0898 88.3867h-7.0586v-7.05468h7.0586v7.05468m0-70.57809v7.0586h-7.0586v-7.0586h7.0586m-105.86714 0h7.05859v7.0586h-7.0586v-7.0586m.00001 70.57809v-7.05468h7.05859v7.05468h-7.0586m49.95701 3.96875 3.96875-7.9375m-.99219 7.9375 3.96875-7.9375"/><g clip-path="url(#d)"><path fill="none" stroke="red" stroke-miterlimit="10" stroke-width=".39688" d="m134.89448 55.90625-5.60937-5.61328"/></g><path fill="none" stroke="red" stroke-miterlimit="10" stroke-width=".39688" d="m82.13279 13.83986-3.96875 7.9375m.99218-7.9375-3.96874 7.9375M23.41406 50.29297l5.61328 5.61328"/><path fill="none" stroke="#000" stroke-miterlimit="10" stroke-width=".39688" d="M26.22266 88.3867h105.86713V17.80861H26.22266Zm0 0"/></svg>