<svg xmlns="http://www.w3.org/2000/svg" xmlns:xlink="http://www.w3.org/1999/xlink" width="368.903pt" height="184.651pt" viewBox="0 0 368.903 184.651"><defs><path id="a" d="M.21875 0H2v-.17187c-.625-.04688-.64062-.04688-.64062-.39063v-1.42187h.85937c.51563 0 .53125.14062.59375.53125h.17188V-2.75H2.8125c-.0625.375-.07812.53125-.59375.53125h-.85937v-1.5625c0-.20312.03124-.21875.21874-.21875h.60938c.70313 0 .84375.14063.9375.76563h.17188v-.96875H.21875v.17187c.53125.04688.54688.04688.54688.39063V-.5625c0 .34375-.01563.34375-.54688.39063Zm0 0"/><path id="b" d="M.5625-3.98437c0 .21875.15625.375.375.375s.35938-.15625.35938-.375-.14063-.35938-.35938-.35938-.375.14063-.375.35938M.1875 0h1.48438v-.17187c-.4375-.03126-.45313-.04688-.45313-.35938v-2.48437l-.04687-.03125-.95313.15625V-2.75l.23438.03125c.15625.03125.20312.04688.20312.28125v1.90625c0 .3125-.01562.32813-.46875.35938Zm0 0"/><path id="c" d="M.25.57813c0 .625.60938.89062 1.32813.89062.35937 0 .73437-.07812 1.03125-.25.28125-.17187.48437-.45312.48437-.82812C3.09375-.26562 2.5625-.5 1.92188-.5h-.5c-.4375 0-.5-.14062-.5-.26562 0-.17188.23437-.26563.3125-.29688.125.01563.25.01563.3125.01563.57812 0 1.23437-.25 1.23437-.98438 0-.25-.09375-.46875-.1875-.5625l.48438-.07812.125-.39063-.0625-.04687-.76563.25c-.17187-.125-.51562-.1875-.79687-.1875-.9375 0-1.25.5625-1.25 1.01562 0 .5625.375.82813.65625.90625v.01563c-.34375.125-.5625.29687-.5625.54687 0 .20313.25.4375.53125.46875v.01563C.70313 0 .25.14063.25.57813M.82813.5625q0-.32812.1875-.46875c.14062-.09375.34375-.14062.64062-.14062.53125 0 .92188.14062.92188.59375 0 .48437-.4375.71875-.875.71875-.51563 0-.875-.26563-.875-.70313M.9375-2.03125c0-.59375.3125-.8125.64063-.8125.29687 0 .60937.21875.60937.8125 0 .51563-.26562.78125-.60937.78125S.9375-1.51562.9375-2.03125m0 0"/><path id="d" d="m.15625-2.75.23438.03125c.15625.03125.1875.04688.1875.28125v1.59375c0 .70313.42187.92188.875.92188.51562 0 .9375-.35938 1.10937-.4375L2.625 0h.96875v-.17187c-.42187-.03126-.45312-.04688-.45312-.35938v-2.48437l-.04688-.03125-.95312.15625V-2.75l.23437.03125c.15625.03125.1875.04688.1875.28125v1.35938c0 .17187-.01562.3125-.04687.35937-.14063.28125-.42188.46875-.75.46875-.34375 0-.60938-.23437-.60938-.70312v-2.0625l-.04687-.03125-.95313.15625Zm0 0"/><path id="e" d="M.1875 0h1.60938v-.17187C1.25-.20313 1.21875-.21875 1.21875-.53125v-1.42187c0-.46875.20313-.625.35938-.625.09374 0 .1875.03125.375.14062.04687.01563.07812.03125.10937.03125.15625 0 .28125-.15625.28125-.34375 0-.14062-.07812-.29687-.3125-.29687-.21875 0-.40625.125-.8125.48437l-.0625-.48437-.9375.15625V-2.75l.23438.03125c.15625.03125.20312.04688.20312.28125v1.90625c0 .3125-.03125.32813-.46875.35938Zm0 0"/><path id="f" d="M.29688-1.46875C.29688-.5.71875.07813 1.70313.07813c.67187 0 1.01562-.375 1.1875-.85938L2.70313-.875c-.17188.34375-.40625.64063-.875.64063-.76563 0-.90625-.73438-.89063-1.35938h1.75c.125 0 .23438-.03125.23438-.23437 0-.35938-.10938-1.21875-1.23438-1.21875-.9375 0-1.39062.67187-1.39062 1.57812m.64062-.35937c0-.25.09375-1.01563.71875-1.01563.5625 0 .64063.57813.64063.8125 0 .125-.04688.20313-.21875.20313Zm0 0"/><path id="g" d="M.65625 0h2v-.17187l-.51562-.04688c-.125-.01562-.1875-.0625-.1875-.29687v-3.57813l-.03126-.04687-1.26562.21875v.15625l.57813.0625c.09374.01562.14062.0625.14062.23437v2.95313c0 .10937-.01562.1875-.0625.23437-.03125.04688-.07812.0625-.14062.0625l-.51563.04688Zm0 0"/><path id="h" d="M.15625-.0625.21875 0H2.75l.20313-.79687-.17188-.03126c-.125.32813-.25.375-.5.375H.73438c.09374-.32812.45312-.75 1.01562-1.17187.57813-.42187 1.03125-.6875 1.03125-1.375 0-.84375-.5625-1.14062-1.20312-1.14062-.82813 0-1.25.51562-1.25.82812 0 .20313.23437.29688.32812.29688.10938 0 .15625-.0625.17188-.15625.10937-.42188.34375-.75.71875-.75.46875 0 .59375.39062.59375.84375 0 .64062-.32813 1.01562-.85938 1.48437-.75.65625-1 1.0625-1.125 1.53125m0 0"/><path id="i" d="M.1875 0h1.48438v-.17187c-.4375-.03126-.45313-.04688-.45313-.35938v-1.42187c0-.15626.01563-.23438.0625-.32813.125-.23437.40625-.4375.71875-.4375.42188 0 .64063.21875.64063.75v1.4375c0 .3125-.01563.32813-.45313.35938V0h1.48438v-.17187c-.4375-.03126-.45313-.04688-.45313-.35938v-1.54687c0-.625-.34375-.96875-.89062-.96875-.45313 0-.73438.21875-1.10938.45312L1.125-3.04687l-.90625.15625V-2.75l.23438.03125c.15625.03125.20312.04688.20312.28125v1.90625c0 .3125-.01562.32813-.46875.35938Zm0 0"/><path id="j" d="M.1875-2.73437H.625V-.625c0 .625.46875.70313.67188.70313.3125 0 .60937-.15625.78125-.26563l-.04688-.14062C1.875-.26562 1.75-.25 1.59375-.25c-.20312 0-.39062-.14062-.39062-.60937v-1.875h.78125v-.25h-.78125V-3.75h-.1875l-.35938.76563H.1875Zm0 0"/><path id="k" d="m1.21875-3.42187.09375.125.92188-.5c.17187-.10938.34375-.20313.34375-.34375 0-.10938-.15625-.26563-.25-.26563s-.20313.07813-.375.26563ZM.29688-1.46875C.29688-.5.71875.07813 1.70313.07813c.67187 0 1.01562-.375 1.1875-.85938L2.70313-.875c-.17188.34375-.40625.64063-.875.64063-.76563 0-.90625-.73438-.89063-1.35938h1.75c.125 0 .23438-.03125.23438-.23437 0-.35938-.10938-1.21875-1.23438-1.21875-.9375 0-1.39062.67187-1.39062 1.57812m.64062-.35937c0-.25.09375-1.01563.71875-1.01563.5625 0 .64063.57813.64063.8125 0 .125-.04688.20313-.21875.20313Zm0 0"/><path id="l" d="M.29688-1.42187c0 .89062.46875 1.5 1.28125 1.5.32812 0 .60937-.15625.9375-.42188v.29688L2.5625 0h.98438v-.17187c-.4375-.03126-.45313-.04688-.45313-.35938v-3.9375l-.04687-.04687-.95313.15625v.15625l.23438.01562c.15625.01563.1875.04688.1875.28125v1C2.34375-3 2.125-3.04687 1.84375-3.04687c-.5 0-.875.15625-1.125.42187-.26562.26563-.42187.67188-.42187 1.20313M.9375-1.5c0-.79687.28125-1.34375.90625-1.34375.28125 0 .51563.14063.625.39063.04688.09375.04688.1875.04688.34375v1.07812c0 .125 0 .23438-.03125.34375-.125.3125-.39063.4375-.71875.4375C1.21875-.25.9375-.79687.9375-1.5m0 0"/><path id="m" d="m.4375-2.96875.10938.09375c.29687-.28125.71875-.6875.71875-1.10937 0-.34375-.20313-.53125-.40625-.53125-.1875 0-.29688.14062-.29688.29687 0 .21875.20313.34375.20313.57813 0 .21875-.14063.45312-.32813.67187m0 0"/><path id="n" d="M.29688-.79687c0 .45312.3125.875.875.875.35937 0 .70312-.23438.90625-.375.07812.23437.1875.375.40625.375S2.96875 0 3.20313-.10937L3.15625-.25c-.07812.01563-.21875.03125-.3125 0C2.73438-.28125 2.625-.39062 2.625-.76562V-2.25c0-.34375-.0625-.79687-.98437-.79687-.6875 0-1.23438.34375-1.23438.6875 0 .1875.23438.28125.34375.28125.125 0 .15625-.0625.1875-.17188.14063-.45312.39063-.59375.64063-.59375.23437 0 .5.125.5.60938v.25c-.15625.15624-.73438.3125-1.21875.46875-.4375.14062-.5625.4375-.5625.71875M.90625-.875c0-.28125.14063-.4375.48438-.5625.23437-.09375.5625-.20312.6875-.29687v.875c0 .48437-.375.60937-.60938.60937-.375 0-.5625-.26562-.5625-.625m0 0"/><clipPath id="o"><path d="M.30078 0h368.20703v184.30078H.30078Zm0 0"/></clipPath></defs><path fill="#cce5e5" stroke="#000" stroke-miterlimit="10" stroke-width=".7955" d="M37.28127 147.3242h73.56253v-36.78127H74.06254V73.76166h73.56253V36.9765H37.28127Zm0 0"/><use xlink:href="#a" x="84.27284" y="141.28896"/><use xlink:href="#b" x="87.73728" y="141.28896"/><use xlink:href="#c" x="89.50181" y="141.28896"/><use xlink:href="#d" x="92.656" y="141.28896"/><use xlink:href="#e" x="96.33373" y="141.28896"/><use xlink:href="#f" x="98.5701" y="141.28896"/><use xlink:href="#g" x="103.04931" y="141.28896"/><path fill="#cce5e5" stroke="#000" stroke-miterlimit="10" stroke-width=".7955" d="M221.1876 147.3242h36.78127v-36.78127h73.56254V73.76166h-36.78127V36.9765h-110.3438v36.78517h36.78127Zm0 0"/><use xlink:href="#a" x="304.95774" y="104.50747"/><use xlink:href="#b" x="308.42864" y="104.50747"/><use xlink:href="#c" x="310.19317" y="104.50747"/><use xlink:href="#d" x="313.34736" y="104.50747"/><use xlink:href="#e" x="317.02509" y="104.50747"/><use xlink:href="#f" x="319.26146" y="104.50747"/><use xlink:href="#h" x="323.74067" y="104.50747"/><path fill="#cce5e5" stroke="#000" stroke-miterlimit="10" stroke-width=".7955" d="M147.62507 147.3242h36.78127v-36.78127h-36.78127Zm0 0"/><use xlink:href="#g" x="160.84611" y="134.92888"/><use xlink:href="#d" x="165.42874" y="134.92888"/><use xlink:href="#i" x="169.10647" y="134.92888"/><use xlink:href="#b" x="172.86176" y="134.92888"/><use xlink:href="#j" x="174.6263" y="134.92888"/><use xlink:href="#k" x="176.71401" y="134.92888"/><use xlink:href="#l" x="160.84611" y="142.68432"/><use xlink:href="#m" x="164.32994" y="142.68432"/><use xlink:href="#n" x="165.65496" y="142.68432"/><use xlink:href="#b" x="168.82854" y="142.68432"/><use xlink:href="#e" x="170.59307" y="142.68432"/><use xlink:href="#f" x="172.82944" y="142.68432"/><g clip-path="url(#o)"><path fill="none" stroke="#000" stroke-dasharray=".397746835 .9943970308000001" stroke-miterlimit="10" stroke-width=".39775" d="M.5 184.10547h367.81268M.5 147.3242h367.81268M.5 110.54293h367.81268M.5 73.76166h367.81268M.5 36.9765h367.81268M.5.21085h367.81268M.5 184.10547V.19522m36.78127 183.91025V.19522m36.78127 183.91025V.19522m36.78126 183.91025V.19522m36.78127 183.91025V.19522m36.78127 183.91025V.19522m36.78127 183.91025V.19522m36.78126 183.91025V.19522m36.78127 183.91025V.19522m36.78127 183.91025V.19522m36.76955 183.91025V.19522"/></g></svg>