<svg xmlns="http://www.w3.org/2000/svg" width="95.531pt" height="49.45pt" viewBox="0 0 95.531 49.45"><defs><clipPath id="a"><path d="M3 3h91.77344v45.90625H3Zm0 0"/></clipPath><clipPath id="b"><path d="M.29297 0h94.48047v48.90625H.29297Zm0 0"/></clipPath><clipPath id="c"><path d="M3 41h8v7.90625H3Zm0 0"/></clipPath><clipPath id="d"><path d="M.29297 19H12v12H.29297Zm0 0"/></clipPath><clipPath id="e"><path d="M.29297 21H12v12H.29297Zm0 0"/></clipPath><clipPath id="f"><path d="M.29297 0h94.48047v48.90625H.29297Zm0 0"/></clipPath></defs><g clip-path="url(#a)"><path fill="#cce5e5" d="M3.44531 48.71094h91.13282L49.01172 3.14454H3.44532Zm0 0"/></g><g clip-path="url(#b)"><path fill="none" stroke="#000" stroke-miterlimit="10" stroke-width=".39412" d="M3.44531 48.71094h91.13281l-45.5664-45.5664H3.44532Zm0 0"/></g><path fill="none" stroke="red" stroke-miterlimit="10" stroke-width=".39412" d="M10.73437 3.14453v7.28906H3.44531"/><g clip-path="url(#c)"><path fill="none" stroke="red" stroke-miterlimit="10" stroke-width=".39412" d="M3.44531 41.42187h7.28906v7.28907"/></g><path fill="none" stroke="red" stroke-miterlimit="10" stroke-width=".39412" d="m27.45703.19531-.49219 5.91407M25.48438.19531l-.4922 5.91407"/><g clip-path="url(#d)"><path fill="none" stroke="red" stroke-miterlimit="10" stroke-width=".39412" d="m.49219 24.69922 5.91015.49219"/></g><g clip-path="url(#e)"><path fill="none" stroke="red" stroke-miterlimit="10" stroke-width=".39412" d="m.49219 26.66797 5.91015.4961"/></g><g clip-path="url(#f)"><path fill="none" stroke="#000" stroke-miterlimit="10" stroke-width=".39412" d="M3.44531 48.71094h91.13281l-45.5664-45.5664H3.44532Zm0 0"/></g></svg>