<svg xmlns="http://www.w3.org/2000/svg" xmlns:xlink="http://www.w3.org/1999/xlink" width="100.433pt" height="106.299pt" viewBox="0 0 100.433 106.299"><defs><clipPath id="b"><path d="M86 43h13.82422v19H86Zm0 0"/></clipPath><path id="a" d="M.98438-1.71875c0 1.42188.85937 1.85938 1.67187 1.85938.875 0 1.84375-.375 2.65625-1.71875l-.28125-.21876C4.625-1.26561 3.95313-.4375 3.17188-.4375c-.85938 0-1.03125-.6875-1.03125-1.51562 0-1.51563.875-3.48438 1.9375-3.48438.375 0 .64062.23438.71875.9375.01562.20313.10937.34375.32812.34375.28125 0 .73438-.26562.73438-.64062 0-.59375-.625-1.04688-1.48438-1.04688-2.07812 0-3.39062 2.21875-3.39062 4.125m0 0"/></defs><path fill="#CCF" stroke="#000" stroke-miterlimit="10" stroke-width=".39589" d="M25.46094 88.00392H95.8633V17.59764H25.46094Zm0 0"/><path fill="none" stroke="#007F7F" stroke-miterlimit="10" stroke-width=".39589" d="M14.89843 87.19923v-68.7969"/><path fill="#007F7F" stroke="#007F7F" stroke-miterlimit="10" stroke-width=".39589" d="m17.21875 82.02734-2.32031 5.46875-2.32032-5.46875Zm-4.64063-58.45312 2.32032-5.46875 2.32031 5.46875Zm0 0"/><use xlink:href="#a" x="4.17115" y="55.65299" fill="#007F7F"/><path fill="none" stroke="red" stroke-miterlimit="10" stroke-width=".39589" d="M95.86331 88.00392h-7.03907v-7.04297h7.03907v7.04297m0-70.40628v7.04297h-7.03907v-7.04297h7.03907m-70.40237 0H32.5v7.04297h-7.03906v-7.04297m0 70.40628v-7.04297H32.5v7.04297h-7.03906m32.23048 3.95703 3.96094-7.91797m-.98828 7.91797 3.95703-7.91797"/><g clip-path="url(#b)"><path fill="none" stroke="red" stroke-miterlimit="10" stroke-width=".39589" d="m99.82425 55.76953-7.91797-3.95703m7.91797.98828-7.91797-3.96094"/></g><path fill="none" stroke="red" stroke-miterlimit="10" stroke-width=".39589" d="m63.63283 13.64061-3.96094 7.91797m.99219-7.91797-3.96094 7.91797M21.5 49.83203l7.91797 3.95703M21.5 52.80078l7.91797 3.95703"/><path fill="none" stroke="#000" stroke-miterlimit="10" stroke-width=".39589" d="M25.46094 88.00392H95.8633V17.59764H25.46094Zm0 0"/></svg>