<svg xmlns="http://www.w3.org/2000/svg" xmlns:xlink="http://www.w3.org/1999/xlink" width="191.737pt" height="209.844pt" viewBox="0 0 191.737 209.844"><defs><clipPath id="a"><path d="M0 31h191.47266v129H0Zm0 0"/></clipPath><clipPath id="b"><path d="M0 26h191.47266v139H0Zm0 0"/></clipPath><clipPath id="d"><path d="M179 170h12.47266v17H179Zm0 0"/></clipPath><clipPath id="f"><path d="M0 26h191.47266v139H0Zm0 0"/></clipPath><path id="c" d="M2.01563.25 3.84375 0c.5625-2.15625.875-3.3125 1.42188-4.64062.625-1.625 2.70312-4.82813 4.54687-4.82813.48438 0 .75.32813.75.875 0 .17188-.01562.375-.07812.59375L8.75-2.01562c-.10937.375-.17187.73437-.17187 1.03125C8.57813-.20312 8.98438.25 9.85938.25 11.3125.25 12.5-1.1875 13.20313-2.78125l-.5-.28125c-.39063.73438-1.32813 2.21875-1.90625 2.21875-.25 0-.34375-.15625-.34375-.40625q0-.30468.14062-.75L12.25-7.51562c.15625-.5.21875-.95313.21875-1.375 0-.98438-.46875-1.67188-1.67187-1.67188-2 0-4.26563 2.17188-5.60938 4.70313h-.03125L7.5-15.51562l-.10937-.09375-3.78125.5-.14063.48437 1.20313.14063c.35937.04687.51562.10937.51562.42187 0 .15625-.01562.34375-.07812.60938Zm0 0"/><path id="e" d="M1.84375 0h.75L3.25-1.23437C3.625-.35937 4.67188.25 5.89063.25c2.46875 0 4.25-1.64062 5.28125-3.5 1.04687-1.85937 1.39062-3.71875 1.39062-4.65625 0-1.5625-.67187-2.65625-2.23437-2.65625-1.59375 0-3.70313 1.45313-5.3125 4.34375h-.04688l2.32813-9.29687-.09375-.09375-3.75.5-.14063.48437 1.1875.14063c.35938.04687.51563.10937.51563.42187 0 .15625-.01563.34375-.09375.60938ZM4.4375-2.28125c0-1.01562.4375-2.46875 1.10938-3.70312C6.5-7.65625 8.07813-9.46875 9.375-9.46875c.79688 0 1.125.53125 1.125 1.75C10.5-6.20312 9.25-.5 6.15625-.5 5.07813-.5 4.4375-1.23437 4.4375-2.28125m0 0"/></defs><g clip-path="url(#a)"><path fill="#FFFCCC" d="M.19922 159.29688h191.0586l-63.6875-127.3711Zm0 0"/></g><g clip-path="url(#b)"><path fill="none" stroke="#000" stroke-miterlimit="10" stroke-width=".39795" d="M.19922 159.29686h191.05855L127.5703 31.9258Zm0 0"/></g><path fill="none" stroke="#007F7F" stroke-miterlimit="10" stroke-width=".39795" d="M108.47654 158.48827V32.71877"/><path fill="#007F7F" stroke="#007F7F" stroke-miterlimit="10" stroke-width=".39795" d="m110.8086 153.29297-2.33204 5.4961-2.33203-5.4961Zm-4.66407-115.37891 2.33203-5.49218 2.33203 5.49218Zm0 0"/><use xlink:href="#c" x="86.23971" y="103.28225" fill="#007F7F"/><path fill="none" stroke="#007F7F" stroke-miterlimit="10" stroke-width=".39795" d="M1.00781 178.40623h189.4609"/><path fill="#007F7F" stroke="#007F7F" stroke-miterlimit="10" stroke-width=".39795" d="m6.20312 180.73828-5.49609-2.33203 5.4961-2.33203Zm0 0"/><path fill="#007F7F" d="m185.27344 176.07422 5.4961 2.33203-5.4961 2.33203Zm0 0"/><g clip-path="url(#d)"><path fill="none" stroke="#007F7F" stroke-miterlimit="10" stroke-width=".39795" d="m185.27344 176.07422 5.4961 2.33203-5.4961 2.33203Zm0 0"/></g><use xlink:href="#e" x="89.2346" y="201.91496" fill="#007F7F"/><path fill="none" stroke="#000" stroke-miterlimit="10" stroke-width=".39795" d="M127.57029 31.9258v127.37106"/><path fill="none" stroke="red" stroke-miterlimit="10" stroke-width=".39795" d="M127.57029 159.29686v-12.73828h12.73827v12.73828H127.5703"/><g clip-path="url(#f)"><path fill="none" stroke="#000" stroke-miterlimit="10" stroke-width=".39795" d="M.19922 159.29686h191.05855L127.5703 31.9258Zm0 0"/></g></svg>