<svg xmlns="http://www.w3.org/2000/svg" xmlns:xlink="http://www.w3.org/1999/xlink" width="71.265pt" height="106.299pt" viewBox="0 0 71.265 106.299"><defs><clipPath id="a"><path d="M0 17h70.53906v71H0Zm0 0"/></clipPath><clipPath id="b"><path d="M0 12h70.53906v82H0Zm0 0"/></clipPath><clipPath id="c"><path d="M58 44h12.53906v17H58Zm0 0"/></clipPath><path id="d" d="m1.23438.14063 1-.14063c.1875-.75.40625-1.6875.59375-2.35937.42187-1.53125 1-2.51563 1.4375-2.51563.35937 0 .4375.28125.8125.28125.29687 0 .54687-.375.54687-.73437 0-.28125-.125-.48438-.51562-.48438-.65625 0-1.45313.71875-2.09375 1.98438L3.53125-5.75l-.0625-.0625L1.48438-5.5l-.07813.28125.71875.0625c.17188.01563.23438.07813.23438.21875 0 .07813-.03125.1875-.0625.34375Zm0 0"/></defs><g clip-path="url(#a)"><path fill="#FFE5CC" d="M70.33984 52.80078c0-19.36719-15.70312-35.07031-35.0703-35.07031-19.3711 0-35.07423 15.70312-35.07423 35.07031 0 19.3711 15.70313 35.07422 35.07422 35.07422 19.36719 0 35.07031-15.70312 35.07031-35.07422m0 0"/></g><g clip-path="url(#b)"><path fill="none" stroke="#000" stroke-miterlimit="10" stroke-width=".39443" d="M70.33986 52.80078c0-19.3672-15.70313-35.07032-35.07033-35.07032-19.3711 0-35.07423 15.70313-35.07423 35.07032 0 19.3711 15.70313 35.07423 35.07423 35.07423 19.3672 0 35.07033-15.70313 35.07033-35.07423Zm0 0"/></g><path fill="none" stroke="#007F7F" stroke-miterlimit="10" stroke-width=".39443" d="M36.07031 52.80078h33.46876"/><path fill="#007F7F" stroke="#007F7F" stroke-miterlimit="10" stroke-width=".39443" d="m41.21875 55.11328-5.44531-2.3125 5.44531-2.3086Zm0 0"/><path fill="#007F7F" d="m64.39063 50.49219 5.4453 2.3086-5.4453 2.3125Zm0 0"/><g clip-path="url(#c)"><path fill="none" stroke="#007F7F" stroke-miterlimit="10" stroke-width=".39443" d="m64.39062 50.49219 5.44532 2.3086-5.44532 2.3125Zm0 0"/></g><use xlink:href="#d" x="49.99339" y="48.31239" fill="#007F7F"/></svg>