<svg xmlns="http://www.w3.org/2000/svg" width="52.262pt" height="52.262pt" viewBox="0 0 52.262 52.262"><defs><clipPath id="a"><path d="M17 38h19v13.53516H17Zm0 0"/></clipPath><clipPath id="b"><path d="M38 16h13.53516v19H38Zm0 0"/></clipPath></defs><path fill="#CCE5E5" stroke="#000" stroke-miterlimit="10" stroke-width=".39295" d="M3.92969 47.60547h43.67576V3.9297H3.92969Zm0 0"/><path fill="none" stroke="red" stroke-miterlimit="10" stroke-width=".39295" d="M47.60545 47.60547h-6.98828v-6.98828h6.98828v6.98828m0-43.67577v6.9883h-6.98828V3.9297h6.98828m-43.67576 0h6.98828v6.9883H3.92969V3.9297m0 43.67577v-6.98828h6.98828v6.98828H3.92969"/><g clip-path="url(#a)"><path fill="none" stroke="red" stroke-miterlimit="10" stroke-width=".39295" d="m22.8203 51.53515 3.9297-7.85937m-.98438 7.85937 3.9297-7.85937"/></g><g clip-path="url(#b)"><path fill="none" stroke="red" stroke-miterlimit="10" stroke-width=".39295" d="m51.53513 28.71485-7.85937-3.92968m7.85937.98047-7.85937-3.92969"/></g><path fill="none" stroke="red" stroke-miterlimit="10" stroke-width=".39295" d="M28.71483.00002 24.78515 7.8594M25.7656.00002 21.83593 7.8594M0 22.82033 7.85937 26.75M0 25.76564l7.85937 3.92968"/><path fill="none" stroke="#000" stroke-miterlimit="10" stroke-width=".39295" d="M3.92969 47.60547h43.67576V3.9297H3.92969Zm0 0"/></svg>