<svg xmlns="http://www.w3.org/2000/svg" width="87.686" height="87.686" viewBox="0 0 87.686 87.686"><defs><clipPath id="a"><path d="M35 73h19v14.375H35Zm0 0"/></clipPath><clipPath id="b"><path d="M73 34h14.375v19H73Zm0 0"/></clipPath></defs><path fill="#CCE5E5" stroke="#000" stroke-miterlimit="10" stroke-width=".39708" d="M3.97266 83.40234h79.4297V3.96874H3.97266Zm0 0"/><path fill="none" stroke="red" stroke-miterlimit="10" stroke-width=".39708" d="M83.40236 83.40234H70.69142V70.6914h12.71094v12.71094m0-79.4336v12.71094H70.69142V3.96874h12.71094m-79.4297 0h12.70703v12.71094H3.97266V3.96874m0 79.4336V70.6914h12.70703v12.71094H3.97266"/><g clip-path="url(#a)"><path fill="none" stroke="red" stroke-miterlimit="10" stroke-width=".39708" d="m40.70704 87.375 3.97266-7.94531m-.9922 7.94531 3.96876-7.94531"/></g><g clip-path="url(#b)"><path fill="none" stroke="red" stroke-miterlimit="10" stroke-width=".39708" d="M87.37502 46.66406 79.4336 42.6953m7.9414.99218-7.9414-3.97265"/></g><path fill="none" stroke="red" stroke-miterlimit="10" stroke-width=".39708" d="m46.66407-.00001-3.96875 7.9414M43.68751 0l-3.97266 7.9414M0 40.70702l7.9414 3.97266M0 43.6875l7.9414 3.96875"/><path fill="none" stroke="#000" stroke-miterlimit="10" stroke-width=".39708" d="M3.97266 83.40234h79.4297V3.96874H3.97266Zm0 0"/></svg>