<svg xmlns="http://www.w3.org/2000/svg" xmlns:xlink="http://www.w3.org/1999/xlink" width="133.649pt" height="116.58pt" viewBox="0 0 133.649 116.58"><defs><clipPath id="a"><path d="M27 17h106.23438v72H27Zm0 0"/></clipPath><clipPath id="b"><path d="M21 12h112.23438v82H21Zm0 0"/></clipPath><clipPath id="d"><path d="M121 90h12.23438v17H121Zm0 0"/></clipPath><clipPath id="f"><path d="M21 12h112.23438v82H21Zm0 0"/></clipPath><path id="c" d="M1.10938.14063 2.14063 0c.29687-1.1875.48437-1.84375.78125-2.5625.34375-.90625 1.5-2.6875 2.51562-2.6875.26563 0 .42188.1875.42188.48438 0 .09375-.01563.21875-.04688.34375l-.96875 3.3125c-.0625.20312-.09375.40625-.09375.5625 0 .4375.21875.6875.70313.6875.8125 0 1.46875-.79688 1.85937-1.67188l-.28125-.17187c-.20312.40625-.73437 1.23437-1.04687 1.23437-.14063 0-.1875-.09375-.1875-.21875s.01562-.25.07812-.42187l.90625-3.0625c.09375-.26563.125-.51563.125-.75 0-.54688-.25-.9375-.92187-.9375C4.875-5.85937 3.625-4.65625 2.875-3.25h-.01562l1.29687-5.34375-.0625-.04687L2-8.375l-.07812.28125.67187.0625c.20313.03125.28125.0625.28125.23438 0 .09375-.01562.1875-.04687.34375Zm0 0"/><path id="e" d="M1.01563 0h.42187l.35938-.6875c.21874.48438.79687.82813 1.46875.82813 1.35937 0 2.35937-.90625 2.92187-1.9375.59375-1.03125.76563-2.0625.76563-2.57813 0-.875-.35938-1.48437-1.23438-1.48437s-2.04687.8125-2.9375 2.40625H2.75l1.29688-5.14063L4-8.64062 1.90625-8.375l-.0625.28125.65625.0625c.1875.03125.28125.0625.28125.23438 0 .09375-.01562.1875-.04687.34375Zm1.4375-1.26562c0-.5625.25-1.35938.625-2.04688C3.59375-4.25 4.48438-5.25 5.20313-5.25c.42187 0 .60937.29688.60937.96875 0 .84375-.6875 4.01563-2.40625 4.01563-.59375 0-.95312-.42188-.95312-1m0 0"/></defs><g clip-path="url(#a)"><path fill="#CFC" d="M27.11719 88.26563h105.91797L27.11719 17.65233Zm0 0"/></g><g clip-path="url(#b)"><path fill="none" stroke="#000" stroke-miterlimit="10" stroke-width=".39707" d="M27.11719 88.26562h105.91794L27.11719 17.65235Zm0 0"/></g><path fill="none" stroke="#007F7F" stroke-miterlimit="10" stroke-width=".39707" d="M16.52735 87.46093V18.45704"/><path fill="#007F7F" stroke="#007F7F" stroke-miterlimit="10" stroke-width=".39707" d="m18.85156 82.27344-2.32422 5.48437-2.32812-5.48437Zm-4.65234-58.62891 2.32812-5.48437 2.32422 5.48437Zm0 0"/><use xlink:href="#c" x="4.20111" y="57.21487" fill="#007F7F"/><path fill="none" stroke="#007F7F" stroke-miterlimit="10" stroke-width=".39707" d="M27.92187 98.85936h104.30857"/><path fill="#007F7F" stroke="#007F7F" stroke-miterlimit="10" stroke-width=".39707" d="M33.10937 101.1836 27.625 98.85936l5.48437-2.32812Zm0 0"/><path fill="#007F7F" d="m127.04688 96.53125 5.48046 2.32813-5.48047 2.32421Zm0 0"/><g clip-path="url(#d)"><path fill="none" stroke="#007F7F" stroke-miterlimit="10" stroke-width=".39707" d="m127.04688 96.53125 5.48046 2.32812-5.48046 2.32422Zm0 0"/></g><use xlink:href="#e" x="76.47174" y="111.8889" fill="#007F7F"/><path fill="none" stroke="red" stroke-miterlimit="10" stroke-width=".39707" d="M27.11719 88.26562v-7.0625h7.0625v7.0625h-7.0625"/><g clip-path="url(#f)"><path fill="none" stroke="#000" stroke-miterlimit="10" stroke-width=".39707" d="M27.11719 88.26562h105.91794L27.11719 17.65235Zm0 0"/></g></svg>