<svg xmlns="http://www.w3.org/2000/svg" width="518.186" height="191.716" viewBox="0 0 518.186 191.716"><defs><clipPath id="a"><path d="M3 .00781h192v191.41797H3Zm0 0"/></clipPath><clipPath id="b"><path d="M0 .00781h201v191.41797H0Zm0 0"/></clipPath><clipPath id="c"><path d="M182 .00781h14V14h-14Zm0 0"/></clipPath><clipPath id="d"><path d="M3 .00781h14V14H3Zm0 0"/></clipPath><clipPath id="e"><path d="M54 .00781h14V14H54Zm0 0"/></clipPath><clipPath id="f"><path d="M0 .00781h201v191.41797H0Zm0 0"/></clipPath><clipPath id="g"><path d="M322 .00781h192v191.41797H322Zm0 0"/></clipPath><clipPath id="h"><path d="M316 .00781h201.375v191.41797H316Zm0 0"/></clipPath><clipPath id="i"><path d="M386 127h64v64.42578h-64Zm0 0"/></clipPath><clipPath id="j"><path d="M380 121h76v70.42578h-76Zm0 0"/></clipPath><clipPath id="k"><path d="M386 .00781h64V64h-64Zm0 0"/></clipPath><clipPath id="l"><path d="M380 .00781h76V70h-76Zm0 0"/></clipPath><clipPath id="m"><path d="M500 .00781h14V14h-14Zm0 0"/></clipPath><clipPath id="n"><path d="M322 .00781h14V14h-14Zm0 0"/></clipPath><clipPath id="o"><path d="M373 .00781h14V14h-14Zm0 0"/></clipPath><clipPath id="p"><path d="M503 51h14.375v22H503Zm0 0"/></clipPath><clipPath id="q"><path d="M316 .00781h201.375v191.41797H316Zm0 0"/></clipPath></defs><g clip-path="url(#a)"><path fill="#CCE5E5" d="M3.98047 127.55078h63.67187v63.67578l63.67188-63.67578H195V.20703h-63.67578L67.65234 63.87891V.20703H3.98047Zm0 0"/></g><g clip-path="url(#b)"><path fill="none" stroke="#000" stroke-miterlimit="10" stroke-width=".39787" d="M3.98047 127.55078h63.6719v63.6758l63.6719-63.6758h63.6758V.20698h-63.6758l-63.6719 63.6719V.20698H3.98047Zm0 0"/></g><path fill="none" stroke="red" stroke-miterlimit="10" stroke-width=".39787" d="M3.98047 127.55078V114.8164h12.73438v12.73438H3.98047m191.01961 0h-12.73829V114.8164h12.73829v12.73438"/><g clip-path="url(#c)"><path fill="none" stroke="red" stroke-miterlimit="10" stroke-width=".39787" d="M195.00008.20698v12.73438h-12.73829V.20698h12.73829"/></g><g clip-path="url(#d)"><path fill="none" stroke="red" stroke-miterlimit="10" stroke-width=".39787" d="M3.98047.20698h12.73438v12.73438H3.98047V.20698"/></g><g clip-path="url(#e)"><path fill="none" stroke="red" stroke-miterlimit="10" stroke-width=".39787" d="M67.65237.20698v12.73438H54.91799V.20698h12.73438"/></g><path fill="none" stroke="red" stroke-miterlimit="10" stroke-width=".39787" d="M67.65237 127.55078v12.73829H54.91799v-12.73829h12.73438M0 60.8945l7.95703 3.98048M0 63.87888l7.95703 3.98047M0 66.86325l7.95703 3.97657m191.01961-3.97656-7.95703-3.98047m7.95703.9961-7.95703-3.98048m7.95703.9961-7.95703-3.98048M71.63284 162.37501l-7.96094-3.98047m7.96094.9961-7.96094-3.98047M71.63284 35.0273l-7.96094-3.98046m7.96094.9961-7.96094-3.98048m35.78908 135.33209v-7.95704m.05468-127.40239v7.95703"/><g clip-path="url(#f)"><path fill="none" stroke="#000" stroke-miterlimit="10" stroke-width=".39787" d="M3.98047 127.55078h63.6719v63.6758l63.6719-63.6758h63.6758V.20698h-63.6758l-63.6719 63.6719V.20698H3.98047Zm0 0"/></g><path fill="none" stroke="#000" stroke-miterlimit="10" stroke-width=".39787" d="M226.85946 63.87107h63.28128"/><path fill="none" stroke="#000" stroke-linecap="round" stroke-linejoin="round" stroke-miterlimit="10" stroke-width=".39787" d="M288.27344 61.48437c.375 1.4336 1.21875 2.10938 2.0664 2.38672-.84765.28125-1.6914.95704-2.0664 2.38672"/><g clip-path="url(#g)"><path fill="#CCE5E5" d="M322.3789 127.55078h63.67579v63.67578l63.67187-63.67578h63.67578V.20703h-63.67578L386.0547 63.87891V.20703h-63.6758Zm0 0"/></g><g clip-path="url(#h)"><path fill="none" stroke="#000" stroke-miterlimit="10" stroke-width=".39787" d="M322.37903 127.55078h63.67581v63.6758l63.6719-63.6758h63.6758V.20698h-63.6758l-63.6719 63.6719V.20698h-63.6758Zm0 0"/></g><g clip-path="url(#i)"><path fill="#FBCCE8" d="M386.05469 127.55078v63.67578l63.67187-63.67578Zm0 0"/></g><g clip-path="url(#j)"><path fill="none" stroke="#000" stroke-miterlimit="10" stroke-width=".39787" d="M386.05484 127.55078v63.6758l63.6719-63.6758Zm0 0"/></g><g clip-path="url(#k)"><path fill="#CFC" d="M449.72656.20703 386.0547 63.87891V.20703Zm0 0"/></g><g clip-path="url(#l)"><path fill="none" stroke="#000" stroke-miterlimit="10" stroke-width=".39787" d="m449.72674.20698-63.6719 63.6719V.20698Zm0 0"/></g><path fill="none" stroke="red" stroke-miterlimit="10" stroke-width=".39787" d="M322.37903 127.55078V114.8164h12.73829v12.73438h-12.73829m191.02352 0h-12.73829V114.8164h12.73829v12.73438"/><g clip-path="url(#m)"><path fill="none" stroke="red" stroke-miterlimit="10" stroke-width=".39787" d="M513.40255.20698v12.73438h-12.73829V.20698h12.73829"/></g><g clip-path="url(#n)"><path fill="none" stroke="red" stroke-miterlimit="10" stroke-width=".39787" d="M322.37903.20698h12.73829v12.73438h-12.73829V.20698"/></g><g clip-path="url(#o)"><path fill="none" stroke="red" stroke-miterlimit="10" stroke-width=".39787" d="M386.05484.20698v12.73438h-12.73829V.20698h12.7383"/></g><path fill="none" stroke="red" stroke-miterlimit="10" stroke-width=".39787" d="M386.05484 127.55078v12.73829h-12.73829v-12.73829h12.7383M318.40247 60.8945l7.95703 3.98048m-7.95703-.9961 7.95703 3.98047m-7.95703-.9961 7.95703 3.97657"/><g clip-path="url(#p)"><path fill="none" stroke="red" stroke-miterlimit="10" stroke-width=".39787" d="m517.37911 66.86326-7.95703-3.98047m7.95703.9961-7.95703-3.98048m7.95703.9961-7.95703-3.98048"/></g><path fill="none" stroke="red" stroke-miterlimit="10" stroke-width=".39787" d="m390.0314 162.37501-7.95703-3.98047m7.95703.9961-7.95703-3.98047M390.0314 35.0273l-7.95703-3.98046m7.95703.9961-7.95703-3.98048m35.78908 135.33209v-7.95704m.05468-127.40239v7.95703"/><g clip-path="url(#q)"><path fill="none" stroke="#000" stroke-miterlimit="10" stroke-width=".39787" d="M322.37903 127.55078h63.67581v63.6758l63.6719-63.6758h63.6758V.20698h-63.6758l-63.6719 63.6719V.20698h-63.6758Zm0 0"/></g></svg>