<svg xmlns="http://www.w3.org/2000/svg" xmlns:xlink="http://www.w3.org/1999/xlink" width="139.009pt" height="121.243pt" viewBox="0 0 139.009 121.243"><defs><clipPath id="a"><path d="M22 12h116.02344v86H22Zm0 0"/></clipPath><clipPath id="c"><path d="M126 94h12.02344v17H126Zm0 0"/></clipPath><clipPath id="e"><path d="M22 12h116.02344v86H22Zm0 0"/></clipPath><path id="b" d="M1.15625.14063 2.21875 0c.3125-1.23437.5-1.90625.79688-2.65625C3.375-3.59375 4.57813-5.4375 5.625-5.4375c.29688 0 .4375.1875.4375.5 0 .10938 0 .21875-.04687.34375l-.98438 3.4375c-.0625.21875-.10937.42188-.10937.59375 0 .45313.23437.70313.73437.70313.84375 0 1.51563-.82813 1.9375-1.73438l-.29687-.17187c-.21875.42187-.76563 1.28125-1.09375 1.28125C6.0625-.48437 6-.57812 6-.71875c0-.10937.03125-.26562.07813-.42187l.95312-3.1875c.09375-.28125.125-.53125.125-.78125 0-.5625-.26562-.95313-.95312-.95313-1.15625 0-2.45313 1.23438-3.21875 2.6875h-.03125L4.3125-8.90625l-.0625-.0625-2.17187.28125L2-8.39062l.6875.07812c.20313.01563.29688.0625.29688.23438 0 .09375-.01563.20312-.04688.34375Zm0 0"/><path id="d" d="M1.04688 0h.4375l.375-.70312c.21874.5.82812.84375 1.51562.84375 1.42188 0 2.45313-.9375 3.04688-2C7.01563-2.9375 7.21875-4 7.21875-4.54687c0-.89063-.39062-1.51563-1.29687-1.51563S3.8125-5.23437 2.875-3.57812h-.01562L4.1875-8.90625l-.04687-.0625-2.15625.28125-.07813.29688.67188.07812c.21875.01563.29687.0625.29687.23438 0 .09375 0 .20312-.04687.34375Zm1.5-1.3125c0-.57812.25-1.40625.64062-2.125.54688-.95312 1.45313-2 2.20313-2 .45312 0 .64062.3125.64062 1 0 .875-.71875 4.15625-2.5 4.15625-.60937 0-.98437-.42187-.98437-1.03125m0 0"/></defs><path fill="#cfc" d="M28.03906 91.52734h109.78907L28.03906 18.33204Zm0 0"/><g clip-path="url(#a)"><path fill="none" stroke="#000" stroke-miterlimit="10" stroke-width=".39568" d="M28.03906 91.52733h109.78902L28.03906 18.33205Zm0 0"/></g><path fill="none" stroke="#007f7f" stroke-miterlimit="10" stroke-width=".39568" d="M17.0586 90.72264V19.14845"/><path fill="#007f7f" stroke="#007f7f" stroke-miterlimit="10" stroke-width=".39568" d="m19.3789 85.5586-2.3203 5.46093-2.31641-5.46093Zm-4.63671-61.2422 2.3164-5.46484 2.32032 5.46484Zm0 0"/><use xlink:href="#b" x="4.28644" y="59.34857" fill="#007f7f"/><path fill="none" stroke="#007f7f" stroke-miterlimit="10" stroke-width=".39568" d="M28.83984 102.50389h108.16402"/><path fill="#007f7f" stroke="#007f7f" stroke-miterlimit="10" stroke-width=".39568" d="m34.00781 104.82422-5.46484-2.32031 5.46484-2.32032Zm0 0"/><path fill="#007f7f" d="m131.83594 100.1836 5.46484 2.3203-5.46484 2.32032Zm0 0"/><g clip-path="url(#c)"><path fill="none" stroke="#007f7f" stroke-miterlimit="10" stroke-width=".39568" d="m131.83594 100.1836 5.46484 2.3203-5.46484 2.32032Zm0 0"/></g><use xlink:href="#d" x="79.18548" y="116.01063" fill="#007f7f"/><path fill="none" stroke="red" stroke-miterlimit="10" stroke-width=".39568" d="M28.03906 84.21092h7.3164v7.3164"/><g clip-path="url(#e)"><path fill="none" stroke="#000" stroke-miterlimit="10" stroke-width=".39568" d="M28.03906 91.52733h109.78902L28.03906 18.33205Zm0 0"/></g></svg>