<svg xmlns="http://www.w3.org/2000/svg" width="297.992pt" height="110.971pt" viewBox="0 0 297.992 110.971"><defs><clipPath id="a"><path d="M3 0h111v110.9414H3Zm0 0"/></clipPath><clipPath id="b"><path d="M.03516 0H120v110.9414H.03516Zm0 0"/></clipPath><clipPath id="c"><path d="M.03516 29H12v12H.03516Zm0 0"/></clipPath><clipPath id="d"><path d="M.03516 31H12v12H.03516Zm0 0"/></clipPath><clipPath id="e"><path d="M.03516 33H12v12H.03516Zm0 0"/></clipPath><clipPath id="f"><path d="M.03516 0H120v110.9414H.03516Zm0 0"/></clipPath></defs><g clip-path="url(#a)"><path fill="#cce5e5" d="M3.22266 73.89453H40.0703v36.84766l36.84766-36.84766h36.84766V.19922H76.91797L40.0703 37.04688V.19922H3.22266Zm0 0"/></g><g clip-path="url(#b)"><path fill="none" stroke="#000" stroke-miterlimit="10" stroke-width=".3984" d="M3.22266 73.89453h36.84766v36.84767L76.918 73.89453h36.84766V.1992H76.918L40.07032 37.04686V.1992H3.22266Zm0 0"/></g><path fill="none" stroke="red" stroke-miterlimit="10" stroke-width=".3984" d="M3.22266 66.52734h7.36719v7.3672m95.80861-.00001v-7.36719h7.3672m-.00001-58.96095h-7.36719V.1992m-95.80861 0v7.36719h-7.3672m36.84767 0h-7.36719V.1992m7.36719 81.06252h-7.36719v-7.36719"/><g clip-path="url(#c)"><path fill="none" stroke="red" stroke-miterlimit="10" stroke-width=".3984" d="m.23437 34.81249 5.97657.4961"/></g><g clip-path="url(#d)"><path fill="none" stroke="red" stroke-miterlimit="10" stroke-width=".3984" d="m.23437 36.80468 5.97657.4961"/></g><g clip-path="url(#e)"><path fill="none" stroke="red" stroke-miterlimit="10" stroke-width=".3984" d="m.23437 38.79687 5.97657.49609"/></g><path fill="none" stroke="red" stroke-miterlimit="10" stroke-width=".3984" d="m116.7344 39.29296-5.97656-.4961m5.97656-1.49609-5.97656-.4961m5.97656-1.49609-5.97656-.49609M43.0508 93.5586l-5.97657-.4961m5.97657-1.49609-5.97657-.4961M43.0508 19.8789l-5.97657-.5m5.97657-1.4922-5.97657-.5m23.34766 77.21877-3.875-4.57812m0-73.68362 3.875 4.57813"/><g clip-path="url(#f)"><path fill="none" stroke="#000" stroke-miterlimit="10" stroke-width=".3984" d="M3.22266 73.89453h36.84766v36.84767L76.918 73.89453h36.84766V.1992H76.918L40.07032 37.04686V.1992H3.22266Zm0 0"/></g><path fill="none" stroke="#000" stroke-miterlimit="10" stroke-width=".3984" d="M132.168 37.05468h32.25782"/><path stroke="#000" stroke-miterlimit="10" stroke-width=".3984" d="M168.26563 37.05469c-.47266-.1289-2.54297-.84766-3.83985-1.625v3.25c1.29688-.78125 3.36719-1.5 3.83985-1.625Zm0 0"/></svg>