<svg xmlns="http://www.w3.org/2000/svg" xmlns:xlink="http://www.w3.org/1999/xlink" width="638.193pt" height="319.296pt" viewBox="0 0 638.193 319.296"><defs><path id="a" d="M.375 0h3.09375v-.29687C2.39063-.375 2.35938-.375 2.35938-.96875V-3.4375h1.46875c.89062 0 .9375.25 1.03125.92188h.3125v-2.25h-.3125c-.09375.67187-.14063.92187-1.03125.92187H2.35938v-2.6875c0-.34375.03125-.375.375-.375h1.04687c1.21875 0 1.46875.23438 1.60938 1.3125h.3125v-1.67187H.375v.29687c.92188.0625.9375.07813.9375.67188v5.32812c0 .59375-.01562.59375-.9375.67188Zm0 0"/><path id="b" d="M.96875-6.875c0 .375.26563.64063.64063.64063S2.25-6.5 2.25-6.875c0-.39062-.26562-.64062-.64062-.64062s-.64063.25-.64063.64062M.32813 0h2.5625v-.29687c-.75-.0625-.78125-.07813-.78125-.625v-4.29688l-.07813-.0625-1.64062.26563V-4.75l.39062.04688c.26563.04687.34375.09375.34375.46875v3.3125c0 .54687-.03125.5625-.79687.625Zm0 0"/><path id="c" d="M.4375 1c0 1.0625 1.0625 1.54688 2.28125 1.54688.625 0 1.28125-.125 1.79688-.4375.46875-.28125.82812-.79688.82812-1.4375 0-1.14063-.90625-1.53125-2.03125-1.53125h-.84375c-.75 0-.875-.26563-.875-.45313 0-.3125.40625-.48437.54688-.51562.20312.01562.42187.03124.53125.03124 1 0 2.125-.4375 2.125-1.71874 0-.4375-.14063-.79688-.32813-.98438l.84375-.125.21875-.67187L5.4375-5.375l-1.34375.42188c-.29687-.20313-.89062-.32813-1.35937-.32813-1.60938 0-2.17188.98438-2.17188 1.76563 0 .98437.64063 1.45312 1.125 1.5625v.03124c-.5625.21876-.95312.51563-.95312.9375 0 .375.42187.76563.92187.8125v.03126C1.20313 0 .4375.25.4375 1m1-.03125c0-.35937.10938-.64062.32813-.79687.23437-.1875.57812-.25 1.09375-.25.92187 0 1.60937.23437 1.60937 1.01562 0 .84375-.76562 1.25-1.51562 1.25-.89063 0-1.51563-.46875-1.51563-1.21875m.20313-4.48437c0-1.03125.53125-1.39063 1.09375-1.39063.51562 0 1.04687.375 1.04687 1.39063 0 .89062-.45312 1.34375-1.0625 1.34375-.59375 0-1.07812-.45313-1.07812-1.34375m0 0"/><path id="d" d="m.26563-4.75.40625.04688C.9375-4.65625 1-4.60937 1-4.23437v2.78125C1-.25 1.71875.125 2.5.125c.90625 0 1.625-.60937 1.9375-.75L4.53125 0h1.6875v-.29687C5.5-.35937 5.42188-.375 5.42188-.92187v-4.29688l-.07813-.0625-1.64062.26563V-4.75l.40625.04688c.26562.04687.32812.09375.32812.46875v2.375c0 .29687-.03125.53125-.07812.625-.25.48437-.75.79687-1.29688.79687C2.45313-.4375 2-.82812 2-1.64062v-3.57813l-.07812-.0625-1.65625.26563Zm0 0"/><path id="e" d="M.32813 0h2.78125v-.29687c-.9375-.0625-1-.07813-1-.625V-3.375c0-.8125.35937-1.09375.60937-1.09375.17188 0 .34375.07813.65625.23438.07813.04687.15625.0625.20313.0625.26562 0 .48437-.26563.48437-.59375 0-.23438-.14062-.51563-.5625-.51563-.375 0-.6875.21875-1.39062.84375l-.125-.84375-1.59375.26563V-4.75l.39062.04688c.26563.04687.34375.09375.34375.46875v3.3125c0 .54687-.04687.5625-.79687.625Zm0 0"/><path id="f" d="M.51563-2.54687C.51563-.875 1.23438.125 2.9375.125c1.17188 0 1.76563-.65625 2.04688-1.48437l-.3125-.15626c-.28125.60938-.6875 1.10938-1.51563 1.10938-1.3125 0-1.5625-1.26562-1.54687-2.35937h3.03125c.21875 0 .42187-.04688.42187-.40625 0-.60938-.20312-2.10938-2.125-2.10938-1.65625 0-2.42187 1.17188-2.42187 2.73438m1.10937-.625c0-.4375.15625-1.73438 1.25-1.73438.96875 0 1.07813.98438 1.07813 1.40625 0 .20313-.0625.32813-.34375.32813Zm0 0"/><path id="g" d="M1.14063 0h3.45312v-.29687l-.875-.07813C3.48438-.40625 3.375-.48437 3.375-.89062v-6.20313l-.0625-.0625-2.17187.375v.26563l.98437.10937c.17188.03125.25.10938.25.40625v5.10938c0 .20312-.03125.3125-.09375.39062-.0625.09375-.14062.10938-.25.125l-.89062.07813Zm0 0"/><path id="h" d="M.28125-.09375.39063 0H4.75l.34375-1.39062-.28125-.04688c-.21875.5625-.4375.64063-.85937.64063h-2.6875c.17187-.54688.79687-1.29688 1.76562-2 1-.73438 1.79688-1.20313 1.79688-2.39063 0-1.45312-.98438-1.96875-2.09375-1.96875-1.4375 0-2.17188.875-2.17188 1.42188 0 .35937.40625.53125.57813.53125.1875 0 .26562-.10938.29687-.29688.17188-.70312.59375-1.28125 1.23438-1.28125.8125 0 1.04687.67188 1.04687 1.4375 0 1.14063-.57812 1.78125-1.5 2.57813C.92188-1.64062.48438-.92187.28125-.09375m0 0"/><path id="i" d="M.32813 0h2.5625v-.29687c-.75-.0625-.78125-.07813-.78125-.625V-3.375c0-.26562.01562-.40625.10937-.57812.21875-.40625.6875-.75 1.25-.75.71875 0 1.10938.39062 1.10938 1.29687v2.48438c0 .54687-.03125.5625-.79688.625V0h2.57813v-.29687c-.75-.0625-.79688-.07813-.79688-.625v-2.6875c0-1.0625-.57812-1.67188-1.54687-1.67188-.78125 0-1.26563.375-1.90625.8125l-.15625-.8125-1.5625.26563V-4.75l.39062.04688c.26563.04687.34375.09375.34375.46875v3.3125c0 .54687-.03125.5625-.79687.625Zm0 0"/><path id="j" d="M.32813-4.73437h.75v3.65625C1.07813 0 1.875.125 2.25.125c.53125 0 1.04688-.26562 1.34375-.45312L3.51563-.5625c-.26563.10938-.48438.14063-.75.14063-.35938 0-.70313-.26563-.70313-1.0625v-3.25h1.35938v-.42188H2.0625v-1.32812h-.29687L1.125-5.15625H.32813Zm0 0"/><path id="k" d="m2.10938-5.90625.15625.21875 1.59375-.89062c.3125-.17188.59375-.34375.59375-.57813 0-.20312-.25-.45312-.42188-.45312S3.6875-7.5 3.375-7.17187ZM.51563-2.54687C.51563-.875 1.23438.125 2.9375.125c1.17188 0 1.76563-.65625 2.04688-1.48437l-.3125-.15626c-.28125.60938-.6875 1.10938-1.51563 1.10938-1.3125 0-1.5625-1.26562-1.54687-2.35937h3.03125c.21875 0 .42187-.04688.42187-.40625 0-.60938-.20312-2.10938-2.125-2.10938-1.65625 0-2.42187 1.17188-2.42187 2.73438m1.10937-.625c0-.4375.15625-1.73438 1.25-1.73438.96875 0 1.07813.98438 1.07813 1.40625 0 .20313-.0625.32813-.34375.32813Zm0 0"/><path id="l" d="M.51563-2.46875C.51563-.92187 1.32813.125 2.71875.125c.57813 0 1.04688-.26562 1.625-.71875v.51563L4.4375 0H6.125v-.29687c-.75-.0625-.78125-.07813-.78125-.625v-6.8125l-.07812-.0625-1.65625.25v.28125l.40625.03125c.26562.03125.34375.07812.34375.48437v1.73438c-.29688-.17188-.6875-.26563-1.17188-.26563-.85937 0-1.51562.28125-1.95312.73438-.4375.46875-.71875 1.15625-.71875 2.07812m1.09375-.125c0-1.35937.5-2.3125 1.5625-2.3125.5 0 .90625.21875 1.09375.65625.09375.17188.09375.32813.09375.60938v1.84375c0 .23437 0 .42187-.07813.59375-.20312.54687-.67187.76562-1.21875.76562-.95312 0-1.45312-.95312-1.45312-2.15625m0 0"/><path id="m" d="m.76563-5.14062.17187.17187c.53125-.48437 1.25-1.1875 1.25-1.9375 0-.5625-.35937-.89062-.70312-.89062-.3125 0-.5.21875-.5.5 0 .39062.34375.59375.34375.98437 0 .40625-.25.79688-.5625 1.17188m0 0"/><path id="n" d="M.51563-1.35937C.51563-.57812 1.04688.125 2.03125.125 2.64063.125 3.25-.28125 3.59375-.5c.14063.39063.32813.625.6875.625.39063 0 .84375-.10937 1.25-.3125l-.07812-.25c-.14063.03125-.375.04688-.53125 0-.1875-.04687-.375-.23437-.375-.89062V-3.875c0-.625-.125-1.40625-1.71875-1.40625-1.1875 0-2.125.60938-2.125 1.20313 0 .32812.39062.48437.59375.48437.21874 0 .28124-.10937.34375-.28125.23437-.79687.65625-1.03125 1.07812-1.03125.40625 0 .89063.20313.89063 1.04688v.4375c-.28125.26562-1.29688.53125-2.125.79687-.75.23438-.96875.76563-.96875 1.26563m1.0625-.15626c0-.48437.21874-.75.8125-.96874.42187-.15625.98437-.35938 1.21875-.5V-1.5c0 .84375-.65625 1.0625-1.0625 1.0625-.65625 0-.96875-.45312-.96875-1.07812m0 0"/><clipPath id="o"><path d="M.30078 0h636.78906v318.59375H.30078Zm0 0"/></clipPath></defs><path fill="#CCE5E5" stroke="#000" stroke-miterlimit="10" stroke-width=".79526" d="M64.13672 254.7539h127.28125v-63.64062h-63.64063v-63.63672H255.0586V63.83594H64.13672Zm0 0"/><use xlink:href="#a" x="145.44538" y="244.31532"/><use xlink:href="#b" x="151.45081" y="244.31532"/><use xlink:href="#c" x="154.50386" y="244.31532"/><use xlink:href="#d" x="159.96131" y="244.31532"/><use xlink:href="#e" x="166.32462" y="244.31532"/><use xlink:href="#f" x="170.19404" y="244.31532"/><use xlink:href="#g" x="177.94408" y="244.31532"/><path fill="#CCE5E5" stroke="#000" stroke-miterlimit="10" stroke-width=".79526" d="M382.33984 254.7539h63.63672v-63.64062h127.28125v-63.63672H509.6172V63.83594H318.69922v63.64062h63.64062Zm0 0"/><use xlink:href="#a" x="527.28048" y="180.67564"/><use xlink:href="#b" x="533.28592" y="180.67564"/><use xlink:href="#c" x="536.33897" y="180.67564"/><use xlink:href="#d" x="541.79642" y="180.67564"/><use xlink:href="#e" x="548.15973" y="180.67564"/><use xlink:href="#f" x="552.02916" y="180.67564"/><use xlink:href="#h" x="559.77919" y="180.67564"/><path fill="#CCE5E5" stroke="#000" stroke-miterlimit="10" stroke-width=".79526" d="M255.0586 254.7539h63.64062v-63.64062h-63.64063Zm0 0"/><use xlink:href="#g" x="277.93525" y="233.31133"/><use xlink:href="#d" x="285.86422" y="233.31133"/><use xlink:href="#i" x="292.22753" y="233.31133"/><use xlink:href="#b" x="298.72503" y="233.31133"/><use xlink:href="#j" x="301.77808" y="233.31133"/><use xlink:href="#k" x="305.39029" y="233.31133"/><use xlink:href="#l" x="277.93525" y="246.73"/><use xlink:href="#m" x="283.96306" y="246.73"/><use xlink:href="#n" x="286.25564" y="246.73"/><use xlink:href="#b" x="291.74665" y="246.73"/><use xlink:href="#e" x="294.79969" y="246.73"/><use xlink:href="#f" x="298.66912" y="246.73"/><g clip-path="url(#o)"><path fill="none" stroke="#000" stroke-dasharray=".3976233 1.9881663900000002" stroke-miterlimit="10" stroke-width=".39762" d="M.4961 318.39453h636.40234M.49609 254.75391h636.40235M.49609 191.11328h636.40235M.49609 127.47656h636.40235M.49609 63.83594h636.40235M.49609.21875h636.40235M.49609 318.39453V.19531m63.64063 318.19922V.19531m63.64062 318.19922V.19531m63.64063 318.19922V.19531m63.64062 318.19922V.19531m63.64063 318.19922V.19531m63.64062 318.19922V.19531m63.63672 318.19922V.19531m63.64063 318.19922V.19531m63.64062 318.19922V.19531M636.875 318.39453V.19531"/></g></svg>