<svg xmlns="http://www.w3.org/2000/svg" xmlns:xlink="http://www.w3.org/1999/xlink" width="141.121pt" height="120.492pt" viewBox="0 0 141.121 120.492"><defs><clipPath id="b"><path d="M125 94h15.2461v17H125Zm0 0"/></clipPath><clipPath id="d"><path d="M128 49h12.2461v12H128Zm0 0"/></clipPath><path id="a" d="m.53125-1.32812.98438-.51563c.04687 1.125.5 2 1.42187 2 1.14063 0 1.64063-.70312 1.92188-1.14062l-.09375-.23438c-.92188.8125-1.35938.82813-1.71875.82813-.39063 0-.60938-.25-.60938-.78125 0-.25.15625-1.04688.23438-1.39063.95312-.79687 4.125-3.6875 4.125-6.10937 0-.46875-.17188-.89063-.76563-.89063-2.35937 0-4.20312 4.53125-4.5 7.17188l-.85937.60937Zm2.32813-1.89063c.35937-1.07812.90625-2.98437 1.75-4.39062.42187-.6875.96875-1.40625 1.35937-1.40625.23438 0 .29688.23437.29688.53125 0 2.0625-2.23438 4.125-3.40625 5.26562m0 0"/><path id="c" d="M.25 0h6.20313l.60937-2.125h-.35937C6.09375-.625 5.53125-.42187 4.17188-.42187c-1.23438 0-1.5-.125-1.5-.5 0-.14063.03125-.3125.07812-.5625l1.35938-5.875c.09375-.40625.20312-.57813.51562-.60938l.71875-.04687.09375-.35938h-3.375l-.09375.35938.71875.04687c.20313.01563.29688.10938.29688.32813 0 .0625-.01563.15625-.03125.28125L1.5-1c-.10937.42188-.21875.54688-.51562.57813l-.65625.07812Zm0 0"/></defs><path fill="#fcc" stroke="#000" stroke-miterlimit="10" stroke-width=".39603" d="M27.21094 91.67579h109.89064V18.41796H27.21094Zm0 0"/><path fill="none" stroke="#007f7f" stroke-miterlimit="10" stroke-width=".39603" d="M16.22656 90.8711V19.23437"/><path fill="#007f7f" stroke="#007f7f" stroke-miterlimit="10" stroke-width=".39603" d="m18.54688 85.69922-2.32032 5.46875-2.32031-5.46875Zm-4.64063-61.29297 2.32031-5.46875 2.32032 5.46875Zm0 0"/><use xlink:href="#a" x="4.29028" y="59.75804" fill="#007f7f"/><path fill="none" stroke="#007f7f" stroke-miterlimit="10" stroke-width=".39603" d="M28.01563 102.66407h108.26173"/><path fill="#007f7f" stroke="#007f7f" stroke-miterlimit="10" stroke-width=".39603" d="m33.1875 104.98438-5.46875-2.32032 5.46875-2.32031Zm0 0"/><path fill="#007f7f" d="m131.10547 100.34375 5.46875 2.32031-5.46875 2.32031Zm0 0"/><g clip-path="url(#b)"><path fill="none" stroke="#007f7f" stroke-miterlimit="10" stroke-width=".39603" d="m131.10547 100.34375 5.46875 2.32031-5.46875 2.32032Zm0 0"/></g><use xlink:href="#c" x="78.51595" y="115.57636" fill="#007f7f"/><path fill="none" stroke="red" stroke-miterlimit="10" stroke-width=".39603" d="M129.77736 91.67579v-7.32422h7.32422m0-58.60939h-7.32422v-7.32422m-95.2422 0v7.32422h-7.32422m0 58.60939h7.32422v7.32422m46.375 2.96875.4922-5.9375m1.48827 5.9375.4922-5.9375"/><g clip-path="url(#d)"><path fill="none" stroke="red" stroke-miterlimit="10" stroke-width=".39603" d="m140.0508 55.30078-5.9414-.4961"/></g><path fill="none" stroke="red" stroke-miterlimit="10" stroke-width=".39603" d="m83.38282 15.46093-.49219 5.9414m-1.48828-5.9414-.49219 5.9414M24.24219 54.80469l5.9414.4961"/><path fill="none" stroke="#000" stroke-miterlimit="10" stroke-width=".39603" d="M27.21094 91.67579h109.89064V18.41796H27.21094Zm0 0"/></svg>