<svg xmlns="http://www.w3.org/2000/svg" width="514.221pt" height="191.716pt" viewBox="0 0 514.221 191.716"><defs><clipPath id="a"><path d="M3 .0039h193v191.4258H3Zm0 0"/></clipPath><clipPath id="b"><path d="M0 .0039h201v191.4258H0Zm0 0"/></clipPath><clipPath id="c"><path d="M182 .0039h14V14h-14Zm0 0"/></clipPath><clipPath id="d"><path d="M3 .0039h14V14H3Zm0 0"/></clipPath><clipPath id="e"><path d="M54 .0039h14V14H54Zm0 0"/></clipPath><clipPath id="f"><path d="M0 .0039h201v191.4258H0Zm0 0"/></clipPath></defs><g clip-path="url(#a)"><path fill="#CCE5E5" d="M3.98047 127.55469h63.67578v63.67578l63.67578-63.67578h63.67969V.19922h-63.67969L67.65625 63.8789V.1992H3.98047Zm0 0"/></g><g clip-path="url(#b)"><path fill="none" stroke="#000" stroke-miterlimit="10" stroke-width=".3979" d="M3.98047 127.55469h63.67576v63.67575l63.67575-63.67575h63.67967V.19927h-63.67967L67.65623 63.87893V.19927H3.98047Zm0 0"/></g><path fill="none" stroke="red" stroke-miterlimit="10" stroke-width=".3979" d="M3.98047 127.55469V114.8164h12.73437v12.73828H3.98047m191.03118.00001h-12.73828V114.8164h12.73828v12.73828"/><g clip-path="url(#c)"><path fill="none" stroke="red" stroke-miterlimit="10" stroke-width=".3979" d="M195.01165.19927v12.73827h-12.73828V.19927h12.73828"/></g><g clip-path="url(#d)"><path fill="none" stroke="red" stroke-miterlimit="10" stroke-width=".3979" d="M3.98047.19927h12.73437v12.73827H3.98047V.19927"/></g><g clip-path="url(#e)"><path fill="none" stroke="red" stroke-miterlimit="10" stroke-width=".3979" d="M67.65623.19927v12.73827H54.91795V.19927h12.73828"/></g><path fill="none" stroke="red" stroke-miterlimit="10" stroke-width=".3979" d="M67.65623 127.55469v12.73437H54.91795v-12.73437h12.73828M0 60.89456l7.95703 3.97656M0 63.87502l7.95703 3.98047M0 66.8594l7.95703 3.98047M198.9882 66.8594l-7.95702-3.97656m7.95703.99609-7.95703-3.98047m7.95703.9961-7.95703-3.98047M71.6367 162.37499l-7.96094-3.97656m7.96093.99218-7.96093-3.97656M71.6367 35.02347l-7.96094-3.98046m7.96093.99609-7.96093-3.98047M99.4648 163.39842v-7.95702m.0586-127.41011v7.95703"/><g clip-path="url(#f)"><path fill="none" stroke="#000" stroke-miterlimit="10" stroke-width=".3979" d="M3.98047 127.55469h63.67576v63.67575l63.67575-63.67575h63.67967V.19927h-63.67967L67.65623 63.87893V.19927H3.98047Zm0 0"/></g><path fill="none" stroke="#000" stroke-miterlimit="10" stroke-width=".3979" d="M226.871 63.87112h59.10936"/><path stroke="#000" stroke-miterlimit="10" stroke-width=".3979" d="M289.8125 63.8711c-.46875-.12891-2.53906-.84376-3.83203-1.625v3.24609c1.29297-.77735 3.36328-1.4961 3.83203-1.6211Zm0 0"/></svg>