<svg xmlns="http://www.w3.org/2000/svg" width="301.179pt" height="110.971pt" viewBox="0 0 301.179 110.971"><defs><clipPath id="a"><path d="M3 .13672h111v110.66797H3Zm0 0"/></clipPath><clipPath id="b"><path d="M0 .13672h120v110.66797H0Zm0 0"/></clipPath><clipPath id="c"><path d="M105 .13672h9V8h-9Zm0 0"/></clipPath><clipPath id="d"><path d="M2 .13672h9V8H2Zm0 0"/></clipPath><clipPath id="e"><path d="M32 .13672h9V8h-9Zm0 0"/></clipPath><clipPath id="f"><path d="M0 .13672h120v110.66797H0Zm0 0"/></clipPath><clipPath id="g"><path d="M186 .13672h112v110.66797H186Zm0 0"/></clipPath><clipPath id="h"><path d="M181 .13672h119.35938v110.66797H181Zm0 0"/></clipPath><clipPath id="i"><path d="M223 73h38v37.80469h-38Zm0 0"/></clipPath><clipPath id="j"><path d="M218 68h49v42.80469h-49Zm0 0"/></clipPath><clipPath id="k"><path d="M223 .13672h38V38h-38Zm0 0"/></clipPath><clipPath id="l"><path d="M218 .13672h49V43h-49Zm0 0"/></clipPath><clipPath id="m"><path d="M289 .13672h9V8h-9Zm0 0"/></clipPath><clipPath id="n"><path d="M186 .13672h9V8h-9Zm0 0"/></clipPath><clipPath id="o"><path d="M216 .13672h8V8h-8Zm0 0"/></clipPath><clipPath id="p"><path d="M288 33h12.35938v12H288Zm0 0"/></clipPath><clipPath id="q"><path d="M288 31h12.35938v12H288Zm0 0"/></clipPath><clipPath id="r"><path d="M288 29h12.35938v12H288Zm0 0"/></clipPath><clipPath id="s"><path d="M181 .13672h119.35938v110.66797H181Zm0 0"/></clipPath></defs><g clip-path="url(#a)"><path fill="#cce5e5" d="M3.17969 73.84766H39.9375v36.7578l36.75781-36.7578h36.75781V.33203h-36.7578L39.9375 37.08984V.33204H3.17969Zm0 0"/></g><g clip-path="url(#b)"><path fill="none" stroke="#000" stroke-miterlimit="10" stroke-width=".39742" d="M3.17969 73.84766h36.7578v36.7578l36.75779-36.7578h36.7578V.33206h-36.7578l-36.7578 36.7578V.33206H3.17968Zm0 0"/></g><path fill="none" stroke="red" stroke-miterlimit="10" stroke-width=".39742" d="M3.17969 66.5h7.35156v7.34766m95.57026 0V66.5h7.35156"/><g clip-path="url(#c)"><path fill="none" stroke="red" stroke-miterlimit="10" stroke-width=".39742" d="M113.45307 7.68362h-7.35156V.33206"/></g><g clip-path="url(#d)"><path fill="none" stroke="red" stroke-miterlimit="10" stroke-width=".39742" d="M10.53125.33206v7.35156H3.17969"/></g><g clip-path="url(#e)"><path fill="none" stroke="red" stroke-miterlimit="10" stroke-width=".39742" d="M39.93748 7.68362h-7.35156V.33206"/></g><path fill="none" stroke="red" stroke-miterlimit="10" stroke-width=".39742" d="M39.93748 81.19922h-7.35156v-7.35156M.19922 34.8633l5.96094.4961M.19922 36.85158l5.96094.4961M.19922 38.83595l5.96094.5m110.24994 0-5.96093-.5m5.96093-1.48828-5.96093-.4961m5.96093-1.49217-5.96093-.4961M42.91014 93.46484l-5.96094-.4961m5.96094-1.48828-5.96094-.4961m5.96094-71.01949-5.96094-.4961m5.96094-1.49218-5.96094-.4961M60.23825 94.5078l-3.86327-4.5664m-.00391-73.49997 3.86718 4.5664"/><g clip-path="url(#f)"><path fill="none" stroke="#000" stroke-miterlimit="10" stroke-width=".39742" d="M3.17969 73.84766h36.7578v36.7578l36.75779-36.7578h36.7578V.33206h-36.7578l-36.7578 36.7578V.33206H3.17968Zm0 0"/></g><path fill="none" stroke="#000" stroke-miterlimit="10" stroke-width=".39742" d="M131.80853 37.09767h32.17968"/><path stroke="#000" stroke-miterlimit="10" stroke-width=".39742" d="M167.8164 37.09766c-.47265-.125-2.53906-.83985-3.82812-1.6211v3.24219c1.28906-.77734 3.35547-1.49219 3.82812-1.6211Zm0 0"/><g clip-path="url(#g)"><path fill="#cce5e5" d="M186.9336 73.84766h36.7578v36.7578l36.75782-36.7578h36.75781V.33203h-36.75781L223.6914 37.08984V.33204h-36.75782Zm0 0"/></g><g clip-path="url(#h)"><path fill="none" stroke="#000" stroke-miterlimit="10" stroke-width=".39742" d="M186.9335 73.84766h36.7578v36.7578l36.7578-36.7578h36.7578V.33206h-36.7578l-36.7578 36.7578V.33206h-36.7578Zm0 0"/></g><g clip-path="url(#i)"><path fill="#fbcce8" d="M223.6914 73.84766v36.7578l36.75782-36.7578Zm0 0"/></g><g clip-path="url(#j)"><path fill="none" stroke="#000" stroke-miterlimit="10" stroke-width=".39742" d="M223.6913 73.84766v36.7578l36.7578-36.7578Zm0 0"/></g><g clip-path="url(#k)"><path fill="#cfc" d="M260.44922.33203 223.6914 37.08984V.33204Zm0 0"/></g><g clip-path="url(#l)"><path fill="none" stroke="#000" stroke-miterlimit="10" stroke-width=".39742" d="m260.4491.33206-36.7578 36.7578V.33206Zm0 0"/></g><path fill="none" stroke="red" stroke-miterlimit="10" stroke-width=".39742" d="M186.9335 66.5h7.34766v7.34766m95.57418 0V66.5h7.35156"/><g clip-path="url(#m)"><path fill="none" stroke="red" stroke-miterlimit="10" stroke-width=".39742" d="M297.2069 7.68362h-7.35156V.33206"/></g><g clip-path="url(#n)"><path fill="none" stroke="red" stroke-miterlimit="10" stroke-width=".39742" d="M194.28116.33206v7.35156h-7.34765"/></g><g clip-path="url(#o)"><path fill="none" stroke="red" stroke-miterlimit="10" stroke-width=".39742" d="M223.6913 7.68362h-7.35155V.33206"/></g><path fill="none" stroke="red" stroke-miterlimit="10" stroke-width=".39742" d="M223.6913 81.19922h-7.35155v-7.35156M183.95304 34.8633l5.96094.4961m-5.96094 1.49218 5.96094.4961m-5.96094 1.48827 5.96094.5"/><g clip-path="url(#p)"><path fill="none" stroke="red" stroke-miterlimit="10" stroke-width=".39742" d="m300.16393 39.33595-5.96094-.5"/></g><g clip-path="url(#q)"><path fill="none" stroke="red" stroke-miterlimit="10" stroke-width=".39742" d="m300.16393 37.34767-5.96094-.4961"/></g><g clip-path="url(#r)"><path fill="none" stroke="red" stroke-miterlimit="10" stroke-width=".39742" d="m300.16393 35.3594-5.96094-.4961"/></g><path fill="none" stroke="red" stroke-miterlimit="10" stroke-width=".39742" d="m226.66396 93.46484-5.96094-.4961m5.96094-1.48828-5.96094-.4961m5.96094-71.01949-5.96094-.4961m5.96094-1.49218-5.96094-.4961m23.28906 77.02731-3.86328-4.5664m-.0039-73.49997 3.86718 4.5664"/><g clip-path="url(#s)"><path fill="none" stroke="#000" stroke-miterlimit="10" stroke-width=".39742" d="M186.9335 73.84766h36.7578v36.7578l36.7578-36.7578h36.7578V.33206h-36.7578l-36.7578 36.7578V.33206h-36.7578Zm0 0"/></g></svg>