<svg xmlns="http://www.w3.org/2000/svg" width="75.05pt" height="75.05pt" viewBox="0 0 75.05 75.05"><defs><clipPath id="a"><path d="M0 0h74.11328v74.11328H0Zm0 0"/></clipPath><clipPath id="b"><path d="M30 60h19v14.11328H30Zm0 0"/></clipPath><clipPath id="c"><path d="M0 0h74.11328v74.11328H0Zm0 0"/></clipPath></defs><path fill="#CCE5E5" d="M3.9336 70.17578h69.98437L3.93359.19531Zm0 0"/><g clip-path="url(#a)"><path fill="none" stroke="#000" stroke-miterlimit="10" stroke-width=".39352" d="M3.9336 70.17578h69.98437L3.93359.19531Zm0 0"/></g><path fill="none" stroke="red" stroke-miterlimit="10" stroke-width=".39352" d="M3.9336 70.17578V58.98047h11.1992v11.19531H3.9336"/><g clip-path="url(#b)"><path fill="none" stroke="red" stroke-miterlimit="10" stroke-width=".39352" d="m35.97266 74.11328 3.9375-7.8711m-.98438 7.8711 3.9336-7.8711"/></g><path fill="none" stroke="red" stroke-miterlimit="10" stroke-width=".39352" d="m0 32.23437 7.8711 3.9375M0 35.1875l7.8711 3.9336"/><g clip-path="url(#c)"><path fill="none" stroke="#000" stroke-miterlimit="10" stroke-width=".39352" d="M3.9336 70.17578h69.98437L3.93359.19531Zm0 0"/></g></svg>