<svg xmlns="http://www.w3.org/2000/svg" xmlns:xlink="http://www.w3.org/1999/xlink" width="106.698pt" height="116.58pt" viewBox="0 0 106.698 116.58"><defs><clipPath id="a"><path d="M.04297 17h106.3125v72H.04297Zm0 0"/></clipPath><clipPath id="b"><path d="M.04297 12h106.3125v82H.04297Zm0 0"/></clipPath><clipPath id="d"><path d="M.04297 98H106v2H.04297Zm0 0"/></clipPath><clipPath id="e"><path d="M.04297 96H7v6H.04297Zm0 0"/></clipPath><clipPath id="f"><path d="M.04297 90H12v17H.04297Zm0 0"/></clipPath><clipPath id="g"><path d="M94 90h12.35547v17H94Zm0 0"/></clipPath><clipPath id="i"><path d="M.04297 12h106.3125v82H.04297Zm0 0"/></clipPath><path id="c" d="M1.10938.14063 2.14063 0c.29687-1.1875.48437-1.84375.78125-2.5625.34375-.90625 1.5-2.6875 2.51562-2.6875.26563 0 .42188.1875.42188.48438 0 .09375-.01563.21875-.04688.34375l-.96875 3.3125c-.0625.20312-.09375.40625-.09375.5625 0 .4375.21875.6875.70313.6875.8125 0 1.46875-.79688 1.85937-1.67188l-.28125-.17187c-.20312.40625-.73437 1.23437-1.04687 1.23437-.14063 0-.1875-.09375-.1875-.21875s.01562-.25.07812-.42187l.90625-3.0625c.09375-.26563.125-.51563.125-.75 0-.54688-.25-.9375-.92187-.9375C4.875-5.85937 3.625-4.65625 2.875-3.25h-.01562l1.29687-5.34375-.0625-.04687L2-8.375l-.07812.28125.67187.0625c.20313.03125.28125.0625.28125.23438 0 .09375-.01562.1875-.04687.34375Zm0 0"/><path id="h" d="M1.01563 0h.42187l.35938-.6875c.21874.48438.79687.82813 1.46875.82813 1.35937 0 2.35937-.90625 2.92187-1.9375.59375-1.03125.76563-2.0625.76563-2.57813 0-.875-.35938-1.48437-1.23438-1.48437s-2.04687.8125-2.9375 2.40625H2.75l1.29688-5.14063L4-8.64062 1.90625-8.375l-.0625.28125.65625.0625c.1875.03125.28125.0625.28125.23438 0 .09375-.01562.1875-.04687.34375Zm1.4375-1.26562c0-.5625.25-1.35938.625-2.04688C3.59375-4.25 4.48438-5.25 5.20313-5.25c.42187 0 .60937.29688.60937.96875 0 .84375-.6875 4.01563-2.40625 4.01563-.59375 0-.95312-.42188-.95312-1m0 0"/></defs><g clip-path="url(#a)"><path fill="#FFFCCC" d="M.23828 88.26563h105.92188l-35.3086-70.61329Zm0 0"/></g><g clip-path="url(#b)"><path fill="none" stroke="#000" stroke-miterlimit="10" stroke-width=".39707" d="M.23828 88.26562h105.92185L70.85154 17.65235Zm0 0"/></g><path fill="none" stroke="#007F7F" stroke-miterlimit="10" stroke-width=".39707" d="M60.2617 87.46093V18.45704"/><path fill="#007F7F" stroke="#007F7F" stroke-miterlimit="10" stroke-width=".39707" d="m62.58594 82.27344-2.32422 5.48437-2.32813-5.48437ZM57.9336 23.64453l2.32812-5.48437 2.32422 5.48437Zm0 0"/><use xlink:href="#c" x="47.93351" y="57.21487" fill="#007F7F"/><g clip-path="url(#d)"><path fill="none" stroke="#007F7F" stroke-miterlimit="10" stroke-width=".39707" d="M1.04687 98.85936h104.30467"/></g><g clip-path="url(#e)"><path fill="#007F7F" d="M6.23047 101.1836.74609 98.85937l5.48438-2.32813Zm0 0"/></g><g clip-path="url(#f)"><path fill="none" stroke="#007F7F" stroke-miterlimit="10" stroke-width=".39707" d="M6.23047 101.1836.74609 98.85936l5.48438-2.32812Zm0 0"/></g><path fill="#007F7F" d="m100.16797 96.53125 5.48047 2.32813-5.48047 2.32421Zm0 0"/><g clip-path="url(#g)"><path fill="none" stroke="#007F7F" stroke-miterlimit="10" stroke-width=".39707" d="m100.16797 96.53125 5.48047 2.32812-5.48047 2.32422Zm0 0"/></g><use xlink:href="#h" x="49.59353" y="111.8889" fill="#007F7F"/><path fill="none" stroke="#000" stroke-miterlimit="10" stroke-width=".39707" d="M70.85154 17.65235v70.61327"/><path fill="none" stroke="red" stroke-miterlimit="10" stroke-width=".39707" d="M70.85154 88.26562v-7.0625h7.0625v7.0625h-7.0625"/><g clip-path="url(#i)"><path fill="none" stroke="#000" stroke-miterlimit="10" stroke-width=".39707" d="M.23828 88.26562h105.92185L70.85154 17.65235Zm0 0"/></g></svg>