<svg xmlns="http://www.w3.org/2000/svg" xmlns:xlink="http://www.w3.org/1999/xlink" width="177.577" height="191.338" viewBox="0 0 177.577 191.338"><defs><clipPath id="b"><path d="M163 85h14.0586v19H163Zm0 0"/></clipPath><path id="a" d="M1.78125-3.10937C1.78125-.53125 3.32813.25 4.79688.25 6.375.25 8.14063-.42187 9.57813-2.84375l-.5-.39062C8.35938-2.28125 7.125-.78125 5.71875-.78125c-1.54687 0-1.85937-1.25-1.85937-2.75C3.85938-6.25 5.45313-9.8125 7.375-9.8125c.67188 0 1.14063.42188 1.26563 1.67188C8.6875-7.75 8.875-7.5 9.25-7.5c.51563 0 1.34375-.48437 1.34375-1.17187 0-1.0625-1.14062-1.875-2.70312-1.875-3.73438 0-6.10938 4-6.10938 7.4375m0 0"/></defs><path fill="#CCF" stroke="#000" stroke-miterlimit="10" stroke-width=".39713" d="M45.98438 158.89843h127.10545V31.79297H45.98438Zm0 0"/><path fill="none" stroke="#007F7F" stroke-miterlimit="10" stroke-width=".39713" d="M26.91406 158.09374V32.58594"/><path fill="#007F7F" stroke="#007F7F" stroke-miterlimit="10" stroke-width=".39713" d="m29.24219 152.90625-2.32813 5.48437-2.32812-5.48437ZM24.58594 37.76953l2.32812-5.48437 2.32813 5.48437Zm0 0"/><use xlink:href="#a" x="7.54061" y="100.48833" fill="#007F7F"/><path fill="none" stroke="red" stroke-miterlimit="10" stroke-width=".39713" d="M173.08983 158.89843H160.3789V146.1875h12.71093v12.71093m0-127.10546v12.71094H160.3789V31.79297h12.71093m-127.10545 0H58.6953v12.71094H45.98438V31.79297m0 127.10546V146.1875H58.6953v12.71093H45.98438m60.57421 3.97266 3.96875-7.9414m-.99219 7.9414 3.97266-7.9414"/><g clip-path="url(#b)"><path fill="none" stroke="red" stroke-miterlimit="10" stroke-width=".39713" d="m177.06249 98.32422-7.94531-3.97266m7.9453.9961-7.9453-3.97266"/></g><path fill="none" stroke="red" stroke-miterlimit="10" stroke-width=".39713" d="m112.51562 27.82032-3.97266 7.94531m.9922-7.94531-3.96876 7.94531M42.01172 92.36719l7.9414 3.97265m-7.9414-.99218 7.9414 3.96875"/><path fill="none" stroke="#000" stroke-miterlimit="10" stroke-width=".39713" d="M45.98438 158.89843h127.10545V31.79297H45.98438Zm0 0"/></svg>