<svg xmlns="http://www.w3.org/2000/svg" xmlns:xlink="http://www.w3.org/1999/xlink" width="213.719pt" height="186.528pt" viewBox="0 0 213.719 186.528"><defs><clipPath id="a"><path d="M43 28h170.3086v114H43Zm0 0"/></clipPath><clipPath id="b"><path d="M37 22h176.3086v125H37Zm0 0"/></clipPath><clipPath id="d"><path d="M201 150h12.3086v17H201Zm0 0"/></clipPath><clipPath id="f"><path d="M37 22h176.3086v125H37Zm0 0"/></clipPath><path id="c" d="M1.78125.21875 3.42188 0c.5-1.90625.76562-2.9375 1.25-4.10937.5625-1.45313 2.40625-4.29688 4.03125-4.29688.4375 0 .67187.29688.67187.78125 0 .15625-.01562.32813-.07812.53125l-1.53125 5.3125c-.09375.32813-.15625.64063-.15625.90625 0 .70313.35937 1.09375 1.14062 1.09375 1.28125 0 2.34375-1.26562 2.96875-2.6875l-.45312-.25C10.9375-2.0625 10.09375-.75 9.57813-.75c-.21875 0-.29688-.14062-.29688-.35937 0-.1875.04688-.40625.125-.65625L10.875-6.67187c.14063-.4375.20313-.84375.20313-1.21875 0-.875-.42188-1.48438-1.5-1.48438-1.76563 0-3.78125 1.92188-4.96875 4.17188h-.03125l2.07812-8.5625-.09375-.09375-3.35937.4375-.125.4375 1.07812.125c.3125.04687.45313.09375.45313.375 0 .14062-.01563.29687-.07813.54687Zm0 0"/><path id="e" d="M1.625 0h.6875l.5625-1.09375C3.21875-.3125 4.15625.21875 5.23438.21875 7.40625.21875 9-1.23437 9.92188-2.875c.9375-1.65625 1.23437-3.3125 1.23437-4.14062 0-1.39063-.60937-2.35938-2-2.35938-1.40625 0-3.26562 1.28125-4.70312 3.84375h-.04688l2.07813-8.23437-.07813-.09375-3.34375.4375-.125.4375 1.0625.125c.3125.04687.45313.09375.45313.375 0 .14062-.01563.29687-.07813.54687Zm2.3125-2.03125c0-.89062.39063-2.1875.98438-3.28125.84375-1.48437 2.25-3.09375 3.40625-3.09375.6875 0 1 .46875 1 1.54688 0 1.35937-1.125 6.42187-3.85938 6.42187-.95312 0-1.53125-.65625-1.53125-1.59375m0 0"/></defs><g clip-path="url(#a)"><path fill="#CFC" d="M43.46094 141.375h169.65234L43.46094 28.27344Zm0 0"/></g><g clip-path="url(#b)"><path fill="none" stroke="#000" stroke-miterlimit="10" stroke-width=".3975" d="M43.46094 141.375h169.65235L43.46094 28.27343Zm0 0"/></g><path fill="none" stroke="#007F7F" stroke-miterlimit="10" stroke-width=".3975" d="M26.4961 140.56641V29.08203"/><path fill="#007F7F" stroke="#007F7F" stroke-miterlimit="10" stroke-width=".3975" d="m28.82422 135.3789-2.32813 5.48829-2.33203-5.48828ZM24.16406 34.26953l2.33203-5.48828 2.32813 5.48828Zm0 0"/><use xlink:href="#c" x="6.75381" y="91.6421" fill="#007F7F"/><path fill="none" stroke="#007F7F" stroke-miterlimit="10" stroke-width=".3975" d="M44.26953 158.33985H212.3047"/><path fill="#007F7F" stroke="#007F7F" stroke-miterlimit="10" stroke-width=".3975" d="m49.45703 160.66797-5.48828-2.32813 5.48828-2.32812Zm0 0"/><path fill="#007F7F" d="m207.11719 156.01172 5.48828 2.32812-5.48828 2.32813Zm0 0"/><g clip-path="url(#d)"><path fill="none" stroke="#007F7F" stroke-miterlimit="10" stroke-width=".3975" d="m207.11719 156.01172 5.48828 2.32812-5.48828 2.32813Zm0 0"/></g><use xlink:href="#e" x="122.51189" y="179.21451" fill="#007F7F"/><path fill="none" stroke="red" stroke-miterlimit="10" stroke-width=".3975" d="M43.46094 141.375v-11.3086h11.3086v11.3086h-11.3086"/><g clip-path="url(#f)"><path fill="none" stroke="#000" stroke-miterlimit="10" stroke-width=".3975" d="M43.46094 141.375h169.65235L43.46094 28.27343Zm0 0"/></g></svg>