<svg xmlns="http://www.w3.org/2000/svg" width="457.528pt" height="170.477pt" viewBox="0 0 457.528 170.477"><defs><clipPath id="a"><path d="M4 0h170v169.95703H4Zm0 0"/></clipPath><clipPath id="b"><path d="M.46484 0H180v169.95703H.46484Zm0 0"/></clipPath><clipPath id="c"><path d="M.46484 48H15v22H.46484Zm0 0"/></clipPath><clipPath id="d"><path d="M.46484 0H180v169.95703H.46484Zm0 0"/></clipPath></defs><g clip-path="url(#a)"><path fill="#CCE5E5" d="M4.4375 113.23828h56.51953v56.51953l56.51953-56.51953h56.51953V.19531h-56.51953L60.95703 56.71875V.19531H4.4375Zm0 0"/></g><g clip-path="url(#b)"><path fill="none" stroke="#000" stroke-miterlimit="10" stroke-width=".39728" d="M4.4375 113.23828h56.51956v56.51956l56.51956-56.51956h56.51956V.19526h-56.51956L60.95706 56.71872V.19526H4.4375Zm0 0"/></g><path fill="none" stroke="red" stroke-miterlimit="10" stroke-width=".39728" d="M4.4375 113.23828v-11.3047h11.3047v11.3047H4.4375m169.55868 0h-11.3008v-11.3047h11.3008v11.3047m0-113.04302v11.3047h-11.3008V.19525h11.3008M4.4375.19526h11.3047v11.3047H4.4375V.19525m56.51956.00001v11.3047h-11.3047V.19525h11.3047m0 113.04303v11.3047h-11.3047v-11.3047h11.3047"/><g clip-path="url(#c)"><path fill="none" stroke="red" stroke-miterlimit="10" stroke-width=".39728" d="m.46484 53.73825 7.94532 3.97266m-7.94532-.99219 7.94532 3.97266m-7.94532-.9961 7.94532 3.97657"/></g><path fill="none" stroke="red" stroke-miterlimit="10" stroke-width=".39728" d="m177.97274 59.69529-7.94922-3.97266m7.94922.9961-7.94922-3.97266m7.94922.99218-7.94922-3.97266m-105.0938 94.71099-7.94532-3.97266m7.94532.99219-7.94532-3.97266m7.94532-106.08599L56.9844 27.4648m7.94532.9922-7.94532-3.97267m32.1758 121.04303v-7.94532m.11328-113.1563v7.94532"/><g clip-path="url(#d)"><path fill="none" stroke="#000" stroke-miterlimit="10" stroke-width=".39728" d="M4.4375 113.23828h56.51956v56.51956l56.51956-56.51956h56.51956V.19526h-56.51956L60.95706 56.71872V.19526H4.4375Zm0 0"/></g><path fill="none" stroke="#000" stroke-miterlimit="10" stroke-width=".39728" d="M202.2579 56.71872h51.95316"/><path stroke="#000" stroke-miterlimit="10" stroke-width=".39728" d="M258.03516 56.71875c-.46875-.1289-2.53516-.84375-3.82422-1.6211v3.2422c1.28906-.78126 3.35547-1.4961 3.82422-1.6211Zm0 0"/></svg>