<svg xmlns="http://www.w3.org/2000/svg" width="89.689" height="76.934" viewBox="0 0 89.689 76.934"><defs><clipPath id="a"><path d="M0 12h64v64.76953H0Zm0 0"/></clipPath><clipPath id="b"><path d="M0 .10156h89.3789v76.66797H0Zm0 0"/></clipPath><clipPath id="c"><path d="M58 .10156h31.3789V19H58Zm0 0"/></clipPath><clipPath id="d"><path d="M0 58h89.3789v18.76953H0Zm0 0"/></clipPath><clipPath id="e"><path d="M25 .10156h1V65h-1Zm0 0"/></clipPath></defs><g clip-path="url(#a)"><path fill="none" stroke="#000" stroke-miterlimit="10" stroke-width=".39712" d="M.19922 76.57031h63.55856V13.01175H.19922Zm0 0"/></g><g clip-path="url(#b)"><path fill="none" stroke="#000" stroke-miterlimit="10" stroke-width=".39712" d="m63.75778 76.57031 25.42577-12.71093V.29691H25.62108L.19922 13.01175"/></g><g clip-path="url(#c)"><path fill="none" stroke="#000" stroke-miterlimit="10" stroke-width=".39712" d="M63.75778 13.01175 89.18355.2969"/></g><g clip-path="url(#d)"><path fill="none" stroke="#000" stroke-dasharray="2.9784886482 2.9784886482" stroke-miterlimit="10" stroke-width=".39712" d="m.19922 76.57031 25.42186-12.71093h63.56247"/></g><g clip-path="url(#e)"><path fill="none" stroke="#000" stroke-dasharray="2.9784886482 2.9784886482" stroke-miterlimit="10" stroke-width=".39712" d="M25.62108 63.85938V.29691"/></g></svg>