<svg xmlns="http://www.w3.org/2000/svg" width="98.542pt" height="98.542pt" viewBox="0 0 98.542 98.542"><defs><clipPath id="a"><path d="M0 65h98.08594v33.08594H0Zm0 0"/></clipPath><clipPath id="b"><path d="M0 0h33v98.08594H0Zm0 0"/></clipPath><clipPath id="c"><path d="M97 0h1.08594v71H97Zm0 0"/></clipPath><clipPath id="d"><path d="M27 0h71.08594v1H27Zm0 0"/></clipPath><clipPath id="e"><path d="M0 58h98.08594v39H0Zm0 0"/></clipPath><clipPath id="f"><path d="M1 0h40v98.08594H1Zm0 0"/></clipPath><clipPath id="g"><path d="M0 51h98.08594v39H0Zm0 0"/></clipPath><clipPath id="h"><path d="M8 0h40v98.08594H8Zm0 0"/></clipPath><clipPath id="i"><path d="M0 43h98.08594v40H0Zm0 0"/></clipPath><clipPath id="j"><path d="M15 0h40v98.08594H15Zm0 0"/></clipPath><clipPath id="k"><path d="M0 36h98.08594v40H0Zm0 0"/></clipPath><clipPath id="l"><path d="M22 0h40v98.08594H22Zm0 0"/></clipPath><clipPath id="m"><path d="M0 29h98.08594v40H0Zm0 0"/></clipPath><clipPath id="n"><path d="M29 0h40v98.08594H29Zm0 0"/></clipPath><clipPath id="o"><path d="M0 22h98.08594v40H0Zm0 0"/></clipPath><clipPath id="p"><path d="M36 0h40v98.08594H36Zm0 0"/></clipPath><clipPath id="q"><path d="M0 15h98.08594v40H0Zm0 0"/></clipPath><clipPath id="r"><path d="M43 0h40v98.08594H43Zm0 0"/></clipPath><clipPath id="s"><path d="M0 8h98.08594v40H0Zm0 0"/></clipPath><clipPath id="t"><path d="M51 0h39v98.08594H51Zm0 0"/></clipPath><clipPath id="u"><path d="M0 1h98.08594v40H0Zm0 0"/></clipPath><clipPath id="v"><path d="M58 0h39v98.08594H58Zm0 0"/></clipPath><clipPath id="w"><path d="M0 0h98.08594v33H0Zm0 0"/></clipPath><clipPath id="x"><path d="M65 0h33.08594v98.08594H65Zm0 0"/></clipPath><clipPath id="y"><path d="M70 27h1v71.08594h-1Zm0 0"/></clipPath></defs><g clip-path="url(#a)"><path fill="none" stroke="#000" stroke-miterlimit="10" stroke-width=".39665" d="M.19921 97.88673H70.7344l27.15625-27.15626"/></g><g clip-path="url(#b)"><path fill="none" stroke="#000" stroke-miterlimit="10" stroke-width=".39665" d="M.19921 97.88673V27.35155L27.35547.1992"/></g><g clip-path="url(#c)"><path fill="none" stroke="#000" stroke-miterlimit="10" stroke-width=".39665" d="M97.89064 70.73047V.1992"/></g><g clip-path="url(#d)"><path fill="none" stroke="#000" stroke-miterlimit="10" stroke-width=".39665" d="M27.35547.1992h70.53517"/></g><g clip-path="url(#e)"><path fill="none" stroke="#000" stroke-miterlimit="10" stroke-width=".39665" d="M.19921 90.83594H70.7344L97.89064 63.6797"/></g><g clip-path="url(#f)"><path fill="none" stroke="#000" stroke-miterlimit="10" stroke-width=".39665" d="M7.25 97.88673V27.35155L34.40624.1992"/></g><path fill="none" stroke="#000" stroke-miterlimit="10" stroke-width=".39665" d="M95.1719 73.44922V2.91404m-70.53518 0h70.53517"/><g clip-path="url(#g)"><path fill="none" stroke="#000" stroke-miterlimit="10" stroke-width=".39665" d="M.19921 83.78125H70.7344L97.89064 56.625"/></g><g clip-path="url(#h)"><path fill="none" stroke="#000" stroke-miterlimit="10" stroke-width=".39665" d="M14.30468 97.88673V27.35155L41.46094.1992"/></g><path fill="none" stroke="#000" stroke-miterlimit="10" stroke-width=".39665" d="M92.45705 76.16406V5.6289m-70.53518-.00001h70.53518"/><g clip-path="url(#i)"><path fill="none" stroke="#000" stroke-miterlimit="10" stroke-width=".39665" d="M.19921 76.72656H70.7344l27.15625-27.15625"/></g><g clip-path="url(#j)"><path fill="none" stroke="#000" stroke-miterlimit="10" stroke-width=".39665" d="M21.35937 97.88673V27.35155L48.51563.1992"/></g><path fill="none" stroke="#000" stroke-miterlimit="10" stroke-width=".39665" d="M89.7422 78.8789V8.34374m-70.53517-.00001H89.7422"/><g clip-path="url(#k)"><path fill="none" stroke="#000" stroke-miterlimit="10" stroke-width=".39665" d="M.19921 69.67578H70.7344l27.15625-27.15626"/></g><g clip-path="url(#l)"><path fill="none" stroke="#000" stroke-miterlimit="10" stroke-width=".39665" d="M28.41406 97.88673V27.35155L55.56641.1992"/></g><path fill="none" stroke="#000" stroke-miterlimit="10" stroke-width=".39665" d="M87.02736 81.59375V11.05858m-70.53518 0h70.53518"/><g clip-path="url(#m)"><path fill="none" stroke="#000" stroke-miterlimit="10" stroke-width=".39665" d="M.19921 62.6211H70.7344l27.15625-27.15627"/></g><g clip-path="url(#n)"><path fill="none" stroke="#000" stroke-miterlimit="10" stroke-width=".39665" d="M35.46485 97.88673V27.35155L62.6211.1992"/></g><path fill="none" stroke="#000" stroke-miterlimit="10" stroke-width=".39665" d="M84.31252 84.3086V13.77342m-70.53518 0h70.53518"/><g clip-path="url(#o)"><path fill="none" stroke="#000" stroke-miterlimit="10" stroke-width=".39665" d="M.19921 55.5664H70.7344l27.15625-27.15626"/></g><g clip-path="url(#p)"><path fill="none" stroke="#000" stroke-miterlimit="10" stroke-width=".39665" d="M42.51954 97.88673V27.35155L69.67579.1992"/></g><path fill="none" stroke="#000" stroke-miterlimit="10" stroke-width=".39665" d="M81.59377 87.02735V16.49217m-70.53127 0h70.53127"/><g clip-path="url(#q)"><path fill="none" stroke="#000" stroke-miterlimit="10" stroke-width=".39665" d="M.19921 48.51171H70.7344l27.15625-27.15235"/></g><g clip-path="url(#r)"><path fill="none" stroke="#000" stroke-miterlimit="10" stroke-width=".39665" d="M49.57422 97.88673V27.35155L76.72658.1992"/></g><path fill="none" stroke="#000" stroke-miterlimit="10" stroke-width=".39665" d="M78.87892 89.7422V19.20701m-70.53517.00001h70.53517"/><g clip-path="url(#s)"><path fill="none" stroke="#000" stroke-miterlimit="10" stroke-width=".39665" d="M.19921 41.46093H70.7344l27.15625-27.15626"/></g><g clip-path="url(#t)"><path fill="none" stroke="#000" stroke-miterlimit="10" stroke-width=".39665" d="M56.625 97.88673V27.35155L83.78128.1992"/></g><path fill="none" stroke="#000" stroke-miterlimit="10" stroke-width=".39665" d="M76.16408 92.45704V21.92186m-70.53518 0h70.53518"/><g clip-path="url(#u)"><path fill="none" stroke="#000" stroke-miterlimit="10" stroke-width=".39665" d="M.19921 34.40624H70.7344L97.89064 7.24998"/></g><g clip-path="url(#v)"><path fill="none" stroke="#000" stroke-miterlimit="10" stroke-width=".39665" d="M63.6797 97.88673V27.35155L90.83596.1992"/></g><path fill="none" stroke="#000" stroke-miterlimit="10" stroke-width=".39665" d="M73.44923 95.17188V24.63671M2.91406 24.6367h70.53517"/><g clip-path="url(#w)"><path fill="none" stroke="#000" stroke-miterlimit="10" stroke-width=".39665" d="M.19921 27.35155H70.7344L97.89064.1992"/></g><g clip-path="url(#x)"><path fill="none" stroke="#000" stroke-miterlimit="10" stroke-width=".39665" d="M70.73439 97.88673V27.35155L97.89064.1992"/></g><g clip-path="url(#y)"><path fill="none" stroke="#000" stroke-miterlimit="10" stroke-width=".39665" d="M70.73439 97.88673V27.35155"/></g><path fill="none" stroke="#000" stroke-miterlimit="10" stroke-width=".39665" d="M.19921 27.35155H70.7344"/></svg>