<svg xmlns="http://www.w3.org/2000/svg" xmlns:xlink="http://www.w3.org/1999/xlink" width="209.991pt" height="72.851pt" viewBox="0 0 209.991 72.851"><defs><path id="c" d="M.375 0h3.09375v-.29687C2.39063-.375 2.35938-.375 2.35938-.96875V-3.4375h1.46875c.89062 0 .9375.25 1.03125.92188h.3125v-2.25h-.3125c-.09375.67187-.14063.92187-1.03125.92187H2.35938v-2.6875c0-.34375.03125-.375.375-.375h1.04687c1.21875 0 1.46875.23438 1.60938 1.3125h.3125v-1.67187H.375v.29687c.92188.0625.9375.07813.9375.67188v5.32812c0 .59375-.01562.59375-.9375.67188Zm0 0"/><path id="d" d="M.51563-1.35937C.51563-.57812 1.04688.125 2.03125.125 2.64063.125 3.25-.28125 3.59375-.5c.14063.39063.32813.625.6875.625.39063 0 .84375-.10937 1.25-.3125l-.07812-.25c-.14063.03125-.375.04688-.53125 0-.1875-.04687-.375-.23437-.375-.89062V-3.875c0-.625-.125-1.40625-1.71875-1.40625-1.1875 0-2.125.60938-2.125 1.20313 0 .32812.39062.48437.59375.48437.21874 0 .28124-.10937.34375-.28125.23437-.79687.65625-1.03125 1.07812-1.03125.40625 0 .89063.20313.89063 1.04688v.4375c-.28125.26562-1.29688.53125-2.125.79687-.75.23438-.96875.76563-.96875 1.26563m1.0625-.15626c0-.48437.21874-.75.8125-.96874.42187-.15625.98437-.35938 1.21875-.5V-1.5c0 .84375-.65625 1.0625-1.0625 1.0625-.65625 0-.96875-.45312-.96875-1.07812m0 0"/><path id="e" d="M.51563-2.53125C.51563-.76562 1.375.125 2.95313.125c.73437 0 1.73437-.375 2.03125-1.51562l-.3125-.14063c-.32813.73438-.75 1.10938-1.51563 1.10938-1.25 0-1.54687-1.3125-1.54687-2.29688 0-1.5625.60937-2.1875 1.34375-2.1875.48437 0 .78125.34375 1 .90625.0625.17188.125.28125.32812.28125.21875 0 .625-.14062.625-.54687 0-.48438-.70312-1.01563-1.84375-1.01563-1.90625 0-2.54687 1.35938-2.54687 2.75m0 0"/><path id="f" d="M.51563-2.54687C.51563-.875 1.23438.125 2.9375.125c1.17188 0 1.76563-.65625 2.04688-1.48437l-.3125-.15626c-.28125.60938-.6875 1.10938-1.51563 1.10938-1.3125 0-1.5625-1.26562-1.54687-2.35937h3.03125c.21875 0 .42187-.04688.42187-.40625 0-.60938-.20312-2.10938-2.125-2.10938-1.65625 0-2.42187 1.17188-2.42187 2.73438m1.10937-.625c0-.4375.15625-1.73438 1.25-1.73438.96875 0 1.07813.98438 1.07813 1.40625 0 .20313-.0625.32813-.34375.32813Zm0 0"/><path id="g" d="M-.29687 0h2.3125v-.29687l-.54688-.0625C1.15625-.39062 1.10938-.5 1.20313-.78125c.17187-.625.39062-1.28125.625-2.03125h2.375l.70312 2.01563C5-.5 4.95313-.375 4.625-.34375l-.48437.04688V0h2.6875v-.29687c-.60938-.0625-.71875-.09375-.90625-.64063L3.6875-7.26562h-.78125L1.8125-4.15625c-.32812.90625-.76562 2.17188-1.14062 3.125-.21876.57813-.3125.70313-.96875.73438Zm2.28125-3.20312C2.3125-4.26562 2.6875-5.29687 3-6.21875h.03125l1.04688 3.01563Zm0 0"/><path id="h" d="M.32813 0h2.78125v-.29687c-.9375-.0625-1-.07813-1-.625V-3.375c0-.8125.35937-1.09375.60937-1.09375.17188 0 .34375.07813.65625.23438.07813.04687.15625.0625.20313.0625.26562 0 .48437-.26563.48437-.59375 0-.23438-.14062-.51563-.5625-.51563-.375 0-.6875.21875-1.39062.84375l-.125-.84375-1.59375.26563V-4.75l.39062.04688c.26563.04687.34375.09375.34375.46875v3.3125c0 .54687-.04687.5625-.79687.625Zm0 0"/><path id="i" d="m1.26563-5.90625.20312.21875L2.54688-6.5c.10937-.09375.23437-.15625.32812-.15625s.21875.0625.32813.15625l1.07812.8125.1875-.21875L3.25-7.3125c-.125-.125-.25-.26562-.375-.26562s-.25.125-.375.26562Zm-.75 3.35938C.51563-.875 1.23438.125 2.9375.125c1.17188 0 1.76563-.65625 2.04688-1.48437l-.3125-.15626c-.28125.60938-.6875 1.10938-1.51563 1.10938-1.3125 0-1.5625-1.26562-1.54687-2.35937h3.03125c.21875 0 .42187-.04688.42187-.40625 0-.60938-.20312-2.10938-2.125-2.10938-1.65625 0-2.42187 1.17188-2.42187 2.73438m1.10937-.625c0-.4375.15625-1.73438 1.25-1.73438.96875 0 1.07813.98438 1.07813 1.40625 0 .20313-.0625.32813-.34375.32813Zm0 0"/><path id="j" d="M.32813-4.73437h.75v3.65625C1.07813 0 1.875.125 2.25.125c.53125 0 1.04688-.26562 1.34375-.45312L3.51563-.5625c-.26563.10938-.48438.14063-.75.14063-.35938 0-.70313-.26563-.70313-1.0625v-3.25h1.35938v-.42188H2.0625v-1.32812h-.29687L1.125-5.15625H.32813Zm0 0"/><path id="k" d="M.53125-2.15625.625-.46875c.45313.4375 1.34375.625 2.07813.625 1.85937 0 2.59375-1.0625 2.59375-2.14062 0-1.23438-.82813-1.82813-2.0625-2.28125l-.34375-.125c-.70313-.26563-1.29688-.70313-1.29688-1.34375 0-.76563.46875-1.34375 1.34375-1.34375.90625 0 1.42188.51562 1.57813 1.57812h.32812v-1.46875C4.48438-7.25 3.78125-7.4375 3.0625-7.4375c-1.28125 0-2.42187.64063-2.42187 2.03125 0 1.10938.875 1.6875 1.98437 2.07813l.1875.07812c.46875.17188 1.46875.64063 1.46875 1.57813 0 .90625-.57812 1.45312-1.51562 1.45312-.98438 0-1.64063-.76562-1.90625-1.9375Zm0 0"/><path id="l" d="M.51563-2.57812C.51563-.875 1.35938.125 3.04688.125s2.51562-1 2.51562-2.70312-.82812-2.70313-2.51562-2.70313-2.53125 1-2.53125 2.70313m1.09375 0c0-1.45313.46875-2.32813 1.4375-2.32813.95312 0 1.42187.875 1.42187 2.32813S4-.25 3.04688-.25c-.96875 0-1.4375-.875-1.4375-2.32812m0 0"/><path id="m" d="M.32813 0h2.5625v-.29687c-.75-.0625-.78125-.07813-.78125-.625V-3.375c0-.26562 0-.42187.07812-.5625.20313-.42187.67188-.76562 1.25-.76562.90625 0 1.01563.65625 1.01563 1.29687v2.48438c0 .54687-.03125.5625-.79688.625V0h2.5625v-.29687c-.75-.0625-.78125-.07813-.78125-.625V-3.375c0-.26562.01563-.40625.07813-.57812.15625-.42188.60937-.75 1.20312-.75.65625 0 1.0625.35937 1.0625 1.29687v2.48438c0 .54687-.04687.5625-.79687.625V0h2.5625v-.29687c-.75-.0625-.78125-.07813-.78125-.625v-2.6875c0-1.0625-.57813-1.67188-1.57813-1.67188-.85937 0-1.46875.57813-1.84375.8125-.25-.5-.65625-.8125-1.39062-.8125-.8125 0-1.46875.53125-1.84375.8125l-.09375-.8125-1.625.26563V-4.75l.39062.04688c.26563.04687.34375.09375.34375.46875v3.3125c0 .54687-.03125.5625-.79687.625Zm0 0"/><clipPath id="a"><path d="M71 0h111v72.70313H71Zm0 0"/></clipPath><clipPath id="b"><path d="M57 0h125v72.70313H57Zm0 0"/></clipPath></defs><path fill="#7FBFBF" fill-opacity=".6" d="m77.0625 70.92188 99.01172-28.28907L147.78516.19921l-56.57813 42.4336Zm0 0"/><g clip-path="url(#a)"><path fill="none" stroke="#000" stroke-miterlimit="10" stroke-width=".39769" d="m77.0625 70.92188 99.01173-28.28907L147.78517.19921l-56.57814 42.4336Zm0 0"/></g><g clip-path="url(#b)"><path fill="none" stroke="#000" stroke-miterlimit="10" stroke-width=".39769" d="M62.91797 35.5586 77.0625 70.92187l99.01173-28.28907L147.78517.19921 77.0625 14.34375Zm0 0"/></g><path fill="none" stroke="#000" stroke-miterlimit="10" stroke-width=".39769" d="M91.20703 42.63281 77.0625 14.34375"/><path fill="none" stroke="#000" stroke-dasharray="2.9827327867999998 2.9827327867999998" stroke-miterlimit="10" stroke-width=".39769" d="m62.91797 35.5586 113.15626 7.07421"/><path fill="none" stroke="#000" stroke-miterlimit="10" stroke-width=".39769" d="m147.78517 56.77734-24.04298-9.61718"/><path stroke="#000" stroke-miterlimit="10" stroke-width=".39767" d="M120.1875 45.73828c.38672.28906 2.04297 1.72266 2.95313 2.92578l1.20312-3.01172c-1.48828.2461-3.67578.14063-4.15625.08594Zm0 0"/><use xlink:href="#c" x="136.93418" y="68.43703"/><use xlink:href="#d" x="142.53791" y="68.43703"/><use xlink:href="#e" x="148.02979" y="68.43703"/><use xlink:href="#f" x="153.24205" y="68.43703"/><path fill="none" stroke="#000" stroke-miterlimit="10" stroke-width=".39769" d="m176.07423 10.10156-14.39844 3.23828"/><path stroke="#000" stroke-miterlimit="10" stroke-width=".39766" d="M157.9414 14.17969c.48438.01953 2.66016.26562 4.08985.74219l-.71094-3.16407c-1.08984 1.04297-2.94922 2.19531-3.3789 2.42188Zm0 0"/><use xlink:href="#g" x="180.46315" y="13.82473"/><use xlink:href="#h" x="187.12947" y="13.82473"/><use xlink:href="#i" x="191.21203" y="13.82473"/><use xlink:href="#j" x="196.61443" y="13.82473"/><use xlink:href="#f" x="200.22722" y="13.82473"/><path fill="none" stroke="#000" stroke-miterlimit="10" stroke-width=".39769" d="m48.77344 10.10156 23.76562 3.5625"/><path stroke="#000" stroke-miterlimit="10" stroke-width=".39766" d="M76.32813 14.23437c-.44532-.1953-2.38282-1.21093-3.54688-2.17578l-.48047 3.21094c1.39453-.57812 3.54297-.98047 4.02735-1.03516Zm0 0"/><use xlink:href="#k" x="4.35234" y="13.7409"/><use xlink:href="#l" x="9.91134" y="13.7409"/><use xlink:href="#m" x="15.97366" y="13.7409"/><use xlink:href="#m" x="25.67114" y="13.7409"/><use xlink:href="#f" x="35.36862" y="13.7409"/><use xlink:href="#j" x="40.77102" y="13.7409"/></svg>