<svg xmlns="http://www.w3.org/2000/svg" xmlns:xlink="http://www.w3.org/1999/xlink" width="342.92pt" height="165.729pt" viewBox="0 0 342.92 165.729"><defs><clipPath id="a"><path d="M.23828 16H256v115H.23828Zm0 0"/></clipPath><clipPath id="b"><path d="M.23828 0H295v137H.23828Zm0 0"/></clipPath><clipPath id="c"><path d="M.23828 107H295v30H.23828Zm0 0"/></clipPath><clipPath id="g"><path d="M.23828 131H11v16H.23828Zm0 0"/></clipPath><path id="d" d="m.35938-3.73437.15625.39062h5.09375v1.90625c0 .64063-.20313.73438-.65625.78125l-1.1875.125V0H8.6875v-.53125l-.82812-.10937c-.4375-.0625-.5625-.15626-.5625-.79688v-1.90625h1.90625v-.875H7.29688v-8.26562h-1.375c-1.75 2.57812-3.85938 5.82812-5.5625 8.75m1.34375-.48438c1.125-2.03125 2.46875-4.1875 3.90625-6.46875v6.46875Zm0 0"/><path id="f" d="M.5-1.90625c0 .79688 1.29688 2.125 3.9375 2.125 2.70313 0 4.40625-1.375 4.40625-3.76562 0-2.5-2.14062-3.23438-3.17187-3.32813v-.09375c1.01562-.15625 2.625-.90625 2.625-2.75 0-2.07812-1.60938-2.98437-3.625-2.98437C2.20313-12.70312 1-11.28125 1-10.48437c0 .57812.65625.89062.90625.89062.23438 0 .375-.125.45313-.375.42187-1.26562 1.125-2.07812 2.17187-2.07812 1.46875 0 1.85938 1.28125 1.85938 2.34375 0 1.10937-.40625 2.51562-2 2.51562-.89063 0-1.40625-.17187-1.625-.17187-.23438 0-.34375.17187-.34375.51562 0 .3125.10937.51563.34375.51563.21875 0 .73437-.17188 1.625-.17188C5.98438-6.5 6.875-5.07812 6.875-3.4375c0 2.21875-1.09375 3-2.42187 3-1.23438 0-2.04688-.92187-2.40625-1.96875-.125-.35937-.29688-.53125-.5625-.53125C1.15625-2.9375.5-2.57812.5-1.90625m0 0"/><path id="h" d="M.8125-5.76562c0 4.03125 1.46875 5.98437 4.28125 5.98437C7.85938.21875 9.32813-1.45312 9.32813-4c0-2.53125-1.54688-3.89062-3.5625-3.89062-1.46875 0-2.5625.98437-3.0625 1.60937.01562-4.125 1.15625-5.76562 2.84375-5.76562.85937 0 1.46875.70312 1.75 1.78125.0625.21875.20312.40625.48437.40625.40625 0 .98438-.34375.98438-.85938 0-.76562-.90625-1.98437-3.15625-1.98437-2.96875 0-4.79688 2.28125-4.79688 6.9375m1.89063 1.34375c0-1.125.85937-2.51563 2.42187-2.51563 1.1875 0 2.32813 1.0625 2.32813 3.21875 0 1.96875-.75 3.28125-2.32813 3.28125-1.625 0-2.42187-1.73437-2.42187-3.98437m0 0"/><path id="e" d="M.59375 0h4.5625v-.53125C3.8125-.64062 3.76563-.67187 3.76563-1.625V-6c0-.48437 0-.75.14062-1C4.25-7.75 5.07813-8.375 6.10938-8.375c1.60937 0 1.8125 1.17188 1.8125 2.32813V-1.625c0 .95313-.0625.98438-1.42188 1.09375V0h4.5625v-.53125C9.71875-.64062 9.67188-.67187 9.67188-1.625V-6c0-.48437.01562-.71875.14062-1.01562.26563-.76563 1.0625-1.35938 2.125-1.35938 1.17188 0 1.89063.65625 1.89063 2.32813V-1.625c0 .95313-.0625.98438-1.42188 1.09375V0h4.57813v-.53125c-1.32813-.10937-1.40626-.14062-1.40626-1.09375v-4.78125c0-1.89062-1.01562-2.98437-2.78124-2.98437-1.53125 0-2.625 1.01562-3.29688 1.4375-.45312-.875-1.17187-1.4375-2.48437-1.4375-1.42188 0-2.59375.95312-3.25 1.4375l-.1875-1.4375-2.875.48437v.45313l.6875.09375c.48437.07812.625.17187.625.84375V-1.625c0 .95313-.0625.98438-1.42188 1.09375Zm0 0"/></defs><g clip-path="url(#a)"><path fill="none" stroke="#000" stroke-miterlimit="10" stroke-width=".39785" d="M.4375 130.3789h254.70691V17.17975H.4375Zm0 0"/></g><g clip-path="url(#b)"><path fill="none" stroke="#000" stroke-miterlimit="10" stroke-width=".39785" d="m255.14441 130.3789 33.96092-16.98045V.19928H34.39843L.4375 17.17974"/></g><path fill="none" stroke="#000" stroke-miterlimit="10" stroke-width=".39785" d="M255.14441 17.17974 289.10533.19928"/><g clip-path="url(#c)"><path fill="none" stroke="#000" stroke-dasharray="2.9839582071 2.9839582071" stroke-miterlimit="10" stroke-width=".39785" d="m.4375 130.3789 33.96092-16.98045h254.70691"/></g><path fill="none" stroke="#000" stroke-dasharray="2.9839582071 2.9839582071" stroke-miterlimit="10" stroke-width=".39785" d="M34.39842 113.39845V.19928"/><path fill="none" stroke="#000" stroke-miterlimit="10" stroke-width=".39785" d="M297.59361 108.82423V4.7735"/><path stroke="#000" stroke-miterlimit="10" stroke-width=".39785" d="M297.59375 112.65625c.125-.46875.84375-2.53906 1.625-3.83203h-3.2461c.77735 1.29297 1.4961 3.36328 1.6211 3.83203Zm0-111.71485c-.125.46876-.84375 2.53907-1.6211 3.83204h3.2461c-.78125-1.29297-1.5-3.36328-1.625-3.83203Zm0 0"/><use xlink:href="#d" x="304.61826" y="77.19577"/><use xlink:href="#e" x="318.72319" y="77.19577"/><path fill="none" stroke="#000" stroke-miterlimit="10" stroke-width=".39785" d="m259.23425 136.82422 25.77733-12.88672"/><path stroke="#000" stroke-miterlimit="10" stroke-width=".39782" d="M255.8086 138.53906c.47656-.09765 2.64843-.38281 4.15234-.26172l-1.45313-2.90625c-.80468 1.27735-2.33593 2.84375-2.69922 3.16797Zm32.6289-16.3164c-.47656.09765-2.64844.3828-4.15234.26171l1.45312 2.90235c.80469-1.27344 2.33594-2.83985 2.69922-3.16406Zm0 0"/><use xlink:href="#f" x="279.14791" y="141.62841"/><use xlink:href="#e" x="293.25284" y="141.62841"/><path fill="none" stroke="#000" stroke-miterlimit="10" stroke-width=".39785" d="M5.01562 138.87109H250.5663"/><path d="M1.1836 138.8711c.46874.125 2.53906.84374 3.83203 1.62109v-3.2461c-1.29297.78125-3.36329 1.4961-3.83204 1.625m0 0"/><g clip-path="url(#g)"><path fill="none" stroke="#000" stroke-miterlimit="10" stroke-width=".39785" d="M1.1836 138.8711c.46874.125 2.53906.84374 3.83202 1.62109v-3.2461c-1.29296.78125-3.36328 1.4961-3.83202 1.625Zm0 0"/></g><path stroke="#000" stroke-miterlimit="10" stroke-width=".39785" d="M254.39843 138.8711c-.46874-.12891-2.53906-.84376-3.83202-1.625v3.24609c1.29296-.77735 3.36328-1.4961 3.83202-1.6211Zm0 0"/><use xlink:href="#h" x="112.11404" y="158.60964"/><use xlink:href="#e" x="126.21898" y="158.60964"/></svg>