<svg xmlns="http://www.w3.org/2000/svg" width="50.005pt" height="42.918pt" viewBox="0 0 50.005 42.918"><defs><clipPath id="a"><path d="M0 7h36v35.46094H0Zm0 0"/></clipPath><clipPath id="b"><path d="M0 .3789h49.03125v42.08204H0Zm0 0"/></clipPath><clipPath id="c"><path d="M29 .3789h20.03125V14H29Zm0 0"/></clipPath><clipPath id="d"><path d="M0 29h49.03125v13.46094H0Zm0 0"/></clipPath><clipPath id="e"><path d="M13 .3789h2V36h-2Zm0 0"/></clipPath></defs><g clip-path="url(#a)"><path fill="none" stroke="#000" stroke-miterlimit="10" stroke-width=".39073" d="M.19531 42.26562H34.9375V7.52344H.19531Zm0 0"/></g><g clip-path="url(#b)"><path fill="none" stroke="#000" stroke-miterlimit="10" stroke-width=".39073" d="m34.9375 42.26562 13.89452-6.94921V.57423H14.08984L.19531 7.52344"/></g><g clip-path="url(#c)"><path fill="none" stroke="#000" stroke-miterlimit="10" stroke-width=".39073" d="M34.9375 7.52344 48.83201.57423"/></g><g clip-path="url(#d)"><path fill="none" stroke="#000" stroke-dasharray="2.9305179267 2.9305179267" stroke-miterlimit="10" stroke-width=".39073" d="m.19531 42.26562 13.89453-6.94921h34.74218"/></g><g clip-path="url(#e)"><path fill="none" stroke="#000" stroke-dasharray="2.9305179267 2.9305179267" stroke-miterlimit="10" stroke-width=".39073" d="M14.08984 35.3164V.57424"/></g></svg>