<svg xmlns="http://www.w3.org/2000/svg" width="685.95pt" height="234.742pt" viewBox="0 0 685.95 234.742"><defs><clipPath id="a"><path d="M.35156 108H12v18H.35156Zm0 0"/></clipPath><clipPath id="b"><path d="M560 220h20v14.48438h-20Zm0 0"/></clipPath><clipPath id="c"><path d="M674 80h11.54688v18H674Zm0 0"/></clipPath></defs><path fill="none" stroke="#000" stroke-miterlimit="10" stroke-width=".39806" d="M173.0586 145.5586V88.92578h113.2617v56.6328Zm0 0"/><path fill="none" stroke="red" stroke-miterlimit="10" stroke-width=".39806" d="m226.70312 149.53906 3.98047-7.96093m-.9922 7.96093 3.98048-7.96093m-.9961-56.63281-3.98047 7.96094m.9961-7.96094-3.98047 7.96094M175.875 120.0586l-5.63281-5.63282m113.26561 0 5.6289 5.63282"/><path fill="none" stroke="#000" stroke-miterlimit="10" stroke-width=".39806" d="M173.0586 88.92579v-56.6289h113.2617v56.6289Zm0 0"/><path fill="none" stroke="red" stroke-miterlimit="10" stroke-width=".39806" d="m226.70312 92.90626 3.98047-7.96094m-.9922 7.96094 3.98048-7.96094m-.9961-56.6289-3.98047 7.96094m.9961-7.96094-3.98047 7.96094M175.875 63.4258l-5.63281-5.62891m113.26561 0 5.6289 5.6289"/><path fill="none" stroke="#000" stroke-miterlimit="10" stroke-width=".39806" d="M173.0586 202.1875v-56.6289h113.2617v56.6289Zm0 0"/><path fill="none" stroke="red" stroke-miterlimit="10" stroke-width=".39806" d="m226.70312 206.17187 3.98047-7.96485m-.9922 7.96485 3.98048-7.96485m-.9961-56.62889-3.98047 7.96093m.9961-7.96093-3.98047 7.96093M175.875 176.6875l-5.63281-5.6289m113.26561 0 5.6289 5.6289"/><path fill="none" stroke="#000" stroke-miterlimit="10" stroke-width=".39806" d="M3.16408 145.5586V88.92578h113.2617v56.6328Zm0 0"/><path fill="none" stroke="red" stroke-miterlimit="10" stroke-width=".39806" d="m56.8086 149.53906 3.98438-7.96093m-.9961 7.96093 3.98048-7.96093m-.9961-56.63281-3.98046 7.96094m.99609-7.96094-3.98047 7.96094"/><g clip-path="url(#a)"><path fill="none" stroke="red" stroke-miterlimit="10" stroke-width=".39806" d="m5.98049 120.0586-5.6289-5.63282"/></g><path fill="none" stroke="red" stroke-miterlimit="10" stroke-width=".39806" d="m113.61329 114.42578 5.6289 5.63282"/><path fill="none" stroke="#000" stroke-miterlimit="10" stroke-width=".39806" d="M286.3203 145.5586V88.92578h56.6328v56.6328Zm0 0"/><path fill="none" stroke="red" stroke-miterlimit="10" stroke-width=".39806" d="m311.8242 148.3711 5.6289-5.62891m0-56.6289-5.6289 5.6289m-22.6875 28.31641-5.6289-5.63282m56.6289 0 5.6328 5.63282"/><path fill="none" stroke="#000" stroke-miterlimit="10" stroke-width=".39806" d="M116.42579 145.5586V88.92578h56.6328v56.6328Zm0 0"/><path fill="none" stroke="red" stroke-miterlimit="10" stroke-width=".39806" d="m141.9297 148.3711 5.6289-5.62891m0-56.6289-5.6289 5.6289m-22.6875 28.31641-5.62891-5.63282m56.6289 0 5.6328 5.63282"/><path fill="none" stroke="#000" stroke-miterlimit="10" stroke-width=".39806" d="M512.84761 117.2422V60.60938h113.2617v56.6328Zm0 0"/><path fill="none" stroke="red" stroke-miterlimit="10" stroke-width=".39806" d="m566.49214 121.22266 3.98046-7.96094m-.99609 7.96094 3.98438-7.96094m-.99609-56.6328-3.98048 7.96093m.9922-7.96093-3.98048 7.96093M515.66011 91.7422l-5.6289-5.62891m113.26561 0 5.6289 5.6289"/><path fill="none" stroke="#000" stroke-miterlimit="10" stroke-width=".39806" d="M512.84761 60.60939V3.98049h113.2617v56.6289Zm0 0"/><path fill="none" stroke="red" stroke-miterlimit="10" stroke-width=".39806" d="m566.49214 64.58985 3.98046-7.96093m-.99609 7.96093 3.98438-7.96093M572.4648.00002l-3.98048 7.96093m.9922-7.96093-3.98048 7.96093m-49.83593 27.14844-5.6289-5.6289m113.26561-.00001 5.6289 5.6289"/><path fill="none" stroke="#000" stroke-miterlimit="10" stroke-width=".39806" d="M512.84761 173.875v-56.6328h113.2617v56.6328Zm0 0"/><path fill="none" stroke="red" stroke-miterlimit="10" stroke-width=".39806" d="m566.49214 177.85546 3.98046-7.96093m-.99609 7.96093 3.98438-7.96093m-.99609-56.63281-3.98048 7.96094m.9922-7.96094-3.98048 7.96094m-49.83593 27.14844-5.6289-5.62891m113.26561 0 5.6289 5.6289"/><path fill="none" stroke="#000" stroke-miterlimit="10" stroke-width=".39806" d="M512.84761 230.5039V173.875h113.2617v56.6289Zm0 0"/><g clip-path="url(#b)"><path fill="none" stroke="red" stroke-miterlimit="10" stroke-width=".39806" d="m566.49214 234.48436 3.98046-7.96093m-.99609 7.96093 3.98438-7.96093"/></g><path fill="none" stroke="red" stroke-miterlimit="10" stroke-width=".39806" d="m572.4648 169.89453-3.98048 7.96093m.9922-7.96093-3.98048 7.96093m-49.83593 27.14844-5.6289-5.6289m113.26561 0 5.6289 5.6289"/><path fill="none" stroke="#000" stroke-miterlimit="10" stroke-width=".39806" d="M456.2148 117.2422V60.60938h56.63281v56.6328Zm0 0"/><path fill="none" stroke="red" stroke-miterlimit="10" stroke-width=".39806" d="m481.7148 120.0586 5.63282-5.63282m0-56.62889-5.63282 5.6289M459.03121 91.7422l-5.6289-5.62891m56.62889 0 5.62891 5.6289"/><path fill="none" stroke="#000" stroke-miterlimit="10" stroke-width=".39806" d="M626.10932 117.2422V60.60938h56.6328v56.6328Zm0 0"/><path fill="none" stroke="red" stroke-miterlimit="10" stroke-width=".39806" d="m651.60931 120.0586 5.63282-5.63282m0-56.62889-5.63282 5.6289M628.92572 91.7422l-5.6289-5.62891"/><g clip-path="url(#c)"><path fill="none" stroke="red" stroke-miterlimit="10" stroke-width=".39806" d="m679.92572 86.11329 5.6289 5.6289"/></g></svg>