<svg xmlns="http://www.w3.org/2000/svg" width="157.435pt" height="157.435pt" viewBox="0 0 157.435 157.435"><defs><clipPath id="a"><path d="M0 107h156.8711v49.8711H0Zm0 0"/></clipPath><clipPath id="b"><path d="M0 0h50v156.8711H0Zm0 0"/></clipPath><clipPath id="c"><path d="M156 0h.8711v114H156Zm0 0"/></clipPath><clipPath id="d"><path d="M43 0h113.8711v1H43Zm0 0"/></clipPath><clipPath id="e"><path d="M0 96h156.8711v55H0Zm0 0"/></clipPath><clipPath id="f"><path d="M5 0h56v156.8711H5Zm0 0"/></clipPath><clipPath id="g"><path d="M0 84h156.8711v56H0Zm0 0"/></clipPath><clipPath id="h"><path d="M17 0h55v156.8711H17Zm0 0"/></clipPath><clipPath id="i"><path d="M0 73h156.8711v56H0Zm0 0"/></clipPath><clipPath id="j"><path d="M28 0h56v156.8711H28Zm0 0"/></clipPath><clipPath id="k"><path d="M0 62h156.8711v56H0Zm0 0"/></clipPath><clipPath id="l"><path d="M39 0h56v156.8711H39Zm0 0"/></clipPath><clipPath id="m"><path d="M0 51h156.8711v55H0Zm0 0"/></clipPath><clipPath id="n"><path d="M51 0h55v156.8711H51Zm0 0"/></clipPath><clipPath id="o"><path d="M0 39h156.8711v56H0Zm0 0"/></clipPath><clipPath id="p"><path d="M62 0h56v156.8711H62Zm0 0"/></clipPath><clipPath id="q"><path d="M0 28h156.8711v56H0Zm0 0"/></clipPath><clipPath id="r"><path d="M73 0h56v156.8711H73Zm0 0"/></clipPath><clipPath id="s"><path d="M0 17h156.8711v55H0Zm0 0"/></clipPath><clipPath id="t"><path d="M84 0h56v156.8711H84Zm0 0"/></clipPath><clipPath id="u"><path d="M0 5h156.8711v56H0Zm0 0"/></clipPath><clipPath id="v"><path d="M96 0h55v156.8711H96Zm0 0"/></clipPath><clipPath id="w"><path d="M0 0h156.8711v50H0Zm0 0"/></clipPath><clipPath id="x"><path d="M107 0h49.8711v156.8711H107Zm0 0"/></clipPath><clipPath id="y"><path d="M112 43h2v113.8711h-2Zm0 0"/></clipPath></defs><g clip-path="url(#a)"><path fill="none" stroke="#000" stroke-miterlimit="10" stroke-width=".39707" d="M.19922 156.67578h112.97656l43.5-43.4961"/></g><g clip-path="url(#b)"><path fill="none" stroke="#000" stroke-miterlimit="10" stroke-width=".39707" d="M.19922 156.67578V43.69532L43.69532.19922"/></g><g clip-path="url(#c)"><path fill="none" stroke="#000" stroke-miterlimit="10" stroke-width=".39707" d="M156.67578 113.17969V.19922"/></g><g clip-path="url(#d)"><path fill="none" stroke="#000" stroke-miterlimit="10" stroke-width=".39707" d="M43.69531.19922h112.98047"/></g><g clip-path="url(#e)"><path fill="none" stroke="#000" stroke-miterlimit="10" stroke-width=".39707" d="M.19922 145.375h112.97656l43.5-43.4961"/></g><g clip-path="url(#f)"><path fill="none" stroke="#000" stroke-miterlimit="10" stroke-width=".39707" d="M11.4961 156.67578V43.69532L54.99219.19922"/></g><path fill="none" stroke="#000" stroke-miterlimit="10" stroke-width=".39707" d="M152.32421 117.52734V4.54688m-112.98046 0h112.98046"/><g clip-path="url(#g)"><path fill="none" stroke="#000" stroke-miterlimit="10" stroke-width=".39707" d="M.19922 134.07812h112.97656l43.5-43.49609"/></g><g clip-path="url(#h)"><path fill="none" stroke="#000" stroke-miterlimit="10" stroke-width=".39707" d="M22.79297 156.67578V43.69532L66.28907.19922"/></g><path fill="none" stroke="#000" stroke-miterlimit="10" stroke-width=".39707" d="M147.97656 121.8789V8.89845M34.9961 8.89844h112.98046"/><g clip-path="url(#i)"><path fill="none" stroke="#000" stroke-miterlimit="10" stroke-width=".39707" d="M.19922 122.78125h112.97656l43.5-43.4961"/></g><g clip-path="url(#j)"><path fill="none" stroke="#000" stroke-miterlimit="10" stroke-width=".39707" d="M34.08984 156.67578V43.69532l43.5-43.4961"/></g><path fill="none" stroke="#000" stroke-miterlimit="10" stroke-width=".39707" d="M143.625 126.22656V13.2461m-112.98047 0H143.625"/><g clip-path="url(#k)"><path fill="none" stroke="#000" stroke-miterlimit="10" stroke-width=".39707" d="M.19922 111.48437h112.97656l43.5-43.5"/></g><g clip-path="url(#l)"><path fill="none" stroke="#000" stroke-miterlimit="10" stroke-width=".39707" d="M45.39062 156.67578V43.69532L88.88672.19922"/></g><path fill="none" stroke="#000" stroke-miterlimit="10" stroke-width=".39707" d="M139.27734 130.57812V17.59766m-112.98046 0h112.98046"/><g clip-path="url(#m)"><path fill="none" stroke="#000" stroke-miterlimit="10" stroke-width=".39707" d="M.19922 100.1836h112.97656l43.5-43.4961"/></g><g clip-path="url(#n)"><path fill="none" stroke="#000" stroke-miterlimit="10" stroke-width=".39707" d="M56.6875 156.67578V43.69532L100.1836.19922"/></g><path fill="none" stroke="#000" stroke-miterlimit="10" stroke-width=".39707" d="M134.92578 134.92578V21.94532m-112.98047 0h112.98047"/><g clip-path="url(#o)"><path fill="none" stroke="#000" stroke-miterlimit="10" stroke-width=".39707" d="M.19922 88.88672h112.97656l43.5-43.4961"/></g><g clip-path="url(#p)"><path fill="none" stroke="#000" stroke-miterlimit="10" stroke-width=".39707" d="M67.98437 156.67578V43.69532l43.4961-43.4961"/></g><path fill="none" stroke="#000" stroke-miterlimit="10" stroke-width=".39707" d="M130.57812 139.27734V26.29688m-112.98046 0h112.98046"/><g clip-path="url(#q)"><path fill="none" stroke="#000" stroke-miterlimit="10" stroke-width=".39707" d="M.19922 77.58985h112.97656l43.5-43.4961"/></g><g clip-path="url(#r)"><path fill="none" stroke="#000" stroke-miterlimit="10" stroke-width=".39707" d="M79.28515 156.67578V43.69532l43.4961-43.4961"/></g><path fill="none" stroke="#000" stroke-miterlimit="10" stroke-width=".39707" d="M126.22656 143.625V30.64454m-112.98046 0h112.98046"/><g clip-path="url(#s)"><path fill="none" stroke="#000" stroke-miterlimit="10" stroke-width=".39707" d="M.19922 66.28906h112.97656l43.5-43.49609"/></g><g clip-path="url(#t)"><path fill="none" stroke="#000" stroke-miterlimit="10" stroke-width=".39707" d="M90.58203 156.67578V43.69532L134.07812.19922"/></g><path fill="none" stroke="#000" stroke-miterlimit="10" stroke-width=".39707" d="M121.875 147.97656V34.9961m-112.97656 0H121.875"/><g clip-path="url(#u)"><path fill="none" stroke="#000" stroke-miterlimit="10" stroke-width=".39707" d="M.19922 54.9922h112.97656l43.5-43.4961"/></g><g clip-path="url(#v)"><path fill="none" stroke="#000" stroke-miterlimit="10" stroke-width=".39707" d="M101.8789 156.67578V43.69532L145.375.19922"/></g><path fill="none" stroke="#000" stroke-miterlimit="10" stroke-width=".39707" d="M117.52734 152.32422V39.34375m-112.98046 0h112.98046"/><g clip-path="url(#w)"><path fill="none" stroke="#000" stroke-miterlimit="10" stroke-width=".39707" d="M.19922 43.69532h112.97656l43.5-43.4961"/></g><g clip-path="url(#x)"><path fill="none" stroke="#000" stroke-miterlimit="10" stroke-width=".39707" d="M113.17578 156.67578V43.69532l43.5-43.4961"/></g><g clip-path="url(#y)"><path fill="none" stroke="#000" stroke-miterlimit="10" stroke-width=".39707" d="M113.17578 156.67578V43.69532"/></g><path fill="none" stroke="#000" stroke-miterlimit="10" stroke-width=".39707" d="M.19922 43.69532h112.97656"/></svg>