<svg xmlns="http://www.w3.org/2000/svg" xmlns:xlink="http://www.w3.org/1999/xlink" width="335.987pt" height="116.443pt" viewBox="0 0 335.987 116.443"><defs><path id="c" d="M.59375 0h4.9375v-.48437c-1.73437-.10938-1.76562-.125-1.76562-1.0625v-3.9375h2.34375c1.42187 0 1.48437.40625 1.64062 1.46875h.5v-3.57813h-.5C7.59375-6.53125 7.53125-6.125 6.10938-6.125H3.76563v-4.29687c0-.54688.04687-.60938.60937-.60938h1.65625c1.9375 0 2.34375.39063 2.5625 2.10938h.5v-2.67188h-8.5v.48438c1.46875.09375 1.51563.125 1.51563 1.0625v8.5c0 .9375-.04688.95312-1.51563 1.0625Zm0 0"/><path id="d" d="M.82813-2.17187c0 1.25.82812 2.375 2.40625 2.375.98437 0 1.95312-.65625 2.5-1 .21875.625.51562 1 1.09375 1 .625 0 1.34375-.1875 1.98437-.5l-.10937-.40625c-.23438.0625-.60938.07812-.85938 0-.29687-.0625-.57812-.375-.57812-1.42188v-4.0625c0-.98437-.21875-2.23437-2.75-2.23437-1.89063 0-3.39063.98437-3.39063 1.90625 0 .53125.625.78125.9375.78125.35938 0 .45313-.17188.54688-.45313.375-1.25 1.04687-1.64062 1.73437-1.64062C5-7.82812 5.75-7.5 5.75-6.15625v.70313c-.4375.42187-2.0625.84375-3.375 1.28125-1.21875.375-1.54687 1.20312-1.54687 2m1.6875-.23438c0-.78125.35937-1.20312 1.29687-1.5625.6875-.25 1.5625-.5625 1.9375-.79687v2.375c0 1.35937-1.04687 1.6875-1.70312 1.6875-1.03125 0-1.53125-.71875-1.53125-1.70313m0 0"/><path id="e" d="M.82813-4.03125c0 2.79688 1.35937 4.23438 3.875 4.23438 1.1875 0 2.76562-.60938 3.23437-2.42188l-.5-.21875C6.92188-1.26562 6.26563-.67187 5.03125-.67187c-2 0-2.46875-2.09375-2.46875-3.67188 0-2.48437.98438-3.48437 2.14063-3.48437.78125 0 1.25.54687 1.59375 1.45312.10937.26563.21875.4375.53125.4375.34375 0 .98437-.21875.98437-.85937 0-.76563-1.10937-1.625-2.92187-1.625-3.04688 0-4.0625 2.15625-4.0625 4.39062m0 0"/><path id="f" d="M.82813-4.04687c0 2.65625 1.14062 4.25 3.85937 4.25 1.85938 0 2.82813-1.04688 3.26563-2.35938l-.5-.26562C7-1.45312 6.35938-.65625 5.03125-.65625c-2.09375 0-2.5-2-2.46875-3.75h4.84375c.35938 0 .65625-.09375.65625-.64062 0-.98438-.3125-3.375-3.39062-3.375-2.625 0-3.84375 1.85937-3.84375 4.375m1.76562-1c0-.70313.25-2.78125 1.98438-2.78125 1.5625 0 1.73437 1.57812 1.73437 2.25 0 .3125-.10937.53125-.5625.53125Zm0 0"/><path id="g" d="M-.48437 0h3.70312v-.48437l-.875-.09375c-.5-.04688-.57812-.21876-.4375-.67188.28125-1 .625-2.03125 1.01563-3.23437H6.6875l1.125 3.21875c.15625.48437.09375.65625-.4375.71875l-.76562.0625V0h4.29687v-.48437C9.92188-.57812 9.75-.625 9.4375-1.5L5.89063-11.59375h-1.25l-1.75 4.95313c-.51563 1.46875-1.23438 3.46875-1.8125 5-.35938.90625-.5 1.10937-1.5625 1.15625Zm3.64062-5.125c.53125-1.67187 1.125-3.3125 1.625-4.79687h.04688L6.5-5.125Zm0 0"/><path id="h" d="M.53125 0h4.42188v-.48437C3.46875-.57812 3.375-.60937 3.375-1.46875v-3.92187c0-1.28125.5625-1.73438.96875-1.73438.26563 0 .54688.10938 1.03125.375.125.07813.25.09375.32813.09375.42187 0 .78125-.42187.78125-.9375 0-.375-.23438-.82812-.90625-.82812-.59375 0-1.09375.35937-2.20313 1.34375l-.20312-1.34375L.625-8v.42188L1.25-7.5c.42188.07813.54688.14063.54688.75v5.28125c0 .85938-.07813.89063-1.26563.98438Zm0 0"/><path id="i" d="m2.01563-9.42187.32812.34375L4.04688-10.375c.1875-.14062.39062-.23437.53125-.23437.15625 0 .34375.09375.53125.23437l1.71875 1.29688.3125-.34375-1.96875-2.23438c-.1875-.20312-.39063-.42187-.59375-.42187-.1875 0-.39063.1875-.59375.42187Zm-1.1875 5.375c0 2.65625 1.14062 4.25 3.85937 4.25 1.85938 0 2.82813-1.04688 3.26563-2.35938l-.5-.26562C7-1.45312 6.35938-.65625 5.03125-.65625c-2.09375 0-2.5-2-2.46875-3.75h4.84375c.35938 0 .65625-.09375.65625-.64062 0-.98438-.3125-3.375-3.39062-3.375-2.625 0-3.84375 1.85937-3.84375 4.375m1.76562-1c0-.70313.25-2.78125 1.98438-2.78125 1.5625 0 1.73437 1.57812 1.73437 2.25 0 .3125-.10937.53125-.5625.53125Zm0 0"/><path id="j" d="M.51563-7.54687h1.21875v5.82812C1.73438 0 3 .20313 3.59375.20313c.84375 0 1.65625-.4375 2.14063-.73438l-.125-.35937c-.42188.15624-.78125.21874-1.20313.21874-.5625 0-1.10937-.42187-1.10937-1.6875v-5.1875h2.15625v-.67187H3.29688v-2.10937H2.8125L1.79688-8.21875H.51563Zm0 0"/><path id="k" d="M.84375-3.4375 1-.75c.73438.70313 2.14063 1 3.3125 1 2.96875 0 4.14063-1.70312 4.14063-3.40625 0-1.98437-1.32813-2.92187-3.29688-3.64062L4.60938-7c-1.125-.42187-2.0625-1.14062-2.0625-2.14062 0-1.23438.73437-2.14063 2.14062-2.14063 1.45313 0 2.25.82813 2.51563 2.51563h.51562v-2.34375c-.5625-.45313-1.6875-.75-2.82812-.75-2.04688 0-3.875 1.03125-3.875 3.23437 0 1.76563 1.40625 2.6875 3.17187 3.3125l.3125.125c.73438.28125 2.32813 1.03125 2.32813 2.53125 0 1.4375-.92188 2.3125-2.42188 2.3125-1.5625 0-2.60937-1.21875-3.03125-3.09375Zm0 0"/><path id="l" d="M.82813-4.10937c0 2.71875 1.32812 4.3125 4.03125 4.3125 2.6875 0 4.01562-1.59375 4.01562-4.3125 0-2.70313-1.32812-4.3125-4.01562-4.3125-2.70313 0-4.03125 1.60937-4.03125 4.3125m1.73437 0c0-2.3125.75-3.71875 2.29688-3.71875 1.53125 0 2.28125 1.40625 2.28125 3.71875 0 2.32812-.75 3.71875-2.28125 3.71875-1.54688 0-2.29688-1.39063-2.29688-3.71875m0 0"/><path id="m" d="M.53125 0H4.625v-.48437c-1.20312-.09375-1.25-.125-1.25-.98438v-3.92187c0-.42188 0-.65625.125-.89063.3125-.67187 1.04688-1.23437 1.98438-1.23437 1.4375 0 1.625 1.0625 1.625 2.09375v3.95312c0 .85938-.0625.89063-1.28125.98438V0h4.09375v-.48437c-1.20313-.09375-1.25-.125-1.25-.98438v-3.92187c0-.42188.01562-.64063.125-.90625.25-.6875.96875-1.21875 1.90625-1.21875 1.0625 0 1.70312.59375 1.70312 2.09375v3.95312c0 .85938-.0625.89063-1.26562.98438V0h4.09375v-.48437c-1.1875-.09375-1.26563-.125-1.26563-.98438V-5.75c0-1.6875-.90625-2.67187-2.5-2.67187-1.375 0-2.34375.90625-2.9375 1.28125-.40625-.78125-1.0625-1.28125-2.23437-1.28125-1.28125 0-2.32813.85937-2.92188 1.28125l-.15625-1.28125L.625-8v.42188L1.25-7.5c.42188.07813.54688.14063.54688.75v5.28125c0 .85938-.04688.89063-1.26563.98438Zm0 0"/><clipPath id="a"><path d="M117 0h171v115.88672H117Zm0 0"/></clipPath><clipPath id="b"><path d="M95 0h193v115.88672H95Zm0 0"/></clipPath></defs><path fill="#7FBFBF" fill-opacity=".6" d="m123.42188 113.04688 157.98828-45.14063L236.27344.19922l-90.28125 67.70703Zm0 0"/><g clip-path="url(#a)"><path fill="none" stroke="#000" stroke-miterlimit="10" stroke-width=".3966" d="M123.42187 113.04686 281.4101 67.90625 236.2734.19925l-90.28123 67.707Zm0 0"/></g><g clip-path="url(#b)"><path fill="none" stroke="#000" stroke-miterlimit="10" stroke-width=".3966" d="m100.85547 56.6211 22.5664 56.42576L281.4101 67.90625 236.2734.19925l-112.85153 22.5703Zm0 0"/></g><path fill="none" stroke="#000" stroke-miterlimit="10" stroke-width=".3966" d="m145.99217 67.90625-22.5703-45.1367"/><path fill="none" stroke="#000" stroke-dasharray="2.9746031692000003 2.9746031692000003" stroke-miterlimit="10" stroke-width=".3966" d="M100.85547 56.6211 281.4101 67.90625"/><path fill="none" stroke="#000" stroke-miterlimit="10" stroke-width=".3966" d="m236.26949 90.47656-40.90233-16.36328"/><path stroke="#000" stroke-miterlimit="10" stroke-width=".39659" d="M191.82031 72.69531c.38672.29297 2.03906 1.72266 2.94531 2.92188l1.20313-3.00391c-1.48828.24219-3.66797.14063-4.14844.08203Zm0 0"/><use xlink:href="#c" x="218.95772" y="109.08321"/><use xlink:href="#d" x="227.88141" y="109.08321"/><use xlink:href="#e" x="236.64448" y="109.08321"/><use xlink:href="#f" x="244.96136" y="109.08321"/><path fill="none" stroke="#000" stroke-miterlimit="10" stroke-width=".3966" d="m281.4101 15.99611-25.64452 5.76953"/><path stroke="#000" stroke-miterlimit="10" stroke-width=".39658" d="M252.03906 22.60547c.48438.01953 2.65625.26562 4.08203.73828l-.71093-3.15625c-1.08594 1.04297-2.94141 2.1914-3.3711 2.41797Zm0 0"/><use xlink:href="#g" x="288.41447" y="21.94105"/><use xlink:href="#h" x="299.05151" y="21.94105"/><use xlink:href="#i" x="305.56581" y="21.94105"/><use xlink:href="#j" x="314.1861" y="21.94105"/><use xlink:href="#f" x="319.95081" y="21.94105"/><path fill="none" stroke="#000" stroke-miterlimit="10" stroke-width=".3966" d="m78.28516 15.99611 40.6289 6.09375"/><path stroke="#000" stroke-miterlimit="10" stroke-width=".39658" d="M122.6914 22.65625c-.4453-.1914-2.3789-1.20312-3.53906-2.16406l-.48046 3.19922c1.39062-.57813 3.53515-.97657 4.01953-1.03516Zm0 0"/><use xlink:href="#k" x="7.40268" y="21.80669"/><use xlink:href="#l" x="16.27283" y="21.80669"/><use xlink:href="#m" x="25.94611" y="21.80669"/><use xlink:href="#m" x="41.4198" y="21.80669"/><use xlink:href="#f" x="56.89349" y="21.80669"/><use xlink:href="#j" x="65.51377" y="21.80669"/></svg>