<?xml version="1.0" encoding="UTF-8"?>
<svg xmlns="http://www.w3.org/2000/svg" xmlns:xlink="http://www.w3.org/1999/xlink" width="102.132pt" height="151.186pt" viewBox="0 0 102.132 151.186" version="1.2">
<defs>
<clipPath id="clip1">
  <path d="M 0 0.234375 L 101.269531 0.234375 L 101.269531 150.144531 L 0 150.144531 Z M 0 0.234375 "/>
</clipPath>
</defs>
<g id="surface1">
<g clip-path="url(#clip1)" clip-rule="nonzero">
<path style="fill:none;stroke-width:0.398;stroke-linecap:butt;stroke-linejoin:round;stroke:rgb(1.925659%,2.432251%,2.532959%);stroke-opacity:1;stroke-miterlimit:10;" d="M 0.00155408 -0.000205628 C -0.167842 0.437073 -0.234813 34.485726 -0.144206 75.652963 L 0.0212513 150.502483 L 101.950541 150.502483 L 101.950541 -0.472939 L 51.123777 -0.638396 C 10.807461 -0.768398 0.24186 -0.634457 0.00155408 -0.000205628 Z M 0.00155408 -0.000205628 " transform="matrix(0.991573,0,0,-0.991573,0.182053,149.468546)"/>
</g>
<path style="fill:none;stroke-width:0.398;stroke-linecap:round;stroke-linejoin:round;stroke:rgb(1.925659%,2.432251%,2.532959%);stroke-opacity:1;stroke-miterlimit:10;" d="M 0.00155408 -0.000205628 L 0.00155408 -0.000205628 " transform="matrix(0.991573,0,0,-0.991573,0.182053,149.468546)"/>
<path style="fill:none;stroke-width:0.597;stroke-linecap:round;stroke-linejoin:round;stroke:rgb(1.925659%,2.432251%,2.532959%);stroke-opacity:1;stroke-miterlimit:10;" d="M 0.00190099 0.0000727084 C -1.908732 1.914645 -1.900853 9.939301 0.00977988 12.37388 C 1.313737 14.032388 3.898016 14.599669 5.442279 13.563594 C 6.466536 12.882069 7.632613 10.467187 7.159879 9.994453 C 6.454718 9.285353 5.698343 9.561114 5.698343 10.526279 C 5.698343 11.727811 3.539526 12.889948 2.239508 12.393578 C 1.687985 12.176908 1.238888 11.964178 1.238888 11.909025 C 1.238888 11.861752 0.982824 10.924163 0.667668 9.836876 L 0.104327 7.855333 L 2.897396 8.166549 C 5.623494 8.477766 5.718041 8.426553 6.679266 6.125915 C 7.589279 3.9474 7.57746 3.577092 6.521688 1.422214 C 5.107426 -1.473281 2.125264 -2.12329 0.00190099 0.0000727084 Z M 0.00190099 0.0000727084 " transform="matrix(0.991573,0,0,-0.991573,85.830146,140.816478)"/>
<path style="fill:none;stroke-width:0.597;stroke-linecap:round;stroke-linejoin:round;stroke:rgb(1.925659%,2.432251%,2.532959%);stroke-opacity:1;stroke-miterlimit:10;" d="M 0.00190099 0.0000727084 L 0.00190099 0.0000727084 " transform="matrix(0.991573,0,0,-0.991573,85.830146,140.816478)"/>
<path style=" stroke:none;fill-rule:nonzero;fill:rgb(1.925659%,2.432251%,2.532959%);fill-opacity:1;" d="M 91.359375 137.117188 C 91.113281 139.578125 89.027344 141.140625 87.539062 139.988281 C 86.597656 139.261719 86.171875 137.804688 86.355469 135.90625 C 86.480469 134.554688 88.804688 133.707031 90.253906 134.480469 C 91.214844 134.992188 91.503906 135.679688 91.359375 137.117188 M 92.453125 134.742188 C 91.5 132.460938 91.40625 132.410156 88.703125 132.71875 L 85.933594 133.027344 L 86.492188 131.066406 C 86.804688 129.984375 87.058594 129.058594 87.058594 129.007812 C 87.058594 128.953125 87.503906 128.742188 88.050781 128.53125 C 89.339844 128.039062 91.480469 129.191406 91.480469 130.378906 C 91.480469 131.335938 92.230469 131.605469 92.929688 130.90625 C 93.398438 130.441406 92.242188 128.042969 91.226562 127.363281 C 89.695312 126.34375 87.132812 126.898438 85.839844 128.546875 C 83.945312 130.960938 83.9375 138.917969 85.832031 140.816406 C 87.9375 142.921875 90.894531 142.277344 92.296875 139.40625 C 93.34375 137.265625 93.355469 136.902344 92.453125 134.742188 "/>
<path style="fill:none;stroke-width:0.597;stroke-linecap:round;stroke-linejoin:round;stroke:rgb(1.925659%,2.432251%,2.532959%);stroke-opacity:1;stroke-miterlimit:10;" d="M 0.00102056 -0.0016696 C 0.14678 1.444108 -0.144739 2.137451 -1.113843 2.657458 C -2.575379 3.437469 -4.915411 2.586548 -5.045413 1.219559 C -5.230567 -0.695013 -4.801167 -2.164427 -3.85176 -2.897164 C -2.35083 -4.059302 -0.247165 -2.483522 0.00102056 -0.0016696 Z M 0.00102056 -0.0016696 " transform="matrix(0.991573,0,0,-0.991573,91.358363,137.115532)"/>
<path style=" stroke:none;fill-rule:nonzero;fill:rgb(1.925659%,2.432251%,2.532959%);fill-opacity:1;" d="M 67.792969 134.363281 C 64.648438 132.648438 63.996094 128.898438 66.324219 125.941406 C 67.691406 124.199219 67.691406 124.195312 66.367188 124.90625 C 61.605469 127.457031 56.402344 122.328125 58.886719 117.527344 C 59.976562 115.421875 61.003906 114.882812 63.929688 114.882812 C 66.136719 114.882812 67.554688 115.734375 68.640625 117.722656 C 69.25 118.832031 69.335938 118.707031 69.351562 116.699219 C 69.363281 115.4375 68.941406 113.191406 68.417969 111.699219 C 67.894531 110.214844 67.539062 108.953125 67.628906 108.894531 C 67.71875 108.835938 69.121094 108.90625 70.746094 109.050781 L 73.699219 109.316406 L 72.804688 112.253906 C 72.3125 113.871094 71.90625 115.824219 71.90625 116.589844 C 71.898438 117.980469 71.898438 117.980469 73.449219 116.433594 C 77.410156 112.46875 83.78125 116.757812 81.996094 122.179688 C 81.121094 124.824219 77.835938 126.554688 75.425781 125.636719 C 73.589844 124.941406 73.402344 125.363281 74.761719 127.164062 C 76.195312 129.054688 75.871094 131.222656 73.84375 133.246094 C 71.917969 135.171875 69.9375 135.542969 67.792969 134.363281 "/>
<path style="fill:none;stroke-width:0.597;stroke-linecap:round;stroke-linejoin:round;stroke:rgb(1.925659%,2.432251%,2.532959%);stroke-opacity:1;stroke-miterlimit:10;" d="M -0.000971997 0.00124156 C -3.172228 1.734599 -3.830116 5.51253 -1.482205 8.494692 C -0.103398 10.251686 -0.103398 10.255626 -1.438871 9.538646 C -6.241058 6.966186 -11.488404 12.138682 -8.982914 16.976325 C -7.883808 19.103627 -6.847733 19.65121 -3.897087 19.65121 C -1.671298 19.65121 -0.241278 18.792411 0.853888 16.779353 C 1.468442 15.664489 1.55511 15.790551 1.570868 17.815427 C 1.582686 19.091809 1.157226 21.353052 0.62934 22.853982 C 0.101454 24.354912 -0.257036 25.627354 -0.166429 25.686446 C -0.0758215 25.745537 1.33844 25.674627 2.977251 25.528868 L 5.955474 25.264925 L 5.05334 22.29852 C 4.55697 20.667588 4.147267 18.697864 4.147267 17.929671 C 4.139388 16.523288 4.139388 16.523288 5.703349 18.08331 C 9.69795 22.08185 16.123191 17.760275 14.322863 12.288381 C 13.440426 9.621375 10.12735 7.876199 7.69671 8.801969 C 5.84517 9.503191 5.656076 9.077731 7.027004 7.261645 C 8.472782 5.354952 8.145807 3.168558 6.101234 1.127924 C 4.159086 -0.814224 2.161785 -1.180593 -0.000971997 0.00124156 Z M -0.000971997 0.00124156 " transform="matrix(0.991573,0,0,-0.991573,67.793933,134.364512)"/>
<path style=" stroke:none;fill-rule:nonzero;fill:rgb(1.925659%,2.432251%,2.532959%);fill-opacity:1;" d="M 18.867188 132.0625 C 16.625 129.820312 16.414062 127.722656 18.207031 125.449219 C 19.890625 123.304688 19.804688 123.078125 17.617188 123.902344 C 15.183594 124.820312 12.921875 123.804688 11.5625 121.175781 C 8.601562 115.449219 15.371094 110.664062 20.070312 115.167969 L 21.949219 116.964844 L 21.601562 114.496094 C 21.414062 113.148438 20.996094 111.210938 20.679688 110.207031 C 19.78125 107.355469 19.898438 107.226562 23.257812 107.425781 C 24.996094 107.527344 26.417969 107.785156 26.417969 107.992188 C 26.417969 108.199219 26.015625 109.195312 25.515625 110.203125 C 25.019531 111.210938 24.410156 113.164062 24.15625 114.542969 L 23.699219 117.050781 L 25.738281 115.332031 C 28.0625 113.378906 29.484375 113.207031 32.128906 114.574219 C 35.136719 116.132812 35.695312 120.289062 33.242188 122.917969 C 31.992188 124.261719 31.363281 124.433594 28.769531 124.195312 C 25.984375 123.929688 25.828125 123.988281 26.710938 124.960938 C 27.238281 125.542969 27.839844 126.871094 28.050781 127.925781 C 28.5625 130.507812 26.320312 133.105469 23.128906 133.613281 C 21.109375 133.9375 20.53125 133.726562 18.867188 132.0625 "/>
<path style="fill:none;stroke-width:0.597;stroke-linecap:round;stroke-linejoin:round;stroke:rgb(1.925659%,2.432251%,2.532959%);stroke-opacity:1;stroke-miterlimit:10;" d="M 0.000236056 0.0011767 C -2.261007 2.26242 -2.473738 4.377904 -0.665531 6.670663 C 1.032372 8.83736 0.945704 9.061908 -1.260387 8.230685 C -3.714664 7.304914 -5.995604 8.329171 -7.366533 10.97648 C -10.352634 16.755651 -3.52557 21.581475 1.213586 17.039291 L 3.108461 15.227145 L 2.75785 17.712937 C 2.568756 19.075986 2.147235 21.026013 1.82814 22.04633 C 0.922067 24.918188 1.04025 25.04819 4.428176 24.847278 C 6.181231 24.740913 7.61519 24.484849 7.61519 24.276058 C 7.61519 24.067267 7.209427 23.062708 6.705177 22.04633 C 6.204867 21.026013 5.590313 19.060228 5.334249 17.669603 L 4.873334 15.144417 L 6.929726 16.873834 C 9.273698 18.843559 10.707657 19.016894 13.374664 17.638087 C 16.408039 16.070187 16.97138 11.870735 14.497406 9.223426 C 13.236783 7.868255 12.602532 7.69098 9.986738 7.939165 C 7.177911 8.207048 7.020333 8.144017 7.910649 7.159155 C 8.442474 6.576116 9.049149 5.232764 9.261879 4.169113 C 9.777947 1.569077 7.516704 -1.046717 4.298174 -1.562784 C 2.261479 -1.889759 1.678441 -1.677028 0.000236056 0.0011767 Z M 0.000236056 0.0011767 " transform="matrix(0.991573,0,0,-0.991573,18.866953,132.063667)"/>
<path style=" stroke:none;fill-rule:nonzero;fill:rgb(1.925659%,2.432251%,2.532959%);fill-opacity:1;" d="M 69.375 102.433594 C 65.984375 101.183594 64.625 96.898438 66.722656 94.066406 L 68.027344 92.308594 L 65.269531 92.613281 C 62.929688 92.878906 62.28125 92.6875 60.890625 91.296875 C 57.40625 87.8125 59.824219 82.339844 64.789062 82.480469 C 66.46875 82.527344 67.523438 83.011719 68.535156 84.183594 C 69.308594 85.085938 70.050781 85.824219 70.183594 85.824219 C 70.476562 85.824219 69.59375 79.734375 69.011719 77.769531 C 68.621094 76.4375 68.78125 76.347656 71.511719 76.347656 C 74.457031 76.347656 74.894531 76.792969 73.875 78.761719 C 73.570312 79.34375 73.125 81.175781 72.886719 82.835938 L 72.449219 85.84375 L 74.039062 84.257812 C 77.40625 80.890625 83.277344 83.175781 83.257812 87.851562 C 83.246094 90.253906 82.90625 90.867188 80.761719 92.332031 C 78.9375 93.578125 76.265625 93.730469 75.183594 92.644531 C 74.691406 92.152344 74.425781 92.125 74.425781 92.570312 C 74.425781 92.941406 74.851562 93.601562 75.371094 94.035156 C 77.007812 95.394531 76.550781 98.957031 74.476562 101.03125 C 72.695312 102.8125 71.382812 103.167969 69.375 102.433594 "/>
<path style="fill:none;stroke-width:0.597;stroke-linecap:round;stroke-linejoin:round;stroke:rgb(1.925659%,2.432251%,2.532959%);stroke-opacity:1;stroke-miterlimit:10;" d="M 0.00170463 -0.00180673 C -3.417737 1.258817 -4.788665 5.576452 -2.673181 8.436492 L -1.357405 10.209244 L -4.138656 9.901967 C -6.498385 9.634084 -7.152334 9.827117 -8.554777 11.229561 C -12.068765 14.743549 -9.630247 20.266656 -4.623208 20.120896 C -2.929245 20.073623 -1.865594 19.585131 -0.845277 18.403296 C -0.065266 17.493284 0.683229 16.748728 0.81717 16.748728 C 1.112629 16.748728 0.222314 22.890328 -0.364664 24.87581 C -0.758609 26.211283 -0.597092 26.30583 2.156583 26.30583 C 5.126927 26.30583 5.568145 25.856733 4.539949 23.87519 C 4.232672 23.284273 3.783575 21.432732 3.543269 19.766346 L 3.102051 16.725091 L 4.705406 18.328447 C 8.101211 21.728191 14.022202 19.419674 14.002504 14.704154 C 13.990686 12.281394 13.647954 11.66684 11.485197 10.185607 C 9.645474 8.928923 6.950892 8.775284 5.859664 9.870451 C 5.363294 10.366822 5.095411 10.394398 5.095411 9.945301 C 5.095411 9.571053 5.524811 8.905286 6.048758 8.464068 C 7.699387 7.097079 7.238471 3.508242 5.146624 1.416395 C 3.350236 -0.383933 2.026581 -0.742423 0.00170463 -0.00180673 Z M 0.00170463 -0.00180673 " transform="matrix(0.991573,0,0,-0.991573,69.37331,102.431802)"/>
<path style=" stroke:none;fill-rule:nonzero;fill:rgb(1.925659%,2.432251%,2.532959%);fill-opacity:1;" d="M 20.148438 99.980469 C 17.757812 97.964844 17.46875 94.585938 19.511719 92.410156 L 20.816406 91.023438 L 18.089844 91.328125 C 15.796875 91.585938 15.085938 91.378906 13.625 90.019531 C 11.429688 87.980469 11.339844 85.269531 13.386719 82.890625 C 15.484375 80.449219 18.761719 80.484375 21.355469 82.972656 C 23.660156 85.179688 23.652344 85.273438 21.664062 76.503906 C 21.363281 75.179688 21.546875 75.085938 24.511719 75.085938 C 26.253906 75.085938 27.683594 75.152344 27.683594 75.246094 C 27.683594 75.332031 27.113281 76.894531 26.417969 78.722656 C 25.722656 80.550781 25.15625 82.601562 25.15625 83.277344 C 25.15625 84.40625 25.28125 84.375 26.703125 82.949219 C 30.132812 79.523438 35.890625 82.039062 35.890625 86.957031 C 35.890625 90.765625 32.457031 92.964844 28.726562 91.546875 C 27.015625 90.894531 27 90.910156 27.960938 92.285156 C 28.964844 93.714844 29.257812 96.90625 28.550781 98.742188 C 28.082031 99.964844 25.089844 101.613281 23.339844 101.613281 C 22.65625 101.613281 21.21875 100.878906 20.148438 99.980469 "/>
<path style="fill:none;stroke-width:0.597;stroke-linecap:round;stroke-linejoin:round;stroke:rgb(1.925659%,2.432251%,2.532959%);stroke-opacity:1;stroke-miterlimit:10;" d="M -0.00162485 0.000506346 C -2.412567 2.029322 -2.704086 5.436945 -0.643755 7.631218 L 0.672021 9.029722 L -2.077714 8.722445 C -4.39017 8.462442 -5.10715 8.671232 -6.580504 10.038221 C -8.794474 12.094613 -8.885081 14.83253 -6.82081 17.231654 C -4.705326 19.68987 -1.400129 19.654415 1.215665 17.148925 C 3.539939 14.923137 3.53206 14.83253 1.526881 23.672652 C 1.223544 25.008125 1.408698 25.102672 4.398739 25.102672 C 6.155733 25.102672 7.597571 25.031762 7.597571 24.941155 C 7.597571 24.854487 7.022412 23.274768 6.32119 21.435045 C 5.619968 19.591384 5.048748 17.523173 5.048748 16.841649 C 5.048748 15.703148 5.17481 15.734663 6.60877 17.172562 C 10.067605 20.627458 15.874352 18.090454 15.874352 13.130688 C 15.874352 9.293665 12.411577 7.071816 8.649404 8.501836 C 6.923926 9.159724 6.908168 9.143966 7.877272 7.75728 C 8.88971 6.315442 9.185169 3.096913 8.472129 1.241433 C 7.999395 0.0123247 4.981777 -1.650123 3.216905 -1.650123 C 2.527501 -1.650123 1.077784 -0.909506 -0.00162485 0.000506346 Z M -0.00162485 0.000506346 " transform="matrix(0.991573,0,0,-0.991573,20.150049,99.977065)"/>
<path style=" stroke:none;fill-rule:nonzero;fill:rgb(1.925659%,2.432251%,2.532959%);fill-opacity:1;" d="M 44.734375 85.902344 C 44.734375 85.601562 45.117188 84.25 45.585938 82.902344 C 46.050781 81.558594 46.625 79.460938 46.859375 78.242188 L 47.277344 76.03125 L 45.847656 77.792969 C 44.953125 78.890625 43.578125 79.683594 42.164062 79.90625 C 39.207031 80.378906 36.640625 78.285156 36.113281 74.976562 C 35.804688 73.019531 36.011719 72.382812 37.445312 70.949219 C 38.929688 69.460938 39.527344 69.285156 42.152344 69.539062 C 45.074219 69.816406 45.128906 69.792969 44 68.664062 C 42.679688 67.34375 42.488281 63.914062 43.652344 62.398438 C 44.074219 61.847656 45.039062 61.0625 45.800781 60.660156 C 50.765625 58.011719 56.300781 63.734375 53.039062 68.144531 L 51.742188 69.90625 L 54.191406 69.574219 C 57.441406 69.140625 59.898438 71.378906 59.898438 74.769531 C 59.898438 80.425781 52.71875 82.226562 49.84375 77.292969 C 49.25 76.269531 49.1875 76.695312 49.519531 79.507812 C 49.746094 81.417969 50.1875 83.460938 50.496094 84.046875 C 51.542969 86.039062 51.089844 86.457031 47.894531 86.457031 C 46.15625 86.457031 44.734375 86.207031 44.734375 85.902344 "/>
<path style="fill:none;stroke-width:0.597;stroke-linecap:round;stroke-linejoin:round;stroke:rgb(1.925659%,2.432251%,2.532959%);stroke-opacity:1;stroke-miterlimit:10;" d="M -0.00113625 0.000939143 C -0.00113625 0.308216 0.38493 1.671265 0.857664 3.030375 C 1.326458 4.381606 1.905557 6.49709 2.141924 7.722258 L 2.563445 9.955925 L 1.121607 8.179234 C 0.219473 7.076189 -1.167213 6.272541 -2.593293 6.051932 C -5.575456 5.571319 -8.163673 7.682864 -8.695499 11.023516 C -9.006715 12.99324 -8.797925 13.63537 -7.352147 15.081148 C -5.855157 16.578138 -5.252421 16.763292 -2.605112 16.503289 C 0.341596 16.223588 0.396748 16.247225 -0.741753 17.385725 C -2.073286 18.717259 -2.266319 22.176095 -1.092363 23.704601 C -0.666903 24.267942 0.306141 25.051892 1.074333 25.461595 C 6.081372 28.124662 11.663571 22.35337 8.374131 17.909672 L 7.066234 16.13692 L 9.536268 16.471773 C 12.81389 16.905112 15.291803 14.647809 15.291803 11.228367 C 15.291803 5.524046 8.051096 3.704021 5.151662 8.683484 C 4.552866 9.71168 4.489835 9.286219 4.824688 6.449816 C 5.053176 4.527365 5.498334 2.467034 5.80955 1.872177 C 6.865322 -0.136942 6.408346 -0.554523 3.185878 -0.554523 C 1.432823 -0.554523 -0.00113625 -0.306338 -0.00113625 0.000939143 Z M -0.00113625 0.000939143 " transform="matrix(0.991573,0,0,-0.991573,44.735502,85.903275)"/>
<path style=" stroke:none;fill-rule:nonzero;fill:rgb(1.925659%,2.432251%,2.532959%);fill-opacity:1;" d="M 69.074219 69.558594 C 70.488281 66.21875 71.214844 63.867188 71.238281 62.519531 L 71.265625 61.015625 L 69.601562 62.679688 C 66.703125 65.578125 62.398438 64.6875 60.796875 60.851562 C 59.113281 56.835938 62.078125 53.261719 66.726562 53.703125 L 69.152344 53.933594 L 67.925781 51.859375 C 66.867188 50.070312 66.808594 49.53125 67.492188 47.886719 C 67.925781 46.835938 68.875 45.566406 69.597656 45.058594 C 74.152344 41.867188 80.382812 47.839844 77.113281 52.257812 L 75.882812 53.925781 L 78.683594 53.925781 C 80.96875 53.925781 81.761719 54.253906 83.007812 55.699219 C 84.953125 57.957031 84.957031 60.628906 83.019531 62.875 C 81.808594 64.28125 80.972656 64.632812 78.84375 64.632812 C 76.644531 64.632812 75.914062 64.304688 74.671875 62.75 C 73.378906 61.136719 73.167969 61.050781 73.179688 62.136719 C 73.191406 63.453125 73.902344 66.792969 74.6875 69.242188 C 75.121094 70.59375 74.976562 70.664062 71.875 70.664062 C 69.003906 70.664062 68.660156 70.527344 69.074219 69.558594 "/>
<path style="fill:none;stroke-width:0.597;stroke-linecap:round;stroke-linejoin:round;stroke:rgb(1.925659%,2.432251%,2.532959%);stroke-opacity:1;stroke-miterlimit:10;" d="M 0.000167098 0.00119149 C 1.426247 3.36942 2.158985 5.740968 2.182622 7.096138 L 2.210198 8.616765 L 0.531993 6.93856 C -2.391078 4.015489 -6.73235 4.913684 -8.347524 8.782222 C -10.045426 12.835915 -7.055385 16.44051 -2.367441 15.987473 L 0.0789561 15.755046 L -1.158031 17.846893 C -2.225621 19.659039 -2.284713 20.198744 -1.59531 21.857252 C -1.158031 22.916963 -0.200745 24.201223 0.528053 24.709412 C 5.12145 27.931881 11.40487 21.904525 8.107552 17.445069 L 6.866626 15.766864 L 9.69121 15.766864 C 11.995788 15.766864 12.795496 15.43989 14.05218 13.978355 C 16.014025 11.701353 16.017965 9.01071 14.063998 6.741588 C 12.842769 5.323386 11.999727 4.968836 9.852728 4.968836 C 7.634818 4.968836 6.898141 5.29975 5.645397 6.863711 C 4.341439 8.494642 4.128709 8.58131 4.140527 7.486144 C 4.152346 6.158549 4.869325 2.786382 5.661155 0.320287 C 6.098433 -1.042762 5.952674 -1.109733 2.824752 -1.109733 C -0.070743 -1.109733 -0.417414 -0.975792 0.000167098 0.00119149 Z M 0.000167098 0.00119149 " transform="matrix(0.991573,0,0,-0.991573,69.074053,69.559775)"/>
<path style=" stroke:none;fill-rule:nonzero;fill:rgb(1.925659%,2.432251%,2.532959%);fill-opacity:1;" d="M 21.367188 69.160156 C 21.367188 69.03125 21.761719 67.964844 22.242188 66.792969 C 22.722656 65.621094 23.316406 63.453125 23.5625 61.96875 L 24.007812 59.277344 L 22.101562 61.179688 C 19.648438 63.632812 17.414062 63.652344 15 61.234375 C 10.753906 56.992188 14.710938 50.175781 20.207031 52.265625 L 21.84375 52.890625 L 20.539062 50.503906 C 19.402344 48.433594 19.335938 47.875 20.027344 46.210938 C 20.894531 44.113281 23.007812 42.863281 25.660156 42.878906 C 27.679688 42.890625 28.34375 43.296875 29.769531 45.375 C 31.1875 47.449219 31.121094 49.292969 29.5625 51.277344 L 28.28125 52.902344 L 30.542969 52.535156 C 33.628906 52.035156 35.75 53.296875 36.601562 56.140625 C 37.171875 58.03125 37.105469 58.828125 36.246094 60.480469 C 34.285156 64.277344 29.183594 64.40625 26.894531 60.710938 C 25.976562 59.226562 25.820312 59.160156 25.820312 60.242188 C 25.816406 61.445312 26.71875 65.933594 27.433594 68.296875 C 27.71875 69.246094 27.320312 69.394531 24.566406 69.394531 C 22.804688 69.394531 21.367188 69.292969 21.367188 69.160156 "/>
<path style="fill:none;stroke-width:0.597;stroke-linecap:round;stroke-linejoin:round;stroke:rgb(1.925659%,2.432251%,2.532959%);stroke-opacity:1;stroke-miterlimit:10;" d="M 0.00188307 0.00161524 C 0.00188307 0.131617 0.399767 1.211026 0.88432 2.388921 C 1.368872 3.570756 1.967668 5.757149 2.215853 7.25414 L 2.66495 9.96842 L 0.742499 8.049908 C -1.731474 5.575935 -3.984839 5.556238 -6.419418 7.990817 C -10.701598 12.272997 -6.710937 19.147335 -1.168133 17.03973 L 0.482496 16.409418 L -0.83328 18.816421 C -1.97966 20.904329 -2.04663 21.46373 -1.349348 23.145875 C -0.47479 25.261359 1.656451 26.521982 4.331337 26.506224 C 6.368032 26.494406 7.037738 26.084703 8.475637 23.984977 C 9.905656 21.89707 9.838686 20.03765 8.266846 18.03641 L 6.974707 16.3976 L 9.255647 16.767908 C 12.367812 17.272157 14.506932 15.999715 15.365732 13.131797 C 15.940892 11.225104 15.873921 10.421456 15.007242 8.75113 C 13.029639 4.925926 7.884719 4.795924 5.576203 8.522642 C 4.650432 10.015693 4.492854 10.086603 4.492854 8.995376 C 4.488915 7.782026 5.398927 3.2556 6.119847 0.876173 C 6.407426 -0.0850526 6.005603 -0.238691 3.228291 -0.238691 C 1.4516 -0.238691 0.00188307 -0.132326 0.00188307 0.00161524 Z M 0.00188307 0.00161524 " transform="matrix(0.991573,0,0,-0.991573,21.36532,69.161758)"/>
<path style=" stroke:none;fill-rule:nonzero;fill:rgb(1.925659%,2.432251%,2.532959%);fill-opacity:1;" d="M 72.6875 37.941406 C 71.210938 37.835938 70.003906 37.65625 70.003906 37.542969 C 70.003906 37.433594 70.382812 36.242188 70.851562 34.894531 C 71.320312 33.550781 71.894531 31.46875 72.128906 30.269531 L 72.550781 28.085938 L 70.765625 29.792969 C 66.0625 34.300781 58.976562 29.351562 62.210938 23.820312 C 63.539062 21.542969 66.167969 20.539062 68.484375 21.414062 C 70.214844 22.074219 70.371094 21.621094 69.035156 19.847656 C 67.667969 18.046875 67.90625 15.382812 69.605469 13.40625 C 73.96875 8.332031 81.800781 14.941406 77.660156 20.203125 L 76.476562 21.710938 L 79.613281 21.710938 C 82.144531 21.710938 82.980469 21.996094 83.957031 23.203125 C 86.121094 25.871094 85.464844 29.71875 82.59375 31.207031 C 79.917969 32.589844 78.328125 32.339844 76.195312 30.210938 C 75.136719 29.152344 74.1875 28.367188 74.089844 28.46875 C 73.773438 28.789062 75.132812 35.519531 75.746094 36.660156 C 76.46875 38.011719 76.042969 38.191406 72.6875 37.941406 "/>
<path style="fill:none;stroke-width:0.597;stroke-linecap:round;stroke-linejoin:round;stroke:rgb(1.925659%,2.432251%,2.532959%);stroke-opacity:1;stroke-miterlimit:10;" d="M -0.00134308 0.000387321 C -1.490455 0.106752 -2.707744 0.287967 -2.707744 0.402211 C -2.707744 0.516455 -2.325618 1.714047 -1.852884 3.073157 C -1.38015 4.432267 -0.801051 6.528053 -0.564684 7.737464 L -0.139224 9.939616 L -1.939552 8.218077 C -6.682648 3.671953 -13.828807 8.663234 -10.566944 14.241493 C -9.227531 16.542131 -6.576283 17.55063 -4.24019 16.668194 C -2.495014 16.006366 -2.337436 16.459403 -3.684727 18.243973 C -5.063534 20.063998 -4.823228 22.750702 -3.109568 24.744063 C 1.290796 29.857467 9.18939 23.19586 5.013575 17.889423 L 3.819922 16.372735 L 6.983299 16.372735 C 9.536062 16.372735 10.379104 16.081216 11.363966 14.863926 C 13.54642 12.169344 12.884593 8.288987 9.989098 6.791996 C 7.290576 5.397432 5.68722 5.649556 3.536282 7.796556 C 2.468691 8.864146 1.511405 9.655975 1.412919 9.54961 C 1.093824 9.230515 2.464752 2.442845 3.083245 1.292526 C 3.812043 -0.0705228 3.382643 -0.247798 -0.00134308 0.000387321 Z M -0.00134308 0.000387321 " transform="matrix(0.991573,0,0,-0.991573,72.688832,37.94179)"/>
<path style=" stroke:none;fill-rule:nonzero;fill:rgb(1.925659%,2.432251%,2.532959%);fill-opacity:1;" d="M 23.214844 33.863281 C 23.851562 32.394531 24.542969 30.238281 24.753906 29.082031 L 25.144531 26.972656 L 23.207031 28.605469 C 20.886719 30.554688 18.328125 30.695312 16.15625 28.988281 C 14.207031 27.457031 13.722656 25.269531 14.777344 22.761719 C 15.792969 20.347656 17.804688 19.269531 20.472656 19.699219 L 22.566406 20.039062 L 21.5625 17.9375 C 19.785156 14.214844 22.042969 10.023438 25.828125 10.023438 C 28.578125 10.023438 30.179688 11.0625 31.203125 13.515625 C 32.199219 15.890625 31.597656 18.488281 29.75 19.839844 C 28.90625 20.457031 29.308594 20.539062 31.886719 20.292969 C 34.769531 20.011719 35.183594 20.144531 36.421875 21.722656 C 38.109375 23.867188 38.183594 27.078125 36.59375 29.046875 C 34.734375 31.34375 30.554688 31.132812 28.5625 28.640625 C 27.265625 27.027344 27.058594 26.941406 27.066406 28.027344 C 27.078125 29.34375 27.789062 32.6875 28.574219 35.132812 C 29.007812 36.488281 28.871094 36.554688 25.546875 36.554688 L 22.070312 36.554688 "/>
<path style="fill:none;stroke-width:0.597;stroke-linecap:round;stroke-linejoin:round;stroke:rgb(1.925659%,2.432251%,2.532959%);stroke-opacity:1;stroke-miterlimit:10;" d="M -0.000957809 0.000332063 C 0.641172 1.485504 1.338455 3.66008 1.551185 4.830096 L 1.94513 6.953459 L -0.00883671 5.306769 C -2.348869 3.344924 -4.929208 3.203104 -7.119541 4.920703 C -9.085326 6.468906 -9.573818 8.671058 -8.510166 11.204123 C -7.48591 13.634763 -5.457094 14.722051 -2.766451 14.288712 L -0.654906 13.94598 L -1.667345 16.061463 C -3.459794 19.819697 -1.182792 24.046725 2.634533 24.046725 C 5.407905 24.046725 7.023079 22.994893 8.055214 20.524859 C 9.059774 18.129674 8.453099 15.509941 6.589739 14.146891 C 5.738819 13.528398 6.144582 13.44173 8.744618 13.693855 C 11.651931 13.969616 12.069512 13.835675 13.318317 12.244138 C 15.020159 10.08532 15.095009 6.847093 13.491653 4.865551 C 11.616476 2.545216 7.401266 2.757946 5.392147 5.271314 C 4.08425 6.898306 3.875459 6.988914 3.883338 5.893747 C 3.895157 4.566153 4.612136 1.190045 5.403965 -1.27211 C 5.841244 -2.643038 5.703364 -2.710008 2.350893 -2.710008 L -1.155216 -2.710008 Z M -0.000957809 0.000332063 " transform="matrix(0.991573,0,0,-0.991573,23.215793,33.867517)"/>
<path style=" stroke:none;fill-rule:nonzero;fill:rgb(1.925659%,2.432251%,2.532959%);fill-opacity:1;" d="M 5.945312 31.75 C 6.339844 29.617188 6.289062 29.515625 5.109375 30.144531 C 4.183594 30.636719 3.5625 30.605469 2.746094 30.011719 C 1.261719 28.921875 1.753906 26.8125 3.554688 26.558594 C 4.625 26.402344 4.902344 26.054688 4.632812 25.203125 C 4.277344 24.089844 5.710938 22.019531 6.835938 22.019531 C 7.992188 22.019531 9.394531 24.089844 9.023438 25.25 C 8.773438 26.046875 8.949219 26.449219 9.558594 26.449219 C 10.953125 26.449219 12.039062 28.128906 11.585938 29.574219 C 11.121094 31.023438 9.414062 31.277344 8.148438 30.078125 C 7.460938 29.429688 7.390625 29.710938 7.734375 31.65625 C 8.113281 33.773438 8.015625 34.023438 6.835938 34.023438 C 5.664062 34.023438 5.566406 33.773438 5.945312 31.75 "/>
<path style="fill:none;stroke-width:0.597;stroke-linecap:round;stroke-linejoin:round;stroke:rgb(1.925659%,2.432251%,2.532959%);stroke-opacity:1;stroke-miterlimit:10;" d="M 0.00174055 -0.00168687 C 0.399625 2.149252 0.348412 2.251678 -0.841301 1.617426 C -1.774951 1.117116 -2.401323 1.148632 -3.224668 1.751368 C -4.721658 2.850474 -4.225288 4.977776 -2.409202 5.23384 C -1.329793 5.391418 -1.050092 5.745968 -1.321914 6.600829 C -1.680404 7.719632 -0.234626 9.80754 0.899935 9.80754 C 2.066012 9.80754 3.480274 7.719632 3.106026 6.553555 C 2.853901 5.749908 3.031176 5.348084 3.64573 5.348084 C 5.052113 5.348084 6.14728 3.654121 5.690304 2.196525 C 5.22151 0.731051 3.499971 0.474986 2.223589 1.684397 C 1.530247 2.338346 1.459336 2.054705 1.806008 0.0889204 C 2.188134 -2.042321 2.089648 -2.298385 0.899935 -2.298385 C -0.2819 -2.298385 -0.380386 -2.042321 0.00174055 -0.00168687 Z M 0.00174055 -0.00168687 " transform="matrix(0.991573,0,0,-0.991573,5.943587,31.748327)"/>
<path style="fill:none;stroke-width:0.597;stroke-linecap:round;stroke-linejoin:round;stroke:rgb(1.925659%,2.432251%,2.532959%);stroke-opacity:1;stroke-miterlimit:10;" d="M 0.000641985 0.000890889 C -1.066949 1.182725 -1.464833 3.9364 -0.570578 3.9364 C -0.302696 3.9364 0.197614 3.310028 0.544286 2.549714 C 0.890957 1.79334 1.65915 0.871509 2.250067 0.50514 C 3.680087 -0.373357 5.949209 1.627883 5.949209 3.767004 C 5.949209 5.126113 5.740418 5.263994 4.1607 4.909444 C -0.377545 3.916703 -3.111522 10.5074 0.623075 13.43835 C 2.829166 15.171707 4.389188 15.108676 6.29982 13.198043 C 7.635293 11.86257 7.863781 11.039225 7.863781 7.50554 C 7.863781 3.239118 7.071952 0.174227 5.752237 -0.664876 C 4.345854 -1.559131 1.068233 -1.177004 0.000641985 0.000890889 Z M 0.000641985 0.000890889 " transform="matrix(0.991573,0,0,-0.991573,4.093113,17.711821)"/>
<path style=" stroke:none;fill-rule:nonzero;fill:rgb(1.925659%,2.432251%,2.532959%);fill-opacity:1;" d="M 9.238281 10.527344 C 6.667969 13.097656 3.023438 8.824219 5.433594 6.074219 C 7.316406 3.921875 9.992188 5.132812 9.992188 8.128906 C 9.992188 9.03125 9.65625 10.109375 9.238281 10.527344 M 10.339844 4.625 C 8.445312 2.730469 6.898438 2.667969 4.710938 4.382812 C 1.011719 7.296875 3.71875 13.828125 8.21875 12.839844 C 9.785156 12.496094 9.992188 12.632812 9.992188 13.980469 C 9.992188 16.097656 7.742188 18.082031 6.324219 17.210938 C 5.738281 16.847656 4.976562 15.933594 4.632812 15.183594 C 4.289062 14.429688 3.792969 13.8125 3.53125 13.8125 C 2.640625 13.8125 3.035156 16.542969 4.09375 17.710938 C 5.152344 18.882812 8.402344 19.253906 9.796875 18.371094 C 11.101562 17.539062 11.890625 14.5 11.890625 10.269531 C 11.890625 6.765625 11.664062 5.953125 10.339844 4.625 "/>
<path style="fill:none;stroke-width:0.597;stroke-linecap:round;stroke-linejoin:round;stroke:rgb(1.925659%,2.432251%,2.532959%);stroke-opacity:1;stroke-miterlimit:10;" d="M 0.000395605 0.000936605 C 0.421917 0.418518 0.760709 1.509745 0.760709 2.419758 C 0.760709 5.445254 -1.937813 6.658605 -3.836627 4.491908 C -6.267267 1.718536 -2.591761 -2.59122 0.000395605 0.000936605 Z M 0.000395605 0.000936605 " transform="matrix(0.991573,0,0,-0.991573,9.237889,10.528272)"/>
<path style="fill:none;stroke-width:0.597;stroke-linecap:round;stroke-linejoin:round;stroke:rgb(1.925659%,2.432251%,2.532959%);stroke-opacity:1;stroke-miterlimit:10;" d="M 0.000395605 0.000936605 L 0.000395605 0.000936605 " transform="matrix(0.991573,0,0,-0.991573,9.237889,10.528272)"/>
<path style=" stroke:none;fill-rule:nonzero;fill:rgb(1.925659%,2.432251%,2.532959%);fill-opacity:1;" d="M 89.585938 113.90625 C 89.285156 116.054688 89.339844 116.15625 90.492188 115.472656 C 91.394531 114.9375 92.015625 114.941406 92.859375 115.5 C 94.394531 116.519531 93.996094 118.644531 92.207031 118.988281 C 91.144531 119.1875 90.882812 119.550781 91.191406 120.386719 C 91.59375 121.484375 90.253906 123.613281 89.132812 123.664062 C 87.976562 123.710938 86.484375 121.714844 86.800781 120.539062 C 87.015625 119.730469 86.820312 119.339844 86.214844 119.367188 C 84.820312 119.429688 83.65625 117.796875 84.050781 116.332031 C 84.445312 114.863281 86.136719 114.535156 87.460938 115.675781 C 88.175781 116.296875 88.234375 116.011719 87.800781 114.082031 C 87.332031 111.984375 87.414062 111.726562 88.589844 111.671875 C 89.769531 111.621094 89.875 111.867188 89.585938 113.90625 "/>
<path style="fill:none;stroke-width:0.597;stroke-linecap:round;stroke-linejoin:round;stroke:rgb(1.925659%,2.432251%,2.532959%);stroke-opacity:1;stroke-miterlimit:10;" d="M -0.00128904 -0.00170631 C -0.304627 -2.164464 -0.249474 -2.266889 0.912663 -1.573546 C 1.822676 -1.037781 2.449048 -1.041721 3.299969 -1.605062 C 4.848172 -2.633258 4.446348 -4.780257 2.642081 -5.11905 C 1.570551 -5.323901 1.306608 -5.68633 1.617824 -6.537251 C 2.023587 -7.640297 0.672357 -9.787296 -0.458265 -9.838509 C -1.624342 -9.889722 -3.129211 -7.872724 -2.810116 -6.68695 C -2.593446 -5.871485 -2.790419 -5.47754 -3.401033 -5.505116 C -4.807416 -5.568147 -5.981372 -3.921458 -5.583488 -2.444164 C -5.185603 -0.966871 -3.479822 -0.635958 -2.144349 -1.782337 C -1.42343 -2.40477 -1.364338 -2.12113 -1.801617 -0.175042 C -2.274351 1.944381 -2.191622 2.200445 -1.005848 2.255598 C 0.183865 2.31075 0.29023 2.058625 -0.00128904 -0.00170631 Z M -0.00128904 -0.00170631 " transform="matrix(0.991573,0,0,-0.991573,89.587216,113.908464)"/>
</g>
</svg>
