<?xml version="1.0" encoding="UTF-8"?>
<svg xmlns="http://www.w3.org/2000/svg" xmlns:xlink="http://www.w3.org/1999/xlink" width="138.79pt" height="96.774pt" viewBox="0 0 138.79 96.774" version="1.2">
<defs>
<clipPath id="clip1">
  <path d="M 0.0585938 0 L 63 0 L 63 96.546875 L 0.0585938 96.546875 Z M 0.0585938 0 "/>
</clipPath>
<clipPath id="clip2">
  <path d="M 75 0 L 138.523438 0 L 138.523438 96.546875 L 75 96.546875 Z M 75 0 "/>
</clipPath>
</defs>
<g id="surface1">
<g clip-path="url(#clip1)" clip-rule="nonzero">
<path style=" stroke:none;fill-rule:nonzero;fill:rgb(1.925659%,2.432251%,2.532959%);fill-opacity:1;" d="M 1.066406 96.320312 C 0.5625 96.011719 1.296875 93.007812 4.589844 81.925781 C 12.929688 53.867188 14.371094 49.3125 15.296875 48.058594 L 16.238281 46.789062 L 13.746094 46.25 C 12.378906 45.953125 9.035156 45.511719 6.320312 45.273438 C 1.226562 44.820312 0.0585938 44.371094 0.0585938 42.859375 C 0.0585938 41.136719 1.808594 40.753906 9.351562 40.820312 C 14.605469 40.875 19.21875 41.289062 26.75 42.394531 C 39.445312 44.257812 44.808594 44.664062 46.660156 43.898438 C 47.554688 43.527344 48.414062 42.550781 49.121094 41.089844 C 50.175781 38.921875 52.960938 26.75 52.964844 24.292969 C 52.964844 23.625 53.800781 20.300781 54.820312 16.902344 C 55.839844 13.503906 57.042969 9.007812 57.496094 6.914062 C 58.414062 2.644531 59.152344 1.175781 60.605469 0.710938 C 62.015625 0.261719 62.976562 1.28125 62.976562 3.222656 C 62.976562 5.367188 61.152344 16.121094 60.617188 17.117188 C 60.1875 17.917969 58.957031 28.320312 58.441406 35.511719 C 57.789062 44.609375 55.421875 49.671875 50.957031 51.523438 C 50.226562 51.824219 49.632812 52.207031 49.632812 52.375 C 49.632812 52.535156 51.367188 57.390625 53.488281 63.160156 C 62.925781 88.859375 62.644531 87.988281 61.429688 87.589844 C 61.101562 87.484375 57.953125 79.550781 54.4375 69.960938 C 49.886719 57.558594 47.859375 52.59375 47.417969 52.765625 C 46.917969 52.953125 46.945312 53.347656 47.550781 54.746094 C 47.960938 55.703125 50.011719 61.308594 52.101562 67.210938 C 54.191406 73.109375 57.265625 81.691406 58.929688 86.277344 C 60.597656 90.863281 62.027344 94.929688 62.113281 95.304688 C 62.335938 96.324219 60.769531 96.476562 60.371094 95.476562 C 59.777344 93.980469 51.089844 69.164062 48.644531 61.96875 C 45.695312 53.289062 45.296875 52.863281 39.355469 51.984375 C 37.011719 51.640625 31.789062 50.527344 27.75 49.503906 C 23.714844 48.484375 20.367188 47.707031 20.3125 47.777344 C 20.253906 47.847656 17.65625 56.859375 14.542969 67.804688 C 10.960938 80.378906 8.65625 87.707031 8.28125 87.707031 C 7.953125 87.707031 7.683594 87.488281 7.683594 87.222656 C 7.683594 86.550781 17.5625 51.644531 18.355469 49.515625 C 18.964844 47.886719 18.945312 47.800781 18.074219 48.03125 C 16.269531 48.503906 16.015625 49.214844 7.992188 76.265625 C 6.011719 82.953125 3.882812 90.1875 3.265625 92.34375 C 2.003906 96.753906 1.945312 96.863281 1.066406 96.320312 "/>
</g>
<g clip-path="url(#clip2)" clip-rule="nonzero">
<path style=" stroke:none;fill-rule:nonzero;fill:rgb(1.925659%,2.432251%,2.532959%);fill-opacity:1;" d="M 76.390625 96.328125 C 75.878906 96.015625 76.1875 94.738281 77.914062 90.03125 C 79.101562 86.785156 82.367188 77.695312 85.164062 69.832031 C 87.964844 61.96875 90.566406 54.921875 90.949219 54.175781 C 91.335938 53.433594 91.535156 52.707031 91.394531 52.570312 C 90.632812 51.808594 89.652344 53.332031 88.074219 57.75 C 81.097656 77.226562 77.042969 87.707031 76.480469 87.707031 C 76.132812 87.707031 75.847656 87.570312 75.847656 87.398438 C 75.847656 87.230469 77.882812 81.574219 80.367188 74.835938 C 82.851562 68.09375 85.730469 60.191406 86.765625 57.273438 L 88.640625 51.964844 L 87.011719 51.191406 C 86.117188 50.769531 84.722656 49.660156 83.90625 48.734375 C 81.097656 45.535156 80.28125 42.566406 79.15625 31.460938 C 78.878906 28.707031 78.566406 25.917969 78.460938 25.261719 C 78.359375 24.609375 78.171875 23.320312 78.042969 22.402344 C 77.675781 20.683594 77.566406 19.21875 77.328125 17.328125 C 77.019531 15.8125 76.867188 13.640625 76.566406 11.890625 C 76.222656 9.910156 75.109375 2.335938 75.902344 0.851562 C 76.152344 0.382812 76.878906 0 77.519531 0 C 79.21875 0 79.761719 1.246094 82.816406 12.152344 C 83.179688 13.460938 83.894531 15.726562 84.394531 17.183594 C 85.390625 20.046875 86.277344 24.441406 87.53125 32.652344 C 88.574219 39.492188 89.46875 42.269531 90.929688 43.226562 C 91.910156 43.867188 92.96875 43.941406 97.4375 43.679688 C 100.378906 43.511719 103.421875 43.28125 104.210938 43.171875 C 104.996094 43.058594 106.820312 42.835938 108.261719 42.667969 C 109.703125 42.503906 113.242188 41.910156 116.125 41.351562 C 120.105469 40.574219 123.234375 40.324219 129.101562 40.304688 C 136.367188 40.28125 136.894531 40.339844 137.847656 41.292969 C 139.203125 42.648438 138.441406 44.195312 136.257812 44.515625 C 128.679688 45.621094 124.054688 46.34375 123.164062 46.558594 L 122.09375 46.816406 L 123.054688 48.03125 C 123.578125 48.703125 124.429688 50.664062 124.941406 52.390625 C 125.453125 54.117188 128.5625 64.496094 131.847656 75.453125 C 135.128906 86.414062 137.8125 95.601562 137.8125 95.867188 C 137.8125 96.136719 137.460938 96.289062 137.03125 96.203125 C 136.441406 96.089844 134.8125 91.226562 130.433594 76.503906 C 121.867188 47.71875 122.015625 48.144531 120.351562 48.144531 C 119.433594 48.144531 118.9375 46.128906 125.460938 68.996094 C 128.769531 80.597656 130.539062 87.546875 130.25 87.835938 C 129.964844 88.117188 129.632812 87.960938 129.347656 87.402344 C 129.101562 86.914062 126.480469 78.042969 123.53125 67.6875 C 120.582031 57.332031 117.921875 48.605469 117.625 48.292969 C 117.207031 47.863281 115.578125 48.109375 110.644531 49.351562 C 107.105469 50.238281 102.179688 51.316406 99.695312 51.742188 C 93.792969 52.753906 92.792969 53.34375 91.6875 56.484375 C 91.410156 57.273438 89.21875 63.382812 86.824219 70.070312 C 84.425781 76.757812 81.375 85.335938 80.050781 89.136719 C 78.722656 92.941406 77.5 96.199219 77.335938 96.386719 C 77.167969 96.570312 76.742188 96.546875 76.390625 96.328125 "/>
</g>
</g>
</svg>
