<?xml version="1.0" encoding="UTF-8"?>
<svg xmlns="http://www.w3.org/2000/svg" xmlns:xlink="http://www.w3.org/1999/xlink" width="147.459pt" height="145.583pt" viewBox="0 0 147.459 145.583" version="1.2">
<defs>
<clipPath id="clip1">
  <path d="M 56 0.0585938 L 73 0.0585938 L 73 73 L 56 73 Z M 56 0.0585938 "/>
</clipPath>
<clipPath id="clip2">
  <path d="M 56 0.0585938 L 74 0.0585938 L 74 74 L 56 74 Z M 56 0.0585938 "/>
</clipPath>
<clipPath id="clip3">
  <path d="M 72 0.0585938 L 87 0.0585938 L 87 44 L 72 44 Z M 72 0.0585938 "/>
</clipPath>
<clipPath id="clip4">
  <path d="M 103 72 L 146.921875 72 L 146.921875 87 L 103 87 Z M 103 72 "/>
</clipPath>
<clipPath id="clip5">
  <path d="M 59 102 L 74 102 L 74 145.109375 L 59 145.109375 Z M 59 102 "/>
</clipPath>
<clipPath id="clip6">
  <path d="M 72 73 L 90 73 L 90 145.109375 L 72 145.109375 Z M 72 73 "/>
</clipPath>
<clipPath id="clip7">
  <path d="M 72 72 L 91 72 L 91 145.109375 L 72 145.109375 Z M 72 72 "/>
</clipPath>
<clipPath id="clip8">
  <path d="M 72 56 L 146.921875 56 L 146.921875 74 L 72 74 Z M 72 56 "/>
</clipPath>
</defs>
<g id="surface1">
<path style="fill:none;stroke-width:0.299;stroke-linecap:round;stroke-linejoin:round;stroke:rgb(1.925659%,2.432251%,2.532959%);stroke-opacity:1;stroke-miterlimit:10;" d="M 0.000173448 -0.00151801 C 12.267672 29.547903 -0.0939205 -0.197547 12.475463 30.461399 " transform="matrix(0.996345,0,0,-0.996345,29.925608,116.092238)"/>
<path style="fill:none;stroke-width:0.299;stroke-linecap:round;stroke-linejoin:round;stroke:rgb(1.925659%,2.432251%,2.532959%);stroke-opacity:1;stroke-miterlimit:10;" d="M -0.0002 0.00129098 C -0.0002 0.0993055 1.681729 0.695234 3.740035 1.326447 C 43.067386 13.719405 -0.0825322 0.114988 43.067386 13.644914 " transform="matrix(0.996345,0,0,-0.996345,0.000199269,73.02863)"/>
<path style="fill:none;stroke-width:0.299;stroke-linecap:round;stroke-linejoin:round;stroke:rgb(1.925659%,2.432251%,2.532959%);stroke-opacity:1;stroke-miterlimit:10;" d="M -0.0011619 0.00195881 C 0.0576468 0.0568469 6.605018 -2.699322 14.559877 -6.121989 C 22.510816 -9.544657 29.932476 -12.857548 30.183394 -12.900674 " transform="matrix(0.996345,0,0,-0.996345,29.958189,29.970702)"/>
<g clip-path="url(#clip1)" clip-rule="nonzero">
<path style=" stroke:none;fill-rule:nonzero;fill:rgb(1.925659%,2.432251%,2.532959%);fill-opacity:1;" d="M 56.238281 55.417969 C 72.769531 72.871094 56.148438 55.484375 72.71875 72.898438 C 73.015625 0.0585938 72.839844 72.664062 72.960938 0.078125 C 67.917969 18.164062 61.398438 39.8125 56.238281 55.417969 "/>
</g>
<g clip-path="url(#clip2)" clip-rule="nonzero">
<path style="fill:none;stroke-width:0.299;stroke-linecap:round;stroke-linejoin:round;stroke:rgb(1.925659%,2.432251%,2.532959%);stroke-opacity:1;stroke-miterlimit:10;" d="M 0.00100918 -0.00152845 C 16.592909 -17.518686 -0.0891642 -0.0681783 16.541942 -17.54613 C 16.839906 55.56095 16.66348 -17.310895 16.785018 55.541347 C 11.723547 37.389056 5.180097 15.661194 0.00100918 -0.00152845 Z M 0.00100918 -0.00152845 " transform="matrix(0.996345,0,0,-0.996345,56.237276,55.416446)"/>
</g>
<g clip-path="url(#clip3)" clip-rule="nonzero">
<path style="fill:none;stroke-width:0.299;stroke-linecap:round;stroke-linejoin:round;stroke:rgb(1.925659%,2.432251%,2.532959%);stroke-opacity:1;stroke-miterlimit:10;" d="M -0.00122628 -0.00055007 C 13.5287 -43.115183 0.0967882 -0.255388 13.489494 -43.244562 " transform="matrix(0.996345,0,0,-0.996345,72.934816,0.0580457)"/>
</g>
<path style="fill:none;stroke-width:0.299;stroke-linecap:round;stroke-linejoin:round;stroke:rgb(1.925659%,2.432251%,2.532959%);stroke-opacity:1;stroke-miterlimit:10;" d="M 0.00187666 0.00176776 C -12.630236 -30.488593 -0.00596451 0.0135295 -12.504778 -30.33569 " transform="matrix(0.996345,0,0,-0.996345,116.09188,30.04473)"/>
<g clip-path="url(#clip4)" clip-rule="nonzero">
<path style="fill:none;stroke-width:0.299;stroke-linecap:round;stroke-linejoin:round;stroke:rgb(1.925659%,2.432251%,2.532959%);stroke-opacity:1;stroke-miterlimit:10;" d="M 0.00137359 0.0000205189 C -42.987801 -13.545588 0.0366588 0.0431469 -43.030927 -13.549509 " transform="matrix(0.996345,0,0,-0.996345,146.0416,73.097677)"/>
</g>
<path style="fill:none;stroke-width:0.299;stroke-linecap:round;stroke-linejoin:round;stroke:rgb(1.925659%,2.432251%,2.532959%);stroke-opacity:1;stroke-miterlimit:10;" d="M 0.000773749 -0.000956497 C -0.0462732 -0.130336 -6.534835 2.551342 -14.415204 5.962248 C -22.299493 9.373153 -30.003435 12.658601 -30.293558 12.752695 " transform="matrix(0.996345,0,0,-0.996345,116.073448,115.948266)"/>
<g clip-path="url(#clip5)" clip-rule="nonzero">
<path style="fill:none;stroke-width:0.299;stroke-linecap:round;stroke-linejoin:round;stroke:rgb(1.925659%,2.432251%,2.532959%);stroke-opacity:1;stroke-miterlimit:10;" d="M 0.00135895 -0.000496007 C -13.371744 42.12223 -0.0417674 -0.00441659 -13.367823 42.184959 " transform="matrix(0.996345,0,0,-0.996345,72.967396,145.108881)"/>
</g>
<g clip-path="url(#clip6)" clip-rule="nonzero">
<path style=" stroke:none;fill-rule:nonzero;fill:rgb(1.925659%,2.432251%,2.532959%);fill-opacity:1;" d="M 89.867188 90.621094 C 72.714844 73.179688 89.875 90.582031 72.753906 73.023438 C 72.742188 145.121094 72.785156 73.355469 72.875 145.261719 C 89.769531 90.664062 72.847656 144.929688 89.867188 90.621094 "/>
</g>
<g clip-path="url(#clip7)" clip-rule="nonzero">
<path style="fill:none;stroke-width:0.299;stroke-linecap:round;stroke-linejoin:round;stroke:rgb(1.925659%,2.432251%,2.532959%);stroke-opacity:1;stroke-miterlimit:10;" d="M 0.000393713 -0.000807256 C -17.214879 17.504588 0.00823488 0.0383986 -17.175673 17.661412 C -17.187435 -54.700758 -17.144308 17.328162 -17.054135 -54.841899 C -0.0976208 -0.0439337 -17.081579 -54.508649 0.000393713 -0.000807256 Z M 0.000393713 -0.000807256 " transform="matrix(0.996345,0,0,-0.996345,89.866795,90.620289)"/>
</g>
<path style=" stroke:none;fill-rule:nonzero;fill:rgb(1.925659%,2.432251%,2.532959%);fill-opacity:1;" d="M 59.605469 103.035156 C 59.78125 102.867188 55.714844 89.75 55.480469 89.75 C 30.796875 114.945312 55.550781 89.78125 30.15625 115.839844 C 59.574219 102.90625 30.15625 115.707031 59.605469 103.035156 "/>
<path style="fill:none;stroke-width:0.299;stroke-linecap:round;stroke-linejoin:round;stroke:rgb(1.925659%,2.432251%,2.532959%);stroke-opacity:1;stroke-miterlimit:10;" d="M 0.00165027 -0.00141467 C 0.178076 0.16717 -3.903249 13.332482 -4.138484 13.332482 C -28.912637 -11.955267 -4.067913 13.301118 -29.555612 -12.85308 C -0.0297144 0.124044 -29.555612 -12.71978 0.00165027 -0.00141467 Z M 0.00165027 -0.00141467 " transform="matrix(0.996345,0,0,-0.996345,59.603825,103.033747)"/>
<path style=" stroke:none;fill-rule:nonzero;fill:rgb(1.925659%,2.432251%,2.532959%);fill-opacity:1;" d="M 103.117188 86.589844 C 89.867188 90.453125 103.09375 86.789062 89.988281 90.464844 C 89.765625 90.417969 115.769531 115.847656 115.882812 115.738281 C 103.09375 86.652344 115.804688 115.894531 103.117188 86.589844 "/>
<path style="fill:none;stroke-width:0.299;stroke-linecap:round;stroke-linejoin:round;stroke:rgb(1.925659%,2.432251%,2.532959%);stroke-opacity:1;stroke-miterlimit:10;" d="M -0.00129447 0.00033266 C -13.299906 -3.877122 -0.024818 -0.199617 -13.178368 -3.888884 C -13.401841 -3.841837 12.697468 -29.364821 12.811165 -29.255045 C -0.024818 -0.0623966 12.732754 -29.411868 -0.00129447 0.00033266 Z M -0.00129447 0.00033266 " transform="matrix(0.996345,0,0,-0.996345,103.118477,86.590175)"/>
<path style=" stroke:none;fill-rule:nonzero;fill:rgb(1.925659%,2.432251%,2.532959%);fill-opacity:1;" d="M 0.226562 73.160156 C 0.394531 73.316406 3.589844 73.964844 5.074219 74.402344 C 19.714844 78.933594 35.597656 83.714844 49.1875 87.988281 C 52.414062 89.003906 55.261719 89.84375 55.507812 89.855469 C 55.757812 89.863281 59.648438 86.195312 64.15625 81.710938 "/>
<path style=" stroke:none;fill-rule:nonzero;fill:rgb(1.925659%,2.432251%,2.532959%);fill-opacity:1;" d="M 64.15625 81.710938 C 68.664062 77.222656 72.710938 73.242188 72.710938 73.105469 C 72.710938 72.96875 56.472656 73.046875 37.0625 73.046875 C 16.667969 73.046875 0.0546875 73 0.226562 73.160156 "/>
<path style="fill:none;stroke-width:0.299;stroke-linecap:round;stroke-linejoin:round;stroke:rgb(1.925659%,2.432251%,2.532959%);stroke-opacity:1;stroke-miterlimit:10;" d="M -0.00130628 0.000791218 C 0.167279 -0.156032 3.374314 -0.806849 4.864135 -1.245954 C 19.558474 -5.793828 35.499558 -10.592619 49.13926 -14.881735 C 52.37766 -15.901087 55.235764 -16.744012 55.48276 -16.755773 C 55.733678 -16.763614 59.638577 -13.082189 64.162928 -8.581361 C 68.687278 -4.076613 72.749001 -0.081541 72.749001 0.0556794 C 72.749001 0.1929 56.451144 0.114488 36.969776 0.114488 C 16.50042 0.114488 -0.173812 0.161535 -0.00130628 0.000791218 " transform="matrix(0.996345,0,0,-0.996345,0.227864,73.160945)"/>
<path style=" stroke:none;fill-rule:nonzero;fill:rgb(1.925659%,2.432251%,2.532959%);fill-opacity:1;" d="M 145.875 73.035156 C 90.390625 56.390625 145.855469 73.320312 90.550781 56.230469 C 90.203125 56.230469 86.585938 59.605469 81.714844 64.476562 L 72.890625 73 L 108.691406 72.710938 C 131.867188 72.523438 146.386719 73.238281 145.875 73.035156 "/>
<g clip-path="url(#clip8)" clip-rule="nonzero">
<path style="fill:none;stroke-width:0.299;stroke-linecap:round;stroke-linejoin:round;stroke:rgb(1.925659%,2.432251%,2.532959%);stroke-opacity:1;stroke-miterlimit:10;" d="M -0.00121141 0.00024982 C -55.689148 16.705847 -0.0208143 -0.285953 -55.528405 16.866591 C -55.877336 16.866591 -59.507795 13.479208 -64.396759 8.590243 L -73.253353 0.0355351 L -37.321225 0.325658 C -14.060416 0.513846 0.512385 -0.20362 -0.00121141 0.00024982 Z M -0.00121141 0.00024982 " transform="matrix(0.996345,0,0,-0.996345,145.876207,73.035405)"/>
</g>
<path style=" stroke:none;fill-rule:nonzero;fill:rgb(1.925659%,2.432251%,2.532959%);fill-opacity:1;" d="M 56.09375 55.585938 C 30.027344 30.15625 56.101562 55.542969 30.03125 30.019531 C 42.96875 59.4375 30.285156 30.648438 42.832031 59.453125 C 56.027344 55.660156 43.765625 59.355469 56.09375 55.585938 "/>
<path style="fill:none;stroke-width:0.299;stroke-linecap:round;stroke-linejoin:round;stroke:rgb(1.925659%,2.432251%,2.532959%);stroke-opacity:1;stroke-miterlimit:10;" d="M -0.000452329 0.00178655 C -26.162491 25.524771 0.00738883 0.0449129 -26.158571 25.661991 C -13.173606 -3.863907 -25.903733 25.030778 -13.310826 -3.879589 C -0.0671022 -0.0727045 -12.373807 -3.781574 -0.000452329 0.00178655 Z M -0.000452329 0.00178655 " transform="matrix(0.996345,0,0,-0.996345,56.094201,55.587718)"/>
<path style=" stroke:none;fill-rule:nonzero;fill:rgb(1.925659%,2.432251%,2.532959%);fill-opacity:1;" d="M 116.136719 30.082031 C 90.902344 40.898438 86.5625 42.871094 86.414062 43.015625 C 86.289062 43.136719 86.46875 43.082031 90.457031 56.195312 C 116.097656 30.089844 90.507812 56.144531 116.136719 30.082031 "/>
<path style="fill:none;stroke-width:0.299;stroke-linecap:round;stroke-linejoin:round;stroke:rgb(1.925659%,2.432251%,2.532959%);stroke-opacity:1;stroke-miterlimit:10;" d="M -0.00189695 0.00156195 C -25.328852 -10.854528 -29.684618 -12.834421 -29.8336 -12.979483 C -29.959059 -13.101021 -29.778712 -13.046133 -25.775799 -26.207524 C -0.0411028 -0.00627921 -25.724831 -26.156557 -0.00189695 0.00156195 Z M -0.00189695 0.00156195 " transform="matrix(0.996345,0,0,-0.996345,116.138609,30.083587)"/>
</g>
</svg>
