<?xml version="1.0" encoding="UTF-8"?>
<svg xmlns="http://www.w3.org/2000/svg" xmlns:xlink="http://www.w3.org/1999/xlink" width="138.234pt" height="122.417pt" viewBox="0 0 138.234 122.417" version="1.2">
<defs>
<clipPath id="clip1">
  <path d="M 0 0.046875 L 137.472656 0.046875 L 137.472656 121.789062 L 0 121.789062 Z M 0 0.046875 "/>
</clipPath>
<clipPath id="clip2">
  <path d="M 63 120 L 65 120 L 65 121.789062 L 63 121.789062 Z M 63 120 "/>
</clipPath>
<clipPath id="clip3">
  <path d="M 62 2 L 67 2 L 67 121.789062 L 62 121.789062 Z M 62 2 "/>
</clipPath>
<clipPath id="clip4">
  <path d="M 67 1 L 78 1 L 78 121.789062 L 67 121.789062 Z M 67 1 "/>
</clipPath>
<clipPath id="clip5">
  <path d="M 68 4 L 92 4 L 92 121.789062 L 68 121.789062 Z M 68 4 "/>
</clipPath>
<clipPath id="clip6">
  <path d="M 49 5 L 65 5 L 65 121.789062 L 49 121.789062 Z M 49 5 "/>
</clipPath>
<clipPath id="clip7">
  <path d="M 70 10 L 105 10 L 105 121.789062 L 70 121.789062 Z M 70 10 "/>
</clipPath>
<clipPath id="clip8">
  <path d="M 35 10 L 63 10 L 63 121.789062 L 35 121.789062 Z M 35 10 "/>
</clipPath>
<clipPath id="clip9">
  <path d="M 77 52 L 137.472656 52 L 137.472656 117 L 77 117 Z M 77 52 "/>
</clipPath>
</defs>
<g id="surface1">
<g clip-path="url(#clip1)" clip-rule="nonzero">
<path style="fill:none;stroke-width:0.5;stroke-linecap:butt;stroke-linejoin:round;stroke:rgb(1.925659%,2.432251%,2.532959%);stroke-opacity:1;stroke-miterlimit:10;" d="M -0.00122708 0.0016856 C -1.827699 0.331629 -3.418496 0.991515 -5.747739 2.393774 C -6.839694 3.049733 -8.104476 3.678196 -8.552256 3.784249 C -9.188575 3.937437 -10.414079 3.921726 -14.090589 3.717475 C -22.95585 3.22256 -29.464374 2.947607 -32.359233 2.947607 C -35.584035 2.94368 -35.540828 2.931896 -36.067166 4.188823 C -36.463884 5.135445 -37.261247 8.643056 -37.650108 11.149054 C -38.26286 15.07695 -38.435688 17.33549 -38.435688 21.467636 C -38.435688 25.725475 -38.270716 27.257355 -37.634397 28.965989 C -37.453714 29.460904 -37.328021 29.881189 -37.359444 29.896901 C -37.394795 29.912612 -38.63601 30.336825 -40.124683 30.83174 C -43.050965 31.813714 -47.053491 33.357377 -48.416471 34.029047 C -48.879963 34.260793 -49.909071 34.885328 -50.698578 35.411666 C -51.488085 35.941932 -53.051388 36.896411 -54.16691 37.53273 C -59.701316 40.68683 -62.486194 43.294953 -63.366042 46.142678 C -63.876669 47.792394 -64.131982 50.73046 -63.974866 53.08327 C -63.833462 55.153271 -63.833462 55.400728 -63.91202 57.839951 C -63.947371 58.955474 -63.853101 59.544658 -63.385682 61.186519 L -62.816137 63.177962 L -63.354259 65.428646 C -63.652779 66.665933 -63.89238 67.973923 -63.888453 68.339217 C -63.884525 69.41546 -63.362114 70.311021 -62.179818 71.277283 C -61.586706 71.760414 -60.730424 72.467435 -60.274788 72.852369 L -59.44993 73.547607 L -59.591334 75.334799 C -59.67382 76.320701 -59.740595 77.707248 -59.744522 78.422126 C -59.74845 79.643701 -59.717027 79.75761 -59.241752 80.256453 C -58.962871 80.551045 -58.039816 81.273778 -57.187462 81.870818 C -55.506323 83.045259 -54.771806 83.795487 -54.740383 84.36896 C -54.728599 84.569282 -54.70896 85.877272 -54.697176 87.271675 C -54.677537 89.538071 -54.630402 89.903365 -54.284747 90.653593 C -54.072641 91.117085 -53.730914 91.678774 -53.522735 91.898736 C -53.078883 92.377939 -51.641273 93.120312 -50.360779 93.532741 C -49.088141 93.941242 -48.542164 94.239762 -48.333985 94.628624 C -48.235788 94.809307 -48.004042 95.704867 -47.819431 96.612211 C -47.24203 99.43244 -46.86888 100.34764 -45.894762 101.313902 C -45.168101 102.028779 -44.830302 102.225174 -43.765842 102.535478 C -39.445157 103.792405 -39.590489 103.733486 -38.738136 104.574056 C -38.290355 105.01398 -37.524416 106.035233 -37.033429 106.840452 C -35.886483 108.72977 -34.825951 109.900283 -33.82041 110.395197 C -33.066254 110.76442 -32.834508 110.787987 -29.707903 110.787987 C -27.076213 110.787987 -26.333841 110.835122 -26.098167 111.031517 C -25.937123 111.165065 -25.379362 112.001707 -24.856952 112.893339 C -23.19938 115.705713 -21.89139 116.766244 -19.597499 117.162962 C -17.739605 117.481122 -16.549452 117.16689 -14.389109 115.796054 C -13.556396 115.265788 -13.497477 115.254005 -13.022202 115.501462 C -12.751177 115.642866 -11.96167 116.416662 -11.27036 117.22188 C -9.879885 118.844101 -8.807569 119.708238 -7.727398 120.093172 C -6.258365 120.611654 -3.540261 120.293495 -1.76878 119.394007 C -1.281721 119.146549 -0.617907 118.946227 -0.291891 118.946227 C 0.0537635 118.950155 1.298906 119.374367 2.67367 119.963552 C 5.651015 121.240118 7.04149 121.597556 8.514451 121.479719 C 9.849936 121.36581 10.698361 121.047651 12.481626 119.983191 C 14.803012 118.6045 15.584664 118.588788 18.907663 119.849643 C 20.671289 120.517385 20.840188 120.548808 22.207096 120.478106 C 24.583473 120.360269 26.134992 119.421502 27.623664 117.214025 C 28.515297 115.894252 29.112337 115.328635 29.795791 115.155807 C 30.031464 115.096889 31.154843 115.144023 32.29786 115.26186 C 35.17308 115.552525 36.371088 115.517174 37.455187 115.1126 C 38.826023 114.598046 39.474126 113.961727 40.401109 112.217741 C 41.508776 110.128101 41.775873 109.963129 44.890694 109.440719 C 49.674871 108.631572 50.770754 107.991325 51.39529 105.638516 C 52.550091 101.306047 52.463677 101.439595 54.553318 100.822915 C 57.793832 99.856653 59.510322 98.666501 60.472657 96.706481 C 60.998995 95.638093 61.02649 95.480977 61.12076 93.037826 C 61.17575 91.635567 61.305371 90.331506 61.411424 90.139039 C 61.541045 89.903365 62.138085 89.616629 63.265391 89.243478 C 66.207385 88.273288 68.359872 86.674635 69.216153 84.820668 C 69.628582 83.932963 69.652149 83.709073 69.742491 79.997212 C 69.852472 75.582257 69.785698 75.833642 71.427558 73.826487 C 73.737161 71.006258 74.063176 69.34083 72.888736 66.383125 C 72.036382 64.242422 71.938185 63.091548 72.472379 61.540029 C 72.845529 60.463786 72.876952 60.122059 72.869096 56.991526 C 72.865168 54.143802 72.802322 53.303232 72.472379 51.665299 C 72.260272 50.596912 71.981392 48.852926 71.855699 47.796322 C 71.678944 46.264442 71.521828 45.647763 71.089759 44.767914 C 70.186343 42.929659 68.281314 40.23905 66.741579 38.624685 C 65.476796 37.293128 65.087934 36.998536 63.75245 36.358289 C 60.853663 34.97567 56.175539 33.274891 51.560261 31.935479 C 47.655933 30.800317 45.617355 30.054016 43.6102 29.024908 C 41.764089 28.078285 40.267561 26.703521 39.984752 25.69798 C 39.78443 24.990959 39.584107 21.801507 39.301298 14.7038 C 38.971355 6.482714 37.993309 3.081156 35.77012 2.444837 C 34.960974 2.213091 27.399774 2.747285 16.574493 3.796033 L 13.22007 4.122048 L 12.599463 3.509297 C 12.257736 3.171498 11.421094 2.531251 10.741568 2.08347 C 7.717088 0.0920272 3.745986 -0.67784 -0.00122708 0.0016856 Z M -0.00122708 0.0016856 " transform="matrix(0.994489,0,0,-0.994489,64.005127,121.224333)"/>
</g>
<g clip-path="url(#clip2)" clip-rule="nonzero">
<path style="fill:none;stroke-width:0.5;stroke-linecap:round;stroke-linejoin:round;stroke:rgb(1.925659%,2.432251%,2.532959%);stroke-opacity:1;stroke-miterlimit:10;" d="M -0.00122708 0.0016856 L -0.00122708 0.0016856 " transform="matrix(0.994489,0,0,-0.994489,64.005127,121.224333)"/>
</g>
<g clip-path="url(#clip3)" clip-rule="nonzero">
<path style="fill:none;stroke-width:0.5;stroke-linecap:round;stroke-linejoin:round;stroke:rgb(1.925659%,2.432251%,2.532959%);stroke-opacity:1;stroke-miterlimit:10;" d="M -0.00142811 -0.000616047 L -0.0249955 1.617677 C -0.0367792 2.155799 -0.441352 9.669863 -0.853782 18.323018 C -1.713991 36.27743 -2.33067 57.751236 -2.711676 82.77586 C -3.029836 103.927579 -3.324428 116.528269 -3.399058 117.816619 L -3.493327 119.505614 " transform="matrix(0.994489,0,0,-0.994489,65.993608,121.460325)"/>
</g>
<g clip-path="url(#clip4)" clip-rule="nonzero">
<path style="fill:none;stroke-width:0.5;stroke-linecap:round;stroke-linejoin:round;stroke:rgb(1.925659%,2.432251%,2.532959%);stroke-opacity:1;stroke-miterlimit:10;" d="M 0.00146969 -0.000616047 C 0.0800276 0.074014 0.186081 0.938151 0.186081 1.193464 C 0.190009 1.495912 0.264639 2.658569 0.347125 3.774092 C 0.594582 6.95176 0.853823 14.218367 1.030578 22.891161 C 1.191622 30.82551 1.278036 32.420236 2.55853 51.054174 C 2.93168 56.498237 3.575855 66.015529 3.992212 72.201965 C 5.170581 89.747875 6.788874 103.299116 9.275232 119.996601 " transform="matrix(0.994489,0,0,-0.994489,67.572757,121.460325)"/>
</g>
<g clip-path="url(#clip5)" clip-rule="nonzero">
<path style="fill:none;stroke-width:0.5;stroke-linecap:round;stroke-linejoin:round;stroke:rgb(1.925659%,2.432251%,2.532959%);stroke-opacity:1;stroke-miterlimit:10;" d="M 0.000274831 0.000395056 C 0.129895 0.114304 1.618568 6.155408 2.423787 10.53894 C 3.519669 16.513269 3.849613 18.685395 5.570031 31.250734 C 9.250469 58.164676 11.709332 74.783603 13.276563 83.350344 C 15.103034 93.362551 18.669564 105.751134 21.776529 114.310019 L 22.762431 117.028123 " transform="matrix(0.994489,0,0,-0.994489,69.030977,121.277737)"/>
</g>
<g clip-path="url(#clip6)" clip-rule="nonzero">
<path style="fill:none;stroke-width:0.5;stroke-linecap:round;stroke-linejoin:round;stroke:rgb(1.925659%,2.432251%,2.532959%);stroke-opacity:1;stroke-miterlimit:10;" d="M -0.000517623 -0.00100755 C 0.0819682 -0.00886334 0.0976798 0.855274 0.0348334 1.248063 C -0.0319408 1.644781 -0.683971 6.118654 -1.418488 11.189568 C -2.616496 19.457788 -4.034467 31.135423 -8.520124 69.636657 C -10.177696 83.851712 -12.051302 98.357432 -14.698704 115.985828 " transform="matrix(0.994489,0,0,-0.994489,63.949734,121.178686)"/>
</g>
<g clip-path="url(#clip7)" clip-rule="nonzero">
<path style="fill:none;stroke-width:0.5;stroke-linecap:round;stroke-linejoin:round;stroke:rgb(1.925659%,2.432251%,2.532959%);stroke-opacity:1;stroke-miterlimit:10;" d="M 0.0014653 -0.00148274 C 0.543515 0.619125 2.566381 5.988558 3.858659 11.000553 C 4.26716 12.583495 6.007218 20.84386 7.727636 29.355611 C 10.979934 45.471767 11.388435 47.215753 16.211891 65.602233 C 18.627547 74.809221 19.703791 78.654631 20.587567 81.231331 C 22.457246 86.687178 25.776318 94.381926 30.855087 104.614094 L 34.06025 111.071555 " transform="matrix(0.994489,0,0,-0.994489,70.736824,120.908682)"/>
</g>
<path style="fill:none;stroke-width:0.5;stroke-linecap:round;stroke-linejoin:round;stroke:rgb(1.925659%,2.432251%,2.532959%);stroke-opacity:1;stroke-miterlimit:10;" d="M 0.000516294 0.000857426 C 0.200839 0.12655 0.837158 1.705564 1.398847 2.997842 C 1.960536 4.29012 2.604711 5.947692 3.146761 7.530634 C 3.747729 9.298187 4.545092 11.552799 4.914314 12.538701 C 5.809874 14.922934 8.237314 22.65696 11.446405 33.329053 C 16.792271 51.122421 24.793395 73.735318 28.359924 81.119762 C 31.089812 86.77986 36.105735 94.034683 41.530159 101.140247 L 43.285928 103.434138 " transform="matrix(0.994489,0,0,-0.994489,72.425268,120.317259)"/>
<path style="fill:none;stroke-width:0.5;stroke-linecap:round;stroke-linejoin:round;stroke:rgb(1.925659%,2.432251%,2.532959%);stroke-opacity:1;stroke-miterlimit:10;" d="M 0.000175388 0.00124845 C -0.0940941 0.205499 -0.824683 1.623469 -1.005366 1.937701 C -3.165709 5.669202 -5.911308 14.192736 -9.195029 27.351187 C -11.09613 34.971305 -10.970438 34.558876 -16.049207 49.830535 C -20.770538 64.029878 -24.050331 74.128498 -25.362248 78.508102 C -26.579896 82.58133 -28.202117 86.037878 -31.320866 91.210917 C -32.80561 93.673708 -36.733506 99.844432 -37.837245 101.215268 L -38.807435 102.417204 " transform="matrix(0.994489,0,0,-0.994489,61.511544,120.430929)"/>
<g clip-path="url(#clip8)" clip-rule="nonzero">
<path style="fill:none;stroke-width:0.5;stroke-linecap:round;stroke-linejoin:round;stroke:rgb(1.925659%,2.432251%,2.532959%);stroke-opacity:1;stroke-miterlimit:10;" d="M -0.00159699 0.000807804 C -0.0330202 0.197203 -1.007138 2.785686 -1.07784 3.131341 C -1.219245 3.818723 -1.502053 4.729994 -1.737727 5.755175 C -3.815584 14.85611 -10.312324 45.866847 -13.246462 60.678942 C -14.542667 67.226745 -15.630694 72.124831 -16.549822 75.569595 C -19.57823 86.932998 -23.219389 100.468527 -25.839296 107.731206 L -26.80163 110.402175 " transform="matrix(0.994489,0,0,-0.994489,62.427369,120.856272)"/>
</g>
<path style="fill:none;stroke-width:0.5;stroke-linecap:round;stroke-linejoin:round;stroke:rgb(1.925659%,2.432251%,2.532959%);stroke-opacity:1;stroke-miterlimit:10;" d="M -0.00158117 0.00100184 C 0.222309 0.142406 1.22785 2.330244 2.119483 4.097797 C 2.960052 5.767153 4.664759 9.604707 5.909902 12.629187 C 11.931366 27.264527 18.06674 41.888083 19.720384 45.541026 C 21.923933 50.415545 26.869154 60.353121 29.351584 64.901624 C 34.446065 74.222521 37.085611 77.985445 41.94049 82.844252 C 44.509334 85.417024 46.520417 87.157082 48.975352 88.842149 L 51.139622 90.33475 " transform="matrix(0.994489,0,0,-0.994489,73.982041,119.583028)"/>
<path style="fill:none;stroke-width:0.5;stroke-linecap:round;stroke-linejoin:round;stroke:rgb(1.925659%,2.432251%,2.532959%);stroke-opacity:1;stroke-miterlimit:10;" d="M 0.00194799 0.000827922 L -2.327294 -1.456421 C -3.391754 -2.139875 -8.022743 -5.690693 -10.073105 -7.399328 C -11.282897 -8.408797 -13.415744 -10.341322 -14.810147 -11.696446 C -17.331856 -14.147453 -20.588082 -17.042312 -25.16408 -20.903434 C -26.483853 -22.018956 -28.353532 -23.590114 -28.333892 -23.609754 " transform="matrix(0.994489,0,0,-0.994489,105.279313,93.715667)"/>
<path style="fill:none;stroke-width:0.5;stroke-linecap:round;stroke-linejoin:round;stroke:rgb(1.925659%,2.432251%,2.532959%);stroke-opacity:1;stroke-miterlimit:10;" d="M 0.00179178 -0.000102276 C 0.0253592 0.0234651 -1.184433 1.315743 -2.001435 2.10525 C -5.041626 5.051172 -27.308868 25.92401 -27.426705 25.971145 " transform="matrix(0.994489,0,0,-0.994489,54.146656,117.328023)"/>
<path style="fill:none;stroke-width:0.5;stroke-linecap:round;stroke-linejoin:round;stroke:rgb(1.925659%,2.432251%,2.532959%);stroke-opacity:1;stroke-miterlimit:10;" d="M -0.000519056 -0.00168116 C -0.157635 0.265416 -1.909476 2.559307 -2.160862 2.948169 C -4.207295 6.133692 -8.221605 13.345309 -11.513182 19.759563 C -13.433923 23.494992 -15.11899 27.191142 -20.602333 39.717201 C -25.496491 50.892065 -29.110155 58.468976 -31.133021 61.811615 C -36.836326 71.222854 -43.356633 77.900277 -49.366314 79.561776 L -51.255632 80.080259 " transform="matrix(0.994489,0,0,-0.994489,58.754422,119.017859)"/>
<path style="fill:none;stroke-width:0.5;stroke-linecap:round;stroke-linejoin:round;stroke:rgb(1.925659%,2.432251%,2.532959%);stroke-opacity:1;stroke-miterlimit:10;" d="M 0.000881831 0.00060319 L 1.524905 -0.293989 C 4.722213 -0.906741 9.101816 -3.986211 13.917417 -8.845018 C 16.937969 -11.893065 17.189354 -12.215153 20.44558 -17.29785 C 25.775734 -25.617133 27.928221 -29.387913 32.755605 -38.865926 C 39.786539 -52.664624 47.854437 -66.282639 51.758765 -72.072357 " transform="matrix(0.994489,0,0,-0.994489,4.729592,45.996694)"/>
<path style="fill:none;stroke-width:0.5;stroke-linecap:round;stroke-linejoin:round;stroke:rgb(1.925659%,2.432251%,2.532959%);stroke-opacity:1;stroke-miterlimit:10;" d="M 0.000911423 0.00189375 C 0.495826 1.10956 1.167496 1.985481 1.835239 2.857474 C 2.011994 3.085292 2.188749 3.320966 2.357649 3.552712 C 5.283931 7.55131 8.34769 12.979662 13.776042 23.769591 C 17.986746 32.139937 18.945153 33.876067 22.287792 39.241573 C 25.818971 44.913454 34.680304 57.973708 37.39448 61.51667 C 39.397706 64.124793 43.188126 67.628476 47.56773 70.920053 C 49.928395 72.691534 57.438532 77.723168 57.898096 77.876356 " transform="matrix(0.994489,0,0,-0.994489,75.756906,118.38079)"/>
<path style="fill:none;stroke-width:0.5;stroke-linecap:round;stroke-linejoin:round;stroke:rgb(1.925659%,2.432251%,2.532959%);stroke-opacity:1;stroke-miterlimit:10;" d="M -0.00053242 0.000352755 L 2.972885 -0.942342 C 7.281786 -2.305322 11.123269 -4.304621 14.619096 -6.77134 C 20.122078 -10.659956 24.643086 -16.779618 43.143475 -45.366844 C 46.894616 -51.168346 50.641828 -56.785237 51.462759 -57.849697 C 52.287617 -58.910229 53.242095 -60.261425 53.58775 -60.850609 C 53.929477 -61.439794 54.722912 -62.531749 54.856461 -62.531749 " transform="matrix(0.994489,0,0,-0.994489,0.766154,55.203476)"/>
<path style="fill:none;stroke-width:0.5;stroke-linecap:round;stroke-linejoin:round;stroke:rgb(1.925659%,2.432251%,2.532959%);stroke-opacity:1;stroke-miterlimit:10;" d="M 0.00180829 -0.000422492 L -3.175859 5.062635 C -4.279598 7.258329 -7.052693 12.215333 -8.085729 14.929509 C -10.202865 20.507122 -14.774936 33.563447 -16.436436 38.779693 C -18.600706 45.582808 -23.333821 58.301335 -26.354373 65.42261 C -27.579876 68.317469 -29.873767 72.905252 -30.796823 74.303583 C -32.894319 77.496962 -38.000584 83.879793 -44.002409 89.555602 L -46.924763 92.316913 " transform="matrix(0.994489,0,0,-0.994489,60.576327,120.019111)"/>
<g clip-path="url(#clip9)" clip-rule="nonzero">
<path style="fill:none;stroke-width:0.5;stroke-linecap:round;stroke-linejoin:round;stroke:rgb(1.925659%,2.432251%,2.532959%);stroke-opacity:1;stroke-miterlimit:10;" d="M -0.000687214 -0.000457665 L -4.450993 -6.08084 C -3.700765 -5.157785 3.051288 4.194535 5.113433 7.274005 C 14.968524 22.01147 22.549363 32.275062 28.358721 38.763946 C 33.610317 44.628295 42.962637 50.869721 52.354236 56.518035 L 54.84845 58.014564 " transform="matrix(0.994489,0,0,-0.994489,82.606152,110.151889)"/>
</g>
<path style="fill:none;stroke-width:0.5;stroke-linecap:round;stroke-linejoin:round;stroke:rgb(1.925659%,2.432251%,2.532959%);stroke-opacity:1;stroke-miterlimit:10;" d="M 0.000328209 -0.000727023 C 1.272966 1.0873 3.802531 4.339598 9.94576 12.482126 C 16.862785 21.649835 16.921703 21.720537 20.217208 25.008186 C 26.128691 30.896101 34.129815 37.699217 37.005035 39.278231 C 39.393195 40.590148 44.369839 41.870642 49.927812 42.597303 C 51.412557 42.793698 53.01121 43.005804 53.470774 43.068651 L 54.986942 43.268973 " transform="matrix(0.994489,0,0,-0.994489,81.277017,113.550058)"/>
<path style="fill:none;stroke-width:0.5;stroke-linecap:round;stroke-linejoin:round;stroke:rgb(1.925659%,2.432251%,2.532959%);stroke-opacity:1;stroke-miterlimit:10;" d="M 0.00107289 0.000194287 C 0.617753 0.546172 2.463864 3.016818 4.105724 4.576193 C 5.570829 5.974524 8.418554 8.759402 10.429636 10.770485 C 14.239695 14.576616 16.47074 16.465934 19.758389 18.685195 C 23.285639 21.0655 26.384749 22.648442 29.656686 23.740397 C 31.530293 24.364932 40.042043 26.686318 42.504833 27.240152 C 43.498591 27.464042 45.509674 28.257477 45.643222 28.371386 " transform="matrix(0.994489,0,0,-0.994489,86.799714,108.800974)"/>
<path style="fill:none;stroke-width:0.5;stroke-linecap:round;stroke-linejoin:round;stroke:rgb(1.925659%,2.432251%,2.532959%);stroke-opacity:1;stroke-miterlimit:10;" d="M 0.000982247 -0.000270673 L 2.65624 -0.550176 C 8.842676 -1.838526 15.068391 -5.063328 19.565831 -9.2976 C 22.248584 -11.823237 28.851377 -18.889522 34.102974 -24.852067 C 36.341874 -27.397344 37.889465 -29.412355 41.385293 -34.341864 C 43.6674 -37.562738 53.424293 -50.799747 54.378772 -51.993828 " transform="matrix(0.994489,0,0,-0.994489,0.514648,65.722387)"/>
<path style="fill:none;stroke-width:0.5;stroke-linecap:round;stroke-linejoin:round;stroke:rgb(1.925659%,2.432251%,2.532959%);stroke-opacity:1;stroke-miterlimit:10;" d="M 0.000674434 0.0000152875 L 2.003901 0.208194 C 3.025154 0.314247 4.030696 0.21605 5.232632 0.0157269 C 8.492785 -0.530251 10.397815 -1.351181 14.824553 -4.104636 C 16.297514 -5.019836 18.697459 -6.516364 20.162564 -7.423708 C 24.616798 -10.188946 27.782682 -12.742079 30.559704 -15.813693 C 31.360995 -16.69747 33.360294 -18.724264 35.002154 -20.31899 C 36.644014 -21.913715 50.340587 -39.314294 51.302922 -40.398393 " transform="matrix(0.994489,0,0,-0.994489,0.807923,74.644546)"/>
<path style="fill:none;stroke-width:0.5;stroke-linecap:round;stroke-linejoin:round;stroke:rgb(1.925659%,2.432251%,2.532959%);stroke-opacity:1;stroke-miterlimit:10;" d="M 0.00121967 -0.000564624 C 5.790938 -1.143582 10.292307 -2.259105 14.279121 -4.242692 C 17.582481 -5.884553 20.744437 -8.174516 22.429505 -10.14632 C 22.865501 -10.656946 23.87497 -11.540723 24.672333 -12.114195 C 28.63558 -14.954064 45.729783 -33.120582 46.303256 -33.807964 " transform="matrix(0.994489,0,0,-0.994489,4.510506,80.046313)"/>
</g>
</svg>
