<?xml version="1.0" encoding="UTF-8"?>
<svg xmlns="http://www.w3.org/2000/svg" xmlns:xlink="http://www.w3.org/1999/xlink" width="116.998pt" height="134.382pt" viewBox="0 0 116.998 134.382" version="1.2">
<defs>
<clipPath id="clip1">
  <path d="M 0.265625 0 L 116.730469 0 L 116.730469 133.765625 L 0.265625 133.765625 Z M 0.265625 0 "/>
</clipPath>
</defs>
<g id="surface1">
<g clip-path="url(#clip1)" clip-rule="nonzero">
<path style="fill:none;stroke-width:0.302;stroke-linecap:round;stroke-linejoin:round;stroke:rgb(1.925659%,2.432251%,2.532959%);stroke-opacity:1;stroke-miterlimit:10;" d="M -0.000894231 0.00186001 C -2.543785 2.776279 -7.033086 11.856911 -9.371918 18.959739 C -10.254866 21.643901 -10.976921 24.080838 -10.976921 24.379078 C -10.976921 25.187467 -11.169208 25.089361 -13.621842 23.044846 C -16.211823 20.882604 -20.81885 17.825641 -23.561876 16.448242 C -25.853617 15.294523 -27.992314 15.196417 -28.898807 16.201016 C -30.217343 17.6569 -30.327221 25.599509 -29.118563 32.690564 C -28.918429 33.875677 -28.804626 34.895972 -28.86349 34.954836 C -28.922353 35.013699 -30.539129 34.664444 -32.45807 34.177841 C -39.188097 32.470808 -51.33354 31.344559 -55.198891 32.06269 C -57.34936 32.466884 -57.431769 33.169318 -55.716887 36.57946 C -53.170072 41.653469 -48.107836 48.583632 -43.441945 53.38687 C -40.961842 55.945457 -40.824494 56.161289 -41.550474 56.443833 C -46.848163 58.500121 -51.070618 60.572106 -54.366957 62.730424 C -56.694016 64.253019 -57.620131 65.62257 -57.204164 66.929333 C -56.486033 69.197529 -49.057496 73.498467 -41.165901 76.210099 C -40.914751 76.296432 -41.6682 77.332425 -42.939646 78.643112 C -49.273327 85.173005 -57.380754 97.232115 -56.945166 99.480689 C -56.75288 100.493137 -54.598486 100.77568 -48.676847 100.567697 C -42.672799 100.355789 -38.360088 99.767157 -32.544402 98.35444 C -30.554826 97.871762 -28.883111 97.514658 -28.839944 97.557825 C -28.792854 97.604915 -28.996913 99.42575 -29.28338 101.607614 C -30.052526 107.407602 -29.989739 113.517604 -29.13426 115.401226 C -28.176752 117.508529 -27.132911 117.689043 -24.123039 116.28025 C -21.32115 114.969563 -17.640237 112.567944 -13.994642 109.667949 C -12.538759 108.514231 -11.28301 107.568495 -11.200602 107.568495 C -11.114269 107.568495 -10.851346 108.423974 -10.604121 109.471739 C -9.340524 114.879306 -4.443105 125.976984 -1.229173 130.709586 C 0.422921 133.138675 0.70154 133.393748 1.403974 133.107281 C 3.668246 132.18509 10.064715 119.046821 12.254427 110.829517 C 12.705711 109.134256 13.121678 107.682297 13.184465 107.607737 C 13.239404 107.529253 13.906521 108.023704 14.65997 108.702593 C 16.696637 110.539125 20.330459 113.050622 23.987827 115.138304 C 28.363326 117.638028 30.439235 117.606635 31.420289 115.036274 C 31.973603 113.580391 31.875498 104.629258 31.267244 100.87771 C 30.976853 99.088268 30.804187 97.565673 30.878747 97.491113 C 30.953307 97.412629 31.88727 97.593142 32.946808 97.891383 C 38.381845 99.413978 44.15044 100.269457 50.825528 100.536303 C 56.566653 100.771756 58.75244 100.44997 58.913333 99.343342 C 59.25474 96.965268 52.11267 86.216846 45.425809 79.05123 L 42.663162 76.092373 L 44.024865 75.648937 C 46.854223 74.742443 54.039459 71.289135 56.464624 69.676283 C 61.326725 66.44273 60.243642 64.355048 51.402387 59.916762 C 48.498469 58.460879 46.913086 57.762369 43.510793 56.439908 C 42.769116 56.149516 42.863297 55.9847 45.088327 53.669413 C 51.492644 46.998249 59.352845 35.260924 58.917257 33.016274 C 58.744592 32.113705 57.547707 31.8861 52.76409 31.846858 C 47.540961 31.799768 40.956129 32.608156 35.25817 33.993403 C 32.876172 34.574187 30.870899 34.990154 30.796339 34.919518 C 30.725703 34.848882 30.921914 32.973108 31.231926 30.748078 C 31.541939 28.526973 31.797013 24.716561 31.797013 22.283548 C 31.793089 18.508454 31.687135 17.680445 31.074958 16.675846 C 30.470629 15.68302 30.144919 15.498582 28.9912 15.498582 C 26.581733 15.498582 20.149946 19.171646 15.197587 23.378404 C 14.138049 24.273125 13.227632 24.94809 13.172693 24.873529 C 13.121678 24.802894 12.705711 23.437267 12.254427 21.840112 C 10.873103 16.962314 9.001253 12.288575 6.352409 7.100763 C 4.076364 2.642856 1.749305 -0.814377 1.019401 -0.814377 C 0.870281 -0.814377 0.415072 -0.4455 -0.000894231 0.00186001 Z M -0.000894231 0.00186001 " transform="matrix(0.995422,0,0,-0.995422,57.50089,132.775289)"/>
</g>
<path style="fill:none;stroke-width:0.302;stroke-linecap:round;stroke-linejoin:round;stroke:rgb(1.925659%,2.432251%,2.532959%);stroke-opacity:1;stroke-miterlimit:10;" d="M -0.000894231 0.00186001 L -0.000894231 0.00186001 " transform="matrix(0.995422,0,0,-0.995422,57.50089,132.775289)"/>
<path style=" stroke:none;fill-rule:nonzero;fill:rgb(1.925659%,2.432251%,2.532959%);fill-opacity:1;" d="M 58.257812 73.902344 C 60.207031 73.796875 60.476562 73.851562 62.144531 74.710938 L 63.933594 75.628906 L 63.839844 74.367188 C 63.640625 71.636719 65.175781 68.773438 67.59375 67.367188 C 68.375 66.910156 69.015625 66.460938 69.019531 66.367188 C 69.023438 66.273438 68.675781 66.046875 68.246094 65.867188 C 67.078125 65.382812 65.285156 63.421875 64.582031 61.855469 C 64.167969 60.941406 63.957031 59.921875 63.949219 58.8125 L 63.933594 57.148438 L 62.304688 57.988281 C 60.90625 58.710938 60.378906 58.828125 58.566406 58.828125 C 56.746094 58.828125 56.21875 58.710938 54.820312 57.988281 L 53.191406 57.148438 L 53.289062 58.324219 C 53.503906 60.976562 51.230469 64.894531 48.929688 65.847656 C 47.894531 66.277344 47.882812 66.519531 48.882812 66.933594 C 50.050781 67.417969 51.84375 69.382812 52.546875 70.945312 C 52.960938 71.871094 53.167969 72.878906 53.175781 74.007812 L 53.191406 75.691406 L 54.675781 74.855469 C 55.875 74.179688 56.5625 73.996094 58.257812 73.902344 "/>
<path style="fill:none;stroke-width:0.201;stroke-linecap:round;stroke-linejoin:round;stroke:rgb(1.925659%,2.432251%,2.532959%);stroke-opacity:1;stroke-miterlimit:10;" d="M 0.00070332 0.00109192 C 1.958886 0.107046 2.229657 0.0521067 3.905296 -0.81122 L 5.702587 -1.733411 L 5.608405 -0.46589 C 5.40827 2.277136 6.950487 5.153585 9.379575 6.566302 C 10.164418 7.025435 10.807989 7.47672 10.811913 7.570901 C 10.815838 7.665082 10.466583 7.892687 10.034919 8.0732 C 8.861579 8.559803 7.060365 10.529759 6.354006 12.103368 C 5.938039 13.021635 5.726132 14.045854 5.718283 15.160331 L 5.702587 16.832047 L 4.066189 15.98834 C 2.661321 15.262361 2.131552 15.144634 0.310716 15.144634 C -1.517968 15.144634 -2.047736 15.262361 -3.452605 15.98834 L -5.089002 16.832047 L -4.990897 15.650858 C -4.775065 12.986317 -7.058958 9.05033 -9.37032 8.092822 C -10.410237 7.661158 -10.42201 7.417857 -9.417411 7.00189 C -8.244071 6.515287 -6.442856 4.541408 -5.736498 2.971722 C -5.320531 2.041683 -5.112548 1.029236 -5.104699 -0.104862 L -5.089002 -1.796198 L -3.597801 -0.956416 C -2.393067 -0.277527 -1.702406 -0.0930892 0.00070332 0.00109192 Z M 0.00070332 0.00109192 " transform="matrix(0.995422,0,0,-0.995422,58.257112,73.903431)"/>
<path style="fill:none;stroke-width:0.201;stroke-linecap:round;stroke-linejoin:round;stroke:rgb(1.925659%,2.432251%,2.532959%);stroke-opacity:1;stroke-miterlimit:10;" d="M 0.00070332 0.00109192 L 0.00070332 0.00109192 " transform="matrix(0.995422,0,0,-0.995422,58.257112,73.903431)"/>
<path style=" stroke:none;fill-rule:nonzero;fill:rgb(1.925659%,2.432251%,2.532959%);fill-opacity:1;" d="M 59.6875 117.980469 C 62.328125 114.46875 66.347656 104.238281 67.167969 98.949219 C 67.800781 94.871094 67.425781 87.792969 66.417969 84.792969 C 64.660156 79.558594 60.792969 77.132812 56.238281 78.394531 C 53.6875 79.105469 51.554688 81.652344 50.339844 85.445312 C 49.546875 87.910156 49.253906 95.378906 49.808594 98.863281 C 50.390625 102.511719 52.058594 107.703125 53.953125 111.769531 C 55.65625 115.421875 57.933594 119.152344 58.457031 119.152344 C 58.648438 119.152344 59.203125 118.625 59.6875 117.980469 "/>
<path style="fill:none;stroke-width:0.302;stroke-linecap:round;stroke-linejoin:round;stroke:rgb(1.925659%,2.432251%,2.532959%);stroke-opacity:1;stroke-miterlimit:10;" d="M -0.00053429 0.000559107 C 2.652234 3.528428 6.690251 13.805945 7.514336 19.119331 C 8.150059 23.21621 7.773334 30.326886 6.760887 33.340683 C 4.99499 38.59913 1.110018 41.036067 -3.465615 39.768546 C -6.028127 39.054339 -8.170748 36.495751 -9.391179 32.685339 C -10.187794 30.20916 -10.48211 22.706062 -9.924872 19.205663 C -9.340164 15.540447 -7.664525 10.325167 -5.761281 6.24006 C -4.050323 2.570919 -1.762506 -1.176705 -1.236662 -1.176705 C -1.044375 -1.176705 -0.487137 -0.646936 -0.00053429 0.000559107 Z M -0.00053429 0.000559107 " transform="matrix(0.995422,0,0,-0.995422,59.688032,117.981025)"/>
<path style="fill:none;stroke-width:0.302;stroke-linecap:round;stroke-linejoin:round;stroke:rgb(1.925659%,2.432251%,2.532959%);stroke-opacity:1;stroke-miterlimit:10;" d="M -0.00053429 0.000559107 L -0.00053429 0.000559107 " transform="matrix(0.995422,0,0,-0.995422,59.688032,117.981025)"/>
<path style=" stroke:none;fill-rule:nonzero;fill:rgb(1.925659%,2.432251%,2.532959%);fill-opacity:1;" d="M 78.882812 64.476562 C 81.636719 63.769531 85.601562 61.898438 88.5 59.9375 C 93.21875 56.742188 99.746094 49.207031 102.710938 43.546875 C 104.453125 40.226562 104.375 40.148438 99.523438 40.136719 C 90.773438 40.125 81.378906 42.582031 75.40625 46.445312 C 68.867188 50.675781 66.152344 55.371094 67.648438 59.875 C 69.089844 64.214844 73.253906 65.921875 78.882812 64.476562 "/>
<path style="fill:none;stroke-width:0.302;stroke-linecap:round;stroke-linejoin:round;stroke:rgb(1.925659%,2.432251%,2.532959%);stroke-opacity:1;stroke-miterlimit:10;" d="M -0.00114581 0.00152074 C 2.765425 0.711804 6.748503 2.591502 9.66027 4.561458 C 14.40072 7.771465 20.958082 15.341274 23.936561 21.02746 C 25.68676 24.363042 25.608276 24.441527 20.734402 24.453299 C 11.944162 24.465072 2.506427 21.996741 -3.493696 18.115693 C -10.062831 13.865769 -12.79016 9.148864 -11.287186 4.624245 C -9.839151 0.264443 -5.655938 -1.450439 -0.00114581 0.00152074 Z M -0.00114581 0.00152074 " transform="matrix(0.995422,0,0,-0.995422,78.883953,64.478076)"/>
<path style="fill:none;stroke-width:0.302;stroke-linecap:round;stroke-linejoin:round;stroke:rgb(1.925659%,2.432251%,2.532959%);stroke-opacity:1;stroke-miterlimit:10;" d="M -0.00114581 0.00152074 L -0.00114581 0.00152074 " transform="matrix(0.995422,0,0,-0.995422,78.883953,64.478076)"/>
<path style=" stroke:none;fill-rule:nonzero;fill:rgb(1.925659%,2.432251%,2.532959%);fill-opacity:1;" d="M 61.570312 54.96875 C 65.335938 53.253906 67.144531 49.113281 67.414062 41.542969 C 67.613281 36.015625 67.160156 32.996094 65.28125 27.398438 C 63.320312 21.542969 59.683594 14.515625 58.613281 14.515625 C 57.644531 14.515625 53.210938 23.046875 51.496094 28.226562 C 49.820312 33.261719 49.351562 36.546875 49.566406 41.726562 C 49.820312 47.886719 50.976562 51.390625 53.542969 53.785156 C 55.492188 55.609375 59.019531 56.128906 61.570312 54.96875 "/>
<path style="fill:none;stroke-width:0.302;stroke-linecap:round;stroke-linejoin:round;stroke:rgb(1.925659%,2.432251%,2.532959%);stroke-opacity:1;stroke-miterlimit:10;" d="M 0.00123694 -0.00114195 C 3.784179 1.721588 5.601091 5.881255 5.871861 13.486382 C 6.071996 19.039145 5.616787 22.072563 3.72924 27.695962 C 1.759285 33.578359 -1.894159 40.63802 -2.969393 40.63802 C -3.942598 40.63802 -8.396581 32.067536 -10.119311 26.864028 C -11.802799 21.805716 -12.273705 18.505452 -12.057873 13.301944 C -11.802799 7.113458 -10.641232 3.593438 -8.063023 1.187895 C -6.10484 -0.644713 -2.561275 -1.166634 0.00123694 -0.00114195 Z M 0.00123694 -0.00114195 " transform="matrix(0.995422,0,0,-0.995422,61.569081,54.967613)"/>
<path style="fill:none;stroke-width:0.302;stroke-linecap:round;stroke-linejoin:round;stroke:rgb(1.925659%,2.432251%,2.532959%);stroke-opacity:1;stroke-miterlimit:10;" d="M 0.00123694 -0.00114195 L 0.00123694 -0.00114195 " transform="matrix(0.995422,0,0,-0.995422,61.569081,54.967613)"/>
<path style=" stroke:none;fill-rule:nonzero;fill:rgb(1.925659%,2.432251%,2.532959%);fill-opacity:1;" d="M 103.820312 93.058594 C 104.660156 92.21875 98.355469 82.953125 93.835938 78.382812 C 86.824219 71.289062 78.066406 67.460938 72.4375 69.023438 C 70.402344 69.589844 68.378906 71.59375 67.660156 73.753906 C 66.539062 77.128906 67.589844 80.320312 70.921875 83.652344 C 75.769531 88.503906 83.101562 91.699219 92.355469 93 C 96.035156 93.519531 103.324219 93.554688 103.820312 93.058594 "/>
<path style="fill:none;stroke-width:0.302;stroke-linecap:round;stroke-linejoin:round;stroke:rgb(1.925659%,2.432251%,2.532959%);stroke-opacity:1;stroke-miterlimit:10;" d="M -0.00176248 -0.0000544214 C 0.841944 0.843652 -5.491738 10.151888 -10.032054 14.743218 C -17.076018 21.869591 -25.874107 25.715321 -31.528899 24.145635 C -33.573415 23.576624 -35.606158 21.563503 -36.328213 19.393412 C -37.454463 16.002891 -36.398849 12.796808 -33.051494 9.449453 C -28.181545 4.575579 -20.815794 1.365572 -11.519331 0.0588088 C -7.822721 -0.463112 -0.500138 -0.49843 -0.00176248 -0.0000544214 Z M -0.00176248 -0.0000544214 " transform="matrix(0.995422,0,0,-0.995422,103.822067,93.05854)"/>
<path style="fill:none;stroke-width:0.302;stroke-linecap:round;stroke-linejoin:round;stroke:rgb(1.925659%,2.432251%,2.532959%);stroke-opacity:1;stroke-miterlimit:10;" d="M -0.00176248 -0.0000544214 L -0.00176248 -0.0000544214 " transform="matrix(0.995422,0,0,-0.995422,103.822067,93.05854)"/>
<path style=" stroke:none;fill-rule:nonzero;fill:rgb(1.925659%,2.432251%,2.532959%);fill-opacity:1;" d="M 12.707031 93.574219 C 12.011719 93.132812 12.621094 91.441406 14.664062 88.128906 C 21.050781 77.761719 29.933594 70.433594 38.554688 68.417969 C 44.332031 67.0625 48.824219 69.375 50.175781 74.394531 C 51.242188 78.347656 48.65625 82.941406 43.144531 86.871094 C 38.46875 90.210938 32.855469 92.324219 25.929688 93.367188 C 22.097656 93.941406 13.5 94.074219 12.707031 93.574219 "/>
<path style="fill:none;stroke-width:0.302;stroke-linecap:round;stroke-linejoin:round;stroke:rgb(1.925659%,2.432251%,2.532959%);stroke-opacity:1;stroke-miterlimit:10;" d="M 0.00114176 -0.00145069 C -0.697368 0.441986 -0.085191 2.14117 1.967173 5.468904 C 8.383263 15.883768 17.306926 23.245594 25.967667 25.270489 C 31.77158 26.632191 36.284426 24.309056 37.642204 19.266441 C 38.713515 15.295136 36.115685 10.68026 30.578619 6.732501 C 25.881334 3.377298 20.242239 1.254298 13.284607 0.206533 C 9.434953 -0.370327 0.797757 -0.50375 0.00114176 -0.00145069 Z M 0.00114176 -0.00145069 " transform="matrix(0.995422,0,0,-0.995422,12.705895,93.572775)"/>
<path style="fill:none;stroke-width:0.302;stroke-linecap:round;stroke-linejoin:round;stroke:rgb(1.925659%,2.432251%,2.532959%);stroke-opacity:1;stroke-miterlimit:10;" d="M 0.00114176 -0.00145069 L 0.00114176 -0.00145069 " transform="matrix(0.995422,0,0,-0.995422,12.705895,93.572775)"/>
<path style=" stroke:none;fill-rule:nonzero;fill:rgb(1.925659%,2.432251%,2.532959%);fill-opacity:1;" d="M 38.09375 65.191406 C 35.152344 64.453125 29.941406 61.835938 27.066406 59.652344 C 24.25 57.519531 20.410156 53.539062 17.851562 50.113281 C 15.515625 46.984375 12.765625 42.410156 12.460938 41.148438 C 12.246094 40.25 12.34375 40.148438 13.796875 39.75 C 15.710938 39.226562 22.246094 39.519531 26.863281 40.328125 C 41.210938 42.859375 52.199219 51.773438 50.183594 59.246094 C 48.792969 64.417969 44.136719 66.707031 38.09375 65.191406 "/>
<path style="fill:none;stroke-width:0.302;stroke-linecap:round;stroke-linejoin:round;stroke:rgb(1.925659%,2.432251%,2.532959%);stroke-opacity:1;stroke-miterlimit:10;" d="M -0.00129028 0.000189542 C -2.956224 0.741866 -8.191125 3.37109 -11.079347 5.564725 C -13.908705 7.707346 -17.766208 11.70612 -20.336568 15.147656 C -22.683248 18.290952 -25.445895 22.886207 -25.751984 24.153728 C -25.967816 25.056297 -25.86971 25.158327 -24.409902 25.558596 C -22.487038 26.084441 -15.921827 25.790125 -11.283406 24.977813 C 3.130233 22.434922 14.169047 13.479865 12.144153 5.972844 C 10.747132 0.777184 6.069469 -1.522406 -0.00129028 0.000189542 Z M -0.00129028 0.000189542 " transform="matrix(0.995422,0,0,-0.995422,38.095034,65.191595)"/>
<path style="fill:none;stroke-width:0.302;stroke-linecap:round;stroke-linejoin:round;stroke:rgb(1.925659%,2.432251%,2.532959%);stroke-opacity:1;stroke-miterlimit:10;" d="M -0.00129028 0.000189542 L -0.00129028 0.000189542 " transform="matrix(0.995422,0,0,-0.995422,38.095034,65.191595)"/>
<path style=" stroke:none;fill-rule:nonzero;fill:rgb(1.925659%,2.432251%,2.532959%);fill-opacity:1;" d="M 36.335938 111.324219 C 39.132812 109.824219 42.765625 107.320312 44.910156 105.414062 L 46.214844 104.253906 L 45.722656 100.707031 C 45.308594 97.71875 45.285156 96.523438 45.582031 93.144531 C 45.777344 90.941406 46.023438 88.789062 46.128906 88.367188 C 46.320312 87.601562 46.308594 87.605469 45.273438 88.558594 C 42.519531 91.09375 37.671875 94.007812 33.816406 95.445312 C 31.882812 96.167969 31.972656 96.003906 31.355469 99.933594 C 30.921875 102.71875 30.796875 109.976562 31.167969 111.289062 C 31.394531 112.109375 32.234375 112.683594 33.246094 112.714844 C 33.496094 112.722656 34.890625 112.097656 36.335938 111.324219 "/>
<path style="fill:none;stroke-width:0.302;stroke-linecap:round;stroke-linejoin:round;stroke:rgb(1.925659%,2.432251%,2.532959%);stroke-opacity:1;stroke-miterlimit:10;" d="M -0.000586661 -0.00107993 C 2.809151 1.505818 6.45867 4.02124 8.613063 5.936256 L 9.923751 7.101748 L 9.4293 10.664934 C 9.013333 13.666958 8.989788 14.867768 9.288028 18.262213 C 9.484239 20.47547 9.731465 22.637712 9.837418 23.061527 C 10.029705 23.830673 10.017932 23.826749 8.978015 22.86924 C 6.211444 20.322425 1.341495 17.394962 -2.531705 15.950851 C -4.474191 15.224871 -4.383934 15.389688 -5.00396 11.441929 C -5.439548 8.643964 -5.565122 1.352774 -5.192322 0.034238 C -4.964718 -0.789847 -4.121012 -1.366706 -3.10464 -1.3981 C -2.85349 -1.405949 -1.452546 -0.778074 -0.000586661 -0.00107993 Z M -0.000586661 -0.00107993 " transform="matrix(0.995422,0,0,-0.995422,36.336521,111.323144)"/>
<path style="fill:none;stroke-width:0.302;stroke-linecap:round;stroke-linejoin:round;stroke:rgb(1.925659%,2.432251%,2.532959%);stroke-opacity:1;stroke-miterlimit:10;" d="M -0.000586661 -0.00107993 L -0.000586661 -0.00107993 " transform="matrix(0.995422,0,0,-0.995422,36.336521,111.323144)"/>
<path style=" stroke:none;fill-rule:nonzero;fill:rgb(1.925659%,2.432251%,2.532959%);fill-opacity:1;" d="M 84.390625 112.355469 C 85.195312 111.800781 85.40625 110.632812 85.402344 106.703125 C 85.398438 104.457031 85.203125 101.242188 84.960938 99.550781 C 84.722656 97.867188 84.523438 96.394531 84.515625 96.28125 C 84.511719 96.167969 83.585938 95.71875 82.460938 95.277344 C 78.957031 93.90625 74.320312 91.015625 71.65625 88.535156 C 70.644531 87.59375 70.644531 87.59375 70.8125 88.359375 C 71.636719 92.050781 71.722656 98.628906 70.996094 102.597656 C 70.65625 104.453125 70.765625 104.59375 74.921875 107.636719 C 78.164062 110.011719 80.695312 111.550781 82.367188 112.160156 C 83.644531 112.628906 83.945312 112.660156 84.390625 112.355469 "/>
<path style="fill:none;stroke-width:0.302;stroke-linecap:round;stroke-linejoin:round;stroke:rgb(1.925659%,2.432251%,2.532959%);stroke-opacity:1;stroke-miterlimit:10;" d="M 0.00169619 -0.00187247 C 0.810084 0.555366 1.021992 1.728706 1.018068 5.676465 C 1.014143 7.932889 0.817933 11.162517 0.574631 12.861702 C 0.335254 14.553038 0.135119 16.032467 0.127271 16.146269 C 0.123347 16.260071 -0.806692 16.711356 -1.936866 17.154792 C -5.456886 18.532191 -10.114928 21.43611 -12.791242 23.927986 C -13.807614 24.873721 -13.807614 24.873721 -13.638872 24.104575 C -12.810863 20.396193 -12.72453 13.787816 -13.454434 9.800815 C -13.795841 7.936813 -13.685963 7.795541 -9.510599 4.738578 C -6.253501 2.352656 -3.71061 0.806516 -2.031047 0.194338 C -0.747829 -0.276567 -0.445664 -0.307961 0.00169619 -0.00187247 Z M 0.00169619 -0.00187247 " transform="matrix(0.995422,0,0,-0.995422,84.388937,112.353605)"/>
<path style="fill:none;stroke-width:0.302;stroke-linecap:round;stroke-linejoin:round;stroke:rgb(1.925659%,2.432251%,2.532959%);stroke-opacity:1;stroke-miterlimit:10;" d="M 0.00169619 -0.00187247 L 0.00169619 -0.00187247 " transform="matrix(0.995422,0,0,-0.995422,84.388937,112.353605)"/>
<path style=" stroke:none;fill-rule:nonzero;fill:rgb(1.925659%,2.432251%,2.532959%);fill-opacity:1;" d="M 22.8125 72.8125 C 25.402344 70.902344 30.496094 68.203125 32.757812 67.539062 L 33.957031 67.1875 L 29.78125 65.179688 C 26.117188 63.414062 21.03125 60.199219 20.453125 59.28125 C 19.945312 58.484375 9.601562 63.191406 7.4375 65.207031 C 5.804688 66.726562 5.902344 67.617188 7.851562 69.054688 C 10.113281 70.71875 18.503906 74.667969 19.871094 74.707031 C 20.066406 74.714844 21.390625 73.859375 22.8125 72.8125 "/>
<path style="fill:none;stroke-width:0.302;stroke-linecap:round;stroke-linejoin:round;stroke:rgb(1.925659%,2.432251%,2.532959%);stroke-opacity:1;stroke-miterlimit:10;" d="M -0.000216154 -0.00165232 C 2.601538 1.917288 7.718713 4.62892 9.990833 5.296037 L 11.195567 5.649216 L 7.000582 7.666262 C 3.319669 9.440007 -1.789658 12.669635 -2.370442 13.591826 C -2.880589 14.392365 -13.271909 9.663687 -15.445923 7.638793 C -17.086245 6.112273 -16.988139 5.217553 -15.029956 3.773442 C -12.757836 2.101726 -4.328624 -1.865654 -2.955149 -1.904896 C -2.758939 -1.912745 -1.42863 -1.053342 -0.000216154 -0.00165232 Z M -0.000216154 -0.00165232 " transform="matrix(0.995422,0,0,-0.995422,22.812715,72.810855)"/>
<path style="fill:none;stroke-width:0.302;stroke-linecap:round;stroke-linejoin:round;stroke:rgb(1.925659%,2.432251%,2.532959%);stroke-opacity:1;stroke-miterlimit:10;" d="M -0.000216154 -0.00165232 L -0.000216154 -0.00165232 " transform="matrix(0.995422,0,0,-0.995422,22.812715,72.810855)"/>
<path style=" stroke:none;fill-rule:nonzero;fill:rgb(1.925659%,2.432251%,2.532959%);fill-opacity:1;" d="M 98.902344 73.835938 C 99.96875 73.433594 102.21875 72.429688 103.898438 71.601562 C 109.984375 68.597656 111.257812 66.960938 108.980469 65.0625 C 107.738281 64.03125 101.175781 60.734375 98.296875 59.699219 L 96.484375 59.046875 L 93.871094 61.019531 C 92.335938 62.175781 89.546875 63.828125 87.128906 65.011719 L 83 67.035156 L 84.214844 67.398438 C 86.425781 68.058594 91.738281 70.964844 94.003906 72.753906 C 95.230469 73.722656 96.402344 74.527344 96.601562 74.539062 C 96.804688 74.554688 97.839844 74.234375 98.902344 73.835938 "/>
<path style="fill:none;stroke-width:0.201;stroke-linecap:round;stroke-linejoin:round;stroke:rgb(1.925659%,2.432251%,2.532959%);stroke-opacity:1;stroke-miterlimit:10;" d="M -0.00184813 -0.000496439 C 1.069462 0.403698 3.32981 1.412221 5.017222 2.244154 C 11.131147 5.261875 12.410441 6.906121 10.122624 8.813289 C 8.874724 9.849281 2.282045 13.161318 -0.610101 14.201235 L -2.430937 14.856578 L -5.056236 12.87485 C -6.598452 11.713283 -9.400341 10.05334 -11.82943 8.864303 L -15.977324 6.83156 L -14.756893 6.466609 C -12.535788 5.803416 -7.198857 2.883801 -4.922813 1.086511 C -3.690609 0.113306 -2.513345 -0.695082 -2.31321 -0.706855 C -2.109151 -0.722552 -1.069234 -0.400766 -0.00184813 -0.000496439 Z M -0.00184813 -0.000496439 " transform="matrix(0.995422,0,0,-0.995422,98.904183,73.835443)"/>
<path style="fill:none;stroke-width:0.201;stroke-linecap:round;stroke-linejoin:round;stroke:rgb(1.925659%,2.432251%,2.532959%);stroke-opacity:1;stroke-miterlimit:10;" d="M -0.00184813 -0.000496439 L -0.00184813 -0.000496439 " transform="matrix(0.995422,0,0,-0.995422,98.904183,73.835443)"/>
<path style=" stroke:none;fill-rule:nonzero;fill:rgb(1.925659%,2.432251%,2.532959%);fill-opacity:1;" d="M 45.945312 44.046875 C 45.207031 39.421875 45.265625 34.554688 46.105469 30.265625 C 46.261719 29.464844 46.085938 29.21875 44.210938 27.683594 C 41.402344 25.378906 38 23.066406 35.671875 21.878906 C 33.300781 20.671875 32.464844 20.785156 31.796875 22.414062 C 31.195312 23.886719 31.222656 30.042969 31.855469 34.328125 C 32.101562 36.007812 32.304688 37.417969 32.304688 37.464844 C 32.304688 37.511719 33.085938 37.84375 34.042969 38.210938 C 37.824219 39.648438 44.113281 43.570312 45.589844 45.40625 C 46.191406 46.15625 46.25 45.9375 45.945312 44.046875 "/>
<path style="fill:none;stroke-width:0.302;stroke-linecap:round;stroke-linejoin:round;stroke:rgb(1.925659%,2.432251%,2.532959%);stroke-opacity:1;stroke-miterlimit:10;" d="M -0.000319777 -0.000739099 C -0.741996 4.64553 -0.683133 9.535101 0.160573 13.843889 C 0.317542 14.648352 0.140952 14.895578 -1.742671 16.437794 C -4.564181 18.75308 -7.982171 21.076215 -10.321003 22.269176 C -12.703001 23.481759 -13.542783 23.367956 -14.213824 21.731559 C -14.818153 20.25213 -14.790683 14.067569 -14.15496 9.762706 C -13.907735 8.075294 -13.703676 6.658652 -13.703676 6.611562 C -13.703676 6.564471 -12.918833 6.230913 -11.9574 5.862037 C -8.158761 4.417926 -1.840776 0.478015 -0.357423 -1.366366 C 0.246906 -2.119815 0.305769 -1.900059 -0.000319777 -0.000739099 Z M -0.000319777 -0.000739099 " transform="matrix(0.995422,0,0,-0.995422,45.945631,44.046139)"/>
<path style="fill:none;stroke-width:0.302;stroke-linecap:round;stroke-linejoin:round;stroke:rgb(1.925659%,2.432251%,2.532959%);stroke-opacity:1;stroke-miterlimit:10;" d="M -0.000319777 -0.000739099 L -0.000319777 -0.000739099 " transform="matrix(0.995422,0,0,-0.995422,45.945631,44.046139)"/>
<path style=" stroke:none;fill-rule:nonzero;fill:rgb(1.925659%,2.432251%,2.532959%);fill-opacity:1;" d="M 74.074219 43.121094 C 76.042969 41.605469 80.789062 38.949219 83.175781 38.03125 C 84.976562 37.335938 85.359375 37.054688 85.5 36.332031 C 86.210938 32.710938 86.40625 30.695312 86.425781 26.589844 C 86.457031 21.4375 86.167969 20.410156 84.582031 20.007812 C 83.3125 19.6875 77.832031 22.851562 73.167969 26.605469 C 71.105469 28.261719 70.703125 28.734375 70.855469 29.308594 C 70.953125 29.691406 71.203125 31.578125 71.40625 33.5 C 71.75 36.804688 71.472656 42.53125 70.832031 45.273438 C 70.648438 46.074219 70.652344 46.074219 71.722656 45.089844 C 72.3125 44.546875 73.371094 43.660156 74.074219 43.121094 "/>
<path style="fill:none;stroke-width:0.302;stroke-linecap:round;stroke-linejoin:round;stroke:rgb(1.925659%,2.432251%,2.532959%);stroke-opacity:1;stroke-miterlimit:10;" d="M 0.000146536 0.0000996618 C 1.97795 1.522695 6.745871 4.19116 9.143566 5.113351 C 10.952628 5.811861 11.337201 6.094404 11.478473 6.820384 C 12.19268 10.45813 12.388891 12.483025 12.408512 16.607374 C 12.439905 21.783413 12.149514 22.815481 10.556283 23.219675 C 9.280913 23.541461 3.775241 20.362847 -0.910271 16.591677 C -2.982256 14.92781 -3.38645 14.45298 -3.233406 13.876121 C -3.135301 13.491548 -2.884151 11.596153 -2.680092 9.665439 C -2.334761 6.345554 -2.61338 0.592656 -3.256951 -2.162142 C -3.441389 -2.966606 -3.437465 -2.966606 -2.36223 -1.977704 C -1.769674 -1.432239 -0.706212 -0.541442 0.000146536 0.0000996618 Z M 0.000146536 0.0000996618 " transform="matrix(0.995422,0,0,-0.995422,74.074073,43.121193)"/>
<path style="fill:none;stroke-width:0.302;stroke-linecap:round;stroke-linejoin:round;stroke:rgb(1.925659%,2.432251%,2.532959%);stroke-opacity:1;stroke-miterlimit:10;" d="M 0.000146536 0.0000996618 L 0.000146536 0.0000996618 " transform="matrix(0.995422,0,0,-0.995422,74.074073,43.121193)"/>
<path style=" stroke:none;fill-rule:nonzero;fill:rgb(1.925659%,2.432251%,2.532959%);fill-opacity:1;" d="M 56.929688 100.632812 C 55.128906 97.800781 53.902344 93.464844 53.910156 89.976562 C 53.914062 86.582031 54.304688 85.230469 55.714844 83.753906 C 56.902344 82.511719 59.1875 82.378906 60.585938 83.476562 C 62.941406 85.332031 63.503906 90.90625 61.816406 95.683594 C 60.789062 98.59375 58.828125 102.246094 58.296875 102.246094 C 58.105469 102.246094 57.492188 101.519531 56.929688 100.632812 "/>
<path style="fill:none;stroke-width:0.302;stroke-linecap:round;stroke-linejoin:round;stroke:rgb(1.925659%,2.432251%,2.532959%);stroke-opacity:1;stroke-miterlimit:10;" d="M 0.0013705 -0.000705717 C -1.807692 2.84435 -3.039895 7.200227 -3.032047 10.704551 C -3.028123 14.114693 -2.635701 15.472471 -1.21906 16.955824 C -0.026099 18.203724 2.269566 18.337147 3.674435 17.234443 C 6.040736 15.370441 6.605823 9.770588 4.910562 4.971274 C 3.878494 2.047734 1.908539 -1.621406 1.374845 -1.621406 C 1.182559 -1.621406 0.566457 -0.891502 0.0013705 -0.000705717 Z M 0.0013705 -0.000705717 " transform="matrix(0.995422,0,0,-0.995422,56.928323,100.63211)"/>
<path style="fill:none;stroke-width:0.302;stroke-linecap:round;stroke-linejoin:round;stroke:rgb(1.925659%,2.432251%,2.532959%);stroke-opacity:1;stroke-miterlimit:10;" d="M 0.0013705 -0.000705717 L 0.0013705 -0.000705717 " transform="matrix(0.995422,0,0,-0.995422,56.928323,100.63211)"/>
<path style=" stroke:none;fill-rule:nonzero;fill:rgb(1.925659%,2.432251%,2.532959%);fill-opacity:1;" d="M 78.324219 59.578125 C 79.515625 59.007812 81.171875 57.945312 82.007812 57.21875 C 83.484375 55.933594 87.164062 50.835938 87.164062 50.074219 C 87.164062 49.820312 86.105469 49.757812 84.007812 49.890625 C 77.0625 50.320312 71.660156 53.355469 71.042969 57.171875 C 70.871094 58.226562 71.007812 58.589844 71.9375 59.519531 C 73.40625 60.988281 75.351562 61.007812 78.324219 59.578125 "/>
<path style="fill:none;stroke-width:0.302;stroke-linecap:round;stroke-linejoin:round;stroke:rgb(1.925659%,2.432251%,2.532959%);stroke-opacity:1;stroke-miterlimit:10;" d="M 0.000191565 0.0000853195 C 1.197077 0.573021 2.860944 1.640407 3.700726 2.370311 C 5.184078 3.661377 8.880688 8.782477 8.880688 9.547698 C 8.880688 9.802772 7.817226 9.86556 5.709923 9.732136 C -1.26733 9.300473 -6.694518 6.251359 -7.314544 2.417401 C -7.487209 1.357863 -7.349862 0.992912 -6.415899 0.0589485 C -4.940394 -1.416556 -2.986135 -1.436177 0.000191565 0.0000853195 Z M 0.000191565 0.0000853195 " transform="matrix(0.995422,0,0,-0.995422,78.324028,59.57821)"/>
<path style="fill:none;stroke-width:0.302;stroke-linecap:round;stroke-linejoin:round;stroke:rgb(1.925659%,2.432251%,2.532959%);stroke-opacity:1;stroke-miterlimit:10;" d="M 0.000191565 0.0000853195 L 0.000191565 0.0000853195 " transform="matrix(0.995422,0,0,-0.995422,78.324028,59.57821)"/>
<path style=" stroke:none;fill-rule:nonzero;fill:rgb(1.925659%,2.432251%,2.532959%);fill-opacity:1;" d="M 56.675781 51.269531 C 53.953125 49.921875 53.183594 43.675781 55.058594 38.09375 C 56.074219 35.058594 57.816406 31.878906 58.457031 31.878906 C 59.445312 31.878906 62.242188 38.242188 62.804688 41.773438 C 63.402344 45.488281 62.738281 48.625 61 50.371094 C 59.546875 51.828125 58.324219 52.082031 56.675781 51.269531 "/>
<path style="fill:none;stroke-width:0.302;stroke-linecap:round;stroke-linejoin:round;stroke:rgb(1.925659%,2.432251%,2.532959%);stroke-opacity:1;stroke-miterlimit:10;" d="M -0.000803423 -0.00171112 C -2.735981 1.352143 -3.509051 7.626961 -1.625428 13.234663 C -0.605132 16.283778 1.145067 19.478088 1.788638 19.478088 C 2.781464 19.478088 5.591202 13.085543 6.156289 9.538054 C 6.756693 5.806126 6.089577 2.654982 4.343302 0.900858 C 2.883494 -0.562874 1.655215 -0.817948 -0.000803423 -0.00171112 Z M -0.000803423 -0.00171112 " transform="matrix(0.995422,0,0,-0.995422,56.676581,51.267828)"/>
<path style="fill:none;stroke-width:0.302;stroke-linecap:round;stroke-linejoin:round;stroke:rgb(1.925659%,2.432251%,2.532959%);stroke-opacity:1;stroke-miterlimit:10;" d="M -0.000803423 -0.00171112 L -0.000803423 -0.00171112 " transform="matrix(0.995422,0,0,-0.995422,56.676581,51.267828)"/>
<path style=" stroke:none;fill-rule:nonzero;fill:rgb(1.925659%,2.432251%,2.532959%);fill-opacity:1;" d="M 81.09375 83.734375 C 74.695312 82.332031 69.851562 77.835938 71.378906 74.71875 C 73.796875 69.777344 81.546875 72.410156 86.644531 79.90625 C 87.542969 81.226562 88.320312 82.714844 88.371094 83.207031 C 88.464844 84.089844 88.40625 84.113281 85.941406 84.179688 C 84.554688 84.21875 82.371094 84.019531 81.09375 83.734375 "/>
<path style="fill:none;stroke-width:0.302;stroke-linecap:round;stroke-linejoin:round;stroke:rgb(1.925659%,2.432251%,2.532959%);stroke-opacity:1;stroke-miterlimit:10;" d="M 0.00115942 0.00184483 C -6.426703 1.410638 -11.292729 5.927408 -9.758361 9.058931 C -7.329273 14.023062 0.456368 11.378142 5.577468 3.847575 C 6.480037 2.52119 7.260956 1.026065 7.31197 0.531614 C 7.406152 -0.355259 7.347288 -0.378804 4.871109 -0.445516 C 3.478013 -0.484758 1.284377 -0.284623 0.00115942 0.00184483 Z M 0.00115942 0.00184483 " transform="matrix(0.995422,0,0,-0.995422,81.092596,83.736211)"/>
<path style="fill:none;stroke-width:0.302;stroke-linecap:round;stroke-linejoin:round;stroke:rgb(1.925659%,2.432251%,2.532959%);stroke-opacity:1;stroke-miterlimit:10;" d="M 0.00115942 0.00184483 L 0.00115942 0.00184483 " transform="matrix(0.995422,0,0,-0.995422,81.092596,83.736211)"/>
<path style=" stroke:none;fill-rule:nonzero;fill:rgb(1.925659%,2.432251%,2.532959%);fill-opacity:1;" d="M 36.953125 82.257812 C 40.410156 81.375 42.289062 80.417969 44.085938 78.625 C 46.363281 76.347656 46.460938 74.15625 44.339844 72.824219 C 42.003906 71.355469 37.617188 72.789062 34.296875 76.109375 C 32.65625 77.75 29.644531 81.984375 29.644531 82.652344 C 29.644531 83.214844 34.183594 82.96875 36.953125 82.257812 "/>
<path style="fill:none;stroke-width:0.302;stroke-linecap:round;stroke-linejoin:round;stroke:rgb(1.925659%,2.432251%,2.532959%);stroke-opacity:1;stroke-miterlimit:10;" d="M -0.00166082 0.00179779 C 3.471269 0.88867 5.358816 1.850103 7.163954 3.651317 C 9.451771 5.939134 9.549876 8.140618 7.419028 9.478775 C 5.072348 10.95428 0.665456 9.514093 -2.670126 6.178511 C -4.318296 4.530341 -7.343866 0.276493 -7.343866 -0.394548 C -7.343866 -0.959635 -2.783929 -0.712409 -0.00166082 0.00179779 Z M -0.00166082 0.00179779 " transform="matrix(0.995422,0,0,-0.995422,36.954778,82.259602)"/>
<path style="fill:none;stroke-width:0.302;stroke-linecap:round;stroke-linejoin:round;stroke:rgb(1.925659%,2.432251%,2.532959%);stroke-opacity:1;stroke-miterlimit:10;" d="M -0.00166082 0.00179779 L -0.00166082 0.00179779 " transform="matrix(0.995422,0,0,-0.995422,36.954778,82.259602)"/>
<path style=" stroke:none;fill-rule:nonzero;fill:rgb(1.925659%,2.432251%,2.532959%);fill-opacity:1;" d="M 38.53125 60.640625 C 37.417969 60.183594 36.027344 59.46875 35.441406 59.050781 C 32.949219 57.277344 28.921875 51.980469 28.734375 50.230469 C 28.652344 49.460938 28.792969 49.398438 30.847656 49.296875 C 35.773438 49.0625 41.746094 51.226562 44.367188 54.207031 C 46.046875 56.117188 46.445312 57.707031 45.632812 59.277344 C 44.457031 61.554688 41.925781 62.039062 38.53125 60.640625 "/>
<path style="fill:none;stroke-width:0.302;stroke-linecap:round;stroke-linejoin:round;stroke:rgb(1.925659%,2.432251%,2.532959%);stroke-opacity:1;stroke-miterlimit:10;" d="M 0.000721708 0.00159906 C -1.117679 0.460732 -2.5147 1.178863 -3.103332 1.598754 C -5.60698 3.380347 -9.652845 8.701582 -9.841207 10.45963 C -9.923616 11.2327 -9.782344 11.295487 -7.718208 11.397517 C -2.769774 11.63297 3.23035 9.458955 5.863498 6.46478 C 7.55091 4.545839 7.95118 2.948684 7.134943 1.37115 C 5.953755 -0.916667 3.410864 -1.40327 0.000721708 0.00159906 Z M 0.000721708 0.00159906 " transform="matrix(0.995422,0,0,-0.995422,38.530532,60.642217)"/>
</g>
</svg>
