<?xml version="1.0" encoding="UTF-8"?>
<svg xmlns="http://www.w3.org/2000/svg" xmlns:xlink="http://www.w3.org/1999/xlink" width="260.787pt" height="141.342pt" viewBox="0 0 260.787 141.342" version="1.2">
<defs>
<clipPath id="clip1">
  <path d="M 0.5 0 L 260 0 L 260 140.6875 L 0.5 140.6875 Z M 0.5 0 "/>
</clipPath>
</defs>
<g id="surface1">
<g clip-path="url(#clip1)" clip-rule="nonzero">
<path style="fill:none;stroke-width:0.398;stroke-linecap:butt;stroke-linejoin:round;stroke:rgb(1.925659%,2.432251%,2.532959%);stroke-opacity:1;stroke-miterlimit:10;" d="M -0.00166433 -0.000646612 C 4.268121 5.320887 8.581075 11.917863 9.491544 14.515839 C 10.07236 16.195497 10.829776 16.568318 11.277162 15.398837 C 11.771641 14.111622 0.893107 -2.013882 -2.203272 -4.584387 C -3.270719 -5.467385 -3.204003 -6.562302 -1.952109 -9.018998 C -1.096582 -10.698657 -1.010244 -11.318717 -1.485101 -12.456803 C -1.842224 -13.324104 -1.881469 -14.156084 -1.587136 -14.685883 C -1.190768 -15.388356 -0.566783 -14.940971 2.152851 -12.005493 C 6.767986 -7.021461 15.892298 1.004009 22.940583 6.278449 C 35.306478 15.536192 50.945352 23.820674 66.356608 29.291337 C 68.491501 30.048753 70.802993 30.896431 71.489769 31.17899 C 74.232949 32.297454 87.646668 35.334967 92.979976 36.049214 C 104.902409 37.646459 110.117983 36.932212 117.060309 32.764462 C 123.786791 28.726218 125.152494 26.034056 122.362221 22.329389 C 119.191277 18.130243 113.245758 11.305651 110.643858 8.876425 C 94.341754 -6.326836 90.362377 -11.538486 87.109021 -21.953936 C 83.973397 -31.992641 78.11814 -40.75198 71.007064 -46.057816 C 69.323481 -47.309711 67.946004 -48.687188 67.938155 -49.114951 C 67.926382 -49.542715 68.267808 -51.030076 68.691647 -52.427175 C 69.751244 -55.923846 69.657058 -61.641748 68.46403 -66.31575 C 64.688723 -81.067702 47.805804 -99.198592 34.525515 -102.75413 C 30.451952 -103.845123 28.481885 -103.652825 26.127224 -101.949621 C 22.622704 -99.410511 19.48708 -94.881713 10.704195 -79.650981 C 8.486889 -75.805034 5.582807 -70.797455 4.256348 -68.521283 C 2.92204 -66.24511 1.077555 -63.038847 0.151389 -61.402358 C -0.770854 -59.761944 -1.740189 -58.549293 -1.995277 -58.710195 C -2.517227 -59.028074 -2.317081 -69.443525 -1.708794 -73.988021 C -1.390914 -76.374077 -3.066648 -78.830774 -4.365636 -78.917111 L -7.583673 -78.909262 C -8.882661 -78.819 -10.558395 -76.366228 -10.240515 -73.980172 C -9.628304 -69.435676 -9.432082 -59.020225 -9.950107 -58.698422 C -10.20912 -58.541444 -11.178455 -59.75017 -12.100698 -61.390584 C -13.026864 -63.030998 -14.871349 -66.237262 -16.201732 -68.513434 C -17.532116 -70.789606 -20.436198 -75.797185 -22.653503 -79.639207 C -31.436389 -94.873864 -34.568088 -99.402662 -38.072609 -101.937847 C -40.431194 -103.648901 -42.401261 -103.837274 -46.474824 -102.746281 C -59.751188 -99.190743 -76.638032 -81.059853 -80.409414 -66.303977 C -81.606367 -61.633899 -81.700553 -55.912073 -80.640956 -52.419326 C -80.217117 -51.022227 -79.875691 -49.530941 -79.887464 -49.103178 C -79.891389 -48.675415 -81.27279 -47.301862 -82.952448 -46.049968 C -90.063524 -40.744131 -95.918782 -31.980868 -99.05833 -21.942163 C -102.311686 -11.530637 -106.291063 -6.318987 -122.593167 8.884274 C -125.195067 11.3135 -131.140586 18.138092 -134.31153 22.341162 C -137.105728 26.041904 -135.732175 28.730142 -129.009618 32.772311 C -122.067292 36.943985 -116.851718 37.654308 -104.929284 36.057063 C -99.595977 35.342816 -86.182258 32.305303 -83.439078 31.190763 C -82.752302 30.908204 -80.44081 30.060526 -78.305917 29.299186 C -62.890736 23.828523 -47.255787 15.540116 -34.889892 6.286298 C -27.841607 1.011858 -18.713371 -7.013612 -14.102159 -11.997645 C -11.382526 -14.933122 -10.758541 -15.380508 -10.362173 -14.674109 C -10.06784 -14.144311 -10.10316 -13.316255 -10.464208 -12.44503 C -10.93514 -11.306944 -10.852727 -10.690808 -9.993276 -9.01115 C -8.741381 -6.554453 -8.67859 -5.459536 -9.742112 -4.576538 C -12.842416 -2.006033 -23.72095 14.123395 -23.226471 15.41061 C -22.775161 16.580092 -22.021669 16.203346 -21.436929 14.523688 C -20.530384 11.925712 -16.21743 5.328736 -11.947645 0.00720226 C -8.062454 -4.831626 -8.321467 -5.008226 -6.186574 -4.992528 C -4.051681 -4.97683 -3.886855 -4.843399 -0.00166433 -0.000646612 Z M -0.00166433 -0.000646612 " transform="matrix(0.995366,0,0,-0.995366,136.103219,37.014981)"/>
</g>
<path style="fill:none;stroke-width:0.398;stroke-linecap:round;stroke-linejoin:round;stroke:rgb(1.925659%,2.432251%,2.532959%);stroke-opacity:1;stroke-miterlimit:10;" d="M -0.00166433 -0.000646612 L -0.00166433 -0.000646612 " transform="matrix(0.995366,0,0,-0.995366,136.103219,37.014981)"/>
<path style="fill:none;stroke-width:0.398;stroke-linecap:round;stroke-linejoin:round;stroke:rgb(1.925659%,2.432251%,2.532959%);stroke-opacity:1;stroke-miterlimit:10;" d="M 0.000981964 0.00071554 C 0.25607 -0.0699243 0.499385 0.216559 0.754473 0.840545 C 1.013486 1.468454 0.946771 2.951891 0.542554 5.761786 C -0.163844 10.628086 1.480494 22.389618 2.661749 33.746933 C 3.709573 43.828806 2.873668 44.633315 1.904333 51.818956 C 1.496192 54.864318 0.934998 57.646742 0.77802 58.019563 C 0.601421 58.451251 -0.191315 58.733811 -1.494228 58.792677 C -2.793216 58.745584 -3.589876 58.4591 -3.766476 58.035261 C -3.919529 57.658515 -4.484647 54.876091 -4.896713 51.830729 C -5.8582 44.645089 -6.698029 43.836655 -5.64628 33.758706 C -4.465025 22.401391 -2.824611 10.643783 -3.53101 5.77356 C -3.935226 2.963664 -4.001942 1.480228 -3.742929 0.852318 C -3.487841 0.224408 -3.240601 -0.0542266 -2.989438 0.0124888 Z M 0.000981964 0.00071554 " transform="matrix(0.995366,0,0,-0.995366,131.631835,110.047587)"/>
<path style="fill:none;stroke-width:0.398;stroke-linecap:round;stroke-linejoin:round;stroke:rgb(1.925659%,2.432251%,2.532959%);stroke-opacity:1;stroke-miterlimit:10;" d="M 0.000981964 0.00071554 L 0.000981964 0.00071554 " transform="matrix(0.995366,0,0,-0.995366,131.631835,110.047587)"/>
<path style="fill:none;stroke-width:0.498;stroke-linecap:round;stroke-linejoin:round;stroke:rgb(1.925659%,2.432251%,2.532959%);stroke-opacity:1;stroke-miterlimit:10;" d="M 0.00130236 -0.00135589 C 3.647103 4.951281 7.245809 14.5426 8.222994 21.920538 L 8.560495 24.447875 L 6.033159 23.321562 C 4.643909 22.701501 2.599278 22.163853 1.484739 22.128533 L -0.54027 22.069667 L -2.435772 17.434909 C -3.479672 14.887951 -5.422267 10.892876 -6.75265 8.553913 C -8.083034 6.211025 -9.170102 4.02119 -9.170102 3.687613 C -9.170102 2.200252 -3.789702 -3.046717 -2.341585 -2.976078 C -2.255248 -2.972153 -1.199575 -1.633921 0.00130236 -0.00135589 Z M 0.00130236 -0.00135589 " transform="matrix(0.995366,0,0,-0.995366,84.299485,122.861932)"/>
<path style="fill:none;stroke-width:0.498;stroke-linecap:round;stroke-linejoin:round;stroke:rgb(1.925659%,2.432251%,2.532959%);stroke-opacity:1;stroke-miterlimit:10;" d="M 0.00130236 -0.00135589 L 0.00130236 -0.00135589 " transform="matrix(0.995366,0,0,-0.995366,84.299485,122.861932)"/>
<path style="fill:none;stroke-width:0.498;stroke-linecap:round;stroke-linejoin:round;stroke:rgb(1.925659%,2.432251%,2.532959%);stroke-opacity:1;stroke-miterlimit:10;" d="M -0.000841776 -0.00181924 C 2.499023 3.96186 4.810516 8.506356 5.465896 10.747208 C 6.101655 12.917421 6.078108 13.019456 4.535805 14.557835 L 2.954258 16.139382 L -1.535296 13.184283 C -7.527908 9.236301 -8.654221 8.074668 -8.222533 6.292975 C -7.700583 4.122762 -4.651297 -0.178419 -2.912773 -1.206621 L -1.346923 -2.128863 Z M -0.000841776 -0.00181924 " transform="matrix(0.995366,0,0,-0.995366,74.926619,114.990377)"/>
<path style="fill:none;stroke-width:0.498;stroke-linecap:round;stroke-linejoin:round;stroke:rgb(1.925659%,2.432251%,2.532959%);stroke-opacity:1;stroke-miterlimit:10;" d="M -0.000841776 -0.00181924 L -0.000841776 -0.00181924 " transform="matrix(0.995366,0,0,-0.995366,74.926619,114.990377)"/>
<path style="fill:none;stroke-width:0.498;stroke-linecap:round;stroke-linejoin:round;stroke:rgb(1.925659%,2.432251%,2.532959%);stroke-opacity:1;stroke-miterlimit:10;" d="M 0.00066551 -0.0013981 C 1.480178 1.093519 6.566245 3.58946 8.583405 4.213445 C 9.187768 4.401818 9.489949 5.025803 9.489949 6.085401 C 9.489949 6.96055 9.972655 8.620586 10.56132 9.77437 C 11.149986 10.932078 11.538505 11.972053 11.416847 12.089786 C 11.299114 12.207519 10.274836 11.975978 9.140675 11.575685 C 8.006513 11.175393 4.537312 10.441524 1.425235 9.950969 C -5.06578 8.914918 -5.756481 8.436137 -5.273775 5.304438 C -4.948047 3.224488 -2.711119 -1.166955 -1.97725 -1.166955 C -1.757481 -1.166955 -0.870559 -0.641081 0.00066551 -0.0013981 Z M 0.00066551 -0.0013981 " transform="matrix(0.995366,0,0,-0.995366,67.268869,102.51814)"/>
<path style="fill:none;stroke-width:0.498;stroke-linecap:round;stroke-linejoin:round;stroke:rgb(1.925659%,2.432251%,2.532959%);stroke-opacity:1;stroke-miterlimit:10;" d="M 0.00066551 -0.0013981 L 0.00066551 -0.0013981 " transform="matrix(0.995366,0,0,-0.995366,67.268869,102.51814)"/>
<path style="fill:none;stroke-width:0.498;stroke-linecap:round;stroke-linejoin:round;stroke:rgb(1.925659%,2.432251%,2.532959%);stroke-opacity:1;stroke-miterlimit:10;" d="M 0.00194815 -0.000813627 C 0.5082 0.905731 3.08263 5.305023 5.71985 9.774954 C 8.360995 14.244886 12.053888 20.904652 13.925844 24.570074 C 17.308707 31.194521 17.328329 31.257312 16.990828 34.420406 C 16.806379 36.170704 16.480651 37.877834 15.385734 40.507205 C 13.965088 43.332798 1.418669 33.482466 -5.303888 27.250463 L -10.49984 22.435182 L -11.414233 17.647371 C -13.133136 8.69181 -16.645505 -0.365786 -20.738691 -6.366247 C -21.492183 -7.472938 -22.112243 -8.544309 -22.112243 -8.748379 C -22.112243 -9.411609 -15.079656 -12.374557 -13.529504 -12.370633 C -12.697524 -12.362784 -11.43778 -12.068451 -5.939647 -6.558545 C -1.026254 -1.539192 -0.508228 -0.903434 0.00194815 -0.000813627 Z M 0.00194815 -0.000813627 " transform="matrix(0.995366,0,0,-0.995366,105.935561,119.178878)"/>
<path style="fill:none;stroke-width:0.498;stroke-linecap:round;stroke-linejoin:round;stroke:rgb(1.925659%,2.432251%,2.532959%);stroke-opacity:1;stroke-miterlimit:10;" d="M 0.00194815 -0.000813627 L 0.00194815 -0.000813627 " transform="matrix(0.995366,0,0,-0.995366,105.935561,119.178878)"/>
<path style="fill:none;stroke-width:0.498;stroke-linecap:round;stroke-linejoin:round;stroke:rgb(1.925659%,2.432251%,2.532959%);stroke-opacity:1;stroke-miterlimit:10;" d="M -0.00086883 -0.0000955265 C -0.00086883 0.266766 -0.813227 0.776943 -1.810033 1.137991 C -4.816151 2.225059 -4.101903 4.65036 1.596376 12.738621 C 5.552207 18.346638 5.685638 18.476145 8.636813 19.394463 C 10.944381 20.116559 33.615842 28.075313 37.139985 29.401772 C 37.567748 29.562674 37.787516 29.115288 37.787516 28.075313 C 37.787516 26.980395 37.355828 26.168037 36.362946 25.387075 C 35.578059 24.770939 33.309736 22.812645 31.316123 21.038801 C 29.32251 19.264956 24.432664 14.924531 20.445438 11.392539 C 16.458212 7.864472 12.498457 4.316783 11.646854 3.508349 C 9.971121 1.930727 7.765588 0.627814 5.697411 -0.0000955265 C 3.82938 -0.569139 -0.00086883 -0.569139 -0.00086883 -0.0000955265 Z M -0.00086883 -0.0000955265 " transform="matrix(0.995366,0,0,-0.995366,83.411021,98.042874)"/>
<path style="fill:none;stroke-width:0.498;stroke-linecap:round;stroke-linejoin:round;stroke:rgb(1.925659%,2.432251%,2.532959%);stroke-opacity:1;stroke-miterlimit:10;" d="M -0.00086883 -0.0000955265 L -0.00086883 -0.0000955265 " transform="matrix(0.995366,0,0,-0.995366,83.411021,98.042874)"/>
<path style="fill:none;stroke-width:0.498;stroke-linecap:round;stroke-linejoin:round;stroke:rgb(1.925659%,2.432251%,2.532959%);stroke-opacity:1;stroke-miterlimit:10;" d="M 0.000836238 -0.000725262 C 0.000836238 2.071376 1.342993 3.735337 3.014802 3.735337 C 3.787916 3.735337 7.653485 4.555544 11.609315 5.548426 C 15.565146 6.545232 19.006875 7.361515 19.254115 7.361515 C 19.991908 7.361515 18.791031 5.532728 16.620819 3.335045 C 14.984329 1.686782 13.893336 1.117739 11.048121 0.427038 C 8.081248 -0.287209 3.332682 -1.11134 0.648368 -1.374278 C 0.271622 -1.409597 0.000836238 -0.840554 0.000836238 -0.000725262 Z M 0.000836238 -0.000725262 " transform="matrix(0.995366,0,0,-0.995366,62.803855,89.366466)"/>
<path style="fill:none;stroke-width:0.498;stroke-linecap:round;stroke-linejoin:round;stroke:rgb(1.925659%,2.432251%,2.532959%);stroke-opacity:1;stroke-miterlimit:10;" d="M 0.000836238 -0.000725262 L 0.000836238 -0.000725262 " transform="matrix(0.995366,0,0,-0.995366,62.803855,89.366466)"/>
<path style="fill:none;stroke-width:0.498;stroke-linecap:round;stroke-linejoin:round;stroke:rgb(1.925659%,2.432251%,2.532959%);stroke-opacity:1;stroke-miterlimit:10;" d="M -0.00159307 -0.000861481 C 6.049886 0.811497 43.901062 11.152383 46.334212 12.655442 C 47.150494 13.161694 46.389154 13.942656 45.070544 13.942656 C 43.116175 13.942656 33.571949 16.86636 26.492268 19.633087 C 20.444714 21.995597 19.6716 22.180045 17.697609 21.728735 C 16.504581 21.450101 12.38 20.61812 8.541902 19.880327 C -8.584333 16.575952 -18.387571 13.39716 -20.251678 10.551944 C -21.629155 8.452372 -20.820721 6.093786 -17.791057 3.370228 C -13.693947 -0.314816 -8.972852 -1.209587 -0.00159307 -0.000861481 Z M -0.00159307 -0.000861481 " transform="matrix(0.995366,0,0,-0.995366,71.306273,78.917111)"/>
<path style="fill:none;stroke-width:0.498;stroke-linecap:round;stroke-linejoin:round;stroke:rgb(1.925659%,2.432251%,2.532959%);stroke-opacity:1;stroke-miterlimit:10;" d="M -0.00159307 -0.000861481 L -0.00159307 -0.000861481 " transform="matrix(0.995366,0,0,-0.995366,71.306273,78.917111)"/>
<path style="fill:none;stroke-width:0.498;stroke-linecap:round;stroke-linejoin:round;stroke:rgb(1.925659%,2.432251%,2.532959%);stroke-opacity:1;stroke-miterlimit:10;" d="M 0.00136562 -0.00117449 C 0.511542 0.297083 1.15515 1.125138 1.425936 1.839386 C 2.199049 3.868318 0.790177 6.113095 -3.946616 10.398578 C -21.940151 26.677135 -35.801255 32.293002 -54.191158 30.758547 L -58.763125 30.377877 L -56.506575 28.050687 C -53.206125 24.659975 -45.125713 18.192506 -39.490224 14.436822 C -26.131447 5.540128 -4.2331 -2.46572 0.00136562 -0.00117449 Z M 0.00136562 -0.00117449 " transform="matrix(0.995366,0,0,-0.995366,118.088484,62.405081)"/>
<path style="fill:none;stroke-width:0.498;stroke-linecap:round;stroke-linejoin:round;stroke:rgb(1.925659%,2.432251%,2.532959%);stroke-opacity:1;stroke-miterlimit:10;" d="M 0.00136562 -0.00117449 L 0.00136562 -0.00117449 " transform="matrix(0.995366,0,0,-0.995366,118.088484,62.405081)"/>
<path style="fill:none;stroke-width:0.498;stroke-linecap:round;stroke-linejoin:round;stroke:rgb(1.925659%,2.432251%,2.532959%);stroke-opacity:1;stroke-miterlimit:10;" d="M 0.00132082 0.000764496 C 0.852923 0.236231 7.02606 1.645103 13.713297 3.124615 C 20.404459 4.608051 26.338204 5.997301 26.903323 6.213145 C 27.727455 6.5271 26.938643 7.111841 22.75912 9.274205 C 19.921753 10.741943 15.271298 13.689194 12.422158 15.824087 C 9.223743 18.221916 6.951495 19.58762 6.46879 19.395323 C 6.044951 19.230496 1.268913 18.92439 -4.138958 18.72032 C -14.495542 18.331801 -15.90049 18.013921 -18.117796 15.56115 C -19.938734 13.551839 -19.197015 7.335534 -16.693226 3.658338 C -14.401356 0.287248 -13.200479 -0.207231 -7.082284 -0.324964 C -4.040847 -0.38383 -0.854206 -0.238626 0.00132082 0.000764496 Z M 0.00132082 0.000764496 " transform="matrix(0.995366,0,0,-0.995366,59.971342,61.985136)"/>
<path style="fill:none;stroke-width:0.498;stroke-linecap:round;stroke-linejoin:round;stroke:rgb(1.925659%,2.432251%,2.532959%);stroke-opacity:1;stroke-miterlimit:10;" d="M 0.00132082 0.000764496 L 0.00132082 0.000764496 " transform="matrix(0.995366,0,0,-0.995366,59.971342,61.985136)"/>
<path style="fill:none;stroke-width:0.498;stroke-linecap:round;stroke-linejoin:round;stroke:rgb(1.925659%,2.432251%,2.532959%);stroke-opacity:1;stroke-miterlimit:10;" d="M -0.000982832 0.00132864 C 1.352947 0.126911 2.459638 0.405545 2.459638 0.617465 C 2.459638 1.661365 -9.042881 12.433939 -12.884903 14.988746 C -20.043073 19.749086 -24.662133 20.412315 -28.327555 17.198203 C -30.458523 15.322323 -32.220595 11.845274 -32.220595 9.50631 C -32.220595 7.289005 -30.215208 4.632162 -27.487726 3.242912 C -22.805875 0.852931 -8.673984 -0.814954 -0.000982832 0.00132864 Z M -0.000982832 0.00132864 " transform="matrix(0.995366,0,0,-0.995366,62.418947,41.513041)"/>
<path style="fill:none;stroke-width:0.498;stroke-linecap:round;stroke-linejoin:round;stroke:rgb(1.925659%,2.432251%,2.532959%);stroke-opacity:1;stroke-miterlimit:10;" d="M -0.000982832 0.00132864 L -0.000982832 0.00132864 " transform="matrix(0.995366,0,0,-0.995366,62.418947,41.513041)"/>
<path style="fill:none;stroke-width:0.498;stroke-linecap:round;stroke-linejoin:round;stroke:rgb(1.925659%,2.432251%,2.532959%);stroke-opacity:1;stroke-miterlimit:10;" d="M -0.000617131 0.000125237 C 3.437188 1.475713 4.363355 6.083 1.796774 8.95961 C 0.501711 10.407727 -0.0398615 10.639269 -2.009928 10.600024 C -4.898312 10.541158 -6.852681 9.175454 -7.633643 6.663816 C -8.300797 4.51715 -7.696434 2.339089 -6.001078 0.808559 C -4.87869 -0.211794 -1.538996 -0.65918 -0.000617131 0.000125237 Z M -0.000617131 0.000125237 " transform="matrix(0.995366,0,0,-0.995366,28.602177,24.375125)"/>
<path style="fill:none;stroke-width:0.498;stroke-linecap:round;stroke-linejoin:round;stroke:rgb(1.925659%,2.432251%,2.532959%);stroke-opacity:1;stroke-miterlimit:10;" d="M -0.000617131 0.000125237 L -0.000617131 0.000125237 " transform="matrix(0.995366,0,0,-0.995366,28.602177,24.375125)"/>
<path style="fill:none;stroke-width:0.498;stroke-linecap:round;stroke-linejoin:round;stroke:rgb(1.925659%,2.432251%,2.532959%);stroke-opacity:1;stroke-miterlimit:10;" d="M 0.00182849 -0.00146098 C -3.647896 4.951176 -7.246603 14.542495 -8.223787 21.920433 L -8.561289 24.447769 L -6.033953 23.321457 C -4.644703 22.697471 -2.600072 22.163748 -1.485532 22.128428 L 0.539476 22.065637 L 2.434978 17.434804 C 3.478878 14.887846 5.421473 10.888846 6.751857 8.553807 C 8.08224 6.21092 9.173233 4.021085 9.173233 3.687508 C 9.173233 2.200147 3.788908 -3.046823 2.340792 -2.976183 C 2.254454 -2.972258 1.198781 -1.634026 0.00182849 -0.00146098 Z M 0.00182849 -0.00146098 " transform="matrix(0.995366,0,0,-0.995366,176.080211,123.518077)"/>
<path style="fill:none;stroke-width:0.498;stroke-linecap:round;stroke-linejoin:round;stroke:rgb(1.925659%,2.432251%,2.532959%);stroke-opacity:1;stroke-miterlimit:10;" d="M 0.00182849 -0.00146098 L 0.00182849 -0.00146098 " transform="matrix(0.995366,0,0,-0.995366,176.080211,123.518077)"/>
<path style="fill:none;stroke-width:0.498;stroke-linecap:round;stroke-linejoin:round;stroke:rgb(1.925659%,2.432251%,2.532959%);stroke-opacity:1;stroke-miterlimit:10;" d="M 0.000548197 -0.00102433 C -2.499317 3.962655 -4.810809 8.507151 -5.46619 10.748003 C -6.101948 12.918216 -6.078402 13.020251 -4.536099 14.55863 L -2.954551 16.140177 L 1.535002 13.185077 C 7.527615 9.237096 8.653927 8.075463 8.22224 6.293769 C 7.696365 4.123557 4.654928 -0.177624 2.912479 -1.205826 L 1.346629 -2.128068 Z M 0.000548197 -0.00102433 " transform="matrix(0.995366,0,0,-0.995366,185.452579,115.647418)"/>
<path style="fill:none;stroke-width:0.498;stroke-linecap:round;stroke-linejoin:round;stroke:rgb(1.925659%,2.432251%,2.532959%);stroke-opacity:1;stroke-miterlimit:10;" d="M 0.000548197 -0.00102433 L 0.000548197 -0.00102433 " transform="matrix(0.995366,0,0,-0.995366,185.452579,115.647418)"/>
<path style="fill:none;stroke-width:0.498;stroke-linecap:round;stroke-linejoin:round;stroke:rgb(1.925659%,2.432251%,2.532959%);stroke-opacity:1;stroke-miterlimit:10;" d="M -0.000959089 -0.000503193 C -1.480471 1.09049 -6.566539 3.590355 -8.583699 4.21434 C -9.188062 4.402713 -9.490243 5.022774 -9.490243 6.086296 C -9.490243 6.961445 -9.972949 8.621481 -10.561614 9.775265 C -11.150279 10.929048 -11.538798 11.972948 -11.417141 12.090681 C -11.299408 12.208414 -10.27513 11.976873 -9.140968 11.57658 C -8.006807 11.176288 -4.537606 10.442418 -1.425529 9.951864 C 5.065487 8.915813 5.756187 8.437032 5.273482 5.305333 C 4.947754 3.221458 2.71475 -1.16606 1.976956 -1.16606 C 1.757188 -1.16606 0.870265 -0.640186 -0.000959089 -0.000503193 Z M -0.000959089 -0.000503193 " transform="matrix(0.995366,0,0,-0.995366,193.11033,103.17528)"/>
<path style="fill:none;stroke-width:0.498;stroke-linecap:round;stroke-linejoin:round;stroke:rgb(1.925659%,2.432251%,2.532959%);stroke-opacity:1;stroke-miterlimit:10;" d="M -0.000959089 -0.000503193 L -0.000959089 -0.000503193 " transform="matrix(0.995366,0,0,-0.995366,193.11033,103.17528)"/>
<path style="fill:none;stroke-width:0.498;stroke-linecap:round;stroke-linejoin:round;stroke:rgb(1.925659%,2.432251%,2.532959%);stroke-opacity:1;stroke-miterlimit:10;" d="M -0.00124173 -0.0000187163 C -0.507494 0.906526 -3.081923 5.305817 -5.719144 9.775749 C -8.360288 14.245681 -12.053182 20.901522 -13.925137 24.570869 C -17.308 31.195316 -17.327623 31.258107 -16.990121 34.417277 C -16.805673 36.171499 -16.479945 37.878628 -15.385027 40.508 C -13.964382 43.333593 -1.417963 33.479337 5.304594 27.251258 L 10.500546 22.435977 L 11.41494 17.648166 C 13.133842 8.692605 16.646212 -0.361067 20.739398 -6.365452 C 21.496814 -7.472143 22.11295 -8.543514 22.11295 -8.747584 C 22.11295 -9.410814 15.080362 -12.377687 13.53021 -12.369838 C 12.69823 -12.361989 11.438486 -12.067657 5.940353 -6.55775 C 1.030885 -1.538397 0.508935 -0.902639 -0.00124173 -0.0000187163 Z M -0.00124173 -0.0000187163 " transform="matrix(0.995366,0,0,-0.995366,154.442642,119.835919)"/>
<path style="fill:none;stroke-width:0.498;stroke-linecap:round;stroke-linejoin:round;stroke:rgb(1.925659%,2.432251%,2.532959%);stroke-opacity:1;stroke-miterlimit:10;" d="M -0.00124173 -0.0000187163 L -0.00124173 -0.0000187163 " transform="matrix(0.995366,0,0,-0.995366,154.442642,119.835919)"/>
<path style="fill:none;stroke-width:0.498;stroke-linecap:round;stroke-linejoin:round;stroke:rgb(1.925659%,2.432251%,2.532959%);stroke-opacity:1;stroke-miterlimit:10;" d="M 0.00107525 0.000799384 C 0.00107525 0.267661 0.813433 0.777838 1.81024 1.138886 C 4.816357 2.225954 4.10211 4.651255 -1.59617 12.739516 C -5.552 18.347533 -5.685431 18.473115 -8.636606 19.395357 C -10.944174 20.117453 -33.615635 28.076208 -37.139778 29.402667 C -37.567542 29.563569 -37.783385 29.112259 -37.783385 28.076208 C -37.783385 26.977366 -37.355622 26.168932 -36.36274 25.38797 C -35.577853 24.771833 -33.305605 22.81354 -31.315917 21.039696 C -29.322304 19.265851 -24.432457 14.925426 -20.445231 11.393434 C -16.46193 7.865367 -12.49825 4.317678 -11.646648 3.509244 C -9.974839 1.931621 -7.765382 0.628709 -5.697204 0.000799384 C -3.829173 -0.572168 0.00107525 -0.568244 0.00107525 0.000799384 Z M 0.00107525 0.000799384 " transform="matrix(0.995366,0,0,-0.995366,176.96768,98.700014)"/>
<path style="fill:none;stroke-width:0.498;stroke-linecap:round;stroke-linejoin:round;stroke:rgb(1.925659%,2.432251%,2.532959%);stroke-opacity:1;stroke-miterlimit:10;" d="M 0.00107525 0.000799384 L 0.00107525 0.000799384 " transform="matrix(0.995366,0,0,-0.995366,176.96768,98.700014)"/>
<path style="fill:none;stroke-width:0.498;stroke-linecap:round;stroke-linejoin:round;stroke:rgb(1.925659%,2.432251%,2.532959%);stroke-opacity:1;stroke-miterlimit:10;" d="M -0.00162982 0.000169648 C -0.00162982 2.072271 -1.343787 3.736232 -3.015596 3.736232 C -3.784785 3.736232 -7.654278 4.552514 -11.610109 5.549321 C -15.565939 6.546127 -19.007669 7.36241 -19.254908 7.36241 C -19.992702 7.36241 -18.791825 5.533623 -16.621612 3.335939 C -14.985123 1.687677 -13.89413 1.118634 -11.048915 0.427933 C -8.082042 -0.286314 -3.333475 -1.110445 -0.645237 -1.373383 C -0.272416 -1.408703 -0.00162982 -0.839659 -0.00162982 0.000169648 Z M -0.00162982 0.000169648 " transform="matrix(0.995366,0,0,-0.995366,197.575841,90.023606)"/>
<path style="fill:none;stroke-width:0.498;stroke-linecap:round;stroke-linejoin:round;stroke:rgb(1.925659%,2.432251%,2.532959%);stroke-opacity:1;stroke-miterlimit:10;" d="M -0.00162982 0.000169648 L -0.00162982 0.000169648 " transform="matrix(0.995366,0,0,-0.995366,197.575841,90.023606)"/>
<path style="fill:none;stroke-width:0.498;stroke-linecap:round;stroke-linejoin:round;stroke:rgb(1.925659%,2.432251%,2.532959%);stroke-opacity:1;stroke-miterlimit:10;" d="M 0.000799496 -0.0000665712 C -6.046755 0.812291 -43.901856 11.153178 -46.331081 12.652312 C -47.151288 13.158564 -46.389947 13.939527 -45.071337 13.939527 C -43.116968 13.939527 -33.572742 16.863231 -26.493062 19.629958 C -20.445507 21.996392 -19.672393 22.18084 -17.698403 21.72953 C -16.505374 21.450895 -12.380793 20.62284 -8.542696 19.881121 C 8.583539 16.572823 18.386778 13.397955 20.254809 10.552739 C 21.628361 8.449242 20.819927 6.094581 17.790264 3.367099 C 13.693153 -0.314021 8.972058 -1.208793 0.000799496 -0.0000665712 Z M 0.000799496 -0.0000665712 " transform="matrix(0.995366,0,0,-0.995366,189.073423,79.574152)"/>
<path style="fill:none;stroke-width:0.498;stroke-linecap:round;stroke-linejoin:round;stroke:rgb(1.925659%,2.432251%,2.532959%);stroke-opacity:1;stroke-miterlimit:10;" d="M 0.000799496 -0.0000665712 L 0.000799496 -0.0000665712 " transform="matrix(0.995366,0,0,-0.995366,189.073423,79.574152)"/>
<path style="fill:none;stroke-width:0.498;stroke-linecap:round;stroke-linejoin:round;stroke:rgb(1.925659%,2.432251%,2.532959%);stroke-opacity:1;stroke-miterlimit:10;" d="M -0.0011592 -0.00027958 C -0.511336 0.297977 -1.154943 1.126033 -1.425729 1.84028 C -2.198843 3.869213 -0.786046 6.110066 3.946822 10.395549 C 21.940357 26.674106 35.801462 32.289972 54.191365 30.759442 L 58.763331 30.374848 L 56.506781 28.055507 C 53.206331 24.656946 45.12592 18.193401 39.490431 14.437717 C 26.131654 5.544947 4.237231 -2.464825 -0.0011592 -0.00027958 Z M -0.0011592 -0.00027958 " transform="matrix(0.995366,0,0,-0.995366,142.290216,63.062222)"/>
<path style="fill:none;stroke-width:0.498;stroke-linecap:round;stroke-linejoin:round;stroke:rgb(1.925659%,2.432251%,2.532959%);stroke-opacity:1;stroke-miterlimit:10;" d="M -0.0011592 -0.00027958 L -0.0011592 -0.00027958 " transform="matrix(0.995366,0,0,-0.995366,142.290216,63.062222)"/>
<path style="fill:none;stroke-width:0.498;stroke-linecap:round;stroke-linejoin:round;stroke:rgb(1.925659%,2.432251%,2.532959%);stroke-opacity:1;stroke-miterlimit:10;" d="M 0.00181003 0.000659406 C -0.853717 0.236126 -7.026853 1.644998 -13.71409 3.12451 C -20.405252 4.611871 -26.338998 5.997196 -26.904117 6.21304 C -27.728248 6.52307 -26.939437 7.111736 -22.759913 9.270175 C -19.922547 10.741838 -15.268167 13.689089 -12.422951 15.823982 C -9.220612 18.221811 -6.948364 19.587515 -6.469583 19.395217 C -6.04182 19.230391 -1.269707 18.924285 4.138165 18.720215 C 14.494749 18.331696 15.899696 18.013816 18.113078 15.561044 C 19.93794 13.551734 19.196222 7.331504 16.692432 3.658233 C 14.400562 0.287143 13.199685 -0.21126 7.081491 -0.325069 C 4.040054 -0.383935 0.853412 -0.242656 0.00181003 0.000659406 Z M 0.00181003 0.000659406 " transform="matrix(0.995366,0,0,-0.995366,200.408355,62.641281)"/>
<path style="fill:none;stroke-width:0.498;stroke-linecap:round;stroke-linejoin:round;stroke:rgb(1.925659%,2.432251%,2.532959%);stroke-opacity:1;stroke-miterlimit:10;" d="M 0.00181003 0.000659406 L 0.00181003 0.000659406 " transform="matrix(0.995366,0,0,-0.995366,200.408355,62.641281)"/>
<path style="fill:none;stroke-width:0.498;stroke-linecap:round;stroke-linejoin:round;stroke:rgb(1.925659%,2.432251%,2.532959%);stroke-opacity:1;stroke-miterlimit:10;" d="M 0.00118925 0.00172355 C -1.352741 0.127305 -2.459432 0.40594 -2.459432 0.621784 C -2.459432 1.66176 9.043088 12.430409 12.88511 14.989141 C 20.043279 19.749481 24.662339 20.41271 28.327762 17.198598 C 30.45873 15.322718 32.220801 11.845669 32.220801 9.506705 C 32.220801 7.289399 30.215415 4.632557 27.487932 3.239382 C 22.806081 0.853326 8.674191 -0.814559 0.00118925 0.00172355 Z M 0.00118925 0.00172355 " transform="matrix(0.995366,0,0,-0.995366,197.959754,42.169684)"/>
<path style="fill:none;stroke-width:0.498;stroke-linecap:round;stroke-linejoin:round;stroke:rgb(1.925659%,2.432251%,2.532959%);stroke-opacity:1;stroke-miterlimit:10;" d="M 0.00118925 0.00172355 L 0.00118925 0.00172355 " transform="matrix(0.995366,0,0,-0.995366,197.959754,42.169684)"/>
<path style="fill:none;stroke-width:0.498;stroke-linecap:round;stroke-linejoin:round;stroke:rgb(1.925659%,2.432251%,2.532959%);stroke-opacity:1;stroke-miterlimit:10;" d="M -0.000576448 0.0000201469 C -3.438382 1.475608 -4.364548 6.082894 -1.797968 8.955581 C -0.502904 10.407622 0.0386679 10.639164 2.008734 10.599919 C 4.901043 10.537128 6.851487 9.175349 7.63245 6.663711 C 8.299604 4.51312 7.695241 2.335059 5.999885 0.808454 C 4.877496 -0.211899 1.537802 -0.663209 -0.000576448 0.0000201469 Z M -0.000576448 0.0000201469 " transform="matrix(0.995366,0,0,-0.995366,231.777918,25.03127)"/>
<path style="fill:none;stroke-width:0.498;stroke-linecap:round;stroke-linejoin:round;stroke:rgb(1.925659%,2.432251%,2.532959%);stroke-opacity:1;stroke-miterlimit:10;" d="M -0.000576448 0.0000201469 L -0.000576448 0.0000201469 " transform="matrix(0.995366,0,0,-0.995366,231.777918,25.03127)"/>
</g>
</svg>
