<svg xmlns="http://www.w3.org/2000/svg" xmlns:xlink="http://www.w3.org/1999/xlink" width="227.009pt" height="155.057pt" viewBox="0 0 227.009 155.057"><defs><path id="b" d="M.5-4.04687C.5-1.625 1.21875.14063 3.21875.14063S5.92188-1.625 5.92188-4.04687s-.70313-4.1875-2.70313-4.1875S.5-6.46875.5-4.04687m1.21875 0c0-1.96875.35938-3.75 1.5-3.75 1.14063 0 1.46875 1.78125 1.46875 3.75S4.35938-.28125 3.21875-.28125c-1.14062 0-1.5-1.79687-1.5-3.76562m0 0"/><path id="c" d="M1.1875 0h3.57813v-.3125l-.92188-.07812C3.60938-.42187 3.48438-.5 3.48438-.92187v-6.42188l-.0625-.04687-2.23438.375V-6.75l1.01563.125c.1875.03125.25.10938.25.42188v5.28125c0 .42187-.10938.5-.35938.53125L1.1875-.3125Zm0 0"/><path id="d" d="M.29688-.10937.42188 0h4.5l.375-1.4375-.3125-.0625c-.21875.59375-.45313.67188-.89063.67188H1.3125c.1875-.5625.82813-1.34375 1.84375-2.0625C4.1875-3.65625 5-4.14062 5-5.35937 5-6.875 4-7.39062 2.84375-7.39062c-1.48437 0-2.25.89062-2.25 1.46875 0 .35937.40625.53125.59375.53125.20313 0 .26563-.10938.3125-.29688.17188-.73437.60938-1.32812 1.28125-1.32812.82813 0 1.07813.6875 1.07813 1.5 0 1.15625-.59375 1.82812-1.54688 2.65625C.96875-1.6875.51563-.95312.29688-.10937m0 0"/><path id="e" d="M.29688-1.10937c0 .46875.75 1.23437 2.29687 1.23437 1.57813 0 2.5625-.79687 2.5625-2.1875 0-1.45312-1.25-1.89062-1.84375-1.9375v-.04687c.59375-.09375 1.53125-.53125 1.53125-1.60938 0-1.20312-.9375-1.73437-2.10937-1.73437-1.4375 0-2.14063.82812-2.14063 1.28125 0 .34375.375.53125.53125.53125.14063 0 .21875-.07813.26563-.21875.23437-.75.64062-1.21875 1.26562-1.21875.85938 0 1.07813.75 1.07813 1.35937C3.73438-5 3.5-4.1875 2.57813-4.1875c-.53125 0-.82813-.09375-.95313-.09375-.14062 0-.20312.09375-.20312.29688 0 .1875.0625.29687.20312.29687.125 0 .42188-.09375.95313-.09375.92187 0 1.4375.82813 1.4375 1.78125 0 1.29688-.64063 1.75-1.40625 1.75-.71875 0-1.20313-.53125-1.40625-1.15625-.0625-.20312-.17188-.3125-.32813-.3125-.1875 0-.57812.21875-.57812.60938m0 0"/><path id="f" d="m.21875-2.17187.09375.23437h2.96875v1.10938c0 .35937-.125.42187-.39062.45312l-.6875.0625V0h2.875v-.3125l-.5-.0625c-.25-.03125-.3125-.09375-.3125-.45312V-1.9375H5.375v-.51562H4.26563v-4.8125h-.79688c-1.03125 1.5-2.25 3.39062-3.25 5.09375M1-2.45312c.65625-1.1875 1.4375-2.4375 2.28125-3.76563v3.76563Zm0 0"/><path id="g" d="M.45313-1.10937c0 .5.76562 1.23437 2.17187 1.23437 1.79688 0 2.60938-1.09375 2.60938-2.46875 0-1.51562-.95313-2.29687-2.25-2.29687-.59375 0-1.26563.26562-1.60938.57812l.25-2.0625c.03125-.28125.09375-.3125.3125-.3125h2.70313l.26562-.73437-.0625-.09375h-3.625l-.10937.09375-.21876 3.64062.26563.14063c.45313-.51563.89063-.78125 1.48438-.78125.6875 0 1.45312.51562 1.45312 1.95312 0 1.125-.45312 1.96875-1.39062 1.96875-.76563 0-1.15625-.54687-1.375-1.17187-.04688-.17188-.15626-.26563-.3125-.26563-.21876 0-.5625.21875-.5625.57813m0 0"/><clipPath id="a"><path d="M23 0h202.83203v129H23Zm0 0"/></clipPath><clipPath id="h"><path d="M208 116h17.83203v26H208Zm0 0"/></clipPath></defs><g clip-path="url(#a)"><path fill="none" stroke="#7f7f7f" stroke-dasharray=".39609306 .9902624688" stroke-miterlimit="10" stroke-width=".39609" d="M23.98047 128.59375h201.457m-201.457-36.6289h201.457m-201.457-36.6289h201.457m-201.457-36.6289h201.457m-201.457 109.8867V.39455m36.6289 128.1992V.39455m36.6289 128.1992V.39455m36.6289 128.1992V.39455m36.6289 128.1992V.39455m36.625 128.1992V.39455"/></g><use xlink:href="#b" x="7.94348" y="145.45539" fill="#7f7f7f"/><path fill="none" stroke="#7f7f7f" stroke-miterlimit="10" stroke-width=".39609" d="M60.60937 119.4375V137.75"/><use xlink:href="#c" x="57.7138" y="149.70157" fill="#7f7f7f"/><path fill="none" stroke="#7f7f7f" stroke-miterlimit="10" stroke-width=".39609" d="M97.23827 119.4375V137.75"/><use xlink:href="#d" x="94.34104" y="149.70157" fill="#7f7f7f"/><path fill="none" stroke="#7f7f7f" stroke-miterlimit="10" stroke-width=".39609" d="M133.86717 119.4375V137.75"/><use xlink:href="#e" x="130.96829" y="149.70157" fill="#7f7f7f"/><path fill="none" stroke="#7f7f7f" stroke-miterlimit="10" stroke-width=".39609" d="M170.49607 119.4375V137.75"/><use xlink:href="#f" x="167.59653" y="149.57434" fill="#7f7f7f"/><path fill="none" stroke="#7f7f7f" stroke-miterlimit="10" stroke-width=".39609" d="M207.12107 119.4375V137.75"/><use xlink:href="#g" x="204.22378" y="149.57434" fill="#7f7f7f"/><path fill="none" stroke="#000" stroke-miterlimit="10" stroke-width=".7922" d="M5.66797 128.59375h213.62888"/><path d="M223.4375 128.59375c-.50781-.10547-2.74219-.70703-4.14062-1.35547v2.71094c1.39843-.65234 3.6328-1.25 4.14062-1.35547m0 0"/><g clip-path="url(#h)"><path fill="none" stroke="#000" stroke-miterlimit="10" stroke-width=".7922" d="M223.4375 128.59375c-.50781-.10547-2.74219-.70703-4.14062-1.35547v2.71094c1.39843-.65235 3.6328-1.25 4.14062-1.35547Zm0 0"/></g><path fill="none" stroke="#7f7f7f" stroke-miterlimit="10" stroke-width=".39609" d="M33.14062 91.96485h-18.3164"/><use xlink:href="#c" x="4.48452" y="95.66719" fill="#7f7f7f"/><path fill="none" stroke="#7f7f7f" stroke-miterlimit="10" stroke-width=".39609" d="M33.14062 55.33595h-18.3164"/><use xlink:href="#d" x="4.48452" y="59.03994" fill="#7f7f7f"/><path fill="none" stroke="#7f7f7f" stroke-miterlimit="10" stroke-width=".39609" d="M33.14062 18.70705h-18.3164"/><use xlink:href="#e" x="4.48452" y="22.34809" fill="#7f7f7f"/><path fill="none" stroke="#000" stroke-miterlimit="10" stroke-width=".7922" d="M23.98047 146.90625V6.53517"/><path stroke="#000" stroke-miterlimit="10" stroke-width=".7922" d="M23.98047 2.39453c-.10547.50781-.70313 2.74219-1.35547 4.14063h2.71094c-.64844-1.39844-1.25-3.63282-1.35547-4.14063Zm0 0"/></svg>