<svg xmlns="http://www.w3.org/2000/svg" xmlns:xlink="http://www.w3.org/1999/xlink" width="226.986pt" height="118.206pt" viewBox="0 0 226.986 118.206"><defs><path id="b" d="M.5-4.03125C.5-1.625 1.20313.14063 3.20313.14063c1.98437 0 2.71875-1.76563 2.71875-4.17188 0-2.42187-.73438-4.1875-2.71875-4.1875-2 0-2.70313 1.76563-2.70313 4.1875m1.21875 0c0-1.96875.34375-3.76562 1.48438-3.76562C4.34375-7.79687 4.6875-6 4.6875-4.03125c0 1.95313-.34375 3.75-1.48437 3.75-1.14063 0-1.48438-1.79687-1.48438-3.75m0 0"/><path id="i" d="m1.75-1.3125.5.5 2.09375-2.10937L6.45313-.8125l.48437-.5-2.09375-2.09375L6.9375-5.51562 6.45313-6 4.34375-3.90625 2.25-6l-.5.48438 2.10938 2.10937Zm0 0"/><path id="c" d="M1.1875 0h3.57813v-.3125l-.92188-.07812C3.60938-.42187 3.48438-.5 3.48438-.92187v-6.42188l-.0625-.04687-2.23438.375V-6.75l1.01563.125c.1875.03125.25.10938.25.42188v5.28125c0 .42187-.10938.5-.35938.53125L1.1875-.3125Zm0 0"/><path id="d" d="M.29688-.10937.40625 0h4.5l.375-1.4375L4.98438-1.5c-.23438.59375-.45313.67188-.89063.67188H1.3125c.17188-.5625.8125-1.34375 1.82813-2.0625 1.04687-.76563 1.84375-1.25 1.84375-2.46875 0-1.51563-1-2.03125-2.14063-2.03125-1.5 0-2.26562.89062-2.26562 1.46875 0 .35937.42187.53125.60937.53125S1.45313-5.5 1.5-5.6875c.17188-.73437.59375-1.32812 1.26563-1.32812.82812 0 1.07812.6875 1.07812 1.5 0 1.15625-.59375 1.82812-1.54687 2.65625C.96875-1.6875.5-.95312.29688-.10937m0 0"/><path id="e" d="M.29688-1.10937c0 .46875.75 1.23437 2.28125 1.23437 1.57812 0 2.57812-.79687 2.57812-2.1875 0-1.45312-1.25-1.89062-1.85937-1.9375v-.04687c.59375-.09375 1.53125-.53125 1.53125-1.60938 0-1.20312-.9375-1.73437-2.10938-1.73437-1.4375 0-2.14062.82812-2.14062 1.28125 0 .34375.39062.53125.53125.53125s.21874-.07813.26562-.21875c.25-.75.65625-1.21875 1.26563-1.21875.85937 0 1.07812.75 1.07812 1.35937C3.71875-5 3.48438-4.1875 2.5625-4.1875c-.53125 0-.82812-.09375-.95312-.09375-.14063 0-.20313.09375-.20313.29688 0 .1875.0625.29687.20313.29687.125 0 .42187-.09375.95312-.09375C3.48438-3.78125 4-2.95312 4-2 4-.70312 3.375-.25 2.59375-.25c-.71875 0-1.1875-.53125-1.40625-1.15625-.0625-.20312-.17187-.3125-.3125-.3125-.20312 0-.57812.21875-.57812.60938m0 0"/><path id="f" d="m.20313-2.17187.09375.23437h2.96875v1.10938c0 .35937-.10938.42187-.375.45312l-.70313.0625V0h2.875v-.3125L4.57813-.375C4.3125-.40625 4.25-.46875 4.25-.82812V-1.9375h1.10938v-.51562H4.25v-4.8125h-.79687c-1.01563 1.5-2.25 3.39062-3.25 5.09375M1-2.45312c.64063-1.1875 1.4375-2.4375 2.26563-3.76563v3.76563Zm0 0"/><path id="g" d="M.4375-1.10937c0 .5.76563 1.23437 2.17188 1.23437 1.79687 0 2.60937-1.09375 2.60937-2.46875 0-1.51562-.95312-2.29687-2.25-2.29687-.59375 0-1.25.26562-1.60937.57812l.25-2.0625c.03124-.28125.10937-.3125.3125-.3125H4.625l.26563-.73437-.04688-.09375H1.20313l-.10938.09375L.875-3.53125l.26563.14063c.45312-.51563.89062-.78125 1.48437-.78125.70313 0 1.46875.51562 1.46875 1.95312 0 1.125-.45312 1.96875-1.40625 1.96875-.76562 0-1.14062-.54687-1.375-1.17187C1.26563-1.59375 1.15625-1.6875 1-1.6875c-.21875 0-.5625.21875-.5625.57813m0 0"/><clipPath id="a"><path d="M24 0h202.22266v93H24Zm0 0"/></clipPath><clipPath id="h"><path d="M208 79h18.22266v26H208Zm0 0"/></clipPath></defs><g clip-path="url(#a)"><path fill="none" stroke="#7f7f7f" stroke-dasharray=".39584200500000005 .9896348124000001" stroke-miterlimit="10" stroke-width=".39584" d="M24.5 91.90625h201.32818M24.5 55.30077h201.32818M24.5 18.6953h201.32818M24.5 91.90625V.39451m36.60548 91.51174V.39451m36.60548 91.51174V.39451m36.60548 91.51174V.39451m36.60548 91.51174V.39451m36.60547 91.51174V.39451"/></g><use xlink:href="#b" x="8.48535" y="108.75846" fill="#7f7f7f"/><path fill="none" stroke="#7f7f7f" stroke-miterlimit="10" stroke-width=".39584" d="M61.10548 82.7539v18.3047"/><use xlink:href="#c" x="58.22226" y="113.00196" fill="#7f7f7f"/><path fill="none" stroke="#7f7f7f" stroke-miterlimit="10" stroke-width=".39584" d="M97.71096 82.7539v18.3047"/><use xlink:href="#d" x="94.82639" y="113.00196" fill="#7f7f7f"/><path fill="none" stroke="#7f7f7f" stroke-miterlimit="10" stroke-width=".39584" d="M134.31644 82.7539v18.3047"/><use xlink:href="#e" x="131.4315" y="113.00196" fill="#7f7f7f"/><path fill="none" stroke="#7f7f7f" stroke-miterlimit="10" stroke-width=".39584" d="M170.92192 82.7539v18.3047"/><use xlink:href="#f" x="168.03563" y="112.87481" fill="#7f7f7f"/><path fill="none" stroke="#7f7f7f" stroke-miterlimit="10" stroke-width=".39584" d="M207.5274 82.7539v18.3047"/><use xlink:href="#g" x="204.64075" y="112.87481" fill="#7f7f7f"/><path fill="none" stroke="#000" stroke-miterlimit="10" stroke-width=".79169" d="M6.19921 91.90625h213.49225"/><path d="M223.82813 91.90625c-.50782-.10547-2.73829-.70312-4.13672-1.35547v2.71094c1.39843-.65234 3.6289-1.25 4.13672-1.35547m0 0"/><g clip-path="url(#h)"><path fill="none" stroke="#000" stroke-miterlimit="10" stroke-width=".79169" d="M223.82813 91.90625c-.50782-.10547-2.73829-.70313-4.13672-1.35547v2.71094c1.39843-.65235 3.6289-1.25 4.13672-1.35547Zm0 0"/></g><path fill="none" stroke="#7f7f7f" stroke-miterlimit="10" stroke-width=".39584" d="M33.65235 55.30077h-18.3047"/><use xlink:href="#c" x="5.0385" y="59.00168" fill="#7f7f7f"/><path fill="none" stroke="#7f7f7f" stroke-miterlimit="10" stroke-width=".39584" d="M33.65235 18.6953h-18.3047"/><use xlink:href="#d" x="5.0385" y="22.39755" fill="#7f7f7f"/><path fill="none" stroke="#000" stroke-miterlimit="10" stroke-width=".79169" d="M24.5 110.21094V6.53123"/><path stroke="#000" stroke-miterlimit="10" stroke-width=".79169" d="M24.5 2.39453c-.10547.50781-.70313 2.73828-1.35547 4.13672h2.71094c-.65234-1.39844-1.25-3.6289-1.35547-4.13672Zm0 0"/><use xlink:href="#i" x="56.7571" y="58.30635"/><use xlink:href="#i" x="93.36123" y="76.60841"/><use xlink:href="#i" x="129.96635" y="85.75994"/><use xlink:href="#i" x="166.57047" y="90.33521"/><use xlink:href="#i" x="203.17559" y="92.62284"/></svg>