<svg xmlns="http://www.w3.org/2000/svg" xmlns:xlink="http://www.w3.org/1999/xlink" width="386.004pt" height="196.198pt" viewBox="0 0 386.004 196.198"><defs><path id="b" d="M2.04688 0h6.21875v-.54687L6.67188-.6875c-.40625-.03125-.625-.17187-.625-.92187v-11.125l-.09375-.10938-3.90625.67188v.45312L3.8125-11.5c.32813.04688.45313.1875.45313.73438v9.15625c0 .75-.1875.89062-.625.92187l-1.59375.14063Zm0 0"/><path id="c" d="M.5-.1875.70313 0h7.8125l.64062-2.48437-.51562-.10938c-.40625 1.03125-.78125 1.17188-1.54688 1.17188H2.26563c.3125-.98438 1.4375-2.32813 3.1875-3.59375C7.25-6.34375 8.65625-7.1875 8.65625-9.29687c0-2.64063-1.75-3.54688-3.73437-3.54688C2.32813-12.84375 1-11.26562 1-10.28125c0 .64063.73438.9375 1.04688.9375.34375 0 .46875-.20312.54687-.51562.29688-1.29688 1.04688-2.3125 2.20313-2.3125 1.45312 0 1.875 1.20312 1.875 2.59375C6.67188-7.5625 5.64063-6.40625 4-4.96875 1.67188-2.9375.85938-1.64062.5-.1875m0 0"/><path id="d" d="M.5-1.92187C.5-1.125 1.8125.21875 4.48438.21875c2.73437 0 4.45312-1.39062 4.45312-3.79687 0-2.53125-2.17187-3.28125-3.20312-3.375v-.07813C6.75-7.1875 8.375-7.95312 8.375-9.82812c0-2.09375-1.625-3.01563-3.65625-3.01563-2.48437 0-3.71875 1.45313-3.71875 2.25 0 .59375.67188.90625.92188.90625s.39062-.14062.46875-.375c.42187-1.29687 1.125-2.10937 2.1875-2.10937 1.48437 0 1.875 1.29687 1.875 2.35937 0 1.125-.40625 2.5625-2.01563 2.5625-.90625 0-1.42187-.1875-1.64062-.1875-.25 0-.34375.1875-.34375.53125 0 .3125.09375.51563.34375.51563.21875 0 .73437-.1875 1.64062-.1875 1.60938 0 2.51563 1.45312 2.51563 3.10937 0 2.25-1.10938 3.03125-2.45313 3.03125-1.25 0-2.0625-.92187-2.4375-2-.10937-.35937-.29687-.53125-.5625-.53125-.32812 0-1 .35938-1 1.04688m0 0"/><path id="e" d="m.35938-3.78125.15625.40625h5.15625v1.92188c0 .65625-.20313.75-.67188.79687l-1.20312.10938V0h4.98437v-.54687L7.9375-.64063c-.4375-.0625-.5625-.15624-.5625-.8125V-3.375h1.92188v-.89062H7.375V-12.625H5.98438C4.21875-10 2.09375-6.73437.35938-3.78125m1.375-.48437C2.85938-6.3125 4.21875-8.5 5.67188-10.79687v6.53125Zm0 0"/><path id="f" d="M.76563-1.92187c0 .85937 1.32812 2.14062 3.78125 2.14062 3.10937 0 4.51562-1.89062 4.51562-4.28125 0-2.65625-1.64062-4-3.89062-4-1.04688 0-2.20313.46875-2.79688 1.01563l.42188-3.57813c.0625-.48437.17187-.54687.53125-.54687h4.70312L8.5-12.45312l-.09375-.17188h-6.3125l-.1875.1875-.375 6.3125.45313.23438c.78125-.90625 1.54687-1.34375 2.57812-1.34375 1.20313 0 2.53125.89062 2.53125 3.375 0 1.95312-.78125 3.42187-2.4375 3.42187-1.32812 0-1.98437-.95312-2.35937-2.03125C2.1875-2.75 2.01563-2.9375 1.75-2.9375c-.39062 0-.98437.39063-.98437 1.01563m0 0"/><path id="g" d="M.78125-6.3125C.78125-2.53125 1.89063.21875 5 .21875c3.125 0 4.25-2.75 4.25-6.53125S8.125-12.84375 5-12.84375c-3.10937 0-4.21875 2.75-4.21875 6.53125m1.90625 0c0-3.07812.53125-5.85937 2.3125-5.85937 1.79688 0 2.3125 2.78125 2.3125 5.85937S6.79688-.4375 5-.4375c-1.78125 0-2.3125-2.79687-2.3125-5.875m0 0"/><path id="i" d="m3.03125-2.28125.875.875L7.54688-5.0625l3.65625 3.65625.85937-.875-3.64062-3.64062 3.64062-3.65625-.85937-.84375-3.65625 3.64062-3.64063-3.64062-.875.84375 3.67188 3.65625Zm0 0"/><clipPath id="a"><path d="M3 0h381.72266v192H3Zm0 0"/></clipPath><clipPath id="h"><path d="M366 146h18.72266v26H366Zm0 0"/></clipPath></defs><g clip-path="url(#a)"><path fill="none" stroke="#000" stroke-miterlimit="10" stroke-opacity=".5" stroke-width=".39688" d="M3.20703 159.19531h381.12112M3.20703 95.67578h381.12112M3.20703 32.15624h381.12112m-349.3633 158.8008V.39451m63.52344 190.56251V.39452m63.51953 190.56251V.39452m63.51954 190.56251V.39452m63.51953 190.56251V.39452m63.52344 190.56251V.39452"/></g><path fill="none" stroke="#000" stroke-miterlimit="10" stroke-opacity=".5" stroke-width=".39688" d="M98.48829 143.3164v31.76173"/><use xlink:href="#b" x="93.4828" y="181.4961" fill-opacity=".5"/><path fill="none" stroke="#000" stroke-miterlimit="10" stroke-opacity=".5" stroke-width=".39688" d="M162.00782 143.3164v31.76173"/><use xlink:href="#c" x="157.00216" y="181.4961" fill-opacity=".5"/><path fill="none" stroke="#000" stroke-miterlimit="10" stroke-opacity=".5" stroke-width=".39688" d="M225.52736 143.3164v31.76173"/><use xlink:href="#d" x="220.5225" y="181.38555" fill-opacity=".5"/><path fill="none" stroke="#000" stroke-miterlimit="10" stroke-opacity=".5" stroke-width=".39688" d="M289.0469 143.3164v31.76173"/><use xlink:href="#e" x="284.04186" y="181.38555" fill-opacity=".5"/><path fill="none" stroke="#000" stroke-miterlimit="10" stroke-opacity=".5" stroke-width=".39688" d="M352.57033 143.3164v31.76173"/><use xlink:href="#f" x="347.5622" y="181.275" fill-opacity=".5"/><path fill="none" stroke="#000" stroke-miterlimit="10" stroke-opacity=".5" stroke-width=".39688" d="M50.84766 95.67578H19.08594"/><use xlink:href="#b" x="7.73034" y="102.09566" fill-opacity=".5"/><path fill="none" stroke="#000" stroke-miterlimit="10" stroke-opacity=".5" stroke-width=".39688" d="M50.84766 32.15624H19.08594"/><use xlink:href="#c" x="7.73034" y="38.57631" fill-opacity=".5"/><path fill="none" stroke="#000" stroke-miterlimit="10" stroke-opacity=".5" stroke-width=".39688" d="M34.96484 143.3164v31.76173"/><use xlink:href="#g" x="7.73034" y="187.73758" fill-opacity=".5"/><path fill="none" stroke="#000" stroke-miterlimit="10" stroke-width=".79377" d="M3.20703 159.19531H378.1797"/><path d="M382.32422 159.19531c-.50781-.10547-2.7461-.70312-4.14453-1.35937v2.71875c1.39844-.65235 3.63672-1.2539 4.14453-1.35938m0 0"/><g clip-path="url(#h)"><path fill="none" stroke="#000" stroke-miterlimit="10" stroke-width=".79377" d="M382.32422 159.19531c-.50781-.10547-2.7461-.70312-4.14453-1.35937v2.71875c1.39844-.65235 3.63672-1.2539 4.14453-1.35938Zm0 0"/></g><path fill="none" stroke="#000" stroke-miterlimit="10" stroke-width=".79377" d="M34.96484 190.95703V6.54686"/><path stroke="#000" stroke-miterlimit="10" stroke-width=".79377" d="M34.96484 2.39844c-.10547.51172-.70312 2.75-1.35937 4.14843h2.71875c-.65235-1.39843-1.2539-3.63671-1.35938-4.14843Zm0 0"/><use xlink:href="#i" x="90.9402" y="100.88959"/><use xlink:href="#i" x="154.45955" y="132.64877"/><use xlink:href="#i" x="217.9799" y="148.52886"/><use xlink:href="#i" x="281.49925" y="156.4694"/><use xlink:href="#i" x="345.0196" y="160.43917"/></svg>