<svg xmlns="http://www.w3.org/2000/svg" xmlns:xlink="http://www.w3.org/1999/xlink" width="214.623pt" height="144.609pt" viewBox="0 0 214.623 144.609"><defs><path id="a" d="M.4375-3.51562C.4375-1.40625 1.04688.125 2.78125.125c1.73438 0 2.35938-1.53125 2.35938-3.64062 0-2.09375-.625-3.625-2.35938-3.625S.4375-5.60937.4375-3.51562m1.0625 0c0-1.70313.28125-3.25 1.28125-3.25s1.28125 1.54687 1.28125 3.25C4.0625-1.79687 3.78125-.25 2.78125-.25S1.5-1.79687 1.5-3.51562m0 0"/><path id="b" d="M1.14063 0h3.45312v-.29687L3.70313-.375c-.21875-.03125-.34375-.10937-.34375-.51562v-6.1875l-.04688-.0625-2.17187.375v.25l.98437.125c.17188.01562.25.09375.25.40625v5.09375c0 .40625-.10937.48437-.35937.51562l-.875.07813Zm0 0"/><path id="c" d="M.28125-.09375.39063 0h4.34375l.35937-1.39062-.29687-.04688c-.21875.5625-.42188.64063-.85938.64063H1.26563c.17187-.54688.79687-1.29688 1.76562-2 1-.73438 1.78125-1.20313 1.78125-2.375 0-1.46875-.96875-1.96875-2.07812-1.96875-1.4375 0-2.17188.875-2.17188 1.42187 0 .35938.39063.53125.57813.53125s.25-.125.29687-.29687c.17188-.71875.57813-1.28125 1.23438-1.28125.79687 0 1.03125.67187 1.03125 1.4375 0 1.125-.5625 1.76562-1.48438 2.5625C.92188-1.625.48438-.92187.28125-.09375m0 0"/><path id="d" d="M.28125-1.07812C.28125-.625 1 .125 2.48438.125c1.53125 0 2.48437-.76562 2.48437-2.10937 0-1.40625-1.20312-1.82813-1.78125-1.875v-.04688C3.75-4 4.65625-4.42187 4.65625-5.46875c0-1.15625-.90625-1.67187-2.03125-1.67187-1.39062 0-2.0625.8125-2.0625 1.25 0 .32812.35938.5.51563.5.125 0 .20312-.07813.25-.20313.23437-.71875.625-1.17187 1.21875-1.17187.82812 0 1.04687.71875 1.04687 1.3125 0 .625-.23437 1.42187-1.125 1.42187-.5 0-.79687-.10937-.92187-.10937s-.1875.10937-.1875.29687c0 .17188.0625.29688.1875.29688s.42187-.10938.92187-.10938c.89063 0 1.39063.8125 1.39063 1.71875C3.85938-.6875 3.25-.25 2.5-.25c-.6875 0-1.14062-.51562-1.34375-1.10937-.07812-.1875-.17187-.29688-.3125-.29688-.20312 0-.5625.20313-.5625.57813m0 0"/><path id="e" d="m.20313-2.09375.09375.21875h2.85937v1.07813c0 .34375-.125.40625-.375.42187l-.67187.07813V0H4.875v-.29687l-.46875-.0625c-.23437-.03125-.3125-.09375-.3125-.4375V-1.875h1.07813v-.5H4.09375v-4.64062h-.76562C2.34375-5.5625 1.15625-3.75.20313-2.09375m.75-.28125C1.59375-3.51562 2.34375-4.71875 3.15625-6v3.625Zm0 0"/><path id="f" d="M.42188-1.07812C.42188-.59375 1.15625.125 2.53125.125c1.71875 0 2.5-1.04687 2.5-2.375 0-1.48437-.90625-2.23437-2.15625-2.23437-.57812 0-1.21875.26562-1.5625.5625l.23438-1.98438c.04687-.26562.10937-.3125.3125-.3125h2.60937l.25-.70312-.04687-.09375H1.15625l-.09375.09375-.21875 3.51562.26563.14063c.4375-.51563.85937-.75 1.42187-.75.67188 0 1.40625.48437 1.40625 1.875C3.9375-1.0625 3.51563-.25 2.59375-.25c-.73437 0-1.10937-.51562-1.3125-1.125-.0625-.15625-.17187-.25-.3125-.25-.20312 0-.54687.20313-.54687.54688m0 0"/><path id="h" d="m1.6875-1.26562.48438.48437L4.20313-2.8125 6.23438-.78125l.46875-.48437L4.6875-3.29687l2.01563-2.03125-.46875-.46875-2.03125 2.01562-2.03125-2.01562-.48438.46875 2.03125 2.03125Zm0 0"/><clipPath id="g"><path d="M196 111h18.14453v26H196Zm0 0"/></clipPath></defs><path fill="none" stroke="#000" stroke-miterlimit="10" stroke-opacity=".5" stroke-width=".39742" d="M1.72266 124.07812h212.02725M1.72266 88.7422h212.02725M1.72266 53.40238h212.02725M1.72266 18.06645h212.02725M19.39063 141.7461V.39459m35.33982 141.3515V.39459m35.33592 141.3515V.39459m35.33983 141.3515V.39459m35.33592 141.3515V.39459m35.33983 141.3515V.39459M19.39063 115.2422v17.67186"/><use xlink:href="#a" x="4.24119" y="139.95658" fill-opacity=".5"/><path fill="none" stroke="#000" stroke-miterlimit="10" stroke-opacity=".5" stroke-width=".39742" d="M54.73045 115.2422v17.67186"/><use xlink:href="#b" x="51.9462" y="136.48397" fill-opacity=".5"/><path fill="none" stroke="#000" stroke-miterlimit="10" stroke-opacity=".5" stroke-width=".39742" d="M90.06637 115.2422v17.67186"/><use xlink:href="#c" x="87.28465" y="136.48397" fill-opacity=".5"/><path fill="none" stroke="#000" stroke-miterlimit="10" stroke-opacity=".5" stroke-width=".39742" d="M125.4062 115.2422v17.67186"/><use xlink:href="#d" x="122.6221" y="136.42313" fill-opacity=".5"/><path fill="none" stroke="#000" stroke-miterlimit="10" stroke-opacity=".5" stroke-width=".39742" d="M160.74212 115.2422v17.67186"/><use xlink:href="#e" x="157.95956" y="136.42313" fill-opacity=".5"/><path fill="none" stroke="#000" stroke-miterlimit="10" stroke-opacity=".5" stroke-width=".39742" d="M196.08195 115.2422v17.67186"/><use xlink:href="#f" x="193.29701" y="136.3613" fill-opacity=".5"/><path fill="none" stroke="#000" stroke-miterlimit="10" stroke-width=".79486" d="M1.72266 124.07812h205.8671"/><path d="M211.74219 124.07813c-.50781-.10547-2.75-.70704-4.15235-1.35938v2.71875c1.40235-.65234 3.64453-1.2539 4.15235-1.35937m0 0"/><g clip-path="url(#g)"><path fill="none" stroke="#000" stroke-miterlimit="10" stroke-width=".79486" d="M211.74219 124.07812c-.50782-.10546-2.75-.70703-4.15235-1.35937v2.71875c1.40235-.65234 3.64453-1.2539 4.15235-1.35938Zm0 0"/></g><path fill="none" stroke="#000" stroke-miterlimit="10" stroke-opacity=".5" stroke-width=".39742" d="M28.22656 88.7422H10.5586"/><use xlink:href="#b" x="4.24119" y="92.3124" fill-opacity=".5"/><path fill="none" stroke="#000" stroke-miterlimit="10" stroke-opacity=".5" stroke-width=".39742" d="M28.22656 53.40238H10.5586"/><use xlink:href="#c" x="4.24119" y="56.97495" fill-opacity=".5"/><path fill="none" stroke="#000" stroke-miterlimit="10" stroke-opacity=".5" stroke-width=".39742" d="M28.22656 18.06645H10.5586"/><use xlink:href="#d" x="4.24119" y="21.57566" fill-opacity=".5"/><path fill="none" stroke="#000" stroke-miterlimit="10" stroke-width=".79486" d="M19.39063 141.74609V6.55474"/><path stroke="#000" stroke-miterlimit="10" stroke-width=".79486" d="M19.39063 2.40235c-.10547.51171-.70704 2.7539-1.35938 4.15234h2.72266c-.65625-1.39844-1.2539-3.64063-1.36328-4.15234Zm0 0"/><use xlink:href="#h" x="50.53202" y="20.96631"/><use xlink:href="#h" x="85.86948" y="38.63454"/><use xlink:href="#h" x="121.20693" y="44.52461"/><use xlink:href="#h" x="156.54438" y="47.46865"/><use xlink:href="#h" x="191.88183" y="49.23587"/></svg>