<svg xmlns="http://www.w3.org/2000/svg" xmlns:xlink="http://www.w3.org/1999/xlink" width="286.466pt" height="174.443pt" viewBox="0 0 286.466 174.443"><defs><path id="b" d="M1.82813 0h5.51562v-.48437l-1.40625-.125c-.35937-.03126-.5625-.15626-.5625-.82813v-9.89062l-.07812-.09375-3.46875.59375v.40625l1.5625.20312c.29687.03125.40625.15625.40625.64063v8.14062c0 .67188-.17188.79688-.5625.82813l-1.40625.125Zm0 0"/><path id="c" d="M.45313-.15625.625 0h6.95313l.57812-2.21875-.46875-.09375c-.35937.92188-.70312 1.04688-1.375 1.04688H2.01563c.26562-.875 1.26562-2.07813 2.82812-3.20313 1.60938-1.1875 2.85938-1.9375 2.85938-3.8125 0-2.34375-1.54688-3.14062-3.32813-3.14062-2.29687 0-3.48437 1.39062-3.48437 2.26562 0 .57813.64062.84375.9375.84375.29687 0 .40625-.17187.48437-.46875.26563-1.14062.92188-2.04687 1.95313-2.04687 1.29687 0 1.67187 1.0625 1.67187 2.29687 0 1.8125-.92187 2.82813-2.375 4.10938C1.48438-2.60937.76563-1.46875.45313-.15625m0 0"/><path id="d" d="M.45313-1.71875C.45313-1 1.60938.20313 3.98438.20313c2.4375 0 3.96875-1.23438 3.96875-3.39063 0-2.25-1.92188-2.90625-2.85938-3V-6.25C6-6.40625 7.45313-7.07812 7.45313-8.73437c0-1.85938-1.45313-2.6875-3.25-2.6875-2.21875 0-3.3125 1.28125-3.3125 2 0 .51562.59375.8125.82812.8125.21875 0 .34375-.125.40625-.34375.375-1.14063 1-1.875 1.95313-1.875 1.3125 0 1.65625 1.15625 1.65625 2.10937 0 1-.35938 2.26563-1.78125 2.26563-.8125 0-1.26563-.15625-1.46875-.15625-.21875 0-.29688.15625-.29688.45312s.07813.46875.29688.46875c.20312 0 .65625-.15625 1.46875-.15625 1.42187 0 2.23437 1.28125 2.23437 2.75 0 2-.98437 2.70313-2.1875 2.70313-1.10937 0-1.84375-.82813-2.15625-1.76563-.10937-.32812-.26562-.48437-.5-.48437-.3125 0-.89062.3125-.89062.92187m0 0"/><path id="e" d="M.32813-3.35937.46875-3h4.57813v1.71875c0 .5625-.1875.65625-.59375.6875L3.375-.48437V0h4.4375v-.48437l-.75-.09375c-.39062-.04688-.5-.14063-.5-.70313V-3h1.71875v-.79687H6.5625v-7.42188H5.32813c-1.57813 2.3125-3.46875 5.23438-5 7.85938m1.20312-.4375c1-1.8125 2.21875-3.76563 3.51563-5.79688v5.79688Zm0 0"/><path id="f" d="M.70313-5.60937c0 3.35937.98437 5.8125 3.75 5.8125S8.21875-2.25 8.21875-5.60937s-1-5.8125-3.76562-5.8125-3.75 2.45312-3.75 5.8125m1.6875 0c0-2.73438.46875-5.21875 2.0625-5.21875S6.5-8.34375 6.5-5.60937 6.04688-.39062 4.45313-.39062 2.39063-2.875 2.39063-5.60937m0 0"/><clipPath id="a"><path d="M2 0h283.74219v171H2Zm0 0"/></clipPath><clipPath id="g"><path d="M267 129h18.74219v26H267Zm0 0"/></clipPath></defs><g clip-path="url(#a)"><path fill="none" stroke="#000" stroke-miterlimit="10" stroke-opacity=".5" stroke-width=".39723" d="M2.78516 141.67969h282.56246M2.78516 85.16407h282.56246M2.78516 28.65236h282.56246M31.03906 169.93359V.39455M87.55468 169.9336V.39455m56.51171 169.53904V.39455M200.5781 169.9336V.39455m56.51562 169.53904V.39455"/></g><path fill="none" stroke="#000" stroke-miterlimit="10" stroke-opacity=".5" stroke-width=".39723" d="M87.55468 127.55078v28.25781"/><use xlink:href="#b" x="83.102" y="161.51827" fill-opacity=".5"/><path fill="none" stroke="#000" stroke-miterlimit="10" stroke-opacity=".5" stroke-width=".39723" d="M144.06639 127.55078v28.25781"/><use xlink:href="#c" x="139.61455" y="161.51827" fill-opacity=".5"/><path fill="none" stroke="#000" stroke-miterlimit="10" stroke-opacity=".5" stroke-width=".39723" d="M200.5781 127.55078v28.25781"/><use xlink:href="#d" x="196.12711" y="161.41958" fill-opacity=".5"/><path fill="none" stroke="#000" stroke-miterlimit="10" stroke-opacity=".5" stroke-width=".39723" d="M257.09372 127.55078v28.25781"/><use xlink:href="#e" x="252.63867" y="161.41958" fill-opacity=".5"/><path fill="none" stroke="#000" stroke-miterlimit="10" stroke-opacity=".5" stroke-width=".39723" d="M45.16797 85.16407H16.91016"/><use xlink:href="#b" x="6.8096" y="90.87783" fill-opacity=".5"/><path fill="none" stroke="#000" stroke-miterlimit="10" stroke-opacity=".5" stroke-width=".39723" d="M45.16797 28.65236H16.91016"/><use xlink:href="#c" x="6.8096" y="34.36527" fill-opacity=".5"/><path fill="none" stroke="#000" stroke-miterlimit="10" stroke-opacity=".5" stroke-width=".39723" d="M31.03906 127.55078v28.25781"/><use xlink:href="#f" x="6.8096" y="167.07154" fill-opacity=".5"/><path fill="none" stroke="#000" stroke-miterlimit="10" stroke-width=".79448" d="M2.78516 141.67969h276.40621"/><path d="M283.34375 141.67969c-.51172-.10547-2.75-.70703-4.15234-1.35938v2.71875c1.40234-.65234 3.64062-1.2539 4.15234-1.35937m0 0"/><g clip-path="url(#g)"><path fill="none" stroke="#000" stroke-miterlimit="10" stroke-width=".79448" d="M283.34375 141.67969c-.51172-.10547-2.75-.70703-4.15234-1.35938v2.71875c1.40234-.65234 3.64062-1.2539 4.15234-1.35937Zm0 0"/></g><path fill="none" stroke="#000" stroke-miterlimit="10" stroke-width=".79448" d="M31.03906 169.93359V6.5547"/><path stroke="#000" stroke-miterlimit="10" stroke-width=".79448" d="M31.03906 2.40234c-.10547.50782-.70703 2.75-1.35937 4.15235h2.71875c-.65235-1.40235-1.2539-3.64453-1.35938-4.15235Zm0 0"/></svg>