<svg xmlns="http://www.w3.org/2000/svg" xmlns:xlink="http://www.w3.org/1999/xlink" width="226.189pt" height="122.717pt" viewBox="0 0 226.189 122.717"><defs><path id="a" d="M1.8125-5.92187c0 4.73437 1.0625 9.9375 5.51563 10.125v-.625c-1.5-.29688-3.84375-2.15625-3.84375-9.5 0-7.29688 2.23437-9.15625 3.84375-9.48438v-.625c-4.45313.17188-5.51563 5.375-5.51563 10.10938m0 0"/><path id="b" d="M1.5625-2.51562C1.5625-1.15625 1.96875.25 3.65625.25c2.42188 0 4.29688-2.57812 5.51563-4.82812h.04687l-.6875 2.5c-.10937.42187-.1875.8125-.1875 1.125C8.34375-.17187 8.70313.25 9.4375.25c1.65625 0 2.75-1.4375 3.46875-3.01562l-.48437-.29688c-.39063.73438-1.32813 2.21875-1.90625 2.21875-.25 0-.32813-.15625-.32813-.40625 0-.20312.0625-.45312.125-.73437l3.3125-13.48438-.10937-.09375-3.73438.48438-.10937.5 1.25.10937c.32812.01563.46875.10938.46875.35938q0 .16406-.09375.51562l-.79688 3.375-.04687.03125c-.40625-.1875-1.04688-.34375-1.76563-.34375-4.89062 0-7.125 5.46875-7.125 8.01563m2.07813.17187c0-2.28125 1.82812-7.45312 5.17187-7.45312.65625 0 1.21875.20312 1.45313.42187-.3125 1.60938-1 3.59375-2.07813 5.32813-1 1.64062-2.375 3.20312-3.5 3.20312-.67187 0-1.04687-.5625-1.04687-1.5m0 0"/><path id="d" d="M1.25 3.57813v.625c4.4375-.1875 5.51563-5.39063 5.51563-10.125S5.6875-15.85937 1.25-16.03126v.625c1.60938.32813 3.84375 2.1875 3.84375 9.48438 0 7.34375-2.34375 9.20312-3.84375 9.5m0 0"/><path id="c" d="M1.59375 0h4.92188v-.45312L5.34375-.5625c-.32812-.03125-.48437-.14062-.48437-.6875v-8.67187L4.76563-10l-3.15625.53125v.39063l1.26562.17187c.28125.04688.375.15625.375.60938V-1.25c0 .54688-.14062.65625-.48437.6875l-1.17188.10938Zm0 0"/><path id="e" d="M.42188-.17187.59375 0H6.8125l.53125-2.09375-.4375-.07812c-.34375.78125-.60937.89062-1.20312.89062h-3.75c.23437-.70312 1.01562-1.6875 2.4375-2.64062 1.48437-1 2.54687-1.6875 2.54687-3.29688C6.9375-9.28125 5.54688-10 3.92188-10c-2 0-3.14063 1.15625-3.14063 2.04688 0 .54687.60938.79687.92188.79687.28124 0 .42187-.15625.48437-.4375.23438-1.04687.78125-1.85937 1.64063-1.85937 1.03125 0 1.35937.89062 1.35937 1.96875 0 1.42187-.64062 2.35937-2.01562 3.54687-1.875 1.60938-2.53125 2.67188-2.75 3.76563m0 0"/><path id="f" d="M.40625-1.5625c0 .60938.96875 1.73438 3.1875 1.73438 2.1875 0 3.54688-1.0625 3.54688-2.9375 0-2-1.73438-2.53125-2.48438-2.60938v-.0625c.79688-.14062 2.0625-.71875 2.0625-2.15625C6.71875-9.32812 5.3125-10 3.75-10 1.875-10 .78125-8.95312.78125-8.20312c0 .51562.57813.78125.82813.78125.21874 0 .34375-.14063.42187-.375.32813-1.03125.82813-1.65625 1.625-1.65625 1.09375 0 1.35938 1.03125 1.35938 1.82812 0 .78125-.25 1.98438-1.45313 1.98438-.67187 0-1.10937-.15625-1.32812-.15625s-.29688.17187-.29688.45312.07813.45313.29688.45313.65625-.15625 1.32812-.15625c1.125 0 1.82813.9375 1.82813 2.34375 0 1.6875-.78125 2.32812-1.78125 2.32812-.89063 0-1.5-.67187-1.8125-1.625-.09376-.28125-.25-.4375-.48438-.4375-.32812 0-.90625.3125-.90625.875m0 0"/><clipPath id="g"><path d="M47 .07813h127V64H47Zm0 0"/></clipPath><clipPath id="h"><path d="M105 23h120.38281v69H105Zm0 0"/></clipPath><clipPath id="i"><path d="M59 .07813h127V69H59Zm0 0"/></clipPath></defs><use xlink:href="#a" x="7.44431" y="44.66735"/><use xlink:href="#b" x="16.02128" y="44.66735"/><use xlink:href="#c" x="27.85961" y="49.58173"/><use xlink:href="#d" x="37.12788" y="44.66735"/><use xlink:href="#a" x="118.68147" y="109.9981"/><use xlink:href="#b" x="127.25844" y="109.9981"/><use xlink:href="#e" x="139.09677" y="114.91248"/><use xlink:href="#d" x="148.36504" y="109.9981"/><g fill="red"><use xlink:href="#a" x="175.87739" y="29.92421"/><use xlink:href="#b" x="184.45436" y="29.92421"/></g><use xlink:href="#f" x="196.29269" y="34.83859" fill="red"/><use xlink:href="#d" x="205.56096" y="29.92421" fill="red"/><g clip-path="url(#g)"><path fill="none" stroke="#000" stroke-miterlimit="10" stroke-width=".39708" d="M53.59375 57.47266 167.98825.27736"/></g><g clip-path="url(#h)"><path fill="none" stroke="#000" stroke-miterlimit="10" stroke-width=".39708" d="M110.79295 86.0703 225.18354 28.875"/></g><g clip-path="url(#i)"><path fill="none" stroke="red" stroke-miterlimit="10" stroke-width=".39708" d="m65.03515 63.1914 114.3906-57.1953"/></g></svg>