<svg xmlns="http://www.w3.org/2000/svg" xmlns:xlink="http://www.w3.org/1999/xlink" width="310.216pt" height="107.626pt" viewBox="0 0 310.216 107.626"><defs><path id="a" d="m2.70313-2.03125.76562.78125 3.25-3.26562 3.25 3.26562.75-.78125-3.23437-3.23437 3.23437-3.25-.75-.76563-3.25 3.25-3.25-3.25-.76562.76563 3.25 3.25Zm0 0"/></defs><use xlink:href="#a" x="63.26117" y="100.63529"/><use xlink:href="#a" x="176.25452" y="100.63529"/><use xlink:href="#a" x="176.25452" y="44.13862"/><use xlink:href="#a" x="63.26117" y="44.13862"/><use xlink:href="#a" x="91.50901" y="72.38745"/><use xlink:href="#a" x="289.24687" y="15.89078"/><use xlink:href="#a" x="232.75119" y="44.13862"/><use xlink:href="#a" x="6.76449" y="100.63529"/><path fill="none" stroke="red" stroke-miterlimit="10" stroke-width=".39712" d="M182.96875 96h-11.30079V84.69922h11.30079V96m0-56.5v11.30078h-11.30079V39.5h11.30079m-112.99609 0h11.30078v11.30078H69.97266V39.5m0 56.5V84.69922h11.30078V96H69.97266"/><path fill="none" stroke="#000" stroke-miterlimit="10" stroke-width=".39712" d="M69.97266 96h112.99609V39.5H69.97265Zm0 0"/><path fill="none" stroke="red" stroke-miterlimit="10" stroke-width=".39712" d="m123.66015 98.80469 5.6172-5.61328m-.00001-56.50001-5.61719 5.6172m63.27735 28.41796-7.94141-3.96875m7.9414.9922-7.9414-3.97266M73.94531 70.72656 66 66.75781m7.94531.9922L66 63.77734"/></svg>