<svg xmlns="http://www.w3.org/2000/svg" xmlns:xlink="http://www.w3.org/1999/xlink" width="348.993pt" height="121.08pt" viewBox="0 0 348.993 121.08"><defs><path id="a" d="m3.03125-2.26562.85938.85937 3.625-3.64062 3.65625 3.64062.84375-.85937-3.625-3.625 3.625-3.65625-.84375-.84375-3.65625 3.625-3.625-3.625-.85938.84375 3.64063 3.65625Zm0 0"/></defs><use xlink:href="#a" x="72.0261" y="112.75228"/><use xlink:href="#a" x="198.60928" y="112.75228"/><use xlink:href="#a" x="198.60928" y="49.46019"/><use xlink:href="#a" x="72.0261" y="49.46019"/><use xlink:href="#a" x="103.67463" y="81.10276"/><use xlink:href="#a" x="325.22026" y="17.80472"/><use xlink:href="#a" x="261.92122" y="49.45324"/><use xlink:href="#a" x="8.72706" y="112.75228"/><path fill="none" stroke="red" stroke-miterlimit="10" stroke-width=".3955" d="M206.1289 107.5586h-12.66015V94.89843h12.66015v12.66015m0-63.29295v12.66015h-12.66015V44.26563h12.66015m-126.58202 0h12.65625v12.66015H79.54688V44.26563m0 63.29297V94.89843h12.65625v12.66015H79.54688"/><path fill="none" stroke="#000" stroke-miterlimit="10" stroke-width=".3955" d="M79.54688 107.5586H206.1289V44.26562H79.54688Zm0 0"/><path fill="none" stroke="red" stroke-miterlimit="10" stroke-width=".3955" d="m140.03906 110.35547 5.59375-5.59375m0-63.29297-5.59375 5.59375m70.04688 31.8164-7.91016-3.95702m7.91016.98828-7.91016-3.95313M83.5 78.8789l-7.91016-3.95702m7.91016.98828-7.91016-3.95313"/></svg>