<svg xmlns="http://www.w3.org/2000/svg" xmlns:xlink="http://www.w3.org/1999/xlink" width="125.749pt" height="52.32pt" viewBox="0 0 125.749 52.32"><defs><path id="a" d="M1-3.26562c0 2.60937.59375 5.48437 3.03125 5.57812v-.34375C3.20313 1.8125 1.92188.78125 1.92188-3.26562c0-4.01563 1.21875-5.03125 2.10937-5.21875v-.34375C1.59375-8.73437 1-5.85937 1-3.26562m0 0"/><path id="b" d="M.85938-1.39062c0 .75.21874 1.53125 1.15625 1.53125 1.32812 0 2.35937-1.42188 3.03125-2.65625h.03125l-.375 1.375c-.0625.23437-.10938.4375-.10938.60937 0 .4375.20313.67188.60938.67188.90625 0 1.51562-.79688 1.90625-1.67188l-.26563-.15625C6.625-1.28125 6.10938-.46875 5.79688-.46875c-.14063 0-.1875-.07812-.1875-.21875 0-.10937.03125-.25.07812-.40625L7.5-8.51562l-.0625-.0625-2.04687.28125-.0625.26562.6875.0625c.1875.01563.25.0625.25.20313 0 .0625 0 .15625-.04688.28125L5.78125-5.625 5.75-5.60937c-.21875-.10938-.57812-.1875-.96875-.1875-2.6875 0-3.92187 3-3.92187 4.40625M2-1.29688c0-1.25 1.01563-4.09374 2.85938-4.09374.35937 0 .65625.10937.79687.21875-.17187.89062-.54687 1.98437-1.14062 2.95312-.5625.89063-1.3125 1.75-1.9375 1.75C2.21875-.46875 2-.78125 2-1.29687m0 0"/><path id="d" d="M.6875 1.96875v.34375c2.45313-.09375 3.03125-2.96875 3.03125-5.57812 0-2.59375-.57812-5.46875-3.03125-5.5625v.34375c.89063.1875 2.10938 1.20312 2.10938 5.21875 0 4.04687-1.28125 5.07812-2.10938 5.23437m0 0"/><path id="c" d="M.875 0h2.71875v-.25L2.9375-.3125c-.17187-.01562-.26562-.07812-.26562-.375v-4.76562L2.625-5.5l-1.73437.29688V-5l.6875.09375c.15624.03125.21874.09375.21874.34375v3.875c0 .29688-.07812.35938-.26562.375L.875-.25Zm0 0"/><path id="e" d="M.23438-.09375.32813 0H3.75l.29688-1.15625-.23438-.04687c-.20312.4375-.34375.5-.67187.5h-2.0625c.125-.39063.5625-.9375 1.34375-1.45313.8125-.5625 1.40625-.9375 1.40625-1.82812 0-1.125-.76563-1.51563-1.67188-1.51563C1.0625-5.5.4375-4.85937.4375-4.375c0 .29688.32813.4375.5.4375.15625 0 .23438-.09375.26563-.25.125-.5625.4375-1.01562.90625-1.01562.5625 0 .75.5.75 1.07812 0 .78125-.35938 1.29688-1.10938 1.95313C.71875-1.28125.35938-.70312.23438-.09375m0 0"/><clipPath id="f"><path d="M56 0h68.82031v38H56Zm0 0"/></clipPath></defs><use xlink:href="#a" x="4.78054" y="24.6289"/><use xlink:href="#b" x="9.50126" y="24.6289"/><use xlink:href="#c" x="16.01577" y="27.33375"/><use xlink:href="#d" x="21.11697" y="24.6289"/><use xlink:href="#a" x="66.00481" y="44.84712"/><use xlink:href="#b" x="70.72553" y="44.84712"/><use xlink:href="#e" x="77.24004" y="47.55074"/><use xlink:href="#d" x="82.34124" y="44.84712"/><path fill="none" stroke="#000" stroke-miterlimit="10" stroke-width=".39339" d="M30.17969 31.67578 93.14064.19531"/><g clip-path="url(#f)"><path fill="none" stroke="#000" stroke-miterlimit="10" stroke-width=".39339" d="M61.66016 31.67578 124.62502.19531"/></g></svg>