<svg xmlns="http://www.w3.org/2000/svg" xmlns:xlink="http://www.w3.org/1999/xlink" width="193.885pt" height="67.267pt" viewBox="0 0 193.885 67.267"><defs><clipPath id="b"><path d="M71 51h17v15.54297H71Zm0 0"/></clipPath><path id="a" d="m1.67188-1.25.48437.46875 2-2.01562L6.1875-.78125 6.65625-1.25 4.64063-3.26562l2.01562-2.01563L6.1875-5.75l-2.03125 2-2-2-.48437.46875L3.6875-3.26562Zm0 0"/></defs><use xlink:href="#a" x="40.14541" y="62.43565"/><use xlink:href="#a" x="110.24752" y="62.43565"/><use xlink:href="#a" x="110.24752" y="27.38459"/><use xlink:href="#a" x="40.14541" y="27.38459"/><use xlink:href="#a" x="57.67044" y="44.91061"/><use xlink:href="#a" x="180.34962" y="9.85956"/><use xlink:href="#a" x="145.29857" y="27.38459"/><use xlink:href="#a" x="5.09436" y="62.43565"/><path fill="none" stroke="red" stroke-miterlimit="10" stroke-width=".3942" d="M114.4141 59.5586h-7.01173v-7.00782h7.01172v7.00781m.00001-35.05079v7.01172h-7.01173V24.5078h7.01172m-70.10549 0h7.01171v7.01172H44.3086V24.5078m0 35.0508v-7.00782h7.01171v7.00781H44.3086"/><path fill="none" stroke="#000" stroke-miterlimit="10" stroke-width=".3942" d="M44.3086 59.5586h70.1055V24.5078H44.3086Zm0 0"/><g clip-path="url(#b)"><path fill="none" stroke="red" stroke-miterlimit="10" stroke-width=".3942" d="m76.57423 62.34766 5.57422-5.57422"/></g><path fill="none" stroke="red" stroke-miterlimit="10" stroke-width=".3942" d="m82.14845 21.72264-5.57422 5.57422m41.78127 17.69532-7.88672-3.94531m7.88672.98828-7.88672-3.9414M48.25 44.99218l-7.88281-3.94531m7.88281.98828-7.88281-3.9414"/></svg>