<svg xmlns="http://www.w3.org/2000/svg" xmlns:xlink="http://www.w3.org/1999/xlink" width="87.448pt" height="86.801pt" viewBox="0 0 87.448 86.801"><defs><path id="a" d="M-.21875 0h2.625l.0625-.32812-.64062-.0625C1.6875-.40625 1.625-.48437 1.625-.59375c0-.0625.01563-.15625.0625-.23437.375-.75.75-1.5 1.1875-2.28125h2.60938l.28125 2.40625s-.0625.28124-.3125.3125l-.60938.0625L4.78125 0h2.85938l.0625-.32812-.4375-.04688c-.35938-.03125-.40625-.1875-.46875-.67187l-.85938-7h-.82812l-1.95313 3.4375c-.59375 1.03125-1.5625 2.76562-2 3.45312-.35937.60938-.5625.73438-.92187.76563l-.39063.0625Zm3.32813-3.54687L5-6.96875l.42188 3.42188Zm0 0"/><path id="b" d="M0 0h3.53125c2.8125 0 3.375-1.45312 3.375-2.40625 0-1.23437-.90625-1.76562-1.76562-1.92187l.01562-.03125c1.54688-.1875 2.20313-1.0625 2.20313-1.9375 0-.9375-.54688-1.75-2.6875-1.75H1.71875l-.07812.34375.70312.0625q.28125 0 .28125.28125c0 .07812-.03125.17187-.04687.28125l-1.375 6.10937C1.10937-.57812 1-.45312.71875-.40625L.0625-.32812Zm2.32813-.89062c0-.09376.01562-.17188.03125-.26563l.67187-2.98437h.45313c1.15625 0 2.17187.34375 2.17187 1.67187 0 1.03125-.625 2.0625-2.1875 2.0625-.92187 0-1.14062-.1875-1.14062-.48437M3.125-4.54687l.59375-2.6875c.09375-.35938.15625-.40625.9375-.40625.96875 0 1.51563.48437 1.51563 1.29687 0 1.21875-1.01563 1.79688-2.29688 1.79688Zm0 0"/><path id="c" d="M.60938-3.1875c0 1.53125.75 3.35938 3.64062 3.35938.82813 0 1.60938-.10938 2.35938-.48438l.5625-1.85937h-.34375C6.1875-1 5.60938-.23437 4.17188-.23437c-1.34375 0-2.3125-.85938-2.3125-2.65625 0-1.0625.26562-2.34375.82812-3.26563.57813-.98437 1.5-1.67187 2.75-1.67187 1.46875 0 1.89063.6875 1.89063 1.96875h.35937l.42188-1.75c-.67188-.42188-1.76563-.625-2.57813-.625-2.1875 0-3.45312 1.03125-4.14062 2.125C.75-5.07812.60938-4 .60938-3.1875m0 0"/><path id="d" d="M0 0h3.5625c2.32813 0 3.67188-.84375 4.51563-2.10937.67187-1 .78125-1.96875.78125-2.67188 0-.9375-.32813-1.875-1-2.4375-.6875-.5625-1.71875-.82812-3.01563-.82812h-3.125l-.07812.34375.70312.04687c.1875.01563.26563.10938.26563.29688 0 .07812-.01563.17187-.03125.28125L1.1875-.96875C1.09375-.57812 1-.4375.71875-.40625L.0625-.32812Zm2.29688-.85937c0-.04688 0-.09376.01562-.14063l1.40625-6.21875c.09375-.39062.25-.42187 1.26563-.42187 2.42187.04687 2.625 1.67187 2.625 2.60937 0 1-.23438 1.9375-.75 2.79688C6.1875-1.14062 5.20313-.40625 3.26563-.40625c-.5625 0-.96875-.07812-.96875-.45312m0 0"/></defs><use xlink:href="#a" x="4.12496" y="12.34155"/><use xlink:href="#b" x="4.49562" y="81.94619"/><use xlink:href="#c" x="73.66699" y="82.13201"/><use xlink:href="#d" x="73.66699" y="12.34155"/><path fill="none" stroke="red" stroke-miterlimit="10" stroke-width=".396" d="M16.48047 69.53125v-7.04297h7.03906v7.04297h-7.03906m52.81639 0h-7.04297v-7.04297h7.04297v7.04297m0-52.81639v7.03906h-7.04297v-7.03906h7.04297m-52.81639 0h7.03906v7.03906h-7.03906v-7.03906"/><path fill="none" stroke="#000" stroke-miterlimit="10" stroke-width=".396" d="M16.48047 16.71486v52.81639m0 0h52.81639m0 0v-52.8164m0 .00001h-52.8164"/><path fill="none" stroke="red" stroke-miterlimit="10" stroke-width=".396" d="m13.67969 40.32032 5.59765 5.60156m52.8203 0-5.60156-5.60156M40.08593 72.33203l5.60156-5.60156m-5.60156-47.21483 5.60156-5.60156"/></svg>