<svg xmlns="http://www.w3.org/2000/svg" xmlns:xlink="http://www.w3.org/1999/xlink" width="201.08pt" height="83.593pt" viewBox="0 0 201.08 83.593"><defs><path id="a" d="M1.60938-5.25c0 4.20313.95312 8.8125 4.89062 8.98438v-.5625c-1.32812-.25-3.40625-1.90625-3.40625-8.42188 0-6.48437 1.98438-8.14062 3.40625-8.4375v-.54687C2.5625-14.07812 1.60938-9.45312 1.60938-5.25m0 0"/><path id="b" d="M1.39063-2.23437C1.39063-1.03125 1.75.21875 3.25.21875c2.14063 0 3.8125-2.28125 4.90625-4.28125h.03125l-.60937 2.21875c-.10938.375-.15625.71875-.15625.98438 0 .70312.3125 1.07812.96875 1.07812 1.46875 0 2.4375-1.26562 3.0625-2.67187l-.42188-.26563C10.6875-2.0625 9.85938-.75 9.34375-.75c-.21875 0-.29687-.14062-.29687-.35937 0-.17188.04687-.39063.10937-.65625l2.9375-11.96875L12-13.8125l-3.3125.42188-.10937.4375 1.125.10937c.29687.01563.40625.09375.40625.3125 0 .09375-.01563.25-.07813.45313l-.71875 3-.03125.03125c-.35937-.17188-.9375-.3125-1.5625-.3125-4.34375 0-6.32812 4.85937-6.32812 7.125m1.84375.15625c0-2.03125 1.625-6.625 4.59375-6.625.57812 0 1.07812.17187 1.29687.375-.28125 1.42187-.89062 3.1875-1.84375 4.73437C6.39063-2.14062 5.15625-.75 4.15625-.75c-.59375 0-.92187-.5-.92187-1.32812m0 0"/><path id="d" d="M1.10938 3.17188v.5625C5.0625 3.5625 6.01563-1.04687 6.01563-5.25s-.95313-8.82812-4.90625-8.98437v.54687c1.42187.29688 3.40625 1.95313 3.40625 8.4375 0 6.51563-2.07813 8.17188-3.40625 8.42188m0 0"/><path id="c" d="M1.42188 0h4.35937v-.40625L4.75-.5c-.29687-.03125-.4375-.125-.4375-.60937v-7.6875l-.07812-.0625-2.8125.46875v.34375l1.125.15625c.25.03125.34375.14062.34375.53125v6.25c0 .48437-.125.57812-.4375.60937l-1.03125.09375Zm0 0"/><path id="e" d="M.375-.15625.53125 0h5.51563l.46875-1.85937-.39063-.0625c-.29687.6875-.53125.78125-1.0625.78125H1.73438c.20312-.625.90625-1.5 2.17187-2.34375 1.3125-.89063 2.25-1.5 2.25-2.92188 0-1.82812-1.23437-2.45312-2.67187-2.45312-1.78125 0-2.79688 1.01562-2.79688 1.8125 0 .46875.54688.6875.82813.6875.25 0 .375-.14063.42187-.39063.21875-.90625.70313-1.625 1.46875-1.625.90625 0 1.20313.78125 1.20313 1.73438 0 1.25-.57813 2.09375-1.79688 3.14062C1.15625-2.0625.5625-1.125.375-.15625m0 0"/><clipPath id="f"><path d="M92 0h108.13672v57H92Zm0 0"/></clipPath></defs><use xlink:href="#a" x="6.63819" y="39.60616"/><use xlink:href="#b" x="14.25243" y="39.60616"/><use xlink:href="#c" x="24.76195" y="43.96892"/><use xlink:href="#d" x="32.9879" y="39.60616"/><use xlink:href="#a" x="105.38939" y="72.21639"/><use xlink:href="#b" x="113.00362" y="72.21639"/><use xlink:href="#e" x="123.51315" y="76.57915"/><use xlink:href="#d" x="131.74109" y="72.21639"/><path fill="none" stroke="#000" stroke-miterlimit="10" stroke-width=".39657" d="M47.60937 50.97656 149.16018.19921"/><g clip-path="url(#f)"><path fill="none" stroke="#000" stroke-miterlimit="10" stroke-width=".39657" d="M98.38673 50.97656 199.93753.19921"/></g></svg>