<svg xmlns="http://www.w3.org/2000/svg" xmlns:xlink="http://www.w3.org/1999/xlink" width="158.976pt" height="108.224pt" viewBox="0 0 158.976 108.224"><defs><path id="a" d="M1-3.28125c0 2.625.59375 5.5 3.04688 5.60938v-.34375c-.82813-.17188-2.125-1.1875-2.125-5.26563 0-4.03125 1.23437-5.0625 2.125-5.25V-8.875C1.59375-8.78125 1-5.89062 1-3.28125m0 0"/><path id="b" d="M.85938-1.39062c0 .75.23437 1.53125 1.17187 1.53125 1.32813 0 2.375-1.42188 3.04688-2.67188h.03125l-.39063 1.375c-.0625.23438-.09375.45313-.09375.625 0 .4375.1875.67188.60938.67188.90625 0 1.51562-.79688 1.90625-1.67188L6.875-1.6875c-.21875.40625-.73437 1.21875-1.04687 1.21875-.14063 0-.1875-.09375-.1875-.21875 0-.10937.03125-.25.0625-.40625L7.54688-8.5625l-.0625-.04687-2.07813.26562-.04687.26563.6875.0625c.1875.01562.25.0625.25.20312 0 .0625 0 .15625-.04688.28125l-.4375 1.875-.03125.01563c-.21875-.10938-.57812-.1875-.96875-.1875-2.71875 0-3.95312 3.01562-3.95312 4.4375m1.15625.09374c0-1.26562 1.01562-4.125 2.85937-4.125.35938 0 .67188.10938.8125.23438-.17187.89063-.5625 1.98438-1.15625 2.95313-.54687.90625-1.3125 1.76562-1.9375 1.76562-.375 0-.57812-.3125-.57812-.82812m0 0"/><path id="d" d="M.6875 1.98438v.34375C3.15625 2.21875 3.75-.65625 3.75-3.28125c0-2.60937-.59375-5.5-3.0625-5.59375v.34375c.89063.1875 2.125 1.21875 2.125 5.25 0 4.07813-1.29687 5.09375-2.125 5.26563m0 0"/><path id="c" d="m.17188-1.64062.09375.1875H2.4375V-.625c0 .26563-.09375.3125-.26562.32813L1.64063-.25V0H3.875v-.25L3.5-.29687c-.17187-.01563-.23437-.0625-.23437-.32813v-.82812h.84375V-1.875h-.84375v-3.5625h-.6875C1.79688-4.28125.90625-2.90625.17188-1.64062M.82813-1.875c.45312-.84375 1.01562-1.76562 1.60937-2.71875V-1.875Zm0 0"/><path id="e" d="M.89063 0h2.71875v-.25l-.65625-.0625c-.17188-.01562-.26563-.07812-.26563-.375v-4.79687l-.04687-.04688-1.75.29688v.21875l.70312.09375c.15625.01562.20313.07812.20313.32812V-.6875c0 .29688-.07813.35938-.26563.375L.89063-.25Zm0 0"/><path id="f" d="M.23438-.09375.32813 0h3.45312l.28125-1.15625-.23437-.04687c-.1875.4375-.34375.5-.67188.5H1.07813c.14062-.39063.5625-.9375 1.35937-1.46875C3.25-2.73437 3.84375-3.10937 3.84375-4c0-1.14062-.76562-1.53125-1.67187-1.53125-1.10938 0-1.73438.64063-1.73438 1.14063 0 .28125.32813.42187.5.42187.15625 0 .23438-.07812.28125-.23437.125-.57813.42188-1.03125.90625-1.03125.5625 0 .75.5.75 1.09375 0 .78125-.35937 1.29687-1.125 1.95312C.71875-1.29687.35938-.70312.23438-.09375m0 0"/><path id="g" d="M.21875-.85937c0 .32812.54688.95312 1.76563.95312S3.95313-.5 3.95313-1.53125c0-1.10937-.95313-1.40625-1.375-1.45312v-.03125c.4375-.07813 1.14062-.39063 1.14062-1.1875 0-.95313-.78125-1.32813-1.64062-1.32813-1.04688 0-1.64063.57813-1.64063 1 0 .26563.3125.42188.45313.42188.125 0 .1875-.07813.23437-.20313.1875-.5625.45313-.92187.90625-.92187.59375 0 .75.57812.75 1.01562 0 .42188-.14062 1.09375-.8125 1.09375-.375 0-.60937-.09375-.73437-.09375s-.15626.10938-.15626.26563.03126.25.15626.25.35937-.09375.73437-.09375c.625 0 1.01563.51562 1.01563 1.29687 0 .9375-.4375 1.29688-.98438 1.29688-.5 0-.82812-.375-1-.90625-.0625-.15626-.14062-.23438-.26562-.23438-.1875 0-.51563.17188-.51563.48438m0 0"/></defs><use xlink:href="#a" x="4.67543" y="93.52837"/><use xlink:href="#b" x="9.42345" y="93.52837"/><use xlink:href="#c" x="15.97565" y="96.24886"/><use xlink:href="#d" x="21.10637" y="93.52837"/><use xlink:href="#a" x="89.99466" y="12.99979"/><use xlink:href="#b" x="94.74269" y="12.99979"/><use xlink:href="#e" x="101.29613" y="15.71904"/><use xlink:href="#d" x="106.42684" y="12.99979"/><use xlink:href="#a" x="133.0976" y="30.20244"/><use xlink:href="#b" x="137.84563" y="30.20244"/><use xlink:href="#f" x="144.39907" y="32.92293"/><use xlink:href="#d" x="149.52978" y="30.20244"/><use xlink:href="#a" x="133.0976" y="100.51726"/><use xlink:href="#b" x="137.84563" y="100.51726"/><use xlink:href="#g" x="144.39907" y="103.23775"/><use xlink:href="#d" x="149.52978" y="100.51726"/><path fill="none" stroke="#000" stroke-miterlimit="10" stroke-width=".39566" d="M30.22266 90.44922v-70.3633m-7.03516 7.03906h105.543m-28.14454-7.03906v84.43752m28.14454-7.03906H58.3672"/></svg>