<svg xmlns="http://www.w3.org/2000/svg" xmlns:xlink="http://www.w3.org/1999/xlink" width="283.863pt" height="252.115pt" viewBox="0 0 283.863 252.115"><defs><path id="a" d="m2.70313-2.03125.76562.78125 3.25-3.26562 3.25 3.26562.75-.78125-3.23437-3.23437 3.23437-3.25-.75-.76563-3.25 3.25-3.25-3.25-.76562.76563 3.25 3.25Zm0 0"/><path id="b" d="M-.35937 0h4.21875l.10937-.53125L2.9375-.64062c-.23437-.01563-.32812-.14063-.32812-.3125 0-.09376.03125-.23438.09375-.375.60937-1.1875 1.20312-2.40625 1.90625-3.65625h4.1875L9.25-1.125s-.09375.45313-.48437.48438l-1 .10937L7.67188 0H12.25l.125-.53125-.71875-.0625c-.57812-.0625-.65625-.3125-.75-1.09375l-1.375-11.21875H8.20313l-3.14063 5.5c-.95312 1.67188-2.5 4.45313-3.20312 5.5625C1.26563-.875.95313-.67187.375-.60937l-.60937.07812Zm5.34375-5.70312 3.03125-5.48438.6875 5.48438Zm0 0"/><path id="c" d="M0 0h5.65625c4.51563 0 5.42188-2.32812 5.42188-3.875 0-1.96875-1.45313-2.8125-2.8125-3.07812l.01562-.03125c2.48438-.29688 3.53125-1.71875 3.53125-3.125 0-1.51563-.89062-2.79688-4.32812-2.79688H2.76563l-.125.53125 1.10937.10938c.32813.01562.45313.15625.45313.45312 0 .10938-.03125.28125-.07813.45313l-2.20312 9.8125c-.14063.60937-.3125.82812-.76563.89062l-1.0625.125Zm3.73438-1.4375c0-.125.01562-.26562.0625-.40625l1.0625-4.79687h.73437c1.85938 0 3.48438.54687 3.48438 2.67187 0 1.67188-1.01563 3.3125-3.51563 3.3125-1.46875 0-1.82812-.29687-1.82812-.78125M5-7.28125l.98438-4.34375c.125-.54687.23437-.64062 1.48437-.64062 1.5625 0 2.4375.78125 2.4375 2.09375 0 1.95312-1.625 2.89062-3.6875 2.89062Zm0 0"/><path id="d" d="M.39063 0H5.5l.125-.53125-1.10937-.07812c-.32813-.03126-.46875-.20313-.46875-.5 0-.125.03125-.28126.0625-.4375l2.21875-9.8125c.14062-.57813.32812-.89063.79687-.9375l1.03125-.07813.125-.53125H3.17188l-.14063.53125 1.125.07813c.3125.03125.45313.21875.45313.51562 0 .125-.01563.26563-.0625.42188l-2.25 9.8125c-.125.59375-.3125.85937-.76563.89062L.5-.53125Zm0 0"/><clipPath id="e"><path d="M.42969 81h282.86719v83H.42967Zm0 0"/></clipPath><clipPath id="f"><path d="M104 0h74v251.23438h-74Zm0 0"/></clipPath></defs><use xlink:href="#a" x="22.16292" y="98.61583"/><use xlink:href="#b" x="35.88874" y="86.96473"/><use xlink:href="#a" x="248.14067" y="155.11051"/><use xlink:href="#c" x="261.86749" y="143.45941"/><use xlink:href="#a" x="135.1523" y="126.86367"/><use xlink:href="#d" x="148.87812" y="115.21157"/><path fill="none" stroke="red" stroke-miterlimit="10" stroke-width=".39711" d="m141.86328 122.22656-10.96093-2.73828 2.74218-10.96094 10.96094 2.73828-2.74219 10.96094"/><g clip-path="url(#e)"><path fill="none" stroke="#000" stroke-miterlimit="10" stroke-width=".39711" d="m.625 86.63672 282.47657 71.1836"/></g><g clip-path="url(#f)"><path fill="none" stroke="#000" stroke-miterlimit="10" stroke-width=".39711" d="m172.3711.19922-62.70704 250.83594"/></g></svg>