<svg xmlns="http://www.w3.org/2000/svg" xmlns:xlink="http://www.w3.org/1999/xlink" width="226.179pt" height="134.192pt" viewBox="0 0 226.179 134.192"><defs><path id="a" d="M1.8125-5.90625c0 4.71875 1.0625 9.92188 5.5 10.09375v-.625c-1.5-.28125-3.84375-2.14062-3.84375-9.46875 0-7.28125 2.23438-9.14062 3.84375-9.46875V-16c-4.4375.1875-5.5 5.375-5.5 10.09375m0 0"/><path id="b" d="M1.5625-2.51562C1.5625-1.15625 1.95313.25 3.65625.25c2.40625 0 4.28125-2.5625 5.5-4.8125h.04688l-.6875 2.48438c-.10938.42187-.1875.8125-.1875 1.125C8.32813-.17187 8.6875.25 9.42188.25c1.65625 0 2.75-1.4375 3.45312-3.01562l-.48437-.28125c-.375.73437-1.3125 2.20312-1.89063 2.20312-.25 0-.34375-.15625-.34375-.40625 0-.20312.07813-.4375.14063-.73437l3.29687-13.45313-.10937-.09375-3.71875.48438-.125.5 1.25.10937c.34375.01563.46875.10938.46875.35938 0 .10937-.01563.28125-.07813.51562l-.8125 3.35938-.04687.04687c-.39063-.20312-1.04688-.35937-1.75-.35937-4.89063 0-7.10938 5.45312-7.10938 8m2.0625.17187c0-2.26562 1.82813-7.4375 5.17188-7.4375.65625 0 1.20312.20313 1.45312.42188-.3125 1.60937-1 3.59375-2.07812 5.32812-1 1.625-2.375 3.1875-3.5 3.1875-.65625 0-1.04688-.5625-1.04688-1.5m0 0"/><path id="d" d="M1.25 3.5625v.625c4.4375-.17187 5.5-5.375 5.5-10.09375S5.6875-15.8125 1.25-16v.625c1.60938.32813 3.82813 2.1875 3.82813 9.46875 0 7.32813-2.34375 9.1875-3.82813 9.46875m0 0"/><path id="c" d="M1.59375 0H6.5v-.45312L5.32813-.5625C5-.59375 4.84375-.70312 4.84375-1.25v-8.64062L4.75-9.96875l-3.14062.53125v.39063L2.875-8.875c.28125.04688.375.15625.375.60938V-1.25c0 .54688-.14062.65625-.48437.6875l-1.17188.10938Zm0 0"/><path id="e" d="M.42188-.17187.59375 0h6.20313l.53125-2.09375-.4375-.07812c-.34375.78125-.60938.89062-1.20313.89062H1.95313c.23437-.70312 1.01562-1.6875 2.42187-2.625 1.48438-1 2.54688-1.6875 2.54688-3.29687 0-2.04688-1.39063-2.76563-3.01563-2.76563-1.98437 0-3.125 1.15625-3.125 2.04688 0 .53125.60938.78125.92188.78125.28124 0 .42187-.15625.48437-.4375.23438-1.03125.78125-1.84375 1.64063-1.84375 1.01562 0 1.34375.89062 1.34375 1.95312 0 1.42188-.64063 2.35938-2 3.54688-1.875 1.59375-2.53125 2.65625-2.75 3.75m0 0"/><path id="f" d="M.40625-1.5625c0 .60938.96875 1.73438 3.1875 1.73438 2.17188 0 3.53125-1.0625 3.53125-2.9375 0-1.98438-1.73437-2.51563-2.48437-2.59375v-.0625c.79687-.14063 2.0625-.71875 2.0625-2.15625 0-1.71875-1.40625-2.39063-2.95313-2.39063-1.875 0-2.96875 1.04688-2.96875 1.79688 0 .5.57813.76562.82813.76562.21874 0 .34375-.14062.42187-.35937.32813-1.03125.82813-1.65625 1.625-1.65625C4.73438-9.42187 5-8.39062 5-7.60937S4.75-5.625 3.5625-5.625c-.67187 0-1.10937-.15625-1.32812-.15625s-.29688.17188-.29688.45313.07813.45312.29688.45312.65625-.15625 1.32812-.15625c1.10938 0 1.8125.9375 1.8125 2.32813 0 1.6875-.78125 2.32812-1.76562 2.32812-.89063 0-1.5-.67187-1.8125-1.625-.09376-.28125-.25-.4375-.48438-.4375-.32812 0-.90625.3125-.90625.875m0 0"/><clipPath id="g"><path d="M105 34h120.09375v69H105Zm0 0"/></clipPath></defs><use xlink:href="#a" x="7.6951" y="55.88848"/><use xlink:href="#b" x="16.2513" y="55.88848"/><use xlink:href="#c" x="28.06098" y="60.79096"/><use xlink:href="#d" x="37.3068" y="55.88848"/><use xlink:href="#a" x="64.74957" y="121.06007"/><use xlink:href="#b" x="73.30577" y="121.06007"/><use xlink:href="#e" x="85.11544" y="125.96255"/><use xlink:href="#d" x="94.35903" y="121.06007"/><g fill="red"><use xlink:href="#a" x="152.89781" y="46.88768"/><use xlink:href="#b" x="161.45401" y="46.88768"/></g><use xlink:href="#f" x="173.26368" y="51.78792" fill="red"/><use xlink:href="#d" x="182.50951" y="46.88768" fill="red"/><path fill="none" stroke="#000" stroke-miterlimit="10" stroke-width=".39611" d="m53.73437 68.66406 114.1094-57.0547"/><g clip-path="url(#g)"><path fill="none" stroke="#000" stroke-miterlimit="10" stroke-width=".39611" d="m110.78907 97.19141 114.1094-57.0547"/></g><path fill="none" stroke="red" stroke-miterlimit="10" stroke-width=".39611" d="M167.84377 114.3047 110.78907.1953"/><path fill="none" stroke="#009" stroke-miterlimit="10" stroke-width=".39611" d="m126.75783 32.15234-5.10157-10.20704 10.20704-5.10547 5.09765 10.20704-10.20312 5.10547m22.81641 45.63672-5.10157-10.20703 10.20704-5.10156 5.10156 10.20703-10.20703 5.10156"/></svg>