<svg xmlns="http://www.w3.org/2000/svg" xmlns:xlink="http://www.w3.org/1999/xlink" width="254.361pt" height="173.157pt" viewBox="0 0 254.361 173.157"><defs><path id="a" d="M1.60938-5.25c0 4.20313.95312 8.8125 4.89062 8.98438v-.5625c-1.32812-.25-3.40625-1.90625-3.40625-8.42188 0-6.48437 1.98438-8.14062 3.40625-8.4375v-.54687C2.5625-14.07812 1.60938-9.45312 1.60938-5.25m0 0"/><path id="b" d="M1.39063-2.23437C1.39063-1.03125 1.75.21875 3.25.21875c2.14063 0 3.8125-2.28125 4.90625-4.28125h.03125l-.60937 2.21875c-.10938.375-.15625.71875-.15625.98438 0 .70312.3125 1.07812.96875 1.07812 1.46875 0 2.4375-1.26562 3.0625-2.67187l-.42188-.26563C10.6875-2.0625 9.85938-.75 9.34375-.75c-.21875 0-.29687-.14062-.29687-.35937 0-.17188.04687-.39063.10937-.65625l2.9375-11.96875L12-13.8125l-3.3125.42188-.10937.4375 1.125.10937c.29687.01563.40625.09375.40625.3125 0 .09375-.01563.25-.07813.45313l-.71875 3-.03125.03125c-.35937-.17188-.9375-.3125-1.5625-.3125-4.34375 0-6.32812 4.85937-6.32812 7.125m1.84375.15625c0-2.03125 1.625-6.625 4.59375-6.625.57812 0 1.07812.17187 1.29687.375-.28125 1.42187-.89062 3.1875-1.84375 4.73437C6.39063-2.14062 5.15625-.75 4.15625-.75c-.59375 0-.92187-.5-.92187-1.32812m0 0"/><path id="d" d="M1.10938 3.17188v.5625C5.0625 3.5625 6.01563-1.04687 6.01563-5.25s-.95313-8.82812-4.90625-8.98437v.54687c1.42187.29688 3.40625 1.95313 3.40625 8.4375 0 6.51563-2.07813 8.17188-3.40625 8.42188m0 0"/><path id="c" d="m.26563-2.625.15625.3125h3.48437V-1c0 .42188-.14062.48438-.4375.51563l-.82812.07812V0h3.57812v-.40625L5.625-.46875C5.34375-.51562 5.25-.57812 5.25-1v-1.3125h1.32813V-3H5.25v-5.71875H4.14063C2.875-6.85937 1.45313-4.64062.26563-2.625M1.3125-3c.73438-1.35937 1.64063-2.82812 2.59375-4.35937V-3Zm0 0"/><path id="e" d="M1.42188 0h4.35937v-.40625L4.75-.5c-.29687-.03125-.4375-.125-.4375-.60937v-7.6875l-.07812-.0625-2.8125.46875v.34375l1.125.15625c.25.03125.34375.14062.34375.53125v6.25c0 .48437-.125.57812-.4375.60937l-1.03125.09375Zm0 0"/><path id="f" d="M.375-.15625.53125 0h5.51563l.46875-1.85937-.39063-.0625c-.29687.6875-.53125.78125-1.0625.78125H1.73438c.20312-.625.90625-1.5 2.17187-2.34375 1.3125-.89063 2.25-1.5 2.25-2.92188 0-1.82812-1.23437-2.45312-2.67187-2.45312-1.78125 0-2.79688 1.01562-2.79688 1.8125 0 .46875.54688.6875.82813.6875.25 0 .375-.14063.42187-.39063.21875-.90625.70313-1.625 1.46875-1.625.90625 0 1.20313.78125 1.20313 1.73438 0 1.25-.57813 2.09375-1.79688 3.14062C1.15625-2.0625.5625-1.125.375-.15625m0 0"/><path id="g" d="M.35938-1.39062c0 .54687.85937 1.54687 2.82812 1.54687 1.95313 0 3.15625-.95312 3.15625-2.60937 0-1.78125-1.54687-2.25-2.20312-2.3125v-.0625c.70312-.125 1.82812-.64063 1.82812-1.92188 0-1.51562-1.25-2.10937-2.64062-2.10937-1.65625 0-2.64063.92187-2.64063 1.59375 0 .4375.51563.67187.73438.67187.20312 0 .3125-.125.375-.3125.29687-.92187.75-1.46875 1.45312-1.46875.96875 0 1.20313.90625 1.20313 1.60938 0 .6875-.21875 1.75-1.29688 1.75-.59375 0-.98437-.125-1.17187-.125S1.71875-5 1.71875-4.75s.07813.40625.26563.40625.57812-.14062 1.17187-.14062c1 0 1.625.82812 1.625 2.07812 0 1.5-.6875 2.07813-1.57812 2.07813-.78125 0-1.32813-.59375-1.60938-1.45313-.07812-.25-.21875-.39062-.42187-.39062-.29688 0-.8125.28125-.8125.78125m0 0"/></defs><use xlink:href="#a" x="6.90704" y="149.9868"/><use xlink:href="#b" x="14.52128" y="149.9868"/><use xlink:href="#c" x="25.03081" y="154.34956"/><use xlink:href="#d" x="33.25676" y="149.9868"/><use xlink:href="#a" x="143.73093" y="20.84551"/><use xlink:href="#b" x="151.34516" y="20.84551"/><use xlink:href="#e" x="161.85469" y="25.20828"/><use xlink:href="#d" x="170.08264" y="20.84551"/><use xlink:href="#a" x="212.85341" y="48.4342"/><use xlink:href="#b" x="220.46765" y="48.4342"/><use xlink:href="#f" x="230.97717" y="52.79696"/><use xlink:href="#d" x="239.20512" y="48.4342"/><use xlink:href="#a" x="212.85341" y="161.19424"/><use xlink:href="#b" x="220.46765" y="161.19424"/><use xlink:href="#g" x="230.97717" y="165.557"/><use xlink:href="#d" x="239.20512" y="161.19424"/><path fill="none" stroke="#000" stroke-miterlimit="10" stroke-width=".39657" d="M47.8789 145.05078V32.21096M36.59375 43.49611h169.25778m-45.13671-11.28515v135.40623m45.13671-11.28516H93.01171"/></svg>