<svg xmlns="http://www.w3.org/2000/svg" xmlns:xlink="http://www.w3.org/1999/xlink" width="94.258pt" height="52.719pt" viewBox="0 0 94.258 52.719"><defs><path id="a" d="M1-3.28125c0 2.625.59375 5.5 3.04688 5.60938v-.34375c-.82813-.17188-2.125-1.1875-2.125-5.26563 0-4.03125 1.23437-5.0625 2.125-5.25V-8.875C1.59375-8.78125 1-5.89062 1-3.28125m0 0"/><path id="b" d="M.85938-1.39062c0 .75.23437 1.53125 1.17187 1.53125 1.32813 0 2.375-1.42188 3.04688-2.67188h.03125l-.39063 1.375c-.0625.23438-.09375.45313-.09375.625 0 .4375.1875.67188.60938.67188.90625 0 1.51562-.79688 1.90625-1.67188L6.875-1.6875c-.21875.40625-.73437 1.21875-1.04687 1.21875-.14063 0-.1875-.09375-.1875-.21875 0-.10937.03125-.25.0625-.40625L7.54688-8.5625l-.0625-.04687-2.07813.26562-.04687.26563.6875.0625c.1875.01562.25.0625.25.20312 0 .0625 0 .15625-.04688.28125l-.4375 1.875-.03125.01563c-.21875-.10938-.57812-.1875-.96875-.1875-2.71875 0-3.95312 3.01562-3.95312 4.4375m1.15625.09374c0-1.26562 1.01562-4.125 2.85937-4.125.35938 0 .67188.10938.8125.23438-.17187.89063-.5625 1.98438-1.15625 2.95313-.54687.90625-1.3125 1.76562-1.9375 1.76562-.375 0-.57812-.3125-.57812-.82812m0 0"/><path id="d" d="M.6875 1.98438v.34375C3.15625 2.21875 3.75-.65625 3.75-3.28125c0-2.60937-.59375-5.5-3.0625-5.59375v.34375c.89063.1875 2.125 1.21875 2.125 5.25 0 4.07813-1.29687 5.09375-2.125 5.26563m0 0"/><path id="c" d="M.89063 0h2.71875v-.25l-.65625-.0625c-.17188-.01562-.26563-.07812-.26563-.375v-4.79687l-.04687-.04688-1.75.29688v.21875l.70312.09375c.15625.01562.20313.07812.20313.32812V-.6875c0 .29688-.07813.35938-.26563.375L.89063-.25Zm0 0"/><path id="e" d="M.23438-.09375.32813 0h3.45312l.28125-1.15625-.23437-.04687c-.1875.4375-.34375.5-.67188.5H1.07813c.14062-.39063.5625-.9375 1.35937-1.46875C3.25-2.73437 3.84375-3.10937 3.84375-4c0-1.14062-.76562-1.53125-1.67187-1.53125-1.10938 0-1.73438.64063-1.73438 1.14063 0 .28125.32813.42187.5.42187.15625 0 .23438-.07812.28125-.23437.125-.57813.42188-1.03125.90625-1.03125.5625 0 .75.5.75 1.09375 0 .78125-.35937 1.29687-1.125 1.95312C.71875-1.29687.35938-.70312.23438-.09375m0 0"/><clipPath id="f"><path d="M12 .0664h81.52344V50H12Zm0 0"/></clipPath></defs><use xlink:href="#a" x="4.11858" y="25.2165"/><use xlink:href="#b" x="8.8633" y="25.2165"/><use xlink:href="#c" x="15.41094" y="27.9351"/><use xlink:href="#d" x="20.53807" y="25.2165"/><use xlink:href="#a" x="34.01325" y="45.53753"/><use xlink:href="#b" x="38.75796" y="45.53753"/><use xlink:href="#e" x="45.30684" y="48.25489"/><use xlink:href="#d" x="50.43398" y="45.53753"/><g clip-path="url(#f)"><path fill="none" stroke="#000" stroke-miterlimit="10" stroke-width="1.18619" d="M29.64844 32.30078 92.92966.66018"/></g></svg>