<svg xmlns="http://www.w3.org/2000/svg" xmlns:xlink="http://www.w3.org/1999/xlink" width="157.397" height="156.231" viewBox="0 0 157.397 156.231"><defs><path id="a" d="M-.40625 0h4.73438l.14062-.60937-1.17187-.10938c-.26563-.01562-.375-.15625-.375-.35937 0-.10938.04687-.26563.10937-.42188.6875-1.32812 1.35938-2.6875 2.14063-4.09375h4.71875l.5 4.32813s-.10938.5-.54688.54687l-1.125.10938L8.60938 0h5.15625l.14062-.60937-.8125-.0625c-.64062-.0625-.73437-.35938-.84375-1.21875L10.70313-14.5H9.21875L5.6875-8.32812c-1.0625 1.875-2.8125 5-3.59375 6.25C1.42188-.98437 1.07813-.76562.42188-.6875l-.6875.07813Zm6-6.40625 3.42188-6.15625.75 6.15625Zm0 0"/><path id="b" d="M0 0h6.35938c5.0625 0 6.09375-2.60937 6.09375-4.34375 0-2.21875-1.625-3.17187-3.17188-3.46875l.01563-.04687c2.79687-.32813 3.98437-1.90625 3.98437-3.5 0-1.6875-1.01562-3.14063-4.875-3.14063h-5.3125l-.125.59375 1.25.10938c.35938.03125.51563.1875.51563.51562 0 .14063-.04688.3125-.09375.51563L2.17188-1.73437c-.15625.6875-.35938.9375-.875 1l-1.1875.125Zm4.1875-1.60937c0-.15626.03125-.3125.07813-.46875l1.20312-5.375h.82813c2.0625 0 3.90625.60937 3.90625 2.98437 0 1.875-1.14063 3.73438-3.95313 3.73438-1.65625 0-2.0625-.34375-2.0625-.875M5.625-8.1875l1.09375-4.85937c.15625-.625.26563-.75 1.67188-.75 1.76562 0 2.75.90625 2.75 2.375 0 2.1875-1.84375 3.23437-4.15625 3.23437Zm0 0"/><path id="c" d="M1.09375-5.75c0 2.76563 1.35938 6.0625 6.5625 6.0625 1.48438 0 2.92188-.20312 4.26563-.875l1.01562-3.34375h-.625C11.15625-1.8125 10.10938-.42187 7.51563-.42187c-2.42188 0-4.17188-1.5625-4.17188-4.79688 0-1.90625.5-4.21875 1.5-5.89062 1.04688-1.76563 2.70313-2.98438 4.95313-2.98438 2.65625 0 3.40625 1.21875 3.40625 3.51563h.65625l.75-3.14063c-1.20313-.76562-3.15625-1.125-4.64063-1.125-3.9375 0-6.21875 1.85938-7.45312 3.82813-1.15625 1.875-1.42188 3.8125-1.42188 5.26562m0 0"/><path id="d" d="M0 0h6.42188c4.20312 0 6.625-1.51562 8.14062-3.79687 1.21875-1.79688 1.40625-3.5625 1.40625-4.8125 0-1.70313-.59375-3.39063-1.79687-4.40625C12.9375-14.03125 11.0625-14.5 8.75-14.5H3.09375l-.125.59375 1.25.09375c.35938.01563.48438.20313.48438.53125 0 .14063-.01563.3125-.0625.51563l-2.5 11.03125c-.15625.6875-.32813.95312-.84375 1l-1.1875.125Zm4.15625-1.54687c0-.07813 0-.17188.01563-.26563L6.6875-13.01562c.1875-.70313.46875-.78125 2.29688-.78125 4.375.09375 4.73437 3.04687 4.73437 4.71875 0 1.79687-.42187 3.5-1.35937 5.0625C11.15625-2.04687 9.375-.73437 5.89063-.73437c-1.03125 0-1.73438-.14063-1.73438-.8125m0 0"/></defs><use xlink:href="#a" x="7.51985" y="21.93304"/><use xlink:href="#b" x="8.18956" y="147.38454"/><use xlink:href="#c" x="132.85891" y="147.7189"/><use xlink:href="#d" x="132.85891" y="21.93304"/><path fill="none" stroke="red" stroke-miterlimit="10" stroke-width=".39655" d="M29.78906 125.0039v-12.6914h12.6914v12.6914h-12.6914m95.19142 0h-12.69532v-12.6914h12.69532v12.6914m0-95.1914v12.6953h-12.69532V29.8125h12.69532m-95.19142 0h12.6914v12.6953h-12.6914V29.8125"/><path fill="none" stroke="#000" stroke-miterlimit="10" stroke-width=".39655" d="M29.78906 29.8125v95.1914m0 0h95.19142m0 0V29.8125m0 0H29.78906"/><path fill="none" stroke="red" stroke-miterlimit="10" stroke-width=".39655" d="m26.98437 74.60546 5.60938 5.60938m95.19142 0-5.60938-5.60938M74.57813 127.8086l5.60937-5.60938m-5.60937-89.58204 5.60937-5.60938"/></svg>