<svg xmlns="http://www.w3.org/2000/svg" xmlns:xlink="http://www.w3.org/1999/xlink" width="224.957pt" height="110.535pt" viewBox="0 0 224.957 110.535"><defs><path id="a" d="M-.35937 0h4.20312l.125-.53125L2.9375-.64062c-.23437-.01563-.34375-.14063-.34375-.3125 0-.09376.04688-.23438.10938-.375.60937-1.1875 1.20312-2.40625 1.90625-3.65625h4.1875L9.25-1.125s-.10937.45313-.5.48438l-.98437.10937L7.65625 0H12.25l.10938-.53125-.71875-.0625c-.5625-.0625-.64063-.3125-.75-1.09375L9.53125-12.90625H8.20313l-3.14063 5.5c-.95312 1.67188-2.5 4.45313-3.20312 5.5625C1.26563-.875.95313-.67187.375-.60937l-.60937.07812Zm5.34375-5.6875 3.03125-5.48437.67187 5.48437Zm0 0"/><path id="b" d="M0 0h5.65625c4.5 0 5.42188-2.32812 5.42188-3.875 0-1.95312-1.45313-2.8125-2.82813-3.07812l.03125-.03125C10.75-7.28125 11.8125-8.6875 11.8125-10.09375c0-1.51562-.89062-2.8125-4.32812-2.8125H2.76563l-.125.54688 1.10937.09375c.3125.01562.45313.15625.45313.45312 0 .125-.03125.28125-.07813.46875L1.92188-1.54687c-.14063.60937-.3125.82812-.76563.89062l-1.0625.125Zm3.73438-1.42187c0-.14063.01562-.28126.0625-.42188L4.85938-6.625h.73437c1.84375 0 3.46875.53125 3.46875 2.65625 0 1.67188-1 3.3125-3.5 3.3125-1.46875 0-1.82812-.29687-1.82812-.76562M5-7.28125l.96875-4.32812c.14063-.5625.25-.65625 1.5-.65625 1.5625 0 2.4375.79687 2.4375 2.10937 0 1.9375-1.625 2.875-3.6875 2.875Zm0 0"/><path id="c" d="M.96875-5.125C.96875-2.65625 2.1875.28125 6.8125.28125c1.32813 0 2.59375-.1875 3.78125-.78125l.92188-2.96875h-.5625C9.92188-1.60937 8.98438-.375 6.6875-.375c-2.15625 0-3.70312-1.39062-3.70312-4.26562 0-1.6875.42187-3.75 1.32812-5.23438.92188-1.57812 2.39063-2.67187 4.40625-2.67187 2.35938 0 3.03125 1.09375 3.03125 3.14062h.57813L13-12.20312c-1.07812-.67188-2.8125-1-4.125-1-3.51562 0-5.54687 1.65625-6.625 3.40625C1.20313-8.14062.96875-6.40625.96875-5.125m0 0"/><path id="d" d="M0 0h5.71875c3.73438 0 5.89063-1.34375 7.23438-3.375 1.07812-1.60937 1.25-3.17187 1.25-4.28125 0-1.51562-.53125-3.01562-1.60938-3.90625-1.07812-.92187-2.75-1.34375-4.8125-1.34375H2.76563l-.125.54688 1.10937.07812c.3125.01563.4375.17188.4375.46875 0 .125-.01562.28125-.0625.46875L1.90625-1.54687c-.14062.60937-.29687.85937-.75.89062l-1.0625.125Zm3.6875-1.375c0-.07812 0-.15625.01563-.23437l2.25-9.95313c.15625-.64062.42187-.70312 2.04687-.70312 3.89063.07812 4.20313 2.70312 4.20313 4.1875 0 1.60937-.375 3.10937-1.20313 4.5-1.07812 1.75-2.67187 2.92187-5.76562 2.92187-.90625 0-1.54688-.125-1.54688-.71875m0 0"/></defs><use xlink:href="#a" x="7.06296" y="19.51092"/><use xlink:href="#b" x="7.65846" y="102.88319"/><use xlink:href="#c" x="203.24765" y="103.18094"/><use xlink:href="#d" x="203.24765" y="19.51092"/><path fill="none" stroke="red" stroke-miterlimit="10" stroke-width=".39683" d="M26.8711 82.97656V71.6836h11.28906v11.29297H26.87109m169.36722-.00001h-11.28906V71.6836h11.28906v11.29297m0-56.45705V37.8125h-11.28906V26.51952h11.28906m-169.36721 0h11.28906V37.8125H26.87109V26.51952"/><path fill="none" stroke="#000" stroke-miterlimit="10" stroke-width=".39683" d="M26.8711 26.51952v56.45704h169.3672V26.51952Zm0 0"/><path fill="none" stroke="red" stroke-miterlimit="10" stroke-width=".39683" d="m24.0664 51.9414 5.60938 5.61328m169.37112 0-5.61327-5.61328m-84.85549 35.00391 3.96875-7.9375m-.99219 7.9375 3.96875-7.9375m-6.94531-48.51954 3.96875-7.9375m-.99219 7.9375 3.96875-7.9375"/></svg>