<svg xmlns="http://www.w3.org/2000/svg" xmlns:xlink="http://www.w3.org/1999/xlink" width="150.455pt" height="83.991pt" viewBox="0 0 150.455 83.991"><defs><path id="a" d="M1.60938-5.26562c0 4.21875.95312 8.84375 4.90625 9v-.5625c-1.32813-.25-3.42188-1.90625-3.42188-8.4375 0-6.48438 1.98438-8.14063 3.42188-8.4375v-.5625c-3.95313.17187-4.90625 4.79687-4.90625 9m0 0"/><path id="b" d="M1.39063-2.25C1.39063-1.03125 1.75.21875 3.25.21875c2.15625 0 3.8125-2.28125 4.90625-4.29687h.04688l-.60938 2.23437c-.10937.375-.17187.71875-.17187.98438 0 .70312.32812 1.07812.98437 1.07812 1.46875 0 2.4375-1.26562 3.07813-2.6875l-.4375-.25C10.70313-2.0625 9.875-.75 9.35938-.75c-.21875 0-.29688-.14062-.29688-.35937 0-.1875.04688-.40625.10938-.65625l2.9375-12-.09375-.07813-3.3125.4375-.10938.4375 1.125.09375c.29688.03125.40625.10938.40625.32813 0 .09375-.01562.25-.07812.45312l-.71875 3-.03125.03125c-.35938-.17187-.9375-.3125-1.57813-.3125-4.34375 0-6.32812 4.85938-6.32812 7.125m1.84375.17188c0-2.03125 1.625-6.64063 4.60937-6.64063.57813 0 1.07813.17188 1.29688.375-.28125 1.4375-.90625 3.20313-1.85938 4.75C6.39063-2.14062 5.15625-.75 4.17188-.75c-.59375 0-.9375-.5-.9375-1.32812m0 0"/><path id="d" d="M1.10938 3.17188v.5625c3.95312-.15625 4.90625-4.78125 4.90625-9 0-4.20313-.95313-8.82813-4.90625-9v.5625c1.4375.29687 3.42187 1.95312 3.42187 8.4375 0 6.53125-2.09375 8.1875-3.42187 8.4375m0 0"/><path id="c" d="M1.42188 0h4.375v-.40625L4.75-.5c-.29687-.03125-.4375-.125-.4375-.60937V-8.8125l-.07812-.0625-2.79688.46875v.34375l1.125.15625c.25.04688.32813.14063.32813.54688v6.25c0 .48437-.125.57812-.4375.60937l-1.03125.09375Zm0 0"/><path id="e" d="M.375-.15625.53125 0H6.0625l.46875-1.85937-.39062-.07813c-.3125.70313-.54688.79688-1.07813.79688H1.73438c.20312-.625.90625-1.5 2.17187-2.34375 1.3125-.89063 2.26563-1.5 2.26563-2.9375 0-1.8125-1.23438-2.45313-2.6875-2.45313C1.70313-8.875.6875-7.84375.6875-7.0625c0 .48438.54688.70313.82813.70313.25 0 .375-.14063.42187-.39063.21875-.92187.70313-1.64062 1.46875-1.64062.90625 0 1.20313.79687 1.20313 1.73437 0 1.26563-.5625 2.09375-1.79688 3.15625C1.15625-2.0625.5625-1.125.375-.15625m0 0"/><clipPath id="f"><path d="M30 .14844h119.91016V69H30Zm0 0"/></clipPath></defs><use xlink:href="#a" x="6.61703" y="40.19901"/><use xlink:href="#b" x="14.24072" y="40.19901"/><use xlink:href="#c" x="24.7633" y="44.56718"/><use xlink:href="#d" x="32.99947" y="40.19901"/><use xlink:href="#a" x="54.65203" y="72.84973"/><use xlink:href="#b" x="62.27572" y="72.84973"/><use xlink:href="#e" x="72.7983" y="77.21791"/><use xlink:href="#d" x="81.03446" y="72.84973"/><g clip-path="url(#f)"><path fill="none" stroke="#000" stroke-miterlimit="10" stroke-width="1.19121" d="M47.63672 51.58203 149.31643.74217"/></g></svg>