<svg xmlns="http://www.w3.org/2000/svg" xmlns:xlink="http://www.w3.org/1999/xlink" width="253.523pt" height="79.28pt" viewBox="0 0 253.523 79.28"><defs><path id="a" d="m2.6875-2.01562.76563.76562 3.21875-3.23437 3.25 3.23437.75-.76562-3.21875-3.21875 3.21875-3.23438-.75-.75L6.67188-6 3.45313-9.21875l-.76563.75 3.23438 3.23438Zm0 0"/></defs><use xlink:href="#a" x="63.66849" y="71.98525"/><use xlink:href="#a" x="119.85126" y="71.98525"/><use xlink:href="#a" x="119.85126" y="15.80249"/><use xlink:href="#a" x="63.66849" y="15.80249"/><use xlink:href="#a" x="147.94214" y="43.89436"/><use xlink:href="#a" x="232.21678" y="15.80249"/><use xlink:href="#a" x="7.48573" y="15.80249"/><use xlink:href="#a" x="7.48573" y="43.89436"/><use xlink:href="#a" x="108.61431" y="27.03844"/><path fill="none" stroke="red" stroke-miterlimit="10" stroke-width=".39491" d="M126.52734 67.375h-11.23828V56.13672h11.23828V67.375m0-56.1836v11.23438h-11.23828V11.19141h11.23828m-56.18359-.00001h11.23438v11.23438H70.34375V11.19141m0 56.18359V56.13672h11.23438V67.375H70.34375"/><path fill="none" stroke="#000" stroke-miterlimit="10" stroke-width=".39491" d="M70.34375 67.375h56.1836V11.1914h-56.1836Zm0 0"/><path fill="none" stroke="red" stroke-miterlimit="10" stroke-width=".39491" d="m95.64062 70.16797 5.58594-5.58594m0-56.18359-5.58594 5.58593m34.83594 28.26173-7.89843-3.94923m7.89843.98438-7.89843-3.94922M74.29297 42.2461l-7.89844-3.94923m7.89844.98438-7.89844-3.94922"/></svg>