<svg xmlns="http://www.w3.org/2000/svg" xmlns:xlink="http://www.w3.org/1999/xlink" width="226.189" height="94.017" viewBox="0 0 226.189 94.017"><defs><path id="a" d="M1.79688-5.875c0 4.70313 1.0625 9.875 5.48437 10.04688v-.625c-1.48437-.28125-3.8125-2.125-3.8125-9.42188 0-7.26562 2.21875-9.09375 3.8125-9.4375v-.625C2.85938-15.75 1.79688-10.57812 1.79688-5.875m0 0"/><path id="b" d="M1.54688-2.5c0 1.34375.40625 2.75 2.09375 2.75C6.03125.25 7.90625-2.3125 9.125-4.54687h.03125l-.6875 2.48437c-.10937.42188-.17187.79688-.17187 1.10938C8.29688-.17187 8.65625.25 9.39063.25c1.64062 0 2.71875-1.42187 3.4375-3l-.48438-.29687c-.39062.73437-1.3125 2.20312-1.89062 2.20312-.25 0-.32813-.15625-.32813-.40625 0-.1875.0625-.4375.125-.71875L13.53125-15.375l-.10937-.09375-3.70313.5-.10937.48438 1.23437.10937c.34375.01563.46875.10938.46875.35938 0 .10937-.01562.28125-.07812.5l-.8125 3.35937-.03125.03125c-.40625-.1875-1.04688-.34375-1.76563-.34375-4.85937 0-7.07812 5.4375-7.07812 7.96875m2.0625.17188c0-2.26563 1.82812-7.40625 5.15625-7.40625.64062 0 1.20312.1875 1.4375.42187-.3125 1.59375-1 3.5625-2.0625 5.29688-1 1.625-2.375 3.17187-3.48438 3.17187-.65625 0-1.04687-.54687-1.04687-1.48437m0 0"/><path id="d" d="M1.25 3.54688v.625C5.65625 4 6.71875-1.17187 6.71875-5.875S5.65625-15.75 1.25-15.9375v.625c1.59375.34375 3.8125 2.17188 3.8125 9.4375 0 7.29688-2.32812 9.14063-3.8125 9.42188m0 0"/><path id="c" d="M1.57813 0h4.89062v-.45312L5.3125-.5625c-.32812-.03125-.48437-.14062-.48437-.6875v-8.59375l-.09375-.07812-3.14063.53125v.375l1.26563.17187c.28125.04688.375.15625.375.60938V-1.25c0 .54688-.14063.65625-.48438.6875l-1.17187.10938Zm0 0"/><path id="e" d="M.42188-.17187.59375 0h6.17188l.53125-2.07812-.4375-.07813c-.34375.78125-.59375.875-1.1875.875H1.9375c.23438-.6875 1.01563-1.67187 2.42188-2.60937 1.48437-1 2.53125-1.6875 2.53125-3.28125 0-2.03125-1.375-2.75-3-2.75-1.98438 0-3.10938 1.14062-3.10938 2.03125 0 .53125.59375.78125.90625.78125.28125 0 .42188-.15625.48438-.4375C2.40625-8.57812 2.95313-9.375 3.8125-9.375c1.01563 0 1.34375.875 1.34375 1.9375 0 1.40625-.64062 2.34375-2 3.53125C1.29688-2.3125.64063-1.26562.42188-.17187m0 0"/><clipPath id="f"><path d="M105 0h119.61719v63H105Zm0 0"/></clipPath></defs><use xlink:href="#a" x="8.16262" y="44.28597"/><use xlink:href="#b" x="16.68127" y="44.28597"/><use xlink:href="#c" x="28.43912" y="49.16693"/><use xlink:href="#d" x="37.64437" y="44.28597"/><use xlink:href="#a" x="118.64348" y="80.76951"/><use xlink:href="#b" x="127.16214" y="80.76951"/><use xlink:href="#e" x="138.91998" y="85.65048"/><use xlink:href="#d" x="148.12523" y="80.76951"/><path fill="none" stroke="#000" stroke-miterlimit="10" stroke-width=".39438" d="M54 57.0039 167.61332.1953"/><g clip-path="url(#f)"><path fill="none" stroke="#000" stroke-miterlimit="10" stroke-width=".39438" d="M110.80861 57.0039 224.42194.1953"/></g></svg>