<svg xmlns="http://www.w3.org/2000/svg" xmlns:xlink="http://www.w3.org/1999/xlink" width="158.452pt" height="49.55pt" viewBox="0 0 158.452 49.55"><defs><clipPath id="b"><path d="M53 33h17v16.10547H53Zm0 0"/></clipPath><path id="a" d="m1.67188-1.26562.48437.48437 2.01563-2.01562L6.20313-.78125l.46875-.48437-2.01563-2 2.01563-2.03125-.46875-.46875L4.17188-3.75 2.15625-5.76562l-.48437.46875 2.03125 2.03125Zm0 0"/></defs><use xlink:href="#a" x="39.66924" y="44.99041"/><use xlink:href="#a" x="74.78335" y="44.99041"/><use xlink:href="#a" x="74.78335" y="9.87631"/><use xlink:href="#a" x="39.66924" y="9.87631"/><use xlink:href="#a" x="92.3399" y="27.43385"/><use xlink:href="#a" x="145.01155" y="9.87631"/><use xlink:href="#a" x="4.55514" y="9.87631"/><use xlink:href="#a" x="4.55514" y="27.43385"/><use xlink:href="#a" x="67.76013" y="16.89952"/><path fill="none" stroke="red" stroke-miterlimit="10" stroke-width=".39491" d="M78.95313 42.10938h-7.01954v-7.02344h7.01954v7.02344m0-35.11328v7.02343h-7.01954V6.9961h7.01954m-35.11329 0h7.02344v7.02343h-7.02344V6.9961m0 35.11328v-7.02344h7.02344v7.02344h-7.02344"/><path fill="none" stroke="#000" stroke-miterlimit="10" stroke-width=".39491" d="M43.83984 42.10938h35.11329V6.99609H43.83984Zm0 0"/><g clip-path="url(#b)"><path fill="none" stroke="red" stroke-miterlimit="10" stroke-width=".39491" d="m58.60547 44.90234 5.58594-5.58593"/></g><path fill="none" stroke="red" stroke-miterlimit="10" stroke-width=".39491" d="m64.1914 4.20313-5.58593 5.58593m24.30078 17.72657-7.90234-3.94922m7.90234.98437-7.90234-3.94922m-27.21485 6.91407-7.89843-3.94922m7.89843.98437-7.89843-3.94922"/></svg>