<svg xmlns="http://www.w3.org/2000/svg" xmlns:xlink="http://www.w3.org/1999/xlink" width="169.187pt" height="94.415pt" viewBox="0 0 169.187 94.415"><defs><path id="a" d="M1.8125-5.90625c0 4.71875 1.0625 9.92188 5.5 10.09375v-.625c-1.5-.28125-3.84375-2.14062-3.84375-9.46875 0-7.28125 2.23438-9.14062 3.84375-9.46875V-16c-4.4375.1875-5.5 5.375-5.5 10.09375m0 0"/><path id="b" d="M1.5625-2.51562C1.5625-1.15625 1.95313.25 3.65625.25c2.40625 0 4.28125-2.5625 5.5-4.8125h.04688l-.6875 2.48438c-.10938.42187-.1875.8125-.1875 1.125C8.32813-.17187 8.6875.25 9.42188.25c1.65625 0 2.75-1.4375 3.45312-3.01562l-.48437-.28125c-.375.73437-1.3125 2.20312-1.89063 2.20312-.25 0-.34375-.15625-.34375-.40625 0-.20312.07813-.4375.14063-.73437l3.29687-13.45313-.10937-.09375-3.71875.48438-.125.5 1.25.10937c.34375.01563.46875.10938.46875.35938 0 .10937-.01563.28125-.07813.51562l-.8125 3.35938-.04687.04687c-.39063-.20312-1.04688-.35937-1.75-.35937-4.89063 0-7.10938 5.45312-7.10938 8m2.0625.17187c0-2.26562 1.82813-7.4375 5.17188-7.4375.65625 0 1.20312.20313 1.45312.42188-.3125 1.60937-1 3.59375-2.07812 5.32812-1 1.625-2.375 3.1875-3.5 3.1875-.65625 0-1.04688-.5625-1.04688-1.5m0 0"/><path id="d" d="M1.25 3.5625v.625c4.4375-.17187 5.5-5.375 5.5-10.09375S5.6875-15.8125 1.25-16v.625c1.60938.32813 3.82813 2.1875 3.82813 9.46875 0 7.32813-2.34375 9.1875-3.82813 9.46875m0 0"/><path id="c" d="M1.59375 0H6.5v-.45312L5.32813-.5625C5-.59375 4.84375-.70312 4.84375-1.25v-8.64062L4.75-9.96875l-3.14062.53125v.39063L2.875-8.875c.28125.04688.375.15625.375.60938V-1.25c0 .54688-.14062.65625-.48437.6875l-1.17188.10938Zm0 0"/><path id="e" d="M.42188-.17187.59375 0h6.20313l.53125-2.09375-.4375-.07812c-.34375.78125-.60938.89062-1.20313.89062H1.95313c.23437-.70312 1.01562-1.6875 2.42187-2.625 1.48438-1 2.54688-1.6875 2.54688-3.29687 0-2.04688-1.39063-2.76563-3.01563-2.76563-1.98437 0-3.125 1.15625-3.125 2.04688 0 .53125.60938.78125.92188.78125.28124 0 .42187-.15625.48437-.4375.23438-1.03125.78125-1.84375 1.64063-1.84375 1.01562 0 1.34375.89062 1.34375 1.95312 0 1.42188-.64063 2.35938-2 3.54688-1.875 1.59375-2.53125 2.65625-2.75 3.75m0 0"/><clipPath id="f"><path d="M36 0h132.26172v75H36Zm0 0"/></clipPath></defs><use xlink:href="#a" x="7.54192" y="44.86899"/><use xlink:href="#b" x="16.09663" y="44.86899"/><use xlink:href="#c" x="27.90425" y="49.77062"/><use xlink:href="#d" x="37.14847" y="44.86899"/><use xlink:href="#a" x="61.44294" y="81.50698"/><use xlink:href="#b" x="69.99766" y="81.50698"/><use xlink:href="#e" x="81.80528" y="86.40861"/><use xlink:href="#d" x="91.0495" y="81.50698"/><g clip-path="url(#f)"><path fill="none" stroke="#000" stroke-miterlimit="10" stroke-width="1.18817" d="M53.57422 57.64062 167.66796.59376"/></g></svg>