<svg xmlns="http://www.w3.org/2000/svg" xmlns:xlink="http://www.w3.org/1999/xlink" width="201.062pt" height="119.299pt" viewBox="0 0 201.062 119.299"><defs><path id="a" d="M1.60938-5.25c0 4.20313.95312 8.8125 4.89062 8.96875v-.54687C5.17188 2.90625 3.09375 1.26563 3.09375-5.25c0-6.48437 1.98438-8.125 3.40625-8.42187v-.54688C2.5625-14.0625 1.60938-9.45312 1.60938-5.25m0 0"/><path id="b" d="M1.39063-2.23437C1.39063-1.03125 1.75.21875 3.25.21875c2.14063 0 3.79688-2.28125 4.89063-4.28125h.04687l-.625 2.21875c-.09375.375-.15625.71875-.15625.98438 0 .70312.32813 1.07812.96875 1.07812 1.46875 0 2.4375-1.26562 3.07813-2.67187l-.4375-.26563C10.67188-2.0625 9.84375-.75 9.32813-.75c-.21875 0-.29688-.14062-.29688-.35937 0-.17188.0625-.39063.125-.65625l2.92188-11.96875-.09375-.07813-3.3125.4375-.09375.4375 1.10937.09375c.29688.03125.42188.10938.42188.32813 0 .09375-.03125.25-.07813.45312L9.3125-9.07812l-.04687.04687c-.34375-.1875-.92188-.3125-1.5625-.3125-4.32813 0-6.3125 4.84375-6.3125 7.10938m1.84375.15625c0-2.01563 1.625-6.625 4.59375-6.625.57812 0 1.0625.1875 1.28125.375-.26563 1.4375-.89063 3.20312-1.84375 4.73437C6.375-2.14062 5.15625-.75 4.15625-.75c-.59375 0-.92187-.5-.92187-1.32812m0 0"/><path id="d" d="M1.10938 3.17188v.54687C5.04688 3.5625 6-1.04687 6-5.25s-.95312-8.8125-4.89062-8.96875v.54688c1.42187.29687 3.40625 1.9375 3.40625 8.42187 0 6.51563-2.07813 8.15625-3.40625 8.42188m0 0"/><path id="c" d="M1.40625 0h4.375v-.40625L4.73438-.5c-.28125-.03125-.42188-.125-.42188-.60937v-7.67188l-.07812-.07812-2.8125.46875v.35937l1.125.14063c.25.04687.32812.14062.32812.54687v6.23438c0 .48437-.10937.57812-.42187.60937l-1.04688.09375Zm0 0"/><path id="e" d="M.375-.15625.53125 0h5.51563l.46875-1.85937-.39063-.0625c-.29687.6875-.54687.78125-1.0625.78125H1.73438c.20312-.625.90625-1.5 2.15625-2.34375 1.32812-.875 2.26562-1.48438 2.26562-2.92188 0-1.8125-1.23437-2.45312-2.67187-2.45312-1.78125 0-2.79688 1.03125-2.79688 1.8125 0 .48437.54688.70312.82813.70312.25 0 .375-.14062.42187-.39062.20313-.92188.70313-1.64063 1.45313-1.64063.92187 0 1.20312.79688 1.20312 1.73438 0 1.26562-.5625 2.09375-1.78125 3.14062C1.15625-2.0625.5625-1.125.375-.15625m0 0"/><path id="f" d="M.35938-1.39062c0 .54687.85937 1.54687 2.82812 1.54687 1.9375 0 3.14063-.95312 3.14063-2.60937 0-1.78125-1.53125-2.25-2.20313-2.3125v-.0625c.71875-.125 1.82813-.625 1.82813-1.90625 0-1.53125-1.23438-2.125-2.625-2.125-1.67188 0-2.64063.9375-2.64063 1.59375 0 .45312.51563.6875.73438.6875.20312 0 .3125-.125.375-.32813C2.09375-7.8125 2.53125-8.375 3.25-8.375c.96875 0 1.20313.92188 1.20313 1.60938S4.23438-5 3.15625-5c-.59375 0-.98437-.14062-1.17187-.14062-.20313 0-.26563.15625-.26563.40625s.0625.39062.26563.39062c.1875 0 .57812-.125 1.17187-.125 1 0 1.625.82813 1.625 2.07813 0 1.48437-.6875 2.0625-1.57812 2.0625-.79688 0-1.32813-.59375-1.60938-1.45313q-.11718-.375-.42187-.375c-.29688 0-.8125.26563-.8125.76563m0 0"/><clipPath id="g"><path d="M92 30h108.00781v63H92Zm0 0"/></clipPath></defs><use xlink:href="#a" x="6.72321" y="49.70493"/><use xlink:href="#b" x="14.32982" y="49.70493"/><use xlink:href="#c" x="24.82882" y="54.06332"/><use xlink:href="#d" x="33.04654" y="49.70493"/><use xlink:href="#a" x="57.44219" y="107.6415"/><use xlink:href="#b" x="65.0488" y="107.6415"/><use xlink:href="#e" x="75.5478" y="111.99989"/><use xlink:href="#d" x="83.7675" y="107.6415"/><g fill="red"><use xlink:href="#a" x="135.81169" y="41.70196"/><use xlink:href="#b" x="143.4183" y="41.70196"/></g><use xlink:href="#f" x="153.91531" y="46.06035" fill="red"/><use xlink:href="#d" x="162.13502" y="41.70196" fill="red"/><path fill="none" stroke="#000" stroke-miterlimit="10" stroke-width=".39617" d="m47.65234 61.0625 101.44138-50.72264"/><g clip-path="url(#g)"><path fill="none" stroke="#000" stroke-miterlimit="10" stroke-width=".39617" d="m98.37108 86.42187 101.44137-50.71874"/></g><path fill="none" stroke="red" stroke-miterlimit="10" stroke-width=".39617" d="M149.09372 101.6367 98.37108.19924"/><path fill="none" stroke="#009" stroke-miterlimit="10" stroke-width=".39617" d="m112.55857 28.60939-4.53125-9.07813 9.07422-4.53515 4.53125 9.07421-9.07422 4.53907"/></svg>