<svg xmlns="http://www.w3.org/2000/svg" xmlns:xlink="http://www.w3.org/1999/xlink" width="177.564pt" height="157.722pt" viewBox="0 0 177.564 157.722"><defs><path id="a" d="m1.6875-1.26562.48438.48437L4.20313-2.8125 6.23438-.78125l.46875-.48437L4.6875-3.29687l2.01563-2.03125-.46875-.46875-2.03125 2.01562-2.03125-2.01562-.48438.46875 2.03125 2.03125Zm0 0"/><path id="b" d="M-.21875 0h2.625l.07813-.32812-.64063-.0625C1.6875-.40625 1.625-.48437 1.625-.59375c0-.0625.03125-.15625.0625-.23437.39063-.75.76563-1.5 1.1875-2.29688H5.5l.28125 2.42188s-.0625.28124-.29687.3125l-.625.0625L4.79688 0h2.875l.0625-.32812-.4375-.04688C6.9375-.40625 6.875-.57812 6.8125-1.0625l-.84375-7.01562H5.125l-1.95312 3.4375c-.59375 1.04687-1.5625 2.79687-2 3.48437-.375.60938-.57813.73438-.9375.76563l-.39063.0625ZM3.125-3.5625 5.01563-7l.42187 3.4375Zm0 0"/><path id="c" d="M0 0h3.54688C6.35938 0 6.9375-1.45312 6.9375-2.42187c0-1.23438-.90625-1.76563-1.76562-1.92188L5.1875-4.375c1.54688-.1875 2.20313-1.0625 2.20313-1.95312 0-.9375-.5625-1.75-2.70313-1.75H1.73438l-.07813.34375.6875.0625c.20313 0 .29688.09375.29688.28125 0 .07812-.03125.17187-.0625.28125l-1.375 6.14062C1.125-.57812 1-.45312.71875-.40625L.0625-.32812Zm2.32813-.89062c0-.09376.01562-.17188.04687-.26563l.67188-3H3.5c1.15625 0 2.17188.34375 2.17188 1.67188 0 1.04687-.625 2.07812-2.1875 2.07812-.92188 0-1.15625-.1875-1.15625-.48437M3.125-4.5625l.60938-2.70312c.09375-.34375.15625-.40625.9375-.40625.98437 0 1.53125.48437 1.53125 1.3125 0 1.21875-1.01563 1.79687-2.3125 1.79687Zm0 0"/><path id="d" d="M.25 0h3.1875l.07813-.32812-.70313-.0625c-.1875 0-.28125-.125-.28125-.3125 0-.0625.01563-.17188.04688-.26563l1.39062-6.14062c.07813-.35938.1875-.5625.48438-.57813l.65625-.04687.07812-.34375H1.98438l-.07813.34375.6875.04687c.20313.01563.28125.14063.28125.32813 0 .0625 0 .15625-.03125.25L1.4375-.96875c-.07812.375-.20312.53125-.48437.5625L.3125-.32812Zm0 0"/><clipPath id="e"><path d="M0 48h177.1289v57H0Zm0 0"/></clipPath><clipPath id="f"><path d="M62 .05469h52v157.33594H62Zm0 0"/></clipPath></defs><use xlink:href="#a" x="13.67343" y="61.82882"/><use xlink:href="#b" x="22.26034" y="54.53972"/><use xlink:href="#a" x="155.05826" y="97.17603"/><use xlink:href="#c" x="163.64617" y="89.88593"/><use xlink:href="#a" x="84.36584" y="79.50243"/><use xlink:href="#d" x="92.95376" y="72.21233"/><path fill="none" stroke="red" stroke-miterlimit="10" stroke-width=".39752" d="m88.56644 76.60157-6.85938-1.71484 1.71484-6.85548 6.85938 1.71485-1.71484 6.85547"/><g clip-path="url(#e)"><path fill="none" stroke="#000" stroke-miterlimit="10" stroke-width=".39752" d="M.19921 54.33203 176.93366 98.8711"/></g><g clip-path="url(#f)"><path fill="none" stroke="#000" stroke-miterlimit="10" stroke-width=".39752" d="M107.65238.25388 68.418 157.19145"/></g></svg>