<svg xmlns="http://www.w3.org/2000/svg" xmlns:xlink="http://www.w3.org/1999/xlink" width="319.296pt" height="283.549pt" viewBox="0 0 319.296 283.549"><defs><path id="a" d="m3.04688-2.28125.85937.875L7.5625-5.07812l3.65625 3.67187.85938-.875-3.65625-3.64062 3.65625-3.67188-.85938-.84375L7.5625-6.79687 3.90625-10.4375l-.85937.84375 3.65625 3.67188Zm0 0"/><path id="b" d="M-.40625 0h4.75l.125-.60937L3.3125-.71875c-.26562-.01562-.39062-.15625-.39062-.35937 0-.10938.04687-.26563.125-.42188.6875-1.34375 1.35937-2.70312 2.14062-4.10937h4.71875l.51563 4.32812s-.10938.51563-.5625.5625L8.75-.60937 8.625 0h5.17188l.14062-.60937-.8125-.0625c-.65625-.0625-.73437-.35938-.84375-1.23438l-1.54687-12.625h-1.5l-3.53125 6.1875c-1.07813 1.875-2.8125 5.01563-3.59375 6.26563C1.4375-.98437 1.07813-.76562.42188-.6875l-.6875.07813Zm6.01563-6.42187 3.42187-6.17188.76563 6.17188Zm0 0"/><path id="c" d="M0 0h6.375c5.07813 0 6.09375-2.60937 6.09375-4.35937 0-2.21875-1.625-3.17188-3.17187-3.46875l.03125-.04688c2.79687-.32812 3.96875-1.92187 3.96875-3.5 0-1.70312-1-3.15625-4.875-3.15625h-5.3125l-.14063.59375 1.25.125c.35938.01563.51563.17188.51563.51563 0 .125-.03125.3125-.07813.5L2.17188-1.75c-.15625.70313-.35938.9375-.875 1.01563l-1.1875.125Zm4.20313-1.60937c0-.15626.01562-.3125.0625-.46875l1.21875-5.39063h.82812c2.07813 0 3.90625.60938 3.90625 3 0 1.875-1.14062 3.73438-3.95312 3.73438-1.65625 0-2.0625-.34375-2.0625-.875m1.4375-6.59375 1.09375-4.875c.15625-.625.26562-.73438 1.67187-.73438 1.76563 0 2.75.89063 2.75 2.35938 0 2.20312-1.82812 3.25-4.15625 3.25Zm0 0"/><path id="d" d="M.45313 0H6.1875l.14063-.60937-1.25-.07813C4.71875-.71875 4.5625-.92187 4.5625-1.25c0-.14062.01563-.3125.0625-.5l2.5-11.04687c.17188-.64063.35938-1 .90625-1.04688l1.15625-.09375.14063-.59375h-5.75l-.15625.59375 1.25.09375c.35937.03125.51562.25.51562.57813 0 .14062-.01562.29687-.0625.46875L2.59375-1.75c-.15625.67188-.35937.96875-.875 1.01563l-1.15625.125Zm0 0"/><clipPath id="e"><path d="M0 92h318.59375v92H0Zm0 0"/></clipPath><clipPath id="f"><path d="M117 .08594h83v282.92578h-83Zm0 0"/></clipPath></defs><use xlink:href="#a" x="24.45807" y="111.13805"/><use xlink:href="#b" x="39.91998" y="98.01299"/><use xlink:href="#a" x="278.98787" y="174.77075"/><use xlink:href="#c" x="294.44978" y="161.64569"/><use xlink:href="#a" x="151.72347" y="142.9539"/><use xlink:href="#d" x="167.18538" y="129.82984"/><path fill="none" stroke="red" stroke-miterlimit="10" stroke-width=".39762" d="m159.28516 137.73047-12.34766-3.08594 3.08594-12.34375 12.34765 3.08594-3.08593 12.34375"/><g clip-path="url(#e)"><path fill="none" stroke="#000" stroke-miterlimit="10" stroke-width=".39762" d="m.19922 97.64063 318.19922 80.1875"/></g><g clip-path="url(#f)"><path fill="none" stroke="#000" stroke-miterlimit="10" stroke-width=".39762" d="M193.64453.28516 123.01172 282.8164"/></g></svg>