<svg xmlns="http://www.w3.org/2000/svg" xmlns:xlink="http://www.w3.org/1999/xlink" width="125.749pt" height="74.642pt" viewBox="0 0 125.749 74.642"><defs><path id="a" d="M1-3.28125c0 2.625.59375 5.51563 3.0625 5.60938v-.34375c-.82812-.15626-2.125-1.1875-2.125-5.26563 0-4.04687 1.23438-5.07812 2.125-5.26562v-.34375C1.59375-8.79687 1-5.90625 1-3.28125m0 0"/><path id="b" d="M.875-1.40625c0 .76563.21875 1.54688 1.15625 1.54688 1.34375 0 2.375-1.42188 3.0625-2.6875H5.125l-.39062 1.39062c-.0625.23438-.09375.45313-.09375.625 0 .4375.1875.67188.59375.67188.92187 0 1.53125-.79688 1.92187-1.67188l-.26562-.17187c-.21875.42187-.73438 1.23437-1.04688 1.23437-.14062 0-.1875-.09375-.1875-.21875s.03125-.25.0625-.42187L7.5625-8.59375 7.5-8.64062l-2.07812.28125-.0625.26562.70312.0625c.1875.01563.25.0625.25.20313 0 .0625 0 .15625-.04687.28125l-.4375 1.875-.03125.01562c-.21875-.10937-.57813-.1875-.98438-.1875-2.70312 0-3.9375 3.03125-3.9375 4.4375m1.14063.10938c0-1.26563 1.01562-4.14063 2.875-4.14063.35937 0 .67187.10938.8125.23438-.17188.89062-.5625 2-1.15625 2.95312-.5625.90625-1.32813 1.78125-1.9375 1.78125-.375 0-.59375-.3125-.59375-.82812m0 0"/><path id="d" d="M.6875 1.98438v.34375C3.15625 2.23438 3.75-.65625 3.75-3.28125S3.15625-8.79687.6875-8.89062v.34375c.90625.1875 2.14063 1.21875 2.14063 5.26562 0 4.07813-1.29688 5.10938-2.14063 5.26563m0 0"/><path id="c" d="M.89063 0h2.71875v-.25l-.64063-.0625c-.1875-.01562-.26562-.07812-.26562-.375V-5.5l-.0625-.04687-1.75.29687v.21875l.70312.09375c.15625.03125.20313.09375.20313.34375V-.6875c0 .29688-.07813.35938-.26563.375L.89063-.25Zm0 0"/><path id="e" d="M.23438-.09375.32813 0h3.45312l.29688-1.15625-.25-.04687c-.1875.4375-.32813.48437-.65625.48437H1.07813c.14062-.375.5625-.92187 1.35937-1.45312.82813-.5625 1.40625-.9375 1.40625-1.82813 0-1.14062-.76562-1.54687-1.67187-1.54687-1.10938 0-1.73438.64062-1.73438 1.14062 0 .29688.32813.4375.5.4375.15625 0 .23438-.09375.28125-.25.125-.5625.42188-1.01562.90625-1.01562.57813 0 .75.48437.75 1.07812 0 .79688-.34375 1.3125-1.10937 1.96875C.71875-1.29687.35938-.70312.23438-.09375m0 0"/><path id="f" d="M.21875-.85937c0 .32812.54688.95312 1.78125.95312 1.20313 0 1.96875-.59375 1.96875-1.625 0-1.10937-.96875-1.40625-1.39062-1.45312v-.03125c.45312-.07813 1.15625-.40625 1.15625-1.20313 0-.95312-.78125-1.32812-1.65625-1.32812-1.03125 0-1.64063.59375-1.64063 1 0 .28125.3125.42187.45313.42187.125 0 .1875-.07812.23437-.1875.1875-.57812.46875-.92187.90625-.92187.60938 0 .75.5625.75 1S2.64063-3.125 1.98438-3.125c-.375 0-.625-.09375-.75-.09375-.10938 0-.15626.09375-.15626.25s.04688.25.15626.25c.125 0 .375-.07812.75-.07812.60937 0 1 .51562 1 1.29687C2.98438-.5625 2.5625-.20312 2-.20312c-.48437 0-.82812-.375-1-.90625-.0625-.15626-.14062-.25-.26562-.25-.1875 0-.51563.1875-.51563.5m0 0"/><clipPath id="g"><path d="M56 16h69.32422v44H56Zm0 0"/></clipPath></defs><use xlink:href="#a" x="4.30641" y="31.17647"/><use xlink:href="#b" x="9.06565" y="31.17647"/><use xlink:href="#c" x="15.63333" y="33.90339"/><use xlink:href="#d" x="20.77616" y="31.17647"/><use xlink:href="#a" x="36.04319" y="67.4286"/><use xlink:href="#b" x="40.80243" y="67.4286"/><use xlink:href="#e" x="47.37136" y="70.15427"/><use xlink:href="#d" x="52.51295" y="67.4286"/><g fill="red"><use xlink:href="#a" x="85.07204" y="26.16949"/><use xlink:href="#b" x="89.83128" y="26.16949"/></g><use xlink:href="#f" x="96.4002" y="28.89641" fill="red"/><use xlink:href="#d" x="101.54304" y="26.16949" fill="red"/><path fill="none" stroke="#000" stroke-miterlimit="10" stroke-width=".3966" d="m29.91406 38.28125 63.47659-31.7383"/><g clip-path="url(#g)"><path fill="none" stroke="#000" stroke-miterlimit="10" stroke-width=".3966" d="m61.65235 54.15235 63.47659-31.7383"/></g><path fill="none" stroke="red" stroke-miterlimit="10" stroke-width=".3966" d="M93.39065 63.67188 61.65235.19921"/><path fill="none" stroke="#009" stroke-miterlimit="10" stroke-width=".3966" d="m70.53908 17.97265-2.83985-5.67969 5.67578-2.83594 2.83985 5.67578-5.67578 2.83985M83.2344 43.35938l-2.83985-5.67579 5.67578-2.83984 2.83985 5.67969-5.67579 2.83594"/></svg>