<svg xmlns="http://www.w3.org/2000/svg" xmlns:xlink="http://www.w3.org/1999/xlink" width="125.749pt" height="68.265pt" viewBox="0 0 125.749 68.265"><defs><path id="a" d="M1-3.26562c0 2.60937.59375 5.48437 3.04688 5.57812v-.34375c-.82813-.15625-2.125-1.1875-2.125-5.23437 0-4.03125 1.23437-5.0625 2.125-5.23438v-.35937C1.59375-8.75 1-5.875 1-3.26562m0 0"/><path id="b" d="M.85938-1.39062c0 .75.21874 1.53125 1.15625 1.53125 1.34375 0 2.375-1.42188 3.04687-2.67188h.03125l-.39062 1.39063q-.09375.35156-.09375.60937c0 .4375.20312.67188.60937.67188.90625 0 1.51563-.79688 1.90625-1.67188l-.26562-.15625C6.64063-1.28125 6.125-.46875 5.8125-.46875c-.14062 0-.1875-.09375-.1875-.21875 0-.10937.03125-.25.07813-.40625l1.8125-7.45312-.0625-.04688-2.04688.26563-.0625.28125.6875.0625c.1875.01562.25.0625.25.1875 0 .0625 0 .17187-.04687.28125l-.4375 1.875-.03125.01562c-.21875-.10937-.57813-.1875-.96875-.1875-2.70313 0-3.9375 3.01563-3.9375 4.42188m1.15625.09374c0-1.25 1-4.10937 2.85937-4.10937.35938 0 .65625.10938.79688.23438-.17188.875-.5625 1.98437-1.14063 2.9375-.5625.90625-1.32812 1.76562-1.9375 1.76562-.375 0-.57812-.3125-.57812-.82812m0 0"/><path id="d" d="M.6875 1.96875v.34375c2.45313-.09375 3.04688-2.96875 3.04688-5.57812S3.14063-8.75.6875-8.85937V-8.5c.89063.17188 2.125 1.20313 2.125 5.23438 0 4.04687-1.29687 5.07812-2.125 5.23437m0 0"/><path id="c" d="M.875 0h2.71875v-.25l-.64062-.0625c-.1875-.01562-.26563-.07812-.26563-.375v-4.78125l-.0625-.04687-1.73437.29687V-5l.70312.09375c.15625.03125.20313.07813.20313.32813V-.6875c0 .29688-.07813.35938-.26563.375L.875-.25Zm0 0"/><path id="e" d="M.23438-.09375.32813 0h3.4375l.28125-1.15625-.23438-.04687c-.1875.4375-.34375.5-.67187.5h-2.0625c.125-.39063.5625-.9375 1.34375-1.46875.82812-.54688 1.40625-.92188 1.40625-1.8125 0-1.125-.76563-1.53125-1.65625-1.53125C1.0625-5.51562.4375-4.875.4375-4.375c0 .28125.32813.42188.5.42188.15625 0 .23438-.07813.26563-.23438.14062-.57812.4375-1.01562.90625-1.01562.57812 0 .75.48437.75 1.07812 0 .78125-.34375 1.29688-1.10938 1.95313C.71875-1.28125.35938-.70312.23438-.09375m0 0"/><path id="f" d="M.21875-.85937c0 .32812.54688.95312 1.76563.95312 1.20312 0 1.95312-.57812 1.95312-1.625 0-1.09375-.95312-1.39062-1.375-1.4375V-3c.45313-.07812 1.14063-.39062 1.14063-1.1875 0-.95312-.76563-1.32812-1.64063-1.32812-1.03125 0-1.625.57812-1.625 1 0 .26562.3125.42187.45313.42187.125 0 .1875-.07812.23437-.20312.17188-.5625.45313-.90625.89063-.90625.60937 0 .75.5625.75 1 0 .42187-.14063 1.09375-.79688 1.09375-.375 0-.60937-.09375-.73437-.09375s-.17188.09375-.17188.25.04688.25.17188.25.35937-.07813.73437-.07813c.625 0 1 .51563 1 1.29688C2.96875-.5625 2.54688-.20312 2-.20312c-.5 0-.82812-.375-1.01562-.90625-.04688-.15626-.125-.23438-.26563-.23438-.17187 0-.5.17188-.5.48438m0 0"/><clipPath id="g"><path d="M56 10h68.95703v44H56Zm0 0"/></clipPath></defs><use xlink:href="#a" x="4.65237" y="24.68324"/><use xlink:href="#b" x="9.3835" y="24.68324"/><use xlink:href="#c" x="15.91239" y="27.39405"/><use xlink:href="#d" x="21.02484" y="24.68324"/><use xlink:href="#a" x="66.01172" y="60.72122"/><use xlink:href="#b" x="70.74285" y="60.72122"/><use xlink:href="#e" x="77.27174" y="63.4308"/><use xlink:href="#d" x="82.38419" y="60.72122"/><g fill="red"><use xlink:href="#a" x="97.56104" y="16.55179"/><use xlink:href="#b" x="102.29216" y="16.55179"/></g><use xlink:href="#f" x="108.82229" y="19.2626" fill="red"/><use xlink:href="#d" x="113.9335" y="16.55179" fill="red"/><path fill="none" stroke="#000" stroke-miterlimit="10" stroke-width=".39426" d="M30.10938 31.7461 93.21095.1953"/><g clip-path="url(#g)"><path fill="none" stroke="#000" stroke-miterlimit="10" stroke-width=".39426" d="m61.66016 47.52344 63.09767-31.55079"/></g><path fill="none" stroke="red" stroke-miterlimit="10" stroke-width=".39426" d="M36.41797 34.90234 99.51954 3.35156"/></svg>