<svg xmlns="http://www.w3.org/2000/svg" xmlns:xlink="http://www.w3.org/1999/xlink" width="285.213pt" height="89.19pt" viewBox="0 0 285.213 89.19"><defs><path id="a" d="m3.01563-2.26562.875.85937 3.625-3.64062 3.64062 3.64062L12-2.26562l-3.625-3.625L12-9.53125l-.84375-.84375L7.51563-6.75l-3.625-3.625-.875.84375 3.65625 3.64063Zm0 0"/></defs><use xlink:href="#a" x="71.50324" y="80.98353"/><use xlink:href="#a" x="134.70129" y="80.98353"/><use xlink:href="#a" x="134.70129" y="17.78449"/><use xlink:href="#a" x="71.50324" y="17.78449"/><use xlink:href="#a" x="166.31122" y="49.38054"/><use xlink:href="#a" x="261.1192" y="17.77755"/><use xlink:href="#a" x="8.29726" y="17.77755"/><use xlink:href="#a" x="8.29726" y="49.38054"/><use xlink:href="#a" x="122.06703" y="30.41875"/><path fill="none" stroke="red" stroke-miterlimit="10" stroke-width=".39491" d="M142.21094 75.79688H129.5703V63.15625h12.64063v12.64063m.00001-63.19922v12.64062H129.5703V12.59766h12.64063m-63.19921 0h12.64062v12.64062H79.01172V12.59766m0 63.19922V63.15625h12.64062v12.64063H79.01172"/><path fill="none" stroke="#000" stroke-miterlimit="10" stroke-width=".39491" d="M79.01172 75.79688h63.19922V12.59766H79.01172Zm0 0"/><path fill="none" stroke="red" stroke-miterlimit="10" stroke-width=".39491" d="m107.8164 78.58984 5.58594-5.58593m0-63.19922-5.58593 5.58594m38.34375 31.76953-7.89844-3.94922m7.89844.98437-7.89844-3.94922m-55.30078 6.91407-7.89844-3.94922m7.89844.98437L75.0625 40.2461"/></svg>