<?xml version="1.0" encoding="UTF-8" ?>
<!DOCTYPE svg PUBLIC "-//W3C//DTD SVG 1.1//EN" "http://www.w3.org/Graphics/SVG/1.1/DTD/svg11.dtd">
<svg width="512pt" height="512pt" viewBox="0 0 512 512" version="1.1" xmlns="http://www.w3.org/2000/svg">
<path fill="#a9e5e8" stroke="#a9e5e8" stroke-width="0.09375" opacity="1.00" d=" M 46.05 45.43 C 58.84 37.45 77.10 40.89 86.11 52.96 C 92.38 60.50 93.15 70.69 92.72 80.09 C 72.12 80.09 51.52 80.09 30.91 80.09 C 30.91 76.36 30.79 72.62 31.18 68.90 C 32.00 59.30 37.72 50.26 46.05 45.43 Z" />
<path fill="#a9e5e8" stroke="#a9e5e8" stroke-width="0.09375" opacity="1.00" d=" M 435.03 45.09 C 448.11 37.30 466.55 41.34 475.19 53.87 C 480.90 61.32 481.48 71.03 481.08 80.05 C 460.48 80.15 439.88 80.06 419.28 80.09 C 419.29 75.74 419.11 71.36 419.78 67.04 C 421.15 57.91 426.95 49.57 435.03 45.09 Z" />
<path fill="#485b66" stroke="#485b66" stroke-width="0.09375" opacity="1.00" d=" M 0.00 83.21 C 0.78 81.67 2.01 80.06 3.93 80.18 C 12.92 79.94 21.92 80.18 30.91 80.09 C 51.52 80.09 72.12 80.09 92.72 80.09 C 201.57 80.09 310.43 80.09 419.28 80.09 C 439.88 80.06 460.48 80.15 481.08 80.05 C 480.90 90.99 481.14 101.95 480.94 112.89 C 479.45 111.91 477.92 110.76 476.03 110.96 C 329.68 110.89 183.33 110.97 36.98 110.92 C 34.90 110.90 32.22 111.03 31.30 113.30 C 30.59 116.46 30.96 119.75 30.90 122.97 C 30.92 216.63 30.90 310.30 30.91 403.97 C 30.85 405.82 31.26 407.95 33.10 408.84 C 36.69 409.67 40.42 409.19 44.07 409.29 C 137.01 409.31 229.96 409.24 322.90 409.32 C 323.46 414.50 329.54 413.36 333.24 413.43 C 333.38 419.85 332.99 426.28 333.41 432.69 C 333.62 435.91 336.00 438.36 338.77 439.74 C 334.51 440.16 330.24 440.22 325.96 440.13 C 217.31 440.12 108.65 440.13 0.00 440.13 L 0.00 83.21 Z" />
<path fill="#3e4e57" stroke="#3e4e57" stroke-width="0.09375" opacity="1.00" d=" M 481.08 80.05 C 490.08 80.02 499.09 79.92 508.09 80.05 C 509.82 79.84 510.88 81.32 512.00 82.36 L 512.00 440.19 C 501.66 440.22 491.32 440.26 480.99 440.16 C 481.08 429.16 481.03 418.17 480.97 407.17 C 481.27 350.45 481.01 293.71 481.10 236.99 C 481.00 195.62 481.31 154.25 480.94 112.89 C 481.14 101.95 480.90 90.99 481.08 80.05 Z" />
<path fill="#d5e7e8" stroke="#d5e7e8" stroke-width="0.09375" opacity="1.00" d=" M 31.30 113.30 C 32.22 111.03 34.90 110.90 36.98 110.92 C 183.33 110.97 329.68 110.89 476.03 110.96 C 477.92 110.76 479.45 111.91 480.94 112.89 C 481.31 154.25 481.00 195.62 481.10 236.99 C 481.01 293.71 481.27 350.45 480.97 407.17 C 479.74 408.02 478.56 409.24 476.95 409.20 C 470.33 409.47 463.70 409.15 457.08 409.32 C 456.88 404.16 457.10 399.00 456.91 393.85 C 456.84 389.56 454.29 385.37 450.34 383.60 C 446.76 382.06 442.78 382.31 438.97 382.29 C 431.27 382.38 423.56 382.20 415.85 382.39 C 388.91 382.75 361.95 382.36 335.01 382.59 C 329.55 382.42 324.13 386.37 323.33 391.89 C 322.58 397.66 323.14 403.51 322.90 409.32 C 229.96 409.24 137.01 409.31 44.07 409.29 C 40.42 409.19 36.69 409.67 33.10 408.84 C 31.26 407.95 30.85 405.82 30.91 403.97 C 30.90 310.30 30.92 216.63 30.90 122.97 C 30.96 119.75 30.59 116.46 31.30 113.30 Z" />
<path fill="#c73636" stroke="#c73636" stroke-width="0.09375" opacity="1.00" d=" M 415.85 382.39 C 423.56 382.20 431.27 382.38 438.97 382.29 C 442.78 382.31 446.76 382.06 450.34 383.60 C 454.29 385.37 456.84 389.56 456.91 393.85 C 457.10 399.00 456.88 404.16 457.08 409.32 C 456.70 414.48 450.63 413.79 446.95 413.70 C 439.92 413.52 432.89 413.80 425.86 413.52 C 425.84 406.43 426.41 399.31 425.66 392.25 C 425.05 387.15 420.63 383.52 415.85 382.39 Z" />
<path fill="#f2484b" stroke="#f2484b" stroke-width="0.09375" opacity="1.00" d=" M 323.33 391.89 C 324.13 386.37 329.55 382.42 335.01 382.59 C 361.95 382.36 388.91 382.75 415.85 382.39 C 420.63 383.52 425.05 387.15 425.66 392.25 C 426.41 399.31 425.84 406.43 425.86 413.52 C 422.50 413.39 419.13 413.38 415.77 413.40 C 388.26 413.43 360.75 413.37 333.24 413.43 C 329.54 413.36 323.46 414.50 322.90 409.32 C 323.14 403.51 322.58 397.66 323.33 391.89 Z" />
<path fill="#485b66" stroke="#485b66" stroke-width="0.09375" opacity="1.00" d=" M 476.95 409.20 C 478.56 409.24 479.74 408.02 480.97 407.17 C 481.03 418.17 481.08 429.16 480.99 440.16 C 467.87 439.94 454.75 440.43 441.65 439.89 C 443.98 438.19 446.30 436.03 446.65 432.99 C 447.31 426.58 446.72 420.13 446.95 413.70 C 450.63 413.79 456.70 414.48 457.08 409.32 C 463.70 409.15 470.33 409.47 476.95 409.20 Z" />
<path fill="#a9e5e8" stroke="#a9e5e8" stroke-width="0.09375" opacity="1.00" d=" M 333.24 413.43 C 360.75 413.37 388.26 413.43 415.77 413.40 C 415.48 419.91 415.99 426.43 415.52 432.92 C 415.27 435.87 412.80 437.83 410.96 439.87 C 386.90 439.99 362.82 440.26 338.77 439.74 C 336.00 438.36 333.62 435.91 333.41 432.69 C 332.99 426.28 333.38 419.85 333.24 413.43 Z" />
<path fill="#7cc7cc" stroke="#7cc7cc" stroke-width="0.09375" opacity="1.00" d=" M 415.77 413.40 C 419.13 413.38 422.50 413.39 425.86 413.52 C 432.89 413.80 439.92 413.52 446.95 413.70 C 446.72 420.13 447.31 426.58 446.65 432.99 C 446.30 436.03 443.98 438.19 441.65 439.89 C 431.42 440.13 421.19 440.15 410.96 439.87 C 412.80 437.83 415.27 435.87 415.52 432.92 C 415.99 426.43 415.48 419.91 415.77 413.40 Z" />
<path fill="#68b0c0" stroke="#68b0c0" stroke-width="0.09375" opacity="1.00" d=" M 338.77 439.74 C 362.82 440.26 386.90 439.99 410.96 439.87 C 421.19 440.15 431.42 440.13 441.65 439.89 C 454.75 440.43 467.87 439.94 480.99 440.16 C 481.08 450.44 481.00 460.72 481.03 471.00 C 322.34 470.99 163.66 471.03 4.97 470.98 C 2.72 471.29 0.88 469.93 0.00 467.94 L 0.00 440.13 C 108.65 440.13 217.31 440.12 325.96 440.13 C 330.24 440.22 334.51 440.16 338.77 439.74 Z" />
<path fill="#5fa1b0" stroke="#5fa1b0" stroke-width="0.09375" opacity="1.00" d=" M 480.99 440.16 C 491.32 440.26 501.66 440.22 512.00 440.19 L 512.00 468.48 C 511.31 469.32 510.60 470.15 509.88 470.96 C 500.26 471.05 490.64 470.98 481.03 471.00 C 481.00 460.72 481.08 450.44 480.99 440.16 Z" />
</svg>
