<svg id="Capa_1" enable-background="new 0 0 512 512" height="512" viewBox="0 0 512 512" width="512" xmlns="http://www.w3.org/2000/svg"><g><circle cx="294.359" cy="192.525" fill="#e28086" r="177.803"/><ellipse cx="294.359" cy="192.525" fill="#dd636e" rx="68.008" ry="177.803"/><ellipse cx="294.359" cy="192.525" fill="#dd636e" rx="177.803" ry="68.008"/><g><path d="m294.359 378.077c-21.605 0-41.253-20.264-55.327-57.058-13.175-34.445-20.43-80.078-20.43-128.494s7.255-94.049 20.43-128.494c14.074-36.794 33.723-57.058 55.327-57.058 4.28 0 7.749 3.469 7.749 7.749s-3.469 7.749-7.749 7.749c-14.514 0-29.404 17.166-40.852 47.097-12.516 32.721-19.408 76.387-19.408 122.957s6.892 90.237 19.408 122.958c11.448 29.93 26.338 47.096 40.852 47.096 4.28 0 7.749 3.469 7.749 7.749s-3.469 7.749-7.749 7.749z" fill="#e2a2ac"/></g><g><g><path d="m331.878 348.579c-1.315 0-2.647-.335-3.868-1.039-3.706-2.14-4.975-6.879-2.835-10.586 2.328-4.03 4.587-8.529 6.714-13.369 1.722-3.918 6.292-5.697 10.212-3.976 3.918 1.721 5.699 6.294 3.976 10.212-2.354 5.357-4.871 10.364-7.48 14.884-1.437 2.484-4.041 3.874-6.719 3.874zm20.193-54.17c-.596 0-1.203-.07-1.808-.215-4.162-.995-6.73-5.176-5.734-9.338 1.166-4.879 2.251-9.961 3.224-15.106.794-4.206 4.856-6.977 9.052-6.175 4.205.794 6.97 4.847 6.175 9.052-1.018 5.388-2.154 10.714-3.379 15.833-.851 3.556-4.027 5.949-7.53 5.949zm8.84-57.27c-.209 0-.419-.008-.631-.025-4.266-.344-7.445-4.08-7.101-8.346.412-5.111.74-10.331.974-15.515.193-4.275 3.777-7.6 8.091-7.391 4.275.193 7.584 3.815 7.391 8.091-.242 5.364-.581 10.768-1.008 16.06-.327 4.054-3.718 7.126-7.716 7.126zm.977-57.956c-4.119 0-7.547-3.243-7.735-7.399-.234-5.184-.562-10.403-.974-15.513-.344-4.266 2.835-8.002 7.101-8.346 4.293-.352 8.002 2.836 8.346 7.101.427 5.29.766 10.693 1.008 16.058.194 4.276-3.116 7.898-7.391 8.091-.118.006-.237.008-.355.008zm-6.532-57.579c-3.65 0-6.902-2.592-7.605-6.311-.973-5.146-2.057-10.228-3.224-15.105-.996-4.162 1.572-8.343 5.734-9.338 4.162-.997 8.343 1.572 9.338 5.734 1.224 5.116 2.361 10.444 3.379 15.832.795 4.204-1.97 8.258-6.175 9.052-.485.091-.97.136-1.447.136zm-16.37-55.511c-2.98 0-5.821-1.728-7.097-4.632-2.129-4.84-4.388-9.339-6.716-13.372-2.139-3.707-.868-8.446 2.838-10.585 3.705-2.14 8.446-.868 10.585 2.838 2.608 4.519 5.125 9.526 7.478 14.881 1.723 3.917-.057 8.489-3.974 10.212-1.014.446-2.073.658-3.114.658z" fill="#e2a2ac"/></g></g><g><g><path d="m146.057 162.749c-2.679 0-5.284-1.39-6.719-3.876-2.139-3.707-.868-8.446 2.838-10.585 4.519-2.608 9.526-5.125 14.881-7.478 3.918-1.722 8.49.057 10.212 3.974 1.723 3.917-.057 8.489-3.974 10.212-4.84 2.129-9.339 4.388-13.372 6.716-1.22.703-2.552 1.037-3.866 1.037zm296.599-.001c-1.315 0-2.648-.335-3.868-1.039-4.03-2.328-8.529-4.587-13.369-6.714-3.918-1.721-5.698-6.294-3.976-10.212 1.723-3.918 6.293-5.699 10.212-3.976 5.357 2.354 10.364 4.871 14.884 7.48 3.706 2.14 4.975 6.879 2.835 10.586-1.436 2.486-4.04 3.875-6.718 3.875zm-242.443-20.177c-3.504 0-6.679-2.392-7.53-5.949-.996-4.162 1.572-8.343 5.734-9.338 5.116-1.224 10.444-2.361 15.832-3.379 4.196-.791 8.258 1.969 9.052 6.175.795 4.204-1.969 8.258-6.175 9.052-5.146.973-10.228 2.057-15.105 3.224-.605.145-1.212.215-1.808.215zm188.285-.001c-.596 0-1.203-.07-1.808-.215-4.879-1.166-9.961-2.251-15.106-3.224-4.205-.794-6.97-4.847-6.175-9.052.795-4.206 4.855-6.976 9.052-6.175 5.388 1.018 10.714 2.154 15.833 3.379 4.162.995 6.73 5.176 5.734 9.338-.85 3.557-4.027 5.949-7.53 5.949zm-57.266-8.841c-.209 0-.419-.008-.631-.025-5.11-.412-10.33-.74-15.514-.974-4.275-.193-7.584-3.815-7.391-8.091.188-4.156 3.616-7.399 7.735-7.399.118 0 .236.002.356.008 5.365.242 10.768.581 16.059 1.008 4.266.344 7.445 4.08 7.101 8.346-.327 4.055-3.718 7.127-7.715 7.127zm-73.756 0c-3.998 0-7.389-3.072-7.716-7.126-.344-4.266 2.835-8.002 7.101-8.346 5.29-.427 10.693-.766 16.058-1.008 4.292-.209 7.898 3.116 8.091 7.391.194 4.276-3.116 7.898-7.391 8.091-5.184.234-10.403.562-15.513.974-.212.016-.423.024-.63.024z" fill="#e2a2ac"/></g></g><g><path d="m294.359 268.283c-48.416 0-94.049-7.255-128.494-20.43-36.794-14.074-57.058-33.723-57.058-55.327 0-4.28 3.469-7.749 7.749-7.749s7.749 3.469 7.749 7.749c0 14.514 17.166 29.404 47.096 40.852 32.721 12.516 76.388 19.408 122.958 19.408s90.236-6.892 122.957-19.408c29.93-11.448 47.096-26.338 47.096-40.852 0-4.28 3.469-7.749 7.749-7.749s7.749 3.469 7.749 7.749c0 21.605-20.263 41.253-57.058 55.327-34.444 13.174-80.077 20.43-128.493 20.43z" fill="#e2a2ac"/></g><path d="m511.288 504.294c-.434.444-1.054.734-1.767.734h-302.007l151.804-309.788c.227-.455.682-.734 1.188-.734.496 0 .961.279 1.178.734l148.426 302.896 1.632 3.327v.01c.497 1.013.238 2.108-.454 2.821z" fill="#f4d8a5"/><path d="m511.288 504.294c-.434.444-1.054.734-1.767.734h-302.007l152.456-51.576 145.161 48.766z" fill="#f1cb86"/><g fill="#ecbe6b"><path d="m315.045 460.599-15.715 5.298c-4.055 1.368-6.234 5.763-4.867 9.819 1.091 3.234 4.107 5.275 7.342 5.275.821 0 1.656-.131 2.477-.408l15.715-5.298c4.055-1.368 6.234-5.763 4.867-9.819-1.367-4.054-5.762-6.23-9.819-4.867z"/><path d="m370.837 448.758-2.585-.872v-3.218c0-4.28-3.469-7.749-7.749-7.749s-7.749 3.469-7.749 7.749v3.217l-2.583.871c-4.056 1.367-6.235 5.763-4.868 9.818 1.367 4.054 5.762 6.233 9.818 4.868l5.382-1.814 5.382 1.814c.821.277 1.656.409 2.477.409 3.234 0 6.252-2.041 7.341-5.275 1.369-4.055-.811-8.451-4.866-9.818z"/><path d="m264.204 477.741-15.714 5.298c-4.055 1.367-6.234 5.762-4.866 9.818 1.09 3.234 4.107 5.275 7.341 5.275.821 0 1.656-.131 2.477-.409l15.714-5.298c4.055-1.367 6.234-5.762 4.866-9.818-1.366-4.055-5.76-6.235-9.818-4.866z"/><path d="m472.518 483.038-15.715-5.298c-4.055-1.364-8.451.813-9.819 4.867-1.367 4.056.812 8.451 4.867 9.819l15.715 5.298c.821.276 1.656.408 2.477.408 3.234 0 6.252-2.041 7.342-5.275 1.367-4.056-.812-8.451-4.867-9.819z"/><path d="m421.677 465.898-15.714-5.298c-4.055-1.37-8.451.811-9.818 4.866-1.368 4.056.811 8.451 4.866 9.818l15.714 5.298c.821.277 1.656.409 2.477.409 3.234 0 6.252-2.041 7.341-5.275 1.368-4.056-.811-8.451-4.866-9.818z"/><path d="m360.504 261.171c4.28 0 7.749-3.469 7.749-7.749v-16.015c0-4.28-3.469-7.749-7.749-7.749s-7.749 3.469-7.749 7.749v16.015c0 4.281 3.469 7.749 7.749 7.749z"/><path d="m360.504 312.987c4.28 0 7.749-3.469 7.749-7.749v-16.015c0-4.28-3.469-7.749-7.749-7.749s-7.749 3.469-7.749 7.749v16.015c0 4.28 3.469 7.749 7.749 7.749z"/><path d="m360.504 364.802c4.28 0 7.749-3.469 7.749-7.749v-16.015c0-4.28-3.469-7.749-7.749-7.749s-7.749 3.469-7.749 7.749v16.015c0 4.28 3.469 7.749 7.749 7.749z"/><path d="m360.504 416.617c4.28 0 7.749-3.469 7.749-7.749v-16.015c0-4.28-3.469-7.749-7.749-7.749s-7.749 3.469-7.749 7.749v16.015c0 4.28 3.469 7.749 7.749 7.749z"/></g><g fill="#8993da"><path d="m227.877 277.15v227.547c-.465.217-.971.33-1.498.33h-224.37c-1.109 0-2.009-.899-2.009-2.009v-224.752c0-.392.083-.765.248-1.116z"/><path d="m289.279 215.748-61.402 61.402h-227.629c.124-.289.31-.558.537-.785l1.281-1.281 59.118-59.118c.641-.641 1.508-1.002 2.418-1.002h223.776c.744-.001 1.415.299 1.901.784z"/><path d="m290.064 217.649v223.941c0 .806-.32 1.57-.889 2.139l-.63.63-13.814 13.814v.01l-41.689 41.678-4.102 4.102c-.31.31-.672.558-1.064.734v-227.547l46.855-46.855 9.898-9.898 4.649-4.649c.487.486.786 1.158.786 1.901z"/></g><path d="m289.279 215.748c-.486-.486-1.157-.785-1.901-.785h-20.023l-50.449 50.449c-7.515 7.515-17.708 11.738-28.337 11.738h-188.321c-.165.351-.248.723-.248 1.116v14.774h190.941c12.091 0 21.893 9.802 21.893 21.893v190.094h13.545c.527 0 1.033-.114 1.498-.33v-222.556c0-3.196 1.27-6.261 3.529-8.52l38.814-38.814c1.665-1.665 4.511-.486 4.511 1.869v221.498l13.814-13.814.634-.634c.566-.566.884-1.334.884-2.135v-223.942c.001-.743-.298-1.415-.784-1.901z" fill="#707dd3"/><g fill="#5766cb"><path d="m62.186 320.147c4.28 0 7.749-3.469 7.749-7.749v-14.35c0-4.28-3.469-7.749-7.749-7.749s-7.749 3.469-7.749 7.749v14.35c0 4.28 3.469 7.749 7.749 7.749z"/><path d="m62.186 365.249c4.28 0 7.749-3.469 7.749-7.749v-14.35c0-4.28-3.469-7.749-7.749-7.749s-7.749 3.469-7.749 7.749v14.35c0 4.28 3.469 7.749 7.749 7.749z"/><path d="m62.186 275.046c4.28 0 7.749-3.469 7.749-7.749v-14.35c0-4.28-3.469-7.749-7.749-7.749s-7.749 3.469-7.749 7.749v14.35c0 4.28 3.469 7.749 7.749 7.749z"/><path d="m31.526 462.544-10.147 10.147c-3.026 3.027-3.026 7.932 0 10.959 1.513 1.512 3.497 2.269 5.48 2.269s3.966-.757 5.48-2.269l10.147-10.147c3.026-3.027 3.026-7.932 0-10.959-3.028-3.025-7.933-3.025-10.96 0z"/><path d="m62.186 410.35c4.28 0 7.749-3.469 7.749-7.749v-14.35c0-4.28-3.469-7.749-7.749-7.749s-7.749 3.469-7.749 7.749v14.35c0 4.281 3.469 7.749 7.749 7.749z"/><path d="m69.935 435.121v-1.768c0-4.28-3.469-7.749-7.749-7.749s-7.749 3.469-7.749 7.749v6.282l-1.166 1.165c-3.026 3.027-3.026 7.932 0 10.959 1.513 1.512 3.497 2.269 5.48 2.269s3.966-.757 5.48-2.269l1.166-1.166h4.022c4.28 0 7.749-3.469 7.749-7.749-.001-4.105-3.195-7.456-7.233-7.723z"/><path d="m206.17 435.095h-14.504c-4.28 0-7.749 3.469-7.749 7.749s3.469 7.749 7.749 7.749h14.504c4.28 0 7.749-3.469 7.749-7.749s-3.469-7.749-7.749-7.749z"/><path d="m160.586 435.095h-14.504c-4.28 0-7.749 3.469-7.749 7.749s3.469 7.749 7.749 7.749h14.504c4.28 0 7.749-3.469 7.749-7.749s-3.469-7.749-7.749-7.749z"/><path d="m115.002 435.095h-14.504c-4.28 0-7.749 3.469-7.749 7.749s3.469 7.749 7.749 7.749h14.504c4.28 0 7.749-3.469 7.749-7.749s-3.469-7.749-7.749-7.749z"/><path d="m251.755 435.095h-14.505c-4.28 0-7.749 3.469-7.749 7.749s3.469 7.749 7.749 7.749h14.505c4.28 0 7.749-3.469 7.749-7.749s-3.469-7.749-7.749-7.749z"/></g></g></svg>