<svg xmlns="http://www.w3.org/2000/svg" xmlns:xlink="http://www.w3.org/1999/xlink" width="113.786pt" height="100.214pt" viewBox="0 0 113.786 100.214"><defs><path id="f" d="M.29688 0H2.75v-.26562c-.82812-.04688-.875-.07813-.875-.54688v-2.17187c0-.71875.3125-.96875.53125-.96875.14063 0 .29688.0625.57813.21875q.09375.04687.1875.04687c.21875 0 .42187-.23437.42187-.53125 0-.20312-.125-.45312-.5-.45312-.32812 0-.60937.20312-1.21875.75l-.10937-.75-1.42188.23437v.23438l.34375.04687c.25.04688.3125.07813.3125.42188V-.8125c0 .46875-.04687.5-.70312.54688Zm0 0"/><path id="g" d="M.45313-1.20312c0 .6875.46875 1.3125 1.34375 1.3125.53125 0 1.07812-.35938 1.375-.54688.125.34375.29687.54688.60937.54688.35938 0 .75-.09375 1.10938-.28126l-.0625-.21874c-.125.03125-.34375.04687-.46875 0-.17188-.03125-.32813-.20313-.32813-.78125V-3.4375c0-.53125-.125-1.23437-1.53125-1.23437-1.04687 0-1.875.54687-1.875 1.0625 0 .29687.34375.4375.51563.4375.20312 0 .25-.10938.29687-.26563.21875-.6875.59375-.90625.96875-.90625.35938 0 .78125.1875.78125.9375v.375c-.23437.23438-1.14062.48438-1.875.71875-.67187.20313-.85937.67188-.85937 1.10938m.9375-.125c0-.4375.20312-.67188.71875-.875.39062-.125.875-.3125 1.07812-.4375v1.3125c0 .75-.57812.9375-.9375.9375-.57812 0-.85937-.40625-.85937-.9375m0 0"/><path id="h" d="M-.04687-4.28125c.4375.01563.54687.07813.70312.48438C1.125-2.6875 1.89063-.71875 2.10938-.0625c.0625.15625.09375.29688.09375.45313 0 .21875-.09375.48437-.23438.78125-.14062.3125-.3125.40625-.40625.40625s-.17187-.03126-.34375-.20313C1.125 1.29688 1.04688 1.25.9375 1.25c-.17187 0-.40625.25-.40625.51563 0 .23437.26563.48437.64063.48437S2.03125 2.14063 2.5.76563C3.07813-.89062 3.9375-3.15625 4.21875-3.8125c.17188-.375.21875-.4375.6875-.46875v-.28125H3.125v.28125l.48438.03125c.15625.03125.17187.14063.125.32813-.14063.54687-.625 1.95312-1.03125 3.07812H2.6875c-.42187-1.14062-.79687-2.14062-1.14062-3.10937-.0625-.17188-.07813-.28125.14062-.29688l.40625-.03125v-.28125H-.04687Zm0 0"/><path id="i" d="M.45313-2.28125c0 1.51563.75 2.39063 2.23437 2.39063 1.5 0 2.23438-.875 2.23438-2.39063 0-1.5-.73438-2.39062-2.23438-2.39062-1.48437 0-2.23437.89062-2.23437 2.39062m.96875 0c0-1.28125.42187-2.0625 1.26562-2.0625.85938 0 1.26563.78125 1.26563 2.0625 0 1.29688-.40625 2.0625-1.26563 2.0625-.84375 0-1.26562-.76562-1.26562-2.0625m0 0"/><path id="j" d="M.29688 0H2.5625v-.26562C1.90625-.3125 1.875-.34375 1.875-.8125v-2.17187c0-.23438 0-.35938.07813-.5.20312-.375.625-.67188 1.10937-.67188.64063 0 .98438.34375.98438 1.15625v2.1875c0 .46875-.03125.5-.70313.54688V0H5.625v-.26562c-.67187-.04688-.70312-.07813-.70312-.54688v-2.375c0-.9375-.51563-1.48437-1.375-1.48437-.6875 0-1.10938.34375-1.6875.71875l-.125-.71875-1.39063.23437v.23438l.34375.04687c.25.04688.3125.07813.3125.42188V-.8125c0 .46875-.03125.5-.70312.54688Zm0 0"/><path id="k" d="M.20313 0h2.25v-.26562c-.64063-.04688-.6875-.09375-.6875-.54688v-2.17187c0-.23438 0-.35938.07812-.5.1875-.375.625-.67188 1.10938-.67188.64062 0 .98437.34375.98437 1.15625v2.1875c0 .45313-.04687.5-.70312.54688V0H5.5v-.26562c-.64062-.04688-.6875-.09375-.6875-.54688v-2.375c0-.9375-.51562-1.48437-1.375-1.48437-.6875 0-1.10937.32812-1.6875.71875v-2.89063l-.0625-.04687-1.45312.21875v.25l.34375.03125c.25.04687.29687.09375.29687.42187V-.8125c0 .45313-.03125.5-.67187.54688Zm0 0"/><path id="l" d="m.23438-4.20312.35937.04687c.23438.04688.29688.07813.29688.42188v2.45312c0 1.0625.625 1.39063 1.32812 1.39063.78125 0 1.4375-.53125 1.70313-.65625L4 0h1.5v-.26562c-.64062-.04688-.70312-.07813-.70312-.54688v-3.79687l-.0625-.0625-1.45313.23437v.23438l.34375.04687c.25.04688.29688.07813.29688.42188v2.09375c0 .25-.03125.46875-.07813.54687-.21875.4375-.65625.70313-1.14062.70313-.53125 0-.9375-.34375-.9375-1.0625v-3.15625l-.0625-.0625-1.46875.23437Zm0 0"/><path id="m" d="M.28125-4.1875h.67188v3.23438c0 .95312.70312 1.0625 1.03125 1.0625.48437 0 .92187-.23438 1.1875-.40625L3.10938-.5c-.23438.09375-.42188.125-.67188.125-.3125 0-.60937-.23437-.60937-.9375v-2.875h1.20312v-.375H1.82813v-1.17187H1.5625L1-4.5625H.28125Zm0 0"/><path id="n" d="M.45313-2.25c0 1.48438.64062 2.35938 2.14062 2.35938 1.03125 0 1.5625-.57813 1.8125-1.3125l-.26562-.14063c-.26563.54688-.625.98438-1.34375.98438-1.17188 0-1.39063-1.10938-1.375-2.07813h2.6875c.1875 0 .35937-.0625.35937-.35937 0-.54688-.17187-1.875-1.875-1.875C1.14063-4.67187.45313-3.64062.45313-2.25m.98437-.54687c0-.39063.14063-1.54688 1.10938-1.54688.85937 0 .95312.875.95312 1.25 0 .17188-.0625.29688-.3125.29688Zm0 0"/><clipPath id="a"><path d="M.33594 0h112.90234v38H.33594Zm0 0"/></clipPath><clipPath id="b"><path d="M.33594 77h112.90234v22.4336H.33594Zm0 0"/></clipPath><clipPath id="c"><path d="M.33594 62h112.90234v28H.33594Zm0 0"/></clipPath><clipPath id="d"><path d="M56 83h57.23828v1H56Zm0 0"/></clipPath><clipPath id="e"><path d="M56 15h57.23828v2H56Zm0 0"/></clipPath><clipPath id="o"><path d="M.33594 15H1v69H.33594Zm0 0"/></clipPath><clipPath id="p"><path d="M112 15h1.23828v69H112Zm0 0"/></clipPath></defs><path fill="none" stroke="red" stroke-miterlimit="10" stroke-width=".3954" d="M56.7891 83.48438v-9h9v9h-9m0-67.50001h9v9h-9v-9"/><g clip-path="url(#a)"><path fill="none" stroke="#000" stroke-miterlimit="10" stroke-width=".3954" d="M113.0391 15.98437c0-8.69922-25.1836-15.75391-56.25-15.75391C25.71877.23046.53517 7.28515.53517 15.98436c0 8.69923 25.1836 15.75001 56.25391 15.75001 31.06641 0 56.25001-7.05078 56.25001-15.75Zm0 0"/></g><g clip-path="url(#b)"><path fill="none" stroke="#000" stroke-miterlimit="10" stroke-width=".3954" d="M.53518 83.48438c0 8.69922 25.1836 15.75391 56.25391 15.75391 31.06641 0 56.25001-7.05469 56.25001-15.7539"/></g><g clip-path="url(#c)"><path fill="none" stroke="#000" stroke-dasharray="2.9655769026 2.9655769026" stroke-miterlimit="10" stroke-width=".3954" d="M113.0391 83.48438c0-8.69922-25.1836-15.75-56.25-15.75-31.07032 0-56.25392 7.05078-56.25392 15.75"/></g><g clip-path="url(#d)"><path fill="none" stroke="#000" stroke-dasharray="2.9655769026 2.9655769026" stroke-miterlimit="10" stroke-width=".3954" d="M56.7891 83.48438h56.2539"/></g><g clip-path="url(#e)"><path fill="none" stroke="#000" stroke-dasharray="2.9655769026 2.9655769026" stroke-miterlimit="10" stroke-width=".3954" d="M56.7891 15.98437h56.2539"/></g><path fill="none" stroke="#000" stroke-dasharray="2.9655769026 2.9655769026" stroke-miterlimit="10" stroke-width=".3954" d="M56.7891 83.48438V15.98437"/><use xlink:href="#f" x="76.23232" y="11.25473"/><use xlink:href="#g" x="79.75142" y="11.25473"/><use xlink:href="#h" x="84.60501" y="11.25473"/><use xlink:href="#i" x="89.24112" y="11.25473"/><use xlink:href="#j" x="94.59885" y="11.25473"/><use xlink:href="#k" x="16.4889" y="53.12533"/><use xlink:href="#g" x="22.12341" y="53.12533"/><use xlink:href="#l" x="26.977" y="53.12533"/><use xlink:href="#m" x="32.60163" y="53.12533"/><use xlink:href="#n" x="35.79452" y="53.12533"/><use xlink:href="#l" x="40.56902" y="53.12533"/><use xlink:href="#f" x="46.19365" y="53.12533"/><g clip-path="url(#o)"><path fill="none" stroke="#000" stroke-miterlimit="10" stroke-width=".3954" d="M.53518 15.98437v67.50001"/></g><g clip-path="url(#p)"><path fill="none" stroke="#000" stroke-miterlimit="10" stroke-width=".3954" d="M113.0391 15.98437v67.50001"/></g></svg>