<svg xmlns="http://www.w3.org/2000/svg" width="177.06pt" height="177.06pt" viewBox="0 0 177.06 177.06"><defs><clipPath id="a"><path d="M0 121h176.125v55.125H0Zm0 0"/></clipPath><clipPath id="b"><path d="M0 0h55v176.125H0Zm0 0"/></clipPath><clipPath id="c"><path d="M175 0h1.125v128H175Zm0 0"/></clipPath><clipPath id="d"><path d="M48 0h128.125v1H48Zm0 0"/></clipPath><clipPath id="e"><path d="M0 108h176.125v61H0Zm0 0"/></clipPath><clipPath id="f"><path d="M7 0h61v176.125H7Zm0 0"/></clipPath><clipPath id="g"><path d="M0 96h176.125v61H0Zm0 0"/></clipPath><clipPath id="h"><path d="M19 0h62v176.125H19Zm0 0"/></clipPath><clipPath id="i"><path d="M0 83h176.125v61H0Zm0 0"/></clipPath><clipPath id="j"><path d="M32 0h61v176.125H32Zm0 0"/></clipPath><clipPath id="k"><path d="M0 70h176.125v61H0Zm0 0"/></clipPath><clipPath id="l"><path d="M45 0h61v176.125H45Zm0 0"/></clipPath><clipPath id="m"><path d="M0 58h176.125v61H0Zm0 0"/></clipPath><clipPath id="n"><path d="M58 0h61v176.125H58Zm0 0"/></clipPath><clipPath id="o"><path d="M0 45h176.125v61H0Zm0 0"/></clipPath><clipPath id="p"><path d="M70 0h61v176.125H70Zm0 0"/></clipPath><clipPath id="q"><path d="M0 32h176.125v61H0Zm0 0"/></clipPath><clipPath id="r"><path d="M83 0h61v176.125H83Zm0 0"/></clipPath><clipPath id="s"><path d="M0 19h176.125v62H0Zm0 0"/></clipPath><clipPath id="t"><path d="M96 0h61v176.125H96Zm0 0"/></clipPath><clipPath id="u"><path d="M0 7h176.125v61H0Zm0 0"/></clipPath><clipPath id="v"><path d="M108 0h61v176.125h-61Zm0 0"/></clipPath><clipPath id="w"><path d="M0 0h176.125v55H0Zm0 0"/></clipPath><clipPath id="x"><path d="M121 0h55.125v176.125H121Zm0 0"/></clipPath><clipPath id="y"><path d="M126 48h2v128.125h-2Zm0 0"/></clipPath></defs><g clip-path="url(#a)"><path fill="none" stroke="#000" stroke-miterlimit="10" stroke-width=".3964" d="M.19922 175.92578h126.8789l48.85156-48.84766"/></g><g clip-path="url(#b)"><path fill="none" stroke="#000" stroke-miterlimit="10" stroke-width=".3964" d="M.19922 175.92578V49.04688L49.04688.19532"/></g><g clip-path="url(#c)"><path fill="none" stroke="#000" stroke-miterlimit="10" stroke-width=".3964" d="M175.92968 127.07812V.19532"/></g><g clip-path="url(#d)"><path fill="none" stroke="#000" stroke-miterlimit="10" stroke-width=".3964" d="M49.04688.19532h126.8828"/></g><g clip-path="url(#e)"><path fill="none" stroke="#000" stroke-miterlimit="10" stroke-width=".3964" d="M.19922 163.23828h126.8789l48.85156-48.84765"/></g><g clip-path="url(#f)"><path fill="none" stroke="#000" stroke-miterlimit="10" stroke-width=".3964" d="M12.88672 175.92578V49.04688L61.73437.19532"/></g><path fill="none" stroke="#000" stroke-miterlimit="10" stroke-width=".3964" d="M171.04296 131.96484V5.08204m-126.8828 0h126.8828"/><g clip-path="url(#g)"><path fill="none" stroke="#000" stroke-miterlimit="10" stroke-width=".3964" d="M.19922 150.55078h126.8789l48.85156-48.84765"/></g><g clip-path="url(#h)"><path fill="none" stroke="#000" stroke-miterlimit="10" stroke-width=".3964" d="M25.57422 175.92578V49.04688L74.42187.19532"/></g><path fill="none" stroke="#000" stroke-miterlimit="10" stroke-width=".3964" d="M166.16014 136.84766V9.96486M39.27735 9.96485h126.8828"/><g clip-path="url(#i)"><path fill="none" stroke="#000" stroke-miterlimit="10" stroke-width=".3964" d="M.19922 137.86328h126.8789l48.85156-48.84765"/></g><g clip-path="url(#j)"><path fill="none" stroke="#000" stroke-miterlimit="10" stroke-width=".3964" d="M38.26172 175.92578V49.04688L87.10937.19532"/></g><path fill="none" stroke="#000" stroke-miterlimit="10" stroke-width=".3964" d="M161.27343 141.73437V14.85157m-126.8828 0h126.8828"/><g clip-path="url(#k)"><path fill="none" stroke="#000" stroke-miterlimit="10" stroke-width=".3964" d="M.19922 125.17578h126.8789l48.85156-48.85156"/></g><g clip-path="url(#l)"><path fill="none" stroke="#000" stroke-miterlimit="10" stroke-width=".3964" d="M50.94922 175.92578V49.04688L99.80078.19532"/></g><path fill="none" stroke="#000" stroke-miterlimit="10" stroke-width=".3964" d="M156.39061 146.61719V19.73439m-126.88279 0h126.8828"/><g clip-path="url(#m)"><path fill="none" stroke="#000" stroke-miterlimit="10" stroke-width=".3964" d="M.19922 112.48438h126.8789l48.85156-48.84766"/></g><g clip-path="url(#n)"><path fill="none" stroke="#000" stroke-miterlimit="10" stroke-width=".3964" d="M63.64062 175.92578V49.04688L112.48827.19532"/></g><path fill="none" stroke="#000" stroke-miterlimit="10" stroke-width=".3964" d="M151.5039 151.5039V24.6211m-126.8828 0h126.8828"/><g clip-path="url(#o)"><path fill="none" stroke="#000" stroke-miterlimit="10" stroke-width=".3964" d="M.19922 99.79688h126.8789l48.85156-48.84765"/></g><g clip-path="url(#p)"><path fill="none" stroke="#000" stroke-miterlimit="10" stroke-width=".3964" d="M76.32812 175.92578V49.04688L125.17577.19532"/></g><path fill="none" stroke="#000" stroke-miterlimit="10" stroke-width=".3964" d="M146.62108 156.38672V29.50392m-126.8828 0h126.8828"/><g clip-path="url(#q)"><path fill="none" stroke="#000" stroke-miterlimit="10" stroke-width=".3964" d="M.19922 87.10938h126.8789l48.85156-48.84765"/></g><g clip-path="url(#r)"><path fill="none" stroke="#000" stroke-miterlimit="10" stroke-width=".3964" d="M89.01562 175.92578V49.04688L137.86327.19532"/></g><path fill="none" stroke="#000" stroke-miterlimit="10" stroke-width=".3964" d="M141.73437 161.27343V34.39063m-126.8828 0h126.8828"/><g clip-path="url(#s)"><path fill="none" stroke="#000" stroke-miterlimit="10" stroke-width=".3964" d="M.19922 74.42188h126.8789l48.85156-48.84765"/></g><g clip-path="url(#t)"><path fill="none" stroke="#000" stroke-miterlimit="10" stroke-width=".3964" d="M101.70312 175.92578V49.04688L150.55077.19532"/></g><path fill="none" stroke="#000" stroke-miterlimit="10" stroke-width=".3964" d="M136.84765 166.15625V39.27735m-126.8789 0h126.8789"/><g clip-path="url(#u)"><path fill="none" stroke="#000" stroke-miterlimit="10" stroke-width=".3964" d="M.19922 61.73438h126.8789l48.85156-48.85156"/></g><g clip-path="url(#v)"><path fill="none" stroke="#000" stroke-miterlimit="10" stroke-width=".3964" d="M114.39062 175.92578V49.04688L163.24218.19532"/></g><path fill="none" stroke="#000" stroke-miterlimit="10" stroke-width=".3964" d="M131.96484 171.04296V44.16016m-126.8828 0h126.8828"/><g clip-path="url(#w)"><path fill="none" stroke="#000" stroke-miterlimit="10" stroke-width=".3964" d="M.19922 49.04688h126.8789L175.92968.19532"/></g><g clip-path="url(#x)"><path fill="none" stroke="#000" stroke-miterlimit="10" stroke-width=".3964" d="M127.07812 175.92578V49.04688L175.92968.19532"/></g><g clip-path="url(#y)"><path fill="none" stroke="#000" stroke-miterlimit="10" stroke-width=".3964" d="M127.07812 175.92578V49.04688"/></g><path fill="none" stroke="#000" stroke-miterlimit="10" stroke-width=".3964" d="M.19922 49.04688h126.8789"/></svg>