<svg xmlns="http://www.w3.org/2000/svg" width="770.983pt" height="263.081pt" viewBox="0 0 770.983 263.081"><defs><clipPath id="a"><path d="M1.33203 122H13v18H1.33203Zm0 0"/></clipPath><clipPath id="b"><path d="M631 248h19v14.16406h-19Zm0 0"/></clipPath><clipPath id="c"><path d="M758 90h11.63281v18H758Zm0 0"/></clipPath></defs><path fill="none" stroke="#000" stroke-miterlimit="10" stroke-width=".39711" d="M194.8125 162.85938v-63.5547h127.10548v63.5547Zm0 0"/><path fill="none" stroke="red" stroke-miterlimit="10" stroke-width=".39711" d="m255.38672 166.82813 3.97266-7.94141m-.9961 7.9414 3.97266-7.9414m-.99219-63.55079-3.97265 7.94141m.99218-7.9414-3.96874 7.9414m-56.77344 30.61328-5.6172-5.61718m127.10548 0 5.61719 5.61718"/><path fill="none" stroke="#000" stroke-miterlimit="10" stroke-width=".39711" d="M194.8125 99.30078V35.74999h127.10548v63.55079Zm0 0"/><path fill="none" stroke="red" stroke-miterlimit="10" stroke-width=".39711" d="m255.38672 103.26953 3.97266-7.9414m-.9961 7.9414 3.97266-7.9414m-.99219-63.55079-3.97265 7.9414m.99218-7.9414-3.96874 7.9414M197.6211 70.33203l-5.6172-5.6172m127.10548.00001 5.61719 5.61719"/><path fill="none" stroke="#000" stroke-miterlimit="10" stroke-width=".39711" d="M194.8125 226.41797v-63.55469h127.10548v63.5547Zm0 0"/><path fill="none" stroke="red" stroke-miterlimit="10" stroke-width=".39711" d="m255.38672 230.38672 3.97266-7.9414m-.9961 7.9414 3.97266-7.9414m-.99219-63.55079-3.97265 7.9414m.99218-7.9414-3.96874 7.9414m-56.77344 30.61329-5.6172-5.61719m127.10548 0 5.61719 5.6172"/><path fill="none" stroke="#000" stroke-miterlimit="10" stroke-width=".39711" d="M4.14061 162.85938v-63.5547h127.10157v63.5547Zm0 0"/><path fill="none" stroke="red" stroke-miterlimit="10" stroke-width=".39711" d="m64.71093 166.82813 3.97266-7.94141m-.9922 7.9414 3.96876-7.9414m-.99219-63.55079-3.96875 7.94141m.99219-7.9414-3.97266 7.9414"/><g clip-path="url(#a)"><path fill="none" stroke="red" stroke-miterlimit="10" stroke-width=".39711" d="m6.9453 133.89062-5.61328-5.61718"/></g><path fill="none" stroke="red" stroke-miterlimit="10" stroke-width=".39711" d="m128.43359 128.27344 5.61719 5.61718"/><path fill="none" stroke="#000" stroke-miterlimit="10" stroke-width=".39711" d="M321.9297 162.85938v-63.5547h63.55078v63.5547Zm0 0"/><path fill="none" stroke="red" stroke-miterlimit="10" stroke-width=".39711" d="m350.89845 165.66797 5.61718-5.61719m0-63.55078-5.61718 5.61328m-26.16016 31.77734-5.61719-5.61718m63.55079 0 5.61718 5.61718"/><path fill="none" stroke="#000" stroke-miterlimit="10" stroke-width=".39711" d="M131.2539 162.85938v-63.5547h63.5547v63.5547Zm0 0"/><path fill="none" stroke="red" stroke-miterlimit="10" stroke-width=".39711" d="m160.22265 165.66797 5.6172-5.61719M165.83984 96.5l-5.61719 5.61328m-26.16015 31.77734-5.6172-5.61718m63.5547 0 5.61328 5.61718"/><path fill="none" stroke="#000" stroke-miterlimit="10" stroke-width=".39711" d="M576.16409 131.07812V67.52734h127.10157v63.55078Zm0 0"/><path fill="none" stroke="red" stroke-miterlimit="10" stroke-width=".39711" d="m636.7383 135.05078 3.96876-7.9414m-.99219 7.9414 3.97266-7.9414m-.9961-63.5547L638.72268 71.5m.9922-7.9453L635.74221 71.5m-56.76953 30.61328-5.61719-5.61719m127.10157 0 5.61719 5.61328"/><path fill="none" stroke="#000" stroke-miterlimit="10" stroke-width=".39711" d="M576.16409 67.51953V3.96874h127.10157v63.55079Zm0 0"/><path fill="none" stroke="red" stroke-miterlimit="10" stroke-width=".39711" d="m636.7383 71.49218 3.96876-7.9414m-.99219 7.9414 3.97266-7.9414m-.9961-63.5547-3.96875 7.94532m.9922-7.94532L635.7422 7.9414m-56.76952 30.61328-5.61719-5.61719m127.10157.00001 5.61719 5.61718"/><path fill="none" stroke="#000" stroke-miterlimit="10" stroke-width=".39711" d="M576.16409 194.63672v-63.55078h127.10157v63.55078Zm0 0"/><path fill="none" stroke="red" stroke-miterlimit="10" stroke-width=".39711" d="m636.7383 198.60938 3.96876-7.94532m-.99219 7.94532 3.97266-7.94532m-.9961-63.55078-3.96875 7.94531m.9922-7.94531-3.97267 7.94531m-56.76953 30.60938-5.61719-5.61328m127.10157 0 5.61719 5.61328"/><path fill="none" stroke="#000" stroke-miterlimit="10" stroke-width=".39711" d="M576.16409 258.19532v-63.55079h127.10157v63.55079Zm0 0"/><g clip-path="url(#b)"><path fill="none" stroke="red" stroke-miterlimit="10" stroke-width=".39711" d="m636.7383 262.16797 3.96876-7.9453m-.99219 7.9453 3.97266-7.9453"/></g><path fill="none" stroke="red" stroke-miterlimit="10" stroke-width=".39711" d="m642.69143 190.67188-3.96875 7.94531m.9922-7.94531-3.97267 7.94531m-56.76953 30.60938-5.61719-5.61328m127.10157 0 5.61719 5.61328"/><path fill="none" stroke="#000" stroke-miterlimit="10" stroke-width=".39711" d="M512.60549 131.07812V67.52734h63.55078v63.55078Zm0 0"/><path fill="none" stroke="red" stroke-miterlimit="10" stroke-width=".39711" d="m541.57424 133.88672 5.61328-5.6172m0-63.55078-5.61328 5.6172m-26.16016 31.77734-5.61719-5.61719m63.55079 0 5.61719 5.61328"/><path fill="none" stroke="#000" stroke-miterlimit="10" stroke-width=".39711" d="M703.28128 131.07812V67.52734h63.55079v63.55078Zm0 0"/><path fill="none" stroke="red" stroke-miterlimit="10" stroke-width=".39711" d="m732.24613 133.88672 5.61718-5.6172m0-63.55078-5.61718 5.6172m-26.15625 31.77734-5.6172-5.61719"/><g clip-path="url(#c)"><path fill="none" stroke="red" stroke-miterlimit="10" stroke-width=".39711" d="m764.02347 96.49609 5.61719 5.61328"/></g></svg>