<svg xmlns="http://www.w3.org/2000/svg" xmlns:xlink="http://www.w3.org/1999/xlink" width="385.76pt" height="186.42pt" viewBox="0 0 385.76 186.42"><defs><clipPath id="a"><path d="M.48047 19H287v128H.48047Zm0 0"/></clipPath><clipPath id="b"><path d="M.48047 0H331v153H.48047Zm0 0"/></clipPath><clipPath id="c"><path d="M.48047 121H331v32H.48047Zm0 0"/></clipPath><clipPath id="g"><path d="M.48047 148H11v16H.48047Zm0 0"/></clipPath><path id="d" d="M.40625-4.20312.57813-3.75h5.71875v2.14063c0 .71875-.21875.82812-.73438.875l-1.34375.125V0h5.54688v-.60937l-.9375-.10938c-.5-.0625-.625-.17187-.625-.89062V-3.75h2.14062v-.98437H8.20313v-9.29688H6.65625C4.6875-11.125 2.32813-7.48437.40625-4.20312m1.51563-.53125C3.17188-7.01562 4.6875-9.45312 6.29688-12v7.26563Zm0 0"/><path id="f" d="M.5625-2.14062C.5625-1.25 2.01563.25 4.98438.25 8.01563.25 9.9375-1.29687 9.9375-3.98437c0-2.8125-2.40625-3.64063-3.5625-3.75v-.07813C7.5-8 9.3125-8.84375 9.3125-10.92187c0-2.32813-1.8125-3.35938-4.0625-3.35938-2.76562 0-4.14062 1.60938-4.14062 2.5 0 .65625.75 1.01563 1.03125 1.01563.26562 0 .42187-.15625.51562-.42188.46875-1.4375 1.25-2.35937 2.4375-2.35937 1.65625 0 2.07813 1.45312 2.07813 2.64062 0 1.25-.45313 2.84375-2.23438 2.84375-1 0-1.59375-.20312-1.82812-.20312-.26563 0-.39063.20312-.39063.57812 0 .35938.125.57813.39063.57813.23437 0 .82812-.20313 1.82812-.20313 1.78125 0 2.79688 1.60938 2.79688 3.45313 0 2.5-1.23438 3.375-2.73438 3.375-1.375 0-2.29687-1.03125-2.70312-2.21875-.125-.40625-.32813-.60938-.625-.60938-.375 0-1.10938.40625-1.10938 1.17188m0 0"/><path id="h" d="M.92188-6.48437C.92188-1.9375 2.5625.25 5.71875.25c3.10938 0 4.76563-1.875 4.76563-4.73437 0-2.84375-1.75-4.39063-4-4.39063-1.65625 0-2.89063 1.125-3.45313 1.8125.03125-4.625 1.29688-6.48437 3.20313-6.48437.95312 0 1.65625.8125 1.96875 2.01562.0625.25.21875.45313.53125.45313.46875 0 1.125-.39063 1.125-.96875 0-.84375-1.03125-2.23438-3.5625-2.23438-3.32813 0-5.375 2.57813-5.375 7.79688m2.10937 1.53125c0-1.28125.96875-2.84375 2.73438-2.84375 1.3125 0 2.60937 1.20312 2.60937 3.625 0 2.20312-.84375 3.6875-2.60937 3.6875-1.82813 0-2.73438-1.95313-2.73438-4.46875m0 0"/><path id="e" d="M.67188 0h5.10937v-.60937c-1.48437-.10938-1.5625-.15626-1.5625-1.21875V-6.75c0-.53125 0-.82812.15625-1.10937.40625-.85938 1.32813-1.54688 2.48438-1.54688 1.8125 0 2.03125 1.3125 2.03125 2.60938v4.96875c0 1.0625-.0625 1.10937-1.57813 1.21875V0h5.10938v-.60937c-1.5-.10938-1.5625-.15626-1.5625-1.21875V-6.75c0-.53125.01562-.79687.15625-1.14062.3125-.84375 1.20312-1.51563 2.39062-1.51563 1.3125 0 2.125.73438 2.125 2.60938v4.96875c0 1.0625-.0625 1.10937-1.59375 1.21875V0h5.14063v-.60937C17.57813-.71875 17.5-.76563 17.5-1.82812V-7.1875c0-2.125-1.14062-3.35937-3.14062-3.35937-1.71875 0-2.9375 1.14062-3.67188 1.60937-.51562-.98437-1.32812-1.60937-2.79687-1.60937-1.60938 0-2.9375 1.07812-3.67188 1.60937l-.20312-1.60937-3.23438.53125V-9.5l.78125.10938c.53125.09375.6875.1875.6875.9375v6.625c0 1.0625-.0625 1.10937-1.57812 1.21875Zm0 0"/></defs><g clip-path="url(#a)"><path fill="none" stroke="#000" stroke-miterlimit="10" stroke-width=".39726" d="M.67578 146.4336h286.12098V19.26957H.67578Zm0 0"/></g><g clip-path="url(#b)"><path fill="none" stroke="#000" stroke-miterlimit="10" stroke-width=".39726" d="m286.79676 146.4336 38.14842-19.07422V.19537H38.8242L.67578 19.26958"/></g><path fill="none" stroke="#000" stroke-miterlimit="10" stroke-width=".39726" d="M286.79676 19.26958 324.94518.19537"/><g clip-path="url(#c)"><path fill="none" stroke="#000" stroke-dasharray="2.9795646270000002 2.9795646270000002" stroke-miterlimit="10" stroke-width=".39726" d="m.67578 146.4336 38.14842-19.07422h286.12098"/></g><path fill="none" stroke="#000" stroke-dasharray="2.9795646270000002 2.9795646270000002" stroke-miterlimit="10" stroke-width=".39726" d="M38.8242 127.35938V.19537"/><path fill="none" stroke="#000" stroke-miterlimit="10" stroke-width=".39726" d="M334.48424 122.79298V4.76568"/><path stroke="#000" stroke-miterlimit="10" stroke-width=".39726" d="M334.48438 126.61719c.1289-.46875.84374-2.53516 1.62109-3.82422h-3.24219c.78125 1.28906 1.4961 3.35547 1.6211 3.82422Zm0-125.67969c-.125.47266-.83985 2.53516-1.6211 3.82813h3.24219c-.77735-1.29297-1.49219-3.35547-1.6211-3.82813Zm0 0"/><use xlink:href="#d" x="342.37588" y="86.69228"/><use xlink:href="#e" x="358.22058" y="86.69228"/><path fill="none" stroke="#000" stroke-miterlimit="10" stroke-width=".39726" d="m290.8866 153.93359 29.99218-14.96093"/><path stroke="#000" stroke-miterlimit="10" stroke-width=".39723" d="M287.46094 155.64063c.47656-.09375 2.64453-.375 4.14844-.25782l-1.44532-2.89844c-.8086 1.27344-2.33594 2.83594-2.70312 3.15626Zm0 0"/><path stroke="#000" stroke-miterlimit="10" stroke-width=".39726" d="M324.28516 137.23437c-.47657.10157-2.64063.40235-4.14454.29688l1.47266 2.88672c.79688-1.28125 2.3125-2.85547 2.67188-3.1836Zm0 0"/><use xlink:href="#f" x="313.7639" y="159.07209"/><use xlink:href="#e" x="329.6086" y="159.07209"/><path fill="none" stroke="#000" stroke-miterlimit="10" stroke-width=".39726" d="M5.2461 155.97265h276.98426"/><path d="M1.41797 155.97266c.47266.1289 2.53515.84375 3.82812 1.62109v-3.24219c-1.29296.78125-3.35546 1.4961-3.82812 1.6211m0 0"/><g clip-path="url(#g)"><path fill="none" stroke="#000" stroke-miterlimit="10" stroke-width=".39726" d="M1.41797 155.97266c.47266.1289 2.53515.84375 3.82812 1.62109v-3.24219c-1.29297.78125-3.35546 1.4961-3.82812 1.6211Zm0 0"/></g><path stroke="#000" stroke-miterlimit="10" stroke-width=".39726" d="M286.05469 155.97266c-.46875-.125-2.53516-.83985-3.82422-1.6211v3.24219c1.28906-.77734 3.35547-1.49219 3.82422-1.6211Zm0 0"/><use xlink:href="#h" x="126.12669" y="178.14774"/><use xlink:href="#e" x="141.97139" y="178.14774"/></svg>