<svg xmlns="http://www.w3.org/2000/svg" width="430.833pt" height="149.702pt" viewBox="0 0 430.833 149.702"><defs><clipPath id="a"><path d="M.34375 66H12v18H.34375Zm0 0"/></clipPath><clipPath id="b"><path d="M348 135h19v14.40625h-19Zm0 0"/></clipPath><clipPath id="c"><path d="M419 48h11.32031v18H419Zm0 0"/></clipPath></defs><path fill="none" stroke="#000" stroke-miterlimit="10" stroke-width=".39771" d="M109.2461 92.38281V57.01954h70.72653v35.36327Zm0 0"/><path fill="none" stroke="red" stroke-miterlimit="10" stroke-width=".39771" d="m141.62499 96.35937 3.97656-7.95312m-.99219 7.95312 3.97656-7.95312m-.99609-35.36327-3.97656 7.95312m.9961-7.95312-3.97657 7.95312m-28.5742 16.51953-5.625-5.625m70.72653 0 5.625 5.625"/><path fill="none" stroke="#000" stroke-miterlimit="10" stroke-width=".39771" d="M109.2461 57.01954V21.65627h70.72653v35.36327Zm0 0"/><path fill="none" stroke="red" stroke-miterlimit="10" stroke-width=".39771" d="m141.62499 60.9961 3.97656-7.95312m-.99219 7.95312 3.97656-7.95312m-.99609-35.36327-3.97656 7.95312m.9961-7.95312-3.97657 7.95312m-28.5742 16.51953-5.625-5.625m70.72653 0 5.625 5.625"/><path fill="none" stroke="#000" stroke-miterlimit="10" stroke-width=".39771" d="M109.2461 127.74608V92.38281h70.72653v35.36327Zm0 0"/><path fill="none" stroke="red" stroke-miterlimit="10" stroke-width=".39771" d="m141.62499 131.72264 3.97656-7.95312m-.99219 7.95312 3.97656-7.95312m-.99609-35.36327-3.97656 7.95312m.9961-7.95312-3.97657 7.95312M112.0586 112.875l-5.625-5.6211m70.72653 0 5.625 5.6211"/><path fill="none" stroke="#000" stroke-miterlimit="10" stroke-width=".39771" d="M3.15629 92.38281V57.01954h70.72654v35.36327Zm0 0"/><path fill="none" stroke="red" stroke-miterlimit="10" stroke-width=".39771" d="m35.53518 96.35937 3.97656-7.95312m-.99219 7.95312 3.97657-7.95312m-.9961-35.36327-3.97656 7.95312m.9961-7.95312-3.97657 7.95312"/><g clip-path="url(#a)"><path fill="none" stroke="red" stroke-miterlimit="10" stroke-width=".39771" d="m5.96879 77.51563-5.625-5.625"/></g><path fill="none" stroke="red" stroke-miterlimit="10" stroke-width=".39771" d="m71.07033 71.89063 5.625 5.625"/><path fill="none" stroke="#000" stroke-miterlimit="10" stroke-width=".39771" d="M179.97263 92.38281V57.01954h35.36327v35.36327Zm0 0"/><path fill="none" stroke="red" stroke-miterlimit="10" stroke-width=".39771" d="m194.83982 95.19531 5.625-5.625m-.00001-35.36327-5.625 5.625m-12.05468 17.68359-5.625-5.625m35.36327 0 5.625 5.625"/><path fill="none" stroke="#000" stroke-miterlimit="10" stroke-width=".39771" d="M73.88283 92.38281V57.01954h35.36326v35.36327Zm0 0"/><path fill="none" stroke="red" stroke-miterlimit="10" stroke-width=".39771" d="m88.75 95.19531 5.625-5.625m0-35.36327-5.625 5.625M76.69532 77.51563l-5.625-5.625m35.36328 0 5.625 5.625"/><path fill="none" stroke="#000" stroke-miterlimit="10" stroke-width=".39771" d="M321.4218 74.70313V39.33986h70.72654v35.36327Zm0 0"/><path fill="none" stroke="red" stroke-miterlimit="10" stroke-width=".39771" d="m353.8046 78.6797 3.97657-7.95704m-.9961 7.95703 3.98047-7.95703m-.99609-35.36326-3.97656 7.95702m.99218-7.95703-3.97656 7.95703M324.2343 59.83204l-5.625-5.625m70.72654 0 5.625 5.625"/><path fill="none" stroke="#000" stroke-miterlimit="10" stroke-width=".39771" d="M321.4218 39.33986V3.9766h70.72654v35.36327Zm0 0"/><path fill="none" stroke="red" stroke-miterlimit="10" stroke-width=".39771" d="m353.8046 43.31642 3.97657-7.95703m-.9961 7.95703 3.98047-7.95703m-.99609-35.36327-3.97656 7.95703m.99218-7.95703-3.97656 7.95703M324.2343 24.46877l-5.625-5.625m70.72654 0 5.625 5.625"/><path fill="none" stroke="#000" stroke-miterlimit="10" stroke-width=".39771" d="M321.4218 110.0664V74.70313h70.72654v35.36327Zm0 0"/><path fill="none" stroke="red" stroke-miterlimit="10" stroke-width=".39771" d="m353.8046 114.04296 3.97657-7.95703m-.9961 7.95703 3.98047-7.95703m-.99609-35.36327-3.97656 7.95703m.99218-7.95703-3.97656 7.95703M324.2343 95.19531l-5.625-5.625m70.72654 0 5.625 5.625"/><path fill="none" stroke="#000" stroke-miterlimit="10" stroke-width=".39771" d="M321.4218 145.42967V110.0664h70.72654v35.36327Zm0 0"/><g clip-path="url(#b)"><path fill="none" stroke="red" stroke-miterlimit="10" stroke-width=".39771" d="m353.8046 149.40623 3.97657-7.95703m-.9961 7.95703 3.98047-7.95703"/></g><path fill="none" stroke="red" stroke-miterlimit="10" stroke-width=".39771" d="m359.76945 106.08593-3.97656 7.95703m.99218-7.95703-3.97656 7.95703m-28.57421 16.51562-5.625-5.625m70.72654 0 5.625 5.625"/><path fill="none" stroke="#000" stroke-miterlimit="10" stroke-width=".39771" d="M286.05853 74.70313V39.33986h35.36328v35.36327Zm0 0"/><path fill="none" stroke="red" stroke-miterlimit="10" stroke-width=".39771" d="m300.92962 77.51563 5.625-5.625m0-35.36327-5.625 5.625m-12.05859 17.67968-5.62109-5.625m35.36327 0 5.6211 5.625"/><path fill="none" stroke="#000" stroke-miterlimit="10" stroke-width=".39771" d="M392.14834 74.70313V39.33986h35.36327v35.36327Zm0 0"/><path fill="none" stroke="red" stroke-miterlimit="10" stroke-width=".39771" d="m407.01943 77.51563 5.625-5.625m0-35.36327-5.625 5.625m-12.05859 17.67968-5.625-5.625"/><g clip-path="url(#c)"><path fill="none" stroke="red" stroke-miterlimit="10" stroke-width=".39771" d="m424.69911 54.20704 5.625 5.625"/></g></svg>