<svg xmlns="http://www.w3.org/2000/svg" width="217.248pt" height="76.934pt" viewBox="0 0 217.248 76.934"><defs><clipPath id="a"><path d="M0 12h192v64.76953H0Zm0 0"/></clipPath><clipPath id="b"><path d="M0 .10156h216.5v76.66797H0Zm0 0"/></clipPath><clipPath id="c"><path d="M185 .10156h31.5V19H185Zm0 0"/></clipPath><clipPath id="d"><path d="M0 58h216.5v18.76953H0Zm0 0"/></clipPath><clipPath id="e"><path d="M25 .10156h1V65h-1Zm0 0"/></clipPath></defs><g clip-path="url(#a)"><path fill="none" stroke="#000" stroke-miterlimit="10" stroke-width=".39713" d="M.19922 76.57031h190.6796V13.01175H.19922Zm0 0"/></g><g clip-path="url(#b)"><path fill="none" stroke="#000" stroke-miterlimit="10" stroke-width=".39713" d="m190.87882 76.57031 25.42577-12.71093V.29691H25.62109L.19921 13.01175"/></g><g clip-path="url(#c)"><path fill="none" stroke="#000" stroke-miterlimit="10" stroke-width=".39713" d="M190.87882 13.01175 216.30459.2969"/></g><g clip-path="url(#d)"><path fill="none" stroke="#000" stroke-dasharray="2.9785185365 2.9785185365" stroke-miterlimit="10" stroke-width=".39713" d="m.19922 76.57031 25.42186-12.71093h190.6835"/></g><g clip-path="url(#e)"><path fill="none" stroke="#000" stroke-dasharray="2.9785185365 2.9785185365" stroke-miterlimit="10" stroke-width=".39713" d="M25.62108 63.85938V.29691"/></g></svg>