<svg version="1.2" xmlns="http://www.w3.org/2000/svg" viewBox="0 0 513 513" width="513" height="513"><style>.a{fill:#e28086}.b{fill:#dd636e}</style><path class="a" d="m509.4 497l-29.1-29.1v-0.1l-12.4-12.3-22.9-22.9v-0.1l-12.4-12.3-22.9-22.9v-0.1l-12.4-12.4h-0.1l-22.8-22.8v-0.1l-12.4-12.4h-0.1l-22.8-22.8v-0.1l-12.4-12.4h-0.1l-22.8-22.8v-0.1l-12.4-12.4h-0.1l-22.9-22.8v-0.1l-12.3-12.4h-0.1l-22.9-22.9-12.3-12.4h-0.1l-22.9-22.9v-0.1l-12.3-12.3h-0.1l-22.9-22.9v-0.1l-12.3-12.3h-0.1l-22.9-22.9v-0.1l-12.4-12.3-22.9-22.9v-0.1l-12.4-12.3h-0.1l-22.8-22.9v-0.1l-12.4-12.4h-0.1l-29-29.1c-2.5-2.5-6.3-3.3-9.7-1.9-3.3 1.4-5.4 4.6-5.4 8.2v494.3c0 4.9 4 8.9 8.8 8.9h494.4c3.6 0 6.8-2.2 8.2-5.5 1.3-3.3 0.6-7.1-2-9.6zm-204.1-73.2h-208.4c-2.3-0.1-4.5-1-6.2-2.7-1.6-1.7-2.5-4-2.4-6.3v-207.8c-0.1-1.6 0.8-3 2.2-3.6 1.4-0.6 3.1-0.3 4.1 0.8l213.3 213c1.1 1.1 1.4 2.7 0.8 4.1-0.6 1.4-1.9 2.4-3.4 2.5z"/><path class="b" d="m56.6 44.1v0.1l-15 15.1c-3.5 3.4-9.1 3.4-12.6 0-3.4-3.5-3.4-9.1 0-12.6l15.1-15h0.1z"/><path class="b" d="m91.9 79.4v0.1l-15 15.1c-3.5 3.4-9.1 3.4-12.5 0-3.5-3.5-3.5-9.1 0-12.5l15-15h0.1z"/><path class="b" d="m127.2 114.7v0.1l-15 15.1c-3.5 3.4-9.1 3.4-12.5 0-3.5-3.5-3.5-9.1 0-12.5l15.1-15z"/><path class="b" d="m162.5 150v0.1l-15 15.1c-3.5 3.4-9 3.4-12.5 0-3.5-3.5-3.5-9.1 0-12.5l15.1-15h0.1z"/><path class="b" d="m197.8 185.3v0.1l-15 15.1c-3.5 3.4-9 3.4-12.5 0-3.5-3.4-3.5-9 0-12.5l15.1-15h0.1z"/><path class="b" d="m233.1 220.7l-15 15.1c-3.5 3.5-9 3.5-12.5 0-3.4-3.4-3.4-9 0-12.5l15.1-15h0.1z"/><path class="b" d="m268.4 256v0.1l-15 15c-3.4 3.5-9 3.5-12.5 0-3.4-3.4-3.4-9 0-12.5l15.1-15h0.1z"/><path class="b" d="m303.8 291.3v0.1l-15.1 15.1c-3.4 3.4-9 3.4-12.5 0-3.4-3.5-3.4-9.1 0-12.6l15.1-15h0.1z"/><path class="b" d="m339.1 326.6v0.1l-15 15.1c-3.5 3.4-9.1 3.4-12.6 0-3.4-3.5-3.4-9.1 0-12.6l15.1-15h0.1z"/><path class="b" d="m374.4 361.9v0.1l-15 15.1c-3.5 3.4-9.1 3.4-12.6 0-3.4-3.5-3.4-9.1 0-12.6l15.1-15h0.1z"/><path class="b" d="m409.7 397.2v0.1l-15 15.1c-3.5 3.4-9.1 3.4-12.6 0-3.4-3.5-3.4-9.1 0-12.5l15.1-15.1h0.1z"/><path class="b" d="m445 432.5v0.1l-15 15.1c-3.5 3.4-9.1 3.4-12.5 0-3.5-3.5-3.5-9.1 0-12.5l15.1-15z"/><path class="b" d="m480.3 467.8v0.1l-15 15.1c-3.5 3.4-9.1 3.4-12.5 0-3.5-3.5-3.5-9.1 0-12.5l15.1-15z"/></svg>