<svg xmlns="http://www.w3.org/2000/svg" xmlns:xlink="http://www.w3.org/1999/xlink" width="129.799pt" height="119.763pt" viewBox="0 0 129.799 119.763"><defs><path id="a" d="M.17188-3.45312c0 .21875.20312.28125.3125.28125.07812 0 .15625-.03125.1875-.125.07812-.4375.23437-.64063.46875-.64063.26562 0 .375.25.375.59375 0 .375-.25.73438-.51563.9375-.34375.26563-.46875.42188-.46875.67188 0 .375.29688.57812.625.57812.17188 0 .39063-.03125.54688-.17187l-.03126-.10938c-.04687 0-.10937.01563-.17187.01563-.125 0-.40625-.10938-.40625-.42188 0-.26562.15625-.46875.4375-.67187.20313-.14063.5625-.35938.5625-.82813 0-.53125-.39062-.79687-.92187-.79687-.76563 0-1 .48437-1 .6875M.75-.29687c0 .21875.15625.35937.35938.35937.21874 0 .35937-.14062.35937-.35937s-.14062-.35938-.35937-.35938C.90625-.65625.75-.51562.75-.29687m0 0"/><path id="h" d="M.28125-1.40625C.28125-.42187.76563.0625 1.64063.0625c.40625 0 .96875-.20312 1.125-.82812l-.17188-.09376c-.1875.42188-.40625.625-.84375.625-.6875 0-.85937-.73437-.85937-1.28124 0-.85938.34375-1.21875.75-1.21875.26562 0 .4375.20312.54687.51562.04688.09375.07813.14063.1875.14063.125 0 .34375-.0625.34375-.29688 0-.26562-.375-.5625-1.01562-.5625-1.0625 0-1.42188.75-1.42188 1.53125m0 0"/><path id="i" d="M.1875 0h1.42188v-.17187c-.42188-.03126-.4375-.04688-.4375-.34375V-1.875c0-.15625 0-.23437.04687-.3125.10938-.23437.35938-.4375.6875-.4375.5 0 .5625.375.5625.73438v1.375c0 .29687-.01562.3125-.4375.34375V0h1.42188v-.17187c-.40625-.03126-.4375-.04688-.4375-.34375V-1.875c0-.15625.01562-.23437.04687-.3125.09375-.25.34375-.4375.67188-.4375.35937 0 .59375.21875.59375.73438v1.375c0 .29687-.03125.3125-.45313.34375V0h1.4375v-.17187c-.42187-.03126-.4375-.04688-.4375-.34375V-2c0-.59375-.32812-.9375-.875-.9375-.48437 0-.82812.3125-1.03125.45313-.14062-.28125-.35937-.45313-.78125-.45313-.4375 0-.8125.29688-1.01562.45313L1.125-2.9375l-.90625.15625v.14063l.21875.03125c.14063.01562.1875.04687.1875.26562v1.82813c0 .29687-.01562.3125-.4375.34375Zm0 0"/><path id="b" d="M0 0h3.3125l.0625-.32812-.79687-.07813c-.20313-.01562-.29688-.10937-.29688-.29687 0-.0625.01563-.15626.04688-.26563l.51562-2.29687h.875c.98438 0 1.90625-.14063 2.57813-.54688.75-.45312 1.1875-1.25 1.1875-2.125 0-.79687-.375-1.40625-.95313-1.73437-.54687-.29688-1.29687-.40625-2.0625-.40625H1.73438l-.07813.34375.6875.04687c.20313.01563.29688.10938.29688.3125 0 .07813-.01563.15625-.04688.26563L1.1875-.96875C1.09375-.57812 1-.4375.70313-.40625L.0625-.32812Zm3-3.92187c0-.07813.01563-.15625.04688-.25L3.75-7.26562c.07813-.29688.15625-.40625.75-.40625 1.15625 0 1.75.54687 1.75 1.53125 0 1.67187-.9375 2.46875-2.51562 2.46875-.59375 0-.73438-.0625-.73438-.25m0 0"/><path id="c" d="M.75-3.15625C.75-1.42187 1.65625-.10937 3.51563.125c.54687 1.01563 1.71875 2.25 3.1875 2.25.29687 0 .67187-.07812.875-.1875l-.03125-.20312c-1.125-.01563-2-.875-2.67188-1.85938C7.25-.21875 8.64063-2.5625 8.64063-4.82812c0-2.40625-1.45313-3.4375-3.39063-3.4375-3 0-4.5 2.78125-4.5 5.10937m1.21875.46875c0-2.07812 1.01563-5.15625 3.32813-5.15625 1.28125 0 2.10937.75 2.10937 2.40625 0 2.84375-1.32812 5.20313-3.34375 5.20313-1.26562 0-2.09375-.82813-2.09375-2.45313m0 0"/><path id="d" d="M0 0h3.1875l.07813-.32812-.6875-.0625C2.375-.40625 2.26563-.5 2.26563-.6875c0-.0625.03125-.17187.0625-.28125l.625-2.82812h.71875c1.125 0 1.28125.26562 1.28125 1.64062C4.95313-.75 4.95313 0 6.1875 0h.90625l.10938-.32812c-.8125-.125-1.10938-.15625-1.10938-1.65625 0-1.20313-.09375-1.70313-1.0625-2.03125 1.42188-.20313 2.39063-1.03125 2.39063-2.1875 0-.82813-.35938-1.875-2.54688-1.875H1.73438l-.07813.34375.6875.04687c.20313.01563.29688.10938.29688.3125 0 .07813-.01563.15625-.04688.26563L1.1875-.96875C1.09375-.5625 1-.4375.70313-.40625L.0625-.32812Zm3.0625-4.21875.67188-3.01562c.09375-.32813.125-.4375 1.01562-.4375.75 0 1.45313.32812 1.45313 1.34375 0 1.39062-.90625 2.10937-2.40625 2.10937Zm0 0"/><path id="e" d="M.17188-.64062c0 .23437.35937.70312 1.29687.70312.875 0 1.4375-.40625 1.4375-1.15625 0-.8125-.71875-1.01562-.98437-1.04687v-.01563c.3125-.0625.8125-.28125.8125-.85937 0-.71875-.59375-.95313-1.21875-.95313-.73438 0-1.20313.39063-1.20313.73438 0 .20312.25.3125.35938.3125s.15624-.0625.1875-.15625C1-3.5 1.1875-3.75 1.5-3.75c.40625 0 .5.42188.5.71875C2-2.75 1.92188-2.25 1.45313-2.25c-.26563 0-.4375-.0625-.53125-.0625-.10938 0-.14063.0625-.14063.1875s.03125.20313.14063.20313c.09374 0 .26562-.0625.53125-.0625.40625 0 .6875.3125.6875.90625 0 .65625-.28125.92187-.67188.92187-.32812 0-.54687-.25-.6875-.67187C.73438-.9375.67188-1 .5625-1c-.15625 0-.39062.125-.39062.35938m0 0"/><path id="f" d="m.29688.73438.15625.125c.28125-.28126.78125-.70313.78125-1.15625 0-.3125-.17188-.5625-.4375-.5625-.25 0-.35938.17187-.35938.32812 0 .20313.17188.3125.17188.5625s-.125.5-.3125.70313m0 0"/><path id="g" d="M.21875-2.64062c0 .8125.5 1.21875 1.125 1.21875.42188 0 .75-.26563.9375-.48438C2.26563-1 2.04688-.15625 1.5-.15625c-.25 0-.4375-.23437-.53125-.59375C.9375-.82812.89063-.90625.76563-.90625s-.375.10938-.375.3125c0 .26563.32812.65625 1.0625.65625 1 0 1.5625-.76562 1.5625-2.125 0-1.21875-.4375-1.90625-1.40625-1.90625-.95313 0-1.39063.57813-1.39063 1.32813M.9375-2.75c0-.57812.1875-1 .64063-1 .48437 0 .70312.54688.70312 1.21875 0 .34375-.23437.73438-.67187.73438C1.25-1.79687.9375-2.09375.9375-2.75m0 0"/></defs><path fill="none" stroke="red" stroke-miterlimit="10" stroke-width=".39771" d="m82.5039 100.35547-6.64452-2.41797 2.41796-6.64844 6.64453 2.41797-2.41796 6.64844"/><path fill="#99F" d="m16.04297 76.16406 9.96875 3.6289c1.10547-3.04296.76562-6.42187-.92969-9.17968Zm0 0"/><path fill="none" stroke="#000" stroke-miterlimit="10" stroke-width=".39771" d="M26.01172 79.79297c1.10547-3.04297.76562-6.42188-.92969-9.17969"/><use xlink:href="#a" x="34.23568" y="76.27306"/><path fill="none" stroke="#000" stroke-miterlimit="10" stroke-width=".39771" d="m16.04297 76.16406 66.46094 24.1914 30.48047-83.74218Zm0 0"/><use xlink:href="#b" x="4.17068" y="88.6346"/><use xlink:href="#c" x="86.89597" y="113.01036"/><use xlink:href="#d" x="117.37466" y="12.22181"/><use xlink:href="#e" x="41.8082" y="41.13959"/><use xlink:href="#f" x="45.00859" y="41.13959"/><use xlink:href="#g" x="47.32654" y="41.13959"/><use xlink:href="#h" x="51.83835" y="41.13959"/><use xlink:href="#i" x="54.73423" y="41.13959"/><use xlink:href="#e" x="42.87608" y="96.6208"/><use xlink:href="#h" x="47.3884" y="96.6208"/><use xlink:href="#i" x="50.28429" y="96.6208"/></svg>