<svg xmlns="http://www.w3.org/2000/svg" xmlns:xlink="http://www.w3.org/1999/xlink" width="144.82pt" height="107.063pt" viewBox="0 0 144.82 107.063"><defs><path id="b" d="M1.59375-5.23437c0 4.1875.95313 8.79687 4.89063 8.95312v-.5625c-1.32813-.25-3.40625-1.89062-3.40625-8.39062 0-6.45313 1.98437-8.09375 3.40625-8.39063v-.5625c-3.9375.17188-4.89063 4.76563-4.89063 8.95313m0 0"/><path id="c" d="M1.375-2.23437c0 1.20312.35938 2.45312 1.85938 2.45312 2.14062 0 3.79687-2.26562 4.89062-4.26562h.03125l-.60937 2.20312c-.09375.375-.15625.71875-.15625 1 0 .6875.3125 1.0625.96875 1.0625 1.45312 0 2.42187-1.26562 3.0625-2.67187l-.4375-.25C10.64063-2.04687 9.8125-.75 9.29688-.75 9.07813-.75 9-.89062 9-1.10937c0-.17188.0625-.39063.125-.64063l2.92188-11.9375-.09375-.07812-3.29688.4375-.10937.4375 1.10937.09375c.29688.01562.42188.09375.42188.3125 0 .09375-.03125.26562-.07813.45312l-.71875 2.98438L9.25-9c-.35937-.1875-.9375-.32812-1.5625-.32812-4.32812 0-6.3125 4.84375-6.3125 7.09375m1.84375.15625c0-2.01563 1.625-6.59375 4.57813-6.59375.57812 0 1.07812.17187 1.28125.375C8.8125-6.875 8.20313-5.10937 7.25-3.57812 6.35938-2.14062 5.14063-.75 4.14063-.75c-.57813 0-.92188-.5-.92188-1.32812m0 0"/><path id="d" d="M1.10938 3.15625v.5625c3.92187-.15625 4.875-4.76562 4.875-8.95312s-.95313-8.78125-4.875-8.95313v.5625C2.53125-13.32812 4.5-11.6875 4.5-5.23437c0 6.5-2.07812 8.14062-3.39062 8.39062m0 0"/><path id="e" d="m2.6875-2.01562.76563.76562 3.21875-3.23437 3.25 3.23437.75-.76562-3.21875-3.21875 3.21875-3.23438-.75-.75L6.67188-6 3.45313-9.21875l-.76563.75 3.23438 3.23438Zm0 0"/><path id="f" d="M0 0h4.39063l.09375-.53125L3.75-.59375c-.54687-.03125-.84375-.17187-.84375-.57812 0-.98438.17188-1.53125.39063-2.51563L5-11.25h.03125L7.26563-.21875h.51562L15.01563-11.25h.03125l-2.26563 9.70313c-.15625.64062-.34375.85937-.79687.89062l-1 .125-.125.53125h5.0625l.09375-.53125-1.07813-.125c-.34375-.01562-.48437-.17187-.48437-.46875 0-.125.03125-.25.0625-.42187l2.23437-9.75c.15625-.625.29688-.89063.76563-.92188l1.03124-.07812.14063-.54688h-3.64062c-.98438 1.70313-2.09375 3.35938-3.21875 5.07813L8.54688-2.75H8.5L7.45313-7.90625c-.375-1.67187-.76563-3.26562-1.07813-4.9375H2.78125l-.10937.54688 1.07812.09375c.3125.01562.46875.17187.46875.48437q0 .1875-.04687.42188L2.40625-3.6875C2.1875-2.70312 1.96875-2 1.75-1.375c-.20312.57813-.54687.71875-1.07812.78125l-.57813.0625Zm0 0"/><path id="g" d="M0 0h5.07813l.10937-.53125-1.09375-.07812c-.32812-.01563-.45312-.1875-.45312-.48438 0-.125.01562-.26562.04687-.45312l1.07813-4.79688h6.20312L9.875-1.54687c-.15625.64062-.32812.85937-.79687.89062l-1.01563.125L7.95313 0h5.07812l.125-.53125-1.09375-.07812c-.32812-.01563-.46875-.1875-.46875-.5 0-.10938.01563-.25.0625-.4375l2.23438-9.75c.15625-.60938.29687-.89063.76562-.92188l1.03125-.07812.10938-.54688h-5.07813l-.125.54688 1.09375.07812c.32813.01563.45313.1875.45313.5q0 .1875-.04688.42188l-.95312 4.26562H4.9375l.96875-4.26562c.15625-.60938.3125-.89063.78125-.92188l1.03125-.07812.125-.54688H2.76563l-.14063.54688 1.10938.07812c.3125.01563.45312.1875.45312.5 0 .125-.01562.26563-.0625.42188l-2.23437 9.75c-.15626.64062-.3125.85937-.76563.89062l-1.03125.125Zm0 0"/><clipPath id="a"><path d="M.53906 61H130v33H.53906Zm0 0"/></clipPath></defs><path fill="none" stroke="red" stroke-miterlimit="10" stroke-width=".39504" d="m50.78515 79.73438-10.92968 1.78906-1.84766-10.91797L48.9375 68.8125l1.84765 10.92188"/><g clip-path="url(#a)"><path fill="none" stroke="#000" stroke-miterlimit="10" stroke-width=".39504" d="M.73437 87.9375 123.8125 67.42578"/></g><use xlink:href="#b" x="110.10212" y="56.73348"/><use xlink:href="#c" x="117.68705" y="56.73348"/><use xlink:href="#d" x="129.93354" y="56.73348"/><path fill="none" stroke="#000" stroke-dasharray="2.9628869556 2.9628869556" stroke-miterlimit="10" stroke-width=".39504" d="m41.76172 26.40235 9.02343 53.33203"/><use xlink:href="#e" x="35.08467" y="31.01258"/><use xlink:href="#f" x="16.68966" y="19.42202"/><use xlink:href="#e" x="44.11067" y="84.34483"/><use xlink:href="#g" x="57.76517" y="99.55075"/></svg>