<svg xmlns="http://www.w3.org/2000/svg" xmlns:xlink="http://www.w3.org/1999/xlink" width="172.762pt" height="106.44pt" viewBox="0 0 172.762 106.44"><defs><path id="a" d="M0 0h3.71875c2.42188 0 3.82813-.875 4.70313-2.1875.6875-1.04687.8125-2.0625.8125-2.78125 0-.98437-.35938-1.96875-1.04688-2.54687-.71875-.59375-1.79687-.85938-3.14062-.85938h-3.25l-.07813.34375.71875.04688c.20313.01562.28125.125.28125.3125 0 .07812-.01562.1875-.03125.29687L1.23438-1c-.09376.39063-.1875.54688-.48438.57813l-.6875.07812Zm2.39063-.89062c0-.04688 0-.10938.01562-.15626l1.45313-6.46874c.10937-.40625.28125-.45313 1.32812-.45313 2.53125.04688 2.73438 1.75 2.73438 2.71875 0 1.04688-.23438 2.03125-.78125 2.9375C6.4375-1.1875 5.40625-.42187 3.40625-.42187c-.59375 0-1.01562-.07813-1.01562-.46875m0 0"/><path id="b" d="M.125 0h6.3125l.625-2.125h-.35937c-.625 1.5-1.15625 1.70313-2.65625 1.70313-1.4375 0-1.5-.1875-1.5-.5 0-.14063.03125-.3125.07812-.5625l.625-2.65625h1.57813c.90625 0 1.07812.1875 1.07812.71875 0 .09375 0 .20312-.01562.32812H6.25L6.8125-5.625h-.375c-.29687.84375-.4375 1.03125-1.5 1.03125H3.34375l.6875-3.01562c.0625-.29688.14063-.35938.34375-.35938h1.46875c1.1875 0 1.42188.3125 1.42188.96875 0 .29688-.03125.625-.03125.625h.35937l.45313-2h-6.125l-.09376.34375.73438.04688c.20313.01562.29688.10937.29688.29687 0 .07813-.01563.17188-.03125.28125L1.375-1c-.09375.40625-.20312.54688-.5.57813l-.6875.07812Zm0 0"/><path id="c" d="M.125 0h3.51563l.07812-.34375-.90625-.0625C2.59375-.42187 2.5-.53125 2.5-.70312c0-.07813.01563-.15626.04688-.26563l.65625-2.98437h1.625c.875 0 1.04687.15625 1.04687.67187 0 .10938 0 .21875-.01562.35938h.35937l.57813-2.54688H6.4375c-.3125.85938-.45312 1.04688-1.53125 1.04688H3.3125l.71875-3.17188c.07813-.3125.14063-.375.35938-.375H5.875c1.1875 0 1.42188.3125 1.42188.95313 0 .3125-.04688.64062-.04688.64062h.375l.45313-2H1.92188l-.07813.34375.71875.0625c.20313.01563.29688.125.29688.3125 0 .0625-.01563.15625-.03125.25L1.375-.96875c-.09375.35938-.20312.53125-.5.5625l-.6875.0625Zm0 0"/><path id="d" d="M.1875-.65625c0 .23438.35938.73438 1.32813.73438C2.4375.07813 3-.35937 3-1.14062c0-.82813-.73437-1.03125-1.01562-1.0625v-.03125c.32812-.0625.84375-.29688.84375-.875 0-.75-.625-1-1.25-1-.76563 0-1.25.40625-1.25.75 0 .21875.25.32812.375.32812.10937 0 .15624-.04687.1875-.15625.14062-.4375.34375-.6875.65625-.6875.42187 0 .51562.4375.51562.73438 0 .29687-.07812.8125-.5625.8125-.26562 0-.45312-.0625-.54687-.0625-.10938 0-.14063.0625-.14063.20312 0 .10938.03125.20313.14063.20313.09374 0 .28124-.07813.54687-.07813.42188 0 .71875.32813.71875.95313 0 .67187-.29687.9375-.6875.9375-.34375 0-.57812-.25-.71875-.6875q-.07031-.1875-.23437-.1875c-.15626 0-.39063.14062-.39063.39062m0 0"/><path id="g" d="m.125-1.21875.09375.15625H1.8125v.60938c0 .17187-.0625.20312-.1875.21875l-.39062.03124V0H2.9375v-.20312l-.28125-.01563C2.53125-.25 2.5-.28125 2.5-.45312v-.60938h.60938v-.34375H2.5v-2.64062h-.57812C1.3125-3.15625.67188-2.15625.125-1.21875m.53125-.1875C.98438-2.01562 1.39063-2.6875 1.8125-3.375v1.96875Zm0 0"/><path id="h" d="M.26563-.65625c0 .23438.35937.73438 1.28125.73438 1.04687 0 1.48437-.625 1.48437-1.375 0-.71875-.42187-1.29688-1.29687-1.29688-.375 0-.71875.15625-.92188.32813L.92188-3.25c.03124-.1875.0625-.20312.20312-.20312h1.54688l.1875-.53125-.04688-.0625H.65625l-.04687.0625-.125 2.01562.20312.125c.23438-.29687.48438-.42187.78125-.42187.40625 0 .78125.29687.78125 1.04687 0 .60938-.20312 1.04688-.67187 1.04688-.35938 0-.54688-.25-.70313-.6875-.03125-.10938-.10937-.17188-.23437-.17188-.15626 0-.375.14063-.375.375m0 0"/><path id="e" d="M.29688-1.45312c0 1.01562.5 1.53125 1.40625 1.53125.42187 0 1-.21875 1.15625-.875L2.6875-.875c-.1875.42188-.42187.625-.875.625-.71875 0-.89062-.75-.89062-1.3125 0-.90625.35937-1.26562.78125-1.26562.26562 0 .45312.20312.5625.53125.04687.09375.07812.15625.20312.15625s.34375-.07813.34375-.3125c0-.28125-.39062-.57813-1.04687-.57813-1.10938 0-1.46875.76563-1.46875 1.57813m0 0"/><path id="f" d="M.1875 0h1.48438v-.17187c-.4375-.03126-.45313-.04688-.45313-.35938V-1.9375c0-.15625 0-.25.04688-.32812.10937-.25.375-.4375.70312-.4375.53125 0 .59375.375.59375.75v1.42187c0 .3125-.01562.32813-.45312.35938V0h1.46875v-.17187C3.14063-.20313 3.125-.21875 3.125-.53125V-1.9375c0-.15625.01563-.23437.04688-.32812.09375-.25.34375-.4375.6875-.4375.39062 0 .60937.20312.60937.75v1.42187c0 .3125-.01562.32813-.45312.35938V0H5.5v-.17187c-.4375-.03126-.45312-.04688-.45312-.35938v-1.54687c0-.60938-.32813-.95313-.90625-.95313-.5 0-.84375.32813-1.0625.45313-.15625-.28125-.375-.45313-.8125-.45313-.45313 0-.84375.29688-1.04688.45313l-.0625-.45313-.9375.14063v.15625l.23438.03125c.15625.03125.20312.04687.20312.26562v1.90625c0 .3125-.03125.32813-.46875.35938Zm0 0"/></defs><path fill="none" stroke="red" stroke-miterlimit="10" stroke-width=".39642" d="m64.95703 84.9961-3.66797-6.34766-6.34765 3.66406M21.02736 23.57034l7.27734.875-3.66797-6.34766"/><path fill="none" stroke="#000" stroke-miterlimit="10" stroke-width=".39642" d="M153.86325 33.66799 58.60547 88.66406 17.35939 17.21878Zm0 0"/><use xlink:href="#a" x="158.41502" y="37.85384"/><use xlink:href="#b" x="45.88705" y="101.58852"/><use xlink:href="#c" x="4.62812" y="12.66934"/><use xlink:href="#d" x="20.16836" y="54.96482"/><use xlink:href="#e" x="24.84585" y="54.96482"/><use xlink:href="#f" x="27.84774" y="54.96482"/><use xlink:href="#g" x="110.7866" y="69.76197"/><use xlink:href="#e" x="115.46409" y="69.76197"/><use xlink:href="#f" x="118.46598" y="69.76197"/><use xlink:href="#h" x="90.1641" y="20.82146"/><use xlink:href="#e" x="94.84029" y="20.82146"/><use xlink:href="#f" x="97.84218" y="20.82146"/></svg>