<svg xmlns="http://www.w3.org/2000/svg" xmlns:xlink="http://www.w3.org/1999/xlink" width="88.693pt" height="67.203pt" viewBox="0 0 88.693 67.203"><defs><path id="b" d="M1.03125-3.39062c0 2.71875.625 5.6875 3.17188 5.79687v-.35937C3.34375 1.875 2 .8125 2-3.39062c0-4.1875 1.28125-5.25 2.20313-5.4375v-.35938c-2.54688.10938-3.17188 3.07813-3.17188 5.79688m0 0"/><path id="c" d="M.89063-1.45312c0 .78125.23437 1.59375 1.20312 1.59375 1.39063 0 2.46875-1.46875 3.17188-2.76563h.01562l-.39062 1.4375c-.0625.23438-.10938.45313-.10938.64063 0 .4375.20313.6875.625.6875.95313 0 1.57813-.8125 1.98438-1.73438L7.10938-1.75c-.21875.42188-.75 1.26563-1.07813 1.26563-.14062 0-.20312-.09375-.20312-.23438 0-.10937.04687-.25.07812-.42187L7.8125-8.875l-.07812-.04687-2.125.28125-.0625.28125.70312.0625c.20313.01562.28125.0625.28125.20312 0 .0625-.01562.17188-.0625.29688l-.45312 1.9375-.03125.03125c-.21875-.125-.59375-.21875-1-.21875-2.8125 0-4.09375 3.14062-4.09375 4.59375m1.1875.10937c0-1.3125 1.0625-4.28125 2.98437-4.28125.35938 0 .6875.125.82813.25-.1875.92188-.57813 2.0625-1.1875 3.0625C4.125-1.375 3.32813-.48437 2.6875-.48437c-.39062 0-.60937-.32813-.60937-.85938m0 0"/><path id="d" d="M.71875 2.04688v.35937C3.26563 2.29688 3.875-.67187 3.875-3.39062S3.26563-9.07812.71875-9.1875v.35938c.92188.1875 2.20313 1.25 2.20313 5.4375 0 4.20312-1.34375 5.26562-2.20313 5.4375m0 0"/><path id="e" d="m1.73438-1.3125.5.5 2.09375-2.09375L6.42188-.8125l.48437-.5-2.07812-2.07812 2.07812-2.09375-.48437-.48438-2.09375 2.07813-2.09375-2.07813-.5.48438 2.10937 2.09375Zm0 0"/><path id="f" d="M0 0h2.84375l.0625-.34375-.46875-.04687C2.07813-.40625 1.875-.5 1.875-.75c0-.64062.125-1 .26563-1.64062l1.09375-4.90625h.03125l1.4375 7.15625h.34375l4.67187-7.15625H9.75L8.28125-1c-.10937.40625-.21875.54688-.51562.57813l-.65625.07812L7.03125 0h3.28125l.0625-.34375-.70312-.07812C9.45313-.4375 9.375-.53125 9.375-.73437c0-.07813 0-.15626.03125-.26563l1.45313-6.3125c.09375-.42187.1875-.57812.48437-.60937l.67188-.04688.09375-.34375H9.75c-.64062 1.09375-1.35937 2.17188-2.07812 3.28125l-2.125 3.25H5.5L4.82813-5.125c-.25-1.07812-.48438-2.125-.6875-3.1875H1.79688l-.0625.34375.70312.0625c.20313.01563.29688.10938.29688.3125 0 .07813-.01563.17188-.03125.28125L1.5625-2.39062c-.14062.64062-.28125 1.09375-.42187 1.5-.14063.375-.35938.46875-.70313.5l-.375.04687Zm0 0"/><path id="g" d="M0 0h3.28125l.07813-.34375-.70313-.04687c-.21875-.01563-.29687-.125-.29687-.3125 0-.09376.01562-.1875.03125-.29688l.6875-3.10937h4.03125L6.40625-1c-.10937.40625-.21875.54688-.51562.57813l-.67188.07812L5.15625 0h3.29688l.0625-.34375-.70313-.04687c-.21875-.01563-.29687-.125-.29687-.32813 0-.07812.01562-.17187.03125-.28125L9-7.3125c.09375-.40625.1875-.57812.5-.60937l.65625-.04688.07813-.34375H6.95313l-.09375.34375.71875.04688c.20312.01562.29687.125.29687.32812q0 .1172-.04687.28125l-.60938 2.75H3.20313l.625-2.75c.09375-.40625.20312-.57812.51562-.60937L5-7.96875l.07813-.34375H1.79688l-.09376.34375.71876.04688c.20312.01562.29687.125.29687.32812q0 .1172-.04687.28125L1.23438-1c-.10938.40625-.20313.54688-.5.57813L.0625-.34375Zm0 0"/><clipPath id="a"><path d="M.36719 36H81v24H.36719Zm0 0"/></clipPath></defs><path fill="none" stroke="red" stroke-miterlimit="10" stroke-width=".39383" d="m23.59765 50.48438-1.21485-7.17969 7.1836-1.17969"/><g clip-path="url(#a)"><path fill="none" stroke="#000" stroke-miterlimit="10" stroke-width=".39383" d="M.5664 54.26172 74.87107 41.875"/></g><use xlink:href="#b" x="65.98883" y="34.94852"/><use xlink:href="#c" x="70.90389" y="34.94852"/><use xlink:href="#d" x="78.83966" y="34.94852"/><path fill="none" stroke="#000" stroke-dasharray="2.9538009124 2.9538009124" stroke-miterlimit="10" stroke-width=".39383" d="m25.33593 17.10939 5.44921 32.1992"/><use xlink:href="#e" x="21.00729" y="20.09666"/><use xlink:href="#f" x="9.08765" y="12.58574"/><use xlink:href="#e" x="26.45667" y="52.29579"/><use xlink:href="#g" x="35.30572" y="62.14894"/></svg>