<svg xmlns="http://www.w3.org/2000/svg" xmlns:xlink="http://www.w3.org/1999/xlink" width="151.504pt" height="91.423pt" viewBox="0 0 151.504 91.423"><defs><path id="a" d="M.1875-.07812.25 0h2.625l.23438-.92187-.20313-.03126c-.14062.32813-.25.375-.5.375H.875C.96875-.84374 1.25-1.25 1.85938-1.625c.64062-.40625 1.0625-.6875 1.0625-1.34375 0-.84375-.57813-1.14062-1.28125-1.14062-.79688 0-1.3125.45312-1.3125.85937 0 .23438.26562.34375.40625.34375.125 0 .1875-.0625.21874-.20312.09376-.4375.3125-.76563.65626-.76563.39062 0 .53125.34375.53125.78125 0 .53125-.21875.9375-.8125 1.45313C.53125-.96875.25-.51562.1875-.07812m0 0"/><path id="b" d="M.26563-.65625c0 .23438.35937.73438 1.28125.73438 1.04687 0 1.48437-.625 1.48437-1.375 0-.71875-.42187-1.29688-1.29687-1.29688-.375 0-.71875.15625-.92188.32813L.92188-3.25c.03124-.1875.0625-.20312.20312-.20312h1.54688l.1875-.53125-.04688-.0625H.65625l-.04687.0625-.125 2.01562.20312.125c.23438-.29687.48438-.42187.78125-.42187.40625 0 .78125.29687.78125 1.04687 0 .60938-.20312 1.04688-.67187 1.04688-.35938 0-.54688-.25-.70313-.6875-.03125-.10938-.10937-.17188-.23437-.17188-.15626 0-.375.14063-.375.375m0 0"/><path id="c" d="M.21875-3.28125c0 .46875.375.82813.84375.82813.4375 0 .84375-.35938.84375-.82813 0-.45312-.40625-.82812-.84375-.82812-.46875 0-.84375.375-.84375.82812m.34375 0c0-.29687.23438-.54687.5-.54687.25 0 .5.25.5.54687 0 .3125-.25.54688-.5.54688-.26562 0-.5-.23438-.5-.54688m0 0"/><path id="g" d="M.1875-.65625c0 .23438.35938.73438 1.32813.73438C2.4375.07813 3-.35937 3-1.14062c0-.82813-.73437-1.03125-1.01562-1.0625v-.03125c.32812-.0625.84375-.29688.84375-.875 0-.75-.625-1-1.25-1-.76563 0-1.25.40625-1.25.75 0 .21875.25.32812.375.32812.10937 0 .15624-.04687.1875-.15625.14062-.4375.34375-.6875.65625-.6875.42187 0 .51562.4375.51562.73438 0 .29687-.07812.8125-.5625.8125-.26562 0-.45312-.0625-.54687-.0625-.10938 0-.14063.0625-.14063.20312 0 .10938.03125.20313.14063.20313.09374 0 .28124-.07813.54687-.07813.42188 0 .71875.32813.71875.95313 0 .67187-.29687.9375-.6875.9375-.34375 0-.57812-.25-.71875-.6875q-.07031-.1875-.23437-.1875c-.15626 0-.39063.14062-.39063.39062m0 0"/><path id="d" d="M-1 1.10938v.3125c.125 0 .26563.01562.39063.01562.5625 0 1.375-.14062 1.875-.46875C1.82813.5625 2.25-.10937 2.53125-1.3125l1.42188-6.09375c.09375-.375.1875-.53125.5-.5625l.67187-.04687.09375-.35938H1.875l-.07812.35938.71875.04687c.21875.01563.3125.10938.3125.32813 0 .0625-.01563.14062-.03125.23437L1.46875-1.73437C1.20313-.60937.875.15624.5.5c-.40625.375-.90625.54688-1.5.60938m0 0"/><path id="e" d="M0 0h3.3125l.07813-.34375-.71875-.0625c-.21875 0-.29688-.125-.29688-.3125 0-.07812 0-.1875.03125-.28125l.76563-3.35937h.01562c.5625 1.125 1.15625 2.34375 1.89063 3.34375C5.65625-.23437 6.1875.03124 7.10938.04688l.59375.01562.09375-.35937C7.09375-.35937 6.8125-.6875 6.375-1.21875c-.8125-1.01562-1.64062-2.48437-2.14062-3.5625 1.09375-.90625 2.09375-1.75 3.20312-2.51562.70313-.5.98438-.65625 1.96875-.71875l.04688-.35938H6.4375l-.04687.35938.45312.03125c.14063.01562.17188.0625.17188.14062 0 .0625-.0625.15625-.17188.26563L3.25-4.5h-.04687l.64062-2.85937c.09375-.375.21875-.57813.51563-.60938l.67187-.04687.07813-.35938h-3.3125l-.07813.35938.71875.04687c.20313.01563.29688.14063.29688.32813q0 .11718-.04688.28125L1.23438-1c-.09376.375-.20313.54688-.5.57813L.0625-.34375Zm0 0"/><path id="f" d="M.25 0h6.20313l.60937-2.125h-.35937C6.09375-.625 5.53125-.42187 4.17188-.42187c-1.23438 0-1.5-.125-1.5-.5 0-.14063.03125-.3125.07812-.5625l1.35938-5.875c.09375-.40625.20312-.57813.51562-.60938l.71875-.04687.09375-.35938h-3.375l-.09375.35938.71875.04687c.20313.01563.29688.10938.29688.32813 0 .0625-.01563.15625-.03125.28125L1.5-1c-.10937.42188-.21875.54688-.51562.57813l-.65625.07812Zm0 0"/><path id="h" d="M.29688-1.45312c0 1.01562.5 1.53125 1.40625 1.53125.42187 0 1-.21875 1.15625-.875L2.6875-.875c-.1875.42188-.42187.625-.875.625-.71875 0-.89062-.75-.89062-1.3125 0-.90625.35937-1.26562.78125-1.26562.26562 0 .45312.20312.5625.53125.04687.09375.07812.15625.20312.15625s.34375-.07813.34375-.3125c0-.28125-.39062-.57813-1.04687-.57813-1.10938 0-1.46875.76563-1.46875 1.57813m0 0"/><path id="i" d="M.1875 0h1.48438v-.17187c-.4375-.03126-.45313-.04688-.45313-.35938V-1.9375c0-.15625 0-.25.04688-.32812.10937-.25.375-.4375.70312-.4375.53125 0 .59375.375.59375.75v1.42187c0 .3125-.01562.32813-.45312.35938V0h1.46875v-.17187C3.14063-.20313 3.125-.21875 3.125-.53125V-1.9375c0-.15625.01563-.23437.04688-.32812.09375-.25.34375-.4375.6875-.4375.39062 0 .60937.20312.60937.75v1.42187c0 .3125-.01562.32813-.45312.35938V0H5.5v-.17187c-.4375-.03126-.45312-.04688-.45312-.35938v-1.54687c0-.60938-.32813-.95313-.90625-.95313-.5 0-.84375.32813-1.0625.45313-.15625-.28125-.375-.45313-.8125-.45313-.45313 0-.84375.29688-1.04688.45313l-.0625-.45313-.9375.14063v.15625l.23438.03125c.15625.03125.20312.04687.20312.26562v1.90625c0 .3125-.03125.32813-.46875.35938Zm0 0"/></defs><path fill="none" stroke="red" stroke-miterlimit="10" stroke-width=".396" d="m102.70703 69.92188 3.66016-6.34375 6.34375 3.66015"/><path fill="#66b2b2" d="m13.89063 18.64453 9.51562 5.49219c.80078-1.39063 1.28906-2.9414 1.42969-4.53906Zm0 0"/><path fill="none" stroke="#000" stroke-miterlimit="10" stroke-width=".396" d="M23.40627 24.13673c.80078-1.39062 1.28906-2.9414 1.42969-4.53906"/><use xlink:href="#a" x="29.4224" y="26.93799"/><use xlink:href="#b" x="32.73648" y="26.93799"/><use xlink:href="#c" x="36.05056" y="26.93799"/><path fill="none" stroke="#000" stroke-miterlimit="10" stroke-width=".396" d="m13.89065 18.64455 95.16013 54.93748L134.6875 29.1758Zm0 0"/><use xlink:href="#d" x="4.51858" y="12.65513"/><use xlink:href="#e" x="113.59615" y="86.49609"/><use xlink:href="#f" x="139.23434" y="24.62955"/><use xlink:href="#g" x="43.67346" y="54.77231"/><use xlink:href="#h" x="48.34478" y="54.77231"/><use xlink:href="#i" x="51.34353" y="54.77231"/></svg>