<svg xmlns="http://www.w3.org/2000/svg" xmlns:xlink="http://www.w3.org/1999/xlink" width="90.59pt" height="66.916pt" viewBox="0 0 90.59 66.916"><defs><path id="a" d="M1-3.28125c0 2.625.59375 5.51563 3.0625 5.60938v-.34375c-.82812-.15626-2.125-1.1875-2.125-5.26563 0-4.04687 1.23438-5.07812 2.125-5.26562v-.34375C1.59375-8.79687 1-5.90625 1-3.28125m0 0"/><path id="b" d="M.875-1.40625c0 .76563.21875 1.54688 1.15625 1.54688 1.34375 0 2.375-1.42188 3.0625-2.6875H5.125l-.39062 1.39062c-.0625.23438-.09375.45313-.09375.625 0 .4375.1875.67188.59375.67188.92187 0 1.53125-.79688 1.92187-1.67188l-.26562-.17187c-.21875.42187-.73438 1.23437-1.04688 1.23437-.14062 0-.1875-.09375-.1875-.21875s.03125-.25.0625-.42187L7.5625-8.59375 7.5-8.64062l-2.07812.28125-.0625.26562.70312.0625c.1875.01563.25.0625.25.20313 0 .0625 0 .15625-.04687.28125l-.4375 1.875-.03125.01562c-.21875-.10937-.57813-.1875-.98438-.1875-2.70312 0-3.9375 3.03125-3.9375 4.4375m1.14063.10938c0-1.26563 1.01562-4.14063 2.875-4.14063.35937 0 .67187.10938.8125.23438-.17188.89062-.5625 2-1.15625 2.95312-.5625.90625-1.32813 1.78125-1.9375 1.78125-.375 0-.59375-.3125-.59375-.82812m0 0"/><path id="c" d="M.6875 1.98438v.34375C3.15625 2.23438 3.75-.65625 3.75-3.28125S3.15625-8.79687.6875-8.89062v.34375c.90625.1875 2.14063 1.21875 2.14063 5.26562 0 4.07813-1.29688 5.10938-2.14063 5.26563m0 0"/><path id="d" d="m1.6875-1.26562.48438.48437L4.1875-2.8125 6.21875-.78125l.46875-.48437-2.01562-2.01563L6.6875-5.3125l-.46875-.46875L4.1875-3.76562 2.17188-5.78125l-.48438.46875 2.03125 2.03125Zm0 0"/><path id="e" d="M0 0h2.75l.0625-.32812L2.35938-.375C2-.39062 1.82813-.48437 1.82813-.73437c0-.60938.10937-.96875.23437-1.57813l1.07813-4.75h.01562L4.5625-.14062h.3125L9.42188-7.0625h.01562L8.01563-.96875c-.09375.40625-.20313.53125-.5.5625l-.625.07813L6.8125 0h3.17188l.0625-.32812L9.375-.40625c-.21875-.01562-.3125-.10937-.3125-.29687 0-.07813.01563-.17188.04688-.26563L10.5-7.09375c.10938-.39062.1875-.54687.48438-.57812l.65625-.04688.07812-.32812H9.4375C8.82813-6.98437 8.125-5.95312 7.42188-4.875l-2.0625 3.15625h-.03125l-.65625-3.23437C4.4375-6.01562 4.20313-7.01562 4-8.04687H1.75l-.07812.32812.6875.0625c.1875.01563.29687.10938.29687.3125 0 .07813-.01562.15625-.04687.25L1.51563-2.3125C1.375-1.70312 1.23437-1.25 1.10938-.875.96875-.5.75-.40625.42188-.375L.0625-.32812Zm0 0"/><path id="f" d="M0 0h3.1875l.07813-.32812-.70313-.0625c-.20312 0-.28125-.10938-.28125-.29688 0-.07812.01563-.17187.03125-.28125l.67188-3.01562H6.875L6.1875-.96875c-.09375.40625-.20312.53125-.48437.5625l-.64063.07813L5 0h3.17188L8.25-.32812l-.67187-.0625c-.21875 0-.3125-.10938-.3125-.29688q0-.11718.04687-.28125l1.39063-6.125c.10937-.375.1875-.54687.48437-.57812l.65625-.04688.0625-.32812H6.73438l-.09375.32812.6875.04688c.20312.01562.29687.125.29687.32812 0 .07813-.01562.15625-.04687.25l-.59375 2.6875H3.09375l.60938-2.6875c.09375-.375.20312-.54687.5-.57812l.64062-.04688.07813-.32812h-3.1875l-.09376.32812.70313.04688c.20313.01562.28125.125.28125.32812 0 .07813-.01562.15625-.03125.25L1.1875-.96875c-.09375.40625-.20312.53125-.48437.5625L.0625-.32812Zm0 0"/></defs><path fill="none" stroke="red" stroke-miterlimit="10" stroke-width=".39671" d="m31.6133 50.15234-6.85938 1.125-1.16016-6.85547 6.85938-1.125 1.16016 6.85547"/><path fill="none" stroke="#000" stroke-miterlimit="10" stroke-width=".39671" d="m.19922 55.30469 77.24613-12.87501"/><use xlink:href="#a" x="68.84243" y="35.71777"/><use xlink:href="#b" x="73.60295" y="35.71777"/><use xlink:href="#c" x="81.28921" y="35.71777"/><path fill="none" stroke="#000" stroke-dasharray="2.975380265 2.975380265" stroke-miterlimit="10" stroke-width=".39671" d="m25.94923 16.67967 5.66407 33.47267"/><use xlink:href="#d" x="21.75753" y="19.57384"/><use xlink:href="#e" x="10.21178" y="12.29976"/><use xlink:href="#d" x="27.42189" y="53.04834"/><use xlink:href="#f" x="35.9921" y="62.59115"/></svg>