<svg xmlns="http://www.w3.org/2000/svg" xmlns:xlink="http://www.w3.org/1999/xlink" width="350.478pt" height="203.076pt" viewBox="0 0 350.478 203.076"><defs><path id="b" d="m1.75-1.3125.5.5 2.10938-2.10937L6.46875-.8125l.48438-.5-2.09375-2.10937 2.09375-2.10938-.48438-.48437-2.10937 2.09375L2.25-6.01562l-.5.48437 2.10938 2.10938Zm0 0"/><path id="c" d="M-.23437 0H2.5l.07813-.34375-.67188-.0625C1.75-.42187 1.6875-.5 1.6875-.625c0-.0625.03125-.14062.0625-.23437.40625-.78125.79688-1.5625 1.23438-2.375h2.71875L6-.73437s-.0625.29687-.3125.32812l-.64062.0625L4.96875 0h2.98438l.07812-.34375-.46875-.04687c-.375-.03125-.42187-.20313-.48437-.70313L6.1875-8.375h-.85937L3.28125-4.8125c-.60937 1.09375-1.625 2.89063-2.0625 3.60938C.82813-.5625.625-.4375.25-.40625l-.40625.0625Zm3.46875-3.70312L5.20313-7.25l.4375 3.54688Zm0 0"/><path id="d" d="M0 0h3.67188C6.59375 0 7.1875-1.51562 7.1875-2.51562c0-1.28125-.9375-1.82813-1.82812-2l.01562-.01563c1.60938-.20312 2.29688-1.10937 2.29688-2.03125 0-.98437-.57813-1.8125-2.8125-1.8125h-3.0625l-.07813.34375.71875.0625c.20313.01563.29688.10938.29688.29688 0 .07812-.03125.1875-.04688.29687L1.25-1c-.09375.39063-.20312.53125-.5.57813l-.6875.07812Zm2.42188-.92187q0-.14063.04687-.28126l.6875-3.10937h.48438c1.1875 0 2.25.35938 2.25 1.73438 0 1.07812-.65625 2.15625-2.28125 2.15625-.95313 0-1.1875-.20313-1.1875-.5M3.25-4.73437l.625-2.8125c.09375-.35938.15625-.42188.96875-.42188 1.01563 0 1.59375.51563 1.59375 1.375 0 1.25-1.0625 1.85938-2.40625 1.85938Zm0 0"/><path id="e" d="M.625-3.32812C.625-1.73437 1.42188.1875 4.42188.1875c.85937 0 1.6875-.125 2.46875-.51562L7.46875-2.25h-.35937c-.67188 1.20313-1.26563 2-2.76563 2-1.40625 0-2.40625-.89062-2.40625-2.76562 0-1.09375.28125-2.4375.85938-3.40625.60937-1.01563 1.5625-1.71875 2.85937-1.71875 1.53125 0 1.96875.70312 1.96875 2.03125H8l.4375-1.8125c-.6875-.4375-1.82812-.65625-2.67187-.65625-2.28125 0-3.59375 1.07812-4.3125 2.20312C.78125-5.28125.625-4.15625.625-3.32812m0 0"/><path id="f" d="M0 0h3.71875c2.42188 0 3.82813-.875 4.70313-2.1875.6875-1.04687.8125-2.0625.8125-2.78125 0-.98437-.35938-1.96875-1.04688-2.54687-.71875-.59375-1.79687-.85938-3.14062-.85938h-3.25l-.07813.34375.71875.04688c.20313.01562.28125.125.28125.3125 0 .07812-.01562.1875-.03125.29687L1.23438-1c-.09376.39063-.1875.54688-.48438.57813l-.6875.07812Zm2.39063-.89062c0-.04688 0-.10938.01562-.15626l1.45313-6.46874c.10937-.40625.28125-.45313 1.32812-.45313 2.53125.04688 2.73438 1.75 2.73438 2.71875 0 1.04688-.23438 2.03125-.78125 2.9375C6.4375-1.1875 5.40625-.42187 3.40625-.42187c-.59375 0-1.01562-.07813-1.01562-.46875m0 0"/><path id="g" d="M.125 0h6.3125l.625-2.125h-.35937c-.625 1.5-1.15625 1.70313-2.65625 1.70313-1.4375 0-1.5-.1875-1.5-.5 0-.14063.03125-.3125.07812-.5625l.625-2.65625h1.57813c.90625 0 1.07812.1875 1.07812.71875 0 .09375 0 .20312-.01562.32812H6.25L6.8125-5.625h-.375c-.29687.84375-.4375 1.03125-1.5 1.03125H3.34375l.6875-3.01562c.0625-.29688.14063-.35938.34375-.35938h1.46875c1.1875 0 1.42188.3125 1.42188.96875 0 .29688-.03125.625-.03125.625h.35937l.45313-2h-6.125l-.09376.34375.73438.04688c.20313.01562.29688.10937.29688.29687 0 .07813-.01563.17188-.03125.28125L1.375-1c-.09375.40625-.20312.54688-.5.57813l-.6875.07812Zm0 0"/><path id="h" d="M.125 0h3.51563l.07812-.34375-.90625-.0625C2.59375-.42187 2.5-.53125 2.5-.70312c0-.07813.01563-.15626.04688-.26563l.65625-2.98437h1.625c.875 0 1.04687.15625 1.04687.67187 0 .10938 0 .21875-.01562.35938h.35937l.57813-2.54688H6.4375c-.3125.85938-.45312 1.04688-1.53125 1.04688H3.3125l.71875-3.17188c.07813-.3125.14063-.375.35938-.375H5.875c1.1875 0 1.42188.3125 1.42188.95313 0 .3125-.04688.64062-.04688.64062h.375l.45313-2H1.92188l-.07813.34375.71875.0625c.20313.01563.29688.125.29688.3125 0 .0625-.01563.15625-.03125.25L1.375-.96875c-.09375.35938-.20312.53125-.5.5625l-.6875.0625Zm0 0"/><path id="i" d="M0 0h2.85938l.0625-.34375-.46875-.04687c-.35938-.01563-.5625-.09375-.5625-.35938 0-.64062.125-1.01562.26562-1.65625l1.125-4.96875h.04688c1.125 2.46875 2.25 4.90625 3.35937 7.375h.78125l1.35938-5.96875c.14062-.64062.28125-1.10937.42187-1.5.14063-.39062.35938-.48437.73438-.51562l.35937-.04688.07813-.34375h-2.875l-.0625.34375.48437.04688c.35938.04687.5625.15625.5625.4375 0 .4375-.125.9375-.26562 1.57812l-1 4.39063h-.04688C6.17188-3.85937 5.14063-6.10937 4.125-8.375H1.8125l-.07812.34375.71875.0625c.20312.01563.3125.125.3125.32813 0 .07812-.01563.17187-.04688.26562L1.57813-2.40625c-.14063.64063-.29688 1.10938-.4375 1.5C1-.51562.79688-.42187.4375-.39062l-.375.04687Zm0 0"/><clipPath id="a"><path d="M.53516 0h348.89062v202.15625H.53516Zm0 0"/></clipPath></defs><g clip-path="url(#a)"><path fill="none" stroke="#7f7f7f" stroke-dasharray=".396694795 .9917668516" stroke-miterlimit="10" stroke-width=".39669" d="M.73046 192.78907H349.2306M.73046 174.44531H349.2306M.73046 156.10155H349.2306M.73046 137.7617H349.2306M.73046 119.41795H349.2306M.73046 101.07809H349.2306M.73046 82.73434H349.2306M.73046 64.39449H349.2306M.73046 46.05073H349.2306M.73046 27.71088H349.2306M.73046 9.36712H349.2306M9.90234 201.95704V.19524m18.34375 201.7618V.19524m18.33986 201.7618V.19524m18.34375 201.7618V.19524m18.33985 201.7618V.19524m18.34376 201.7618V.19524m18.33985 201.7618V.19524m18.34376 201.7618V.19524m18.34376 201.7618V.19524m18.33985 201.7618V.19524m18.34376 201.7618V.19524m18.33985 201.7618V.19524m18.34376 201.7618V.19524m18.33985 201.7618V.19524m18.34376 201.7618V.19524m18.33985 201.7618V.19524m18.34375 201.7618V.19524m18.34376 201.7618V.19524m18.33985 201.7618V.19524"/></g><path fill="none" stroke="red" stroke-miterlimit="10" stroke-width=".39669" d="M314.43762 174.44531v-7.33594h7.33594"/><path fill="none" stroke="#000" stroke-dasharray="2.9752906001 2.9752906001" stroke-miterlimit="10" stroke-width=".39669" d="M321.77356 27.67963V174.4453m-146.76569.00001h146.76569"/><path fill="none" stroke="#000" stroke-miterlimit="10" stroke-width=".39669" d="M28.2461 174.44531h146.76177L321.77356 27.67963H28.24609L175.00787 174.4453V27.67963L28.2461 174.4453V27.67963"/><use xlink:href="#b" x="23.88666" y="177.45557"/><use xlink:href="#b" x="170.64988" y="177.45557"/><use xlink:href="#b" x="170.64988" y="30.69335"/><use xlink:href="#b" x="23.88666" y="30.69335"/><use xlink:href="#b" x="97.26877" y="104.07446"/><use xlink:href="#b" x="317.4131" y="30.69335"/><use xlink:href="#b" x="317.4131" y="177.45557"/><use xlink:href="#c" x="15.37439" y="187.38041"/><use xlink:href="#d" x="179.56233" y="187.38041"/><use xlink:href="#e" x="179.56233" y="22.94659"/><use xlink:href="#f" x="14.20073" y="23.12777"/><use xlink:href="#g" x="97.53953" y="96.50888"/><use xlink:href="#h" x="326.32555" y="23.12777"/><use xlink:href="#i" x="326.32555" y="187.38041"/></svg>