<svg xmlns="http://www.w3.org/2000/svg" xmlns:xlink="http://www.w3.org/1999/xlink" width="538.981pt" height="312.209pt" viewBox="0 0 538.981 312.209"><defs><path id="b" d="m2.70313-2.03125.78125.78125 3.23437-3.26562L9.98438-1.25l.75-.78125L7.5-5.26562l3.23438-3.26563-.75-.75-3.26563 3.23438-3.23437-3.23438-.78125.75 3.26562 3.26563Zm0 0"/><path id="c" d="M-.35937 0h4.21875l.10937-.53125L2.9375-.64062c-.23437-.01563-.32812-.14063-.32812-.3125 0-.09376.03125-.23438.09375-.375.60937-1.20313 1.21875-2.40625 1.90625-3.65625h4.1875l.46875 3.84375s-.10938.46875-.5.5l-1 .10937L7.67188 0h4.59375l.10937-.53125-.70312-.0625c-.57813-.0625-.65625-.32812-.76563-1.09375L9.54688-12.92187H8.20313L5.0625-7.40625c-.95312 1.65625-2.5 4.4375-3.1875 5.5625C1.26563-.875.95313-.67187.375-.60937l-.60937.07812Zm5.34375-5.70312 3.04687-5.48438.67188 5.48438Zm0 0"/><path id="d" d="M0 0h5.67188c4.5 0 5.42187-2.32812 5.42187-3.875 0-1.96875-1.45312-2.82812-2.82812-3.07812L8.28125-7c2.48438-.29687 3.54688-1.70312 3.54688-3.10937 0-1.51563-.89063-2.8125-4.32813-2.8125H2.76563l-.125.54687 1.10937.09375c.32813.01563.46875.15625.46875.45313 0 .125-.04687.28125-.07812.45312L1.92188-1.54687c-.14063.60937-.3125.82812-.76563.89062l-1.0625.125Zm3.73438-1.4375c0-.125.01562-.26562.0625-.40625L4.875-6.64062h.73438c1.84375 0 3.46875.53125 3.46875 2.67187 0 1.65625-1.01563 3.3125-3.51563 3.3125-1.46875 0-1.82812-.29687-1.82812-.78125m1.28125-5.85937.96875-4.32813c.14062-.5625.23437-.65625 1.48437-.65625 1.57813 0 2.45313.79688 2.45313 2.10938 0 1.9375-1.64063 2.875-3.70313 2.875Zm0 0"/><path id="e" d="M.96875-5.125C.96875-2.65625 2.1875.28125 6.8125.28125c1.34375 0 2.60938-.1875 3.79688-.78125l.92187-2.98437h-.5625C9.9375-1.60937 9-.375 6.70313-.375c-2.17188 0-3.71875-1.39062-3.71875-4.28125 0-1.6875.4375-3.75 1.32812-5.23437.9375-1.57813 2.40625-2.67188 4.40625-2.67188 2.375 0 3.04688 1.09375 3.04688 3.14063h.57812l.67188-2.79688c-1.07813-.6875-2.8125-1-4.125-1-3.53125 0-5.54688 1.65625-6.64063 3.40625C1.21875-8.15625.96875-6.42187.96875-5.125m0 0"/><path id="f" d="M0 0h5.71875c3.73438 0 5.90625-1.34375 7.26563-3.375 1.0625-1.60937 1.25-3.1875 1.25-4.29687 0-1.51563-.54688-3.01563-1.60938-3.92188-1.09375-.90625-2.76562-1.32812-4.82812-1.32812H2.76563l-.125.54687 1.10937.07813c.32813.01562.4375.17187.4375.46875 0 .125-.01562.28125-.04687.45312L1.90625-1.54687c-.14062.60937-.29687.84375-.75.89062l-1.0625.125Zm3.70313-1.375c0-.07812 0-.15625.01562-.23437l2.25-9.98438c.15625-.625.40625-.6875 2.04688-.6875 3.89062.07813 4.20312 2.70313 4.20312 4.1875 0 1.60938-.375 3.125-1.20312 4.51563C9.9375-1.82812 8.34375-.65625 5.25-.65625c-.92187 0-1.54687-.125-1.54687-.71875m0 0"/><path id="g" d="M.20313 0H9.9375l.95313-3.28125h-.5625c-.95313 2.3125-1.78125 2.625-4.09375 2.625-2.20313 0-2.3125-.28125-2.3125-.78125 0-.1875.04687-.46875.125-.84375L5.01563-6.375h2.4375c1.39062 0 1.65625.26563 1.65625 1.09375 0 .15625 0 .3125-.03125.51563h.5625l.875-3.90625H9.9375C9.45313-7.375 9.26563-7.07812 7.60938-7.07812h-2.4375l1.04687-4.64063c.09375-.46875.21875-.5625.53125-.5625H9c1.82813 0 2.20313.46875 2.20313 1.48438 0 .46875-.04688.98437-.04688.98437h.54688l.70312-3.10937h-9.4375l-.14062.54687 1.125.07813c.3125.01562.45312.15625.45312.45312 0 .125-.01562.25-.04687.4375L2.125-1.54687c-.15625.625-.3125.84375-.78125.89062l-1.04687.125Zm0 0"/><path id="h" d="M.20313 0H5.625l.125-.53125-1.42187-.10937C4-.65625 3.85938-.8125 3.85938-1.09375c0-.125.01562-.23437.0625-.39062l1.03125-4.625H7.4375c1.35938 0 1.625.26562 1.625 1.0625 0 .15625 0 .34375-.01562.53125h.54687l.875-3.90625h-.54687C9.4375-7.10937 9.21875-6.8125 7.57813-6.8125H5.10938l1.10937-4.89062c.125-.48438.21875-.57813.5625-.57813H9.0625c1.82813 0 2.1875.46875 2.1875 1.46875 0 .48438-.0625.96875-.0625.96875h.57813l.70312-3.07812h-9.5l-.125.54687 1.10938.09375c.3125.01563.45312.17188.45312.46875 0 .10938-.01562.25-.04687.39063L2.125-1.48437c-.14062.54687-.3125.8125-.78125.84375L.29688-.53125Zm0 0"/><path id="i" d="M0 0h4.40625l.10938-.53125-.73438-.0625c-.5625-.04687-.85937-.15625-.85937-.5625 0-.98437.17187-1.5625.39062-2.5625l1.75-7.65625h.0625C6.875-7.57812 8.60938-3.79687 10.3125 0h1.21875l2.07813-9.20312c.21875-1 .4375-1.70313.65625-2.32813.21875-.59375.5625-.73437 1.125-.79687l.5625-.04688.10937-.54687h-4.42187l-.09375.54687.73437.07813c.5625.04687.875.23437.875.65625 0 .67187-.20312 1.4375-.42187 2.4375L11.20313-2.4375H11.125c-1.60937-3.5-3.1875-6.98437-4.76562-10.48437h-3.5625l-.10938.54687 1.09375.09375c.3125.01563.46875.17188.46875.5 0 .10938-.01562.25-.0625.40625L2.42188-3.71875c-.21875 1-.4375 1.71875-.65625 2.32813-.21876.59375-.53125.73437-1.09375.79687l-.57813.0625Zm0 0"/><clipPath id="a"><path d="M.67188 0h537.61718v311.42188H.67188Zm0 0"/></clipPath></defs><g clip-path="url(#a)"><path fill="none" stroke="#000" stroke-dasharray=".397491795 1.9875088484999999" stroke-miterlimit="10" stroke-width=".39749" d="M.87109 297.08594h537.22664M.8711 268.8086h537.22664M.8711 240.53515h537.22664M.8711 212.2578h537.22664M.8711 183.98436h537.22664M.8711 155.70701h537.22664M.8711 127.43357h537.22664M.8711 99.15622h537.22664M.8711 70.88278h537.22664M.8711 42.60934h537.22664M.8711 14.33199h537.22664M15.00781 311.22266V.19527m28.27344 311.0274V.19526m28.27735 311.0274V.19526m28.27344 311.0274V.19526m28.27735 311.0274V.19526m28.27344 311.0274V.19526m28.27735 311.0274V.19526m28.27344 311.0274V.19526m28.27344 311.0274V.19526m28.27735 311.0274V.19526m28.27344 311.0274V.19526m28.27735 311.0274V.19526m28.27344 311.0274V.19526m28.27735 311.0274V.19526m28.27344 311.0274V.19526m28.27735 311.0274V.19526m28.27344 311.0274V.19526m28.27344 311.0274V.19526m28.27735 311.0274V.19526"/></g><path fill="none" stroke="red" stroke-miterlimit="10" stroke-width=".39749" d="M495.68366 268.8086h-11.30859V257.5h11.3086v11.3086"/><path fill="none" stroke="#000" stroke-dasharray="2.9812682601 2.9812682601" stroke-miterlimit="10" stroke-width=".39749" d="M495.68366 42.60934v226.19925m-226.19925.00001h226.19925"/><path fill="none" stroke="#000" stroke-miterlimit="10" stroke-width=".39749" d="M43.28125 268.8086h226.20316L495.68366 42.60933H43.28125l226.20316 226.19925V42.60934L43.28125 268.80859V42.60934"/><use xlink:href="#b" x="36.56463" y="273.4502"/><use xlink:href="#b" x="262.76354" y="273.4502"/><use xlink:href="#b" x="262.76354" y="47.25129"/><use xlink:href="#b" x="36.56463" y="47.25129"/><use xlink:href="#b" x="149.66409" y="160.35074"/><use xlink:href="#b" x="488.96146" y="47.25129"/><use xlink:href="#b" x="488.96146" y="273.4502"/><use xlink:href="#c" x="23.44188" y="288.74944"/><use xlink:href="#d" x="276.50273" y="288.74944"/><use xlink:href="#e" x="276.50273" y="35.31054"/><use xlink:href="#f" x="21.63246" y="35.58883"/><use xlink:href="#g" x="150.08103" y="148.68829"/><use xlink:href="#h" x="502.70165" y="35.58883"/><use xlink:href="#i" x="502.70165" y="288.74944"/></svg>