<svg xmlns="http://www.w3.org/2000/svg" xmlns:xlink="http://www.w3.org/1999/xlink" width="199.984pt" height="246.25pt" viewBox="0 0 199.984 246.25"><defs><path id="a" d="m-.03125-3.5.0625.17188 5.48438-.73438L11-3.32812 11.04688-3.5 5.51563-4.51562Zm0 0"/><path id="b" d="M-.125 0h1.34375l.04688-.1875L.9375-.21875c-.07812 0-.10937-.04687-.10937-.09375 0-.03125.01562-.07812.03124-.125.1875-.34375.34376-.70312.5625-1.0625h1.23438l.125 1.125s-.01562.14063-.15625.15625l-.29687.03125L2.28125 0h1.57813l.04687-.1875-.23437-.01562C3.5-.23438 3.48438-.375 3.45313-.57812L3.0625-4.03125h-.54687l-.98438 1.75c-.32812.5625-.8125 1.42188-1 1.73438-.15625.25-.25.3125-.4375.32812l-.17187.03125Zm1.67188-1.75.90625-1.64062L2.625-1.75Zm0 0"/><path id="c" d="M.0625 0h1.82813c1.3125 0 1.76562-.54687 1.76562-1.17187s-.46875-.90625-.89062-.96875v-.01563c.78125-.09375 1.125-.51562 1.125-.96875 0-.5-.29688-.90625-1.42188-.90625H.92188l-.04688.1875.32813.03125c.09374.01563.14062.04688.14062.14063 0 .04687-.01562.09375-.03125.15625l-.67187 3c-.03126.1875-.09376.28124-.25.29687L.09375-.1875Zm1.29688-.46875c0-.04687 0-.09375.01562-.14062l.3125-1.4375h.23438c.54687 0 .95312.21875.95312.78125 0 .54687-.3125 1.03125-1.04687 1.03125-.375 0-.46875-.09375-.46875-.23438M1.75-2.28125l.29688-1.3125c.03125-.17187.0625-.20312.39062-.20312.4375 0 .70313.20312.70313.625 0 .5625-.42188.89062-1.0625.89062Zm0 0"/><path id="d" d="M.39063-1.59375c0 .65625.29687 1.6875 1.84375 1.6875.42187 0 .84375-.0625 1.21875-.25l.3125-1.01562H3.5625c-.34375.59375-.65625 1.01562-1.34375 1.01562-.60937 0-1.04687-.39062-1.04687-1.26562 0-.53125.14062-1.17188.42187-1.65625.28125-.46875.70313-.8125 1.29688-.8125.71875 0 .90625.42187.90625 1.01562h.1875l.21875-.95312c-.34375-.20313-.92188-.29688-1.28125-.29688-1.10938 0-1.76563.48438-2.14063 1.0625-.3125.5-.39062 1.0625-.39062 1.46875m0 0"/><path id="e" d="M-.21875 0h2.625l.07813-.32812-.64063-.0625C1.6875-.40625 1.625-.48437 1.625-.59375c0-.0625.03125-.15625.0625-.23437.39063-.75.76563-1.5 1.1875-2.29688H5.5l.28125 2.42188s-.0625.28124-.29687.3125l-.625.0625L4.79688 0h2.875l.0625-.32812-.4375-.04688C6.9375-.40625 6.875-.57812 6.8125-1.0625l-.84375-7.01562H5.125l-1.95312 3.4375c-.59375 1.04687-1.5625 2.79687-2 3.48437-.375.60938-.57813.73438-.9375.76563l-.39063.0625ZM3.125-3.5625 5.01563-7l.42187 3.4375Zm0 0"/><path id="f" d="M0 0h3.54688C6.35938 0 6.9375-1.45312 6.9375-2.42187c0-1.23438-.90625-1.76563-1.76562-1.92188L5.1875-4.375c1.54688-.1875 2.20313-1.0625 2.20313-1.95312 0-.9375-.5625-1.75-2.70313-1.75H1.73438l-.07813.34375.6875.0625c.20313 0 .29688.09375.29688.28125 0 .07812-.03125.17187-.0625.28125l-1.375 6.14062C1.125-.57812 1-.45312.71875-.40625L.0625-.32812Zm2.32813-.89062c0-.09376.01562-.17188.04687-.26563l.67188-3H3.5c1.15625 0 2.17188.34375 2.17188 1.67188 0 1.04687-.625 2.07812-2.1875 2.07812-.92188 0-1.15625-.1875-1.15625-.48437M3.125-4.5625l.60938-2.70312c.09375-.34375.15625-.40625.9375-.40625.98437 0 1.53125.48437 1.53125 1.3125 0 1.21875-1.01563 1.79687-2.3125 1.79687Zm0 0"/><path id="g" d="M.60938-3.20312c0 1.53125.75 3.375 3.65625 3.375.82812 0 1.625-.10938 2.375-.48438l.5625-1.85937h-.34375C6.20313-1 5.625-.23437 4.1875-.23437c-1.35937 0-2.32812-.875-2.32812-2.67188 0-1.0625.28124-2.34375.84375-3.28125.57812-.98437 1.5-1.65625 2.75-1.65625 1.48437 0 1.90625.67188 1.90625 1.95313h.35937l.42188-1.75c-.67188-.42188-1.76563-.625-2.59375-.625-2.1875 0-3.45313 1.03125-4.14063 2.125C.75-5.09375.60938-4.01562.60938-3.20312m0 0"/><path id="h" d="M.28125-1.98437c0 .67187.20313 1.23437.54688 1.57812.35937.35938.9375.5 1.59375.5.46875 0 1-.14062 1.28125-.28125l.07812-.98437h-.17187C3.45313-.5625 3.14063-.125 2.375-.125 1.17188-.125.9375-1.29687.9375-2c0-.95312.375-1.92187 1.45313-1.92187.59375 0 1.01562.25 1.125.9375h.17187v-.90625c-.25-.125-.70312-.23438-1.23437-.23438-.71875 0-1.29688.20313-1.64063.60938-.32812.35937-.53125.85937-.53125 1.53125m0 0"/><path id="i" d="m.79688-3.28125.10937.125L1.5-3.60937c.0625-.04688.14063-.07813.1875-.07813.04688 0 .125.03125.17188.07813l.60937.45312.10938-.125-.6875-.76562c-.0625-.07813-.14063-.15625-.20313-.15625s-.14062.07812-.21875.15625ZM.28124-1.42187C.28125-.48437.75.0625 1.6875.0625s1.39063-.54687 1.39063-1.48437c0-.95313-.45313-1.5-1.39063-1.5s-1.40625.54687-1.40625 1.5m.60938 0c0-.8125.26562-1.29688.79687-1.29688s.79688.48438.79688 1.29688c0 .79687-.26563 1.28125-.79688 1.28125S.89063-.625.89063-1.42187m0 0"/><path id="j" d="M.1875-2.625h.42188v2.03125c0 .59375.4375.65625.64062.65625.29688 0 .57813-.14062.73438-.25l-.03126-.125c-.14062.0625-.26562.07813-.42187.07813-.20312 0-.39062-.14063-.39062-.57813V-2.625h.75v-.23437h-.75v-.73438H.98437L.625-2.85937H.1875Zm0 0"/><path id="k" d="m1.17188-3.28125.09374.125.875-.48437c.17188-.09375.32813-.20313.32813-.32813 0-.10937-.14062-.25-.23437-.25s-.1875.0625-.375.25Zm-.89063 1.875C.28125-.48437.6875.0625 1.625.0625c.65625 0 .98438-.35937 1.14063-.8125l-.17188-.09375C2.4375-.5 2.20313-.23437 1.75-.23437c-.71875 0-.875-.6875-.85937-1.29688h1.6875c.125 0 .21875-.03125.21875-.21875 0-.34375-.10938-1.17187-1.17188-1.17187-.90625 0-1.34375.64062-1.34375 1.51562m.625-.34375c0-.25.07813-.96875.6875-.96875.54688 0 .60938.54688.60938.78125 0 .10938-.04688.1875-.20313.1875Zm0 0"/><path id="l" d="M.28125-.75c0 .42188.29688.8125.84375.8125.34375 0 .6875-.21875.85938-.34375.09374.21875.1875.34375.39062.34375.21875 0 .46875-.0625.6875-.17187l-.03125-.125c-.07812.01562-.21875.01562-.29687 0-.10938-.03126-.20313-.14063-.20313-.5v-1.42188c0-.34375-.07812-.76562-.96875-.76562-.65625 0-1.17187.32812-1.17187.65625 0 .1875.21875.28125.32812.28125.125 0 .15625-.0625.1875-.17188.125-.4375.35938-.5625.59375-.5625s.5.10938.5.57813v.25c-.15625.14062-.71875.29687-1.17187.4375-.42188.125-.54688.42187-.54688.70312M.875-.84375c0-.26562.125-.40625.45313-.53125.23437-.09375.53125-.20312.67187-.28125v.82813c0 .46875-.35937.59375-.59375.59375C1.04688-.23437.875-.5.875-.84375m0 0"/><path id="m" d="M.28125-1.375C.28125-.51562.73438.0625 1.5.0625c.32813 0 .59375-.14062.90625-.39062v.28125L2.45313 0h.95312v-.17187c-.42187-.03126-.4375-.03126-.4375-.34375v-3.78125l-.04687-.03125L2-4.1875v.15625l.23438.01563c.14062.01562.17187.04687.17187.28125v.95312c-.15625-.09375-.375-.14062-.64062-.14062-.46875 0-.82813.15625-1.07813.39062-.25.26563-.40625.65625-.40625 1.15625m.60938-.0625c0-.76562.28124-1.28125.875-1.28125.26562 0 .5.125.59375.35938.04687.09375.04687.1875.04687.34375V-1c0 .14063 0 .23438-.03125.34375-.10937.29688-.375.42188-.67187.42188-.53125 0-.8125-.53125-.8125-1.20313m0 0"/><path id="n" d="M.53125-3.8125c0 .20313.15625.35938.35938.35938.21874 0 .35937-.15625.35937-.35938 0-.21875-.14062-.35937-.35937-.35937-.20313 0-.35938.14062-.35938.35937M-.1875 1.26563v.14062c.10938 0 .28125-.01562.4375-.04687.73438-.15626.92188-.67188.92188-1.40625v-2.84375L1.125-2.92187l-.92187.14062v.14063l.23437.03125c.14063.03125.1875.0625.1875.26562v2.14063c0 .40625-.03125.8125-.15625 1.0625-.10937.20312-.3125.32812-.65625.40625m0 0"/><path id="o" d="M.28125-1.40625C.28125-.42187.76563.0625 1.64063.0625c.40625 0 .95312-.20312 1.125-.82812l-.17188-.07813c-.1875.40625-.42187.60938-.84375.60938-.70312 0-.85937-.73438-.85937-1.26563 0-.875.34375-1.21875.75-1.21875.26562 0 .4375.1875.54687.5.04688.09375.07813.15625.1875.15625.125 0 .34375-.07812.34375-.29687 0-.26563-.39062-.5625-1.01562-.5625-1.0625 0-1.42188.75-1.42188 1.51562m0 0"/><path id="p" d="M.28125-1.40625C.28125-.48437.6875.0625 1.625.0625c.65625 0 .98438-.35937 1.14063-.8125l-.17188-.09375C2.4375-.5 2.20313-.23437 1.75-.23437c-.71875 0-.875-.6875-.85937-1.29688h1.6875c.125 0 .21875-.03125.21875-.21875 0-.34375-.10938-1.17187-1.17188-1.17187-.90625 0-1.34375.64062-1.34375 1.51562m.625-.34375c0-.25.07813-.96875.6875-.96875.54688 0 .60938.54688.60938.78125 0 .10938-.04688.1875-.20313.1875Zm0 0"/><path id="q" d="M.1875 0h1.42188v-.17187c-.42188-.03126-.4375-.03126-.4375-.34375V-1.875c0-.14062 0-.21875.0625-.3125.125-.23437.375-.42187.6875-.42187.39062 0 .60937.21875.60937.71875v1.375c0 .3125-.01562.3125-.4375.34375V0h1.42188v-.17187c-.40625-.03126-.4375-.03126-.4375-.34375V-2c0-.59375-.3125-.92187-.84375-.92187-.4375 0-.70313.20312-1.0625.4375l-.09376-.4375-.85937.14062v.14063l.21875.03125c.14063.03125.1875.04687.1875.26562v1.82813c0 .3125-.01562.3125-.4375.34375Zm0 0"/><path id="r" d="M.64063-3.96875c0 .125.15624.23438.32812.32813l.89063.48437.07812-.125-.6875-.6875c-.17187-.1875-.28125-.25-.375-.25s-.23437.14063-.23437.25M.28125-.75c0 .42188.29688.8125.84375.8125.34375 0 .6875-.21875.85938-.34375.09374.21875.1875.34375.39062.34375.21875 0 .46875-.0625.6875-.17187l-.03125-.125c-.07812.01562-.21875.01562-.29687 0-.10938-.03126-.20313-.14063-.20313-.5v-1.42188c0-.34375-.07812-.76562-.96875-.76562-.65625 0-1.17187.32812-1.17187.65625 0 .1875.21875.28125.32812.28125.125 0 .15625-.0625.1875-.17188.125-.4375.35938-.5625.59375-.5625s.5.10938.5.57813v.25c-.15625.14062-.71875.29687-1.17187.4375-.42188.125-.54688.42187-.54688.70312M.875-.84375c0-.26562.125-.40625.45313-.53125.23437-.09375.53125-.20312.67187-.28125v.82813c0 .46875-.35937.59375-.59375.59375C1.04688-.23437.875-.5.875-.84375m0 0"/><path id="s" d="M.20313 0h1.625v-.17187c-.5-.03126-.51563-.03126-.51563-.375v-1.4375h2.03125v1.4375c0 .34375 0 .34375-.51562.375V0h1.625v-.17187c-.51563-.03126-.53125-.03126-.53125-.375V-3.5c0-.32812.01562-.32812.53125-.35937v-.17188h-1.625v.17188c.51562.03125.51562.03125.51562.35937v1.29688H1.3125V-3.5c0-.32812.01563-.32812.51563-.35937v-.17188h-1.625v.17188c.51562.03125.53125.03125.53125.35937v2.95313c0 .34375-.01563.34375-.53125.375Zm0 0"/><path id="t" d="M-.03125-2.6875c.28125.01563.34375.04688.45313.3125.28125.6875.76562 1.92188.90625 2.32813.03124.10937.04687.1875.04687.28125 0 .14062-.04687.3125-.14062.5-.09376.20312-.1875.25-.25.25S.875.96875.76562.85938C.70313.8125.65626.78125.59376.78125c-.10937 0-.26562.15625-.26562.32813 0 .14062.17187.29687.40625.29687.23437 0 .53125-.0625.82812-.92187.35938-1.04688.90625-2.46875 1.09375-2.875.09375-.23438.125-.28125.42188-.29688v-.17187h-1.125v.17187l.3125.03125c.09375 0 .10937.07813.07812.1875-.07812.35938-.39062 1.23438-.64062 1.9375H1.6875c-.26562-.70312-.5-1.32812-.71875-1.95312-.03125-.10938-.04687-.17188.07813-.1875l.26562-.01563v-.17187H-.03125Zm0 0"/><path id="u" d="M.15625 1.17188v.17187h1.5v-.17187C1.17188 1.14062 1.125 1.125 1.125.82813V-.0625c.125.0625.40625.125.67188.125C2.59375.0625 3.25-.29687 3.25-1.5c0-.40625-.0625-1.42187-1.125-1.42187-.4375 0-.76562.28125-1 .42187l-.07812-.42187-.875.14062v.14063l.21875.03125c.15625.03125.1875.04687.1875.26562V.82813c0 .29687-.01563.3125-.42188.34375M1.125-.92187V-1.875c0-.14062.03125-.21875.07813-.32812.14062-.26563.39062-.40625.6875-.40625.25 0 .76562.14062.76562 1.15625 0 .84375-.28125 1.3125-.85937 1.3125-.29688 0-.53125-.15625-.625-.42188C1.14062-.65625 1.125-.78125 1.125-.92187m0 0"/><path id="v" d="M.28125-1.42187C.28125-.48437.75.0625 1.6875.0625s1.39063-.54687 1.39063-1.48437c0-.95313-.45313-1.5-1.39063-1.5s-1.40625.54687-1.40625 1.5m.60938 0c0-.8125.26562-1.29688.79687-1.29688s.79688.48438.79688 1.29688c0 .79687-.26563 1.28125-.79688 1.28125S.89063-.625.89063-1.42187m0 0"/><path id="w" d="m.15625-2.64062.21875.03125c.14063.03125.1875.04687.1875.26562V-.8125c0 .67188.39063.875.82813.875.5 0 .89062-.32812 1.0625-.40625L2.51563 0h.9375v-.17187c-.40625-.03126-.4375-.03126-.4375-.34375v-2.375l-.04688-.03125-.92187.14062v.14063l.23437.03125c.14063.03125.1875.04687.1875.26562v1.3125c0 .15625-.03125.29688-.0625.34375-.125.26563-.40625.45313-.70312.45313-.34375 0-.59375-.21875-.59375-.67188v-1.98437l-.04688-.03125-.90625.14062Zm0 0"/><path id="x" d="m.26563-.96875.0625.76563c.21875.17187.57812.26562.90625.26562.70312 0 1.09375-.35937 1.09375-.85937 0-.51563-.3125-.73438-.90625-.92188-.25-.07812-.625-.20312-.625-.53125 0-.3125.23437-.46875.51562-.46875.42188 0 .60938.3125.65625.67188h.17188v-.6875c-.1875-.14063-.48438-.1875-.75-.1875-.64063 0-1.0625.29687-1.0625.84375 0 .48437.39062.70312.875.84375.26562.09374.64062.21874.64062.60937 0 .29688-.23437.48438-.54687.48438-.46875 0-.73438-.34375-.85938-.82813Zm0 0"/></defs><path fill="none" stroke="red" stroke-miterlimit="10" stroke-width=".39729" d="M59.8711 228.90625v-7.0625h7.0664v7.0625h-7.0664"/><path fill="#99F" d="m183.51172 228.90625-8.89844-15.2539c-5.42578 3.16406-8.76172 8.97265-8.76172 15.2539Zm0 0"/><path fill="none" stroke="#000" stroke-miterlimit="10" stroke-width=".39729" d="M174.61333 213.65234c-5.42578 3.16406-8.76172 8.97266-8.76172 15.25391"/><use xlink:href="#a" x="153.48832" y="216.41287"/><use xlink:href="#b" x="152.82409" y="217.67902"/><use xlink:href="#c" x="157.07019" y="217.67902"/><use xlink:href="#d" x="161.21696" y="217.67902"/><path fill="none" stroke="#007F7F" stroke-miterlimit="10" stroke-width=".39729" d="M59.8711 228.90625h123.64067"/><path fill="none" stroke="#FF7F00" stroke-miterlimit="10" stroke-width=".39729" d="M183.51177 228.90625 59.8711 16.95303"/><path fill="none" stroke="#BF0040" stroke-miterlimit="10" stroke-width=".39729" d="M59.8711 16.95303v211.95322"/><use xlink:href="#e" x="47.47794" y="241.36388"/><use xlink:href="#f" x="187.89827" y="241.36388"/><use xlink:href="#g" x="47.61453" y="12.39425"/><g fill="#007F7F"><use xlink:href="#h" x="94.48378" y="239.07386"/><use xlink:href="#i" x="98.46915" y="239.07386"/><use xlink:href="#j" x="101.83374" y="239.07386"/><use xlink:href="#k" x="103.83885" y="239.07386"/></g><g fill="#007F7F"><use xlink:href="#l" x="108.14702" y="239.07386"/><use xlink:href="#m" x="111.19502" y="239.07386"/><use xlink:href="#n" x="114.68377" y="239.07386"/><use xlink:href="#l" x="116.31641" y="239.07386"/><use xlink:href="#o" x="119.36441" y="239.07386"/><use xlink:href="#p" x="122.25722" y="239.07386"/><use xlink:href="#q" x="125.25556" y="239.07386"/><use xlink:href="#j" x="128.86226" y="239.07386"/></g><use xlink:href="#r" x="132.17719" y="239.07386" fill="#007F7F"/><use xlink:href="#a" x="137.19868" y="237.80647" fill="#007F7F"/><use xlink:href="#b" x="136.53445" y="239.07386" fill="#007F7F"/><use xlink:href="#c" x="140.78676" y="239.07386" fill="#007F7F"/><use xlink:href="#d" x="144.93353" y="239.07386" fill="#007F7F"/><use xlink:href="#s" x="126.07855" y="117.13524" fill="#FF7F00"/><g fill="#FF7F00"><use xlink:href="#t" x="130.59158" y="117.13524"/><use xlink:href="#u" x="133.54026" y="117.13524"/><use xlink:href="#v" x="137.08488" y="117.13524"/><use xlink:href="#j" x="140.44947" y="117.13524"/><use xlink:href="#k" x="142.45458" y="117.13524"/><use xlink:href="#q" x="145.45291" y="117.13524"/><use xlink:href="#w" x="149.05961" y="117.13524"/><use xlink:href="#x" x="152.59182" y="117.13524"/><use xlink:href="#p" x="155.13079" y="117.13524"/></g><g fill="#BF0040"><use xlink:href="#h" x="4.43404" y="125.14983"/><use xlink:href="#i" x="8.41941" y="125.14983"/><use xlink:href="#j" x="11.78401" y="125.14983"/><use xlink:href="#k" x="13.78911" y="125.14983"/></g><g fill="#BF0040"><use xlink:href="#v" x="18.09107" y="125.14983"/><use xlink:href="#u" x="21.45567" y="125.14983"/><use xlink:href="#u" x="25.00029" y="125.14983"/><use xlink:href="#v" x="28.54491" y="125.14983"/><use xlink:href="#x" x="31.90951" y="125.14983"/><use xlink:href="#k" x="34.44848" y="125.14983"/></g><use xlink:href="#r" x="38.75665" y="125.14983" fill="#BF0040"/><use xlink:href="#a" x="43.78419" y="123.88369" fill="#BF0040"/><use xlink:href="#b" x="43.11996" y="125.14983" fill="#BF0040"/><use xlink:href="#c" x="47.37227" y="125.14983" fill="#BF0040"/><use xlink:href="#d" x="51.51904" y="125.14983" fill="#BF0040"/></svg>