<svg xmlns="http://www.w3.org/2000/svg" xmlns:xlink="http://www.w3.org/1999/xlink" width="175.137pt" height="216.966pt" viewBox="0 0 175.137 216.966"><defs><path id="a" d="M0 0h5.29688l.09375-.53125-1.28125-.125c-.32813-.01562-.46875-.15625-.46875-.45312 0-.125.03125-.26563.0625-.4375l.84375-3.67188h1.375c1.59375 0 3.0625-.21875 4.125-.875 1.20312-.73437 1.89062-2 1.89062-3.39062 0-1.26563-.59375-2.23438-1.51562-2.75-.85938-.5-2.04688-.65625-3.28125-.65625H2.78125l-.14062.53125 1.10937.07812c.3125.03125.45313.1875.45313.5 0 .125-.01563.26563-.0625.4375L1.90625-1.54687c-.15625.64062-.3125.85937-.78125.89062l-1.03125.125Zm4.79688-6.26562c0-.125.01562-.23438.0625-.39063l1.125-4.9375c.125-.48437.23437-.65625 1.1875-.65625 1.84375 0 2.79687.875 2.79687 2.45313 0 2.65625-1.48437 3.92187-4 3.92187-.95312 0-1.17187-.09375-1.17187-.39062m0 0"/><path id="d" d="M.20313 0h5.40625l.125-.53125-1.40625-.10937c-.34375-.01563-.48438-.17188-.48438-.45313 0-.10937.01563-.23437.0625-.39062L4.9375-6.09375h2.48438c1.35937 0 1.625.26563 1.625 1.0625 0 .15625 0 .32813-.03125.53125h.5625l.875-3.90625h-.5625c-.46875 1.3125-.6875 1.60938-2.34375 1.60938H5.09375l1.10938-4.875c.125-.48438.21875-.57813.5625-.57813h2.28125c1.8125 0 2.17187.46875 2.17187 1.46875 0 .46875-.0625.96875-.0625.96875h.57813l.70312-3.07812H2.95313l-.125.53125 1.125.10937c.3125.01563.45312.17188.45312.46875 0 .10938-.03125.23438-.0625.375L2.125-1.48437c-.14062.54687-.32812.8125-.78125.84375L.29688-.53125Zm0 0"/><path id="b" d="M1.42188 0h4.35937v-.40625L4.75-.5c-.29687-.03125-.4375-.125-.4375-.60937v-7.6875l-.07812-.0625-2.8125.46875v.34375l1.125.15625c.25.03125.34375.14062.34375.53125v6.25c0 .48437-.125.57812-.4375.60937l-1.03125.09375Zm0 0"/><path id="c" d="M.375-.15625.53125 0h5.51563l.46875-1.85937-.39063-.0625c-.29687.6875-.53125.78125-1.0625.78125H1.73438c.20312-.625.90625-1.5 2.17187-2.34375 1.3125-.89063 2.25-1.5 2.25-2.92188 0-1.82812-1.23437-2.45312-2.67187-2.45312-1.78125 0-2.79688 1.01562-2.79688 1.8125 0 .46875.54688.6875.82813.6875.25 0 .375-.14063.42187-.39063.21875-.90625.70313-1.625 1.46875-1.625.90625 0 1.20313.78125 1.20313 1.73438 0 1.25-.57813 2.09375-1.79688 3.14062C1.15625-2.0625.5625-1.125.375-.15625m0 0"/></defs><path fill="none" stroke="#007F7F" stroke-miterlimit="10" stroke-width=".7931" d="m.39453 108.46484 56.418-56.41408m-56.418 56.41408 56.418 56.418"/><path fill="none" stroke="#000" stroke-miterlimit="10" stroke-width=".39655" d="m96.30082 52.05076 45.13283-28.20705"/><use xlink:href="#a" x="71.11657" y="56.31407" fill="#007F7F"/><use xlink:href="#b" x="81.06952" y="60.67657" fill="#007F7F"/><use xlink:href="#a" x="148.43856" y="28.10706"/><use xlink:href="#c" x="158.39151" y="32.46757"/><path fill="none" stroke="#007F7F" stroke-miterlimit="10" stroke-width=".7931" d="m96.30082 52.05076 45.13283 28.20704"/><use xlink:href="#d" x="148.8356" y="84.52207" fill="#007F7F"/><use xlink:href="#c" x="159.44333" y="88.88258" fill="#007F7F"/><path fill="none" stroke="#007F7F" stroke-miterlimit="10" stroke-width=".7931" d="m96.30082 164.88284 45.13283-28.20705"/><use xlink:href="#d" x="70.06575" y="169.14409" fill="#007F7F"/><use xlink:href="#b" x="80.67348" y="173.50659" fill="#007F7F"/><use xlink:href="#a" x="148.8356" y="140.93608" fill="#007F7F"/><use xlink:href="#c" x="158.78856" y="145.29859" fill="#007F7F"/><path fill="none" stroke="#000" stroke-miterlimit="10" stroke-width=".39655" d="m96.30082 164.88284 45.13283 28.20704"/><use xlink:href="#d" x="148.43856" y="197.3511"/><use xlink:href="#c" x="159.04629" y="201.7136"/><use xlink:href="#b" x="25.08638" y="58.30326" fill="#007F7F"/><path fill="none" stroke="#007F7F" stroke-miterlimit="10" stroke-width="1.09062" d="M25.08594 61.01953H32.125"/><use xlink:href="#c" x="25.08638" y="73.2536" fill="#007F7F"/><use xlink:href="#b" x="25.08638" y="152.54787" fill="#007F7F"/><path fill="none" stroke="#007F7F" stroke-miterlimit="10" stroke-width="1.09062" d="M25.08594 155.26172H32.125"/><use xlink:href="#c" x="25.08638" y="167.49621" fill="#007F7F"/><use xlink:href="#b" x="109.7084" y="15.99275"/><path fill="none" stroke="#000" stroke-miterlimit="10" stroke-width="1.09062" d="M109.70703 18.71094h7.03906"/><use xlink:href="#c" x="109.7084" y="30.94308"/><use xlink:href="#b" x="109.7084" y="82.02935" fill="#007F7F"/><path fill="none" stroke="#007F7F" stroke-miterlimit="10" stroke-width="1.09062" d="M109.70703 84.74219h7.03906"/><use xlink:href="#c" x="109.7084" y="96.97769" fill="#007F7F"/><use xlink:href="#b" x="109.7084" y="128.82178" fill="#007F7F"/><path fill="none" stroke="#007F7F" stroke-miterlimit="10" stroke-width="1.09062" d="M109.70703 131.53906h7.03906"/><use xlink:href="#c" x="109.7084" y="143.77211" fill="#007F7F"/><use xlink:href="#b" x="109.7084" y="194.85838"/><path fill="none" stroke="#000" stroke-miterlimit="10" stroke-width="1.09062" d="M109.70703 197.57422h7.03906"/><use xlink:href="#c" x="109.7084" y="209.80871"/></svg>