<svg xmlns="http://www.w3.org/2000/svg" xmlns:xlink="http://www.w3.org/1999/xlink" width="109.61pt" height="135.604pt" viewBox="0 0 109.61 135.604"><defs><path id="a" d="M0 0h3.3125l.0625-.32812-.8125-.07813q-.28125-.02343-.28125-.28125c0-.07812.01563-.17187.03125-.28125l.53125-2.29687h.85938c1 0 1.92187-.14063 2.59375-.54688.73437-.45312 1.17187-1.25 1.17187-2.125 0-.78125-.375-1.39062-.9375-1.71875-.54687-.3125-1.29687-.40625-2.0625-.40625H1.73438l-.07813.32813.6875.0625c.20313 0 .28125.10937.28125.29687 0 .07813 0 .17188-.03125.28125L1.1875-.96875C1.09375-.57812 1-.4375.70313-.40625L.0625-.32812Zm3-3.92187c0-.07813.01563-.14063.04688-.25L3.75-7.25c.07813-.3125.14063-.42187.73438-.42187 1.15625 0 1.75.54687 1.75 1.54687 0 1.65625-.92188 2.45313-2.5 2.45313-.59375 0-.73438-.0625-.73438-.25m0 0"/><path id="d" d="M.125 0h3.39063l.0625-.32812-.875-.0625C2.5-.40625 2.40625-.51562 2.40625-.6875c0-.0625.01563-.14062.03125-.25l.65625-2.875h1.54688c.85937 0 1.01562.17188 1.01562.65625 0 .10938 0 .21875-.01562.34375H6l.53125-2.45312H6.1875C5.89063-4.4375 5.75-4.25 4.73438-4.25H3.1875l.70313-3.0625c.0625-.29687.125-.35937.34375-.35937h1.42187c1.14063 0 1.35938.29687 1.35938.92187 0 .29688-.03125.60938-.03125.60938h.35937l.4375-1.92188h-5.9375l-.0625.32813.6875.0625c.20313.01562.28125.10937.28125.29687 0 .0625-.01562.15625-.03125.23438L1.32813-.9375c-.09376.35938-.20313.51563-.48438.54688l-.65625.0625Zm0 0"/><path id="b" d="M.89063 0H3.625v-.25l-.65625-.0625c-.1875-.01562-.26562-.07812-.26562-.375v-4.82812l-.04688-.03125L.89063-5.25v.21875l.70312.09375c.15625.01563.21875.07813.21875.32813V-.6875c0 .29688-.07812.35938-.28125.375L.89063-.25Zm0 0"/><path id="c" d="M.23438-.09375.32813 0h3.45312l.29688-1.17187-.23438-.03126c-.1875.4375-.34375.48438-.67187.48438H1.07813c.14062-.39062.57812-.9375 1.35937-1.46875.82813-.54687 1.42188-.9375 1.42188-1.82812 0-1.14063-.78125-1.53125-1.67188-1.53125-1.125 0-1.75.64062-1.75 1.14062 0 .28125.32813.42188.51563.42188.15624 0 .23437-.07813.26562-.23438.125-.57812.4375-1.03125.90625-1.03125.57813 0 .76563.5.76563 1.09375 0 .78125-.35938 1.3125-1.125 1.96875C.71875-1.29687.35938-.70312.23438-.09375m0 0"/></defs><path fill="none" stroke="#007F7F" stroke-miterlimit="10" stroke-width=".79418" d="m.39844 67.60547 35.3047-35.30861M.39844 67.60547l35.3047 35.3086"/><path fill="none" stroke="#000" stroke-miterlimit="10" stroke-width=".39709" d="M60.4219 32.29686 88.66801 14.6445"/><use xlink:href="#a" x="44.6581" y="34.96484" fill="#007F7F"/><use xlink:href="#b" x="50.88719" y="37.69512" fill="#007F7F"/><use xlink:href="#a" x="93.04992" y="17.31165"/><use xlink:href="#c" x="99.27901" y="20.04069"/><path fill="none" stroke="#007F7F" stroke-miterlimit="10" stroke-width=".79418" d="M60.4219 32.29686 88.66801 49.9492"/><use xlink:href="#d" x="93.29804" y="52.61902" fill="#007F7F"/><use xlink:href="#c" x="99.93692" y="55.34931" fill="#007F7F"/><path fill="none" stroke="#007F7F" stroke-miterlimit="10" stroke-width=".79418" d="m60.4219 102.91408 28.24611-17.65626"/><use xlink:href="#d" x="44.00044" y="105.58058" fill="#007F7F"/><use xlink:href="#b" x="50.63932" y="108.30962" fill="#007F7F"/><use xlink:href="#a" x="93.29804" y="87.9264" fill="#007F7F"/><use xlink:href="#c" x="99.52713" y="90.65668" fill="#007F7F"/><path fill="none" stroke="#000" stroke-miterlimit="10" stroke-width=".39709" d="m60.4219 102.91408 28.24611 17.65235"/><use xlink:href="#d" x="93.04992" y="123.23377"/><use xlink:href="#c" x="99.6888" y="125.96406"/><use xlink:href="#b" x="15.84836" y="36.21016" fill="#007F7F"/><path fill="none" stroke="#007F7F" stroke-miterlimit="10" stroke-width=".68257" d="M15.84766 37.91016h4.40625"/><use xlink:href="#c" x="15.84836" y="45.56686" fill="#007F7F"/><use xlink:href="#b" x="15.84836" y="95.19329" fill="#007F7F"/><path fill="none" stroke="#007F7F" stroke-miterlimit="10" stroke-width=".68257" d="M15.84766 96.89453h4.40625"/><use xlink:href="#c" x="15.84836" y="104.55" fill="#007F7F"/><use xlink:href="#b" x="68.80992" y="9.72938"/><path fill="none" stroke="#000" stroke-miterlimit="10" stroke-width=".68257" d="M68.8086 11.42969h4.40624"/><use xlink:href="#c" x="68.80992" y="19.08609"/><use xlink:href="#b" x="68.80992" y="51.05833" fill="#007F7F"/><path fill="none" stroke="#007F7F" stroke-miterlimit="10" stroke-width=".68257" d="M68.8086 52.75781h4.40624"/><use xlink:href="#c" x="68.80992" y="60.41503" fill="#007F7F"/><use xlink:href="#b" x="68.80992" y="80.34512" fill="#007F7F"/><path fill="none" stroke="#007F7F" stroke-miterlimit="10" stroke-width=".68257" d="M68.8086 82.04297h4.40624"/><use xlink:href="#c" x="68.80992" y="89.70058" fill="#007F7F"/><use xlink:href="#b" x="68.80992" y="121.67407"/><path fill="none" stroke="#000" stroke-miterlimit="10" stroke-width=".68257" d="M68.8086 123.375h4.40624"/><use xlink:href="#c" x="68.80992" y="131.03078"/></svg>