<svg xmlns="http://www.w3.org/2000/svg" xmlns:xlink="http://www.w3.org/1999/xlink" width="266.903pt" height="64.553pt" viewBox="0 0 266.903 64.553"><defs><path id="a" d="m1.75-1.3125.5.5 2.09375-2.10937L6.45313-.8125l.48437-.5-2.09375-2.09375L6.9375-5.51562 6.45313-6 4.34375-3.90625 2.25-6l-.5.48438 2.10938 2.10937Zm0 0"/><path id="b" d="M-.23437 0H2.5l.07813-.34375-.67188-.0625C1.75-.42187 1.6875-.5 1.6875-.625c0-.0625.01563-.14062.0625-.23437.39063-.78125.78125-1.5625 1.23438-2.375h2.71875L6-.73437s-.07812.29687-.32812.32812l-.64063.0625L4.96875 0H7.9375l.07813-.34375-.46875-.04687c-.375-.03125-.42188-.20313-.48438-.70313l-.89062-7.26562H5.3125l-2.03125 3.5625c-.625 1.07812-1.625 2.875-2.07812 3.59375C.82813-.5625.625-.4375.25-.40625l-.40625.0625Zm3.46875-3.6875L5.1875-7.23437 5.625-3.6875Zm0 0"/><path id="c" d="M.39063-3.26562c0 2 1.14062 3.45312 3.54687 3.45312 2.125 0 3.17188-1.09375 3.84375-2.29687.65625-1.1875.76563-2.42188.76563-2.89063 0-2.48437-1.5-3.54687-3.5-3.54687-1.92188 0-3.125 1.0625-3.82813 2.21875-.67187 1.125-.82812 2.26562-.82812 3.0625m1.26562.48437c0-1.01562.20313-2.14062.75-3.3125C2.95313-7.23437 3.8125-8.125 5.10938-8.125c1.3125 0 2.17187.78125 2.17187 2.5 0 .6875-.0625 1.67188-.5625 2.96875C6.21875-1.35937 5.39063-.25 3.8125-.25 2.5-.25 1.65625-1.09375 1.65625-2.78125m0 0"/><path id="d" d="M.92188 0H3.75v-.26562l-.67187-.0625c-.1875-.01563-.28125-.07813-.28125-.39063v-4.98437L2.75-5.75l-1.82812.3125v.21875l.73437.09375c.15625.03125.21875.09375.21875.35938v4.04687c0 .3125-.07812.375-.28125.39063l-.67187.0625Zm0 0"/><path id="e" d="M.25-.09375.34375 0h3.57813l.3125-1.20312-.25-.04688c-.20313.45313-.35938.51563-.70313.51563H1.125c.14063-.40625.57813-.96875 1.40625-1.53125C3.39063-2.82812 4-3.23437 4-4.15625 4-5.34375 3.1875-5.75 2.26563-5.75c-1.15625 0-1.8125.67188-1.8125 1.17188 0 .3125.34375.45312.53125.45312.15624 0 .23437-.09375.28124-.25.125-.59375.4375-1.0625.9375-1.0625.59375 0 .78125.51563.78125 1.125 0 .82813-.35937 1.35938-1.15625 2.04688C.75-1.34375.375-.73437.25-.09375m0 0"/></defs><use xlink:href="#a" x="92.45141" y="23.21822"/><use xlink:href="#b" x="83.95921" y="15.67049"/><use xlink:href="#a" x="19.24334" y="59.82176"/><use xlink:href="#c" x="5.15688" y="49.44462"/><use xlink:href="#d" x="13.71015" y="52.27462"/><use xlink:href="#a" x="238.86854" y="23.21822"/><use xlink:href="#c" x="247.75997" y="12.84108"/><use xlink:href="#e" x="256.31324" y="15.66979"/></svg>