<svg xmlns="http://www.w3.org/2000/svg" xmlns:xlink="http://www.w3.org/1999/xlink" width="169.911pt" height="184.651pt" viewBox="0 0 169.911 184.651"><defs><clipPath id="a"><path d="M.11719 0H80v80H.11719Zm0 0"/></clipPath><clipPath id="b"><path d="M90 104h79.70703v80.30078H90Zm0 0"/></clipPath><path id="c" d="m1.75-1.3125.51563.5L4.375-2.9375l2.10938 2.125.5-.5L4.875-3.42187l2.10938-2.125-.5-.48438L4.375-3.92187 2.26563-6.03125 1.75-5.54687l2.125 2.125Zm0 0"/><path id="d" d="M.39063-3.28125c0 2 1.14062 3.46875 3.5625 3.46875 2.14062 0 3.1875-1.10937 3.85937-2.3125.67188-1.1875.78125-2.42187.78125-2.90625 0-2.48437-1.51562-3.5625-3.51562-3.5625-1.9375 0-3.14063 1.07813-3.84375 2.23438C.5625-5.23437.39063-4.07812.39063-3.28125m1.28125.48438c0-1.01563.1875-2.15625.75-3.32813.54687-1.15625 1.42187-2.04687 2.70312-2.04687 1.32813 0 2.1875.79687 2.1875 2.51562 0 .6875-.0625 1.6875-.5625 2.98438C6.23438-1.375 5.42188-.25 3.84375-.25c-1.32812 0-2.17187-.84375-2.17187-2.54687m0 0"/></defs><g clip-path="url(#a)"><path fill="none" stroke="#000" stroke-miterlimit="10" stroke-width=".39775" d="M73.88297 36.98046c0-20.31642-16.46875-36.78127-36.78517-36.78127C16.78529.1992.31653 16.66404.31653 36.98046c0 20.3125 16.46876 36.78127 36.78127 36.78127 20.31642 0 36.78517-16.46876 36.78517-36.78127Zm0 0"/></g><g clip-path="url(#b)"><path fill="none" stroke="#000" stroke-miterlimit="10" stroke-width=".39775" d="M169.51193 147.32426c0-20.3125-16.46486-36.78126-36.78127-36.78126-20.31251 0-36.78127 16.46875-36.78127 36.78126s16.46876 36.78127 36.78127 36.78127c20.31641 0 36.78127-16.46876 36.78127-36.78127Zm0 0"/></g><use xlink:href="#c" x="80.54184" y="95.17711"/><use xlink:href="#d" x="71.3592" y="105.32194"/><use xlink:href="#c" x="32.72622" y="39.9984"/><use xlink:href="#c" x="128.35747" y="150.34085"/></svg>