<svg xmlns="http://www.w3.org/2000/svg" xmlns:xlink="http://www.w3.org/1999/xlink" width="256.596pt" height="62.063pt" viewBox="0 0 256.596 62.063"><defs><path id="a" d="m1.67188-1.25.46875.48438 2-2.01563L6.15625-.76562 6.625-1.25l-2-2 2-2.01562-.46875-.46875-2.01562 2-2-2-.46875.46875L3.6875-3.25Zm0 0"/><path id="b" d="M-.21875 0H2.375l.07813-.32812-.64063-.0625c-.14062-.01563-.20312-.09375-.20312-.20313 0-.0625.01562-.14062.0625-.23437.375-.73438.75-1.48438 1.17187-2.25H5.4375l.28125 2.375s-.0625.28124-.3125.3125l-.60937.0625L4.73438 0H7.5625l.07813-.32812-.4375-.04688c-.35938-.03125-.40625-.1875-.46875-.67187l-.84375-6.92188H5.0625L3.125-4.57812c-.59375 1.03125-1.54687 2.75-1.96875 3.4375-.375.59375-.5625.71875-.92187.76562l-.375.04688Zm3.29688-3.51562 1.875-3.39063.42187 3.39063Zm0 0"/><path id="c" d="M.375-3.10937C.375-1.21875 1.45313.17188 3.75.17188c2.04688 0 3.03125-1.04688 3.67188-2.1875.625-1.125.73437-2.29688.73437-2.75 0-2.375-1.4375-3.39063-3.32812-3.39063-1.84375 0-2.98438 1.01563-3.65625 2.125C.53125-4.96875.375-3.875.375-3.10937m1.20313.45312c0-.96875.1875-2.04687.71875-3.15625C2.82813-6.90625 3.64063-7.75 4.875-7.75c1.26563 0 2.0625.75 2.0625 2.375 0 .67188-.0625 1.60938-.53125 2.84375C5.92188-1.29687 5.14063-.23437 3.64063-.23437c-1.25 0-2.0625-.8125-2.0625-2.42188m0 0"/><path id="d" d="M.875 0h2.70313v-.25L2.9375-.3125c-.17187-.01562-.26562-.07812-.26562-.375v-4.76562L2.625-5.48437l-1.73437.28125v.21875l.6875.09375c.15624.03125.20312.09375.20312.32812v3.875c0 .29688-.07812.35938-.26562.375L.875-.25Zm0 0"/><path id="e" d="M.23438-.09375.32813 0H3.75l.29688-1.15625-.25-.03125c-.1875.42188-.32813.48438-.65625.48438h-2.0625c.125-.39063.5625-.9375 1.34375-1.45313.8125-.54687 1.39062-.92187 1.39062-1.8125 0-1.125-.76562-1.51562-1.65625-1.51562-1.09375 0-1.71875.625-1.71875 1.125 0 .28125.32813.42187.5.42187.15625 0 .23438-.07812.26563-.23437.125-.57813.4375-1.01563.90625-1.01563.5625 0 .75.48438.75 1.07813 0 .78125-.35938 1.29687-1.10938 1.9375C.71875-1.28125.35938-.70312.23438-.09375m0 0"/></defs><use xlink:href="#a" x="89.0466" y="22.14467"/><use xlink:href="#b" x="80.9459" y="14.94635"/><use xlink:href="#a" x="19.23361" y="57.05067"/><use xlink:href="#c" x="5.79845" y="47.1531"/><use xlink:href="#d" x="13.95653" y="49.85235"/><use xlink:href="#a" x="228.6716" y="22.14467"/><use xlink:href="#c" x="237.15158" y="12.2471"/><use xlink:href="#e" x="245.31089" y="14.94635"/></svg>