<svg xmlns="http://www.w3.org/2000/svg" xmlns:xlink="http://www.w3.org/1999/xlink" width="961.771pt" height="198.824pt" viewBox="0 0 961.771 198.824"><defs><path id="b" d="M1.60938-5.28125c0 4.21875.95312 8.85938 4.92187 9.03125v-.5625c-1.32812-.26562-3.42187-1.90625-3.42187-8.46875 0-6.5 1.98437-8.15625 3.42187-8.45312v-.5625C2.5625-14.14062 1.60938-9.5 1.60938-5.28125m0 0"/><path id="c" d="M1.39063-2.25c0 1.21875.35937 2.46875 1.875 2.46875 2.15625 0 3.82812-2.28125 4.92187-4.29687h.03125l-.60937 2.23437c-.10938.375-.17188.70313-.17188.98438 0 .70312.32813 1.07812.98438 1.07812 1.46875 0 2.45312-1.28125 3.07812-2.6875l-.4375-.26562C10.73438-2.0625 9.89063-.75 9.375-.75c-.21875 0-.29687-.14062-.29687-.35937 0-.1875.0625-.40625.125-.65625l2.9375-12.03125-.09375-.07813-3.32813.4375L8.625-13l1.10938.09375c.29687.03125.42187.10938.42187.32813 0 .09375-.03125.25-.07812.45312l-.71875 3.01563-.04688.03125c-.35937-.17188-.9375-.3125-1.5625-.3125-4.35937 0-6.35937 4.875-6.35937 7.14062M3.25-2.09375c0-2.03125 1.625-6.64062 4.60938-6.64062.57812 0 1.07812.17187 1.29687.375-.28125 1.4375-.89062 3.20312-1.84375 4.75C6.40625-2.15625 5.17188-.75 4.1875-.75c-.60937 0-.9375-.5-.9375-1.34375m0 0"/><path id="d" d="M1.10938 3.1875V3.75c3.96875-.17187 4.92187-4.8125 4.92187-9.03125s-.95312-8.85937-4.92187-9.01562v.5625c1.4375.29687 3.42187 1.95312 3.42187 8.45312 0 6.5625-2.07812 8.20313-3.42187 8.46875m0 0"/><path id="f" d="m2.70313-2.03125.78125.78125 3.25-3.26562L10-1.25l.75-.78125-3.25-3.25 3.25-3.26562-.75-.75-3.26562 3.25-3.25-3.25-.78125.75 3.26562 3.26562Zm0 0"/><clipPath id="a"><path d="M.3125 51H290v69H.3125Zm0 0"/></clipPath><clipPath id="e"><path d="M436 22h182v176.64844H436Zm0 0"/></clipPath></defs><path fill="none" stroke="#000" stroke-miterlimit="10" stroke-width=".39815" d="m57.15237 102.15625 113.2891-62.30862L113.79693.19917Zm0 0"/><g clip-path="url(#a)"><path fill="none" stroke="#000" stroke-miterlimit="10" stroke-width=".39815" d="m.50781 113.48438 283.21887-56.64456"/></g><use xlink:href="#b" x="269.90826" y="78.16881"/><use xlink:href="#c" x="277.5528" y="78.16881"/><use xlink:href="#d" x="289.89555" y="78.16881"/><path fill="none" stroke="#000" stroke-miterlimit="10" stroke-width=".39815" d="M510.301 85.16405c0-31.28517-25.35939-56.64455-56.64456-56.64455-31.28126 0-56.64065 25.35938-56.64065 56.64455 0 31.28126 25.35939 56.64065 56.64065 56.64065 31.28517 0 56.64456-25.35939 56.64456-56.64065Zm0 0"/><g clip-path="url(#e)"><path fill="none" stroke="#000" stroke-miterlimit="10" stroke-width=".39815" d="M442.32831 198.44925 612.25807 28.5195"/></g><use xlink:href="#b" x="619.28499" y="49.84787"/><use xlink:href="#c" x="626.92953" y="49.84787"/><use xlink:href="#d" x="639.27228" y="49.84787"/><use xlink:href="#f" x="446.92356" y="89.8125"/><path fill="none" stroke="#000" stroke-miterlimit="10" stroke-width=".39815" d="M770.8636 141.8047h113.28521l-84.96488-84.96488Zm-56.64455-28.32032h226.57432"/><use xlink:href="#b" x="926.96363" y="102.70908"/><use xlink:href="#c" x="934.60817" y="102.70908"/><use xlink:href="#d" x="946.95092" y="102.70908"/></svg>