<svg xmlns="http://www.w3.org/2000/svg" xmlns:xlink="http://www.w3.org/1999/xlink" width="147.8pt" height="81.469pt" viewBox="0 0 147.8 81.469"><defs><clipPath id="a"><path d="M.3789 9H80v71.9414H.3789Zm0 0"/></clipPath><clipPath id="b"><path d="M68 0h79.22266v72H68Zm0 0"/></clipPath><path id="c" d="m1.75-1.3125.5.5 2.10938-2.10937L6.46875-.8125l.48438-.5-2.09375-2.09375 2.09375-2.10937-.48438-.5-2.10937 2.10937L2.25-6.01562l-.5.5 2.10938 2.10937Zm0 0"/><path id="d" d="M.39063-3.26562C.39063-1.28125 1.53125.1875 3.9375.1875c2.14063 0 3.1875-1.10937 3.85938-2.29687.65625-1.1875.76562-2.42188.76562-2.90625 0-2.48438-1.5-3.54688-3.5-3.54688-1.9375 0-3.125 1.0625-3.84375 2.23438C.54688-5.21875.39063-4.0625.39063-3.26562m1.26562.48437c0-1.01562.20313-2.15625.75-3.32812.5625-1.14063 1.42188-2.03125 2.70313-2.03125 1.32812 0 2.17187.78125 2.17187 2.5 0 .70312-.0625 1.6875-.5625 2.96875C6.21875-1.35937 5.39063-.25 3.82813-.25c-1.3125 0-2.17188-.84375-2.17188-2.53125m0 0"/></defs><g clip-path="url(#a)"><path fill="none" stroke="#000" stroke-miterlimit="10" stroke-width=".39592" d="m.57811 80.74607 73.24607-40.28514-36.6328-25.61718Zm0 0"/></g><g clip-path="url(#b)"><path fill="none" stroke="#000" stroke-miterlimit="10" stroke-width=".39592" d="M147.02727.19922 110.414 66.09764 73.82418 40.46093Zm0 0"/></g><use xlink:href="#c" x="69.47285" y="43.4657"/><use xlink:href="#d" x="69.35065" y="35.73508"/></svg>