<svg xmlns="http://www.w3.org/2000/svg" xmlns:xlink="http://www.w3.org/1999/xlink" width="142.131pt" height="78.351pt" viewBox="0 0 142.131 78.351"><defs><clipPath id="a"><path d="M.15234 8H77v69.70703H.15234Zm0 0"/></clipPath><clipPath id="b"><path d="M65 0h76.11719v70H65Zm0 0"/></clipPath><path id="c" d="m1.67188-1.26562.48437.48437 2.01563-2.01562L6.20313-.78125l.46875-.48437-2.01563-2 2.01563-2.03125-.46875-.46875L4.17188-3.75 2.15625-5.76562l-.48437.46875 2.03125 2.03125Zm0 0"/><path id="d" d="M.375-3.14062c0 1.92187 1.09375 3.3125 3.40625 3.3125 2.04688 0 3.04688-1.04688 3.6875-2.20313.625-1.125.73438-2.3125.73438-2.76562 0-2.39063-1.4375-3.40625-3.35938-3.40625-1.84375 0-3 1.01562-3.67187 2.125C.53125-5 .375-3.90625.375-3.14062m1.21875.46875c0-.96875.1875-2.0625.71875-3.17188s1.35938-1.95312 2.59375-1.95312c1.26563 0 2.07813.75 2.07813 2.39062 0 .67188-.0625 1.60938-.54688 2.84375-.46875 1.25-1.26562 2.32813-2.76562 2.32813-1.26563 0-2.07813-.8125-2.07813-2.4375m0 0"/></defs><g clip-path="url(#a)"><path fill="none" stroke="#000" stroke-miterlimit="10" stroke-width=".39523" d="m.35157 77.51173 70.28517-38.66016L35.4922 14.2539Zm0 0"/></g><g clip-path="url(#b)"><path fill="none" stroke="#000" stroke-miterlimit="10" stroke-width=".39523" d="m140.9219.1953-35.14453 63.25783-35.14063-24.60156Zm0 0"/></g><use xlink:href="#c" x="66.46064" y="41.73728"/><use xlink:href="#d" x="66.34262" y="34.31675"/></svg>