<svg xmlns="http://www.w3.org/2000/svg" xmlns:xlink="http://www.w3.org/1999/xlink" width="486.961pt" height="101.41pt" viewBox="0 0 486.961 101.41"><defs><path id="a" d="m1.75-1.3125.5.5 2.10938-2.10937L6.46875-.8125l.48438-.5-2.09375-2.09375 2.09375-2.10937-.48438-.5-2.10937 2.10937L2.25-6.01562l-.5.5 2.10938 2.10937Zm0 0"/><path id="b" d="M-.23437 0H2.5l.07813-.34375-.67188-.0625C1.75-.42187 1.6875-.5 1.6875-.625c0-.0625.03125-.14062.0625-.23437.40625-.78125.78125-1.5625 1.23438-2.375h2.71875L6-.73437s-.0625.29687-.32812.32812l-.64063.0625L4.96875 0H7.9375l.07813-.34375-.45313-.04687c-.375-.03125-.4375-.20313-.5-.70313L6.1875-8.375h-.875L3.28125-4.79687c-.60937 1.07812-1.625 2.875-2.07812 3.59375C.82813-.5625.625-.4375.25-.40625l-.40625.0625Zm3.46875-3.6875L5.20313-7.25l.4375 3.5625Zm0 0"/><path id="c" d="M.39063-3.26562C.39063-1.28125 1.53125.1875 3.9375.1875c2.14063 0 3.1875-1.10937 3.85938-2.29687.65625-1.1875.76562-2.42188.76562-2.90625 0-2.48438-1.5-3.54688-3.5-3.54688-1.9375 0-3.125 1.0625-3.84375 2.23438C.54688-5.21875.39063-4.0625.39063-3.26562m1.26562.48437c0-1.01562.20313-2.15625.75-3.32812.5625-1.14063 1.42188-2.03125 2.70313-2.03125 1.32812 0 2.17187.78125 2.17187 2.5 0 .70312-.0625 1.6875-.5625 2.96875C6.21875-1.35937 5.39063-.25 3.82813-.25c-1.3125 0-2.17188-.84375-2.17188-2.53125m0 0"/><path id="d" d="M.92188 0h2.84375v-.26562l-.6875-.0625c-.1875-.01563-.28125-.07813-.28125-.39063v-5L2.75-5.76562l-1.82812.3125v.21875l.73437.10937c.17188.01563.21875.07813.21875.34375v4.0625c0 .3125-.07812.375-.28125.39063l-.67187.0625Zm0 0"/><path id="e" d="M.25-.09375.34375 0H3.9375l.29688-1.20312-.25-.04688c-.20313.45313-.34375.51563-.6875.51563H1.125c.14063-.40625.59375-.98438 1.40625-1.53125C3.39063-2.84375 4-3.23437 4-4.17187c0-1.17188-.79687-1.59375-1.73437-1.59375-1.15625 0-1.8125.67187-1.8125 1.1875 0 .3125.34375.45312.53125.45312.15624 0 .23437-.09375.28124-.25.125-.60937.45313-1.07812.9375-1.07812C2.79688-5.45312 3-4.9375 3-4.3125 3-3.5 2.625-2.95312 1.82813-2.26562.75-1.34375.375-.73437.25-.09375m0 0"/></defs><use xlink:href="#a" x="165.82032" y="23.24277"/><use xlink:href="#b" x="157.31779" y="15.68674"/><use xlink:href="#a" x="92.53072" y="59.88758"/><use xlink:href="#c" x="78.42876" y="49.49902"/><use xlink:href="#d" x="86.99145" y="52.33084"/><use xlink:href="#a" x="312.39754" y="23.24277"/><use xlink:href="#c" x="321.29876" y="12.85421"/><use xlink:href="#e" x="329.86273" y="15.68733"/><use xlink:href="#a" x="19.24211" y="96.53138"/><use xlink:href="#b" x="5.68101" y="86.14282"/><use xlink:href="#d" x="13.70214" y="88.97594"/><use xlink:href="#a" x="458.97576" y="23.24277"/><use xlink:href="#b" x="467.87697" y="12.85421"/><use xlink:href="#e" x="475.8994" y="15.68733"/><path fill="none" stroke="#000" stroke-dasharray="2.9715545626 2.9715545626" stroke-miterlimit="10" stroke-width=".3962" d="m170.1719 20.23436-146.57817 73.293m146.57817-73.293h293.16025"/><path fill="none" stroke="red" stroke-miterlimit="10" stroke-width=".3962" d="m132.41407 35.79296 2.21485 5.53516M59.14061 72.4297l2.21485 5.53906m180.8399-54.75393.4961-5.9414m1.48437 5.9414.4961-5.9414m144.07426 5.9414.49609-5.9414m1.48437 5.9414.4961-5.9414"/></svg>