<svg xmlns="http://www.w3.org/2000/svg" xmlns:xlink="http://www.w3.org/1999/xlink" width="118.348pt" height="109.56pt" viewBox="0 0 118.348 109.56"><defs><path id="a" d="m1.75-1.3125.5.5 2.10938-2.10937L6.46875-.8125l.48438-.5-2.09375-2.09375 2.09375-2.10937-.48438-.5-2.10937 2.10937L2.25-6.01562l-.5.5 2.10938 2.10937Zm0 0"/><path id="b" d="M-.23437 0H2.5l.07813-.34375-.67188-.0625C1.75-.42187 1.6875-.5 1.6875-.625c0-.0625.03125-.14062.0625-.23437.40625-.78125.78125-1.5625 1.23438-2.375h2.71875L6-.73437s-.0625.29687-.32812.32812l-.64063.0625L4.96875 0H7.9375l.07813-.34375-.45313-.04687c-.375-.03125-.4375-.20313-.5-.70313L6.1875-8.375h-.875L3.28125-4.79687c-.60937 1.07812-1.625 2.875-2.07812 3.59375C.82813-.5625.625-.4375.25-.40625l-.40625.0625Zm3.46875-3.6875L5.20313-7.25l.4375 3.5625Zm0 0"/><path id="d" d="M0 0h3.67188C6.59375 0 7.1875-1.5 7.1875-2.51562c0-1.26563-.9375-1.82813-1.82812-1.98438l.01562-.03125c1.60938-.1875 2.28125-1.10937 2.28125-2.01562 0-.98438-.57812-1.82813-2.79687-1.82813h-3.0625l-.07813.35938.71875.0625c.20313.01562.29688.09375.29688.29687 0 .07813-.03125.17188-.0625.29688L1.25-1c-.09375.39063-.20312.53125-.5.57813l-.6875.07812Zm2.42188-.92187c0-.09376.01562-.1875.03125-.28126l.70312-3.09374H3.625c1.20313 0 2.26563.34375 2.26563 1.71875 0 1.07812-.65625 2.15625-2.28125 2.15625-.95313 0-1.1875-.20313-1.1875-.5M3.25-4.71875l.625-2.8125c.09375-.35937.15625-.42187.96875-.42187 1.01563 0 1.57813.51562 1.57813 1.35937 0 1.26563-1.04688 1.875-2.39063 1.875Zm0 0"/><path id="e" d="M1.04688-3.40625c0 2.71875.60937 5.71875 3.17187 5.82813V2.0625C3.35938 1.89063 2.01563.82813 2.01563-3.40625c0-4.21875 1.28125-5.28125 2.20312-5.48437V-9.25c-2.5625.10938-3.17187 3.10938-3.17187 5.84375m0 0"/><path id="f" d="M.90625-1.45312c0 .78125.23438 1.59375 1.20313 1.59375 1.39062 0 2.46875-1.48438 3.1875-2.78125h.01562l-.39062 1.4375c-.0625.25-.10938.46875-.10938.65625 0 .4375.20313.6875.64063.6875.95312 0 1.57812-.82813 1.98437-1.73438l-.28125-.17187c-.21875.42187-.75 1.28125-1.09375 1.28125-.14062 0-.1875-.09375-.1875-.23438 0-.125.03125-.26562.07813-.42187l1.90625-7.78125-.0625-.04688-2.15625.28125-.0625.28125.71875.0625c.1875.01563.26562.0625.26562.20313 0 .0625-.01562.17187-.04687.29687l-.46875 1.95313-.01563.01562c-.23437-.10937-.60937-.20312-1.01562-.20312-2.82813 0-4.10938 3.15625-4.10938 4.625m1.1875.09374c0-1.3125 1.0625-4.29687 2.98438-4.29687.375 0 .70312.125.84375.25-.17188.92188-.57813 2.07813-1.20313 3.07813-.57812.9375-1.375 1.84375-2.01562 1.84375-.39063 0-.60938-.32813-.60938-.875m0 0"/><path id="g" d="M.71875 2.0625v.35938c2.5625-.10938 3.1875-3.10938 3.1875-5.82813 0-2.73437-.625-5.73437-3.1875-5.84375v.35938C1.64063-8.6875 2.9375-7.625 2.9375-3.40625c0 4.23438-1.35937 5.29688-2.21875 5.46875m0 0"/><path id="c" d="M.375-.125c0 .04688.10938.125.21875.125.07813 0 .20313-.01562.23438-.07812l1.5-3.875c.0625-.125.0625-.1875.0625-.23438 0-.17187-.26563-.25-.53125-.25-.25 0-.65625.09375-.6875.26563Zm0 0"/></defs><use xlink:href="#a" x="13.31365" y="20.30493"/><use xlink:href="#b" x="4.29335" y="12.74756"/><use xlink:href="#a" x="86.62477" y="93.61704"/><use xlink:href="#b" x="95.52872" y="104.74772"/><use xlink:href="#c" x="104.35131" y="99.5956"/><use xlink:href="#a" x="68.29674" y="38.63296"/><use xlink:href="#d" x="59.63745" y="31.0746"/><use xlink:href="#e" x="95.52872" y="31.09648"/><use xlink:href="#f" x="100.47482" y="31.09648"/><use xlink:href="#g" x="108.46071" y="31.09648"/><path fill="none" stroke="red" stroke-miterlimit="10" stroke-width=".39632" d="m59.5039 48.76953-5.17968-5.1836-5.1836 5.1836"/><path fill="none" stroke="#000" stroke-miterlimit="10" stroke-width=".39632" d="m17.66797 90.60937 73.3125-73.3125m-73.3125.00001 73.3125 73.3125"/><path fill="none" stroke="red" stroke-miterlimit="10" stroke-width=".39632" d="m33.72266 37.55469 4.55468-3.85156m32.09376 40.5039 4.55468-3.85547"/></svg>