<svg xmlns="http://www.w3.org/2000/svg" xmlns:xlink="http://www.w3.org/1999/xlink" width="172.307pt" height="135.973pt" viewBox="0 0 172.307 135.973"><defs><path id="a" d="m2.70313-2.03125.76562.78125L6.70313-4.5l3.26562 3.25.75-.78125-3.23437-3.23437 3.23437-3.25-.75-.75-3.26562 3.23437-3.23438-3.23437-.76562.75 3.25 3.25Zm0 0"/><path id="b" d="M-.35937 0h4.20312l.125-.53125L2.9375-.64062c-.23437-.01563-.34375-.14063-.34375-.3125 0-.09376.04688-.23438.10938-.375.60937-1.1875 1.20312-2.40625 1.90625-3.65625h4.1875L9.25-1.125s-.10937.45313-.5.48438l-.98437.10937L7.65625 0H12.25l.10938-.53125-.71875-.0625c-.5625-.0625-.64063-.3125-.75-1.09375L9.53125-12.90625H8.20313l-3.14063 5.5c-.95312 1.67188-2.5 4.45313-3.20312 5.5625C1.26563-.875.95313-.67187.375-.60937l-.60937.07812Zm5.34375-5.6875 3.03125-5.48437.67187 5.48437Zm0 0"/><path id="c" d="M.59375-5.04687c0 3.07812 1.76563 5.32812 5.48438 5.32812C9.35938.28125 10.96875-1.40625 12-3.25c1.01563-1.82812 1.20313-3.73437 1.20313-4.46875 0-3.82812-2.32813-5.48437-5.40625-5.48437-2.96875 0-4.8125 1.65625-5.90625 3.4375C.85938-8.03125.59375-6.26562.59375-5.04687m1.96875.76562c0-1.57812.29688-3.3125 1.14063-5.125.85937-1.76562 2.1875-3.14062 4.17187-3.14062 2.04688 0 3.35938 1.21875 3.35938 3.85937 0 1.0625-.10938 2.59375-.875 4.57813-.78125 2-2.04688 3.73437-4.46875 3.73437C3.875-.375 2.5625-1.6875 2.5625-4.28125m0 0"/><path id="d" d="M.57813-.70312c0 .0625.15624.1875.34375.1875.10937 0 .3125-.03126.34375-.10938l2.32812-5.96875c.09375-.20312.09375-.3125.09375-.35937 0-.28125-.42187-.39063-.82812-.39063-.39063 0-1.01563.14063-1.04688.39063Zm0 0"/></defs><use xlink:href="#a" x="19.71869" y="16.14102"/><use xlink:href="#b" x="6.6144" y="31.41857"/><use xlink:href="#a" x="76.18459" y="72.60692"/><use xlink:href="#c" x="75.99536" y="60.68387"/><use xlink:href="#a" x="132.6495" y="129.07282"/><use xlink:href="#b" x="146.36932" y="117.42765"/><use xlink:href="#d" x="159.96265" y="109.48958"/><path fill="none" stroke="#000" stroke-miterlimit="10" stroke-width=".3969" d="M26.4258 11.50782 139.35935 124.4414"/><path fill="none" stroke="red" stroke-miterlimit="10" stroke-width=".3969" d="M50.63282 39.6836h7.9375m48.52733 56.46483h7.9375"/></svg>