<svg xmlns="http://www.w3.org/2000/svg" xmlns:xlink="http://www.w3.org/1999/xlink" width="410.914pt" height="112.354pt" viewBox="0 0 410.914 112.354"><defs><path id="a" d="m2.6875-2.01562.78125.76562L6.70313-4.5l3.25 3.25.75-.76562L7.46875-5.25l3.23438-3.25-.75-.75-3.25 3.23438L3.46875-9.25l-.78125.75 3.25 3.25Zm0 0"/><path id="b" d="M0 0h4.39063L4.5-.53125l-.73437-.0625c-.5625-.04687-.85938-.17187-.85938-.57812 0-.98438.1875-1.54688.40625-2.53125l1.70313-7.59375h.03125l2.25 11.07812h.51562l7.25-11.07812h.03125l-2.28125 9.75c-.15625.64062-.32812.85937-.78125.89062l-1.01562.125-.125.53125h5.07812l.09375-.53125-1.07812-.125C14.64063-.67187 14.5-.82812 14.5-1.125c0-.125.01563-.26562.0625-.42187l2.23438-9.78125c.15624-.64063.29687-.89063.78124-.9375l1.03126-.07813.14062-.53125h-3.65625C14.10938-11.17187 13-9.51562 11.875-7.78125L8.57813-2.75h-.0625L7.46875-7.92187c-.375-1.6875-.75-3.29688-1.0625-4.95313H2.79688l-.125.53125 1.09375.09375c.3125.03125.46875.1875.46875.5q0 .1875-.04688.42188l-1.76562 7.625c-.21875.98437-.4375 1.70312-.65625 2.3125-.21876.59375-.5625.73437-1.09375.79687l-.57813.0625Zm0 0"/><path id="c" d="M0 0h4.39063L4.5-.53125l-.73437-.0625c-.5625-.04687-.85938-.15625-.85938-.5625 0-.98437.1875-1.5625.40625-2.54687l1.73438-7.625h.0625C6.85938-7.54687 8.57813-3.78125 10.28125 0h1.20313l2.09375-9.17187c.21875-.98438.42187-1.70313.64062-2.3125.21875-.59375.5625-.73438 1.10938-.79688l.57812-.0625.10938-.53125h-4.40626l-.09375.53125.73438.07813c.54688.0625.85938.23437.85938.65625 0 .67187-.1875 1.45312-.40625 2.4375L11.17188-2.4375h-.07813c-1.60937-3.48437-3.1875-6.95312-4.75-10.4375H2.79688l-.125.53125 1.09375.09375c.3125.03125.46875.1875.46875.5q0 .1875-.04688.42188l-1.76562 7.625c-.21875.98437-.4375 1.70312-.65625 2.3125-.21876.59375-.53125.73437-1.09375.79687l-.57813.0625Zm0 0"/><path id="d" d="M.59375-5.03125c0 3.0625 1.76563 5.3125 5.46875 5.3125 3.28125 0 4.89063-1.6875 5.92188-3.53125C13-5.07812 13.17188-6.96875 13.17188-7.70312c0-3.82813-2.3125-5.46875-5.39063-5.46875-2.96875 0-4.8125 1.64062-5.90625 3.42187C.85938-8.03125.59375-6.26562.59375-5.03125m1.96875.75c0-1.5625.29688-3.3125 1.14063-5.10937.85937-1.76563 2.1875-3.125 4.15625-3.125 2.04687 0 3.35937 1.20312 3.35937 3.84375 0 1.0625-.10937 2.59375-.875 4.57812-.78125 2-2.04687 3.71875-4.45312 3.71875-2.03125 0-3.32813-1.3125-3.32813-3.90625m0 0"/><path id="f" d="M.75-1.90625c0 .85938 1.3125 2.125 3.73438 2.125C7.54688.21875 8.9375-1.64062 8.9375-4c0-2.625-1.625-3.9375-3.84375-3.9375-1.03125 0-2.15625.45313-2.75.98438L2.75-10.48437c.0625-.46875.1875-.53125.53125-.53125h4.64063l.45312-1.26563-.09375-.15625H2.0625l-.1875.17188L1.5-6.04687l.46875.23437C2.73438-6.70312 3.48438-7.125 4.5-7.125c1.1875 0 2.5.85938 2.5 3.32813C7-1.875 6.21875-.4375 4.59375-.4375c-1.3125 0-1.95312-.92187-2.32812-2-.10938-.28125-.28125-.45312-.54688-.45312-.375 0-.96875.375-.96875.98437m0 0"/><path id="e" d="M.57813-.70312c0 .0625.15624.1875.34375.1875.10937 0 .3125-.03126.34375-.10938l2.32812-5.96875c.07813-.1875.09375-.29687.09375-.35937 0-.28125-.42187-.39063-.82812-.39063-.39063 0-1.01563.15625-1.0625.40625Zm0 0"/><path id="g" d="M.90625-4.48437c0 3.125 1.53125 4.70312 4.32813 4.70312 1.29687 0 3.0625-.67187 3.57812-2.67187l-.54687-.26563C7.6875-1.40625 6.95313-.75 5.59375-.75 3.375-.75 2.85938-3.07812 2.85938-4.8125c0-2.78125 1.07812-3.89062 2.375-3.89062.84375 0 1.39062.625 1.76562 1.625.10938.29687.23438.48437.59375.48437.375 0 1.07813-.23437 1.07813-.95312 0-.85938-1.21875-1.79688-3.25-1.79688-3.375 0-4.51563 2.39063-4.51563 4.85938m0 0"/><path id="h" d="M.59375 0H5.125v-.53125C3.79688-.64062 3.75-.67187 3.75-1.625v-4.35937c0-.46875 0-.73438.14063-.98438.34375-.76562 1.15625-1.375 2.1875-1.375 1.60937 0 1.8125 1.17188 1.8125 2.32813V-1.625c0 .95313-.0625.98438-1.40625 1.09375V0h4.53125v-.53125C9.6875-.64062 9.625-.67187 9.625-1.625v-4.35937c0-.46875.03125-.71875.14063-1.01563.28125-.75 1.07812-1.34375 2.125-1.34375 1.17187 0 1.875.65625 1.875 2.32813V-1.625c0 .95313-.0625.98438-1.40625 1.09375V0h4.5625v-.53125c-1.32813-.10937-1.40626-.14062-1.40626-1.09375v-4.75c0-1.89062-1.01562-2.96875-2.78124-2.96875-1.51563 0-2.60938 1-3.26563 1.42188C9.01563-8.79687 8.29688-9.34375 7-9.34375c-1.4375 0-2.60937.9375-3.25 1.42188l-.1875-1.42188-2.875.46875v.45313l.70313.09375C1.85938-8.23437 2-8.15625 2-7.48437V-1.625C2-.67187 1.9375-.64062.59375-.53125Zm0 0"/></defs><use xlink:href="#a" x="26.18476" y="59.2901"/><use xlink:href="#b" x="7.73484" y="47.66494"/><use xlink:href="#a" x="195.29145" y="31.10615"/><use xlink:href="#c" x="208.98671" y="19.48099"/><use xlink:href="#a" x="195.29145" y="59.2901"/><use xlink:href="#d" x="181.21936" y="74.83771"/><use xlink:href="#a" x="364.39814" y="59.2901"/><use xlink:href="#b" x="378.09339" y="76.92471"/><use xlink:href="#e" x="398.06258" y="68.99828"/><use xlink:href="#a" x="195.29145" y="87.47405"/><use xlink:href="#c" x="172.72222" y="105.10866"/><use xlink:href="#e" x="189.95911" y="97.18422"/><path fill="none" stroke="red" stroke-miterlimit="10" stroke-width=".39622" d="m203.3906 41.97266-2.80079-2.80078m0 28.18359 2.80078 2.80078M118.92186 52.6836l-1.98047 3.96093m.49219-3.96094-1.98047 3.96094m169.60544 0 1.98047-3.96094m-.4961 3.96094 1.98047-3.96094"/><use xlink:href="#f" x="97.2074" y="21.31843"/><use xlink:href="#g" x="111.25265" y="21.31843"/><use xlink:href="#h" x="120.48474" y="21.31843"/><path fill="none" stroke="#000" stroke-dasharray="2.9717338924 2.9717338924" stroke-miterlimit="10" stroke-width=".09905" d="M32.88281 54.66406H371.0976M201.98825 26.48047v56.36718"/><path fill="none" stroke="#000" stroke-miterlimit="10" stroke-width=".39622" d="m32.88281 54.66406 169.10544-28.18359M371.0976 54.66406l-169.10935 28.1836"/></svg>