<svg xmlns="http://www.w3.org/2000/svg" xmlns:xlink="http://www.w3.org/1999/xlink" width="90.055pt" height="105.788pt" viewBox="0 0 90.055 105.788"><defs><path id="b" d="m1.67188-1.25.48437.46875 2.01563-2.01562L6.1875-.78125 6.65625-1.25 4.64063-3.26562l2.01562-2.01563L6.1875-5.75l-2.01562 2-2.01563-2-.48437.46875 2.03125 2.01563Zm0 0"/><path id="c" d="M.375-3.125C.375-1.21875 1.46875.17188 3.76563.17188c2.04687 0 3.04687-1.04688 3.6875-2.1875.64062-1.14063.75-2.32813.75-2.78125 0-2.375-1.45313-3.40625-3.35938-3.40625-1.84375 0-3 1.03125-3.67187 2.14062C.53125-5 .375-3.89062.375-3.125m1.21875.46875c0-.98437.1875-2.0625.71875-3.1875.51563-1.09375 1.34375-1.95312 2.57813-1.95312 1.28125 0 2.09375.75 2.09375 2.39062 0 .67188-.0625 1.625-.54688 2.85938-.48437 1.23437-1.26562 2.3125-2.78125 2.3125-1.25 0-2.0625-.8125-2.0625-2.42188m0 0"/><clipPath id="a"><path d="M0 .44531h76V77H0Zm0 0"/></clipPath></defs><g clip-path="url(#a)"><path fill="none" stroke="#000" stroke-miterlimit="10" stroke-width=".39436" d="M70.3319 35.70704c0-19.36718-15.6992-35.0664-35.06638-35.0664S.19912 16.33987.19912 35.70705s15.69922 35.0664 35.0664 35.0664S70.3319 55.07421 70.3319 35.70703Zm0 0"/></g><use xlink:href="#b" x="76.68134" y="91.18222"/><use xlink:href="#c" x="67.92819" y="100.85373"/><use xlink:href="#b" x="31.09668" y="38.58416"/></svg>