<svg xmlns="http://www.w3.org/2000/svg" xmlns:xlink="http://www.w3.org/1999/xlink" width="961.771pt" height="244.178pt" viewBox="0 0 961.771 244.178"><defs><path id="b" d="M1.60938-5.26562c0 4.21875.95312 8.84375 4.90625 9v-.5625c-1.32813-.25-3.42188-1.90625-3.42188-8.4375 0-6.48438 1.98438-8.14063 3.42188-8.4375v-.5625c-3.95313.17187-4.90625 4.79687-4.90625 9m0 0"/><path id="c" d="M1.39063-2.25C1.39063-1.03125 1.75.21875 3.25.21875c2.15625 0 3.8125-2.28125 4.90625-4.29687h.04688l-.60938 2.23437c-.10937.375-.17187.71875-.17187.98438 0 .70312.32812 1.07812.98437 1.07812 1.46875 0 2.4375-1.26562 3.07813-2.6875l-.4375-.25C10.70313-2.0625 9.875-.75 9.35938-.75c-.21875 0-.29688-.14062-.29688-.35937 0-.1875.04688-.40625.10938-.65625l2.9375-12-.09375-.07813-3.3125.4375-.10938.4375 1.125.09375c.29688.03125.40625.10938.40625.32813 0 .09375-.01562.25-.07812.45312l-.71875 3-.03125.03125c-.35938-.17187-.9375-.3125-1.57813-.3125-4.34375 0-6.32812 4.85938-6.32812 7.125m1.84375.17188c0-2.03125 1.625-6.64063 4.60937-6.64063.57813 0 1.07813.17188 1.29688.375-.28125 1.4375-.90625 3.20313-1.85938 4.75C6.39063-2.14062 5.15625-.75 4.17188-.75c-.59375 0-.9375-.5-.9375-1.32812m0 0"/><path id="d" d="M1.10938 3.17188v.5625c3.95312-.15625 4.90625-4.78125 4.90625-9 0-4.20313-.95313-8.82813-4.90625-9v.5625c1.4375.29687 3.42187 1.95312 3.42187 8.4375 0 6.53125-2.09375 8.1875-3.42187 8.4375m0 0"/><path id="e" d="m2.70313-2.03125.76562.78125 3.25-3.26562 3.25 3.26562.75-.78125-3.23437-3.23437 3.23437-3.25-.75-.76563-3.25 3.25-3.25-3.25-.76562.76563 3.25 3.25Zm0 0"/><clipPath id="a"><path d="M1.5 51H290v68H1.5Zm0 0"/></clipPath><clipPath id="f"><path d="M493 124h125v119.35938H493Zm0 0"/></clipPath></defs><path fill="none" stroke="#000" stroke-miterlimit="10" stroke-width=".39717" d="M58.19922 101.90234 171.20705 39.75 114.70314.1953Zm0 0"/><g clip-path="url(#a)"><path fill="none" stroke="#000" stroke-miterlimit="10" stroke-width=".39717" d="M1.69922 113.20313 284.21487 56.6992"/></g><use xlink:href="#b" x="270.42998" y="77.9755"/><use xlink:href="#c" x="278.05561" y="77.9755"/><use xlink:href="#d" x="290.36784" y="77.9755"/><path fill="none" stroke="#000" stroke-miterlimit="10" stroke-width=".39717" d="m58.19532 101.90625 128.20704 13.91016-36.9414 58.23438Zm452.03129-16.95313c0-31.20703-25.29687-56.50391-56.5-56.50391-31.20704 0-56.50391 25.29688-56.50391 56.50391 0 31.20704 25.29687 56.50391 56.5039 56.50391 31.20314 0 56.50001-25.29687 56.50001-56.5039Zm-67.80078 113.00783L611.93366 28.4492"/><use xlink:href="#b" x="618.94274" y="49.72361"/><use xlink:href="#c" x="626.56838" y="49.72361"/><use xlink:href="#d" x="638.88061" y="49.72361"/><use xlink:href="#e" x="447.00755" y="89.58941"/><g clip-path="url(#f)"><path fill="none" stroke="#000" stroke-miterlimit="10" stroke-width=".39717" d="M555.42974 130.15625c31.20704 0 56.50392 25.29688 56.50392 56.50391 0 31.20313-25.29688 56.50001-56.50392 56.50001-31.20312 0-56.5-25.29688-56.5-56.5 0-31.20704 25.29688-56.50392 56.5-56.50392Zm0 0"/></g><use xlink:href="#e" x="548.71217" y="191.29403"/><path fill="none" stroke="#000" stroke-miterlimit="10" stroke-width=".39717" d="M770.14461 141.45703h113.00782l-84.75782-84.75782Zm-56.50391-28.2539h226.01565"/><use xlink:href="#b" x="925.86054" y="102.4541"/><use xlink:href="#c" x="933.48617" y="102.4541"/><use xlink:href="#d" x="945.7984" y="102.4541"/><path fill="none" stroke="#000" stroke-miterlimit="10" stroke-width=".39717" d="M770.14461 84.95312h113.00782l-84.75782 84.75392Zm0 0"/></svg>