<svg xmlns="http://www.w3.org/2000/svg" xmlns:xlink="http://www.w3.org/1999/xlink" width="468.15pt" height="97.496pt" viewBox="0 0 468.15 97.496"><defs><path id="a" d="m1.6875-1.26562.48438.48437L4.1875-2.8125 6.21875-.78125l.46875-.48437-2.01562-2.01563L6.6875-5.3125l-.46875-.46875L4.1875-3.76562 2.17188-5.78125l-.48438.46875 2.03125 2.03125Zm0 0"/><path id="b" d="M-.21875 0h2.625l.07813-.32812-.65625-.0625C1.6875-.40625 1.625-.48437 1.625-.59375c0-.0625.01563-.15625.0625-.23437.375-.75.75-1.5 1.1875-2.28125h2.60938l.29687 2.40625s-.0625.28124-.3125.3125l-.625.0625L4.78125 0h2.85938l.07812-.32812L7.26563-.375c-.35938-.03125-.40625-.1875-.46875-.67187l-.84375-7H5.125L3.15625-4.625c-.59375 1.04688-1.5625 2.78125-1.98437 3.46875-.375.60938-.57813.73438-.9375.76563l-.39063.0625Zm3.32813-3.5625L5-6.96875l.42188 3.40625Zm0 0"/><path id="c" d="M.375-3.14062c0 1.90625 1.09375 3.3125 3.42188 3.3125C5.84375.17188 6.85938-.875 7.5-2.03125c.625-1.14062.73438-2.32812.73438-2.78125 0-2.40625-1.4375-3.42187-3.35938-3.42187-1.85937 0-3.01562 1.01562-3.70312 2.14062C.53125-5.01562.375-3.92187.375-3.14062m1.21875.46875c0-.98438.1875-2.07813.71875-3.20313.53125-1.09375 1.375-1.95312 2.60938-1.95312 1.26562 0 2.09375.75 2.09375 2.40625 0 .65625-.0625 1.625-.54688 2.85937C5.98438-1.3125 5.1875-.23437 3.6875-.23437c-1.26562 0-2.09375-.8125-2.09375-2.4375m0 0"/><path id="d" d="M.89063 0h2.71875v-.25l-.64063-.0625c-.1875-.01562-.26562-.07812-.26562-.375V-5.5l-.0625-.04687-1.75.29687v.21875l.70312.09375c.15625.03125.20313.09375.20313.34375V-.6875c0 .29688-.07813.35938-.26563.375L.89063-.25Zm0 0"/><path id="e" d="M.23438-.09375.32813 0h3.45312l.29688-1.15625-.25-.04687c-.1875.4375-.32813.48437-.65625.48437H1.07813c.14062-.375.5625-.92187 1.35937-1.45312.82813-.5625 1.40625-.9375 1.40625-1.82813 0-1.14062-.76562-1.54687-1.67187-1.54687-1.10938 0-1.73438.64062-1.73438 1.14062 0 .29688.32813.4375.5.4375.15625 0 .23438-.09375.28125-.25.125-.5625.42188-1.01562.90625-1.01562.57813 0 .75.48437.75 1.07812 0 .79688-.34375 1.3125-1.10937 1.96875C.71875-1.29687.35938-.70312.23438-.09375m0 0"/></defs><use xlink:href="#a" x="158.96229" y="22.36339"/><use xlink:href="#b" x="150.78158" y="15.09298"/><use xlink:href="#a" x="88.46075" y="57.61417"/><use xlink:href="#c" x="74.89189" y="47.61884"/><use xlink:href="#d" x="83.13055" y="50.34475"/><use xlink:href="#a" x="299.96638" y="22.36339"/><use xlink:href="#c" x="308.5311" y="12.36806"/><use xlink:href="#e" x="316.76976" y="15.09397"/><use xlink:href="#a" x="17.9582" y="92.86494"/><use xlink:href="#b" x="4.91065" y="82.86961"/><use xlink:href="#d" x="12.62826" y="85.59552"/><use xlink:href="#a" x="440.97047" y="22.36339"/><use xlink:href="#b" x="449.53519" y="12.36806"/><use xlink:href="#e" x="457.25279" y="15.09397"/><path fill="none" stroke="#000" stroke-dasharray="2.9734674138 2.9734674138" stroke-miterlimit="10" stroke-width=".39645" d="M163.15233 19.46876 22.14454 89.97266m141.00779-70.5039h282.01168"/><path fill="none" stroke="red" stroke-miterlimit="10" stroke-width=".39645" d="m129.17968 33.32032-2.5039 7.52343M58.6797 68.57031l-2.50782 7.52344M230.67967 23.4336l3.96484-7.92969m-.99219 7.92969 3.96485-7.92969m134.07029 7.92969 3.96484-7.92969m-.99218 7.92969 3.96484-7.92969"/></svg>