<svg xmlns="http://www.w3.org/2000/svg" xmlns:xlink="http://www.w3.org/1999/xlink" width="828.115pt" height="187.485pt" viewBox="0 0 828.115 187.485"><defs><clipPath id="a"><path d="M.6914 79H120v107.97266H.6914Zm0 0"/></clipPath><clipPath id="d"><path d="M707 22h119.53906v97H707Zm0 0"/></clipPath><path id="b" d="m2.70313-2.03125.78125.78125 3.23437-3.26562L9.98438-1.25l.75-.78125L7.5-5.26562l3.23438-3.26563-.75-.75-3.26563 3.23438-3.23437-3.23438-.78125.75 3.26562 3.26563Zm0 0"/><path id="c" d="M.59375-5.04687c0 3.07812 1.76563 5.32812 5.48438 5.32812 3.29687 0 4.90625-1.6875 5.95312-3.54687 1-1.82813 1.1875-3.73438 1.1875-4.46875 0-3.82813-2.32812-5.48438-5.40625-5.48438-2.98437 0-4.82812 1.65625-5.92187 3.4375C.85938-8.04687.59375-6.28125.59375-5.04687m1.96875.75c0-1.5625.29688-3.3125 1.15625-5.125.85938-1.76563 2.1875-3.14063 4.17188-3.14063 2.04687 0 3.35937 1.21875 3.35937 3.85938 0 1.07812-.09375 2.59375-.875 4.59375S8.32813-.375 5.90625-.375C3.875-.375 2.5625-1.6875 2.5625-4.29687m0 0"/></defs><g clip-path="url(#a)"><path fill="none" stroke="#000" stroke-miterlimit="10" stroke-width=".39741" d="m.89065 186.77347 113.07816-62.19142L57.42973 85.0039Zm0 0"/></g><use xlink:href="#b" x="107.25026" y="129.22104"/><use xlink:href="#c" x="107.06178" y="117.28284"/><path fill="none" stroke="#000" stroke-miterlimit="10" stroke-width=".39741" d="M453.1994 56.73436c0-31.22657-25.3125-56.53908-56.53908-56.53908s-56.53908 25.31251-56.53908 56.53908 25.3125 56.53909 56.53908 56.53909 56.53908-25.31251 56.53908-56.53909Zm0 0"/><use xlink:href="#b" x="463.43786" y="146.18245"/><use xlink:href="#c" x="449.32363" y="161.77662"/><use xlink:href="#b" x="389.93875" y="61.37541"/><g clip-path="url(#d)"><path fill="none" stroke="#000" stroke-miterlimit="10" stroke-width=".39741" d="M713.27372 113.27345h113.07816l-84.80862-84.80863Zm0 0"/></g><use xlink:href="#b" x="734.81841" y="89.64476"/><use xlink:href="#c" x="748.55467" y="105.23892"/></svg>