<svg xmlns="http://www.w3.org/2000/svg" xmlns:xlink="http://www.w3.org/1999/xlink" width="112.014pt" height="88.397pt" viewBox="0 0 112.014 88.397"><defs><path id="a" d="m1.75-1.3125.5.5 2.09375-2.10937L6.45313-.8125l.48437-.5-2.09375-2.09375L6.9375-5.51562 6.45313-6 4.34375-3.90625 2.25-6l-.5.48438 2.10938 2.10937Zm0 0"/><path id="b" d="M-.23437 0h2.71875l.07812-.34375-.65625-.0625C1.75-.42187 1.6875-.5 1.6875-.60937c0-.07813.01563-.15626.0625-.25.39063-.76563.78125-1.5625 1.23438-2.35938H5.6875l.29688 2.48438s-.0625.29687-.3125.32812l-.65625.0625L4.95313 0h2.96875L8-.34375l-.45312-.04687c-.375-.03125-.4375-.20313-.5-.70313l-.875-7.25h-.875L3.28125-4.79687c-.625 1.07812-1.625 2.89062-2.07812 3.60937-.375.625-.59375.75-.95313.79688l-.40625.04687Zm3.45312-3.6875L5.1875-7.23437 5.625-3.6875Zm0 0"/><path id="c" d="M.39063-3.26562c0 2 1.14062 3.45312 3.54687 3.45312 2.125 0 3.17188-1.09375 3.82813-2.29687.65625-1.17188.78125-2.40625.78125-2.89063 0-2.46875-1.51563-3.54687-3.5-3.54687-1.92188 0-3.125 1.07812-3.82813 2.23437-.67187 1.10938-.82812 2.25-.82812 3.04688m1.26562.48437c0-1 .1875-2.14062.75-3.3125C2.95313-7.23437 3.8125-8.125 5.09375-8.125c1.32813 0 2.17188.79688 2.17188 2.5 0 .6875-.0625 1.6875-.5625 2.96875C6.20313-1.35937 5.375-.25 3.8125-.25 2.5-.25 1.65625-1.09375 1.65625-2.78125m0 0"/><path id="d" d="M.375-.125c0 .04688.09375.125.21875.125.07813 0 .20313-.01562.21875-.07812L2.32813-3.9375c.04687-.125.0625-.1875.0625-.23437 0-.17188-.28125-.25-.54688-.25-.25 0-.65625.09375-.67187.26562Zm0 0"/></defs><use xlink:href="#a" x="12.75572" y="10.36135"/><use xlink:href="#b" x="4.27933" y="20.24436"/><use xlink:href="#a" x="49.29211" y="46.89774"/><use xlink:href="#c" x="49.17018" y="39.18463"/><use xlink:href="#a" x="85.8285" y="83.43314"/><use xlink:href="#b" x="94.70338" y="75.89945"/><use xlink:href="#d" x="103.49717" y="70.76416"/><path fill="none" stroke="#000" stroke-miterlimit="10" stroke-width=".39502" d="m17.09376 7.3633 73.0742 73.07419"/><path fill="none" stroke="red" stroke-miterlimit="10" stroke-width=".39502" d="m33.09766 27.5547 4.53906-3.83985M69.6289 64.08593l4.53906-3.83984"/></svg>