<svg xmlns="http://www.w3.org/2000/svg" xmlns:xlink="http://www.w3.org/1999/xlink" width="193.831pt" height="152.956pt" viewBox="0 0 193.831 152.956"><defs><path id="a" d="m3.04688-2.28125.875.875L7.5625-5.07812l3.67188 3.67187.85937-.875L8.4375-5.9375l3.65625-3.67187-.85937-.84375L7.5625-6.8125l-3.64062-3.64062-.875.84375L6.71875-5.9375Zm0 0"/><path id="b" d="M-.40625 0h4.75l.14063-.60937L3.3125-.71875c-.26562-.01562-.375-.15625-.375-.35937 0-.10938.04688-.26563.10938-.42188.6875-1.34375 1.35937-2.70312 2.14062-4.125h4.73438l.51562 4.34375s-.10937.51563-.5625.5625L8.75-.60937 8.64063 0h5.17187l.14063-.60937-.8125-.0625c-.64063-.0625-.73438-.35938-.84375-1.23438L10.75-14.54687h-1.5l-3.54687 6.1875c-1.0625 1.89062-2.8125 5.01562-3.59375 6.28125C1.4375-.98437 1.07813-.76562.42188-.6875l-.6875.07813ZM5.625-6.42187l3.42188-6.1875.76562 6.1875Zm0 0"/><path id="c" d="M.67188-5.6875c0 3.46875 2 6 6.17187 6 3.71875 0 5.53125-1.90625 6.70313-3.98437 1.14062-2.0625 1.34375-4.20313 1.34375-5.03125 0-4.32813-2.625-6.1875-6.09375-6.1875-3.35938 0-5.4375 1.85937-6.67188 3.875C.96875-9.0625.67188-7.07812.67188-5.6875m2.21875.84375c0-1.76562.32812-3.73437 1.29687-5.76562.96875-2 2.46875-3.54688 4.70313-3.54688 2.29687 0 3.78125 1.375 3.78125 4.34375 0 1.21875-.10938 2.9375-.98438 5.17188C10.8125-2.375 9.375-.42187 6.65625-.42187c-2.29687 0-3.76562-1.48438-3.76562-4.42188m0 0"/><path id="d" d="M.65625-.79687c0 .07812.17188.21874.375.21874.125 0 .35938-.03124.39063-.125L4.0625-7.4375c.09375-.21875.10938-.34375.10938-.42187 0-.3125-.48438-.4375-.9375-.4375-.4375 0-1.15625.17187-1.20313.45312Zm0 0"/></defs><use xlink:href="#a" x="22.2526" y="17.96901"/><use xlink:href="#b" x="7.46449" y="35.20898"/><use xlink:href="#a" x="85.97004" y="81.68546"/><use xlink:href="#c" x="85.75723" y="68.23019"/><use xlink:href="#a" x="149.68749" y="145.40291"/><use xlink:href="#b" x="165.16999" y="132.26036"/><use xlink:href="#d" x="180.51061" y="123.30192"/><path fill="none" stroke="#000" stroke-miterlimit="10" stroke-width=".39815" d="M29.82421 12.73827 157.25782 140.1758"/><path fill="none" stroke="red" stroke-miterlimit="10" stroke-width=".39815" d="M57.67187 44.5703h7.96094m55.75782 63.71486h7.96094"/></svg>