<svg xmlns="http://www.w3.org/2000/svg" xmlns:xlink="http://www.w3.org/1999/xlink" width="268.329pt" height="72.702pt" viewBox="0 0 268.329 72.702"><defs><path id="a" d="m1.75-1.3125.51563.5 2.09375-2.125 2.125 2.125.48437-.5-2.10937-2.10937 2.10937-2.10938-.48437-.5-2.125 2.10938-2.09375-2.10938-.51563.5 2.125 2.10938Zm0 0"/><path id="b" d="M0 0h2.85938l.07812-.34375-.48437-.04687c-.35938-.01563-.5625-.10938-.5625-.375 0-.64063.125-1 .26562-1.64063l1.10938-4.95312h.03125L4.75-.14062h.32813L9.8125-7.35937h.01563L8.34375-1c-.09375.40625-.21875.54688-.51562.57813l-.65625.07812L7.09375 0h3.3125l.0625-.34375L9.75-.42187c-.21875-.01563-.29687-.125-.29687-.3125 0-.07813 0-.17188.03125-.26563l1.45312-6.375c.10938-.42187.20313-.59375.51563-.60937l.67187-.0625.07813-.34375h-2.375C9.1875-7.28125 8.46875-6.1875 7.73438-5.07812L5.59375-1.79687h-.04687l-.6875-3.35938C4.625-6.26562 4.375-7.3125 4.17188-8.39062H1.8125l-.0625.34375.70313.07812c.20312 0 .3125.10938.3125.3125q0 .1172-.04688.28125L1.57813-2.40625c-.14063.64063-.28126 1.10938-.42188 1.5C1-.51562.78125-.42187.4375-.39062l-.375.04687Zm0 0"/><path id="c" d="M0 0h2.85938l.07812-.34375-.48437-.04687c-.35938-.01563-.5625-.09375-.5625-.35938 0-.64062.125-1.01562.26562-1.65625L3.29688-7.375h.03125C4.46875-4.92187 5.59375-2.46875 6.70313 0h.78125l1.35937-5.96875c.14063-.65625.28125-1.10937.42188-1.51562C9.40625-7.875 9.625-7.96875 9.98438-8l.375-.04687.0625-.34375H7.5625L7.5-8.04687l.46875.0625c.375.03125.57813.15625.57813.42187 0 .4375-.125.9375-.28125 1.59375l-.98438 4.375h-.04687C6.1875-3.85937 5.15625-6.125 4.125-8.39062H1.8125l-.0625.34375.70313.07812c.20312 0 .3125.10938.3125.3125q0 .1172-.04688.28125L1.57813-2.40625c-.14063.64063-.28126 1.10938-.42188 1.5C1-.51562.79688-.42187.4375-.39062l-.375.04687Zm0 0"/><path id="d" d="M.39063-3.28125c0 2 1.14062 3.46875 3.5625 3.46875 2.14062 0 3.1875-1.10937 3.85937-2.29687.65625-1.1875.76563-2.4375.76563-2.90625 0-2.5-1.5-3.5625-3.5-3.5625-1.9375 0-3.14063 1.0625-3.85938 2.23437C.5625-5.23437.39063-4.07812.39063-3.28125m1.28125.5c0-1.03125.1875-2.15625.73437-3.34375.5625-1.14062 1.42188-2.03125 2.71875-2.03125 1.32813 0 2.1875.78125 2.1875 2.5 0 .70313-.07812 1.6875-.57812 2.98438S5.40625-.25 3.82813-.25c-1.3125 0-2.15625-.84375-2.15625-2.53125m0 0"/><path id="f" d="M.5-1.23437c0 .54687.85938 1.375 2.4375 1.375 2 0 2.89063-1.21875 2.89063-2.75 0-1.70313-1.04688-2.5625-2.5-2.5625-.67188 0-1.40625.29687-1.79688.64062l.28125-2.29687c.03125-.3125.10938-.34375.34375-.34375h3.01563L5.46875-8l-.0625-.10937H1.35938l-.125.125L1-3.9375l.29688.15625c.5-.57812.98437-.85937 1.64062-.85937.78125 0 1.625.5625 1.625 2.15625 0 1.26562-.5 2.20312-1.5625 2.20312-.84375 0-1.26562-.60937-1.51562-1.3125-.0625-.17187-.1875-.29687-.34375-.29687-.25 0-.64063.25-.64063.65625m0 0"/><path id="e" d="M.375-.125c0 .04688.10938.125.21875.125.07813 0 .20313-.01562.23438-.07812l1.51562-3.875c.04688-.125.0625-.20313.0625-.23438 0-.1875-.28125-.25-.54687-.25-.25 0-.65625.09375-.6875.25Zm0 0"/><path id="g" d="M.59375-2.92187c0 2.03125 1 3.0625 2.8125 3.0625.85938 0 2-.4375 2.34375-1.73438l-.375-.17187C5-.92187 4.53125-.48437 3.64063-.48437 2.1875-.48437 1.85938-2 1.85938-3.14062c0-1.79688.70312-2.53125 1.54687-2.53125.5625 0 .90625.40625 1.15625 1.0625.07813.20312.14063.3125.375.3125.25 0 .71875-.15625.71875-.625 0-.54688-.79687-1.17188-2.125-1.17188-2.20312 0-2.9375 1.5625-2.9375 3.17188m0 0"/><path id="h" d="M.39063 0h2.95312v-.34375c-.85937-.0625-.90625-.09375-.90625-.71875v-2.82812c0-.3125 0-.48438.09375-.65625.23438-.48438.76563-.89063 1.4375-.89063 1.03125 0 1.17188.76563 1.17188 1.51563v2.85937c0 .625-.04688.65625-.92188.71875V0h2.95313v-.34375c-.85938-.0625-.90625-.09375-.90625-.71875v-2.82812c0-.3125.01562-.46875.09375-.67188.1875-.48437.70312-.875 1.39062-.875.75 0 1.21875.4375 1.21875 1.51563v2.85937c0 .625-.03125.65625-.92187.71875V0h2.96875v-.34375c-.85938-.0625-.90625-.09375-.90625-.71875v-3.09375c0-1.21875-.65625-1.9375-1.8125-1.9375-.98438 0-1.70313.65625-2.125.9375-.29688-.57812-.76563-.9375-1.60938-.9375-.9375 0-1.70312.625-2.125.9375l-.10937-.9375-1.875.3125v.29688l.45312.0625c.3125.04687.39063.10937.39063.54687v3.8125c0 .625-.03126.65625-.90625.71875Zm0 0"/></defs><use xlink:href="#a" x="17.71183" y="38.60576"/><use xlink:href="#b" x="4.51293" y="31.03678"/><use xlink:href="#a" x="127.83345" y="20.25199"/><use xlink:href="#c" x="136.7499" y="12.68301"/><use xlink:href="#a" x="127.83345" y="38.60576"/><use xlink:href="#d" x="118.12923" y="48.72827"/><use xlink:href="#a" x="237.95507" y="38.60576"/><use xlink:href="#b" x="246.87152" y="49.75307"/><use xlink:href="#e" x="259.87283" y="44.59242"/><use xlink:href="#a" x="127.83345" y="56.95953"/><use xlink:href="#c" x="113.13868" y="68.10584"/><use xlink:href="#e" x="124.36108" y="62.94649"/><path fill="none" stroke="red" stroke-miterlimit="10" stroke-width=".39687" d="m135.14846 26.66797-5.95313-.4961m0 18.34766 5.95313.4961M78.3633 32.61719l-.4961 5.95312m-1.48828-5.95312-.4961 5.95312m110.09768 0 .4961-5.95312m1.48828 5.95312.49609-5.95312"/><use xlink:href="#f" x="63.93935" y="13.88309"/><use xlink:href="#g" x="73.10966" y="13.88309"/><use xlink:href="#h" x="79.12039" y="13.88309"/><path fill="none" stroke="#000" stroke-dasharray="2.9766355736000003 2.9766355736000003" stroke-miterlimit="10" stroke-width=".09921" d="M22.07031 35.59375h220.24614M132.19533 17.24218v36.70704"/><path fill="none" stroke="#000" stroke-miterlimit="10" stroke-width=".39687" d="m22.07031 35.59375 110.12502-18.35157m110.12112 18.35157L132.19533 53.94922"/></svg>