<svg xmlns="http://www.w3.org/2000/svg" xmlns:xlink="http://www.w3.org/1999/xlink" width="1081.967" height="274.651" viewBox="0 0 1081.967 274.651"><defs><path id="b" d="M1.8125-5.9375c0 4.75 1.07813 9.96875 5.53125 10.14063v-.625C5.84375 3.29688 3.5 1.4375 3.5-5.9375c0-7.3125 2.23438-9.17187 3.84375-9.51562v-.625C2.89063-15.89062 1.8125-10.6875 1.8125-5.9375m0 0"/><path id="c" d="M1.5625-2.53125C1.5625-1.17187 1.96875.25 3.67188.25c2.42187 0 4.29687-2.57812 5.53125-4.84375H9.25l-.70312 2.51563c-.10938.42187-.17188.79687-.17188 1.10937C8.375-.17187 8.73438.25 9.46875.25c1.65625 0 2.75-1.4375 3.46875-3.03125l-.48437-.28125c-.39063.73438-1.32813 2.21875-1.90625 2.21875-.25 0-.34375-.15625-.34375-.40625 0-.20312.07812-.45312.14062-.75l3.3125-13.51562-.10937-.09375-3.73438.5-.125.48437 1.26563.10938c.32812.03125.46875.125.46875.35937q0 .1875-.09375.51563L10.53125-10.25l-.04687.04688c-.40625-.20313-1.0625-.35938-1.78125-.35938-4.89063 0-7.14063 5.48438-7.14063 8.03125m2.09375.1875c0-2.29687 1.82813-7.48437 5.1875-7.48437.65625 0 1.20313.20312 1.45313.42187-.3125 1.60938-1 3.60938-2.07813 5.35938-1.01562 1.625-2.39062 3.20312-3.51562 3.20312-.67188 0-1.04688-.5625-1.04688-1.5m0 0"/><path id="d" d="M1.25 3.57813v.625C5.70313 4.03125 6.78125-1.1875 6.78125-5.9375S5.70313-15.89062 1.25-16.07812v.625c1.60938.34375 3.85938 2.20312 3.85938 9.51562 0 7.375-2.35938 9.23438-3.85938 9.51563m0 0"/><path id="e" d="m3.04688-2.28125.875.875L7.5625-5.07812l3.67188 3.67187.85937-.875L8.4375-5.9375l3.65625-3.67187-.85937-.84375L7.5625-6.8125l-3.64062-3.64062-.875.84375L6.71875-5.9375Zm0 0"/><clipPath id="a"><path d="M.67188 58H325v76H.67188Zm0 0"/></clipPath><clipPath id="f"><path d="M555 141h140v133.30078H555Zm0 0"/></clipPath></defs><path fill="none" stroke="#000" stroke-miterlimit="10" stroke-width=".39799" d="m64.56641 114.85547 127.40236-70.06642L128.26564.19921Zm0 0"/><g clip-path="url(#a)"><path fill="none" stroke="#000" stroke-miterlimit="10" stroke-width=".39799" d="m.86719 127.59766 318.50003-63.69923"/></g><use xlink:href="#b" x="303.82486" y="87.88133"/><use xlink:href="#c" x="312.42165" y="87.88133"/><use xlink:href="#d" x="326.3019" y="87.88133"/><path fill="none" stroke="#000" stroke-miterlimit="10" stroke-width=".39799" d="m64.5625 114.85937 144.53518 15.6836-41.64845 65.65235ZM574.16411 95.7461c0-35.1797-28.51953-63.69923-63.69922-63.69923s-63.69922 28.51953-63.69922 63.69922c0 35.1836 28.51953 63.69922 63.69922 63.69922 35.1797 0 63.69922-28.51562 63.69922-63.69922ZM497.7227 223.14454 688.82038 32.04687"/><use xlink:href="#b" x="696.7226" y="56.0328"/><use xlink:href="#c" x="705.3194" y="56.0328"/><use xlink:href="#d" x="719.19964" y="56.0328"/><use xlink:href="#e" x="502.8909" y="100.97469"/><g clip-path="url(#f)"><path fill="none" stroke="#000" stroke-miterlimit="10" stroke-width=".39799" d="M625.12115 146.70703c35.1836 0 63.69923 28.51954 63.69923 63.69923s-28.51563 63.69922-63.69923 63.69922c-35.17969 0-63.69922-28.51953-63.69922-63.69922 0-35.1797 28.51953-63.69923 63.69922-63.69923Zm0 0"/></g><use xlink:href="#e" x="617.54821" y="215.632"/><path fill="none" stroke="#000" stroke-miterlimit="10" stroke-width=".39799" d="M867.17977 159.44531h127.39845l-95.54689-95.54688Zm-63.69923-31.84765h254.7969"/><use xlink:href="#b" x="1042.72893" y="115.47826"/><use xlink:href="#c" x="1051.32573" y="115.47826"/><use xlink:href="#d" x="1065.20597" y="115.47826"/><path fill="none" stroke="#000" stroke-miterlimit="10" stroke-width=".39799" d="M867.17977 95.7461h127.39845l-95.54689 95.55078Zm0 0"/></svg>