<svg xmlns="http://www.w3.org/2000/svg" xmlns:xlink="http://www.w3.org/1999/xlink" width="353.347pt" height="292.261pt" viewBox="0 0 353.347 292.261"><defs><path id="a" d="m2.70313-2.03125.78125.78125 3.23437-3.26562L9.98438-1.25l.75-.78125L7.5-5.26562l3.23438-3.26563-.75-.75-3.26563 3.23438-3.23437-3.23438-.78125.75 3.26562 3.26563Zm0 0"/><path id="b" d="M0 0h5.10938l.125-.53125-1.125-.10937c-.3125-.01563-.46875-.15626-.46875-.45313 0-.125.03125-.28125.07812-.45312l1.01563-4.53125h1.125c1.8125 0 2.07812.4375 2.07812 2.625C7.9375-1.1875 7.9375 0 9.89063 0h1.45312l.1875-.53125c-1.3125-.1875-1.76562-.25-1.76562-2.65625 0-1.90625-.17188-2.71875-1.71875-3.23437 2.28125-.3125 3.84375-1.64063 3.84375-3.5 0-1.32813-.57813-3-4.07813-3H2.78125l-.14062.54687 1.10937.07813c.32813.01562.46875.17187.46875.48437 0 .125-.03125.26563-.0625.4375l-2.25 9.82813c-.15625.65625-.3125.84375-.76562.89062l-1.04688.125Zm4.89063-6.73437 1.09375-4.82813c.14062-.54687.20312-.71875 1.60937-.71875 1.20313 0 2.34375.53125 2.34375 2.17188 0 2.21875-1.45312 3.375-3.85937 3.375Zm0 0"/><path id="c" d="M.59375-1.25C1.32813-.28125 3.125.28125 4.48438.28125c3.625-.04687 4.73437-2.125 4.73437-4.14062 0-1.6875-.90625-2.73438-2.79687-3.71875-1.09375-.54688-2.40625-1.1875-2.40625-2.59375 0-1.32813.96875-2.39063 2.60937-2.39063 1.875 0 2.23438.875 2.23438 2.92188h.5625l.65625-2.625c-.79688-.64063-2.1875-.95313-3.34375-.95313-3.25 0-4.29688 2.14063-4.29688 3.71875 0 1.75 1.20313 2.65625 2.70313 3.39063 1.5.76562 2.40625 1.53125 2.40625 3.03125 0 1.54687-1.25 2.70312-2.8125 2.70312C2.21875-.375 1.75-2.3125 1.625-4.10937h-.54687Zm0 0"/><path id="d" d="M1.39063-9.8125h.5625c.59375-1.90625 1.26562-2.46875 3.09375-2.46875h1.29687L3.92188-1.51562c-.14063.57812-.34375.85937-.90625.90625l-1.23438.07812L1.67188 0h5.73437l.14063-.53125L6.1875-.60937c-.39062-.03126-.54687-.1875-.54687-.5 0-.125.03125-.23438.0625-.40625L8.125-12.28125h1.17188c1.8125 0 2.1875.46875 2.1875 1.48438 0 .28125-.01563.59375-.0625.98437H12l.70313-3.10937H2.09375Zm0 0"/><path id="f" d="M1.60938-5.26562c0 4.21875.95312 8.84375 4.90625 9V3.1875C5.1875 2.92188 3.09375 1.26563 3.09375-5.26562c0-6.5 2-8.15625 3.42188-8.45313v-.54687c-3.95313.15625-4.90625 4.78125-4.90625 9m0 0"/><path id="g" d="M1.39063-2.25c0 1.21875.35937 2.46875 1.875 2.46875 2.14062 0 3.8125-2.28125 4.90625-4.29687h.03125l-.60938 2.23437c-.09375.375-.15625.70313-.15625.98438 0 .70312.3125 1.07812.96875 1.07812 1.46875 0 2.45313-1.26562 3.07813-2.6875l-.4375-.25C10.71875-2.0625 9.875-.75 9.35938-.75c-.21875 0-.29688-.14062-.29688-.35937 0-.1875.0625-.40625.125-.65625l2.9375-12-.09375-.09375-3.32812.4375-.09375.4375 1.10937.10937c.29688.01563.42188.09375.42188.3125 0 .09375-.03125.26563-.07813.45313l-.71875 3-.04687.04687c-.35938-.17187-.92188-.3125-1.5625-.3125-4.35938 0-6.34375 4.85938-6.34375 7.125m1.84375.15625c0-2.01562 1.64062-6.625 4.60937-6.625.57813 0 1.07813.17188 1.29688.375-.28125 1.42188-.89063 3.20313-1.84375 4.75C6.40625-2.14062 5.17188-.75 4.17188-.75c-.59375 0-.9375-.5-.9375-1.34375m0 0"/><path id="h" d="M1.10938 3.1875v.54688c3.95312-.15625 4.90625-4.78125 4.90625-9s-.95313-8.84375-4.90625-9v.54687c1.4375.29688 3.42187 1.95313 3.42187 8.45313 0 6.53125-2.09375 8.1875-3.42187 8.45312m0 0"/><path id="i" d="M.57813-.70312c0 .0625.15624.1875.34375.1875.10937 0 .3125-.03126.34375-.10938l2.34375-5.98437c.07812-.1875.09375-.29688.09375-.35938 0-.28125-.4375-.39062-.84375-.39062-.39063 0-1.01563.15625-1.04688.40625Zm0 0"/><clipPath id="e"><path d="M.1211 76H317v181H.1211Zm0 0"/></clipPath></defs><use xlink:href="#a" x="21.87591" y="227.70523"/><use xlink:href="#b" x="8.69325" y="216.04272"/><use xlink:href="#a" x="44.49572" y="216.39583"/><use xlink:href="#c" x="33.91647" y="204.45502"/><use xlink:href="#a" x="248.07496" y="114.60521"/><use xlink:href="#d" x="235.66733" y="102.9427"/><g clip-path="url(#e)"><path fill="none" stroke="#000" stroke-miterlimit="10" stroke-width=".3975" d="M311.3477 251.33985.3203 81.68747"/></g><use xlink:href="#f" x="318.36522" y="240.58068"/><use xlink:href="#g" x="325.99723" y="240.58068"/><use xlink:href="#h" x="338.31975" y="240.58068"/><use xlink:href="#a" x="127.79409" y="33.59705"/><use xlink:href="#b" x="109.32579" y="21.93454"/><use xlink:href="#i" x="122.44462" y="13.98464"/><use xlink:href="#a" x="130.53117" y="58.72651"/><use xlink:href="#c" x="113.8713" y="46.7857"/><use xlink:href="#i" x="125.1807" y="38.8358"/><use xlink:href="#a" x="155.16289" y="284.89961"/><use xlink:href="#d" x="135.88065" y="273.2371"/><use xlink:href="#i" x="149.81342" y="265.2872"/></svg>