<svg xmlns="http://www.w3.org/2000/svg" xmlns:xlink="http://www.w3.org/1999/xlink" width="79.544pt" height="64.178pt" viewBox="0 0 79.544 64.178"><defs><path id="b" d="m1.67188-1.25.48437.46875 2-2.01562L6.17188-.78125 6.64063-1.25l-2-2.01562 2-2.01563L6.17188-5.75 4.15625-3.73437l-2-2.01563-.48437.46875L3.6875-3.26562Zm0 0"/><path id="c" d="M.375-3.125C.375-1.21875 1.46875.17188 3.76563.17188c2.03125 0 3.03125-1.04688 3.67187-2.1875.625-1.125.73438-2.3125.73438-2.76563 0-2.375-1.4375-3.39062-3.34375-3.39062-1.84375 0-2.98438 1.01562-3.65625 2.125C.53125-4.98437.375-3.89062.375-3.125m1.21875.46875c0-.96875.17188-2.04687.70313-3.17187.53125-1.09375 1.35937-1.9375 2.57812-1.9375 1.28125 0 2.07813.75 2.07813 2.375 0 .67187-.04688 1.60937-.53125 2.84375-.48438 1.25-1.26563 2.3125-2.76563 2.3125-1.26562 0-2.0625-.8125-2.0625-2.42188m0 0"/><clipPath id="a"><path d="M.27734 0H77v63.36719H.27734Zm0 0"/></clipPath></defs><g clip-path="url(#a)"><path fill="none" stroke="#000" stroke-miterlimit="10" stroke-width=".39346" d="M.47657 63.17188 70.44533 24.6875 35.46095.19531Zm0 0"/></g><use xlink:href="#b" x="66.28936" y="27.55705"/><use xlink:href="#c" x="66.17187" y="20.16966"/></svg>