<svg xmlns="http://www.w3.org/2000/svg" xmlns:xlink="http://www.w3.org/1999/xlink" width="828.115pt" height="283.863pt" viewBox="0 0 828.115 283.863"><defs><clipPath id="c"><path d="M334 .08203h125V120H334Zm0 0"/></clipPath><clipPath id="d"><path d="M481 164h126v119.64453H481Zm0 0"/></clipPath><clipPath id="e"><path d="M708 22h119.23047v98H708Zm0 0"/></clipPath><path id="a" d="m2.70313-2.03125.78125.78125 3.25-3.26562L10-1.25l.75-.78125-3.25-3.25 3.25-3.26562-.75-.75-3.26562 3.25-3.25-3.25-.78125.75 3.26562 3.26562Zm0 0"/><path id="b" d="M.59375-5.0625c0 3.09375 1.78125 5.34375 5.5 5.34375 3.29688 0 4.92188-1.6875 5.95313-3.54687C13.0625-5.09375 13.23438-7 13.23438-7.75c0-3.82812-2.32813-5.48437-5.40625-5.48437-2.98438 0-4.84375 1.65625-5.9375 3.4375C.85938-8.0625.59375-6.29687.59375-5.0625m1.96875.76563c0-1.57813.29688-3.32813 1.15625-5.14063.85938-1.76562 2.1875-3.14062 4.1875-3.14062 2.04688 0 3.35938 1.21875 3.35938 3.85937 0 1.07813-.09375 2.60938-.875 4.59375-.78125 2.01563-2.04688 3.75-4.48438 3.75C3.875-.375 2.5625-1.6875 2.5625-4.29687m0 0"/></defs><path fill="none" stroke="#000" stroke-miterlimit="10" stroke-width=".39807" d="m.1992 187.17183 113.26557-62.29685-56.63279-39.64451ZM226.73034 62.57814l-56.63279 101.93745-56.63278-39.6406Zm0 0"/><use xlink:href="#a" x="106.73593" y="129.52076"/><use xlink:href="#b" x="106.54713" y="117.56254"/><g clip-path="url(#c)"><path fill="none" stroke="#000" stroke-miterlimit="10" stroke-width=".39807" d="M453.2654 56.91407c0-31.27733-25.35546-56.63278-56.6328-56.63278-31.28123 0-56.63668 25.35545-56.63668 56.63278 0 31.27734 25.35545 56.6328 56.63669 56.6328 31.27733 0 56.63279-25.35546 56.63279-56.6328Zm0 0"/></g><g clip-path="url(#d)"><path fill="none" stroke="#000" stroke-miterlimit="10" stroke-width=".39807" d="M600.51142 226.81244c0-31.27733-25.35545-56.6328-56.63278-56.6328-31.28124 0-56.6328 25.35547-56.6328 56.6328 0 31.28123 25.35156 56.63278 56.6328 56.63278 31.27733 0 56.63278-25.35155 56.63278-56.63278Zm0 0"/></g><use xlink:href="#a" x="463.52064" y="146.51061"/><use xlink:href="#b" x="449.38275" y="162.13091"/><use xlink:href="#a" x="389.89832" y="61.56239"/><use xlink:href="#a" x="537.14296" y="231.45882"/><g clip-path="url(#e)"><path fill="none" stroke="#000" stroke-miterlimit="10" stroke-width=".39807" d="M713.777 113.54686h113.26557L742.0934 28.59768Zm0 0"/></g><path fill="none" stroke="#000" stroke-miterlimit="10" stroke-width=".39807" d="m742.0934 141.86326 28.31639-84.94919H657.1442Zm0 0"/><use xlink:href="#a" x="735.35613" y="89.87813"/><use xlink:href="#b" x="749.11543" y="105.49844"/></svg>