<svg xmlns="http://www.w3.org/2000/svg" xmlns:xlink="http://www.w3.org/1999/xlink" width="220.917pt" height="182.365pt" viewBox="0 0 220.917 182.365"><defs><path id="a" d="m1.6875-1.26562.48438.48437L4.1875-2.8125 6.23438-.78125l.46875-.48437-2.03125-2.01563 2.03125-2.04687-.46875-.46875L4.1875-3.76562 2.17188-5.79687l-.48438.46875 2.03125 2.04687Zm0 0"/><path id="b" d="M0 0h3.1875l.07813-.32812-.70313-.0625C2.375-.40625 2.26563-.5 2.26563-.6875c0-.0625.03125-.17187.04687-.28125l.64063-2.82812h.70312c1.125 0 1.29688.28125 1.29688 1.64062C4.95313-.75 4.95313 0 6.17188 0h.90625l.125-.32812c-.82813-.125-1.10938-.15625-1.10938-1.65625C6.09375-3.17187 6-3.6875 5.03125-4c1.42188-.20312 2.39063-1.03125 2.39063-2.1875 0-.82812-.35938-1.875-2.54688-1.875H1.73438l-.07813.32813.6875.0625c.20313 0 .28125.10937.28125.29687 0 .07813 0 .17188-.03125.28125L1.1875-.96875C1.09375-.5625 1-.4375.70313-.40625L.0625-.32812Zm3.04688-4.20312.6875-3.01563c.09375-.34375.125-.45312 1-.45312.76562 0 1.46875.34375 1.46875 1.35937 0 1.39063-.90625 2.10938-2.40625 2.10938Zm0 0"/><path id="c" d="M.375-.78125c.45313.60938 1.57813.95313 2.42188.95313C5.0625.15625 5.75-1.15625 5.75-2.40625c0-1.0625-.5625-1.71875-1.75-2.32812-.67187-.34375-1.5-.73438-1.5-1.625 0-.82813.60938-1.48438 1.625-1.48438 1.1875 0 1.40625.54688 1.40625 1.82813H5.875l.42188-1.64063c-.5-.39062-1.375-.59375-2.09375-.59375-2.03125 0-2.67188 1.34375-2.67188 2.3125 0 1.09375.73438 1.67188 1.6875 2.125.92188.46875 1.5.95313 1.5 1.89063 0 .96875-.78125 1.6875-1.76562 1.6875-1.5625 0-1.85938-1.20313-1.9375-2.32813H.67188Zm0 0"/><path id="d" d="M.875-6.125h.34375c.375-1.1875.79688-1.54687 1.9375-1.54687h.79688L2.4375-.9375c-.07812.35938-.20312.53125-.54687.54688l-.78125.0625L1.04688 0H4.625l.09375-.32812-.85937-.0625c-.23438 0-.34375-.10938-.34375-.29688 0-.07812.01562-.15625.04687-.25l1.51563-6.73437h.73437c1.125 0 1.35938.29687 1.35938.9375 0 .17187-.01563.375-.03125.60937H7.5l.42188-1.9375h-6.625Zm0 0"/><path id="f" d="M1-3.28125c0 2.625.59375 5.51563 3.0625 5.60938v-.34375c-.82812-.15626-2.125-1.1875-2.125-5.26563 0-4.0625 1.23438-5.09375 2.125-5.28125v-.34375C1.59375-8.8125 1-5.92187 1-3.28125m0 0"/><path id="g" d="M.875-1.40625c0 .76563.21875 1.54688 1.15625 1.54688 1.34375 0 2.39063-1.4375 3.0625-2.6875H5.125l-.39062 1.39062c-.0625.23438-.09375.45313-.09375.625 0 .4375.20312.67188.60937.67188.92188 0 1.53125-.79688 1.92188-1.67188l-.28125-.17187c-.20313.40625-.71875 1.23437-1.04688 1.23437-.14062 0-.1875-.09375-.1875-.21875s.03125-.25.07813-.42187L7.5625-8.59375 7.5-8.64062 5.4375-8.375l-.0625.28125.6875.04688c.1875.01562.26563.0625.26563.20312 0 .0625-.01563.17188-.04688.28125l-.45312 1.875-.01563.03125c-.23437-.10937-.59375-.20312-.98437-.20312C2.10938-5.85937.875-2.8125.875-1.40625m1.14063.10938c0-1.26563 1.03125-4.15625 2.89062-4.15625.35938 0 .67188.125.79688.25-.17188.89062-.54688 1.98437-1.15625 2.95312C4-1.34375 3.21875-.46875 2.60938-.46875c-.375 0-.59375-.3125-.59375-.82812m0 0"/><path id="h" d="M.6875 1.98438v.34375c2.46875-.09375 3.07813-2.98438 3.07813-5.60938 0-2.64062-.60938-5.53125-3.07813-5.625v.34375c.90625.1875 2.14063 1.21875 2.14063 5.28125 0 4.07813-1.29688 5.10938-2.14063 5.26563m0 0"/><path id="i" d="M.35938-.125c0 .04688.09375.125.21875.125.0625 0 .1875-.01562.21874-.0625L2.25-3.8125c.04688-.10937.0625-.1875.0625-.21875 0-.17187-.26562-.25-.51562-.25s-.64063.10938-.67188.26563Zm0 0"/><clipPath id="e"><path d="M.34375 45H201v118H.34375Zm0 0"/></clipPath></defs><use xlink:href="#a" x="14.00137" y="141.86004"/><use xlink:href="#b" x="5.76903" y="134.5774"/><use xlink:href="#a" x="28.12519" y="134.79763"/><use xlink:href="#c" x="21.51919" y="127.34159"/><use xlink:href="#a" x="155.24156" y="71.23894"/><use xlink:href="#d" x="147.49454" y="63.9573"/><g clip-path="url(#e)"><path fill="none" stroke="#000" stroke-miterlimit="10" stroke-width=".39712" d="M194.74999 156.61719.53906 50.6875"/></g><use xlink:href="#f" x="199.13074" y="149.89905"/><use xlink:href="#g" x="203.89621" y="149.89905"/><use xlink:href="#h" x="211.59047" y="149.89905"/><use xlink:href="#a" x="80.13808" y="20.65608"/><use xlink:href="#b" x="68.60623" y="13.37443"/><use xlink:href="#i" x="76.79646" y="8.41047"/><use xlink:href="#a" x="81.84613" y="36.35043"/><use xlink:href="#c" x="71.44435" y="28.89439"/><use xlink:href="#i" x="78.50601" y="23.93042"/><use xlink:href="#a" x="97.22657" y="177.59561"/><use xlink:href="#d" x="85.1865" y="170.31396"/><use xlink:href="#i" x="93.88496" y="165.35"/></svg>