<svg xmlns="http://www.w3.org/2000/svg" xmlns:xlink="http://www.w3.org/1999/xlink" width="842.585pt" height="175.479pt" viewBox="0 0 842.585 175.479"><defs><path id="a" d="m3.03125-2.28125.875.875 3.64063-3.67187 3.67187 3.67187.84375-.875-3.64062-3.64062 3.64062-3.65625-.84375-.85938-3.67187 3.64063-3.64063-3.64063-.875.85938 3.67188 3.65625Zm0 0"/><path id="b" d="M-.40625 0h4.73438l.14062-.60937L3.3125-.71875c-.28125-.01562-.39062-.15625-.39062-.35937 0-.10938.04687-.26563.10937-.42188.70313-1.34375 1.375-2.70312 2.15625-4.10937h4.70313l.51562 4.32812s-.10937.51563-.54687.5625l-1.125.10938L8.625 0h5.15625l.14063-.60937-.8125-.0625c-.64063-.0625-.73438-.35938-.84375-1.23438l-1.54688-12.60937H9.23438l-3.53125 6.1875c-1.07813 1.875-2.82813 5-3.60938 6.25C1.4375-.98437 1.07813-.76562.42188-.6875l-.6875.07813Zm6.01563-6.40625 3.42187-6.17187.75 6.17187Zm0 0"/><path id="c" d="M.67188-5.67187C.67188-2.21875 2.65625.3125 6.84375.3125c3.70313 0 5.51563-1.90625 6.67188-3.98437 1.14062-2.04688 1.34375-4.1875 1.34375-5.01563 0-4.3125-2.60938-6.17187-6.07813-6.17187C5.42188-14.85937 3.34375-13 2.125-11 .95313-9.04687.67188-7.0625.67188-5.67187m2.20312.84375c0-1.76563.34375-3.73438 1.29688-5.76563C5.14063-12.57812 6.64063-14.125 8.875-14.125c2.29688 0 3.76563 1.35938 3.76563 4.34375 0 1.20313-.10938 2.92188-.98438 5.15625-.85937 2.25-2.29687 4.20313-5.01562 4.20313-2.28125 0-3.76563-1.48438-3.76563-4.40625m0 0"/><path id="d" d="M1.59375 0h4.92188v-.45312L5.34375-.5625c-.32812-.03125-.48437-.14062-.48437-.6875v-8.67187L4.76563-10l-3.15625.53125v.39063l1.26562.17187c.28125.04688.375.15625.375.60938V-1.25c0 .54688-.14062.65625-.48437.6875l-1.17188.10938Zm0 0"/><path id="e" d="M.42188-.17187.59375 0H6.8125l.53125-2.09375-.4375-.07812c-.34375.78125-.60937.89062-1.20312.89062h-3.75c.23437-.70312 1.01562-1.6875 2.4375-2.64062 1.48437-1 2.54687-1.6875 2.54687-3.29688C6.9375-9.28125 5.54688-10 3.92188-10c-2 0-3.14063 1.15625-3.14063 2.04688 0 .54687.60938.79687.92188.79687.28124 0 .42187-.15625.48437-.4375.23438-1.04687.78125-1.85937 1.64063-1.85937 1.03125 0 1.35937.89062 1.35937 1.96875 0 1.42187-.64062 2.35937-2.01562 3.54687-1.875 1.60938-2.53125 2.67188-2.75 3.76563m0 0"/></defs><use xlink:href="#a" x="286.36311" y="40.34322"/><use xlink:href="#b" x="271.60592" y="27.22816"/><use xlink:href="#a" x="159.19567" y="103.92644"/><use xlink:href="#c" x="134.71834" y="85.89498"/><use xlink:href="#d" x="149.58047" y="90.81238"/><use xlink:href="#a" x="540.69898" y="40.34322"/><use xlink:href="#c" x="556.14911" y="22.31076"/><use xlink:href="#e" x="571.01123" y="27.22816"/><use xlink:href="#a" x="32.02823" y="167.51066"/><use xlink:href="#b" x="8.48912" y="149.47919"/><use xlink:href="#d" x="22.41353" y="154.39659"/><use xlink:href="#a" x="795.03485" y="40.34322"/><use xlink:href="#b" x="810.48498" y="22.31076"/><use xlink:href="#e" x="824.40939" y="27.22816"/><path fill="none" stroke="#000" stroke-dasharray="2.9799830632 2.9799830632" stroke-miterlimit="10" stroke-width=".39732" d="m293.918 35.12499-254.3399 127.168m254.3399-127.168h508.6798"/><path fill="none" stroke="red" stroke-miterlimit="10" stroke-width=".39732" d="m231.59767 63.14062-2.51172 7.53906m-124.65628 56.04689-2.51562 7.53906m316.19538-95.16799 3.97266-7.94922m-.99219 7.94922 3.97266-7.94922m247.38287 7.94922 3.97656-7.94922m-.9961 7.94922 3.97266-7.94922"/></svg>