<svg xmlns="http://www.w3.org/2000/svg" xmlns:xlink="http://www.w3.org/1999/xlink" width="931.58pt" height="319.296pt" viewBox="0 0 931.58 319.296"><defs><clipPath id="a"><path d="M.8164 90H134v126H.8164Zm0 0"/></clipPath><clipPath id="d"><path d="M542 185h140v133.59375H542Zm0 0"/></clipPath><clipPath id="e"><path d="M797 26h133.34766v108H797Zm0 0"/></clipPath><path id="b" d="m3.04688-2.28125.85937.875L7.5625-5.07812l3.65625 3.67187.85938-.875-3.65625-3.64062 3.65625-3.67188-.85938-.84375L7.5625-6.79687 3.90625-10.4375l-.85937.84375 3.65625 3.67188Zm0 0"/><path id="c" d="M.67188-5.67187C.67188-2.21875 2.65625.3125 6.84375.3125c3.70313 0 5.51563-1.90625 6.6875-3.98437C14.67188-5.71875 14.875-7.875 14.875-8.70312c0-4.3125-2.625-6.17188-6.09375-6.17188-3.34375 0-5.42187 1.85938-6.65625 3.875C.96875-9.0625.67188-7.0625.67188-5.67187m2.21875.84375c0-1.76563.32812-3.73438 1.29687-5.76563.95313-2 2.45313-3.53125 4.6875-3.53125 2.29688 0 3.78125 1.35938 3.78125 4.32813 0 1.20312-.10937 2.9375-.98437 5.17187-.875 2.25-2.29688 4.20313-5.03125 4.20313-2.28125 0-3.75-1.48438-3.75-4.40625m0 0"/></defs><g clip-path="url(#a)"><path fill="none" stroke="#000" stroke-miterlimit="10" stroke-width=".39762" d="m1.01563 210.21094 127.2578-69.9961-63.61718-44.55859Zm0 0"/></g><path fill="none" stroke="#000" stroke-miterlimit="10" stroke-width=".39762" d="m255.57422 70.20312-63.64063 114.55079-63.66015-44.53907Zm0 0"/><use xlink:href="#b" x="120.71185" y="145.43634"/><use xlink:href="#c" x="120.49931" y="131.99896"/><path fill="none" stroke="#000" stroke-miterlimit="10" stroke-width=".39762" d="M510.13672 63.83984c0-35.14843-28.49219-63.64062-63.64063-63.64062-35.14843 0-63.64062 28.49219-63.64062 63.64062 0 35.14454 28.49219 63.63672 63.64062 63.63672 35.14844 0 63.64063-28.49218 63.64063-63.63672Zm0 0"/><g clip-path="url(#d)"><path fill="none" stroke="#000" stroke-miterlimit="10" stroke-width=".39762" d="M675.59766 254.75781c0-35.14844-28.4922-63.64062-63.63672-63.64062-35.14844 0-63.64063 28.49218-63.64063 63.64062s28.49219 63.64063 63.64063 63.64063c35.14453 0 63.63672-28.49219 63.63672-63.64063Zm0 0"/></g><use xlink:href="#b" x="521.65981" y="164.51227"/><use xlink:href="#c" x="505.77284" y="182.06557"/><use xlink:href="#b" x="438.92823" y="69.06073"/><use xlink:href="#b" x="604.39041" y="259.97779"/><g clip-path="url(#e)"><path fill="none" stroke="#000" stroke-miterlimit="10" stroke-width=".39762" d="M802.8789 127.47656h127.28126l-95.46094-95.45703Zm0 0"/></g><path fill="none" stroke="#000" stroke-miterlimit="10" stroke-width=".39762" d="m834.69922 159.29687 31.82031-95.45703H739.23828Zm0 0"/><use xlink:href="#b" x="827.11733" y="100.88057"/><use xlink:href="#c" x="842.57924" y="118.43387"/></svg>