<svg xmlns="http://www.w3.org/2000/svg" xmlns:xlink="http://www.w3.org/1999/xlink" width="112.532pt" height="88.397pt" viewBox="0 0 112.532 88.397"><defs><path id="a" d="m1.75-1.3125.5.5 2.09375-2.10937L6.45313-.8125l.48437-.5-2.09375-2.09375L6.9375-5.51562 6.45313-6 4.34375-3.90625 2.25-6l-.5.48438 2.10938 2.10937Zm0 0"/><path id="b" d="M-.23437 0H2.5l.07813-.34375-.67188-.0625C1.75-.42187 1.6875-.5 1.6875-.625c0-.0625.01563-.14062.0625-.23437.39063-.78125.78125-1.5625 1.23438-2.375h2.71875L6-.73437s-.07812.29687-.32812.32812l-.64063.0625L4.96875 0H7.9375l.07813-.34375-.46875-.04687c-.375-.03125-.42188-.20313-.48438-.70313l-.89062-7.26562H5.3125l-2.03125 3.5625c-.625 1.07812-1.625 2.875-2.07812 3.59375C.82813-.5625.625-.4375.25-.40625l-.40625.0625Zm3.46875-3.6875L5.1875-7.23437 5.625-3.6875Zm0 0"/><path id="c" d="M.39063-3.26562c0 2 1.14062 3.45312 3.54687 3.45312 2.125 0 3.17188-1.09375 3.84375-2.29687.65625-1.1875.76563-2.42188.76563-2.89063 0-2.48437-1.5-3.54687-3.5-3.54687-1.92188 0-3.125 1.0625-3.82813 2.21875-.67187 1.125-.82812 2.26562-.82812 3.0625m1.26562.48437c0-1.01562.20313-2.14062.75-3.3125C2.95313-7.23437 3.8125-8.125 5.10938-8.125c1.3125 0 2.17187.78125 2.17187 2.5 0 .6875-.0625 1.67188-.5625 2.96875C6.21875-1.35937 5.39063-.25 3.8125-.25 2.5-.25 1.65625-1.09375 1.65625-2.78125m0 0"/><path id="d" d="M.375-.125c0 .04688.10938.125.21875.125.07813 0 .20313-.01562.21875-.07812L2.32813-3.9375c.0625-.125.0625-.20312.0625-.23437 0-.1875-.28125-.25-.53125-.25s-.65625.09375-.6875.25Zm0 0"/></defs><use xlink:href="#a" x="13.4451" y="10.29477"/><use xlink:href="#b" x="4.43655" y="20.19722"/><use xlink:href="#a" x="50.05239" y="46.90305"/><use xlink:href="#c" x="49.66006" y="39.17477"/><use xlink:href="#a" x="86.66066" y="83.51033"/><use xlink:href="#b" x="95.553" y="75.96183"/><use xlink:href="#d" x="104.3641" y="70.81643"/><path fill="none" stroke="#000" stroke-miterlimit="10" stroke-width=".3958" d="m17.79296 7.29296 73.21486 73.21486"/><path fill="none" stroke="red" stroke-miterlimit="10" stroke-width=".3958" d="m33.82812 27.52343 4.54688-3.84765M70.4297 64.125l4.54687-3.84765"/></svg>