<svg xmlns="http://www.w3.org/2000/svg" xmlns:xlink="http://www.w3.org/1999/xlink" width="410.553pt" height="99.301pt" viewBox="0 0 410.553 99.301"><defs><path id="a" d="m2.6875-2.01562.78125.76562L6.6875-4.48437 9.9375-1.25l.75-.76562-3.23437-3.21875 3.23437-3.25-.75-.75-3.25 3.21875-3.21875-3.21875-.78125.75 3.25 3.25Zm0 0"/><path id="b" d="M-.35937 0h4.20312l.10938-.53125-1.03125-.10937c-.23438-.01563-.32813-.125-.32813-.3125 0-.09376.03125-.23438.09375-.375.60938-1.1875 1.20313-2.39063 1.90625-3.64063h4.17188L9.21875-1.125s-.09375.45313-.5.48438l-.98437.10937L7.64063 0h4.5625l.125-.53125-.71875-.0625c-.57813-.0625-.65625-.3125-.75-1.09375L9.5-12.85937H8.17188L5.04688-7.375c-.95313 1.65625-2.5 4.42188-3.1875 5.53125C1.26563-.875.95313-.67187.375-.60937l-.60937.07812Zm5.32812-5.67187 3.01563-5.46875.6875 5.46875Zm0 0"/><path id="c" d="M.59375-5.03125c0 3.07813 1.76563 5.3125 5.45313 5.3125 3.29687 0 4.89062-1.6875 5.92187-3.53125 1.01563-1.8125 1.1875-3.71875 1.1875-4.4375 0-3.82812-2.3125-5.46875-5.375-5.46875-2.96875 0-4.8125 1.64063-5.90625 3.42188C.84375-8.01562.59375-6.25.59375-5.03125m1.95313.76563c0-1.5625.29687-3.3125 1.15625-5.10938C4.54688-11.14062 5.875-12.5 7.85938-12.5c2.03125 0 3.34375 1.20313 3.34375 3.82813 0 1.07812-.10938 2.59375-.875 4.57812C9.54688-2.09375 8.28125-.375 5.875-.375c-2.01562 0-3.32812-1.3125-3.32812-3.89062m0 0"/><path id="d" d="M1.40625 0h4.35938v-.40625L4.73438-.5c-.29688-.03125-.42188-.125-.42188-.60937v-7.67188l-.09375-.0625-2.79687.46875v.34375l1.125.15625c.25.04688.32812.14063.32812.53125v6.23438c0 .48437-.125.57812-.42187.60937l-1.04688.09375Zm0 0"/><path id="e" d="M.375-.15625.53125 0h5.5L6.5-1.85937l-.375-.0625c-.3125.6875-.54687.78125-1.07812.78125h-3.3125c.20312-.625.89062-1.48438 2.15625-2.32813 1.3125-.89062 2.25-1.5 2.25-2.92187 0-1.8125-1.21875-2.45313-2.67188-2.45313-1.76562 0-2.78125 1.01563-2.78125 1.8125 0 .46875.54688.6875.82813.6875.25 0 .35937-.14062.42187-.39062.20313-.90625.6875-1.625 1.45313-1.625.92187 0 1.20312.78125 1.20312 1.73437 0 1.25-.5625 2.07813-1.78125 3.14063C1.15625-2.0625.5625-1.125.375-.15625m0 0"/></defs><use xlink:href="#a" x="142.07042" y="35.71559"/><use xlink:href="#b" x="129.00539" y="24.10532"/><use xlink:href="#a" x="29.47699" y="92.01231"/><use xlink:href="#c" x="7.80752" y="76.04868"/><use xlink:href="#d" x="20.96491" y="80.40203"/><use xlink:href="#a" x="367.25629" y="35.71559"/><use xlink:href="#c" x="380.935" y="19.75196"/><use xlink:href="#e" x="394.09239" y="24.10532"/></svg>