<svg xmlns="http://www.w3.org/2000/svg" xmlns:xlink="http://www.w3.org/1999/xlink" width="397.49pt" height="328.733pt" viewBox="0 0 397.49 328.733"><defs><path id="a" d="m3.04688-2.28125.875.875L7.5625-5.07812l3.67188 3.67187.85937-.875L8.4375-5.9375l3.65625-3.67187-.85937-.84375L7.5625-6.8125l-3.64062-3.64062-.875.84375L6.71875-5.9375Zm0 0"/><path id="b" d="M0 0h5.75l.14063-.60937-1.25-.10938c-.35938-.01562-.54688-.17187-.54688-.51562 0-.125.04688-.3125.09375-.51563l1.14063-5.09375h1.28125c2.03125 0 2.32812.48438 2.32812 2.95313C8.9375-1.34375 8.9375 0 11.15625 0h1.625l.20313-.60937C11.51563-.8125 11-.875 11-3.57812c0-2.15625-.1875-3.07813-1.9375-3.65625 2.57813-.35938 4.32813-1.85938 4.32813-3.9375 0-1.5-.65625-3.375-4.59375-3.375H3.14063l-.15625.59375 1.25.09375c.35937.01562.51562.20312.51562.5625 0 .125-.03125.28125-.07812.48437L2.15625-1.75c-.1875.75-.35937.96875-.875 1.01563l-1.17187.125Zm5.51563-7.59375 1.21875-5.4375c.15625-.60937.23437-.8125 1.8125-.8125 1.375 0 2.64062.60938 2.64062 2.45313 0 2.5-1.625 3.79687-4.34375 3.79687Zm0 0"/><path id="c" d="M.67188-1.40625C1.5-.3125 3.51563.3125 5.0625.3125c4.07813-.04687 5.32813-2.39062 5.32813-4.65625 0-1.90625-1.03125-3.09375-3.15625-4.1875C6-9.15625 4.51563-9.875 4.51563-11.46875c0-1.5 1.10937-2.6875 2.9375-2.6875 2.125 0 2.53125.98438 2.53125 3.29688h.625l.75-2.95313c-.90625-.71875-2.46875-1.07812-3.76563-1.07812-3.67187 0-4.84375 2.42187-4.84375 4.1875 0 1.96875 1.34375 3 3.04688 3.82812 1.6875.85938 2.71875 1.71875 2.71875 3.40625 0 1.75-1.42188 3.04688-3.1875 3.04688-2.82813 0-3.35938-2.17188-3.48438-4.21875h-.64062Zm0 0"/><path id="d" d="M1.5625-11.0625h.625c.67188-2.14062 1.4375-2.78125 3.5-2.78125h1.45313L4.40625-1.70312c-.15625.65625-.375.96875-1 1.01562l-1.39062.07813L1.875 0h6.48438l.15625-.60937L6.96875-.6875c-.4375-.03125-.60937-.20312-.60937-.5625 0-.14062.01562-.26562.0625-.45312l2.73437-12.14063h1.32813c2.03125 0 2.45312.54688 2.45312 1.6875 0 .3125-.01562.67188-.0625 1.09375h.65625l.78125-3.48437H2.34375Zm0 0"/><path id="e" d="M1.8125-5.9375c0 4.75 1.07813 9.96875 5.53125 10.14063v-.625C5.84375 3.29688 3.5 1.4375 3.5-5.9375c0-7.3125 2.23438-9.17187 3.84375-9.51562v-.625C2.89063-15.89062 1.8125-10.6875 1.8125-5.9375m0 0"/><path id="f" d="M1.5625-2.53125C1.5625-1.17187 1.96875.25 3.67188.25c2.42187 0 4.29687-2.57812 5.53125-4.84375H9.25l-.70312 2.51563c-.10938.42187-.17188.79687-.17188 1.10937C8.375-.17187 8.73438.25 9.46875.25c1.65625 0 2.75-1.4375 3.46875-3.03125l-.48437-.28125c-.39063.73438-1.32813 2.21875-1.90625 2.21875-.25 0-.34375-.15625-.34375-.40625 0-.20312.07812-.45312.14062-.75l3.3125-13.51562-.10937-.09375-3.73438.5-.125.48437 1.26563.10938c.32812.03125.46875.125.46875.35937q0 .1875-.09375.51563L10.53125-10.25l-.04687.04688c-.40625-.20313-1.0625-.35938-1.78125-.35938-4.89063 0-7.14063 5.48438-7.14063 8.03125m2.09375.1875c0-2.29687 1.82813-7.48437 5.1875-7.48437.65625 0 1.20313.20312 1.45313.42187-.3125 1.60938-1 3.60938-2.07813 5.35938-1.01562 1.625-2.39062 3.20312-3.51562 3.20312-.67188 0-1.04688-.5625-1.04688-1.5m0 0"/><path id="g" d="M1.25 3.57813v.625C5.70313 4.03125 6.78125-1.1875 6.78125-5.9375S5.70313-15.89062 1.25-16.07812v.625c1.60938.34375 3.85938 2.20312 3.85938 9.51562 0 7.375-2.35938 9.23438-3.85938 9.51563m0 0"/><path id="h" d="M.65625-.79687c0 .07812.17188.21874.375.21874.125 0 .35938-.03124.39063-.125L4.0625-7.4375c.09375-.21875.10938-.34375.10938-.42187 0-.3125-.48438-.4375-.9375-.4375-.4375 0-1.15625.17187-1.20313.45312Zm0 0"/></defs><use xlink:href="#a" x="24.48059" y="256.54024"/><use xlink:href="#b" x="9.63164" y="243.40409"/><use xlink:href="#a" x="49.9569" y="243.80258"/><use xlink:href="#c" x="38.04019" y="230.35284"/><use xlink:href="#a" x="279.24471" y="129.15867"/><use xlink:href="#d" x="265.26865" y="116.02253"/><path fill="none" stroke="#000" stroke-miterlimit="10" stroke-width=".39799" d="M350.5392 283.16408.1992 92.06634"/><use xlink:href="#e" x="358.4461" y="271.04363"/><use xlink:href="#f" x="367.04279" y="271.04363"/><use xlink:href="#g" x="380.92286" y="271.04363"/><use xlink:href="#a" x="143.77453" y="37.91974"/><use xlink:href="#b" x="122.97222" y="24.78359"/><use xlink:href="#h" x="137.74926" y="15.82883"/><use xlink:href="#a" x="146.85658" y="66.22043"/><use xlink:href="#c" x="128.09165" y="52.77068"/><use xlink:href="#h" x="140.83056" y="43.81592"/><use xlink:href="#a" x="174.59399" y="320.92762"/><use xlink:href="#d" x="152.87385" y="307.79048"/><use xlink:href="#h" x="168.56772" y="298.83572"/></svg>