<svg xmlns="http://www.w3.org/2000/svg" xmlns:xlink="http://www.w3.org/1999/xlink" width="661.022" height="188.888" viewBox="0 0 661.022 188.888"><defs><path id="a" d="M1.8125-5.9375c0 4.75 1.07813 9.96875 5.53125 10.14063v-.625C5.84375 3.29688 3.5 1.4375 3.5-5.9375c0-7.3125 2.23438-9.17187 3.84375-9.51562v-.625C2.89063-15.89062 1.8125-10.6875 1.8125-5.9375m0 0"/><path id="b" d="M1.5625-2.53125C1.5625-1.17187 1.96875.25 3.67188.25c2.42187 0 4.29687-2.57812 5.53125-4.84375H9.25l-.70312 2.51563c-.10938.42187-.17188.79687-.17188 1.10937C8.375-.17187 8.73438.25 9.46875.25c1.65625 0 2.75-1.4375 3.46875-3.03125l-.48437-.28125c-.39063.73438-1.32813 2.21875-1.90625 2.21875-.25 0-.34375-.15625-.34375-.40625 0-.20312.07812-.45312.14062-.75l3.3125-13.51562-.10937-.09375-3.73438.5-.125.48437 1.26563.10938c.32812.03125.46875.125.46875.35937q0 .1875-.09375.51563L10.53125-10.25l-.04687.04688c-.40625-.20313-1.0625-.35938-1.78125-.35938-4.89063 0-7.14063 5.48438-7.14063 8.03125m2.09375.1875c0-2.29687 1.82813-7.48437 5.1875-7.48437.65625 0 1.20313.20312 1.45313.42187-.3125 1.60938-1 3.60938-2.07813 5.35938-1.01562 1.625-2.39062 3.20312-3.51562 3.20312-.67188 0-1.04688-.5625-1.04688-1.5m0 0"/><path id="c" d="M1.25 3.57813v.625C5.70313 4.03125 6.78125-1.1875 6.78125-5.9375S5.70313-15.89062 1.25-16.07812v.625c1.60938.34375 3.85938 2.20312 3.85938 9.51562 0 7.375-2.35938 9.23438-3.85938 9.51563m0 0"/><path id="d" d="m3.04688-2.28125.875.875L7.5625-5.07812l3.67188 3.67187.85937-.875L8.4375-5.9375l3.65625-3.67187-.85937-.84375L7.5625-6.8125l-3.64062-3.64062-.875.84375L6.71875-5.9375Zm0 0"/><path id="e" d="M0 0h4.96875l.10938-.60937L4.25-.67187c-.625-.04688-.95312-.20313-.95312-.65625 0-1.10938.20312-1.73438.4375-2.85938l1.9375-8.57812h.03125L8.23438-.25h.59375l8.1875-12.51562h.04687L14.48438-1.75c-.17188.71875-.375.96875-.89063 1.01563l-1.14062.125L12.3125 0h5.73438l.10937-.60937-1.23437-.125c-.375-.03126-.53126-.20313-.53126-.54688 0-.125.01563-.28125.0625-.46875l2.53126-11.0625c.1875-.71875.34374-1 .875-1.04687l1.17187-.09375.15625-.59375h-4.125c-1.125 1.92187-2.375 3.79687-3.65625 5.75L9.6875-3.10937H9.625L8.4375-8.95312c-.42187-1.90625-.84375-3.71875-1.20312-5.59375H3.15625l-.14062.59375 1.23437.10937c.35938.03125.54688.20313.54688.5625 0 .14063-.03125.29688-.07813.46875l-1.98437 8.625c-.25 1.125-.5 1.92188-.73438 2.625-.25.67188-.64062.82813-1.23437.89063l-.65625.0625Zm0 0"/><path id="f" d="M0 0h4.96875l.10938-.60937L4.25-.67187c-.625-.04688-.95312-.17188-.95312-.625 0-1.125.20312-1.76563.4375-2.89063l1.96875-8.625h.07812C7.75-8.53125 9.6875-4.28125 11.625 0h1.35938l2.35937-10.35937c.23438-1.125.48438-1.9375.73438-2.625.25-.67188.625-.82813 1.25-.89063l.65624-.07812.10938-.59375H13.125l-.10937.59375.82812.09375c.625.0625.98438.26562.98438.73437 0 .76563-.23438 1.64063-.46875 2.76563L12.625-2.75h-.09375c-1.8125-3.9375-3.59375-7.85937-5.35937-11.79687H3.15625l-.14062.59375 1.23437.10937c.35938.03125.54688.20313.54688.5625 0 .14063-.03125.29688-.07813.46875l-1.98437 8.625c-.25 1.125-.5 1.92188-.73438 2.625-.25.67188-.60937.82813-1.23437.89063l-.65625.0625Zm0 0"/><path id="g" d="M.65625-.79687c0 .07812.17188.21874.375.21874.125 0 .35938-.03124.39063-.125L4.0625-7.4375c.09375-.21875.10938-.34375.10938-.42187 0-.3125-.48438-.4375-.9375-.4375-.4375 0-1.15625.17187-1.20313.45312Zm0 0"/></defs><path fill="none" stroke="red" stroke-miterlimit="10" stroke-width=".39791" d="M312.22667 95.73436 299.55479 97l1.27734 12.67188 12.67579-1.26563-1.28125-12.67188"/><path fill="none" stroke="#000" stroke-miterlimit="10" stroke-width=".39791" d="m.19922 126.9375 636.8596-63.68752"/><use xlink:href="#a" x="621.51845" y="87.22967"/><use xlink:href="#b" x="630.11345" y="87.22967"/><use xlink:href="#c" x="643.9908" y="87.22967"/><use xlink:href="#d" x="311.02583" y="164.00209"/><use xlink:href="#e" x="326.49894" y="181.23259"/><use xlink:href="#d" x="56.31168" y="125.79462"/><use xlink:href="#f" x="38.55595" y="112.66105"/><use xlink:href="#f" x="71.78479" y="145.71814"/><use xlink:href="#g" x="91.25898" y="136.76289"/><use xlink:href="#d" x="298.29067" y="37.91863"/><use xlink:href="#e" x="313.76378" y="24.78506"/><use xlink:href="#g" x="336.3249" y="15.83206"/><path fill="none" stroke="#000" stroke-dasharray="2.9844065316 2.9844065316" stroke-miterlimit="10" stroke-width=".39791" d="M318.59386 158.77736 305.85948 32.69137"/><path fill="none" stroke="red" stroke-miterlimit="10" stroke-width=".39791" d="m318.4962 129.77344-6.16406-5.03125m-.20704-58.00784-6.16406-5.03515"/></svg>