<svg xmlns="http://www.w3.org/2000/svg" xmlns:xlink="http://www.w3.org/1999/xlink" width="256.822pt" height="69.899pt" viewBox="0 0 256.822 69.899"><defs><path id="a" d="m1.6875-1.26562.48438.48437 2.03125-2.04687L6.25-.78125l.46875-.48437L4.6875-3.29687l2.03125-2.03125L6.25-5.8125 4.20313-3.78125 2.17188-5.8125l-.48438.48438 2.04688 2.03125Zm0 0"/><path id="b" d="M0 0h2.76563l.0625-.32812L2.35938-.375c-.34375-.01562-.53125-.10937-.53125-.35937 0-.625.10937-.96875.25-1.59375l1.0625-4.76563h.03125L4.57813-.14062h.32812l4.54688-6.95313h.03125l-1.4375 6.125c-.09375.39063-.21875.53125-.5.5625l-.625.07813L6.84375 0h3.1875l.0625-.32812-.6875-.07813c-.21875-.01562-.29687-.10937-.29687-.29687 0-.07813 0-.17188.03125-.26563l1.40625-6.14062c.09375-.40625.1875-.5625.48437-.59375l.64063-.04688.09375-.32812H9.48438c-.625 1.0625-1.32813 2.10937-2.03125 3.1875l-2.0625 3.15625h-.04688L4.6875-4.96875c-.23437-1.0625-.46875-2.07812-.67187-3.10937H1.75L1.67188-7.75l.6875.0625c.20312.01563.29687.10938.29687.3125 0 .07813 0 .15625-.03125.26563L1.51563-2.32812C1.375-1.70312 1.25-1.25 1.10938-.875s-.34375.46875-.6875.5L.0625-.32812Zm0 0"/><path id="c" d="M0 0h2.76563l.0625-.32812L2.35938-.375c-.34375-.01562-.53125-.09375-.53125-.34375 0-.625.10937-.98437.25-1.60937l1.09375-4.78125h.03125C4.29688-4.73437 5.39063-2.375 6.45313 0h.76562l1.29688-5.76562c.14062-.60938.28125-1.0625.42187-1.45313.125-.375.34375-.45312.6875-.5L9.98438-7.75l.0625-.32812H7.28125l-.0625.32812.46875.04688c.34375.04687.54688.15625.54688.42187 0 .42188-.125.90625-.26563 1.51563l-.95312 4.23437h-.04688c-1.01562-2.1875-2-4.35937-2.98437-6.54687H1.75L1.67188-7.75l.6875.0625c.20312.01563.29687.10938.29687.3125 0 .07813 0 .15625-.03125.26563L1.51563-2.32812C1.375-1.70312 1.25-1.25 1.10938-.875s-.34375.46875-.6875.5L.0625-.32812Zm0 0"/><path id="d" d="M.375-3.15625C.375-1.23437 1.48438.17188 3.8125.17188c2.0625 0 3.0625-1.0625 3.71875-2.21875.625-1.14063.73438-2.32813.73438-2.79688 0-2.39062-1.45313-3.42187-3.375-3.42187-1.875 0-3.03125 1.03125-3.70313 2.14062C.53125-5.03125.375-3.9375.375-3.15625m1.23438.46875c0-.98437.1875-2.07812.71875-3.20312C2.85938-7 3.6875-7.85937 4.9375-7.85937c1.28125 0 2.10938.75 2.10938 2.40625 0 .67187-.0625 1.64062-.54688 2.875C6-1.3125 5.21875-.23437 3.6875-.23437c-1.26562 0-2.07812-.82813-2.07812-2.45313m0 0"/><path id="f" d="M.46875-1.1875c0 .53125.82813 1.32813 2.34375 1.32813 1.92188 0 2.79688-1.17188 2.79688-2.65625 0-1.64063-1.01563-2.46875-2.40625-2.46875-.65625 0-1.35938.28125-1.73438.625l.26563-2.21875c.03124-.29688.10937-.34375.32812-.34375h2.90625l.29688-.79688-.0625-.09375H1.29688l-.10938.10938-.25 3.90625.29688.15625c.48437-.5625.95312-.84375 1.59375-.84375.73437 0 1.5625.54687 1.5625 2.09375 0 1.20312-.48438 2.10937-1.5 2.10937-.82813 0-1.23438-.57812-1.46875-1.25-.0625-.17187-.17188-.28125-.34375-.28125-.23438 0-.60938.23438-.60938.625m0 0"/><path id="e" d="M.35938-.125c0 .04688.10937.125.21875.125.0625 0 .20312-.01562.21874-.0625L2.25-3.8125c.0625-.125.0625-.1875.0625-.21875 0-.1875-.26562-.25-.51562-.25s-.64063.09375-.67188.25Zm0 0"/><path id="g" d="M.57813-2.8125c0 1.95313.95312 2.95313 2.70312 2.95313.82813 0 1.9375-.42188 2.25-1.6875l-.34375-.15626C4.82813-.89062 4.35938-.46874 3.5-.46874c-1.39062 0-1.70312-1.45312-1.70312-2.54687 0-1.75.67187-2.4375 1.48437-2.4375.53125 0 .875.375 1.10938 1.01562.07812.1875.15625.29688.375.29688.23437 0 .6875-.15625.6875-.59375 0-.54688-.78125-1.14063-2.04688-1.14063-2.125 0-2.82812 1.51563-2.82812 3.0625m0 0"/><path id="h" d="M.375 0h2.84375v-.32812c-.82812-.0625-.875-.09375-.875-.6875V-3.75c0-.29687 0-.46875.09375-.625.21875-.46875.73438-.85937 1.375-.85937 1.01563 0 1.14063.73437 1.14063 1.45312v2.76563c0 .59375-.04688.625-.89063.6875V0h2.85938v-.32812c-.84375-.0625-.875-.09375-.875-.6875V-3.75c0-.29687.01562-.45312.07812-.64062.1875-.46875.67188-.84375 1.34375-.84375.73438 0 1.17188.40625 1.17188 1.45312v2.76563c0 .59375-.03125.625-.875.6875V0H10.625v-.32812c-.84375-.0625-.89062-.09375-.89062-.6875V-4c0-1.1875-.625-1.875-1.73438-1.875-.95312 0-1.64062.64063-2.0625.90625-.28125-.54687-.71875-.90625-1.54687-.90625-.89063 0-1.625.59375-2.04688.90625L2.23438-5.875.4375-5.57812v.29687l.4375.0625c.29688.04688.375.09375.375.51563v3.6875c0 .59375-.03125.625-.875.6875Zm0 0"/></defs><use xlink:href="#a" x="15.82169" y="37.21623"/><use xlink:href="#b" x="4.24142" y="29.91877"/><use xlink:href="#a" x="121.96831" y="19.52479"/><use xlink:href="#c" x="130.56489" y="12.22833"/><use xlink:href="#a" x="121.96831" y="37.21623"/><use xlink:href="#d" x="113.13507" y="46.97512"/><use xlink:href="#a" x="228.11493" y="37.21623"/><use xlink:href="#b" x="236.71051" y="47.9627"/><use xlink:href="#e" x="249.24615" y="42.98863"/><use xlink:href="#a" x="121.96831" y="54.90666"/><use xlink:href="#c" x="107.80178" y="65.65314"/><use xlink:href="#e" x="118.62115" y="60.67907"/><path fill="none" stroke="red" stroke-miterlimit="10" stroke-width=".39793" d="m127.57811 26.875-2.8125-2.8164m0 17.6914 2.8125 2.8164M74.58984 32.32422l-1.98828 3.97656m.49609-3.97656-1.98828 3.97656m106.64451 0 1.9922-3.97656m-.5 3.97656 1.99218-3.97656"/><use xlink:href="#f" x="60.40127" y="13.38166"/><use xlink:href="#g" x="69.21853" y="13.38166"/><use xlink:href="#h" x="75.01339" y="13.38166"/><path fill="none" stroke="#000" stroke-dasharray="2.9845260848 2.9845260848" stroke-miterlimit="10" stroke-width=".09948" d="M20.02734 34.3125h212.29294M126.17186 16.6211v35.3828"/><path fill="none" stroke="#000" stroke-miterlimit="10" stroke-width=".39793" d="m20.02734 34.3125 106.14452-17.6914m106.14842 17.6914L126.17186 52.0039"/></svg>