<svg xmlns="http://www.w3.org/2000/svg" xmlns:xlink="http://www.w3.org/1999/xlink" width="154.725pt" height="57.091pt" viewBox="0 0 154.725 57.091"><defs><path id="b" d="M1-3.25c0 2.59375.57813 5.45313 3.01563 5.5625v-.34375C3.20313 1.79688 1.90625.78125 1.90625-3.25c0-4.01562 1.23438-5.03125 2.10938-5.21875v-.34375C1.57813-8.70312 1-5.84375 1-3.25m0 0"/><path id="c" d="M.85938-1.39062c0 .75.21874 1.53125 1.15625 1.53125 1.32812 0 2.34375-1.42188 3.03125-2.65625h.01562l-.375 1.375q-.09375.35156-.09375.60937c0 .4375.1875.67188.59375.67188.90625 0 1.51563-.79688 1.90625-1.65625L6.8125-1.6875c-.20312.40625-.71875 1.21875-1.03125 1.21875-.14062 0-.1875-.07812-.1875-.21875 0-.10937.03125-.25.07813-.40625L7.48438-8.5l-.0625-.04687-2.04688.26562-.0625.26563.6875.0625c.1875.01562.25.0625.25.20312 0 .0625 0 .15625-.04687.28125L5.76563-5.625l-.03125.03125c-.21875-.10937-.57813-.20312-.96875-.20312-2.6875 0-3.90625 3.01562-3.90625 4.40625M2-1.28125c0-1.25 1-4.10937 2.84375-4.10937.35938 0 .65625.10937.79688.23437-.17188.89063-.54688 1.98438-1.14063 2.9375-.54687.89063-1.3125 1.75-1.92187 1.75-.375 0-.57813-.29687-.57813-.8125m0 0"/><path id="d" d="M.6875 1.96875v.34375C3.125 2.20313 3.71875-.65625 3.71875-3.25S3.125-8.70312.6875-8.8125v.34375c.875.1875 2.10938 1.20313 2.10938 5.21875 0 4.03125-1.28125 5.04688-2.10938 5.21875m0 0"/><clipPath id="a"><path d="M1.07813 22H147v34.19531H1.07813Zm0 0"/></clipPath></defs><path fill="none" stroke="#000" stroke-miterlimit="10" stroke-width=".39226" d="m29.1758 50.42187 55.8047-30.69532L57.07815.19529Zm0 0"/><g clip-path="url(#a)"><path fill="none" stroke="#000" stroke-miterlimit="10" stroke-width=".39226" d="m1.27344 56 139.51178-27.90236"/></g><use xlink:href="#b" x="132.27715" y="41.22955"/><use xlink:href="#c" x="136.98427" y="41.22955"/><use xlink:href="#d" x="144.58431" y="41.22955"/></svg>