<svg xmlns="http://www.w3.org/2000/svg" xmlns:xlink="http://www.w3.org/1999/xlink" width="462.237pt" height="126.391pt" viewBox="0 0 462.237 126.391"><defs><path id="a" d="m3.03125-2.28125.875.875L7.54688-5.0625l3.65625 3.65625.84375-.875-3.64063-3.625 3.64063-3.67187-.84375-.84375-3.65625 3.64062-3.64063-3.64062-.875.84375L6.6875-5.90625Zm0 0"/><path id="b" d="M0 0h4.95313l.10937-.60937-.82812-.0625c-.625-.04688-.95313-.20313-.95313-.64063 0-1.125.20313-1.75.4375-2.85937l1.92188-8.54688h.04687L8.21875-.25h.57813l8.15625-12.46875H17L14.4375-1.73437c-.1875.70312-.375.95312-.89062 1l-1.14063.125L12.26563 0h5.71875l.10937-.60937-1.21875-.125c-.39062-.03126-.54687-.20313-.54687-.53125 0-.14063.03124-.29688.07812-.46875l2.51563-11.03125c.17187-.71875.32812-1 .875-1.04688l1.15624-.09375.15626-.59375H17c-1.10937 1.92188-2.35937 3.79688-3.64062 5.73438L9.65625-3.09375h-.0625l-1.1875-5.82812C7.98438-10.82812 7.5625-12.625 7.20313-14.5h-4.0625l-.125.59375 1.21875.10938c.35937.03125.54687.20312.54687.5625 0 .14062-.03125.29687-.07812.46875L2.71875-4.17187C2.48438-3.0625 2.23438-2.25 1.98438-1.5625c-.25.67188-.625.82813-1.21875.89063l-.65625.0625Zm0 0"/><path id="c" d="M0 0h4.95313l.10937-.60937-.82812-.0625c-.625-.04688-.95313-.17188-.95313-.625 0-1.10938.20313-1.76563.4375-2.875l1.96875-8.59375H5.75C7.71875-8.5 9.65625-4.26562 11.57813 0h1.35937l2.34375-10.32812c.25-1.125.5-1.92188.73438-2.60938.25-.67187.625-.82812 1.25-.89062l.65624-.07813.10938-.59375h-4.95312l-.10938.59375.82813.09375c.60937.0625.96875.26563.96875.73438 0 .76562-.21875 1.625-.46875 2.75L12.57813-2.75H12.5c-1.8125-3.92187-3.59375-7.82812-5.35937-11.75h-4l-.125.59375 1.21875.10938c.35937.03125.54687.20312.54687.5625 0 .14062-.03125.29687-.07812.46875L2.71875-4.17187C2.48438-3.0625 2.23438-2.25 1.98438-1.5625c-.25.67188-.59375.82813-1.21875.89063l-.65625.0625Zm0 0"/><path id="d" d="M.67188-5.67187C.67188-2.20312 2.65625.3125 6.82813.3125c3.70312 0 5.51562-1.89062 6.67187-3.96875 1.14063-2.0625 1.34375-4.20312 1.34375-5.01562 0-4.3125-2.60937-6.17188-6.07812-6.17188-3.34375 0-5.42188 1.85938-6.64063 3.85938C.95313-9.03125.67188-7.04687.67188-5.67187M2.875-4.8125c0-1.76562.34375-3.73437 1.29688-5.76562.95312-1.98438 2.45312-3.51563 4.6875-3.51563 2.29687 0 3.76562 1.35938 3.76562 4.32813 0 1.20312-.10937 2.92187-.98437 5.14062C10.78125-2.35937 9.34375-.42187 6.625-.42187c-2.28125 0-3.75-1.46875-3.75-4.39063m0 0"/><path id="f" d="M.84375-2.14062C.84375-1.1875 2.32813.25 5.04688.25 8.5.25 10.0625-1.85937 10.0625-4.5c0-2.95312-1.82812-4.45312-4.32812-4.45312-1.15625 0-2.4375.51562-3.09375 1.125l.45312-3.96875c.07813-.54688.20313-.60938.60938-.60938h5.21875l.51562-1.42187-.10937-.1875h-7l-.20313.20312-.42187 7 .5.28125c.875-1.01562 1.71875-1.5 2.85937-1.5 1.34375 0 2.8125.98438 2.8125 3.75C7.875-2.125 7-.48437 5.17188-.48437c-1.46875 0-2.20313-1.0625-2.625-2.26563-.10938-.3125-.3125-.5-.60938-.5-.42187 0-1.09375.42188-1.09375 1.10938m0 0"/><path id="e" d="M.65625-.79687c0 .07812.17188.21874.375.21874.125 0 .35938-.03124.39063-.125l2.625-6.71874c.09375-.21875.10937-.32813.10937-.39063 0-.3125-.48437-.4375-.9375-.4375-.4375 0-1.14062.17188-1.1875.45313Zm0 0"/><path id="g" d="M1.03125-5.04687C1.03125-1.54687 2.75.25 5.89063.25c1.46875 0 3.45312-.76562 4.03125-3.01562l-.625-.29688c-.64063 1.48438-1.46875 2.21875-3 2.21875-2.5 0-3.07813-2.60937-3.07813-4.57812 0-3.125 1.21875-4.375 2.67188-4.375.95312 0 1.5625.6875 1.98437 1.82812.14063.34375.26563.53125.67188.53125.42187 0 1.21875-.26562 1.21875-1.0625 0-.95312-1.375-2.03125-3.65625-2.03125-3.8125 0-5.07813 2.70313-5.07813 5.48438m0 0"/><path id="h" d="M.67188 0h5.10937v-.60937c-1.5-.10938-1.5625-.15626-1.5625-1.21875v-4.90625c0-.54688 0-.82813.15625-1.125.40625-.84375 1.3125-1.53125 2.46875-1.53125 1.8125 0 2.03125 1.3125 2.03125 2.60937v4.95313c0 1.0625-.0625 1.10937-1.57812 1.21875V0h5.10937v-.60937c-1.5-.10938-1.5625-.15626-1.5625-1.21875v-4.90625c0-.54688.01563-.8125.15625-1.14063.3125-.84375 1.20313-1.51562 2.39063-1.51562 1.3125 0 2.10937.73437 2.10937 2.60937v4.95313c0 1.0625-.0625 1.10937-1.57812 1.21875V0h5.14062v-.60937c-1.5-.10938-1.59375-.15626-1.59375-1.21875V-7.1875c0-2.10937-1.14062-3.34375-3.125-3.34375-1.71875 0-2.9375 1.14063-3.67187 1.60938-.51563-.98438-1.32813-1.60938-2.79688-1.60938-1.60937 0-2.92187 1.07813-3.65625 1.60938l-.20312-1.60938L.78125-10v.51563l.78125.10937c.53125.09375.6875.1875.6875.9375v6.60938c0 1.0625-.0625 1.10937-1.57812 1.21875Zm0 0"/></defs><use xlink:href="#a" x="28.93968" y="66.75933"/><use xlink:href="#b" x="8.16378" y="53.6694"/><use xlink:href="#a" x="219.34025" y="35.02623"/><use xlink:href="#c" x="234.76194" y="21.93531"/><use xlink:href="#a" x="219.34025" y="66.75933"/><use xlink:href="#d" x="203.4946" y="84.26697"/><use xlink:href="#a" x="409.74083" y="66.75933"/><use xlink:href="#b" x="425.16252" y="86.61665"/><use xlink:href="#e" x="447.65091" y="77.69115"/><use xlink:href="#a" x="219.34025" y="98.49243"/><use xlink:href="#c" x="193.9267" y="118.34975"/><use xlink:href="#e" x="213.33394" y="109.42649"/><path fill="none" stroke="red" stroke-miterlimit="10" stroke-width=".39659" d="m228.2852 47.08593-2.80468-2.80468m0 31.73438 2.80469 2.80469M133.168 59.5664l-1.98047 3.96876m.49609-3.96875-1.98438 3.96875m190.8985 0 1.98437-3.96875m-.4961 3.96875 1.98048-3.96875"/><use xlink:href="#f" x="108.91333" y="24.00135"/><use xlink:href="#g" x="124.73112" y="24.00135"/><use xlink:href="#h" x="135.12685" y="24.00135"/><path fill="none" stroke="#000" stroke-dasharray="2.9745135043000004 2.9745135043000004" stroke-miterlimit="10" stroke-width=".09914" d="M36.48047 61.55078h380.8048M226.88287 29.8164v63.46877"/><path fill="none" stroke="#000" stroke-miterlimit="10" stroke-width=".39659" d="m36.48047 61.55078 190.4024-31.73438m190.40239 31.73438-190.4024 31.73439"/></svg>