<svg xmlns="http://www.w3.org/2000/svg" xmlns:xlink="http://www.w3.org/1999/xlink" width="82.739pt" height="66.729pt" viewBox="0 0 82.739 66.729"><defs><path id="b" d="m1.75-1.3125.51563.5 2.09375-2.125 2.125 2.125.48437-.5-2.10937-2.10937 2.10937-2.10938-.48437-.5-2.125 2.10938-2.09375-2.10938-.51563.5 2.125 2.10938Zm0 0"/><path id="c" d="M.39063-3.28125c0 2 1.14062 3.46875 3.5625 3.46875 2.14062 0 3.1875-1.10937 3.85937-2.29687.65625-1.1875.76563-2.4375.76563-2.90625 0-2.5-1.5-3.5625-3.5-3.5625-1.9375 0-3.14063 1.0625-3.85938 2.23437C.5625-5.23437.39063-4.07812.39063-3.28125m1.28125.5c0-1.03125.1875-2.15625.73437-3.34375.5625-1.14062 1.42188-2.03125 2.71875-2.03125 1.32813 0 2.1875.78125 2.1875 2.5 0 .70313-.07812 1.6875-.57812 2.98438S5.40625-.25 3.82813-.25c-1.3125 0-2.15625-.84375-2.15625-2.53125m0 0"/><clipPath id="a"><path d="M.03906 0H80v66.46094H.03906Zm0 0"/></clipPath></defs><g clip-path="url(#a)"><path fill="none" stroke="#000" stroke-miterlimit="10" stroke-width=".39689" d="m.23827 66.2617 73.42186-40.3828L36.93748.19922Zm0 0"/></g><use xlink:href="#b" x="69.30007" y="28.89166"/><use xlink:href="#c" x="69.17757" y="21.14214"/></svg>