<svg xmlns="http://www.w3.org/2000/svg" xmlns:xlink="http://www.w3.org/1999/xlink" width="461.831pt" height="111.707pt" viewBox="0 0 461.831 111.707"><defs><path id="a" d="m3.04688-2.28125.85937.875L7.5625-5.07812l3.65625 3.67187.85938-.875-3.65625-3.64062 3.65625-3.67188-.85938-.84375L7.5625-6.79687 3.90625-10.4375l-.85937.84375 3.65625 3.67188Zm0 0"/><path id="b" d="M-.40625 0h4.75l.125-.60937L3.3125-.71875c-.26562-.01562-.39062-.15625-.39062-.35937 0-.10938.04687-.26563.125-.42188.6875-1.34375 1.35937-2.70312 2.14062-4.10937h4.71875l.51563 4.32812s-.10938.51563-.5625.5625L8.75-.60937 8.625 0h5.17188l.14062-.60937-.8125-.0625c-.65625-.0625-.73437-.35938-.84375-1.23438l-1.54687-12.625h-1.5l-3.53125 6.1875c-1.07813 1.875-2.8125 5.01563-3.59375 6.26563C1.4375-.98437 1.07813-.76562.42188-.6875l-.6875.07813Zm6.01563-6.42187 3.42187-6.17188.76563 6.17188Zm0 0"/><path id="c" d="M.67188-5.67187C.67188-2.21875 2.65625.3125 6.84375.3125c3.70313 0 5.51563-1.90625 6.6875-3.98437C14.67188-5.71875 14.875-7.875 14.875-8.70312c0-4.3125-2.625-6.17188-6.09375-6.17188-3.34375 0-5.42187 1.85938-6.65625 3.875C.96875-9.0625.67188-7.0625.67188-5.67187m2.21875.84375c0-1.76563.32812-3.73438 1.29687-5.76563.95313-2 2.45313-3.53125 4.6875-3.53125 2.29688 0 3.78125 1.35938 3.78125 4.32813 0 1.20312-.10937 2.9375-.98437 5.17187-.875 2.25-2.29688 4.20313-5.03125 4.20313-2.28125 0-3.75-1.48438-3.75-4.40625m0 0"/><path id="d" d="M1.59375 0h4.9375v-.45312L5.35938-.5625C5.03125-.59375 4.875-.70312 4.875-1.25v-8.67187L4.78125-10l-3.17187.53125v.39063l1.26562.17187c.28125.04688.375.15625.375.60938V-1.25c0 .54688-.14062.65625-.48437.6875l-1.17188.10938Zm0 0"/><path id="e" d="M.42188-.17187.59375 0h6.23438l.53125-2.09375-.4375-.07812c-.34375.78125-.60938.89062-1.20313.89062H1.95313c.23437-.70312 1.01562-1.6875 2.45312-2.65625 1.48438-1 2.54688-1.6875 2.54688-3.29687C6.95313-9.28125 5.5625-10 3.9375-10 1.92188-10 .78125-8.84375.78125-7.95312c0 .53125.60938.78125.92188.78125.28124 0 .42187-.15625.48437-.4375.23438-1.03125.78125-1.84375 1.64063-1.84375 1.04687 0 1.375.89062 1.375 1.95312 0 1.42188-.64063 2.35938-2.03125 3.54688-1.875 1.625-2.53125 2.6875-2.75 3.78125m0 0"/></defs><use xlink:href="#a" x="159.66838" y="40.35715"/><use xlink:href="#b" x="144.9061" y="27.23856"/><use xlink:href="#a" x="32.45704" y="103.96331"/><use xlink:href="#c" x="7.97127" y="85.92562"/><use xlink:href="#d" x="22.83852" y="90.84472"/><use xlink:href="#a" x="414.09204" y="40.35715"/><use xlink:href="#c" x="429.5475" y="22.31946"/><use xlink:href="#e" x="444.41476" y="27.23856"/></svg>