<svg xmlns="http://www.w3.org/2000/svg" xmlns:xlink="http://www.w3.org/1999/xlink" width="367.323pt" height="69.994pt" viewBox="0 0 367.323 69.994"><defs><path id="b" d="M1-3.29687c0 2.64062.60938 5.53125 3.07813 5.64062v-.35937C3.25 1.82812 1.9375.79688 1.9375-3.29687c0-4.0625 1.25-5.09375 2.14063-5.28125v-.35938C1.60938-8.82812 1-5.9375 1-3.29687m0 0"/><path id="c" d="M.875-1.40625c0 .76563.21875 1.54688 1.17188 1.54688 1.34375 0 2.375-1.4375 3.0625-2.6875h.03125L4.75-1.15625c-.0625.23438-.09375.45313-.09375.625 0 .4375.1875.67188.60938.67188.92187 0 1.53125-.79688 1.92187-1.6875l-.26562-.15626c-.21875.40626-.73438 1.23438-1.0625 1.23438-.14063 0-.1875-.09375-.1875-.23437 0-.10938.03125-.23438.07812-.40625L7.59375-8.625l-.0625-.04687-2.07812.28125-.0625.26562.6875.0625c.1875.01563.26562.0625.26562.20313q0 .09375-.04687.28125l-.45313 1.875-.01562.03125c-.23438-.10938-.59375-.20313-.98438-.20313C2.10938-5.875.875-2.82812.875-1.40625m1.15625.09375c0-1.26562 1.01563-4.14062 2.875-4.14062.375 0 .67188.10937.8125.23437-.17187.89063-.5625 2-1.15625 2.96875C4-1.34375 3.23438-.46875 2.60938-.46875c-.375 0-.57813-.3125-.57813-.84375m0 0"/><path id="d" d="M.70313 1.98438v.35937c2.46875-.10937 3.0625-3 3.0625-5.64062S3.17188-8.82812.70313-8.9375v.35938c.89062.1875 2.125 1.21875 2.125 5.28125 0 4.09375-1.29688 5.125-2.125 5.28125m0 0"/><path id="e" d="m1.6875-1.26562.48438.48437 2.03125-2.04687L6.25-.78125l.46875-.48437L4.6875-3.29687l2.03125-2.03125L6.25-5.8125 4.20313-3.78125 2.17188-5.8125l-.48438.48438 2.04688 2.03125Zm0 0"/><path id="f" d="M0 0h2.76563l.0625-.32812L2.35938-.375c-.34375-.01562-.53125-.10937-.53125-.35937 0-.625.10937-.96875.25-1.59375l1.0625-4.76563h.03125L4.57813-.14062h.32812l4.54688-6.95313h.03125l-1.4375 6.125c-.09375.39063-.21875.53125-.5.5625l-.625.07813L6.84375 0h3.1875l.0625-.32812-.6875-.07813c-.21875-.01562-.29687-.10937-.29687-.29687 0-.07813 0-.17188.03125-.26563l1.40625-6.14062c.09375-.40625.1875-.5625.48437-.59375l.64063-.04688.09375-.32812H9.48438c-.625 1.0625-1.32813 2.10937-2.03125 3.1875l-2.0625 3.15625h-.04688L4.6875-4.96875c-.23437-1.0625-.46875-2.07812-.67187-3.10937H1.75L1.67188-7.75l.6875.0625c.20312.01563.29687.10938.29687.3125 0 .07813 0 .15625-.03125.26563L1.51563-2.32812C1.375-1.70312 1.25-1.25 1.10938-.875s-.34375.46875-.6875.5L.0625-.32812Zm0 0"/><path id="g" d="M0 0h2.76563l.0625-.32812L2.35938-.375c-.34375-.01562-.53125-.09375-.53125-.34375 0-.625.10937-.98437.25-1.60937l1.09375-4.78125h.03125C4.29688-4.73437 5.39063-2.375 6.45313 0h.76562l1.29688-5.76562c.14062-.60938.28125-1.0625.42187-1.45313.125-.375.34375-.45312.6875-.5L9.98438-7.75l.0625-.32812H7.28125l-.0625.32812.46875.04688c.34375.04687.54688.15625.54688.42187 0 .42188-.125.90625-.26563 1.51563l-.95312 4.23437h-.04688c-1.01562-2.1875-2-4.35937-2.98437-6.54687H1.75L1.67188-7.75l.6875.0625c.20312.01563.29687.10938.29687.3125 0 .07813 0 .15625-.03125.26563L1.51563-2.32812C1.375-1.70312 1.25-1.25 1.10938-.875s-.34375.46875-.6875.5L.0625-.32812Zm0 0"/><clipPath id="a"><path d="M0 .0625h360V42H0Zm0 0"/></clipPath></defs><g clip-path="url(#a)"><path fill="none" stroke="#000" stroke-miterlimit="10" stroke-width=".39777" d="M.19922 35.6289 353.8827.25783"/></g><use xlink:href="#b" x="345.25068" y="13.57748"/><use xlink:href="#c" x="350.02395" y="13.57748"/><use xlink:href="#d" x="357.73079" y="13.57748"/><use xlink:href="#e" x="172.83745" y="56.21489"/><use xlink:href="#f" x="181.43061" y="65.78326"/><use xlink:href="#e" x="31.36519" y="34.99401"/><use xlink:href="#g" x="21.50437" y="27.69945"/></svg>