<svg xmlns="http://www.w3.org/2000/svg" xmlns:xlink="http://www.w3.org/1999/xlink" width="304.834pt" height="71.265pt" viewBox="0 0 304.834 71.265"><defs><clipPath id="a"><path d="M54 0h88v70.53906H54Zm0 0"/></clipPath><clipPath id="b"><path d="M141.95703 35.26953c0-19.3711-31.40234-35.07031-70.14453-35.07031-38.73828 0-70.14453 15.69922-70.14453 35.07031S33.07422 70.33984 71.8125 70.33984c38.74219 0 70.14453-15.69921 70.14453-35.0703m0 0"/></clipPath><clipPath id="e"><path d="M1.47266 0H148v70.53906H1.47266Zm0 0"/></clipPath><clipPath id="f"><path d="M48 0h153v70.53906H48Zm0 0"/></clipPath><path id="c" d="M-.21875 0h2.60938l.07812-.32812-.64062-.0625c-.15626-.01563-.21876-.09375-.21876-.20313 0-.0625.03126-.14062.0625-.23437.39063-.73438.75-1.48438 1.1875-2.26563h2.60938L5.75-.70312s-.0625.28124-.3125.3125l-.625.0625L4.76563 0h2.84375l.07812-.32812L7.23438-.375c-.35938-.03125-.40625-.1875-.46875-.67187l-.84375-6.96875h-.82813L3.14063-4.59375c-.59375 1.03125-1.54688 2.75-1.98438 3.45313-.375.59375-.5625.71875-.92187.76562l-.375.04688Zm3.3125-3.53125L4.98438-6.9375l.42187 3.40625Zm0 0"/><path id="d" d="M0 0h3.51563C6.3125 0 6.875-1.4375 6.875-2.40625c0-1.21875-.89062-1.75-1.75-1.90625l.01563-.03125c1.54687-.1875 2.1875-1.0625 2.1875-1.9375 0-.9375-.54688-1.73437-2.6875-1.73437H1.71875l-.07812.32812.6875.0625c.20312.01563.28125.10938.28125.29688 0 .0625-.01563.17187-.04688.28125L1.20313-.96875C1.10937-.57812 1-.4375.71875-.40625L.0625-.32812Zm2.3125-.89062c0-.07813.01563-.17188.04688-.25L3.01563-4.125h.45312c1.15625 0 2.17188.34375 2.17188 1.65625 0 1.03125-.64063 2.0625-2.1875 2.0625-.90625 0-1.14063-.1875-1.14063-.48437m.79688-3.64063.59375-2.6875c.09375-.34375.15625-.40625.9375-.40625.96875 0 1.51562.5 1.51562 1.3125 0 1.20313-1.01562 1.78125-2.29687 1.78125Zm0 0"/><path id="g" d="M.98438 0h.6875v-4.21875c0-.9375 1.34375-1.65625 2.5-1.65625 1.10937 0 2.51562.71875 2.51562 1.65625V0h.67188v-4.21875c0-1.42187-1.53125-2.3125-3.1875-2.3125-1.67188 0-3.1875.89063-3.1875 2.3125Zm0 0"/></defs><g clip-path="url(#a)"><g clip-path="url(#b)"><path fill="#9CC" d="M194.5664 35.26953c0-19.3711-31.40624-35.07031-70.14452-35.07031-38.7422 0-70.14454 15.69922-70.14454 35.07031s31.40235 35.07031 70.14453 35.07031c38.73829 0 70.14454-15.69921 70.14454-35.0703m0 0"/></g></g><use xlink:href="#c" x="32.76702" y="39.27493"/><use xlink:href="#d" x="155.70212" y="39.27493"/><g clip-path="url(#e)"><path fill="none" stroke="#000" stroke-miterlimit="10" stroke-width=".39443" d="M141.95706 35.26953c0-19.3711-31.40236-35.07032-70.14456-35.07032-38.7383 0-70.14455 15.69922-70.14455 35.07032S33.0742 70.33986 71.8125 70.33986c38.7422 0 70.14456-15.69923 70.14456-35.07033Zm0 0"/></g><g clip-path="url(#f)"><path fill="none" stroke="#000" stroke-miterlimit="10" stroke-width=".39443" d="M194.56645 35.26953c0-19.3711-31.40626-35.07032-70.14456-35.07032-38.7422 0-70.14455 15.69922-70.14455 35.07032s31.40235 35.07033 70.14455 35.07033c38.7383 0 70.14456-15.69923 70.14456-35.07033Zm0 0"/></g><path fill="#9CC" stroke="#000" stroke-miterlimit="10" stroke-width=".39443" d="M264.7071 44.03907V26.5h-35.07033v17.53907Zm0 0"/><use xlink:href="#c" x="269.06098" y="39.27493"/><use xlink:href="#g" x="280.0929" y="39.27493"/><use xlink:href="#d" x="291.50694" y="39.27493"/></svg>