<svg xmlns="http://www.w3.org/2000/svg" xmlns:xlink="http://www.w3.org/1999/xlink" width="176.193pt" height="217.273pt" viewBox="0 0 176.193 217.273"><defs><path id="a" d="M0 0h5.65625c4.5 0 5.40625-2.3125 5.40625-3.85937 0-1.96875-1.45312-2.82813-2.8125-3.07813l.01563-.04687c2.48437-.29688 3.53125-1.70313 3.53125-3.10938 0-1.5-.89063-2.79687-4.32813-2.79687H2.75l-.10937.53125L3.75-12.25c.3125.01563.45313.15625.45313.45313 0 .125-.04688.28125-.07813.45312L1.92188-1.54687c-.14063.60937-.3125.82812-.76563.89062l-1.0625.125Zm3.73438-1.42187q0-.21095.04687-.42188L4.85938-6.625h.73437c1.84375 0 3.46875.53125 3.46875 2.65625 0 1.67188-1.01562 3.3125-3.51562 3.3125-1.46875 0-1.8125-.29687-1.8125-.76562M5-7.28125l.96875-4.3125c.14063-.5625.23438-.65625 1.48438-.65625 1.5625 0 2.4375.79688 2.4375 2.09375 0 1.95313-1.625 2.875-3.6875 2.875Zm0 0"/><path id="d" d="M0 0h5.09375l.125-.53125-1.10937-.10937C3.78125-.65625 3.625-.79688 3.625-1.09375c0-.10937.04688-.28125.07813-.45312L4.71875-6.0625h1.125c1.8125 0 2.0625.4375 2.0625 2.60938C7.90625-1.1875 7.90625 0 9.875 0h1.45313L11.5-.53125c-1.3125-.1875-1.76562-.23437-1.76562-2.64062 0-1.90625-.15625-2.71875-1.70313-3.23438 2.28125-.3125 3.82813-1.64062 3.82813-3.48437 0-1.32813-.57813-3-4.0625-3H2.78125l-.14062.53125 1.10937.07812c.3125.03125.45313.1875.45313.5 0 .125-.01563.26563-.0625.4375L1.90625-1.54687c-.15625.65625-.3125.85937-.78125.89062l-1.03125.125Zm4.875-6.71875 1.09375-4.82812c.14063-.53125.20313-.70313 1.60938-.70313 1.20312 0 2.32812.53125 2.32812 2.15625 0 2.21875-1.4375 3.375-3.84375 3.375Zm0 0"/><path id="b" d="M1.42188 0h4.375v-.40625L4.75-.5c-.29687-.03125-.4375-.125-.4375-.60937V-8.8125l-.07812-.0625-2.79688.46875v.34375l1.125.15625c.25.04688.32813.14063.32813.54688v6.25c0 .48437-.125.57812-.4375.60937l-1.03125.09375Zm0 0"/><path id="c" d="M.375-.15625.53125 0H6.0625l.46875-1.85937-.39062-.07813c-.3125.70313-.54688.79688-1.07813.79688H1.73438c.20312-.625.90625-1.5 2.17187-2.34375 1.3125-.89063 2.26563-1.5 2.26563-2.9375 0-1.8125-1.23438-2.45313-2.6875-2.45313C1.70313-8.875.6875-7.84375.6875-7.0625c0 .48438.54688.70313.82813.70313.25 0 .375-.14063.42187-.39063.21875-.92187.70313-1.64062 1.46875-1.64062.90625 0 1.20313.79687 1.20313 1.73437 0 1.26563-.5625 2.09375-1.79688 3.15625C1.15625-2.0625.5625-1.125.375-.15625m0 0"/><path id="e" d="M.5625-1.39062c0 .5625.84375 1.54687 2.6875 1.54687 2.21875 0 3.17188-1.32812 3.17188-2.96875 0-1.65625-1-2.76562-2.75-2.76562-.76563 0-1.53125.32812-1.98438.70312l.28125-2.29687c.0625-.35938.10938-.40625.39063-.40625h3.3125l.375-1.01563-.09375-.125H1.4375l-.125.125-.25 4.34375.375.21875c.51563-.625 1.03125-.90625 1.73438-.90625.84375 0 1.70312.625 1.70312 2.28125 0 1.34375-.5 2.32813-1.5625 2.32813-.82812 0-1.26562-.60938-1.5625-1.45313-.07812-.21875-.21875-.35937-.4375-.35937-.3125 0-.75.28125-.75.75m0 0"/><path id="f" d="M.35938-1.39062c0 .54687.85937 1.54687 2.82812 1.54687 1.95313 0 3.15625-.95312 3.15625-2.60937 0-1.78125-1.53125-2.25-2.20312-2.32813v-.04687c.70312-.125 1.82812-.64063 1.82812-1.92188 0-1.53125-1.25-2.125-2.64062-2.125-1.65625 0-2.64063.92188-2.64063 1.59375 0 .45313.51563.6875.75.6875.1875 0 .29688-.125.375-.32812.28125-.90625.73438-1.46875 1.4375-1.46875.96875 0 1.20313.92187 1.20313 1.60937 0 .70313-.21875 1.76563-1.28125 1.76563-.60938 0-.98438-.14063-1.1875-.14063-.1875 0-.26563.15625-.26563.40625s.07813.40625.26563.40625c.20312 0 .57812-.14062 1.1875-.14062 1 0 1.625.82812 1.625 2.07812 0 1.5-.70313 2.07813-1.59375 2.07813-.78125 0-1.32813-.60938-1.60938-1.45313-.07812-.25-.21875-.39062-.42187-.39062-.29688 0-.8125.28125-.8125.78125m0 0"/></defs><path fill="none" stroke="#000" stroke-miterlimit="10" stroke-width=".39668" d="m.19922 108.27344 56.43361-56.43361M.19922 108.27344l56.43361 56.43752M96.13675 51.83983l45.14845-28.21876"/><use xlink:href="#a" x="69.29661" y="56.10511"/><use xlink:href="#b" x="80.89946" y="60.46713"/><use xlink:href="#a" x="148.29179" y="27.88735"/><use xlink:href="#c" x="159.89465" y="32.25136"/><path fill="none" stroke="#000" stroke-miterlimit="10" stroke-width=".39668" d="m96.13675 51.83983 45.14845 28.21875"/><use xlink:href="#d" x="148.29179" y="84.32187"/><use xlink:href="#c" x="160.54965" y="88.68588"/><path fill="none" stroke="#000" stroke-miterlimit="10" stroke-width=".39668" d="m96.13675 164.71096 45.14845-28.21876"/><use xlink:href="#d" x="68.6426" y="168.97315"/><use xlink:href="#b" x="80.90046" y="173.33716"/><use xlink:href="#a" x="148.29179" y="140.75638"/><use xlink:href="#c" x="159.89465" y="145.1204"/><path fill="none" stroke="#000" stroke-miterlimit="10" stroke-width=".39668" d="m96.13675 164.71096 45.14845 28.21876"/><use xlink:href="#d" x="148.29179" y="197.1909"/><use xlink:href="#c" x="160.54965" y="201.55491"/><use xlink:href="#c" x="24.89498" y="57.94269"/><path fill="none" stroke="#000" stroke-miterlimit="10" stroke-width="1.091" d="M24.89453 60.66016h7.03906"/><use xlink:href="#e" x="24.89498" y="72.8962"/><use xlink:href="#f" x="24.89498" y="152.37119"/><path fill="none" stroke="#000" stroke-miterlimit="10" stroke-width="1.091" d="M24.89453 155.08984h7.03906"/><use xlink:href="#e" x="24.89498" y="167.32669"/><use xlink:href="#c" x="109.54825" y="15.61655"/><path fill="none" stroke="#000" stroke-miterlimit="10" stroke-width="1.091" d="M109.54688 18.33594h7.04296"/><use xlink:href="#e" x="109.54825" y="30.57205"/><use xlink:href="#f" x="109.54825" y="81.82829"/><path fill="none" stroke="#000" stroke-miterlimit="10" stroke-width="1.091" d="M109.54688 84.54687h7.04296"/><use xlink:href="#e" x="109.54825" y="96.78379"/><use xlink:href="#c" x="109.54825" y="128.48559"/><path fill="none" stroke="#000" stroke-miterlimit="10" stroke-width="1.091" d="M109.54688 131.20312h7.04296"/><use xlink:href="#e" x="109.54825" y="143.4391"/><use xlink:href="#f" x="109.54825" y="194.69732"/><path fill="none" stroke="#000" stroke-miterlimit="10" stroke-width="1.091" d="M109.54688 197.41406h7.04296"/><use xlink:href="#e" x="109.54825" y="209.65283"/></svg>