<svg xmlns="http://www.w3.org/2000/svg" xmlns:xlink="http://www.w3.org/1999/xlink" width="174.539pt" height="216.966pt" viewBox="0 0 174.539 216.966"><defs><path id="a" d="M0 0h5.3125l.09375-.53125-1.29687-.125c-.3125-.01562-.45313-.15625-.45313-.45312 0-.125.01563-.26563.0625-.4375l.82813-3.6875H5.9375c1.59375 0 3.0625-.21875 4.14063-.875 1.1875-.73438 1.89062-2 1.89062-3.39063 0-1.26562-.59375-2.25-1.51562-2.76562-.875-.5-2.0625-.65625-3.29688-.65625h-4.375l-.14062.54687 1.10937.07813c.32813.01562.46875.17187.46875.48437 0 .125-.03125.26563-.0625.4375l-2.25 9.82813c-.15625.625-.3125.84375-.76562.89062l-1.04688.125Zm4.8125-6.28125c0-.125.01563-.23437.0625-.39062L6-11.625c.125-.48437.23438-.65625 1.1875-.65625 1.85938 0 2.8125.875 2.8125 2.46875 0 2.65625-1.5 3.92188-4.01562 3.92188-.95313 0-1.17188-.09375-1.17188-.39063m0 0"/><path id="d" d="M.20313 0H5.625l.125-.53125-1.42187-.10937C4-.65625 3.85938-.8125 3.85938-1.09375c0-.125.01562-.23437.0625-.39062l1.03125-4.625H7.4375c1.35938 0 1.625.26562 1.625 1.0625 0 .15625 0 .34375-.01562.53125h.54687l.875-3.90625h-.54687C9.4375-7.10937 9.21875-6.8125 7.57813-6.8125H5.10938l1.10937-4.89062c.125-.48438.21875-.57813.5625-.57813H9.0625c1.82813 0 2.1875.46875 2.1875 1.46875 0 .48438-.0625.96875-.0625.96875h.57813l.70312-3.07812h-9.5l-.125.54687 1.10938.09375c.3125.01563.45312.17188.45312.46875 0 .10938-.01562.25-.04687.39063L2.125-1.48437c-.14062.54687-.3125.8125-.78125.84375L.29688-.53125Zm0 0"/><path id="b" d="M1.42188 0h4.375v-.40625L4.75-.5c-.28125-.03125-.42187-.125-.42187-.60937V-8.8125l-.09375-.07812-2.79688.48437v.34375l1.125.15625c.25.03125.32813.125.32813.53125v6.26563c0 .48437-.125.57812-.42188.60937l-1.04687.09375Zm0 0"/><path id="c" d="M.375-.15625.53125 0H6.0625l.46875-1.85937-.39062-.07813c-.29688.70313-.53125.79688-1.0625.79688H1.73438c.21874-.625.90625-1.5 2.17187-2.34375C5.23438-4.375 6.17188-5 6.17188-6.42187c0-1.82813-1.23438-2.46875-2.6875-2.46875C1.70313-8.89062.6875-7.85937.6875-7.0625c0 .46875.54688.6875.82813.6875.25 0 .375-.14062.4375-.39062.20312-.90625.6875-1.64063 1.45312-1.64063.92188 0 1.20313.79688 1.20313 1.75 0 1.26563-.5625 2.09375-1.78125 3.15625C1.15625-2.07812.5625-1.125.375-.15625m0 0"/></defs><path fill="none" stroke="#000" stroke-miterlimit="10" stroke-width=".39745" d="M.19922 108.46484 56.7422 51.92186M.19922 108.46484l56.54298 56.5469M96.32425 51.92186l45.23438-28.27345"/><use xlink:href="#a" x="71.08026" y="56.1951"/><use xlink:href="#b" x="81.05591" y="60.56756"/><use xlink:href="#a" x="148.57857" y="27.92378"/><use xlink:href="#c" x="158.55422" y="32.29423"/><path fill="none" stroke="#000" stroke-miterlimit="10" stroke-width=".39745" d="m96.32425 51.92186 45.23438 28.27344"/><use xlink:href="#d" x="148.57857" y="84.46743"/><use xlink:href="#c" x="159.21049" y="88.83789"/><path fill="none" stroke="#000" stroke-miterlimit="10" stroke-width=".39745" d="m96.32425 165.01174 45.23438-28.27345"/><use xlink:href="#d" x="70.42399" y="169.28241"/><use xlink:href="#b" x="81.05591" y="173.65487"/><use xlink:href="#a" x="148.57857" y="141.01009"/><use xlink:href="#c" x="158.55422" y="145.38254"/><path fill="none" stroke="#000" stroke-miterlimit="10" stroke-width=".39745" d="m96.32425 165.01174 45.23438 28.26953"/><use xlink:href="#d" x="148.57857" y="197.55374"/><use xlink:href="#c" x="159.21049" y="201.92619"/><use xlink:href="#b" x="24.94312" y="58.18884"/><path fill="none" stroke="#000" stroke-miterlimit="10" stroke-width="1.09311" d="M24.9414 60.91016h7.0547"/><use xlink:href="#c" x="24.94312" y="73.17326"/><use xlink:href="#b" x="24.94312" y="152.64835"/><path fill="none" stroke="#000" stroke-miterlimit="10" stroke-width="1.09311" d="M24.9414 155.3711h7.0547"/><use xlink:href="#c" x="24.94312" y="167.63078"/><use xlink:href="#b" x="109.7601" y="15.78185"/><path fill="none" stroke="#000" stroke-miterlimit="10" stroke-width="1.09311" d="M109.76172 18.5039h7.05078"/><use xlink:href="#c" x="109.7601" y="30.76627"/><use xlink:href="#b" x="109.7601" y="81.96903"/><path fill="none" stroke="#000" stroke-miterlimit="10" stroke-width="1.09311" d="M109.76172 84.6914h7.05078"/><use xlink:href="#c" x="109.7601" y="96.95146"/><use xlink:href="#b" x="109.7601" y="128.86816"/><path fill="none" stroke="#000" stroke-miterlimit="10" stroke-width="1.09311" d="M109.76172 131.58984h7.05078"/><use xlink:href="#c" x="109.7601" y="143.85258"/><use xlink:href="#b" x="109.7601" y="195.05534"/><path fill="none" stroke="#000" stroke-miterlimit="10" stroke-width="1.09311" d="M109.76172 197.77734h7.05078"/><use xlink:href="#c" x="109.7601" y="210.03976"/></svg>