<svg xmlns="http://www.w3.org/2000/svg" xmlns:xlink="http://www.w3.org/1999/xlink" width="535.489pt" height="63.763pt" viewBox="0 0 535.489 63.763"><defs><path id="a" d="M.48438-3.89062c0 2.32812.6875 4.03125 2.60937 4.03125S5.70313-1.5625 5.70313-3.89062c0-2.34375-.6875-4.03125-2.60938-4.03125S.48438-6.23437.48438-3.89062m1.17187 0c0-1.90625.32813-3.625 1.4375-3.625 1.09375 0 1.42188 1.71875 1.42188 3.625 0 1.89062-.32813 3.625-1.42188 3.625-1.10937 0-1.4375-1.73438-1.4375-3.625m0 0"/><path id="v" d="m.59375 1.42188.21875.23437C1.40625 1.10938 2.25.32813 2.25-.59375c0-.625-.34375-1.0625-.78125-1.0625-.35937 0-.59375.29688-.59375.59375 0 .42188.39063.64063.39063 1.14063 0 .48437-.29688.9375-.67188 1.34375m0 0"/><path id="w" d="M.46875-1.1875c0 .53125.82813 1.32813 2.32813 1.32813 1.9375 0 2.79687-1.17188 2.79687-2.64063 0-1.64062-1.01562-2.46875-2.40625-2.46875-.64062 0-1.34375.28125-1.71875.60938l.25-2.20313c.04688-.29687.125-.32812.34375-.32812h2.90625L5.25-7.6875l-.0625-.10937H1.29688l-.125.125L.9375-3.78125l.29688.14063c.48437-.54688.95312-.82813 1.57812-.82813.75 0 1.5625.54688 1.5625 2.09375 0 1.20313-.48437 2.10938-1.5 2.10938-.8125 0-1.21875-.59375-1.45312-1.26563-.0625-.17187-.1875-.28125-.34375-.28125-.23438 0-.60938.23438-.60938.625m0 0"/><path id="J" d="M1.26563 0h3.82812v-.32812L4.125-.42187C3.875-.45312 3.73438-.53125 3.73438-1v-6.85937l-.0625-.0625-2.40625.40625v.28125l1.09375.14062c.20312.01563.26562.10938.26562.4375V-1c0 .46875-.10937.54688-.375.57813l-.98437.09375Zm0 0"/><path id="b" d="M.40625 0h3.25v-.32812C2.64063-.40625 2.625-.42187 2.625-1.07812v-5.90625c0-.65625.01563-.67188 1.03125-.75v-.32813h-3.25v.32813c1.03125.07812 1.0625.09375 1.0625.75v5.90625c0 .65625-.03125.67187-1.0625.75Zm0 0"/><path id="c" d="M.375 0h2.84375v-.32812c-.84375-.0625-.875-.09375-.875-.6875V-3.75c0-.29687 0-.45312.09375-.60937.21875-.48438.71875-.85938 1.375-.85938 1 0 1.125.73438 1.125 1.45313v2.75c0 .59375-.03125.625-.875.6875V0h2.82813v-.32812c-.82813-.0625-.85938-.09375-.85938-.6875V-3.75c0-.29687.01563-.4375.07813-.625.1875-.46875.67187-.84375 1.32812-.84375.73438 0 1.1875.40625 1.1875 1.45313v2.75c0 .59375-.04687.625-.89062.6875V0h2.85937v-.32812c-.82812-.0625-.875-.09375-.875-.6875V-4c0-1.17187-.64062-1.85937-1.73437-1.85937-.96875 0-1.64063.64062-2.04688.89062-.29687-.54687-.73437-.89062-1.5625-.89062-.89062 0-1.625.59375-2.03125.89062l-.10937-.89062L.4375-5.5625v.29688l.4375.0625c.29688.04687.375.09375.375.51562v3.67188c0 .59375-.03125.625-.875.6875Zm0 0"/><path id="d" d="M.29688 2.34375v.34375H3.3125v-.34375c-.98437-.0625-1.04687-.07812-1.04687-.6875V-.125C2.5.01563 3.0625.14063 3.59375.14063c1.57813 0 2.92188-.71875 2.92188-3.125 0-.84375-.15625-2.875-2.26563-2.875-.85937 0-1.53125.57812-1.98437.875l-.15625-.875-1.76563.29687v.29688l.45313.0625c.29687.04687.375.09375.375.51562v6.34375c0 .60938-.0625.625-.875.6875m1.96875-4.1875V-3.75c0-.29687.04687-.4375.15625-.65625.26562-.53125.75-.8125 1.375-.8125.46875 0 1.51562.29688 1.51562 2.29688 0 1.71875-.54687 2.65625-1.71875 2.65625-.60937 0-1.0625-.3125-1.25-.84375-.07812-.21876-.07812-.45313-.07812-.73438m0 0"/><path id="e" d="M.57813-2.85937c0 1.89062.92187 3 2.79687 3s2.79688-1.10938 2.79688-3c0-1.875-.92188-3-2.79688-3s-2.79687 1.125-2.79687 3m1.20312 0c0-1.60938.53125-2.59375 1.59375-2.59375s1.59375.98437 1.59375 2.59375c0 1.625-.53125 2.59375-1.59375 2.59375s-1.59375-.96875-1.59375-2.59375m0 0"/><path id="f" d="m.54688-1.95312.125 1.53125c.42187.375 1.125.5625 1.8125.5625 1.39062 0 2.1875-.73438 2.1875-1.73438 0-1.03125-.64063-1.48437-1.84375-1.85937C2.34375-3.59375 1.59375-3.84375 1.59375-4.5c0-.60937.45313-.95312 1.03125-.95312.84375 0 1.23438.65625 1.3125 1.35937h.34375v-1.35937c-.39062-.29688-.98437-.40625-1.5-.40625-1.26562 0-2.125.59375-2.125 1.70312 0 .96875.79688 1.40625 1.76563 1.70313.51562.15625 1.25.42187 1.25 1.21875 0 .59375-.45313.96875-1.07813.96875-.9375 0-1.48437-.6875-1.71875-1.6875Zm0 0"/><path id="g" d="M1.0625-7.625c0 .42188.29688.71875.71875.71875S2.5-7.20312 2.5-7.625s-.29687-.71875-.71875-.71875-.71875.29688-.71875.71875M.375 0h2.84375v-.32812c-.84375-.0625-.875-.09375-.875-.6875v-4.76563l-.07812-.07812L.4375-5.5625v.29688l.4375.0625c.29688.04687.375.09375.375.51562v3.67188c0 .59375-.03125.625-.875.6875Zm0 0"/><path id="h" d="m.23438-8.0625.45312.03125c.29688.04688.35938.10938.35938.54688V.04688l.21874.09375.45313-.45313C2.14063-.07812 2.625.14063 3.5.14063c1.54688 0 2.90625-.75 2.90625-3.125 0-.71875-.15625-2.875-2.25-2.875-.875 0-1.57812.57812-2.01562.82812v-3.54687l-.07813-.0625-1.82812.28125Zm1.90625 6.17188V-3.75c0-.29687.01562-.46875.125-.65625.28125-.5625.76562-.8125 1.42187-.8125.48438 0 1.5.26563 1.5 2.29688 0 1.71875-.51562 2.65625-1.67187 2.65625-.625 0-1.07813-.3125-1.28125-.90625-.07813-.20313-.09375-.4375-.09375-.71875m0 0"/><path id="i" d="M.23438 0h2.84375v-.32812c-.82813-.0625-.875-.09375-.875-.6875v-7.5625l-.07813-.0625-1.82812.28125v.29687l.4375.03125c.29687.04688.375.10938.375.54688v6.46875c0 .59375-.03126.625-.875.6875Zm0 0"/><path id="j" d="M.57813-2.8125c0 1.84375.78125 2.95313 2.6875 2.95313 1.28125 0 1.95312-.71875 2.26562-1.64063l-.34375-.1875C4.85938-1 4.42188-.45312 3.5-.45312c-1.45312 0-1.73437-1.39063-1.71875-2.60938h3.375c.23438 0 .45313-.0625.45313-.45312 0-.67188-.21875-2.34375-2.35938-2.34375-1.82812 0-2.67187 1.29687-2.67187 3.04687m1.21875-.70312c0-.48438.17187-1.9375 1.39062-1.9375 1.07813 0 1.20313 1.10937 1.20313 1.5625 0 .23437-.07813.375-.39063.375Zm0 0"/><path id="x" d="M.32813-7.73437c1.03125.07812 1.0625.09375 1.0625.75v4.03125c0 .6875.10937 1.29687.3125 1.70312C2.23438-.10937 3.46875.17188 4.60938.17188c1.14062 0 2.375-.26563 2.90625-1.42188.20312-.40625.32812-1.03125.32812-1.73437v-4c0-.65625.01563-.67188 1.04688-.75v-.32813H5.625v.32813c1.03125.07812 1.0625.09375 1.0625.75v3.78125c0 1.10937-.1875 1.79687-.53125 2.26562-.35937.48438-.875.70313-1.54687.70313-.67188 0-1.1875-.21875-1.54688-.70313-.34375-.46875-.51562-1.15625-.51562-2.26562v-3.78125c0-.65625.03125-.67188 1.04687-.75v-.32813H.32813Zm0 0"/><path id="y" d="M.375 0h2.84375v-.32812c-.84375-.0625-.875-.09375-.875-.6875V-3.75c0-.29687.01563-.4375.10938-.625.25-.46875.76562-.84375 1.39062-.84375.79688 0 1.23438.4375 1.23438 1.45313v2.75c0 .59375-.04688.625-.89063.6875V0h2.85938v-.32812c-.82813-.0625-.875-.09375-.875-.6875V-4c0-1.17187-.65625-1.85937-1.71875-1.85937-.875 0-1.40625.42187-2.125.89062l-.15625-.89062L.4375-5.5625v.29688l.4375.0625c.29688.04687.375.09375.375.51562v3.67188c0 .59375-.03125.625-.875.6875Zm0 0"/><path id="z" d="M.57813-2.79687c0 1.9375.95312 2.9375 2.70312 2.9375.8125 0 1.92188-.42188 2.23438-1.67188l-.34375-.17187C4.8125-.875 4.35938-.46875 3.5-.46875c-1.39062 0-1.71875-1.45312-1.71875-2.54687 0-1.73438.6875-2.4375 1.5-2.4375.53125 0 .85938.39062 1.09375 1.03125.07813.17187.15625.29687.375.29687.23438 0 .6875-.15625.6875-.60937 0-.53125-.76562-1.125-2.03125-1.125-2.125 0-2.82812 1.5-2.82812 3.0625m0 0"/><path id="A" d="M.25 0h2.82813v-.32812c-.8125-.0625-.875-.125-.875-.6875V-3.75c0-.29687 0-.4375.10937-.60937.25-.48438.78125-.85938 1.39063-.85938.79687 0 1.23437.4375 1.23437 1.45313v2.75c0 .5625-.0625.625-.875.6875V0h2.82813v-.32812c-.79688-.0625-.85938-.125-.85938-.6875V-4c0-1.17187-.64062-1.85937-1.71875-1.85937-.85937 0-1.39062.40625-2.10937.89062v-3.60937l-.09375-.0625-1.8125.28125v.29687l.4375.04688c.29687.04687.375.10937.375.53125v6.46875c0 .5625-.04688.625-.85938.6875Zm0 0"/><path id="B" d="M.57813-1.51562c0 .875.57812 1.65625 1.67187 1.65625.67188 0 1.35938-.45313 1.73438-.70313.15625.4375.35937.70313.76562.70313.4375 0 .9375-.125 1.375-.34375l-.07812-.28126c-.15625.03125-.42188.04688-.59375 0C5.25-.53124 5.04688-.75 5.04688-1.46874V-4.3125c0-.67187-.14063-1.54687-1.90625-1.54687-1.3125 0-2.35938.6875-2.35938 1.32812 0 .375.4375.54688.65625.54688.25 0 .3125-.125.375-.32813.26563-.85937.73438-1.14062 1.20313-1.14062.45312 0 .98437.25.98437 1.17187v.48438c-.29687.29687-1.4375.59375-2.34375.89062C.8125-2.64062.57813-2.0625.57813-1.51562M1.75-1.67188C1.75-2.21875 2-2.5 2.65625-2.75 3.125-2.92187 3.73438-3.15625 4-3.3125v1.65625c0 .9375-.71875 1.17188-1.1875 1.17188C2.09375-.48437 1.75-1 1.75-1.67187m0 0"/><path id="C" d="m.29688-5.26562.45312.0625c.29688.04687.35938.09375.35938.51562v3.07813c0 1.34375.79687 1.75 1.67187 1.75.98438 0 1.79688-.67188 2.125-.82813l.125.6875h1.85938v-.32812c-.79688-.0625-.875-.09375-.875-.6875v-4.76563l-.07813-.07812-1.82812.29687v.29688l.4375.0625c.29687.04687.375.09375.375.51562v2.625c0 .32813-.03125.59375-.09375.70313-.28125.53125-.82813.875-1.42188.875-.6875 0-1.1875-.4375-1.1875-1.34375v-3.95313l-.07812-.07812-1.84375.29687Zm0 0"/><path id="D" d="M.375 0h3.07813v-.32812c-1.04688-.0625-1.10938-.09375-1.10938-.6875V-3.75c0-.89062.39063-1.20312.67188-1.20312.1875 0 .39062.07812.71875.26562.09375.04688.17187.0625.23437.0625.28125 0 .53125-.29687.53125-.65625 0-.26562-.15625-.57812-.60937-.57812-.42188 0-.78125.25-1.54688.9375l-.14062-.9375L.4375-5.5625v.29688l.4375.0625c.29688.04687.375.09375.375.51562v3.67188c0 .59375-.0625.625-.875.6875Zm0 0"/><path id="E" d="M.57813-2.73437c0 1.71875.89062 2.875 2.4375 2.875.625 0 1.17187-.29688 1.79687-.79688v.5625L4.90625 0h1.89063v-.32812c-.82813-.0625-.85938-.09375-.85938-.6875v-7.5625l-.09375-.0625L4-8.35937v.29687l.45313.03125c.29687.04688.375.10938.375.54688v1.90625C4.5-5.75 4.0625-5.85937 3.53125-5.85937c-.95312 0-1.67187.3125-2.15625.8125-.5.51562-.79687 1.28125-.79687 2.3125M1.78125-2.875c0-1.51562.54688-2.57812 1.73438-2.57812.54687 0 1 .25 1.21875.73437.09375.20313.09375.375.09375.6875v2.04688c0 .26562 0 .45312-.07813.65625-.23437.60937-.75.84375-1.34375.84375-1.07812 0-1.625-1.04688-1.625-2.39063m0 0"/><path id="F" d="M.01563 0H2.25v-.32812l-.48437-.0625c-.17188-.03125-.17188-.17188-.09376-.29688.26563-.48437.64063-1.04687 1.03126-1.65625h.03125l1.03125 1.625c.125.20313.09375.29688-.07813.32813l-.48437.0625V0H5.9375v-.32812c-.53125-.03125-.71875-.0625-1.01562-.48438-.53125-.78125-1.09375-1.57812-1.59375-2.40625.375-.57812.82812-1.17187 1.28125-1.71875.29687-.375.46875-.40625 1.01562-.4375v-.34375H3.46875v.34375l.45313.04688c.1875.01562.15625.14062.07812.26562-.28125.45313-.59375.9375-.9375 1.46875h-.01562l-.96875-1.45312c-.10938-.14063-.0625-.28125.10937-.29688l.34375-.03125v-.34375H.09375v.34375c.48438.03125.57813.04688.85938.42188.48437.6875 1 1.4375 1.48437 2.1875-.42187.625-.875 1.29687-1.35937 1.92187C.78125-.4375.51563-.375.01563-.32812Zm0 0"/><path id="K" d="M.5625-3.98437c0 1.35937.40625 2.46875 1.09375 3.17187.71875.71875 1.875.98438 3.1875.98438.92188 0 2-.26563 2.5625-.5625l.15625-1.9375h-.34375C6.89063-1.10937 6.29688-.23437 4.76563-.23437 2.35938-.23437 1.85938-2.59375 1.85938-4c0-1.92187.76562-3.84375 2.92187-3.84375 1.20313 0 2.03125.5 2.25 1.875H7.375v-1.82812c-.51562-.25-1.39062-.45313-2.46875-.45313-1.4375 0-2.59375.42188-3.28125 1.20313-.67187.75-1.0625 1.75-1.0625 3.0625m0 0"/><path id="L" d="M.35938-5.25h.84375v4.0625C1.20313 0 2.07813.14063 2.5.14063c.59375 0 1.14063-.29688 1.48438-.51563l-.09375-.25c-.28125.10938-.53125.15625-.82813.15625-.39062 0-.76562-.28125-.76562-1.17187V-5.25h1.5v-.46875h-1.5V-7.1875h-.34375L1.25-5.71875H.35938Zm0 0"/><path id="k" d="M.20313 0h1.625v-.17187c-.5-.03126-.51563-.03126-.51563-.375V-3.5c0-.32812.01563-.32812.51563-.35937v-.17188h-1.625v.17188c.51562.03125.53125.03125.53125.35937v2.95313c0 .34375-.01563.34375-.53125.375Zm0 0"/><path id="l" d="M.1875 0h1.42188v-.17187c-.42188-.03126-.4375-.03126-.4375-.34375V-1.875c0-.14062 0-.23437.04687-.3125.10938-.23437.35938-.42187.6875-.42187.5 0 .5625.35937.5625.71875v1.375c0 .3125-.01562.3125-.4375.34375V0h1.42188v-.17187c-.42188-.03126-.4375-.03126-.4375-.34375V-1.875c0-.14062 0-.21875.04687-.3125.07813-.23437.32813-.42187.65625-.42187.375 0 .59375.20312.59375.71875v1.375c0 .3125-.01562.3125-.4375.34375V0h1.42188v-.17187c-.42188-.03126-.4375-.03126-.4375-.34375V-2c0-.59375-.3125-.92187-.875-.92187-.46875 0-.8125.3125-1.01563.4375-.14062-.26563-.375-.4375-.78125-.4375-.4375 0-.8125.29687-1.01562.4375l-.0625-.4375-.89063.14062v.14063l.21875.03125c.14063.03125.1875.04687.1875.26562v1.82813c0 .3125-.01562.3125-.4375.34375Zm0 0"/><path id="m" d="M.15625 1.17188v.17187h1.5v-.17187C1.17188 1.14062 1.125 1.125 1.125.82813V-.0625c.125.0625.40625.125.67188.125C2.59375.0625 3.25-.29687 3.25-1.5c0-.40625-.0625-1.42187-1.125-1.42187-.4375 0-.76562.28125-1 .42187l-.07812-.42187-.875.14062v.14063l.21875.03125c.15625.03125.1875.04687.1875.26562V.82813c0 .29687-.01563.3125-.42188.34375M1.125-.92187V-1.875c0-.14062.03125-.21875.07813-.32812.14062-.26563.39062-.40625.6875-.40625.25 0 .76562.14062.76562 1.15625 0 .84375-.28125 1.3125-.85937 1.3125-.29688 0-.53125-.15625-.625-.42188C1.14062-.65625 1.125-.78125 1.125-.92187m0 0"/><path id="n" d="M.1875 0h1.53125v-.17187c-.51562-.03126-.54687-.03126-.54687-.34375V-1.875c0-.4375.20312-.59375.32812-.59375.09375 0 .20313.03125.35938.125.04687.03125.09374.03125.125.03125.14062 0 .26562-.15625.26562-.32812 0-.125-.07812-.28125-.3125-.28125-.20312 0-.375.125-.76562.45312l-.0625-.45312-.89063.14062v.14063l.21875.03125c.14063.03125.1875.04687.1875.26562v1.82813c0 .3125-.03125.3125-.4375.34375Zm0 0"/><path id="o" d="M.28125-1.42187C.28125-.48437.75.0625 1.6875.0625s1.39063-.54687 1.39063-1.48437c0-.95313-.45313-1.5-1.39063-1.5s-1.40625.54687-1.40625 1.5m.60938 0c0-.8125.26562-1.29688.79687-1.29688s.79688.48438.79688 1.29688c0 .79687-.26563 1.28125-.79688 1.28125S.89063-.625.89063-1.42187m0 0"/><path id="p" d="m.125-4.03125.21875.01563c.14063.01562.1875.04687.1875.28125V.03125L.625.0625l.23438-.21875c.20312.125.45312.21875.89062.21875.78125 0 1.45313-.35937 1.45313-1.5625 0-.35937-.07813-1.42187-1.125-1.42187-.4375 0-.78125.28125-1 .40625v-1.78125l-.04688-.03125L.125-4.1875Zm.95313 3.07813V-1.875c0-.14062 0-.23437.04687-.32812.14063-.28125.39063-.40625.71875-.40625.23438 0 .75.14062.75 1.15625 0 .84375-.26562 1.3125-.84375 1.3125-.29687 0-.53125-.15625-.64062-.4375-.03126-.10938-.03126-.23438-.03126-.375m0 0"/><path id="q" d="M.28125-.75c0 .42188.29688.8125.84375.8125.34375 0 .6875-.21875.85938-.34375.09374.21875.1875.34375.39062.34375.21875 0 .46875-.0625.6875-.17187l-.03125-.125c-.07812.01562-.21875.01562-.29687 0-.10938-.03126-.20313-.14063-.20313-.5v-1.42188c0-.34375-.07812-.76562-.96875-.76562-.65625 0-1.17187.32812-1.17187.65625 0 .1875.21875.28125.32812.28125.125 0 .15625-.0625.1875-.17188.125-.4375.35938-.5625.59375-.5625s.5.10938.5.57813v.25c-.15625.14062-.71875.29687-1.17187.4375-.42188.125-.54688.42187-.54688.70312M.875-.84375c0-.26562.125-.40625.45313-.53125.23437-.09375.53125-.20312.67187-.28125v.82813c0 .46875-.35937.59375-.59375.59375C1.04688-.23437.875-.5.875-.84375m0 0"/><path id="r" d="M.125 0h1.40625v-.17187c-.40625-.03126-.42187-.03126-.42187-.34375v-3.78125l-.04688-.03125-.90625.14062v.15625l.20313.01563c.15625.01562.1875.04687.1875.28125v3.21875c0 .3125 0 .3125-.42188.34375Zm0 0"/><path id="s" d="M.28125-1.40625C.28125-.48437.6875.0625 1.625.0625c.65625 0 .98438-.35937 1.14063-.8125l-.17188-.09375C2.4375-.5 2.20313-.23437 1.75-.23437c-.71875 0-.875-.6875-.85937-1.29688h1.6875c.125 0 .21875-.03125.21875-.21875 0-.34375-.10938-1.17187-1.17188-1.17187-.90625 0-1.34375.64062-1.34375 1.51562m.625-.34375c0-.25.07813-.96875.6875-.96875.54688 0 .60938.54688.60938.78125 0 .10938-.04688.1875-.20313.1875Zm0 0"/><path id="t" d="M.20313 0h1.71875v-.17187c-.59375-.03126-.60938-.03126-.60938-.375v-1.10938h.32813c.26562 0 .53125-.03125.73437-.07812.45313-.10938.96875-.42188.96875-1.15625 0-.4375-.1875-.75-.45312-.90625-.28125-.17188-.65625-.23438-1.0625-.23438h-1.625v.17188c.51562.03125.53125.03125.53125.35937v2.95313c0 .34375-.01563.34375-.53125.375ZM1.3125-2.09375v-1.51562c0-.17188.0625-.21875.4375-.21875.59375 0 .96875.34375.96875.96875 0 .73437-.48437 1-.98437 1-.34375 0-.42188-.01563-.42188-.23438m0 0"/><path id="u" d="m.15625-2.64062.21875.03125c.14063.03125.1875.04687.1875.26562V-.8125c0 .67188.39063.875.82813.875.5 0 .89062-.32812 1.0625-.40625L2.51563 0h.9375v-.17187c-.40625-.03126-.4375-.03126-.4375-.34375v-2.375l-.04688-.03125-.92187.14062v.14063l.23437.03125c.14063.03125.1875.04687.1875.26562v1.3125c0 .15625-.03125.29688-.0625.34375-.125.26563-.40625.45313-.70312.45313-.34375 0-.59375-.21875-.59375-.67188v-1.98437l-.04688-.03125-.90625.14062Zm0 0"/><path id="G" d="M.125-3.0625h.17188c.07812-.64062.20312-.76562.875-.76562h.34375v3.28125c0 .34375-.01563.34375-.64063.375V0h1.85938v-.17187c-.625-.03126-.64063-.03126-.64063-.375v-3.28125h.34375c.6875 0 .8125.125.875.76562H3.5v-.96875H.125Zm0 0"/><path id="H" d="M.70313-3.96875c0 .125.15624.23438.32812.32813l.875.48437L2-3.28125l-.6875-.6875c-.17187-.1875-.28125-.25-.375-.25s-.23437.14063-.23437.25m-.42188 2.5625C.28125-.48437.6875.0625 1.625.0625c.65625 0 .98438-.35937 1.14063-.8125l-.17188-.09375C2.4375-.5 2.20313-.23437 1.75-.23437c-.71875 0-.875-.6875-.85937-1.29688h1.6875c.125 0 .21875-.03125.21875-.21875 0-.34375-.10938-1.17187-1.17188-1.17187-.90625 0-1.34375.64062-1.34375 1.51562m.625-.34375c0-.25.07813-.96875.6875-.96875.54688 0 .60938.54688.60938.78125 0 .10938-.04688.1875-.20313.1875Zm0 0"/><path id="I" d="m.26563-.96875.0625.76563c.21875.17187.57812.26562.90625.26562.70312 0 1.09375-.35937 1.09375-.85937 0-.51563-.3125-.73438-.90625-.92188-.25-.07812-.625-.20312-.625-.53125 0-.3125.23437-.46875.51562-.46875.42188 0 .60938.3125.65625.67188h.17188v-.6875c-.1875-.14063-.48438-.1875-.75-.1875-.64063 0-1.0625.29687-1.0625.84375 0 .48437.39062.70312.875.84375.26562.09374.64062.21874.64062.60937 0 .29688-.23437.48438-.54687.48438-.46875 0-.73438-.34375-.85938-.82813Zm0 0"/></defs><path fill="none" stroke="#000" stroke-miterlimit="10" stroke-width=".39703" d="M33.96094 38.8125h476.58209M33.96094 45.42969V32.1914"/><use xlink:href="#a" x="30.87193" y="57.74138"/><use xlink:href="#b" x="4.87257" y="25.1286" fill="red"/><g fill="red"><use xlink:href="#c" x="8.7312" y="25.1286"/><use xlink:href="#d" x="19.48823" y="25.1286"/><use xlink:href="#e" x="26.57273" y="25.1286"/><use xlink:href="#f" x="33.29742" y="25.1286"/><use xlink:href="#f" x="38.37196" y="25.1286"/><use xlink:href="#g" x="43.4465" y="25.1286"/><use xlink:href="#h" x="46.83366" y="25.1286"/><use xlink:href="#i" x="53.8065" y="25.1286"/><use xlink:href="#j" x="57.05718" y="25.1286"/></g><use xlink:href="#k" x="97.84998" y="26.46862" fill="#F30"/><g fill="#F30"><use xlink:href="#l" x="99.7793" y="26.46862"/><use xlink:href="#m" x="105.15781" y="26.46862"/><use xlink:href="#n" x="108.70006" y="26.46862"/></g><g fill="#F30"><use xlink:href="#o" x="110.92715" y="26.46862"/><use xlink:href="#p" x="114.2895" y="26.46862"/><use xlink:href="#q" x="117.77592" y="26.46862"/><use xlink:href="#p" x="120.82188" y="26.46862"/><use xlink:href="#r" x="124.3083" y="26.46862"/><use xlink:href="#s" x="125.93364" y="26.46862"/></g><use xlink:href="#t" x="175.35291" y="26.46862" fill="#FF5900"/><g fill="#FF5900"><use xlink:href="#s" x="178.67803" y="26.46862"/><use xlink:href="#u" x="181.67437" y="26.46862"/></g><g fill="#FF5900"><use xlink:href="#m" x="186.51317" y="26.46862"/><use xlink:href="#n" x="190.05542" y="26.46862"/></g><g fill="#FF5900"><use xlink:href="#o" x="192.28251" y="26.46862"/><use xlink:href="#p" x="195.64486" y="26.46862"/><use xlink:href="#q" x="199.13128" y="26.46862"/><use xlink:href="#p" x="202.17724" y="26.46862"/><use xlink:href="#r" x="205.66366" y="26.46862"/><use xlink:href="#s" x="207.289" y="26.46862"/></g><path fill="none" stroke="#000" stroke-miterlimit="10" stroke-width=".39703" d="M272.25003 45.42969V32.1914"/><use xlink:href="#a" x="263.83603" y="57.74138"/><use xlink:href="#v" x="270.01481" y="57.74138"/><use xlink:href="#w" x="274.48139" y="57.74138"/><use xlink:href="#x" x="241.0009" y="12.78249" fill="#FF7F00"/><g fill="#FF7F00"><use xlink:href="#y" x="249.74797" y="12.78249"/><use xlink:href="#j" x="256.95654" y="12.78249"/></g><g fill="#FF7F00"><use xlink:href="#z" x="265.56713" y="12.78249"/><use xlink:href="#A" x="271.34888" y="12.78249"/><use xlink:href="#B" x="278.42097" y="12.78249"/><use xlink:href="#y" x="284.5129" y="12.78249"/><use xlink:href="#z" x="291.72147" y="12.78249"/><use xlink:href="#j" x="297.50322" y="12.78249"/></g><g fill="#FF7F00"><use xlink:href="#f" x="249.76583" y="27.67215"/><use xlink:href="#C" x="254.84036" y="27.67215"/><use xlink:href="#D" x="261.90005" y="27.67215"/></g><g fill="#FF7F00"><use xlink:href="#E" x="269.04659" y="27.67215"/><use xlink:href="#j" x="276.01943" y="27.67215"/><use xlink:href="#C" x="282.0121" y="27.67215"/><use xlink:href="#F" x="289.07178" y="27.67215"/></g><use xlink:href="#t" x="339.8475" y="27.73989" fill="#997F33"/><use xlink:href="#n" x="343.27809" y="27.73989" fill="#997F33"/><g fill="#997F33"><use xlink:href="#o" x="345.50518" y="27.73989"/><use xlink:href="#p" x="348.86752" y="27.73989"/><use xlink:href="#q" x="352.35394" y="27.73989"/><use xlink:href="#p" x="355.39991" y="27.73989"/><use xlink:href="#r" x="358.88632" y="27.73989"/><use xlink:href="#s" x="360.51167" y="27.73989"/></g><use xlink:href="#G" x="413.09724" y="27.7917" fill="#4C7F59"/><g fill="#4C7F59"><use xlink:href="#n" x="416.24246" y="27.7917"/><use xlink:href="#H" x="418.50677" y="27.7917"/><use xlink:href="#I" x="421.50311" y="27.7917"/></g><g fill="#4C7F59"><use xlink:href="#m" x="425.34313" y="27.7917"/><use xlink:href="#n" x="428.88538" y="27.7917"/></g><g fill="#4C7F59"><use xlink:href="#o" x="431.11867" y="27.7917"/><use xlink:href="#p" x="434.48102" y="27.7917"/><use xlink:href="#q" x="437.96744" y="27.7917"/><use xlink:href="#p" x="441.0134" y="27.7917"/><use xlink:href="#r" x="444.49982" y="27.7917"/><use xlink:href="#s" x="446.12516" y="27.7917"/></g><path fill="none" stroke="#000" stroke-miterlimit="10" stroke-width=".39703" d="M510.54303 45.42969V32.1914"/><use xlink:href="#J" x="507.44655" y="57.74138"/><use xlink:href="#K" x="490.96382" y="27.63429" fill="#007F7F"/><g fill="#007F7F"><use xlink:href="#j" x="498.79275" y="27.63429"/><use xlink:href="#D" x="504.78542" y="27.63429"/></g><g fill="#007F7F"><use xlink:href="#L" x="509.4133" y="27.63429"/><use xlink:href="#B" x="513.42082" y="27.63429"/><use xlink:href="#g" x="519.51275" y="27.63429"/><use xlink:href="#y" x="522.89991" y="27.63429"/></g></svg>