<svg xmlns="http://www.w3.org/2000/svg" xmlns:xlink="http://www.w3.org/1999/xlink" width="624.419pt" height="77.286pt" viewBox="0 0 624.419 77.286"><defs><path id="c" d="M1.57813-4.70312h10.21875v-1.07813H1.57813Zm0 0"/><path id="d" d="M.75-1.89062C.75-1.04687 2.04688.21875 4.46875.21875c3.0625 0 4.4375-1.85937 4.4375-4.20312 0-2.60938-1.625-3.9375-3.82812-3.9375-1.03125 0-2.15625.45312-2.75.98437L2.75-10.45312c.04688-.46875.17188-.53125.53125-.53125h4.625L8.35938-12.25 8.25-12.40625H2.04688l-.17188.1875-.375 6.1875.45313.25c.76562-.89062 1.51562-1.32812 2.53125-1.32812 1.1875 0 2.48437.875 2.48437 3.3125 0 1.92187-.76562 3.35937-2.39062 3.35937-1.29688 0-1.95313-.92187-2.32813-1.98437-.09375-.28125-.28125-.46875-.53125-.46875-.375 0-.96875.375-.96875 1m0 0"/><path id="e" d="m.35938-3.71875.15625.40625H5.5625v1.89063c0 .625-.1875.73437-.64062.76562l-1.1875.125V0H8.625v-.53125L7.79688-.625C7.35938-.6875 7.25-.79687 7.25-1.42187V-3.3125h1.89063v-.875H7.25v-8.21875H5.89063c-1.75 2.57813-3.84375 5.79688-5.53125 8.6875m1.34375-.46875c1.09375-2.01562 2.4375-4.17187 3.85937-6.42187v6.42187Zm0 0"/><path id="f" d="M.5-1.89062C.5-1.10937 1.78125.21875 4.40625.21875c2.6875 0 4.375-1.35937 4.375-3.73437 0-2.48438-2.125-3.21875-3.15625-3.3125v-.07813c1.01563-.17187 2.60938-.92187 2.60938-2.75 0-2.0625-1.59375-2.96875-3.59375-2.96875-2.45313 0-3.65625 1.42188-3.65625 2.21875 0 .57813.65625.89063.90625.89063s.375-.14063.45312-.375c.42188-1.26563 1.10938-2.07813 2.15625-2.07813 1.46875 0 1.84375 1.28125 1.84375 2.32813 0 1.10937-.40625 2.51562-1.98437 2.51562-.89063 0-1.39063-.1875-1.60938-.1875-.23437 0-.34375.1875-.34375.51563 0 .3125.10938.51562.34375.51562.21875 0 .71875-.17187 1.60938-.17187 1.57812 0 2.46875 1.42187 2.46875 3.03125C6.82813-1.20312 5.75-.4375 4.42188-.4375c-1.21875 0-2.03125-.90625-2.39063-1.95312-.10937-.35938-.29687-.53125-.54687-.53125C1.14063-2.92187.5-2.5625.5-1.89062m0 0"/><path id="g" d="M.5-.17187.6875 0H8.375L9-2.45312l-.5-.09375c-.40625 1-.78125 1.14062-1.53125 1.14062H2.23438c.29687-.96875 1.40625-2.28125 3.125-3.53125C7.125-6.23437 8.51563-7.07812 8.51563-9.14062c0-2.59375-1.71875-3.48438-3.67188-3.48438-2.54687 0-3.85937 1.54688-3.85937 2.51563 0 .625.71875.92187 1.03125.92187.32812 0 .45312-.1875.53125-.51562.29687-1.26563 1.03125-2.26563 2.17187-2.26563 1.42188 0 1.84375 1.1875 1.84375 2.54688 0 2-1.01562 3.125-2.625 4.54687C1.64063-2.89062.84375-1.625.5-.17187m0 0"/><path id="h" d="M2.01563 0H8.125v-.53125L6.5625-.67187c-.40625-.04688-.625-.17188-.625-.90625v-10.9375l-.09375-.10938-3.82812.65625v.45313l1.73437.21875c.3125.04687.4375.17187.4375.70312v9.01563c0 .73437-.17187.85937-.60937.90625l-1.5625.14062Zm0 0"/><path id="i" d="M.76563-6.20312c0 3.71875 1.09375 6.42187 4.15625 6.42187s4.15625-2.70312 4.15625-6.42187S7.98438-12.625 4.92188-12.625.76563-9.92187.76563-6.20312m1.875 0c0-3.01563.51562-5.76563 2.28125-5.76563 1.75 0 2.26562 2.75 2.26562 5.76563S6.67188-.4375 4.92188-.4375c-1.76563 0-2.28125-2.75-2.28125-5.76562m0 0"/><path id="j" d="m2.6875-2.01562.76563.76562 3.21875-3.23437 3.25 3.23437.75-.76562-3.21875-3.21875 3.21875-3.23438-.75-.75L6.67188-6 3.45313-9.21875l-.76563.75 3.23438 3.23438Zm0 0"/><path id="k" d="m1.375-12.29687.76563.07812c.42187.04688.57812.20313.6875.875.21875 1.70313.4375 3.54688.67187 5.40625L4.28125 0H5.5625l3.76563-6.40625c1.20312-2.04687 2.34375-3.9375 3.09375-5.09375.42187-.625.6875-.71875 1.6875-.79687l.09375-.54688h-4.09375l-.09375.54688 1.03125.07812c.20312.01563.3125.09375.3125.25 0 .3125-1.39063 2.78125-2.95313 5.48438L5.75-1.85937l-.67187-4.9375C4.85938-8.4375 4.5-11.4375 4.5-11.8125c0-.21875.07813-.35937.34375-.39062l1.1875-.09375.09375-.54688H1.48438Zm0 0"/><path id="l" d="M.20313 0H9.875l.95313-3.26562h-.5625C9.32813-.96875 8.5-.65625 6.20313-.65625c-2.1875 0-2.3125-.26562-2.3125-.76562 0-.20313.0625-.46875.14062-.84375l.95313-4.07813h2.42187c1.375 0 1.64063.28125 1.64063 1.09375 0 .15625 0 .3125-.01563.51563h.54688l.875-3.875H9.875c-.46875 1.28125-.67187 1.57812-2.3125 1.57812H5.14063l1.04687-4.625c.09375-.45312.21875-.54687.53125-.54687h2.23438c1.8125 0 2.1875.46875 2.1875 1.48437 0 .45313-.0625.96875-.0625.96875h.5625l.6875-3.09375H2.9375l-.14062.54688 1.14062.07812c.3125.01563.45313.15625.45313.45313 0 .10937-.03125.25-.0625.42187L2.10938-1.54687c-.15625.64062-.3125.85937-.76563.89062l-1.04687.125Zm0 0"/><path id="m" d="M0 0h5.07813l.10937-.53125L4.09375-.625c-.32812-.03125-.48437-.17187-.48437-.46875 0-.10937.04687-.26562.07812-.45312l1.01563-4.5h1.125c1.79687 0 2.04687.4375 2.04687 2.60937 0 2.25 0 3.4375 1.95313 3.4375h1.45312l.17188-.53125c-1.29688-.1875-1.75-.23437-1.75-2.625C9.70313-5.0625 9.54688-5.85937 8-6.375c2.26563-.3125 3.8125-1.64062 3.8125-3.48437 0-1.3125-.57812-2.98438-4.04687-2.98438h-5l-.14063.54688 1.10938.07812c.3125.01563.45312.17188.45312.48438 0 .125-.01562.26562-.0625.4375l-2.23437 9.75c-.15626.65625-.3125.85937-.76563.89062l-1.03125.125Zm4.85938-6.6875L5.9375-11.5c.14063-.53125.20313-.70312 1.60938-.70312 1.20312 0 2.32812.53125 2.32812 2.15625 0 2.20312-1.4375 3.35937-3.82812 3.35937Zm0 0"/><path id="n" d="M1.375-9.75h.5625c.59375-1.90625 1.26563-2.45312 3.07813-2.45312h1.28125L3.89063-1.5C3.75-.92187 3.5625-.65625 3-.60937l-1.21875.07812L1.65625 0h5.70313L7.5-.53125 6.14063-.60937c-.375-.01563-.53125-.1875-.53125-.5 0-.10938.01562-.23438.0625-.39063l2.40625-10.70312H9.25c1.79688 0 2.17188.46875 2.17188 1.48437 0 .26563-.03125.59375-.0625.96875h.5625l.70312-3.09375H2.07813Zm0 0"/><path id="o" d="M.59375-1.25c.73438.96875 2.5 1.53125 3.875 1.53125 3.59375-.04687 4.6875-2.125 4.6875-4.10937 0-1.6875-.90625-2.73438-2.78125-3.70313-1.07812-.54687-2.39062-1.17187-2.39062-2.57812 0-1.32813.96875-2.375 2.59375-2.375 1.875 0 2.23437.875 2.23437 2.90625h.54688l.65625-2.60938c-.79688-.625-2.17188-.95312-3.32813-.95312-3.23437 0-4.26562 2.14062-4.26562 3.70312 0 1.73438 1.1875 2.64063 2.6875 3.375 1.48437.75 2.39062 1.51563 2.39062 3C7.5-1.51562 6.26563-.375 4.70313-.375c-2.48438 0-2.96875-1.92187-3.07813-3.71875h-.5625Zm0 0"/><clipPath id="a"><path d="M2.57031 35H616v2H2.57031Zm0 0"/></clipPath><clipPath id="b"><path d="M603 23h18.27344v26H603Zm0 0"/></clipPath></defs><g clip-path="url(#a)"><path fill="none" stroke="#000" stroke-miterlimit="10" stroke-width=".78972" d="M2.96099 35.75h611.80068"/></g><path d="M618.88672 35.75c-.5039-.10547-2.73438-.69922-4.125-1.35156v2.70312c1.39062-.64843 3.6211-1.2461 4.125-1.35156m0 0"/><g clip-path="url(#b)"><path fill="none" stroke="#000" stroke-miterlimit="10" stroke-width=".78972" d="M618.88672 35.75c-.5039-.10547-2.73438-.69922-4.125-1.35156v2.70312c1.39062-.64844 3.6211-1.2461 4.125-1.35156Zm0 0"/></g><path fill="none" stroke="#000" stroke-miterlimit="10" stroke-width=".78972" d="M31.04692 21.70703v28.08984"/><use xlink:href="#c" x="19.46301" y="69.56434"/><use xlink:href="#d" x="32.8092" y="69.56434"/><path fill="none" stroke="#000" stroke-miterlimit="10" stroke-width=".78972" d="M87.2227 21.70703v28.08984"/><use xlink:href="#c" x="75.63705" y="69.56434"/><use xlink:href="#e" x="88.98325" y="69.56434"/><path fill="none" stroke="#000" stroke-miterlimit="10" stroke-width=".78972" d="M143.39846 21.70703v28.08984"/><use xlink:href="#c" x="131.81109" y="69.78133"/><use xlink:href="#f" x="145.15729" y="69.78133"/><path fill="none" stroke="#000" stroke-miterlimit="10" stroke-width=".78972" d="M199.57033 21.70703v28.08984"/><use xlink:href="#c" x="187.98415" y="69.78133"/><use xlink:href="#g" x="201.33034" y="69.78133"/><path fill="none" stroke="#000" stroke-miterlimit="10" stroke-width=".78972" d="M255.7461 21.70703v28.08984"/><use xlink:href="#c" x="244.15819" y="69.78133"/><use xlink:href="#h" x="257.50438" y="69.78133"/><path fill="none" stroke="#000" stroke-miterlimit="10" stroke-width=".78972" d="M311.92188 21.70703v28.08984"/><use xlink:href="#i" x="307.00558" y="69.78133"/><path fill="none" stroke="#000" stroke-miterlimit="10" stroke-width=".78972" d="M368.09765 21.70703v28.08984"/><use xlink:href="#h" x="363.17962" y="69.78133"/><path fill="none" stroke="#000" stroke-miterlimit="10" stroke-width=".78972" d="M424.26951 21.70703v28.08984"/><use xlink:href="#g" x="419.35366" y="69.78133"/><path fill="none" stroke="#000" stroke-miterlimit="10" stroke-width=".78972" d="M480.44529 21.70703v28.08984"/><use xlink:href="#f" x="475.5277" y="69.78133"/><path fill="none" stroke="#000" stroke-miterlimit="10" stroke-width=".78972" d="M536.62106 21.70703v28.08984"/><use xlink:href="#e" x="531.70174" y="69.56434"/><path fill="none" stroke="#000" stroke-miterlimit="10" stroke-width=".78972" d="M592.79293 21.70703v28.08984"/><use xlink:href="#d" x="587.87479" y="69.56434"/><use xlink:href="#j" x="24.3786" y="40.36212"/><use xlink:href="#k" x="23.95452" y="19.69901"/><use xlink:href="#j" x="108.64016" y="40.36212"/><use xlink:href="#l" x="109.05433" y="19.69901"/><use xlink:href="#j" x="389.50937" y="40.36212"/><use xlink:href="#m" x="389.78582" y="19.69901"/><use xlink:href="#j" x="473.76994" y="40.36212"/><use xlink:href="#n" x="474.43182" y="19.69901"/><use xlink:href="#j" x="586.11802" y="40.36212"/><use xlink:href="#o" x="587.68752" y="19.70892"/></svg>