<svg xmlns="http://www.w3.org/2000/svg" xmlns:xlink="http://www.w3.org/1999/xlink" width="553.554pt" height="53.787pt" viewBox="0 0 553.554 53.787"><defs><path id="a" d="M.92188-2.76562H6.9375v-.64063H.92188Zm0 0"/><path id="b" d="M1.1875 0h3.57813v-.3125l-.90625-.07812C3.625-.42187 3.5-.5 3.5-.92187v-6.4375l-.0625-.0625-2.25.39062v.26563l1.01563.125c.1875.01562.26562.10937.26562.42187v5.29688c0 .42187-.10937.5-.375.53125L1.1875-.3125Zm0 0"/><path id="c" d="M.45313-3.64062c0 2.17187.64062 3.76562 2.4375 3.76562 1.79687 0 2.45312-1.59375 2.45312-3.76562 0-2.1875-.65625-3.78125-2.45312-3.78125S.45313-5.82812.45313-3.64062m1.10937 0c0-1.78125.29688-3.39063 1.32813-3.39063s1.32812 1.60938 1.32812 3.39063C4.21875-1.875 3.92188-.25 2.89063-.25S1.5625-1.875 1.5625-3.64062m0 0"/><path id="j" d="M1.03125-3.07812h6.67188v-.70313H1.03125Zm0 0"/><path id="k" d="M.5-4.04687C.5-1.625 1.21875.14063 3.21875.14063S5.9375-1.625 5.9375-4.04687c0-2.4375-.71875-4.20313-2.71875-4.20313S.5-6.48437.5-4.04687m1.23438 0c0-1.98438.32812-3.78125 1.48437-3.78125 1.14063 0 1.48438 1.79687 1.48438 3.78125 0 1.96875-.34375 3.76562-1.48438 3.76562-1.15625 0-1.48437-1.79687-1.48437-3.76562m0 0"/><path id="l" d="m.625 1.48438.23438.23437C1.45313 1.15625 2.34375.32813 2.34375-.625c0-.64062-.35937-1.09375-.82812-1.09375-.35938 0-.59375.29688-.59375.60938 0 .4375.39062.67187.39062 1.1875 0 .5-.3125.98437-.6875 1.40625m0 0"/><path id="m" d="M.48438-1.23437c0 .54687.85937 1.375 2.4375 1.375 2 0 2.90625-1.21875 2.90625-2.75 0-1.70313-1.0625-2.5625-2.51563-2.5625-.67187 0-1.40625.29687-1.79687.64062l.28124-2.29687c.03126-.3125.10938-.34375.34376-.34375h3.01562L5.45313-8l-.0625-.10937H1.34375l-.125.125L.98438-3.9375l.29687.15625c.5-.57812.98438-.85937 1.65625-.85937.76563 0 1.625.5625 1.625 2.15625C4.5625-1.21875 4.04688-.28125 3-.28125c-.85937 0-1.28125-.60937-1.53125-1.3125-.0625-.17187-.17187-.29687-.34375-.29687-.25 0-.64062.25-.64062.65625m0 0"/><path id="n" d="M1.3125 0h3.98438v-.34375L4.28125-.4375c-.25-.03125-.39062-.125-.39062-.59375V-8.1875L3.8125-8.25l-2.5.42188v.29687l1.14063.15625c.20312.01563.28125.10938.28125.45313v5.89062c0 .46875-.10938.5625-.39063.59375L1.3125-.34375Zm0 0"/><clipPath id="d"><path d="M478 24.32422h1v7.33984h-1Zm0 0"/></clipPath><clipPath id="e"><path d="M496 24.32422h1v7.33984h-1Zm0 0"/></clipPath><clipPath id="f"><path d="M514 24.32422h2v7.33984h-2Zm0 0"/></clipPath><clipPath id="g"><path d="M533 24.32422h1v7.33984h-1Zm0 0"/></clipPath><clipPath id="h"><path d="M.8711 27H547v2H.8711Zm0 0"/></clipPath><clipPath id="i"><path d="M534 15h18.23828v26H534Zm0 0"/></clipPath></defs><path fill="none" stroke="#000" stroke-miterlimit="10" stroke-width=".39693" d="M93.02726 18.8164v18.35548"/><use xlink:href="#a" x="86.21364" y="49.14737"/><use xlink:href="#b" x="94.06222" y="49.14737"/><path fill="none" stroke="#7F7F7F" stroke-miterlimit="10" stroke-width=".39693" d="M111.37883 24.32422v7.33984m18.35548-7.33984v7.33984m18.35157-7.33984v7.33984m18.35157-7.33984v7.33984m18.35157-7.33984v7.33984m18.35548-7.33984v7.33984m18.35157-7.33984v7.33984m18.35157-7.33984v7.33984m18.35548-7.33984v7.33984"/><path fill="none" stroke="#000" stroke-miterlimit="10" stroke-width=".39693" d="M276.55469 18.8164v18.35548"/><use xlink:href="#c" x="273.66433" y="49.14737"/><path fill="none" stroke="#7F7F7F" stroke-miterlimit="10" stroke-width=".39693" d="M294.90626 24.32422v7.33984m18.35548-7.33984v7.33984m18.35156-7.33984v7.33984m18.35158-7.33984v7.33984m18.35547-7.33984v7.33984m18.35157-7.33984v7.33984m18.35158-7.33984v7.33984m18.35547-7.33984v7.33984m18.35157-7.33984v7.33984"/><path fill="none" stroke="#000" stroke-miterlimit="10" stroke-width=".39693" d="M460.08211 18.8164v18.35548"/><use xlink:href="#b" x="457.18955" y="49.14737"/><path fill="none" stroke="#7F7F7F" stroke-miterlimit="10" stroke-width=".39693" d="M19.61707 24.32422v7.33984m18.35157-7.33984v7.33984m18.35157-7.33984v7.33984m18.35549-7.33984v7.33984"/><g clip-path="url(#d)"><path fill="none" stroke="#7F7F7F" stroke-miterlimit="10" stroke-width=".39693" d="M478.4376 24.32422v7.33984"/></g><g clip-path="url(#e)"><path fill="none" stroke="#7F7F7F" stroke-miterlimit="10" stroke-width=".39693" d="M496.78916 24.32422v7.33984"/></g><g clip-path="url(#f)"><path fill="none" stroke="#7F7F7F" stroke-miterlimit="10" stroke-width=".39693" d="M515.14073 24.32422v7.33984"/></g><g clip-path="url(#g)"><path fill="none" stroke="#7F7F7F" stroke-miterlimit="10" stroke-width=".39693" d="M533.4923 24.32422v7.33984"/></g><g clip-path="url(#h)"><path fill="none" stroke="#000" stroke-miterlimit="10" stroke-width=".79387" d="M1.2616 27.9961h544.43383"/></g><path d="M549.84375 27.9961c-.51172-.10938-2.75-.70704-4.14844-1.35938v2.71484c1.39844-.65234 3.63672-1.25 4.14844-1.35547m0 0"/><g clip-path="url(#i)"><path fill="none" stroke="#000" stroke-miterlimit="10" stroke-width=".79387" d="M549.84375 27.9961c-.51172-.10938-2.75-.70704-4.14844-1.35938v2.71484c1.39844-.65234 3.63672-1.25 4.14844-1.35547Zm0 0"/></g><path fill="none" stroke="#007F7F" stroke-miterlimit="10" stroke-width="1.19082" d="M193.96871 20.65234v14.6836"/><g fill="#007F7F"><use xlink:href="#j" x="177.63262" y="14.37906"/><use xlink:href="#k" x="186.35325" y="14.37906"/><use xlink:href="#l" x="192.77762" y="14.37906"/></g><g fill="#007F7F"><use xlink:href="#m" x="197.42175" y="14.37906"/><use xlink:href="#m" x="203.84612" y="14.37906"/></g><path fill="none" stroke="#007F7F" stroke-miterlimit="10" stroke-width="1.19082" d="M111.37883 18.8164v18.35548"/><g fill="#007F7F"><use xlink:href="#j" x="98.24201" y="12.54333"/><use xlink:href="#k" x="106.96264" y="12.54333"/><use xlink:href="#l" x="113.38702" y="12.54333"/></g><use xlink:href="#n" x="118.03114" y="12.54333" fill="#007F7F"/></svg>