<svg xmlns="http://www.w3.org/2000/svg" xmlns:xlink="http://www.w3.org/1999/xlink" width="406.152pt" height="35.093pt" viewBox="0 0 406.152 35.093"><defs><path id="a" d="M.90625-2.70312h5.875v-.625h-5.875Zm0 0"/><path id="b" d="M.4375-1.09375c0 .48438.75 1.21875 2.14063 1.21875 1.76562 0 2.5625-1.0625 2.5625-2.42187 0-1.5-.9375-2.26563-2.20313-2.26563-.59375 0-1.25.26563-1.57812.57813l.23437-2.03125c.03125-.26563.09375-.29688.29688-.29688H4.5625l.25-.73437-.04687-.09375H1.1875l-.09375.10937L.875-3.46875l.26563.14063c.4375-.51563.875-.76563 1.45312-.76563.67188 0 1.42188.5 1.42188 1.90625 0 1.10938-.4375 1.9375-1.375 1.9375-.75 0-1.125-.53125-1.32813-1.14062C1.25-1.5625 1.14063-1.65625 1-1.65625c-.21875 0-.5625.21875-.5625.5625m0 0"/><path id="c" d="m.21875-2.14062.09375.23437h2.90625V-.8125c0 .35938-.125.42188-.375.4375l-.6875.0625V0h2.8125v-.3125L4.5-.35937c-.25-.03125-.3125-.09375-.3125-.45313v-1.09375h1.07813v-.5H4.1875v-4.73437h-.79687c-1 1.48437-2.20313 3.32812-3.17188 5m.76563-.26563C1.625-3.5625 2.39063-4.8125 3.21875-6.09375v3.6875Zm0 0"/><path id="d" d="M.29688-1.09375c0 .45313.73437 1.21875 2.25 1.21875 1.54687 0 2.51562-.78125 2.51562-2.14062 0-1.4375-1.21875-1.85938-1.8125-1.92188v-.03125C3.82813-4.0625 4.75-4.5 4.75-5.5625c0-1.17187-.92187-1.70312-2.0625-1.70312-1.42187 0-2.10937.82812-2.10937 1.28125 0 .32812.375.51562.53125.51562.125 0 .20312-.09375.25-.21875.25-.73437.64062-1.20312 1.23437-1.20312.84375 0 1.0625.75 1.0625 1.34375 0 .64062-.21875 1.45312-1.14062 1.45312-.5 0-.79688-.10937-.92188-.10937-.14062 0-.20312.10937-.20312.29687s.0625.29688.20312.29688c.125 0 .42188-.10938.92188-.10938.92187 0 1.42187.82813 1.42187 1.75C3.9375-.6875 3.3125-.25 2.5625-.25c-.70312 0-1.17187-.51562-1.375-1.125-.07812-.20312-.17187-.3125-.32812-.3125-.1875 0-.5625.20313-.5625.59375m0 0"/><path id="e" d="M.29688-.10937.40625 0h4.42188l.35937-1.40625-.29687-.0625c-.21875.57813-.4375.65625-.875.65625H1.29688c.17187-.54687.79687-1.3125 1.79687-2.03125 1.01563-.75 1.8125-1.21875 1.8125-2.42187 0-1.48438-.98437-2-2.10937-2-1.46875 0-2.21875.89062-2.21875 1.45312 0 .35938.40625.53125.59375.53125s.26562-.10937.3125-.29687c.15624-.71875.57812-1.3125 1.23437-1.3125.82813 0 1.0625.6875 1.0625 1.46875 0 1.15625-.57812 1.79687-1.51562 2.60937C.95313-1.65625.5-.9375.29688-.10937m0 0"/><path id="f" d="M1.15625 0h3.51563v-.3125l-.90625-.07812c-.21875-.01563-.34375-.09375-.34375-.51563v-6.29687l-.0625-.0625-2.20313.375v.26562l1 .125c.1875.03125.25.10938.25.40625v5.1875c0 .42188-.09375.5-.34375.51563l-.90625.07812Zm0 0"/><path id="g" d="M.4375-3.5625c0 2.125.64063 3.6875 2.40625 3.6875 1.75 0 2.375-1.5625 2.375-3.6875 0-2.14062-.625-3.70312-2.375-3.70312-1.76562 0-2.40625 1.5625-2.40625 3.70312m1.07813 0c0-1.75.3125-3.32812 1.32812-3.32812 1 0 1.29688 1.57812 1.29688 3.32812 0 1.73438-.29688 3.3125-1.29688 3.3125-1.01562 0-1.32812-1.57812-1.32812-3.3125m0 0"/><clipPath id="h"><path d="M4.70313 8H395v2H4.70313Zm0 0"/></clipPath><clipPath id="i"><path d="M383 0h17.6211v22H383Zm0 0"/></clipPath></defs><path fill="none" stroke="#000" stroke-miterlimit="10" stroke-width=".38846" d="M23.0507.1914v17.96485"/><use xlink:href="#a" x="16.37149" y="29.75107"/><use xlink:href="#b" x="24.05262" y="29.75107"/><path fill="none" stroke="#000" stroke-miterlimit="10" stroke-width=".38846" d="M58.97259.1914v17.96485"/><use xlink:href="#a" x="52.29308" y="29.75107"/><use xlink:href="#c" x="59.97421" y="29.75107"/><path fill="none" stroke="#000" stroke-miterlimit="10" stroke-width=".38846" d="M94.89448.1914v17.96485"/><use xlink:href="#a" x="88.21564" y="29.87584"/><use xlink:href="#d" x="95.89677" y="29.87584"/><path fill="none" stroke="#000" stroke-miterlimit="10" stroke-width=".38846" d="M130.81637.1914v17.96485"/><use xlink:href="#a" x="124.13722" y="29.87584"/><use xlink:href="#e" x="131.81835" y="29.87584"/><path fill="none" stroke="#000" stroke-miterlimit="10" stroke-width=".38846" d="M166.73826.1914v17.96485"/><use xlink:href="#a" x="160.05978" y="29.87584"/><use xlink:href="#f" x="167.74091" y="29.87584"/><path fill="none" stroke="#000" stroke-miterlimit="10" stroke-width=".38846" d="M202.66406.1914v17.96485"/><use xlink:href="#g" x="199.8221" y="29.87584"/><path fill="none" stroke="#000" stroke-miterlimit="10" stroke-width=".38846" d="M238.58595.1914v17.96485"/><use xlink:href="#f" x="235.74368" y="29.87584"/><path fill="none" stroke="#000" stroke-miterlimit="10" stroke-width=".38846" d="M274.50784.1914v17.96485"/><use xlink:href="#e" x="271.66624" y="29.87584"/><path fill="none" stroke="#000" stroke-miterlimit="10" stroke-width=".38846" d="M310.42974.1914v17.96485"/><use xlink:href="#d" x="307.58783" y="29.87584"/><path fill="none" stroke="#000" stroke-miterlimit="10" stroke-width=".38846" d="M346.35163.1914v17.96485"/><use xlink:href="#c" x="343.51039" y="29.75107"/><path fill="none" stroke="#000" stroke-miterlimit="10" stroke-width=".38846" d="M382.27352.1914v17.96485"/><use xlink:href="#b" x="379.43197" y="29.75107"/><g clip-path="url(#h)"><path fill="none" stroke="#000" stroke-miterlimit="10" stroke-width=".77693" d="M5.08975 9.17578h389.12518"/></g><path d="M398.27344 9.17578c-.4961-.10547-2.6875-.6914-4.0586-1.33203v2.66016c1.3711-.64063 3.5625-1.22657 4.0586-1.32813m0 0"/><g clip-path="url(#i)"><path fill="none" stroke="#000" stroke-miterlimit="10" stroke-width=".77693" d="M398.27344 9.17578c-.4961-.10547-2.6875-.6914-4.0586-1.33203v2.66016c1.3711-.64063 3.5625-1.22657 4.0586-1.32813Zm0 0"/></g></svg>