<svg xmlns="http://www.w3.org/2000/svg" xmlns:xlink="http://www.w3.org/1999/xlink" width="702.371" height="86.622" viewBox="0 0 702.371 86.622"><defs><path id="c" d="M1.78125-5.3125h11.54688v-1.21875H1.78125Zm0 0"/><path id="d" d="M.84375-2.14062C.84375-1.1875 2.32813.25 5.04688.25 8.5.25 10.0625-1.85937 10.0625-4.5c0-2.95312-1.82812-4.45312-4.32812-4.45312-1.15625 0-2.4375.51562-3.09375 1.125l.45312-3.96875c.07813-.54688.20313-.60938.60938-.60938h5.21875l.51562-1.42187-.10937-.1875h-7l-.20313.20312-.42187 7 .5.28125c.875-1.01562 1.71875-1.5 2.85937-1.5 1.34375 0 2.8125.98438 2.8125 3.75C7.875-2.125 7-.48437 5.17188-.48437c-1.46875 0-2.20313-1.0625-2.625-2.26563-.10938-.3125-.3125-.5-.60938-.5-.42187 0-1.09375.42188-1.09375 1.10938m0 0"/><path id="e" d="m.40625-4.1875.17188.4375h5.71875v2.14063c0 .71875-.23438.82812-.73438.875l-1.34375.125V0H9.75v-.60937l-.9375-.10938c-.48437-.0625-.625-.17187-.625-.89062V-3.75h2.14063v-.98437H8.1875v-9.28125H6.65625C4.6875-11.10937 2.32813-7.46875.40625-4.1875m1.51563-.54687c1.25-2.26563 2.76562-4.70313 4.375-7.25v7.25Zm0 0"/><path id="f" d="M.5625-2.14062C.5625-1.25 2.01563.25 4.96875.25c3.04688 0 4.95313-1.54687 4.95313-4.21875 0-2.8125-2.40625-3.64062-3.5625-3.75v-.09375c1.14062-.17187 2.9375-1.01562 2.9375-3.09375C9.29688-13.23437 7.5-14.25 5.25-14.25c-2.76562 0-4.14062 1.59375-4.14062 2.48438 0 .65625.75 1.01562 1.03125 1.01562.26562 0 .42187-.15625.51562-.42187.46875-1.4375 1.25-2.34375 2.4375-2.34375 1.64063 0 2.0625 1.4375 2.0625 2.625 0 1.25-.4375 2.82812-2.21875 2.82812-1.01562 0-1.59375-.1875-1.84375-.1875-.26562 0-.375.1875-.375.57813 0 .35937.10938.57812.375.57812.25 0 .82813-.20312 1.84375-.20312 1.78125 0 2.78125 1.60937 2.78125 3.4375 0 2.5-1.21875 3.375-2.71875 3.375-1.39062 0-2.29687-1.03125-2.70312-2.21875-.125-.39063-.32813-.59375-.625-.59375-.375 0-1.10938.39062-1.10938 1.15625m0 0"/><path id="g" d="M.5625-.20312.78125 0h8.67188l.71875-2.76562-.57813-.10938c-.45312 1.14063-.875 1.29688-1.71875 1.29688H2.51563c.34375-1.09375 1.59375-2.59375 3.53125-4 2.01562-1.46875 3.5625-2.40625 3.5625-4.75 0-2.92188-1.9375-3.92188-4.14063-3.92188-2.875 0-4.35937 1.73438-4.35937 2.82813 0 .71875.8125 1.04687 1.17187 1.04687.375 0 .5-.21875.59375-.57812.34375-1.4375 1.15625-2.5625 2.45313-2.5625 1.60937 0 2.07812 1.32812 2.07812 2.875 0 2.25-1.14062 3.51562-2.96875 5.125C1.85938-3.25.95313-1.82812.5625-.20312m0 0"/><path id="h" d="M2.28125 0h6.89063v-.60937L7.40625-.76563c-.4375-.03124-.6875-.1875-.6875-1.01562v-12.35937L6.60938-14.25l-4.32813.73438v.5l1.95313.25c.35937.04687.5.20312.5.8125v10.17187c0 .82813-.20313.98438-.70313 1.01563l-1.75.15624Zm0 0"/><path id="i" d="M.875-7C.875-2.8125 2.09375.25 5.5625.25c3.45313 0 4.70313-3.0625 4.70313-7.25 0-4.20312-1.25-7.25-4.70313-7.25C2.09375-14.25.875-11.20312.875-7m2.10938 0c0-3.42187.57812-6.51562 2.57812-6.51562 1.98438 0 2.5625 3.09375 2.5625 6.51562 0 3.40625-.57812 6.51563-2.5625 6.51563-2 0-2.57812-3.10938-2.57812-6.51563m0 0"/><path id="j" d="m3.03125-2.28125.875.875L7.54688-5.0625l3.65625 3.65625.84375-.875-3.64063-3.625 3.64063-3.67187-.84375-.84375-3.65625 3.64062-3.64063-3.64062-.875.84375L6.6875-5.90625Zm0 0"/><path id="k" d="m1.5625-13.90625.84375.09375c.5.0625.67188.25.78125 1 .25 1.92188.5 4 .76563 6.09375L4.84375 0h1.45313l4.23437-7.23437c1.35938-2.3125 2.65625-4.45313 3.5-5.75.46875-.71875.78125-.82813 1.90625-.92188l.10938-.59375h-4.625l-.10938.59375 1.15625.09375c.25.01563.35938.10938.35938.29688 0 .34375-1.5625 3.14062-3.32813 6.20312l-3 5.21875-.76562-5.57812c-.25-1.85938-.64063-5.25-.64063-5.67188 0-.25.07813-.40625.375-.45312l1.34375-.10938.10938-.59375h-5.25Zm0 0"/><path id="l" d="M.21875 0h10.9375l1.07813-3.6875h-.625C10.53125-1.09375 9.59375-.73437 7-.73437c-2.46875 0-2.60937-.3125-2.60937-.875 0-.21876.07812-.53125.15625-.95313L5.625-7.15625h2.73438c1.5625 0 1.85937.3125 1.85937 1.21875 0 .1875 0 .35938-.01562.57813h.625l.96875-4.375h-.64063C10.625-8.28125 10.39063-7.9375 8.54688-7.9375h-2.75l1.1875-5.23437c.10937-.5.25-.625.60937-.625h2.51563c2.04687 0 2.46875.54687 2.46875 1.6875 0 .5-.0625 1.09375-.0625 1.09375h.625L13.92188-14.5H3.32813l-.15625.59375 1.26562.09375c.35938.01563.51563.17188.51563.51563 0 .125-.01563.28125-.0625.48437l-2.5 11.07813c-.1875.70312-.35938.95312-.875 1l-1.1875.125Zm0 0"/><path id="m" d="M0 0h5.73438L5.875-.60937l-1.25-.10938c-.35937-.01562-.54687-.17187-.54687-.51562 0-.125.04687-.3125.09375-.5L5.3125-6.82812h1.26563c2.03125 0 2.32812.48437 2.32812 2.95312 0 2.53125 0 3.875 2.20313 3.875h1.625l.20312-.60937c-1.46875-.1875-1.98437-.26563-1.98437-2.95313 0-2.15625-.17188-3.0625-1.92188-3.64062 2.57813-.35938 4.3125-1.85938 4.3125-3.9375 0-1.48438-.64062-3.35938-4.57812-3.35938H3.125l-.15625.59375 1.25.09375c.35938.01563.51563.20313.51563.5625 0 .125-.03125.28125-.07813.48438L2.14063-1.73437c-.17188.73437-.35938.95312-.875 1l-1.15625.125Zm5.48438-7.5625 1.23437-5.42187c.15625-.60938.21875-.8125 1.79688-.8125 1.375 0 2.64062.60937 2.64062 2.4375 0 2.5-1.625 3.79687-4.32812 3.79687Zm0 0"/><path id="n" d="M1.5625-11.01562h.625c.67188-2.15625 1.42188-2.78125 3.48438-2.78125H7.125L4.39063-1.70312c-.15625.65625-.375.96875-1 1.01562l-1.375.07813L1.875 0h6.45313l.15625-.60937L6.9375-.6875c-.42187-.03125-.59375-.20312-.59375-.5625 0-.14062.01563-.26562.0625-.45312L9.125-13.79687h1.3125c2.03125 0 2.45313.54687 2.45313 1.6875 0 .3125-.01563.65625-.0625 1.09375h.65625L14.25-14.5H2.34375Zm0 0"/><clipPath id="a"><path d="M1.21094 39H700v2H1.21094Zm0 0"/></clipPath><clipPath id="b"><path d="M696 36h4.53125v8H696Zm0 0"/></clipPath></defs><g clip-path="url(#a)"><path fill="none" stroke="#000" stroke-miterlimit="10" stroke-width=".79354" d="M1.60553 40.09375H699.3476"/></g><g clip-path="url(#b)"><path fill="none" stroke="#000" stroke-linecap="round" stroke-linejoin="round" stroke-miterlimit="10" stroke-width=".79354" d="M697.20312 36.9961c.46485 1.85937 1.5 2.73437 2.53907 3.09765-1.03906.35937-2.07422 1.23828-2.53907 3.09765"/></g><path fill="none" stroke="#000" stroke-miterlimit="10" stroke-width=".79354" d="M33.35552 24.21875v31.75"/><use xlink:href="#c" x="20.25959" y="78.31624"/><use xlink:href="#d" x="35.34693" y="78.31624"/><path fill="none" stroke="#000" stroke-miterlimit="10" stroke-width=".79354" d="M96.85942 24.21875v31.75"/><use xlink:href="#c" x="83.76248" y="78.31624"/><use xlink:href="#e" x="98.84982" y="78.31624"/><path fill="none" stroke="#000" stroke-miterlimit="10" stroke-width=".79354" d="M160.36331 24.21875v31.75"/><use xlink:href="#c" x="147.26437" y="78.56118"/><use xlink:href="#f" x="162.35171" y="78.56118"/><path fill="none" stroke="#000" stroke-miterlimit="10" stroke-width=".79354" d="M223.8672 24.21875v31.75"/><use xlink:href="#c" x="210.76726" y="78.56118"/><use xlink:href="#g" x="225.85459" y="78.56118"/><path fill="none" stroke="#000" stroke-miterlimit="10" stroke-width=".79354" d="M287.3711 24.21875v31.75"/><use xlink:href="#c" x="274.26915" y="78.56118"/><use xlink:href="#h" x="289.35648" y="78.56118"/><path fill="none" stroke="#000" stroke-miterlimit="10" stroke-width=".79354" d="M350.8711 24.21875v31.75"/><use xlink:href="#i" x="345.31512" y="78.56118"/><path fill="none" stroke="#000" stroke-miterlimit="10" stroke-width=".79354" d="M414.37499 24.21875v31.75"/><use xlink:href="#h" x="408.818" y="78.56118"/><path fill="none" stroke="#000" stroke-miterlimit="10" stroke-width=".79354" d="M477.87888 24.21875v31.75"/><use xlink:href="#g" x="472.31989" y="78.56118"/><path fill="none" stroke="#000" stroke-miterlimit="10" stroke-width=".79354" d="M541.38278 24.21875v31.75"/><use xlink:href="#f" x="535.82278" y="78.56118"/><path fill="none" stroke="#000" stroke-miterlimit="10" stroke-width=".79354" d="M604.88667 24.21875v31.75"/><use xlink:href="#e" x="599.32467" y="78.31624"/><path fill="none" stroke="#000" stroke-miterlimit="10" stroke-width=".79354" d="M668.39057 24.21875v31.75"/><use xlink:href="#d" x="662.82756" y="78.31624"/><use xlink:href="#j" x="25.81734" y="45.3043"/><use xlink:href="#k" x="25.33743" y="21.94623"/><use xlink:href="#j" x="121.07067" y="45.3043"/><use xlink:href="#l" x="121.53963" y="21.94623"/><use xlink:href="#j" x="438.58212" y="45.3043"/><use xlink:href="#m" x="438.89475" y="21.94623"/><use xlink:href="#j" x="533.83645" y="45.3043"/><use xlink:href="#n" x="534.58419" y="21.94623"/></svg>