<svg xmlns="http://www.w3.org/2000/svg" xmlns:xlink="http://www.w3.org/1999/xlink" width="406.152pt" height="48.947pt" viewBox="0 0 406.152 48.947"><defs><path id="a" d="M.9375-2.76562h6v-.64063h-6Zm0 0"/><path id="b" d="M.45313-1.10937c0 .5.76562 1.23437 2.1875 1.23437C4.4375.125 5.25-.96875 5.25-2.34375c0-1.53125-.95312-2.3125-2.25-2.3125-.60937 0-1.26562.26563-1.60937.57813L1.625-6.15625c.03125-.26562.10938-.3125.3125-.3125h2.71875l.26563-.73437-.04688-.09375H1.21875l-.10937.09375-.21876 3.65625.26563.14062c.45313-.51562.90625-.78125 1.5-.78125.6875 0 1.45313.51563 1.45313 1.95313 0 1.125-.45313 1.98437-1.40625 1.98437-.76563 0-1.14063-.54687-1.35938-1.1875-.0625-.15625-.17187-.26562-.32812-.26562-.21876 0-.5625.23437-.5625.59375m0 0"/><path id="c" d="m.21875-2.1875.09375.23438h2.98438v1.10937c0 .375-.125.4375-.39063.45313l-.70312.07812V0h2.89062v-.3125L4.60938-.375c-.26563-.03125-.32813-.09375-.32813-.46875v-1.10937h1.10938v-.51563H4.28125v-4.82812h-.8125c-1.01562 1.5-2.25 3.40625-3.25 5.10937m.79688-.28125c.64062-1.1875 1.4375-2.45312 2.28125-3.78125v3.78125Zm0 0"/><path id="d" d="M.29688-1.10937C.29688-.65625 1.0625.125 2.60938.125 4.1875.125 5.1875-.67187 5.1875-2.0625c0-1.46875-1.26562-1.90625-1.85937-1.95312v-.04688c.59375-.09375 1.53125-.54687 1.53125-1.625 0-1.20312-.9375-1.73437-2.10938-1.73437-1.45312 0-2.15625.82812-2.15625 1.29687 0 .32813.375.51563.53125.51563.14063 0 .21875-.07813.26563-.21875.25-.73438.65625-1.21875 1.26562-1.21875.85938 0 1.09375.75 1.09375 1.375 0 .65625-.23437 1.46875-1.17187 1.46875-.51563 0-.82813-.09375-.95313-.09375-.14062 0-.1875.09375-.1875.29687 0 .1875.04688.29688.1875.29688.125 0 .4375-.09375.95313-.09375.9375 0 1.45312.82812 1.45312 1.78125C4.03125-.70312 3.39063-.25 2.60938-.25c-.71875 0-1.1875-.54687-1.40625-1.15625-.0625-.20312-.17188-.3125-.3125-.3125-.20313 0-.59375.20313-.59375.60938m0 0"/><path id="e" d="M.29688-.10937.42188 0H4.9375l.375-1.4375L5.01563-1.5c-.23438.59375-.45313.67188-.90625.67188H1.32813c.17187-.5625.82812-1.34375 1.82812-2.07813 1.04688-.76562 1.85938-1.25 1.85938-2.46875 0-1.53125-1-2.04687-2.15625-2.04687-1.5 0-2.26563.90625-2.26563 1.46875 0 .375.42188.54687.60938.54687s.26562-.10937.3125-.29687c.17187-.75.59375-1.34375 1.28125-1.34375.82812 0 1.07812.70312 1.07812 1.5 0 1.17187-.59375 1.84375-1.54687 2.67187C.96875-1.70312.51563-.95312.29688-.10937m0 0"/><path id="f" d="M1.1875 0h3.59375v-.3125l-.92187-.07812C3.625-.42187 3.5-.5 3.5-.9375V-7.375l-.0625-.04687-2.25.375v.26562l1.01563.125c.1875.03125.26562.10938.26562.42188V-.9375c0 .4375-.10937.51563-.35937.54688L1.1875-.3125Zm0 0"/><path id="g" d="M.45313-3.65625c0 2.1875.65625 3.78125 2.45312 3.78125s2.4375-1.59375 2.4375-3.78125c0-2.17187-.64062-3.76562-2.4375-3.76562-1.79687 0-2.45312 1.59375-2.45312 3.76562m1.10937 0c0-1.76562.3125-3.39062 1.34375-3.39062s1.32813 1.625 1.32813 3.39062C4.23438-1.875 3.9375-.25 2.90625-.25S1.5625-1.875 1.5625-3.65625m0 0"/><path id="i" d="m1.75-1.3125.51563.5L4.375-2.9375l2.10938 2.125.5-.5L4.875-3.42187l2.10938-2.125-.5-.48438L4.375-3.92187 2.26563-6.03125 1.75-5.54687l2.125 2.125Zm0 0"/><path id="j" d="M.90625-8.04687 1.39063-8c.29687.04688.39062.14063.45312.57813.14063 1.10937.28125 2.3125.4375 3.53125L2.79688 0h.84375l2.45312-4.1875C6.89063-5.53125 7.64063-6.76562 8.125-7.51562 8.40625-7.9375 8.57813-8 9.21875-8.04687l.07813-.35938h-2.6875l-.0625.35938L7.21875-8c.14063.01563.21875.0625.21875.17188 0 .20312-.90625 1.8125-1.9375 3.59375L3.76563-1.21875l-.4375-3.21875c-.15625-1.07812-.375-3.04687-.375-3.29687 0-.14063.04687-.21875.21875-.25l.76562-.0625L4-8.40625H.96875Zm0 0"/><path id="k" d="M.125 0h6.32813l.625-2.125h-.35938C6.09375-.64062 5.5625-.42187 4.0625-.42187c-1.4375 0-1.51562-.1875-1.51562-.51563 0-.125.03125-.29687.09375-.54687L3.25-4.14062h1.59375c.90625 0 1.07813.17187 1.07813.70312 0 .10938 0 .20313-.01563.34375h.35938l.5625-2.54687h-.375c-.29688.84375-.4375 1.04687-1.5 1.04687H3.35938l.6875-3.03125c.0625-.29687.14062-.35937.34375-.35937h1.46875c1.1875 0 1.42187.3125 1.42187.96875 0 .29687-.03125.625-.03125.625h.35938l.45312-2.01563H1.92188l-.09376.35938.75.04687c.20313.01563.29688.10938.29688.29688q0 .11718-.04687.28125L1.375-1.01562c-.09375.42187-.20312.5625-.5.59375l-.6875.07812Zm0 0"/><path id="l" d="M0 0h3.32813l.0625-.34375-.71875-.0625c-.20313-.01562-.3125-.10937-.3125-.29687 0-.07813.03125-.1875.0625-.3125l.65625-2.9375h.73437c1.17188 0 1.34375.28125 1.34375 1.70312 0 1.46875 0 2.25 1.28125 2.25h.9375L7.5-.34375C6.64063-.46875 6.34375-.5 6.34375-2.0625c0-1.25-.10937-1.78125-1.10937-2.10937 1.48437-.20313 2.5-1.07813 2.5-2.28125 0-.85938-.375-1.95313-2.65625-1.95313H1.8125l-.09375.35938L2.4375-8c.21875.01563.29688.125.29688.32813 0 .07812-.01563.17187-.03125.28125l-1.46875 6.375c-.09376.4375-.20313.5625-.5.59375L.0625-.34375Zm3.17188-4.375.71875-3.14062c.09375-.35938.125-.46875 1.04687-.46875.78125 0 1.51563.34375 1.51563 1.40625 0 1.45312-.9375 2.20312-2.5 2.20312Zm0 0"/><path id="m" d="M.90625-6.39062h.35938c.39062-1.23438.82812-1.59375 2.01562-1.59375H4.125l-1.57812 7c-.09375.375-.21875.5625-.57813.57812l-.8125.0625L1.07813 0H4.8125l.09375-.34375-.89062-.0625c-.25 0-.34375-.10937-.34375-.3125 0-.07812.01562-.15625.03125-.26562l1.57812-7h.76563c1.17187 0 1.42187.3125 1.42187.96875 0 .1875-.01562.39062-.03125.625h.375L8.25-8.40625H1.35938Zm0 0"/><clipPath id="h"><path d="M387 10h18.30469v26H387Zm0 0"/></clipPath></defs><path fill="none" stroke="#000" stroke-miterlimit="10" stroke-width=".39767" d="M18.78133 14.04688v18.38671"/><use xlink:href="#a" x="11.94506" y="44.30609"/><use xlink:href="#b" x="19.8083" y="44.30609"/><path fill="none" stroke="#000" stroke-miterlimit="10" stroke-width=".39767" d="M55.55475 14.04688v18.38671"/><use xlink:href="#a" x="48.71828" y="44.30609"/><use xlink:href="#c" x="56.58152" y="44.30609"/><path fill="none" stroke="#000" stroke-miterlimit="10" stroke-width=".39767" d="M92.33208 14.04688v18.38671"/><use xlink:href="#a" x="85.4925" y="44.43382"/><use xlink:href="#d" x="93.35574" y="44.43382"/><path fill="none" stroke="#000" stroke-miterlimit="10" stroke-width=".39767" d="M129.1055 14.04688v18.38671"/><use xlink:href="#a" x="122.26572" y="44.43382"/><use xlink:href="#e" x="130.12896" y="44.43382"/><path fill="none" stroke="#000" stroke-miterlimit="10" stroke-width=".39767" d="M165.87892 14.04688v18.38671"/><use xlink:href="#a" x="159.03994" y="44.43382"/><use xlink:href="#f" x="166.90318" y="44.43382"/><path fill="none" stroke="#000" stroke-miterlimit="10" stroke-width=".39767" d="M202.65234 14.04688v18.38671"/><use xlink:href="#g" x="199.74496" y="44.43382"/><path fill="none" stroke="#000" stroke-miterlimit="10" stroke-width=".39767" d="M239.42576 14.04688v18.38671"/><use xlink:href="#f" x="236.51818" y="44.43382"/><path fill="none" stroke="#000" stroke-miterlimit="10" stroke-width=".39767" d="M276.20309 14.04688v18.38671"/><use xlink:href="#e" x="273.2924" y="44.43382"/><path fill="none" stroke="#000" stroke-miterlimit="10" stroke-width=".39767" d="M312.97651 14.04688v18.38671"/><use xlink:href="#d" x="310.06562" y="44.43382"/><path fill="none" stroke="#000" stroke-miterlimit="10" stroke-width=".39767" d="M349.74993 14.04688v18.38671"/><use xlink:href="#c" x="346.83984" y="44.30609"/><path fill="none" stroke="#000" stroke-miterlimit="10" stroke-width=".39767" d="M386.52335 14.04688v18.38671"/><use xlink:href="#b" x="383.61306" y="44.30609"/><path fill="none" stroke="#000" stroke-miterlimit="10" stroke-width=".79535" d="M.39462 23.24219H398.746"/><path d="M402.90234 23.24219c-.51171-.10547-2.7539-.70703-4.15625-1.36328v2.72265c1.40235-.65234 3.64454-1.2539 4.15625-1.35937m0 0"/><g clip-path="url(#h)"><path fill="none" stroke="#000" stroke-miterlimit="10" stroke-width=".79535" d="M402.90234 23.24219c-.51172-.10547-2.7539-.70703-4.15625-1.36328v2.72265c1.40235-.65234 3.64453-1.2539 4.15625-1.35937Zm0 0"/></g><use xlink:href="#i" x="14.4159" y="26.25977"/><use xlink:href="#j" x="13.86705" y="12.73301"/><use xlink:href="#i" x="69.57673" y="26.25977"/><use xlink:href="#k" x="69.49889" y="12.73301"/><use xlink:href="#i" x="253.44484" y="26.25977"/><use xlink:href="#l" x="253.54862" y="12.73301"/><use xlink:href="#i" x="308.60567" y="26.25977"/><use xlink:href="#m" x="308.444" y="12.73301"/></svg>