<svg xmlns="http://www.w3.org/2000/svg" xmlns:xlink="http://www.w3.org/1999/xlink" width="383.474" height="174.831" viewBox="0 0 383.474 174.831"><defs><path id="c" d="M1.79688-5.32812H13.375V-6.5625H1.79688Zm0 0"/><path id="d" d="M.5625-.20312.78125 0H9.5l.70313-2.78125-.57813-.10937C9.1875-1.75 8.75-1.59375 7.90625-1.59375h-5.375c.32813-1.09375 1.59375-2.59375 3.53125-4 2.01563-1.48437 3.59375-2.42187 3.59375-4.76562 0-2.9375-1.95312-3.95313-4.17187-3.95313-2.89063 0-4.35938 1.75-4.35938 2.84375 0 .71875.79688 1.0625 1.15625 1.0625.39063 0 .51563-.23437.60938-.59375.32812-1.42187 1.15625-2.5625 2.45312-2.5625 1.625 0 2.09375 1.34375 2.09375 2.875 0 2.26563-1.14062 3.54688-2.98437 5.15625C1.85938-3.26562.96875-1.84375.5625-.20312m0 0"/><path id="e" d="M2.28125 0h6.92188v-.60937L7.4375-.76563c-.45312-.04687-.70312-.20312-.70312-1.03124v-12.40625L6.625-14.3125l-4.34375.75v.51563L4.25-12.8125c.35938.04688.5.20313.5.8125v10.20313c0 .82812-.20312.98437-.70312 1.03125l-1.76563.15624Zm0 0"/><path id="f" d="M.875-7.03125C.875-2.82812 2.10938.25 5.57813.25s4.71875-3.07812 4.71875-7.28125-1.25-7.28125-4.71875-7.28125S.875-11.23437.875-7.03125m2.125 0c0-3.42187.57813-6.53125 2.57813-6.53125 1.98437 0 2.57812 3.10938 2.57812 6.53125S7.5625-.5 5.57813-.5C3.57813-.5 3-3.60937 3-7.03125m0 0"/><path id="g" d="M.5625-2.15625C.5625-1.25 2.01563.25 5 .25c3.03125 0 4.96875-1.54687 4.96875-4.23437 0-2.82813-2.42187-3.65625-3.59375-3.76563v-.09375c1.14063-.17187 2.96875-1.01562 2.96875-3.10937 0-2.32813-1.82812-3.35938-4.07812-3.35938-2.78125 0-4.14063 1.60938-4.14063 2.51563 0 .64062.73438 1 1.03125 1 .26563 0 .42188-.15625.51563-.42188.46875-1.4375 1.25-2.34375 2.4375-2.34375 1.65625 0 2.07812 1.45313 2.07812 2.64063 0 1.25-.45312 2.84375-2.23437 2.84375-1.01563 0-1.59375-.20313-1.84375-.20313-.26563 0-.375.20313-.375.57813 0 .35937.10937.57812.375.57812.25 0 .82812-.20312 1.84375-.20312 1.78125 0 2.79687 1.625 2.79687 3.45312C7.75-1.35937 6.51563-.5 5.01563-.5 3.625-.5 2.70313-1.51562 2.3125-2.70312c-.14062-.40625-.34375-.60938-.64062-.60938-.375 0-1.10938.40625-1.10938 1.15625m0 0"/><path id="n" d="M.67188-5.6875c0 3.46875 2 6 6.17187 6 3.71875 0 5.53125-1.90625 6.70313-3.98437 1.14062-2.0625 1.34375-4.20313 1.34375-5.03125 0-4.32813-2.625-6.1875-6.09375-6.1875-3.35938 0-5.4375 1.85937-6.67188 3.875C.96875-9.0625.67188-7.07812.67188-5.6875m2.21875.84375c0-1.76562.32812-3.73437 1.29687-5.76562.96875-2 2.46875-3.54688 4.70313-3.54688 2.29687 0 3.78125 1.375 3.78125 4.34375 0 1.21875-.10938 2.9375-.98438 5.17188C10.8125-2.375 9.375-.42187 6.65625-.42187c-2.29687 0-3.76562-1.48438-3.76562-4.42188m0 0"/><path id="h" d="M1-7.28125c0 2.35938.65625 4.29688 1.79688 5.5625C3.98438-.40625 5.70313.3125 8.01563.3125s4.03125-.71875 5.21875-2.03125c1.14062-1.26562 1.79687-3.20312 1.79687-5.5625 0-2.34375-.65625-4.29687-1.79687-5.54687-1.1875-1.32813-2.90625-2.0625-5.21875-2.0625s-4.03125.73437-5.21875 2.0625C1.65625-11.57812 1-9.625 1-7.28125m2.35938 0c0-3.07812.92187-6.875 4.65625-6.875s4.65625 3.79688 4.65625 6.875c0 3.09375-.92188 6.85938-4.65625 6.85938S3.35938-4.1875 3.35938-7.28125m0 0"/><path id="i" d="M.67188 0h5.54687v-.60937c-1.875-.10938-1.98437-.15626-1.98437-1.23438v-4.92187c0-1.60938.71875-2.17188 1.20312-2.17188.34375 0 .70313.14063 1.29688.46875.15625.09375.3125.10938.4375.10938.51562 0 .95312-.53125.95312-1.17188 0-.48437-.28125-1.03125-1.10937-1.03125-.76563 0-1.39063.4375-2.78125 1.67188l-.25-1.67188-3.20313.53125v.51563l.78125.10937c.54688.09375.70313.1875.70313.9375v6.625c0 1.07813-.10938 1.125-1.59375 1.23438Zm0 0"/><path id="j" d="M1.92188-13.76562c0 .75.54687 1.29687 1.29687 1.29687.76563 0 1.28125-.54687 1.28125-1.29687 0-.76563-.51562-1.28125-1.28125-1.28125-.75 0-1.29687.51562-1.29687 1.28125M.67188 0h5.125v-.60937c-1.5-.10938-1.5625-.15626-1.5625-1.23438v-8.59375l-.15625-.125-3.29688.53125v.51563l.78125.10937c.54688.09375.70313.1875.70313.9375v6.625c0 1.07813-.07813 1.125-1.59375 1.23438Zm0 0"/><path id="k" d="M.875 2.01563c0 2.125 2.125 3.0625 4.5625 3.0625 1.25 0 2.57813-.23438 3.57813-.84375.96875-.57813 1.6875-1.59375 1.6875-2.89063 0-2.28125-1.8125-3.0625-4.07813-3.0625H4.95313c-1.53125 0-1.75-.51562-1.75-.92187 0-.60938.8125-.9375 1.07812-1.03125.39063.04687.84375.0625 1.0625.0625 2 0 4.26563-.875 4.26563-3.42188 0-.875-.29688-1.60937-.65625-1.96875l1.6875-.26562.42187-1.32813-.1875-.17187-2.6875.84375c-.57812-.40625-1.76562-.64063-2.71875-.64063-3.23437 0-4.34375 1.96875-4.34375 3.53125 0 1.96875 1.29688 2.89063 2.25 3.14063v.04687c-1.14062.4375-1.92187 1.04688-1.92187 1.875 0 .73438.85937 1.51563 1.85937 1.64063v.03125C2.42188 0 .875.5.875 2.01563m2.01563-.09375c0-.71875.20312-1.25.64062-1.59375.48438-.34375 1.17188-.48438 2.17188-.48438C7.5625-.15625 8.9375.3125 8.9375 1.875c0 1.6875-1.53125 2.48438-3.03125 2.48438-1.78125 0-3.01562-.90625-3.01562-2.4375m.375-8.95313c0-2.07812 1.07812-2.79687 2.20312-2.79687 1.03125 0 2.09375.76562 2.09375 2.79687 0 1.76563-.89062 2.6875-2.125 2.6875-1.1875 0-2.17187-.92187-2.17187-2.6875m0 0"/><path id="l" d="M.67188 0h5.125v-.60937c-1.5-.10938-1.5625-.15626-1.5625-1.23438v-4.92187c0-.53125.01562-.79688.20312-1.14063.4375-.82812 1.39063-1.51562 2.5-1.51562 1.4375 0 2.21875.78125 2.21875 2.60937v4.96875c0 1.07813-.0625 1.125-1.59375 1.23438V0h5.15625v-.60937c-1.5-.10938-1.59375-.15626-1.59375-1.23438v-5.35937c0-2.14063-1.15625-3.35938-3.09375-3.35938-1.5625 0-2.51562.75-3.82812 1.60938l-.28125-1.60938-3.14063.53125v.51563l.78125.10937c.54688.09375.70313.1875.70313.9375v6.625c0 1.07813-.07813 1.125-1.59375 1.23438Zm0 0"/><path id="m" d="M1.03125-5.07812C1.03125-1.75 2.46875.25 5.89063.25c2.32812 0 3.53125-1.29687 4.09375-2.95312l-.625-.34375C8.78125-1.8125 7.96875-.82812 6.3125-.82812c-2.625 0-3.14062-2.51563-3.09375-4.70313h6.07813c.4375 0 .82812-.10937.82812-.8125 0-1.21875-.40625-4.21875-4.26562-4.21875-3.28125 0-4.82813 2.32813-4.82813 5.48438M3.25-6.34375c0-.85937.3125-3.48437 2.5-3.48437 1.95313 0 2.17188 1.98437 2.17188 2.8125 0 .40625-.125.67187-.71875.67187Zm0 0"/><path id="o" d="M.60938-13.95312C2.46875-13.8125 2.5-13.79687 2.5-12.60937v7.28125c0 1.23437.20313 2.34375.5625 3.0625C4.03125-.20312 6.25.3125 8.3125.3125c2.07813 0 4.29688-.48437 5.25-2.57812.35938-.73438.59375-1.85938.59375-3.10938v-7.23437c0-1.1875.04688-1.20313 1.875-1.34375v-.59375h-5.85937v.59375c1.85937.14062 1.89062.15625 1.89062 1.34375v6.82812c0 2-.32812 3.25-.95312 4.10938-.65625.84375-1.57813 1.25-2.79688 1.25s-2.125-.40625-2.78125-1.25c-.625-.85938-.9375-2.10938-.9375-4.10938v-6.82812c0-1.1875.0625-1.20313 1.90625-1.34375v-.59375H.60938Zm0 0"/><path id="p" d="M.65625-9.46875h1.51563v7.3125C2.17188 0 3.76563.25 4.5.25c1.07813 0 2.07813-.54687 2.6875-.92187L7.03125-1.125c-.51562.20313-.96875.28125-1.5.28125-.71875 0-1.39062-.51562-1.39062-2.10937v-6.51563h2.70312v-.85937H4.14063v-2.64063h-.60938l-1.26562 2.64063H.65625Zm0 0"/><path id="q" d="m4.23438-11.82812.3125.4375 3.17187-1.78125c.64063-.32813 1.1875-.6875 1.1875-1.14063 0-.42187-.51562-.90625-.82812-.90625-.35938 0-.71875.21875-1.34375.85938Zm-3.20313 6.75C1.03125-1.75 2.46875.25 5.89063.25c2.32812 0 3.53125-1.29687 4.09375-2.95312l-.625-.34375C8.78125-1.8125 7.96875-.82812 6.3125-.82812c-2.625 0-3.14062-2.51563-3.09375-4.70313h6.07813c.4375 0 .82812-.10937.82812-.8125 0-1.21875-.40625-4.21875-4.26562-4.21875-3.28125 0-4.82813 2.32813-4.82813 5.48438M3.25-6.34375c0-.85937.3125-3.48437 2.5-3.48437 1.95313 0 2.17188 1.98437 2.17188 2.8125 0 .40625-.125.67187-.71875.67187Zm0 0"/><path id="r" d="M1.03125-4.95312C1.03125-1.84375 2.67188.25 5.4375.25c1.14063 0 2.10938-.51562 3.25-1.4375v1.03125L8.85938 0h3.40625v-.60937c-1.5-.10938-1.5625-.15626-1.5625-1.23438V-15.5l-.15625-.10937-3.3125.51562v.54688l.79687.0625c.54688.0625.67188.17187.67188.98437v3.45313c-.57813-.3125-1.35938-.51563-2.32813-.51563-1.71875 0-3.01562.54688-3.89062 1.45313-.89063.9375-1.45313 2.32812-1.45313 4.15625m2.1875-.23438c0-2.73437.98438-4.64062 3.14063-4.64062.98437 0 1.79687.45312 2.17187 1.3125.17188.35937.17188.67187.17188 1.23437v3.70313c0 .46875 0 .82812-.125 1.1875C8.15625-1.29687 7.23438-.875 6.14063-.875c-1.9375 0-2.92188-1.90625-2.92188-4.3125m0 0"/><path id="s" d="M.42188 0h5.125v-.60937c-1.5-.10938-1.5625-.15626-1.5625-1.23438V-15.5l-.15625-.10937-3.29688.51562v.54688l.79688.0625C1.85938-14.42187 2-14.3125 2-13.5v11.65625C2-.76562 1.95313-.71875.42188-.60937Zm0 0"/><path id="t" d="M1.03125-5.15625C1.03125-1.75 2.70313.25 6.09375.25c3.375 0 5.03125-2 5.03125-5.40625 0-3.39062-1.65625-5.40625-5.03125-5.40625-3.39062 0-5.0625 2.01563-5.0625 5.40625m2.1875 0c0-2.90625.95313-4.67187 2.875-4.67187 1.92188 0 2.85938 1.76562 2.85938 4.67187C8.95313-2.23437 8.01563-.5 6.09375-.5s-2.875-1.73437-2.875-4.65625m0 0"/><path id="u" d="m.53125-9.51562.8125.10937c.53125.09375.67188.1875.67188.9375v5.5625C2.01563-.5 3.45313.25 5.01563.25c1.79687 0 3.25-1.21875 3.84375-1.5L9.0625 0h3.39063v-.60937C11-.71875 10.85938-.76563 10.85938-1.84375v-8.59375l-.15625-.125-3.29688.53125v.51563l.8125.10937c.53125.09375.67188.1875.67188.9375v4.75c0 .57813-.0625 1.04688-.1875 1.25C8.21875-1.5 7.23438-.875 6.14063-.875c-1.23438 0-2.125-.78125-2.125-2.42187v-7.14063l-.17188-.125-3.3125.53125Zm0 0"/><path id="v" d="M1.04688-4.32812 1.25-.9375c.92188.875 2.6875 1.25 4.17188 1.25 3.71875 0 5.1875-2.125 5.1875-4.28125 0-2.48437-1.67188-3.67187-4.14063-4.5625l-.6875-.25c-1.42187-.53125-2.57812-1.42187-2.57812-2.6875 0-1.54687.92187-2.6875 2.6875-2.6875 1.8125 0 2.8125 1.03125 3.15625 3.15625h.64062v-2.95312c-.70312-.5625-2.125-.9375-3.54687-.9375-2.57813 0-4.85938 1.29687-4.85938 4.07812 0 2.21875 1.76563 3.35938 3.98438 4.14063l.375.15625c.92187.35937 2.9375 1.29687 2.9375 3.17187 0 1.82813-1.17188 2.92188-3.04688 2.92188-1.96875 0-3.26562-1.54688-3.8125-3.90625Zm0 0"/><path id="w" d="m.98438-3.51562.21874 2.75C1.96876-.09376 3.25.25 4.48438.25c2.5 0 3.9375-1.32812 3.9375-3.10937 0-1.85938-1.14063-2.6875-3.3125-3.35938-.875-.28125-2.25-.71875-2.25-1.90625 0-1.09375.82812-1.70312 1.89062-1.70312 1.5 0 2.21875 1.15625 2.375 2.4375h.59375v-2.46875c-.6875-.5-1.76562-.70313-2.70312-.70313C2.73438-10.5625 1.1875-9.5 1.1875-7.5c0 1.75 1.4375 2.53125 3.17188 3.0625.95312.29688 2.26562.76563 2.26562 2.20313C6.625-1.17187 5.79688-.5 4.67188-.5c-1.6875 0-2.65625-1.21875-3.07813-3.01562Zm0 0"/><clipPath id="a"><path d="M0 80h382.94922v2H0Zm0 0"/></clipPath><clipPath id="b"><path d="M379 77h3.94922v8H379Zm0 0"/></clipPath></defs><g clip-path="url(#a)"><path fill="none" stroke="#000" stroke-miterlimit="10" stroke-width=".79592" d="M.39456 81.25h381.3632"/></g><g clip-path="url(#b)"><path fill="none" stroke="#000" stroke-linecap="round" stroke-linejoin="round" stroke-miterlimit="10" stroke-width=".79592" d="M379.60938 78.14453c.46484 1.86328 1.5 2.74219 2.54687 3.10547-1.04687.36328-2.08203 1.24219-2.54687 3.10937"/></g><path fill="none" stroke="#000" stroke-miterlimit="10" stroke-width=".79592" d="M32.24221 65.32813v31.84765"/><use xlink:href="#c" x="19.1038" y="119.83403"/><use xlink:href="#d" x="34.23622" y="119.83403"/><path fill="none" stroke="#000" stroke-miterlimit="10" stroke-width=".79592" d="M95.9336 65.32813v31.84765"/><use xlink:href="#c" x="82.79643" y="119.83403"/><use xlink:href="#e" x="97.92885" y="119.83403"/><path fill="none" stroke="#000" stroke-miterlimit="10" stroke-width=".79592" d="M159.6289 65.32813v31.84765"/><use xlink:href="#f" x="154.05469" y="119.83403"/><path fill="none" stroke="#000" stroke-miterlimit="10" stroke-width=".79592" d="M223.3203 65.32813v31.84765"/><use xlink:href="#e" x="217.74632" y="119.83403"/><path fill="none" stroke="#000" stroke-miterlimit="10" stroke-width=".79592" d="M287.0156 65.32813v31.84765"/><use xlink:href="#d" x="281.43896" y="119.83403"/><path fill="none" stroke="#000" stroke-miterlimit="10" stroke-width=".79592" d="M350.707 65.32813v31.84765"/><use xlink:href="#g" x="345.1306" y="119.83403"/><path fill="none" stroke="#007F7F" stroke-miterlimit="10" stroke-width=".39795" d="m223.3203 17.5586-50.58202 18.96875"/><path fill="none" stroke="#007F7F" stroke-linecap="round" stroke-linejoin="round" stroke-miterlimit="10" stroke-width=".39793" d="M175.32812 38.10547c-.85546-1.20703-1.8828-1.54688-2.77734-1.50781.69922-.5586 1.25-1.48828 1.10156-2.96485"/><g fill="#007F7F"><use xlink:href="#h" x="231.22883" y="22.53949"/><use xlink:href="#i" x="247.25666" y="22.53949"/></g><g fill="#007F7F"><use xlink:href="#j" x="255.60635" y="22.53949"/><use xlink:href="#k" x="261.71752" y="22.53949"/><use xlink:href="#j" x="272.64152" y="22.53949"/><use xlink:href="#l" x="278.75268" y="22.53949"/><use xlink:href="#m" x="291.75851" y="22.53949"/></g><use xlink:href="#n" x="151.84971" y="57.10607" fill="#007F7F"/><path fill="none" stroke="#FF7F00" stroke-miterlimit="10" stroke-width=".39795" d="M160.02734 132.20702h62.89452"/><path fill="none" stroke="#FF7F00" stroke-linecap="round" stroke-linejoin="round" stroke-miterlimit="10" stroke-width=".39795" d="M161.89453 134.59375c-.375-1.4336-1.21875-2.10937-2.0664-2.38672.84765-.28125 1.6914-.95703 2.0664-2.39062m59.15625-.00001c.3789 1.4336 1.22266 2.10938 2.07031 2.39063-.84765.27735-1.6914.95313-2.0703 2.38672"/><use xlink:href="#o" x="105.39144" y="162.08408" fill="#FF7F00"/><g fill="#FF7F00"><use xlink:href="#l" x="121.17303" y="162.08408"/><use xlink:href="#j" x="134.17885" y="162.08408"/><use xlink:href="#p" x="140.29002" y="162.08408"/><use xlink:href="#q" x="147.52045" y="162.08408"/></g><g fill="#FF7F00"><use xlink:href="#r" x="163.0558" y="162.08408"/><use xlink:href="#m" x="175.6363" y="162.08408"/></g><g fill="#FF7F00"><use xlink:href="#s" x="191.17166" y="162.08408"/><use xlink:href="#t" x="197.03659" y="162.08408"/><use xlink:href="#l" x="209.16939" y="162.08408"/><use xlink:href="#k" x="222.17521" y="162.08408"/><use xlink:href="#u" x="233.0992" y="162.08408"/><use xlink:href="#m" x="245.8364" y="162.08408"/><use xlink:href="#u" x="256.64847" y="162.08408"/><use xlink:href="#i" x="269.38567" y="162.08408"/></g><path fill="none" stroke="#EC008C" stroke-miterlimit="10" stroke-width=".39795" d="m350.707 144.9453 18.96874-50.58202"/><path fill="none" stroke="#EC008C" stroke-linecap="round" stroke-linejoin="round" stroke-miterlimit="10" stroke-width=".39793" d="M366.78125 95.27344c1.47656.15234 2.40625-.40235 2.96484-1.09766-.03906.89063.30078 1.91797 1.50782 2.77734"/><use xlink:href="#v" x="328.65519" y="161.36806" fill="#EC008C"/><g fill="#EC008C"><use xlink:href="#m" x="339.78066" y="161.36806"/><use xlink:href="#l" x="350.59272" y="161.36806"/><use xlink:href="#w" x="363.59855" y="161.36806"/></g></svg>