<svg xmlns="http://www.w3.org/2000/svg" xmlns:xlink="http://www.w3.org/1999/xlink" width="553.554pt" height="43.5pt" viewBox="0 0 553.554 43.5"><defs><clipPath id="d"><path d="M476 13.97266h2v7.28515h-2Zm0 0"/></clipPath><clipPath id="e"><path d="M494 13.97266h2v7.28515h-2Zm0 0"/></clipPath><clipPath id="f"><path d="M513 13.97266h1v7.28515h-1Zm0 0"/></clipPath><clipPath id="g"><path d="M531 13.97266h1v7.28515h-1Zm0 0"/></clipPath><clipPath id="h"><path d="M2.92578 17H545v2H2.92578Zm0 0"/></clipPath><clipPath id="i"><path d="M532 5h18.1875v26H532Zm0 0"/></clipPath><path id="a" d="M.92188-2.75h5.96875v-.625H.92188Zm0 0"/><path id="b" d="M1.17188 0h3.5625v-.3125l-.90625-.07812C3.59375-.42187 3.46875-.5 3.46875-.92187V-7.3125l-.0625-.0625-2.23437.39063v.26562l1.01562.125c.1875.01563.25.10938.25.40625v5.26563c0 .42187-.09375.5-.34375.53125l-.92187.07812Zm0 0"/><path id="c" d="M.45313-3.625c0 2.17188.625 3.75 2.42187 3.75 1.78125 0 2.42188-1.57812 2.42188-3.75 0-2.15625-.64063-3.75-2.42188-3.75-1.79687 0-2.42187 1.59375-2.42187 3.75m1.09375 0c0-1.76562.29687-3.35937 1.32812-3.35937 1.01563 0 1.32813 1.59375 1.32813 3.35937S3.89063-.25 2.875-.25c-1.03125 0-1.32812-1.60937-1.32812-3.375m0 0"/><path id="j" d="M.84375-.60937c0 .4375.29688.75.75.75.48438 0 .75-.3125.76563-.75 0-.45313-.28125-.78125-.76563-.78125-.45312 0-.75.32812-.75.78125m0 0"/></defs><path fill="none" stroke="#000" stroke-miterlimit="10" stroke-width=".39397" d="M94.3946 8.50782v18.21483"/><use xlink:href="#a" x="87.63307" y="38.61119"/><use xlink:href="#b" x="95.42318" y="38.61119"/><path fill="none" stroke="#7f7f7f" stroke-miterlimit="10" stroke-width=".39397" d="M112.61334 13.97266v7.28515m18.21484-7.28515v7.28515m18.21484-7.28515v7.28515m18.21874-7.28515v7.28515m18.21484-7.28515v7.28515m18.21483-7.28515v7.28515m18.21875-7.28515v7.28515m18.21483-7.28515v7.28515m18.21484-7.28515v7.28515"/><path fill="none" stroke="#000" stroke-miterlimit="10" stroke-width=".39397" d="M276.55469 8.50782v18.21483"/><use xlink:href="#c" x="273.68751" y="38.61119"/><path fill="none" stroke="#7f7f7f" stroke-miterlimit="10" stroke-width=".39397" d="M294.77343 13.97266v7.28515m18.21484-7.28515v7.28515m18.21483-7.28515v7.28515m18.21875-7.28515v7.28515m18.21483-7.28515v7.28515m18.21484-7.28515v7.28515m18.21875-7.28515v7.28515m18.21483-7.28515v7.28515m18.21484-7.28515v7.28515"/><path fill="none" stroke="#000" stroke-miterlimit="10" stroke-width=".39397" d="M458.71868 8.50782v18.21483"/><use xlink:href="#b" x="455.84574" y="38.61119"/><path fill="none" stroke="#7f7f7f" stroke-miterlimit="10" stroke-width=".39397" d="M21.53134 13.97266v7.28515m18.21484-7.28515v7.28515m18.21874-7.28515v7.28515m18.21484-7.28515v7.28515"/><g clip-path="url(#d)"><path fill="none" stroke="#7f7f7f" stroke-miterlimit="10" stroke-width=".39397" d="M476.93352 13.97266v7.28515"/></g><g clip-path="url(#e)"><path fill="none" stroke="#7f7f7f" stroke-miterlimit="10" stroke-width=".39397" d="M495.14836 13.97266v7.28515"/></g><g clip-path="url(#f)"><path fill="none" stroke="#7f7f7f" stroke-miterlimit="10" stroke-width=".39397" d="M513.3671 13.97266v7.28515"/></g><g clip-path="url(#g)"><path fill="none" stroke="#7f7f7f" stroke-miterlimit="10" stroke-width=".39397" d="M531.58194 13.97266v7.28515"/></g><g clip-path="url(#h)"><path fill="none" stroke="#000" stroke-miterlimit="10" stroke-width=".78796" d="M3.3165 17.61719h540.3748"/></g><path d="M547.8086 17.61719c-.50782-.10547-2.72657-.70313-4.1172-1.35157v2.69922c1.39063-.64843 3.60938-1.24609 4.1172-1.34765m0 0"/><g clip-path="url(#i)"><path fill="none" stroke="#000" stroke-miterlimit="10" stroke-width=".78796" d="M547.8086 17.61719c-.50782-.10547-2.72657-.70313-4.1172-1.35156v2.69921c1.39063-.64843 3.60938-1.24609 4.1172-1.34765Zm0 0"/></g><path fill="none" stroke="#007f7f" stroke-miterlimit="10" stroke-width="1.18195" d="M194.58597 10.32813v14.57421"/><use xlink:href="#j" x="161.98821" y="5.6639" fill="#007f7f"/><use xlink:href="#j" x="167.62208" y="5.6639" fill="#007f7f"/><use xlink:href="#j" x="173.25596" y="5.6639" fill="#007f7f"/><use xlink:href="#j" x="178.88983" y="5.6639" fill="#007f7f"/><use xlink:href="#j" x="184.5237" y="5.6639" fill="#007f7f"/><use xlink:href="#j" x="190.15758" y="5.6639" fill="#007f7f"/><use xlink:href="#j" x="195.79145" y="5.6639" fill="#007f7f"/><use xlink:href="#j" x="201.42532" y="5.6639" fill="#007f7f"/><use xlink:href="#j" x="207.05919" y="5.6639" fill="#007f7f"/><use xlink:href="#j" x="212.69307" y="5.6639" fill="#007f7f"/><use xlink:href="#j" x="218.32694" y="5.6639" fill="#007f7f"/><use xlink:href="#j" x="223.96081" y="5.6639" fill="#007f7f"/><path fill="none" stroke="#007f7f" stroke-miterlimit="10" stroke-width="1.18195" d="M112.61334 10.32813v14.57421"/><use xlink:href="#j" x="80.00188" y="5.6639" fill="#007f7f"/><use xlink:href="#j" x="85.63576" y="5.6639" fill="#007f7f"/><use xlink:href="#j" x="91.26963" y="5.6639" fill="#007f7f"/><use xlink:href="#j" x="96.9035" y="5.6639" fill="#007f7f"/><use xlink:href="#j" x="102.53737" y="5.6639" fill="#007f7f"/><use xlink:href="#j" x="108.17125" y="5.6639" fill="#007f7f"/><use xlink:href="#j" x="113.80512" y="5.6639" fill="#007f7f"/><use xlink:href="#j" x="119.43899" y="5.6639" fill="#007f7f"/><use xlink:href="#j" x="125.07287" y="5.6639" fill="#007f7f"/><use xlink:href="#j" x="130.70674" y="5.6639" fill="#007f7f"/><use xlink:href="#j" x="136.34061" y="5.6639" fill="#007f7f"/><use xlink:href="#j" x="141.97448" y="5.6639" fill="#007f7f"/></svg>