<svg xmlns="http://www.w3.org/2000/svg" xmlns:xlink="http://www.w3.org/1999/xlink" width="992.923pt" height="84.041pt" viewBox="0 0 992.923 84.041"><defs><path id="c" d="M1.57813-4.6875h10.1875v-1.07812H1.57813Zm0 0"/><path id="d" d="M2.01563 0h6.07812v-.53125L6.54688-.67187c-.40625-.03126-.60938-.17188-.60938-.90625v-10.90625l-.10937-.10938-3.8125.65625v.45313l1.73437.21875c.3125.03125.42188.17187.42188.70312v8.98438c0 .73437-.17188.875-.60938.90625l-1.54687.14062Zm0 0"/><path id="e" d="M.76563-6.1875c0 3.70313 1.09375 6.40625 4.14062 6.40625S9.0625-2.48437 9.0625-6.1875s-1.10937-6.40625-4.15625-6.40625S.76563-9.89062.76563-6.1875m1.875 0c0-3.01562.51562-5.75 2.26562-5.75s2.26563 2.73438 2.26563 5.75-.51563 5.75-2.26563 5.75-2.26562-2.73437-2.26562-5.75m0 0"/><path id="f" d="M.5-.17187.6875 0h7.67188l.625-2.4375-.51563-.10937c-.39062 1.01562-.76562 1.14062-1.51562 1.14062H2.21875c.29688-.95312 1.40625-2.28125 3.125-3.51562 1.76563-1.29688 3.14063-2.125 3.14063-4.20313 0-2.57812-1.70313-3.46875-3.65625-3.46875-2.54688 0-3.84375 1.54688-3.84375 2.5 0 .64063.70312.9375 1.03125.9375.32812 0 .45312-.20312.53125-.51562.29687-1.26563 1.01562-2.26563 2.15625-2.26563 1.42187 0 1.84375 1.17188 1.84375 2.54688 0 1.98437-1.01563 3.10937-2.625 4.53125C1.64063-2.875.84375-1.60937.5-.17187m0 0"/><path id="g" d="m.95313 2.26563.34375.35937C2.21875 1.75 3.5625.51563 3.5625-.95312c0-.98438-.53125-1.67188-1.23437-1.67188-.57813 0-.92188.45313-.92188.9375 0 .65625.60938 1.01563.60938 1.8125 0 .76563-.48438 1.48438-1.0625 2.14063m0 0"/><path id="h" d="M.75-1.89062C.75-1.04687 2.04688.21875 4.45313.21875c3.04687 0 4.4375-1.85937 4.4375-4.20312 0-2.59375-1.625-3.92188-3.82813-3.92188-1.01562 0-2.14062.45313-2.73437.98438l.40625-3.5c.0625-.46875.1875-.53125.53125-.53125H7.875l.45313-1.26563-.09375-.15625h-6.1875l-.17188.17188-.375 6.1875.45313.25c.76562-.89063 1.51562-1.32813 2.51562-1.32813 1.1875 0 2.48438.875 2.48438 3.3125 0 1.90625-.76563 3.34375-2.375 3.34375-1.3125 0-1.95313-.92187-2.32813-1.98437-.10937-.28125-.28125-.45313-.53125-.45313-.375 0-.96875.375-.96875.98438m0 0"/><clipPath id="a"><path d="M5.5625 42H982v2H5.5625Zm0 0"/></clipPath><clipPath id="b"><path d="M969 30h18.28516v26H969Zm0 0"/></clipPath></defs><g clip-path="url(#a)"><path fill="none" stroke="#000" stroke-miterlimit="10" stroke-width=".78802" d="M5.953 42.75h974.83628"/></g><path d="M984.90625 42.75c-.5039-.10547-2.72656-.70312-4.11719-1.35156v2.69922c1.39063-.64844 3.61328-1.2461 4.11719-1.34766m0 0"/><g clip-path="url(#b)"><path fill="none" stroke="#000" stroke-miterlimit="10" stroke-width=".78802" d="M984.90625 42.75c-.5039-.10547-2.72656-.70313-4.11719-1.35156v2.69922c1.39063-.64844 3.61329-1.2461 4.1172-1.34766Zm0 0"/></g><path fill="none" stroke="#000" stroke-miterlimit="10" stroke-width=".394" d="M19.96472 34.33984v16.81641m28.02736-16.81641v16.81641m28.02735-16.81641v16.81641m28.02735-16.81641v16.81641m28.02736-16.81641v16.81641m28.02736-16.81641v16.81641m28.02735-16.81641v16.81641m28.02735-16.81641v16.81641m28.02735-16.81641v16.81641m28.02735-16.81641v16.81641m28.02345-16.81641v16.81641m28.02735-16.81641v16.81641m28.02736-16.81641v16.81641m28.02736-16.81641v16.81641m28.02735-16.81641v16.81641m28.02735-16.81641v16.81641m28.02736-16.81641v16.81641m28.02735-16.81641v16.81641m28.02735-16.81641v16.81641m28.02736-16.81641v16.81641m28.02736-16.81641v16.81641m28.02344-16.81641v16.81641m28.02736-16.81641v16.81641m28.02735-16.81641v16.81641m28.02735-16.81641v16.81641m28.02735-16.81641v16.81641m28.02735-16.81641v16.81641m28.02736-16.81641v16.81641m28.02736-16.81641v16.81641m28.02735-16.81641v16.81641m28.02735-16.81641v16.81641m28.02736-16.81641v16.81641m28.02344-16.81641v16.81641m28.02736-16.81641v16.81641m28.02735-16.81641v16.81641"/><path fill="none" stroke="#000" stroke-miterlimit="10" stroke-width=".78802" d="M76.01943 28.73437v28.02735"/><use xlink:href="#c" x="64.45912" y="76.31022"/><use xlink:href="#d" x="77.77664" y="76.31022"/><path fill="none" stroke="#000" stroke-miterlimit="10" stroke-width=".78802" d="M356.28906 28.73437v28.02735"/><use xlink:href="#e" x="351.38498" y="76.31022"/><path fill="none" stroke="#000" stroke-miterlimit="10" stroke-width=".78802" d="M636.5587 28.73437v28.02735"/><use xlink:href="#d" x="631.65084" y="76.31022"/><path fill="none" stroke="#000" stroke-miterlimit="10" stroke-width=".78802" d="M916.82832 28.73437v28.02735"/><use xlink:href="#f" x="911.91769" y="76.31022"/><path fill="none" stroke="#007F7F" stroke-miterlimit="10" stroke-width="1.18204" d="M482.4102 31.53906v22.41797"/><g fill="#007F7F"><use xlink:href="#c" x="457.48724" y="21.95744"/><use xlink:href="#e" x="470.80476" y="21.95744"/><use xlink:href="#g" x="480.6156" y="21.95744"/></g><g fill="#007F7F"><use xlink:href="#h" x="487.70777" y="21.95744"/><use xlink:href="#h" x="497.51861" y="21.95744"/></g><path fill="none" stroke="#007F7F" stroke-miterlimit="10" stroke-width="1.18204" d="M608.53134 28.73437v28.02735"/><g fill="#007F7F"><use xlink:href="#c" x="588.51309" y="19.15443"/><use xlink:href="#e" x="601.83061" y="19.15443"/><use xlink:href="#g" x="611.64145" y="19.15443"/></g><use xlink:href="#d" x="618.73362" y="19.15443" fill="#007F7F"/></svg>