<svg xmlns="http://www.w3.org/2000/svg" xmlns:xlink="http://www.w3.org/1999/xlink" width="340.954pt" height="155.405pt" viewBox="0 0 340.954 155.405"><defs><path id="c" d="M1.59375-4.71875h10.25V-5.8125h-10.25Zm0 0"/><path id="d" d="M.5-.17187.6875 0h7.71875l.64063-2.45312-.51563-.10938C8.14063-1.54687 7.76563-1.40625 7-1.40625H2.25c.29688-.96875 1.40625-2.29687 3.125-3.5625C7.15625-6.26562 8.54688-7.10937 8.54688-9.1875c0-2.59375-1.71875-3.5-3.6875-3.5C2.29688-12.6875 1-11.125 1-10.15625c0 .625.70313.92188 1.03125.92188.32813 0 .45313-.1875.53125-.51563.29688-1.26562 1.03125-2.28125 2.1875-2.28125 1.42188 0 1.84375 1.20313 1.84375 2.5625 0 2-1.01562 3.14063-2.64062 4.5625C1.64063-2.89062.85938-1.625.5-.17187m0 0"/><path id="e" d="M2.03125 0h6.125v-.53125l-1.5625-.14062c-.40625-.04688-.625-.1875-.625-.92188v-10.98437L5.875-12.6875l-3.84375.65625v.46875l1.73438.21875c.32812.03125.4375.17188.4375.70313v9.04687c0 .73438-.17188.875-.60938.92188l-1.5625.14062Zm0 0"/><path id="f" d="M.78125-6.23437C.78125-2.5 1.85938.21875 4.9375.21875S9.125-2.5 9.125-6.23437 8.01563-12.6875 4.9375-12.6875.78125-9.96875.78125-6.23437m1.875 0c0-3.03125.51563-5.79688 2.28125-5.79688 1.76563 0 2.28125 2.76563 2.28125 5.79688 0 3.04687-.51562 5.79687-2.28125 5.79687-1.76562 0-2.28125-2.75-2.28125-5.79687m0 0"/><path id="g" d="M.5-1.90625c0 .79688 1.28125 2.125 3.92188 2.125 2.70312 0 4.40625-1.375 4.40625-3.75 0-2.5-2.14063-3.23437-3.17188-3.32812v-.09375c1.01563-.15625 2.625-.90625 2.625-2.75 0-2.0625-1.60937-2.98438-3.625-2.98438C2.20313-12.6875 1-11.25 1-10.45312c0 .57812.64063.89062.90625.89062.23438 0 .375-.14062.45313-.375.42187-1.28125 1.10937-2.09375 2.17187-2.09375C6-12.03125 6.375-10.73437 6.375-9.6875c0 1.10938-.40625 2.53125-1.98437 2.53125-.89063 0-1.40625-.1875-1.625-.1875-.25 0-.34375.1875-.34375.51563 0 .3125.09375.51562.34375.51562.21875 0 .73437-.17187 1.625-.17187 1.57812 0 2.46875 1.42187 2.46875 3.04687 0 2.23438-1.07813 3-2.42188 3-1.21875 0-2.03125-.90625-2.39062-1.96875-.125-.35937-.29688-.53125-.5625-.53125C1.15625-2.9375.5-2.57812.5-1.90625m0 0"/><path id="n" d="M.59375-5.04687c0 3.07812 1.76563 5.32812 5.48438 5.32812C9.35938.28125 10.96875-1.40625 12-3.25c1.01563-1.82812 1.20313-3.73437 1.20313-4.46875 0-3.82812-2.32813-5.48437-5.40625-5.48437-2.96875 0-4.8125 1.65625-5.90625 3.4375C.85938-8.03125.59375-6.26562.59375-5.04687m1.96875.76562c0-1.57812.29688-3.3125 1.14063-5.125.85937-1.76562 2.1875-3.14062 4.17187-3.14062 2.04688 0 3.35938 1.21875 3.35938 3.85937 0 1.0625-.10938 2.59375-.875 4.57813-.78125 2-2.04688 3.73437-4.46875 3.73437C3.875-.375 2.5625-1.6875 2.5625-4.28125m0 0"/><path id="h" d="M.89063-6.45312c0 2.09375.57812 3.8125 1.59375 4.92187C3.53125-.35937 5.0625.28125 7.10938.28125c2.03125 0 3.5625-.64062 4.625-1.8125 1-1.10937 1.57812-2.82812 1.57812-4.92187 0-2.07813-.57812-3.8125-1.57812-4.92188-1.0625-1.17187-2.59375-1.82812-4.625-1.82812-2.04688 0-3.57813.65625-4.625 1.82812C1.46875-10.26562.89063-8.53125.89063-6.45312m2.09375 0c0-2.73438.8125-6.09375 4.125-6.09375s4.125 3.35937 4.125 6.09375c0 2.75-.8125 6.07812-4.125 6.07812s-4.125-3.32812-4.125-6.07812m0 0"/><path id="i" d="M.59375 0h4.92188v-.53125C3.84375-.64062 3.75-.67187 3.75-1.625V-6c0-1.42187.64063-1.92187 1.07813-1.92187.29687 0 .60937.125 1.14062.42187.14063.07813.28125.09375.375.09375.46875 0 .85938-.46875.85938-1.04687 0-.42188-.25-.90625-.98438-.90625-.6875 0-1.23437.39062-2.46875 1.48437l-.21875-1.48437-2.84375.46875v.45312l.70313.10938C1.85938-8.25 2-8.17187 2-7.5v5.875C2-.67187 1.90625-.64062.59375-.53125Zm0 0"/><path id="j" d="M1.70313-12.20312c0 .67187.48437 1.15625 1.15625 1.15625.67187 0 1.125-.48438 1.125-1.15625 0-.67188-.45313-1.125-1.125-1.125-.67188 0-1.15625.45312-1.15625 1.125M.59375 0h4.54688v-.53125C3.8125-.64062 3.75-.67187 3.75-1.625V-9.25l-.14062-.10937-2.92188.46875v.45312l.70313.10938C1.85938-8.25 2-8.17187 2-7.5v5.875C2-.67187 1.9375-.64062.59375-.53125Zm0 0"/><path id="k" d="M.78125 1.78125C.78125 3.67188 2.65625 4.5 4.82813 4.5 5.9375 4.5 7.10938 4.28125 8 3.75c.84375-.51562 1.48438-1.40625 1.48438-2.5625 0-2.01562-1.60938-2.71875-3.60938-2.71875H4.39063c-1.35938 0-1.54688-.45312-1.54688-.8125 0-.53125.70313-.82812.95313-.90625.34375.03125.75.0625.95312.0625 1.76563 0 3.76563-.78125 3.76563-3.04687 0-.76563-.26563-1.42188-.57813-1.75l1.48438-.23438.375-1.17187-.15625-.15625-2.375.75c-.51563-.34375-1.57813-.5625-2.42188-.5625C1.98438-9.35937 1-7.625 1-6.23437c0 1.75 1.14063 2.5625 2 2.78125v.04687c-1.01562.39063-1.70312.92188-1.70312 1.65625 0 .65625.75 1.35938 1.64062 1.45313v.03125C2.14063 0 .78125.4375.78125 1.78125m1.78125-.07812c0-.625.17188-1.10938.57813-1.40625.40625-.3125 1.03125-.4375 1.92187-.4375 1.64063 0 2.85938.42187 2.85938 1.8125 0 1.48437-1.35938 2.20312-2.6875 2.20312-1.57813 0-2.67188-.8125-2.67188-2.17187m.32813-7.9375c0-1.84375.95312-2.48438 1.95312-2.48438.90625 0 1.85938.6875 1.85938 2.48438 0 1.57812-.79688 2.39062-1.875 2.39062-1.0625 0-1.9375-.8125-1.9375-2.39062m0 0"/><path id="l" d="M.59375 0h4.54688v-.53125C3.8125-.64062 3.75-.67187 3.75-1.625V-6c0-.46875.01563-.70312.17188-1 .40625-.73437 1.23437-1.35937 2.23437-1.35937 1.26563 0 1.95313.70312 1.95313 2.32812V-1.625c0 .95313-.04688.98438-1.40625 1.09375V0h4.5625v-.53125C9.9375-.64062 9.85938-.67187 9.85938-1.625v-4.76562c0-1.89063-1.03125-2.96875-2.73438-2.96875-1.39062 0-2.25.67187-3.39062 1.42187l-.26563-1.42187-2.78125.46875v.45312l.70313.10938C1.85938-8.25 2-8.17187 2-7.5v5.875C2-.67187 1.9375-.64062.59375-.53125Zm0 0"/><path id="m" d="M.90625-4.5c0 2.95313 1.28125 4.71875 4.3125 4.71875 2.0625 0 3.14063-1.15625 3.625-2.625l-.54687-.29687C7.78125-1.60937 7.0625-.73437 5.59375-.73437c-2.3125 0-2.78125-2.21875-2.73437-4.17188h5.375c.39062 0 .73437-.09375.73437-.70312 0-1.09375-.35937-3.75-3.76562-3.75C2.28125-9.35937.90625-7.29687.90625-4.5M2.875-5.60937c0-.78125.28125-3.10938 2.21875-3.10938 1.73438 0 1.9375 1.76563 1.9375 2.5 0 .35938-.125.60938-.64062.60938Zm0 0"/><path id="o" d="M.53125-12.35937c1.65625.10937 1.6875.14062 1.6875 1.1875v6.45312c0 1.09375.1875 2.07813.5 2.71875C3.57813-.17187 5.53125.28125 7.35938.28125c1.84375 0 3.8125-.4375 4.67187-2.28125.3125-.65625.51563-1.65625.51563-2.76562v-6.40625c0-1.04688.03125-1.07813 1.65625-1.1875v-.54688h-5.1875v.54688c1.64062.10937 1.6875.14062 1.6875 1.1875V-5.125c0 1.76563-.3125 2.875-.85938 3.64063C9.26563-.73437 8.45313-.375 7.35938-.375c-1.0625 0-1.875-.35937-2.45313-1.10937-.5625-.76563-.84375-1.875-.84375-3.64063v-6.04687c0-1.04688.0625-1.07813 1.6875-1.1875v-.54688H.53125Zm0 0"/><path id="p" d="M.57813-8.39062h1.34375v6.48437c0 1.90625 1.40625 2.125 2.0625 2.125.95312 0 1.84375-.48437 2.39062-.8125L6.23438-1c-.45313.1875-.85938.25-1.32813.25-.64062 0-1.23437-.45312-1.23437-1.875v-5.76562h2.40625v-.75H3.67188v-2.34375h-.53125L2-9.14062H.57813Zm0 0"/><path id="q" d="m3.75-10.48437.28125.39062 2.8125-1.57812c.5625-.29688 1.04688-.60938 1.04688-1.01563 0-.375-.45313-.8125-.73438-.8125-.3125 0-.625.20313-1.1875.78125ZM.90625-4.5c0 2.95313 1.28125 4.71875 4.3125 4.71875 2.0625 0 3.14063-1.15625 3.625-2.625l-.54687-.29687C7.78125-1.60937 7.0625-.73437 5.59375-.73437c-2.3125 0-2.78125-2.21875-2.73437-4.17188h5.375c.39062 0 .73437-.09375.73437-.70312 0-1.09375-.35937-3.75-3.76562-3.75C2.28125-9.35937.90625-7.29687.90625-4.5M2.875-5.60937c0-.78125.28125-3.10938 2.21875-3.10938 1.73438 0 1.9375 1.76563 1.9375 2.5 0 .35938-.125.60938-.64062.60938Zm0 0"/><path id="r" d="M.90625-4.39062C.90625-1.625 2.35938.21875 4.82813.21875c1 0 1.85937-.45312 2.875-1.26562v.90625L7.85938 0H10.875v-.53125C9.54688-.64062 9.48438-.67187 9.48438-1.625v-12.10937l-.14063-.09375-2.9375.45312v.46875l.71875.0625c.46875.0625.59375.15625.59375.875v3.0625c-.51562-.28125-1.20312-.45312-2.0625-.45312-1.53125 0-2.67187.48437-3.45312 1.28125C1.40625-7.25.90625-6.01562.90625-4.39062m1.95313-.21875c0-2.42188.875-4.10938 2.78125-4.10938.875 0 1.57812.40625 1.92187 1.17188.15625.32812.15625.59375.15625 1.09375v3.28125c0 .40625 0 .73437-.125 1.04687-.375.96875-1.1875 1.34375-2.15625 1.34375-1.70312 0-2.57812-1.67187-2.57812-3.82812m0 0"/><path id="s" d="M.375 0h4.54688v-.53125C3.59375-.64062 3.53125-.67187 3.53125-1.625v-12.10937l-.14062-.09375-2.92188.45312v.46875l.70313.0625c.46875.0625.59375.15625.59375.875V-1.625c0 .95313-.04688.98438-1.39063 1.09375Zm0 0"/><path id="t" d="M.90625-4.5625c0 3.01563 1.5 4.78125 4.48438 4.78125 3 0 4.46875-1.76562 4.46875-4.78125S8.39063-9.35937 5.39063-9.35937c-2.98438 0-4.48438 1.78125-4.48438 4.79687m1.95313 0c0-2.57812.82812-4.15625 2.53125-4.15625 1.71875 0 2.54687 1.57813 2.54687 4.15625s-.82812 4.125-2.54687 4.125c-1.70313 0-2.53125-1.54687-2.53125-4.125m0 0"/><path id="u" d="m.46875-8.4375.71875.10938c.48438.07812.59375.15625.59375.82812v4.92188C1.78125-.4375 3.0625.21875 4.4375.21875c1.59375 0 2.89063-1.07812 3.42188-1.32812L8.03125 0h3v-.53125C9.75-.64062 9.625-.67187 9.625-1.625V-9.25l-.14062-.10937-2.92188.46875v.45312l.71875.10938c.48438.07812.59375.15625.59375.82812v4.20313c0 .51562-.0625.9375-.15625 1.10937-.4375.85938-1.3125 1.40625-2.28125 1.40625-1.09375 0-1.89062-.6875-1.89062-2.14062V-9.25l-.14063-.10937-2.9375.46875Zm0 0"/><path id="v" d="m.9375-3.82812.17188 3C1.92188-.0625 3.5.28124 4.79688.28124c3.29687 0 4.60937-1.89062 4.60937-3.79687 0-2.20313-1.48437-3.25-3.67187-4.04688L5.125-7.78125c-1.25-.46875-2.28125-1.26562-2.28125-2.375 0-1.375.8125-2.39062 2.375-2.39062 1.60938 0 2.5.92187 2.79688 2.79687h.57812v-2.60937c-.64062-.5-1.89062-.84375-3.15625-.84375-2.28125 0-4.3125 1.15625-4.3125 3.625 0 1.95312 1.57813 2.96875 3.53125 3.67187L5-5.78125c.8125.32813 2.59375 1.15625 2.59375 2.82813 0 1.60937-1.03125 2.57812-2.6875 2.57812-1.75 0-2.90625-1.375-3.375-3.45312Zm0 0"/><path id="w" d="m.875-3.10937.20313 2.4375C1.75-.07812 2.875.21874 3.96875.21874c2.21875 0 3.5-1.17187 3.5-2.76562 0-1.64063-1.01562-2.375-2.9375-2.96875C3.75-5.75 2.54688-6.15625 2.54688-7.20312c0-.96875.73437-1.51563 1.65625-1.51563 1.32812 0 1.96875 1.04688 2.10937 2.17188h.53125v-2.1875c-.60937-.45313-1.5625-.625-2.40625-.625-2.01562 0-3.39062.95312-3.39062 2.71875 0 1.54687 1.28125 2.23437 2.82812 2.71875.82813.25 2 .67187 2 1.9375 0 .95312-.73437 1.54687-1.73437 1.54687-1.5 0-2.35938-1.09375-2.73438-2.67187Zm0 0"/><clipPath id="a"><path d="M.6289 71H335v2H.6289Zm0 0"/></clipPath><clipPath id="b"><path d="M322 59h18.28125v26H322Zm0 0"/></clipPath></defs><g clip-path="url(#a)"><path fill="none" stroke="#000" stroke-miterlimit="10" stroke-width=".79397" d="M1.02342 72.01563H333.7344"/></g><path d="M337.88281 72.01563c-.51172-.10547-2.75-.70704-4.14844-1.35938V73.375c1.39844-.65625 3.63672-1.2539 4.14844-1.35937m0 0"/><g clip-path="url(#b)"><path fill="none" stroke="#000" stroke-miterlimit="10" stroke-width=".79397" d="M337.88281 72.01563c-.51172-.10547-2.75-.70704-4.14844-1.35938V73.375c1.39844-.65625 3.63672-1.2539 4.14844-1.35937Zm0 0"/></g><path fill="none" stroke="#000" stroke-miterlimit="10" stroke-width=".79397" d="M29.2617 57.89453v28.23828"/><use xlink:href="#c" x="17.61128" y="106.22729"/><use xlink:href="#d" x="31.02939" y="106.22729"/><path fill="none" stroke="#000" stroke-miterlimit="10" stroke-width=".79397" d="M85.73828 57.89453v28.23828"/><use xlink:href="#c" x="74.08804" y="106.22729"/><use xlink:href="#e" x="87.50616" y="106.22729"/><path fill="none" stroke="#000" stroke-miterlimit="10" stroke-width=".79397" d="M142.21484 57.89453v28.23828"/><use xlink:href="#f" x="137.27313" y="106.22729"/><path fill="none" stroke="#000" stroke-miterlimit="10" stroke-width=".79397" d="M198.69532 57.89453v28.23828"/><use xlink:href="#e" x="193.7499" y="106.22729"/><path fill="none" stroke="#000" stroke-miterlimit="10" stroke-width=".79397" d="M255.17189 57.89453v28.23828"/><use xlink:href="#d" x="250.22666" y="106.22729"/><path fill="none" stroke="#000" stroke-miterlimit="10" stroke-width=".79397" d="M311.64845 57.89453v28.23828"/><use xlink:href="#g" x="306.70343" y="106.22729"/><path fill="none" stroke="#007F7F" stroke-miterlimit="10" stroke-width=".39698" d="M198.69532 15.53515 157.78516 30.8789"/><path fill="#007F7F" stroke="#007F7F" stroke-miterlimit="10" stroke-width=".39696" d="M154.20703 32.21875c.48438-.04687 2.66797-.10156 4.14844.17578l-1.13672-3.03515c-.9375 1.18359-2.61719 2.57812-3.01172 2.85937Zm0 0"/><g fill="#007F7F"><use xlink:href="#h" x="205.70512" y="19.9546"/><use xlink:href="#i" x="219.91721" y="19.9546"/></g><g fill="#007F7F"><use xlink:href="#j" x="227.32099" y="19.9546"/><use xlink:href="#k" x="232.73985" y="19.9546"/><use xlink:href="#j" x="242.4263" y="19.9546"/><use xlink:href="#l" x="247.84515" y="19.9546"/><use xlink:href="#m" x="259.37758" y="19.9546"/></g><use xlink:href="#n" x="135.31861" y="50.60525" fill="#007F7F"/><path fill="none" stroke="#FF7F00" stroke-miterlimit="10" stroke-width=".39698" d="M146.78125 117.19532h47.34766"/><path fill="#FF7F00" stroke="#FF7F00" stroke-miterlimit="10" stroke-width=".39698" d="M142.95703 117.19531c.46875.1289 2.53516.84375 3.82422 1.6211v-3.23828c-1.28906.77734-3.35547 1.49218-3.82422 1.61718Zm54.99609 0c-.47265-.125-2.53515-.83984-3.82421-1.61718v3.23828c1.28906-.77735 3.35156-1.4922 3.82421-1.6211Zm0 0"/><use xlink:href="#o" x="94.12334" y="143.69085" fill="#FF7F00"/><g fill="#FF7F00"><use xlink:href="#l" x="108.11708" y="143.69085"/><use xlink:href="#j" x="119.64951" y="143.69085"/><use xlink:href="#p" x="125.06837" y="143.69085"/><use xlink:href="#q" x="131.47969" y="143.69085"/></g><g fill="#FF7F00"><use xlink:href="#r" x="145.25509" y="143.69085"/><use xlink:href="#m" x="156.41039" y="143.69085"/></g><g fill="#FF7F00"><use xlink:href="#s" x="170.18579" y="143.69085"/><use xlink:href="#t" x="175.3863" y="143.69085"/><use xlink:href="#l" x="186.14461" y="143.69085"/><use xlink:href="#k" x="197.67704" y="143.69085"/><use xlink:href="#u" x="207.3635" y="143.69085"/><use xlink:href="#m" x="218.65774" y="143.69085"/><use xlink:href="#u" x="228.24494" y="143.69085"/><use xlink:href="#i" x="239.53918" y="143.69085"/></g><path fill="none" stroke="#EC008C" stroke-miterlimit="10" stroke-width=".39698" d="m311.64845 128.4922 15.33985-40.90626"/><path fill="#EC008C" stroke="#EC008C" stroke-miterlimit="10" stroke-width=".39696" d="M328.33203 84.0039c-.28516.39454-1.67969 2.07813-2.85937 3.01172l3.03125 1.13672c-.27344-1.48047-.21875-3.66406-.17188-4.14843Zm0 0"/><use xlink:href="#v" x="292.09436" y="143.05528" fill="#EC008C"/><g fill="#EC008C"><use xlink:href="#m" x="301.95946" y="143.05528"/><use xlink:href="#l" x="311.54666" y="143.05528"/><use xlink:href="#w" x="323.07909" y="143.05528"/></g></svg>