<svg xmlns="http://www.w3.org/2000/svg" xmlns:xlink="http://www.w3.org/1999/xlink" width="1116.938pt" height="94.545pt" viewBox="0 0 1116.938 94.545"><defs><path id="c" d="M1.78125-5.3125h11.54688v-1.21875H1.78125Zm0 0"/><path id="d" d="M2.28125 0h6.89063v-.60937L7.40625-.76563c-.4375-.03124-.6875-.1875-.6875-1.01562v-12.35937L6.60938-14.25l-4.32813.73438v.5l1.95313.25c.35937.04687.5.20312.5.8125v10.17187c0 .82813-.20313.98438-.70313 1.01563l-1.75.15624Zm0 0"/><path id="e" d="M.875-7C.875-2.8125 2.09375.25 5.5625.25c3.45313 0 4.70313-3.0625 4.70313-7.25 0-4.20312-1.25-7.25-4.70313-7.25C2.09375-14.25.875-11.20312.875-7m2.10938 0c0-3.42187.57812-6.51562 2.57812-6.51562 1.98438 0 2.5625 3.09375 2.5625 6.51562 0 3.40625-.57812 6.51563-2.5625 6.51563-2 0-2.57812-3.10938-2.57812-6.51563m0 0"/><path id="f" d="M.5625-.20312.78125 0h8.67188l.71875-2.76562-.57813-.10938c-.45312 1.14063-.875 1.29688-1.71875 1.29688H2.51563c.34375-1.09375 1.59375-2.59375 3.53125-4 2.01562-1.46875 3.5625-2.40625 3.5625-4.75 0-2.92188-1.9375-3.92188-4.14063-3.92188-2.875 0-4.35937 1.73438-4.35937 2.82813 0 .71875.8125 1.04687 1.17187 1.04687.375 0 .5-.21875.59375-.57812.34375-1.4375 1.15625-2.5625 2.45313-2.5625 1.60937 0 2.07812 1.32812 2.07812 2.875 0 2.25-1.14062 3.51562-2.96875 5.125C1.85938-3.25.95313-1.82812.5625-.20312m0 0"/><path id="g" d="m1.07813 2.5625.39062.40625c1.04688-.98437 2.5625-2.39062 2.5625-4.04687 0-1.10938-.59375-1.89063-1.39062-1.89063-.65625 0-1.0625.51563-1.0625 1.04688 0 .76562.70312 1.15625.70312 2.0625 0 .85937-.54687 1.6875-1.20312 2.42187m0 0"/><path id="h" d="M.84375-2.14062C.84375-1.1875 2.32813.25 5.04688.25 8.5.25 10.0625-1.85937 10.0625-4.5c0-2.95312-1.82812-4.45312-4.32812-4.45312-1.15625 0-2.4375.51562-3.09375 1.125l.45312-3.96875c.07813-.54688.20313-.60938.60938-.60938h5.21875l.51562-1.42187-.10937-.1875h-7l-.20313.20312-.42187 7 .5.28125c.875-1.01562 1.71875-1.5 2.85937-1.5 1.34375 0 2.8125.98438 2.8125 3.75C7.875-2.125 7-.48437 5.17188-.48437c-1.46875 0-2.20313-1.0625-2.625-2.26563-.10938-.3125-.3125-.5-.60938-.5-.42187 0-1.09375.42188-1.09375 1.10938m0 0"/><clipPath id="a"><path d="M2.64453 48H1109v1H2.64453Zm0 0"/></clipPath><clipPath id="b"><path d="M1096 35h18.23047v26H1096Zm0 0"/></clipPath></defs><g clip-path="url(#a)"><path fill="none" stroke="#000" stroke-miterlimit="10" stroke-width=".79319" d="M3.03497 48.40625h1104.66459"/></g><path d="M1111.84375 48.40625c-.51172-.10547-2.7461-.70703-4.14453-1.35937v2.71874c1.39844-.65624 3.63281-1.2539 4.14453-1.35937m0 0"/><g clip-path="url(#b)"><path fill="none" stroke="#000" stroke-miterlimit="10" stroke-width=".79319" d="M1111.84375 48.40625c-.51172-.10547-2.7461-.70703-4.14453-1.35938v2.71876c1.39844-.65625 3.63281-1.25391 4.14453-1.35938Zm0 0"/></g><path fill="none" stroke="#000" stroke-miterlimit="10" stroke-width=".39659" d="M18.90216 38.88671V57.9258m31.7383-19.03909V57.9258m31.7383-19.03909V57.9258m31.73829-19.03909V57.9258m31.73439-19.03909V57.9258m31.7383-19.03909V57.9258m31.73829-19.03909V57.9258m31.7383-19.03909V57.9258m31.7383-19.03909V57.9258m31.73439-19.03909V57.9258m31.73829-19.03909V57.9258m31.7383-19.03909V57.9258m31.73829-19.03909V57.9258m31.7344-19.03909V57.9258m31.7383-19.03909V57.9258m31.73829-19.03909V57.9258m31.7383-19.03909V57.9258m31.73829-19.03909V57.9258m31.73439-19.03909V57.9258m31.7383-19.03909V57.9258m31.73829-19.03909V57.9258m31.7383-19.03909V57.9258m31.7383-19.03909V57.9258m31.73439-19.03909V57.9258m31.73829-19.03909V57.9258m31.7383-19.03909V57.9258m31.7383-19.03909V57.9258m31.73439-19.03909V57.9258m31.73829-19.03909V57.9258m31.7383-19.03909V57.9258m31.7383-19.03909V57.9258m31.73829-19.03909V57.9258m31.73439-19.03909V57.9258m31.7383-19.03909V57.9258m31.7383-19.03909V57.9258"/><path fill="none" stroke="#000" stroke-miterlimit="10" stroke-width=".79319" d="M82.37876 32.53905v31.7344"/><use xlink:href="#c" x="69.28819" y="86.41114"/><use xlink:href="#d" x="84.36879" y="86.41114"/><path fill="none" stroke="#000" stroke-miterlimit="10" stroke-width=".79319" d="M399.7539 32.53905v31.7344"/><use xlink:href="#e" x="394.19855" y="86.41114"/><path fill="none" stroke="#000" stroke-miterlimit="10" stroke-width=".79319" d="M717.12906 32.53905v31.7344"/><use xlink:href="#d" x="711.56821" y="86.41114"/><path fill="none" stroke="#000" stroke-miterlimit="10" stroke-width=".79319" d="M1034.5003 32.53905v31.7344"/><use xlink:href="#f" x="1028.93885" y="86.41114"/><path fill="none" stroke="#007F7F" stroke-miterlimit="10" stroke-width="1.1898" d="M542.57038 35.71093v25.39064"/><g fill="#007F7F"><use xlink:href="#c" x="514.33241" y="24.86434"/><use xlink:href="#e" x="529.41301" y="24.86434"/><use xlink:href="#g" x="540.52268" y="24.86434"/></g><g fill="#007F7F"><use xlink:href="#h" x="548.55377" y="24.86434"/><use xlink:href="#h" x="559.66344" y="24.86434"/></g><path fill="none" stroke="#007F7F" stroke-miterlimit="10" stroke-width="1.1898" d="M685.39076 32.53905v31.7344"/><g fill="#007F7F"><use xlink:href="#c" x="662.68944" y="21.69061"/><use xlink:href="#e" x="677.77004" y="21.69061"/><use xlink:href="#g" x="688.87971" y="21.69061"/></g><use xlink:href="#d" x="696.9108" y="21.69061" fill="#007F7F"/></svg>