<svg xmlns="http://www.w3.org/2000/svg" xmlns:xlink="http://www.w3.org/1999/xlink" width="185.049pt" height="185.049pt" viewBox="0 0 185.049 185.049"><defs><path id="a" d="M.5-4.04687C.5-1.625 1.21875.14063 3.20313.14063c2 0 2.71875-1.76563 2.71875-4.1875s-.71875-4.1875-2.71875-4.1875C1.21875-8.23437.5-6.46875.5-4.04687m1.23438 0c0-1.96875.32812-3.76563 1.46875-3.76563 1.15625 0 1.48437 1.79688 1.48437 3.76563S4.35938-.28125 3.20313-.28125c-1.14063 0-1.46875-1.79687-1.46875-3.76562m0 0"/><path id="g" d="m1.75-1.3125.5.5 2.10938-2.10937L6.46875-.8125l.48438-.5-2.09375-2.10937 2.09375-2.10938-.48438-.48437-2.10937 2.09375L2.25-6.01562l-.5.48437 2.10938 2.10938Zm0 0"/><path id="h" d="M-.23437 0H2.5l.07813-.34375-.67188-.0625C1.75-.42187 1.6875-.5 1.6875-.625c0-.0625.03125-.14062.0625-.23437.40625-.78125.79688-1.5625 1.23438-2.375h2.71875L6-.73437s-.0625.29687-.3125.32812l-.64062.0625L4.96875 0h2.98438l.07812-.34375-.46875-.04687c-.375-.03125-.42187-.20313-.48437-.70313L6.1875-8.375h-.85937L3.28125-4.8125c-.60937 1.09375-1.625 2.89063-2.0625 3.60938C.82813-.5625.625-.4375.25-.40625l-.40625.0625Zm3.46875-3.70312L5.20313-7.25l.4375 3.54688Zm0 0"/><path id="i" d="M0 0h3.67188C6.59375 0 7.1875-1.51562 7.1875-2.51562c0-1.28125-.9375-1.82813-1.82812-2l.01562-.01563c1.60938-.20312 2.29688-1.10937 2.29688-2.03125 0-.98437-.57813-1.8125-2.8125-1.8125h-3.0625l-.07813.34375.71875.0625c.20313.01563.29688.10938.29688.29688 0 .07812-.03125.1875-.04688.29687L1.25-1c-.09375.39063-.20312.53125-.5.57813l-.6875.07812Zm2.42188-.92187q0-.14063.04687-.28126l.6875-3.10937h.48438c1.1875 0 2.25.35938 2.25 1.73438 0 1.07812-.65625 2.15625-2.28125 2.15625-.95313 0-1.1875-.20313-1.1875-.5M3.25-4.73437l.625-2.8125c.09375-.35938.15625-.42188.96875-.42188 1.01563 0 1.59375.51563 1.59375 1.375 0 1.25-1.0625 1.85938-2.40625 1.85938Zm0 0"/><path id="j" d="M.625-3.32812C.625-1.73437 1.42188.1875 4.42188.1875c.85937 0 1.6875-.125 2.46875-.51562L7.46875-2.25h-.35937c-.67188 1.20313-1.26563 2-2.76563 2-1.40625 0-2.40625-.89062-2.40625-2.76562 0-1.09375.28125-2.4375.85938-3.40625.60937-1.01563 1.5625-1.71875 2.85937-1.71875 1.53125 0 1.96875.70312 1.96875 2.03125H8l.4375-1.8125c-.6875-.4375-1.82812-.65625-2.67187-.65625-2.28125 0-3.59375 1.07812-4.3125 2.20312C.78125-5.28125.625-4.15625.625-3.32812m0 0"/><path id="k" d="M0 0h3.71875c2.42188 0 3.82813-.875 4.70313-2.1875.6875-1.04687.8125-2.0625.8125-2.78125 0-.98437-.35938-1.96875-1.04688-2.54687-.71875-.59375-1.79687-.85938-3.14062-.85938h-3.25l-.07813.34375.71875.04688c.20313.01562.28125.125.28125.3125 0 .07812-.01562.1875-.03125.29687L1.23438-1c-.09376.39063-.1875.54688-.48438.57813l-.6875.07812Zm2.39063-.89062c0-.04688 0-.10938.01562-.15626l1.45313-6.46874c.10937-.40625.28125-.45313 1.32812-.45313 2.53125.04688 2.73438 1.75 2.73438 2.71875 0 1.04688-.23438 2.03125-.78125 2.9375C6.4375-1.1875 5.40625-.42187 3.40625-.42187c-.59375 0-1.01562-.07813-1.01562-.46875m0 0"/><path id="b" d="M.92188-2.76562h6v-.625h-6Zm0 0"/><path id="c" d="M.29688-.10937.40625 0h4.51563l.35937-1.4375L4.98438-1.5c-.23438.59375-.45313.67188-.89063.67188H1.3125c.17188-.5625.82813-1.34375 1.82813-2.07813C4.1875-3.65625 5-4.15625 5-5.375c0-1.51562-1.01562-2.03125-2.15625-2.03125-1.5 0-2.26562.90625-2.26562 1.46875 0 .375.42187.54688.60937.54688S1.45313-5.5 1.5-5.6875c.17188-.75.59375-1.34375 1.26563-1.34375.84375 0 1.07812.70313 1.07812 1.5 0 1.17188-.57812 1.82813-1.53125 2.67188C.96875-1.6875.5-.95312.29688-.10937m0 0"/><path id="d" d="M1.1875 0h3.57813v-.3125l-.92188-.07812C3.625-.42187 3.48438-.5 3.48438-.92187v-6.42188l-.04688-.0625-2.25.375v.26563l1.01563.14062c.1875.01563.25.09375.25.40625v5.29688c0 .42187-.09375.5-.35938.53125L1.1875-.3125Zm0 0"/><clipPath id="e"><path d="M166 79h18.10156v26H166Zm0 0"/></clipPath><clipPath id="f"><path d="M91 6h2v178.10156h-2Zm0 0"/></clipPath></defs><path fill="none" stroke="#7f7f7f" stroke-dasharray=".396463665 .9911890092000001" stroke-miterlimit="10" stroke-width=".39646" d="M.39454 165.375h183.31248M.39454 128.71483h183.31248M.39454 92.05078h183.31248M.39454 55.38672h183.31248M.39454 18.72657h183.31248M18.72657 183.70702V.39454m36.66406 183.31248V.39454m36.66015 183.31248V.39454m36.66406 183.31248V.39454m36.66406 183.31248V.39454"/><use xlink:href="#a" x="76.01136" y="108.92919" fill="#7f7f7f"/><path fill="none" stroke="#7f7f7f" stroke-miterlimit="10" stroke-width=".39646" d="M18.72657 82.88672v18.32812"/><g fill="#7f7f7f"><use xlink:href="#b" x="11.91974" y="113.17935"/><use xlink:href="#c" x="19.75911" y="113.17935"/></g><path fill="none" stroke="#7f7f7f" stroke-miterlimit="10" stroke-width=".39646" d="M55.39063 82.88672v18.32812"/><g fill="#7f7f7f"><use xlink:href="#b" x="48.58233" y="113.17935"/><use xlink:href="#d" x="56.42169" y="113.17935"/></g><path fill="none" stroke="#7f7f7f" stroke-miterlimit="10" stroke-width=".39646" d="M128.71484 82.88672v18.32812"/><use xlink:href="#d" x="125.82636" y="113.17935" fill="#7f7f7f"/><path fill="none" stroke="#7f7f7f" stroke-miterlimit="10" stroke-width=".39646" d="M165.3789 82.88672v18.32812"/><use xlink:href="#c" x="162.48794" y="113.17935" fill="#7f7f7f"/><path fill="none" stroke="#000" stroke-miterlimit="10" stroke-width=".79294" d="M.39454 92.05078H177.5625"/><path d="M181.70703 92.05078c-.51172-.10547-2.7461-.70312-4.14453-1.35547v2.71094c1.39844-.64844 3.63281-1.25 4.14453-1.35547m0 0"/><g clip-path="url(#e)"><path fill="none" stroke="#000" stroke-miterlimit="10" stroke-width=".79294" d="M181.70703 92.05078c-.51172-.10547-2.7461-.70312-4.14453-1.35547v2.71094c1.39844-.64844 3.63281-1.25 4.14453-1.35547Zm0 0"/></g><path fill="none" stroke="#7f7f7f" stroke-miterlimit="10" stroke-width=".39646" d="M101.21875 165.375H82.88672"/><g fill="#7f7f7f"><use xlink:href="#b" x="64.7194" y="169.08007"/><use xlink:href="#c" x="72.55876" y="169.08007"/></g><path fill="none" stroke="#7f7f7f" stroke-miterlimit="10" stroke-width=".39646" d="M101.21875 128.71484H82.88672"/><g fill="#7f7f7f"><use xlink:href="#b" x="64.7194" y="132.41848"/><use xlink:href="#d" x="72.55876" y="132.41848"/></g><path fill="none" stroke="#7f7f7f" stroke-miterlimit="10" stroke-width=".39646" d="M101.21875 55.38672H82.88672"/><use xlink:href="#d" x="72.55811" y="59.0943" fill="#7f7f7f"/><path fill="none" stroke="#7f7f7f" stroke-miterlimit="10" stroke-width=".39646" d="M101.21875 18.72657H82.88672"/><use xlink:href="#c" x="72.55811" y="22.43271" fill="#7f7f7f"/><g clip-path="url(#f)"><path fill="none" stroke="#000" stroke-miterlimit="10" stroke-width=".79294" d="M92.05078 183.70702V6.53907"/></g><path stroke="#000" stroke-miterlimit="10" stroke-width=".79294" d="M92.05078 2.39844c-.10547.50781-.70312 2.74219-1.35547 4.14062h2.71485c-.65235-1.39843-1.25391-3.6328-1.35938-4.14062Zm0 0"/><use xlink:href="#g" x="124.36586" y="58.39092"/><use xlink:href="#h" x="133.27309" y="50.82978"/><use xlink:href="#g" x="124.36586" y="168.39857"/><use xlink:href="#i" x="133.27309" y="178.31759"/><use xlink:href="#g" x="32.69299" y="58.39092"/><use xlink:href="#j" x="24.32598" y="50.6497"/><use xlink:href="#g" x="51.02676" y="168.39857"/><use xlink:href="#k" x="41.34651" y="178.31759"/></svg>