<svg xmlns="http://www.w3.org/2000/svg" xmlns:xlink="http://www.w3.org/1999/xlink" width="553.554pt" height="45.343pt" viewBox="0 0 553.554 45.343"><defs><clipPath id="d"><path d="M476 15.7461h1v7.26562h-1Zm0 0"/></clipPath><clipPath id="e"><path d="M494 15.7461h1v7.26562h-1Zm0 0"/></clipPath><clipPath id="f"><path d="M512 15.7461h1v7.26562h-1Zm0 0"/></clipPath><clipPath id="g"><path d="M530 15.7461h2v7.26562h-2Zm0 0"/></clipPath><clipPath id="h"><path d="M3.73438 18H544v2H3.73438Zm0 0"/></clipPath><clipPath id="i"><path d="M531 6h18.38281v26H531Zm0 0"/></clipPath><path id="a" d="M.92188-2.73437h5.9375v-.625H.92188Zm0 0"/><path id="b" d="M1.17188 0h3.54687v-.3125L3.8125-.39062C3.57813-.40625 3.45313-.5 3.45313-.92187v-6.35938l-.04688-.0625-2.23437.39063v.25l1.01562.14062c.17188.01563.25.09375.25.40625v5.23438c0 .42187-.10937.51562-.35937.53125l-.90625.07812Zm0 0"/><path id="c" d="M.45313-3.60937c0 2.15625.625 3.73437 2.40625 3.73437s2.42187-1.57812 2.42187-3.73437-.64062-3.73438-2.42187-3.73438S.45313-5.76562.45313-3.60937m1.07812 0c0-1.75.3125-3.34375 1.32813-3.34375 1.01562 0 1.32812 1.59375 1.32812 3.34375C4.1875-1.84375 3.875-.25 2.85938-.25c-1.01563 0-1.32813-1.59375-1.32813-3.35937m0 0"/><path id="j" d="M.84375-.60937c0 .4375.29688.75.75.75.46875 0 .75-.3125.75-.75 0-.45313-.28125-.78125-.75-.78125-.45312 0-.75.32812-.75.78125m0 0"/></defs><path fill="none" stroke="#000" stroke-miterlimit="10" stroke-width=".39281" d="M94.93367 10.30079v18.16014"/><use xlink:href="#a" x="88.19152" y="40.31387"/><use xlink:href="#b" x="95.95863" y="40.31387"/><path fill="none" stroke="#7F7F7F" stroke-miterlimit="10" stroke-width=".39281" d="M113.09772 15.7461v7.26562m18.16015-7.26562v7.26562m18.16406-7.26562v7.26562m18.16014-7.26562v7.26562m18.16406-7.26562v7.26562m18.16015-7.26562v7.26562m18.16405-7.26562v7.26562m18.16406-7.26562v7.26562m18.16015-7.26562v7.26562"/><path fill="none" stroke="#000" stroke-miterlimit="10" stroke-width=".39281" d="M276.5586 10.30079v18.16014"/><use xlink:href="#c" x="273.69663" y="40.31387"/><path fill="none" stroke="#7F7F7F" stroke-miterlimit="10" stroke-width=".39281" d="M294.71874 15.7461v7.26562m18.16406-7.26562v7.26562m18.16015-7.26562v7.26562M349.207 15.7461v7.26562m18.16015-7.26562v7.26562m18.16405-7.26562v7.26562m18.16016-7.26562v7.26562m18.16405-7.26562v7.26562m18.16406-7.26562v7.26562"/><path fill="none" stroke="#000" stroke-miterlimit="10" stroke-width=".39281" d="M458.17962 10.30079v18.16014"/><use xlink:href="#b" x="455.31703" y="40.31387"/><path fill="none" stroke="#7F7F7F" stroke-miterlimit="10" stroke-width=".39281" d="M22.28526 15.7461v7.26562M40.4454 15.7461v7.26562m18.16406-7.26562v7.26562m18.16406-7.26562v7.26562"/><g clip-path="url(#d)"><path fill="none" stroke="#7F7F7F" stroke-miterlimit="10" stroke-width=".39281" d="M476.34367 15.7461v7.26562"/></g><g clip-path="url(#e)"><path fill="none" stroke="#7F7F7F" stroke-miterlimit="10" stroke-width=".39281" d="M494.50382 15.7461v7.26562"/></g><g clip-path="url(#f)"><path fill="none" stroke="#7F7F7F" stroke-miterlimit="10" stroke-width=".39281" d="M512.66787 15.7461v7.26562"/></g><g clip-path="url(#g)"><path fill="none" stroke="#7F7F7F" stroke-miterlimit="10" stroke-width=".39281" d="M530.82802 15.7461v7.26562"/></g><g clip-path="url(#h)"><path fill="none" stroke="#000" stroke-miterlimit="10" stroke-width=".78563" d="M4.1212 19.3789h538.78104"/></g><path d="M547.00781 19.3789c-.5039-.10156-2.71875-.6953-4.10547-1.34374v2.6914c1.38672-.64843 3.60157-1.24218 4.10547-1.34765m0 0"/><g clip-path="url(#i)"><path fill="none" stroke="#000" stroke-miterlimit="10" stroke-width=".78563" d="M547.00781 19.3789c-.5039-.10156-2.71875-.6953-4.10547-1.34374v2.6914c1.38672-.64844 3.60156-1.24218 4.10547-1.34765Zm0 0"/></g><path fill="none" stroke="#007F7F" stroke-miterlimit="10" stroke-width="1.17846" d="M194.82816 12.1172v14.52733"/><use xlink:href="#j" x="162.32713" y="7.46385" fill="#007F7F"/><use xlink:href="#j" x="167.94437" y="7.46385" fill="#007F7F"/><use xlink:href="#j" x="173.56161" y="7.46385" fill="#007F7F"/><use xlink:href="#j" x="179.17884" y="7.46385" fill="#007F7F"/><use xlink:href="#j" x="184.79608" y="7.46385" fill="#007F7F"/><use xlink:href="#j" x="190.41332" y="7.46385" fill="#007F7F"/><use xlink:href="#j" x="196.03056" y="7.46385" fill="#007F7F"/><use xlink:href="#j" x="201.6478" y="7.46385" fill="#007F7F"/><use xlink:href="#j" x="207.26504" y="7.46385" fill="#007F7F"/><use xlink:href="#j" x="212.88228" y="7.46385" fill="#007F7F"/><use xlink:href="#j" x="218.49952" y="7.46385" fill="#007F7F"/><use xlink:href="#j" x="224.11676" y="7.46385" fill="#007F7F"/><path fill="none" stroke="#007F7F" stroke-miterlimit="10" stroke-width="1.17846" d="M113.09772 10.30079v18.16014"/><use xlink:href="#j" x="80.58287" y="5.64717" fill="#007F7F"/><use xlink:href="#j" x="86.2001" y="5.64717" fill="#007F7F"/><use xlink:href="#j" x="91.81734" y="5.64717" fill="#007F7F"/><use xlink:href="#j" x="97.43458" y="5.64717" fill="#007F7F"/><use xlink:href="#j" x="103.05182" y="5.64717" fill="#007F7F"/><use xlink:href="#j" x="108.66906" y="5.64717" fill="#007F7F"/><use xlink:href="#j" x="114.2863" y="5.64717" fill="#007F7F"/><use xlink:href="#j" x="119.90354" y="5.64717" fill="#007F7F"/><use xlink:href="#j" x="125.52078" y="5.64717" fill="#007F7F"/><use xlink:href="#j" x="131.13801" y="5.64717" fill="#007F7F"/><use xlink:href="#j" x="136.75525" y="5.64717" fill="#007F7F"/><use xlink:href="#j" x="142.37249" y="5.64717" fill="#007F7F"/></svg>