<svg xmlns="http://www.w3.org/2000/svg" xmlns:xlink="http://www.w3.org/1999/xlink" width="624.419pt" height="55.775pt" viewBox="0 0 624.419 55.775"><defs><path id="c" d="M1.59375-4.71875h10.25V-5.8125h-10.25Zm0 0"/><path id="d" d="M.75-1.90625c0 .85938 1.3125 2.125 3.73438 2.125 3.07812 0 4.46875-1.85937 4.46875-4.23437 0-2.60938-1.625-3.9375-3.85938-3.9375-1.03125 0-2.15625.45312-2.75.98437L2.76563-10.5c.04687-.46875.17187-.53125.53125-.53125H7.9375l.45313-1.26562-.09375-.17188H2.0625l-.17187.1875-.375 6.23438.45312.23437C2.73438-6.70312 3.5-7.14062 4.5-7.14062c1.1875 0 2.5.875 2.5 3.32812 0 1.92188-.76562 3.375-2.39062 3.375-1.3125 0-1.96875-.9375-2.34375-2-.10938-.28125-.28125-.45312-.54688-.45312-.375 0-.96875.375-.96875.98437m0 0"/><path id="e" d="m.35938-3.73437.15625.40625h5.07812v1.90625c0 .625-.20312.73437-.65625.76562l-1.1875.125V0h4.92188v-.53125l-.82813-.10937c-.4375-.04688-.5625-.15626-.5625-.78125v-1.90625H9.1875v-.875H7.28125v-8.26563h-1.375C4.17188-9.875 2.0625-6.64062.35938-3.73437m1.34375-.46875c1.10937-2.03125 2.46875-4.1875 3.89062-6.45313v6.45313Zm0 0"/><path id="f" d="M.5-1.90625c0 .79688 1.28125 2.125 3.92188 2.125 2.70312 0 4.40625-1.375 4.40625-3.75 0-2.5-2.14063-3.23437-3.17188-3.32812v-.09375c1.01563-.15625 2.625-.90625 2.625-2.75 0-2.0625-1.60937-2.98438-3.625-2.98438C2.20313-12.6875 1-11.25 1-10.45312c0 .57812.64063.89062.90625.89062.23438 0 .375-.14062.45313-.375.42187-1.28125 1.10937-2.09375 2.17187-2.09375C6-12.03125 6.375-10.73437 6.375-9.6875c0 1.10938-.40625 2.53125-1.98437 2.53125-.89063 0-1.40625-.1875-1.625-.1875-.25 0-.34375.1875-.34375.51563 0 .3125.09375.51562.34375.51562.21875 0 .73437-.17187 1.625-.17187 1.57812 0 2.46875 1.42187 2.46875 3.04687 0 2.23438-1.07813 3-2.42188 3-1.21875 0-2.03125-.90625-2.39062-1.96875-.125-.35937-.29688-.53125-.5625-.53125C1.15625-2.9375.5-2.57812.5-1.90625m0 0"/><path id="g" d="M.5-.17187.6875 0h7.71875l.64063-2.45312-.51563-.10938C8.14063-1.54687 7.76563-1.40625 7-1.40625H2.25c.29688-.96875 1.40625-2.29687 3.125-3.5625C7.15625-6.26562 8.54688-7.10937 8.54688-9.1875c0-2.59375-1.71875-3.5-3.6875-3.5C2.29688-12.6875 1-11.125 1-10.15625c0 .625.70313.92188 1.03125.92188.32813 0 .45313-.1875.53125-.51563.29688-1.26562 1.03125-2.28125 2.1875-2.28125 1.42188 0 1.84375 1.20313 1.84375 2.5625 0 2-1.01562 3.14063-2.64062 4.5625C1.64063-2.89062.85938-1.625.5-.17187m0 0"/><path id="h" d="M2.03125 0h6.125v-.53125l-1.5625-.14062c-.40625-.04688-.625-.1875-.625-.92188v-10.98437L5.875-12.6875l-3.84375.65625v.46875l1.73438.21875c.32812.03125.4375.17188.4375.70313v9.04687c0 .73438-.17188.875-.60938.92188l-1.5625.14062Zm0 0"/><path id="i" d="M.78125-6.23437C.78125-2.5 1.85938.21875 4.9375.21875S9.125-2.5 9.125-6.23437 8.01563-12.6875 4.9375-12.6875.78125-9.96875.78125-6.23437m1.875 0c0-3.03125.51563-5.79688 2.28125-5.79688 1.76563 0 2.28125 2.76563 2.28125 5.79688 0 3.04687-.51562 5.79687-2.28125 5.79687-1.76562 0-2.28125-2.75-2.28125-5.79687m0 0"/><clipPath id="a"><path d="M.96484 14H617v1H.96484Zm0 0"/></clipPath><clipPath id="b"><path d="M605 1h17.875v27H605Zm0 0"/></clipPath></defs><g clip-path="url(#a)"><path fill="none" stroke="#000" stroke-miterlimit="10" stroke-width=".79381" d="M1.35942 14.51172h614.96866"/></g><path d="M620.47656 14.51172c-.50781-.10547-2.7461-.70313-4.14843-1.35938v2.71875c1.40234-.65234 3.64062-1.2539 4.14843-1.35937m0 0"/><g clip-path="url(#b)"><path fill="none" stroke="#000" stroke-miterlimit="10" stroke-width=".79381" d="M620.47656 14.51172c-.50781-.10547-2.7461-.70313-4.14843-1.35938v2.71875c1.40234-.65234 3.64062-1.2539 4.14843-1.35937Zm0 0"/></g><path fill="none" stroke="#000" stroke-miterlimit="10" stroke-width=".79381" d="M29.58988.39453V28.6289"/><use xlink:href="#c" x="17.94558" y="48.50035"/><use xlink:href="#d" x="31.36095" y="48.50035"/><path fill="none" stroke="#000" stroke-miterlimit="10" stroke-width=".79381" d="M86.05472.39453V28.6289"/><use xlink:href="#c" x="74.4108" y="48.50035"/><use xlink:href="#e" x="87.82617" y="48.50035"/><path fill="none" stroke="#000" stroke-miterlimit="10" stroke-width=".79381" d="M142.52346.39453V28.6289"/><use xlink:href="#c" x="130.87601" y="48.71847"/><use xlink:href="#f" x="144.29138" y="48.71847"/><path fill="none" stroke="#000" stroke-miterlimit="10" stroke-width=".79381" d="M198.9883.39453V28.6289"/><use xlink:href="#c" x="187.34023" y="48.71847"/><use xlink:href="#g" x="200.7556" y="48.71847"/><path fill="none" stroke="#000" stroke-miterlimit="10" stroke-width=".79381" d="M255.45313.39453V28.6289"/><use xlink:href="#c" x="243.80545" y="48.71847"/><use xlink:href="#h" x="257.22082" y="48.71847"/><path fill="none" stroke="#000" stroke-miterlimit="10" stroke-width=".79381" d="M311.91797.39453V28.6289"/><use xlink:href="#i" x="306.9786" y="48.71847"/><path fill="none" stroke="#000" stroke-miterlimit="10" stroke-width=".79381" d="M368.38671.39453V28.6289"/><use xlink:href="#h" x="363.44382" y="48.71847"/><path fill="none" stroke="#000" stroke-miterlimit="10" stroke-width=".79381" d="M424.85155.39453V28.6289"/><use xlink:href="#g" x="419.90903" y="48.71847"/><path fill="none" stroke="#000" stroke-miterlimit="10" stroke-width=".79381" d="M481.31638.39453V28.6289"/><use xlink:href="#f" x="476.37425" y="48.71847"/><path fill="none" stroke="#000" stroke-miterlimit="10" stroke-width=".79381" d="M537.78122.39453V28.6289"/><use xlink:href="#e" x="532.83946" y="48.50035"/><path fill="none" stroke="#000" stroke-miterlimit="10" stroke-width=".79381" d="M594.24996.39453V28.6289"/><use xlink:href="#d" x="589.30368" y="48.50035"/></svg>