<svg xmlns="http://www.w3.org/2000/svg" xmlns:xlink="http://www.w3.org/1999/xlink" width="235.99pt" height="194.969pt" viewBox="0 0 235.99 194.969"><defs><path id="b" d="M.89063-2.67187H6.6875v-.60938H.89063Zm0 0"/><path id="c" d="M.28125-.09375.39063 0H4.75l.35938-1.39062-.29688-.04688c-.21875.5625-.4375.64063-.85937.64063h-2.6875c.17187-.54688.79687-1.29688 1.76562-2 1.01563-.75 1.79688-1.21875 1.79688-2.39063 0-1.46875-.96875-1.96875-2.07813-1.96875-1.45312 0-2.1875.875-2.1875 1.42188 0 .35937.40625.53125.57813.53125.1875 0 .26562-.125.29687-.29688.17188-.71875.59375-1.28125 1.23438-1.28125.8125 0 1.04687.67188 1.04687 1.4375 0 1.125-.57812 1.76563-1.48437 2.57813C.9375-1.64062.48438-.92187.28124-.09375m0 0"/><path id="d" d="M1.14063 0h3.46875v-.29687L3.71875-.375C3.5-.40625 3.375-.48437 3.375-.89062v-6.21875l-.0625-.04688-2.17187.375v.25l.98437.125c.1875.01563.25.09375.25.40625v5.10938c0 .40625-.09375.48437-.34375.51562l-.89062.07813Zm0 0"/><path id="e" d="M.4375-3.51562C.4375-1.40625 1.04688.125 2.79688.125c1.73437 0 2.35937-1.53125 2.35937-3.64062s-.625-3.64063-2.35937-3.64063c-1.75 0-2.35938 1.53125-2.35938 3.64063m1.0625 0c0-1.71875.29688-3.26563 1.29688-3.26563.98437 0 1.28125 1.54688 1.28125 3.26563S3.78125-.25 2.79688-.25C1.79688-.25 1.5-1.79687 1.5-3.51562m0 0"/><path id="h" d="m1.6875-1.26562.48438.48437 2.03125-2.04687L6.25-.78125l.46875-.48437L4.6875-3.29687l2.03125-2.04688L6.25-5.8125 4.20313-3.78125 2.17188-5.8125l-.48438.46875 2.04688 2.04688Zm0 0"/><path id="i" d="M.375-3.15625C.375-1.23437 1.48438.17188 3.8125.17188c2.0625 0 3.07813-1.0625 3.71875-2.21875.64063-1.14063.75-2.34375.75-2.79688 0-2.40625-1.45312-3.4375-3.39062-3.4375C3.03125-8.28125 1.875-7.25 1.1875-6.125.53125-5.04687.375-3.9375.375-3.15625m1.23438.46875c0-.98437.1875-2.07812.71875-3.21875C2.85938-7.01562 3.70313-7.875 4.9375-7.875c1.28125 0 2.10938.76563 2.10938 2.42188 0 .67187-.0625 1.625-.54688 2.875C6.01563-1.3125 5.21875-.23437 3.70313-.23437c-1.28125 0-2.09375-.82813-2.09375-2.45313m0 0"/><path id="j" d="M.5625-4.04687c0 1.3125.35938 2.39062 1 3.09375.65625.73437 1.60938 1.125 2.89063 1.125s2.25-.39063 2.90625-1.125c.64062-.70313 1-1.78125 1-3.09375S8-6.4375 7.35938-7.14062c-.65625-.73438-1.625-1.14063-2.90625-1.14063S2.21875-7.875 1.5625-7.14062c-.64062.70312-1 1.78125-1 3.09375m1.3125 0c0-1.71875.5-3.82813 2.57813-3.82813s2.59375 2.10938 2.59375 3.82813-.51563 3.8125-2.59375 3.8125S1.875-2.32812 1.875-4.04687m0 0"/><path id="k" d="M.375 0h3.09375v-.34375c-1.04687-.0625-1.10937-.07812-1.10937-.67187v-2.75c0-.89063.39062-1.20313.67187-1.20313.1875 0 .375.07813.71875.26563.07813.04687.17188.0625.23438.0625.28125 0 .53125-.29688.53125-.67188 0-.25-.15625-.5625-.625-.5625-.42188 0-.76563.25-1.53125.9375l-.14063-.9375-1.78125.29688v.28125l.4375.0625c.29688.04687.375.10937.375.53125v3.6875c0 .59375-.04687.60937-.875.67187Zm0 0"/><path id="l" d="M1.07813-7.65625c0 .42188.29687.71875.71875.71875S2.5-7.23437 2.5-7.65625 2.21875-8.375 1.79688-8.375c-.42188 0-.71875.29688-.71875.71875M.375 0h2.84375v-.34375c-.82812-.0625-.85937-.07812-.85937-.67187v-4.78125L2.26563-5.875.4375-5.57812v.28125l.4375.0625c.29688.04687.375.10937.375.53125v3.6875c0 .59375-.03125.60937-.875.67187Zm0 0"/><path id="m" d="M.48438 1.125c0 1.17188 1.1875 1.70313 2.54687 1.70313.6875 0 1.42188-.14063 1.98438-.46875.53125-.32813.9375-.89063.9375-1.60938 0-1.26562-1.01563-1.70312-2.26563-1.70312H2.75c-.84375 0-.96875-.29688-.96875-.51563 0-.34375.45313-.53125.59375-.57812.23438.03125.48438.04687.59375.04687 1.10938 0 2.375-.48437 2.375-1.90625 0-.48437-.15625-.90625-.35937-1.09375l.9375-.15625.23437-.73437-.10937-.09375-1.48438.46875c-.32812-.21875-.98437-.35938-1.53125-.35938C1.25-5.875.625-4.78125.625-3.90625c0 1.09375.71875 1.60938 1.25 1.73438v.03125c-.625.25-1.0625.57812-1.0625 1.04687 0 .40625.46875.84375 1.03125.90625v.03125C1.34375 0 .48438.28125.48438 1.125m1.125-.04687c0-.40625.10937-.70313.35937-.89063.26563-.20312.64063-.28125 1.20313-.28125 1.03125 0 1.79687.26563 1.79687 1.14063 0 .9375-.84375 1.375-1.6875 1.375-.98437 0-1.67187-.5-1.67187-1.34375m.20312-4.98438c0-1.15625.60938-1.5625 1.21875-1.5625.57813 0 1.17188.42188 1.17188 1.5625 0 .98438-.48438 1.48438-1.17188 1.48438-.67187 0-1.21875-.5-1.21875-1.48438m0 0"/><path id="n" d="M.375 0h2.84375v-.34375c-.82812-.0625-.85937-.07812-.85937-.67187v-2.75c0-.29688 0-.4375.10937-.625.25-.46875.76563-.85938 1.39063-.85938.79687 0 1.23437.4375 1.23437 1.46875v2.76563c0 .59375-.03125.60937-.89062.67187V0h2.875v-.34375c-.84375-.0625-.89063-.07812-.89063-.67187v-3c0-1.17188-.64062-1.85938-1.71875-1.85938-.875 0-1.40625.42188-2.125.89063L2.17188-5.875.4375-5.57812v.28125l.4375.0625c.29688.04687.375.10937.375.53125v3.6875c0 .59375-.03125.60937-.875.67187Zm0 0"/><path id="o" d="M.57813-2.82812c0 1.85937.79687 2.96875 2.70312 2.96875C4.5625.14063 5.25-.57812 5.54688-1.5l-.34375-.1875C4.875-1.01562 4.4375-.45312 3.51563-.45312c-1.45313 0-1.75-1.40625-1.71875-2.625h3.375c.25 0 .45312-.0625.45312-.45313 0-.67187-.21875-2.34375-2.35937-2.34375-1.82813 0-2.6875 1.29688-2.6875 3.04688m1.23437-.70313c0-.48437.17188-1.9375 1.39063-1.9375 1.07812 0 1.20312 1.10938 1.20312 1.57813 0 .21875-.07812.35937-.39062.35937Zm0 0"/><path id="p" d="M-.34375 0h2.57813v-.34375L1.625-.40625C1.28125-.4375 1.23438-.5625 1.32813-.875c.20312-.6875.4375-1.42187.71875-2.25h2.625l.78125 2.23438c.10937.34375.0625.46875-.3125.5l-.53125.04687V0h3v-.34375c-.6875-.0625-.8125-.09375-1.01563-.70312L4.10938-8.09375h-.875L2.01563-4.625C1.65625-3.60937 1.15625-2.21875.75-1.14062.5-.51562.40625-.375-.34375-.34375Zm2.54688-3.57812c.375-1.17188.78125-2.3125 1.14062-3.34375H3.375l1.15625 3.34375Zm0 0"/><path id="q" d="m.23438-8.09375.45312.03125c.29688.04688.375.10938.375.54688v7.5625l.20313.09375.46875-.45313c.40625.23438.90625.45313 1.78125.45313 1.54687 0 2.90625-.75 2.90625-3.14063 0-.71875-.14063-2.875-2.25-2.875-.89063 0-1.57813.5625-2.01563.82813V-8.625l-.09375-.0625-1.82812.29688Zm1.92187 6.1875v-1.85937c0-.29688.01563-.46875.10938-.65625.28125-.5625.76562-.82813 1.4375-.82813.48437 0 1.5.28125 1.5 2.32813 0 1.71875-.51563 2.64062-1.67188 2.64062-.625 0-1.07812-.29687-1.29687-.89062-.0625-.20313-.07813-.45313-.07813-.73438m0 0"/><path id="r" d="m.54688-1.95312.125 1.53125c.42187.375 1.14062.5625 1.8125.5625 1.40625 0 2.20312-.73438 2.20312-1.73438 0-1.03125-.64062-1.5-1.84375-1.875-.48437-.14062-1.25-.39062-1.25-1.04687 0-.60938.46875-.95313 1.04688-.95313.82812 0 1.23437.65625 1.3125 1.35938h.34375v-1.375c-.39063-.28125-.98438-.39063-1.5-.39063-1.28125 0-2.14063.59375-2.14063 1.70313 0 .96875.79688 1.40625 1.76563 1.70312.53125.17188 1.26562.42188 1.26562 1.21875 0 .60938-.46875.96875-1.07812.96875-.95313 0-1.48438-.67187-1.71875-1.67187Zm0 0"/><path id="s" d="M.57813-2.8125c0 1.95313.95312 2.95313 2.70312 2.95313.82813 0 1.9375-.42188 2.26563-1.6875l-.35938-.15626c-.35937.8125-.8125 1.23438-1.67187 1.23438-1.40625 0-1.71875-1.46875-1.71875-2.5625 0-1.73437.6875-2.4375 1.48437-2.4375.54688 0 .875.39063 1.10938 1.01563.07812.1875.15625.3125.375.3125.23437 0 .6875-.15625.6875-.60938 0-.53125-.76563-1.125-2.04688-1.125-2.125 0-2.82812 1.5-2.82812 3.0625m0 0"/><path id="t" d="M.57813-2.75c0 1.73438.90625 2.89063 2.45312 2.89063.625 0 1.17188-.29688 1.79688-.79688v.5625L4.9375 0h1.89063v-.34375c-.84375-.0625-.875-.07812-.875-.67187V-8.625l-.09375-.0625-1.84375.29688v.29687l.45312.03125c.29688.04688.375.10938.375.54688v1.92187c-.32812-.17187-.76562-.28125-1.29687-.28125-.95313 0-1.67188.3125-2.17188.8125C.89063-4.54687.57813-3.76562.57813-2.75m1.21875-.14062c0-1.51563.54687-2.57813 1.73437-2.57813.54688 0 1 .25 1.21875.73438.09375.20312.09375.375.09375.6875V-2c0 .26563 0 .46875-.07812.67188-.23438.60937-.75.84375-1.35938.84375-1.0625 0-1.60937-1.0625-1.60937-2.40625m0 0"/><path id="u" d="M.57813-2.85937c0 1.89062.92187 3 2.8125 3 1.875 0 2.79687-1.10938 2.79687-3C6.1875-4.75 5.26563-5.875 3.39063-5.875 1.5-5.875.57813-4.75.57813-2.85937m1.21875 0c0-1.625.51562-2.60938 1.59375-2.60938 1.0625 0 1.59375.98438 1.59375 2.60938 0 1.60937-.53125 2.57812-1.59375 2.57812-1.07813 0-1.59375-.96875-1.59375-2.57812m0 0"/><path id="v" d="m2.35938-6.57812.17187.23437 1.76563-.98437c.34375-.1875.65625-.375.65625-.625 0-.23438-.28125-.51563-.45313-.51563-.20312 0-.40625.125-.75.48438Zm-1.78125 3.75c0 1.85937.79687 2.96875 2.70312 2.96875C4.5625.14063 5.25-.57812 5.54688-1.5l-.34375-.1875C4.875-1.01562 4.4375-.45312 3.51563-.45312c-1.45313 0-1.75-1.40625-1.71875-2.625h3.375c.25 0 .45312-.0625.45312-.45313 0-.67187-.21875-2.34375-2.35937-2.34375-1.82813 0-2.6875 1.29688-2.6875 3.04688m1.23437-.70313c0-.48437.17188-1.9375 1.39063-1.9375 1.07812 0 1.20312 1.10938 1.20312 1.57813 0 .21875-.07812.35937-.39062.35937Zm0 0"/><clipPath id="a"><path d="M.01563 17H178v177.9375H.01563Zm0 0"/></clipPath><clipPath id="f"><path d="M88 23h2v171.9375h-2Zm0 0"/></clipPath><clipPath id="g"><path d="M.01563 105H172v2H.01563Zm0 0"/></clipPath></defs><g clip-path="url(#a)"><path fill="none" stroke="#000" stroke-miterlimit="10" stroke-opacity=".5" stroke-width=".39844" d="M.41016 176.82812h177.14062M.41016 141.39844h177.14062M.41016 105.97266h177.14062M.41016 70.54297h177.14062M.41016 35.11719h177.14062M18.125 194.53906V17.40235m35.4297 177.13671V17.40235m35.42578 177.13671V17.40235m35.42968 177.13671V17.40235m35.42579 177.13671V17.40235"/></g><path fill="none" stroke="#000" stroke-miterlimit="10" stroke-opacity=".5" stroke-width=".39844" d="M18.125 97.11328v17.71485"/><g fill-opacity=".5"><use xlink:href="#b" x="11.54792" y="121.95161"/><use xlink:href="#c" x="19.12331" y="121.95161"/></g><path fill="none" stroke="#000" stroke-miterlimit="10" stroke-opacity=".5" stroke-width=".39844" d="M53.55469 97.11328v17.71485"/><g fill-opacity=".5"><use xlink:href="#b" x="46.97529" y="121.95161"/><use xlink:href="#d" x="54.55068" y="121.95161"/></g><path fill="none" stroke="#000" stroke-miterlimit="10" stroke-opacity=".5" stroke-width=".39844" d="M124.41015 97.11328v17.71485"/><use xlink:href="#d" x="121.61742" y="121.95161" fill-opacity=".5"/><path fill="none" stroke="#000" stroke-miterlimit="10" stroke-opacity=".5" stroke-width=".39844" d="M159.83594 97.11328v17.71485"/><use xlink:href="#c" x="157.04479" y="121.95161" fill-opacity=".5"/><path fill="none" stroke="#000" stroke-miterlimit="10" stroke-opacity=".5" stroke-width=".39844" d="M97.83594 176.82812H80.125"/><g fill-opacity=".5"><use xlink:href="#b" x="70.00263" y="180.40632"/><use xlink:href="#c" x="77.57802" y="180.40632"/></g><path fill="none" stroke="#000" stroke-miterlimit="10" stroke-opacity=".5" stroke-width=".39844" d="M97.83594 141.39844H80.125"/><g fill-opacity=".5"><use xlink:href="#b" x="70.00263" y="144.97895"/><use xlink:href="#d" x="77.57802" y="144.97895"/></g><path fill="none" stroke="#000" stroke-miterlimit="10" stroke-opacity=".5" stroke-width=".39844" d="M97.83594 70.54297H80.125"/><use xlink:href="#d" x="73.79103" y="74.12421" fill-opacity=".5"/><path fill="none" stroke="#000" stroke-miterlimit="10" stroke-opacity=".5" stroke-width=".39844" d="M97.83594 35.11719H80.125"/><use xlink:href="#c" x="73.79103" y="38.69685" fill-opacity=".5"/><path fill="none" stroke="#000" stroke-miterlimit="10" stroke-opacity=".5" stroke-width=".39844" d="M88.98047 97.11328v17.71485"/><use xlink:href="#e" x="77.33347" y="121.88962" fill-opacity=".5"/><g clip-path="url(#f)"><path fill="none" stroke="#EC008C" stroke-miterlimit="10" stroke-width=".79688" d="M88.98047 194.53906V23.57813"/></g><path fill="#EC008C" stroke="#EC008C" stroke-miterlimit="10" stroke-width=".79688" d="M88.98047 19.41406c-.10547.51172-.70703 2.75781-1.36328 4.16406h2.72656c-.65625-1.40625-1.25781-3.65234-1.36328-4.16406Zm0 0"/><g clip-path="url(#g)"><path fill="none" stroke="#FF7F00" stroke-miterlimit="10" stroke-width=".79688" d="M.41016 105.97266H171.375"/></g><path fill="#FF7F00" stroke="#FF7F00" stroke-miterlimit="10" stroke-width=".79688" d="M175.53906 105.97266c-.51172-.10938-2.76172-.71094-4.16406-1.3672v2.73048c1.40234-.65625 3.65234-1.25782 4.16406-1.36328Zm0 0"/><use xlink:href="#h" x="84.77228" y="108.87869" fill="#007F7F"/><use xlink:href="#i" x="93.37991" y="101.39788" fill="#007F7F"/><path fill="none" stroke="#007F7F" stroke-miterlimit="10" stroke-width=".39844" d="M97.03516 103.22266c31.8164 5.60937 62.0703-9.58985 80.51562-41.53516"/><path fill="#007F7F" stroke="#007F7F" stroke-miterlimit="10" stroke-width=".39843" d="M93.25781 102.5586c.44141.20703 2.35547 1.27343 3.4961 2.26562l.5625-3.20313c-1.41016.54688-3.57422.89454-4.0586.9375Zm0 0"/><g fill="#007F7F"><use xlink:href="#j" x="181.94883" y="64.45675"/><use xlink:href="#k" x="190.86398" y="64.45675"/></g><g fill="#007F7F"><use xlink:href="#l" x="195.50832" y="64.45675"/><use xlink:href="#m" x="198.90753" y="64.45675"/><use xlink:href="#l" x="204.98377" y="64.45675"/><use xlink:href="#n" x="208.38298" y="64.45675"/><use xlink:href="#o" x="215.6172" y="64.45675"/></g><use xlink:href="#p" x="181.94883" y="110.24147" fill="#FF7F00"/><g fill="#FF7F00"><use xlink:href="#q" x="189.23285" y="110.24147"/><use xlink:href="#r" x="196.2305" y="110.24147"/><use xlink:href="#s" x="201.32309" y="110.24147"/><use xlink:href="#l" x="207.1254" y="110.24147"/><use xlink:href="#r" x="210.52461" y="110.24147"/><use xlink:href="#r" x="215.6172" y="110.24147"/><use xlink:href="#o" x="220.70979" y="110.24147"/><use xlink:href="#r" x="226.72378" y="110.24147"/></g><g fill="#EC008C"><use xlink:href="#j" x="59.70127" y="12.82896"/><use xlink:href="#k" x="68.61641" y="12.82896"/></g><g fill="#EC008C"><use xlink:href="#t" x="72.92457" y="12.82896"/><use xlink:href="#u" x="79.92221" y="12.82896"/><use xlink:href="#n" x="86.67083" y="12.82896"/><use xlink:href="#n" x="93.90505" y="12.82896"/><use xlink:href="#v" x="101.13926" y="12.82896"/><use xlink:href="#o" x="107.15325" y="12.82896"/><use xlink:href="#r" x="113.16724" y="12.82896"/></g></svg>