<svg xmlns="http://www.w3.org/2000/svg" xmlns:xlink="http://www.w3.org/1999/xlink" width="620.875pt" height="44.406pt" viewBox="0 0 620.875 44.406"><defs><path id="c" d="M.98438-2.92187h6.34375v-.67188H.98438Zm0 0"/><path id="d" d="M1.25 0h3.79688v-.32812l-.96875-.09375c-.25-.01563-.375-.10938-.375-.5625v-6.79688l-.0625-.0625L1.25-7.4375v.28125l1.07813.125c.20312.03125.28125.10938.28125.45313v5.59375c0 .45312-.10938.54687-.39063.5625L1.25-.32812Zm0 0"/><path id="e" d="M.48438-3.85937c0 2.3125.67187 4 2.57812 4s2.59375-1.6875 2.59375-4-.6875-3.98438-2.59375-3.98438S.48438-6.17187.48438-3.85937m1.15625 0c0-1.875.32812-3.57813 1.42187-3.57813s1.40625 1.70313 1.40625 3.57813S4.15625-.26562 3.0625-.26562 1.64063-1.98437 1.64063-3.85937m0 0"/><path id="f" d="M.3125-.10937.4375 0h4.76563l.39062-1.51562-.3125-.0625c-.25.625-.48437.70312-.95312.70312h-2.9375c.1875-.59375.875-1.42187 1.9375-2.1875 1.10937-.8125 1.96875-1.32812 1.96875-2.625 0-1.60937-1.07813-2.15625-2.28125-2.15625-1.59375 0-2.40625.95313-2.40625 1.5625 0 .39063.45312.57813.64062.57813.21875 0 .28125-.125.32813-.32813.1875-.78125.64062-1.40625 1.35937-1.40625.875 0 1.14063.73438 1.14063 1.57813 0 1.23437-.625 1.9375-1.64063 2.82812C1.01563-1.79687.53125-1 .3125-.10937m0 0"/><path id="g" d="M.8125-.59375c0 .42188.28125.73438.71875.73438.45313 0 .71875-.3125.73438-.73438 0-.42187-.28125-.75-.73438-.75-.4375 0-.71875.32813-.71875.75m0 0"/><clipPath id="a"><path d="M4.03516 18H611v2H4.03516Zm0 0"/></clipPath><clipPath id="b"><path d="M599 6h17.71484v26H599Zm0 0"/></clipPath></defs><g clip-path="url(#a)"><path fill="none" stroke="#000" stroke-miterlimit="10" stroke-width=".78649" d="M4.42578 18.65234h605.80469"/></g><path d="M614.34375 18.65234c-.50781-.10546-2.72656-.69921-4.11328-1.34375V20c1.38672-.64844 3.60547-1.24219 4.11328-1.34766m0 0"/><g clip-path="url(#b)"><path fill="none" stroke="#000" stroke-miterlimit="10" stroke-width=".78649" d="M614.34375 18.65234c-.50781-.10546-2.72656-.69922-4.11328-1.34375V20c1.38672-.64843 3.60547-1.24218 4.11328-1.34765Zm0 0"/></g><path fill="none" stroke="#000" stroke-miterlimit="10" stroke-width=".39324" d="M13.16797 13.41016v10.48828m17.48437-10.48828v10.48828m17.48047-10.48828v10.48828m17.48438-10.48828v10.48828m17.48047-10.48828v10.48828m17.48437-10.48828v10.48828m17.48437-10.48828v10.48828m17.48047-10.48828v10.48828m17.48438-10.48828v10.48828m17.48437-10.48828v10.48828m17.48048-10.48828v10.48828m17.48437-10.48828v10.48828m17.48047-10.48828v10.48828m17.48437-10.48828v10.48828m17.48438-10.48828v10.48828m17.48047-10.48828v10.48828m17.48437-10.48828v10.48828m17.48437-10.48828v10.48828m17.48048-10.48828v10.48828m17.48437-10.48828v10.48828m17.48047-10.48828v10.48828m17.48438-10.48828v10.48828m17.48437-10.48828v10.48828m17.48047-10.48828v10.48828m17.48437-10.48828v10.48828m17.48047-10.48828v10.48828m17.48438-10.48828v10.48828m17.48437-10.48828v10.48828m17.48047-10.48828v10.48828m17.48438-10.48828v10.48828m17.48437-10.48828v10.48828m17.48047-10.48828v10.48828m17.48438-10.48828v10.48828m17.48046-10.48828v10.48828m17.48438-10.48828v10.48828"/><path fill="none" stroke="#000" stroke-miterlimit="10" stroke-width=".78649" d="M48.13281 9.91016v17.48437"/><use xlink:href="#c" x="40.92268" y="39.58844"/><use xlink:href="#d" x="49.22999" y="39.58844"/><path fill="none" stroke="#000" stroke-miterlimit="10" stroke-width=".78649" d="M222.96094 9.91016v17.48437"/><use xlink:href="#e" x="219.90255" y="39.58844"/><path fill="none" stroke="#000" stroke-miterlimit="10" stroke-width=".78649" d="M397.79297 9.91016v17.48437"/><use xlink:href="#d" x="394.72897" y="39.58844"/><path fill="none" stroke="#000" stroke-miterlimit="10" stroke-width=".78649" d="M572.6211 9.91016v17.48437"/><use xlink:href="#f" x="569.55638" y="39.58844"/><path fill="none" stroke="#007F7F" stroke-miterlimit="10" stroke-width="1.17975" d="M301.63672 11.66016v13.98828"/><use xlink:href="#g" x="270.36553" y="7.1839" fill="#007F7F"/><use xlink:href="#g" x="275.77265" y="7.1839" fill="#007F7F"/><use xlink:href="#g" x="281.17977" y="7.1839" fill="#007F7F"/><use xlink:href="#g" x="286.5869" y="7.1839" fill="#007F7F"/><use xlink:href="#g" x="291.99402" y="7.1839" fill="#007F7F"/><use xlink:href="#g" x="297.40114" y="7.1839" fill="#007F7F"/><use xlink:href="#g" x="302.80827" y="7.1839" fill="#007F7F"/><use xlink:href="#g" x="308.21539" y="7.1839" fill="#007F7F"/><use xlink:href="#g" x="313.62251" y="7.1839" fill="#007F7F"/><use xlink:href="#g" x="319.02963" y="7.1839" fill="#007F7F"/><use xlink:href="#g" x="324.43676" y="7.1839" fill="#007F7F"/><use xlink:href="#g" x="329.84388" y="7.1839" fill="#007F7F"/><path fill="none" stroke="#007F7F" stroke-miterlimit="10" stroke-width="1.17975" d="M380.3086 9.91016v17.48437"/><use xlink:href="#g" x="349.0384" y="5.43529" fill="#007F7F"/><use xlink:href="#g" x="354.44553" y="5.43529" fill="#007F7F"/><use xlink:href="#g" x="359.85265" y="5.43529" fill="#007F7F"/><use xlink:href="#g" x="365.25977" y="5.43529" fill="#007F7F"/><use xlink:href="#g" x="370.6669" y="5.43529" fill="#007F7F"/><use xlink:href="#g" x="376.07402" y="5.43529" fill="#007F7F"/><use xlink:href="#g" x="381.48114" y="5.43529" fill="#007F7F"/><use xlink:href="#g" x="386.88826" y="5.43529" fill="#007F7F"/><use xlink:href="#g" x="392.29539" y="5.43529" fill="#007F7F"/><use xlink:href="#g" x="397.70251" y="5.43529" fill="#007F7F"/><use xlink:href="#g" x="403.10964" y="5.43529" fill="#007F7F"/><use xlink:href="#g" x="408.51676" y="5.43529" fill="#007F7F"/></svg>