<svg xmlns="http://www.w3.org/2000/svg" xmlns:xlink="http://www.w3.org/1999/xlink" width="620.875pt" height="52.526pt" viewBox="0 0 620.875 52.526"><defs><path id="c" d="M.98438-2.9375H7.375v-.67187H.98438Zm0 0"/><path id="d" d="M1.26563 0h3.8125v-.32812l-.98438-.09375c-.25-.01563-.375-.10938-.375-.5625v-6.84375l-.0625-.0625-2.39062.40625v.28125l1.07812.14062c.20313.03125.26563.10938.26563.45313v5.625c0 .45312-.10938.54687-.375.5625l-.96875.09375Zm0 0"/><path id="e" d="M.48438-3.875c0 2.3125.67187 4.01563 2.59375 4.01563 1.90625 0 2.59375-1.70313 2.59375-4.01563 0-2.32812-.6875-4.01562-2.59375-4.01562-1.92188 0-2.59375 1.6875-2.59375 4.01562m1.17187 0c0-1.89062.3125-3.60937 1.42188-3.60937C4.17188-7.48437 4.5-5.76562 4.5-3.875S4.17188-.26562 3.07813-.26562c-1.10938 0-1.42188-1.71875-1.42188-3.60938m0 0"/><path id="f" d="M.3125-.10937.4375 0h4.79688L5.625-1.53125l-.3125-.0625c-.25.625-.48437.71875-.95312.71875H1.39063c.1875-.60937.875-1.4375 1.95312-2.20312C4.45313-3.90625 5.3125-4.42187 5.3125-5.71875c0-1.60937-1.0625-2.17187-2.28125-2.17187-1.59375 0-2.42187.96875-2.42187 1.57812 0 .39063.45312.57813.65625.57813s.28124-.125.32812-.32813c.1875-.78125.64063-1.42187 1.35938-1.42187.89062 0 1.14062.75 1.14062 1.59375 0 1.25-.625 1.95312-1.64062 2.84375C1.03125-1.79687.53125-1.01562.3125-.10937m0 0"/><path id="g" d="m.59375 1.42188.21875.21874c.57813-.54687 1.42188-1.3125 1.42188-2.23437 0-.60937-.32813-1.04687-.78125-1.04687-.35938 0-.57813.28124-.57813.57812 0 .42188.39063.64063.39063 1.14063 0 .48437-.29688.9375-.67188 1.34375m0 0"/><path id="h" d="M.46875-1.1875c0 .53125.8125 1.32813 2.32813 1.32813C4.70313.14063 5.5625-1.03125 5.5625-2.5c0-1.625-1-2.45312-2.39062-2.45312-.64063 0-1.34375.28125-1.71875.625l.26562-2.20313c.03125-.29687.10938-.32812.32813-.32812H4.9375l.28125-.79688-.0625-.09375h-3.875l-.10937.10938-.23438 3.875.28125.15625c.48438-.5625.95313-.82813 1.57813-.82813.75 0 1.5625.53125 1.5625 2.0625 0 1.20313-.48438 2.10938-1.5 2.10938-.8125 0-1.21875-.59375-1.45313-1.25-.0625-.17188-.17187-.28126-.32812-.28126-.23438 0-.60938.23438-.60938.60938m0 0"/><clipPath id="a"><path d="M2.71484 26H612v2H2.71484Zm0 0"/></clipPath><clipPath id="b"><path d="M600 14h18.03516v26H600Zm0 0"/></clipPath></defs><g clip-path="url(#a)"><path fill="none" stroke="#000" stroke-miterlimit="10" stroke-width=".78988" d="M3.10538 26.78125H611.5275"/></g><path d="M615.65234 26.78125c-.5078-.10547-2.73437-.70312-4.125-1.35156v2.70312c1.39063-.64843 3.6172-1.2461 4.125-1.35156m0 0"/><g clip-path="url(#b)"><path fill="none" stroke="#000" stroke-miterlimit="10" stroke-width=".78988" d="M615.65235 26.78125c-.50782-.10547-2.73438-.70312-4.125-1.35156v2.70312c1.39062-.64843 3.61718-1.2461 4.125-1.35156Zm0 0"/></g><path fill="none" stroke="#000" stroke-miterlimit="10" stroke-width=".39494" d="M11.88663 21.51562v10.53126m17.5586-10.53126v10.53126m17.55861-10.53126v10.53126m17.55469-10.53126v10.53126m17.5586-10.53126v10.53126m17.5586-10.53126v10.53126m17.5586-10.53126v10.53126m17.5586-10.53126v10.53126m17.5586-10.53126v10.53126m17.5586-10.53126v10.53126m17.55861-10.53126v10.53126m17.5586-10.53126v10.53126m17.5586-10.53126v10.53126m17.5586-10.53126v10.53126m17.5586-10.53126v10.53126m17.5586-10.53126v10.53126m17.5586-10.53126v10.53126m17.55469-10.53126v10.53126m17.55861-10.53126v10.53126m17.5586-10.53126v10.53126m17.5586-10.53126v10.53126m17.5586-10.53126v10.53126m17.5586-10.53126v10.53126m17.5586-10.53126v10.53126m17.5586-10.53126v10.53126m17.5586-10.53126v10.53126m17.5586-10.53126v10.53126m17.5586-10.53126v10.53126m17.5586-10.53126v10.53126m17.5586-10.53126v10.53126m17.5586-10.53126v10.53126m17.5547-10.53126v10.53126m17.5586-10.53126v10.53126m17.5586-10.53126v10.53126m17.5586-10.53126v10.53126"/><path fill="none" stroke="#000" stroke-miterlimit="10" stroke-width=".78988" d="M47.00384 18.0039v17.5547"/><use xlink:href="#c" x="39.76012" y="47.80659"/><use xlink:href="#d" x="48.10326" y="47.80659"/><path fill="none" stroke="#000" stroke-miterlimit="10" stroke-width=".78988" d="M222.58594 18.0039v17.5547"/><use xlink:href="#e" x="219.51202" y="47.80659"/><path fill="none" stroke="#000" stroke-miterlimit="10" stroke-width=".78988" d="M398.16804 18.0039v17.5547"/><use xlink:href="#d" x="395.09256" y="47.80659"/><path fill="none" stroke="#000" stroke-miterlimit="10" stroke-width=".78988" d="M573.75014 18.0039v17.5547"/><use xlink:href="#f" x="570.6741" y="47.80659"/><path fill="none" stroke="#007F7F" stroke-miterlimit="10" stroke-width="1.18484" d="M301.59769 19.75781v14.04688"/><g fill="#007F7F"><use xlink:href="#c" x="285.98417" y="13.75587"/><use xlink:href="#e" x="294.32731" y="13.75587"/><use xlink:href="#g" x="300.47359" y="13.75587"/></g><g fill="#007F7F"><use xlink:href="#h" x="304.91668" y="13.75587"/><use xlink:href="#h" x="311.06296" y="13.75587"/></g><path fill="none" stroke="#007F7F" stroke-miterlimit="10" stroke-width="1.18484" d="M380.60944 18.0039v17.5547"/><g fill="#007F7F"><use xlink:href="#c" x="368.06843" y="11.99971"/><use xlink:href="#e" x="376.41157" y="11.99971"/><use xlink:href="#g" x="382.55785" y="11.99971"/></g><use xlink:href="#d" x="387.00095" y="11.99971" fill="#007F7F"/></svg>