<svg xmlns="http://www.w3.org/2000/svg" xmlns:xlink="http://www.w3.org/1999/xlink" width="992.923pt" height="71.05pt" viewBox="0 0 992.923 71.05"><defs><path id="c" d="M1.57813-4.67187h10.15625v-1.09375H1.57813Zm0 0"/><path id="d" d="M2 0h6.07813v-.53125L6.53125-.67187c-.40625-.03126-.60937-.17188-.60937-.90625v-10.89063l-.10938-.09375L2-11.90625v.45313l1.73438.20312c.3125.04688.4375.1875.4375.71875v8.95313c0 .73437-.1875.875-.60938.90625L2-.53125Zm0 0"/><path id="e" d="M.76563-6.17187c0 3.6875 1.07812 6.39062 4.125 6.39062s4.15625-2.70312 4.15625-6.39062c0-3.70313-1.10938-6.39063-4.15625-6.39063S.76563-9.875.76563-6.17187m1.875 0c0-3 .5-5.73438 2.25-5.73438s2.26562 2.73438 2.26562 5.73438S6.64063-.4375 4.89063-.4375s-2.25-2.73437-2.25-5.73437m0 0"/><path id="f" d="M.48438-.17187.6875 0h7.64063l.64062-2.4375-.51562-.09375c-.39063 1-.76563 1.14063-1.51563 1.14063H2.21875c.29688-.96875 1.39063-2.28125 3.10938-3.51563 1.76562-1.3125 3.14062-2.125 3.14062-4.1875 0-2.57812-1.70312-3.46875-3.65625-3.46875-2.53125 0-3.82812 1.53125-3.82812 2.5 0 .625.70312.92188 1.01562.92188.34375 0 .45313-.20313.53125-.51563.29688-1.25 1.03125-2.25 2.17188-2.25 1.40625 0 1.82812 1.17188 1.82812 2.53125 0 1.98438-1.01562 3.10938-2.625 4.51563C1.625-2.875.84375-1.60937.48438-.17187m0 0"/><path id="g" d="M1.29688-.9375c0 .65625.45312 1.15625 1.15625 1.15625.73437 0 1.14062-.5 1.15625-1.15625 0-.6875-.42188-1.20312-1.15625-1.20312-.70313 0-1.15625.51562-1.15625 1.20312m0 0"/><clipPath id="a"><path d="M6.51172 29H981v2H6.51172Zm0 0"/></clipPath><clipPath id="b"><path d="M968 17h18.33594v26H968Zm0 0"/></clipPath></defs><g clip-path="url(#a)"><path fill="none" stroke="#000" stroke-miterlimit="10" stroke-width=".7865" d="M6.90219 29.84766h972.94965"/></g><path d="M983.96484 29.84766c-.5078-.10547-2.72656-.69922-4.11328-1.34766v2.6914c1.38672-.64453 3.60547-1.24218 4.11328-1.34374m0 0"/><g clip-path="url(#b)"><path fill="none" stroke="#000" stroke-miterlimit="10" stroke-width=".7865" d="M983.96485 29.84766c-.50782-.10547-2.72657-.69922-4.11329-1.34766v2.6914c1.38672-.64452 3.60547-1.24218 4.11329-1.34374Zm0 0"/></g><path fill="none" stroke="#000" stroke-miterlimit="10" stroke-width=".39324" d="M20.88657 21.45312v16.78516m27.97267-16.78516v16.78516M76.8319 21.45312v16.78516m27.97267-16.78516v16.78516m27.97267-16.78516v16.78516m27.97267-16.78516v16.78516m27.97267-16.78516v16.78516m27.97267-16.78516v16.78516m27.97658-16.78516v16.78516m27.97267-16.78516v16.78516m27.97266-16.78516v16.78516m27.97267-16.78516v16.78516m27.97267-16.78516v16.78516m27.97267-16.78516v16.78516m27.97267-16.78516v16.78516m27.97266-16.78516v16.78516m27.97268-16.78516v16.78516m27.97266-16.78516v16.78516m27.97267-16.78516v16.78516m27.97267-16.78516v16.78516m27.97267-16.78516v16.78516m27.97267-16.78516v16.78516m27.97267-16.78516v16.78516m27.97267-16.78516v16.78516m27.97267-16.78516v16.78516m27.97267-16.78516v16.78516m27.97266-16.78516v16.78516m27.97267-16.78516v16.78516m27.97267-16.78516v16.78516m27.97267-16.78516v16.78516m27.97267-16.78516v16.78516m27.97266-16.78516v16.78516m27.97268-16.78516v16.78516m27.97267-16.78516v16.78516m27.97267-16.78516v16.78516"/><path fill="none" stroke="#000" stroke-miterlimit="10" stroke-width=".7865" d="M76.8319 15.85937v27.97267"/><use xlink:href="#c" x="65.29457" y="63.34305"/><use xlink:href="#d" x="78.58634" y="63.34305"/><path fill="none" stroke="#000" stroke-miterlimit="10" stroke-width=".7865" d="M356.5625 15.85937v27.97267"/><use xlink:href="#e" x="351.66555" y="63.34305"/><path fill="none" stroke="#000" stroke-miterlimit="10" stroke-width=".7865" d="M636.28919 15.85937v27.97267"/><use xlink:href="#d" x="631.3894" y="63.34305"/><path fill="none" stroke="#000" stroke-miterlimit="10" stroke-width=".7865" d="M916.01588 15.85937v27.97267"/><use xlink:href="#f" x="911.11423" y="63.34305"/><path fill="none" stroke="#007F7F" stroke-miterlimit="10" stroke-width="1.17976" d="M482.43756 18.65624v22.37892"/><use xlink:href="#g" x="432.40697" y="11.49431" fill="#007F7F"/><use xlink:href="#g" x="441.05841" y="11.49431" fill="#007F7F"/><use xlink:href="#g" x="449.70986" y="11.49431" fill="#007F7F"/><use xlink:href="#g" x="458.3613" y="11.49431" fill="#007F7F"/><use xlink:href="#g" x="467.01275" y="11.49431" fill="#007F7F"/><use xlink:href="#g" x="475.66419" y="11.49431" fill="#007F7F"/><use xlink:href="#g" x="484.31564" y="11.49431" fill="#007F7F"/><use xlink:href="#g" x="492.96709" y="11.49431" fill="#007F7F"/><use xlink:href="#g" x="501.61853" y="11.49431" fill="#007F7F"/><use xlink:href="#g" x="510.26998" y="11.49431" fill="#007F7F"/><use xlink:href="#g" x="518.92142" y="11.49431" fill="#007F7F"/><use xlink:href="#g" x="527.57287" y="11.49431" fill="#007F7F"/><path fill="none" stroke="#007F7F" stroke-miterlimit="10" stroke-width="1.17976" d="M608.31652 15.85937v27.97267"/><use xlink:href="#g" x="558.28289" y="8.69672" fill="#007F7F"/><use xlink:href="#g" x="566.93434" y="8.69672" fill="#007F7F"/><use xlink:href="#g" x="575.58579" y="8.69672" fill="#007F7F"/><use xlink:href="#g" x="584.23723" y="8.69672" fill="#007F7F"/><use xlink:href="#g" x="592.88868" y="8.69672" fill="#007F7F"/><use xlink:href="#g" x="601.54012" y="8.69672" fill="#007F7F"/><use xlink:href="#g" x="610.19157" y="8.69672" fill="#007F7F"/><use xlink:href="#g" x="618.84302" y="8.69672" fill="#007F7F"/><use xlink:href="#g" x="627.49446" y="8.69672" fill="#007F7F"/><use xlink:href="#g" x="636.14591" y="8.69672" fill="#007F7F"/><use xlink:href="#g" x="644.79735" y="8.69672" fill="#007F7F"/><use xlink:href="#g" x="653.4488" y="8.69672" fill="#007F7F"/></svg>