<svg xmlns="http://www.w3.org/2000/svg" xmlns:xlink="http://www.w3.org/1999/xlink" width="553.554pt" height="51.944pt" viewBox="0 0 553.554 51.944"><defs><path id="a" d="M.9375-2.76562h6.01563v-.64063H.9375Zm0 0"/><path id="b" d="M1.1875 0h3.59375v-.3125l-.92187-.07812C3.625-.42187 3.5-.5 3.5-.9375V-7.375l-.04687-.0625-2.26563.39063v.26562l1.03125.125c.17188.01563.25.10938.25.42188V-.9375c0 .4375-.10937.51563-.35937.54688L1.1875-.3125Zm0 0"/><path id="c" d="M.45313-3.65625c0 2.1875.65625 3.78125 2.45312 3.78125 1.8125 0 2.45313-1.59375 2.45313-3.78125S4.71875-7.4375 2.90625-7.4375c-1.79687 0-2.45312 1.59375-2.45312 3.78125m1.10937 0c0-1.78125.3125-3.39062 1.34375-3.39062 1.04688 0 1.32813 1.60937 1.32813 3.39062S3.95313-.25 2.90625-.25C1.875-.25 1.5625-1.875 1.5625-3.65625m0 0"/><path id="j" d="M1.03125-3.07812h6.6875v-.71875h-6.6875Zm0 0"/><path id="k" d="M.5-4.0625C.5-1.625 1.23438.14063 3.23438.14063S5.95313-1.625 5.95313-4.0625s-.71875-4.20312-2.71875-4.20312S.5-6.5.5-4.0625m1.23438 0c0-1.98437.34375-3.78125 1.5-3.78125S4.70313-6.04687 4.70313-4.0625c0 1.98438-.3125 3.78125-1.46875 3.78125s-1.5-1.79687-1.5-3.78125m0 0"/><path id="l" d="m.625 1.48438.23438.23437c.60937-.5625 1.48437-1.375 1.48437-2.34375 0-.64062-.34375-1.09375-.8125-1.09375-.375 0-.60937.29688-.60937.60938 0 .4375.39062.67187.39062 1.1875 0 .5-.29687.98437-.6875 1.40625m0 0"/><path id="m" d="m.25-2.4375.09375.26563h3.3125V-.9375c0 .42188-.125.48438-.42187.51563l-.78125.07812V0h3.21875v-.34375L5.125-.40625c-.28125-.04687-.35937-.10937-.35937-.53125v-1.23437H6V-2.75H4.76563v-5.375H3.875C2.73438-6.4375 1.35938-4.32812.25-2.4375m.875-.3125c.71875-1.3125 1.60938-2.71875 2.53125-4.20312V-2.75Zm0 0"/><path id="n" d="M.5-1.23437c0 .54687.85938 1.375 2.4375 1.375 2 0 2.90625-1.21875 2.90625-2.75 0-1.71875-1.0625-2.57813-2.5-2.57813-.67187 0-1.42187.29688-1.79687.64063l.26562-2.29688c.03125-.3125.10938-.34375.34375-.34375H5.1875l.29688-.82812-.0625-.10938h-4.0625l-.125.10938L1-3.95312l.29688.15625c.5-.57813 1-.85938 1.65625-.85938.76562 0 1.625.5625 1.625 2.17188 0 1.25-.5 2.20312-1.5625 2.20312-.85938 0-1.28125-.60937-1.53125-1.3125-.0625-.17187-.17188-.29687-.34375-.29687-.25 0-.64063.25-.64063.65625m0 0"/><path id="o" d="M.45313-5.53125c0 1.65625 1.01562 2.54688 2.3125 2.54688.95312 0 1.67187-.65625 2-1.04688-.01563 2.67188-.75 3.75-1.85938 3.75-.54687 0-.95312-.46875-1.14062-1.17187-.03126-.14063-.125-.25-.29688-.25-.28125 0-.65625.21874-.65625.54687 0 .5.59375 1.29688 2.0625 1.29688 1.92188 0 3.10938-1.48438 3.10938-4.51563 0-2.625-.95313-3.89062-2.78125-3.89062-1.79688 0-2.75 1.07812-2.75 2.73437m1.21875-.17187c0-1.28125.48437-2.14063 1.51562-2.14063 1.0625 0 1.57813 1.125 1.57813 2.59375 0 .73438-.5625 1.64063-1.57813 1.64063-.76562 0-1.51562-.70313-1.51562-2.09375m0 0"/><clipPath id="d"><path d="M478 22.55078h2v7.36328h-2Zm0 0"/></clipPath><clipPath id="e"><path d="M497 22.55078h1v7.36328h-1Zm0 0"/></clipPath><clipPath id="f"><path d="M515 22.55078h2v7.36328h-2Zm0 0"/></clipPath><clipPath id="g"><path d="M534 22.55078h1v7.36328h-1Zm0 0"/></clipPath><clipPath id="h"><path d="M.07422 25H547v2H.07422Zm0 0"/></clipPath><clipPath id="i"><path d="M535 13h18.03125v26H535Zm0 0"/></clipPath></defs><path fill="none" stroke="#000" stroke-miterlimit="10" stroke-width=".39807" d="M92.4961 17.03125V35.4375"/><use xlink:href="#a" x="85.65405" y="47.44785"/><use xlink:href="#b" x="93.52522" y="47.44785"/><path fill="none" stroke="#7f7f7f" stroke-miterlimit="10" stroke-width=".39807" d="M110.90236 22.55078v7.36328m18.40624-7.36328v7.36328m18.40625-7.36328v7.36328m18.40625-7.36328v7.36328m18.40625-7.36328v7.36328m18.40625-7.36328v7.36328m18.40234-7.36328v7.36328m18.40625-7.36328v7.36328m18.40625-7.36328v7.36328"/><path fill="none" stroke="#000" stroke-miterlimit="10" stroke-width=".39807" d="M276.55469 17.03125V35.4375"/><use xlink:href="#c" x="273.64338" y="47.44785"/><path fill="none" stroke="#7f7f7f" stroke-miterlimit="10" stroke-width=".39807" d="M294.96094 22.55078v7.36328m18.40624-7.36328v7.36328m18.40235-7.36328v7.36328m18.40625-7.36328v7.36328m18.40624-7.36328v7.36328m18.40625-7.36328v7.36328m18.40625-7.36328v7.36328m18.40625-7.36328v7.36328m18.40234-7.36328v7.36328"/><path fill="none" stroke="#000" stroke-miterlimit="10" stroke-width=".39807" d="M460.60936 17.03125V35.4375"/><use xlink:href="#b" x="457.69695" y="47.44785"/><path fill="none" stroke="#7f7f7f" stroke-miterlimit="10" stroke-width=".39807" d="M18.87502 22.55078v7.36328m18.40625-7.36328v7.36328m18.40625-7.36328v7.36328m18.40625-7.36328v7.36328"/><g clip-path="url(#d)"><path fill="none" stroke="#7f7f7f" stroke-miterlimit="10" stroke-width=".39807" d="M479.0156 22.55078v7.36328"/></g><g clip-path="url(#e)"><path fill="none" stroke="#7f7f7f" stroke-miterlimit="10" stroke-width=".39807" d="M497.42186 22.55078v7.36328"/></g><g clip-path="url(#f)"><path fill="none" stroke="#7f7f7f" stroke-miterlimit="10" stroke-width=".39807" d="M515.8281 22.55078v7.36328"/></g><g clip-path="url(#g)"><path fill="none" stroke="#7f7f7f" stroke-miterlimit="10" stroke-width=".39807" d="M534.23436 22.55078v7.36328"/></g><g clip-path="url(#h)"><path fill="none" stroke="#000" stroke-miterlimit="10" stroke-width=".79615" d="M.46877 26.23438h545.99996"/></g><path d="M550.6289 26.23438c-.51171-.10547-2.7578-.70704-4.16015-1.36329v2.72657c1.40234-.65625 3.64844-1.25782 4.16016-1.36329m0 0"/><g clip-path="url(#i)"><path fill="none" stroke="#000" stroke-miterlimit="10" stroke-width=".79615" d="M550.6289 26.23438c-.51171-.10547-2.7578-.70704-4.16015-1.36329v2.72657c1.40234-.65625 3.64844-1.25782 4.16016-1.36328Zm0 0"/></g><path fill="none" stroke="#007f7f" stroke-miterlimit="10" stroke-width="1.19424" d="M193.73048 18.8711v14.72656"/><g fill="#007f7f"><use xlink:href="#j" x="177.30824" y="12.57944"/><use xlink:href="#k" x="186.05398" y="12.57944"/><use xlink:href="#l" x="192.52272" y="12.57944"/></g><g fill="#007f7f"><use xlink:href="#m" x="197.18021" y="12.57944"/><use xlink:href="#n" x="203.64895" y="12.57944"/></g><path fill="none" stroke="#007f7f" stroke-miterlimit="10" stroke-width="1.19424" d="M110.90236 18.8711v14.72656"/><g fill="#007f7f"><use xlink:href="#j" x="97.70206" y="12.57944"/><use xlink:href="#k" x="106.4478" y="12.57944"/><use xlink:href="#l" x="112.91654" y="12.57944"/></g><use xlink:href="#o" x="117.57403" y="12.57944" fill="#007f7f"/></svg>