<svg xmlns="http://www.w3.org/2000/svg" xmlns:xlink="http://www.w3.org/1999/xlink" width="406.152pt" height="35.093pt" viewBox="0 0 406.152 35.093"><defs><path id="a" d="M.90625-2.70312h5.875v-.625h-5.875Zm0 0"/><path id="b" d="M.4375-1.09375c0 .48438.75 1.21875 2.125 1.21875C4.32813.125 5.125-.9375 5.125-2.29687c0-1.5-.9375-2.26563-2.20312-2.26563-.59375 0-1.23438.26563-1.57813.57813l.23438-2.03125c.03124-.26563.10937-.29688.3125-.29688h2.65625l.26562-.73437-.0625-.09375H1.1875l-.10937.10937-.21876 3.5625.26563.14063c.4375-.51563.875-.76563 1.45313-.76563.6875 0 1.4375.5 1.4375 1.90625 0 1.10938-.45313 1.9375-1.375 1.9375-.75 0-1.125-.53125-1.34375-1.14062-.0625-.17188-.15626-.26563-.3125-.26563-.21876 0-.54688.21875-.54688.5625m0 0"/><path id="c" d="m.20313-2.14062.09375.23437h2.90625V-.8125c0 .35938-.10938.42188-.375.4375l-.6875.0625V0h2.82812v-.3125l-.48437-.04687c-.25-.03125-.3125-.09375-.3125-.45313v-1.09375h1.09375v-.5H4.17188v-4.73437h-.78125c-1 1.48437-2.20313 3.32812-3.1875 5m.78125-.26563c.625-1.15625 1.40625-2.40625 2.21875-3.6875v3.6875Zm0 0"/><path id="d" d="M.28125-1.09375c0 .45313.73438 1.21875 2.25 1.21875 1.54688 0 2.53125-.78125 2.53125-2.14062 0-1.4375-1.23437-1.85938-1.82812-1.92188v-.03125c.57812-.09375 1.5-.53125 1.5-1.59375 0-1.17187-.92188-1.70312-2.0625-1.70312-1.40625 0-2.10938.82812-2.10938 1.28125 0 .32812.375.51562.53125.51562.14063 0 .21875-.09375.26563-.21875.23437-.73437.625-1.20312 1.23437-1.20312.84375 0 1.04688.75 1.04688 1.34375 0 .64062-.21875 1.45312-1.125 1.45312-.51563 0-.8125-.10937-.9375-.10937-.14063 0-.1875.10937-.1875.29687s.04687.29688.1875.29688c.125 0 .42187-.10938.9375-.10938.90625 0 1.42187.82813 1.42187 1.75C3.9375-.6875 3.3125-.25 2.54688-.25c-.70313 0-1.17188-.51562-1.375-1.125-.0625-.20312-.17188-.3125-.3125-.3125-.20313 0-.57813.20313-.57813.59375m0 0"/><path id="e" d="M.28125-.10937.39063 0H4.8125l.375-1.40625-.29687-.0625c-.23438.57813-.45313.65625-.875.65625H1.28125c.17188-.54687.8125-1.3125 1.79688-2.03125 1.01562-.75 1.8125-1.21875 1.8125-2.42187 0-1.48438-.98438-2-2.10938-2C1.3125-7.26562.5625-6.375.5625-5.8125c0 .35938.42188.53125.59375.53125.20313 0 .26563-.10937.3125-.29687.17188-.71875.59375-1.3125 1.25-1.3125.8125 0 1.04688.6875 1.04688 1.46875 0 1.15625-.57813 1.79687-1.5 2.60937C.9375-1.65625.48438-.9375.28124-.10937m0 0"/><path id="f" d="M1.15625 0h3.51563v-.3125l-.90625-.07812c-.21875-.01563-.34375-.09375-.34375-.51563v-6.29687l-.0625-.0625-2.20313.375v.26562l1 .125c.1875.03125.25.10938.25.40625v5.1875c0 .42188-.09375.5-.34375.51563l-.90625.07812Zm0 0"/><path id="g" d="M.4375-3.5625c0 2.125.625 3.6875 2.39063 3.6875s2.39062-1.5625 2.39062-3.6875c0-2.14062-.625-3.70312-2.39062-3.70312S.4375-5.70312.4375-3.5625m1.07813 0c0-1.75.29687-3.32812 1.3125-3.32812 1.01562 0 1.3125 1.57812 1.3125 3.32812 0 1.73438-.29688 3.3125-1.3125 3.3125-1.01563 0-1.3125-1.57812-1.3125-3.3125m0 0"/><clipPath id="h"><path d="M4.70313 8H395v2H4.70313Zm0 0"/></clipPath><clipPath id="i"><path d="M383 0h17.6211v22H383Zm0 0"/></clipPath></defs><path fill="none" stroke="#000" stroke-miterlimit="10" stroke-width=".38846" d="M23.0507.1914v17.96485"/><use xlink:href="#a" x="16.38221" y="29.75107"/><use xlink:href="#b" x="24.06335" y="29.75107"/><path fill="none" stroke="#000" stroke-miterlimit="10" stroke-width=".38846" d="M58.97259.1914v17.96485"/><use xlink:href="#a" x="52.30477" y="29.75107"/><use xlink:href="#c" x="59.98591" y="29.75107"/><path fill="none" stroke="#000" stroke-miterlimit="10" stroke-width=".38846" d="M94.89448.1914v17.96485"/><use xlink:href="#a" x="88.22636" y="29.87584"/><use xlink:href="#d" x="95.90749" y="29.87584"/><path fill="none" stroke="#000" stroke-miterlimit="10" stroke-width=".38846" d="M130.81637.1914v17.96485"/><use xlink:href="#a" x="124.14892" y="29.87584"/><use xlink:href="#e" x="131.83005" y="29.87584"/><path fill="none" stroke="#000" stroke-miterlimit="10" stroke-width=".38846" d="M166.73826.1914v17.96485"/><use xlink:href="#a" x="160.0705" y="29.87584"/><use xlink:href="#f" x="167.75163" y="29.87584"/><path fill="none" stroke="#000" stroke-miterlimit="10" stroke-width=".38846" d="M202.66406.1914v17.96485"/><use xlink:href="#g" x="199.8338" y="29.87584"/><path fill="none" stroke="#000" stroke-miterlimit="10" stroke-width=".38846" d="M238.58595.1914v17.96485"/><use xlink:href="#f" x="235.75538" y="29.87584"/><path fill="none" stroke="#000" stroke-miterlimit="10" stroke-width=".38846" d="M274.50784.1914v17.96485"/><use xlink:href="#e" x="271.67794" y="29.87584"/><path fill="none" stroke="#000" stroke-miterlimit="10" stroke-width=".38846" d="M310.42974.1914v17.96485"/><use xlink:href="#d" x="307.59953" y="29.87584"/><path fill="none" stroke="#000" stroke-miterlimit="10" stroke-width=".38846" d="M346.35163.1914v17.96485"/><use xlink:href="#c" x="343.52111" y="29.75107"/><path fill="none" stroke="#000" stroke-miterlimit="10" stroke-width=".38846" d="M382.27352.1914v17.96485"/><use xlink:href="#b" x="379.44367" y="29.75107"/><g clip-path="url(#h)"><path fill="none" stroke="#000" stroke-miterlimit="10" stroke-width=".77693" d="M5.08975 9.17578h389.12518"/></g><path d="M398.27344 9.17578c-.4961-.10547-2.6875-.6914-4.0586-1.33203v2.66016c1.3711-.64063 3.5625-1.22657 4.0586-1.32813m0 0"/><g clip-path="url(#i)"><path fill="none" stroke="#000" stroke-miterlimit="10" stroke-width=".77693" d="M398.27344 9.17578c-.4961-.10547-2.6875-.6914-4.0586-1.33203v2.66016c1.3711-.64063 3.5625-1.22657 4.0586-1.32813Zm0 0"/></g></svg>