<svg id="Capa_1" enable-background="new 0 0 512 512" height="512" viewBox="0 0 512 512" width="512" xmlns="http://www.w3.org/2000/svg"><g><g><g><path d="m94.092 271.872c-41.615 0-44.769-1.052-48.264-2.217-8.467-2.823-14.801-9.242-17.376-17.613-3.987-12.964 2.993-23.129 5.621-26.955 2.196-3.198 5.349-7.325 10.12-13.573 10.967-14.36 31.38-41.089 65.592-89.969 9.748-13.928 16.037-26.306 18.706-36.816l.648-5.07c-.727-15.644-13.683-28.148-29.504-28.148-14.086 0-26.274 10.002-28.98 23.783-2.742 13.955-16.281 23.046-30.235 20.306-13.957-2.741-23.049-16.278-20.308-30.235 7.439-37.876 40.884-65.365 79.524-65.365 44.688 0 81.045 36.357 81.045 81.045-.116 3.711-1.063 10.516-1.734 14.175-3.989 17.205-13.06 35.999-26.962 55.861-21.697 31-37.966 53.279-49.854 69.213 18.656-.046 40.759-.222 61.63-.485 14.203-.164 25.898 11.206 26.076 25.429.179 14.222-11.206 25.897-25.429 26.076-31.145.391-53.77.558-70.316.558z" fill="#e28086"/></g><g fill="#dd636e"><path d="m55.85 93.853c-10.738-4.771-17.156-16.471-14.795-28.489 6.753-34.383 34.94-60.204 68.988-64.673-3.411-.439-6.879-.691-10.407-.691-38.64 0-72.085 27.489-79.524 65.364-2.741 13.957 6.351 27.494 20.308 30.236 5.408 1.061 10.751.34 15.43-1.747z"/><path d="m66.771 269.654c-8.467-2.823-14.801-9.242-17.376-17.613-3.987-12.964 2.993-23.129 5.621-26.955 2.196-3.198 5.349-7.325 10.12-13.573 10.967-14.36 31.38-41.089 65.592-89.969 9.748-13.928 16.037-26.306 18.706-36.816l.648-5.07c-.727-15.644-13.683-28.148-29.504-28.148-3.664 0-7.197.682-10.471 1.926 10.72 4.08 18.474 14.224 19.032 26.222l-.648 5.07c-2.669 10.51-8.958 22.888-18.706 36.816-34.211 48.88-54.625 75.609-65.592 89.969-4.772 6.248-7.924 10.375-10.12 13.573-2.628 3.826-9.609 13.991-5.621 26.955 2.574 8.37 8.908 14.79 17.376 17.613 3.495 1.165 6.649 2.217 48.264 2.217 3.45 0 7.182-.008 11.184-.023-32.372-.156-35.306-1.127-38.505-2.194z"/></g></g><g><g><path d="m411.332 512c-40.207 0-74.713-29.996-80.264-69.774-.518-3.704-.781-7.498-.781-11.271 0-14.224 11.531-25.755 25.755-25.755 14.223 0 25.755 11.531 25.755 25.755 0 1.397.096 2.792.286 4.148 2.019 14.475 14.594 25.388 29.25 25.388 16.286 0 29.535-13.249 29.535-29.536 0-16.286-13.25-29.535-29.535-29.535-14.223 0-25.755-11.531-25.755-25.755s11.531-25.755 25.755-25.755c16.286 0 29.535-13.25 29.535-29.536s-13.25-29.536-29.535-29.536c-14.086 0-26.274 10.003-28.981 23.783-2.741 13.958-16.279 23.049-30.236 20.307s-23.048-16.279-20.307-30.236c7.44-37.874 40.884-65.364 79.524-65.364 44.688 0 81.044 36.357 81.044 81.045 0 21.351-8.298 40.799-21.84 55.29 13.542 14.49 21.84 33.939 21.84 55.29-.001 44.69-36.357 81.047-81.045 81.047z" fill="#f4d8a5"/></g><g fill="#f1cb86"><path d="m352.114 334.93c5.41 1.063 10.754.341 15.433-1.746-10.739-4.771-17.158-16.471-14.797-28.49 6.754-34.383 34.94-60.204 68.988-64.673-3.41-.44-6.879-.691-10.407-.691-38.64 0-72.085 27.489-79.524 65.364-2.741 13.957 6.351 27.494 20.307 30.236z"/><path d="m421.813 458.562c3.269 1.247 6.8 1.929 10.461 1.929 16.286 0 29.535-13.249 29.535-29.536 0-16.286-13.25-29.535-29.535-29.535-14.223 0-25.755-11.531-25.755-25.755s11.531-25.755 25.755-25.755c16.286 0 29.535-13.25 29.535-29.536s-13.25-29.536-29.535-29.536c-3.663 0-7.195.682-10.469 1.925 11.129 4.237 19.061 15.012 19.061 27.61 0 16.286-13.25 29.536-29.535 29.536-14.223 0-25.755 11.531-25.755 25.755s11.531 25.755 25.755 25.755c16.286 0 29.535 13.25 29.535 29.535.001 12.597-7.927 23.37-19.053 27.608z"/><path d="m352.011 442.226c-.518-3.704-.781-7.498-.781-11.271 0-10.494 6.28-19.515 15.283-23.529-3.2-1.427-6.742-2.226-10.471-2.226-14.223 0-25.755 11.531-25.755 25.755 0 3.773.263 7.567.781 11.271 5.55 39.778 40.056 69.774 80.264 69.774 3.547 0 7.033-.254 10.461-.698-35.582-4.679-64.721-32.805-69.782-69.076z"/></g></g><path d="m93.369 452.477c-5.152 0-10.305-1.965-14.235-5.897-7.862-7.862-7.862-20.608 0-28.471l337.094-337.094c7.861-7.863 20.609-7.863 28.471 0 7.862 7.862 7.862 20.608 0 28.471l-337.095 337.094c-3.931 3.932-9.083 5.897-14.235 5.897z" fill="#5766cb"/></g></svg>
