<svg xmlns="http://www.w3.org/2000/svg" xmlns:xlink="http://www.w3.org/1999/xlink" width="177.962pt" height="142.529pt" viewBox="0 0 177.962 142.529"><defs><path id="b" d="M.4375-3.51562C.4375-1.40625 1.04688.125 2.78125.125c1.73438 0 2.35938-1.53125 2.35938-3.64062 0-2.09375-.625-3.625-2.35938-3.625S.4375-5.60937.4375-3.51562m1.0625 0c0-1.70313.28125-3.25 1.28125-3.25s1.28125 1.54687 1.28125 3.25C4.0625-1.79687 3.78125-.25 2.78125-.25S1.5-1.79687 1.5-3.51562m0 0"/><path id="c" d="M.89063-2.65625h5.78125v-.60937H.89063Zm0 0"/><path id="d" d="M.28125-.09375.39063 0h4.34375l.35937-1.39062-.29687-.04688c-.21875.5625-.42188.64063-.85938.64063H1.26563c.17187-.54688.79687-1.29688 1.76562-2 1-.73438 1.78125-1.20313 1.78125-2.375 0-1.46875-.96875-1.96875-2.07812-1.96875-1.4375 0-2.17188.875-2.17188 1.42187 0 .35938.39063.53125.57813.53125s.25-.125.29687-.29687c.17188-.71875.57813-1.28125 1.23438-1.28125.79687 0 1.03125.67187 1.03125 1.4375 0 1.125-.5625 1.76562-1.48438 2.5625C.92188-1.625.48438-.92187.28125-.09375m0 0"/><path id="e" d="M1.14063 0h3.45312v-.29687L3.70313-.375c-.21875-.03125-.34375-.10937-.34375-.51562v-6.1875l-.04688-.0625-2.17187.375v.25l.98437.125c.17188.01562.25.09375.25.40625v5.09375c0 .40625-.10937.48437-.35937.51562l-.875.07813Zm0 0"/><path id="j" d="M.39063-5.8125C.39063-4.79687 1.40625-4 3.73438-4c-.39063.6875-.67188 1.39063-.67188 2.15625 0 1.28125.8125 1.98438 2.26563 1.98438C6.76563.14063 8.25-.89062 8.25-2.21875c0-.79687-.65625-1.23437-1.48437-1.23437-.92188 0-2 1.03125-2 1.85937 0 .23438.1875.71875.53125.71875.09375 0 .23437-.07812.23437-.1875 0-.15625-.26562-.17187-.26562-.53125 0-.5625.82812-1.48437 1.5-1.48437.46875 0 .75.1875.75.64062 0 1.03125-.98438 2.20313-2.1875 2.20313-.84375 0-1.26563-.45313-1.26563-1.23438 0-.85937.60938-1.875 1.0625-2.625 2.59375-.39062 5.14063-1.67187 5.14063-3.29687 0-.625-.5-1.03125-1.17188-1.03125-1.53125 0-3.85937 1.96875-5.14062 4.01562C2.90625-4.42187 1.1875-4.4375 1.1875-5.6875c0-1.14062 1.39063-2.01562 2.26563-2.01562.15625 0 .25-.09375.25-.20313 0-.09375-.09375-.17187-.1875-.17187-1.3125 0-3.125.875-3.125 2.26562m4.96875 1.26563c.85937-1.5 2.67187-3.5 3.73437-3.5.40625 0 .6875.23437.6875.60937 0 1.3125-2.04687 2.5-4.42187 2.89063m0 0"/><path id="k" d="M-.17187 1.46875c0 .28125.35937.5.79687.5.85938 0 1.25-.67187 1.57813-2.21875l.76562-3.42187H4L4.07813-4h-1.0625l.25-1c.14062-.54687.28125-.75.48437-.75.1875 0 .32813.15625.51563.57813.04687.07812.125.15625.26562.15625.1875 0 .4375-.15625.4375-.39063 0-.35937-.45312-.65625-.98437-.65625-1.03125 0-1.45313.75-1.75 1.78125L2.15625-4h-.70312l-.09376.32813h.71876L1.125 1.1875c-.07812.40625-.15625.46875-.23437.46875-.07813 0-.21876-.07812-.42188-.40625-.0625-.09375-.125-.20312-.25-.20312-.1875 0-.39062.20312-.39062.42187m0 0"/><clipPath id="a"><path d="M.27344 0h177.375v142H.27344Zm0 0"/></clipPath><clipPath id="f"><path d="M.27344 88H172v2H.27344Zm0 0"/></clipPath><clipPath id="g"><path d="M159 76h18.64844v26H159Zm0 0"/></clipPath><clipPath id="h"><path d="M88 6h2v136.0586h-2Zm0 0"/></clipPath><clipPath id="i"><path d="M.67188.39453H177.2539v141.26953H.67188Zm0 0"/></clipPath></defs><g clip-path="url(#a)"><path fill="none" stroke="#000" stroke-miterlimit="10" stroke-opacity=".5" stroke-width=".39719" d="M.6719 124.0039h176.58198M.6719 88.6875h176.58198M.6719 53.3711h176.58198M.6719 18.0547h176.58198M18.32815 141.66406V.39455m35.3164 141.2695V.39455m35.31639 141.2695V.39455m35.3164 141.2695V.39455m35.31639 141.2695V.39455"/></g><path fill="none" stroke="#000" stroke-miterlimit="10" stroke-opacity=".5" stroke-width=".39719" d="M88.96094 79.85938v17.65624"/><use xlink:href="#b" x="73.8201" y="104.55648" fill-opacity=".5"/><path fill="none" stroke="#000" stroke-miterlimit="10" stroke-opacity=".5" stroke-width=".39719" d="M18.32815 79.85938v17.65624"/><g fill-opacity=".5"><use xlink:href="#c" x="11.77214" y="101.08595"/><use xlink:href="#d" x="19.32378" y="101.08595"/></g><path fill="none" stroke="#000" stroke-miterlimit="10" stroke-opacity=".5" stroke-width=".39719" d="M53.64454 79.85938v17.65624"/><g fill-opacity=".5"><use xlink:href="#c" x="47.08844" y="101.08595"/><use xlink:href="#e" x="54.64007" y="101.08595"/></g><path fill="none" stroke="#000" stroke-miterlimit="10" stroke-opacity=".5" stroke-width=".39719" d="M124.27733 79.85938v17.65624"/><use xlink:href="#e" x="121.49655" y="101.08595" fill-opacity=".5"/><path fill="none" stroke="#000" stroke-miterlimit="10" stroke-opacity=".5" stroke-width=".39719" d="M159.59373 79.85938v17.65624"/><use xlink:href="#d" x="156.81284" y="101.08595" fill-opacity=".5"/><g clip-path="url(#f)"><path fill="none" stroke="#000" stroke-miterlimit="10" stroke-width=".79439" d="M.6719 88.6875h170.42573"/></g><path d="M175.25 88.6875c-.51172-.10547-2.7539-.70703-4.15234-1.35937v2.71874c1.39843-.65234 3.64062-1.2539 4.15234-1.35937m0 0"/><g clip-path="url(#g)"><path fill="none" stroke="#000" stroke-miterlimit="10" stroke-width=".79439" d="M175.25 88.6875c-.51172-.10547-2.7539-.70703-4.15234-1.35937v2.71874c1.39843-.65234 3.64062-1.2539 4.15234-1.35937Zm0 0"/></g><path fill="none" stroke="#000" stroke-miterlimit="10" stroke-opacity=".5" stroke-width=".39719" d="M97.79297 124.0039H80.13282"/><g fill-opacity=".5"><use xlink:href="#c" x="70.04358" y="127.57342"/><use xlink:href="#e" x="77.59522" y="127.57342"/></g><path fill="none" stroke="#000" stroke-miterlimit="10" stroke-opacity=".5" stroke-width=".39719" d="M97.79297 53.3711H80.13282"/><use xlink:href="#e" x="73.8201" y="56.94083" fill-opacity=".5"/><path fill="none" stroke="#000" stroke-miterlimit="10" stroke-opacity=".5" stroke-width=".39719" d="M97.79297 18.0547H80.13282"/><use xlink:href="#d" x="73.8201" y="21.62454" fill-opacity=".5"/><g clip-path="url(#h)"><path fill="none" stroke="#000" stroke-miterlimit="10" stroke-width=".79439" d="M88.96094 141.66405V6.5508"/></g><path stroke="#000" stroke-miterlimit="10" stroke-width=".79439" d="M88.96094 2.40235c-.10547.5078-.70703 2.75-1.35938 4.14843h2.71875c-.65234-1.39844-1.2539-3.64062-1.35937-4.14843Zm0 0"/><g clip-path="url(#i)"><path fill="none" stroke="#007F7F" stroke-miterlimit="10" stroke-width=".79439" d="M.6719 141.66405S41.39455 100.9375 53.64454 88.6875c12.25-12.25 25.51562-35.3164 35.3164-35.3164s23.0664 42.66796 35.3164 35.3164S177.25387.39456 177.25387.39456"/></g><use xlink:href="#j" x="116.66551" y="79.59995" fill="#007F7F"/><use xlink:href="#k" x="126.1853" y="82.32968" fill="#007F7F"/></svg>