<svg xmlns="http://www.w3.org/2000/svg" xmlns:xlink="http://www.w3.org/1999/xlink" width="397.647pt" height="170.876pt" viewBox="0 0 397.647 170.876"><defs><path id="b" d="M1.4375-4.26562h9.26563V-5.25H1.4375Zm0 0"/><path id="c" d="M.45313-1.71875C.45313-1 1.60938.20313 4 .20313c2.4375 0 3.96875-1.25 3.96875-3.39063 0-2.26562-1.92187-2.92187-2.85937-3.01562v-.0625c.90625-.15625 2.35937-.82813 2.35937-2.5 0-1.85938-1.45312-2.6875-3.25-2.6875-2.23437 0-3.32812 1.29687-3.32812 2.01562 0 .51563.59375.79688.82812.79688.21875 0 .34375-.125.40625-.34375.39063-1.14063 1.01563-1.875 1.96875-1.875C5.40625-10.85937 5.75-9.70312 5.75-8.75c0 1-.35937 2.28125-1.79687 2.28125-.79688 0-1.26563-.15625-1.46875-.15625-.20313 0-.29688.15625-.29688.45313s.09375.46875.29688.46875.67187-.15625 1.46875-.15625c1.4375 0 2.25 1.29687 2.25 2.76562 0 2-.98438 2.70313-2.1875 2.70313-1.10938 0-1.84375-.82813-2.17188-1.78125-.10937-.3125-.26562-.48438-.5-.48438-.29687 0-.89062.32813-.89062.9375m0 0"/><path id="d" d="M.45313-.15625.625 0h6.96875l.57813-2.21875-.46875-.09375C7.34375-1.39062 7-1.26562 6.32813-1.26562H2.03125c.26563-.89063 1.26563-2.07813 2.82813-3.21875 1.60937-1.17188 2.85937-1.9375 2.85937-3.8125 0-2.34375-1.54687-3.15625-3.32812-3.15625-2.3125 0-3.5 1.40625-3.5 2.28125 0 .5625.65625.84375.9375.84375.29687 0 .40625-.1875.48437-.46875.26563-1.15625.9375-2.0625 1.96875-2.0625 1.29688 0 1.67188 1.07812 1.67188 2.3125 0 1.8125-.92188 2.82812-2.39063 4.125C1.48438-2.60937.76563-1.46875.45313-.15625m0 0"/><path id="e" d="M1.82813 0h5.53125v-.48437l-1.40625-.125c-.35938-.03126-.5625-.15626-.5625-.82813v-9.92187l-.07813-.09375-3.48437.59375v.40625l1.57812.20312c.28125.03125.39063.15625.39063.64063v8.17187c0 .67188-.15625.79688-.54688.82813l-1.42187.125Zm0 0"/><path id="f" d="M.70313-5.625c0 3.35938.98437 5.82813 3.76562 5.82813C7.23438.20313 8.25-2.26562 8.25-5.625c0-3.375-1.01562-5.82812-3.78125-5.82812C1.6875-11.45312.70313-9 .70313-5.625m1.70312 0c0-2.75.46875-5.23437 2.0625-5.23437S6.53125-8.375 6.53125-5.625c0 2.73438-.46875 5.23438-2.0625 5.23438s-2.0625-2.5-2.0625-5.23438m0 0"/><path id="k" d="M.60938-9.34375c0 1.64063 1.64062 2.9375 5.375 2.9375C5.375-5.3125 4.92188-4.1875 4.92188-2.95312c0 2.0625 1.28125 3.17187 3.64062 3.17187 2.28125 0 4.67188-1.65625 4.67188-3.78125 0-1.28125-1.04688-1.96875-2.39063-1.96875-1.46875 0-3.20312 1.65625-3.20312 2.96875 0 .39063.29687 1.15625.85937 1.15625.15625 0 .375-.125.375-.3125 0-.23437-.4375-.25-.4375-.82812 0-.92188 1.34375-2.39063 2.40625-2.39063.76563 0 1.21875.29688 1.21875 1.03125 0 1.65625-1.59375 3.53125-3.5 3.53125-1.35937 0-2.04687-.73437-2.04687-1.96875 0-1.40625.96875-3.03125 1.70312-4.21875 4.15625-.64062 8.25-2.6875 8.25-5.29687 0-1-.79687-1.65625-1.875-1.65625-2.46875 0-6.1875 3.17187-8.25 6.45312-1.6875-.03125-4.4375-.0625-4.4375-2.04687 0-1.84375 2.23438-3.25 3.625-3.25.26563 0 .40625-.15625.40625-.32813 0-.15625-.14062-.26562-.29687-.26562-2.09375 0-5.03125 1.40625-5.03125 3.60937M8.59375-7.3125c1.375-2.40625 4.28125-5.60937 6-5.60937.65625 0 1.10938.375 1.10938 1 0 2.09375-3.28125 4-7.10938 4.60937m0 0"/><path id="l" d="M-.28125 2.35938c.01563.45312.57813.79687 1.28125.79687 1.375 0 2-1.07812 2.54688-3.54687L4.76563-5.875h1.64062l.14063-.54687H4.84375l.39063-1.59375c.23437-.875.45312-1.21875.76562-1.21875s.53125.26562.84375.92187c.07813.14063.1875.26563.42188.26563.29687 0 .70312-.26563.70312-.625 0-.5625-.71875-1.04688-1.57812-1.04688-1.65625 0-2.32813 1.1875-2.79688 2.85938l-.125.4375h-1.125l-.17187.54687h1.17187L1.8125 1.89063c-.125.67187-.25.76562-.375.76562-.14062 0-.34375-.125-.6875-.65625-.09375-.14062-.1875-.32812-.39062-.32812-.3125 0-.64063.32812-.64063.6875m0 0"/><path id="n" d="M.42188 1.28125c0 1.14063 1.21875 1.875 2.9375 1.875 1.85937 0 3.28125-.75 3.28125-2.1875 0-1.03125-.8125-1.73437-2.3125-2.07812-1.14063-.28126-1.59375-.4375-1.59375-.78125 0-.25.23437-.40625.53125-.5.28125.04687.51562.04687.71875.04687 1.84375 0 2.92187-.96875 2.92187-2.34375 0-.34375-.10937-.65625-.26562-.875l1.0625-.17187.4375-.85938-.07813-.10937-1.90625.51562c-.35937-.21875-1.03125-.39062-1.67187-.39062-2.21875 0-2.89063 1.40625-2.89063 2.40625 0 .92187.70313 1.51562 1.14063 1.65625-.46875.15625-1.28125.48437-1.28125 1.03125 0 .45312.54687.84375 1 1.01562C1.5625-.32812.42188.1875.42188 1.28125m1.35937-.125c0-.92187.78125-1.32812 1.26563-1.40625.8125.10938 2.32812.4375 2.32812 1.53125 0 .98438-.79687 1.39063-1.70312 1.39063-1.0625 0-1.89063-.57813-1.89063-1.51563m1.23438-5.07812c0-.84375.40625-2.15625 1.5625-2.15625.375 0 .96875.1875.96875 1.01562 0 1.20313-.60938 2.21875-1.53125 2.21875-.65625 0-1-.45312-1-1.07812m0 0"/><clipPath id="a"><path d="M0 .01563h397.29297v170.72265H0Zm0 0"/></clipPath><clipPath id="g"><path d="M379 72h18.29297v27H379Zm0 0"/></clipPath><clipPath id="h"><path d="M198 6h2v164.73828h-2Zm0 0"/></clipPath><clipPath id="i"><path d="M186 .01563h26V18h-26Zm0 0"/></clipPath><clipPath id="j"><path d="M.39453 3h396.5039v137H.39454Zm0 0"/></clipPath><clipPath id="m"><path d="M.39453.41016h396.5039v169.92968H.39454Zm0 0"/></clipPath></defs><g clip-path="url(#a)"><path fill="none" stroke="#000" stroke-miterlimit="10" stroke-opacity=".5" stroke-width=".39815" d="M.39454 142.01953h396.50388M.39454 85.375h396.50388M.39454 28.73438h396.50388M28.71876 170.33984V.41016m56.64062 169.92968V.41016m56.64453 169.92968V.41016m56.64453 169.92968V.41016m56.64062 169.92968V.41016m56.64453 169.92968V.41016m56.64452 169.92968V.41016"/></g><path fill="none" stroke="#000" stroke-miterlimit="10" stroke-opacity=".5" stroke-width=".39815" d="M28.71876 71.21485v28.3203"/><g fill-opacity=".5"><use xlink:href="#b" x="18.20184" y="105.16249"/><use xlink:href="#c" x="30.31364" y="105.16249"/></g><path fill="none" stroke="#000" stroke-miterlimit="10" stroke-opacity=".5" stroke-width=".39815" d="M85.35938 71.21485v28.3203"/><g fill-opacity=".5"><use xlink:href="#b" x="74.84456" y="105.2614"/><use xlink:href="#d" x="86.95635" y="105.2614"/></g><path fill="none" stroke="#000" stroke-miterlimit="10" stroke-opacity=".5" stroke-width=".39815" d="M142.00391 71.21485v28.3203"/><g fill-opacity=".5"><use xlink:href="#b" x="131.48728" y="105.2614"/><use xlink:href="#e" x="143.59907" y="105.2614"/></g><path fill="none" stroke="#000" stroke-miterlimit="10" stroke-opacity=".5" stroke-width=".39815" d="M255.28906 71.21485v28.3203"/><use xlink:href="#e" x="250.82833" y="105.2614" fill-opacity=".5"/><path fill="none" stroke="#000" stroke-miterlimit="10" stroke-opacity=".5" stroke-width=".39815" d="M311.93359 71.21485v28.3203"/><use xlink:href="#d" x="307.47105" y="105.2614" fill-opacity=".5"/><path fill="none" stroke="#000" stroke-miterlimit="10" stroke-opacity=".5" stroke-width=".39815" d="M368.57811 71.21485v28.3203"/><use xlink:href="#c" x="364.11377" y="105.16249" fill-opacity=".5"/><path fill="none" stroke="#000" stroke-miterlimit="10" stroke-opacity=".5" stroke-width=".39815" d="M212.8086 142.01953h-28.32032"/><g fill-opacity=".5"><use xlink:href="#b" x="168.30459" y="147.74369"/><use xlink:href="#e" x="180.41639" y="147.74369"/></g><path fill="none" stroke="#000" stroke-miterlimit="10" stroke-opacity=".5" stroke-width=".39815" d="M212.8086 28.73438h-28.32032"/><use xlink:href="#e" x="174.36122" y="34.45826" fill-opacity=".5"/><path fill="none" stroke="#000" stroke-miterlimit="10" stroke-opacity=".5" stroke-width=".39815" d="M198.64844 71.21485v28.3203"/><use xlink:href="#f" x="174.36022" y="110.82746" fill-opacity=".5"/><path fill="none" stroke="#000" stroke-miterlimit="10" stroke-width=".7963" d="M.39454 85.375h390.33201"/><path d="M394.88672 85.375c-.50781-.10547-2.7539-.70703-4.16016-1.36328v2.72656c1.40625-.65234 3.65235-1.25781 4.16016-1.36328m0 0"/><g clip-path="url(#g)"><path fill="none" stroke="#000" stroke-miterlimit="10" stroke-width=".7963" d="M394.88672 85.375c-.50781-.10547-2.7539-.70703-4.16016-1.36328v2.72656c1.40625-.65234 3.65235-1.25781 4.16016-1.36328Zm0 0"/></g><g clip-path="url(#h)"><path fill="none" stroke="#000" stroke-miterlimit="10" stroke-width=".7963" d="M198.64844 170.33984V6.58204"/></g><path d="M198.64844 2.42188c-.10547.51171-.70703 2.7578-1.36328 4.16015h2.72656c-.65625-1.40234-1.25781-3.64844-1.36328-4.16015m0 0"/><g clip-path="url(#i)"><path fill="none" stroke="#000" stroke-miterlimit="10" stroke-width=".7963" d="M198.64844 2.42188c-.10547.51171-.70703 2.7578-1.36328 4.16015h2.72656c-.65625-1.40234-1.25781-3.64844-1.36328-4.16015Zm0 0"/></g><g clip-path="url(#j)"><path fill="none" stroke="#007F7F" stroke-miterlimit="10" stroke-width=".7963" d="M.39454 127.85937S57.85548 101.09375 85.35938 85.375c27.50781-15.71875 81.85156-70.80468 113.28906-70.80468S284.42578 69.65625 311.93359 85.375c27.5078 15.71875 84.96483 42.48437 84.96483 42.48437"/></g><use xlink:href="#k" x="247.86796" y="17.44236" fill="#007F7F"/><use xlink:href="#l" x="263.13641" y="21.82247" fill="#007F7F"/><g clip-path="url(#m)"><path fill="none" stroke="#FF7F00" stroke-miterlimit="10" stroke-width=".7963" d="M.39454.41016S114.4961 16.94532 142.00391 28.73438c27.50781 11.78515 40.92578 40.92187 56.64453 56.64062s29.13671 44.85547 56.64062 56.64453c27.5078 11.78906 141.60936 28.3203 141.60936 28.3203"/></g><use xlink:href="#k" x="194.70615" y="141.37734" fill="#FF7F00"/><use xlink:href="#n" x="209.9766" y="145.75546" fill="#FF7F00"/></svg>