<svg xmlns="http://www.w3.org/2000/svg" xmlns:xlink="http://www.w3.org/1999/xlink" width="143.757pt" height="144.609pt" viewBox="0 0 143.757 144.609"><defs><path id="b" d="M.4375-3.51562C.4375-1.40625 1.04688.125 2.78125.125c1.73438 0 2.35938-1.53125 2.35938-3.64062 0-2.09375-.625-3.625-2.35938-3.625S.4375-5.60937.4375-3.51562m1.0625 0c0-1.70313.28125-3.25 1.28125-3.25s1.28125 1.54687 1.28125 3.25C4.0625-1.79687 3.78125-.25 2.78125-.25S1.5-1.79687 1.5-3.51562m0 0"/><path id="c" d="M1.14063 0h3.45312v-.29687L3.70313-.375c-.21875-.03125-.34375-.10937-.34375-.51562v-6.1875l-.04688-.0625-2.17187.375v.25l.98437.125c.17188.01562.25.09375.25.40625v5.09375c0 .40625-.10937.48437-.35937.51562l-.875.07813Zm0 0"/><path id="d" d="M.28125-.09375.39063 0h4.34375l.35937-1.39062-.29687-.04688c-.21875.5625-.42188.64063-.85938.64063H1.26563c.17187-.54688.79687-1.29688 1.76562-2 1-.73438 1.78125-1.20313 1.78125-2.375 0-1.46875-.96875-1.96875-2.07812-1.96875-1.4375 0-2.17188.875-2.17188 1.42187 0 .35938.39063.53125.57813.53125s.25-.125.29687-.29687c.17188-.71875.57813-1.28125 1.23438-1.28125.79687 0 1.03125.67187 1.03125 1.4375 0 1.125-.5625 1.76562-1.48438 2.5625C.92188-1.625.48438-.92187.28125-.09375m0 0"/><path id="e" d="M.28125-1.07812C.28125-.625 1 .125 2.48438.125c1.53125 0 2.48437-.76562 2.48437-2.10937 0-1.40625-1.20312-1.82813-1.78125-1.875v-.04688C3.75-4 4.65625-4.42187 4.65625-5.46875c0-1.15625-.90625-1.67187-2.03125-1.67187-1.39062 0-2.0625.8125-2.0625 1.25 0 .32812.35938.5.51563.5.125 0 .20312-.07813.25-.20313.23437-.71875.625-1.17187 1.21875-1.17187.82812 0 1.04687.71875 1.04687 1.3125 0 .625-.23437 1.42187-1.125 1.42187-.5 0-.79687-.10937-.92187-.10937s-.1875.10937-.1875.29687c0 .17188.0625.29688.1875.29688s.42187-.10938.92187-.10938c.89063 0 1.39063.8125 1.39063 1.71875C3.85938-.6875 3.25-.25 2.5-.25c-.6875 0-1.14062-.51562-1.34375-1.10937-.07812-.1875-.17187-.29688-.3125-.29688-.20312 0-.5625.20313-.5625.57813m0 0"/><path id="h" d="M.39063-5.82812C.39063-4.8125 1.40625-4 3.73438-4c-.375.6875-.67188 1.39063-.67188 2.15625 0 1.28125.8125 1.98438 2.28125 1.98438 1.42188 0 2.92188-1.03125 2.92188-2.35938 0-.79687-.65625-1.23437-1.5-1.23437-.92188 0-2 1.03125-2 1.84375 0 .25.1875.73437.53125.73437.10937 0 .25-.07812.25-.1875 0-.15625-.28125-.17187-.28125-.53125 0-.5625.82812-1.48437 1.5-1.48437.46875 0 .76562.1875.76562.64062 0 1.03125-1 2.20313-2.1875 2.20313-.84375 0-1.28125-.46875-1.28125-1.23438 0-.85937.60938-1.89062 1.0625-2.625 2.59375-.40625 5.14063-1.6875 5.14063-3.3125 0-.625-.48438-1.03125-1.15625-1.03125-1.54688 0-3.875 1.98438-5.14063 4.03125-1.0625-.01562-2.78125-.04687-2.78125-1.28125 0-1.14062 1.39063-2.03125 2.26563-2.03125.15625 0 .25-.09375.25-.1875 0-.10937-.09375-.1875-.1875-.1875-1.29688 0-3.125.89063-3.125 2.26563M5.35938-4.5625c.85937-1.5 2.67187-3.5 3.75-3.5.40625 0 .6875.23438.6875.625 0 1.29688-2.04688 2.5-4.4375 2.875m0 0"/><path id="i" d="M.89063 0H3.625v-.25l-.65625-.0625c-.1875-.01562-.26562-.07812-.26562-.375v-4.82812l-.04688-.03125L.89063-5.25v.21875l.70312.09375c.15625.01563.21875.07813.21875.32813V-.6875c0 .29688-.07812.35938-.28125.375L.89063-.25Zm0 0"/><path id="k" d="M.23438-.09375.32813 0h3.45312l.29688-1.17187-.23438-.03126c-.1875.4375-.34375.48438-.67187.48438H1.07813c.14062-.39062.57812-.9375 1.35937-1.46875.82813-.54687 1.42188-.9375 1.42188-1.82812 0-1.14063-.78125-1.53125-1.67188-1.53125-1.125 0-1.75.64062-1.75 1.14062 0 .28125.32813.42188.51563.42188.15624 0 .23437-.07813.26562-.23438.125-.57812.4375-1.03125.90625-1.03125.57813 0 .76563.5.76563 1.09375 0 .78125-.35938 1.3125-1.125 1.96875C.71875-1.29687.35938-.70312.23438-.09375m0 0"/><path id="m" d="M.21875-.875c0 .34375.54688.96875 1.78125.96875 1.21875 0 1.96875-.59375 1.96875-1.625 0-1.125-.96875-1.40625-1.375-1.45312v-.03125c.4375-.07813 1.14063-.40625 1.14063-1.20313 0-.95312-.78125-1.32812-1.65625-1.32812-1.03125 0-1.64063.57812-1.64063 1 0 .26562.3125.42187.45313.42187.125 0 .1875-.07812.23437-.20312.1875-.57813.46875-.92188.90625-.92188.60938 0 .75.57813.75 1.01563 0 .42187-.125 1.09375-.79687 1.09375-.375 0-.625-.07813-.73438-.07813-.125 0-.17187.09375-.17187.25s.04687.25.17187.25c.10938 0 .35938-.09375.73438-.09375C2.60938-2.8125 3-2.28125 3-1.5 3-.5625 2.5625-.20312 2-.20312c-.48437 0-.82812-.375-1-.90625-.04687-.15626-.14062-.25-.26562-.25-.1875 0-.51563.17187-.51563.48437m0 0"/><clipPath id="a"><path d="M1 0h142.4414v142H1Zm0 0"/></clipPath><clipPath id="f"><path d="M125 111h18.4414v26H125Zm0 0"/></clipPath><clipPath id="g"><path d="M19.36328.39453h123.6836V136H19.36328Zm0 0"/></clipPath><clipPath id="j"><path d="M19.36328.39453h123.6836V136H19.36328Zm0 0"/></clipPath><clipPath id="l"><path d="M19.36328.39453h123.6836V136H19.36328Zm0 0"/></clipPath></defs><g clip-path="url(#a)"><path fill="none" stroke="#000" stroke-miterlimit="10" stroke-opacity=".5" stroke-width=".39742" d="M1.69532 124.07812h141.3515M1.69532 88.7422h141.3515M1.69532 53.40238h141.3515M1.69532 18.06645h141.3515M19.36328 141.7461V.39459m35.33983 141.3515V.39459m35.33592 141.3515V.39459m35.33983 141.3515V.39459"/></g><path fill="none" stroke="#000" stroke-miterlimit="10" stroke-opacity=".5" stroke-width=".39742" d="M19.36328 115.2422v17.67186"/><use xlink:href="#b" x="4.21246" y="139.95658" fill-opacity=".5"/><path fill="none" stroke="#000" stroke-miterlimit="10" stroke-opacity=".5" stroke-width=".39742" d="M54.7031 115.2422v17.67186"/><use xlink:href="#c" x="51.91747" y="136.48397" fill-opacity=".5"/><path fill="none" stroke="#000" stroke-miterlimit="10" stroke-opacity=".5" stroke-width=".39742" d="M90.03903 115.2422v17.67186"/><use xlink:href="#d" x="87.25592" y="136.48397" fill-opacity=".5"/><path fill="none" stroke="#000" stroke-miterlimit="10" stroke-opacity=".5" stroke-width=".39742" d="M125.37886 115.2422v17.67186"/><use xlink:href="#e" x="122.59337" y="136.42313" fill-opacity=".5"/><path fill="none" stroke="#000" stroke-miterlimit="10" stroke-width=".79486" d="M1.69532 124.07812h135.19135"/><path d="M141.03906 124.07813c-.51172-.10547-2.75-.70704-4.15234-1.35938v2.71875c1.40234-.65234 3.64062-1.2539 4.15234-1.35937m0 0"/><g clip-path="url(#f)"><path fill="none" stroke="#000" stroke-miterlimit="10" stroke-width=".79486" d="M141.03906 124.07812c-.51172-.10546-2.75-.70703-4.15234-1.35937v2.71875c1.40234-.65234 3.64062-1.2539 4.15234-1.35938Zm0 0"/></g><path fill="none" stroke="#000" stroke-miterlimit="10" stroke-opacity=".5" stroke-width=".39742" d="M28.19921 88.7422H10.52735"/><use xlink:href="#c" x="4.21246" y="92.3124" fill-opacity=".5"/><path fill="none" stroke="#000" stroke-miterlimit="10" stroke-opacity=".5" stroke-width=".39742" d="M28.19921 53.40238H10.52735"/><use xlink:href="#d" x="4.21246" y="56.97495" fill-opacity=".5"/><path fill="none" stroke="#000" stroke-miterlimit="10" stroke-opacity=".5" stroke-width=".39742" d="M28.19921 18.06645H10.52735"/><use xlink:href="#e" x="4.21246" y="21.57566" fill-opacity=".5"/><path fill="none" stroke="#000" stroke-miterlimit="10" stroke-width=".79486" d="M19.36328 141.74609V6.55474"/><path stroke="#000" stroke-miterlimit="10" stroke-width=".79486" d="M19.36328 2.40235c-.10547.51171-.70703 2.7539-1.35937 4.15234h2.71875c-.65235-1.39844-1.25391-3.64063-1.35938-4.15234Zm0 0"/><g clip-path="url(#g)"><path fill="none" stroke="#007F7F" stroke-miterlimit="10" stroke-width=".79486" d="m19.36328 124.07812 5.15234-5.15234c1.42969-1.42968 3.72266-3.72265 5.15625-5.15234 1.42969-1.42968 3.72265-3.72656 5.15234-5.15625l5.15234-5.15234 5.15234-5.15234 5.15235-5.15234c1.43359-1.42969 3.72656-3.72265 5.15624-5.15625l5.15234-5.15234 5.15235-5.15234 5.15234-5.15234c1.4336-1.42969 3.72656-3.72266 5.15625-5.15625l5.15234-5.15234 5.15234-5.15234 5.15234-5.15234c1.42969-1.4297 3.72656-3.72266 5.15625-5.15235 1.42968-1.43359 3.72265-3.72656 5.15234-5.15624l10.30468-10.30469c1.42969-1.42968 3.72266-3.72265 5.15625-5.15234 1.42969-1.42968 3.72265-3.72656 5.15234-5.15625l5.15234-5.15234 5.15234-5.15234c1.4297-1.42969 3.72266-3.72265 5.15625-5.15234 1.42969-1.42969 5.15234-5.15625 5.15234-5.15625"/></g><use xlink:href="#h" x="110.32754" y="50.32294" fill="#007F7F"/><use xlink:href="#i" x="119.85428" y="53.05555" fill="#007F7F"/><g clip-path="url(#j)"><path fill="none" stroke="#FF7F00" stroke-miterlimit="10" stroke-width=".79486" d="M19.36328 124.07812s3.72266-.33203 5.15234-.75c1.42969-.41796 3.72266-1.42187 5.15625-2.2539 1.42969-.83594 3.72265-2.50781 5.15234-3.75781 1.42969-1.2539 3.72266-3.59375 5.15234-5.26172 1.42969-1.66797 3.72266-4.67968 5.15234-6.76171 1.4297-2.08594 3.72266-5.76563 5.15235-8.26953 1.43359-2.5 3.72656-6.84765 5.15624-9.76953 1.42969-2.91796 3.72266-7.93359 5.15234-11.26952 1.4297-3.33594 3.72266-9.02344 5.15235-12.77734 1.42968-3.7539 3.72265-10.10547 5.15234-14.27734 1.4336-4.17187 3.72656-11.1953 5.15625-15.78124 1.42968-4.58984 3.72265-12.28125 5.15234-17.28515s3.72265-13.36328 5.15234-18.78515 3.72265-14.45312 5.15234-20.29296 3.72656-15.53515 5.15625-21.79296c1.42968-6.2539 3.72265-16.62108 5.15234-23.29686 1.42969-6.67187 3.72265-17.70702 5.15234-24.79686 1.42969-7.08985 3.72265-18.79687 5.15234-26.30468s3.72266-19.8789 5.15625-27.80468c1.42969-7.92187 3.72265-20.96483 5.15234-29.30858 1.42969-8.33984 3.72266-22.05077 5.15234-30.80858 1.42969-8.76171 3.72266-23.14061 5.15234-32.31639 1.4297-9.17578 3.72266-24.22264 5.15625-33.81639 1.42969-9.59374 5.15234-35.3203 5.15234-35.3203"/></g><use xlink:href="#h" x="88.06573" y="19.84634" fill="#FF7F00"/><use xlink:href="#k" x="97.59247" y="22.57895" fill="#FF7F00"/><g clip-path="url(#l)"><path fill="none" stroke="#EC008C" stroke-miterlimit="10" stroke-width=".79486" d="M19.36328 124.07812s3.72266.01172 5.15234-.10937c1.42969-.1211 3.72266-.3711 5.15625-.76562 1.42969-.39454 3.72265-1.23047 5.15234-2.08204 1.42969-.85156 3.72266-2.5664 5.15234-4.05468 1.42969-1.49219 3.72266-4.375 5.15234-6.6875 1.4297-2.30859 3.72266-6.65624 5.15235-9.97265 1.43359-3.3125 3.72656-9.41406 5.15624-13.91796 1.42969-4.5 3.72266-12.64843 5.15234-18.51952 1.4297-5.86719 3.72266-16.35937 5.15235-23.78124 1.42968-7.41797 3.72265-20.54296 5.15234-29.69921 1.4336-9.15234 3.72656-25.20311 5.15625-36.27342 1.42968-11.0664 3.72265-30.33983 5.15234-43.50389 1.42968-13.16796 3.72265-35.9492 5.15234-51.39841s3.72265-42.03514 5.15234-59.94529 3.72656-48.59373 5.15625-69.15231c1.42968-20.55468 3.72265-55.62498 5.15234-79.01168 1.42969-23.38671 3.72265-63.1367 5.15234-89.53512 1.42969-26.39452 3.72265-71.12106 5.15234-100.7109 1.42969-29.58982 3.72266-79.58199 5.15625-112.54682 1.42969-32.96483 3.72265-88.51949 5.15234-125.0429 1.42969-36.52343 3.72266-97.92575 5.15234-138.19135 1.42969-40.2617 3.72266-107.81245 5.15234-151.99993 1.4297-44.18358 3.72266-118.17183 5.15625-166.46477 1.42969-48.29295 5.15234-181.58977 5.15234-181.58977"/></g><use xlink:href="#h" x="52.24259" y="14.63443" fill="#EC008C"/><use xlink:href="#m" x="61.76809" y="17.36704" fill="#EC008C"/></svg>