<svg xmlns="http://www.w3.org/2000/svg" xmlns:xlink="http://www.w3.org/1999/xlink" width="153.308pt" height="155.057pt" viewBox="0 0 153.308 155.057"><defs><path id="b" d="M.5-4.04687C.5-1.625 1.21875.14063 3.21875.14063S5.92188-1.625 5.92188-4.04687s-.70313-4.1875-2.70313-4.1875S.5-6.46875.5-4.04687m1.21875 0c0-1.96875.35938-3.75 1.5-3.75 1.14063 0 1.46875 1.78125 1.46875 3.75S4.35938-.28125 3.21875-.28125c-1.14062 0-1.5-1.79687-1.5-3.76562m0 0"/><path id="h" d="M.40625-6.03125c0 1.04688 1.04688 1.89063 3.46875 1.89063-.40625.70312-.6875 1.4375-.6875 2.23437 0 1.32813.82813 2.04688 2.34375 2.04688 1.48438 0 3.03125-1.0625 3.03125-2.4375 0-.82813-.6875-1.28125-1.54687-1.28125-.95313 0-2.07813 1.0625-2.07813 1.92187 0 .25.20313.73438.5625.73438.09375 0 .25-.0625.25-.1875 0-.15626-.29687-.17188-.29687-.53125 0-.59375.875-1.54688 1.5625-1.54688.48437 0 .78125.1875.78125.65625C7.79688-1.45312 6.76563-.25 5.53125-.25c-.875 0-1.32812-.46875-1.32812-1.26562 0-.90625.64062-1.95313 1.10937-2.73438 2.70313-.40625 5.32813-1.73437 5.32813-3.42187 0-.64063-.51563-1.0625-1.20313-1.0625-1.59375 0-4 2.04687-5.32812 4.15625-1.09375 0-2.875-.03125-2.875-1.3125C1.23438-7.07812 2.67188-8 3.57813-8c.17187 0 .26562-.09375.26562-.20312 0-.09375-.09375-.17188-.20312-.17188-1.34375 0-3.23438.90625-3.23438 2.34375m5.15625 1.3125c.89063-1.5625 2.76563-3.64062 3.875-3.64062.42188 0 .71875.25.71875.64062 0 1.35938-2.125 2.59375-4.59375 3m0 0"/><path id="c" d="M1.1875 0h3.57813v-.3125l-.92188-.07812C3.60938-.42187 3.48438-.5 3.48438-.92187v-6.42188l-.0625-.04687-2.23438.375V-6.75l1.01563.125c.1875.03125.25.10938.25.42188v5.28125c0 .42187-.10938.5-.35938.53125L1.1875-.3125Zm0 0"/><path id="d" d="M.29688-.10937.42188 0h4.5l.375-1.4375-.3125-.0625c-.21875.59375-.45313.67188-.89063.67188H1.3125c.1875-.5625.82813-1.34375 1.84375-2.0625C4.1875-3.65625 5-4.14062 5-5.35937 5-6.875 4-7.39062 2.84375-7.39062c-1.48437 0-2.25.89062-2.25 1.46875 0 .35937.40625.53125.59375.53125.20313 0 .26563-.10938.3125-.29688.17188-.73437.60938-1.32812 1.28125-1.32812.82813 0 1.07813.6875 1.07813 1.5 0 1.15625-.59375 1.82812-1.54688 2.65625C.96875-1.6875.51563-.95312.29688-.10937m0 0"/><path id="e" d="M.29688-1.10937c0 .46875.75 1.23437 2.29687 1.23437 1.57813 0 2.5625-.79687 2.5625-2.1875 0-1.45312-1.25-1.89062-1.84375-1.9375v-.04687c.59375-.09375 1.53125-.53125 1.53125-1.60938 0-1.20312-.9375-1.73437-2.10937-1.73437-1.4375 0-2.14063.82812-2.14063 1.28125 0 .34375.375.53125.53125.53125.14063 0 .21875-.07813.26563-.21875.23437-.75.64062-1.21875 1.26562-1.21875.85938 0 1.07813.75 1.07813 1.35937C3.73438-5 3.5-4.1875 2.57813-4.1875c-.53125 0-.82813-.09375-.95313-.09375-.14062 0-.20312.09375-.20312.29688 0 .1875.0625.29687.20312.29687.125 0 .42188-.09375.95313-.09375.92187 0 1.4375.82813 1.4375 1.78125 0 1.29688-.64063 1.75-1.40625 1.75-.71875 0-1.20313-.53125-1.40625-1.15625-.0625-.20312-.17188-.3125-.32813-.3125-.1875 0-.57812.21875-.57812.60938m0 0"/><path id="i" d="M.92188 0h2.84375v-.26562l-.6875-.0625c-.1875-.01563-.28125-.07813-.28125-.39063v-5L2.75-5.76562l-1.82812.3125v.21875l.73437.10937c.17188.01563.21875.07813.21875.34375v4.0625c0 .3125-.07812.375-.28125.39063l-.67187.0625Zm0 0"/><path id="k" d="M.25-.09375.34375 0H3.9375l.29688-1.20312-.25-.04688c-.20313.45313-.34375.51563-.6875.51563H1.125c.14063-.40625.59375-.98438 1.40625-1.53125C3.39063-2.84375 4-3.23437 4-4.17187c0-1.17188-.79687-1.59375-1.73437-1.59375-1.15625 0-1.8125.67187-1.8125 1.1875 0 .3125.34375.45312.53125.45312.15624 0 .23437-.09375.28124-.25.125-.60937.45313-1.07812.9375-1.07812C2.79688-5.45312 3-4.9375 3-4.3125 3-3.5 2.625-2.95312 1.82813-2.26562.75-1.34375.375-.73437.25-.09375m0 0"/><path id="m" d="M.23438-.90625c0 .35938.5625 1 1.84375 1 1.25 0 2.04687-.60937 2.04687-1.6875 0-1.15625-1-1.46875-1.4375-1.5v-.04687C3.14063-3.21875 3.875-3.54687 3.875-4.375c0-1-.8125-1.39062-1.71875-1.39062-1.07812 0-1.70312.60937-1.70312 1.04687 0 .28125.32812.4375.46875.4375s.20312-.07812.25-.20312c.1875-.59375.48437-.96875.9375-.96875.625 0 .78125.60937.78125 1.04687C2.89063-3.95312 2.75-3.25 2.0625-3.25c-.39062 0-.64062-.09375-.76562-.09375-.14063 0-.17188.09375-.17188.26563 0 .15625.03125.25.17188.25.125 0 .375-.07813.76562-.07813.64063 0 1.04688.53125 1.04688 1.34375 0 .96875-.45313 1.34375-1.03125 1.34375-.51563 0-.85938-.39062-1.04688-.9375-.04687-.15625-.14062-.25-.28125-.25-.1875 0-.51562.1875-.51562.5m0 0"/><clipPath id="a"><path d="M23 0h129.5v129H23Zm0 0"/></clipPath><clipPath id="f"><path d="M134 116h18.5v26H134Zm0 0"/></clipPath><clipPath id="g"><path d="M23.90625.39453h128.19922V140H23.90625Zm0 0"/></clipPath><clipPath id="j"><path d="M23.90625.39453h128.19922V140H23.90625Zm0 0"/></clipPath><clipPath id="l"><path d="M23.90625.39453h128.19922V140H23.90625Zm0 0"/></clipPath></defs><g clip-path="url(#a)"><path fill="none" stroke="#7f7f7f" stroke-dasharray=".39609306 .9902624688" stroke-miterlimit="10" stroke-width=".39609" d="M23.90625 128.59375h128.1992m-128.1992-36.6289h128.1992m-128.1992-36.6289h128.1992m-128.1992-36.6289h128.1992m-128.1992 109.8867V.39455m36.6289 128.1992V.39455m36.6289 128.1992V.39455m36.6289 128.1992V.39455"/></g><use xlink:href="#b" x="7.86932" y="145.45539" fill="#7f7f7f"/><path fill="none" stroke="#7f7f7f" stroke-miterlimit="10" stroke-width=".39609" d="M60.53515 119.4375V137.75"/><use xlink:href="#c" x="57.63964" y="149.70157" fill="#7f7f7f"/><path fill="none" stroke="#7f7f7f" stroke-miterlimit="10" stroke-width=".39609" d="M97.16405 119.4375V137.75"/><use xlink:href="#d" x="94.26689" y="149.70157" fill="#7f7f7f"/><path fill="none" stroke="#7f7f7f" stroke-miterlimit="10" stroke-width=".39609" d="M133.79295 119.4375V137.75"/><use xlink:href="#e" x="130.89413" y="149.70157" fill="#7f7f7f"/><path fill="none" stroke="#000" stroke-miterlimit="10" stroke-width=".7922" d="M5.59375 128.59375h140.37108"/><path d="M150.10547 128.59375c-.50781-.10547-2.74219-.70703-4.14063-1.35547v2.71094c1.39844-.65234 3.63282-1.25 4.14063-1.35547m0 0"/><g clip-path="url(#f)"><path fill="none" stroke="#000" stroke-miterlimit="10" stroke-width=".7922" d="M150.10547 128.59375c-.50781-.10547-2.74219-.70703-4.14063-1.35547v2.71094c1.39844-.65235 3.63282-1.25 4.14063-1.35547Zm0 0"/></g><path fill="none" stroke="#7f7f7f" stroke-miterlimit="10" stroke-width=".39609" d="M33.0664 91.96485H14.75"/><use xlink:href="#c" x="4.41036" y="95.66719" fill="#7f7f7f"/><path fill="none" stroke="#7f7f7f" stroke-miterlimit="10" stroke-width=".39609" d="M33.0664 55.33595H14.75"/><use xlink:href="#d" x="4.41036" y="59.03994" fill="#7f7f7f"/><path fill="none" stroke="#7f7f7f" stroke-miterlimit="10" stroke-width=".39609" d="M33.0664 18.70705H14.75"/><use xlink:href="#e" x="4.41036" y="22.34809" fill="#7f7f7f"/><path fill="none" stroke="#000" stroke-miterlimit="10" stroke-width=".7922" d="M23.90625 146.90625V6.53517"/><path stroke="#000" stroke-miterlimit="10" stroke-width=".7922" d="M23.90625 2.39453c-.10547.50781-.70313 2.74219-1.35547 4.14063h2.71484c-.65234-1.39844-1.2539-3.63282-1.35937-4.14063Zm0 0"/><g clip-path="url(#g)"><path fill="none" stroke="#007f7f" stroke-miterlimit="10" stroke-width=".7922" d="M23.90625 128.59375 29.25 123.25l5.33984-5.33984c1.48438-1.48047 3.85938-3.85938 5.34375-5.33985 1.48047-1.48437 3.85938-3.85937 5.33984-5.34374l5.33985-5.33985 5.34375-5.34375 5.33984-5.33984c1.48437-1.48047 3.85937-3.85937 5.34375-5.33984 1.48047-1.48438 3.85937-3.85938 5.33984-5.34375l5.33985-5.33985 5.34375-5.34374 5.33984-5.33985c1.48437-1.48047 3.85937-3.85937 5.34375-5.33984 1.48047-1.48438 3.85937-3.85938 5.33984-5.34375l10.6836-10.6836 5.33984-5.33984c1.48437-1.48437 3.85937-3.85937 5.34375-5.33984 1.48046-1.48437 3.85937-3.85937 5.33984-5.34375 1.48437-1.48047 3.85937-3.85937 5.33984-5.33984l5.34375-5.34375 5.33984-5.33984c1.48438-1.48438 3.85938-3.85938 5.34375-5.33985 1.48047-1.48437 5.33985-5.34375 5.33985-5.34375"/></g><use xlink:href="#h" x="118.19337" y="52.14487" fill="#007f7f"/><use xlink:href="#i" x="128.06663" y="54.97725" fill="#007f7f"/><g clip-path="url(#j)"><path fill="none" stroke="#ff7f00" stroke-miterlimit="10" stroke-width=".7922" d="M23.90625 128.59375s3.85937-.34766 5.34375-.78125c1.48047-.42969 3.85937-1.46875 5.33984-2.33594 1.48438-.86328 3.85938-2.59765 5.34375-3.89453 1.48047-1.29687 3.85938-3.72265 5.33984-5.45312 1.48047-1.72656 3.85938-4.84766 5.33985-7.00781 1.48437-2.16407 3.85937-5.97656 5.34375-8.57032 1.48047-2.59374 3.85937-7.09765 5.33984-10.125 1.48437-3.02734 3.85937-8.22656 5.34375-11.68359 1.48047-3.45703 3.85937-9.35156 5.33984-13.24218s3.85938-10.47656 5.33985-14.80078c1.48437-4.32031 3.85937-11.60156 5.34375-16.35547 1.48046-4.75781 3.85937-12.73046 5.33984-17.91796 1.48437-5.1875 3.85937-13.85156 5.34375-19.47266 1.48047-5.6211 3.85937-14.97656 5.33984-21.03124 1.48047-6.05079 3.85937-16.10547 5.33984-22.58985 1.48438-6.48437 3.85938-17.22656 5.34375-24.14452 1.48047-6.91797 3.85938-18.35547 5.33985-25.70313 1.48437-7.35156 3.85937-19.48437 5.34375-27.26562 1.48046-7.78125 3.85937-20.60546 5.33984-28.8203 1.48437-8.21094 3.85937-21.73047 5.33984-30.3789 1.48438-8.64454 3.85938-22.85547 5.34375-31.9336 1.48047-9.07812 3.85937-23.98437 5.33984-33.49609 1.48438-9.5078 3.85938-25.10937 5.34375-35.05077 1.48047-9.9414 5.33985-36.60937 5.33985-36.60937"/></g><use xlink:href="#h" x="95.1187" y="20.55599" fill="#ff7f00"/><use xlink:href="#k" x="104.99196" y="23.38836" fill="#ff7f00"/><g clip-path="url(#l)"><path fill="none" stroke="#ec008c" stroke-miterlimit="10" stroke-width=".7922" d="M23.90625 128.59375s3.85937.01172 5.34375-.11328c1.48047-.1289 3.85937-.38672 5.33984-.79688 1.48438-.41015 3.85938-1.27343 5.34375-2.15625 1.48047-.8828 3.85938-2.66015 5.33984-4.20312 1.48047-1.54297 3.85938-4.53516 5.33985-6.92969 1.48437-2.39453 3.85937-6.90234 5.34375-10.33593 1.48047-3.4375 3.85937-9.76172 5.33984-14.42578 1.48437-4.66406 3.85937-13.11328 5.34375-19.19922 1.48047-6.08203 3.85937-16.95703 5.33984-24.64843s3.85938-21.29297 5.33985-30.78125c1.48437-9.48828 3.85937-26.125 5.34375-37.59765 1.48046-11.47656 3.85937-31.44921 5.33984-45.09765 1.48437-13.64844 3.85937-37.26172 5.34375-53.27343 1.48047-16.01172 3.85937-43.5664 5.33984-62.1328s3.85937-50.36719 5.33984-71.67578c1.48438-21.30859 3.85938-57.66015 5.34375-81.89842 1.48047-24.23828 3.85938-65.4414 5.33985-92.80077 1.48437-27.35938 3.85937-73.72265 5.34375-104.39062 1.48046-30.66796 3.85937-82.48827 5.33984-116.65623 1.48437-34.16796 3.85937-91.74999 5.33984-129.60545 1.48438-37.85937 3.85938-101.5039 5.34375-143.23827 1.48047-41.73436 3.85937-111.74998 5.33984-157.55076 1.48438-45.79687 3.85938-122.48826 5.34375-172.54294 1.48047-50.05468 5.33985-188.21873 5.33985-188.21873"/></g><use xlink:href="#h" x="57.98752" y="15.15285" fill="#ec008c"/><use xlink:href="#m" x="67.86078" y="17.98522" fill="#ec008c"/></svg>