<svg xmlns="http://www.w3.org/2000/svg" xmlns:xlink="http://www.w3.org/1999/xlink" width="487.958pt" height="113.784pt" viewBox="0 0 487.958 113.784"><defs><path id="e" d="M-.20312-12.23437c.95312.04687 1.17187.15625 1.4375.95312L5 0h2.35938l2.23437-6.53125c.6875-2.04687 1.34375-3.85937 1.625-4.59375.375-.89062.53125-1.03125 1.59375-1.10937v-.6875H8.46875v.6875l1.0625.09375c.375.04687.40625.21875.3125.625C9.67188-10.90625 9.25-9.34375 8.6875-7.625 8.3125-6.48437 7.5-3.73437 7.15625-2.78125H7.0625L4.25-11.45312c-.10937-.40625-.09375-.64063.34375-.6875l.89063-.09375v-.6875h-5.6875Zm0 0"/><path id="f" d="M.89063-2.5c0 1.39063.90625 2.71875 2.79687 2.71875 1.1875 0 2.01563-.64062 2.67188-1.07812.25.57812.57812 1.07812 1.48437 1.07812.96875 0 2.125-.3125 2.73438-.5625l-.01563-.60937c-.23437.01562-.65625 0-.9375-.09376-.23437-.09374-.59375-.3125-.59375-1.40624v-4.3125c0-1.17188-.15625-2.625-3.46875-2.625-2.73437 0-4.45312 1.09375-4.45312 2.3125 0 .8125 1.20312 1.17187 1.67187 1.17187.42188 0 .625-.29687.79688-.75.51562-1.59375 1.14062-1.875 1.65625-1.875.53125 0 1.04687.3125 1.04687 1.39063v1C5.625-5.6875 4.07813-5.25 2.85938-4.82812 1.39063-4.3125.89063-3.57812.89063-2.5m2.84375-.29687c0-.89063.32812-1.32813.875-1.64063.57812-.3125 1.21875-.57812 1.67187-.78125V-2.5c-.03125 1.01563-.60937 1.26563-1.125 1.26563-.73437 0-1.42187-.57813-1.42187-1.5625m0 0"/><path id="g" d="M.45313 0h5.25v-.71875c-1.0625-.0625-1.1875-.14062-1.1875-.90625V-13.75l-.15625-.10937-3.76563.5v.67187l.64063.09375c.29687.0625.4375.21875.4375.98438V-1.625c0 .76563-.14063.84375-1.21875.90625Zm0 0"/><path id="h" d="M.73438-4.57812c0 2.54687 1.10937 4.79687 4.57812 4.79687C7.53125.21875 8.75-.85937 9.39063-2.5l-.67188-.39062c-.5625 1.07812-1.35937 1.67187-2.5 1.67187-1.85937 0-2.51562-1.53125-2.51562-3.5h4.84375c.6875 0 1-.17187 1-.76562 0-1.53125-.59375-3.90625-4.20313-3.90625-3.35937 0-4.60937 2.1875-4.60937 4.8125m2.96875-1.03125c0-1.35938.35937-2.92188 1.5625-2.92188 1.14062 0 1.34375 1.4375 1.34375 2.3125 0 .51563-.14063.60938-.57813.60938Zm0 0"/><path id="i" d="m.5625-8.17187.65625.09375c.29688.04687.40625.1875.40625.9375v4.5625c0 2.1875 1.35938 2.79687 2.71875 2.79687 1.57813 0 2.5625-.85937 3.3125-1.26562L7.8125 0h3.89063v-.71875C10.625-.78125 10.5-.85937 10.5-1.625v-7.64062l-.15625-.125-3.78125.54687v.67188l.65625.09375c.29688.04687.4375.1875.4375.9375v3.95312c0 .32813-.01562.78125-.14062 1.0625-.17188.4375-.67188.875-1.48438.875-1 0-1.57812-.57812-1.57812-2.03125v-5.98437l-.14063-.125-3.75.54687Zm0 0"/><path id="j" d="M.59375 0H6.25v-.71875C4.8125-.79687 4.60938-.85937 4.60938-1.625v-4.15625c0-.98437.1875-1.4375.64062-1.4375.29688 0 .57813.15625 1 .39063.23438.1875.5.29687.84375.29687.39063 0 .76563-.1875.96875-.46875.1875-.28125.29688-.65625.29688-1.07812 0-.79688-.51563-1.3125-1.29688-1.3125s-1.375.51562-2.46875 1.65625l-.25-1.65625-3.64062.54687v.67188l.65625.09375c.29687.04687.45312.1875.45312.9375V-1.625c0 .76563-.14062.84375-1.21875.90625Zm0 0"/><path id="k" d="M.73438-4.42187c0 2.73437 1.40625 4.64062 3.78125 4.64062.70312 0 1.6875-.35937 2.70312-1.15625V0h4.01563v-.71875c-1.0625-.0625-1.20313-.14062-1.20313-.90625V-13.75l-.125-.10937-3.79687.5v.67187l.65625.09375c.29687.0625.45312.21875.45312.98438v2.45312c-.42187-.17187-.95312-.23437-1.59375-.23437-1.39062 0-2.64062.42187-3.5 1.21875-.875.8125-1.39062 2.0625-1.39062 3.75m2.96875-.375c0-2.73438 1.03125-3.73438 2.07812-3.73438.71875 0 1.09375.375 1.28125.75.17188.28125.15625.6875.15625 1.07813v3.85937c0 .75-.28125 1.625-1.46875 1.625-1.21875 0-2.04687-1.1875-2.04687-3.57812m0 0"/><path id="m" d="M.89063-4.21875 1.1875-.875C2.14063 0 4 .28125 5.23438.28125c3.73437-.04687 4.82812-2.04687 4.82812-4 0-2.46875-1.8125-3.42187-3.51562-4.14062-1.23438-.51563-2.8125-1.1875-2.8125-2.60938 0-1.17187.84375-1.89062 1.95312-1.89062 1.1875 0 2.34375.84375 2.85938 3.03125h.6875v-3.0625c-.98438-.59375-2.39063-.84375-3.53125-.84375-3.15625 0-4.65625 1.64062-4.65625 3.84375 0 2.32812 2.07812 3.32812 3.73437 4.01562 1.70313.71875 2.48438 1.5625 2.48438 2.75-.03125 1.39063-.90625 2.04688-2.10938 2.04688-1.42187 0-2.84375-1.29688-3.5625-3.64063Zm0 0"/><path id="n" d="M1.40625-11.82812c0 .89062.64063 1.64062 1.70313 1.64062 1.03125 0 1.75-.75 1.75-1.64062 0-.875-.6875-1.64063-1.75-1.64063s-1.70313.76563-1.70313 1.64063M.59375 0H5.875v-.71875C4.79688-.78125 4.60938-.85937 4.60938-1.625v-7.64062l-.09375-.125-3.8125.54687v.67188l.65625.09375c.29687.04687.45312.1875.45312.9375V-1.625c0 .76563-.14062.84375-1.21875.90625Zm0 0"/><path id="o" d="M.59375 1.79688c0 1.79687 1.95313 2.71875 4.625 2.71875.8125 0 2.15625-.15625 3.09375-.67188 1.03125-.54687 1.73438-1.51562 1.73438-2.875 0-2.23437-1.73438-2.9375-3.70313-2.9375H4.60938c-.90625 0-1.25-.29687-1.25-.64062 0-.40625.48437-.60938.73437-.67188.35938.04688.64063.01563.85938.01563 2.20312 0 4.20312-.79688 4.20312-3.01563 0-.5625-.21875-1.14062-.46875-1.45312l1.23438-.21875.375-1.42188-.17188-.1875-2.375.79688c-.60937-.35938-1.64062-.625-2.65625-.625-3.35937 0-4.35937 1.73437-4.35937 3.1875 0 1.54687 1.15625 2.48437 2.28125 2.65625V-3.5c-1.20313.29688-2 .96875-2 1.73438 0 .8125.90625 1.5625 1.73437 1.75v.03125C1.96875.20313.59375.53125.59375 1.79688m2.48438-.1875c0-.51563.25-.85938.5-1.03125.26562-.1875.84375-.28126 1.65625-.28126 1.59375 0 2.54687.35938 2.54687 1.5 0 1.32813-1.03125 1.85938-2.29687 1.85938-1.25 0-2.40625-.71875-2.40625-2.04687m.57812-7.875c0-1.59375.65625-2.26563 1.42188-2.26563.73437 0 1.40625.67188 1.40625 2.25 0 1.32813-.57813 2.15625-1.4375 2.15625-.79688 0-1.39063-.84375-1.39063-2.14062m0 0"/><path id="p" d="M.59375 0h5.01563v-.71875L5.25-.75c-.39062-.04687-.64062-.10937-.64062-.71875v-4.45312c0-.42188.07812-.84375.21875-1.09375.25-.48438.73437-.9375 1.51562-.9375.95313 0 1.45313.59375 1.5 1.70312v4.78125c0 .60938-.20312.67188-.60937.71875l-.39063.03125V0H11.875v-.71875c-1.07812-.0625-1.23437-.14062-1.23437-.90625V-6.5c-.01563-1.75-.875-2.89062-2.79688-2.89062-1.09375 0-2 .5625-3.23437 1.29687L4.375-9.39062l-3.67187.54687v.67188l.65625.09375c.29687.04687.45312.1875.45312.9375V-1.625c0 .76563-.14062.84375-1.21875.90625Zm0 0"/><path id="l" d="M.59375-.73437c0 .53125.4375.95312 1.20313.95312 1.26562 0 1.98437-1.26562 2.76562-2.53125l.75-1.23437h.03125L5.6875-2.0625C6.04688-.57812 6.39063.21875 7.34375.21875c1.375 0 2.07813-1.40625 2.64063-2.54687l-.48438-.25C9.04688-1.75 8.53125-.75 8.01563-.75c-.35938 0-.5-.42187-.92188-2.09375L6.5-5.29687c.6875-1.1875 1.64063-2.67188 2.17188-2.67188.5625 0 .57812.29688 1.14062.29688.40625 0 .79688-.40625.79688-.90625 0-.57813-.4375-.8125-.96875-.8125-.98438 0-1.82813.89062-2.48438 1.95312l-.8125 1.26563H6.3125L5.54688-9.3125l-.09375-.07812-3.09375.9375L2.40625-8 3.875-8.09375c.29688 0 .4375.14063.625.9375l.65625 2.70313-.51562.89062c-.79688 1.375-1.5 2.34375-1.95313 2.34375-.54687 0-.67187-.45312-1.28125-.45312-.46875 0-.8125.48437-.8125.9375m0 0"/><path id="q" d="M-.39062 3.4375c.01562.625.82812 1.07813 1.70312 1.07813C3.1875 4.51563 3.98438 3 4.75-.57812l1.73438-7.875h2.35937l.1875-.71875H6.60938l.51562-2.10938c.35938-1.40625.71875-1.95312 1.23438-1.95312.48437 0 .82812.42187 1.25 1.3125.09375.1875.23437.32812.51562.32812.375 0 .92188-.34375.92188-.8125 0-.79687-1.01563-1.45312-2.14063-1.45312-2.20312 0-3.125 1.54687-3.82812 4.01562l-.20313.67188H3.26563l-.21875.71875h1.67187L2.54688 2.5625c-.21875 1.15625-.42188 1.28125-.59375 1.28125-.20313 0-.5-.14062-1-.92187C.8125 2.75.70313 2.5.45313 2.5c-.40625 0-.84375.46875-.84375.9375m0 0"/><path id="r" d="M1.60938-5.26562c0 4.21875.95312 8.84375 4.92187 9V3.1875C5.1875 2.92188 3.10938 1.26563 3.10938-5.26562c0-6.51563 1.98437-8.15625 3.42187-8.45313v-.5625C2.5625-14.125 1.60938-9.48437 1.60938-5.26562m0 0"/><path id="s" d="M1.10938 3.1875v.54688c3.96875-.15625 4.92187-4.78125 4.92187-9s-.95312-8.85938-4.92187-9.01563v.5625c1.4375.29688 3.42187 1.9375 3.42187 8.45313 0 6.53125-2.07812 8.1875-3.42187 8.45312m0 0"/><path id="x" d="M1.59375-4.73437H11.875v-1.09375H1.59375Zm0 0"/><path id="y" d="M.5-1.90625c0 .79688 1.29688 2.125 3.9375 2.125 2.70313 0 4.40625-1.375 4.40625-3.76562 0-2.5-2.14062-3.23438-3.17187-3.32813v-.09375c1.01562-.15625 2.625-.90625 2.625-2.75 0-2.07812-1.60938-2.98437-3.625-2.98437C2.20313-12.70312 1-11.28125 1-10.48437c0 .57812.65625.89062.90625.89062.23438 0 .375-.125.45313-.375.42187-1.26562 1.125-2.07812 2.17187-2.07812 1.46875 0 1.85938 1.28125 1.85938 2.34375 0 1.10937-.40625 2.51562-2 2.51562-.89063 0-1.40625-.17187-1.625-.17187-.23438 0-.34375.17187-.34375.51562 0 .3125.10937.51563.34375.51563.21875 0 .73437-.17188 1.625-.17188C5.98438-6.5 6.875-5.07812 6.875-3.4375c0 2.21875-1.09375 3-2.42187 3-1.23438 0-2.04688-.92187-2.40625-1.96875-.125-.35937-.29688-.53125-.5625-.53125C1.15625-2.9375.5-2.57812.5-1.90625m0 0"/><path id="z" d="M.78125-6.25C.78125-2.5 1.875.21875 4.95313.21875S9.15625-2.5 9.15625-6.25c0-3.73437-1.125-6.45312-4.20312-6.45312S.78125-9.98437.78125-6.25m1.89063 0c0-3.03125.51562-5.79687 2.28125-5.79687 1.76562 0 2.28125 2.76562 2.28125 5.79687 0 3.04688-.51563 5.8125-2.28125 5.8125-1.76563 0-2.28125-2.76562-2.28125-5.8125m0 0"/><path id="C" d="M1.59375-4.73437H6.1875v4.59375h1.09375v-4.59375H11.875v-1.09375H7.28125v-4.59375H6.1875v4.59375H1.59375Zm0 0"/><clipPath id="a"><path d="M.4414 56H171v57.57031H.4414Zm0 0"/></clipPath><clipPath id="b"><path d="M170 0h317.47656v57H170Zm0 0"/></clipPath><clipPath id="c"><path d="M170 56h317.47656v57.57031H170Zm0 0"/></clipPath><clipPath id="d"><path d="M.4414 0H171v57H.4414Zm0 0"/></clipPath><clipPath id="t"><path d="M.4414 56h487.03516v1H.44141Zm0 0"/></clipPath><clipPath id="u"><path d="M.4414 113h487.03516v.57031H.44141Zm0 0"/></clipPath><clipPath id="v"><path d="M.4414 0h487.03516v113.57031H.44141Zm0 0"/></clipPath><clipPath id="w"><path d="M170 0h1v113.57031h-1Zm0 0"/></clipPath><clipPath id="A"><path d="M170 56h317.47656v57.57031H170Zm0 0"/></clipPath><clipPath id="B"><path d="M328 56h2v57.57031h-2Zm0 0"/></clipPath></defs><g clip-path="url(#a)"><path fill="#FFF" stroke="#000" stroke-miterlimit="10" stroke-width=".39775" d="M.64063 56.78514v56.58592h169.75776V56.78514Zm0 0"/></g><g clip-path="url(#b)"><path fill="#FFF" stroke="#000" stroke-miterlimit="10" stroke-width=".39775" d="M170.3984 56.78514V.19922h316.88272v56.58592Zm0 0"/></g><g clip-path="url(#c)"><path fill="#FFF" stroke="#000" stroke-miterlimit="10" stroke-width=".39775" d="M170.3984 56.78514v56.58592h316.88272V56.78514Zm0 0"/></g><g clip-path="url(#d)"><path fill="#FFF" stroke="#000" stroke-miterlimit="10" stroke-width=".39775" d="M.64063.19922v56.58592h169.75776V.19922Zm0 0"/></g><use xlink:href="#e" x="33.78402" y="35.31296"/><use xlink:href="#f" x="44.70227" y="35.31296"/><use xlink:href="#g" x="55.06367" y="35.31296"/><use xlink:href="#h" x="61.02993" y="35.31296"/><use xlink:href="#i" x="70.89414" y="35.31296"/><use xlink:href="#j" x="82.84655" y="35.31296"/><use xlink:href="#k" x="97.88152" y="35.31296"/><use xlink:href="#h" x="109.35662" y="35.31296"/><use xlink:href="#l" x="125.85524" y="35.31296"/><use xlink:href="#m" x="24.48767" y="89.95923"/><use xlink:href="#n" x="34.94851" y="89.95923"/><use xlink:href="#o" x="41.05398" y="89.95923"/><use xlink:href="#p" x="51.19662" y="89.95923"/><use xlink:href="#h" x="63.30812" y="89.95923"/><use xlink:href="#k" x="79.79488" y="89.95923"/><use xlink:href="#h" x="91.26998" y="89.95923"/><use xlink:href="#q" x="107.76757" y="89.95923"/><use xlink:href="#r" x="119.44155" y="89.95923"/><use xlink:href="#l" x="127.07836" y="89.95923"/><use xlink:href="#s" x="138.91144" y="89.95923"/><g clip-path="url(#t)"><path fill="none" stroke="#000" stroke-miterlimit="10" stroke-width=".39775" d="M.64063 56.78514h486.6405"/></g><g clip-path="url(#u)"><path fill="none" stroke="#000" stroke-miterlimit="10" stroke-width=".39775" d="M.64063 113.37106h486.6405"/></g><g clip-path="url(#v)"><path fill="none" stroke="#000" stroke-miterlimit="10" stroke-width=".39775" d="M.64063.19922v113.17184h486.6405V.19922Zm0 0"/></g><g clip-path="url(#w)"><path fill="none" stroke="#000" stroke-miterlimit="10" stroke-width=".39775" d="M170.3984.19922v113.17184"/></g><use xlink:href="#x" x="187.01514" y="34.73606"/><use xlink:href="#y" x="200.4591" y="34.73606"/><use xlink:href="#z" x="323.88431" y="34.73606"/><use xlink:href="#y" x="454.03125" y="34.73606"/><g clip-path="url(#A)"><path fill="none" stroke="#000" stroke-miterlimit="10" stroke-width=".39775" d="M170.3984 56.78514v56.58592h316.88272V56.78514Zm0 0"/></g><use xlink:href="#x" x="257.04021" y="87.98997"/><g clip-path="url(#B)"><path fill="none" stroke="#000" stroke-dasharray="2.9831811113000004 2.9831811113000004" stroke-miterlimit="10" stroke-width=".39775" d="M328.83976 56.78514v56.58592"/></g><use xlink:href="#z" x="323.88431" y="91.32164"/><use xlink:href="#C" x="387.18714" y="90.2876"/></svg>