<svg xmlns="http://www.w3.org/2000/svg" xmlns:xlink="http://www.w3.org/1999/xlink" width="153.285pt" height="155.057pt" viewBox="0 0 153.285 155.057"><defs><path id="b" d="M.5-4.04687C.5-1.625 1.20313.14063 3.20313.14063S5.92188-1.625 5.92188-4.04687s-.71875-4.1875-2.71875-4.1875S.5-6.46875.5-4.04687m1.21875 0c0-1.96875.34375-3.75 1.48438-3.75 1.15625 0 1.48437 1.78125 1.48437 3.75S4.35938-.28125 3.20313-.28125c-1.14063 0-1.48438-1.79687-1.48438-3.76562m0 0"/><path id="h" d="M.40625-6.03125c0 1.04688 1.04688 1.89063 3.46875 1.89063-.40625.70312-.6875 1.4375-.6875 2.23437 0 1.32813.82813 2.04688 2.34375 2.04688 1.48438 0 3.03125-1.0625 3.03125-2.4375 0-.82813-.6875-1.28125-1.54687-1.28125-.95313 0-2.07813 1.0625-2.07813 1.92187 0 .25.20313.73438.5625.73438.09375 0 .25-.0625.25-.1875 0-.15626-.29687-.17188-.29687-.53125 0-.59375.875-1.54688 1.5625-1.54688.48437 0 .78125.1875.78125.65625C7.79688-1.45312 6.76563-.25 5.53125-.25c-.875 0-1.32812-.46875-1.32812-1.26562 0-.90625.64062-1.95313 1.10937-2.73438 2.70313-.40625 5.32813-1.73437 5.32813-3.42187 0-.64063-.51563-1.0625-1.20313-1.0625-1.59375 0-4 2.04687-5.32812 4.15625-1.09375 0-2.875-.03125-2.875-1.3125C1.23438-7.07812 2.67188-8 3.57813-8c.17187 0 .26562-.09375.26562-.20312 0-.09375-.09375-.17188-.20312-.17188-1.34375 0-3.23438.90625-3.23438 2.34375m5.15625 1.3125c.89063-1.5625 2.76563-3.64062 3.875-3.64062.42188 0 .71875.25.71875.64062 0 1.35938-2.125 2.59375-4.59375 3m0 0"/><path id="c" d="M1.1875 0h3.57813v-.3125l-.92188-.07812C3.60938-.42187 3.48438-.5 3.48438-.92187v-6.42188l-.0625-.04687-2.23438.375V-6.75l1.01563.125c.1875.03125.25.10938.25.42188v5.28125c0 .42187-.10938.5-.35938.53125L1.1875-.3125Zm0 0"/><path id="d" d="M.29688-.10937.40625 0h4.5l.375-1.4375L4.98438-1.5c-.23438.59375-.45313.67188-.89063.67188H1.3125c.17188-.5625.8125-1.34375 1.82813-2.0625 1.04687-.76563 1.84375-1.25 1.84375-2.46875 0-1.51563-1-2.03125-2.14063-2.03125-1.5 0-2.26562.89062-2.26562 1.46875 0 .35937.42187.53125.60937.53125S1.45313-5.5 1.5-5.6875c.17188-.73437.59375-1.32812 1.26563-1.32812.82812 0 1.07812.6875 1.07812 1.5 0 1.15625-.59375 1.82812-1.54687 2.65625C.96875-1.6875.5-.95312.29688-.10937m0 0"/><path id="e" d="M.29688-1.10937c0 .46875.75 1.23437 2.28125 1.23437 1.57812 0 2.57812-.79687 2.57812-2.1875 0-1.45312-1.25-1.89062-1.85937-1.9375v-.04687c.59375-.09375 1.53125-.53125 1.53125-1.60938 0-1.20312-.9375-1.73437-2.10938-1.73437-1.4375 0-2.14062.82812-2.14062 1.28125 0 .34375.39062.53125.53125.53125s.21874-.07813.26562-.21875c.25-.75.65625-1.21875 1.26563-1.21875.85937 0 1.07812.75 1.07812 1.35937C3.71875-5 3.48438-4.1875 2.5625-4.1875c-.53125 0-.82812-.09375-.95312-.09375-.14063 0-.20313.09375-.20313.29688 0 .1875.0625.29687.20313.29687.125 0 .42187-.09375.95312-.09375C3.48438-3.78125 4-2.95312 4-2 4-.70312 3.375-.25 2.59375-.25c-.71875 0-1.1875-.53125-1.40625-1.15625-.0625-.20312-.17187-.3125-.3125-.3125-.20312 0-.57812.21875-.57812.60938m0 0"/><path id="i" d="M.92188 0h2.84375v-.26562l-.6875-.0625c-.1875-.01563-.28125-.07813-.28125-.39063v-5L2.75-5.76562l-1.82812.3125v.21875l.73437.10937c.17188.01563.21875.07813.21875.34375v4.0625c0 .3125-.07812.375-.28125.39063l-.67187.0625Zm0 0"/><path id="k" d="M.25-.09375.34375 0H3.9375l.29688-1.20312-.25-.04688c-.20313.45313-.34375.51563-.6875.51563H1.125c.14063-.40625.59375-.98438 1.40625-1.53125C3.39063-2.84375 4-3.23437 4-4.17187c0-1.17188-.79687-1.59375-1.73437-1.59375-1.15625 0-1.8125.67187-1.8125 1.1875 0 .3125.34375.45312.53125.45312.15624 0 .23437-.09375.28124-.25.125-.60937.45313-1.07812.9375-1.07812C2.79688-5.45312 3-4.9375 3-4.3125 3-3.5 2.625-2.95312 1.82813-2.26562.75-1.34375.375-.73437.25-.09375m0 0"/><path id="m" d="M.23438-.90625c0 .35938.5625 1 1.84375 1 1.25 0 2.04687-.60937 2.04687-1.6875 0-1.15625-1-1.46875-1.4375-1.5v-.04687C3.14063-3.21875 3.875-3.54687 3.875-4.375c0-1-.8125-1.39062-1.71875-1.39062-1.07812 0-1.70312.60937-1.70312 1.04687 0 .28125.32812.4375.46875.4375s.20312-.07812.25-.20312c.1875-.59375.48437-.96875.9375-.96875.625 0 .78125.60937.78125 1.04687C2.89063-3.95312 2.75-3.25 2.0625-3.25c-.39062 0-.64062-.09375-.76562-.09375-.14063 0-.17188.09375-.17188.26563 0 .15625.03125.25.17188.25.125 0 .375-.07813.76562-.07813.64063 0 1.04688.53125 1.04688 1.34375 0 .96875-.45313 1.34375-1.03125 1.34375-.51563 0-.85938-.39062-1.04688-.9375-.04687-.15625-.14062-.25-.28125-.25-.1875 0-.51562.1875-.51562.5m0 0"/><clipPath id="a"><path d="M23 0h129.46484v129H23Zm0 0"/></clipPath><clipPath id="f"><path d="M134 116h18.46484v26H134Zm0 0"/></clipPath><clipPath id="g"><path d="M23.875.39453h128.19531V140H23.875Zm0 0"/></clipPath><clipPath id="j"><path d="M23.875.39453h128.19531V140H23.875Zm0 0"/></clipPath><clipPath id="l"><path d="M23.875.39453h128.19531V140H23.875Zm0 0"/></clipPath></defs><g clip-path="url(#a)"><path fill="none" stroke="#7f7f7f" stroke-dasharray=".39609306 .9902624688" stroke-miterlimit="10" stroke-width=".39609" d="M23.875 128.59375h128.1953M23.875 91.96485h128.1953M23.875 55.33595h128.1953M23.875 18.70705h128.1953M23.875 128.59375V.39455M60.5 128.59375V.39455m36.6289 128.1992V.39455m36.6289 128.1992V.39455"/></g><use xlink:href="#b" x="7.84788" y="145.45539" fill="#7f7f7f"/><path fill="none" stroke="#7f7f7f" stroke-miterlimit="10" stroke-width=".39609" d="M60.5 119.4375V137.75"/><use xlink:href="#c" x="57.61621" y="149.70157" fill="#7f7f7f"/><path fill="none" stroke="#7f7f7f" stroke-miterlimit="10" stroke-width=".39609" d="M97.1289 119.4375V137.75"/><use xlink:href="#d" x="94.24346" y="149.70157" fill="#7f7f7f"/><path fill="none" stroke="#7f7f7f" stroke-miterlimit="10" stroke-width=".39609" d="M133.7578 119.4375V137.75"/><use xlink:href="#e" x="130.8717" y="149.70157" fill="#7f7f7f"/><path fill="none" stroke="#000" stroke-miterlimit="10" stroke-width=".7922" d="M5.5586 128.59375h140.37498"/><path d="M150.07031 128.59375c-.50781-.10547-2.74219-.70703-4.13672-1.35547v2.71094c1.39453-.65234 3.62891-1.25 4.13672-1.35547m0 0"/><g clip-path="url(#f)"><path fill="none" stroke="#000" stroke-miterlimit="10" stroke-width=".7922" d="M150.07031 128.59375c-.50781-.10547-2.74219-.70703-4.13672-1.35547v2.71094c1.39453-.65235 3.62891-1.25 4.13672-1.35547Zm0 0"/></g><path fill="none" stroke="#7f7f7f" stroke-miterlimit="10" stroke-width=".39609" d="M33.03125 91.96485h-18.3164"/><use xlink:href="#c" x="4.39886" y="95.66719" fill="#7f7f7f"/><path fill="none" stroke="#7f7f7f" stroke-miterlimit="10" stroke-width=".39609" d="M33.03125 55.33595h-18.3164"/><use xlink:href="#d" x="4.39886" y="59.03994" fill="#7f7f7f"/><path fill="none" stroke="#7f7f7f" stroke-miterlimit="10" stroke-width=".39609" d="M33.03125 18.70705h-18.3164"/><use xlink:href="#e" x="4.39886" y="22.34809" fill="#7f7f7f"/><path fill="none" stroke="#000" stroke-miterlimit="10" stroke-width=".7922" d="M23.875 146.90625V6.53517"/><path stroke="#000" stroke-miterlimit="10" stroke-width=".7922" d="M23.875 2.39453c-.10547.50781-.70703 2.74219-1.35938 4.14063h2.71485c-.65234-1.39844-1.25-3.63282-1.35547-4.14063Zm0 0"/><g clip-path="url(#g)"><path fill="none" stroke="#007f7f" stroke-miterlimit="10" stroke-width=".7922" d="M23.875 128.59375s3.85937-3.85937 5.33984-5.34375l5.33985-5.33984c1.48437-1.48047 3.85937-3.85938 5.34375-5.33985 1.48046-1.48437 3.85937-3.85937 5.33984-5.34374 1.48437-1.48047 3.85937-3.85938 5.34375-5.33985 1.48047-1.48437 3.85937-3.85937 5.33984-5.34375l5.33984-5.33984c1.48438-1.48047 3.85938-3.85937 5.34375-5.33984 1.48047-1.48438 3.85938-3.85938 5.33985-5.34375 1.48437-1.48047 3.85937-3.85938 5.34375-5.33985 1.48046-1.48437 3.85937-3.85937 5.33984-5.34374l5.33984-5.33985c1.48438-1.48047 3.85938-3.85937 5.34375-5.33984 1.48047-1.48438 3.85938-3.85938 5.33984-5.34375 1.48438-1.48047 3.85938-3.85937 5.34375-5.33984 1.48047-1.48438 3.85938-3.85938 5.33985-5.34375 1.48437-1.48047 3.85937-3.85938 5.33984-5.33985 1.48437-1.48437 3.85937-3.85937 5.34375-5.33984 1.48047-1.48437 3.85937-3.85937 5.33984-5.34375 1.48438-1.48047 3.85938-3.85937 5.34375-5.33984 1.48047-1.48438 3.85938-3.85938 5.33984-5.34375 1.48438-1.48047 3.85938-3.85937 5.33985-5.33984 1.48437-1.48438 3.85937-3.85938 5.34375-5.33985 1.48047-1.48437 5.33984-5.34375 5.33984-5.34375"/></g><use xlink:href="#h" x="118.15802" y="52.14487" fill="#007f7f"/><use xlink:href="#i" x="128.03256" y="54.97725" fill="#007f7f"/><g clip-path="url(#j)"><path fill="none" stroke="#ff7f00" stroke-miterlimit="10" stroke-width=".7922" d="M23.875 128.59375s3.85937-.34766 5.33984-.78125c1.48047-.42969 3.85938-1.46875 5.33985-2.33594 1.48437-.86328 3.85937-2.59765 5.34375-3.89453 1.48046-1.29687 3.85937-3.72265 5.33984-5.45312 1.48437-1.72656 3.85937-4.84766 5.34375-7.00781 1.48047-2.16407 3.85937-5.97656 5.33984-8.57032 1.48047-2.59374 3.85938-7.09765 5.33984-10.125 1.48438-3.02734 3.85938-8.22656 5.34375-11.68359 1.48047-3.45703 3.85938-9.35156 5.33985-13.24218 1.48437-3.89063 3.85937-10.47656 5.34375-14.80078 1.48046-4.32031 3.85937-11.60156 5.33984-16.35547 1.48047-4.75781 3.85937-12.73046 5.33984-17.91796 1.48438-5.1875 3.85938-13.85156 5.34375-19.47266 1.48047-5.6211 3.85938-14.97656 5.33984-21.03124 1.48438-6.05079 3.85938-16.10547 5.34375-22.58985 1.48047-6.48437 3.85938-17.22656 5.33985-24.14452 1.48437-6.91797 3.85937-18.35547 5.33984-25.70313 1.48437-7.35156 3.85937-19.48437 5.34375-27.26562 1.48047-7.78125 3.85937-20.60546 5.33984-28.8203 1.48438-8.21094 3.85938-21.73047 5.34375-30.3789 1.48047-8.64454 3.85938-22.85547 5.33984-31.9336 1.48438-9.07812 3.85938-23.98437 5.33985-33.49609 1.48437-9.5078 3.85937-25.10937 5.34375-35.05077 1.48047-9.9414 5.33984-36.60937 5.33984-36.60937"/></g><use xlink:href="#h" x="95.08434" y="20.55599" fill="#ff7f00"/><use xlink:href="#k" x="104.9576" y="23.38836" fill="#ff7f00"/><g clip-path="url(#l)"><path fill="none" stroke="#ec008c" stroke-miterlimit="10" stroke-width=".7922" d="M23.875 128.59375s3.85937.01172 5.33984-.11328c1.48047-.1289 3.85938-.38672 5.33985-.79688 1.48437-.41015 3.85937-1.27343 5.34375-2.15625 1.48046-.8828 3.85937-2.66015 5.33984-4.20312 1.48437-1.54297 3.85937-4.53516 5.34375-6.92969C52.0625 112 54.4414 107.4922 55.92187 104.0586c1.48047-3.4375 3.85938-9.76172 5.33984-14.42578 1.48438-4.66406 3.85938-13.11328 5.34375-19.19922 1.48047-6.08203 3.85938-16.95703 5.33985-24.64843 1.48437-7.6914 3.85937-21.29297 5.34375-30.78125 1.48046-9.48828 3.85937-26.125 5.33984-37.59765 1.48047-11.47656 3.85937-31.44921 5.33984-45.09765 1.48438-13.64844 3.85938-37.26172 5.34375-53.27343 1.48047-16.01172 3.85938-43.5664 5.33984-62.1328 1.48438-18.56641 3.85938-50.36719 5.34375-71.67578 1.48047-21.30859 3.85938-57.66015 5.33985-81.89842 1.48437-24.23828 3.85937-65.4414 5.33984-92.80077 1.48437-27.35938 3.85937-73.72265 5.34375-104.39062 1.48047-30.66796 3.85937-82.48827 5.33984-116.65623 1.48438-34.16796 3.85938-91.74999 5.34375-129.60545 1.48047-37.85937 3.85938-101.5039 5.33984-143.23827 1.48438-41.73436 3.85938-111.74998 5.33985-157.55076 1.48437-45.79687 3.85937-122.48826 5.34375-172.54294 1.48047-50.05468 5.33984-188.21873 5.33984-188.21873"/></g><use xlink:href="#h" x="57.95217" y="15.15285" fill="#ec008c"/><use xlink:href="#m" x="67.82671" y="17.98522" fill="#ec008c"/></svg>