<svg xmlns="http://www.w3.org/2000/svg" xmlns:xlink="http://www.w3.org/1999/xlink" width="258.75pt" height="111.348pt" viewBox="0 0 258.75 111.348"><defs><path id="b" d="M.5-4.04687C.5-1.625 1.20313.14063 3.20313.14063S5.92188-1.625 5.92188-4.04687s-.71875-4.1875-2.71875-4.1875S.5-6.46875.5-4.04687m1.21875 0c0-1.96875.34375-3.75 1.48438-3.75 1.15625 0 1.48437 1.78125 1.48437 3.75S4.35938-.28125 3.20313-.28125c-1.14063 0-1.48438-1.79687-1.48438-3.76562m0 0"/><path id="k" d="M.40625-6.03125c0 1.04688 1.04688 1.89063 3.46875 1.89063-.40625.70312-.6875 1.4375-.6875 2.23437 0 1.32813.82813 2.04688 2.34375 2.04688 1.48438 0 3.03125-1.0625 3.03125-2.4375 0-.82813-.6875-1.28125-1.54687-1.28125-.95313 0-2.07813 1.0625-2.07813 1.92187 0 .25.20313.73438.5625.73438.09375 0 .25-.0625.25-.1875 0-.15626-.29687-.17188-.29687-.53125 0-.59375.875-1.54688 1.5625-1.54688.48437 0 .78125.1875.78125.65625C7.79688-1.45312 6.76563-.25 5.53125-.25c-.875 0-1.32812-.46875-1.32812-1.26562 0-.90625.64062-1.95313 1.10937-2.73438 2.70313-.40625 5.32813-1.73437 5.32813-3.42187 0-.64063-.51563-1.0625-1.20313-1.0625-1.59375 0-4 2.04687-5.32812 4.15625-1.09375 0-2.875-.03125-2.875-1.3125C1.23438-7.07812 2.67188-8 3.57813-8c.17187 0 .26562-.09375.26562-.20312 0-.09375-.09375-.17188-.20312-.17188-1.34375 0-3.23438.90625-3.23438 2.34375m5.15625 1.3125c.89063-1.5625 2.76563-3.64062 3.875-3.64062.42188 0 .71875.25.71875.64062 0 1.35938-2.125 2.59375-4.59375 3m0 0"/><path id="c" d="M.92188-2.76562h6v-.625h-6Zm0 0"/><path id="d" d="M.29688-1.10937c0 .45312.75 1.23437 2.28125 1.23437 1.57812 0 2.57812-.79687 2.57812-2.1875 0-1.46875-1.25-1.89062-1.85937-1.95312v-.04688c.59375-.09375 1.53125-.53125 1.53125-1.60937 0-1.20313-.9375-1.73438-2.10938-1.73438-1.4375 0-2.14062.82813-2.14062 1.29688 0 .32812.39062.51562.53125.51562s.21874-.07812.26562-.21875c.25-.73437.65625-1.21875 1.26563-1.21875.85937 0 1.07812.76563 1.07812 1.375 0 .64063-.23437 1.46875-1.15625 1.46875-.51562 0-.82812-.10937-.95312-.10937-.14063 0-.1875.10937-.1875.3125 0 .1875.04687.29687.1875.29687.125 0 .4375-.10937.95312-.10937.92188 0 1.45313.84375 1.45313 1.79687 0 1.29688-.64063 1.75-1.42188 1.75-.71875 0-1.1875-.53125-1.40625-1.15625-.0625-.20312-.17187-.3125-.3125-.3125-.20312 0-.57812.21875-.57812.60938m0 0"/><path id="e" d="M.29688-.10937.40625 0h4.51563l.35937-1.4375L4.98438-1.5c-.23438.59375-.45313.67188-.89063.67188H1.3125c.17188-.5625.82813-1.34375 1.82813-2.07813C4.1875-3.65625 5-4.15625 5-5.375c0-1.51562-1.01562-2.03125-2.15625-2.03125-1.5 0-2.26562.90625-2.26562 1.46875 0 .375.42187.54688.60937.54688S1.45313-5.5 1.5-5.6875c.17188-.75.59375-1.34375 1.26563-1.34375.84375 0 1.07812.70313 1.07812 1.5 0 1.17188-.57812 1.82813-1.53125 2.67188C.96875-1.6875.5-.95312.29688-.10937m0 0"/><path id="f" d="M1.1875 0h3.57813v-.3125l-.92188-.07812C3.625-.42187 3.48438-.5 3.48438-.92187v-6.42188l-.04688-.0625-2.25.375v.26563l1.01563.14062c.1875.01563.25.09375.25.40625v5.29688c0 .42187-.09375.5-.35938.53125L1.1875-.3125Zm0 0"/><path id="l" d="M-.1875 1.53125c.01563.29688.375.51563.84375.51563.875 0 1.28125-.70313 1.64063-2.29688l.78125-3.54687h1.0625l.09375-.35938H3.14063l.25-1.03125c.14062-.5625.28125-.78125.5-.78125.1875 0 .34375.15625.53125.59375.0625.09375.125.17188.28125.17188.1875 0 .45312-.17188.45312-.40625 0-.375-.46875-.67188-1.03125-.67188-1.0625 0-1.5.76563-1.79687 1.84375L2.25-4.15625h-.73437l-.10938.35938h.75l-.98437 5.01562c-.07813.4375-.15626.5-.25.5-.07813 0-.21876-.07812-.4375-.42187-.0625-.09376-.125-.21876-.25-.21876-.20313 0-.42188.21876-.42188.45313m0 0"/><path id="n" d="M.26563.82813c0 .73437.79687 1.21875 1.90625 1.21875 1.20312 0 2.125-.48438 2.125-1.42188 0-.67187-.53125-1.125-1.5-1.34375-.73438-.1875-1.03125-.28125-1.03125-.5 0-.17187.15624-.26562.34375-.32812.1875.03124.32812.03124.46875.03124 1.1875 0 1.89062-.625 1.89062-1.51562 0-.21875-.0625-.42187-.17187-.5625l.6875-.10937.28125-.5625-.04688-.07813L3.98438-4c-.23438-.14062-.67188-.25-1.07813-.25-1.45312 0-1.875.90625-1.875 1.54688 0 .60937.45313.98437.73438 1.07812-.3125.09375-.82813.3125-.82813.65625 0 .29688.35938.54688.65625.65625C1.01563-.21875.26563.125.26563.82813M1.15625.75c0-.59375.5-.85937.8125-.90625C2.5-.09375 3.48438.125 3.48438.82813c0 .625-.53125.90625-1.10938.90625-.6875 0-1.21875-.375-1.21875-.98438m.79688-3.28125c0-.54687.26562-1.40625 1-1.40625.25 0 .64062.125.64062.67188 0 .76562-.40625 1.42187-1 1.42187-.42187 0-.64062-.29687-.64062-.6875m0 0"/><clipPath id="a"><path d="M.6289 0h257.2422v110.69922H.6289Zm0 0"/></clipPath><clipPath id="g"><path d="M.6289 54H252v2H.6289Zm0 0"/></clipPath><clipPath id="h"><path d="M240 42h17.8711v26H240Zm0 0"/></clipPath><clipPath id="i"><path d="M128 6h2v104.69922h-2Zm0 0"/></clipPath><clipPath id="j"><path d="M1.02344.39453h256.45312V95H1.02344Zm0 0"/></clipPath><clipPath id="m"><path d="M1.02344.39453h256.45312V110.3047H1.02344Zm0 0"/></clipPath></defs><g clip-path="url(#a)"><path fill="none" stroke="#7f7f7f" stroke-dasharray=".39618073 .9904816504" stroke-miterlimit="10" stroke-width=".39618" d="M1.02338 91.9844h256.45324M1.02338 55.35155h256.45324M1.02338 18.71483h256.45324M19.3398 110.3047V.39451m36.63673 109.9102V.39451m36.63674 109.9102V.39451M129.25 110.3047V.39451m36.63674 109.9102V.39451m36.63673 109.9102V.39451m36.63673 109.9102V.39451"/></g><use xlink:href="#b" x="113.22159" y="72.21514" fill="#7f7f7f"/><path fill="none" stroke="#7f7f7f" stroke-miterlimit="10" stroke-width=".39618" d="M19.3398 46.1914v18.31642"/><g fill="#7f7f7f"><use xlink:href="#c" x="12.54013" y="76.46327"/><use xlink:href="#d" x="20.37391" y="76.46327"/></g><path fill="none" stroke="#7f7f7f" stroke-miterlimit="10" stroke-width=".39618" d="M55.97653 46.1914v18.31642"/><g fill="#7f7f7f"><use xlink:href="#c" x="49.1766" y="76.46327"/><use xlink:href="#e" x="57.01039" y="76.46327"/></g><path fill="none" stroke="#7f7f7f" stroke-miterlimit="10" stroke-width=".39618" d="M92.61327 46.1914v18.31642"/><g fill="#7f7f7f"><use xlink:href="#c" x="85.81208" y="76.46327"/><use xlink:href="#f" x="93.64587" y="76.46327"/></g><path fill="none" stroke="#7f7f7f" stroke-miterlimit="10" stroke-width=".39618" d="M165.88674 46.1914v18.31642"/><use xlink:href="#f" x="163.0011" y="76.46327" fill="#7f7f7f"/><path fill="none" stroke="#7f7f7f" stroke-miterlimit="10" stroke-width=".39618" d="M202.52347 46.1914v18.31642"/><use xlink:href="#e" x="199.63758" y="76.46327" fill="#7f7f7f"/><path fill="none" stroke="#7f7f7f" stroke-miterlimit="10" stroke-width=".39618" d="M239.1602 46.1914v18.31642"/><use xlink:href="#d" x="236.27306" y="76.46327" fill="#7f7f7f"/><g clip-path="url(#g)"><path fill="none" stroke="#000" stroke-miterlimit="10" stroke-width=".79237" d="M1.02338 55.35156H251.336"/></g><path d="M255.47656 55.35156c-.50781-.10547-2.74219-.70703-4.14062-1.35937v2.71484c1.39844-.65234 3.63281-1.25 4.14062-1.35547m0 0"/><g clip-path="url(#h)"><path fill="none" stroke="#000" stroke-miterlimit="10" stroke-width=".79237" d="M255.47656 55.35156c-.5078-.10547-2.74218-.70703-4.14062-1.35937v2.71484c1.39844-.65234 3.63281-1.25 4.14062-1.35547Zm0 0"/></g><path fill="none" stroke="#7f7f7f" stroke-miterlimit="10" stroke-width=".39618" d="M138.41016 91.9844h-18.32032"/><g fill="#7f7f7f"><use xlink:href="#c" x="101.93766" y="95.6877"/><use xlink:href="#f" x="109.77144" y="95.6877"/></g><path fill="none" stroke="#7f7f7f" stroke-miterlimit="10" stroke-width=".39618" d="M138.41016 18.71483h-18.32032"/><use xlink:href="#f" x="109.77179" y="22.41674" fill="#7f7f7f"/><g clip-path="url(#i)"><path fill="none" stroke="#000" stroke-miterlimit="10" stroke-width=".79237" d="M129.25 110.30471V6.53514"/></g><path stroke="#000" stroke-miterlimit="10" stroke-width=".79237" d="M129.25 2.39453c-.10547.51172-.70312 2.7461-1.35547 4.14063h2.71094c-.64844-1.39454-1.25-3.62891-1.35547-4.14063Zm0 0"/><g clip-path="url(#j)"><path fill="none" stroke="#007f7f" stroke-miterlimit="10" stroke-width=".79237" d="M1.02338 82.82814s37.16408-17.31251 54.95315-27.47658C73.76951 45.1836 108.91796 9.55466 129.25 9.55466s55.4805 35.62893 73.27347 45.7969c17.79298 10.16407 54.95315 27.47658 54.95315 27.47658"/></g><use xlink:href="#k" x="194.62493" y="45.9221" fill="#007f7f"/><use xlink:href="#l" x="204.50169" y="48.75511" fill="#007f7f"/><g clip-path="url(#m)"><path fill="none" stroke="#ff7f00" stroke-miterlimit="10" stroke-width=".79237" d="M1.02338.3945S74.8242 11.08984 92.61327 18.71484c17.79297 7.625 26.47266 26.46876 36.63673 36.63673 10.16797 10.16407 18.84766 29.01173 36.63674 36.63283 17.79297 7.625 91.58988 18.32032 91.58988 18.32032"/></g><use xlink:href="#k" x="157.84032" y="82.55758" fill="#ff7f00"/><use xlink:href="#n" x="167.71709" y="85.39059" fill="#ff7f00"/></svg>