<svg xmlns="http://www.w3.org/2000/svg" xmlns:xlink="http://www.w3.org/1999/xlink" width="119.466pt" height="49.223pt" viewBox="0 0 119.466 49.223"><defs><path id="a" d="m1.73438-1.29687.5.5L4.3125-2.89062 6.40625-.79687l.48438-.5L4.8125-3.375l2.07813-2.09375-.48438-.48437L4.3125-3.875 2.23438-5.95312l-.5.48437L3.82813-3.375Zm0 0"/><path id="b" d="M-.23437 0h2.70312l.07813-.34375-.65625-.0625C1.73437-.42187 1.67187-.5 1.67187-.60937c0-.0625.03126-.15626.0625-.25.39063-.76563.78126-1.53125 1.21876-2.34375h2.6875L5.9375-.73437s-.0625.29687-.3125.32812l-.64062.0625L4.92188 0h2.9375l.07812-.34375L7.48438-.375C7.10938-.42187 7.0625-.59375 7-1.07812l-.875-7.20313h-.85937L3.25-4.75c-.60937 1.0625-1.60937 2.84375-2.04687 3.5625-.39063.625-.59375.75-.95313.79688l-.40625.04687Zm3.4375-3.65625 1.95312-3.51562.42188 3.51562Zm0 0"/><path id="c" d="M0 0h3.64063c2.89062 0 3.46875-1.48437 3.46875-2.48437 0-1.26563-.92188-1.8125-1.8125-1.98438l.01562-.01562c1.59375-.1875 2.28125-1.09375 2.28125-2 0-.96875-.57812-1.79688-2.78125-1.79688H1.76563l-.0625.34375.70312.0625c.20313.01563.29688.09375.29688.28125 0 .07813-.03125.1875-.04688.29688L1.23438-1c-.09376.40625-.20313.54688-.5.57813L.0625-.34375Zm2.39063-.92187c0-.07813.01562-.17188.04687-.26563l.6875-3.07812h.46875c1.1875 0 2.23438.34375 2.23438 1.71875 0 1.0625-.65625 2.125-2.26563 2.125-.9375 0-1.17187-.1875-1.17187-.5m.82812-3.75.625-2.78125c.07813-.35938.14063-.42188.95313-.42188 1 0 1.5625.5 1.5625 1.34375 0 1.25-1.04688 1.85938-2.375 1.85938Zm0 0"/><clipPath id="d"><path d="M3 0h115.27344v47H3Zm0 0"/></clipPath></defs><use xlink:href="#a" x="4.91531" y="44.20816"/><use xlink:href="#b" x="5.11221" y="36.72626"/><use xlink:href="#a" x="77.48478" y="20.01899"/><use xlink:href="#c" x="77.87364" y="12.5371"/><g clip-path="url(#d)"><path fill="none" stroke="#000" stroke-miterlimit="10" stroke-width=".39231" d="M9.22266 41.23047 118.08203 4.9453"/></g></svg>