<svg xmlns="http://www.w3.org/2000/svg" xmlns:xlink="http://www.w3.org/1999/xlink" width="264.771pt" height="149.17pt" viewBox="0 0 264.771 149.17"><defs><path id="a" d="m1.6875-1.26562.48438.48437L4.1875-2.8125 6.21875-.78125l.46875-.48437-2.01562-2.01563L6.6875-5.3125l-.46875-.46875L4.1875-3.76562 2.17188-5.78125l-.48438.46875 2.03125 2.03125Zm0 0"/><path id="b" d="M-.21875 0h2.625l.07813-.32812-.65625-.0625C1.6875-.40625 1.625-.48437 1.625-.59375c0-.0625.01563-.15625.0625-.23437.375-.75.75-1.5 1.1875-2.28125h2.60938l.29687 2.40625s-.0625.28124-.3125.3125l-.625.0625L4.78125 0h2.85938l.07812-.32812L7.26563-.375c-.35938-.03125-.40625-.1875-.46875-.67187l-.84375-7H5.125L3.15625-4.625c-.59375 1.04688-1.5625 2.78125-1.98437 3.46875-.375.60938-.57813.73438-.9375.76563l-.39063.0625Zm3.32813-3.5625L5-6.96875l.42188 3.40625Zm0 0"/><path id="c" d="M0 0h2.75l.0625-.32812L2.35938-.375C2-.39062 1.82813-.46875 1.82813-.71875c0-.625.10937-.98437.23437-1.59375l1.09375-4.78125h.04688C4.28125-4.71875 5.35938-2.35937 6.4375 0h.75l1.29688-5.73437c.14062-.625.28125-1.0625.40625-1.45313.14062-.375.35937-.45312.70312-.5l.35938-.03125.0625-.32812h-2.75l-.0625.32812.45312.04688c.34375.04687.54688.15625.54688.40625 0 .42187-.125.90625-.26563 1.53125l-.95312 4.20312H6.9375c-1-2.17187-2-4.34375-2.96875-6.51562H1.75l-.07812.32812.6875.0625c.1875.01563.29687.10938.29687.3125 0 .07813-.01562.15625-.04687.25L1.51563-2.3125C1.375-1.70312 1.23437-1.25 1.10938-.875c-.14063.375-.34375.46875-.6875.5L.0625-.32812Zm0 0"/><path id="d" d="M.5-3.32812c0 1.17187.375 2.125.98438 2.64062.6875.59375 1.64062.85938 2.71875.85938.85937 0 1.79687-.20313 2.46875-.4375L7.21875-2.625c.10938-.39062.17188-.5625.35938-.57812l.51562-.0625.07813-.32813H5.09375l-.0625.32813.85938.07812c.17187.01563.25.09375.25.28125q0 .09375-.04688.28125l-.42187 1.75c-.07813.34375-.23438.64063-1.45313.64063-1.40625 0-2.4375-.9375-2.4375-3 0-1.85938.90625-4.59375 3.70313-4.59375 1.51562 0 1.78125.89062 1.84375 1.98437h.35937l.42188-1.8125c-.71875-.39062-1.64063-.57812-2.625-.57812-1.78125 0-3.0625.64062-3.89063 1.6875C.82813-5.57812.5-4.34375.5-3.32812m0 0"/><path id="e" d="M.25 0h5.95313l.59375-2.04687h-.34375c-.59375 1.4375-1.125 1.64062-2.4375 1.64062-1.1875 0-1.45313-.10937-1.45313-.48437 0-.125.04688-.29688.09375-.53125l1.29688-5.67188c.09375-.375.20312-.54687.5-.57812l.6875-.04688.09375-.32812h-3.25l-.09376.32812.70313.04688c.1875.01562.28125.10937.28125.3125 0 .07812-.01562.15625-.03125.26562L1.4375-.96875c-.09375.40625-.20312.53125-.48437.5625L.3125-.32812Zm0 0"/><path id="f" d="M.125 0h6.0625l.60938-2.04687H6.4375C5.84375-.60937 5.32813-.40625 3.89063-.40625c-1.375 0-1.45313-.17187-1.45313-.48437 0-.125.04688-.29688.09375-.53125l.59375-2.5625h1.51563c.875 0 1.03125.1875 1.03125.6875 0 .09375 0 .20312-.01563.32812h.35938l.53125-2.4375H6.1875c-.29687.8125-.40625 1-1.4375 1H3.21875L3.875-7.3125c.0625-.28125.14063-.34375.34375-.34375h1.39063c1.14062 0 1.375.29688 1.375.92188 0 .29687-.03125.60937-.03125.60937h.34375l.4375-1.92187H1.84375l-.07812.32812.70312.04688c.1875.01562.28125.09375.28125.28125 0 .07812-.01562.17187-.03125.28125L1.32813-.96875c-.09376.40625-.20313.53125-.48438.5625L.1875-.32812Zm0 0"/><path id="g" d="M.375-.78125c.45313.60938 1.57813.95313 2.42188.95313C5.0625.15625 5.75-1.15625 5.75-2.40625c0-1.04687-.57812-1.70312-1.75-2.3125-.67187-.34375-1.5-.75-1.5-1.625 0-.82812.60938-1.48437 1.625-1.48437 1.17188 0 1.40625.54687 1.40625 1.8125H5.875l.40625-1.625c-.5-.40625-1.35937-.59375-2.07812-.59375-2.03125 0-2.67188 1.32812-2.67188 2.3125 0 1.09375.73438 1.65625 1.67188 2.125s1.5.95312 1.5 1.875c0 .96875-.78125 1.6875-1.75 1.6875-1.5625 0-1.85938-1.20313-1.9375-2.32813H.67188Zm0 0"/></defs><path fill="#66B2B2" d="m8.9336 122.625 17.52734-1.7539c-.89844-9.00391-8.47657-15.8672-17.52735-15.8672Zm0 0"/><path fill="none" stroke="#000" stroke-miterlimit="10" stroke-width=".3963" d="M26.46094 120.8711c-.89843-9.00392-8.47656-15.8672-17.52735-15.8672"/><path fill="#66B2B2" d="m185.1211 105.0039 16.49609 6.1875c3.41406-9.10937-1.19922-19.26562-10.3125-22.68359-9.10938-3.41406-19.26563 1.19922-22.67969 10.3125-.94922 2.53125-1.30469 5.2461-1.03516 7.9375Zm0 0"/><path fill="none" stroke="#000" stroke-miterlimit="10" stroke-width=".3963" d="M201.61725 111.1914c3.41407-9.10938-1.19922-19.26563-10.3125-22.6836-9.10938-3.41406-19.26563 1.19922-22.6797 10.3125-.94922 2.53126-1.30468 5.2461-1.03515 7.9375"/><path fill="#66B2B2" d="m255.59375 131.4336-6.54297-16.35938c-4.59766 1.83984-8.21094 5.53516-9.95312 10.17187Zm0 0"/><path fill="none" stroke="#000" stroke-miterlimit="10" stroke-width=".3963" d="M249.05086 115.07422c-4.59766 1.83984-8.21094 5.53515-9.95313 10.17187"/><path fill="#66B2B2" d="M237.97656 87.38672 224.21875 76.3789c-6.07812 7.59765-4.84766 18.6875 2.7539 24.76562 4.95313 3.96094 11.65626 4.95703 17.54688 2.59766Zm0 0"/><path fill="none" stroke="#000" stroke-miterlimit="10" stroke-width=".3963" d="M224.21882 76.3789c-6.07812 7.59765-4.84766 18.6875 2.75391 24.76562 4.95313 3.96094 11.65625 4.95704 17.54688 2.59766"/><path fill="#66B2B2" d="M149.88281 16.91016h-17.61719c0 9.73046 7.88672 17.62109 17.6172 17.62109 5.35155 0 10.41405-2.4375 13.7578-6.61328Zm0 0"/><path fill="none" stroke="#000" stroke-miterlimit="10" stroke-width=".3963" d="M132.26567 16.91012c0 9.73047 7.88672 17.6211 17.61719 17.6211 5.35156 0 10.41407-2.4375 13.75782-6.61328"/><path fill="#66B2B2" d="M8.9336 16.91016v17.62109c9.73046 0 17.61718-7.89062 17.61718-17.6211Zm0 0"/><path fill="none" stroke="#000" stroke-miterlimit="10" stroke-width=".3963" d="M8.9336 34.53122c9.73047 0 17.61719-7.89063 17.61719-17.6211"/><use xlink:href="#a" x="4.7467" y="125.51462"/><use xlink:href="#b" x="4.93863" y="135.04857"/><use xlink:href="#a" x="180.93238" y="107.89665"/><use xlink:href="#c" x="180.2999" y="117.42961"/><use xlink:href="#a" x="251.40625" y="134.3246"/><use xlink:href="#d" x="251.38736" y="144.04352"/><use xlink:href="#a" x="233.78729" y="90.27768"/><use xlink:href="#e" x="242.34865" y="83.01112"/><use xlink:href="#a" x="145.69445" y="19.80381"/><use xlink:href="#f" x="145.955" y="12.53625"/><use xlink:href="#a" x="4.7467" y="19.80381"/><use xlink:href="#g" x="5.73122" y="12.36321"/><path fill="none" stroke="#000" stroke-miterlimit="10" stroke-width=".3963" d="m8.9336 122.625 176.18755-17.6211 70.47268 26.4297-17.6172-44.0469-88.09377-70.47658H8.93359Zm0 0"/></svg>