<svg xmlns="http://www.w3.org/2000/svg" xmlns:xlink="http://www.w3.org/1999/xlink" width="103.374pt" height="69.794pt" viewBox="0 0 103.374 69.794"><defs><path id="a" d="M.65625 0h2.0625v-.20312L2.25-.23438c-.125-.01562-.20312-.0625-.20312-.28124v-3.5625l-.03125-.03125-1.34375.21875v.17187l.48437.0625c.125.03125.17188.07813.17188.26563v2.875c0 .21874-.0625.26562-.20313.28124l-.46875.03126Zm0 0"/><path id="b" d="M.1875-.07812.25 0h2.625l.23438-.92187-.20313-.03126c-.14062.32813-.25.375-.5.375H.875C.96875-.84374 1.25-1.25 1.85938-1.625c.64062-.40625 1.0625-.6875 1.0625-1.34375 0-.84375-.57813-1.14062-1.28125-1.14062-.79688 0-1.3125.45312-1.3125.85937 0 .23438.26562.34375.40625.34375.125 0 .1875-.0625.21874-.20312.09376-.4375.3125-.76563.65626-.76563.39062 0 .53125.34375.53125.78125 0 .53125-.21875.9375-.8125 1.45313C.53125-.96875.25-.51562.1875-.07812m0 0"/><path id="c" d="M.21875-3.28125c0 .46875.375.82813.84375.82813.4375 0 .84375-.35938.84375-.82813 0-.45312-.40625-.82812-.84375-.82812-.46875 0-.84375.375-.84375.82812m.34375 0c0-.29687.23438-.54687.5-.54687.25 0 .5.25.5.54687 0 .3125-.25.54688-.5.54688-.26562 0-.5-.23438-.5-.54688m0 0"/><path id="e" d="M-.23437 0H2.5l.07813-.34375-.67188-.0625C1.75-.42187 1.6875-.5 1.6875-.625c0-.0625.03125-.14062.0625-.23437.40625-.78125.78125-1.5625 1.23438-2.375h2.71875L6-.73437s-.0625.29687-.32812.32812l-.64063.0625L4.96875 0H7.9375l.07813-.34375-.45313-.04687c-.375-.03125-.4375-.20313-.5-.70313L6.1875-8.375h-.875L3.28125-4.79687c-.60937 1.07812-1.625 2.875-2.07812 3.59375C.82813-.5625.625-.4375.25-.40625l-.40625.0625Zm3.46875-3.6875L5.20313-7.25l.4375 3.5625Zm0 0"/><path id="f" d="M0 0h3.67188C6.59375 0 7.1875-1.5 7.1875-2.51562c0-1.26563-.9375-1.82813-1.82812-1.98438l.01562-.03125c1.60938-.1875 2.28125-1.10937 2.28125-2.01562 0-.98438-.57812-1.82813-2.79687-1.82813h-3.0625l-.07813.35938.71875.0625c.20313.01562.29688.09375.29688.29687 0 .07813-.03125.17188-.0625.29688L1.25-1c-.09375.39063-.20312.53125-.5.57813l-.6875.07812Zm2.42188-.92187c0-.09376.01562-.1875.03125-.28126l.70312-3.09374H3.625c1.20313 0 2.26563.34375 2.26563 1.71875 0 1.07812-.65625 2.15625-2.28125 2.15625-.95313 0-1.1875-.20313-1.1875-.5M3.25-4.71875l.625-2.8125c.09375-.35937.15625-.42187.96875-.42187 1.01563 0 1.57813.51562 1.57813 1.35937 0 1.26563-1.04688 1.875-2.39063 1.875Zm0 0"/><clipPath id="d"><path d="M44 .10938h14V46H44Zm0 0"/></clipPath></defs><path fill="#f66" d="m51.57031 39.7461 10.32422 3.7578c1.34375-3.6914.61328-7.8164-1.90625-10.82421-2.16797-2.57813-5.39844-4.02344-8.76562-3.91797Zm0 0"/><path fill="none" stroke="#000" stroke-miterlimit="10" stroke-width=".3961" d="M61.89453 43.5039c1.34375-3.6914.61328-7.8164-1.90625-10.82421-2.16797-2.57813-5.39844-4.02344-8.76562-3.91797"/><use xlink:href="#a" x="63.33646" y="28.91423"/><use xlink:href="#a" x="66.65137" y="28.91423"/><use xlink:href="#b" x="69.96629" y="28.91423"/><use xlink:href="#c" x="73.28121" y="28.91423"/><path fill="#d9668c" d="m51.57031 39.7461-.34765-10.98438c-4.48828.14062-8.44141 3.0039-9.98047 7.22656Zm0 0"/><path fill="none" stroke="#000" stroke-miterlimit="10" stroke-width=".3961" d="M51.22266 28.76172c-4.48829.14062-8.44141 3.0039-9.98048 7.22656"/><path fill="none" stroke="#000" stroke-miterlimit="10" stroke-width=".3961" d="M85.9961 52.27735 51.57031 39.74609l-34.4297-12.53125"/><g clip-path="url(#d)"><path fill="none" stroke="#000" stroke-miterlimit="10" stroke-width=".3961" d="M51.57031 39.7461 50.32812.30467"/></g><use xlink:href="#e" x="4.29101" y="40.12931"/><use xlink:href="#f" x="90.5437" y="65.19055"/></svg>