<svg xmlns="http://www.w3.org/2000/svg" xmlns:xlink="http://www.w3.org/1999/xlink" width="61.506pt" height="54.456pt" viewBox="0 0 61.506 54.456"><defs><path id="a" d="m1.67188-1.25.48437.46875 2.01563-2.01562L6.1875-.78125 6.65625-1.25 4.64063-3.26562l2.01562-2.01563L6.1875-5.75l-2.01562 2-2.01563-2-.48437.46875 2.03125 2.01563Zm0 0"/><path id="b" d="M-.21875 0h2.60938l.07812-.32812-.64062-.0625c-.15626-.01563-.21876-.09375-.21876-.20313 0-.0625.03126-.14062.0625-.23437.39063-.73438.75-1.48438 1.1875-2.26563h2.60938L5.75-.70312s-.0625.28124-.3125.3125l-.625.0625L4.76563 0h2.84375l.07812-.32812L7.23438-.375c-.35938-.03125-.40625-.1875-.46875-.67187l-.84375-6.96875h-.82813L3.14063-4.59375c-.59375 1.03125-1.54688 2.75-1.98438 3.45313-.375.59375-.5625.71875-.92187.76562l-.375.04688Zm3.3125-3.53125L4.98438-6.9375l.42187 3.40625Zm0 0"/><path id="c" d="M0 0h3.51563C6.3125 0 6.875-1.4375 6.875-2.40625c0-1.21875-.89062-1.75-1.75-1.90625l.01563-.03125c1.54687-.1875 2.1875-1.0625 2.1875-1.9375 0-.9375-.54688-1.73437-2.6875-1.73437H1.71875l-.07812.32812.6875.0625c.20312.01563.28125.10938.28125.29688 0 .0625-.01563.17187-.04688.28125L1.20313-.96875C1.10937-.57812 1-.4375.71875-.40625L.0625-.32812Zm2.3125-.89062c0-.07813.01563-.17188.04688-.25L3.01563-4.125h.45312c1.15625 0 2.17188.34375 2.17188 1.65625 0 1.03125-.64063 2.0625-2.1875 2.0625-.90625 0-1.14063-.1875-1.14063-.48437m.79688-3.64063.59375-2.6875c.09375-.34375.15625-.40625.9375-.40625.96875 0 1.51562.5 1.51562 1.3125 0 1.20313-1.01562 1.78125-2.29687 1.78125Zm0 0"/><path id="d" d="M.60938-3.1875c0 1.53125.75 3.35938 3.625 3.35938.8125 0 1.60937-.10938 2.34375-.48438l.57812-1.84375H6.8125C6.17188-1 5.57813-.23437 4.15625-.23437c-1.34375 0-2.3125-.85938-2.3125-2.65625 0-1.04688.28125-2.32813.82813-3.25.57812-.96875 1.5-1.65625 2.73437-1.65625 1.46875 0 1.89063.6875 1.89063 1.95312h.35937l.42188-1.73437c-.67188-.42188-1.75-.625-2.5625-.625-2.1875 0-3.4375 1.03125-4.125 2.10937C.75-5.04687.60938-3.98437.60938-3.1875m0 0"/><clipPath id="e"><path d="M2 28h58.95703v17H2Zm0 0"/></clipPath></defs><path fill="#FFB266" d="m8.33594 34.02344 17.47656 1.52734c.3125-3.58594-.48437-7.1836-2.28516-10.30078Zm0 0"/><path fill="none" stroke="#000" stroke-miterlimit="10" stroke-width=".39456" d="M25.8125 35.55078c.3125-3.58594-.48438-7.1836-2.28516-10.30078"/><use xlink:href="#a" x="4.16956" y="36.90038"/><use xlink:href="#b" x="4.36065" y="29.66565"/><use xlink:href="#a" x="34.55205" y="19.3596"/><use xlink:href="#c" x="34.92829" y="12.12389"/><use xlink:href="#a" x="39.11843" y="39.95882"/><use xlink:href="#d" x="39.37685" y="49.63516"/><path fill="none" stroke="#000" stroke-miterlimit="10" stroke-width=".39456" d="m8.33594 34.02344 45.57421-26.3125"/><g clip-path="url(#e)"><path fill="none" stroke="#000" stroke-miterlimit="10" stroke-width=".39456" d="m8.33594 34.02344 52.42577 4.58594"/></g></svg>