<svg xmlns="http://www.w3.org/2000/svg" xmlns:xlink="http://www.w3.org/1999/xlink" width="65.48pt" height="51.99pt" viewBox="0 0 65.48 51.99"><defs><path id="a" d="M.23438-1.90625C.23438-.64062.6875.07813 1.70313.07813c.96875 0 1.4375-.60938 1.4375-1.39063 0-.82812-.53125-1.25-1.17188-1.25-.45312 0-.78125.26563-.96875.5 0-.9375.23438-1.79687.79688-1.79687.26562 0 .45312.23437.54687.60937.03125.07813.09375.14063.21875.14063.14063 0 .375-.09375.375-.3125 0-.26563-.32812-.6875-1.09375-.6875-.98437 0-1.60937.73437-1.60937 2.20312M1-1.42187c0-.35938.23438-.75.6875-.75.35938 0 .6875.29687.6875.98437 0 .59375-.1875 1.01563-.65625 1.01563C1.23438-.17187 1-.71875 1-1.42187m0 0"/><path id="b" d="M.1875-.65625c0 .23438.35938.73438 1.32813.73438C2.42188.07813 3-.35937 3-1.125c0-.84375-.73437-1.04687-1.01562-1.07812v-.03125c.32812-.0625.84375-.28125.84375-.875 0-.75-.625-1-1.26563-1-.75 0-1.23437.42187-1.23437.76562 0 .21875.25.32813.375.32813.09374 0 .15624-.0625.1875-.15625.14062-.4375.34375-.6875.65625-.6875.42187 0 .51562.4375.51562.73437 0 .29688-.07812.8125-.5625.8125-.26562 0-.45312-.07812-.5625-.07812-.09375 0-.125.07812-.125.20312s.03125.20313.125.20313c.10938 0 .29688-.07813.5625-.07813.40625 0 .70313.32813.70313.95313 0 .67187-.28125.9375-.6875.9375-.32813 0-.57813-.25-.71875-.6875-.03126-.10938-.10938-.1875-.21876-.1875-.15624 0-.39062.14062-.39062.39062m0 0"/><path id="c" d="M.21875-3.26562c0 .45312.375.82812.82813.82812.45312 0 .84375-.375.84375-.82812 0-.45313-.39063-.84375-.84375-.84375s-.82813.39062-.82813.84375m.34375 0c0-.3125.23438-.54688.48438-.54688.26562 0 .5.23438.5.54688s-.23438.53125-.5.53125c-.25 0-.48438-.21875-.48438-.53125m0 0"/><path id="d" d="M.65625 0h2.04688v-.20312L2.25-.23438c-.14062-.01562-.20312-.0625-.20312-.28124V-4.0625L2-4.10937l-1.32812.21875v.17187l.48437.07813c.125.01562.17188.0625.17188.26562v2.85938c0 .21874-.0625.26562-.20313.28124l-.46875.03126Zm0 0"/><path id="e" d="m.25-3.10937.1875.03125.04688-.125c.07812-.15625.15625-.25.42187-.25h1.60938c-.0625.21875-.1875.60937-.67188 1.26562C1.32813-1.51562.98438-.85937.98438-.25c0 .28125.1875.32813.40625.32813.1875 0 .375-.04688.375-.29688 0-.84375.14062-1.45312.4375-1.92187.46875-.75.73437-1.14063.90625-1.82813l-.07813-.0625H.46875Zm0 0"/><clipPath id="f"><path d="M32 20h32.96484v31.78125H32Zm0 0"/></clipPath><clipPath id="g"><path d="M0 .19922h45V32H0Zm0 0"/></clipPath></defs><path fill="#66b2b2" d="m38.58594 25.98828 4.90625 9.8125c3.71484-1.85937 6.0625-5.65625 6.0625-9.8125Zm0 0"/><path fill="none" stroke="#000" stroke-miterlimit="10" stroke-width=".39536" d="M43.49219 35.80078c3.71484-1.85938 6.0625-5.65625 6.0625-9.8125"/><use xlink:href="#a" x="51.94449" y="38.96202"/><use xlink:href="#b" x="55.25321" y="38.96202"/><use xlink:href="#c" x="58.56193" y="38.96202"/><path fill="#66b2b2" d="m25.78906 25.98828 4.90235-9.8086c-5.41797-2.70702-12.00391-.51171-14.71485 4.90626-.75781 1.52343-1.15625 3.20312-1.15625 4.90234Zm0 0"/><path fill="none" stroke="#000" stroke-miterlimit="10" stroke-width=".39536" d="M30.6914 16.17969c-5.41796-2.70703-12.0039-.51172-14.71483 4.90625-.75781 1.52344-1.15625 3.20312-1.15625 4.90234"/><use xlink:href="#d" x="8.23361" y="9.3482"/><use xlink:href="#d" x="11.54233" y="9.3482"/><use xlink:href="#e" x="14.85105" y="9.3482"/><use xlink:href="#c" x="18.15977" y="9.3482"/><g clip-path="url(#f)"><path fill="none" stroke="#000" stroke-miterlimit="10" stroke-width=".39536" d="M51.38281 51.58203 38.58594 25.98828h25.59374"/></g><g clip-path="url(#g)"><path fill="none" stroke="#000" stroke-miterlimit="10" stroke-width=".39536" d="M38.58594.39844 25.78907 25.98828H.19532"/></g></svg>