<svg xmlns="http://www.w3.org/2000/svg" width="121.707pt" height="23.763pt" viewBox="0 0 121.707 23.763"><defs><clipPath id="a"><path d="M60 12h22v11.52734H60Zm0 0"/></clipPath><clipPath id="b"><path d="M55 6h32v17.52734H55Zm0 0"/></clipPath><clipPath id="c"><path d="M65 0h55.96094v23.52734H65Zm0 0"/></clipPath><clipPath id="d"><path d="M.45703 0H77v23.52734H.45703Zm0 0"/></clipPath></defs><g clip-path="url(#a)"><path fill="#66b2b2" d="m71.15234 23.33203 9.92188-4.625c-2.55469-5.48047-9.07031-7.85156-14.54688-5.29687-2.93359 1.36718-5.10937 3.96484-5.94921 7.08984Zm0 0"/></g><g clip-path="url(#b)"><path fill="none" stroke="#000" stroke-miterlimit="10" stroke-width=".39457" d="M81.07422 18.70703c-2.55469-5.48047-9.07031-7.85156-14.54688-5.29687-2.93359 1.36718-5.10937 3.96484-5.94921 7.08984"/></g><g clip-path="url(#c)"><path fill="none" stroke="#000" stroke-miterlimit="10" stroke-width=".39457" d="M71.15234 23.33203 120.76562.19531"/></g><g clip-path="url(#d)"><path fill="none" stroke="#000" stroke-miterlimit="10" stroke-width=".39457" d="m71.15234 23.33203-70.5-18.89062"/></g></svg>