<svg xmlns="http://www.w3.org/2000/svg" xmlns:xlink="http://www.w3.org/1999/xlink" width="72.995pt" height="39.897pt" viewBox="0 0 72.995 39.897"><defs><path id="a" d="M.65625 0h2.0625v-.20312l-.45312-.03126C2.125-.25 2.0625-.29687 2.0625-.51561v-3.5625L2.01563-4.125l-1.34375.21875v.17188l.48437.07812c.125.01563.17188.0625.17188.26563v2.875c0 .21874-.0625.26562-.20313.28124l-.46875.03126Zm0 0"/><path id="b" d="m.25-3.125.1875.03125.04688-.125c.07812-.15625.15625-.25.42187-.25h1.625c-.0625.21875-.1875.60938-.6875 1.26563C1.32813-1.51562.98438-.875.98438-.25c0 .28125.20312.32813.42187.32813.1875 0 .35938-.04688.35938-.29688.01562-.85937.15624-1.46875.4375-1.9375.46875-.75.75-1.14062.90625-1.82812l-.0625-.0625H.46875Zm0 0"/><path id="c" d="M.21875-3.28125c0 .45313.375.82813.84375.82813.45313 0 .84375-.375.84375-.82813 0-.45312-.39062-.84375-.84375-.84375-.46875 0-.84375.39063-.84375.84375m.34375 0c0-.3125.23438-.54687.5-.54687.26563 0 .5.23437.5.54687s-.25.53125-.5.53125c-.26562 0-.5-.21875-.5-.53125m0 0"/><path id="e" d="M.23438-1.92187c0 1.28125.45312 2 1.46875 2 .98437 0 1.45312-.60938 1.45312-1.39063 0-.84375-.53125-1.26562-1.1875-1.26562-.4375 0-.78125.28125-.96875.5 0-.9375.25-1.8125.8125-1.8125.26563 0 .45313.25.54688.625.03125.07812.09375.15625.20312.15625.14063 0 .39063-.10938.39063-.32813 0-.26562-.32813-.6875-1.09375-.6875-1 0-1.625.73438-1.625 2.20313m.76562.5c0-.35938.25-.76563.70313-.76563.35937 0 .6875.29688.6875 1 0 .59375-.20313 1.01563-.67188 1.01563-.48437 0-.71875-.5625-.71875-1.25m0 0"/><path id="f" d="M.1875-.67187c0 .25.35938.75 1.32813.75.92187 0 1.5-.4375 1.5-1.21875 0-.82813-.73438-1.04688-1.03125-1.07813v-.01562c.32812-.0625.85937-.29688.85937-.89063 0-.75-.625-1-1.26562-1-.76563 0-1.25.42188-1.25.76563 0 .21875.26562.32812.375.32812s.15624-.0625.1875-.15625c.14062-.4375.34375-.70312.65625-.70312.42187 0 .53125.4375.53125.75 0 .29687-.09375.8125-.57813.8125-.26562 0-.45312-.07813-.54687-.07813-.10938 0-.14063.07813-.14063.20313S.84375-2 .95313-2c.09374 0 .28124-.0625.54687-.0625.42188 0 .71875.3125.71875.95313 0 .67187-.29687.9375-.6875.9375-.34375 0-.57812-.25-.71875-.6875-.04687-.125-.10937-.1875-.21875-.1875-.17187 0-.40625.14062-.40625.375m0 0"/><clipPath id="d"><path d="M19 18h17v21.79297H19Zm0 0"/></clipPath><clipPath id="g"><path d="M.08984 21h72.8086v18.79297H.08984Zm0 0"/></clipPath></defs><path fill="#ffb266" d="m36.4961 33.21094 10.85937-1.91407c-1.0586-5.99609-6.77734-10.0039-12.77344-8.9453-1.6875.29687-3.28125.98437-4.65625 2.0039Zm0 0"/><path fill="none" stroke="#000" stroke-miterlimit="10" stroke-width=".39748" d="M47.35547 31.29688c-1.0586-5.9961-6.77734-10.00391-12.77344-8.94532-1.6875.29688-3.28125.98438-4.65625 2.0039"/><use xlink:href="#a" x="38.60007" y="14.75192"/><use xlink:href="#a" x="41.92648" y="14.75192"/><use xlink:href="#b" x="45.25288" y="14.75192"/><use xlink:href="#c" x="48.57929" y="14.75192"/><path fill="#66cef5" d="m36.4961 33.21094-6.57032-8.85547c-3.35156 2.48828-5.01562 6.65625-4.28906 10.76953Zm0 0"/><g clip-path="url(#d)"><path fill="none" stroke="#000" stroke-miterlimit="10" stroke-width=".39748" d="M29.92578 24.35547c-3.35156 2.48828-5.01562 6.65625-4.28906 10.76953"/></g><use xlink:href="#e" x="12.64009" y="27.48704"/><use xlink:href="#f" x="15.9665" y="27.48704"/><use xlink:href="#c" x="19.2929" y="27.48704"/><g clip-path="url(#g)"><path fill="none" stroke="#000" stroke-dasharray="2.9811487069 2.9811487069" stroke-miterlimit="10" stroke-width=".39748" d="m72.69922 26.82813-36.20313 6.3828L.28906 39.59376"/></g><path fill="none" stroke="#000" stroke-miterlimit="10" stroke-width=".39748" d="M36.4961 33.21094 12.0078.19922"/></svg>