<svg xmlns="http://www.w3.org/2000/svg" xmlns:xlink="http://www.w3.org/1999/xlink" width="64.017pt" height="56.638pt" viewBox="0 0 64.017 56.638"><defs><path id="a" d="m1.73438-1.29687.5.5L4.3125-2.89062 6.40625-.79687l.48438-.5L4.8125-3.375l2.07813-2.09375-.48438-.48437L4.3125-3.875 2.23438-5.95312l-.5.48437L3.82813-3.375Zm0 0"/><path id="b" d="M-.23437 0h2.70312l.07813-.34375-.65625-.0625C1.73437-.42187 1.67187-.5 1.67187-.60937c0-.0625.03126-.15626.0625-.25.39063-.76563.78126-1.53125 1.21876-2.34375h2.6875L5.9375-.73437s-.0625.29687-.3125.32812l-.64062.0625L4.92188 0h2.9375l.07812-.34375L7.48438-.375C7.10938-.42187 7.0625-.59375 7-1.07812l-.875-7.20313h-.85937L3.25-4.75c-.60937 1.0625-1.60937 2.84375-2.04687 3.5625-.39063.625-.59375.75-.95313.79688l-.40625.04687Zm3.4375-3.65625 1.95312-3.51562.42188 3.51562Zm0 0"/><path id="c" d="M0 0h3.64063c2.89062 0 3.46875-1.48437 3.46875-2.48437 0-1.26563-.92188-1.8125-1.8125-1.98438l.01562-.01562c1.59375-.1875 2.28125-1.09375 2.28125-2 0-.96875-.57812-1.79688-2.78125-1.79688H1.76563l-.0625.34375.70312.0625c.20313.01563.29688.09375.29688.28125 0 .07813-.03125.1875-.04688.29688L1.23438-1c-.09376.40625-.20313.54688-.5.57813L.0625-.34375Zm2.39063-.92187c0-.07813.01562-.17188.04687-.26563l.6875-3.07812h.46875c1.1875 0 2.23438.34375 2.23438 1.71875 0 1.0625-.65625 2.125-2.26563 2.125-.9375 0-1.17187-.1875-1.17187-.5m.82812-3.75.625-2.78125c.07813-.35938.14063-.42188.95313-.42188 1 0 1.5625.5 1.5625 1.34375 0 1.25-1.04688 1.85938-2.375 1.85938Zm0 0"/><path id="d" d="M.625-3.29687c0 1.59375.78125 3.46875 3.75 3.46875.85938 0 1.67188-.10938 2.4375-.48438l.57813-1.92187h-.35938C6.375-1.03125 5.78125-.25 4.29688-.25c-1.39063 0-2.39063-.89062-2.39063-2.73437 0-1.07813.28125-2.40625.85938-3.35938C3.35938-7.35937 4.3125-8.0625 5.59375-8.0625c1.51563 0 1.95313.70313 1.95313 2.01563h.375l.42187-1.79688c-.6875-.4375-1.79687-.64062-2.64062-.64062-2.26563 0-3.5625 1.0625-4.26563 2.1875-.65625 1.0625-.8125 2.17187-.8125 3m0 0"/><clipPath id="e"><path d="M3 29h60.05078v17H3Zm0 0"/></clipPath></defs><path fill="#ffb266" d="m8.6211 35.44922 10.84765.94922c.1914-2.22657-.30078-4.46094-1.41797-6.39453Zm0 0"/><path fill="none" stroke="#000" stroke-miterlimit="10" stroke-width=".39247" d="M19.46875 36.39844c.1914-2.22656-.30078-4.46094-1.41797-6.39453"/><use xlink:href="#a" x="4.30884" y="38.42679"/><use xlink:href="#b" x="4.25171" y="30.94173"/><use xlink:href="#a" x="35.74611" y="20.27748"/><use xlink:href="#c" x="35.86725" y="12.79242"/><use xlink:href="#a" x="40.47056" y="41.5912"/><use xlink:href="#d" x="40.20268" y="51.60149"/><path fill="none" stroke="#000" stroke-miterlimit="10" stroke-width=".39247" d="M8.6211 35.44922 55.76562 8.22656"/><g clip-path="url(#e)"><path fill="none" stroke="#000" stroke-miterlimit="10" stroke-width=".39247" d="m8.6211 35.44922 54.23047 4.7461"/></g></svg>