<svg xmlns="http://www.w3.org/2000/svg" xmlns:xlink="http://www.w3.org/1999/xlink" width="80.309pt" height="43.455pt" viewBox="0 0 80.309 43.455"><defs><path id="a" d="m1.67188-1.25.48437.46875 2-2.01562L6.17188-.78125 6.64063-1.25l-2-2.01562 2-2.01563L6.17188-5.75 4.15625-3.73437l-2-2.01563-.48437.46875L3.6875-3.26562Zm0 0"/><path id="b" d="M-.21875 0h2.60938l.0625-.32812-.64063-.0625c-.14062-.01563-.20312-.09375-.20312-.20313 0-.0625.03124-.14062.0625-.23437.375-.73438.75-1.48438 1.1875-2.26563h2.59375l.28125 2.39063s-.0625.28124-.3125.3125l-.60938.0625L4.75 0h2.84375l.0625-.32812-.4375-.04688C6.85938-.40625 6.8125-.5625 6.75-1.04687L5.90625-8h-.82812l-1.9375 3.40625c-.59375 1.04688-1.54688 2.76563-1.98438 3.45313-.375.59375-.5625.71875-.92187.76562l-.375.04688Zm3.3125-3.53125 1.875-3.39062.42188 3.39062Zm0 0"/><path id="c" d="M0 0h3.5c2.79688 0 3.35938-1.4375 3.35938-2.39062 0-1.21875-.89063-1.75-1.75-1.90625l.01562-.03125c1.54688-.1875 2.1875-1.0625 2.1875-1.9375C7.3125-7.1875 6.76563-8 4.64063-8h-2.9375l-.0625.34375.6875.0625q.28125 0 .28125.28125c0 .0625-.03125.17188-.04688.28125L1.1875-.95312C1.10938-.57812 1-.4375.71875-.40625L.0625-.32812Zm2.3125-.89062c0-.07813.01563-.17188.03125-.25l.67188-2.96875h.45312c1.14063 0 2.15625.32812 2.15625 1.65625C5.625-1.42187 5-.40625 3.4375-.40625c-.90625 0-1.125-.1875-1.125-.48437m.78125-3.625.60938-2.67188c.07812-.34375.14062-.40625.92187-.40625.96875 0 1.51563.48438 1.51563 1.29688 0 1.20312-1.01563 1.78125-2.29688 1.78125Zm0 0"/><path id="d" d="M.60938-3.17187c0 1.53125.75 3.34375 3.60937 3.34375.82813 0 1.60938-.10938 2.34375-.48438l.5625-1.84375h-.34375C6.15625-1 5.57813-.23437 4.14063-.23437c-1.34375 0-2.29688-.85938-2.29688-2.64063 0-1.04687.26563-2.32812.82813-3.25.57812-.96875 1.48437-1.64062 2.71875-1.64062 1.46875 0 1.89062.67187 1.89062 1.9375h.35938l.40625-1.73438C7.39063-7.98437 6.3125-8.17187 5.5-8.17187c-2.1875 0-3.4375 1.01562-4.10937 2.09375C.75-5.04687.60938-3.96875.60938-3.17187m0 0"/><clipPath id="e"><path d="M.15625 20H46v22.91797H.15625Zm0 0"/></clipPath><clipPath id="f"><path d="M34 6h45.46875v26H34Zm0 0"/></clipPath></defs><path fill="#66B2B2" d="m39.8125 26.3711 16.4414-5.98438C52.94923 11.30469 42.91017 6.625 33.82814 9.92969 24.7461 13.23437 20.06642 23.27344 23.3711 32.35547Zm0 0"/><path fill="none" stroke="#000" stroke-miterlimit="10" stroke-width=".39356" d="M56.25391 20.38672C52.94922 11.30468 42.91016 6.62499 33.82812 9.92968S20.0664 23.27344 23.3711 32.35548"/><use xlink:href="#a" x="35.65592" y="29.24225"/><use xlink:href="#b" x="35.84653" y="38.7105"/><use xlink:href="#a" x="9.34886" y="38.81717"/><use xlink:href="#c" x="9.72415" y="31.60067"/><use xlink:href="#a" x="61.96298" y="19.66734"/><use xlink:href="#d" x="62.22174" y="12.27801"/><g clip-path="url(#e)"><path fill="none" stroke="#000" stroke-miterlimit="10" stroke-width=".39356" d="M39.8125 26.3711.35155 40.73437"/></g><g clip-path="url(#f)"><path fill="none" stroke="#000" stroke-miterlimit="10" stroke-width=".39356" d="m39.8125 26.3711 39.46095-14.3633"/></g></svg>