<svg xmlns="http://www.w3.org/2000/svg" width="121.707pt" height="75.721pt" viewBox="0 0 121.707 75.721"><defs><clipPath id="a"><path d="M60 64h22v11.4414H60Zm0 0"/></clipPath><clipPath id="b"><path d="M54 58h33v17.4414H54Zm0 0"/></clipPath><clipPath id="c"><path d="M65 46h56.33594v29.4414H65Zm0 0"/></clipPath><clipPath id="d"><path d="M.07813 50H77v25.4414H.07813Zm0 0"/></clipPath><clipPath id="e"><path d="M53 0h30v75.4414H53Zm0 0"/></clipPath></defs><g clip-path="url(#a)"><path fill="#66b2b2" d="m71.21875 75.04688 9.98047-4.65626c-2.57031-5.51171-9.125-7.89843-14.63672-5.32812-2.94922 1.375-5.14062 3.98828-5.98437 7.13281Zm0 0"/></g><g clip-path="url(#b)"><path fill="none" stroke="#000" stroke-miterlimit="10" stroke-width=".39704" d="M81.19922 70.39062c-2.57031-5.51171-9.125-7.89843-14.63672-5.32812-2.94922 1.375-5.14063 3.98828-5.98438 7.13281"/></g><g clip-path="url(#c)"><path fill="none" stroke="#000" stroke-miterlimit="10" stroke-width=".39704" d="m71.21875 75.04688 49.92188-23.28126"/></g><g clip-path="url(#d)"><path fill="none" stroke="#000" stroke-miterlimit="10" stroke-width=".39704" d="M71.21875 75.04688.27343 56.03906"/></g><g clip-path="url(#e)"><path fill="none" stroke="#ff7f00" stroke-miterlimit="10" stroke-width=".79408" d="M71.21875 75.04688 64.84765.39453"/></g></svg>