<svg xmlns="http://www.w3.org/2000/svg" xmlns:xlink="http://www.w3.org/1999/xlink" width="134.4pt" height="92.715pt" viewBox="0 0 134.4 92.715"><defs><path id="a" d="m3.03125-2.28125.875.875L7.54688-5.0625l3.65625 3.65625.84375-.875-3.64063-3.625 3.64063-3.67187-.84375-.84375-3.65625 3.64062-3.64063-3.64062-.875.84375L6.6875-5.90625Zm0 0"/><path id="b" d="M-.40625 0h4.73438l.14062-.60937-1.17187-.10938c-.26563-.01562-.375-.15625-.375-.35937 0-.10938.04687-.26563.10937-.42188.6875-1.32812 1.35938-2.6875 2.14063-4.09375h4.71875l.5 4.32813s-.10938.5-.54688.54687l-1.125.10938L8.60938 0h5.15625l.14062-.60937-.8125-.0625c-.64062-.0625-.73437-.35938-.84375-1.21875L10.70313-14.5H9.21875L5.6875-8.32812c-1.0625 1.875-2.8125 5-3.59375 6.25C1.42188-.98437 1.07813-.76562.42188-.6875l-.6875.07813Zm6-6.40625 3.42188-6.15625.75 6.15625Zm0 0"/><path id="c" d="M0 0h6.35938c5.0625 0 6.09375-2.60937 6.09375-4.34375 0-2.21875-1.625-3.17187-3.17188-3.46875l.01563-.04687c2.79687-.32813 3.98437-1.90625 3.98437-3.5 0-1.6875-1.01562-3.14063-4.875-3.14063h-5.3125l-.125.59375 1.25.10938c.35938.03125.51563.1875.51563.51562 0 .14063-.04688.3125-.09375.51563L2.17188-1.73437c-.15625.6875-.35938.9375-.875 1l-1.1875.125Zm4.1875-1.60937c0-.15626.03125-.3125.07813-.46875l1.20312-5.375h.82813c2.0625 0 3.90625.60937 3.90625 2.98437 0 1.875-1.14063 3.73438-3.95313 3.73438-1.65625 0-2.0625-.34375-2.0625-.875M5.625-8.1875l1.09375-4.85937c.15625-.625.26563-.75 1.67188-.75 1.76562 0 2.75.90625 2.75 2.375 0 2.1875-1.84375 3.23437-4.15625 3.23437Zm0 0"/><path id="d" d="M1.09375-5.75c0 2.76563 1.35938 6.0625 6.5625 6.0625 1.48438 0 2.92188-.20312 4.26563-.875l1.01562-3.34375h-.625C11.15625-1.8125 10.10938-.42187 7.51563-.42187c-2.42188 0-4.17188-1.5625-4.17188-4.79688 0-1.90625.5-4.21875 1.5-5.89062 1.04688-1.76563 2.70313-2.98438 4.95313-2.98438 2.65625 0 3.40625 1.21875 3.40625 3.51563h.65625l.75-3.14063c-1.20313-.76562-3.15625-1.125-4.64063-1.125-3.9375 0-6.21875 1.85938-7.45312 3.82813-1.15625 1.875-1.42188 3.8125-1.42188 5.26562m0 0"/><clipPath id="e"><path d="M52 43h81.80078v26H52Zm0 0"/></clipPath></defs><path fill="#66CEF5" d="m58.5664 62.53906 31.26563-5.51172c-3.04297-17.26953-19.51172-28.79687-36.77734-25.7539-7.35157 1.29687-14.01172 5.14062-18.8086 10.85937Zm0 0"/><path fill="none" stroke="#000" stroke-miterlimit="10" stroke-width=".39673" d="M89.83204 57.02734C86.78908 39.7578 70.32032 28.23045 53.0547 31.27342c-7.35157 1.29688-14.01173 5.14063-18.8086 10.85938"/><use xlink:href="#a" x="51.02322" y="67.75"/><use xlink:href="#b" x="51.36868" y="84.9293"/><use xlink:href="#a" x="12.11591" y="35.10274"/><use xlink:href="#c" x="27.54304" y="22.00721"/><use xlink:href="#a" x="101.04292" y="58.93037"/><use xlink:href="#d" x="101.51083" y="45.52322"/><path fill="none" stroke="#000" stroke-miterlimit="10" stroke-width=".39673" d="M58.5664 62.53906.1992 13.56248"/><g clip-path="url(#e)"><path fill="none" stroke="#000" stroke-miterlimit="10" stroke-width=".39673" d="m58.5664 62.53906 75.0391-13.23047"/></g></svg>