<svg xmlns="http://www.w3.org/2000/svg" xmlns:xlink="http://www.w3.org/1999/xlink" width="155.741pt" height="145.05pt" viewBox="0 0 155.741 145.05"><defs><path id="a" d="m1.6875-1.26562.48438.48437L4.1875-2.8125 6.21875-.78125l.46875-.48437-2.01562-2.01563L6.6875-5.3125l-.46875-.46875L4.1875-3.76562 2.17188-5.78125l-.48438.46875 2.03125 2.03125Zm0 0"/><path id="b" d="M.75-3.14062C.75-1.40625 1.64063-.10937 3.5.125c.54688 1.01563 1.71875 2.23438 3.1875 2.23438.29688 0 .65625-.0625.85938-.1875l-.03125-.1875C6.39063 1.96875 5.53125 1.09375 4.85938.125c2.375-.32812 3.73437-2.67187 3.73437-4.9375 0-2.39062-1.4375-3.42187-3.35937-3.42187-3 0-4.48438 2.76562-4.48438 5.09375m1.21875.46875c0-2.07813 1-5.15625 3.3125-5.15625 1.28125 0 2.09375.76562 2.09375 2.40625 0 2.82812-1.32812 5.1875-3.32812 5.1875-1.26563 0-2.07813-.8125-2.07813-2.4375m0 0"/><path id="c" d="M0 0h3.29688l.0625-.32812-.79688-.07813C2.35938-.42187 2.28125-.5 2.28125-.6875c0-.07812.01563-.17187.03125-.28125L2.82813-3.25h.875c.98437 0 1.90625-.14062 2.57812-.54687.73438-.45313 1.17188-1.25 1.17188-2.125 0-.78125-.375-1.39063-.9375-1.71875-.54688-.29688-1.29688-.40625-2.0625-.40625H1.73438l-.09376.34375.70313.04687c.1875.01563.28125.10938.28125.3125 0 .0625-.01562.15625-.03125.26563L1.1875-.96875c-.09375.40625-.20312.53125-.48437.5625L.0625-.32812Zm3-3.90625c0-.07812 0-.15625.03125-.25l.70313-3.07812c.07812-.29688.15625-.40625.75-.40625 1.14062 0 1.73437.53125 1.73437 1.53125 0 1.65625-.92187 2.45312-2.5 2.45312-.59375 0-.71875-.0625-.71875-.25m0 0"/><path id="d" d="M0 0h3.1875L3.25-.32812l-.6875-.0625C2.35938-.40625 2.26563-.5 2.26563-.6875c0-.0625.03125-.17187.04687-.28125l.625-2.8125h.71875c1.125 0 1.28125.26563 1.28125 1.625C4.9375-.75 4.9375 0 6.15625 0h.90625l.10938-.32812c-.8125-.125-1.09375-.15625-1.09375-1.65625 0-1.1875-.09375-1.6875-1.0625-2.01563 1.42187-.1875 2.39062-1.03125 2.39062-2.17187 0-.82813-.35937-1.875-2.54687-1.875h-3.125l-.09376.34375.70313.04687c.1875.01563.28125.10938.28125.3125 0 .0625-.01562.15625-.03125.26563L1.1875-.96875c-.09375.40625-.20312.53125-.48437.5625L.0625-.32812Zm3.04688-4.1875.67187-3.01562c.09375-.32813.125-.4375 1.01563-.4375.75 0 1.45312.32812 1.45312 1.34375 0 1.39062-.90625 2.10937-2.40625 2.10937Zm0 0"/><clipPath id="e"><path d="M12 73h35v71.10547H12Zm0 0"/></clipPath><clipPath id="f"><path d="M12 0h143.10547v85H12Zm0 0"/></clipPath></defs><path fill="#66B2B2" d="m17.71875 79.40234 6.01953 16.53907c5.91016-2.14844 10.22266-7.28907 11.3125-13.48438.71875-4.07422-.01953-8.26953-2.08984-11.85547Zm0 0"/><path fill="none" stroke="#000" stroke-miterlimit="10" stroke-width=".39591" d="M23.73828 95.9414c5.91016-2.14843 10.22266-7.28906 11.3125-13.48437.71875-4.07422-.01953-8.26953-2.08984-11.85547"/><use xlink:href="#a" x="13.53685" y="82.29203"/><use xlink:href="#b" x="4.50202" y="72.66906"/><use xlink:href="#a" x="25.577" y="115.37237"/><use xlink:href="#c" x="34.12998" y="116.50396"/><use xlink:href="#a" x="74.50951" y="47.08959"/><use xlink:href="#d" x="74.68337" y="39.82914"/><g clip-path="url(#e)"><path fill="none" stroke="#000" stroke-miterlimit="10" stroke-width=".39591" d="m17.71875 79.40234 23.47656 64.5078"/></g><g clip-path="url(#f)"><path fill="none" stroke="#000" stroke-miterlimit="10" stroke-width=".39591" d="M17.71875 79.40234 154.91014.19532"/></g></svg>