<svg xmlns="http://www.w3.org/2000/svg" xmlns:xlink="http://www.w3.org/1999/xlink" width="424.262pt" height="90.429pt" viewBox="0 0 424.262 90.429"><defs><path id="a" d="m1.6875-1.26562.48438.48437L4.1875-2.8125 6.21875-.78125l.46875-.48437-2.01562-2.01563L6.6875-5.3125l-.46875-.46875L4.1875-3.76562 2.17188-5.78125l-.48438.46875 2.03125 2.03125Zm0 0"/><path id="b" d="M-.21875 0h2.625l.0625-.32812-.64062-.0625C1.6875-.40625 1.625-.48437 1.625-.59375c0-.0625.01563-.15625.0625-.23437.375-.75.75-1.5 1.1875-2.28125h2.60938l.28125 2.40625s-.0625.28124-.3125.3125l-.60938.0625L4.78125 0h2.85938l.0625-.32812-.4375-.04688c-.35938-.03125-.40625-.1875-.46875-.67187l-.85938-7h-.82812l-1.95313 3.4375c-.59375 1.03125-1.5625 2.76562-2 3.45312-.35937.60938-.5625.73438-.92187.76563l-.39063.0625Zm3.32813-3.54687L5-6.96875l.42188 3.42188Zm0 0"/><path id="c" d="M0 0h3.53125c2.8125 0 3.375-1.45312 3.375-2.40625 0-1.23437-.90625-1.76562-1.76562-1.92187l.01562-.03125c1.54688-.1875 2.20313-1.0625 2.20313-1.9375 0-.9375-.54688-1.75-2.6875-1.75H1.71875l-.07812.34375.70312.0625q.28125 0 .28125.28125c0 .07812-.03125.17187-.04687.28125l-1.375 6.10937C1.10937-.57812 1-.45312.71875-.40625L.0625-.32812Zm2.32813-.89062c0-.09376.01562-.17188.03125-.26563l.67187-2.98437h.45313c1.15625 0 2.17187.34375 2.17187 1.67187 0 1.03125-.625 2.0625-2.1875 2.0625-.92187 0-1.14062-.1875-1.14062-.48437M3.125-4.54687l.59375-2.6875c.09375-.35938.15625-.40625.9375-.40625.96875 0 1.51563.48437 1.51563 1.29687 0 1.21875-1.01563 1.79688-2.29688 1.79688Zm0 0"/><path id="d" d="M.60938-3.1875c0 1.53125.75 3.35938 3.64062 3.35938.82813 0 1.60938-.10938 2.35938-.48438l.5625-1.85937h-.34375C6.1875-1 5.60938-.23437 4.17188-.23437c-1.34375 0-2.3125-.85938-2.3125-2.65625 0-1.0625.26562-2.34375.82812-3.26563.57813-.98437 1.5-1.67187 2.75-1.67187 1.46875 0 1.89063.6875 1.89063 1.96875h.35937l.42188-1.75c-.67188-.42188-1.76563-.625-2.57813-.625-2.1875 0-3.45312 1.03125-4.14062 2.125C.75-5.07812.60938-4 .60938-3.1875m0 0"/><path id="f" d="M0 0h3.5625c2.32813 0 3.67188-.84375 4.51563-2.10937.67187-1 .78125-1.96875.78125-2.67188 0-.9375-.32813-1.875-1-2.4375-.6875-.5625-1.71875-.82812-3.01563-.82812h-3.125l-.07812.34375.70312.04687c.1875.01563.26563.10938.26563.29688 0 .07812-.01563.17187-.03125.28125L1.1875-.96875C1.09375-.57812 1-.4375.71875-.40625L.0625-.32812Zm2.29688-.85937c0-.04688 0-.09376.01562-.14063l1.40625-6.21875c.09375-.39062.25-.42187 1.26563-.42187 2.42187.04687 2.625 1.67187 2.625 2.60937 0 1-.23438 1.9375-.75 2.79688C6.1875-1.14062 5.20313-.40625 3.26563-.40625c-.5625 0-.96875-.07812-.96875-.45312m0 0"/><path id="g" d="M.125 0h6.0625l.59375-2.04687H6.4375C5.84375-.60937 5.32813-.40625 3.89063-.40625c-1.375 0-1.45313-.17187-1.45313-.48437 0-.125.03125-.29688.09375-.53125L3.125-3.96875h1.51563c.85937 0 1.03125.17188 1.03125.67188 0 .10937 0 .20312-.01563.32812H6l.54688-2.42187H6.1875c-.29687.79687-.42187.98437-1.45312.98437H3.21875L3.875-7.29687c.0625-.29688.14063-.34375.32813-.34375h1.40625c1.14062 0 1.375.29687 1.375.92187 0 .28125-.04688.60938-.04688.60938h.34375l.4375-1.9375h-5.875L1.75-7.70312l.71875.04687c.1875.01563.28125.09375.28125.28125 0 .07813-.01562.15625-.04687.26563l-1.375 6.14062c-.10938.40625-.20313.53125-.48438.5625L.1875-.32812Zm0 0"/><path id="h" d="M.125 0H3.5l.07813-.32812-.875-.0625C2.48438-.40625 2.40625-.5 2.40625-.6875c0-.0625 0-.14062.03125-.23437l.64063-2.875H4.625c.85938 0 1.01563.15625 1.01563.65625 0 .09375 0 .20312-.01563.32812h.35938L6.51563-5.25h-.34375c-.29688.8125-.4375 1-1.45313 1H3.1875l.6875-3.03125c.07813-.3125.14063-.35937.34375-.35937h1.42188C6.78125-7.64062 7-7.34375 7-6.73437c0 .29687-.03125.60937-.03125.60937h.35938l.4375-1.92187H1.84375l-.07812.34375.70312.0625c.1875 0 .28125.10937.28125.29687q0 .09375-.04687.23438l-1.375 6.1875c-.09376.34375-.20313.5-.48438.53125l-.65625.0625Zm0 0"/><path id="i" d="M.5-3.3125c0 1.15625.375 2.10938.98438 2.625.6875.59375 1.64062.85938 2.70312.85938.85938 0 1.79688-.20313 2.46875-.4375l.5625-2.35938c.09375-.39062.15625-.5625.35938-.57812l.5-.04688.07812-.34375h-3.0625l-.0625.34375.85938.0625c.15625.01563.23437.09375.23437.28125 0 .07813-.01562.15625-.03125.28125L5.67188-.85937c-.09375.32812-.23438.625-1.45313.625-1.40625 0-2.4375-.9375-2.4375-3 0-1.85938.90625-4.59375 3.6875-4.59375 1.51563 0 1.78125.89062 1.85938 2h.34375l.42187-1.8125c-.70312-.39063-1.64062-.59375-2.60937-.59375-1.78125 0-3.07813.64062-3.89063 1.6875C.82813-5.5625.5-4.34375.5-3.3125m0 0"/><path id="j" d="M0 0h3.1875L3.25-.32812l-.6875-.0625c-.20312 0-.28125-.10938-.28125-.29688 0-.07812.01563-.17187.03125-.28125l.67188-3H6.875l-.6875 3c-.09375.40625-.20312.53125-.5.5625l-.64062.07813L4.98438 0h3.1875l.0625-.32812-.67188-.0625c-.21875 0-.29687-.10938-.29687-.29688 0-.07812.01562-.17187.03125-.28125l1.40625-6.10937c.09375-.39063.1875-.5625.48437-.57813l.64063-.04687.07812-.34375h-3.1875l-.07812.34375.6875.04687c.20312.01563.28125.125.28125.3125 0 .07813-.01563.17188-.03125.26563l-.59375 2.67187H3.09375l.60938-2.67187c.09375-.39063.1875-.5625.48437-.57813l.65625-.04687.0625-.34375H1.73438l-.09376.34375.70313.04687c.1875.01563.28125.125.28125.3125 0 .07813-.01562.17188-.03125.26563L1.1875-.96875c-.09375.40625-.20312.53125-.48437.5625L.0625-.32812Zm0 0"/><path id="k" d="M.25 0h3.17188L3.5-.32812l-.6875-.0625c-.20312 0-.28125-.10938-.28125-.29688 0-.07812 0-.17187.03125-.28125l1.39063-6.10937c.07812-.35938.1875-.5625.48437-.57813l.65625-.04687.0625-.34375H1.98438l-.09376.34375.70313.04687c.1875.01563.28125.125.28125.3125 0 .07813-.01562.17188-.04687.26563L1.4375-.96875c-.09375.375-.20312.53125-.48437.5625L.3125-.32812Zm0 0"/><clipPath id="e"><path d="M3 65h116v24.86328H3Zm0 0"/></clipPath><clipPath id="l"><path d="M355 29h67.5625v48H355Zm0 0"/></clipPath></defs><path fill="#66B2B2" d="m9.27344 70.61719 17.33594 3.0586c.6289-3.5586.14453-7.22267-1.38282-10.4961Zm0 0"/><path fill="none" stroke="#000" stroke-miterlimit="10" stroke-width=".396" d="M26.60937 73.67578c.6289-3.5586.14453-7.22265-1.38281-10.49609"/><use xlink:href="#a" x="5.08933" y="73.50884"/><use xlink:href="#b" x="5.28112" y="66.2467"/><use xlink:href="#a" x="52.95708" y="51.18778"/><use xlink:href="#c" x="53.3347" y="43.92564"/><use xlink:href="#a" x="74.44142" y="85.73663"/><use xlink:href="#d" x="74.70178" y="78.30158"/><path fill="none" stroke="#000" stroke-miterlimit="10" stroke-width=".396" d="m9.27344 70.61719 63.8242-29.76171"/><g clip-path="url(#e)"><path fill="none" stroke="#000" stroke-miterlimit="10" stroke-width=".396" d="m9.27344 70.61719 104.02731 18.34374"/></g><path fill="#66B2B2" d="m255.75 70.61719 15.2461-8.80078c-4.85938-8.42188-15.62891-11.3047-24.04688-6.44532-4.50781 2.60157-7.63281 7.06641-8.53516 12.19141Zm0 0"/><path fill="none" stroke="#000" stroke-miterlimit="10" stroke-width=".396" d="M270.99602 61.8164c-4.85937-8.42186-15.6289-11.30468-24.04687-6.4453-4.5078 2.60156-7.6328 7.0664-8.53515 12.1914"/><use xlink:href="#a" x="251.56401" y="73.50884"/><use xlink:href="#f" x="251.19235" y="83.03469"/><use xlink:href="#a" x="297.30419" y="47.10059"/><use xlink:href="#g" x="297.56454" y="39.83845"/><use xlink:href="#a" x="182.21192" y="61.28006"/><use xlink:href="#h" x="182.46532" y="54.01891"/><path fill="none" stroke="#000" stroke-miterlimit="10" stroke-width=".396" d="m255.74993 70.61719 60.98827-35.21093m-60.98827 35.21093L151.71871 52.27735"/><path fill="#66B2B2" d="m361.38281 70.61719 15.2461-8.80078c-3.14454-5.44532-8.95704-8.8047-15.2461-8.8047Zm0 0"/><path fill="none" stroke="#000" stroke-miterlimit="10" stroke-width=".396" d="M376.6288 61.8164c-3.14453-5.4453-8.95702-8.80468-15.24609-8.80468"/><use xlink:href="#a" x="357.19601" y="73.50884"/><use xlink:href="#i" x="357.17713" y="83.22052"/><use xlink:href="#a" x="402.93619" y="47.10059"/><use xlink:href="#j" x="402.35486" y="39.83845"/><use xlink:href="#a" x="357.19601" y="27.73487"/><use xlink:href="#k" x="352.21745" y="28.86673"/><g clip-path="url(#l)"><path fill="none" stroke="#000" stroke-miterlimit="10" stroke-width=".396" d="m361.38271 70.61719 60.98827-35.21093"/></g><path fill="none" stroke="#000" stroke-miterlimit="10" stroke-width=".396" d="M361.38271 70.61719V.19533"/></svg>