<svg xmlns="http://www.w3.org/2000/svg" xmlns:xlink="http://www.w3.org/1999/xlink" width="249.066pt" height="231.841pt" viewBox="0 0 249.066 231.841"><defs><path id="a" d="m2.70313-2.03125.76562.78125L6.70313-4.5l3.26562 3.25.75-.78125-3.23437-3.23437 3.23437-3.25-.75-.75-3.26562 3.23437-3.23438-3.23437-.76562.75 3.25 3.25Zm0 0"/><path id="b" d="M1.1875-5.04687c0 2.78125 1.45313 4.875 4.42188 5.25.875 1.625 2.76562 3.59375 5.10937 3.59375.46875 0 1.0625-.125 1.39063-.29688l-.0625-.32812c-1.78125-.01563-3.17188-1.40625-4.25-2.96875 3.79687-.54688 6-4.29688 6-7.92188 0-3.82812-2.32813-5.48437-5.40625-5.48437-4.79688 0-7.20313 4.4375-7.20313 8.15625m1.96875.76562c0-3.34375 1.60938-8.26562 5.3125-8.26562 2.04688 0 3.35938 1.21875 3.35938 3.85937 0 4.54688-2.125 8.3125-5.34375 8.3125-2.01563 0-3.32813-1.3125-3.32813-3.90625m0 0"/><path id="c" d="M0 0h5.29688l.09375-.53125-1.28125-.125c-.3125-.01562-.45313-.15625-.45313-.45312 0-.125.01563-.26563.04688-.4375l.84375-3.67188H5.9375c1.57813 0 3.04688-.21875 4.125-.875 1.1875-.73437 1.89063-2 1.89063-3.39062 0-1.26563-.60938-2.25-1.51563-2.76563-.875-.48437-2.0625-.65625-3.29687-.65625H2.78125l-.14062.54688 1.10937.07812c.3125.01563.45313.17188.45313.5 0 .10938-.01563.25-.0625.4375L1.90625-1.54687c-.15625.64062-.3125.85937-.78125.89062l-1.03125.125Zm4.79688-6.26562c0-.125.03125-.25.0625-.40625L6-11.60937c.10938-.46875.23438-.65625 1.1875-.65625 1.84375 0 2.79688.875 2.79688 2.46875C9.98438-7.14062 8.5-5.875 5.96875-5.875c-.95312 0-1.17187-.09375-1.17187-.39062m0 0"/><path id="d" d="M0 0h5.09375l.125-.53125-1.10937-.10937c-.3125-.01563-.48438-.15626-.48438-.45313 0-.10937.04688-.28125.07813-.45312l1.01562-4.53125h1.14063c1.79687 0 2.0625.4375 2.0625 2.625C7.92188-1.1875 7.92188 0 9.875 0h1.45313l.1875-.53125C10.20313-.71875 9.75-.78125 9.75-3.17187c0-1.90625-.17187-2.71875-1.71875-3.23438 2.28125-.32812 3.82813-1.65625 3.82813-3.5 0-1.32812-.5625-3-4.0625-3H2.78125l-.14062.54688 1.10937.07812c.3125.01563.45313.17188.45313.5 0 .10938-.01563.25-.0625.4375L1.90625-1.54687c-.15625.65625-.3125.85937-.78125.89062l-1.03125.125Zm4.875-6.73437 1.09375-4.8125c.14063-.53125.20313-.71875 1.60938-.71875 1.21875 0 2.34375.53125 2.34375 2.17187 0 2.21875-1.45313 3.35938-3.84375 3.35938Zm0 0"/><clipPath id="e"><path d="M22 122h50v109.32813H22Zm0 0"/></clipPath><clipPath id="f"><path d="M22 .35547h226.13672V134H22Zm0 0"/></clipPath></defs><path fill="#66B2B2" d="m27.82422 127.63281 9.65625 26.53906c9.48047-3.44921 16.40234-11.69921 18.15234-21.6328 1.15235-6.53907-.03515-13.27735-3.35156-19.02345Zm0 0"/><path fill="none" stroke="#000" stroke-miterlimit="10" stroke-width=".39701" d="M37.48047 154.17187c9.48047-3.44921 16.40234-11.69921 18.15234-21.6328 1.15235-6.53907-.03515-13.27735-3.35156-19.02344"/><use xlink:href="#a" x="21.11283" y="132.26919"/><use xlink:href="#b" x="6.61619" y="116.83009"/><use xlink:href="#a" x="40.43138" y="185.34416"/><use xlink:href="#c" x="54.15392" y="187.16135"/><use xlink:href="#a" x="118.94197" y="75.788"/><use xlink:href="#d" x="119.21992" y="64.13968"/><g clip-path="url(#e)"><path fill="none" stroke="#000" stroke-miterlimit="10" stroke-width=".39701" d="m27.82422 127.63281 37.66797 103.5"/></g><g clip-path="url(#f)"><path fill="none" stroke="#000" stroke-miterlimit="10" stroke-width=".39701" d="M27.82422 127.63281 247.9375.55078"/></g></svg>