<svg xmlns="http://www.w3.org/2000/svg" xmlns:xlink="http://www.w3.org/1999/xlink" width="71.355pt" height="70.472pt" viewBox="0 0 71.355 70.472"><defs><path id="a" d="m1.75-1.3125.5.5 2.07813-2.09375L6.4375-.8125l.48438-.5-2.07813-2.09375L6.92188-5.5l-.48438-.48437-2.10937 2.07812L2.25-5.98437 1.75-5.5l2.09375 2.09375Zm0 0"/><path id="b" d="M-.23437 0h2.71875l.07812-.34375-.65625-.0625C1.75-.42187 1.6875-.5 1.6875-.60937c0-.07813.01563-.15626.0625-.25.39063-.76563.78125-1.54688 1.21875-2.35938H5.6875l.29688 2.48438s-.07813.29687-.32813.32812l-.64062.0625L4.95313 0h2.96875l.0625-.34375-.45313-.04687c-.375-.03125-.42187-.20313-.48437-.70313l-.89063-7.25h-.85937l-2.03125 3.5625c-.60938 1.07813-1.60938 2.875-2.0625 3.59375-.375.625-.59375.75-.95313.79688l-.40625.04687Zm3.45312-3.6875L5.1875-7.21875 5.625-3.6875Zm0 0"/><path id="c" d="M0 0h3.65625c2.90625 0 3.5-1.5 3.5-2.5 0-1.26562-.9375-1.82812-1.8125-1.98437v-.03125C6.95313-4.70312 7.625-5.625 7.625-6.53125c0-.96875-.5625-1.8125-2.78125-1.8125h-3.0625l-.07812.35938.71875.0625c.20312 0 .29687.09375.29687.29687 0 .0625-.03125.17188-.04687.28125L1.25-1c-.09375.39063-.20312.53125-.5.57813l-.6875.07812Zm2.40625-.92187c0-.09376.01563-.1875.04688-.26563l.6875-3.09375H3.625c1.1875 0 2.23438.34375 2.23438 1.71875 0 1.07813-.65625 2.14063-2.26563 2.14063-.95312 0-1.1875-.1875-1.1875-.5m.82813-3.78125L3.85938-7.5c.09375-.35937.15625-.42187.96875-.42187 1.01562 0 1.57812.5 1.57812 1.35937 0 1.25-1.0625 1.85938-2.39062 1.85938Zm0 0"/><path id="d" d="M.625-3.3125c0 1.59375.78125 3.48438 3.78125 3.48438.85938 0 1.67188-.10938 2.4375-.5L7.4375-2.25h-.35937c-.67188 1.20313-1.26563 2-2.75 2-1.40625 0-2.40625-.89062-2.40625-2.75 0-1.09375.28124-2.42187.85937-3.39062.60938-1.01563 1.54688-1.71875 2.84375-1.71875 1.53125 0 1.96875.70312 1.96875 2.03125h.375l.4375-1.8125c-.70312-.4375-1.82812-.64063-2.67187-.64063-2.26563 0-3.57813 1.0625-4.28125 2.1875C.78125-5.26562.625-4.14062.625-3.3125m0 0"/><clipPath id="e"><path d="M12 .05469h26V59H12Zm0 0"/></clipPath><clipPath id="f"><path d="M12 47h58.71484v22.89453H12Zm0 0"/></clipPath></defs><use xlink:href="#a" x="13.26708" y="56.16284"/><use xlink:href="#b" x="4.27833" y="48.63092"/><use xlink:href="#a" x="22.72062" y="20.87977"/><use xlink:href="#c" x="14.09162" y="13.34785"/><use xlink:href="#a" x="48.54915" y="65.61638"/><use xlink:href="#d" x="48.27959" y="57.90509"/><path fill="none" stroke="red" stroke-miterlimit="10" stroke-width=".39493" d="M19.4961 46.10937 26.55077 48l-1.89062 7.05469"/><g clip-path="url(#e)"><path fill="none" stroke="#000" stroke-miterlimit="10" stroke-width=".39493" d="M17.60547 53.16406 31.78517.24998"/></g><g clip-path="url(#f)"><path fill="none" stroke="#000" stroke-miterlimit="10" stroke-width=".39493" d="m17.60547 53.16406 52.91408 14.1797"/></g></svg>