<svg xmlns="http://www.w3.org/2000/svg" xmlns:xlink="http://www.w3.org/1999/xlink" width="69.869pt" height="34.334pt" viewBox="0 0 69.869 34.334"><defs><path id="a" d="m1.65625-1.25.48438.48438L4.125-2.78125 6.14063-.76562 6.59375-1.25 4.60938-3.23437l1.98437-2-.45312-.46875L4.125-3.71875 2.14063-5.70312l-.48438.46875 2.01563 2Zm0 0"/><path id="b" d="M-.21875 0H2.375l.0625-.32812-.625-.0625c-.15625-.01563-.21875-.07813-.21875-.20313 0-.04687.03125-.14062.0625-.21875.39063-.73437.75-1.48437 1.17188-2.25h2.57812L5.6875-.70312s-.04687.28124-.29687.3125l-.60938.0625L4.71875 0h2.8125l.07813-.32812-.4375-.03125c-.35938-.04688-.40625-.20313-.46875-.67188L5.85938-7.9375h-.8125l-1.9375 3.375c-.57813 1.03125-1.53125 2.73438-1.95313 3.42188-.375.60937-.5625.71875-.92187.76562l-.375.04688ZM3.0625-3.5l1.875-3.375.42188 3.375Zm0 0"/><path id="c" d="M0 0h3.48438C6.25 0 6.8125-1.42187 6.8125-2.375c0-1.21875-.89062-1.75-1.73437-1.90625l.01562-.01562c1.53125-.1875 2.17188-1.0625 2.17188-1.92188 0-.92187-.54688-1.71875-2.65625-1.71875H1.70313l-.07813.32813.6875.0625c.1875.01562.28125.09375.28125.28125 0 .0625-.03125.17187-.04687.28125L1.1875-.95312c-.09375.375-.20312.51562-.48437.54687L.0625-.32812Zm2.29688-.875c0-.09375.01562-.17187.03125-.26562L3-4.07812h.45313c1.125 0 2.125.32812 2.125 1.64062 0 1.01563-.625 2.03125-2.15625 2.03125-.90625 0-1.125-.1875-1.125-.46875m.78125-3.60937.59375-2.65625c.09375-.34375.15625-.40625.92187-.40625.96875 0 1.5.48437 1.5 1.29687 0 1.1875-1 1.76563-2.26562 1.76563Zm0 0"/><path id="d" d="M.59375-3.15625c0 1.51563.75 3.32813 3.59375 3.32813.82813 0 1.60938-.10938 2.34375-.48438l.5625-1.82812H6.75C6.10938-.98437 5.53125-.23437 4.125-.23437c-1.34375 0-2.29687-.85938-2.29687-2.625 0-1.03125.28124-2.3125.82812-3.21875.5625-.96875 1.46875-1.64063 2.70313-1.64063 1.45312 0 1.875.67188 1.875 1.92188h.35937L8-7.51562C7.34375-7.9375 6.26563-8.125 5.46875-8.125c-2.17187 0-3.42187 1.01563-4.09375 2.09375C.75-5.01562.59375-3.95312.59375-3.15625m0 0"/></defs><use xlink:href="#a" x="4.67251" y="19.18093"/><use xlink:href="#b" x="4.86184" y="12.01298"/><use xlink:href="#a" x="22.0514" y="22.6575"/><use xlink:href="#c" x="22.42417" y="15.48856"/><use xlink:href="#a" x="56.81016" y="29.60866"/><use xlink:href="#d" x="57.06718" y="22.26903"/><path fill="none" stroke="#000" stroke-miterlimit="10" stroke-width=".39092" d="m8.80078 16.32812 17.3789 3.47657 34.7617 6.95312"/></svg>