<svg xmlns="http://www.w3.org/2000/svg" xmlns:xlink="http://www.w3.org/1999/xlink" width="183.654pt" height="102.421pt" viewBox="0 0 183.654 102.421"><defs><path id="a" d="m2.6875-2.01562.78125.76562L6.70313-4.5l3.25 3.25.75-.76562L7.46875-5.25l3.23438-3.25-.75-.75-3.25 3.23438L3.46875-9.25l-.78125.75 3.25 3.25Zm0 0"/><path id="b" d="M-.35937 0h4.20312l.125-.53125L2.9375-.64062c-.25-.01563-.34375-.125-.34375-.3125 0-.09376.04688-.23438.09375-.375.625-1.1875 1.21875-2.39063 1.90625-3.64063h4.1875L9.23438-1.125s-.09375.45313-.5.48438L7.75-.53125 7.64063 0h4.57812l.125-.53125-.71875-.0625c-.5625-.0625-.65625-.3125-.75-1.09375L9.51563-12.875H8.1875L5.04688-7.39062c-.95313 1.67187-2.48438 4.4375-3.1875 5.54687C1.26563-.875.95313-.67187.375-.60937l-.60937.07812Zm5.32812-5.6875L8-11.15625l.67188 5.46875Zm0 0"/><path id="c" d="M0 0h5.64063c4.5 0 5.42187-2.3125 5.42187-3.85937 0-1.96875-1.45312-2.8125-2.82812-3.07813l.03125-.03125c2.46875-.29687 3.51562-1.70312 3.51562-3.10937 0-1.51563-.89062-2.79688-4.3125-2.79688H2.75l-.10937.53125L3.75-12.25c.3125.03125.45313.17188.45313.46875 0 .10938-.04688.26563-.07813.45313L1.92188-1.54687c-.14063.60937-.3125.82812-.76563.89062l-1.0625.125Zm3.71875-1.42187c0-.14063.03125-.28126.0625-.42188L4.85938-6.625h.73437c1.84375 0 3.45313.54688 3.45313 2.65625 0 1.67188-1 3.3125-3.5 3.3125-1.46875 0-1.82813-.29687-1.82813-.76562M5-7.26562l.96875-4.32813c.14063-.54687.23438-.65625 1.48438-.65625 1.5625 0 2.4375.79688 2.4375 2.10938 0 1.9375-1.625 2.875-3.6875 2.875Zm0 0"/><path id="d" d="M.96875-5.10937c0 2.45312 1.20313 5.39062 5.82813 5.39062C8.125.28125 9.39063.09375 10.57813-.5l.90625-2.96875h-.54688C9.90625-1.60937 8.96875-.375 6.67188-.375c-2.15625 0-3.70313-1.39062-3.70313-4.26562 0-1.67188.4375-3.73438 1.32813-5.21875.9375-1.57813 2.40625-2.65625 4.40625-2.65625 2.35937 0 3.03125 1.07812 3.03125 3.125h.5625l.6875-2.79688c-1.07813-.67187-2.82813-.98437-4.125-.98437-3.51563 0-5.53125 1.64062-6.625 3.39062C1.20313-8.125.96875-6.40625.96875-5.10937m0 0"/><clipPath id="e"><path d="M8 2h174.96484v68H8Zm0 0"/></clipPath><clipPath id="f"><path d="M8 58h174.96484v43.84375H8Zm0 0"/></clipPath></defs><path fill="#66B2B2" d="m13.64453 64.0664 27.51563 6.11329c1.10547-4.98828.83984-10.1836-.77735-15.02735Zm0 0"/><path fill="none" stroke="#000" stroke-miterlimit="10" stroke-width=".39626" d="M41.16017 70.17969c1.10547-4.98828.83984-10.1836-.77735-15.02735"/><use xlink:href="#a" x="6.94783" y="68.69168"/><use xlink:href="#b" x="7.2551" y="57.0654"/><use xlink:href="#a" x="119.69645" y="31.10914"/><use xlink:href="#c" x="120.30103" y="19.48286"/><use xlink:href="#a" x="119.69645" y="93.74604"/><use xlink:href="#d" x="120.1121" y="81.84233"/><g clip-path="url(#e)"><path fill="none" stroke="#000" stroke-miterlimit="10" stroke-width=".39626" d="M13.64453 64.0664 182.7696 7.6914"/></g><g clip-path="url(#f)"><path fill="none" stroke="#000" stroke-miterlimit="10" stroke-width=".39626" d="m13.64453 64.0664 169.12506 37.58205"/></g></svg>