<svg xmlns="http://www.w3.org/2000/svg" xmlns:xlink="http://www.w3.org/1999/xlink" width="173.098pt" height="62.265pt" viewBox="0 0 173.098 62.265"><defs><path id="a" d="m1.73438-1.3125.5.5 2.09375-2.09375L6.42188-.8125l.48437-.5-2.07812-2.07812 2.07812-2.09375-.48437-.48438-2.09375 2.07813-2.09375-2.07813-.5.48438 2.10937 2.09375Zm0 0"/><path id="b" d="M0 0h3.6875c2.40625 0 3.79688-.875 4.67188-2.17187.6875-1.04688.79687-2.04688.79687-2.76563 0-.96875-.34375-1.95312-1.03125-2.51562-.70312-.59375-1.78125-.85938-3.10937-.85938H1.78125l-.07812.34375.71875.04688c.20312.01562.28125.10937.28125.3125 0 .07812-.01563.17187-.04688.29687L1.23438-1c-.09376.40625-.20313.54688-.48438.57813l-.6875.07812Zm2.375-.89062c0-.04688 0-.09376.01563-.14063l1.45312-6.42187c.09375-.42188.26563-.45313 1.3125-.45313C7.67188-7.85937 7.875-6.17187 7.875-5.20312c0 1.03125-.25 2-.78125 2.90625-.6875 1.125-1.71875 1.875-3.71875 1.875-.57812 0-1-.07813-1-.46875m0 0"/><path id="c" d="M.125 0h6.28125l.60938-2.10937h-.35938C6.04688-.625 5.5-.42187 4.01563-.42187c-1.42188 0-1.5-.17188-1.5-.5 0-.125.04687-.3125.09375-.54688l.60937-2.64062h1.57813c.89062 0 1.0625.1875 1.0625.70312 0 .10938 0 .20313-.01563.32813h.35938l.5625-2.5h-.35938c-.3125.82812-.4375 1.01562-1.5 1.01562H3.32813L4-7.54687c.0625-.29688.14063-.35938.34375-.35938h1.45313c1.17187 0 1.42187.3125 1.42187.95313 0 .29687-.04687.625-.04687.625h.35937l.45313-1.98438H1.90625l-.09375.34375.73438.04688c.20312.01562.29687.10937.29687.29687q0 .1172-.04687.28125L1.375-1c-.10937.40625-.20312.54688-.5.57813l-.6875.07812Zm0 0"/><path id="d" d="M.125 0h3.5l.07813-.34375-.90625-.0625c-.21875-.01562-.3125-.125-.3125-.29687 0-.07813.01562-.15626.03125-.25l.67187-2.96875h1.59375c.89063 0 1.04688.15625 1.04688.67187v.34375h.35937L6.75-5.42187h-.35937c-.3125.84375-.45313 1.03125-1.51563 1.03125H3.28125L4-7.53125c.07813-.3125.14063-.375.35938-.375h1.46875c1.1875 0 1.42187.3125 1.42187.9375 0 .3125-.04687.64063-.04687.64063h.375l.45312-1.98438h-6.125l-.07812.34375.71875.0625c.20312.01563.29687.10938.29687.3125q0 .09375-.04687.23438L1.375-.95312c-.09375.35937-.20312.51562-.5.54687l-.6875.0625Zm0 0"/><clipPath id="e"><path d="M102 2h69.64063v48H102Zm0 0"/></clipPath><clipPath id="f"><path d="M.5625 19H114v31H.5625Zm0 0"/></clipPath></defs><path fill="#66b2b2" d="m108.36328 44.42969 9.46094-5.46485c-3.01563-5.22265-9.69922-7.01562-14.92578-3.99609-2.79297 1.61328-4.73438 4.38281-5.29688 7.5625Zm0 0"/><path fill="none" stroke="#000" stroke-miterlimit="10" stroke-width=".39385" d="M117.82421 38.96485c-3.01562-5.22266-9.69921-7.01563-14.92577-3.9961-2.79297 1.61328-4.73437 4.38281-5.29687 7.5625"/><use xlink:href="#a" x="104.03756" y="47.41826"/><use xlink:href="#b" x="103.6531" y="57.27194"/><use xlink:href="#a" x="151.35797" y="20.09776"/><use xlink:href="#c" x="151.6268" y="12.58643"/><use xlink:href="#a" x="32.28851" y="34.76759"/><use xlink:href="#d" x="32.55042" y="27.25626"/><g clip-path="url(#e)"><path fill="none" stroke="#000" stroke-miterlimit="10" stroke-width=".39385" d="M108.36328 44.42969 171.4453 8.00783"/></g><g clip-path="url(#f)"><path fill="none" stroke="#000" stroke-miterlimit="10" stroke-width=".39385" d="M108.36328 44.42969.75785 25.45704"/></g></svg>