<svg xmlns="http://www.w3.org/2000/svg" xmlns:xlink="http://www.w3.org/1999/xlink" width="587.65" height="423.89" viewBox="0 0 587.65 423.89"><defs><path id="a" d="m3.05-2.28.87.87 3.66-3.68 3.67 3.68.84-.87-3.64-3.66L12.1-9.6l-.84-.86L7.58-6.8l-3.66-3.66-.87.86 3.67 3.67Zm0 0"/><path id="b" d="M-.4 0h4.74l.14-.6-1.17-.12c-.26-.01-.37-.16-.37-.36q0-.17.1-.42c.7-1.34 1.37-2.72 2.16-4.12h4.72l.52 4.34s-.11.51-.56.56L8.77-.6l-.11.6h5.17l.12-.6-.8-.07c-.65-.06-.74-.36-.85-1.24l-1.55-12.65h-1.5l-3.53 6.2C4.64-6.46 2.89-3.34 2.1-2.08 1.44-.98 1.08-.77.42-.68l-.69.07Zm6.03-6.44 3.42-6.17.76 6.17Zm0 0"/><path id="c" d="M0 0h6.4c5.07 0 6.1-2.62 6.1-4.37 0-2.22-1.64-3.18-3.17-3.47l.01-.05c2.8-.33 3.99-1.92 3.99-3.52 0-1.7-1-3.15-4.88-3.15H3.11l-.13.6 1.25.12q.53 0 .52.51-.01.2-.1.52L2.18-1.75c-.15.7-.36.94-.87 1.02L.1-.61Zm4.22-1.6q0-.25.06-.48l1.2-5.4h.83c2.1 0 3.92.6 3.92 3 0 1.89-1.14 3.75-3.95 3.75-1.67 0-2.06-.35-2.06-.88m1.42-6.62 1.11-4.89c.16-.62.27-.73 1.67-.73 1.77 0 2.77.89 2.77 2.37 0 2.19-1.85 3.25-4.17 3.25Zm0 0"/><path id="d" d="M1.1-5.78C1.1-3 2.46.32 7.68.32a9.4 9.4 0 0 0 4.28-.88L13-3.92h-.62c-1.18 2.1-2.22 3.5-4.83 3.5-2.44 0-4.2-1.58-4.2-4.83 0-1.9.5-4.23 1.5-5.9 1.07-1.77 2.73-3 5-3 2.65 0 3.42 1.23 3.42 3.53h.65l.75-3.16c-1.2-.77-3.17-1.13-4.65-1.13-3.97 0-6.25 1.86-7.49 3.85A10 10 0 0 0 1.1-5.78m0 0"/><path id="g" d="m-.37 4.36-1.16 13.19 1.16.1.59-3.35c.16-.83.5-1.3 2.06-1.16l23.64 2.06.24-.17-.66-8.4-.98-.1-.82 3.72c-.14.67-.47.9-1.62.8L2.6 9.35c-.77-.07-1.22-.2-1.48-.47-.3-.24-.35-.6-.35-1.04V4.45Zm0 0"/><path id="h" d="M7.16 2.31C3.09 1.95-.83 4.1-1.41 10.58c-.56 6.5 2.93 9.3 6.99 9.65 4.1.36 6.69-2 7.55-4.67h.09c.42 2.5 2.3 4.63 5.58 4.9 4.36.4 7.14-2.84 7.53-7.44s-1.75-8.29-6.11-8.68a5.95 5.95 0 0 0-6.36 3.93h-.1c-.38-2.75-2.51-5.6-6.6-5.96m-.49 4c3.66.33 6.25 2.3 5.97 5.5-.27 3.2-3.17 4.72-6.83 4.4-3.54-.32-6.1-2.13-5.81-5.5S3.13 6 6.67 6.3m13.3 1.92c3.06.27 5.22 1.93 4.97 4.66-.24 2.73-2.64 3.97-5.7 3.7-2.74-.23-5.41-1.75-5.16-4.65.26-2.9 3.15-3.94 5.89-3.7m0 0"/><path id="i" d="M13.27 2.84C5.23 2.14-.81 3.97-1.41 10.58c-.57 6.62 5.07 9.51 13.1 10.22 8.01.7 14.06-1.16 14.64-7.78.6-6.61-5.05-9.47-13.06-10.18M12.9 6.9c6.53.58 12.37 2.2 12.03 6s-6.36 4.4-12.9 3.81C5.5 16.13-.32 14.5 0 10.7s6.36-4.39 12.9-3.8m0 0"/><path id="j" d="M-13.27-2.84c8.04.7 14.08-1.13 14.68-7.74.57-6.62-5.07-9.51-13.1-10.22-8.01-.7-14.06 1.16-14.64 7.78-.6 6.61 5.05 9.47 13.06 10.18m.36-4.05c-6.53-.58-12.37-2.2-12.03-6s6.36-4.4 12.9-3.81c6.54.57 12.37 2.2 12.04 6s-6.36 4.39-12.9 3.8m0 0"/><path id="aK" d="m.38-4.36 1.15-13.19-1.15-.1-.6 3.35c-.15.83-.5 1.3-2.06 1.16l-23.64-2.06-.24.17.66 8.4.98.1.82-3.72c.14-.67.47-.9 1.62-.8l19.47 1.7c.77.07 1.22.2 1.49.47.3.24.34.6.34 1.04v3.39Zm0 0"/><path id="aL" d="M-7.16-2.31c4.07.36 7.99-1.78 8.57-8.27.56-6.5-2.93-9.3-6.99-9.65-4.1-.36-6.69 2-7.54 4.67h-.1c-.42-2.5-2.3-4.63-5.58-4.9-4.36-.4-7.14 2.84-7.53 7.44s1.75 8.29 6.11 8.68a5.95 5.95 0 0 0 6.36-3.93h.1c.38 2.75 2.51 5.6 6.6 5.96m.49-4c-3.66-.33-6.25-2.3-5.97-5.5.27-3.2 3.17-4.72 6.83-4.4 3.54.32 6.1 2.13 5.81 5.5S-3.12-6-6.67-6.3m-13.3-1.92c-3.06-.27-5.22-1.93-4.97-4.66.24-2.73 2.64-3.97 5.7-3.7 2.74.23 5.41 1.75 5.16 4.65-.26 2.9-3.15 3.94-5.89 3.7m0 0"/><path id="k" d="m.27 3.05.8 9.23.82-.08V9.83c0-.6.19-.94 1.28-1.03l16.55-1.46.12-.17-1.46-5.7-.7.05-.09 2.67c-.03.47-.23.67-1.03.73L2.94 6.12c-.53.05-.86 0-1.1-.14-.22-.12-.3-.36-.36-.67l-.4-2.34Zm0 0"/><path id="l" d="M9.5.34C3.88.84-.08 2.83.33 7.47c.4 4.62 4.64 5.95 10.26 5.45 5.6-.48 9.55-2.53 9.14-7.15C19.33 1.13 15.1-.14 9.5.34m.23 2.83c4.57-.39 8.8.03 9.04 2.69s-3.86 3.8-8.43 4.19-8.8 0-9.03-2.68c-.23-2.65 3.85-3.8 8.42-4.2m0 0"/><path id="m" d="m.44.66-.17.36L3.3 12.28l3.83-.05-.04-.78c-1.64-.18-2.01-.68-2.3-1.78L2.91 2.73c1.55.05 3.92 1.15 6.44 3.18 2.58 2.09 4.36 3.8 7.39 2.98 3.8-1.02 4.42-3.87 3.66-6.75-1-3.73-3.77-5.05-5.2-4.66-.91.25-1.07 1.4-.94 1.86.12.49.46.6.95.6 1.97-.08 3.73.6 4.19 2.28.56 2.1-1.02 3.16-3.02 3.69-2.92.78-4.97-.24-7.69-2.07C4.86 1.28 2.7.61.44.66m0 0"/><path id="n" d="M9.4-1.31C3.94.14.41 2.79 1.62 7.29c1.2 4.5 5.6 5.05 11.04 3.6s8.97-4.14 7.77-8.62c-1.2-4.5-5.61-5.04-11.05-3.58m.74 2.75c4.42-1.19 8.64-1.5 9.34 1.08.7 2.57-3.14 4.4-7.56 5.59S3.27 9.63 2.58 7.05c-.7-2.58 3.12-4.42 7.56-5.61m0 0"/><path id="o" d="M2.92-.53C1.82-.02.84 2.59 2.53 6.2c1.72 3.7 4.69 5.16 7.95 3.63 3.41-1.58 3.05-4.99 2.54-6.47l.1-.05c.88 1.3 2.93 3 5.44 1.83 2.83-1.33 3.07-4.1 1.78-6.84-1.57-3.38-4.3-4.13-5.39-3.61-.78.36-.8 1.45-.64 1.81q.22.48.8.4c2.02-.24 3.58.2 4.25 1.63.94 2.02-.6 3.33-2.05 4-1.51.72-3.68 1.08-4.7-1.1-.56-1.23-.66-2.04-.8-2.34q-.22-.47-.92-.14c-.44.2-.64.47-.48.8.14.3.71.9 1.28 2.1 1.01 2.2-.38 4.32-2.6 5.37-3.04 1.42-4.8.4-5.65-1.4-.8-1.7-.06-3.4 1.15-4.55q.63-.59.38-1.1C4.75-.3 3.84-.95 2.92-.53m0 0"/><path id="p" d="M9.03-2.92C3.93-.53.9 2.68 2.86 6.9c1.97 4.2 6.39 4 11.5 1.6 5.1-2.37 8.12-5.63 6.16-9.84-1.97-4.22-6.38-3.97-11.49-1.6m1.2 2.58c4.16-1.94 8.27-2.99 9.4-.57 1.12 2.43-2.33 4.9-6.49 6.83-4.16 1.94-8.26 2.99-9.39.56-1.12-2.4 2.33-4.86 6.48-6.8m0 0"/><path id="q" d="m4.94-2.78-.36.53 4.39 6.28L6.6 5.7c-.78.54-1.08.4-1.52-.13l-1.16-1.4-.67.47 4.27 6.1.67-.47-.61-1.11c-.3-.58-.28-.83.5-1.38l2.36-1.66 1.64 2.35 1.08-.75-1.64-2.34 10.21-7.16-1.18-1.69c-4.7.06-10.52.27-15.61.69m1.75 1.25c3.47-.4 7.28-.64 11.33-.83l.03.05-8 5.6Zm0 0"/><path id="r" d="M8.4-4.45C3.76-1.22 1.33 2.48 4.01 6.3c2.67 3.8 6.98 2.82 11.6-.42 4.61-3.22 7.02-6.95 4.35-10.75-2.67-3.83-6.97-2.81-11.58.4M10-2.13c3.75-2.62 7.62-4.39 9.15-2.19S17.73.92 13.98 3.55c-3.76 2.64-7.64 4.39-9.17 2.2-1.53-2.2 1.44-5.22 5.2-7.86m0 0"/><path id="s" d="M2.84-1.22c-.9.9-.87 3.66 1.72 6.25 3.28 3.28 6.75 2.78 9.28.25 2.8-2.8 2.49-5.95.11-8.33a6.7 6.7 0 0 0-3.98-1.89l.01-.04 4.2-3.29c.54-.45.74-.37 1.13.02l4.96 4.95 1.84-.87.06-.28-6.65-6.66h-.38L8.08-4.86l.22.75c1.8-.14 3.07.2 4.15 1.28 1.28 1.28 1.74 3.63-.9 6.25C9.5 5.47 7.12 6.2 5.39 4.45 4 3.06 4.27 1.35 5.03-.19c.19-.4.19-.78-.1-1.06-.4-.4-1.41-.64-2.09.03m0 0"/><path id="t" d="M7.48-5.83C3.5-1.84 1.75 2.22 5.05 5.52 8.33 8.8 12.42 7.08 16.4 3.09c3.98-3.98 5.7-8.07 2.42-11.36-3.3-3.3-7.36-1.54-11.35 2.44M9.5-3.8c3.25-3.25 6.73-5.64 8.63-3.75 1.89 1.89-.5 5.37-3.75 8.62S7.64 6.7 5.74 4.81 6.25-.56 9.5-3.8m0 0"/><path id="u" d="M6-6.42c-3.48 4.98-3.36 8.67.1 11.1 3.42 2.38 6.67 1.59 8.87-1.55 2.19-3.11 1.45-6.16-1.02-7.9-1.8-1.26-4.03-1-5.17-.64l-.05-.04c3.58-5.07 6.46-6.11 8.54-4.64 1.06.73 1.2 2.15.62 3.73-.1.31-.1.66.23.9.54.37 1.52.44 1.97-.2.66-.93.6-3.23-2.18-5.18-3.66-2.57-7.88-1.33-11.91 4.42m1.16 3.31c.98-1.39 3.25-2.39 5.17-1.03 1.45 1.01 1.97 3.34.1 6-1.7 2.44-3.77 3.4-5.73 2.05-2-1.41-1.48-4.24.46-7.02m0 0"/><path id="v" d="M6.36-7.05C3.12-2.42 2.1 1.88 5.94 4.55c3.8 2.67 7.53.26 10.76-4.36s4.2-8.92.4-11.6c-3.82-2.67-7.52-.25-10.74 4.36M8.7-5.42c2.63-3.75 5.64-6.72 7.85-5.19 2.18 1.53.43 5.4-2.2 9.16S8.7 5.28 6.5 3.75s-.44-5.4 2.2-9.17m0 0"/><path id="w" d="m7.34-12.98.68.3.5-.41c.67-.57 1.18-.79 2.34-.24l6.89 3.2c-.67.82-1.84 2.07-5.3 4.07-3.67 2.12-6.43 4.3-7.84 7.31-.4.84.12 1.31.9 1.69.74.34 1.37.37 1.68-.38a17 17 0 0 1 5.89-7.6c2.95-2.08 5.06-3.05 7.44-5.83l-.1-.38L9.8-16.2Zm0 0"/><path id="x" d="M5.05-8.03C2.65-2.93 2.4 1.48 6.63 3.45c4.2 1.97 7.46-1.04 9.85-6.15s2.58-9.53-1.62-11.5c-4.22-1.97-7.44 1.06-9.81 6.17m2.58 1.2c1.93-4.15 4.39-7.6 6.8-6.48 2.43 1.12 1.4 5.23-.54 9.39s-4.42 7.6-6.84 6.48-1.36-5.23.58-9.39m0 0"/><path id="y" d="M2.45-4.66c-.73 2.75.28 5.72 4.7 6.91 4.4 1.17 6.74-.9 7.48-3.64a4.8 4.8 0 0 0-2.32-5.78l.02-.06c1.76.03 3.48-1 4.08-3.24.8-2.95-1.11-5.26-4.24-6.1s-5.92.21-6.72 3.16c-.6 2.24.42 4 1.92 4.86l-.01.07a4.9 4.9 0 0 0-4.9 3.82m2.7.83C5.8-6.3 7.51-7.86 9.68-7.27c2.17.58 2.84 2.75 2.17 5.24C11.22.37 9.67 1.9 7.39 1.3 5.1.67 4.5-1.42 5.14-3.83m2.96-8.94c.56-2.07 1.95-3.34 3.81-2.84s2.42 2.28 1.86 4.36c-.5 1.86-1.87 3.52-3.83 3-1.98-.53-2.34-2.66-1.84-4.52m0 0"/><path id="z" d="M3.56-8.8C2.11-3.36 2.64 1.05 7.14 2.25s7.17-2.33 8.63-7.77c1.45-5.43.89-9.84-3.6-11.04s-7.15 2.33-8.6 7.76m2.75.75c1.19-4.42 3.03-8.26 5.61-7.56 2.58.69 2.25 4.92 1.06 9.34C11.8-1.83 9.97 1.98 7.4 1.3 4.81.6 5.13-3.6 6.31-8.05m0 0"/><path id="A" d="m3.8 1.02 11.5 3.07.26-1.01-2.86-1.03c-.72-.28-1.06-.64-.68-2.02l5.53-20.65-.14-.22-7.57-.72-.23.86 3.17 1.28c.58.23.72.56.45 1.56L8.7-.86C8.52-.2 8.33.2 8.03.4c-.25.22-.58.22-.94.16L4.06 0Zm0 0"/><path id="B" d="M4.6-11.31C2.7-4.3 3.4 1.34 9.16 2.89s9.2-2.98 11.1-10c1.87-7 1.15-12.66-4.61-14.2-5.78-1.55-9.2 3-11.07 10m3.54.95c1.52-5.7 3.88-10.62 7.19-9.73s2.87 6.3 1.36 12.01S12.8 2.56 9.5 1.67 6.6-4.64 8.14-10.36m0 0"/><path id="C" d="m3.56 1.66 10.8 5.04.44-.95-2.66-1.53c-.64-.4-.92-.81-.33-2.11l9.03-19.36-.07-.25-7.33-2.03-.38.81 2.9 1.81c.52.35.62.7.18 1.63L8.7.66q-.4.92-.86 1.12c-.3.19-.6.11-.96-.01L4 .7Zm0 0"/><path id="D" d="M6.48-10.33C3.41-3.77 3.11 1.91 8.53 4.44c5.42 2.51 9.6-1.35 12.67-7.9 3.07-6.59 3.33-12.29-2.1-14.8-5.41-2.54-9.55 1.35-12.62 7.93m3.33 1.55c2.49-5.36 5.66-9.8 8.77-8.35 3.1 1.44 1.75 6.74-.74 12.1C15.34.3 12.17 4.73 9.06 3.3c-3.1-1.46-1.75-6.74.75-12.08m0 0"/><path id="E" d="m3.22 2.27 9.76 6.82.6-.86-2.35-1.96c-.57-.5-.76-.97.05-2.13l12.27-17.51-.05-.27-6.87-3.23-.52.71 2.55 2.29c.45.4.48.78-.11 1.62L8.45 2.17c-.39.56-.7.86-1.03.96s-.62 0-.95-.2L3.8 1.4Zm0 0"/><path id="F" d="m1 .28.1.49 12.3 8.6 3.76-3.21-.74-.7c-1.73 1.13-2.51.95-3.72.12L5.14.27C6.7-.95 9.95-1.84 14.1-1.9c4.3-.11 7.46.1 9.79-3.2 2.89-4.14 1.12-7.49-1.99-9.68-4.1-2.86-7.9-1.86-8.98-.3-.7 1 .09 2.29.59 2.65.55.37.95.19 1.42-.25 1.9-1.67 4.2-2.47 6.03-1.19 2.28 1.6 1.61 3.95.08 6.14-2.23 3.19-5.1 3.86-9.28 4.31C5.85-2.77 3.17-1.62 1 .3m0 0"/><path id="G" d="M8.19-9.06C4.02-3.12 2.73 2.42 7.64 5.86c4.9 3.42 9.67.33 13.84-5.61s5.43-11.5.54-14.92c-4.91-3.44-9.68-.33-13.83 5.6m3 2.1c3.37-4.82 7.28-8.63 10.1-6.66 2.79 1.95.54 6.92-2.84 11.75-3.39 4.84-7.3 8.65-10.1 6.7-2.8-1.97-.55-6.94 2.84-11.78m0 0"/><path id="H" d="m2.78 2.78 8.42 8.42.74-.73-1.97-2.35c-.49-.6-.6-1.09.4-2.09L25.5-9.09v-.25l-6.19-4.41-.62.63 2.1 2.71c.37.47.34.85-.38 1.58L7.95 3.61c-.48.48-.84.72-1.18.75-.35.06-.61-.11-.91-.34L3.52 2.05Zm0 0"/><path id="I" d="M3.31-1.94c-1.1 1.1-1.15 4.69 2.47 8.32 3.7 3.7 7.92 4.17 11.19.9 3.44-3.44 1.51-7.39.23-8.95l.11-.11c1.61 1.17 4.86 2.36 7.4-.17 2.84-2.85 1.87-6.32-.88-9.07-3.38-3.37-7.02-3.07-8.1-2-.8.8-.32 2.14.04 2.5.32.33.7.33 1.14.11 2.32-1.17 4.39-1.36 5.84.1 2.02 2.01.75 4.31-.7 5.76-1.52 1.52-4 2.9-6.2.72C14.66-5.05 14.2-6 13.9-6.3c-.34-.34-.72-.22-1.19.25-.42.42-.57.83-.23 1.17.3.3 1.25.75 2.47 1.97 2.19 2.2 1.45 5.4-.78 7.63-3.05 3.05-5.63 2.62-7.46.8-1.68-1.7-1.54-4.08-.6-6q.5-1-.02-1.5c-.47-.47-1.85-.88-2.77.04m0 0"/><path id="J" d="M9.63-7.5C4.5-2.37 2.26 2.86 6.5 7.1c4.22 4.21 9.48 2 14.6-3.12 5.13-5.12 7.34-10.39 3.12-14.6-4.24-4.24-9.47-2-14.6 3.12m2.59 2.6c4.17-4.18 8.67-7.27 11.1-4.83 2.43 2.42-.66 6.92-4.84 11.09S9.81 8.63 7.4 6.2c-2.44-2.43.66-6.93 4.83-11.1m0 0"/><path id="K" d="m2.27 3.22 6.82 9.76.86-.59-1.53-2.66c-.37-.67-.4-1.17.75-1.98L26.7-4.52l.04-.26-5.32-5.4-.72.5 1.6 3.02c.27.55.18.9-.66 1.49L7.2 4.93c-.56.38-.95.57-1.3.52-.32.02-.59-.18-.82-.48L3.13 2.63Zm0 0"/><path id="L" d="m6.33-3.6-.44.7 5.66 8.09L8.52 7.3c-1.02.7-1.41.52-1.97-.15L5.03 5.38l-.86.59 5.5 7.84.86-.6-.78-1.43c-.4-.76-.36-1.08.66-1.78l3.03-2.12 2.12 3.03 1.38-.97L14.8 6.9l13.16-9.2-1.53-2.2c-6.07.1-13.57.38-20.11.9m2.26 1.63c4.47-.5 9.36-.83 14.55-1.06l.05.06-10.27 7.19Zm0 0"/><path id="M" d="M10.78-5.72C4.84-1.55 1.73 3.2 5.18 8.11c3.41 4.89 8.98 3.64 14.91-.53 5.94-4.16 9.04-8.95 5.61-13.85s-8.98-3.6-14.92.55m2.11 3c4.83-3.37 9.8-5.62 11.77-2.81 1.95 2.8-1.86 6.7-6.7 10.08-4.84 3.39-9.8 5.64-11.76 2.84C4.23 4.58 8.05.67 12.9-2.7m0 0"/><path id="N" d="m1.66 3.56 5.04 10.8.96-.44-1.07-2.87c-.25-.74-.18-1.24 1.11-1.83L27.06.19l.1-.24-4.32-6.26-.8.37 1.05 3.25c.2.58.04.92-.9 1.36L6.25 6.11c-.62.28-1.05.39-1.37.3-.35-.05-.55-.3-.74-.63L2.61 3.13Zm0 0"/><path id="O" d="M3.98-.23c-1.5.7-2.65 4.04-.67 8.3 2.52 5.41 6.94 6.34 11.1 4.4 4.6-2.14 5.62-6.1 3.8-10.02a8.8 8.8 0 0 0-3.96-4.03v-.04l6.52-2.15c.87-.3 1.06-.12 1.36.52l3.8 8.17 2.63-.25.2-.3-5.1-10.96-.47-.2-11.3 4.48-.05.98c2.22.66 3.6 1.61 4.44 3.4.97 2.1.52 5.1-3.81 7.13-3.4 1.58-6.58 1.4-7.92-1.45-1.08-2.3.03-4.23 1.62-5.77.4-.4.55-.85.35-1.3C6.2 0 5.06-.74 3.98-.24m0 0"/><path id="P" d="M11.6-3.77C5.06-.69 1.17 3.45 3.7 8.88c2.51 5.42 8.22 5.15 14.78 2.07C25.05 7.9 28.9 3.72 26.39-1.7c-2.53-5.42-8.2-5.13-14.78-2.07m1.56 3.33c5.36-2.48 10.64-3.84 12.09-.73s-2.98 6.28-8.34 8.76c-5.35 2.5-10.64 3.86-12.08.75-1.45-3.1 2.98-6.28 8.33-8.78m0 0"/><path id="Q" d="m1.02 3.8 3.07 11.5 1.02-.27-.53-3.01c-.13-.75.01-1.22 1.39-1.6L26.63 4.9l.12-.23-3.16-6.91-.86.23.47 3.4c.08.6-.12.89-1.12 1.17l-17 4.54c-.66.18-1.08.2-1.4.07s-.48-.4-.6-.75L2.03 3.53Zm0 0"/><path id="R" d="M11.22-1.36C3.66.66.75 4.4 2.16 9.64c1.37 5.19 5.23 7.1 10 5.83 4.73-1.28 6.54-4.88 5.53-8.63-.74-2.76-3.16-4.32-4.57-4.92l-.01-.08c7.72-2.03 11.4-.65 12.25 2.52.44 1.6-.61 3.1-2.48 4.17-.38.22-.65.55-.5 1.08.2.78 1.14 1.69 2.1 1.44 1.41-.4 3.25-2.7 2.13-6.93-1.48-5.54-6.69-7.82-15.4-5.48m-1.6 4.22c2.15-.56 5.16.33 5.96 3.27.58 2.18-.85 4.9-4.86 5.96-3.69 1-6.55.25-7.33-2.7C2.56 6.33 5.42 4 9.63 2.86m0 0"/><path id="S" d="M12.1-1.69C5.07.21.52 3.61 2.07 9.4c1.55 5.77 7.2 6.49 14.22 4.6 7-1.88 11.53-5.32 9.98-11.08-1.55-5.78-7.19-6.47-14.19-4.6m.95 3.55C18.75.34 24.17-.08 25.06 3.23s-4.03 5.66-9.73 7.18C9.6 11.94 4.19 12.38 3.3 9.06c-.9-3.31 4.03-5.67 9.75-7.2m0 0"/><path id="T" d="m.34 3.92 1.03 11.86 1.05-.1v-3.04c.02-.78.25-1.22 1.66-1.34l21.3-1.86.17-.2-1.93-7.35-.87.08-.12 3.4c-.04.61-.29.88-1.32.97L3.78 7.88c-.69.06-1.1.01-1.39-.2-.3-.16-.4-.46-.47-.84L1.4 3.83Zm0 0"/><path id="U" d="m19.17-.17.1.95.8.28c1.04.38 1.62.83 1.76 2.46l.86 9.73c-1.35-.22-3.47-.72-7.9-3.28-4.74-2.72-8.95-4.4-13.21-4.03-1.2.1-1.4.97-1.3 2.08.1 1.04.47 1.8 1.5 1.67 4.75-.61 8.72-.02 12.22 1.64 4.23 1.94 6.66 3.65 11.3 4.55l.37-.35L24.36.5Zm0 0"/><path id="V" d="M12.19.44C4.97 1.08-.11 3.64.42 9.6c.52 5.94 5.97 7.64 13.19 7s12.3-3.23 11.78-9.17c-.53-5.97-5.98-7.63-13.2-7m.33 3.65c5.89-.5 11.3.02 11.6 3.46.3 3.4-4.95 4.87-10.84 5.37-5.89.52-11.3-.01-11.6-3.42-.3-3.44 4.95-4.9 10.84-5.4m0 0"/><path id="W" d="M3.06-18.23c-.44 5.03 2.92 7.92 7.07 8.28 2.46.22 4.68-1 6.21-2.86h.08a35 35 0 0 1-1.64 8.47C13.83-1.75 12.23.13 9.68-.1c-2.74-.25-3.55-2.46-4-4.41-.12-.53-.35-.84-1.04-.9-.76-.07-1.95.65-2.06 1.88-.16 1.75 1.73 4.36 6.6 4.8 3.24.28 5.82-.7 7.54-2.7C18.59-3.58 19.88-7 20.38-12.8c.43-4.98-.25-8.3-1.66-10.32-1.4-1.96-3.49-3.02-6.05-3.24-5.1-.45-9.12 2.58-9.6 8.13m4.11-.74c.33-3.67 2.22-6.28 5.33-6.01 3.22.28 4.45 4.21 4.1 8.1a6 6 0 0 1-.48 2.11 4.5 4.5 0 0 1-4.64 2.79c-3.1-.27-4.64-3.16-4.3-6.99m0 0"/><path id="X" d="M2.84-13.27C2.14-5.23 3.97.81 10.58 1.41c6.62.57 9.51-5.07 10.22-13.1.7-8.01-1.16-14.06-7.78-14.64-6.61-.6-9.47 5.05-10.18 13.06m4.05.36c.58-6.53 2.2-12.37 6-12.03s4.4 6.36 3.81 12.9C16.13-5.5 14.5.32 10.7 0S6.31-6.36 6.9-12.9m0 0"/><path id="Y" d="m3.05-.27 9.23-.8-.08-.82H9.83c-.6 0-.94-.19-1.03-1.28L7.34-19.72l-.17-.12-5.7 1.47.05.68 2.67.1c.47.03.67.23.73 1.03l1.2 13.62c.05.53 0 .86-.14 1.1-.12.22-.36.3-.67.36l-2.34.4Zm0 0"/><path id="Z" d="M.34-9.5C.84-3.87 2.83.08 7.47-.33c4.62-.4 5.95-4.64 5.45-10.26-.48-5.6-2.53-9.55-7.15-9.14C1.13-19.33-.14-15.1.34-9.5m2.83-.23c-.39-4.57.03-8.8 2.69-9.04s3.8 3.86 4.19 8.43 0 8.8-2.68 9.03c-2.65.23-3.8-3.85-4.2-8.42m0 0"/><path id="aa" d="m2.95-.8 8.96-2.39-.2-.78-2.37.4c-.57.1-.95-.02-1.25-1.1L3.8-20.72l-.17-.08-5.37 2.46.17.65 2.66-.36c.47-.06.69.11.9.88l3.54 13.2c.14.53.17.86.04 1.13q-.13.3-.6.45l-2.21.81Zm0 0"/><path id="ab" d="M-1.31-9.4c1.45 5.45 4.1 8.98 8.6 7.78s5.05-5.61 3.6-11.05-4.14-8.97-8.62-7.77c-4.5 1.2-5.04 5.61-3.58 11.05m2.75-.74c-1.19-4.42-1.5-8.64 1.08-9.34 2.57-.7 4.4 3.14 5.59 7.56s1.52 8.64-1.06 9.33c-2.58.7-4.42-3.12-5.61-7.56m0 0"/><path id="ac" d="m2.78-1.3 8.4-3.9-.35-.74-2.24.82c-.56.18-.95.14-1.42-.88L.16-21.05l-.2-.06-4.85 3.34.28.63 2.53-.81c.46-.14.72-.03 1.05.68l5.78 12.4c.23.5.31.82.23 1.1-.04.25-.21.4-.5.55L2.44-2.03Zm0 0"/><path id="ad" d="m.58-.55.37.11 10.58-4.93-.72-3.79-.76.2c.1 1.63-.32 2.09-1.35 2.57L2.2-3.36c-.22-1.51.44-4.05 2-6.87 1.62-2.93 3-4.96 1.67-7.8-1.67-3.56-4.61-3.69-7.3-2.44-3.5 1.64-4.31 4.58-3.68 5.9.4.88 1.57.85 2.01.65.45-.2.5-.58.4-1.06-.41-1.93-.06-3.79 1.54-4.52 1.95-.9 3.26.45 4.14 2.34 1.28 2.74.6 4.93-.69 7.93C.41-5.02.14-2.77.58-.55m0 0"/><path id="ae" d="M-2.92-9.03C-.53-3.93 2.68-.9 6.9-2.86c4.2-1.97 4-6.39 1.6-11.5-2.37-5.1-5.63-8.12-9.84-6.16-4.22 1.97-3.97 6.38-1.6 11.49m2.58-1.2c-1.94-4.16-2.99-8.27-.57-9.4 2.43-1.12 4.9 2.33 6.83 6.49 1.94 4.16 2.99 8.27.56 9.39-2.4 1.13-4.86-2.33-6.8-6.48m0 0"/><path id="af" d="m2.52-1.75 7.57-5.33-.46-.67-2.05 1.22c-.53.26-.94.28-1.56-.63l-9.54-13.6-.2-.02-4.19 4.14.4.56 2.34-1.23c.44-.24.7-.16 1.15.5l7.85 11.2c.31.45.45.75.42 1.03 0 .25-.14.42-.4.64l-1.8 1.52Zm0 0"/><path id="ag" d="M-1.05-2.8c.7.99 3.46 1.52 6.72-.76C9-5.91 9.94-9.08 7.87-12.03c-2.15-3.1-5.45-2.14-6.82-1.38l-.07-.09c1.11-1.08 2.44-3.4.85-5.67-1.8-2.56-4.56-2.3-7.05-.56-3.05 2.14-3.3 4.95-2.6 5.93.5.7 1.55.53 1.88.3q.43-.3.25-.84c-.6-1.94-.43-3.57.88-4.47C-3-20.1-1.41-18.8-.5-17.5c.97 1.38 1.69 3.44-.28 4.83-1.1.76-1.9 1-2.16 1.19-.3.2-.26.51.02.93.28.4.58.55.87.35.27-.2.75-.86 1.85-1.63 1.97-1.39 4.33-.39 5.73 1.63 1.92 2.75 1.24 4.67-.4 5.8C3.6-3.3 1.8-3.72.45-4.74q-.7-.5-1.15-.19c-.43.3-.92 1.32-.35 2.14m0 0"/><path id="ah" d="M-4.45-8.4C-1.22-3.76 2.48-1.33 6.3-4.01c3.8-2.67 2.82-6.98-.42-11.6-3.22-4.61-6.95-7.02-10.75-4.35-3.83 2.67-2.81 6.97.4 11.58M-2.13-10c-2.62-3.75-4.39-7.62-2.19-9.15s5.22 1.44 7.85 5.19c2.64 3.76 4.39 7.64 2.2 9.17-2.2 1.53-5.22-1.44-7.86-5.2m0 0"/><path id="ai" d="m2.17-2.17 6.55-6.55-.58-.58-1.83 1.55c-.45.36-.84.44-1.62-.34L-7.06-19.84l-.2.01-3.41 4.81.48.49 2.1-1.63c.36-.3.65-.28 1.21.29L2.8-6.2c.39.39.58.67.6.97.04.23-.07.43-.3.68l-1.5 1.8Zm0 0"/><path id="aj" d="m-3.6-4.37.58.26 5.44-5.44 2.03 2.03c.7.7.58 1.02.13 1.54L3.44-4.6l.58.57 5.25-5.25-.58-.57-.99.8c-.53.4-.76.41-1.45-.27l-2.03-2.03 2.03-2.03-.94-.94-2.03 2.03-8.81-8.81L-7-19.62c.9 4.6 2.1 10.3 3.4 15.25m.93-1.96a164 164 0 0 1-2.78-11l.04-.05 6.9 6.9Zm0 0"/><path id="ak" d="M-5.83-7.48C-1.84-3.5 2.22-1.75 5.52-5.05 8.8-8.33 7.08-12.42 3.09-16.4c-3.98-3.98-8.07-5.7-11.36-2.42-3.3 3.3-1.54 7.36 2.44 11.35M-3.8-9.5c-3.25-3.25-5.64-6.73-3.75-8.62 1.89-1.9 5.37.5 8.62 3.75S6.7-7.64 4.81-5.76C2.92-3.85-.56-6.25-3.8-9.5m0 0"/><path id="al" d="m1.75-2.52 5.33-7.57-.67-.47-1.53 1.83c-.4.43-.75.59-1.66-.04L-10.4-18.3l-.2.05-2.55 5.31.56.4 1.8-1.98c.33-.34.6-.36 1.25.1l11.2 7.84c.46.31.69.55.75.83.1.22 0 .45-.14.73l-1.2 2.04Zm0 0"/><path id="am" d="M-1.7-2.6c1.04.74 3.76.23 5.86-2.77 2.65-3.8 1.56-7.13-1.38-9.2-3.23-2.26-6.3-1.4-8.22 1.35a6.6 6.6 0 0 0-1.15 4.25l-.05.02-3.95-3.57c-.55-.48-.52-.68-.2-1.12l4-5.75-1.16-1.67h-.28l-5.4 7.7.05.4 7.4 5.84.7-.35c-.46-1.73-.33-3.05.54-4.3 1.03-1.46 3.25-2.34 6.3-.2 2.37 1.67 3.51 3.88 2.1 5.9C2.32-4.46.58-4.46-1.05-4.92c-.44-.12-.82-.06-1.04.25-.33.49-.39 1.54.38 2.07m0 0"/><path id="an" d="M-7.05-6.36c4.63 3.24 8.93 4.25 11.6.42 2.67-3.8.26-7.53-4.36-10.76s-8.92-4.2-11.6-.4c-2.67 3.82-.25 7.52 4.36 10.74m1.63-2.34c-3.75-2.63-6.72-5.64-5.19-7.85 1.53-2.18 5.4-.43 9.16 2.2S5.28-8.7 3.75-6.5s-5.4.44-9.17-2.2m0 0"/><path id="ao" d="m1.3-2.78 3.9-8.4-.73-.34-1.19 2.08c-.31.5-.64.7-1.65.24l-15.05-7.02-.19.08-1.56 5.69.62.28 1.4-2.25c.28-.4.54-.47 1.26-.14L.5-6.78c.5.23.77.44.9.7.12.2.07.44-.02.75l-.82 2.2Zm0 0"/><path id="ap" d="M-7.37-4.8c5.53 2.57 9.11 1.82 10.92-2 1.75-3.78.4-6.86-3.08-8.49-3.44-1.6-6.31-.36-7.6 2.38-.93 2.01-.26 4.15.27 5.22l-.01.06c-5.65-2.66-7.15-5.3-6.07-7.61.55-1.17 1.92-1.56 3.58-1.25.33.05.66-.02.83-.4.26-.58.19-1.58-.52-1.91-1.03-.49-3.3-.02-4.73 3.06-1.9 4.05.05 7.98 6.4 10.95m3.06-1.72c-1.55-.71-2.9-2.78-1.9-4.92.74-1.6 2.94-2.5 5.88-1.14 2.69 1.27 4 3.14 3 5.28-1.03 2.24-3.9 2.22-6.98.78m0 0"/><path id="aq" d="M-8.03-5.05c5.1 2.4 9.51 2.64 11.48-1.58 1.97-4.2-1.04-7.46-6.15-9.85s-9.53-2.58-11.5 1.62c-1.97 4.22 1.06 7.44 6.17 9.81m1.2-2.57c-4.15-1.94-7.6-4.4-6.48-6.82s5.23-1.39 9.39.55 7.6 4.42 6.48 6.84-5.23 1.36-9.39-.58m0 0"/><path id="ar" d="m.8-2.95 2.39-8.96-.78-.2-.82 2.23c-.22.55-.5.83-1.57.54l-16.05-4.3-.17.1-.55 5.88.66.18.98-2.47c.19-.44.45-.57 1.22-.35L-.7-6.77c.53.14.83.3 1 .52.16.2.16.45.11.75l-.4 2.34Zm0 0"/><path id="as" d="m-14.08-4.97.2-.73-.5-.4c-.67-.56-.96-1.06-.64-2.28l1.97-7.34c.9.52 2.35 1.47 4.9 4.52C-5.42-7.97-2.79-5.63.43-4.75c.9.23 1.26-.36 1.48-1.19.22-.8.16-1.4-.64-1.6-3.62-.83-6.37-2.33-8.5-4.46-2.56-2.55-3.89-4.45-7.06-6.31l-.35.14-3.03 11.33Zm0 0"/><path id="at" d="M-8.8-3.56c5.44 1.45 9.85.92 11.05-3.58s-2.33-7.17-7.77-8.63c-5.43-1.45-9.84-.89-11.04 3.6s2.33 7.15 7.76 8.6m.75-2.75c-4.42-1.19-8.26-3.03-7.56-5.61.69-2.58 4.92-2.25 9.34-1.06C-1.83-11.8 1.98-9.97 1.3-7.4.6-4.81-3.6-5.13-8.05-6.31m0 0"/><path id="au" d="m1.02-3.8 3.07-11.5-1.01-.26-1.03 2.86c-.28.72-.64 1.06-2.02.68l-20.65-5.53-.22.14-.72 7.57.86.23 1.28-3.17c.23-.58.56-.72 1.56-.45l17 4.54c.66.17 1.05.36 1.25.66.22.25.22.58.16.94L0-4.06Zm0 0"/><path id="av" d="M-11.31-4.6C-4.3-2.7 1.34-3.4 2.89-9.16s-2.98-9.2-10-11.1c-7-1.87-12.66-1.15-14.2 4.61-1.55 5.79 3 9.2 10 11.07m.95-3.54c-5.7-1.52-10.62-3.88-9.73-7.19s6.3-2.87 12.01-1.36c5.72 1.53 10.64 3.88 9.75 7.19s-6.31 2.9-12.03 1.36m0 0"/><path id="aw" d="m.1-1.02.46-.2 6.35-13.6-3.82-3.13-.59.82c1.45 1.52 1.4 2.3.77 3.65L-.64-5.11c-1.45-1.31-2.9-4.36-3.67-8.44-.85-4.23-1.17-7.36-4.85-9.06-4.57-2.14-7.56.19-9.17 3.64-2.1 4.52-.47 8.1 1.24 8.9 1.12.5 2.25-.5 2.5-1.07.28-.6.04-.97-.47-1.36-2-1.58-3.17-3.7-2.24-5.73 1.2-2.52 3.61-2.27 6.03-1.13 3.54 1.64 4.7 4.33 5.88 8.38 1.66 5.7 3.23 8.15 5.48 9.96m0 0"/><path id="ax" d="M-10.33-6.48C-3.77-3.41 1.91-3.11 4.44-8.53c2.51-5.42-1.35-9.6-7.9-12.67-6.59-3.07-12.29-3.33-14.8 2.1-2.54 5.41 1.35 9.55 7.93 12.62m1.55-3.33c-5.36-2.49-9.8-5.66-8.35-8.77 1.44-3.1 6.74-1.75 12.1.74 5.34 2.5 9.76 5.67 8.33 8.78-1.46 3.1-6.74 1.75-12.08-.75m0 0"/><path id="ay" d="M-2.47-2.92c1.27.89 4.8.31 7.74-3.9 3.01-4.29 2.75-8.5-1.05-11.16-3.97-2.79-7.55-.22-8.86 1.32l-.13-.09c.88-1.78 1.49-5.17-1.46-7.23-3.29-2.32-6.54-.77-8.75 2.42-2.75 3.92-1.82 7.45-.57 8.33.93.64 2.16-.07 2.44-.47s.2-.75-.06-1.14c-1.58-2.08-2.1-4.1-.92-5.77 1.62-2.33 4.09-1.5 5.78-.33 1.76 1.25 3.56 3.44 1.8 5.99-1 1.4-1.87 2.03-2.1 2.37-.27.4-.1.74.45 1.11.49.35.93.44 1.2.05.23-.35.52-1.38 1.52-2.78 1.77-2.55 5.05-2.38 7.63-.57 3.53 2.47 3.56 5.1 2.08 7.2C2.89-5.6.52-5.32-1.55-5.91q-1.04-.33-1.47.28c-.37.55-.53 1.97.55 2.72m0 0"/><path id="az" d="M-9.06-8.19c5.94 4.17 11.48 5.46 14.92.55 3.42-4.9.33-9.67-5.61-13.84s-11.5-5.43-14.92-.54c-3.44 4.91-.33 9.68 5.6 13.83m2.1-3c-4.82-3.37-8.63-7.28-6.66-10.1 1.95-2.79 6.92-.54 11.75 2.84 4.84 3.39 8.65 7.3 6.7 10.1-1.97 2.8-6.94.55-11.78-2.84m0 0"/><path id="aA" d="m-4.64-5.6.76.32 6.99-6.99 2.6 2.61c.88.88.74 1.3.2 1.97l-1.49 1.8.74.73 6.76-6.76-.73-.74-1.3 1.02c-.67.52-.97.53-1.84-.34L5.44-14.6l2.6-2.61-1.2-1.2-2.6 2.6-11.35-11.34-1.89 1.9c1.14 5.95 2.7 13.27 4.36 19.64m1.2-2.53A229 229 0 0 1-7-22.27l.05-.05 8.86 8.86Zm0 0"/><path id="aB" d="M-7.5-9.62C-2.37-4.5 2.86-2.28 7.1-6.5c4.21-4.22 2-9.48-3.12-14.6-5.12-5.13-10.39-7.34-14.6-3.12-4.24 4.24-2 9.47 3.12 14.6m2.6-2.6c-4.18-4.17-7.27-8.67-4.83-11.1 2.42-2.43 6.92.66 11.09 4.84S8.63-9.81 6.2-7.4C3.77-4.95-.73-8.05-4.9-12.22m0 0"/><path id="aC" d="M-.92-3.87c.95 1.35 4.45 1.92 8.3-.79 4.89-3.42 5.03-7.93 2.4-11.7-2.92-4.16-7-4.48-10.55-2a8.6 8.6 0 0 0-3.25 4.6l-.07.01-3.22-6.05c-.44-.8-.32-1.03.26-1.43l7.38-5.18-.69-2.53-.33-.15-9.9 6.95-.1.48 6.35 10.33.98-.1c.25-2.3.97-3.82 2.58-4.94 1.89-1.33 4.94-1.43 7.67 2.5 2.16 3.06 2.55 6.23-.05 8.04C4.77-4.36 2.67-5.1.88-6.4c-.47-.32-.94-.42-1.35-.12-.6.42-1.14 1.69-.45 2.66m0 0"/><path id="aD" d="M-5.72-10.78c4.17 5.94 8.92 9.05 13.83 5.6 4.89-3.41 3.64-8.98-.53-14.91-4.16-5.94-8.95-9.03-13.85-5.61-4.9 3.43-3.6 8.98.55 14.92m3-2.11c-3.37-4.83-5.62-9.8-2.81-11.77 2.8-1.95 6.7 1.86 10.08 6.7 3.39 4.84 5.64 9.8 2.84 11.76C4.58-4.23.67-8.05-2.7-12.9m0 0"/><path id="aE" d="M-3.3-10.81C.02-3.71 4.2-1.5 9.13-3.8c4.85-2.26 6.07-6.39 3.98-10.87-2.06-4.44-5.9-5.58-9.44-3.94-2.6 1.22-3.7 3.86-4.06 5.34l-.08.04c-3.34-7.25-2.62-11.11.35-12.5 1.51-.7 3.15.06 4.54 1.71.27.35.67.55 1.17.32.74-.35 1.46-1.4 1.04-2.32-.63-1.34-3.22-2.75-7.18-.9-5.22 2.42-6.54 7.94-2.75 16.1m4.44.83c-.92-1.99-.56-5.13 2.19-6.41 2.06-.95 4.97-.03 6.73 3.73 1.61 3.47 1.36 6.4-1.4 7.7-2.88 1.34-5.68-1.07-7.52-5.02m0 0"/><path id="aF" d="M-3.77-11.6C-.69-5.06 3.45-1.17 8.88-3.7c5.42-2.51 5.15-8.22 2.07-14.78C7.9-25.05 3.72-28.9-1.7-26.39c-5.42 2.53-5.13 8.2-2.07 14.78m3.33-1.56c-2.48-5.36-3.84-10.64-.73-12.09s6.28 2.98 8.76 8.34c2.5 5.35 3.86 10.64.75 12.08-3.1 1.46-6.28-2.98-8.78-8.33m0 0"/><path id="aG" d="m-3.5-18.86.94-.25.14-.84c.19-1.08.53-1.74 2.1-2.16l9.45-2.53c.01 1.36-.13 3.55-1.86 8.36-1.88 5.12-2.8 9.58-1.7 13.7.32 1.17 1.21 1.2 2.29.9 1-.26 1.67-.76 1.37-1.74-1.42-4.58-1.51-8.6-.51-12.33 1.19-4.5 2.45-7.2 2.51-11.92l-.4-.3-14.56 3.9Zm0 0"/><path id="aH" d="M-1.69-12.1C.21-5.07 3.61-.52 9.4-2.07c5.77-1.54 6.49-7.2 4.6-14.22-1.88-7-5.32-11.53-11.08-9.98-5.78 1.55-6.47 7.19-4.6 14.19m3.55-.95C.34-18.75-.08-24.17 3.23-25.06s5.66 4.03 7.18 9.73C11.94-9.6 12.38-4.19 9.06-3.3c-3.31.9-5.67-4.03-7.2-9.75m0 0"/><path id="aI" d="M.92-6.69C1.25-3.05 3.75.1 9.61-.42c5.83-.5 7.78-4.05 7.45-7.69-.31-3.69-2.81-5.6-5.33-5.97v-.08a5.26 5.26 0 0 0 3.49-5.7c-.35-3.94-3.64-5.89-7.78-5.53-4.16.37-7.1 2.86-6.75 6.8a5.36 5.36 0 0 0 4.47 5.01v.08A6.3 6.3 0 0 0 .92-6.69m3.63-.22c-.3-3.3 1.06-5.89 3.97-6.15 2.87-.25 4.65 2.06 4.95 5.37.28 3.19-.94 5.74-3.97 6-3.05.27-4.67-2.03-4.95-5.22M4.2-18.98c-.25-2.79.88-4.93 3.35-5.14 2.43-.2 3.92 1.7 4.17 4.48.2 2.45-.74 5.05-3.33 5.27-2.62.23-3.98-2.16-4.19-4.61m0 0"/><path id="aJ" d="M.44-12.19C1.08-4.97 3.64.11 9.6-.42c5.94-.52 7.64-5.97 7-13.19s-3.23-12.3-9.17-11.78c-5.97.53-7.63 5.98-7 13.2m3.65-.33c-.5-5.89.02-11.3 3.46-11.6 3.4-.3 4.87 4.95 5.37 10.84.52 5.89-.01 11.3-3.42 11.6-3.44.3-4.9-4.94-5.4-10.84m0 0"/><clipPath id="e"><path d="M7 38h543v385.7H7Zm0 0"/></clipPath><clipPath id="f"><path d="M1 32h555v391.7H1Zm0 0"/></clipPath></defs><path fill="#66B2B2" d="m278.35 309.02 31.75 2.78c.49-5.58-.5-11.18-2.87-16.25Zm0 0"/><path fill="none" stroke="#000" stroke-miterlimit="10" stroke-width=".4" d="M310.1 311.8c.49-5.58-.5-11.18-2.87-16.25"/><use xlink:href="#a" x="270.78" y="314.25"/><use xlink:href="#b" x="271.12" y="301.1"/><use xlink:href="#a" x="344.42" y="279.91"/><use xlink:href="#c" x="345.11" y="266.76"/><use xlink:href="#a" x="378.71" y="323.69"/><use xlink:href="#d" x="379.18" y="310.23"/><path fill="none" stroke="red" stroke-dasharray="2.987036702 2.987036702" stroke-miterlimit="10" stroke-width=".4" d="m278.35 309.02 171.86-80.14"/><path fill="none" stroke="#000" stroke-miterlimit="10" stroke-width=".4" d="m278.35 309.02 98.2-45.8m-98.2 45.8 161.92 14.16"/><g clip-path="url(#e)"><path fill="#CCCCE5" fill-opacity=".5" fill-rule="evenodd" d="m19.65 379.4 501.24 43.85a4.6 4.6 0 0 0 4.24-2.45c61.97-132.89 3.3-294.07-132.29-357.3S96.06 58.93 32.83 194.53C5.9 252.25.2 317.63 15.9 376.25c.42 1.59.77 1.55.77-.1a3.3 3.3 0 0 0 2.97 3.24m69.8-86.91 293.87 25.71c1.64.15 1.95-.6.69-1.66-58.77-49.31-145.4-56.9-214.42-17.04m246.67 21.58 48.02 4.2a3 3 0 0 0 3.24-2.71c8.87-101.36-68.3-193.33-172.64-202.46S98.57 188.16 89.7 289.5a3 3 0 0 0 2.72 3.24l317.89 27.81zm0 0"/></g><g clip-path="url(#f)"><path fill="none" stroke="#000" stroke-miterlimit="10" stroke-opacity=".5" stroke-width=".4" d="m19.65 379.4 501.24 43.85a4.6 4.6 0 0 0 4.24-2.45c61.97-132.89 3.3-294.07-132.29-357.3S96.06 58.93 32.83 194.53C5.9 252.25.2 317.63 15.9 376.25c.42 1.59.77 1.55.77-.1a3.3 3.3 0 0 0 2.97 3.24Zm69.8-86.91 293.87 25.71c1.64.15 1.95-.6.69-1.66-58.77-49.31-145.4-56.9-214.42-17.04m246.67 21.58 48.02 4.2a3 3 0 0 0 3.24-2.71c8.87-101.36-68.3-193.33-172.64-202.46S98.57 188.16 89.7 289.5a3 3 0 0 0 2.72 3.24l317.89 27.81zm0 0"/></g><path fill="none" stroke="#7F7FA6" stroke-miterlimit="10" stroke-width=".4" d="m89.44 292.49 377.82 33.06m-190.8 5.05 3.78-43.17m-11.74 9.85 19.7 23.48m-21.6-1.89 23.49-19.7"/><path fill="none" stroke="#7F7FA6" stroke-miterlimit="10" stroke-width="1.2" d="m532.03 331.21 16.19 1.42m-64.77-5.67-16.2-1.41m64.78-38.73 16.2-1.41m-64.78 5.66-16.19 1.42m57.06-49.39 15.7-4.2m-62.8 16.83-15.7 4.2m47.62-58.53 14.73-6.87m-58.92 27.48-14.74 6.87m36.73-65.92 13.32-9.32M447 190.93l-13.32 9.32m24.73-71.29 11.5-11.5m-45.98 45.98-11.5 11.49m11.98-74.51 9.32-13.31m-37.29 53.26-9.32 13.31m-1.15-75.45 6.87-14.73m-27.48 58.92-6.87 14.73m-14.23-74.1 4.2-15.7m-16.82 62.8-4.21 15.7m-26.89-70.51 1.42-16.2m-5.67 64.78-1.41 16.19m-38.72-64.77-1.42-16.2m5.67 64.77 1.41 16.2m-49.38-57.06-4.2-15.7m16.82 62.8 4.21 15.7m-58.54-47.62-6.87-14.73m27.48 58.92 6.87 14.73m-65.92-36.72-9.33-13.32m37.3 53.26 9.32 13.31m-71.29-24.73-11.5-11.49m45.98 45.97 11.5 11.5m-74.52-11.97-13.3-9.32m53.25 37.29 13.31 9.32m-75.45 1.15-14.73-6.87M91.75 222l14.73 6.88m-74.1 14.22-15.7-4.2m62.8 16.83 15.7 4.2m-70.51 26.89-16.19-1.41m64.77 5.66 16.2 1.42m446.25 16.53h13.55m-67.73 0h-13.54m63.82-44.69 13.33-2.35m-66.7 11.76-13.33 2.35M520.18 221l12.73-4.64m-63.64 23.17-12.73 4.63m44.69-63.82 11.73-6.77m-58.66 33.86-11.73 6.77m32.93-70.6 10.37-8.71M434 178.42l-10.38 8.7m20.15-75.25 8.71-10.37m-43.53 51.88-8.7 10.37m6.78-77.61 6.77-11.73m-33.86 58.65-6.78 11.73m-6.79-77.61L371 54.45m-23.16 63.64-4.63 12.73m-20.17-75.25 2.35-13.34m-11.76 66.7-2.35 13.34m-32.93-70.61V38.12m0 67.72v13.55m-44.69-63.82-2.35-13.34m11.76 66.7 2.35 13.34m-55.09-55.09-4.63-12.73m23.16 63.64 4.63 12.73m-63.82-44.68-6.77-11.73m33.86 58.65 6.78 11.73m-70.61-32.92-8.71-10.37m43.53 51.88 8.7 10.37M81.2 143.6l-10.37-8.71m51.88 43.53 10.38 8.7m-77.62-6.78-11.73-6.77m58.65 33.86 11.74 6.77M36.52 221l-12.73-4.64m63.64 23.17 12.73 4.63M24.9 264.33l-13.33-2.35m66.7 11.75 13.33 2.36"/><path fill="none" stroke="#7F7FA6" stroke-miterlimit="10" stroke-width=".4" d="m545.89 327.73 2.7.18m-78.37-5.48-2.7-.18m75.95.66 5.4.29m-75.74-3.97-5.41-.29m73.24-.75 8.13.28m-73.1-2.55-8.13-.28m70.51-2.09 10.84.2m-70.42-1.23-10.84-.2m70.42-7.84 10.84-.19m-70.42 1.23-10.84.2m73.01-5.87 8.13-.29m-73.1 2.56-8.12.28m75.59-7.27 5.42-.29m-75.75 3.97-5.41.28m78.17-8.78 2.7-.19m-78.37 5.48-2.7.19m77.55-14.81 2.7-.28m-78.14 8.21-2.69.29m74.91-12.54 5.38-.66m-75.28 9.25-5.38.66m71.99-13.46 8.05-1.13m-72.43 10.18-8.05 1.13m69.08-14.29 10.7-1.7m-69.56 11.02-10.7 1.7m67.98-19.96 10.64-2.07m-69.14 13.44-10.63 2.07m70.88-18.46 7.95-1.68m-71.54 15.2-7.95 1.69m73.19-20.29 5.28-1.22m-73.91 17.06-5.28 1.22m75.45-22.22 2.64-.66m-76.23 19-2.63.66m73.8-28.04 2.6-.75M463.24 256l-2.6.75m71.59-25.35 5.18-1.58m-72.54 22.17-5.17 1.59m68.56-25.76 7.73-2.52m-69.56 22.6-7.73 2.52m65.54-26.07 10.25-3.53m-66.6 22.93-10.24 3.53m63.49-31.46 10.11-3.88m-65.75 25.24-10.12 3.88m66.61-30.48 7.53-3.04m-67.81 27.4-7.54 3.04m68.56-32.69 4.98-2.12m-69.82 29.64-4.98 2.12m70.45-35 2.47-1.1m-71.77 31.96-2.47 1.1m67.81-40.44 2.43-1.19m-70.6 34.44-2.44 1.19m66.11-37.39 4.83-2.47m-67.59 34.44-4.83 2.46m63.05-37.28 7.18-3.81m-64.58 34.34-7.18 3.81m60.02-37.05 9.49-5.26m-61.6 34.15-9.49 5.26m57.07-42.01 9.29-5.58m-60.38 36.27-9.29 5.58m60.31-41.58 6.89-4.3m-62.03 38.75-6.9 4.3M501 164.43l4.55-2.95m-63.62 41.3-4.54 2.96m63.31-46.69 2.24-1.52m-65.14 43.93-2.24 1.52m59.76-51.6 2.2-1.6m-63.56 46.18-2.2 1.6m58.61-48.31 4.33-3.26m-60.58 45.65-4.33 3.25m55.63-47.65 6.4-5m-57.64 45.03-6.4 5m52.68-46.91 8.42-6.82m-54.74 44.32-8.42 6.82m48.9-51.28 8.18-7.11m-53.16 46.21-8.18 7.1m52.17-51.41 6.04-5.44m-54.36 48.94-6.04 5.44m53.23-54.17 3.97-3.7M421 176l-3.96 3.7m54.23-56.99 1.95-1.88m-56.51 54.58-1.95 1.88m49.89-61.19 1.88-1.95m-54.57 56.51-1.88 1.95m49.32-57.75 3.7-3.97m-51.73 55.48-3.7 3.96m46.51-56.59 5.44-6.04m-48.94 54.35-5.44 6.04m43.72-55.34 7.12-8.18m-46.21 53.15-7.11 8.18m39.25-58.99 6.82-8.42m-44.32 54.74-6.82 8.42m42.44-59.7 5-6.4m-45.03 57.63-5 6.4M438.12 97l3.26-4.33m-45.65 60.58-3.26 4.32m43.52-65.52 1.6-2.2m-46.18 63.56-1.6 2.2m38.51-68.93 1.52-2.25m-43.93 65.13-1.52 2.25m38.55-65.44 2.95-4.55m-41.31 63.62-2.95 4.54m35.97-63.8 4.3-6.9m-38.76 62.03-4.3 6.9M412.3 86.1l5.57-9.29M381.6 137.2l-5.58 9.28m28.41-64.92 5.25-9.48m-34.14 61.6-5.25 9.48M401.71 77l3.82-7.17M371.2 134.4l-3.82 7.18m31.49-69.11 2.47-4.83m-34.44 67.6-2.46 4.81m31.48-72.08 1.19-2.43m-34.45 70.6-1.18 2.44m25.95-74.57 1.1-2.47m-31.95 71.76-1.1 2.48m26.6-71.14 2.12-4.99m-29.64 69.82-2.11 5m24.34-69.09 3.04-7.54m-27.4 67.82-3.04 7.54m22.16-66.97 3.88-10.12m-25.24 65.76-3.89 10.11m16.72-68.86 3.52-10.24m-22.93 66.6-3.52 10.23m19.46-70.61 2.51-7.72m-22.6 69.56-2.51 7.73m19.02-73.53 1.58-5.19m-22.18 72.54-1.58 5.18m18.48-76.46.75-2.6m-21.65 75.52-.75 2.6m12.61-77.93.66-2.64m-19.01 76.23-.65 2.63m13.84-74.68 1.22-5.28m-17.06 73.9-1.22 5.29m11.97-72.27 1.7-7.94m-15.22 71.54-1.68 7.95m10.19-69.8 2.07-10.64m-13.44 69.14-2.07 10.64m4.51-70.71 1.69-10.7m-11.02 69.56-1.7 10.7m6.91-72.92 1.13-8.05m-10.18 72.43-1.13 8.05m5.96-75.71.66-5.38m-9.24 75.29-.66 5.37m4.92-78.5.29-2.7m-8.22 78.13-.28 2.7m-1.11-78.95.19-2.7m-5.48 78.37-.2 2.7m.68-75.95.28-5.41m-3.97 75.75-.29 5.4m-.75-73.24.28-8.12m-2.55 73.1-.28 8.12M282.89 49l.18-10.84m-1.22 70.42-.2 10.84M273.81 49l-.18-10.84m1.22 70.42.2 10.84m-5.87-73.02-.29-8.12m2.56 73.1.28 8.12m-7.27-75.6-.29-5.41m3.97 75.75.29 5.4m-8.79-78.16-.19-2.7m5.48 78.37.2 2.7M250.32 42.3l-.29-2.7m8.22 78.13.28 2.7M246 45.52l-.66-5.38m9.24 75.28.66 5.38m-13.46-72-1.13-8.05m10.18 72.44 1.13 8.04m-14.29-69.08-1.7-10.7M247 111.02l1.7 10.7m-19.97-67.99-2.07-10.64m13.44 69.14 2.07 10.64m-18.46-70.88-1.68-7.95m15.2 71.54 1.7 7.95m-20.3-73.19-1.22-5.28m17.06 73.9 1.22 5.29m-22.23-75.46-.65-2.63m19 76.23.66 2.63m-28.04-73.81-.75-2.6m21.65 75.52.75 2.6m-25.35-71.59-1.58-5.19m22.17 72.54 1.59 5.18M197.15 59.1l-2.51-7.72m22.6 69.56 2.51 7.73m-26.07-65.54-3.53-10.25m22.94 66.6 3.52 10.24m-31.46-63.49-3.88-10.12m25.24 65.76 3.88 10.11m-30.48-66.6-3.04-7.54m27.4 67.82 3.04 7.54m-32.69-68.56-2.12-4.99m29.64 69.82 2.12 5m-34.99-70.46-1.1-2.47m31.95 71.77 1.1 2.47m-40.44-67.81-1.19-2.43m34.44 70.6 1.19 2.44m-37.4-66.11-2.46-4.83m34.44 67.59 2.46 4.82M154.98 77l-3.81-7.17m34.34 64.58 3.81 7.18m-37.05-60.03-5.25-9.48m34.14 61.6 5.25 9.48M144.4 86.1l-5.58-9.3m36.28 60.38 5.58 9.3M139.1 86.17l-4.3-6.9m38.75 62.04 4.3 6.89m-44.09-61.83-2.96-4.55m41.32 63.62 2.95 4.54m-46.69-63.3-1.52-2.25m43.94 65.13 1.5 2.25m-51.6-59.76-1.58-2.2m46.17 63.56 1.6 2.2M118.58 97l-3.26-4.33m45.65 60.58 3.26 4.32m-47.66-55.62-5-6.4m45.03 57.63 5 6.4m-46.91-52.67-6.82-8.42m44.32 54.74 6.82 8.41m-51.28-48.89-7.1-8.18m46.2 53.15 7.11 8.18m-51.42-52.16-5.44-6.04m48.94 54.35 5.44 6.04M97.3 114.86l-3.7-3.97m51.73 55.48 3.7 3.96M92.05 116.1l-1.89-1.96m54.58 56.52 1.88 1.95m-61.19-49.89-1.95-1.88M140 175.4l1.95 1.88m-57.76-49.32-3.96-3.7M135.7 176l3.96 3.7m-56.59-46.51-6.04-5.44m54.36 48.94 6.04 5.44M82.07 138.4l-8.17-7.11m53.15 46.21 8.18 7.1m-58.99-39.24-8.42-6.82m54.74 44.32 8.42 6.82m-59.7-42.44-6.4-5m57.64 45.03 6.4 5m-62.6-43.02L62 145.98m60.57 45.65 4.33 3.26m-65.52-43.51-2.2-1.6m63.57 46.18 2.19 1.6m-68.93-38.51-2.25-1.52m65.13 43.93 2.25 1.52M55.7 164.43l-4.55-2.95m63.62 41.3 4.54 2.96M55.5 169.77l-6.89-4.3m62.03 38.75 6.9 4.3m-62.11-33.45-9.29-5.58m60.38 36.28 9.28 5.58m-64.9-28.41-9.49-5.26m61.61 34.15 9.48 5.25m-66.16-31.43-7.18-3.81m64.58 34.34 7.18 3.81M41.8 188.5l-4.82-2.47m67.58 34.44 4.83 2.46M37.3 191.45l-2.43-1.19m70.6 34.44 2.44 1.2m-74.57-25.97-2.47-1.1m71.77 31.96 2.47 1.1m-71.14-26.6-4.99-2.12M98.8 232.8l5 2.12m-69.09-24.34-7.53-3.04m67.81 27.4 7.54 3.04m-66.97-22.16-10.12-3.88m65.76 25.24 10.12 3.88m-68.87-16.71-10.25-3.53m66.6 22.93 10.25 3.53m-70.61-19.46-7.73-2.52m69.56 22.61 7.73 2.5M24.47 231.4l-5.18-1.59M91.82 252l5.18 1.58M20.55 235.1l-2.6-.75M93.45 256l2.6.75m-77.92-12.61-2.63-.66m76.22 19 2.63.66M19.67 249.3l-5.28-1.22m73.91 17.06 5.28 1.22m-72.26-11.98-7.95-1.69M84.9 267.9l7.95 1.69M23.06 259.4l-10.63-2.07m69.14 13.44 10.63 2.07m-70.71-4.51-10.7-1.7m69.56 11.03 10.7 1.7m-72.92-6.91-8.04-1.13m72.43 10.18 8.05 1.13m-75.72-5.97L9.47 276m75.28 9.25 5.38.66m-78.5-4.93-2.7-.28m78.13 8.21 2.7.29"/><g fill="#7F7FA6"><use xlink:href="#g" x="510.62" y="297.21"/><use xlink:href="#h" x="508.76" y="318.47"/><use xlink:href="#i" x="506.9" y="339.72"/></g><use xlink:href="#j" x="506.71" y="339.71" fill="#7F7FA6"/><g fill="#7F7FA6"><use xlink:href="#k" x="483.56" y="276.07"/><use xlink:href="#l" x="484.86" y="290.95"/></g><g fill="#7F7FA6"><use xlink:href="#m" x="474.72" y="240.94"/><use xlink:href="#n" x="478.59" y="255.36"/></g><g fill="#7F7FA6"><use xlink:href="#o" x="459.92" y="207.87"/><use xlink:href="#p" x="466.23" y="221.41"/></g><g fill="#7F7FA6"><use xlink:href="#q" x="439.59" y="177.88"/><use xlink:href="#r" x="448.16" y="190.11"/></g><g fill="#7F7FA6"><use xlink:href="#s" x="414.37" y="151.87"/><use xlink:href="#t" x="424.93" y="162.44"/></g><g fill="#7F7FA6"><use xlink:href="#u" x="385.02" y="130.64"/><use xlink:href="#v" x="397.25" y="139.21"/></g><g fill="#7F7FA6"><use xlink:href="#w" x="352.42" y="114.83"/><use xlink:href="#x" x="365.96" y="121.14"/></g><g fill="#7F7FA6"><use xlink:href="#y" x="317.58" y="104.91"/><use xlink:href="#z" x="332" y="108.78"/></g><g fill="#7F7FA6"><use xlink:href="#A" x="310.5" y="77.76"/><use xlink:href="#B" x="329.04" y="82.73"/><use xlink:href="#B" x="347.59" y="87.7"/></g><g fill="#7F7FA6"><use xlink:href="#C" x="350.17" y="86.85"/><use xlink:href="#C" x="367.57" y="94.97"/><use xlink:href="#D" x="384.97" y="103.08"/></g><g fill="#7F7FA6"><use xlink:href="#E" x="387.65" y="102.7"/><use xlink:href="#F" x="403.38" y="113.71"/><use xlink:href="#G" x="419.11" y="124.73"/></g><g fill="#7F7FA6"><use xlink:href="#H" x="421.82" y="124.82"/><use xlink:href="#I" x="435.4" y="138.39"/><use xlink:href="#J" x="448.98" y="151.97"/></g><g fill="#7F7FA6"><use xlink:href="#K" x="451.62" y="152.52"/><use xlink:href="#L" x="462.64" y="168.25"/><use xlink:href="#M" x="473.65" y="183.98"/></g><g fill="#7F7FA6"><use xlink:href="#N" x="476.17" y="184.99"/><use xlink:href="#O" x="484.28" y="202.4"/><use xlink:href="#P" x="492.4" y="219.8"/></g><g fill="#7F7FA6"><use xlink:href="#Q" x="494.7" y="221.23"/><use xlink:href="#R" x="499.67" y="239.77"/><use xlink:href="#S" x="504.64" y="258.32"/></g><g fill="#7F7FA6"><use xlink:href="#T" x="506.66" y="260.13"/><use xlink:href="#U" x="508.33" y="279.26"/><use xlink:href="#V" x="510.01" y="298.39"/></g><g fill="#7F7FA6"><use xlink:href="#W" x="275.99" y="91.17"/><use xlink:href="#X" x="297.25" y="93.03"/></g><path fill="none" stroke="#7F7FA6" stroke-miterlimit="10" stroke-width="1.2" d="m300.07 60.74 1.9-21.6m-5.2 59.38-1.9 21.59"/><g fill="#7F7FA6"><use xlink:href="#Y" x="237.97" y="104.46"/><use xlink:href="#Z" x="252.84" y="103.15"/><use xlink:href="#Z" x="267.72" y="101.85"/></g><g fill="#7F7FA6"><use xlink:href="#aa" x="203.06" y="114.58"/><use xlink:href="#aa" x="217.48" y="110.71"/><use xlink:href="#ab" x="231.91" y="106.85"/></g><g fill="#7F7FA6"><use xlink:href="#ac" x="170.44" y="130.61"/><use xlink:href="#ad" x="183.97" y="124.29"/><use xlink:href="#ae" x="197.51" y="117.98"/></g><g fill="#7F7FA6"><use xlink:href="#af" x="141.09" y="152.06"/><use xlink:href="#ag" x="153.33" y="143.49"/><use xlink:href="#ah" x="165.56" y="134.92"/></g><g fill="#7F7FA6"><use xlink:href="#ai" x="115.93" y="178.27"/><use xlink:href="#aj" x="126.49" y="167.71"/><use xlink:href="#ak" x="137.05" y="157.15"/></g><g fill="#7F7FA6"><use xlink:href="#al" x="95.69" y="208.47"/><use xlink:href="#am" x="104.26" y="196.23"/><use xlink:href="#an" x="112.82" y="184"/></g><g fill="#7F7FA6"><use xlink:href="#ao" x="81" y="241.71"/><use xlink:href="#ap" x="87.31" y="228.17"/><use xlink:href="#aq" x="93.63" y="214.64"/></g><g fill="#7F7FA6"><use xlink:href="#ar" x="72.31" y="277"/><use xlink:href="#as" x="76.18" y="262.58"/><use xlink:href="#at" x="80.04" y="248.15"/></g><g fill="#7F7FA6"><use xlink:href="#au" x="49.57" y="267.6"/><use xlink:href="#av" x="54.54" y="249.05"/></g><g fill="#7F7FA6"><use xlink:href="#aw" x="60.24" y="228.5"/><use xlink:href="#ax" x="68.36" y="211.1"/></g><g fill="#7F7FA6"><use xlink:href="#ay" x="77.54" y="191.85"/><use xlink:href="#az" x="88.55" y="176.12"/></g><g fill="#7F7FA6"><use xlink:href="#aA" x="100.94" y="158.76"/><use xlink:href="#aB" x="114.51" y="145.18"/></g><g fill="#7F7FA6"><use xlink:href="#aC" x="129.72" y="130.24"/><use xlink:href="#aD" x="145.45" y="119.22"/></g><g fill="#7F7FA6"><use xlink:href="#aE" x="163.03" y="107.14"/><use xlink:href="#aF" x="180.43" y="99.03"/></g><g fill="#7F7FA6"><use xlink:href="#aG" x="199.83" y="90.18"/><use xlink:href="#aH" x="218.38" y="85.21"/></g><g fill="#7F7FA6"><use xlink:href="#aI" x="239.03" y="79.87"/><use xlink:href="#aJ" x="258.16" y="78.2"/></g><use xlink:href="#j" x="47.94" y="299.57" fill="#7F7FA6"/><g fill="#7F7FA6"><use xlink:href="#aK" x="73.07" y="323.18"/><use xlink:href="#aL" x="74.93" y="301.93"/><use xlink:href="#j" x="76.79" y="280.67"/></g></svg>