<svg xmlns="http://www.w3.org/2000/svg" xmlns:xlink="http://www.w3.org/1999/xlink" width="326.65pt" height="235.67pt" viewBox="0 0 326.65 235.67"><defs><path id="a" d="m1.69-1.27.48.49L4.2-2.83 6.25-.78l.47-.49L4.69-3.3l2.03-2.03-.47-.48L4.2-3.78 2.17-5.81l-.48.48L3.73-3.3Zm0 0"/><path id="b" d="M-.22 0h2.63l.07-.33-.64-.06q-.22-.04-.22-.2.01-.11.07-.24c.39-.75.76-1.51 1.2-2.3h2.63L5.8-.7s-.07.28-.32.3l-.62.07L4.8 0h2.87l.08-.33-.45-.04c-.36-.04-.4-.2-.47-.7l-.86-7h-.83L3.17-4.65c-.6 1.05-1.56 2.78-2 3.48C.8-.55.6-.42.23-.39l-.39.06Zm3.35-3.56L5.03-7l.42 3.44Zm0 0"/><path id="c" d="M0 0h3.55c2.83 0 3.39-1.45 3.39-2.42 0-1.24-.9-1.77-1.77-1.94l.02-.01c1.54-.2 2.22-1.08 2.22-1.96 0-.95-.57-1.75-2.72-1.75H1.73l-.07.33.68.06q.3.02.3.28-.01.14-.05.3L1.2-.97c-.07.4-.2.52-.48.56l-.66.08Zm2.34-.9q-.01-.11.04-.26l.67-3h.45c1.17 0 2.19.35 2.19 1.68 0 1.04-.64 2.07-2.2 2.07-.93 0-1.15-.18-1.15-.48m.8-3.66.61-2.72c.08-.34.14-.4.92-.4.99 0 1.53.5 1.53 1.3 0 1.22-1.01 1.82-2.3 1.82Zm0 0"/><path id="d" d="M.6-3.2C.6-1.67 1.39.17 4.28.17c.82 0 1.62-.1 2.37-.48l.58-1.86h-.36C6.22-1 5.64-.23 4.19-.23c-1.36 0-2.33-.88-2.33-2.68 0-1.06.28-2.36.84-3.28a3.1 3.1 0 0 1 2.75-1.67c1.49 0 1.9.69 1.9 1.97h.37l.42-1.77a5.4 5.4 0 0 0-2.58-.6 4.6 4.6 0 0 0-4.15 2.12A5.6 5.6 0 0 0 .6-3.2m0 0"/><path id="n" d="m-.1 1.34-.37 4.08.36.03.19-1.03c.03-.26.14-.4.64-.36L8 4.7l.08-.08-.2-2.57-.32-.03-.25 1.14c-.04.2-.15.26-.51.23l-6-.52q-.36 0-.47-.14c-.09-.07-.09-.17-.09-.3V1.36Zm0 0"/><path id="o" d="M2.2.72C.95.6-.25 1.27-.42 3.27c-.19 2 .89 2.87 2.14 2.98 1.26.1 2.06-.6 2.33-1.45h.03A1.8 1.8 0 0 0 5.8 6.33c1.36.12 2.22-.9 2.34-2.31.13-1.43-.55-2.55-1.9-2.68-1-.07-1.7.49-1.96 1.2h-.03A2.15 2.15 0 0 0 2.2.73m-.15 1.23c1.14.11 1.93.7 1.86 1.7-.1.98-.99 1.46-2.13 1.35C.7 4.9-.08 4.34.02 3.31c.07-1.04.95-1.45 2.03-1.36m4.1.6c.96.1 1.62.6 1.55 1.43-.08.85-.83 1.24-1.78 1.15-.83-.07-1.64-.55-1.56-1.44.08-.9.97-1.2 1.8-1.14m0 0"/><path id="p" d="M4.1.88C1.62.66-.26 1.23-.43 3.27-.61 5.3 1.14 6.2 3.6 6.42s4.34-.36 4.53-2.4C8.31 1.98 6.56 1.09 4.1.88m-.12 1.25c2 .17 3.82.67 3.72 1.85S5.72 5.33 3.72 5.16C1.69 4.98-.1 4.48.02 3.3.1 2.13 1.95 1.95 3.98 2.13m0 0"/><path id="q" d="M-4.1-.87c2.47.21 4.35-.36 4.52-2.4C.61-5.3-1.14-6.2-3.6-6.42s-4.34.36-4.53 2.4C-8.31-1.98-6.56-1.09-4.1-.88m.12-1.25c-2-.18-3.82-.68-3.72-1.86s1.98-1.35 3.98-1.18c2.03.18 3.81.68 3.7 1.85-.09 1.19-1.93 1.36-3.96 1.19m0 0"/><path id="aR" d="m.1-1.34.37-4.08-.36-.03-.19 1.03c-.03.26-.14.4-.64.36L-8-4.7l-.08.08.2 2.57.32.03.25-1.14c.04-.2.15-.26.51-.23l5.99.52q.36 0 .47.14c.09.07.09.17.09.3v1.06Zm0 0"/><path id="aS" d="M-2.2-.72C-.95-.6.25-1.27.42-3.27c.19-2-.89-2.87-2.14-2.98-1.26-.1-2.06.6-2.33 1.45h-.03A1.8 1.8 0 0 0-5.8-6.33c-1.36-.12-2.22.9-2.34 2.31-.13 1.43.55 2.55 1.9 2.68 1 .07 1.7-.49 1.96-1.2h.03c.13.84.78 1.71 2.05 1.82m.15-1.23c-1.14-.11-1.93-.7-1.86-1.7.1-.98.99-1.46 2.13-1.35 1.08.1 1.86.66 1.76 1.69-.07 1.04-.95 1.45-2.03 1.36m-4.1-.6c-.96-.1-1.62-.6-1.55-1.43.08-.85.83-1.24 1.78-1.14.83.06 1.64.54 1.56 1.43-.08.9-.97 1.2-1.8 1.14m0 0"/><path id="r" d="m.08.94.25 2.84.25-.01v-.74c0-.19.06-.3.4-.33l5.11-.45.04-.05L5.67.45l-.22.02-.01.81c-.02.17-.08.24-.33.25l-4.2.38a1 1 0 0 1-.33-.05q-.1-.08-.13-.22L.33.92Zm0 0"/><path id="s" d="M2.92.1C1.2.26-.03.9.1 2.3c.13 1.43 1.46 1.83 3.18 1.68S6.23 3.2 6.1 1.77C5.97.36 4.66-.05 2.92.1M3 .99C4.4.86 5.72 1 5.8 1.8c.06.83-1.2 1.17-2.61 1.3-1.4.12-2.72 0-2.78-.83C.33 1.47 1.59 1.1 3 .98m0 0"/><path id="t" d="M.14.2.08.31l.94 3.47H2.2l-.03-.25c-.5-.05-.6-.22-.69-.55L.91.84c.48.02 1.2.35 1.97.99.8.65 1.35 1.15 2.3.9C6.33 2.43 6.52 1.55 6.3.66 5.98-.48 5.14-.9 4.7-.77c-.3.07-.34.43-.3.57.04.15.13.17.3.17.61-.02 1.16.19 1.28.7.2.66-.3.99-.93 1.16-.9.23-1.52-.1-2.36-.64C1.5.39.83.17.14.2m0 0"/><path id="u" d="M2.9-.4C1.23.04.1.86.49 2.24c.38 1.4 1.74 1.56 3.43 1.1C5.58 2.92 6.67 2.09 6.3.7S4.58-.86 2.9-.41m.23.84C4.47.08 5.8-.02 6.02.77c.21.8-.97 1.37-2.33 1.73-1.38.36-2.67.47-2.9-.33C.6 1.4 1.76.8 3.14.44m0 0"/><path id="v" d="M.9-.16C.57 0 .26.8.79 1.92c.53 1.14 1.44 1.58 2.44 1.11 1.06-.5.97-1.53.8-2h.03c.26.38.89.92 1.67.56.87-.4.95-1.28.56-2.12C5.8-1.56 4.97-1.8 4.62-1.64c-.25.1-.26.45-.21.58q.07.14.26.08c.61-.05 1.1.07 1.3.51.3.63-.19 1.05-.63 1.25C4.88 1 4.2 1.11 3.9.45c-.17-.39-.2-.64-.25-.75q-.07-.14-.28-.03-.22.1-.16.25c.05.11.24.27.4.66.32.65-.1 1.33-.8 1.65-.92.44-1.47.13-1.74-.42C.83 1.28 1.03.75 1.42.4q.18-.18.13-.34C1.47-.1 1.19-.3.9-.15m0 0"/><path id="w" d="M2.8-.9C1.22-.18.28.83.88 2.12c.6 1.3 1.98 1.23 3.56.5C6 1.89 6.94.89 6.33-.42 5.73-1.7 4.36-1.64 2.8-.91m.36.8c1.26-.6 2.54-.93 2.89-.2.36.75-.72 1.52-1.99 2.11-1.3.61-2.54.94-2.9.19-.35-.73.7-1.5 2-2.1m0 0"/><path id="x" d="M1.52-.86 1.4-.7l1.36 1.95-.72.5c-.24.17-.35.13-.49-.05l-.36-.4-.2.14L2.33 3.3l.2-.14-.19-.34c-.09-.19-.09-.27.14-.44l.72-.5.52.72.34-.23-.51-.72L6.7-.54l-.36-.54c-1.45.03-3.25.1-4.82.22m.54.4q1.62-.18 3.49-.26l.01.02-2.45 1.72Zm0 0"/><path id="y" d="M2.58-1.37C1.16-.37.4.77 1.22 1.92c.83 1.2 2.17.88 3.6-.12C6.22.83 6.97-.33 6.15-1.52c-.82-1.15-2.16-.84-3.58.15m.5.71C4.23-1.46 5.44-2 5.9-1.34c.48.68-.46 1.62-1.61 2.42-1.16.83-2.33 1.37-2.82.69-.46-.66.44-1.6 1.6-2.43m0 0"/><path id="z" d="M.88-.37C.59-.1.6.76 1.4 1.56c1.01 1.02 2.09.85 2.87.06.86-.85.75-1.84.02-2.57a2.2 2.2 0 0 0-1.24-.58l.02-.02 1.28-1c.17-.14.25-.12.36-.01l1.55 1.54.56-.28.01-.07L4.8-3.42h-.13L2.5-1.5l.06.25q.81-.1 1.28.38c.4.39.54 1.12-.26 1.92-.64.64-1.38.87-1.92.32-.44-.43-.33-.95-.11-1.45q.1-.16-.02-.3c-.14-.14-.45-.2-.65 0m0 0"/><path id="A" d="M2.31-1.81C1.08-.58.55.7 1.55 1.7c1.01 1.02 2.28.47 3.51-.76 1.22-1.22 1.75-2.47.74-3.49-1-1-2.27-.48-3.49.74m.63.62c.98-.98 2.08-1.73 2.65-1.15.58.57-.17 1.67-1.15 2.65-1.02 1.02-2.1 1.75-2.67 1.17-.58-.57.15-1.65 1.17-2.67m0 0"/><path id="B" d="M1.86-1.98q-1.6 2.3.03 3.43c1.05.74 2.06.49 2.74-.48.67-.97.43-1.92-.32-2.44a2 2 0 0 0-1.6-.2l-.02-.02c1.12-1.56 2-1.87 2.64-1.42.33.23.36.67.19 1.14q-.07.17.07.27c.18.12.47.15.61-.03.2-.3.2-1.02-.67-1.61-1.12-.8-2.44-.41-3.67 1.36M2.2-.95c.32-.44 1.02-.75 1.61-.33.46.31.6 1.03.03 1.84-.53.75-1.17 1.07-1.78.64S1.61-.1 2.2-.95m0 0"/><path id="C" d="M1.97-2.17C.97-.75.66.59 1.8 1.4c1.2.83 2.36.08 3.36-1.34.98-1.42 1.3-2.76.1-3.6-1.15-.8-2.3-.05-3.3 1.37m.72.5c.8-1.16 1.75-2.08 2.4-1.61.7.48.13 1.67-.67 2.83C3.6.7 2.67 1.63 1.98 1.15c-.65-.48-.12-1.67.7-2.82m0 0"/><path id="D" d="m2.27-4 .2.1.15-.13c.2-.19.38-.24.72-.08l2.13.99c-.19.25-.56.64-1.63 1.25C2.7-1.23 1.86-.55 1.42.38c-.12.26.03.42.27.53.23.1.44.12.53-.13a5 5 0 0 1 1.81-2.33c.9-.65 1.56-.93 2.3-1.8l-.02-.12L3.01-5Zm0 0"/><path id="E" d="M1.56-2.48C.83-.91.75.47 2.03 1.06c1.31.61 2.33-.33 3.06-1.9.74-1.57.8-2.94-.51-3.55C3.3-5 2.3-4.05 1.56-2.5m.8.36c.6-1.27 1.36-2.33 2.1-1.99.74.36.42 1.63-.18 2.9-.6 1.29-1.37 2.35-2.12 2-.74-.35-.41-1.62.2-2.91m0 0"/><path id="F" d="M.75-1.44C.53-.58.83.34 2.19.7S4.29.42 4.52-.44a1.5 1.5 0 0 0-.72-1.78v-.01c.54 0 1.08-.32 1.26-1 .24-.91-.34-1.61-1.31-1.88s-1.81.06-2.05.97c-.18.69.11 1.23.58 1.5v.02c-.6 0-1.3.32-1.53 1.18m.84.25c.2-.76.72-1.23 1.4-1.06.67.19.88.86.68 1.63-.2.75-.7 1.2-1.4 1.01s-.88-.83-.68-1.58m.91-2.75c.17-.64.6-1.04 1.17-.89.58.16.75.72.58 1.36-.16.56-.56 1.1-1.19.92-.6-.15-.72-.83-.56-1.39m0 0"/><path id="G" d="M1.1-2.72C.63-1.03.8.33 2.18.7S4.4-.03 4.86-1.72c.45-1.67.28-3.01-1.11-3.39-1.37-.37-2.2.72-2.66 2.4m.84.22c.36-1.36.95-2.53 1.73-2.33.8.22.69 1.53.33 2.9S3.06.6 2.27.38c-.79-.2-.7-1.51-.33-2.89m0 0"/><path id="H" d="m1.17.31 3.55.96.08-.32-.88-.32C3.7.55 3.6.43 3.7 0l1.7-6.36-.04-.06-2.33-.22-.06.25.98.42c.17.06.22.17.14.47L2.7-.27c-.06.22-.11.32-.2.4q-.15.08-.3.04L1.25 0Zm0 0"/><path id="I" d="M1.42-3.48C.84-1.33 1.06.42 2.82.89c1.79.47 2.85-.92 3.43-3.08.58-2.15.36-3.9-1.42-4.37S2-5.64 1.43-3.48m1.1.28c.46-1.75 1.18-3.25 2.2-2.99 1.01.28.9 1.96.44 3.7C4.69-.72 3.94.8 2.92.52c-1.01-.26-.87-1.96-.4-3.71m0 0"/><path id="J" d="m1.1.52 3.34 1.54.14-.3-.83-.46c-.22-.11-.28-.25-.1-.64l2.79-5.97-.05-.08-2.23-.63-.11.25.87.57c.16.1.19.2.05.48L2.69.2q-.13.3-.28.36-.14.06-.29-.03L1.25.22Zm0 0"/><path id="K" d="M2-3.19C1.06-1.16.97.58 2.63 1.36s2.96-.4 3.9-2.44c.94-2.01 1.02-3.76-.66-4.54C4.22-6.41 2.95-5.2 2-3.2m1.02.47c.76-1.64 1.76-3 2.7-2.56.97.45.55 2.08-.22 3.72S3.75 1.47 2.78 1.02c-.94-.44-.53-2.08.24-3.74m0 0"/><path id="L" d="m1 .7 3 2.11.19-.26-.72-.61c-.2-.16-.24-.31.01-.67l3.77-5.4-.02-.07-2.1-1-.15.22.77.71c.16.11.14.22-.03.49L2.6.66q-.18.26-.33.3T2 .92L1.19.44Zm0 0"/><path id="M" d="m.31.08.03.15 3.8 2.66 1.14-.98-.22-.22c-.53.36-.76.3-1.14.03L1.58.08C2.05-.3 3.06-.56 4.34-.6c1.33-.02 2.3.04 3.02-.97.89-1.28.36-2.31-.63-2.99-1.25-.89-2.42-.58-2.75-.1-.23.32.02.7.2.82.16.11.27.05.43-.08.58-.51 1.28-.76 1.84-.37.7.5.52 1.22.03 1.9-.68.99-1.57 1.2-2.86 1.33C1.83-.85.98-.5.33.08m0 0"/><path id="N" d="M2.53-2.8C1.25-.97.84.75 2.34 1.8c1.5 1.06 3 .1 4.29-1.72 1.28-1.83 1.65-3.55.15-4.61-1.5-1.05-2.97-.1-4.25 1.73m.92.66C4.5-3.62 5.7-4.81 6.55-4.22c.87.61.18 2.16-.86 3.64C4.66.91 3.45 2.08 2.58 1.47c-.86-.6-.16-2.13.87-3.61m0 0"/><path id="O" d="m.86.86 2.6 2.6.23-.24-.61-.7c-.16-.2-.19-.35.12-.66L7.86-2.8v-.1l-1.9-1.33-.2.18.66.85c.11.14.1.25-.14.48L2.45 1.11q-.2.22-.37.25-.14-.01-.27-.11L1.1.63Zm0 0"/><path id="P" d="M1.02-.6C.67-.28.66.83 1.78 1.96c1.14 1.14 2.45 1.3 3.45.3C6.3 1.2 5.7-.05 5.3-.52l.03-.03c.5.38 1.5.72 2.28-.06.87-.87.6-1.94-.25-2.78-1.06-1.06-2.17-.95-2.5-.63-.25.25-.1.66.01.77q.14.14.33.05c.74-.36 1.36-.42 1.82.03.62.62.23 1.33-.22 1.78-.46.45-1.24.89-1.9.22-.38-.38-.53-.67-.62-.77q-.15-.14-.36.08-.2.21-.08.36c.1.1.4.23.77.6.67.68.44 1.67-.25 2.35-.94.94-1.74.8-2.3.24-.51-.52-.47-1.25-.19-1.85q.17-.3 0-.46c-.14-.15-.57-.27-.85.01m0 0"/><path id="Q" d="M2.97-2.31C1.39-.73.7.89 2 2.19s2.92.6 4.5-.97c1.58-1.58 2.27-3.2.97-4.5s-2.92-.61-4.5.97m.8.8C5.05-2.8 6.44-3.76 7.19-3S6.99-.86 5.7.42C4.42 1.7 3.03 2.66 2.28 1.91s.2-2.14 1.49-3.43m0 0"/><path id="R" d="m.7 1 2.11 3 .27-.19L2.59 3c-.12-.2-.12-.36.24-.6l5.39-3.77.01-.11-1.62-1.64-.22.14.47.93c.1.17.06.28-.2.46L2.22 1.5c-.19.13-.28.2-.4.18q-.15 0-.26-.16L.96.81Zm0 0"/><path id="S" d="m1.95-1.1-.14.2 1.75 2.5-.93.65c-.32.23-.43.17-.63-.05l-.44-.54-.26.18 1.68 2.43.27-.2-.23-.43c-.13-.23-.13-.33.18-.56l.94-.64.66.92.42-.3-.66-.92L8.63-.7l-.47-.67c-1.88.03-4.2.1-6.2.26m.7.5q2.09-.25 4.5-.35v.03L3.99 1.3Zm0 0"/><path id="T" d="M3.33-1.75C1.5-.47.53 1 1.58 2.5 2.64 4 4.38 3.63 6.2 2.34S8.97-.44 7.9-1.94c-1.04-1.5-2.74-1.1-4.57.19m.65.92C5.47-1.87 7-2.56 7.6-1.7c.61.87-.56 2.06-2.04 3.1-1.49 1.04-3.03 1.74-3.64.87S2.5.2 3.98-.83m0 0"/><path id="U" d="m.52 1.1 1.54 3.34.3-.14-.31-.9c-.11-.21-.07-.37.33-.56L8.34.06l.02-.08-1.31-1.92-.25.11.3 1c.07.19.03.28-.26.42L1.92 1.88q-.27.15-.42.09-.15-.04-.22-.19L.81.97Zm0 0"/><path id="V" d="M1.22-.08C.75.14.4 1.17 1.03 2.48c.78 1.68 2.13 1.96 3.42 1.36C5.85 3.2 6.17 1.97 5.61.77A2.6 2.6 0 0 0 4.39-.48l.02-.02 2-.66c.28-.09.32-.04.4.14l1.17 2.54.83-.07.05-.1-1.58-3.38-.14-.06L3.67-.7l-.01.3c.67.18 1.1.48 1.36 1.04.3.64.17 1.6-1.18 2.2-1.04.5-2.03.44-2.43-.45-.35-.72.01-1.3.5-1.78.1-.13.17-.27.1-.4a.64.64 0 0 0-.8-.29m0 0"/><path id="W" d="M3.6-1.16C1.55-.22.35 1.06 1.13 2.72c.78 1.67 2.53 1.6 4.56.65 2.02-.93 3.2-2.23 2.42-3.9C7.35-2.2 5.62-2.1 3.6-1.16m.46 1.02C5.7-.91 7.34-1.31 7.78-.37c.45.96-.92 1.95-2.56 2.71-1.66.77-3.28 1.2-3.74.22-.43-.93.93-1.93 2.58-2.7m0 0"/><path id="X" d="m.31 1.17.96 3.55.3-.08-.16-.94c-.05-.23.01-.39.43-.5L8.2 1.5l.03-.08-.96-2.1-.25.06.14 1.04c.03.2-.05.28-.35.36l-5.23 1.4q-.31.11-.46.02c-.09-.03-.12-.12-.17-.23l-.32-.88Zm0 0"/><path id="Y" d="M3.45-.42C1.12.2.23 1.36.65 2.97c.44 1.6 1.63 2.2 3.1 1.8 1.45-.4 2.02-1.49 1.7-2.66C5.22 1.25 4.48.8 4.05.58h-.02c2.4-.64 3.52-.2 3.78.76.13.5-.17.97-.75 1.27-.12.1-.22.19-.17.36.06.23.36.53.66.45.43-.12 1-.84.65-2.14-.47-1.72-2.06-2.42-4.75-1.7M2.97.86c.65-.17 1.6.1 1.84 1.02.17.68-.28 1.51-1.51 1.84-1.13.31-2.02.08-2.25-.83-.25-.94.62-1.67 1.92-2.03m0 0"/><path id="Z" d="M3.73-.52C1.58.06.17 1.13.64 2.9c.47 1.78 2.24 2 4.4 1.42C7.18 3.73 8.55 2.67 8.08.9 7.63-.87 5.9-1.09 3.73-.5M4.02.6c1.75-.5 3.43-.62 3.7.4C8 2.02 6.48 2.75 4.73 3.22s-3.43.6-3.71-.42 1.25-1.75 3-2.22m0 0"/><path id="aa" d="m.1 1.22.32 3.66.33-.04v-.93c0-.25.08-.4.52-.43l6.54-.57.07-.07L7.28.6l-.26.02-.05 1.05c0 .18-.1.26-.4.28l-5.4.48q-.31.05-.44-.06C.64 2.3.63 2.22.6 2.1l-.15-.92Zm0 0"/><path id="ab" d="m5.92-.05.02.3.26.1c.3.1.49.24.52.74l.26 3a7 7 0 0 1-2.43-1.03C3.09 2.23 1.8 1.72.48 1.83c-.37.03-.42.3-.39.64.04.33.14.55.46.5a7 7 0 0 1 3.78.53c1.3.6 2.06 1.13 3.47 1.4l.1-.12L7.53.16Zm0 0"/><path id="ac" d="M3.77.14c-2.22.2-3.8 1-3.64 2.81C.3 4.8 1.98 5.33 4.2 5.12c2.24-.18 3.78-1 3.61-2.84C7.66.47 6-.05 3.77.14m.09 1.13c1.81-.16 3.48.01 3.56 1.04.1 1.07-1.51 1.52-3.33 1.67-1.8.16-3.48 0-3.57-1.06-.08-1.03 1.54-1.5 3.34-1.65m0 0"/><path id="ad" d="M.95-5.62c-.14 1.56.9 2.45 2.17 2.56.77.06 1.44-.31 1.91-.9h.03c-.06.79-.2 1.79-.5 2.62-.3.8-.78 1.37-1.58 1.3C2.14-.1 1.9-.8 1.77-1.38c-.05-.16-.11-.27-.33-.28-.24-.02-.6.2-.64.58C.75-.55 1.33.25 2.83.39q1.51.13 2.34-.84c.58-.66.97-1.7 1.13-3.5.14-1.55-.08-2.57-.53-3.17a2.4 2.4 0 0 0-1.86-1.02c-1.58-.14-2.82.81-2.96 2.52m1.27-.25C2.32-7 2.89-7.8 3.86-7.7c.98.08 1.37 1.3 1.27 2.5-.02.2-.05.45-.15.64-.26.56-.78.93-1.43.87-.97-.08-1.44-1-1.33-2.18m0 0"/><path id="ae" d="M.88-4.1C.66-1.62 1.23.26 3.27.43 5.3.61 6.2-1.14 6.42-3.6s-.36-4.34-2.4-4.53C1.98-8.31 1.09-6.56.88-4.1m1.25.12c.17-2 .67-3.82 1.85-3.72s1.35 1.98 1.18 3.98C4.98-1.69 4.48.1 3.3-.02 2.13-.1 1.95-1.95 2.13-3.98m0 0"/><path id="af" d="m.94-.08 2.84-.25-.01-.25h-.74c-.19 0-.3-.06-.33-.4L2.25-6.1l-.05-.04-1.75.46.02.22.81.01c.17.02.24.08.25.33l.38 4.2a1 1 0 0 1-.05.33q-.08.1-.22.13l-.72.12Zm0 0"/><path id="ag" d="M.1-2.92C.26-1.2.9.03 2.3-.1c1.43-.13 1.83-1.46 1.68-3.18S3.2-6.22 1.77-6.09C.36-5.97-.05-4.66.1-2.92M.99-3C.86-4.4 1-5.72 1.8-5.8c.83-.06 1.17 1.2 1.3 2.61.12 1.4 0 2.72-.83 2.78C1.47-.33 1.1-1.59.98-3m0 0"/><path id="ah" d="m.9-.25 2.77-.73-.06-.24-.72.13c-.17.03-.3 0-.39-.33L1.17-6.37l-.06-.04-1.66.74.07.22.8-.11c.16-.03.24.01.3.26l1.1 4.08q.04.22 0 .35-.05.08-.19.14l-.69.25Zm0 0"/><path id="ai" d="M-.4-2.9C.04-1.23.86-.1 2.24-.49c1.4-.38 1.56-1.74 1.1-3.43C2.92-5.58 2.09-6.67.7-6.3S-.86-4.58-.41-2.9m.84-.23C.08-4.47-.02-5.8.77-6.01c.8-.21 1.37.97 1.73 2.33.36 1.38.47 2.67-.33 2.9C1.4-.6.8-1.76.44-3.13m0 0"/><path id="aj" d="m.84-.4 2.6-1.2-.11-.24-.66.26c-.19.06-.33.05-.47-.26L.05-6.48l-.07-.04-1.51 1.05.1.19.79-.25c.16-.05.22-.02.33.22L1.47-1.5q.08.23.08.33c-.02.08-.1.12-.16.19l-.66.36Zm0 0"/><path id="ak" d="m.19-.17.1.03 3.26-1.52-.2-1.15-.24.04c.03.5-.13.65-.44.8l-2 .94a4 4 0 0 1 .61-2.13c.52-.89.92-1.53.52-2.4C1.28-6.67.4-6.7-.45-6.31c-1.07.5-1.32 1.4-1.13 1.81.13.28.49.27.61.22q.2-.12.13-.34c-.13-.6-.02-1.16.47-1.4.6-.28 1.03.14 1.3.72.4.85.16 1.53-.23 2.46C.13-1.54.03-.86.2-.17m0 0"/><path id="al" d="M-.9-2.8C-.18-1.22.83-.28 2.12-.88c1.3-.6 1.23-1.98.5-3.56C1.89-6 .89-6.94-.42-6.33c-1.28.6-1.22 1.97-.49 3.53m.8-.36c-.6-1.26-.93-2.54-.2-2.89.75-.36 1.52.72 2.11 1.99.61 1.3.94 2.54.19 2.9-.73.35-1.5-.7-2.1-2m0 0"/><path id="am" d="M.77-.53 3.1-2.17l-.14-.2-.63.35c-.15.1-.28.11-.48-.17l-2.94-4.2-.08-.02-1.3 1.29.13.17.74-.4c.14-.06.22-.04.36.16l2.42 3.47q.15.19.12.31 0 .1-.1.2l-.58.48Zm0 0"/><path id="an" d="M-.33-.87c.22.3 1.06.5 2.08-.22 1.03-.72 1.3-1.7.67-2.61-.67-.96-1.67-.67-2.1-.44L.3-4.17c.34-.33.76-1.05.26-1.75-.54-.8-1.4-.7-2.17-.17-.94.65-1.01 1.53-.8 1.82.16.22.49.2.6.11q.13-.1.04-.26c-.17-.61-.12-1.11.29-1.38.56-.4 1.04 0 1.32.4.3.42.52 1.07-.09 1.5-.34.23-.58.3-.67.37q-.14.09.01.28.14.2.27.1c.1-.05.23-.27.58-.5.6-.43 1.33-.13 1.76.5.6.85.4 1.43-.1 1.8-.48.32-1.04.2-1.46-.12q-.2-.15-.36-.05c-.12.08-.28.4-.1.65m0 0"/><path id="ao" d="M-1.37-2.58c1 1.42 2.15 2.17 3.3 1.36 1.2-.83.88-2.17-.12-3.6-.98-1.4-2.14-2.15-3.33-1.33-1.15.82-.84 2.16.15 3.58m.71-.5C-1.46-4.23-2-5.44-1.34-5.9c.68-.48 1.62.46 2.42 1.61.83 1.16 1.37 2.33.69 2.82-.66.46-1.6-.44-2.43-1.6m0 0"/><path id="ap" d="m.66-.66 2.03-2.03-.17-.17-.57.47c-.14.1-.26.14-.5-.1L-2.17-6.1h-.06l-1.08 1.49.15.15.64-.51c.15-.08.24-.08.41.09L.88-1.91q.16.16.18.28l-.1.22-.48.58Zm0 0"/><path id="aq" d="m-1.1-1.34.18.07L.75-2.94l.63.63c.2.2.17.3.03.47l-.35.43.17.18 1.63-1.63-.17-.17-.31.25c-.18.1-.25.12-.46-.08l-.62-.62.64-.64-.3-.3-.64.64-2.72-2.72-.45.45c.28 1.4.67 3.18 1.08 4.7m.27-.61a53 53 0 0 1-.86-3.4h.02L.45-3.24Zm0 0"/><path id="ar" d="M-1.81-2.31C-.58-1.08.7-.55 1.7-1.55c1.02-1.01.47-2.28-.76-3.51-1.22-1.22-2.47-1.75-3.49-.74-1 1-.48 2.27.74 3.49m.62-.63c-.98-.98-1.73-2.08-1.15-2.65.57-.58 1.67.17 2.65 1.15 1.02 1.02 1.75 2.1 1.17 2.67-.57.58-1.65-.15-2.67-1.17m0 0"/><path id="as" d="M.53-.77 2.17-3.1l-.2-.14-.45.56c-.13.13-.24.19-.54-.01L-3.2-5.64l-.08.01-.78 1.65.17.12.55-.6c.12-.12.2-.13.4 0L.52-2.02q.2.14.23.25t-.05.23L.33-.9Zm0 0"/><path id="at" d="M-.53-.8c.34.24 1.19.07 1.83-.86.83-1.17.47-2.2-.44-2.84-1-.7-1.94-.42-2.53.42-.28.4-.4.96-.36 1.33l-.02-.02-1.22-1.09c-.17-.16-.17-.22-.07-.34l1.25-1.78-.38-.5h-.08L-4.2-4.12l.01.12 2.28 1.8.22-.1c-.14-.54-.1-.93.17-1.33.33-.45 1-.71 1.94-.06.74.52 1.08 1.2.64 1.83-.36.5-.89.47-1.4.34a.3.3 0 0 0-.28.08c-.11.16-.13.49.09.64m0 0"/><path id="au" d="M-2.17-1.97C-.75-.97.59-.66 1.4-1.8 2.23-3 1.48-4.16.06-5.16c-1.42-.98-2.76-1.3-3.6-.1-.8 1.15-.05 2.3 1.37 3.3m.5-.72c-1.16-.8-2.08-1.75-1.61-2.4.48-.7 1.67-.13 2.83.67 1.15.83 2.08 1.75 1.6 2.44-.48.65-1.67.12-2.82-.7m0 0"/><path id="av" d="m.4-.84 1.2-2.6-.23-.1-.35.62c-.1.15-.2.23-.52.1l-4.64-2.16h-.06l-.49 1.76.19.1.44-.7c.1-.13.17-.16.4-.06l3.82 1.8q.21.1.26.2.06.12 0 .25l-.26.69Zm0 0"/><path id="aw" d="M-2.28-1.48c1.7.8 2.83.56 3.37-.63.55-1.16.13-2.1-.95-2.6-1.06-.5-1.94-.1-2.33.73-.3.62-.1 1.28.08 1.6l-.02.02C-3.85-3.19-4.3-4-3.97-4.72c.17-.36.59-.45 1.1-.37q.16.05.25-.11c.08-.2.04-.5-.17-.61-.33-.16-1.01 0-1.45.95-.6 1.24.02 2.47 1.97 3.38m.95-.52c-.48-.23-.9-.86-.6-1.53.23-.49.91-.77 1.82-.35.84.4 1.25.97.94 1.63-.33.7-1.22.69-2.16.25m0 0"/><path id="ax" d="M-2.48-1.56c1.57.73 2.95.81 3.54-.47.61-1.31-.33-2.33-1.9-3.06-1.57-.74-2.94-.8-3.55.51-.6 1.28.34 2.28 1.9 3.02m.36-.8c-1.27-.6-2.33-1.36-1.99-2.1.36-.74 1.63-.41 2.9.18 1.29.6 2.35 1.37 2 2.12-.35.74-1.62.41-2.91-.2m0 0"/><path id="ay" d="m.25-.9.73-2.77-.23-.06-.25.68c-.06.17-.16.27-.48.17L-4.94-4.2l-.06.03-.17 1.81.22.06.3-.76c.06-.14.13-.19.38-.13l4.08 1.1q.22.05.28.15c.07.06.05.16.05.25l-.12.72Zm0 0"/><path id="az" d="m-4.34-1.53.06-.24-.16-.12c-.2-.16-.3-.31-.2-.69l.6-2.26c.3.15.73.43 1.52 1.39.85 1 1.66 1.72 2.66 1.98.27.08.4-.1.47-.36.06-.23.03-.44-.22-.5A5 5 0 0 1-2.2-3.7c-.8-.78-1.21-1.38-2.21-1.96l-.1.05-.93 3.5Zm0 0"/><path id="aA" d="M-2.72-1.1C-1.03-.63.33-.8.7-2.18S-.03-4.4-1.72-4.86c-1.67-.45-3.01-.28-3.39 1.11-.37 1.38.72 2.2 2.4 2.66m.22-.84c-1.36-.36-2.53-.95-2.33-1.73.22-.8 1.53-.69 2.9-.33S.6-3.06.38-2.27c-.2.79-1.51.7-2.89.33m0 0"/><path id="aB" d="m.31-1.17.96-3.55-.32-.08-.32.88c-.08.23-.2.33-.63.22l-6.36-1.7-.06.04-.22 2.33.25.06.42-.98c.06-.17.17-.22.47-.14l5.23 1.4c.22.06.32.11.4.2q.08.15.04.3L0-1.25Zm0 0"/><path id="aC" d="M-3.48-1.42c2.15.58 3.9.36 4.37-1.4.47-1.79-.92-2.85-3.08-3.43-2.15-.58-3.9-.36-4.37 1.42s.92 2.83 3.08 3.4m.28-1.1c-1.75-.46-3.25-1.18-2.99-2.2.28-1.01 1.96-.9 3.7-.44C-.73-4.7.8-3.95.51-2.93c-.26 1.01-1.96.87-3.71.4m0 0"/><path id="aD" d="m.03-.31.14-.06 1.97-4.2-1.17-.96-.2.26c.46.46.43.7.25 1.1L-.2-1.57c-.44-.4-.9-1.35-1.13-2.6-.26-1.3-.36-2.27-1.48-2.8-1.42-.66-2.33.06-2.83 1.13-.66 1.39-.16 2.5.37 2.73.35.17.68-.16.77-.34q.12-.24-.16-.4c-.59-.5-.96-1.15-.67-1.77.36-.79 1.11-.7 1.86-.35 1.1.5 1.44 1.33 1.81 2.6.5 1.75 1 2.5 1.7 3.06m0 0"/><path id="aE" d="M-3.19-2c2.03.94 3.77 1.03 4.55-.62.78-1.68-.4-2.97-2.44-3.91-2.01-.94-3.76-1.02-4.54.66C-6.41-4.22-5.2-2.94-3.2-2m.47-1.02c-1.64-.76-3-1.76-2.56-2.7.45-.97 2.08-.55 3.72.22s3.03 1.75 2.58 2.72c-.44.94-2.08.53-3.74-.24m0 0"/><path id="aF" d="M-.77-.9c.4.26 1.49.1 2.41-1.2.92-1.32.83-2.63-.34-3.45-1.22-.86-2.33-.06-2.72.4l-.05-.02c.28-.55.45-1.6-.45-2.22-1-.72-2-.25-2.69.73-.86 1.22-.56 2.32-.17 2.58.28.2.64-.01.73-.14q.11-.15-.01-.37c-.49-.64-.66-1.24-.28-1.77.5-.7 1.26-.45 1.78-.1.53.38 1.1 1.05.54 1.84-.3.43-.57.64-.64.73q-.1.17.13.36c.15.1.31.12.39 0 .06-.1.16-.42.45-.86.55-.78 1.57-.7 2.36-.16 1.1.78 1.1 1.57.64 2.22-.42.6-1.15.69-1.78.5q-.35-.11-.47.08c-.12.17-.15.6.17.84m0 0"/><path id="aG" d="M-2.8-2.53C-.97-1.25.75-.84 1.8-2.34c1.06-1.5.1-3-1.72-4.28-1.83-1.29-3.55-1.66-4.61-.16-1.05 1.5-.1 2.97 1.73 4.25m.66-.92C-3.62-4.5-4.81-5.7-4.22-6.55c.61-.87 2.16-.18 3.64.86C.91-4.66 2.08-3.45 1.47-2.58c-.6.86-2.13.16-3.61-.87m0 0"/><path id="aH" d="m-1.42-1.73.22.09L.95-3.8l.82.82c.28.28.21.4.04.6l-.45.55.23.24 2.08-2.08-.23-.24-.38.32c-.22.15-.31.18-.6-.1l-.8-.81.8-.81-.35-.36-.81.81-3.5-3.5-.57.56c.35 1.85.83 4.11 1.35 6.07m.36-.77q-.59-2.01-1.1-4.37l.02-.02L.59-4.16Zm0 0"/><path id="aI" d="M-2.31-2.97C-.73-1.39.89-.7 2.19-2s.6-2.92-.97-4.5c-1.58-1.58-3.2-2.27-4.5-.97s-.61 2.92.97 4.5m.8-.8C-2.8-5.05-3.76-6.44-3-7.19s2.14.2 3.42 1.49C1.7-4.42 2.66-3.03 1.91-2.28s-2.14-.2-3.43-1.49m0 0"/><path id="aJ" d="M-.28-1.2c.3.42 1.37.6 2.56-.24 1.52-1.04 1.55-2.45.74-3.6C2.1-6.34.86-6.43-.22-5.67c-.51.36-.9.96-1.01 1.41h-.02l-1-1.86c-.14-.25-.1-.31.06-.42L.1-8.13l-.2-.8-.1-.04-3.06 2.14-.03.16 1.97 3.19.28-.05c.1-.7.32-1.17.82-1.52.57-.4 1.51-.43 2.36.77.67.95.78 1.92-.02 2.47-.66.47-1.28.23-1.84-.17q-.23-.16-.43-.04c-.17.13-.34.52-.12.82m0 0"/><path id="aK" d="M-1.75-3.33C-.47-1.5 1-.53 2.5-1.58 4-2.64 3.63-4.38 2.34-6.2S-.44-8.97-1.94-7.9c-1.5 1.04-1.1 2.74.19 4.57m.92-.65C-1.87-5.47-2.56-7-1.7-7.6c.87-.61 2.06.56 3.1 2.04 1.04 1.49 1.74 3.03.87 3.64S.2-2.5-.83-3.98m0 0"/><path id="aL" d="M-1.02-3.33C0-1.14 1.3-.47 2.81-1.17c1.5-.7 1.88-1.99 1.24-3.36-.64-1.38-1.83-1.72-2.92-1.2A2.5 2.5 0 0 0-.12-4.1l-.02.01c-1.03-2.25-.81-3.44.1-3.86.46-.22 1 .02 1.4.53.1.11.22.18.37.1.24-.11.46-.42.33-.72-.2-.4-1-.83-2.22-.27-1.6.75-2.04 2.44-.86 4.97m1.36.25c-.3-.6-.17-1.58.7-1.98.62-.3 1.5.01 2.05 1.17.5 1.06.43 1.97-.42 2.36-.89.4-1.76-.33-2.33-1.55m0 0"/><path id="aM" d="M-1.16-3.6c.94 2.04 2.22 3.24 3.88 2.46 1.67-.78 1.6-2.53.65-4.56-.93-2.02-2.23-3.2-3.9-2.42-1.66.78-1.56 2.51-.63 4.53m1.02-.46C-.91-5.7-1.31-7.34-.37-7.78c.96-.45 1.95.92 2.71 2.56.77 1.66 1.2 3.28.22 3.74-.93.43-1.93-.93-2.7-2.58m0 0"/><path id="aN" d="m-1.08-5.81.28-.08.05-.27c.06-.32.17-.53.66-.67l2.92-.78A8 8 0 0 1 2.22-5c-.55 1.57-.85 2.95-.5 4.21.1.36.36.38.7.28.31-.07.52-.23.4-.53a7 7 0 0 1-.12-3.8c.35-1.42.74-2.23.75-3.68l-.12-.1-4.49 1.2Zm0 0"/><path id="aO" d="M-.52-3.73C.06-1.58 1.13-.17 2.9-.64c1.78-.47 2-2.23 1.42-4.4C3.73-7.18 2.67-8.55.9-8.08c-1.76.46-1.98 2.2-1.4 4.36m1.1-.29C.1-5.77-.02-7.45 1-7.72 2.02-8 2.75-6.48 3.22-4.73s.6 3.43-.42 3.71-1.75-1.25-2.22-3m0 0"/><path id="aP" d="M.3-2.08C.4-.95 1.17.03 2.95-.12 4.77-.3 5.35-1.37 5.27-2.5c-.11-1.12-.86-1.72-1.64-1.83v-.03c.65-.23 1.14-.86 1.06-1.78-.11-1.19-1.11-1.8-2.4-1.67-1.27.1-2.18.87-2.07 2.06.08.92.7 1.45 1.39 1.56v.03A1.9 1.9 0 0 0 .3-2.08m1.1-.06c-.09-1 .32-1.81 1.2-1.88.92-.09 1.46.64 1.56 1.64.07.99-.29 1.77-1.24 1.86-.92.08-1.44-.64-1.51-1.62m-.1-3.72c-.08-.84.26-1.5 1.01-1.56.77-.08 1.22.51 1.3 1.36.06.76-.22 1.56-1.03 1.64-.8.06-1.22-.67-1.28-1.44m0 0"/><path id="aQ" d="M.14-3.77c.2 2.22 1 3.8 2.81 3.65C4.8-.3 5.33-1.98 5.12-4.2c-.18-2.24-1-3.78-2.84-3.61C.47-7.66-.05-6 .14-3.77m1.13-.09c-.16-1.81.01-3.48 1.04-3.56 1.07-.1 1.52 1.51 1.67 3.33.16 1.8 0 3.48-1.06 3.57-1.03.08-1.5-1.54-1.65-3.34m0 0"/><clipPath id="e"><path d="M.05 15H312v220.34H.05Zm0 0"/></clipPath><clipPath id="f"><path d="M.05 115H70v47H.05Zm0 0"/></clipPath><clipPath id="g"><path d="M.05 141H67v39H.05Zm0 0"/></clipPath><clipPath id="h"><path d="M.05 103H73v50H.05Zm0 0"/></clipPath><clipPath id="i"><path d="M.05 128H68v43H.05Zm0 0"/></clipPath><clipPath id="j"><path d="M.05 142H57v19H.05Zm0 0"/></clipPath><clipPath id="k"><path d="M.05 145H57v18H.05Zm0 0"/></clipPath><clipPath id="l"><path d="M.05 147H56v18H.05Zm0 0"/></clipPath><clipPath id="m"><path d="M.05 150H56v17H.05Zm0 0"/></clipPath></defs><path fill="#66B2B2" d="m154.66 171.59 17.62 1.54c.27-3.1-.28-6.2-1.59-9.02Zm0 0"/><path fill="none" stroke="#000" stroke-miterlimit="10" stroke-width=".4" d="M172.28 173.13c.27-3.1-.28-6.2-1.59-9.02"/><use xlink:href="#a" x="150.45" y="174.49"/><use xlink:href="#b" x="150.64" y="167.19"/><use xlink:href="#a" x="191.34" y="155.43"/><use xlink:href="#c" x="191.72" y="148.13"/><use xlink:href="#a" x="210.37" y="179.73"/><use xlink:href="#d" x="210.63" y="172.26"/><path fill="none" stroke="red" stroke-dasharray="2.9846456380000004 2.9846456380000004" stroke-miterlimit="10" stroke-width=".4" d="m154.66 171.59 95.4-44.49"/><path fill="none" stroke="#000" stroke-miterlimit="10" stroke-width=".4" d="m154.66 171.59 54.51-25.43m-54.51 25.43 89.88 7.86"/><path fill="#CCCCE5" fill-opacity=".5" fill-rule="evenodd" d="m12.37 210.77 275.6 24.11a4.6 4.6 0 0 0 4.24-2.44c33.84-72.57 1.27-162.04-74-197.14S53.46 32.76 18.37 108.03C3.43 140.07.25 176.36 8.63 207.63c.42 1.59.77 1.54.77-.1 0 1.64 1.33 3.1 2.97 3.24m37.42-48.36 161.82 14.16c1.64.14 1.94-.6.68-1.66-31.6-26.52-79.69-30.73-118-8.6m138.24 12.1 24.02 2.1a3 3 0 0 0 3.23-2.72c4.81-54.94-38.03-106-95.95-111.07S54.86 104.5 50.05 159.44a3 3 0 0 0 2.72 3.23l173.82 15.21zm0 0"/><g clip-path="url(#e)"><path fill="none" stroke="#000" stroke-miterlimit="10" stroke-opacity=".5" stroke-width=".4" d="m12.37 210.77 275.6 24.11a4.6 4.6 0 0 0 4.24-2.44c33.84-72.57 1.27-162.04-74-197.14S53.46 32.76 18.37 108.03C3.43 140.07.25 176.36 8.63 207.63c.42 1.59.77 1.54.77-.1 0 1.64 1.33 3.1 2.97 3.24Zm37.42-48.36 161.82 14.16c1.64.14 1.94-.6.68-1.66-31.6-26.52-79.69-30.73-118-8.6m138.24 12.1 24.02 2.1a3 3 0 0 0 3.23-2.72c4.81-54.94-38.03-106-95.95-111.07S54.86 104.5 50.05 159.44a3 3 0 0 0 2.72 3.23l173.82 15.21zm0 0"/></g><path fill="none" stroke="#7F7FA6" stroke-miterlimit="10" stroke-width=".4" d="m49.79 162.41 209.73 18.35m-105.92 2.81 2.1-23.97m-6.51 5.47 10.94 13.04m-11.99-1.06 13.03-10.93"/><path fill="none" stroke="#7F7FA6" stroke-miterlimit="10" stroke-width="1.2" d="m295.48 183.91 8.98.79m-35.95-3.15-8.99-.79m35.96-21.49 8.98-.79m-35.95 3.15-8.99.78M291.2 135l8.71-2.33M265.05 142l-8.71 2.33m26.43-32.48 8.18-3.81m-32.71 15.25-8.18 3.81m20.39-36.6 7.39-5.17m-29.57 20.7-7.39 5.18m13.73-39.57 6.38-6.39m-25.52 25.52-6.38 6.39m6.64-41.36 5.18-7.4m-20.7 29.57-5.17 7.39m-.64-41.89 3.81-8.17M202.96 68l-3.82 8.18m-7.9-41.13 2.34-8.72m-9.34 34.86-2.34 8.72m-14.92-39.14.78-8.99m-3.14 35.95-.79 9m-21.49-35.96-.79-9m3.15 35.96.78 9m-27.41-31.68-2.34-8.72m9.34 34.86 2.34 8.72M94.92 43.47 91.1 35.3M106.36 68l3.8 8.18M73.58 55.8l-5.18-7.4m20.7 29.57 5.18 7.39M54.7 71.63l-6.38-6.38m25.52 25.52 6.38 6.38M38.86 90.5l-7.39-5.17m29.57 20.7 7.39 5.18m-41.89.64-8.17-3.82m32.7 15.26 8.18 3.8"/><g clip-path="url(#f)"><path fill="none" stroke="#7F7FA6" stroke-miterlimit="10" stroke-width="1.2" d="m18.11 135-8.71-2.33M44.26 142l8.72 2.33"/></g><g clip-path="url(#g)"><path fill="none" stroke="#7F7FA6" stroke-miterlimit="10" stroke-width="1.2" d="m13.84 159.27-9-.79m35.96 3.14 8.99.8"/></g><path fill="none" stroke="#7F7FA6" stroke-miterlimit="10" stroke-width="1.2" d="M297.52 171.59h7.52m-37.6 0h-7.52m35.43-24.81 7.4-1.3M265.73 152l-7.4 1.3m30.57-30.57 7.07-2.57M260.64 133l-7.07 2.58m24.81-35.42 6.51-3.76m-32.56 18.8-6.51 3.75m18.28-39.19 5.76-4.83m-28.8 24.16-5.77 4.84m11.19-41.78 4.84-5.76m-24.17 28.8-4.83 5.76m3.77-43.08 3.76-6.51m-18.8 32.55-3.76 6.52m-3.77-43.09 2.57-7.06M193.23 65.6l-2.57 7.06m-11.2-41.76 1.31-7.4m-6.53 37.02-1.3 7.4m-18.28-39.19V21.2m0 37.6v7.51M129.85 30.9l-1.3-7.4m6.52 37.02 1.3 7.4M105.8 37.34l-2.58-7.06m12.86 35.33 2.57 7.06m-35.42-24.8-3.77-6.51m18.8 32.55 3.76 6.52M62.83 62.15 58 56.39m24.16 28.8 4.83 5.76M45.22 79.76l-5.76-4.83m28.8 24.16 5.76 4.83m-43.09-3.76-6.5-3.76m32.55 18.8 6.51 3.75"/><g clip-path="url(#h)"><path fill="none" stroke="#7F7FA6" stroke-miterlimit="10" stroke-width="1.2" d="m20.41 122.73-7.07-2.58m35.33 12.86 7.07 2.58"/></g><g clip-path="url(#i)"><path fill="none" stroke="#7F7FA6" stroke-miterlimit="10" stroke-width="1.2" d="m13.97 146.78-7.4-1.3M43.58 152l7.4 1.3"/></g><path fill="none" stroke="#7F7FA6" stroke-miterlimit="10" stroke-width=".4" d="m303.17 181.97 1.5.1m-43.5-3.03-1.5-.11m42.15.37 3 .16m-42.04-2.2-3-.16m40.65-.42 4.52.16m-40.58-1.42-4.51-.16M299 174.1l6.01.11m-39.1-.68-6-.1m39.09-4.36 6.01-.1m-39.09.68-6.01.1m40.53-3.25 4.5-.16m-40.57 1.42-4.51.15m41.96-4.04 3-.15m-42.04 2.2-3 .16m43.39-4.88 1.5-.1m-43.5 3.04-1.5.1m43.04-8.21 1.5-.16m-43.37 4.56-1.5.16m41.59-6.96 2.98-.37m-41.79 5.13-2.98.37m39.96-7.47 4.47-.63m-40.2 5.65-4.47.63m38.35-7.94 5.94-.93m-38.62 6.11-5.94.94m37.74-11.08 5.9-1.15m-38.38 7.47-5.9 1.14m39.35-10.24 4.41-.94m-39.71 8.45-4.42.93m40.63-11.26 2.93-.68m-41.02 9.47-2.93.68m41.87-12.34 1.47-.36m-42.32 10.55-1.45.36m40.97-15.57 1.44-.41m-41.92 12.02-1.45.41m39.75-14.07 2.87-.88m-40.26 12.31-2.88.88m38.06-14.3 4.3-1.4m-38.62 12.55-4.29 1.4m36.39-14.47 5.68-1.96m-36.96 12.73-5.7 1.96m35.25-17.47 5.62-2.15m-36.5 14-5.62 2.16m36.97-16.91 4.19-1.7m-37.65 15.21-4.18 1.7M290.31 114l2.77-1.17m-38.76 16.45-2.77 1.18m39.11-19.42 1.38-.62m-39.84 17.74-1.38.61m37.64-22.45 1.36-.66m-39.2 19.12-1.35.66m36.69-20.76 2.68-1.36m-37.51 19.11-2.68 1.37m35-20.7 3.98-2.11m-35.85 19.06-3.98 2.12m33.32-20.57 5.26-2.92m-34.2 18.96-5.26 2.91m31.68-23.32 5.16-3.1m-33.52 20.14-5.15 3.1m33.47-23.08 3.83-2.4m-34.44 21.52-3.82 2.4m34.32-24.49 2.52-1.64m-35.3 22.94-2.53 1.64m35.14-25.92 1.25-.84m-36.16 24.38-1.24.84m33.17-28.64 1.22-.88m-35.28 25.63-1.22.88m32.53-26.81 2.4-1.81m-33.62 25.34-2.4 1.8m30.87-26.45 3.56-2.78m-32 25-3.55 2.78m29.24-26.04 4.67-3.79m-30.38 24.6-4.68 3.8m27.14-28.48 4.55-3.94m-29.5 25.65-4.55 3.95m28.96-28.55 3.35-3.02m-30.17 27.17-3.35 3.02m29.55-30.07 2.2-2.05m-30.8 28.72-2.2 2.05m30.11-31.63 1.08-1.05m-31.37 30.3-1.08 1.04m27.69-33.96 1.05-1.09m-30.3 31.38-1.04 1.08m27.38-32.07 2.05-2.2M228.5 92.4l-2.05 2.2m25.81-31.41 3.02-3.36m-27.17 30.18-3.02 3.35m24.28-30.73 3.94-4.54M227.66 87.6l-3.94 4.54M245.5 59.4l3.8-4.68M224.68 85.1l-3.79 4.67m23.57-33.13 2.78-3.55m-25 32-2.78 3.55m23.89-34.74 1.8-2.41m-25.33 33.63-1.81 2.4m24.15-36.38.89-1.21M217.4 85.21l-.88 1.22m21.38-38.27.85-1.24m-24.39 36.15-.84 1.25M234.92 48l1.64-2.53m-22.93 35.31-1.64 2.52m19.97-35.41 2.39-3.83m-21.52 34.43-2.4 3.83M229 47.84l3.1-5.15M211.98 76.2l-3.1 5.16m15.76-36.04 2.92-5.26m-18.95 34.2-2.92 5.26m17.45-36.72 2.11-3.99M206.2 74.66l-2.13 3.98m17.49-38.36 1.37-2.68M203.8 75.12l-1.36 2.68m17.48-40.02.66-1.35m-19.12 39.2-.66 1.35m14.41-41.4.61-1.37M198.1 74.05l-.62 1.37m14.76-39.49 1.17-2.77m-16.45 38.76-1.17 2.77m13.51-38.35 1.69-4.18m-15.2 37.64-1.7 4.19m12.31-37.18 2.15-5.61m-14.01 36.5-2.16 5.61m9.28-38.22 1.95-5.7M190.9 66.38l-1.96 5.68m10.79-39.2 1.4-4.29m-12.55 38.61-1.4 4.3m10.57-40.82.88-2.88M186.3 68.05l-.88 2.87m10.28-42.44.4-1.44m-12 41.91-.42 1.45m6.99-43.26.37-1.46m-10.56 42.3-.36 1.47M187.8 28l.68-2.94m-9.47 41.03-.67 2.93m6.64-40.12.94-4.4m-8.44 39.7-.94 4.42m5.66-38.75 1.15-5.9m-7.46 38.38-1.15 5.9m2.5-39.25.94-5.94m-6.11 38.62-.94 5.94m3.83-40.48.63-4.47m-5.66 40.2-.62 4.48m3.31-42.03.36-3m-5.13 41.8-.37 2.99m2.74-43.58.16-1.5m-4.56 43.37-.16 1.5m-.62-43.83.1-1.5m-3.03 43.5-.11 1.5m.37-42.15.16-3m-2.2 42.04-.17 3m-.41-40.66.16-4.5m-1.42 40.58-.16 4.5m-1.15-39.13.1-6.02m-.68 39.1-.1 6.01m-4.36-39.09-.1-6.02m.67 39.1.11 6.01m-3.25-40.54-.16-4.5m1.41 40.57.16 4.52m-4.03-41.97-.16-3m2.2 42.04.16 3m-4.88-43.39-.1-1.5m3.04 43.5.1 1.5m-8.21-43.04-.16-1.5m4.56 43.37.15 1.5m-6.95-41.59-.37-2.98m5.13 41.8.37 2.98m-7.47-39.97-.63-4.47m5.65 40.2.63 4.48M132.07 29l-.94-5.94m6.12 38.62.94 5.94m-11.08-37.75-1.15-5.9m7.46 38.38 1.15 5.9m-10.24-39.34-.94-4.41m8.44 39.71.94 4.41M121.5 28l-.67-2.94m9.47 41.03.68 2.93m-12.34-41.89-.37-1.46M128.82 68l.37 1.46m-15.57-40.98-.41-1.44m12.02 41.91.41 1.45m-14.07-39.74-.88-2.88M123 68.05l.88 2.87m-14.3-38.06-1.4-4.29m12.55 38.61 1.4 4.3m-14.47-36.39-1.96-5.69m12.73 36.97 1.96 5.69m-17.47-35.25-2.15-5.61m14 36.5 2.16 5.61m-16.92-36.97-1.69-4.18m15.21 37.64 1.7 4.19M97.07 35.93l-1.17-2.77m16.45 38.76 1.18 2.77M94.1 35.58l-.6-1.37m17.73 39.84.61 1.37M89.4 37.78l-.67-1.35m19.12 39.2.66 1.35m-20.76-36.7-1.36-2.68m19.11 37.5 1.37 2.68M86.18 42.8l-2.13-4m19.07 35.86 2.11 3.98M84.67 45.32l-2.92-5.26m18.96 34.2 2.91 5.26M80.3 47.84l-3.1-5.15m20.14 33.5 3.1 5.17M77.36 47.88l-2.4-3.82m21.52 34.43 2.4 3.83M74.4 48l-1.65-2.53M95.7 80.78l1.63 2.52M71.4 48.16l-.83-1.24m24.38 36.15.84 1.25M67.15 51.14l-.88-1.21M91.9 85.2l.88 1.22M65.96 53.9l-1.8-2.4M89.5 85.11l1.8 2.4M64.85 56.64l-2.78-3.55m25 32 2.78 3.55M63.8 59.4l-3.78-4.68m24.6 30.39 3.79 4.67M59.95 62.64 56 58.09M81.65 87.6l3.94 4.54M57.05 63.18l-3.02-3.35M81.2 90.01l3.02 3.35M54.15 63.8l-2.05-2.2m28.72 30.8 2.05 2.2M51.24 64.5l-1.05-1.09m30.3 31.38 1.04 1.07M47.56 68.17l-1.08-1.05m31.37 30.3 1.08 1.04M46.87 71.08l-2.2-2.05m30.8 28.72 2.2 2.05M46.25 73.98l-3.35-3.02m30.17 27.17 3.36 3.02M45.7 76.87l-4.54-3.94m29.51 25.65 4.54 3.95M42.46 80.74l-4.67-3.8m30.39 24.61 4.67 3.8M39.71 81.78 36.16 79m32 25 3.55 2.78M36.96 82.9l-2.4-1.81m33.62 25.34 2.4 1.8M34.21 84.08 33 83.2m35.28 25.63 1.22.88M31.23 88.34l-1.25-.84m36.16 24.38 1.25.84m-36.33-21.4-2.52-1.64m35.31 22.94 2.52 1.64M30.95 94.29l-3.82-2.4m34.43 21.52 3.83 2.4M30.91 97.23l-5.15-3.1m33.51 20.14 5.16 3.1M28.4 101.6l-5.27-2.92m34.2 18.96 5.26 2.91M25.86 103.1l-3.98-2.1m35.85 19.06 3.98 2.12m-38.36-17.5-2.68-1.36m37.51 19.11 2.68 1.37m-40.01-17.48-1.35-.66m39.2 19.12 1.34.66m-41.39-14.41-1.37-.6m39.84 17.73 1.37.61M19 114l-2.77-1.17m38.76 16.45 2.77 1.18m-38.35-13.51-4.18-1.7m37.64 15.21 4.18 1.7m-37.17-12.31-5.61-2.15m36.5 14 5.61 2.16m-38.22-9.27-5.7-1.96m36.98 12.73 5.68 1.96m-39.19-10.81-4.3-1.4m38.62 12.55 4.3 1.4M13.72 128.5l-2.87-.88m40.26 12.31 2.88.88m-42.44-10.26-1.45-.41m41.92 12.02 1.45.41m-43.27-7-1.46-.36m42.32 10.55 1.46.36m-41.46-7.68-2.93-.68m41.03 9.47 2.93.68m-40.11-6.65-4.42-.94m39.72 8.44 4.41.94m-38.74-5.66-5.91-1.15m38.38 7.47 5.9 1.14"/><g clip-path="url(#j)"><path fill="none" stroke="#7F7FA6" stroke-miterlimit="10" stroke-width=".4" d="m12.07 149-5.94-.94m38.62 6.12 5.94.94"/></g><g clip-path="url(#k)"><path fill="none" stroke="#7F7FA6" stroke-miterlimit="10" stroke-width=".4" d="m10.2 151.29-4.46-.63m40.2 5.65 4.47.63"/></g><g clip-path="url(#l)"><path fill="none" stroke="#7F7FA6" stroke-miterlimit="10" stroke-width=".4" d="m8.38 153.63-2.98-.37m41.8 5.13 2.98.37"/></g><g clip-path="url(#m)"><path fill="none" stroke="#7F7FA6" stroke-miterlimit="10" stroke-width=".4" d="m6.6 156.02-1.5-.15m43.37 4.56 1.5.15"/></g><g fill="#7F7FA6"><use xlink:href="#n" x="286.21" y="173.19"/><use xlink:href="#o" x="285.63" y="179.74"/><use xlink:href="#p" x="285.06" y="186.3"/></g><use xlink:href="#q" x="278.35" y="185.71" fill="#7F7FA6"/><g fill="#7F7FA6"><use xlink:href="#r" x="271.21" y="156.77"/><use xlink:href="#s" x="271.61" y="161.36"/></g><g fill="#7F7FA6"><use xlink:href="#t" x="266.86" y="136.75"/><use xlink:href="#u" x="268.05" y="141.2"/></g><g fill="#7F7FA6"><use xlink:href="#v" x="259.11" y="117.8"/><use xlink:href="#w" x="261.05" y="121.97"/></g><g fill="#7F7FA6"><use xlink:href="#x" x="248.18" y="100.48"/><use xlink:href="#y" x="250.82" y="104.25"/></g><g fill="#7F7FA6"><use xlink:href="#z" x="234.41" y="85.32"/><use xlink:href="#A" x="237.67" y="88.58"/></g><g fill="#7F7FA6"><use xlink:href="#B" x="218.22" y="72.78"/><use xlink:href="#C" x="221.99" y="75.42"/></g><g fill="#7F7FA6"><use xlink:href="#D" x="200.1" y="63.24"/><use xlink:href="#E" x="204.27" y="65.19"/></g><g fill="#7F7FA6"><use xlink:href="#F" x="180.59" y="57"/><use xlink:href="#G" x="185.04" y="58.19"/></g><g fill="#7F7FA6"><use xlink:href="#H" x="180.14" y="42.17"/><use xlink:href="#I" x="185.86" y="43.7"/><use xlink:href="#I" x="191.58" y="45.23"/></g><g fill="#7F7FA6"><use xlink:href="#J" x="202.23" y="48.56"/><use xlink:href="#J" x="207.59" y="51.06"/><use xlink:href="#K" x="212.96" y="53.56"/></g><g fill="#7F7FA6"><use xlink:href="#L" x="222.87" y="58.69"/><use xlink:href="#M" x="227.72" y="62.08"/><use xlink:href="#N" x="232.57" y="65.48"/></g><g fill="#7F7FA6"><use xlink:href="#O" x="241.43" y="72.25"/><use xlink:href="#P" x="245.62" y="76.44"/><use xlink:href="#Q" x="249.81" y="80.62"/></g><g fill="#7F7FA6"><use xlink:href="#R" x="257.37" y="88.82"/><use xlink:href="#S" x="260.76" y="93.68"/><use xlink:href="#T" x="264.16" y="98.53"/></g><g fill="#7F7FA6"><use xlink:href="#U" x="270.18" y="107.92"/><use xlink:href="#V" x="272.68" y="113.29"/><use xlink:href="#W" x="275.18" y="118.65"/></g><g fill="#7F7FA6"><use xlink:href="#X" x="279.48" y="128.95"/><use xlink:href="#Y" x="281.01" y="134.67"/><use xlink:href="#Z" x="282.54" y="140.39"/></g><g fill="#7F7FA6"><use xlink:href="#aa" x="284.99" y="151.27"/><use xlink:href="#ab" x="285.5" y="157.17"/><use xlink:href="#ac" x="286.02" y="163.07"/></g><g fill="#7F7FA6"><use xlink:href="#ad" x="158.88" y="47.81"/><use xlink:href="#ae" x="165.44" y="48.39"/></g><path fill="none" stroke="#7F7FA6" stroke-miterlimit="10" stroke-width="1.2" d="m166.71 33.77 1.05-11.99m-2.88 32.96-1.05 11.98"/><g fill="#7F7FA6"><use xlink:href="#af" x="137.54" y="55.24"/><use xlink:href="#ag" x="142.13" y="54.84"/><use xlink:href="#ag" x="146.72" y="54.43"/></g><g fill="#7F7FA6"><use xlink:href="#ah" x="117.6" y="59.98"/><use xlink:href="#ah" x="122.05" y="58.78"/><use xlink:href="#ai" x="126.5" y="57.59"/></g><g fill="#7F7FA6"><use xlink:href="#aj" x="98.78" y="68.11"/><use xlink:href="#ak" x="102.95" y="66.16"/><use xlink:href="#al" x="107.13" y="64.22"/></g><g fill="#7F7FA6"><use xlink:href="#am" x="81.66" y="79.38"/><use xlink:href="#an" x="85.43" y="76.74"/><use xlink:href="#ao" x="89.21" y="74.1"/></g><g fill="#7F7FA6"><use xlink:href="#ap" x="66.76" y="93.46"/><use xlink:href="#aq" x="70.02" y="90.2"/><use xlink:href="#ar" x="73.27" y="86.95"/></g><g fill="#7F7FA6"><use xlink:href="#as" x="54.53" y="109.91"/><use xlink:href="#at" x="57.17" y="106.14"/><use xlink:href="#au" x="59.81" y="102.36"/></g><g fill="#7F7FA6"><use xlink:href="#av" x="45.34" y="128.23"/><use xlink:href="#aw" x="47.28" y="124.06"/><use xlink:href="#ax" x="49.23" y="119.88"/></g><g fill="#7F7FA6"><use xlink:href="#ay" x="39.47" y="147.88"/><use xlink:href="#az" x="40.66" y="143.43"/><use xlink:href="#aA" x="41.85" y="138.98"/></g><g fill="#7F7FA6"><use xlink:href="#aB" x="26" y="143.25"/><use xlink:href="#aC" x="27.53" y="137.53"/></g><g fill="#7F7FA6"><use xlink:href="#aD" x="32.88" y="121.33"/><use xlink:href="#aE" x="35.38" y="115.97"/></g><g fill="#7F7FA6"><use xlink:href="#aF" x="43.45" y="100.95"/><use xlink:href="#aG" x="46.85" y="96.1"/></g><g fill="#7F7FA6"><use xlink:href="#aH" x="57.41" y="82.72"/><use xlink:href="#aI" x="61.6" y="78.53"/></g><g fill="#7F7FA6"><use xlink:href="#aJ" x="74.32" y="67.18"/><use xlink:href="#aK" x="79.17" y="63.78"/></g><g fill="#7F7FA6"><use xlink:href="#aL" x="93.67" y="54.81"/><use xlink:href="#aM" x="99.04" y="52.31"/></g><g fill="#7F7FA6"><use xlink:href="#aN" x="114.87" y="46"/><use xlink:href="#aO" x="120.59" y="44.46"/></g><g fill="#7F7FA6"><use xlink:href="#aP" x="137.29" y="41"/><use xlink:href="#aQ" x="143.19" y="40.48"/></g><use xlink:href="#q" x="23.68" y="163.43" fill="#7F7FA6"/><g fill="#7F7FA6"><use xlink:href="#aR" x="38.08" y="171.3"/><use xlink:href="#aS" x="38.66" y="164.74"/><use xlink:href="#q" x="39.23" y="158.19"/></g></svg>