<svg xmlns="http://www.w3.org/2000/svg" xmlns:xlink="http://www.w3.org/1999/xlink" width="206.565" height="85.181" viewBox="0 0 206.565 85.181"><defs><path id="a" d="m3.01563-2.26562.875.85937L7.5-5.04687l3.64063 3.64062.84375-.85937-3.60938-3.625 3.60938-3.64063-.84375-.84375L7.5-6.75l-3.60937-3.625-.875.84375 3.64062 3.64063Zm0 0"/><path id="b" d="M-.40625 0H4.3125l.125-.59375-1.15625-.10937c-.26562-.03126-.375-.15626-.375-.35938 0-.10937.04688-.26562.10938-.42187.6875-1.32813 1.35937-2.6875 2.14062-4.09375h4.6875l.5 4.3125s-.10937.51562-.54687.5625L8.6875-.59375 8.57813 0h5.125l.125-.59375-.79688-.07812c-.64062-.0625-.73437-.34375-.84375-1.21875L10.65625-14.4375H9.17188L5.65625-8.28125C4.59375-6.42187 2.85938-3.3125 2.09375-2.0625 1.42188-.98437 1.0625-.75.42188-.6875l-.6875.09375Zm5.98438-6.375L8.96875-12.5l.75 6.125Zm0 0"/><path id="c" d="M0 0h6.32813c5.04687 0 6.0625-2.59375 6.0625-4.32812 0-2.20313-1.625-3.15625-3.15625-3.4375l.03125-.04688c2.76562-.34375 3.9375-1.90625 3.9375-3.48437 0-1.6875-.98438-3.14063-4.82813-3.14063H3.09375l-.14062.60938 1.25.10937c.34375.01563.5.17188.5.51563 0 .125-.04688.29687-.07813.5L2.15625-1.73437c-.15625.6875-.35937.9375-.875 1L.10938-.59375Zm4.17188-1.59375c0-.15625.03125-.3125.0625-.46875L5.4375-7.42187h.82813c2.0625 0 3.875.60937 3.875 2.98437 0 1.85938-1.125 3.70313-3.92188 3.70313-1.64062 0-2.04687-.32813-2.04687-.85938m1.42187-6.5625 1.09375-4.82812c.15625-.625.26563-.73438 1.65625-.73438 1.76563 0 2.73438.89063 2.73438 2.34375 0 2.1875-1.8125 3.21875-4.125 3.21875Zm0 0"/><clipPath id="d"><path d="M10 3h195.36719v75H10Zm0 0"/></clipPath></defs><use xlink:href="#a" x="8.16801" y="76.96995"/><use xlink:href="#b" x="8.5127" y="63.94122"/><use xlink:href="#a" x="134.49936" y="34.85983"/><use xlink:href="#c" x="135.17585" y="21.83209"/><g clip-path="url(#d)"><path fill="none" stroke="#000" stroke-miterlimit="10" stroke-width=".39471" d="M15.67187 71.78516 205.17192 8.62108"/></g></svg>