<svg xmlns="http://www.w3.org/2000/svg" xmlns:xlink="http://www.w3.org/1999/xlink" width="286.671pt" height="251.689pt" viewBox="0 0 286.671 251.689"><defs><path id="a" d="m2.70313-2.03125.78125.78125 3.25-3.26562L10-1.25l.75-.78125-3.25-3.25 3.25-3.26562-.75-.75-3.26562 3.25-3.25-3.25-.78125.75 3.26562 3.26562Zm0 0"/><path id="b" d="m1.39063-12.40625.8125.07813c.42187.04687.5.25.54687.79687L3.57813 0h1.3125l5.125-10.3125h.09375L11.09375 0H12.375l3.26563-6.6875c1.0625-2.125 2.01562-4.01562 2.35937-4.59375.51563-.90625.65625-1 1.8125-1.125l.07813-.53125h-4.1875l-.09375.53125 1.21875.125c.17187.01563.26562.125.26562.26563 0 .29687-1.09375 2.65625-2.21875 5.03125l-2.25 4.6875h-.07812L11.57813-12.625h-1.3125L5.21875-2.29687h-.10937L4.5-11.84375c0-.3125.14063-.4375.39063-.45312l1.21875-.10938.125-.53125H1.5Zm0 0"/><path id="c" d="M.20313 0h9.75l.95312-3.28125h-.5625C9.39063-.96875 8.5625-.65625 6.25-.65625c-2.20312 0-2.32812-.28125-2.32812-.78125 0-.1875.0625-.46875.14062-.85937l.95313-4.09375h2.45312c1.39063 0 1.64063.28125 1.64063 1.09375 0 .15625 0 .3125-.01563.51562h.5625l.875-3.89062h-.57812C9.46875-7.39062 9.28125-7.09375 7.625-7.09375H5.17188L6.23438-11.75c.09375-.45312.21875-.54687.53125-.54687h2.25c1.82812 0 2.21875.46875 2.21875 1.48437 0 .46875-.0625.98438-.0625.98438h.54687l.70313-3.10938H2.96875l-.14062.53125 1.14062.07813c.3125.03125.45313.17187.45313.46875 0 .10937-.01563.25-.0625.4375L2.125-1.54687c-.15625.625-.3125.84375-.76562.89062l-1.0625.125Zm0 0"/><path id="d" d="M0 0h5.67188c4.51562 0 5.4375-2.32812 5.4375-3.875 0-1.98437-1.45313-2.82812-2.82813-3.09375L8.29688-7c2.5-.3125 3.54687-1.71875 3.54687-3.125 0-1.51562-.89062-2.8125-4.34375-2.8125H2.76563l-.125.53125 1.125.10938c.3125.01562.45312.15625.45312.45312 0 .125-.03125.28125-.07812.45313L1.9375-1.54687c-.14062.60937-.32812.82812-.78125.89062l-1.0625.125Zm3.75-1.4375c0-.14062.01563-.28125.04688-.40625L4.875-6.65625h.73438c1.85937 0 3.48437.54688 3.48437 2.67188 0 1.67187-1.01562 3.32812-3.51562 3.32812C4.09375-.65625 3.75-.95312 3.75-1.4375m1.26563-5.875.96875-4.32812c.14062-.5625.25-.65625 1.5-.65625 1.57812 0 2.45312.79687 2.45312 2.10937 0 1.95313-1.64062 2.875-3.70312 2.875Zm0 0"/></defs><path fill="none" stroke="#000" stroke-miterlimit="10" stroke-width=".39801" d="M33.5586 224.77734h226.4922L23.92969 26.59764Zm0 0"/><use xlink:href="#a" x="26.83046" y="229.42551"/><use xlink:href="#b" x="6.6454" y="244.74558"/><use xlink:href="#a" x="253.32259" y="229.42551"/><use xlink:href="#c" x="267.07959" y="244.74558"/><use xlink:href="#a" x="17.20535" y="31.24539"/><use xlink:href="#d" x="17.8116" y="19.56782"/></svg>