<svg xmlns="http://www.w3.org/2000/svg" xmlns:xlink="http://www.w3.org/1999/xlink" width="124.806pt" height="141.763pt" viewBox="0 0 124.806 141.763"><defs><path id="a" d="m1.6875-1.26562.48438.48437 2.03125-2.04687L6.25-.78125l.46875-.48437L4.6875-3.29687l2.03125-2.03125L6.25-5.8125 4.20313-3.78125 2.17188-5.8125l-.48438.48438 2.04688 2.03125Zm0 0"/><path id="b" d="M.375-3.15625C.375-1.23437 1.48438.17188 3.8125.17188c2.0625 0 3.0625-1.0625 3.71875-2.21875.625-1.14063.73438-2.32813.73438-2.79688 0-2.39062-1.45313-3.42187-3.375-3.42187-1.875 0-3.03125 1.03125-3.70313 2.14062C.53125-5.03125.375-3.9375.375-3.15625m1.23438.46875c0-.98437.1875-2.07812.71875-3.20312C2.85938-7 3.6875-7.85937 4.9375-7.85937c1.28125 0 2.10938.75 2.10938 2.40625 0 .67187-.0625 1.64062-.54688 2.875C6-1.3125 5.21875-.23437 3.6875-.23437c-1.26562 0-2.07812-.82813-2.07812-2.45313m0 0"/><path id="c" d="M.25 0h3.1875l.07813-.32812-.6875-.0625c-.20313 0-.29688-.125-.29688-.3125 0-.0625.01563-.17188.04688-.26563l1.39062-6.14062c.07813-.35938.20313-.5625.5-.59375L5.10938-7.75l.07812-.32812H1.98438L1.90625-7.75l.6875.04688c.20313.01562.29688.14062.29688.32812 0 .07813-.01563.15625-.04688.26563L1.4375-.96875c-.07812.375-.1875.53125-.48437.5625L.3125-.32812Zm0 0"/><path id="d" d="M-.96875 1.0625v.3125c.125 0 .26563.01563.39063.01563C-.04687 1.39063.75 1.25 1.21875.9375c.54688-.39062.95313-1.03125 1.23438-2.20312L3.8125-7.15625c.09375-.35937.1875-.51562.48438-.54687L4.95313-7.75l.07812-.32812H1.8125L1.73438-7.75l.6875.04688c.21875.01562.3125.10937.3125.3125 0 .0625-.01563.14062-.03125.23437L1.42188-1.67187C1.15625-.57812.84375.15624.48438.48438.09375.84375-.39062 1-.96875 1.0625m0 0"/><clipPath id="e"><path d="M11 65h113.60547v74H11Zm0 0"/></clipPath></defs><path fill="#66B2B2" d="M17.1836 133.16016 32.5 124.3164c-2.07812-3.59766-5.35937-6.35157-9.26562-7.77344Zm0 0"/><path fill="none" stroke="#000" stroke-miterlimit="10" stroke-width=".39783" d="M32.5 124.3164c-2.07812-3.59765-5.35938-6.35156-9.26562-7.77343"/><use xlink:href="#a" x="12.98162" y="136.06453"/><use xlink:href="#b" x="4.15139" y="137.20861"/><use xlink:href="#a" x="49.27794" y="36.34224"/><use xlink:href="#c" x="44.2763" y="29.04644"/><use xlink:href="#a" x="74.25119" y="100.69066"/><use xlink:href="#d" x="76.12306" y="92.00319"/><path fill="none" stroke="#000" stroke-miterlimit="10" stroke-width=".39783" d="M17.1836 133.16016 65.57812.1953"/><g clip-path="url(#e)"><path fill="none" stroke="#000" stroke-miterlimit="10" stroke-width=".39783" d="M17.1836 133.16016 124.40624 71.2578"/></g></svg>