<svg xmlns="http://www.w3.org/2000/svg" xmlns:xlink="http://www.w3.org/1999/xlink" width="73.005pt" height="35.709pt" viewBox="0 0 73.005 35.709"><defs><path id="a" d="m1.73438-1.29687.5.48437L4.3125-2.90625 6.42188-.8125l.48437-.48437L4.8125-3.39062l2.09375-2.09375-.48437-.48438L4.3125-3.89062 2.23438-5.96875l-.5.48438 2.09375 2.09375Zm0 0"/><path id="b" d="M-.23437 0h2.71875l.07812-.34375-.67187-.0625C1.73437-.42187 1.67187-.5 1.67187-.60937c0-.0625.03126-.15626.0625-.25.40626-.76563.78126-1.54688 1.23438-2.34375h2.6875l.29688 2.46875s-.0625.29687-.3125.32812L5-.34375 4.9375 0h2.95313l.07812-.34375L7.5-.39062c-.375-.03125-.42187-.20313-.48437-.70313l-.875-7.21875h-.85938L3.26563-4.76562c-.625 1.07812-1.60938 2.85937-2.0625 3.57812-.39063.625-.59375.75-.95313.79688l-.40625.04687Zm3.4375-3.67187 1.95312-3.53125.4375 3.53125Zm0 0"/><path id="c" d="M0 0h3.64063C6.54688 0 7.125-1.5 7.125-2.5c0-1.25-.92187-1.8125-1.8125-1.96875L5.32813-4.5c1.59375-.1875 2.28125-1.09375 2.28125-2 0-.98437-.57813-1.8125-2.79688-1.8125H1.78125l-.07812.34375.71875.0625c.20312.01563.28125.10938.28125.29688 0 .07812-.01563.1875-.04688.29687L1.23438-1c-.07813.40625-.20313.54688-.5.57813L.0625-.34375Zm2.40625-.92187c0-.09376.01563-.17188.03125-.26563l.6875-3.07812h.48438c1.1875 0 2.23437.34375 2.23437 1.70312 0 1.07813-.65625 2.14063-2.26562 2.14063-.9375 0-1.17188-.1875-1.17188-.5m.8125-3.76563.625-2.79687c.09375-.34375.15625-.42188.96875-.42188 1 0 1.5625.51563 1.5625 1.35938 0 1.25-1.04687 1.85937-2.375 1.85937Zm0 0"/><path id="d" d="M.625-3.29687c0 1.57812.78125 3.46875 3.76563 3.46875.84375 0 1.67187-.10938 2.4375-.48438l.57812-1.92187H7.0625C6.39063-1.03125 5.79688-.25 4.3125-.25c-1.39062 0-2.39062-.89062-2.39062-2.73437 0-1.09375.28124-2.42188.85937-3.375C3.375-7.375 4.3125-8.07812 5.60938-8.07812c1.51562 0 1.95312.70312 1.95312 2.01562h.375l.4375-1.79687C7.6875-8.29687 6.5625-8.5 5.71875-8.5c-2.26562 0-3.57812 1.0625-4.28125 2.1875C.78125-5.23437.625-4.125.625-3.29687m0 0"/></defs><use xlink:href="#a" x="4.31617" y="20.1581"/><use xlink:href="#b" x="4.25895" y="12.66029"/><use xlink:href="#a" x="22.49738" y="23.79454"/><use xlink:href="#c" x="22.61873" y="16.29673"/><use xlink:href="#a" x="58.8588" y="31.06643"/><use xlink:href="#d" x="58.59046" y="23.39006"/><path fill="none" stroke="#000" stroke-miterlimit="10" stroke-width=".39314" d="M8.63672 17.17578 26.8164 20.8125l36.36327 7.26953"/></svg>