<svg xmlns="http://www.w3.org/2000/svg" xmlns:xlink="http://www.w3.org/1999/xlink" width="74.114pt" height="37.256pt" viewBox="0 0 74.114 37.256"><defs><path id="a" d="M.64063 0h2.03125v-.20312l-.45313-.03126c-.125-.01562-.1875-.0625-.1875-.26562v-3.51562l-.04687-.03125-1.32813.20312v.17188l.48438.07812c.125.01563.17187.0625.17187.25V-.5c0 .20313-.0625.25-.20312.26563l-.46875.03124Zm0 0"/><path id="b" d="M.23438-1.98437C.23438-.84375.59375.0625 1.64063.0625c1.03125 0 1.39062-.90625 1.39062-2.04687 0-1.15625-.35937-2.0625-1.39062-2.0625-1.04688 0-1.40625.90625-1.40625 2.0625m.75 0c0-.84375.125-1.82813.65625-1.82813s.64062.98438.64062 1.82813c0 .82812-.10937 1.8125-.64062 1.8125s-.65625-.98438-.65625-1.8125m0 0"/><path id="c" d="m.23438-3.07812.1875.03125.0625-.125c.07812-.14063.15625-.23438.40625-.23438h1.59375c-.04688.20313-.1875.60938-.67188 1.25-.5.67188-.84375 1.29688-.84375 1.92188 0 .26562.1875.29687.40625.29687.1875 0 .35938-.03125.35938-.28125.01562-.82812.15624-1.4375.4375-1.90625.45312-.73437.73437-1.125.89062-1.79687L3-3.98437H.45313Zm0 0"/><path id="d" d="M.21875-3.23437c0 .45312.375.82812.82813.82812.4375 0 .82812-.375.82812-.82812 0-.4375-.39062-.8125-.82812-.8125-.45313 0-.82813.375-.82813.8125m.34375 0c0-.29688.21875-.53125.48438-.53125.25 0 .48437.23437.48437.53125 0 .3125-.23437.53125-.48437.53125-.26563 0-.48438-.21875-.48438-.53125m0 0"/><path id="e" d="M.17188-.65625c0 .25.375.71875 1.3125.71875.90625 0 1.48437-.42187 1.48437-1.17187 0-.82813-.73437-1.03125-1.01562-1.0625v-.03125c.32812-.0625.84375-.28125.84375-.875 0-.73438-.625-.96875-1.25-.96875-.75 0-1.23438.40625-1.23438.73437 0 .21875.26563.32813.375.32813s.15625-.04688.1875-.15625c.14063-.42188.34375-.67188.64063-.67188.42187 0 .51562.42188.51562.71875s-.07812.79688-.54687.79688c-.26563 0-.45313-.0625-.54688-.0625-.10937 0-.14062.0625-.14062.20312 0 .10938.03124.20313.14062.20313.09375 0 .28125-.07813.54688-.07813.40625 0 .70312.3125.70312.9375 0 .65625-.29687.92188-.6875.92188-.32812 0-.5625-.25-.70312-.67188-.04688-.125-.10938-.1875-.21876-.1875-.15624 0-.40624.14063-.40624.375m0 0"/><clipPath id="f"><path d="M.29297 0h72.66016v1H.29296Zm0 0"/></clipPath><clipPath id="g"><path d="M31 0h22v36.52734H31Zm0 0"/></clipPath></defs><path fill="#ffb266" d="M36.6211.19531H25.78515c0 3.8711 2.0664 7.44922 5.41796 9.38672 2.58594 1.49219 5.67579 1.85156 8.53516.9961Zm0 0"/><path fill="none" stroke="#000" stroke-miterlimit="10" stroke-width=".3907" d="M25.78516.19531c0 3.8711 2.0664 7.44922 5.41796 9.38672 2.58594 1.49219 5.67579 1.85156 8.53516.9961"/><use xlink:href="#a" x="17.73094" y="19.57999"/><use xlink:href="#b" x="21.00064" y="19.57999"/><use xlink:href="#c" x="24.27034" y="19.57999"/><use xlink:href="#d" x="27.54003" y="19.57999"/><path fill="#66cef5" d="m36.6211.19531 3.11718 10.38282c4.58203-1.375 7.72266-5.59766 7.72266-10.38282Zm0 0"/><path fill="none" stroke="#000" stroke-miterlimit="10" stroke-width=".3907" d="M39.73828 10.57812c4.58203-1.375 7.72266-5.59765 7.72266-10.3828"/><use xlink:href="#c" x="48.82695" y="14.48082"/><use xlink:href="#e" x="52.09665" y="14.48082"/><use xlink:href="#d" x="55.36635" y="14.48082"/><g clip-path="url(#f)"><path fill="none" stroke="#000" stroke-dasharray="2.9303087086 2.9303087086" stroke-miterlimit="10" stroke-width=".3907" d="M72.75781.19531H.48438"/></g><g clip-path="url(#g)"><path fill="none" stroke="#000" stroke-miterlimit="10" stroke-width=".3907" d="m36.6211.19531 10.84374 36.13672"/></g></svg>