<svg xmlns="http://www.w3.org/2000/svg" xmlns:xlink="http://www.w3.org/1999/xlink" width="280.174" height="260.772" viewBox="0 0 280.174 260.772"><defs><path id="a" d="m3.03125-2.28125.875.875 3.64063-3.67187 3.67187 3.67187.84375-.875-3.64062-3.64062 3.64062-3.65625-.84375-.85938-3.67187 3.64063-3.64063-3.64063-.875.85938 3.67188 3.65625Zm0 0"/><path id="b" d="M1.34375-5.67187c0 3.125 1.625 5.46875 4.98438 5.89062.98437 1.84375 3.09375 4.04688 5.73437 4.04688.54688 0 1.20313-.125 1.5625-.32813l-.0625-.35937C11.54688 3.54688 9.98438 1.98438 8.78125.21875c4.26563-.59375 6.75-4.82812 6.75-8.90625 0-4.3125-2.60937-6.17187-6.07812-6.17187-5.40625 0-8.10938 4.98437-8.10938 9.1875m2.20313.84375c0-3.75 1.8125-9.29688 6-9.29688 2.29687 0 3.76562 1.35938 3.76562 4.34375 0 5.10938-2.39062 9.35938-6 9.35938-2.28125 0-3.76562-1.48438-3.76562-4.40625m0 0"/><path id="c" d="M0 0h5.96875l.10938-.60937-1.45313-.125c-.35937-.03126-.51562-.1875-.51562-.51563 0-.14062.03125-.29687.0625-.5l.9375-4.125H6.6875c1.78125 0 3.4375-.25 4.64063-.98437 1.34375-.82813 2.125-2.25 2.125-3.82813 0-1.42187-.67188-2.51562-1.70313-3.09375-.98437-.5625-2.32812-.73437-3.70312-.73437H3.125l-.15625.59375 1.25.09375c.35938.01562.51563.20312.51563.5625 0 .125-.01563.28125-.0625.48437L2.14063-1.75c-.17188.71875-.35938.96875-.85938 1.01563l-1.17187.125Zm5.40625-7.0625c0-.125.01563-.26562.0625-.4375L6.75-13.07812c.125-.53125.26563-.73438 1.34375-.73438 2.07813 0 3.14063.98438 3.14063 2.78125 0 2.98438-1.67188 4.42188-4.51563 4.42188-1.0625 0-1.3125-.10938-1.3125-.45313m0 0"/><path id="d" d="M0 0h5.75l.125-.60937-1.25-.10938c-.35937-.01562-.53125-.17187-.53125-.51562 0-.125.04688-.3125.07813-.51563L5.3125-6.84375h1.28125c2.03125 0 2.32813.5 2.32813 2.95313C8.92188-1.34375 8.92188 0 11.125 0h1.64063l.1875-.60937c-1.46875-.1875-1.98438-.26563-1.98438-2.96875 0-2.14063-.17187-3.0625-1.92187-3.64063 2.57812-.35937 4.3125-1.85937 4.3125-3.9375 0-1.48437-.64063-3.35937-4.57813-3.35937H3.125l-.15625.59375 1.25.09375c.35938.01562.51563.20312.51563.5625 0 .125-.01563.28125-.0625.48437L2.14063-1.75c-.17188.75-.35938.96875-.85938 1.01563l-1.17187.125Zm5.5-7.57812L6.71875-13c.15625-.60937.23438-.8125 1.8125-.8125 1.35938 0 2.64063.60938 2.64063 2.4375 0 2.5-1.625 3.79688-4.32813 3.79688Zm0 0"/><clipPath id="e"><path d="M25 137h55v123.27344H25Zm0 0"/></clipPath><clipPath id="f"><path d="M25 .26953h254.35156V150H25Zm0 0"/></clipPath></defs><path fill="#66B2B2" d="m31.32422 143.55078 10.875 29.8789c10.67578-3.88671 18.46875-13.17187 20.4414-24.35937 1.29688-7.35937-.04296-14.94531-3.77734-21.41797Zm0 0"/><path fill="none" stroke="#000" stroke-miterlimit="10" stroke-width=".39733" d="M42.19921 173.42967c10.67578-3.88671 18.46874-13.17187 20.4414-24.35936 1.29687-7.35937-.04297-14.9453-3.77734-21.41796"/><use xlink:href="#a" x="23.77092" y="148.7688"/><use xlink:href="#b" x="7.44904" y="131.38505"/><use xlink:href="#a" x="45.5188" y="208.51965"/><use xlink:href="#c" x="60.96925" y="210.56462"/><use xlink:href="#a" x="133.90423" y="85.18426"/><use xlink:href="#d" x="134.21731" y="72.06893"/><g clip-path="url(#e)"><path fill="none" stroke="#000" stroke-miterlimit="10" stroke-width=".39733" d="m31.32422 143.55078 42.41404 116.52729"/></g><g clip-path="url(#f)"><path fill="none" stroke="#000" stroke-miterlimit="10" stroke-width=".39733" d="M31.32422 143.55078 279.15612.46492"/></g></svg>