<svg xmlns="http://www.w3.org/2000/svg" xmlns:xlink="http://www.w3.org/1999/xlink" width="130.334pt" height="147.426pt" viewBox="0 0 130.334 147.426"><defs><path id="a" d="m1.75-1.3125.5.5 2.10938-2.10937L6.46875-.8125l.48438-.5-2.09375-2.10937 2.09375-2.10938-.48438-.48437-2.10937 2.09375L2.25-6.01562l-.5.48437 2.10938 2.10938Zm0 0"/><path id="b" d="M.39063-3.28125c0 2 1.14062 3.46875 3.54687 3.46875 2.14063 0 3.1875-1.10937 3.85938-2.29687.65625-1.1875.78125-2.42188.78125-2.90625 0-2.48438-1.51563-3.5625-3.51563-3.5625-1.9375 0-3.125 1.07812-3.84375 2.23437-.67187 1.125-.82812 2.26563-.82812 3.0625m1.26562.5c0-1.01562.20313-2.15625.75-3.32812C2.96875-7.25 3.82813-8.14062 5.125-8.14062c1.3125 0 2.17188.78125 2.17188 2.5 0 .6875-.0625 1.6875-.5625 2.96875C6.21875-1.35937 5.40625-.25 3.82813-.25c-1.3125 0-2.17188-.84375-2.17188-2.53125m0 0"/><path id="c" d="M.25 0h3.32813l.0625-.34375-.71875-.0625c-.20313 0-.29688-.125-.29688-.3125 0-.07812.01563-.1875.04688-.28125l1.4375-6.375c.09375-.375.20312-.57812.51562-.60937l.67188-.04688L5.375-8.375H2.0625l-.09375.34375.71875.04688c.21875.01562.29688.14062.29688.34375 0 .07812 0 .17187-.03125.26562L1.5-1c-.09375.375-.21875.54688-.5.57813l-.67187.07812Zm0 0"/><path id="d" d="M-1 1.10938v.3125c.125.01562.26563.01562.39063.01562.5625 0 1.375-.14062 1.875-.46875C1.82813.5625 2.25-.10937 2.54688-1.3125l1.40625-6.09375c.09375-.375.20312-.54687.5-.57812l.67187-.04688.09375-.34375H1.875l-.07812.34375.71875.04688c.21875.01562.3125.125.3125.32812 0 .0625 0 .14063-.03125.25L1.46875-1.73437C1.20313-.60937.875.15624.5.5c-.40625.375-.90625.54688-1.5.60938m0 0"/><clipPath id="e"><path d="M12 .08984h63V144H12Zm0 0"/></clipPath><clipPath id="f"><path d="M12 68h117.67188v76H12Zm0 0"/></clipPath></defs><path fill="#66b2b2" d="m18.34375 138.09766 9.52734-5.5c-1.29296-2.23828-3.33593-3.95313-5.76562-4.83594Zm0 0"/><path fill="none" stroke="#000" stroke-miterlimit="10" stroke-width=".39648" d="M27.8711 132.59766c-1.29297-2.23828-3.33594-3.95313-5.76563-4.83594"/><use xlink:href="#a" x="13.98852" y="141.10463"/><use xlink:href="#b" x="4.29505" y="142.29057"/><use xlink:href="#a" x="51.61525" y="37.72788"/><use xlink:href="#c" x="45.2458" y="30.16752"/><use xlink:href="#a" x="77.50296" y="104.43501"/><use xlink:href="#d" x="78.85008" y="95.43003"/><g clip-path="url(#e)"><path fill="none" stroke="#000" stroke-miterlimit="10" stroke-width=".39648" d="M18.34375 138.09766 68.50391.28516"/></g><g clip-path="url(#f)"><path fill="none" stroke="#000" stroke-miterlimit="10" stroke-width=".39648" d="m18.34375 138.09766 111.1328-64.16406"/></g></svg>