<svg xmlns="http://www.w3.org/2000/svg" xmlns:xlink="http://www.w3.org/1999/xlink" width="224.491pt" height="255.014pt" viewBox="0 0 224.491 255.014"><defs><path id="a" d="m3.03125-2.28125.875.875L7.54688-5.0625l3.65625 3.65625.85937-.875-3.64062-3.64062 3.64062-3.65625-.85937-.84375-3.65625 3.64062-3.64063-3.64062-.875.84375 3.67188 3.65625Zm0 0"/><path id="b" d="M.67188-5.67187C.67188-2.20312 2.65625.3125 6.82813.3125c3.70312 0 5.51562-1.89062 6.6875-3.96875 1.125-2.0625 1.32812-4.20312 1.32812-5.03125 0-4.3125-2.60937-6.15625-6.0625-6.15625-3.35937 0-5.4375 1.84375-6.65625 3.85938C.95313-9.04687.67188-7.0625.67188-5.67187m2.20312.84375c0-1.76563.34375-3.71875 1.29688-5.75.96875-2 2.45312-3.53125 4.6875-3.53125 2.3125 0 3.78125 1.35937 3.78125 4.32812 0 1.20313-.10938 2.92188-.98438 5.15625-.875 2.26563-2.29687 4.20313-5.03125 4.20313-2.26562 0-3.75-1.46875-3.75-4.40625m0 0"/><path id="c" d="M.45313 0H6.1875l.125-.60937-1.25-.07813c-.34375-.03125-.5-.23437-.5-.5625 0-.14062.01563-.3125.0625-.48437l2.5-11.03125c.15625-.65625.35938-1.01563.89063-1.0625l1.15625-.07813.14062-.60937H3.57813l-.15625.60937 1.25.07813c.35937.03125.51562.25.51562.59375 0 .125-.03125.28125-.07812.46875L2.59375-1.73437c-.15625.65625-.35937.95312-.875 1l-1.15625.125Zm0 0"/><path id="d" d="M-1.73437 1.92188v.53125c.21874.03125.46875.04687.6875.04687.95312 0 2.39062-.25 3.23437-.82812.98438-.6875 1.71875-1.84375 2.21875-3.95313l2.45313-10.5625c.15625-.64062.32812-.9375.85937-.98437l1.17188-.07813.15625-.60937H3.26563l-.14063.60937 1.23438.07813c.375.03125.54687.20312.54687.5625 0 .10937-.01562.25-.0625.42187L2.54688-3.01562C2.07813-1.04687 1.51563.26563.875.875c-.71875.64063-1.5625.9375-2.60937 1.04688m0 0"/><clipPath id="e"><path d="M25 122h198.80469v123H25Zm0 0"/></clipPath></defs><path fill="#66B2B2" d="M31.03125 239.00781 58.53906 223.125c-3.73047-6.46484-9.6289-11.41406-16.64453-13.96875Zm0 0"/><path fill="none" stroke="#000" stroke-miterlimit="10" stroke-width=".39697" d="M58.53905 223.125c-3.73047-6.46483-9.6289-11.41405-16.64452-13.96874"/><use xlink:href="#a" x="23.4817" y="244.22272"/><use xlink:href="#b" x="7.62103" y="246.27678"/><use xlink:href="#a" x="88.66567" y="65.13416"/><use xlink:href="#c" x="79.6824" y="52.03083"/><use xlink:href="#a" x="133.51426" y="180.69535"/><use xlink:href="#d" x="136.87427" y="165.09168"/><path fill="none" stroke="#000" stroke-miterlimit="10" stroke-width=".39697" d="M31.03125 239.00781 117.95309.19541"/><g clip-path="url(#e)"><path fill="none" stroke="#000" stroke-miterlimit="10" stroke-width=".39697" d="m31.03125 239.00781 192.57804-111.18354"/></g></svg>