<svg xmlns="http://www.w3.org/2000/svg" xmlns:xlink="http://www.w3.org/1999/xlink" width="763.512pt" height="162.611pt" viewBox="0 0 763.512 162.611"><defs><path id="a" d="m3.04688-2.28125.85937.875L7.5625-5.07812l3.65625 3.67187.85938-.875-3.65625-3.64062 3.65625-3.67188-.85938-.84375L7.5625-6.79687 3.90625-10.4375l-.85937.84375 3.65625 3.67188Zm0 0"/><path id="b" d="M-.40625 0h4.75l.125-.60937L3.3125-.71875c-.26562-.01562-.39062-.15625-.39062-.35937 0-.10938.04687-.26563.125-.42188.6875-1.34375 1.35937-2.70312 2.14062-4.10937h4.71875l.51563 4.32812s-.10938.51563-.5625.5625L8.75-.60937 8.625 0h5.17188l.14062-.60937-.8125-.0625c-.65625-.0625-.73437-.35938-.84375-1.23438l-1.54687-12.625h-1.5l-3.53125 6.1875c-1.07813 1.875-2.8125 5.01563-3.59375 6.26563C1.4375-.98437 1.07813-.76562.42188-.6875l-.6875.07813Zm6.01563-6.42187 3.42187-6.17188.76563 6.17188Zm0 0"/><path id="c" d="M0 0h6.375c5.07813 0 6.09375-2.60937 6.09375-4.35937 0-2.21875-1.625-3.17188-3.17187-3.46875l.03125-.04688c2.79687-.32812 3.96875-1.92187 3.96875-3.5 0-1.70312-1-3.15625-4.875-3.15625h-5.3125l-.14063.59375 1.25.125c.35938.01563.51563.17188.51563.51563 0 .125-.03125.3125-.07813.5L2.17188-1.75c-.15625.70313-.35938.9375-.875 1.01563l-1.1875.125Zm4.20313-1.60937c0-.15626.01562-.3125.0625-.46875l1.21875-5.39063h.82812c2.07813 0 3.90625.60938 3.90625 3 0 1.875-1.14062 3.73438-3.95312 3.73438-1.65625 0-2.0625-.34375-2.0625-.875m1.4375-6.59375 1.09375-4.875c.15625-.625.26562-.73438 1.67187-.73438 1.76563 0 2.75.89063 2.75 2.35938 0 2.20312-1.82812 3.25-4.15625 3.25Zm0 0"/><path id="d" d="M1.09375-5.76562C1.09375-3 2.45313.3125 7.67188.3125c1.5 0 2.92187-.20312 4.26562-.875l1.03125-3.34375h-.625C11.17188-1.8125 10.125-.42187 7.53125-.42187c-2.4375 0-4.17187-1.5625-4.17187-4.8125 0-1.89063.48437-4.21875 1.5-5.90625C5.90625-12.90625 7.5625-14.125 9.8125-14.125c2.65625 0 3.42188 1.21875 3.42188 3.53125h.65625l.75-3.15625C13.4375-14.51562 11.46875-14.875 10-14.875c-3.96875 0-6.25 1.85938-7.46875 3.82813-1.17187 1.875-1.4375 3.82812-1.4375 5.28125m0 0"/><path id="f" d="M0 0h6.4375c4.20313 0 6.64063-1.51562 8.15625-3.79687C15.8125-5.60937 16.01563-7.375 16.01563-8.625c0-1.70312-.60938-3.40625-1.8125-4.40625-1.23438-1.03125-3.10938-1.5-5.4375-1.5H3.10938l-.14063.59375 1.25.09375c.35938.03125.5.20313.5.54688 0 .125-.01562.3125-.0625.5L2.14063-1.75c-.15625.70313-.32813.96875-.84375 1.01563l-1.1875.125Zm4.15625-1.54687c0-.07813 0-.17188.03125-.26563l2.51563-11.21875c.1875-.71875.46875-.78125 2.3125-.78125 4.375.07813 4.73437 3.03125 4.73437 4.71875 0 1.79688-.42187 3.5-1.35937 5.0625-1.21875 1.96875-3 3.29688-6.48438 3.29688-1.03125 0-1.75-.14063-1.75-.8125m0 0"/><path id="g" d="M.21875 0h10.95313L12.25-3.6875h-.625C10.54688-1.09375 9.60938-.73437 7.01563-.73437c-2.48438 0-2.60938-.3125-2.60938-.875 0-.21876.0625-.53125.15625-.96875l1.07813-4.59375h2.75c1.5625 0 1.84375.3125 1.84375 1.21875 0 .1875 0 .35937-.01563.59375h.625L11.82813-9.75h-.65625c-.53125 1.45313-.75 1.79688-2.60938 1.79688h-2.75L7-13.1875c.10938-.51562.25-.625.60938-.625H10.125c2.0625 0 2.48438.53125 2.48438 1.67188 0 .51562-.0625 1.09375-.0625 1.09375h.625l.78125-3.48438h-10.625l-.15625.59375 1.28125.09375c.35937.03125.51562.1875.51562.51563 0 .14062-.03125.29687-.07812.5L2.39063-1.75c-.17188.71875-.35938.96875-.875 1.01563l-1.1875.125Zm0 0"/><path id="h" d="M.21875 0h6.10938l.14062-.60937L4.875-.71875c-.375-.01562-.53125-.20312-.53125-.51562 0-.125.01563-.26563.0625-.4375l1.15625-5.1875h2.79688c1.54687 0 1.84375.28125 1.84375 1.1875 0 .17187 0 .375-.03125.59375h.625l.98437-4.40625h-.625C10.625-8 10.375-7.67187 8.51563-7.67187H5.75l1.25-5.5c.125-.53125.25-.64063.625-.64063h2.57813c2.04687 0 2.45312.53125 2.45312 1.65625 0 .53125-.0625 1.09375-.0625 1.09375h.64063l.78125-3.46875H3.32813l-.125.59375 1.25.125c.35937.01563.51562.20313.51562.53125 0 .10938-.03125.26563-.07812.42188l-2.5 11.1875c-.15625.625-.35938.90625-.875.95312l-1.1875.10938Zm0 0"/><path id="i" d="M.89063-6c0 2.10938.70312 3.82813 1.79687 4.76563C3.90625-.15626 5.64063.3125 7.57813.3125c1.54687 0 3.25-.35937 4.45312-.79687l1-4.25c.1875-.71875.29688-1.01563.65625-1.0625l.90625-.07813.14063-.60937H9.1875l-.10937.60937 1.5625.125c.29687.03125.42187.15625.42187.5 0 .125-.01562.28125-.0625.51563l-.76562 3.17187C10.07813-.96875 9.8125-.42187 7.625-.42187c-2.54687 0-4.40625-1.70313-4.40625-5.40625 0-3.35938 1.64063-8.29688 6.67188-8.29688 2.75 0 3.21875 1.60938 3.34375 3.59375h.625l.76562-3.28125c-1.28125-.70312-2.95312-1.0625-4.71875-1.0625-3.21875 0-5.54687 1.17188-7.01562 3.04688C1.5-10.0625.89063-7.84375.89063-6m0 0"/><path id="j" d="M0 0h5.75l.125-.60937-1.25-.07813c-.35937-.03125-.51562-.20312-.51562-.54687 0-.15626.03125-.3125.07812-.51563l1.20313-5.42187h7.01562L11.17188-1.75c-.17188.71875-.375.96875-.89063 1.01563l-1.15625.125L9.01563 0H14.75l.14063-.60937-1.23438-.07813c-.375-.03125-.53125-.20312-.53125-.5625 0-.14062.01563-.29687.0625-.5l2.53125-11.04687c.17188-.6875.32813-1 .875-1.04688L17.75-13.9375l.14063-.59375h-5.75l-.15625.59375 1.25.09375c.35937.03125.51562.23438.51562.57813 0 .14062-.01562.29687-.0625.46875l-1.07812 4.84375H5.59375l1.09375-4.84375c.17188-.6875.35938-1 .89063-1.04688L8.75-13.9375l.125-.59375h-5.75l-.15625.59375 1.25.09375c.35938.03125.51563.23438.51563.57813 0 .14062-.01563.29687-.0625.46875L2.14063-1.75c-.17188.71875-.35938.96875-.85938 1.01563l-1.17187.125Zm0 0"/><path id="k" d="M.45313 0H6.1875l.14063-.60937-1.25-.07813C4.71875-.71875 4.5625-.92187 4.5625-1.25c0-.14062.01563-.3125.0625-.5l2.5-11.04687c.17188-.64063.35938-1 .90625-1.04688l1.15625-.09375.14063-.59375h-5.75l-.15625.59375 1.25.09375c.35937.03125.51562.25.51562.57813 0 .14062-.01562.29687-.0625.46875L2.59375-1.75c-.15625.67188-.35937.96875-.875 1.01563l-1.15625.125Zm0 0"/><clipPath id="e"><path d="M10 121h200v41.22266H10Zm0 0"/></clipPath><clipPath id="l"><path d="M646 58h116.35938v76H646Zm0 0"/></clipPath></defs><path fill="#66B2B2" d="m15.67969 127.45313 31.33203 5.52343c1.13281-6.42578.25781-13.05078-2.5-18.96875Zm0 0"/><path fill="none" stroke="#000" stroke-miterlimit="10" stroke-width=".39755" d="M47.0117 132.97656c1.13282-6.42578.25782-13.05078-2.5-18.96874"/><use xlink:href="#a" x="8.12082" y="132.67461"/><use xlink:href="#b" x="8.46798" y="119.553"/><use xlink:href="#a" x="94.61091" y="92.34409"/><use xlink:href="#c" x="95.29328" y="79.22248"/><use xlink:href="#a" x="133.43005" y="154.76976"/><use xlink:href="#d" x="133.89992" y="141.3339"/><path fill="none" stroke="#000" stroke-miterlimit="10" stroke-width=".39755" d="M15.67969 127.45312 131.01166 73.6719"/><g clip-path="url(#e)"><path fill="none" stroke="#000" stroke-miterlimit="10" stroke-width=".39755" d="m15.67969 127.45312 187.98428 33.14452"/></g><path fill="#66B2B2" d="m461.07813 127.45313 27.55078-15.90626c-8.78516-15.21874-28.2422-20.42968-43.46094-11.64453-8.14063 4.69922-13.78906 12.76954-15.42188 22.02735Zm0 0"/><path fill="none" stroke="#000" stroke-miterlimit="10" stroke-width=".39755" d="M488.62867 111.54688c-8.78515-15.21874-28.24217-20.42967-43.46091-11.64452-8.14063 4.69921-13.78906 12.76952-15.42187 22.02733"/><use xlink:href="#a" x="453.51234" y="132.67461"/><use xlink:href="#f" x="452.84095" y="149.88943"/><use xlink:href="#a" x="536.15764" y="84.95976"/><use xlink:href="#g" x="536.62751" y="71.83715"/><use xlink:href="#a" x="328.20311" y="110.58047"/><use xlink:href="#h" x="328.66101" y="97.45786"/><path fill="none" stroke="#000" stroke-miterlimit="10" stroke-width=".39755" d="m461.0779 127.45312 110.20698-63.62887M461.0779 127.45312 273.08972 94.30861"/><path fill="#66B2B2" d="m651.96094 127.45313 27.55078-15.90626c-5.6836-9.84374-16.1875-15.90624-27.55078-15.90624Zm0 0"/><path fill="none" stroke="#000" stroke-miterlimit="10" stroke-width=".39755" d="M679.51139 111.54688c-5.6836-9.84374-16.1875-15.90624-27.55077-15.90624"/><use xlink:href="#a" x="644.39372" y="132.67461"/><use xlink:href="#i" x="644.36079" y="150.22463"/><use xlink:href="#a" x="727.03901" y="84.95976"/><use xlink:href="#j" x="725.98852" y="71.83715"/><use xlink:href="#a" x="644.39372" y="49.96847"/><use xlink:href="#k" x="635.39724" y="52.01457"/><g clip-path="url(#l)"><path fill="none" stroke="#000" stroke-miterlimit="10" stroke-width=".39755" d="M651.96062 127.45312 762.1676 63.82425"/></g><path fill="none" stroke="#000" stroke-miterlimit="10" stroke-width=".39755" d="M651.96062 127.45312V.19538"/></svg>