<svg xmlns="http://www.w3.org/2000/svg" width="76.836pt" height="34.979pt" viewBox="0 0 76.836 34.979"><defs><clipPath id="a"><path d="M0 7h76.67188v21H0Zm0 0"/></clipPath><clipPath id="b"><path d="M0 .02734h76.67188V34.9297H0Zm0 0"/></clipPath></defs><path fill="#ffb266" d="M38.33594 17.47656 27.3789 16.19141c-.25 2.14453.1328 4.3164 1.10156 6.24218Zm0 0"/><path fill="none" stroke="#000" stroke-miterlimit="10" stroke-width=".39765" d="M27.3789 16.1914c-.25 2.14454.13282 4.31641 1.10157 6.2422"/><path fill="#ffb266" d="m38.33594 17.47656 10.95703 1.28907c.25-2.14454-.13281-4.31641-1.10156-6.2422Zm0 0"/><path fill="none" stroke="#000" stroke-miterlimit="10" stroke-width=".39765" d="M49.29297 18.76563c.25-2.14454-.13282-4.31641-1.10156-6.2422"/><g clip-path="url(#a)"><path fill="none" stroke="#000" stroke-miterlimit="10" stroke-width=".39765" d="m.19922 13 76.27343 8.95703"/></g><g clip-path="url(#b)"><path fill="none" stroke="#000" stroke-miterlimit="10" stroke-width=".39765" d="M4.03125 34.73047 72.64062.22657"/></g></svg>