<svg xmlns="http://www.w3.org/2000/svg" xmlns:xlink="http://www.w3.org/1999/xlink" width="476.538pt" height="268.483pt" viewBox="0 0 476.538 268.483"><defs><path id="a" d="m3.04688-2.28125.875.875L7.5625-5.07812l3.67188 3.67187.84375-.875L8.4375-5.92187l3.64063-3.67188-.84375-.85937L7.5625-6.79687l-3.64062-3.65625-.875.85937 3.67187 3.67188Zm0 0"/><path id="b" d="M-.40625 0h4.75l.125-.60937L3.3125-.71875c-.26562-.01562-.375-.15625-.375-.35937 0-.10938.03125-.26563.10938-.42188.6875-1.34375 1.35937-2.70312 2.14062-4.10937h4.71875l.51563 4.32812s-.10938.51563-.54688.5625L8.75-.60937 8.64063 0h5.17187l.125-.60937-.79687-.0625c-.65625-.0625-.75-.35938-.85938-1.23438l-1.54687-12.64062h-1.5L5.70313-8.34375c-1.07813 1.875-2.8125 5.01563-3.59375 6.26563C1.4375-.98437 1.07813-.76562.42188-.6875l-.6875.07813Zm6.01563-6.42187 3.4375-6.17188.75 6.17188Zm0 0"/><path id="c" d="M0 0h4.96875l.10938-.60937L4.25-.67187c-.625-.04688-.95312-.17188-.95312-.625 0-1.125.1875-1.76563.4375-2.89063l1.96875-8.60937h.0625C7.73438-8.53125 9.6875-4.28125 11.60938 0h1.375l2.34375-10.35937c.25-1.125.48437-1.92188.73437-2.625.25-.67188.625-.82813 1.25-.89063l.65625-.0625.10938-.60937h-4.96876L13-13.9375l.82813.09375c.625.0625.98437.26563.98437.73438 0 .76562-.21875 1.625-.46875 2.75L12.625-2.75h-.09375c-1.8125-3.9375-3.60937-7.85937-5.375-11.79687h-4l-.14062.60937 1.23437.10938c.35938.01562.53125.20312.53125.5625 0 .125-.01562.28125-.0625.46875L2.73438-4.1875c-.25 1.125-.5 1.92188-.75 2.625-.23438.67188-.59375.82813-1.21875.89063l-.65625.0625Zm0 0"/><path id="d" d="M.89063-6c0 2.10938.70312 3.82813 1.79687 4.76563C3.92188-.15626 5.64063.3125 7.57813.3125c1.54687 0 3.25-.35937 4.45312-.8125l1.01563-4.25c.17187-.70312.28125-1 .64062-1.04687l.92188-.09375.14062-.59375H9.20313l-.125.59375 1.57812.14062c.28125.01563.42188.15625.42188.48438 0 .14062-.03125.29687-.0625.51562L10.25-1.5625c-.15625.59375-.42187 1.14063-2.625 1.14063-2.54687 0-4.40625-1.70313-4.40625-5.42188 0-3.35937 1.64063-8.29687 6.67188-8.29687 2.75 0 3.21875 1.60937 3.35937 3.60937h.625l.76563-3.29687c-1.28125-.6875-2.95313-1.04688-4.73438-1.04688-3.21875 0-5.54687 1.15625-7.01562 3.03125C1.5-10.0625.89063-7.85937.89063-6m0 0"/><path id="e" d="M.45313 0h10.75l1.07812-3.6875h-.625C10.57813-1.09375 9.625-.73437 7.25-.73437c-2.15625 0-2.625-.20313-2.625-.875 0-.21876.07813-.53125.15625-.96875l2.35938-10.21875C7.3125-13.5 7.5-13.8125 8.03125-13.84375l1.25-.09375.15625-.60937H3.57813l-.15625.60937 1.25.09375c.35937.01563.51562.1875.51562.54688 0 .14062-.01562.29687-.0625.5L2.59375-1.75c-.17187.75-.35937.96875-.875 1.01563l-1.15625.125Zm0 0"/><path id="f" d="M.21875 0H11.1875l1.07813-3.6875h-.625C10.5625-1.09375 9.625-.73437 7.03125-.73437c-2.48437 0-2.625-.3125-2.625-.875 0-.21876.0625-.53125.15625-.96875L5.64063-7.1875h2.75c1.5625 0 1.85937.3125 1.85937 1.23438 0 .1875 0 .35937-.03125.57812h.64063l.98437-4.375h-.65625c-.53125 1.45313-.76562 1.78125-2.625 1.78125h-2.75L7-13.20312c.10938-.51563.25-.625.60938-.625h2.53125c2.04687 0 2.48437.53125 2.48437 1.67187 0 .51563-.07812 1.10938-.07812 1.10938h.625l.79687-3.5H3.32813l-.15625.60937 1.28125.09375c.35937.01563.51562.17188.51562.51563 0 .125-.03125.28125-.0625.48437L2.39063-1.75c-.17188.71875-.35938.96875-.875 1.01563l-1.1875.125Zm0 0"/><path id="g" d="M.67188-1.40625C1.5-.3125 3.51563.3125 5.0625.3125 9.125.26563 10.375-2.07812 10.375-4.34375c0-1.90625-1.01562-3.07812-3.14062-4.1875C6-9.15625 4.51563-9.875 4.51563-11.45312c0-1.5 1.09375-2.6875 2.9375-2.6875 2.125 0 2.53125.98437 2.53125 3.28125h.625l.73437-2.95313c-.89062-.70312-2.45312-1.0625-3.76562-1.0625-3.65625 0-4.82813 2.40625-4.82813 4.1875 0 1.96875 1.34375 2.98438 3.04688 3.8125C7.46875-6.01562 8.5-5.14062 8.5-3.46875c0 1.75-1.40625 3.04688-3.17187 3.04688-2.82813 0-3.35938-2.17188-3.5-4.20313h-.625Zm0 0"/></defs><path fill="#66B2B2" d="m15.2461 221.5039 31.66796-3.16796c-1.625-16.26563-15.32031-28.66406-31.66797-28.66406Zm0 0"/><path fill="none" stroke="#000" stroke-miterlimit="10" stroke-width=".39773" d="M46.91406 218.33594c-1.625-16.26563-15.32031-28.66406-31.66797-28.66406"/><path fill="#66B2B2" d="m333.5 189.67578 29.80078 11.17578c6.17188-16.45703-2.16406-34.80469-18.625-40.97656-16.45703-6.17187-34.80469 2.16797-40.97656 18.625-1.71485 4.57422-2.35156 9.48438-1.86719 14.34375Zm0 0"/><path fill="none" stroke="#000" stroke-miterlimit="10" stroke-width=".39773" d="M363.30076 200.85156c6.17187-16.45703-2.16406-34.80468-18.625-40.97656-16.45703-6.17187-34.80469 2.16797-40.97656 18.625-1.71484 4.57422-2.35156 9.48438-1.86719 14.34375"/><path fill="#66B2B2" d="m460.80469 237.41406-11.82031-29.55078c-8.3125 3.32422-14.83985 9.9961-17.98047 18.375Zm0 0"/><path fill="none" stroke="#000" stroke-miterlimit="10" stroke-width=".39773" d="M448.98435 207.86328c-8.3125 3.32422-14.83985 9.9961-17.98047 18.375"/><path fill="#66B2B2" d="M428.97656 157.85156 404.125 137.96875c-10.98047 13.72656-8.7539 33.7539 4.96875 44.73438 8.94922 7.16015 21.0625 8.95703 31.70313 4.69921Zm0 0"/><path fill="none" stroke="#000" stroke-miterlimit="10" stroke-width=".39773" d="M404.12497 137.96875c-10.98046 13.72657-8.7539 33.7539 4.96875 44.73438 8.94922 7.16015 21.0625 8.95703 31.70313 4.69922"/><path fill="#66B2B2" d="M269.85156 30.55078h-31.83203c0 17.57813 14.25 31.82813 31.83203 31.82813 9.66406 0 18.8125-4.39844 24.85156-11.94532Zm0 0"/><path fill="none" stroke="#000" stroke-miterlimit="10" stroke-width=".39773" d="M238.01952 30.5508c0 17.57812 14.25 31.82812 31.83203 31.82812 9.66406 0 18.8125-4.39844 24.85156-11.94532"/><path fill="#66B2B2" d="M15.2461 30.55078v31.82813c17.57812 0 31.82812-14.25 31.82812-31.82813Zm0 0"/><path fill="none" stroke="#000" stroke-miterlimit="10" stroke-width=".39773" d="M15.2461 62.37892c17.57812 0 31.82812-14.25 31.82812-31.82813"/><use xlink:href="#a" x="7.68402" y="226.72641"/><use xlink:href="#b" x="8.03135" y="243.94924"/><use xlink:href="#a" x="325.93519" y="194.90169"/><use xlink:href="#c" x="324.79339" y="212.12353"/><use xlink:href="#a" x="453.23505" y="242.63877"/><use xlink:href="#d" x="453.20112" y="260.19696"/><use xlink:href="#a" x="421.41034" y="163.07597"/><use xlink:href="#e" x="436.87655" y="149.94825"/><use xlink:href="#a" x="262.28475" y="35.77611"/><use xlink:href="#f" x="262.75485" y="22.64739"/><use xlink:href="#a" x="7.68402" y="35.77611"/><use xlink:href="#g" x="9.4626" y="22.33499"/><path fill="none" stroke="#000" stroke-miterlimit="10" stroke-width=".39773" d="m15.2461 221.5039 318.25388-31.82812 127.30468 47.73828-31.82813-79.5625L269.85155 30.5508H15.24609Zm0 0"/></svg>