<svg xmlns="http://www.w3.org/2000/svg" width="92.527pt" height="37.25pt" viewBox="0 0 92.527 37.25"><defs><clipPath id="a"><path d="M55 26h11v10.51563H55Zm0 0"/></clipPath><clipPath id="b"><path d="M54 21h18v15.51563H54Zm0 0"/></clipPath><clipPath id="c"><path d="M26 25h16v11.51563H26Zm0 0"/></clipPath><clipPath id="d"><path d="M20 19h28v17.51563H20Zm0 0"/></clipPath><clipPath id="e"><path d="M49 0h42.38281v36.51563H49Zm0 0"/></clipPath><clipPath id="f"><path d="M.67969 0H61v36.51563H.67969Zm0 0"/></clipPath></defs><g clip-path="url(#a)"><path fill="#66b2b2" d="M55.0625 36.32031h10.83594c0-4.10547-2.32031-7.85937-5.98828-9.6914Zm0 0"/></g><g clip-path="url(#b)"><path fill="none" stroke="#000" stroke-miterlimit="10" stroke-width=".39063" d="M65.89844 36.32031c0-4.10547-2.32032-7.85937-5.98828-9.6914"/></g><g clip-path="url(#c)"><path fill="#66b2b2" d="m36.9961 36.32031 4.84765-9.6914c-5.35156-2.6797-11.86328-.50782-14.53906 4.84375-.75 1.5039-1.14453 3.16406-1.14453 4.84765Zm0 0"/></g><g clip-path="url(#d)"><path fill="none" stroke="#000" stroke-miterlimit="10" stroke-width=".39063" d="M41.84375 26.6289c-5.35156-2.67968-11.86328-.5078-14.53906 4.84376-.75 1.5039-1.14453 3.16406-1.14453 4.84765"/></g><g clip-path="url(#e)"><path fill="none" stroke="#000" stroke-miterlimit="10" stroke-width=".39063" d="m73.125.19532-18.0625 36.125h36.125"/></g><g clip-path="url(#f)"><path fill="none" stroke="#000" stroke-miterlimit="10" stroke-width=".39063" d="M55.0625.19532 37 36.32032H.875"/></g></svg>