<svg xmlns="http://www.w3.org/2000/svg" xmlns:xlink="http://www.w3.org/1999/xlink" width="64.888pt" height="26.194pt" viewBox="0 0 64.888 26.194"><defs><clipPath id="a"><path d="M38 15h12v10.41016H38Zm0 0"/></clipPath><clipPath id="b"><path d="M36 9h19v16.41016H36Zm0 0"/></clipPath><clipPath id="f"><path d="M15 14h16v11.41016H15Zm0 0"/></clipPath><clipPath id="g"><path d="M9 9h28v16.41016H9Zm0 0"/></clipPath><clipPath id="i"><path d="M33 0h30.86328v25.41016H33Zm0 0"/></clipPath><clipPath id="j"><path d="M.91406 0H45v25.41016H.91406Zm0 0"/></clipPath><path id="c" d="m.23438-3.04687.1875.03125.0625-.125C.54688-3.28125.625-3.375.89063-3.375h1.57812c-.0625.20313-.1875.59375-.67187 1.23438-.5.67187-.82813 1.29687-.82813 1.90625 0 .26562.1875.29687.39063.29687.1875 0 .35937-.03125.35937-.28125.01563-.82812.14063-1.42187.42188-1.875.46875-.73437.73437-1.125.89062-1.78125l-.0625-.0625H.45313Zm0 0"/><path id="d" d="M.1875-.07812.25 0h2.54688l.23437-.89062-.1875-.03126c-.15625.3125-.25.35938-.5.35938h-1.5c.09375-.26562.375-.65625.96875-1.01562.625-.40625 1.04688-.6875 1.04688-1.32813 0-.8125-.57813-1.10937-1.25-1.10937-.79688 0-1.29688.4375-1.29688.84375 0 .21875.26563.32812.40625.32812.10938 0 .17188-.0625.20313-.1875.10937-.42187.3125-.75.64062-.75.39063 0 .51563.34375.51563.76563 0 .51562-.20313.92187-.78125 1.40625C.51563-.95312.25-.51562.1875-.07812m0 0"/><path id="e" d="M.21875-3.20312c0 .45312.35938.8125.8125.8125.4375 0 .82813-.35938.82813-.8125 0-.4375-.39063-.8125-.82813-.8125-.45312 0-.8125.375-.8125.8125m.32813 0c0-.29688.23437-.53125.48437-.53125s.48438.23437.48438.53125c0 .3125-.23438.53125-.48438.53125-.26562 0-.48437-.21875-.48437-.53125m0 0"/><path id="h" d="M.64063 0h2.01562v-.1875l-.45312-.04687C2.0625-.25 2-.28125 2-.5v-3.46875l-.04687-.04687-1.29688.21875v.17187l.46875.0625c.125.01563.17188.0625.17188.26563V-.5c0 .21875-.0625.25-.20313.26563L.64063-.1875Zm0 0"/></defs><g clip-path="url(#a)"><path fill="#66b2b2" d="M38.64453 25.21875H49.3711c0-4.64453-2.99218-8.76562-7.41015-10.19922Zm0 0"/></g><g clip-path="url(#b)"><path fill="none" stroke="#000" stroke-miterlimit="10" stroke-width=".3866" d="M49.3711 25.21875c0-4.64453-2.9922-8.76562-7.41016-10.19922"/></g><use xlink:href="#c" x="50.85935" y="15.21386"/><use xlink:href="#d" x="54.09479" y="15.21386"/><use xlink:href="#e" x="57.33023" y="15.21386"/><g clip-path="url(#f)"><path fill="#66b2b2" d="m26.13281 25.21875 4.79297-9.59375c-5.29687-2.64844-11.73828-.5-14.38672 4.79688-.7461 1.48828-1.13281 3.1328-1.13281 4.79687Zm0 0"/></g><g clip-path="url(#g)"><path fill="none" stroke="#000" stroke-miterlimit="10" stroke-width=".3866" d="M30.92578 15.625c-5.29687-2.64844-11.73828-.5-14.38671 4.79688-.7461 1.48828-1.13282 3.1328-1.13282 4.79687"/></g><use xlink:href="#h" x="8.96545" y="8.94574"/><use xlink:href="#h" x="12.20088" y="8.94574"/><use xlink:href="#c" x="15.43632" y="8.94574"/><use xlink:href="#e" x="18.67176" y="8.94574"/><g clip-path="url(#i)"><path fill="none" stroke="#000" stroke-miterlimit="10" stroke-width=".3866" d="m46.65625.56641-8.01172 24.65234h25.02734"/></g><g clip-path="url(#j)"><path fill="none" stroke="#000" stroke-miterlimit="10" stroke-width=".3866" d="M38.64453.19141 26.13281 25.21875H1.10547"/></g></svg>