<svg xmlns="http://www.w3.org/2000/svg" xmlns:xlink="http://www.w3.org/1999/xlink" width="161.963pt" height="150.837pt" viewBox="0 0 161.963 150.837"><defs><path id="a" d="m1.76563-1.3125.5.5L4.375-2.9375 6.5-.8125l.48438-.5L4.875-3.42187l2.10938-2.125-.48438-.5L4.375-3.9375 2.26563-6.04687l-.5.5 2.10937 2.125Zm0 0"/><path id="b" d="M.78125-3.28125c0 1.8125.9375 3.17188 2.875 3.40625.57813 1.0625 1.79688 2.34375 3.32813 2.34375.3125 0 .70312-.07812.90625-.1875l-.03125-.21875c-1.17188 0-2.07813-.90625-2.78125-1.9375C7.5625-.21875 8.98438-2.67187 8.98438-5.03125c0-2.5-1.5-3.57812-3.51563-3.57812-3.125 0-4.6875 2.89062-4.6875 5.32812m1.28125.48438c0-2.17188 1.04688-5.375 3.46875-5.375 1.32813 0 2.17188.78125 2.17188 2.5 0 2.96875-1.375 5.42187-3.46875 5.42187-1.32813 0-2.17188-.84375-2.17188-2.54687m0 0"/><path id="c" d="M0 0h3.45313l.0625-.34375-.84375-.07812C2.46875-.4375 2.375-.53125 2.375-.71875c0-.07812.01563-.17187.04688-.29687l.54687-2.39063H3.875c1.03125 0 1.98438-.14062 2.6875-.5625.76563-.48437 1.21875-1.3125 1.21875-2.21875 0-.82812-.375-1.45312-.96875-1.79687-.57812-.32813-1.35937-.42188-2.15625-.42188H1.8125l-.09375.34375.71875.04688c.21875.01562.3125.125.3125.32812q0 .1172-.04687.28125L1.23438-1.01562c-.09376.42187-.20313.5625-.5.59375L.0625-.34375Zm3.125-4.09375c0-.07812.01563-.15625.04688-.25l.73437-3.21875C3.98438-7.875 4.0625-8 4.6875-8 5.89063-8 6.5-7.42187 6.5-6.39062c0 1.73437-.96875 2.5625-2.60937 2.5625-.625 0-.76563-.0625-.76563-.26563m0 0"/><path id="d" d="M0 0h3.32813l.07812-.34375-.73437-.0625C2.46875-.42187 2.375-.51562 2.375-.71875c0-.07812.01563-.17187.04688-.29687l.65625-2.9375h.73437c1.1875 0 1.34375.28125 1.34375 1.70312 0 1.46875 0 2.25 1.28125 2.25h.95313L7.5-.34375C6.65625-.46875 6.35938-.5 6.35938-2.0625c0-1.25-.10938-1.78125-1.125-2.10937 1.5-.21875 2.5-1.07813 2.5-2.28125 0-.875-.375-1.95313-2.65625-1.95313H1.8125l-.09375.34375.71875.04688c.21875.01562.3125.125.3125.32812q0 .1172-.04687.28125L1.23438-1.01562c-.09376.4375-.20313.5625-.5.59375L.0625-.34375Zm3.1875-4.39062.70313-3.14063C3.98438-7.875 4.03125-8 4.9375-8c.79688 0 1.53125.35938 1.53125 1.42188 0 1.4375-.9375 2.1875-2.51562 2.1875Zm0 0"/><clipPath id="e"><path d="M12 77h37v73.67578H12Zm0 0"/></clipPath><clipPath id="f"><path d="M12 0h149.85547v89H12Zm0 0"/></clipPath></defs><path fill="#66b2b2" d="m18.20313 83.02344 3.77734 10.3789c3.70703-1.35156 6.41406-4.57812 7.09766-8.46093.44921-2.5586-.01563-5.19141-1.3125-7.44141Zm0 0"/><path fill="none" stroke="#000" stroke-miterlimit="10" stroke-width=".39807" d="M21.98047 93.40235c3.70703-1.35156 6.41407-4.57813 7.09766-8.46094.44922-2.5586-.01563-5.19141-1.3125-7.44141"/><use xlink:href="#a" x="13.82907" y="86.04402"/><use xlink:href="#b" x="4.38128" y="75.98189"/><use xlink:href="#a" x="26.42146" y="120.64163"/><use xlink:href="#c" x="35.36579" y="121.82535"/><use xlink:href="#a" x="77.60015" y="49.2268"/><use xlink:href="#d" x="77.78096" y="41.63501"/><g clip-path="url(#e)"><path fill="none" stroke="#000" stroke-miterlimit="10" stroke-width=".39807" d="m18.20312 83.02344 24.5508 67.45315"/></g><g clip-path="url(#f)"><path fill="none" stroke="#000" stroke-miterlimit="10" stroke-width=".39807" d="M18.20312 83.02344 161.66022.19918"/></g></svg>