<svg xmlns="http://www.w3.org/2000/svg" width="74.276pt" height="37.977pt" viewBox="0 0 74.276 37.977"><defs><clipPath id="a"><path d="M37 26h12v11.78125H37Zm0 0"/></clipPath><clipPath id="b"><path d="M32 21h22v16.78125H32Zm0 0"/></clipPath><clipPath id="c"><path d="M26 26h12v11.78125H26Zm0 0"/></clipPath><clipPath id="d"><path d="M20 21h24v16.78125H20Zm0 0"/></clipPath><clipPath id="e"><path d="M0 25h73.5586v12.78125H0Zm0 0"/></clipPath><clipPath id="f"><path d="M31 .17188h13v37.60937H31Zm0 0"/></clipPath></defs><g clip-path="url(#a)"><path fill="#d9668c" d="m37.41406 37.58594 10.78125-1.90235c-.90625-5.14062-5.3164-8.92578-10.53125-9.04297Zm0 0"/></g><g clip-path="url(#b)"><path fill="none" stroke="#000" stroke-miterlimit="10" stroke-width=".39465" d="M48.19532 35.6836c-.90625-5.14063-5.31641-8.9258-10.53126-9.04298"/></g><g clip-path="url(#c)"><path fill="#d9668c" d="m37.41406 37.58594.25-10.94531c-6.04687-.14063-11.0586 4.64843-11.19531 10.6953Zm0 0"/></g><g clip-path="url(#d)"><path fill="none" stroke="#000" stroke-miterlimit="10" stroke-width=".39465" d="M37.66406 26.64062C31.6172 26.5 26.60546 31.28906 26.46875 37.33594"/></g><g clip-path="url(#e)"><path fill="none" stroke="#000" stroke-miterlimit="10" stroke-width=".39465" d="m73.3633 31.2461-35.94924 6.33984L.1953 36.73438"/></g><g clip-path="url(#f)"><path fill="none" stroke="#000" stroke-miterlimit="10" stroke-width=".39465" d="M37.41406 37.58594 38.26562.36718"/></g></svg>