<svg xmlns="http://www.w3.org/2000/svg" xmlns:xlink="http://www.w3.org/1999/xlink" width="199.57pt" height="226.702pt" viewBox="0 0 199.57 226.702"><defs><path id="a" d="m2.70313-2.03125.78125.78125 3.23437-3.26562L9.98438-1.25l.75-.78125L7.5-5.26562l3.23438-3.26563-.75-.75-3.26563 3.23438-3.23437-3.23438-.78125.75 3.26562 3.26563Zm0 0"/><path id="b" d="M.59375-5.04687c0 3.07812 1.76563 5.32812 5.48438 5.32812 3.29687 0 4.90625-1.6875 5.95312-3.54687 1-1.82813 1.1875-3.73438 1.1875-4.46875 0-3.82813-2.32812-5.48438-5.40625-5.48438-2.98437 0-4.82812 1.65625-5.92187 3.4375C.85938-8.04687.59375-6.28125.59375-5.04687m1.96875.75c0-1.5625.29688-3.3125 1.15625-5.125.85938-1.76563 2.1875-3.14063 4.17188-3.14063 2.04687 0 3.35937 1.21875 3.35937 3.85938 0 1.07812-.09375 2.59375-.875 4.59375S8.32813-.375 5.90625-.375C3.875-.375 2.5625-1.6875 2.5625-4.29687m0 0"/><path id="c" d="M.39063 0H5.5l.125-.53125-1.10937-.07812c-.32813-.03126-.46875-.20313-.46875-.5 0-.125.03125-.28126.0625-.4375L6.34375-11.375c.14063-.5625.3125-.89062.79688-.92187l1.03125-.07813.10937-.54687H3.1875l-.14062.54687 1.10937.07813c.3125.01562.45313.21875.45313.51562 0 .10938-.01563.25-.0625.40625L2.3125-1.54687c-.14062.59375-.32812.84375-.78125.89062L.5-.53125Zm0 0"/><path id="d" d="M-1.54687 1.70313v.48437c.20312.01563.40625.03125.60937.03125.85938 0 2.125-.21875 2.89063-.73437.875-.60938 1.53125-1.64063 1.96875-3.51563l2.1875-9.39062c.125-.57813.29687-.84375.76562-.875l1.03125-.07813.14063-.54687H2.90625l-.125.54687 1.09375.07813c.34375.01562.5.17187.5.48437 0 .10938-.01562.21875-.0625.39063L2.26563-2.6875C1.84375-.9375 1.34375.23438.78125.78125c-.64062.5625-1.39062.82813-2.32812.92188m0 0"/><clipPath id="e"><path d="M21 .09375h90V219H21Zm0 0"/></clipPath><clipPath id="f"><path d="M21 108h178.14063v111H21Zm0 0"/></clipPath></defs><path fill="#66B2B2" d="m27.46875 212.9336 24.4961-14.14454c-3.32422-5.75781-8.57422-10.16406-14.82032-12.4375Zm0 0"/><path fill="none" stroke="#000" stroke-miterlimit="10" stroke-width=".39764" d="M51.96484 198.78906c-3.32421-5.7578-8.57421-10.16406-14.8203-12.4375"/><use xlink:href="#a" x="20.74929" y="217.57543"/><use xlink:href="#b" x="6.62672" y="219.40449"/><use xlink:href="#a" x="78.79523" y="58.09605"/><use xlink:href="#c" x="70.79646" y="46.42919"/><use xlink:href="#a" x="118.73317" y="161.00432"/><use xlink:href="#d" x="121.72573" y="147.11026"/><g clip-path="url(#e)"><path fill="none" stroke="#000" stroke-miterlimit="10" stroke-width=".39764" d="M27.46875 212.9336 104.86719.29296"/></g><g clip-path="url(#f)"><path fill="none" stroke="#000" stroke-miterlimit="10" stroke-width=".39764" d="m27.46875 212.9336 171.47656-99"/></g></svg>