<svg id="Layer_1" height="512" viewBox="0 0 512 512" width="512" xmlns="http://www.w3.org/2000/svg" data-name="Layer 1"><path d="m479.04 387.42a8.99 8.99 0 0 1 -9-8.98v-31.88c0-118.85-96.55-215.19-215.64-215.19a215.42 215.42 0 0 0 -215.64 215.19v29.86a11.007 11.007 0 0 1 -11 11h-16.76v61h490v-61zm-80.21-35.84h-285.66a3.388 3.388 0 0 1 -3.38-3.49c1.86-78.99 67.65-144.59 147.22-142.45 81.05 2.17 143.34 63.46 145.2 142.45a3.388 3.388 0 0 1 -3.38 3.49z" fill="#e2a2ac"/><path d="m58.76 387c6.07 0 11.24-4.51 11.24-10.58v-29.86a215.183 215.183 0 0 1 199.96-214.632c-5.12-.363-10.317-.558-15.53-.558a215.241 215.241 0 0 0 -215.43 215.19v29.86c0 6.07-5.17 10.58-11.24 10.58h-16.76v61h31v-61z" fill="#e28086"/><path d="m270.089 325.479a6 6 0 0 1 -5.456-8.49l116.2-254.9a6 6 0 0 1 10.919 4.978l-116.2 254.9a6 6 0 0 1 -5.463 3.512z" fill="#707dd3"/><path d="m426.529 161.726a6 6 0 1 0 -8.392 8.577c5.563 5.444 10.932 11.214 15.96 17.152a6 6 0 0 0 9.158-7.754c-5.269-6.223-10.896-12.27-16.726-17.975z" fill="#f1cb86"/><path d="m408.99 146.041c-4.969-4.057-10.138-7.957-15.41-11.65l4.293-.493a6 6 0 0 0 -1.371-11.922l-17.745 2.04a6 6 0 0 0 -5.315 5.961v18.788a6 6 0 0 0 12 0v-5.408c5.464 3.777 10.824 7.787 15.958 11.979a6 6 0 0 0 7.59-9.3z" fill="#f1cb86"/><path d="m490.612 262.822c-2.659-7.708-5.722-15.382-9.1-22.809a6 6 0 0 0 -10.921 4.974c3.225 7.081 6.146 14.4 8.682 21.749a6 6 0 1 0 11.343-3.914z" fill="#f1cb86"/><path d="m470.791 219.059c-4.037-7.079-8.462-14.055-13.155-20.733a6 6 0 0 0 -9.818 6.9c4.476 6.371 8.7 13.025 12.548 19.778a6 6 0 0 0 10.425-5.943z" fill="#f1cb86"/><path d="m114 396h-2a6 6 0 0 1 0-12h2a6 6 0 0 1 0 12z" fill="#e28086"/><path d="m226 396h-92a6 6 0 0 1 0-12h92a6 6 0 0 1 0 12z" fill="#e28086"/><g fill="#dd636e"><path d="m440.044 363a6 6 0 0 0 6 6h23.956v-12h-23.956a6 6 0 0 0 -6 6z"/><path d="m255.4 160.751h.264a6 6 0 0 0 5.735-6.254l-.994-23.035c-2-.054-4-.087-6.008-.087s-4 .032-6 .087v.17l1.009 23.383a6 6 0 0 0 5.994 5.736z"/><path d="m67.744 363a6 6 0 0 0 -6-6h-22.744v12h22.744a6 6 0 0 0 6-6z"/><path d="m74.246 279.152-22-7.485-.046-.013q-2.087 5.606-3.87 11.353c.017.006.033.014.051.02l22 7.486a6 6 0 0 0 3.866-11.361z"/><path d="m113.651 213.44-16.213-14.416q-4.119 4.363-7.991 8.953l16.231 14.431a6 6 0 0 0 7.973-8.968z"/><path d="m167.843 150.015c-.075-.166-.16-.325-.248-.481q-5.486 2.411-10.812 5.1c.042.109.08.218.128.325l9.328 20.607a6 6 0 0 0 10.932-4.948z"/><path d="m460.47 283.174a100.179 100.179 0 0 0 -3.87-11.174l-20.269 6.365a5.924 5.924 0 0 0 1.843 11.575 6.033 6.033 0 0 0 1.846-.314l20.269-6.558c.06-.021.119.132.181.106z"/><path d="m411.362 199.021c-.115.106-.242.192-.35.309l-15.312 16.53a6 6 0 1 0 8.8 8.157l14.86-16.038q-3.878-4.59-7.998-8.958z"/><path d="m211.39 135.656q-5.91 1.194-11.7 2.71c.023.093.041.186.069.279l4.2 14.009a6 6 0 1 0 11.495-3.444z"/><path d="m128.868 171.583q-4.89 3.5-9.568 7.267c.068.085.131.173.2.256l9.147 10.409a6 6 0 1 0 9.015-7.921z"/><path d="m85.293 239.062-12.972-6.8c-.164-.086-.331-.161-.5-.23q-3.166 5.015-6.057 10.211a5.966 5.966 0 0 0 .985.648l12.972 6.8a6 6 0 1 0 5.57-10.629z"/><path d="m53.488 329.191c.111.006.22.009.329.009a6 6 0 0 0 .319-11.992l-13.27-.717q-.829 5.921-1.337 11.94c.036 0 .07.009.106.011z"/><path d="m300.327 136.788-1.9 13.3a6 6 0 1 0 11.879 1.694l1.8-12.6q-5.78-1.6-11.686-2.876c-.035.154-.07.315-.093.482z"/><path d="m388.746 178.242q-4.693-3.736-9.59-7.222l-10.985 13.069a6 6 0 0 0 9.186 7.721l11.251-13.386c.05-.059.092-.124.138-.182z"/><path d="m436.6 231.422c-.084.053-.171.1-.253.157l-12.055 8.321a6 6 0 1 0 6.816 9.876l11.644-8.037q-2.938-5.25-6.152-10.317z"/><path d="m448.558 323.505a6 6 0 0 0 5.986 5.677c.109 0 .219 0 .329-.009l14.15-.765c.083 0 .162-.018.244-.026q-.5-6.015-1.339-11.933l-13.7.741a6 6 0 0 0 -5.67 6.315z"/><path d="m263 448.392c0 .009.018-.392.018-.392h-.018z"/><path d="m257 415.17a6 6 0 0 0 -6 6v27.222c0 .009.021-.392.021-.392h11.979v-26.83a6 6 0 0 0 -6-6z"/><path d="m199 448.392c0 .009.436-.392.436-.392h-.436z"/><path d="m193 415.17a6 6 0 0 0 -6 6v27.222c0 .009.439-.392.439-.392h11.561v-26.83a6 6 0 0 0 -6-6z"/><path d="m124 448.392v-.392h-.143s.143.4.143.392z"/><path d="m130 415.17a6 6 0 0 0 -6 6v26.83h11.854s.146.4.146.392v-27.222a6 6 0 0 0 -6-6z"/><path d="m66 415.17a6 6 0 0 0 -6 6v27.222c0 .009.275-.392.275-.392h11.725v-26.83a6 6 0 0 0 -6-6z"/><path d="m72 448.392c0 .009.272-.392.272-.392h-.272z"/><path d="m448 415.17a6 6 0 0 0 -6 6v26.83h11.764s.236.4.236.392v-27.222a6 6 0 0 0 -6-6z"/><path d="m442 448.392v-.392h-.233s.233.4.233.392z"/><path d="m384 415.17a6 6 0 0 0 -6 6v27.222c0 .009.185-.392.185-.392h11.815v-26.83a6 6 0 0 0 -6-6z"/><path d="m390 448.392c0 .009.182-.392.182-.392h-.182z"/><path d="m315 448.392v-.392h-.4s.4.4.4.392z"/><path d="m321 415.17a6 6 0 0 0 -6 6v26.83h11.6s.4.4.4.392v-27.222a6 6 0 0 0 -6-6z"/><path d="m34 428.127a6 6 0 0 0 -6 6v13.873h12v-13.873a6 6 0 0 0 -6-6z"/><path d="m98 428.127a6 6 0 0 0 -6 6v13.873h12v-13.873a6 6 0 0 0 -6-6z"/><path d="m162 428.127a6 6 0 0 0 -6 6v13.873h12v-13.873a6 6 0 0 0 -6-6z"/><path d="m225 428.127a6 6 0 0 0 -6 6v13.873h12v-13.873a6 6 0 0 0 -6-6z"/><path d="m289 428.127a6 6 0 0 0 -6 6v13.873h12v-13.873a6 6 0 0 0 -6-6z"/><path d="m352 428.127a6 6 0 0 0 -6 6v13.873h12v-13.873a6 6 0 0 0 -6-6z"/><path d="m416 428.127a6 6 0 0 0 -6 6v13.873h12v-13.873a6 6 0 0 0 -6-6z"/><path d="m480 428.127a6 6 0 0 0 -6 6v13.873h12v-13.873a6 6 0 0 0 -6-6z"/></g><path d="m292.07 351.23v.35h-72.14v-.35a36.07 36.07 0 0 1 72.14 0z" fill="#8993da"/></svg>
