<svg id="Capa_1" enable-background="new 0 0 512 512" height="512" viewBox="0 0 512 512" width="512" xmlns="http://www.w3.org/2000/svg"><path d="m133.202 445.398c-10.489.001-19.868-6.555-23.464-16.422l-71.022-194.83h-28.414c-5.69 0-10.302-4.612-10.302-10.301v-29.348c0-5.69 4.612-10.302 10.302-10.302h45.893c10.495 0 19.87 6.561 23.465 16.422l53 145.393 91.427-262.644c3.494-10.038 12.959-16.765 23.587-16.765h254.023c5.69 0 10.302 4.612 10.302 10.302v29.348c0 5.69-4.612 10.302-10.302 10.302h-236.271l-108.635 312.081c-3.472 9.975-12.843 16.687-23.405 16.764-.061 0-.123 0-.184 0z" fill="#596c76"/><path d="m490.146 66.602v18.732c0 5.747-4.659 10.407-10.406 10.407h-212.155c-8.815 0-16.674 5.553-19.618 13.862l-113.03 319.031c-2.22 6.377-6.857 11.41-12.669 14.238 3.337 1.627 7.059 2.527 10.934 2.526.06 0 .122 0 .183-.001 10.562-.077 19.933-6.79 23.405-16.764l108.635-312.081h236.272c5.69 0 10.302-4.612 10.302-10.302v-29.347c0-5.69-4.612-10.302-10.302-10.302h-11.551z" fill="#3b4a51"/><path d="m352.012 440.023 40.313-74.046 40.313 74.046c1.804 3.314 5.275 5.376 9.048 5.376h40.834c6.253 0 10.228-6.69 7.238-12.182l-67.02-123.102 67.02-123.102c2.99-5.492-.985-12.182-7.238-12.182h-40.834c-3.773 0-7.244 2.062-9.048 5.376l-40.313 74.046-40.313-74.046c-1.804-3.314-5.275-5.376-9.048-5.376h-40.834c-6.253 0-10.228 6.69-7.238 12.182l67.02 123.102-67.02 123.102c-2.99 5.492.985 12.182 7.238 12.182h40.834c3.773-.001 7.244-2.063 9.048-5.376z" fill="#f4d8a5"/><path d="m482.52 174.829h-13.186l-68.234 125.333c-3.378 6.205-3.378 13.699 0 19.904l68.234 125.333h13.186c6.253 0 10.228-6.69 7.238-12.182l-67.02-123.102 67.02-123.102c2.99-5.493-.985-12.184-7.238-12.184z" fill="#f1cb86"/><path d="m116.553 85.932c-6.328 0-12.238 1.812-17.249 4.937v-7.617c0-4.267-3.459-7.726-7.726-7.726s-7.726 3.459-7.726 7.726v70.764c0 4.267 3.459 7.726 7.726 7.726s7.726-3.459 7.726-7.726v-34.688-.694c0-9.512 7.738-17.25 17.249-17.25 9.512 0 17.249 7.738 17.249 17.25v35.382c0 4.267 3.459 7.726 7.726 7.726s7.726-3.459 7.726-7.726v-35.382c.001-18.032-14.669-32.702-32.701-32.702z" fill="#e28086"/></svg>
