<svg xmlns="http://www.w3.org/2000/svg" xmlns:xlink="http://www.w3.org/1999/xlink" width="424.69pt" height="248.365pt" viewBox="0 0 424.69 248.365"><defs><path id="a" d="m3.04688-2.28125.85937.875L7.5625-5.07812l3.65625 3.67187.85938-.875-3.65625-3.64062 3.65625-3.67188-.85938-.84375L7.5625-6.79687 3.90625-10.4375l-.85937.84375 3.65625 3.67188Zm0 0"/><path id="b" d="M1.71875-3.59375c0 2.82813 2.07813 3.90625 5.125 3.90625 2.85938 0 5.46875-.60937 6.64063-5.5l1.78125-7.60937c.1875-.70313.35937-1 .90625-1.04688l1.15624-.09375.14063-.59375h-5.75l-.15625.59375 1.23438.09375c.34375.03125.53125.20313.53125.57813 0 .14062-.03125.29687-.0625.46875L11.5625-5.45312C10.90625-2.65625 9.89063-.42187 6.95313-.42187c-1.85938 0-3.15625-.8125-3.15625-3.14063 0-.57812.09375-1.29687.26562-2.09375L5.75-12.79687c.17188-.70313.32813-1 .875-1.04688l1.15625-.09375.14063-.59375h-5.75l-.15625.59375 1.25.09375c.35937.03125.51562.20313.51562.5625 0 .14063-.03125.29688-.0625.48438L1.9375-5.39062c-.15625.67187-.21875 1.25-.21875 1.79687m0 0"/><path id="c" d="M0 0h5.75l.125-.60937-1.25-.10938c-.35937-.01562-.53125-.17187-.53125-.51562 0-.125.04688-.3125.09375-.51563l1.14063-5.09375h1.26562c2.03125 0 2.32813.5 2.32813 2.95313 0 2.54687 0 3.89062 2.21875 3.89062h1.625l.20312-.60937C11.5-.8125 10.98438-.875 10.98438-3.57812c0-2.14063-.1875-3.0625-1.92188-3.64063 2.5625-.35937 4.3125-1.85937 4.3125-3.9375 0-1.5-.65625-3.375-4.59375-3.375H3.125l-.15625.59375 1.25.09375c.35938.03125.51563.20313.51563.5625 0 .14063-.01563.29688-.0625.48438L2.14063-1.75c-.17188.75-.35938.96875-.85938 1.01563l-1.17187.125Zm5.5-7.57812 1.23438-5.4375c.15625-.59375.21875-.79688 1.8125-.79688 1.35937 0 2.625.59375 2.625 2.4375 0 2.5-1.625 3.79688-4.32813 3.79688Zm0 0"/><path id="d" d="M.67188-1.40625C1.5-.3125 3.51563.3125 5.04688.3125 9.125.26563 10.375-2.07812 10.375-4.34375c0-1.89062-1.03125-3.07812-3.15625-4.17187C6-9.14062 4.51563-9.85937 4.51563-11.45312c0-1.5 1.09375-2.67188 2.9375-2.67188 2.10937 0 2.51562.98438 2.51562 3.28125h.625l.75-2.95312C10.4375-14.51562 8.875-14.875 7.57813-14.875c-3.67188 0-4.82813 2.42188-4.82813 4.1875 0 1.96875 1.34375 3 3.04688 3.82813C7.46875-6.01562 8.5-5.14062 8.5-3.46875c0 1.75-1.40625 3.04688-3.17187 3.04688-2.82813 0-3.35938-2.17188-3.5-4.20313h-.625Zm0 0"/><path id="e" d="M1.14063 0h3.57812v-.34375l-.8125-.0625C3.67188-.4375 3.5625-.51562 3.5625-.89062v-6.1875l-.07812-.0625-2.32813.375v.3125L2-6.32812c.21875.03125.29688.10937.29688.45312v4.98438c0 .375-.10938.45312-.35938.48437l-.79687.0625Zm0 0"/><path id="f" d="M.40625-3.51562C.40625-1.48437 1.04688.125 2.875.125c1.84375 0 2.46875-1.60937 2.46875-3.64062 0-2.01563-.625-3.625-2.46875-3.625-1.82812 0-2.46875 1.60937-2.46875 3.625m1.34375 0c0-1.46875.1875-3.20313 1.125-3.20313.95313 0 1.14063 1.73438 1.14063 3.20313 0 1.48437-.1875 3.21875-1.14063 3.21875-.9375 0-1.125-1.73438-1.125-3.21875m0 0"/><path id="g" d="M.39063-5.6875c0 .79688.64062 1.4375 1.4375 1.4375.78125 0 1.46875-.64062 1.46875-1.4375 0-.78125-.6875-1.45312-1.46875-1.45312-.79688 0-1.4375.67187-1.4375 1.45312m.59375 0c0-.53125.40625-.95312.84375-.95312.46875 0 .875.42187.875.95312 0 .54688-.42188.9375-.875.9375s-.84375-.39062-.84375-.9375m0 0"/></defs><path fill="none" stroke="#000" stroke-miterlimit="10" stroke-width=".39748" d="m32.59764 217.5352 78.87502-187.6524L397.086 43.87891"/><use xlink:href="#a" x="25.03989" y="222.75448"/><use xlink:href="#b" x="7.83887" y="239.96647"/><use xlink:href="#a" x="103.91622" y="35.10525"/><use xlink:href="#c" x="89.08614" y="21.98479"/><use xlink:href="#a" x="389.526" y="49.09947"/><use xlink:href="#d" x="404.98248" y="35.66681"/><path fill="none" stroke="#000" stroke-miterlimit="10" stroke-width=".39748" d="M104.07812 47.47657c6.28516 2.64453 13.50391 1.73046 18.9336-2.39063 4.49219-3.41016 7.25-8.63281 7.52344-14.26953"/><use xlink:href="#e" x="117.2631" y="59.23455"/><use xlink:href="#e" x="123.02048" y="59.23455"/><use xlink:href="#f" x="128.77787" y="59.23455"/><use xlink:href="#g" x="134.53525" y="59.23455"/></svg>