<svg xmlns="http://www.w3.org/2000/svg" xmlns:xlink="http://www.w3.org/1999/xlink" width="247.28pt" height="176.963pt" viewBox="0 0 247.28 176.963"><defs><path id="a" d="m1.75-1.3125.51563.5 2.09375-2.125 2.125 2.125.48437-.5-2.10937-2.10937 2.10937-2.10938-.48437-.5-2.125 2.10938-2.09375-2.10938-.51563.5 2.125 2.10938Zm0 0"/><path id="b" d="M1-2.07812C1-.4375 2.1875.1875 3.95313.1875 5.59375.1875 7.10938-.17187 7.78125-3L8.8125-7.375c.10938-.42187.20313-.59375.51563-.60937L10-8.04687l.07813-.34375h-3.3125l-.09375.34375.70312.0625c.21875.01562.3125.10937.3125.32812 0 .07813-.01562.17188-.03125.28125l-.98437 4.21875C6.29688-1.53125 5.70313-.25 4.01563-.25 2.9375-.25 2.1875-.70312 2.1875-2.04687c0-.34375.0625-.75.15625-1.21875L3.3125-7.375c.10938-.42187.20313-.59375.5-.60937l.67188-.0625.07812-.34375H1.25l-.09375.34375.73438.0625c.20312.01562.29687.10937.29687.3125 0 .07812-.01562.17187-.04687.29687L1.125-3.10937C1.03125-2.71875 1-2.39062 1-2.07812m0 0"/><path id="c" d="M0 0h3.3125l.07813-.34375-.71875-.0625c-.20313-.01562-.3125-.10937-.3125-.29687 0-.07813.03125-.1875.04687-.29688l.67188-2.95312h.73437c1.17188 0 1.34375.28125 1.34375 1.70312 0 1.46875 0 2.25 1.26563 2.25H7.375l.10938-.34375C6.64063-.46875 6.34375-.5 6.34375-2.0625c0-1.23437-.10937-1.76562-1.10937-2.10937C6.71875-4.375 7.71875-5.23437 7.71875-6.4375c0-.875-.375-1.95312-2.64062-1.95312H1.8125l-.09375.34375.71875.0625c.20313.01562.29688.10937.29688.3125 0 .07812-.01563.17187-.03125.29687L1.23438-1c-.09376.42188-.20313.54688-.5.57813L.0625-.34375Zm3.17188-4.375.71875-3.14062c.07812-.34375.125-.45313 1.04687-.45313.78125 0 1.51563.34375 1.51563 1.40625 0 1.4375-.9375 2.1875-2.5 2.1875Zm0 0"/><path id="d" d="M.39063-.8125c.46875.625 1.64062 1 2.53125 1C5.26563.15625 5.98438-1.20312 5.98438-2.5c0-1.09375-.59375-1.78125-1.8125-2.42187-.71875-.35938-1.5625-.76563-1.5625-1.6875 0-.85938.625-1.54688 1.6875-1.54688 1.23437 0 1.45312.5625 1.45312 1.89063h.375l.42188-1.70313C6.03125-8.375 5.125-8.57812 4.375-8.57812c-2.10937 0-2.78125 1.39062-2.78125 2.40625 0 1.14062.76563 1.73437 1.75 2.20312.96875.5 1.5625 1 1.5625 1.96875 0 1-.8125 1.75-1.82812 1.75-1.625 0-1.9375-1.25-2.01563-2.42187H.70313Zm0 0"/><path id="i" d="M1.04688-3.42187c0 2.73437.625 5.75 3.1875 5.84375V2.0625C3.375 1.89063 2.01563.82813 2.01563-3.42187c0-4.21875 1.28125-5.29688 2.21875-5.48438v-.35937c-2.5625.10937-3.1875 3.10937-3.1875 5.84375m0 0"/><path id="j" d="M.90625-1.45312c0 .78125.23438 1.59375 1.20313 1.59375 1.40625 0 2.48437-1.48438 3.1875-2.78125h.03125l-.39063 1.4375c-.07812.25-.10937.46875-.10937.64062 0 .45313.20312.70313.625.70313.96875 0 1.59375-.82813 2-1.73438l-.28125-.17187c-.21875.42187-.75 1.28125-1.09375 1.28125-.14063 0-.1875-.09375-.1875-.23438 0-.125.03125-.26562.07812-.4375L7.875-8.9375 7.8125-9l-2.15625.28125-.0625.29688.71875.0625c.1875.01562.26563.0625.26563.20312 0 .0625-.01563.17188-.04688.29688L6.0625-5.90625l-.01562.01563C5.8125-6 5.4375-6.09375 5.01563-6.09375 2.1875-6.09375.90625-2.9375.90625-1.45312m1.20313.09374c0-1.3125 1.04687-4.3125 2.98437-4.3125.375 0 .70313.125.84375.25-.1875.9375-.57812 2.07813-1.20312 3.07813-.57813.95313-1.375 1.85938-2.03125 1.85938-.375 0-.59375-.32813-.59375-.875m0 0"/><path id="l" d="M.71875 2.0625v.35938c2.57813-.09375 3.1875-3.10938 3.1875-5.84375S3.29688-9.15625.71875-9.26562v.35937c.9375.1875 2.21875 1.26563 2.21875 5.48438 0 4.25-1.34375 5.3125-2.21875 5.48437m0 0"/><path id="e" d="M.65625 0h2.0625v-.20312l-.45312-.03126C2.125-.25 2.0625-.29687 2.0625-.51561v-3.5625L2.01563-4.125l-1.34375.21875v.17188l.48437.07812c.125.01563.17188.0625.17188.26563v2.875c0 .21874-.0625.26562-.20313.28124l-.46875.03126Zm0 0"/><path id="f" d="M.23438-2.03125c0 1.17188.375 2.10938 1.4375 2.10938 1.04687 0 1.42187-.9375 1.42187-2.10938 0-1.15625-.375-2.09375-1.42187-2.09375-1.0625 0-1.4375.9375-1.4375 2.09375m.76562 0c0-.84375.125-1.85937.67188-1.85937.53125 0 .65625 1.01562.65625 1.85937 0 .85938-.125 1.85938-.65625 1.85938-.54688 0-.67188-1-.67188-1.85938m0 0"/><path id="g" d="M.21875-3.28125c0 .45313.375.82813.84375.82813.45313 0 .84375-.375.84375-.82813 0-.45312-.39062-.84375-.84375-.84375-.46875 0-.84375.39063-.84375.84375m.34375 0c0-.3125.23438-.54687.5-.54687.26563 0 .5.23437.5.54687s-.25.53125-.5.53125c-.26562 0-.5-.21875-.5-.53125m0 0"/><path id="k" d="M.92188 0h2.84375v-.26562l-.67188-.0625c-.1875-.01563-.28125-.07813-.28125-.39063v-5.01562l-.04687-.04688-1.82813.3125V-5.25l.73438.10938c.15624.01562.20312.07812.20312.34375v4.07812c0 .3125-.07812.375-.28125.39063l-.67187.0625Zm0 0"/><clipPath id="h"><path d="M170 .23828h76V162h-76Zm0 0"/></clipPath></defs><path fill="none" stroke="#000" stroke-miterlimit="10" stroke-width=".39734" d="M19.76561 125.91409 65.33594 17.5l165.01175 8.08594"/><use xlink:href="#a" x="15.40116" y="128.92873"/><use xlink:href="#b" x="4.30447" y="138.86979"/><use xlink:href="#a" x="60.97147" y="20.5144"/><use xlink:href="#c" x="52.25086" y="12.93646"/><use xlink:href="#a" x="225.98201" y="28.59986"/><use xlink:href="#d" x="234.91002" y="20.84145"/><path fill="#66b2b2" d="M65.33594 17.5 61.0664 27.66016c3.6289 1.52734 7.79687 1 10.93359-1.38282 2.59766-1.96875 4.1875-4.98437 4.34766-8.23828Zm0 0"/><path fill="none" stroke="#000" stroke-miterlimit="10" stroke-width=".39734" d="M61.0664 27.66016c3.62891 1.52734 7.79688 1 10.9336-1.38281 2.59766-1.96875 4.1875-4.98438 4.34766-8.23829"/><use xlink:href="#e" x="71.03018" y="38.18196"/><use xlink:href="#e" x="74.35549" y="38.18196"/><use xlink:href="#f" x="77.68081" y="38.18196"/><use xlink:href="#g" x="81.00612" y="38.18196"/><g clip-path="url(#h)"><path fill="none" stroke="#000" stroke-miterlimit="10" stroke-width=".39734" d="M176.1055 155.68363 239.39065 3.90234"/></g><use xlink:href="#i" x="165.06438" y="169.54248"/><use xlink:href="#j" x="170.0233" y="169.54248"/><use xlink:href="#k" x="176.86782" y="172.3838"/><use xlink:href="#l" x="182.22512" y="169.54248"/></svg>