<svg xmlns="http://www.w3.org/2000/svg" xmlns:xlink="http://www.w3.org/1999/xlink" width="144.923pt" height="71.855pt" viewBox="0 0 144.923 71.855"><defs><path id="a" d="M-.23437 0H2.5l.07813-.34375-.67188-.0625C1.75-.42187 1.6875-.5 1.6875-.625c0-.0625.03125-.15625.0625-.23437.40625-.78125.79688-1.5625 1.25-2.39063h2.71875l.29688 2.51563s-.0625.29687-.3125.32812l-.65625.0625L4.98438 0h2.98437l.07813-.34375-.46875-.04687c-.375-.03125-.42188-.20313-.48438-.70313l-.89062-7.3125h-.85938L3.29688-4.8125c-.625 1.07813-1.625 2.89063-2.07813 3.60938C.82813-.5625.625-.4375.25-.40625l-.40625.0625ZM3.25-3.70312l1.96875-3.57813.4375 3.57813Zm0 0"/><path id="b" d="M0 0h3.6875c2.92188 0 3.51563-1.51562 3.51563-2.51562 0-1.28125-.9375-1.84375-1.82813-2l.01563-.03125C7-4.75 7.6875-5.65625 7.6875-6.57812c0-.98438-.57812-1.82813-2.8125-1.82813H1.79688l-.07813.35938.71875.0625c.21875.01562.29688.10937.29688.29687 0 .07813-.01563.1875-.04688.29688L1.25-1.01562c-.09375.40625-.20312.54687-.5.59375l-.6875.07812Zm2.42188-.9375c0-.07812.01562-.17187.04687-.26562l.70313-3.10938h.46875c1.20312 0 2.26562.34375 2.26562 1.73438C5.90625-1.5 5.25-.42187 3.625-.42187c-.96875 0-1.20312-.20313-1.20312-.51563M3.25-4.75l.64063-2.8125c.09375-.35937.15625-.42187.96875-.42187 1.01562 0 1.59375.51562 1.59375 1.375 0 1.26562-1.0625 1.85937-2.40625 1.85937Zm0 0"/><path id="c" d="M.64063-3.32812c0 1.59375.78125 3.51562 3.79687 3.51562.85938 0 1.6875-.125 2.46875-.51562L7.5-2.26562h-.35937C6.45313-1.04687 5.85938-.25 4.35938-.25c-1.40625 0-2.42188-.90625-2.42188-2.78125 0-1.09375.28125-2.4375.85938-3.40625.60937-1.01562 1.57812-1.73437 2.875-1.73437 1.53125 0 1.98437.71875 1.98437 2.04687h.375l.4375-1.82812c-.70312-.4375-1.84375-.64063-2.6875-.64063-2.29687 0-3.60937 1.07813-4.32812 2.20313-.67188 1.09375-.8125 2.21875-.8125 3.0625m0 0"/><path id="d" d="M0 0h3.71875C6.15625 0 7.5625-.875 8.4375-2.20312 9.14063-3.25 9.25-4.26562 9.25-4.98437c0-.98438-.34375-1.96875-1.04687-2.54688-.70313-.59375-1.79688-.875-3.14063-.875H1.79688l-.07813.35938L2.4375-8c.21875.01563.28125.125.28125.3125 0 .07813 0 .1875-.03125.29688l-1.45312 6.375c-.07813.40625-.1875.5625-.48438.59375l-.6875.07812Zm2.40625-.89062c0-.04688 0-.10938.01563-.15626L3.875-7.53124c.10938-.42187.26563-.45312 1.32813-.45312 2.53125.04687 2.75 1.75 2.75 2.71875 0 1.04687-.25 2.03125-.79688 2.9375-.70312 1.14062-1.73437 1.90625-3.75 1.90625-.59375 0-1-.07813-1-.46875m0 0"/><path id="e" d="M.39063-3.28125c0 2 1.14062 3.46875 3.5625 3.46875 2.14062 0 3.1875-1.10937 3.85937-2.3125.67188-1.1875.78125-2.42187.78125-2.90625 0-2.48437-1.51562-3.5625-3.51562-3.5625-1.9375 0-3.14063 1.07813-3.84375 2.23438C.5625-5.23437.39063-4.07812.39063-3.28125m1.28125.48438c0-1.01563.1875-2.15625.75-3.32813.54687-1.15625 1.42187-2.04687 2.70312-2.04687 1.32813 0 2.1875.79687 2.1875 2.51562 0 .6875-.0625 1.6875-.5625 2.98438C6.23438-1.375 5.42188-.25 3.84375-.25c-1.32812 0-2.17187-.84375-2.17187-2.54687m0 0"/></defs><path fill="none" stroke="#000" stroke-miterlimit="10" stroke-width=".3977" d="M17.32031 54.4336h73.55077l36.77734-36.77735H54.09375Zm0 0 110.35155-36.78516M90.88671 54.4336 54.10156 17.64843"/><use xlink:href="#a" x="4.41581" y="67.40199"/><use xlink:href="#b" x="95.45211" y="67.40199"/><use xlink:href="#c" x="132.23588" y="12.90396"/><use xlink:href="#d" x="40.02296" y="13.0846"/><use xlink:href="#e" x="68.0025" y="31.29485"/></svg>