<svg xmlns="http://www.w3.org/2000/svg" xmlns:xlink="http://www.w3.org/1999/xlink" width="142.131pt" height="122.334pt" viewBox="0 0 142.131 122.334"><defs><clipPath id="a"><path d="M0 .03906h141.26563V112H0Zm0 0"/></clipPath><clipPath id="b"><path d="M88 .03906h1V107h-1Zm0 0"/></clipPath><clipPath id="c"><path d="M35 105h106.26563v2H35Zm0 0"/></clipPath><path id="d" d="M.28125-1.0625C.28125-.625 1 .125 2.48438.125 4 .125 4.95313-.64062 4.95313-1.98437c0-1.40625-1.20313-1.8125-1.78125-1.875v-.04688c.57812-.07812 1.46875-.5 1.46875-1.54687C4.64063-6.60937 3.75-7.125 2.625-7.125c-1.39062 0-2.0625.8125-2.0625 1.25 0 .32813.35938.5.5.5s.21875-.07812.26563-.20312C1.5625-6.29687 1.95313-6.75 2.54688-6.75c.8125 0 1.03125.71875 1.03125 1.3125 0 .625-.21875 1.42188-1.10938 1.42188-.51562 0-.79687-.10938-.92187-.10938s-.1875.10938-.1875.29688c0 .17187.0625.28125.1875.28125s.40625-.09375.92187-.09375c.89063 0 1.39063.79687 1.39063 1.71875C3.85938-.67187 3.23438-.25 2.5-.25c-.6875 0-1.15625-.5-1.35937-1.09375-.0625-.20312-.15626-.3125-.3125-.3125-.1875 0-.54688.20313-.54688.59375m0 0"/><path id="e" d="M.51563-2.51562C.51563-.76562 1.375.125 2.9375.125c.73438 0 1.73438-.375 2.01563-1.5l-.3125-.15625c-.3125.73438-.73438 1.10938-1.5 1.10938-1.25 0-1.53125-1.3125-1.53125-2.28125 0-1.5625.60937-2.1875 1.32812-2.1875.48438 0 .78125.34375 1 .90625.0625.17187.125.28125.32813.28125.21875 0 .60937-.14063.60937-.54688 0-.46875-.6875-1.01562-1.82812-1.01562-1.90625 0-2.53125 1.35937-2.53125 2.75m0 0"/><path id="f" d="M.32813 0h2.5625v-.29687c-.75-.0625-.78125-.07813-.78125-.60938v-2.45312c0-.26563 0-.42188.07812-.5625.20313-.42188.65625-.76563 1.23438-.76563.90625 0 1.01562.65625 1.01562 1.29688v2.48437c0 .53125-.03125.54688-.79687.60938V0H6.1875v-.29687c-.73437-.0625-.76562-.07813-.76562-.60938v-2.45312c0-.26563 0-.40625.07812-.57813.14063-.42187.59375-.75 1.1875-.75.65625 0 1.0625.35938 1.0625 1.29688v2.48437c0 .53125-.04687.54688-.79687.60938V0h2.5625v-.29687c-.75-.0625-.79688-.07813-.79688-.60938v-2.6875c0-1.04687-.5625-1.67187-1.5625-1.67187-.84375 0-1.46875.57812-1.82812.8125-.26563-.5-.65625-.8125-1.39063-.8125-.8125 0-1.46875.54687-1.82812.8125L2-5.26562l-1.60937.28125v.25l.39062.0625c.26563.03125.34375.07812.34375.45312v3.3125c0 .53125-.03125.54688-.79687.60938Zm0 0"/></defs><path fill="none" stroke="red" stroke-miterlimit="10" stroke-width=".39608" d="M88.24218 105.89063v-7.04297h7.04297v7.04297h-7.04297"/><g clip-path="url(#a)"><path fill="none" stroke="#000" stroke-miterlimit="10" stroke-width=".39608" d="M35.41406 105.89063H141.0703L105.85156.23829H.19922Zm0 0"/></g><g clip-path="url(#b)"><path fill="none" stroke="#007F7F" stroke-miterlimit="10" stroke-width=".39608" d="M88.24218.23829v105.65234"/></g><g clip-path="url(#c)"><path fill="none" stroke="#FF7F00" stroke-miterlimit="10" stroke-width=".39608" d="M35.41406 105.89063H141.0703"/></g><use xlink:href="#d" x="61.12229" y="56.56315" fill="#007F7F"/><g fill="#007F7F"><use xlink:href="#e" x="69.02026" y="56.56315"/><use xlink:href="#f" x="74.21143" y="56.56315"/></g><use xlink:href="#d" x="76.86902" y="117.38329" fill="#FF7F00"/><g fill="#FF7F00"><use xlink:href="#e" x="84.76698" y="117.38329"/><use xlink:href="#f" x="89.95816" y="117.38329"/></g></svg>