<svg xmlns="http://www.w3.org/2000/svg" xmlns:xlink="http://www.w3.org/1999/xlink" width="255.496" height="220.042" viewBox="0 0 255.496 220.042"><defs><path id="c" d="M.5-1.92187C.5-1.125 1.8125.21875 4.48438.21875c2.73437 0 4.45312-1.39062 4.45312-3.79687 0-2.53125-2.17187-3.28125-3.20312-3.375v-.07813C6.75-7.1875 8.375-7.95312 8.375-9.82812c0-2.09375-1.625-3.01563-3.65625-3.01563-2.48437 0-3.71875 1.45313-3.71875 2.25 0 .59375.67188.90625.92188.90625s.39062-.14062.46875-.375c.42187-1.29687 1.125-2.10937 2.1875-2.10937 1.48437 0 1.875 1.29687 1.875 2.35937 0 1.125-.40625 2.5625-2.01563 2.5625-.90625 0-1.42187-.1875-1.64062-.1875-.25 0-.34375.1875-.34375.53125 0 .3125.09375.51563.34375.51563.21875 0 .73437-.1875 1.64062-.1875 1.60938 0 2.51563 1.45312 2.51563 3.10937 0 2.25-1.10938 3.03125-2.45313 3.03125-1.25 0-2.0625-.92187-2.4375-2-.10937-.35937-.29687-.53125-.5625-.53125-.32812 0-1 .35938-1 1.04688m0 0"/><path id="d" d="M.92188-4.54687c0 3.15625 1.54687 4.76562 4.39062 4.76562 1.3125 0 3.10938-.6875 3.625-2.70312L8.375-2.75C7.79688-1.42187 7.04688-.76562 5.67188-.76562c-2.25 0-2.78125-2.34375-2.78125-4.10938C2.89063-7.70312 4-8.82812 5.3125-8.82812c.85938 0 1.40625.625 1.78125 1.65625.125.29687.23438.48437.60938.48437s1.09375-.25 1.09375-.96875c0-.85937-1.23438-1.82812-3.29688-1.82812-3.4375 0-4.57812 2.4375-4.57812 4.9375m0 0"/><path id="e" d="M.60938 0h4.59375v-.54687C3.85938-.64063 3.79688-.6875 3.79688-1.64062V-6.0625c0-.48437 0-.75.14062-1.01562.35938-.76563 1.1875-1.375 2.23438-1.375C7.79688-8.45312 8-7.28125 8-6.10937v4.46875c0 .95312-.0625 1-1.42187 1.09375V0h4.59375v-.54687C9.82813-.64063 9.76563-.6875 9.76563-1.64062V-6.0625c0-.48437.01562-.73437.14062-1.03125.28125-.76562 1.07813-1.35937 2.15625-1.35937 1.17188 0 1.90625.65625 1.90625 2.34375v4.46875c0 .95312-.0625 1-1.4375 1.09375V0h4.625v-.54687c-1.34375-.09376-1.42187-.14063-1.42187-1.09375v-4.82813c0-1.90625-1.03125-3.01562-2.8125-3.01562-1.54688 0-2.65625 1.03125-3.3125 1.45312-.46875-.89062-1.1875-1.45312-2.51563-1.45312-1.45312 0-2.64062.96875-3.29687 1.45312l-.1875-1.45312L.70313-9v.45313l.70312.10937c.48438.07813.625.15625.625.84375v5.95313c0 .95312-.0625 1-1.42187 1.09375Zm0 0"/><clipPath id="a"><path d="M.30469 0H254.6914v197H.30469Zm0 0"/></clipPath><clipPath id="b"><path d="M63 190h191.6914v1H63Zm0 0"/></clipPath></defs><path fill="none" stroke="red" stroke-miterlimit="10" stroke-width=".39677" d="M159.24999 190.70703v-12.69922h12.69921v12.69922H159.25"/><g clip-path="url(#a)"><path fill="none" stroke="#000" stroke-miterlimit="10" stroke-width=".39677" d="M64.0039 190.70703h190.49216L191.0117.19534H.5Zm0 0"/></g><path fill="none" stroke="#007F7F" stroke-miterlimit="10" stroke-width=".39677" d="M159.24999.21487v190.49216"/><g clip-path="url(#b)"><path fill="none" stroke="#FF7F00" stroke-miterlimit="10" stroke-width=".39677" d="M64.0039 190.70703h190.49216"/></g><use xlink:href="#c" x="110.34576" y="101.77092" fill="#007F7F"/><g fill="#007F7F"><use xlink:href="#d" x="124.58701" y="101.77092"/><use xlink:href="#e" x="133.94751" y="101.77092"/></g><use xlink:href="#c" x="138.74014" y="211.4285" fill="#FF7F00"/><g fill="#FF7F00"><use xlink:href="#d" x="152.98139" y="211.4285"/><use xlink:href="#e" x="162.34189" y="211.4285"/></g></svg>