<svg xmlns="http://www.w3.org/2000/svg" xmlns:xlink="http://www.w3.org/1999/xlink" width="235.961pt" height="170.105pt" viewBox="0 0 235.961 170.105"><defs><path id="a" d="m1.6875-1.26562.48438.48437L4.1875-2.8125 6.21875-.78125l.46875-.48437-2.01562-2.01563L6.6875-5.3125l-.46875-.46875L4.1875-3.76562 2.17188-5.78125l-.48438.46875 2.03125 2.03125Zm0 0"/><path id="b" d="M.95313-2c0 1.57813 1.15625 2.17188 2.84375 2.17188 1.57812 0 3.03125-.32813 3.67187-3.04688l1-4.21875c.09375-.39062.1875-.54687.48438-.57812l.65625-.04688.0625-.32812H6.5l-.09375.32812.6875.04688c.1875.01562.29688.10937.29688.32812 0 .07813-.01563.15625-.04688.25l-.9375 4.07813C6.04688-1.46875 5.48438-.23437 3.85938-.23437c-1.03125 0-1.75-.45313-1.75-1.73438q0-.49219.14062-1.17187l.9375-3.95313c.09375-.39062.1875-.54687.48438-.57812l.64062-.04688.07813-.32812h-3.1875l-.09376.32812.70313.04688c.1875.01562.28125.10937.28125.3125 0 .07812-.01562.15625-.03125.26562l-.98437 4.10938c-.09376.375-.125.6875-.125.98437m0 0"/><path id="c" d="M0 0h3.1875l.07813-.32812-.70313-.0625C2.35938-.40625 2.26563-.5 2.26563-.6875c0-.0625.03125-.17187.04687-.28125l.64063-2.82812h.70312c1.125 0 1.28125.28125 1.28125 1.64062C4.9375-.75 4.9375 0 6.17188 0h.90625l.10937-.32812c-.8125-.125-1.10937-.15625-1.10937-1.65625 0-1.1875-.09375-1.70313-1.0625-2.01563 1.42187-.20312 2.39062-1.03125 2.39062-2.1875 0-.82812-.35937-1.85937-2.53125-1.85937H1.73438l-.09376.32812.70313.04688c.20313.01562.28125.10937.28125.3125 0 .07812-.01562.15625-.03125.26562L1.1875-.96875c-.09375.40625-.20312.53125-.48437.5625L.0625-.32812Zm3.04688-4.20312.6875-3.01563c.07812-.32812.125-.4375 1-.4375.75 0 1.45312.32813 1.45312 1.34375 0 1.39063-.89062 2.10938-2.39062 2.10938Zm0 0"/><path id="d" d="M.375-.78125c.45313.60938 1.57813.95313 2.42188.95313C5.0625.15625 5.75-1.15625 5.75-2.40625c0-1.04687-.57812-1.70312-1.75-2.3125-.67187-.34375-1.5-.75-1.5-1.625 0-.82812.60938-1.48437 1.625-1.48437 1.17188 0 1.40625.54687 1.40625 1.8125H5.875l.40625-1.625c-.5-.40625-1.35937-.59375-2.07812-.59375-2.03125 0-2.67188 1.32812-2.67188 2.3125 0 1.09375.73438 1.65625 1.67188 2.125s1.5.95312 1.5 1.875c0 .96875-.78125 1.6875-1.75 1.6875-1.5625 0-1.85938-1.20313-1.9375-2.32813H.67188Zm0 0"/><path id="h" d="M1-3.28125c0 2.625.59375 5.51563 3.0625 5.60938v-.34375c-.82812-.15626-2.125-1.1875-2.125-5.26563 0-4.04687 1.23438-5.07812 2.125-5.26562v-.34375C1.59375-8.79687 1-5.90625 1-3.28125m0 0"/><path id="i" d="M.875-1.40625c0 .76563.21875 1.54688 1.15625 1.54688 1.34375 0 2.375-1.42188 3.0625-2.6875H5.125l-.39062 1.39062c-.0625.23438-.09375.45313-.09375.625 0 .4375.1875.67188.59375.67188.92187 0 1.53125-.79688 1.92187-1.67188l-.26562-.17187c-.21875.42187-.73438 1.23437-1.04688 1.23437-.14062 0-.1875-.09375-.1875-.21875s.03125-.25.0625-.42187L7.5625-8.59375 7.5-8.64062l-2.07812.28125-.0625.26562.70312.0625c.1875.01563.25.0625.25.20313 0 .0625 0 .15625-.04687.28125l-.4375 1.875-.03125.01562c-.21875-.10937-.57813-.1875-.98438-.1875-2.70312 0-3.9375 3.03125-3.9375 4.4375m1.14063.10938c0-1.26563 1.01562-4.14063 2.875-4.14063.35937 0 .67187.10938.8125.23438-.17188.89062-.5625 2-1.15625 2.95312-.5625.90625-1.32813 1.78125-1.9375 1.78125-.375 0-.59375-.3125-.59375-.82812m0 0"/><path id="k" d="M.6875 1.98438v.34375C3.15625 2.23438 3.75-.65625 3.75-3.28125S3.15625-8.79687.6875-8.89062v.34375c.90625.1875 2.14063 1.21875 2.14063 5.26562 0 4.07813-1.29688 5.10938-2.14063 5.26563m0 0"/><path id="e" d="M.625 0h1.98438v-.1875l-.4375-.04687c-.14063 0-.20313-.04688-.20313-.26563v-3.42187l-.03125-.03125L.64063-3.75v.17188l.46875.0625c.125.03125.17187.07812.17187.26562V-.5c0 .21875-.0625.26563-.20312.26563L.625-.1875Zm0 0"/><path id="f" d="M.23438-1.9375c0 1.10938.34375 2 1.35937 2 1.01563 0 1.375-.89062 1.375-2 0-1.125-.35937-2.01562-1.375-2.01562-1.01562 0-1.35937.89062-1.35937 2.01562m.73437 0c0-.82812.10938-1.78125.625-1.78125.51563 0 .64063.95313.64063 1.78125 0 .8125-.125 1.78125-.64063 1.78125-.51562 0-.625-.96875-.625-1.78125m0 0"/><path id="g" d="M.21875-3.15625c0 .45313.35938.8125.79688.8125s.8125-.35937.8125-.8125c0-.42187-.375-.79687-.8125-.79687s-.79688.375-.79688.79687m.32813 0c0-.29687.21874-.51562.46875-.51562.25 0 .48437.21875.48437.51562 0 .3125-.23437.53125-.48437.53125s-.46875-.21875-.46875-.53125m0 0"/><path id="j" d="M.89063 0h2.71875v-.25l-.64063-.0625c-.1875-.01562-.26562-.07812-.26562-.375V-5.5l-.0625-.04687-1.75.29687v.21875l.70312.09375c.15625.03125.20313.09375.20313.34375V-.6875c0 .29688-.07813.35938-.26563.375L.89063-.25Zm0 0"/></defs><path fill="none" stroke="#000" stroke-miterlimit="10" stroke-width=".39642" d="M18.44141 120.53905 62.15234 16.5586l158.2617 7.7539"/><use xlink:href="#a" x="14.25723" y="123.43058"/><use xlink:href="#b" x="4.72738" y="132.9674"/><use xlink:href="#a" x="57.96427" y="19.44967"/><use xlink:href="#c" x="49.7475" y="12.18091"/><use xlink:href="#a" x="216.22658" y="27.20486"/><use xlink:href="#d" x="224.79052" y="19.76202"/><path fill="none" stroke="#000" stroke-miterlimit="10" stroke-width=".39642" d="M58.05469 26.30469c3.48047 1.46484 7.48047.96093 10.48828-1.32422 2.49218-1.89063 4.01562-4.78516 4.16797-7.90625"/><use xlink:href="#e" x="65.35936" y="32.81932"/><use xlink:href="#e" x="68.54931" y="32.81932"/><use xlink:href="#f" x="71.73925" y="32.81932"/><use xlink:href="#g" x="74.92919" y="32.81932"/><path fill="none" stroke="#000" stroke-miterlimit="10" stroke-width=".39642" d="m168.39062 149.08983 60.6953-145.5742"/><use xlink:href="#h" x="157.7791" y="162.36075"/><use xlink:href="#i" x="162.53614" y="162.36075"/><use xlink:href="#j" x="169.10203" y="165.08516"/><use xlink:href="#k" x="174.24124" y="162.36075"/></svg>