<svg xmlns="http://www.w3.org/2000/svg" xmlns:xlink="http://www.w3.org/1999/xlink" width="455.724" height="306.137" viewBox="0 0 455.724 306.137"><defs><path id="a" d="m3.04688-2.28125.85937.875L7.5625-5.07812l3.65625 3.67187.85938-.875-3.65625-3.64062 3.65625-3.67188-.85938-.84375L7.5625-6.79687 3.90625-10.4375l-.85937.84375 3.65625 3.67188Zm0 0"/><path id="b" d="M1.71875-3.59375c0 2.82813 2.07813 3.90625 5.125 3.90625 2.85938 0 5.46875-.60937 6.64063-5.5l1.78125-7.60937c.1875-.70313.35937-1 .90625-1.04688l1.15624-.09375.14063-.59375h-5.75l-.15625.59375 1.23438.09375c.34375.03125.53125.20313.53125.57813 0 .14062-.03125.29687-.0625.46875L11.5625-5.45312C10.90625-2.65625 9.89063-.42187 6.95313-.42187c-1.85938 0-3.15625-.8125-3.15625-3.14063 0-.57812.09375-1.29687.26562-2.09375L5.75-12.79687c.17188-.70313.32813-1 .875-1.04688l1.15625-.09375.14063-.59375h-5.75l-.15625.59375 1.25.09375c.35937.03125.51562.20313.51562.5625 0 .14063-.03125.29688-.0625.48438L1.9375-5.39062c-.15625.67187-.21875 1.25-.21875 1.79687m0 0"/><path id="c" d="M0 0h5.75l.125-.60937-1.25-.10938c-.35937-.01562-.53125-.17187-.53125-.51562 0-.125.04688-.3125.09375-.51563l1.14063-5.09375h1.26562c2.03125 0 2.32813.5 2.32813 2.95313 0 2.54687 0 3.89062 2.21875 3.89062h1.625l.20312-.60937C11.5-.8125 10.98438-.875 10.98438-3.57812c0-2.14063-.1875-3.0625-1.92188-3.64063 2.5625-.35937 4.3125-1.85937 4.3125-3.9375 0-1.5-.65625-3.375-4.59375-3.375H3.125l-.15625.59375 1.25.09375c.35938.03125.51563.20313.51563.5625 0 .14063-.01563.29688-.0625.48438L2.14063-1.75c-.17188.75-.35938.96875-.85938 1.01563l-1.17187.125Zm5.5-7.57812 1.23438-5.4375c.15625-.59375.21875-.79688 1.8125-.79688 1.35937 0 2.625.59375 2.625 2.4375 0 2.5-1.625 3.79688-4.32813 3.79688Zm0 0"/><path id="d" d="M.67188-1.40625C1.5-.3125 3.51563.3125 5.04688.3125 9.125.26563 10.375-2.07812 10.375-4.34375c0-1.89062-1.03125-3.07812-3.15625-4.17187C6-9.14062 4.51563-9.85937 4.51563-11.45312c0-1.5 1.09375-2.67188 2.9375-2.67188 2.10937 0 2.51562.98438 2.51562 3.28125h.625l.75-2.95312C10.4375-14.51562 8.875-14.875 7.57813-14.875c-3.67188 0-4.82813 2.42188-4.82813 4.1875 0 1.96875 1.34375 3 3.04688 3.82813C7.46875-6.01562 8.5-5.14062 8.5-3.46875c0 1.75-1.40625 3.04688-3.17187 3.04688-2.82813 0-3.35938-2.17188-3.5-4.20313h-.625Zm0 0"/><path id="h" d="M1.8125-5.92187c0 4.73437 1.07813 9.95312 5.51563 10.125v-.625c-1.5-.29688-3.84375-2.14063-3.84375-9.5 0-7.3125 2.23437-9.17188 3.84375-9.5v-.625c-4.4375.17187-5.51563 5.375-5.51563 10.125m0 0"/><path id="i" d="M1.5625-2.53125C1.5625-1.15625 1.96875.25 3.67188.25c2.40625 0 4.28125-2.57812 5.51562-4.82812h.04688l-.6875 2.5c-.125.42187-.1875.79687-.1875 1.10937C8.35938-.17187 8.71875.25 9.45313.25c1.65625 0 2.75-1.4375 3.46875-3.01562l-.48438-.29688c-.39062.73438-1.32812 2.21875-1.90625 2.21875-.25 0-.32812-.15625-.32812-.40625 0-.20312.0625-.45312.125-.73437L13.64063-15.5l-.10938-.07812-3.73437.48437-.10938.5 1.25.10938c.32813.01562.46875.10937.46875.35937q0 .16406-.09375.51563l-.79687 3.375-.04688.03125c-.40625-.1875-1.0625-.34375-1.76562-.34375-4.90625 0-7.14063 5.46875-7.14063 8.01562m2.07813.1875c0-2.28125 1.84375-7.46875 5.1875-7.46875.65625 0 1.21875.20313 1.45312.42188-.3125 1.60937-1 3.59375-2.07812 5.34375-1 1.625-2.39063 3.20312-3.5 3.20312-.67188 0-1.0625-.5625-1.0625-1.5m0 0"/><path id="k" d="M1.25 3.57813v.625c4.45313-.17188 5.53125-5.39063 5.53125-10.125 0-4.75-1.07812-9.95313-5.53125-10.125v.625c1.60938.32812 3.84375 2.1875 3.84375 9.5 0 7.35937-2.34375 9.20312-3.84375 9.5m0 0"/><path id="n" d="M1.5625-11.04687h.625c.67188-2.14063 1.4375-2.76563 3.48438-2.76563H7.125L4.40625-1.70312c-.15625.65625-.375.96875-1 1.01562l-1.39062.07813L1.875 0h6.46875L8.5-.60937 6.95313-.6875c-.42188-.03125-.60938-.20312-.60938-.5625 0-.14062.03125-.26562.07813-.45312L9.14063-13.8125h1.32812c2.03125 0 2.45313.53125 2.45313 1.67188 0 .3125-.01563.67187-.0625 1.09375H13.5l.78125-3.48438H2.34375Zm0 0"/><path id="e" d="M1.14063 0h3.57812v-.34375l-.8125-.0625C3.67188-.4375 3.5625-.51562 3.5625-.89062v-6.1875l-.07812-.0625-2.32813.375v.3125L2-6.32812c.21875.03125.29688.10937.29688.45312v4.98438c0 .375-.10938.45312-.35938.48437l-.79687.0625Zm0 0"/><path id="f" d="M.40625-3.51562C.40625-1.48437 1.04688.125 2.875.125c1.84375 0 2.46875-1.60937 2.46875-3.64062 0-2.01563-.625-3.625-2.46875-3.625-1.82812 0-2.46875 1.60937-2.46875 3.625m1.34375 0c0-1.46875.1875-3.20313 1.125-3.20313.95313 0 1.14063 1.73438 1.14063 3.20313 0 1.48437-.1875 3.21875-1.14063 3.21875-.9375 0-1.125-1.73438-1.125-3.21875m0 0"/><path id="g" d="M.39063-5.6875c0 .79688.64062 1.4375 1.4375 1.4375.78125 0 1.46875-.64062 1.46875-1.4375 0-.78125-.6875-1.45312-1.46875-1.45312-.79688 0-1.4375.67187-1.4375 1.45312m.59375 0c0-.53125.40625-.95312.84375-.95312.46875 0 .875.42187.875.95312 0 .54688-.42188.9375-.875.9375s-.84375-.39062-.84375-.9375m0 0"/><path id="j" d="M1.59375 0h4.92188v-.45312L5.34375-.5625c-.32812-.03125-.48437-.14062-.48437-.6875v-8.67187L4.76563-10l-3.15625.53125v.39063l1.26562.17187c.28125.04688.375.15625.375.60938V-1.25c0 .54688-.14062.65625-.48437.6875l-1.17188.10938Zm0 0"/><path id="m" d="M.42188-.17187.59375 0H6.8125l.53125-2.09375-.4375-.07812c-.34375.78125-.60937.89062-1.20312.89062h-3.75c.23437-.70312 1.01562-1.6875 2.4375-2.64062 1.48437-1 2.54687-1.6875 2.54687-3.29688C6.9375-9.28125 5.54688-10 3.92188-10c-2 0-3.14063 1.15625-3.14063 2.04688 0 .54687.60938.79687.92188.79687.28124 0 .42187-.15625.48437-.4375.23438-1.04687.78125-1.85937 1.64063-1.85937 1.03125 0 1.35937.89062 1.35937 1.96875 0 1.42187-.64062 2.35937-2.01562 3.54687-1.875 1.60938-2.53125 2.67188-2.75 3.76563m0 0"/><clipPath id="l"><path d="M.5039 209H407v31H.5039Zm0 0"/></clipPath></defs><path fill="none" stroke="#000" stroke-miterlimit="10" stroke-width=".39738" d="M57.93359 217.48048 136.78906 29.875l285.53909 13.99219"/><use xlink:href="#a" x="50.37932" y="222.69722"/><use xlink:href="#b" x="33.1838" y="239.90371"/><use xlink:href="#a" x="129.23603" y="35.09606"/><use xlink:href="#c" x="114.40882" y="21.98004"/><use xlink:href="#a" x="414.77011" y="49.08662"/><use xlink:href="#d" x="430.22255" y="35.65748"/><path fill="none" stroke="#000" stroke-miterlimit="10" stroke-width=".39738" d="M129.39844 47.46484c6.28125 2.64063 13.5 1.73047 18.92969-2.39062 4.48828-3.41016 7.24218-8.63281 7.51953-14.26563"/><use xlink:href="#e" x="142.57941" y="59.21906"/><use xlink:href="#e" x="148.33529" y="59.21906"/><use xlink:href="#f" x="154.09117" y="59.21906"/><use xlink:href="#g" x="159.84705" y="59.21906"/><path fill="none" stroke="#000" stroke-miterlimit="10" stroke-width=".39738" d="M328.46486 268.9922 437.97268 6.34765"/><use xlink:href="#h" x="309.29644" y="292.90829"/><use xlink:href="#i" x="317.87996" y="292.90829"/><use xlink:href="#j" x="329.72734" y="297.82643"/><use xlink:href="#k" x="339.00045" y="292.90829"/><g clip-path="url(#l)"><path fill="none" stroke="#000" stroke-miterlimit="10" stroke-width=".39738" d="M401.33986 234.26955.69921 214.6797"/></g><use xlink:href="#h" x="409.20679" y="239.80998"/><use xlink:href="#i" x="417.79031" y="239.80998"/><use xlink:href="#m" x="429.63769" y="244.72811"/><use xlink:href="#k" x="438.91305" y="239.80998"/><use xlink:href="#a" x="336.54961" y="236.68778"/><use xlink:href="#n" x="322.59495" y="223.57075"/></svg>