<svg xmlns="http://www.w3.org/2000/svg" xmlns:xlink="http://www.w3.org/1999/xlink" width="245.441pt" height="143.533pt" viewBox="0 0 245.441 143.533"><defs><path id="a" d="m1.75-1.3125.51563.5 2.09375-2.125 2.125 2.125.48437-.5-2.10937-2.10937 2.10937-2.10938-.48437-.5-2.125 2.10938-2.09375-2.10938-.51563.5 2.125 2.10938Zm0 0"/><path id="b" d="M1-2.07812C1-.4375 2.1875.1875 3.95313.1875 5.59375.1875 7.10938-.17187 7.78125-3L8.8125-7.375c.10938-.42187.20313-.59375.51563-.60937L10-8.04687l.07813-.34375h-3.3125l-.09375.34375.70312.0625c.21875.01562.3125.10937.3125.32812 0 .07813-.01562.17188-.03125.28125l-.98437 4.21875C6.29688-1.53125 5.70313-.25 4.01563-.25 2.9375-.25 2.1875-.70312 2.1875-2.04687c0-.34375.0625-.75.15625-1.21875L3.3125-7.375c.10938-.42187.20313-.59375.5-.60937l.67188-.0625.07812-.34375H1.25l-.09375.34375.73438.0625c.20312.01562.29687.10937.29687.3125 0 .07812-.01562.17187-.04687.29687L1.125-3.10937C1.03125-2.71875 1-2.39062 1-2.07812m0 0"/><path id="c" d="M0 0h3.3125l.07813-.34375-.71875-.0625c-.20313-.01562-.3125-.10937-.3125-.29687 0-.07813.03125-.1875.04687-.29688l.67188-2.95312h.73437c1.17188 0 1.34375.28125 1.34375 1.70312 0 1.46875 0 2.25 1.26563 2.25H7.375l.10938-.34375C6.64063-.46875 6.34375-.5 6.34375-2.0625c0-1.23437-.10937-1.76562-1.10937-2.10937C6.71875-4.375 7.71875-5.23437 7.71875-6.4375c0-.875-.375-1.95312-2.64062-1.95312H1.8125l-.09375.34375.71875.0625c.20313.01562.29688.10937.29688.3125 0 .07812-.01563.17187-.03125.29687L1.23438-1c-.09376.42188-.20313.54688-.5.57813L.0625-.34375Zm3.17188-4.375.71875-3.14062c.07812-.34375.125-.45313 1.04687-.45313.78125 0 1.51563.34375 1.51563 1.40625 0 1.4375-.9375 2.1875-2.5 2.1875Zm0 0"/><path id="d" d="M.39063-.8125c.46875.625 1.64062 1 2.53125 1C5.26563.15625 5.98438-1.20312 5.98438-2.5c0-1.09375-.59375-1.78125-1.8125-2.42187-.71875-.35938-1.5625-.76563-1.5625-1.6875 0-.85938.625-1.54688 1.6875-1.54688 1.23437 0 1.45312.5625 1.45312 1.89063h.375l.42188-1.70313C6.03125-8.375 5.125-8.57812 4.375-8.57812c-2.10937 0-2.78125 1.39062-2.78125 2.40625 0 1.14062.76563 1.73437 1.75 2.20312.96875.5 1.5625 1 1.5625 1.96875 0 1-.8125 1.75-1.82812 1.75-1.625 0-1.9375-1.25-2.01563-2.42187H.70313Zm0 0"/><path id="e" d="M.65625 0h2.0625v-.20312l-.45312-.03126C2.125-.25 2.0625-.29687 2.0625-.51561v-3.5625L2.01563-4.125l-1.34375.21875v.17188l.48437.07812c.125.01563.17188.0625.17188.26563v2.875c0 .21874-.0625.26562-.20313.28124l-.46875.03126Zm0 0"/><path id="f" d="M.23438-2.03125c0 1.17188.375 2.10938 1.4375 2.10938 1.04687 0 1.42187-.9375 1.42187-2.10938 0-1.15625-.375-2.09375-1.42187-2.09375-1.0625 0-1.4375.9375-1.4375 2.09375m.76562 0c0-.84375.125-1.85937.67188-1.85937.53125 0 .65625 1.01562.65625 1.85937 0 .85938-.125 1.85938-.65625 1.85938-.54688 0-.67188-1-.67188-1.85938m0 0"/><path id="g" d="M.21875-3.28125c0 .45313.375.82813.84375.82813.45313 0 .84375-.375.84375-.82813 0-.45312-.39062-.84375-.84375-.84375-.46875 0-.84375.39063-.84375.84375m.34375 0c0-.3125.23438-.54687.5-.54687.26563 0 .5.23437.5.54687s-.25.53125-.5.53125c-.26562 0-.5-.21875-.5-.53125m0 0"/></defs><path fill="none" stroke="#000" stroke-miterlimit="10" stroke-width=".39721" d="M18.71484 125.63282 64.27344 17.2539l164.95313 8.08203"/><use xlink:href="#a" x="14.35309" y="128.64643"/><use xlink:href="#b" x="4.4224" y="138.5841"/><use xlink:href="#a" x="59.90886" y="20.26905"/><use xlink:href="#c" x="51.34573" y="12.6937"/><use xlink:href="#a" x="224.86317" y="28.35176"/><use xlink:href="#d" x="233.78713" y="20.59599"/><path fill="#66b2b2" d="M64.27344 17.2539 60.0039 27.41407c3.625 1.52344 7.79297.9961 10.92968-1.38281 2.59375-1.96875 4.1836-4.98437 4.34375-8.23828Zm0 0"/><path fill="none" stroke="#000" stroke-miterlimit="10" stroke-width=".39721" d="M60.0039 27.41406c3.625 1.52344 7.79298.9961 10.9297-1.38281 2.59375-1.96875 4.18359-4.98438 4.34374-8.23828"/><use xlink:href="#e" x="69.96315" y="37.93059"/><use xlink:href="#e" x="73.28733" y="37.93059"/><use xlink:href="#f" x="76.61151" y="37.93059"/><use xlink:href="#g" x="79.93569" y="37.93059"/></svg>