<svg xmlns="http://www.w3.org/2000/svg" xmlns:xlink="http://www.w3.org/1999/xlink" width="336.111pt" height="280.036pt" viewBox="0 0 336.111 280.036"><defs><path id="a" d="M.20313 0h9.71875l.96875-3.28125h-.5625c-.95313 2.3125-1.78125 2.625-4.09375 2.625-2.20313 0-2.32813-.28125-2.32813-.78125 0-.1875.0625-.46875.14063-.84375L5-6.375h2.45313c1.39062 0 1.64062.28125 1.64062 1.09375 0 .15625 0 .3125-.01562.51563H9.625l.875-3.89063h-.57812C9.45313-7.375 9.25-7.0625 7.60938-7.0625H5.15625l1.0625-4.65625c.09375-.45312.21875-.54687.53125-.54687H9c1.82813 0 2.20313.46875 2.20313 1.48437 0 .45313-.0625.96875-.0625.96875h.5625l.6875-3.09375h-9.4375l-.14063.53125 1.14063.07813c.3125.03125.45312.15625.45312.45312 0 .125-.01562.26563-.0625.4375L2.125-1.54687c-.15625.64062-.3125.85937-.78125.89062l-1.04687.125Zm0 0"/><path id="b" d="M0 0h5.71875c3.73438 0 5.90625-1.34375 7.25-3.375 1.07813-1.60937 1.25-3.17187 1.25-4.29687 0-1.5-.53125-3.01563-1.60937-3.90625-1.09375-.90625-2.76563-1.32813-4.82813-1.32813H2.76563l-.125.53125 1.10937.07813c.32813.03125.4375.1875.4375.48437 0 .10938-.01562.28125-.0625.45313l-2.21875 9.8125c-.14062.60937-.29687.85937-.75.89062l-1.0625.125Zm3.6875-1.375c0-.07812 0-.15625.03125-.23437l2.23438-9.96875c.15625-.64063.42187-.6875 2.04687-.6875 3.89063.07812 4.21875 2.6875 4.21875 4.1875 0 1.60937-.375 3.10937-1.21875 4.5-1.07812 1.75-2.65625 2.92187-5.75 2.92187-.92187 0-1.5625-.125-1.5625-.71875m0 0"/><path id="c" d="M-.35937 0h4.21875l.10937-.53125L2.9375-.64062c-.23437-.01563-.32812-.14063-.32812-.3125 0-.09376.03125-.23438.09375-.375.60937-1.1875 1.20312-2.40625 1.90625-3.65625h4.1875L9.25-1.125s-.09375.45313-.48437.48438l-1 .10937L7.67188 0H12.25l.125-.53125-.71875-.0625c-.57812-.0625-.65625-.3125-.75-1.09375l-1.375-11.21875H8.20313l-3.14063 5.5c-.95312 1.67188-2.5 4.45313-3.20312 5.5625C1.26563-.875.95313-.67187.375-.60937l-.60937.07812Zm5.34375-5.70312 3.03125-5.48438.6875 5.48438Zm0 0"/><path id="d" d="M.20313 0H5.625l.10938-.53125-1.40625-.10937c-.34375-.01563-.46875-.17188-.46875-.45313 0-.125.01562-.23437.04687-.39062L4.9375-6.09375h2.48438c1.375 0 1.64062.25 1.64062 1.04688 0 .15625 0 .34375-.03125.53125h.5625l.875-3.90625h-.5625C9.4375-7.10937 9.21875-6.8125 7.5625-6.8125H5.10938l1.10937-4.89062c.10938-.46875.21875-.5625.54688-.5625H9.0625c1.82813 0 2.17188.46875 2.17188 1.46875 0 .46875-.04688.96875-.04688.96875h.5625l.70313-3.07813h-9.5l-.10938.53125 1.10938.10938c.3125.01562.45312.17187.45312.46875 0 .09375-.01562.23437-.0625.375L2.125-1.48437c-.14062.54687-.3125.8125-.78125.84375L.29688-.53125Zm0 0"/><path id="e" d="M0 0h5.65625c4.51563 0 5.42188-2.32812 5.42188-3.875 0-1.96875-1.45313-2.8125-2.8125-3.07812l.01562-.03125c2.48438-.29688 3.53125-1.71875 3.53125-3.125 0-1.51563-.89062-2.79688-4.32812-2.79688H2.76563l-.125.53125 1.10937.10938c.32813.01562.45313.15625.45313.45312 0 .10938-.03125.28125-.07813.45313l-2.20312 9.8125c-.14063.60937-.3125.82812-.76563.89062l-1.0625.125Zm3.73438-1.4375c0-.125.01562-.26562.0625-.40625l1.0625-4.79687h.73437c1.85938 0 3.48438.54687 3.48438 2.67187 0 1.67188-1.01563 3.3125-3.51563 3.3125-1.46875 0-1.82812-.29687-1.82812-.78125M5-7.28125l.98438-4.34375c.125-.54687.23437-.64062 1.48437-.64062 1.5625 0 2.4375.78125 2.4375 2.09375 0 1.95312-1.625 2.89062-3.6875 2.89062Zm0 0"/><path id="f" d="M.96875-5.125C.96875-2.65625 2.1875.28125 6.8125.28125c1.32813 0 2.59375-.1875 3.79688-.78125l.90625-2.96875h-.54688C9.92188-1.60937 9-.375 6.6875-.375c-2.15625 0-3.70312-1.39062-3.70312-4.26562 0-1.6875.4375-3.76563 1.32812-5.25.9375-1.5625 2.40625-2.65625 4.40625-2.65625 2.35938 0 3.03125 1.09375 3.03125 3.14062h.57813l.6875-2.8125c-1.07813-.67187-2.82813-.98437-4.14063-.98437-3.51562 0-5.53125 1.64062-6.625 3.39062C1.21875-8.14062.96875-6.42187.96875-5.125m0 0"/></defs><path fill="none" stroke="#000" stroke-miterlimit="10" stroke-width=".39713" d="m82.875 252.53516 56.49998-112.99996L82.875 26.53915 26.37502 139.5352Zm0 0"/><path fill="none" stroke="#000" stroke-miterlimit="10" stroke-width=".39713" d="M82.875 26.53915h169.49603L308.871 139.5352H139.37498"/><use xlink:href="#a" x="76.58039" y="272.45709"/><use xlink:href="#b" x="146.38809" y="159.46007"/><use xlink:href="#c" x="76.47077" y="19.52578"/><use xlink:href="#d" x="6.75177" y="145.99144"/><use xlink:href="#e" x="259.38511" y="19.52578"/><use xlink:href="#f" x="315.88361" y="159.75805"/><path fill="none" stroke="red" stroke-miterlimit="10" stroke-width=".39713" d="m112.3789 199.80861-2.51172-7.53515m5.02734-107.97652-7.53515-2.51172M53.3711 79.2657l2.51172 7.53515m-5.02734 107.97261 7.53516 2.51172M276.85149 81.77741l7.53515 2.51172"/></svg>