<svg xmlns="http://www.w3.org/2000/svg" xmlns:xlink="http://www.w3.org/1999/xlink" width="227.17pt" height="195.615pt" viewBox="0 0 227.17 195.615"><defs><clipPath id="a"><path d="M0 .16406h226.34375V176H0Zm0 0"/></clipPath><clipPath id="b"><path d="M141 .16406h1V171h-1Zm0 0"/></clipPath><clipPath id="c"><path d="M56 169h170.34375v2H56Zm0 0"/></clipPath><path id="d" d="M.45313-1.71875C.45313-1 1.60938.20313 3.98438.20313c2.4375 0 3.96875-1.23438 3.96875-3.39063 0-2.25-1.92188-2.90625-2.85938-3V-6.25C6-6.40625 7.45313-7.07812 7.45313-8.73437c0-1.85938-1.45313-2.6875-3.25-2.6875-2.21875 0-3.3125 1.28125-3.3125 2 0 .51562.59375.8125.82812.8125.21875 0 .34375-.125.40625-.34375.375-1.14063 1-1.875 1.95313-1.875 1.3125 0 1.65625 1.15625 1.65625 2.10937 0 1-.35938 2.26563-1.78125 2.26563-.8125 0-1.26563-.15625-1.46875-.15625-.21875 0-.29688.15625-.29688.45312s.07813.46875.29688.46875c.20312 0 .65625-.15625 1.46875-.15625 1.42187 0 2.23437 1.28125 2.23437 2.75 0 2-.98437 2.70313-2.1875 2.70313-1.10937 0-1.84375-.82813-2.15625-1.76563-.10937-.32812-.26562-.48437-.5-.48437-.3125 0-.89062.3125-.89062.92187m0 0"/><path id="e" d="M.82813-4.04687c0 2.8125 1.375 4.25 3.89062 4.25 1.1875 0 2.76563-.60938 3.23438-2.42188l-.5-.23437C6.9375-1.26562 6.28125-.67187 5.04688-.67187c-2.01563 0-2.46875-2.09375-2.46875-3.67188 0-2.5.98437-3.5 2.14062-3.5.76563 0 1.25.54688 1.59375 1.46875.10938.26563.21875.42188.53125.42188.34375 0 .98438-.21875.98438-.85938 0-.76562-1.10938-1.625-2.9375-1.625-3.04688 0-4.0625 2.15625-4.0625 4.39063m0 0"/><path id="f" d="M.53125 0H4.625v-.48437c-1.1875-.09375-1.25-.125-1.25-.98438v-3.92187c0-.4375 0-.67188.125-.90625.32813-.67188 1.0625-1.23438 1.98438-1.23438 1.45312 0 1.625 1.0625 1.625 2.09375v3.96875c0 .85938-.04688.89063-1.26563.98438V0H9.9375v-.48437c-1.20312-.09375-1.25-.125-1.25-.98438v-3.92187c0-.4375.01563-.65625.125-.92188.25-.67187.96875-1.21875 1.90625-1.21875 1.0625 0 1.70313.59375 1.70313 2.09375v3.96875c0 .85938-.04688.89063-1.26563.98438V0h4.10938v-.48437C14.0625-.57812 14-.60937 14-1.46875V-5.75c0-1.70312-.92187-2.6875-2.5-2.6875-1.375 0-2.35937.90625-2.95312 1.28125C8.14063-7.9375 7.48438-8.4375 6.3125-8.4375c-1.29687 0-2.34375.85938-2.9375 1.28125L3.21875-8.4375.625-8.01562v.42187L1.25-7.5c.4375.0625.5625.14063.5625.75v5.28125c0 .85938-.0625.89063-1.28125.98438Zm0 0"/></defs><path fill="none" stroke="red" stroke-miterlimit="10" stroke-width=".39705" d="M141.4141 169.82422v-11.30079h11.30078v11.30079h-11.30079"/><g clip-path="url(#a)"><path fill="none" stroke="#000" stroke-miterlimit="10" stroke-width=".39705" d="M56.6836 169.82422h169.4649L169.6602.35932H.1992Zm0 0"/></g><g clip-path="url(#b)"><path fill="none" stroke="#007F7F" stroke-miterlimit="10" stroke-width=".39705" d="M141.4141.35932v169.4649"/></g><g clip-path="url(#c)"><path fill="none" stroke="#FF7F00" stroke-miterlimit="10" stroke-width=".39705" d="M56.6836 169.82422h169.4649"/></g><use xlink:href="#d" x="97.91525" y="90.70346" fill="#007F7F"/><g fill="#007F7F"><use xlink:href="#e" x="110.58297" y="90.70346"/><use xlink:href="#f" x="118.90921" y="90.70346"/></g><use xlink:href="#d" x="123.17197" y="188.25404" fill="#FF7F00"/><g fill="#FF7F00"><use xlink:href="#e" x="135.83969" y="188.25404"/><use xlink:href="#f" x="144.16593" y="188.25404"/></g></svg>