<svg xmlns="http://www.w3.org/2000/svg" xmlns:xlink="http://www.w3.org/1999/xlink" width="149.218pt" height="113.785pt" viewBox="0 0 149.218 113.785"><defs><path id="a" d="m1.6875-1.26562.48438.48437L4.1875-2.8125 6.21875-.78125l.46875-.48437-2.01562-2.01563L6.6875-5.3125l-.46875-.46875L4.1875-3.76562 2.17188-5.78125l-.48438.46875 2.03125 2.03125Zm0 0"/><path id="b" d="M-.21875 0h2.625l.07813-.32812-.65625-.0625C1.6875-.40625 1.625-.48437 1.625-.59375c0-.0625.01563-.15625.0625-.23437.375-.75.75-1.5 1.1875-2.28125h2.60938l.29687 2.40625s-.0625.28124-.3125.3125l-.625.0625L4.78125 0h2.85938l.07812-.32812L7.26563-.375c-.35938-.03125-.40625-.1875-.46875-.67187l-.84375-7H5.125L3.15625-4.625c-.59375 1.04688-1.5625 2.78125-1.98437 3.46875-.375.60938-.57813.73438-.9375.76563l-.39063.0625Zm3.32813-3.5625L5-6.96875l.42188 3.40625Zm0 0"/><path id="c" d="M0 0h3.53125c2.8125 0 3.375-1.45312 3.375-2.42187 0-1.21875-.89062-1.75-1.75-1.92188l.01563-.01562C6.71875-4.54687 7.375-5.42187 7.375-6.3125c0-.9375-.5625-1.73437-2.70312-1.73437H1.71875l-.07812.32812.70312.0625c.20313.01563.28125.09375.28125.28125q0 .1172-.04687.28125l-1.375 6.125C1.10937-.57812 1-.45312.71875-.40625L.0625-.32812Zm2.32813-.89062c0-.09376.01562-.17188.03125-.26563l.67187-2.98437H3.5c1.14063 0 2.15625.34375 2.15625 1.65625 0 1.04687-.625 2.07812-2.1875 2.07812-.92187 0-1.14062-.1875-1.14062-.48437M3.125-4.54687 3.73438-7.25c.07812-.34375.14062-.40625.92187-.40625.98438 0 1.53125.5 1.53125 1.3125 0 1.21875-1.01562 1.79688-2.3125 1.79688Zm0 0"/><path id="d" d="M.60938-3.20312c0 1.54687.75 3.375 3.64062 3.375.82813 0 1.625-.10938 2.35938-.48438l.57812-1.85937h-.34375C6.1875-1 5.60938-.23437 4.17188-.23437c-1.34375 0-2.3125-.875-2.3125-2.67188 0-1.04687.26562-2.32812.82812-3.26562.57813-.98438 1.5-1.65625 2.75-1.65625 1.46875 0 1.89063.67187 1.89063 1.95312h.35937l.42188-1.75c-.65625-.42187-1.75-.60937-2.57813-.60937-2.1875 0-3.45312 1.01562-4.125 2.10937C.75-5.07812.60938-4 .60938-3.20312m0 0"/><path id="e" d="M0 0h3.5625C5.89063 0 7.25-.84375 8.09375-2.10937c.67188-1 .78125-1.98438.78125-2.67188 0-.9375-.34375-1.89062-1-2.4375-.6875-.57812-1.73437-.82812-3.01562-.82812H1.71875l-.07812.32812.70312.04688c.20313.01562.26563.10937.26563.29687 0 .07813 0 .17188-.03125.28125L1.1875-.96875C1.10938-.57812 1-.4375.71875-.40625L.0625-.32812Zm2.29688-.85937c0-.04688 0-.09376.01562-.14063l1.40625-6.21875C3.8125-7.625 3.98438-7.65625 5-7.65625c2.42188.04688 2.625 1.6875 2.625 2.60938 0 1-.23437 1.95312-.76562 2.8125C6.1875-1.14062 5.20313-.40625 3.26563-.40625c-.5625 0-.96875-.07812-.96875-.45312m0 0"/><clipPath id="f"><path d="M5 .1914h68v113.19141H5Zm0 0"/></clipPath><clipPath id="g"><path d="M29 11h119.4414v18H29Zm0 0"/></clipPath><clipPath id="h"><path d="M73 .1914h69v113.19141H73Zm0 0"/></clipPath></defs><use xlink:href="#a" x="52.40835" y="24.42963"/><use xlink:href="#b" x="44.22821" y="17.16072"/><use xlink:href="#a" x="17.16007" y="94.92618"/><use xlink:href="#c" x="25.72419" y="104.4632"/><use xlink:href="#a" x="87.65662" y="91.40165"/><use xlink:href="#d" x="96.22074" y="101.1237"/><use xlink:href="#a" x="122.90589" y="20.9051"/><use xlink:href="#e" x="113.59867" y="13.6352"/><g clip-path="url(#f)"><path fill="none" stroke="#000" stroke-miterlimit="10" stroke-width=".39642" d="M10.77343 113.1836 67.1719.3867"/></g><g clip-path="url(#g)"><path fill="none" stroke="#000" stroke-miterlimit="10" stroke-width=".39642" d="M148.24223 16.9531 35.44532 22.59373"/></g><g clip-path="url(#h)"><path fill="none" stroke="#000" stroke-miterlimit="10" stroke-width=".39642" d="M79.50783 113.1836 135.9063.3867"/></g><path fill="none" stroke="#000" stroke-miterlimit="10" stroke-width=".39642" d="m.19921 93.09375 112.79691-5.64063"/></svg>