<svg xmlns="http://www.w3.org/2000/svg" xmlns:xlink="http://www.w3.org/1999/xlink" width="245.441pt" height="176.963pt" viewBox="0 0 245.441 176.963"><defs><path id="a" d="m1.75-1.3125.51563.5L4.375-2.9375l2.10938 2.125.5-.5L4.875-3.42187l2.10938-2.125-.5-.48438L4.375-3.92187 2.26563-6.03125 1.75-5.54687l2.125 2.125Zm0 0"/><path id="b" d="M1-2.07812C1-.4375 2.20313.1875 3.95313.1875 5.60938.1875 7.125-.17187 7.79688-3l1.03125-4.39062c.09375-.42188.20312-.57813.51562-.60938l.67188-.04687.07812-.35938H6.76563l-.07813.35938L7.39063-8c.20312.01563.3125.125.3125.34375 0 .07813-.01563.15625-.04688.26563L6.6875-3.15625C6.3125-1.53125 5.71875-.25 4.01563-.25c-1.0625 0-1.8125-.45312-1.8125-1.79687 0-.34375.04687-.75.15625-1.21875l.96875-4.125c.09375-.42188.1875-.57813.5-.60938L4.5-8.04687l.07813-.35938H1.25l-.09375.35938L1.89063-8c.20312.01563.29687.125.29687.32813q0 .11718-.04687.28125L1.125-3.10937C1.03125-2.71875 1-2.39062 1-2.07812m0 0"/><path id="c" d="M0 0h3.32813l.0625-.34375-.71875-.0625c-.20313-.01562-.3125-.10937-.3125-.29687 0-.07813.03125-.1875.0625-.3125l.65625-2.9375h.73437c1.17188 0 1.34375.28125 1.34375 1.70312 0 1.46875 0 2.25 1.28125 2.25h.9375L7.5-.34375C6.64063-.46875 6.34375-.5 6.34375-2.0625c0-1.25-.10937-1.78125-1.10937-2.10937 1.48437-.20313 2.5-1.07813 2.5-2.28125 0-.85938-.375-1.95313-2.65625-1.95313H1.8125l-.09375.35938L2.4375-8c.21875.01563.29688.125.29688.32813 0 .07812-.01563.17187-.03125.28125l-1.46875 6.375c-.09376.4375-.20313.5625-.5.59375L.0625-.34375Zm3.17188-4.375.71875-3.14062c.09375-.35938.125-.46875 1.04687-.46875.78125 0 1.51563.34375 1.51563 1.40625 0 1.45312-.9375 2.20312-2.5 2.20312Zm0 0"/><path id="d" d="M.39063-.8125c.46875.625 1.64062 1 2.53125 1C5.26563.15625 6-1.20312 6-2.5c0-1.10937-.59375-1.79687-1.82812-2.42187-.70313-.35938-1.5625-.78125-1.5625-1.6875 0-.875.64062-1.5625 1.6875-1.5625 1.23437 0 1.46875.57812 1.46875 1.90625H6.125l.42188-1.70313c-.51563-.42187-1.42188-.625-2.17188-.625-2.10937 0-2.78125 1.39063-2.78125 2.42188 0 1.125.76563 1.73437 1.75 2.20312.96875.5 1.5625 1 1.5625 1.96875 0 1-.8125 1.75-1.82812 1.75-1.625 0-1.9375-1.25-2.01563-2.42187H.70313Zm0 0"/><path id="i" d="M1.04688-3.42187c0 2.73437.625 5.75 3.1875 5.84375V2.0625C3.375 1.90625 2.01563.82813 2.01563-3.42187c0-4.23438 1.29687-5.29688 2.21875-5.5v-.35938c-2.5625.10938-3.1875 3.125-3.1875 5.85938m0 0"/><path id="j" d="M.90625-1.45312c0 .78125.23438 1.59375 1.21875 1.59375 1.39063 0 2.46875-1.48438 3.1875-2.79688h.03125L4.9375-1.20312c-.0625.25-.10937.46875-.10937.64062 0 .45313.21875.70313.64062.70313.95313 0 1.59375-.82813 2-1.75l-.28125-.15626c-.21875.42188-.76562 1.28126-1.09375 1.28126-.15625 0-.20312-.09375-.20312-.23438 0-.125.04687-.26562.07812-.4375L7.875-8.95312 7.8125-9l-2.15625.28125-.0625.28125.71875.0625c.20313.01563.28125.0625.28125.20313 0 .0625-.01562.17187-.0625.29687l-.45312 1.95313-.03125.03125c-.23438-.125-.60938-.20313-1.01563-.20313-2.82812 0-4.125 3.15625-4.125 4.64063m1.20313.09374c0-1.3125 1.0625-4.3125 3-4.3125.375 0 .6875.10938.82812.25C5.76563-4.5 5.35938-3.34374 4.75-2.34375c-.59375.95313-1.39062 1.85938-2.03125 1.85938-.39062 0-.60937-.32813-.60937-.875m0 0"/><path id="l" d="M.71875 2.0625v.35938C3.29688 2.32813 3.92188-.6875 3.92188-3.42187s-.625-5.75-3.20313-5.85938v.35938c.9375.20312 2.23438 1.26562 2.23438 5.5 0 4.25-1.35938 5.32812-2.23438 5.48437m0 0"/><path id="e" d="M.65625 0h2.07813v-.20312l-.46875-.03126C2.125-.25 2.0625-.29687 2.0625-.51561v-3.57813l-.04687-.04687-1.34375.23437v.17188l.48437.0625c.125.03125.17188.07812.17188.26562v2.89063c0 .21874-.0625.26562-.20313.28124l-.46875.03126Zm0 0"/><path id="f" d="M.23438-2.03125c0 1.17188.375 2.10938 1.4375 2.10938s1.42187-.9375 1.42187-2.10938-.35937-2.10937-1.42187-2.10937-1.4375.9375-1.4375 2.10937m.78125 0c0-.85937.10937-1.85937.65625-1.85937.54687 0 .65625 1 .65625 1.85937 0 .85938-.10938 1.85938-.65625 1.85938-.54688 0-.65625-1-.65625-1.85938m0 0"/><path id="g" d="M.21875-3.29687c0 .46875.39063.84375.84375.84375s.84375-.375.84375-.84375c0-.45313-.39062-.84375-.84375-.84375S.21875-3.75.21875-3.29687m.34375 0c0-.3125.23438-.54688.5-.54688.26563 0 .5.23438.5.54688 0 .32812-.25.54687-.5.54687-.26562 0-.5-.21875-.5-.54687m0 0"/><path id="k" d="M.92188 0h2.84375v-.26562l-.67188-.0625c-.1875-.01563-.28125-.07813-.28125-.39063v-5.01562l-.04687-.04688-1.82813.3125V-5.25l.73438.10938c.15624.01562.20312.07812.20312.34375v4.07812c0 .3125-.07812.375-.28125.39063l-.67187.0625Zm0 0"/><clipPath id="h"><path d="M169 .1836h75V162h-75Zm0 0"/></clipPath></defs><path fill="none" stroke="#000" stroke-miterlimit="10" stroke-width=".3976" d="M18.61327 125.93754 64.21484 17.45313l165.11725 8.08984"/><use xlink:href="#a" x="14.24755" y="128.95432"/><use xlink:href="#b" x="4.30719" y="138.90167"/><use xlink:href="#a" x="59.8477" y="20.4714"/><use xlink:href="#c" x="51.27622" y="12.88866"/><use xlink:href="#a" x="224.96264" y="28.56197"/><use xlink:href="#d" x="233.8953" y="20.79865"/><path fill="#66b2b2" d="m64.21484 17.45313-4.27343 10.16796c3.6328 1.52735 7.80468 1 10.9414-1.3828 2.59766-1.96876 4.1875-4.98829 4.34766-8.2461Zm0 0"/><path fill="none" stroke="#000" stroke-miterlimit="10" stroke-width=".3976" d="M59.9414 27.6211c3.63282 1.52734 7.8047 1 10.94141-1.38282 2.59766-1.96875 4.1875-4.98828 4.34766-8.2461"/><use xlink:href="#e" x="69.91177" y="38.15013"/><use xlink:href="#e" x="73.23919" y="38.15013"/><use xlink:href="#f" x="76.5666" y="38.15013"/><use xlink:href="#g" x="79.89402" y="38.15013"/><g clip-path="url(#h)"><path fill="none" stroke="#000" stroke-miterlimit="10" stroke-width=".3976" d="M175.05082 155.72661 238.37897 3.84765"/></g><use xlink:href="#i" x="164.00547" y="169.59376"/><use xlink:href="#j" x="168.96752" y="169.59376"/><use xlink:href="#k" x="175.81637" y="172.43689"/><use xlink:href="#l" x="181.17836" y="169.59376"/></svg>