<svg xmlns="http://www.w3.org/2000/svg" xmlns:xlink="http://www.w3.org/1999/xlink" width="263.508pt" height="176.963pt" viewBox="0 0 263.508 176.963"><defs><path id="a" d="m1.75-1.3125.51563.5L4.375-2.9375l2.10938 2.125.5-.5L4.875-3.42187l2.10938-2.125-.5-.48438L4.375-3.92187 2.26563-6.03125 1.75-5.54687l2.125 2.125Zm0 0"/><path id="b" d="M1-2.07812C1-.4375 2.20313.1875 3.95313.1875 5.60938.1875 7.125-.17187 7.79688-3l1.03125-4.39062c.09375-.42188.20312-.57813.51562-.60938l.67188-.04687.07812-.35938H6.76563l-.07813.35938L7.39063-8c.20312.01563.3125.125.3125.34375 0 .07813-.01563.15625-.04688.26563L6.6875-3.15625C6.3125-1.53125 5.71875-.25 4.01563-.25c-1.0625 0-1.8125-.45312-1.8125-1.79687 0-.34375.04687-.75.15625-1.21875l.96875-4.125c.09375-.42188.1875-.57813.5-.60938L4.5-8.04687l.07813-.35938H1.25l-.09375.35938L1.89063-8c.20312.01563.29687.125.29687.32813q0 .11718-.04687.28125L1.125-3.10937C1.03125-2.71875 1-2.39062 1-2.07812m0 0"/><path id="c" d="M0 0h3.32813l.0625-.34375-.71875-.0625c-.20313-.01562-.3125-.10937-.3125-.29687 0-.07813.03125-.1875.0625-.3125l.65625-2.9375h.73437c1.17188 0 1.34375.28125 1.34375 1.70312 0 1.46875 0 2.25 1.28125 2.25h.9375L7.5-.34375C6.64063-.46875 6.34375-.5 6.34375-2.0625c0-1.25-.10937-1.78125-1.10937-2.10937 1.48437-.20313 2.5-1.07813 2.5-2.28125 0-.85938-.375-1.95313-2.65625-1.95313H1.8125l-.09375.35938L2.4375-8c.21875.01563.29688.125.29688.32813 0 .07812-.01563.17187-.03125.28125l-1.46875 6.375c-.09376.4375-.20313.5625-.5.59375L.0625-.34375Zm3.17188-4.375.71875-3.14062c.09375-.35938.125-.46875 1.04687-.46875.78125 0 1.51563.34375 1.51563 1.40625 0 1.45312-.9375 2.20312-2.5 2.20312Zm0 0"/><path id="d" d="M.39063-.8125c.46875.625 1.64062 1 2.53125 1C5.26563.15625 6-1.20312 6-2.5c0-1.10937-.59375-1.79687-1.82812-2.42187-.70313-.35938-1.5625-.78125-1.5625-1.6875 0-.875.64062-1.5625 1.6875-1.5625 1.23437 0 1.46875.57812 1.46875 1.90625H6.125l.42188-1.70313c-.51563-.42187-1.42188-.625-2.17188-.625-2.10937 0-2.78125 1.39063-2.78125 2.42188 0 1.125.76563 1.73437 1.75 2.20312.96875.5 1.5625 1 1.5625 1.96875 0 1-.8125 1.75-1.82812 1.75-1.625 0-1.9375-1.25-2.01563-2.42187H.70313Zm0 0"/><path id="i" d="M1.04688-3.42187c0 2.73437.625 5.75 3.1875 5.84375V2.0625C3.375 1.90625 2.01563.82813 2.01563-3.42187c0-4.23438 1.29687-5.29688 2.21875-5.5v-.35938c-2.5625.10938-3.1875 3.125-3.1875 5.85938m0 0"/><path id="j" d="M.90625-1.45312c0 .78125.23438 1.59375 1.21875 1.59375 1.39063 0 2.46875-1.48438 3.1875-2.79688h.03125L4.9375-1.20312c-.0625.25-.10937.46875-.10937.64062 0 .45313.21875.70313.64062.70313.95313 0 1.59375-.82813 2-1.75l-.28125-.15626c-.21875.42188-.76562 1.28126-1.09375 1.28126-.15625 0-.20312-.09375-.20312-.23438 0-.125.04687-.26562.07812-.4375L7.875-8.95312 7.8125-9l-2.15625.28125-.0625.28125.71875.0625c.20313.01563.28125.0625.28125.20313 0 .0625-.01562.17187-.0625.29687l-.45312 1.95313-.03125.03125c-.23438-.125-.60938-.20313-1.01563-.20313-2.82812 0-4.125 3.15625-4.125 4.64063m1.20313.09374c0-1.3125 1.0625-4.3125 3-4.3125.375 0 .6875.10938.82812.25C5.76563-4.5 5.35938-3.34374 4.75-2.34375c-.59375.95313-1.39062 1.85938-2.03125 1.85938-.39062 0-.60937-.32813-.60937-.875m0 0"/><path id="l" d="M.71875 2.0625v.35938C3.29688 2.32813 3.92188-.6875 3.92188-3.42187s-.625-5.75-3.20313-5.85938v.35938c.9375.20312 2.23438 1.26562 2.23438 5.5 0 4.25-1.35938 5.32812-2.23438 5.48437m0 0"/><path id="n" d="M.90625-6.39062h.35938c.39062-1.23438.82812-1.59375 2.01562-1.59375H4.125l-1.57812 7c-.09375.375-.21875.5625-.57813.57812l-.8125.0625L1.07813 0H4.8125l.09375-.34375-.89062-.0625c-.25 0-.34375-.10937-.34375-.3125 0-.07812.01562-.15625.03125-.26562l1.57812-7h.76563c1.17187 0 1.42187.3125 1.42187.96875 0 .1875-.01562.39062-.03125.625h.375L8.25-8.40625H1.35938Zm0 0"/><path id="e" d="M.65625 0h2.07813v-.20312l-.46875-.03126C2.125-.25 2.0625-.29687 2.0625-.51561v-3.57813l-.04687-.04687-1.34375.23437v.17188l.48437.0625c.125.03125.17188.07812.17188.26562v2.89063c0 .21874-.0625.26562-.20313.28124l-.46875.03126Zm0 0"/><path id="f" d="M.23438-2.03125c0 1.17188.375 2.10938 1.4375 2.10938s1.42187-.9375 1.42187-2.10938-.35937-2.10937-1.42187-2.10937-1.4375.9375-1.4375 2.10937m.78125 0c0-.85937.10937-1.85937.65625-1.85937.54687 0 .65625 1 .65625 1.85937 0 .85938-.10938 1.85938-.65625 1.85938-.54688 0-.65625-1-.65625-1.85938m0 0"/><path id="g" d="M.21875-3.29687c0 .46875.39063.84375.84375.84375s.84375-.375.84375-.84375c0-.45313-.39062-.84375-.84375-.84375S.21875-3.75.21875-3.29687m.34375 0c0-.3125.23438-.54688.5-.54688.26563 0 .5.23438.5.54688 0 .32812-.25.54687-.5.54687-.26562 0-.5-.21875-.5-.54687m0 0"/><path id="k" d="M.92188 0h2.84375v-.26562l-.67188-.0625c-.1875-.01563-.28125-.07813-.28125-.39063v-5.01562l-.04687-.04688-1.82813.3125V-5.25l.73438.10938c.15624.01562.20312.07812.20312.34375v4.07812c0 .3125-.07812.375-.28125.39063l-.67187.0625Zm0 0"/><path id="m" d="M.25-.09375.34375 0H3.9375L4.25-1.21875 4-1.25c-.20312.4375-.35937.51563-.70312.51563H1.125c.14063-.42188.59375-.98438 1.42188-1.53125.85937-.57813 1.46875-.98438 1.46875-1.90625 0-1.1875-.79688-1.60938-1.75-1.60938-1.15625 0-1.8125.67188-1.8125 1.1875 0 .3125.35937.45313.53125.45313s.25-.09375.28124-.25c.14063-.60938.45313-1.07813.95313-1.07813.59375 0 .78125.51563.78125 1.14063 0 .8125-.375 1.35937-1.15625 2.04687C.75-1.34375.375-.73437.25-.09375m0 0"/><clipPath id="h"><path d="M184 .14453h75V162h-75Zm0 0"/></clipPath></defs><path fill="none" stroke="#000" stroke-miterlimit="10" stroke-width=".39776" d="m33.30861 125.95309 45.61717-108.5273 165.18354 8.09374"/><use xlink:href="#a" x="28.93897" y="128.9709"/><use xlink:href="#b" x="18.99354" y="138.92232"/><use xlink:href="#a" x="74.55779" y="20.44354"/><use xlink:href="#c" x="65.9828" y="12.8577"/><use xlink:href="#a" x="239.74038" y="28.53742"/><use xlink:href="#d" x="248.67669" y="20.77092"/><path fill="#66b2b2" d="m78.92578 17.42578-4.27344 10.17188c3.63282 1.52734 7.8047 1 10.94532-1.38282 2.59765-1.97265 4.1914-4.99218 4.35156-8.25Zm0 0"/><path fill="none" stroke="#000" stroke-miterlimit="10" stroke-width=".39776" d="M74.65235 27.59765c3.6328 1.52735 7.80468 1 10.9453-1.38281 2.59766-1.97266 4.1914-4.99219 4.35156-8.25"/><use xlink:href="#e" x="84.62599" y="38.12951"/><use xlink:href="#e" x="87.95477" y="38.12951"/><use xlink:href="#f" x="91.28355" y="38.12951"/><use xlink:href="#g" x="94.61233" y="38.12951"/><g clip-path="url(#h)"><path fill="none" stroke="#000" stroke-miterlimit="10" stroke-width=".39776" d="M189.80855 155.75386 253.1601 3.8125"/></g><use xlink:href="#i" x="178.75824" y="169.62699"/><use xlink:href="#j" x="183.72232" y="169.62699"/><use xlink:href="#k" x="190.57398" y="172.47128"/><use xlink:href="#l" x="195.93816" y="169.62699"/><path fill="none" stroke="#000" stroke-miterlimit="10" stroke-width=".39776" d="M231.9687 135.66792.19924 124.3359"/><use xlink:href="#i" x="236.5653" y="138.90635"/><use xlink:href="#j" x="241.52939" y="138.90635"/><use xlink:href="#m" x="248.38104" y="141.75064"/><use xlink:href="#l" x="253.74393" y="138.90635"/><use xlink:href="#a" x="194.48887" y="137.06479"/><use xlink:href="#n" x="186.41893" y="129.47895"/></svg>