<svg xmlns="http://www.w3.org/2000/svg" xmlns:xlink="http://www.w3.org/1999/xlink" width="377.537pt" height="272.167pt" viewBox="0 0 377.537 272.167"><defs><path id="a" d="m2.70313-2.03125.76562.78125 3.25-3.26562 3.25 3.26562.75-.78125-3.23437-3.23437 3.23437-3.25-.75-.76563-3.25 3.25-3.25-3.25-.76562.76563 3.25 3.25Zm0 0"/><path id="b" d="M1.53125-3.20312C1.53125-.67187 3.375.28125 6.07813.28125c2.54687 0 4.85937-.54687 5.89062-4.89062l1.59375-6.75c.15625-.64063.3125-.89063.79688-.9375l1.03125-.07813.125-.53125h-5.10938l-.14062.53125 1.09375.07813c.3125.03125.48437.1875.48437.51562 0 .125-.03125.26563-.0625.42188l-1.51562 6.51562C9.6875-2.35937 8.78125-.375 6.17188-.375 4.53125-.375 3.375-1.09375 3.375-3.15625c0-.51562.07813-1.15625.23438-1.875l1.5-6.32812c.15625-.64063.29687-.89063.76562-.9375l1.03125-.07813.125-.53125H1.92188l-.14063.53125 1.125.07813c.3125.03125.45313.1875.45313.5 0 .125-.01563.26562-.0625.4375l-1.5625 6.57812c-.14063.59375-.20313 1.10938-.20313 1.57813m0 0"/><path id="c" d="M0 0h5.10938l.10937-.53125-1.10937-.10937c-.3125-.01563-.46875-.15626-.46875-.45313 0-.125.03125-.28125.07812-.45312l1-4.53125h1.14063c1.8125 0 2.0625.4375 2.0625 2.625C7.92188-1.1875 7.92188 0 9.89063 0h1.45312l.17188-.53125C10.20313-.71875 9.75-.78125 9.75-3.17187c0-1.90625-.15625-2.71875-1.70312-3.25 2.28125-.3125 3.82812-1.64063 3.82812-3.48438 0-1.32812-.57812-3-4.0625-3H2.78125l-.14062.53125 1.10937.07813c.32813.03125.45313.1875.45313.5 0 .125-.01563.26562-.04688.4375l-2.25 9.8125c-.15625.65625-.3125.85937-.78125.89062l-1.03125.125Zm4.89063-6.73437 1.09375-4.82813c.125-.53125.1875-.70312 1.60937-.70312 1.20313 0 2.32813.53125 2.32813 2.15625 0 2.21875-1.4375 3.375-3.84375 3.375Zm0 0"/><path id="d" d="M.59375-1.25C1.32813-.28125 3.125.28125 4.48438.28125c3.625-.04687 4.73437-2.125 4.73437-4.14062 0-1.6875-.92187-2.73438-2.79687-3.70313-1.09375-.5625-2.40625-1.20312-2.40625-2.60937 0-1.32813.96875-2.375 2.59375-2.375 1.89062 0 2.25.875 2.25 2.92187h.54687l.65625-2.625c-.78125-.64062-2.17187-.95312-3.32812-.95312-3.26563 0-4.29688 2.14062-4.29688 3.70312 0 1.75 1.20313 2.67188 2.70313 3.40625 1.5.75 2.40625 1.53125 2.40625 3.01563 0 1.54687-1.25 2.70312-2.82813 2.70312-2.5 0-2.96875-1.92187-3.09375-3.73437h-.54687Zm0 0"/><path id="h" d="M1.60938-5.26562c0 4.21875.95312 8.84375 4.90625 9v-.5625c-1.32813-.25-3.42188-1.90625-3.42188-8.4375 0-6.48438 1.98438-8.14063 3.42188-8.4375v-.5625c-3.95313.17187-4.90625 4.79687-4.90625 9m0 0"/><path id="i" d="M1.39063-2.25C1.39063-1.03125 1.75.21875 3.25.21875c2.15625 0 3.8125-2.28125 4.90625-4.29687h.04688l-.60938 2.23437c-.10937.375-.17187.71875-.17187.98438 0 .70312.32812 1.07812.98437 1.07812 1.46875 0 2.4375-1.26562 3.07813-2.6875l-.4375-.25C10.70313-2.0625 9.875-.75 9.35938-.75c-.21875 0-.29688-.14062-.29688-.35937 0-.1875.04688-.40625.10938-.65625l2.9375-12-.09375-.07813-3.3125.4375-.10938.4375 1.125.09375c.29688.03125.40625.10938.40625.32813 0 .09375-.01562.25-.07812.45312l-.71875 3-.03125.03125c-.35938-.17187-.9375-.3125-1.57813-.3125-4.34375 0-6.32812 4.85938-6.32812 7.125m1.84375.17188c0-2.03125 1.625-6.64063 4.60937-6.64063.57813 0 1.07813.17188 1.29688.375-.28125 1.4375-.90625 3.20313-1.85938 4.75C6.39063-2.14062 5.15625-.75 4.17188-.75c-.59375 0-.9375-.5-.9375-1.32812m0 0"/><path id="k" d="M1.10938 3.17188v.5625c3.95312-.15625 4.90625-4.78125 4.90625-9 0-4.20313-.95313-8.82813-4.90625-9v.5625c1.4375.29687 3.42187 1.95312 3.42187 8.4375 0 6.53125-2.09375 8.1875-3.42187 8.4375m0 0"/><path id="e" d="M1.01563 0H4.1875v-.3125L3.48438-.375c-.21875-.01562-.3125-.07812-.3125-.42187v-5.5l-.07813-.04688-2.0625.32813V-5.75l.75.10938c.20313.03125.26563.10937.26563.40625v4.4375c0 .34375-.09375.40625-.3125.42187l-.71875.0625Zm0 0"/><path id="f" d="M.375-3.125C.375-1.32812.9375.10938 2.5625.10938S4.76563-1.32812 4.76563-3.125 4.1875-6.34375 2.5625-6.34375.375-4.92187.375-3.125m1.17188 0c0-1.3125.1875-2.85937 1.01562-2.85937.84375 0 1.01563 1.54687 1.01563 2.85937S3.40625-.26562 2.5625-.26562c-.82812 0-1.01562-1.54688-1.01562-2.85938m0 0"/><path id="g" d="M.34375-5.0625c0 .70313.57813 1.28125 1.28125 1.28125.70313 0 1.3125-.57812 1.3125-1.28125 0-.6875-.60937-1.28125-1.3125-1.28125-.70312 0-1.28125.59375-1.28125 1.28125m.53125 0c0-.46875.35938-.84375.75-.84375.40625 0 .78125.375.78125.84375 0 .48438-.375.84375-.78125.84375s-.75-.35937-.75-.84375m0 0"/><path id="j" d="M1.42188 0h4.375v-.40625L4.75-.5c-.28125-.03125-.42187-.125-.42187-.60937V-8.8125l-.09375-.07812-2.79688.48437v.34375l1.125.15625c.25.03125.32813.125.32813.53125v6.26563c0 .48437-.125.57812-.42188.60937l-1.04687.09375Zm0 0"/></defs><path fill="none" stroke="#000" stroke-miterlimit="10" stroke-width=".39728" d="M28.96092 193.2852 99.04687 26.55078l253.77742 12.4336"/><use xlink:href="#a" x="22.24716" y="197.92224"/><use xlink:href="#b" x="6.96593" y="213.21443"/><use xlink:href="#a" x="92.33265" y="31.18854"/><use xlink:href="#c" x="79.15698" y="19.53222"/><use xlink:href="#a" x="346.10695" y="43.62349"/><use xlink:href="#d" x="359.83992" y="31.68901"/><path fill="none" stroke="#000" stroke-miterlimit="10" stroke-width=".39728" d="M92.47656 42.1836c5.58594 2.34375 11.9961 1.53516 16.82422-2.1289 3.98829-3.02735 6.4375-7.66798 6.6836-12.6758"/><use xlink:href="#e" x="104.19036" y="52.62593"/><use xlink:href="#e" x="109.30547" y="52.62593"/><use xlink:href="#f" x="114.42057" y="52.62593"/><use xlink:href="#g" x="119.53567" y="52.62593"/><path fill="none" stroke="#000" stroke-miterlimit="10" stroke-width=".39728" d="M269.39849 239.06647 366.73054 5.64062"/><use xlink:href="#h" x="252.38479" y="260.34518"/><use xlink:href="#i" x="260.01276" y="260.34518"/><use xlink:href="#j" x="270.54122" y="264.7158"/><use xlink:href="#k" x="278.782" y="260.34518"/></svg>