<svg xmlns="http://www.w3.org/2000/svg" xmlns:xlink="http://www.w3.org/1999/xlink" width="142.131pt" height="51.591pt" viewBox="0 0 142.131 51.591"><defs><path id="c" d="M.35938 0h2.92187v-.29687c-.90625-.0625-.9375-.07813-.9375-.67188v-2.60937H6v2.60937c0 .59375-.01562.60938-.9375.67188V0h2.92188v-.29687c-.92188-.0625-.9375-.07813-.9375-.67188v-5.29687c0-.59375.01562-.59375.9375-.67188v-.29687H5.0625v.29687c.92188.07813.9375.07813.9375.67188v2.3125H2.34375v-2.3125c0-.59375.03125-.59375.9375-.67188v-.29687H.35938v.29687c.9375.07813.95312.07813.95312.67188v5.29687c0 .59375-.01562.60938-.95312.67188Zm0 0"/><path id="d" d="M.51563-1.35937c0 .78125.51562 1.48437 1.5 1.48437.60937 0 1.21875-.40625 1.5625-.625.14062.39063.3125.625.6875.625.39062 0 .82812-.10937 1.23437-.3125l-.07812-.25c-.14063.03125-.375.04688-.53125 0-.1875-.04687-.35938-.23437-.35938-.89062v-2.53125c0-.60938-.14062-1.39063-1.71875-1.39063-1.17187 0-2.10937.60938-2.10937 1.1875 0 .32813.39062.48438.59375.48438.21874 0 .26562-.10938.32812-.28125.23438-.78125.65625-1.03125 1.07813-1.03125.40625 0 .875.21875.875 1.04687v.4375c-.26563.26563-1.28125.53125-2.09375.79688-.76563.23437-.96875.76562-.96875 1.25M1.5625-1.5c0-.48437.23438-.75.8125-.96875.42188-.15625.96875-.35937 1.20313-.5v1.48438c0 .84375-.64063 1.04687-1.04688 1.04687-.65625 0-.96875-.45312-.96875-1.0625m0 0"/><path id="e" d="m.26563-4.73437.40625.0625C.9375-4.625 1-4.57812 1-4.20312v2.75C1-.25 1.71875.125 2.48438.125c.89062 0 1.625-.60937 1.92187-.75L4.5 0h1.6875v-.29687c-.71875-.0625-.79687-.07813-.79687-.60938V-5.1875L5.3125-5.25l-1.625.26563v.25l.39063.0625c.26562.04687.34375.09375.34375.46875v2.35937c0 .28125-.03125.51563-.09375.625-.25.46875-.73438.78125-1.28125.78125-.60938 0-1.0625-.39062-1.0625-1.20312V-5.1875L1.90625-5.25l-1.64062.26563Zm0 0"/><path id="f" d="M.32813-4.70312h.75v3.64062C1.07813 0 1.875.125 2.23438.125c.53125 0 1.03125-.26562 1.34375-.45312L3.5-.5625c-.26562.10938-.48437.14063-.75.14063-.35937 0-.6875-.25-.6875-1.04688v-3.23437h1.34375V-5.125H2.0625v-1.3125H1.75L1.125-5.125H.32813Zm0 0"/><path id="g" d="M.51563-2.53125C.51563-.875 1.21875.125 2.92188.125c1.15625 0 1.76562-.64062 2.04687-1.46875l-.3125-.17187c-.29687.60937-.70312 1.10937-1.51562 1.10937-1.3125 0-1.5625-1.25-1.53125-2.34375h3c.23437 0 .42187-.04687.42187-.39062 0-.625-.20312-2.10938-2.10937-2.10938C1.28125-5.25.51563-4.09375.51563-2.53125m1.09375-.60937c0-.4375.15624-1.75 1.25-1.75.96875 0 1.07812 1 1.07812 1.40625 0 .20312-.0625.34375-.35937.34375Zm0 0"/><path id="h" d="M.32813 0h2.76562v-.29687c-.9375-.0625-.98437-.07813-.98437-.60938v-2.45312c0-.79688.34375-1.07813.59375-1.07813.17187 0 .34375.0625.64062.23438.07813.04687.15625.04687.21875.04687.25 0 .46875-.26562.46875-.57812 0-.23438-.14062-.51563-.54687-.51563-.375 0-.6875.21875-1.375.82813l-.125-.82813-1.59375.26563v.25l.39062.0625c.26563.04687.34375.09375.34375.46875v3.29687c0 .53125-.0625.54688-.79687.60938Zm0 0"/><path id="i" d="M.35938 0h3.25c1.59375 0 2.60937-.5625 2.60937-2.03125 0-1.23437-.875-1.78125-1.89062-1.90625v-.01562c.98437-.20313 1.5625-.8125 1.5625-1.625 0-.57813-.23438-1.01563-.65625-1.28125-.40625-.26563-1-.375-1.84375-.375H.35938v.29687c.9375.07813.95312.07813.95312.67188v5.29687c0 .59375-.01562.60938-.95312.67188Zm1.98437-1.17187v-2.54688h.75c1.29688 0 2.01563.64063 2.01563 1.76563 0 1.25-.85938 1.59375-1.76563 1.59375-.82812 0-1-.15625-1-.8125m0-2.90625v-2.28125c0-.4375.03125-.51563.84375-.51563.76563 0 1.60938.28125 1.60938 1.375 0 1.01563-.65625 1.42188-1.75 1.42188Zm0 0"/><path id="j" d="M.48438-1.75.59375-.375c.39063.32813 1.01563.5 1.625.5 1.25 0 1.96875-.65625 1.96875-1.54687 0-.92188-.57812-1.34375-1.65625-1.67188-.42187-.125-1.10937-.35937-1.10937-.9375 0-.54687.40625-.85937.9375-.85937.75 0 1.09375.57812 1.17187 1.21875h.3125v-1.21875C3.5-5.15625 2.95313-5.25 2.48438-5.25c-1.125 0-1.89063.53125-1.89063 1.51563 0 .875.70313 1.26562 1.57813 1.53125.46875.14062 1.125.375 1.125 1.09375 0 .53125-.42188.85937-.96875.85937C1.48438-.25 1-.85937.79688-1.75Zm0 0"/><clipPath id="a"><path d="M.1289 0h141.01173v41H.1289Zm0 0"/></clipPath><clipPath id="b"><path d="M.1289 35H106v1H.1289Zm0 0"/></clipPath></defs><path fill="none" stroke="red" stroke-miterlimit="10" stroke-width=".39536" d="M88.21097 35.35156v-7.03125h7.03125v7.03125h-7.03125"/><g clip-path="url(#a)"><path fill="none" stroke="#000" stroke-miterlimit="10" stroke-width=".39536" d="M.32422 35.35156H105.7891L140.94537.1953H35.48048Zm0 0"/></g><path fill="none" stroke="#007F7F" stroke-miterlimit="10" stroke-width=".39536" d="M88.21097.1953v35.15626"/><g clip-path="url(#b)"><path fill="none" stroke="#FF7F00" stroke-miterlimit="10" stroke-width=".39536" d="M.32422 35.35156H105.7891"/></g><use xlink:href="#c" x="44.6271" y="21.32792" fill="#007F7F"/><g fill="#007F7F"><use xlink:href="#d" x="52.71121" y="21.32792"/><use xlink:href="#e" x="58.17104" y="21.32792"/><use xlink:href="#f" x="64.49822" y="21.32792"/><use xlink:href="#g" x="68.08992" y="21.32792"/><use xlink:href="#e" x="73.46079" y="21.32792"/><use xlink:href="#h" x="79.78797" y="21.32792"/></g><use xlink:href="#i" x="42.05449" y="46.94483" fill="#FF7F00"/><g fill="#FF7F00"><use xlink:href="#d" x="48.6819" y="46.94483"/><use xlink:href="#j" x="54.14174" y="46.94483"/><use xlink:href="#g" x="58.68974" y="46.94483"/></g></svg>