<svg xmlns="http://www.w3.org/2000/svg" xmlns:xlink="http://www.w3.org/1999/xlink" width="238.509pt" height="181.816pt" viewBox="0 0 238.509 181.816"><defs><path id="a" d="m2.70313-2.03125.78125.78125 3.23437-3.26562L9.98438-1.25l.75-.78125L7.5-5.26562l3.23438-3.26563-.75-.75-3.26563 3.23438-3.23437-3.23438-.78125.75 3.26562 3.26563Zm0 0"/><path id="b" d="M-.35937 0h4.21875l.125-.53125L2.9375-.64062c-.23437-.01563-.32812-.14063-.32812-.3125 0-.09376.03125-.23438.09375-.375C3.32813-2.53125 3.92188-3.73437 4.60938-5H8.8125l.45313 3.85938s-.09375.46875-.5.5l-.98438.10937L7.67188 0h4.59375l.125-.53125-.71875-.0625c-.57813-.0625-.65625-.32812-.75-1.09375l-1.375-11.23437H8.21875l-3.14062 5.5C4.125-5.75 2.5625-2.96875 1.875-1.84375 1.26563-.875.95313-.67187.375-.60937l-.60937.07812ZM5-5.70312l3.03125-5.5.6875 5.5Zm0 0"/><path id="c" d="M0 0h5.67188c4.51562 0 5.42187-2.32812 5.42187-3.875 0-1.96875-1.45312-2.82812-2.8125-3.09375L8.29688-7c2.48437-.29687 3.53125-1.71875 3.53125-3.125 0-1.51562-.89063-2.79687-4.32813-2.79687H2.76563l-.125.53125 1.125.09375c.3125.03125.45312.15625.45312.46875 0 .10937-.04687.26562-.07812.45312L1.92188-1.54687c-.125.60937-.3125.82812-.76563.89062l-1.0625.125Zm3.73438-1.4375c0-.14062.03125-.26562.0625-.40625L4.875-6.64062h.73438c1.84375 0 3.48437.53125 3.48437 2.65625 0 1.67187-1.01562 3.32812-3.53125 3.32812-1.46875 0-1.82812-.29687-1.82812-.78125m1.28125-5.85937.96875-4.34375c.14062-.54688.23437-.65625 1.5-.65625 1.5625 0 2.4375.79687 2.4375 2.10937 0 1.95313-1.625 2.89063-3.70313 2.89063Zm0 0"/><path id="d" d="M.96875-5.125c0 2.45313 1.21875 5.40625 5.85938 5.40625C8.15625.28125 9.42188.09375 10.625-.5l.90625-2.98437h-.54687C9.9375-1.60937 9.01563-.375 6.70313-.375c-2.17188 0-3.71875-1.39062-3.71875-4.28125 0-1.6875.4375-3.75 1.32812-5.25.9375-1.57812 2.40625-2.67187 4.42188-2.67187 2.35937 0 3.04687 1.09375 3.04687 3.15625h.57813l.67187-2.8125c-1.07812-.67188-2.82812-1-4.14062-1-3.51563 0-5.54688 1.65625-6.64063 3.40625C1.21875-8.15625.96875-6.42187.96875-5.125m0 0"/><path id="e" d="M0 0h5.73438c3.73437 0 5.90625-1.35937 7.25-3.375 1.07812-1.625 1.25-3.1875 1.25-4.29687 0-1.51563-.53125-3.03125-1.60938-3.92188-1.09375-.92187-2.76562-1.32812-4.82812-1.32812H2.76563l-.125.53125 1.125.07812c.3125.01563.4375.17188.4375.48438 0 .10937-.03125.26562-.0625.45312L1.90625-1.54687c-.14062.60937-.29687.84375-.75.89062l-1.0625.125Zm3.70313-1.375c0-.07812 0-.15625.01562-.23437l2.25-9.98438c.15625-.64062.42188-.70312 2.04688-.70312 3.90625.07812 4.21875 2.70312 4.21875 4.20312 0 1.60938-.375 3.125-1.21875 4.51563C9.9375-1.82812 8.35938-.65625 5.25-.65625c-.90625 0-1.54687-.125-1.54687-.71875m0 0"/><clipPath id="f"><path d="M11 .09375h103v181.44531H11Zm0 0"/></clipPath><clipPath id="g"><path d="M51 21h187.01953v21H51Zm0 0"/></clipPath><clipPath id="h"><path d="M121 .09375h103v181.44531H121Zm0 0"/></clipPath></defs><use xlink:href="#a" x="84.00008" y="38.8821"/><use xlink:href="#b" x="70.8711" y="27.21412"/><use xlink:href="#a" x="27.42454" y="152.03516"/><use xlink:href="#c" x="41.17025" y="167.34265"/><use xlink:href="#a" x="140.57661" y="146.37781"/><use xlink:href="#d" x="154.32331" y="161.98268"/><use xlink:href="#a" x="197.15314" y="33.22475"/><use xlink:href="#e" x="182.21389" y="21.55677"/><g clip-path="url(#f)"><path fill="none" stroke="#000" stroke-miterlimit="10" stroke-width=".39768" d="M17.17187 181.33986 107.69534.2929"/></g><g clip-path="url(#g)"><path fill="none" stroke="#000" stroke-miterlimit="10" stroke-width=".39768" d="m237.8243 26.88276-181.05085 9.0547"/></g><g clip-path="url(#h)"><path fill="none" stroke="#000" stroke-miterlimit="10" stroke-width=".39768" d="M127.49613 181.33986 218.0196.2929"/></g><path fill="none" stroke="#000" stroke-miterlimit="10" stroke-width=".39768" d="m.1992 149.08984 181.04695-9.05078"/></svg>