<svg xmlns="http://www.w3.org/2000/svg" xmlns:xlink="http://www.w3.org/1999/xlink" width="227.17pt" height="82.426pt" viewBox="0 0 227.17 82.426"><defs><path id="c" d="M.59375 0H5.25v-.48437c-1.45312-.10938-1.48437-.125-1.48437-1.0625v-4.17188H9.625v4.17188c0 .9375-.04687.95312-1.51562 1.0625V0h4.65625v-.48437c-1.45313-.10938-1.48438-.125-1.48438-1.0625v-8.48438c0-.9375.03125-.95312 1.48438-1.0625v-.48437H8.10938v.48437c1.46875.10938 1.51562.125 1.51562 1.0625v3.6875H3.76563v-3.6875c0-.9375.03125-.95312 1.48437-1.0625v-.48437H.59375v.48437c1.46875.10938 1.51563.125 1.51563 1.0625v8.48438c0 .9375-.04688.95312-1.51563 1.0625Zm0 0"/><path id="d" d="M.8125-2.17187c0 1.25.84375 2.375 2.40625 2.375.98438 0 1.96875-.64063 2.5-1 .23438.625.51563 1 1.10938 1 .625 0 1.32812-.1875 1.96875-.5L8.6875-.6875c-.23437.04688-.59375.0625-.84375 0C7.53125-.76562 7.25-1.0625 7.25-2.125v-4.0625c0-.96875-.21875-2.21875-2.75-2.21875-1.875 0-3.375.98438-3.375 1.90625 0 .53125.625.78125.9375.78125.35938 0 .45313-.17187.53125-.46875.375-1.23437 1.0625-1.625 1.73438-1.625.65625 0 1.40625.32813 1.40625 1.67188v.6875c-.42188.4375-2.04688.85937-3.35938 1.28125-1.21875.375-1.5625 1.21875-1.5625 2m1.70313-.23438c0-.78125.35937-1.1875 1.29687-1.54687.67188-.25 1.54688-.57813 1.92188-.79688v2.35938c0 1.35937-1.03125 1.70312-1.6875 1.70312-1.03125 0-1.53125-.73437-1.53125-1.71875m0 0"/><path id="e" d="m.42188-7.5625.64062.07813c.4375.07812.54688.14062.54688.75v4.42187c0 1.92188 1.14062 2.51563 2.375 2.51563 1.4375 0 2.59375-.96875 3.0625-1.20313l.17187 1h2.6875v-.48437C8.75-.5625 8.64063-.60937 8.64063-1.45312v-6.84375l-.125-.10938-2.625.42188v.42187l.64062.07813c.4375.07812.54688.14062.54688.75v3.78125c0 .45312-.0625.82812-.15625 1C6.53125-1.1875 5.75-.6875 4.875-.6875c-.96875 0-1.6875-.625-1.6875-1.9375v-5.67187l-.125-.10938-2.64062.42188Zm0 0"/><path id="f" d="M.51563-7.53125h1.21875v5.82813C1.73438 0 3 .20313 3.57813.20313c.85937 0 1.65625-.4375 2.14062-.73438l-.125-.35937c-.40625.15624-.76562.21874-1.1875.21874-.57812 0-1.10937-.42187-1.10937-1.67187v-5.1875h2.15625v-.6875H3.29688v-2.09375H2.8125L1.79688-8.21875H.51563Zm0 0"/><path id="g" d="M.8125-4.04687c0 2.65625 1.14063 4.25 3.875 4.25 1.84375 0 2.8125-1.04688 3.25-2.35938l-.48437-.26562c-.46875.98437-1.10938 1.76562-2.4375 1.76562-2.07813 0-2.48438-2-2.45313-3.75h4.82813c.35937 0 .65625-.07812.65625-.64062 0-.96875-.3125-3.35938-3.375-3.35938-2.625 0-3.85938 1.84375-3.85938 4.35938m1.76563-1c0-.6875.25-2.76563 2-2.76563 1.54687 0 1.73437 1.57813 1.73437 2.23438 0 .32812-.10937.53125-.57812.53125Zm0 0"/><path id="h" d="M.53125 0h4.42188v-.48437c-1.5-.07813-1.59375-.125-1.59375-.96875V-5.375c0-1.28125.57812-1.73437.96875-1.73437.26562 0 .54687.10937 1.03125.375.125.07812.25.09375.34375.09375.40625 0 .76562-.4375.76562-.95313 0-.375-.23437-.8125-.89062-.8125-.60938 0-1.10938.35938-2.21875 1.32813l-.1875-1.32813L.625-7.98437v.42187l.625.07813c.42188.07812.54688.14062.54688.75v5.28125c0 .84375-.09376.89062-1.26563.96875Zm0 0"/><path id="i" d="M.59375 0h5.17188c2.54687 0 4.1875-.90625 4.1875-3.23437 0-1.98438-1.40625-2.85938-3.03125-3.07813v-.03125c1.57812-.3125 2.5-1.29687 2.5-2.57812 0-.92188-.35938-1.625-1.03125-2.0625-.65625-.4375-1.625-.59375-2.95313-.59375H.59375v.48437c1.46875.10938 1.51563.125 1.51563 1.0625v8.48438c0 .9375-.04688.95312-1.51563 1.0625Zm3.17188-1.875v-4.07812h1.1875c2.07812 0 3.21875 1.03125 3.21875 2.8125 0 2.01562-1.375 2.54687-2.8125 2.54687-1.32813 0-1.59375-.25-1.59375-1.28125m0-4.65625v-3.64062c0-.71875.04687-.84375 1.34375-.84375 1.23437 0 2.5625.46875 2.5625 2.20312 0 1.64063-1.04688 2.28125-2.79688 2.28125Zm0 0"/><path id="j" d="m.78125-2.79687.1875 2.1875c.59375.53125 1.60938.8125 2.59375.8125 2 0 3.14063-1.0625 3.14063-2.48438 0-1.48437-.92188-2.14062-2.64063-2.67187-.70312-.21875-1.78125-.5625-1.78125-1.51563 0-.875.65625-1.34375 1.5-1.34375 1.1875 0 1.76563.92188 1.89063 1.9375h.46875v-1.96875c-.54688-.40625-1.40625-.5625-2.15625-.5625-1.8125 0-3.04688.85938-3.04688 2.4375 0 1.39063 1.14063 2.01563 2.53125 2.4375.75.23438 1.79688.60938 1.79688 1.75 0 .85938-.65625 1.39063-1.54688 1.39063-1.34375 0-2.10937-.98438-2.45312-2.40625Zm0 0"/><clipPath id="a"><path d="M.375 0h225.59766v63H.375Zm0 0"/></clipPath><clipPath id="b"><path d="M.375 56H170v1H.375Zm0 0"/></clipPath></defs><path fill="none" stroke="red" stroke-miterlimit="10" stroke-width=".39574" d="M141.32417 56.5V45.23829h11.26172V56.5h-11.26172"/><g clip-path="url(#a)"><path fill="none" stroke="#000" stroke-miterlimit="10" stroke-width=".39574" d="M.57031 56.5h168.9062L225.77726.19533H56.87107Zm0 0"/></g><path fill="none" stroke="#007F7F" stroke-miterlimit="10" stroke-width=".39574" d="M141.32417.19533V56.5"/><g clip-path="url(#b)"><path fill="none" stroke="#FF7F00" stroke-miterlimit="10" stroke-width=".39574" d="M.57031 56.5h168.9062"/></g><use xlink:href="#c" x="71.52093" y="34.03797" fill="#007F7F"/><g fill="#007F7F"><use xlink:href="#d" x="84.46788" y="34.03797"/><use xlink:href="#e" x="93.21198" y="34.03797"/><use xlink:href="#f" x="103.34515" y="34.03797"/><use xlink:href="#g" x="109.09737" y="34.03797"/><use xlink:href="#e" x="117.699" y="34.03797"/><use xlink:href="#h" x="127.83217" y="34.03797"/></g><use xlink:href="#i" x="67.40062" y="75.06526" fill="#FF7F00"/><g fill="#FF7F00"><use xlink:href="#d" x="78.01463" y="75.06526"/><use xlink:href="#j" x="86.75872" y="75.06526"/><use xlink:href="#g" x="94.0425" y="75.06526"/></g></svg>