<svg xmlns="http://www.w3.org/2000/svg" xmlns:xlink="http://www.w3.org/1999/xlink" width="235.961pt" height="137.992pt" viewBox="0 0 235.961 137.992"><defs><path id="a" d="m1.6875-1.26562.48438.48437 2.03125-2.04687L6.25-.78125l.46875-.48437L4.6875-3.29687l2.03125-2.04688L6.25-5.8125 4.20313-3.78125 2.17188-5.8125l-.48438.46875 2.04688 2.04688Zm0 0"/><path id="b" d="M.95313-2C.95313-.42187 2.10938.17188 3.8125.17188c1.59375 0 3.04688-.32813 3.70313-3.0625L8.5-7.125c.10938-.39062.20313-.5625.5-.57812l.65625-.0625.0625-.32813h-3.1875l-.09375.32813.6875.0625c.20313 0 .29688.10937.29688.3125 0 .07812-.01563.17187-.03125.26562L6.4375-3.03125C6.07813-1.48437 5.5-.23437 3.875-.23437c-1.03125 0-1.76562-.45313-1.76562-1.75 0-.3125.0625-.71875.15625-1.17188l.9375-3.96875c.09375-.39062.1875-.5625.48437-.57812l.64063-.0625.07812-.32813H1.20313l-.07813.32813.6875.0625c.20313 0 .29688.10937.29688.3125 0 .0625-.01563.15625-.04688.26562L1.07813-3c-.07813.375-.125.70313-.125 1m0 0"/><path id="c" d="M0 0h3.20313l.07812-.34375-.70312-.0625c-.20313 0-.29688-.09375-.29688-.28125q0-.11718.04688-.28125l.64062-2.84375h.70313c1.14062 0 1.29687.28125 1.29687 1.64063C4.96875-.75 4.96875 0 6.20313 0h.90625l.10937-.34375C6.40625-.45312 6.10938-.48437 6.10938-2c0-1.1875-.09375-1.70312-1.0625-2.01562 1.42187-.20313 2.40625-1.04688 2.40625-2.20313 0-.82812-.375-1.875-2.5625-1.875H1.75l-.09375.32813.70313.0625c.1875 0 .28125.10937.28125.3125 0 .0625-.01563.15625-.03125.26562L1.20313-.96875c-.10938.40625-.20313.53125-.5.5625l-.64063.0625Zm3.0625-4.21875L3.75-7.25c.07813-.32812.125-.45312 1-.45312.76563 0 1.46875.34375 1.46875 1.35937 0 1.40625-.90625 2.125-2.40625 2.125Zm0 0"/><path id="d" d="M.375-.78125c.45313.60938 1.57813.95313 2.4375.95313C5.07813.15625 5.78125-1.15625 5.78125-2.42187c0-1.04688-.57812-1.71875-1.76562-2.32813-.67188-.34375-1.5-.73437-1.5-1.625 0-.82812.60937-1.5 1.625-1.5 1.1875 0 1.40625.54688 1.40625 1.82813h.35937L6.3125-7.6875c-.5-.39062-1.375-.59375-2.09375-.59375-2.04687 0-2.6875 1.34375-2.6875 2.32813 0 1.09375.75 1.67187 1.6875 2.125.9375.48437 1.51563.96875 1.51563 1.89062 0 .98438-.78125 1.70313-1.76563 1.70313-1.57812 0-1.875-1.20313-1.95312-2.34375H.67188Zm0 0"/><path id="e" d="M.64063 0H2.625v-.1875l-.45312-.04687C2.04688-.25 1.98438-.28125 1.98438-.5v-3.4375l-.04688-.03125-1.29687.20313v.17187l.46875.0625c.125.03125.17187.07813.17187.26563V-.5c0 .21875-.0625.25-.20312.26563l-.4375.04687Zm0 0"/><path id="f" d="M.23438-1.95312c0 1.125.34375 2.01562 1.375 2.01562 1.01562 0 1.375-.89062 1.375-2.01562s-.35938-2.01563-1.375-2.01563c-1.03125 0-1.375.89063-1.375 2.01563m.73437 0c0-.82813.10938-1.79688.64063-1.79688.51562 0 .625.96875.625 1.79688 0 .82812-.10938 1.79687-.625 1.79687-.53125 0-.64063-.96875-.64063-1.79687m0 0"/><path id="g" d="M.21875-3.17187c0 .45312.35938.8125.79688.8125s.8125-.35938.8125-.8125c0-.42188-.375-.79688-.8125-.79688s-.79688.375-.79688.79688m.32813 0c0-.29688.21874-.51563.46875-.51563.26562 0 .48437.21875.48437.51563 0 .3125-.23437.53125-.48437.53125s-.46875-.21875-.46875-.53125m0 0"/></defs><path fill="none" stroke="#000" stroke-miterlimit="10" stroke-width=".39844" d="m17.93749 121.16018 43.9297-104.51174 159.07035 7.79687"/><use xlink:href="#a" x="13.72873" y="124.0669"/><use xlink:href="#b" x="4.15031" y="133.65231"/><use xlink:href="#a" x="57.65847" y="19.55717"/><use xlink:href="#c" x="49.39984" y="12.25038"/><use xlink:href="#a" x="216.72718" y="27.35088"/><use xlink:href="#d" x="225.33476" y="19.87012"/><path fill="none" stroke="#000" stroke-miterlimit="10" stroke-width=".39844" d="M57.75 26.44922c3.5 1.46875 7.51953.96094 10.54297-1.33594 2.5-1.89843 4.03516-4.8086 4.1875-7.94531"/><use xlink:href="#e" x="65.09124" y="32.99395"/><use xlink:href="#e" x="68.29744" y="32.99395"/><use xlink:href="#f" x="71.50363" y="32.99395"/><use xlink:href="#g" x="74.70983" y="32.99395"/></svg>