<svg xmlns="http://www.w3.org/2000/svg" xmlns:xlink="http://www.w3.org/1999/xlink" width="340.556pt" height="227.17pt" viewBox="0 0 340.556 227.17"><defs><path id="b" d="m2.70313-2.03125.76562.78125 3.25-3.26562 3.25 3.26562.75-.78125-3.23437-3.23437 3.23437-3.25-.75-.76563-3.25 3.25-3.25-3.25-.76562.76563 3.25 3.25Zm0 0"/><path id="c" d="M.20313 0h9.71875l.96875-3.28125h-.5625c-.95313 2.3125-1.78125 2.625-4.09375 2.625-2.20313 0-2.32813-.28125-2.32813-.78125 0-.1875.0625-.46875.14063-.84375L5-6.375h2.45313c1.39062 0 1.64062.28125 1.64062 1.09375 0 .15625 0 .3125-.01562.51563H9.625l.875-3.89063h-.57812C9.45313-7.375 9.25-7.0625 7.60938-7.0625H5.15625l1.0625-4.65625c.09375-.45312.21875-.54687.53125-.54687H9c1.82813 0 2.20313.46875 2.20313 1.48437 0 .45313-.0625.96875-.0625.96875h.5625l.6875-3.09375h-9.4375l-.14063.53125 1.14063.07813c.3125.03125.45312.15625.45312.45312 0 .125-.01562.26563-.0625.4375L2.125-1.54687c-.15625.64062-.3125.85937-.78125.89062l-1.04687.125Zm0 0"/><path id="d" d="M.20313 0H5.625l.10938-.53125-1.40625-.10937c-.34375-.01563-.46875-.17188-.46875-.45313 0-.125.01562-.23437.04687-.39062L4.9375-6.09375h2.48438c1.375 0 1.64062.25 1.64062 1.04688 0 .15625 0 .34375-.03125.53125h.5625l.875-3.90625h-.5625C9.4375-7.10937 9.21875-6.8125 7.5625-6.8125H5.10938l1.10937-4.89062c.10938-.46875.21875-.5625.54688-.5625H9.0625c1.82813 0 2.17188.46875 2.17188 1.46875 0 .46875-.04688.96875-.04688.96875h.5625l.70313-3.07813h-9.5l-.10938.53125 1.10938.10938c.3125.01562.45312.17187.45312.46875 0 .09375-.01562.23437-.0625.375L2.125-1.48437c-.14062.54687-.3125.8125-.78125.84375L.29688-.53125Zm0 0"/><path id="e" d="M.79688-5.32812c0 1.875.60937 3.40625 1.59375 4.23437C3.46875-.14062 5 .28125 6.73438.28125c1.375 0 2.875-.32812 3.95312-.71875l.89063-3.76562c.15625-.64063.26562-.90625.57812-.9375l.8125-.07813.125-.54687h-4.9375l-.09375.54687 1.39063.10938c.26562.03125.375.14062.375.4375 0 .125-.01563.26562-.0625.46875l-.67188 2.8125C8.95313-.85937 8.71875-.375 6.76563-.375c-2.25 0-3.90625-1.51562-3.90625-4.8125 0-2.96875 1.45312-7.35937 5.92187-7.35937 2.4375 0 2.85938 1.42187 2.96875 3.1875h.5625l.67188-2.90625c-1.125-.625-2.625-.9375-4.1875-.9375-2.85938 0-4.92188 1.03125-6.23438 2.70312C1.32813-8.9375.79688-6.96875.79688-5.32812m0 0"/><clipPath id="a"><path d="M.39844 0h339.3164v226.34375H.39844Zm0 0"/></clipPath></defs><g stroke="#000" stroke-miterlimit="10" stroke-width=".39705" clip-path="url(#a)"><path fill="#FFF" d="M.59766 226.14453V.19523h338.92199v225.9493Zm0 0"/><path fill="none" stroke-dasharray=".39704946 1.985297118" d="M.59766 226.14453h338.92199m-338.922-28.2422h338.922m-338.922-28.2461h338.922m-338.922-28.2422h338.922m-338.922-28.2422h338.922M.59765 84.92574h338.922M.59765 56.68353h338.922M.59765 28.44133h338.922M.59765.19524h338.922M.59765 226.14453V.19523m28.2422 225.9493V.19523m28.2461 225.9493V.19523m28.2422 225.9493V.19523m28.2422 225.9493V.19523m28.2461 225.9493V.19523m28.2422 225.9493V.19523m28.2422 225.9493V.19523m28.2461 225.9493V.19523m28.2422 225.9493V.19523m28.2422 225.9493V.19523m28.2461 225.9493V.19523m28.2422 225.9493V.19523"/></g><use xlink:href="#b" x="50.37309" y="174.29319"/><use xlink:href="#b" x="219.83294" y="146.05038"/><use xlink:href="#b" x="276.31956" y="61.32095"/><use xlink:href="#c" x="37.48319" y="189.57635"/><use xlink:href="#d" x="233.5568" y="161.33255"/><use xlink:href="#e" x="290.04342" y="49.39353"/></svg>