<svg xmlns="http://www.w3.org/2000/svg" xmlns:xlink="http://www.w3.org/1999/xlink" width="268.245" height="204.472" viewBox="0 0 268.245 204.472"><defs><path id="a" d="m3.04688-2.28125.85937.875L7.5625-5.07812l3.65625 3.67187.85938-.875-3.65625-3.64062 3.65625-3.67188-.85938-.84375L7.5625-6.79687 3.90625-10.4375l-.85937.84375 3.65625 3.67188Zm0 0"/><path id="b" d="M-.40625 0h4.75l.125-.60937L3.3125-.71875c-.26562-.01562-.39062-.15625-.39062-.35937 0-.10938.04687-.26563.125-.42188.6875-1.34375 1.35937-2.70312 2.14062-4.10937h4.71875l.51563 4.32812s-.10938.51563-.5625.5625L8.75-.60937 8.625 0h5.17188l.14062-.60937-.8125-.0625c-.65625-.0625-.73437-.35938-.84375-1.23438l-1.54687-12.625h-1.5l-3.53125 6.1875c-1.07813 1.875-2.8125 5.01563-3.59375 6.26563C1.4375-.98437 1.07813-.76562.42188-.6875l-.6875.07813Zm6.01563-6.42187 3.42187-6.17188.76563 6.17188Zm0 0"/><path id="c" d="M0 0h6.375c5.07813 0 6.09375-2.60937 6.09375-4.35937 0-2.21875-1.625-3.17188-3.17187-3.46875l.03125-.04688c2.79687-.32812 3.96875-1.92187 3.96875-3.5 0-1.70312-1-3.15625-4.875-3.15625h-5.3125l-.14063.59375 1.25.125c.35938.01563.51563.17188.51563.51563 0 .125-.03125.3125-.07813.5L2.17188-1.75c-.15625.70313-.35938.9375-.875 1.01563l-1.1875.125Zm4.20313-1.60937c0-.15626.01562-.3125.0625-.46875l1.21875-5.39063h.82812c2.07813 0 3.90625.60938 3.90625 3 0 1.875-1.14062 3.73438-3.95312 3.73438-1.65625 0-2.0625-.34375-2.0625-.875m1.4375-6.59375 1.09375-4.875c.15625-.625.26562-.73438 1.67187-.73438 1.76563 0 2.75.89063 2.75 2.35938 0 2.20312-1.82812 3.25-4.15625 3.25Zm0 0"/><path id="d" d="M1.09375-5.76562C1.09375-3 2.45313.3125 7.67188.3125c1.5 0 2.92187-.20312 4.26562-.875l1.03125-3.34375h-.625C11.17188-1.8125 10.125-.42187 7.53125-.42187c-2.4375 0-4.17187-1.5625-4.17187-4.8125 0-1.89063.48437-4.21875 1.5-5.90625C5.90625-12.90625 7.5625-14.125 9.8125-14.125c2.65625 0 3.42188 1.21875 3.42188 3.53125h.65625l.75-3.15625C13.4375-14.51562 11.46875-14.875 10-14.875c-3.96875 0-6.25 1.85938-7.46875 3.82813-1.17187 1.875-1.4375 3.82812-1.4375 5.28125m0 0"/><path id="e" d="M0 0h6.4375c4.20313 0 6.64063-1.51562 8.15625-3.79687C15.8125-5.60937 16.01563-7.375 16.01563-8.625c0-1.70312-.60938-3.40625-1.8125-4.40625-1.23438-1.03125-3.10938-1.5-5.4375-1.5H3.10938l-.14063.59375 1.25.09375c.35938.03125.5.20313.5.54688 0 .125-.01562.3125-.0625.5L2.14063-1.75c-.15625.70313-.32813.96875-.84375 1.01563l-1.1875.125Zm4.15625-1.54687c0-.07813 0-.17188.03125-.26563l2.51563-11.21875c.1875-.71875.46875-.78125 2.3125-.78125 4.375.07813 4.73437 3.03125 4.73437 4.71875 0 1.79688-.42187 3.5-1.35937 5.0625-1.21875 1.96875-3 3.29688-6.48438 3.29688-1.03125 0-1.75-.14063-1.75-.8125m0 0"/><clipPath id="f"><path d="M13 .02344h114v203.89844H13Zm0 0"/></clipPath><clipPath id="g"><path d="M58 24h209.49219v22H58Zm0 0"/></clipPath><clipPath id="h"><path d="M137 .02344h114v203.89844H137Zm0 0"/></clipPath></defs><use xlink:href="#a" x="94.39332" y="43.59804"/><use xlink:href="#b" x="79.63386" y="30.48196"/><use xlink:href="#a" x="30.80031" y="170.78606"/><use xlink:href="#c" x="46.25282" y="187.99363"/><use xlink:href="#a" x="157.98733" y="164.42596"/><use xlink:href="#d" x="173.43984" y="181.96858"/><use xlink:href="#a" x="221.58134" y="37.23894"/><use xlink:href="#e" x="204.78761" y="24.12186"/><g clip-path="url(#f)"><path fill="none" stroke="#000" stroke-miterlimit="10" stroke-width=".39738" d="M19.27735 203.72264 121.02732.2188"/></g><g clip-path="url(#g)"><path fill="none" stroke="#000" stroke-miterlimit="10" stroke-width=".39738" d="M267.2968 30.10942 63.79296 40.2852"/></g><g clip-path="url(#h)"><path fill="none" stroke="#000" stroke-miterlimit="10" stroke-width=".39738" d="M143.28512 203.72264 245.039.2188"/></g><path fill="none" stroke="#000" stroke-miterlimit="10" stroke-width=".39738" d="m.19923 167.47656 203.49994-10.17578"/></svg>