<svg xmlns="http://www.w3.org/2000/svg" xmlns:xlink="http://www.w3.org/1999/xlink" width="377.537pt" height="220.787pt" viewBox="0 0 377.537 220.787"><defs><path id="a" d="m2.70313-2.03125.78125.78125 3.25-3.26562L10-1.25l.75-.78125-3.25-3.25 3.25-3.26562-.75-.75-3.26562 3.25-3.25-3.25-.78125.75 3.26562 3.26562Zm0 0"/><path id="b" d="M1.53125-3.20312c0 2.53125 1.85938 3.48437 4.5625 3.48437 2.54688 0 4.875-.54687 5.90625-4.90625l1.59375-6.76562c.15625-.625.32813-.89063.79688-.9375l1.03125-.07813.125-.53125H10.4375l-.14062.53125 1.09375.07813c.3125.03125.46875.1875.46875.53125 0 .10937-.01563.25-.0625.40625l-1.5 6.53125C9.71875-2.375 8.79688-.375 6.1875-.375c-1.65625 0-2.79687-.71875-2.79687-2.79687 0-.51563.07812-1.14063.23437-1.85938l1.48438-6.35937c.17187-.625.3125-.89063.78125-.9375l1.03125-.07813.125-.53125H1.9375l-.14062.53125 1.10937.07813c.3125.03125.45313.1875.45313.5 0 .125-.01563.26562-.0625.4375l-1.5625 6.59375c-.14063.59375-.20313 1.10937-.20313 1.59375m0 0"/><path id="c" d="M0 0h5.10938l.125-.53125L4.125-.64062c-.32812-.01563-.48437-.15626-.48437-.45313 0-.125.04687-.28125.07812-.45312l1.01563-4.54688H5.875c1.8125 0 2.0625.4375 2.0625 2.625C7.9375-1.1875 7.9375 0 9.90625 0h1.45313l.1875-.53125c-1.3125-.1875-1.76563-.25-1.76563-2.65625 0-1.90625-.17187-2.71875-1.71875-3.25 2.28125-.3125 3.84375-1.64062 3.84375-3.5 0-1.32812-.57812-3-4.07812-3H2.78125l-.14062.53125 1.125.07813c.3125.03125.45312.1875.45312.5 0 .125-.01562.26562-.0625.4375l-2.25 9.84375c-.15625.65625-.3125.84375-.76562.89062l-1.04688.125Zm4.89063-6.75 1.09375-4.82812c.14062-.54688.20312-.71875 1.625-.71875 1.20312 0 2.34375.53125 2.34375 2.17187 0 2.21875-1.45313 3.375-3.85938 3.375Zm0 0"/><path id="d" d="M.59375-1.25C1.32813-.28125 3.125.28125 4.5.28125c3.625-.04687 4.73438-2.125 4.73438-4.14062 0-1.6875-.90625-2.75-2.79688-3.71875-1.10937-.5625-2.42187-1.20313-2.42187-2.60938 0-1.34375.98437-2.39062 2.60937-2.39062 1.89063 0 2.25.875 2.25 2.92187h.5625l.65625-2.625c-.79687-.64062-2.1875-.95312-3.34375-.95312-3.26562 0-4.29687 2.14062-4.29687 3.71875 0 1.75 1.1875 2.67187 2.70312 3.40625 1.5.75 2.40625 1.53125 2.40625 3.03125 0 1.54687-1.25 2.70312-2.82812 2.70312-2.5 0-2.98438-1.9375-3.10938-3.75h-.54687Zm0 0"/><path id="e" d="M1.01563 0h3.1875v-.3125L3.48438-.375c-.20313-.01562-.3125-.07812-.3125-.42187v-5.5l-.0625-.0625-2.07813.34375V-5.75l.75.10938c.20313.03125.26563.10937.26563.40625v4.4375c0 .34375-.09375.40625-.3125.42187l-.71875.0625Zm0 0"/><path id="f" d="M.375-3.125C.375-1.32812.9375.10938 2.5625.10938c1.64063 0 2.20313-1.4375 2.20313-3.23438s-.5625-3.23437-2.20313-3.23437C.9375-6.35937.375-4.92187.375-3.125m1.17188 0c0-1.3125.1875-2.85937 1.01562-2.85937.84375 0 1.01563 1.54687 1.01563 2.85937S3.40625-.26562 2.5625-.26562c-.82812 0-1.01562-1.54688-1.01562-2.85938m0 0"/><path id="g" d="M.34375-5.0625c0 .70313.57813 1.28125 1.28125 1.28125.70313 0 1.3125-.57812 1.3125-1.28125 0-.70312-.60937-1.29687-1.3125-1.29687-.70312 0-1.28125.59375-1.28125 1.29687m.53125 0c0-.48437.35938-.84375.75-.84375.42188 0 .78125.35938.78125.84375s-.375.82813-.78125.82813-.75-.34375-.75-.82813m0 0"/></defs><path fill="none" stroke="#000" stroke-miterlimit="10" stroke-width=".39801" d="M28.66798 193.66795 98.8828 26.6289l254.24216 12.45703"/><use xlink:href="#a" x="21.94209" y="198.31468"/><use xlink:href="#b" x="6.63287" y="213.63389"/><use xlink:href="#a" x="92.15598" y="31.27553"/><use xlink:href="#c" x="78.95617" y="19.59785"/><use xlink:href="#a" x="346.39519" y="43.73225"/><use xlink:href="#d" x="360.15332" y="31.77591"/><path fill="none" stroke="#000" stroke-miterlimit="10" stroke-width=".39801" d="M92.30078 42.28906c5.59375 2.35156 12.01953 1.53906 16.85156-2.1289 4-3.03516 6.45313-7.6875 6.69531-12.69922"/><use xlink:href="#e" x="104.03541" y="52.75119"/><use xlink:href="#e" x="109.15989" y="52.75119"/><use xlink:href="#f" x="114.28436" y="52.75119"/><use xlink:href="#g" x="119.40884" y="52.75119"/></svg>