<svg xmlns="http://www.w3.org/2000/svg" xmlns:xlink="http://www.w3.org/1999/xlink" width="147.822pt" height="127.241pt" viewBox="0 0 147.822 127.241"><defs><path id="c" d="M.29688-1.10937c0 .45312.75 1.23437 2.28125 1.23437 1.57812 0 2.57812-.79687 2.57812-2.1875 0-1.46875-1.25-1.89062-1.85937-1.95312v-.04688c.59375-.09375 1.53125-.53125 1.53125-1.60937 0-1.20313-.9375-1.73438-2.10938-1.73438-1.4375 0-2.14062.82813-2.14062 1.29688 0 .32812.39062.51562.53125.51562s.21874-.07812.26562-.21875c.25-.73437.65625-1.21875 1.26563-1.21875.85937 0 1.07812.76563 1.07812 1.375 0 .64063-.23437 1.46875-1.15625 1.46875-.51562 0-.82812-.10937-.95312-.10937-.14063 0-.1875.10937-.1875.3125 0 .1875.04687.29687.1875.29687.125 0 .4375-.10937.95312-.10937.92188 0 1.45313.84375 1.45313 1.79687 0 1.29688-.64063 1.75-1.42188 1.75-.71875 0-1.1875-.53125-1.40625-1.15625-.0625-.20312-.17187-.3125-.3125-.3125-.20312 0-.57812.21875-.57812.60938m0 0"/><path id="d" d="M.53125-2.625c0 1.82813.89063 2.75 2.53125 2.75.76563 0 1.79688-.39062 2.09375-1.5625l-.32812-.15625C4.5-.82812 4.0625-.4375 3.26563-.4375c-1.29688 0-1.59375-1.35937-1.59375-2.375 0-1.625.64062-2.28125 1.39062-2.28125.5 0 .8125.35938 1.03125.95313.0625.17187.14063.28125.34375.28125.21875 0 .64063-.14063.64063-.5625 0-.5-.71875-1.04688-1.90625-1.04688C1.1875-5.46875.53125-4.0625.53125-2.625m0 0"/><path id="e" d="M.34375 0H3v-.3125c-.78125-.0625-.8125-.07812-.8125-.64062V-3.5c0-.28125 0-.4375.07813-.57812.21875-.4375.6875-.79688 1.29687-.79688.9375 0 1.04688.67188 1.04688 1.34375v2.57813c0 .5625-.03125.57812-.8125.64062V0h2.65625v-.3125c-.78125-.0625-.8125-.07812-.8125-.64062V-3.5c0-.28125 0-.42187.07812-.59375.15625-.4375.625-.78125 1.23438-.78125.6875 0 1.10937.375 1.10937 1.34375v2.57813c0 .5625-.04687.57812-.82812.64062V0h2.67187v-.3125C9.125-.375 9.07813-.39062 9.07813-.95312v-2.78125c0-1.09375-.59375-1.73438-1.625-1.73438-.89063 0-1.53125.59375-1.90625.82813-.26563-.5-.6875-.82813-1.45313-.82813-.82812 0-1.51562.54688-1.90625.82813l-.09375-.82813-1.6875.28125v.26563L.8125-4.875c.28125.04688.35938.09375.35938.5v3.42188c0 .5625-.03126.57812-.82813.64062Zm0 0"/><clipPath id="a"><path d="M.35156 0h146.94532v116H.35155Zm0 0"/></clipPath><clipPath id="b"><path d="M36 109h111.29688v2H36Zm0 0"/></clipPath></defs><path fill="none" stroke="red" stroke-miterlimit="10" stroke-width=".39614" d="M92.1406 102.78906h7.32422v7.32422"/><g clip-path="url(#a)"><path fill="none" stroke="#000" stroke-miterlimit="10" stroke-width=".39614" d="M37.17969 110.11328h109.91793L110.4453.21878H.54689Zm0 0"/></g><path fill="none" stroke="#007f7f" stroke-miterlimit="10" stroke-width=".39614" d="M92.1406.19535v109.91793"/><g clip-path="url(#b)"><path fill="none" stroke="#ff7f00" stroke-miterlimit="10" stroke-width=".39614" d="M37.17969 110.11328h109.91793"/></g><use xlink:href="#c" x="63.92855" y="58.79528" fill="#007f7f"/><g fill="#007f7f"><use xlink:href="#d" x="72.14364" y="58.79528"/><use xlink:href="#e" x="77.54327" y="58.79528"/></g><use xlink:href="#c" x="80.30784" y="122.06786" fill="#ff7f00"/><g fill="#ff7f00"><use xlink:href="#d" x="88.52294" y="122.06786"/><use xlink:href="#e" x="93.92256" y="122.06786"/></g></svg>