<?xml version="1.0" encoding="UTF-8"?>
<svg xmlns="http://www.w3.org/2000/svg" xmlns:xlink="http://www.w3.org/1999/xlink" width="512pt" height="512pt" viewBox="0 0 512 512">
<path fill-rule="nonzero" fill="rgb(22.698975%, 81.999207%, 87.799072%)" fill-opacity="1" d="M 248.519531 0 L 262.519531 0 C 289.058594 1.75 313.929688 13.949219 334.179688 30.75 C 355.660156 48.5 373.050781 70.761719 387.441406 94.511719 C 380.03125 98.300781 373.839844 104.289062 365.851562 106.941406 C 357.898438 109.398438 349.171875 109.449219 341.28125 106.78125 C 332.339844 103.671875 325.800781 96.058594 316.691406 93.339844 C 309.390625 91.171875 301.460938 91.140625 294.101562 93.058594 C 286.828125 94.929688 281.179688 100.109375 274.839844 103.820312 C 266.160156 108.941406 255.390625 109.609375 245.75 107.269531 C 235.410156 104.78125 228.359375 95.578125 218.058594 93.011719 C 208.058594 90.519531 196.808594 91.289062 187.960938 96.890625 C 181.699219 100.808594 175.828125 105.800781 168.449219 107.441406 C 159.238281 109.46875 149.050781 108.949219 140.71875 104.199219 C 135.390625 101.230469 130.75 97.128906 125.128906 94.671875 C 125.230469 94.269531 125.441406 93.460938 125.550781 93.058594 C 141.378906 67.621094 160.421875 43.621094 184.628906 25.648438 C 203.210938 11.789062 225.28125 2.058594 248.519531 0 M 133.398438 222.550781 C 138.601562 220.46875 144.511719 225.460938 143.609375 230.910156 C 143.308594 236.601562 135.941406 239.941406 131.46875 236.429688 C 126.390625 233.121094 127.511719 224.289062 133.398438 222.550781 M 117.199219 239.25 C 122.628906 236.820312 129.269531 242.179688 127.78125 248 C 126.839844 253.761719 118.941406 256.210938 114.800781 252.191406 C 110.519531 248.679688 111.921875 240.988281 117.199219 239.25 M 148.351562 239.519531 C 153.730469 236.710938 160.789062 241.910156 159.410156 247.898438 C 158.628906 253.671875 150.820312 256.300781 146.570312 252.441406 C 142.269531 249.101562 143.300781 241.578125 148.351562 239.519531 M 133.378906 255.53125 C 138.589844 253.511719 144.449219 258.53125 143.511719 263.960938 C 143.179688 269.578125 135.949219 272.890625 131.480469 269.5 C 126.269531 266.230469 127.410156 257.230469 133.378906 255.53125 "/>
<path fill-rule="nonzero" fill="rgb(98.799133%, 65.899658%, 38.798523%)" fill-opacity="1" d="M 187.960938 96.890625 C 196.808594 91.289062 208.058594 90.519531 218.058594 93.011719 C 228.359375 95.578125 235.410156 104.78125 245.75 107.269531 C 255.390625 109.609375 266.160156 108.941406 274.839844 103.820312 C 281.179688 100.109375 286.828125 94.929688 294.101562 93.058594 C 301.460938 91.140625 309.390625 91.171875 316.691406 93.339844 C 325.800781 96.058594 332.339844 103.671875 341.28125 106.78125 C 349.171875 109.449219 357.898438 109.398438 365.851562 106.941406 C 373.839844 104.289062 380.03125 98.300781 387.441406 94.511719 C 398.390625 112.96875 407.601562 132.421875 415.328125 152.429688 C 395.230469 152.351562 375.109375 152.808594 355.03125 152.058594 C 269.019531 152.101562 183 152.058594 96.988281 152.070312 C 104.808594 131.628906 114.410156 111.890625 125.550781 93.058594 C 125.441406 93.460938 125.230469 94.269531 125.128906 94.671875 C 130.75 97.128906 135.390625 101.230469 140.71875 104.199219 C 149.050781 108.949219 159.238281 109.46875 168.449219 107.441406 C 175.828125 105.800781 181.699219 100.808594 187.960938 96.890625 M 202.480469 111.699219 C 194.238281 113.078125 186.929688 119.101562 184.128906 126.988281 C 182.339844 132.199219 187.601562 137.898438 192.929688 136.648438 C 195.96875 136.25 197.921875 133.699219 199.199219 131.140625 C 201.300781 126.988281 207.058594 125.53125 211 127.898438 C 214.660156 129.691406 214.859375 134.878906 218.890625 136.210938 C 224.078125 138.648438 230.539062 133.648438 229.46875 128 C 226.410156 116.71875 213.851562 109.460938 202.480469 111.699219 M 301.511719 111.628906 C 294.441406 112.710938 287.988281 117.160156 284.429688 123.371094 C 282.890625 125.890625 281.691406 129.039062 283 131.921875 C 284.511719 136.140625 290.03125 138.121094 293.878906 135.828125 C 297.289062 134.148438 297.558594 129.480469 301.050781 127.859375 C 305.261719 125.371094 311.230469 127.28125 313.171875 131.78125 C 314.589844 135.148438 318.261719 137.5 321.949219 136.640625 C 326.230469 135.929688 329.21875 131.128906 327.871094 126.980469 C 324.21875 116.429688 312.480469 109.679688 301.511719 111.628906 M 420.710938 167.308594 C 423.339844 176.351562 426.628906 185.191406 428.789062 194.351562 C 413.53125 194.738281 398.261719 194.378906 382.988281 194.539062 C 378.96875 194.679688 374.980469 194.089844 370.980469 193.871094 C 275.148438 193.75 179.328125 194.019531 83.511719 193.738281 C 85.628906 184.859375 88.820312 176.289062 91.410156 167.539062 C 201.179688 167.410156 310.949219 167.78125 420.710938 167.308594 "/>
<path fill-rule="nonzero" fill="rgb(100%, 91.398621%, 85.099792%)" fill-opacity="1" d="M 202.480469 111.699219 C 213.851562 109.460938 226.410156 116.71875 229.46875 128 C 230.539062 133.648438 224.078125 138.648438 218.890625 136.210938 C 214.859375 134.878906 214.660156 129.691406 211 127.898438 C 207.058594 125.53125 201.300781 126.988281 199.199219 131.140625 C 197.921875 133.699219 195.96875 136.25 192.929688 136.648438 C 187.601562 137.898438 182.339844 132.199219 184.128906 126.988281 C 186.929688 119.101562 194.238281 113.078125 202.480469 111.699219 M 301.511719 111.628906 C 312.480469 109.679688 324.21875 116.429688 327.871094 126.980469 C 329.21875 131.128906 326.230469 135.929688 321.949219 136.640625 C 318.261719 137.5 314.589844 135.148438 313.171875 131.78125 C 311.230469 127.28125 305.261719 125.371094 301.050781 127.859375 C 297.558594 129.480469 297.289062 134.148438 293.878906 135.828125 C 290.03125 138.121094 284.511719 136.140625 283 131.921875 C 281.691406 129.039062 282.890625 125.890625 284.429688 123.371094 C 287.988281 117.160156 294.441406 112.710938 301.511719 111.628906 M 96.988281 152.070312 C 183 152.058594 269.019531 152.101562 355.03125 152.058594 C 375.109375 152.808594 395.230469 152.351562 415.328125 152.429688 C 417.121094 157.390625 418.878906 162.359375 420.710938 167.308594 C 310.949219 167.78125 201.179688 167.410156 91.410156 167.539062 C 93.210938 162.359375 95.050781 157.199219 96.988281 152.070312 "/>
<path fill-rule="nonzero" fill="rgb(99.198914%, 90.59906%, 51.799011%)" fill-opacity="1" d="M 83.511719 193.738281 C 179.328125 194.019531 275.148438 193.75 370.980469 193.871094 C 374.980469 194.089844 378.96875 194.679688 382.988281 194.539062 C 398.261719 194.378906 413.53125 194.738281 428.789062 194.351562 C 435.75 221.398438 440.351562 249.078125 441.851562 276.96875 C 441.941406 287.648438 442.96875 298.359375 442.058594 309.019531 C 442.140625 307.011719 442.199219 305 442.28125 303 C 318.101562 302.878906 193.929688 302.949219 69.75 302.929688 C 69.269531 266.109375 74.210938 229.339844 83.511719 193.738281 M 133.398438 222.550781 C 127.511719 224.289062 126.390625 233.121094 131.46875 236.429688 C 135.941406 239.941406 143.308594 236.601562 143.609375 230.910156 C 144.511719 225.460938 138.601562 220.46875 133.398438 222.550781 M 216.398438 222.300781 C 210 223.460938 208.199219 232.941406 213.660156 236.410156 C 218.050781 239.949219 225.339844 236.589844 225.71875 231.03125 C 226.648438 225.898438 221.460938 221.019531 216.398438 222.300781 M 297.558594 222.589844 C 291.800781 224.410156 290.660156 233.03125 295.660156 236.371094 C 300.078125 239.941406 307.449219 236.699219 307.859375 231.039062 C 308.871094 225.511719 302.808594 220.429688 297.558594 222.589844 M 380.351562 222.25 C 374.398438 223.550781 372.511719 232.109375 377.121094 235.949219 C 380.949219 239.789062 388.320312 237.960938 389.839844 232.71875 C 392.160156 227.058594 386.269531 220.128906 380.351562 222.25 M 117.199219 239.25 C 111.921875 240.988281 110.519531 248.679688 114.800781 252.191406 C 118.941406 256.210938 126.839844 253.761719 127.78125 248 C 129.269531 242.179688 122.628906 236.820312 117.199219 239.25 M 148.351562 239.519531 C 143.300781 241.578125 142.269531 249.101562 146.570312 252.441406 C 150.820312 256.300781 158.628906 253.671875 159.410156 247.898438 C 160.789062 241.910156 153.730469 236.710938 148.351562 239.519531 M 199.390625 239.230469 C 193.53125 241.03125 192.710938 250.050781 198.019531 253 C 202.660156 256.171875 209.839844 252.699219 210.039062 247.03125 C 210.671875 241.53125 204.449219 237.070312 199.390625 239.230469 M 231.351562 239.191406 C 226.058594 240.671875 224.078125 248.148438 228.179688 251.921875 C 232.109375 256.359375 240.628906 254.070312 241.460938 248.089844 C 242.941406 242.410156 236.730469 237.171875 231.351562 239.191406 M 281.339844 239.300781 C 276.230469 241.101562 274.789062 248.53125 278.929688 252.070312 C 283.011719 256.238281 291.050781 253.839844 292.039062 248.050781 C 293.609375 242.160156 286.789062 236.730469 281.339844 239.300781 M 313.308594 239.25 C 308.179688 240.761719 306.339844 247.988281 310.148438 251.769531 C 313.941406 256.261719 322.210938 254.328125 323.53125 248.570312 C 325.421875 242.769531 318.910156 236.949219 313.308594 239.25 M 363.371094 239.328125 C 358.070312 241.28125 356.980469 249.199219 361.558594 252.5 C 366.089844 256.429688 374.148438 253.078125 374.328125 247 C 374.980469 241.351562 368.441406 236.941406 363.371094 239.328125 M 395.300781 239.019531 C 390.089844 240.660156 388.28125 247.988281 392.078125 251.890625 C 395.988281 256.480469 404.46875 254.53125 405.910156 248.628906 C 407.851562 242.589844 401.089844 236.769531 395.300781 239.019531 M 133.378906 255.53125 C 127.410156 257.230469 126.269531 266.230469 131.480469 269.5 C 135.949219 272.890625 143.179688 269.578125 143.511719 263.960938 C 144.449219 258.53125 138.589844 253.511719 133.378906 255.53125 M 216.460938 255.289062 C 210.191406 256.230469 208.070312 265.21875 213.011719 269.03125 C 217.308594 273.050781 225.25 269.960938 225.578125 264.039062 C 226.53125 258.941406 221.488281 254.089844 216.460938 255.289062 M 297.539062 255.570312 C 291.710938 257.320312 290.570312 266.070312 295.601562 269.378906 C 300.03125 272.941406 307.390625 269.679688 307.769531 264.03125 C 308.769531 258.53125 302.78125 253.449219 297.539062 255.570312 M 379.519531 255.621094 C 373.859375 257.460938 372.78125 265.949219 377.601562 269.308594 C 382.039062 272.96875 389.609375 269.730469 390.011719 263.988281 C 391.039062 258.359375 384.789062 253.410156 379.519531 255.621094 "/>
<path fill-rule="nonzero" fill="rgb(98.799133%, 59.199524%, 26.699829%)" fill-opacity="1" d="M 216.398438 222.300781 C 221.460938 221.019531 226.648438 225.898438 225.71875 231.03125 C 225.339844 236.589844 218.050781 239.949219 213.660156 236.410156 C 208.199219 232.941406 210 223.460938 216.398438 222.300781 M 199.390625 239.230469 C 204.449219 237.070312 210.671875 241.53125 210.039062 247.03125 C 209.839844 252.699219 202.660156 256.171875 198.019531 253 C 192.710938 250.050781 193.53125 241.03125 199.390625 239.230469 M 231.351562 239.191406 C 236.730469 237.171875 242.941406 242.410156 241.460938 248.089844 C 240.628906 254.070312 232.109375 256.359375 228.179688 251.921875 C 224.078125 248.148438 226.058594 240.671875 231.351562 239.191406 M 216.460938 255.289062 C 221.488281 254.089844 226.53125 258.941406 225.578125 264.039062 C 225.25 269.960938 217.308594 273.050781 213.011719 269.03125 C 208.070312 265.21875 210.191406 256.230469 216.460938 255.289062 "/>
<path fill-rule="nonzero" fill="rgb(39.199829%, 72.499084%, 98.799133%)" fill-opacity="1" d="M 297.558594 222.589844 C 302.808594 220.429688 308.871094 225.511719 307.859375 231.039062 C 307.449219 236.699219 300.078125 239.941406 295.660156 236.371094 C 290.660156 233.03125 291.800781 224.410156 297.558594 222.589844 M 281.339844 239.300781 C 286.789062 236.730469 293.609375 242.160156 292.039062 248.050781 C 291.050781 253.839844 283.011719 256.238281 278.929688 252.070312 C 274.789062 248.53125 276.230469 241.101562 281.339844 239.300781 M 313.308594 239.25 C 318.910156 236.949219 325.421875 242.769531 323.53125 248.570312 C 322.210938 254.328125 313.941406 256.261719 310.148438 251.769531 C 306.339844 247.988281 308.179688 240.761719 313.308594 239.25 M 297.539062 255.570312 C 302.78125 253.449219 308.769531 258.53125 307.769531 264.03125 C 307.390625 269.679688 300.03125 272.941406 295.601562 269.378906 C 290.570312 266.070312 291.710938 257.320312 297.539062 255.570312 M 69.75 302.929688 C 193.929688 302.949219 318.101562 302.878906 442.28125 303 C 442.199219 305 442.140625 307.011719 442.058594 309.019531 C 442.179688 316.121094 441.011719 323.128906 440.828125 330.210938 C 420.578125 330.199219 400.300781 330.640625 380.070312 329.851562 C 277.171875 329.910156 174.269531 329.820312 71.378906 329.890625 C 70.710938 320.910156 69.800781 311.941406 69.75 302.929688 M 73.308594 345.328125 C 195.140625 345.308594 316.96875 345.390625 438.808594 345.28125 C 435.441406 366.988281 429.359375 388.289062 420.429688 408.378906 C 418.328125 406.800781 415.839844 405.878906 413.628906 404.488281 C 407.410156 400.679688 401.761719 395.871094 394.921875 393.179688 C 384.851562 389.101562 373.46875 389.230469 363.121094 392.109375 C 351.488281 395.320312 343.300781 405.269531 331.859375 408.898438 C 322.210938 411.929688 311.628906 411.96875 301.921875 409.160156 C 290.351562 405.769531 282.160156 395.800781 270.621094 392.328125 C 261.640625 389.609375 251.859375 389.570312 242.761719 391.789062 C 230.230469 394.828125 221.609375 405.78125 209.269531 409.261719 C 200.011719 411.890625 189.980469 411.878906 180.730469 409.230469 C 168.648438 405.789062 160.199219 395.191406 148.019531 391.980469 C 138.691406 389.550781 128.578125 389.5 119.339844 392.359375 C 111.261719 394.800781 104.839844 400.519531 97.730469 404.800781 C 95.761719 406.058594 93.359375 406.730469 91.78125 408.550781 C 82.828125 388.421875 76.761719 367.078125 73.308594 345.328125 M 175.371094 361.480469 C 172.410156 363.101562 170.71875 366.839844 171.699219 370.109375 C 175 379.679688 184.921875 386.378906 195.03125 385.921875 C 204.710938 385.761719 213.960938 379.140625 216.988281 369.910156 C 218.671875 363.988281 211.671875 358.261719 206.210938 361.199219 C 202.578125 362.589844 202.308594 367.210938 199.089844 369.078125 C 196.148438 371.039062 191.988281 370.949219 189.160156 368.820312 C 186.488281 367.050781 186.121094 363.28125 183.300781 361.671875 C 180.949219 360.128906 177.78125 360.039062 175.371094 361.480469 M 299.269531 361.199219 C 295.78125 362.738281 293.878906 367.101562 295.25 370.691406 C 298.71875 379.820312 308.210938 386.191406 317.980469 385.929688 C 327.769531 385.949219 337.148438 379.339844 340.308594 370.070312 C 342.089844 364.328125 335.5 358.488281 330.019531 361 C 325.980469 362.21875 325.730469 367.308594 322.25 369.210938 C 319.261719 371.078125 315.128906 370.871094 312.359375 368.691406 C 309.941406 367.011719 309.519531 363.679688 307.121094 362 C 304.898438 360.308594 301.769531 359.941406 299.269531 361.199219 "/>
<path fill-rule="nonzero" fill="rgb(98.399353%, 39.99939%, 44.699097%)" fill-opacity="1" d="M 380.351562 222.25 C 386.269531 220.128906 392.160156 227.058594 389.839844 232.71875 C 388.320312 237.960938 380.949219 239.789062 377.121094 235.949219 C 372.511719 232.109375 374.398438 223.550781 380.351562 222.25 M 363.371094 239.328125 C 368.441406 236.941406 374.980469 241.351562 374.328125 247 C 374.148438 253.078125 366.089844 256.429688 361.558594 252.5 C 356.980469 249.199219 358.070312 241.28125 363.371094 239.328125 M 395.300781 239.019531 C 401.089844 236.769531 407.851562 242.589844 405.910156 248.628906 C 404.46875 254.53125 395.988281 256.480469 392.078125 251.890625 C 388.28125 247.988281 390.089844 240.660156 395.300781 239.019531 M 379.519531 255.621094 C 384.789062 253.410156 391.039062 258.359375 390.011719 263.988281 C 389.609375 269.730469 382.039062 272.96875 377.601562 269.308594 C 372.78125 265.949219 373.859375 257.460938 379.519531 255.621094 M 175.371094 361.480469 C 177.78125 360.039062 180.949219 360.128906 183.300781 361.671875 C 186.121094 363.28125 186.488281 367.050781 189.160156 368.820312 C 191.988281 370.949219 196.148438 371.039062 199.089844 369.078125 C 202.308594 367.210938 202.578125 362.589844 206.210938 361.199219 C 211.671875 358.261719 218.671875 363.988281 216.988281 369.910156 C 213.960938 379.140625 204.710938 385.761719 195.03125 385.921875 C 184.921875 386.378906 175 379.679688 171.699219 370.109375 C 170.71875 366.839844 172.410156 363.101562 175.371094 361.480469 M 299.269531 361.199219 C 301.769531 359.941406 304.898438 360.308594 307.121094 362 C 309.519531 363.679688 309.941406 367.011719 312.359375 368.691406 C 315.128906 370.871094 319.261719 371.078125 322.25 369.210938 C 325.730469 367.308594 325.980469 362.21875 330.019531 361 C 335.5 358.488281 342.089844 364.328125 340.308594 370.070312 C 337.148438 379.339844 327.769531 385.949219 317.980469 385.929688 C 308.210938 386.191406 298.71875 379.820312 295.25 370.691406 C 293.878906 367.101562 295.78125 362.738281 299.269531 361.199219 M 119.339844 392.359375 C 128.578125 389.5 138.691406 389.550781 148.019531 391.980469 C 160.199219 395.191406 168.648438 405.789062 180.730469 409.230469 C 189.980469 411.878906 200.011719 411.890625 209.269531 409.261719 C 221.609375 405.78125 230.230469 394.828125 242.761719 391.789062 C 251.859375 389.570312 261.640625 389.609375 270.621094 392.328125 C 282.160156 395.800781 290.351562 405.769531 301.921875 409.160156 C 311.628906 411.96875 322.210938 411.929688 331.859375 408.898438 C 343.300781 405.269531 351.488281 395.320312 363.121094 392.109375 C 373.46875 389.230469 384.851562 389.101562 394.921875 393.179688 C 401.761719 395.871094 407.410156 400.679688 413.628906 404.488281 C 415.839844 405.878906 418.328125 406.800781 420.429688 408.378906 C 407.398438 436.628906 387.601562 462.058594 362.03125 480.019531 C 334.28125 499.828125 300.519531 510.148438 266.640625 512 L 244.558594 512 C 227.421875 510.640625 210.328125 507.671875 194.03125 502.128906 C 168.300781 493.550781 144.679688 478.679688 125.929688 459.058594 C 111.78125 444.328125 100.441406 427.011719 91.78125 408.550781 C 93.359375 406.730469 95.761719 406.058594 97.730469 404.800781 C 104.839844 400.519531 111.261719 394.800781 119.339844 392.359375 "/>
<path fill-rule="nonzero" fill="rgb(91.799927%, 96.499634%, 100%)" fill-opacity="1" d="M 71.378906 329.890625 C 174.269531 329.820312 277.171875 329.910156 380.070312 329.851562 C 400.300781 330.640625 420.578125 330.199219 440.828125 330.210938 C 440.058594 335.21875 439.601562 340.269531 438.808594 345.28125 C 316.96875 345.390625 195.140625 345.308594 73.308594 345.328125 C 72.578125 340.191406 71.898438 335.050781 71.378906 329.890625 "/>
</svg>
