<?xml version="1.0" encoding="UTF-8"?>
<svg xmlns="http://www.w3.org/2000/svg" xmlns:xlink="http://www.w3.org/1999/xlink" width="30pt" height="30pt" viewBox="0 0 30 30" version="1.2">
<g id="surface1">
<path style="fill-rule:nonzero;fill:rgb(0%,0%,0%);fill-opacity:1;stroke-width:0.09375;stroke-linecap:butt;stroke-linejoin:miter;stroke:rgb(0%,0%,0%);stroke-opacity:1;stroke-miterlimit:10;" d="M 14.011719 27 C 14.5 27 15.5 27 15.988281 27 C 16 22 16.011719 17 15.988281 12 C 15.5 12 14.5 12 14.011719 12 C 14 17 14 22 14.011719 27 Z M 14.011719 27 " transform="matrix(1,0,0,-1,0,30)"/>
<path style="fill-rule:nonzero;fill:rgb(0%,0%,0%);fill-opacity:1;stroke-width:0.09375;stroke-linecap:butt;stroke-linejoin:miter;stroke:rgb(0%,0%,0%);stroke-opacity:1;stroke-miterlimit:10;" d="M 4 10.988281 C 11.328125 11 18.671875 11.011719 26 10.988281 C 26 10.5 26 9.5 26 9.011719 C 18.671875 9 11.328125 9 4 9.011719 C 4 9.5 4 10.5 4 10.988281 Z M 4 10.988281 " transform="matrix(1,0,0,-1,0,30)"/>
<path style="fill-rule:nonzero;fill:rgb(0%,0%,0%);fill-opacity:1;stroke-width:0.09375;stroke-linecap:butt;stroke-linejoin:miter;stroke:rgb(0%,0%,0%);stroke-opacity:1;stroke-miterlimit:10;" d="M 4 7.988281 C 11.328125 8 18.671875 8 26 7.988281 C 26 7.5 26 6.5 26 6.011719 C 18.671875 6 11.328125 6 4 6.011719 C 4 6.5 4 7.5 4 7.988281 Z M 4 7.988281 " transform="matrix(1,0,0,-1,0,30)"/>
<path style="fill-rule:nonzero;fill:rgb(0%,0%,0%);fill-opacity:1;stroke-width:0.09375;stroke-linecap:butt;stroke-linejoin:miter;stroke:rgb(0%,0%,0%);stroke-opacity:1;stroke-miterlimit:10;" d="M 4 4.988281 C 11.328125 5.011719 18.671875 5 26 4.988281 C 26 4.5 26 3.5 26 3.011719 C 18.671875 3 11.328125 3 4 3.011719 C 4 3.5 4 4.488281 4 4.988281 Z M 4 4.988281 " transform="matrix(1,0,0,-1,0,30)"/>
</g>
</svg>
