<?xml version="1.0" encoding="UTF-8"?>
<svg xmlns="http://www.w3.org/2000/svg" xmlns:xlink="http://www.w3.org/1999/xlink" width="30pt" height="30pt" viewBox="0 0 30 30" version="1.2">
<g id="surface1">
<path style="fill-rule:nonzero;fill:rgb(0%,0%,0%);fill-opacity:1;stroke-width:0.09375;stroke-linecap:butt;stroke-linejoin:miter;stroke:rgb(0%,0%,0%);stroke-opacity:1;stroke-miterlimit:10;" d="M 14.011719 27 C 14.5 27 15.5 27 15.988281 27 C 16 20 16 13 15.988281 6 C 15.5 6 14.5 6 14.011719 6 C 14 13 14 20 14.011719 27 Z M 14.011719 27 " transform="matrix(1,0,0,-1,0,30)"/>
<path style="fill-rule:nonzero;fill:rgb(0%,0%,0%);fill-opacity:1;stroke-width:0.09375;stroke-linecap:butt;stroke-linejoin:miter;stroke:rgb(0%,0%,0%);stroke-opacity:1;stroke-miterlimit:10;" d="M 4 4.988281 C 11.328125 5 18.671875 5 26 4.988281 C 26 4.5 26 3.5 26 3.011719 C 18.671875 3 11.328125 3 4 3.011719 C 4 3.5 4 4.5 4 4.988281 Z M 4 4.988281 " transform="matrix(1,0,0,-1,0,30)"/>
</g>
</svg>
