<?xml version="1.0" encoding="UTF-8"?>
<svg xmlns="http://www.w3.org/2000/svg" xmlns:xlink="http://www.w3.org/1999/xlink" width="30pt" height="30pt" viewBox="0 0 30 30" version="1.2">
<g id="surface1">
<path style="fill-rule:nonzero;fill:rgb(0%,0%,0%);fill-opacity:1;stroke-width:0.09375;stroke-linecap:butt;stroke-linejoin:miter;stroke:rgb(0%,0%,0%);stroke-opacity:1;stroke-miterlimit:10;" d="M 12.011719 27 C 12.5 27 13.5 27 13.988281 27 C 14 19 14 11 13.988281 3 C 13.5 3 12.5 3 12.011719 3 C 12 11 12 19 12.011719 27 Z M 12.011719 27 " transform="matrix(1,0,0,-1,0,30)"/>
<path style="fill-rule:nonzero;fill:rgb(0%,0%,0%);fill-opacity:1;stroke-width:0.09375;stroke-linecap:butt;stroke-linejoin:miter;stroke:rgb(0%,0%,0%);stroke-opacity:1;stroke-miterlimit:10;" d="M 16.011719 27 C 16.5 27 17.5 27 17.988281 27 C 18 19 18 11 17.988281 3 C 17.5 3 16.5 3 16.011719 3 C 16 11 16 19 16.011719 27 Z M 16.011719 27 " transform="matrix(1,0,0,-1,0,30)"/>
</g>
</svg>
