<?xml version="1.0" encoding="UTF-8"?>
<svg xmlns="http://www.w3.org/2000/svg" xmlns:xlink="http://www.w3.org/1999/xlink" width="30pt" height="30pt" viewBox="0 0 30 30" version="1.2">
<g id="surface1">
<path style="fill-rule:nonzero;fill:rgb(0%,0%,0%);fill-opacity:1;stroke-width:0.09375;stroke-linecap:butt;stroke-linejoin:miter;stroke:rgb(0%,0%,0%);stroke-opacity:1;stroke-miterlimit:10;" d="M 3 26.988281 C 11 27 19 27 27 26.988281 C 27 26.5 27 25.5 27 25.011719 C 19 25 11 25 3 25.011719 C 3 25.5 3 26.5 3 26.988281 Z M 3 26.988281 " transform="matrix(1,0,0,-1,0,30)"/>
<path style="fill-rule:nonzero;fill:rgb(0%,0%,0%);fill-opacity:1;stroke-width:0.09375;stroke-linecap:butt;stroke-linejoin:miter;stroke:rgb(0%,0%,0%);stroke-opacity:1;stroke-miterlimit:10;" d="M 8.011719 24 C 8.5 24 9.5 24 9.988281 24 C 10 17 10 10 9.988281 3 C 9.5 3 8.5 3 8.011719 3 C 8 10 8 17 8.011719 24 Z M 8.011719 24 " transform="matrix(1,0,0,-1,0,30)"/>
<path style="fill-rule:nonzero;fill:rgb(0%,0%,0%);fill-opacity:1;stroke-width:0.09375;stroke-linecap:butt;stroke-linejoin:miter;stroke:rgb(0%,0%,0%);stroke-opacity:1;stroke-miterlimit:10;" d="M 12.011719 24 C 12.5 24 13.5 24 13.988281 24 C 14 17 14 10 13.988281 3 C 13.5 3 12.5 3 12.011719 3 C 12 10 12 17 12.011719 24 Z M 12.011719 24 " transform="matrix(1,0,0,-1,0,30)"/>
<path style="fill-rule:nonzero;fill:rgb(0%,0%,0%);fill-opacity:1;stroke-width:0.09375;stroke-linecap:butt;stroke-linejoin:miter;stroke:rgb(0%,0%,0%);stroke-opacity:1;stroke-miterlimit:10;" d="M 16.011719 24 C 16.5 24 17.5 24 17.988281 24 C 18 17 18 10 17.988281 3 C 17.5 3 16.5 3 16.011719 3 C 16 10 16 17 16.011719 24 Z M 16.011719 24 " transform="matrix(1,0,0,-1,0,30)"/>
<path style="fill-rule:nonzero;fill:rgb(0%,0%,0%);fill-opacity:1;stroke-width:0.09375;stroke-linecap:butt;stroke-linejoin:miter;stroke:rgb(0%,0%,0%);stroke-opacity:1;stroke-miterlimit:10;" d="M 20.011719 24 C 20.5 24 21.5 24 21.988281 24 C 22.011719 17 22.011719 10 21.988281 3 C 21.5 3 20.5 3 20.011719 3 C 19.988281 10 19.988281 17 20.011719 24 Z M 20.011719 24 " transform="matrix(1,0,0,-1,0,30)"/>
</g>
</svg>
