<svg xmlns="http://www.w3.org/2000/svg" xmlns:xlink="http://www.w3.org/1999/xlink" width="107.096pt" height="177.962pt" viewBox="0 0 107.096 177.962"><defs><clipPath id="a"><path d="M0 .72656h106.19922v176.47266H0Zm0 0"/></clipPath><clipPath id="e"><path d="M88 76h18.19922v26H88Zm0 0"/></clipPath><clipPath id="g"><path d="M52 6h2v171.19922h-2Zm0 0"/></clipPath><clipPath id="h"><path d="M40 .72656h26V19H40Zm0 0"/></clipPath><path id="b" d="M.4375-3.48437C.4375-1.40625 1.04688.125 2.76563.125s2.34375-1.53125 2.34375-3.60937c0-2.09375-.625-3.60938-2.34375-3.60938S.4375-5.57812.4375-3.48437m1.04688 0c0-1.70313.29687-3.25 1.28125-3.25.98437 0 1.28125 1.54687 1.28125 3.25C4.04688-1.78125 3.75-.25 2.76563-.25c-.98438 0-1.28125-1.53125-1.28125-3.23437m0 0"/><path id="c" d="M.89063-2.64062H6.625V-3.25H.89063Zm0 0"/><path id="d" d="M1.14063 0H4.5625v-.29687L3.6875-.375c-.21875-.03125-.34375-.10937-.34375-.51562v-6.15625l-.0625-.04688-2.14062.35938v.25l.96875.125c.17187.03125.25.10937.25.40625v5.0625c0 .40625-.10938.48437-.34375.51562l-.875.07813Zm0 0"/><path id="f" d="M.28125-.09375.39063 0h4.3125l.35937-1.375-.28125-.0625c-.21875.57813-.4375.65625-.85937.65625H1.25c.17188-.54687.79688-1.29687 1.76563-2 1-.73437 1.76562-1.20312 1.76562-2.35937 0-1.45313-.95312-1.95313-2.0625-1.95313-1.4375 0-2.15625.85938-2.15625 1.40625 0 .35938.39063.51563.57813.51563s.25-.10938.29687-.28125c.15625-.71875.57813-1.28125 1.21875-1.28125.79688 0 1.03125.67187 1.03125 1.4375 0 1.125-.5625 1.75-1.48437 2.54687C.92188-1.625.48438-.90625.28124-.09375m0 0"/></defs><g clip-path="url(#a)"><path fill="none" stroke="#000" stroke-miterlimit="10" stroke-opacity=".5" stroke-width=".39516" d="M.39451 159.2344h105.4102M.3945 124.09767h105.4102M.3945 88.96094h105.4102M.3945 53.8242h105.4102M.3945 18.68747h105.4102M17.96092 176.80472V1.12106m35.14064 175.68366V1.12106M88.2383 176.80472V1.12106"/></g><path fill="none" stroke="#000" stroke-miterlimit="10" stroke-opacity=".5" stroke-width=".39516" d="M53.10156 80.17968V97.7461"/><use xlink:href="#b" x="38.03395" y="104.74989" fill-opacity=".5"/><path fill="none" stroke="#000" stroke-miterlimit="10" stroke-opacity=".5" stroke-width=".39516" d="M17.96092 80.17968V97.7461"/><g fill-opacity=".5"><use xlink:href="#c" x="11.43944" y="101.29704"/><use xlink:href="#d" x="18.95261" y="101.29704"/></g><path fill="none" stroke="#000" stroke-miterlimit="10" stroke-opacity=".5" stroke-width=".39516" d="M88.2383 80.17968V97.7461"/><use xlink:href="#d" x="85.46856" y="101.29704" fill-opacity=".5"/><path fill="none" stroke="#000" stroke-miterlimit="10" stroke-width=".79034" d="M.39451 88.96094h99.2852"/><path d="M103.8086 88.96094c-.50782-.10547-2.73438-.70313-4.12891-1.35156v2.70703c1.39453-.65235 3.6211-1.25 4.1289-1.35547m0 0"/><g clip-path="url(#e)"><path fill="none" stroke="#000" stroke-miterlimit="10" stroke-width=".79034" d="M103.8086 88.96094c-.50782-.10547-2.73438-.70313-4.12891-1.35157v2.70704c1.39453-.65235 3.6211-1.25 4.1289-1.35547Zm0 0"/></g><path fill="none" stroke="#000" stroke-miterlimit="10" stroke-opacity=".5" stroke-width=".39516" d="M61.88282 159.2344H44.3164"/><g fill-opacity=".5"><use xlink:href="#c" x="34.27766" y="162.78601"/><use xlink:href="#f" x="41.79083" y="162.78601"/></g><path fill="none" stroke="#000" stroke-miterlimit="10" stroke-opacity=".5" stroke-width=".39516" d="M61.88282 124.09767H44.3164"/><g fill-opacity=".5"><use xlink:href="#c" x="34.27766" y="127.6496"/><use xlink:href="#d" x="41.79083" y="127.6496"/></g><path fill="none" stroke="#000" stroke-miterlimit="10" stroke-opacity=".5" stroke-width=".39516" d="M61.88282 53.8242H44.3164"/><use xlink:href="#d" x="38.03495" y="57.37677" fill-opacity=".5"/><path fill="none" stroke="#000" stroke-miterlimit="10" stroke-opacity=".5" stroke-width=".39516" d="M61.88282 18.68747H44.3164"/><use xlink:href="#f" x="38.03495" y="22.24036" fill-opacity=".5"/><g clip-path="url(#g)"><path fill="none" stroke="#000" stroke-miterlimit="10" stroke-width=".79034" d="M53.10156 176.80472V7.24606"/></g><path d="M53.10156 3.11719c-.10547.5039-.70312 2.73437-1.35547 4.1289h2.70703c-.65234-1.39453-1.24609-3.625-1.35156-4.1289m0 0"/><g clip-path="url(#h)"><path fill="none" stroke="#000" stroke-miterlimit="10" stroke-width=".79034" d="M53.10156 3.11719c-.10547.5039-.70312 2.73437-1.35547 4.1289h2.70703c-.65234-1.39453-1.24609-3.625-1.35156-4.1289Zm0 0"/></g></svg>