<svg xmlns="http://www.w3.org/2000/svg" xmlns:xlink="http://www.w3.org/1999/xlink" width="111.348pt" height="185.049pt" viewBox="0 0 111.348 185.049"><defs><clipPath id="a"><path d="M0 .0664h110.69922V184H0Zm0 0"/></clipPath><clipPath id="e"><path d="M92 79h18.69922v26H92Zm0 0"/></clipPath><clipPath id="g"><path d="M54 6h2v178.03906h-2Zm0 0"/></clipPath><clipPath id="h"><path d="M42 .0664h26V18H42Zm0 0"/></clipPath><path id="b" d="M.5-4.04687C.5-1.625 1.20313.14063 3.20313.14063S5.92188-1.625 5.92188-4.04687s-.71875-4.1875-2.71875-4.1875S.5-6.46875.5-4.04687m1.21875 0c0-1.96875.34375-3.75 1.48438-3.75 1.15625 0 1.48437 1.78125 1.48437 3.75S4.35938-.28125 3.20313-.28125c-1.14063 0-1.48438-1.79687-1.48438-3.76562m0 0"/><path id="c" d="M.92188-2.76562h6v-.625h-6Zm0 0"/><path id="d" d="M1.1875 0h3.57813v-.3125l-.92188-.07812C3.625-.42187 3.48438-.5 3.48438-.92187v-6.42188l-.04688-.0625-2.25.375v.26563l1.01563.14062c.1875.01563.25.09375.25.40625v5.29688c0 .42187-.09375.5-.35938.53125L1.1875-.3125Zm0 0"/><path id="f" d="M.29688-.10937.40625 0h4.51563l.35937-1.4375L4.98438-1.5c-.23438.59375-.45313.67188-.89063.67188H1.3125c.17188-.5625.82813-1.34375 1.82813-2.07813C4.1875-3.65625 5-4.15625 5-5.375c0-1.51562-1.01562-2.03125-2.15625-2.03125-1.5 0-2.26562.90625-2.26562 1.46875 0 .375.42187.54688.60937.54688S1.45313-5.5 1.5-5.6875c.17188-.75.59375-1.34375 1.26563-1.34375.84375 0 1.07812.70313 1.07812 1.5 0 1.17188-.57812 1.82813-1.53125 2.67188C.96875-1.6875.5-.95312.29688-.10937m0 0"/></defs><g clip-path="url(#a)"><path fill="none" stroke="#7f7f7f" stroke-dasharray=".39618073 .9904816504" stroke-miterlimit="10" stroke-width=".39618" d="M.3945 165.32425h109.91021M.39451 128.68752h109.9102M.39451 92.05078h109.9102M.39451 55.41405h109.9102M.39451 18.7773h109.9102M18.71483 183.64066V.4609m36.63673 183.17976V.4609M91.9844 183.64066V.4609"/></g><use xlink:href="#b" x="39.32076" y="108.91751" fill="#7f7f7f"/><path fill="none" stroke="#7f7f7f" stroke-miterlimit="10" stroke-width=".39618" d="M18.71483 82.89062v18.32032"/><g fill="#7f7f7f"><use xlink:href="#c" x="11.91125" y="113.16464"/><use xlink:href="#d" x="19.74504" y="113.16464"/></g><path fill="none" stroke="#7f7f7f" stroke-miterlimit="10" stroke-width=".39618" d="M91.9844 82.89062v18.32032"/><use xlink:href="#d" x="89.10027" y="113.16464" fill="#7f7f7f"/><path fill="none" stroke="#000" stroke-miterlimit="10" stroke-width=".79237" d="M.3945 92.05078h103.76958"/><path d="M108.30469 92.05078c-.50781-.10547-2.7461-.70312-4.14063-1.35547v2.71094c1.39453-.65234 3.63281-1.25 4.14063-1.35547m0 0"/><g clip-path="url(#e)"><path fill="none" stroke="#000" stroke-miterlimit="10" stroke-width=".79237" d="M108.30469 92.05078c-.50781-.10547-2.7461-.70312-4.14063-1.35547v2.71094c1.39453-.65234 3.63282-1.25 4.14063-1.35547Zm0 0"/></g><path fill="none" stroke="#7f7f7f" stroke-miterlimit="10" stroke-width=".39618" d="M64.50782 165.32425H46.1914"/><g fill="#7f7f7f"><use xlink:href="#c" x="28.03683" y="169.02555"/><use xlink:href="#f" x="35.87061" y="169.02555"/></g><path fill="none" stroke="#7f7f7f" stroke-miterlimit="10" stroke-width=".39618" d="M64.50782 128.68752H46.1914"/><g fill="#7f7f7f"><use xlink:href="#c" x="28.03683" y="132.39007"/><use xlink:href="#d" x="35.87061" y="132.39007"/></g><path fill="none" stroke="#7f7f7f" stroke-miterlimit="10" stroke-width=".39618" d="M64.50782 55.41405H46.1914"/><use xlink:href="#d" x="35.87096" y="59.11811" fill="#7f7f7f"/><path fill="none" stroke="#7f7f7f" stroke-miterlimit="10" stroke-width=".39618" d="M64.50782 18.77731H46.1914"/><use xlink:href="#f" x="35.87096" y="22.48263" fill="#7f7f7f"/><g clip-path="url(#g)"><path fill="none" stroke="#000" stroke-miterlimit="10" stroke-width=".79237" d="M55.35156 183.64066V6.60153"/></g><path d="M55.35156 2.46094c-.10547.50781-.70703 2.74219-1.35937 4.14062h2.71484c-.65234-1.39843-1.25-3.63281-1.35547-4.14062m0 0"/><g clip-path="url(#h)"><path fill="none" stroke="#000" stroke-miterlimit="10" stroke-width=".79237" d="M55.35156 2.46094c-.10547.5078-.70703 2.74218-1.35937 4.14062h2.71484c-.65234-1.39844-1.25-3.63281-1.35547-4.14062Zm0 0"/></g></svg>