<svg xmlns="http://www.w3.org/2000/svg" xmlns:xlink="http://www.w3.org/1999/xlink" width="107.096pt" height="177.962pt" viewBox="0 0 107.096 177.962"><defs><path id="b" d="M.4375-3.48437C.4375-1.40625 1.04688.125 2.76563.125s2.34375-1.53125 2.34375-3.60937c0-2.09375-.625-3.60938-2.34375-3.60938S.4375-5.57812.4375-3.48437m1.04688 0c0-1.70313.29687-3.25 1.28125-3.25.98437 0 1.28125 1.54687 1.28125 3.25C4.04688-1.78125 3.75-.25 2.76563-.25c-.98438 0-1.28125-1.53125-1.28125-3.23437m0 0"/><path id="c" d="M.89063-2.64062H6.625V-3.25H.89063Zm0 0"/><path id="d" d="M1.14063 0H4.5625v-.29687L3.6875-.375c-.21875-.03125-.34375-.10937-.34375-.51562v-6.15625l-.0625-.04688-2.14062.35938v.25l.96875.125c.17187.03125.25.10937.25.40625v5.0625c0 .40625-.10938.48437-.34375.51562l-.875.07813Zm0 0"/><path id="f" d="M.28125-.09375.39063 0h4.3125l.35937-1.375-.28125-.0625c-.21875.57813-.4375.65625-.85937.65625H1.25c.17188-.54687.79688-1.29687 1.76563-2 1-.73437 1.76562-1.20312 1.76562-2.35937 0-1.45313-.95312-1.95313-2.0625-1.95313-1.4375 0-2.15625.85938-2.15625 1.40625 0 .35938.39063.51563.57813.51563s.25-.10938.29687-.28125c.15625-.71875.57813-1.28125 1.21875-1.28125.79688 0 1.03125.67187 1.03125 1.4375 0 1.125-.5625 1.75-1.48437 2.54687C.92188-1.625.48438-.90625.28124-.09375m0 0"/><path id="j" d="M.375-5.79687c0 1.01562 1.01563 1.82812 3.34375 1.82812-.39062.67188-.67187 1.375-.67187 2.14063 0 1.26562.79687 1.96875 2.26562 1.96875 1.42188 0 2.89063-1.03125 2.89063-2.34375 0-.79688-.65625-1.23438-1.46875-1.23438-.92188 0-2 1.03125-2 1.84375 0 .25.1875.71875.53125.71875C5.375-.875 5.5-.95312 5.5-1.0625c0-.14062-.26562-.15625-.26562-.51562 0-.5625.82812-1.48438 1.5-1.48438.46875 0 .75.1875.75.64063 0 1.03125-.98438 2.1875-2.17188 2.1875-.84375 0-1.28125-.45313-1.28125-1.21875 0-.875.60938-1.875 1.0625-2.625 2.57813-.39063 5.10938-1.65625 5.10938-3.28125 0-.60938-.48438-1.01563-1.15625-1.01563-1.53125 0-3.84375 1.95313-5.10938 4-1.04687-.01562-2.75-.04687-2.75-1.28125 0-1.125 1.375-2.01562 2.25-2.01562.15625 0 .23438-.09375.23438-.1875 0-.10938-.07813-.17188-.17188-.17188-1.29687 0-3.125.875-3.125 2.23438m4.95313 1.26562c.85937-1.5 2.65625-3.48437 3.71875-3.48437.40625 0 .6875.23437.6875.625 0 1.29687-2.03125 2.48437-4.40625 2.85937m0 0"/><path id="l" d="m1.67188-1.26562.48437.48437 2.01563-2.01562L6.20313-.78125l.46875-.48437-2.01563-2 2.01563-2.03125-.46875-.46875L4.17188-3.75 2.15625-5.76562l-.48437.46875 2.03125 2.03125Zm0 0"/><path id="k" d="M-.17187 1.45313c0 .29687.35937.51562.79687.51562.84375 0 1.23438-.6875 1.5625-2.20312l.76563-3.40625h1.01562l.09375-.34375H3l.25-.98438c.14063-.54687.28125-.75.46875-.75.20313 0 .32813.15625.53125.5625.04688.09375.10938.17188.25.17188.1875 0 .4375-.17188.4375-.39063 0-.35937-.4375-.64062-.98437-.64062-1.01563 0-1.4375.73437-1.71875 1.76562l-.07813.26563h-.70312l-.10938.34375h.73438L1.125 1.17188c-.07812.42187-.15625.48437-.23437.48437-.09376 0-.21876-.07812-.42188-.42187-.0625-.07813-.125-.20313-.25-.20313-.1875 0-.39062.21875-.39062.42188m0 0"/><clipPath id="a"><path d="M0 .72656h106.19922v176.47266H0Zm0 0"/></clipPath><clipPath id="e"><path d="M88 76h18.19922v26H88Zm0 0"/></clipPath><clipPath id="g"><path d="M52 6h2v171.19922h-2Zm0 0"/></clipPath><clipPath id="h"><path d="M40 .72656h26V19H40Zm0 0"/></clipPath><clipPath id="i"><path d="M.39453 1.1211H105.8047v175.68359H.39453Zm0 0"/></clipPath></defs><g clip-path="url(#a)"><path fill="none" stroke="#000" stroke-miterlimit="10" stroke-opacity=".5" stroke-width=".39516" d="M.39451 159.2344h105.4102M.3945 124.09767h105.4102M.3945 88.96094h105.4102M.3945 53.8242h105.4102M.3945 18.68747h105.4102M17.96092 176.80472V1.12106m35.14064 175.68366V1.12106M88.2383 176.80472V1.12106"/></g><path fill="none" stroke="#000" stroke-miterlimit="10" stroke-opacity=".5" stroke-width=".39516" d="M53.10156 80.17968V97.7461"/><use xlink:href="#b" x="38.03395" y="104.74989" fill-opacity=".5"/><path fill="none" stroke="#000" stroke-miterlimit="10" stroke-opacity=".5" stroke-width=".39516" d="M17.96092 80.17968V97.7461"/><g fill-opacity=".5"><use xlink:href="#c" x="11.43944" y="101.29704"/><use xlink:href="#d" x="18.95261" y="101.29704"/></g><path fill="none" stroke="#000" stroke-miterlimit="10" stroke-opacity=".5" stroke-width=".39516" d="M88.2383 80.17968V97.7461"/><use xlink:href="#d" x="85.46856" y="101.29704" fill-opacity=".5"/><path fill="none" stroke="#000" stroke-miterlimit="10" stroke-width=".79034" d="M.39451 88.96094h99.2852"/><path d="M103.8086 88.96094c-.50782-.10547-2.73438-.70313-4.12891-1.35156v2.70703c1.39453-.65235 3.6211-1.25 4.1289-1.35547m0 0"/><g clip-path="url(#e)"><path fill="none" stroke="#000" stroke-miterlimit="10" stroke-width=".79034" d="M103.8086 88.96094c-.50782-.10547-2.73438-.70313-4.12891-1.35157v2.70704c1.39453-.65235 3.6211-1.25 4.1289-1.35547Zm0 0"/></g><path fill="none" stroke="#000" stroke-miterlimit="10" stroke-opacity=".5" stroke-width=".39516" d="M61.88282 159.2344H44.3164"/><g fill-opacity=".5"><use xlink:href="#c" x="34.27766" y="162.78601"/><use xlink:href="#f" x="41.79083" y="162.78601"/></g><path fill="none" stroke="#000" stroke-miterlimit="10" stroke-opacity=".5" stroke-width=".39516" d="M61.88282 124.09767H44.3164"/><g fill-opacity=".5"><use xlink:href="#c" x="34.27766" y="127.6496"/><use xlink:href="#d" x="41.79083" y="127.6496"/></g><path fill="none" stroke="#000" stroke-miterlimit="10" stroke-opacity=".5" stroke-width=".39516" d="M61.88282 53.8242H44.3164"/><use xlink:href="#d" x="38.03495" y="57.37677" fill-opacity=".5"/><path fill="none" stroke="#000" stroke-miterlimit="10" stroke-opacity=".5" stroke-width=".39516" d="M61.88282 18.68747H44.3164"/><use xlink:href="#f" x="38.03495" y="22.24036" fill-opacity=".5"/><g clip-path="url(#g)"><path fill="none" stroke="#000" stroke-miterlimit="10" stroke-width=".79034" d="M53.10156 176.80472V7.24606"/></g><path d="M53.10156 3.11719c-.10547.5039-.70312 2.73437-1.35547 4.1289h2.70703c-.65234-1.39453-1.24609-3.625-1.35156-4.1289m0 0"/><g clip-path="url(#h)"><path fill="none" stroke="#000" stroke-miterlimit="10" stroke-width=".79034" d="M53.10156 3.11719c-.10547.5039-.70312 2.73437-1.35547 4.1289h2.70703c-.65234-1.39453-1.24609-3.625-1.35156-4.1289Zm0 0"/></g><g clip-path="url(#i)"><path fill="none" stroke="#007F7F" stroke-miterlimit="10" stroke-width=".79034" d="m.39451 194.37113 4.39063-8.78125c1.21875-2.4375 3.17578-6.34766 4.39453-8.78516s3.17188-6.34766 4.39063-8.78516 3.17187-6.34766 4.39062-8.78516c1.22266-2.4375 3.17579-6.34375 4.39454-8.78125s3.17187-6.34766 4.39062-8.78516 3.17579-6.34766 4.39454-8.78516 3.17187-6.34766 4.39062-8.78516l4.39063-8.78125c1.21875-2.4375 3.17578-6.34766 4.39453-8.78516s3.17188-6.34766 4.39063-8.78516 3.17578-6.34766 4.39453-8.78516l4.39063-8.78126c1.21875-2.4375 3.17187-6.34765 4.39063-8.78516s3.17578-6.34765 4.39453-8.78516 3.17187-6.34765 4.39063-8.78515l4.39062-8.78126c1.21875-2.4414 3.17578-6.34766 4.39453-8.78516s3.17188-6.34766 4.39063-8.78516 3.17578-6.34766 4.39453-8.78516 3.17188-6.34765 4.39063-8.78516l4.39063-8.78125c1.21875-2.4375 3.17578-6.34766 4.39453-8.78516s4.39063-8.78516 4.39063-8.78516"/></g><use xlink:href="#j" x="36.38091" y="143.87266" fill="#007F7F"/><use xlink:href="#k" x="45.85345" y="146.58972" fill="#007F7F"/><use xlink:href="#l" x="48.92601" y="91.84582" fill="#007F7F"/><use xlink:href="#l" x="84.06243" y="21.57299" fill="#007F7F"/></svg>