<svg xmlns="http://www.w3.org/2000/svg" xmlns:xlink="http://www.w3.org/1999/xlink" width="258.75pt" height="258.75pt" viewBox="0 0 258.75 258.75"><defs><path id="b" d="M.5-4.0625C.5-1.625 1.23438.14063 3.23438.14063S5.95313-1.625 5.95313-4.0625s-.71875-4.20312-2.71875-4.20312S.5-6.5.5-4.0625m1.23438 0c0-1.98437.34375-3.78125 1.5-3.78125S4.70313-6.04687 4.70313-4.0625c0 1.98438-.3125 3.78125-1.46875 3.78125s-1.5-1.79687-1.5-3.78125m0 0"/><path id="c" d="M.9375-2.76562h6.01563v-.64063H.9375Zm0 0"/><path id="d" d="M.29688-1.125c0 .46875.76562 1.25 2.3125 1.25C4.1875.125 5.1875-.67187 5.1875-2.07812c0-1.45313-1.25-1.89063-1.85937-1.95313v-.04687c.59375-.09375 1.53125-.53125 1.53125-1.60938 0-1.21875-.9375-1.75-2.10938-1.75-1.45312 0-2.15625.84375-2.15625 1.29688 0 .34375.39063.53125.53125.53125s.21875-.07813.26563-.21875c.25-.75.65625-1.21875 1.28125-1.21875.85937 0 1.07812.75 1.07812 1.35937 0 .65625-.23437 1.48438-1.17187 1.48438-.51563 0-.82813-.10938-.95313-.10938-.14062 0-.1875.10938-.1875.3125 0 .1875.04688.29688.1875.29688.125 0 .4375-.10938.95313-.10938.9375 0 1.46875.84375 1.46875 1.79688C4.04688-.70312 3.40625-.25 2.625-.25c-.73437 0-1.20312-.54687-1.42187-1.15625-.0625-.21875-.17188-.3125-.3125-.3125-.20313 0-.59375.20313-.59375.59375m0 0"/><path id="e" d="M.29688-.10937.42188 0h4.53125l.35937-1.4375L5.01563-1.5c-.23438.59375-.45313.67188-.89063.67188H1.32813c.17187-.5625.82812-1.34375 1.84375-2.07813 1.04687-.76562 1.85937-1.26562 1.85937-2.48437 0-1.53125-1.01562-2.04688-2.17187-2.04688-1.5 0-2.26563.90625-2.26563 1.48438 0 .35937.42188.54687.60938.54687s.26562-.125.3125-.3125c.17187-.73437.60937-1.32812 1.28125-1.32812.82812 0 1.07812.6875 1.07812 1.5 0 1.17187-.59375 1.82812-1.54687 2.67187C.98438-1.70312.51563-.95312.29688-.10937m0 0"/><path id="f" d="M1.1875 0h3.59375v-.3125l-.92187-.07812C3.625-.42187 3.5-.5 3.5-.9375V-7.375l-.04687-.0625-2.26563.39063v.26562l1.03125.125c.17188.01563.25.10938.25.42188V-.9375c0 .4375-.10937.51563-.35937.54688L1.1875-.3125Zm0 0"/><path id="h" d="m.21875-2.1875.09375.23438h2.98438v1.10937c0 .375-.125.4375-.39063.45313l-.6875.07812V0h2.875v-.3125L4.60938-.375c-.25-.03125-.32813-.09375-.32813-.46875v-1.10937h1.125v-.51563h-1.125V-7.3125h-.79687C2.45313-5.79687 1.21875-3.90625.21875-2.1875m.79688-.28125c.65625-1.1875 1.4375-2.45312 2.28125-3.78125v3.78125Zm0 0"/><clipPath id="a"><path d="M0 0h258.5v258.5H0Zm0 0"/></clipPath><clipPath id="g"><path d="M240 153h18.5v26H240Zm0 0"/></clipPath><clipPath id="i"><path d="M128 6h2v252.5h-2Zm0 0"/></clipPath></defs><g clip-path="url(#a)"><path fill="none" stroke="#7f7f7f" stroke-dasharray=".39811744000000004 .9953235712000001" stroke-miterlimit="10" stroke-width=".39812" d="M.3945 239.69533h257.711M.3945 202.87892h257.711M.3945 166.0664h257.711M.3945 129.24999h257.711M.3945 92.43358h257.711M.3945 55.61716h257.711M.3945 18.80465h257.711M18.80466 258.10159V.39449m36.81642 257.7071V.39449m36.8125 257.7071V.39449M129.25 258.10159V.39449m36.81642 257.7071V.39449m36.8125 257.7071V.39449m36.81642 257.7071V.39449"/></g><use xlink:href="#b" x="113.1297" y="183.01318" fill="#7f7f7f"/><path fill="none" stroke="#7f7f7f" stroke-miterlimit="10" stroke-width=".39812" d="M18.80466 156.85937v18.41016"/><g fill="#7f7f7f"><use xlink:href="#c" x="11.95845" y="187.28105"/><use xlink:href="#d" x="19.83049" y="187.28105"/></g><path fill="none" stroke="#7f7f7f" stroke-miterlimit="10" stroke-width=".39812" d="M55.62108 156.85937v18.41016"/><g fill="#7f7f7f"><use xlink:href="#c" x="48.77288" y="187.28105"/><use xlink:href="#e" x="56.64493" y="187.28105"/></g><path fill="none" stroke="#7f7f7f" stroke-miterlimit="10" stroke-width=".39812" d="M92.43359 156.85937v18.41016"/><g fill="#7f7f7f"><use xlink:href="#c" x="85.58831" y="187.28105"/><use xlink:href="#f" x="93.46036" y="187.28105"/></g><path fill="none" stroke="#7f7f7f" stroke-miterlimit="10" stroke-width=".39812" d="M166.06642 156.85937v18.41016"/><use xlink:href="#f" x="163.15336" y="187.28105" fill="#7f7f7f"/><path fill="none" stroke="#7f7f7f" stroke-miterlimit="10" stroke-width=".39812" d="M202.87893 156.85937v18.41016"/><use xlink:href="#e" x="199.96879" y="187.28105" fill="#7f7f7f"/><path fill="none" stroke="#7f7f7f" stroke-miterlimit="10" stroke-width=".39812" d="M239.69534 156.85937v18.41016"/><use xlink:href="#d" x="236.78322" y="187.28105" fill="#7f7f7f"/><path fill="none" stroke="#000" stroke-miterlimit="10" stroke-width=".79624" d="M.3945 166.0664h251.53913"/><path d="M256.09375 166.0664c-.51172-.10937-2.75781-.71093-4.16016-1.36327v2.72265c1.40235-.65234 3.64844-1.2539 4.16016-1.35937m0 0"/><g clip-path="url(#g)"><path fill="none" stroke="#000" stroke-miterlimit="10" stroke-width=".79624" d="M256.09375 166.0664c-.51172-.10937-2.75781-.71093-4.16016-1.36328v2.72266c1.40235-.65234 3.64844-1.2539 4.16016-1.35937Zm0 0"/></g><path fill="none" stroke="#7f7f7f" stroke-miterlimit="10" stroke-width=".39812" d="M138.45313 239.69533h-18.40626"/><g fill="#7f7f7f"><use xlink:href="#c" x="101.78066" y="243.41482"/><use xlink:href="#e" x="109.65271" y="243.41482"/></g><path fill="none" stroke="#7f7f7f" stroke-miterlimit="10" stroke-width=".39812" d="M138.45313 202.87892h-18.40626"/><g fill="#7f7f7f"><use xlink:href="#c" x="101.78066" y="206.60039"/><use xlink:href="#f" x="109.65271" y="206.60039"/></g><path fill="none" stroke="#7f7f7f" stroke-miterlimit="10" stroke-width=".39812" d="M138.45313 129.24999h-18.40626"/><use xlink:href="#f" x="109.65305" y="132.97053" fill="#7f7f7f"/><path fill="none" stroke="#7f7f7f" stroke-miterlimit="10" stroke-width=".39812" d="M138.45313 92.43358h-18.40626"/><use xlink:href="#e" x="109.65305" y="96.1561" fill="#7f7f7f"/><path fill="none" stroke="#7f7f7f" stroke-miterlimit="10" stroke-width=".39812" d="M138.45313 55.61716h-18.40626"/><use xlink:href="#d" x="109.65305" y="59.27673" fill="#7f7f7f"/><path fill="none" stroke="#7f7f7f" stroke-miterlimit="10" stroke-width=".39812" d="M138.45313 18.80465h-18.40626"/><use xlink:href="#h" x="109.65305" y="22.4623" fill="#7f7f7f"/><g clip-path="url(#i)"><path fill="none" stroke="#000" stroke-miterlimit="10" stroke-width=".79624" d="M129.25 258.10159V6.56637"/></g><path stroke="#000" stroke-miterlimit="10" stroke-width=".79624" d="M129.25 2.40625c-.10547.51172-.70703 2.75781-1.36328 4.16016h2.72656c-.65625-1.40235-1.25781-3.64844-1.36328-4.16016Zm0 0"/></svg>