<svg xmlns="http://www.w3.org/2000/svg" xmlns:xlink="http://www.w3.org/1999/xlink" width="400.092pt" height="287.829pt" viewBox="0 0 400.092 287.829"><defs><path id="b" d="M1.4375-4.26562h9.25v-.96875h-9.25Zm0 0"/><path id="c" d="M.45313-1.71875C.45313-1 1.60938.20313 3.98438.20313c2.4375 0 3.98437-1.23438 3.98437-3.39063 0-2.25-1.9375-2.90625-2.875-3v-.07812c.92188-.14063 2.35938-.8125 2.35938-2.48438 0-1.85937-1.4375-2.6875-3.25-2.6875-2.21875 0-3.3125 1.29688-3.3125 2.01563 0 .51562.59375.79687.82812.79687.21875 0 .34375-.125.40625-.34375.375-1.14062 1-1.875 1.95313-1.875 1.32812 0 1.67187 1.17188 1.67187 2.10938 0 1-.35937 2.28125-1.79687 2.28125-.79688 0-1.26563-.17188-1.46875-.17188-.21875 0-.29688.17188-.29688.46875 0 .28125.07813.46875.29688.46875.20312 0 .67187-.15625 1.46875-.15625 1.4375 0 2.23437 1.28125 2.23437 2.75 0 2-.98437 2.70313-2.1875 2.70313-1.10937 0-1.82812-.82813-2.15625-1.78125-.10937-.3125-.26562-.46875-.5-.46875-.3125 0-.89062.3125-.89062.92187m0 0"/><path id="d" d="M.45313-.15625.625 0h6.95313l.57812-2.21875-.46875-.09375C7.32813-1.39062 7-1.26562 6.3125-1.26562H2.01563c.28125-.875 1.28125-2.07813 2.82812-3.20313 1.60938-1.1875 2.85938-1.9375 2.85938-3.8125 0-2.34375-1.54688-3.15625-3.3125-3.15625-2.3125 0-3.5 1.40625-3.5 2.28125 0 .5625.64062.84375.9375.84375.29687 0 .40625-.1875.48437-.46875.26563-1.14062.92188-2.0625 1.96875-2.0625 1.28125 0 1.65625 1.07813 1.65625 2.3125 0 1.79688-.90625 2.82813-2.375 4.10938C1.48438-2.60937.76563-1.46875.45313-.15625m0 0"/><path id="e" d="M1.82813 0h5.53125v-.48437l-1.42188-.125c-.35937-.03126-.54687-.15626-.54687-.82813v-9.90625l-.09375-.09375-3.46875.59375v.40625l1.57812.20313c.28125.03125.39063.15625.39063.64062v8.15625c0 .67188-.17188.79688-.5625.82813l-1.40625.125Zm0 0"/><path id="f" d="M.32813-3.35937.46875-3h4.57813v1.71875c0 .5625-.1875.65625-.59375.6875L3.375-.48437V0h4.4375v-.48437l-.75-.09375c-.39062-.04688-.5-.14063-.5-.70313V-3h1.71875v-.79687H6.5625v-7.4375H5.32813C3.75-8.90625 1.85938-6 .32813-3.35937m1.20312-.4375C2.54688-5.625 3.75-7.5625 5.04688-9.60937v5.8125Zm0 0"/><path id="g" d="M.70313-5.625c0 3.375.98437 5.82813 3.75 5.82813C7.23438.20313 8.23438-2.25 8.23438-5.625c0-3.35937-1-5.8125-3.78125-5.8125-2.76563 0-3.75 2.45313-3.75 5.8125m1.6875 0c0-2.73437.46875-5.21875 2.0625-5.21875s2.0625 2.48438 2.0625 5.21875c0 2.75-.46875 5.23438-2.0625 5.23438S2.39063-2.875 2.39063-5.625m0 0"/><path id="k" d="M.60938-9.32812c0 1.64062 1.64062 2.92187 5.375 2.92187-.625 1.09375-1.07813 2.23438-1.07813 3.46875 0 2.04688 1.29688 3.15625 3.64063 3.15625 2.28125 0 4.67187-1.65625 4.67187-3.78125 0-1.26562-1.0625-1.96875-2.39062-1.96875C9.35938-5.53125 7.625-3.875 7.625-2.5625c0 .39063.3125 1.15625.85938 1.15625.15625 0 .375-.125.375-.29687 0-.25-.4375-.26563-.4375-.84375 0-.90625 1.34375-2.375 2.40625-2.375.76562 0 1.21875.29687 1.21875 1.03125 0 1.64062-1.59375 3.51562-3.5 3.51562C7.1875-.375 6.5-1.10937 6.5-2.34375c0-1.39062.96875-3.01562 1.70313-4.21875 4.15625-.625 8.23437-2.67187 8.23437-5.28125 0-1-.79687-1.65625-1.875-1.65625-2.45312 0-6.17187 3.17188-8.21875 6.4375-1.6875-.01562-4.4375-.04687-4.4375-2.04687 0-1.82813 2.23438-3.23438 3.625-3.23438.25 0 .39063-.15625.39063-.3125s-.14063-.28125-.29688-.28125c-2.09375 0-5.01562 1.40625-5.01562 3.60938m7.98437 2.03125c1.35938-2.40625 4.26563-5.60938 5.96875-5.60938.65625 0 1.125.39063 1.125 1 0 2.09375-3.28125 4-7.09375 4.60938m0 0"/><path id="l" d="M-.28125 2.35938c.01563.45312.57813.79687 1.28125.79687 1.35938 0 2-1.07812 2.53125-3.54687L4.76563-5.875h1.64062l.14063-.54687H4.84375L5.23438-8C5.45313-8.875 5.6875-9.21875 6-9.21875s.53125.25.82813.92188c.09375.14062.20312.26562.42187.26562.3125 0 .71875-.26562.71875-.625 0-.57812-.73437-1.04687-1.59375-1.04687-1.64062 0-2.3125 1.1875-2.78125 2.85937l-.125.42188h-1.125l-.17187.54687h1.17187L1.8125 1.89063c-.125.67187-.25.76562-.375.76562-.14062 0-.35937-.125-.6875-.67187-.09375-.125-.1875-.3125-.39062-.3125-.3125 0-.64063.32812-.64063.6875m0 0"/><path id="m" d="M.71875-5.17187c0 1.67187.45313 3.0625 1.26563 3.95312.84375.9375 2.07812 1.4375 3.70312 1.4375 1.64063 0 2.875-.5 3.71875-1.4375.8125-.89062 1.26563-2.28125 1.26563-3.95312s-.45313-3.04688-1.26563-3.9375c-.84375-.9375-2.07812-1.46875-3.71875-1.46875-1.625 0-2.85937.53125-3.70312 1.46875-.8125.89062-1.26563 2.26562-1.26563 3.9375m1.67188 0c0-2.1875.64062-4.875 3.29687-4.875S9-7.35937 9-5.17187c0 2.20312-.65625 4.875-3.3125 4.875s-3.29687-2.67188-3.29687-4.875m0 0"/><path id="n" d="M.48438 0h3.9375v-.42187C3.07813-.51562 3-.54687 3-1.29687v-3.5c0-1.15625.51563-1.54688.85938-1.54688.25 0 .5.09375.92187.32813.125.0625.23438.07812.3125.07812.35938 0 .6875-.375.6875-.84375 0-.32812-.21875-.71875-.79687-.71875C4.4375-7.5 4-7.1875 3-6.3125L2.82813-7.5.5625-7.125v.35938l.54688.07812c.39062.07813.5.14063.5.67188v4.71875c0 .75-.07813.78125-1.125.875Zm0 0"/><path id="o" d="M.73438-3.51562c0 2.21875 1.15625 3.6875 3.125 3.6875.8125 0 1.5-.35938 2.3125-1.01563v.73438L6.29688 0h2.42187v-.42187c-1.0625-.09375-1.10937-.125-1.10937-.875V-11l-.125-.09375-2.34375.375v.375l.5625.04688c.39062.04687.48437.125.48437.70312v2.45313C5.78125-7.35937 5.21875-7.5 4.53125-7.5c-1.21875 0-2.14062.39063-2.76562 1.03125C1.125-5.8125.73438-4.8125.73438-3.51562m1.5625-.17188c0-1.9375.6875-3.29687 2.21875-3.29687.70312 0 1.28125.3125 1.54687.9375.125.25.125.48437.125.875v2.625c0 .32812 0 .59375-.09375.84375C5.79688-.92187 5.14063-.625 4.35938-.625c-1.375 0-2.0625-1.34375-2.0625-3.0625m0 0"/><path id="p" d="M.73438-3.65625c0 2.42188 1.1875 3.82813 3.59375 3.82813s3.57812-1.40625 3.57812-3.82813S6.73438-7.5 4.32813-7.5.73438-6.07812.73438-3.65625m1.5625 0c0-2.0625.65625-3.32812 2.03125-3.32812 1.35937 0 2.03125 1.26562 2.03125 3.32812S5.6875-.34375 4.32813-.34375c-1.375 0-2.03125-1.25-2.03125-3.3125m0 0"/><path id="q" d="M.48438 0H4.125v-.42187C3.04688-.51562 3-.54687 3-1.29687v-3.5c0-.39063.01563-.57813.15625-.8125.3125-.59375.98438-1.09375 1.78125-1.09375 1.01563 0 1.5625.5625 1.5625 1.875v3.53125c0 .75-.04687.78125-1.125.875V0h3.65625v-.42187c-1.0625-.09375-1.125-.125-1.125-.875V-5.125c0-1.51562-.82812-2.375-2.20312-2.375-1.10938 0-1.79688.53125-2.71875 1.14063L2.78125-7.5.5625-7.125v.35938l.54688.07812c.39062.07813.5.14063.5.67188v4.71875c0 .75-.04688.78125-1.125.875Zm0 0"/><path id="r" d="m3-8.40625.23438.3125 2.25-1.26562c.45312-.23438.84375-.48438.84375-.8125 0-.29688-.35938-.64063-.59375-.64063-.25 0-.5.15625-.95313.60938ZM.73438-3.60937C.73438-1.23437 1.75.17188 4.1875.17188c1.65625 0 2.51563-.92188 2.90625-2.09375l-.4375-.23438c-.42187.875-1 1.5625-2.17187 1.5625-1.85938 0-2.21875-1.78125-2.1875-3.32812h4.29687c.32813 0 .59375-.09375.59375-.57813 0-.875-.28125-3-3.01562-3-2.34375 0-3.4375 1.64063-3.4375 3.89063M2.3125-4.5c0-.625.21875-2.48437 1.78125-2.48437 1.375 0 1.53125 1.42187 1.53125 2 0 .29687-.09375.48437-.5.48437Zm0 0"/><path id="s" d="M.73438-3.60937C.73438-1.23437 1.75.17188 4.1875.17188c1.65625 0 2.51563-.92188 2.90625-2.09375l-.4375-.23438c-.42187.875-1 1.5625-2.17187 1.5625-1.85938 0-2.21875-1.78125-2.1875-3.32812h4.29687c.32813 0 .59375-.09375.59375-.57813 0-.875-.28125-3-3.01562-3-2.34375 0-3.4375 1.64063-3.4375 3.89063M2.3125-4.5c0-.625.21875-2.48437 1.78125-2.48437 1.375 0 1.53125 1.42187 1.53125 2 0 .29687-.09375.48437-.5.48437Zm0 0"/><path id="t" d="M1.65625-10.17187c0 .32812.39063.57812.84375.8125l2.25 1.26562.23438-.3125-1.78125-1.79687C2.75-10.65625 2.5-10.8125 2.25-10.8125c-.23437 0-.59375.34375-.59375.64063M.73438-1.9375c0 1.10938.75 2.10938 2.14062 2.10938.875 0 1.75-.5625 2.23438-.89063.20312.5625.45312.89063.98437.89063.5625 0 1.1875-.15625 1.76563-.4375L7.76563-.625c-.20313.04688-.54688.0625-.76563 0-.26562-.0625-.53125-.32812-.53125-1.26562v-3.625c0-.875-.1875-1.98438-2.4375-1.98438C2.34375-7.5 1-6.64062 1-5.8125c0 .48438.5625.70313.84375.70313.3125 0 .40625-.15625.48438-.40625.32812-1.125.9375-1.46875 1.53125-1.46875s1.26562.29687 1.26562 1.5v.60937c-.39062.39063-1.82812.76563-3.01562 1.15625-1.07813.32813-1.375 1.07813-1.375 1.78125M2.25-2.14062c0-.70313.3125-1.07813 1.15625-1.39063C4.01563-3.75 4.78125-4.04687 5.125-4.25v2.125c0 1.20313-.92187 1.5-1.51562 1.5C2.6875-.625 2.25-1.26562 2.25-2.14062m0 0"/><path id="u" d="M.29688 0H3.9375v-.42187c-1.0625-.09375-1.10937-.125-1.10937-.875V-11l-.10938-.09375-2.34375.375v.375l.5625.04688c.375.04687.48438.125.48438.70312v8.29688c0 .75-.03126.78125-1.125.875Zm0 0"/><path id="v" d="m1.07813-7.29687.26562.23437c.73438-.6875 1.76563-1.6875 1.76563-2.75 0-.8125-.5-1.28125-1-1.28125-.4375 0-.70313.32813-.70313.71875 0 .54688.48438.84375.48438 1.40625s-.34375 1.125-.8125 1.67188m0 0"/><path id="w" d="M1.375-9.78125c0 .54688.375.92188.92188.92188.53125 0 .90625-.375.90625-.92188 0-.54687-.375-.90625-.90625-.90625-.54688 0-.92188.35938-.92188.90625M.48438 0H4.125v-.42187C3.04688-.51562 3-.54687 3-1.29687v-6.10938L2.89063-7.5.5625-7.125v.35938l.54688.07812c.39062.07813.5.14063.5.67188v4.71875c0 .75-.04688.78125-1.125.875Zm0 0"/><path id="x" d="M.625 1.4375c0 1.5 1.5 2.17188 3.23438 2.17188C4.75 3.60938 5.6875 3.4375 6.40625 3c.6875-.40625 1.20313-1.125 1.20313-2.04687 0-1.625-1.29688-2.17188-2.90625-2.17188h-1.1875c-1.07813 0-1.23438-.375-1.23438-.65625 0-.4375.5625-.67187.75-.73437.29688.03125.60938.04687.76563.04687 1.42187 0 3.03125-.625 3.03125-2.4375 0-.60937-.21875-1.14062-.46875-1.39062l1.20312-.1875.29688-.95313-.125-.125-1.90625.60938C5.40625-7.32812 4.5625-7.5 3.875-7.5 1.59375-7.5.79688-6.10937.79688-5c0 1.40625.92187 2.0625 1.60937 2.23438v.03125c-.8125.3125-1.375.75-1.375 1.32812 0 .53125.60938 1.09375 1.32813 1.17188v.03124C1.71875 0 .625.34376.625 1.4375m1.42188-.0625c0-.51562.14062-.89062.46875-1.14062.32812-.25.82812-.34375 1.54687-.34375 1.3125 0 2.28125.32812 2.28125 1.45312 0 1.1875-1.07812 1.76563-2.14062 1.76563-1.28125 0-2.15625-.65625-2.15625-1.73438M2.32813-5c0-1.46875.75-1.98437 1.54687-1.98437.73438 0 1.5.54687 1.5 1.98437 0 1.26563-.64062 1.92188-1.51562 1.92188-.84375 0-1.53125-.65625-1.53125-1.92188m0 0"/><path id="y" d="M.71875-5.10937c0 1.75.51563 3.17187 1.40625 4.0625C3.04688-.125 4.53125.21874 6.20313.21874 7.39063.21875 8.78125-.10937 9.5-.5l.20313-2.48437H9.25C8.84375-1.4375 8.0625-.29687 6.10938-.29687c-3.09375 0-3.71875-3.03125-3.71875-4.84375 0-2.45313.96875-4.90625 3.75-4.90625 1.53125 0 2.59375.625 2.875 2.39062h.45312v-2.32812c-.67187-.32813-1.79687-.59375-3.17187-.59375-1.84375 0-3.32813.54687-4.21875 1.54687C1.21875-8.07812.71875-6.79687.71875-5.10937m0 0"/><path id="z" d="M3-7.32812v-.73438c0-1.6875.875-2.26562 1.5625-2.26562.76563 0 1.07813.28125 1.64063.98437.09375.14063.17187.25.39062.25h.01563c-.15625.4375-.25.9375-.25 1.48438v.28125Zm4.17188-2.73438c-.39063-.42187-1.5-.79687-2.42188-.79687-.8125 0-1.92187.35937-2.29687.9375-.35938.51562-.84375 1.20312-.84375 2.1875v.40625H.45313v.59375h1.15625v5.4375c0 .75-.04688.78125-1.125.875V0h3.79687v-.42187C3.0625-.5 3-.53125 3-1.28125v-5.45312h3.35938v5.4375c0 .75-.03125.78125-1.10938.875V0h3.79688v-.42187C7.84375-.5 7.78125-.53125 7.78125-1.28125v-5.45312h2.875c.375 0 .48438.17187.48438.6875v4.75c0 .75-.03125.78125-1.125.875V0h3.64062v-.42187c-1.0625-.09375-1.10937-.125-1.10937-.875V-7.5c-.48438.04688-1.39063.17188-2.59375.17188H7.78125v-.6875c0-2.20313.98438-2.5625 1.8125-2.5625.73438 0 1.26563.46875 1.5625 1.26562.0625.15625.17188.28125.42188.28125.32812 0 .8125-.20312.8125-.6875 0-.65625-.92188-1.375-2.625-1.375-1.14063 0-2.01563.375-2.59375 1.03125m0 0"/><path id="A" d="M.73438-3.59375c0 2.5 1.21875 3.76563 3.46875 3.76563 1.04687 0 2.46875-.53125 2.875-2.14063l-.4375-.20312C6.17188-1.125 5.57813-.60937 4.48438-.60937c-1.78125 0-2.1875-1.85938-2.1875-3.25 0-2.23438.875-3.125 1.90625-3.125.6875 0 1.10937.5 1.40625 1.3125.09375.23437.20312.375.48437.375.29688 0 .875-.1875.875-.76563 0-.6875-.98437-1.4375-2.60937-1.4375-2.71875 0-3.625 1.92188-3.625 3.90625m0 0"/><path id="B" d="M.46875-6.73437h1.07813v5.20312C1.54688 0 2.67188.17188 3.20313.17188c.75 0 1.46875-.375 1.90625-.65625L5-.79687c-.375.14062-.6875.1875-1.07812.1875-.5 0-.98438-.35938-.98438-1.48438v-4.64062H4.875v-.59375H2.9375v-1.875h-.42187l-.90625 1.875H.46875Zm0 0"/><path id="C" d="m.375-6.76562.57813.07812c.39062.07813.48437.14063.48437.67188v3.95312c0 1.71875 1.01563 2.23438 2.125 2.23438 1.26563 0 2.3125-.85938 2.73438-1.0625L6.4375 0h2.40625v-.42187c-1.03125-.09375-1.125-.125-1.125-.875v-6.10938L7.60938-7.5l-2.34375.375v.35938l.57812.07812c.375.07813.46875.14063.46875.67188v3.375c0 .40625-.04687.75-.125.89062-.34375.6875-1.04687 1.125-1.82812 1.125-.875 0-1.51563-.54687-1.51563-1.71875v-5.0625L2.73438-7.5.375-7.125Zm0 0"/><clipPath id="a"><path d="M0 .24219h397V284H0Zm0 0"/></clipPath><clipPath id="h"><path d="M378 242h21.1875v26H378Zm0 0"/></clipPath><clipPath id="i"><path d="M185 .24219h26V19h-26Zm0 0"/></clipPath><clipPath id="j"><path d="M.39453 31h395.95703v222H.39453Zm0 0"/></clipPath></defs><g clip-path="url(#a)"><path fill="none" stroke="#000" stroke-miterlimit="10" stroke-opacity=".5" stroke-width=".3976" d="M.39446 255.17969h395.95717M.39446 198.61326h395.95717M.39446 142.04684h395.95717M.39446 85.48432h395.95717M.39446 28.91789h395.95717m-367.672 254.54306V.63663m56.56252 282.82432V.63663m56.56642 282.82432V.63663M198.375 283.46095V.63663m56.56252 282.82432V.63663m56.56643 282.82432V.63663m56.56642 282.82432V.63663"/></g><path fill="none" stroke="#000" stroke-miterlimit="10" stroke-opacity=".5" stroke-width=".3976" d="M28.67963 241.03906v28.28126"/><g fill-opacity=".5"><use xlink:href="#b" x="18.17675" y="274.93815"/><use xlink:href="#c" x="30.27184" y="274.93815"/></g><path fill="none" stroke="#000" stroke-miterlimit="10" stroke-opacity=".5" stroke-width=".3976" d="M85.24215 241.03906v28.28126"/><g fill-opacity=".5"><use xlink:href="#b" x="74.74138" y="275.03692"/><use xlink:href="#d" x="86.83647" y="275.03692"/></g><path fill="none" stroke="#000" stroke-miterlimit="10" stroke-opacity=".5" stroke-width=".3976" d="M141.80857 241.03906v28.28126"/><g fill-opacity=".5"><use xlink:href="#b" x="131.306" y="275.03692"/><use xlink:href="#e" x="143.4011" y="275.03692"/></g><path fill="none" stroke="#000" stroke-miterlimit="10" stroke-opacity=".5" stroke-width=".3976" d="M254.93752 241.03906v28.28126"/><use xlink:href="#e" x="250.48254" y="275.03692" fill-opacity=".5"/><path fill="none" stroke="#000" stroke-miterlimit="10" stroke-opacity=".5" stroke-width=".3976" d="M311.50395 241.03906v28.28126"/><use xlink:href="#d" x="307.04716" y="275.03692" fill-opacity=".5"/><path fill="none" stroke="#000" stroke-miterlimit="10" stroke-opacity=".5" stroke-width=".3976" d="M368.07037 241.03906v28.28126"/><use xlink:href="#c" x="363.61179" y="274.93815" fill-opacity=".5"/><path fill="none" stroke="#000" stroke-miterlimit="10" stroke-opacity=".5" stroke-width=".3976" d="M212.51563 198.61326h-28.28126"/><use xlink:href="#e" x="174.12084" y="204.33139" fill-opacity=".5"/><path fill="none" stroke="#000" stroke-miterlimit="10" stroke-opacity=".5" stroke-width=".3976" d="M212.51563 142.04684h-28.28126"/><use xlink:href="#d" x="174.12084" y="147.76676" fill-opacity=".5"/><path fill="none" stroke="#000" stroke-miterlimit="10" stroke-opacity=".5" stroke-width=".3976" d="M212.51563 85.48432h-28.28126"/><use xlink:href="#c" x="174.12084" y="91.10335" fill-opacity=".5"/><path fill="none" stroke="#000" stroke-miterlimit="10" stroke-opacity=".5" stroke-width=".3976" d="M212.51563 28.9179h-28.28126"/><use xlink:href="#f" x="174.12084" y="34.53873" fill-opacity=".5"/><path fill="none" stroke="#000" stroke-miterlimit="10" stroke-opacity=".5" stroke-width=".3976" d="M198.375 241.03906v28.28126"/><use xlink:href="#g" x="174.11984" y="280.59531" fill-opacity=".5"/><path fill="none" stroke="#000" stroke-miterlimit="10" stroke-width=".79521" d="M.39446 255.17969h389.7931"/><path d="M394.34375 255.17969c-.51172-.10547-2.7539-.70703-4.15625-1.36328v2.72265c1.40234-.65234 3.64453-1.2539 4.15625-1.35937m0 0"/><g clip-path="url(#h)"><path fill="none" stroke="#000" stroke-miterlimit="10" stroke-width=".79521" d="M394.34375 255.17969c-.51172-.10547-2.7539-.70703-4.15625-1.36328v2.72265c1.40234-.65234 3.64453-1.2539 4.15625-1.35937Zm0 0"/></g><path fill="none" stroke="#000" stroke-miterlimit="10" stroke-width=".79521" d="M198.375 283.46095V6.79679"/><path d="M198.375 2.64453c-.10547.50781-.70703 2.7539-1.36328 4.15234h2.72266c-.65235-1.39843-1.25391-3.64453-1.35938-4.15234m0 0"/><g clip-path="url(#i)"><path fill="none" stroke="#000" stroke-miterlimit="10" stroke-width=".79521" d="M198.375 2.64453c-.10547.50781-.70703 2.7539-1.36328 4.15234h2.72266c-.65235-1.39843-1.25391-3.64453-1.35938-4.15234Zm0 0"/></g><g clip-path="url(#j)"><path fill="none" stroke="#007F7F" stroke-miterlimit="10" stroke-width=".79521" d="m.39446 241.03906 16.50001-8.25c4.57813-2.28907 11.91797-5.96094 16.4961-8.25 4.57813-2.28907 11.91797-5.95704 16.4961-8.2461l16.5-8.25c4.57813-2.28907 11.91798-5.96095 16.4961-8.25l16.5-8.25001c4.57814-2.28907 11.91798-5.95704 16.4961-8.2461 4.57813-2.28906 11.91798-5.96094 16.4961-8.25l16.50001-8.25c4.57813-2.28907 11.91798-5.95704 16.4961-8.2461l16.5-8.25c4.57813-2.28907 11.91798-5.96094 16.4961-8.25 4.57813-2.28907 11.91798-5.95704 16.4961-8.2461l16.50001-8.25c4.57813-2.28907 11.91797-5.96095 16.4961-8.25 4.57813-2.28907 11.92188-5.95704 16.4961-8.2461l16.5-8.25c4.57813-2.28907 11.91798-5.96095 16.4961-8.25001l16.50001-8.25c4.57813-2.28907 11.91797-5.95704 16.4961-8.2461s11.91797-5.96094 16.4961-8.25l16.5-8.25c4.57813-2.28907 11.91798-5.95704 16.4961-8.2461l16.50001-8.25"/></g><use xlink:href="#k" x="87.37271" y="166.6928" fill="#007F7F"/><use xlink:href="#l" x="102.62011" y="171.06688" fill="#007F7F"/><path fill="none" stroke="#FF7F00" stroke-dasharray="2.9820752442 2.9820752442" stroke-miterlimit="10" stroke-width=".3976" d="M204.03125 250.60547V146.62106"/><path fill="#FF7F00" stroke="#FF7F00" stroke-miterlimit="10" stroke-width=".3976" d="M204.03125 254.4375c.125-.47265.84375-2.53906 1.6211-3.83203h-3.2422c.77735 1.29297 1.4922 3.35938 1.6211 3.83203Zm0-111.64453c-.1289.46875-.84375 2.53515-1.6211 3.82812h3.2422c-.77735-1.29297-1.4961-3.35937-1.6211-3.82812Zm0 0"/><g fill="#FF7F00"><use xlink:href="#m" x="211.05402" y="190.42395"/><use xlink:href="#n" x="222.44137" y="190.42395"/></g><g fill="#FF7F00"><use xlink:href="#o" x="227.9442" y="190.42395"/><use xlink:href="#p" x="236.88232" y="190.42395"/><use xlink:href="#q" x="245.50235" y="190.42395"/><use xlink:href="#q" x="254.74265" y="190.42395"/><use xlink:href="#r" x="263.98295" y="190.42395"/><use xlink:href="#s" x="271.66464" y="190.42395"/></g><use xlink:href="#t" x="211.05402" y="214.27981" fill="#FF7F00"/><use xlink:href="#u" x="222.21871" y="214.27981" fill="#FF7F00"/><use xlink:href="#v" x="226.24246" y="214.27981" fill="#FF7F00"/><g fill="#FF7F00"><use xlink:href="#p" x="229.34376" y="214.27981"/><use xlink:href="#n" x="237.9638" y="214.27981"/></g><g fill="#FF7F00"><use xlink:href="#w" x="243.89604" y="214.27981"/><use xlink:href="#x" x="248.23786" y="214.27981"/><use xlink:href="#w" x="255.99908" y="214.27981"/><use xlink:href="#q" x="260.3409" y="214.27981"/><use xlink:href="#s" x="269.5812" y="214.27981"/></g><path fill="none" stroke="#EC008C" stroke-dasharray="2.9820752442 2.9820752442" stroke-miterlimit="10" stroke-width=".3976" d="M259.51174 113.76558h51.9922V90.05463"/><path fill="#EC008C" stroke="#EC008C" stroke-miterlimit="10" stroke-width=".3976" d="M255.6836 113.76563c.46874.125 2.53515.84375 3.82812 1.62109v-3.24219c-1.29297.77735-3.35938 1.4961-3.82813 1.6211Zm55.8203-27.53907c-.125.46875-.84374 2.53516-1.62109 3.82813h3.24219c-.77734-1.29297-1.4961-3.35938-1.6211-3.82813Zm0 0"/><use xlink:href="#y" x="318.52611" y="93.1537" fill="#EC008C"/><g fill="#EC008C"><use xlink:href="#p" x="328.56162" y="93.1537"/><use xlink:href="#s" x="337.18165" y="93.1537"/><use xlink:href="#z" x="344.86334" y="93.1537"/><use xlink:href="#A" x="358.74765" y="93.1537"/><use xlink:href="#w" x="366.15897" y="93.1537"/><use xlink:href="#s" x="370.5008" y="93.1537"/><use xlink:href="#q" x="378.18249" y="93.1537"/><use xlink:href="#B" x="387.42279" y="93.1537"/></g><g fill="#EC008C"><use xlink:href="#o" x="318.52611" y="117.00956"/><use xlink:href="#w" x="327.46423" y="117.00956"/><use xlink:href="#n" x="331.80606" y="117.00956"/></g><g fill="#EC008C"><use xlink:href="#s" x="337.30888" y="117.00956"/><use xlink:href="#A" x="344.99058" y="117.00956"/><use xlink:href="#B" x="352.4019" y="117.00956"/><use xlink:href="#s" x="357.53893" y="117.00956"/><use xlink:href="#C" x="365.22063" y="117.00956"/><use xlink:href="#n" x="374.27007" y="117.00956"/></g></svg>