<svg xmlns="http://www.w3.org/2000/svg" xmlns:xlink="http://www.w3.org/1999/xlink" width="555.222pt" height="127.944pt" viewBox="0 0 555.222 127.944"><defs><path id="h" d="M-.21875-13.76562c1.0625.04687 1.3125.17187 1.60938 1.0625L5.625 0h2.65625l2.51563-7.34375c.78125-2.3125 1.51562-4.34375 1.82812-5.17187.42188-1.01563.60938-1.17188 1.79688-1.25v-.78125H9.53125v.78125l1.1875.10937c.4375.04688.46875.25.35938.6875-.20313.70313-.67188 2.4375-1.29688 4.39063-.42187 1.28125-1.34375 4.375-1.71875 5.4375h-.10937l-3.15625-9.75c-.14063-.45313-.125-.71875.375-.76563l1.01562-.10937v-.78125H-.21875Zm0 0"/><path id="i" d="M1-2.82812C1-1.25 2.01563.25 4.14063.25c1.34375 0 2.28125-.71875 3.03125-1.21875C7.4375-.3125 7.8125.25 8.82813.25c1.09375 0 2.39062-.35937 3.07812-.625l-.01562-.70312c-.26563.03124-.73438 0-1.04688-.10938-.28125-.09375-.67187-.32812-.67187-1.5625v-4.85937c0-1.32813-.1875-2.95313-3.90625-2.95313-3.09375 0-5.01563 1.21875-5.01563 2.59375 0 .92188 1.34375 1.3125 1.89063 1.3125.46875 0 .6875-.32812.89062-.84375.57813-1.79687 1.28125-2.10937 1.85938-2.10937.60937 0 1.1875.35937 1.1875 1.57812v1.10938c-.73438.51562-2.48438 1.01562-3.85938 1.48437C1.5625-4.85937 1-4.03125 1-2.82812m3.20313-.32813c0-.98437.35937-1.48437.98437-1.84375.65625-.34375 1.375-.64062 1.89063-.85937v3.03125c-.04688 1.15625-.70313 1.4375-1.28125 1.4375-.82813 0-1.59375-.64063-1.59375-1.76563m0 0"/><path id="j" d="M.51563 0h5.90625v-.8125C5.21875-.875 5.07813-.96875 5.07813-1.84375v-13.625l-.17188-.14062-4.23437.5625v.76562l.71875.10938c.32812.0625.48437.25.48437 1.09375v11.23437c0 .875-.15625.96875-1.35937 1.03125Zm0 0"/><path id="k" d="M.82813-5.15625c0 2.875 1.25 5.40625 5.15625 5.40625 2.5 0 3.875-1.21875 4.57812-3.07812l-.75-.42188c-.625 1.21875-1.53125 1.89063-2.79687 1.89063-2.10938 0-2.84375-1.73438-2.84375-3.95313H9.625c.76563 0 1.125-.20312 1.125-.875 0-1.71875-.67187-4.375-4.73437-4.375-3.78125 0-5.1875 2.45313-5.1875 5.40625M4.17188-6.3125c0-1.53125.39062-3.29687 1.76562-3.29687 1.26563 0 1.5 1.60937 1.5 2.59375 0 .59375-.15625.70312-.65625.70312Zm0 0"/><path id="l" d="m.625-9.20312.73438.10937c.34375.04688.48437.20313.48437 1.0625v5.125C1.84375-.45312 3.35938.25 4.875.25c1.79688 0 2.89063-.96875 3.75-1.4375L8.79688 0h4.375v-.8125c-1.21875-.0625-1.34375-.15625-1.34375-1.03125v-8.59375l-.1875-.125-4.25.59375v.76563l.73437.10937c.34375.04688.5.20313.5 1.0625v4.45313c0 .35937-.03125.875-.15625 1.1875-.20312.48437-.76562.98437-1.6875.98437-1.10937 0-1.76562-.65625-1.76562-2.28125v-6.75l-.15625-.125L.625-9.96875Zm0 0"/><path id="m" d="M.67188 0h6.35937v-.8125C5.42188-.89062 5.1875-.96875 5.1875-1.84375v-4.67187c0-1.09375.20313-1.60938.71875-1.60938.34375 0 .65625.17188 1.125.4375.26563.20313.5625.34375.96875.34375.42188 0 .84375-.21875 1.0625-.53125.23438-.3125.34375-.75.34375-1.21875 0-.89062-.57812-1.46875-1.45312-1.46875s-1.54688.57813-2.78125 1.85938L4.875-10.5625l-4.09375.59375v.76563l.73438.10937c.34375.04688.51562.20313.51562 1.0625v6.1875c0 .875-.15625.96875-1.35937 1.03125Zm0 0"/><path id="n" d="M.82813-4.96875C.82813-1.90625 2.42188.25 5.07813.25c.78125 0 1.90625-.40625 3.04687-1.29687V0h4.53125v-.8125c-1.21875-.0625-1.375-.15625-1.375-1.03125v-13.625l-.125-.14062-4.28125.5625v.76562l.73438.10938c.34375.0625.51562.25.51562 1.09375v2.78125c-.46875-.20313-1.07812-.26563-1.78125-.26563-1.57812 0-2.98437.46875-3.95312 1.35938C1.40625-8.28125.82813-6.875.82813-4.96875m3.34375-.42187c0-3.09375 1.15625-4.21875 2.34375-4.21875.8125 0 1.23437.42187 1.4375.85937.20312.3125.17187.75.17187 1.20313v4.34375c0 .85937-.3125 1.84375-1.65625 1.84375-1.35937 0-2.29687-1.34375-2.29687-4.03125m0 0"/><path id="p" d="m1-4.75.34375 3.76563C2.42188 0 4.5.3125 5.89063.3125c4.20312-.04687 5.4375-2.3125 5.4375-4.5 0-2.78125-2.03125-3.84375-3.96875-4.65625-1.375-.57812-3.15625-1.34375-3.15625-2.9375 0-1.3125.95312-2.125 2.20312-2.125 1.34375 0 2.64063.9375 3.21875 3.40625h.76563v-3.45312c-1.09375-.67188-2.6875-.9375-3.96875-.9375-3.5625 0-5.23438 1.84375-5.23438 4.32812 0 2.60938 2.32813 3.73438 4.1875 4.51563 1.92188.8125 2.79688 1.75 2.79688 3.09375-.01563 1.5625-1 2.29687-2.375 2.29687-1.59375 0-3.20313-1.45312-4-4.09375Zm0 0"/><path id="q" d="M1.59375-13.32812c0 1.01562.71875 1.85937 1.90625 1.85937 1.15625 0 1.96875-.84375 1.96875-1.85937 0-.98438-.76562-1.82813-1.96875-1.82813-1.1875 0-1.90625.84375-1.90625 1.82813M.67188 0h5.9375v-.8125C5.39063-.875 5.1875-.96875 5.1875-1.84375v-8.59375l-.10937-.125-4.29688.59375v.76563l.73438.10937c.34375.04688.51562.20313.51562 1.0625v6.1875c0 .875-.15625.96875-1.35937 1.03125Zm0 0"/><path id="r" d="M.67188 2.01563c0 2.03125 2.1875 3.0625 5.1875 3.0625.92187 0 2.45312-.17188 3.5-.75 1.17187-.60938 1.95312-1.70313 1.95312-3.23438 0-2.53125-1.95312-3.3125-4.17187-3.3125H5.1875c-1.01562 0-1.40625-.32812-1.40625-.71875 0-.46875.54688-.6875.82813-.75.40625.03125.71875.01563.96875.01563 2.48437 0 4.71875-.89063 4.71875-3.40625 0-.625-.25-1.28125-.51563-1.625l1.39063-.25.42187-1.59375-.20312-.21875-2.65625.89062c-.70313-.40625-1.85938-.6875-3-.6875-3.78125 0-4.90625 1.9375-4.90625 3.57813 0 1.75 1.29687 2.79687 2.57812 3v.04687C2.03125-3.60937 1.14063-2.84375 1.14063-2c0 .92188 1.03125 1.78125 1.95312 1.98438v.03125c-.875.20312-2.42187.59375-2.42187 2m2.79687-.20313c0-.57812.26563-.96875.5625-1.15625.29688-.20312.9375-.32812 1.85938-.32812C7.6875.32813 8.75.73438 8.75 2.01563c0 1.5-1.15625 2.10937-2.5625 2.10937-1.42187 0-2.71875-.8125-2.71875-2.3125M4.125-7.04687c0-1.79688.73438-2.5625 1.57813-2.5625.82812 0 1.59375.76562 1.59375 2.53125 0 1.5-.64063 2.4375-1.60938 2.4375-.89062 0-1.5625-.95313-1.5625-2.40625m0 0"/><path id="s" d="M.67188 0H6.3125v-.8125l-.40625-.03125c-.4375-.04687-.71875-.125-.71875-.8125v-5.01562c0-.46875.09375-.9375.25-1.23438.26563-.53125.82813-1.04687 1.70313-1.04687 1.07812 0 1.64062.67187 1.6875 1.92187v5.375c0 .6875-.23438.76563-.67188.8125l-.45312.03125V0H13.375v-.8125c-1.21875-.0625-1.39062-.15625-1.39062-1.03125v-5.48437C11.95313-9.29687 11-10.5625 8.82813-10.5625c-1.23438 0-2.25.625-3.64063 1.45313l-.26562-1.45313-4.14063.59375v.76563l.73438.10937c.34375.04688.51562.20313.51562 1.0625v6.1875c0 .875-.15625.96875-1.35937 1.03125Zm0 0"/><path id="o" d="M.67188-.82812c0 .60937.5 1.07812 1.34375 1.07812C3.45313.25 4.25-1.1875 5.125-2.59375l.85938-1.39062h.03125l.39062 1.65625C6.8125-.65625 7.1875.25 8.26563.25c1.54687 0 2.34375-1.59375 2.96875-2.875l-.53125-.28125c-.51563.9375-1.09375 2.0625-1.6875 2.0625-.39063 0-.54688-.48437-1.01563-2.35937l-.67187-2.75c.75-1.34375 1.82812-3.03125 2.4375-3.03125.625 0 .64062.34375 1.26562.34375.48438 0 .90625-.45313.90625-1.01563 0-.64062-.5-.90625-1.07812-.90625-1.125 0-2.0625 1-2.79688 2.1875l-.92187 1.4375h-.04688L6.25-10.48437l-.10937-.07813-3.46875 1.04688L2.70313-9l1.65625-.10937c.34375 0 .5.15625.70312 1.04687l.73438 3.04688-.57813 1c-.89062 1.54687-1.6875 2.65625-2.20312 2.65625-.59375 0-.75-.51563-1.42188-.51563-.54687 0-.92187.53125-.92187 1.04688m0 0"/><path id="t" d="M-.45312 3.875c.03125.6875.95312 1.20313 1.9375 1.20313 2.09375 0 3-1.70313 3.85937-5.73438l1.95313-8.85937h2.67187l.20313-.8125H7.4375l.57813-2.375c.40625-1.57813.8125-2.1875 1.39062-2.1875.5625 0 .9375.46875 1.40625 1.48437.10938.20313.26563.35938.57813.35938.4375 0 1.03125-.39063 1.03125-.92188 0-.90625-1.14063-1.64062-2.39063-1.64062-2.48437 0-3.51562 1.75-4.32812 4.53125l-.21875.75h-1.8125l-.25.8125H5.3125L2.85938 2.89063c-.23438 1.29687-.46875 1.4375-.67188 1.4375-.21875 0-.54687-.15625-1.10937-1.03125-.15626-.20313-.29688-.46875-.5625-.46875-.46875 0-.96875.51562-.96875 1.04687m0 0"/><path id="u" d="M1.8125-5.9375c0 4.75 1.07813 9.96875 5.53125 10.14063v-.625C5.84375 3.29688 3.5 1.4375 3.5-5.9375c0-7.3125 2.23438-9.17187 3.84375-9.51562v-.625C2.89063-15.89062 1.8125-10.6875 1.8125-5.9375m0 0"/><path id="v" d="M1.25 3.57813v.625C5.70313 4.03125 6.78125-1.1875 6.78125-5.9375S5.70313-15.89062 1.25-16.07812v.625c1.60938.34375 3.85938 2.20312 3.85938 9.51562 0 7.375-2.35938 9.23438-3.85938 9.51563m0 0"/><path id="A" d="M1.79688-5.32812H13.375V-6.5625H1.79688Zm0 0"/><path id="B" d="M.32813-4.45312c0 2.5 2.5 4.67187 4.82812 4.67187 2.95313 0 4.82813-2.95312 5.1875-3.53125C10.75-2.54687 12.78125.25 16.04688.25c3.90624 0 5.01562-2.95312 5.01562-5.4375 0-2.51562-2.34375-4.5-4.67187-4.5-2.79688 0-4.32813 2-5.21876 3.23438-.82812-1.34375-2.65624-3.20313-5.57812-3.20313-3.82812 0-5.26562 2.71875-5.26562 5.20313m1.32812.0625c0-2.10938 1.48438-3.76563 3.25-3.76563 2.10938 0 3.875 2.21875 4.85938 3.79688-.8125 1.42187-2.3125 3.625-4.6875 3.625-1.51563 0-3.42188-1.75-3.42188-3.65625m10.125-1.125c.79688-1.42188 2.32813-3.1875 4.70313-3.1875 1.51562 0 3.35937 1.51562 3.35937 3.42187 0 2.125-1.14062 4.07813-3.1875 4.07813-2.17187 0-3.89062-2.42188-4.875-4.3125m0 0"/><path id="C" d="M2.28125 0h6.92188v-.60937L7.4375-.76563c-.45312-.04687-.70312-.20312-.70312-1.03124v-12.40625L6.625-14.3125l-4.34375.75v.51563L4.25-12.8125c.35938.04688.5.20313.5.8125v10.20313c0 .82812-.20312.98437-.70312 1.03125l-1.76563.15624Zm0 0"/><path id="D" d="M1.79688-5.32812h5.17187v5.17187H8.1875v-5.17187h5.1875V-6.5625H8.1875v-5.17187H6.96875v5.17187H1.79688Zm0 0"/><path id="G" d="M.875-7.03125C.875-2.82812 2.10938.25 5.57813.25s4.71875-3.07812 4.71875-7.28125-1.25-7.28125-4.71875-7.28125S.875-11.23437.875-7.03125m2.125 0c0-3.42187.57813-6.53125 2.57813-6.53125 1.98437 0 2.57812 3.10938 2.57812 6.53125S7.5625-.5 5.57813-.5C3.57813-.5 3-3.60937 3-7.03125m0 0"/><clipPath id="a"><path d="M0 63h224v64.82813H0Zm0 0"/></clipPath><clipPath id="b"><path d="M223 .0625h331.44531V64H223Zm0 0"/></clipPath><clipPath id="c"><path d="M222 .0625h332.44531V65H222Zm0 0"/></clipPath><clipPath id="d"><path d="M223 63h331.44531v64.82813H223Zm0 0"/></clipPath><clipPath id="e"><path d="M222 63h332.44531v64.82813H222Zm0 0"/></clipPath><clipPath id="f"><path d="M0 .0625h224V64H0Zm0 0"/></clipPath><clipPath id="g"><path d="M0 .0625h224V65H0Zm0 0"/></clipPath><clipPath id="w"><path d="M0 63h554.44531v2H0Zm0 0"/></clipPath><clipPath id="x"><path d="M0 127h554.44531v.82813H0Zm0 0"/></clipPath><clipPath id="y"><path d="M0 .0625h554.44531v127.76563H0Zm0 0"/></clipPath><clipPath id="z"><path d="M222 .0625h2v127.76563h-2Zm0 0"/></clipPath><clipPath id="E"><path d="M222 63h332.44531v64.82813H222Zm0 0"/></clipPath><clipPath id="F"><path d="M388 63h1v64.82813h-1Zm0 0"/></clipPath></defs><g clip-path="url(#a)"><path fill="#FFF" stroke="#000" stroke-miterlimit="10" stroke-width=".39794" d="M.19922 63.94533v63.68361h222.8946v-63.6836Zm0 0"/></g><g clip-path="url(#b)"><path fill="#FFF" d="M223.09375 63.94531V.26171h331.16016v63.6836Zm0 0"/></g><g clip-path="url(#c)"><path fill="none" stroke="#000" stroke-miterlimit="10" stroke-width=".39794" d="M223.09381 63.94533V.26172h331.16025v63.68361Zm0 0"/></g><g clip-path="url(#d)"><path fill="#FFF" d="M223.09375 63.94531v63.6836h331.16016V63.9453Zm0 0"/></g><g clip-path="url(#e)"><path fill="none" stroke="#000" stroke-miterlimit="10" stroke-width=".39794" d="M223.09381 63.94533v63.68361h331.16025v-63.6836Zm0 0"/></g><g clip-path="url(#f)"><path fill="#FFF" d="M.19922.26172v63.6836h222.89453V.26171Zm0 0"/></g><g clip-path="url(#g)"><path fill="none" stroke="#000" stroke-miterlimit="10" stroke-width=".39794" d="M.19922.26172v63.68361h222.8946V.26172Zm0 0"/></g><use xlink:href="#h" x="53.4154" y="39.7799"/><use xlink:href="#i" x="65.70453" y="39.7799"/><use xlink:href="#j" x="77.3669" y="39.7799"/><use xlink:href="#k" x="84.08227" y="39.7799"/><use xlink:href="#l" x="95.18502" y="39.7799"/><use xlink:href="#m" x="108.63815" y="39.7799"/><use xlink:href="#n" x="125.56088" y="39.7799"/><use xlink:href="#k" x="138.47678" y="39.7799"/><use xlink:href="#o" x="157.04694" y="39.7799"/><use xlink:href="#p" x="42.95181" y="101.28072"/><use xlink:href="#q" x="54.7261" y="101.28072"/><use xlink:href="#r" x="61.59816" y="101.28072"/><use xlink:href="#s" x="73.0143" y="101.28072"/><use xlink:href="#k" x="86.6465" y="101.28072"/><use xlink:href="#n" x="105.20331" y="101.28072"/><use xlink:href="#k" x="118.11921" y="101.28072"/><use xlink:href="#t" x="136.68822" y="101.28072"/><use xlink:href="#u" x="149.82796" y="101.28072"/><use xlink:href="#o" x="158.42364" y="101.28072"/><use xlink:href="#v" x="171.74246" y="101.28072"/><g clip-path="url(#w)"><path fill="none" stroke="#000" stroke-miterlimit="10" stroke-width=".39794" d="M.19922 63.94533h554.05484"/></g><g clip-path="url(#x)"><path fill="none" stroke="#000" stroke-miterlimit="10" stroke-width=".39794" d="M.19922 127.62894h554.05484"/></g><g clip-path="url(#y)"><path fill="none" stroke="#000" stroke-miterlimit="10" stroke-width=".39794" d="M.19922.26172v127.36722h554.05484V.26172Zm0 0"/></g><g clip-path="url(#z)"><path fill="none" stroke="#000" stroke-miterlimit="10" stroke-width=".39794" d="M223.09381.26172v127.36722"/></g><use xlink:href="#A" x="236.6484" y="36.82504"/><use xlink:href="#B" x="251.78037" y="36.82504"/><use xlink:href="#A" x="375.55875" y="39.25464"/><use xlink:href="#C" x="390.69072" y="39.25464"/><use xlink:href="#D" x="504.14857" y="37.84361"/><use xlink:href="#B" x="519.28054" y="37.84361"/><g clip-path="url(#E)"><path fill="none" stroke="#000" stroke-miterlimit="10" stroke-width=".39794" d="M223.09381 63.94533v63.68361h331.16025v-63.6836Zm0 0"/></g><use xlink:href="#D" x="314.16578" y="101.63023"/><g clip-path="url(#F)"><path fill="none" stroke="#000" stroke-dasharray="2.9846456380000004 2.9846456380000004" stroke-miterlimit="10" stroke-width=".39794" d="M388.67198 63.94533v63.68361"/></g><use xlink:href="#G" x="383.05325" y="102.80459"/><use xlink:href="#A" x="447.87242" y="99.04485"/></svg>