<svg xmlns="http://www.w3.org/2000/svg" xmlns:xlink="http://www.w3.org/1999/xlink" width="260.2pt" height="155.057pt" viewBox="0 0 260.2 155.057"><defs><path id="b" d="M.5-4.04687C.5-1.625 1.20313.14063 3.20313.14063S5.92188-1.625 5.92188-4.04687s-.71875-4.1875-2.71875-4.1875S.5-6.46875.5-4.04687m1.21875 0c0-1.96875.34375-3.75 1.48438-3.75 1.15625 0 1.48437 1.78125 1.48437 3.75S4.35938-.28125 3.20313-.28125c-1.14063 0-1.48438-1.79687-1.48438-3.76562m0 0"/><path id="j" d="M.40625-6.03125c0 1.04688 1.04688 1.89063 3.46875 1.89063-.40625.70312-.6875 1.4375-.6875 2.23437 0 1.32813.82813 2.04688 2.34375 2.04688 1.48438 0 3.03125-1.0625 3.03125-2.4375 0-.82813-.6875-1.28125-1.54687-1.28125-.95313 0-2.07813 1.0625-2.07813 1.92187 0 .25.20313.73438.5625.73438.09375 0 .25-.0625.25-.1875 0-.15626-.29687-.17188-.29687-.53125 0-.59375.875-1.54688 1.5625-1.54688.48437 0 .78125.1875.78125.65625C7.79688-1.45312 6.76563-.25 5.53125-.25c-.875 0-1.32812-.46875-1.32812-1.26562 0-.90625.64062-1.95313 1.10937-2.73438 2.70313-.40625 5.32813-1.73437 5.32813-3.42187 0-.64063-.51563-1.0625-1.20313-1.0625-1.59375 0-4 2.04687-5.32812 4.15625-1.09375 0-2.875-.03125-2.875-1.3125C1.23438-7.07812 2.67188-8 3.57813-8c.17187 0 .26562-.09375.26562-.20312 0-.09375-.09375-.17188-.20312-.17188-1.34375 0-3.23438.90625-3.23438 2.34375m5.15625 1.3125c.89063-1.5625 2.76563-3.64062 3.875-3.64062.42188 0 .71875.25.71875.64062 0 1.35938-2.125 2.59375-4.59375 3m0 0"/><path id="c" d="M.92188-2.75h5.98437v-.64062H.92188Zm0 0"/><path id="d" d="M.29688-1.10937c0 .46875.75 1.23437 2.28125 1.23437 1.57812 0 2.57812-.79687 2.57812-2.1875 0-1.45312-1.25-1.89062-1.85937-1.9375v-.04687c.59375-.09375 1.53125-.53125 1.53125-1.60938 0-1.20312-.9375-1.73437-2.10938-1.73437-1.4375 0-2.14062.82812-2.14062 1.28125 0 .34375.39062.53125.53125.53125s.21874-.07813.26562-.21875c.25-.75.65625-1.21875 1.26563-1.21875.85937 0 1.07812.75 1.07812 1.35937C3.71875-5 3.48438-4.1875 2.5625-4.1875c-.53125 0-.82812-.09375-.95312-.09375-.14063 0-.20313.09375-.20313.29688 0 .1875.0625.29687.20313.29687.125 0 .42187-.09375.95312-.09375C3.48438-3.78125 4-2.95312 4-2 4-.70312 3.375-.25 2.59375-.25c-.71875 0-1.1875-.53125-1.40625-1.15625-.0625-.20312-.17187-.3125-.3125-.3125-.20312 0-.57812.21875-.57812.60938m0 0"/><path id="e" d="M.29688-.10937.40625 0h4.5l.375-1.4375L4.98438-1.5c-.23438.59375-.45313.67188-.89063.67188H1.3125c.17188-.5625.8125-1.34375 1.82813-2.0625 1.04687-.76563 1.84375-1.25 1.84375-2.46875 0-1.51563-1-2.03125-2.14063-2.03125-1.5 0-2.26562.89062-2.26562 1.46875 0 .35937.42187.53125.60937.53125S1.45313-5.5 1.5-5.6875c.17188-.73437.59375-1.32812 1.26563-1.32812.82812 0 1.07812.6875 1.07812 1.5 0 1.15625-.59375 1.82812-1.54687 2.65625C.96875-1.6875.5-.95312.29688-.10937m0 0"/><path id="f" d="M1.1875 0h3.57813v-.3125l-.92188-.07812C3.60938-.42187 3.48438-.5 3.48438-.92187v-6.42188l-.0625-.04687-2.23438.375V-6.75l1.01563.125c.1875.03125.25.10938.25.42188v5.28125c0 .42187-.10938.5-.35938.53125L1.1875-.3125Zm0 0"/><path id="k" d="M-.1875 1.53125c.01563.29688.375.51563.84375.51563.875 0 1.28125-.70313 1.64063-2.29688l.78125-3.54687h1.0625l.09375-.35938H3.14063l.25-1.03125c.14062-.5625.28125-.78125.5-.78125.1875 0 .34375.15625.53125.59375.0625.09375.125.17188.28125.17188.1875 0 .45312-.17188.45312-.40625 0-.375-.46875-.67188-1.03125-.67188-1.0625 0-1.5.76563-1.79687 1.84375L2.25-4.15625h-.73437l-.10938.35938h.75l-.98437 5.01562c-.07813.4375-.15626.5-.25.5-.07813 0-.21876-.07812-.4375-.42187-.0625-.09376-.125-.21876-.25-.21876-.20313 0-.42188.21876-.42188.45313m0 0"/><path id="l" d="M.46875-3.34375c0 1.07813.29688 1.96875.8125 2.54688.54688.60937 1.34375.9375 2.40625.9375s1.85938-.32813 2.39063-.9375c.53125-.57813.82812-1.46875.82812-2.54688s-.29687-1.98437-.82812-2.5625C5.54688-6.5 4.75-6.84375 3.6875-6.84375s-1.85937.34375-2.40625.9375c-.51562.57813-.8125 1.48438-.8125 2.5625m1.07813 0C1.54688-4.76562 1.96875-6.5 3.6875-6.5s2.14063 1.73438 2.14063 3.15625c0 1.42188-.42188 3.14063-2.14063 3.14063S1.54688-1.92187 1.54688-3.34375m0 0"/><path id="m" d="M.3125 0h2.54688v-.28125C2-.32812 1.95313-.34375 1.95313-.84375v-2.26562c0-.73438.32812-1 .54687-1 .15625 0 .32813.0625.59375.21875.07813.04687.15625.04687.20313.04687.23437 0 .4375-.25.4375-.54687 0-.21875-.125-.46875-.51563-.46875-.34375 0-.64062.20312-1.26562.76562l-.125-.76562-1.46875.25v.23437l.35937.04688c.25.04687.32813.07812.32813.4375v3.04687c0 .5-.0625.51563-.73438.5625Zm0 0"/><path id="n" d="M.46875-2.28125c0 1.4375.75 2.39063 2.03125 2.39063.53125 0 .96875-.23438 1.5-.65625v.46875L4.07813 0h1.5625v-.28125c-.6875-.04687-.71875-.0625-.71875-.5625V-7.125l-.07813-.04687-1.51562.23437v.25l.375.03125C3.9375-6.625 4-6.57812 4-6.20312V-4.625c-.26562-.14062-.625-.23437-1.0625-.23437-.79687 0-1.39062.25-1.79687.67187C.73438-3.76562.46875-3.125.46875-2.28125m1.01563-.10937c0-1.25.45312-2.125 1.4375-2.125.45312 0 .82812.20312 1 .60937C4-3.75 4-3.60937 4-3.34375v1.70313c0 .20312 0 .375-.0625.53125-.1875.51562-.60937.70312-1.10937.70312-.89063 0-1.34375-.875-1.34375-1.98437m0 0"/><path id="o" d="M.46875-2.375C.46875-.79687 1.25.10938 2.79688.10938 4.35938.10938 5.125-.79687 5.125-2.375c0-1.5625-.76562-2.48437-2.32812-2.48437C1.25-4.85937.46875-3.9375.46875-2.375m1.01563 0c0-1.32812.4375-2.14062 1.3125-2.14062.89062 0 1.32812.8125 1.32812 2.14062 0 1.34375-.4375 2.15625-1.32812 2.15625-.875 0-1.3125-.8125-1.3125-2.15625m0 0"/><path id="p" d="M.3125 0h2.35938v-.28125c-.6875-.04687-.71875-.0625-.71875-.5625v-2.26562c0-.25 0-.375.07812-.53125.21875-.375.64063-.6875 1.15625-.6875.65625 0 1.03125.35937 1.03125 1.20312v2.28125c0 .5-.03125.51563-.73437.5625V0h2.35937v-.28125c-.6875-.04687-.71875-.0625-.71875-.5625V-3.3125c0-.98437-.54687-1.54687-1.42187-1.54687-.73438 0-1.17188.34375-1.76563.73437l-.14062-.73437-1.4375.25v.23437l.35937.04688c.25.04687.32813.07812.32813.4375v3.04687c0 .5-.03126.51563-.73438.5625Zm0 0"/><path id="q" d="m1.95313-5.4375.14062.20313 1.45313-.8125c.29687-.15625.54687-.32813.54687-.53125S3.85938-7 3.71875-7c-.17187 0-.32812.09375-.625.40625ZM.46875-2.34375c0 1.54688.65625 2.45313 2.23438 2.45313 1.07812 0 1.625-.59375 1.89062-1.35938l-.29687-.15625C4.03125-.82812 3.67188-.375 2.90625-.375c-1.20312 0-1.4375-1.15625-1.42187-2.17187h2.78125c.21875 0 .39062-.04688.39062-.35938 0-.57812-.1875-1.95312-1.95312-1.95312-1.51563 0-2.23438 1.0625-2.23438 2.51562M1.5-2.90625c0-.40625.14063-1.60937 1.14063-1.60937.90625 0 1 .90625 1 1.29687 0 .1875-.0625.3125-.32813.3125Zm0 0"/><path id="r" d="M.46875-2.34375c0 1.54688.65625 2.45313 2.23438 2.45313 1.07812 0 1.625-.59375 1.89062-1.35938l-.29687-.15625C4.03125-.82812 3.67188-.375 2.90625-.375c-1.20312 0-1.4375-1.15625-1.42187-2.17187h2.78125c.21875 0 .39062-.04688.39062-.35938 0-.57812-.1875-1.95312-1.95312-1.95312-1.51563 0-2.23438 1.0625-2.23438 2.51562M1.5-2.90625c0-.40625.14063-1.60937 1.14063-1.60937.90625 0 1 .90625 1 1.29687 0 .1875-.0625.3125-.32813.3125Zm0 0"/><path id="s" d="M1.07813-6.57812c0 .20312.25.375.53125.53125l1.46875.8125.14062-.20313L2.0625-6.59375C1.78125-6.90625 1.60938-7 1.45313-7c-.14063 0-.375.21875-.375.42188M.46875-1.25c0 .71875.48438 1.35938 1.39063 1.35938C2.4375.10938 3-.25 3.3125-.46875c.125.35938.29688.57813.625.57813.35938 0 .78125-.09375 1.15625-.28126l-.0625-.23437c-.14062.03125-.35937.04688-.5 0-.17187-.03125-.34375-.21875-.34375-.8125v-2.35937c0-.5625-.125-1.28125-1.57812-1.28125-1.09375 0-1.95313.5625-1.95313 1.09375 0 .3125.35938.45312.53125.45312.21875 0 .26563-.09375.3125-.26562.21875-.71875.60938-.9375 1-.9375.39063 0 .8125.1875.8125.96875v.39062c-.25.25-1.1875.5-1.9375.75C.67188-2.1875.46875-1.70312.46875-1.25m.98438-.14062c0-.45313.20312-.6875.75-.89063.39062-.15625.89062-.32812 1.10937-.46875v1.375c0 .78125-.59375.96875-.96875.96875-.60937 0-.89062-.42187-.89062-.98437m0 0"/><path id="t" d="M.20313 0h2.34375v-.28125c-.6875-.04687-.71875-.0625-.71875-.5625V-7.125l-.0625-.04687L.25-6.9375v.25l.35938.03125c.25.03125.3125.07813.3125.45313v5.35937c0 .5-.03126.51563-.71875.5625Zm0 0"/><path id="u" d="m.70313-4.71875.15624.14063c.48438-.4375 1.15626-1.07813 1.15626-1.78125 0-.51563-.32813-.8125-.64063-.8125-.29687 0-.46875.20312-.46875.45312 0 .35938.3125.54688.3125.90625 0 .375-.21875.73438-.51562 1.09375m0 0"/><path id="v" d="M.89063-6.32812c0 .34375.23437.59375.59375.59375.34375 0 .57812-.25.57812-.59375 0-.35938-.23437-.59375-.57812-.59375-.35938 0-.59375.23437-.59375.59375M.3125 0h2.35938v-.28125c-.6875-.04687-.71875-.0625-.71875-.5625v-3.95312l-.07813-.0625-1.51562.25v.23437l.35937.04688c.25.04687.32813.07812.32813.4375v3.04687c0 .5-.03126.51563-.73438.5625Zm0 0"/><path id="w" d="M.40625.92188c0 .98437.96875 1.42187 2.09375 1.42187.57813 0 1.1875-.125 1.65625-.39062.4375-.28126.76563-.73438.76563-1.32813 0-1.0625-.82813-1.42187-1.875-1.42187h-.76563c-.70312 0-.8125-.23438-.8125-.42188 0-.28125.375-.42187.5-.46875.1875.01563.39063.03125.5.03125.90625 0 1.95313-.40625 1.95313-1.57812 0-.40625-.14063-.73438-.29688-.90625l.76563-.125.20312-.60938L5-4.95312l-1.23437.39062c-.26563-.1875-.8125-.29687-1.25-.29687-1.48438 0-2 .90625-2 1.625 0 .90625.59375 1.32812 1.04687 1.4375v.03124c-.53125.20313-.89062.48438-.89062.85938 0 .34375.39062.70313.85937.75v.01563C1.10938 0 .40625.21875.40625.92188m.92188-.03126c0-.32812.09374-.57812.29687-.73437.21875-.17187.53125-.23437 1-.23437.85938 0 1.48438.21875 1.48438.9375 0 .78125-.70313 1.15625-1.39063 1.15625-.82812 0-1.39062-.4375-1.39062-1.125M1.5-3.23437c0-.95312.5-1.28125 1.01563-1.28125.46875 0 .96875.34375.96875 1.28125C3.48438-2.42187 3.0625-2 2.5-2c-.54687 0-1-.42187-1-1.23437m0 0"/><path id="x" d="M.46875-3.3125c0 1.14063.32813 2.0625.90625 2.64063.60938.59375 1.5625.8125 2.64063.8125.76562 0 1.67187-.21875 2.125-.45313l.14062-1.625H6C5.71875-.92187 5.21875-.20312 3.95313-.20312c-2 0-2.40625-1.95313-2.40625-3.125 0-1.57813.625-3.17188 2.42187-3.17188 1 0 1.6875.40625 1.875 1.54688H6.125v-1.51563c-.4375-.20312-1.15625-.375-2.04687-.375-1.1875 0-2.15625.34375-2.73438 1-.54687.60938-.875 1.45313-.875 2.53125m0 0"/><path id="y" d="M1.95313-4.75v-.46875c0-1.09375.5625-1.46875 1-1.46875.5 0 .70312.1875 1.0625.64063.0625.07812.10937.15625.25.15625h.01562c-.09375.29687-.15625.60937-.15625.96875V-4.75Zm2.6875-1.76562c-.25-.26563-.96875-.51563-1.5625-.51563-.53125 0-1.25.23438-1.5.60938-.21876.34375-.53125.78125-.53125 1.42187v.25H.28124v.39063h.76563v3.51562c0 .5-.03126.51563-.73438.5625V0h2.45313v-.28125c-.78125-.03125-.8125-.0625-.8125-.54687v-3.53125H4.125v3.51562c0 .5-.03125.51563-.73437.5625V0h2.46875v-.28125c-.78125-.03125-.82813-.0625-.82813-.54687v-3.53125h1.875c.23438 0 .29688.10937.29688.45312v3.0625c0 .5-.01563.51563-.71875.5625V0h2.35937v-.28125c-.6875-.04687-.71875-.0625-.71875-.5625v-4.01562c-.3125.03125-.90625.10937-1.67187.10937H5.03125v-.4375c0-1.42187.64063-1.65625 1.17188-1.65625.48437 0 .82812.29688 1.01562.8125.04688.09375.10938.1875.28125.1875.21875 0 .51563-.14062.51563-.45312 0-.42188-.59375-.875-1.6875-.875-.75 0-1.3125.23437-1.6875.65625m0 0"/><path id="z" d="M.46875-2.32812c0 1.625.79688 2.4375 2.25 2.4375.67188 0 1.59375-.34375 1.85938-1.39063l-.28125-.125C4-.73437 3.60938-.39062 2.90625-.39062 1.75-.39062 1.48438-1.59375 1.48438-2.5c0-1.4375.5625-2.01562 1.23437-2.01562.4375 0 .71875.3125.92188.84375.0625.15625.125.25.29687.25.20313 0 .57813-.125.57813-.5 0-.4375-.64063-.9375-1.6875-.9375-1.76563 0-2.35938 1.25-2.35938 2.53125m0 0"/><path id="A" d="M.29688-4.35937H1v3.375C1 0 1.73438.10938 2.0625.10938c.5 0 .96875-.25 1.25-.42188l-.07812-.20312c-.23438.09374-.4375.125-.6875.125-.32813 0-.64063-.23438-.64063-.96875v-3h1.25V-4.75h-1.25v-1.21875H1.625L1.04688-4.75h-.75Zm0 0"/><path id="B" d="m.25-4.375.375.04688c.23438.04687.29688.07812.29688.4375v2.54687c0 1.125.65625 1.45313 1.39062 1.45313.8125 0 1.48438-.54688 1.76563-.6875L4.17188 0h1.54687v-.28125C5.0625-.32812 5-.34375 5-.84375v-3.95312l-.07812-.0625-1.51563.25v.23437l.375.04688c.25.04687.3125.07812.3125.4375v2.1875c0 .26562-.03125.48437-.09375.57812-.21875.4375-.67187.71875-1.17187.71875-.57813 0-.98438-.35937-.98438-1.10937v-3.28125l-.07812-.0625-1.51563.25Zm0 0"/><clipPath id="a"><path d="M.39063 0H258v129H.39063Zm0 0"/></clipPath><clipPath id="g"><path d="M.39063 128H252v1H.39063Zm0 0"/></clipPath><clipPath id="h"><path d="M239 116h20.01563v26H239Zm0 0"/></clipPath><clipPath id="i"><path d="M.78125.39453h256.39844V131H.78125Zm0 0"/></clipPath></defs><g clip-path="url(#a)"><path fill="none" stroke="#7f7f7f" stroke-dasharray=".39609306 .9902624688" stroke-miterlimit="10" stroke-width=".39609" d="M.78127 128.59375h256.3984M.78127 91.96485h256.3984M.78127 55.33595h256.3984M.78127 18.70705h256.3984m-238.082 109.8867V.39455m36.6289 128.1992V.39455m36.6289 128.1992V.39455m36.625 128.1992V.39455m36.6289 128.1992V.39455m36.6289 128.1992V.39455m36.6289 128.1992V.39455"/></g><use xlink:href="#b" x="112.95626" y="145.45539" fill="#7f7f7f"/><path fill="none" stroke="#7f7f7f" stroke-miterlimit="10" stroke-width=".39609" d="M19.09767 119.4375V137.75"/><g fill="#7f7f7f"><use xlink:href="#c" x="12.29743" y="149.70157"/><use xlink:href="#d" x="20.12946" y="149.70157"/></g><path fill="none" stroke="#7f7f7f" stroke-miterlimit="10" stroke-width=".39609" d="M55.72657 119.4375V137.75"/><g fill="#7f7f7f"><use xlink:href="#c" x="48.92567" y="149.70157"/><use xlink:href="#e" x="56.7577" y="149.70157"/></g><path fill="none" stroke="#7f7f7f" stroke-miterlimit="10" stroke-width=".39609" d="M92.35547 119.4375V137.75"/><g fill="#7f7f7f"><use xlink:href="#c" x="85.55292" y="149.70157"/><use xlink:href="#f" x="93.38494" y="149.70157"/></g><path fill="none" stroke="#7f7f7f" stroke-miterlimit="10" stroke-width=".39609" d="M165.60937 119.4375V137.75"/><use xlink:href="#f" x="162.72459" y="149.70157" fill="#7f7f7f"/><path fill="none" stroke="#7f7f7f" stroke-miterlimit="10" stroke-width=".39609" d="M202.23827 119.4375V137.75"/><use xlink:href="#e" x="199.35283" y="149.70157" fill="#7f7f7f"/><path fill="none" stroke="#7f7f7f" stroke-miterlimit="10" stroke-width=".39609" d="M238.86717 119.4375V137.75"/><use xlink:href="#d" x="235.98008" y="149.70157" fill="#7f7f7f"/><g clip-path="url(#g)"><path fill="none" stroke="#000" stroke-miterlimit="10" stroke-width=".7922" d="M.78127 128.59375h250.25778"/></g><path d="M255.17969 128.59375c-.50781-.10547-2.74219-.70703-4.14063-1.35547v2.71094c1.39844-.65234 3.63281-1.25 4.14063-1.35547m0 0"/><g clip-path="url(#h)"><path fill="none" stroke="#000" stroke-miterlimit="10" stroke-width=".7922" d="M255.17969 128.59375c-.50782-.10547-2.74219-.70703-4.14063-1.35547v2.71094c1.39844-.65235 3.63281-1.25 4.14063-1.35547Zm0 0"/></g><path fill="none" stroke="#7f7f7f" stroke-miterlimit="10" stroke-width=".39609" d="M138.14062 91.96485h-18.3164"/><use xlink:href="#f" x="109.50724" y="95.66719" fill="#7f7f7f"/><path fill="none" stroke="#7f7f7f" stroke-miterlimit="10" stroke-width=".39609" d="M138.14062 55.33595h-18.3164"/><use xlink:href="#e" x="109.50724" y="59.03994" fill="#7f7f7f"/><path fill="none" stroke="#7f7f7f" stroke-miterlimit="10" stroke-width=".39609" d="M138.14062 18.70705h-18.3164"/><use xlink:href="#d" x="109.50724" y="22.34809" fill="#7f7f7f"/><path fill="none" stroke="#000" stroke-miterlimit="10" stroke-width=".7922" d="M128.98047 146.90625V6.53517"/><path stroke="#000" stroke-miterlimit="10" stroke-width=".7922" d="M128.98047 2.39453c-.10547.50781-.70313 2.74219-1.35547 4.14063h2.71094c-.64844-1.39844-1.25-3.63282-1.35547-4.14063Zm0 0"/><g clip-path="url(#i)"><path fill="none" stroke="#007f7f" stroke-miterlimit="10" stroke-width=".7922" d="M.78127 119.4375s7.71874-3.85937 10.68359-5.34375c2.96484-1.48047 7.71875-3.85937 10.6836-5.33984 2.96483-1.48438 7.71874-3.85938 10.68358-5.34375 2.96485-1.48047 7.71875-3.85937 10.6836-5.33984 2.96484-1.48047 7.71874-3.85938 10.68359-5.33985 2.96094-1.48437 7.71484-3.85937 10.67968-5.34375 2.96485-1.48046 7.71875-3.85937 10.6836-5.33984 2.96484-1.48437 7.71874-3.85937 10.68359-5.34375 2.96484-1.48047 7.71875-3.85937 10.6836-5.33984 2.96483-1.48047 7.71874-3.85938 10.68358-5.33984 2.96094-1.48438 7.71485-3.85938 10.67969-5.34375 2.96484-1.48047 7.71875-3.85938 10.6836-5.33985 2.96484-1.48437 7.71874-3.85937 10.68358-5.34375 2.96485-1.48046 7.71875-3.85937 10.6836-5.33984 2.96484-1.48437 7.71875-3.85937 10.68359-5.33984 2.96484-1.48438 7.71875-3.85938 10.67969-5.34375 2.96484-1.48047 7.71874-3.85938 10.68359-5.33984 2.96484-1.48438 7.71875-3.85938 10.68359-5.34375 2.96484-1.48047 7.71875-3.85938 10.6836-5.33985 2.96484-1.48437 7.71874-3.85937 10.68358-5.33984 2.96485-1.48437 7.71875-3.85937 10.6797-5.34375 2.96483-1.48047 7.71874-3.85937 10.68358-5.33984 2.96485-1.48438 7.71875-3.85938 10.6836-5.34375 2.96484-1.48047 10.68359-5.33984 10.68359-5.33984"/></g><use xlink:href="#j" x="82.25199" y="94.26571" fill="#007f7f"/><use xlink:href="#k" x="92.12525" y="97.09808" fill="#007f7f"/><path fill="none" stroke="#ff7f00" stroke-dasharray="2.9707774668 2.9707774668" stroke-miterlimit="10" stroke-width=".39609" d="M132.64453 124.03906V59.89063"/><path fill="#ff7f00" stroke="#ff7f00" stroke-miterlimit="10" stroke-width=".39609" d="M132.64453 127.85156c.125-.46875.83985-2.52734 1.61719-3.8125h-3.23438c.77735 1.28516 1.4922 3.34375 1.6172 3.8125Zm0-71.77343c-.125.46874-.83984 2.52734-1.61719 3.8125h3.23438c-.77734-1.28516-1.49219-3.34376-1.61719-3.8125Zm0 0"/><g fill="#ff7f00"><use xlink:href="#l" x="137.19286" y="86.66116"/><use xlink:href="#m" x="144.5666" y="86.66116"/></g><g fill="#ff7f00"><use xlink:href="#n" x="148.12988" y="86.66116"/><use xlink:href="#o" x="153.91765" y="86.66116"/><use xlink:href="#p" x="159.49944" y="86.66116"/><use xlink:href="#p" x="165.48287" y="86.66116"/><use xlink:href="#q" x="171.46631" y="86.66116"/><use xlink:href="#r" x="176.44049" y="86.66116"/></g><use xlink:href="#s" x="137.19286" y="102.11" fill="#ff7f00"/><use xlink:href="#t" x="144.42242" y="102.11" fill="#ff7f00"/><use xlink:href="#u" x="147.02794" y="102.11" fill="#ff7f00"/><g fill="#ff7f00"><use xlink:href="#o" x="149.03615" y="102.11"/><use xlink:href="#m" x="154.61794" y="102.11"/></g><g fill="#ff7f00"><use xlink:href="#v" x="158.45929" y="102.11"/><use xlink:href="#w" x="161.27078" y="102.11"/><use xlink:href="#v" x="166.29646" y="102.11"/><use xlink:href="#p" x="169.10795" y="102.11"/><use xlink:href="#r" x="175.09139" y="102.11"/></g><path fill="none" stroke="#ec008c" stroke-dasharray="2.9707774668 2.9707774668" stroke-miterlimit="10" stroke-width=".39609" d="M170.16406 37.02345h32.07421V23.26173"/><path fill="#ec008c" stroke="#ec008c" stroke-miterlimit="10" stroke-width=".39609" d="M166.35156 37.02344c.46875.125 2.52735.83984 3.8125 1.61328v-3.23047c-1.28515.77734-3.34375 1.49219-3.8125 1.61719Zm35.88672-17.57422c-.125.46875-.83984 2.52734-1.61719 3.8125h3.23438c-.77735-1.28516-1.49219-3.34375-1.61719-3.8125Zm0 0"/><use xlink:href="#x" x="206.78563" y="23.67551" fill="#ec008c"/><g fill="#ec008c"><use xlink:href="#o" x="213.28399" y="23.67551"/><use xlink:href="#r" x="218.86578" y="23.67551"/><use xlink:href="#y" x="223.83996" y="23.67551"/><use xlink:href="#z" x="232.83056" y="23.67551"/><use xlink:href="#v" x="237.62967" y="23.67551"/><use xlink:href="#r" x="240.44116" y="23.67551"/><use xlink:href="#p" x="245.41534" y="23.67551"/><use xlink:href="#A" x="251.39878" y="23.67551"/></g><g fill="#ec008c"><use xlink:href="#n" x="206.78563" y="39.12307"/><use xlink:href="#v" x="212.57339" y="39.12307"/><use xlink:href="#m" x="215.38488" y="39.12307"/></g><g fill="#ec008c"><use xlink:href="#r" x="218.94817" y="39.12307"/><use xlink:href="#z" x="223.92235" y="39.12307"/><use xlink:href="#A" x="228.72145" y="39.12307"/><use xlink:href="#r" x="232.04787" y="39.12307"/><use xlink:href="#B" x="237.02205" y="39.12307"/><use xlink:href="#m" x="242.88191" y="39.12307"/></g></svg>