<svg xmlns="http://www.w3.org/2000/svg" xmlns:xlink="http://www.w3.org/1999/xlink" width="258.75pt" height="258.75pt" viewBox="0 0 258.75 258.75"><defs><path id="b" d="M.5-4.0625C.5-1.625 1.21875.14063 3.21875.14063c2.01563 0 2.73438-1.76563 2.73438-4.20313s-.71875-4.20312-2.73438-4.20312C1.21875-8.26562.5-6.5.5-4.0625m1.23438 0c0-1.98437.32812-3.78125 1.48437-3.78125S4.70313-6.04687 4.70313-4.0625c0 1.98438-.32813 3.78125-1.48438 3.78125S1.73438-2.07812 1.73438-4.0625m0 0"/><path id="k" d="M.40625-6.0625c0 1.0625 1.0625 1.89063 3.48438 1.89063-.39063.71875-.6875 1.45312-.6875 2.25 0 1.34375.82812 2.0625 2.35937 2.0625 1.48438 0 3.04688-1.07813 3.04688-2.45313 0-.82812-.6875-1.28125-1.5625-1.28125-.95313 0-2.07813 1.07813-2.07813 1.92188 0 .26562.1875.75.5625.75.09375 0 .23438-.07813.23438-.1875 0-.15626-.28125-.17188-.28125-.54688 0-.59375.875-1.54687 1.5625-1.54687.5 0 .79687.1875.79687.67187C7.84375-1.46875 6.8125-.25 5.5625-.25c-.875 0-1.32812-.46875-1.32812-1.28125 0-.90625.625-1.96875 1.10937-2.73437 2.70313-.42188 5.35938-1.75 5.35938-3.4375 0-.65625-.51563-1.07813-1.21875-1.07813-1.60938 0-4.03125 2.04688-5.35938 4.1875-1.09375-.01562-2.89062-.03125-2.89062-1.32812 0-1.1875 1.45312-2.10938 2.35937-2.10938.17188 0 .26563-.10937.26563-.20312 0-.10938-.09375-.1875-.20313-.1875-1.35937 0-3.25.92187-3.25 2.35937M5.59375-4.75C6.48438-6.3125 8.375-8.39062 9.48438-8.39062c.42187 0 .71875.23437.71875.64062 0 1.35938-2.125 2.59375-4.60938 3m0 0"/><path id="c" d="M.9375-2.76562h6.01563v-.64063H.9375Zm0 0"/><path id="d" d="M.29688-1.125c0 .46875.75 1.25 2.29687 1.25 1.57813 0 2.59375-.79687 2.59375-2.20312 0-1.45313-1.26562-1.89063-1.875-1.95313v-.04687c.59375-.09375 1.54688-.53125 1.54688-1.60938 0-1.21875-.95313-1.75-2.125-1.75-1.4375 0-2.15625.84375-2.15625 1.29688 0 .34375.39062.53125.54687.53125.125 0 .21875-.07813.26563-.21875.23437-.75.64062-1.21875 1.26562-1.21875.85938 0 1.07813.75 1.07813 1.35937 0 .65625-.23438 1.48438-1.15625 1.48438-.53125 0-.82813-.10938-.95313-.10938-.14062 0-.20312.10938-.20312.3125 0 .1875.0625.29688.20312.29688.125 0 .42188-.10938.95313-.10938.92187 0 1.45312.84375 1.45312 1.79688C4.03125-.70312 3.39063-.25 2.60938-.25c-.71875 0-1.20313-.54687-1.40625-1.15625-.07813-.21875-.17188-.3125-.32813-.3125-.20312 0-.57812.20313-.57812.59375m0 0"/><path id="e" d="M.29688-.10937.40625 0H4.9375l.375-1.4375L5-1.5c-.23437.59375-.45312.67188-.89062.67188H1.3125c.17188-.5625.82813-1.34375 1.84375-2.07813 1.04688-.76562 1.85938-1.26562 1.85938-2.48437C5.01563-6.92187 4-7.4375 2.85938-7.4375c-1.51563 0-2.28125.90625-2.28125 1.48438 0 .35937.42187.54687.60937.54687.20313 0 .26563-.125.3125-.3125.17188-.73437.60938-1.32812 1.28125-1.32812.84375 0 1.07813.6875 1.07813 1.5 0 1.17187-.59375 1.82812-1.54688 2.67187C.96875-1.70312.5-.95312.29688-.10937m0 0"/><path id="f" d="M1.1875 0h3.59375v-.3125l-.92187-.07812C3.625-.42187 3.5-.5 3.5-.9375V-7.375l-.04687-.0625-2.26563.39063v.26562l1.03125.125c.17188.01563.25.10938.25.42188V-.9375c0 .4375-.10937.51563-.35937.54688L1.1875-.3125Zm0 0"/><path id="h" d="m.20313-2.1875.09375.23438h2.98437v1.10937c0 .375-.10937.4375-.375.45313l-.70312.07812V0h2.89062v-.3125l-.5-.0625c-.25-.03125-.32812-.09375-.32812-.46875v-1.10937h1.125v-.51563h-1.125V-7.3125h-.79688C2.4375-5.79687 1.20313-3.90625.20313-2.1875M1-2.46875C1.65625-3.65625 2.4375-4.92187 3.28125-6.25v3.78125Zm0 0"/><path id="l" d="M-.1875 1.53125c.01563.29688.375.53125.84375.53125.89063 0 1.29688-.71875 1.64063-2.3125l.79687-3.57812h1.07813l.09375-.34375H3.15625l.25-1.04688c.14063-.5625.29688-.78125.5-.78125s.34375.15625.54688.59375c.04687.09375.125.17188.26562.17188.20313 0 .46875-.17188.46875-.40625 0-.375-.46875-.67188-1.03125-.67188-1.07812 0-1.51562.76563-1.8125 1.85938L2.25-4.17187h-.73437l-.10938.34375h.76563l-1 5.0625c-.07813.4375-.15626.5-.23438.5-.09375 0-.23437-.07813-.45312-.4375-.0625-.09376-.125-.20313-.25-.20313-.20313 0-.42188.21875-.42188.4375m0 0"/><clipPath id="a"><path d="M0 0h258.5v258.5H0Zm0 0"/></clipPath><clipPath id="g"><path d="M240 153h18.5v26H240Zm0 0"/></clipPath><clipPath id="i"><path d="M128 6h2v252.5h-2Zm0 0"/></clipPath><clipPath id="j"><path d="M.39453.39453h257.71094v257.70703H.39453Zm0 0"/></clipPath></defs><g clip-path="url(#a)"><path fill="none" stroke="#7f7f7f" stroke-dasharray=".39811744000000004 .9953235712000001" stroke-miterlimit="10" stroke-width=".39812" d="M.3945 239.69533h257.711M.3945 202.87892h257.711M.3945 166.0664h257.711M.3945 129.24999h257.711M.3945 92.43358h257.711M.3945 55.61716h257.711M.3945 18.80465h257.711M18.80466 258.10159V.39449m36.81642 257.7071V.39449m36.8125 257.7071V.39449M129.25 258.10159V.39449m36.81642 257.7071V.39449m36.8125 257.7071V.39449m36.81642 257.7071V.39449"/></g><use xlink:href="#b" x="113.14268" y="183.01318" fill="#7f7f7f"/><path fill="none" stroke="#7f7f7f" stroke-miterlimit="10" stroke-width=".39812" d="M18.80466 156.85937v18.41016"/><g fill="#7f7f7f"><use xlink:href="#c" x="11.96944" y="187.28105"/><use xlink:href="#d" x="19.84148" y="187.28105"/></g><path fill="none" stroke="#7f7f7f" stroke-miterlimit="10" stroke-width=".39812" d="M55.62108 156.85937v18.41016"/><g fill="#7f7f7f"><use xlink:href="#c" x="48.78487" y="187.28105"/><use xlink:href="#e" x="56.65691" y="187.28105"/></g><path fill="none" stroke="#7f7f7f" stroke-miterlimit="10" stroke-width=".39812" d="M92.43359 156.85937v18.41016"/><g fill="#7f7f7f"><use xlink:href="#c" x="85.59929" y="187.28105"/><use xlink:href="#f" x="93.47134" y="187.28105"/></g><path fill="none" stroke="#7f7f7f" stroke-miterlimit="10" stroke-width=".39812" d="M166.06642 156.85937v18.41016"/><use xlink:href="#f" x="163.16535" y="187.28105" fill="#7f7f7f"/><path fill="none" stroke="#7f7f7f" stroke-miterlimit="10" stroke-width=".39812" d="M202.87893 156.85937v18.41016"/><use xlink:href="#e" x="199.98078" y="187.28105" fill="#7f7f7f"/><path fill="none" stroke="#7f7f7f" stroke-miterlimit="10" stroke-width=".39812" d="M239.69534 156.85937v18.41016"/><use xlink:href="#d" x="236.79521" y="187.28105" fill="#7f7f7f"/><path fill="none" stroke="#000" stroke-miterlimit="10" stroke-width=".79624" d="M.3945 166.0664h251.53913"/><path d="M256.09375 166.0664c-.51172-.10937-2.75781-.71093-4.16016-1.36327v2.72265c1.40235-.65234 3.64844-1.2539 4.16016-1.35937m0 0"/><g clip-path="url(#g)"><path fill="none" stroke="#000" stroke-miterlimit="10" stroke-width=".79624" d="M256.09375 166.0664c-.51172-.10937-2.75781-.71093-4.16016-1.36328v2.72266c1.40235-.65234 3.64844-1.2539 4.16016-1.35937Zm0 0"/></g><path fill="none" stroke="#7f7f7f" stroke-miterlimit="10" stroke-width=".39812" d="M138.45313 239.69533h-18.40626"/><g fill="#7f7f7f"><use xlink:href="#c" x="101.80364" y="243.41482"/><use xlink:href="#e" x="109.67569" y="243.41482"/></g><path fill="none" stroke="#7f7f7f" stroke-miterlimit="10" stroke-width=".39812" d="M138.45313 202.87892h-18.40626"/><g fill="#7f7f7f"><use xlink:href="#c" x="101.80364" y="206.60039"/><use xlink:href="#f" x="109.67569" y="206.60039"/></g><path fill="none" stroke="#7f7f7f" stroke-miterlimit="10" stroke-width=".39812" d="M138.45313 129.24999h-18.40626"/><use xlink:href="#f" x="109.67603" y="132.97053" fill="#7f7f7f"/><path fill="none" stroke="#7f7f7f" stroke-miterlimit="10" stroke-width=".39812" d="M138.45313 92.43358h-18.40626"/><use xlink:href="#e" x="109.67603" y="96.1561" fill="#7f7f7f"/><path fill="none" stroke="#7f7f7f" stroke-miterlimit="10" stroke-width=".39812" d="M138.45313 55.61716h-18.40626"/><use xlink:href="#d" x="109.67603" y="59.27673" fill="#7f7f7f"/><path fill="none" stroke="#7f7f7f" stroke-miterlimit="10" stroke-width=".39812" d="M138.45313 18.80465h-18.40626"/><use xlink:href="#h" x="109.67603" y="22.4623" fill="#7f7f7f"/><g clip-path="url(#i)"><path fill="none" stroke="#000" stroke-miterlimit="10" stroke-width=".79624" d="M129.25 258.10159V6.56637"/></g><path stroke="#000" stroke-miterlimit="10" stroke-width=".79624" d="M129.25 2.40625c-.10547.51172-.70703 2.75781-1.36328 4.16016h2.72656c-.65625-1.40235-1.25781-3.64844-1.36328-4.16016Zm0 0"/><g clip-path="url(#j)"><path fill="none" stroke="#007f7f" stroke-miterlimit="10" stroke-width=".79624" d="m.3945.39449 10.73828 10.73828 10.73829 10.73829 10.73828 10.73828c2.98047 2.97656 7.75782 7.75782 10.73828 10.73438 2.97657 2.98047 7.75782 7.75781 10.73438 10.73828L64.8203 64.8203l10.73828 10.73828c2.98047 2.97656 7.75781 7.75782 10.73828 10.73829 2.98047 2.97656 7.75782 7.75781 10.73829 10.73437 2.97656 2.98047 7.75781 7.75782 10.73438 10.73829l10.73828 10.73828 10.73828 10.73828c2.98047 2.97657 7.75782 7.75782 10.73829 10.73438 2.97656 2.98047 7.75781 7.75782 10.73438 10.73829l10.73828 10.73828 10.73828 10.73828 10.73829 10.73829c2.98047 2.97656 7.75781 7.75781 10.73828 10.73438 2.97656 2.98047 7.75782 7.75781 10.73438 10.73828l10.73828 10.73828 10.73829 10.73829c2.98047 2.97656 7.75781 7.75781 10.73828 10.73437 2.97656 2.98047 7.75782 7.75782 10.73829 10.73829 2.97656 2.98047 10.73437 10.73828 10.73437 10.73828"/></g><use xlink:href="#k" x="69.77359" y="68.23607" fill="#007f7f"/><use xlink:href="#l" x="79.6986" y="71.08292" fill="#007f7f"/></svg>