<svg xmlns="http://www.w3.org/2000/svg" xmlns:xlink="http://www.w3.org/1999/xlink" width="555.222pt" height="281.014pt" viewBox="0 0 555.222 281.014"><defs><path id="e" d="M-.21875-13.73437c1.0625.03125 1.3125.17187 1.60938 1.0625L5.60938 0h2.65625l2.5-7.32812c.78125-2.29688 1.51562-4.32813 1.84375-5.15625.42187-1.01563.59375-1.17188 1.78125-1.25v-.78125h-4.875v.78125l1.1875.10937c.42187.04688.46875.23438.35937.6875-.20312.6875-.67187 2.4375-1.29687 4.375-.42188 1.28125-1.34375 4.35938-1.71875 5.4375H7.9375l-3.15625-9.75c-.14062-.4375-.10937-.70312.375-.75l1.01563-.10937v-.78125H-.21875Zm0 0"/><path id="f" d="M1-2.8125C1-1.25 2.01563.25 4.14063.25c1.32812 0 2.26562-.71875 3.01562-1.20312C7.42188-.3125 7.79688.25 8.79688.25c1.09375 0 2.39062-.35937 3.09375-.625l-.03125-.70312c-.26563.03124-.73438 0-1.04688-.10938-.26562-.09375-.67187-.32812-.67187-1.5625v-4.84375c0-1.32812-.17188-2.95312-3.89063-2.95312-3.07812 0-5 1.23437-5 2.59375 0 .92187 1.34375 1.3125 1.875 1.3125.46875 0 .70313-.32813.89063-.84375.59375-1.78125 1.28125-2.09375 1.85937-2.09375.60938 0 1.1875.34375 1.1875 1.5625v1.10937c-.73437.51563-2.48437 1-3.84375 1.48438C1.5625-4.84375 1-4.01562 1-2.8125m3.20313-.34375c0-.98437.35937-1.46875.98437-1.82812.64063-.35938 1.35938-.64063 1.875-.875v3.04687c-.04687 1.14063-.6875 1.42188-1.28125 1.42188-.82812 0-1.57812-.64063-1.57812-1.76563m0 0"/><path id="g" d="M.51563 0h5.89062v-.79687C5.20313-.875 5.07813-.95313 5.07813-1.82812V-15.4375l-.1875-.14062-4.21875.5625v.76562l.71875.10938c.32812.0625.48437.25.48437 1.09375v11.21875c0 .875-.15625.95312-1.35937 1.03125Zm0 0"/><path id="h" d="M.82813-5.14062C.82813-2.28125 2.07813.25 5.96875.25c2.5 0 3.85938-1.20312 4.57813-3.0625l-.76563-.42187c-.625 1.20312-1.51562 1.875-2.78125 1.875-2.10937 0-2.84375-1.71875-2.84375-3.9375h5.45313c.76562 0 1.10937-.20313 1.10937-.875 0-1.71875-.67187-4.375-4.70312-4.375-3.78125 0-5.1875 2.45312-5.1875 5.40625m3.32812-1.15625c0-1.51563.40625-3.28125 1.76563-3.28125 1.26562 0 1.5 1.59375 1.5 2.57812 0 .59375-.15625.70313-.65625.70313Zm0 0"/><path id="i" d="m.625-9.1875.73438.10938c.34375.04687.46875.20312.46875 1.0625v5.10937C1.82813-.45312 3.34375.25 4.875.25c1.78125 0 2.875-.96875 3.73438-1.4375L8.78125 0h4.35938v-.79687C11.9375-.875 11.79688-.95313 11.79688-1.82812v-8.57813l-.17188-.14062-4.25.60937v.75l.73438.10938c.34375.04687.5.20312.5 1.0625v4.4375c0 .35937-.03125.875-.15625 1.1875-.20313.48437-.76563.98437-1.6875.98437C5.65625-1.40625 5-2.0625 5-3.6875v-6.71875l-.15625-.14062L.625-9.9375Zm0 0"/><path id="j" d="M.67188 0h6.34375v-.79687C5.40625-.89063 5.1875-.95313 5.1875-1.82812V-6.5c0-1.09375.20313-1.60937.71875-1.60937.32813 0 .64063.17187 1.10938.45312.26562.1875.5625.32813.96875.32813.42187 0 .84375-.21875 1.0625-.53125s.34375-.75.34375-1.21875c0-.89063-.59375-1.46875-1.45313-1.46875-.875 0-1.54687.57812-2.78125 1.85937L4.875-10.54687.78125-9.9375v.75l.73438.10938c.34375.04687.51562.20312.51562 1.0625v6.1875c0 .875-.15625.95312-1.35937 1.03125Zm0 0"/><path id="k" d="M.82813-4.95312C.82813-1.90625 2.40625.25 5.07813.25c.78125 0 1.89062-.40625 3.03125-1.29687V0H12.625v-.79687c-1.20312-.07813-1.35937-.15626-1.35937-1.03125V-15.4375l-.14063-.14062-4.26562.5625v.76562l.73437.10938c.34375.0625.51563.25.51563 1.09375v2.76562c-.46875-.20312-1.07813-.26562-1.78125-.26562-1.5625 0-2.98438.46875-3.9375 1.35937-.98438.92188-1.5625 2.32813-1.5625 4.23438m3.32812-.4375c0-3.07813 1.15625-4.1875 2.34375-4.1875.8125 0 1.23438.42187 1.4375.84375.20313.3125.17188.75.17188 1.20312v4.34375c0 .84375-.3125 1.82813-1.65625 1.82813-1.35938 0-2.29688-1.34375-2.29688-4.03125m0 0"/><path id="m" d="m1-4.73437.34375 3.75C2.40625 0 4.48438.3125 5.875.3125c4.20313-.04687 5.4375-2.29687 5.4375-4.48437 0-2.78125-2.04687-3.84375-3.96875-4.65625-1.375-.57813-3.14062-1.34375-3.14062-2.92188 0-1.32812.9375-2.125 2.1875-2.125 1.34375 0 2.64062.9375 3.21875 3.39063h.76562v-3.4375c-1.10937-.67188-2.6875-.9375-3.96875-.9375-3.54687 0-5.21875 1.82812-5.21875 4.3125 0 2.60937 2.32813 3.73437 4.17188 4.51562 1.92187.79688 2.79687 1.73438 2.79687 3.07813-.01562 1.5625-1 2.3125-2.375 2.3125-1.57812 0-3.1875-1.45313-4-4.09375Zm0 0"/><path id="n" d="M1.59375-13.29687c0 1.01562.70313 1.85937 1.89063 1.85937 1.15625 0 1.96875-.84375 1.96875-1.85937 0-.98438-.76563-1.82813-1.96875-1.82813-1.1875 0-1.89063.84375-1.89063 1.82813M.67188 0h5.92187v-.79687C5.39063-.875 5.1875-.95313 5.1875-1.82812v-8.57813l-.10937-.14062-4.29688.60937v.75l.73438.10938c.34375.04687.51562.20312.51562 1.0625v6.1875c0 .875-.15625.95312-1.35937 1.03125Zm0 0"/><path id="o" d="M.67188 2.01563c0 2.03125 2.1875 3.0625 5.1875 3.0625.90625 0 2.4375-.1875 3.48437-.76563 1.15625-.60937 1.9375-1.70312 1.9375-3.21875 0-2.53125-1.9375-3.3125-4.15625-3.3125H5.1875c-1.03125 0-1.40625-.32812-1.40625-.70312 0-.46875.53125-.70313.82813-.76563.39062.04688.70312.01563.95312.01563 2.48438 0 4.71875-.89063 4.71875-3.39063 0-.625-.25-1.26562-.51562-1.625l1.39062-.25.42188-1.59375L11.375-10.75l-2.65625.89063c-.70312-.39063-1.85937-.6875-3-.6875-3.78125 0-4.89062 1.9375-4.89062 3.57812 0 1.73438 1.29687 2.79688 2.5625 2.98438v.04687c-1.35938.34375-2.25 1.09375-2.25 1.95313 0 .90625 1.03125 1.76562 1.9375 1.96875v.03125c-.85938.20312-2.40625.59375-2.40625 2m2.79687-.20313c0-.57812.26563-.96875.54688-1.17187.29687-.1875.9375-.3125 1.85937-.3125 1.78125 0 2.85938.40625 2.85938 1.6875 0 1.5-1.15625 2.09375-2.5625 2.09375S3.46875 3.3125 3.46875 1.8125m.64063-8.84375c0-1.79687.73437-2.54687 1.59375-2.54687.82812 0 1.57812.75 1.57812 2.51562 0 1.5-.64062 2.4375-1.60937 2.4375-.89063 0-1.5625-.95312-1.5625-2.40625m0 0"/><path id="p" d="M.67188 0h5.625v-.79687l-.39063-.04688c-.45312-.04687-.71875-.10937-.71875-.8125v-5c0-.46875.07813-.9375.23438-1.23437C5.70313-8.42187 6.25-8.9375 7.125-8.9375c1.07813 0 1.64063.67188 1.67188 1.92188v5.35937c0 .70313-.21875.76563-.65625.8125l-.45313.04688V0h5.65625v-.79687C12.125-.875 11.95313-.95313 11.95313-1.82812V-7.3125c-.01563-1.95312-.98438-3.23437-3.15625-3.23437-1.21875 0-2.23438.625-3.60938 1.45312l-.26562-1.45312-4.14063.60937v.75l.73438.10938c.34375.04687.51562.20312.51562 1.0625v6.1875c0 .875-.15625.95312-1.35937 1.03125Zm0 0"/><path id="J" d="M.78125-9.25h1.23438v6.79688C2.01563-.53125 3.42188.25 4.60938.25c.85937 0 2.15625-.39062 3.34375-1.125l-.21875-.67187c-.29688.14062-.71875.23437-1.1875.23437-.79688 0-1.35938-.60937-1.35938-1.95312V-9.25H7.375v-1.04687H5.1875v-2.64063H3.98438L2.125-10.29687H.78125Zm0 0"/><path id="K" d="M.82813-5.14062C.82813-1.78125 2.4375.25 6.25.25c3.82813 0 5.45313-2.03125 5.45313-5.39062 0-3.34375-1.625-5.40625-5.45313-5.40625-3.8125 0-5.42187 2.0625-5.42187 5.40625m3.32812 0c0-2.8125.60938-4.4375 2.09375-4.4375 1.5 0 2.10938 1.625 2.10938 4.4375S7.75-.71875 6.25-.71875c-1.48437 0-2.09375-1.60937-2.09375-4.42187m0 0"/><path id="L" d="m.92188-3.89062.23437 3.125C1.96875-.01562 3.54688.25 4.73438.25c2.57812 0 4.3125-1.125 4.3125-3.40625 0-1.79687-1.15625-2.67187-3.07813-3.40625-1.23437-.45312-2.125-.9375-2.125-1.79687 0-.64063.46875-1.21875 1.34375-1.21875 1.0625 0 1.96875.96875 2.35938 2.5625h.78125V-9.8125c-.85938-.53125-2.04688-.73437-3.14063-.73437-2.57812 0-4.15625 1.20312-4.15625 3.32812C1.03125-5.67187 2.25-4.6875 4.10938-4c1.07812.375 2.125 1 2.125 2.01563 0 .79687-.53125 1.26562-1.45313 1.26562-1.39062 0-2.53125-1.45312-3.0625-3.17187Zm0 0"/><path id="l" d="M.67188-.82812C.67188-.21876 1.15625.25 2.01563.25 3.4375.25 4.25-1.1875 5.10938-2.59375l.85937-1.39062h.04688l.375 1.65625C6.79688-.64062 7.17188.25 8.25.25c1.53125 0 2.34375-1.59375 2.96875-2.85937l-.53125-.29688C10.17188-1.96875 9.57813-.84375 9-.84375c-.39062 0-.54687-.46875-1.01562-2.34375l-.67188-2.75c.75-1.34375 1.82813-3.01562 2.42188-3.01562.64062 0 .65625.32812 1.28125.32812.46875 0 .89062-.45312.89062-1 0-.65625-.48437-.92187-1.0625-.92187-1.125 0-2.0625 1-2.79687 2.1875L7.125-6.92187h-.04687l-.84375-3.53125-.10938-.09375L2.65625-9.5l.04688.51563 1.65625-.10938c.32812 0 .48437.15625.6875 1.04688L5.78125-5l-.57812 1c-.89063 1.54688-1.67188 2.64063-2.1875 2.64063-.60938 0-.76563-.51563-1.42188-.51563-.54687 0-.92187.53125-.92187 1.04688m0 0"/><path id="q" d="M-.45312 3.85938c.03125.70312.9375 1.21875 1.92187 1.21875 2.10938 0 3-1.70313 3.875-5.71875L7.28125-9.5H9.9375l.20313-.79687H7.42188L8-12.67187c.40625-1.57813.79688-2.1875 1.39063-2.1875.54687 0 .9375.46875 1.40625 1.46875.10937.20312.26562.35937.57812.35937.42188 0 1.03125-.375 1.03125-.90625 0-.90625-1.14062-1.64062-2.39062-1.64062-2.48438 0-3.51563 1.75-4.3125 4.51562l-.23438.76563H3.67188l-.25.79687h1.875L2.85938 2.875c-.25 1.29688-.46875 1.4375-.67188 1.4375-.21875 0-.5625-.15625-1.10937-1.03125-.15626-.20312-.29688-.46875-.5625-.46875-.46875 0-.96875.51563-.96875 1.04688m0 0"/><path id="r" d="M1.8125-5.92187c0 4.73437 1.0625 9.9375 5.51563 10.125v-.625c-1.5-.29688-3.84375-2.14063-3.84375-9.5 0-7.3125 2.23437-9.15625 3.84375-9.5v-.625c-4.45313.1875-5.51563 5.39062-5.51563 10.125m0 0"/><path id="s" d="M1.25 3.57813v.625c4.45313-.1875 5.51563-5.39063 5.51563-10.125s-1.0625-9.9375-5.51563-10.125v.625c1.60938.34375 3.84375 2.1875 3.84375 9.5 0 7.35937-2.34375 9.20312-3.84375 9.5m0 0"/><path id="w" d="M1.78125-5.3125h11.5625v-1.23437H1.78125Zm0 0"/><path id="x" d="M.32813-4.45312c0 2.51562 2.48437 4.67187 4.8125 4.67187 2.95312 0 4.82812-2.9375 5.1875-3.53125.39062.76563 2.4375 3.5625 5.6875 3.5625 3.89062 0 5.01562-2.95312 5.01562-5.4375 0-2.5-2.35937-4.48437-4.67187-4.48437-2.79688 0-4.3125 2.01562-5.20313 3.23437-.82812-1.34375-2.67187-3.1875-5.57812-3.1875-3.8125 0-5.25 2.70313-5.25 5.17188m1.32812.07812c0-2.10937 1.46875-3.76562 3.23438-3.76562 2.10937 0 3.875 2.21875 4.84375 3.78125-.79688 1.4375-2.29688 3.625-4.65625 3.625-1.53125 0-3.42188-1.75-3.42188-3.64063M11.75-5.5c.8125-1.42187 2.32813-3.1875 4.6875-3.1875 1.53125 0 3.35938 1.51563 3.35938 3.42188 0 2.10937-1.14063 4.0625-3.17188 4.0625-2.17187 0-3.89062-2.42188-4.875-4.29688m0 0"/><path id="A" d="M1.78125-5.3125h5.17188v5.15625h1.21875V-5.3125h5.17187v-1.23437H8.17188v-5.15625H6.95313v5.15625H1.78125Zm0 0"/><path id="C" d="M.875-7.01562C.875-2.8125 2.09375.25 5.5625.25s4.71875-3.0625 4.71875-7.26562-1.25-7.26563-4.71875-7.26563S.875-11.21875.875-7.01562m2.125 0c0-3.42188.57813-6.53125 2.5625-6.53125 1.98438 0 2.57813 3.10937 2.57813 6.53125S7.54688-.48437 5.5625-.48437 3-3.59375 3-7.01562m0 0"/><path id="y" d="M1.28125-.01562 1.84375 0l.48438-.8125c.29687.57813 1.03125.98438 1.90625.98438 1.79687 0 3.01562-1.14063 3.75-2.4375.73437-1.29688.96875-2.60938.96875-3.25 0-1.09375-.48438-1.85938-1.60938-1.85938-1.15625 0-2.5625 1.03125-3.65625 3h-.04687l1.625-6.46875-.0625-.0625-2.79688.35938-.07812.375.79687.09375c.23438.03125.34375.09375.34375.3125 0 .10937-.01562.21875-.0625.40625Zm1.98438-1.57813c0-.6875.32812-1.71875.79687-2.57812C4.70313-5.32812 5.73438-6.5 6.57813-6.5c.5 0 .71875.34375.71875 1.125 0 1.09375-.875 5-2.90625 5-.71875 0-1.125-.5-1.125-1.21875m0 0"/><path id="z" d="M1.04688-1.57812c0 .875.40625 1.75 1.42187 1.75 1.625 0 2.90625-1.79688 3.75-3.26563H6.25l-.45312 1.57813c-.09375.32812-.15625.60937-.15625.84375 0 .5625.28125.84375.85937.84375C7.6875.17188 8.54688-.85937 9.07813-2l-.375-.21875C8.40625-1.67187 7.78125-.6875 7.375-.6875c-.17187 0-.21875-.10937-.21875-.28125 0-.125.03125-.3125.07813-.5L8.78125-7.25h-1.4375l-.0625.17188c-.25-.17188-.6875-.29688-1.07812-.29688-3.5 0-5.15625 3.85938-5.15625 5.79688M2.70313-1.625c0-1.59375 1.40625-5.1875 3.5625-5.1875.34375 0 .625.10938.84375.29688C6.84375-5.4375 6.32813-3.98437 5.5625-2.8125c-.79687 1.21875-1.64062 2.125-2.28125 2.125-.45312 0-.57812-.40625-.57812-.9375m0 0"/><path id="R" d="M.79688-2.35937h2.28125V-.0625H3.625v-2.29687h2.29688v-.54688H3.625v-2.29687h-.54687v2.29687H.79688Zm0 0"/><path id="S" d="M.15625-1.96875c0 1.10938 1.09375 2.0625 2.125 2.0625 1.3125 0 2.14063-1.29687 2.29688-1.5625C4.76563-1.125 5.67188.10938 7.10938.10938c1.73437 0 2.23437-1.3125 2.23437-2.40625 0-1.10938-1.04687-2-2.07812-2-1.25 0-1.92188.89062-2.3125 1.4375-.375-.59375-1.1875-1.42188-2.46875-1.42188-1.70313 0-2.32813 1.20313-2.32813 2.3125m.57813.03125c0-.9375.65625-1.67187 1.4375-1.67187.9375 0 1.71875.98437 2.15625 1.67187C3.96875-1.29687 3.29688-.32812 2.25-.32812c-.67187 0-1.51562-.76563-1.51562-1.60938m4.48437-.5C5.57813-3.07812 6.25-3.85937 7.29688-3.85937c.6875 0 1.5.67187 1.5 1.51562 0 .9375-.51563 1.8125-1.42188 1.8125-.95312 0-1.71875-1.07812-2.15625-1.90625m0 0"/><path id="T" d="M.79688-2.35937h5.125v-.54688h-5.125Zm0 0"/><clipPath id="a"><path d="M.58203 63H224v65H.58203Zm0 0"/></clipPath><clipPath id="b"><path d="M223 0h330.86328v64H223Zm0 0"/></clipPath><clipPath id="c"><path d="M223 63h330.86328v65H223Zm0 0"/></clipPath><clipPath id="d"><path d="M.58203 0H224v64H.58203Zm0 0"/></clipPath><clipPath id="t"><path d="M.58203 63h553.28125v1H.58203Zm0 0"/></clipPath><clipPath id="u"><path d="M.58203 127h553.28125v1H.58203Zm0 0"/></clipPath><clipPath id="v"><path d="M.58203 0h553.28125v128H.58203Zm0 0"/></clipPath><clipPath id="B"><path d="M223 63h330.86328v65H223Zm0 0"/></clipPath><clipPath id="D"><path d="M.58203 216H224v64H.58203Zm0 0"/></clipPath><clipPath id="E"><path d="M.58203 216H224v64.03125H.58203Zm0 0"/></clipPath><clipPath id="F"><path d="M223 152h330.86328v65H223Zm0 0"/></clipPath><clipPath id="G"><path d="M223 216h330.86328v64H223Zm0 0"/></clipPath><clipPath id="H"><path d="M223 216h330.86328v64.03125H223Zm0 0"/></clipPath><clipPath id="I"><path d="M.58203 152H224v65H.58203Zm0 0"/></clipPath><clipPath id="M"><path d="M.58203 216h553.28125v1H.58203Zm0 0"/></clipPath><clipPath id="N"><path d="M.58203 279h553.28125v1.03125H.58203Zm0 0"/></clipPath><clipPath id="O"><path d="M.58203 152h553.28125v128.03125H.58203Zm0 0"/></clipPath><clipPath id="P"><path d="M223 152h1v128.03125h-1Zm0 0"/></clipPath><clipPath id="Q"><path d="M223 216h330.86328v64.03125H223Zm0 0"/></clipPath></defs><g clip-path="url(#a)"><path fill="#FFF" stroke="#000" stroke-miterlimit="10" stroke-width=".39711" d="M.78125 63.75003v63.5508h222.42588v-63.5508Zm0 0"/></g><g clip-path="url(#b)"><path fill="#FFF" stroke="#000" stroke-miterlimit="10" stroke-width=".39711" d="M223.20713 63.75003V.19922h330.465v63.5508Zm0 0"/></g><g clip-path="url(#c)"><path fill="#FFF" stroke="#000" stroke-miterlimit="10" stroke-width=".39711" d="M223.20713 63.75003v63.5508h330.465v-63.5508Zm0 0"/></g><g clip-path="url(#d)"><path fill="#FFF" stroke="#000" stroke-miterlimit="10" stroke-width=".39711" d="M.78125.19922v63.5508h222.42588V.19923Zm0 0"/></g><use xlink:href="#e" x="53.88624" y="39.63493"/><use xlink:href="#f" x="66.14956" y="39.63493"/><use xlink:href="#g" x="77.78743" y="39.63493"/><use xlink:href="#h" x="84.4887" y="39.63493"/><use xlink:href="#i" x="95.56813" y="39.63493"/><use xlink:href="#j" x="108.99301" y="39.63493"/><use xlink:href="#k" x="125.88021" y="39.63493"/><use xlink:href="#h" x="138.76898" y="39.63493"/><use xlink:href="#l" x="157.30014" y="39.63493"/><use xlink:href="#m" x="43.44463" y="101.0066"/><use xlink:href="#n" x="55.19418" y="101.0066"/><use xlink:href="#o" x="62.05181" y="101.0066"/><use xlink:href="#p" x="73.44397" y="101.0066"/><use xlink:href="#h" x="87.04755" y="101.0066"/><use xlink:href="#k" x="105.56539" y="101.0066"/><use xlink:href="#h" x="118.45416" y="101.0066"/><use xlink:href="#q" x="136.98417" y="101.0066"/><use xlink:href="#r" x="150.09632" y="101.0066"/><use xlink:href="#l" x="158.67395" y="101.0066"/><use xlink:href="#s" x="171.9648" y="101.0066"/><g clip-path="url(#t)"><path fill="none" stroke="#000" stroke-miterlimit="10" stroke-width=".39711" d="M.78125 63.75003h552.89088"/></g><g clip-path="url(#u)"><path fill="none" stroke="#000" stroke-miterlimit="10" stroke-width=".39711" d="M.78125 127.30084h552.89088"/></g><g clip-path="url(#v)"><path fill="none" stroke="#000" stroke-miterlimit="10" stroke-width=".39711" d="M.78125.19922v127.10162h552.89088V.19922Zm0 0"/></g><path fill="none" stroke="#000" stroke-miterlimit="10" stroke-width=".39711" d="M223.20713.19922v127.10162"/><use xlink:href="#w" x="236.73442" y="36.68628"/><use xlink:href="#x" x="251.83462" y="36.68628"/><use xlink:href="#w" x="373.4577" y="37.89504"/><use xlink:href="#y" x="391.39476" y="28.91529"/><path fill="none" stroke="#000" stroke-miterlimit="10" stroke-width="1.22869" d="M391.23828 31.97656h9.55469"/><use xlink:href="#z" x="391.23782" y="45.7582"/><use xlink:href="#A" x="503.67281" y="37.70271"/><use xlink:href="#x" x="518.77301" y="37.70271"/><g clip-path="url(#B)"><path fill="none" stroke="#000" stroke-miterlimit="10" stroke-width=".39711" d="M223.20713 63.75003v63.5508h330.465v-63.5508Zm0 0"/></g><use xlink:href="#A" x="314.08901" y="101.35438"/><path fill="none" stroke="#000" stroke-dasharray="2.978369095 2.978369095" stroke-miterlimit="10" stroke-width=".39711" d="M388.44158 63.75003v63.5508"/><use xlink:href="#C" x="382.83181" y="102.52626"/><use xlink:href="#w" x="447.51486" y="98.77443"/><g clip-path="url(#D)"><path fill="#FFF" d="M.78125 216.28516v63.55078h222.42578v-63.55078Zm0 0"/></g><g clip-path="url(#E)"><path fill="none" stroke="#000" stroke-miterlimit="10" stroke-width=".39711" d="M.78125 216.28525v63.55081h222.42588v-63.5508Zm0 0"/></g><g clip-path="url(#F)"><path fill="#FFF" stroke="#000" stroke-miterlimit="10" stroke-width=".39711" d="M223.20713 216.28525v-63.5508h330.465v63.5508Zm0 0"/></g><g clip-path="url(#G)"><path fill="#FFF" d="M223.20703 216.28516v63.55078h330.46484v-63.55078Zm0 0"/></g><g clip-path="url(#H)"><path fill="none" stroke="#000" stroke-miterlimit="10" stroke-width=".39711" d="M223.20713 216.28525v63.55081h330.465v-63.5508Zm0 0"/></g><g clip-path="url(#I)"><path fill="#FFF" stroke="#000" stroke-miterlimit="10" stroke-width=".39711" d="M.78125 152.73444v63.55081h222.42588v-63.5508Zm0 0"/></g><use xlink:href="#e" x="53.88624" y="192.16973"/><use xlink:href="#f" x="66.14956" y="192.16973"/><use xlink:href="#g" x="77.78743" y="192.16973"/><use xlink:href="#h" x="84.4887" y="192.16973"/><use xlink:href="#i" x="95.56813" y="192.16973"/><use xlink:href="#j" x="108.99301" y="192.16973"/><use xlink:href="#k" x="125.88021" y="192.16973"/><use xlink:href="#h" x="138.76898" y="192.16973"/><use xlink:href="#l" x="157.30014" y="192.16973"/><use xlink:href="#e" x="35.10165" y="253.30722"/><use xlink:href="#f" x="47.36497" y="253.30722"/><use xlink:href="#j" x="59.00284" y="253.30722"/><use xlink:href="#n" x="68.65267" y="253.30722"/><use xlink:href="#f" x="75.5103" y="253.30722"/><use xlink:href="#J" x="87.14817" y="253.30722"/><use xlink:href="#n" x="95.12268" y="253.30722"/><use xlink:href="#K" x="101.98031" y="253.30722"/><use xlink:href="#p" x="114.46701" y="253.30722"/><use xlink:href="#L" x="128.07059" y="253.30722"/><use xlink:href="#k" x="145.06947" y="253.30722"/><use xlink:href="#h" x="157.95825" y="253.30722"/><use xlink:href="#q" x="176.48831" y="253.30722"/><g clip-path="url(#M)"><path fill="none" stroke="#000" stroke-miterlimit="10" stroke-width=".39711" d="M.78125 216.28525h552.89088"/></g><g clip-path="url(#N)"><path fill="none" stroke="#000" stroke-miterlimit="10" stroke-width=".39711" d="M.78125 279.83606h552.89088"/></g><g clip-path="url(#O)"><path fill="none" stroke="#000" stroke-miterlimit="10" stroke-width=".39711" d="M.78125 152.73444v127.10162h552.89088V152.73444Zm0 0"/></g><g clip-path="url(#P)"><path fill="none" stroke="#000" stroke-miterlimit="10" stroke-width=".39711" d="M223.20713 152.73444v127.10162"/></g><use xlink:href="#w" x="236.73442" y="189.22108"/><use xlink:href="#x" x="251.83462" y="189.22108"/><use xlink:href="#A" x="503.67181" y="190.23751"/><use xlink:href="#x" x="518.77201" y="190.23751"/><g clip-path="url(#Q)"><path fill="none" stroke="#000" stroke-miterlimit="10" stroke-width=".39711" d="M223.20713 216.28525v63.55081h330.465v-63.5508Zm0 0"/></g><path fill="#FFF" d="M244.88281 229.53906h20.20313v-9.28125H244.8828Zm0 0"/><use xlink:href="#R" x="246.86488" y="227.44197"/><use xlink:href="#S" x="253.57608" y="227.44197"/><path fill="#FFF" d="M244.88281 229.53906h20.20313v-9.28125H244.8828Zm0 0"/><use xlink:href="#R" x="246.86488" y="227.44197"/><use xlink:href="#S" x="253.57608" y="227.44197"/><path fill="#FFF" d="M511.79297 275.86719h20.20312v-8.38281h-20.20312Zm0 0"/><use xlink:href="#T" x="513.77337" y="273.76743"/><use xlink:href="#S" x="520.48457" y="273.76743"/><path fill="#FFF" d="M511.79297 275.86719h20.20312v-8.38281h-20.20312Zm0 0"/><use xlink:href="#T" x="513.77337" y="273.76743"/><use xlink:href="#S" x="520.48457" y="273.76743"/><path fill="none" stroke="#000" stroke-miterlimit="10" stroke-width=".39711" d="M268.99622 227.34776 505.45335 268.797"/><path d="M507.79688 269.20703c-.94141-.36719-2.63282-1.0664-3.65235-2.15234.78906 1.25.65235 2.03125-.51562 2.9336 1.32812-.67188 3.15625-.75392 4.16796-.78126m0 0"/></svg>