<svg xmlns="http://www.w3.org/2000/svg" xmlns:xlink="http://www.w3.org/1999/xlink" width="321.06pt" height="162.555pt" viewBox="0 0 321.06 162.555"><defs><path id="f" d="M-.125-7.9375c.625.03125.76563.10938.9375.625L3.3125 0H4.875l1.46875-4.23437c.46875-1.32813.90625-2.5 1.07813-2.98438.25-.57812.35937-.67187 1.0625-.71875v-.45312h-2.875v.45312l.70312.0625c.25.03125.28125.14063.20313.40625C6.40625-7.07812 6.125-6.0625 5.75-4.9375c-.25.73438-.78125 2.51563-1.01562 3.125h-.0625L2.8125-7.4375c-.07812-.25-.0625-.40625.23438-.4375l.59375-.0625v-.45312H-.125Zm0 0"/><path id="g" d="M.59375-1.625c0 .90625.59375 1.76563 1.84375 1.76563.79688 0 1.34375-.40625 1.78125-.70313.15625.375.375.70313.96875.70313.64063 0 1.40625-.20313 1.8125-.35938V-.625c-.15625.01563-.4375 0-.625-.0625-.15625-.04687-.39062-.1875-.39062-.90625v-2.79687c0-.76563-.10938-1.70313-2.29688-1.70313-1.8125 0-2.95312.71875-2.95312 1.5 0 .53125.79687.76563 1.10937.76563.28125 0 .40625-.20313.53125-.5.34375-1.03125.75-1.20313 1.09375-1.20313s.6875.20313.6875.89063v.65625c-.42187.29687-1.45312.57812-2.26562.84375C.92188-2.79687.59375-2.32812.59375-1.625m1.875-.1875c0-.57812.21875-.85937.59375-1.0625.375-.20312.79688-.375 1.09375-.5v1.75c-.01562.65625-.40625.82813-.75.82813-.48437 0-.9375-.375-.9375-1.01563m0 0"/><path id="h" d="M.29688 0h3.48437v-.46875C3.0625-.5 2.98438-.5625 2.98438-1.0625v-7.85937L2.89063-9l-2.5.32813v.4375l.42187.0625c.20313.04687.29688.14062.29688.64062v6.46875c0 .5-.09376.5625-.8125.59375Zm0 0"/><path id="i" d="M.48438-2.96875c0 1.65625.73437 3.10938 3.03125 3.10938 1.46875 0 2.28125-.70313 2.70312-1.76563l-.45312-.25C5.40625-1.17187 4.875-.78125 4.125-.78125c-1.23437 0-1.67187-1-1.67187-2.28125h3.20312c.45313 0 .67188-.10937.67188-.5 0-1-.40625-2.53125-2.78125-2.53125-2.23438 0-3.0625 1.42188-3.0625 3.125m1.96875-.67187c0-.875.23437-1.89063 1.03125-1.89063.75 0 .89062.92188.89062 1.48438 0 .34375-.09375.40625-.39062.40625Zm0 0"/><path id="j" d="m.375-5.29687.42188.0625c.20312.01562.28124.10937.28124.59375v2.96875c0 1.40625.89063 1.8125 1.79688 1.8125 1.04688 0 1.70313-.54688 2.20313-.82813L5.17188 0H7.75v-.46875C7.03125-.5 6.95313-.5625 6.95313-1.0625v-4.95312l-.10938-.07813-2.5.34375v.45313l.4375.0625c.20313.01562.29688.10937.29688.59375v2.57812c0 .20313-.01563.5-.09375.6875-.125.28125-.45313.5625-1 .5625-.65625 0-1.03125-.375-1.03125-1.3125v-3.89062l-.09375-.07813L.375-5.75Zm0 0"/><path id="k" d="M.39063 0h3.75v-.46875C3.1875-.51562 3.0625-.5625 3.0625-1.0625V-3.75c0-.64062.10938-.9375.42188-.9375.1875 0 .375.10938.65625.26563.15625.10937.32812.1875.5625.1875.25 0 .5-.125.625-.3125.14062-.17188.20312-.42188.20312-.6875 0-.51563-.34375-.85938-.85937-.85938-.51563 0-.90625.34375-1.625 1.07813L2.875-6.09375.46875-5.75v.45313l.42188.0625c.20312.01562.3125.10937.3125.59375v3.57812c0 .5-.09376.5625-.8125.59375Zm0 0"/><path id="l" d="M.48438-2.85937c0 1.76562.9375 3 2.5 3 .46875 0 1.125-.23438 1.79687-.75V0H7.4375v-.46875C6.73438-.5 6.64063-.5625 6.64063-1.0625v-7.85937L6.5625-9l-2.51562.32813v.4375l.4375.0625c.1875.04687.29687.14062.29687.64062v1.59375c-.28125-.10937-.625-.15625-1.04687-.15625-.92188 0-1.76563.26563-2.32813.79688-.57812.51562-.92187 1.32812-.92187 2.4375m1.96875-.25c0-1.78125.6875-2.42188 1.375-2.42188.48437 0 .73437.23438.84375.48438.125.1875.10937.4375.10937.70312v2.5c0 .48438-.1875 1.0625-.96875 1.0625-.8125 0-1.35937-.78125-1.35937-2.32812m0 0"/><path id="n" d="M.59375-2.73437.79688-.5625c.625.5625 1.84375.75 2.67187.75C5.9375.15625 6.67188-1.15625 6.67188-2.40625c0-1.60937-1.20313-2.23437-2.34375-2.6875-.8125-.34375-1.85938-.78125-1.85938-1.6875 0-.76562.5625-1.23437 1.29688-1.23437.79687 0 1.5625.54687 1.89062 1.96875h.45313v-2c-.64063-.375-1.57813-.53125-2.32813-.53125-2.09375 0-3.07812 1.04687-3.07812 2.48437 0 1.51563 1.35937 2.15625 2.45312 2.60938 1.14063.46875 1.65625 1 1.65625 1.78125C4.79688-.79687 4.21875-.375 3.40625-.375c-.9375 0-1.875-.84375-2.35937-2.35937Zm0 0"/><path id="o" d="M.9375-7.67187c0 .57812.42188 1.0625 1.125 1.0625.67188 0 1.15625-.48438 1.15625-1.0625 0-.57813-.45312-1.0625-1.15625-1.0625-.70312 0-1.125.48437-1.125 1.0625M.39063 0h3.5v-.46875C3.17188-.5 3.0625-.5625 3.0625-1.0625v-4.95312l-.07812-.07813L.46875-5.75v.45313l.42188.0625c.20312.01562.3125.10937.3125.59375v3.57812c0 .5-.09376.5625-.8125.59375Zm0 0"/><path id="p" d="M.39063 1.15625c0 1.1875 1.29687 1.78125 3.0625 1.78125.53125 0 1.4375-.10937 2.04687-.45312.6875-.34375 1.15625-.96875 1.15625-1.85938 0-1.45312-1.15625-1.90625-2.45312-1.90625H3.0625c-.60937 0-.84375-.1875-.84375-.40625 0-.28125.32813-.40625.5-.4375.23438.01563.42188.01563.5625.01563 1.45313 0 2.78125-.53125 2.78125-1.96875 0-.35938-.14062-.73438-.3125-.9375l.82813-.14063.25-.92187-.125-.125-1.5625.51562c-.40625-.23437-1.09375-.40625-1.76563-.40625-2.23437 0-2.89062 1.125-2.89062 2.0625 0 1.01563.76562 1.625 1.51562 1.73438v.03125c-.79687.1875-1.32812.625-1.32812 1.10937 0 .53125.60937 1.03125 1.14062 1.14063v.03125C1.29688.125.39063.34375.39063 1.15625m1.65625-.10937c0-.34375.15625-.5625.32812-.67188.17188-.10937.54688-.1875 1.09375-.1875 1.04688 0 1.6875.23438 1.6875.96875 0 .875-.6875 1.21875-1.51562 1.21875-.82813 0-1.59375-.46875-1.59375-1.32812m.375-5.10938c0-1.03125.4375-1.46875.9375-1.46875.48437 0 .9375.4375.9375 1.45313 0 .85937-.39063 1.40625-.95313 1.40625-.53125 0-.92187-.5625-.92187-1.39063m0 0"/><path id="q" d="M.39063 0h3.32812v-.46875l-.23437-.01562C3.21875-.51562 3.0625-.5625 3.0625-.95312v-2.89063c0-.26562.04688-.54687.14063-.71875.15625-.29687.48437-.59375 1-.59375.625 0 .95312.375.98437 1.10938v3.09375c0 .39062-.125.4375-.39062.46875l-.26563.01562V0h3.32813v-.46875C7.15625-.5 7.04688-.5625 7.04688-1.0625v-3.15625c-.01563-1.14062-.57813-1.875-1.85938-1.875-.71875 0-1.3125.35938-2.125.84375l-.17187-.84375L.46875-5.75v.45313l.42188.0625c.20312.01562.3125.10937.3125.59375v3.57812c0 .5-.09376.5625-.8125.59375Zm0 0"/><path id="I" d="M.46875-5.34375h.71875v3.92188c0 1.10937.82813 1.5625 1.53125 1.5625.51563 0 1.26563-.21875 1.96875-.64063l-.125-.39062c-.17187.07812-.42187.125-.70312.125-.46875 0-.79688-.34375-.79688-1.125v-3.45313h1.28125v-.60937H3.0625v-1.51563h-.71875L1.25-5.95312H.46875Zm0 0"/><path id="J" d="M.48438-2.96875c0 1.9375.95312 3.10938 3.20312 3.10938s3.21875-1.17188 3.21875-3.10938-.96875-3.125-3.21875-3.125-3.20312 1.1875-3.20312 3.125m1.96875 0c0-1.625.35937-2.5625 1.23437-2.5625.89063 0 1.23438.9375 1.23438 2.5625S4.57813-.40625 3.6875-.40625c-.875 0-1.23437-.9375-1.23437-2.5625m0 0"/><path id="K" d="M.54688-2.25.6875-.4375c.46875.42188 1.40625.57813 2.10938.57813C4.3125.14063 5.32813-.5 5.32813-1.8125c0-1.04687-.67188-1.5625-1.8125-1.98437-.71875-.25-1.25-.54688-1.25-1.03125 0-.375.28125-.70313.79687-.70313.625 0 1.15625.5625 1.39063 1.48438h.45312v-1.625c-.5-.29688-1.20312-.42188-1.84375-.42188-1.51562 0-2.45312.70313-2.45312 1.92188 0 .89062.71875 1.46875 1.8125 1.85937.64062.21875 1.25.57813 1.25 1.15625 0 .46875-.3125.75-.85938.75C2-.40625 1.32813-1.25 1.01563-2.25Zm0 0"/><path id="m" d="M.39063-.48437c0 .35937.28125.625.76562.625.82813 0 1.29688-.82813 1.79688-1.64063l.5-.79687h.01562l.21875.95312C3.92188-.375 4.14063.14063 4.76563.14063c.89062 0 1.35937-.92188 1.71875-1.65625l-.3125-.15626c-.29688.53126-.64063 1.1875-.96875 1.1875-.23438 0-.32813-.28125-.59375-1.35937L4.21875-3.4375c.4375-.76562 1.0625-1.73437 1.40625-1.73437.35938 0 .375.1875.73438.1875.28125 0 .51562-.25.51562-.57813 0-.375-.28125-.53125-.60937-.53125-.65625 0-1.1875.57813-1.625 1.26563L4.10938-4h-.01563l-.5-2.04687-.0625-.04688-2 .60938.03125.29687.95313-.0625c.1875 0 .28125.09375.40625.60938l.42187 1.75L3-2.3125c-.51562.89063-.95312 1.53125-1.25 1.53125-.35937 0-.45312-.29687-.82812-.29687-.3125 0-.53125.29687-.53125.59375m0 0"/><path id="r" d="M-.26562 2.23438c.01562.40625.54687.70312 1.125.70312 1.20312 0 1.71875-.98437 2.21875-3.3125l1.125-5.10937H5.75l.10938-.46875H4.28125L4.625-7.3125c.23438-.92187.45313-1.26562.79688-1.26562.32812 0 .54687.26562.8125.84375.0625.125.15625.20312.32812.20312.25 0 .59375-.21875.59375-.51562C7.15625-8.5625 6.5-9 5.78125-9 4.34375-9 3.75-7.98437 3.29688-6.39062l-.14063.4375H2.10938l-.14063.46875H3.0625L1.65625 1.67188c-.14062.73437-.28125.8125-.39062.8125-.125 0-.32813-.07813-.64063-.59375C.53125 1.78125.45313 1.625.29688 1.625c-.26563 0-.5625.29688-.5625.60938m0 0"/><path id="s" d="M1.04688-3.42187c0 2.73437.625 5.75 3.1875 5.84375V2.0625C3.375 1.89063 2.01563.82813 2.01563-3.42187c0-4.21875 1.28125-5.29688 2.21875-5.48438v-.35937c-2.5625.10937-3.1875 3.10937-3.1875 5.84375m0 0"/><path id="t" d="M.71875 2.0625v.35938c2.57813-.09375 3.1875-3.10938 3.1875-5.84375S3.29688-9.15625.71875-9.26562v.35937c.9375.1875 2.21875 1.26563 2.21875 5.48438 0 4.25-1.34375 5.3125-2.21875 5.48437m0 0"/><path id="y" d="M1.03125-3.07812h6.67188v-.70313H1.03125Zm0 0"/><path id="z" d="M.1875-2.5625C.1875-1.125 1.625.125 2.96875.125c1.70313 0 2.78125-1.70312 3-2.03125C6.1875-1.46875 7.375.14063 9.25.14063 11.5.14063 12.14063-1.5625 12.14063-3s-1.34375-2.59375-2.6875-2.59375c-1.625 0-2.5 1.17188-3.01563 1.875-.46875-.76562-1.53125-1.84375-3.20312-1.84375-2.21875 0-3.04688 1.5625-3.04688 3m.76563.03125c0-1.21875.85937-2.17187 1.875-2.17187 1.21875 0 2.23437 1.28125 2.79687 2.1875-.46875.82812-1.32812 2.09375-2.6875 2.09375-.89062 0-1.98437-1.01563-1.98437-2.10938m5.82812-.64062C7.25-4 8.125-5.01562 9.5-5.01562c.875 0 1.9375.875 1.9375 1.96875 0 1.23437-.65625 2.34375-1.82812 2.34375-1.26563 0-2.25-1.39063-2.82813-2.46875m0 0"/><path id="C" d="M1.03125-3.07812h2.98438v2.98437h.70312v-2.98437h2.98438v-.70313H4.71875v-2.98437h-.70312v2.98437H1.03125Zm0 0"/><path id="E" d="M.5-4.04687C.5-1.625 1.21875.14063 3.21875.14063S5.9375-1.625 5.9375-4.04687c0-2.4375-.71875-4.20313-2.71875-4.20313S.5-6.48437.5-4.04687m1.23438 0c0-1.98438.32812-3.78125 1.48437-3.78125 1.14063 0 1.48438 1.79687 1.48438 3.78125 0 1.96875-.34375 3.76562-1.48438 3.76562-1.15625 0-1.48437-1.79687-1.48437-3.76562m0 0"/><path id="A" d="M.73438-.01562 1.0625 0l.28125-.46875c.17188.32813.59375.5625 1.10938.5625 1.03125 0 1.75-.65625 2.15625-1.40625.4375-.75.5625-1.51562.5625-1.875 0-.64062-.28125-1.07812-.92188-1.07812-.67187 0-1.48437.59375-2.10937 1.73437h-.03125l.9375-3.73437-.03125-.04688-1.625.21875-.04688.21875.46875.04688c.125.01562.20313.0625.20313.1875 0 .0625-.01563.125-.04688.23437Zm1.15625-.90625c0-.40625.1875-1 .46875-1.5.35937-.65625.95312-1.34375 1.45312-1.34375.28125 0 .40625.20312.40625.65625 0 .625-.5 2.89062-1.67187 2.89062-.42188 0-.65625-.28125-.65625-.70312m0 0"/><path id="B" d="M.60938-.90625c0 .5.23437 1 .8125 1 .95312 0 1.6875-1.03125 2.17187-1.89062H3.625L3.35938-.875c-.0625.1875-.09375.34375-.09375.48438 0 .32812.15625.48437.5.48437.6875 0 1.17187-.59375 1.48437-1.25l-.21875-.125c-.17187.3125-.53125.89063-.76562.89063-.09375 0-.125-.07813-.125-.17188q0-.11718.04687-.28125l.89063-3.35937H4.25l-.03125.10937c-.14062-.10937-.40625-.17187-.625-.17187-2.03125 0-2.98437 2.23437-2.98437 3.35937M1.5625-.9375c0-.92187.8125-3 2.0625-3 .20313 0 .35938.0625.48438.17188-.14063.625-.45313 1.45312-.89063 2.14062-.45312.70313-.95312 1.23438-1.3125 1.23438-.26562 0-.34375-.25-.34375-.54688m0 0"/><path id="Q" d="M.79688-2.35937H5.9375v-.54688H.79688Zm0 0"/><path id="R" d="M.15625-1.98437c0 1.125 1.09375 2.07812 2.125 2.07812 1.3125 0 2.15625-1.3125 2.3125-1.5625C4.76563-1.14062 5.67188.10938 7.125.10938c1.73438 0 2.21875-1.3125 2.21875-2.42188S8.3125-4.29687 7.28125-4.29687c-1.25 0-1.92187.89062-2.32812 1.4375-.35938-.59375-1.17188-1.42188-2.46875-1.42188-1.70313 0-2.32813 1.20313-2.32813 2.29688m.57813.03124c0-.92187.65625-1.67187 1.4375-1.67187.9375 0 1.71875.98438 2.15625 1.6875C3.96875-1.29687 3.3125-.32812 2.25-.32812c-.67187 0-1.51562-.78125-1.51562-1.625m4.5-.48437c.34375-.64062 1.03125-1.42187 2.07812-1.42187.67188 0 1.48438.67187 1.48438 1.51562 0 .9375-.5 1.8125-1.40625 1.8125-.96875 0-1.71875-1.07812-2.15625-1.90625m0 0"/><path id="S" d="M.79688-2.35937h2.29687V-.0625h.54688v-2.29687H5.9375v-.54688H3.64063v-2.29687h-.54688v2.29687H.79688Zm0 0"/><clipPath id="a"><path d="M128 .01563h192V37H128Zm0 0"/></clipPath><clipPath id="b"><path d="M128 .01563h192.1211V38H128Zm0 0"/></clipPath><clipPath id="c"><path d="M128 36h192.1211v38H128Zm0 0"/></clipPath><clipPath id="d"><path d="M0 .01563h129V37H0Zm0 0"/></clipPath><clipPath id="e"><path d="M0 .01563h130V38H0Zm0 0"/></clipPath><clipPath id="u"><path d="M0 36h320.1211v2H0Zm0 0"/></clipPath><clipPath id="v"><path d="M0 73h320.1211v1H0Zm0 0"/></clipPath><clipPath id="w"><path d="M0 .01563h320.1211V74H0Zm0 0"/></clipPath><clipPath id="x"><path d="M128 .01563h2V74h-2Zm0 0"/></clipPath><clipPath id="D"><path d="M128 36h192.1211v38H128Zm0 0"/></clipPath><clipPath id="F"><path d="M0 124h130v38.09766H0Zm0 0"/></clipPath><clipPath id="G"><path d="M128 88h192.1211v38H128Zm0 0"/></clipPath><clipPath id="H"><path d="M128 124h192.1211v38.09766H128Zm0 0"/></clipPath><clipPath id="L"><path d="M0 124h320.1211v2H0Zm0 0"/></clipPath><clipPath id="M"><path d="M0 161h320.1211v1.09766H0Zm0 0"/></clipPath><clipPath id="N"><path d="M0 88h320.1211v74.09766H0Zm0 0"/></clipPath><clipPath id="O"><path d="M128 88h2v74.09766h-2Zm0 0"/></clipPath><clipPath id="P"><path d="M128 124h192.1211v38.09766H128Zm0 0"/></clipPath></defs><path fill="#fff" stroke="#000" stroke-miterlimit="10" stroke-width=".39734" d="M.19922 36.96485v36.75001h128.62503v-36.75Zm0 0"/><g clip-path="url(#a)"><path fill="#fff" d="M128.82422 36.96484v-36.75h191.10547v36.75Zm0 0"/></g><g clip-path="url(#b)"><path fill="none" stroke="#000" stroke-miterlimit="10" stroke-width=".39734" d="M128.82425 36.96485v-36.75h191.10552v36.75Zm0 0"/></g><path fill="#fff" d="M128.82422 36.96484v36.75h191.10547v-36.75Zm0 0"/><g clip-path="url(#c)"><path fill="none" stroke="#000" stroke-miterlimit="10" stroke-width=".39734" d="M128.82425 36.96485v36.75001h191.10552v-36.75Zm0 0"/></g><g clip-path="url(#d)"><path fill="#fff" d="M.19922.21484v36.75h128.625v-36.75Zm0 0"/></g><g clip-path="url(#e)"><path fill="none" stroke="#000" stroke-miterlimit="10" stroke-width=".39734" d="M.19922.21484v36.75001h128.62503v-36.75Zm0 0"/></g><use xlink:href="#f" x="30.20716" y="23.01907"/><use xlink:href="#g" x="37.43853" y="23.01907"/><use xlink:href="#h" x="44.30109" y="23.01907"/><use xlink:href="#i" x="48.25266" y="23.01907"/><use xlink:href="#j" x="54.78592" y="23.01907"/><use xlink:href="#k" x="62.70223" y="23.01907"/><use xlink:href="#l" x="72.56798" y="23.01907"/><use xlink:href="#i" x="80.16816" y="23.01907"/><use xlink:href="#m" x="91.01473" y="23.01907"/><use xlink:href="#n" x="24.92383" y="58.51016"/><use xlink:href="#o" x="31.85224" y="58.51016"/><use xlink:href="#p" x="35.89602" y="58.51016"/><use xlink:href="#q" x="42.61368" y="58.51016"/><use xlink:href="#i" x="50.63537" y="58.51016"/><use xlink:href="#l" x="61.46267" y="58.51016"/><use xlink:href="#i" x="69.06285" y="58.51016"/><use xlink:href="#r" x="79.91014" y="58.51016"/><use xlink:href="#s" x="87.49044" y="58.51016"/><use xlink:href="#m" x="92.44927" y="58.51016"/><use xlink:href="#t" x="100.13287" y="58.51016"/><g clip-path="url(#u)"><path fill="none" stroke="#000" stroke-miterlimit="10" stroke-width=".39734" d="M.19922 36.96485h319.73055"/></g><g clip-path="url(#v)"><path fill="none" stroke="#000" stroke-miterlimit="10" stroke-width=".39734" d="M.19922 73.71486h319.73055"/></g><g clip-path="url(#w)"><path fill="none" stroke="#000" stroke-miterlimit="10" stroke-width=".39734" d="M.19922.21484v73.50002h319.73055V.21484Zm0 0"/></g><g clip-path="url(#x)"><path fill="none" stroke="#000" stroke-miterlimit="10" stroke-width=".39734" d="M128.82425.21484v73.50002"/></g><use xlink:href="#y" x="136.62599" y="21.31406"/><use xlink:href="#z" x="145.3556" y="21.31406"/><use xlink:href="#y" x="215.66657" y="22.01301"/><use xlink:href="#A" x="226.03621" y="16.82171"/><path fill="none" stroke="#000" stroke-miterlimit="10" stroke-width=".71032" d="M225.94531 18.58984h5.52344"/><use xlink:href="#B" x="225.94677" y="26.5588"/><use xlink:href="#C" x="290.94617" y="21.90134"/><use xlink:href="#z" x="299.67578" y="21.90134"/><g clip-path="url(#D)"><path fill="none" stroke="#000" stroke-miterlimit="10" stroke-width=".39734" d="M128.82425 36.96485v36.75001h191.10552v-36.75Zm0 0"/></g><use xlink:href="#y" x="181.49362" y="57.25284"/><path fill="none" stroke="#000" stroke-dasharray="2.9801026164 2.9801026164" stroke-miterlimit="10" stroke-width=".39734" d="M224.37506 36.96485v36.75001"/><use xlink:href="#E" x="221.20236" y="59.40554"/><use xlink:href="#C" x="258.69958" y="58.74447"/><path fill="#fff" d="M.19922 125.14844v36.75h128.625v-36.75Zm0 0"/><g clip-path="url(#F)"><path fill="none" stroke="#000" stroke-miterlimit="10" stroke-width=".39734" d="M.19922 125.14847v36.75h128.62503v-36.75Zm0 0"/></g><path fill="#fff" d="M128.82422 125.14844v-36.75h191.10156v36.75Zm0 0"/><g clip-path="url(#G)"><path fill="none" stroke="#000" stroke-miterlimit="10" stroke-width=".39734" d="M128.82425 125.14847V88.39846h191.10161v36.75Zm0 0"/></g><path fill="#fff" d="M128.82422 125.14844v36.75h191.10156v-36.75Zm0 0"/><g clip-path="url(#H)"><path fill="none" stroke="#000" stroke-miterlimit="10" stroke-width=".39734" d="M128.82425 125.14847v36.75h191.10161v-36.75Zm0 0"/></g><path fill="#fff" stroke="#000" stroke-miterlimit="10" stroke-width=".39734" d="M.19922 88.39846v36.75h128.62503v-36.75Zm0 0"/><use xlink:href="#f" x="30.20716" y="111.20189"/><use xlink:href="#g" x="37.43853" y="111.20189"/><use xlink:href="#h" x="44.30109" y="111.20189"/><use xlink:href="#i" x="48.25266" y="111.20189"/><use xlink:href="#j" x="54.78592" y="111.20189"/><use xlink:href="#k" x="62.70223" y="111.20189"/><use xlink:href="#l" x="72.56798" y="111.20189"/><use xlink:href="#i" x="80.16816" y="111.20189"/><use xlink:href="#m" x="91.01473" y="111.20189"/><use xlink:href="#f" x="19.1272" y="146.55638"/><use xlink:href="#g" x="26.35857" y="146.55638"/><use xlink:href="#k" x="33.22113" y="146.55638"/><use xlink:href="#o" x="38.91139" y="146.55638"/><use xlink:href="#g" x="42.95516" y="146.55638"/><use xlink:href="#I" x="49.81772" y="146.55638"/><use xlink:href="#o" x="54.52008" y="146.55638"/><use xlink:href="#J" x="58.56386" y="146.55638"/><use xlink:href="#q" x="65.92695" y="146.55638"/><use xlink:href="#K" x="73.94863" y="146.55638"/><use xlink:href="#l" x="83.88024" y="146.55638"/><use xlink:href="#i" x="91.48042" y="146.55638"/><use xlink:href="#r" x="102.328" y="146.55638"/><g clip-path="url(#L)"><path fill="none" stroke="#000" stroke-miterlimit="10" stroke-width=".39734" d="M.19922 125.14847h319.72664"/></g><g clip-path="url(#M)"><path fill="none" stroke="#000" stroke-miterlimit="10" stroke-width=".39734" d="M.19922 161.89848h319.72664"/></g><g clip-path="url(#N)"><path fill="none" stroke="#000" stroke-miterlimit="10" stroke-width=".39734" d="M.19922 88.39846v73.50002h319.72664V88.39846Zm0 0"/></g><g clip-path="url(#O)"><path fill="none" stroke="#000" stroke-miterlimit="10" stroke-width=".39734" d="M128.82425 88.39846v73.50002"/></g><use xlink:href="#y" x="136.62599" y="109.49688"/><use xlink:href="#z" x="145.3556" y="109.49688"/><use xlink:href="#C" x="290.94617" y="110.08416"/><use xlink:href="#z" x="299.67578" y="110.08416"/><g clip-path="url(#P)"><path fill="none" stroke="#000" stroke-miterlimit="10" stroke-width=".39734" d="M128.82425 125.14847v36.75h191.10161v-36.75Zm0 0"/></g><path fill="#fff" d="M137.09375 157.92578h20.21484v-8.38281h-20.21484Zm0 0"/><use xlink:href="#Q" x="139.07781" y="155.82823"/><use xlink:href="#R" x="145.79289" y="155.82823"/><path fill="#fff" d="M137.09375 157.92578h20.21484v-8.38281h-20.21484Zm0 0"/><use xlink:href="#Q" x="139.07781" y="155.82823"/><use xlink:href="#R" x="145.79289" y="155.82823"/><path fill="#fff" d="M291.44531 138.41016h20.21485v-9.28907H291.4453Zm0 0"/><use xlink:href="#S" x="293.4279" y="136.31237"/><use xlink:href="#R" x="300.14299" y="136.31237"/><path fill="#fff" d="M291.44531 138.41016h20.21485v-9.28907H291.4453Zm0 0"/><use xlink:href="#S" x="293.4279" y="136.31237"/><use xlink:href="#R" x="300.14299" y="136.31237"/><path fill="none" stroke="#000" stroke-miterlimit="10" stroke-width=".39734" d="m161.29692 151.92973 123.88284-16.03126"/><path d="M287.54297 135.59375c-1.00781-.07031-2.83203-.23437-4.1289-.96875 1.125.95703 1.22656 1.7461.3828 2.95703 1.06641-1.03906 2.78907-1.66406 3.7461-1.98828m0 0"/></svg>