<svg xmlns="http://www.w3.org/2000/svg" xmlns:xlink="http://www.w3.org/1999/xlink" width="493.627pt" height="249.847pt" viewBox="0 0 493.627 249.847"><defs><path id="f" d="M-.20312-12.25c.95312.04688 1.17187.17188 1.4375.96875L5 0h2.35938l2.23437-6.53125c.70313-2.04687 1.35938-3.85937 1.64063-4.59375.375-.89062.53125-1.03125 1.57812-1.125v-.6875H8.48438v.6875l1.04687.10938c.375.03125.42188.21875.32813.60937-.1875.625-.60938 2.17188-1.15625 3.90625C8.32813-6.48437 7.5-3.75 7.17188-2.78125H7.0625l-2.79687-8.6875c-.125-.39062-.10938-.64062.32812-.67187L5.5-12.25v-.6875H-.20312Zm0 0"/><path id="g" d="M.89063-2.51562c0 1.40625.90625 2.73437 2.79687 2.73437 1.1875 0 2.03125-.64062 2.6875-1.07812.23438.57812.57813 1.07812 1.46875 1.07812.96875 0 2.125-.3125 2.75-.5625l-.03125-.60937c-.23437.01562-.65625 0-.92187-.10938-.25-.07812-.60938-.29687-.60938-1.39062v-4.3125c0-1.17188-.15625-2.625-3.45312-2.625-2.75 0-4.46875 1.09375-4.46875 2.29687 0 .82813 1.20312 1.1875 1.67187 1.1875.42188 0 .625-.29687.79688-.76562.51562-1.59375 1.14062-1.875 1.65625-1.875.53125 0 1.0625.32812 1.0625 1.40625v.98437c-.65625.46875-2.21875.90625-3.4375 1.3125C1.39063-4.3125.89063-3.57812.89063-2.51562M3.75-2.8125c0-.875.3125-1.3125.875-1.625.57813-.3125 1.20313-.57812 1.67188-.78125v2.70313C6.25-1.5 5.67188-1.23437 5.15625-1.23437 4.42188-1.23437 3.75-1.8125 3.75-2.8125m0 0"/><path id="h" d="M.45313 0h5.26562v-.71875C4.64063-.78125 4.51563-.85937 4.51563-1.625V-13.75l-.15625-.125-3.76563.5v.67188l.64063.10937c.29687.04688.4375.21875.4375.96875v10c0 .76563-.14063.84375-1.21875.90625Zm0 0"/><path id="i" d="M.73438-4.57812c0 2.54687 1.10937 4.79687 4.57812 4.79687 2.23438 0 3.45313-1.07812 4.07813-2.73437l-.67188-.375c-.5625 1.07812-1.35937 1.67187-2.48437 1.67187-1.875 0-2.53125-1.53125-2.53125-3.5H8.5625c.67188 0 1-.17187 1-.78125 0-1.53125-.60937-3.89062-4.20312-3.89062-3.375 0-4.625 2.1875-4.625 4.8125m2.96875-1.03125c0-1.35938.35937-2.9375 1.57812-2.9375 1.125 0 1.32813 1.4375 1.32813 2.3125 0 .51562-.14063.625-.57813.625Zm0 0"/><path id="j" d="m.5625-8.1875.65625.10938c.29688.03125.40625.17187.40625.9375v4.54687c0 2.20313 1.35938 2.8125 2.71875 2.8125 1.59375 0 2.5625-.85937 3.3125-1.28125L7.82813 0h3.875v-.71875c-1.07813-.0625-1.1875-.14062-1.1875-.90625v-7.65625l-.17188-.10937-3.78125.53125v.67187l.65625.10938c.3125.03125.4375.17187.4375.9375v3.95312c0 .32813-.01562.78125-.125 1.0625-.1875.4375-.6875.875-1.5.875-1 0-1.57812-.57812-1.57812-2.03125v-6l-.14063-.10937-3.75.53125Zm0 0"/><path id="k" d="M.59375 0H6.25v-.71875C4.8125-.79687 4.625-.85937 4.625-1.625v-4.17187c0-.96875.17188-1.42188.625-1.42188.29688 0 .57813.15625 1 .39063.23438.17187.5.29687.85938.29687.375 0 .75-.20312.95312-.46875.20313-.28125.29688-.65625.29688-1.07812 0-.79688-.51563-1.3125-1.29688-1.3125-.76562 0-1.375.51562-2.46875 1.64062l-.25-1.64062-3.64062.53125v.67187l.65625.10938c.29687.03125.45312.17187.45312.9375V-1.625c0 .76563-.14062.84375-1.21875.90625Zm0 0"/><path id="l" d="M.73438-4.42187c0 2.73437 1.42187 4.64062 3.78125 4.64062.70312 0 1.6875-.35937 2.70312-1.15625V0H11.25v-.71875c-1.07812-.0625-1.21875-.14062-1.21875-.90625V-13.75l-.125-.125-3.79687.5v.67188l.65625.10937c.29687.04688.45312.21875.45312.96875v2.46875c-.40625-.1875-.95312-.23437-1.57812-.23437-1.40625 0-2.65625.40625-3.51563 1.20312C1.25-7.35937.73438-6.10937.73438-4.42187m2.96875-.375c0-2.75 1.03125-3.75 2.09375-3.75.71875 0 1.09375.39062 1.26562.76562.1875.28125.15625.67188.15625 1.07813v3.85937c0 .75-.26562 1.625-1.46875 1.625-1.21875 0-2.04687-1.1875-2.04687-3.57812m0 0"/><path id="n" d="M.89063-4.21875 1.1875-.875C2.15625 0 4 .28125 5.23438.28125c3.75-.04687 4.84375-2.04687 4.84375-4 0-2.46875-1.8125-3.42187-3.53125-4.14062C5.3125-8.375 3.75-9.0625 3.75-10.46875c0-1.17187.82813-1.89062 1.9375-1.89062 1.20313 0 2.35938.82812 2.875 3.01562h.67188v-3.0625c-.96875-.59375-2.39063-.82812-3.51563-.82812-3.17187 0-4.65625 1.625-4.65625 3.84375 0 2.32812 2.0625 3.3125 3.71875 4.01562 1.70313.71875 2.48438 1.54688 2.48438 2.75C7.25-1.23437 6.375-.57812 5.15625-.57812 3.75-.57812 2.3125-1.875 1.59375-4.21875Zm0 0"/><path id="o" d="M1.40625-11.84375c0 .89063.64063 1.65625 1.70313 1.65625 1.03125 0 1.75-.76562 1.75-1.65625 0-.875-.67188-1.625-1.75-1.625-1.0625 0-1.70313.75-1.70313 1.625M.59375 0H5.875v-.71875c-1.07812-.0625-1.25-.14062-1.25-.90625v-7.65625l-.10937-.10937-3.8125.53125v.67187l.65625.10938c.29687.03125.45312.17187.45312.9375V-1.625c0 .76563-.14062.84375-1.21875.90625Zm0 0"/><path id="p" d="M.59375 1.79688c0 1.8125 1.95313 2.71875 4.625 2.71875.8125 0 2.17188-.15625 3.10938-.67188 1.03125-.54687 1.71875-1.51562 1.71875-2.875 0-2.25-1.71875-2.9375-3.70313-2.9375H4.625c-.92187 0-1.26562-.29687-1.26562-.64062 0-.42188.48437-.60938.73437-.67188.35938.03125.64063.01563.85938.01563 2.21875 0 4.20312-.79688 4.20312-3.03125 0-.54688-.21875-1.125-.45312-1.45313l1.23437-.21875.375-1.40625-.1875-.20312-2.35937.79687c-.625-.35937-1.65625-.60937-2.67188-.60937-3.35937 0-4.35937 1.73437-4.35937 3.1875 0 1.54687 1.15625 2.48437 2.29687 2.65625V-3.5c-1.21875.29688-2.01562.96875-2.01562 1.73438 0 .8125.92187 1.5625 1.73437 1.75v.03125C1.96875.20313.59375.53125.59375 1.79688m2.48438-.1875c0-.51563.25-.85938.5-1.03125.26562-.1875.84375-.28126 1.65625-.28126 1.59375 0 2.54687.35938 2.54687 1.5C7.78125 3.125 6.75 3.65626 5.5 3.65626c-1.26562 0-2.42187-.70312-2.42187-2.04687m.57812-7.875c0-1.59375.65625-2.28125 1.42188-2.28125.73437 0 1.40625.6875 1.40625 2.25 0 1.34375-.57813 2.17187-1.42188 2.17187-.79687 0-1.40625-.85937-1.40625-2.14062m0 0"/><path id="q" d="M.59375 0h5.01563v-.71875L5.25-.75c-.39062-.04687-.625-.10937-.625-.71875V-5.9375c0-.40625.07813-.82812.21875-1.09375.23438-.46875.73438-.9375 1.5-.9375.96875 0 1.45313.60938 1.5 1.71875v4.78125c0 .60938-.20312.67188-.59375.71875l-.40625.03125V0h5.04688v-.71875c-1.07813-.0625-1.23438-.14062-1.23438-.90625v-4.89062c-.03125-1.75-.875-2.875-2.8125-2.875-1.09375 0-1.98437.54687-3.21875 1.28125l-.25-1.28125-3.67187.53125v.67187l.65625.10938c.29687.03125.45312.17187.45312.9375V-1.625c0 .76563-.14062.84375-1.21875.90625Zm0 0"/><path id="J" d="M.70313-8.23437h1.09375v6.04687c0 1.70313 1.25 2.40625 2.29687 2.40625.78125 0 1.9375-.34375 3-1L6.89063-1.375c-.26563.125-.64063.20313-1.0625.20313-.71875 0-1.20313-.54688-1.20313-1.73438v-5.32812h1.9375v-.9375H4.625v-2.35938H3.54688L1.89063-9.17187H.70313Zm0 0"/><path id="K" d="M.73438-4.57812c0 2.98437 1.4375 4.79687 4.84375 4.79687s4.85937-1.8125 4.85937-4.79687-1.45312-4.8125-4.85937-4.8125S.73438-7.5625.73438-4.57812m2.96875 0c0-2.51563.53125-3.96875 1.875-3.96875 1.32812 0 1.85937 1.45312 1.85937 3.96875s-.53125 3.9375-1.85937 3.9375c-1.34375 0-1.875-1.42188-1.875-3.9375m0 0"/><path id="L" d="m.8125-3.46875.21875 2.79688c.71875.65625 2.14063.89062 3.1875.89062 2.29688 0 3.84375-1 3.84375-3.03125 0-1.60937-1.03125-2.39062-2.75-3.04687C4.21875-6.25 3.42188-6.6875 3.42188-7.4375c0-.57812.42187-1.10937 1.20312-1.10937.95313 0 1.75.89062 2.10938 2.29687h.6875v-2.48437c-.76563-.48438-1.82813-.65625-2.79688-.65625-2.29687 0-3.70312 1.0625-3.70312 2.95312 0 1.375 1.09375 2.25 2.73437 2.875.96875.34375 1.89063.89063 1.89063 1.79688 0 .70312-.46875 1.125-1.28125 1.125-1.23438 0-2.25-1.29688-2.73438-2.82813Zm0 0"/><path id="m" d="M.59375-.73437c0 .53125.4375.95312 1.20313.95312 1.26562 0 1.98437-1.28125 2.76562-2.53125l.75-1.23437h.04688L5.6875-2.0625C6.04688-.57812 6.39063.21875 7.34375.21875 8.71875.21875 9.4375-1.1875 10-2.32812l-.48437-.26563C9.0625-1.75 8.54688-.75 8.01563-.75c-.35938 0-.48438-.42187-.90625-2.09375l-.59375-2.45312c.67187-1.1875 1.625-2.6875 2.15625-2.6875.5625 0 .57812.29687 1.14062.29687.42188 0 .79688-.39062.79688-.89062 0-.57813-.4375-.8125-.95313-.8125-1 0-1.82812.89062-2.48437 1.95312l-.82813 1.26563H6.3125L5.54688-9.3125l-.09375-.07812-3.07813.9375L2.40625-8 3.875-8.10937c.3125 0 .4375.14062.625.9375l.65625 2.71875-.51562.89062c-.79688 1.375-1.5 2.34375-1.95313 2.34375-.53125 0-.67187-.45312-1.28125-.45312-.46875 0-.8125.48437-.8125.9375m0 0"/><path id="r" d="M-.39062 3.4375c.01562.625.82812 1.07813 1.70312 1.07813C3.1875 4.51563 3.98438 3 4.75-.57812l1.73438-7.875h2.375l.17187-.71875H6.60938l.51562-2.10938c.35938-1.42187.71875-1.95312 1.23438-1.95312.5 0 .84375.42187 1.25 1.3125.10937.17187.25.3125.51562.3125.39063 0 .92188-.32813.92188-.8125 0-.79688-1.01563-1.45313-2.125-1.45313-2.21875 0-3.125 1.54688-3.84375 4.01563l-.20313.6875H3.26563l-.21875.71875h1.67187L2.54688 2.5625c-.21875 1.15625-.42188 1.28125-.59375 1.28125-.20313 0-.5-.14062-1-.92187-.14063-.17188-.25-.40625-.5-.40625-.40625 0-.84375.45312-.84375.92187m0 0"/><path id="s" d="M1.60938-5.28125c0 4.21875.95312 8.85938 4.92187 9.03125v-.5625c-1.32812-.26562-3.42187-1.90625-3.42187-8.46875 0-6.5 1.98437-8.15625 3.42187-8.45312v-.5625C2.5625-14.14062 1.60938-9.5 1.60938-5.28125m0 0"/><path id="t" d="M1.10938 3.1875V3.75c3.96875-.17187 4.92187-4.8125 4.92187-9.03125s-.95312-8.85937-4.92187-9.01562v.5625c1.4375.29687 3.42187 1.95312 3.42187 8.45312 0 6.5625-2.07812 8.20313-3.42187 8.46875m0 0"/><path id="y" d="M1.59375-4.73437h10.29688v-1.09375H1.59375Zm0 0"/><path id="z" d="M.29688-3.96875c0 2.23438 2.21875 4.17188 4.28125 4.17188 2.625 0 4.29687-2.625 4.625-3.15625.35937.6875 2.15625 3.17187 5.0625 3.17187 3.46875 0 4.46875-2.625 4.46875-4.84375s-2.09376-4-4.15626-4c-2.5 0-3.84374 1.79688-4.64062 2.89063-.73437-1.1875-2.375-2.84375-4.95312-2.84375-3.40625 0-4.6875 2.40625-4.6875 4.60937m1.17187.0625c0-1.85937 1.3125-3.34375 2.89063-3.34375 1.875 0 3.4375 1.96875 4.3125 3.375C7.96875-2.60937 6.625-.65625 4.51563-.65625c-1.34375 0-3.04688-1.54687-3.04688-3.25m9-.98437C11.1875-6.17187 12.54688-7.75 14.65625-7.75c1.34375 0 2.98438 1.35938 2.98438 3.04688 0 1.89062-1.01563 3.625-2.82813 3.625-1.9375 0-3.46875-2.14063-4.34375-3.8125m0 0"/><path id="C" d="M1.59375-4.73437H6.1875v4.59375h1.09375v-4.59375h4.60938v-1.09375H7.28125v-4.60938H6.1875v4.60938H1.59375Zm0 0"/><path id="E" d="M.78125-6.25C.78125-2.51562 1.875.21875 4.95313.21875c3.09375 0 4.20312-2.73437 4.20312-6.46875 0-3.75-1.10937-6.46875-4.20312-6.46875C1.875-12.71875.78125-10 .78125-6.25m1.89063 0c0-3.04687.51562-5.8125 2.28125-5.8125C6.73438-12.0625 7.25-9.29687 7.25-6.25S6.73438-.4375 4.95313-.4375c-1.76563 0-2.28125-2.76562-2.28125-5.8125m0 0"/><path id="A" d="m1.14063-.01562.5.01562.4375-.71875c.26562.51563.92187.875 1.70312.875 1.59375 0 2.6875-1.01562 3.32813-2.17187.65625-1.15625.85937-2.32813.85937-2.90625 0-.96875-.42187-1.65625-1.42187-1.65625-1.03125 0-2.28125.92187-3.25 2.67187H3.25l1.45313-5.75-.0625-.0625-2.5.32813-.0625.32812.70312.09375c.21875.01563.3125.07813.3125.26563 0 .10937-.01562.20312-.0625.375Zm1.76562-1.40625c0-.60938.29688-1.53125.71875-2.29688.5625-1.03125 1.48438-2.07812 2.25-2.07812.4375 0 .64063.3125.64063 1 0 .98437-.78125 4.46875-2.59375 4.46875-.64063 0-1.01563-.45313-1.01563-1.09375m0 0"/><path id="B" d="M.9375-1.40625c0 .78125.35938 1.5625 1.26563 1.5625 1.45312 0 2.59375-1.60937 3.34375-2.92187h.03125l-.40625 1.40625c-.07813.29687-.14063.54687-.14063.76562 0 .5.25.75.76563.75 1.0625 0 1.8125-.92187 2.28125-1.9375L7.75-1.98437c-.26562.5-.82812 1.375-1.17187 1.375-.15625 0-.1875-.09376-.1875-.25 0-.10938.01562-.28126.0625-.45313L7.8125-6.46875H6.54688L6.5-6.3125c-.23437-.15625-.625-.26562-.96875-.26562-3.125 0-4.59375 3.4375-4.59375 5.17187m1.46875-.04687c0-1.42188 1.26563-4.625 3.1875-4.625.29688 0 .54688.09375.75.26562-.23437.96875-.70312 2.26563-1.375 3.29688C4.25-1.42187 3.5-.60937 2.92188-.60937c-.40625 0-.51563-.35938-.51563-.84375m0 0"/><path id="R" d="M.79688-2.375h2.29687v2.3125h.54688V-2.375H5.9375v-.54687H3.64063v-2.29688h-.54688v2.29688H.79688Zm0 0"/><path id="S" d="M.15625-1.98437C.15625-.85937 1.25.09375 2.29688.09375c1.3125 0 2.14062-1.3125 2.29687-1.5625.1875.32813 1.09375 1.57813 2.54688 1.57813 1.73437 0 2.21875-1.3125 2.21875-2.42188s-1.03125-2-2.07813-2c-1.23437 0-1.92187.90625-2.3125 1.45313-.375-.60938-1.1875-1.4375-2.48437-1.4375-1.70313 0-2.32813 1.21875-2.32813 2.3125m.57813.03124c0-.9375.65625-1.67187 1.45312-1.67187.92188 0 1.71875.98438 2.15625 1.6875-.35937.64063-1.03125 1.60938-2.07812 1.60938-.6875 0-1.53125-.78125-1.53125-1.625m4.5-.5c.35937-.625 1.03125-1.42187 2.09375-1.42187.67187 0 1.48437.6875 1.48437 1.53125 0 .9375-.5 1.8125-1.40625 1.8125-.96875 0-1.73437-1.07812-2.17187-1.92187m0 0"/><path id="T" d="M.79688-2.375H5.9375v-.54687H.79688Zm0 0"/><clipPath id="a"><path d="M198 .01953h295.2539V57H198Zm0 0"/></clipPath><clipPath id="b"><path d="M198 .01953h295.2539V58H198Zm0 0"/></clipPath><clipPath id="c"><path d="M198 56h295.2539v58H198Zm0 0"/></clipPath><clipPath id="d"><path d="M0 .01953h199V57H0Zm0 0"/></clipPath><clipPath id="e"><path d="M0 .01953h199V58H0Zm0 0"/></clipPath><clipPath id="u"><path d="M0 56h493.2539v2H0Zm0 0"/></clipPath><clipPath id="v"><path d="M0 113h493.2539v1H0Zm0 0"/></clipPath><clipPath id="w"><path d="M0 .01953h493.2539V114H0Zm0 0"/></clipPath><clipPath id="x"><path d="M198 .01953h1V114h-1Zm0 0"/></clipPath><clipPath id="D"><path d="M198 56h295.2539v58H198Zm0 0"/></clipPath><clipPath id="F"><path d="M0 192h199v57.67578H0Zm0 0"/></clipPath><clipPath id="G"><path d="M198 136h295.2539v57H198Zm0 0"/></clipPath><clipPath id="H"><path d="M198 135h295.2539v59H198Zm0 0"/></clipPath><clipPath id="I"><path d="M198 192h295.2539v57.67578H198Zm0 0"/></clipPath><clipPath id="M"><path d="M0 192h493.2539v2H0Zm0 0"/></clipPath><clipPath id="N"><path d="M0 249h493.2539v.67578H0Zm0 0"/></clipPath><clipPath id="O"><path d="M0 135h493.2539v114.67578H0Zm0 0"/></clipPath><clipPath id="P"><path d="M198 135h1v114.67578h-1Zm0 0"/></clipPath><clipPath id="Q"><path d="M198 192h295.2539v57.67578H198Zm0 0"/></clipPath></defs><path fill="#FFF" stroke="#000" stroke-miterlimit="10" stroke-width=".3982" d="M.19922 56.8672v56.65234h198.27736V56.86719Zm0 0"/><g clip-path="url(#a)"><path fill="#FFF" d="M198.47656 56.86719V.21484H493.0625V56.8672Zm0 0"/></g><g clip-path="url(#b)"><path fill="none" stroke="#000" stroke-miterlimit="10" stroke-width=".3982" d="M198.47658 56.8672V.21483h294.58595V56.8672Zm0 0"/></g><g clip-path="url(#c)"><path fill="#FFF" stroke="#000" stroke-miterlimit="10" stroke-width=".3982" d="M198.47658 56.8672v56.65234h294.58595V56.86719Zm0 0"/></g><g clip-path="url(#d)"><path fill="#FFF" d="M.19922.21484V56.8672h198.27734V.21484Zm0 0"/></g><g clip-path="url(#e)"><path fill="none" stroke="#000" stroke-miterlimit="10" stroke-width=".3982" d="M.19922.21484V56.8672h198.27736V.21484Zm0 0"/></g><use xlink:href="#f" x="47.54407" y="35.37117"/><use xlink:href="#g" x="58.47479" y="35.37117"/><use xlink:href="#h" x="68.84803" y="35.37117"/><use xlink:href="#i" x="74.8211" y="35.37117"/><use xlink:href="#j" x="84.69657" y="35.37117"/><use xlink:href="#k" x="96.66262" y="35.37117"/><use xlink:href="#l" x="111.71476" y="35.37117"/><use xlink:href="#i" x="123.20297" y="35.37117"/><use xlink:href="#m" x="139.72042" y="35.37117"/><use xlink:href="#n" x="38.23511" y="90.07983"/><use xlink:href="#o" x="48.70789" y="90.07983"/><use xlink:href="#p" x="54.82033" y="90.07983"/><use xlink:href="#q" x="64.97455" y="90.07983"/><use xlink:href="#i" x="77.09989" y="90.07983"/><use xlink:href="#l" x="93.60547" y="90.07983"/><use xlink:href="#i" x="105.09368" y="90.07983"/><use xlink:href="#r" x="121.61211" y="90.07983"/><use xlink:href="#s" x="133.29941" y="90.07983"/><use xlink:href="#m" x="140.94494" y="90.07983"/><use xlink:href="#t" x="152.79153" y="90.07983"/><g clip-path="url(#u)"><path fill="none" stroke="#000" stroke-miterlimit="10" stroke-width=".3982" d="M.19922 56.8672h492.86331"/></g><g clip-path="url(#v)"><path fill="none" stroke="#000" stroke-miterlimit="10" stroke-width=".3982" d="M.19922 113.51954h492.86331"/></g><g clip-path="url(#w)"><path fill="none" stroke="#000" stroke-miterlimit="10" stroke-width=".3982" d="M.19922.21484v113.3047h492.86331V.21484Zm0 0"/></g><g clip-path="url(#x)"><path fill="none" stroke="#000" stroke-miterlimit="10" stroke-width=".3982" d="M198.47658.21484v113.3047"/></g><use xlink:href="#y" x="210.52292" y="32.74315"/><use xlink:href="#z" x="223.98224" y="32.74315"/><use xlink:href="#y" x="332.38884" y="33.82034"/><use xlink:href="#A" x="348.37676" y="25.81639"/><path fill="none" stroke="#000" stroke-miterlimit="10" stroke-width="1.09517" d="M348.23828 28.54297h8.51563"/><use xlink:href="#B" x="348.23686" y="40.82904"/><use xlink:href="#C" x="448.45413" y="33.64947"/><use xlink:href="#z" x="461.91345" y="33.64947"/><g clip-path="url(#D)"><path fill="none" stroke="#000" stroke-miterlimit="10" stroke-width=".3982" d="M198.47658 56.8672v56.65234h294.58595V56.86719Zm0 0"/></g><use xlink:href="#C" x="279.55276" y="90.40858"/><path fill="none" stroke="#000" stroke-dasharray="2.9865883775 2.9865883775" stroke-miterlimit="10" stroke-width=".3982" d="M345.76955 56.8672v56.65234"/><use xlink:href="#E" x="340.80748" y="91.4438"/><use xlink:href="#y" x="398.51787" y="88.10932"/><g clip-path="url(#F)"><path fill="#FFF" stroke="#000" stroke-miterlimit="10" stroke-width=".3982" d="M.19922 192.82814v56.65234h198.27736v-56.65234Zm0 0"/></g><g clip-path="url(#G)"><path fill="#FFF" d="M198.47656 192.82813v-56.64844H493.0625v56.64844Zm0 0"/></g><g clip-path="url(#H)"><path fill="none" stroke="#000" stroke-miterlimit="10" stroke-width=".3982" d="M198.47658 192.82814V136.1797h294.58595v56.64844Zm0 0"/></g><g clip-path="url(#I)"><path fill="#FFF" stroke="#000" stroke-miterlimit="10" stroke-width=".3982" d="M198.47658 192.82814v56.65234h294.58595v-56.65234Zm0 0"/></g><path fill="#FFF" stroke="#000" stroke-miterlimit="10" stroke-width=".3982" d="M.19922 136.1797v56.64844h198.27736V136.1797Zm0 0"/><use xlink:href="#f" x="47.54407" y="171.33143"/><use xlink:href="#g" x="58.47479" y="171.33143"/><use xlink:href="#h" x="68.84803" y="171.33143"/><use xlink:href="#i" x="74.8211" y="171.33143"/><use xlink:href="#j" x="84.69657" y="171.33143"/><use xlink:href="#k" x="96.66262" y="171.33143"/><use xlink:href="#l" x="111.71476" y="171.33143"/><use xlink:href="#i" x="123.20297" y="171.33143"/><use xlink:href="#m" x="139.72042" y="171.33143"/><use xlink:href="#f" x="30.79873" y="225.83125"/><use xlink:href="#g" x="41.72945" y="225.83125"/><use xlink:href="#k" x="52.10268" y="225.83125"/><use xlink:href="#o" x="60.7039" y="225.83125"/><use xlink:href="#g" x="66.81634" y="225.83125"/><use xlink:href="#J" x="77.18958" y="225.83125"/><use xlink:href="#o" x="84.29753" y="225.83125"/><use xlink:href="#K" x="90.40997" y="225.83125"/><use xlink:href="#q" x="101.53979" y="225.83125"/><use xlink:href="#L" x="113.66513" y="225.83125"/><use xlink:href="#l" x="128.81681" y="225.83125"/><use xlink:href="#i" x="140.30502" y="225.83125"/><use xlink:href="#r" x="156.8235" y="225.83125"/><g clip-path="url(#M)"><path fill="none" stroke="#000" stroke-miterlimit="10" stroke-width=".3982" d="M.19922 192.82814h492.86331"/></g><g clip-path="url(#N)"><path fill="none" stroke="#000" stroke-miterlimit="10" stroke-width=".3982" d="M.19922 249.48048h492.86331"/></g><g clip-path="url(#O)"><path fill="none" stroke="#000" stroke-miterlimit="10" stroke-width=".3982" d="M.19922 136.1797v113.30078h492.86331V136.1797Zm0 0"/></g><g clip-path="url(#P)"><path fill="none" stroke="#000" stroke-miterlimit="10" stroke-width=".3982" d="M198.47658 136.1797v113.30078"/></g><use xlink:href="#y" x="210.52292" y="168.70342"/><use xlink:href="#z" x="223.98224" y="168.70342"/><use xlink:href="#C" x="448.45313" y="169.60873"/><use xlink:href="#z" x="461.91245" y="169.60873"/><g clip-path="url(#Q)"><path fill="none" stroke="#000" stroke-miterlimit="10" stroke-width=".3982" d="M198.47658 192.82814v56.65234h294.58595v-56.65234Zm0 0"/></g><path fill="#FFF" d="M216.67188 206.1211h20.2578v-9.3086h-20.2578Zm0 0"/><use xlink:href="#R" x="218.66077" y="204.01674"/><use xlink:href="#S" x="225.39043" y="204.01674"/><path fill="#FFF" d="M216.67188 206.1211h20.2578v-9.3086h-20.2578Zm0 0"/><use xlink:href="#R" x="218.66077" y="204.01674"/><use xlink:href="#S" x="225.39043" y="204.01674"/><path fill="#FFF" d="M454.60547 245.4961h20.25781v-8.40235h-20.25781Zm0 0"/><use xlink:href="#T" x="456.59099" y="243.39498"/><use xlink:href="#S" x="463.32065" y="243.39498"/><path fill="#FFF" d="M454.60547 245.4961h20.25781v-8.40235h-20.25781Zm0 0"/><use xlink:href="#T" x="456.59099" y="243.39498"/><use xlink:href="#S" x="463.32065" y="243.39498"/><path fill="none" stroke="#000" stroke-miterlimit="10" stroke-width=".3982" d="m240.88673 203.81642 207.41017 34.73047"/><path d="M450.65234 238.9414c-.94921-.36327-2.65234-1.05077-3.68359-2.1328.80469 1.24609.67188 2.03124-.49219 2.9453 1.32813-.68359 3.16016-.78124 4.17578-.8125m0 0"/></svg>