<?xml version="1.0" encoding="UTF-8" standalone="no"?>
<svg
   width="512pt"
   height="512pt"
   viewBox="0 0 512 512"
   version="1.1"
   id="svg11"
   sodipodi:docname="image.svg"
   inkscape:version="1.4 (86a8ad7, 2024-10-11)"
   xmlns:inkscape="http://www.inkscape.org/namespaces/inkscape"
   xmlns:sodipodi="http://sodipodi.sourceforge.net/DTD/sodipodi-0.dtd"
   xmlns="http://www.w3.org/2000/svg"
   xmlns:svg="http://www.w3.org/2000/svg">
  <defs
     id="defs11" />
  <sodipodi:namedview
     id="namedview11"
     pagecolor="#ffffff"
     bordercolor="#000000"
     borderopacity="0.25"
     inkscape:showpageshadow="2"
     inkscape:pageopacity="0.0"
     inkscape:pagecheckerboard="0"
     inkscape:deskcolor="#d1d1d1"
     inkscape:document-units="pt"
     inkscape:zoom="0.80067413"
     inkscape:cx="-74.936853"
     inkscape:cy="230.43082"
     inkscape:window-width="1920"
     inkscape:window-height="991"
     inkscape:window-x="-9"
     inkscape:window-y="-9"
     inkscape:window-maximized="1"
     inkscape:current-layer="svg11" />
  <g
     id="#fcc938ff">
    <path
       fill="#fcc938"
       opacity="1.00"
       d=" M 184.05 10.22 C 187.96 5.60 192.89 1.36 199.10 0.50 C 212.55 -1.27 225.57 4.39 236.84 11.19 C 253.89 22.16 268.28 37.45 277.50 55.56 C 281.85 64.83 285.08 75.17 283.38 85.50 C 282.38 91.07 278.77 95.72 274.50 99.24 C 268.49 101.04 262.18 102.07 255.94 100.85 C 243.69 98.74 232.36 92.85 222.52 85.39 C 210.78 76.57 200.57 65.64 192.90 53.11 C 186.18 41.78 180.76 28.44 183.36 15.05 C 183.61 13.44 183.83 11.83 184.05 10.22 Z"
       id="path1"
       style="fill:#f4d8a5;fill-opacity:1" />
  </g>
  <g
     id="#e2a91bff">
    <path
       fill="#e2a91b"
       opacity="1.00"
       d=" M 169.07 25.07 C 174.06 20.12 178.95 15.06 184.05 10.22 C 183.83 11.83 183.61 13.44 183.36 15.05 C 180.76 28.44 186.18 41.78 192.90 53.11 C 200.57 65.64 210.78 76.57 222.52 85.39 C 232.36 92.85 243.69 98.74 255.94 100.85 C 262.18 102.07 268.49 101.04 274.50 99.24 C 269.56 104.38 264.43 109.33 259.42 114.39 C 252.00 122.65 239.67 121.92 229.89 119.15 C 214.16 114.42 200.49 104.51 189.00 92.98 C 179.60 83.11 171.33 71.87 166.54 59.02 C 163.72 52.03 162.36 44.37 163.20 36.84 C 163.82 32.42 165.88 28.21 169.07 25.07 Z"
       id="path2"
       style="fill:#f1cb86;fill-opacity:1" />
  </g>
  <g
     id="#f2f2f2ff">
    <path
       fill="#f2f2f2"
       opacity="1.00"
       d=" M 307.39 51.43 C 310.45 50.00 314.26 51.02 316.38 53.59 C 334.07 76.02 341.56 106.09 336.55 134.20 C 332.58 158.39 319.55 180.98 300.53 196.44 C 298.21 198.57 295.22 200.88 291.85 199.91 C 287.45 199.28 284.33 194.26 285.82 190.04 C 286.51 187.58 288.64 185.98 290.46 184.36 C 306.52 171.36 317.50 152.36 320.99 132.02 C 324.98 109.89 320.04 86.25 307.22 67.74 C 305.75 65.57 304.03 63.51 303.07 61.04 C 301.63 57.36 303.73 52.84 307.39 51.43 Z"
       id="path3"
       style="fill:#596c76;fill-opacity:1" />
    <path
       fill="#f2f2f2"
       opacity="1.00"
       d=" M 360.15 62.27 C 363.07 61.16 366.56 62.07 368.61 64.41 C 378.46 77.06 386.01 91.54 390.55 106.93 C 399.75 137.27 397.09 170.95 383.54 199.57 C 375.42 216.90 363.34 232.33 348.51 244.41 C 345.98 246.79 342.63 249.38 338.94 248.06 C 333.04 246.89 331.03 238.46 335.76 234.73 C 342.90 228.58 350.07 222.33 355.74 214.73 C 376.29 189.09 384.60 154.21 378.09 122.03 C 375.74 109.80 371.31 97.96 365.03 87.20 C 362.49 82.19 358.66 78.00 355.91 73.12 C 353.63 69.18 355.89 63.69 360.15 62.27 Z"
       id="path4"
       style="fill:#596c76;fill-opacity:1" />
  </g>
  <g
     id="#e2be91ff">
    <path
       fill="#e2be91"
       opacity="1.00"
       d=" M 207.12 182.19 C 216.06 175.95 228.35 174.54 238.29 179.22 C 234.17 180.00 229.96 180.51 226.05 182.10 C 220.44 184.26 215.62 188.21 212.02 192.99 C 208.04 198.27 206.93 204.98 203.79 210.71 C 194.47 227.66 180.64 241.88 164.55 252.52 C 150.49 261.77 136.76 272.13 126.80 285.90 C 123.09 291.09 120.39 296.93 118.23 302.92 C 118.12 302.40 117.89 301.37 117.78 300.86 C 121.96 282.50 132.99 266.22 146.92 253.78 C 153.55 247.72 161.25 242.97 167.80 236.82 C 172.66 232.33 177.28 227.55 181.28 222.27 C 186.26 215.31 191.57 208.38 194.25 200.13 C 196.54 193.01 200.79 186.36 207.12 182.19 Z"
       id="path5"
       style="fill:#dfe7f4;fill-opacity:1" />
    <path
       fill="#e2be91"
       opacity="1.00"
       d=" M 201.78 276.74 C 203.33 274.35 206.35 274.02 208.95 274.10 C 216.94 274.17 224.94 274.02 232.93 274.23 C 230.59 278.47 227.57 282.28 224.60 286.10 C 218.40 285.93 212.19 286.39 206.00 285.93 C 201.69 285.68 199.28 280.19 201.78 276.74 Z"
       id="path6"
       style="fill:#dfe7f4;fill-opacity:1" />
    <path
       fill="#e2be91"
       opacity="1.00"
       d=" M 364.68 306.63 C 367.70 315.37 365.26 325.45 359.46 332.49 C 354.86 338.27 347.84 341.76 340.60 342.81 C 329.43 342.55 318.25 342.92 307.08 342.62 C 302.18 342.62 298.27 337.69 299.10 332.92 C 299.68 328.74 303.85 325.94 307.90 325.98 C 315.26 325.83 322.63 325.96 330.00 325.96 C 336.99 326.05 344.39 326.12 350.71 322.66 C 357.26 319.34 361.67 313.15 364.68 306.63 Z"
       id="path7"
       style="fill:#dfe7f4;fill-opacity:1" />
    <path
       fill="#e2be91"
       opacity="1.00"
       d=" M 367.25 372.33 C 369.79 369.64 370.97 365.97 373.65 363.39 C 376.82 374.94 371.58 388.08 361.39 394.33 C 355.19 398.35 347.52 399.44 340.32 398.49 C 332.19 398.82 324.04 398.67 315.91 398.61 C 310.71 398.67 306.33 393.10 308.02 388.07 C 308.85 384.45 312.29 381.85 315.99 381.93 C 325.33 381.66 334.68 381.95 344.02 381.84 C 352.61 382.10 361.58 378.98 367.25 372.33 Z"
       id="path8"
       style="fill:#dfe7f4;fill-opacity:1" />
    <path
       fill="#e2be91"
       opacity="1.00"
       d=" M 115.99 395.64 C 117.70 406.65 120.08 417.73 125.23 427.71 C 133.72 445.75 148.16 460.49 164.81 471.22 C 185.83 484.58 210.16 492.51 234.94 494.69 C 245.62 495.44 256.34 495.14 267.03 495.23 C 286.37 495.19 305.72 495.26 325.06 495.18 C 333.66 495.32 342.51 491.79 347.88 484.93 C 350.05 482.32 351.06 478.90 353.59 476.57 C 358.49 492.79 345.63 511.00 328.78 512.00 L 240.27 512.00 C 207.78 510.19 175.35 498.76 150.46 477.47 C 136.75 465.54 125.71 450.16 120.29 432.71 C 116.24 420.81 115.59 408.12 115.99 395.64 Z"
       id="path9"
       style="fill:#dfe7f4;fill-opacity:1" />
    <path
       fill="#e2be91"
       opacity="1.00"
       d=" M 364.77 418.77 C 369.06 431.22 362.63 445.98 350.96 451.88 C 343.62 455.95 334.93 455.27 326.84 455.28 C 319.93 454.61 312.96 455.60 306.07 454.77 C 302.26 454.25 299.22 450.83 299.16 446.99 C 298.77 442.50 302.72 438.48 307.12 438.32 C 313.07 438.05 319.04 438.40 325.00 438.23 C 333.22 438.02 341.92 439.21 349.61 435.57 C 356.87 432.50 361.69 425.77 364.77 418.77 Z"
       id="path10"
       style="fill:#dfe7f4;fill-opacity:1" />
  </g>
  <g
     id="#ffddb0ff">
    <path
       fill="#ffddb0"
       opacity="1.00"
       d=" M 238.29 179.22 C 248.56 183.79 256.21 193.80 257.39 205.05 C 258.29 211.88 256.27 218.58 254.15 224.98 C 248.91 242.12 241.84 258.67 232.93 274.23 C 224.94 274.02 216.94 274.17 208.95 274.10 C 206.35 274.02 203.33 274.35 201.78 276.74 C 199.28 280.19 201.69 285.68 206.00 285.93 C 212.19 286.39 218.40 285.93 224.60 286.10 C 262.30 286.19 300.00 286.18 337.69 286.36 C 349.91 286.27 361.28 294.95 364.68 306.63 C 361.67 313.15 357.26 319.34 350.71 322.66 C 344.39 326.12 336.99 326.05 330.00 325.96 C 322.63 325.96 315.26 325.83 307.90 325.98 C 303.85 325.94 299.68 328.74 299.10 332.92 C 298.27 337.69 302.18 342.62 307.08 342.62 C 318.25 342.92 329.43 342.55 340.60 342.81 C 345.68 342.92 351.02 341.94 355.87 343.95 C 364.57 346.97 371.08 354.66 373.65 363.39 C 370.97 365.97 369.79 369.64 367.25 372.33 C 361.58 378.98 352.61 382.10 344.02 381.84 C 334.68 381.95 325.33 381.66 315.99 381.93 C 312.29 381.85 308.85 384.45 308.02 388.07 C 306.33 393.10 310.71 398.67 315.91 398.61 C 324.04 398.67 332.19 398.82 340.32 398.49 C 351.45 400.01 361.58 407.81 364.77 418.77 C 361.69 425.77 356.87 432.50 349.61 435.57 C 341.92 439.21 333.22 438.02 325.00 438.23 C 319.04 438.40 313.07 438.05 307.12 438.32 C 302.72 438.48 298.77 442.50 299.16 446.99 C 299.22 450.83 302.26 454.25 306.07 454.77 C 312.96 455.60 319.93 454.61 326.84 455.28 C 332.75 456.11 338.75 457.76 343.47 461.58 C 348.42 465.28 351.70 470.76 353.59 476.57 C 351.06 478.90 350.05 482.32 347.88 484.93 C 342.51 491.79 333.66 495.32 325.06 495.18 C 305.72 495.26 286.37 495.19 267.03 495.23 C 256.34 495.14 245.62 495.44 234.94 494.69 C 210.16 492.51 185.83 484.58 164.81 471.22 C 148.16 460.49 133.72 445.75 125.23 427.71 C 120.08 417.73 117.70 406.65 115.99 395.64 C 115.93 372.08 115.99 348.52 115.97 324.96 C 115.98 316.90 115.83 308.74 117.78 300.86 C 117.89 301.37 118.12 302.40 118.23 302.92 C 120.39 296.93 123.09 291.09 126.80 285.90 C 136.76 272.13 150.49 261.77 164.55 252.52 C 180.64 241.88 194.47 227.66 203.79 210.71 C 206.93 204.98 208.04 198.27 212.02 192.99 C 215.62 188.21 220.44 184.26 226.05 182.10 C 229.96 180.51 234.17 180.00 238.29 179.22 Z"
       id="path11"
       style="fill:#f0f7ff;fill-opacity:1" />
  </g>
</svg>
