<svg xmlns="http://www.w3.org/2000/svg" xmlns:xlink="http://www.w3.org/1999/xlink" width="858.595pt" height="252.797pt" viewBox="0 0 858.595 252.797"><defs><path id="a" d="M1.5-5.28125c0 .65625.51563 1.1875 1.17188 1.1875s1.1875-.53125 1.1875-1.1875-.53125-1.17187-1.1875-1.17187S1.5-5.9375 1.5-5.28125m0 0"/><path id="o" d="m1.59375-1.98437.45313.21874c.40625-.90624.9375-1.71874 1.59375-1.71874 1.25 0 4.35937 1.82812 6.1875 1.82812 1.64062 0 1.96875-1.8125 2.09375-2.78125l-.46875-.23437c-.34375.89062-.89063 1.76562-1.5625 1.76562-1.34375 0-4.5625-1.89062-6.375-1.89062-.95313 0-1.79688 1.84375-1.92188 2.8125m0-4.125.45313.21875c.40625-.89063.9375-1.71875 1.59375-1.71875 1.25 0 4.35937 1.84375 6.1875 1.84375 1.64062 0 1.96875-1.8125 2.09375-2.79688l-.46875-.23437c-.34375.89062-.89063 1.76562-1.5625 1.76562-1.34375 0-4.5625-1.89062-6.375-1.89062-.95313 0-1.79688 1.85937-1.92188 2.8125m0 0"/><path id="p" d="M.8125-5.76562c0 4.03125 1.48438 5.98437 4.28125 5.98437 2.76563 0 4.25-1.67187 4.25-4.21875 0-2.53125-1.5625-3.90625-3.57812-3.90625-1.46875 0-2.5625 1-3.0625 1.60938.03125-4.10938 1.15625-5.76563 2.84375-5.76563.85937 0 1.48437.71875 1.76562 1.79688.04688.21875.1875.39062.46875.39062.42188 0 1-.34375 1-.85937 0-.75-.92187-1.98438-3.17187-1.98438-2.96875 0-4.79688 2.28125-4.79688 6.95313m1.89063 1.34375c0-1.125.85937-2.53125 2.4375-2.53125 1.17187 0 2.32812 1.07812 2.32812 3.23437 0 1.96875-.76562 3.28125-2.32812 3.28125-1.64063 0-2.4375-1.73437-2.4375-3.98437m0 0"/><path id="q" d="M.78125-3.40625c0 1.89063 1.15625 3.625 4.17188 3.625 3.03125 0 4.1875-1.73437 4.1875-3.625 0-1.90625-1.20313-3.03125-2.46875-3.32812C7.79688-7.03125 8.71875-8 8.71875-9.53125c0-2.03125-1.60937-3.1875-3.76562-3.1875-2.14063 0-3.76563 1.15625-3.76563 3.1875 0 1.53125.96875 2.5 2.07813 2.79688C2.01563-6.4375.78125-5.3125.78125-3.40625m1.85938.0625c0-1.71875.82812-2.98437 2.3125-2.98437 1.5 0 2.3125 1.26562 2.3125 2.98437 0 1.65625-.73438 2.90625-2.3125 2.90625-1.5625 0-2.3125-1.25-2.3125-2.90625M3-9.57812c0-1.4375.6875-2.48438 1.95313-2.48438 1.28125 0 1.95312 1.04688 1.95312 2.48438C6.90625-8.29687 6.3125-7 4.95313-7 3.60938-7 3-8.29687 3-9.57812m0 0"/><path id="b" d="M.375-3.125C.375-1.32812.9375.10938 2.5625.10938c1.64063 0 2.20313-1.4375 2.20313-3.23438s-.5625-3.23437-2.20313-3.23437C.9375-6.35937.375-4.92187.375-3.125m1.17188 0c0-1.3125.1875-2.85937 1.01562-2.85937.84375 0 1.01563 1.54687 1.01563 2.85937S3.40625-.26562 2.5625-.26562c-.82812 0-1.01562-1.54688-1.01562-2.85938m0 0"/><path id="c" d="M.28125-.125.39063 0H4.4375l.35938-1.40625L4.5-1.46875c-.23437.5-.40625.57813-.78125.57813h-2.375C1.5-1.3125 1.9375-1.92187 2.875-2.51562c.98438-.625 1.64063-1.0625 1.64063-2.07813 0-1.3125-.89063-1.76562-1.96875-1.76562C1.29688-6.35937.5-5.65625.5-5.03125c0 .35938.42188.53125.64063.53125.1875 0 .28124-.09375.32812-.29687.15625-.6875.48438-1.1875 1.01563-1.1875.60937 0 .8125.53125.8125 1.20312 0 .8125-.32813 1.45313-1.25 2.23438C.82813-1.5.39063-.8125.28124-.125m0 0"/><path id="d" d="m.20313-1.875.125.21875h2.46875v.95313c0 .26562-.09375.32812-.28125.34375l-.60938.04687V0h2.64063v-.3125l-.4375-.03125c-.1875-.03125-.25-.09375-.25-.35937v-.95313h.9375v-.53125h-.9375V-6.25h-.89063C2.03125-4.875 1.04688-3.32812.20313-1.875m.8125-.3125c.5-.9375 1.125-1.96875 1.78125-3.03125v3.03125Zm0 0"/><path id="e" d="M.375-2.95312C.375-1 1.0625.10938 2.625.10938c1.51563 0 2.23438-.9375 2.23438-2.14063 0-1.29687-.8125-1.95312-1.8125-1.95312-.6875 0-1.20313.4375-1.5.79687 0-1.46875.375-2.79687 1.25-2.79687.40625 0 .70312.35937.84375.9375.04687.125.14062.23437.32812.23437.21875 0 .59375-.15625.59375-.48437 0-.42188-.51562-1.0625-1.70312-1.0625C1.32813-6.35937.375-5.21875.375-2.95312m1.17188.75c0-.54688.375-1.17188 1.07812-1.17188.54688 0 1.0625.46875 1.0625 1.53125 0 .92188-.29687 1.57813-1.03125 1.57813-.75 0-1.10937-.85938-1.10937-1.9375m0 0"/><path id="f" d="M.34375-1.73437c0 1.14062.84375 1.84375 2.21875 1.84375 1.40625 0 2.21875-.6875 2.21875-1.84375 0-.90625-.54687-1.45313-1.23437-1.64063.54687-.14062 1.01562-.60937 1.01562-1.35937 0-1.04688-.8125-1.625-2-1.625-1.17187 0-2 .59375-2 1.625 0 .75.48438 1.21875 1.03125 1.35937-.67187.1875-1.25.73438-1.25 1.64063m1.1875.03124c0-.8125.35938-1.4375 1.03125-1.4375.6875 0 1.03125.625 1.03125 1.4375 0 .82813-.32812 1.4375-1.03125 1.4375-.6875 0-1.03125-.60937-1.03125-1.4375m.15625-3.0625c0-.70312.32813-1.21875.875-1.21875.57813 0 .875.51563.875 1.21875 0 .65625-.28125 1.25-.875 1.25-.57812 0-.875-.59375-.875-1.25m0 0"/><path id="g" d="M1.01563 0h3.1875v-.3125L3.48438-.375c-.20313-.01562-.3125-.07812-.3125-.42187v-5.5l-.0625-.0625-2.07813.34375V-5.75l.75.10938c.20313.03125.26563.10937.26563.40625v4.4375c0 .34375-.09375.40625-.3125.42187l-.71875.0625Zm0 0"/><path id="h" d="m.48438 1.17188.23437.20312C1.1875.9375 1.98438.26563 1.98438-.48437c0-.48438-.26563-.89063-.71875-.89063-.375 0-.5625.28125-.5625.51563 0 .34375.26562.51562.26562.92187 0 .39063-.1875.78125-.48437 1.10938m0 0"/><path id="i" d="M.28125-1.03125c0 .39063.5625 1.14063 2.0625 1.14063 1.42188 0 2.29688-.67188 2.29688-1.85938 0-1.29687-1.125-1.60937-1.57813-1.65625v-.04687c.51563-.09375 1.3125-.45313 1.3125-1.35938 0-1.15625-.96875-1.54687-1.95312-1.54687C1.25-6.35937.5-5.71875.5-5.1875c0 .34375.40625.51563.57813.51563.17187 0 .25-.09375.3125-.25.20312-.67188.51562-1.0625 1-1.0625.65625 0 .79687.67187.79687 1.14062 0 .45313-.125 1.25-.875 1.25-.40625 0-.6875-.10937-.84375-.10937-.17187 0-.21875.10937-.21875.3125 0 .1875.04688.3125.21875.3125.15625 0 .4375-.10938.84375-.10938.65625 0 1.10938.5 1.10938 1.46875 0 1.03125-.45313 1.45313-1.0625 1.45313-.53125 0-.89063-.39063-1.10938-1.0625-.0625-.1875-.17187-.28126-.34375-.28126-.25 0-.625.20313-.625.57813m0 0"/><path id="l" d="M.79688-2.29687h2.23437V-.0625h.6875v-2.23437H5.9375v-.6875H3.71875v-2.23438h-.6875v2.23438H.79688Zm0 0"/><path id="m" d="M.5625-.8125c0 .40625.51563.92188 1.53125.92188 1.14063 0 1.70313-.67188 1.70313-1.4375 0-.54688-.32813-.98438-.85938-1.40625-.54687-.4375-.71875-.75-.71875-1.04688 0-.28125.21875-.53125.51563-.53125.28125 0 .5.1875.73437.65625.0625.15625.14063.21875.29688.21875.21875 0 .53125-.17187.53125-.5 0-.29687-.39063-.76562-1.32813-.76562-1.04687 0-1.59375.6875-1.59375 1.4375 0 .51562.39063.95312.82813 1.3125.39062.3125.71875.70312.71875 1.09375 0 .35937-.25.59375-.59375.59375-.3125 0-.60938-.23438-.85938-.82813-.0625-.17187-.17187-.28125-.35937-.28125-.26563 0-.54688.26563-.54688.5625m0 0"/><path id="n" d="M.73438-2.3125H6v-.65625H.73438Zm0 0"/><path id="j" d="M1.42188 0H5.8125v-.40625L4.76563-.5c-.29688-.03125-.4375-.125-.4375-.60937v-7.73438L4.25-8.90625l-2.8125.46875v.35938l1.125.14062c.25.04688.34375.14063.34375.54688v6.28125c0 .48437-.125.57812-.4375.60937l-1.04687.09375Zm0 0"/><path id="k" d="M.54688-4.09375c0 2.78125.98437 4.25 3.07812 4.25 2.03125 0 3.0625-1.25 3.0625-2.96875 0-1.78125-1.125-2.75-2.51562-2.75-1 0-1.73438.64063-2.125 1.10938.01562-2.42188.65625-3.96875 1.85937-3.96875.57813 0 .98438.51562 1.1875 1.29687.0625.17188.1875.3125.40625.3125.3125 0 .76563-.23437.76563-.64062 0-.5625-.65625-1.45313-2.28125-1.45313-2.10938 0-3.4375 1.60938-3.4375 4.8125m1.5 1c0-.78125.5625-1.70312 1.59375-1.70312.8125 0 1.54687.71875 1.54687 2.20312 0 1.34375-.46875 2.26563-1.51562 2.26563-1.09375 0-1.625-1.23438-1.625-2.76563m0 0"/><path id="r" d="M.9375-9.29687c0 2.15625.95313 3.42187 2.9375 3.42187 2.01563 0 2.95313-1.26562 2.95313-3.42187 0-.96875-.09375-1.59375-.23438-1.95313h3.84375L3.42188-.04687l.67187.53125 8.23438-13.1875-.625-.39063-.45313.625c-.34375.48438-.70312.57813-1.34375.625H6.75c-.4375 0-.51562-.0625-.79687-.23437-.5-.39063-1.10938-.64063-2.07813-.64063-1.98437 0-2.9375 1.26563-2.9375 3.42188m1.39063 0c0-1.95313.625-2.82813 1.54687-2.82813.96875 0 1.57813.875 1.57813 2.82813C5.45313-7.5 4.875-6.46875 3.875-6.46875c-.96875 0-1.54687-1.03125-1.54687-2.82812m6.53125 6.09375c0 2.14062.9375 3.42187 2.92187 3.42187 2.01563 0 2.96875-1.28125 2.96875-3.42187 0-2.15625-.95312-3.42188-2.96875-3.42188-1.98437 0-2.92187 1.26563-2.92187 3.42188m1.375 0c0-1.95313.60937-2.82813 1.54687-2.82813.95313 0 1.57813.875 1.57813 2.82813 0 1.79687-.57813 2.82812-1.57813 2.82812-.96875 0-1.54687-1.03125-1.54687-2.82812m0 0"/><path id="s" d="M.92188-4.40625c0 2.78125 1.45312 4.625 3.92187 4.625 1.01563 0 1.85938-.45312 2.875-1.28125v.92188L7.89063 0h3.01562v-.53125C9.57813-.64062 9.51563-.67187 9.51563-1.625v-12.15625L9.375-13.875l-2.9375.45313v.48437l.70313.0625c.48437.0625.60937.15625.60937.875v3.0625c-.53125-.28125-1.21875-.45312-2.07812-.45312-1.53125 0-2.6875.5-3.46875 1.28125C1.40625-7.26562.92188-6.03125.92188-4.40625m1.9375-.21875c0-2.42187.89062-4.10937 2.79687-4.10937.875 0 1.59375.39062 1.92188 1.17187C7.75-7.25 7.75-6.96875 7.75-6.46875v3.28125c0 .42188 0 .73438-.125 1.0625-.375.96875-1.1875 1.34375-2.17187 1.34375-1.70313 0-2.59375-1.6875-2.59375-3.84375m0 0"/><path id="t" d="M.92188-4.51562c0 2.96875 1.26562 4.73437 4.3125 4.73437C7.3125.21875 8.375-.9375 8.875-2.40625l-.54687-.29687C7.79688-1.60937 7.09375-.73437 5.60938-.73437c-2.32813 0-2.78125-2.23438-2.75-4.1875h5.40625c.39062 0 .73437-.09375.73437-.71875 0-1.09375-.35937-3.75-3.78125-3.75-2.92187 0-4.29687 2.0625-4.29687 4.875m1.96875-1.125c0-.76563.28125-3.09375 2.21875-3.09375 1.73437 0 1.9375 1.76562 1.9375 2.5 0 .35937-.125.59375-.64063.59375Zm0 0"/><path id="u" d="m.875-3.125.20313 2.45313c.67187.59375 1.8125.89062 2.90625.89062 2.21875 0 3.5-1.17187 3.5-2.76562 0-1.65625-1.01563-2.39063-2.95313-2.98438-.76562-.23437-1.98437-.64062-1.98437-1.6875 0-.98437.73437-1.51562 1.67187-1.51562 1.32813 0 1.96875 1.03125 2.10938 2.17187H6.875v-2.20312c-.625-.45313-1.57812-.625-2.42187-.625-2.03125 0-3.39063.95312-3.39063 2.71875 0 1.5625 1.26563 2.25 2.8125 2.73437.84375.25 2.01563.67188 2.01563 1.95313 0 .95312-.73438 1.54687-1.73438 1.54687-1.51562 0-2.35937-1.09375-2.75-2.6875Zm0 0"/><path id="v" d="M.5625-8.42187h1.45313V-1.625c0 .95313-.0625.98438-1.42188 1.09375V0h4.9375v-.53125c-1.70312-.07812-1.76562-.125-1.76562-1.07812v-6.8125h2.28125v-.75H3.76563l-.07813-2.09375c-.0625-1.76563.59375-1.96875.89063-1.96875.40625 0 .79687.17187 1.28125 1.26562.09375.1875.23437.32813.51562.32813.375 0 .90625-.32813.90625-.875 0-.625-.79687-1.35938-2.28125-1.35938-1.03125 0-1.89062.45313-2.375 1.17188-.4375.65625-.60937 1.64062-.60937 2.875v.65625H.5625Zm0 0"/><path id="w" d="M.59375 0h4.9375v-.53125C3.85938-.64062 3.76563-.67187 3.76563-1.625v-4.39062c0-1.42188.64062-1.92188 1.07812-1.92188.29688 0 .60938.10938 1.14063.40625.14062.09375.28125.10938.39062.10938.45313 0 .84375-.48438.84375-1.0625 0-.40625-.25-.90625-.98437-.90625C5.54688-9.39062 5-9 3.76563-7.90625l-.21875-1.48437-2.84375.46875v.46875l.6875.09375c.48437.07812.625.15625.625.82812V-1.625c0 .95313-.10938.98438-1.42188 1.09375Zm0 0"/><path id="x" d="m3.76563-10.51562.28125.39062L6.875-11.70312c.54688-.29688 1.04688-.625 1.04688-1.01563 0-.375-.45313-.8125-.73438-.8125-.3125 0-.64062.1875-1.20312.76563Zm-2.84375 6c0 2.96875 1.26562 4.73437 4.3125 4.73437C7.3125.21875 8.375-.9375 8.875-2.40625l-.54687-.29687C7.79688-1.60937 7.09375-.73437 5.60938-.73437c-2.32813 0-2.78125-2.23438-2.75-4.1875h5.40625c.39062 0 .73437-.09375.73437-.71875 0-1.09375-.35937-3.75-3.78125-3.75-2.92187 0-4.29687 2.0625-4.29687 4.875m1.96875-1.125c0-.76563.28125-3.09375 2.21875-3.09375 1.73437 0 1.9375 1.76562 1.9375 2.5 0 .35937-.125.59375-.64063.59375Zm0 0"/><path id="y" d="M.92188-4.35937c0 2.98437 1.625 4.57812 3.89062 4.57812C5.875.21875 6.76563-.28125 7.75-1v3.67188c0 .95312-.10937.98437-1.5 1.09375v.53125h4.65625v-.53125C9.60938 3.65625 9.51563 3.625 9.51563 2.67188v-12.0625H9l-.79687.57812c-.71875-.40625-1.67188-.57812-2.46875-.57812-1.5 0-2.6875.45312-3.5 1.28125-.82813.84375-1.3125 2.0625-1.3125 3.75m1.9375-.23438c0-2.3125.79687-4.14062 2.71875-4.14062.96875 0 1.67187.32812 2.03125 1.29687.10937.29688.14062.60938.14062 1.0625v3.17188c0 .42187 0 .73437-.125 1.03125-.35937 1-1.07812 1.39062-2.10937 1.39062-1.85938 0-2.65625-1.70312-2.65625-3.8125m0 0"/><path id="z" d="m.48438-8.45312.70312.09375c.48438.07812.60938.15625.60938.82812v4.9375c0 2.15625 1.26562 2.8125 2.65625 2.8125 1.59375 0 2.89062-1.07812 3.4375-1.32812L8.0625 0h3v-.53125C9.78125-.64062 9.65625-.67187 9.65625-1.625v-7.65625l-.14062-.10937-2.92188.46875v.46875l.71875.09375c.46875.07812.59375.15625.59375.82812v4.23438c0 .51562-.0625.92187-.15625 1.10937-.4375.85938-1.3125 1.40625-2.29687 1.40625-1.09375 0-1.89063-.6875-1.89063-2.14062v-6.35938l-.14062-.10937-2.9375.46875Zm0 0"/><path id="A" d="M.59375 0h4.5625v-.53125C3.82813-.64062 3.76563-.67187 3.76563-1.625v-4.39062c0-.46875.01562-.71875.17187-1.01563C4.34375-7.76562 5.17188-8.375 6.17188-8.375c1.26562 0 1.96875.6875 1.96875 2.32813V-1.625c0 .95313-.0625.98438-1.40625 1.09375V0h4.57812v-.53125C9.96875-.64062 9.89063-.67187 9.89063-1.625v-4.78125c0-1.89062-1.03125-2.98437-2.75-2.98437-1.39063 0-2.25.67187-3.39063 1.42187l-.26562-1.42187-2.78125.46875v.46875l.6875.09375c.48437.07812.625.15625.625.82812V-1.625c0 .95313-.0625.98438-1.42188 1.09375Zm0 0"/><path id="B" d="M.92188-4.5C.92188-1.375 2.45313.21875 5.25.21875c1.3125 0 3.09375-.67187 3.60938-2.6875l-.5625-.26562C7.71875-1.40625 6.98438-.75 5.60938-.75c-2.21875 0-2.75-2.32812-2.75-4.09375 0-2.78125 1.10937-3.89062 2.39062-3.89062.85938 0 1.40625.60937 1.78125 1.625.10938.29687.23438.48437.59375.48437.375 0 1.09375-.25 1.09375-.95312 0-.85938-1.23437-1.8125-3.26562-1.8125C2.04688-9.39062.92188-6.98437.92188-4.5m0 0"/></defs><path fill="#FFF" stroke="#FFF" stroke-miterlimit="10" stroke-width=".39818" d="M33.44531 226.78906V.19523h572.14475v226.59383Zm0 0"/><path fill="#E5F2F2" stroke="#E5F2F2" stroke-miterlimit="10" stroke-width=".39818" d="M33.44531 206.4375v-91.4766h572.14475v91.4766Zm0 0"/><path fill="none" stroke="#000" stroke-miterlimit="10" stroke-width=".39818" d="M33.44531 226.78906V.19523h572.14475v226.59383Zm0 0"/><use xlink:href="#a" x="36.51091" y="173.36379"/><use xlink:href="#a" x="42.17636" y="116.72127"/><use xlink:href="#a" x="47.84181" y="173.36379"/><use xlink:href="#a" x="53.50627" y="230.0143"/><use xlink:href="#a" x="59.17172" y="201.68904"/><use xlink:href="#a" x="64.83617" y="145.04653"/><use xlink:href="#a" x="70.50162" y="145.04653"/><use xlink:href="#a" x="76.16707" y="201.68904"/><use xlink:href="#a" x="81.83152" y="88.39602"/><use xlink:href="#a" x="87.49697" y="116.72127"/><use xlink:href="#a" x="93.16242" y="116.72127"/><use xlink:href="#a" x="98.82687" y="145.04653"/><use xlink:href="#a" x="104.49232" y="173.36379"/><use xlink:href="#a" x="110.15677" y="116.72127"/><use xlink:href="#a" x="115.82223" y="173.36379"/><use xlink:href="#a" x="121.48768" y="201.68904"/><use xlink:href="#a" x="127.15213" y="173.36379"/><use xlink:href="#a" x="132.81758" y="116.72127"/><use xlink:href="#a" x="138.48303" y="31.74451"/><use xlink:href="#a" x="144.14748" y="88.39602"/><use xlink:href="#a" x="149.81293" y="88.39602"/><use xlink:href="#a" x="155.47838" y="116.72127"/><use xlink:href="#a" x="161.14283" y="145.04653"/><use xlink:href="#a" x="166.80828" y="116.72127"/><use xlink:href="#a" x="172.47273" y="201.68904"/><use xlink:href="#a" x="178.13818" y="116.72127"/><use xlink:href="#a" x="183.80364" y="145.04653"/><use xlink:href="#a" x="189.46809" y="145.04653"/><use xlink:href="#a" x="195.13354" y="116.72127"/><use xlink:href="#a" x="200.79899" y="145.04653"/><use xlink:href="#a" x="206.46344" y="88.39602"/><use xlink:href="#a" x="212.12889" y="116.72127"/><use xlink:href="#a" x="217.79434" y="173.36379"/><use xlink:href="#a" x="223.45879" y="173.36379"/><use xlink:href="#a" x="229.12424" y="88.39602"/><use xlink:href="#a" x="234.78869" y="173.36379"/><use xlink:href="#a" x="240.45414" y="201.68904"/><use xlink:href="#a" x="246.1196" y="88.39602"/><use xlink:href="#a" x="251.78405" y="201.68904"/><use xlink:href="#a" x="257.4495" y="173.36379"/><use xlink:href="#a" x="263.11495" y="116.72127"/><use xlink:href="#a" x="268.7794" y="173.36379"/><use xlink:href="#a" x="274.44485" y="88.39602"/><use xlink:href="#a" x="280.1103" y="173.36379"/><use xlink:href="#a" x="285.77475" y="173.36379"/><use xlink:href="#a" x="291.4402" y="116.72127"/><use xlink:href="#a" x="297.10465" y="31.74451"/><use xlink:href="#a" x="302.7701" y="88.39602"/><use xlink:href="#a" x="308.43555" y="145.04653"/><use xlink:href="#a" x="314.10001" y="145.04653"/><use xlink:href="#a" x="319.76546" y="88.39602"/><use xlink:href="#a" x="325.43091" y="230.0143"/><use xlink:href="#a" x="331.09536" y="116.72127"/><use xlink:href="#a" x="336.76081" y="145.04653"/><use xlink:href="#a" x="342.42626" y="116.72127"/><use xlink:href="#a" x="348.09071" y="116.72127"/><use xlink:href="#a" x="353.75616" y="116.72127"/><use xlink:href="#a" x="359.42061" y="173.36379"/><use xlink:href="#a" x="365.08606" y="116.72127"/><use xlink:href="#a" x="370.75151" y="173.36379"/><use xlink:href="#a" x="376.41597" y="88.39602"/><use xlink:href="#a" x="382.08141" y="31.74451"/><use xlink:href="#a" x="387.74687" y="60.07076"/><use xlink:href="#a" x="393.41132" y="201.68904"/><use xlink:href="#a" x="399.07677" y="201.68904"/><use xlink:href="#a" x="404.74222" y="145.04653"/><use xlink:href="#a" x="410.40667" y="145.04653"/><use xlink:href="#a" x="416.07212" y="173.36379"/><use xlink:href="#a" x="421.73657" y="201.68904"/><use xlink:href="#a" x="427.40202" y="116.72127"/><use xlink:href="#a" x="433.06747" y="88.39602"/><use xlink:href="#a" x="438.73192" y="173.36379"/><use xlink:href="#a" x="444.39738" y="173.36379"/><use xlink:href="#a" x="450.06282" y="116.72127"/><use xlink:href="#a" x="455.72728" y="88.39602"/><use xlink:href="#a" x="461.39273" y="173.36379"/><use xlink:href="#a" x="467.05818" y="145.04653"/><use xlink:href="#a" x="472.72263" y="88.39602"/><use xlink:href="#a" x="478.38808" y="31.74451"/><use xlink:href="#a" x="484.05253" y="145.04653"/><use xlink:href="#a" x="489.71798" y="145.04653"/><use xlink:href="#a" x="495.38343" y="116.72127"/><use xlink:href="#a" x="501.04788" y="173.36379"/><use xlink:href="#a" x="506.71333" y="116.72127"/><use xlink:href="#a" x="512.37878" y="201.68904"/><use xlink:href="#a" x="518.04324" y="88.39602"/><use xlink:href="#a" x="523.70869" y="145.04653"/><use xlink:href="#a" x="529.37314" y="60.07076"/><use xlink:href="#a" x="535.03859" y="88.39602"/><use xlink:href="#a" x="540.70404" y="173.36379"/><use xlink:href="#a" x="546.36849" y="173.36379"/><use xlink:href="#a" x="552.03394" y="116.72127"/><use xlink:href="#a" x="557.69939" y="116.72127"/><use xlink:href="#a" x="563.36384" y="145.04653"/><use xlink:href="#a" x="569.02929" y="116.72127"/><use xlink:href="#a" x="574.69474" y="145.04653"/><use xlink:href="#a" x="580.35919" y="88.39602"/><use xlink:href="#a" x="586.02465" y="173.36379"/><use xlink:href="#a" x="591.6891" y="116.72127"/><use xlink:href="#a" x="597.35455" y="116.72127"/><path fill="none" stroke="#000" stroke-miterlimit="10" stroke-width=".39818" d="M39.10938 221.125v11.32813"/><use xlink:href="#b" x="36.54589" y="245.84858"/><path fill="none" stroke="#000" stroke-miterlimit="10" stroke-width=".39818" d="M146.74223 221.125v11.32813"/><use xlink:href="#c" x="141.61252" y="245.84858"/><use xlink:href="#b" x="146.73916" y="245.84858"/><path fill="none" stroke="#000" stroke-miterlimit="10" stroke-width=".39818" d="M260.03524 221.125v11.32813"/><use xlink:href="#d" x="254.90754" y="245.84858"/><use xlink:href="#b" x="260.03418" y="245.84858"/><path fill="none" stroke="#000" stroke-miterlimit="10" stroke-width=".39818" d="M373.33216 221.125v11.32813"/><use xlink:href="#e" x="368.20156" y="245.84858"/><use xlink:href="#b" x="373.3282" y="245.84858"/><path fill="none" stroke="#000" stroke-miterlimit="10" stroke-width=".39818" d="M486.62907 221.125v11.32813"/><use xlink:href="#f" x="481.49658" y="245.84858"/><use xlink:href="#b" x="486.62323" y="245.84858"/><path fill="none" stroke="#000" stroke-miterlimit="10" stroke-width=".39818" d="M599.926 221.125v11.32813"/><use xlink:href="#g" x="592.22866" y="245.84858"/><use xlink:href="#b" x="597.35531" y="245.84858"/><use xlink:href="#b" x="602.48195" y="245.84858"/><path fill="none" stroke="#000" stroke-miterlimit="10" stroke-width=".39818" d="M39.10938 170.1406H27.77734"/><use xlink:href="#b" x="6.77779" y="172.63537"/><use xlink:href="#h" x="11.90443" y="172.63537"/><use xlink:href="#g" x="15.61752" y="172.63537"/><path fill="none" stroke="#000" stroke-miterlimit="10" stroke-width=".39818" d="M39.10938 113.49215H27.77734"/><use xlink:href="#b" x="6.77779" y="115.98786"/><use xlink:href="#h" x="11.90443" y="115.98786"/><use xlink:href="#c" x="15.61752" y="115.98786"/><path fill="none" stroke="#000" stroke-miterlimit="10" stroke-width=".39818" d="M39.10938 56.84369H27.77734"/><use xlink:href="#b" x="6.77779" y="59.34035"/><use xlink:href="#h" x="11.90443" y="59.34035"/><use xlink:href="#i" x="15.61752" y="59.34035"/><path fill="none" stroke="#000" stroke-miterlimit="10" stroke-width=".39818" d="M599.926 160.6992h11.32812"/><use xlink:href="#j" x="620.66982" y="157.57047"/><path fill="none" stroke="#000" stroke-miterlimit="10" stroke-width="1.09512" d="M620.66797 160.29688h7.0664"/><use xlink:href="#k" x="620.66982" y="172.58241"/><path fill="none" stroke="#000" stroke-miterlimit="10" stroke-width=".39818" d="M599.926 114.9609h11.32812"/><use xlink:href="#g" x="620.66982" y="113.8156"/><path fill="none" stroke="#000" stroke-miterlimit="10" stroke-width=".54756" d="M620.66797 115.17969h5.1289"/><use xlink:href="#e" x="620.66982" y="122.36274"/><use xlink:href="#l" x="629.56868" y="117.81839"/><use xlink:href="#m" x="637.67176" y="117.81839"/><path fill="none" stroke="#000" stroke-miterlimit="10" stroke-width=".39818" d="M599.926 206.4375h11.32812"/><use xlink:href="#g" x="620.66982" y="205.29015"/><path fill="none" stroke="#000" stroke-miterlimit="10" stroke-width=".54756" d="M620.66797 206.65234h5.1289"/><use xlink:href="#e" x="620.66982" y="213.83529"/><use xlink:href="#n" x="629.56868" y="209.29094"/><use xlink:href="#m" x="637.67176" y="209.29094"/><path fill="none" stroke="#000" stroke-miterlimit="10" stroke-width=".39818" d="M656.57445 56.84369c-55.39065 0-65.32815 57.27736-109.33207 82.68362"/><path stroke="#000" stroke-miterlimit="10" stroke-width=".39817" d="M543.92188 141.44531c.47265-.125 2.62109-.53906 4.1328-.51172l-1.625-2.8125c-.73046 1.32032-2.16405 2.98047-2.5078 3.32422Zm0 0"/><use xlink:href="#o" x="663.59935" y="61.63451"/><use xlink:href="#p" x="680.92044" y="61.63451"/><use xlink:href="#q" x="690.83526" y="61.63451"/><use xlink:href="#r" x="704.96014" y="61.63451"/><use xlink:href="#s" x="724.82961" y="61.63451"/><use xlink:href="#t" x="736.01864" y="61.63451"/><use xlink:href="#u" x="745.63482" y="61.63451"/><use xlink:href="#v" x="757.97858" y="61.63451"/><use xlink:href="#w" x="763.93146" y="61.63451"/><use xlink:href="#x" x="771.19835" y="61.63451"/><use xlink:href="#y" x="780.81454" y="61.63451"/><use xlink:href="#z" x="791.8642" y="61.63451"/><use xlink:href="#t" x="803.19259" y="61.63451"/><use xlink:href="#A" x="812.80878" y="61.63451"/><use xlink:href="#B" x="824.37608" y="61.63451"/><use xlink:href="#t" x="833.65381" y="61.63451"/><use xlink:href="#u" x="843.26999" y="61.63451"/></svg>