<svg xmlns="http://www.w3.org/2000/svg" xmlns:xlink="http://www.w3.org/1999/xlink" width="536.622pt" height="164.443pt" viewBox="0 0 536.622 164.443"><defs><path id="k" d="M.23438-1.95312c0 1.125.34375 2.01562 1.35937 2.01562 1.03125 0 1.375-.89062 1.375-2.01562s-.34375-2.01563-1.375-2.01563c-1.01562 0-1.35937.89063-1.35937 2.01563m.73437 0c0-.8125.10938-1.78125.625-1.78125.53125 0 .64063.96875.64063 1.78125 0 .82812-.10938 1.79687-.64063 1.79687-.51562 0-.625-.96875-.625-1.79687m0 0"/><path id="l" d="M.1875-.07812.25 0h2.51563l.21875-.875-.1875-.03125c-.14063.29688-.23438.34375-.48438.34375H.84375c.09375-.25.35938-.64062.95313-1 .60937-.39062 1.01562-.67187 1.01562-1.29687 0-.8125-.54687-1.10938-1.21875-1.10938-.78125 0-1.28125.4375-1.28125.84375 0 .21875.26563.32813.40625.32813.10938 0 .17188-.0625.20313-.1875.09374-.4375.29687-.75.625-.75.375 0 .51562.32812.51562.75 0 .51562-.21875.90625-.78125 1.39062C.51563-.9375.25-.5.1875-.07812m0 0"/><path id="m" d="m.125-1.17187.07813.14062H1.75v.59375c0 .17188-.0625.20313-.1875.21875l-.375.03125V0h1.64063v-.1875L2.5625-.21875c-.125-.01562-.15625-.04687-.15625-.21875v-.59375h.57813v-.32812h-.57813v-2.53125h-.5625C1.26563-3.04687.65625-2.07812.125-1.17187m.5-.1875C.95313-1.95312 1.32813-2.59375 1.75-3.25v1.89063Zm0 0"/><path id="n" d="M.23438-1.84375C.23438-.625.65625.0625 1.64063.0625c.9375 0 1.39062-.57812 1.39062-1.32812 0-.8125-.51562-1.21875-1.14062-1.21875-.42188 0-.75.26562-.92188.5 0-.92188.23438-1.75.78125-1.75.25 0 .42188.23437.51563.59375C2.29688-3.0625 2.35938-3 2.46875-3c.14063 0 .375-.10937.375-.29687 0-.26563-.32812-.67188-1.0625-.67188-.95312 0-1.54687.71875-1.54687 2.125m.73437.46875c0-.34375.23438-.73437.65625-.73437.35938 0 .67188.29687.67188.96875 0 .5625-.1875.98437-.64063.98437-.46875 0-.6875-.54687-.6875-1.21875m0 0"/><path id="o" d="M.21875-1.07812c0 .71875.51563 1.14062 1.375 1.14062.875 0 1.39063-.42187 1.39063-1.14062 0-.5625-.34375-.90625-.78125-1.03125.34375-.09375.64062-.375.64062-.84375 0-.65625-.5-1.01563-1.25-1.01563-.73437 0-1.23437.375-1.23437 1.01563 0 .46875.29687.75.64062.84375-.42187.125-.78125.46875-.78125 1.03125m.73438.01562c0-.5.21874-.89062.64062-.89062s.64063.39062.64063.89062c0 .51563-.20313.90625-.64063.90625-.42187 0-.64062-.39062-.64062-.90625m.09374-1.90625c0-.4375.20313-.76562.54688-.76562.35938 0 .54688.32812.54688.76562 0 .40625-.17188.76563-.54688.76563-.35937 0-.54687-.35938-.54687-.76563m0 0"/><path id="p" d="M.625 0h2v-.1875l-.45312-.04687c-.125 0-.1875-.04688-.1875-.26563v-3.42187l-.04688-.04688L.64063-3.75v.17188l.46875.0625c.125.01562.17187.0625.17187.25V-.5c0 .21875-.0625.26563-.20312.26563L.625-.1875Zm0 0"/><path id="q" d="m.29688.73438.15625.125c.28125-.28126.78125-.70313.78125-1.15625 0-.3125-.17188-.5625-.45313-.5625-.23437 0-.34375.17187-.34375.32812 0 .20313.17188.32813.17188.5625 0 .25-.125.5-.3125.70313m0 0"/><path id="r" d="M.17188-.64062c0 .23437.35937.70312 1.28125.70312.89062 0 1.4375-.40625 1.4375-1.15625 0-.79687-.70313-1-.98438-1.03125v-.03125c.32813-.0625.82813-.28125.82813-.84375 0-.71875-.60938-.96875-1.21875-.96875-.73438 0-1.20313.40625-1.20313.73438 0 .21875.25.3125.35938.3125s.15624-.04688.1875-.15625c.14062-.40625.32812-.65625.625-.65625.40625 0 .5.42187.5.71875 0 .28125-.07813.78125-.53125.78125-.26563 0-.4375-.07813-.54688-.07813-.09375 0-.125.07813-.125.20313 0 .10937.03125.1875.125.1875.10938 0 .28125-.0625.54688-.0625.39062 0 .6875.3125.6875.90625 0 .65625-.28125.92187-.67188.92187-.32812 0-.5625-.25-.6875-.67187C.73438-.9375.67188-1 .5625-1c-.15625 0-.39062.125-.39062.35938m0 0"/><path id="u" d="M.5-1.4375h1.39063v1.39063h.42187V-1.4375h1.39063v-.42187H2.3125V-3.25h-.42187v1.39063H.5Zm0 0"/><path id="v" d="M.35938-.5c0 .25.3125.5625.95312.5625.70313 0 1.04688-.40625 1.04688-.89062 0-.34375-.1875-.60938-.53125-.875-.34375-.26563-.4375-.46875-.4375-.65625 0-.17188.125-.32813.3125-.32813.17187 0 .3125.125.45312.40625.04688.09375.09375.14063.1875.14063.14063 0 .32813-.10938.32813-.3125 0-.1875-.23438-.46875-.8125-.46875-.65625 0-1 .42187-1 .89062 0 .3125.23437.57813.51562.8125.25.1875.45313.4375.45313.67188 0 .23437-.17188.39062-.375.39062-.20313 0-.39063-.15625-.53125-.53125C.875-.78125.8125-.85937.6875-.85937.51563-.85937.35938-.6875.35938-.5m0 0"/><path id="w" d="M.45313-1.4375h3.28125v-.42187H.45313Zm0 0"/><path id="s" d="M.89063 0H3.625v-.25l-.65625-.0625c-.1875-.01562-.26562-.07812-.26562-.375v-4.82812l-.04688-.03125L.89063-5.25v.21875l.70312.09375c.15625.01563.21875.07813.21875.32813V-.6875c0 .29688-.07812.35938-.28125.375L.89063-.25Zm0 0"/><path id="t" d="M.34375-2.54687C.34375-.8125.95313.09375 2.26563.09375c1.26562 0 1.90625-.76562 1.90625-1.84375 0-1.10937-.70313-1.71875-1.57813-1.71875-.60937 0-1.07812.40625-1.3125.70313 0-1.51563.40625-2.48438 1.15625-2.48438.35938 0 .60938.32813.73438.8125.04687.10938.125.1875.26562.1875.1875 0 .46875-.14062.46875-.39062 0-.35938-.40625-.90625-1.42187-.90625-1.3125 0-2.14063 1-2.14063 3m.9375.625c0-.5.34375-1.0625.98438-1.0625.5 0 .96875.4375.96875 1.375 0 .82812-.29688 1.40625-.95313 1.40625-.67187 0-1-.76563-1-1.71875m0 0"/><path id="x" d="m1-1.23437.28125.125c.25-.54688.57813-1.0625.98438-1.0625.78125 0 2.71875 1.14062 3.85937 1.14062 1.01563 0 1.23438-1.125 1.3125-1.73437l-.29687-.15625c-.21875.5625-.54688 1.10937-.96875 1.10937-.84375 0-2.84375-1.17187-3.96875-1.17187-.60938 0-1.14063 1.14062-1.20313 1.75M1-3.8125l.28125.14063c.25-.5625.57813-1.0625.98438-1.0625.78125 0 2.71875 1.14062 3.85937 1.14062 1.01563 0 1.23438-1.14062 1.3125-1.73437l-.29687-.15625c-.21875.5625-.54688 1.10937-.96875 1.10937-.84375 0-2.84375-1.1875-3.96875-1.1875-.60938 0-1.14063 1.15625-1.20313 1.75m0 0"/><path id="y" d="M.51563-3.59375c0 2.51563.90625 3.73438 2.65625 3.73438C4.90625.14063 5.8125-.90625 5.8125-2.5c0-1.5625-.96875-2.42187-2.21875-2.42187-.90625 0-1.59375.60937-1.90625 1 .01563-2.5625.71875-3.59375 1.78125-3.59375.53125 0 .90625.4375 1.07813 1.10937.04687.14063.125.25.29687.25.26563 0 .625-.20312.625-.53125 0-.46875-.5625-1.23437-1.96875-1.23437C1.65625-7.92187.51563-6.5.51563-3.59375M1.6875-2.75c0-.71875.53125-1.57812 1.51563-1.57812.73437 0 1.45312.67187 1.45312 2.01562 0 1.21875-.46875 2.04688-1.45312 2.04688C2.1875-.26562 1.6875-1.35937 1.6875-2.75m0 0"/><path id="z" d="M.48438-2.125c0 1.1875.71875 2.26563 2.60937 2.26563 1.875 0 2.59375-1.07813 2.59375-2.26563S4.95313-4 4.15625-4.1875c.70313-.1875 1.28125-.79687 1.28125-1.75 0-1.26562-1.01562-1.98437-2.34375-1.98437C1.75-7.92187.75-7.20312.75-5.9375c0 .95313.59375 1.5625 1.28125 1.75C1.25-4 .48438-3.3125.48438-2.125m1.17187.04688c0-1.07813.5-1.85938 1.4375-1.85938.92188 0 1.4375.78125 1.4375 1.85938 0 1.03125-.46875 1.8125-1.4375 1.8125-.98437 0-1.4375-.78125-1.4375-1.8125M1.875-5.96875c0-.89062.42188-1.54687 1.21875-1.54687.79688 0 1.21875.65625 1.21875 1.54687 0 .79688-.375 1.60938-1.21875 1.60938S1.875-5.17187 1.875-5.96875m0 0"/><path id="A" d="M.57813-5.79687c0 1.34375.59375 2.14062 1.84375 2.14062S4.25-4.45312 4.25-5.79687c0-.60938-.0625-.98438-.14062-1.21875H6.5L2.14063-.03125l.42187.32813 5.10938-8.21875-.375-.23438-.28125.39063c-.21875.29687-.4375.35937-.84375.39062H4.20313c-.26563 0-.3125-.04687-.5-.15625-.29688-.23437-.6875-.39062-1.28125-.39062-1.25 0-1.84375.78125-1.84375 2.125m.875 0c0-1.21875.39062-1.76563.96875-1.76563.59375 0 .98437.54688.98437 1.76563 0 1.125-.35937 1.76562-.98437 1.76562-.60938 0-.96875-.64062-.96875-1.76562M5.51563-2c0 1.34375.59375 2.14063 1.82812 2.14063C8.59375.14063 9.1875-.65625 9.1875-2s-.59375-2.125-1.84375-2.125c-1.23437 0-1.82812.78125-1.82812 2.125M6.375-2c0-1.21875.39063-1.76562.96875-1.76562.59375 0 .98438.54687.98438 1.76562 0 1.125-.35938 1.76563-.98438 1.76563C6.73438-.23437 6.375-.875 6.375-2m0 0"/><path id="B" d="M.57813-2.73437c0 1.71875.89062 2.875 2.4375 2.875.625 0 1.17187-.29688 1.79687-.79688v.5625L4.90625 0h1.89063v-.32812c-.82813-.0625-.85938-.09375-.85938-.6875v-7.5625l-.09375-.0625L4-8.35937v.29687l.45313.03125c.29687.04688.375.10938.375.54688v1.90625C4.5-5.75 4.0625-5.85937 3.53125-5.85937c-.95312 0-1.67187.3125-2.15625.8125-.5.51562-.79687 1.28125-.79687 2.3125M1.78125-2.875c0-1.51562.54688-2.57812 1.73438-2.57812.54687 0 1 .25 1.21875.73437.09375.20313.09375.375.09375.6875v2.04688c0 .26562 0 .45312-.07813.65625-.23437.60937-.75.84375-1.34375.84375-1.07812 0-1.625-1.04688-1.625-2.39063m0 0"/><path id="C" d="M.57813-2.8125c0 1.84375.78125 2.95313 2.6875 2.95313 1.28125 0 1.95312-.71875 2.26562-1.64063l-.34375-.1875C4.85938-1 4.42188-.45312 3.5-.45312c-1.45312 0-1.73437-1.39063-1.71875-2.60938h3.375c.23438 0 .45313-.0625.45313-.45312 0-.67188-.21875-2.34375-2.35938-2.34375-1.82812 0-2.67187 1.29687-2.67187 3.04687m1.21875-.70312c0-.48438.17187-1.9375 1.39062-1.9375 1.07813 0 1.20313 1.10937 1.20313 1.5625 0 .23437-.07813.375-.39063.375Zm0 0"/><path id="D" d="m.54688-1.95312.125 1.53125c.42187.375 1.125.5625 1.8125.5625 1.39062 0 2.1875-.73438 2.1875-1.73438 0-1.03125-.64063-1.48437-1.84375-1.85937C2.34375-3.59375 1.59375-3.84375 1.59375-4.5c0-.60937.45313-.95312 1.03125-.95312.84375 0 1.23438.65625 1.3125 1.35937h.34375v-1.35937c-.39062-.29688-.98437-.40625-1.5-.40625-1.26562 0-2.125.59375-2.125 1.70312 0 .96875.79688 1.40625 1.76563 1.70313.51562.15625 1.25.42187 1.25 1.21875 0 .59375-.45313.96875-1.07813.96875-.9375 0-1.48437-.6875-1.71875-1.6875Zm0 0"/><path id="E" d="M.34375-5.25H1.25v4.23438c0 .59375-.03125.625-.875.6875V0h3.07813v-.32812C2.375-.39062 2.34375-.40625 2.34375-1v-4.25h1.42188v-.46875H2.34375l-.04687-1.29687C2.26563-8.125 2.67188-8.25 2.85938-8.25c.25 0 .48437.10938.78125.79688.0625.10937.15625.20312.32812.20312.23438 0 .57813-.20312.57813-.54687 0-.39063-.5-.84375-1.4375-.84375-.64063 0-1.17188.28125-1.46875.71875C1.35937-7.5 1.25-6.89062 1.25-6.125v.40625H.34375Zm0 0"/><path id="F" d="M.375 0h3.07813v-.32812c-1.04688-.0625-1.10938-.09375-1.10938-.6875V-3.75c0-.89062.39063-1.20312.67188-1.20312.1875 0 .39062.07812.71875.26562.09375.04688.17187.0625.23437.0625.28125 0 .53125-.29687.53125-.65625 0-.26562-.15625-.57812-.60937-.57812-.42188 0-.78125.25-1.54688.9375l-.14062-.9375L.4375-5.5625v.29688l.4375.0625c.29688.04687.375.09375.375.51562v3.67188c0 .59375-.0625.625-.875.6875Zm0 0"/><path id="G" d="m2.34375-6.54687.17188.23437 1.76562-.98437c.34375-.1875.65625-.375.65625-.625 0-.23438-.28125-.51563-.45312-.51563-.20313 0-.40625.125-.75.48438ZM.57813-2.8125c0 1.84375.78125 2.95313 2.6875 2.95313 1.28125 0 1.95312-.71875 2.26562-1.64063l-.34375-.1875C4.85938-1 4.42188-.45312 3.5-.45312c-1.45312 0-1.73437-1.39063-1.71875-2.60938h3.375c.23438 0 .45313-.0625.45313-.45312 0-.67188-.21875-2.34375-2.35938-2.34375-1.82812 0-2.67187 1.29687-2.67187 3.04687m1.21875-.70312c0-.48438.17187-1.9375 1.39062-1.9375 1.07813 0 1.20313 1.10937 1.20313 1.5625 0 .23437-.07813.375-.39063.375Zm0 0"/><path id="H" d="M.57813-2.71875C.57813-.85937 1.59375.14063 3 .14063c.65625 0 1.21875-.3125 1.82813-.76563v2.28125c0 .60938-.0625.625-.9375.6875v.34375h2.90625v-.34375C6 2.28125 5.9375 2.26563 5.9375 1.65625v-7.51562h-.32812l-.5.35937c-.4375-.25-1.04688-.35937-1.53125-.35937-.9375 0-1.6875.28125-2.1875.8125-.51563.51562-.8125 1.28125-.8125 2.32812m1.20312-.14062c0-1.45313.5-2.59375 1.6875-2.59375.60938 0 1.04688.21875 1.26563.8125.07812.1875.09375.39062.09375.67187V-2c0 .26563 0 .46875-.07813.64063-.21875.625-.67187.875-1.3125.875-1.15625 0-1.65625-1.0625-1.65625-2.375m0 0"/><path id="I" d="m.29688-5.26562.45312.0625c.29688.04687.35938.09375.35938.51562v3.07813c0 1.34375.79687 1.75 1.67187 1.75.98438 0 1.79688-.67188 2.125-.82813l.125.6875h1.85938v-.32812c-.79688-.0625-.875-.09375-.875-.6875v-4.76563l-.07813-.07812-1.82812.29687v.29688l.4375.0625c.29687.04687.375.09375.375.51562v2.625c0 .32813-.03125.59375-.09375.70313-.28125.53125-.82813.875-1.42188.875-.6875 0-1.1875-.4375-1.1875-1.34375v-3.95313l-.07812-.07812-1.84375.29687Zm0 0"/><path id="J" d="M.375 0h2.84375v-.32812c-.84375-.0625-.875-.09375-.875-.6875V-3.75c0-.29687.01563-.4375.10938-.625.25-.46875.76562-.84375 1.39062-.84375.79688 0 1.23438.4375 1.23438 1.45313v2.75c0 .59375-.04688.625-.89063.6875V0h2.85938v-.32812c-.82813-.0625-.875-.09375-.875-.6875V-4c0-1.17187-.65625-1.85937-1.71875-1.85937-.875 0-1.40625.42187-2.125.89062l-.15625-.89062L.4375-5.5625v.29688l.4375.0625c.29688.04687.375.09375.375.51562v3.67188c0 .59375-.03125.625-.875.6875Zm0 0"/><path id="K" d="M.57813-2.79687c0 1.9375.95312 2.9375 2.70312 2.9375.8125 0 1.92188-.42188 2.23438-1.67188l-.34375-.17187C4.8125-.875 4.35938-.46875 3.5-.46875c-1.39062 0-1.71875-1.45312-1.71875-2.54687 0-1.73438.6875-2.4375 1.5-2.4375.53125 0 .85938.39062 1.09375 1.03125.07813.17187.15625.29687.375.29687.23438 0 .6875-.15625.6875-.60937 0-.53125-.76562-1.125-2.03125-1.125-2.125 0-2.82812 1.5-2.82812 3.0625m0 0"/><clipPath id="a"><path d="M21.47656 105H32v15H21.47656Zm0 0"/></clipPath><clipPath id="b"><path d="M21.47656 70H36v15H21.47656Zm0 0"/></clipPath><clipPath id="c"><path d="M34 146h3v1.80078h-3Zm0 0"/></clipPath><clipPath id="d"><path d="M28 140h15v7.80078H28Zm0 0"/></clipPath><clipPath id="e"><path d="M203 146h4v1.80078h-4Zm0 0"/></clipPath><clipPath id="f"><path d="M198 140h14v7.80078h-14Zm0 0"/></clipPath><clipPath id="g"><path d="M360 105h14.61719v15H360Zm0 0"/></clipPath><clipPath id="h"><path d="M364 70h10.61719v15H364Zm0 0"/></clipPath><clipPath id="i"><path d="M373 75h1.61719v4H373Zm0 0"/></clipPath><clipPath id="j"><path d="M367 70h7.61719v15H367Zm0 0"/></clipPath></defs><path fill="#FFF" stroke="#FFF" stroke-miterlimit="10" stroke-width=".39715" d="M21.47656 147.80078V6.54691H374.6171v141.25387Zm0 0"/><path fill="#E5F2F2" stroke="#E5F2F2" stroke-miterlimit="10" stroke-width=".39715" d="M21.47656 135.11328V78.08986H374.6171v57.02342Zm0 0"/><path fill="none" stroke="#000" stroke-miterlimit="10" stroke-width=".39715" d="M21.47656 147.80078V6.54691H374.6171v141.25387Zm0 0"/><path fill="none" stroke="#EC008C" stroke-dasharray="2.9787277546 2.9787277546" stroke-miterlimit="10" stroke-width="1.19149" d="M21.47656 106.60157H374.6171"/><path d="M26.25 112.48438c0-.6836-.55469-1.23829-1.24219-1.23829-.6836 0-1.23828.5547-1.23828 1.23829 0 .6875.55469 1.24218 1.23828 1.24218.6875 0 1.24219-.55469 1.24219-1.24219m0 0"/><g clip-path="url(#a)"><path fill="none" stroke="#000" stroke-miterlimit="10" stroke-width=".39715" d="M26.25 112.48438c0-.68359-.55469-1.23828-1.24219-1.23828-.6836 0-1.23828.55469-1.23828 1.23828 0 .6875.55469 1.24219 1.23828 1.24219.6875 0 1.24219-.55469 1.24219-1.24219Zm0 0"/></g><path d="M29.78125 77.17578c0-.6875-.55469-1.24219-1.24219-1.24219-.6836 0-1.23828.5547-1.23828 1.2422 0 .68358.55469 1.23827 1.23828 1.23827.6875 0 1.24219-.55469 1.24219-1.23828m0 0"/><g clip-path="url(#b)"><path fill="none" stroke="#000" stroke-miterlimit="10" stroke-width=".39715" d="M29.78125 77.1758c0-.6875-.55469-1.24219-1.24219-1.24219-.6836 0-1.23828.55469-1.23828 1.24219 0 .6836.55469 1.23828 1.23828 1.23828.6875 0 1.24219-.55469 1.24219-1.23828Zm0 0"/></g><path stroke="#000" stroke-miterlimit="10" stroke-width=".39715" d="M33.3125 112.48438c0-.68359-.55469-1.23828-1.24219-1.23828-.6836 0-1.23828.55469-1.23828 1.23828 0 .6875.55469 1.24219 1.23828 1.24219.6875 0 1.24219-.55469 1.24219-1.24219Zm0 0"/><g clip-path="url(#c)"><path d="M36.84375 147.80078c0-.6836-.55469-1.24219-1.23828-1.24219-.6875 0-1.24219.5586-1.24219 1.2422 0 .6875.55469 1.24218 1.24219 1.24218.6836 0 1.23828-.55469 1.23828-1.24219m0 0"/></g><g clip-path="url(#d)"><path fill="none" stroke="#000" stroke-miterlimit="10" stroke-width=".39715" d="M36.84375 147.80078c0-.6836-.55469-1.24219-1.23828-1.24219-.6875 0-1.2422.5586-1.2422 1.2422 0 .6875.5547 1.24218 1.2422 1.24218.68359 0 1.23828-.55469 1.23828-1.24219Zm0 0"/></g><path stroke="#000" stroke-miterlimit="10" stroke-width=".39715" d="M40.375 130.14454c0-.6875-.5547-1.2422-1.23829-1.2422-.6875 0-1.24218.5547-1.24218 1.2422 0 .68359.55469 1.23828 1.24218 1.23828.6836 0 1.23829-.5547 1.23829-1.23828Zm3.53124-35.3125c0-.68359-.55468-1.24218-1.23828-1.24218-.6875 0-1.24218.55859-1.24218 1.24218 0 .6875.55468 1.2422 1.24218 1.2422.6836 0 1.23828-.5547 1.23828-1.2422Zm3.53126 0c0-.68359-.5547-1.24218-1.23829-1.24218-.6875 0-1.24218.55859-1.24218 1.24218 0 .6875.55468 1.2422 1.24218 1.2422.6836 0 1.23828-.5547 1.23828-1.2422Zm3.53124 35.3125c0-.6875-.55468-1.2422-1.23828-1.2422-.6875 0-1.24218.5547-1.24218 1.2422 0 .68359.55468 1.23828 1.24218 1.23828.6836 0 1.23828-.5547 1.23828-1.23828ZM54.5 59.51565c0-.6836-.5547-1.23829-1.23829-1.23829-.6875 0-1.24219.5547-1.24219 1.23829 0 .6875.5547 1.24218 1.2422 1.24218.68359 0 1.23827-.55468 1.23827-1.24218Zm3.53124 17.66015c0-.6875-.55469-1.24219-1.23828-1.24219-.6875 0-1.24219.55469-1.24219 1.24219 0 .6836.5547 1.23828 1.2422 1.23828.68358 0 1.23827-.55469 1.23827-1.23828Zm3.53516 0c0-.6875-.5586-1.24219-1.24219-1.24219-.6875 0-1.24219.55469-1.24219 1.24219 0 .6836.55469 1.23828 1.24219 1.23828.6836 0 1.24219-.55469 1.24219-1.23828Zm3.53125 17.65624c0-.68359-.5586-1.24218-1.2422-1.24218-.6875 0-1.24218.55859-1.24218 1.24218 0 .6875.55469 1.2422 1.24219 1.2422.6836 0 1.24219-.5547 1.24219-1.2422Zm3.53125 17.65234c0-.68359-.5586-1.23828-1.2422-1.23828-.6875 0-1.24218.55469-1.24218 1.23828 0 .6875.55469 1.24219 1.24219 1.24219.6836 0 1.24219-.55469 1.24219-1.24219Zm3.53124-35.30858c0-.6875-.55859-1.24219-1.24218-1.24219-.6875 0-1.24219.55469-1.24219 1.24219 0 .6836.55469 1.23828 1.24219 1.23828.6836 0 1.24218-.55469 1.24218-1.23828Zm3.53126 35.30858c0-.68359-.5586-1.23828-1.2422-1.23828-.6875 0-1.24218.55469-1.24218 1.23828 0 .6875.55469 1.24219 1.24219 1.24219.68359 0 1.24218-.55469 1.24218-1.24219Zm3.53124 17.66016c0-.6875-.5586-1.2422-1.24218-1.2422-.6875 0-1.2422.5547-1.2422 1.2422 0 .68359.5547 1.23828 1.2422 1.23828.68359 0 1.24218-.5547 1.24218-1.23828Zm3.53126-17.66016c0-.68359-.5586-1.23828-1.2422-1.23828s-1.24218.55469-1.24218 1.23828c0 .6875.5586 1.24219 1.24218 1.24219.6836 0 1.2422-.55469 1.2422-1.24219Zm3.53124-35.30858c0-.6875-.55469-1.24219-1.24219-1.24219-.68359 0-1.24218.55469-1.24218 1.24219 0 .6836.5586 1.23828 1.24218 1.23828.6875 0 1.2422-.55469 1.2422-1.23828Zm3.53125-52.97655c0-.6836-.55469-1.23828-1.24219-1.23828-.68359 0-1.24218.55468-1.24218 1.23828 0 .6875.55859 1.24219 1.24218 1.24219.6875 0 1.24219-.5547 1.24219-1.2422Zm3.53125 35.3164c0-.6836-.55469-1.23829-1.24219-1.23829-.6836 0-1.24218.5547-1.24218 1.23829 0 .6875.55859 1.24218 1.24218 1.24218.6875 0 1.24219-.55468 1.24219-1.24218Zm3.53125 0c0-.6836-.55469-1.23829-1.24219-1.23829-.6836 0-1.24219.5547-1.24219 1.23829 0 .6875.5586 1.24218 1.2422 1.24218.6875 0 1.24218-.55468 1.24218-1.24218Zm3.53125 17.66015c0-.6875-.55469-1.24219-1.24219-1.24219-.6836 0-1.24219.55469-1.24219 1.24219 0 .6836.5586 1.23828 1.2422 1.23828.6875 0 1.24218-.55469 1.24218-1.23828Zm3.53125 17.65624c0-.68359-.55469-1.24218-1.24219-1.24218-.6836 0-1.24219.55859-1.24219 1.24218 0 .6875.5586 1.2422 1.24219 1.2422.6875 0 1.24219-.5547 1.24219-1.2422Zm3.53125-17.65624c0-.6875-.5547-1.24219-1.2422-1.24219-.68358 0-1.23827.55469-1.23827 1.24219 0 .6836.55469 1.23828 1.23828 1.23828.6875 0 1.24219-.55469 1.24219-1.23828Zm3.53125 52.96874c0-.6875-.5547-1.2422-1.2422-1.2422-.68359 0-1.23827.5547-1.23827 1.2422 0 .68359.55468 1.23828 1.23828 1.23828.6875 0 1.24219-.5547 1.24219-1.23828Zm3.53124-52.96874c0-.6875-.55468-1.24219-1.24218-1.24219-.6836 0-1.23828.55469-1.23828 1.24219 0 .6836.55468 1.23828 1.23828 1.23828.6875 0 1.24218-.55469 1.24218-1.23828Zm3.53125 17.65624c0-.68359-.55468-1.24218-1.24218-1.24218-.6836 0-1.23829.55859-1.23829 1.24218 0 .6875.5547 1.2422 1.23829 1.2422.6875 0 1.24218-.5547 1.24218-1.2422Zm3.53125 0c0-.68359-.55468-1.24218-1.24218-1.24218-.6836 0-1.23829.55859-1.23829 1.24218 0 .6875.5547 1.2422 1.23829 1.2422.6875 0 1.24218-.5547 1.24218-1.2422Zm3.53125-17.65624c0-.6875-.55469-1.24219-1.24219-1.24219-.68359 0-1.23828.55469-1.23828 1.24219 0 .6836.5547 1.23828 1.23828 1.23828.6875 0 1.2422-.55469 1.2422-1.23828Zm3.53125 17.65624c0-.68359-.55469-1.24218-1.24219-1.24218-.68359 0-1.23828.55859-1.23828 1.24218 0 .6875.55469 1.2422 1.23828 1.2422.6875 0 1.2422-.5547 1.2422-1.2422Zm3.53125-35.31639c0-.6836-.55469-1.23829-1.24219-1.23829-.6836 0-1.23828.5547-1.23828 1.23829 0 .6875.55469 1.24218 1.23828 1.24218.6875 0 1.24219-.55468 1.24219-1.24218Zm3.53125 17.66015c0-.6875-.55469-1.24219-1.23828-1.24219-.6875 0-1.24219.55469-1.24219 1.24219 0 .6836.55469 1.23828 1.24219 1.23828.6836 0 1.23828-.55469 1.23828-1.23828Zm3.53125 35.30858c0-.68359-.55469-1.23828-1.23828-1.23828-.6875 0-1.24219.55469-1.24219 1.23828 0 .6875.55469 1.24219 1.24219 1.24219.6836 0 1.23828-.55469 1.23828-1.24219Zm3.53125 0c0-.68359-.55469-1.23828-1.23828-1.23828-.6875 0-1.24219.55469-1.24219 1.23828 0 .6875.55469 1.24219 1.24219 1.24219.68359 0 1.23828-.55469 1.23828-1.24219Zm3.53125-52.96873c0-.6836-.5547-1.23829-1.23828-1.23829-.6875 0-1.2422.5547-1.2422 1.23829 0 .6875.5547 1.24218 1.2422 1.24218.68359 0 1.23828-.55468 1.23828-1.24218Zm3.53125 52.96873c0-.68359-.5547-1.23828-1.23829-1.23828-.6875 0-1.24218.55469-1.24218 1.23828 0 .6875.55468 1.24219 1.24218 1.24219.6836 0 1.23829-.55469 1.23829-1.24219Zm3.53124 17.66016c0-.6875-.55468-1.2422-1.23828-1.2422-.6875 0-1.24218.5547-1.24218 1.2422 0 .68359.55468 1.23828 1.24218 1.23828.6836 0 1.23828-.5547 1.23828-1.23828Zm3.53125-70.62889c0-.6836-.55468-1.23829-1.23828-1.23829-.6875 0-1.24218.5547-1.24218 1.23829 0 .6875.55468 1.24218 1.24218 1.24218.6836 0 1.23828-.55468 1.23828-1.24218Zm3.53516 70.62889c0-.6875-.5586-1.2422-1.24219-1.2422-.6875 0-1.24218.5547-1.24218 1.2422 0 .68359.55468 1.23828 1.24218 1.23828.6836 0 1.24219-.5547 1.24219-1.23828Zm3.53125-17.66016c0-.68359-.5586-1.23828-1.24219-1.23828-.6875 0-1.24219.55469-1.24219 1.23828 0 .6875.5547 1.24219 1.2422 1.24219.68358 0 1.24218-.55469 1.24218-1.24219Zm3.53125-35.30858c0-.6875-.5586-1.24219-1.24219-1.24219-.6875 0-1.24219.55469-1.24219 1.24219 0 .6836.55469 1.23828 1.2422 1.23828.68358 0 1.24218-.55469 1.24218-1.23828Zm3.53125 35.30858c0-.68359-.5586-1.23828-1.24219-1.23828-.6875 0-1.24219.55469-1.24219 1.23828 0 .6875.55469 1.24219 1.24219 1.24219.6836 0 1.24219-.55469 1.24219-1.24219Zm3.53125-52.96873c0-.6836-.5586-1.23829-1.2422-1.23829-.6875 0-1.24218.5547-1.24218 1.23829 0 .6875.55469 1.24218 1.24219 1.24218.6836 0 1.24219-.55468 1.24219-1.24218Zm3.53125 52.96873c0-.68359-.5586-1.23828-1.2422-1.23828-.6875 0-1.24218.55469-1.24218 1.23828 0 .6875.55469 1.24219 1.24219 1.24219.6836 0 1.24219-.55469 1.24219-1.24219Zm3.53124 0c0-.68359-.55859-1.23828-1.24218-1.23828s-1.24219.55469-1.24219 1.23828c0 .6875.5586 1.24219 1.24219 1.24219s1.24218-.55469 1.24218-1.24219Zm3.53125-35.30858c0-.6875-.55468-1.24219-1.24218-1.24219-.6836 0-1.2422.55469-1.2422 1.24219 0 .6836.5586 1.23828 1.2422 1.23828.6875 0 1.24218-.55469 1.24218-1.23828Zm3.53125-52.97655c0-.6836-.55468-1.23828-1.24218-1.23828-.6836 0-1.2422.55468-1.2422 1.23828 0 .6875.5586 1.24219 1.2422 1.24219.6875 0 1.24218-.5547 1.24218-1.2422Zm3.53125 35.3164c0-.6836-.55469-1.23829-1.24219-1.23829-.68359 0-1.24218.5547-1.24218 1.23829 0 .6875.5586 1.24218 1.24218 1.24218.6875 0 1.2422-.55468 1.2422-1.24218Zm3.53125 35.31639c0-.68359-.55469-1.24218-1.24219-1.24218-.68359 0-1.24218.55859-1.24218 1.24218 0 .6875.55859 1.2422 1.24218 1.2422.6875 0 1.2422-.5547 1.2422-1.2422Zm3.53125 0c0-.68359-.55469-1.24218-1.24219-1.24218-.6836 0-1.24218.55859-1.24218 1.24218 0 .6875.55859 1.2422 1.24218 1.2422.6875 0 1.24219-.5547 1.24219-1.2422Zm3.53125-35.31639c0-.6836-.55469-1.23829-1.24219-1.23829-.6836 0-1.24219.5547-1.24219 1.23829 0 .6875.5586 1.24218 1.2422 1.24218.6875 0 1.24218-.55468 1.24218-1.24218Zm0 0"/><g clip-path="url(#e)"><path d="M206.35156 147.80078c0-.6836-.55469-1.24219-1.24219-1.24219-.68359 0-1.23828.5586-1.23828 1.2422 0 .6875.5547 1.24218 1.23828 1.24218.6875 0 1.2422-.55469 1.2422-1.24219m0 0"/></g><g clip-path="url(#f)"><path fill="none" stroke="#000" stroke-miterlimit="10" stroke-width=".39715" d="M206.35152 147.80078c0-.6836-.55469-1.24219-1.24219-1.24219-.6836 0-1.23828.5586-1.23828 1.2422 0 .6875.55469 1.24218 1.23828 1.24218.6875 0 1.24219-.55469 1.24219-1.24219Zm0 0"/></g><path stroke="#000" stroke-miterlimit="10" stroke-width=".39715" d="M209.88277 77.1758c0-.6875-.55469-1.24219-1.24219-1.24219-.6836 0-1.23828.55469-1.23828 1.24219 0 .6836.55469 1.23828 1.23828 1.23828.6875 0 1.24219-.55469 1.24219-1.23828Zm3.53125 17.65624c0-.68359-.5547-1.24218-1.2422-1.24218-.68358 0-1.23827.55859-1.23827 1.24218 0 .6875.55469 1.2422 1.23828 1.2422.6875 0 1.24219-.5547 1.24219-1.2422Zm3.53125-17.65624c0-.6875-.5547-1.24219-1.2422-1.24219-.68359 0-1.23827.55469-1.23827 1.24219 0 .6836.55468 1.23828 1.23828 1.23828.6875 0 1.24219-.55469 1.24219-1.23828Zm3.53124 0c0-.6875-.55468-1.24219-1.24218-1.24219-.6836 0-1.23828.55469-1.23828 1.24219 0 .6836.55468 1.23828 1.23828 1.23828.6875 0 1.24218-.55469 1.24218-1.23828Zm3.53125 0c0-.6875-.55468-1.24219-1.24218-1.24219-.6836 0-1.23828.55469-1.23828 1.24219 0 .6836.55468 1.23828 1.23828 1.23828.6875 0 1.24218-.55469 1.24218-1.23828Zm3.53125 35.30858c0-.68359-.55468-1.23828-1.24218-1.23828-.6836 0-1.23828.55469-1.23828 1.23828 0 .6875.55468 1.24219 1.23828 1.24219.6875 0 1.24218-.55469 1.24218-1.24219Zm3.53125-35.30858c0-.6875-.55469-1.24219-1.24219-1.24219-.68359 0-1.23828.55469-1.23828 1.24219 0 .6836.5547 1.23828 1.23828 1.23828.6875 0 1.2422-.55469 1.2422-1.23828Zm3.53125 35.30858c0-.68359-.55469-1.23828-1.23828-1.23828-.6875 0-1.24219.55469-1.24219 1.23828 0 .6875.55469 1.24219 1.2422 1.24219.68358 0 1.23827-.55469 1.23827-1.24219Zm3.53125-52.96873c0-.6836-.55469-1.23829-1.23828-1.23829-.6875 0-1.24219.5547-1.24219 1.23829 0 .6875.55469 1.24218 1.24219 1.24218.6836 0 1.23828-.55468 1.23828-1.24218Zm3.53124-35.3164c0-.6836-.55468-1.23828-1.23827-1.23828-.6875 0-1.24219.55468-1.24219 1.23828 0 .6875.55469 1.24219 1.24219 1.24219.6836 0 1.23828-.5547 1.23828-1.2422Zm3.53126 17.66015c0-.6875-.55469-1.24219-1.23828-1.24219-.6875 0-1.24219.55469-1.24219 1.2422 0 .68358.55469 1.24218 1.24219 1.24218.6836 0 1.23828-.5586 1.23828-1.24219Zm3.53124 88.28514c0-.6875-.55468-1.2422-1.23827-1.2422-.6875 0-1.24219.5547-1.24219 1.2422 0 .68359.55469 1.23828 1.24219 1.23828.68359 0 1.23828-.5547 1.23828-1.23828Zm3.53126 0c0-.6875-.55469-1.2422-1.23828-1.2422-.6875 0-1.2422.5547-1.2422 1.2422 0 .68359.5547 1.23828 1.2422 1.23828.68359 0 1.23828-.5547 1.23828-1.23828Zm3.53124-35.3125c0-.68359-.55468-1.24218-1.23827-1.24218-.6875 0-1.2422.55859-1.2422 1.24218 0 .6875.5547 1.2422 1.2422 1.2422.68359 0 1.23828-.5547 1.23828-1.2422Zm3.53516 0c0-.68359-.5586-1.24218-1.24219-1.24218-.6875 0-1.24218.55859-1.24218 1.24218 0 .6875.55468 1.2422 1.24218 1.2422.6836 0 1.2422-.5547 1.2422-1.2422Zm3.53125 17.65234c0-.68359-.5586-1.23828-1.24219-1.23828-.6875 0-1.24218.55469-1.24218 1.23828 0 .6875.55468 1.24219 1.24218 1.24219.6836 0 1.2422-.55469 1.2422-1.24219Zm3.53125 17.66016c0-.6875-.5586-1.2422-1.24219-1.2422-.6875 0-1.24218.5547-1.24218 1.2422 0 .68359.55468 1.23828 1.24218 1.23828.6836 0 1.24219-.5547 1.24219-1.23828Zm3.53124-52.96874c0-.6875-.55858-1.24219-1.24218-1.24219-.6875 0-1.24219.55469-1.24219 1.24219 0 .6836.5547 1.23828 1.2422 1.23828.68359 0 1.24218-.55469 1.24218-1.23828Zm3.53126-17.66015c0-.6836-.5586-1.23829-1.24219-1.23829-.6875 0-1.24219.5547-1.24219 1.23829 0 .6875.5547 1.24218 1.2422 1.24218.68358 0 1.24218-.55468 1.24218-1.24218Zm3.53124 52.96873c0-.68359-.55859-1.23828-1.24218-1.23828-.6875 0-1.24219.55469-1.24219 1.23828 0 .6875.55469 1.24219 1.24219 1.24219.6836 0 1.24219-.55469 1.24219-1.24219Zm3.53126 0c0-.68359-.5586-1.23828-1.2422-1.23828-.68358 0-1.24218.55469-1.24218 1.23828 0 .6875.5586 1.24219 1.24219 1.24219.6836 0 1.24219-.55469 1.24219-1.24219Zm3.53124-35.30858c0-.6875-.55468-1.24219-1.24218-1.24219-.6836 0-1.24219.55469-1.24219 1.24219 0 .6836.5586 1.23828 1.24219 1.23828.6875 0 1.24219-.55469 1.24219-1.23828Zm3.53125-17.66015c0-.6836-.55468-1.23829-1.24218-1.23829-.6836 0-1.24219.5547-1.24219 1.23829 0 .6875.5586 1.24218 1.24219 1.24218.6875 0 1.24218-.55468 1.24218-1.24218Zm3.53125 52.96873c0-.68359-.55468-1.23828-1.24218-1.23828-.6836 0-1.2422.55469-1.2422 1.23828 0 .6875.5586 1.24219 1.2422 1.24219.6875 0 1.24218-.55469 1.24218-1.24219Zm3.53125-17.65234c0-.68359-.55468-1.24218-1.24218-1.24218-.6836 0-1.2422.55859-1.2422 1.24218 0 .6875.5586 1.2422 1.2422 1.2422.6875 0 1.24218-.5547 1.24218-1.2422Zm3.53125-35.31639c0-.6836-.55469-1.23829-1.24219-1.23829-.68359 0-1.24218.5547-1.24218 1.23829 0 .6875.5586 1.24218 1.24218 1.24218.6875 0 1.2422-.55468 1.2422-1.24218Zm3.53125-35.3164c0-.6836-.55469-1.23828-1.24219-1.23828-.68359 0-1.24218.55468-1.24218 1.23828 0 .6875.55859 1.24219 1.24218 1.24219.6875 0 1.2422-.5547 1.2422-1.2422Zm3.53125 70.63279c0-.68359-.55469-1.24218-1.24219-1.24218-.68359 0-1.23828.55859-1.23828 1.24218 0 .6875.55469 1.2422 1.23828 1.2422.6875 0 1.24219-.5547 1.24219-1.2422Zm3.53125 0c0-.68359-.55469-1.24218-1.24219-1.24218-.6836 0-1.23828.55859-1.23828 1.24218 0 .6875.55469 1.2422 1.23828 1.2422.6875 0 1.24219-.5547 1.24219-1.2422Zm3.53125-17.65624c0-.6875-.55469-1.24219-1.24219-1.24219-.6836 0-1.23828.55469-1.23828 1.24219 0 .6836.55469 1.23828 1.23828 1.23828.6875 0 1.24219-.55469 1.24219-1.23828Zm3.53125 35.30858c0-.68359-.55469-1.23828-1.24219-1.23828-.6836 0-1.23828.55469-1.23828 1.23828 0 .6875.55469 1.24219 1.23828 1.24219.6875 0 1.24219-.55469 1.24219-1.24219Zm3.53125-35.30858c0-.6875-.55469-1.24219-1.2422-1.24219-.68358 0-1.23827.55469-1.23827 1.24219 0 .6836.55469 1.23828 1.23828 1.23828.6875 0 1.24219-.55469 1.24219-1.23828Zm3.53125 52.96874c0-.6875-.5547-1.2422-1.2422-1.2422-.68358 0-1.23827.5547-1.23827 1.2422 0 .68359.55469 1.23828 1.23828 1.23828.6875 0 1.24219-.5547 1.24219-1.23828Zm3.53125-70.62889c0-.6836-.5547-1.23829-1.2422-1.23829-.68359 0-1.23827.5547-1.23827 1.23829 0 .6875.55468 1.24218 1.23828 1.24218.6875 0 1.24218-.55468 1.24218-1.24218Zm3.53124 35.31639c0-.68359-.55468-1.24218-1.24218-1.24218-.6836 0-1.23828.55859-1.23828 1.24218 0 .6875.55468 1.2422 1.23828 1.2422.6875 0 1.24218-.5547 1.24218-1.2422Zm3.53126-52.97264c0-.6875-.5547-1.24219-1.23829-1.24219-.6875 0-1.24218.55469-1.24218 1.2422 0 .68358.55468 1.24218 1.24218 1.24218.6836 0 1.23828-.5586 1.23828-1.24219Zm3.53124 17.65625c0-.6836-.55468-1.23829-1.23828-1.23829-.6875 0-1.24219.5547-1.24219 1.23829 0 .6875.5547 1.24218 1.2422 1.24218.68359 0 1.23827-.55468 1.23827-1.24218Zm3.53126 52.96873c0-.68359-.5547-1.23828-1.23829-1.23828-.6875 0-1.24219.55469-1.24219 1.23828 0 .6875.5547 1.24219 1.2422 1.24219.68358 0 1.23827-.55469 1.23827-1.24219Zm3.53124 0c0-.68359-.55469-1.23828-1.23828-1.23828-.6875 0-1.24219.55469-1.24219 1.23828 0 .6875.55469 1.24219 1.24219 1.24219.6836 0 1.23828-.55469 1.23828-1.24219Zm3.53125-35.30858c0-.6875-.55469-1.24219-1.23828-1.24219-.6875 0-1.24219.55469-1.24219 1.24219 0 .6836.55469 1.23828 1.24219 1.23828.6836 0 1.23828-.55469 1.23828-1.23828Zm3.53125 0c0-.6875-.55469-1.24219-1.23828-1.24219-.6875 0-1.24219.55469-1.24219 1.24219 0 .6836.55469 1.23828 1.24219 1.23828.6836 0 1.23828-.55469 1.23828-1.23828Zm3.53125 17.65624c0-.68359-.55469-1.24218-1.23828-1.24218-.6875 0-1.24219.55859-1.24219 1.24218 0 .6875.55469 1.2422 1.24219 1.2422.6836 0 1.23828-.5547 1.23828-1.2422Zm3.53515-17.65624c0-.6875-.55859-1.24219-1.24218-1.24219-.6875 0-1.2422.55469-1.2422 1.24219 0 .6836.5547 1.23828 1.2422 1.23828.68359 0 1.24218-.55469 1.24218-1.23828Zm3.53126 17.65624c0-.68359-.5586-1.24218-1.2422-1.24218-.6875 0-1.24218.55859-1.24218 1.24218 0 .6875.55469 1.2422 1.24219 1.2422.68359 0 1.24218-.5547 1.24218-1.2422Zm3.53124-35.31639c0-.6836-.5586-1.23829-1.24219-1.23829-.6875 0-1.24218.5547-1.24218 1.23829 0 .6875.55468 1.24218 1.24218 1.24218.6836 0 1.2422-.55468 1.2422-1.24218Zm0 0"/><path d="M368.79688 112.48438c0-.6836-.5586-1.23829-1.2422-1.23829-.6875 0-1.24218.5547-1.24218 1.23829 0 .6875.55469 1.24218 1.24219 1.24218.6836 0 1.24219-.55469 1.24219-1.24219m0 0"/><g clip-path="url(#g)"><path fill="none" stroke="#000" stroke-miterlimit="10" stroke-width=".39715" d="M368.7968 112.48438c0-.68359-.5586-1.23828-1.2422-1.23828-.6875 0-1.24218.55469-1.24218 1.23828 0 .6875.55468 1.24219 1.24218 1.24219.6836 0 1.2422-.55469 1.2422-1.24219Zm0 0"/></g><path d="M372.32813 77.17578c0-.6875-.5586-1.24219-1.2422-1.24219-.6875 0-1.24218.5547-1.24218 1.2422 0 .68358.55469 1.23827 1.24219 1.23827.6836 0 1.24219-.55469 1.24219-1.23828m0 0"/><g clip-path="url(#h)"><path fill="none" stroke="#000" stroke-miterlimit="10" stroke-width=".39715" d="M372.32804 77.1758c0-.6875-.5586-1.24219-1.24219-1.24219-.6875 0-1.24218.55469-1.24218 1.24219 0 .6836.55468 1.23828 1.24218 1.23828.6836 0 1.24219-.55469 1.24219-1.23828Zm0 0"/></g><g clip-path="url(#i)"><path d="M375.85938 77.17578c0-.6875-.5586-1.24219-1.2422-1.24219-.6875 0-1.24218.5547-1.24218 1.2422 0 .68358.55469 1.23827 1.24219 1.23827.6836 0 1.24219-.55469 1.24219-1.23828m0 0"/></g><g clip-path="url(#j)"><path fill="none" stroke="#000" stroke-miterlimit="10" stroke-width=".39715" d="M375.85929 77.1758c0-.6875-.5586-1.24219-1.24219-1.24219-.6875 0-1.24219.55469-1.24219 1.24219 0 .6836.5547 1.23828 1.2422 1.23828.68359 0 1.24218-.55469 1.24218-1.23828Zm0 0"/></g><path fill="none" stroke="#000" stroke-miterlimit="10" stroke-width=".39715" d="M21.47656 144.26953v7.0625"/><use xlink:href="#k" x="19.87948" y="159.68312"/><path fill="none" stroke="#000" stroke-miterlimit="10" stroke-width=".39715" d="M92.10545 144.26953v7.0625"/><use xlink:href="#l" x="88.90867" y="159.68312"/><use xlink:href="#k" x="92.10457" y="159.68312"/><path fill="none" stroke="#000" stroke-miterlimit="10" stroke-width=".39715" d="M162.73434 144.26953v7.0625"/><use xlink:href="#m" x="159.53544" y="159.68312"/><use xlink:href="#k" x="162.73134" y="159.68312"/><path fill="none" stroke="#000" stroke-miterlimit="10" stroke-width=".39715" d="M233.36323 144.26953v7.0625"/><use xlink:href="#n" x="230.16222" y="159.68312"/><use xlink:href="#k" x="233.35812" y="159.68312"/><path fill="none" stroke="#000" stroke-miterlimit="10" stroke-width=".39715" d="M303.98821 144.26953v7.0625"/><use xlink:href="#o" x="300.78899" y="159.68312"/><use xlink:href="#k" x="303.98489" y="159.68312"/><path fill="none" stroke="#000" stroke-miterlimit="10" stroke-width=".39715" d="M374.6171 144.26953v7.0625"/><use xlink:href="#p" x="369.81818" y="159.68312"/><use xlink:href="#k" x="373.01407" y="159.68312"/><use xlink:href="#k" x="376.20997" y="159.68312"/><path fill="none" stroke="#000" stroke-miterlimit="10" stroke-width=".39715" d="M25.00781 147.80078h-7.0625"/><use xlink:href="#k" x="10.36571" y="149.74977"/><path fill="none" stroke="#000" stroke-miterlimit="10" stroke-width=".39715" d="M25.00781 112.48829h-7.0625"/><use xlink:href="#k" x="4.85438" y="114.04272"/><use xlink:href="#q" x="8.05028" y="114.04272"/><use xlink:href="#p" x="10.36498" y="114.04272"/><path fill="none" stroke="#000" stroke-miterlimit="10" stroke-width=".39715" d="M25.00781 77.1719h-7.0625"/><use xlink:href="#k" x="4.85438" y="78.72833"/><use xlink:href="#q" x="8.05028" y="78.72833"/><use xlink:href="#l" x="10.36498" y="78.72833"/><path fill="none" stroke="#000" stroke-miterlimit="10" stroke-width=".39715" d="M25.00781 41.8594h-7.0625"/><use xlink:href="#k" x="4.85438" y="43.41495"/><use xlink:href="#q" x="8.05028" y="43.41495"/><use xlink:href="#r" x="10.36498" y="43.41495"/><path fill="none" stroke="#000" stroke-miterlimit="10" stroke-width=".39715" d="M25.00781 6.5469h-7.0625"/><use xlink:href="#k" x="4.85438" y="8.10156"/><use xlink:href="#q" x="8.05028" y="8.10156"/><use xlink:href="#m" x="10.36498" y="8.10156"/><path fill="none" stroke="#000" stroke-miterlimit="10" stroke-width=".39715" d="M371.08585 106.60157h7.0625"/><use xlink:href="#s" x="384.01808" y="104.65128"/><path fill="none" stroke="#000" stroke-miterlimit="10" stroke-width=".68269" d="M384.01953 106.35156h4.40234"/><use xlink:href="#t" x="384.01808" y="114.00833"/><path fill="none" stroke="#000" stroke-miterlimit="10" stroke-width=".39715" d="M371.08585 78.08986h7.0625"/><use xlink:href="#p" x="384.01808" y="77.37542"/><path fill="none" stroke="#000" stroke-miterlimit="10" stroke-width=".34134" d="M384.01953 78.22656h3.19531"/><use xlink:href="#n" x="384.01808" y="82.70237"/><use xlink:href="#u" x="389.56554" y="79.86947"/><use xlink:href="#v" x="394.61692" y="79.86947"/><path fill="none" stroke="#000" stroke-miterlimit="10" stroke-width=".39715" d="M371.08585 135.11328h7.0625"/><use xlink:href="#p" x="384.01808" y="134.39802"/><path fill="none" stroke="#000" stroke-miterlimit="10" stroke-width=".34134" d="M384.01953 135.25h3.19531"/><use xlink:href="#n" x="384.01808" y="139.72622"/><use xlink:href="#w" x="389.56554" y="136.89332"/><use xlink:href="#v" x="394.61692" y="136.89332"/><path fill="none" stroke="#000" stroke-miterlimit="10" stroke-width=".39715" d="M409.9296 41.8594c-34.52734 0-40.72265 35.70702-66.67187 50.68749"/><path stroke="#000" stroke-miterlimit="10" stroke-width=".39715" d="M339.94531 94.46094c.46875-.125 2.61719-.53906 4.125-.51172l-1.6211-2.80469c-.73046 1.32031-2.16015 2.97266-2.5039 3.3164Zm0 0"/><use xlink:href="#x" x="414.31047" y="44.8461"/><use xlink:href="#y" x="425.10827" y="44.8461"/><use xlink:href="#z" x="431.28908" y="44.8461"/><use xlink:href="#A" x="440.09439" y="44.8461"/><use xlink:href="#B" x="452.48082" y="44.8461"/><use xlink:href="#C" x="459.45595" y="44.8461"/><use xlink:href="#D" x="465.45059" y="44.8461"/><use xlink:href="#E" x="473.14557" y="44.8461"/><use xlink:href="#F" x="476.85654" y="44.8461"/><use xlink:href="#G" x="481.38665" y="44.8461"/><use xlink:href="#H" x="487.38129" y="44.8461"/><use xlink:href="#I" x="494.26954" y="44.8461"/><use xlink:href="#C" x="501.33155" y="44.8461"/><use xlink:href="#J" x="507.32619" y="44.8461"/><use xlink:href="#K" x="514.53713" y="44.8461"/><use xlink:href="#C" x="520.32078" y="44.8461"/><use xlink:href="#D" x="526.31542" y="44.8461"/></svg>