<svg xmlns="http://www.w3.org/2000/svg" xmlns:xlink="http://www.w3.org/1999/xlink" width="102.723pt" height="54.363pt" viewBox="0 0 102.723 54.363"><defs><path id="a" d="m.54688-1.9375.125 1.51563c.40625.375 1.10937.5625 1.79687.5625 1.375 0 2.15625-.73438 2.15625-1.71875 0-1.01563-.625-1.46875-1.8125-1.84375-.48437-.15625-1.23437-.39063-1.23437-1.04688 0-.60937.45312-.9375 1.03125-.9375.82812 0 1.21875.64063 1.3125 1.34375H4.25v-1.35937c-.39062-.28125-.96875-.39063-1.48437-.39063C1.5-5.8125.65625-5.21875.65625-4.125c0 .95313.78125 1.39063 1.75 1.6875.51563.15625 1.23438.42188 1.23438 1.20313 0 .59375-.45313.96875-1.0625.96875-.9375 0-1.46875-.6875-1.70313-1.67188Zm0 0"/><path id="b" d="m.29688-5.23437.4375.0625c.29687.04687.375.09375.375.51562v3.0625c0 1.32813.78125 1.73438 1.65625 1.73438.98437 0 1.78125-.67188 2.10937-.82813L4.98438 0h1.85937v-.32812c-.79687-.0625-.875-.09375-.875-.6875v-4.71875l-.07812-.07813-1.8125.29688v.28125l.4375.0625c.29687.04687.375.09375.375.51562v2.60938c0 .32812-.04688.57812-.09375.6875-.28125.53125-.8125.875-1.42188.875-.67187 0-1.17187-.42188-1.17187-1.32813v-3.92187L2.125-5.8125l-1.82812.29688Zm0 0"/><path id="c" d="M.5625-2.78125c0 1.9375.95313 2.92188 2.6875 2.92188.8125 0 1.90625-.42188 2.23438-1.67188l-.34375-.15625c-.35938.8125-.8125 1.21875-1.67188 1.21875-1.375 0-1.70312-1.4375-1.70312-2.51562 0-1.73438.6875-2.42188 1.48437-2.42188.53125 0 .85938.375 1.09375 1.01563.07813.1875.15625.29687.375.29687.23438 0 .67188-.15625.67188-.59375 0-.53125-.76563-1.125-2.01563-1.125-2.10937 0-2.8125 1.48438-2.8125 3.03125m0 0"/><path id="d" d="M1.40625-7.875c0 .25.29688.45313.64063.64063l1.75.96875L3.96875-6.5l-1.375-1.39062C2.25-8.25 2.04688-8.375 1.84375-8.375c-.17187 0-.4375.26563-.4375.5M.5625-2.79687c0 1.84375.79688 2.9375 2.67188 2.9375 1.28125 0 1.95312-.71875 2.25-1.625l-.34375-.1875C4.82813-1 4.39063-.45312 3.46875-.45312c-1.4375 0-1.71875-1.375-1.70312-2.59375h3.34375c.25 0 .45312-.0625.45312-.4375 0-.67188-.21875-2.32813-2.34375-2.32813C1.42188-5.8125.5625-4.53125.5625-2.79687m1.21875-.6875c0-.48438.17188-1.92188 1.39063-1.92188 1.0625 0 1.1875 1.09375 1.1875 1.54688 0 .23437-.07813.375-.39063.375Zm0 0"/><path id="e" d="M2.32813-6.5 2.5-6.26562l1.75-.96875c.34375-.1875.65625-.39063.65625-.64063 0-.23437-.29687-.5-.46875-.5-.1875 0-.39062.125-.73437.48438ZM.5625-2.79687c0 1.84375.79688 2.9375 2.67188 2.9375 1.28125 0 1.95312-.71875 2.25-1.625l-.34375-.1875C4.82813-1 4.39063-.45312 3.46875-.45312c-1.4375 0-1.71875-1.375-1.70312-2.59375h3.34375c.25 0 .45312-.0625.45312-.4375 0-.67188-.21875-2.32813-2.34375-2.32813C1.42188-5.8125.5625-4.53125.5625-2.79687m1.21875-.6875c0-.48438.17188-1.92188 1.39063-1.92188 1.0625 0 1.1875 1.09375 1.1875 1.54688 0 .23437-.07813.375-.39063.375Zm0 0"/><path id="f" d="M.25 0h2.79688v-.32812C2.25-.39062 2.1875-.4375 2.1875-1.01562v-2.70313c0-.29687 0-.4375.10938-.60937.23437-.46875.76562-.85938 1.39062-.85938.78125 0 1.21875.4375 1.21875 1.4375v2.73438c0 .57812-.0625.625-.875.6875V0h2.8125v-.32812c-.79687-.0625-.85937-.10938-.85937-.6875v-2.95313c0-1.17187-.64063-1.84375-1.71875-1.84375-.84375 0-1.35938.40625-2.09375.89063v-3.59375l-.07813-.0625-1.79687.28125V-8l.42187.04688c.29688.04687.375.10937.375.53125v6.40625c0 .57812-.03125.625-.84375.6875Zm0 0"/><path id="g" d="M.5625-2.79687c0 1.84375.79688 2.9375 2.67188 2.9375 1.28125 0 1.95312-.71875 2.25-1.625l-.34375-.1875C4.82813-1 4.39063-.45312 3.46875-.45312c-1.4375 0-1.71875-1.375-1.70312-2.59375h3.34375c.25 0 .45312-.0625.45312-.4375 0-.67188-.21875-2.32813-2.34375-2.32813C1.42188-5.8125.5625-4.53125.5625-2.79687m1.21875-.6875c0-.48438.17188-1.92188 1.39063-1.92188 1.0625 0 1.1875 1.09375 1.1875 1.54688 0 .23437-.07813.375-.39063.375Zm0 0"/><path id="h" d="m.60938 2.79688 1.03125-.14063.64062-2.76562c.25.14062.64063.25 1.23438.25 2.84375 0 3.625-3.53125 3.625-4.40625 0-1-.4375-1.54688-1.29688-1.54688-.875 0-2.03125.84375-2.90625 2.5h-.03125L3.5625-5.75l-.04687-.0625-2.10938.32813-.0625.28125.71875.0625c.17188 0 .23438.07812.23438.21875 0 .07812-.03125.1875-.0625.32812ZM2.39063-.60937c.14062-.75.48437-1.92188.92187-2.70313.54688-.96875 1.39063-1.89062 2.0625-1.89062.40625 0 .625.34375.625.95312 0 .90625-.6875 3.98438-2.59375 3.98438-.45312 0-.76562-.125-1.01562-.34375m0 0"/><path id="i" d="M1.25 0h3.8125v-.32812l-.96875-.09375c-.25-.01563-.39062-.10938-.39062-.5625V-7.8125l-.0625-.0625L1.25-7.46875v.29688l1.09375.125c.1875.03125.26563.10937.26563.45312v5.60938c0 .45312-.10938.54687-.375.5625L1.25-.32812Zm0 0"/><path id="j" d="M.98438-2.9375h6.35937v-.67187H.98438Zm0 0"/></defs><path fill="none" stroke="#000" stroke-miterlimit="10" stroke-width=".39389" d="M17.02344 25.86719 52.04687 8.35547M17.02344 25.86719 52.04687 43.3789"/><use xlink:href="#a" x="63.39846" y="12.47285"/><use xlink:href="#b" x="68.43287" y="12.47285"/><use xlink:href="#c" x="75.43672" y="12.47285"/><use xlink:href="#c" x="81.17275" y="12.47285"/><use xlink:href="#d" x="86.90878" y="12.47285"/><use xlink:href="#a" x="92.85406" y="12.47285"/><use xlink:href="#e" x="63.39846" y="47.60024"/><use xlink:href="#c" x="69.34374" y="47.60024"/><use xlink:href="#f" x="75.07976" y="47.60024"/><use xlink:href="#g" x="82.09593" y="47.60024"/><use xlink:href="#c" x="88.04121" y="47.60024"/><use xlink:href="#h" x="22.4305" y="9.9682"/><use xlink:href="#i" x="4.56089" y="46.8362"/><use xlink:href="#j" x="12.38945" y="46.8362"/><use xlink:href="#h" x="22.42134" y="46.8362"/></svg>