<svg xmlns="http://www.w3.org/2000/svg" xmlns:xlink="http://www.w3.org/1999/xlink" width="106.836pt" height="56.543pt" viewBox="0 0 106.836 56.543"><defs><path id="a" d="M.5625-2.01562.6875-.4375c.4375.39063 1.17188.57813 1.875.57813 1.4375 0 2.26563-.75 2.26563-1.78125 0-1.0625-.65625-1.54688-1.90625-1.9375-.5-.14063-1.28125-.40625-1.28125-1.07813 0-.64062.48437-.98437 1.07812-.98437.85938 0 1.28125.67187 1.35938 1.40625h.35937v-1.42188c-.40625-.29687-1.01562-.40625-1.5625-.40625-1.3125 0-2.1875.60938-2.1875 1.76563 0 1 .8125 1.45312 1.8125 1.75.54688.17187 1.29688.4375 1.29688 1.26562 0 .60938-.46875 1-1.10938 1-.98437 0-1.53125-.70312-1.78125-1.73437Zm0 0"/><path id="b" d="m.3125-5.45312.45313.0625c.3125.04687.39062.09375.39062.53125v3.1875c0 1.39062.82813 1.8125 1.71875 1.8125 1.03125 0 1.85938-.6875 2.21875-.85938L5.20313 0h1.9375v-.34375c-.82813-.0625-.90625-.09375-.90625-.70312v-4.9375l-.09375-.07813L4.25-5.75v.29688l.46875.0625c.29688.04687.375.09375.375.53125V-2.125c0 .32813-.03125.59375-.09375.71875C4.71875-.85937 4.15625-.5 3.51563-.5c-.70313 0-1.21875-.45312-1.21875-1.39062v-4.09375l-.09375-.07813L.3125-5.75Zm0 0"/><path id="c" d="M.59375-2.90625c0 2.01563.98438 3.04688 2.79688 3.04688.84375 0 1.98437-.4375 2.32812-1.73438l-.35937-.17187c-.375.85937-.84375 1.28125-1.73438 1.28125-1.4375 0-1.78125-1.5-1.78125-2.64063 0-1.79687.71875-2.51562 1.54688-2.51562.54687 0 .90625.40625 1.14062 1.0625.07813.1875.15625.29687.39063.29687s.70312-.15625.70312-.60937c0-.5625-.79687-1.17188-2.10937-1.17188-2.1875 0-2.92188 1.54688-2.92188 3.15625m0 0"/><path id="d" d="M1.46875-8.20312c0 .25.29688.45312.65625.65625l1.82813 1.01562.1875-.25-1.4375-1.45312c-.35938-.375-.57813-.5-.78125-.5-.17188 0-.45313.28125-.45313.53125m-.875 5.28125C.59375-1 1.40625.14063 3.375.14063c1.34375 0 2.03125-.75 2.35938-1.6875L5.375-1.75c-.34375.70313-.79687 1.28125-1.75 1.28125-1.5 0-1.79687-1.4375-1.78125-2.70312h3.48438c.26562 0 .48437-.0625.48437-.46875 0-.70313-.23437-2.42188-2.45312-2.42188-1.875 0-2.76563 1.34375-2.76563 3.14063m1.26563-.71875c0-.5.1875-2 1.4375-2 1.125 0 1.25 1.14062 1.25 1.625 0 .23437-.07813.375-.40625.375Zm0 0"/><path id="e" d="m2.42188-6.78125.1875.25L4.4375-7.54687c.35938-.20313.67188-.40625.67188-.65625s-.29688-.53125-.46875-.53125c-.20313 0-.42188.125-.78125.5ZM.59375-2.92187C.59375-1 1.40625.14063 3.375.14063c1.34375 0 2.03125-.75 2.35938-1.6875L5.375-1.75c-.34375.70313-.79687 1.28125-1.75 1.28125-1.5 0-1.79687-1.4375-1.78125-2.70312h3.48438c.26562 0 .48437-.0625.48437-.46875 0-.70313-.23437-2.42188-2.45312-2.42188-1.875 0-2.76563 1.34375-2.76563 3.14063m1.26563-.71875c0-.5.1875-2 1.4375-2 1.125 0 1.25 1.14062 1.25 1.625 0 .23437-.07813.375-.40625.375Zm0 0"/><path id="f" d="M.25 0h2.9375v-.34375c-.84375-.0625-.90625-.125-.90625-.70312V-3.875c0-.3125 0-.46875.10938-.64062.25-.5.8125-.89063 1.45312-.89063.8125 0 1.26563.45313 1.26563 1.5v2.85938c0 .57812-.0625.64062-.90625.70312V0h2.9375v-.34375c-.82813-.0625-.90625-.125-.90625-.70312v-3.09375c0-1.21875-.65625-1.92188-1.78125-1.92188-.875 0-1.42188.42188-2.1875.92188v-3.75l-.07813-.0625-1.875.29687v.3125l.4375.04688c.3125.04687.39063.10937.39063.54687v6.70313c0 .57812-.03126.64062-.89063.70312Zm0 0"/><path id="g" d="M.59375-2.92187C.59375-1 1.40625.14063 3.375.14063c1.34375 0 2.03125-.75 2.35938-1.6875L5.375-1.75c-.34375.70313-.79687 1.28125-1.75 1.28125-1.5 0-1.79687-1.4375-1.78125-2.70312h3.48438c.26562 0 .48437-.0625.48437-.46875 0-.70313-.23437-2.42188-2.45312-2.42188-1.875 0-2.76563 1.34375-2.76563 3.14063m1.26563-.71875c0-.5.1875-2 1.4375-2 1.125 0 1.25 1.14062 1.25 1.625 0 .23437-.07813.375-.40625.375Zm0 0"/><path id="h" d="m.64063 2.92188 1.0625-.14063L2.375-.10937c.26563.14062.67188.25 1.29688.25 2.95312 0 3.78125-3.67188 3.78125-4.57813 0-1.0625-.45313-1.625-1.35938-1.625-.92187 0-2.10937.89063-3.03125 2.60938h-.03125L3.71875-6l-.0625-.0625-2.1875.32813-.0625.29687.73438.0625c.1875.01563.25.09375.25.23438 0 .09375-.03125.20312-.0625.34375Zm1.84375-3.5625c.15625-.76563.51562-2 .96875-2.8125.57812-1.01563 1.45312-1.98438 2.14062-1.98438.4375 0 .65625.35938.65625 1 0 .95313-.71875 4.15625-2.6875 4.15625-.48437 0-.79687-.125-1.07812-.35937m0 0"/><path id="i" d="M1.3125 0h3.96875v-.34375L4.26563-.4375C4-.46875 3.85938-.54687 3.85938-1.03125v-7.10937l-.0625-.0625-2.48438.42187v.29688l1.125.14062c.20313.01563.28125.10938.28125.45313v5.85937c0 .48438-.10937.5625-.39062.59375L1.3125-.34375Zm0 0"/><path id="j" d="M1.03125-3.0625h6.64063v-.70312H1.03125Zm0 0"/></defs><path fill="none" stroke="#000" stroke-miterlimit="10" stroke-width=".3953" d="M17.63281 27 54.1953 8.71876M17.63281 27 54.1953 45.28124"/><use xlink:href="#a" x="66.04494" y="13.01878"/><use xlink:href="#b" x="71.29961" y="13.01878"/><use xlink:href="#c" x="78.60989" y="13.01878"/><use xlink:href="#c" x="84.59687" y="13.01878"/><use xlink:href="#d" x="90.58385" y="13.01878"/><use xlink:href="#a" x="96.78924" y="13.01878"/><use xlink:href="#e" x="66.04494" y="49.68939"/><use xlink:href="#c" x="72.25033" y="49.68939"/><use xlink:href="#f" x="78.23731" y="49.68939"/><use xlink:href="#g" x="85.56044" y="49.68939"/><use xlink:href="#c" x="91.76583" y="49.68939"/><use xlink:href="#h" x="23.28058" y="10.4059"/><use xlink:href="#i" x="4.62933" y="48.89085"/><use xlink:href="#j" x="12.8004" y="48.89085"/><use xlink:href="#h" x="23.27118" y="48.89085"/></svg>