<svg xmlns="http://www.w3.org/2000/svg" xmlns:xlink="http://www.w3.org/1999/xlink" width="366.186pt" height="173.249pt" viewBox="0 0 366.186 173.249"><defs><path id="a" d="M-.125 0h1.40625v-.23437L.92188-.26563c-.14063 0-.14063-.07812-.10938-.21875.07813-.32812.17188-.65624.28125-1h1.1875l.3125 1c.04688.14063.03125.20313-.10937.21875l-.34375.03125V0H4.0625v-.23437c-.3125 0-.40625-.03126-.48437-.28126L2.39063-4.1875H1.625L.92188-2.15625C.70312-1.53125.5-.92187.35938-.54687c-.09375.25-.15625.29687-.48438.3125Zm1.3125-1.78125.51563-1.57812.48437 1.57812Zm0 0"/><path id="b" d="M.1875 0h1.84375v-.23437C1.5625-.26563 1.5-.28125 1.5-.53125V-1.875c0-.3125.0625-.46875.20313-.46875.09374 0 .1875.04688.32812.125.07813.0625.15625.10938.26563.10938.125 0 .25-.07813.3125-.15625.0625-.09375.09375-.21875.09375-.35938 0-.25-.15625-.42187-.40625-.42187s-.45313.17187-.8125.53125l-.07813-.53125-1.1875.17187v.21875L.4375-2.625c.09375.01563.15625.0625.15625.3125v1.78125c0 .25-.04687.28125-.40625.29688Zm0 0"/><path id="c" d="m.125-4.10937.20313.03125c.10937.01562.15625.0625.15625.3125v3.73437l.1875.10938L1-.14062c.21875.125.51563.21875.90625.21875.875 0 1.59375-.29688 1.59375-1.67188 0-.98437-.53125-1.45312-1.14062-1.45312-.375 0-.67188.20312-.95313.42187v-1.82812L1.35938-4.5.125-4.34375ZM1.40625-.9375v-.95312c0-.125 0-.26563.03125-.34375.07813-.20313.21875-.34375.48438-.34375.29687 0 .60937.15625.60937 1.14062 0 .76563-.15625 1.23438-.60937 1.23438-.29688 0-.45313-.15625-.5-.39063-.01563-.07812-.01563-.21875-.01563-.34375m0 0"/><path id="d" d="M.23438-1.48437c0 .82812.35937 1.5625 1.48437 1.5625.73438 0 1.125-.35938 1.32813-.89063l-.21875-.125c-.1875.34375-.4375.54688-.8125.54688-.60938 0-.8125-.5-.8125-1.14063h1.57812c.21875 0 .3125-.0625.3125-.25 0-.5-.1875-1.26562-1.35937-1.26562-1.09375 0-1.5.70312-1.5 1.5625m.96875-.32813c0-.45312.10937-.95312.5-.95312.375 0 .4375.46875.4375.75 0 .15625-.04688.20312-.1875.20312Zm0 0"/><path id="p" d="M-.0625-3.96875c.3125.01563.375.04688.46875.3125L1.625 0h.76563l.71875-2.10937c.23437-.67188.4375-1.26563.53125-1.5.125-.28125.17187-.32813.51562-.35938v-.21875H2.75v.21875l.34375.03125c.125.01563.125.07813.09375.20313-.04687.20312-.1875.70312-.375 1.26562-.10937.35938-.375 1.25-.48437 1.5625h-.03125L1.375-3.71875c-.03125-.125-.03125-.20312.10938-.21875l.29687-.03125v-.21875H-.0625Zm0 0"/><path id="q" d="M.29688-.8125c0 .45313.28125.89063.89062.89063.39063 0 .67188-.21875.875-.35938.07813.1875.1875.35938.48438.35938.3125 0 .6875-.10938.89062-.1875L3.42188-.3125c-.07813.01563-.20313 0-.29688-.03125-.07812-.03125-.20312-.09375-.20312-.45312V-2.1875c0-.39062-.04688-.85937-1.10938-.85937-.89062 0-1.45312.35937-1.45312.75 0 .26562.39062.375.54687.375.125 0 .20313-.09376.25-.23438.17188-.51562.375-.60937.54688-.60937.17187 0 .34375.09375.34375.45312V-2c-.21875.15625-.71875.29688-1.125.4375-.46875.15625-.625.40625-.625.75m.92187-.09375c0-.28125.09375-.42187.28125-.53125s.39063-.1875.54688-.25v.875c-.01563.32813-.20313.40625-.375.40625-.23438 0-.45313-.1875-.45313-.5m0 0"/><path id="r" d="M.14063 0h1.71875v-.23437C1.5-.25 1.46875-.28125 1.46875-.53125v-3.92187L1.40625-4.5.1875-4.34375v.23438l.21875.03125c.09375.01562.14063.0625.14063.3125v3.23437c0 .25-.04688.28125-.40625.29688Zm0 0"/><path id="s" d="m.1875-2.65625.20313.03125c.09375.01563.14062.0625.14062.3125v1.46875c0 .71875.4375.92188.875.92188.51563 0 .82813-.28126 1.07813-.42188L2.53125 0h1.26563v-.23437C3.45313-.25 3.40625-.28125 3.40625-.53125V-3l-.04687-.04687L2.125-2.875v.21875l.21875.03125c.09375.01563.14063.0625.14063.3125v1.28125c0 .10938 0 .25-.04688.34375-.0625.14063-.21875.28125-.48437.28125-.32813 0-.5-.1875-.5-.65625V-3l-.04688-.04687L.1875-2.875Zm0 0"/><path id="t" d="M.23438-1.4375c0 .89063.46875 1.51563 1.23437 1.51563.21875 0 .54688-.125.875-.375V0h1.29688v-.23437C3.29688-.25 3.25-.28125 3.25-.53125v-3.92187L3.21875-4.5l-1.23437.15625v.23438l.20312.03125c.10938.01562.15625.0625.15625.3125v.79687c-.14062-.0625-.3125-.07812-.51562-.07812-.45313 0-.85938.14062-1.14063.39062-.28125.26563-.45312.67188-.45312 1.21875m.96875-.125c0-.89062.32812-1.20312.67187-1.20312.23438 0 .35938.125.42188.25.04687.07812.04687.21875.04687.34375v1.25c0 .25-.09375.53125-.48437.53125s-.65625-.39063-.65625-1.17188m0 0"/><path id="x" d="M.23438 0h2.03125v-.21875c-.53125-.03125-.57813-.0625-.57813-.375v-1.07812h.35938c.5625 0 1.01562-.10938 1.29687-.29688.29688-.21875.46875-.54687.46875-1 0-.48437-.21875-.8125-.51562-1-.29688-.1875-.6875-.21875-1.1875-.21875h-1.875v.21875c.4375.01563.48437.04688.48437.35938v3.01562c0 .3125-.04687.34375-.48437.35938ZM1.6875-2.20312V-3.6875c0-.17187.04688-.23437.35938-.23437.40625 0 .75.26562.75.96875 0 .46875-.15625 1-.76563 1-.25 0-.34375-.01563-.34375-.25m0 0"/><path id="y" d="M.23438-1.48437c0 .96875.46875 1.5625 1.57812 1.5625 1.09375 0 1.5625-.59375 1.5625-1.5625s-.46875-1.5625-1.5625-1.5625c-1.10937 0-1.57812.59375-1.57812 1.5625m.96875 0c0-.8125.17187-1.28125.60937-1.28125.42188 0 .59375.46875.59375 1.28125S2.23438-.20312 1.8125-.20312c-.4375 0-.60937-.46875-.60937-1.28125m0 0"/><path id="z" d="M.45313-3.84375c0 .29688.21875.54688.54687.54688.34375 0 .57813-.25.57813-.54688C1.57813-4.125 1.35937-4.375 1-4.375c-.32812 0-.54687.25-.54687.53125M.1875 0h1.71875v-.23437C1.5625-.25 1.5-.28125 1.5-.53125V-3l-.03125-.04687-1.25.17187v.21875L.4375-2.625c.09375.01563.15625.0625.15625.3125v1.78125c0 .25-.04687.28125-.40625.29688Zm0 0"/><path id="A" d="M.21875-2.67187h.35938v1.96875c0 .54687.40625.78125.75.78125.25 0 .625-.10938.96875-.32813l-.0625-.1875c-.07813.03125-.20313.0625-.34375.0625C1.65625-.375 1.5-.5625 1.5-.9375v-1.73437h.625v-.29688H1.5v-.76562h-.34375l-.54687.76562H.21875Zm0 0"/><path id="B" d="m1.1875-3.28125.10938.1875 1.10937-.625c.23438-.125.42188-.25.42188-.40625s-.17188-.35937-.3125-.35937c-.125 0-.23438.0625-.45313.29687ZM.23438-1.48437c0 .82812.35937 1.5625 1.48437 1.5625.73438 0 1.125-.35938 1.32813-.89063l-.21875-.125c-.1875.34375-.4375.54688-.8125.54688-.60938 0-.8125-.5-.8125-1.14063h1.57812c.21875 0 .3125-.0625.3125-.25 0-.5-.1875-1.26562-1.35937-1.26562-1.09375 0-1.5.70312-1.5 1.5625m.96875-.32813c0-.45312.10937-.95312.5-.95312.375 0 .4375.46875.4375.75 0 .15625-.04688.20312-.1875.20312Zm0 0"/><path id="g" d="M.39063-.8125c.46875.625 1.64062 1 2.51562 1C5.26563.15625 5.98438-1.20312 5.98438-2.5c0-1.09375-.59375-1.78125-1.82813-2.40625-.70312-.35937-1.54687-.78125-1.54687-1.6875 0-.875.625-1.54687 1.6875-1.54687 1.21875 0 1.45312.5625 1.45312 1.89062h.35938l.42187-1.70312c-.51562-.40625-1.40625-.625-2.15625-.625-2.125 0-2.79687 1.39062-2.79687 2.42187 0 1.125.78125 1.71875 1.76562 2.20313C4.3125-3.46875 4.89063-2.96875 4.89063-2c0 1-.79688 1.75-1.82813 1.75-1.625 0-1.92187-1.25-2-2.42187H.70313Zm0 0"/><path id="k" d="M.125 0h6.3125l.625-2.125h-.35937c-.625 1.5-1.15625 1.70313-2.65625 1.70313-1.4375 0-1.5-.1875-1.5-.5 0-.14063.03125-.3125.07812-.5625l.625-2.65625h1.57813c.90625 0 1.07812.1875 1.07812.71875 0 .09375 0 .20312-.01562.32812H6.25L6.8125-5.625h-.375c-.29687.84375-.4375 1.03125-1.5 1.03125H3.34375l.6875-3.01562c.0625-.29688.14063-.35938.34375-.35938h1.46875c1.1875 0 1.42188.3125 1.42188.96875 0 .29688-.03125.625-.03125.625h.35937l.45313-2h-6.125l-.09376.34375.73438.04688c.20313.01562.29688.10937.29688.29687 0 .07813-.01563.17188-.03125.28125L1.375-1c-.09375.40625-.20312.54688-.5.57813l-.6875.07812Zm0 0"/><path id="h" d="M.92188 0h2.84375v-.26562l-.67188-.0625c-.1875-.01563-.28125-.07813-.28125-.39063v-5L2.75-5.76562l-1.8125.29687v.23438l.71875.09375c.17188.03125.21875.09375.21875.35937v4.0625c0 .3125-.07812.375-.28125.39063l-.67187.0625Zm0 0"/><path id="i" d="M.25-.09375.34375 0H3.9375L4.25-1.20312 3.98438-1.25c-.1875.45313-.34375.51563-.6875.51563H1.125c.14063-.40625.59375-.98438 1.40625-1.53125.85938-.57813 1.48438-.98438 1.48438-1.90625 0-1.1875-.8125-1.59375-1.75-1.59375-1.15625 0-1.8125.65625-1.8125 1.17187 0 .3125.34375.45313.53125.45313.15624 0 .25-.09375.28124-.25.14063-.59375.45313-1.0625.95313-1.0625.59375 0 .78125.51562.78125 1.125C3-3.5 2.625-2.96875 1.82813-2.28125.75-1.34375.375-.73437.25-.09375m0 0"/><path id="j" d="M.23438-.90625c0 .35938.5625 1 1.84375 1 1.26562 0 2.04687-.60937 2.04687-1.6875 0-1.15625-1-1.46875-1.4375-1.51562v-.03125c.46875-.07813 1.20313-.42188 1.20313-1.25 0-.98438-.8125-1.375-1.71875-1.375-1.09375 0-1.71875.59375-1.71875 1.03125 0 .29687.32812.4375.48437.4375.125 0 .1875-.07813.23438-.20313.1875-.59375.48437-.95312.9375-.95312.64062 0 .79687.59375.79687 1.04687 0 .45313-.15625 1.14063-.84375 1.14063-.39062 0-.64062-.07813-.76562-.07813s-.17188.09375-.17188.25c0 .17188.04688.26563.17188.26563s.375-.09375.76562-.09375c.64063 0 1.04688.54687 1.04688 1.35937 0 .96875-.4375 1.34375-1.01563 1.34375-.51562 0-.875-.39062-1.0625-.9375-.04687-.15625-.14062-.25-.26562-.25-.20313 0-.53125.17188-.53125.5m0 0"/><path id="l" d="M.23438-2.03125c0 1.17188.375 2.10938 1.4375 2.10938 1.04687 0 1.42187-.9375 1.42187-2.10938 0-1.15625-.375-2.09375-1.42187-2.09375-1.0625 0-1.4375.9375-1.4375 2.09375m.76562 0c0-.84375.125-1.85937.67188-1.85937.53125 0 .65625 1.01562.65625 1.85937 0 .85938-.125 1.85938-.65625 1.85938-.54688 0-.67188-1-.67188-1.85938m0 0"/><path id="m" d="m.3125.76563.15625.125c.29688-.28126.8125-.71875.8125-1.20313 0-.3125-.17187-.57812-.46875-.57812-.23437 0-.35937.1875-.35937.32812 0 .23438.17187.34375.17187.59375C.625.29688.5.54688.3125.76563m0 0"/><path id="n" d="M.1875-.67187c0 .25.35938.75 1.32813.75.92187 0 1.5-.4375 1.5-1.21875 0-.82813-.73438-1.04688-1.03125-1.07813v-.01562c.32812-.0625.85937-.29688.85937-.89063 0-.75-.625-1-1.26562-1-.76563 0-1.25.42188-1.25.76563 0 .21875.26562.32812.375.32812s.15624-.0625.1875-.15625c.14062-.4375.34375-.70312.65625-.70312.42187 0 .53125.4375.53125.75 0 .29687-.09375.8125-.57813.8125-.26562 0-.45312-.07813-.54687-.07813-.10938 0-.14063.07813-.14063.20313S.84375-2 .95313-2c.09374 0 .28124-.0625.54687-.0625.42188 0 .71875.3125.71875.95313 0 .67187-.29687.9375-.6875.9375-.34375 0-.57812-.25-.71875-.6875-.04687-.125-.10937-.1875-.21875-.1875-.17187 0-.40625.14062-.40625.375m0 0"/><path id="o" d="m.25-3.125.1875.03125.04688-.125c.07812-.15625.15625-.25.42187-.25h1.625c-.0625.21875-.1875.60938-.6875 1.26563C1.32813-1.51562.98438-.875.98438-.25c0 .28125.20312.32813.42187.32813.1875 0 .35938-.04688.35938-.29688.01562-.85937.15624-1.46875.4375-1.9375.46875-.75.75-1.14062.90625-1.82812l-.0625-.0625H.46875Zm0 0"/><path id="u" d="M.0625 0h1.45313l.04687-.20312-.28125-.01563c-.17187-.01562-.25-.07812-.25-.20312 0-.21875.0625-.51563.15625-.89063l.5-2.25h.01563C2.23438-2.375 2.76563-1.1875 3.28125 0h.5l.64063-2.875c.09375-.39062.15625-.625.21875-.82812.07812-.1875.17187-.25.34375-.26563L5.1875-4l.04688-.1875H3.76563L3.73438-4 4-3.96875c.17188.01563.26563.07813.26563.21875 0 .15625-.07813.48438-.15625.875l-.4375 1.9375h-.03125c-.48438-1.09375-.95313-2.17187-1.42188-3.25h-1.25L.92188-4l.34375.03125c.09374.01563.14062.0625.14062.15625 0 .04688 0 .09375-.01562.15625L.85938-1.3125C.76562-.9375.70312-.70312.625-.5c-.0625.20313-.15625.26563-.32812.28125l-.20313.01563Zm0 0"/><path id="v" d="M.1875-.07812.26563 0H2.875l.23438-.92187-.1875-.03126c-.15625.32813-.26563.375-.51563.375H.875C.96875-.85936 1.25-1.25 1.85938-1.625c.64062-.40625 1.0625-.70312 1.0625-1.35937 0-.84375-.57813-1.14063-1.26563-1.14063-.8125 0-1.32812.45313-1.32812.85938 0 .23437.26562.34375.40625.34375.125 0 .1875-.0625.21874-.1875.09376-.45313.3125-.78125.65626-.78125.39062 0 .53125.35937.53125.78125 0 .54687-.21875.95312-.8125 1.45312C.53125-.96875.26563-.51562.1875-.07812m0 0"/><path id="w" d="M.65625 0h2.0625v-.20312l-.45312-.03126C2.125-.25 2.0625-.29687 2.0625-.51561v-3.5625L2.01563-4.125l-1.34375.21875v.17188l.48437.07812c.125.01563.17188.0625.17188.26563v2.875c0 .21874-.0625.26562-.20313.28124l-.46875.03126Zm0 0"/><path id="C" d="m.85938-.6875.29687.3125L2.1875-1.39062 3.20313-.375l.3125-.3125L2.5-1.70312l1.01563-1.03125-.3125-.3125L2.1875-2.03125 1.15625-3.04687l-.29687.3125L1.875-1.70312Zm0 0"/><path id="D" d="M.51563-.8125h3.34375v-.45312H.51563Zm0-1.34375h3.34375v-.45312H.51563Zm0 0"/><path id="E" d="M.23438-1.92187c0 1.28125.45312 2 1.46875 2 .98437 0 1.45312-.60938 1.45312-1.39063 0-.84375-.53125-1.26562-1.1875-1.26562-.4375 0-.78125.28125-.96875.5 0-.9375.25-1.8125.8125-1.8125.26563 0 .45313.25.54688.625.03125.07812.09375.15625.20312.15625.14063 0 .39063-.10938.39063-.32813 0-.26562-.32813-.6875-1.09375-.6875-1 0-1.625.73438-1.625 2.20313m.76562.5c0-.35938.25-.76563.70313-.76563.35937 0 .6875.29688.6875 1 0 .59375-.20313 1.01563-.67188 1.01563-.48437 0-.71875-.5625-.71875-1.25m0 0"/><path id="F" d="m.125-1.21875.09375.14063H1.8125v.625c0 .17187-.0625.20312-.1875.21875l-.39062.03124V0h1.71875v-.20312l-.28125-.01563C2.54688-.25 2.5-.28125 2.5-.45312v-.625h.60938v-.32813H2.5v-2.64062h-.57812C1.3125-3.15625.67188-2.15625.125-1.21875m.53125-.1875c.32813-.625.73438-1.28125 1.15625-1.96875v1.96875Zm0 0"/><clipPath id="e"><path d="M.38672 56H43v48H.38672Zm0 0"/></clipPath><clipPath id="f"><path d="M.38672 92H43v49H.38672Zm0 0"/></clipPath></defs><use xlink:href="#a" x="5.13939" y="8.80483"/><use xlink:href="#b" x="9.09832" y="8.80483"/><use xlink:href="#c" x="11.82573" y="8.80483"/><use xlink:href="#b" x="15.54609" y="8.80483"/><use xlink:href="#d" x="18.15099" y="8.80483"/><g clip-path="url(#e)"><path fill="none" stroke="#000" stroke-miterlimit="10" stroke-width=".39678" d="M.58203 98.32031 37.28125 61.6211"/></g><g clip-path="url(#f)"><path fill="none" stroke="#000" stroke-miterlimit="10" stroke-width=".39678" d="m.58203 98.32031 36.69922 36.69922"/></g><path fill="none" stroke="#000" stroke-miterlimit="10" stroke-width=".39678" d="m62.96485 61.6211 29.36328-18.34767"/><use xlink:href="#g" x="46.52101" y="64.49244"/><use xlink:href="#h" x="53.05897" y="67.32974"/><use xlink:href="#g" x="96.88171" y="46.14298"/><use xlink:href="#i" x="103.41967" y="48.98028"/><path fill="none" stroke="#000" stroke-miterlimit="10" stroke-width=".39678" d="m118.01173 43.27343 29.35938-9.17578"/><use xlink:href="#g" x="151.9261" y="36.91896"/><use xlink:href="#j" x="158.46406" y="39.75626"/><path fill="none" stroke="#000" stroke-miterlimit="10" stroke-width=".39678" d="m118.01173 43.27343 29.35938 9.17579"/><use xlink:href="#k" x="151.9261" y="55.17084"/><use xlink:href="#j" x="159.71574" y="58.00815"/><path fill="none" stroke="#000" stroke-miterlimit="10" stroke-width=".39678" d="m62.96485 61.6211 29.36328 18.35156"/><use xlink:href="#k" x="96.88171" y="82.74532"/><use xlink:href="#i" x="104.67134" y="85.58132"/><path fill="none" stroke="#000" stroke-miterlimit="10" stroke-width=".39678" d="m118.01173 79.97266 29.35938-9.17579"/><use xlink:href="#g" x="151.9261" y="73.61688"/><use xlink:href="#j" x="158.46406" y="76.45419"/><path fill="none" stroke="#000" stroke-miterlimit="10" stroke-width=".39678" d="m118.01173 79.97266 29.35938 9.17578"/><use xlink:href="#k" x="151.9261" y="91.86976"/><use xlink:href="#j" x="159.71574" y="94.70706"/><path fill="none" stroke="#000" stroke-miterlimit="10" stroke-width=".39678" d="m62.96485 135.01953 29.36328-18.34765"/><use xlink:href="#k" x="45.27043" y="137.7927"/><use xlink:href="#h" x="53.06007" y="140.63"/><use xlink:href="#g" x="96.88171" y="119.53982"/><use xlink:href="#i" x="103.41967" y="122.37712"/><path fill="none" stroke="#000" stroke-miterlimit="10" stroke-width=".39678" d="m118.01173 116.67188 29.35938-9.17578"/><use xlink:href="#g" x="151.9261" y="110.3158"/><use xlink:href="#j" x="158.46406" y="113.1531"/><path fill="none" stroke="#000" stroke-miterlimit="10" stroke-width=".39678" d="m118.01173 116.67188 29.35938 9.17578"/><use xlink:href="#k" x="151.9261" y="128.56868"/><use xlink:href="#j" x="159.71574" y="131.40469"/><path fill="none" stroke="#000" stroke-miterlimit="10" stroke-width=".39678" d="m62.96485 135.01953 29.36328 18.35157"/><use xlink:href="#k" x="96.88171" y="156.14216"/><use xlink:href="#i" x="104.67134" y="158.97816"/><path fill="none" stroke="#000" stroke-miterlimit="10" stroke-width=".39678" d="m118.01173 153.3711 29.35938-9.17578"/><use xlink:href="#g" x="151.9261" y="147.01472"/><use xlink:href="#j" x="158.46406" y="149.85073"/><path fill="none" stroke="#000" stroke-miterlimit="10" stroke-width=".39678" d="m118.01173 153.3711 29.35938 9.17578"/><use xlink:href="#k" x="151.9261" y="165.2666"/><use xlink:href="#j" x="159.71574" y="168.1039"/><use xlink:href="#l" x="14.40921" y="70.85685"/><use xlink:href="#m" x="17.72981" y="70.85685"/><use xlink:href="#n" x="20.13483" y="70.85685"/><use xlink:href="#l" x="14.40921" y="129.01674"/><use xlink:href="#m" x="17.72981" y="129.01674"/><use xlink:href="#o" x="20.13483" y="129.01674"/><use xlink:href="#l" x="69.4536" y="47.00225"/><use xlink:href="#m" x="72.7742" y="47.00225"/><use xlink:href="#n" x="75.17922" y="47.00225"/><use xlink:href="#l" x="69.4536" y="79.4735"/><use xlink:href="#m" x="72.7742" y="79.4735"/><use xlink:href="#o" x="75.17922" y="79.4735"/><use xlink:href="#l" x="69.4536" y="120.40009"/><use xlink:href="#m" x="72.7742" y="120.40009"/><use xlink:href="#n" x="75.17922" y="120.40009"/><use xlink:href="#l" x="69.4536" y="152.87034"/><use xlink:href="#m" x="72.7742" y="152.87034"/><use xlink:href="#o" x="75.17922" y="152.87034"/><use xlink:href="#l" x="124.498" y="33.24091"/><use xlink:href="#m" x="127.8186" y="33.24091"/><use xlink:href="#n" x="130.22361" y="33.24091"/><use xlink:href="#l" x="124.498" y="56.53692"/><use xlink:href="#m" x="127.8186" y="56.53692"/><use xlink:href="#o" x="130.22361" y="56.53692"/><use xlink:href="#l" x="124.498" y="69.93883"/><use xlink:href="#m" x="127.8186" y="69.93883"/><use xlink:href="#n" x="130.22361" y="69.93883"/><use xlink:href="#l" x="124.498" y="93.23584"/><use xlink:href="#m" x="127.8186" y="93.23584"/><use xlink:href="#o" x="130.22361" y="93.23584"/><use xlink:href="#l" x="124.498" y="106.63775"/><use xlink:href="#m" x="127.8186" y="106.63775"/><use xlink:href="#n" x="130.22361" y="106.63775"/><use xlink:href="#l" x="124.498" y="129.93376"/><use xlink:href="#m" x="127.8186" y="129.93376"/><use xlink:href="#o" x="130.22361" y="129.93376"/><use xlink:href="#l" x="124.498" y="143.33666"/><use xlink:href="#m" x="127.8186" y="143.33666"/><use xlink:href="#n" x="130.22361" y="143.33666"/><use xlink:href="#l" x="124.498" y="166.63268"/><use xlink:href="#m" x="127.8186" y="166.63268"/><use xlink:href="#o" x="130.22361" y="166.63268"/><use xlink:href="#p" x="225.309" y="8.79189"/><use xlink:href="#q" x="228.84883" y="8.79189"/><use xlink:href="#r" x="232.20811" y="8.79189"/><use xlink:href="#d" x="234.14244" y="8.79189"/><use xlink:href="#s" x="237.34053" y="8.79189"/><use xlink:href="#b" x="241.21564" y="8.79189"/><use xlink:href="#t" x="245.27773" y="8.79189"/><use xlink:href="#d" x="248.9981" y="8.79189"/><use xlink:href="#u" x="253.53057" y="8.79189"/><use xlink:href="#n" x="225.309" y="36.12341"/><use xlink:href="#v" x="225.309" y="54.50872"/><use xlink:href="#v" x="225.309" y="72.85817"/><use xlink:href="#w" x="225.309" y="91.20664"/><use xlink:href="#v" x="225.309" y="109.5561"/><use xlink:href="#w" x="225.309" y="127.90556"/><use xlink:href="#w" x="225.309" y="146.25501"/><use xlink:href="#l" x="225.309" y="164.56863"/><use xlink:href="#x" x="298.6919" y="8.79189"/><use xlink:href="#b" x="302.62504" y="8.79189"/><use xlink:href="#y" x="305.31376" y="8.79189"/><use xlink:href="#c" x="308.91806" y="8.79189"/><use xlink:href="#q" x="312.63842" y="8.79189"/><use xlink:href="#c" x="315.99771" y="8.79189"/><use xlink:href="#z" x="319.71807" y="8.79189"/><use xlink:href="#r" x="321.69753" y="8.79189"/><use xlink:href="#z" x="323.63186" y="8.79189"/><use xlink:href="#A" x="325.61133" y="8.79189"/><use xlink:href="#B" x="327.91318" y="8.79189"/><use xlink:href="#l" x="298.6919" y="35.71419"/><use xlink:href="#m" x="302.0125" y="35.71419"/><use xlink:href="#n" x="304.41752" y="35.71419"/><use xlink:href="#C" x="308.63436" y="35.71419"/><use xlink:href="#l" x="313.88284" y="35.71419"/><use xlink:href="#m" x="317.20344" y="35.71419"/><use xlink:href="#n" x="319.6149" y="35.71419"/><use xlink:href="#C" x="323.82529" y="35.71419"/><use xlink:href="#l" x="329.08022" y="35.71419"/><use xlink:href="#m" x="332.40082" y="35.71419"/><use xlink:href="#n" x="334.80584" y="35.71419"/><use xlink:href="#D" x="339.38375" y="35.71419"/><use xlink:href="#l" x="344.99976" y="35.71419"/><use xlink:href="#m" x="348.32036" y="35.71419"/><use xlink:href="#l" x="350.72537" y="35.71419"/><use xlink:href="#v" x="354.04597" y="35.71419"/><use xlink:href="#o" x="357.36657" y="35.71419"/><use xlink:href="#l" x="298.6919" y="54.06365"/><use xlink:href="#m" x="302.0125" y="54.06365"/><use xlink:href="#n" x="304.41752" y="54.06365"/><use xlink:href="#C" x="308.63436" y="54.06365"/><use xlink:href="#l" x="313.88284" y="54.06365"/><use xlink:href="#m" x="317.20344" y="54.06365"/><use xlink:href="#n" x="319.6149" y="54.06365"/><use xlink:href="#C" x="323.82529" y="54.06365"/><use xlink:href="#l" x="329.08022" y="54.06365"/><use xlink:href="#m" x="332.40082" y="54.06365"/><use xlink:href="#o" x="334.80584" y="54.06365"/><use xlink:href="#D" x="339.38375" y="54.06365"/><use xlink:href="#l" x="344.99976" y="54.06365"/><use xlink:href="#m" x="348.32036" y="54.06365"/><use xlink:href="#l" x="350.72537" y="54.06365"/><use xlink:href="#E" x="354.04597" y="54.06365"/><use xlink:href="#n" x="357.36657" y="54.06365"/><use xlink:href="#l" x="298.6919" y="72.4131"/><use xlink:href="#m" x="302.0125" y="72.4131"/><use xlink:href="#n" x="304.41752" y="72.4131"/><use xlink:href="#C" x="308.63436" y="72.4131"/><use xlink:href="#l" x="313.88284" y="72.4131"/><use xlink:href="#m" x="317.20344" y="72.4131"/><use xlink:href="#o" x="319.6149" y="72.4131"/><use xlink:href="#C" x="323.82529" y="72.4131"/><use xlink:href="#l" x="329.08022" y="72.4131"/><use xlink:href="#m" x="332.40082" y="72.4131"/><use xlink:href="#n" x="334.80584" y="72.4131"/><use xlink:href="#D" x="339.38375" y="72.4131"/><use xlink:href="#l" x="344.99976" y="72.4131"/><use xlink:href="#m" x="348.32036" y="72.4131"/><use xlink:href="#l" x="350.72537" y="72.4131"/><use xlink:href="#E" x="354.04597" y="72.4131"/><use xlink:href="#n" x="357.36657" y="72.4131"/><use xlink:href="#l" x="298.6919" y="90.76256"/><use xlink:href="#m" x="302.0125" y="90.76256"/><use xlink:href="#n" x="304.41752" y="90.76256"/><use xlink:href="#C" x="308.63436" y="90.76256"/><use xlink:href="#l" x="313.88284" y="90.76256"/><use xlink:href="#m" x="317.20344" y="90.76256"/><use xlink:href="#o" x="319.6149" y="90.76256"/><use xlink:href="#C" x="323.82529" y="90.76256"/><use xlink:href="#l" x="329.08022" y="90.76256"/><use xlink:href="#m" x="332.40082" y="90.76256"/><use xlink:href="#o" x="334.80584" y="90.76256"/><use xlink:href="#D" x="339.38375" y="90.76256"/><use xlink:href="#l" x="344.99976" y="90.76256"/><use xlink:href="#m" x="348.32036" y="90.76256"/><use xlink:href="#w" x="350.72537" y="90.76256"/><use xlink:href="#F" x="354.04597" y="90.76256"/><use xlink:href="#o" x="357.36657" y="90.76256"/><use xlink:href="#l" x="298.6919" y="109.11102"/><use xlink:href="#m" x="302.0125" y="109.11102"/><use xlink:href="#o" x="304.41752" y="109.11102"/><use xlink:href="#C" x="308.63436" y="109.11102"/><use xlink:href="#l" x="313.88284" y="109.11102"/><use xlink:href="#m" x="317.20344" y="109.11102"/><use xlink:href="#n" x="319.6149" y="109.11102"/><use xlink:href="#C" x="323.82529" y="109.11102"/><use xlink:href="#l" x="329.08022" y="109.11102"/><use xlink:href="#m" x="332.40082" y="109.11102"/><use xlink:href="#n" x="334.80584" y="109.11102"/><use xlink:href="#D" x="339.38375" y="109.11102"/><use xlink:href="#l" x="344.99976" y="109.11102"/><use xlink:href="#m" x="348.32036" y="109.11102"/><use xlink:href="#l" x="350.72537" y="109.11102"/><use xlink:href="#E" x="354.04597" y="109.11102"/><use xlink:href="#n" x="357.36657" y="109.11102"/><use xlink:href="#l" x="298.6919" y="127.46048"/><use xlink:href="#m" x="302.0125" y="127.46048"/><use xlink:href="#o" x="304.41752" y="127.46048"/><use xlink:href="#C" x="308.63436" y="127.46048"/><use xlink:href="#l" x="313.88284" y="127.46048"/><use xlink:href="#m" x="317.20344" y="127.46048"/><use xlink:href="#n" x="319.6149" y="127.46048"/><use xlink:href="#C" x="323.82529" y="127.46048"/><use xlink:href="#l" x="329.08022" y="127.46048"/><use xlink:href="#m" x="332.40082" y="127.46048"/><use xlink:href="#o" x="334.80584" y="127.46048"/><use xlink:href="#D" x="339.38375" y="127.46048"/><use xlink:href="#l" x="344.99976" y="127.46048"/><use xlink:href="#m" x="348.32036" y="127.46048"/><use xlink:href="#w" x="350.72537" y="127.46048"/><use xlink:href="#F" x="354.04597" y="127.46048"/><use xlink:href="#o" x="357.36657" y="127.46048"/><use xlink:href="#l" x="298.6919" y="145.80994"/><use xlink:href="#m" x="302.0125" y="145.80994"/><use xlink:href="#o" x="304.41752" y="145.80994"/><use xlink:href="#C" x="308.63436" y="145.80994"/><use xlink:href="#l" x="313.88284" y="145.80994"/><use xlink:href="#m" x="317.20344" y="145.80994"/><use xlink:href="#o" x="319.6149" y="145.80994"/><use xlink:href="#C" x="323.82529" y="145.80994"/><use xlink:href="#l" x="329.08022" y="145.80994"/><use xlink:href="#m" x="332.40082" y="145.80994"/><use xlink:href="#n" x="334.80584" y="145.80994"/><use xlink:href="#D" x="339.38375" y="145.80994"/><use xlink:href="#l" x="344.99976" y="145.80994"/><use xlink:href="#m" x="348.32036" y="145.80994"/><use xlink:href="#w" x="350.72537" y="145.80994"/><use xlink:href="#F" x="354.04597" y="145.80994"/><use xlink:href="#o" x="357.36657" y="145.80994"/><use xlink:href="#l" x="298.6919" y="164.1594"/><use xlink:href="#m" x="302.0125" y="164.1594"/><use xlink:href="#o" x="304.41752" y="164.1594"/><use xlink:href="#C" x="308.63436" y="164.1594"/><use xlink:href="#l" x="313.88284" y="164.1594"/><use xlink:href="#m" x="317.20344" y="164.1594"/><use xlink:href="#o" x="319.6149" y="164.1594"/><use xlink:href="#C" x="323.82529" y="164.1594"/><use xlink:href="#l" x="329.08022" y="164.1594"/><use xlink:href="#m" x="332.40082" y="164.1594"/><use xlink:href="#o" x="334.80584" y="164.1594"/><use xlink:href="#D" x="339.38375" y="164.1594"/><use xlink:href="#l" x="344.99976" y="164.1594"/><use xlink:href="#m" x="348.32036" y="164.1594"/><use xlink:href="#n" x="350.72537" y="164.1594"/><use xlink:href="#F" x="354.04597" y="164.1594"/><use xlink:href="#n" x="357.36657" y="164.1594"/></svg>