<svg xmlns="http://www.w3.org/2000/svg" xmlns:xlink="http://www.w3.org/1999/xlink" width="858.595pt" height="263.109pt" viewBox="0 0 858.595 263.109"><defs><path id="i" d="M.35938-3.10937C.35938-1.3125.9375.10938 2.5625.10938S4.75-1.3125 4.75-3.10937c0-1.79688-.5625-3.23438-2.1875-3.23438S.35938-4.90625.35938-3.10937m1.1875 0c0-1.3125.17187-2.85938 1.01562-2.85938.82813 0 1.01563 1.54688 1.01563 2.85938 0 1.29687-.1875 2.84375-1.01563 2.84375-.84375 0-1.01562-1.54688-1.01562-2.84375m0 0"/><path id="j" d="M.28125-.125.39063 0h4.03125l.35937-1.40625-.29687-.04687c-.23438.48437-.39063.5625-.78125.5625H1.34375C1.48438-1.3125 1.92188-1.92187 2.875-2.5 3.84375-3.125 4.5-3.57812 4.5-4.57812c0-1.3125-.89062-1.76563-1.95312-1.76563C1.29688-6.34375.5-5.64062.5-5.01562c0 .35937.40625.53125.64063.53125.17187 0 .28124-.09375.32812-.29688.15625-.6875.48438-1.1875 1.01563-1.1875.59375 0 .8125.53125.8125 1.20313 0 .8125-.34375 1.45312-1.25 2.21875C.82813-1.5.39063-.79687.28124-.125m0 0"/><path id="k" d="m.20313-1.875.125.23438h2.45312v.9375c0 .26562-.09375.32812-.28125.34375l-.60937.04687V0h2.64062v-.3125l-.4375-.03125c-.1875-.03125-.25-.09375-.25-.35937v-.9375h.9375v-.53125h-.9375v-4.0625h-.89062c-.92188 1.375-1.90625 2.92187-2.75 4.35937m.8125-.29687c.5-.9375 1.125-1.96875 1.76562-3.03125v3.03125Zm0 0"/><path id="l" d="M.35938-2.95312c0 1.96875.70312 3.0625 2.26562 3.0625 1.5 0 2.21875-.9375 2.21875-2.14063 0-1.28125-.8125-1.9375-1.8125-1.9375-.6875 0-1.20312.42188-1.5.78125.01563-1.45312.39063-2.78125 1.25-2.78125.40625 0 .70313.35938.84375.9375.04688.125.14063.23438.32813.23438.21875 0 .59375-.15625.59375-.48438 0-.40625-.51563-1.0625-1.6875-1.0625-1.54688 0-2.5 1.14063-2.5 3.39063m1.17187.76562c0-.5625.39063-1.17187 1.07813-1.17187.5625 0 1.0625.46875 1.0625 1.53125 0 .92187-.29688 1.5625-1.01563 1.5625-.76562 0-1.125-.85938-1.125-1.92188m0 0"/><path id="m" d="M.34375-1.71875c0 1.14063.84375 1.82813 2.21875 1.82813 1.39063 0 2.20313-.6875 2.20313-1.82813 0-.90625-.54688-1.45312-1.23438-1.64062.54688-.15625 1.01563-.625 1.01563-1.35938 0-1.04687-.8125-1.625-1.98438-1.625-1.1875 0-2 .59375-2 1.625 0 .73438.48438 1.20313 1.03125 1.35938-.6875.1875-1.25.73437-1.25 1.64062m1.1875.01563c0-.8125.35938-1.42188 1.03125-1.42188.67188 0 1.01563.60938 1.01563 1.42188 0 .82812-.32813 1.4375-1.01563 1.4375-.70312 0-1.03125-.60938-1.03125-1.4375M1.6875-4.75c0-.70312.3125-1.21875.875-1.21875.57813 0 .875.51563.875 1.21875 0 .65625-.29687 1.23438-.875 1.23438-.57812 0-.875-.57813-.875-1.23438m0 0"/><path id="n" d="M1.01563 0H4.1875v-.3125l-.71875-.04687c-.20312-.03125-.29687-.09375-.29687-.4375v-5.48438l-.07813-.0625L1.03125-6v.26563l.75.10937c.1875.03125.26563.10938.26563.40625v4.42188c0 .34375-.10938.40625-.32813.4375l-.70312.04687Zm0 0"/><path id="o" d="m.46875 1.17188.25.20312c.46875-.4375 1.25-1.10937 1.25-1.84375 0-.5-.26562-.90625-.70312-.90625-.375 0-.5625.28125-.5625.51563 0 .34375.26562.51562.26562.92187 0 .39063-.1875.78125-.5 1.10938m0 0"/><path id="p" d="M.28125-1.01562c0 .375.5625 1.125 2.04688 1.125C3.75.10938 4.64063-.5625 4.64063-1.75c0-1.28125-1.14063-1.60937-1.57813-1.65625v-.03125c.5-.10937 1.29688-.45312 1.29688-1.35937 0-1.15625-.95313-1.54688-1.9375-1.54688C1.25-6.34375.5-5.70312.5-5.17187c0 .34375.40625.51562.57813.51562.15624 0 .25-.09375.29687-.25.21875-.67187.51563-1.0625 1-1.0625.65625 0 .8125.67188.8125 1.14063 0 .45312-.125 1.25-.875 1.25-.40625 0-.6875-.10938-.85937-.10938-.15626 0-.20313.10938-.20313.29688 0 .20312.04688.32812.20313.32812.17187 0 .4375-.10937.85937-.10937.64063 0 1.09375.5 1.09375 1.45312 0 1.03125-.4375 1.45313-1.0625 1.45313-.51562 0-.89062-.39063-1.10937-1.0625q-.07032-.28126-.32813-.28126c-.25 0-.625.20313-.625.59376m0 0"/><path id="s" d="M.79688-2.29687h2.21875V-.0625h.6875v-2.23437h2.21875v-.67188H3.70313v-2.23437h-.6875v2.23437H.79688Zm0 0"/><path id="t" d="M.5625-.79687c0 .39062.51563.90625 1.53125.90625 1.125 0 1.6875-.67188 1.6875-1.42188 0-.5625-.3125-.98437-.85937-1.42187-.54688-.42188-.70313-.73438-.70313-1.03125 0-.28125.21875-.54688.51563-.54688.26562 0 .48437.20313.71875.67188.0625.14062.15625.20312.29687.20312.21875 0 .53125-.15625.53125-.48437 0-.29688-.375-.76563-1.3125-.76563-1.04687 0-1.59375.67188-1.59375 1.4375 0 .51563.375.9375.8125 1.29688.40625.3125.73438.70312.73438 1.09375 0 .35937-.26563.59375-.59375.59375s-.625-.23438-.85938-.82813c-.0625-.17187-.17187-.28125-.35937-.28125-.28126 0-.54688.28125-.54688.57813m0 0"/><path id="u" d="M.73438-2.29687h5.25v-.67188h-5.25Zm0 0"/><path id="q" d="M1.42188 0h4.375v-.40625L4.75-.5c-.28125-.03125-.42187-.125-.42187-.60937V-8.8125l-.09375-.07812-2.79688.48437v.34375l1.125.15625c.25.03125.32813.125.32813.53125v6.26563c0 .48437-.125.57812-.42188.60937l-1.04687.09375Zm0 0"/><path id="r" d="M.54688-4.09375c0 2.78125.98437 4.25 3.0625 4.25 2.03125 0 3.0625-1.23437 3.0625-2.96875 0-1.78125-1.125-2.73437-2.51563-2.73437-.98437 0-1.71875.64062-2.10937 1.10937.01562-2.42187.65625-3.96875 1.84375-3.96875.59375 0 .98437.51563 1.20312 1.29688.04688.17187.17188.3125.40625.3125.29688 0 .75-.23438.75-.64063 0-.5625-.65625-1.45312-2.26562-1.45312-2.125 0-3.4375 1.60937-3.4375 4.79687m1.5 1c0-.76562.54687-1.6875 1.57812-1.6875.8125 0 1.54688.70313 1.54688 2.1875 0 1.34375-.45313 2.26563-1.51563 2.26563-1.07812 0-1.60937-1.23438-1.60937-2.76563m0 0"/><path id="v" d="m1.59375-1.98437.45313.21874c.39062-.89062.9375-1.70312 1.59375-1.70312 1.25 0 4.34375 1.82813 6.17187 1.82813 1.625 0 1.96875-1.8125 2.07813-2.78125l-.46875-.25c-.34375.90625-.875 1.76562-1.54688 1.76562-1.35937 0-4.54687-1.875-6.35937-1.875-.95313 0-1.8125 1.84375-1.92188 2.79688m0-4.10938.45313.21875c.39062-.89062.9375-1.71875 1.59375-1.71875 1.25 0 4.34375 1.82813 6.17187 1.82813 1.625 0 1.96875-1.79688 2.07813-2.78125l-.46875-.23438c-.34375.89063-.875 1.76563-1.54688 1.76563-1.35937 0-4.54687-1.875-6.35937-1.875-.95313 0-1.8125 1.84375-1.92188 2.79687m0 0"/><path id="w" d="M.8125-5.76562c0 4.03125 1.46875 5.98437 4.26563 5.98437 2.76562 0 4.23437-1.67187 4.23437-4.20312S7.76563-7.89062 5.76563-7.89062c-1.46875 0-2.5625 1-3.0625 1.60937.01562-4.10937 1.15625-5.75 2.84375-5.75.84375 0 1.46875.71875 1.73437 1.78125.0625.21875.20313.40625.48438.40625.42187 0 1-.34375 1-.85937 0-.75-.92188-1.98438-3.17188-1.98438-2.95312 0-4.78125 2.28125-4.78125 6.92188m1.89063 1.35937c0-1.14062.85937-2.53125 2.42187-2.53125 1.17188 0 2.32813 1.07813 2.32813 3.21875C7.45313-1.75 6.6875-.4375 5.125-.4375c-1.625 0-2.42187-1.73437-2.42187-3.96875m0 0"/><path id="x" d="M.78125-3.39062c0 1.875 1.14063 3.60937 4.15625 3.60937 3.03125 0 4.17188-1.73437 4.17188-3.60937 0-1.90625-1.1875-3.03125-2.45313-3.32813 1.125-.29687 2.04688-1.26562 2.04688-2.79687 0-2.01563-1.60938-3.17188-3.76563-3.17188-2.14062 0-3.75 1.15625-3.75 3.17188 0 1.53125.95313 2.5 2.0625 2.79687C2-6.42187.78125-5.29687.78125-3.39062m1.85938.04687c0-1.70312.8125-2.96875 2.29687-2.96875 1.5 0 2.3125 1.26563 2.3125 2.96875C7.25-1.6875 6.51563-.4375 4.9375-.4375c-1.5625 0-2.29687-1.25-2.29687-2.90625M3-9.54687c0-1.4375.67188-2.48438 1.9375-2.48438 1.28125 0 1.95313 1.04688 1.95313 2.48438 0 1.26562-.59375 2.5625-1.95313 2.5625C3.59375-6.98437 3-8.28125 3-9.54687m0 0"/><path id="y" d="M.9375-9.28125c0 2.15625.95313 3.42188 2.9375 3.42188 2 0 2.9375-1.26563 2.9375-3.42188 0-.96875-.09375-1.57812-.23437-1.9375h3.82812L3.42188-.04687l.67187.53125 8.20313-13.15625-.625-.39063-.45313.625c-.32812.48438-.6875.57813-1.32812.625H6.73438c-.4375 0-.51563-.0625-.79688-.23437-.5-.39063-1.10937-.64063-2.0625-.64063-1.98437 0-2.9375 1.26563-2.9375 3.40625m1.39063 0c0-1.9375.60937-2.8125 1.54687-2.8125.95313 0 1.5625.875 1.5625 2.8125 0 1.79688-.57812 2.82813-1.5625 2.82813-.96875 0-1.54687-1.03125-1.54687-2.82813m6.51562 6.07813c0 2.15625.92188 3.42187 2.90625 3.42187 2.01563 0 2.96875-1.26562 2.96875-3.42187 0-2.14063-.95312-3.40625-2.96875-3.40625-1.98437 0-2.90625 1.26562-2.90625 3.40625m1.35938 0c0-1.9375.625-2.8125 1.54687-2.8125.95313 0 1.57813.875 1.57813 2.8125C13.32813-1.40625 12.75-.375 11.75-.375c-.96875 0-1.54687-1.03125-1.54687-2.82812m0 0"/><path id="z" d="M.90625-4.39062C.90625-1.625 2.35938.21875 4.82813.21875c1.01562 0 1.85937-.45312 2.875-1.26562v.90625L7.85938 0h3.03125v-.53125C9.54688-.64062 9.5-.67187 9.5-1.625V-13.75l-.14062-.09375-2.9375.45313v.48437l.70312.0625c.48438.04688.59375.15625.59375.875v3.04688C7.20313-9.1875 6.51563-9.375 5.65625-9.375c-1.53125 0-2.67187.5-3.45312 1.29688C1.40625-7.25.90625-6.01562.90625-4.39062m1.95313-.21875c0-2.42188.875-4.10938 2.78125-4.10938.875 0 1.59375.39063 1.92187 1.17188.15625.3125.15625.59375.15625 1.09375v3.28125c0 .40625 0 .73437-.10937 1.04687-.375.96875-1.1875 1.34375-2.17188 1.34375-1.70312 0-2.57812-1.6875-2.57812-3.82812m0 0"/><path id="A" d="M.90625-4.51562c0 2.96875 1.28125 4.73437 4.3125 4.73437 2.0625 0 3.14063-1.15625 3.64063-2.625l-.5625-.29687C7.78125-1.60937 7.0625-.73437 5.59375-.73437c-2.3125 0-2.78125-2.21875-2.73437-4.17188h5.375c.40625 0 .73437-.09375.73437-.71875 0-1.09375-.34375-3.75-3.76562-3.75-2.92188 0-4.29688 2.0625-4.29688 4.85938M2.875-5.625c0-.76562.28125-3.09375 2.23438-3.09375 1.71875 0 1.92187 1.76563 1.92187 2.5 0 .35938-.125.59375-.64062.59375Zm0 0"/><path id="B" d="m.875-3.125.20313 2.45313C1.75-.07812 2.875.21874 3.96875.21874c2.23438 0 3.5-1.17187 3.5-2.76562 0-1.64063-1.01562-2.375-2.9375-2.96875-.78125-.25-1.98437-.64063-1.98437-1.6875 0-.98438.73437-1.51563 1.65625-1.51563 1.34375 0 1.96875 1.03125 2.10937 2.17188h.53125v-2.1875C6.23438-9.1875 5.28125-9.375 4.45313-9.375c-2.03125 0-3.40625.95313-3.40625 2.71875 0 1.54688 1.28125 2.25 2.82812 2.71875.82813.26563 2 .6875 2 1.95313 0 .95312-.73437 1.54687-1.71875 1.54687-1.51562 0-2.375-1.09375-2.75-2.6875Zm0 0"/><path id="C" d="M.5625-8.40625H2V-1.625C2-.67187 1.95313-.64062.59375-.53125V0h4.92188v-.53125C3.8125-.60937 3.75-.65625 3.75-1.60937v-6.79688h2.28125v-.75H3.75l-.07812-2.07812c-.0625-1.78125.59375-1.96875.89062-1.96875.40625 0 .79688.17187 1.28125 1.26562.09375.1875.23438.3125.51563.3125.375 0 .90625-.3125.90625-.85937 0-.625-.79688-1.35938-2.28125-1.35938-1.03125 0-1.89063.45313-2.35938 1.17188-.4375.65625-.625 1.625-.625 2.85937v.65625H.5625Zm0 0"/><path id="D" d="M.59375 0h4.92188v-.53125C3.85938-.64062 3.75-.67187 3.75-1.625V-6c0-1.42187.64063-1.92187 1.07813-1.92187.29687 0 .60937.10937 1.15625.42187.125.07813.26562.09375.375.09375.45312 0 .84375-.48437.84375-1.04687 0-.42188-.25-.92188-.98438-.92188-.67187 0-1.23437.40625-2.46875 1.48438L3.53125-9.375.6875-8.89062v.45312l.70313.09375C1.85938-8.26562 2-8.1875 2-7.5v5.875C2-.67187 1.90625-.64062.59375-.53125Zm0 0"/><path id="E" d="m3.75-10.48437.28125.375 2.8125-1.5625c.5625-.29688 1.0625-.625 1.0625-1.01563 0-.375-.45312-.8125-.73437-.8125-.32813 0-.64063.1875-1.1875.76563ZM.90625-4.51562c0 2.96875 1.28125 4.73437 4.3125 4.73437 2.0625 0 3.14063-1.15625 3.64063-2.625l-.5625-.29687C7.78125-1.60937 7.0625-.73437 5.59375-.73437c-2.3125 0-2.78125-2.21875-2.73437-4.17188h5.375c.40625 0 .73437-.09375.73437-.71875 0-1.09375-.34375-3.75-3.76562-3.75-2.92188 0-4.29688 2.0625-4.29688 4.85938M2.875-5.625c0-.76562.28125-3.09375 2.23438-3.09375 1.71875 0 1.92187 1.76563 1.92187 2.5 0 .35938-.125.59375-.64062.59375Zm0 0"/><path id="F" d="M.90625-4.34375c0 2.96875 1.64063 4.5625 3.90625 4.5625 1.04688 0 1.9375-.5 2.90625-1.21875v3.65625c0 .95313-.09375 1-1.48437 1.09375v.54688h4.65625V3.75C9.59375 3.65625 9.5 3.60938 9.5 2.65625V-9.375h-.53125l-.78125.57813C7.46875-9.1875 6.51563-9.375 5.71875-9.375c-1.48437 0-2.6875.45313-3.5 1.29688C1.40625-7.25.90625-6.03125.90625-4.34375m1.95313-.25c0-2.29687.79687-4.125 2.70312-4.125.96875 0 1.67188.34375 2.03125 1.29688.10938.29687.125.60937.125 1.0625v3.15625c0 .42187 0 .73437-.10937 1.03125C7.25-1.17187 6.53125-.78125 5.5-.78125c-1.84375 0-2.64062-1.70312-2.64062-3.8125m0 0"/><path id="G" d="m.48438-8.4375.70312.09375c.48438.07813.59375.15625.59375.84375v4.92188C1.78125-.4375 3.0625.21875 4.45313.21875c1.57812 0 2.875-1.07812 3.40625-1.32812L8.04688 0h3v-.53125C9.75-.64062 9.625-.67187 9.625-1.625V-9.25L9.5-9.375l-2.92187.48438v.45312l.70312.09375c.48438.07813.60938.15625.60938.84375v4.20313c0 .51562-.0625.9375-.17188 1.10937-.4375.85938-1.29687 1.40625-2.28125 1.40625-1.09375 0-1.875-.6875-1.875-2.14062V-9.25l-.14062-.125-2.9375.48438Zm0 0"/><path id="H" d="M.59375 0h4.54688v-.53125C3.8125-.64062 3.75-.67187 3.75-1.625V-6c0-.46875.01563-.71875.1875-1.01562.39063-.73438 1.21875-1.34375 2.21875-1.34375 1.26563 0 1.96875.6875 1.96875 2.32812V-1.625c0 .95313-.0625.98438-1.40625 1.09375V0h4.5625v-.53125C9.95313-.64062 9.875-.67187 9.875-1.625v-4.76562c0-1.89063-1.03125-2.98438-2.75-2.98438-1.39062 0-2.23437.67188-3.39062 1.4375L3.46875-9.375.6875-8.89062v.45312l.70313.09375C1.85938-8.26562 2-8.1875 2-7.5v5.875C2-.67187 1.95313-.64062.59375-.53125Zm0 0"/><path id="I" d="M.90625-4.48437C.90625-1.375 2.4375.21875 5.25.21875c1.29688 0 3.07813-.67187 3.59375-2.6875l-.5625-.25C7.70313-1.40625 6.96875-.75 5.59375-.75 3.375-.75 2.85938-3.07812 2.85938-4.82812c0-2.78125 1.09375-3.89063 2.39062-3.89063.84375 0 1.39063.60938 1.76563 1.625.10937.29688.23437.48438.59375.48438.375 0 1.09375-.23438 1.09375-.95313 0-.85937-1.23438-1.8125-3.26563-1.8125-3.39062 0-4.53125 2.40625-4.53125 4.89063m0 0"/><clipPath id="a"><path d="M34.46484 172H48v16H34.46484Zm0 0"/></clipPath><clipPath id="b"><path d="M55 234h5v2.48047h-5Zm0 0"/></clipPath><clipPath id="c"><path d="M49 228h16v8.48047H49Zm0 0"/></clipPath><clipPath id="d"><path d="M326 234h5v2.48047h-5Zm0 0"/></clipPath><clipPath id="e"><path d="M320 228h16v8.48047h-16Zm0 0"/></clipPath><clipPath id="f"><path d="M586 115h13.51953v17H586Zm0 0"/></clipPath><clipPath id="g"><path d="M597 121h2.51953v5H597Zm0 0"/></clipPath><clipPath id="h"><path d="M591 115h8.51953v17H591Zm0 0"/></clipPath></defs><path fill="#FFF" stroke="#FFF" stroke-miterlimit="10" stroke-width=".39715" d="M34.46484 236.48047V10.47266h565.02344v226.0078Zm0 0"/><path fill="#E5F2F2" stroke="#E5F2F2" stroke-miterlimit="10" stroke-width=".39715" d="M34.46484 216.1836v-91.2422h565.02344v91.2422Zm0 0"/><path fill="none" stroke="#000" stroke-miterlimit="10" stroke-width=".39715" d="M34.46484 236.48047V10.47266h565.02344v226.0078Zm0 0"/><path fill="none" stroke="#EC008C" stroke-dasharray="2.9787277546 2.9787277546" stroke-miterlimit="10" stroke-width="1.19149" d="M34.46484 170.5625h565.02344"/><path d="M42.10156 179.97656c0-1.09765-.89062-1.98437-1.98828-1.98437s-1.98437.88672-1.98437 1.98437c0 1.09766.88672 1.98438 1.98437 1.98438 1.09766 0 1.98828-.88672 1.98828-1.98438m0 0"/><g clip-path="url(#a)"><path fill="none" stroke="#000" stroke-miterlimit="10" stroke-width=".39715" d="M42.10156 179.97656c0-1.09765-.89062-1.98437-1.98828-1.98437s-1.98437.88672-1.98437 1.98437c0 1.09766.88671 1.98438 1.98437 1.98438s1.98828-.88672 1.98828-1.98438Zm0 0"/></g><path stroke="#000" stroke-miterlimit="10" stroke-width=".39715" d="M47.75 123.48047c0-1.09766-.88672-1.98828-1.98438-1.98828-1.09765 0-1.98828.89062-1.98828 1.98828s.89063 1.98437 1.98828 1.98437c1.09766 0 1.98438-.88671 1.98438-1.98437Zm5.65234 56.49609c0-1.09765-.89062-1.98437-1.98828-1.98437-1.09375 0-1.98437.88672-1.98437 1.98437 0 1.09766.89062 1.98438 1.98437 1.98438 1.09766 0 1.98828-.88672 1.98828-1.98438Zm0 0"/><g clip-path="url(#b)"><path d="M59.05078 236.48047c0-1.09375-.88672-1.98438-1.98437-1.98438-1.09766 0-1.98828.89063-1.98828 1.98438 0 1.09766.89062 1.98828 1.98828 1.98828 1.09765 0 1.98437-.89062 1.98437-1.98828m0 0"/></g><g clip-path="url(#c)"><path fill="none" stroke="#000" stroke-miterlimit="10" stroke-width=".39715" d="M59.05078 236.48047c0-1.09375-.88672-1.98438-1.98437-1.98438-1.09766 0-1.98828.89063-1.98828 1.98438 0 1.09765.89062 1.98828 1.98828 1.98828 1.09765 0 1.98437-.89063 1.98437-1.98828Zm0 0"/></g><path stroke="#000" stroke-miterlimit="10" stroke-width=".39715" d="M64.70312 208.23047c0-1.09766-.89062-1.98828-1.98828-1.98828-1.09375 0-1.98437.89062-1.98437 1.98828s.89062 1.98437 1.98437 1.98437c1.09766 0 1.98828-.88671 1.98828-1.98437Zm5.64844-56.5c0-1.09375-.88672-1.98438-1.98437-1.98438-1.09766 0-1.98438.89063-1.98438 1.98438 0 1.09766.88672 1.98828 1.98438 1.98828 1.09765 0 1.98437-.89062 1.98437-1.98828Zm5.65234 0c0-1.09375-.89062-1.98438-1.98828-1.98438-1.09375 0-1.98437.89063-1.98437 1.98438 0 1.09766.89062 1.98828 1.98437 1.98828 1.09766 0 1.98829-.89062 1.98829-1.98828Zm5.64844 56.5c0-1.09766-.88672-1.98828-1.98437-1.98828-1.09766 0-1.98438.89062-1.98438 1.98828s.88672 1.98437 1.98438 1.98437c1.09765 0 1.98437-.88671 1.98437-1.98437Zm5.65235-113.00391c0-1.09765-.89063-1.98437-1.98438-1.98437-1.09765 0-1.98828.88672-1.98828 1.98437 0 1.09766.89063 1.98438 1.98828 1.98438 1.09375 0 1.98438-.88672 1.98438-1.98438Zm5.65234 28.25391c0-1.09766-.89062-1.98828-1.98828-1.98828s-1.98437.89062-1.98437 1.98828.88671 1.98437 1.98437 1.98437 1.98828-.88671 1.98828-1.98437Zm5.64844 0c0-1.09766-.89063-1.98828-1.98438-1.98828-1.09765 0-1.98828.89062-1.98828 1.98828s.89063 1.98437 1.98828 1.98437c1.09375 0 1.98438-.88671 1.98438-1.98437Zm5.65234 28.25c0-1.09375-.89062-1.98438-1.98828-1.98438-1.09765 0-1.98437.89063-1.98437 1.98438 0 1.09766.88672 1.98828 1.98437 1.98828 1.09766 0 1.98828-.89062 1.98828-1.98828Zm5.64844 28.24609c0-1.09765-.88672-1.98437-1.98438-1.98437-1.09765 0-1.98828.88672-1.98828 1.98437 0 1.09766.89063 1.98438 1.98828 1.98438 1.09766 0 1.98438-.88672 1.98438-1.98438Zm5.65235-56.49609c0-1.09766-.89063-1.98828-1.98829-1.98828-1.09375 0-1.98437.89062-1.98437 1.98828s.89062 1.98437 1.98437 1.98437c1.09766 0 1.98828-.88671 1.98828-1.98437Zm5.64843 56.49609c0-1.09765-.88672-1.98437-1.98437-1.98437-1.09766 0-1.98829.88672-1.98829 1.98437 0 1.09766.89063 1.98438 1.98829 1.98438s1.98437-.88672 1.98437-1.98438Zm5.65235 28.25391c0-1.09766-.89063-1.98828-1.98829-1.98828-1.09375 0-1.98437.89062-1.98437 1.98828s.89062 1.98437 1.98437 1.98437c1.09766 0 1.98829-.88671 1.98829-1.98437Zm5.64843-28.25391c0-1.09765-.88672-1.98437-1.98437-1.98437-1.09766 0-1.98438.88672-1.98438 1.98437 0 1.09766.88672 1.98438 1.98438 1.98438 1.09765 0 1.98437-.88672 1.98437-1.98438Zm5.65235-56.49609c0-1.09766-.89063-1.98828-1.98438-1.98828-1.09766 0-1.98828.89062-1.98828 1.98828s.89062 1.98437 1.98828 1.98437c1.09375 0 1.98438-.88671 1.98438-1.98437Zm5.64844-84.75781c0-1.09766-.88673-1.98829-1.98438-1.98829-1.09766 0-1.98438.89063-1.98438 1.98829 0 1.09375.88672 1.98437 1.98438 1.98437 1.09765 0 1.98437-.89062 1.98437-1.98437Zm5.65234 56.5039c0-1.09765-.89063-1.98437-1.98438-1.98437-1.09765 0-1.98828.88672-1.98828 1.98437 0 1.09766.89063 1.98438 1.98828 1.98438 1.09375 0 1.98438-.88672 1.98438-1.98438Zm5.65234 0c0-1.09765-.89062-1.98437-1.98828-1.98437s-1.98438.88672-1.98438 1.98437c0 1.09766.88672 1.98438 1.98438 1.98438s1.98828-.88672 1.98828-1.98438Zm5.64844 28.25391c0-1.09766-.89063-1.98828-1.98438-1.98828-1.09765 0-1.98828.89062-1.98828 1.98828s.89063 1.98437 1.98828 1.98437c1.09375 0 1.98438-.88671 1.98438-1.98437Zm5.65234 28.25c0-1.09375-.89062-1.98438-1.98828-1.98438-1.09765 0-1.98437.89063-1.98437 1.98438 0 1.09766.88672 1.98828 1.98437 1.98828 1.09766 0 1.98828-.89062 1.98828-1.98828Zm5.64844-28.25c0-1.09766-.88672-1.98828-1.98438-1.98828-1.09765 0-1.98828.89062-1.98828 1.98828s.89063 1.98437 1.98828 1.98437c1.09766 0 1.98438-.88671 1.98438-1.98437Zm5.65234 84.75c0-1.09766-.89062-1.98828-1.98828-1.98828-1.09375 0-1.98437.89062-1.98437 1.98828s.89062 1.98437 1.98437 1.98437c1.09766 0 1.98828-.88671 1.98828-1.98437Zm5.64844-84.75c0-1.09766-.88672-1.98828-1.98437-1.98828-1.09766 0-1.98829.89062-1.98829 1.98828s.89063 1.98437 1.98829 1.98437 1.98437-.88671 1.98437-1.98437Zm5.65234 28.25c0-1.09375-.89062-1.98438-1.98828-1.98438-1.09375 0-1.98437.89063-1.98437 1.98438 0 1.09766.89062 1.98828 1.98437 1.98828 1.09766 0 1.98828-.89062 1.98828-1.98828Zm5.64844 0c0-1.09375-.88672-1.98438-1.98437-1.98438-1.09766 0-1.98438.89063-1.98438 1.98438 0 1.09766.88672 1.98828 1.98438 1.98828 1.09765 0 1.98437-.89062 1.98437-1.98828Zm5.65234-28.25c0-1.09766-.89062-1.98828-1.98437-1.98828-1.09765 0-1.98828.89062-1.98828 1.98828s.89063 1.98437 1.98828 1.98437c1.09375 0 1.98438-.88671 1.98438-1.98437Zm5.64844 28.25c0-1.09375-.88672-1.98438-1.98437-1.98438-1.09766 0-1.98438.89063-1.98438 1.98438 0 1.09766.88672 1.98828 1.98438 1.98828 1.09765 0 1.98437-.89062 1.98437-1.98828Zm5.65235-56.50391c0-1.09765-.89063-1.98437-1.98438-1.98437-1.09765 0-1.98828.88672-1.98828 1.98437 0 1.09766.89063 1.98438 1.98828 1.98438 1.09375 0 1.98438-.88672 1.98438-1.98438Zm5.65234 28.25391c0-1.09766-.89062-1.98828-1.98828-1.98828s-1.98438.89062-1.98438 1.98828.88672 1.98437 1.98438 1.98437 1.98828-.88671 1.98828-1.98437Zm5.64844 56.49609c0-1.09765-.89063-1.98437-1.98438-1.98437-1.09765 0-1.98828.88672-1.98828 1.98437 0 1.09766.89063 1.98438 1.98828 1.98438 1.09375 0 1.98438-.88672 1.98438-1.98438Zm5.65234 0c0-1.09765-.89062-1.98437-1.98828-1.98437s-1.98437.88672-1.98437 1.98437c0 1.09766.88671 1.98438 1.98437 1.98438s1.98828-.88672 1.98828-1.98438Zm5.64844-84.75c0-1.09765-.88672-1.98437-1.98437-1.98437-1.09766 0-1.98829.88672-1.98829 1.98437 0 1.09766.89063 1.98438 1.98829 1.98438s1.98437-.88672 1.98437-1.98438Zm5.65235 84.75c0-1.09765-.89063-1.98437-1.98829-1.98437-1.09375 0-1.98437.88672-1.98437 1.98437 0 1.09766.89062 1.98438 1.98437 1.98438 1.09766 0 1.98828-.88672 1.98828-1.98438Zm5.64843 28.25391c0-1.09766-.88672-1.98828-1.98437-1.98828-1.09766 0-1.98828.89062-1.98828 1.98828s.89062 1.98437 1.98828 1.98437c1.09765 0 1.98437-.88671 1.98437-1.98437Zm5.65234-113.00391c0-1.09765-.89062-1.98437-1.98828-1.98437-1.09375 0-1.98437.88672-1.98437 1.98437 0 1.09766.89062 1.98438 1.98437 1.98438 1.09766 0 1.98828-.88672 1.98828-1.98438Zm5.64844 113.00391c0-1.09766-.88672-1.98828-1.98437-1.98828-1.09766 0-1.98438.89062-1.98438 1.98828s.88672 1.98437 1.98438 1.98437c1.09765 0 1.98437-.88671 1.98437-1.98437Zm5.65235-28.25391c0-1.09765-.89063-1.98437-1.98438-1.98437-1.09766 0-1.98828.88672-1.98828 1.98437 0 1.09766.89062 1.98438 1.98828 1.98438 1.09375 0 1.98438-.88672 1.98438-1.98438Zm5.64844-56.49609c0-1.09766-.88672-1.98828-1.98438-1.98828s-1.98438.89062-1.98438 1.98828.88672 1.98437 1.98438 1.98437 1.98437-.88671 1.98437-1.98437Zm5.65234 56.49609c0-1.09765-.89063-1.98437-1.98438-1.98437-1.09765 0-1.98828.88672-1.98828 1.98437 0 1.09766.89063 1.98438 1.98828 1.98438 1.09375 0 1.98438-.88672 1.98438-1.98438Zm5.65234-84.75c0-1.09765-.89062-1.98437-1.98828-1.98437s-1.98438.88672-1.98438 1.98437c0 1.09766.88672 1.98438 1.98438 1.98438s1.98828-.88672 1.98828-1.98438Zm5.64844 84.75c0-1.09765-.88672-1.98437-1.98438-1.98437-1.09765 0-1.98828.88672-1.98828 1.98437 0 1.09766.89063 1.98438 1.98828 1.98438 1.09766 0 1.98438-.88672 1.98438-1.98438Zm5.65234 0c0-1.09765-.89062-1.98437-1.98828-1.98437s-1.98437.88672-1.98437 1.98437c0 1.09766.88671 1.98438 1.98437 1.98438s1.98828-.88672 1.98828-1.98438Zm5.64844-56.49609c0-1.09766-.88672-1.98828-1.98438-1.98828-1.09765 0-1.98828.89062-1.98828 1.98828s.89063 1.98437 1.98828 1.98437c1.09766 0 1.98438-.88671 1.98438-1.98437Zm5.65234-84.75781c0-1.09766-.89062-1.98829-1.98828-1.98829-1.09375 0-1.98437.89063-1.98437 1.98829 0 1.09375.89062 1.98437 1.98437 1.98437 1.09766 0 1.98828-.89062 1.98828-1.98437Zm5.64844 56.5039c0-1.09765-.88672-1.98437-1.98437-1.98437-1.09766 0-1.98438.88672-1.98438 1.98437 0 1.09766.88672 1.98438 1.98438 1.98438 1.09765 0 1.98437-.88672 1.98437-1.98438Zm5.65234 56.50391c0-1.09375-.89062-1.98438-1.98828-1.98438-1.09375 0-1.98437.89063-1.98437 1.98438 0 1.09766.89062 1.98828 1.98437 1.98828 1.09766 0 1.98828-.89062 1.98828-1.98828Zm5.64844 0c0-1.09375-.88672-1.98438-1.98437-1.98438-1.09766 0-1.98438.89063-1.98438 1.98438 0 1.09766.88672 1.98828 1.98438 1.98828 1.09765 0 1.98437-.89062 1.98437-1.98828Zm5.65234-56.50391c0-1.09765-.89062-1.98437-1.98437-1.98437-1.09766 0-1.98828.88672-1.98828 1.98437 0 1.09766.89062 1.98438 1.98828 1.98438 1.09375 0 1.98438-.88672 1.98438-1.98438Zm0 0"/><g clip-path="url(#d)"><path d="M330.27734 236.48047c0-1.09375-.88671-1.98438-1.98437-1.98438s-1.98438.89063-1.98438 1.98438c0 1.09766.88672 1.98828 1.98438 1.98828 1.09765 0 1.98437-.89062 1.98437-1.98828m0 0"/></g><g clip-path="url(#e)"><path fill="none" stroke="#000" stroke-miterlimit="10" stroke-width=".39715" d="M330.27734 236.48047c0-1.09375-.88672-1.98438-1.98437-1.98438-1.09766 0-1.98438.89063-1.98438 1.98438 0 1.09765.88672 1.98828 1.98438 1.98828 1.09765 0 1.98437-.89063 1.98437-1.98828Zm0 0"/></g><path stroke="#000" stroke-miterlimit="10" stroke-width=".39715" d="M335.92969 123.48047c0-1.09766-.89063-1.98828-1.98438-1.98828-1.09765 0-1.98828.89062-1.98828 1.98828s.89063 1.98437 1.98828 1.98437c1.09375 0 1.98438-.88671 1.98438-1.98437Zm5.65234 28.25c0-1.09375-.89062-1.98438-1.98828-1.98438s-1.98437.89063-1.98437 1.98438c0 1.09766.88671 1.98828 1.98437 1.98828s1.98828-.89062 1.98828-1.98828Zm5.64844-28.25c0-1.09766-.88672-1.98828-1.98438-1.98828-1.09765 0-1.98828.89062-1.98828 1.98828s.89063 1.98437 1.98828 1.98437c1.09766 0 1.98438-.88671 1.98438-1.98437Zm5.65234 0c0-1.09766-.89062-1.98828-1.98828-1.98828-1.09765 0-1.98437.89062-1.98437 1.98828s.88672 1.98437 1.98437 1.98437c1.09766 0 1.98828-.88671 1.98828-1.98437Zm5.64844 0c0-1.09766-.88672-1.98828-1.98438-1.98828-1.09765 0-1.98828.89062-1.98828 1.98828s.89063 1.98437 1.98828 1.98437c1.09766 0 1.98438-.88671 1.98438-1.98437Zm5.65235 56.49609c0-1.09765-.89063-1.98437-1.98829-1.98437-1.09375 0-1.98437.88672-1.98437 1.98437 0 1.09766.89062 1.98438 1.98437 1.98438 1.09766 0 1.98828-.88672 1.98828-1.98438Zm5.64843-56.49609c0-1.09766-.88672-1.98828-1.98437-1.98828-1.09766 0-1.98438.89062-1.98438 1.98828s.88672 1.98437 1.98438 1.98437c1.09765 0 1.98437-.88671 1.98437-1.98437Zm5.65235 56.49609c0-1.09765-.89063-1.98437-1.98829-1.98437-1.09375 0-1.98437.88672-1.98437 1.98437 0 1.09766.89062 1.98438 1.98437 1.98438 1.09766 0 1.98829-.88672 1.98829-1.98438Zm5.64843-84.75c0-1.09765-.88672-1.98437-1.98437-1.98437-1.09766 0-1.98438.88672-1.98438 1.98437 0 1.09766.88672 1.98438 1.98438 1.98438 1.09765 0 1.98437-.88672 1.98437-1.98438Zm5.65235-56.5039c0-1.09766-.89063-1.98829-1.98438-1.98829-1.09766 0-1.98828.89063-1.98828 1.98829 0 1.09375.89062 1.98437 1.98828 1.98437 1.09375 0 1.98438-.89062 1.98438-1.98437Zm5.65234 28.25c0-1.09766-.89063-1.98438-1.98828-1.98438-1.09766 0-1.98438.88672-1.98438 1.98438 0 1.09765.88672 1.98828 1.98438 1.98828 1.09765 0 1.98828-.89063 1.98828-1.98828Zm5.64844 141.25781c0-1.09766-.89063-1.98828-1.98438-1.98828-1.09765 0-1.98828.89062-1.98828 1.98828s.89063 1.98437 1.98828 1.98437c1.09375 0 1.98438-.88671 1.98438-1.98437Zm5.65234 0c0-1.09766-.89062-1.98828-1.98828-1.98828s-1.98438.89062-1.98438 1.98828.88672 1.98437 1.98438 1.98437 1.98828-.88671 1.98828-1.98437Zm5.64844-56.5c0-1.09375-.88672-1.98438-1.98438-1.98438-1.09765 0-1.98828.89063-1.98828 1.98438 0 1.09766.89063 1.98828 1.98828 1.98828 1.09766 0 1.98438-.89062 1.98438-1.98828Zm5.65234 0c0-1.09375-.89062-1.98438-1.98828-1.98438-1.09375 0-1.98437.89063-1.98437 1.98438 0 1.09766.89062 1.98828 1.98437 1.98828 1.09766 0 1.98828-.89062 1.98828-1.98828Zm5.64844 28.24609c0-1.09765-.88672-1.98437-1.98438-1.98437-1.09765 0-1.98828.88672-1.98828 1.98437 0 1.09766.89063 1.98438 1.98828 1.98438 1.09766 0 1.98438-.88672 1.98438-1.98438Zm5.65234 28.25391c0-1.09766-.89062-1.98828-1.98828-1.98828-1.09375 0-1.98437.89062-1.98437 1.98828s.89062 1.98437 1.98437 1.98437c1.09766 0 1.98828-.88671 1.98828-1.98437Zm5.64844-84.75c0-1.09766-.88672-1.98828-1.98437-1.98828-1.09766 0-1.98438.89062-1.98438 1.98828s.88672 1.98437 1.98438 1.98437c1.09765 0 1.98437-.88671 1.98437-1.98437Zm5.65234-28.25391c0-1.09765-.89062-1.98437-1.98828-1.98437-1.09375 0-1.98437.88672-1.98437 1.98437 0 1.09766.89062 1.98438 1.98437 1.98438 1.09766 0 1.98828-.88672 1.98828-1.98438Zm5.64844 84.75c0-1.09765-.88672-1.98437-1.98437-1.98437-1.09766 0-1.98438.88672-1.98438 1.98437 0 1.09766.88672 1.98438 1.98438 1.98438 1.09765 0 1.98437-.88672 1.98437-1.98438Zm5.65234 0c0-1.09765-.89062-1.98437-1.98437-1.98437-1.09765 0-1.98828.88672-1.98828 1.98437 0 1.09766.89063 1.98438 1.98828 1.98438 1.09375 0 1.98438-.88672 1.98438-1.98438Zm5.65235-56.49609c0-1.09766-.89063-1.98828-1.98828-1.98828-1.09766 0-1.98438.89062-1.98438 1.98828s.88672 1.98437 1.98438 1.98437c1.09765 0 1.98828-.88671 1.98828-1.98437Zm5.64844-28.25391c0-1.09765-.89063-1.98437-1.98438-1.98437-1.09765 0-1.98828.88672-1.98828 1.98437 0 1.09766.89063 1.98438 1.98828 1.98438 1.09375 0 1.98438-.88672 1.98438-1.98438Zm5.65234 84.75c0-1.09765-.89062-1.98437-1.98828-1.98437s-1.98438.88672-1.98438 1.98437c0 1.09766.88672 1.98438 1.98438 1.98438s1.98828-.88672 1.98828-1.98438Zm5.64844-28.24609c0-1.09375-.88672-1.98438-1.98438-1.98438-1.09765 0-1.98828.89063-1.98828 1.98438 0 1.09766.89063 1.98828 1.98828 1.98828 1.09766 0 1.98438-.89062 1.98438-1.98828Zm5.65234-56.50391c0-1.09765-.89062-1.98437-1.98828-1.98437-1.09375 0-1.98437.88672-1.98437 1.98437 0 1.09766.89062 1.98438 1.98437 1.98438 1.09766 0 1.98828-.88672 1.98828-1.98438Zm5.64844-56.5039c0-1.09766-.88672-1.98829-1.98437-1.98829-1.09766 0-1.98829.89063-1.98829 1.98829 0 1.09375.89063 1.98437 1.98829 1.98437s1.98437-.89062 1.98437-1.98437Zm5.65235 113.00781c0-1.09375-.89063-1.98438-1.98829-1.98438-1.09375 0-1.98437.89063-1.98437 1.98438 0 1.09766.89062 1.98828 1.98437 1.98828 1.09766 0 1.98828-.89062 1.98828-1.98828Zm5.64843 0c0-1.09375-.88672-1.98438-1.98437-1.98438-1.09766 0-1.98438.89063-1.98438 1.98438 0 1.09766.88672 1.98828 1.98438 1.98828 1.09765 0 1.98437-.89062 1.98437-1.98828Zm5.65234-28.25c0-1.09766-.89062-1.98828-1.98828-1.98828-1.09375 0-1.98437.89062-1.98437 1.98828s.89062 1.98437 1.98437 1.98437c1.09766 0 1.98828-.88671 1.98828-1.98437Zm5.64844 56.49609c0-1.09765-.88672-1.98437-1.98437-1.98437-1.09766 0-1.98438.88672-1.98438 1.98437 0 1.09766.88672 1.98438 1.98438 1.98438 1.09765 0 1.98437-.88672 1.98437-1.98438Zm5.65235-56.49609c0-1.09766-.89063-1.98828-1.98438-1.98828-1.09766 0-1.98828.89062-1.98828 1.98828s.89062 1.98437 1.98828 1.98437c1.09375 0 1.98438-.88671 1.98438-1.98437Zm5.65234 84.75c0-1.09766-.89062-1.98828-1.98828-1.98828s-1.98438.89062-1.98438 1.98828.88672 1.98437 1.98438 1.98437 1.98828-.88671 1.98828-1.98437Zm5.64844-113.00391c0-1.09765-.89063-1.98437-1.98438-1.98437-1.09765 0-1.98828.88672-1.98828 1.98437 0 1.09766.89063 1.98438 1.98828 1.98438 1.09375 0 1.98438-.88672 1.98438-1.98438Zm5.65234 56.50391c0-1.09375-.89062-1.98438-1.98828-1.98438s-1.98438.89063-1.98438 1.98438c0 1.09766.88672 1.98828 1.98438 1.98828s1.98828-.89062 1.98828-1.98828Zm5.64844-84.75781c0-1.09766-.88672-1.98438-1.98438-1.98438-1.09765 0-1.98828.88672-1.98828 1.98438 0 1.09765.89063 1.98828 1.98828 1.98828 1.09766 0 1.98438-.89063 1.98438-1.98828Zm5.65234 28.2539c0-1.09765-.89062-1.98437-1.98828-1.98437-1.09375 0-1.98437.88672-1.98437 1.98437 0 1.09766.89062 1.98438 1.98437 1.98438 1.09766 0 1.98828-.88672 1.98828-1.98438Zm5.64844 84.75c0-1.09765-.88672-1.98437-1.98438-1.98437-1.09765 0-1.98828.88672-1.98828 1.98437 0 1.09766.89063 1.98438 1.98828 1.98438 1.09766 0 1.98438-.88672 1.98438-1.98438Zm5.65234 0c0-1.09765-.89062-1.98437-1.98828-1.98437-1.09375 0-1.98437.88672-1.98437 1.98437 0 1.09766.89062 1.98438 1.98437 1.98438 1.09766 0 1.98828-.88672 1.98828-1.98438Zm5.64844-56.49609c0-1.09766-.88672-1.98828-1.98437-1.98828-1.09766 0-1.98438.89062-1.98438 1.98828s.88672 1.98437 1.98438 1.98437c1.09765 0 1.98437-.88671 1.98437-1.98437Zm5.65234 0c0-1.09766-.89062-1.98828-1.98437-1.98828-1.09766 0-1.98828.89062-1.98828 1.98828s.89062 1.98437 1.98828 1.98437c1.09375 0 1.98437-.88671 1.98437-1.98437Zm5.64844 28.25c0-1.09375-.88672-1.98438-1.98437-1.98438-1.09766 0-1.98438.89063-1.98438 1.98438 0 1.09766.88672 1.98828 1.98438 1.98828 1.09765 0 1.98437-.89062 1.98437-1.98828Zm5.65234-28.25c0-1.09766-.89062-1.98828-1.98437-1.98828-1.09766 0-1.98828.89062-1.98828 1.98828s.89062 1.98437 1.98828 1.98437c1.09375 0 1.98438-.88671 1.98438-1.98437Zm5.65235 28.25c0-1.09375-.89063-1.98438-1.98828-1.98438-1.09766 0-1.98438.89063-1.98438 1.98438 0 1.09766.88672 1.98828 1.98438 1.98828 1.09765 0 1.98828-.89062 1.98828-1.98828Zm5.64844-56.50391c0-1.09765-.89063-1.98437-1.98438-1.98437-1.09765 0-1.98828.88672-1.98828 1.98437 0 1.09766.89063 1.98438 1.98828 1.98438 1.09375 0 1.98438-.88672 1.98438-1.98438Zm5.65234 84.75c0-1.09765-.89062-1.98437-1.98828-1.98437s-1.98437.88672-1.98437 1.98437c0 1.09766.88671 1.98438 1.98437 1.98438s1.98828-.88672 1.98828-1.98438Zm0 0"/><path d="M595.85547 123.48047c0-1.09766-.88672-1.98828-1.98438-1.98828-1.09765 0-1.98828.89062-1.98828 1.98828s.89063 1.98437 1.98828 1.98437c1.09766 0 1.98438-.88671 1.98438-1.98437m0 0"/><g clip-path="url(#f)"><path fill="none" stroke="#000" stroke-miterlimit="10" stroke-width=".39715" d="M595.85547 123.48047c0-1.09766-.88672-1.98828-1.98438-1.98828-1.09765 0-1.98828.89062-1.98828 1.98828s.89063 1.98437 1.98828 1.98437c1.09766 0 1.98438-.88671 1.98438-1.98437Zm0 0"/></g><g clip-path="url(#g)"><path d="M601.50781 123.48047c0-1.09766-.89062-1.98828-1.98828-1.98828-1.09375 0-1.98437.89062-1.98437 1.98828s.89062 1.98437 1.98437 1.98437c1.09766 0 1.98828-.88671 1.98828-1.98437m0 0"/></g><g clip-path="url(#h)"><path fill="none" stroke="#000" stroke-miterlimit="10" stroke-width=".39715" d="M601.50781 123.48047c0-1.09766-.89062-1.98828-1.98828-1.98828-1.09375 0-1.98437.89062-1.98437 1.98828s.89062 1.98437 1.98437 1.98437c1.09766 0 1.98828-.88671 1.98828-1.98437Zm0 0"/></g><path fill="none" stroke="#000" stroke-miterlimit="10" stroke-width=".39715" d="M34.46484 230.83203v11.30078"/><use xlink:href="#i" x="31.90624" y="255.49279"/><path fill="none" stroke="#000" stroke-miterlimit="10" stroke-width=".39715" d="M147.46875 230.83203v11.30078"/><use xlink:href="#j" x="142.35322" y="255.49279"/><use xlink:href="#i" x="147.46666" y="255.49279"/><path fill="none" stroke="#000" stroke-miterlimit="10" stroke-width=".39715" d="M260.47266 230.83203v11.30078"/><use xlink:href="#k" x="255.35654" y="255.49279"/><use xlink:href="#i" x="260.46998" y="255.49279"/><path fill="none" stroke="#000" stroke-miterlimit="10" stroke-width=".39715" d="M373.47656 230.83203v11.30078"/><use xlink:href="#l" x="368.35886" y="255.49279"/><use xlink:href="#i" x="373.47231" y="255.49279"/><path fill="none" stroke="#000" stroke-miterlimit="10" stroke-width=".39715" d="M486.48047 230.83203v11.30078"/><use xlink:href="#m" x="481.36219" y="255.49279"/><use xlink:href="#i" x="486.47563" y="255.49279"/><path fill="none" stroke="#000" stroke-miterlimit="10" stroke-width=".39715" d="M599.48828 230.83203v11.30078"/><use xlink:href="#n" x="591.80917" y="255.49279"/><use xlink:href="#i" x="596.92261" y="255.49279"/><use xlink:href="#i" x="602.03605" y="255.49279"/><path fill="none" stroke="#000" stroke-miterlimit="10" stroke-width=".39715" d="M40.11328 236.48047H28.8125"/><use xlink:href="#i" x="16.68379" y="239.59961"/><path fill="none" stroke="#000" stroke-miterlimit="10" stroke-width=".39715" d="M40.11328 179.98047H28.8125"/><use xlink:href="#i" x="7.86565" y="182.46809"/><use xlink:href="#o" x="12.97909" y="182.46809"/><use xlink:href="#n" x="16.68261" y="182.46809"/><path fill="none" stroke="#000" stroke-miterlimit="10" stroke-width=".39715" d="M40.11328 123.47656H28.8125"/><use xlink:href="#i" x="7.86565" y="125.96642"/><use xlink:href="#o" x="12.97909" y="125.96642"/><use xlink:href="#j" x="16.68261" y="125.96642"/><path fill="none" stroke="#000" stroke-miterlimit="10" stroke-width=".39715" d="M40.11328 66.97656H28.8125"/><use xlink:href="#i" x="7.86565" y="69.46476"/><use xlink:href="#o" x="12.97909" y="69.46476"/><use xlink:href="#p" x="16.68261" y="69.46476"/><path fill="none" stroke="#000" stroke-miterlimit="10" stroke-width=".39715" d="M40.11328 10.47266H28.8125"/><use xlink:href="#i" x="7.86565" y="12.9631"/><use xlink:href="#o" x="12.97909" y="12.9631"/><use xlink:href="#k" x="16.68261" y="12.9631"/><path fill="none" stroke="#000" stroke-miterlimit="10" stroke-width=".39715" d="M593.83594 170.5625h11.30078"/><use xlink:href="#q" x="614.52723" y="167.44197"/><path fill="none" stroke="#000" stroke-miterlimit="10" stroke-width="1.0923" d="M614.52734 170.16406h7.04688"/><use xlink:href="#r" x="614.52723" y="182.41526"/><path fill="none" stroke="#000" stroke-miterlimit="10" stroke-width=".39715" d="M593.83594 124.9414h11.30078"/><use xlink:href="#n" x="614.52723" y="123.79976"/><path fill="none" stroke="#000" stroke-miterlimit="10" stroke-width=".54615" d="M614.52734 125.16016h5.11328"/><use xlink:href="#l" x="614.52723" y="132.32489"/><use xlink:href="#s" x="623.40318" y="127.79224"/><use xlink:href="#t" x="631.48539" y="127.79224"/><path fill="none" stroke="#000" stroke-miterlimit="10" stroke-width=".39715" d="M593.83594 216.1836h11.30078"/><use xlink:href="#n" x="614.52723" y="215.03879"/><path fill="none" stroke="#000" stroke-miterlimit="10" stroke-width=".54615" d="M614.52734 216.39844h5.11328"/><use xlink:href="#l" x="614.52723" y="223.56192"/><use xlink:href="#u" x="623.40318" y="219.02927"/><use xlink:href="#t" x="631.48539" y="219.02927"/><path fill="none" stroke="#000" stroke-miterlimit="10" stroke-width=".39715" d="M655.98828 66.97656c-55.2461 0-65.16016 57.1289-109.04687 82.46875"/><path stroke="#000" stroke-miterlimit="10" stroke-width=".39715" d="M543.625 151.35938c.47266-.1289 2.61719-.53907 4.125-.51172l-1.6211-2.8047c-.72656 1.32032-2.16015 2.96876-2.5039 3.31642Zm0 0"/><use xlink:href="#v" x="662.9961" y="71.75301"/><use xlink:href="#w" x="680.27258" y="71.75301"/><use xlink:href="#x" x="690.16188" y="71.75301"/><use xlink:href="#y" x="704.25039" y="71.75301"/><use xlink:href="#z" x="724.06871" y="71.75301"/><use xlink:href="#A" x="735.22892" y="71.75301"/><use xlink:href="#B" x="744.82035" y="71.75301"/><use xlink:href="#C" x="757.13233" y="71.75301"/><use xlink:href="#D" x="763.06988" y="71.75301"/><use xlink:href="#E" x="770.31807" y="71.75301"/><use xlink:href="#F" x="779.90949" y="71.75301"/><use xlink:href="#G" x="790.9307" y="71.75301"/><use xlink:href="#A" x="802.22992" y="71.75301"/><use xlink:href="#H" x="811.82135" y="71.75301"/><use xlink:href="#I" x="823.35887" y="71.75301"/><use xlink:href="#A" x="832.61271" y="71.75301"/><use xlink:href="#B" x="842.20414" y="71.75301"/></svg>