<?xml version="1.0" encoding="UTF-8"?>
<svg xmlns="http://www.w3.org/2000/svg" xmlns:xlink="http://www.w3.org/1999/xlink" width="876.487pt" height="702.479pt" viewBox="0 0 876.487 702.479" version="1.2">
<defs>
<clipPath id="clip1">
  <path d="M 0.0703125 0 L 875.90625 0 L 875.90625 701.957031 L 0.0703125 701.957031 Z M 0.0703125 0 "/>
</clipPath>
</defs>
<g id="surface1">
<g clip-path="url(#clip1)" clip-rule="nonzero">
<path style=" stroke:none;fill-rule:nonzero;fill:rgb(0.39978%,2.69928%,33.299255%);fill-opacity:1;" d="M 192.683594 14.988281 C 194.324219 7.992188 200.128906 2.246094 207.105469 0.609375 C 214.648438 -1.398438 223.121094 1.6875 227.710938 7.984375 C 244.097656 29.066406 260.496094 50.152344 276.351562 71.644531 C 327.546875 55.945312 381.644531 50.179688 435.015625 53.898438 C 515.078125 59.445312 594.589844 87.203125 657.269531 137.976562 C 685.460938 160.859375 710.042969 188.429688 728.179688 219.957031 C 744.1875 247.613281 755.019531 278.332031 759.214844 310.046875 C 768.839844 309.289062 778.371094 305.582031 785.375 298.839844 C 774.273438 285.855469 764.8125 271.277344 758.835938 255.21875 C 754.128906 242.5 752.351562 228.238281 756.417969 215.097656 C 760.3125 202.449219 769.308594 190.855469 781.808594 185.832031 C 791.972656 181.605469 803.792969 182.632812 813.566406 187.46875 C 831.042969 196.082031 842.761719 214.988281 843.132812 234.425781 C 843.601562 254.28125 841.515625 274.40625 834.808594 293.191406 C 844.839844 302.214844 855.316406 310.726562 865.945312 319.023438 C 869.125 321.449219 872.292969 324.160156 873.960938 327.90625 C 878.007812 335.96875 875.550781 346.570312 868.375 352.039062 C 861.5 357.652344 850.765625 357.613281 843.882812 352.027344 C 833.53125 343.875 823.15625 335.722656 813.324219 326.945312 C 799.386719 340.535156 780.378906 348.210938 761.074219 349.539062 C 759.445312 403.21875 738 455.242188 704.457031 496.832031 C 675.078125 533.574219 637.058594 562.933594 595.296875 584.34375 C 589.433594 614.582031 583.664062 644.832031 577.878906 675.089844 C 577.082031 680.183594 575.671875 685.308594 572.632812 689.566406 C 567.367188 697.28125 558.234375 702.160156 548.871094 702.058594 C 521.550781 702.027344 494.230469 702.21875 466.910156 701.957031 C 452.242188 702.4375 439.023438 689.695312 438.433594 675.128906 C 437.414062 659.417969 437.832031 643.671875 437.84375 627.953125 C 411.554688 630.113281 385.101562 629.511719 358.851562 627.09375 C 359.410156 642.742188 359.300781 658.421875 358.542969 674.058594 C 358.261719 683.601562 353.046875 692.894531 344.824219 697.820312 C 339.257812 701.347656 332.53125 702.46875 326.046875 702.046875 C 303.734375 702.097656 281.429688 701.988281 259.117188 702.089844 C 252.011719 701.898438 244.617188 702.867188 237.832031 700.230469 C 228.730469 696.792969 221.59375 688.527344 219.773438 678.933594 C 215.070312 654.382812 210.34375 629.832031 205.644531 605.269531 C 203.789062 596.246094 202.449219 587.0625 200.238281 578.148438 C 170.351562 561.222656 142.472656 540.4375 118.960938 515.296875 C 98.664062 493.773438 81.496094 469.160156 69.117188 442.25 C 61.460938 442.800781 53.699219 443.171875 46.113281 441.742188 C 31.246094 438.964844 17.65625 429.917969 9.410156 417.230469 C 3.484375 408.40625 0.257812 397.84375 0.0664062 387.234375 C 0.0664062 358.933594 0.078125 330.625 0.0664062 302.324219 C 0.207031 285.988281 7.960938 269.9375 20.632812 259.625 C 30.027344 251.832031 42.015625 247.136719 54.238281 246.707031 C 58.175781 246.527344 62.113281 246.6875 66.050781 246.816406 C 79.730469 214.402344 100.472656 185.152344 125.335938 160.351562 C 126.394531 121.089844 127.273438 81.816406 128.304688 42.558594 C 128.214844 37.511719 130.03125 32.484375 133.46875 28.777344 C 138.496094 23.113281 146.96875 20.851562 154.144531 23.3125 C 159.121094 24.761719 162.707031 28.707031 166.625 31.863281 C 172.800781 36.929688 178.714844 42.308594 185.03125 47.222656 C 187.378906 36.433594 190.105469 25.71875 192.683594 14.988281 M 202.859375 18.355469 C 200.910156 26.589844 198.878906 34.792969 196.941406 43.027344 C 189.996094 72.226562 182.921875 101.382812 175.917969 130.5625 C 175.679688 132.820312 173.300781 133.671875 171.78125 134.960938 C 128.253906 166.125 92.078125 208.742188 72.59375 258.925781 C 57.574219 255.320312 40.488281 257.277344 28.265625 267.320312 C 17.40625 275.855469 10.640625 289.425781 10.78125 303.285156 C 10.808594 331.253906 10.769531 359.210938 10.800781 387.183594 C 11.011719 403.121094 20.402344 418.417969 34.3125 426.101562 C 46.632812 433.128906 61.890625 433.539062 75.300781 429.710938 C 90.210938 465.335938 113.84375 496.949219 142.164062 523.042969 C 192.867188 569.578125 257.886719 598.875 325.21875 611.386719 C 398.203125 624.796875 474.816406 619.539062 544.824219 594.648438 C 594.996094 576.710938 641.960938 548.460938 678.976562 509.890625 L 679.074219 509.472656 C 681.863281 507.253906 684.113281 504.464844 686.460938 501.816406 C 703.308594 482.960938 717.566406 461.765625 728.386719 438.902344 C 743.476562 406.988281 751.339844 371.601562 750.5 336.277344 C 749.851562 300.796875 740.390625 265.660156 723.953125 234.265625 C 706.664062 201 681.84375 171.980469 653.0625 148.109375 C 623.796875 123.917969 590.378906 104.941406 555.015625 91.230469 C 513.539062 75.074219 469.339844 66.167969 424.914062 64 C 373.511719 61.683594 321.480469 67.859375 272.625 84.234375 C 254.871094 60.933594 237.273438 37.480469 219.136719 14.457031 C 217.265625 12.011719 214.167969 10.402344 211.050781 10.78125 C 206.996094 11.050781 203.558594 14.417969 202.859375 18.355469 M 139.054688 41.566406 C 138.324219 77.542969 137.136719 113.515625 136.535156 149.496094 C 145.589844 141.574219 154.804688 133.789062 164.636719 126.835938 C 166.105469 126.035156 166.316406 124.277344 166.734375 122.835938 C 171.710938 101.492188 177.136719 80.25 181.945312 58.875 C 172.199219 50.941406 162.847656 42.527344 153.042969 34.664062 C 147.71875 30.566406 139.226562 34.992188 139.054688 41.566406 M 785.386719 195.875 L 786.214844 196.363281 L 784.917969 195.933594 C 773.863281 201.519531 766.621094 213.121094 765.210938 225.28125 C 763.761719 237.441406 767.429688 249.523438 772.683594 260.367188 C 779.390625 274.65625 789.152344 287.226562 799.664062 298.90625 C 790.582031 311.519531 775.894531 319.679688 760.375 320.679688 C 760.894531 326.714844 761.152344 332.75 761.253906 338.808594 C 781.148438 337.339844 800.375 327.648438 812.597656 311.738281 C 822.828125 321.410156 833.75 330.324219 844.792969 339.058594 C 848.660156 341.964844 852.285156 346.171875 857.644531 345.632812 C 861.710938 344.351562 865.40625 340.808594 865.117188 336.25 C 865.226562 331.832031 861.460938 329.035156 858.261719 326.714844 C 846.558594 317.523438 834.960938 308.171875 824.136719 297.949219 C 823.226562 296.988281 821.347656 295.929688 822.589844 294.398438 C 830.550781 276.195312 832.640625 256.007812 832.382812 236.3125 C 832.652344 218.375 820.671875 200.269531 803.242188 195.035156 C 797.398438 193.214844 791.0625 193.746094 785.386719 195.875 M 212.671875 584.707031 C 218.175781 613.753906 223.792969 642.78125 229.339844 671.832031 L 229.519531 671.820312 C 229.996094 675.726562 230.675781 679.816406 232.976562 683.132812 C 236.171875 688.21875 242.128906 691.296875 248.105469 691.296875 C 275.414062 691.296875 302.722656 691.304688 330.035156 691.296875 C 338.816406 691.265625 346.929688 683.941406 347.609375 675.15625 C 347.96875 670.101562 348.339844 665.046875 348.320312 659.988281 C 348.261719 648.546875 348.699219 637.066406 347.941406 625.65625 C 341.855469 625.226562 335.878906 624.007812 329.863281 623.097656 C 289.203125 616.101562 249.472656 603.390625 212.671875 584.707031 M 554.378906 602.34375 L 554.367188 602.542969 C 520.34375 615.0625 484.777344 623.507812 448.664062 626.945312 C 448.503906 640.941406 448.335938 654.964844 448.765625 668.960938 C 449.234375 673 449.003906 677.308594 450.90625 681.035156 C 453.800781 687.050781 460.21875 691.234375 466.921875 691.304688 C 494.230469 691.285156 521.542969 691.316406 548.859375 691.285156 C 554.875 691.40625 560.710938 688.089844 563.980469 683.09375 C 566.257812 679.746094 566.789062 675.636719 567.539062 671.75 C 572.664062 644.671875 577.988281 617.621094 583.027344 590.511719 C 573.554688 594.636719 564.199219 599.105469 554.378906 602.34375 "/>
<path style="fill:none;stroke-width:0.094;stroke-linecap:butt;stroke-linejoin:miter;stroke:rgb(0.39978%,2.69928%,33.299255%);stroke-opacity:1;stroke-miterlimit:10;" d="M -0.00182801 -0.000697446 C 1.640014 7.000585 7.449006 12.75094 14.430743 14.388873 C 21.979306 16.398175 30.458246 13.309948 35.051494 7.008403 C 51.450366 -14.089264 67.860966 -35.19084 83.728194 -56.698967 C 134.961476 -40.988105 189.099254 -35.218204 242.509931 -38.939712 C 322.63181 -44.490701 402.202499 -72.2691 464.928674 -123.080194 C 493.140989 -145.979978 517.741251 -173.570738 535.891421 -205.121464 C 551.911106 -232.798226 562.751171 -263.539759 566.949595 -295.278124 C 576.581734 -294.51975 586.120053 -290.809969 593.129153 -284.062781 C 582.019357 -271.068776 572.551403 -256.479839 566.570408 -240.409335 C 561.859886 -227.681152 560.081224 -213.408856 564.150646 -200.258485 C 568.048065 -187.600667 577.050831 -175.998318 589.560102 -170.971155 C 599.731703 -166.741458 611.560782 -167.769564 621.341468 -172.609088 C 638.830992 -181.228757 650.558433 -200.149029 650.929802 -219.600945 C 651.3989 -239.47114 649.311415 -259.611066 642.59941 -278.410154 C 652.6381 -287.440284 663.122432 -295.958316 673.759221 -304.261344 C 676.941267 -306.688925 680.111586 -309.401873 681.780791 -313.150745 C 685.830668 -321.219224 683.371814 -331.82865 676.190711 -337.301456 C 669.310612 -342.9189 658.568276 -342.879808 651.680359 -337.289728 C 641.321119 -329.131338 630.938424 -320.972948 621.099101 -312.189094 C 607.151264 -325.789017 588.129354 -333.470491 568.810349 -334.799601 C 567.180235 -388.519101 545.719017 -440.581122 512.151171 -482.201811 C 482.750476 -518.971249 444.702747 -548.352399 402.910055 -569.778434 C 397.042425 -600.039142 391.268615 -630.311577 385.479168 -660.59183 C 384.681702 -665.689358 383.2705 -670.818159 380.229184 -675.07913 C 374.959653 -682.799695 365.820067 -687.68222 356.449842 -687.580582 C 329.109267 -687.549309 301.768692 -687.740857 274.428117 -687.478944 C 259.74927 -687.959769 246.520716 -675.208131 245.930435 -660.630922 C 244.910147 -644.908332 245.328426 -629.15056 245.340154 -613.420152 C 219.031593 -615.581911 192.558849 -614.979902 166.289381 -612.56014 C 166.848389 -628.220183 166.738933 -643.9115 165.980558 -659.559815 C 165.6991 -669.109862 160.480388 -678.409723 152.251633 -683.339157 C 146.681099 -686.869117 139.949548 -687.991042 133.460363 -687.568855 C 111.131315 -687.619673 88.810085 -687.510217 66.481037 -687.611855 C 59.370298 -687.420307 51.970283 -688.389775 45.180094 -685.751101 C 36.071781 -682.311052 28.92977 -674.039296 27.108107 -664.438431 C 22.401494 -639.869442 17.671426 -615.300452 12.968722 -590.719735 C 11.111877 -581.689605 9.77104 -572.4992 7.558462 -563.578527 C -22.350422 -546.640192 -50.250005 -525.83962 -73.779161 -500.68035 C -94.09109 -479.140949 -111.271791 -454.509413 -123.659878 -427.579299 C -131.321807 -428.130489 -139.089282 -428.501857 -146.680846 -427.07111 C -161.55906 -424.291706 -175.158982 -415.238121 -183.411192 -402.541212 C -189.341368 -393.710448 -192.570324 -383.140114 -192.761872 -372.522871 C -192.761872 -344.2011 -192.750144 -315.871511 -192.761872 -287.54974 C -192.621143 -271.201687 -184.861486 -255.139002 -172.180212 -244.818853 C -162.778714 -237.020105 -150.781541 -232.32131 -138.54982 -231.891304 C -134.609399 -231.711483 -130.668979 -231.871758 -126.728559 -232.00076 C -113.038726 -199.562657 -92.281155 -170.290964 -67.399433 -145.471789 C -66.340054 -106.180951 -65.460496 -66.878386 -64.428481 -27.591458 C -64.518392 -22.54084 -62.700638 -17.509767 -59.260589 -13.799987 C -54.229517 -8.131723 -45.750577 -5.868327 -38.569473 -8.33109 C -33.58922 -9.781384 -30.000623 -13.729622 -26.079748 -16.888213 C -19.899387 -21.958377 -13.980938 -27.341272 -7.659847 -32.258979 C -5.31045 -21.461915 -2.581865 -10.739125 -0.00182801 -0.000697446 M 10.1815 -3.370382 C 8.230836 -11.610864 6.198079 -19.820073 4.259142 -28.060555 C -2.691321 -57.28143 -9.770787 -86.459304 -16.779887 -115.660633 C -17.018345 -117.92012 -19.399016 -118.772314 -20.919674 -120.062333 C -64.4793 -151.249508 -100.681912 -193.898303 -120.180737 -244.119116 C -135.211408 -240.510973 -152.310018 -242.469456 -164.541739 -252.519873 C -175.409168 -261.061359 -182.179811 -274.641737 -182.039081 -288.51139 C -182.011717 -316.500884 -182.050809 -344.47865 -182.019536 -372.472052 C -181.808442 -388.421372 -172.410852 -403.729592 -158.490379 -411.418885 C -146.160929 -418.45144 -130.891801 -418.861901 -117.471699 -415.030937 C -102.550484 -450.682358 -78.900144 -482.319086 -50.558828 -508.432188 C 0.181902 -555.001858 65.249655 -584.320461 132.631624 -596.841459 C 205.670129 -610.261561 282.340231 -604.999849 352.399965 -580.090764 C 402.609051 -562.13996 449.608726 -533.869009 486.651804 -495.27009 L 486.749533 -494.851811 C 489.540664 -492.631416 491.792333 -489.840285 494.14173 -487.189883 C 511.001882 -468.32043 525.270269 -447.109398 536.098606 -424.22916 C 551.199641 -392.291428 559.068755 -356.878464 558.228288 -321.528047 C 557.579369 -286.021264 548.111415 -250.858486 531.661724 -219.44067 C 514.359839 -186.150373 489.521118 -157.10932 460.718522 -133.220522 C 431.431192 -109.011174 397.988439 -90.020537 362.59893 -76.299431 C 321.091606 -60.131198 276.859607 -51.218343 232.400877 -49.048766 C 180.96041 -46.730642 128.89057 -52.911004 79.998868 -69.298148 C 62.231794 -45.980086 44.621086 -22.509566 26.470916 0.530947 C 24.598435 2.978073 21.498481 4.588641 18.378982 4.209454 C 14.321287 3.939723 10.881238 0.570038 10.1815 -3.370382 M -53.670509 -26.598534 C -54.401519 -62.601779 -55.5899 -98.601115 -56.191909 -134.608269 C -47.130506 -126.680519 -37.908827 -118.889588 -28.069504 -111.931307 C -26.599665 -111.129931 -26.388571 -109.370815 -25.970292 -107.92834 C -20.990039 -86.56876 -15.560233 -65.310818 -10.748073 -43.919965 C -20.501395 -35.980487 -29.859894 -27.560185 -39.671853 -19.691071 C -45.00002 -15.590376 -53.498506 -20.01944 -53.670509 -26.598534 M 593.140881 -181.021572 L 593.96962 -181.510216 L 592.671783 -181.08021 C 581.608897 -186.67029 574.361338 -198.280457 572.950136 -210.449632 C 571.499842 -222.618807 575.170531 -234.709799 580.428334 -245.561591 C 587.14034 -259.861251 596.909299 -272.440887 607.428813 -284.129237 C 598.340046 -296.751873 583.641653 -304.918081 568.110612 -305.918823 C 568.630528 -311.958455 568.888532 -317.998087 568.99017 -324.061174 C 588.899456 -322.591335 608.140278 -312.892741 620.371999 -296.970785 C 630.610056 -306.649833 641.540031 -315.570507 652.59119 -324.31136 C 656.461246 -327.219765 660.088934 -331.429917 665.452284 -330.890454 C 669.521706 -329.608254 673.219759 -326.062658 672.930482 -321.500683 C 673.039938 -317.079438 669.271521 -314.280488 666.069929 -311.958455 C 654.358124 -302.760232 642.751867 -293.401734 631.91962 -283.171496 C 631.008789 -282.209845 629.128489 -281.150466 630.371598 -279.618081 C 638.33844 -261.401455 640.429833 -241.198983 640.17183 -221.489063 C 640.441561 -203.53826 628.452207 -185.419363 611.009592 -180.181106 C 605.161508 -178.359443 598.820871 -178.891087 593.140881 -181.021572 M 20.001278 -570.141985 C 25.509266 -599.210402 31.13062 -628.259275 36.681608 -657.331602 L 36.861429 -657.319874 C 37.338345 -661.229021 38.018537 -665.321898 40.321024 -668.640764 C 43.518707 -673.730474 49.480156 -676.810882 55.461151 -676.810882 C 82.789999 -676.810882 110.118846 -676.8187 137.451603 -676.810882 C 146.239365 -676.779608 154.358664 -669.449958 155.038855 -660.658286 C 155.398497 -655.599849 155.769866 -650.541413 155.75032 -645.479068 C 155.691683 -634.029176 156.129507 -622.540192 155.371133 -611.121574 C 149.280682 -610.691568 143.299687 -609.471914 137.2796 -608.561082 C 96.589288 -601.5598 56.829353 -588.839435 20.001278 -570.141985 M 361.961739 -587.791784 L 361.950012 -587.99115 C 327.90134 -600.519967 292.308556 -608.971543 256.168491 -612.411592 C 256.008216 -626.418066 255.840123 -640.451904 256.270129 -654.458379 C 256.739226 -658.500437 256.508587 -662.812226 258.412341 -666.541552 C 261.309019 -672.561639 267.731748 -676.748335 274.439845 -676.8187 C 301.768692 -676.799154 329.101449 -676.830427 356.438114 -676.799154 C 362.458201 -676.920338 368.298467 -673.601472 371.570423 -668.601673 C 373.849455 -665.251534 374.381099 -661.139111 375.131656 -657.24951 C 380.260457 -630.151302 385.588624 -603.080458 390.631424 -575.950977 C 381.151742 -580.079037 371.789335 -584.551101 361.961739 -587.791784 Z M 361.961739 -587.791784 " transform="matrix(0.999259,0,0,-0.999259,192.68542,14.987584)"/>
</g>
<path style=" stroke:none;fill-rule:nonzero;fill:rgb(100%,87.5%,95.698547%);fill-opacity:1;" d="M 202.859375 18.355469 C 203.558594 14.417969 206.996094 11.050781 211.050781 10.78125 C 214.167969 10.402344 217.265625 12.011719 219.136719 14.457031 C 237.273438 37.480469 254.871094 60.933594 272.625 84.234375 C 321.480469 67.859375 373.511719 61.683594 424.914062 64 C 469.339844 66.167969 513.539062 75.074219 555.015625 91.230469 C 590.378906 104.941406 623.796875 123.917969 653.0625 148.109375 C 681.84375 171.980469 706.664062 201 723.953125 234.265625 C 740.390625 265.660156 749.851562 300.796875 750.5 336.28125 C 751.339844 371.601562 743.476562 406.988281 728.386719 438.902344 C 717.566406 461.765625 703.308594 482.960938 686.460938 501.816406 C 684.109375 504.464844 681.863281 507.253906 679.074219 509.472656 C 679.585938 505.644531 682.480469 502.945312 684.523438 499.898438 C 691.925781 488.90625 697.871094 477.035156 703.855469 465.234375 C 714.117188 442.410156 721.503906 418.140625 724 393.179688 C 728.699219 354.175781 722.492188 314.097656 707.394531 277.902344 C 693.214844 243.476562 670.832031 212.8125 644.128906 187.03125 C 638.023438 180.792969 631.398438 175.109375 624.585938 169.664062 C 581.945312 134.410156 530.59375 110.566406 477.105469 97.148438 C 441.800781 88.234375 405.339844 84.417969 368.976562 84.417969 C 340.425781 85.246094 311.808594 87.664062 283.878906 93.820312 C 271.199219 96.355469 258.695312 99.703125 246.386719 103.652344 C 243.957031 104.882812 242.417969 102.164062 241.058594 100.613281 C 231.578125 87.472656 221.3125 74.933594 211.761719 61.84375 C 206.773438 55.609375 202.109375 49.121094 196.941406 43.027344 C 198.882812 34.792969 200.910156 26.589844 202.859375 18.355469 "/>
<path style=" stroke:none;fill-rule:nonzero;fill:rgb(100%,87.5%,95.698547%);fill-opacity:1;" d="M 139.054688 41.566406 C 139.226562 34.992188 147.71875 30.566406 153.042969 34.664062 C 162.847656 42.527344 172.199219 50.941406 181.945312 58.875 C 177.136719 80.25 171.710938 101.492188 166.734375 122.835938 C 166.316406 124.277344 166.105469 126.035156 164.636719 126.835938 C 154.804688 133.789062 145.589844 141.574219 136.539062 149.496094 C 137.136719 113.515625 138.324219 77.542969 139.054688 41.566406 "/>
<path style="fill:none;stroke-width:0.094;stroke-linecap:butt;stroke-linejoin:miter;stroke:rgb(82.398987%,41.19873%,48.999023%);stroke-opacity:1;stroke-miterlimit:10;" d="M -0.00060863 0.00156564 C 0.171394 6.58066 8.66988 11.009724 13.998047 6.909029 C 23.810006 -0.960085 33.168505 -9.380387 42.921827 -17.319865 C 38.109667 -38.710718 32.679861 -59.96866 27.699608 -81.32824 C 27.281329 -82.770715 27.070235 -84.529831 25.600396 -85.331207 C 15.761073 -92.289488 6.539394 -100.080419 -2.518099 -108.008169 C -1.92 -72.001015 -0.731619 -36.001679 -0.00060863 0.00156564 Z M -0.00060863 0.00156564 " transform="matrix(0.999259,0,0,-0.999259,139.055296,41.567971)"/>
<path style="fill:none;stroke-width:0.094;stroke-linecap:butt;stroke-linejoin:miter;stroke:rgb(95.698547%,47.499084%,55.299377%);stroke-opacity:1;stroke-miterlimit:10;" d="M 0.00125566 0.0000728138 C -5.901556 -2.740239 -9.239968 -8.818963 -11.350908 -14.690502 C -14.830048 -25.178744 -14.939505 -36.718546 -12.031099 -47.370972 C -10.189891 -53.371513 -7.301031 -59.551874 -1.929863 -63.171744 C 1.408549 -65.509414 6.040888 -65.7596 9.598212 -63.730752 C 14.609738 -60.920076 17.600236 -55.658364 19.570446 -50.45138 C 23.100406 -40.721513 23.40141 -29.971358 21.368654 -19.889668 C 19.859723 -13.380938 17.189775 -6.778388 12.111793 -2.228141 C 8.910202 0.668537 4.008131 1.888191 0.00125566 0.0000728138 " transform="matrix(0.999259,0,0,-0.999259,143.522183,216.738354)"/>
<path style=" stroke:none;fill-rule:nonzero;fill:rgb(82.398987%,41.19873%,48.999023%);fill-opacity:1;" d="M 785.386719 195.875 C 791.0625 193.746094 797.398438 193.214844 803.242188 195.035156 C 820.671875 200.269531 832.652344 218.378906 832.382812 236.3125 C 832.640625 256.007812 830.550781 276.195312 822.589844 294.402344 C 821.347656 295.929688 823.226562 296.988281 824.136719 297.945312 C 834.960938 308.171875 846.5625 317.523438 858.261719 326.714844 C 861.460938 329.035156 865.226562 331.832031 865.117188 336.25 C 865.40625 340.804688 861.710938 344.355469 857.644531 345.632812 C 856.492188 341.4375 855.785156 336.640625 852.195312 333.730469 C 844.390625 327.253906 836.046875 321.441406 828.59375 314.546875 C 824.246094 310.417969 818.8125 307.292969 815.332031 302.363281 C 821.679688 284.4375 824.828125 265.363281 824.398438 246.328125 C 825.238281 228.101562 815.003906 210.035156 799.195312 201.050781 C 795.117188 198.832031 790.523438 197.953125 786.214844 196.363281 Z M 785.386719 195.875 "/>
<path style=" stroke:none;fill-rule:nonzero;fill:rgb(100%,87.5%,95.698547%);fill-opacity:1;" d="M 785.386719 195.875 C 791.0625 193.746094 797.398438 193.214844 803.242188 195.035156 C 820.671875 200.269531 832.652344 218.378906 832.382812 236.3125 C 832.640625 256.007812 830.550781 276.195312 822.589844 294.402344 C 821.347656 295.929688 823.226562 296.988281 824.136719 297.945312 C 834.960938 308.171875 846.5625 317.523438 858.261719 326.714844 C 861.460938 329.035156 865.226562 331.832031 865.117188 336.25 C 865.40625 340.804688 861.710938 344.355469 857.644531 345.632812 C 856.492188 341.4375 855.785156 336.640625 852.195312 333.730469 C 844.390625 327.253906 836.046875 321.441406 828.59375 314.546875 C 824.246094 310.417969 818.8125 307.292969 815.332031 302.363281 C 821.679688 284.4375 824.828125 265.363281 824.398438 246.328125 C 825.238281 228.101562 815.003906 210.035156 799.195312 201.050781 C 795.117188 198.832031 790.523438 197.953125 786.214844 196.363281 Z M 785.386719 195.875 "/>
<path style="fill:none;stroke-width:0.094;stroke-linecap:butt;stroke-linejoin:miter;stroke:rgb(95.698547%,47.499084%,55.299377%);stroke-opacity:1;stroke-miterlimit:10;" d="M 0.000578484 0.000952414 C -5.089131 -7.770432 -3.861659 -17.77003 -0.972799 -26.108241 C 3.98009 -39.91144 12.240118 -52.350346 21.911348 -63.288139 C 26.817328 -48.808658 28.09171 -33.371436 27.888434 -18.168763 C 28.09171 -8.118346 21.7198 2.150983 12.201027 5.700489 C 7.259865 7.678517 2.369522 4.168103 0.000578484 0.000952414 Z M 0.000578484 0.000952414 " transform="matrix(0.999259,0,0,-0.999259,786.495516,218.157202)"/>
<path style=" stroke:none;fill-rule:nonzero;fill:rgb(0.39978%,2.69928%,33.299255%);fill-opacity:1;" d="M 786.496094 218.15625 C 788.863281 213.992188 793.75 210.484375 798.6875 212.460938 C 808.199219 216.007812 814.566406 226.269531 814.363281 236.3125 C 814.566406 251.503906 813.292969 266.929688 808.390625 281.398438 C 798.726562 270.46875 790.472656 258.039062 785.523438 244.246094 C 782.636719 235.914062 781.410156 225.921875 786.496094 218.15625 M 795.527344 240.269531 C 797.539062 245.496094 799.507812 250.941406 802.953125 255.398438 C 803.542969 248.363281 803.800781 241.28125 803.484375 234.226562 C 803.164062 229.488281 799.84375 225.722656 796.425781 222.765625 C 792.320312 227.691406 793.691406 234.683594 795.527344 240.269531 "/>
<path style="fill:none;stroke-width:0.094;stroke-linecap:butt;stroke-linejoin:miter;stroke:rgb(0.39978%,2.69928%,33.299255%);stroke-opacity:1;stroke-miterlimit:10;" d="M 0.000578484 0.000952414 C 2.369522 4.168103 7.259865 7.678517 12.201027 5.700489 C 21.7198 2.150983 28.09171 -8.118346 27.888434 -18.168763 C 28.09171 -33.371436 26.817328 -48.808658 21.911348 -63.288139 C 12.240118 -52.350346 3.98009 -39.91144 -0.972799 -26.108241 C -3.861659 -17.77003 -5.089131 -7.770432 0.000578484 0.000952414 M 9.038527 -22.128729 C 11.051737 -27.359168 13.021947 -32.808519 16.469815 -37.268856 C 17.060096 -30.228482 17.3181 -23.141198 17.001459 -16.081279 C 16.680909 -11.339483 13.358134 -7.571066 9.93763 -4.611841 C 5.829117 -9.541276 7.201227 -16.538649 9.038527 -22.128729 Z M 9.038527 -22.128729 " transform="matrix(0.999259,0,0,-0.999259,786.495516,218.157202)"/>
<path style=" stroke:none;fill-rule:nonzero;fill:rgb(0.39978%,2.69928%,33.299255%);fill-opacity:1;" d="M 143.523438 216.738281 C 147.527344 214.851562 152.425781 216.070312 155.625 218.964844 C 160.699219 223.511719 163.367188 230.109375 164.875 236.613281 C 166.90625 246.6875 166.605469 257.429688 163.078125 267.152344 C 161.109375 272.355469 158.121094 277.613281 153.113281 280.421875 C 149.558594 282.449219 144.929688 282.199219 141.59375 279.863281 C 136.226562 276.246094 133.339844 270.070312 131.5 264.074219 C 128.59375 253.429688 128.703125 241.898438 132.179688 231.417969 C 134.289062 225.550781 137.625 219.476562 143.523438 216.738281 "/>
<path style="fill:none;stroke-width:0.094;stroke-linecap:butt;stroke-linejoin:miter;stroke:rgb(0.39978%,2.69928%,33.299255%);stroke-opacity:1;stroke-miterlimit:10;" d="M 0.00125566 0.0000728138 C 4.008131 1.888191 8.910202 0.668537 12.111793 -2.228141 C 17.189775 -6.778388 19.859723 -13.380938 21.368654 -19.889668 C 23.40141 -29.971358 23.100406 -40.721513 19.570446 -50.45138 C 17.600236 -55.658364 14.609738 -60.920076 9.598212 -63.730752 C 6.040888 -65.7596 1.408549 -65.509414 -1.929863 -63.171744 C -7.301031 -59.551874 -10.189891 -53.371513 -12.031099 -47.370972 C -14.939505 -36.718546 -14.830048 -25.178744 -11.350908 -14.690502 C -9.239968 -8.818963 -5.901556 -2.740239 0.00125566 0.0000728138 Z M 0.00125566 0.0000728138 " transform="matrix(0.999259,0,0,-0.999259,143.522183,216.738354)"/>
<path style=" stroke:none;fill-rule:nonzero;fill:rgb(100%,100%,100%);fill-opacity:1;" d="M 795.527344 240.269531 C 793.691406 234.683594 792.320312 227.691406 796.425781 222.765625 C 799.84375 225.722656 803.164062 229.488281 803.484375 234.226562 C 803.800781 241.28125 803.542969 248.363281 802.953125 255.398438 C 799.503906 250.941406 797.539062 245.496094 795.527344 240.269531 "/>
<path style="fill:none;stroke-width:0.094;stroke-linecap:butt;stroke-linejoin:miter;stroke:rgb(100%,100%,100%);stroke-opacity:1;stroke-miterlimit:10;" d="M -0.00147341 0.00117065 C -1.838773 5.591251 -3.210883 12.588624 0.89763 17.518059 C 4.318134 14.558834 7.640909 10.790417 7.961459 6.048621 C 8.2781 -1.011298 8.020096 -8.098582 7.429815 -15.138956 C 3.978038 -10.678619 2.011737 -5.229268 -0.00147341 0.00117065 Z M -0.00147341 0.00117065 " transform="matrix(0.999259,0,0,-0.999259,795.528816,240.270701)"/>
<path style="fill:none;stroke-width:0.094;stroke-linecap:butt;stroke-linejoin:miter;stroke:rgb(95.698547%,47.499084%,55.299377%);stroke-opacity:1;stroke-miterlimit:10;" d="M 0.00127773 -0.00128459 C 36.829353 -18.698735 76.589288 -31.4191 117.2796 -38.420382 C 116.478225 -49.79991 118.761167 -61.687626 114.590107 -72.62151 C 111.36897 -81.178633 102.331022 -86.28007 93.531531 -86.948535 C 67.969618 -87.159628 42.411615 -86.721804 16.861429 -87.179174 L 16.681608 -87.190902 C 11.13062 -58.118575 5.509266 -29.069702 0.00127773 -0.00128459 " transform="matrix(0.999259,0,0,-0.999259,212.670598,584.705748)"/>
<path style=" stroke:none;fill-rule:nonzero;fill:rgb(100%,87.5%,95.698547%);fill-opacity:1;" d="M 554.378906 602.34375 C 564.199219 599.105469 573.550781 594.636719 583.027344 590.511719 C 577.988281 617.621094 572.664062 644.671875 567.539062 671.75 C 566.789062 675.640625 566.257812 679.746094 563.980469 683.09375 C 560.710938 688.089844 554.878906 691.40625 548.859375 691.285156 C 521.542969 691.316406 494.230469 691.285156 466.921875 691.304688 C 460.21875 691.234375 453.800781 687.050781 450.90625 681.035156 C 449.003906 677.308594 449.234375 673 448.765625 668.960938 C 473.796875 668.921875 498.839844 668.960938 523.871094 668.921875 C 531.355469 669.152344 538.28125 664.597656 542.347656 658.53125 C 545.265625 654.304688 545.953125 649.085938 546.972656 644.179688 C 548.351562 636.078125 550.050781 628.042969 551.507812 619.960938 C 552.550781 614.164062 554.246094 608.457031 554.367188 602.542969 Z M 554.378906 602.34375 "/>
<path style=" stroke:none;fill-rule:nonzero;fill:rgb(100%,87.5%,95.698547%);fill-opacity:1;" d="M 306.132812 671.589844 C 314.925781 670.921875 323.957031 665.824219 327.175781 657.273438 C 331.34375 646.347656 329.066406 634.46875 329.863281 623.097656 C 335.878906 624.007812 341.855469 625.226562 347.941406 625.65625 C 348.699219 637.066406 348.261719 648.546875 348.320312 659.988281 C 348.339844 665.046875 347.96875 670.101562 347.609375 675.15625 C 346.929688 683.941406 338.816406 691.265625 330.035156 691.296875 C 302.722656 691.304688 275.414062 691.296875 248.105469 691.296875 C 242.128906 691.296875 236.171875 688.21875 232.976562 683.132812 C 230.675781 679.8125 230 675.726562 229.519531 671.820312 "/>
</g>
</svg>
