<?xml version="1.0" encoding="UTF-8"?>
<svg xmlns="http://www.w3.org/2000/svg" xmlns:xlink="http://www.w3.org/1999/xlink" width="876.487pt" height="702.479pt" viewBox="0 0 876.487 702.479" version="1.2">
<defs>
<clipPath id="clip1">
  <path d="M 0.0703125 0 L 875.90625 0 L 875.90625 701.957031 L 0.0703125 701.957031 Z M 0.0703125 0 "/>
</clipPath>
</defs>
<g id="surface1">
<g clip-path="url(#clip1)" clip-rule="nonzero">
<path style=" stroke:none;fill-rule:nonzero;fill:rgb(0.39978%,2.69928%,33.299255%);fill-opacity:1;" d="M 192.683594 14.988281 C 194.324219 7.992188 200.128906 2.246094 207.105469 0.609375 C 214.648438 -1.398438 223.121094 1.6875 227.710938 7.984375 C 244.097656 29.066406 260.496094 50.152344 276.351562 71.644531 C 327.546875 55.945312 381.644531 50.179688 435.015625 53.898438 C 515.078125 59.445312 594.589844 87.203125 657.269531 137.976562 C 685.460938 160.859375 710.042969 188.429688 728.179688 219.957031 C 744.1875 247.613281 755.019531 278.332031 759.214844 310.046875 C 768.839844 309.289062 778.371094 305.582031 785.375 298.839844 C 774.273438 285.855469 764.8125 271.277344 758.835938 255.21875 C 754.128906 242.5 752.351562 228.238281 756.417969 215.097656 C 760.3125 202.449219 769.308594 190.855469 781.808594 185.832031 C 791.972656 181.605469 803.792969 182.632812 813.566406 187.46875 C 831.042969 196.082031 842.761719 214.988281 843.132812 234.425781 C 843.601562 254.28125 841.515625 274.40625 834.808594 293.191406 C 844.839844 302.214844 855.316406 310.726562 865.945312 319.023438 C 869.125 321.449219 872.292969 324.160156 873.960938 327.90625 C 878.007812 335.96875 875.550781 346.570312 868.375 352.039062 C 861.5 357.652344 850.765625 357.613281 843.882812 352.027344 C 833.53125 343.875 823.15625 335.722656 813.324219 326.945312 C 799.386719 340.535156 780.378906 348.210938 761.074219 349.539062 C 759.445312 403.21875 738 455.242188 704.457031 496.832031 C 675.078125 533.574219 637.058594 562.933594 595.296875 584.34375 C 589.433594 614.582031 583.664062 644.832031 577.878906 675.089844 C 577.082031 680.183594 575.671875 685.308594 572.632812 689.566406 C 567.367188 697.28125 558.234375 702.160156 548.871094 702.058594 C 521.550781 702.027344 494.230469 702.21875 466.910156 701.957031 C 452.242188 702.4375 439.023438 689.695312 438.433594 675.128906 C 437.414062 659.417969 437.832031 643.671875 437.84375 627.953125 C 411.554688 630.113281 385.101562 629.511719 358.851562 627.09375 C 359.410156 642.742188 359.300781 658.421875 358.542969 674.058594 C 358.261719 683.601562 353.046875 692.894531 344.824219 697.820312 C 339.257812 701.347656 332.53125 702.46875 326.046875 702.046875 C 303.734375 702.097656 281.429688 701.988281 259.117188 702.089844 C 252.011719 701.898438 244.617188 702.867188 237.832031 700.230469 C 228.730469 696.792969 221.59375 688.527344 219.773438 678.933594 C 215.070312 654.382812 210.34375 629.832031 205.644531 605.269531 C 203.789062 596.246094 202.449219 587.0625 200.238281 578.148438 C 170.351562 561.222656 142.472656 540.4375 118.960938 515.296875 C 98.664062 493.773438 81.496094 469.160156 69.117188 442.25 C 61.460938 442.800781 53.699219 443.171875 46.113281 441.742188 C 31.246094 438.964844 17.65625 429.917969 9.410156 417.230469 C 3.484375 408.40625 0.257812 397.84375 0.0664062 387.234375 C 0.0664062 358.933594 0.078125 330.625 0.0664062 302.324219 C 0.207031 285.988281 7.960938 269.9375 20.632812 259.625 C 30.027344 251.832031 42.015625 247.136719 54.238281 246.707031 C 58.175781 246.527344 62.113281 246.6875 66.050781 246.816406 C 79.730469 214.402344 100.472656 185.152344 125.335938 160.351562 C 126.394531 121.089844 127.273438 81.816406 128.304688 42.558594 C 128.214844 37.511719 130.03125 32.484375 133.46875 28.777344 C 138.496094 23.113281 146.96875 20.851562 154.144531 23.3125 C 159.121094 24.761719 162.707031 28.707031 166.625 31.863281 C 172.800781 36.929688 178.714844 42.308594 185.03125 47.222656 C 187.378906 36.433594 190.105469 25.71875 192.683594 14.988281 M 202.859375 18.355469 C 200.910156 26.589844 198.878906 34.792969 196.941406 43.027344 C 189.996094 72.226562 182.921875 101.382812 175.917969 130.5625 C 175.679688 132.820312 173.300781 133.671875 171.78125 134.960938 C 128.253906 166.125 92.078125 208.742188 72.59375 258.925781 C 57.574219 255.320312 40.488281 257.277344 28.265625 267.320312 C 17.40625 275.855469 10.640625 289.425781 10.78125 303.285156 C 10.808594 331.253906 10.769531 359.210938 10.800781 387.183594 C 11.011719 403.121094 20.402344 418.417969 34.3125 426.101562 C 46.632812 433.128906 61.890625 433.539062 75.300781 429.710938 C 90.210938 465.335938 113.84375 496.949219 142.164062 523.042969 C 192.867188 569.578125 257.886719 598.875 325.21875 611.386719 C 398.203125 624.796875 474.816406 619.539062 544.824219 594.648438 C 594.996094 576.710938 641.960938 548.460938 678.976562 509.890625 L 679.074219 509.472656 C 681.863281 507.253906 684.113281 504.464844 686.460938 501.816406 C 703.308594 482.960938 717.566406 461.765625 728.386719 438.902344 C 743.476562 406.988281 751.339844 371.601562 750.5 336.277344 C 749.851562 300.796875 740.390625 265.660156 723.953125 234.265625 C 706.664062 201 681.84375 171.980469 653.0625 148.109375 C 623.796875 123.917969 590.378906 104.941406 555.015625 91.230469 C 513.539062 75.074219 469.339844 66.167969 424.914062 64 C 373.511719 61.683594 321.480469 67.859375 272.625 84.234375 C 254.871094 60.933594 237.273438 37.480469 219.136719 14.457031 C 217.265625 12.011719 214.167969 10.402344 211.050781 10.78125 C 206.996094 11.050781 203.558594 14.417969 202.859375 18.355469 M 139.054688 41.566406 C 138.324219 77.542969 137.136719 113.515625 136.535156 149.496094 C 145.589844 141.574219 154.804688 133.789062 164.636719 126.835938 C 166.105469 126.035156 166.316406 124.277344 166.734375 122.835938 C 171.710938 101.492188 177.136719 80.25 181.945312 58.875 C 172.199219 50.941406 162.847656 42.527344 153.042969 34.664062 C 147.71875 30.566406 139.226562 34.992188 139.054688 41.566406 M 785.386719 195.875 L 786.214844 196.363281 L 784.917969 195.933594 C 773.863281 201.519531 766.621094 213.121094 765.210938 225.28125 C 763.761719 237.441406 767.429688 249.523438 772.683594 260.367188 C 779.390625 274.65625 789.152344 287.226562 799.664062 298.90625 C 790.582031 311.519531 775.894531 319.679688 760.375 320.679688 C 760.894531 326.714844 761.152344 332.75 761.253906 338.808594 C 781.148438 337.339844 800.375 327.648438 812.597656 311.738281 C 822.828125 321.410156 833.75 330.324219 844.792969 339.058594 C 848.660156 341.964844 852.285156 346.171875 857.644531 345.632812 C 861.710938 344.351562 865.40625 340.808594 865.117188 336.25 C 865.226562 331.832031 861.460938 329.035156 858.261719 326.714844 C 846.558594 317.523438 834.960938 308.171875 824.136719 297.949219 C 823.226562 296.988281 821.347656 295.929688 822.589844 294.398438 C 830.550781 276.195312 832.640625 256.007812 832.382812 236.3125 C 832.652344 218.375 820.671875 200.269531 803.242188 195.035156 C 797.398438 193.214844 791.0625 193.746094 785.386719 195.875 M 212.671875 584.707031 C 218.175781 613.753906 223.792969 642.78125 229.339844 671.832031 L 229.519531 671.820312 C 229.996094 675.726562 230.675781 679.816406 232.976562 683.132812 C 236.171875 688.21875 242.128906 691.296875 248.105469 691.296875 C 275.414062 691.296875 302.722656 691.304688 330.035156 691.296875 C 338.816406 691.265625 346.929688 683.941406 347.609375 675.15625 C 347.96875 670.101562 348.339844 665.046875 348.320312 659.988281 C 348.261719 648.546875 348.699219 637.066406 347.941406 625.65625 C 341.855469 625.226562 335.878906 624.007812 329.863281 623.097656 C 289.203125 616.101562 249.472656 603.390625 212.671875 584.707031 M 554.378906 602.34375 L 554.367188 602.542969 C 520.34375 615.0625 484.777344 623.507812 448.664062 626.945312 C 448.503906 640.941406 448.335938 654.964844 448.765625 668.960938 C 449.234375 673 449.003906 677.308594 450.90625 681.035156 C 453.800781 687.050781 460.21875 691.234375 466.921875 691.304688 C 494.230469 691.285156 521.542969 691.316406 548.859375 691.285156 C 554.875 691.40625 560.710938 688.089844 563.980469 683.09375 C 566.257812 679.746094 566.789062 675.636719 567.539062 671.75 C 572.664062 644.671875 577.988281 617.621094 583.027344 590.511719 C 573.554688 594.636719 564.199219 599.105469 554.378906 602.34375 "/>
<path style="fill:none;stroke-width:0.094;stroke-linecap:butt;stroke-linejoin:miter;stroke:rgb(0.39978%,2.69928%,33.299255%);stroke-opacity:1;stroke-miterlimit:10;" d="M -0.00182801 -0.000697446 C 1.640014 7.000585 7.449006 12.75094 14.430743 14.388873 C 21.979306 16.398175 30.458246 13.309948 35.051494 7.008403 C 51.450366 -14.089264 67.860966 -35.19084 83.728194 -56.698967 C 134.961476 -40.988105 189.099254 -35.218204 242.509931 -38.939712 C 322.63181 -44.490701 402.202499 -72.2691 464.928674 -123.080194 C 493.140989 -145.979978 517.741251 -173.570738 535.891421 -205.121464 C 551.911106 -232.798226 562.751171 -263.539759 566.949595 -295.278124 C 576.581734 -294.51975 586.120053 -290.809969 593.129153 -284.062781 C 582.019357 -271.068776 572.551403 -256.479839 566.570408 -240.409335 C 561.859886 -227.681152 560.081224 -213.408856 564.150646 -200.258485 C 568.048065 -187.600667 577.050831 -175.998318 589.560102 -170.971155 C 599.731703 -166.741458 611.560782 -167.769564 621.341468 -172.609088 C 638.830992 -181.228757 650.558433 -200.149029 650.929802 -219.600945 C 651.3989 -239.47114 649.311415 -259.611066 642.59941 -278.410154 C 652.6381 -287.440284 663.122432 -295.958316 673.759221 -304.261344 C 676.941267 -306.688925 680.111586 -309.401873 681.780791 -313.150745 C 685.830668 -321.219224 683.371814 -331.82865 676.190711 -337.301456 C 669.310612 -342.9189 658.568276 -342.879808 651.680359 -337.289728 C 641.321119 -329.131338 630.938424 -320.972948 621.099101 -312.189094 C 607.151264 -325.789017 588.129354 -333.470491 568.810349 -334.799601 C 567.180235 -388.519101 545.719017 -440.581122 512.151171 -482.201811 C 482.750476 -518.971249 444.702747 -548.352399 402.910055 -569.778434 C 397.042425 -600.039142 391.268615 -630.311577 385.479168 -660.59183 C 384.681702 -665.689358 383.2705 -670.818159 380.229184 -675.07913 C 374.959653 -682.799695 365.820067 -687.68222 356.449842 -687.580582 C 329.109267 -687.549309 301.768692 -687.740857 274.428117 -687.478944 C 259.74927 -687.959769 246.520716 -675.208131 245.930435 -660.630922 C 244.910147 -644.908332 245.328426 -629.15056 245.340154 -613.420152 C 219.031593 -615.581911 192.558849 -614.979902 166.289381 -612.56014 C 166.848389 -628.220183 166.738933 -643.9115 165.980558 -659.559815 C 165.6991 -669.109862 160.480388 -678.409723 152.251633 -683.339157 C 146.681099 -686.869117 139.949548 -687.991042 133.460363 -687.568855 C 111.131315 -687.619673 88.810085 -687.510217 66.481037 -687.611855 C 59.370298 -687.420307 51.970283 -688.389775 45.180094 -685.751101 C 36.071781 -682.311052 28.92977 -674.039296 27.108107 -664.438431 C 22.401494 -639.869442 17.671426 -615.300452 12.968722 -590.719735 C 11.111877 -581.689605 9.77104 -572.4992 7.558462 -563.578527 C -22.350422 -546.640192 -50.250005 -525.83962 -73.779161 -500.68035 C -94.09109 -479.140949 -111.271791 -454.509413 -123.659878 -427.579299 C -131.321807 -428.130489 -139.089282 -428.501857 -146.680846 -427.07111 C -161.55906 -424.291706 -175.158982 -415.238121 -183.411192 -402.541212 C -189.341368 -393.710448 -192.570324 -383.140114 -192.761872 -372.522871 C -192.761872 -344.2011 -192.750144 -315.871511 -192.761872 -287.54974 C -192.621143 -271.201687 -184.861486 -255.139002 -172.180212 -244.818853 C -162.778714 -237.020105 -150.781541 -232.32131 -138.54982 -231.891304 C -134.609399 -231.711483 -130.668979 -231.871758 -126.728559 -232.00076 C -113.038726 -199.562657 -92.281155 -170.290964 -67.399433 -145.471789 C -66.340054 -106.180951 -65.460496 -66.878386 -64.428481 -27.591458 C -64.518392 -22.54084 -62.700638 -17.509767 -59.260589 -13.799987 C -54.229517 -8.131723 -45.750577 -5.868327 -38.569473 -8.33109 C -33.58922 -9.781384 -30.000623 -13.729622 -26.079748 -16.888213 C -19.899387 -21.958377 -13.980938 -27.341272 -7.659847 -32.258979 C -5.31045 -21.461915 -2.581865 -10.739125 -0.00182801 -0.000697446 M 10.1815 -3.370382 C 8.230836 -11.610864 6.198079 -19.820073 4.259142 -28.060555 C -2.691321 -57.28143 -9.770787 -86.459304 -16.779887 -115.660633 C -17.018345 -117.92012 -19.399016 -118.772314 -20.919674 -120.062333 C -64.4793 -151.249508 -100.681912 -193.898303 -120.180737 -244.119116 C -135.211408 -240.510973 -152.310018 -242.469456 -164.541739 -252.519873 C -175.409168 -261.061359 -182.179811 -274.641737 -182.039081 -288.51139 C -182.011717 -316.500884 -182.050809 -344.47865 -182.019536 -372.472052 C -181.808442 -388.421372 -172.410852 -403.729592 -158.490379 -411.418885 C -146.160929 -418.45144 -130.891801 -418.861901 -117.471699 -415.030937 C -102.550484 -450.682358 -78.900144 -482.319086 -50.558828 -508.432188 C 0.181902 -555.001858 65.249655 -584.320461 132.631624 -596.841459 C 205.670129 -610.261561 282.340231 -604.999849 352.399965 -580.090764 C 402.609051 -562.13996 449.608726 -533.869009 486.651804 -495.27009 L 486.749533 -494.851811 C 489.540664 -492.631416 491.792333 -489.840285 494.14173 -487.189883 C 511.001882 -468.32043 525.270269 -447.109398 536.098606 -424.22916 C 551.199641 -392.291428 559.068755 -356.878464 558.228288 -321.528047 C 557.579369 -286.021264 548.111415 -250.858486 531.661724 -219.44067 C 514.359839 -186.150373 489.521118 -157.10932 460.718522 -133.220522 C 431.431192 -109.011174 397.988439 -90.020537 362.59893 -76.299431 C 321.091606 -60.131198 276.859607 -51.218343 232.400877 -49.048766 C 180.96041 -46.730642 128.89057 -52.911004 79.998868 -69.298148 C 62.231794 -45.980086 44.621086 -22.509566 26.470916 0.530947 C 24.598435 2.978073 21.498481 4.588641 18.378982 4.209454 C 14.321287 3.939723 10.881238 0.570038 10.1815 -3.370382 M -53.670509 -26.598534 C -54.401519 -62.601779 -55.5899 -98.601115 -56.191909 -134.608269 C -47.130506 -126.680519 -37.908827 -118.889588 -28.069504 -111.931307 C -26.599665 -111.129931 -26.388571 -109.370815 -25.970292 -107.92834 C -20.990039 -86.56876 -15.560233 -65.310818 -10.748073 -43.919965 C -20.501395 -35.980487 -29.859894 -27.560185 -39.671853 -19.691071 C -45.00002 -15.590376 -53.498506 -20.01944 -53.670509 -26.598534 M 593.140881 -181.021572 L 593.96962 -181.510216 L 592.671783 -181.08021 C 581.608897 -186.67029 574.361338 -198.280457 572.950136 -210.449632 C 571.499842 -222.618807 575.170531 -234.709799 580.428334 -245.561591 C 587.14034 -259.861251 596.909299 -272.440887 607.428813 -284.129237 C 598.340046 -296.751873 583.641653 -304.918081 568.110612 -305.918823 C 568.630528 -311.958455 568.888532 -317.998087 568.99017 -324.061174 C 588.899456 -322.591335 608.140278 -312.892741 620.371999 -296.970785 C 630.610056 -306.649833 641.540031 -315.570507 652.59119 -324.31136 C 656.461246 -327.219765 660.088934 -331.429917 665.452284 -330.890454 C 669.521706 -329.608254 673.219759 -326.062658 672.930482 -321.500683 C 673.039938 -317.079438 669.271521 -314.280488 666.069929 -311.958455 C 654.358124 -302.760232 642.751867 -293.401734 631.91962 -283.171496 C 631.008789 -282.209845 629.128489 -281.150466 630.371598 -279.618081 C 638.33844 -261.401455 640.429833 -241.198983 640.17183 -221.489063 C 640.441561 -203.53826 628.452207 -185.419363 611.009592 -180.181106 C 605.161508 -178.359443 598.820871 -178.891087 593.140881 -181.021572 M 20.001278 -570.141985 C 25.509266 -599.210402 31.13062 -628.259275 36.681608 -657.331602 L 36.861429 -657.319874 C 37.338345 -661.229021 38.018537 -665.321898 40.321024 -668.640764 C 43.518707 -673.730474 49.480156 -676.810882 55.461151 -676.810882 C 82.789999 -676.810882 110.118846 -676.8187 137.451603 -676.810882 C 146.239365 -676.779608 154.358664 -669.449958 155.038855 -660.658286 C 155.398497 -655.599849 155.769866 -650.541413 155.75032 -645.479068 C 155.691683 -634.029176 156.129507 -622.540192 155.371133 -611.121574 C 149.280682 -610.691568 143.299687 -609.471914 137.2796 -608.561082 C 96.589288 -601.5598 56.829353 -588.839435 20.001278 -570.141985 M 361.961739 -587.791784 L 361.950012 -587.99115 C 327.90134 -600.519967 292.308556 -608.971543 256.168491 -612.411592 C 256.008216 -626.418066 255.840123 -640.451904 256.270129 -654.458379 C 256.739226 -658.500437 256.508587 -662.812226 258.412341 -666.541552 C 261.309019 -672.561639 267.731748 -676.748335 274.439845 -676.8187 C 301.768692 -676.799154 329.101449 -676.830427 356.438114 -676.799154 C 362.458201 -676.920338 368.298467 -673.601472 371.570423 -668.601673 C 373.849455 -665.251534 374.381099 -661.139111 375.131656 -657.24951 C 380.260457 -630.151302 385.588624 -603.080458 390.631424 -575.950977 C 381.151742 -580.079037 371.789335 -584.551101 361.961739 -587.791784 Z M 361.961739 -587.791784 " transform="matrix(0.999259,0,0,-0.999259,192.68542,14.987584)"/>
</g>
<path style=" stroke:none;fill-rule:nonzero;fill:rgb(90.59906%,48.199463%,57.598877%);fill-opacity:1;" d="M 202.859375 18.355469 C 203.558594 14.417969 206.996094 11.050781 211.050781 10.78125 C 214.167969 10.402344 217.265625 12.011719 219.136719 14.457031 C 237.273438 37.480469 254.871094 60.933594 272.625 84.234375 C 321.480469 67.859375 373.511719 61.683594 424.914062 64 C 469.339844 66.167969 513.539062 75.074219 555.015625 91.230469 C 590.378906 104.941406 623.796875 123.917969 653.0625 148.109375 C 681.84375 171.980469 706.664062 201 723.953125 234.265625 C 740.390625 265.660156 749.851562 300.796875 750.5 336.28125 C 751.339844 371.601562 743.476562 406.988281 728.386719 438.902344 C 717.566406 461.765625 703.308594 482.960938 686.460938 501.816406 C 684.109375 504.464844 681.863281 507.253906 679.074219 509.472656 C 679.585938 505.644531 682.480469 502.945312 684.523438 499.898438 C 691.925781 488.90625 697.871094 477.035156 703.855469 465.234375 C 714.117188 442.410156 721.503906 418.140625 724 393.179688 C 728.699219 354.175781 722.492188 314.097656 707.394531 277.902344 C 693.214844 243.476562 670.832031 212.8125 644.128906 187.03125 C 638.023438 180.792969 631.398438 175.109375 624.585938 169.664062 C 581.945312 134.410156 530.59375 110.566406 477.105469 97.148438 C 441.800781 88.234375 405.339844 84.417969 368.976562 84.417969 C 340.425781 85.246094 311.808594 87.664062 283.878906 93.820312 C 271.199219 96.355469 258.695312 99.703125 246.386719 103.652344 C 243.957031 104.882812 242.417969 102.164062 241.058594 100.613281 C 231.578125 87.472656 221.3125 74.933594 211.761719 61.84375 C 206.773438 55.609375 202.109375 49.121094 196.941406 43.027344 C 198.882812 34.792969 200.910156 26.589844 202.859375 18.355469 "/>
<path style="fill:none;stroke-width:0.094;stroke-linecap:butt;stroke-linejoin:miter;stroke:rgb(82.398987%,41.19873%,48.999023%);stroke-opacity:1;stroke-miterlimit:10;" d="M 0.0013002 -0.000282252 C 0.701038 3.940138 4.141087 7.309823 8.198782 7.579554 C 11.318281 7.958741 14.418235 6.348173 16.290716 3.901047 C 34.440886 -19.139466 52.051594 -42.609986 69.818668 -65.928048 C 118.71037 -49.540904 170.78021 -43.360542 222.220677 -45.678666 C 266.679407 -47.848243 310.911406 -56.761098 352.41873 -72.929331 C 387.808239 -86.650437 421.250992 -105.641074 450.538322 -129.850422 C 479.340918 -153.73922 504.179639 -182.780273 521.481524 -216.07057 C 537.931215 -247.488386 547.399169 -282.651164 548.048088 -318.161856 C 548.888555 -353.508364 541.019441 -388.921328 525.918406 -420.85906 C 515.090069 -443.739298 500.821682 -464.95033 483.96153 -483.819783 C 481.608224 -486.470185 479.360464 -489.261316 476.569333 -491.481711 C 477.081431 -487.650747 479.978109 -484.949527 482.022593 -481.900392 C 489.430427 -470.900052 495.380149 -459.020154 501.368962 -447.21062 C 511.638292 -424.369474 519.030489 -400.081943 521.528434 -375.102493 C 526.231138 -336.069659 520.019503 -295.96181 504.91065 -259.739653 C 490.720446 -225.288339 468.321033 -194.601534 441.598103 -168.801163 C 435.488106 -162.558256 428.858193 -156.870446 422.04064 -151.421095 C 379.36839 -116.141043 327.978742 -92.279609 274.450791 -78.851689 C 239.11992 -69.931015 202.63194 -66.111778 166.24169 -66.111778 C 137.669734 -66.940517 109.031322 -69.360279 81.08092 -75.521095 C 68.391829 -78.058132 55.878649 -81.408271 43.560926 -85.360418 C 41.129437 -86.5918 39.589233 -83.871033 38.22885 -82.319102 C 28.74135 -69.168731 18.468111 -56.620369 8.910246 -43.520817 C 3.918266 -37.281818 -0.749256 -30.788725 -5.921058 -24.690455 C -3.978212 -16.449973 -1.949364 -8.240764 0.0013002 -0.000282252 Z M 0.0013002 -0.000282252 " transform="matrix(0.999259,0,0,-0.999259,202.858076,18.355187)"/>
<path style=" stroke:none;fill-rule:nonzero;fill:rgb(90.59906%,48.199463%,57.598877%);fill-opacity:1;" d="M 139.054688 41.566406 C 139.226562 34.992188 147.71875 30.566406 153.042969 34.664062 C 162.847656 42.527344 172.199219 50.941406 181.945312 58.875 C 177.136719 80.25 171.710938 101.492188 166.734375 122.835938 C 166.316406 124.277344 166.105469 126.035156 164.636719 126.835938 C 154.804688 133.789062 145.589844 141.574219 136.539062 149.496094 C 137.136719 113.515625 138.324219 77.542969 139.054688 41.566406 "/>
<path style="fill:none;stroke-width:0.094;stroke-linecap:butt;stroke-linejoin:miter;stroke:rgb(82.398987%,41.19873%,48.999023%);stroke-opacity:1;stroke-miterlimit:10;" d="M -0.00060863 0.00156564 C 0.171394 6.58066 8.66988 11.009724 13.998047 6.909029 C 23.810006 -0.960085 33.168505 -9.380387 42.921827 -17.319865 C 38.109667 -38.710718 32.679861 -59.96866 27.699608 -81.32824 C 27.281329 -82.770715 27.070235 -84.529831 25.600396 -85.331207 C 15.761073 -92.289488 6.539394 -100.080419 -2.518099 -108.008169 C -1.92 -72.001015 -0.731619 -36.001679 -0.00060863 0.00156564 Z M -0.00060863 0.00156564 " transform="matrix(0.999259,0,0,-0.999259,139.055296,41.567971)"/>
<path style=" stroke:none;fill-rule:nonzero;fill:rgb(95.698547%,56.098938%,69.398499%);fill-opacity:1;" d="M 175.917969 130.5625 C 182.921875 101.382812 189.996094 72.226562 196.941406 43.027344 C 202.109375 49.121094 206.773438 55.609375 211.761719 61.84375 C 221.3125 74.933594 231.578125 87.472656 241.058594 100.613281 C 242.417969 102.164062 243.957031 104.882812 246.386719 103.652344 C 258.695312 99.703125 271.199219 96.359375 283.878906 93.820312 C 311.808594 87.664062 340.425781 85.246094 368.976562 84.417969 C 405.339844 84.417969 441.800781 88.234375 477.105469 97.148438 C 530.59375 110.566406 581.945312 134.410156 624.585938 169.664062 C 631.398438 175.109375 638.023438 180.792969 644.128906 187.03125 C 670.832031 212.8125 693.214844 243.476562 707.394531 277.902344 C 722.492188 314.097656 728.699219 354.175781 724 393.179688 C 721.503906 418.140625 714.117188 442.410156 703.855469 465.234375 C 697.871094 477.035156 691.925781 488.90625 684.519531 499.898438 C 682.480469 502.945312 679.585938 505.644531 679.074219 509.472656 L 678.976562 509.890625 C 641.960938 548.460938 594.996094 576.710938 544.824219 594.648438 C 474.816406 619.539062 398.203125 624.796875 325.21875 611.386719 C 257.886719 598.875 192.867188 569.578125 142.164062 523.042969 C 113.84375 496.949219 90.210938 465.335938 75.300781 429.710938 C 61.894531 433.539062 46.632812 433.128906 34.3125 426.101562 C 20.402344 418.417969 11.011719 403.121094 10.800781 387.183594 C 10.769531 359.210938 10.808594 331.253906 10.78125 303.285156 C 10.640625 289.425781 17.40625 275.855469 28.265625 267.320312 C 40.488281 257.277344 57.574219 255.320312 72.59375 258.925781 C 92.082031 208.742188 128.253906 166.125 171.78125 134.957031 C 173.300781 133.667969 175.679688 132.820312 175.917969 130.5625 M 197.511719 82.949219 C 194.964844 83.625 193.226562 85.984375 192.957031 88.554688 C 192.054688 94.167969 191.046875 99.773438 190.476562 105.429688 C 189.988281 109.976562 195.933594 113.675781 199.75 110.90625 C 202.148438 109.636719 202.859375 106.890625 203.136719 104.402344 C 203.847656 99.40625 204.675781 94.429688 205.375 89.441406 C 205.847656 85.394531 201.46875 81.648438 197.511719 82.949219 M 143.523438 216.738281 C 137.625 219.476562 134.289062 225.550781 132.179688 231.417969 C 128.703125 241.898438 128.59375 253.429688 131.5 264.074219 C 133.339844 270.070312 136.226562 276.242188 141.59375 279.863281 C 144.929688 282.199219 149.558594 282.449219 153.113281 280.421875 C 158.121094 277.613281 161.109375 272.355469 163.078125 267.152344 C 166.605469 257.429688 166.90625 246.6875 164.875 236.613281 C 163.367188 230.109375 160.699219 223.511719 155.625 218.964844 C 152.425781 216.070312 147.527344 214.847656 143.523438 216.738281 M 36.429688 277.492188 C 28.15625 279.492188 22.851562 288.066406 23.851562 296.359375 C 23.902344 312.027344 23.871094 327.6875 23.859375 343.355469 C 23.660156 352.097656 31.476562 360.191406 40.257812 360.050781 C 49.34375 360.613281 57.734375 352.386719 57.507812 343.3125 C 57.4375 326.648438 57.535156 309.96875 57.457031 293.300781 C 57.566406 282.917969 46.382812 274.476562 36.429688 277.492188 "/>
<path style="fill:none;stroke-width:0.094;stroke-linecap:butt;stroke-linejoin:miter;stroke:rgb(95.698547%,47.499084%,55.299377%);stroke-opacity:1;stroke-miterlimit:10;" d="M -0.0000873887 -0.000432877 C 7.009013 29.200896 14.088479 58.37877 21.038942 87.599645 C 26.210744 81.501375 30.878266 75.008282 35.870246 68.769283 C 45.428111 55.669731 55.70135 43.121369 65.18885 29.970998 C 66.549233 28.419067 68.089437 25.6983 70.520926 26.929682 C 82.838649 30.881829 95.351829 34.228059 108.04092 36.769005 C 135.991322 42.929821 164.629734 45.349583 193.20169 46.178322 C 229.59194 46.178322 266.07992 42.359085 301.410791 33.438411 C 354.938742 20.010491 406.32839 -3.850943 449.00064 -39.130995 C 455.818193 -44.580346 462.448106 -50.268156 468.558103 -56.511063 C 495.281033 -82.311434 517.680446 -112.998239 531.87065 -147.449553 C 546.979503 -183.67171 553.191138 -223.779559 548.488434 -262.812393 C 545.990489 -287.791843 538.598292 -312.079374 528.328962 -334.92052 C 522.340149 -346.730054 516.390427 -358.609952 508.978684 -369.610292 C 506.938109 -372.659427 504.041431 -375.360647 503.529333 -379.191611 L 503.431604 -379.60989 C 466.388526 -418.208809 419.388851 -446.47976 369.179765 -464.430564 C 299.120031 -489.339649 222.449929 -494.601361 149.411424 -481.181259 C 82.029455 -468.660261 16.961702 -439.341658 -33.779028 -392.771988 C -62.120344 -366.658886 -85.770684 -335.022158 -100.691899 -299.370737 C -114.108091 -303.201701 -129.381129 -302.79124 -141.710579 -295.758685 C -155.631052 -288.069392 -165.028642 -272.761172 -165.239736 -256.811852 C -165.271009 -228.81845 -165.231917 -200.840684 -165.259281 -172.85119 C -165.400011 -158.981537 -158.629368 -145.401159 -147.761939 -136.859673 C -135.530218 -126.809256 -118.431608 -124.850773 -103.400937 -128.458916 C -83.898203 -78.238103 -47.6995 -35.589308 -4.139874 -4.398223 C -2.619216 -3.108205 -0.238545 -2.25992 -0.0000873887 -0.000432877 M 21.609678 47.648161 C 19.060914 46.971879 17.321343 44.610754 17.051612 42.038535 C 16.148599 36.421091 15.140039 30.811465 14.569304 25.15102 C 14.08066 20.600772 20.030382 16.89881 23.849619 19.670395 C 26.249835 20.940868 26.9613 23.688999 27.23885 26.179125 C 27.950314 31.178924 28.779054 36.159178 29.478791 41.151159 C 29.951798 45.201035 25.569644 48.949907 21.609678 47.648161 M -32.418644 -86.240127 C -38.321456 -88.980439 -41.659868 -95.059163 -43.770808 -100.930702 C -47.249948 -111.418944 -47.359405 -122.958746 -44.450999 -133.611172 C -42.609791 -139.611713 -39.720931 -145.788165 -34.349763 -149.411944 C -31.011351 -151.749614 -26.379012 -151.9998 -22.821688 -149.970952 C -17.810162 -147.160276 -14.819664 -141.898564 -12.849454 -136.69158 C -9.319494 -126.961713 -9.01849 -116.211558 -11.051246 -106.129868 C -12.560177 -99.621138 -15.230125 -93.018588 -20.308107 -88.468341 C -23.509698 -85.571663 -28.411769 -84.3481 -32.418644 -86.240127 M -139.591821 -147.039092 C -147.871395 -149.040575 -153.180017 -157.621153 -152.179275 -165.920273 C -152.128456 -181.599862 -152.159729 -197.271632 -152.171457 -212.951221 C -152.370823 -221.699893 -144.54862 -229.799646 -135.760857 -229.658916 C -126.668181 -230.221833 -118.271333 -221.98917 -118.498064 -212.908221 C -118.568428 -196.231799 -118.4707 -179.539741 -118.548883 -162.85941 C -118.439426 -152.468897 -129.631315 -144.021231 -139.591821 -147.039092 Z M -139.591821 -147.039092 " transform="matrix(0.999259,0,0,-0.999259,175.918056,130.562067)"/>
<path style=" stroke:none;fill-rule:nonzero;fill:rgb(100%,100%,100%);fill-opacity:1;" d="M 197.511719 82.949219 C 201.46875 81.648438 205.847656 85.394531 205.375 89.441406 C 204.675781 94.429688 203.847656 99.40625 203.136719 104.402344 C 202.859375 106.890625 202.148438 109.636719 199.75 110.90625 C 195.933594 113.675781 189.988281 109.976562 190.476562 105.429688 C 191.046875 99.773438 192.054688 94.167969 192.957031 88.554688 C 193.226562 85.984375 194.964844 83.628906 197.511719 82.949219 "/>
<path style="fill:none;stroke-width:0.094;stroke-linecap:butt;stroke-linejoin:miter;stroke:rgb(100%,100%,100%);stroke-opacity:1;stroke-miterlimit:10;" d="M -0.000222186 -0.0017388 C 3.959744 1.300007 8.341898 -2.448865 7.868891 -6.498741 C 7.169154 -11.490722 6.340414 -16.470976 5.62895 -21.470775 C 5.3514 -23.960901 4.639935 -26.709032 2.239719 -27.979505 C -1.579518 -30.75109 -7.52924 -27.049128 -7.040596 -22.49888 C -6.469861 -16.838435 -5.461301 -11.228809 -4.558288 -5.611365 C -4.288557 -3.039146 -2.548986 -0.68193 -0.000222186 -0.0017388 Z M -0.000222186 -0.0017388 " transform="matrix(0.999259,0,0,-0.999259,197.511941,82.947481)"/>
<path style=" stroke:none;fill-rule:nonzero;fill:rgb(82.398987%,41.19873%,48.999023%);fill-opacity:1;" d="M 785.386719 195.875 C 791.0625 193.746094 797.398438 193.214844 803.242188 195.035156 C 820.671875 200.269531 832.652344 218.378906 832.382812 236.3125 C 832.640625 256.007812 830.550781 276.195312 822.589844 294.402344 C 821.347656 295.929688 823.226562 296.988281 824.136719 297.945312 C 834.960938 308.171875 846.5625 317.523438 858.261719 326.714844 C 861.460938 329.035156 865.226562 331.832031 865.117188 336.25 C 865.40625 340.804688 861.710938 344.355469 857.644531 345.632812 C 856.492188 341.4375 855.785156 336.640625 852.195312 333.730469 C 844.390625 327.253906 836.046875 321.441406 828.59375 314.546875 C 824.246094 310.417969 818.8125 307.292969 815.332031 302.363281 C 821.679688 284.4375 824.828125 265.363281 824.398438 246.328125 C 825.238281 228.101562 815.003906 210.035156 799.195312 201.050781 C 795.117188 198.832031 790.523438 197.953125 786.214844 196.363281 Z M 785.386719 195.875 "/>
<path style="fill-rule:nonzero;fill:rgb(90.59906%,48.199463%,57.598877%);fill-opacity:1;stroke-width:0.094;stroke-linecap:butt;stroke-linejoin:miter;stroke:rgb(82.398987%,41.19873%,48.999023%);stroke-opacity:1;stroke-miterlimit:10;" d="M 0.000780705 -0.00107249 C 5.680771 2.129413 12.021408 2.661057 17.869492 0.839394 C 35.312107 -4.398863 47.301461 -22.521669 47.03173 -40.468563 C 47.289733 -60.178483 45.19834 -80.380955 37.231498 -98.60149 C 35.988389 -100.129966 37.868689 -101.189345 38.77952 -102.147086 C 49.611767 -112.381234 61.221934 -121.739732 72.929829 -130.937955 C 76.131421 -133.259988 79.899838 -136.058938 79.790382 -140.480183 C 80.079659 -145.038248 76.381606 -148.591663 72.312184 -149.869954 C 71.158985 -145.67153 70.45143 -140.871098 66.858924 -137.958783 C 59.048448 -131.477417 50.69851 -125.660606 43.239857 -118.760962 C 38.888976 -114.628993 33.451352 -111.501675 29.968302 -106.568332 C 36.320666 -88.629256 39.471439 -69.54089 39.041433 -50.491617 C 39.881899 -32.251536 29.639934 -14.171731 13.819616 -5.180692 C 9.738466 -2.960297 5.141309 -2.080739 0.82952 -0.489716 Z M 0.000780705 -0.00107249 " transform="matrix(0.999259,0,0,-0.999259,785.385939,195.873928)"/>
<path style=" stroke:none;fill-rule:nonzero;fill:rgb(95.698547%,56.098938%,69.398499%);fill-opacity:1;" d="M 765.210938 225.28125 C 766.621094 213.121094 773.863281 201.519531 784.917969 195.933594 L 786.214844 196.363281 C 790.523438 197.953125 795.121094 198.832031 799.195312 201.050781 C 815.003906 210.03125 825.234375 228.101562 824.398438 246.328125 C 824.828125 265.363281 821.679688 284.4375 815.332031 302.363281 C 818.8125 307.289062 824.246094 310.417969 828.59375 314.546875 C 836.050781 321.441406 844.390625 327.257812 852.195312 333.730469 C 855.785156 336.640625 856.492188 341.4375 857.644531 345.632812 C 852.285156 346.171875 848.660156 341.964844 844.792969 339.058594 C 833.75 330.324219 822.828125 321.410156 812.597656 311.738281 C 800.375 327.644531 781.148438 337.339844 761.253906 338.808594 C 761.152344 332.753906 760.894531 326.714844 760.375 320.679688 C 775.890625 319.683594 790.582031 311.519531 799.664062 298.90625 C 789.152344 287.226562 779.390625 274.65625 772.683594 260.367188 C 767.429688 249.523438 763.761719 237.441406 765.210938 225.28125 M 777.101562 210.824219 C 773.8125 213.671875 772.644531 218.1875 771.417969 222.203125 C 768.078125 236.144531 772.375 250.691406 779.171875 262.914062 C 781.007812 265.960938 782.488281 269.359375 785.136719 271.816406 C 786.964844 272.527344 789.671875 272.265625 790.574219 270.257812 C 792.101562 268.078125 790.28125 265.792969 789.183594 263.933594 C 782.066406 252.902344 776.703125 239.640625 778.78125 226.3125 C 779.25 222.34375 781.179688 218.835938 782.96875 215.347656 C 784.347656 211.992188 779.949219 208.992188 777.101562 210.824219 M 786.496094 218.15625 C 781.410156 225.921875 782.636719 235.914062 785.523438 244.246094 C 790.472656 258.039062 798.726562 270.46875 808.390625 281.398438 C 813.292969 266.929688 814.566406 251.503906 814.363281 236.3125 C 814.566406 226.269531 808.199219 216.007812 798.6875 212.460938 C 793.75 210.484375 788.863281 213.988281 786.496094 218.15625 "/>
<path style="fill:none;stroke-width:0.094;stroke-linecap:butt;stroke-linejoin:miter;stroke:rgb(95.698547%,47.499084%,55.299377%);stroke-opacity:1;stroke-miterlimit:10;" d="M -0.000464098 0.000568093 C 1.410738 12.169743 8.658297 23.77991 19.721183 29.36999 L 21.01902 28.939984 C 25.330809 27.348961 29.931875 26.469403 34.009116 24.249008 C 49.829434 15.261878 60.06749 -2.821836 59.230933 -21.061917 C 59.660939 -40.11119 56.510166 -59.199556 50.157802 -77.138632 C 53.640852 -82.068066 59.078476 -85.199293 63.429357 -89.331262 C 70.891919 -96.230906 79.237948 -102.051626 87.048424 -108.529083 C 90.64093 -111.441398 91.348485 -116.24183 92.501684 -120.440254 C 87.138334 -120.979717 83.510646 -116.769565 79.64059 -113.86116 C 68.589431 -105.120307 57.659456 -96.199633 47.421399 -86.520585 C 35.189678 -102.438632 15.948856 -112.141135 -3.96043 -113.610974 C -4.062068 -107.551796 -4.320072 -101.508255 -4.839988 -95.468623 C 10.687144 -94.47179 25.389446 -86.301673 34.478213 -73.679037 C 23.958699 -61.990687 14.18974 -49.411051 7.477734 -35.111391 C 2.219931 -24.259599 -1.450758 -12.168607 -0.000464098 0.000568093 M 11.89898 14.468322 C 8.607478 11.618553 7.438643 7.099579 6.211171 3.080976 C 2.86885 -10.87077 7.168912 -25.428434 13.970828 -37.660155 C 15.808127 -40.70929 17.289694 -44.110248 19.940095 -46.569101 C 21.769576 -47.280566 24.478615 -47.018653 25.381628 -45.009352 C 26.910105 -42.828048 25.088442 -40.541197 23.989972 -38.680443 C 16.867506 -27.641011 11.500247 -14.369457 13.579913 -1.031447 C 14.049011 2.940247 15.980129 6.450661 17.770519 9.941529 C 19.150448 13.299487 14.748748 16.301712 11.89898 14.468322 M 21.300478 7.130852 C 16.210769 -0.640532 17.438241 -10.64013 20.327101 -18.978341 C 25.27999 -32.78154 33.540018 -45.220446 43.211248 -56.158239 C 48.117228 -41.678758 49.39161 -26.241536 49.188334 -11.038863 C 49.39161 -0.988446 43.0197 9.280883 33.500927 12.830389 C 28.559765 14.808417 23.669422 11.301912 21.300478 7.130852 Z M 21.300478 7.130852 " transform="matrix(0.999259,0,0,-0.999259,765.211401,225.281818)"/>
<path style=" stroke:none;fill-rule:nonzero;fill:rgb(100%,100%,100%);fill-opacity:1;" d="M 777.101562 210.824219 C 779.949219 208.996094 784.347656 211.992188 782.96875 215.347656 C 781.179688 218.835938 779.25 222.34375 778.78125 226.3125 C 776.703125 239.640625 782.070312 252.902344 789.183594 263.933594 C 790.28125 265.792969 792.101562 268.082031 790.570312 270.257812 C 789.671875 272.265625 786.964844 272.527344 785.136719 271.816406 C 782.488281 269.359375 781.007812 265.960938 779.171875 262.914062 C 772.375 250.691406 768.078125 236.144531 771.417969 222.203125 C 772.644531 218.1875 773.816406 213.671875 777.101562 210.824219 "/>
<path style="fill:none;stroke-width:0.094;stroke-linecap:butt;stroke-linejoin:miter;stroke:rgb(100%,100%,100%);stroke-opacity:1;stroke-miterlimit:10;" d="M -0.000520307 -0.00137847 C 2.849248 1.828102 7.250948 -1.170213 5.871019 -4.528171 C 4.080629 -8.019039 2.149511 -11.529453 1.680413 -15.501147 C -0.399253 -28.839157 4.971915 -42.110711 12.090472 -53.150143 C 13.188942 -55.010897 15.010605 -57.301657 13.478219 -59.479052 C 12.579115 -61.488353 9.870076 -61.750266 8.040595 -61.038801 C 5.390194 -58.579948 3.908627 -55.17899 2.071328 -52.129855 C -4.730588 -39.898134 -9.03065 -25.34047 -5.688329 -11.388724 C -4.460857 -7.370121 -3.288113 -2.851147 -0.000520307 -0.00137847 Z M -0.000520307 -0.00137847 " transform="matrix(0.999259,0,0,-0.999259,777.102082,210.822841)"/>
<path style=" stroke:none;fill-rule:nonzero;fill:rgb(0.39978%,2.69928%,33.299255%);fill-opacity:1;" d="M 786.496094 218.15625 C 788.863281 213.992188 793.75 210.484375 798.6875 212.460938 C 808.199219 216.007812 814.566406 226.269531 814.363281 236.3125 C 814.566406 251.503906 813.292969 266.929688 808.390625 281.398438 C 798.726562 270.46875 790.472656 258.039062 785.523438 244.246094 C 782.636719 235.914062 781.410156 225.921875 786.496094 218.15625 M 795.527344 240.269531 C 797.539062 245.496094 799.507812 250.941406 802.953125 255.398438 C 803.542969 248.363281 803.800781 241.28125 803.484375 234.226562 C 803.164062 229.488281 799.84375 225.722656 796.425781 222.765625 C 792.320312 227.691406 793.691406 234.683594 795.527344 240.269531 "/>
<path style="fill:none;stroke-width:0.094;stroke-linecap:butt;stroke-linejoin:miter;stroke:rgb(0.39978%,2.69928%,33.299255%);stroke-opacity:1;stroke-miterlimit:10;" d="M 0.000578484 0.000952414 C 2.369522 4.168103 7.259865 7.678517 12.201027 5.700489 C 21.7198 2.150983 28.09171 -8.118346 27.888434 -18.168763 C 28.09171 -33.371436 26.817328 -48.808658 21.911348 -63.288139 C 12.240118 -52.350346 3.98009 -39.91144 -0.972799 -26.108241 C -3.861659 -17.77003 -5.089131 -7.770432 0.000578484 0.000952414 M 9.038527 -22.128729 C 11.051737 -27.359168 13.021947 -32.808519 16.469815 -37.268856 C 17.060096 -30.228482 17.3181 -23.141198 17.001459 -16.081279 C 16.680909 -11.339483 13.358134 -7.571066 9.93763 -4.611841 C 5.829117 -9.541276 7.201227 -16.538649 9.038527 -22.128729 Z M 9.038527 -22.128729 " transform="matrix(0.999259,0,0,-0.999259,786.495516,218.157202)"/>
<path style=" stroke:none;fill-rule:nonzero;fill:rgb(0.39978%,2.69928%,33.299255%);fill-opacity:1;" d="M 143.523438 216.738281 C 147.527344 214.851562 152.425781 216.070312 155.625 218.964844 C 160.699219 223.511719 163.367188 230.109375 164.875 236.613281 C 166.90625 246.6875 166.605469 257.429688 163.078125 267.152344 C 161.109375 272.355469 158.121094 277.613281 153.113281 280.421875 C 149.558594 282.449219 144.929688 282.199219 141.59375 279.863281 C 136.226562 276.246094 133.339844 270.070312 131.5 264.074219 C 128.59375 253.429688 128.703125 241.898438 132.179688 231.417969 C 134.289062 225.550781 137.625 219.476562 143.523438 216.738281 "/>
<path style="fill:none;stroke-width:0.094;stroke-linecap:butt;stroke-linejoin:miter;stroke:rgb(0.39978%,2.69928%,33.299255%);stroke-opacity:1;stroke-miterlimit:10;" d="M 0.00125566 0.0000728138 C 4.008131 1.888191 8.910202 0.668537 12.111793 -2.228141 C 17.189775 -6.778388 19.859723 -13.380938 21.368654 -19.889668 C 23.40141 -29.971358 23.100406 -40.721513 19.570446 -50.45138 C 17.600236 -55.658364 14.609738 -60.920076 9.598212 -63.730752 C 6.040888 -65.7596 1.408549 -65.509414 -1.929863 -63.171744 C -7.301031 -59.551874 -10.189891 -53.371513 -12.031099 -47.370972 C -14.939505 -36.718546 -14.830048 -25.178744 -11.350908 -14.690502 C -9.239968 -8.818963 -5.901556 -2.740239 0.00125566 0.0000728138 Z M 0.00125566 0.0000728138 " transform="matrix(0.999259,0,0,-0.999259,143.522183,216.738354)"/>
<path style=" stroke:none;fill-rule:nonzero;fill:rgb(100%,100%,100%);fill-opacity:1;" d="M 795.527344 240.269531 C 793.691406 234.683594 792.320312 227.691406 796.425781 222.765625 C 799.84375 225.722656 803.164062 229.488281 803.484375 234.226562 C 803.800781 241.28125 803.542969 248.363281 802.953125 255.398438 C 799.503906 250.941406 797.539062 245.496094 795.527344 240.269531 "/>
<path style="fill:none;stroke-width:0.094;stroke-linecap:butt;stroke-linejoin:miter;stroke:rgb(100%,100%,100%);stroke-opacity:1;stroke-miterlimit:10;" d="M -0.00147341 0.00117065 C -1.838773 5.591251 -3.210883 12.588624 0.89763 17.518059 C 4.318134 14.558834 7.640909 10.790417 7.961459 6.048621 C 8.2781 -1.011298 8.020096 -8.098582 7.429815 -15.138956 C 3.978038 -10.678619 2.011737 -5.229268 -0.00147341 0.00117065 Z M -0.00147341 0.00117065 " transform="matrix(0.999259,0,0,-0.999259,795.528816,240.270701)"/>
<path style=" stroke:none;fill-rule:nonzero;fill:rgb(100%,100%,100%);fill-opacity:1;" d="M 36.433594 277.492188 C 46.382812 274.476562 57.566406 282.917969 57.457031 293.300781 C 57.535156 309.96875 57.4375 326.648438 57.507812 343.3125 C 57.734375 352.386719 49.34375 360.613281 40.257812 360.050781 C 31.476562 360.191406 23.660156 352.097656 23.859375 343.355469 C 23.871094 327.6875 23.902344 312.027344 23.851562 296.359375 C 22.851562 288.066406 28.15625 279.492188 36.433594 277.492188 "/>
<path style="fill:none;stroke-width:0.094;stroke-linecap:butt;stroke-linejoin:miter;stroke:rgb(100%,100%,100%);stroke-opacity:1;stroke-miterlimit:10;" d="M 0.00188774 0.000907871 C 9.958485 3.018769 21.150374 -5.428897 21.040917 -15.81941 C 21.1191 -32.499741 21.021372 -49.191799 21.091736 -65.868221 C 21.318467 -74.94917 12.921619 -83.181833 3.828943 -82.618916 C -4.95882 -82.759646 -12.781023 -74.659893 -12.581657 -65.911221 C -12.569929 -50.231632 -12.538656 -34.559862 -12.589475 -18.880273 C -13.590217 -10.581153 -8.281595 -2.000575 0.00188774 0.000907871 Z M 0.00188774 0.000907871 " transform="matrix(0.999259,0,0,-0.999259,36.431707,277.493095)"/>
<path style=" stroke:none;fill-rule:nonzero;fill:rgb(95.698547%,56.098938%,69.398499%);fill-opacity:1;" d="M 212.671875 584.707031 C 249.472656 603.390625 289.203125 616.101562 329.863281 623.097656 C 329.0625 634.46875 331.34375 646.347656 327.175781 657.273438 C 323.957031 665.824219 314.925781 670.921875 306.132812 671.589844 C 280.589844 671.800781 255.050781 671.363281 229.519531 671.820312 L 229.339844 671.832031 C 223.792969 642.78125 218.175781 613.753906 212.671875 584.707031 M 234.375 616.410156 C 230.867188 618.152344 228.699219 622.21875 229.378906 626.113281 C 230.328125 633.269531 231.816406 640.351562 232.886719 647.5 C 233.574219 651.464844 233.855469 656.234375 237.683594 658.589844 C 243.359375 663.066406 252.519531 658.160156 252.292969 651.035156 C 251.421875 643.632812 249.792969 636.328125 248.714844 628.953125 C 248.023438 625.433594 247.996094 621.476562 245.535156 618.628906 C 242.90625 615.441406 238.03125 614.59375 234.375 616.410156 "/>
<path style="fill:none;stroke-width:0.094;stroke-linecap:butt;stroke-linejoin:miter;stroke:rgb(95.698547%,47.499084%,55.299377%);stroke-opacity:1;stroke-miterlimit:10;" d="M 0.00127773 -0.00128459 C 36.829353 -18.698735 76.589288 -31.4191 117.2796 -38.420382 C 116.478225 -49.79991 118.761167 -61.687626 114.590107 -72.62151 C 111.36897 -81.178633 102.331022 -86.28007 93.531531 -86.948535 C 67.969618 -87.159628 42.411615 -86.721804 16.861429 -87.179174 L 16.681608 -87.190902 C 11.13062 -58.118575 5.509266 -29.069702 0.00127773 -0.00128459 M 21.720499 -31.727923 C 18.210085 -33.471402 16.040508 -37.540824 16.7207 -41.438244 C 17.670623 -48.599801 19.160008 -55.687085 20.231114 -62.840824 C 20.919124 -66.808609 21.200582 -71.581677 25.031547 -73.938893 C 30.711537 -78.418776 39.878487 -73.508887 39.651757 -66.378602 C 38.780017 -58.970769 37.149903 -51.660664 36.070978 -44.280194 C 35.379059 -40.758052 35.351695 -36.798086 32.888932 -33.948318 C 30.258076 -30.758454 25.379461 -29.910169 21.720499 -31.727923 Z M 21.720499 -31.727923 " transform="matrix(0.999259,0,0,-0.999259,212.670598,584.705748)"/>
<path style="fill-rule:nonzero;fill:rgb(90.59906%,48.199463%,57.598877%);fill-opacity:1;stroke-width:0.094;stroke-linecap:butt;stroke-linejoin:miter;stroke:rgb(82.398987%,41.19873%,48.999023%);stroke-opacity:1;stroke-miterlimit:10;" d="M 0.00133914 -0.00168377 C 9.828935 3.238999 19.187433 7.711063 28.671024 11.839123 C 23.628224 -15.290358 18.300057 -42.361202 13.171256 -69.45941 C 12.420699 -73.35292 11.889055 -77.461434 9.610023 -80.811573 C 6.338067 -85.811372 0.50171 -89.130238 -5.522286 -89.009054 C -32.858951 -89.040327 -60.191708 -89.009054 -87.520555 -89.0286 C -94.228652 -88.958235 -100.651381 -84.771539 -103.548059 -78.751452 C -105.451813 -75.022126 -105.221174 -70.710337 -105.690271 -66.668279 C -80.640457 -66.629187 -55.578914 -66.668279 -30.5291 -66.629187 C -23.039174 -66.859827 -16.108256 -62.301761 -12.038834 -56.230856 C -9.118701 -52.001159 -8.430691 -46.778538 -7.410404 -41.868649 C -6.030475 -33.761078 -4.329996 -25.719963 -2.871884 -17.631937 C -1.828142 -11.830763 -0.131572 -6.119499 -0.0103883 -0.20105 Z M 0.00133914 -0.00168377 " transform="matrix(0.999259,0,0,-0.999259,554.377568,602.342067)"/>
<path style=" stroke:none;fill-rule:nonzero;fill:rgb(95.698547%,56.098938%,69.398499%);fill-opacity:1;" d="M 448.664062 626.945312 C 484.777344 623.507812 520.34375 615.0625 554.367188 602.542969 C 554.246094 608.457031 552.550781 614.164062 551.507812 619.960938 C 550.050781 628.042969 548.351562 636.078125 546.972656 644.179688 C 545.953125 649.085938 545.265625 654.304688 542.347656 658.53125 C 538.28125 664.597656 531.355469 669.152344 523.871094 668.921875 C 498.839844 668.960938 473.796875 668.921875 448.765625 668.960938 C 448.335938 654.964844 448.507812 640.945312 448.664062 626.945312 M 460.289062 633.5 C 456.730469 634.636719 453.980469 638.304688 454.140625 642.082031 C 454.121094 647.089844 454.082031 652.105469 454.152344 657.121094 C 454.132812 663.21875 461.417969 667.59375 466.890625 665.027344 C 470.488281 663.695312 472.816406 659.890625 472.628906 656.101562 C 472.648438 651.40625 472.636719 646.71875 472.585938 642.035156 C 472.75 636.039062 465.894531 631.128906 460.289062 633.5 "/>
<path style="fill:none;stroke-width:0.094;stroke-linecap:butt;stroke-linejoin:miter;stroke:rgb(95.698547%,47.499084%,55.299377%);stroke-opacity:1;stroke-miterlimit:10;" d="M -0.00190899 -0.00139225 C 36.138156 3.438657 71.73094 11.890233 105.779612 24.41905 C 105.658428 18.500601 103.961858 12.789337 102.918116 6.988163 C 101.460004 -1.099863 99.759525 -9.140978 98.379596 -17.248549 C 97.359309 -22.158438 96.671299 -27.381059 93.751166 -31.610756 C 89.681744 -37.681661 82.750826 -42.239727 75.2609 -42.009087 C 50.211086 -42.048179 25.149543 -42.009087 0.0997288 -42.048179 C -0.330277 -28.041704 -0.158275 -14.011775 -0.00190899 -0.00139225 M 11.631713 -6.560941 C 8.07048 -7.698503 5.31844 -11.369192 5.478715 -15.149337 C 5.45917 -20.160864 5.420078 -25.180209 5.490443 -30.199554 C 5.470897 -36.301732 12.761456 -40.679977 18.238171 -38.111667 C 21.838496 -36.778648 24.168348 -32.971139 23.980709 -29.179266 C 24.000254 -24.480471 23.988527 -19.789495 23.937708 -15.102428 C 24.101892 -9.101887 17.241339 -4.188089 11.631713 -6.560941 Z M 11.631713 -6.560941 " transform="matrix(0.999259,0,0,-0.999259,448.66597,626.943921)"/>
<path style=" stroke:none;fill-rule:nonzero;fill:rgb(100%,100%,100%);fill-opacity:1;" d="M 234.375 616.410156 C 238.03125 614.59375 242.910156 615.441406 245.535156 618.628906 C 247.996094 621.476562 248.023438 625.433594 248.714844 628.953125 C 249.792969 636.328125 251.421875 643.632812 252.292969 651.035156 C 252.519531 658.160156 243.359375 663.066406 237.683594 658.589844 C 233.855469 656.234375 233.574219 651.464844 232.886719 647.5 C 231.816406 640.355469 230.328125 633.269531 229.378906 626.113281 C 228.699219 622.21875 230.867188 618.148438 234.375 616.410156 "/>
<path style="fill:none;stroke-width:0.094;stroke-linecap:butt;stroke-linejoin:miter;stroke:rgb(100%,100%,100%);stroke-opacity:1;stroke-miterlimit:10;" d="M 0.000299055 0.0014775 C 3.659261 1.819231 8.541785 0.970946 11.168732 -2.218918 C 13.631495 -5.068686 13.658859 -9.028652 14.350778 -12.550794 C 15.429703 -19.931264 17.059817 -27.241369 17.931557 -34.649202 C 18.158287 -41.779487 8.991337 -46.689376 3.311347 -42.209493 C -0.519618 -39.852277 -0.801076 -35.079209 -1.489086 -31.111424 C -2.560192 -23.961594 -4.049577 -16.870401 -4.9995 -9.708844 C -5.679692 -5.811424 -3.510115 -1.738093 0.000299055 0.0014775 Z M 0.000299055 0.0014775 " transform="matrix(0.999259,0,0,-0.999259,234.374701,616.411633)"/>
<path style=" stroke:none;fill-rule:nonzero;fill:rgb(90.59906%,48.199463%,57.598877%);fill-opacity:1;" d="M 329.863281 623.097656 C 335.878906 624.007812 341.855469 625.226562 347.941406 625.65625 C 348.699219 637.066406 348.261719 648.546875 348.320312 659.988281 C 348.339844 665.046875 347.96875 670.101562 347.609375 675.160156 C 346.929688 683.941406 338.816406 691.265625 330.035156 691.296875 C 302.722656 691.304688 275.414062 691.296875 248.105469 691.296875 C 242.128906 691.296875 236.171875 688.21875 232.976562 683.132812 C 230.675781 679.816406 230 675.726562 229.519531 671.820312 C 255.050781 671.363281 280.589844 671.800781 306.132812 671.589844 C 314.925781 670.921875 323.957031 665.824219 327.175781 657.273438 C 331.34375 646.351562 329.066406 634.46875 329.863281 623.097656 "/>
<path style="fill:none;stroke-width:0.094;stroke-linecap:butt;stroke-linejoin:miter;stroke:rgb(82.398987%,41.19873%,48.999023%);stroke-opacity:1;stroke-miterlimit:10;" d="M -0.000699934 -0.000482348 C 6.019387 -0.911314 12.000382 -2.130968 18.090833 -2.560974 C 18.849207 -13.979592 18.411383 -25.468576 18.47002 -36.918468 C 18.489566 -41.980813 18.118197 -47.039249 17.758555 -52.101595 C 17.078364 -60.889358 8.959065 -68.219008 0.171303 -68.250282 C -27.161454 -68.2581 -54.490301 -68.250282 -81.819149 -68.250282 C -87.800144 -68.250282 -93.761593 -65.169874 -96.959276 -60.080164 C -99.261763 -56.761298 -99.938046 -52.668421 -100.418871 -48.759274 C -74.868685 -48.301904 -49.310682 -48.739728 -23.748769 -48.528635 C -14.949278 -47.86017 -5.91133 -42.758733 -2.690193 -34.20161 C 1.480867 -23.271635 -0.798166 -11.38001 -0.000699934 -0.000482348 Z M -0.000699934 -0.000482348 " transform="matrix(0.999259,0,0,-0.999259,329.863981,623.097174)"/>
<path style=" stroke:none;fill-rule:nonzero;fill:rgb(100%,100%,100%);fill-opacity:1;" d="M 460.289062 633.5 C 465.894531 631.132812 472.746094 636.039062 472.589844 642.035156 C 472.636719 646.71875 472.648438 651.40625 472.628906 656.101562 C 472.816406 659.890625 470.488281 663.695312 466.890625 665.027344 C 461.417969 667.59375 454.132812 663.214844 454.152344 657.121094 C 454.082031 652.105469 454.121094 647.089844 454.140625 642.082031 C 453.980469 638.304688 456.730469 634.640625 460.289062 633.5 "/>
<path style="fill:none;stroke-width:0.094;stroke-linecap:butt;stroke-linejoin:miter;stroke:rgb(100%,100%,100%);stroke-opacity:1;stroke-miterlimit:10;" d="M 0.00181279 -0.000441091 C 5.611439 2.368502 12.468083 -2.541387 12.311717 -8.541928 C 12.358627 -13.228995 12.370354 -17.919971 12.350809 -22.618766 C 12.538448 -26.410639 10.208596 -30.218148 6.608271 -31.551167 C 1.131556 -34.119477 -6.159003 -29.737323 -6.139457 -23.639054 C -6.209822 -18.619709 -6.17073 -13.600364 -6.151185 -8.588837 C -6.31146 -4.808692 -3.55942 -1.141912 0.00181279 -0.000441091 Z M 0.00181279 -0.000441091 " transform="matrix(0.999259,0,0,-0.999259,460.287251,633.499559)"/>
</g>
</svg>
