<?xml version="1.0" encoding="UTF-8"?>
<svg xmlns="http://www.w3.org/2000/svg" xmlns:xlink="http://www.w3.org/1999/xlink" width="123.272pt" height="67.986pt" viewBox="0 0 123.272 67.986" version="1.2">
<defs>
<g>
<symbol overflow="visible" id="glyph0-0">
<path style="stroke:none;" d="M 0.84375 0 L 4.828125 0 L 4.828125 -6.4375 L 0.84375 -6.4375 Z M 1.234375 -0.859375 L 1.234375 -5.59375 L 2.609375 -3.21875 Z M 1.421875 -0.390625 L 2.828125 -2.828125 L 4.234375 -0.390625 Z M 1.421875 -6.046875 L 4.234375 -6.046875 L 2.828125 -3.625 Z M 3.046875 -3.21875 L 4.421875 -5.59375 L 4.421875 -0.859375 Z M 3.046875 -3.21875 "/>
</symbol>
<symbol overflow="visible" id="glyph0-1">
<path style="stroke:none;" d="M 1.34375 -1.015625 L 1.734375 -0.625 L 3.34375 -2.25 L 4.96875 -0.625 L 5.34375 -1.015625 L 3.734375 -2.625 L 5.34375 -4.25 L 4.96875 -4.625 L 3.34375 -3.015625 L 1.734375 -4.625 L 1.34375 -4.25 L 2.96875 -2.625 Z M 1.34375 -1.015625 "/>
</symbol>
<symbol overflow="visible" id="glyph0-2">
<path style="stroke:none;" d="M 0.78125 -2.5625 C 0.78125 -1.328125 1.390625 0.140625 3.6875 0.140625 C 4.359375 0.140625 5 0.046875 5.59375 -0.25 L 6.046875 -1.734375 L 5.765625 -1.734375 C 5.25 -0.796875 4.78125 -0.1875 3.640625 -0.1875 C 2.5625 -0.1875 1.78125 -0.875 1.78125 -2.3125 C 1.78125 -3.15625 2 -4.1875 2.453125 -4.9375 C 2.90625 -5.71875 3.640625 -6.265625 4.640625 -6.265625 C 5.75 -6.265625 6.15625 -5.765625 6.15625 -4.859375 L 6.15625 -4.703125 L 6.453125 -4.703125 L 6.78125 -6.09375 C 6.25 -6.421875 5.375 -6.59375 4.71875 -6.59375 C 2.96875 -6.59375 1.96875 -5.765625 1.421875 -4.890625 C 0.90625 -4.0625 0.78125 -3.203125 0.78125 -2.5625 Z M 0.78125 -2.5625 "/>
</symbol>
<symbol overflow="visible" id="glyph0-3">
<path style="stroke:none;" d="M 0.203125 0 L 3.046875 0 C 4.90625 0 6 -0.671875 6.671875 -1.6875 C 7.203125 -2.484375 7.296875 -3.265625 7.296875 -3.828125 C 7.296875 -4.578125 7.03125 -5.328125 6.484375 -5.78125 C 5.9375 -6.234375 5.109375 -6.4375 4.078125 -6.4375 L 1.578125 -6.4375 L 1.515625 -6.171875 L 2.078125 -6.125 C 2.234375 -6.125 2.28125 -6.046875 2.28125 -5.890625 C 2.28125 -5.828125 2.28125 -5.75 2.265625 -5.671875 L 1.15625 -0.765625 C 1.078125 -0.46875 1 -0.34375 0.765625 -0.328125 L 0.25 -0.265625 Z M 2.046875 -0.6875 C 2.046875 -0.71875 2.046875 -0.765625 2.046875 -0.796875 L 3.171875 -5.78125 C 3.25 -6.09375 3.375 -6.125 4.1875 -6.125 C 6.125 -6.078125 6.296875 -4.78125 6.296875 -4.03125 C 6.296875 -3.234375 6.109375 -2.484375 5.6875 -1.78125 C 5.15625 -0.90625 4.359375 -0.328125 2.8125 -0.328125 C 2.359375 -0.328125 2.046875 -0.390625 2.046875 -0.6875 Z M 2.046875 -0.6875 "/>
</symbol>
<symbol overflow="visible" id="glyph0-4">
<path style="stroke:none;" d="M 0.984375 -2.625 C 0.984375 -0.890625 1.40625 1.125 3.03125 1.1875 L 3.03125 0.953125 C 2.484375 0.859375 1.625 0.0625 1.625 -2.625 C 1.625 -5.296875 2.453125 -6.09375 3.03125 -6.21875 L 3.03125 -6.4375 C 1.40625 -6.375 0.984375 -4.359375 0.984375 -2.625 Z M 0.984375 -2.625 "/>
</symbol>
<symbol overflow="visible" id="glyph0-5">
<path style="stroke:none;" d="M 0.6875 -1.125 C 0.6875 -0.515625 0.875 0.109375 1.625 0.109375 C 2.6875 0.109375 3.53125 -1.03125 4.078125 -2.03125 L 4.09375 -2.03125 L 3.78125 -0.921875 C 3.734375 -0.734375 3.703125 -0.5625 3.703125 -0.421875 C 3.703125 -0.078125 3.859375 0.109375 4.1875 0.109375 L 4.203125 0.109375 C 4.890625 0.109375 5.40625 -0.53125 5.71875 -1.234375 L 5.515625 -1.359375 C 5.34375 -1.03125 4.921875 -0.375 4.671875 -0.375 C 4.5625 -0.375 4.515625 -0.453125 4.515625 -0.5625 C 4.515625 -0.640625 4.546875 -0.75 4.578125 -0.875 L 6.046875 -6.859375 L 6 -6.90625 L 4.34375 -6.6875 L 4.296875 -6.46875 L 4.84375 -6.421875 C 5 -6.40625 5.046875 -6.375 5.046875 -6.265625 C 5.046875 -6.21875 5.046875 -6.125 5.015625 -6.03125 L 4.65625 -4.53125 L 4.640625 -4.515625 C 4.453125 -4.609375 4.171875 -4.671875 3.859375 -4.671875 C 1.6875 -4.671875 0.6875 -2.25 0.6875 -1.125 Z M 1.609375 -1.046875 C 1.609375 -2.046875 2.421875 -4.34375 3.90625 -4.34375 C 4.203125 -4.34375 4.453125 -4.265625 4.5625 -4.15625 C 4.421875 -3.453125 4.109375 -2.5625 3.640625 -1.796875 C 3.1875 -1.0625 2.578125 -0.375 2.078125 -0.375 C 1.78125 -0.375 1.609375 -0.625 1.609375 -1.046875 Z M 1.609375 -1.046875 "/>
</symbol>
<symbol overflow="visible" id="glyph0-6">
<path style="stroke:none;" d="M 0.234375 0.953125 L 0.234375 1.1875 C 1.859375 1.125 2.28125 -0.890625 2.28125 -2.625 C 2.28125 -4.359375 1.859375 -6.375 0.234375 -6.4375 L 0.234375 -6.21875 C 0.828125 -6.09375 1.625 -5.296875 1.625 -2.625 C 1.625 0.0625 0.78125 0.859375 0.234375 0.953125 Z M 0.234375 0.953125 "/>
</symbol>
</g>
</defs>
<g id="surface1">
<g style="fill:rgb(0%,0%,0%);fill-opacity:1;">
  <use xlink:href="#glyph0-1" x="25.030181" y="64.477967"/>
</g>
<g style="fill:rgb(0%,0%,0%);fill-opacity:1;">
  <use xlink:href="#glyph0-2" x="18.698573" y="58.528105"/>
</g>
<g style="fill:rgb(0%,0%,0%);fill-opacity:1;">
  <use xlink:href="#glyph0-1" x="81.390338" y="8.118804"/>
</g>
<g style="fill:rgb(0%,0%,0%);fill-opacity:1;">
  <use xlink:href="#glyph0-3" x="88.236905" y="15.742779"/>
</g>
<path style="fill:none;stroke-width:0.3985;stroke-linecap:butt;stroke-linejoin:miter;stroke:rgb(0%,0%,0%);stroke-opacity:1;stroke-miterlimit:10;" d="M -56.695534 0.00167594 L 56.692822 0.00167594 " transform="matrix(0.994129,0,0,-0.994129,56.557989,33.986041)"/>
<g style="fill:rgb(0%,0%,0%);fill-opacity:1;">
  <use xlink:href="#glyph0-4" x="106.589521" y="29.297729"/>
  <use xlink:href="#glyph0-5" x="109.847986" y="29.297729"/>
</g>
<g style="fill:rgb(0%,0%,0%);fill-opacity:1;">
  <use xlink:href="#glyph0-6" x="115.988559" y="29.297729"/>
</g>
</g>
</svg>
