<?xml version="1.0" encoding="UTF-8"?><svg id="a" xmlns="http://www.w3.org/2000/svg" viewBox="0 0 512 510.17"><path d="M278.04,280.04c-1.95,0-3.89-.74-5.38-2.22-2.98-2.97-7.16-3.61-4.19-6.59l178.44-178.81c2.97-2.98-.14,4.95,2.84,7.92,2.98,2.97,10.91-.14,7.94,2.84l-178.44,178.81c-1.49,1.49.74-1.94-1.21-1.94h0Z" fill="#dd636e" stroke-width="0"/><path d="M487.81,196.69h-253.21c-4.53,0-8.2-3.41-8.2-7.62s3.67-7.62,8.2-7.62h253.21c4.53,0,8.2,3.41,8.2,7.62s-3.67,7.62-8.2,7.62Z" fill="#dd636e" stroke-width="0"/><path d="M444.37,280.04c-1.95,0,2.9,6.06,1.41,4.56l-178.97-179.34c-2.97-2.98,2.87-1.96,5.85-4.94,2.98-2.97,1.96-8.8,4.94-5.82l178.97,179.34c2.97,2.98-3.84,1-6.81,3.97-1.49,1.48-3.43,2.23-5.38,2.23h0Z" fill="#dd636e" stroke-width="0"/><path d="M361.21,324.64c-4.21,0-7.62-3.68-7.62-8.23V61.73c0-4.54,3.41-8.23,7.62-8.23s7.62,3.68,7.62,8.23v254.68c0,4.54-3.41,8.23-7.62,8.23Z" fill="#dd636e" stroke-width="0"/><path d="M446.5,189.07c0-43.67-32.82-79.68-75.14-84.7-3.33-.4-6.72-.6-10.16-.6-47.11,0-84.28,43.37-84.28,85.3s37.17,85.3,84.28,85.3c3.44,0,6.82-.2,10.15-.6,42.32-5.02,75.14-41.03,75.14-84.7h0Z" fill="#e28086" stroke-width="0"/><path d="M242.4,189.53c0-11.25-7.36-20.78-17.52-24.01-2.4-.76-4.96-.16-7.62-.16-13.88,0-24.12,10.26-24.12,24.17s10.24,24.17,24.12,24.17c2.6,0,5.11.62,7.47-.12,10.23-3.19,17.66-12.75,17.66-24.06h0Z" fill="#e2a2ac" stroke-width="0"/><path d="M512,189.53c0-6.09-3.38-11.38-8.37-14.09-2.27-1.23-4.86-.92-7.62-.92-8.83,0-14.98,8.21-14.98,15.01s6.15,15.01,14.98,15.01c2.76,0,5.35.32,7.62-.91,4.99-2.71,8.38-8.01,8.38-14.1Z" fill="#e2a2ac" stroke-width="0"/><path d="M361.21,68.52c2.76,0,5.35.32,7.62-.91,4.99-2.71,8.38-8.01,8.38-14.1s-3.38-11.38-8.37-14.09c-2.27-1.23-4.86-.92-7.62-.92-8.83,0-14.98,6.16-14.98,15.01s6.14,15.01,14.98,15.01Z" fill="#e2a2ac" stroke-width="0"/><path d="M361.21,356.33c2.66,0,5.22.6,7.62-.18,9.97-3.22,17.18-12.6,17.18-23.66s-7.21-20.44-17.18-23.66c-2.4-.77-5.97-.18-8.63-.18-13.7,0-22.77,12.57-22.77,23.84,0,8.76,10.09,23.84,23.78,23.84h0Z" fill="#e2a2ac" stroke-width="0"/><path d="M446.98,103.57c5.74,5.74,16.84,10.75,26.19,8.08,4.38-1.25,8.52-3.61,11.97-7.07,10.82-10.84,10.82-28.42,0-39.27-3.45-3.46-7.59-5.82-11.97-7.07-9.36-2.67-21.45,3.34-26.19,8.08-9.58,9.58-9.23,28.01,0,37.24Z" fill="#e2a2ac" stroke-width="0"/><path d="M256.38,294.59c2.84,2.84,11.85,7.07,17.92,3.78,1.32-.72,2.57-1.64,3.69-2.76,6.25-6.26,6.25-16.41,0-22.67-1.12-1.12-2.36-2.04-3.69-2.76-6.06-3.3-14.19.05-17.92,3.78-6.25,6.25-6.25,14.38,0,20.64h0Z" fill="#e2a2ac" stroke-width="0"/><path d="M277.19,105.34c9.81-9.84,9.81-25.79,0-35.62-2.94-2.95-6.44-5.02-10.15-6.2-8.66-2.75-18.52.33-25.39,7.21-9.81,9.84-6.22,27.15.77,34.13,6.88,6.88,15.96,9.42,24.63,6.67,3.71-1.18,7.21-3.25,10.15-6.2Z" fill="#e2a2ac" stroke-width="0"/><path d="M480.76,309.35c9.81-9.84,9.81-25.79,0-35.62-2.94-2.95-6.43-5.01-10.14-6.19-8.66-2.76-18.21.69-25.08,7.58-9.81,9.84-8.17,24.33.3,32.8,6.88,6.88,16.11,10.39,24.77,7.64,3.71-1.18,7.21-3.25,10.15-6.2h0Z" fill="#e2a2ac" stroke-width="0"/><circle cx="327.7" cy="189.29" r="17.77" fill="#e2a2ac" stroke-width="0"/><circle cx="386.08" cy="162.38" r="15.23" fill="#e2a2ac" stroke-width="0"/><circle cx="383.04" cy="224.32" r="15.23" fill="#e2a2ac" stroke-width="0"/><path d="M62.14,434.66c-1.95,0-3.89-.74-5.38-2.22-2.98-2.97-9.63-1.14-6.66-4.12l122.15-122.39c2.97-2.98-1.57,6.38,1.41,9.35,2.98,2.97,12.35-1.57,9.38,1.41l-122.15,122.39c-1.49,1.49,3.21-4.42,1.26-4.42h0Z" fill="#5766cb" stroke-width="0"/><path d="M200.41,381.47H30c-4.21,0,2.54-3.41,2.54-7.62s-6.75-7.62-2.54-7.62h170.41c4.21,0-2.54,3.41-2.54,7.62s6.75,7.62,2.54,7.62Z" fill="#5766cb" stroke-width="0"/><path d="M168.27,434.66c-1.95,0,2.75,5.91,1.26,4.42l-117.59-117.82c-2.97-2.98,1.84-3,4.81-5.97,2.98-2.97,3-7.77,5.97-4.79l117.59,117.82c2.97,2.98-3.69,1.15-6.66,4.12-1.49,1.48-3.43,2.22-5.38,2.22Z" fill="#5766cb" stroke-width="0"/><path d="M115.2,456.69c-4.21,0-7.62,6.74-7.62,2.54v-170.74c0-4.21,3.41,2.54,7.62,2.54s7.62-6.74,7.62-2.54v170.74c0,4.21-3.41-2.54-7.62-2.54Z" fill="#5766cb" stroke-width="0"/><path d="M39.39,374.15c0-6.1-3.39-11.41-8.39-14.13-2.27-1.24-4.88-.92-7.64-.92-8.86,0-15.02,6.18-15.02,15.06s6.16,15.06,15.02,15.06c2.76,0,5.35.32,7.62-.91,5.01-2.72,8.42-8.03,8.42-14.15Z" fill="#8993da" stroke-width="0"/><path d="M222.54,374.15c0-5.63-3.06-10.56-7.61-13.19-2.24-1.3-4.85-1.03-7.62-1.03-8.41,0-14.22,5.8-14.22,14.22s5.8,14.22,14.22,14.22c2.78,0,5.38.27,7.63-1.03,4.55-2.64,7.6-7.55,7.6-13.19Z" fill="#8993da" stroke-width="0"/><path d="M115.2,296.49c2.78,0,5.38.27,7.62-1.03,4.55-2.64,7.61-7.55,7.61-13.19s-3.06-10.56-7.61-13.19c-2.24-1.3-4.85-1.03-7.62-1.03-8.41,0-14.22,5.8-14.22,14.22s5.8,14.22,14.22,14.22Z" fill="#8993da" stroke-width="0"/><path d="M115.2,480.22c2.76,0,5.36.31,7.62-.94,4.89-2.7,8.21-7.91,8.21-13.9s-3.31-11.21-8.21-13.9c-2.26-1.25-4.86-.94-7.62-.94-8.74,0-14.81,6.09-14.81,14.84s6.07,14.84,14.81,14.84h0Z" fill="#8993da" stroke-width="0"/><path d="M171.4,317.83c6.16,6.17,14.11,8.81,21.75,5.9,2.74-1.04,5.31-2.67,7.52-4.89,8.36-8.38,8.36-21.97,0-30.36-2.21-2.21-4.78-3.84-7.52-4.89-7.64-2.91-15.6-.27-21.75,5.9-8.37,8.38-8.37,19.94,0,28.33Z" fill="#8993da" stroke-width="0"/><path d="M31.67,457.82c6.02,6.02,13.82,8.58,21.27,5.64,2.57-1.01,4.97-2.55,7.04-4.63,8.1-8.1,8.1-21.23,0-29.33-2.07-2.07-4.48-3.62-7.04-4.63-7.45-2.94-15.24-.38-21.27,5.64-8.1,8.1-8.1,19.2,0,27.3Z" fill="#8993da" stroke-width="0"/><path d="M61.6,320.43c6.26-6.28,6.26-16.45,0-22.73-1.13-1.13-2.38-2.06-3.72-2.78-6.08-3.29-12.81-1.35-17.94,3.8-6.26,6.28-4.71,15.99,0,20.7,5.14,5.14,11.87,7.09,17.94,3.8,1.34-.72,2.59-1.65,3.72-2.78Z" fill="#8993da" stroke-width="0"/><path d="M191.49,450.61c6.26-6.28,6.26-16.45,0-22.73-1.13-1.13-2.38-2.05-3.71-2.78-6.08-3.3-12.82-1.36-17.95,3.79-6.26,6.28-6.26,14.42,0,20.7,5.13,5.14,11.86,7.09,17.94,3.8,1.34-.72,2.59-1.65,3.72-2.78Z" fill="#8993da" stroke-width="0"/><path d="M207.36,189.53c0-11.25,7.37-20.78,17.52-24.01-2.4-.76-4.97-1.18-7.62-1.18-13.88,0-25.13,11.28-25.13,25.19s11.25,25.19,25.13,25.19c2.66,0,5.21-.41,7.61-1.18-10.16-3.23-17.51-12.76-17.51-24.01Z" fill="#e28086" stroke-width="0"/><path d="M495.25,189.53c0-6.09,3.39-11.38,8.38-14.1-2.26-1.23-4.86-1.93-7.62-1.93-8.83,0-15.99,7.18-15.99,16.03s7.16,16.03,15.99,16.03c2.76,0,5.35-.7,7.62-1.93-4.99-2.71-8.38-8.01-8.38-14.1h0Z" fill="#e28086" stroke-width="0"/><path d="M360.44,53.51c0-6.09,3.39-11.39,8.38-14.1-2.26-1.23-4.86-1.93-7.62-1.93-8.83,0-15.99,7.18-15.99,16.03s7.16,16.03,15.99,16.03c2.76,0,5.35-.7,7.62-1.93-4.99-2.71-8.38-8.01-8.38-14.1Z" fill="#e28086" stroke-width="0"/><path d="M351.64,332.49c0-11.06,7.21-20.44,17.18-23.66-2.4-.78-4.96-1.19-7.62-1.19-13.7,0-24.8,11.13-24.8,24.86s11.1,24.86,24.8,24.86c2.66,0,5.22-.42,7.62-1.19-9.97-3.22-17.19-12.6-17.19-23.66Z" fill="#e28086" stroke-width="0"/><path d="M461.2,104.58c-10.82-10.84-10.82-28.42,0-39.27,3.45-3.46,7.59-5.82,11.98-7.07-9.36-2.67-19.84-.32-27.21,7.07-10.82,10.84-10.82,28.42,0,39.27,7.37,7.38,17.85,9.74,27.21,7.07-4.38-1.25-8.52-3.61-11.98-7.07Z" fill="#e28086" stroke-width="0"/><path d="M270.6,295.61c-6.25-6.26-6.25-16.41,0-22.67,1.12-1.12,2.38-2.04,3.7-2.76-6.06-3.3-13.81-2.38-18.93,2.76-6.25,6.26-6.25,16.41,0,22.67,5.13,5.14,12.87,6.06,18.93,2.76-1.33-.72-2.58-1.64-3.7-2.76Z" fill="#e28086" stroke-width="0"/><path d="M256.88,105.34c-9.81-9.84-9.81-25.79,0-35.62,2.94-2.95,6.46-5.01,10.17-6.19-8.66-2.75-18.53-.69-25.4,6.19-9.81,9.84-9.81,25.79,0,35.62,6.87,6.89,16.73,8.95,25.39,6.2-3.71-1.18-7.22-3.25-10.16-6.2h0Z" fill="#e28086" stroke-width="0"/><path d="M460.45,309.35c-9.82-9.84-9.82-25.79,0-35.62,2.94-2.95,6.46-5.01,10.17-6.19-8.66-2.75-18.53-.69-25.4,6.19-9.82,9.84-9.82,25.79,0,35.62,6.87,6.89,16.73,8.95,25.39,6.2-3.71-1.18-7.21-3.25-10.16-6.2Z" fill="#e28086" stroke-width="0"/><path d="M22.55,374.15c0-6.11,3.41-11.43,8.42-14.15-2.27-1.23-4.86-1.93-7.62-1.93-8.86,0-16.04,7.2-16.04,16.07s7.18,16.07,16.04,16.07c2.76,0,5.35-.7,7.62-1.93-5.01-2.72-8.42-8.03-8.42-14.15Z" fill="#707dd3" stroke-width="0"/><path d="M207.31,374.15c0-5.63,3.08-10.55,7.63-13.19-2.24-1.3-4.85-2.04-7.63-2.04-8.41,0-15.23,6.82-15.23,15.23s6.82,15.23,15.23,15.23c2.78,0,5.38-.75,7.63-2.04-4.55-2.64-7.63-7.55-7.63-13.19Z" fill="#707dd3" stroke-width="0"/><path d="M115.2,282.27c0-5.63,3.07-10.55,7.62-13.19-2.24-1.3-4.85-2.04-7.62-2.04-8.41,0-15.23,6.82-15.23,15.23s6.82,15.23,15.23,15.23c2.78,0,5.37-.74,7.62-2.04-4.55-2.63-7.62-7.56-7.62-13.19Z" fill="#707dd3" stroke-width="0"/><path d="M114.61,465.37c0-5.99,3.32-11.21,8.21-13.9-2.26-1.25-4.86-1.95-7.62-1.95-8.74,0-15.82,7.1-15.82,15.86s7.08,15.86,15.82,15.86c2.76,0,5.36-.71,7.62-1.95-4.89-2.7-8.21-7.91-8.21-13.91h0Z" fill="#707dd3" stroke-width="0"/><path d="M185.62,318.84c-8.36-8.38-8.36-21.97,0-30.36,2.21-2.21,4.79-3.84,7.54-4.89-7.64-2.91-16.61-1.28-22.77,4.89-8.36,8.38-8.36,21.97,0,30.36,6.15,6.17,15.13,7.8,22.77,4.89-2.74-1.04-5.33-2.67-7.54-4.89Z" fill="#707dd3" stroke-width="0"/><path d="M45.89,458.83c-8.1-8.1-8.1-21.23,0-29.33,2.07-2.07,4.49-3.62,7.05-4.63-7.45-2.94-16.26-1.4-22.29,4.63-8.1,8.1-8.1,21.23,0,29.33,6.02,6.02,14.83,7.57,22.28,4.63-2.57-1.01-4.98-2.55-7.05-4.63Z" fill="#707dd3" stroke-width="0"/><path d="M54.15,320.43c-6.26-6.28-6.26-16.45,0-22.73,1.13-1.13,2.39-2.06,3.73-2.78-6.08-3.29-13.83-2.36-18.96,2.78-6.26,6.28-6.26,16.45,0,22.73,5.13,5.15,12.88,6.07,18.96,2.78-1.34-.72-2.6-1.65-3.73-2.78Z" fill="#707dd3" stroke-width="0"/><path d="M184.04,450.61c-6.26-6.28-6.26-16.45,0-22.73,1.13-1.13,2.4-2.05,3.74-2.78-6.08-3.29-13.84-2.37-18.97,2.78-6.26,6.28-6.26,16.45,0,22.73,5.13,5.15,12.88,6.07,18.96,2.78-1.34-.72-2.59-1.65-3.72-2.78h0Z" fill="#707dd3" stroke-width="0"/><path d="M167.69,373.86c0-25.57-18.21-46.88-42.34-51.62-3.28-.64-6.67.03-10.14.03-28.99,0-51.47,22.53-51.47,51.59s22.48,51.59,51.47,51.59c3.47,0,6.87.68,10.15.03,24.13-4.74,42.33-26.05,42.33-51.62Z" fill="#8993da" stroke-width="0"/><path d="M196.64,74.46l-1.95-13.51c-.6-4.16-4.46-7.06-8.63-6.45-3.45.5-6.02,3.24-6.46,6.54-.06.47-.46.82-.93.85l-31.17,2.14c-4.2.28-3.57,3.62-3.29,7.82.27,4.02-.18,7.4,3.8,7.4.17,0,.35,0,.52-.02l32.2-2.21c.47-.03.92.26,1.04.72.88,3.33,3.91,5.66,7.35,5.66,1.03,0,2.09-.21,3.13-.67,3.16-1.4,4.88-4.86,4.38-8.28h0Z" fill="#f4d8a5" stroke-width="0"/><path d="M175.37,92.8c-3.7-1.11-7.45.69-9.04,3.93-.2.4-.65.61-1.09.52l-28.02-5.46c-4.13-.81-8.13,1.89-8.93,6.02s-3.28,7.11.85,7.91l32.85,6.42c.46.09.82.49.82.96.01,3.51,2.47,6.66,6.05,7.42.53.11,1.06.17,1.58.17,3.52,0,6.69-2.46,7.44-6.05l2.68-12.72c.83-3.91-1.35-7.97-5.18-9.12Z" fill="#f4d8a5" stroke-width="0"/><path d="M142.28,209.13c-2.47-3.18-6.9-3.84-10.16-1.72-.4.26-.92.18-1.25-.16l-23.07-23.69c-2.93-3.01-5.46-.78-8.47,2.14-3.02,2.94-3.1,7.76-.16,10.78l20.05,20.62c.33.34.39.87.12,1.26-1.9,2.74-1.83,6.52.42,9.2,1.51,1.8,3.67,2.73,5.85,2.73,1.72,0,3.45-.58,4.88-1.77l10.42-8.7c3.19-2.66,3.93-7.44,1.38-10.72Z" fill="#f4d8a5" stroke-width="0"/><path d="M151.71,167.26c-3.13-2.21-7.22-1.73-9.76.78-.32.32-.83.35-1.22.12l-29.14-17.4c-3.66-2.19-3.5,1.94-5.75,5.59-2.15,3.49-1.23,7.94,2.28,10.05l24.89,14.89c.4.24.6.73.45,1.17-1.18,3.38.17,7.23,3.38,9.09,1.2.69,2.51,1.02,3.8,1.02,2.63,0,5.19-1.36,6.6-3.81l6.51-11.26c1.99-3.44,1.2-7.94-2.04-10.24h0Z" fill="#f4d8a5" stroke-width="0"/><path d="M159.13,127.98c-3.49-1.67-7.48-.46-9.55,2.52-.26.38-.75.51-1.18.35l-27.64-10.59c-3.93-1.51-6.99.97-8.5,4.89-1.5,3.93-.88,7.83,3.05,9.33l27.64,10.59c.42.16.7.59.65,1.04-.43,3.4,1.48,6.78,4.83,8.06.9.34,1.82.51,2.72.51,3.06,0,5.95-1.86,7.11-4.89l4.58-11.96c1.43-3.75-.09-8.11-3.72-9.84h0Z" fill="#f4d8a5" stroke-width="0"/><path d="M61.3,97.55l-29.45-11.35c-.4-.15-.63-.55-.6-.98.18-3.48-2.05-6.81-5.7-7.77-3.79-.99-7.7,1.22-9.1,4.88l-4.49,11.72c-1.41,3.68.02,7.97,3.53,9.76,1.13.58,2.32.84,3.48.84,2.64,0,5.13-1.39,6.51-3.71.25-.42.77-.59,1.22-.42l29.15,11.23c.9.34-.3-.39.61-.39,3.06,0,5.95-1.86,7.11-4.89,1.51-3.93,1.66-7.44-2.27-8.95Z" fill="#f4d8a5" stroke-width="0"/><path d="M104.81,43.47l-15.41-28.85c-.22-.41-.14-.92.22-1.23,2.48-2.13,3.4-5.71,2.01-8.85-1.7-3.85-6.2-5.59-10.04-3.89l-12.08,5.33c-3.75,1.65-5.77,5.94-4.32,9.77,1.17,3.08,4.08,4.93,7.13,4.93.68,0,1.37-.1,2.04-.29.44-.13.92.1,1.13.51l15.9,29.77c1.37,2.56,1.6-.65,4.31-.65,1.22,0,2.45-.29,3.6-.91,3.71-1.99,7.5-1.94,5.51-5.64Z" fill="#f4d8a5" stroke-width="0"/><path d="M82.41,64.72l-28.56-17.08c-.39-.23-.6-.69-.47-1.12.98-3.4-.5-7.21-3.91-8.93-3.53-1.78-7.86-.39-9.98,2.95l-6.87,10.84c-2.11,3.34-1.53,7.84,1.59,10.27,1.42,1.11,3.07,1.63,4.71,1.63,2.12,0,4.19-.89,5.66-2.54.31-.35.84-.41,1.25-.16l28.76,17.2c1.22.73-1.5-1.35-.17-1.35,2.59,0,5.12-1.32,6.54-3.71,2.16-3.61,5.06-5.86,1.45-8.02Z" fill="#f4d8a5" stroke-width="0"/><path d="M51.81,173.05c-1.43-3.96-.76-7.74-4.71-6.31l-32.07,11.5c-.43.15-.91.01-1.17-.37-2.11-3.16-6.32-4.35-9.84-2.52-3.63,1.88-4.98,6.43-3.3,10.16l5.42,12.03c1.27,2.82,4.04,4.49,6.95,4.49,1.05,0,2.11-.22,3.12-.67,3.19-1.44,4.9-4.8,4.39-8.1-.07-.47.21-.92.66-1.08l31-11.12c3.96-1.43.97-4.06-.45-8.01Z" fill="#f4d8a5" stroke-width="0"/><path d="M50.56,134.8l-30.97-6.03c-.45-.09-.8-.46-.82-.92-.12-3.54-2.71-6.63-6.35-7.25-4.16-.7-8.08,2.1-8.78,6.24l-2.17,12.89c-.65,3.86,1.57,7.77,5.33,8.85.72.21,1.44.3,2.14.3,3.02,0,5.75-1.81,6.95-4.55.19-.42.65-.64,1.11-.56l30.64,5.96c.49.1,1.92-.36,2.4-.36,3.57,0,3.19-2.52,3.9-6.16.8-4.13.74-7.63-3.38-8.43Z" fill="#f4d8a5" stroke-width="0"/><path d="M66.45,201.44c-12.07-4.62-19.33-15.21-19.84-28.84-1.44-38.85,18.93-97.16,48.03-126.72,7.32-7.44,28.07-14.19,41.12-5.88,1.74,1.11,3.39,2.39,4.95,3.86,13.22,12.47,13.83,33.18,1.36,46.27-20.9,21.94-31.92,50.7-31.03,80.98.53,18.07-13.76,33.07-31.93,33.52-1.12.03-2.23,0-3.32-.08-3.26-.25-6.39-1.98-9.33-3.11Z" fill="#f1cb86" stroke-width="0"/><path d="M60.48,177.79c-1.4-47.77,15.98-93.12,48.94-127.72,7.06-7.41,16.83-10.78,26.35-10.05-13.05-8.32-30.58-6.58-41.58,4.97-32.96,34.6-50.34,79.96-48.94,127.72.4,13.64,9.13,25.12,21.2,29.75,2.94,1.13,6.07,1.84,9.33,2.09-8.92-5.67-14.97-15.47-15.3-26.76Z" fill="#ecbe6b" stroke-width="0"/><path d="M77.38,180.32c-4.1,0-7.49-3.26-7.61-7.39-1.21-41.05,13.73-80.04,42.06-109.77,2.9-3.05,7.72-3.16,10.77-.26,3.05,2.9,3.16,7.72.26,10.77-25.5,26.77-38.95,61.86-37.86,98.82.12,4.21-3.19,7.71-7.39,7.84-.08,0-.15,0-.23,0h0Z" fill="#f4d8a5" stroke-width="0"/><path d="M502.86,443.15h-134.04c-4.21,0-7.62-3.41-7.62-7.62s3.41-7.62,7.62-7.62h134.04c4.21,0,7.62,3.41,7.62,7.62s-3.41,7.62-7.62,7.62Z" fill="#f4d8a5" stroke-width="0"/><path d="M435.84,510.17c-4.21,0-7.62-3.41-7.62-7.62v-134.04c0-4.21,3.41-7.62,7.62-7.62s7.62,3.41,7.62,7.62v134.04c0,4.21-3.41,7.62-7.62,7.62Z" fill="#f4d8a5" stroke-width="0"/><path d="M483.23,490.54c-1.95,0-3.9-.74-5.39-2.23l-94.78-94.78c-2.97-2.97-2.97-7.8,0-10.77,2.98-2.97,7.8-2.97,10.77,0l94.78,94.78c2.97,2.97,2.97,7.8,0,10.77-1.49,1.49-3.44,2.23-5.38,2.23h0Z" fill="#f4d8a5" stroke-width="0"/><path d="M388.45,490.54c-1.95,0-3.9-.74-5.39-2.23-2.97-2.97-2.97-7.8,0-10.77l94.78-94.78c2.98-2.97,7.8-2.97,10.77,0s2.97,7.8,0,10.77l-94.78,94.78c-1.49,1.49-3.44,2.23-5.38,2.23Z" fill="#f4d8a5" stroke-width="0"/><path d="M485.6,435.54c0-24-16.99-44.03-39.6-48.72-3.28-.68-6.68-.02-10.16-.02-27.48,0-47.73,21.26-47.73,48.74s20.25,48.74,47.73,48.74c3.47,0,6.87.66,10.14-.02,22.62-4.68,39.62-24.72,39.62-48.72Z" fill="#f1cb86" stroke-width="0"/><path d="M296.22,189.07c0-43.67,32.83-79.68,75.15-84.7-3.33-.4-6.72-.6-10.16-.6-47.11,0-85.3,38.19-85.3,85.3s38.19,85.3,85.3,85.3c3.44,0,6.82-.2,10.15-.6-42.32-5.02-75.14-41.03-75.14-84.7h0Z" fill="#dd636e" stroke-width="0"/><path d="M83.03,373.86c0-25.57,18.19-46.88,42.32-51.62-3.29-.65-6.67-.98-10.14-.98-28.99,0-52.48,23.55-52.48,52.6s23.5,52.6,52.48,52.6c3.47,0,6.87-.34,10.15-.98-24.13-4.74-42.33-26.05-42.33-51.62Z" fill="#707dd3" stroke-width="0"/><path d="M406.39,435.54c0-24,16.99-44.03,39.6-48.72-3.28-.68-6.67-1.04-10.15-1.04-27.48,0-49.76,22.28-49.76,49.76s22.28,49.76,49.76,49.76c3.48,0,6.88-.36,10.15-1.04-22.61-4.69-39.6-24.72-39.6-48.72Z" fill="#ecbe6b" stroke-width="0"/><circle cx="435.84" cy="435.54" r="15.23" fill="#f4d8a5" stroke-width="0"/><path d="M274.38,477.17c0-6.22-3.49-11.62-8.63-14.35-2.27-1.21-4.87-.88-7.62-.88-8.97,0-15.23,6.26-15.23,15.23s6.26,15.23,15.23,15.23c2.75,0,5.35.33,7.62-.88,5.13-2.73,8.63-8.13,8.63-14.35Z" fill="#8993da" stroke-width="0"/><path d="M331.25,426.4c0-9.09-5.69-16.85-13.7-19.92-2.37-.91-4.94-.39-7.62-.39-11.78,0-20.31,8.53-20.31,20.31s8.53,20.31,20.31,20.31c2.69,0,5.26.52,7.62-.39,8.01-3.07,13.7-10.83,13.7-19.92Z" fill="#8993da" stroke-width="0"/><path d="M296.72,362.42c0-5.63-3.06-10.56-7.61-13.19-2.24-1.3-4.85-1.03-7.62-1.03-8.41,0-14.22,5.8-14.22,14.22s5.8,14.22,14.22,14.22c2.78,0,5.38.27,7.62-1.03,4.55-2.63,7.61-7.55,7.61-13.19Z" fill="#8993da" stroke-width="0"/><path d="M257.12,477.17c0-6.22,3.5-11.62,8.64-14.35-2.27-1.21-4.87-1.89-7.62-1.89-8.97,0-16.25,7.27-16.25,16.25s7.27,16.25,16.25,16.25c2.75,0,5.35-.69,7.62-1.89-5.13-2.73-8.64-8.13-8.64-14.35Z" fill="#707dd3" stroke-width="0"/><path d="M303.83,426.4c0-9.09,5.72-16.85,13.73-19.92-2.37-.91-4.95-1.41-7.64-1.41-11.78,0-21.32,9.55-21.32,21.32s9.55,21.32,21.32,21.32c2.69,0,5.26-.5,7.63-1.41-8.01-3.07-13.72-10.83-13.72-19.92Z" fill="#707dd3" stroke-width="0"/><path d="M281.49,362.42c0-5.63,3.07-10.55,7.62-13.19-2.24-1.3-4.85-2.04-7.62-2.04-8.41,0-15.23,6.82-15.23,15.23s6.82,15.23,15.23,15.23c2.78,0,5.38-.74,7.62-2.04-4.55-2.63-7.62-7.55-7.62-13.19Z" fill="#707dd3" stroke-width="0"/></svg>