<svg xmlns="http://www.w3.org/2000/svg" xmlns:xlink="http://www.w3.org/1999/xlink" width="217.414pt" height="222.135pt" viewBox="0 0 217.414 222.135"><defs><path id="b" d="M.4375-3.51562C.4375-1.40625 1.04688.125 2.78125.125c1.73438 0 2.35938-1.53125 2.35938-3.64062 0-2.09375-.625-3.625-2.35938-3.625S.4375-5.60937.4375-3.51562m1.0625 0c0-1.70313.28125-3.25 1.28125-3.25s1.28125 1.54687 1.28125 3.25C4.0625-1.79687 3.78125-.25 2.78125-.25S1.5-1.79687 1.5-3.51562m0 0"/><path id="c" d="M1.14063 0h3.45312v-.29687L3.70313-.375c-.21875-.03125-.34375-.10937-.34375-.51562v-6.1875l-.04688-.0625-2.17187.375v.25l.98437.125c.17188.01562.25.09375.25.40625v5.09375c0 .40625-.10937.48437-.35937.51562l-.875.07813Zm0 0"/><path id="d" d="M.28125-.09375.39063 0h4.34375l.35937-1.39062-.29687-.04688c-.21875.5625-.42188.64063-.85938.64063H1.26563c.17187-.54688.79687-1.29688 1.76562-2 1-.73438 1.78125-1.20313 1.78125-2.375 0-1.46875-.96875-1.96875-2.07812-1.96875-1.4375 0-2.17188.875-2.17188 1.42187 0 .35938.39063.53125.57813.53125s.25-.125.29687-.29687c.17188-.71875.57813-1.28125 1.23438-1.28125.79687 0 1.03125.67187 1.03125 1.4375 0 1.125-.5625 1.76562-1.48438 2.5625C.92188-1.625.48438-.92187.28125-.09375m0 0"/><path id="e" d="M.28125-1.07812C.28125-.625 1 .125 2.48438.125c1.53125 0 2.48437-.76562 2.48437-2.10937 0-1.40625-1.20312-1.82813-1.78125-1.875v-.04688C3.75-4 4.65625-4.42187 4.65625-5.46875c0-1.15625-.90625-1.67187-2.03125-1.67187-1.39062 0-2.0625.8125-2.0625 1.25 0 .32812.35938.5.51563.5.125 0 .20312-.07813.25-.20313.23437-.71875.625-1.17187 1.21875-1.17187.82812 0 1.04687.71875 1.04687 1.3125 0 .625-.23437 1.42187-1.125 1.42187-.5 0-.79687-.10937-.92187-.10937s-.1875.10937-.1875.29687c0 .17188.0625.29688.1875.29688s.42187-.10938.92187-.10938c.89063 0 1.39063.8125 1.39063 1.71875C3.85938-.6875 3.25-.25 2.5-.25c-.6875 0-1.14062-.51562-1.34375-1.10937-.07812-.1875-.17187-.29688-.3125-.29688-.20312 0-.5625.20313-.5625.57813m0 0"/><path id="f" d="m.20313-2.09375.09375.21875h2.85937v1.07813c0 .34375-.125.40625-.375.42187l-.67187.07813V0H4.875v-.29687l-.46875-.0625c-.23437-.03125-.3125-.09375-.3125-.4375V-1.875h1.07813v-.5H4.09375v-4.64062h-.76562C2.34375-5.5625 1.15625-3.75.20313-2.09375m.75-.28125C1.59375-3.51562 2.34375-4.71875 3.15625-6v3.625Zm0 0"/><path id="g" d="M.42188-1.07812C.42188-.59375 1.15625.125 2.53125.125c1.71875 0 2.5-1.04687 2.5-2.375 0-1.48437-.90625-2.23437-2.15625-2.23437-.57812 0-1.21875.26562-1.5625.5625l.23438-1.98438c.04687-.26562.10937-.3125.3125-.3125h2.60937l.25-.70312-.04687-.09375H1.15625l-.09375.09375-.21875 3.51562.26563.14063c.4375-.51563.85937-.75 1.42187-.75.67188 0 1.40625.48437 1.40625 1.875C3.9375-1.0625 3.51563-.25 2.59375-.25c-.73437 0-1.10937-.51562-1.3125-1.125-.0625-.15625-.17187-.25-.3125-.25-.20312 0-.54687.20313-.54687.54688m0 0"/><path id="i" d="M.45313-3.23437C.45313-.96875 1.28125.125 2.85938.125c1.54687 0 2.375-.9375 2.375-2.375 0-1.42187-.85938-2.1875-2-2.1875-.82813 0-1.4375.5625-1.71875.90625.01562-2.3125.65625-3.23437 1.59375-3.23437.48437 0 .82812.39062.98437 1 .04688.125.125.21875.28125.21875.23438 0 .54688-.1875.54688-.46875 0-.4375-.51563-1.125-1.76563-1.125-1.67187 0-2.70312 1.28125-2.70312 3.90625m1.0625.75c0-.625.48437-1.42188 1.35937-1.42188.67188 0 1.3125.60938 1.3125 1.8125C4.1875-.98437 3.76563-.25 2.875-.25c-.90625 0-1.35937-.96875-1.35937-2.23437m0 0"/><path id="j" d="M.4375-1.90625C.4375-.84375 1.07813.125 2.78125.125 4.48438.125 5.125-.84375 5.125-1.90625c0-1.07812-.67187-1.70312-1.375-1.875.625-.15625 1.14063-.70312 1.14063-1.5625 0-1.14062-.90625-1.79687-2.10938-1.79687S.67188-6.48437.67188-5.34375c0 .85938.53125 1.40625 1.15625 1.5625C1.125-3.60937.4375-2.98437.4375-1.90625m1.04688.03125c0-.96875.45312-1.67187 1.29687-1.67187s1.29688.70312 1.29688 1.67187c0 .92188-.40625 1.625-1.29688 1.625-.875 0-1.29687-.70312-1.29687-1.625m.20312-3.5c0-.79687.375-1.39062 1.09375-1.39062S3.875-6.17187 3.875-5.375c0 .71875-.32812 1.4375-1.09375 1.4375-.76562 0-1.09375-.71875-1.09375-1.4375m0 0"/><path id="k" d="m1.6875-1.26562.48438.48437L4.1875-2.8125 6.23438-.78125l.46875-.48437-2.03125-2.01563 2.03125-2.04687-.46875-.46875L4.1875-3.76562 2.17188-5.79687l-.48438.46875 2.03125 2.04687Zm0 0"/><clipPath id="a"><path d="M4 6h212.69922v214H4Zm0 0"/></clipPath><clipPath id="h"><path d="M198 188h18.69922v26H198Zm0 0"/></clipPath></defs><g clip-path="url(#a)"><path fill="none" stroke="#000" stroke-miterlimit="10" stroke-opacity=".5" stroke-width=".39695" d="M4.53125 201.15625h211.77342M4.53125 165.85938h211.77342M4.53125 130.5664h211.77342M4.53125 95.26954h211.77342M4.53125 59.97267h211.77342M4.53125 24.67579h211.77342M22.1797 218.8047V7.02736m35.29296 211.77733V7.02736m35.29688 211.77733V7.02736m35.29687 211.77733V7.02736m35.29687 211.77733V7.02736m35.29687 211.77733V7.02736"/></g><path fill="none" stroke="#000" stroke-miterlimit="10" stroke-opacity=".5" stroke-width=".39695" d="M22.17969 192.33203v17.64844"/><use xlink:href="#b" x="7.04388" y="217.01593" fill-opacity=".5"/><path fill="none" stroke="#000" stroke-miterlimit="10" stroke-opacity=".5" stroke-width=".39695" d="M57.47265 192.33203v17.64844"/><use xlink:href="#c" x="54.69333" y="213.54744" fill-opacity=".5"/><path fill="none" stroke="#000" stroke-miterlimit="10" stroke-opacity=".5" stroke-width=".39695" d="M92.76953 192.33203v17.64844"/><use xlink:href="#d" x="89.98889" y="213.54744" fill-opacity=".5"/><path fill="none" stroke="#000" stroke-miterlimit="10" stroke-opacity=".5" stroke-width=".39695" d="M128.0664 192.33203v17.64844"/><use xlink:href="#e" x="125.28445" y="213.48668" fill-opacity=".5"/><path fill="none" stroke="#000" stroke-miterlimit="10" stroke-opacity=".5" stroke-width=".39695" d="M163.36327 192.33203v17.64844"/><use xlink:href="#f" x="160.58" y="213.48668" fill-opacity=".5"/><path fill="none" stroke="#000" stroke-miterlimit="10" stroke-opacity=".5" stroke-width=".39695" d="M198.66014 192.33203v17.64844"/><use xlink:href="#g" x="195.87556" y="213.42492" fill-opacity=".5"/><path fill="none" stroke="#000" stroke-miterlimit="10" stroke-width=".79392" d="M4.53125 201.15625h205.62108"/><path d="M214.30078 201.15625c-.50781-.10547-2.7461-.70703-4.14844-1.35937v2.71875c1.40235-.65235 3.64063-1.25391 4.14844-1.35938m0 0"/><g clip-path="url(#h)"><path fill="none" stroke="#000" stroke-miterlimit="10" stroke-width=".79392" d="M214.30078 201.15625c-.50781-.10547-2.7461-.70703-4.14844-1.35937v2.71875c1.40235-.65235 3.64063-1.25391 4.14844-1.35938Zm0 0"/></g><path fill="none" stroke="#000" stroke-miterlimit="10" stroke-opacity=".5" stroke-width=".39695" d="M31 165.85938H13.35547"/><use xlink:href="#d" x="7.04388" y="169.42824" fill-opacity=".5"/><path fill="none" stroke="#000" stroke-miterlimit="10" stroke-opacity=".5" stroke-width=".39695" d="M31 130.56641H13.35547"/><use xlink:href="#f" x="7.04388" y="134.07092" fill-opacity=".5"/><path fill="none" stroke="#000" stroke-miterlimit="10" stroke-opacity=".5" stroke-width=".39695" d="M31 95.26954H13.35547"/><use xlink:href="#i" x="7.04388" y="98.77537" fill-opacity=".5"/><path fill="none" stroke="#000" stroke-miterlimit="10" stroke-opacity=".5" stroke-width=".39695" d="M31 59.97267H13.35547"/><use xlink:href="#j" x="7.04388" y="63.47981" fill-opacity=".5"/><path fill="none" stroke="#000" stroke-miterlimit="10" stroke-opacity=".5" stroke-width=".39695" d="M31 24.6758H13.35547"/><g fill-opacity=".5"><use xlink:href="#c" x="4.2647" y="28.18425"/><use xlink:href="#b" x="9.82462" y="28.18425"/></g><path fill="none" stroke="#000" stroke-miterlimit="10" stroke-width=".79392" d="M22.17969 218.80469V13.1797"/><path stroke="#000" stroke-miterlimit="10" stroke-width=".79392" d="M22.17969 9.03125c-.10938.51172-.70703 2.75-1.35938 4.14844h2.71485c-.65235-1.39844-1.25-3.63672-1.35547-4.14844Zm0 0"/><use xlink:href="#k" x="17.98527" y="186.40513"/><use xlink:href="#k" x="53.28083" y="151.10958"/><use xlink:href="#k" x="88.57639" y="115.81402"/><use xlink:href="#k" x="123.87195" y="80.51846"/><use xlink:href="#k" x="159.16751" y="45.2229"/><use xlink:href="#k" x="194.46306" y="9.92734"/></svg>