<svg xmlns="http://www.w3.org/2000/svg" xmlns:xlink="http://www.w3.org/1999/xlink" width="232.837pt" height="228.758pt" viewBox="0 0 232.837 228.758"><defs><path id="b" d="M.5-4.0625C.5-1.625 1.23438.14063 3.23438.14063S5.95313-1.625 5.95313-4.0625s-.71875-4.20312-2.71875-4.20312S.5-6.5.5-4.0625m1.23438 0c0-1.98437.34375-3.78125 1.5-3.78125S4.70313-6.04687 4.70313-4.0625c0 1.98438-.3125 3.78125-1.46875 3.78125s-1.5-1.79687-1.5-3.78125m0 0"/><path id="c" d="M1.1875 0h3.59375v-.3125l-.92187-.07812C3.625-.42187 3.5-.5 3.5-.9375V-7.375l-.04687-.0625-2.26563.39063v.26562l1.03125.125c.17188.01563.25.10938.25.42188V-.9375c0 .4375-.10937.51563-.35937.54688L1.1875-.3125Zm0 0"/><path id="d" d="M.29688-.10937.42188 0h4.53125l.35937-1.4375L5.01563-1.5c-.23438.59375-.45313.67188-.89063.67188H1.32813c.17187-.5625.82812-1.34375 1.84375-2.07813 1.04687-.76562 1.85937-1.26562 1.85937-2.48437 0-1.53125-1.01562-2.04688-2.17187-2.04688-1.5 0-2.26563.90625-2.26563 1.48438 0 .35937.42188.54687.60938.54687s.26562-.125.3125-.3125c.17187-.73437.60937-1.32812 1.28125-1.32812.82812 0 1.07812.6875 1.07812 1.5 0 1.17187-.59375 1.82812-1.54687 2.67187C.98438-1.70312.51563-.95312.29688-.10937m0 0"/><path id="e" d="M.29688-1.125c0 .46875.76562 1.25 2.3125 1.25C4.1875.125 5.1875-.67187 5.1875-2.07812c0-1.45313-1.25-1.89063-1.85937-1.95313v-.04687c.59375-.09375 1.53125-.53125 1.53125-1.60938 0-1.21875-.9375-1.75-2.10938-1.75-1.45312 0-2.15625.84375-2.15625 1.29688 0 .34375.39063.53125.53125.53125s.21875-.07813.26563-.21875c.25-.75.65625-1.21875 1.28125-1.21875.85937 0 1.07812.75 1.07812 1.35937 0 .65625-.23437 1.48438-1.17187 1.48438-.51563 0-.82813-.10938-.95313-.10938-.14062 0-.1875.10938-.1875.3125 0 .1875.04688.29688.1875.29688.125 0 .4375-.10938.95313-.10938.9375 0 1.46875.84375 1.46875 1.79688C4.04688-.70312 3.40625-.25 2.625-.25c-.73437 0-1.20312-.54687-1.42187-1.15625-.0625-.21875-.17188-.3125-.3125-.3125-.20313 0-.59375.20313-.59375.59375m0 0"/><path id="f" d="m.21875-2.1875.09375.23438h2.98438v1.10937c0 .375-.125.4375-.39063.45313l-.6875.07812V0h2.875v-.3125L4.60938-.375c-.25-.03125-.32813-.09375-.32813-.46875v-1.10937h1.125v-.51563h-1.125V-7.3125h-.79687C2.45313-5.79687 1.21875-3.90625.21875-2.1875m.79688-.28125c.65625-1.1875 1.4375-2.45312 2.28125-3.78125v3.78125Zm0 0"/><path id="g" d="M.45313-1.125c0 .51563.76562 1.25 2.1875 1.25 1.8125 0 2.625-1.09375 2.625-2.46875 0-1.54687-.95313-2.32812-2.26563-2.32812-.60937 0-1.26562.26562-1.60937.59375L1.625-6.15625c.04688-.28125.10938-.3125.3125-.3125h2.73438l.26562-.75-.0625-.09375H1.21875l-.09375.10938-.23437 3.65625.26562.14062c.46875-.53125.90625-.78125 1.5-.78125.70313 0 1.46875.51563 1.46875 1.95313C4.125-1.10937 3.67188-.25 2.71875-.25c-.78125 0-1.15625-.54687-1.375-1.1875-.0625-.15625-.17187-.26562-.3125-.26562-.23437 0-.57812.21874-.57812.57812m0 0"/><path id="i" d="M.48438-3.375c0 2.35938.85937 3.5 2.5 3.5 1.625 0 2.48437-.96875 2.48437-2.46875 0-1.46875-.90625-2.28125-2.07812-2.28125-.85938 0-1.5.57813-1.79688.95313.01563-2.42188.67188-3.375 1.67188-3.375.5 0 .85937.40625 1.01562 1.04687.03125.125.125.21875.28125.21875.25 0 .57813-.1875.57813-.5 0-.4375-.53125-1.15625-1.84375-1.15625-1.73438 0-2.8125 1.34375-2.8125 4.0625m1.10937.79688c0-.67188.5-1.48438 1.42188-1.48438.6875 0 1.35937.625 1.35937 1.89063C4.375-1.03125 3.9375-.25 3.01563-.25c-.95313 0-1.42188-1.01562-1.42188-2.32812m0 0"/><path id="j" d="M.46875-1.98437C.46875-.89062 1.14063.125 2.90625.125c1.76563 0 2.45313-1.01562 2.45313-2.10937 0-1.125-.70313-1.78125-1.45313-1.95313.67188-.17187 1.20313-.73437 1.20313-1.64062 0-1.1875-.9375-1.85938-2.20313-1.85938-1.25 0-2.20312.67188-2.20312 1.85938 0 .90625.5625 1.46875 1.21875 1.64062-.73438.17188-1.45313.82813-1.45313 1.95313m1.09375.03124c0-1 .46875-1.75 1.34375-1.75s1.35938.75 1.35938 1.75c0 .96876-.4375 1.70313-1.35938 1.70313-.92187 0-1.34375-.73437-1.34375-1.70312m.20313-3.64062c0-.84375.40625-1.45312 1.14062-1.45312.75 0 1.14063.60937 1.14063 1.45312 0 .73438-.34375 1.5-1.14063 1.5-.78125 0-1.14062-.76562-1.14062-1.5m0 0"/><path id="k" d="M.45313-3.65625c0 2.1875.65625 3.78125 2.45312 3.78125 1.8125 0 2.45313-1.59375 2.45313-3.78125S4.71875-7.4375 2.90625-7.4375c-1.79687 0-2.45312 1.59375-2.45312 3.78125m1.10937 0c0-1.78125.3125-3.39062 1.34375-3.39062 1.04688 0 1.32813 1.60937 1.32813 3.39062S3.95313-.25 2.90625-.25C1.875-.25 1.5625-1.875 1.5625-3.65625m0 0"/><clipPath id="a"><path d="M29 0h203.63281v204H29Zm0 0"/></clipPath><clipPath id="h"><path d="M214 190h18.63281v26H214Zm0 0"/></clipPath></defs><g clip-path="url(#a)"><path fill="none" stroke="#7f7f7f" stroke-dasharray=".39807759000000004 .9952239432000001" stroke-miterlimit="10" stroke-width=".39808" d="M29.76953 202.86328h202.4687M29.76953 166.0508h202.4687m-202.4687-36.8125h202.4687M29.76953 92.42582h202.4687M29.76953 55.6133h202.4687M29.76953 18.80083h202.4687M29.76953 202.86328V.39458m36.8125 202.4687V.39458m36.81248 202.4687V.39458m36.8125 202.4687V.39458m36.81249 202.4687V.39458m36.81249 202.4687V.39458"/></g><use xlink:href="#b" x="13.65321" y="219.80847" fill="#7f7f7f"/><path fill="none" stroke="#7f7f7f" stroke-miterlimit="10" stroke-width=".39808" d="M66.58202 193.66016v18.40234"/><use xlink:href="#c" x="63.6723" y="224.07595" fill="#7f7f7f"/><path fill="none" stroke="#7f7f7f" stroke-miterlimit="10" stroke-width=".39808" d="M103.39451 193.66016v18.40234"/><use xlink:href="#d" x="100.48336" y="224.07595" fill="#7f7f7f"/><path fill="none" stroke="#7f7f7f" stroke-miterlimit="10" stroke-width=".39808" d="M140.207 193.66016v18.40234"/><use xlink:href="#e" x="137.29541" y="224.07595" fill="#7f7f7f"/><path fill="none" stroke="#7f7f7f" stroke-miterlimit="10" stroke-width=".39808" d="M177.0195 193.66016v18.40234"/><use xlink:href="#f" x="174.10647" y="223.94809" fill="#7f7f7f"/><path fill="none" stroke="#7f7f7f" stroke-miterlimit="10" stroke-width=".39808" d="M213.83199 193.66016v18.40234"/><use xlink:href="#g" x="210.91853" y="223.94809" fill="#7f7f7f"/><path fill="none" stroke="#000" stroke-miterlimit="10" stroke-width=".79617" d="M11.36329 202.86328h214.70307"/><path d="M230.22656 202.86328c-.51172-.10937-2.75781-.71094-4.16015-1.36328v2.72266c1.40234-.65235 3.64843-1.25391 4.16015-1.35938m0 0"/><g clip-path="url(#h)"><path fill="none" stroke="#000" stroke-miterlimit="10" stroke-width=".79617" d="M230.22656 202.86328c-.51172-.10937-2.75781-.71094-4.16015-1.36328v2.72266c1.40234-.65235 3.64843-1.25391 4.16015-1.35938Zm0 0"/></g><path fill="none" stroke="#7f7f7f" stroke-miterlimit="10" stroke-width=".39808" d="M38.97265 166.05079H20.56641"/><use xlink:href="#d" x="10.17589" y="169.7704" fill="#7f7f7f"/><path fill="none" stroke="#7f7f7f" stroke-miterlimit="10" stroke-width=".39808" d="M38.97265 129.2383H20.56641"/><use xlink:href="#f" x="10.17589" y="132.89541" fill="#7f7f7f"/><path fill="none" stroke="#7f7f7f" stroke-miterlimit="10" stroke-width=".39808" d="M38.97265 92.4258H20.56641"/><use xlink:href="#i" x="10.17589" y="96.08335" fill="#7f7f7f"/><path fill="none" stroke="#7f7f7f" stroke-miterlimit="10" stroke-width=".39808" d="M38.97265 55.61332H20.56641"/><use xlink:href="#j" x="10.17589" y="59.2723" fill="#7f7f7f"/><path fill="none" stroke="#7f7f7f" stroke-miterlimit="10" stroke-width=".39808" d="M38.97265 18.80082H20.56641"/><g fill="#7f7f7f"><use xlink:href="#c" x="4.35405" y="22.46024"/><use xlink:href="#k" x="10.17604" y="22.46024"/></g><path fill="none" stroke="#000" stroke-miterlimit="10" stroke-width=".79617" d="M29.76953 221.26562V6.56645"/><path stroke="#000" stroke-miterlimit="10" stroke-width=".79617" d="M29.76953 2.40625c-.10547.51172-.70703 2.75781-1.35937 4.16016h2.72265c-.65234-1.40235-1.2539-3.64844-1.36328-4.16016Zm0 0"/></svg>