<svg xmlns="http://www.w3.org/2000/svg" xmlns:xlink="http://www.w3.org/1999/xlink" width="347.624pt" height="355.416pt" viewBox="0 0 347.624 355.416"><defs><path id="a" d="M1.82813 0h5.53125v-.48437l-1.42188-.125c-.34375-.03126-.54687-.15626-.54687-.82813v-9.92187l-.09375-.07813-3.46875.59375v.40625l1.57812.1875c.28125.04688.39063.17188.39063.65625v8.15625c0 .67188-.15625.79688-.5625.82813l-1.40625.125Zm0 0"/><path id="b" d="M.45313-.15625.625 0h6.96875l.57813-2.21875-.46875-.09375C7.34375-1.39062 7-1.26562 6.32813-1.26562h-4.3125c.28125-.89063 1.28125-2.07813 2.84375-3.20313 1.60937-1.1875 2.85937-1.9375 2.85937-3.82812 0-2.34375-1.5625-3.14063-3.32812-3.14063-2.3125 0-3.5 1.39063-3.5 2.26563 0 .57812.65625.84375.9375.84375.29687 0 .40625-.17188.48437-.46875.26563-1.14063.92188-2.04688 1.96875-2.04688 1.28125 0 1.65625 1.0625 1.65625 2.29688 0 1.8125-.90625 2.82812-2.375 4.125C1.48438-2.60937.76563-1.46875.45313-.15625m0 0"/><path id="c" d="M.45313-1.71875C.45313-1 1.60938.20313 4 .20313c2.42188 0 3.96875-1.23438 3.96875-3.39063 0-2.25-1.9375-2.92187-2.85937-3.01562v-.0625c.90625-.14063 2.35937-.82813 2.35937-2.48438 0-1.875-1.45312-2.6875-3.26562-2.6875-2.21875 0-3.3125 1.28125-3.3125 2 0 .51563.59375.8125.82812.8125.21875 0 .34375-.125.40625-.34375.375-1.14062 1.01563-1.875 1.95313-1.875 1.32812 0 1.67187 1.15625 1.67187 2.10938 0 1-.35937 2.26562-1.79687 2.26562-.79688 0-1.26563-.15625-1.46875-.15625-.20313 0-.29688.15625-.29688.46875 0 .28125.09375.46875.29688.46875s.67187-.17187 1.46875-.17187c1.4375 0 2.25 1.29687 2.25 2.76562 0 2-1 2.70313-2.1875 2.70313-1.10938 0-1.84375-.82813-2.17188-1.78125-.10937-.3125-.26562-.48438-.5-.48438-.3125 0-.89062.32813-.89062.9375m0 0"/><path id="d" d="m.32813-3.35937.14062.34375h4.57813v1.71875c0 .57812-.17188.67187-.59375.70312l-1.0625.10938V0h4.4375v-.48437l-.75-.09375c-.40625-.04688-.5-.14063-.5-.71875v-1.71875h1.71875v-.78125H6.57813V-11.25H5.34375C3.76563-8.92187 1.85938-6 .32813-3.35937m1.21875-.4375c1-1.82813 2.21875-3.78125 3.5-5.8125v5.8125Zm0 0"/><path id="e" d="M.6875-1.71875c0 .76563 1.17188 1.92188 3.35938 1.92188 2.78125 0 4.03125-1.6875 4.03125-3.8125 0-2.375-1.46875-3.57813-3.46875-3.57813-.9375 0-1.95313.42188-2.5.90625l.375-3.1875c.0625-.4375.17187-.48437.48437-.48437h4.1875l.42188-1.15625-.09375-.14063h-5.625l-.15626.17188-.34374 5.60937.40625.21875c.70312-.79687 1.39062-1.20312 2.29687-1.20312 1.07813 0 2.26563.79687 2.26563 3.01562 0 1.73438-.70313 3.04688-2.17188 3.04688-1.1875 0-1.78125-.84375-2.10937-1.8125-.09375-.25-.25-.40625-.48438-.40625-.34375 0-.875.32812-.875.89062m0 0"/><path id="f" d="M.73438-5.1875c0 3.625 1.32812 5.39063 3.84375 5.39063 2.5 0 3.8125-1.51563 3.8125-3.79688S7-7.10937 5.1875-7.10937c-1.3125 0-2.29687.89062-2.75 1.45312.01563-3.70312 1.03125-5.1875 2.5625-5.1875.76563 0 1.32813.64063 1.57813 1.60938C6.625-9.04687 6.75-8.875 7-8.875c.375 0 .89063-.3125.89063-.78125 0-.67187-.8125-1.78125-2.84375-1.78125-2.67188 0-4.3125 2.04688-4.3125 6.25M2.4375-3.96875C2.4375-5 3.20313-6.25 4.625-6.25c1.04688 0 2.09375.96875 2.09375 2.90625 0 1.76563-.6875 2.95313-2.09375 2.95313-1.46875 0-2.1875-1.5625-2.1875-3.57813m0 0"/><path id="g" d="M.70313-3.0625c0 1.70313 1.03125 3.26563 3.75 3.26563 2.73437 0 3.76562-1.5625 3.76562-3.26563 0-1.71875-1.07812-2.71875-2.21875-2.98437 1.01563-.28125 1.84375-1.15625 1.84375-2.53125 0-1.82813-1.45312-2.85938-3.39062-2.85938-1.92188 0-3.375 1.03125-3.375 2.85938 0 1.375.85937 2.25 1.85937 2.53125C1.8125-5.78125.70313-4.78125.70313-3.0625m1.67187.04688c0-1.53125.73438-2.67188 2.07813-2.67188s2.07812 1.14063 2.07812 2.67188c0 1.5-.65625 2.625-2.07812 2.625-1.40625 0-2.07813-1.125-2.07813-2.625m.32813-5.59375c0-1.29688.60937-2.23438 1.75-2.23438 1.15625 0 1.76562.9375 1.76562 2.23438 0 1.14062-.54687 2.3125-1.76562 2.3125s-1.75-1.17188-1.75-2.3125m0 0"/><path id="h" d="M.70313-5.625c0 3.375.98437 5.82813 3.75 5.82813C7.23438.20313 8.23438-2.25 8.23438-5.625c0-3.35937-1-5.8125-3.78125-5.8125-2.76563 0-3.75 2.45313-3.75 5.8125m1.70312 0c0-2.73437.45313-5.21875 2.04688-5.21875s2.0625 2.48438 2.0625 5.21875-.46875 5.23438-2.0625 5.23438-2.04688-2.5-2.04688-5.23438m0 0"/><path id="j" d="m2.70313-2.03125.78125.78125 3.23437-3.26562L9.98438-1.25l.75-.78125L7.5-5.26562l3.23438-3.26563-.75-.75-3.26563 3.23438-3.23437-3.23438-.78125.75 3.26562 3.26563Zm0 0"/><clipPath id="i"><path d="M329 309h18.15234v27H329Zm0 0"/></clipPath></defs><path fill="none" stroke="#000" stroke-miterlimit="10" stroke-opacity=".5" stroke-width=".39785" d="M7.15233 322.57422h339.60562M7.15233 265.97263h339.60562M7.15233 209.37104h339.60562M7.15233 152.77336h339.60562M7.15233 96.17177h339.60562M7.15233 39.57018h339.60562M35.45312 350.87501V11.2694m56.6016 339.60562V11.2694m56.60158 339.60562V11.2694m56.59768 339.60562V11.2694m56.60159 339.60562V11.2694m56.60159 339.60562V11.2694M92.05471 308.42578v28.29688"/><use xlink:href="#a" x="87.59567" y="342.44431" fill-opacity=".5"/><path fill="none" stroke="#000" stroke-miterlimit="10" stroke-opacity=".5" stroke-width=".39785" d="M148.6563 308.42578v28.29688"/><use xlink:href="#b" x="144.19566" y="342.44431" fill-opacity=".5"/><path fill="none" stroke="#000" stroke-miterlimit="10" stroke-opacity=".5" stroke-width=".39785" d="M205.25398 308.42578v28.29688"/><use xlink:href="#c" x="200.79566" y="342.34548" fill-opacity=".5"/><path fill="none" stroke="#000" stroke-miterlimit="10" stroke-opacity=".5" stroke-width=".39785" d="M261.85557 308.42578v28.29688"/><use xlink:href="#d" x="257.39566" y="342.34548" fill-opacity=".5"/><path fill="none" stroke="#000" stroke-miterlimit="10" stroke-opacity=".5" stroke-width=".39785" d="M318.45716 308.42578v28.29688"/><use xlink:href="#e" x="313.99566" y="342.24664" fill-opacity=".5"/><path fill="none" stroke="#000" stroke-miterlimit="10" stroke-opacity=".5" stroke-width=".39785" d="M49.60157 265.97263H21.30468"/><use xlink:href="#b" x="11.18522" y="271.69457" fill-opacity=".5"/><path fill="none" stroke="#000" stroke-miterlimit="10" stroke-opacity=".5" stroke-width=".39785" d="M49.60157 209.37104H21.30468"/><use xlink:href="#d" x="11.18522" y="214.99573" fill-opacity=".5"/><path fill="none" stroke="#000" stroke-miterlimit="10" stroke-opacity=".5" stroke-width=".39785" d="M49.60157 152.77336H21.30468"/><use xlink:href="#f" x="11.18522" y="158.39573" fill-opacity=".5"/><path fill="none" stroke="#000" stroke-miterlimit="10" stroke-opacity=".5" stroke-width=".39785" d="M49.60157 96.17177H21.30468"/><use xlink:href="#g" x="11.18522" y="101.79573" fill-opacity=".5"/><path fill="none" stroke="#000" stroke-miterlimit="10" stroke-opacity=".5" stroke-width=".39785" d="M49.60157 39.57018H21.30468"/><g fill-opacity=".5"><use xlink:href="#a" x="6.72754" y="45.19574"/><use xlink:href="#h" x="15.64341" y="45.19574"/></g><path fill="none" stroke="#000" stroke-miterlimit="10" stroke-opacity=".5" stroke-width=".39785" d="M35.45312 308.42578v28.29688"/><use xlink:href="#h" x="11.18522" y="348.00617" fill-opacity=".5"/><path fill="none" stroke="#000" stroke-miterlimit="10" stroke-width=".7957" d="M7.15233 322.57422h333.43765"/><path d="M344.7461 322.57422c-.50782-.10547-2.75391-.70703-4.15626-1.36328v2.72656c1.40235-.65625 3.64844-1.25781 4.15625-1.36328m0 0"/><g clip-path="url(#i)"><path fill="none" stroke="#000" stroke-miterlimit="10" stroke-width=".7957" d="M344.7461 322.57422c-.50782-.10547-2.75391-.70703-4.15626-1.36328v2.72656c1.40235-.65625 3.64844-1.25781 4.15626-1.36328Zm0 0"/></g><path fill="none" stroke="#000" stroke-miterlimit="10" stroke-width=".7957" d="M35.45312 350.87501V17.43736"/><path stroke="#000" stroke-miterlimit="10" stroke-width=".7957" d="M35.45312 13.28125c-.10546.50781-.70703 2.7539-1.36328 4.15625h2.72657c-.65625-1.40234-1.25782-3.64844-1.36329-4.15625Zm0 0"/><use xlink:href="#j" x="28.73039" y="298.91883"/><use xlink:href="#j" x="85.33039" y="242.31884"/><use xlink:href="#j" x="141.92939" y="185.71884"/><use xlink:href="#j" x="198.52939" y="129.11884"/><use xlink:href="#j" x="255.12938" y="72.51984"/><use xlink:href="#j" x="311.72938" y="15.91984"/></svg>