<svg xmlns="http://www.w3.org/2000/svg" xmlns:xlink="http://www.w3.org/1999/xlink" width="142.529pt" height="107.096pt" viewBox="0 0 142.529 107.096"><defs><path id="b" d="M.4375-3.48437C.4375-1.40625 1.04688.125 2.76563.125s2.34375-1.53125 2.34375-3.60937c0-2.09375-.625-3.60938-2.34375-3.60938S.4375-5.57812.4375-3.48437m1.04688 0c0-1.70313.29687-3.25 1.28125-3.25.98437 0 1.28125 1.54687 1.28125 3.25C4.04688-1.78125 3.75-.25 2.76563-.25c-.98438 0-1.28125-1.53125-1.28125-3.23437m0 0"/><path id="c" d="M.89063-2.64062H6.625V-3.25H.89063Zm0 0"/><path id="d" d="M1.14063 0H4.5625v-.29687L3.6875-.375c-.21875-.03125-.34375-.10937-.34375-.51562v-6.15625l-.0625-.04688-2.14062.35938v.25l.96875.125c.17187.03125.25.10937.25.40625v5.0625c0 .40625-.10938.48437-.34375.51562l-.875.07813Zm0 0"/><path id="e" d="M.28125-.09375.39063 0h4.3125l.35937-1.375-.28125-.0625c-.21875.57813-.4375.65625-.85937.65625H1.25c.17188-.54687.79688-1.29687 1.76563-2 1-.73437 1.76562-1.20312 1.76562-2.35937 0-1.45313-.95312-1.95313-2.0625-1.95313-1.4375 0-2.15625.85938-2.15625 1.40625 0 .35938.39063.51563.57813.51563s.25-.10938.29687-.28125c.15625-.71875.57813-1.28125 1.21875-1.28125.79688 0 1.03125.67187 1.03125 1.4375 0 1.125-.5625 1.75-1.48437 2.54687C.92188-1.625.48438-.90625.28124-.09375m0 0"/><path id="j" d="M.375-5.79687c0 1.01562 1.01563 1.82812 3.34375 1.82812-.39062.67188-.67187 1.375-.67187 2.14063 0 1.26562.79687 1.96875 2.26562 1.96875 1.42188 0 2.89063-1.03125 2.89063-2.34375 0-.79688-.65625-1.23438-1.46875-1.23438-.92188 0-2 1.03125-2 1.84375 0 .25.1875.71875.53125.71875C5.375-.875 5.5-.95312 5.5-1.0625c0-.14062-.26562-.15625-.26562-.51562 0-.5625.82812-1.48438 1.5-1.48438.46875 0 .75.1875.75.64063 0 1.03125-.98438 2.1875-2.17188 2.1875-.84375 0-1.28125-.45313-1.28125-1.21875 0-.875.60938-1.875 1.0625-2.625 2.57813-.39063 5.10938-1.65625 5.10938-3.28125 0-.60938-.48438-1.01563-1.15625-1.01563-1.53125 0-3.84375 1.95313-5.10938 4-1.04687-.01562-2.75-.04687-2.75-1.28125 0-1.125 1.375-2.01562 2.25-2.01562.15625 0 .23438-.09375.23438-.1875 0-.10938-.07813-.17188-.17188-.17188-1.29687 0-3.125.875-3.125 2.23438m4.95313 1.26562c.85937-1.5 2.65625-3.48437 3.71875-3.48437.40625 0 .6875.23437.6875.625 0 1.29687-2.03125 2.48437-4.40625 2.85937m0 0"/><path id="l" d="m1.67188-1.26562.48437.48437 2.01563-2.01562L6.20313-.78125l.46875-.48437-2.01563-2 2.01563-2.03125-.46875-.46875L4.17188-3.75 2.15625-5.76562l-.48437.46875 2.03125 2.03125Zm0 0"/><path id="m" d="M.375-.45312c0 .32812.26563.59375.73438.59375.79687 0 1.23437-.79688 1.71875-1.57813l.46875-.76562h.03125l.20312.92187C3.75-.35937 3.96875.14063 4.5625.14063c.84375 0 1.28125-.875 1.64063-1.57813l-.29688-.17187c-.29687.51562-.60937 1.14062-.9375 1.14062-.21875 0-.29687-.26562-.5625-1.29687l-.375-1.51563c.42188-.75 1.01563-1.67187 1.34375-1.67187.35938 0 .35938.1875.70313.1875.26562 0 .5-.25.5-.54688 0-.35937-.26563-.51562-.59375-.51562-.60938 0-1.14063.5625-1.54688 1.21875l-.5.78125h-.03125L3.4375-5.78125l-.0625-.04687L1.46875-5.25 1.5-4.96875l.90625-.0625c.1875 0 .26563.09375.39063.59375l.40625 1.67188-.32813.5625C2.375-1.35937 1.95313-.75 1.67188-.75 1.32813-.75 1.25-1.03125.875-1.03125c-.29687 0-.5.29688-.5.57813m0 0"/><path id="k" d="M-.17187 1.45313c0 .29687.35937.51562.79687.51562.84375 0 1.23438-.6875 1.5625-2.20312l.76563-3.40625h1.01562l.09375-.34375H3l.25-.98438c.14063-.54687.28125-.75.46875-.75.20313 0 .32813.15625.53125.5625.04688.09375.10938.17188.25.17188.1875 0 .4375-.17188.4375-.39063 0-.35937-.4375-.64062-.98437-.64062-1.01563 0-1.4375.73437-1.71875 1.76562l-.07813.26563h-.70312l-.10938.34375h.73438L1.125 1.17188c-.07812.42187-.15625.48437-.23437.48437-.09376 0-.21876-.07812-.42188-.42187-.0625-.07813-.125-.20313-.25-.20313-.1875 0-.39062.21875-.39062.42188m0 0"/><path id="n" d="M.875 0h2.73438v-.25l-.65625-.0625c-.17188-.01562-.26563-.07812-.26563-.375v-4.79687l-.04687-.03125-1.75.28125v.21875l.70312.09375c.15625.03125.20313.09375.20313.34375V-.6875c0 .29688-.07813.35938-.26563.375L.875-.25Zm0 0"/><path id="o" d="M.23438-.09375.32813 0h3.4375l.29687-1.15625-.25-.04687c-.1875.4375-.32812.5-.65625.5H1.07813c.125-.39063.5625-.9375 1.34375-1.46875.82812-.54688 1.42187-.9375 1.42187-1.8125 0-1.14063-.78125-1.53125-1.67187-1.53125-1.10938 0-1.73438.64062-1.73438 1.125 0 .29687.32813.4375.5.4375.15625 0 .23438-.09375.26563-.25.14062-.5625.4375-1.01563.90625-1.01563.57812 0 .76562.5.76562 1.07813 0 .78125-.35937 1.3125-1.125 1.96875C.71875-1.28125.35938-.70312.23438-.09375m0 0"/><path id="p" d="M.21875-.85937c0 .32812.54688.95312 1.76563.95312S3.95313-.5 3.95313-1.53125c0-1.10937-.96875-1.39062-1.375-1.4375V-3c.4375-.07812 1.14062-.40625 1.14062-1.20312 0-.95313-.78125-1.3125-1.64062-1.3125-1.04688 0-1.64063.57812-1.64063.98437 0 .28125.3125.42188.45313.42188.125 0 .1875-.07813.23437-.1875.1875-.57813.45313-.92188.89063-.92188.60937 0 .76562.5625.76562 1S2.64063-3.125 1.96875-3.125c-.375 0-.60937-.07812-.73437-.07812s-.15626.09375-.15626.25.03126.25.15626.25.35937-.09375.73437-.09375c.625 0 1.01563.53125 1.01563 1.29687 0 .9375-.4375 1.29688-.98438 1.29688-.5 0-.82812-.375-1-.90625-.0625-.15626-.14062-.23438-.28125-.23438-.17187 0-.5.17188-.5.48438m0 0"/><clipPath id="a"><path d="M.36328 0h141.33594v106.19922H.36328Zm0 0"/></clipPath><clipPath id="f"><path d="M.36328 52H136v2H.36328Zm0 0"/></clipPath><clipPath id="g"><path d="M124 40h17.69922v26H124Zm0 0"/></clipPath><clipPath id="h"><path d="M53 6h1v100.19922h-1Zm0 0"/></clipPath><clipPath id="i"><path d="M.75781.39453H141.3047V105.8047H.7578Zm0 0"/></clipPath></defs><g clip-path="url(#a)"><path fill="none" stroke="#000" stroke-miterlimit="10" stroke-opacity=".5" stroke-width=".39516" d="M.7578 88.2383h140.54692M.75779 53.10155h140.54693M.75779 17.96092h140.54693M18.32421 105.80471V.3945m35.13673 105.4102V.3945m35.14064 105.4102V.3945m35.13673 105.4102V.3945"/></g><path fill="none" stroke="#000" stroke-miterlimit="10" stroke-opacity=".5" stroke-width=".39516" d="M53.46094 44.3164v17.56642"/><use xlink:href="#b" x="38.39694" y="68.88752" fill-opacity=".5"/><path fill="none" stroke="#000" stroke-miterlimit="10" stroke-opacity=".5" stroke-width=".39516" d="M18.3242 44.3164v17.56642"/><g fill-opacity=".5"><use xlink:href="#c" x="11.80242" y="65.43466"/><use xlink:href="#d" x="19.31559" y="65.43466"/></g><path fill="none" stroke="#000" stroke-miterlimit="10" stroke-opacity=".5" stroke-width=".39516" d="M88.60158 44.3164v17.56642"/><use xlink:href="#d" x="85.83154" y="65.43466" fill-opacity=".5"/><path fill="none" stroke="#000" stroke-miterlimit="10" stroke-opacity=".5" stroke-width=".39516" d="M123.7383 44.3164v17.56642"/><use xlink:href="#e" x="120.96795" y="65.43466" fill-opacity=".5"/><g clip-path="url(#f)"><path fill="none" stroke="#000" stroke-miterlimit="10" stroke-width=".79034" d="M.7578 53.10156h134.42192"/></g><path d="M139.3086 53.10156c-.50782-.10547-2.73438-.70312-4.12891-1.35547v2.70703c1.39453-.65234 3.6211-1.24609 4.1289-1.35156m0 0"/><g clip-path="url(#g)"><path fill="none" stroke="#000" stroke-miterlimit="10" stroke-width=".79034" d="M139.3086 53.10156c-.50782-.10547-2.73438-.70312-4.12891-1.35547v2.70703c1.39453-.65234 3.6211-1.24609 4.1289-1.35156Zm0 0"/></g><path fill="none" stroke="#000" stroke-miterlimit="10" stroke-opacity=".5" stroke-width=".39516" d="M62.2461 88.2383H44.67968"/><g fill-opacity=".5"><use xlink:href="#c" x="34.64064" y="91.78722"/><use xlink:href="#d" x="42.15382" y="91.78722"/></g><path fill="none" stroke="#000" stroke-miterlimit="10" stroke-opacity=".5" stroke-width=".39516" d="M62.2461 17.96092H44.67968"/><use xlink:href="#d" x="38.39793" y="21.5144" fill-opacity=".5"/><g clip-path="url(#h)"><path fill="none" stroke="#000" stroke-miterlimit="10" stroke-width=".79034" d="M53.46094 105.8047V6.51952"/></g><path stroke="#000" stroke-miterlimit="10" stroke-width=".79034" d="M53.46094 2.39062c-.10547.50782-.69922 2.73438-1.35157 4.12891h2.70704c-.65235-1.39453-1.25-3.6211-1.35547-4.1289Zm0 0"/><g clip-path="url(#i)"><path fill="none" stroke="#007F7F" stroke-miterlimit="10" stroke-width=".79034" d="M.7578 184.86333s4.23046-30.60157 5.85546-40.66798c1.625-10.0625 4.23047-24.1172 5.85548-31.88283 1.625-7.76172 4.23047-18.33985 5.85547-24.07032 1.625-5.73438 4.23047-13.27344 5.85547-17.2461s4.23047-8.90625 5.85547-11.38672c1.625-2.48438 4.23047-5.2422 5.85547-6.50782s4.23047-2.28906 5.85547-2.60547 4.23438-.03515 5.85938.32422c1.625.36328 4.23047 1.51172 5.85547 2.27735 1.625.76953 4.23047 2.35156 5.85547 3.2539 1.625.90235 4.23047 2.48438 5.85547 3.25391 1.625.76563 4.23047 1.91406 5.85547 2.27735 1.625.36328 4.23047.64062 5.85547.32812 1.625-.3164 4.23047-1.33984 5.85547-2.60156s4.23047-4.01954 5.85547-6.5c1.625-2.48438 4.23047-7.41407 5.85547-11.38282s4.23047-11.50391 5.85547-17.23438 4.23048-16.3047 5.85548-24.06642 4.23047-21.8086 5.85547-31.8711 4.23437-28.01955 5.85937-40.65627 4.23047-34.9336 5.85547-50.41017c1.625-15.48048 4.23048-42.5547 5.85548-61.14846 1.625-18.58986 4.23047-50.87893 5.85547-72.8555s5.85547-85.5391 5.85547-85.5391"/></g><use xlink:href="#j" x="110.53006" y="13.14306" fill="#007F7F"/><use xlink:href="#k" x="120.0026" y="15.86012" fill="#007F7F"/><use xlink:href="#l" x="31.72029" y="55.98344" fill="#EC008C"/><use xlink:href="#m" x="29.9185" y="46.02054" fill="#EC008C"/><use xlink:href="#n" x="36.74711" y="48.73636" fill="#EC008C"/><use xlink:href="#l" x="49.289" y="55.98344" fill="#EC008C"/><use xlink:href="#m" x="47.48621" y="46.02054" fill="#EC008C"/><use xlink:href="#o" x="54.31606" y="48.73636" fill="#EC008C"/><use xlink:href="#l" x="84.42541" y="55.98344" fill="#EC008C"/><use xlink:href="#m" x="82.62263" y="45.92534" fill="#EC008C"/><use xlink:href="#p" x="89.45248" y="48.64117" fill="#EC008C"/></svg>