<svg xmlns="http://www.w3.org/2000/svg" xmlns:xlink="http://www.w3.org/1999/xlink" width="107.096pt" height="109.176pt" viewBox="0 0 107.096 109.176"><defs><path id="b" d="M.4375-3.48437C.4375-1.40625 1.04688.125 2.76563.125s2.34375-1.53125 2.34375-3.60937c0-2.09375-.625-3.60938-2.34375-3.60938S.4375-5.57812.4375-3.48437m1.04688 0c0-1.70313.29687-3.25 1.28125-3.25.98437 0 1.28125 1.54687 1.28125 3.25C4.04688-1.78125 3.75-.25 2.76563-.25c-.98438 0-1.28125-1.53125-1.28125-3.23437m0 0"/><path id="c" d="M.89063-2.64062H6.625V-3.25H.89063Zm0 0"/><path id="d" d="M1.14063 0H4.5625v-.29687L3.6875-.375c-.21875-.03125-.34375-.10937-.34375-.51562v-6.15625l-.0625-.04688-2.14062.35938v.25l.96875.125c.17187.03125.25.10937.25.40625v5.0625c0 .40625-.10938.48437-.34375.51562l-.875.07813Zm0 0"/><path id="f" d="M.28125-.09375.39063 0h4.3125l.35937-1.375-.28125-.0625c-.21875.57813-.4375.65625-.85937.65625H1.25c.17188-.54687.79688-1.29687 1.76563-2 1-.73437 1.76562-1.20312 1.76562-2.35937 0-1.45313-.95312-1.95313-2.0625-1.95313-1.4375 0-2.15625.85938-2.15625 1.40625 0 .35938.39063.51563.57813.51563s.25-.10938.29687-.28125c.15625-.71875.57813-1.28125 1.21875-1.28125.79688 0 1.03125.67187 1.03125 1.4375 0 1.125-.5625 1.75-1.48437 2.54687C.92188-1.625.48438-.90625.28124-.09375m0 0"/><path id="i" d="M0 1.0625c0 .20313.10938.34375.46875.34375.54688 0 .79688-.40625 1.28125-1.25.125-.1875.45313-.8125.8125-1.39062.34375-.5625.70313-1.125.70313-1.35938 0-.17187-.07813-.3125-.125-.3125-.10938 0-.32813.04688-.51563.14063 0 0-.01562.57812-.0625.8125-.09375.34375-.35937.89062-.75 1.57812h-.01562c-.03126-.89062-.14063-2.14062-.21876-2.51562l-.04687-.01563-1.09375.26563v.17187l.39063-.01562c.10937 0 .14062.10937.20312.375.0625.45312.21875 1.57812.21875 2.09375 0 .1875-.01562.40625-.10937.65625-.07813.23437-.20313.39062-.3125.39062-.21876 0-.25-.375-.48438-.375C.17188.65625 0 .85938 0 1.0625m0 0"/><path id="j" d="M.5-.76562h3.1875v-.4375H.5Zm0-1.29688h3.1875V-2.5H.5Zm0 0"/><path id="k" d="M.42188-.625c0 .34375.15625.6875.5625.6875.65625 0 1.14062-.70312 1.46875-1.26562h.01562L2.29688-.625c-.03125.14063-.0625.25-.0625.34375 0 .23438.125.34375.35937.34375.5 0 .84375-.40625 1.04688-.875L3.5-.89062c-.125.21874-.35937.57812-.51562.57812-.07813 0-.09375-.04687-.09375-.10937 0-.04688.01562-.10938.03125-.1875l.60937-2.25h-.64062l-.01563.0625c-.10937-.07813-.26562-.10938-.42187-.10938C1.0625-2.90625.42188-1.39062.42188-.625m.71875-.01562c0-.625.54687-2.03125 1.34375-2.03125.125 0 .23437.03125.3125.09375-.09375.4375-.29688 1-.59375 1.46875-.3125.46875-.60938.79687-.84375.79687-.17188 0-.21876-.14062-.21876-.32812m0 0"/><path id="l" d="M.20313-.26562c0 .1875.15625.32812.42187.32812.375 0 .59375-.34375.82813-.73437l.21874-.375.10938.42187C1.875-.1875 2 .0625 2.3125.0625c.48438 0 .75-.46875.92188-.89062l-.15625-.07813c-.14063.28125-.3125.59375-.46875.59375-.10938 0-.14063-.10937-.25-.51562l-.21875-.85938c.1875-.34375.4375-.71875.59375-.71875.17187 0 .23437.10938.40625.10938.14062 0 .26562-.14063.26562-.32813 0-.20312-.14062-.28125-.3125-.28125-.29687 0-.53125.20313-.75.53125l-.25.40625h-.01562L1.875-2.89062l-.04687-.01563-1.0625.28125.01562.15625.40625-.01562c.10938 0 .15625.03125.20313.23437l.21874.89063-.15624.28124C1.25-.71874 1.0625-.4375.9375-.4375.76563-.4375.70313-.60937.5-.60937c-.15625 0-.29687.17187-.29687.34375m0 0"/><path id="m" d="M.17188-.64062c0 .23437.35937.70312 1.28125.70312.875 0 1.42187-.40625 1.42187-1.15625 0-.79687-.70312-1-.96875-1.01562v-.03125c.3125-.0625.8125-.28125.8125-.84375 0-.71875-.60937-.95313-1.21875-.95313-.71875 0-1.1875.39063-1.1875.71875 0 .21875.25.3125.35938.3125.09374 0 .15624-.04687.1875-.15625.125-.40625.3125-.65625.625-.65625.40625 0 .5.42188.5.71875 0 .28125-.07813.76563-.54688.76563-.25 0-.4375-.0625-.53125-.0625s-.125.0625-.125.1875.03125.20312.125.20312.26563-.0625.53125-.0625c.40625 0 .6875.29688.6875.90625 0 .64063-.28125.90625-.65625.90625-.32812 0-.5625-.25-.70312-.67187C.73437-.9375.67187-1 .5625-1c-.15625 0-.39062.125-.39062.35938m0 0"/><path id="o" d="M.5-1.42187h1.375v1.375h.42188v-1.375H3.6875v-.4375H2.29688v-1.375H1.875v1.375H.5Zm0 0"/><path id="p" d="M.4375-.70312c0 .375.125.76562.59375.76562.65625 0 1.14063-.64062 1.5-1.3125h.01563L2.375-.59375c-.03125.125-.04687.21875-.04687.29688 0 .25.125.35937.35937.35937.48438 0 .82813-.42187 1.04688-.89062l-.15625-.07813c-.125.23438-.35938.59375-.51563.59375-.0625 0-.09375-.04687-.09375-.10937 0-.04688.01563-.10938.03125-.1875l.89063-3.67188-.04688-.01562-1.125.14062L2.6875-4 3-3.96875c.09375 0 .125.04688.125.10938 0 .03125 0 .07812-.01562.125l-.21875.90625-.01563.01562c-.10937-.0625-.28125-.09375-.46875-.09375-1.375 0-1.96875 1.51563-1.96875 2.20313m.70313.01562c0-.59375.5-1.98437 1.32812-1.98437.15625 0 .29688.03125.35938.09375-.09375.48437-.29688 1.01562-.5625 1.46875C2-.67187 1.67188-.3125 1.40625-.3125c-.17187 0-.26562-.14062-.26562-.375m0 0"/><path id="q" d="M.125-3.04687h.17188c.07812-.625.20312-.76563.875-.76563h.34375v3.28125c0 .32813-.01563.32813-.64063.35938V0h1.85938v-.17187c-.625-.03126-.64063-.03126-.64063-.35938V-3.8125h.34375c.67188 0 .79688.14063.85938.76563h.17187v-.96875H.125Zm0 0"/><path id="r" d="M.1875 0h1.53125v-.17187C1.20313-.20313 1.17188-.20313 1.17188-.5v-1.35937c0-.45313.1875-.60938.32812-.60938.09375 0 .1875.04688.35938.14063.04687.01562.07812.03125.10937.03125.14063 0 .26563-.15625.26563-.32813 0-.14062-.07813-.28125-.29688-.28125s-.39062.10938-.76562.45313l-.07813-.45313-.875.14063v.14062l.21875.03125c.14063.03125.1875.04688.1875.26563V-.5c0 .29688-.03125.29688-.4375.32813Zm0 0"/><path id="s" d="M.28125-.75c0 .42188.29688.8125.82813.8125.34375 0 .6875-.21875.875-.34375.07812.21875.17187.34375.375.34375.21875 0 .46875-.0625.6875-.17187l-.03125-.125c-.07813.01562-.21875.01562-.29688 0-.10937-.03126-.20312-.14063-.20312-.5v-1.40625c0-.34375-.07813-.76563-.95313-.76563-.65625 0-1.17187.32813-1.17187.65625 0 .1875.21875.26563.32812.26563.125 0 .15625-.0625.1875-.15626.125-.4375.35938-.5625.59375-.5625s.48438.10938.48438.57813v.23438c-.14063.15624-.70313.29687-1.15625.45312-.42188.125-.54688.40625-.54688.6875M.875-.82812c0-.28126.125-.42188.45313-.54688.23437-.07812.53125-.1875.65625-.26562v.8125c0 .46875-.35938.59375-.57813.59375C1.04688-.23437.875-.5.875-.82812m0 0"/><path id="t" d="M.1875 0h1.40625v-.17187C1.1875-.20313 1.17188-.20313 1.17188-.5v-1.35937c0-.15626 0-.23438.04687-.3125.125-.23438.39063-.42188.6875-.42188.40625 0 .625.21875.625.71875V-.5c0 .29688-.03125.29688-.4375.32813V0H3.5v-.17187C3.09375-.20313 3.0625-.20313 3.0625-.5v-1.48437c0-.59375-.3125-.92188-.84375-.92188-.4375 0-.70312.20313-1.0625.4375l-.07812-.4375-.85938.14063v.14062l.21875.03125c.14063.03125.1875.04688.1875.26563V-.5c0 .29688-.01562.29688-.4375.32813Zm0 0"/><path id="u" d="m.26563-.96875.0625.76563c.21875.17187.5625.26562.90625.26562.6875 0 1.09375-.35937 1.09375-.85937S2-1.53125 1.40625-1.71875c-.23437-.07812-.60937-.1875-.60937-.51562 0-.3125.21874-.46875.51562-.46875.40625 0 .60938.3125.65625.67187H2.125v-.6875c-.1875-.14062-.48437-.1875-.75-.1875-.625 0-1.04687.29688-1.04687.84375 0 .46875.39062.6875.875.84375.26562.07813.625.20313.625.59375 0 .29688-.23438.48438-.53125.48438-.46875 0-.73438-.32813-.85938-.82813Zm0 0"/><path id="v" d="M.125 0h1.40625v-.17187c-.42187-.03126-.4375-.03126-.4375-.32813v-3.76562l-.03125-.03125-.92187.14062v.14063L.35938-4c.15625.03125.1875.0625.1875.28125V-.5c0 .29688-.01563.29688-.42188.32813Zm0 0"/><path id="w" d="M.17188-2.60937h.42187v2.01562c0 .59375.4375.65625.64063.65625.29687 0 .57812-.14062.75-.25l-.04688-.125c-.14062.0625-.26562.07813-.40625.07813-.20312 0-.39062-.14063-.39062-.57813v-1.79687h.75v-.23438h-.75v-.73437H.96875L.625-2.84375H.17188Zm0 0"/><path id="x" d="M.53125-3.79687c0 .21875.14063.35937.35938.35937.20312 0 .34375-.14062.34375-.35937 0-.20313-.14063-.34375-.34375-.34375-.21876 0-.35938.14062-.35938.34375M.1875 0h1.40625v-.17187C1.1875-.20313 1.17188-.20313 1.17188-.5v-2.375L1.125-2.90625l-.90625.14063v.14062l.21875.03125c.14063.03125.1875.04688.1875.26563V-.5c0 .29688-.01562.29688-.4375.32813Zm0 0"/><path id="y" d="M.28125-1.42187C.28125-.48437.75.0625 1.67188.0625c.9375 0 1.39062-.54687 1.39062-1.48437s-.45312-1.48438-1.39062-1.48438c-.92188 0-1.39063.54688-1.39063 1.48438m.60938 0c0-.79688.25-1.28125.78125-1.28125s.79687.48437.79687 1.28125c0 .79687-.26562 1.28125-.79687 1.28125S.89063-.625.89063-1.42187m0 0"/><path id="z" d="M.28125-1.35937C.28125-.5.73438.0625 1.5.0625c.3125 0 .57813-.14062.89063-.39062v.28125L2.4375 0h.9375v-.17187C2.96875-.20313 2.95313-.20313 2.95313-.5v-3.76562l-.04688-.03125L2-4.15625v.14063L2.21875-4c.14063.03125.1875.0625.1875.28125v.95313c-.17187-.09375-.375-.14063-.64062-.14063-.48438 0-.84375.14063-1.07813.39063C.4375-2.25.28125-1.875.28125-1.35937m.60938-.07813c0-.75.26562-1.26562.85937-1.26562.28125 0 .5.10937.59375.35937.0625.09375.0625.1875.0625.34375v1.01563c0 .125 0 .21874-.04687.32812C2.25-.35937 2-.23437 1.6875-.23437c-.53125 0-.79687-.53125-.79687-1.20313m0 0"/><path id="A" d="M.28125-1.40625C.28125-.48437.67188.0625 1.625.0625c.64063 0 .96875-.35937 1.125-.8125l-.17187-.09375c-.15625.34375-.375.60938-.84375.60938-.71875 0-.85938-.6875-.84375-1.29688H2.5625c.125 0 .23438-.03125.23438-.21875 0-.34375-.125-1.15625-1.1875-1.15625-.90625 0-1.32813.64063-1.32813 1.5M.89063-1.75c0-.23437.09374-.95312.70312-.95312.53125 0 .59375.54687.59375.76562 0 .10938-.04687.1875-.20312.1875Zm0 0"/><path id="B" d="M0-2.67187c.28125.03125.32813.04687.42188.26562.15625.375.28125.75.4375 1.15625L1.29688 0h.42187l.51563-1.40625c.17187-.45312.34375-.82812.42187-1.01562.07813-.20313.14063-.23438.40625-.25v-.17188H1.96875v.17188l.28125.03125c.09375 0 .10938.07812.09375.15625-.04687.1875-.15625.51562-.29687.89062l-.39063 1.0625h-.01562L1.29688-1.5c-.125-.32812-.23438-.65625-.34375-.96875-.04688-.125-.01563-.17187.09374-.17187l.26563-.03125v-.17188H0Zm0 0"/><path id="C" d="M.125 0h1.40625v-.17187C1.125-.20313 1.09375-.21875 1.09375-.5v-1.35937c0-.15626 0-.23438.04688-.3125.125-.23438.39062-.42188.70312-.42188.39063 0 .60938.21875.60938.71875V-.5c0 .28125-.03125.29688-.4375.32813V0H3.4375v-.17187C3.03125-.20313 3-.21875 3-.5v-1.48437c0-.59375-.32812-.92188-.85937-.92188-.42188 0-.6875.20313-1.04688.4375v-1.79687l-.04687-.03125-.90625.14062v.14063l.21875.03125c.15625.01562.1875.04687.1875.26562V-.5c0 .28125-.01563.29688-.42188.32813Zm0 0"/><path id="D" d="m.14063-2.625.23437.03125c.14063.03125.1875.04688.1875.26563v1.53125c0 .65625.39063.85937.8125.85937.5 0 .90625-.32812 1.0625-.40625L2.5 0h.9375v-.17187C3.03125-.20313 3-.20313 3-.5v-2.375l-.04687-.03125-.90625.14063v.14062l.21875.03125c.14062.03125.1875.04688.1875.26563v1.29687c0 .17188-.01563.29688-.04688.35938-.14062.26562-.40625.4375-.71875.4375-.32812 0-.57812-.21875-.57812-.67188V-2.875l-.04688-.03125-.92187.14063Zm0 0"/><clipPath id="a"><path d="M0 .04688h106.19922V107H0Zm0 0"/></clipPath><clipPath id="e"><path d="M88 75h18.19922v26H88Zm0 0"/></clipPath><clipPath id="g"><path d="M40 .04688h26V18H40Zm0 0"/></clipPath><clipPath id="h"><path d="M.39453.4414H105.8047v105.41016H.39453Zm0 0"/></clipPath><clipPath id="n"><path d="M.39453.4414H105.8047v105.41016H.39453Zm0 0"/></clipPath></defs><g clip-path="url(#a)"><path fill="none" stroke="#000" stroke-miterlimit="10" stroke-opacity=".5" stroke-width=".39516" d="M.39451 88.28516h105.4102M.3945 53.14842h105.4102M.3945 18.0117h105.4102m-87.84379 87.83988V.44137m35.14064 105.4102V.44137m35.13673 105.4102V.44137"/></g><path fill="none" stroke="#000" stroke-miterlimit="10" stroke-opacity=".5" stroke-width=".39516" d="M53.10156 79.5v17.57032"/><use xlink:href="#b" x="38.03395" y="104.0723" fill-opacity=".5"/><path fill="none" stroke="#000" stroke-miterlimit="10" stroke-opacity=".5" stroke-width=".39516" d="M17.96092 79.5v17.57032"/><g fill-opacity=".5"><use xlink:href="#c" x="11.43944" y="100.61945"/><use xlink:href="#d" x="18.95261" y="100.61945"/></g><path fill="none" stroke="#000" stroke-miterlimit="10" stroke-opacity=".5" stroke-width=".39516" d="M88.2383 79.5v17.57032"/><use xlink:href="#d" x="85.46856" y="100.61945" fill-opacity=".5"/><path fill="none" stroke="#000" stroke-miterlimit="10" stroke-width=".79034" d="M.39451 88.28516h99.2852"/><path d="M103.8086 88.28516c-.50782-.10547-2.73438-.70313-4.12891-1.35157v2.70313c1.39453-.64844 3.6211-1.2461 4.1289-1.35156m0 0"/><g clip-path="url(#e)"><path fill="none" stroke="#000" stroke-miterlimit="10" stroke-width=".79034" d="M103.8086 88.28516c-.50782-.10547-2.73438-.70313-4.12891-1.35157v2.70313c1.39453-.64844 3.6211-1.2461 4.1289-1.35156Zm0 0"/></g><path fill="none" stroke="#000" stroke-miterlimit="10" stroke-opacity=".5" stroke-width=".39516" d="M61.88282 53.14842H44.3164"/><use xlink:href="#d" x="38.03495" y="56.69918" fill-opacity=".5"/><path fill="none" stroke="#000" stroke-miterlimit="10" stroke-opacity=".5" stroke-width=".39516" d="M61.88282 18.0117H44.3164"/><use xlink:href="#f" x="38.03495" y="21.56277" fill-opacity=".5"/><path fill="none" stroke="#000" stroke-miterlimit="10" stroke-width=".79034" d="M53.10156 105.85157V6.56637"/><path d="M53.10156 2.4375c-.10547.50781-.70312 2.73828-1.35547 4.1289h2.70703c-.65234-1.39062-1.24609-3.62109-1.35156-4.1289m0 0"/><g clip-path="url(#g)"><path fill="none" stroke="#000" stroke-miterlimit="10" stroke-width=".79034" d="M53.10156 2.4375c-.10547.50781-.70312 2.73828-1.35547 4.1289h2.70703c-.65234-1.39062-1.24609-3.62109-1.35156-4.1289Zm0 0"/></g><g clip-path="url(#h)"><path fill="none" stroke="#007F7F" stroke-miterlimit="10" stroke-width=".79034" d="M.39451 206.87114s3.17188-20.31251 4.39063-27.2461c1.21875-6.9297 3.17578-16.98048 4.39453-22.71486 1.21875-5.73047 3.17188-13.94922 4.39063-18.59766 1.21875-4.64453 3.17187-11.21485 4.39062-14.89063 1.22266-3.67578 3.17579-8.78126 4.39454-11.59766 1.21875-2.82032 3.17187-6.64063 4.39062-8.71485 1.21875-2.07813 3.17579-4.80078 4.39454-6.2461 1.21875-1.44922 3.17187-3.2539 4.39062-4.1875s3.17188-2.0039 4.39063-2.53906c1.21875-.53125 3.17578-1.05469 4.39453-1.30469 1.21875-.2461 3.17188-.40234 4.39063-.48047 1.21875-.07422 3.17578-.04687 4.39453-.0664s3.17188.0078 4.39063-.07032c1.21875-.07422 3.17187-.23047 4.39063-.48047 1.21875-.24609 3.17578-.76953 4.39453-1.30078 1.21875-.53515 3.17187-1.60937 4.39063-2.54297 1.21875-.92969 3.17187-2.73828 4.39062-4.1836 1.21875-1.44921 3.17578-4.17187 4.39453-6.24609s3.17188-5.89844 4.39063-8.71485c1.21875-2.8203 3.17578-7.92187 4.39453-11.59766s3.17188-10.2461 4.39063-14.89453c1.21875-4.64454 3.17188-12.86329 4.39063-18.59767 1.21875-5.73047 3.17578-15.78125 4.39453-22.71485 1.21875-6.92969 4.39063-27.2422 4.39063-27.2422"/></g><use xlink:href="#i" x="57.46295" y="99.06259" fill="#007F7F"/><use xlink:href="#j" x="62.27909" y="99.06259" fill="#007F7F"/><use xlink:href="#k" x="67.6571" y="99.06259" fill="#007F7F"/><use xlink:href="#l" x="71.81256" y="99.06259" fill="#007F7F"/><use xlink:href="#m" x="75.61473" y="96.59343" fill="#007F7F"/><g clip-path="url(#n)"><path fill="none" stroke="#FF7F00" stroke-miterlimit="10" stroke-width=".79034" d="M.39451 171.7344s3.17188-20.3125 4.39063-27.2461c1.21875-6.92969 3.17578-16.98047 4.39453-22.71485 1.21875-5.73047 3.17188-13.94922 4.39063-18.59766 1.21875-4.64454 3.17187-11.21485 4.39062-14.89063 1.22266-3.67579 3.17579-8.78126 4.39454-11.59767 1.21875-2.8203 3.17187-6.64062 4.39062-8.71484 1.21875-2.07813 3.17579-4.80078 4.39454-6.2461 1.21875-1.44922 3.17187-3.2539 4.39062-4.1875s3.17188-2.0039 4.39063-2.53906c1.21875-.53125 3.17578-1.05469 4.39453-1.3047 1.21875-.24608 3.17188-.40234 4.39063-.48046 1.21875-.07422 3.17578-.04688 4.39453-.0664 1.21875-.01954 3.17188.0078 4.39063-.07032 1.21875-.07422 3.17187-.23047 4.39063-.48047 1.21875-.2461 3.17578-.76953 4.39453-1.30469 1.21875-.53125 3.17187-1.60546 4.39063-2.53906 1.21875-.92969 3.17187-2.73828 4.39062-4.1836 1.21875-1.44921 3.17578-4.17187 4.39453-6.24609s3.17188-5.89844 4.39063-8.71485c1.21875-2.82031 3.17578-7.92188 4.39453-11.59766s3.17188-10.2461 4.39063-14.89453c1.21875-4.64454 3.17188-12.86329 4.39063-18.59767 1.21875-5.73047 3.17578-15.78125 4.39453-22.71485 1.21875-6.92969 4.39063-27.2422 4.39063-27.2422"/></g><use xlink:href="#i" x="48.7733" y="30.04021" fill="#FF7F00"/><use xlink:href="#j" x="53.58944" y="30.04021" fill="#FF7F00"/><use xlink:href="#k" x="58.96745" y="30.04021" fill="#FF7F00"/><use xlink:href="#l" x="63.12291" y="30.04021" fill="#FF7F00"/><use xlink:href="#m" x="66.92632" y="27.57105" fill="#FF7F00"/><use xlink:href="#o" x="71.33412" y="30.04021" fill="#FF7F00"/><use xlink:href="#p" x="76.36019" y="30.04021" fill="#FF7F00"/><path fill="none" stroke="#EC008C" stroke-miterlimit="10" stroke-width=".79034" d="M53.10156 88.28516V59.27343"/><path fill="#EC008C" stroke="#EC008C" stroke-miterlimit="10" stroke-width=".79034" d="M53.10156 55.14453c-.10547.50781-.70312 2.73438-1.35547 4.1289h2.70703c-.65234-1.39452-1.24609-3.62109-1.35156-4.1289Zm0 0"/><use xlink:href="#q" x="57.70987" y="64.18995" fill="#EC008C"/><use xlink:href="#r" x="60.83418" y="64.18995" fill="#EC008C"/><g fill="#EC008C"><use xlink:href="#s" x="63.03231" y="64.18995"/><use xlink:href="#t" x="66.06401" y="64.18995"/><use xlink:href="#u" x="69.65141" y="64.18995"/><use xlink:href="#v" x="72.17679" y="64.18995"/><use xlink:href="#s" x="73.79452" y="64.18995"/><use xlink:href="#w" x="76.82622" y="64.18995"/><use xlink:href="#x" x="78.82059" y="64.18995"/><use xlink:href="#y" x="80.50624" y="64.18995"/><use xlink:href="#t" x="83.85283" y="64.18995"/></g><g fill="#EC008C"><use xlink:href="#z" x="88.74306" y="64.18995"/><use xlink:href="#A" x="92.21315" y="64.18995"/></g><use xlink:href="#p" x="57.70987" y="81.47901" fill="#EC008C"/><use xlink:href="#B" x="63.00765" y="81.47901" fill="#EC008C"/><g fill="#EC008C"><use xlink:href="#A" x="65.89733" y="81.47901"/><use xlink:href="#r" x="68.87963" y="81.47901"/><use xlink:href="#u" x="71.13333" y="81.47901"/></g><g fill="#EC008C"><use xlink:href="#v" x="74.96154" y="81.47901"/><use xlink:href="#A" x="76.57927" y="81.47901"/></g><g fill="#EC008C"><use xlink:href="#C" x="80.86439" y="81.47901"/><use xlink:href="#s" x="84.38388" y="81.47901"/><use xlink:href="#D" x="87.41557" y="81.47901"/><use xlink:href="#w" x="90.92888" y="81.47901"/></g></svg>