<svg xmlns="http://www.w3.org/2000/svg" xmlns:xlink="http://www.w3.org/1999/xlink" width="170.876pt" height="170.876pt" viewBox="0 0 170.876 170.876"><defs><clipPath id="a"><path d="M0 0h170.7539v170.7539H0Zm0 0"/></clipPath><clipPath id="e"><path d="M152 72h18.7539v27H152Zm0 0"/></clipPath><clipPath id="f"><path d="M84 6h2v164.7539h-2Zm0 0"/></clipPath><clipPath id="g"><path d="M.39844.39844h169.95703v169.95703H.39844Zm0 0"/></clipPath><path id="b" d="M1.4375-4.26562h9.26563V-5.25H1.4375Zm0 0"/><path id="c" d="M1.82813 0h5.53125v-.48437l-1.40625-.125c-.35938-.03126-.5625-.15626-.5625-.82813v-9.92187l-.07813-.09375-3.48437.59375v.40625l1.57812.20312c.28125.03125.39063.15625.39063.64063v8.17187c0 .67188-.15625.79688-.54688.82813l-1.42187.125Zm0 0"/><path id="d" d="M.70313-5.625c0 3.35938.98437 5.82813 3.76562 5.82813C7.23438.20313 8.25-2.26562 8.25-5.625c0-3.375-1.01562-5.82812-3.78125-5.82812C1.6875-11.45312.70313-9 .70313-5.625m1.70312 0c0-2.75.46875-5.23437 2.0625-5.23437S6.53125-8.375 6.53125-5.625c0 2.73438-.46875 5.23438-2.0625 5.23438s-2.0625-2.5-2.0625-5.23438m0 0"/></defs><g clip-path="url(#a)"><path fill="none" stroke="#000" stroke-miterlimit="10" stroke-opacity=".5" stroke-width=".39821" d="M.39843 142.02735h169.95705M.39843 85.375h169.95705M.39843 28.72265h169.95705M28.72265 170.35548V.39843M85.375 170.35548V.39843m56.65235 169.95705V.39843"/></g><path fill="none" stroke="#000" stroke-miterlimit="10" stroke-opacity=".5" stroke-width=".39821" d="M28.72265 71.21484v28.32422"/><g fill-opacity=".5"><use xlink:href="#b" x="18.20479" y="105.26461"/><use xlink:href="#c" x="30.31854" y="105.26461"/></g><path fill="none" stroke="#000" stroke-miterlimit="10" stroke-opacity=".5" stroke-width=".39821" d="M142.02735 71.21484v28.32422"/><use xlink:href="#c" x="137.56517" y="105.26461" fill-opacity=".5"/><path fill="none" stroke="#000" stroke-miterlimit="10" stroke-opacity=".5" stroke-width=".39821" d="M99.53906 142.02735H71.21484"/><g fill-opacity=".5"><use xlink:href="#b" x="55.02807" y="147.75378"/><use xlink:href="#c" x="67.14182" y="147.75378"/></g><path fill="none" stroke="#000" stroke-miterlimit="10" stroke-opacity=".5" stroke-width=".39821" d="M99.53906 28.72265H71.21484"/><use xlink:href="#c" x="61.08567" y="34.45" fill-opacity=".5"/><path fill="none" stroke="#000" stroke-miterlimit="10" stroke-opacity=".5" stroke-width=".39821" d="M85.375 71.21484v28.32422"/><use xlink:href="#d" x="61.08567" y="110.83157" fill-opacity=".5"/><path fill="none" stroke="#000" stroke-miterlimit="10" stroke-width=".79644" d="M.39843 85.375H164.1836"/><path d="M168.34375 85.375c-.51172-.10547-2.75781-.70703-4.16016-1.36328v2.72656c1.40235-.65234 3.64844-1.25781 4.16016-1.36328m0 0"/><g clip-path="url(#e)"><path fill="none" stroke="#000" stroke-miterlimit="10" stroke-width=".79644" d="M168.34375 85.375c-.51172-.10547-2.75781-.70703-4.16016-1.36328v2.72656c1.40235-.65234 3.64844-1.25781 4.16016-1.36328Zm0 0"/></g><g clip-path="url(#f)"><path fill="none" stroke="#000" stroke-miterlimit="10" stroke-width=".79644" d="M85.375 170.35548V6.5703"/></g><path stroke="#000" stroke-miterlimit="10" stroke-width=".79644" d="M85.375 2.41016c-.10547.5078-.70703 2.7539-1.36328 4.16015h2.72656c-.65234-1.40625-1.25781-3.65234-1.36328-4.16015Zm0 0"/><g fill="none" stroke-miterlimit="10" stroke-width=".79644" clip-path="url(#g)"><path stroke="#007F7F" d="M-112.90628 1299.86346s11.9375-208.02347 16.52344-279.01567c4.58203-70.98829 11.9375-173.9258 16.51953-232.62894 4.58594-58.70313 11.94141-142.87502 16.52344-190.46487 4.58594-47.58594 11.9375-114.87111 16.52344-152.51174s11.9375-89.91408 16.52344-118.77736c4.58594-28.8672 11.9375-68.00392 16.52344-89.26173s11.9375-49.13673 16.52344-63.96095 11.9375-33.31641 16.52344-42.875 11.9375-20.54688 16.52344-26.00782C40.38671 98.89453 47.73827 93.53906 52.32421 91c4.58204-2.53516 11.9375-4.14063 16.52344-4.92187 4.58204-.78125 11.9375-.50782 16.52344-.70313 4.58204-.19531 11.9375.07813 16.51954-.69922 4.58594-.78125 11.9414-2.38281 16.52344-4.91797C123 77.22266 130.35157 71.8672 134.9375 66.41015s11.9375-16.4414 16.52344-25.9961c4.58594-9.55468 11.9375-28.03906 16.52344-42.85938 4.58594-14.8164 11.9375-42.6875 16.52344-63.94141s11.9375-60.37892 16.52344-89.2383c4.58593-28.85937 11.9375-81.1172 16.52344-118.75392 4.58593-37.63282 11.9375-104.90236 16.52344-152.48049 4.58203-47.57813 11.9375-131.7383 16.52344-190.42972 4.58203-58.69532 11.9375-161.6172 16.51953-232.59378 4.58594-70.98048 16.52344-278.9766 16.52344-278.9766"/><path stroke="#FF7F00" d="M-112.90628-1129.11346s11.9375 208.02738 16.52344 279.01567c4.58203 70.9922 11.9375 173.92971 16.51953 232.63284 4.58594 58.70314 11.94141 142.87502 16.52344 190.46097 4.58594 47.58594 11.9375 114.8711 16.52344 152.51174 4.58594 37.64454 11.9375 89.91408 16.52344 118.78127 4.58594 28.86328 11.9375 68 16.52344 89.26173C-9.1836-45.19142-1.83205-17.31251 2.7539-2.4883c4.58594 14.82031 11.9375 33.3164 16.52344 42.875s11.9375 20.54688 16.52344 26.00782S47.73827 77.21484 52.32421 79.75c4.58204 2.53906 11.9375 4.14453 16.52344 4.92187 4.58204.78126 11.9375.50782 16.52344.70313 4.58204.19531 11.9375-.07812 16.51954.70313 4.58594.77734 11.9414 2.3828 16.52344 4.91406 4.58594 2.53516 11.9375 7.89062 16.52344 13.35156 4.58594 5.45704 11.9375 16.44141 16.52344 25.9922 4.58594 9.55468 11.9375 28.04297 16.52344 42.85938 4.58594 14.82031 11.9375 42.6914 16.52344 63.94141 4.58594 21.25391 11.9375 60.38282 16.52344 89.2383 4.58593 28.85937 11.9375 81.1211 16.52344 118.75392 4.58593 37.63282 11.9375 104.90626 16.52344 152.4844 4.58203 47.57813 11.9375 131.7344 16.52344 190.42971 4.58203 58.69142 11.9375 161.6133 16.51953 232.59379 4.58594 70.97657 16.52344 278.9727 16.52344 278.9727"/></g></svg>