<svg xmlns="http://www.w3.org/2000/svg" xmlns:xlink="http://www.w3.org/1999/xlink" width="185.049pt" height="185.049pt" viewBox="0 0 185.049 185.049"><defs><path id="a" d="M.5-4.04687C.5-1.625 1.21875.14063 3.20313.14063c2 0 2.71875-1.76563 2.71875-4.1875s-.71875-4.1875-2.71875-4.1875C1.21875-8.23437.5-6.46875.5-4.04687m1.23438 0c0-1.96875.32812-3.76563 1.46875-3.76563 1.15625 0 1.48437 1.79688 1.48437 3.76563S4.35938-.28125 3.20313-.28125c-1.14063 0-1.46875-1.79687-1.46875-3.76562m0 0"/><path id="b" d="M.92188-2.76562h6v-.625h-6Zm0 0"/><path id="c" d="M.29688-.10937.40625 0h4.51563l.35937-1.4375L4.98438-1.5c-.23438.59375-.45313.67188-.89063.67188H1.3125c.17188-.5625.82813-1.34375 1.82813-2.07813C4.1875-3.65625 5-4.15625 5-5.375c0-1.51562-1.01562-2.03125-2.15625-2.03125-1.5 0-2.26562.90625-2.26562 1.46875 0 .375.42187.54688.60937.54688S1.45313-5.5 1.5-5.6875c.17188-.75.59375-1.34375 1.26563-1.34375.84375 0 1.07812.70313 1.07812 1.5 0 1.17188-.57812 1.82813-1.53125 2.67188C.96875-1.6875.5-.95312.29688-.10937m0 0"/><path id="d" d="M1.1875 0h3.57813v-.3125l-.92188-.07812C3.625-.42187 3.48438-.5 3.48438-.92187v-6.42188l-.04688-.0625-2.25.375v.26563l1.01563.14062c.1875.01563.25.09375.25.40625v5.29688c0 .42187-.09375.5-.35938.53125L1.1875-.3125Zm0 0"/><path id="h" d="M0 1.10938c0 .20312.10938.35937.48438.35937.57812 0 .82812-.4375 1.34375-1.29687.125-.20313.46875-.85938.84375-1.46875.35937-.5625.73437-1.15625.73437-1.40625 0-.1875-.07812-.32813-.125-.32813-.125 0-.35937.04688-.54687.14063 0 0-.01563.60937-.0625.84375-.09375.35937-.375.9375-.78125 1.64062H1.875c-.03125-.90625-.15625-2.21875-.23437-2.60937l-.04688-.01563L.45313-2.75v.17188l.40625-.01563c.125 0 .15624.10938.20312.40625.07813.46875.23438 1.64063.23438 2.17188 0 .20312-.01563.42187-.10938.6875-.09375.25-.21875.39062-.32812.39062-.21876 0-.26563-.375-.5-.375C.17188.6875 0 .90625 0 1.10938m0 0"/><path id="i" d="M.51563-.8125h3.32812V-1.25H.51563Zm0-1.34375h3.32812v-.45312H.51563Zm0 0"/><path id="j" d="M.21875-.26562c0 .1875.15625.34375.4375.34375.39063 0 .625-.375.85938-.78125l.21874-.39063H1.75l.10938.45313c.09374.4375.21874.71875.5625.71875.5 0 .78125-.5.95312-.9375l-.15625-.09376c-.15625.3125-.32812.625-.5.625-.10937 0-.15625-.10937-.25-.53124l-.23437-.90625c.20312-.34375.45312-.73438.625-.73438s.23437.10938.40625.10938c.15625 0 .29687-.15625.29687-.34375 0-.21875-.15625-.29688-.34375-.29688-.29687 0-.54687.21875-.76562.54688l-.26563.4375h-.01562l-.21875-.96875-.04688-.01563-1.10937.29688.01562.17187.42188-.03125c.125 0 .17187.03125.21874.25l.21876.92188-.15626.29687c-.21874.375-.42187.65625-.54687.65625-.17187 0-.23437-.17187-.4375-.17187-.17187 0-.3125.1875-.3125.375m0 0"/><path id="k" d="M.1875-.65625c0 .23438.35938.73438 1.32813.73438C2.4375.07813 3-.35937 3-1.14062c0-.82813-.73437-1.03125-1.01562-1.0625v-.03125c.32812-.0625.84375-.29688.84375-.875 0-.75-.625-1-1.25-1-.76563 0-1.25.40625-1.25.75 0 .21875.25.32812.375.32812.10937 0 .15624-.04687.1875-.15625.14062-.4375.34375-.6875.65625-.6875.42187 0 .51562.4375.51562.73438 0 .29687-.07812.8125-.5625.8125-.26562 0-.45312-.0625-.54687-.0625-.10938 0-.14063.0625-.14063.20312 0 .10938.03125.20313.14063.20313.09374 0 .28124-.07813.54687-.07813.42188 0 .71875.32813.71875.95313 0 .67187-.29687.9375-.6875.9375-.34375 0-.57812-.25-.71875-.6875q-.07031-.1875-.23437-.1875c-.15626 0-.39063.14062-.39063.39062m0 0"/><clipPath id="e"><path d="M166 79h18.10156v26H166Zm0 0"/></clipPath><clipPath id="f"><path d="M91 6h2v178.10156h-2Zm0 0"/></clipPath><clipPath id="g"><path d="M.39453.39453h183.3125V104H.39453Zm0 0"/></clipPath></defs><path fill="none" stroke="#7f7f7f" stroke-dasharray=".396463665 .9911890092000001" stroke-miterlimit="10" stroke-width=".39646" d="M.39454 165.375h183.31248M.39454 128.71483h183.31248M.39454 92.05078h183.31248M.39454 55.38672h183.31248M.39454 18.72657h183.31248M18.72657 183.70702V.39454m36.66406 183.31248V.39454m36.66015 183.31248V.39454m36.66406 183.31248V.39454m36.66406 183.31248V.39454"/><use xlink:href="#a" x="76.01136" y="108.92919" fill="#7f7f7f"/><path fill="none" stroke="#7f7f7f" stroke-miterlimit="10" stroke-width=".39646" d="M18.72657 82.88672v18.32812"/><g fill="#7f7f7f"><use xlink:href="#b" x="11.91974" y="113.17935"/><use xlink:href="#c" x="19.75911" y="113.17935"/></g><path fill="none" stroke="#7f7f7f" stroke-miterlimit="10" stroke-width=".39646" d="M55.39063 82.88672v18.32812"/><g fill="#7f7f7f"><use xlink:href="#b" x="48.58233" y="113.17935"/><use xlink:href="#d" x="56.42169" y="113.17935"/></g><path fill="none" stroke="#7f7f7f" stroke-miterlimit="10" stroke-width=".39646" d="M128.71484 82.88672v18.32812"/><use xlink:href="#d" x="125.82636" y="113.17935" fill="#7f7f7f"/><path fill="none" stroke="#7f7f7f" stroke-miterlimit="10" stroke-width=".39646" d="M165.3789 82.88672v18.32812"/><use xlink:href="#c" x="162.48794" y="113.17935" fill="#7f7f7f"/><path fill="none" stroke="#000" stroke-miterlimit="10" stroke-width=".79294" d="M.39454 92.05078H177.5625"/><path d="M181.70703 92.05078c-.51172-.10547-2.7461-.70312-4.14453-1.35547v2.71094c1.39844-.64844 3.63281-1.25 4.14453-1.35547m0 0"/><g clip-path="url(#e)"><path fill="none" stroke="#000" stroke-miterlimit="10" stroke-width=".79294" d="M181.70703 92.05078c-.51172-.10547-2.7461-.70312-4.14453-1.35547v2.71094c1.39844-.64844 3.63281-1.25 4.14453-1.35547Zm0 0"/></g><path fill="none" stroke="#7f7f7f" stroke-miterlimit="10" stroke-width=".39646" d="M101.21875 165.375H82.88672"/><g fill="#7f7f7f"><use xlink:href="#b" x="64.7194" y="169.08007"/><use xlink:href="#c" x="72.55876" y="169.08007"/></g><path fill="none" stroke="#7f7f7f" stroke-miterlimit="10" stroke-width=".39646" d="M101.21875 128.71484H82.88672"/><g fill="#7f7f7f"><use xlink:href="#b" x="64.7194" y="132.41848"/><use xlink:href="#d" x="72.55876" y="132.41848"/></g><path fill="none" stroke="#7f7f7f" stroke-miterlimit="10" stroke-width=".39646" d="M101.21875 55.38672H82.88672"/><use xlink:href="#d" x="72.55811" y="59.0943" fill="#7f7f7f"/><path fill="none" stroke="#7f7f7f" stroke-miterlimit="10" stroke-width=".39646" d="M101.21875 18.72657H82.88672"/><use xlink:href="#c" x="72.55811" y="22.43271" fill="#7f7f7f"/><g clip-path="url(#f)"><path fill="none" stroke="#000" stroke-miterlimit="10" stroke-width=".79294" d="M92.05078 183.70702V6.53907"/></g><path stroke="#000" stroke-miterlimit="10" stroke-width=".79294" d="M92.05078 2.39844c-.10547.50781-.70312 2.74219-1.35547 4.14062h2.71485c-.65235-1.39843-1.25391-3.6328-1.35938-4.14062Zm0 0"/><g clip-path="url(#g)"><path fill="none" stroke="#007f7f" stroke-miterlimit="10" stroke-width=".79294" d="M.39454-137.08982s5.51953 26.8828 7.64062 36.59765c2.1172 9.71484 5.51563 24.58594 7.63672 33.41797 2.11719 8.82812 5.51953 22.28515 7.63672 30.23046 2.1211 7.94922 5.51953 19.98828 7.63672 27.05078 2.1211 7.0664 5.51953 17.6875 7.64062 23.8711 2.1172 6.17968 5.51563 15.38671 7.63672 20.68358 2.1211 5.30078 5.51953 13.08985 7.63672 17.5039C55.98048 56.6836 59.3789 63.0547 61.5 66.58986c2.1172 3.53125 5.51563 8.48828 7.63672 11.13671 2.11719 2.65235 5.51953 6.19141 7.63672 7.95703 2.1211 1.76563 5.51953 3.89063 7.63672 4.77735 2.1211.88281 5.51953 1.58984 7.64062 1.58984 2.11719 0 5.51563-.70703 7.63672-1.58984s5.51953-3.00781 7.63672-4.77344c2.1211-1.76562 5.51953-5.30469 7.64062-7.95312 2.11719-2.64844 5.51563-7.60547 7.63672-11.13672 2.11719-3.53516 5.51953-9.90625 7.63672-14.32031 2.1211-4.41797 5.51953-12.20313 7.63672-17.5039 2.12109-5.29688 5.51953-14.50391 7.64062-20.6836 2.11719-6.17969 5.51562-16.80078 7.63672-23.86718 2.1211-7.0625 5.51953-19.10156 7.63672-27.04688 2.12109-7.94921 5.51953-21.40234 7.64062-30.23437 2.11719-8.82812 5.51563-23.69921 7.63672-33.41406 2.11719-9.71093 7.63672-36.59374 7.63672-36.59374"/></g><use xlink:href="#h" x="111.26917" y="88.80064" fill="#007f7f"/><use xlink:href="#i" x="116.2944" y="88.80064" fill="#007f7f"/><use xlink:href="#j" x="121.90591" y="88.80064" fill="#007f7f"/><use xlink:href="#k" x="125.87371" y="86.22428" fill="#007f7f"/></svg>