<svg xmlns="http://www.w3.org/2000/svg" xmlns:xlink="http://www.w3.org/1999/xlink" width="107.096pt" height="107.096pt" viewBox="0 0 107.096 107.096"><defs><path id="b" d="M.4375-3.48437C.4375-1.40625 1.04688.125 2.76563.125s2.34375-1.53125 2.34375-3.60937c0-2.09375-.625-3.60938-2.34375-3.60938S.4375-5.57812.4375-3.48437m1.04688 0c0-1.70313.29687-3.25 1.28125-3.25.98437 0 1.28125 1.54687 1.28125 3.25C4.04688-1.78125 3.75-.25 2.76563-.25c-.98438 0-1.28125-1.53125-1.28125-3.23437m0 0"/><path id="c" d="M.89063-2.64062H6.625V-3.25H.89063Zm0 0"/><path id="d" d="M1.14063 0H4.5625v-.29687L3.6875-.375c-.21875-.03125-.34375-.10937-.34375-.51562v-6.15625l-.0625-.04688-2.14062.35938v.25l.96875.125c.17187.03125.25.10937.25.40625v5.0625c0 .40625-.10938.48437-.34375.51562l-.875.07813Zm0 0"/><path id="h" d="M0 1.0625c0 .20313.10938.34375.46875.34375.54688 0 .79688-.40625 1.28125-1.25.125-.1875.45313-.8125.8125-1.39062.34375-.5625.70313-1.125.70313-1.35938 0-.17187-.07813-.3125-.125-.3125-.10938 0-.32813.04688-.51563.14063 0 0-.01562.57812-.0625.8125-.09375.34375-.35937.89062-.75 1.57812h-.01562c-.03126-.89062-.14063-2.14062-.21876-2.51562l-.04687-.01563-1.09375.26563v.17187l.39063-.01562c.10937 0 .14062.10937.20312.375.0625.45312.21875 1.57812.21875 2.09375 0 .1875-.01562.40625-.10937.65625-.07813.23437-.20313.39062-.3125.39062-.21876 0-.25-.375-.48438-.375C.17188.65625 0 .85938 0 1.0625m0 0"/><path id="i" d="M.5-.76562h3.1875v-.4375H.5Zm0-1.29688h3.1875V-2.5H.5Zm0 0"/><path id="j" d="M.42188-.625c0 .34375.15625.6875.5625.6875.65625 0 1.14062-.70312 1.46875-1.26562h.01562L2.29688-.625c-.03125.14063-.0625.25-.0625.34375 0 .23438.125.34375.35937.34375.5 0 .84375-.40625 1.04688-.875L3.5-.89062c-.125.21874-.35937.57812-.51562.57812-.07813 0-.09375-.04687-.09375-.10937 0-.04688.01562-.10938.03125-.1875l.60937-2.25h-.64062l-.01563.0625c-.10937-.07813-.26562-.10938-.42187-.10938C1.0625-2.90625.42188-1.39062.42188-.625m.71875-.01562c0-.625.54687-2.03125 1.34375-2.03125.125 0 .23437.03125.3125.09375-.09375.4375-.29688 1-.59375 1.46875-.3125.46875-.60938.79687-.84375.79687-.17188 0-.21876-.14062-.21876-.32812m0 0"/><path id="k" d="M.20313-.26562c0 .1875.15625.32812.42187.32812.375 0 .59375-.34375.82813-.73437l.21874-.375.10938.42187C1.875-.1875 2 .0625 2.3125.0625c.48438 0 .75-.46875.92188-.89062l-.15625-.07813c-.14063.28125-.3125.59375-.46875.59375-.10938 0-.14063-.10937-.25-.51562l-.21875-.85938c.1875-.34375.4375-.71875.59375-.71875.17187 0 .23437.10938.40625.10938.14062 0 .26562-.14063.26562-.32813 0-.20312-.14062-.28125-.3125-.28125-.29687 0-.53125.20313-.75.53125l-.25.40625h-.01562L1.875-2.89062l-.04687-.01563-1.0625.28125.01562.15625.40625-.01562c.10938 0 .15625.03125.20313.23437l.21874.89063-.15624.28124C1.25-.71874 1.0625-.4375.9375-.4375.76563-.4375.70313-.60937.5-.60937c-.15625 0-.29687.17187-.29687.34375m0 0"/><path id="l" d="M.17188-.64062c0 .23437.35937.70312 1.28125.70312.875 0 1.42187-.40625 1.42187-1.15625 0-.79687-.70312-1-.96875-1.01562v-.03125c.3125-.0625.8125-.28125.8125-.84375 0-.71875-.60937-.95313-1.21875-.95313-.71875 0-1.1875.39063-1.1875.71875 0 .21875.25.3125.35938.3125.09374 0 .15624-.04687.1875-.15625.125-.40625.3125-.65625.625-.65625.40625 0 .5.42188.5.71875 0 .28125-.07813.76563-.54688.76563-.25 0-.4375-.0625-.53125-.0625s-.125.0625-.125.1875.03125.20312.125.20312.26563-.0625.53125-.0625c.40625 0 .6875.29688.6875.90625 0 .64063-.28125.90625-.65625.90625-.32812 0-.5625-.25-.70312-.67187C.73437-.9375.67187-1 .5625-1c-.15625 0-.39062.125-.39062.35938m0 0"/><path id="n" d="M.45313-1.4375h3.26562v-.40625H.45313Zm0 0"/><clipPath id="a"><path d="M0 0h106.19922v106.19922H0Zm0 0"/></clipPath><clipPath id="e"><path d="M88 40h18.19922v26H88Zm0 0"/></clipPath><clipPath id="f"><path d="M52 6h2v100.19922h-2Zm0 0"/></clipPath><clipPath id="g"><path d="M.39453.39453H105.8047V105.8047H.39453Zm0 0"/></clipPath><clipPath id="m"><path d="M.39453.39453H105.8047V105.8047H.39453Zm0 0"/></clipPath></defs><g clip-path="url(#a)"><path fill="none" stroke="#000" stroke-miterlimit="10" stroke-opacity=".5" stroke-width=".39516" d="M.39451 88.2383h105.4102M.3945 53.10155h105.4102M.3945 17.96092h105.4102m-87.84379 87.84379V.3945m35.14064 105.4102V.3945m35.13673 105.4102V.3945"/></g><path fill="none" stroke="#000" stroke-miterlimit="10" stroke-opacity=".5" stroke-width=".39516" d="M53.10156 44.3164v17.56642"/><use xlink:href="#b" x="38.03395" y="68.88752" fill-opacity=".5"/><path fill="none" stroke="#000" stroke-miterlimit="10" stroke-opacity=".5" stroke-width=".39516" d="M17.96092 44.3164v17.56642"/><g fill-opacity=".5"><use xlink:href="#c" x="11.43944" y="65.43466"/><use xlink:href="#d" x="18.95261" y="65.43466"/></g><path fill="none" stroke="#000" stroke-miterlimit="10" stroke-opacity=".5" stroke-width=".39516" d="M88.2383 44.3164v17.56642"/><use xlink:href="#d" x="85.46856" y="65.43466" fill-opacity=".5"/><path fill="none" stroke="#000" stroke-miterlimit="10" stroke-width=".79034" d="M.39451 53.10156h99.2852"/><path d="M103.8086 53.10156c-.50782-.10547-2.73438-.70312-4.12891-1.35547v2.70703c1.39453-.65234 3.6211-1.24609 4.1289-1.35156m0 0"/><g clip-path="url(#e)"><path fill="none" stroke="#000" stroke-miterlimit="10" stroke-width=".79034" d="M103.8086 53.10156c-.50782-.10547-2.73438-.70312-4.12891-1.35547v2.70703c1.39453-.65234 3.6211-1.24609 4.1289-1.35156Zm0 0"/></g><path fill="none" stroke="#000" stroke-miterlimit="10" stroke-opacity=".5" stroke-width=".39516" d="M61.88282 88.2383H44.3164"/><g fill-opacity=".5"><use xlink:href="#c" x="34.27766" y="91.78722"/><use xlink:href="#d" x="41.79083" y="91.78722"/></g><path fill="none" stroke="#000" stroke-miterlimit="10" stroke-opacity=".5" stroke-width=".39516" d="M61.88282 17.96092H44.3164"/><use xlink:href="#d" x="38.03495" y="21.5144" fill-opacity=".5"/><g clip-path="url(#f)"><path fill="none" stroke="#000" stroke-miterlimit="10" stroke-width=".79034" d="M53.10156 105.8047V6.51952"/></g><path stroke="#000" stroke-miterlimit="10" stroke-width=".79034" d="M53.10156 2.39062c-.10547.50782-.70312 2.73438-1.35547 4.12891h2.70703c-.65234-1.39453-1.24609-3.6211-1.35156-4.1289Zm0 0"/><g clip-path="url(#g)"><path fill="none" stroke="#007F7F" stroke-miterlimit="10" stroke-width=".79034" d="M.39451 112.39455s3.17188-10.15625 4.39063-13.625c1.21875-3.46485 3.17578-8.4922 4.39453-11.35547 1.21875-2.8672 3.17188-6.97657 4.39063-9.30079s3.17187-5.60547 4.39062-7.44531c1.22266-1.83594 3.17579-4.39063 4.39454-5.79688 1.21875-1.41016 3.17187-3.32032 4.39062-4.35938s3.17579-2.39844 4.39454-3.1211c1.21875-.72656 3.17187-1.6289 4.39062-2.09374 1.21875-.46875 3.17188-1.00391 4.39063-1.26954 1.21875-.26953 3.17578-.52734 4.39453-.65234s3.17188-.20313 4.39063-.24219c1.21875-.03515 3.17578-.02344 4.39453-.03125 1.21875-.01172 3.17188.0039 4.39063-.03515 1.21875-.03907 3.17187-.1172 4.39063-.2422 1.21875-.12109 3.17578-.3828 4.39453-.65234 1.21875-.26562 3.17187-.80078 4.39063-1.26953 1.21875-.46484 3.17187-1.36719 4.39062-2.08984 1.21875-.72656 3.17578-2.08594 4.39453-3.125s3.17188-2.94922 4.39063-4.35547c1.21875-1.41016 3.17578-3.96485 4.39453-5.80079s3.17188-5.1211 4.39063-7.44531c1.21875-2.32422 3.17188-6.4336 4.39063-9.30079 1.21875-2.86328 3.17578-7.89063 4.39453-11.35547 1.21875-3.46875 4.39063-13.625 4.39063-13.625"/></g><use xlink:href="#h" x="63.92838" y="35.2683" fill="#007F7F"/><use xlink:href="#i" x="68.74451" y="35.2683" fill="#007F7F"/><use xlink:href="#j" x="74.12253" y="35.2683" fill="#007F7F"/><use xlink:href="#k" x="78.27799" y="35.2683" fill="#007F7F"/><use xlink:href="#l" x="82.08016" y="32.79914" fill="#007F7F"/><g clip-path="url(#m)"><path fill="none" stroke="#FF7F00" stroke-miterlimit="10" stroke-width=".79034" d="M.39451-6.19533S3.5664 3.96092 4.78514 7.42967c1.21875 3.46484 3.17578 8.4922 4.39453 11.35547 1.21875 2.8672 3.17188 6.97657 4.39063 9.30079s3.17187 5.60937 4.39062 7.44531c1.22266 1.83594 3.17579 4.39063 4.39454 5.80079 1.21875 1.40625 3.17187 3.3164 4.39062 4.35547 1.21875 1.03906 3.17579 2.39844 4.39454 3.125 1.21875.72265 3.17187 1.625 4.39062 2.08984 1.21875.46875 3.17188 1.0039 4.39063 1.26953 1.21875.26954 3.17578.53125 4.39453.65235 1.21875.125 3.17188.20312 4.39063.24219s3.17578.02343 4.39453.03515c1.21875.00781 3.17188-.0039 4.39063.03125 1.21875.03906 3.17187.11719 4.39063.24219s3.17578.38281 4.39453.65234c1.21875.26563 3.17187.80079 4.39063 1.26954 1.21875.46484 3.17187 1.36718 4.39062 2.09375 1.21875.72265 3.17578 2.08203 4.39453 3.1211 1.21875 1.03905 3.17188 2.94921 4.39063 4.35937 1.21875 1.40625 3.17578 3.96094 4.39453 5.79688 1.21875 1.83984 3.17188 5.1211 4.39063 7.44531 1.21875 2.32422 3.17188 6.4336 4.39063 9.30079 1.21875 2.86328 3.17578 7.89062 4.39453 11.35547 1.21875 3.46875 4.39063 13.625 4.39063 13.625"/></g><use xlink:href="#h" x="59.75461" y="75.94495" fill="#FF7F00"/><use xlink:href="#i" x="64.57074" y="75.94495" fill="#FF7F00"/><g fill="#FF7F00"><use xlink:href="#n" x="69.94876" y="75.94495"/><use xlink:href="#j" x="74.12274" y="75.94495"/></g><use xlink:href="#k" x="78.2782" y="75.94495" fill="#FF7F00"/><use xlink:href="#l" x="82.07991" y="73.47455" fill="#FF7F00"/></svg>