<svg xmlns="http://www.w3.org/2000/svg" xmlns:xlink="http://www.w3.org/1999/xlink" width="170.876pt" height="170.876pt" viewBox="0 0 170.876 170.876"><defs><path id="b" d="M1.4375-4.26562h9.26563V-5.25H1.4375Zm0 0"/><path id="c" d="M1.82813 0h5.53125v-.48437l-1.40625-.125c-.35938-.03126-.5625-.15626-.5625-.82813v-9.92187l-.07813-.09375-3.48437.59375v.40625l1.57812.20312c.28125.03125.39063.15625.39063.64063v8.17187c0 .67188-.15625.79688-.54688.82813l-1.42187.125Zm0 0"/><path id="d" d="M.70313-5.625c0 3.35938.98437 5.82813 3.76562 5.82813C7.23438.20313 8.25-2.26562 8.25-5.625c0-3.375-1.01562-5.82812-3.78125-5.82812C1.6875-11.45312.70313-9 .70313-5.625m1.70312 0c0-2.75.46875-5.23437 2.0625-5.23437S6.53125-8.375 6.53125-5.625c0 2.73438-.46875 5.23438-2.0625 5.23438s-2.0625-2.5-2.0625-5.23438m0 0"/><path id="h" d="M.67188-1c0 .54688.26562 1.10938.90625 1.10938 1.0625 0 1.84375-1.14063 2.375-2.0625h.03125L3.70313-1c-.0625.21875-.09375.39063-.09375.54688 0 .375.1875.5625.57812.5625.78125 0 1.34375-.67188 1.6875-1.40625l-.23437-.14063C5.4375-1.07812 5.0625-.5 4.8125-.5c-.10937 0-.15625-.0625-.15625-.17187 0-.07813.01563-.1875.04688-.29688L5.6875-4.625H4.67188l-.04688.10938c-.15625-.10938-.42187-.1875-.67187-.1875C1.71875-4.70312.67188-2.23437.67188-1m1.15625-.04687c0-1 .89062-3.26563 2.17187-3.26563.20313 0 .39063.04688.51563.15625-.17188.6875-.5 1.60938-.96875 2.35938C3.04688-1.03125 2.5625-.5 2.1875-.5c-.28125 0-.35937-.23437-.35937-.54687m0 0"/><path id="i" d="M.39063.89063c0 .95312.9375 1.375 2.03125 1.375.54687 0 1.14062-.10938 1.59375-.39063.42187-.25.73437-.70312.73437-1.28125 0-1.01562-.79687-1.35937-1.79687-1.35937h-.75c-.6875 0-.78125-.23438-.78125-.40625 0-.26563.35937-.42188.48437-.45313.17188.01563.375.01563.46875.01563.89063 0 1.89063-.375 1.89063-1.51563 0-.39062-.125-.71875-.28125-.875l.75-.125.1875-.57812-.07813-.07813-1.20312.375c-.25-.1875-.78125-.29687-1.21875-.29687C1-4.70312.5-3.82812.5-3.125c0 .875.57813 1.28125 1 1.39063v.01562C1-1.51562.64063-1.25.64063-.875c0 .32813.39062.67188.82812.71875V-.125C1.07813 0 .39063.21875.39063.89063m.89062-.03126c0-.32812.09375-.5625.29688-.70312.20312-.17187.51562-.21875.95312-.21875.82813 0 1.4375.20313 1.4375.90625 0 .73438-.67187 1.09375-1.34375 1.09375-.79687 0-1.34375-.40625-1.34375-1.07812M1.45313-3.125c0-.92187.48437-1.25.96875-1.25.46875 0 .9375.34375.9375 1.25 0 .78125-.39063 1.1875-.9375 1.1875-.53125 0-.96875-.40625-.96875-1.1875m0 0"/><path id="j" d="M.29688 0h2.46875v-.26562C1.9375-.3125 1.875-.34375 1.875-.8125V-3c0-.71875.32813-.96875.54688-.96875.14062 0 .3125.0625.57812.20313.0625.04687.14063.04687.1875.04687.21875 0 .42188-.23437.42188-.51562 0-.21875-.125-.46875-.5-.46875-.32813 0-.60938.20312-1.23438.75l-.10937-.75-1.42188.25v.21875l.35938.04687C.9375-4.14062 1-4.09375 1-3.76562V-.8125c0 .46875-.04687.5-.70312.54688Zm0 0"/><path id="k" d="M.45313-1.21875c0 .70313.46875 1.32813 1.34375 1.32813.54687 0 1.09375-.35938 1.39062-.5625.14063.35937.29688.5625.625.5625.34375 0 .75-.09375 1.10938-.28126l-.0625-.21874c-.125.03125-.34375.04687-.48438 0-.17187-.03125-.32812-.20313-.32812-.79688v-2.26562c0-.54688-.10938-1.25-1.53125-1.25-1.04688 0-1.89063.54687-1.89063 1.0625 0 .3125.34375.45312.53125.45312.20313 0 .25-.10937.29688-.26562.20312-.70313.59375-.92188.96875-.92188.35937 0 .78125.1875.78125.9375v.39063c-.23438.23437-1.14063.48437-1.875.71875-.6875.20312-.875.67187-.875 1.10937m.95312-.125c0-.4375.20313-.67187.71875-.85937.39063-.14063.875-.32813 1.07813-.45313v1.32813c0 .75-.57813.9375-.9375.9375-.57813 0-.85938-.40625-.85938-.95313m0 0"/><path id="l" d="M.29688 0h2.28125v-.26562C1.90625-.3125 1.875-.34375 1.875-.8125V-3c0-.25.01563-.35937.09375-.51562.20313-.35938.625-.67188 1.10938-.67188.64062 0 1 .34375 1 1.15625V-.8125c0 .46875-.03125.5-.71875.54688V0h2.29687v-.26562c-.67187-.04688-.70312-.07813-.70312-.54688v-2.39062c0-.95313-.53125-1.5-1.375-1.5-.70313 0-1.125.34375-1.70313.71875l-.14062-.71875-1.39063.25v.21875l.35938.04687C.9375-4.14062 1-4.09375 1-3.76562V-.8125c0 .46875-.03125.5-.70312.54688Zm0 0"/><path id="m" d="M.45313-2.20312c0 1.39062.73437 2.3125 1.96875 2.3125.5 0 .9375-.23438 1.4375-.64063v.46875L3.9375 0h1.51563v-.26562C4.78125-.3125 4.75-.34375 4.75-.8125v-6.07812l-.0625-.04688-1.46875.23438v.23437l.35938.03125c.23437.03125.29687.07813.29687.4375v1.53125c-.26562-.14062-.60937-.23437-1.03125-.23437-.78125 0-1.34375.25-1.73437.65625-.40625.40625-.65625 1.03125-.65625 1.84375m.98437-.10938c0-1.20312.4375-2.0625 1.39063-2.0625.4375 0 .79687.20313.96875.59375.07812.15625.07812.29688.07812.54688v1.64062c0 .20313 0 .375-.0625.53125-.1875.48438-.59375.67188-1.07812.67188-.85938 0-1.29688-.84375-1.29688-1.92188m0 0"/><path id="o" d="M.23438 1.875v.28125h2.42187V1.875c-.78125-.04687-.84375-.0625-.84375-.54687V-.09376c.20313.10938.64063.20313 1.07813.20313 1.26562 0 2.32812-.57813 2.32812-2.51563 0-.65625-.10937-2.29687-1.8125-2.29687-.6875 0-1.21875.46875-1.59375.70312l-.125-.70312-1.40625.25v.21875l.35938.04687c.23437.04688.29687.09375.29687.42188v5.09375c0 .48437-.04687.5-.70312.54687M1.8125-1.46875V-3c0-.25.04688-.35937.125-.53125.21875-.4375.60938-.65625 1.10938-.65625.375 0 1.21875.23438 1.21875 1.84375 0 1.375-.4375 2.125-1.375 2.125-.48438 0-.85938-.25-1.01563-.67187-.04687-.17188-.0625-.35938-.0625-.57813m0 0"/><path id="p" d="M.45313-2.26562c0 1.48437.64062 2.375 2.17187 2.375 1.03125 0 1.5625-.57813 1.8125-1.3125l-.28125-.15626c-.25.54688-.60937.98438-1.34375.98438-1.17187 0-1.40625-1.10937-1.375-2.07812H4.125c.20313 0 .375-.0625.375-.35938 0-.54687-.1875-1.89062-1.89062-1.89062-1.46875 0-2.15625 1.04687-2.15625 2.4375m.98437-.54688c0-.39062.14063-1.5625 1.125-1.5625.85938 0 .95313.89063.95313 1.26563 0 .17187-.04688.29687-.3125.29687Zm0 0"/><path id="q" d="M.28125-4.20312h.6875v3.25C.96875 0 1.67188.10938 2 .10938c.48438 0 .92188-.23438 1.1875-.40625L3.125-.5c-.23437.09375-.42187.125-.67187.125-.3125 0-.60938-.23437-.60938-.9375v-2.89062h1.20313v-.39063H1.84375v-1.17187h-.26562L1-4.59375H.28125Zm0 0"/><path id="r" d="M.85938-6.125c0 .34375.23437.57813.57812.57813.32813 0 .5625-.23438.5625-.57813 0-.32812-.23437-.5625-.5625-.5625-.34375 0-.57812.23438-.57812.5625M.29688 0h2.28125v-.26562C1.90625-.3125 1.875-.34375 1.875-.8125v-3.82812l-.0625-.0625-1.46875.25v.21875l.35938.04687C.9375-4.14062 1-4.09375 1-3.76562V-.8125c0 .46875-.03125.5-.70312.54688Zm0 0"/><clipPath id="a"><path d="M0 0h170.7539v170.7539H0Zm0 0"/></clipPath><clipPath id="e"><path d="M152 72h18.7539v27H152Zm0 0"/></clipPath><clipPath id="f"><path d="M84 6h2v164.7539h-2Zm0 0"/></clipPath><clipPath id="g"><path d="M.39844.39844h169.95703v169.95703H.39844Zm0 0"/></clipPath><clipPath id="n"><path d="M.39844.39844h169.95703v169.95703H.39844Zm0 0"/></clipPath></defs><g clip-path="url(#a)"><path fill="none" stroke="#000" stroke-miterlimit="10" stroke-opacity=".5" stroke-width=".39821" d="M.39843 142.02735h169.95705M.39843 85.375h169.95705M.39843 28.72265h169.95705M28.72265 170.35548V.39843M85.375 170.35548V.39843m56.65235 169.95705V.39843"/></g><path fill="none" stroke="#000" stroke-miterlimit="10" stroke-opacity=".5" stroke-width=".39821" d="M28.72265 71.21484v28.32422"/><g fill-opacity=".5"><use xlink:href="#b" x="18.20479" y="105.26461"/><use xlink:href="#c" x="30.31854" y="105.26461"/></g><path fill="none" stroke="#000" stroke-miterlimit="10" stroke-opacity=".5" stroke-width=".39821" d="M142.02735 71.21484v28.32422"/><use xlink:href="#c" x="137.56517" y="105.26461" fill-opacity=".5"/><path fill="none" stroke="#000" stroke-miterlimit="10" stroke-opacity=".5" stroke-width=".39821" d="M99.53906 142.02735H71.21484"/><g fill-opacity=".5"><use xlink:href="#b" x="55.02807" y="147.75378"/><use xlink:href="#c" x="67.14182" y="147.75378"/></g><path fill="none" stroke="#000" stroke-miterlimit="10" stroke-opacity=".5" stroke-width=".39821" d="M99.53906 28.72265H71.21484"/><use xlink:href="#c" x="61.08567" y="34.45" fill-opacity=".5"/><path fill="none" stroke="#000" stroke-miterlimit="10" stroke-opacity=".5" stroke-width=".39821" d="M85.375 71.21484v28.32422"/><use xlink:href="#d" x="61.08567" y="110.83157" fill-opacity=".5"/><path fill="none" stroke="#000" stroke-miterlimit="10" stroke-width=".79644" d="M.39843 85.375H164.1836"/><path d="M168.34375 85.375c-.51172-.10547-2.75781-.70703-4.16016-1.36328v2.72656c1.40235-.65234 3.64844-1.25781 4.16016-1.36328m0 0"/><g clip-path="url(#e)"><path fill="none" stroke="#000" stroke-miterlimit="10" stroke-width=".79644" d="M168.34375 85.375c-.51172-.10547-2.75781-.70703-4.16016-1.36328v2.72656c1.40235-.65234 3.64844-1.25781 4.16016-1.36328Zm0 0"/></g><g clip-path="url(#f)"><path fill="none" stroke="#000" stroke-miterlimit="10" stroke-width=".79644" d="M85.375 170.35548V6.5703"/></g><path stroke="#000" stroke-miterlimit="10" stroke-width=".79644" d="M85.375 2.41016c-.10547.5078-.70703 2.7539-1.36328 4.16015h2.72656c-.65234-1.40625-1.25781-3.65234-1.36328-4.16015Zm0 0"/><g clip-path="url(#g)"><path fill="none" stroke="#007F7F" stroke-miterlimit="10" stroke-width=".79644" d="M-112.90628 4943.32884s11.9375-832.10169 16.52344-1116.06267c4.58203-283.95707 11.9375-695.70713 16.51953-930.51967 4.58594-234.81644 11.94141-571.50398 16.52344-761.85167 4.58594-190.34768 11.9375-459.48835 16.52344-610.05087 4.58594-150.56643 11.9375-359.6563 16.52344-475.11726 4.58594-115.46095 11.9375-272.00785 16.52344-357.04302C-9.1836 607.64461-1.83205 496.13288 2.7539 436.8399c4.58594-59.29297 11.9375-133.27345 16.52344-171.50393 4.58594-38.23047 11.9375-82.1836 16.52344-104.03126s11.9375-43.28126 16.52344-53.42579c4.58204-10.14453 11.9375-16.5664 16.52344-19.69141 4.58204-3.1211 11.9375-2.03125 16.52344-2.8125 4.58204-.77734 11.9375.3125 16.51954-2.80469 4.58594-3.11719 11.9414-9.53125 16.52344-19.66797C123 52.76562 130.35157 31.34764 134.9375 9.51171s11.9375-65.76954 16.52344-103.9844c4.58594-38.21094 11.9375-112.16407 16.52344-171.43752 4.58594-59.27344 11.9375-170.75393 16.52344-255.76566 4.58594-85.01564 11.9375-241.51957 16.52344-356.95318 4.58593-115.4336 11.9375-324.4727 16.52344-475.00788 4.58593-150.53518 11.9375-419.61725 16.52344-609.93368 4.58203-190.31253 11.9375-526.9454 16.52344-761.71886 4.58203-234.77348 11.9375-646.45713 16.51953-930.37514 4.58594-283.91801 16.52344-1115.8947 16.52344-1115.8947"/></g><use xlink:href="#h" x="86.5462" y="41.81765" fill="#007F7F"/><g fill="#007F7F"><use xlink:href="#i" x="94.92811" y="41.81765"/><use xlink:href="#j" x="99.78636" y="41.81765"/></g><g fill="#007F7F"><use xlink:href="#k" x="103.33048" y="41.81765"/><use xlink:href="#l" x="108.21859" y="41.81765"/><use xlink:href="#m" x="114.00269" y="41.81765"/></g><g fill="none" stroke-miterlimit="10" stroke-width=".79644" clip-path="url(#n)"><path stroke="#000" d="M-112.90628 2514.35192s11.9375-416.05084 16.52344-558.03133c4.58203-141.9805 11.9375-347.85162 16.51953-465.26179 4.58594-117.40627 11.94141-285.75004 16.52344-380.92193 4.58594-95.1758 11.9375-229.74613 16.52344-305.02739s11.9375-179.82815 16.52344-237.55863 11.9375-136.00392 16.52344-178.52346C-9.1836 346.51176-1.83205 290.75394 2.7539 261.1094c4.58594-29.64844 11.9375-66.63673 16.52344-85.75392 4.58594-19.11328 11.9375-41.09375 16.52344-52.01563s11.9375-21.64063 16.52344-26.71485c4.58204-5.07031 11.9375-8.28125 16.52344-9.84375 4.58204-1.5586 11.9375-1.01562 16.52344-1.40625 4.58204-.39062 11.9375.15625 16.51954-1.40234 4.58594-1.5586 11.9414-4.76563 16.52344-9.83204C123 69.07031 130.35157 58.36328 134.9375 47.44531s11.9375-32.88673 16.52344-51.9922c4.58594-19.10938 11.9375-56.08204 16.52344-85.71876s11.9375-85.37892 16.52344-127.88283c4.58594-42.50782 11.9375-120.76174 16.52344-178.4766 4.58593-57.71875 11.9375-162.2383 16.52344-237.50393 4.58593-75.26954 11.9375-209.81253 16.52344-304.9688 4.58203-95.15626 11.9375-263.4727 16.52344-380.85943 4.58203-117.38673 11.9375-323.23051 16.51953-465.18756 4.58594-141.95706 16.52344-557.9493 16.52344-557.9493"/><path stroke="#FF7F00" d="M-112.90628 814.07433s11.9375-124.81643 16.52344-167.41019C-91.8008 604.0704-84.44534 542.30866-79.8633 507.086c4.58594-35.22266 11.94141-85.72658 16.52344-114.27736 4.58594-28.5547 11.9375-68.9258 16.52344-91.51173 4.58594-22.58204 11.9375-53.94923 16.52344-71.26564 4.58594-17.32031 11.9375-40.8047 16.52344-53.5586s11.9375-29.48438 16.52344-38.375c4.58594-8.89454 11.9375-19.9922 16.52344-25.72657 4.58594-5.73438 11.9375-12.32813 16.52344-15.60547s11.9375-6.4922 16.52344-8.01563c4.58204-1.51953 11.9375-2.48437 16.52344-2.95313 4.58204-.46874 11.9375-.30468 16.52344-.42187 4.58204-.11719 11.9375.04688 16.51954-.41797 4.58594-.46875 11.9414-1.42969 16.52344-2.95312 4.58594-1.51954 11.9375-4.73047 16.52344-8.00782 4.58594-3.27344 11.9375-9.86328 16.52344-15.59766 4.58594-5.73047 11.9375-16.82422 16.52344-25.71484 4.58594-8.89063 11.9375-25.61329 16.52344-38.3672 4.58594-12.75 11.9375-36.22656 16.52344-53.54297 4.58593-17.3125 11.9375-48.67189 16.52344-71.25001 4.58593-22.58204 11.9375-62.94533 16.52344-91.4922 4.58203-28.54688 11.9375-79.04299 16.52344-114.25783 4.58203-35.21876 11.9375-96.97267 16.51953-139.55862 4.58594-42.58594 16.52344-167.38674 16.52344-167.38674"/></g><use xlink:href="#h" x="124.24684" y="84.75549" fill="#FF7F00"/><g fill="#FF7F00"><use xlink:href="#o" x="132.62876" y="84.75549"/><use xlink:href="#p" x="138.3133" y="84.75549"/><use xlink:href="#q" x="143.12176" y="84.75549"/><use xlink:href="#r" x="146.33736" y="84.75549"/><use xlink:href="#q" x="149.05519" y="84.75549"/></g></svg>