<svg xmlns="http://www.w3.org/2000/svg" xmlns:xlink="http://www.w3.org/1999/xlink" width="148.199pt" height="187.786pt" viewBox="0 0 148.199 187.786"><defs><path id="b" d="M.5-4.04687C.5-1.625 1.20313.14063 3.20313.14063S5.92188-1.625 5.92188-4.04687s-.71875-4.1875-2.71875-4.1875S.5-6.46875.5-4.04687m1.21875 0c0-1.96875.34375-3.75 1.48438-3.75 1.15625 0 1.48437 1.78125 1.48437 3.75S4.35938-.28125 3.20313-.28125c-1.14063 0-1.48438-1.79687-1.48438-3.76562m0 0"/><path id="j" d="M.40625-6.03125c0 1.04688 1.04688 1.89063 3.46875 1.89063-.40625.70312-.6875 1.4375-.6875 2.23437 0 1.32813.82813 2.04688 2.34375 2.04688 1.48438 0 3.03125-1.0625 3.03125-2.4375 0-.82813-.6875-1.28125-1.54687-1.28125-.95313 0-2.07813 1.0625-2.07813 1.92187 0 .25.20313.73438.5625.73438.09375 0 .25-.0625.25-.1875 0-.15626-.29687-.17188-.29687-.53125 0-.59375.875-1.54688 1.5625-1.54688.48437 0 .78125.1875.78125.65625C7.79688-1.45312 6.76563-.25 5.53125-.25c-.875 0-1.32812-.46875-1.32812-1.26562 0-.90625.64062-1.95313 1.10937-2.73438 2.70313-.40625 5.32813-1.73437 5.32813-3.42187 0-.64063-.51563-1.0625-1.20313-1.0625-1.59375 0-4 2.04687-5.32812 4.15625-1.09375 0-2.875-.03125-2.875-1.3125C1.23438-7.07812 2.67188-8 3.57813-8c.17187 0 .26562-.09375.26562-.20312 0-.09375-.09375-.17188-.20312-.17188-1.34375 0-3.23438.90625-3.23438 2.34375m5.15625 1.3125c.89063-1.5625 2.76563-3.64062 3.875-3.64062.42188 0 .71875.25.71875.64062 0 1.35938-2.125 2.59375-4.59375 3m0 0"/><path id="c" d="M.92188-2.76562h6v-.625h-6Zm0 0"/><path id="d" d="M1.1875 0h3.57813v-.3125l-.92188-.07812C3.625-.42187 3.48438-.5 3.48438-.92187v-6.42188l-.04688-.0625-2.25.375v.26563l1.01563.14062c.1875.01563.25.09375.25.40625v5.29688c0 .42187-.09375.5-.35938.53125L1.1875-.3125Zm0 0"/><path id="e" d="M.29688-.10937.40625 0h4.51563l.35937-1.4375L4.98438-1.5c-.23438.59375-.45313.67188-.89063.67188H1.3125c.17188-.5625.82813-1.34375 1.82813-2.07813C4.1875-3.65625 5-4.15625 5-5.375c0-1.51562-1.01562-2.03125-2.15625-2.03125-1.5 0-2.26562.90625-2.26562 1.46875 0 .375.42187.54688.60937.54688S1.45313-5.5 1.5-5.6875c.17188-.75.59375-1.34375 1.26563-1.34375.84375 0 1.07812.70313 1.07812 1.5 0 1.17188-.57812 1.82813-1.53125 2.67188C.96875-1.6875.5-.95312.29688-.10937m0 0"/><path id="g" d="M.29688-1.10937c0 .45312.75 1.23437 2.28125 1.23437 1.57812 0 2.57812-.79687 2.57812-2.1875 0-1.46875-1.25-1.89062-1.85937-1.95312v-.04688c.59375-.09375 1.53125-.53125 1.53125-1.60937 0-1.20313-.9375-1.73438-2.10938-1.73438-1.4375 0-2.14062.82813-2.14062 1.29688 0 .32812.39062.51562.53125.51562s.21874-.07812.26562-.21875c.25-.73437.65625-1.21875 1.26563-1.21875.85937 0 1.07812.76563 1.07812 1.375 0 .64063-.23437 1.46875-1.15625 1.46875-.51562 0-.82812-.10937-.95312-.10937-.14063 0-.1875.10937-.1875.3125 0 .1875.04687.29687.1875.29687.125 0 .4375-.10937.95312-.10937.92188 0 1.45313.84375 1.45313 1.79687 0 1.29688-.64063 1.75-1.42188 1.75-.71875 0-1.1875-.53125-1.40625-1.15625-.0625-.20312-.17187-.3125-.3125-.3125-.20312 0-.57812.21875-.57812.60938m0 0"/><path id="k" d="M-.1875 1.53125c.01563.29688.375.51563.84375.51563.875 0 1.28125-.70313 1.64063-2.29688l.78125-3.54687h1.0625l.09375-.35938H3.14063l.25-1.03125c.14062-.5625.28125-.78125.5-.78125.1875 0 .34375.15625.53125.59375.0625.09375.125.17188.28125.17188.1875 0 .45312-.17188.45312-.40625 0-.375-.46875-.67188-1.03125-.67188-1.0625 0-1.5.76563-1.79687 1.84375L2.25-4.15625h-.73437l-.10938.35938h.75l-.98437 5.01562c-.07813.4375-.15626.5-.25.5-.07813 0-.21876-.07812-.4375-.42187-.0625-.09376-.125-.21876-.25-.21876-.20313 0-.42188.21876-.42188.45313m0 0"/><clipPath id="a"><path d="M0 .39844h147.40234V185H0Zm0 0"/></clipPath><clipPath id="f"><path d="M129 116h18.40234v26H129Zm0 0"/></clipPath><clipPath id="h"><path d="M42 .39844h26V19H42Zm0 0"/></clipPath><clipPath id="i"><path d="M.39453.79297h146.61328v183.26562H.39453Zm0 0"/></clipPath></defs><g clip-path="url(#a)"><path fill="none" stroke="#7f7f7f" stroke-dasharray=".39635607 .9909200136" stroke-miterlimit="10" stroke-width=".39636" d="M.39454 165.73046H147.0078M.39454 129.07813H147.0078M.39454 92.42579H147.0078M.39454 55.77345H147.0078M.39454 19.1211H147.0078M18.72266 184.05858V.793M55.375 184.05859V.79298m36.65234 183.2656V.79298m36.65234 183.2656V.79298"/></g><use xlink:href="#b" x="39.33838" y="145.95063" fill="#7f7f7f"/><path fill="none" stroke="#7f7f7f" stroke-miterlimit="10" stroke-width=".39636" d="M18.72266 119.91406v18.32813"/><g fill="#7f7f7f"><use xlink:href="#c" x="11.91659" y="150.19967"/><use xlink:href="#d" x="19.75389" y="150.19967"/></g><path fill="none" stroke="#7f7f7f" stroke-miterlimit="10" stroke-width=".39636" d="M92.02734 119.91406v18.32813"/><use xlink:href="#d" x="89.14021" y="150.19967" fill="#7f7f7f"/><path fill="none" stroke="#7f7f7f" stroke-miterlimit="10" stroke-width=".39636" d="M128.67968 119.91406v18.32813"/><use xlink:href="#e" x="125.7931" y="150.19967" fill="#7f7f7f"/><path fill="none" stroke="#000" stroke-miterlimit="10" stroke-width=".79272" d="M.39454 129.07813h140.46873"/><path d="M145.0039 129.07813c-.5078-.10547-2.74218-.70704-4.14062-1.35547v2.71093c1.39844-.65234 3.63281-1.25 4.14063-1.35547m0 0"/><g clip-path="url(#f)"><path fill="none" stroke="#000" stroke-miterlimit="10" stroke-width=".79272" d="M145.0039 129.07813c-.5078-.10547-2.74218-.70704-4.14062-1.35547v2.71093c1.39844-.65234 3.63281-1.25 4.14063-1.35546Zm0 0"/></g><path fill="none" stroke="#7f7f7f" stroke-miterlimit="10" stroke-width=".39636" d="M64.53906 165.73046H46.21094"/><g fill="#7f7f7f"><use xlink:href="#c" x="28.0494" y="169.43371"/><use xlink:href="#d" x="35.88669" y="169.43371"/></g><path fill="none" stroke="#7f7f7f" stroke-miterlimit="10" stroke-width=".39636" d="M64.53906 92.42579H46.21094"/><use xlink:href="#d" x="35.88703" y="96.12892" fill="#7f7f7f"/><path fill="none" stroke="#7f7f7f" stroke-miterlimit="10" stroke-width=".39636" d="M64.53906 55.77345H46.21094"/><use xlink:href="#e" x="35.88703" y="59.47702" fill="#7f7f7f"/><path fill="none" stroke="#7f7f7f" stroke-miterlimit="10" stroke-width=".39636" d="M64.53906 19.12111H46.21094"/><use xlink:href="#g" x="35.88703" y="22.76046" fill="#7f7f7f"/><path fill="none" stroke="#000" stroke-miterlimit="10" stroke-width=".79272" d="M55.375 184.05858V6.93752"/><path d="M55.375 2.79297c-.10547.51172-.70703 2.7461-1.35547 4.14453h2.71094c-.65234-1.39844-1.25-3.63281-1.35547-4.14453m0 0"/><g clip-path="url(#h)"><path fill="none" stroke="#000" stroke-miterlimit="10" stroke-width=".79272" d="M55.375 2.79297c-.10547.51172-.70703 2.7461-1.35547 4.14453h2.71094c-.65235-1.39844-1.25-3.63281-1.35547-4.14453Zm0 0"/></g><g clip-path="url(#i)"><path fill="none" stroke="#007f7f" stroke-miterlimit="10" stroke-width=".79272" d="M.39454 257.36326s4.41406-40.29296 6.10937-53.62108c1.69532-13.32422 4.41407-32.0625 6.10938-42.42187 1.69531-10.35547 4.41406-24.5625 6.10937-32.23828 1.6914-7.67578 4.41016-17.80468 6.10547-23.07812s4.41406-11.77734 6.10937-14.9336c1.69532-3.15624 4.41407-6.48827 6.10938-7.80858 1.69531-1.3164 4.41406-1.9336 6.10937-1.69922 1.6914.23437 4.41016 1.88672 6.10547 3.39453 1.69531 1.5039 4.41406 4.96875 6.10937 7.46484 1.69532 2.49219 4.41407 7.3164 6.10938 10.51562 1.69531 3.20313 4.41406 8.92969 6.10937 12.55469s4.41016 9.8086 6.10547 13.57422c1.69531 3.76953 4.41406 9.94921 6.10937 13.57421 1.69532 3.6289 4.41407 9.35547 6.10938 12.5586s4.41406 8.02734 6.10937 10.52343c1.69531 2.4961 4.41016 5.96094 6.10547 7.46875s4.41406 3.16015 6.10937 3.39844c1.69532.23828 4.41407-.375 6.10938-1.69141 1.69531-1.3164 4.41406-4.64453 6.10937-7.79687s4.41016-9.65235 6.10547-14.92188c1.69531-5.27343 4.41406-15.39452 6.10937-23.0664 1.69532-7.67187 4.41407-21.87109 6.10938-32.22656s4.41406-29.08593 6.10937-42.40624S146.99608.87893 146.99608.87893"/></g><use xlink:href="#j" x="122.23533" y="178.00041" fill="#007f7f"/><use xlink:href="#k" x="132.11523" y="180.83469" fill="#007f7f"/></svg>