<svg xmlns="http://www.w3.org/2000/svg" xmlns:xlink="http://www.w3.org/1999/xlink" width="111.348pt" height="111.348pt" viewBox="0 0 111.348 111.348"><defs><path id="b" d="M.5-4.04687C.5-1.625 1.20313.14063 3.20313.14063S5.92188-1.625 5.92188-4.04687s-.71875-4.1875-2.71875-4.1875S.5-6.46875.5-4.04687m1.21875 0c0-1.96875.34375-3.75 1.48438-3.75 1.15625 0 1.48437 1.78125 1.48437 3.75S4.35938-.28125 3.20313-.28125c-1.14063 0-1.48438-1.79687-1.48438-3.76562m0 0"/><path id="c" d="M.92188-2.76562h6v-.625h-6Zm0 0"/><path id="d" d="M1.1875 0h3.57813v-.3125l-.92188-.07812C3.625-.42187 3.48438-.5 3.48438-.92187v-6.42188l-.04688-.0625-2.25.375v.26563l1.01563.14062c.1875.01563.25.09375.25.40625v5.29688c0 .42187-.09375.5-.35938.53125L1.1875-.3125Zm0 0"/><path id="h" d="M.4375-.65625c0 .35938.17188.73438.59375.73438.67188 0 1.1875-.75 1.53125-1.34375h.01563l-.1875.625c-.03125.125-.04688.25-.04688.34375 0 .25.10938.375.35938.375.51562 0 .875-.4375 1.09375-.92188L3.64063-.9375c-.125.25-.375.60938-.53125.60938-.07813 0-.09375-.03125-.09375-.10938 0-.04687.01562-.10937.03125-.1875l.625-2.35937h-.65625L3-2.92187C2.89063-3 2.71875-3.03125 2.5625-3.03125c-1.45312 0-2.125 1.57813-2.125 2.375m.75-.01562c0-.65625.5625-2.125 1.40625-2.125.125 0 .25.04687.32813.10937-.10938.45313-.32813 1.04688-.625 1.51563-.32813.5-.64063.84375-.89063.84375-.17187 0-.21875-.14063-.21875-.34375m0 0"/><path id="i" d="M.25.57813c0 .60937.60938.89062 1.3125.89062.35938 0 .73438-.07812 1.03125-.25.28125-.17187.48438-.45312.48438-.82812C3.07813-.26562 2.5625-.5 1.90625-.5h-.48437c-.4375 0-.5-.14062-.5-.26562 0-.17188.23437-.26563.3125-.29688.10937.01563.23437.03125.29687.03125.57813 0 1.23438-.25 1.23438-.98437 0-.25-.09375-.46875-.1875-.57813l.48437-.07812.125-.375-.0625-.04688-.76562.23438c-.17188-.10938-.51563-.17188-.78125-.17188-.9375 0-1.25.5625-1.25 1.01563 0 .5625.35937.82812.64062.89062v.01563c-.32812.125-.54687.29687-.54687.54687 0 .20313.23437.4375.53125.46875v.01563C.6875 0 .25.14063.25.57813M.82813.54687c0-.20312.0625-.35937.1875-.45312.14062-.09375.34375-.14062.625-.14062.53125 0 .92187.14062.92187.59375 0 .48437-.4375.70312-.85937.70312-.51563 0-.875-.26562-.875-.70312m.10937-2.5625c0-.60937.3125-.8125.64063-.8125.28124 0 .59375.21875.59375.8125 0 .5-.25.76563-.60938.76563-.34375 0-.625-.26562-.625-.76562m0 0"/><path id="j" d="M.1875 0h1.60938v-.17187C1.25-.20313 1.21875-.21875 1.21875-.53125V-1.9375c0-.46875.20313-.625.34375-.625.09375 0 .20313.03125.375.125.04688.03125.09375.03125.125.03125.14063 0 .28125-.15625.28125-.34375 0-.125-.09375-.28125-.32812-.28125-.21875 0-.40625.125-.79688.46875l-.07812-.46875-.92188.14063v.15625l.23438.03125c.15625.03125.20312.04687.20312.26562v1.90625c0 .3125-.03125.32813-.46875.35938Zm0 0"/><path id="k" d="M.29688-.78125c0 .45313.29687.85938.875.85938.34375 0 .70312-.23438.89062-.375.09375.23437.1875.375.40625.375S2.95313 0 3.1875-.10937L3.14063-.25c-.07813.01563-.21875.03125-.3125 0C2.71875-.28125 2.625-.39062 2.625-.76562v-1.46875c0-.35938-.07812-.79688-1-.79688-.67187 0-1.21875.34375-1.21875.6875 0 .1875.21875.28125.34375.28125s.15625-.0625.1875-.17187c.14063-.45313.375-.59375.625-.59375.23438 0 .51563.125.51563.60937v.25c-.15625.15625-.75.3125-1.21875.46875-.4375.125-.5625.4375-.5625.71875M.90625-.875c0-.28125.125-.42187.46875-.54687.25-.09376.5625-.21876.70313-.29688v.85938c0 .48437-.375.60937-.60938.60937-.375 0-.5625-.26562-.5625-.625m0 0"/><path id="l" d="M.1875 0h1.48438v-.17187c-.4375-.03126-.45313-.04688-.45313-.35938V-1.9375c0-.15625 0-.23437.0625-.32812.125-.25.39063-.4375.71875-.4375.40625 0 .64063.21875.64063.75v1.42187c0 .3125-.03125.32813-.46875.35938V0h1.48437v-.17187c-.4375-.03126-.45312-.04688-.45312-.35938v-1.54687c0-.60938-.34375-.95313-.89063-.95313-.45312 0-.73437.21875-1.10937.45313L1.125-3.03125l-.90625.14063v.15625l.23438.03125c.15625.03125.20312.04687.20312.26562v1.90625c0 .3125-.03125.32813-.46875.35938Zm0 0"/><path id="m" d="M.29688-1.42187c0 .89062.46875 1.5 1.26562 1.5.32813 0 .60938-.15625.9375-.42188v.29688L2.54688 0h.98437v-.17187c-.4375-.03126-.45312-.04688-.45312-.35938v-3.92187l-.04688-.03125-.95312.14062v.15625l.23437.01563c.15625.03125.1875.0625.1875.29687v.98438c-.15625-.09375-.39062-.14063-.67187-.14063-.48438 0-.85938.15625-1.10938.40625-.26562.28125-.42187.67188-.42187 1.20313M.92188-1.5c0-.78125.28124-1.32812.90625-1.32812.28124 0 .51562.125.625.375C2.5-2.34375 2.5-2.25 2.5-2.09375v1.0625c0 .14063 0 .23438-.03125.34375-.125.3125-.39062.4375-.70312.4375-.5625 0-.84375-.54687-.84375-1.25m0 0"/><path id="p" d="M.15625 1.21875v.17188h1.5625v-.17188c-.51562-.03125-.54687-.04687-.54687-.35937V-.0625c.125.0625.42187.14063.6875.14063.82812 0 1.51562-.375 1.51562-1.625 0-.4375-.07812-1.48438-1.17187-1.48438-.45313 0-.79688.28125-1.03125.4375l-.07813-.4375-.90625.14063v.15625l.21875.03125c.15625.03125.20313.04687.20313.26562V.85938c0 .3125-.03126.32812-.45313.35937M1.17188-.95312v-.98438c0-.15625.03124-.23437.07812-.34375.14063-.28125.39063-.42187.71875-.42187.25 0 .78125.14062.78125 1.1875 0 .89062-.28125 1.375-.89062 1.375-.3125 0-.54688-.15625-.64063-.4375-.04687-.10938-.04687-.23438-.04687-.375m0 0"/><path id="q" d="M.29688-1.46875C.29688-.5.70313.07813 1.6875.07813c.67188 0 1.01563-.375 1.1875-.85938L2.6875-.875c-.15625.35938-.39062.64063-.875.64063-.75 0-.89062-.71875-.89062-1.35938h1.75c.125 0 .23437-.03125.23437-.23437 0-.34375-.10937-1.20313-1.21875-1.20313-.95312 0-1.39062.65625-1.39062 1.5625m.64062-.35937c0-.25.09375-1 .71875-1 .5625 0 .625.57812.625.8125 0 .10937-.04687.1875-.20312.1875Zm0 0"/><path id="r" d="M.1875-2.71875H.625V-.625c0 .625.45313.70313.67188.70313.3125 0 .59375-.15625.76562-.26563l-.04687-.14062C1.875-.26562 1.75-.25 1.59375-.25c-.20312 0-.40625-.14062-.40625-.59375v-1.875h.78125v-.25H1.1875v-.76562h-.17187l-.35938.76562H.1875Zm0 0"/><path id="s" d="M.54688-3.95312c0 .21875.15624.375.375.375.21874 0 .375-.15625.375-.375s-.15626-.375-.375-.375c-.21876 0-.375.15625-.375.375M.1875 0h1.48438v-.17187c-.4375-.03126-.45313-.04688-.45313-.35938V-3l-.04687-.03125-.95313.14063v.15625l.23438.03125c.15625.03125.20312.04687.20312.26562v1.90625c0 .3125-.03125.32813-.46875.35938Zm0 0"/><clipPath id="a"><path d="M0 0h110.69922v110.69922H0Zm0 0"/></clipPath><clipPath id="e"><path d="M92 42h18.69922v26H92Zm0 0"/></clipPath><clipPath id="f"><path d="M54 6h2v104.69922h-2Zm0 0"/></clipPath><clipPath id="g"><path d="M.39453.39453H110.3047V110.3047H.39453Zm0 0"/></clipPath><clipPath id="n"><path d="M.39453.39453H110.3047V110.3047H.39453Zm0 0"/></clipPath><clipPath id="o"><path d="M.39453 7H110.3047v97H.39453Zm0 0"/></clipPath></defs><g clip-path="url(#a)"><path fill="none" stroke="#7f7f7f" stroke-dasharray=".39618073 .9904816504" stroke-miterlimit="10" stroke-width=".39618" d="M.3945 91.9844h109.91021M.39451 55.35155h109.9102M.39451 18.71483h109.9102M18.71483 110.3047V.39451m36.63673 109.9102V.39451M91.9844 110.3047V.39451"/></g><use xlink:href="#b" x="39.32076" y="72.21514" fill="#7f7f7f"/><path fill="none" stroke="#7f7f7f" stroke-miterlimit="10" stroke-width=".39618" d="M18.71483 46.1914v18.31642"/><g fill="#7f7f7f"><use xlink:href="#c" x="11.91125" y="76.46327"/><use xlink:href="#d" x="19.74504" y="76.46327"/></g><path fill="none" stroke="#7f7f7f" stroke-miterlimit="10" stroke-width=".39618" d="M91.9844 46.1914v18.31642"/><use xlink:href="#d" x="89.10027" y="76.46327" fill="#7f7f7f"/><path fill="none" stroke="#000" stroke-miterlimit="10" stroke-width=".79237" d="M.3945 55.35156h103.76958"/><path d="M108.30469 55.35156c-.50781-.10547-2.7461-.70703-4.14063-1.35937v2.71484c1.39453-.65234 3.63281-1.25 4.14063-1.35547m0 0"/><g clip-path="url(#e)"><path fill="none" stroke="#000" stroke-miterlimit="10" stroke-width=".79237" d="M108.30469 55.35156c-.50781-.10547-2.7461-.70703-4.14063-1.35937v2.71484c1.39453-.65234 3.63282-1.25 4.14063-1.35547Zm0 0"/></g><path fill="none" stroke="#7f7f7f" stroke-miterlimit="10" stroke-width=".39618" d="M64.50782 91.9844H46.1914"/><g fill="#7f7f7f"><use xlink:href="#c" x="28.03683" y="95.6877"/><use xlink:href="#d" x="35.87061" y="95.6877"/></g><path fill="none" stroke="#7f7f7f" stroke-miterlimit="10" stroke-width=".39618" d="M64.50782 18.71483H46.1914"/><use xlink:href="#d" x="35.87096" y="22.41674" fill="#7f7f7f"/><g clip-path="url(#f)"><path fill="none" stroke="#000" stroke-miterlimit="10" stroke-width=".79237" d="M55.35156 110.30471V6.53514"/></g><path stroke="#000" stroke-miterlimit="10" stroke-width=".79237" d="M55.35156 2.39453c-.10547.51172-.70703 2.7461-1.35937 4.14063h2.71484c-.65234-1.39454-1.25-3.62891-1.35547-4.14063Zm0 0"/><g clip-path="url(#g)"><path fill="none" stroke="#007f7f" stroke-miterlimit="10" stroke-width=".79237" d="M.3945 302.64464s3.3086-42.3594 4.58204-56.81253c1.26953-14.45703 3.3086-35.41798 4.57813-47.37111s3.3086-29.09376 4.57812-38.78127c1.27344-9.6914 3.3086-23.39063 4.58204-31.0586 1.26953-7.66407 3.3086-18.3086 4.57813-24.1836 1.26953-5.87892 3.30859-13.84767 4.57812-18.1758 1.27344-4.32812 3.3086-10.0039 4.58204-13.02344 1.26953-3.01953 3.30859-6.78516 4.57812-8.73047s3.3086-4.1836 4.57813-5.29297c1.27344-1.11329 3.3125-2.20313 4.58203-2.71876 1.26953-.51562 3.3086-.84375 4.57813-1.0039 1.27344-.15625 3.3086-.10156 4.58203-.14063 1.26953-.04297 3.3086.01563 4.57813-.14453 1.26953-.16015 3.3086-.48437 4.57813-1.0039 1.27343-.51563 3.3086-1.60547 4.58203-2.71876 1.26953-1.10937 3.3086-3.34765 4.57813-5.29297 1.26953-1.94531 3.3086-5.71094 4.57812-8.73047 1.27344-3.01953 3.3086-8.69532 4.58204-13.02344 1.26953-4.32813 3.3086-12.29688 4.57812-18.1758 1.26954-5.875 3.3086-16.51953 4.57813-24.1836 1.27344-7.66406 3.3125-21.3672 4.58203-31.0547 1.26954-9.6914 3.3086-26.83204 4.57813-38.78517 1.27344-11.95313 3.3086-32.91408 4.58203-47.3672 1.26954-14.45705 4.57813-56.81644 4.57813-56.81644"/></g><use xlink:href="#h" x="60.20049" y="13.43533" fill="#007f7f"/><g fill="#007f7f"><use xlink:href="#i" x="65.62225" y="13.43533"/><use xlink:href="#j" x="68.764" y="13.43533"/></g><g fill="#007f7f"><use xlink:href="#k" x="71.05594" y="13.43533"/><use xlink:href="#l" x="74.217" y="13.43533"/><use xlink:href="#m" x="77.95749" y="13.43533"/></g><g clip-path="url(#n)"><path fill="none" stroke="#007f7f" stroke-miterlimit="10" stroke-width=".79237" d="M.3945 178.99615s3.3086-21.1797 4.58204-28.40626c1.26953-7.22657 3.3086-17.70704 4.57813-23.6836 1.26953-5.97657 3.3086-14.54689 4.57812-19.39064 1.27344-4.84766 3.3086-11.69532 4.58204-15.53126 1.26953-3.83203 3.3086-9.15235 4.57813-12.08985 1.26953-2.9414 3.30859-6.92578 4.57812-9.08985 1.27344-2.16406 3.3086-5 4.58204-6.51172 1.26953-1.50781 3.30859-3.39062 4.57812-4.36328s3.3086-2.09375 4.57813-2.64844c1.27344-.55469 3.3125-1.10156 4.58203-1.35937 1.26953-.25782 3.3086-.42188 4.57813-.5 1.27344-.07813 3.3086-.05079 4.58203-.07032 1.26953-.02343 3.3086.00782 4.57813-.07422 1.26953-.07812 3.3086-.24218 4.57813-.5 1.27343-.2578 3.3086-.80468 4.58203-1.35937 1.26953-.55469 3.3086-1.67578 4.57813-2.64844s3.3086-2.85547 4.57812-4.36328c1.27344-1.51172 3.3086-4.34766 4.58204-6.51173 1.26953-2.16406 3.3086-6.14843 4.57812-9.08984 1.26954-2.9375 3.3086-8.25782 4.57813-12.08985 1.27344-3.83203 3.3125-10.6836 4.58203-15.52735 1.26954-4.84766 3.3086-13.41798 4.57813-19.39454 1.27344-5.97657 3.3086-16.45704 4.58203-23.6836 1.26954-7.22657 4.57813-28.40627 4.57813-28.40627"/></g><g clip-path="url(#o)"><path fill="none" stroke="#ff7f00" stroke-miterlimit="10" stroke-width=".79237" d="M.3945 92.44533s3.3086-6.35547 4.58204-8.52344c1.26953-2.16797 3.3086-5.3125 4.57813-7.10547S12.86327 72.45313 14.13279 71c1.27344-1.45313 3.3086-3.50782 4.58204-4.66016 1.26953-1.14844 3.3086-2.7461 4.57813-3.62891 1.26953-.8789 3.30859-2.07422 4.57812-2.72266 1.27344-.65234 3.3086-1.5039 4.58204-1.95312 1.26953-.45313 3.30859-1.01953 4.57812-1.3125s3.3086-.625 4.57813-.79297c1.27344-.16797 3.3125-.33203 4.58203-.41016 1.26953-.07422 3.3086-.125 4.57813-.14844 1.27344-.02343 3.3086-.01562 4.58203-.01953 1.26953-.00781 3.3086 0 4.57813-.02343s3.3086-.07422 4.57813-.14844c1.27343-.07813 3.3086-.24219 4.58203-.41016 1.26953-.16406 3.3086-.5 4.57813-.79297s3.3086-.85547 4.57812-1.3086c1.27344-.45312 3.3086-1.30468 4.58204-1.95312 1.26953-.65234 3.3086-1.84766 4.57812-2.72656 1.26954-.88281 3.3086-2.48047 4.57813-3.62891 1.27344-1.14844 3.3125-3.20313 4.58203-4.66016 1.26954-1.45312 3.3086-4.02344 4.57813-5.8164 1.27344-1.79298 3.3086-4.9375 4.58203-7.10548 1.26954-2.16797 4.57813-8.52344 4.57813-8.52344"/></g><use xlink:href="#h" x="59.89926" y="64.22493" fill="#ff7f00"/><g fill="#ff7f00"><use xlink:href="#p" x="65.31972" y="64.22493"/><use xlink:href="#q" x="68.99583" y="64.22493"/><use xlink:href="#r" x="72.10539" y="64.22493"/><use xlink:href="#s" x="74.18487" y="64.22493"/><use xlink:href="#r" x="75.94245" y="64.22493"/></g></svg>