<svg xmlns="http://www.w3.org/2000/svg" xmlns:xlink="http://www.w3.org/1999/xlink" width="227.569pt" height="340.954pt" viewBox="0 0 227.569 340.954"><defs><path id="b" d="M1.4375-4.26562h9.25V-5.25h-9.25Zm0 0"/><path id="c" d="M1.82813 0h5.53125v-.48437l-1.42188-.125c-.34375-.03126-.54687-.15626-.54687-.82813v-9.92187l-.09375-.07813-3.46875.59375v.40625l1.57812.1875c.28125.04688.39063.17188.39063.65625v8.15625c0 .67188-.15625.79688-.5625.82813l-1.40625.125Zm0 0"/><path id="d" d="M.45313-.15625.625 0h6.96875l.57813-2.21875-.46875-.09375C7.34375-1.39062 7-1.26562 6.32813-1.26562h-4.3125c.28125-.89063 1.28125-2.07813 2.84375-3.20313 1.60937-1.1875 2.85937-1.9375 2.85937-3.82812 0-2.34375-1.5625-3.14063-3.32812-3.14063-2.3125 0-3.5 1.39063-3.5 2.26563 0 .57812.65625.84375.9375.84375.29687 0 .40625-.17188.48437-.46875.26563-1.14063.92188-2.04688 1.96875-2.04688 1.28125 0 1.65625 1.0625 1.65625 2.29688 0 1.8125-.90625 2.82812-2.375 4.125C1.48438-2.60937.76563-1.46875.45313-.15625m0 0"/><path id="e" d="M.45313-1.71875C.45313-1 1.60938.20313 4 .20313c2.42188 0 3.96875-1.23438 3.96875-3.39063 0-2.25-1.9375-2.92187-2.85937-3.01562v-.0625c.90625-.14063 2.35937-.82813 2.35937-2.48438 0-1.875-1.45312-2.6875-3.26562-2.6875-2.21875 0-3.3125 1.28125-3.3125 2 0 .51563.59375.8125.82812.8125.21875 0 .34375-.125.40625-.34375.375-1.14062 1.01563-1.875 1.95313-1.875 1.32812 0 1.67187 1.15625 1.67187 2.10938 0 1-.35937 2.26562-1.79687 2.26562-.79688 0-1.26563-.15625-1.46875-.15625-.20313 0-.29688.15625-.29688.46875 0 .28125.09375.46875.29688.46875s.67187-.17187 1.46875-.17187c1.4375 0 2.25 1.29687 2.25 2.76562 0 2-1 2.70313-2.1875 2.70313-1.10938 0-1.84375-.82813-2.17188-1.78125-.10937-.3125-.26562-.48438-.5-.48438-.3125 0-.89062.32813-.89062.9375m0 0"/><path id="f" d="M.70313-5.625c0 3.375.98437 5.82813 3.75 5.82813C7.23438.20313 8.23438-2.25 8.23438-5.625c0-3.35937-1-5.8125-3.78125-5.8125-2.76563 0-3.75 2.45313-3.75 5.8125m1.70312 0c0-2.73437.45313-5.21875 2.04688-5.21875s2.0625 2.48438 2.0625 5.21875-.46875 5.23438-2.0625 5.23438-2.04688-2.5-2.04688-5.23438m0 0"/><path id="k" d="M.60938-9.32812c0 1.625 1.64062 2.92187 5.375 2.92187C5.375-5.3125 4.90625-4.17187 4.90625-2.9375c0 2.04688 1.29688 3.15625 3.64063 3.15625 2.29687 0 4.6875-1.65625 4.6875-3.78125 0-1.26562-1.0625-1.96875-2.39063-1.96875-1.46875 0-3.20312 1.65625-3.20312 2.96875 0 .39063.29687 1.15625.85937 1.15625.15625 0 .375-.125.375-.29687 0-.25-.4375-.26563-.4375-.84375 0-.92188 1.32813-2.39063 2.40625-2.39063.75 0 1.20313.29688 1.20313 1.03125 0 1.65625-1.57813 3.53125-3.5 3.53125C7.20313-.375 6.5-1.10937 6.5-2.34375c0-1.39062.98438-3.03125 1.71875-4.21875 4.15625-.64062 8.23438-2.6875 8.23438-5.29687 0-.98438-.79688-1.64063-1.875-1.64063-2.46875 0-6.1875 3.15625-8.23438 6.4375-1.6875-.01562-4.4375-.0625-4.4375-2.04687 0-1.82813 2.23438-3.25 3.625-3.25.25 0 .39063-.15625.39063-.3125s-.14063-.28125-.29688-.28125c-2.07812 0-5.01562 1.42187-5.01562 3.625m7.98437 2.03125c1.375-2.40625 4.28125-5.60938 5.98438-5.60938.65625 0 1.10937.375 1.10937.98438 0 2.09375-3.28125 4-7.09375 4.625m0 0"/><path id="l" d="M-.28125 2.35938c.01563.45312.57813.79687 1.28125.79687 1.35938 0 2-1.07812 2.53125-3.54687L4.76563-5.875h1.64062l.14063-.54687H4.84375L5.23438-8C5.45313-8.875 5.6875-9.21875 6-9.21875s.53125.25.82813.92188c.09375.14062.20312.26562.42187.26562.3125 0 .71875-.26562.71875-.625 0-.57812-.73437-1.04687-1.59375-1.04687-1.64062 0-2.3125 1.1875-2.78125 2.85937l-.125.42188h-1.125l-.17187.54687h1.17187L1.8125 1.89063c-.125.67187-.25.76562-.375.76562-.14062 0-.35937-.125-.6875-.67187-.09375-.125-.1875-.3125-.39062-.3125-.3125 0-.64063.32812-.64063.6875m0 0"/><clipPath id="a"><path d="M0 .30078h227v340.3086H0Zm0 0"/></clipPath><clipPath id="g"><path d="M209 186h18.14063v26H209Zm0 0"/></clipPath><clipPath id="h"><path d="M84 6h2v334.60938h-2Zm0 0"/></clipPath><clipPath id="i"><path d="M72 .30078h26V19H72Zm0 0"/></clipPath><clipPath id="j"><path d="M.39844.69531h226.34375v339.51563H.39844Zm0 0"/></clipPath></defs><g clip-path="url(#a)"><path fill="none" stroke="#000" stroke-miterlimit="10" stroke-opacity=".5" stroke-width=".39775" d="M.3984 311.918h226.34384M.3984 255.33206h226.34383M.3984 198.7461h226.34383M.3984 142.16014h226.34383M.3984 85.57418h226.34383M.3984 28.98822h226.34383M28.69139 340.211V.69524M85.27734 340.211V.69524M141.8633 340.211V.69524M198.44926 340.211V.69524"/></g><path fill="none" stroke="#000" stroke-miterlimit="10" stroke-opacity=".5" stroke-width=".39775" d="M28.69139 184.60156v28.29298"/><g fill-opacity=".5"><use xlink:href="#b" x="18.18356" y="218.61184"/><use xlink:href="#c" x="30.28319" y="218.61184"/></g><path fill="none" stroke="#000" stroke-miterlimit="10" stroke-opacity=".5" stroke-width=".39775" d="M141.8633 184.60156v28.29298"/><use xlink:href="#c" x="137.40476" y="218.61184" fill-opacity=".5"/><path fill="none" stroke="#000" stroke-miterlimit="10" stroke-opacity=".5" stroke-width=".39775" d="M198.44926 184.60156v28.29298"/><use xlink:href="#d" x="193.9906" y="218.61184" fill-opacity=".5"/><path fill="none" stroke="#000" stroke-miterlimit="10" stroke-opacity=".5" stroke-width=".39775" d="M99.42188 311.918H71.1289"/><g fill-opacity=".5"><use xlink:href="#b" x="54.9639" y="317.63729"/><use xlink:href="#d" x="67.06353" y="317.63729"/></g><path fill="none" stroke="#000" stroke-miterlimit="10" stroke-opacity=".5" stroke-width=".39775" d="M99.42188 255.33205H71.1289"/><g fill-opacity=".5"><use xlink:href="#b" x="54.9639" y="261.05146"/><use xlink:href="#c" x="67.06353" y="261.05146"/></g><path fill="none" stroke="#000" stroke-miterlimit="10" stroke-opacity=".5" stroke-width=".39775" d="M99.42188 142.16014H71.1289"/><use xlink:href="#c" x="61.01444" y="147.8798" fill-opacity=".5"/><path fill="none" stroke="#000" stroke-miterlimit="10" stroke-opacity=".5" stroke-width=".39775" d="M99.42188 85.57418H71.1289"/><use xlink:href="#d" x="61.01444" y="91.29397" fill-opacity=".5"/><path fill="none" stroke="#000" stroke-miterlimit="10" stroke-opacity=".5" stroke-width=".39775" d="M99.42188 28.98822H71.1289"/><use xlink:href="#e" x="61.01444" y="34.61032" fill-opacity=".5"/><path fill="none" stroke="#000" stroke-miterlimit="10" stroke-opacity=".5" stroke-width=".39775" d="M85.27734 184.60156v28.29298"/><use xlink:href="#f" x="61.01444" y="224.1723" fill-opacity=".5"/><path fill="none" stroke="#000" stroke-miterlimit="10" stroke-width=".7955" d="M.3984 198.7461h220.17977"/><path d="M224.73438 198.7461c-.51172-.10548-2.75391-.70704-4.15625-1.35938v2.72266c1.40234-.65625 3.64453-1.25782 4.15625-1.36329m0 0"/><g clip-path="url(#g)"><path fill="none" stroke="#000" stroke-miterlimit="10" stroke-width=".7955" d="M224.73438 198.7461c-.51172-.10547-2.75391-.70704-4.15625-1.35938v2.72266c1.40234-.65625 3.64453-1.25782 4.15625-1.36329Zm0 0"/></g><g clip-path="url(#h)"><path fill="none" stroke="#000" stroke-miterlimit="10" stroke-width=".7955" d="M85.27734 340.21099V6.8593"/></g><path d="M85.27734 2.70313c-.10546.51171-.70703 2.7539-1.36328 4.15625h2.72266c-.65234-1.40235-1.2539-3.64454-1.35938-4.15625m0 0"/><g clip-path="url(#i)"><path fill="none" stroke="#000" stroke-miterlimit="10" stroke-width=".7955" d="M85.27734 2.70312c-.10546.51172-.70703 2.75391-1.36328 4.15626h2.72266c-.65235-1.40235-1.2539-3.64454-1.35938-4.15626Zm0 0"/></g><g clip-path="url(#j)"><path fill="none" stroke="#007F7F" stroke-miterlimit="10" stroke-width=".7955" d="M.3984 396.80085s6.81251-62.21096 9.4297-82.78128c2.61719-20.57422 6.8125-49.50002 9.42969-65.4922 2.61719-15.9922 6.8125-37.9219 9.42969-49.77346 2.61719-11.84766 6.8125-27.4883 9.4297-35.62892 2.61718-8.14454 6.8164-18.1875 9.43359-23.0586s6.8125-10.01563 9.42969-12.05079 6.8125-2.98828 9.42969-2.625 6.8125 2.91016 9.42969 5.23828c2.61719 2.32422 6.8164 7.67188 9.4297 11.52344 2.61718 3.85157 6.8164 11.29688 9.43359 16.2383 2.61719 4.9453 6.8125 13.78515 9.42969 19.38281s6.8125 15.14063 9.42969 20.95704 6.8125 15.35938 9.42969 20.95704 6.8164 14.44141 9.4297 19.38672c2.61718 4.94532 6.8164 12.39063 9.43359 16.2461s6.8125 9.20313 9.42969 11.53126 6.8125 4.88281 9.42969 5.2461c2.61719.36718 6.8125-.57813 9.4297-2.60938 2.61718-2.03516 6.8164-7.17188 9.43359-12.03907 2.61328-4.86719 6.8125-14.90235 9.42969-23.03907s6.8125-23.76563 9.42969-35.60939 6.8125-33.76563 9.4297-49.75392c2.61718-15.98438 6.8125-44.89846 9.42968-65.46487 2.61719-20.56641 9.4336-82.75393 9.4336-82.75393"/></g><use xlink:href="#k" x="120.9659" y="219.61394" fill="#007F7F"/><use xlink:href="#l" x="136.21901" y="223.98765" fill="#007F7F"/></svg>