<svg xmlns="http://www.w3.org/2000/svg" xmlns:xlink="http://www.w3.org/1999/xlink" width="227.569pt" height="170.876pt" viewBox="0 0 227.569 170.876"><defs><path id="b" d="M1.4375-4.26562h9.25V-5.25h-9.25Zm0 0"/><path id="c" d="M1.82813 0h5.53125v-.48437l-1.42188-.125c-.34375-.03126-.54687-.15626-.54687-.82813v-9.92187l-.09375-.07813-3.46875.59375v.40625l1.57812.1875c.28125.04688.39063.17188.39063.65625v8.15625c0 .67188-.15625.79688-.5625.82813l-1.40625.125Zm0 0"/><path id="d" d="M.45313-.15625.625 0h6.96875l.57813-2.21875-.46875-.09375C7.34375-1.39062 7-1.26562 6.32813-1.26562h-4.3125c.28125-.89063 1.28125-2.07813 2.84375-3.20313 1.60937-1.1875 2.85937-1.9375 2.85937-3.82812 0-2.34375-1.5625-3.14063-3.32812-3.14063-2.3125 0-3.5 1.39063-3.5 2.26563 0 .57812.65625.84375.9375.84375.29687 0 .40625-.17188.48437-.46875.26563-1.14063.92188-2.04688 1.96875-2.04688 1.28125 0 1.65625 1.0625 1.65625 2.29688 0 1.8125-.90625 2.82812-2.375 4.125C1.48438-2.60937.76563-1.46875.45313-.15625m0 0"/><path id="e" d="M.70313-5.625c0 3.375.98437 5.82813 3.75 5.82813C7.23438.20313 8.23438-2.25 8.23438-5.625c0-3.35937-1-5.8125-3.78125-5.8125-2.76563 0-3.75 2.45313-3.75 5.8125m1.70312 0c0-2.73437.45313-5.21875 2.04688-5.21875s2.0625 2.48438 2.0625 5.21875-.46875 5.23438-2.0625 5.23438-2.04688-2.5-2.04688-5.23438m0 0"/><path id="j" d="M.60938-9.32812c0 1.625 1.64062 2.92187 5.375 2.92187C5.375-5.3125 4.90625-4.17187 4.90625-2.9375c0 2.04688 1.29688 3.15625 3.64063 3.15625 2.29687 0 4.6875-1.65625 4.6875-3.78125 0-1.26562-1.0625-1.96875-2.39063-1.96875-1.46875 0-3.20312 1.65625-3.20312 2.96875 0 .39063.29687 1.15625.85937 1.15625.15625 0 .375-.125.375-.29687 0-.25-.4375-.26563-.4375-.84375 0-.92188 1.32813-2.39063 2.40625-2.39063.75 0 1.20313.29688 1.20313 1.03125 0 1.65625-1.57813 3.53125-3.5 3.53125C7.20313-.375 6.5-1.10937 6.5-2.34375c0-1.39062.98438-3.03125 1.71875-4.21875 4.15625-.64062 8.23438-2.6875 8.23438-5.29687 0-.98438-.79688-1.64063-1.875-1.64063-2.46875 0-6.1875 3.15625-8.23438 6.4375-1.6875-.01562-4.4375-.0625-4.4375-2.04687 0-1.82813 2.23438-3.25 3.625-3.25.25 0 .39063-.15625.39063-.3125s-.14063-.28125-.29688-.28125c-2.07812 0-5.01562 1.42187-5.01562 3.625m7.98437 2.03125c1.375-2.40625 4.28125-5.60938 5.98438-5.60938.65625 0 1.10937.375 1.10937.98438 0 2.09375-3.28125 4-7.09375 4.625m0 0"/><path id="l" d="m2.70313-2.03125.78125.78125 3.23437-3.26562L9.98438-1.25l.75-.78125L7.5-5.26562l3.23438-3.26563-.75-.75-3.26563 3.23438-3.23437-3.23438-.78125.75 3.26562 3.26563Zm0 0"/><path id="m" d="M.59375-.73437c0 .53125.4375.95312 1.20313.95312 1.26562 0 1.98437-1.26562 2.76562-2.53125l.75-1.23437h.03125L5.6875-2.0625C6.04688-.57812 6.39063.21875 7.34375.21875c1.375 0 2.07813-1.40625 2.64063-2.54687l-.48438-.25C9.04688-1.75 8.53125-.75 8.01563-.75c-.35938 0-.5-.42187-.92188-2.09375L6.5-5.29687c.6875-1.1875 1.64063-2.67188 2.17188-2.67188.5625 0 .57812.29688 1.14062.29688.40625 0 .79688-.40625.79688-.90625 0-.57813-.4375-.8125-.96875-.8125-.98438 0-1.82813.89062-2.48438 1.95312l-.8125 1.26563H6.3125L5.54688-9.3125l-.09375-.07812-3.09375.9375L2.40625-8 3.875-8.09375c.29688 0 .4375.14063.625.9375l.65625 2.70313-.51562.89062c-.79688 1.375-1.5 2.34375-1.95313 2.34375-.54687 0-.67187-.45312-1.28125-.45312-.46875 0-.8125.48437-.8125.9375m0 0"/><path id="k" d="M-.28125 2.35938c.01563.45312.57813.79687 1.28125.79687 1.35938 0 2-1.07812 2.53125-3.54687L4.76563-5.875h1.64062l.14063-.54687H4.84375L5.23438-8C5.45313-8.875 5.6875-9.21875 6-9.21875s.53125.25.82813.92188c.09375.14062.20312.26562.42187.26562.3125 0 .71875-.26562.71875-.625 0-.57812-.73437-1.04687-1.59375-1.04687-1.64062 0-2.3125 1.1875-2.78125 2.85937l-.125.42188h-1.125l-.17187.54687h1.17187L1.8125 1.89063c-.125.67187-.25.76562-.375.76562-.14062 0-.35937-.125-.6875-.67187-.09375-.125-.1875-.3125-.39062-.3125-.3125 0-.64063.32812-.64063.6875m0 0"/><path id="n" d="M1.42188 0H5.8125v-.40625L4.76563-.5c-.29688-.03125-.4375-.125-.4375-.60937v-7.71875L4.25-8.89062l-2.8125.46875v.34375l1.125.15625c.25.04687.32813.14062.32813.54687v6.26563c0 .48437-.125.57812-.42188.60937l-1.04687.09375Zm0 0"/><path id="o" d="M.375-.15625.53125 0H6.0625l.48438-1.85937-.39063-.07813c-.3125.70313-.54687.79688-1.07812.79688H1.73438c.21874-.625.90625-1.5 2.17187-2.35938C5.23438-4.39062 6.1875-5 6.1875-6.4375c0-1.8125-1.25-2.45312-2.6875-2.45312-1.78125 0-2.79687 1.03125-2.79687 1.8125 0 .48437.53125.70312.8125.70312.25 0 .375-.14062.4375-.39062.20312-.92188.6875-1.64063 1.45312-1.64063.92188 0 1.21875.79688 1.21875 1.73438 0 1.26562-.57812 2.10937-1.79687 3.15625C1.15625-2.07812.57813-1.125.375-.15625m0 0"/><path id="p" d="M.35938-1.39062c0 .54687.85937 1.54687 2.84375 1.54687 1.95312 0 3.15625-.95312 3.15625-2.625 0-1.78125-1.54688-2.25-2.20313-2.32812v-.04688c.70313-.125 1.82813-.64062 1.82813-1.92187 0-1.53125-1.25-2.125-2.64063-2.125-1.67187 0-2.64062.92187-2.64062 1.59375 0 .45312.51562.6875.73437.6875.1875 0 .29688-.125.375-.32813.29688-.92187.73438-1.46875 1.4375-1.46875.98438 0 1.21875.92188 1.21875 1.60938 0 .70312-.21875 1.76562-1.29687 1.76562-.59375 0-.98438-.14062-1.1875-.14062-.1875 0-.26563.15625-.26563.40625s.07813.40625.26563.40625c.20312 0 .59375-.14063 1.1875-.14063 1 0 1.625.84375 1.625 2.09375 0 1.5-.6875 2.07813-1.57813 2.07813-.79687 0-1.34375-.60938-1.625-1.45313-.07812-.25-.21875-.39062-.42187-.39062-.29688 0-.8125.28125-.8125.78125m0 0"/><clipPath id="a"><path d="M0 .10156h227v170.55078H0Zm0 0"/></clipPath><clipPath id="f"><path d="M209 72h18.14063v26H209Zm0 0"/></clipPath><clipPath id="g"><path d="M84 6h2v164.65234h-2Zm0 0"/></clipPath><clipPath id="h"><path d="M72 .10156h26V18H72Zm0 0"/></clipPath><clipPath id="i"><path d="M.39844.4961h226.34375v169.7578H.39844Zm0 0"/></clipPath></defs><g clip-path="url(#a)"><path fill="none" stroke="#000" stroke-miterlimit="10" stroke-opacity=".5" stroke-width=".39775" d="M.3984 141.96096h226.34384M.3984 85.375h226.34383M.3984 28.78904h226.34383M28.69139 170.25394V.49606m56.58595 169.75788V.49606m56.58596 169.75788V.49606m56.58596 169.75788V.49606"/></g><path fill="none" stroke="#000" stroke-miterlimit="10" stroke-opacity=".5" stroke-width=".39775" d="M28.69139 71.23046v28.29298"/><g fill-opacity=".5"><use xlink:href="#b" x="18.18356" y="105.24149"/><use xlink:href="#c" x="30.28319" y="105.24149"/></g><path fill="none" stroke="#000" stroke-miterlimit="10" stroke-opacity=".5" stroke-width=".39775" d="M141.8633 71.23046v28.29298"/><use xlink:href="#c" x="137.40476" y="105.24149" fill-opacity=".5"/><path fill="none" stroke="#000" stroke-miterlimit="10" stroke-opacity=".5" stroke-width=".39775" d="M198.44926 71.23046v28.29298"/><use xlink:href="#d" x="193.9906" y="105.24149" fill-opacity=".5"/><path fill="none" stroke="#000" stroke-miterlimit="10" stroke-opacity=".5" stroke-width=".39775" d="M99.42188 141.96096H71.1289"/><g fill-opacity=".5"><use xlink:href="#b" x="54.9639" y="147.68112"/><use xlink:href="#c" x="67.06353" y="147.68112"/></g><path fill="none" stroke="#000" stroke-miterlimit="10" stroke-opacity=".5" stroke-width=".39775" d="M99.42188 28.78904H71.1289"/><use xlink:href="#c" x="61.01444" y="34.50946" fill-opacity=".5"/><path fill="none" stroke="#000" stroke-miterlimit="10" stroke-opacity=".5" stroke-width=".39775" d="M85.27734 71.23046v28.29298"/><use xlink:href="#e" x="61.01444" y="110.80196" fill-opacity=".5"/><path fill="none" stroke="#000" stroke-miterlimit="10" stroke-width=".7955" d="M.3984 85.375h220.17977"/><path d="M224.73438 85.375c-.51172-.10547-2.75391-.70703-4.15625-1.35937v2.72265c1.40234-.65625 3.64453-1.25781 4.15625-1.36328m0 0"/><g clip-path="url(#f)"><path fill="none" stroke="#000" stroke-miterlimit="10" stroke-width=".7955" d="M224.73438 85.375c-.51172-.10547-2.75391-.70703-4.15625-1.35938v2.72266c1.40234-.65625 3.64453-1.25781 4.15625-1.36328Zm0 0"/></g><g clip-path="url(#g)"><path fill="none" stroke="#000" stroke-miterlimit="10" stroke-width=".7955" d="M85.27734 170.25394V6.66013"/></g><path d="M85.27734 2.5039c-.10546.51173-.70703 2.75391-1.36328 4.15626h2.72266c-.65234-1.40235-1.2539-3.64454-1.35938-4.15625m0 0"/><g clip-path="url(#h)"><path fill="none" stroke="#000" stroke-miterlimit="10" stroke-width=".7955" d="M85.27734 2.5039c-.10546.51172-.70703 2.75391-1.36328 4.15626h2.72266c-.65235-1.40235-1.2539-3.64454-1.35938-4.15625Zm0 0"/></g><g clip-path="url(#i)"><path fill="none" stroke="#007F7F" stroke-miterlimit="10" stroke-width=".7955" d="M.3984 297.5743s6.81251-49.27737 9.4297-65.48831 6.8125-38.84376 9.42969-51.34768c2.61719-12.5039 6.8125-29.53907 9.42969-38.76954 2.61719-9.23438 6.8125-21.375 9.4297-27.77345 2.61718-6.39453 6.8164-14.33985 9.43359-18.33594 2.61719-4 6.8125-8.44532 9.42969-10.48047 2.61719-2.03516 6.8125-3.6875 9.42969-4.19532s6.8125-.0586 9.42969.52344 6.8164 2.42969 9.4297 3.66797c2.61718 1.23438 6.8164 3.78516 9.43359 5.23828 2.61719 1.45313 6.8125 4 9.42969 5.23829 2.61719 1.23437 6.8125 3.08593 9.42969 3.66797 2.61719.58203 6.8125 1.03515 9.42969.52734s6.8164-2.15234 9.4297-4.1875c2.61718-2.03125 6.8164-6.47266 9.43359-10.46876s6.8125-11.9375 9.42969-18.33203c2.61719-6.39454 6.8125-18.52735 9.42969-27.75392 2.61719-9.23047 6.8125-26.26173 9.4297-38.75783 2.61718-12.5 6.8164-35.125 9.43359-51.32814 2.61328-16.20703 6.8125-45.12501 9.42969-65.47268s6.8125-56.26174 9.42969-81.18753 6.8125-68.53127 9.4297-98.47269c2.61718-29.94141 6.8125-81.93753 9.42968-117.33207 2.61719-35.39064 9.4336-137.75786 9.4336-137.75786"/></g><use xlink:href="#j" x="172.43043" y="25.85884" fill="#007F7F"/><use xlink:href="#k" x="187.68354" y="30.23455" fill="#007F7F"/><use xlink:href="#l" x="50.26181" y="90.02032" fill="#EC008C"/><use xlink:href="#m" x="47.3593" y="73.97471" fill="#EC008C"/><use xlink:href="#n" x="58.35648" y="78.35042" fill="#EC008C"/><use xlink:href="#l" x="78.55422" y="90.02032" fill="#EC008C"/><use xlink:href="#m" x="75.65172" y="73.97471" fill="#EC008C"/><use xlink:href="#o" x="86.64889" y="78.35042" fill="#EC008C"/><use xlink:href="#l" x="135.14005" y="90.02032" fill="#EC008C"/><use xlink:href="#m" x="132.23755" y="73.822" fill="#EC008C"/><use xlink:href="#p" x="143.23472" y="78.19572" fill="#EC008C"/></svg>