<svg xmlns="http://www.w3.org/2000/svg" xmlns:xlink="http://www.w3.org/1999/xlink" width="148.199pt" height="111.348pt" viewBox="0 0 148.199 111.348"><defs><path id="b" d="M.5-4.04687C.5-1.625 1.20313.14063 3.20313.14063S5.92188-1.625 5.92188-4.04687s-.71875-4.1875-2.71875-4.1875S.5-6.46875.5-4.04687m1.21875 0c0-1.96875.34375-3.75 1.48438-3.75 1.15625 0 1.48437 1.78125 1.48437 3.75S4.35938-.28125 3.20313-.28125c-1.14063 0-1.48438-1.79687-1.48438-3.76562m0 0"/><path id="j" d="M.40625-6.03125c0 1.04688 1.04688 1.89063 3.46875 1.89063-.40625.70312-.6875 1.4375-.6875 2.23437 0 1.32813.82813 2.04688 2.34375 2.04688 1.48438 0 3.03125-1.0625 3.03125-2.4375 0-.82813-.6875-1.28125-1.54687-1.28125-.95313 0-2.07813 1.0625-2.07813 1.92187 0 .25.20313.73438.5625.73438.09375 0 .25-.0625.25-.1875 0-.15626-.29687-.17188-.29687-.53125 0-.59375.875-1.54688 1.5625-1.54688.48437 0 .78125.1875.78125.65625C7.79688-1.45312 6.76563-.25 5.53125-.25c-.875 0-1.32812-.46875-1.32812-1.26562 0-.90625.64062-1.95313 1.10937-2.73438 2.70313-.40625 5.32813-1.73437 5.32813-3.42187 0-.64063-.51563-1.0625-1.20313-1.0625-1.59375 0-4 2.04687-5.32812 4.15625-1.09375 0-2.875-.03125-2.875-1.3125C1.23438-7.07812 2.67188-8 3.57813-8c.17187 0 .26562-.09375.26562-.20312 0-.09375-.09375-.17188-.20312-.17188-1.34375 0-3.23438.90625-3.23438 2.34375m5.15625 1.3125c.89063-1.5625 2.76563-3.64062 3.875-3.64062.42188 0 .71875.25.71875.64062 0 1.35938-2.125 2.59375-4.59375 3m0 0"/><path id="l" d="m1.75-1.3125.5.5 2.10938-2.10937L6.46875-.8125l.48438-.5-2.09375-2.09375 2.09375-2.10937-.48438-.5-2.10937 2.10937L2.25-6.01562l-.5.5 2.10938 2.10937Zm0 0"/><path id="m" d="M.39063-.46875c0 .34375.28125.60938.76562.60938.82813 0 1.29688-.82813 1.79688-1.64063l.48437-.79687h.03125l.21875.95312C3.90625-.375 4.14063.14063 4.75.14063c.89063 0 1.35938-.90625 1.71875-1.64063l-.3125-.17187c-.29687.53125-.64062 1.1875-.96875 1.1875-.23437 0-.32812-.28125-.59375-1.35938l-.39062-1.57812c.4375-.78125 1.0625-1.73438 1.40625-1.73438.35937 0 .375.1875.73437.1875.28125 0 .51563-.26562.51563-.57812 0-.375-.28125-.53125-.60938-.53125-.65625 0-1.1875.57812-1.60937 1.26562l-.53125.82813h-.03125l-.48438-2.04688-.0625-.04687-2 .60937.03125.29688.95313-.0625c.1875 0 .28125.07812.39062.59375l.42188 1.75L3-2.29687c-.51562.875-.96875 1.51562-1.26562 1.51562-.34375 0-.4375-.29687-.8125-.29687-.3125 0-.53125.3125-.53125.60937m0 0"/><path id="c" d="M.92188-2.76562h6v-.625h-6Zm0 0"/><path id="d" d="M1.1875 0h3.57813v-.3125l-.92188-.07812C3.625-.42187 3.48438-.5 3.48438-.92187v-6.42188l-.04688-.0625-2.25.375v.26563l1.01563.14062c.1875.01563.25.09375.25.40625v5.29688c0 .42187-.09375.5-.35938.53125L1.1875-.3125Zm0 0"/><path id="e" d="M.29688-.10937.40625 0h4.51563l.35937-1.4375L4.98438-1.5c-.23438.59375-.45313.67188-.89063.67188H1.3125c.17188-.5625.82813-1.34375 1.82813-2.07813C4.1875-3.65625 5-4.15625 5-5.375c0-1.51562-1.01562-2.03125-2.15625-2.03125-1.5 0-2.26562.90625-2.26562 1.46875 0 .375.42187.54688.60937.54688S1.45313-5.5 1.5-5.6875c.17188-.75.59375-1.34375 1.26563-1.34375.84375 0 1.07812.70313 1.07812 1.5 0 1.17188-.57812 1.82813-1.53125 2.67188C.96875-1.6875.5-.95312.29688-.10937m0 0"/><path id="k" d="M-.1875 1.53125c.01563.29688.375.51563.84375.51563.875 0 1.28125-.70313 1.64063-2.29688l.78125-3.54687h1.0625l.09375-.35938H3.14063l.25-1.03125c.14062-.5625.28125-.78125.5-.78125.1875 0 .34375.15625.53125.59375.0625.09375.125.17188.28125.17188.1875 0 .45312-.17188.45312-.40625 0-.375-.46875-.67188-1.03125-.67188-1.0625 0-1.5.76563-1.79687 1.84375L2.25-4.15625h-.73437l-.10938.35938h.75l-.98437 5.01562c-.07813.4375-.15626.5-.25.5-.07813 0-.21876-.07812-.4375-.42187-.0625-.09376-.125-.21876-.25-.21876-.20313 0-.42188.21876-.42188.45313m0 0"/><path id="n" d="M.92188 0h2.84375v-.26562l-.6875-.0625c-.1875-.01563-.28125-.07813-.28125-.39063v-5L2.75-5.76562l-1.82812.3125v.21875l.73437.10937c.17188.01563.21875.07813.21875.34375v4.0625c0 .3125-.07812.375-.28125.39063l-.67187.0625Zm0 0"/><path id="o" d="M.25-.09375.34375 0H3.9375l.29688-1.20312-.25-.04688c-.20313.45313-.34375.51563-.6875.51563H1.125c.14063-.40625.59375-.98438 1.40625-1.53125C3.39063-2.84375 4-3.23437 4-4.17187c0-1.17188-.79687-1.59375-1.73437-1.59375-1.15625 0-1.8125.67187-1.8125 1.1875 0 .3125.34375.45312.53125.45312.15624 0 .23437-.09375.28124-.25.125-.60937.45313-1.07812.9375-1.07812C2.79688-5.45312 3-4.9375 3-4.3125 3-3.5 2.625-2.95312 1.82813-2.26562.75-1.34375.375-.73437.25-.09375m0 0"/><path id="p" d="M.23438-.90625c0 .35938.5625 1 1.84375 1 1.25 0 2.04687-.60937 2.04687-1.6875 0-1.15625-1-1.46875-1.4375-1.5v-.04687C3.14063-3.21875 3.875-3.54687 3.875-4.375c0-1-.8125-1.39062-1.71875-1.39062-1.07812 0-1.70312.60937-1.70312 1.04687 0 .28125.32812.4375.46875.4375s.20312-.07812.25-.20312c.1875-.59375.48437-.96875.9375-.96875.625 0 .78125.60937.78125 1.04687C2.89063-3.95312 2.75-3.25 2.0625-3.25c-.39062 0-.64062-.09375-.76562-.09375-.14063 0-.17188.09375-.17188.26563 0 .15625.03125.25.17188.25.125 0 .375-.07813.76562-.07813.64063 0 1.04688.53125 1.04688 1.34375 0 .96875-.45313 1.34375-1.03125 1.34375-.51563 0-.85938-.39062-1.04688-.9375-.04687-.15625-.14062-.25-.28125-.25-.1875 0-.51562.1875-.51562.5m0 0"/><clipPath id="a"><path d="M.03125 0h147.33984v110.69922H.03125Zm0 0"/></clipPath><clipPath id="f"><path d="M.03125 54H142v2H.03125Zm0 0"/></clipPath><clipPath id="g"><path d="M129 42h18.3711v26H129Zm0 0"/></clipPath><clipPath id="h"><path d="M54 6h2v104.69922h-2Zm0 0"/></clipPath><clipPath id="i"><path d="M.42969.39453h146.54297V110.3047H.42969Zm0 0"/></clipPath></defs><g clip-path="url(#a)"><path fill="none" stroke="#7f7f7f" stroke-dasharray=".39618073 .9904816504" stroke-miterlimit="10" stroke-width=".39618" d="M.42966 91.9844H146.9727M.42966 55.35155H146.9727M.42966 18.71483H146.9727M18.74608 110.3047V.39451M55.3828 110.3047V.39451m36.63674 109.9102V.39451m36.63673 109.9102V.39451"/></g><use xlink:href="#b" x="39.35395" y="72.21514" fill="#7f7f7f"/><path fill="none" stroke="#7f7f7f" stroke-miterlimit="10" stroke-width=".39618" d="M18.74608 46.1914v18.31642"/><g fill="#7f7f7f"><use xlink:href="#c" x="11.94445" y="76.46327"/><use xlink:href="#d" x="19.77823" y="76.46327"/></g><path fill="none" stroke="#7f7f7f" stroke-miterlimit="10" stroke-width=".39618" d="M92.01955 46.1914v18.31642"/><use xlink:href="#d" x="89.13347" y="76.46327" fill="#7f7f7f"/><path fill="none" stroke="#7f7f7f" stroke-miterlimit="10" stroke-width=".39618" d="M128.65628 46.1914v18.31642"/><use xlink:href="#e" x="125.76994" y="76.46327" fill="#7f7f7f"/><g clip-path="url(#f)"><path fill="none" stroke="#000" stroke-miterlimit="10" stroke-width=".79237" d="M.42966 55.35156h140.4024"/></g><path d="M144.97266 55.35156c-.50782-.10547-2.7422-.70703-4.14063-1.35937v2.71484c1.39844-.65234 3.63281-1.25 4.14063-1.35547m0 0"/><g clip-path="url(#g)"><path fill="none" stroke="#000" stroke-miterlimit="10" stroke-width=".79237" d="M144.97266 55.35156c-.50781-.10547-2.74219-.70703-4.14063-1.35937v2.71484c1.39844-.65234 3.63282-1.25 4.14063-1.35547Zm0 0"/></g><path fill="none" stroke="#7f7f7f" stroke-miterlimit="10" stroke-width=".39618" d="M64.54297 91.9844H46.22265"/><g fill="#7f7f7f"><use xlink:href="#c" x="28.07003" y="95.6877"/><use xlink:href="#d" x="35.90381" y="95.6877"/></g><path fill="none" stroke="#7f7f7f" stroke-miterlimit="10" stroke-width=".39618" d="M64.54297 18.71483H46.22265"/><use xlink:href="#d" x="35.90415" y="22.41674" fill="#7f7f7f"/><g clip-path="url(#h)"><path fill="none" stroke="#000" stroke-miterlimit="10" stroke-width=".79237" d="M55.38281 110.30471V6.53514"/></g><path stroke="#000" stroke-miterlimit="10" stroke-width=".79237" d="M55.38281 2.39453c-.10547.51172-.70312 2.7461-1.35547 4.14063h2.71094c-.65234-1.39454-1.25-3.62891-1.35547-4.14063Zm0 0"/><g clip-path="url(#i)"><path fill="none" stroke="#007f7f" stroke-miterlimit="10" stroke-width=".79237" d="M.42966 192.73834s4.41016-31.90626 6.10547-42.40236c1.69141-10.4961 4.41016-25.14845 6.10548-33.24611 1.69531-8.09375 4.41015-19.1211 6.10547-25.10157 1.69531-5.97657 4.41016-13.83595 6.10547-17.98048 1.69531-4.14063 4.41016-9.28125 6.10547-11.8711 1.69531-2.58984 4.41016-5.46875 6.10547-6.78516 1.69532-1.3164 4.41016-2.38672 6.10547-2.71484 1.69532-.33203 4.41016-.03906 6.10547.33984 1.69532.375 4.41016 1.57031 6.10548 2.3711 1.6953.80078 4.41406 2.44922 6.10547 3.39062 1.69531.94141 4.41406 2.59375 6.10547 3.39454 1.69531.80078 4.41406 2 6.10547 2.375 1.69531.3789 4.41406.66797 6.10547.33984 1.69532-.32812 4.41407-1.39453 6.10547-2.71094 1.69532-1.3164 4.41407-4.1914 6.10938-6.77734 1.6914-2.58985 4.41016-7.72657 6.10547-11.8672 1.6914-4.14062 4.41016-11.9961 6.10547-17.97266 1.69141-5.97266 4.41016-17 6.10547-25.09376 1.69141-8.08985 4.41016-22.7383 6.10548-33.23049 1.6953-10.49219 4.41015-29.21485 6.10547-42.39064 1.69531-13.17188 4.41016-36.42189 6.10547-52.56252s4.41016-44.37111 6.10547-63.75394c1.69531-19.38672 4.41016-53.0508 6.10547-75.96487 1.69531-22.91798 6.10547-89.19145 6.10547-89.19145"/></g><use xlink:href="#j" x="114.88667" y="13.68785" fill="#007f7f"/><use xlink:href="#k" x="124.76214" y="16.52086" fill="#007f7f"/><use xlink:href="#l" x="32.71284" y="58.35629" fill="#ec008c"/><use xlink:href="#m" x="30.83384" y="47.96812" fill="#ec008c"/><use xlink:href="#n" x="37.95385" y="50.80113" fill="#ec008c"/><use xlink:href="#l" x="51.03157" y="58.35629" fill="#ec008c"/><use xlink:href="#m" x="49.15158" y="47.96812" fill="#ec008c"/><use xlink:href="#o" x="56.27288" y="50.80113" fill="#ec008c"/><use xlink:href="#l" x="87.66706" y="58.35629" fill="#ec008c"/><use xlink:href="#m" x="85.78806" y="47.8687" fill="#ec008c"/><use xlink:href="#p" x="92.90807" y="50.70172" fill="#ec008c"/></svg>