<svg xmlns="http://www.w3.org/2000/svg" xmlns:xlink="http://www.w3.org/1999/xlink" width="107.096pt" height="107.096pt" viewBox="0 0 107.096 107.096"><defs><path id="b" d="M.4375-3.48437C.4375-1.40625 1.04688.125 2.76563.125s2.34375-1.53125 2.34375-3.60937c0-2.09375-.625-3.60938-2.34375-3.60938S.4375-5.57812.4375-3.48437m1.04688 0c0-1.70313.29687-3.25 1.28125-3.25.98437 0 1.28125 1.54687 1.28125 3.25C4.04688-1.78125 3.75-.25 2.76563-.25c-.98438 0-1.28125-1.53125-1.28125-3.23437m0 0"/><path id="c" d="M.89063-2.64062H6.625V-3.25H.89063Zm0 0"/><path id="d" d="M1.14063 0H4.5625v-.29687L3.6875-.375c-.21875-.03125-.34375-.10937-.34375-.51562v-6.15625l-.0625-.04688-2.14062.35938v.25l.96875.125c.17187.03125.25.10937.25.40625v5.0625c0 .40625-.10938.48437-.34375.51562l-.875.07813Zm0 0"/><path id="h" d="M.42188-.625c0 .34375.15625.6875.5625.6875.65625 0 1.14062-.70312 1.46875-1.26562h.01562L2.29688-.625c-.03125.14063-.0625.25-.0625.34375 0 .23438.125.34375.35937.34375.5 0 .84375-.40625 1.04688-.875L3.5-.89062c-.125.21874-.35937.57812-.51562.57812-.07813 0-.09375-.04687-.09375-.10937 0-.04688.01562-.10938.03125-.1875l.60937-2.25h-.64062l-.01563.0625c-.10937-.07813-.26562-.10938-.42187-.10938C1.0625-2.90625.42188-1.39062.42188-.625m.71875-.01562c0-.625.54687-2.03125 1.34375-2.03125.125 0 .23437.03125.3125.09375-.09375.4375-.29688 1-.59375 1.46875-.3125.46875-.60938.79687-.84375.79687-.17188 0-.21876-.14062-.21876-.32812m0 0"/><path id="i" d="M.23438.5625c0 .57813.59375.84375 1.26562.84375.34375 0 .70313-.07812.98438-.23437C2.75 1 2.95313.73438 2.95313.375c0-.64062-.5-.84375-1.125-.84375h-.46875C.9375-.46875.875-.625.875-.73437c0-.15626.23438-.25.29688-.28126C1.29688-1 1.40625-1 1.46875-1c.5625 0 1.17188-.23437 1.17188-.9375 0-.23437-.07813-.4375-.17188-.54687l.46875-.07813.10938-.35937L3-2.96875l-.73437.23438c-.17188-.10938-.5-.17188-.76563-.17188-.875 0-1.1875.53125-1.1875.96875 0 .54688.35938.79688.625.85938v.01562c-.3125.125-.53125.29688-.53125.51563 0 .20312.23438.42187.5.45312v.01563C.67188 0 .23438.14063.23438.5625m.5625-.03125c0-.20312.0625-.34375.17187-.4375.14063-.09375.32813-.14062.60938-.14062.51562 0 .89062.14062.89062.5625 0 .46875-.42187.6875-.84375.6875-.48437 0-.82812-.25-.82812-.67188M.90625-1.9375c0-.57812.29688-.76562.59375-.76562s.59375.20312.59375.76562c0 .48438-.25.73438-.59375.73438-.32812 0-.59375-.25-.59375-.73438m0 0"/><path id="j" d="M.1875 0h1.53125v-.17187C1.20313-.20313 1.17188-.20313 1.17188-.5v-1.35937c0-.45313.1875-.60938.32812-.60938.09375 0 .1875.04688.35938.14063.04687.01562.07812.03125.10937.03125.14063 0 .26563-.15625.26563-.32813 0-.14062-.07813-.28125-.29688-.28125s-.39062.10938-.76562.45313l-.07813-.45313-.875.14063v.14062l.21875.03125c.14063.03125.1875.04688.1875.26563V-.5c0 .29688-.03125.29688-.4375.32813Zm0 0"/><path id="k" d="M.28125-.75c0 .42188.29688.8125.82813.8125.34375 0 .6875-.21875.875-.34375.07812.21875.17187.34375.375.34375.21875 0 .46875-.0625.6875-.17187l-.03125-.125c-.07813.01562-.21875.01562-.29688 0-.10937-.03126-.20312-.14063-.20312-.5v-1.40625c0-.34375-.07813-.76563-.95313-.76563-.65625 0-1.17187.32813-1.17187.65625 0 .1875.21875.26563.32812.26563.125 0 .15625-.0625.1875-.15626.125-.4375.35938-.5625.59375-.5625s.48438.10938.48438.57813v.23438c-.14063.15624-.70313.29687-1.15625.45312-.42188.125-.54688.40625-.54688.6875M.875-.82812c0-.28126.125-.42188.45313-.54688.23437-.07812.53125-.1875.65625-.26562v.8125c0 .46875-.35938.59375-.57813.59375C1.04688-.23437.875-.5.875-.82812m0 0"/><path id="l" d="M.1875 0h1.40625v-.17187C1.1875-.20313 1.17188-.20313 1.17188-.5v-1.35937c0-.15626 0-.23438.04687-.3125.125-.23438.39063-.42188.6875-.42188.40625 0 .625.21875.625.71875V-.5c0 .29688-.03125.29688-.4375.32813V0H3.5v-.17187C3.09375-.20313 3.0625-.20313 3.0625-.5v-1.48437c0-.59375-.3125-.92188-.84375-.92188-.4375 0-.70312.20313-1.0625.4375l-.07812-.4375-.85938.14063v.14062l.21875.03125c.14063.03125.1875.04688.1875.26563V-.5c0 .29688-.01562.29688-.4375.32813Zm0 0"/><path id="m" d="M.28125-1.35937C.28125-.5.73438.0625 1.5.0625c.3125 0 .57813-.14062.89063-.39062v.28125L2.4375 0h.9375v-.17187C2.96875-.20313 2.95313-.20313 2.95313-.5v-3.76562l-.04688-.03125L2-4.15625v.14063L2.21875-4c.14063.03125.1875.0625.1875.28125v.95313c-.17187-.09375-.375-.14063-.64062-.14063-.48438 0-.84375.14063-1.07813.39063C.4375-2.25.28125-1.875.28125-1.35937m.60938-.07813c0-.75.26562-1.26562.85937-1.26562.28125 0 .5.10937.59375.35937.0625.09375.0625.1875.0625.34375v1.01563c0 .125 0 .21874-.04687.32812C2.25-.35937 2-.23437 1.6875-.23437c-.53125 0-.79687-.53125-.79687-1.20313m0 0"/><path id="p" d="M.14063 1.17188v.15624h1.5v-.15624C1.15625 1.14062 1.125 1.125 1.125.82813V-.0625c.125.0625.40625.125.67188.125.78125 0 1.4375-.35937 1.4375-1.54687 0-.42188-.0625-1.42188-1.125-1.42188-.42188 0-.75.28125-.98438.42188l-.07812-.42188-.875.14063v.14062l.21875.03125c.15625.03125.1875.04688.1875.26563V.82813c0 .29687-.01563.3125-.4375.34375M1.125-.90625v-.95312c0-.15626.03125-.23438.07813-.32813.14062-.26562.375-.40625.6875-.40625.23437 0 .75.14063.75 1.14063 0 .85937-.26563 1.3125-.84375 1.3125-.3125 0-.53125-.15625-.625-.42188C1.125-.65625 1.125-.78125 1.125-.90625m0 0"/><path id="q" d="M.28125-1.40625C.28125-.48437.67188.0625 1.625.0625c.64063 0 .96875-.35937 1.125-.8125l-.17187-.09375c-.15625.34375-.375.60938-.84375.60938-.71875 0-.85938-.6875-.84375-1.29688H2.5625c.125 0 .23438-.03125.23438-.21875 0-.34375-.125-1.15625-1.1875-1.15625-.90625 0-1.32813.64063-1.32813 1.5M.89063-1.75c0-.23437.09374-.95312.70312-.95312.53125 0 .59375.54687.59375.76562 0 .10938-.04687.1875-.20312.1875Zm0 0"/><path id="r" d="M.17188-2.60937h.42187v2.01562c0 .59375.4375.65625.64063.65625.29687 0 .57812-.14062.75-.25l-.04688-.125c-.14062.0625-.26562.07813-.40625.07813-.20312 0-.39062-.14063-.39062-.57813v-1.79687h.75v-.23438h-.75v-.73437H.96875L.625-2.84375H.17188Zm0 0"/><path id="s" d="M.53125-3.79687c0 .21875.14063.35937.35938.35937.20312 0 .34375-.14062.34375-.35937 0-.20313-.14063-.34375-.34375-.34375-.21876 0-.35938.14062-.35938.34375M.1875 0h1.40625v-.17187C1.1875-.20313 1.17188-.20313 1.17188-.5v-2.375L1.125-2.90625l-.90625.14063v.14062l.21875.03125c.14063.03125.1875.04688.1875.26563V-.5c0 .29688-.01562.29688-.4375.32813Zm0 0"/><clipPath id="a"><path d="M0 0h106.19922v106.19922H0Zm0 0"/></clipPath><clipPath id="e"><path d="M88 40h18.19922v26H88Zm0 0"/></clipPath><clipPath id="f"><path d="M52 6h2v100.19922h-2Zm0 0"/></clipPath><clipPath id="g"><path d="M.39453.39453H105.8047V105.8047H.39453Zm0 0"/></clipPath><clipPath id="n"><path d="M.39453.39453H105.8047V105.8047H.39453Zm0 0"/></clipPath><clipPath id="o"><path d="M.39453 6H105.8047v94H.39453Zm0 0"/></clipPath></defs><g clip-path="url(#a)"><path fill="none" stroke="#000" stroke-miterlimit="10" stroke-opacity=".5" stroke-width=".39516" d="M.39451 88.2383h105.4102M.3945 53.10155h105.4102M.3945 17.96092h105.4102m-87.84379 87.84379V.3945m35.14064 105.4102V.3945m35.13673 105.4102V.3945"/></g><path fill="none" stroke="#000" stroke-miterlimit="10" stroke-opacity=".5" stroke-width=".39516" d="M53.10156 44.3164v17.56642"/><use xlink:href="#b" x="38.03395" y="68.88752" fill-opacity=".5"/><path fill="none" stroke="#000" stroke-miterlimit="10" stroke-opacity=".5" stroke-width=".39516" d="M17.96092 44.3164v17.56642"/><g fill-opacity=".5"><use xlink:href="#c" x="11.43944" y="65.43466"/><use xlink:href="#d" x="18.95261" y="65.43466"/></g><path fill="none" stroke="#000" stroke-miterlimit="10" stroke-opacity=".5" stroke-width=".39516" d="M88.2383 44.3164v17.56642"/><use xlink:href="#d" x="85.46856" y="65.43466" fill-opacity=".5"/><path fill="none" stroke="#000" stroke-miterlimit="10" stroke-width=".79034" d="M.39451 53.10156h99.2852"/><path d="M103.8086 53.10156c-.50782-.10547-2.73438-.70312-4.12891-1.35547v2.70703c1.39453-.65234 3.6211-1.24609 4.1289-1.35156m0 0"/><g clip-path="url(#e)"><path fill="none" stroke="#000" stroke-miterlimit="10" stroke-width=".79034" d="M103.8086 53.10156c-.50782-.10547-2.73438-.70312-4.12891-1.35547v2.70703c1.39453-.65234 3.6211-1.24609 4.1289-1.35156Zm0 0"/></g><path fill="none" stroke="#000" stroke-miterlimit="10" stroke-opacity=".5" stroke-width=".39516" d="M61.88282 88.2383H44.3164"/><g fill-opacity=".5"><use xlink:href="#c" x="34.27766" y="91.78722"/><use xlink:href="#d" x="41.79083" y="91.78722"/></g><path fill="none" stroke="#000" stroke-miterlimit="10" stroke-opacity=".5" stroke-width=".39516" d="M61.88282 17.96092H44.3164"/><use xlink:href="#d" x="38.03495" y="21.5144" fill-opacity=".5"/><g clip-path="url(#f)"><path fill="none" stroke="#000" stroke-miterlimit="10" stroke-width=".79034" d="M53.10156 105.8047V6.51952"/></g><path stroke="#000" stroke-miterlimit="10" stroke-width=".79034" d="M53.10156 2.39062c-.10547.50782-.70312 2.73438-1.35547 4.12891h2.70703c-.65234-1.39453-1.24609-3.6211-1.35156-4.1289Zm0 0"/><g clip-path="url(#g)"><path fill="none" stroke="#007F7F" stroke-miterlimit="10" stroke-width=".79034" d="M.39451 290.27353s3.17188-40.62502 4.39063-54.4883c1.21875-13.8633 3.17578-33.96877 4.39453-45.43362 1.21875-11.46094 3.17188-27.90235 4.39063-37.19532s3.17187-22.4336 4.39062-29.78126c1.22266-7.35157 3.17579-17.5586 4.39454-23.19533 1.21875-5.64062 3.17187-13.28125 4.39062-17.4336s3.17579-9.59375 4.39454-12.48828 3.17187-6.50782 4.39062-8.375c1.21875-1.86329 3.17188-4.01172 4.39063-5.07813s3.17578-2.11328 4.39453-2.60547c1.21875-.4961 3.17188-.8086 4.39063-.96094s3.17578-.10156 4.39453-.13672c1.21875-.03906 3.17188.01172 4.39063-.14062 1.21875-.15235 3.17187-.46485 4.39063-.96094 1.21875-.49219 3.17578-1.53906 4.39453-2.60547s3.17187-3.21094 4.39063-5.07813 3.17187-5.48047 4.39062-8.375 3.17578-8.33594 4.39453-12.48829 3.17188-11.79297 4.39063-17.4297C85.06251.3867 87.01954-9.82423 88.2383-17.1758c1.21875-7.34766 3.17188-20.48829 4.39063-29.78126s3.17188-25.73438 4.39063-37.19533c1.21875-11.46484 3.17578-31.57032 4.39453-45.4336 1.21875-13.8633 4.39063-54.4883 4.39063-54.4883"/></g><use xlink:href="#h" x="57.75251" y="12.9011" fill="#007F7F"/><g fill="#007F7F"><use xlink:href="#i" x="62.95113" y="12.9011"/><use xlink:href="#j" x="65.9643" y="12.9011"/></g><g fill="#007F7F"><use xlink:href="#k" x="68.16243" y="12.9011"/><use xlink:href="#l" x="71.19413" y="12.9011"/><use xlink:href="#m" x="74.78153" y="12.9011"/></g><g clip-path="url(#n)"><path fill="none" stroke="#000" stroke-miterlimit="10" stroke-width=".79034" d="M.39451 171.68754s3.17188-20.3125 4.39063-27.2461c1.21875-6.92969 3.17578-16.98438 4.39453-22.71485s3.17188-13.95313 4.39063-18.59767c1.21875-4.64843 3.17187-11.21484 4.39062-14.89063 1.22266-3.67578 3.17579-8.78125 4.39454-11.59766 1.21875-2.82031 3.17187-6.64062 4.39062-8.71875 1.21875-2.07422 3.17579-4.79688 4.39454-6.24219 1.21875-1.44922 3.17187-3.2539 4.39062-4.1875s3.17188-2.00781 4.39063-2.53906c1.21875-.53516 3.17578-1.0586 4.39453-1.3047s3.17188-.40234 4.39063-.48046c1.21875-.07422 3.17578-.05078 4.39453-.0664 1.21875-.01954 3.17188.0039 4.39063-.07032 1.21875-.07813 3.17187-.23438 4.39063-.48047 1.21875-.2461 3.17578-.76953 4.39453-1.30469 1.21875-.53125 3.17187-1.60547 4.39063-2.53906s3.17187-2.73828 4.39062-4.1875c1.21875-1.44532 3.17578-4.16797 4.39453-6.2422 1.21875-2.07812 3.17188-5.89843 4.39063-8.71484 1.21875-2.82031 3.17578-7.92578 4.39453-11.60157 1.21875-3.67187 3.17188-10.24219 4.39063-14.89063 1.21875-4.64453 3.17188-12.86328 4.39063-18.59766 1.21875-5.73047 3.17578-15.78516 4.39453-22.71485 1.21875-6.9336 4.39063-27.2461 4.39063-27.2461"/></g><g clip-path="url(#o)"><path fill="none" stroke="#FF7F00" stroke-miterlimit="10" stroke-width=".79034" d="M.39451 88.6758s3.17188-6.09376 4.39063-8.17188c1.21875-2.08204 3.17578-5.09766 4.39453-6.81641s3.17188-4.1836 4.39063-5.57813 3.17187-3.36719 4.39062-4.46875c1.22266-1.10156 3.17579-2.63281 4.39454-3.48047 1.21875-.84375 3.17187-1.99219 4.39062-2.61328s3.17579-1.4375 4.39454-1.875c1.21875-.4336 3.17187-.97657 4.39062-1.25391 1.21875-.28125 3.17188-.60156 4.39063-.76172s3.17578-.3164 4.39453-.39063c1.21875-.07421 3.17188-.12109 4.39063-.14453s3.17578-.01562 4.39453-.01953c1.21875-.00781 3.17188 0 4.39063-.02344s3.17187-.0703 4.39063-.14453 3.17578-.23047 4.39453-.39062 3.17187-.48047 4.39063-.76172c1.21875-.27734 3.17187-.82031 4.39062-1.2539s3.17578-1.25 4.39453-1.875c1.21875-.6211 3.17188-1.76954 4.39063-2.6133 1.21875-.84765 3.17578-2.3789 4.39453-3.48046s3.17188-3.07422 4.39063-4.46875c1.21875-1.39063 3.17188-3.85938 4.39063-5.57813s3.17578-4.73438 4.39453-6.8125c1.21875-2.08203 4.39063-8.17579 4.39063-8.17579"/></g><use xlink:href="#h" x="57.46295" y="61.61193" fill="#FF7F00"/><g fill="#FF7F00"><use xlink:href="#p" x="62.66157" y="61.61193"/><use xlink:href="#q" x="66.18723" y="61.61193"/><use xlink:href="#r" x="69.16953" y="61.61193"/><use xlink:href="#s" x="71.1639" y="61.61193"/><use xlink:href="#r" x="72.84955" y="61.61193"/></g></svg>