<svg xmlns="http://www.w3.org/2000/svg" xmlns:xlink="http://www.w3.org/1999/xlink" width="142.529pt" height="180.579pt" viewBox="0 0 142.529 180.579"><defs><path id="b" d="M.4375-3.51562C.4375-1.40625 1.04688.125 2.78125.125c1.73438 0 2.35938-1.53125 2.35938-3.64062 0-2.09375-.625-3.625-2.35938-3.625S.4375-5.60937.4375-3.51562m1.0625 0c0-1.70313.28125-3.25 1.28125-3.25s1.28125 1.54687 1.28125 3.25C4.0625-1.79687 3.78125-.25 2.78125-.25S1.5-1.79687 1.5-3.51562m0 0"/><path id="c" d="M.89063-2.65625h5.78125v-.60937H.89063Zm0 0"/><path id="d" d="M1.14063 0h3.45312v-.29687L3.70313-.375c-.21875-.03125-.34375-.10937-.34375-.51562v-6.1875l-.04688-.0625-2.17187.375v.25l.98437.125c.17188.01562.25.09375.25.40625v5.09375c0 .40625-.10937.48437-.35937.51562l-.875.07813Zm0 0"/><path id="e" d="M.28125-.09375.39063 0h4.34375l.35937-1.39062-.29687-.04688c-.21875.5625-.42188.64063-.85938.64063H1.26563c.17187-.54688.79687-1.29688 1.76562-2 1-.73438 1.78125-1.20313 1.78125-2.375 0-1.46875-.96875-1.96875-2.07812-1.96875-1.4375 0-2.17188.875-2.17188 1.42187 0 .35938.39063.53125.57813.53125s.25-.125.29687-.29687c.17188-.71875.57813-1.28125 1.23438-1.28125.79687 0 1.03125.67187 1.03125 1.4375 0 1.125-.5625 1.76562-1.48438 2.5625C.92188-1.625.48438-.92187.28125-.09375m0 0"/><path id="g" d="M.28125-1.07812C.28125-.625 1 .125 2.48438.125c1.53125 0 2.48437-.76562 2.48437-2.10937 0-1.40625-1.20312-1.82813-1.78125-1.875v-.04688C3.75-4 4.65625-4.42187 4.65625-5.46875c0-1.15625-.90625-1.67187-2.03125-1.67187-1.39062 0-2.0625.8125-2.0625 1.25 0 .32812.35938.5.51563.5.125 0 .20312-.07813.25-.20313.23437-.71875.625-1.17187 1.21875-1.17187.82812 0 1.04687.71875 1.04687 1.3125 0 .625-.23437 1.42187-1.125 1.42187-.5 0-.79687-.10937-.92187-.10937s-.1875.10937-.1875.29687c0 .17188.0625.29688.1875.29688s.42187-.10938.92187-.10938c.89063 0 1.39063.8125 1.39063 1.71875C3.85938-.6875 3.25-.25 2.5-.25c-.6875 0-1.14062-.51562-1.34375-1.10937-.07812-.1875-.17187-.29688-.3125-.29688-.20312 0-.5625.20313-.5625.57813m0 0"/><path id="j" d="M.39063-5.8125C.39063-4.79687 1.40625-4 3.73438-4c-.39063.6875-.67188 1.39063-.67188 2.15625 0 1.28125.8125 1.98438 2.26563 1.98438C6.76563.14063 8.25-.89062 8.25-2.21875c0-.79687-.65625-1.23437-1.48437-1.23437-.92188 0-2 1.03125-2 1.85937 0 .23438.1875.71875.53125.71875.09375 0 .23437-.07812.23437-.1875 0-.15625-.26562-.17187-.26562-.53125 0-.5625.82812-1.48437 1.5-1.48437.46875 0 .75.1875.75.64062 0 1.03125-.98438 2.20313-2.1875 2.20313-.84375 0-1.26563-.45313-1.26563-1.23438 0-.85937.60938-1.875 1.0625-2.625 2.59375-.39062 5.14063-1.67187 5.14063-3.29687 0-.625-.5-1.03125-1.17188-1.03125-1.53125 0-3.85937 1.96875-5.14062 4.01562C2.90625-4.42187 1.1875-4.4375 1.1875-5.6875c0-1.14062 1.39063-2.01562 2.26563-2.01562.15625 0 .25-.09375.25-.20313 0-.09375-.09375-.17187-.1875-.17187-1.3125 0-3.125.875-3.125 2.26562m4.96875 1.26563c.85937-1.5 2.67187-3.5 3.73437-3.5.40625 0 .6875.23437.6875.60937 0 1.3125-2.04687 2.5-4.42187 2.89063m0 0"/><path id="k" d="M-.17187 1.46875c0 .28125.35937.5.79687.5.85938 0 1.25-.67187 1.57813-2.21875l.76562-3.42187H4L4.07813-4h-1.0625l.25-1c.14062-.54687.28125-.75.48437-.75.1875 0 .32813.15625.51563.57813.04687.07812.125.15625.26562.15625.1875 0 .4375-.15625.4375-.39063 0-.35937-.45312-.65625-.98437-.65625-1.03125 0-1.45313.75-1.75 1.78125L2.15625-4h-.70312l-.09376.32813h.71876L1.125 1.1875c-.07812.40625-.15625.46875-.23437.46875-.07813 0-.21876-.07812-.42188-.40625-.0625-.09375-.125-.20312-.25-.20312-.1875 0-.39062.20312-.39062.42187m0 0"/><clipPath id="a"><path d="M0 .08594h142V178H0Zm0 0"/></clipPath><clipPath id="f"><path d="M124 111h18.0586v26H124Zm0 0"/></clipPath><clipPath id="h"><path d="M40 .08594h26V18H40Zm0 0"/></clipPath><clipPath id="i"><path d="M.39453.48438h141.26953V177.0664H.39453Zm0 0"/></clipPath></defs><g clip-path="url(#a)"><path fill="none" stroke="#000" stroke-miterlimit="10" stroke-opacity=".5" stroke-width=".39719" d="M.39455 159.41015h141.26949M.39454 124.09375h141.2695M.39454 88.77345h141.2695M.39454 53.45705h141.2695M.39454 18.14065h141.2695M18.0547 177.0664V.48441M53.3711 177.0664V.48441M88.68748 177.0664V.48441m35.3164 176.58198V.48441"/></g><path fill="none" stroke="#000" stroke-miterlimit="10" stroke-opacity=".5" stroke-width=".39719" d="M53.3711 115.26172v17.66015"/><use xlink:href="#b" x="38.22867" y="139.96135" fill-opacity=".5"/><path fill="none" stroke="#000" stroke-miterlimit="10" stroke-opacity=".5" stroke-width=".39719" d="M18.0547 115.26172v17.66015"/><g fill-opacity=".5"><use xlink:href="#c" x="11.498" y="136.49082"/><use xlink:href="#d" x="19.04964" y="136.49082"/></g><path fill="none" stroke="#000" stroke-miterlimit="10" stroke-opacity=".5" stroke-width=".39719" d="M88.68749 115.26172v17.66015"/><use xlink:href="#d" x="85.90611" y="136.49082" fill-opacity=".5"/><path fill="none" stroke="#000" stroke-miterlimit="10" stroke-opacity=".5" stroke-width=".39719" d="M124.00389 115.26172v17.66015"/><use xlink:href="#e" x="121.22241" y="136.49082" fill-opacity=".5"/><path fill="none" stroke="#000" stroke-miterlimit="10" stroke-width=".79439" d="M.39455 124.09375h135.11324"/><path d="M139.65625 124.09375c-.50781-.10937-2.75-.70703-4.14844-1.36328v2.72266c1.39844-.65626 3.64063-1.25391 4.14844-1.35938m0 0"/><g clip-path="url(#f)"><path fill="none" stroke="#000" stroke-miterlimit="10" stroke-width=".79439" d="M139.65625 124.09375c-.50781-.10937-2.75-.70703-4.14844-1.36328v2.72265c1.39844-.65625 3.64063-1.2539 4.14844-1.35937Zm0 0"/></g><path fill="none" stroke="#000" stroke-miterlimit="10" stroke-opacity=".5" stroke-width=".39719" d="M62.19922 159.41015H44.54297"/><g fill-opacity=".5"><use xlink:href="#c" x="34.45315" y="162.9773"/><use xlink:href="#d" x="42.00478" y="162.9773"/></g><path fill="none" stroke="#000" stroke-miterlimit="10" stroke-opacity=".5" stroke-width=".39719" d="M62.19922 88.77345H44.54297"/><use xlink:href="#d" x="38.22967" y="92.34471" fill-opacity=".5"/><path fill="none" stroke="#000" stroke-miterlimit="10" stroke-opacity=".5" stroke-width=".39719" d="M62.19922 53.45705H44.54297"/><use xlink:href="#e" x="38.22967" y="57.02841" fill-opacity=".5"/><path fill="none" stroke="#000" stroke-miterlimit="10" stroke-opacity=".5" stroke-width=".39719" d="M62.19922 18.14066H44.54297"/><use xlink:href="#g" x="38.22967" y="21.65132" fill-opacity=".5"/><path fill="none" stroke="#000" stroke-miterlimit="10" stroke-width=".79439" d="M53.3711 177.06639V6.64066"/><path d="M53.3711 2.48828c-.10547.51172-.70704 2.75-1.35938 4.15234h2.71875C54.07813 5.23829 53.47657 3 53.37109 2.48829m0 0"/><g clip-path="url(#h)"><path fill="none" stroke="#000" stroke-miterlimit="10" stroke-width=".79439" d="M53.3711 2.48828c-.10547.51172-.70704 2.75-1.35938 4.15235h2.71875C54.07813 5.23828 53.47657 3 53.37109 2.48828Zm0 0"/></g><g clip-path="url(#i)"><path fill="none" stroke="#007F7F" stroke-miterlimit="10" stroke-width=".79439" d="M.39455 247.69918s4.2539-38.8242 5.88671-51.66405c1.63282-12.83984 4.25391-30.89452 5.88672-40.87498s4.2539-23.66796 5.88672-31.0625c1.63281-7.39843 4.25-17.15624 5.88672-22.23827 1.6328-5.08203 4.25-11.35156 5.8828-14.39062 1.63282-3.03906 4.25391-6.25 5.88672-7.51953 1.63282-1.27344 4.2539-1.86719 5.88672-1.64062 1.63281.22656 4.25 1.8164 5.88672 3.26953 1.6328 1.44922 4.25 4.78906 5.8828 7.1914C55 91.1758 57.6211 95.82032 59.2539 98.90626c1.63282 3.08593 4.25391 8.60156 5.88672 12.09765 1.63281 3.49219 4.25 9.44922 5.88672 13.07812 1.63281 3.6289 4.25 9.58594 5.88281 13.07812 1.63281 3.4961 4.2539 9.01562 5.88672 12.10156 1.6328 3.08594 4.2539 7.73437 5.88671 10.14062 1.63282 2.40235 4.25 5.74219 5.88672 7.19531 1.63281 1.45313 4.25 3.04688 5.88281 3.27344 1.63281.23047 4.2539-.35937 5.88672-1.6289 1.63281-1.26954 4.2539-4.47657 5.88672-7.51172 1.6328-3.03906 4.2539-9.30078 5.88671-14.3789s4.25-14.83203 5.88281-22.22656c1.63672-7.39062 4.2539-21.07421 5.88672-31.05077 1.63281-9.97656 4.2539-28.02343 5.88672-40.85936 1.6328-12.83594 5.88671-51.64843 5.88671-51.64843"/></g><use xlink:href="#j" x="117.79474" y="171.23202" fill="#007F7F"/><use xlink:href="#k" x="127.31577" y="173.96299" fill="#007F7F"/></svg>