<?xml version="1.0" encoding="UTF-8"?>
<svg xmlns="http://www.w3.org/2000/svg" xmlns:xlink="http://www.w3.org/1999/xlink" width="371pt" height="205pt" viewBox="0 0 371 205" version="1.2">
<g id="surface1">
<path style="fill-rule:nonzero;fill:rgb(100%,100%,100%);fill-opacity:1;stroke-width:0.09375;stroke-linecap:butt;stroke-linejoin:miter;stroke:rgb(100%,100%,100%);stroke-opacity:1;stroke-miterlimit:10;" d="M 0 205 L 371 205 L 371 0 L 0 0 L 0 205 M 287.429688 156.820312 C 284.800781 150.71875 282.28125 144.570312 279.53125 138.53125 C 278.941406 137.050781 277.28125 136.621094 276.058594 135.828125 C 272.328125 133.980469 269.078125 131.351562 266.109375 128.46875 C 264.410156 130.230469 263.039062 132.480469 260.660156 133.390625 C 261.628906 131 263.328125 129.039062 265.011719 127.121094 C 263.199219 124.671875 261.738281 121.988281 260.578125 119.171875 C 258.730469 120.359375 256.898438 121.640625 254.75 122.21875 C 256 119.941406 258.578125 118.949219 260.078125 116.960938 C 260.148438 114.171875 259.960938 111.359375 260.328125 108.578125 C 256.550781 109.011719 253.53125 111.429688 250.46875 113.429688 C 245.96875 115.441406 242.171875 118.671875 237.601562 120.558594 C 234.679688 122.78125 231.378906 124.359375 228.101562 125.980469 C 226.019531 127.699219 223.691406 129.03125 221.199219 130.089844 C 208.78125 137.449219 196.238281 144.640625 183.648438 151.710938 C 181.480469 153.46875 179.039062 155.199219 176.089844 155.011719 C 126.390625 155 76.691406 154.980469 26.988281 155.011719 L 26.988281 153.988281 C 76.351562 154.011719 125.710938 154.011719 175.058594 153.988281 C 178.070312 154.339844 180.46875 152.570312 182.609375 150.738281 C 187.148438 148.71875 190.96875 145.449219 195.589844 143.578125 C 199.300781 140.398438 204.25 139.28125 207.921875 136.058594 C 215.898438 132.230469 223.121094 127.050781 231.03125 123.089844 C 234.398438 120.191406 238.941406 119.21875 242.289062 116.300781 C 248.621094 113.050781 254.679688 109.308594 260.820312 105.691406 C 261.871094 102.328125 263.351562 99.109375 265.03125 96.011719 C 259.128906 96.761719 252.941406 96.578125 247.289062 94.648438 C 242.460938 92.921875 243.171875 87.039062 242.578125 82.949219 C 240.558594 85.199219 238.421875 87.5 237.359375 90.390625 C 235.351562 95.960938 236.480469 102.078125 234.75 107.691406 C 233.910156 110.550781 230.011719 110.53125 228.050781 108.878906 C 222.648438 104.589844 221.269531 96.640625 223.320312 90.289062 C 225.398438 83.921875 230.910156 79.589844 236.199219 75.898438 C 234.058594 76.070312 231.808594 75.878906 229.78125 76.691406 C 227.628906 77.980469 225.871094 80.511719 223.058594 80.050781 C 219.910156 79.808594 218.738281 76.351562 218.261719 73.71875 C 217.460938 68.089844 218.089844 61.980469 221.089844 57.050781 C 222.570312 54.160156 226.511719 53.429688 229.308594 54.671875 C 232.328125 56.871094 231.898438 60.910156 232.109375 64.191406 C 239.570312 62.71875 247.191406 62.628906 254.769531 62.890625 C 257.238281 54.109375 259.890625 45.371094 262.761719 36.710938 C 263.5 34.671875 264.179688 32.371094 266.171875 31.179688 C 270.460938 28.230469 274.988281 25.398438 280.070312 24.039062 C 282.28125 23.558594 285.140625 23.320312 286.828125 25.171875 C 289.109375 27.160156 288.800781 30.878906 287.070312 33.128906 C 284.199219 37.148438 279.390625 38.898438 275.28125 41.289062 C 271.789062 48.070312 270.519531 55.710938 268.089844 62.890625 C 271.101562 63.988281 274.058594 65.210938 276.929688 66.648438 C 278.289062 62.589844 280 58.199219 283.851562 55.859375 C 287.5 53.238281 292.28125 53.558594 296.421875 54.628906 C 299.050781 55.300781 301.960938 56.300781 303.320312 58.859375 C 304.691406 61.679688 302.640625 65.199219 299.898438 66.238281 C 296.601562 66.910156 293.289062 65.980469 290.101562 65.230469 C 287.71875 68.820312 286.75 73.050781 285.839844 77.199219 C 293.25 73.910156 300.820312 70.570312 308.988281 69.808594 C 316.75 68.761719 325.019531 70.449219 331.078125 75.601562 C 333.980469 73.25 337.089844 71.058594 340.621094 69.75 C 339.039062 73.128906 334.710938 74.128906 332.210938 76.808594 C 333.308594 78.871094 334.289062 80.988281 335.121094 83.171875 C 339.589844 81.820312 344.199219 80.828125 348.898438 81.128906 C 348.890625 81.550781 348.871094 82.398438 348.859375 82.820312 C 344.199219 82.421875 339.5 83.140625 335.238281 85.070312 C 334.359375 88.679688 332.800781 92.078125 330.648438 95.109375 C 332.511719 100.058594 333.46875 105.429688 332.738281 110.710938 C 332.070312 114.640625 330.269531 118.25 329.238281 122.070312 C 330.089844 126.460938 331.921875 130.589844 332.828125 134.949219 C 332.609375 135.441406 332.171875 136.429688 331.949219 136.921875 C 327.058594 135.570312 322.070312 134.648438 317.148438 133.449219 C 311.761719 137.960938 305.128906 140.71875 298.308594 142.199219 C 295.488281 147.859375 292.820312 153.609375 289.660156 159.089844 C 288.769531 158.488281 287.75 157.929688 287.429688 156.820312 Z M 287.429688 156.820312 " transform="matrix(1,0,0,-1,0,205)"/>
<path style="fill-rule:nonzero;fill:rgb(1.199341%,7.099915%,15.299988%);fill-opacity:1;stroke-width:0.09375;stroke-linecap:butt;stroke-linejoin:miter;stroke:rgb(1.199341%,7.099915%,15.299988%);stroke-opacity:1;stroke-miterlimit:10;" d="M 287.429688 156.820312 C 287.75 157.929688 288.769531 158.488281 289.660156 159.089844 C 292.820312 153.609375 295.488281 147.859375 298.308594 142.199219 C 305.128906 140.71875 311.761719 137.960938 317.148438 133.449219 C 322.070312 134.648438 327.058594 135.570312 331.949219 136.921875 C 332.171875 136.429688 332.609375 135.441406 332.828125 134.949219 C 331.921875 130.589844 330.089844 126.460938 329.238281 122.070312 C 330.269531 118.25 332.070312 114.640625 332.738281 110.710938 C 333.46875 105.429688 332.511719 100.058594 330.648438 95.109375 C 332.800781 92.078125 334.359375 88.679688 335.238281 85.070312 C 339.5 83.140625 344.199219 82.421875 348.859375 82.820312 C 348.871094 82.398438 348.890625 81.550781 348.898438 81.128906 C 344.199219 80.828125 339.589844 81.820312 335.121094 83.171875 C 334.289062 80.988281 333.308594 78.871094 332.210938 76.808594 C 334.710938 74.128906 339.039062 73.128906 340.621094 69.75 C 337.089844 71.058594 333.980469 73.25 331.078125 75.601562 C 325.019531 70.449219 316.75 68.761719 308.988281 69.808594 C 300.820312 70.570312 293.25 73.910156 285.839844 77.199219 C 286.75 73.050781 287.71875 68.820312 290.101562 65.230469 C 293.289062 65.980469 296.601562 66.910156 299.898438 66.238281 C 302.640625 65.199219 304.691406 61.679688 303.320312 58.859375 C 301.960938 56.300781 299.050781 55.300781 296.421875 54.628906 C 292.28125 53.558594 287.5 53.238281 283.851562 55.859375 C 280 58.199219 278.289062 62.589844 276.929688 66.648438 C 274.058594 65.210938 271.101562 63.988281 268.089844 62.890625 C 270.519531 55.710938 271.789062 48.070312 275.28125 41.289062 C 279.390625 38.898438 284.199219 37.148438 287.070312 33.128906 C 288.800781 30.878906 289.109375 27.160156 286.828125 25.171875 C 285.140625 23.320312 282.28125 23.558594 280.070312 24.039062 C 274.988281 25.398438 270.460938 28.230469 266.171875 31.179688 C 264.179688 32.371094 263.5 34.671875 262.761719 36.710938 C 259.890625 45.371094 257.238281 54.109375 254.769531 62.890625 C 247.191406 62.628906 239.570312 62.71875 232.109375 64.191406 C 231.898438 60.910156 232.328125 56.871094 229.308594 54.671875 C 226.511719 53.429688 222.570312 54.160156 221.089844 57.050781 C 218.089844 61.980469 217.460938 68.089844 218.261719 73.71875 C 218.738281 76.351562 219.910156 79.808594 223.058594 80.050781 C 225.871094 80.511719 227.628906 77.980469 229.78125 76.691406 C 231.808594 75.878906 234.058594 76.070312 236.199219 75.898438 C 230.910156 79.589844 225.398438 83.921875 223.320312 90.289062 C 221.269531 96.640625 222.648438 104.589844 228.050781 108.878906 C 230.011719 110.53125 233.910156 110.550781 234.75 107.691406 C 236.480469 102.078125 235.351562 95.960938 237.359375 90.390625 C 238.421875 87.5 240.558594 85.199219 242.578125 82.949219 C 243.171875 87.039062 242.460938 92.921875 247.289062 94.648438 C 252.941406 96.578125 259.128906 96.761719 265.03125 96.011719 C 263.351562 99.109375 261.871094 102.328125 260.820312 105.691406 C 260.628906 106.648438 260.460938 107.621094 260.328125 108.578125 C 259.960938 111.359375 260.148438 114.171875 260.078125 116.960938 C 258.578125 118.949219 256 119.941406 254.75 122.21875 C 256.898438 121.640625 258.730469 120.359375 260.578125 119.171875 C 261.738281 121.988281 263.199219 124.671875 265.011719 127.121094 C 263.328125 129.039062 261.628906 131 260.660156 133.390625 C 263.039062 132.480469 264.410156 130.230469 266.109375 128.46875 C 269.078125 131.351562 272.328125 133.980469 276.058594 135.828125 C 277.28125 136.621094 278.941406 137.050781 279.53125 138.53125 C 282.28125 144.570312 284.800781 150.71875 287.429688 156.820312 M 289.171875 156.570312 C 286.148438 150.511719 283.78125 144.140625 280.96875 137.980469 C 280.449219 136.269531 278.648438 135.691406 277.28125 134.851562 C 273.421875 132.910156 270.019531 130.179688 267.011719 127.101562 C 269.050781 124.21875 270.890625 121.140625 271.769531 117.679688 C 268.871094 119.488281 268.128906 123.199219 265.929688 125.679688 C 264.078125 123.441406 262.820312 120.808594 261.941406 118.050781 C 264.671875 116.730469 268.058594 116.429688 270.109375 114.011719 C 267.210938 114.339844 264.429688 115.28125 261.660156 116.148438 C 260.820312 104.46875 266.71875 92.628906 276.25 85.96875 C 284.75 78.03125 296.019531 73.46875 307.378906 71.488281 C 315.148438 70.050781 323.308594 71.609375 329.78125 76.210938 C 329.539062 77.160156 329.300781 78.109375 329.070312 79.058594 C 329.78125 78.929688 331.191406 78.691406 331.890625 78.558594 C 334.21875 83.921875 333.160156 90.828125 328.808594 94.941406 C 330.929688 99.96875 332.050781 105.550781 331.109375 110.980469 C 330.511719 114.820312 328.558594 118.261719 327.671875 122.019531 C 328.558594 126.390625 330.230469 130.570312 331.140625 134.949219 C 326.429688 134.210938 321.871094 132.628906 317.140625 132.070312 C 313.21875 134.160156 309.71875 137.058594 305.449219 138.488281 C 302.839844 139.691406 299.71875 139.761719 297.328125 141.339844 C 294.25 146.21875 292.398438 151.78125 289.171875 156.570312 M 228.558594 107.601562 C 224.121094 103.808594 223.320312 97.398438 224.21875 91.949219 C 226.640625 85.089844 232.179688 79.828125 238.480469 76.449219 C 240.140625 75.371094 242.160156 75.769531 244.011719 75.828125 C 243.421875 78.089844 243.199219 80.679688 241.28125 82.289062 C 238.210938 85.199219 235.761719 88.800781 235.101562 93.058594 C 234.511719 97.628906 234.359375 102.238281 233.800781 106.808594 C 233.289062 109.378906 230.03125 109.089844 228.558594 107.601562 M 249.339844 93.789062 C 247.328125 93.359375 245.460938 92.019531 245.011719 89.921875 C 243.78125 85.128906 243.851562 79.71875 246.199219 75.28125 C 247.621094 72.320312 252.710938 71.539062 254.351562 74.671875 C 255.691406 77.691406 253.71875 81.199219 254.769531 84.238281 C 259.410156 86.058594 264.859375 85.25 269.140625 88.230469 C 268.96875 91.570312 266.140625 94.359375 262.859375 94.730469 C 258.351562 95.28125 253.75 94.78125 249.339844 93.789062 M 255.828125 83.210938 C 256.5 78.988281 256.851562 74.28125 253.46875 71.078125 C 257.730469 59.21875 260.710938 46.941406 264.980469 35.070312 C 265.550781 33.089844 267.601562 32.191406 269.128906 31.050781 C 273.378906 28.449219 277.808594 25.539062 282.921875 25.148438 C 285.980469 25.070312 288.050781 28.769531 286.378906 31.359375 C 283.761719 35.960938 278.390625 37.558594 274.109375 40.121094 C 271.730469 44.140625 270.800781 48.921875 269.308594 53.339844 C 268.460938 56.929688 266.53125 60.488281 267.238281 64.261719 C 271.210938 65.460938 275.339844 66.898438 278.371094 69.859375 C 280.570312 71.21875 282.660156 72.949219 283.671875 75.398438 C 284.210938 76.511719 284.328125 78.269531 282.960938 78.839844 C 278.609375 81.441406 274.601562 84.558594 270.960938 88.078125 C 266.980469 83.898438 261.03125 84.28125 255.828125 83.210938 M 221.460938 77.761719 C 218.140625 72.101562 219.171875 64.660156 221.75 58.890625 C 222.910156 55.550781 227.621094 54.558594 229.949219 57.269531 C 230.921875 59.96875 229.449219 63.480469 231.378906 65.710938 C 238.871094 64.679688 246.421875 63.789062 254.011719 64.371094 C 253.359375 66.511719 252.628906 68.628906 251.851562 70.730469 C 248.921875 71.109375 246.550781 72.859375 243.929688 74.03125 C 239.078125 74.320312 234.078125 73.761719 229.359375 75.210938 C 226.898438 76.410156 224.339844 80.269531 221.460938 77.761719 M 278.269531 67.148438 C 279.808594 61.859375 283.210938 56.039062 289.238281 55.378906 C 293.671875 55.140625 298.699219 56.011719 301.960938 59.28125 C 302.519531 61.109375 301.761719 63.171875 300.320312 64.371094 C 296.808594 65.980469 293.019531 63.601562 289.398438 64.261719 C 287.019531 66.839844 286.25 70.398438 284.949219 73.558594 C 282.699219 71.441406 280.441406 69.339844 278.269531 67.148438 Z M 278.269531 67.148438 " transform="matrix(1,0,0,-1,0,205)"/>
<path style="fill-rule:nonzero;fill:rgb(100%,67.098999%,9.799194%);fill-opacity:1;stroke-width:0.09375;stroke-linecap:butt;stroke-linejoin:miter;stroke:rgb(100%,67.098999%,9.799194%);stroke-opacity:1;stroke-miterlimit:10;" d="M 289.171875 156.570312 C 292.398438 151.78125 294.25 146.21875 297.328125 141.339844 C 299.71875 139.761719 302.839844 139.691406 305.449219 138.488281 C 309.71875 137.058594 313.21875 134.160156 317.140625 132.070312 C 321.871094 132.628906 326.429688 134.210938 331.140625 134.949219 C 330.230469 130.570312 328.558594 126.390625 327.671875 122.019531 C 328.558594 118.261719 330.511719 114.820312 331.109375 110.980469 C 332.050781 105.550781 330.929688 99.96875 328.808594 94.941406 C 328.21875 95.558594 327.621094 96.179688 327.03125 96.789062 C 331.160156 103.398438 331.578125 113.019531 325.800781 118.800781 C 323.199219 121.710938 318.25 121.011719 316.171875 117.851562 C 311.921875 112.03125 313.121094 104.160156 316.070312 98.050781 C 315.761719 98.269531 315.148438 98.699219 314.851562 98.910156 C 312.28125 102.148438 308.78125 104.320312 304.96875 105.808594 C 304.261719 105.320312 302.828125 104.351562 302.121094 103.859375 C 300.800781 105.589844 299.269531 107.140625 297.769531 108.710938 C 302.46875 114.980469 302.960938 124.589844 297.640625 130.621094 C 295.089844 133.800781 289.890625 133.710938 287.199219 130.78125 C 283.421875 126.949219 283.289062 121.160156 283.730469 116.128906 C 278.019531 114.859375 272.160156 111.488281 270.539062 105.480469 C 268.328125 98.398438 272.179688 91.511719 276.25 85.96875 C 266.71875 92.628906 260.820312 104.46875 261.660156 116.148438 C 264.429688 115.28125 267.210938 114.339844 270.109375 114.011719 C 268.058594 116.429688 264.671875 116.730469 261.941406 118.050781 C 262.820312 120.808594 264.078125 123.441406 265.929688 125.679688 C 268.128906 123.199219 268.871094 119.488281 271.769531 117.679688 C 270.890625 121.140625 269.050781 124.21875 267.011719 127.101562 C 270.019531 130.179688 273.421875 132.910156 277.28125 134.851562 C 278.648438 135.691406 280.449219 136.269531 280.96875 137.980469 C 283.78125 144.140625 286.148438 150.511719 289.171875 156.570312 Z M 289.171875 156.570312 " transform="matrix(1,0,0,-1,0,205)"/>
<path style="fill-rule:nonzero;fill:rgb(6.298828%,6.298828%,100%);fill-opacity:1;stroke-width:0.09375;stroke-linecap:butt;stroke-linejoin:miter;stroke:rgb(6.298828%,6.298828%,100%);stroke-opacity:1;stroke-miterlimit:10;" d="M 26.988281 155.011719 C 76.691406 154.980469 126.390625 155 176.089844 155.011719 C 179.039062 155.199219 181.480469 153.46875 183.648438 151.710938 C 196.238281 144.640625 208.78125 137.449219 221.199219 130.089844 C 223.691406 129.03125 226.019531 127.699219 228.101562 125.980469 C 231.378906 124.359375 234.679688 122.78125 237.601562 120.558594 C 242.171875 118.671875 245.96875 115.441406 250.46875 113.429688 C 253.53125 111.429688 256.550781 109.011719 260.328125 108.578125 C 260.460938 107.621094 260.628906 106.648438 260.820312 105.691406 C 254.679688 109.308594 248.621094 113.050781 242.289062 116.300781 C 238.941406 119.21875 234.398438 120.191406 231.03125 123.089844 C 223.121094 127.050781 215.898438 132.230469 207.921875 136.058594 C 204.25 139.28125 199.300781 140.398438 195.589844 143.578125 C 190.96875 145.449219 187.148438 148.71875 182.609375 150.738281 C 180.46875 152.570312 178.070312 154.339844 175.058594 153.988281 C 125.710938 154.011719 76.351562 154.011719 26.988281 153.988281 Z M 26.988281 155.011719 " transform="matrix(1,0,0,-1,0,205)"/>
<path style="fill-rule:nonzero;fill:rgb(1.199341%,7.099915%,15.299988%);fill-opacity:1;stroke-width:0.09375;stroke-linecap:butt;stroke-linejoin:miter;stroke:rgb(1.199341%,7.099915%,15.299988%);stroke-opacity:1;stroke-miterlimit:10;" d="M 287.199219 130.78125 C 289.890625 133.710938 295.089844 133.800781 297.640625 130.621094 C 302.960938 124.589844 302.46875 114.980469 297.769531 108.710938 C 295.558594 107.871094 293.089844 106.558594 290.730469 107.710938 C 286.980469 108.910156 284.960938 112.648438 283.730469 116.128906 C 283.289062 121.160156 283.421875 126.949219 287.199219 130.78125 M 289.429688 130.699219 C 283.941406 126.21875 283.738281 117.289062 287.671875 111.699219 C 289.550781 108.910156 294.269531 107.550781 296.671875 110.421875 C 301.289062 115.421875 300.808594 123.660156 297.019531 129 C 295.449219 131.460938 291.890625 132.378906 289.429688 130.699219 Z M 289.429688 130.699219 " transform="matrix(1,0,0,-1,0,205)"/>
<path style="fill-rule:nonzero;fill:rgb(100%,100%,100%);fill-opacity:1;stroke-width:0.09375;stroke-linecap:butt;stroke-linejoin:miter;stroke:rgb(100%,100%,100%);stroke-opacity:1;stroke-miterlimit:10;" d="M 289.429688 130.699219 C 291.890625 132.378906 295.449219 131.460938 297.019531 129 C 300.808594 123.660156 301.289062 115.421875 296.671875 110.421875 C 294.269531 107.550781 289.550781 108.910156 287.671875 111.699219 C 283.738281 117.289062 283.941406 126.21875 289.429688 130.699219 M 292.199219 114.050781 C 293.511719 113.769531 295.550781 112.808594 296.300781 114.558594 C 297.550781 115.929688 296.160156 119.179688 294.140625 118.199219 C 292.089844 117.820312 292.160156 115.671875 292.199219 114.050781 Z M 292.199219 114.050781 " transform="matrix(1,0,0,-1,0,205)"/>
<path style="fill-rule:nonzero;fill:rgb(1.199341%,7.099915%,15.299988%);fill-opacity:1;stroke-width:0.09375;stroke-linecap:butt;stroke-linejoin:miter;stroke:rgb(1.199341%,7.099915%,15.299988%);stroke-opacity:1;stroke-miterlimit:10;" d="M 316.171875 117.851562 C 318.25 121.011719 323.199219 121.710938 325.800781 118.800781 C 331.578125 113.019531 331.160156 103.398438 327.03125 96.789062 C 325.179688 95.941406 323.289062 94.609375 321.160156 95.089844 C 319.210938 95.558594 317.691406 96.96875 316.070312 98.050781 C 313.121094 104.160156 311.921875 112.03125 316.171875 117.851562 M 319.398438 118.710938 C 314.859375 115.679688 314.308594 109.25 315.410156 104.339844 C 316.179688 100.921875 318.191406 97 322.011719 96.429688 C 325.160156 96.601562 327.078125 99.441406 327.871094 102.191406 C 329.378906 107.199219 328.648438 113.121094 325.210938 117.179688 C 323.871094 118.839844 321.378906 119.769531 319.398438 118.710938 Z M 319.398438 118.710938 " transform="matrix(1,0,0,-1,0,205)"/>
<path style="fill-rule:nonzero;fill:rgb(100%,100%,100%);fill-opacity:1;stroke-width:0.09375;stroke-linecap:butt;stroke-linejoin:miter;stroke:rgb(100%,100%,100%);stroke-opacity:1;stroke-miterlimit:10;" d="M 319.398438 118.710938 C 321.378906 119.769531 323.871094 118.839844 325.210938 117.179688 C 328.648438 113.121094 329.378906 107.199219 327.871094 102.191406 C 327.078125 99.441406 325.160156 96.601562 322.011719 96.429688 C 318.191406 97 316.179688 100.921875 315.410156 104.339844 C 314.308594 109.25 314.859375 115.679688 319.398438 118.710938 M 321.128906 103.078125 C 320.710938 100.921875 323.511719 101.089844 324.878906 101.019531 C 325.21875 102.378906 326.339844 103.929688 325.171875 105.210938 C 323.570312 106.648438 320.78125 105.28125 321.128906 103.078125 Z M 321.128906 103.078125 " transform="matrix(1,0,0,-1,0,205)"/>
<path style="fill-rule:nonzero;fill:rgb(1.199341%,7.099915%,15.299988%);fill-opacity:1;stroke-width:0.09375;stroke-linecap:butt;stroke-linejoin:miter;stroke:rgb(1.199341%,7.099915%,15.299988%);stroke-opacity:1;stroke-miterlimit:10;" d="M 292.199219 114.050781 C 292.160156 115.671875 292.089844 117.820312 294.140625 118.199219 C 296.160156 119.179688 297.550781 115.929688 296.300781 114.558594 C 295.550781 112.808594 293.511719 113.769531 292.199219 114.050781 Z M 292.199219 114.050781 " transform="matrix(1,0,0,-1,0,205)"/>
<path style="fill-rule:nonzero;fill:rgb(100%,100%,100%);fill-opacity:1;stroke-width:0.09375;stroke-linecap:butt;stroke-linejoin:miter;stroke:rgb(100%,100%,100%);stroke-opacity:1;stroke-miterlimit:10;" d="M 270.539062 105.480469 C 272.160156 111.488281 278.019531 114.859375 283.730469 116.128906 C 284.960938 112.648438 286.980469 108.910156 290.730469 107.710938 C 293.089844 106.558594 295.558594 107.871094 297.769531 108.710938 C 299.269531 107.140625 300.800781 105.589844 302.121094 103.859375 C 303.238281 100.601562 304.441406 96.691406 308.050781 95.398438 C 310.769531 95.140625 312.800781 97.488281 314.851562 98.910156 C 315.148438 98.699219 315.761719 98.269531 316.070312 98.050781 C 317.691406 96.96875 319.210938 95.558594 321.160156 95.089844 C 323.289062 94.609375 325.179688 95.941406 327.03125 96.789062 C 327.621094 96.179688 328.21875 95.558594 328.808594 94.941406 C 333.160156 90.828125 334.21875 83.921875 331.890625 78.558594 C 331.191406 78.691406 329.78125 78.929688 329.070312 79.058594 C 329.300781 78.109375 329.539062 77.160156 329.78125 76.210938 C 323.308594 71.609375 315.148438 70.050781 307.378906 71.488281 C 296.019531 73.46875 284.75 78.03125 276.25 85.96875 C 272.179688 91.511719 268.328125 98.398438 270.539062 105.480469 M 288.148438 104.351562 C 285.730469 100.511719 283.300781 96.058594 284.378906 91.359375 C 285.789062 85.5 291.371094 81.628906 296.898438 80.050781 C 302.359375 78.25 308.429688 79.789062 312.988281 83.089844 C 314.109375 83.648438 315.460938 85.679688 313.671875 86.351562 C 306.558594 89.589844 299.820312 93.75 294.148438 99.148438 C 292.210938 100.949219 290.679688 103.300781 288.148438 104.351562 Z M 288.148438 104.351562 " transform="matrix(1,0,0,-1,0,205)"/>
<path style="fill-rule:nonzero;fill:rgb(100%,100%,100%);fill-opacity:1;stroke-width:0.09375;stroke-linecap:butt;stroke-linejoin:miter;stroke:rgb(100%,100%,100%);stroke-opacity:1;stroke-miterlimit:10;" d="M 228.558594 107.601562 C 230.03125 109.089844 233.289062 109.378906 233.800781 106.808594 C 234.359375 102.238281 234.511719 97.628906 235.101562 93.058594 C 232.910156 93.988281 230.691406 95.621094 228.191406 95.140625 C 226.539062 94.589844 225.511719 93.03125 224.21875 91.949219 C 223.320312 97.398438 224.121094 103.808594 228.558594 107.601562 Z M 228.558594 107.601562 " transform="matrix(1,0,0,-1,0,205)"/>
<path style="fill-rule:nonzero;fill:rgb(1.199341%,7.099915%,15.299988%);fill-opacity:1;stroke-width:0.09375;stroke-linecap:butt;stroke-linejoin:miter;stroke:rgb(1.199341%,7.099915%,15.299988%);stroke-opacity:1;stroke-miterlimit:10;" d="M 321.128906 103.078125 C 320.78125 105.28125 323.570312 106.648438 325.171875 105.210938 C 326.339844 103.929688 325.21875 102.378906 324.878906 101.019531 C 323.511719 101.089844 320.710938 100.921875 321.128906 103.078125 Z M 321.128906 103.078125 " transform="matrix(1,0,0,-1,0,205)"/>
<path style="fill-rule:nonzero;fill:rgb(1.199341%,7.099915%,15.299988%);fill-opacity:1;stroke-width:0.09375;stroke-linecap:butt;stroke-linejoin:miter;stroke:rgb(1.199341%,7.099915%,15.299988%);stroke-opacity:1;stroke-miterlimit:10;" d="M 302.121094 103.859375 C 302.828125 104.351562 304.261719 105.320312 304.96875 105.808594 C 308.78125 104.320312 312.28125 102.148438 314.851562 98.910156 C 312.800781 97.488281 310.769531 95.140625 308.050781 95.398438 C 304.441406 96.691406 303.238281 100.601562 302.121094 103.859375 Z M 302.121094 103.859375 " transform="matrix(1,0,0,-1,0,205)"/>
<path style="fill-rule:nonzero;fill:rgb(1.199341%,7.099915%,15.299988%);fill-opacity:1;stroke-width:0.09375;stroke-linecap:butt;stroke-linejoin:miter;stroke:rgb(1.199341%,7.099915%,15.299988%);stroke-opacity:1;stroke-miterlimit:10;" d="M 288.148438 104.351562 C 290.679688 103.300781 292.210938 100.949219 294.148438 99.148438 C 299.820312 93.75 306.558594 89.589844 313.671875 86.351562 C 315.460938 85.679688 314.109375 83.648438 312.988281 83.089844 C 308.429688 79.789062 302.359375 78.25 296.898438 80.050781 C 291.371094 81.628906 285.789062 85.5 284.378906 91.359375 C 283.300781 96.058594 285.730469 100.511719 288.148438 104.351562 M 287.039062 88.980469 C 292.058594 80.261719 305.429688 78.03125 312.890625 84.941406 C 303.890625 89.230469 295.371094 94.851562 288.878906 102.511719 C 286.128906 98.710938 284.460938 93.300781 287.039062 88.980469 Z M 287.039062 88.980469 " transform="matrix(1,0,0,-1,0,205)"/>
<path style="fill-rule:nonzero;fill:rgb(100%,100%,100%);fill-opacity:1;stroke-width:0.09375;stroke-linecap:butt;stroke-linejoin:miter;stroke:rgb(100%,100%,100%);stroke-opacity:1;stroke-miterlimit:10;" d="M 287.039062 88.980469 C 284.460938 93.300781 286.128906 98.710938 288.878906 102.511719 C 295.371094 94.851562 303.890625 89.230469 312.890625 84.941406 C 305.429688 78.03125 292.058594 80.261719 287.039062 88.980469 Z M 287.039062 88.980469 " transform="matrix(1,0,0,-1,0,205)"/>
<path style="fill-rule:nonzero;fill:rgb(100%,67.098999%,9.799194%);fill-opacity:1;stroke-width:0.09375;stroke-linecap:butt;stroke-linejoin:miter;stroke:rgb(100%,67.098999%,9.799194%);stroke-opacity:1;stroke-miterlimit:10;" d="M 224.21875 91.949219 C 225.511719 93.03125 226.539062 94.589844 228.191406 95.140625 C 230.691406 95.621094 232.910156 93.988281 235.101562 93.058594 C 235.761719 88.800781 238.210938 85.199219 241.28125 82.289062 C 243.199219 80.679688 243.421875 78.089844 244.011719 75.828125 C 242.160156 75.769531 240.140625 75.371094 238.480469 76.449219 C 232.179688 79.828125 226.640625 85.089844 224.21875 91.949219 Z M 224.21875 91.949219 " transform="matrix(1,0,0,-1,0,205)"/>
<path style="fill-rule:nonzero;fill:rgb(100%,67.098999%,9.799194%);fill-opacity:1;stroke-width:0.09375;stroke-linecap:butt;stroke-linejoin:miter;stroke:rgb(100%,67.098999%,9.799194%);stroke-opacity:1;stroke-miterlimit:10;" d="M 249.339844 93.789062 C 253.75 94.78125 258.351562 95.28125 262.859375 94.730469 C 266.140625 94.359375 268.96875 91.570312 269.140625 88.230469 C 264.859375 85.25 259.410156 86.058594 254.769531 84.238281 C 253.71875 81.199219 255.691406 77.691406 254.351562 74.671875 C 252.710938 71.539062 247.621094 72.320312 246.199219 75.28125 C 243.851562 79.71875 243.78125 85.128906 245.011719 89.921875 C 245.460938 92.019531 247.328125 93.359375 249.339844 93.789062 Z M 249.339844 93.789062 " transform="matrix(1,0,0,-1,0,205)"/>
<path style="fill-rule:nonzero;fill:rgb(100%,67.098999%,9.799194%);fill-opacity:1;stroke-width:0.09375;stroke-linecap:butt;stroke-linejoin:miter;stroke:rgb(100%,67.098999%,9.799194%);stroke-opacity:1;stroke-miterlimit:10;" d="M 255.828125 83.210938 C 261.03125 84.28125 266.980469 83.898438 270.960938 88.078125 C 274.601562 84.558594 278.609375 81.441406 282.960938 78.839844 C 284.328125 78.269531 284.210938 76.511719 283.671875 75.398438 C 282.660156 72.949219 280.570312 71.21875 278.371094 69.859375 C 277.53125 73.230469 276.738281 77.941406 272.78125 78.929688 C 269.449219 79.191406 265.640625 77.710938 263.820312 74.828125 C 263.398438 71.019531 264.730469 67.140625 267.238281 64.261719 C 266.53125 60.488281 268.460938 56.929688 269.308594 53.339844 C 270.800781 48.921875 271.730469 44.140625 274.109375 40.121094 C 278.390625 37.558594 283.761719 35.960938 286.378906 31.359375 C 288.050781 28.769531 285.980469 25.070312 282.921875 25.148438 C 277.808594 25.539062 273.378906 28.449219 269.128906 31.050781 C 267.601562 32.191406 265.550781 33.089844 264.980469 35.070312 C 260.710938 46.941406 257.730469 59.21875 253.46875 71.078125 C 256.851562 74.28125 256.5 78.988281 255.828125 83.210938 Z M 255.828125 83.210938 " transform="matrix(1,0,0,-1,0,205)"/>
<path style="fill-rule:nonzero;fill:rgb(100%,100%,100%);fill-opacity:1;stroke-width:0.09375;stroke-linecap:butt;stroke-linejoin:miter;stroke:rgb(100%,100%,100%);stroke-opacity:1;stroke-miterlimit:10;" d="M 263.820312 74.828125 C 265.640625 77.710938 269.449219 79.191406 272.78125 78.929688 C 276.738281 77.941406 277.53125 73.230469 278.371094 69.859375 C 275.339844 66.898438 271.210938 65.460938 267.238281 64.261719 C 264.730469 67.140625 263.398438 71.019531 263.820312 74.828125 Z M 263.820312 74.828125 " transform="matrix(1,0,0,-1,0,205)"/>
<path style="fill-rule:nonzero;fill:rgb(100%,67.098999%,9.799194%);fill-opacity:1;stroke-width:0.09375;stroke-linecap:butt;stroke-linejoin:miter;stroke:rgb(100%,67.098999%,9.799194%);stroke-opacity:1;stroke-miterlimit:10;" d="M 221.460938 77.761719 C 224.339844 80.269531 226.898438 76.410156 229.359375 75.210938 C 234.078125 73.761719 239.078125 74.320312 243.929688 74.03125 C 246.550781 72.859375 248.921875 71.109375 251.851562 70.730469 C 252.628906 68.628906 253.359375 66.511719 254.011719 64.371094 C 246.421875 63.789062 238.871094 64.679688 231.378906 65.710938 C 229.449219 63.480469 230.921875 59.96875 229.949219 57.269531 C 227.621094 54.558594 222.910156 55.550781 221.75 58.890625 C 219.171875 64.660156 218.140625 72.101562 221.460938 77.761719 Z M 221.460938 77.761719 " transform="matrix(1,0,0,-1,0,205)"/>
<path style="fill-rule:nonzero;fill:rgb(100%,67.098999%,9.799194%);fill-opacity:1;stroke-width:0.09375;stroke-linecap:butt;stroke-linejoin:miter;stroke:rgb(100%,67.098999%,9.799194%);stroke-opacity:1;stroke-miterlimit:10;" d="M 278.269531 67.148438 C 280.441406 69.339844 282.699219 71.441406 284.949219 73.558594 C 286.25 70.398438 287.019531 66.839844 289.398438 64.261719 C 293.019531 63.601562 296.808594 65.980469 300.320312 64.371094 C 301.761719 63.171875 302.519531 61.109375 301.960938 59.28125 C 298.699219 56.011719 293.671875 55.140625 289.238281 55.378906 C 283.210938 56.039062 279.808594 61.859375 278.269531 67.148438 Z M 278.269531 67.148438 " transform="matrix(1,0,0,-1,0,205)"/>
</g>
</svg>
