<?xml version="1.0" encoding="UTF-8" ?>
<!DOCTYPE svg PUBLIC "-//W3C//DTD SVG 1.1//EN" "http://www.w3.org/Graphics/SVG/1.1/DTD/svg11.dtd">
<svg width="186pt" height="214pt" viewBox="0 0 186 214" version="1.1" xmlns="http://www.w3.org/2000/svg">
<g id="#000000ff">
<path fill="#000000" opacity="1.00" d=" M 92.91 0.00 L 93.39 0.00 C 124.15 17.69 154.76 35.67 185.67 53.11 C 185.97 56.38 185.90 59.68 185.87 62.96 C 185.90 92.98 185.84 123.00 185.90 153.02 C 185.98 155.42 184.75 157.95 186.00 160.21 L 186.00 160.70 C 184.47 161.19 183.04 161.93 181.63 162.70 C 152.24 179.55 122.99 196.67 93.54 213.43 C 93.57 213.57 93.63 213.86 93.67 214.00 L 93.33 214.00 C 93.36 213.87 93.42 213.60 93.46 213.47 C 88.84 211.17 84.47 208.43 79.99 205.89 C 53.62 190.61 27.14 175.50 0.83 160.12 C 1.03 124.49 0.65 88.85 1.02 53.22 C 29.90 36.79 58.57 20.01 87.39 3.48 C 89.31 2.45 91.16 1.30 92.91 0.00 M 23.69 53.59 C 46.91 66.89 70.07 80.30 93.22 93.72 C 116.50 80.27 139.91 67.01 163.03 53.30 C 139.69 40.05 116.58 26.41 93.24 13.16 C 70.16 26.81 46.67 39.79 23.69 53.59 M 12.28 153.67 C 37.44 168.11 62.48 182.76 87.70 197.10 C 87.64 165.93 87.72 134.76 87.65 103.59 C 62.52 89.13 37.40 74.62 12.30 60.09 C 12.23 91.28 12.27 122.48 12.28 153.67 M 99.21 103.34 C 98.87 134.60 99.18 165.88 99.06 197.15 C 124.20 182.79 149.16 168.09 174.36 153.83 C 174.66 122.58 174.38 91.31 174.50 60.05 C 149.33 74.35 124.42 89.10 99.21 103.34 Z" />
<path fill="#000000" opacity="1.00" d=" M 86.44 43.53 C 92.54 41.89 99.33 42.37 104.92 45.41 C 107.70 46.99 110.29 49.62 110.45 52.98 C 110.61 56.53 107.93 59.43 105.04 61.09 C 98.62 64.59 90.60 64.87 83.85 62.13 C 79.81 60.57 75.57 56.82 76.40 52.06 C 77.41 47.36 82.16 44.73 86.44 43.53 Z" />
<path fill="#000000" opacity="1.00" d=" M 29.98 83.90 C 33.19 85.71 36.36 87.61 39.60 89.38 C 46.36 107.92 53.29 126.41 59.72 145.07 C 60.28 130.46 59.64 115.82 60.05 101.21 C 63.02 102.94 65.95 104.75 69.02 106.31 C 69.39 128.34 69.08 150.39 69.17 172.43 C 65.84 170.54 62.55 168.59 59.21 166.72 C 52.49 148.67 46.08 130.50 39.24 112.50 C 39.15 126.71 39.24 140.92 39.20 155.13 C 36.13 153.38 33.09 151.58 30.00 149.86 C 29.91 127.87 29.95 105.88 29.98 83.90 Z" />
<path fill="#000000" opacity="1.00" d=" M 139.50 94.31 C 142.86 92.68 147.06 91.24 150.58 93.27 C 154.95 95.86 156.65 101.11 157.54 105.83 C 159.48 119.99 157.88 135.08 150.80 147.69 C 147.50 153.22 142.85 157.96 137.30 161.25 C 130.53 165.27 123.68 169.15 116.86 173.09 C 116.92 151.07 116.70 129.04 116.97 107.03 C 124.56 102.93 131.82 98.24 139.50 94.31 M 126.77 112.78 C 127.01 127.23 126.75 141.69 126.91 156.14 C 131.51 153.36 136.48 151.08 140.61 147.57 C 146.05 142.65 147.32 134.97 147.81 128.01 C 148.01 122.01 148.43 115.79 146.62 109.99 C 145.90 107.15 143.05 104.75 140.03 105.75 C 135.29 107.38 130.95 110.05 126.77 112.78 Z" />
</g>
<g id="#ffffffff">
<path fill="#ffffff" opacity="1.00" d=" M 23.69 53.59 C 46.67 39.79 70.16 26.81 93.24 13.16 C 116.58 26.41 139.69 40.05 163.03 53.30 C 139.91 67.01 116.50 80.27 93.22 93.72 C 70.07 80.30 46.91 66.89 23.69 53.59 M 86.44 43.53 C 82.16 44.73 77.41 47.36 76.40 52.06 C 75.57 56.82 79.81 60.57 83.85 62.13 C 90.60 64.87 98.62 64.59 105.04 61.09 C 107.93 59.43 110.61 56.53 110.45 52.98 C 110.29 49.62 107.70 46.99 104.92 45.41 C 99.33 42.37 92.54 41.89 86.44 43.53 Z" />
<path fill="#ffffff" opacity="1.00" d=" M 12.28 153.67 C 12.27 122.48 12.23 91.28 12.30 60.09 C 37.40 74.62 62.52 89.13 87.65 103.59 C 87.72 134.76 87.64 165.93 87.70 197.10 C 62.48 182.76 37.44 168.11 12.28 153.67 M 29.98 83.90 C 29.95 105.88 29.91 127.87 30.00 149.86 C 33.09 151.58 36.13 153.38 39.20 155.13 C 39.24 140.92 39.15 126.71 39.24 112.50 C 46.08 130.50 52.49 148.67 59.21 166.72 C 62.55 168.59 65.84 170.54 69.17 172.43 C 69.08 150.39 69.39 128.34 69.02 106.31 C 65.95 104.75 63.02 102.94 60.05 101.21 C 59.64 115.82 60.28 130.46 59.72 145.07 C 53.29 126.41 46.36 107.92 39.60 89.38 C 36.36 87.61 33.19 85.71 29.98 83.90 Z" />
<path fill="#ffffff" opacity="1.00" d=" M 99.21 103.34 C 124.42 89.10 149.33 74.35 174.50 60.05 C 174.38 91.31 174.66 122.58 174.36 153.83 C 149.16 168.09 124.20 182.79 99.06 197.15 C 99.18 165.88 98.87 134.60 99.21 103.34 M 139.50 94.31 C 131.82 98.24 124.56 102.93 116.97 107.03 C 116.70 129.04 116.92 151.07 116.86 173.09 C 123.68 169.15 130.53 165.27 137.30 161.25 C 142.85 157.96 147.50 153.22 150.80 147.69 C 157.88 135.08 159.48 119.99 157.54 105.83 C 156.65 101.11 154.95 95.86 150.58 93.27 C 147.06 91.24 142.86 92.68 139.50 94.31 Z" />
<path fill="#ffffff" opacity="1.00" d=" M 126.77 112.78 C 130.95 110.05 135.29 107.38 140.03 105.75 C 143.05 104.75 145.90 107.15 146.62 109.99 C 148.43 115.79 148.01 122.01 147.81 128.01 C 147.32 134.97 146.05 142.65 140.61 147.57 C 136.48 151.08 131.51 153.36 126.91 156.14 C 126.75 141.69 127.01 127.23 126.77 112.78 Z" />
</g>
</svg>
