<svg xmlns="http://www.w3.org/2000/svg" xmlns:xlink="http://www.w3.org/1999/xlink" viewBox="0 0 304.66 155.76"><defs><linearGradient id="a" x1="234.68" x2="234.68" y1="69.72" y2="69.72" gradientUnits="userSpaceOnUse"><stop offset=".01" stop-color="#e7e6e6"/><stop offset="1" stop-color="#e8e2e4"/></linearGradient><linearGradient id="b" x1="229.06" x2="234.66" y1="71.83" y2="71.83" xlink:href="#a"/><linearGradient id="c" x1="929.34" x2="932.57" y1="669.02" y2="669.02" gradientTransform="translate(1078.11 -730.33) rotate(99.49)" gradientUnits="userSpaceOnUse"><stop offset="0" stop-color="#2b5396"/><stop offset="1" stop-color="#356cb3"/></linearGradient><linearGradient id="d" x1="294.92" x2="294.94" y1="86.6" y2="86.6" xlink:href="#a"/><linearGradient id="e" x1="295.02" x2="295.02" y1="86.72" y2="86.72" xlink:href="#a"/><linearGradient id="f" x1="294.81" x2="294.82" y1="86.14" y2="86.14" xlink:href="#a"/><linearGradient id="g" x1="295.87" x2="295.96" y1="82.52" y2="82.52" xlink:href="#a"/><linearGradient id="h" x1="295.68" x2="295.83" y1="82.61" y2="82.61" xlink:href="#a"/><linearGradient id="i" x1="294.86" x2="294.87" y1="86.42" y2="86.42" xlink:href="#a"/><linearGradient id="j" x1="294.8" x2="294.8" y1="85.84" y2="85.84" xlink:href="#a"/><linearGradient id="k" x1="930.7" x2="935.11" y1="636.78" y2="636.78" gradientTransform="translate(1078.11 -730.33) rotate(99.49)" gradientUnits="userSpaceOnUse"><stop offset="0" stop-color="#9cb4d6"/><stop offset=".01" stop-color="#9db5d6"/><stop offset=".46" stop-color="#cbd6e5"/><stop offset=".8" stop-color="#e7eaef"/><stop offset="1" stop-color="#f2f2f2"/></linearGradient><linearGradient id="l" x1="930.77" x2="935.35" y1="632.21" y2="632.21" gradientTransform="translate(1078.11 -730.33) rotate(99.49)" gradientUnits="userSpaceOnUse"><stop offset="0" stop-color="#e62d25"/><stop offset="1" stop-color="#ed6b7c"/></linearGradient><linearGradient id="m" x1="90.91" x2="90.91" y1="134.37" y2="121.07" gradientTransform="matrix(1, 0, 0, 1, 0, 0)" xlink:href="#c"/><linearGradient id="n" x1="187.72" x2="187.72" y1="134.37" y2="121.07" gradientTransform="matrix(1, 0, 0, 1, 0, 0)" xlink:href="#c"/><linearGradient id="o" x1="191.94" x2="195.19" y1="80.64" y2="80.64" gradientTransform="matrix(1, 0, 0, 1, 0, 0)" xlink:href="#k"/><linearGradient id="p" x1="151.1" x2="163.27" y1="61.17" y2="61.17" gradientTransform="translate(136.98 228.62) rotate(-104.38)" xlink:href="#c"/><linearGradient id="q" x1="151.1" x2="154.93" y1="78.79" y2="78.79" xlink:href="#a"/><linearGradient id="r" x1="159.84" x2="164.4" y1="41.63" y2="41.63" gradientTransform="translate(162.29 208.97) rotate(-104.38)" xlink:href="#l"/><linearGradient id="s" x1="187.68" x2="195.56" y1="8.15" y2="8.15" gradientTransform="matrix(1, 0, 0, 1, 0, 0)" xlink:href="#k"/></defs><g style="isolation:isolate"><polygon fill="#2764ae" points="303.45 88.55 290.4 91.74 223.86 77.43 239.67 73.2 303.45 88.55" opacity=".5" style="mix-blend-mode:multiply"/><path fill="#356cb3" d="M229.11,71.59h0a.53.53,0,0,1,0-.16v-.05a1.77,1.77,0,0,1,0-.24,2.26,2.26,0,0,1,.34-1.09.16.16,0,0,1,.11-.07h0l-2.6.14h0a.62.62,0,0,0-.07.24v.08h0s0,0,0,0l2.32,1.16h0A.08.08,0,0,1,229.11,71.59Z"/><polygon fill="url(#a)" points="234.68 69.72 234.68 69.72 234.68 69.72 234.68 69.72"/><path fill="url(#b)" d="M233.73,73.93h0a.31.31,0,0,1-.08-.11s0,0,0,0,0-.08,0-.13,0,0,0,0a1.57,1.57,0,0,1,0-.23v-.06c0-.07,0-.15,0-.23V73c0-.1,0-.21,0-.34a5.63,5.63,0,0,1,.86-2.78.44.44,0,0,1,.15-.13l.05,0,.07,0h0l-5.14.27h0a.16.16,0,0,0-.11.07,2.26,2.26,0,0,0-.34,1.09,1.77,1.77,0,0,0,0,.24v.05a.53.53,0,0,0,0,.16h0a.08.08,0,0,0,0,0h0L233.77,74h0Z"/><path fill="#356cb3" d="M234.68,69.72h0l-.07,0A.14.14,0,0,1,234.68,69.72Z"/><path fill="#356cb3" d="M233.53,73.32v0Z"/><path fill="#356cb3" d="M233.51,73v0Z"/><path fill="#356cb3" d="M234.39,69.88a.44.44,0,0,1,.15-.13A.44.44,0,0,0,234.39,69.88Z"/><path fill="#356cb3" d="M233.73,73.93Z"/><path fill="#356cb3" d="M233.57,73.61s0,0,0,0S233.57,73.62,233.57,73.61Z"/><path fill="#356cb3" d="M233.65,73.82s0,0,0,0S233.64,73.81,233.65,73.82Z"/><path fill="url(#c)" d="M295,86.72a.27.27,0,0,1-.08-.1.08.08,0,0,1,0,0,.58.58,0,0,1-.05-.14s0,0,0,0a1.37,1.37,0,0,1,0-.23s0,0,0-.06,0-.14,0-.22V85.8c0-.11,0-.22,0-.34a5.7,5.7,0,0,1,.87-2.79.58.58,0,0,1,.15-.13h0l.09,0h0l-4.47-.93-4.33-.91L279,79l-4.83-1-1.32-.28-9.95-2.07-5.14-1.08-1.26-.26-4.89-1-8.13-1.7-4.35-.91-4.46-.93h0a.14.14,0,0,0-.09,0l-.05,0a.44.44,0,0,0-.15.13,5.63,5.63,0,0,0-.86,2.78c0,.13,0,.24,0,.34v.09c0,.08,0,.16,0,.23v.06a1.57,1.57,0,0,0,0,.23s0,0,0,0,0,.09,0,.13,0,0,0,0a.31.31,0,0,0,.08.11h0l.06,0h0l4.46.94,4.34.9,8.15,1.7,4.85,1,1.3.27L262,79.86l10,2.08,1.3.27,4.86,1,8.15,1.7,4.34.91,4.45.93-.07,0Z"/><path fill="url(#d)" d="M294.94,86.62a.08.08,0,0,1,0,0A.08.08,0,0,0,294.94,86.62Z"/><path fill="url(#e)" d="M295,86.72Z"/><path fill="url(#f)" d="M294.81,86.11s0,0,0,.06S294.81,86.13,294.81,86.11Z"/><path fill="url(#g)" d="M295.87,82.53l.09,0Z"/><path fill="url(#h)" d="M295.68,82.67a.58.58,0,0,1,.15-.13A.58.58,0,0,0,295.68,82.67Z"/><path fill="url(#i)" d="M294.86,86.4s0,0,0,0S294.86,86.42,294.86,86.4Z"/><path fill="url(#j)" d="M294.8,85.8v0Z"/><path fill="url(#k)" d="M297,87.15a.19.19,0,0,1-.08,0h0a.27.27,0,0,1-.07-.08s0,0,0,0a.05.05,0,0,1,0,0,.5.5,0,0,1-.05-.13s0,0,0,0a1.24,1.24,0,0,1,0-.22.13.13,0,0,0,0-.06c0-.07,0-.15,0-.23v-.09c0-.1,0-.22,0-.34a5.73,5.73,0,0,1,.87-2.78.35.35,0,0,1,.15-.13l.05,0,.09,0h0l-.94-.19-.94-.2h0l-.09,0h0a.58.58,0,0,0-.15.13,5.7,5.7,0,0,0-.87,2.79c0,.12,0,.23,0,.34v.09c0,.08,0,.15,0,.22s0,0,0,.06a1.37,1.37,0,0,0,0,.23s0,0,0,0a.58.58,0,0,0,.05.14.08.08,0,0,0,0,0,.27.27,0,0,0,.08.1h0l.07,0,.94.2h0Z"/><path fill="#ee7486" d="M296.9,87.12Z"/><path fill="#ee7486" d="M296.82,87a.05.05,0,0,1,0,0A.05.05,0,0,0,296.82,87Z"/><path fill="#ee7486" d="M296.7,86.57a.13.13,0,0,0,0-.06A.13.13,0,0,1,296.7,86.57Z"/><path fill="#ee7486" d="M296.75,86.84s0,0,0,0S296.75,86.82,296.75,86.84Z"/><path fill="#ee7486" d="M297.56,83.07a.35.35,0,0,1,.15-.13A.35.35,0,0,0,297.56,83.07Z"/><path fill="#ee7486" d="M297.76,82.92l.09,0Z"/><path fill="#ee7486" d="M296.68,86.28v0Z"/><path fill="url(#l)" d="M297.76,82.92l-.05,0a.35.35,0,0,0-.15.13,5.73,5.73,0,0,0-.87,2.78c0,.12,0,.24,0,.34v.09c0,.08,0,.16,0,.23a.13.13,0,0,1,0,.06,1.24,1.24,0,0,0,0,.22s0,0,0,0a.5.5,0,0,0,.05.13.05.05,0,0,0,0,0s0,0,0,0a.27.27,0,0,0,.07.08h0a.19.19,0,0,0,.08,0h0l5,1,.88.18a1,1,0,0,0,.6,0A1.44,1.44,0,0,0,304,88a2.75,2.75,0,0,0,.19-.28c.05-.08.09-.17.13-.25l0-.06a2.19,2.19,0,0,0,.12-.33h0c0-.12.07-.24.09-.35a.64.64,0,0,0,0-.07c0-.09,0-.18,0-.26s0-.05,0-.08c0-.21,0-.37.05-.42v-.44s0-.06,0-.1l0-.19,0-.12a1.09,1.09,0,0,0,0-.17l0-.08a1.09,1.09,0,0,0-.08-.15l0-.06-.09-.11-.08-.08-.07-.05a1.23,1.23,0,0,0-.43-.2L302,83.76l-.74-.16-1.61-.33-1.75-.37h0Z"/><path fill="#2764ae" d="M272.42,118.47,70.68,154.85a7.67,7.67,0,0,1-7.47-2.61L.35,78.33a1.5,1.5,0,0,1,.91-2.44L187.79,49.14Z" opacity=".5" style="mix-blend-mode:multiply"/><polygon fill="url(#m)" points="175.48 134.75 70.63 155.76 6.35 72.88 6.35 71.67 103.03 61.11 175.48 134.75"/><polygon fill="url(#n)" points="272.42 118.47 175.48 134.75 103.03 61.11 190.62 50.77 272.42 117.55 272.42 118.47"/><polygon fill="#0771b6" points="174.71 133.98 70.68 154.85 6.35 71.67 102.25 60.34 174.71 133.98"/><polygon fill="#0771b6" points="272.42 117.55 174.71 133.98 102.25 60.34 189.85 49.99 272.42 117.55"/><path fill="#cdcccc" d="M174.71,134.31c-11.15-7.18-61.6,7.13-102.78,16.36L14.73,75.83C52.22,68,99.57,55.21,105.88,63.19Z"/><path fill="#e4e4e3" d="M267.69,113.69c-38.87,7.73-83.38,8.85-93,20.68L105.88,63.19h0a11.07,11.07,0,0,1,8.54-5.79l75.07-8.26Z"/><path fill="#e4e4e3" d="M174.28,132.93c-11.14-7.18-61.6,7.13-102.78,16.36L14.3,74.45c37.5-7.81,84.84-20.62,91.16-12.64Z"/><path fill="#cecdcc" d="M267.27,112.31c-38.88,7.73-83.38,8.85-93,20.68L105.46,61.81h0A11,11,0,0,1,114,56l75.06-8.27Z"/><path fill="#fff" d="M174,131.47l-.11-.07c-11.33-7-61.62,7.22-102.67,16.42L53,124,14,73c37.49-7.81,84.83-20.62,91.15-12.64l10,10.32Z"/><path fill="#f2f2f2" d="M174,131.47l-.11-.07c-11.33-7-61.62,7.22-102.67,16.42L53,124C68.61,108.47,92,89,115.18,70.66Z" opacity=".65" style="mix-blend-mode:multiply"/><path fill="#fff" d="M267,110.84c-38.87,7.74-83.38,8.85-93,20.67l-.11-.11L115.18,70.66l-10-10.32a10.9,10.9,0,0,1,3.55-4,11.26,11.26,0,0,1,5-1.84L139.6,51.7l49.2-5.41Z"/><path fill="#e7e6e6" d="M267,110.84c-38.87,7.74-83.38,8.85-93,20.67l-.11-.11L115.18,70.66c8.27-6.53,16.52-12.93,24.42-19l49.2-5.41Z" opacity=".37" style="mix-blend-mode:multiply"/><path fill="none" stroke="#e7e6e6" stroke-miterlimit="10" stroke-width="1.18" d="M259.1,108.67c-35.07,7-75.22,8-83.88,18.65l-62.1-64.21h0a10,10,0,0,1,7.71-5.22l67.72-7.46Z"/><path fill="none" stroke="#e7e6e6" stroke-miterlimit="10" stroke-width="1.18" d="M116,66.12l.68-.54a24.81,24.81,0,0,1,12.7-5.27l62.52-7.07h0"/><path fill="none" stroke="#e7e6e6" stroke-miterlimit="10" stroke-width="1.18" d="M119.79,70l.77-.62a24.9,24.9,0,0,1,12.69-5.26L196.49,57"/><path fill="none" stroke="#e7e6e6" stroke-miterlimit="10" stroke-width="1.18" d="M123.39,73.72l.53-.42A24.82,24.82,0,0,1,136.6,68L201,60.74"/><path fill="none" stroke="#e7e6e6" stroke-miterlimit="10" stroke-width="1.18" d="M127,77.44l.31-.25A24.75,24.75,0,0,1,140,71.92l65.63-7.41"/><path fill="none" stroke="#e7e6e6" stroke-miterlimit="10" stroke-width="1.18" d="M130.56,81.15l.09-.07a24.63,24.63,0,0,1,12.68-5.26l66.81-7.57"/><path fill="none" stroke="#e7e6e6" stroke-miterlimit="10" stroke-width="1.18" d="M134.16,84.86A24.71,24.71,0,0,1,146.7,79.7l68-7.68"/><path fill="none" stroke="#e7e6e6" stroke-miterlimit="10" stroke-width="1.18" d="M137.75,88.57a24.76,24.76,0,0,1,12.31-5l69.2-7.81"/><path fill="none" stroke="#e7e6e6" stroke-miterlimit="10" stroke-width="1.18" d="M141.33,92.29c3.57-2.65,8.32-4.38,23.57-6.05l59-6.66"/><path fill="none" stroke="#e7e6e6" stroke-miterlimit="10" stroke-width="1.18" d="M144.93,96a24.64,24.64,0,0,1,11.86-4.64l71.37-8.24"/><path fill="none" stroke="#e7e6e6" stroke-miterlimit="10" stroke-width="1.18" d="M148.52,99.72a25.15,25.15,0,0,1,11.64-4.47l72.32-8.55"/><path fill="none" stroke="#e7e6e6" stroke-miterlimit="10" stroke-width="1.18" d="M152.12,103.44a24.92,24.92,0,0,1,11.4-4.29l73-9.1"/><path fill="none" stroke="#e7e6e6" stroke-miterlimit="10" stroke-width="1.18" d="M156.25,107.71l.29-.22a24.73,24.73,0,0,1,12.68-5.26l71.32-8.88"/><path fill="none" stroke="#e7e6e6" stroke-miterlimit="10" stroke-width="1.18" d="M160.42,112l1.81-1.45a25,25,0,0,1,12.68-5.26l69.62-8.67"/><path fill="none" stroke="#e7e6e6" stroke-miterlimit="10" stroke-width="1.18" d="M165,116.76l2.17-1.74a24.81,24.81,0,0,1,12.7-5.27l68.33-10.07"/><path fill="none" stroke="#e7e6e6" stroke-miterlimit="10" stroke-width="1.18" d="M169.65,121.57l2.27-1.81a24.81,24.81,0,0,1,12.69-5.27l69.19-10.2"/><line x1="116.65" x2="179.28" y1="59.35" y2="124.07" fill="none" stroke="#e7e6e6" stroke-miterlimit="10" stroke-width="1.18"/><line x1="122.41" x2="183.65" y1="57.82" y2="122.05" fill="none" stroke="#e7e6e6" stroke-miterlimit="10" stroke-width="1.18"/><line x1="128.03" x2="188.76" y1="56.99" y2="120.69" fill="none" stroke="#e7e6e6" stroke-miterlimit="10" stroke-width="1.18"/><line x1="133.93" x2="193.88" y1="56.45" y2="119.32" fill="none" stroke="#e7e6e6" stroke-miterlimit="10" stroke-width="1.18"/><line x1="139.74" x2="198.99" y1="55.81" y2="117.95" fill="none" stroke="#e7e6e6" stroke-miterlimit="10" stroke-width="1.18"/><line x1="145.69" x2="204.64" y1="55.15" y2="116.98" fill="none" stroke="#e7e6e6" stroke-miterlimit="10" stroke-width="1.18"/><line x1="150.57" x2="209.52" y1="54.4" y2="116.22" fill="none" stroke="#e7e6e6" stroke-miterlimit="10" stroke-width="1.18"/><line x1="155.81" x2="216.37" y1="54.02" y2="115.25" fill="none" stroke="#e7e6e6" stroke-miterlimit="10" stroke-width="1.18"/><line x1="160.85" x2="221.93" y1="53.42" y2="114.48" fill="none" stroke="#e7e6e6" stroke-miterlimit="10" stroke-width="1.18"/><line x1="166.29" x2="228.6" y1="52.78" y2="113.56" fill="none" stroke="#e7e6e6" stroke-miterlimit="10" stroke-width="1.18"/><line x1="171.09" x2="236.54" y1="52.35" y2="112.44" fill="none" stroke="#e7e6e6" stroke-miterlimit="10" stroke-width="1.18"/><line x1="176.2" x2="244.53" y1="51.79" y2="111.23" fill="none" stroke="#e7e6e6" stroke-miterlimit="10" stroke-width="1.18"/><line x1="182.02" x2="252.24" y1="51.15" y2="109.95" fill="none" stroke="#e7e6e6" stroke-miterlimit="10" stroke-width="1.18"/><path fill="none" stroke="#b4b4b4" stroke-miterlimit="10" stroke-width="1.29" d="M192.64,87.28l35.73,1.53c-.28,6.72-18.11,11.52-39.49,10.63S150.12,92.3,150.4,85.58c.24-5.78,13.47-10.27,31.54-10.7"/><path fill="none" stroke="#e7e6e6" stroke-miterlimit="10" stroke-width="1.2" d="M72.67,143.46c39.93-8.2,69.48-21.14,91.79-17L103,64.33h0c-5.93-1.78-11.29-2.52-14.29-2L20.17,75.11Z"/><path fill="none" stroke="#e7e6e6" stroke-miterlimit="10" stroke-width="1.2" d="M22.7,78.41h0l63.81-12c4.31-.81,10.57-.57,18,.66l1.37.23"/><path fill="none" stroke="#e7e6e6" stroke-miterlimit="10" stroke-width="1.2" d="M26.09,82.81l64.18-12.5c4.29-.83,10.51-.62,17.89.57l1.54.25"/><path fill="none" stroke="#e7e6e6" stroke-miterlimit="10" stroke-width="1.2" d="M29.47,87.22l65-13.11c4.24-.85,10.42-.68,17.78.49l1.06.17"/><path fill="none" stroke="#e7e6e6" stroke-miterlimit="10" stroke-width="1.2" d="M32.87,91.64,98.63,77.91c4.21-.88,10.34-.73,17.65.4l.61.1"/><path fill="none" stroke="#e7e6e6" stroke-miterlimit="10" stroke-width="1.2" d="M36.24,96l66.55-14.34c4.16-.9,10.25-.79,17.51.31l.18,0"/><path fill="none" stroke="#e7e6e6" stroke-miterlimit="10" stroke-width="1.2" d="M39.64,100.45l67.28-15c4.08-.91,10-.83,17.14.2"/><path fill="none" stroke="#e7e6e6" stroke-miterlimit="10" stroke-width="1.2" d="M43,104.87l68-15.66c4-.91,9.71-.89,16.58.05"/><path fill="none" stroke="#e7e6e6" stroke-miterlimit="10" stroke-width="1.2" d="M46.46,109.33,105,95.44c13.53-3.27,19.59-3.41,26.24-2.58"/><path fill="none" stroke="#e7e6e6" stroke-miterlimit="10" stroke-width="1.2" d="M49.67,113.5l69.59-16.81c3.74-.92,9.1-1,15.5-.22"/><path fill="none" stroke="#e7e6e6" stroke-miterlimit="10" stroke-width="1.2" d="M52.88,117.69l70.45-17.29c3.65-.91,8.82-1,15-.34"/><path fill="none" stroke="#e7e6e6" stroke-miterlimit="10" stroke-width="1.2" d="M55.91,121.62l71.5-17.51c3.51-.91,8.5-1.06,14.45-.47"/><path fill="none" stroke="#e7e6e6" stroke-miterlimit="10" stroke-width="1.2" d="M58.87,125.49,128.59,108c4-1.07,9.83-1.15,16.81-.28l.53.06"/><path fill="none" stroke="#e7e6e6" stroke-miterlimit="10" stroke-width="1.2" d="M61.84,129.35l67.92-17.51c4-1.08,9.84-1.2,16.83-.37l3.43.42"/><path fill="none" stroke="#e7e6e6" stroke-miterlimit="10" stroke-width="1.2" d="M64.57,132.92l69.08-16.51c4-1.11,9.79-1.26,16.75-.46l4.1.47"/><path fill="none" stroke="#e7e6e6" stroke-miterlimit="10" stroke-width="1.2" d="M68.73,138.33l69.46-17.22c3.92-1.13,9.7-1.33,16.62-.56l4.24.47"/><line x1="94.18" x2="156.89" y1="62.41" y2="125.69" fill="none" stroke="#e7e6e6" stroke-miterlimit="10" stroke-width="1.2"/><line x1="87.41" x2="150.93" y1="62.72" y2="125.79" fill="none" stroke="#e7e6e6" stroke-miterlimit="10" stroke-width="1.2"/><line x1="81.82" x2="145.43" y1="63.53" y2="126.57" fill="none" stroke="#e7e6e6" stroke-miterlimit="10" stroke-width="1.2"/><line x1="76.43" x2="139.84" y1="64.64" y2="127.35" fill="none" stroke="#e7e6e6" stroke-miterlimit="10" stroke-width="1.2"/><line x1="70.86" x2="134.16" y1="65.68" y2="128.15" fill="none" stroke="#e7e6e6" stroke-miterlimit="10" stroke-width="1.2"/><line x1="65.05" x2="128.67" y1="66.76" y2="129.41" fill="none" stroke="#e7e6e6" stroke-miterlimit="10" stroke-width="1.2"/><line x1="59.82" x2="124" y1="67.49" y2="130.57" fill="none" stroke="#e7e6e6" stroke-miterlimit="10" stroke-width="1.2"/><line x1="54.91" x2="117.48" y1="68.63" y2="132.29" fill="none" stroke="#e7e6e6" stroke-miterlimit="10" stroke-width="1.2"/><line x1="49.7" x2="112.11" y1="69.55" y2="133.72" fill="none" stroke="#e7e6e6" stroke-miterlimit="10" stroke-width="1.2"/><line x1="43.98" x2="105.57" y1="70.56" y2="135.47" fill="none" stroke="#e7e6e6" stroke-miterlimit="10" stroke-width="1.2"/><line x1="39.13" x2="97.58" y1="71.58" y2="137.58" fill="none" stroke="#e7e6e6" stroke-miterlimit="10" stroke-width="1.2"/><line x1="33.68" x2="89.2" y1="72.6" y2="139.71" fill="none" stroke="#e7e6e6" stroke-miterlimit="10" stroke-width="1.2"/><line x1="27.37" x2="80.69" y1="73.77" y2="141.73" fill="none" stroke="#e7e6e6" stroke-miterlimit="10" stroke-width="1.2"/><path fill="#b4b4b4" d="M81.59,117.24,51.93,86l-8.58-9c-.41-.42-1.05.22-.65.64l28.61,30.09L81,117.89c.4.42,1-.22.64-.65Z"/><path fill="#b4b4b4" d="M47,93,98.73,83c.58-.11.34-1-.24-.88l-51.77,10c-.58.11-.33,1,.24.87Z"/><path fill="#b4b4b4" d="M98.75,82.1a4.67,4.67,0,0,0-1.07-.42c-.49-.16-1-.28-1.5-.4a13,13,0,0,0-2.7-.44.46.46,0,0,0,0,.91,3.25,3.25,0,0,1,.44,0h0l.16,0,.33,0c.49.09,1,.19,1.48.3s1,.23,1.45.38a5.66,5.66,0,0,1,.58.2l.11,0h0l.18.1c.5.31.95-.48.46-.79Z"/><path fill="#b4b4b4" d="M98.39,82.06a1.73,1.73,0,0,0-.64.4,2.12,2.12,0,0,0-.37.48c-.16.29-.27.6-.43.88a.46.46,0,1,0,.79.46c.15-.26.25-.56.4-.83l.12-.2,0,0c0-.06-.07.09,0,0l.09-.09a.38.38,0,0,1,.09-.09s.09-.06,0,0l0,0,.11-.07.06,0h0a.5.5,0,0,0,.27-.21.43.43,0,0,0,0-.35.44.44,0,0,0-.56-.31Z"/><path fill="#b4b4b4" d="M80,87.93c.06,0-.14,0,0,0h0L80,88s0,0,0,0c.09.06.21.1.3.15l.71.47c.25.17.49.35.73.53l.07.06c-.09-.09,0,0,0,0l.14.11.25.2a.46.46,0,0,0,.64-.65c-.46-.37-.94-.74-1.42-1.08-.24-.16-.48-.33-.74-.47A1.73,1.73,0,0,0,80,87a.45.45,0,0,0-.45.45.46.46,0,0,0,.45.46Z"/><path fill="#b4b4b4" d="M85,91.21l1.55,1.23a.48.48,0,0,0,.32.13.46.46,0,0,0,.32-.13.49.49,0,0,0,.14-.32.43.43,0,0,0-.14-.32l-1.54-1.23a.49.49,0,0,0-.32-.14.45.45,0,0,0-.33.14.46.46,0,0,0,0,.64Z"/><path fill="#b4b4b4" d="M88.88,94.31l2.44,1.94a.48.48,0,0,0,.64,0,.47.47,0,0,0,0-.65l-2.44-1.94a.48.48,0,0,0-.64,0,.47.47,0,0,0,0,.65Z"/><path fill="#b4b4b4" d="M93.16,97.72l1.47,1.16A.46.46,0,0,0,95,99a.48.48,0,0,0,.32-.13.44.44,0,0,0,.13-.32.42.42,0,0,0-.13-.32l-1.46-1.17a.51.51,0,0,0-.33-.13.48.48,0,0,0-.32.13.44.44,0,0,0-.13.32.44.44,0,0,0,.13.33Z"/><path fill="#b4b4b4" d="M67.39,102.51c1.41-3.46,6.49-3.87,9.66-3.74,4.19.18,8.33,1,12.52,1.24,7.68.39,15.74.09,23.09-2.36a10.07,10.07,0,0,0,4.57-2.53A8.07,8.07,0,0,0,118.38,93a7.64,7.64,0,0,0,.46-1.11c0-.22,0-.85.12-1,.47-.36-.18-1-.64-.65s-.27.68-.34,1.06a8.61,8.61,0,0,1-1.1,2.79c-1,1.7-3.35,2.38-5.14,2.93a51.14,51.14,0,0,1-11.44,2,87.89,87.89,0,0,1-12.88,0c-4.19-.32-8.4-1.37-12.62-1.09-3.13.2-7,1.2-8.28,4.39-.22.54.66.78.87.24Z"/><path fill="#b4b4b4" d="M62.7,95.55,63.78,91c.13-.57-.75-.81-.88-.24-.36,1.5-.72,3-1.07,4.52-.14.57.74.81.87.24Z"/><path fill="#b4b4b4" d="M66.6,98.18c.59-2.87,1.19-5.73,1.78-8.6.12-.57-.76-.81-.88-.24-.59,2.87-1.19,5.73-1.78,8.6-.12.57.76.81.88.24Z"/><path fill="#b4b4b4" d="M73.05,97.93c.45-2.68.89-5.35,1.34-8,.09-.57-.78-.82-.88-.24-.44,2.67-.89,5.35-1.33,8-.1.57.78.82.87.24Z"/><path fill="#b4b4b4" d="M79.94,98.27c.41-3.44.83-6.87,1.25-10.31.07-.58-.84-.57-.91,0l0,.3h.91c0-.26.06-.52.1-.78.07-.58-.84-.58-.91,0,0,.26-.07.52-.1.78-.07.58.84.57.91,0l0-.3h-.91c-.42,3.44-.84,6.87-1.25,10.31-.07.58.84.58.91,0Z"/><path fill="#b4b4b4" d="M86.45,99.27c.16-2.06.33-4.12.49-6.18,0-.58-.87-.58-.91,0-.16,2.06-.33,4.12-.49,6.18,0,.58.87.58.91,0Z"/><path fill="#b4b4b4" d="M43.84,78.58l31.43,8.76a.46.46,0,0,0,.25-.88L44.08,77.71a.45.45,0,0,0-.24.87Z"/><path fill="#b4b4b4" d="M57.9,82.24c4.32-.89,8.68-1.59,13-2.48.58-.11.33-1-.24-.87-4.32.88-8.67,1.58-13,2.47-.57.12-.33,1,.24.88Z"/><path fill="#b4b4b4" d="M68.26,79.2c1,0,1.89.3,2.89.29a.46.46,0,0,0,.46-.45.47.47,0,0,0-.46-.46,5.78,5.78,0,0,1-.72,0l-.36,0H70l-.21,0c-.5-.07-1-.15-1.52-.17a.45.45,0,0,0-.45.45.46.46,0,0,0,.45.46Z"/><path fill="#b4b4b4" d="M70.8,78.86a5.14,5.14,0,0,0-1,1.59.48.48,0,0,0,0,.35.54.54,0,0,0,.28.21.48.48,0,0,0,.35-.05.62.62,0,0,0,.21-.27.14.14,0,0,1,0-.07l0,.1a4.77,4.77,0,0,1,.59-1l-.07.09a2,2,0,0,1,.31-.34.46.46,0,0,0-.65-.65Z"/><path fill="#b4b4b4" d="M99.35,101.7c.11-1-1.41-.81-2-.7a1.24,1.24,0,0,0-.91.49,1.14,1.14,0,0,0,.42,1.4,10.86,10.86,0,0,0,2.47,1.48c.82.43,1.64.86,2.42,1.35a5.77,5.77,0,0,1,1,.71,1,1,0,0,1,.17.18s.07.09,0,0a.41.41,0,0,1,0,.09c0,.08,0,0,0,0s0,0,0,0,.07-.13,0,0c-.34.48.45.93.78.46s-.1-1-.46-1.37a10.93,10.93,0,0,0-1.91-1.27c-.7-.4-1.41-.76-2.12-1.13-.31-.16-.62-.31-.92-.49a5.27,5.27,0,0,1-.74-.49,1.67,1.67,0,0,1-.28-.25.86.86,0,0,1-.07-.1l0,0c0-.08,0-.09,0,0s0,0,0,0-.05,0,0,0a.52.52,0,0,1,.13,0,2.77,2.77,0,0,1,.5-.1,2.18,2.18,0,0,1,.57,0h0c.09,0,0,0,0,0s.07.11,0,0-.08-.21-.08-.14a.45.45,0,0,0,.45.45.47.47,0,0,0,.46-.45Z"/><path fill="#b4b4b4" d="M97.56,105.21c1.08-.19,2.1-.57,3.15-.85a.46.46,0,0,0-.24-.88c-1,.28-2.07.66-3.15.85a.46.46,0,0,0-.32.56.48.48,0,0,0,.56.32Z"/><path fill="#b4b4b4" d="M100.92,102.6a15.1,15.1,0,0,0,2.23,2.43,11,11,0,0,0,3.91,2,.46.46,0,0,0,.24-.88,10.1,10.1,0,0,1-3.62-1.88,15.67,15.67,0,0,1-2.12-2.34.47.47,0,0,0-.64,0,.48.48,0,0,0,0,.65Z"/><path fill="#b4b4b4" d="M104.6,104.8c1.38.33,2.75.72,4.16.93a.46.46,0,0,0,.55-.32.45.45,0,0,0-.31-.56c-1.41-.21-2.78-.59-4.15-.93-.57-.14-.82.74-.25.88Z"/><path fill="#b4b4b4" d="M107.34,105.61l0-.06s0,0,0,0a.71.71,0,0,1-.1-.14l-.17-.25c-.1-.17-.19-.35-.28-.53-.17-.34-.31-.68-.49-1a.45.45,0,0,0-.62-.17.48.48,0,0,0-.16.63c.18.34.33.69.5,1a5.67,5.67,0,0,0,.73,1.14.45.45,0,0,0,.64,0,.47.47,0,0,0,0-.64Z"/><path fill="#b4b4b4" d="M102.33,101.43a25.52,25.52,0,0,1,6.2,2.48,24.16,24.16,0,0,1,2.77,1.73,7.05,7.05,0,0,1,1.79,1.74c.32.49,1.11,0,.79-.46-1.08-1.67-3.06-2.79-4.76-3.72a26.25,26.25,0,0,0-6.55-2.65c-.57-.13-.82.75-.24.88Z"/><path fill="#b4b4b4" d="M69.76,119.87l0,0,.07.09,0,0,0,.11v0l0,.12h0l0,.12h0l0,.1h0l-.07.09h0l-.09.07h0l-.11,0h-.07a.33.33,0,0,0,.17,0,.38.38,0,0,0,.15-.09.29.29,0,0,0,.09-.15.25.25,0,0,0,0-.17V120a.55.55,0,0,0-.12-.21l-.09-.07a.46.46,0,0,0-.23-.06l-.15,0-.13.05a.31.31,0,0,0-.11.09A.4.4,0,0,0,69,120a.5.5,0,0,0,0,.12h0a.63.63,0,0,0,.07.26.53.53,0,0,0,.09.11l0,0a.33.33,0,0,0,.14.1.37.37,0,0,0,.18,0,.33.33,0,0,0,.17,0,.31.31,0,0,0,.15-.1l.07-.09a.46.46,0,0,0,.06-.23v-.12a.51.51,0,0,0-.12-.2Z"/><path fill="#b4b4b4" d="M71,120.41l1.9-.28a.43.43,0,0,0,.27-.21.47.47,0,0,0,0-.35.51.51,0,0,0-.21-.27.61.61,0,0,0-.35,0l-1.91.29a.43.43,0,0,0-.27.21.47.47,0,0,0,0,.35.43.43,0,0,0,.21.27.52.52,0,0,0,.35,0Z"/><path fill="#b4b4b4" d="M74.29,119.68l2-.3a.44.44,0,0,0,.27-.21.48.48,0,0,0,0-.35.47.47,0,0,0-.56-.32l-2,.3a.46.46,0,0,0-.32.56.47.47,0,0,0,.56.32Z"/><path fill="#b4b4b4" d="M78,119.25l1.82-.27a.44.44,0,0,0,.27-.21.45.45,0,0,0-.16-.62.53.53,0,0,0-.35-.05l-1.83.27a.45.45,0,0,0-.31.56.41.41,0,0,0,.21.27.52.52,0,0,0,.35,0Z"/><path fill="#b4b4b4" d="M68.34,117.45,66,114.69a.45.45,0,0,0-.64,0,.47.47,0,0,0,0,.64l2.32,2.76a.45.45,0,1,0,.64-.64Z"/><path fill="#b4b4b4" d="M63.54,111.88,61.12,109a.45.45,0,1,0-.64.64l2.42,2.88a.45.45,0,0,0,.64-.64Z"/><path fill="#b4b4b4" d="M59.75,107.09l-1.6-1.89a.45.45,0,0,0-.64.64l1.59,1.9a.47.47,0,0,0,.65,0,.49.49,0,0,0,0-.65Z"/><path fill="#b4b4b4" d="M57,103.48l-1.64-1.94a.46.46,0,0,0-.64,0,.47.47,0,0,0,0,.65l1.63,1.93a.46.46,0,0,0,.65,0,.47.47,0,0,0,0-.64Z"/><path fill="#b4b4b4" d="M53.51,99.2l-1.2-1.42a.45.45,0,0,0-.32-.14.43.43,0,0,0-.32.14.47.47,0,0,0-.14.32.49.49,0,0,0,.14.32l1.2,1.42a.44.44,0,0,0,.64,0,.47.47,0,0,0,.14-.32.49.49,0,0,0-.14-.32Z"/><path fill="#b4b4b4" d="M51.26,96.54l-1-1.21a.47.47,0,0,0-.33-.14.45.45,0,0,0-.32.14.42.42,0,0,0-.13.32.5.5,0,0,0,.13.32c.34.4.68.81,1,1.21a.42.42,0,0,0,.32.13.48.48,0,0,0,.32-.13.44.44,0,0,0,.13-.32.46.46,0,0,0-.13-.32Z"/><path fill="#b4b4b4" d="M49.56,94.64c-.37-.43-.74-.86-1.1-1.3a.49.49,0,0,0-.33-.13.48.48,0,0,0-.32.13.44.44,0,0,0-.13.32.57.57,0,0,0,.13.33c.37.43.74.86,1.1,1.3a.51.51,0,0,0,.33.13.48.48,0,0,0,.32-.13.44.44,0,0,0,.13-.32.57.57,0,0,0-.13-.33Z"/><path fill="#b4b4b4" d="M72.27,124.4c2.49,1.25,4.8,2.84,7.23,4.21l.1-.83a38.65,38.65,0,0,0-5.07,1.35l.52.21c-.82-1.71-.82-3.64-1.32-5.44a.46.46,0,0,0-.88.25c.53,1.88.55,3.86,1.41,5.65a.46.46,0,0,0,.51.21,38.79,38.79,0,0,1,5.08-1.35.46.46,0,0,0,.1-.84c-2.42-1.37-4.73-2.95-7.22-4.21-.52-.26-1,.53-.46.79Z"/><path fill="#b4b4b4" d="M76.42,124.85c2.11,1.07,4,2.45,6,3.71a.46.46,0,0,0,.62-.62c-1.28-1.93-2.62-3.82-4-5.7a.46.46,0,0,0-.62-.16.45.45,0,0,0-.16.62c1.35,1.88,2.68,3.77,4,5.7l.63-.63c-2-1.26-3.93-2.64-6-3.71-.52-.26-1,.53-.46.79Z"/><path fill="#b4b4b4" d="M83.89,127l2,2.2a.45.45,0,0,0,.64,0,.47.47,0,0,0,0-.64c-.1-.11-.2-.23-.31-.34a.46.46,0,0,0-.64,0,.47.47,0,0,0,0,.64c.1.12.2.23.31.34l.64-.64-2-2.2a.45.45,0,0,0-.64,0,.47.47,0,0,0,0,.64Z"/><path fill="#b4b4b4" d="M81.25,124.26a.46.46,0,0,0,0-.91.46.46,0,0,0,0,.91Z"/><polygon fill="url(#o)" points="191.94 74.42 193.58 87.71 195.19 73.58 191.94 74.42"/><path fill="#fab515" d="M189.28,25.82,190.4,71a4.76,4.76,0,0,0,1.54,3.41h0l3.06-.14,1-3.89a26.28,26.28,0,0,0,.73-9.75l-4.08-36.08Z"/><rect width="33.58" height="3.95" x="140.39" y="59.19" fill="url(#p)" transform="translate(255.48 -75.89) rotate(104.38)"/><polygon fill="url(#q)" points="152.86 80.64 151.52 80.29 151.1 76.94 154.93 77.93 152.86 80.64"/><polygon fill="#383f42" points="151.75 82.09 151.52 80.29 152.86 80.64 151.75 82.09"/><rect width="1.6" height="3.95" x="160.75" y="42.15" fill="#383f42" transform="translate(244.44 -101.4) rotate(104.39)"/><path fill="url(#r)" d="M161.32,39.54h2.8a0,0,0,0,1,0,0v4a0,0,0,0,1,0,0h-2.8a1,1,0,0,1-1-1v-2A1,1,0,0,1,161.32,39.54Z" transform="translate(242.73 -105.31) rotate(104.38)"/><path fill="url(#s)" d="M191.6,16.29l3.16-12.43A3.07,3.07,0,0,0,192.33.05h0a3.07,3.07,0,0,0-3.57,2.56l-1.77,13Z"/><path fill="#383f42" d="M159.55,72h0a2.17,2.17,0,0,0,2.57-1.46c5.46-17.5,11-36.44,16-42a4.59,4.59,0,0,1,4-1.46l8.19,1c4.83.78,7.53-9.44,3-11.42,0,0-9.87-8-19.6,9.06-4.76,7.36-8.1,16.51-10.63,26.14a1.09,1.09,0,0,1-1.23.8L157.34,52a1.08,1.08,0,0,0-1.21.75l-4.08,13a1.1,1.1,0,0,0,.89,1.41l5.49.67L158,69.23A2.17,2.17,0,0,0,159.55,72Z"/><path fill="#fab515" d="M190.94,21a2.76,2.76,0,1,1-2.84-2.66A2.74,2.74,0,0,1,190.94,21Z"/><path fill="#fff" d="M189.48,21.06a1.3,1.3,0,1,1-1.34-1.26A1.3,1.3,0,0,1,189.48,21.06Z"/><path fill="#fab515" d="M166.52,61.46a2.48,2.48,0,1,1-2.56-2.4A2.48,2.48,0,0,1,166.52,61.46Z"/><path fill="#fff" d="M165.21,61.5A1.17,1.17,0,1,1,164,60.37,1.17,1.17,0,0,1,165.21,61.5Z"/><path fill="#f28a1a" d="M149.53,108.06a3.39,3.39,0,0,0-1.1-.25,3,3,0,0,0-.74,0l-2.58.52q-.24-.3-.51-.6l-.47-.54-.46-.48q-.39-.41-.81-.78l-.57-.52c-.47-.42-1-.82-1.49-1.22l-.65-.48-.46-.31c-.39-.29-.82-.57-1.25-.84l-.7-.44c-.62-.36-1.25-.72-1.9-1-.25-.14-.5-.27-.77-.39-.67-.34-1.35-.65-2-1-.26-.12-.54-.23-.81-.34-.72-.3-1.45-.57-2.19-.83l-.83-.27c-.75-.25-1.52-.48-2.29-.69l-.86-.22-.66-.16c-.57-.14-1.13-.26-1.7-.38l-.86-.16c-.79-.14-1.59-.27-2.39-.37l-.86-.11c-.8-.09-1.59-.16-2.39-.21l-.65,0h-.2a41.39,41.39,0,0,0-11,.91L105,97l-.72.18c-.67.17-1.31.37-1.94.57-.23.07-.44.15-.66.23l-.78.3c-.34.13-.67.26-1,.41l-.61.28c-.55.26-1.08.54-1.58.83l-.55.32c-.49.31-.95.62-1.38,1a5.9,5.9,0,0,0-.47.37,13.27,13.27,0,0,0-1.18,1l-.4.41a12.63,12.63,0,0,0-1,1.13c-.11.14-.22.28-.32.43a12.29,12.29,0,0,0-.72,1.2,5.21,5.21,0,0,0-.24.47,10.11,10.11,0,0,0-.49,1.25,4,4,0,0,0-.15.49,9.4,9.4,0,0,0-.27,1.28,4.57,4.57,0,0,0,0,.52,9.36,9.36,0,0,0,0,1.3,4.53,4.53,0,0,0,0,.52,9.67,9.67,0,0,0,.18,1.3c0,.18.07.36.11.54.11.42.23.84.38,1.27.07.18.14.36.22.55a13.39,13.39,0,0,0,.56,1.23c.09.18.19.36.29.54l.21.36c.17.27.35.55.54.83s.25.35.38.53l.16.22-2.26.46a1.21,1.21,0,0,0-.79.46.64.64,0,0,0-.11.52,1.08,1.08,0,0,0,.25.52l3.85,4.77,59.85-11.62v-.57l-3.89-4.61A2.39,2.39,0,0,0,149.53,108.06Zm-45.66,8.66a1.62,1.62,0,0,1-.18-.2c-4-5-.76-10.54,7.39-12.3a23.67,23.67,0,0,1,3.88-.51,28.49,28.49,0,0,1,8.8.94c4.16,1.12,7.78,3.15,9.8,5.8a1.07,1.07,0,0,1,.15.22Z"/><path fill="#fab515" d="M149.53,107.49a3.39,3.39,0,0,0-1.1-.25,3,3,0,0,0-.74.05l-2.58.52q-.24-.3-.51-.6l-.47-.54-.46-.48q-.39-.41-.81-.78l-.57-.52c-.47-.42-1-.82-1.49-1.22l-.65-.48-.46-.31c-.39-.29-.82-.57-1.25-.84l-.7-.44c-.62-.36-1.25-.72-1.9-1-.25-.14-.5-.27-.77-.39-.67-.34-1.35-.65-2-1-.26-.12-.54-.23-.81-.34-.72-.3-1.45-.57-2.19-.83l-.83-.27c-.75-.25-1.52-.48-2.29-.69l-.86-.22-.66-.16c-.57-.14-1.13-.26-1.7-.38l-.86-.16c-.79-.14-1.59-.27-2.39-.37l-.86-.11c-.8-.09-1.59-.16-2.39-.21l-.65,0h-.2a41.39,41.39,0,0,0-11,.91l-.33.08-.72.18c-.67.17-1.31.37-1.94.57l-.66.23-.78.3c-.34.13-.67.26-1,.41l-.61.28c-.55.26-1.08.54-1.58.83l-.55.32c-.49.31-.95.62-1.38,1a5.9,5.9,0,0,0-.47.37,13.27,13.27,0,0,0-1.18,1l-.4.41a12.63,12.63,0,0,0-1,1.13c-.11.14-.22.28-.32.43a12.29,12.29,0,0,0-.72,1.2,5.21,5.21,0,0,0-.24.47,10.11,10.11,0,0,0-.49,1.25,4.58,4.58,0,0,0-.15.49,9.4,9.4,0,0,0-.27,1.28,4.57,4.57,0,0,0,0,.52,9.36,9.36,0,0,0,0,1.3,4.84,4.84,0,0,0,0,.53,9.75,9.75,0,0,0,.18,1.29c0,.18.07.36.11.54.11.42.23.84.38,1.27.07.18.14.36.22.55a13.39,13.39,0,0,0,.56,1.23c.09.18.19.36.29.54l.21.36c.17.27.35.55.54.83s.25.35.38.53l.16.22-2.26.46a1.21,1.21,0,0,0-.79.46.64.64,0,0,0-.11.52,1.08,1.08,0,0,0,.25.52L94.54,125l59.85-11.62-3.89-5.18A2.39,2.39,0,0,0,149.53,107.49Zm-45.66,8.66a1.62,1.62,0,0,1-.18-.2c-4-5-.76-10.54,7.39-12.3a23.67,23.67,0,0,1,3.88-.51,28.49,28.49,0,0,1,8.8.94c4.16,1.12,7.78,3.15,9.8,5.8a1.07,1.07,0,0,1,.15.22Z"/><path fill="#fab515" d="M116.53,95.43,115,103.14a23.67,23.67,0,0,0-3.88.51c-8.15,1.76-11.38,7.27-7.39,12.3a1.62,1.62,0,0,0,.18.2l8.82-1.79-1.5,7.4-15,2.91,4.78-27,.78-.3.66-.23c.63-.2,1.27-.4,1.94-.57l.72-.18.33-.08a41.39,41.39,0,0,1,11-.91Z" style="mix-blend-mode:screen"/><path fill="#fab515" d="M139.69,102.88l-3.43,14-16,3.1,1.63-7.5,11.79-2.39a1.07,1.07,0,0,0-.15-.22c-2-2.65-5.64-4.68-9.8-5.8l1.62-7.38.66.16.86.22c.77.21,1.54.44,2.29.69L130,98c.74.26,1.47.53,2.19.83.27.11.55.22.81.34.7.3,1.38.61,2,1,.27.12.52.25.77.39.65.33,1.28.69,1.9,1l.7.44C138.87,102.31,139.3,102.59,139.69,102.88Z" style="mix-blend-mode:screen"/></g></svg>