<svg xmlns="http://www.w3.org/2000/svg" width="448.582pt" height="153.778pt" viewBox="0 0 448.582 153.778"><defs><clipPath id="a"><path d="M.11328 70H12v13H.11328Zm0 0"/></clipPath><clipPath id="b"><path d="M364 141h13v12.55469h-13Zm0 0"/></clipPath><clipPath id="c"><path d="M366 141h13v12.55469h-13Zm0 0"/></clipPath><clipPath id="d"><path d="M436 52h12.05078v13H436Zm0 0"/></clipPath></defs><path fill="none" stroke="#000" stroke-miterlimit="10" stroke-width=".39793" d="M113.6914 95.17578V58.37111h73.60935v36.80467Zm0 0"/><path fill="none" stroke="red" stroke-miterlimit="10" stroke-width=".39793" d="m149.24217 98.16015.5-5.96874m1.49219 5.96874.4961-5.96874m-.00001-36.79686-.4961 5.96875m-1.49218-5.96875-.5 5.96875m-32.56639 15.66405-5.96875-.5m73.59372 0 5.96875.5"/><path fill="none" stroke="#000" stroke-miterlimit="10" stroke-width=".39793" d="M113.6914 58.37892V21.57425h73.60935v36.80467Zm0 0"/><path fill="none" stroke="red" stroke-miterlimit="10" stroke-width=".39793" d="m149.24217 61.3633.5-5.96875m1.49219 5.96875.4961-5.96875m-.00001-36.79686-.4961 5.96875m-1.49218-5.96875-.5 5.96875M116.67578 40.2305l-5.96875-.5m73.59372 0 5.96875.5"/><path fill="none" stroke="#000" stroke-miterlimit="10" stroke-width=".39793" d="M113.6914 131.97264V95.16797h73.60935v36.80467Zm0 0"/><path fill="none" stroke="red" stroke-miterlimit="10" stroke-width=".39793" d="m149.24217 134.95701.5-5.96874m1.49219 5.96874.4961-5.96874m-.00001-36.79687-.4961 5.96875m-1.49218-5.96875-.5 5.96875m-32.56639 15.66406-5.96875-.4961m73.59372.00001 5.96875.49609"/><path fill="none" stroke="#000" stroke-miterlimit="10" stroke-width=".39793" d="M3.29692 95.17578V58.37111h73.60935v36.80467Zm0 0"/><path fill="none" stroke="red" stroke-miterlimit="10" stroke-width=".39793" d="m38.8516 98.16015.49609-5.96874m1.49219 5.96874.49609-5.96874m0-36.79686-.4961 5.96875m-1.49218-5.96875-.4961 5.96875"/><g clip-path="url(#a)"><path fill="none" stroke="red" stroke-miterlimit="10" stroke-width=".39793" d="m6.2813 77.02735-5.96875-.5"/></g><path fill="none" stroke="red" stroke-miterlimit="10" stroke-width=".39793" d="m73.90627 76.52735 5.96874.5"/><path fill="none" stroke="#000" stroke-miterlimit="10" stroke-width=".39793" d="M187.28512 95.17578V58.37111h36.80467v36.80467Zm0 0"/><path fill="none" stroke="red" stroke-miterlimit="10" stroke-width=".39793" d="m205.43355 98.16015.5-5.96874m0-36.79686-.5 5.96875M190.2695 77.02735l-5.96875-.5m36.79685 0 5.96876.5"/><path fill="none" stroke="#000" stroke-miterlimit="10" stroke-width=".39793" d="M76.89064 95.17578V58.37111h36.80467v36.80467Zm0 0"/><path fill="none" stroke="red" stroke-miterlimit="10" stroke-width=".39793" d="m95.04298 98.16015.49609-5.96874m0-36.79686-.4961 5.96875M79.87501 77.02735l-5.96874-.5m36.79686 0 5.97265.5"/><path fill="none" stroke="#000" stroke-miterlimit="10" stroke-width=".39793" d="M334.47646 76.77735V39.97268h73.60935v36.80467Zm0 0"/><path fill="none" stroke="red" stroke-miterlimit="10" stroke-width=".39793" d="m370.03114 79.76173.49609-5.96875m1.49219 5.96875.5-5.96875m0-36.79686-.5 5.96875m-1.49219-5.96875-.4961 5.96875m-32.57029 15.66405-5.96875-.5m73.59371 0 5.96876.5"/><path fill="none" stroke="#000" stroke-miterlimit="10" stroke-width=".39793" d="M334.47646 39.9805V3.17581h73.60935V39.9805Zm0 0"/><path fill="none" stroke="red" stroke-miterlimit="10" stroke-width=".39793" d="m370.03114 42.96487.49609-5.96875m1.49219 5.96875.5-5.96875m0-36.79686-.5 5.96875M370.52723.19926l-.4961 5.96875m-32.57029 15.66015-5.96875-.4961m73.59371 0 5.96876.4961"/><path fill="none" stroke="#000" stroke-miterlimit="10" stroke-width=".39793" d="M334.47646 113.57421V76.76954h73.60935v36.80467Zm0 0"/><path fill="none" stroke="red" stroke-miterlimit="10" stroke-width=".39793" d="m370.03114 116.55858.49609-5.96874m1.49219 5.96874.5-5.96874m0-36.79686-.5 5.96875m-1.49219-5.96875-.4961 5.96875m-32.57029 15.66405-5.96875-.4961m73.59371.00001 5.96876.4961"/><path fill="none" stroke="#000" stroke-miterlimit="10" stroke-width=".39793" d="M334.47646 150.37497V113.5664h73.60935v36.80857Zm0 0"/><g clip-path="url(#b)"><path fill="none" stroke="red" stroke-miterlimit="10" stroke-width=".39793" d="m370.03114 153.35935.49609-5.96875"/></g><g clip-path="url(#c)"><path fill="none" stroke="red" stroke-miterlimit="10" stroke-width=".39793" d="m372.01942 153.35935.5-5.96875"/></g><path fill="none" stroke="red" stroke-miterlimit="10" stroke-width=".39793" d="m372.51942 110.58984-.5 5.96874m-1.49219-5.96874-.4961 5.96874m-32.57029 15.66406-5.96875-.4961m73.59371.00001 5.96876.49609"/><path fill="none" stroke="#000" stroke-miterlimit="10" stroke-width=".39793" d="M297.6796 76.77735V39.97268h36.80468v36.80467Zm0 0"/><path fill="none" stroke="red" stroke-miterlimit="10" stroke-width=".39793" d="m315.82804 79.76173.5-5.96875m-.00001-36.79686-.5 5.96875m-15.16405 15.66405-5.96875-.5m36.79686 0 5.96875.5"/><path fill="none" stroke="#000" stroke-miterlimit="10" stroke-width=".39793" d="M408.07018 76.77735V39.97268h36.80858v36.80467Zm0 0"/><path fill="none" stroke="red" stroke-miterlimit="10" stroke-width=".39793" d="m426.22252 79.76173.4961-5.96875m-.00001-36.79686-.4961 5.96875m-15.16405 15.66405-5.97265-.5"/><g clip-path="url(#d)"><path fill="none" stroke="red" stroke-miterlimit="10" stroke-width=".39793" d="m441.88657 58.12892 5.96875.5"/></g></svg>