<svg xmlns="http://www.w3.org/2000/svg" width="56.536pt" height="56.536pt" viewBox="0 0 56.536 56.536"><defs><clipPath id="a"><path d="M0 34h56.07422v22.07422H0Zm0 0"/></clipPath><clipPath id="b"><path d="M0 0h22v56.07422H0Zm0 0"/></clipPath><clipPath id="c"><path d="M55 0h1.07422v41H55Zm0 0"/></clipPath><clipPath id="d"><path d="M15 0h41.07422v1H15Zm0 0"/></clipPath><clipPath id="e"><path d="M0 30h56.07422v26.07422H0Zm0 0"/></clipPath><clipPath id="f"><path d="M0 0h26v56.07422H0Zm0 0"/></clipPath><clipPath id="g"><path d="M0 26h56.07422v28H0Zm0 0"/></clipPath><clipPath id="h"><path d="M2 0h28v56.07422H2Zm0 0"/></clipPath><clipPath id="i"><path d="M0 22h56.07422v28H0Zm0 0"/></clipPath><clipPath id="j"><path d="M6 0h28v56.07422H6Zm0 0"/></clipPath><clipPath id="k"><path d="M0 18h56.07422v28H0Zm0 0"/></clipPath><clipPath id="l"><path d="M10 0h28v56.07422H10Zm0 0"/></clipPath><clipPath id="m"><path d="M0 14h56.07422v28H0Zm0 0"/></clipPath><clipPath id="n"><path d="M14 0h28v56.07422H14Zm0 0"/></clipPath><clipPath id="o"><path d="M0 10h56.07422v28H0Zm0 0"/></clipPath><clipPath id="p"><path d="M18 0h28v56.07422H18Zm0 0"/></clipPath><clipPath id="q"><path d="M0 6h56.07422v28H0Zm0 0"/></clipPath><clipPath id="r"><path d="M22 0h28v56.07422H22Zm0 0"/></clipPath><clipPath id="s"><path d="M0 2h56.07422v28H0Zm0 0"/></clipPath><clipPath id="t"><path d="M26 0h28v56.07422H26Zm0 0"/></clipPath><clipPath id="u"><path d="M0 0h56.07422v26H0Zm0 0"/></clipPath><clipPath id="v"><path d="M30 0h26.07422v56.07422H30Zm0 0"/></clipPath><clipPath id="w"><path d="M0 0h56.07422v22H0Zm0 0"/></clipPath><clipPath id="x"><path d="M34 0h22.07422v56.07422H34Zm0 0"/></clipPath><clipPath id="y"><path d="M40 15h1v41.07422h-1Zm0 0"/></clipPath></defs><g clip-path="url(#a)"><path fill="none" stroke="#000" stroke-miterlimit="10" stroke-width=".39526" d="M.19921 55.87891h40.20314l15.47657-15.47657"/></g><g clip-path="url(#b)"><path fill="none" stroke="#000" stroke-miterlimit="10" stroke-width=".39526" d="M.19921 55.87891V15.67577L15.67578.1992"/></g><g clip-path="url(#c)"><path fill="none" stroke="#000" stroke-miterlimit="10" stroke-width=".39526" d="M55.87892 40.40234V.1992"/></g><g clip-path="url(#d)"><path fill="none" stroke="#000" stroke-miterlimit="10" stroke-width=".39526" d="M15.67578.1992h40.20314"/></g><g clip-path="url(#e)"><path fill="none" stroke="#000" stroke-miterlimit="10" stroke-width=".39526" d="M.19921 51.85938h40.20314L55.87892 36.3789"/></g><g clip-path="url(#f)"><path fill="none" stroke="#000" stroke-miterlimit="10" stroke-width=".39526" d="M4.21875 55.87891V15.67577L19.6953.1992"/></g><path fill="none" stroke="#000" stroke-miterlimit="10" stroke-width=".39526" d="M54.33205 41.94922V1.74608m-40.20315 0h40.20315"/><g clip-path="url(#g)"><path fill="none" stroke="#000" stroke-miterlimit="10" stroke-width=".39526" d="M.19921 47.83594h40.20314l15.47657-15.47657"/></g><g clip-path="url(#h)"><path fill="none" stroke="#000" stroke-miterlimit="10" stroke-width=".39526" d="M8.23828 55.87891V15.67577L23.71485.1992"/></g><path fill="none" stroke="#000" stroke-miterlimit="10" stroke-width=".39526" d="M52.78126 43.4961V3.29295m-40.20314.00001h40.20314"/><g clip-path="url(#i)"><path fill="none" stroke="#000" stroke-miterlimit="10" stroke-width=".39526" d="M.19921 43.8164h40.20314l15.47657-15.47656"/></g><g clip-path="url(#j)"><path fill="none" stroke="#000" stroke-miterlimit="10" stroke-width=".39526" d="M12.25781 55.87891V15.67577L27.73438.1992"/></g><path fill="none" stroke="#000" stroke-miterlimit="10" stroke-width=".39526" d="M51.23439 45.04297V4.83983m-40.20314 0h40.20314"/><g clip-path="url(#k)"><path fill="none" stroke="#000" stroke-miterlimit="10" stroke-width=".39526" d="M.19921 39.79687h40.20314l15.47657-15.47656"/></g><g clip-path="url(#l)"><path fill="none" stroke="#000" stroke-miterlimit="10" stroke-width=".39526" d="M16.27734 55.87891V15.67577L31.75782.1992"/></g><path fill="none" stroke="#000" stroke-miterlimit="10" stroke-width=".39526" d="M49.68751 46.58985V6.3867m-40.20314 0h40.20314"/><g clip-path="url(#m)"><path fill="none" stroke="#000" stroke-miterlimit="10" stroke-width=".39526" d="M.19921 35.77734h40.20314l15.47657-15.47657"/></g><g clip-path="url(#n)"><path fill="none" stroke="#000" stroke-miterlimit="10" stroke-width=".39526" d="M20.30078 55.87891V15.67577L35.77735.1992"/></g><path fill="none" stroke="#000" stroke-miterlimit="10" stroke-width=".39526" d="M48.14064 48.14063V7.93749m-40.20314 0h40.20314"/><g clip-path="url(#o)"><path fill="none" stroke="#000" stroke-miterlimit="10" stroke-width=".39526" d="M.19921 31.7578h40.20314l15.47657-15.48046"/></g><g clip-path="url(#p)"><path fill="none" stroke="#000" stroke-miterlimit="10" stroke-width=".39526" d="M24.32032 55.87891V15.67577L39.79688.1992"/></g><path fill="none" stroke="#000" stroke-miterlimit="10" stroke-width=".39526" d="M46.58985 49.6875V9.48436m-40.20313 0h40.20313"/><g clip-path="url(#q)"><path fill="none" stroke="#000" stroke-miterlimit="10" stroke-width=".39526" d="M.19921 27.73437h40.20314L55.87892 12.2578"/></g><g clip-path="url(#r)"><path fill="none" stroke="#000" stroke-miterlimit="10" stroke-width=".39526" d="M28.33985 55.87891V15.67577L43.81642.1992"/></g><path fill="none" stroke="#000" stroke-miterlimit="10" stroke-width=".39526" d="M45.04298 51.23438V11.03124m-40.20314 0h40.20314"/><g clip-path="url(#s)"><path fill="none" stroke="#000" stroke-miterlimit="10" stroke-width=".39526" d="M.19921 23.71484h40.20314L55.87892 8.23827"/></g><g clip-path="url(#t)"><path fill="none" stroke="#000" stroke-miterlimit="10" stroke-width=".39526" d="M32.35938 55.87891V15.67577L47.83595.1992"/></g><path fill="none" stroke="#000" stroke-miterlimit="10" stroke-width=".39526" d="M43.4961 52.78125V12.57812m-40.20314 0H43.4961"/><g clip-path="url(#u)"><path fill="none" stroke="#000" stroke-miterlimit="10" stroke-width=".39526" d="M.19921 19.6953h40.20314L55.87892 4.21874"/></g><g clip-path="url(#v)"><path fill="none" stroke="#000" stroke-miterlimit="10" stroke-width=".39526" d="M36.37891 55.87891V15.67577L51.8594.1992"/></g><path fill="none" stroke="#000" stroke-miterlimit="10" stroke-width=".39526" d="M41.94923 54.33204V14.1289m-40.20314 0h40.20314"/><g clip-path="url(#w)"><path fill="none" stroke="#000" stroke-miterlimit="10" stroke-width=".39526" d="M.19921 15.67577h40.20314L55.87892.1992"/></g><g clip-path="url(#x)"><path fill="none" stroke="#000" stroke-miterlimit="10" stroke-width=".39526" d="M40.40235 55.87891V15.67577L55.87892.1992"/></g><g clip-path="url(#y)"><path fill="none" stroke="#000" stroke-miterlimit="10" stroke-width=".39526" d="M40.40235 55.87891V15.67577"/></g><path fill="none" stroke="#000" stroke-miterlimit="10" stroke-width=".39526" d="M.19921 15.67577h40.20314"/></svg>