<svg xmlns="http://www.w3.org/2000/svg" xmlns:xlink="http://www.w3.org/1999/xlink" width="222.993pt" height="107.793pt" viewBox="0 0 222.993 107.793"><defs><clipPath id="a"><path d="M.21094 11H167v74H.21094Zm0 0"/></clipPath><clipPath id="b"><path d="M.21094 0H194v91H.21094Zm0 0"/></clipPath><clipPath id="c"><path d="M.21094 68H194v23H.21094Zm0 0"/></clipPath><clipPath id="g"><path d="M.21094 83H11v15H.21094Zm0 0"/></clipPath><path id="d" d="m.25-2.42187.09375.25h3.3125V-.9375c0 .42188-.125.48438-.42187.51563l-.78125.07812V0h3.20312v-.34375l-.54687-.0625C4.82813-.45312 4.75-.51562 4.75-.9375v-1.23437H6v-.5625H4.75v-5.375h-.89062C2.71875-6.4375 1.35938-4.32812.25-2.42187m.875-.3125C1.84375-4.0625 2.71875-5.46875 3.65625-6.9375v4.20313Zm0 0"/><path id="f" d="M.34375-1.23437c0 .51562.82813 1.375 2.54688 1.375 1.76562 0 2.875-.89063 2.875-2.4375 0-1.625-1.39063-2.10938-2.0625-2.17188v-.04687c.65625-.10938 1.70312-.59375 1.70312-1.79688 0-1.34375-1.04687-1.9375-2.35937-1.9375-1.59375 0-2.39063.92188-2.39063 1.4375 0 .375.42188.57813.59375.57813.15625 0 .25-.07813.29688-.23438.28124-.82812.73437-1.35937 1.40625-1.35937.96875 0 1.20312.84375 1.20312 1.51562 0 .73438-.25 1.64063-1.28125 1.64063-.59375 0-.92187-.10938-1.0625-.10938-.15625 0-.21875.10938-.21875.34375 0 .20313.0625.32813.21875.32813.14063 0 .46875-.10938 1.0625-.10938 1.03125 0 1.60938.92188 1.60938 1.98438 0 1.45312-.71875 1.95312-1.57813 1.95312-.79687 0-1.32812-.59375-1.5625-1.28125-.07812-.23437-.1875-.34375-.35937-.34375-.21876 0-.64063.21875-.64063.67188m0 0"/><path id="h" d="M.54688-3.75C.54688-1.125 1.5.14063 3.32813.14063c1.78125 0 2.75-1.07813 2.75-2.73438 0-1.64062-1.01563-2.53125-2.3125-2.53125-.96875 0-1.67188.64063-2 1.04688.01562-2.6875.75-3.75 1.85937-3.75.54688 0 .95313.46875 1.125 1.15625.04688.14062.14063.26562.3125.26562.28125 0 .65625-.21875.65625-.5625 0-.48437-.60937-1.28125-2.0625-1.28125-1.92187 0-3.10937 1.48438-3.10937 4.5m1.21875.875c0-.73437.5625-1.64062 1.57812-1.64062.76563 0 1.51563.70312 1.51563 2.09375 0 1.28125-.48438 2.14062-1.51563 2.14062-1.0625 0-1.57812-1.125-1.57812-2.59375m0 0"/><path id="e" d="M.39063 0h2.95312v-.34375c-.85937-.0625-.90625-.09375-.90625-.71875v-2.84375c0-.3125 0-.46875.09375-.64062.23438-.5.76563-.89063 1.4375-.89063 1.04688 0 1.17188.76563 1.17188 1.51563v2.85937c0 .625-.03125.65625-.92188.71875V0H7.1875v-.34375c-.875-.0625-.90625-.09375-.90625-.71875v-2.84375c0-.3125.01563-.46875.09375-.65625.17188-.48437.6875-.875 1.375-.875.76563 0 1.23438.42188 1.23438 1.51563v2.85937c0 .625-.04688.65625-.92188.71875V0h2.96875v-.34375c-.85937-.0625-.90625-.09375-.90625-.71875v-3.09375c0-1.23437-.67187-1.9375-1.8125-1.9375-1 0-1.70312.65625-2.14062.92188-.29688-.5625-.75-.92188-1.60938-.92188-.9375 0-1.6875.60938-2.125.92188l-.10937-.92188-1.875.3125v.29688l.45312.0625c.3125.04687.40625.09375.40625.53125v3.82812c0 .625-.04687.65625-.92187.71875Zm0 0"/></defs><g clip-path="url(#a)"><path fill="none" stroke="#000" stroke-miterlimit="10" stroke-width=".39773" d="M.41016 84.79297H165.9179V11.23049H.41016Zm0 0"/></g><g clip-path="url(#b)"><path fill="none" stroke="#000" stroke-miterlimit="10" stroke-width=".39773" d="m165.91791 84.79297 22.0703-11.03515V.19534H22.47656L.41015 11.2305"/></g><path fill="none" stroke="#000" stroke-miterlimit="10" stroke-width=".39773" d="M165.91791 11.2305 187.98821.19533"/><g clip-path="url(#c)"><path fill="none" stroke="#000" stroke-dasharray="2.9830914464 2.9830914464" stroke-miterlimit="10" stroke-width=".39773" d="m.41016 84.79297 22.0664-11.03515h165.51166"/></g><path fill="none" stroke="#000" stroke-dasharray="2.9830914464 2.9830914464" stroke-miterlimit="10" stroke-width=".39773" d="M22.47655 73.75782V.19534"/><path fill="none" stroke="#000" stroke-miterlimit="10" stroke-width=".39773" d="M193.50384 69.1836V4.76956"/><path stroke="#000" stroke-miterlimit="10" stroke-width=".39773" d="M193.5039 73.01562c.12891-.47265.84376-2.53906 1.625-3.83203h-3.24609c.77735 1.29297 1.4961 3.35938 1.6211 3.83203Zm0-72.07422c-.125.46876-.84374 2.53907-1.62109 3.82813h3.2461c-.78125-1.28906-1.4961-3.35937-1.625-3.82812Zm0 0"/><use xlink:href="#d" x="198.06925" y="50.23154"/><use xlink:href="#e" x="207.2608" y="50.23154"/><path fill="none" stroke="#000" stroke-miterlimit="10" stroke-width=".39773" d="m170.01166 88.26172 13.88281-6.9414"/><path stroke="#000" stroke-miterlimit="10" stroke-width=".3977" d="M166.58594 89.97656c.47656-.09765 2.64453-.38281 4.14844-.26172l-1.44922-2.90234c-.8086 1.27344-2.33594 2.83984-2.69922 3.16406Zm20.73828-10.37109c-.48047.09765-2.64844.38281-4.15234.26172l1.44921 2.90234c.8086-1.27344 2.33594-2.83984 2.70313-3.16406Zm0 0"/><use xlink:href="#f" x="181.51803" y="92.10113"/><use xlink:href="#e" x="190.70958" y="92.10113"/><path fill="none" stroke="#000" stroke-miterlimit="10" stroke-width=".39773" d="M4.98437 90.3086H161.3437"/><path d="M1.15234 90.3086c.46875.125 2.53907.84374 3.83204 1.62109V88.6875c-1.29297.77734-3.36329 1.4961-3.83204 1.6211m0 0"/><g clip-path="url(#g)"><path fill="none" stroke="#000" stroke-miterlimit="10" stroke-width=".39773" d="M1.15235 90.3086c.46874.125 2.53906.84374 3.83202 1.62109V88.6875c-1.29296.77734-3.36328 1.4961-3.83202 1.6211Zm0 0"/></g><path stroke="#000" stroke-miterlimit="10" stroke-width=".39773" d="M165.17578 90.3086c-.46875-.125-2.53906-.84376-3.83203-1.6211v3.24219c1.29297-.77735 3.36328-1.4961 3.83203-1.6211Zm0 0"/><use xlink:href="#h" x="72.96449" y="103.13594"/><use xlink:href="#e" x="82.15475" y="103.13594"/></svg>