<svg id="Layer_1" enable-background="new 0 0 66 66" height="512" viewBox="0 0 66 66" width="512" xmlns="http://www.w3.org/2000/svg"><g><g><path d="m34.24 64.12h-2.49c-.62 0-1.13-.51-1.13-1.13v-18.96h4.75v18.96c0 .62-.51 1.13-1.13 1.13z" fill="#707dd3"/></g><g><g><g><g><path d="m28.59 44.59-9.31 18.69c-.22.44-.68.72-1.17.72h-3.59c-.59 0-.98-.62-.71-1.15l9.1-18.26z" fill="#707dd3"/></g><g><path d="m28.59 44.59-9.31 18.68c-.22.45-.68.73-1.17.73h-3.59c-.59 0-.98-.63-.72-1.16l.14-.28h2.92c.49 0 .95-.28 1.17-.73l8.59-17.24z" fill="#5766cb"/></g><g><path d="m37.41 44.59 9.31 18.69c.22.44.68.72 1.17.72h3.59c.59 0 .98-.62.71-1.15l-9.1-18.26z" fill="#707dd3"/></g><g><path d="m51.48 64h-3.59c-.45 0-.88-.24-1.11-.63h2.38c.59 0 .98-.62.71-1.15l-8.79-17.63h2.02l9.1 18.25c.26.53-.13 1.16-.72 1.16z" fill="#5766cb"/></g></g><g><g><path d="m64.91 42.81v3.55c0 .53-.43.97-.96.97h-61.9c-.53 0-.96-.44-.96-.97v-3.55c0-.53.43-.97.96-.97h61.9c.53 0 .96.44.96.97z" fill="#707dd3"/></g><g><path d="m64.91 42.81v3.55c0 .53-.43.97-.96.97h-61.9c-.53 0-.96-.44-.96-.97v-.66h61.11c.53 0 .96-.43.96-.97v-2.89h.79c.53 0 .96.44.96.97z" fill="#5766cb"/></g><g><path d="m61.85 5.75v36.09h-57.71v-36.09c0-2.14 1.74-3.87 3.87-3.87h49.97c2.14 0 3.87 1.73 3.87 3.87z" fill="#707dd3"/></g><g><path d="m61.85 5.75v36.09h-57.71v-2h17.75c19.93 0 36.09-16.16 36.09-36.09 0-.68-.17-1.31-.47-1.87h.47c2.14 0 3.87 1.73 3.87 3.87z" fill="#5766cb"/></g><g><path d="m57.98 37.36v-29.87c0-.97-.78-1.75-1.75-1.75h-46.47c-.97 0-1.75.78-1.75 1.75v29.87c0 .97.78 1.75 1.75 1.75h46.47c.97 0 1.75-.78 1.75-1.75z" fill="#3b4a51"/></g><g><path d="m52.97 37.48v3.27c0 .61-.5 1.1-1.1 1.1h-8.25c-.61 0-1.1-.49-1.1-1.1v-3.27c0-.61.49-1.1 1.1-1.1h8.25c.6 0 1.1.49 1.1 1.1z" fill="#f4d8a5"/></g></g></g><g fill="#f0f7ff"><path d="m13.68 26.31c-.11-.12-.16-.28-.16-.47 0-.14.05-.27.14-.4l2.2-2.59-2.2-2.68c-.1-.13-.16-.27-.16-.41 0-.19.06-.34.18-.46s.27-.18.45-.18c.23 0 .4.08.51.24l1.98 2.45 1.97-2.45c.11-.16.28-.24.5-.24.19 0 .34.06.47.18.12.12.18.26.18.43 0 .14-.05.27-.14.4l-2.24 2.64 2.21 2.67c.1.11.16.25.16.41 0 .18-.06.33-.17.46s-.27.19-.48.19-.37-.09-.5-.26l-2.01-2.41-1.9 2.38c-.14.19-.33.28-.55.28-.18 0-.33-.06-.44-.18z"/><path d="m24.06 24.78c-.11-.11-.16-.24-.16-.39v-2.33h-2.32c-.15 0-.28-.05-.38-.16-.1-.1-.16-.23-.16-.38 0-.16.05-.29.16-.4.1-.1.23-.16.38-.16h2.32v-2.33c0-.16.05-.29.16-.4.11-.1.24-.16.39-.16.16 0 .29.05.4.16.1.1.16.24.16.4v2.33h2.31c.16 0 .29.05.4.16.1.1.16.24.16.4 0 .15-.05.28-.16.38-.1.1-.24.16-.4.16h-2.32v2.33c0 .15-.05.28-.16.39-.1.11-.24.16-.4.16-.14.01-.27-.05-.38-.16z"/><path d="m30.73 29.57c-.12-.12-.18-.27-.18-.44 0-.08.01-.15.04-.23l.92-2.37-2.67-6.49c-.04-.09-.06-.18-.06-.27 0-.18.06-.33.18-.46s.27-.19.45-.19c.13 0 .25.04.36.11.11.08.19.17.23.28l2.18 5.41 2.23-5.39c.12-.28.32-.43.59-.43.18 0 .33.06.45.19s.18.28.18.46c0 .08-.01.17-.04.24l-3.87 9.3c-.13.29-.33.44-.6.44-.12.02-.27-.04-.39-.16z"/><path d="m37.24 20.53c-.11-.11-.16-.24-.16-.39 0-.16.05-.29.16-.4.11-.1.24-.16.39-.16h6.92c.16 0 .29.05.4.16.1.1.16.24.16.4 0 .15-.05.28-.16.39-.1.11-.24.16-.4.16h-6.92c-.15 0-.28-.05-.39-.16zm0 3.18c-.11-.11-.16-.24-.16-.39 0-.16.05-.29.16-.4.11-.1.24-.16.39-.16h6.92c.16 0 .29.05.4.16.1.1.16.24.16.4 0 .15-.05.28-.16.39-.1.11-.24.16-.4.16h-6.92c-.15 0-.28-.05-.39-.16z"/><path d="m46.96 26.22c-.17-.13-.25-.32-.25-.55 0-.22.08-.41.23-.58l4.08-4.69h-3.59c-.17 0-.31-.06-.43-.17-.11-.11-.17-.25-.17-.42s.06-.31.17-.43.26-.18.43-.18h4.29c.25 0 .44.08.6.23.15.15.23.34.23.58 0 .22-.07.41-.2.57l-3.97 4.65h3.64c.17 0 .31.06.43.18s.18.26.18.43-.06.31-.18.43-.26.17-.43.17h-4.42c-.26-.02-.47-.09-.64-.22z"/></g></g></g></svg>
