<svg xmlns="http://www.w3.org/2000/svg" xmlns:xlink="http://www.w3.org/1999/xlink" width="122.291pt" height="90.284pt" viewBox="0 0 122.291 90.284"><defs><path id="a" d="M-.23437 0h2.71875l.07812-.34375-.65625-.0625C1.75-.42187 1.6875-.5 1.6875-.60937c0-.07813.01563-.15626.0625-.25.39063-.76563.78125-1.5625 1.23438-2.35938H5.6875l.29688 2.48438s-.0625.29687-.3125.32812l-.65625.0625L4.95313 0h2.96875L8-.34375l-.45312-.04687c-.375-.03125-.4375-.20313-.5-.70313l-.875-7.25h-.875L3.28125-4.79687c-.625 1.07812-1.625 2.89062-2.07812 3.60937-.375.625-.59375.75-.95313.79688l-.40625.04687Zm3.45312-3.6875L5.1875-7.23437 5.625-3.6875Zm0 0"/><path id="b" d="M0 0h3.65625c2.92188 0 3.51563-1.5 3.51563-2.5 0-1.28125-.9375-1.82812-1.82813-2l.01563-.01562C6.96875-4.71875 7.64063-5.625 7.64063-6.53125c0-.98437-.57813-1.8125-2.79688-1.8125h-3.0625L1.70313-8l.71875.0625c.21875.01563.29687.10938.29687.29688 0 .07812-.01562.17187-.04687.29687L1.25-1c-.09375.39063-.20312.53125-.5.57813l-.6875.07812Zm2.42188-.92187c0-.09376 0-.1875.03125-.26563l.6875-3.10937H3.625c1.1875 0 2.25.35937 2.25 1.73437 0 1.07813-.65625 2.14063-2.28125 2.14063-.95312 0-1.17187-.1875-1.17187-.5m.8125-3.79688.625-2.79687c.09375-.35938.15625-.42188.96875-.42188 1.01562 0 1.57812.51563 1.57812 1.35938 0 1.26562-1.04687 1.85937-2.39062 1.85937Zm0 0"/><path id="c" d="M.625-3.3125c0 1.59375.78125 3.5 3.78125 3.5.85938 0 1.6875-.125 2.45313-.51562L7.45313-2.25h-.35938c-.67187 1.20313-1.28125 2-2.76562 2-1.40625 0-2.40625-.89062-2.40625-2.75 0-1.09375.28124-2.4375.85937-3.39062C3.39063-7.40625 4.34375-8.125 5.64063-8.125c1.53125 0 1.96875.71875 1.96875 2.03125h.35937l.4375-1.8125c-.6875-.42187-1.8125-.64062-2.67187-.64062-2.26563 0-3.57813 1.07812-4.28125 2.20312C.78125-5.26562.625-4.15625.625-3.3125m0 0"/><path id="d" d="M.65625 0h2.04688v-.20312L2.25-.23438c-.14062-.01562-.20312-.0625-.20312-.28124V-4.0625L2-4.10937l-1.32812.21875v.17187l.48437.07813c.125.01562.17188.0625.17188.26562v2.85938c0 .21874-.0625.26562-.20313.28124l-.46875.03126Zm0 0"/><path id="e" d="m.3125.75.15625.14063c.29688-.28126.8125-.71875.8125-1.20313 0-.3125-.17187-.57812-.46875-.57812-.23437 0-.35937.1875-.35937.34375 0 .21874.17187.32812.17187.57812S.5.54688.3125.75m0 0"/><path id="f" d="M.26563-.65625c0 .23438.35937.73438 1.28125.73438 1.04687 0 1.46875-.625 1.46875-1.375 0-.71875-.40625-1.29688-1.28125-1.29688-.375 0-.71875.17188-.9375.34375l.125-1c.03124-.17187.04687-.20312.20312-.20312h1.54688l.17187-.51563-.03125-.0625H.65625l-.04687.0625-.125 2 .20312.125c.23438-.28125.46875-.42187.78125-.42187.40625 0 .76563.29687.76563 1.04687 0 .60938-.20313 1.04688-.65625 1.04688-.35938 0-.5625-.25-.70313-.6875-.04687-.10938-.10937-.17188-.23437-.17188-.15626 0-.375.14063-.375.375m0 0"/><path id="g" d="M.21875-.26562c0 .1875.15625.34375.4375.34375.39063 0 .60938-.375.85938-.78125l.21874-.39063H1.75l.09375.45313c.10938.4375.23438.71875.5625.71875.5 0 .78125-.5.96875-.9375L3.20313-.9375c-.14063.29688-.32813.60938-.48438.60938-.10937 0-.15625-.10938-.26562-.53125l-.21875-.90625c.1875-.34375.4375-.73438.60937-.73438.1875 0 .23438.125.42188.125.15625 0 .28125-.15625.28125-.35937s-.15625-.29688-.32813-.29688c-.29687 0-.5625.21875-.76562.5625l-.28125.42188L1.95313-3l-.04688-.03125-1.10937.29688.01562.17187.42188-.03125c.125 0 .17187.04688.21874.25l.21876.92188-.15626.29687c-.21874.375-.42187.65625-.54687.65625-.17187 0-.25-.17187-.4375-.17187-.17187 0-.3125.1875-.3125.375m0 0"/><path id="h" d="M.51563-1.48437h1.4375v1.4375h.4375v-1.4375h1.4375v-.4375h-1.4375v-1.4375h-.4375v1.4375H.51563Zm0 0"/><path id="i" d="M.1875-.65625c0 .23438.35938.73438 1.32813.73438C2.42188.07813 3-.35937 3-1.125c0-.84375-.73437-1.04687-1.01562-1.07812v-.03125c.32812-.0625.84375-.28125.84375-.875 0-.75-.625-1-1.26563-1-.75 0-1.23437.42187-1.23437.76562 0 .21875.25.32813.375.32813.09374 0 .15624-.0625.1875-.15625.14062-.4375.34375-.6875.65625-.6875.42187 0 .51562.4375.51562.73437 0 .29688-.07812.8125-.5625.8125-.26562 0-.45312-.07812-.5625-.07812-.09375 0-.125.07812-.125.20312s.03125.20313.125.20313c.10938 0 .29688-.07813.5625-.07813.40625 0 .70313.32813.70313.95313 0 .67187-.28125.9375-.6875.9375-.32813 0-.57813-.25-.71875-.6875-.03126-.10938-.10938-.1875-.21876-.1875-.15624 0-.39062.14062-.39062.39062m0 0"/><path id="j" d="M.1875-.07812.25 0h2.60938l.23437-.90625-.1875-.03125c-.15625.3125-.26562.35938-.5.35938H.85938c.10937-.26563.39062-.65625 1-1.04688.625-.39062 1.0625-.6875 1.0625-1.34375 0-.84375-.57813-1.14062-1.28125-1.14062-.8125 0-1.3125.45312-1.3125.85937 0 .23438.26562.34375.40625.34375.125 0 .1875-.0625.21874-.1875.09376-.4375.3125-.76562.65626-.76562.39062 0 .51562.34375.51562.76562 0 .53125-.21875.95313-.79687 1.45313C.53125-.96875.25-.51562.1875-.07812m0 0"/><path id="k" d="m.125-1.21875.09375.15625h1.57813v.60938c0 .17187-.0625.20312-.17188.21875l-.39062.03124V0H2.9375v-.20312l-.28125-.01563c-.125-.03125-.17187-.0625-.17187-.23437v-.60938h.60937v-.34375h-.60937v-2.625h-.57813C1.3125-3.14062.67188-2.14062.125-1.21875m.53125-.1875c.32813-.60937.71875-1.26562 1.14063-1.95312v1.95312Zm0 0"/></defs><path fill="none" stroke="#000" stroke-miterlimit="10" stroke-width=".39536" d="M31.35547 72.02734V17.17577l73.13282 54.85157Zm0 0"/><use xlink:href="#a" x="18.52649" y="84.91855"/><use xlink:href="#b" x="18.91243" y="12.6348"/><use xlink:href="#c" x="109.02876" y="85.11102"/><use xlink:href="#d" x="4.41242" y="46.21549"/><use xlink:href="#e" x="7.72118" y="46.21549"/><use xlink:href="#f" x="10.11761" y="46.21549"/><use xlink:href="#g" x="13.42637" y="46.21549"/><use xlink:href="#h" x="18.26422" y="46.21549"/><use xlink:href="#i" x="23.5004" y="46.21549"/><use xlink:href="#j" x="59.56603" y="80.67123"/><use xlink:href="#g" x="62.87478" y="80.67123"/><use xlink:href="#h" x="67.71905" y="80.67123"/><use xlink:href="#k" x="72.94881" y="80.67123"/><use xlink:href="#j" x="63.3143" y="39.17929"/><use xlink:href="#e" x="66.62305" y="39.17929"/><use xlink:href="#f" x="69.01949" y="39.17929"/><use xlink:href="#g" x="72.32824" y="39.17929"/><use xlink:href="#h" x="77.17252" y="39.17929"/><use xlink:href="#f" x="82.40228" y="39.17929"/></svg>