<svg xmlns="http://www.w3.org/2000/svg" xmlns:xlink="http://www.w3.org/1999/xlink" width="188.118pt" height="138.881pt" viewBox="0 0 188.118 138.881"><defs><path id="a" d="M-.35937 0h4.20312l.125-.53125L2.9375-.64062c-.23437-.01563-.34375-.125-.34375-.3125 0-.09376.04688-.23438.10938-.375.60937-1.1875 1.20312-2.40625 1.89062-3.65625h4.1875L9.23438-1.125s-.09375.45313-.48438.48438l-1 .10937L7.65625 0h4.57813l.125-.53125-.71875-.0625c-.57813-.0625-.65625-.3125-.75-1.09375l-1.375-11.20312H8.1875l-3.125 5.5c-.95312 1.65625-2.5 4.4375-3.20312 5.54687C1.26563-.875.95313-.67187.375-.60937l-.60937.07812Zm5.34375-5.6875 3.03125-5.46875.67187 5.46875Zm0 0"/><path id="b" d="M0 0h5.65625c4.5 0 5.40625-2.3125 5.40625-3.85937 0-1.96875-1.45312-2.82813-2.8125-3.07813l.01563-.04687c2.48437-.29688 3.53125-1.70313 3.53125-3.10938 0-1.5-.89063-2.79687-4.32813-2.79687H2.75l-.10937.53125L3.75-12.25c.3125.01563.45313.15625.45313.45313 0 .125-.04688.28125-.07813.45312L1.92188-1.54687c-.14063.60937-.3125.82812-.76563.89062l-1.0625.125Zm3.73438-1.42187q0-.21095.04687-.42188L4.85938-6.625h.73437c1.84375 0 3.46875.53125 3.46875 2.65625 0 1.67188-1.01562 3.3125-3.51562 3.3125-1.46875 0-1.8125-.29687-1.8125-.76562M5-7.28125l.96875-4.3125c.14063-.5625.23438-.65625 1.48438-.65625 1.5625 0 2.4375.79688 2.4375 2.09375 0 1.95313-1.625 2.875-3.6875 2.875Zm0 0"/><path id="c" d="M.96875-5.10937c0 2.45312 1.21875 5.39062 5.82813 5.39062C8.125.28125 9.40625.09375 10.59375-.5L11.5-3.46875h-.5625C9.90625-1.60937 8.98438-.375 6.6875-.375c-2.17187 0-3.71875-1.39062-3.71875-4.26562 0-1.6875.4375-3.75 1.32813-5.23438.9375-1.5625 2.40625-2.65625 4.40625-2.65625 2.35937 0 3.03125 1.09375 3.03125 3.125h.57812l.67188-2.78125c-1.0625-.6875-2.8125-1-4.125-1-3.5 0-5.53125 1.64063-6.625 3.39063C1.20313-8.125.96875-6.40625.96875-5.10937m0 0"/><path id="d" d="M1.01563 0H4.1875v-.3125l-.71875-.04687c-.20312-.03125-.29687-.09375-.29687-.4375v-5.48438l-.07813-.0625L1.03125-6v.26563l.75.10937c.1875.03125.26563.10938.26563.40625v4.42188c0 .34375-.10938.40625-.32813.4375l-.70312.04687Zm0 0"/><path id="e" d="m.46875 1.17188.25.20312c.46875-.4375 1.25-1.10937 1.25-1.84375 0-.5-.26562-.90625-.70312-.90625-.375 0-.5625.28125-.5625.51563 0 .34375.26562.51562.26562.92187 0 .39063-.1875.78125-.5 1.10938m0 0"/><path id="f" d="M.42188-1.01562c0 .375.54687 1.125 1.95312 1.125C4.01563.10938 4.65625-.84375 4.65625-2c0-1.10937-.625-2-1.98437-2-.5625 0-1.10938.25-1.4375.51563l.1875-1.53125c.04687-.28125.09374-.3125.29687-.3125H4.125l.28125-.79688-.0625-.10937H1.01563l-.07813.09375L.75-3.04687l.29688.20312c.375-.45312.75-.65625 1.21875-.65625.625 0 1.20312.45313 1.20312 1.60938 0 .95312-.32812 1.625-1.03125 1.625-.54687 0-.85937-.39063-1.09375-1.04688-.04687-.17187-.15625-.28125-.35937-.28125-.23438 0-.5625.21875-.5625.57813m0 0"/><path id="g" d="M.34375-.42187c0 .29687.23438.53125.65625.53125.625 0 .96875-.5625 1.32813-1.1875l.34375-.60938h.03125l.15625.70313c.15625.67187.34375 1.09375.85937 1.09375.78125 0 1.21875-.76563 1.48438-1.4375l-.25-.125C4.71875-.98437 4.4375-.5 4.20313-.5c-.17188 0-.25-.17187-.40625-.8125l-.34375-1.40625c.29687-.53125.6875-1.14062.9375-1.14062.28125 0 .375.17187.65625.17187.23437 0 .4375-.23437.4375-.53125 0-.32812-.23438-.46875-.51563-.46875-.46875 0-.85937.35938-1.1875.875l-.42187.64063h-.01563L3-4.64062l-.04687-.04688-1.71875.46875.01562.26563L1.90625-4c.1875 0 .25.0625.34375.39063l.32813 1.42187-.25.46875c-.32813.5625-.625 1-.82813 1-.28125 0-.375-.26562-.6875-.26562-.25 0-.46875.28124-.46875.5625m0 0"/><path id="h" d="M.79688-2.29687h2.21875V-.0625h.6875v-2.23437h2.21875v-.67188H3.70313v-2.23437h-.6875v2.23437H.79688Zm0 0"/><path id="i" d="M.28125-1.01562c0 .375.5625 1.125 2.04688 1.125C3.75.10938 4.64063-.5625 4.64063-1.75c0-1.28125-1.14063-1.60937-1.57813-1.65625v-.03125c.5-.10937 1.29688-.45312 1.29688-1.35937 0-1.15625-.95313-1.54688-1.9375-1.54688C1.25-6.34375.5-5.70312.5-5.17187c0 .34375.40625.51562.57813.51562.15624 0 .25-.09375.29687-.25.21875-.67187.51563-1.0625 1-1.0625.65625 0 .8125.67188.8125 1.14063 0 .45312-.125 1.25-.875 1.25-.40625 0-.6875-.10938-.85937-.10938-.15626 0-.20313.10938-.20313.29688 0 .20312.04688.32812.20313.32812.17187 0 .4375-.10937.85937-.10937.64063 0 1.09375.5 1.09375 1.45312 0 1.03125-.4375 1.45313-1.0625 1.45313-.51562 0-.89062-.39063-1.10937-1.0625q-.07032-.28126-.32813-.28126c-.25 0-.625.20313-.625.59376m0 0"/><path id="j" d="M.28125-.125.39063 0h4.03125l.35937-1.40625-.29687-.04687c-.23438.48437-.39063.5625-.78125.5625H1.34375C1.48438-1.3125 1.92188-1.92187 2.875-2.5 3.84375-3.125 4.5-3.57812 4.5-4.57812c0-1.3125-.89062-1.76563-1.95312-1.76563C1.29688-6.34375.5-5.64062.5-5.01562c0 .35937.40625.53125.64063.53125.17187 0 .28124-.09375.32812-.29688.15625-.6875.48438-1.1875 1.01563-1.1875.59375 0 .8125.53125.8125 1.20313 0 .8125-.34375 1.45312-1.25 2.21875C.82813-1.5.39063-.79687.28124-.125m0 0"/><path id="k" d="m.20313-1.875.125.23438h2.45312v.9375c0 .26562-.09375.32812-.28125.34375l-.60937.04687V0h2.64062v-.3125l-.4375-.03125c-.1875-.03125-.25-.09375-.25-.35937v-.9375h.9375v-.53125h-.9375v-4.0625h-.89062c-.92188 1.375-1.90625 2.92187-2.75 4.35937m.8125-.29687c.5-.9375 1.125-1.96875 1.76562-3.03125v3.03125Zm0 0"/></defs><path fill="none" stroke="#000" stroke-miterlimit="10" stroke-width=".39664" d="M48.1914 111.41406v-84.6445l112.85934 84.6445Zm0 0"/><use xlink:href="#a" x="28.39487" y="131.31241"/><use xlink:href="#b" x="28.99008" y="19.7654"/><use xlink:href="#c" x="168.05606" y="131.61002"/><use xlink:href="#d" x="6.61001" y="71.57748"/><use xlink:href="#e" x="11.71683" y="71.57748"/><use xlink:href="#f" x="15.41555" y="71.57748"/><use xlink:href="#g" x="20.52236" y="71.57748"/><use xlink:href="#h" x="27.99914" y="71.57748"/><use xlink:href="#i" x="36.07088" y="71.57748"/><use xlink:href="#j" x="91.73689" y="124.75814"/><use xlink:href="#g" x="96.8437" y="124.75814"/><use xlink:href="#h" x="104.31056" y="124.75814"/><use xlink:href="#k" x="112.39222" y="124.75814"/><use xlink:href="#j" x="97.52077" y="60.71839"/><use xlink:href="#e" x="102.62758" y="60.71839"/><use xlink:href="#f" x="106.32631" y="60.71839"/><use xlink:href="#g" x="111.43313" y="60.71839"/><use xlink:href="#h" x="118.9099" y="60.71839"/><use xlink:href="#f" x="126.98164" y="60.71839"/></svg>