<svg xmlns="http://www.w3.org/2000/svg" xmlns:xlink="http://www.w3.org/1999/xlink" width="218.416pt" height="75.768pt" viewBox="0 0 218.416 75.768"><defs><path id="c" d="M.39063 0h3.21875v-.3125c-1.14063-.07812-1.15625-.07812-1.15625-.70312V-3.5625h1.51562c.9375 0 .98438.25 1.07813.95313H5.375v-2.34375h-.32812c-.09375.70312-.14063.96875-1.07813.96875H2.45313v-2.79688c0-.375.03125-.40625.39062-.40625h1.07813c1.28125 0 1.53125.26563 1.6875 1.375h.3125v-1.75H.39063v.3125c.95312.07813.98437.09375.98437.70313v5.53125c0 .625-.03125.625-.98437.70312Zm0 0"/><path id="d" d="M.53125-1.42187c0 .8125.54688 1.54687 1.57813 1.54687.64062 0 1.28125-.42187 1.625-.64062.14062.40625.32812.64062.71875.64062.40625 0 .875-.10937 1.29687-.32812l-.07812-.25c-.15625.03125-.39063.04687-.5625 0-.1875-.04688-.375-.25-.375-.9375v-2.64063c0-.64062-.14063-1.45312-1.79688-1.45312-1.23437 0-2.20312.64062-2.20312 1.23437 0 .35938.40625.51563.60937.51563.23438 0 .29688-.10938.35938-.29688.23437-.8125.6875-1.07812 1.125-1.07812.42187 0 .92187.23437.92187 1.09375v.45312c-.28125.28125-1.34375.5625-2.20312.84375C.75-2.46875.53125-1.9375.53125-1.42187m1.10938-.14063c0-.51562.23437-.78125.84375-1.01562C2.92188-2.75 3.5-2.95312 3.75-3.10937v1.54687c0 .89063-.6875 1.10938-1.10937 1.10938-.67188 0-1-.48438-1-1.10938m0 0"/><path id="e" d="M.53125-2.625c0 1.82813.90625 2.75 2.53125 2.75.78125 0 1.8125-.39062 2.10938-1.5625l-.32813-.15625C4.51563-.82812 4.07813-.4375 3.28125-.4375c-1.3125 0-1.60937-1.35937-1.60937-2.39062 0-1.625.64062-2.28125 1.39062-2.28125.5 0 .8125.35937 1.04688.95312.0625.1875.14062.28125.34375.28125.21875 0 .64062-.14062.64062-.54687 0-.5-.71875-1.0625-1.90625-1.0625-1.98437 0-2.65625 1.40625-2.65625 2.85937m0 0"/><path id="f" d="M.53125-2.64062c0 1.73437.75 2.76562 2.53125 2.76562 1.20313 0 1.82813-.67187 2.125-1.53125l-.32812-.17187C4.5625-.9375 4.14063-.4375 3.28125-.4375c-1.35937 0-1.625-1.29687-1.60937-2.4375h3.15625c.23437 0 .42187-.04687.42187-.42187 0-.625-.20312-2.1875-2.20312-2.1875-1.70313 0-2.51563 1.20312-2.51563 2.84375m1.15625-.65625c0-.45313.15625-1.8125 1.29688-1.8125 1.01562 0 1.125 1.04687 1.125 1.46875 0 .21875-.0625.34375-.35938.34375Zm0 0"/><path id="g" d="M-.3125 0h2.40625v-.3125L1.51563-.375c-.3125-.03125-.35938-.14062-.26563-.4375.1875-.65625.40625-1.32812.65625-2.10937h2.45313l.73437 2.09375c.10938.3125.0625.4375-.29687.46875l-.5.04687V0h2.8125v-.3125c-.64063-.0625-.76563-.09375-.95313-.65625L3.84375-7.5625h-.82812l-1.125 3.23438C1.54688-3.375 1.07813-2.0625.70313-1.0625.46875-.48437.375-.34375-.3125-.3125Zm2.375-3.34375c.34375-1.07812.73438-2.15625 1.04688-3.125h.04687l1.07813 3.125Zm0 0"/><path id="h" d="M.34375 0h2.89063v-.3125C2.25-.375 2.20313-.39062 2.20313-.95312v-2.5625c0-.82813.35937-1.125.625-1.125.17187 0 .35937.07812.67187.25.07813.04687.15625.04687.21875.04687.26563 0 .5-.26562.5-.60937 0-.25-.15625-.53125-.57812-.53125-.39063 0-.71875.23437-1.4375.875l-.14063-.875-1.65625.28125v.26562l.40625.0625c.28125.03125.35938.07813.35938.48438v3.4375c0 .5625-.0625.57812-.82813.64062Zm0 0"/><path id="i" d="m1.3125-6.14062.20313.21875 1.125-.82813c.10937-.09375.25-.17187.34375-.17187s.21875.07812.34375.17187l1.125.82813.20312-.21875L3.375-7.59375c-.125-.14062-.26562-.28125-.39062-.28125s-.25.125-.39063.28125Zm-.78125 3.5c0 1.73437.75 2.76562 2.53125 2.76562 1.20313 0 1.82813-.67187 2.125-1.53125l-.32812-.17187C4.5625-.9375 4.14063-.4375 3.28125-.4375c-1.35937 0-1.625-1.29687-1.60937-2.4375h3.15625c.23437 0 .42187-.04687.42187-.42187 0-.625-.20312-2.1875-2.20312-2.1875-1.70313 0-2.51563 1.20312-2.51563 2.84375m1.15625-.65625c0-.45313.15625-1.8125 1.29688-1.8125 1.01562 0 1.125 1.04687 1.125 1.46875 0 .21875-.0625.34375-.35938.34375Zm0 0"/><path id="j" d="M.34375-4.92187H1.125v3.8125C1.125 0 1.95313.125 2.34375.125c.54688 0 1.07813-.28125 1.39063-.46875l-.07813-.23437c-.26562.09374-.5.14062-.78125.14062-.375 0-.71875-.26562-.71875-1.09375v-3.39062H3.5625v-.4375H2.15625v-1.375h-.3125l-.67187 1.375H.34375Zm0 0"/><path id="k" d="M.54688-2.25.65625-.48437C1.125-.03125 2.04688.15624 2.8125.15624 4.75.15625 5.51563-.9375 5.51563-2.0625c0-1.28125-.875-1.90625-2.15625-2.35937L3-4.5625c-.73437-.28125-1.34375-.73437-1.34375-1.39062 0-.79688.48438-1.39063 1.40625-1.39063.9375 0 1.45313.53125 1.64063 1.64063h.32812V-7.25c-.375-.28125-1.10937-.48437-1.84375-.48437-1.34375 0-2.53125.67187-2.53125 2.125 0 1.14062.92188 1.73437 2.07813 2.14062l.1875.07813c.48437.1875 1.53125.6875 1.53125 1.65625 0 .9375-.60938 1.51562-1.57813 1.51562-1.03125 0-1.70312-.79687-1.98437-2.03125Zm0 0"/><path id="l" d="M.53125-2.67187c0 1.76562.875 2.79687 2.625 2.79687 1.76563 0 2.625-1.03125 2.625-2.79687s-.85937-2.8125-2.625-2.8125c-1.75 0-2.625 1.04687-2.625 2.8125m1.14063 0c0-1.51563.48437-2.4375 1.48437-2.4375s1.5.92187 1.5 2.4375c0 1.51562-.5 2.42187-1.5 2.42187s-1.48437-.90625-1.48437-2.42187m0 0"/><path id="m" d="M.34375 0h2.67188v-.3125c-.78125-.0625-.8125-.07812-.8125-.64062v-2.5625c0-.28125 0-.42188.07812-.57813.20313-.4375.6875-.79687 1.28125-.79687.95313 0 1.0625.6875 1.0625 1.35937v2.57813c0 .5625-.03125.57812-.82812.64062V0h2.67187v-.3125c-.78125-.0625-.8125-.07812-.8125-.64062v-2.5625c0-.28125 0-.40625.07813-.59375.15625-.4375.625-.78125 1.23437-.78125.6875 0 1.10938.375 1.10938 1.35937v2.57813c0 .5625-.03125.57812-.82813.64062V0h2.67188v-.3125c-.76563-.0625-.8125-.07812-.8125-.64062V-3.75c0-1.09375-.59375-1.73437-1.64063-1.73437-.89062 0-1.53125.59375-1.90625.82812-.26562-.5-.6875-.82812-1.45312-.82812-.84375 0-1.53125.5625-1.90625.82812l-.10938-.82812-1.6875.28125v.26562l.40625.0625c.28125.03125.35938.07813.35938.48438v3.4375c0 .5625-.03126.57812-.82813.64062Zm0 0"/><clipPath id="a"><path d="M74 0h115v75.53516H74Zm0 0"/></clipPath><clipPath id="b"><path d="M59 0h130v75.53516H59Zm0 0"/></clipPath></defs><path fill="#7fbfbf" fill-opacity=".6" d="m79.89453 73.6875 102.88672-29.39453L153.38281.19922 94.59375 44.29297Zm0 0"/><g clip-path="url(#a)"><path fill="none" stroke="#000" stroke-miterlimit="10" stroke-width=".39728" d="M79.89453 73.68749 182.7812 44.29297 153.38278.19924 94.59374 44.29297Zm0 0"/></g><g clip-path="url(#b)"><path fill="none" stroke="#000" stroke-miterlimit="10" stroke-width=".39728" d="m65.19531 36.94532 14.69922 36.74217L182.7812 44.29297 153.38278.19924l-73.48825 14.6953Zm0 0"/></g><path fill="none" stroke="#000" stroke-miterlimit="10" stroke-width=".39728" d="M94.59374 44.29297 79.89453 14.89454"/><path fill="none" stroke="#000" stroke-dasharray="2.9797140685000003 2.9797140685000003" stroke-miterlimit="10" stroke-width=".39728" d="m65.19531 36.94532 117.5859 7.34765"/><path fill="none" stroke="#000" stroke-miterlimit="10" stroke-width=".39728" d="m153.36716 58.98828-25.14843-10.0586"/><path stroke="#000" stroke-miterlimit="10" stroke-width=".39727" d="M124.66406 47.50781c.39063.29297 2.04297 1.72266 2.95313 2.92578l1.20312-3.01172c-1.48828.2461-3.67187.14454-4.15625.08594Zm0 0"/><use xlink:href="#c" x="142.11125" y="71.10528"/><use xlink:href="#d" x="147.92161" y="71.10528"/><use xlink:href="#e" x="153.62738" y="71.10528"/><use xlink:href="#f" x="159.04263" y="71.10528"/><path fill="none" stroke="#000" stroke-miterlimit="10" stroke-width=".39728" d="m182.75777 10.4922-15.13671 3.40625"/><path stroke="#000" stroke-miterlimit="10" stroke-width=".39726" d="M163.88672 14.73828c.48828.01953 2.66015.26563 4.08984.74219l-.71094-3.16406c-1.08984 1.04297-2.9453 2.1953-3.3789 2.42187Zm0 0"/><use xlink:href="#g" x="187.34076" y="14.35704"/><use xlink:href="#h" x="194.2667" y="14.35704"/><use xlink:href="#i" x="198.50826" y="14.35704"/><use xlink:href="#j" x="204.12107" y="14.35704"/><use xlink:href="#f" x="207.87456" y="14.35704"/><path fill="none" stroke="#000" stroke-miterlimit="10" stroke-width=".39728" d="m50.5 10.4922 24.875 3.72656"/><path stroke="#000" stroke-miterlimit="10" stroke-width=".39726" d="M79.16016 14.78516c-.44532-.19532-2.38282-1.20703-3.54297-2.16797l-.48047 3.20703c1.39062-.58203 3.53906-.98438 4.02344-1.03906Zm0 0"/><use xlink:href="#k" x="4.34609" y="14.26931"/><use xlink:href="#l" x="10.12158" y="14.26931"/><use xlink:href="#m" x="16.42" y="14.26931"/><use xlink:href="#m" x="26.49516" y="14.26931"/><use xlink:href="#f" x="36.57032" y="14.26931"/><use xlink:href="#j" x="42.18312" y="14.26931"/></svg>