<svg xmlns="http://www.w3.org/2000/svg" width="102.471pt" height="102.471pt" viewBox="0 0 102.471 102.471"><defs><clipPath id="a"><path d="M0 67h101.94531v34.94531H0Zm0 0"/></clipPath><clipPath id="b"><path d="M0 0h35v101.94531H0Zm0 0"/></clipPath><clipPath id="c"><path d="M101 0h.94531v74H101Zm0 0"/></clipPath><clipPath id="d"><path d="M28 0h73.94531v1H28Zm0 0"/></clipPath><clipPath id="e"><path d="M0 60h101.94531v41H0Zm0 0"/></clipPath><clipPath id="f"><path d="M1 0h41v101.94531H1Zm0 0"/></clipPath><clipPath id="g"><path d="M0 53h101.94531v40H0Zm0 0"/></clipPath><clipPath id="h"><path d="M9 0h40v101.94531H9Zm0 0"/></clipPath><clipPath id="i"><path d="M0 45h101.94531v41H0Zm0 0"/></clipPath><clipPath id="j"><path d="M16 0h41v101.94531H16Zm0 0"/></clipPath><clipPath id="k"><path d="M0 38h101.94531v41H0Zm0 0"/></clipPath><clipPath id="l"><path d="M23 0h41v101.94531H23Zm0 0"/></clipPath><clipPath id="m"><path d="M0 31h101.94531v40H0Zm0 0"/></clipPath><clipPath id="n"><path d="M31 0h40v101.94531H31Zm0 0"/></clipPath><clipPath id="o"><path d="M0 23h101.94531v41H0Zm0 0"/></clipPath><clipPath id="p"><path d="M38 0h41v101.94531H38Zm0 0"/></clipPath><clipPath id="q"><path d="M0 16h101.94531v41H0Zm0 0"/></clipPath><clipPath id="r"><path d="M45 0h41v101.94531H45Zm0 0"/></clipPath><clipPath id="s"><path d="M0 9h101.94531v40H0Zm0 0"/></clipPath><clipPath id="t"><path d="M53 0h40v101.94531H53Zm0 0"/></clipPath><clipPath id="u"><path d="M0 1h101.94531v41H0Zm0 0"/></clipPath><clipPath id="v"><path d="M60 0h41v101.94531H60Zm0 0"/></clipPath><clipPath id="w"><path d="M0 0h101.94531v35H0Zm0 0"/></clipPath><clipPath id="x"><path d="M67 0h34.94531v101.94531H67Zm0 0"/></clipPath><clipPath id="y"><path d="M73 28h1v73.94531h-1Zm0 0"/></clipPath></defs><g clip-path="url(#a)"><path fill="none" stroke="#000" stroke-miterlimit="10" stroke-width=".39645" d="M.19922 101.7461h73.3203l28.22657-28.22657"/></g><g clip-path="url(#b)"><path fill="none" stroke="#000" stroke-miterlimit="10" stroke-width=".39645" d="M.19922 101.7461V28.42578L28.42578.19532"/></g><g clip-path="url(#c)"><path fill="none" stroke="#000" stroke-miterlimit="10" stroke-width=".39645" d="M101.74609 73.51953V.19532"/></g><g clip-path="url(#d)"><path fill="none" stroke="#000" stroke-miterlimit="10" stroke-width=".39645" d="M28.42578.19532h73.3203"/></g><g clip-path="url(#e)"><path fill="none" stroke="#000" stroke-miterlimit="10" stroke-width=".39645" d="M.19922 94.41406h73.3203L101.7461 66.1875"/></g><g clip-path="url(#f)"><path fill="none" stroke="#000" stroke-miterlimit="10" stroke-width=".39645" d="M7.53125 101.7461V28.42578L35.75781.19532"/></g><path fill="none" stroke="#000" stroke-miterlimit="10" stroke-width=".39645" d="M98.92578 76.33984V3.01954m-73.32422 0h73.32422"/><g clip-path="url(#g)"><path fill="none" stroke="#000" stroke-miterlimit="10" stroke-width=".39645" d="M.19922 87.08203h73.3203l28.22657-28.22656"/></g><g clip-path="url(#h)"><path fill="none" stroke="#000" stroke-miterlimit="10" stroke-width=".39645" d="M14.86328 101.7461V28.42578L43.08984.19532"/></g><path fill="none" stroke="#000" stroke-miterlimit="10" stroke-width=".39645" d="M96.10156 79.16406V5.84376m-73.32031 0h73.3203"/><g clip-path="url(#i)"><path fill="none" stroke="#000" stroke-miterlimit="10" stroke-width=".39645" d="M.19922 79.75h73.3203l28.22657-28.22656"/></g><g clip-path="url(#j)"><path fill="none" stroke="#000" stroke-miterlimit="10" stroke-width=".39645" d="M22.19531 101.7461V28.42578L50.42187.19532"/></g><path fill="none" stroke="#000" stroke-miterlimit="10" stroke-width=".39645" d="M93.28125 81.98828V8.66407m-73.32422 0h73.32422"/><g clip-path="url(#k)"><path fill="none" stroke="#000" stroke-miterlimit="10" stroke-width=".39645" d="M.19922 72.41797h73.3203L101.7461 44.1914"/></g><g clip-path="url(#l)"><path fill="none" stroke="#000" stroke-miterlimit="10" stroke-width=".39645" d="M29.52734 101.7461V28.42578L57.7539.19532"/></g><path fill="none" stroke="#000" stroke-miterlimit="10" stroke-width=".39645" d="M90.45703 84.8086V11.48828m-73.32031.00001h73.3203"/><g clip-path="url(#m)"><path fill="none" stroke="#000" stroke-miterlimit="10" stroke-width=".39645" d="M.19922 65.08594h73.3203l28.22657-28.22656"/></g><g clip-path="url(#n)"><path fill="none" stroke="#000" stroke-miterlimit="10" stroke-width=".39645" d="M36.85937 101.7461V28.42578L65.08593.19532"/></g><path fill="none" stroke="#000" stroke-miterlimit="10" stroke-width=".39645" d="M87.6328 87.63281v-73.3203m-73.3203-.00001h73.3203"/><g clip-path="url(#o)"><path fill="none" stroke="#000" stroke-miterlimit="10" stroke-width=".39645" d="M.19922 57.7539h73.3203l28.22657-28.22655"/></g><g clip-path="url(#p)"><path fill="none" stroke="#000" stroke-miterlimit="10" stroke-width=".39645" d="M44.1914 101.7461V28.42578L72.41798.19532"/></g><path fill="none" stroke="#000" stroke-miterlimit="10" stroke-width=".39645" d="M84.8125 90.45703V17.13282m-73.32422 0H84.8125"/><g clip-path="url(#q)"><path fill="none" stroke="#000" stroke-miterlimit="10" stroke-width=".39645" d="M.19922 50.42188h73.3203L101.7461 22.1914"/></g><g clip-path="url(#r)"><path fill="none" stroke="#000" stroke-miterlimit="10" stroke-width=".39645" d="M51.52344 101.7461V28.42578L79.75.19532"/></g><path fill="none" stroke="#000" stroke-miterlimit="10" stroke-width=".39645" d="M81.98828 93.27734v-73.3203m-73.32031 0h73.3203"/><g clip-path="url(#s)"><path fill="none" stroke="#000" stroke-miterlimit="10" stroke-width=".39645" d="M.19922 43.08985h73.3203l28.22657-28.23047"/></g><g clip-path="url(#t)"><path fill="none" stroke="#000" stroke-miterlimit="10" stroke-width=".39645" d="M58.85547 101.7461V28.42578L87.08203.19532"/></g><path fill="none" stroke="#000" stroke-miterlimit="10" stroke-width=".39645" d="M79.16406 96.10156v-73.3203m-73.32031-.00001h73.3203"/><g clip-path="url(#u)"><path fill="none" stroke="#000" stroke-miterlimit="10" stroke-width=".39645" d="M.19922 35.75782h73.3203L101.7461 7.52735"/></g><g clip-path="url(#v)"><path fill="none" stroke="#000" stroke-miterlimit="10" stroke-width=".39645" d="M66.1875 101.7461V28.42578L94.41406.19532"/></g><path fill="none" stroke="#000" stroke-miterlimit="10" stroke-width=".39645" d="M76.34375 98.92578V25.60157m-73.32422 0h73.32422"/><g clip-path="url(#w)"><path fill="none" stroke="#000" stroke-miterlimit="10" stroke-width=".39645" d="M.19922 28.42579h73.3203L101.7461.19532"/></g><g clip-path="url(#x)"><path fill="none" stroke="#000" stroke-miterlimit="10" stroke-width=".39645" d="M73.51953 101.7461V28.42578L101.74609.19532"/></g><g clip-path="url(#y)"><path fill="none" stroke="#000" stroke-miterlimit="10" stroke-width=".39645" d="M73.51953 101.7461V28.42578"/></g><path fill="none" stroke="#000" stroke-miterlimit="10" stroke-width=".39645" d="M.19922 28.42579h73.3203"/></svg>