<svg xmlns="http://www.w3.org/2000/svg" xmlns:xlink="http://www.w3.org/1999/xlink" width="443.003pt" height="102.766pt" viewBox="0 0 443.003 102.766"><defs><path id="c" d="M.85938-.625c0 .4375.29687.76563.75.76563.48437 0 .75-.32813.76562-.76563 0-.45312-.28125-.78125-.76562-.78125-.45313 0-.75.32813-.75.78125m0 0"/><path id="f" d="M.26563 0h2.9375v-.34375c-.84375-.0625-.90625-.125-.90625-.71875v-2.84375c0-.3125 0-.46875.10937-.64062.25-.5.8125-.89063 1.45313-.89063.82812 0 1.28125.45313 1.28125 1.51563v2.85937c0 .59375-.0625.65625-.92188.71875V0H7.1875v-.34375c-.84375-.0625-.90625-.125-.90625-.71875v-3.09375c0-1.23437-.67187-1.9375-1.79687-1.9375-.89063 0-1.4375.42188-2.20313.92188V-8.9375L2.20313-9 .3125-8.70312v.29687l.45313.0625c.3125.04688.39062.10938.39062.54688v6.73437c0 .59375-.04687.65625-.89062.71875Zm0 0"/><path id="i" d="M.39063 0h2.95312v-.34375c-.85937-.0625-.90625-.09375-.90625-.71875v-2.84375c0-.3125 0-.46875.09375-.64062.23438-.5.76563-.89063 1.4375-.89063 1.04688 0 1.17188.76563 1.17188 1.51563v2.85937c0 .625-.03125.65625-.92188.71875V0H7.1875v-.34375c-.875-.0625-.90625-.09375-.90625-.71875v-2.84375c0-.3125.01563-.46875.09375-.65625.17188-.48437.6875-.875 1.375-.875.76563 0 1.23438.42188 1.23438 1.51563v2.85937c0 .625-.04688.65625-.92188.71875V0h2.96875v-.34375c-.85937-.0625-.90625-.09375-.90625-.71875v-3.09375c0-1.23437-.67187-1.9375-1.8125-1.9375-1 0-1.70312.65625-2.14062.92188-.29688-.5625-.75-.92188-1.60938-.92188-.9375 0-1.6875.60938-2.125.92188l-.10937-.92188-1.875.3125v.29688l.45312.0625c.3125.04687.40625.09375.40625.53125v3.82812c0 .625-.04687.65625-.92187.71875Zm0 0"/><path id="j" d="M1.10938-7.95312c0 .45312.3125.75.75.75s.73437-.29688.73437-.75c0-.4375-.29687-.73438-.73437-.73438s-.75.29688-.75.73438M.39063 0h2.95312v-.34375c-.85937-.0625-.90625-.09375-.90625-.71875v-4.95312l-.07812-.07813-1.90625.3125v.29688l.45312.0625c.3125.04687.40625.09375.40625.53125v3.82812c0 .625-.04687.65625-.92187.71875Zm0 0"/><path id="k" d="M.39063 0h2.95312v-.34375c-.85937-.0625-.90625-.09375-.90625-.71875v-2.84375c0-.3125.01563-.46875.125-.65625.25-.48437.79688-.875 1.4375-.875.82813 0 1.28125.45313 1.28125 1.51563v2.85937c0 .625-.03125.65625-.90625.71875V0h2.96875v-.34375c-.875-.0625-.92187-.09375-.92187-.71875v-3.09375c0-1.23437-.67188-1.9375-1.78125-1.9375-.90625 0-1.46875.4375-2.21875.92188l-.15625-.92188-1.8125.3125v.29688l.45312.0625c.3125.04687.40625.09375.40625.53125v3.82812c0 .625-.04687.65625-.92187.71875Zm0 0"/><path id="l" d="M.90625-2.625H3.875v-.84375H.90625Zm0 0"/><path id="m" d="M.48438-1.23437c0 .54687.85937 1.375 2.4375 1.375 2 0 2.90625-1.21875 2.90625-2.75 0-1.70313-1.0625-2.57813-2.5-2.57813-.67188 0-1.40625.29688-1.79688.64063v-.01563l.26563-2.26562c.03124-.3125.10937-.35938.34375-.35938h3.03125l.29687-.82812-.0625-.09375h-4.0625L1.23438-8l-.25 4.0625.29687.15625c.5-.59375 1-.875 1.65625-.875.76563 0 1.625.57813 1.625 2.17188 0 1.25-.5 2.20312-1.5625 2.20312-.85937 0-1.28125-.60937-1.53125-1.3125-.0625-.17187-.17187-.29687-.34375-.29687-.25 0-.64062.25-.64062.65625m0 0"/><path id="n" d="M.32813-.10937.45313 0h5.03125l.40625-1.60937-.32813-.0625c-.26562.65625-.51562.75-1 .75H1.45313c.20312-.625.92187-1.5 2.04687-2.3125 1.17188-.84375 2.0625-1.39063 2.0625-2.75 0-1.6875-1.125-2.26563-2.39062-2.26563C1.5-8.25.64063-7.25.64063-6.60937c0 .40625.46875.59375.67187.59375.21875 0 .29688-.125.35938-.32813.1875-.82812.67187-1.48437 1.42187-1.48437.92188 0 1.20313.76562 1.20313 1.67187 0 1.29688-.67188 2.03125-1.71875 2.96875-1.5 1.29688-2.01563 2.125-2.25 3.07813m0 0"/><path id="o" d="M.5-4.0625C.5-1.625 1.21875.14063 3.21875.14063S5.9375-1.625 5.9375-4.0625c0-2.42187-.71875-4.1875-2.71875-4.1875S.5-6.48437.5-4.0625m1.23438 0c0-1.96875.32812-3.76562 1.48437-3.76562S4.70313-6.03125 4.70313-4.0625c0 1.98438-.32813 3.78125-1.48438 3.78125S1.73438-2.07812 1.73438-4.0625m0 0"/><path id="p" d="M.32813-1.23437c0 .51562.82812 1.375 2.54687 1.375 1.76563 0 2.875-.89063 2.875-2.4375 0-1.625-1.39062-2.10938-2.0625-2.17188v-.04687c.65625-.10938 1.70313-.59375 1.70313-1.79688 0-1.34375-1.04688-1.9375-2.35938-1.9375-1.59375 0-2.39062.92188-2.39062 1.4375 0 .375.4375.57813.59375.57813.15624 0 .25-.07813.29687-.23438.28125-.82812.73438-1.35937 1.42188-1.35937.95312 0 1.1875.84375 1.1875 1.51562 0 .73438-.25 1.64063-1.28125 1.64063-.57813 0-.92188-.10938-1.0625-.10938-.15626 0-.21876.10938-.21876.34375 0 .20313.0625.32813.21876.32813.14062 0 .48437-.10938 1.0625-.10938 1.03125 0 1.60937.92188 1.60937 1.98438 0 1.45312-.70312 1.95312-1.57812 1.95312-.79688 0-1.32813-.59375-1.5625-1.28125-.07813-.23437-.1875-.34375-.35938-.34375-.21875 0-.64062.21875-.64062.67188m0 0"/><path id="d" d="M1.3125 0h4v-.34375L4.29688-.4375c-.26563-.03125-.40625-.125-.40625-.59375V-8.1875l-.0625-.0625-2.51563.42188v.29687l1.14063.14063c.20312.03125.28125.10937.28125.46875v5.89062c0 .46875-.10938.5625-.39063.59375L1.3125-.34375Zm0 0"/><path id="e" d="M.5-2.20312C.5-.98437 1.25.14063 3.21875.14063S5.9375-.98437 5.9375-2.20312c0-1.25-.78125-1.96875-1.60937-2.17188.73437-.1875 1.32812-.8125 1.32812-1.8125 0-1.3125-1.04687-2.0625-2.4375-2.0625-1.39062 0-2.4375.75-2.4375 2.0625 0 1 .60938 1.625 1.34375 1.8125C1.3125-4.17187.5-3.45312.5-2.20312m1.21875.03125c0-1.10938.53125-1.9375 1.5-1.9375s1.5.82812 1.5 1.9375c0 1.07812-.48437 1.89062-1.5 1.89062-1.01562 0-1.5-.8125-1.5-1.89062m.23438-4.04688c0-.92187.4375-1.60937 1.26562-1.60937.82813 0 1.26563.6875 1.26563 1.60937 0 .82813-.39063 1.67188-1.26563 1.67188s-1.26562-.84375-1.26562-1.67188m0 0"/><path id="g" d="M.32813-.10937.45313 0h5.03125l.40625-1.60937-.32813-.0625c-.26562.65625-.51562.75-1 .75H1.45313c.20312-.625.92187-1.5 2.04687-2.3125 1.17188-.84375 2.0625-1.39063 2.0625-2.75 0-1.6875-1.125-2.26563-2.39062-2.26563C1.5-8.25.64063-7.25.64063-6.60937c0 .40625.46875.59375.67187.59375.21875 0 .29688-.125.35938-.32813.1875-.82812.67187-1.48437 1.42187-1.48437.92188 0 1.20313.76562 1.20313 1.67187 0 1.29688-.67188 2.03125-1.71875 2.96875-1.5 1.29688-2.01563 2.125-2.25 3.07813m0 0"/><path id="h" d="M.5-4.0625C.5-1.625 1.21875.14063 3.21875.14063S5.9375-1.625 5.9375-4.0625c0-2.42187-.71875-4.1875-2.71875-4.1875S.5-6.48437.5-4.0625m1.23438 0c0-1.96875.32812-3.76562 1.48437-3.76562S4.70313-6.03125 4.70313-4.0625c0 1.98438-.32813 3.78125-1.48438 3.78125S1.73438-2.07812 1.73438-4.0625m0 0"/><clipPath id="a"><path d="M.0039 27H436v1H.0039Zm0 0"/></clipPath><clipPath id="b"><path d="M424 14h18.0039v27H424Zm0 0"/></clipPath></defs><g clip-path="url(#a)"><path fill="none" stroke="#000" stroke-miterlimit="10" stroke-width=".7952" d="M.40234 27.47266h435.0429"/></g><path d="M439.60156 27.47266c-.51172-.10547-2.7539-.70704-4.15625-1.36329v2.72266c1.40235-.65234 3.64453-1.2539 4.15625-1.35937m0 0"/><g clip-path="url(#b)"><path fill="none" stroke="#000" stroke-miterlimit="10" stroke-width=".7952" d="M439.60156 27.47266c-.51172-.10547-2.7539-.70703-4.15625-1.36328v2.72265c1.40235-.65234 3.64453-1.2539 4.15625-1.35937Zm0 0"/></g><path fill="none" stroke="#000" stroke-miterlimit="10" stroke-width=".7952" d="M88.64452 36.66406v-18.3828"/><use xlink:href="#c" x="55.76269" y="13.31368"/><use xlink:href="#c" x="61.44837" y="13.31368"/><use xlink:href="#c" x="67.13406" y="13.31368"/><use xlink:href="#c" x="72.81974" y="13.31368"/><use xlink:href="#c" x="78.50543" y="13.31368"/><use xlink:href="#c" x="84.19111" y="13.31368"/><use xlink:href="#c" x="89.87679" y="13.31368"/><use xlink:href="#c" x="95.56248" y="13.31368"/><use xlink:href="#c" x="101.24816" y="13.31368"/><use xlink:href="#c" x="106.93384" y="13.31368"/><use xlink:href="#c" x="112.61953" y="13.31368"/><use xlink:href="#c" x="118.30521" y="13.31368"/><path fill="none" stroke="#000" stroke-miterlimit="10" stroke-width=".7952" d="M176.8867 36.66406v-18.3828"/><use xlink:href="#c" x="144.00406" y="13.31368"/><use xlink:href="#c" x="149.68975" y="13.31368"/><use xlink:href="#c" x="155.37543" y="13.31368"/><use xlink:href="#c" x="161.06111" y="13.31368"/><use xlink:href="#c" x="166.7468" y="13.31368"/><use xlink:href="#c" x="172.43248" y="13.31368"/><use xlink:href="#c" x="178.11817" y="13.31368"/><use xlink:href="#c" x="183.80385" y="13.31368"/><use xlink:href="#c" x="189.48953" y="13.31368"/><use xlink:href="#c" x="195.17522" y="13.31368"/><use xlink:href="#c" x="200.8609" y="13.31368"/><use xlink:href="#c" x="206.54658" y="13.31368"/><path fill="none" stroke="#000" stroke-miterlimit="10" stroke-width=".7952" d="M265.12496 36.66406v-18.3828"/><use xlink:href="#c" x="232.24414" y="13.31368"/><use xlink:href="#c" x="237.92982" y="13.31368"/><use xlink:href="#c" x="243.61551" y="13.31368"/><use xlink:href="#c" x="249.30119" y="13.31368"/><use xlink:href="#c" x="254.98687" y="13.31368"/><use xlink:href="#c" x="260.67256" y="13.31368"/><use xlink:href="#c" x="266.35824" y="13.31368"/><use xlink:href="#c" x="272.04393" y="13.31368"/><use xlink:href="#c" x="277.72961" y="13.31368"/><use xlink:href="#c" x="283.41529" y="13.31368"/><use xlink:href="#c" x="289.10098" y="13.31368"/><use xlink:href="#c" x="294.78666" y="13.31368"/><path fill="none" stroke="#000" stroke-miterlimit="10" stroke-width=".7952" d="M353.36713 36.66406v-18.3828"/><use xlink:href="#d" x="321.60157" y="13.31368"/><use xlink:href="#e" x="328.03673" y="13.31368"/><use xlink:href="#f" x="337.19856" y="13.31368"/><use xlink:href="#g" x="347.29088" y="13.31368"/><use xlink:href="#h" x="353.72604" y="13.31368"/><use xlink:href="#i" x="362.88786" y="13.31368"/><use xlink:href="#j" x="374.09124" y="13.31368"/><use xlink:href="#k" x="377.61895" y="13.31368"/><use xlink:href="#l" x="113.32282" y="64.83138"/><use xlink:href="#m" x="120.80467" y="64.83138"/><use xlink:href="#i" x="129.96637" y="64.83138"/><use xlink:href="#j" x="141.16975" y="64.83138"/><use xlink:href="#k" x="144.69746" y="64.83138"/><use xlink:href="#l" x="198.34523" y="64.83138"/><use xlink:href="#n" x="205.82707" y="64.83138"/><use xlink:href="#o" x="212.26223" y="64.83138"/><use xlink:href="#i" x="221.42393" y="64.83138"/><use xlink:href="#j" x="232.62732" y="64.83138"/><use xlink:href="#k" x="236.15502" y="64.83138"/><use xlink:href="#l" x="297.23904" y="64.99301"/><use xlink:href="#p" x="304.72089" y="64.99301"/><use xlink:href="#f" x="313.88259" y="64.99301"/><use xlink:href="#l" x="188.71815" y="98.08366"/><use xlink:href="#p" x="196.19999" y="98.08366"/><use xlink:href="#f" x="205.36169" y="98.08366"/><use xlink:href="#n" x="215.45378" y="98.08366"/><use xlink:href="#m" x="221.88894" y="98.08366"/><use xlink:href="#i" x="231.05065" y="98.08366"/><use xlink:href="#j" x="242.25403" y="98.08366"/><use xlink:href="#k" x="245.78174" y="98.08366"/><path fill="none" stroke="#000" stroke-miterlimit="10" stroke-width=".7952" d="M353.36713 40.33984c-33.88671 5.97656-54.35155 5.97656-82.17186 1.07031"/><path stroke="#000" stroke-miterlimit="10" stroke-width=".79519" d="M267.10547 40.6875c.48437.19531 2.58594 1.17578 3.85547 2.0625l.47265-2.67969c-1.49609.39844-3.80859.60156-4.32812.61719Zm0 0"/><path fill="none" stroke="#000" stroke-miterlimit="10" stroke-width=".7952" d="M265.12496 40.33984c-33.88672 5.97656-54.35156 5.97656-82.17186 1.07031"/><path stroke="#000" stroke-miterlimit="10" stroke-width=".79519" d="M178.86328 40.6875c.48437.19531 2.58984 1.17578 3.85547 2.0625l.47266-2.67969c-1.4961.39844-3.8086.60156-4.32813.61719Zm0 0"/><path fill="none" stroke="#000" stroke-miterlimit="10" stroke-width=".7952" d="M176.8867 40.33984c-33.89063 5.97656-54.35156 5.97656-82.17187 1.07031"/><path stroke="#000" stroke-miterlimit="10" stroke-width=".79519" d="M90.6211 40.6875c.48437.19531 2.58984 1.17578 3.85546 2.0625l.47266-2.67969c-1.49219.39844-3.8086.60156-4.32813.61719Zm0 0"/><path fill="none" stroke="#000" stroke-miterlimit="10" stroke-width=".7952" d="M353.36713 64.23828c-101.66795 17.92577-163.05466 17.92577-258.6523 1.0703"/><path stroke="#000" stroke-miterlimit="10" stroke-width=".79519" d="M90.6211 64.58594c.48437.1953 2.58984 1.17578 3.85546 2.0625l.47266-2.6797c-1.49219.39845-3.8086.60157-4.32813.6172Zm0 0"/></svg>