<svg clip-rule="evenodd" fill-rule="evenodd" height="512" image-rendering="optimizeQuality" shape-rendering="geometricPrecision" text-rendering="geometricPrecision" viewBox="0 0 512 512" width="512" xmlns="http://www.w3.org/2000/svg"><g id="Layer_x0020_1"><g fill-rule="nonzero"><path d="m492 372c-4-5-11-7-17-3-5 4-6 12-2 17l17 24c4 6 12 7 17 3s7-11 3-17z" fill="#3b4a51"/><path d="m473 421c-4 5-3 13 2 16 6 4 13 3 17-2l18-25c4-5 2-12-3-16s-13-3-17 2z" fill="#3b4a51"/><path d="m5 107c-5 4-7 12-3 17 4 6 12 7 17 3l24-18c6-4 7-11 3-17-4-5-11-6-17-2z" fill="#3b4a51"/><path d="m54 127c5 4 13 3 17-3 3-5 2-13-3-17l-25-17c-5-4-12-3-16 2-4 6-3 13 2 17z" fill="#3b4a51"/><path d="m36 164c-6 0-12 6-12 12 0 7 6 12 12 12h41c6 0 12-5 12-12 0-6-6-12-12-12z" fill="#596c76"/><path d="m36 240c-6 0-12 6-12 12 0 7 6 12 12 12h41c6 0 12-5 12-12 0-6-6-12-12-12z" fill="#596c76"/><path d="m36 316c-6 0-12 5-12 12s6 12 12 12h41c6 0 12-5 12-12s-6-12-12-12z" fill="#596c76"/><path d="m29 394c-5 4-6 11-2 17 4 5 12 6 17 2l404-315c5-4 6-12 2-17s-12-6-17-2z" fill="#f1cb86"/><path d="m500 415c7 0 12-5 12-12 0-6-5-12-12-12h-452v-292c0-6-5-12-12-12-6 0-12 6-12 12v304c0 7 6 12 12 12z" fill="#3b4a51"/></g><circle cx="323" cy="105" fill="#dd636e" r="26"/><circle cx="392" cy="210" fill="#8993da" r="26"/><circle cx="290" cy="307" fill="#e28086" r="26"/><circle cx="211" cy="172" fill="#f4d8a5" r="26"/><circle cx="143" cy="266" fill="#707dd3" r="26"/></g></svg>
