<svg xmlns="http://www.w3.org/2000/svg" xmlns:xlink="http://www.w3.org/1999/xlink" viewBox="0 0 260.87 253.34"><defs><pattern id="a" width="9.5" height="9.5" patternTransform="matrix(0.6, 0, 0, -0.6, -12812.07, -19440.98)" patternUnits="userSpaceOnUse" viewBox="0 0 9.5 9.5"><rect width="9.5" height="9.5" fill="none"/><rect width="9.5" height="9.5" fill="none"/><rect width="9.5" height="9.5" fill="none"/><rect width="9.5" height="9.5" fill="none"/><circle cx="4.75" cy="4.75" r="1.19" fill="#2470b7"/></pattern><linearGradient id="b" x1="-51.71" y1="116.33" x2="-53.46" y2="148.99" gradientTransform="matrix(0.95, -0.33, -0.33, -0.95, 143.15, 204.66)" gradientUnits="userSpaceOnUse"><stop offset="0" stop-color="#fbba18"/><stop offset="1" stop-color="#faec5c"/></linearGradient><linearGradient id="c" x1="-81.33" y1="18.53" x2="-42.97" y2="121.78" xlink:href="#b"/><linearGradient id="d" x1="-48.52" y1="103.88" x2="-7.31" y2="96.65" xlink:href="#b"/><linearGradient id="e" x1="419.11" y1="-3.93" x2="369.29" y2="65.02" gradientTransform="translate(195.56 557.63) rotate(-111.7)" xlink:href="#b"/><linearGradient id="f" x1="-68.81" y1="150.97" x2="-76.21" y2="254.5" xlink:href="#b"/><linearGradient id="g" x1="-49.86" y1="95.61" x2="-52.84" y2="137.38" xlink:href="#b"/><linearGradient id="h" x1="169.82" y1="56.63" x2="167.25" y2="92.63" gradientTransform="matrix(1, 0, 0, -1, 0, 253.91)" gradientUnits="userSpaceOnUse"><stop offset="0" stop-color="#eb5b28"/><stop offset="0.99" stop-color="#fab515"/></linearGradient><linearGradient id="i" x1="97.47" y1="91.25" x2="178" y2="91.25" gradientTransform="matrix(1, -0.09, -0.09, -1, 42.82, 317.42)" xlink:href="#b"/><linearGradient id="j" x1="123.01" y1="61.94" x2="141.93" y2="61.94" gradientTransform="matrix(1, -0.05, -0.05, -1, 22.32, 283.9)" xlink:href="#b"/><linearGradient id="k" x1="152.42" y1="64.74" x2="172.61" y2="64.74" gradientTransform="matrix(1, -0.05, -0.05, -1, 22.32, 283.9)" xlink:href="#b"/><linearGradient id="l" x1="297.67" y1="210.12" x2="302.01" y2="210.12" gradientTransform="matrix(0.92, 0.38, 0.38, -0.92, -177.56, 215.86)" gradientUnits="userSpaceOnUse"><stop offset="0" stop-color="#9cb4d6"/><stop offset="0.01" stop-color="#9db5d6"/><stop offset="0.46" stop-color="#cbd6e5"/><stop offset="0.8" stop-color="#e7eaef"/><stop offset="1" stop-color="#f2f2f2"/></linearGradient><linearGradient id="m" x1="291.99" y1="251.71" x2="320.74" y2="251.71" gradientTransform="matrix(0.92, 0.38, 0.38, -0.92, -177.56, 215.86)" gradientUnits="userSpaceOnUse"><stop offset="0" stop-color="#9cb4d6"/><stop offset="0.14" stop-color="#b1c3dd"/><stop offset="0.35" stop-color="#cdd8e6"/><stop offset="0.57" stop-color="#e2e6ed"/><stop offset="0.79" stop-color="#eeeff1"/><stop offset="1" stop-color="#f2f2f2"/></linearGradient><linearGradient id="n" x1="243.2" y1="236.11" x2="259.44" y2="236.11" gradientTransform="matrix(0.25, 0.97, 0.97, -0.25, -146.36, -91.47)" xlink:href="#b"/><linearGradient id="o" x1="243.19" y1="212.59" x2="248.31" y2="212.59" xlink:href="#l"/><linearGradient id="p" x1="254.85" y1="262.21" x2="261" y2="262.21" gradientTransform="matrix(0.92, 0.38, 0.38, -0.92, -177.55, 215.85)" gradientUnits="userSpaceOnUse"><stop offset="0" stop-color="#e62d25"/><stop offset="1" stop-color="#ed6b7c"/></linearGradient><linearGradient id="q" x1="292" y1="306.83" x2="302.5" y2="306.83" gradientTransform="matrix(0.92, 0.38, 0.38, -0.92, -177.56, 215.86)" gradientUnits="userSpaceOnUse"><stop offset="0" stop-color="#316db5"/><stop offset="0.99" stop-color="#88d0ee"/></linearGradient><linearGradient id="r" x1="244.39" y1="259.8" x2="302.55" y2="259.8" xlink:href="#q"/><linearGradient id="s" x1="288.99" y1="289.51" x2="296.34" y2="289.51" xlink:href="#l"/><linearGradient id="t" x1="257.14" y1="235.61" x2="263.77" y2="235.61" xlink:href="#l"/></defs><path d="M243.09,191.49l.74-1.07c12.47-18.28,19.73-40,16.12-55.2-4.55-19.13-24.21-24.06-33.25-39.48C221,86,219.75,72.37,219.14,58.81s-.75-27.57-4.59-39S202.55-.36,190,0C168.6.67,147.39,24.5,127.16,40.94c-23.58,19.12-48,35.65-72.47,51-11,6.9-22.55,14-31.82,24.72C13.74,127.19,8,140.08,4.32,152.21c-4,13.21-5.83,26.48-2.82,36.51,4.21,14,17.24,19.92,31.15,22.2s29.27,1.68,42.16,5.86c26.25,8.53,40.83,36.48,71.26,36.56,15.61,0,33.83-7.57,51.12-18.65C214,223.9,230.69,209.29,243.09,191.49Z" fill="url(#a)"/><polygon points="53.7 75.15 53.7 75.15 53.84 74.15 53.84 74.15 53.84 74.15 53.7 75.15" fill="#ed6b7c"/><polygon points="53.7 75.15 53.84 74.15 53.84 74.15 50.14 71.26 50 72.26 50 72.26 50 72.26 53.7 75.15" fill="#ed6b7c"/><polygon points="52.42 75.45 52.42 75.45 52.42 75.45 49.83 73.43 49.83 73.43 52.42 75.45" fill="#ed6b7c"/><polygon points="52.09 77.76 51.95 78.75 51.95 78.75 52.09 77.76 52.09 77.76 52.09 77.76" fill="#ed6b7c"/><polygon points="52.28 76.44 52.42 75.45 52.42 75.45 49.83 73.43 49.83 73.43 49.69 74.42 49.69 74.42 52.28 76.44" fill="#ed6b7c"/><polygon points="52.09 77.76 52.09 77.76 49.5 75.74 52.09 77.76" fill="#ed6b7c"/><polygon points="51.76 80.07 51.62 81.06 51.62 81.06 51.76 80.07 51.76 80.07 51.76 80.07" fill="#ed6b7c"/><polygon points="51.95 78.75 52.09 77.76 52.09 77.76 49.5 75.74 49.36 76.73 49.36 76.73 51.95 78.75" fill="#ed6b7c"/><rect x="50.46" y="77.42" height="3.28" fill="#ed6b7c"/><polygon points="51.28 83.38 51.43 82.38 51.43 82.38 51.43 82.38 51.28 83.38" fill="#ed6b7c"/><polygon points="51.62 81.06 51.76 80.07 51.76 80.07 49.17 78.05 49.17 78.05 49.03 79.04 49.03 79.04 49.03 79.04 51.62 81.06" fill="#ed6b7c"/><polygon points="46.22 80.08 49.06 79.11 49.06 79.11 46.22 80.08" fill="#ed6b7c"/><polygon points="52.05 86.68 52.2 85.68 52.2 85.68 52.2 85.68 52.05 86.68" fill="#ed6b7c"/><polygon points="51.28 83.38 51.43 82.38 51.43 82.38 48.84 80.36 48.7 81.36 51.28 83.38" fill="#ed6b7c"/><polygon points="48.49 82.8 52.2 85.68 52.2 85.68 48.49 82.8 45.71 83.9 45.71 83.9 48.49 82.8" fill="#ed6b7c"/><polygon points="50.58 88.32 50.72 87.33 50.58 88.32 50.58 88.32" fill="#ed6b7c"/><polygon points="52.05 86.68 52.2 85.68 52.2 85.68 48.49 82.8 48.35 83.79 48.35 83.79 48.35 83.79 52.05 86.68" fill="#ed6b7c"/><polygon points="50.72 87.33 48.13 85.31 48.13 85.31 50.72 87.33" fill="#ed6b7c"/><polygon points="50.39 89.64 50.25 90.64 50.25 90.64 50.39 89.64 50.39 89.64 50.39 89.64" fill="#ed6b7c"/><polygon points="50.58 88.32 50.72 87.33 48.13 85.31 48.13 85.31 47.99 86.3 47.99 86.3 50.58 88.32" fill="#ed6b7c"/><polygon points="69.73 150.21 72.51 149.1 55.35 102.87 54.55 109.33 69.73 150.21" fill="url(#b)"/><rect x="49.1" y="86.99" height="3.28" fill="#ed6b7c"/><polygon points="49.92 92.94 49.92 92.94 50.06 91.95 50.06 91.95 50.06 91.95 49.92 92.94" fill="#ed6b7c"/><polygon points="50.25 90.64 50.39 89.64 50.39 89.64 47.8 87.62 47.8 87.62 47.66 88.62 47.66 88.62 50.25 90.64" fill="#ed6b7c"/><polygon points="49.59 95.26 49.59 95.26 49.73 94.26 49.73 94.26 49.73 94.26 49.59 95.26" fill="#ed6b7c"/><polygon points="49.92 92.94 50.06 91.95 50.06 91.95 47.47 89.93 47.33 90.93 47.33 90.93 47.33 90.93 49.92 92.94" fill="#ed6b7c"/><polygon points="49.95 98.23 50.91 97.9 50.91 97.9 49.95 98.23" fill="#ed6b7c"/><polygon points="49.59 95.26 49.73 94.26 49.73 94.26 47.14 92.25 47 93.24 47 93.24 47 93.24 49.59 95.26" fill="#ed6b7c"/><polygon points="50.5 97.57 50.5 97.57 50.5 97.57 46.79 94.68 46.79 94.68 50.5 97.57" fill="#ed6b7c"/><polygon points="48.88 100.2 49.02 99.21 48.88 100.2 48.88 100.2" fill="#ed6b7c"/><polygon points="50.35 98.57 50.5 97.57 50.5 97.57 46.79 94.68 46.79 94.68 46.65 95.68 46.65 95.68 50.35 98.57" fill="#ed6b7c"/><polygon points="49.02 99.21 46.44 97.19 46.43 97.19 46.44 97.19 49.02 99.21" fill="#ed6b7c"/><polygon points="48.69 101.52 48.55 102.52 48.55 102.52 48.69 101.52 48.69 101.52 48.69 101.52" fill="#ed6b7c"/><polygon points="48.88 100.2 49.02 99.21 46.44 97.19 46.29 98.18 46.29 98.18 46.29 98.18 48.88 100.2" fill="#ed6b7c"/><polygon points="48.69 101.52 48.69 101.52 46.1 99.51 46.1 99.51 46.1 99.51 48.69 101.52" fill="#ed6b7c"/><polygon points="48.22 104.83 48.36 103.83 48.36 103.83 48.36 103.83 48.22 104.83" fill="#ed6b7c"/><polygon points="48.55 102.52 48.69 101.52 48.69 101.52 46.1 99.51 45.96 100.5 47.47 101.67 48.55 102.52" fill="#ed6b7c"/><polygon points="47.89 107.14 47.89 107.14 48.03 106.15 48.03 106.15 48.03 106.15 47.89 107.14" fill="#ed6b7c"/><polygon points="48.22 104.83 48.36 103.83 48.36 103.83 45.78 101.81 45.63 102.81 45.63 102.81 48.22 104.83" fill="#ed6b7c"/><polygon points="47.89 107.14 48.03 106.15 48.03 106.15 45.45 104.13 45.3 105.12 45.3 105.12 47.89 107.14" fill="#ed6b7c"/><polygon points="48.8 109.45 48.8 109.45 48.8 109.45 45.1 106.56 45.1 106.56 48.8 109.45" fill="#ed6b7c"/><polygon points="47.18 112.09 47.18 112.09 47.32 111.09 47.32 111.09 47.32 111.09 47.18 112.09" fill="#ed6b7c"/><polygon points="48.66 110.45 48.8 109.45 48.8 109.45 45.1 106.56 45.1 106.56 44.96 107.56 44.96 107.56 48.66 110.45" fill="#ed6b7c"/><polygon points="46.85 114.4 46.85 114.4 47 113.4 46.99 113.4 46.99 113.4 46.85 114.4" fill="#ed6b7c"/><polygon points="47.18 112.09 47.32 111.09 47.32 111.09 44.74 109.07 44.6 110.07 44.6 110.07 44.6 110.07 47.18 112.09" fill="#ed6b7c"/><polygon points="46.52 116.71 46.67 115.71 46.52 116.71 46.52 116.71" fill="#ed6b7c"/><polygon points="46.85 114.4 46.99 113.4 46.99 113.4 44.41 111.38 44.27 112.38 44.27 112.38 46.85 114.4" fill="#ed6b7c"/><polygon points="46.19 119.02 46.33 118.03 46.19 119.02 46.19 119.02" fill="#ed6b7c"/><polygon points="46.52 116.71 46.67 115.71 44.08 113.7 44.08 113.7 44.08 113.7 43.94 114.69 43.94 114.69 46.52 116.71" fill="#ed6b7c"/><polygon points="47.1 121.33 46.96 122.32 46.96 122.32 47.1 121.33 47.1 121.33 47.1 121.33" fill="#ed6b7c"/><polygon points="46.33 118.03 43.75 116.01 43.74 116.01 43.75 116.01 46.33 118.03" fill="#ed6b7c"/><polygon points="46.19 119.02 46.33 118.03 43.75 116.01 43.6 117 43.6 117 46.19 119.02" fill="#ed6b7c"/><polygon points="45.49 123.97 45.63 122.97 45.63 122.97 45.63 122.97 45.49 123.97" fill="#ed6b7c"/><polygon points="46.96 122.32 47.1 121.33 47.1 121.33 43.4 118.44 43.4 118.44 43.26 119.44 43.26 119.44 46.96 122.32" fill="#ed6b7c"/><polygon points="45.56 126.26 46.52 125.92 46.52 125.92 45.56 126.26" fill="#ed6b7c"/><polygon points="45.49 123.97 45.63 122.97 45.63 122.97 43.04 120.95 42.9 121.95 42.9 121.95 45.49 123.97" fill="#ed6b7c"/><polygon points="45.3 125.28 45.3 125.28 45.3 125.28 42.71 123.26 42.71 123.26 45.3 125.28" fill="#ed6b7c"/><polygon points="44.97 127.6 44.82 128.59 44.82 128.59 44.97 127.6 44.97 127.6 44.97 127.6" fill="#ed6b7c"/><polygon points="45.16 126.28 45.3 125.28 45.3 125.28 42.71 123.26 42.71 123.26 42.57 124.26 42.57 124.26 42.57 124.26 45.16 126.28" fill="#ed6b7c"/><rect x="43.67" y="124.94" height="3.28" fill="#ed6b7c"/><polygon points="44.64 129.91 44.49 130.9 44.49 130.9 44.64 129.91 44.64 129.91 44.64 129.91" fill="#ed6b7c"/><polygon points="44.82 128.59 44.97 127.6 44.97 127.6 42.38 125.58 42.38 125.58 42.24 126.57 42.24 126.57 44.82 128.59" fill="#ed6b7c"/><polygon points="45.26 134.21 45.26 134.21 45.4 133.21 45.4 133.21 45.4 133.21 45.26 134.21" fill="#ed6b7c"/><polygon points="44.64 129.91 44.64 129.91 42.05 127.89 44.64 129.91" fill="#ed6b7c"/><polygon points="44.49 130.9 44.64 129.91 44.64 129.91 42.05 127.89 41.91 128.89 41.91 128.89 44.49 130.9" fill="#ed6b7c"/><polygon points="43.63 135.79 44.07 134.89 44.07 134.89 43.63 135.79" fill="#ed6b7c"/><polygon points="45.26 134.21 45.4 133.21 45.4 133.21 41.7 130.32 41.56 131.32 41.56 131.32 45.26 134.21" fill="#ed6b7c"/><polygon points="43.93 134.86 43.93 134.86 43.93 134.86 42.85 134.01 43.93 134.86" fill="#ed6b7c"/><polygon points="43.46 138.16 43.6 137.17 43.46 138.16 43.46 138.16" fill="#ed6b7c"/><polygon points="43.79 135.85 43.93 134.86 43.93 134.86 42.85 134.01 41.34 132.84 41.34 132.84 41.34 132.84 41.2 133.83 41.2 133.83 43.79 135.85" fill="#ed6b7c"/><polygon points="43.6 137.17 41.01 135.15 41 135.15 41.01 135.15 43.6 137.17" fill="#ed6b7c"/><polygon points="43.27 139.48 43.27 139.48 43.13 140.47 43.27 139.48 43.27 139.48" fill="#ed6b7c"/><polygon points="43.46 138.16 43.6 137.17 41.01 135.15 40.87 136.14 40.87 136.14 43.46 138.16" fill="#ed6b7c"/><rect x="41.99" y="136.83" height="3.28" fill="#ed6b7c"/><polygon points="42.8 142.79 42.8 142.79 42.8 142.79 42.94 141.79 42.94 141.79 42.94 141.79 42.8 142.79" fill="#ed6b7c"/><polygon points="43.27 139.48 40.68 137.46 40.68 137.46 40.54 138.45 43.13 140.47 43.27 139.48 43.27 139.48" fill="#ed6b7c"/><polygon points="43.56 146.09 43.56 146.09 43.71 145.1 43.71 145.1 43.71 145.1 43.56 146.09" fill="#ed6b7c"/><polygon points="41.29 141.61 42.8 142.79 42.94 141.79 42.94 141.79 40.35 139.77 40.21 140.77 40.21 140.77 40.21 140.77 41.29 141.61" fill="#ed6b7c"/><polygon points="41.29 141.61 42.8 142.79 42.8 142.79 41.29 141.61" fill="#ed6b7c"/><polygon points="42.23 146.74 42.09 147.73 42.09 147.73 42.23 146.74 42.23 146.74 42.23 146.74" fill="#ed6b7c"/><polygon points="43.56 146.09 43.71 145.1 43.71 145.1 40 142.21 39.86 143.2 39.86 143.2 39.86 143.2 43.56 146.09" fill="#ed6b7c"/><polygon points="42.23 146.74 42.23 146.74 39.64 144.72 39.64 144.72 39.64 144.72 42.23 146.74" fill="#ed6b7c"/><polygon points="41.76 150.05 41.76 150.05 41.9 149.05 41.9 149.05 41.9 149.05 41.76 150.05" fill="#ed6b7c"/><polygon points="42.09 147.73 42.23 146.74 42.23 146.74 39.64 144.72 39.5 145.71 39.5 145.71 42.09 147.73" fill="#ed6b7c"/><polygon points="41.43 152.35 41.57 151.36 41.43 152.35 41.43 152.35" fill="#ed6b7c"/><polygon points="41.76 150.05 41.9 149.05 41.9 149.05 39.31 147.03 39.17 148.03 39.17 148.03 41.76 150.05" fill="#ed6b7c"/><polygon points="41.1 154.67 41.1 154.67 41.24 153.67 41.24 153.67 41.24 153.67 41.1 154.67" fill="#ed6b7c"/><polygon points="41.43 152.35 41.57 151.36 38.99 149.34 38.84 150.34 38.84 150.34 38.84 150.34 41.43 152.35" fill="#ed6b7c"/><polygon points="36.06 151.44 38.84 150.34 38.84 150.34 36.06 151.44" fill="#ed6b7c"/><polygon points="41.47 157.63 42.42 157.31 42.42 157.31 41.47 157.63" fill="#ed6b7c"/><polygon points="41.1 154.67 41.24 153.67 41.24 153.67 38.66 151.65 38.51 152.65 41.1 154.67" fill="#ed6b7c"/><polygon points="39.86 155.3 38.31 154.09 38.31 154.09 39.86 155.3" fill="#ed6b7c"/><polygon points="40.39 159.61 40.39 159.61 40.53 158.62 40.53 158.62 40.53 158.62 40.39 159.61" fill="#ed6b7c"/><polygon points="41.87 157.97 42.01 156.98 42.01 156.98 39.86 155.3 38.31 154.09 38.31 154.09 38.17 155.08 38.17 155.08 41.87 157.97" fill="#ed6b7c"/><polygon points="40.21 160.93 40.21 160.93 40.21 160.93 40.06 161.93 40.06 161.93 40.06 161.93 40.21 160.93" fill="#ed6b7c"/><polygon points="40.39 159.61 40.53 158.62 40.53 158.62 37.95 156.6 37.81 157.6 37.81 157.6 40.39 159.61" fill="#ed6b7c"/><polygon points="39.73 164.24 39.73 164.24 39.87 163.24 39.87 163.24 39.87 163.24 39.73 164.24" fill="#ed6b7c"/><polygon points="40.21 160.93 37.62 158.91 37.48 159.91 40.06 161.93 40.21 160.93 40.21 160.93" fill="#ed6b7c"/><polygon points="37.48 159.91 40.06 161.93 40.06 161.93 37.48 159.91 34.69 161.02 34.69 161.02 34.69 161.02 37.48 159.91" fill="#ed6b7c"/><polygon points="39.54 165.55 39.4 166.55 39.4 166.55 39.54 165.55 39.54 165.55 39.54 165.55" fill="#ed6b7c"/><polygon points="39.73 164.24 39.87 163.24 39.87 163.24 37.29 161.22 37.14 162.22 37.14 162.22 39.73 164.24" fill="#ed6b7c"/><polygon points="40.31 168.86 40.17 169.85 40.17 169.85 40.31 168.86 40.31 168.86 40.31 168.86" fill="#ed6b7c"/><rect x="39.23" y="163.41" height="3.3" fill="#ed6b7c"/><polygon points="39.4 166.55 39.54 165.55 39.54 165.55 36.96 163.53 36.96 163.53 36.81 164.53 36.81 164.53 39.4 166.55" fill="#ed6b7c"/><polygon points="40.31 168.86 40.31 168.86 36.61 165.97 36.6 165.97 36.61 165.97 40.31 168.86" fill="#ed6b7c"/><polygon points="38.7 171.5 38.7 171.5 38.84 170.5 38.84 170.5 38.84 170.5 38.7 171.5" fill="#ed6b7c"/><polygon points="40.17 169.85 40.31 168.86 40.31 168.86 36.61 165.97 36.47 166.96 36.47 166.96 40.17 169.85" fill="#ed6b7c"/><polygon points="38.36 173.8 38.36 173.8 38.51 172.81 38.51 172.81 38.51 172.81 38.36 173.8" fill="#ed6b7c"/><polygon points="38.7 171.5 38.84 170.5 38.84 170.5 36.25 168.48 36.11 169.48 36.11 169.48 36.11 169.48 38.7 171.5" fill="#ed6b7c"/><rect x="38.11" y="175.12" height="1" fill="#ed6b7c"/><polygon points="38.36 173.8 38.51 172.81 38.51 172.81 35.92 170.79 35.78 171.79 35.78 171.79 38.36 173.8" fill="#ed6b7c"/><polygon points="37.85 177.43 37.7 178.43 37.7 178.43 37.85 177.43 37.85 177.43 37.85 177.43" fill="#ed6b7c"/><polygon points="38.03 176.12 38.18 175.13 38.18 175.13 35.59 173.11 35.59 173.11 35.59 173.11 35.45 174.1 35.45 174.1 38.03 176.12" fill="#ed6b7c"/><polygon points="38.47 181.73 38.47 181.73 38.61 180.74 38.61 180.74 38.61 180.74 38.47 181.73" fill="#ed6b7c"/><polygon points="37.85 177.43 37.85 177.43 35.26 175.42 35.25 175.42 35.26 175.42 37.85 177.43" fill="#ed6b7c"/><polygon points="37.7 178.43 37.85 177.43 37.85 177.43 35.26 175.42 35.12 176.41 35.12 176.41 37.7 178.43" fill="#ed6b7c"/><polygon points="38.47 181.73 38.61 180.74 38.61 180.74 34.91 177.85 34.77 178.85 34.77 178.85 38.47 181.73" fill="#ed6b7c"/><path d="M88,158.35l-11.47-31.6-9.08-25L57.78,75.06,51.91,58.88,50.14,71.26l3.7,2.89-.14,1L50,72.26l-.17,1.17,2.59,2-.14,1-2.59-2-.19,1.32,2.58,2-.13,1-2.59-2L49.17,78l2.59,2-.15,1L49,79l-.19,1.31,2.59,2-.14,1-2.59-2-.2,1.44,3.69,2.88-.14,1-3.7-2.9-.21,1.52,2.58,2-.14,1-2.59-2-.19,1.32,2.59,2-.14,1-2.59-2-.19,1.31,2.59,2-.14,1-2.59-2-.19,1.33,2.59,2-.14,1-2.59-2-.21,1.44,3.71,2.89-.14,1-3.71-2.89-.22,1.51,2.59,2-.14,1-2.59-2-.16,1.34,2.58,2-.14,1-1.08-.84L46,100.5l-.19,1.31,2.59,2-.14,1-2.59-2-.19,1.32,2.59,2-.14,1-2.58-2-.21,1.44,3.7,2.89-.14,1L45,107.58l-.21,1.51,2.58,2-.14,1-2.58-2-.19,1.31,2.59,2-.15,1-2.58-2-.19,1.31,2.58,2-.14,1-2.58-2-.24,1.3,2.58,2-.14,1-2.59-2-.2,1.44,3.7,2.89-.14,1-3.7-2.88L43,121l2.59,2-.15,1-2.58-2-.19,1.32,2.59,2-.14,1-2.59-2-.19,1.32,2.59,2-.14,1-2.59-2-.2,1.24,2.59,2-.15,1-2.58-2-.21,1.45,3.7,2.88-.14,1-3.7-2.89-.22,1.52L42.85,134l1.08.85-.14,1-2.59-2L41,135.14l2.59,2-.14,1-2.59-2-.19,1.31,2.59,2-.14,1-2.59-2-.19,1.31,2.59,2-.14,1-1.5-1.18-1.09-.84-.2,1.47,3.69,2.89-.13,1-3.71-2.89-.22,1.52,2.59,2-.14,1-2.58-2-.2,1.28,2.59,2-.14,1-2.58-2L39,149.34l2.58,2-.14,1-2.59-2-.19,1.32,2.59,2-.14,1-2.59-2-.21,1.44,1.56,1.21L42,157l-.14,1-3.71-2.89L38,156.64l2.58,2-.14,1-2.59-2L37.62,159l2.58,2-.14,1-2.59-2-.18,1.31,2.58,2-.14,1-2.58-2L37,163.53l2.58,2-.14,1-2.59-2L36.61,166l3.7,2.89-.14,1L36.47,167l-.22,1.53,2.59,2-.14,1-2.59-2-.19,1.31,2.59,2-.14,1h0l-2.58-2-.19,1.33,2.59,2-.14,1-2.59-2-.19,1.32,2.59,2-.15,1-2.59-2-.2,1.44,3.7,2.89-.14,1L34.78,179,33,191.52l7.35-3.9,19.78-10.48,9.39-5,18.09-9.59,1.63-.87ZM62.5,152.6l-14.8,7.11v-.25l7.07-49.52.89-6.23,9.15,24.74L72.06,148Z" fill="url(#c)"/><path d="M51.91,58.88C51.32,63,33.61,187,33,191.52l-2.79,1.11Q39.7,126.31,49.22,60Z" fill="url(#d)"/><polygon points="38.84 170.5 36.25 168.48 38.84 170.5 38.84 170.5" fill="url(#e)"/><polygon points="67.45 101.71 64.83 128.45 55.68 103.71 54.79 109.94 47.72 159.46 47.68 159.71 62.48 152.6 60.09 177.14 40.31 187.63 57.78 75.06 67.45 101.71" fill="url(#f)"/><polygon points="87.99 158.35 87.57 162.57 69.48 172.16 76.52 126.74 87.99 158.35" fill="url(#g)"/><path d="M203.77,208.45a5.38,5.38,0,0,0-1.44-.14,3.93,3.93,0,0,0-.91.14l-3,.87-.81-.6c-.24-.18-.49-.37-.75-.55l-.71-.47c-.4-.27-.81-.52-1.22-.77l-.86-.5c-.71-.4-1.45-.79-2.21-1.16l-1-.46-.65-.29c-.57-.27-1.19-.52-1.8-.77l-1-.4c-.87-.33-1.76-.65-2.67-.94l-1.06-.34c-.93-.29-1.87-.56-2.83-.8l-1.1-.28q-1.47-.36-3-.66l-1.11-.2c-1-.19-2-.35-3-.49l-1.13-.15-.87-.09c-.74-.09-1.48-.16-2.22-.22l-1.11-.08c-1-.06-2.06-.11-3.08-.13h-1.1c-1,0-2,0-3,.05H159a55.06,55.06,0,0,0-13.37,2.28l-.4.13-.84.28c-.78.26-1.52.55-2.24.85-.27.1-.51.22-.76.33l-.89.41c-.38.19-.75.37-1.11.57l-.68.38c-.61.35-1.18.72-1.73,1.1l-.59.42q-.75.57-1.44,1.2c-.18.15-.33.3-.49.46-.41.41-.8.84-1.16,1.28l-.38.49c-.31.44-.6.89-.86,1.35-.09.17-.19.35-.27.52a12,12,0,0,0-.56,1.4c-.06.19-.11.37-.16.55a7.79,7.79,0,0,0-.25,1.43,2.16,2.16,0,0,1-.05.56,11.53,11.53,0,0,0,0,1.44,3.72,3.72,0,0,0,.08.57,10.13,10.13,0,0,0,.31,1.43c.06.2.12.39.19.58a12.43,12.43,0,0,0,.6,1.41c.09.19.19.38.29.57.25.45.53.9.84,1.36l.43.57c.32.44.67.87,1,1.3.17.18.34.37.52.55l.36.37c.29.29.59.57.91.85l.63.54.26.23-2.68.76a1.32,1.32,0,0,0-.85.6.62.62,0,0,0,0,.59,1.33,1.33,0,0,0,.46.54l6.16,4.79,71.12-19.73-.16-.62-6.16-4.62A3.91,3.91,0,0,0,203.77,208.45Zm-54.32,14.83a1.42,1.42,0,0,1-.28-.2c-6.41-5.06-4-11.49,5.66-14.38a30.92,30.92,0,0,1,4.68-1,41.33,41.33,0,0,1,11.22,0c5.5.75,10.58,2.56,13.86,5.23a2.73,2.73,0,0,1,.25.23Z" fill="url(#h)"/><path d="M204,207.52a5.38,5.38,0,0,0-1.44-.14,3.93,3.93,0,0,0-.91.14l-3,.87-.81-.6c-.24-.18-.49-.37-.75-.54s-.47-.33-.71-.48c-.4-.26-.8-.52-1.22-.77l-.86-.5c-.71-.4-1.45-.79-2.21-1.16l-1-.46-.65-.29c-.57-.26-1.19-.52-1.8-.77l-1-.4c-.87-.33-1.76-.65-2.67-.94l-1.06-.34c-.93-.29-1.87-.55-2.83-.8l-1.1-.28q-1.47-.36-3-.66l-1.11-.2c-1-.19-2-.35-3-.49l-1.13-.15c-.29,0-.58-.07-.87-.09-.73-.09-1.48-.16-2.21-.22l-1.12-.08c-1-.06-2.06-.11-3.08-.13h-1.1c-1,0-2,0-3,.05h-1.08a55.06,55.06,0,0,0-13.37,2.28l-.39.13-.85.28c-.78.27-1.52.55-2.24.85l-.76.33-.89.41c-.38.19-.75.37-1.11.57l-.67.38c-.62.35-1.19.72-1.74,1.1l-.59.42c-.51.39-1,.79-1.44,1.2l-.49.46c-.41.41-.8.84-1.16,1.28l-.38.49a12.94,12.94,0,0,0-.86,1.36c-.09.17-.19.34-.27.51a12,12,0,0,0-.56,1.4c-.05.19-.11.37-.16.55a10,10,0,0,0-.25,1.43,2.16,2.16,0,0,1-.05.56,11.53,11.53,0,0,0,0,1.44,1.41,1.41,0,0,0,.08.57,10.13,10.13,0,0,0,.31,1.43c.06.2.12.39.19.58a12.43,12.43,0,0,0,.6,1.41c.09.19.19.38.29.57.25.45.53.9.84,1.36l.43.57c.32.44.67.87,1,1.3l.52.56.36.36c.29.29.59.57.91.86l.63.53.26.23-2.67.76a1.3,1.3,0,0,0-.86.6.62.62,0,0,0,0,.59,1.33,1.33,0,0,0,.46.54l6.16,4.79,71.12-19.73-6.32-5.24A3.69,3.69,0,0,0,204,207.52Zm-54.32,14.83a2.83,2.83,0,0,1-.28-.2c-6.4-5.06-4-11.49,5.66-14.38a32.19,32.19,0,0,1,4.68-1,41.33,41.33,0,0,1,11.22,0c5.5.75,10.58,2.56,13.86,5.23l.25.23Z" fill="url(#i)"/><path d="M159.47,198.1l.26,8.66a32.19,32.19,0,0,0-4.68,1c-9.63,2.89-12.06,9.32-5.66,14.38a2.83,2.83,0,0,0,.28.2l10.46-3,.25,8.3-17.85,5-1.81-30.23.89-.41.76-.33c.72-.3,1.46-.58,2.24-.85l.85-.28.39-.13a55.06,55.06,0,0,1,13.37-2.28Z" fill="url(#j)"/><path d="M190.43,203.59l-.25,15.81-19,5.27-.12-8.44,14-4-.25-.23c-3.28-2.67-8.36-4.48-13.86-5.23l-.11-8.3a8.55,8.55,0,0,1,.87.09l1.13.15c1,.14,2,.3,3,.49l1.11.2q1.5.3,3,.66l1.1.28c1,.25,1.9.51,2.83.8l1.06.34c.91.29,1.8.61,2.67.94l1,.4C189.24,203.07,189.86,203.33,190.43,203.59Z" fill="url(#k)"/><polygon points="180.9 127.35 176.17 144.58 185.34 127.96 180.9 127.35" fill="url(#l)"/><path d="M202.32,66l-21.59,56.31a6.34,6.34,0,0,0,.17,5h0l3.85,1.39,3.27-4.28a34.89,34.89,0,0,0,5.84-11.65L207.17,66.2Z" fill="url(#m)"/><rect x="122.37" y="90.7" width="44.8" height="5.28" transform="translate(-16.67 153.4) rotate(-53.22)" fill="url(#n)"/><polygon points="129.54 115.15 128.06 114.05 129.24 109.71 133.47 112.87 129.54 115.15" fill="url(#o)"/><polygon points="127.43 116.38 128.06 114.05 129.54 115.15 127.43 116.38" fill="#383f42"/><rect x="157.76" y="71.91" width="2.14" height="5.27" transform="translate(4.02 157.13) rotate(-53.22)" fill="#383f42"/><path d="M164,72l-2.43,3.26h0l-4.22-3.16h0l2.43-3.25a1,1,0,0,1,1.4-.2l2.62,2A1,1,0,0,1,164,72Z" fill="url(#p)"/><path d="M210,55.48l10.22-13.73a4.1,4.1,0,0,0-.79-5.74l-.28-.2h0a4.1,4.1,0,0,0-5.65,1.26.41.41,0,0,0,0,.09l-8.77,15.07Z" fill="url(#q)"/><path d="M142.19,107.88h0a2.88,2.88,0,0,0,3.91-.5C161.73,88.57,178.21,68,187.19,63.71a6.11,6.11,0,0,1,5.64.22l9.59,5.42c5.56,3.41,14.08-7.82,9.44-12.58,0,0-8.08-14.93-28.77,1.21-9.62,6.65-18.38,16.25-26.4,26.84a1.45,1.45,0,0,1-1.92.37l-5.13-3.12a1.47,1.47,0,0,0-1.88.31l-11.64,14a1.46,1.46,0,0,0,.19,2.06l.19.13,6.44,3.62-1.28,1.55a2.89,2.89,0,0,0,.37,4.07Z" fill="url(#r)"/><path d="M206.82,61a3.68,3.68,0,1,1-2.16-4.73h0A3.69,3.69,0,0,1,206.82,61Z" fill="url(#s)"/><path d="M205,60.28A1.73,1.73,0,1,1,204,58a1.74,1.74,0,0,1,1,2.27Z" fill="#fff"/><path d="M156.14,98.44a3.31,3.31,0,1,1-1.94-4.26h0a3.29,3.29,0,0,1,1.94,4.24Z" fill="url(#t)"/><path d="M154.5,97.83a1.56,1.56,0,1,1-.92-2h0A1.58,1.58,0,0,1,154.5,97.83Z" fill="#fff"/></svg>