<svg xmlns="http://www.w3.org/2000/svg" xmlns:xlink="http://www.w3.org/1999/xlink" width="358.274pt" height="71.265pt" viewBox="0 0 358.274 71.265"><defs><path id="f" d="M-.125-7.57812c.59375.01562.73438.09375.89063.59375L3.09375 0H4.5625l1.375-4.04687c.4375-1.26563.84375-2.39063 1.01563-2.84375.23437-.5625.32812-.64063.98437-.6875v-.4375H5.25v.4375l.65625.0625c.23438.01562.26563.125.20313.375-.125.39062-.375 1.34375-.71875 2.42187-.23438.70313-.75 2.40625-.95313 3H4.375l-1.73437-5.375c-.07813-.25-.0625-.40625.20312-.42187l.5625-.0625v-.4375H-.125Zm0 0"/><path id="g" d="M.5625-1.54687c0 .85937.54688 1.6875 1.71875 1.6875.73438 0 1.25-.40625 1.65625-.67188.15625.35938.35938.67188.92188.67188.60937 0 1.3125-.20313 1.70312-.34375l-.01562-.39063c-.15625.01563-.40625 0-.57813-.0625-.15625-.04687-.375-.1875-.375-.85937V-4.1875c0-.73437-.09375-1.625-2.14062-1.625C1.75-5.8125.6875-5.14062.6875-4.39062c0 .5.75.73437 1.03125.73437.26563 0 .39063-.1875.5-.46875.32813-.98437.70313-1.15625 1.03125-1.15625.32813 0 .64063.1875.64063.85938v.60937C3.48438-3.53125 2.53125-3.25 1.78125-3 .85938-2.67187.5625-2.21875.5625-1.54687m1.75-.1875c0-.54688.20313-.8125.54688-1.01563.35937-.20312.75-.35937 1.03125-.48437v1.6875c-.01563.625-.375.78125-.70313.78125-.45312 0-.875-.35938-.875-.96875m0 0"/><path id="h" d="M.28125 0h3.25v-.4375c-.65625-.04687-.73437-.09375-.73437-.57812v-7.5l-.09375-.07813-2.32813.3125v.42188l.39063.0625c.1875.03125.26562.125.26562.59375v6.1875c0 .48437-.07812.53125-.75.57812Zm0 0"/><path id="i" d="M.45313-2.82812c0 1.57812.6875 2.96875 2.84375 2.96875 1.375 0 2.125-.67188 2.51562-1.6875l-.40625-.23438C5.04688-1.125 4.5625-.75 3.85938-.75c-1.15625 0-1.5625-.95312-1.5625-2.17187h3c.42187 0 .625-.10938.625-.48438 0-.95312-.375-2.40625-2.60938-2.40625-2.07812 0-2.85937 1.34375-2.85937 2.98438m1.84375-.64063c0-.84375.21875-1.8125.96875-1.8125.70312 0 .82812.875.82812 1.42188 0 .32812-.09375.39062-.35937.39062Zm0 0"/><path id="j" d="M.34375-5.0625.75-5c.1875.01563.26563.10938.26563.57813v2.8125c0 1.35937.82812 1.75 1.67187 1.75.98438 0 1.59375-.53125 2.0625-.79688L4.84375 0H7.25v-.4375c-.67187-.04687-.73437-.09375-.73437-.57812V-5.75l-.10938-.0625-2.34375.32813v.42187L4.46875-5c.1875.01563.28125.10938.28125.57813v2.45312c0 .1875-.01562.48438-.09375.65625-.10937.26563-.42187.53125-.92187.53125-.60938 0-.96875-.35937-.96875-1.25V-5.75l-.09375-.0625-2.32813.32813Zm0 0"/><path id="k" d="M.375 0h3.5v-.4375C2.98438-.5 2.85938-.53125 2.85938-1.01562v-2.57813c0-.59375.10937-.875.39062-.875.1875 0 .35938.09375.625.23438.14063.10937.29688.1875.53125.1875S4.875-4.17187 5-4.34375C5.10938-4.51562 5.17188-4.75 5.17188-5c0-.5-.3125-.8125-.79688-.8125-.48437 0-.84375.3125-1.53125 1.01563L2.6875-5.8125l-2.25.32813v.42187L.84375-5c.17188.01563.28125.10938.28125.57813v3.40625c0 .48437-.09375.53125-.75.57812Zm0 0"/><path id="l" d="M.45313-2.73437c0 1.6875.875 2.875 2.34375 2.875.4375 0 1.04687-.23438 1.67187-.71875V0h2.5v-.4375c-.67187-.04687-.75-.09375-.75-.57812v-7.5l-.07812-.07813-2.35938.3125v.42188l.40625.0625c.1875.03125.28125.125.28125.59375v1.53125c-.25-.10938-.57812-.14063-.98437-.14063-.85938 0-1.64063.25-2.17188.75S.45313-3.78125.45313-2.73437m1.84375-.23438c0-1.70312.64062-2.3125 1.29687-2.3125.4375 0 .67188.23438.78125.46875.10938.17188.09375.40625.09375.65625v2.39063c0 .46875-.17187 1.01562-.90625 1.01562-.75 0-1.26562-.73437-1.26562-2.21875m0 0"/><path id="n" d="M.875-7.32812c0 .54687.39063 1.01562 1.04688 1.01562.64062 0 1.09375-.46875 1.09375-1.01562 0-.54688-.42188-1.01563-1.09375-1.01563C1.26563-8.34375.875-7.875.875-7.32812M.375 0h3.26563v-.4375c-.67188-.04687-.78125-.09375-.78125-.57812V-5.75l-.0625-.0625-2.35938.32813v.42187L.84375-5c.17188.01563.28125.10938.28125.57813v3.40625c0 .48437-.09375.53125-.75.57812Zm0 0"/><path id="o" d="M.4375-5.10937h.67188v3.75c0 1.0625.78125 1.5 1.4375 1.5.46875 0 1.1875-.21875 1.84375-.625l-.125-.35938c-.15625.0625-.39063.10938-.65625.10938-.4375 0-.75-.32813-.75-1.0625v-3.3125H4.0625v-.57813H2.85938v-1.45312H2.1875L1.17188-5.6875H.4375Zm0 0"/><path id="p" d="M.45313-2.82812c0 1.84375.89062 2.96875 3 2.96875s3-1.125 3-2.96875c0-1.85938-.89063-2.98438-3-2.98438s-3 1.125-3 2.98438m1.84375 0c0-1.5625.32812-2.45313 1.15625-2.45313.82812 0 1.15625.89063 1.15625 2.45313 0 1.54687-.32813 2.4375-1.15625 2.4375-.82813 0-1.15625-.89063-1.15625-2.4375m0 0"/><path id="q" d="M.375 0h3.09375v-.4375L3.25-.46875c-.23437-.03125-.39062-.0625-.39062-.4375v-2.76562c0-.26563.04687-.51563.14062-.6875.14063-.28125.45313-.57813.9375-.57813.59375 0 .89063.375.92188 1.0625v2.96875c0 .375-.125.40625-.375.4375l-.25.03125V0h3.125v-.4375c-.67188-.04687-.76563-.09375-.76563-.57812v-3.01563C6.57813-5.10937 6.04688-5.8125 4.85938-5.8125c-.6875 0-1.23438.34375-2 .79688l-.14063-.79688-2.28125.32813v.42187L.84375-5c.17188.01563.28125.10938.28125.57813v3.40625c0 .48437-.09375.53125-.75.57812Zm0 0"/><path id="r" d="M.5-2.14062.64063-.42187c.4375.40625 1.3125.5625 1.96875.5625C4.03125.14063 5-.48437 5-1.73437c0-1-.64062-1.48438-1.70312-1.89063-.6875-.25-1.17188-.51562-1.17188-.98437 0-.35938.25-.67188.73438-.67188.59375 0 1.07812.53125 1.3125 1.40625h.42187v-1.53125c-.46875-.29687-1.125-.40625-1.73437-.40625-1.42188 0-2.29688.65625-2.29688 1.82813 0 .85937.6875 1.39062 1.70313 1.78125C2.85938-2 3.4375-1.65625 3.4375-1.09375c0 .4375-.29687.70313-.79687.70313-.76563 0-1.39063-.8125-1.6875-1.75Zm0 0"/><path id="m" d="M.375-.45312c0 .32812.26563.59375.73438.59375.79687 0 1.23437-.79688 1.71875-1.57813l.46875-.75h.01562l.21875.90625C3.75-.35937 3.95313.14063 4.54688.14063c.85937 0 1.29687-.875 1.64062-1.57813l-.29687-.17187c-.28125.53125-.60938 1.14062-.92188 1.14062-.21875 0-.3125-.26562-.5625-1.29687l-.375-1.51563C4.45313-4.01562 5.04688-4.9375 5.375-4.9375c.34375 0 .35938.17188.70313.17188.26562 0 .5-.23438.5-.54688 0-.35937-.28125-.5-.59375-.5-.625 0-1.14063.54688-1.54688 1.20313l-.5.78125h-.03125l-.46875-1.9375-.0625-.04688-1.90625.57813.01563.28125.92187-.0625c.1875 0 .26563.07812.375.57812l.40625 1.67188-.3125.5625C2.375-1.35937 1.95313-.75 1.67188-.75 1.32813-.75 1.25-1.03125.875-1.03125c-.29687 0-.5.29688-.5.57813m0 0"/><path id="s" d="M-.25 2.125c.01563.39063.51563.67188 1.0625.67188 1.15625 0 1.65625-.9375 2.14063-3.15625l1.0625-4.875h1.46875l.10937-.45313h-1.5l.3125-1.29687c.23438-.875.45313-1.21875.76563-1.21875s.53125.26562.78125.8125c.0625.10937.15625.20312.32812.20312.23438 0 .5625-.20312.5625-.5 0-.5-.625-.90625-1.32812-.90625-1.35938 0-1.92188.96875-2.375 2.48438l-.125.42187h-1l-.125.45313h1.03125L1.57813 1.59375c-.14063.71875-.26563.78125-.375.78125-.125 0-.29688-.07812-.60938-.5625C.5 1.70313.4375 1.54688.28125 1.54688c-.25 0-.53125.29687-.53125.57812m0 0"/><path id="x" d="M.98438-2.9375h6.375v-.67187h-6.375Zm0 0"/><path id="y" d="M.1875-2.45312C.1875-1.07812 1.54688.125 2.82813.125 4.46875.125 5.5-1.5 5.70313-1.82812 5.92188-1.40625 7.04688.14063 8.84375.14063c2.14063 0 2.75-1.625 2.75-3s-1.28125-2.48438-2.5625-2.48438c-1.54687 0-2.39062 1.10938-2.875 1.79688-.45312-.75-1.46875-1.76563-3.07812-1.76563C.96875-5.3125.1875-3.82812.1875-2.45312m.71875.03125c0-1.15625.8125-2.0625 1.79688-2.0625 1.15625 0 2.125 1.21875 2.67187 2.07812-.4375.79688-1.26562 2-2.57812 2-.84375 0-1.89063-.96875-1.89063-2.01562m5.57813-.60938c.4375-.79687 1.28125-1.76562 2.59375-1.76562.82812 0 1.84375.84375 1.84375 1.89062 0 1.17188-.625 2.23438-1.75 2.23438-1.20313 0-2.14063-1.32813-2.6875-2.35938m0 0"/><path id="z" d="M1.25 0h3.8125v-.32812l-.96875-.09375c-.25-.01563-.39062-.10938-.39062-.5625V-7.8125l-.04688-.0625L1.25-7.46875v.28125l1.09375.14063c.20313.01562.26563.10937.26563.4375v5.625c0 .45312-.10938.54687-.375.5625L1.25-.32812Zm0 0"/><path id="A" d="M.98438-2.9375h2.84375v2.84375h.6875V-2.9375h2.84375v-.67187H4.51563v-2.84375h-.6875v2.84375H.98438Zm0 0"/><path id="C" d="M.78125-2.34375H3.0625V-.0625h.54688v-2.28125h2.28125v-.54687H3.60938v-2.28125H3.0625v2.28125H.78125Zm0 0"/><path id="D" d="M.14063-1.96875c0 1.10938 1.10937 2.0625 2.125 2.0625 1.29687 0 2.125-1.29687 2.29687-1.54687.17188.32812 1.0625 1.5625 2.5 1.5625 1.71875 0 2.21875-1.29688 2.21875-2.39063 0-1.10937-1.03125-1.98437-2.0625-1.98437-1.23437 0-1.90625.89062-2.29687 1.42187C4.5625-3.4375 3.75-4.25 2.46875-4.25.78125-4.25.14063-3.0625.14063-1.96875m.59375.03125c0-.92187.64062-1.65625 1.42187-1.65625.9375 0 1.70313.98438 2.14063 1.67188-.35938.625-1.01563 1.59375-2.0625 1.59375-.67188 0-1.5-.76563-1.5-1.60938m4.45312-.48437C5.54688-3.0625 6.21875-3.82812 7.25-3.82812c.67188 0 1.48438.65625 1.48438 1.5 0 .9375-.5 1.79687-1.40625 1.79687-.95313 0-1.70313-1.0625-2.14063-1.89062m0 0"/><path id="E" d="M.78125-2.34375h5.10938v-.54687H.78125Zm0 0"/><path id="F" d="M.25-.95312c0 .40625.64063 1.0625 1.95313 1.0625 1.34375 0 2.1875-.6875 2.1875-1.85938 0-1.25-1.0625-1.60937-1.57813-1.65625v-.04687c.5-.07813 1.29688-.45313 1.29688-1.375 0-1.01563-.79688-1.46875-1.79688-1.46875C1.09375-6.29687.5-5.59375.5-5.20312c0 .29687.3125.45312.45313.45312.10937 0 .1875-.07812.21874-.1875.20313-.64062.54688-1.03125 1.07813-1.03125.73438 0 .92188.64063.92188 1.15625 0 .54688-.20313 1.25-1 1.25-.4375 0-.6875-.07812-.79688-.07812-.125 0-.17187.07812-.17187.25 0 .15625.04687.25.17187.25.10938 0 .35938-.07813.79688-.07813.79687 0 1.23437.70313 1.23437 1.51563 0 1.10937-.53125 1.48437-1.20312 1.48437-.60938 0-1.01563-.45312-1.1875-.96875C.95313-1.375.875-1.45312.73437-1.45312c-.15624 0-.48437.17187-.48437.5m0 0"/><clipPath id="a"><path d="M1.46875 35H160v35.53906H1.46875Zm0 0"/></clipPath><clipPath id="b"><path d="M159 0h197.08594v36H159Zm0 0"/></clipPath><clipPath id="c"><path d="M159 35h197v35.53906H159Zm0 0"/></clipPath><clipPath id="d"><path d="M159 35h197.08594v35.53906H159Zm0 0"/></clipPath><clipPath id="e"><path d="M1.46875 0H160v36H1.46875Zm0 0"/></clipPath><clipPath id="t"><path d="M1.46875 35h354.61719v1H1.46875Zm0 0"/></clipPath><clipPath id="u"><path d="M1.46875 70h354.61719v.53906H1.46875Zm0 0"/></clipPath><clipPath id="v"><path d="M1.46875 0h354.61719v70.53906H1.46875Zm0 0"/></clipPath><clipPath id="w"><path d="M159 0h1v70.53906h-1Zm0 0"/></clipPath><clipPath id="B"><path d="M159 35h197.08594v35.53906H159Zm0 0"/></clipPath></defs><g clip-path="url(#a)"><path fill="#FFF" stroke="#000" stroke-miterlimit="10" stroke-width=".39443" d="M1.66797 35.26954v35.07033h157.82036V35.26954Zm0 0"/></g><path fill="#FFF" d="M159.48828 35.26953V.19531h196.40625v35.07422Zm0 0"/><g clip-path="url(#b)"><path fill="none" stroke="#000" stroke-miterlimit="10" stroke-width=".39443" d="M159.48833 35.26954V.19531h196.40632v35.07423Zm0 0"/></g><g clip-path="url(#c)"><path fill="#FFF" d="M159.48828 35.26953v35.07031h196.40625v-35.0703Zm0 0"/></g><g clip-path="url(#d)"><path fill="none" stroke="#000" stroke-miterlimit="10" stroke-width=".39443" d="M159.48833 35.26954v35.07033h196.40632V35.26954Zm0 0"/></g><g clip-path="url(#e)"><path fill="#FFF" stroke="#000" stroke-miterlimit="10" stroke-width=".39443" d="M1.66797.19531v35.07423h157.82036V.19531Zm0 0"/></g><use xlink:href="#f" x="48.51395" y="21.96051"/><use xlink:href="#g" x="55.28101" y="21.96051"/><use xlink:href="#h" x="61.70295" y="21.96051"/><use xlink:href="#i" x="65.4008" y="21.96051"/><use xlink:href="#j" x="71.51458" y="21.96051"/><use xlink:href="#k" x="78.92261" y="21.96051"/><use xlink:href="#l" x="88.2412" y="21.96051"/><use xlink:href="#i" x="95.3534" y="21.96051"/><use xlink:href="#m" x="105.57915" y="21.96051"/><use xlink:href="#f" x="38.14712" y="55.70152"/><use xlink:href="#g" x="44.91419" y="55.70152"/><use xlink:href="#k" x="51.33612" y="55.70152"/><use xlink:href="#n" x="56.66103" y="55.70152"/><use xlink:href="#g" x="60.44516" y="55.70152"/><use xlink:href="#o" x="66.8671" y="55.70152"/><use xlink:href="#n" x="71.26754" y="55.70152"/><use xlink:href="#p" x="75.05168" y="55.70152"/><use xlink:href="#q" x="81.94201" y="55.70152"/><use xlink:href="#r" x="89.44865" y="55.70152"/><use xlink:href="#l" x="98.82886" y="55.70152"/><use xlink:href="#i" x="105.94106" y="55.70152"/><use xlink:href="#s" x="116.16621" y="55.70152"/><g clip-path="url(#t)"><path fill="none" stroke="#000" stroke-miterlimit="10" stroke-width=".39443" d="M1.66797 35.26954h354.22668"/></g><g clip-path="url(#u)"><path fill="none" stroke="#000" stroke-miterlimit="10" stroke-width=".39443" d="M1.66797 70.33987h354.22668"/></g><g clip-path="url(#v)"><path fill="none" stroke="#000" stroke-miterlimit="10" stroke-width=".39443" d="M1.66797.19531v70.14456h354.22668V.1953Zm0 0"/></g><g clip-path="url(#w)"><path fill="none" stroke="#000" stroke-miterlimit="10" stroke-width=".39443" d="M159.48833.19531v70.14456"/></g><use xlink:href="#x" x="166.94673" y="20.33428"/><use xlink:href="#y" x="175.27922" y="20.33428"/><use xlink:href="#x" x="250.45248" y="21.67149"/><use xlink:href="#z" x="258.78497" y="21.67149"/><use xlink:href="#A" x="328.27584" y="20.8945"/><use xlink:href="#y" x="336.60833" y="20.8945"/><g clip-path="url(#B)"><path fill="none" stroke="#000" stroke-miterlimit="10" stroke-width=".39443" d="M159.48833 35.26954v35.07033h196.40632V35.26954Zm0 0"/></g><path fill="#FFF" d="M166.99219 48.4336h20.0664v-9.21876h-20.0664Zm0 0"/><use xlink:href="#C" x="168.96293" y="46.35293"/><use xlink:href="#D" x="175.62893" y="46.35293"/><path fill="#FFF" d="M166.99219 48.4336h20.0664v-9.21876h-20.0664Zm0 0"/><use xlink:href="#C" x="168.96293" y="46.35293"/><use xlink:href="#D" x="175.62893" y="46.35293"/><path fill="#FFF" d="M249.92969 66.39453h15.52344V56.04297h-15.52344Zm0 0"/><use xlink:href="#E" x="251.90054" y="64.31567"/><use xlink:href="#F" x="258.56654" y="64.31567"/><path fill="#FFF" d="M249.92969 66.39453h15.52344V56.04297h-15.52344Zm0 0"/><use xlink:href="#E" x="251.90054" y="64.31567"/><use xlink:href="#F" x="258.56654" y="64.31567"/><path fill="none" stroke="#000" stroke-miterlimit="10" stroke-width=".39443" d="m190.961 46.82814 52.75783 11.37891"/><path d="M246.03125 58.70703c-.92187-.40234-2.57422-1.16406-3.54297-2.27734.73438 1.26562.57031 2.03906-.625 2.89062 1.34375-.61718 3.16406-.6289 4.16797-.61328m0 0"/><path fill="#FFF" d="M328.32422 48.4336h20.0664v-9.21876h-20.0664Zm0 0"/><use xlink:href="#C" x="330.29204" y="46.35293"/><use xlink:href="#D" x="336.95804" y="46.35293"/><path fill="#FFF" d="M328.32422 48.4336h20.0664v-9.21876h-20.0664Zm0 0"/><use xlink:href="#C" x="330.29204" y="46.35293"/><use xlink:href="#D" x="336.95804" y="46.35293"/><path fill="none" stroke="#000" stroke-miterlimit="10" stroke-width=".39443" d="m269.35165 58.70705 52.75783-11.3789"/><path d="M324.42578 46.82813c-1.00781.01562-2.82422.0039-4.16797-.61329 1.1914.85157 1.35938 1.6211.6211 2.89063.97265-1.11719 2.625-1.8789 3.54687-2.27734m0 0"/></svg>