<svg xmlns="http://www.w3.org/2000/svg" xmlns:xlink="http://www.w3.org/1999/xlink" width="319.694pt" height="192.135pt" viewBox="0 0 319.694 192.135"><defs><path id="b" d="M1.60938-4.78125h10.375v-1.10937h-10.375Zm0 0"/><path id="c" d="M.5-.1875.70313 0h7.8125l.64062-2.48437-.51562-.10938c-.40625 1.03125-.79688 1.17188-1.54688 1.17188H2.26563C2.5625-2.40625 3.6875-3.75 5.4375-5.01562 7.25-6.34375 8.65625-7.1875 8.65625-9.29687c0-2.625-1.75-3.53125-3.73437-3.53125C2.32813-12.82812 1-11.26562 1-10.28125c0 .64063.73438.9375 1.04688.9375.34375 0 .46875-.1875.54687-.51562.29688-1.28125 1.04688-2.3125 2.20313-2.3125 1.45312 0 1.875 1.20312 1.875 2.59375 0 2.03125-1.03125 3.17187-2.67188 4.625C1.67188-2.9375.85938-1.64062.5-.1875m0 0"/><path id="d" d="M2.04688 0H8.25v-.54687L6.67188-.6875c-.40625-.03125-.625-.17187-.625-.92187v-11.125l-.10938-.09375-3.89062.65625v.46875l1.76562.21875c.32813.04687.4375.1875.4375.71875v9.15625c0 .75-.17187.89062-.60937.92187l-1.59375.14063Zm0 0"/><path id="e" d="M.78125-6.29687C.78125-2.53125 1.89063.21875 5 .21875s4.23438-2.75 4.23438-6.51562c0-3.78125-1.125-6.53125-4.23438-6.53125s-4.21875 2.75-4.21875 6.53125m1.90625 0c0-3.07813.53125-5.875 2.3125-5.875s2.3125 2.79687 2.3125 5.875C7.3125-3.23437 6.78125-.4375 5-.4375S2.6875-3.23437 2.6875-6.29687m0 0"/><path id="j" d="M0 1.92188c0 .35937.20313.60937.84375.60937.98438 0 1.4375-.73437 2.32813-2.23437C3.375-.0625 4-1.1875 4.64063-2.25c.60937-.98437 1.25-2.01562 1.25-2.4375 0-.3125-.125-.57812-.20313-.57812-.21875 0-.60937.09375-.95312.26562 0 0-.01563 1.04688-.10938 1.46875-.15625.60938-.64062 1.59375-1.34375 2.84375H3.25c-.04687-1.59375-.26562-3.85937-.40625-4.53125l-.07812-.04687-1.98438.5.01563.29687L1.5-4.48437c.20313 0 .26563.17187.35938.6875.125.8125.39062 2.84375.39062 3.76562 0 .35938-.01562.75-.1875 1.1875-.15625.4375-.375.70313-.57812.70313-.375 0-.45313-.67188-.875-.67188-.3125 0-.60938.375-.60938.73438m0 0"/><path id="k" d="M.89063-1.39062h5.76562v-.78125H.89063Zm0-2.34375h5.76562v-.78125H.89063Zm0 0"/><path id="l" d="M.76563-1.125c0 .625.28124 1.25 1.01562 1.25 1.17188 0 2.0625-1.28125 2.64063-2.3125h.04687l-.3125 1.07813c-.07812.23437-.10937.42187-.10937.59375 0 .42187.21875.64062.65625.64062.875 0 1.5-.75 1.89062-1.59375L6.3125-1.625c-.21875.42188-.64062 1.0625-.92187 1.0625-.125 0-.17188-.07812-.17188-.20312 0-.07813.03125-.1875.0625-.32813L6.375-5.17187H5.23438l-.04688.10937c-.17187-.125-.48437-.20312-.76562-.20312-2.48438 0-3.65625 2.75-3.65625 4.14062m1.28125-.04687c0-1.125 1-3.67188 2.4375-3.67188.23437 0 .4375.0625.57812.1875C4.875-3.875 4.5-2.85937 3.96875-2.01562 3.40625-1.15625 2.85938-.5625 2.4375-.5625c-.29687 0-.39062-.25-.39062-.60937m0 0"/><path id="m" d="M.375-.46875c0 .32813.28125.59375.75.59375.6875 0 1.07813-.64062 1.5-1.34375l.39063-.67187h.01562l.1875.78125C3.39063-.34375 3.60938.125 4.1875.125c.85938 0 1.35938-.85937 1.67188-1.625l-.29688-.14062C5.3125-1.10937 5-.5625 4.71875-.5625c-.1875 0-.26562-.20312-.45312-.92187L3.875-3.0625c.34375-.59375.78125-1.28125 1.0625-1.28125.3125 0 .42188.20313.73438.20313.26562 0 .5-.26563.5-.59375 0-.375-.26563-.53125-.57813-.53125-.53125 0-.96875.39062-1.34375.96875l-.46875.73437h-.01562L3.375-5.21875l-.0625-.04687-1.92187.53125.01562.28125L2.14063-4.5c.21875 0 .29687.07813.375.4375l.39062 1.59375-.28125.53125c-.375.64063-.71875 1.14063-.9375 1.14063-.3125 0-.42187-.3125-.76562-.3125-.29688 0-.54688.3125-.54688.64062m0 0"/><path id="n" d="M.32813-.14062.45313 0h4.51562L5.375-1.57812l-.32812-.0625C4.78125-1.07812 4.59375-1 4.17188-1H1.5c.17188-.46875.67188-1.15625 1.71875-1.8125C4.32813-3.51562 5.0625-4.01562 5.0625-5.15625c0-1.45312-1-1.96875-2.20312-1.96875-1.40625 0-2.29688.78125-2.29688 1.48438 0 .40625.46875.59375.71875.59375.20313 0 .3125-.10938.375-.32813.15625-.76562.54688-1.34375 1.14063-1.34375.67187 0 .90625.60938.90625 1.35938 0 .92187-.375 1.64062-1.40625 2.5C.92188-1.6875.45313-.90625.32813-.14062m0 0"/><path id="p" d="M.82813-2.59375h5.90625v-.73437H.82813Zm0 0"/><clipPath id="a"><path d="M.5625 0h318.26172v191.27344H.5625Zm0 0"/></clipPath><clipPath id="f"><path d="M.5625 95H313v2H.5625Zm0 0"/></clipPath><clipPath id="g"><path d="M301 83h17.82422v26H301Zm0 0"/></clipPath><clipPath id="h"><path d="M159 6h2v185.27344h-2Zm0 0"/></clipPath><clipPath id="i"><path d="M.95703.39453H318.4297V107H.95703Zm0 0"/></clipPath><clipPath id="o"><path d="M.95703 84H318.4297v106.8789H.95703Zm0 0"/></clipPath></defs><g clip-path="url(#a)"><path fill="none" stroke="#000" stroke-miterlimit="10" stroke-opacity=".5" stroke-width=".39671" d="M.95705 159.1328h317.47262M.95705 95.63672h317.47262M.95705 32.14063h317.47262M32.70705 190.8789V.39454M96.19923 190.8789V.39454M159.6953 190.8789V.39454m63.4922 190.48436V.39454m63.49609 190.48435V.39454"/></g><path fill="none" stroke="#000" stroke-miterlimit="10" stroke-opacity=".5" stroke-width=".39671" d="M32.70705 79.76172v31.75"/><g fill-opacity=".5"><use xlink:href="#b" x="20.91846" y="117.92709"/><use xlink:href="#c" x="34.4952" y="117.92709"/></g><path fill="none" stroke="#000" stroke-miterlimit="10" stroke-opacity=".5" stroke-width=".39671" d="M96.19923 79.76172v31.75"/><g fill-opacity=".5"><use xlink:href="#b" x="84.41161" y="117.92709"/><use xlink:href="#d" x="97.98835" y="117.92709"/></g><path fill="none" stroke="#000" stroke-miterlimit="10" stroke-opacity=".5" stroke-width=".39671" d="M223.1875 79.76172v31.75"/><use xlink:href="#d" x="218.18735" y="117.92709" fill-opacity=".5"/><path fill="none" stroke="#000" stroke-miterlimit="10" stroke-opacity=".5" stroke-width=".39671" d="M286.68358 79.76172v31.75"/><use xlink:href="#c" x="281.6815" y="117.92709" fill-opacity=".5"/><path fill="none" stroke="#000" stroke-miterlimit="10" stroke-opacity=".5" stroke-width=".39671" d="M175.5664 159.1328h-31.74608"/><g fill-opacity=".5"><use xlink:href="#b" x="125.68281" y="165.5467"/><use xlink:href="#d" x="139.25955" y="165.5467"/></g><path fill="none" stroke="#000" stroke-miterlimit="10" stroke-opacity=".5" stroke-width=".39671" d="M175.5664 32.14063h-31.74608"/><use xlink:href="#d" x="132.47125" y="38.5594" fill-opacity=".5"/><path fill="none" stroke="#000" stroke-miterlimit="10" stroke-opacity=".5" stroke-width=".39671" d="M159.69531 79.76172v31.75"/><use xlink:href="#e" x="132.47125" y="124.166" fill-opacity=".5"/><g clip-path="url(#f)"><path fill="none" stroke="#000" stroke-miterlimit="10" stroke-width=".79344" d="M.95705 95.63672h311.32418"/></g><path d="M316.42578 95.63672c-.50781-.10547-2.7461-.70703-4.14453-1.35938v2.71875c1.39844-.65234 3.63672-1.2539 4.14453-1.35937m0 0"/><g clip-path="url(#g)"><path fill="none" stroke="#000" stroke-miterlimit="10" stroke-width=".79344" d="M316.42578 95.63672c-.50781-.10547-2.7461-.70703-4.14453-1.35938v2.71875c1.39844-.65234 3.63672-1.2539 4.14453-1.35937Zm0 0"/></g><g clip-path="url(#h)"><path fill="none" stroke="#000" stroke-miterlimit="10" stroke-width=".79344" d="M159.69531 190.8789V6.54297"/></g><path stroke="#000" stroke-miterlimit="10" stroke-width=".79344" d="M159.69531 2.39844c-.10547.50781-.70703 2.7461-1.35937 4.14453h2.71875c-.65625-1.39844-1.2539-3.63672-1.35938-4.14453Zm0 0"/><g clip-path="url(#i)"><path fill="none" stroke="#007F7F" stroke-miterlimit="10" stroke-width=".79344" d="M-62.53513-293.26557s13.3789 45.625 18.51953 62.11327c5.13672 16.48828 13.3789 41.72656 18.51563 56.71484 5.14062 14.98828 13.3828 37.8203 18.51952 51.31249 5.14063 13.48828 13.3789 33.91796 18.51953 45.91015 5.13672 11.99219 13.3789 30.01562 18.51953 40.5078 5.13672 10.4922 13.3789 26.1172 18.51562 35.10938 5.14063 8.99609 13.38281 22.21484 18.51953 29.71093 5.14063 7.49219 13.3789 18.3086 18.51953 24.30469 5.13672 5.99609 13.3789 14.41015 18.51953 18.90624 5.13672 4.4961 13.3789 10.50781 18.51562 13.5039 5.14063 3 13.38281 6.60547 18.51953 8.10547 5.14063 1.5 13.3789 2.70313 18.51953 2.70313 5.13672 0 13.3789-1.19922 18.51953-2.69922 5.13672-1.4961 13.3789-5.10156 18.51562-8.09765 5.14063-2.9961 13.38281-9.00391 18.51953-13.5 5.14062-4.4961 13.3789-12.90625 18.51953-18.90234 5.13672-5.9961 13.3789-16.8086 18.51953-24.30078 5.13672-7.4961 13.3789-20.71484 18.51562-29.70703 5.14062-8.99219 13.38281-24.61328 18.51953-35.10156 5.14062-10.49218 13.3789-28.51562 18.51953-40.5078 5.13672-11.98828 13.3789-32.41797 18.51953-45.90625 5.13671-13.48828 13.3789-36.3203 18.51562-51.30858 5.14062-14.98438 13.38281-40.22265 18.51953-56.70703 5.14062-16.48828 18.51953-62.11327 18.51953-62.11327"/></g><use xlink:href="#j" x="232.74481" y="67.07005" fill="#007F7F"/><use xlink:href="#k" x="241.44785" y="67.07005" fill="#007F7F"/><use xlink:href="#l" x="251.16624" y="67.07005" fill="#007F7F"/><use xlink:href="#m" x="258.67539" y="67.07005" fill="#007F7F"/><use xlink:href="#n" x="265.54614" y="62.6059" fill="#007F7F"/><g clip-path="url(#o)"><path fill="none" stroke="#FF7F00" stroke-miterlimit="10" stroke-width=".79344" d="M-62.53513 484.53901s13.3789-45.625 18.51953-62.11327c5.13672-16.48828 13.3789-41.72656 18.51563-56.71484 5.14062-14.98828 13.3828-37.8203 18.51952-51.3125 5.14063-13.48827 13.3789-33.92186 18.51953-45.91014 5.13672-11.99219 13.3789-30.01953 18.51953-40.51171 5.13672-10.4922 13.3789-26.11328 18.51562-35.10938 5.14063-8.99218 13.38281-22.21093 18.51953-29.70702 5.14063-7.4961 13.3789-18.3125 18.51953-24.30469 5.13672-5.99609 13.3789-14.41015 18.51953-18.90624 5.13672-4.5 13.3789-10.50782 18.51562-13.50781 5.14063-2.9961 13.38281-6.60157 18.51953-8.10157 5.14063-1.5 13.3789-2.70312 18.51953-2.70312 5.13672 0 13.3789 1.19922 18.51953 2.69922 5.13672 1.4961 13.3789 5.10156 18.51562 8.09765 5.14063 2.9961 13.38281 9.0039 18.51953 13.5 5.14062 4.4961 13.3789 12.90625 18.51953 18.90234 5.13672 5.99219 13.3789 16.8086 18.51953 24.30078 5.13672 7.4961 13.3789 20.71484 18.51562 29.70703 5.14062 8.98828 13.38281 24.61327 18.51953 35.10155 5.14062 10.4922 13.3789 28.51563 18.51953 40.50781 5.13672 11.98828 13.3789 32.41797 18.51953 45.90625 5.13671 13.48827 13.3789 36.3203 18.51562 51.30858 5.14062 14.98438 13.38281 40.22265 18.51953 56.70703 5.14062 16.48828 18.51953 62.10936 18.51953 62.10936"/></g><use xlink:href="#j" x="232.74481" y="133.26404" fill="#FF7F00"/><use xlink:href="#k" x="241.44785" y="133.26404" fill="#FF7F00"/><g fill="#FF7F00"><use xlink:href="#p" x="251.16624" y="133.26404"/><use xlink:href="#l" x="258.70887" y="133.26404"/></g><use xlink:href="#m" x="266.21802" y="133.26404" fill="#FF7F00"/><use xlink:href="#n" x="273.09017" y="128.79989" fill="#FF7F00"/></svg>