<svg xmlns="http://www.w3.org/2000/svg" xmlns:xlink="http://www.w3.org/1999/xlink" width="177.962pt" height="109.176pt" viewBox="0 0 177.962 109.176"><defs><path id="b" d="M.4375-3.5c0 2.09375.60938 3.625 2.32813 3.625C4.5.125 5.125-1.40625 5.125-3.5c0-2.07812-.625-3.60937-2.35937-3.60937C1.04688-7.10937.4375-5.57812.4375-3.5m1.04688 0c0-1.70312.29687-3.23437 1.28125-3.23437 1 0 1.28125 1.53125 1.28125 3.23437S3.76563-.25 2.76563-.25c-.98438 0-1.28125-1.54687-1.28125-3.25m0 0"/><path id="c" d="M.89063-2.64062h5.75v-.625h-5.75Zm0 0"/><path id="d" d="M.28125-.09375.39063 0h4.32812l.35938-1.375-.29688-.0625c-.21875.5625-.4375.64063-.85937.64063H1.25c.17188-.53125.79688-1.28125 1.76563-1.98438 1-.73437 1.78125-1.20312 1.78125-2.375 0-1.45312-.96875-1.95312-2.07813-1.95312-1.42187 0-2.15625.875-2.15625 1.40625 0 .35937.39063.53125.57813.53125s.25-.10938.29687-.29688c.17188-.70312.57813-1.26562 1.21875-1.26562.79688 0 1.03125.65625 1.03125 1.42187 0 1.125-.5625 1.76563-1.46875 2.5625C.92188-1.625.48438-.90625.28125-.09375m0 0"/><path id="e" d="M1.14063 0h3.4375v-.29687L3.6875-.375c-.21875-.03125-.34375-.10937-.34375-.51562v-6.15625l-.04687-.0625-2.15625.375v.25l.96875.125c.1875.01562.25.09375.25.39062v5.07813c0 .40625-.09375.48437-.34375.51562l-.875.07813Zm0 0"/><path id="i" d="M.42188-.625c0 .34375.15625.6875.5625.6875.65625 0 1.14062-.70312 1.46875-1.28125h.01562L2.29688-.625c-.03125.14063-.04688.25-.04688.34375 0 .23438.10938.34375.35938.34375.48437 0 .82812-.40625 1.04687-.875L3.5-.89062c-.125.21874-.35937.57812-.51562.57812-.0625 0-.09375-.04687-.09375-.10937 0-.04688.01562-.10938.03125-.1875L3.53125-2.875h-.625l-.03125.0625c-.09375-.0625-.26562-.10937-.42187-.10937-1.375 0-2.03125 1.53125-2.03125 2.29687m.71875-.03125c0-.625.54687-2.03125 1.34375-2.03125.14062 0 .25.04688.32812.10938-.10937.42187-.3125 1-.60937 1.45312-.3125.48438-.60938.8125-.84375.8125-.17188 0-.21876-.14062-.21876-.34375m0 0"/><path id="j" d="M.23438.5625c0 .57813.59375.84375 1.26562.84375.34375 0 .71875-.0625 1-.23437.26563-.15626.45313-.4375.45313-.79688 0-.64062-.5-.84375-1.125-.84375H1.375c-.42187 0-.48437-.15625-.48437-.26562 0-.15626.21874-.25.29687-.28126C1.29688-1 1.42188-1 1.48438-1c.54687 0 1.17187-.23437 1.17187-.9375 0-.25-.07812-.45312-.1875-.54687l.46875-.07813.125-.35937L3-2.96875l-.73437.23438c-.15625-.125-.48438-.1875-.75-.1875C.625-2.92187.3125-2.375.3125-1.9375c0 .54688.35938.79688.625.85938v.01562c-.3125.125-.53125.29688-.53125.51563 0 .20312.23438.42187.51563.45312v.01563C.67188 0 .23438.14063.23438.5625m.5625-.03125c0-.20312.0625-.34375.1875-.4375s.3125-.14062.59375-.14062c.51562 0 .89062.14062.89062.5625 0 .46875-.42187.6875-.82812.6875-.5 0-.84375-.25-.84375-.67188M.90625-1.9375c0-.57812.29688-.78125.60938-.78125.28124 0 .57812.21875.57812.78125 0 .48438-.25.73438-.59375.73438-.32812 0-.59375-.25-.59375-.73438m0 0"/><path id="k" d="M.1875 0h1.53125v-.17187C1.20313-.20313 1.17188-.20313 1.17188-.5v-1.375c0-.4375.20312-.59375.32812-.59375.09375 0 .20313.03125.35938.125.04687.03125.09374.03125.125.03125.14062 0 .26562-.14062.26562-.32812 0-.125-.07812-.28125-.3125-.28125-.21875 0-.39062.125-.76562.46875l-.07813-.46875-.875.15625v.14062l.21875.03125c.14063.01563.1875.04688.1875.25V-.5c0 .29688-.03125.29688-.4375.32813Zm0 0"/><path id="l" d="M.28125-.75c0 .42188.29688.8125.84375.8125.32813 0 .67188-.21875.85938-.34375.07812.21875.1875.34375.39062.34375.21875 0 .45313-.0625.6875-.17187l-.04687-.125c-.07813.01562-.20313.01562-.29688 0-.09375-.03126-.20312-.14063-.20312-.5v-1.40625c0-.34375-.07813-.78125-.95313-.78125-.65625 0-1.17187.34375-1.17187.65625 0 .1875.21875.28125.32812.28125.125 0 .15625-.0625.1875-.15626.125-.4375.35938-.57812.59375-.57812s.5.125.5.57813v.25c-.15625.14062-.71875.29687-1.17187.4375C.40625-1.3125.28124-1.03125.28124-.75M.875-.82812c0-.28126.125-.42188.45313-.54688.23437-.07812.53125-.20312.67187-.28125v.82813c0 .46875-.35937.59375-.59375.59375C1.04688-.23437.875-.5.875-.82812m0 0"/><path id="m" d="M.1875 0h1.42188v-.17187C1.1875-.20313 1.17188-.20313 1.17188-.5v-1.375c0-.14062 0-.21875.04687-.3125.125-.21875.39063-.42187.70313-.42187.39062 0 .60937.21875.60937.73437V-.5c0 .29688-.01562.29688-.4375.32813V0h1.42188v-.17187c-.42188-.03126-.4375-.03126-.4375-.32813V-2c0-.57812-.32813-.92187-.85938-.92187-.4375 0-.70312.21875-1.0625.45312l-.07812-.45312-.85938.15625v.14062l.21875.03125c.14063.01563.1875.04688.1875.25V-.5c0 .29688-.01562.29688-.4375.32813Zm0 0"/><path id="n" d="M.28125-1.375C.28125-.5.73438.0625 1.5.0625c.3125 0 .57813-.14062.90625-.39062v.28125L2.45313 0h.9375v-.17187c-.42188-.03126-.4375-.03126-.4375-.32813v-3.78125l-.03125-.03125L2-4.17187v.15625L2.21875-4c.15625.01563.1875.04688.1875.26563v.95312c-.15625-.07812-.375-.14062-.64062-.14062-.48438 0-.84375.15625-1.07813.40625-.25.25-.40625.64062-.40625 1.14062m.60938-.0625c0-.75.26562-1.28125.85937-1.28125.28125 0 .5.125.60938.375.04687.09375.04687.17188.04687.32813v1.03125c0 .125 0 .21874-.03125.32812-.125.29688-.375.42188-.67187.42188-.54688 0-.8125-.53125-.8125-1.20313m0 0"/><path id="q" d="M.15625 1.17188v.17187h1.5v-.17187c-.5-.03126-.53125-.04688-.53125-.34375V-.0625c.125.0625.40625.125.67188.125C2.57813.0625 3.25-.29687 3.25-1.48437c0-.42188-.07812-1.4375-1.14062-1.4375-.42188 0-.75.28125-.98438.4375l-.07812-.4375-.875.15625v.14062l.21875.03125c.15625.01563.1875.04688.1875.25V.82813c0 .29687-.01563.3125-.42188.34375M1.125-.92187V-1.875c0-.14062.03125-.21875.07813-.32812.14062-.26563.375-.40625.6875-.40625.23437 0 .75.15625.75 1.15625 0 .85937-.26563 1.3125-.84375 1.3125-.3125 0-.53125-.15625-.625-.42188C1.125-.65625 1.125-.78125 1.125-.92187m0 0"/><path id="r" d="M.28125-1.40625C.28125-.48437.6875.0625 1.625.0625c.64063 0 .98438-.35937 1.14063-.8125l-.17188-.09375C2.42188-.5 2.20313-.23437 1.75-.23437c-.73437 0-.875-.6875-.85937-1.29688H2.5625c.125 0 .23438-.03125.23438-.21875 0-.34375-.10938-1.17187-1.17188-1.17187-.90625 0-1.34375.64062-1.34375 1.51562M.89063-1.75c0-.25.09374-.96875.70312-.96875.53125 0 .59375.54688.59375.78125 0 .10938-.03125.1875-.1875.1875Zm0 0"/><path id="s" d="M.17188-2.625h.42187v2.03125C.59375 0 1.04688.0625 1.25.0625c.29688 0 .5625-.14062.73438-.25l-.04688-.125c-.14062.0625-.26562.07813-.40625.07813-.20312 0-.39062-.14063-.39062-.57813V-2.625h.75v-.23437h-.75v-.71875H.98437L.625-2.85937H.17188Zm0 0"/><path id="t" d="M.53125-3.8125c0 .21875.15625.35938.35938.35938S1.25-3.59375 1.25-3.8125c0-.20312-.15625-.34375-.35937-.34375s-.35938.14063-.35938.34375M.1875 0h1.42188v-.17187C1.1875-.20313 1.17188-.20313 1.17188-.5v-2.39062L1.125-2.92187l-.90625.15625v.14062l.21875.03125c.14063.01563.1875.04688.1875.25V-.5c0 .29688-.01562.29688-.4375.32813Zm0 0"/><clipPath id="a"><path d="M.64844 0h176.6289v107H.64844Zm0 0"/></clipPath><clipPath id="f"><path d="M.64844 87H172v2H.64844Zm0 0"/></clipPath><clipPath id="g"><path d="M159 75h18.27734v26H159Zm0 0"/></clipPath><clipPath id="h"><path d="M1.04297.39453H176.8828V100H1.04297Zm0 0"/></clipPath><clipPath id="o"><path d="M1.04297.39453H176.8828V100H1.04297Zm0 0"/></clipPath><clipPath id="p"><path d="M1.04297 11H176.8828v89H1.04297Zm0 0"/></clipPath></defs><g clip-path="url(#a)"><path fill="none" stroke="#000" stroke-miterlimit="10" stroke-opacity=".5" stroke-width=".39552" d="M1.04298 88.3125H176.8828M1.04298 53.14453H176.8828M1.04298 17.97657H176.8828M18.625 105.89844V.39454m35.16797 105.5039V.39454m35.16797 105.5039V.39454m35.16796 105.5039V.39454m35.16797 105.5039V.39454"/></g><path fill="none" stroke="#000" stroke-miterlimit="10" stroke-opacity=".5" stroke-width=".39552" d="M88.96094 79.52344v17.58203"/><use xlink:href="#b" x="73.88394" y="104.11619" fill-opacity=".5"/><path fill="none" stroke="#000" stroke-miterlimit="10" stroke-opacity=".5" stroke-width=".39552" d="M18.625 79.52344v17.58203"/><g fill-opacity=".5"><use xlink:href="#c" x="12.09728" y="100.66027"/><use xlink:href="#d" x="19.61711" y="100.66027"/></g><path fill="none" stroke="#000" stroke-miterlimit="10" stroke-opacity=".5" stroke-width=".39552" d="M53.79297 79.52344v17.58203"/><g fill-opacity=".5"><use xlink:href="#c" x="47.26485" y="100.66027"/><use xlink:href="#e" x="54.78469" y="100.66027"/></g><path fill="none" stroke="#000" stroke-miterlimit="10" stroke-opacity=".5" stroke-width=".39552" d="M124.1289 79.52344v17.58203"/><use xlink:href="#e" x="121.35962" y="100.66027" fill-opacity=".5"/><path fill="none" stroke="#000" stroke-miterlimit="10" stroke-opacity=".5" stroke-width=".39552" d="M159.29687 79.52344v17.58203"/><use xlink:href="#d" x="156.5272" y="100.66027" fill-opacity=".5"/><g clip-path="url(#f)"><path fill="none" stroke="#000" stroke-miterlimit="10" stroke-width=".79104" d="M1.04298 88.3125h169.70701"/></g><path d="M174.88672 88.3125c-.50781-.10547-2.74219-.70312-4.13672-1.35156v2.70703c1.39453-.64844 3.6289-1.2461 4.13672-1.35547m0 0"/><g clip-path="url(#g)"><path fill="none" stroke="#000" stroke-miterlimit="10" stroke-width=".79104" d="M174.88672 88.3125c-.50781-.10547-2.74219-.70313-4.13672-1.35156v2.70703c1.39453-.64844 3.6289-1.2461 4.13672-1.35547Zm0 0"/></g><path fill="none" stroke="#000" stroke-miterlimit="10" stroke-opacity=".5" stroke-width=".39552" d="M97.7539 53.14453H80.17188"/><use xlink:href="#e" x="73.88394" y="56.70105" fill-opacity=".5"/><path fill="none" stroke="#000" stroke-miterlimit="10" stroke-opacity=".5" stroke-width=".39552" d="M97.7539 17.97657H80.17188"/><use xlink:href="#d" x="73.88394" y="21.53348" fill-opacity=".5"/><path fill="none" stroke="#000" stroke-miterlimit="10" stroke-width=".79104" d="M88.96094 105.89844v-99.375"/><path stroke="#000" stroke-miterlimit="10" stroke-width=".79104" d="M88.96094 2.39062c-.10547.50782-.70313 2.73829-1.35156 4.13282h2.70703c-.65235-1.39453-1.25-3.625-1.35547-4.13282Zm0 0"/><g clip-path="url(#h)"><path fill="none" stroke="#007F7F" stroke-miterlimit="10" stroke-width=".79104" d="M1.04298-351.28512s5.29296 51.57422 7.32421 70.21093c2.03516 18.63672 5.29297 47.16406 7.32813 64.10937 2.03125 16.9414 5.29297 42.7539 7.32422 58 2.03515 15.25 5.29687 38.34374 7.32812 51.89843 2.03516 13.55469 5.29297 33.92969 7.32813 45.78906C39.70704-49.41796 42.96875-31.7578 45-21.58983c2.03516 10.16406 5.29297 25.10937 7.32813 33.58202 2.03125 8.46875 5.29297 20.69531 7.32422 27.47266 2.03515 6.77734 5.29687 16.28906 7.32812 21.37109s5.29297 11.875 7.32813 15.26562c2.03124 3.38672 5.29296 7.46485 7.32421 9.16016 2.03516 1.69531 5.29297 3.05078 7.32813 3.05078 2.03125.0039 5.29297-1.35547 7.32422-3.04687 2.03515-1.69532 5.29296-5.76954 7.32812-9.15625 2.03125-3.39063 5.29297-10.1797 7.32812-15.26172 2.03125-5.08203 5.29297-14.58984 7.32422-21.36719 2.03516-6.77734 5.29297-19.0039 7.32813-27.47265 2.03125-8.46875 5.29296-23.41406 7.32421-33.57812 2.03516-10.16406 5.29297-27.82422 7.32813-39.67969 2.03125-11.85937 5.29297-32.23827 7.32422-45.78905 2.03515-13.5547 5.29687-36.64453 7.32812-51.89453 2.03125-15.2461 5.29297-41.05469 7.32813-57.99609 2.03125-16.9414 5.29296-45.46875 7.32421-64.10546 2.03516-18.63672 7.32813-70.20703 7.32813-70.20703"/></g><use xlink:href="#i" x="90.45289" y="50.20607" fill="#007F7F"/><g fill="#007F7F"><use xlink:href="#j" x="95.65612" y="50.20607"/><use xlink:href="#k" x="98.67196" y="50.20607"/></g><g fill="#007F7F"><use xlink:href="#l" x="100.87205" y="50.20607"/><use xlink:href="#m" x="103.90643" y="50.20607"/><use xlink:href="#n" x="107.49701" y="50.20607"/></g><g clip-path="url(#o)"><path fill="none" stroke="#007F7F" stroke-miterlimit="10" stroke-width=".79104" d="M1.04298-131.48436s5.29296 25.78516 7.32421 35.10547c2.03516 9.3164 5.29297 23.58203 7.32813 32.05469 2.03125 8.46874 5.29297 21.375 7.32422 29 2.03515 7.625 5.29687 19.17187 7.32812 25.9492 2.03516 6.77735 5.29297 16.96485 7.32813 22.89454C39.70704 19.44922 42.96875 28.27734 45 33.36329c2.03516 5.08203 5.29297 12.55468 7.32813 16.78906C54.35938 54.38672 57.6211 60.5 59.65235 63.89063c2.03515 3.38672 5.29687 8.14453 7.32812 10.68359 2.03125 2.54297 5.29297 5.9375 7.32813 7.63281 2.03124 1.69531 5.29296 3.73438 7.32421 4.58203 2.03516.84766 5.29297 1.52344 7.32813 1.52344 2.03125.0039 5.29297-.67578 7.32422-1.52344 2.03515-.84765 5.29296-2.88281 7.32812-4.57812 2.03125-1.69532 5.29297-5.08985 7.32812-7.6289 2.03125-2.54298 5.29297-7.29688 7.32422-10.6836 2.03516-3.39063 5.29297-9.5039 7.32813-13.73828 2.03125-4.23437 5.29296-11.70703 7.32421-16.78906 2.03516-5.08203 5.29297-13.91016 7.32813-19.83984 2.03125-5.92969 5.29297-16.11719 7.32422-22.89453 2.03515-6.77735 5.29687-18.32031 7.32812-25.94531s5.29297-20.52734 7.32813-29c2.03125-8.46875 5.29296-22.73437 7.32421-32.05078 2.03516-9.3164 7.32813-35.10546 7.32813-35.10546"/></g><g clip-path="url(#p)"><path fill="none" stroke="#FF7F00" stroke-miterlimit="10" stroke-width=".79104" d="M1.04298 22.375s5.29296 7.73438 7.32421 10.53125c2.03516 2.79688 5.29297 7.07422 7.32813 9.6172 2.03125 2.53905 5.29297 6.41015 7.32422 8.6992 2.03515 2.28907 5.29687 5.75 7.32812 7.78516 2.03516 2.03126 5.29297 5.08985 7.32813 6.8672 2.03125 1.78124 5.29296 4.42968 7.32421 5.95312 2.03516 1.52734 5.29297 3.76562 7.32813 5.03906 2.03125 1.26953 5.29297 3.10547 7.32422 4.1211 2.03515 1.01562 5.29687 2.4414 7.32812 3.20312 2.03125.76562 5.29297 1.78125 7.32813 2.29296 2.03124.50782 5.29296 1.1172 7.32421 1.3711 2.03516.2539 5.29297.45703 7.32813.45703 2.03125.0039 5.29297-.20313 7.32422-.45703 2.03515-.2539 5.29296-.86328 7.32812-1.3711 2.03125-.5078 5.29297-1.52734 7.32812-2.28906 2.03125-.76172 5.29297-2.1875 7.32422-3.20703 2.03516-1.01562 5.29297-2.84765 7.32813-4.1211 2.03125-1.26952 5.29296-3.51171 7.32421-5.03515 2.03516-1.52344 5.29297-4.17187 7.32813-5.95312 2.03125-1.77735 5.29297-4.83594 7.32422-6.86719 2.03515-2.03125 5.29687-5.4961 7.32812-7.78515 2.03125-2.28516 5.29297-6.15625 7.32813-8.69922 2.03125-2.53906 5.29296-6.82031 7.32421-9.61719 2.03516-2.79297 7.32813-10.53125 7.32813-10.53125"/></g><use xlink:href="#i" x="119.70412" y="83.7896" fill="#FF7F00"/><g fill="#FF7F00"><use xlink:href="#q" x="124.90735" y="83.7896"/><use xlink:href="#r" x="128.43613" y="83.7896"/><use xlink:href="#s" x="131.42108" y="83.7896"/><use xlink:href="#t" x="133.41722" y="83.7896"/><use xlink:href="#s" x="135.10436" y="83.7896"/></g></svg>