<svg xmlns="http://www.w3.org/2000/svg" xmlns:xlink="http://www.w3.org/1999/xlink" width="218.412pt" height="142.529pt" viewBox="0 0 218.412 142.529"><defs><path id="b" d="M.4375-3.51562C.4375-1.40625 1.04688.125 2.78125.125c1.73438 0 2.35938-1.53125 2.35938-3.64062 0-2.09375-.625-3.625-2.35938-3.625S.4375-5.60937.4375-3.51562m1.0625 0c0-1.70313.28125-3.25 1.28125-3.25s1.28125 1.54687 1.28125 3.25C4.0625-1.79687 3.78125-.25 2.78125-.25S1.5-1.79687 1.5-3.51562m0 0"/><path id="c" d="M1.14063 0h3.45312v-.29687L3.70313-.375c-.21875-.03125-.34375-.10937-.34375-.51562v-6.1875l-.04688-.0625-2.17187.375v.25l.98437.125c.17188.01562.25.09375.25.40625v5.09375c0 .40625-.10937.48437-.35937.51562l-.875.07813Zm0 0"/><path id="d" d="M.28125-.09375.39063 0h4.34375l.35937-1.39062-.29687-.04688c-.21875.5625-.42188.64063-.85938.64063H1.26563c.17187-.54688.79687-1.29688 1.76562-2 1-.73438 1.78125-1.20313 1.78125-2.375 0-1.46875-.96875-1.96875-2.07812-1.96875-1.4375 0-2.17188.875-2.17188 1.42187 0 .35938.39063.53125.57813.53125s.25-.125.29687-.29687c.17188-.71875.57813-1.28125 1.23438-1.28125.79687 0 1.03125.67187 1.03125 1.4375 0 1.125-.5625 1.76562-1.48438 2.5625C.92188-1.625.48438-.92187.28125-.09375m0 0"/><path id="e" d="M.28125-1.07812C.28125-.625 1 .125 2.48438.125c1.53125 0 2.48437-.76562 2.48437-2.10937 0-1.40625-1.20312-1.82813-1.78125-1.875v-.04688C3.75-4 4.65625-4.42187 4.65625-5.46875c0-1.15625-.90625-1.67187-2.03125-1.67187-1.39062 0-2.0625.8125-2.0625 1.25 0 .32812.35938.5.51563.5.125 0 .20312-.07813.25-.20313.23437-.71875.625-1.17187 1.21875-1.17187.82812 0 1.04687.71875 1.04687 1.3125 0 .625-.23437 1.42187-1.125 1.42187-.5 0-.79687-.10937-.92187-.10937s-.1875.10937-.1875.29687c0 .17188.0625.29688.1875.29688s.42187-.10938.92187-.10938c.89063 0 1.39063.8125 1.39063 1.71875C3.85938-.6875 3.25-.25 2.5-.25c-.6875 0-1.14062-.51562-1.34375-1.10937-.07812-.1875-.17187-.29688-.3125-.29688-.20312 0-.5625.20313-.5625.57813m0 0"/><path id="f" d="m.20313-2.09375.09375.21875h2.85937v1.07813c0 .34375-.125.40625-.375.42187l-.67187.07813V0H4.875v-.29687l-.46875-.0625c-.23437-.03125-.3125-.09375-.3125-.4375V-1.875h1.07813v-.5H4.09375v-4.64062h-.76562C2.34375-5.5625 1.15625-3.75.20313-2.09375m.75-.28125C1.59375-3.51562 2.34375-4.71875 3.15625-6v3.625Zm0 0"/><path id="g" d="M.42188-1.07812C.42188-.59375 1.15625.125 2.53125.125c1.71875 0 2.5-1.04687 2.5-2.375 0-1.48437-.90625-2.23437-2.15625-2.23437-.57812 0-1.21875.26562-1.5625.5625l.23438-1.98438c.04687-.26562.10937-.3125.3125-.3125h2.60937l.25-.70312-.04687-.09375H1.15625l-.09375.09375-.21875 3.51562.26563.14063c.4375-.51563.85937-.75 1.42187-.75.67188 0 1.40625.48437 1.40625 1.875C3.9375-1.0625 3.51563-.25 2.59375-.25c-.73437 0-1.10937-.51562-1.3125-1.125-.0625-.15625-.17187-.25-.3125-.25-.20312 0-.54687.20313-.54687.54688m0 0"/><path id="i" d="M.89063-2.65625h5.78125v-.60937H.89063Zm0 0"/><path id="l" d="M.39063-5.8125C.39063-4.79687 1.40625-4 3.73438-4c-.39063.6875-.67188 1.39063-.67188 2.15625 0 1.28125.8125 1.98438 2.26563 1.98438C6.76563.14063 8.25-.89062 8.25-2.21875c0-.79687-.65625-1.23437-1.48437-1.23437-.92188 0-2 1.03125-2 1.85937 0 .23438.1875.71875.53125.71875.09375 0 .23437-.07812.23437-.1875 0-.15625-.26562-.17187-.26562-.53125 0-.5625.82812-1.48437 1.5-1.48437.46875 0 .75.1875.75.64062 0 1.03125-.98438 2.20313-2.1875 2.20313-.84375 0-1.26563-.45313-1.26563-1.23438 0-.85937.60938-1.875 1.0625-2.625 2.59375-.39062 5.14063-1.67187 5.14063-3.29687 0-.625-.5-1.03125-1.17188-1.03125-1.53125 0-3.85937 1.96875-5.14062 4.01562C2.90625-4.42187 1.1875-4.4375 1.1875-5.6875c0-1.14062 1.39063-2.01562 2.26563-2.01562.15625 0 .25-.09375.25-.20313 0-.09375-.09375-.17187-.1875-.17187-1.3125 0-3.125.875-3.125 2.26562m4.96875 1.26563c.85937-1.5 2.67187-3.5 3.73437-3.5.40625 0 .6875.23437.6875.60937 0 1.3125-2.04687 2.5-4.42187 2.89063m0 0"/><path id="E" d="m1.6875-1.26562.48438.48437L4.1875-2.8125 6.23438-.78125l.46875-.48437-2.03125-2.01563 2.03125-2.04687-.46875-.46875L4.1875-3.76562 2.17188-5.79687l-.48438.46875 2.03125 2.04687Zm0 0"/><path id="F" d="M.375-.45312c0 .32812.26563.59375.73438.59375.79687 0 1.25-.79688 1.73437-1.57813l.46875-.76562h.03125l.20313.90625c.21875.9375.4375 1.4375 1.03125 1.4375.85937 0 1.29687-.89063 1.65625-1.59375l-.29688-.15626C5.64063-1.09374 5.32813-.46874 5-.46874c-.21875 0-.3125-.26562-.57812-1.3125L4.0625-3.29687c.42188-.75 1.01563-1.67188 1.34375-1.67188.34375 0 .35938.1875.70313.1875.26562 0 .5-.25.5-.5625 0-.35937-.26563-.51562-.59375-.51562-.625 0-1.14063.5625-1.54688 1.21875l-.51562.79687H3.9375L3.46875-5.8125l-.0625-.04687-1.9375.59375.03125.28125.92188-.0625c.1875 0 .26562.07812.375.57812l.42187 1.6875-.32812.5625c-.5.85938-.9375 1.46875-1.21875 1.46875-.32813 0-.42188-.29687-.79688-.29687-.29687 0-.5.29687-.5.59375m0 0"/><path id="m" d="M-.17187 1.46875c0 .28125.35937.5.79687.5.85938 0 1.25-.67187 1.57813-2.21875l.76562-3.42187H4L4.07813-4h-1.0625l.25-1c.14062-.54687.28125-.75.48437-.75.1875 0 .32813.15625.51563.57813.04687.07812.125.15625.26562.15625.1875 0 .4375-.15625.4375-.39063 0-.35937-.45312-.65625-.98437-.65625-1.03125 0-1.45313.75-1.75 1.78125L2.15625-4h-.70312l-.09376.32813h.71876L1.125 1.1875c-.07812.40625-.15625.46875-.23437.46875-.07813 0-.21876-.07812-.42188-.40625-.0625-.09375-.125-.20312-.25-.20312-.1875 0-.39062.20312-.39062.42187m0 0"/><path id="G" d="M.89063 0H3.625v-.25l-.65625-.0625c-.1875-.01562-.26562-.07812-.26562-.375v-4.82812l-.04688-.03125L.89063-5.25v.21875l.70312.09375c.15625.01563.21875.07813.21875.32813V-.6875c0 .29688-.07812.35938-.28125.375L.89063-.25Zm0 0"/><path id="H" d="M.23438-.09375.32813 0h3.45312l.29688-1.17187-.23438-.03126c-.1875.4375-.34375.48438-.67187.48438H1.07813c.14062-.39062.57812-.9375 1.35937-1.46875.82813-.54687 1.42188-.9375 1.42188-1.82812 0-1.14063-.78125-1.53125-1.67188-1.53125-1.125 0-1.75.64062-1.75 1.14062 0 .28125.32813.42188.51563.42188.15624 0 .23437-.07813.26562-.23438.125-.57812.4375-1.03125.90625-1.03125.57813 0 .76563.5.76563 1.09375 0 .78125-.35938 1.3125-1.125 1.96875C.71875-1.29687.35938-.70312.23438-.09375m0 0"/><path id="o" d="M-.17187 0h1.28125v-.17187L.8125-.20313C.64063-.21874.60938-.28124.65625-.4375c.10938-.34375.21875-.70312.35938-1.125h1.3125l.39062 1.125c.04688.17188.03125.23438-.15625.25l-.26562.01563V0h1.5v-.17187c-.34375-.03126-.40625-.04688-.51563-.34375L2.04688-4.03125h-.4375L1-2.3125C.82813-1.79687.57813-1.10937.375-.57812.25-.25.20313-.1875-.17187-.17187Zm1.26562-1.78125c.1875-.57812.39063-1.15625.5625-1.67187h.03125l.57813 1.67187Zm0 0"/><path id="p" d="M0 0h1.125v-.17187l-.25-.03126c-.07812 0-.07812-.07812-.03125-.14062.125-.25.3125-.53125.51563-.82812l.53125.8125c.0625.09375.03124.15625-.04688.15625l-.25.03124V0h1.375v-.17187c-.26562-.01563-.35937-.03126-.5-.23438-.26562-.39062-.54687-.79687-.8125-1.20312.20313-.28126.42188-.59375.65625-.85938.14063-.1875.21875-.20312.5-.21875v-.17187H1.73438v.17187l.21874.01563c.09376.01562.09376.07812.04688.14062-.14062.21875-.29687.46875-.46875.73438l-.5-.73438c-.04687-.0625-.03125-.125.0625-.14062l.17188-.01563v-.17187H.04688v.17187c.23437.01563.28125.01563.4375.21875.23437.32813.48437.71875.73437 1.07813C1-1.0625.78125-.73437.54688-.42187.39062-.21875.26562-.1875 0-.17187Zm0 0"/><path id="q" d="M.28125-1.40625C.28125-.48437.6875.0625 1.625.0625c.65625 0 .98438-.35937 1.14063-.8125l-.17188-.09375C2.4375-.5 2.20313-.23437 1.75-.23437c-.71875 0-.875-.6875-.85937-1.29688h1.6875c.125 0 .21875-.03125.21875-.21875 0-.34375-.10938-1.17187-1.17188-1.17187-.90625 0-1.34375.64062-1.34375 1.51562m.625-.34375c0-.25.07813-.96875.6875-.96875.54688 0 .60938.54688.60938.78125 0 .10938-.04688.1875-.20313.1875Zm0 0"/><path id="r" d="M.28125-1.375C.28125-.51562.73438.0625 1.5.0625c.32813 0 .59375-.14062.90625-.39062v.28125L2.45313 0h.95312v-.17187c-.42187-.03126-.4375-.03126-.4375-.34375v-3.78125l-.04687-.03125L2-4.1875v.15625l.23438.01563c.14062.01562.17187.04687.17187.28125v.95312c-.15625-.09375-.375-.14062-.64062-.14062-.46875 0-.82813.15625-1.07813.39062-.25.26563-.40625.65625-.40625 1.15625m.60938-.0625c0-.76562.28124-1.28125.875-1.28125.26562 0 .5.125.59375.35938.04687.09375.04687.1875.04687.34375V-1c0 .14063 0 .23438-.03125.34375-.10937.29688-.375.42188-.67187.42188-.53125 0-.8125-.53125-.8125-1.20313m0 0"/><path id="s" d="m.26563-.96875.0625.76563c.21875.17187.57812.26562.90625.26562.70312 0 1.09375-.35937 1.09375-.85937 0-.51563-.3125-.73438-.90625-.92188-.25-.07812-.625-.20312-.625-.53125 0-.3125.23437-.46875.51562-.46875.42188 0 .60938.3125.65625.67188h.17188v-.6875c-.1875-.14063-.48438-.1875-.75-.1875-.64063 0-1.0625.29687-1.0625.84375 0 .48437.39062.70312.875.84375.26562.09374.64062.21874.64062.60937 0 .29688-.23437.48438-.54687.48438-.46875 0-.73438-.34375-.85938-.82813Zm0 0"/><path id="t" d="M-.03125-2.6875c.28125.01563.34375.04688.45313.3125.28125.6875.76562 1.92188.90625 2.32813.03124.10937.04687.1875.04687.28125 0 .14062-.04687.3125-.14062.5-.09376.20312-.1875.25-.25.25S.875.96875.76562.85938C.70313.8125.65626.78125.59376.78125c-.10937 0-.26562.15625-.26562.32813 0 .14062.17187.29687.40625.29687.23437 0 .53125-.0625.82812-.92187.35938-1.04688.90625-2.46875 1.09375-2.875.09375-.23438.125-.28125.42188-.29688v-.17187h-1.125v.17187l.3125.03125c.09375 0 .10937.07813.07812.1875-.07812.35938-.39062 1.23438-.64062 1.9375H1.6875c-.26562-.70312-.5-1.32812-.71875-1.95312-.03125-.10938-.04687-.17188.07813-.1875l.26562-.01563v-.17187H-.03125Zm0 0"/><path id="u" d="M.1875 0h1.42188v-.17187c-.42188-.03126-.4375-.03126-.4375-.34375V-1.875c0-.14062 0-.23437.04687-.3125.10938-.23437.35938-.42187.6875-.42187.5 0 .5625.35937.5625.71875v1.375c0 .3125-.01562.3125-.4375.34375V0h1.42188v-.17187c-.42188-.03126-.4375-.03126-.4375-.34375V-1.875c0-.14062 0-.21875.04687-.3125.07813-.23437.32813-.42187.65625-.42187.375 0 .59375.20312.59375.71875v1.375c0 .3125-.01562.3125-.4375.34375V0h1.42188v-.17187c-.42188-.03126-.4375-.03126-.4375-.34375V-2c0-.59375-.3125-.92187-.875-.92187-.46875 0-.8125.3125-1.01563.4375-.14062-.26563-.375-.4375-.78125-.4375-.4375 0-.8125.29687-1.01562.4375l-.0625-.4375-.89063.14062v.14063l.21875.03125c.14063.03125.1875.04687.1875.26562v1.82813c0 .3125-.01562.3125-.4375.34375Zm0 0"/><path id="v" d="m1.17188-3.28125.09374.125.875-.48437c.17188-.09375.32813-.20313.32813-.32813 0-.10937-.14062-.25-.23437-.25s-.1875.0625-.375.25Zm-.89063 1.875C.28125-.48437.6875.0625 1.625.0625c.65625 0 .98438-.35937 1.14063-.8125l-.17188-.09375C2.4375-.5 2.20313-.23437 1.75-.23437c-.71875 0-.875-.6875-.85937-1.29688h1.6875c.125 0 .21875-.03125.21875-.21875 0-.34375-.10938-1.17187-1.17188-1.17187-.90625 0-1.34375.64062-1.34375 1.51562m.625-.34375c0-.25.07813-.96875.6875-.96875.54688 0 .60938.54688.60938.78125 0 .10938-.04688.1875-.20313.1875Zm0 0"/><path id="w" d="M.1875-2.625h.42188v2.03125c0 .59375.4375.65625.64062.65625.29688 0 .57813-.14062.73438-.25l-.03126-.125c-.14062.0625-.26562.07813-.42187.07813-.20312 0-.39062-.14063-.39062-.57813V-2.625h.75v-.23437h-.75v-.73438H.98437L.625-2.85937H.1875Zm0 0"/><path id="x" d="M.1875 0h1.53125v-.17187c-.51562-.03126-.54687-.03126-.54687-.34375V-1.875c0-.4375.20312-.59375.32812-.59375.09375 0 .20313.03125.35938.125.04687.03125.09374.03125.125.03125.14062 0 .26562-.15625.26562-.32812 0-.125-.07812-.28125-.3125-.28125-.20312 0-.375.125-.76562.45312l-.0625-.45312-.89063.14062v.14063l.21875.03125c.14063.03125.1875.04687.1875.26562v1.82813c0 .3125-.03125.3125-.4375.34375Zm0 0"/><path id="y" d="M.53125-3.8125c0 .20313.15625.35938.35938.35938.21874 0 .35937-.15625.35937-.35938 0-.21875-.14062-.35937-.35937-.35937-.20313 0-.35938.14062-.35938.35937M.1875 0h1.42188v-.17187c-.42188-.03126-.4375-.03126-.4375-.34375v-2.375L1.125-2.92187l-.90625.14062v.14063l.21875.03125c.14063.03125.1875.04687.1875.26562v1.82813c0 .3125-.01562.3125-.4375.34375Zm0 0"/><path id="z" d="M.20313-.26562c0 .1875.15625.32812.42187.32812.39063 0 .60938-.34375.82813-.73437l.21874-.375h.01563l.09375.42187c.10938.4375.21875.6875.54688.6875.48437 0 .75-.46875.92187-.89062l-.15625-.07813c-.14062.28125-.3125.59375-.46875.59375-.10937 0-.15625-.10937-.25-.51562l-.21875-.875c.1875-.32813.4375-.70313.59375-.70313.17188 0 .23438.10938.40625.10938.14063 0 .28125-.15625.28125-.34375 0-.20313-.15625-.28125-.32812-.28125-.29688 0-.54688.21875-.75.53125l-.25.40625h-.01563L1.875-2.90625l-.03125-.01562-1.07812.28125.01562.17187L1.1875-2.5c.125 0 .17188.03125.21875.23438l.20313.89062-.15626.29688c-.20312.35937-.39062.625-.51562.625-.17187 0-.23437-.15625-.42187-.15625-.17188 0-.3125.17187-.3125.34375m0 0"/><path id="A" d="M.5-.78125h3.20313v-.42187H.5Zm0-1.29687h3.20313v-.4375H.5Zm0 0"/><path id="B" d="M.625 0h2v-.1875l-.45312-.04687c-.125 0-.1875-.04688-.1875-.26563v-3.42187l-.04688-.04688L.64063-3.75v.17188l.46875.0625c.125.01562.17187.0625.17187.25V-.5c0 .21875-.0625.26563-.20312.26563L.625-.1875Zm0 0"/><path id="C" d="M.5-1.4375h1.39063v1.39063h.42187V-1.4375h1.39063v-.42187H2.3125V-3.25h-.42187v1.39063H.5Zm0 0"/><path id="D" d="M.1875-.07812.25 0h2.51563l.21875-.875-.1875-.03125c-.14063.29688-.23438.34375-.48438.34375H.84375c.09375-.25.35938-.64062.95313-1 .60937-.39062 1.01562-.67187 1.01562-1.29687 0-.8125-.54687-1.10938-1.21875-1.10938-.78125 0-1.28125.4375-1.28125.84375 0 .21875.26563.32813.40625.32813.10938 0 .17188-.0625.20313-.1875.09374-.4375.29687-.75.625-.75.375 0 .51562.32812.51562.75 0 .51562-.21875.90625-.78125 1.39062C.51563-.9375.25-.5.1875-.07812m0 0"/><clipPath id="a"><path d="M5 0h212.75781v142H5Zm0 0"/></clipPath><clipPath id="h"><path d="M199 76h18.75781v26H199Zm0 0"/></clipPath><clipPath id="j"><path d="M22 6h2v136.0586h-2Zm0 0"/></clipPath><clipPath id="k"><path d="M5.46484.39453h211.89844V136H5.46484Zm0 0"/></clipPath><clipPath id="n"><path d="M111 0h1v142.0586h-1Zm0 0"/></clipPath></defs><g clip-path="url(#a)"><path fill="none" stroke="#000" stroke-miterlimit="10" stroke-opacity=".5" stroke-width=".39719" d="M5.46485 124.0039h211.89837M5.46485 88.6875h211.89837M5.46485 53.3711h211.89837M5.46485 18.0547h211.89837M23.1211 141.66406V.39455m35.3164 141.2695V.39455m35.3164 141.2695V.39455m35.3164 141.2695V.39455m35.3203 141.2695V.39455m35.31639 141.2695V.39455"/></g><path fill="none" stroke="#000" stroke-miterlimit="10" stroke-opacity=".5" stroke-width=".39719" d="M23.1211 79.85938v17.65624"/><use xlink:href="#b" x="7.97951" y="104.55648" fill-opacity=".5"/><path fill="none" stroke="#000" stroke-miterlimit="10" stroke-opacity=".5" stroke-width=".39719" d="M58.43749 79.85938v17.65624"/><use xlink:href="#c" x="55.65696" y="101.08595" fill-opacity=".5"/><path fill="none" stroke="#000" stroke-miterlimit="10" stroke-opacity=".5" stroke-width=".39719" d="M93.75388 79.85938v17.65624"/><use xlink:href="#d" x="90.97325" y="101.08595" fill-opacity=".5"/><path fill="none" stroke="#000" stroke-miterlimit="10" stroke-opacity=".5" stroke-width=".39719" d="M129.07028 79.85938v17.65624"/><use xlink:href="#e" x="126.28955" y="101.02416" fill-opacity=".5"/><path fill="none" stroke="#000" stroke-miterlimit="10" stroke-opacity=".5" stroke-width=".39719" d="M164.39058 79.85938v17.65624"/><use xlink:href="#f" x="161.60584" y="101.02416" fill-opacity=".5"/><path fill="none" stroke="#000" stroke-miterlimit="10" stroke-opacity=".5" stroke-width=".39719" d="M199.70698 79.85938v17.65624"/><use xlink:href="#g" x="196.92213" y="100.96336" fill-opacity=".5"/><path fill="none" stroke="#000" stroke-miterlimit="10" stroke-width=".79439" d="M5.46485 88.6875h205.74213"/><path d="M215.35938 88.6875c-.51172-.10547-2.75-.70703-4.15235-1.35937v2.71874c1.40234-.65234 3.64063-1.2539 4.15234-1.35937m0 0"/><g clip-path="url(#h)"><path fill="none" stroke="#000" stroke-miterlimit="10" stroke-width=".79439" d="M215.35937 88.6875c-.51171-.10547-2.75-.70703-4.15234-1.35937v2.71874c1.40234-.65234 3.64063-1.2539 4.15234-1.35937Zm0 0"/></g><path fill="none" stroke="#000" stroke-miterlimit="10" stroke-opacity=".5" stroke-width=".39719" d="M31.94922 124.0039H14.29297"/><g fill-opacity=".5"><use xlink:href="#i" x="4.20399" y="127.57342"/><use xlink:href="#c" x="11.75563" y="127.57342"/></g><path fill="none" stroke="#000" stroke-miterlimit="10" stroke-opacity=".5" stroke-width=".39719" d="M31.94922 53.3711H14.29297"/><use xlink:href="#c" x="7.97951" y="56.94083" fill-opacity=".5"/><path fill="none" stroke="#000" stroke-miterlimit="10" stroke-opacity=".5" stroke-width=".39719" d="M31.94922 18.0547H14.29297"/><use xlink:href="#d" x="7.97951" y="21.62454" fill-opacity=".5"/><g clip-path="url(#j)"><path fill="none" stroke="#000" stroke-miterlimit="10" stroke-width=".79439" d="M23.1211 141.66405V6.5508"/></g><path stroke="#000" stroke-miterlimit="10" stroke-width=".79439" d="M23.1211 2.40235c-.10548.5078-.70704 2.75-1.35938 4.14843h2.71875c-.65235-1.39844-1.2539-3.64062-1.35938-4.14843Zm0 0"/><g clip-path="url(#k)"><path fill="none" stroke="#007F7F" stroke-miterlimit="10" stroke-width=".79439" d="M5.46485-193.84757s6.3789 37.29295 8.82812 50.76951 6.3789 34.10156 8.82812 46.35155S29.5-65.81245 31.94922-54.7851c2.45312 11.02343 6.3789 27.72264 8.83202 37.52342 2.44922 9.80078 6.3789 24.53515 8.82813 33.10937 2.44922 8.57421 6.3789 21.34374 8.82812 28.6953 2.44922 7.34766 6.3789 18.15234 8.82812 24.27734 2.45313 6.1289 6.38281 14.96874 8.83203 19.86718 2.44922 4.90234 6.3789 11.77734 8.82812 15.45312 2.44922 3.67187 6.3789 8.58594 8.82812 11.03515 2.45313 2.44922 6.3789 5.39844 8.83203 6.6211 2.44922 1.22656 6.3789 2.20703 8.82813 2.20703 2.44921 0 6.3789-.98047 8.82812-2.20703 2.44922-1.22266 6.3789-4.17188 8.82812-6.6211 2.45312-2.44921 6.3789-7.36328 8.83203-11.03515 2.44922-3.67578 6.3789-10.55078 8.82812-15.45312 2.44922-4.89844 6.3789-13.73828 8.82812-19.86718 2.44922-6.125 6.3789-16.92968 8.83203-24.27734 2.44922-7.35156 6.3789-20.12109 8.82813-28.6953 2.44921-8.57422 6.3789-23.30859 8.82812-33.10937s6.3789-26.49999 8.82812-37.52342c2.45312-11.02734 6.3789-29.6914 8.83203-41.9414 2.44922-12.25 6.3789-32.87499 8.82812-46.35155s8.82812-50.76951 8.82812-50.76951"/></g><use xlink:href="#l" x="136.98919" y="124.10189" fill="#007F7F"/><use xlink:href="#m" x="146.50898" y="126.83287" fill="#007F7F"/><g clip-path="url(#n)"><path fill="none" stroke="#FF7F00" stroke-miterlimit="10" stroke-width=".79439" d="M111.41404 141.66405V.39455"/></g><g fill="#FF7F00"><use xlink:href="#o" x="65.27318" y="25.67167"/><use xlink:href="#p" x="68.97204" y="25.67167"/><use xlink:href="#q" x="71.80204" y="25.67167"/></g><g fill="#FF7F00"><use xlink:href="#r" x="76.1029" y="25.67167"/><use xlink:href="#q" x="79.59075" y="25.67167"/></g><g fill="#FF7F00"><use xlink:href="#s" x="83.89781" y="25.67167"/><use xlink:href="#t" x="86.43612" y="25.67167"/><use xlink:href="#u" x="89.38404" y="25.67167"/><use xlink:href="#v" x="94.76476" y="25.67167"/><use xlink:href="#w" x="97.76233" y="25.67167"/><use xlink:href="#x" x="99.76691" y="25.67167"/></g><g fill="#FF7F00"><use xlink:href="#y" x="102.0818" y="25.67167"/><use xlink:href="#q" x="103.77608" y="25.67167"/></g><use xlink:href="#z" x="74.92379" y="33.11955" fill="#FF7F00"/><use xlink:href="#A" x="79.94456" y="33.11955" fill="#FF7F00"/><use xlink:href="#z" x="86.84564" y="29.28099" fill="#FF7F00"/><use xlink:href="#B" x="90.40139" y="30.96293" fill="#FF7F00"/><g fill="#FF7F00"><use xlink:href="#C" x="93.9696" y="29.28099"/><use xlink:href="#z" x="98.16495" y="29.28099"/></g><use xlink:href="#D" x="101.72148" y="30.96293" fill="#FF7F00"/><path fill="none" stroke="#FF7F00" stroke-miterlimit="10" stroke-width=".34137" d="M86.84375 31.47656h18.44531"/><use xlink:href="#D" x="94.4692" y="35.95269" fill="#FF7F00"/><use xlink:href="#E" x="71.90128" y="91.58634" fill="#EC008C"/><use xlink:href="#F" x="70.08926" y="81.57244" fill="#EC008C"/><use xlink:href="#G" x="76.95408" y="84.30217" fill="#EC008C"/><use xlink:href="#E" x="142.53386" y="91.58634" fill="#EC008C"/><use xlink:href="#F" x="140.72185" y="81.57244" fill="#EC008C"/><use xlink:href="#H" x="147.58667" y="84.30217" fill="#EC008C"/></svg>