<svg xmlns="http://www.w3.org/2000/svg" xmlns:xlink="http://www.w3.org/1999/xlink" width="319.694pt" height="196.198pt" viewBox="0 0 319.694 196.198"><defs><path id="b" d="M1.60938-4.78125H12v-1.10937H1.60938Zm0 0"/><path id="c" d="M.5-.1875.70313 0h7.8125l.64062-2.48437-.51562-.10938c-.40625 1.03125-.78125 1.17188-1.54688 1.17188H2.26563c.3125-.98438 1.4375-2.32813 3.1875-3.59375C7.25-6.34375 8.65625-7.1875 8.65625-9.29687c0-2.64063-1.75-3.54688-3.73437-3.54688C2.32813-12.84375 1-11.26562 1-10.28125c0 .64063.73438.9375 1.04688.9375.34375 0 .46875-.20312.54687-.51562.29688-1.29688 1.04688-2.3125 2.20313-2.3125 1.45312 0 1.875 1.20312 1.875 2.59375C6.67188-7.5625 5.64063-6.40625 4-4.96875 1.67188-2.9375.85938-1.64062.5-.1875m0 0"/><path id="d" d="M2.04688 0h6.21875v-.54687L6.67188-.6875c-.40625-.03125-.625-.17187-.625-.92187v-11.125l-.09375-.10938-3.90625.67188v.45312L3.8125-11.5c.32813.04688.45313.1875.45313.73438v9.15625c0 .75-.1875.89062-.625.92187l-1.59375.14063Zm0 0"/><path id="e" d="M.78125-6.3125C.78125-2.53125 1.89063.21875 5 .21875c3.125 0 4.25-2.75 4.25-6.53125S8.125-12.84375 5-12.84375c-3.10937 0-4.21875 2.75-4.21875 6.53125m1.90625 0c0-3.07812.53125-5.85937 2.3125-5.85937 1.79688 0 2.3125 2.78125 2.3125 5.85937S6.79688-.4375 5-.4375c-1.78125 0-2.3125-2.79687-2.3125-5.875m0 0"/><path id="i" d="M.76563-1.125c0 .625.28124 1.25 1.01562 1.25 1.17188 0 2.0625-1.28125 2.64063-2.3125h.04687l-.3125 1.07813c-.07812.23437-.10937.42187-.10937.59375 0 .42187.21875.64062.65625.64062.875 0 1.5-.75 1.89062-1.59375L6.3125-1.625c-.21875.42188-.64062 1.0625-.92187 1.0625-.125 0-.17188-.07812-.17188-.20312 0-.07813.03125-.1875.0625-.32813L6.375-5.17187H5.23438l-.04688.10937c-.17187-.125-.48437-.20312-.76562-.20312-2.48438 0-3.65625 2.75-3.65625 4.14062m1.28125-.04687c0-1.125 1-3.67188 2.4375-3.67188.23437 0 .4375.0625.57812.1875C4.875-3.875 4.5-2.85937 3.96875-2.01562 3.40625-1.15625 2.85938-.5625 2.4375-.5625c-.29687 0-.39062-.25-.39062-.60937m0 0"/><path id="j" d="M.4375 1c0 1.0625 1.0625 1.53125 2.28125 1.53125.60938 0 1.28125-.125 1.78125-.42187.46875-.29688.82813-.79688.82813-1.4375 0-1.14063-.90625-1.53125-2.03125-1.53125h-.82813c-.76562 0-.875-.25-.875-.45313 0-.3125.40625-.46875.53125-.51562.20313.01562.4375.03124.54688.03124.98437 0 2.10937-.4375 2.10937-1.70312 0-.4375-.14062-.8125-.3125-.98437l.82813-.14063.21875-.65625-.09375-.07812-1.34375.42187c-.28125-.20312-.875-.32812-1.35938-.32812C1.10938-5.26562.5625-4.28125.5625-3.5c0 .98438.64063 1.4375 1.125 1.5625v.01563c-.57812.21874-.96875.53125-.96875.9375 0 .375.4375.76562.9375.8125v.03124C1.20313 0 .4375.25.4375 1m1-.04687c0-.34375.10938-.625.32813-.78125.23437-.1875.57812-.25 1.07812-.25.92188 0 1.60938.23437 1.60938 1.01562 0 .84375-.76563 1.23438-1.51563 1.23438-.89062 0-1.5-.45313-1.5-1.21875M1.625-3.5c0-1.04687.54688-1.39062 1.09375-1.39062.51563 0 1.04688.375 1.04688 1.39062 0 .875-.4375 1.32813-1.04688 1.32813C2.125-2.17187 1.625-2.625 1.625-3.5m0 0"/><path id="k" d="M.32813 0h2.76562v-.29687c-.92187-.0625-.98437-.07813-.98437-.625V-3.375c0-.79687.35937-1.07812.60937-1.07812.15625 0 .34375.0625.64063.23437.07812.04688.15625.0625.20312.0625.26563 0 .48438-.26562.48438-.59375 0-.23437-.14063-.51562-.5625-.51562-.375 0-.6875.21875-1.375.84375l-.125-.84375L.39063-5v.26563l.39062.04687c.26563.04688.34375.09375.34375.46875v3.29688c0 .54687-.04687.5625-.79687.625Zm0 0"/><path id="l" d="M.51563-1.35937c0 .78125.51562 1.48437 1.5 1.48437.625 0 1.23437-.40625 1.5625-.625.14062.39063.32812.625.6875.625.39062 0 .84375-.10937 1.25-.3125l-.07813-.25c-.14062.03125-.375.04688-.53125 0-.1875-.04687-.35937-.23437-.35937-.89062V-3.875c0-.60937-.14063-1.39062-1.71875-1.39062-1.1875 0-2.125.60937-2.125 1.1875 0 .34375.39062.5.59375.5.21874 0 .28124-.10938.32812-.29688.23438-.78125.65625-1.01562 1.09375-1.01562.40625 0 .875.20312.875 1.04687v.4375c-.26562.26563-1.28125.53125-2.10937.79688-.76563.23437-.96875.75-.96875 1.25M1.57813-1.5c0-.5.21874-.75.8125-.98437.42187-.15625.96875-.34375 1.20312-.5V-1.5c0 .85938-.65625 1.0625-1.0625 1.0625-.64062 0-.95312-.45312-.95312-1.0625m0 0"/><path id="m" d="M.32813 0h2.5625v-.29687c-.75-.0625-.78125-.07813-.78125-.625V-3.375c0-.26562.01562-.39062.09375-.5625.23437-.40625.70312-.76562 1.25-.76562.71875 0 1.10937.39062 1.10937 1.3125v2.46875c0 .54687-.03125.5625-.79687.625V0h2.57812v-.29687c-.75-.0625-.79687-.07813-.79687-.625v-2.67188c0-1.0625-.57813-1.67187-1.54688-1.67187-.78125 0-1.25.375-1.90625.79687l-.14062-.79687L.39063-5v.26563l.39062.04687c.26563.04688.34375.09375.34375.46875v3.29688c0 .54687-.03125.5625-.79687.625Zm0 0"/><path id="n" d="M.51563-2.46875C.51563-.92187 1.32813.125 2.71875.125c.5625 0 1.04688-.26562 1.60938-.71875v.51563L4.42188 0h1.6875v-.29687c-.75-.0625-.78125-.07813-.78125-.625v-6.79688L5.25-7.78125l-1.64062.26563V-7.25L4-7.21875c.26563.03125.34375.09375.34375.48438v1.71875c-.29687-.15625-.6875-.25-1.17187-.25-.84375 0-1.5.28125-1.9375.71875C.79688-4.07812.51563-3.375.51563-2.46875m1.09375-.125c0-1.35937.48437-2.29687 1.5625-2.29687.48437 0 .89062.21875 1.07812.65625.09375.17187.09375.32812.09375.60937v1.84375c0 .23438 0 .40625-.07812.59375-.20313.54688-.65625.75-1.20313.75-.96875 0-1.45312-.95312-1.45312-2.15625m0 0"/><path id="p" d="M.26563 2.10938v.29687h2.71875v-.29687c-.89063-.0625-.95313-.07813-.95313-.60938V-.10937C2.25.01563 2.75.125 3.23438.125c1.42187 0 2.625-.65625 2.625-2.8125 0-.75-.14063-2.57812-2.04688-2.57812-.76562 0-1.375.51562-1.78125.78125l-.14062-.78125L.3125-5v.26563l.40625.04687c.26563.04688.32813.09375.32813.46875V1.5c0 .53125-.04688.54688-.78125.60938m1.76562-3.76563V-3.375c0-.26562.0625-.39062.14063-.57812.25-.48438.6875-.75 1.23437-.75.4375 0 1.375.28125 1.375 2.07812 0 1.54688-.5 2.375-1.54687 2.375-.54688 0-.95313-.28125-1.125-.75-.0625-.1875-.07813-.40625-.07813-.65625m0 0"/><path id="q" d="M.51563-2.53125C.51563-.875 1.23438.125 2.9375.125c1.15625 0 1.76563-.65625 2.03125-1.46875l-.3125-.17187C4.375-.90625 3.96875-.40625 3.14063-.40625c-1.29688 0-1.5625-1.25-1.53125-2.34375H4.625c.23438 0 .42188-.0625.42188-.40625 0-.60937-.20313-2.10937-2.125-2.10937-1.64063 0-2.40625 1.15625-2.40625 2.73437m1.10937-.625c0-.4375.15625-1.73437 1.23438-1.73437.98437 0 1.09375.98437 1.09375 1.40625 0 .1875-.07813.32812-.35938.32812Zm0 0"/><path id="r" d="M.32813-4.71875h.75v3.64063C1.07813 0 1.875.125 2.25.125c.53125 0 1.03125-.26562 1.32813-.45312L3.5-.5625c-.25.10938-.48437.14063-.75.14063-.34375 0-.6875-.26563-.6875-1.04688v-3.25h1.34375v-.42187H2.0625v-1.3125h-.29687L1.125-5.14062H.32813Zm0 0"/><path id="s" d="M.95313-6.85937c0 .375.28124.64062.65625.64062.375 0 .64062-.26562.64062-.64062S1.98438-7.5 1.60938-7.5s-.65625.26563-.65625.64063M.32813 0h2.5625v-.29687c-.75-.0625-.78125-.07813-.78125-.625v-4.28125l-.07813-.0625L.39063-5v.26563l.39062.04687c.26563.04688.34375.09375.34375.46875v3.29688c0 .54687-.03125.5625-.79687.625Zm0 0"/><clipPath id="a"><path d="M.5 0h318.39063v192H.5Zm0 0"/></clipPath><clipPath id="f"><path d="M.5 158H313v2H.5Zm0 0"/></clipPath><clipPath id="g"><path d="M301 146h17.89063v26H301Zm0 0"/></clipPath><clipPath id="h"><path d="M.89453.39453H318.4961V171H.89453Zm0 0"/></clipPath><clipPath id="o"><path d="M.89453.39453H318.4961V171H.89453Zm0 0"/></clipPath></defs><g clip-path="url(#a)"><path fill="none" stroke="#000" stroke-miterlimit="10" stroke-opacity=".5" stroke-width=".39688" d="M.89452 159.19531H318.4961M.89452 95.67578H318.4961M.89452 32.15624H318.4961M32.65234 190.95704V.39451m63.52344 190.56251V.39452m63.51953 190.56251V.39452m63.51954 190.56251V.39452m63.51953 190.56251V.39452"/></g><path fill="none" stroke="#000" stroke-miterlimit="10" stroke-opacity=".5" stroke-width=".39688" d="M32.65234 143.3164v31.76173"/><g fill-opacity=".5"><use xlink:href="#b" x="20.86113" y="181.4961"/><use xlink:href="#c" x="34.44348" y="181.4961"/></g><path fill="none" stroke="#000" stroke-miterlimit="10" stroke-opacity=".5" stroke-width=".39688" d="M96.17578 143.3164v31.76173"/><g fill-opacity=".5"><use xlink:href="#b" x="84.38048" y="181.4961"/><use xlink:href="#d" x="97.96283" y="181.4961"/></g><path fill="none" stroke="#000" stroke-miterlimit="10" stroke-opacity=".5" stroke-width=".39688" d="M223.21485 143.3164v31.76173"/><use xlink:href="#d" x="218.21142" y="181.4961" fill-opacity=".5"/><path fill="none" stroke="#000" stroke-miterlimit="10" stroke-opacity=".5" stroke-width=".39688" d="M286.73438 143.3164v31.76173"/><use xlink:href="#c" x="281.73177" y="181.4961" fill-opacity=".5"/><path fill="none" stroke="#000" stroke-miterlimit="10" stroke-opacity=".5" stroke-width=".39688" d="M175.57422 95.67578h-31.75781"/><use xlink:href="#d" x="132.45995" y="102.09566" fill-opacity=".5"/><path fill="none" stroke="#000" stroke-miterlimit="10" stroke-opacity=".5" stroke-width=".39688" d="M175.57422 32.15624h-31.75781"/><use xlink:href="#c" x="132.45995" y="38.57631" fill-opacity=".5"/><path fill="none" stroke="#000" stroke-miterlimit="10" stroke-opacity=".5" stroke-width=".39688" d="M159.69531 143.3164v31.76173"/><use xlink:href="#e" x="132.45995" y="187.73758" fill-opacity=".5"/><g clip-path="url(#f)"><path fill="none" stroke="#000" stroke-miterlimit="10" stroke-width=".79377" d="M.89452 159.19531h311.44924"/></g><path d="M316.49219 159.19531c-.50781-.10547-2.75-.70312-4.14844-1.35937v2.71875c1.39844-.65235 3.64063-1.2539 4.14844-1.35938m0 0"/><g clip-path="url(#g)"><path fill="none" stroke="#000" stroke-miterlimit="10" stroke-width=".79377" d="M316.49219 159.19531c-.50781-.10547-2.75-.70312-4.14844-1.35937v2.71875c1.39844-.65235 3.64063-1.2539 4.14844-1.35938Zm0 0"/></g><path fill="none" stroke="#000" stroke-miterlimit="10" stroke-width=".79377" d="M159.69531 190.95703V6.54686"/><path stroke="#000" stroke-miterlimit="10" stroke-width=".79377" d="M159.69531 2.39844c-.10547.51172-.70703 2.75-1.35937 4.14843h2.71875c-.65235-1.39843-1.2539-3.63671-1.35938-4.14843Zm0 0"/><g clip-path="url(#h)"><path fill="none" stroke="#007F7F" stroke-miterlimit="10" stroke-width=".79377" d="M-62.62892-1397.0587s13.38672 182.58595 18.52734 248.55861c5.14063 65.97657 13.38672 166.97267 18.52735 226.94924 5.14062 59.97656 13.38281 151.35157 18.52344 205.33204 5.14453 53.98047 13.38672 135.7383 18.52734 183.72267 5.14063 47.98438 13.38672 120.1211 18.52735 162.10548 5.14062 41.98828 13.38281 104.50782 18.52734 140.4961 5.14063 35.98829 13.38282 88.89063 18.52344 118.88282C72.19531-81.02345 80.4414-37.73829 85.58203-13.7461s13.38672 57.66016 18.52734 75.65626c5.14063 17.9961 13.38281 42.04297 18.52344 54.04297 5.14453 11.9961 13.38672 26.4297 18.52735 32.4297s13.38672 10.8125 18.52734 10.8125c5.14063.0039 13.38281-4.80079 18.52734-10.79688 5.14063-5.9961 13.38282-20.41797 18.52344-32.41016 5.14063-11.9922 13.38672-36.03516 18.52735-54.02344 5.14062-17.9922 13.38672-51.64844 18.52734-75.63673 5.14063-23.98828 13.38282-67.26563 18.52344-97.25 5.14063-29.98438 13.38672-82.88282 18.52735-118.8633 5.14062-35.98437 13.38672-98.4961 18.52734-140.47656 5.14063-41.98048 13.38282-114.1133 18.52735-162.08986 5.14062-47.97656 13.38281-129.72657 18.52344-183.70314 5.14062-53.97656 13.38672-145.34376 18.52734-205.31642 5.14063-59.97266 13.38672-160.95704 18.52735-226.9297C368.6172-1214.26962 382-1396.84385 382-1396.84385"/></g><use xlink:href="#i" x="180.38106" y="23.89831" fill="#007F7F"/><g fill="#007F7F"><use xlink:href="#j" x="189.77915" y="23.89831"/><use xlink:href="#k" x="195.22637" y="23.89831"/></g><g fill="#007F7F"><use xlink:href="#l" x="199.21132" y="23.89831"/><use xlink:href="#m" x="204.69204" y="23.89831"/><use xlink:href="#n" x="211.17736" y="23.89831"/></g><g fill="none" stroke-miterlimit="10" stroke-width=".79377" clip-path="url(#o)"><path stroke="#000" d="M-62.62892-618.93365s13.38672 91.29298 18.52734 124.28126c5.14063 32.98829 13.38672 83.48438 18.52735 113.47657 5.14062 29.98829 13.38281 75.67579 18.52344 102.66407 5.14453 26.9922 13.38672 67.8711 18.52734 91.86329 5.14063 23.98828 13.38672 60.0586 18.52735 81.05079 5.14062 20.99218 13.38281 52.2539 18.52734 70.25 5.14063 17.99219 13.38282 44.44532 18.52344 59.4375 5.14063 14.9961 13.38672 36.64063 18.52735 48.63673s13.38672 28.82812 18.52734 37.82812c5.14063 8.9961 13.38281 21.01954 18.52344 27.01954 5.14453 6 13.38672 13.21484 18.52735 16.21484s13.38672 5.40625 18.52734 5.40625c5.14063.0039 13.38281-2.39844 18.52734-5.39844 5.14063-2.99609 13.38282-10.20703 18.52344-16.20312 5.14063-5.9961 13.38672-18.01953 18.52735-27.01172 5.14062-8.9961 13.38672-25.82422 18.52734-37.82032 5.14063-11.99219 13.38282-33.63281 18.52344-48.625s13.38672-41.44141 18.52735-59.4336c5.14062-17.98828 13.38672-49.2461 18.52734-70.23438 5.14063-20.99219 13.38282-57.0586 18.52735-81.04688 5.14062-23.98828 13.38281-64.86328 18.52344-91.85157 5.14062-26.98828 13.38672-72.67188 18.52734-102.65625 5.14063-29.98829 13.38672-80.48048 18.52735-113.46485C368.6172-527.53911 382-618.82427 382-618.82427"/><path stroke="#FF7F00" d="M-62.62892-74.2461s13.38672 27.39062 18.52734 37.28515c5.14063 9.89844 13.38672 25.04688 18.52735 34.04297 5.14062 8.9961 13.38281 22.70313 18.52344 30.80078 5.14453 8.09766 13.38672 20.36329 18.52734 27.5586 5.14063 7.19922 13.38672 18.01953 18.52735 24.3164s13.3828 15.6758 18.52734 21.07424c5.14063 5.39844 13.38282 13.33594 18.52344 17.83203 5.14063 4.5 13.38672 10.99219 18.52735 14.58984 5.14062 3.60157 13.38672 8.65235 18.52734 11.35157 5.14063 2.69922 13.38281 6.30469 18.52344 8.10547 5.14453 1.79687 13.38672 3.96484 18.52735 4.86328 5.14062.90234 13.38672 1.6211 18.52734 1.6211 5.14063 0 13.38281-.71876 18.52734-1.6172 5.14063-.89843 13.38282-3.0625 18.52344-4.86328 5.14063-1.79687 13.38672-5.40625 18.52735-8.10156 5.14062-2.69922 13.38672-7.75 18.52734-11.34766 5.14063-3.59765 13.38282-10.08984 18.52344-14.58594 5.14063-4.49609 13.38672-12.43359 18.52735-17.83203 5.14062-5.39453 13.38672-14.77344 18.52734-21.07031 5.14063-6.29688 13.38282-17.11719 18.52735-24.3125 5.14062-7.19532 13.38281-19.45704 18.52344-27.5547 5.14062-8.09765 13.38672-21.80468 18.52734-30.80078 5.14063-8.99609 13.38672-24.14062 18.52735-34.03906C368.6172-46.82423 382-74.21095 382-74.21095"/></g><use xlink:href="#i" x="231.77896" y="142.48058" fill="#FF7F00"/><g fill="#FF7F00"><use xlink:href="#p" x="241.17929" y="142.48058"/><use xlink:href="#q" x="247.55298" y="142.48058"/><use xlink:href="#r" x="252.94439" y="142.48058"/><use xlink:href="#s" x="256.54983" y="142.48058"/><use xlink:href="#r" x="259.59715" y="142.48058"/></g></svg>