<svg xmlns="http://www.w3.org/2000/svg" xmlns:xlink="http://www.w3.org/1999/xlink" width="810.312pt" height="127.944pt" viewBox="0 0 810.312 127.944"><defs><path id="h" d="M-.21875-13.76562c1.0625.04687 1.3125.17187 1.60938 1.0625L5.625 0h2.65625l2.51563-7.34375c.78125-2.3125 1.51562-4.34375 1.82812-5.17187.42188-1.01563.60938-1.17188 1.79688-1.25v-.78125H9.53125v.78125l1.1875.10937c.4375.04688.46875.25.35938.6875-.20313.70313-.67188 2.4375-1.29688 4.39063-.42187 1.28125-1.34375 4.375-1.71875 5.4375h-.10937l-3.15625-9.75c-.14063-.45313-.125-.71875.375-.76563l1.01562-.10937v-.78125H-.21875Zm0 0"/><path id="i" d="M1-2.82812C1-1.25 2.01563.25 4.14063.25c1.34375 0 2.28125-.71875 3.03125-1.21875C7.4375-.3125 7.8125.25 8.82813.25c1.09375 0 2.39062-.35937 3.07812-.625l-.01562-.70312c-.26563.03124-.73438 0-1.04688-.10938-.28125-.09375-.67187-.32812-.67187-1.5625v-4.85937c0-1.32813-.1875-2.95313-3.90625-2.95313-3.09375 0-5.01563 1.21875-5.01563 2.59375 0 .92188 1.34375 1.3125 1.89063 1.3125.46875 0 .6875-.32812.89062-.84375.57813-1.79687 1.28125-2.10937 1.85938-2.10937.60937 0 1.1875.35937 1.1875 1.57812v1.10938c-.73438.51562-2.48438 1.01562-3.85938 1.48437C1.5625-4.85937 1-4.03125 1-2.82812m3.20313-.32813c0-.98437.35937-1.48437.98437-1.84375.65625-.34375 1.375-.64062 1.89063-.85937v3.03125c-.04688 1.15625-.70313 1.4375-1.28125 1.4375-.82813 0-1.59375-.64063-1.59375-1.76563m0 0"/><path id="j" d="M.51563 0h5.90625v-.8125C5.21875-.875 5.07813-.96875 5.07813-1.84375v-13.625l-.17188-.14062-4.23437.5625v.76562l.71875.10938c.32812.0625.48437.25.48437 1.09375v11.23437c0 .875-.15625.96875-1.35937 1.03125Zm0 0"/><path id="k" d="M.82813-5.15625c0 2.875 1.25 5.40625 5.15625 5.40625 2.5 0 3.875-1.21875 4.57812-3.07812l-.75-.42188c-.625 1.21875-1.53125 1.89063-2.79687 1.89063-2.10938 0-2.84375-1.73438-2.84375-3.95313H9.625c.76563 0 1.125-.20312 1.125-.875 0-1.71875-.67187-4.375-4.73437-4.375-3.78125 0-5.1875 2.45313-5.1875 5.40625M4.17188-6.3125c0-1.53125.39062-3.29687 1.76562-3.29687 1.26563 0 1.5 1.60937 1.5 2.59375 0 .59375-.15625.70312-.65625.70312Zm0 0"/><path id="l" d="m.625-9.20312.73438.10937c.34375.04688.48437.20313.48437 1.0625v5.125C1.84375-.45312 3.35938.25 4.875.25c1.79688 0 2.89063-.96875 3.75-1.4375L8.79688 0h4.375v-.8125c-1.21875-.0625-1.34375-.15625-1.34375-1.03125v-8.59375l-.1875-.125-4.25.59375v.76563l.73437.10937c.34375.04688.5.20313.5 1.0625v4.45313c0 .35937-.03125.875-.15625 1.1875-.20312.48437-.76562.98437-1.6875.98437-1.10937 0-1.76562-.65625-1.76562-2.28125v-6.75l-.15625-.125L.625-9.96875Zm0 0"/><path id="m" d="M.67188 0h6.35937v-.8125C5.42188-.89062 5.1875-.96875 5.1875-1.84375v-4.67187c0-1.09375.20313-1.60938.71875-1.60938.34375 0 .65625.17188 1.125.4375.26563.20313.5625.34375.96875.34375.42188 0 .84375-.21875 1.0625-.53125.23438-.3125.34375-.75.34375-1.21875 0-.89062-.57812-1.46875-1.45312-1.46875s-1.54688.57813-2.78125 1.85938L4.875-10.5625l-4.09375.59375v.76563l.73438.10937c.34375.04688.51562.20313.51562 1.0625v6.1875c0 .875-.15625.96875-1.35937 1.03125Zm0 0"/><path id="n" d="M.82813-4.96875C.82813-1.90625 2.42188.25 5.07813.25c.78125 0 1.90625-.40625 3.04687-1.29687V0h4.53125v-.8125c-1.21875-.0625-1.375-.15625-1.375-1.03125v-13.625l-.125-.14062-4.28125.5625v.76562l.73438.10938c.34375.0625.51562.25.51562 1.09375v2.78125c-.46875-.20313-1.07812-.26563-1.78125-.26563-1.57812 0-2.98437.46875-3.95312 1.35938C1.40625-8.28125.82813-6.875.82813-4.96875m3.34375-.42187c0-3.09375 1.15625-4.21875 2.34375-4.21875.8125 0 1.23437.42187 1.4375.85937.20312.3125.17187.75.17187 1.20313v4.34375c0 .85937-.3125 1.84375-1.65625 1.84375-1.35937 0-2.29687-1.34375-2.29687-4.03125m0 0"/><path id="p" d="M1.59375-13.32812c0 1.01562.71875 1.85937 1.90625 1.85937 1.15625 0 1.96875-.84375 1.96875-1.85937 0-.98438-.76562-1.82813-1.96875-1.82813-1.1875 0-1.90625.84375-1.90625 1.82813M.67188 0h5.9375v-.8125C5.39063-.875 5.1875-.96875 5.1875-1.84375v-8.59375l-.10937-.125-4.29688.59375v.76563l.73438.10937c.34375.04688.51562.20313.51562 1.0625v6.1875c0 .875-.15625.96875-1.35937 1.03125Zm0 0"/><path id="q" d="M.78125-9.26562h1.23438v6.79687C2.01563-.53125 3.42188.25 4.60938.25c.875 0 2.17187-.39062 3.35937-1.125L7.75-1.54687c-.29687.14062-.71875.21874-1.1875.21874-.8125 0-1.375-.59374-1.375-1.9375v-6h2.20313v-1.0625H5.1875v-2.64062H3.98438L2.125-10.32812H.78125Zm0 0"/><path id="r" d="M.82813-5.15625C.82813-1.79687 2.4375.25 6.26563.25s5.46875-2.04687 5.46875-5.40625-1.64063-5.40625-5.46875-5.40625S.82813-8.51562.82813-5.15625m3.34375 0c0-2.8125.59375-4.45312 2.09375-4.45312S8.375-7.96875 8.375-5.15625c0 2.82813-.60937 4.4375-2.10937 4.4375s-2.09375-1.60937-2.09375-4.4375m0 0"/><path id="s" d="M.67188 0H6.3125v-.8125l-.40625-.03125c-.4375-.04687-.71875-.125-.71875-.8125v-5.01562c0-.46875.09375-.9375.25-1.23438.26563-.53125.82813-1.04687 1.70313-1.04687 1.07812 0 1.64062.67187 1.6875 1.92187v5.375c0 .6875-.23438.76563-.67188.8125l-.45312.03125V0H13.375v-.8125c-1.21875-.0625-1.39062-.15625-1.39062-1.03125v-5.48437C11.95313-9.29687 11-10.5625 8.82813-10.5625c-1.23438 0-2.25.625-3.64063 1.45313l-.26562-1.45313-4.14063.59375v.76563l.73438.10937c.34375.04688.51562.20313.51562 1.0625v6.1875c0 .875-.15625.96875-1.35937 1.03125Zm0 0"/><path id="t" d="m.92188-3.89062.25 3.125C1.96875-.01562 3.5625.25 4.75.25c2.57813 0 4.3125-1.125 4.3125-3.40625 0-1.8125-1.15625-2.6875-3.07812-3.42187C4.75-7.03125 3.84375-7.51562 3.84375-8.375c0-.64062.48438-1.23437 1.34375-1.23437 1.07813 0 1.98438.98437 2.375 2.57812h.79688v-2.79687c-.875-.53125-2.0625-.73438-3.17188-.73438-2.5625 0-4.15625 1.20313-4.15625 3.32813 0 1.54687 1.23438 2.53125 3.09375 3.21875C5.1875-3.625 6.25-3 6.25-2c0 .8125-.54687 1.28125-1.45312 1.28125-1.39063 0-2.53125-1.45312-3.07813-3.17187Zm0 0"/><path id="o" d="M.67188-.82812c0 .60937.5 1.07812 1.34375 1.07812C3.45313.25 4.25-1.1875 5.125-2.59375l.85938-1.39062h.03125l.39062 1.65625C6.8125-.65625 7.1875.25 8.26563.25c1.54687 0 2.34375-1.59375 2.96875-2.875l-.53125-.28125c-.51563.9375-1.09375 2.0625-1.6875 2.0625-.39063 0-.54688-.48437-1.01563-2.35937l-.67187-2.75c.75-1.34375 1.82812-3.03125 2.4375-3.03125.625 0 .64062.34375 1.26562.34375.48438 0 .90625-.45313.90625-1.01563 0-.64062-.5-.90625-1.07812-.90625-1.125 0-2.0625 1-2.79688 2.1875l-.92187 1.4375h-.04688L6.25-10.48437l-.10937-.07813-3.46875 1.04688L2.70313-9l1.65625-.10937c.34375 0 .5.15625.70312 1.04687l.73438 3.04688-.57813 1c-.89062 1.54687-1.6875 2.65625-2.20312 2.65625-.59375 0-.75-.51563-1.42188-.51563-.54687 0-.92187.53125-.92187 1.04688m0 0"/><path id="u" d="M-.45312 3.875c.03125.6875.95312 1.20313 1.9375 1.20313 2.09375 0 3-1.70313 3.85937-5.73438l1.95313-8.85937h2.67187l.20313-.8125H7.4375l.57813-2.375c.40625-1.57813.8125-2.1875 1.39062-2.1875.5625 0 .9375.46875 1.40625 1.48437.10938.20313.26563.35938.57813.35938.4375 0 1.03125-.39063 1.03125-.92188 0-.90625-1.14063-1.64062-2.39063-1.64062-2.48437 0-3.51562 1.75-4.32812 4.53125l-.21875.75h-1.8125l-.25.8125H5.3125L2.85938 2.89063c-.23438 1.29687-.46875 1.4375-.67188 1.4375-.21875 0-.54687-.15625-1.10937-1.03125-.15626-.20313-.29688-.46875-.5625-.46875-.46875 0-.96875.51562-.96875 1.04687m0 0"/><path id="z" d="M1.79688-5.32812H13.375V-6.5625H1.79688Zm0 0"/><path id="A" d="M.32813-4.45312c0 2.5 2.5 4.67187 4.82812 4.67187 2.95313 0 4.82813-2.95312 5.1875-3.53125C10.75-2.54687 12.78125.25 16.04688.25c3.90624 0 5.01562-2.95312 5.01562-5.4375 0-2.51562-2.34375-4.5-4.67187-4.5-2.79688 0-4.32813 2-5.21876 3.23438-.82812-1.34375-2.65624-3.20313-5.57812-3.20313-3.82812 0-5.26562 2.71875-5.26562 5.20313m1.32812.0625c0-2.10938 1.48438-3.76563 3.25-3.76563 2.10938 0 3.875 2.21875 4.85938 3.79688-.8125 1.42187-2.3125 3.625-4.6875 3.625-1.51563 0-3.42188-1.75-3.42188-3.65625m10.125-1.125c.79688-1.42188 2.32813-3.1875 4.70313-3.1875 1.51562 0 3.35937 1.51562 3.35937 3.42187 0 2.125-1.14062 4.07813-3.1875 4.07813-2.17187 0-3.89062-2.42188-4.875-4.3125m0 0"/><path id="D" d="M1.79688-5.32812h5.17187v5.17187H8.1875v-5.17187h5.1875V-6.5625H8.1875v-5.17187H6.96875v5.17187H1.79688Zm0 0"/><path id="B" d="M.40625-1.5625c0 .60938.96875 1.73438 3.20313 1.73438 2.1875 0 3.54687-1.0625 3.54687-2.95313 0-2-1.73437-2.53125-2.48437-2.60937v-.0625c.79687-.14063 2.0625-.71875 2.0625-2.15625 0-1.73438-1.40625-2.40625-2.96875-2.40625-1.89063 0-2.98438 1.04687-2.98438 1.79687 0 .51563.57813.78125.82813.78125.21874 0 .34375-.14062.42187-.35937.32813-1.04688.84375-1.67188 1.64063-1.67188 1.09375 0 1.35937 1.03125 1.35937 1.82813 0 .78125-.25 1.98437-1.45312 1.98437-.67188 0-1.125-.15625-1.34375-.15625s-.29688.17188-.29688.45313.07813.45312.29688.45312.67187-.15625 1.34375-.15625c1.125 0 1.82812.9375 1.82812 2.34375C5.40625-1.01562 4.625-.375 3.625-.375c-.89062 0-1.51562-.67187-1.82812-1.625-.09376-.28125-.25-.4375-.48438-.4375-.32812 0-.90625.3125-.90625.875m0 0"/><path id="C" d="M.42188-.17187.59375 0h6.23438l.53125-2.09375-.4375-.07812c-.34375.78125-.60938.89062-1.20313.89062H1.95313c.23437-.70312 1.03125-1.70312 2.45312-2.65625 1.48438-1 2.54688-1.6875 2.54688-3.29687 0-2.0625-1.39063-2.78125-3.01563-2.78125-2.01562 0-3.15625 1.15625-3.15625 2.04687 0 .54688.60938.79688.92188.79688.28124 0 .42187-.15625.48437-.4375.23438-1.04688.79688-1.85938 1.65625-1.85938 1.03125 0 1.35938.89063 1.35938 1.96875 0 1.42188-.64063 2.35938-2.01563 3.54688C1.29688-2.32812.64063-1.26562.42188-.17187m0 0"/><path id="F" d="M.79688-2.375h2.29687v2.3125h.54688V-2.375H5.9375v-.54687H3.64063v-2.29688h-.54688v2.29688H.79688Zm0 0"/><path id="G" d="M.15625-1.98437C.15625-.85937 1.25.09375 2.29688.09375c1.3125 0 2.14062-1.3125 2.29687-1.5625.1875.32813 1.09375 1.57813 2.54688 1.57813 1.73437 0 2.21875-1.3125 2.21875-2.42188s-1.03125-2-2.07813-2c-1.23437 0-1.92187.90625-2.3125 1.45313-.375-.60938-1.1875-1.4375-2.48437-1.4375-1.70313 0-2.32813 1.21875-2.32813 2.3125m.57813.03124c0-.9375.65625-1.67187 1.45312-1.67187.92188 0 1.71875.98438 2.15625 1.6875-.35937.64063-1.03125 1.60938-2.07812 1.60938-.6875 0-1.53125-.78125-1.53125-1.625m4.5-.5c.35937-.625 1.03125-1.42187 2.09375-1.42187.67187 0 1.48437.6875 1.48437 1.53125 0 .9375-.5 1.8125-1.40625 1.8125-.96875 0-1.73437-1.07812-2.17187-1.92187m0 0"/><path id="H" d="M.79688-2.375H5.9375v-.54687H.79688Zm0 0"/><path id="I" d="M.70313 0h2.20312v-.20312L2.39063-.25c-.15625-.01562-.21875-.0625-.21875-.3125v-3.85937L2.125-4.45312l-1.40625.23437v.17188l.5625.07812c.125.03125.17188.07813.17188.28125v3.125c0 .25-.0625.29688-.21876.3125l-.53124.04688Zm0 0"/><path id="J" d="m.125-1.3125.07813.15625h1.76562V-.5c0 .20313-.07812.23438-.23437.25l-.40625.04688V0H3.125v-.20312l-.29687-.03126c-.14063-.03124-.1875-.0625-.1875-.26562v-.65625h.65625V-1.5h-.65625v-2.875h-.5625C1.4375-3.4375.73438-2.32812.125-1.3125M.65625-1.5c.375-.6875.82813-1.42187 1.3125-2.1875V-1.5Zm0 0"/><path id="K" d="m.26563-3.40625.1875.01563.0625-.14063c.09374-.17187.17187-.28125.46875-.28125h1.75c-.0625.23438-.20313.65625-.73438 1.375-.54687.76563-.92187 1.48438-.92187 2.20313 0 .26562.1875.3125.40625.3125.1875 0 .35937-.04688.35937-.29688 0-.95312.15625-1.59375.48438-2.10937.46875-.78125.79687-1.20313.98437-1.98438L3.25-4.375H.48438Zm0 0"/><clipPath id="a"><path d="M0 63h287v64.86328H0Zm0 0"/></clipPath><clipPath id="b"><path d="M0 63h288v64.86328H0Zm0 0"/></clipPath><clipPath id="c"><path d="M286 .02734h523.625V64H286Zm0 0"/></clipPath><clipPath id="d"><path d="M286 .02734h523.625V65H286Zm0 0"/></clipPath><clipPath id="e"><path d="M286 63h523.625v64.86328H286Zm0 0"/></clipPath><clipPath id="f"><path d="M0 .02734h287V64H0Zm0 0"/></clipPath><clipPath id="g"><path d="M0 .02734h288V65H0Zm0 0"/></clipPath><clipPath id="v"><path d="M0 63h809.625v2H0Zm0 0"/></clipPath><clipPath id="w"><path d="M0 127h809.625v.86328H0Zm0 0"/></clipPath><clipPath id="x"><path d="M0 .02734h809.625v127.83594H0Zm0 0"/></clipPath><clipPath id="y"><path d="M286 .02734h2v127.83594h-2Zm0 0"/></clipPath><clipPath id="E"><path d="M286 63h523.625v64.86328H286Zm0 0"/></clipPath></defs><g clip-path="url(#a)"><path fill="#FFF" d="M.19922 63.94531v63.71875H286.9375V63.94531Zm0 0"/></g><g clip-path="url(#b)"><path fill="none" stroke="#000" stroke-miterlimit="10" stroke-width=".39816" d="M.19922 63.94533v63.71878H286.9376V63.94533Zm0 0"/></g><g clip-path="url(#c)"><path fill="#FFF" d="M286.9375 63.94531V.22656h522.5v63.71875Zm0 0"/></g><g clip-path="url(#d)"><path fill="none" stroke="#000" stroke-miterlimit="10" stroke-width=".39816" d="M286.9376 63.94533V.22656h522.50017v63.71877Zm0 0"/></g><g clip-path="url(#e)"><path fill="#FFF" stroke="#000" stroke-miterlimit="10" stroke-width=".39816" d="M286.9376 63.94533v63.71878h522.50017V63.94533Zm0 0"/></g><g clip-path="url(#f)"><path fill="#FFF" d="M.19922.22656v63.71875H286.9375V.22656Zm0 0"/></g><g clip-path="url(#g)"><path fill="none" stroke="#000" stroke-miterlimit="10" stroke-width=".39816" d="M.19922.22656v63.71877H286.9376V.22656Zm0 0"/></g><use xlink:href="#h" x="85.30407" y="39.76655"/><use xlink:href="#i" x="97.59998" y="39.76655"/><use xlink:href="#j" x="109.26878" y="39.76655"/><use xlink:href="#k" x="115.98786" y="39.76655"/><use xlink:href="#l" x="127.09673" y="39.76655"/><use xlink:href="#m" x="140.55728" y="39.76655"/><use xlink:href="#n" x="157.48936" y="39.76655"/><use xlink:href="#k" x="170.41238" y="39.76655"/><use xlink:href="#o" x="188.99278" y="39.76655"/><use xlink:href="#h" x="66.46732" y="101.06651"/><use xlink:href="#i" x="78.76323" y="101.06651"/><use xlink:href="#m" x="90.43202" y="101.06651"/><use xlink:href="#p" x="100.1075" y="101.06651"/><use xlink:href="#i" x="106.98335" y="101.06651"/><use xlink:href="#q" x="118.65215" y="101.06651"/><use xlink:href="#p" x="126.64785" y="101.06651"/><use xlink:href="#r" x="133.52371" y="101.06651"/><use xlink:href="#s" x="146.04359" y="101.06651"/><use xlink:href="#t" x="159.68331" y="101.06651"/><use xlink:href="#n" x="176.72737" y="101.06651"/><use xlink:href="#k" x="189.6504" y="101.06651"/><use xlink:href="#u" x="208.23195" y="101.06651"/><g clip-path="url(#v)"><path fill="none" stroke="#000" stroke-miterlimit="10" stroke-width=".39816" d="M.19922 63.94533h809.23855"/></g><g clip-path="url(#w)"><path fill="none" stroke="#000" stroke-miterlimit="10" stroke-width=".39816" d="M.19922 127.6641h809.23855"/></g><g clip-path="url(#x)"><path fill="none" stroke="#000" stroke-miterlimit="10" stroke-width=".39816" d="M.19922.22656v127.43755h809.23855V.22656Zm0 0"/></g><g clip-path="url(#y)"><path fill="none" stroke="#000" stroke-miterlimit="10" stroke-width=".39816" d="M286.9376.22656v127.43755"/></g><use xlink:href="#z" x="300.50086" y="36.81006"/><use xlink:href="#A" x="315.64118" y="36.81006"/><use xlink:href="#B" x="544.24765" y="28.64974"/><path fill="none" stroke="#000" stroke-miterlimit="10" stroke-width="1.23195" d="M544.2461 31.71875h7.94921"/><use xlink:href="#C" x="544.24765" y="45.5374"/><use xlink:href="#D" x="759.32529" y="37.8292"/><use xlink:href="#A" x="774.46561" y="37.8292"/><g clip-path="url(#E)"><path fill="none" stroke="#000" stroke-miterlimit="10" stroke-width=".39816" d="M286.9376 63.94533v63.71878h522.50017V63.94533Zm0 0"/></g><path fill="#FFF" d="M308.66797 77.23438h20.25781v-9.3086h-20.25781Zm0 0"/><use xlink:href="#F" x="310.65424" y="75.13252"/><use xlink:href="#G" x="317.38327" y="75.13252"/><path fill="#FFF" d="M308.66797 77.23438h20.25781v-9.3086h-20.25781Zm0 0"/><use xlink:href="#F" x="310.65424" y="75.13252"/><use xlink:href="#G" x="317.38327" y="75.13252"/><path fill="#FFF" d="M536.33594 123.6836h23.69922v-15.94141h-23.69922Zm0 0"/><use xlink:href="#H" x="538.32094" y="118.18597"/><use xlink:href="#I" x="546.24421" y="114.18437"/><use xlink:href="#J" x="549.77695" y="114.18437"/><use xlink:href="#K" x="553.30969" y="114.18437"/><path fill="none" stroke="#000" stroke-miterlimit="10" stroke-width=".54753" d="M546.2461 115.54688h10.59765"/><use xlink:href="#J" x="549.77721" y="121.68999"/><path fill="#FFF" d="M536.33594 123.6836h23.69922v-15.94141h-23.69922Zm0 0"/><use xlink:href="#H" x="538.32094" y="118.18597"/><use xlink:href="#I" x="546.24421" y="114.18437"/><use xlink:href="#J" x="549.77695" y="114.18437"/><use xlink:href="#K" x="553.30969" y="114.18437"/><path fill="none" stroke="#000" stroke-miterlimit="10" stroke-width=".54753" d="M546.2461 115.54688h10.59765"/><use xlink:href="#J" x="549.77721" y="121.68999"/><path fill="none" stroke="#000" stroke-miterlimit="10" stroke-width=".39816" d="m332.83605 75.21487 197.1485 37.07814"/><path d="M532.33203 112.73438c-.9414-.38282-2.6289-1.10157-3.63672-2.20313.77735 1.25781.6289 2.04297-.55078 2.9336 1.33984-.66016 3.17188-.71876 4.1875-.73047m0 0"/><path fill="#FFF" d="M767.44922 77.23438h20.2539v-9.3086h-20.2539Zm0 0"/><use xlink:href="#F" x="769.42871" y="75.13252"/><use xlink:href="#G" x="776.15774" y="75.13252"/><path fill="#FFF" d="M767.44922 77.23438h20.2539v-9.3086h-20.2539Zm0 0"/><use xlink:href="#F" x="769.42871" y="75.13252"/><use xlink:href="#G" x="776.15774" y="75.13252"/><path fill="none" stroke="#000" stroke-miterlimit="10" stroke-width=".39816" d="m563.92206 112.7305 197.1485-37.07422"/><path d="M763.41797 75.21484c-1.01563-.01171-2.84766-.0703-4.1875-.73046 1.17969.89062 1.32812 1.67187.55078 2.93359 1.00781-1.10156 2.69531-1.82422 3.63672-2.20313m0 0"/></svg>