<svg xmlns="http://www.w3.org/2000/svg" xmlns:xlink="http://www.w3.org/1999/xlink" width="284.261pt" height="174.443pt" viewBox="0 0 284.261 174.443"><defs><path id="b" d="M1.4375-4.25h9.23438v-.98437H1.4375Zm0 0"/><path id="c" d="M.45313-.15625.625 0h6.95313l.57812-2.21875-.46875-.09375c-.35937.92188-.70312 1.04688-1.375 1.04688H2.01563c.26562-.875 1.26562-2.07813 2.82812-3.20313 1.60938-1.1875 2.85938-1.9375 2.85938-3.8125 0-2.34375-1.54688-3.14062-3.32813-3.14062-2.29687 0-3.48437 1.39062-3.48437 2.26562 0 .57813.64062.84375.9375.84375.29687 0 .40625-.17187.48437-.46875.26563-1.14062.92188-2.04687 1.95313-2.04687 1.29687 0 1.67187 1.0625 1.67187 2.29687 0 1.8125-.92187 2.82813-2.375 4.10938C1.48438-2.60937.76563-1.46875.45313-.15625m0 0"/><path id="d" d="M1.82813 0h5.51562v-.48437l-1.40625-.125c-.35937-.03126-.5625-.15626-.5625-.82813v-9.89062l-.07812-.09375-3.46875.59375v.40625l1.5625.20312c.29687.03125.40625.15625.40625.64063v8.14062c0 .67188-.17188.79688-.5625.82813l-1.40625.125Zm0 0"/><path id="e" d="M.70313-5.60937c0 3.35937.98437 5.8125 3.75 5.8125S8.21875-2.25 8.21875-5.60937s-1-5.8125-3.76562-5.8125-3.75 2.45312-3.75 5.8125m1.6875 0c0-2.73438.46875-5.21875 2.0625-5.21875S6.5-8.34375 6.5-5.60937 6.04688-.39062 4.45313-.39062 2.39063-2.875 2.39063-5.60937m0 0"/><path id="i" d="M.67188-1c0 .54688.26562 1.10938.90625 1.10938 1.0625 0 1.84375-1.14063 2.35937-2.0625h.03125L3.70313-1c-.0625.21875-.09375.39063-.09375.54688 0 .375.1875.5625.57812.5625.78125 0 1.34375-.67188 1.6875-1.40625l-.25-.14063c-.20312.35938-.57812.9375-.82812.9375-.10938 0-.14063-.0625-.14063-.17187 0-.07813.01563-.1875.04688-.29688l.96875-3.64062H4.65625l-.03125.09375c-.15625-.10938-.4375-.17188-.6875-.17188C1.71875-4.6875.67188-2.23437.67188-1m1.15625-.04687c0-1 .89062-3.26563 2.17187-3.26563.20313 0 .375.0625.51563.17188-.17188.6875-.5 1.59375-.98438 2.34375C3.04688-1.03125 2.54688-.5 2.17188-.5c-.26563 0-.34375-.21875-.34375-.54687m0 0"/><path id="j" d="M.39063.89063c0 .95312.9375 1.35937 2.03125 1.35937.54687 0 1.14062-.10937 1.57812-.375.4375-.25.75-.70312.75-1.28125 0-1.01562-.8125-1.35937-1.8125-1.35937h-.73437c-.6875 0-.78125-.23438-.78125-.40625 0-.26563.35937-.42188.46875-.45313.1875.01563.39062.03125.48437.03125.89063 0 1.89063-.39062 1.89063-1.53125 0-.39062-.125-.70312-.29688-.875l.75-.10937.1875-.59375-.07812-.07813-1.1875.375c-.26563-.17187-.78125-.28125-1.21875-.28125C1-4.6875.5-3.8125.5-3.125c0 .875.57813 1.28125 1 1.39063v.03124C1-1.51562.64063-1.25.64063-.875c0 .32813.39062.67188.82812.71875V-.125C1.07813 0 .39063.21875.39063.89063m.89062-.03126q0-.49218.28125-.70312c.21875-.17187.53125-.21875.96875-.21875.82813 0 1.4375.20313 1.4375.89063 0 .75-.67187 1.10937-1.34375 1.10937-.79687 0-1.34375-.40625-1.34375-1.07812M1.45313-3.125c0-.92187.46875-1.23437.96875-1.23437.45312 0 .9375.32812.9375 1.23437 0 .79688-.39063 1.20313-.9375 1.20313-.53125 0-.96875-.40625-.96875-1.20313m0 0"/><path id="k" d="M.29688 0h2.46875v-.26562C1.92188-.3125 1.875-.34375 1.875-.8125V-3c0-.71875.32813-.96875.54688-.96875.14062 0 .29687.0625.5625.21875.07812.03125.14062.04688.20312.04688.21875 0 .42188-.23438.42188-.53125 0-.20313-.125-.45313-.5-.45313-.34375 0-.60938.20313-1.23438.75l-.10937-.75-1.42188.23438v.23437l.35938.04688C.9375-4.14062 1-4.09375 1-3.75v2.9375c0 .46875-.04687.5-.70312.54688Zm0 0"/><path id="l" d="M.45313-1.21875c0 .70313.46875 1.32813 1.34375 1.32813.54687 0 1.09375-.35938 1.39062-.5625.125.35937.29688.5625.625.5625.34375 0 .73438-.09375 1.09375-.28126l-.0625-.21874c-.125.03125-.32812.04687-.46875 0-.17187-.03125-.32812-.20313-.32812-.79688v-2.26562c0-.54688-.125-1.23438-1.53125-1.23438C1.45313-4.6875.625-4.14062.625-3.625c0 .29688.34375.4375.53125.4375s.25-.10937.29688-.26562c.20312-.6875.57812-.90625.96875-.90625.35937 0 .78125.1875.78125.9375v.375c-.23438.25-1.14063.48437-1.875.71875-.6875.21875-.875.67187-.875 1.10937m.95312-.125c0-.4375.1875-.65625.71875-.85937.375-.14063.85938-.32813 1.07813-.45313v1.32813c0 .75-.57813.9375-.95313.9375-.57812 0-.84375-.40625-.84375-.95313m0 0"/><path id="m" d="M.29688 0h2.28125v-.26562C1.90625-.3125 1.875-.34375 1.875-.8125V-3c0-.23437.01563-.35937.09375-.51562.20313-.35938.60938-.67188 1.10938-.67188.64062 0 .98437.35938.98437 1.17188V-.8125c0 .46875-.03125.5-.70312.54688V0h2.28125v-.26562C4.98438-.3125 4.9375-.34375 4.9375-.8125v-2.39062c0-.9375-.51562-1.48438-1.375-1.48438-.6875 0-1.125.32813-1.6875.71875l-.14062-.71875-1.39063.23438v.23437l.35938.04688C.9375-4.14062 1-4.09375 1-3.75v2.9375c0 .46875-.03125.5-.70312.54688Zm0 0"/><path id="n" d="M.45313-2.20312c0 1.39062.73437 2.3125 1.96875 2.3125.5 0 .92187-.23438 1.4375-.64063v.46875L3.9375 0h1.51563v-.26562C4.78125-.3125 4.75-.34375 4.75-.8125V-6.875l-.0625-.04687-1.48437.21875v.25l.35937.03125c.25.01562.29688.07812.29688.42187v1.53125c-.25-.125-.59375-.21875-1.03125-.21875-.76563 0-1.34375.25-1.71875.64063C.70313-3.625.45313-3.01562.45313-2.20312m.98437-.10938c0-1.20312.4375-2.04687 1.39063-2.04687.4375 0 .79687.20312.95312.57812.07813.15625.07813.29688.07813.54688v1.64062c0 .21875 0 .375-.04688.53125-.1875.48438-.60937.67188-1.09375.67188-.84375 0-1.28125-.84375-1.28125-1.92188m0 0"/><path id="p" d="M.23438 1.875v.26563h2.42187V1.875c-.78125-.04687-.84375-.0625-.84375-.54687V-.09376C2 .01563 2.45313.10938 2.875.10938c1.26563 0 2.34375-.57813 2.34375-2.5 0-.67188-.125-2.29688-1.8125-2.29688-.6875 0-1.23437.45313-1.59375.6875l-.125-.6875-1.40625.23438v.23437l.35938.04688C.875-4.14062.9375-4.09375.9375-3.75v5.07813c0 .48437-.04687.5-.70312.54687M1.8125-1.46875V-3c0-.23437.04688-.35937.125-.53125.21875-.42187.60938-.65625 1.10938-.65625.375 0 1.20312.25 1.20312 1.85938 0 1.35937-.4375 2.10937-1.375 2.10937-.48437 0-.84375-.25-1-.67187-.0625-.17188-.0625-.35938-.0625-.57813m0 0"/><path id="q" d="M.45313-2.25c0 1.46875.64062 2.35938 2.15625 2.35938 1.03125 0 1.57812-.57813 1.82812-1.3125l-.28125-.14063c-.26562.53125-.625.96875-1.35937.96875-1.15625 0-1.39063-1.10937-1.35938-2.07812H4.125c.20313 0 .35938-.04688.35938-.35938 0-.54687-.17188-1.875-1.875-1.875C1.14063-4.6875.45313-3.65625.45313-2.25m.98437-.5625c0-.39062.14063-1.54687 1.10938-1.54687.875 0 .96875.875.96875 1.25 0 .17187-.0625.29687-.3125.29687Zm0 0"/><path id="r" d="M.28125-4.20312h.6875v3.25C.96875 0 1.67188.10938 2 .10938c.46875 0 .92188-.23438 1.1875-.40625L3.125-.5c-.23437.09375-.4375.125-.67187.125-.3125 0-.60938-.23437-.60938-.9375v-2.89062h1.20313v-.375H1.84375V-5.75H1.5625L1-4.57812H.28125Zm0 0"/><path id="s" d="M.85938-6.10937c0 .32812.23437.57812.57812.57812.32813 0 .5625-.25.5625-.57812 0-.34375-.23437-.5625-.5625-.5625-.34375 0-.57812.21875-.57812.5625M.29688 0h2.28125v-.26562C1.90625-.3125 1.875-.34375 1.875-.8125V-4.625l-.0625-.0625-1.46875.23438v.23437l.35938.04688C.9375-4.14062 1-4.09375 1-3.75v2.9375c0 .46875-.03125.5-.70312.54688Zm0 0"/><clipPath id="a"><path d="M.08594 0H283.4414v171H.08594Zm0 0"/></clipPath><clipPath id="f"><path d="M.08594 141H278v2H.08594Zm0 0"/></clipPath><clipPath id="g"><path d="M265 129h18.4414v26H265Zm0 0"/></clipPath><clipPath id="h"><path d="M.48047.39453h282.5664V153H.48048Zm0 0"/></clipPath><clipPath id="o"><path d="M.48047.39453h282.5664V153H.48048Zm0 0"/></clipPath></defs><g clip-path="url(#a)"><path fill="none" stroke="#000" stroke-miterlimit="10" stroke-opacity=".5" stroke-width=".39723" d="M.48049 141.67969h282.56636M.4805 85.16407h282.56636M.4805 28.65236h282.56636M28.7383 169.93359V.39455M85.25 169.9336V.39455m56.51172 169.53904V.39455m56.51562 169.53904V.39455m56.5117 169.53904V.39455"/></g><path fill="none" stroke="#000" stroke-miterlimit="10" stroke-opacity=".5" stroke-width=".39723" d="M28.7383 127.55078v28.25781"/><g fill-opacity=".5"><use xlink:href="#b" x="18.24407" y="161.51827"/><use xlink:href="#c" x="30.32803" y="161.51827"/></g><path fill="none" stroke="#000" stroke-miterlimit="10" stroke-opacity=".5" stroke-width=".39723" d="M85.25 127.55078v28.25781"/><g fill-opacity=".5"><use xlink:href="#b" x="74.75663" y="161.51827"/><use xlink:href="#d" x="86.84059" y="161.51827"/></g><path fill="none" stroke="#000" stroke-miterlimit="10" stroke-opacity=".5" stroke-width=".39723" d="M198.27734 127.55078v28.25781"/><use xlink:href="#d" x="193.82344" y="161.51827" fill-opacity=".5"/><path fill="none" stroke="#000" stroke-miterlimit="10" stroke-opacity=".5" stroke-width=".39723" d="M254.78905 127.55078v28.25781"/><use xlink:href="#c" x="250.336" y="161.51827" fill-opacity=".5"/><path fill="none" stroke="#000" stroke-miterlimit="10" stroke-opacity=".5" stroke-width=".39723" d="M155.89062 85.16407h-28.2578"/><use xlink:href="#d" x="117.53204" y="90.87783" fill-opacity=".5"/><path fill="none" stroke="#000" stroke-miterlimit="10" stroke-opacity=".5" stroke-width=".39723" d="M155.89062 28.65236h-28.2578"/><use xlink:href="#c" x="117.53204" y="34.36527" fill-opacity=".5"/><path fill="none" stroke="#000" stroke-miterlimit="10" stroke-opacity=".5" stroke-width=".39723" d="M141.76172 127.55078v28.25781"/><use xlink:href="#e" x="117.53204" y="167.07154" fill-opacity=".5"/><g clip-path="url(#f)"><path fill="none" stroke="#000" stroke-miterlimit="10" stroke-width=".79448" d="M.48049 141.67969h276.4062"/></g><path d="M281.03906 141.67969c-.50781-.10547-2.75-.70703-4.15234-1.35938v2.71875c1.40234-.65234 3.64453-1.2539 4.15234-1.35937m0 0"/><g clip-path="url(#g)"><path fill="none" stroke="#000" stroke-miterlimit="10" stroke-width=".79448" d="M281.03906 141.67969c-.50781-.10547-2.75-.70703-4.15234-1.35938v2.71875c1.40234-.65234 3.64453-1.2539 4.15234-1.35937Zm0 0"/></g><path fill="none" stroke="#000" stroke-miterlimit="10" stroke-width=".79448" d="M141.76172 169.93359V6.5547"/><path stroke="#000" stroke-miterlimit="10" stroke-width=".79448" d="M141.76172 2.40234c-.10547.50782-.70703 2.75-1.35938 4.15235h2.71875c-.65234-1.40235-1.2539-3.64453-1.35937-4.15235Zm0 0"/><g clip-path="url(#h)"><path fill="none" stroke="#007F7F" stroke-miterlimit="10" stroke-width=".79448" d="M-56.03513-1242.89433s11.91016 162.44529 16.48437 221.14059c4.57422 58.69921 11.91016 148.55076 16.48047 201.91013 4.57422 53.36327 11.91016 134.65623 16.48437 182.68357 4.57422 48.02343 11.91016 120.7617 16.48047 163.4531 4.57422 42.6875 11.91015 106.87108 16.48437 144.22263 4.57422 37.35547 11.91016 92.97655 16.48047 124.99608 4.57422 32.01562 11.91015 79.08592 16.48437 105.7656 4.57422 26.6836 11.91016 65.1914 16.48047 86.53906C80.39845 9.16018 87.73438 39.1172 92.3086 55.125c4.57422 16.01172 11.91015 37.40625 16.48047 48.08203 4.57421 10.67187 11.91015 23.51171 16.48437 28.85155 4.57422 5.33594 11.91015 9.6172 16.48047 9.6211 4.57421 0 11.91015-4.27344 16.48437-9.60547 4.57422-5.33594 11.91015-18.16797 16.48046-28.83593 4.57422-10.67188 11.91016-32.0586 16.48438-48.0664 4.57422-16.0039 11.91015-45.94922 16.48046-67.29296 4.57422-21.33984 11.91016-59.84374 16.48438-86.51952 4.57421-26.67968 11.91015-73.73827 16.48046-105.74999 4.57422-32.01562 11.91016-87.6328 16.48438-124.98045 4.57421-37.34765 11.91015-101.52342 16.48046-144.207 4.57422-42.6875 11.91016-115.41796 16.48437-163.43748 4.57422-48.02343 11.91016-129.30858 16.48438-182.66795 4.5703-53.35546 11.90625-143.1992 16.48046-201.8945 4.57422-58.6914 16.48438-221.12106 16.48438-221.12106"/></g><use xlink:href="#i" x="160.16691" y="21.30398" fill="#007F7F"/><g fill="#007F7F"><use xlink:href="#j" x="168.5302" y="21.30398"/><use xlink:href="#k" x="173.3765" y="21.30398"/></g><g fill="#007F7F"><use xlink:href="#l" x="176.91191" y="21.30398"/><use xlink:href="#m" x="181.788" y="21.30398"/><use xlink:href="#n" x="187.55787" y="21.30398"/></g><g fill="none" stroke-miterlimit="10" stroke-width=".79448" clip-path="url(#o)"><path stroke="#000" d="M-56.03513-550.60928s11.91016 81.22265 16.48437 110.5703c4.57422 29.35156 11.91016 74.27733 16.48047 100.95702 4.57422 26.67968 11.91016 67.32811 16.48437 91.33983 4.57422 24.01562 11.91016 60.3828 16.48047 81.72655 4.57422 21.34765 11.91015 53.4375 16.48437 72.11327S38.28908-47.41404 42.8594-31.40623C47.4336-15.3945 54.76954 8.13674 59.34376 21.4805c4.57422 13.33984 11.91016 32.59374 16.48047 43.26561 4.57422 10.67578 11.91015 25.65234 16.48437 33.65625 4.57422 8.0039 11.91015 18.70312 16.48047 24.03906 4.57421 5.33594 11.91015 11.75781 16.48437 14.42578s11.91015 4.8086 16.48047 4.8125c4.57421 0 11.91015-2.13672 16.48437-4.80469s11.91015-9.08203 16.48046-14.41797c4.57422-5.33203 11.91016-16.02734 16.48438-24.03124s11.91015-22.97656 16.48046-33.64453c4.57422-10.67187 11.91016-29.92187 16.48438-43.26171 4.57421-13.33984 11.91015-36.87109 16.48046-52.875 4.57422-16.0078 11.91016-43.8164 16.48438-62.49217 4.57421-18.67187 11.91015-50.7578 16.48046-72.10156 4.57422-21.34374 11.91016-57.70702 16.48437-81.71873 4.57422-24.01172 11.91016-64.65624 16.48438-91.33202 4.5703-26.67969 11.90625-71.60155 16.48046-100.9492s16.48438-110.56249 16.48438-110.56249"/><path stroke="#FF7F00" d="M-56.03513-66.00778s11.91016 24.36718 16.48437 33.17187c4.57422 8.80468 11.91016 22.28124 16.48047 30.28515 4.57422 8.0039 11.91016 20.19921 16.48437 27.40234C-2.0117 32.0547 5.32424 42.96876 9.89455 49.3711c4.57422 6.40234 11.91015 16.03124 16.48437 21.6328 4.57422 5.60157 11.91016 13.94532 16.48047 18.75 4.57422 4.80078 11.91015 11.86328 16.48437 15.86328 4.57422 4.0039 11.91016 9.78125 16.48047 12.98047 4.57422 3.20312 11.91015 7.69531 16.48437 10.09765 4.57422 2.40235 11.91015 5.61328 16.48047 7.21094 4.57421 1.60156 11.91015 3.52734 16.48437 4.32812s11.91015 1.44532 16.48047 1.44532c4.57421 0 11.91015-.64063 16.48437-1.4414 4.57422-.80079 11.91015-2.72657 16.48046-4.32423 4.57422-1.60156 11.91016-4.80859 16.48438-7.21093s11.91015-6.89063 16.48046-10.09375c4.57422-3.19922 11.91016-8.97656 16.48438-12.97656 4.57421-4.0039 11.91015-11.0625 16.48046-15.86328 4.57422-4.80469 11.91016-13.14453 16.48438-18.7461 4.57421-5.60546 11.91015-15.23046 16.48046-21.6328 4.57422-6.40234 11.91016-17.3125 16.48437-24.51562 4.57422-7.20313 11.91016-19.39844 16.48438-27.40234 4.5703-8.0039 11.90625-21.48047 16.48046-30.28125 4.57422-8.80469 16.48438-33.16796 16.48438-33.16796"/></g><use xlink:href="#i" x="205.8949" y="126.8071" fill="#FF7F00"/><g fill="#FF7F00"><use xlink:href="#p" x="214.2562" y="126.8071"/><use xlink:href="#q" x="219.92676" y="126.8071"/><use xlink:href="#r" x="224.7234" y="126.8071"/><use xlink:href="#s" x="227.93109" y="126.8071"/><use xlink:href="#r" x="230.64224" y="126.8071"/></g></svg>