<svg xmlns="http://www.w3.org/2000/svg" xmlns:xlink="http://www.w3.org/1999/xlink" width="185.049pt" height="118.078pt" viewBox="0 0 185.049 118.078"><defs><path id="b" d="M.5-4.03125C.5-1.625 1.20313.14063 3.20313.14063c1.98437 0 2.70312-1.76563 2.70312-4.17188 0-2.42187-.71875-4.17187-2.70312-4.17187-2 0-2.70313 1.75-2.70313 4.17187m1.21875 0c0-1.96875.34375-3.75 1.48438-3.75 1.14062 0 1.46875 1.78125 1.46875 3.75s-.32813 3.75-1.46875 3.75c-1.14063 0-1.48438-1.78125-1.48438-3.75m0 0"/><path id="c" d="M.92188-2.75h5.98437v-.64062H.92188Zm0 0"/><path id="d" d="M.29688-.10937.40625 0h4.5l.35938-1.4375-.29688-.04687c-.23437.57812-.45312.65625-.89062.65625H1.3125c.17188-.5625.8125-1.32813 1.82813-2.0625 1.03125-.76563 1.84375-1.25 1.84375-2.46875 0-1.51563-1-2.03125-2.15625-2.03125-1.48438 0-2.25.90625-2.25 1.46875 0 .375.42187.54687.59375.54687.20312 0 .28124-.125.3125-.29687C1.67188-6.42187 2.09375-7 2.76563-7c.82812 0 1.07812.6875 1.07812 1.48438 0 1.17187-.59375 1.82812-1.54687 2.65625C.95313-1.6875.5-.95312.29688-.10937m0 0"/><path id="e" d="M1.17188 0H4.75v-.3125l-.90625-.07812C3.60938-.42187 3.48438-.5 3.48438-.92187v-6.40625l-.0625-.0625L1.17188-7v.26563l1.03125.125c.17187.01562.25.09375.25.40625v5.28125c0 .42187-.10938.5-.35938.53125l-.92187.07812Zm0 0"/><path id="i" d="M.4375-.65625c0 .375.17188.73438.57813.73438.6875 0 1.1875-.75 1.53125-1.34375h.01562l-.17187.625c-.04688.14062-.0625.25-.0625.34375q0 .375.375.375c.5 0 .875-.4375 1.09375-.92188L3.64063-.9375c-.14063.25-.375.60938-.53125.60938C3.03125-.32812 3-.35937 3-.4375c0-.04687.01563-.10937.03125-.1875l.64063-2.35937h-.65625l-.03125.0625c-.09375-.0625-.28125-.10938-.4375-.10938-1.4375 0-2.10938 1.59375-2.10938 2.375m.75-.01562c0-.65625.5625-2.10938 1.39063-2.10938.14062 0 .25.03125.34375.10938-.10938.4375-.32813 1.03125-.64063 1.51562-.3125.48438-.625.82813-.875.82813-.17187 0-.21875-.14063-.21875-.34375m0 0"/><path id="j" d="M.25.57813c0 .60937.60938.875 1.3125.875.35938 0 .73438-.0625 1.03125-.23438.26563-.17187.46875-.46875.46875-.82812C3.0625-.26562 2.54688-.5 1.90625-.5h-.48437c-.4375 0-.5-.14062-.5-.25 0-.1875.23437-.28125.3125-.29687.10937 0 .23437.01562.29687.01562.57813 0 1.21875-.25 1.21875-.98437 0-.25-.07812-.46875-.1875-.5625l.48438-.07813.125-.375-.04688-.0625-.78125.25c-.15625-.10937-.5-.1875-.78125-.1875-.92187 0-1.23437.5625-1.23437 1.01563 0 .5625.35937.82812.64062.89062v.01563c-.32812.14062-.54687.3125-.54687.54687 0 .20313.23437.4375.53125.46875v.01563C.6875 0 .25.14063.25.57813M.82813.54687c0-.20312.0625-.35937.1875-.45312.14062-.09375.32812-.14062.625-.14062.53125 0 .92187.14062.92187.59375 0 .46875-.4375.70312-.85937.70312-.51563 0-.875-.26562-.875-.70312m.10937-2.5625c0-.59375.3125-.79687.625-.79687.29688 0 .60938.21875.60938.79688 0 .5-.26563.76562-.60938.76562s-.625-.26562-.625-.76562m0 0"/><path id="k" d="M.1875 0h1.59375v-.17187c-.53125-.03126-.5625-.04688-.5625-.35938V-1.9375c0-.46875.20313-.625.34375-.625.09375 0 .20313.03125.375.14063.04688.01562.07813.03125.125.03125.14063 0 .26563-.15625.26563-.34375 0-.14063-.07813-.29688-.3125-.29688-.21875 0-.40625.125-.79688.48438l-.07812-.48438-.92188.15625v.14063l.23438.03125c.15625.03125.20312.0625.20312.28125v1.89062c0 .3125-.04687.32813-.46875.35938Zm0 0"/><path id="l" d="M.29688-.78125c0 .45313.29687.85938.85937.85938.35938 0 .71875-.23438.90625-.35938.07813.21875.1875.35938.39063.35938.23437 0 .48437-.07813.71875-.1875L3.14063-.25c-.09375.01563-.21875.03125-.3125 0-.10938-.03125-.21875-.14062-.21875-.51562v-1.46875c0-.34375-.07813-.79688-.98438-.79688-.6875 0-1.21875.35938-1.21875.6875 0 .1875.21875.28125.34375.28125s.15625-.0625.1875-.17187c.14063-.4375.375-.57813.625-.57813.23438 0 .5.10938.5.59375v.25c-.15625.15625-.73437.3125-1.20312.46875-.4375.125-.5625.4375-.5625.71875m.60937-.07812c0-.29688.125-.4375.46875-.5625.25-.09376.5625-.20313.6875-.29688v.85938c0 .48437-.35937.60937-.60937.60937-.375 0-.54688-.26562-.54688-.60937m0 0"/><path id="m" d="M.1875 0h1.46875v-.17187c-.42187-.03126-.4375-.04688-.4375-.35938V-1.9375c0-.15625 0-.23437.04688-.32812.14062-.23438.40625-.4375.71875-.4375.42187 0 .64062.21875.64062.75v1.42187c0 .3125-.01562.32813-.45312.35938V0h1.46875v-.17187c-.42188-.03126-.45313-.04688-.45313-.35938V-2.0625c0-.60937-.32812-.96875-.875-.96875-.45312 0-.73437.21875-1.10937.46875L1.125-3.03125.21875-2.875v.14063l.23438.03125c.15625.03125.20312.0625.20312.28125v1.89062c0 .3125-.03125.32813-.46875.35938Zm0 0"/><path id="n" d="M.29688-1.42187c0 .89062.46875 1.5 1.26562 1.5.32813 0 .60938-.15625.92188-.42188v.29688L2.54688 0h.96875v-.17187c-.42188-.03126-.45313-.04688-.45313-.35938V-4.4375l-.03125-.03125-.95312.14063v.15625l.23437.01562c.14063.01563.1875.04688.1875.28125v.98438c-.17187-.07813-.39062-.14063-.67187-.14063-.5 0-.85938.15625-1.10938.42188-.26562.26562-.42187.65625-.42187 1.1875m.625-.0625c0-.78125.28124-1.32813.90625-1.32813.28124 0 .51562.125.625.375C2.5-2.34375 2.5-2.25 2.5-2.09375v1.0625c0 .14063 0 .23438-.04687.34375-.10938.3125-.375.4375-.6875.4375-.5625 0-.84375-.54687-.84375-1.23437m0 0"/><path id="q" d="M.15625 1.21875v.17188h1.5625v-.17188c-.51562-.03125-.54687-.04687-.54687-.35937V-.0625c.125.0625.42187.14063.6875.14063.8125 0 1.51562-.375 1.51562-1.625 0-.4375-.07812-1.48438-1.17187-1.48438-.45313 0-.79688.29688-1.03125.45313l-.07813-.45313L.1875-2.875v.14063l.21875.03125c.15625.03125.20313.0625.20313.28125V.85938c0 .3125-.03126.32812-.45313.35937M1.17188-.95312v-.98438c0-.15625.03124-.23437.07812-.34375.14063-.28125.39063-.42187.71875-.42187.23438 0 .78125.15625.78125 1.1875 0 .89062-.28125 1.375-.89062 1.375-.3125 0-.54688-.15625-.64063-.4375-.04687-.10938-.04687-.23438-.04687-.375m0 0"/><path id="r" d="M.29688-1.45312C.29688-.5.70313.07813 1.6875.07813c.67188 0 1.01563-.375 1.17188-.85938L2.6875-.875c-.17187.35938-.40625.64063-.875.64063-.75 0-.90625-.71875-.89062-1.35938h1.75c.125 0 .23437-.03125.23437-.21875 0-.35937-.125-1.21875-1.21875-1.21875-.95312 0-1.39062.67188-1.39062 1.57813M.9375-1.8125c0-.25.07813-1 .71875-1 .54688 0 .60938.5625.60938.79688 0 .125-.03125.20312-.20313.20312Zm0 0"/><path id="s" d="M.1875-2.71875H.625v2.10938c0 .60937.45313.6875.67188.6875.29687 0 .59375-.15625.76562-.26563l-.04687-.14062C1.875-.26562 1.73438-.25 1.59375-.25c-.21875 0-.40625-.14062-.40625-.59375v-1.875h.78125v-.23437H1.1875v-.76563h-.17187l-.35938.76563H.1875Zm0 0"/><path id="t" d="M.54688-3.95312c0 .21875.15624.375.375.375.21874 0 .375-.15625.375-.375s-.15626-.35938-.375-.35938c-.21876 0-.375.14063-.375.35938M.1875 0h1.46875v-.17187c-.42187-.03126-.4375-.04688-.4375-.35938V-3l-.04687-.03125-.95313.15625v.14063l.23438.03125c.15625.03125.20312.0625.20312.28125v1.89062c0 .3125-.03125.32813-.46875.35938Zm0 0"/><clipPath id="a"><path d="M.2461 0h183.61328v93H.24608Zm0 0"/></clipPath><clipPath id="f"><path d="M.2461 91H178v2H.2461Zm0 0"/></clipPath><clipPath id="g"><path d="M166 79h17.85938v26H166Zm0 0"/></clipPath><clipPath id="h"><path d="M.64063.39453h182.82421V103H.64063Zm0 0"/></clipPath><clipPath id="o"><path d="M.64063.39453h182.82421V103H.64063Zm0 0"/></clipPath><clipPath id="p"><path d="M.64063 12h182.82421v91H.64063Zm0 0"/></clipPath></defs><g clip-path="url(#a)"><path fill="none" stroke="#7f7f7f" stroke-dasharray=".395411625 .98855883" stroke-miterlimit="10" stroke-width=".39541" d="M.64063 91.8086h182.8242M.64063 55.2422h182.8242M.64063 18.67578h182.8242M18.92188 91.80859V.39454m36.5664 91.41405V.39454m36.5664 91.41405V.39454m36.5625 91.41405V.39454m36.5664 91.41405V.39454"/></g><use xlink:href="#b" x="76.0551" y="108.64069" fill="#7f7f7f"/><path fill="none" stroke="#7f7f7f" stroke-miterlimit="10" stroke-width=".39541" d="M18.92188 82.66797v18.28125"/><g fill="#7f7f7f"><use xlink:href="#c" x="12.13323" y="112.87959"/><use xlink:href="#d" x="19.95183" y="112.87959"/></g><path fill="none" stroke="#7f7f7f" stroke-miterlimit="10" stroke-width=".39541" d="M55.48828 82.66797v18.28125"/><g fill="#7f7f7f"><use xlink:href="#c" x="48.69871" y="112.87959"/><use xlink:href="#e" x="56.51731" y="112.87959"/></g><path fill="none" stroke="#7f7f7f" stroke-miterlimit="10" stroke-width=".39541" d="M128.61718 82.66797v18.28125"/><use xlink:href="#e" x="125.73816" y="112.87959" fill="#7f7f7f"/><path fill="none" stroke="#7f7f7f" stroke-miterlimit="10" stroke-width=".39541" d="M165.18359 82.66797v18.28125"/><use xlink:href="#d" x="162.30264" y="112.87959" fill="#7f7f7f"/><g clip-path="url(#f)"><path fill="none" stroke="#000" stroke-miterlimit="10" stroke-width=".79083" d="M.64063 91.8086h176.6953"/></g><path d="M181.46875 91.8086c-.50781-.10547-2.73828-.70313-4.13281-1.35547v2.70703c1.39453-.64844 3.625-1.2461 4.13281-1.35157m0 0"/><g clip-path="url(#g)"><path fill="none" stroke="#000" stroke-miterlimit="10" stroke-width=".79083" d="M181.46875 91.8086c-.50781-.10548-2.73828-.70313-4.13281-1.35547v2.70703c1.39453-.64844 3.625-1.2461 4.1328-1.35157Zm0 0"/></g><path fill="none" stroke="#7f7f7f" stroke-miterlimit="10" stroke-width=".39541" d="M101.19531 55.2422H82.91016"/><use xlink:href="#e" x="72.61099" y="58.93779" fill="#7f7f7f"/><path fill="none" stroke="#7f7f7f" stroke-miterlimit="10" stroke-width=".39541" d="M101.19531 18.67579H82.91016"/><use xlink:href="#d" x="72.61099" y="22.3733" fill="#7f7f7f"/><path fill="none" stroke="#000" stroke-miterlimit="10" stroke-width=".79083" d="M92.05469 110.08984V6.52344"/><path stroke="#000" stroke-miterlimit="10" stroke-width=".79083" d="M92.05469 2.39063c-.10547.5078-.70313 2.73828-1.35547 4.1328h2.70703c-.64844-1.39452-1.2461-3.625-1.35156-4.1328Zm0 0"/><g clip-path="url(#h)"><path fill="none" stroke="#007f7f" stroke-miterlimit="10" stroke-width=".79083" d="M.64063-365.25777s5.50391 53.625 7.6172 73c2.11327 19.3789 5.5039 49.03905 7.61718 66.65624 2.11328 17.61328 5.5039 44.45312 7.61718 60.30468 2.11328 15.85547 5.50391 39.86719 7.6172 53.96093 2.11327 14.08985 5.5039 35.27734 7.61718 47.60937s5.5039 30.6914 7.61718 41.26172c2.1172 10.57031 5.50391 26.10937 7.6211 34.91796 2.11328 8.8086 5.5 21.51953 7.61718 28.5664 2.11329 7.04688 5.50391 16.9336 7.6172 22.21875 2.11327 5.28516 5.5039 12.34766 7.61718 15.8711 2.11328 3.52343 5.5039 7.76171 7.61718 9.52343s5.50391 3.17578 7.6172 3.17578c2.11327 0 5.5039-1.41015 7.61718-3.17187s5.5039-5.9961 7.61718-9.51953c2.11329-3.52344 5.50391-10.58594 7.6172-15.86719 2.11718-5.28515 5.5039-15.17187 7.61718-22.21874 2.11719-7.04297 5.5039-19.7539 7.6211-28.5625 2.11327-8.80469 5.5039-24.34375 7.61718-34.91015 2.11328-10.57032 5.5039-28.92969 7.61718-41.25781 2.11329-12.33203 5.50391-33.51562 7.6172-47.60937 2.11327-14.08984 5.5039-38.10156 7.61718-53.95312 2.11328-15.85547 5.5039-42.6875 7.61718-60.30468 2.11329-17.61328 5.50391-47.27344 7.6172-66.64843 2.11327-19.3789 7.61718-73 7.61718-73"/></g><use xlink:href="#i" x="93.60209" y="52.18552" fill="#007f7f"/><g fill="#007f7f"><use xlink:href="#j" x="99.01204" y="52.18552"/><use xlink:href="#k" x="102.14771" y="52.18552"/></g><g fill="#007f7f"><use xlink:href="#l" x="104.44163" y="52.18552"/><use xlink:href="#m" x="107.59657" y="52.18552"/><use xlink:href="#n" x="111.32981" y="52.18552"/></g><g clip-path="url(#o)"><path fill="none" stroke="#007f7f" stroke-miterlimit="10" stroke-width=".79083" d="M.64063-136.72654s5.50391 26.8125 7.6172 36.5039c2.11327 9.6875 5.5039 24.51563 7.61718 33.32422 2.11328 8.8086 5.5039 22.22656 7.61718 30.15625 2.11328 7.92578 5.50391 19.92968 7.6172 26.97656 2.11327 7.04687 5.5039 17.64062 7.61718 23.80468 2.11328 6.16797 5.5039 15.34766 7.61718 20.63281 2.1172 5.28516 5.50391 13.05469 7.6211 17.45703 2.11328 4.40625 5.5 10.76172 7.61718 14.28516 2.11329 3.52343 5.50391 8.46484 7.6172 11.10937 2.11327 2.64062 5.5039 6.17187 7.61718 7.9336 2.11328 1.76171 5.5039 3.8828 7.61718 4.76562 2.11328.8789 5.50391 1.58593 7.6172 1.58593 2.11327 0 5.5039-.70703 7.61718-1.58593s5.5039-3 7.61718-4.76172c2.11329-1.75781 5.50391-5.28906 7.6172-7.9336 2.11718-2.64062 5.5039-7.58593 7.61718-11.10546 2.11719-3.52344 5.5039-9.8789 7.6211-14.28125 2.11327-4.40625 5.5039-12.17187 7.61718-17.45703s5.5039-14.46484 7.61718-20.6289c2.11329-6.16797 5.50391-16.75781 7.6172-23.80469 2.11327-7.04687 5.5039-19.05078 7.61718-26.97656s5.5039-21.34375 7.61718-30.15234c2.11329-8.8086 5.50391-23.63672 7.6172-33.32422 2.11327-9.6875 7.61718-36.5 7.61718-36.5"/></g><g clip-path="url(#p)"><path fill="none" stroke="#ff7f00" stroke-miterlimit="10" stroke-width=".79083" d="M.64063 23.2461s5.50391 8.04688 7.6172 10.95313c2.11327 2.90624 5.5039 7.35546 7.61718 9.99609 2.11328 2.64453 5.5039 6.66797 7.61718 9.04687s5.50391 5.98047 7.6172 8.09375c2.11327 2.11328 5.5039 5.29297 7.61718 7.14063 2.11328 1.85156 5.5039 4.60546 7.61718 6.1914 2.1172 1.58594 5.50391 3.91406 7.6211 5.23828 2.11328 1.32031 5.5 3.22656 7.61718 4.28516 2.11329 1.05468 5.50391 2.53906 7.6172 3.33203 2.11327.79297 5.5039 1.85156 7.61718 2.3789 2.11328.53125 5.5039 1.16407 7.61718 1.4297 2.11328.26562 5.50391.47655 7.6172.47655 2.11327 0 5.5039-.21093 7.61718-.47656 2.11328-.26172 5.5039-.89844 7.61718-1.42578 2.11329-.53125 5.50391-1.58984 7.6172-2.38281 2.11718-.79297 5.5039-2.27344 7.61718-3.33203 2.11719-1.05469 5.5039-2.96094 7.6211-4.28516 2.11327-1.32031 5.5039-3.64844 7.61718-5.23437s5.5039-4.33985 7.61718-6.1914c2.11329-1.84766 5.50391-5.02735 7.6172-7.14063 2.11327-2.11328 5.5039-5.71485 7.61718-8.09375 2.11328-2.375 5.5039-6.40234 7.61718-9.04297 2.11329-2.64453 5.50391-7.09375 7.6172-10 2.11327-2.90625 7.61718-10.94922 7.61718-10.94922"/></g><use xlink:href="#i" x="124.0156" y="87.10287" fill="#ff7f00"/><g fill="#ff7f00"><use xlink:href="#q" x="129.42556" y="87.10287"/><use xlink:href="#r" x="133.09455" y="87.10287"/><use xlink:href="#s" x="136.19808" y="87.10287"/><use xlink:href="#t" x="138.27353" y="87.10287"/><use xlink:href="#s" x="140.02771" y="87.10287"/></g></svg>