<svg xmlns="http://www.w3.org/2000/svg" xmlns:xlink="http://www.w3.org/1999/xlink" width="392.822pt" height="255.915pt" viewBox="0 0 392.822 255.915"><defs><path id="b" d="M2.0625 0h6.23438v-.54687L6.70313-.6875c-.40625-.03125-.625-.1875-.625-.92187v-11.17188l-.10938-.10937-3.90625.67187v.45313l1.76563.23437c.32812.03125.45312.17188.45312.71875v9.20313c0 .73437-.1875.89062-.625.92187L2.0625-.54687Zm0 0"/><path id="c" d="M.5-.1875.70313 0h7.84375l.65625-2.5-.53125-.10937C8.26563-1.57812 7.89063-1.4375 7.125-1.4375H2.28125c.29688-.98437 1.4375-2.32812 3.1875-3.60937C7.28125-6.375 8.6875-7.21875 8.6875-9.34375c0-2.64062-1.75-3.54687-3.75-3.54687-2.59375 0-3.92187 1.57812-3.92187 2.5625 0 .64062.71875.95312 1.04687.95312.34375 0 .45313-.20312.54688-.53125.29687-1.29687 1.04687-2.3125 2.21875-2.3125 1.45312 0 1.875 1.20313 1.875 2.59375 0 2.04688-1.03125 3.1875-2.6875 4.64063C1.67188-2.9375.875-1.65625.5-.1875m0 0"/><path id="d" d="M.5-1.9375C.5-1.125 1.8125.21875 4.5.21875c2.73438 0 4.46875-1.39062 4.46875-3.8125C8.96875-6.125 6.79688-6.875 5.75-6.98437v-.07813c1.03125-.15625 2.65625-.92187 2.65625-2.79687 0-2.10938-1.625-3.03125-3.67187-3.03125-2.5 0-3.71875 1.45312-3.71875 2.26562 0 .57813.65625.90625.92187.90625.23438 0 .375-.14062.46875-.39062.42188-1.28125 1.125-2.10938 2.1875-2.10938 1.5 0 1.875 1.3125 1.875 2.375 0 1.125-.39062 2.5625-2.01562 2.5625-.90625 0-1.42188-.1875-1.65625-.1875-.23438 0-.32813.1875-.32813.53125 0 .32813.09375.51563.32813.51563s.75-.17188 1.65625-.17188c1.625 0 2.53125 1.45313 2.53125 3.10938 0 2.25-1.10938 3.04687-2.46875 3.04687-1.25 0-2.07813-.9375-2.4375-2-.125-.35937-.29688-.54687-.5625-.54687C1.17188-2.98437.5-2.625.5-1.9375m0 0"/><path id="e" d="m.35938-3.79687.17187.40625H5.6875v1.9375c0 .64062-.20312.75-.67187.78125l-1.20313.125V0h5v-.54687l-.84375-.09376c-.4375-.0625-.5625-.17187-.5625-.8125v-1.9375h1.9375v-.89062h-1.9375v-8.39062H6.01563C4.23438-10.04687 2.09375-6.75.35938-3.79687m1.375-.48438c1.125-2.04687 2.5-4.25 3.95312-6.54687v6.54687Zm0 0"/><path id="f" d="M.76563-1.9375c0 .875 1.32812 2.15625 3.79687 2.15625 3.125 0 4.53125-1.89062 4.53125-4.29687 0-2.65625-1.65625-4.01563-3.90625-4.01563-1.04687 0-2.20312.46875-2.8125 1.01563l.42188-3.59375c.0625-.48438.1875-.54688.54687-.54688H8.0625L8.53125-12.5l-.09375-.17187H2.09375l-.17187.1875-.39063 6.32812.46875.25c.78125-.90625 1.54688-1.35937 2.57813-1.35937 1.21875 0 2.54687.89062 2.54687 3.39062 0 1.95313-.79687 3.4375-2.4375 3.4375-1.34375 0-2-.95312-2.39062-2.04687-.09375-.28125-.28125-.45313-.54688-.45313-.375 0-.98437.375-.98437 1m0 0"/><path id="g" d="M1.60938-4.79687h10.4375v-1.10938H1.60938Zm0 0"/><path id="h" d="M.78125-6.32812c0 3.78125 1.10938 6.54687 4.23438 6.54687 3.14062 0 4.26562-2.76562 4.26562-6.54687 0-3.79688-1.125-6.5625-4.26562-6.5625-3.125 0-4.23438 2.76562-4.23438 6.5625m1.92188 0c0-3.09375.53125-5.89063 2.3125-5.89063 1.79687 0 2.32812 2.79688 2.32812 5.89063C7.34375-3.25 6.8125-.4375 5.01563-.4375c-1.78125 0-2.3125-2.8125-2.3125-5.89062m0 0"/><path id="m" d="M.6875-10.51562c0 1.84375 1.84375 3.29687 6.0625 3.29687-.70312 1.23438-1.21875 2.51563-1.21875 3.90625C5.53125-1.01562 6.98438.25 9.64063.25c2.57812 0 5.26562-1.85937 5.26562-4.26562 0-1.42188-1.1875-2.21875-2.6875-2.21875-1.67187 0-3.60937 1.85937-3.60937 3.34375 0 .45312.32812 1.29687.95312 1.29687.1875 0 .4375-.125.4375-.32812 0-.28126-.5-.29688-.5-.95313 0-1.03125 1.5-2.6875 2.71875-2.6875.84375 0 1.35938.34375 1.35938 1.17188 0 1.85937-1.79688 3.96875-3.9375 3.96875-1.53125 0-2.3125-.82813-2.3125-2.21875 0-1.57813 1.09375-3.40625 1.92187-4.75 4.6875-.71875 9.28125-3.03125 9.28125-5.96875 0-1.10938-.89062-1.85938-2.10937-1.85938-2.78126 0-6.96876 3.5625-9.28126 7.26563-1.89062-.03125-4.98437-.0625-4.98437-2.3125 0-2.0625 2.5-3.65625 4.07813-3.65625.28125 0 .4375-.17188.4375-.34375 0-.1875-.15625-.32813-.32813-.32813C3.98438-14.59375.6875-13 .6875-10.51562m8.98438 2.29687c1.54687-2.71875 4.82812-6.32812 6.75-6.32812.73437 0 1.25.4375 1.25 1.125 0 2.35937-3.6875 4.5-8 5.20312m0 0"/><path id="F" d="m3.04688-2.28125.875.875 3.65625-3.6875L11.25-1.40625l.84375-.875L8.45313-5.9375l3.64062-3.67187-.84375-.85938L7.57813-6.8125l-3.65625-3.65625-.875.85938L6.71875-5.9375Zm0 0"/><path id="G" d="M.67188-.82812c0 .60937.5 1.07812 1.34375 1.07812C3.45313.25 4.25-1.1875 5.125-2.59375l.85938-1.39062h.04687l.375 1.65625C6.8125-.65625 7.1875.25 8.26563.25 9.8125.25 10.625-1.34375 11.25-2.625l-.54687-.28125c-.51563.9375-1.09375 2.0625-1.67188 2.0625-.40625 0-.5625-.48437-1.03125-2.35937l-.67187-2.75c.76562-1.34375 1.84375-3.03125 2.4375-3.03125.625 0 .65625.32812 1.28125.32812.46875 0 .89062-.4375.89062-1 0-.65625-.48437-.92187-1.07812-.92187C9.75-10.57812 8.8125-9.5625 8.0625-8.375l-.92187 1.42188h-.03125L6.25-10.48437l-.10937-.09375-3.46875 1.0625L2.71875-9 4.375-9.125c.32813 0 .48438.15625.6875 1.0625l.73438 3.04688-.57813 1c-.89062 1.54687-1.67187 2.65625-2.1875 2.65625-.60937 0-.76562-.51563-1.4375-.51563-.54687 0-.92187.53125-.92187 1.04688m0 0"/><path id="n" d="M-.3125 2.65625c.01563.51563.64063.90625 1.4375.90625 1.54688 0 2.25-1.21875 2.85938-4l1.375-6.1875h1.85937l.15625-.60937H5.45313l.45312-1.78125c.25-1 .5-1.375.85938-1.375.34375 0 .59375.28125.9375 1.04687.09375.15625.21875.29688.46875.29688.34375 0 .79687-.29688.79687-.70313 0-.65625-.8125-1.1875-1.78125-1.1875-1.85937 0-2.60937 1.34375-3.14062 3.21875l-.14063.48438H2.64063l-.1875.60937h1.3125L2.04688 2.14063C1.89063 2.89063 1.75 3 1.60938 3c-.15626 0-.39063-.14062-.76563-.75-.10937-.15625-.21875-.375-.4375-.375-.35937 0-.71875.39063-.71875.78125m0 0"/><path id="H" d="M1.59375 0h4.95313v-.45312L5.35938-.5625C5.03125-.59375 4.875-.70312 4.875-1.25v-8.70312l-.09375-.07813-3.17187.54688v.39062l1.28125.17188c.28125.04687.375.15625.375.60937V-1.25c0 .54688-.14063.65625-.48438.6875l-1.1875.10938Zm0 0"/><path id="I" d="M.42188-.17187.59375 0h6.25L7.375-2.10937l-.4375-.07813c-.34375.79688-.60937.90625-1.21875.90625H1.95313C2.20313-2 2.98438-2.98437 4.40625-3.9375c1.5-1 2.5625-1.6875 2.5625-3.3125 0-2.04687-1.40625-2.78125-3.03125-2.78125-2.01562 0-3.15625 1.17188-3.15625 2.0625 0 .53125.60938.78125.92188.78125.29687 0 .4375-.15625.5-.4375.23437-1.03125.78125-1.84375 1.64062-1.84375 1.03125 0 1.35938.89063 1.35938 1.95313 0 1.42187-.64063 2.375-2.01563 3.5625C1.29688-2.34375.64063-1.26562.42188-.17187m0 0"/><path id="p" d="M-.29687 0h2.3125v-.29687l-.54688-.0625C1.15625-.39062 1.10938-.5 1.20313-.78125c.17187-.625.39062-1.28125.64062-2.03125h2.35938l.70312 2.01563C5-.5 4.96875-.375 4.625-.34375l-.48437.04688V0h2.70312v-.29687c-.60937-.0625-.73437-.09375-.92187-.64063L3.70313-7.28125h-.79688L1.8125-4.17187C1.48438-3.25 1.04688-2 .67188-1.03125c-.21876.57813-.3125.6875-.96875.73438Zm2.28125-3.21875C2.3125-4.26562 2.6875-5.29687 3-6.23437h.03125l1.04688 3.01562Zm0 0"/><path id="q" d="M.01563 0h2.01562v-.29687l-.4375-.0625C1.4375-.375 1.4375-.5 1.51563-.60937c.23437-.45313.5625-.95313.92187-1.51563h.03125l.9375 1.46875c.10938.1875.07813.28125-.07812.29688l-.4375.0625V0h2.46875v-.29687c-.46875-.03125-.64063-.0625-.90625-.4375C3.96875-1.4375 3.46875-2.15625 3-2.90625c.34375-.51562.75-1.0625 1.17188-1.54687.26562-.34375.40625-.375.92187-.39063v-.32812H3.125v.32812l.42188.03125c.15625.01563.14062.125.0625.23438-.25.40625-.53125.84375-.84375 1.32812H2.75l-.875-1.3125c-.09375-.125-.0625-.25.09375-.26562l.3125-.01563v-.32812H.09375v.32812c.42188.01563.51563.03125.76563.375.4375.60938.90625 1.29688 1.34375 1.96875-.39063.57813-.79688 1.17188-1.23438 1.73438-.26562.375-.5.42187-.95312.46875Zm0 0"/><path id="r" d="M.51563-2.54687C.51563-.875 1.23438.125 2.95313.125 4.10938.125 4.71875-.53125 5-1.35937l-.3125-.17188c-.29687.625-.70312 1.10938-1.53125 1.10938-1.3125 0-1.5625-1.25-1.54687-2.34375h3.04687c.21875 0 .40625-.0625.40625-.40625 0-.60938-.20312-2.10938-2.125-2.10938-1.65625 0-2.42187 1.15625-2.42187 2.73438m1.10937-.625c0-.4375.15625-1.75 1.25-1.75.98438 0 1.09375 1 1.09375 1.42187 0 .1875-.0625.32813-.35937.32813Zm0 0"/><path id="s" d="M.51563-2.46875C.51563-.92187 1.32813.125 2.71875.125c.57813 0 1.0625-.26562 1.625-.71875v.51563L4.4375 0h1.70313v-.29687c-.75-.0625-.78125-.07813-.78125-.625V-7.75l-.07813-.0625-1.65625.26563v.26562l.39063.03125c.28125.03125.34375.09375.34375.5v1.71875c-.29688-.15625-.6875-.25-1.17188-.25-.85937 0-1.5.28125-1.9375.71875-.45312.46875-.73437 1.17188-.73437 2.09375m1.09375-.125c0-1.375.5-2.32812 1.57812-2.32812.48438 0 .89063.23437 1.07813.67187.09375.17188.09375.32813.09375.60938v1.84375c0 .23437 0 .42187-.0625.59375-.21875.54687-.67188.76562-1.23438.76562-.95312 0-1.45312-.95312-1.45312-2.15625m0 0"/><path id="t" d="M.5-1.76562.60938-.375c.375.32813 1.01562.5 1.625.5C3.5.125 4.21875-.53125 4.21875-1.4375c0-.92187-.57812-1.34375-1.67187-1.67187C2.125-3.25 1.4375-3.46875 1.4375-4.0625c0-.54687.40625-.85937.9375-.85937.75 0 1.10938.59375 1.1875 1.21875h.29688v-1.21875c-.34375-.26563-.875-.35938-1.34375-.35938C1.35938-5.28125.59375-4.75.59375-3.75c0 .875.71875 1.26563 1.59375 1.53125.46875.14063 1.125.375 1.125 1.09375 0 .54688-.40625.875-.96875.875-.85937 0-1.32812-.60937-1.54687-1.51562Zm0 0"/><path id="u" d="M-.0625-4.84375c.51563.01563.625.07813.8125.54688C1.28125-3.03125 2.14063-.8125 2.39063-.07812c.07812.17187.09375.32812.09375.51562 0 .25-.09375.5625-.25.89063-.15625.35937-.35938.45312-.46875.45312-.09376 0-.20313-.03125-.39063-.21875-.09375-.09375-.1875-.15625-.3125-.15625-.20312 0-.45312.29688-.45312.59375 0 .26563.28124.54688.71875.54688.4375 0 .96875-.125 1.5-1.6875.65625-1.875 1.625-4.4375 1.95312-5.17188.1875-.42187.25-.5.78125-.53125v-.32812H3.54688v.32812l.54687.03125c.17188.03125.20313.15625.14063.35938-.15625.64062-.70313 2.21875-1.17188 3.48437h-.01562C2.5625-2.23437 2.14063-3.375 1.75-4.48437c-.0625-.1875-.09375-.3125.15625-.32813l.45313-.03125v-.32812H-.0625Zm0 0"/><path id="v" d="M.34375 0h2.5625v-.29687c-.75-.0625-.78125-.07813-.78125-.625v-2.46875c0-.26563 0-.40625.07813-.54688.1875-.4375.65625-.78125 1.23437-.78125.90625 0 1.01563.65625 1.01563 1.3125v2.48438c0 .54687-.03125.5625-.79688.625V0h2.57813v-.29687c-.75-.0625-.79688-.07813-.79688-.625v-2.46875c0-.26563.01563-.39063.07813-.5625.17187-.42188.60937-.76563 1.20312-.76563.65625 0 1.0625.375 1.0625 1.3125v2.48438c0 .54687-.03125.5625-.79687.625V0H9.5625v-.29687c-.75-.0625-.79687-.07813-.79687-.625v-2.6875c0-1.0625-.5625-1.67188-1.5625-1.67188-.85938 0-1.48438.5625-1.84375.79688-.26563-.48438-.67188-.79688-1.40625-.79688-.8125 0-1.46875.53125-1.82813.79688l-.10937-.79688-1.625.26563v.25l.39062.0625c.26563.04687.34375.09375.34375.46875v3.3125c0 .54687-.03125.5625-.78125.625Zm0 0"/><path id="w" d="m2.125-5.92187.15625.21875 1.57813-.89063c.3125-.15625.59375-.34375.59375-.5625s-.25-.46875-.40625-.46875c-.1875 0-.35938.125-.67188.4375Zm-1.60937 3.375C.51563-.875 1.23438.125 2.95313.125 4.10938.125 4.71875-.53125 5-1.35937l-.3125-.17188c-.29687.625-.70312 1.10938-1.53125 1.10938-1.3125 0-1.5625-1.25-1.54687-2.34375h3.04687c.21875 0 .40625-.0625.40625-.40625 0-.60938-.20312-2.10938-2.125-2.10938-1.65625 0-2.42187 1.15625-2.42187 2.73438m1.10937-.625c0-.4375.15625-1.75 1.25-1.75.98438 0 1.09375 1 1.09375 1.42187 0 .1875-.0625.32813-.35937.32813Zm0 0"/><path id="x" d="M.32813-4.73437h.76562v3.65625C1.09375 0 1.875.125 2.25.125c.54688 0 1.04688-.26562 1.34375-.46875L3.51563-.5625c-.25.10938-.48438.14063-.75.14063-.35938 0-.6875-.26563-.6875-1.0625v-3.25h1.34375v-.4375H2.07813v-1.3125h-.3125L1.125-5.17187H.32813Zm0 0"/><path id="y" d="M.34375 0h2.76563v-.29687c-.9375-.0625-.98438-.07813-.98438-.625v-2.46875c0-.79688.34375-1.07813.59375-1.07813.17188 0 .34375.0625.65625.23438.07813.04687.15625.0625.20313.0625.26562 0 .48437-.28125.48437-.59375 0-.23438-.14062-.51563-.5625-.51563-.375 0-.6875.21875-1.375.82813L2-5.28125l-1.60937.26563v.25l.39062.0625c.26563.04687.34375.09375.34375.46875v3.3125c0 .54687-.04687.5625-.78125.625Zm0 0"/><path id="z" d="M.96875-6.89062c0 .375.26563.65625.64063.65625.39062 0 .64062-.28125.64062-.65625s-.25-.64063-.64062-.64063c-.375 0-.64063.26563-.64063.64063M.34375 0h2.5625v-.29687c-.75-.0625-.78125-.07813-.78125-.625v-4.29688l-.09375-.0625-1.64062.26563v.25l.39062.0625c.26563.04687.34375.09375.34375.46875v3.3125c0 .54687-.03125.5625-.78125.625Zm0 0"/><path id="A" d="M.375-.46875c0 .32813.28125.59375.75.59375.70313 0 1.09375-.64062 1.5-1.34375l.40625-.6875h.01563l.17187.78125c.1875.78125.40625 1.25.98438 1.25.875 0 1.35937-.85937 1.67187-1.625l-.28125-.14062C5.32813-1.125 5.01563-.5625 4.73438-.5625c-.1875 0-.26563-.20312-.4375-.92187L3.90625-3.0625c.32813-.60937.76563-1.29687 1.0625-1.29687.3125 0 .40625.20312.71875.20312.26563 0 .5-.26562.5-.60937 0-.35938-.26562-.51563-.57812-.51563-.51563 0-.96875.39063-1.34375.96875l-.46875.73438h-.01563L3.39063-5.25l-.0625-.03125-1.9375.51563.01562.29687.75-.04687c.20313 0 .28125.0625.375.4375l.375 1.60937-.28125.51563c-.35937.65625-.70312 1.14062-.9375 1.14062-.3125 0-.42187-.29687-.76562-.29687-.29688 0-.54688.3125-.54688.64062m0 0"/><path id="B" d="M.89063-1.40625H6.6875v-.78125H.89063Zm0-2.34375H6.6875v-.78125H.89063Zm0 0"/><path id="C" d="M1.14063 0h3.59375v-.34375l-.8125-.07812c-.23438-.01563-.34375-.09375-.34375-.46875v-6.20313L3.5-7.15625l-2.32812.375v.3125L2-6.35937c.23438.04687.3125.125.3125.46875v5c0 .375-.10937.45312-.35937.46875l-.8125.07812Zm0 0"/><path id="D" d="M.89063-2.59375h2.51562v2.51563h.76563v-2.51563H6.6875v-.76562H4.17188V-5.875h-.76563v2.51563H.89063Zm0 0"/><path id="E" d="M.32813-.14062.45313 0H5l.40625-1.59375-.34375-.04687c-.25.54687-.45312.625-.875.625H1.51563c.17187-.46875.65625-1.14063 1.71875-1.8125 1.10937-.70313 1.85937-1.20313 1.85937-2.34375 0-1.46875-1.01562-1.98438-2.21875-1.98438-1.42187 0-2.3125.78125-2.3125 1.5 0 .40625.46875.59375.71875.59375.20313 0 .32813-.10937.375-.34375C1.82813-6.17187 2.20313-6.75 2.79688-6.75c.6875 0 .92187.60938.92187 1.35938 0 .9375-.375 1.65625-1.40625 2.51562C.9375-1.6875.45313-.90625.32813-.14062m0 0"/><clipPath id="a"><path d="M9 .01563h383.64453V255.8164H9Zm0 0"/></clipPath><clipPath id="i"><path d="M374 147h18.64453v26H374Zm0 0"/></clipPath><clipPath id="j"><path d="M41 6h2v249.8164h-2Zm0 0"/></clipPath><clipPath id="k"><path d="M28 .01563h27V18H28Zm0 0"/></clipPath><clipPath id="l"><path d="M9.74219.41016H392.25V235H9.74219Zm0 0"/></clipPath><clipPath id="o"><path d="M200 .01563h2V255.8164h-2Zm0 0"/></clipPath></defs><g clip-path="url(#a)"><path fill="none" stroke="#000" stroke-miterlimit="10" stroke-opacity=".5" stroke-width=".39832" d="M9.74219 223.54296h382.50778M9.7422 159.78906h382.50778M9.7422 96.03906h382.50778M9.7422 32.28908h382.50778M41.6172 255.41797V.41016m63.7539 255.0078V.41016m63.75 255.0078V.41016m63.74999 255.0078V.41016m63.7539 255.0078V.41016m63.75 255.0078V.41016"/></g><path fill="none" stroke="#000" stroke-miterlimit="10" stroke-opacity=".5" stroke-width=".39832" d="M105.37109 143.85156v31.875"/><use xlink:href="#b" x="100.34753" y="182.17093" fill-opacity=".5"/><path fill="none" stroke="#000" stroke-miterlimit="10" stroke-opacity=".5" stroke-width=".39832" d="M169.12108 143.85156v31.875"/><use xlink:href="#c" x="164.09764" y="182.17093" fill-opacity=".5"/><path fill="none" stroke="#000" stroke-miterlimit="10" stroke-opacity=".5" stroke-width=".39832" d="M232.87108 143.85156v31.875"/><use xlink:href="#d" x="227.84876" y="182.05998" fill-opacity=".5"/><path fill="none" stroke="#000" stroke-miterlimit="10" stroke-opacity=".5" stroke-width=".39832" d="M296.62498 143.85156v31.875"/><use xlink:href="#e" x="291.59887" y="182.05998" fill-opacity=".5"/><path fill="none" stroke="#000" stroke-miterlimit="10" stroke-opacity=".5" stroke-width=".39832" d="M360.37498 143.85156v31.875"/><use xlink:href="#f" x="355.34998" y="181.94904" fill-opacity=".5"/><path fill="none" stroke="#000" stroke-miterlimit="10" stroke-opacity=".5" stroke-width=".39832" d="M57.55469 223.54296h-31.875"/><g fill-opacity=".5"><use xlink:href="#g" x="7.46762" y="229.98327"/><use xlink:href="#b" x="21.0993" y="229.98327"/></g><path fill="none" stroke="#000" stroke-miterlimit="10" stroke-opacity=".5" stroke-width=".39832" d="M57.55469 96.03907h-31.875"/><use xlink:href="#b" x="14.28353" y="102.48204" fill-opacity=".5"/><path fill="none" stroke="#000" stroke-miterlimit="10" stroke-opacity=".5" stroke-width=".39832" d="M57.55469 32.28907h-31.875"/><use xlink:href="#c" x="14.28353" y="38.73193" fill-opacity=".5"/><path fill="none" stroke="#000" stroke-miterlimit="10" stroke-opacity=".5" stroke-width=".39832" d="M41.61719 143.85156v31.875"/><use xlink:href="#h" x="14.28353" y="188.4351" fill-opacity=".5"/><path fill="none" stroke="#000" stroke-miterlimit="10" stroke-width=".79665" d="M9.74219 159.78906H386.0781"/><path d="M390.23828 159.78906c-.51172-.10547-2.75781-.70703-4.16015-1.36328v2.72656c1.40234-.65234 3.64843-1.2578 4.16015-1.36328m0 0"/><g clip-path="url(#i)"><path fill="none" stroke="#000" stroke-miterlimit="10" stroke-width=".79665" d="M390.23828 159.78906c-.51172-.10547-2.75781-.70703-4.16016-1.36328v2.72656c1.40235-.65234 3.64844-1.2578 4.16016-1.36328Zm0 0"/></g><g clip-path="url(#j)"><path fill="none" stroke="#000" stroke-miterlimit="10" stroke-width=".79665" d="M41.61719 255.41796V6.58595"/></g><path d="M41.61719 2.42188c-.10547.51171-.70703 2.7578-1.36328 4.16406h2.72656c-.65234-1.40625-1.25781-3.65235-1.36328-4.16406m0 0"/><g clip-path="url(#k)"><path fill="none" stroke="#000" stroke-miterlimit="10" stroke-width=".79665" d="M41.61719 2.42188c-.10547.51171-.70703 2.7578-1.36328 4.16406h2.72656c-.65234-1.40625-1.25781-3.65235-1.36328-4.16406Zm0 0"/></g><g clip-path="url(#l)"><path fill="none" stroke="#007F7F" stroke-miterlimit="10" stroke-width=".79665" d="M9.74219-350.22262s11.51562 67.32031 15.9375 91.64453 11.51562 61.55858 15.9375 83.67187c4.42187 22.11327 11.51562 55.80468 15.9375 75.70702 4.42578 19.90234 11.51562 50.04297 15.9375 67.73437 4.42578 17.6914 11.51562 44.28906 15.9414 59.76953 4.42188 15.47656 11.51172 38.52734 15.9375 51.79687 4.42187 13.26562 11.51172 32.77343 15.9375 43.82812 4.42187 11.0586 11.51562 27.01562 15.9375 35.85937 4.42187 8.84766 11.51562 21.25781 15.9375 27.89063 4.42187 6.63671 11.51562 15.5 15.9375 19.92578 4.42187 4.42187 11.51562 9.73828 15.9375 11.95312 4.42187 2.21094 11.51562 3.98437 15.9375 3.98437s11.51562-1.77343 15.9375-3.98437c4.42187-2.21484 11.51562-7.53125 15.93749-11.95312 4.42578-4.42579 11.51562-13.28907 15.9375-19.92578 4.42578-6.63282 11.51562-19.04297 15.9414-27.89063 4.42188-8.84375 11.51172-24.80078 15.9375-35.85937 4.42188-11.05469 11.51563-30.5625 15.9375-43.82812 4.42188-13.26953 11.51563-36.32031 15.9375-51.79687 4.42188-15.48047 11.51562-42.07812 15.9375-59.76953 4.42187-17.6914 11.51562-47.83203 15.9375-67.73437s11.51562-53.59375 15.9375-75.70702c4.42187-22.11329 11.51562-59.34766 15.9375-83.67187s15.9375-91.64453 15.9375-91.64453"/></g><use xlink:href="#m" x="303.0147" y="89.27403" fill="#007F7F"/><use xlink:href="#n" x="320.20141" y="94.20379" fill="#007F7F"/><g clip-path="url(#o)"><path fill="none" stroke="#FF7F00" stroke-miterlimit="10" stroke-width=".79665" d="M200.99608 255.41796V.41016"/></g><g fill="#FF7F00"><use xlink:href="#p" x="117.70566" y="46.03812"/><use xlink:href="#q" x="124.38259" y="46.03812"/><use xlink:href="#r" x="129.49111" y="46.03812"/></g><g fill="#FF7F00"><use xlink:href="#s" x="137.26592" y="46.03812"/><use xlink:href="#r" x="143.56194" y="46.03812"/></g><g fill="#FF7F00"><use xlink:href="#t" x="151.32555" y="46.03812"/><use xlink:href="#u" x="155.90753" y="46.03812"/><use xlink:href="#v" x="161.22891" y="46.03812"/></g><g fill="#FF7F00"><use xlink:href="#w" x="170.95302" y="46.03812"/><use xlink:href="#x" x="176.36401" y="46.03812"/><use xlink:href="#y" x="179.98255" y="46.03812"/></g><g fill="#FF7F00"><use xlink:href="#z" x="184.15003" y="46.03812"/><use xlink:href="#r" x="187.20842" y="46.03812"/></g><use xlink:href="#A" x="135.12627" y="59.48253" fill="#FF7F00"/><use xlink:href="#B" x="144.18941" y="59.48253" fill="#FF7F00"/><use xlink:href="#A" x="156.64677" y="52.55342" fill="#FF7F00"/><use xlink:href="#C" x="163.06536" y="55.58954" fill="#FF7F00"/><g fill="#FF7F00"><use xlink:href="#D" x="169.50644" y="52.55342"/><use xlink:href="#A" x="177.0796" y="52.55342"/></g><use xlink:href="#E" x="183.4996" y="55.58954" fill="#FF7F00"/><path fill="none" stroke="#FF7F00" stroke-miterlimit="10" stroke-width=".61622" d="M156.64844 56.51562h33.29297"/><use xlink:href="#E" x="170.40828" y="64.59671" fill="#FF7F00"/><use xlink:href="#F" x="129.67024" y="165.0217" fill="#EC008C"/><use xlink:href="#G" x="126.40072" y="146.9449" fill="#EC008C"/><use xlink:href="#H" x="138.79036" y="151.87466" fill="#EC008C"/><use xlink:href="#F" x="257.17147" y="165.0217" fill="#EC008C"/><use xlink:href="#G" x="253.90195" y="146.9449" fill="#EC008C"/><use xlink:href="#I" x="266.29158" y="151.87466" fill="#EC008C"/></svg>