<svg xmlns="http://www.w3.org/2000/svg" xmlns:xlink="http://www.w3.org/1999/xlink" width="177.962pt" height="109.176pt" viewBox="0 0 177.962 109.176"><defs><path id="b" d="M.4375-3.5c0 2.09375.60938 3.625 2.32813 3.625C4.5.125 5.125-1.40625 5.125-3.5c0-2.07812-.625-3.60937-2.35937-3.60937C1.04688-7.10937.4375-5.57812.4375-3.5m1.04688 0c0-1.70312.29687-3.23437 1.28125-3.23437 1 0 1.28125 1.53125 1.28125 3.23437S3.76563-.25 2.76563-.25c-.98438 0-1.28125-1.54687-1.28125-3.25m0 0"/><path id="c" d="M.89063-2.64062h5.75v-.625h-5.75Zm0 0"/><path id="d" d="M.28125-.09375.39063 0h4.32812l.35938-1.375-.29688-.0625c-.21875.5625-.4375.64063-.85937.64063H1.25c.17188-.53125.79688-1.28125 1.76563-1.98438 1-.73437 1.78125-1.20312 1.78125-2.375 0-1.45312-.96875-1.95312-2.07813-1.95312-1.42187 0-2.15625.875-2.15625 1.40625 0 .35937.39063.53125.57813.53125s.25-.10938.29687-.29688c.17188-.70312.57813-1.26562 1.21875-1.26562.79688 0 1.03125.65625 1.03125 1.42187 0 1.125-.5625 1.76563-1.46875 2.5625C.92188-1.625.48438-.90625.28125-.09375m0 0"/><path id="e" d="M1.14063 0h3.4375v-.29687L3.6875-.375c-.21875-.03125-.34375-.10937-.34375-.51562v-6.15625l-.04687-.0625-2.15625.375v.25l.96875.125c.1875.01562.25.09375.25.39062v5.07813c0 .40625-.09375.48437-.34375.51562l-.875.07813Zm0 0"/><path id="i" d="M0 1.0625c0 .20313.10938.34375.46875.34375.54688 0 .79688-.40625 1.28125-1.25.125-.1875.46875-.8125.82813-1.40625.32812-.54687.6875-1.10937.6875-1.34375 0-.17187-.0625-.32812-.10938-.32812-.125 0-.34375.04687-.53125.15625 0 0 0 .5625-.0625.79687-.09375.34375-.35937.89063-.75 1.57813h-.01562c-.01563-.875-.14063-2.125-.21876-2.5l-.04687-.03125-1.09375.28125v.15625h.39063c.125 0 .15624.09375.20312.375.0625.45312.21875 1.57812.21875 2.09375 0 .1875-.01562.40625-.10937.65625-.07813.25-.20313.39062-.3125.39062-.21876 0-.25-.375-.48438-.375C.17188.65625 0 .85938 0 1.0625m0 0"/><path id="j" d="M.5-.76562h3.1875v-.4375H.5Zm0-1.3125h3.1875V-2.5H.5Zm0 0"/><path id="k" d="M.42188-.625c0 .34375.15625.6875.5625.6875.65625 0 1.14062-.70312 1.46875-1.28125h.01562L2.29688-.625c-.03125.14063-.04688.25-.04688.34375 0 .23438.10938.34375.35938.34375.48437 0 .82812-.40625 1.04687-.875L3.5-.89062c-.125.21874-.35937.57812-.51562.57812-.0625 0-.09375-.04687-.09375-.10937 0-.04688.01562-.10938.03125-.1875L3.53125-2.875h-.625l-.03125.0625c-.09375-.0625-.26562-.10937-.42187-.10937-1.375 0-2.03125 1.53125-2.03125 2.29687m.71875-.03125c0-.625.54687-2.03125 1.34375-2.03125.14062 0 .25.04688.32812.10938-.10937.42187-.3125 1-.60937 1.45312-.3125.48438-.60938.8125-.84375.8125-.17188 0-.21876-.14062-.21876-.34375m0 0"/><path id="l" d="M.20313-.26562c0 .1875.15625.32812.42187.32812.39063 0 .59375-.34375.82813-.73437l.21874-.375h.01563l.09375.42187C1.875-.1875 2 .0625 2.3125.0625c.48438 0 .76563-.46875.9375-.89062l-.15625-.07813C2.9375-.625 2.76563-.3125 2.625-.3125c-.10937 0-.15625-.10937-.25-.51562l-.21875-.875c.1875-.32813.42188-.70313.57813-.70313.1875 0 .23437.10938.40625.10938.15625 0 .28125-.14063.28125-.32813 0-.20312-.15625-.29687-.32813-.29687-.28125 0-.53125.21875-.73437.54687l-.26563.40625h-.01562L1.875-2.89062l-.03125-.03125L.76563-2.625l.01562.15625L1.1875-2.5c.125 0 .15625.04688.20313.25l.21874.875-.15624.29688c-.20313.35937-.39063.625-.51563.625-.17187 0-.23437-.15625-.4375-.15625-.15625 0-.29687.17187-.29687.34375m0 0"/><path id="m" d="M.17188-.07812.25 0h2.51563l.21875-.875-.1875-.03125c-.14063.3125-.25.34375-.48438.34375H.82813c.09374-.25.375-.625.95312-1 .625-.39062 1.03125-.67187 1.03125-1.29687 0-.8125-.5625-1.09375-1.23437-1.09375-.78125 0-1.26563.4375-1.26563.82812 0 .21875.25.32813.40625.32813.10938 0 .17188-.0625.20313-.1875.09374-.42188.29687-.73438.625-.73438.375 0 .5.32813.5.75 0 .5-.20313.90625-.76563 1.39063C.51563-.9375.25-.5.17188-.07812m0 0"/><path id="o" d="M.5-1.42187h1.375v1.375h.4375v-1.375h1.375v-.4375h-1.375V-3.25H1.875v1.39063H.5Zm0 0"/><path id="p" d="M.5-.875c0 .70313.42188.9375.875.9375.4375 0 .95313-.17187 1.35938-.90625l-.14063-.125c-.21875.3125-.53125.70313-.92187.70313-.35938 0-.45313-.29688-.45313-.6875 0-.78125.42188-1.73438.875-1.73438.15625 0 .25.09375.3125.42188.03125.125.0625.23437.20313.23437.17187 0 .42187-.15625.42187-.34375 0-.32812-.3125-.54687-.79687-.54687C1.125-2.92187.5-1.8125.5-.875m0 0"/><path id="q" d="M.125-3.0625h.17188c.07812-.625.20312-.76562.875-.76562h.34375v3.29687c0 .32813-.01563.32813-.64063.35938V0h1.85938v-.17187c-.625-.03126-.64063-.03126-.64063-.35938v-3.29687h.34375c.6875 0 .8125.14062.875.76562h.17188v-.95312H.125Zm0 0"/><path id="r" d="M.1875 0h1.53125v-.17187C1.20313-.20313 1.17188-.20313 1.17188-.5v-1.375c0-.4375.20312-.59375.32812-.59375.09375 0 .20313.03125.35938.125.04687.03125.09374.03125.125.03125.14062 0 .26562-.14062.26562-.32812 0-.125-.07812-.28125-.3125-.28125-.21875 0-.39062.125-.76562.46875l-.07813-.46875-.875.15625v.14062l.21875.03125c.14063.01563.1875.04688.1875.25V-.5c0 .29688-.03125.29688-.4375.32813Zm0 0"/><path id="s" d="M.28125-.75c0 .42188.29688.8125.84375.8125.32813 0 .67188-.21875.85938-.34375.07812.21875.1875.34375.39062.34375.21875 0 .45313-.0625.6875-.17187l-.04687-.125c-.07813.01562-.20313.01562-.29688 0-.09375-.03126-.20312-.14063-.20312-.5v-1.40625c0-.34375-.07813-.78125-.95313-.78125-.65625 0-1.17187.34375-1.17187.65625 0 .1875.21875.28125.32812.28125.125 0 .15625-.0625.1875-.15626.125-.4375.35938-.57812.59375-.57812s.5.125.5.57813v.25c-.15625.14062-.71875.29687-1.17187.4375C.40625-1.3125.28124-1.03125.28124-.75M.875-.82812c0-.28126.125-.42188.45313-.54688.23437-.07812.53125-.20312.67187-.28125v.82813c0 .46875-.35937.59375-.59375.59375C1.04688-.23437.875-.5.875-.82812m0 0"/><path id="t" d="M.1875 0h1.42188v-.17187C1.1875-.20313 1.17188-.20313 1.17188-.5v-1.375c0-.14062 0-.21875.04687-.3125.125-.21875.39063-.42187.70313-.42187.39062 0 .60937.21875.60937.73437V-.5c0 .29688-.01562.29688-.4375.32813V0h1.42188v-.17187c-.42188-.03126-.4375-.03126-.4375-.32813V-2c0-.57812-.32813-.92187-.85938-.92187-.4375 0-.70312.21875-1.0625.45312l-.07812-.45312-.85938.15625v.14062l.21875.03125c.14063.01563.1875.04688.1875.25V-.5c0 .29688-.01562.29688-.4375.32813Zm0 0"/><path id="u" d="m.26563-.96875.0625.76563c.21875.17187.5625.26562.90625.26562.70312 0 1.09375-.35937 1.09375-.85937 0-.51563-.3125-.73438-.92188-.92188C1.17188-1.79687.79688-1.92187.79688-2.25c0-.29687.21874-.46875.51562-.46875.40625 0 .60938.32813.65625.67188h.17188v-.67188c-.20313-.14062-.5-.20312-.75-.20312-.64063 0-1.0625.29687-1.0625.84375 0 .48437.39062.70312.875.85937.26562.07813.625.20313.625.59375 0 .29688-.21876.48438-.53125.48438-.46875 0-.73438-.32813-.85938-.82813Zm0 0"/><path id="v" d="M.125 0h1.40625v-.17187C1.125-.20313 1.09375-.20313 1.09375-.5v-3.78125L1.0625-4.3125l-.90625.14063v.15625L.35938-4c.15625.01563.1875.04688.1875.26563V-.5c0 .29688-.01563.29688-.42188.32813Zm0 0"/><path id="w" d="M.17188-2.625h.42187v2.03125C.59375 0 1.04688.0625 1.25.0625c.29688 0 .5625-.14062.73438-.25l-.04688-.125c-.14062.0625-.26562.07813-.40625.07813-.20312 0-.39062-.14063-.39062-.57813V-2.625h.75v-.23437h-.75v-.71875H.98437L.625-2.85937H.17188Zm0 0"/><path id="x" d="M.53125-3.8125c0 .21875.15625.35938.35938.35938S1.25-3.59375 1.25-3.8125c0-.20312-.15625-.34375-.35937-.34375s-.35938.14063-.35938.34375M.1875 0h1.42188v-.17187C1.1875-.20313 1.17188-.20313 1.17188-.5v-2.39062L1.125-2.92187l-.90625.15625v.14062l.21875.03125c.14063.01563.1875.04688.1875.25V-.5c0 .29688-.01562.29688-.4375.32813Zm0 0"/><path id="y" d="M.28125-1.42187C.28125-.48437.75.0625 1.6875.0625s1.39063-.54687 1.39063-1.48437-.45313-1.5-1.39063-1.5-1.40625.5625-1.40625 1.5m.60938 0c0-.8125.26562-1.29688.79687-1.29688s.78125.48438.78125 1.29688c0 .79687-.25 1.28125-.78125 1.28125S.89063-.625.89063-1.42187m0 0"/><path id="z" d="M.28125-1.375C.28125-.5.73438.0625 1.5.0625c.3125 0 .57813-.14062.90625-.39062v.28125L2.45313 0h.9375v-.17187c-.42188-.03126-.4375-.03126-.4375-.32813v-3.78125l-.03125-.03125L2-4.17187v.15625L2.21875-4c.15625.01563.1875.04688.1875.26563v.95312c-.15625-.07812-.375-.14062-.64062-.14062-.48438 0-.84375.15625-1.07813.40625-.25.25-.40625.64062-.40625 1.14062m.60938-.0625c0-.75.26562-1.28125.85937-1.28125.28125 0 .5.125.60938.375.04687.09375.04687.17188.04687.32813v1.03125c0 .125 0 .21874-.03125.32812-.125.29688-.375.42188-.67187.42188-.54688 0-.8125-.53125-.8125-1.20313m0 0"/><path id="A" d="M.28125-1.40625C.28125-.48437.6875.0625 1.625.0625c.64063 0 .98438-.35937 1.14063-.8125l-.17188-.09375C2.42188-.5 2.20313-.23437 1.75-.23437c-.73437 0-.875-.6875-.85937-1.29688H2.5625c.125 0 .23438-.03125.23438-.21875 0-.34375-.10938-1.17187-1.17188-1.17187-.90625 0-1.34375.64062-1.34375 1.51562M.89063-1.75c0-.25.09374-.96875.70312-.96875.53125 0 .59375.54688.59375.78125 0 .10938-.03125.1875-.1875.1875Zm0 0"/><path id="B" d="M0-2.67187c.28125.01562.32813.03125.42188.25.15625.39062.28125.76562.4375 1.17187L1.3125 0h.40625l.51563-1.40625c.17187-.45312.34375-.84375.42187-1.03125.09375-.20312.15625-.23437.42188-.23437v-.1875H1.96875v.1875l.29688.01562c.07812.01563.10937.07813.07812.15625-.04687.1875-.15625.53125-.29687.90625l-.375 1.0625h-.01563L1.29688-1.5c-.10938-.34375-.23438-.67187-.34375-.98437-.04688-.10938-.01563-.15625.09374-.17188l.26563-.01562v-.1875H0Zm0 0"/><path id="C" d="M.125 0h1.40625v-.17187C1.125-.20313 1.09375-.21875 1.09375-.5v-1.375c0-.14062 0-.21875.0625-.29687.125-.23438.39063-.4375.6875-.4375.40625 0 .625.21875.625.73437V-.5c0 .28125-.03125.29688-.45312.32813V0H3.4375v-.17187C3.03125-.20313 3-.21875 3-.5V-2c0-.57812-.3125-.92187-.85937-.92187-.42188 0-.6875.20312-1.04688.45312v-1.8125l-.04687-.03125-.89063.14063v.15625L.35938-4c.15625.03125.1875.0625.1875.26563V-.5c0 .28125-.01563.29688-.42188.32813Zm0 0"/><path id="D" d="m.15625-2.625.21875.03125c.14063.01563.1875.04688.1875.25v1.54688c0 .65625.39063.85937.82813.85937.48437 0 .89062-.32812 1.0625-.40625L2.5 0h.9375v-.17187C3.03125-.20313 3-.20313 3-.5v-2.39062l-.04687-.03125-.90625.15625v.14062l.21875.03125c.15625.01563.1875.04688.1875.25v1.3125c0 .17188-.01563.29688-.04688.34375-.14062.26563-.40625.45313-.70312.45313-.34375 0-.59375-.21875-.59375-.67188v-1.98437l-.04688-.03125-.90625.15625Zm0 0"/><clipPath id="a"><path d="M.64844 0h176.6289v107H.64844Zm0 0"/></clipPath><clipPath id="f"><path d="M.64844 87H172v2H.64844Zm0 0"/></clipPath><clipPath id="g"><path d="M159 75h18.27734v26H159Zm0 0"/></clipPath><clipPath id="h"><path d="M1.04297.39453H176.8828V100H1.04297Zm0 0"/></clipPath><clipPath id="n"><path d="M1.04297.39453H176.8828V65H1.04297Zm0 0"/></clipPath></defs><g clip-path="url(#a)"><path fill="none" stroke="#000" stroke-miterlimit="10" stroke-opacity=".5" stroke-width=".39552" d="M1.04298 88.3125H176.8828M1.04298 53.14453H176.8828M1.04298 17.97657H176.8828M18.625 105.89844V.39454m35.16797 105.5039V.39454m35.16797 105.5039V.39454m35.16796 105.5039V.39454m35.16797 105.5039V.39454"/></g><path fill="none" stroke="#000" stroke-miterlimit="10" stroke-opacity=".5" stroke-width=".39552" d="M88.96094 79.52344v17.58203"/><use xlink:href="#b" x="73.88394" y="104.11619" fill-opacity=".5"/><path fill="none" stroke="#000" stroke-miterlimit="10" stroke-opacity=".5" stroke-width=".39552" d="M18.625 79.52344v17.58203"/><g fill-opacity=".5"><use xlink:href="#c" x="12.09728" y="100.66027"/><use xlink:href="#d" x="19.61711" y="100.66027"/></g><path fill="none" stroke="#000" stroke-miterlimit="10" stroke-opacity=".5" stroke-width=".39552" d="M53.79297 79.52344v17.58203"/><g fill-opacity=".5"><use xlink:href="#c" x="47.26485" y="100.66027"/><use xlink:href="#e" x="54.78469" y="100.66027"/></g><path fill="none" stroke="#000" stroke-miterlimit="10" stroke-opacity=".5" stroke-width=".39552" d="M124.1289 79.52344v17.58203"/><use xlink:href="#e" x="121.35962" y="100.66027" fill-opacity=".5"/><path fill="none" stroke="#000" stroke-miterlimit="10" stroke-opacity=".5" stroke-width=".39552" d="M159.29687 79.52344v17.58203"/><use xlink:href="#d" x="156.5272" y="100.66027" fill-opacity=".5"/><g clip-path="url(#f)"><path fill="none" stroke="#000" stroke-miterlimit="10" stroke-width=".79104" d="M1.04298 88.3125h169.70701"/></g><path d="M174.88672 88.3125c-.50781-.10547-2.74219-.70312-4.13672-1.35156v2.70703c1.39453-.64844 3.6289-1.2461 4.13672-1.35547m0 0"/><g clip-path="url(#g)"><path fill="none" stroke="#000" stroke-miterlimit="10" stroke-width=".79104" d="M174.88672 88.3125c-.50781-.10547-2.74219-.70313-4.13672-1.35156v2.70703c1.39453-.64844 3.6289-1.2461 4.13672-1.35547Zm0 0"/></g><path fill="none" stroke="#000" stroke-miterlimit="10" stroke-opacity=".5" stroke-width=".39552" d="M97.7539 53.14453H80.17188"/><use xlink:href="#e" x="73.88394" y="56.70105" fill-opacity=".5"/><path fill="none" stroke="#000" stroke-miterlimit="10" stroke-opacity=".5" stroke-width=".39552" d="M97.7539 17.97657H80.17188"/><use xlink:href="#d" x="73.88394" y="21.53348" fill-opacity=".5"/><path fill="none" stroke="#000" stroke-miterlimit="10" stroke-width=".79104" d="M88.96094 105.89844v-99.375"/><path stroke="#000" stroke-miterlimit="10" stroke-width=".79104" d="M88.96094 2.39062c-.10547.50782-.70313 2.73829-1.35156 4.13282h2.70703c-.65235-1.39453-1.25-3.625-1.35547-4.13282Zm0 0"/><g clip-path="url(#h)"><path fill="none" stroke="#007F7F" stroke-miterlimit="10" stroke-width=".79104" d="M1.04298-131.48436s5.29296 25.78516 7.32421 35.10547c2.03516 9.3164 5.29297 23.58203 7.32813 32.05469 2.03125 8.46874 5.29297 21.375 7.32422 29 2.03515 7.625 5.29687 19.17187 7.32812 25.9492 2.03516 6.77735 5.29297 16.96485 7.32813 22.89454C39.70704 19.44922 42.96875 28.27734 45 33.36329c2.03516 5.08203 5.29297 12.55468 7.32813 16.78906C54.35938 54.38672 57.6211 60.5 59.65235 63.89063c2.03515 3.38672 5.29687 8.14453 7.32812 10.68359 2.03125 2.54297 5.29297 5.9375 7.32813 7.63281 2.03124 1.69531 5.29296 3.73438 7.32421 4.58203 2.03516.84766 5.29297 1.52344 7.32813 1.52344 2.03125.0039 5.29297-.67578 7.32422-1.52344 2.03515-.84765 5.29296-2.88281 7.32812-4.57812 2.03125-1.69532 5.29297-5.08985 7.32812-7.6289 2.03125-2.54298 5.29297-7.29688 7.32422-10.6836 2.03516-3.39063 5.29297-9.5039 7.32813-13.73828 2.03125-4.23437 5.29296-11.70703 7.32421-16.78906 2.03516-5.08203 5.29297-13.91016 7.32813-19.83984 2.03125-5.92969 5.29297-16.11719 7.32422-22.89453 2.03515-6.77735 5.29687-18.32031 7.32812-25.94531s5.29297-20.52734 7.32813-29c2.03125-8.46875 5.29296-22.73437 7.32421-32.05078 2.03516-9.3164 7.32813-35.10546 7.32813-35.10546"/></g><use xlink:href="#i" x="140.80586" y="26.72827" fill="#007F7F"/><use xlink:href="#j" x="145.62626" y="26.72827" fill="#007F7F"/><use xlink:href="#k" x="151.00905" y="26.72827" fill="#007F7F"/><use xlink:href="#l" x="155.16819" y="26.72827" fill="#007F7F"/><use xlink:href="#m" x="158.97497" y="24.25692" fill="#007F7F"/><g clip-path="url(#n)"><path fill="none" stroke="#FF7F00" stroke-miterlimit="10" stroke-width=".79104" d="M1.04298-166.65232s5.29296 25.78515 7.32421 35.10546c2.03516 9.31641 5.29297 23.58203 7.32813 32.05078 2.03125 8.47266 5.29297 21.3789 7.32422 29.0039 2.03515 7.625 5.29687 19.17188 7.32812 25.94922 2.03516 6.77344 5.29297 16.96485 7.32813 22.89453C39.70704-15.71874 42.96875-6.89062 45-1.80468c2.03516 5.08203 5.29297 12.55469 7.32813 16.78906 2.03125 4.23438 5.29297 10.34766 7.32422 13.73828 2.03515 3.38672 5.29687 8.14453 7.32812 10.6836 2.03125 2.54296 5.29297 5.9375 7.32813 7.6328 2.03124 1.69532 5.29296 3.73438 7.32421 4.58204 2.03516.84765 5.29297 1.52343 7.32813 1.52343 2.03125.00391 5.29297-.67578 7.32422-1.52343 2.03515-.84766 5.29296-2.88282 7.32812-4.57813 2.03125-1.69531 5.29297-5.08984 7.32812-7.6289 2.03125-2.54297 5.29297-7.29688 7.32422-10.6836 2.03516-3.39062 5.29297-9.5039 7.32813-13.73828 2.03125-4.23437 5.29296-11.70703 7.32421-16.78906 2.03516-5.08203 5.29297-13.91015 7.32813-19.83984 2.03125-5.92969 5.29297-16.11719 7.32422-22.89453 2.03515-6.77734 5.29687-18.3203 7.32812-25.9453s5.29297-20.52735 7.32813-29c2.03125-8.46875 5.29296-22.73438 7.32421-32.05078 2.03516-9.32032 7.32813-35.10547 7.32813-35.10547"/></g><use xlink:href="#i" x="85.34742" y="27.17291" fill="#FF7F00"/><use xlink:href="#j" x="90.16783" y="27.17291" fill="#FF7F00"/><use xlink:href="#k" x="95.55061" y="27.17291" fill="#FF7F00"/><use xlink:href="#l" x="99.70976" y="27.17291" fill="#FF7F00"/><use xlink:href="#m" x="103.5153" y="24.70033" fill="#FF7F00"/><use xlink:href="#o" x="107.92701" y="27.17291" fill="#FF7F00"/><use xlink:href="#p" x="112.96371" y="27.17291" fill="#FF7F00"/><path fill="none" stroke="#EC008C" stroke-miterlimit="10" stroke-width=".79104" d="M88.96094 88.3125V59.27735"/><path fill="#EC008C" stroke="#EC008C" stroke-miterlimit="10" stroke-width=".79104" d="M88.96094 55.14453c-.10547.50781-.70313 2.73828-1.35156 4.13281h2.70703c-.65235-1.39453-1.25-3.625-1.35547-4.1328Zm0 0"/><use xlink:href="#q" x="93.57632" y="64.19847" fill="#EC008C"/><use xlink:href="#r" x="96.7034" y="64.19847" fill="#EC008C"/><g fill="#EC008C"><use xlink:href="#s" x="98.90348" y="64.19847"/><use xlink:href="#t" x="101.93787" y="64.19847"/><use xlink:href="#u" x="105.52845" y="64.19847"/><use xlink:href="#v" x="108.05607" y="64.19847"/><use xlink:href="#s" x="109.67524" y="64.19847"/><use xlink:href="#w" x="112.70962" y="64.19847"/><use xlink:href="#x" x="114.70576" y="64.19847"/><use xlink:href="#y" x="116.3929" y="64.19847"/><use xlink:href="#t" x="119.74247" y="64.19847"/></g><g fill="#EC008C"><use xlink:href="#z" x="124.63703" y="64.19847"/><use xlink:href="#A" x="128.1102" y="64.19847"/></g><use xlink:href="#p" x="132.39955" y="64.19847" fill="#EC008C"/><use xlink:href="#B" x="93.57632" y="81.50286" fill="#EC008C"/><g fill="#EC008C"><use xlink:href="#A" x="96.46856" y="81.50286"/><use xlink:href="#r" x="99.4535" y="81.50286"/><use xlink:href="#u" x="101.70921" y="81.50286"/></g><g fill="#EC008C"><use xlink:href="#v" x="105.54081" y="81.50286"/><use xlink:href="#A" x="107.15997" y="81.50286"/></g><g fill="#EC008C"><use xlink:href="#C" x="111.4489" y="81.50286"/><use xlink:href="#s" x="114.9715" y="81.50286"/><use xlink:href="#D" x="118.00588" y="81.50286"/><use xlink:href="#w" x="121.52231" y="81.50286"/></g></svg>