<svg xmlns="http://www.w3.org/2000/svg" xmlns:xlink="http://www.w3.org/1999/xlink" width="450.399pt" height="71.265pt" viewBox="0 0 450.399 71.265"><defs><path id="f" d="M-.125-7.57812c.59375.01562.73438.09375.89063.59375L3.09375 0H4.5625l1.375-4.04687c.4375-1.26563.84375-2.39063 1.01563-2.84375.23437-.5625.32812-.64063.98437-.6875v-.4375H5.25v.4375l.65625.0625c.23438.01562.26563.125.20313.375-.125.39062-.375 1.34375-.71875 2.42187-.23438.70313-.75 2.40625-.95313 3H4.375l-1.73437-5.375c-.07813-.25-.0625-.40625.20312-.42187l.5625-.0625v-.4375H-.125Zm0 0"/><path id="g" d="M.5625-1.54687c0 .85937.54688 1.6875 1.71875 1.6875.73438 0 1.25-.40625 1.65625-.67188.15625.35938.35938.67188.92188.67188.60937 0 1.3125-.20313 1.70312-.34375l-.01562-.39063c-.15625.01563-.40625 0-.57813-.0625-.15625-.04687-.375-.1875-.375-.85937V-4.1875c0-.73437-.09375-1.625-2.14062-1.625C1.75-5.8125.6875-5.14062.6875-4.39062c0 .5.75.73437 1.03125.73437.26563 0 .39063-.1875.5-.46875.32813-.98437.70313-1.15625 1.03125-1.15625.32813 0 .64063.1875.64063.85938v.60937C3.48438-3.53125 2.53125-3.25 1.78125-3 .85938-2.67187.5625-2.21875.5625-1.54687m1.75-.1875c0-.54688.20313-.8125.54688-1.01563.35937-.20312.75-.35937 1.03125-.48437v1.6875c-.01563.625-.375.78125-.70313.78125-.45312 0-.875-.35938-.875-.96875m0 0"/><path id="h" d="M.28125 0h3.25v-.4375c-.65625-.04687-.73437-.09375-.73437-.57812v-7.5l-.09375-.07813-2.32813.3125v.42188l.39063.0625c.1875.03125.26562.125.26562.59375v6.1875c0 .48437-.07812.53125-.75.57812Zm0 0"/><path id="i" d="M.45313-2.82812c0 1.57812.6875 2.96875 2.84375 2.96875 1.375 0 2.125-.67188 2.51562-1.6875l-.40625-.23438C5.04688-1.125 4.5625-.75 3.85938-.75c-1.15625 0-1.5625-.95312-1.5625-2.17187h3c.42187 0 .625-.10938.625-.48438 0-.95312-.375-2.40625-2.60938-2.40625-2.07812 0-2.85937 1.34375-2.85937 2.98438m1.84375-.64063c0-.84375.21875-1.8125.96875-1.8125.70312 0 .82812.875.82812 1.42188 0 .32812-.09375.39062-.35937.39062Zm0 0"/><path id="j" d="M.34375-5.0625.75-5c.1875.01563.26563.10938.26563.57813v2.8125c0 1.35937.82812 1.75 1.67187 1.75.98438 0 1.59375-.53125 2.0625-.79688L4.84375 0H7.25v-.4375c-.67187-.04687-.73437-.09375-.73437-.57812V-5.75l-.10938-.0625-2.34375.32813v.42187L4.46875-5c.1875.01563.28125.10938.28125.57813v2.45312c0 .1875-.01562.48438-.09375.65625-.10937.26563-.42187.53125-.92187.53125-.60938 0-.96875-.35937-.96875-1.25V-5.75l-.09375-.0625-2.32813.32813Zm0 0"/><path id="k" d="M.375 0h3.5v-.4375C2.98438-.5 2.85938-.53125 2.85938-1.01562v-2.57813c0-.59375.10937-.875.39062-.875.1875 0 .35938.09375.625.23438.14063.10937.29688.1875.53125.1875S4.875-4.17187 5-4.34375C5.10938-4.51562 5.17188-4.75 5.17188-5c0-.5-.3125-.8125-.79688-.8125-.48437 0-.84375.3125-1.53125 1.01563L2.6875-5.8125l-2.25.32813v.42187L.84375-5c.17188.01563.28125.10938.28125.57813v3.40625c0 .48437-.09375.53125-.75.57812Zm0 0"/><path id="l" d="M.45313-2.73437c0 1.6875.875 2.875 2.34375 2.875.4375 0 1.04687-.23438 1.67187-.71875V0h2.5v-.4375c-.67187-.04687-.75-.09375-.75-.57812v-7.5l-.07812-.07813-2.35938.3125v.42188l.40625.0625c.1875.03125.28125.125.28125.59375v1.53125c-.25-.10938-.57812-.14063-.98437-.14063-.85938 0-1.64063.25-2.17188.75S.45313-3.78125.45313-2.73437m1.84375-.23438c0-1.70312.64062-2.3125 1.29687-2.3125.4375 0 .67188.23438.78125.46875.10938.17188.09375.40625.09375.65625v2.39063c0 .46875-.17187 1.01562-.90625 1.01562-.75 0-1.26562-.73437-1.26562-2.21875m0 0"/><path id="n" d="m.5625-2.60937.17188 2.0625C1.32813 0 2.48438.17188 3.25.17188 5.5625.14061 6.23438-1.09375 6.23438-2.3125c0-1.51562-1.125-2.10937-2.17188-2.5625-.76562-.3125-1.75-.73437-1.75-1.60937 0-.73438.51563-1.17188 1.21875-1.17188.73438 0 1.45313.51563 1.76563 1.875h.42187V-7.6875c-.60937-.35937-1.48437-.51562-2.1875-.51562-1.95312 0-2.875 1.01562-2.875 2.39062 0 1.4375 1.28125 2.04688 2.29688 2.48438C4.01563-2.89062 4.5-2.35937 4.5-1.625c-.01562.85938-.5625 1.26563-1.3125 1.26563-.875 0-1.75-.79688-2.20312-2.25Zm0 0"/><path id="o" d="M.875-7.32812c0 .54687.39063 1.01562 1.04688 1.01562.64062 0 1.09375-.46875 1.09375-1.01562 0-.54688-.42188-1.01563-1.09375-1.01563C1.26563-8.34375.875-7.875.875-7.32812M.375 0h3.26563v-.4375c-.67188-.04687-.78125-.09375-.78125-.57812V-5.75l-.0625-.0625-2.35938.32813v.42187L.84375-5c.17188.01563.28125.10938.28125.57813v3.40625c0 .48437-.09375.53125-.75.57812Zm0 0"/><path id="p" d="M.375 1.10938c0 1.125 1.20313 1.6875 2.85938 1.6875.5 0 1.34375-.09375 1.92187-.42188.64063-.32812 1.0625-.9375 1.0625-1.76562 0-1.39063-1.0625-1.82813-2.28125-1.82813H2.85938c-.5625 0-.78125-.1875-.78125-.39062 0-.26563.29687-.39063.46875-.42188.21875.01563.39062.01563.51562.01563 1.375 0 2.60938-.5 2.60938-1.875 0-.34375-.14063-.70313-.28125-.90625l.76562-.14063.23438-.875-.10938-.125-1.46875.5c-.39062-.21875-1.03125-.375-1.65625-.375C1.07813-5.8125.45313-4.75.45313-3.84375c0 .95313.71875 1.53125 1.42187 1.65625v.01563c-.75.1875-1.25.60937-1.25 1.07812 0 .5.57813.96875 1.07813 1.07813v.03125C1.21875.125.375.32813.375 1.10938M1.90625 1c0-.32812.15625-.53125.3125-.64062C2.375.25 2.73438.1875 3.25.1875c.98438 0 1.5625.21875 1.5625.92188 0 .82812-.64062 1.15625-1.40625 1.15625-.78125 0-1.5-.4375-1.5-1.26563m.35938-4.89062c0-.98438.40625-1.39063.875-1.39063.45312 0 .875.40625.875 1.39063 0 .82812-.35938 1.34375-.89063 1.34375-.48437 0-.85937-.53125-.85937-1.34375m0 0"/><path id="q" d="M.375 0h3.09375v-.4375L3.25-.46875c-.23437-.03125-.39062-.0625-.39062-.4375v-2.76562c0-.26563.04687-.51563.14062-.6875.14063-.28125.45313-.57813.9375-.57813.59375 0 .89063.375.92188 1.0625v2.96875c0 .375-.125.40625-.375.4375l-.25.03125V0h3.125v-.4375c-.67188-.04687-.76563-.09375-.76563-.57812v-3.01563C6.57813-5.10937 6.04688-5.8125 4.85938-5.8125c-.6875 0-1.23438.34375-2 .79688l-.14063-.79688-2.28125.32813v.42187L.84375-5c.17188.01563.28125.10938.28125.57813v3.40625c0 .48437-.09375.53125-.75.57812Zm0 0"/><path id="m" d="M.375-.45312c0 .32812.26563.59375.73438.59375.79687 0 1.23437-.79688 1.71875-1.57813l.46875-.75h.01562l.21875.90625C3.75-.35937 3.95313.14063 4.54688.14063c.85937 0 1.29687-.875 1.64062-1.57813l-.29687-.17187c-.28125.53125-.60938 1.14062-.92188 1.14062-.21875 0-.3125-.26562-.5625-1.29687l-.375-1.51563C4.45313-4.01562 5.04688-4.9375 5.375-4.9375c.34375 0 .35938.17188.70313.17188.26562 0 .5-.23438.5-.54688 0-.35937-.28125-.5-.59375-.5-.625 0-1.14063.54688-1.54688 1.20313l-.5.78125h-.03125l-.46875-1.9375-.0625-.04688-1.90625.57813.01563.28125.92187-.0625c.1875 0 .26563.07812.375.57812l.40625 1.67188-.3125.5625C2.375-1.35937 1.95313-.75 1.67188-.75 1.32813-.75 1.25-1.03125.875-1.03125c-.29687 0-.5.29688-.5.57813m0 0"/><path id="r" d="M-.25 2.125c.01563.39063.51563.67188 1.0625.67188 1.15625 0 1.65625-.9375 2.14063-3.15625l1.0625-4.875h1.46875l.10937-.45313h-1.5l.3125-1.29687c.23438-.875.45313-1.21875.76563-1.21875s.53125.26562.78125.8125c.0625.10937.15625.20312.32812.20312.23438 0 .5625-.20312.5625-.5 0-.5-.625-.90625-1.32812-.90625-1.35938 0-1.92188.96875-2.375 2.48438l-.125.42187h-1l-.125.45313h1.03125L1.57813 1.59375c-.14063.71875-.26563.78125-.375.78125-.125 0-.29688-.07812-.60938-.5625C.5 1.70313.4375 1.54688.28125 1.54688c-.25 0-.53125.29687-.53125.57812m0 0"/><path id="s" d="M1-3.26562c0 2.60937.59375 5.48437 3.04688 5.57812v-.34375c-.82813-.15625-2.125-1.1875-2.125-5.23437 0-4.03125 1.23437-5.0625 2.125-5.23438v-.35937C1.59375-8.75 1-5.875 1-3.26562m0 0"/><path id="t" d="M.6875 1.96875v.34375c2.45313-.09375 3.04688-2.96875 3.04688-5.57812S3.14063-8.75.6875-8.85937V-8.5c.89063.17188 2.125 1.20313 2.125 5.23438 0 4.04687-1.29687 5.07812-2.125 5.23437m0 0"/><path id="y" d="M.98438-2.9375h6.375v-.67187h-6.375Zm0 0"/><path id="z" d="M.1875-2.45312C.1875-1.07812 1.54688.125 2.82813.125 4.46875.125 5.5-1.5 5.70313-1.82812 5.92188-1.40625 7.04688.14063 8.84375.14063c2.14063 0 2.75-1.625 2.75-3s-1.28125-2.48438-2.5625-2.48438c-1.54687 0-2.39062 1.10938-2.875 1.79688-.45312-.75-1.46875-1.76563-3.07812-1.76563C.96875-5.3125.1875-3.82812.1875-2.45312m.71875.03125c0-1.15625.8125-2.0625 1.79688-2.0625 1.15625 0 2.125 1.21875 2.67187 2.07812-.4375.79688-1.26562 2-2.57812 2-.84375 0-1.89063-.96875-1.89063-2.01562m5.57813-.60938c.4375-.79687 1.28125-1.76562 2.59375-1.76562.82812 0 1.84375.84375 1.84375 1.89062 0 1.17188-.625 2.23438-1.75 2.23438-1.20313 0-2.14063-1.32813-2.6875-2.35938m0 0"/><path id="A" d="M.3125-.10937.4375 0h4.79688L5.625-1.53125l-.32812-.0625c-.25.625-.48438.71875-.9375.71875H1.39063c.1875-.60937.875-1.4375 1.95312-2.20312 1.10938-.8125 1.96875-1.32813 1.96875-2.625 0-1.625-1.07812-2.17188-2.29687-2.17188-1.57813 0-2.40625.95313-2.40625 1.5625 0 .39063.45312.57813.64062.57813.21875 0 .29688-.125.34375-.3125.1875-.79688.64063-1.42188 1.35938-1.42188.875 0 1.14062.73438 1.14062 1.59375 0 1.23438-.625 1.9375-1.64062 2.82813C1.01563-1.79687.53125-1.01562.3125-.10937m0 0"/><path id="B" d="M.46875-1.1875c0 .53125.8125 1.32813 2.3125 1.32813 1.92188 0 2.78125-1.15625 2.78125-2.625 0-1.64063-1.01562-2.45313-2.39062-2.45313-.64063 0-1.34375.28125-1.71875.60938l.26562-2.1875c.03125-.29688.10938-.34375.32813-.34375H4.9375l.28125-.78125-.0625-.09375h-3.875l-.10937.10937L.9375-3.76562l.28125.15625c.48438-.5625.95313-.82813 1.57813-.82813.73437 0 1.5625.54688 1.5625 2.07813 0 1.1875-.48438 2.09375-1.5 2.09375-.8125 0-1.21875-.57813-1.45313-1.25-.0625-.17188-.17187-.28126-.32812-.28126-.23438 0-.60938.23438-.60938.60938m0 0"/><path id="C" d="M.98438-2.9375h2.84375v2.84375h.6875V-2.9375h2.84375v-.67187H4.51563v-2.84375h-.6875v2.84375H.98438Zm0 0"/><path id="F" d="M.48438-3.875c0 2.32813.67187 4.01563 2.57812 4.01563 1.92188 0 2.60938-1.6875 2.60938-4.01563 0-2.3125-.6875-4-2.60938-4-1.90625 0-2.57812 1.6875-2.57812 4m1.17187 0c0-1.875.3125-3.59375 1.40625-3.59375 1.10938 0 1.42188 1.71875 1.42188 3.59375 0 1.89063-.3125 3.60938-1.42188 3.60938-1.09375 0-1.40625-1.71875-1.40625-3.60938m0 0"/><clipPath id="a"><path d="M2 35h159v35.53906H2Zm0 0"/></clipPath><clipPath id="b"><path d="M160 0h287.80078v36H160Zm0 0"/></clipPath><clipPath id="c"><path d="M159 0h288.80078v36H159Zm0 0"/></clipPath><clipPath id="d"><path d="M160 35h287.80078v35.53906H160Zm0 0"/></clipPath><clipPath id="e"><path d="M159 35h288.80078v35.53906H159Zm0 0"/></clipPath><clipPath id="u"><path d="M2 35h445.80078v1H2Zm0 0"/></clipPath><clipPath id="v"><path d="M2 70h445.80078v.53906H2Zm0 0"/></clipPath><clipPath id="w"><path d="M2 0h445.80078v70.53906H2Zm0 0"/></clipPath><clipPath id="x"><path d="M159 0h2v70.53906h-2Zm0 0"/></clipPath><clipPath id="D"><path d="M159 35h288.80078v35.53906H159Zm0 0"/></clipPath><clipPath id="E"><path d="M261 35h1v35.53906h-1Zm0 0"/></clipPath><clipPath id="G"><path d="M345 35h2v35.53906h-2Zm0 0"/></clipPath></defs><g clip-path="url(#a)"><path fill="#FFF" stroke="#000" stroke-miterlimit="10" stroke-width=".39443" d="M2.19922 35.26954v35.07033h157.82427V35.26954Zm0 0"/></g><g clip-path="url(#b)"><path fill="#FFF" d="M160.02344 35.26953V.19531h287.58594v35.07422Zm0 0"/></g><g clip-path="url(#c)"><path fill="none" stroke="#000" stroke-miterlimit="10" stroke-width=".39443" d="M160.02349 35.26954V.19531h287.58604v35.07423Zm0 0"/></g><g clip-path="url(#d)"><path fill="#FFF" d="M160.02344 35.26953v35.07031h287.58594v-35.0703Zm0 0"/></g><g clip-path="url(#e)"><path fill="none" stroke="#000" stroke-miterlimit="10" stroke-width=".39443" d="M160.02349 35.26954v35.07033h287.58604V35.26954Zm0 0"/></g><path fill="#FFF" stroke="#000" stroke-miterlimit="10" stroke-width=".39443" d="M2.19922.19531v35.07423h157.82427V.19531Zm0 0"/><use xlink:href="#f" x="49.04603" y="21.96051"/><use xlink:href="#g" x="55.8131" y="21.96051"/><use xlink:href="#h" x="62.23503" y="21.96051"/><use xlink:href="#i" x="65.93289" y="21.96051"/><use xlink:href="#j" x="72.04667" y="21.96051"/><use xlink:href="#k" x="79.4547" y="21.96051"/><use xlink:href="#l" x="88.77328" y="21.96051"/><use xlink:href="#i" x="95.88549" y="21.96051"/><use xlink:href="#m" x="106.11123" y="21.96051"/><use xlink:href="#n" x="43.28297" y="55.83019"/><use xlink:href="#o" x="49.76653" y="55.83019"/><use xlink:href="#p" x="53.55067" y="55.83019"/><use xlink:href="#q" x="59.83702" y="55.83019"/><use xlink:href="#i" x="67.34366" y="55.83019"/><use xlink:href="#l" x="77.56205" y="55.83019"/><use xlink:href="#i" x="84.67426" y="55.83019"/><use xlink:href="#r" x="94.89937" y="55.83019"/><use xlink:href="#s" x="102.13483" y="55.83019"/><use xlink:href="#m" x="106.86808" y="55.83019"/><use xlink:href="#t" x="114.20215" y="55.83019"/><g clip-path="url(#u)"><path fill="none" stroke="#000" stroke-miterlimit="10" stroke-width=".39443" d="M2.19922 35.26954h445.4103"/></g><g clip-path="url(#v)"><path fill="none" stroke="#000" stroke-miterlimit="10" stroke-width=".39443" d="M2.19922 70.33987h445.4103"/></g><g clip-path="url(#w)"><path fill="none" stroke="#000" stroke-miterlimit="10" stroke-width=".39443" d="M2.19922.19531v70.14456h445.4103V.1953Zm0 0"/></g><g clip-path="url(#x)"><path fill="none" stroke="#000" stroke-miterlimit="10" stroke-width=".39443" d="M160.02349.19531v70.14456"/></g><use xlink:href="#y" x="167.47881" y="20.33428"/><use xlink:href="#z" x="175.8113" y="20.33428"/><use xlink:href="#y" x="254.4914" y="21.67149"/><use xlink:href="#A" x="262.82389" y="21.67149"/><use xlink:href="#B" x="342.82832" y="21.53589"/><use xlink:href="#C" x="419.99248" y="20.8945"/><use xlink:href="#z" x="428.32497" y="20.8945"/><g clip-path="url(#D)"><path fill="none" stroke="#000" stroke-miterlimit="10" stroke-width=".39443" d="M160.02349 35.26954v35.07033h287.58604V35.26954Zm0 0"/></g><use xlink:href="#C" x="215.47678" y="56.03409"/><g clip-path="url(#E)"><path fill="none" stroke="#000" stroke-dasharray="2.9583140457 2.9583140457" stroke-miterlimit="10" stroke-width=".39443" d="M261.73056 35.26954v35.07033"/></g><use xlink:href="#F" x="258.65941" y="56.67547"/><use xlink:href="#y" x="299.64866" y="54.61077"/><g clip-path="url(#G)"><path fill="none" stroke="#000" stroke-dasharray="2.9583140457 2.9583140457" stroke-miterlimit="10" stroke-width=".39443" d="M345.90246 35.26954v35.07033"/></g><use xlink:href="#F" x="342.8303" y="56.67547"/><use xlink:href="#C" x="383.82153" y="56.03409"/></svg>