<svg xmlns="http://www.w3.org/2000/svg" xmlns:xlink="http://www.w3.org/1999/xlink" width="177.962pt" height="107.096pt" viewBox="0 0 177.962 107.096"><defs><path id="b" d="M.4375-3.48437C.4375-1.40625 1.04688.125 2.76563.125s2.34375-1.53125 2.34375-3.60937c0-2.09375-.625-3.60938-2.34375-3.60938S.4375-5.57812.4375-3.48437m1.04688 0c0-1.70313.29687-3.25 1.28125-3.25.98437 0 1.28125 1.54687 1.28125 3.25C4.04688-1.78125 3.75-.25 2.76563-.25c-.98438 0-1.28125-1.53125-1.28125-3.23437m0 0"/><path id="c" d="M.89063-2.64062H6.625V-3.25H.89063Zm0 0"/><path id="d" d="M.28125-.09375.39063 0h4.3125l.35937-1.375-.28125-.0625c-.21875.57813-.4375.65625-.85937.65625H1.25c.17188-.54687.79688-1.29687 1.76563-2 1-.73437 1.76562-1.20312 1.76562-2.35937 0-1.45313-.95312-1.95313-2.0625-1.95313-1.4375 0-2.15625.85938-2.15625 1.40625 0 .35938.39063.51563.57813.51563s.25-.10938.29687-.28125c.15625-.71875.57813-1.28125 1.21875-1.28125.79688 0 1.03125.67187 1.03125 1.4375 0 1.125-.5625 1.75-1.48437 2.54687C.92188-1.625.48438-.90625.28124-.09375m0 0"/><path id="e" d="M1.14063 0H4.5625v-.29687L3.6875-.375c-.21875-.03125-.34375-.10937-.34375-.51562v-6.15625l-.0625-.04688-2.14062.35938v.25l.96875.125c.17187.03125.25.10937.25.40625v5.0625c0 .40625-.10938.48437-.34375.51562l-.875.07813Zm0 0"/><path id="j" d="M0 1.0625c0 .20313.10938.34375.46875.34375.54688 0 .79688-.40625 1.28125-1.25.125-.1875.45313-.8125.8125-1.39062.34375-.5625.70313-1.125.70313-1.35938 0-.17187-.07813-.3125-.125-.3125-.10938 0-.32813.04688-.51563.14063 0 0-.01562.57812-.0625.8125-.09375.34375-.35937.89062-.75 1.57812h-.01562c-.03126-.89062-.14063-2.14062-.21876-2.51562l-.04687-.01563-1.09375.26563v.17187l.39063-.01562c.10937 0 .14062.10937.20312.375.0625.45312.21875 1.57812.21875 2.09375 0 .1875-.01562.40625-.10937.65625-.07813.23437-.20313.39062-.3125.39062-.21876 0-.25-.375-.48438-.375C.17188.65625 0 .85938 0 1.0625m0 0"/><path id="k" d="M.5-.76562h3.1875v-.4375H.5Zm0-1.29688h3.1875V-2.5H.5Zm0 0"/><path id="l" d="M.17188-.07812.25 0h2.5l.21875-.875-.17187-.03125c-.15625.3125-.25.34375-.48438.34375H.82813c.09374-.25.375-.625.95312-1 .60938-.375 1.01563-.65625 1.01563-1.28125 0-.8125-.54688-1.09375-1.21875-1.09375-.78125 0-1.26563.42188-1.26563.82813 0 .21875.25.3125.39063.3125.125 0 .17187-.04688.20312-.17188.09375-.4375.3125-.75.64063-.75.375 0 .5.34375.5.75 0 .51563-.20313.90625-.78125 1.39063C.51563-.9375.25-.5.17188-.07812m0 0"/><path id="m" d="M.20313-.26562c0 .1875.15625.32812.42187.32812.375 0 .59375-.34375.82813-.73437l.21874-.375.10938.42187C1.875-.1875 2 .0625 2.3125.0625c.48438 0 .75-.46875.92188-.89062l-.15625-.07813c-.14063.28125-.3125.59375-.46875.59375-.10938 0-.14063-.10937-.25-.51562l-.21875-.85938c.1875-.34375.4375-.71875.59375-.71875.17187 0 .23437.10938.40625.10938.14062 0 .26562-.14063.26562-.32813 0-.20312-.14062-.28125-.3125-.28125-.29687 0-.53125.20313-.75.53125l-.25.40625h-.01562L1.875-2.89062l-.04687-.01563-1.0625.28125.01562.15625.40625-.01562c.10938 0 .15625.03125.20313.23437l.21874.89063-.15624.28124C1.25-.71874 1.0625-.4375.9375-.4375.76563-.4375.70313-.60937.5-.60937c-.15625 0-.29687.17187-.29687.34375m0 0"/><path id="n" d="M.5-1.42187h1.375v1.375h.42188v-1.375H3.6875v-.4375H2.29688v-1.375H1.875v1.375H.5Zm0 0"/><path id="o" d="M.23438-1.9375c0 1.10938.34375 2 1.35937 2 1.01563 0 1.35938-.89062 1.35938-2 0-1.125-.34375-2-1.35938-2-1.01562 0-1.35937.875-1.35937 2m.73437 0c0-.8125.10938-1.78125.625-1.78125.51563 0 .625.96875.625 1.78125s-.10937 1.78125-.625 1.78125c-.51562 0-.625-.96875-.625-1.78125m0 0"/><path id="p" d="m.29688.73438.14062.125c.29688-.28126.79688-.70313.79688-1.15625 0-.3125-.17188-.5625-.45313-.5625-.23437 0-.34375.1875-.34375.32812 0 .20313.17188.32813.17188.5625 0 .25-.125.5-.3125.70313m0 0"/><path id="r" d="M.45313-1.4375h3.26562v-.40625H.45313Zm0 0"/><path id="s" d="M.26563-.64062c0 .23437.34375.70312 1.21875.70312C2.5.0625 2.90625-.53125 2.90625-1.25c0-.6875-.40625-1.23437-1.25-1.23437-.34375 0-.6875.15625-.89062.3125l.125-.95313c.01562-.17187.04687-.1875.1875-.1875H2.5625l.17188-.5-.03125-.0625H.64063l-.04688.04688-.125 1.9375.1875.125c.23438-.28126.45313-.40625.75-.40625.39063 0 .75.28125.75 1 0 .59375-.20312 1.01562-.64062 1.01562-.34375 0-.53125-.25-.67188-.67187C.79688-.92188.73438-1 .625-1c-.15625 0-.35937.14063-.35937.35938m0 0"/><clipPath id="a"><path d="M.72656 0h176.47266v106.19922H.72656Zm0 0"/></clipPath><clipPath id="f"><path d="M.72656 52H172v2H.72656Zm0 0"/></clipPath><clipPath id="g"><path d="M159 40h18.19922v26H159Zm0 0"/></clipPath><clipPath id="h"><path d="M88 6h2v100.19922h-2Zm0 0"/></clipPath><clipPath id="i"><path d="M1.1211.39453h175.68359V58H1.12109Zm0 0"/></clipPath><clipPath id="q"><path d="M1.1211 59h175.68359v46.80469H1.12109Zm0 0"/></clipPath></defs><g clip-path="url(#a)"><path fill="none" stroke="#000" stroke-miterlimit="10" stroke-opacity=".5" stroke-width=".39516" d="M1.12106 88.2383h175.68366M1.12106 53.10155h175.68366M1.12106 17.96092h175.68366M18.68747 105.80471V.3945m35.13674 105.4102V.3945m35.13673 105.4102V.3945m35.13673 105.4102V.3945m35.13673 105.4102V.3945"/></g><path fill="none" stroke="#000" stroke-miterlimit="10" stroke-opacity=".5" stroke-width=".39516" d="M88.96094 44.3164v17.56642"/><use xlink:href="#b" x="73.89732" y="68.88752" fill-opacity=".5"/><path fill="none" stroke="#000" stroke-miterlimit="10" stroke-opacity=".5" stroke-width=".39516" d="M18.68747 44.3164v17.56642"/><g fill-opacity=".5"><use xlink:href="#c" x="12.1654" y="65.43466"/><use xlink:href="#d" x="19.67857" y="65.43466"/></g><path fill="none" stroke="#000" stroke-miterlimit="10" stroke-opacity=".5" stroke-width=".39516" d="M53.8242 44.3164v17.56642"/><g fill-opacity=".5"><use xlink:href="#c" x="47.30181" y="65.43466"/><use xlink:href="#e" x="54.81499" y="65.43466"/></g><path fill="none" stroke="#000" stroke-miterlimit="10" stroke-opacity=".5" stroke-width=".39516" d="M124.09767 44.3164v17.56642"/><use xlink:href="#e" x="121.33093" y="65.43466" fill-opacity=".5"/><path fill="none" stroke="#000" stroke-miterlimit="10" stroke-opacity=".5" stroke-width=".39516" d="M159.2344 44.3164v17.56642"/><use xlink:href="#d" x="156.46735" y="65.43466" fill-opacity=".5"/><g clip-path="url(#f)"><path fill="none" stroke="#000" stroke-miterlimit="10" stroke-width=".79034" d="M1.12106 53.10156h169.55866"/></g><path d="M174.8086 53.10156c-.50782-.10547-2.73438-.70312-4.12891-1.35547v2.70703c1.39453-.65234 3.6211-1.24609 4.1289-1.35156m0 0"/><g clip-path="url(#g)"><path fill="none" stroke="#000" stroke-miterlimit="10" stroke-width=".79034" d="M174.8086 53.10156c-.50782-.10547-2.73438-.70312-4.12891-1.35547v2.70703c1.39453-.65234 3.6211-1.24609 4.1289-1.35156Zm0 0"/></g><path fill="none" stroke="#000" stroke-miterlimit="10" stroke-opacity=".5" stroke-width=".39516" d="M97.7461 88.2383H80.17968"/><g fill-opacity=".5"><use xlink:href="#c" x="70.14004" y="91.78722"/><use xlink:href="#e" x="77.65321" y="91.78722"/></g><path fill="none" stroke="#000" stroke-miterlimit="10" stroke-opacity=".5" stroke-width=".39516" d="M97.7461 17.96092H80.17968"/><use xlink:href="#e" x="73.89732" y="21.5144" fill-opacity=".5"/><g clip-path="url(#h)"><path fill="none" stroke="#000" stroke-miterlimit="10" stroke-width=".79034" d="M88.96094 105.8047V6.51952"/></g><path stroke="#000" stroke-miterlimit="10" stroke-width=".79034" d="M88.96094 2.39062c-.10547.50782-.70313 2.73438-1.35157 4.12891h2.70704c-.65235-1.39453-1.25-3.6211-1.35547-4.1289Zm0 0"/><g clip-path="url(#i)"><path fill="none" stroke="#007F7F" stroke-miterlimit="10" stroke-width=".79034" d="M1.12106-393.1408s5.28907 51.53128 7.32032 70.15238 5.28906 47.12111 7.32031 64.0508c2.03125 16.92579 5.28516 42.71486 7.31641 57.94924s5.28907 38.30861 7.32032 51.85158c2.03125 13.54298 5.28906 33.90236 7.32031 45.75002 2.03125 11.85157 5.28907 29.4961 7.32032 39.65236s5.28906 25.08595 7.32031 33.5508c2.03125 8.46484 5.28907 20.67969 7.32032 27.44922 2.03125 6.77344 5.28906 16.27345 7.32031 21.35157 2.03125 5.07813 5.28907 11.8672 7.32032 15.25392 2.03125 3.38281 5.28906 7.45703 7.32031 9.15234 2.03125 1.69141 5.28907 3.04688 7.32032 3.05079 2.03125 0 5.28906-1.35938 7.32031-3.05079 2.03125-1.6914 5.28907-5.76172 7.32032-9.14844 2.03125-3.38281 5.28906-10.16797 7.32031-15.2461s5.28516-14.57813 7.31641-21.34766 5.28907-18.98438 7.32032-27.44923c2.03125-8.46094 5.28906-23.39063 7.32031-33.54689s5.28907-27.79688 7.32032-39.64454c2.03125-11.85157 5.28906-32.20705 7.32031-45.75002 2.03125-13.53907 5.28907-36.6133 7.32032-51.84768 2.03125-15.23047 5.28906-41.01954 7.32031-57.94533s5.28907-45.4297 7.32032-64.0469c2.03125-18.6211 7.32031-70.14846 7.32031-70.14846"/></g><use xlink:href="#j" x="95.08051" y="48.40442" fill="#007F7F"/><use xlink:href="#k" x="99.89665" y="48.40442" fill="#007F7F"/><g fill="#007F7F"><use xlink:href="#l" x="105.28084" y="48.40442"/><use xlink:href="#m" x="108.46072" y="48.40442"/></g><use xlink:href="#l" x="112.25802" y="45.93402" fill="#007F7F"/><use xlink:href="#n" x="116.66581" y="48.40442" fill="#007F7F"/><g fill="#007F7F"><use xlink:href="#o" x="121.69188" y="48.40442"/><use xlink:href="#p" x="124.87176" y="48.40442"/></g><use xlink:href="#l" x="127.18104" y="48.40442" fill="#007F7F"/><g clip-path="url(#q)"><path fill="none" stroke="#FF7F00" stroke-miterlimit="10" stroke-width=".79034" d="M1.12106 180.4727s5.28907-12.88281 7.32032-17.53907 5.28906-11.78125 7.32031-16.01172c2.03125-4.23438 5.28516-10.6797 7.31641-14.48829 2.03125-3.8086 5.28907-9.57813 7.32032-12.96485 2.03125-3.3828 5.28906-8.47265 7.32031-11.4375 2.03125-2.96094 5.28907-7.3711 7.32032-9.91016s5.28906-6.27344 7.32031-8.39063c2.03125-2.11328 5.28907-5.16797 7.32032-6.85938 2.03125-1.6953 5.28906-4.0703 7.32031-5.33984 2.03125-1.26953 5.28907-2.96485 7.32032-3.8125 2.03125-.84766 5.28906-1.86328 7.32031-2.28907 2.03125-.42187 5.28907-.76171 7.32032-.76171s5.28906.33984 7.32031.76171 5.28907 1.44141 7.32032 2.28516c2.03125.84766 5.28906 2.54297 7.32031 3.8125s5.28516 3.64454 7.31641 5.33985c2.03125 1.6914 5.28907 4.7461 7.32032 6.85938 2.03125 2.11718 5.28906 5.84765 7.32031 8.38672 2.03125 2.53906 5.28907 6.94922 7.32032 9.91406 2.03125 2.96094 5.28906 8.05079 7.32031 11.4375 2.03125 3.38282 5.28907 9.15235 7.32032 12.96095s5.28906 10.25391 7.32031 14.48438c2.03125 4.23438 5.28907 11.35938 7.32032 16.01173 2.03125 4.65625 7.32031 17.53906 7.32031 17.53906"/></g><use xlink:href="#j" x="102.11018" y="74.27306" fill="#FF7F00"/><use xlink:href="#k" x="106.92631" y="74.27306" fill="#FF7F00"/><g fill="#FF7F00"><use xlink:href="#r" x="112.30433" y="74.27306"/><use xlink:href="#o" x="116.47831" y="74.27306"/><use xlink:href="#p" x="119.65819" y="74.27306"/></g><use xlink:href="#s" x="121.96129" y="74.27306" fill="#FF7F00"/><use xlink:href="#l" x="125.14697" y="71.80266" fill="#FF7F00"/><use xlink:href="#r" x="129.55477" y="74.27306" fill="#FF7F00"/><g fill="#FF7F00"><use xlink:href="#o" x="134.58083" y="74.27306"/><use xlink:href="#p" x="137.76072" y="74.27306"/></g><use xlink:href="#s" x="140.06999" y="74.27306" fill="#FF7F00"/></svg>