<svg xmlns="http://www.w3.org/2000/svg" xmlns:xlink="http://www.w3.org/1999/xlink" width="185.049pt" height="111.348pt" viewBox="0 0 185.049 111.348"><defs><path id="b" d="M.5-4.04687C.5-1.625 1.20313.14063 3.20313.14063S5.92188-1.625 5.92188-4.04687s-.71875-4.1875-2.71875-4.1875S.5-6.46875.5-4.04687m1.21875 0c0-1.96875.34375-3.75 1.48438-3.75 1.15625 0 1.48437 1.78125 1.48437 3.75S4.35938-.28125 3.20313-.28125c-1.14063 0-1.48438-1.79687-1.48438-3.76562m0 0"/><path id="c" d="M.92188-2.76562h6v-.625h-6Zm0 0"/><path id="d" d="M.29688-.10937.40625 0h4.51563l.35937-1.4375L4.98438-1.5c-.23438.59375-.45313.67188-.89063.67188H1.3125c.17188-.5625.82813-1.34375 1.82813-2.07813C4.1875-3.65625 5-4.15625 5-5.375c0-1.51562-1.01562-2.03125-2.15625-2.03125-1.5 0-2.26562.90625-2.26562 1.46875 0 .375.42187.54688.60937.54688S1.45313-5.5 1.5-5.6875c.17188-.75.59375-1.34375 1.26563-1.34375.84375 0 1.07812.70313 1.07812 1.5 0 1.17188-.57812 1.82813-1.53125 2.67188C.96875-1.6875.5-.95312.29688-.10937m0 0"/><path id="e" d="M1.1875 0h3.57813v-.3125l-.92188-.07812C3.625-.42187 3.48438-.5 3.48438-.92187v-6.42188l-.04688-.0625-2.25.375v.26563l1.01563.14062c.1875.01563.25.09375.25.40625v5.29688c0 .42187-.09375.5-.35938.53125L1.1875-.3125Zm0 0"/><path id="j" d="M0 1.10938c0 .20312.10938.35937.48438.35937.57812 0 .82812-.4375 1.34375-1.29687.125-.20313.46875-.85938.84375-1.46875.35937-.5625.73437-1.15625.73437-1.40625 0-.1875-.07812-.32813-.125-.32813-.125 0-.35937.04688-.54687.14063 0 0-.01563.60937-.0625.84375-.09375.35937-.375.9375-.78125 1.64062H1.875c-.03125-.90625-.15625-2.21875-.23437-2.60937l-.04688-.01563L.45313-2.75v.17188l.40625-.01563c.125 0 .15624.10938.20312.40625.07813.46875.23438 1.64063.23438 2.17188 0 .20312-.01563.42187-.10938.6875-.09375.25-.21875.39062-.32812.39062-.21876 0-.26563-.375-.5-.375C.17188.6875 0 .90625 0 1.10938m0 0"/><path id="k" d="M.51563-.8125h3.32812V-1.25H.51563Zm0-1.34375h3.32812v-.45312H.51563Zm0 0"/><path id="l" d="M.1875-.07812.25 0h2.625l.23438-.92187-.20313-.03126c-.14062.32813-.25.375-.5.375H.875C.96875-.84374 1.25-1.25 1.85938-1.625c.64062-.40625 1.0625-.6875 1.0625-1.34375 0-.84375-.57813-1.14062-1.28125-1.14062-.79688 0-1.3125.45312-1.3125.85937 0 .23438.26562.34375.40625.34375.125 0 .1875-.0625.21874-.20312.09376-.4375.3125-.76563.65626-.76563.39062 0 .53125.34375.53125.78125 0 .53125-.21875.9375-.8125 1.45313C.53125-.96875.25-.51562.1875-.07812m0 0"/><path id="m" d="M.21875-.26562c0 .1875.15625.34375.4375.34375.39063 0 .625-.375.85938-.78125l.21874-.39063H1.75l.10938.45313c.09374.4375.21874.71875.5625.71875.5 0 .78125-.5.95312-.9375l-.15625-.09376c-.15625.3125-.32812.625-.5.625-.10937 0-.15625-.10937-.25-.53124l-.23437-.90625c.20312-.34375.45312-.73438.625-.73438s.23437.10938.40625.10938c.15625 0 .29687-.15625.29687-.34375 0-.21875-.15625-.29688-.34375-.29688-.29687 0-.54687.21875-.76562.54688l-.26563.4375h-.01562l-.21875-.96875-.04688-.01563-1.10937.29688.01562.17187.42188-.03125c.125 0 .17187.03125.21874.25l.21876.92188-.15626.29687c-.21874.375-.42187.65625-.54687.65625-.17187 0-.23437-.17187-.4375-.17187-.17187 0-.3125.1875-.3125.375m0 0"/><path id="n" d="M.51563-1.48437h1.4375v1.4375h.45312v-1.4375h1.4375v-.45313h-1.4375V-3.375h-.45312v1.4375H.51563Zm0 0"/><path id="o" d="M.23438-2.01562c0 1.15625.375 2.09375 1.42187 2.09375 1.0625 0 1.42188-.9375 1.42188-2.09375 0-1.17188-.35938-2.09375-1.42188-2.09375-1.04687 0-1.42187.92187-1.42187 2.09375m.76562 0C1-2.875 1.125-3.875 1.65625-3.875c.54688 0 .65625 1 .65625 1.85938 0 .84375-.10937 1.84375-.65625 1.84375-.53125 0-.65625-1-.65625-1.84375m0 0"/><path id="p" d="m.3125.76563.15625.125c.29688-.28126.8125-.71875.8125-1.20313 0-.3125-.17187-.57812-.46875-.57812-.23437 0-.35937.1875-.35937.34375 0 .21874.17187.32812.17187.57812C.625.29688.5.54688.3125.76563m0 0"/><path id="r" d="M.46875-1.5H3.875v-.42187H.46875Zm0 0"/><path id="s" d="M.26563-.65625c0 .23438.35937.73438 1.28125.73438 1.04687 0 1.48437-.625 1.48437-1.375 0-.71875-.42187-1.29688-1.29687-1.29688-.375 0-.71875.15625-.92188.32813L.92188-3.25c.03124-.1875.0625-.20312.20312-.20312h1.54688l.1875-.53125-.04688-.0625H.65625l-.04687.0625-.125 2.01562.20312.125c.23438-.29687.48438-.42187.78125-.42187.40625 0 .78125.29687.78125 1.04687 0 .60938-.20312 1.04688-.67187 1.04688-.35938 0-.54688-.25-.70313-.6875-.03125-.10938-.10937-.17188-.23437-.17188-.15626 0-.375.14063-.375.375m0 0"/><clipPath id="a"><path d="M.0664 0H184v110.69922H.0664Zm0 0"/></clipPath><clipPath id="f"><path d="M.0664 54H178v2H.0664Zm0 0"/></clipPath><clipPath id="g"><path d="M166 42h18.03906v26H166Zm0 0"/></clipPath><clipPath id="h"><path d="M91 6h2v104.69922h-2Zm0 0"/></clipPath><clipPath id="i"><path d="M.46094.39453h183.1836V60H.46093Zm0 0"/></clipPath><clipPath id="q"><path d="M.46094 62h183.1836v48.30469H.46093Zm0 0"/></clipPath></defs><g clip-path="url(#a)"><path fill="none" stroke="#7f7f7f" stroke-dasharray=".39618073 .9904816504" stroke-miterlimit="10" stroke-width=".39618" d="M.4609 91.9844h183.18367M.4609 55.35155h183.18367M.4609 18.71483h183.18367M18.78122 110.3047V.39451m36.63283 109.9102V.39451m36.63673 109.9102V.39451m36.63674 109.9102V.39451m36.63673 109.9102V.39451"/></g><use xlink:href="#b" x="76.02312" y="72.21514" fill="#7f7f7f"/><path fill="none" stroke="#7f7f7f" stroke-miterlimit="10" stroke-width=".39618" d="M18.78122 46.1914v18.31642"/><g fill="#7f7f7f"><use xlink:href="#c" x="11.97715" y="76.46327"/><use xlink:href="#d" x="19.81093" y="76.46327"/></g><path fill="none" stroke="#7f7f7f" stroke-miterlimit="10" stroke-width=".39618" d="M55.41405 46.1914v18.31642"/><g fill="#7f7f7f"><use xlink:href="#c" x="48.61362" y="76.46327"/><use xlink:href="#e" x="56.44741" y="76.46327"/></g><path fill="none" stroke="#7f7f7f" stroke-miterlimit="10" stroke-width=".39618" d="M128.68752 46.1914v18.31642"/><use xlink:href="#e" x="125.80264" y="76.46327" fill="#7f7f7f"/><path fill="none" stroke="#7f7f7f" stroke-miterlimit="10" stroke-width=".39618" d="M165.32425 46.1914v18.31642"/><use xlink:href="#d" x="162.43812" y="76.46327" fill="#7f7f7f"/><g clip-path="url(#f)"><path fill="none" stroke="#000" stroke-miterlimit="10" stroke-width=".79237" d="M.4609 55.35156h177.04304"/></g><path d="M181.64063 55.35156c-.50782-.10547-2.7422-.70703-4.13672-1.35937v2.71484c1.39453-.65234 3.6289-1.25 4.13672-1.35547m0 0"/><g clip-path="url(#g)"><path fill="none" stroke="#000" stroke-miterlimit="10" stroke-width=".79237" d="M181.64063 55.35156c-.50782-.10547-2.7422-.70703-4.13672-1.35937v2.71484c1.39453-.65234 3.6289-1.25 4.13672-1.35547Zm0 0"/></g><path fill="none" stroke="#7f7f7f" stroke-miterlimit="10" stroke-width=".39618" d="M101.21094 91.9844H82.89453"/><g fill="#7f7f7f"><use xlink:href="#c" x="64.7392" y="95.6877"/><use xlink:href="#e" x="72.57298" y="95.6877"/></g><path fill="none" stroke="#7f7f7f" stroke-miterlimit="10" stroke-width=".39618" d="M101.21094 18.71483H82.89453"/><use xlink:href="#e" x="72.57233" y="22.41674" fill="#7f7f7f"/><g clip-path="url(#h)"><path fill="none" stroke="#000" stroke-miterlimit="10" stroke-width=".79237" d="M92.05078 110.30471V6.53514"/></g><path stroke="#000" stroke-miterlimit="10" stroke-width=".79237" d="M92.05078 2.39453c-.10547.51172-.70312 2.7461-1.35547 4.14063h2.71485c-.65235-1.39454-1.25391-3.62891-1.35938-4.14063Zm0 0"/><g clip-path="url(#i)"><path fill="none" stroke="#007f7f" stroke-miterlimit="10" stroke-width=".79237" d="M.4609-409.9338s5.51563 53.7305 7.63281 73.14457c2.1172 19.41407 5.51563 49.13283 7.63282 66.78518 2.11719 17.64845 5.51563 44.53909 7.63282 60.4219 2.11718 15.88673 5.51172 39.94533 7.63281 54.06643 2.11719 14.1172 5.51172 35.34768 7.63282 47.70315 2.11718 12.35157 5.51172 30.75001 7.6289 41.33986 2.1211 10.58985 5.51563 26.16017 7.63282 34.9844 2.1211 8.82421 5.51563 21.5625 7.63282 28.6211 2.11719 7.0625 5.51563 16.96875 7.63281 22.26563 2.1172 5.29297 5.51563 12.3711 7.63282 15.90235 2.11719 3.52735 5.51563 7.77735 7.63282 9.54298 2.11718 1.76172 5.51562 3.17969 7.63281 3.17969s5.51563-1.41407 7.63282-3.1797c2.11719-1.76171 5.51172-6.0078 7.63281-9.53906 2.1172-3.52735 5.51172-10.60157 7.62891-15.89844 2.1211-5.29298 5.51563-15.19923 7.63282-22.25783 2.1211-7.0586 5.51563-19.79297 7.63281-28.6172 2.1172-8.82422 5.51563-24.39063 7.63282-34.98048s5.51563-28.98439 7.63282-41.33986c2.11718-12.35157 5.51562-33.57814 7.63281-47.69924 2.11719-14.1172 5.51563-38.1758 7.63282-54.05862s5.51562-42.76955 7.63281-60.4219c2.1172-17.64845 5.51172-47.3633 7.63282-66.77737 2.11719-19.41407 7.63281-73.14066 7.63281-73.14066"/></g><use xlink:href="#j" x="98.43191" y="50.45357" fill="#007f7f"/><use xlink:href="#k" x="103.45356" y="50.45357" fill="#007f7f"/><g fill="#007f7f"><use xlink:href="#l" x="109.06108" y="50.45357"/><use xlink:href="#m" x="112.37666" y="50.45357"/></g><use xlink:href="#l" x="116.34114" y="47.87904" fill="#007f7f"/><use xlink:href="#n" x="120.93703" y="50.45357" fill="#007f7f"/><g fill="#007f7f"><use xlink:href="#o" x="126.18402" y="50.45357"/><use xlink:href="#p" x="129.49959" y="50.45357"/></g><use xlink:href="#l" x="131.90097" y="50.45357" fill="#007f7f"/><g clip-path="url(#q)"><path fill="none" stroke="#ff7f00" stroke-miterlimit="10" stroke-width=".79237" d="M.4609 188.1563s5.51563-13.4336 7.63281-18.28516c2.1172-4.85547 5.51563-12.28516 7.63282-16.69532 2.11719-4.41406 5.51563-11.13672 7.63282-15.10547 2.11718-3.97266 5.51172-9.98829 7.63281-13.51563 2.11719-3.53125 5.51172-8.83985 7.63282-11.92579 2.11718-3.08984 5.51172-7.6914 7.6289-10.33594 2.1211-2.64844 5.51563-6.54297 7.63282-8.7461 2.1211-2.20703 5.51563-5.39063 7.63282-7.15625s5.51563-4.2422 7.63281-5.56641c2.1172-1.32422 5.51563-3.09375 7.63282-3.97656s5.51563-1.94141 7.63282-2.38282c2.11718-.4414 5.51562-.79687 7.63281-.79687s5.51563.35156 7.63282.79297 5.51172 1.5039 7.63281 2.38672c2.1172.8828 5.51172 2.64843 7.62891 3.97265 2.1211 1.32422 5.51563 3.80079 7.63282 5.56641 2.1211 1.76563 5.51563 4.94922 7.63281 7.15235 2.1172 2.20703 5.51563 6.09766 7.63282 8.7461s5.51563 7.2461 7.63282 10.33594c2.11718 3.08594 5.51562 8.39453 7.63281 11.92578 2.11719 3.52735 5.51563 9.54298 7.63282 13.51173 2.11719 3.97266 5.51562 10.69532 7.63281 15.10547 2.1172 4.41407 5.51172 11.84376 7.63282 16.69532 2.11719 4.85548 7.63281 18.28517 7.63281 18.28517"/></g><use xlink:href="#j" x="105.76" y="77.42663" fill="#ff7f00"/><use xlink:href="#k" x="110.78165" y="77.42663" fill="#ff7f00"/><g fill="#ff7f00"><use xlink:href="#r" x="116.39561" y="77.42663"/><use xlink:href="#o" x="120.7477" y="77.42663"/><use xlink:href="#p" x="124.06328" y="77.42663"/></g><use xlink:href="#s" x="126.46466" y="77.42663" fill="#ff7f00"/><use xlink:href="#l" x="129.78114" y="74.85081" fill="#ff7f00"/><use xlink:href="#r" x="134.37703" y="77.42663" fill="#ff7f00"/><g fill="#ff7f00"><use xlink:href="#o" x="139.61758" y="77.42663"/><use xlink:href="#p" x="142.93316" y="77.42663"/></g><use xlink:href="#s" x="145.34098" y="77.42663" fill="#ff7f00"/></svg>