<svg xmlns="http://www.w3.org/2000/svg" id="Calque_1" x="0" y="0" fill="#212529" version="1.1" viewBox="0 0 1120.5 414.9" xml:space="preserve" style="enable-background:new 0 0 1120.5 414.9"><path d="M245.7,198h-11.2c-4.5,45.9-10.8,101.7-90,101.7H108c-21.2,0-22.1-3.1-22.1-18V42.7c0-15.3,0-21.6,42.3-21.6h14.9V7.6	C126.9,9,86.4,9,68,9C50.4,9,15.3,9,0,7.6v13.5h10.4c34.7,0,35.5,4.9,35.5,21.2v236.2c0,16.2-0.9,21.1-35.6,21.1H0v13.9h233.6	L245.7,198z"/><path d="M238.1,7.2c-1.8-5.4-2.7-7.2-8.6-7.2s-7.2,1.8-9,7.2L148,190.8c-3.1,7.7-8.5,21.6-36.4,21.6v11.2h69.7v-11.2	c-13.9,0-22.5-6.3-22.5-15.3c0-2.3,0.4-3.2,1.3-6.3l15.3-38.7h89.1l18,45.9c0.9,1.8,1.8,4.1,1.8,5.4c0,9-17.1,9-25.6,9v11.2h88.6	v-11.2h-6.3c-21.1,0-23.4-3.2-26.6-12.1L238.1,7.2L238.1,7.2z M220.1,39.2l40,101.7H180L220.1,39.2z"/><path d="M598.5,10.3H324.4l-8.1,100.8h10.8c6.3-72.5,13-87.3,81-87.3c8.1,0,19.8,0,24.3,0.9c9.5,1.8,9.5,6.8,9.5,17.1v236.2	c0,15.3,0,21.6-47.2,21.6h-18v14c18.5-1.4,63.9-1.4,84.6-1.4c20.7,0,67,0,85.5,1.4v-14h-18c-47.2,0-47.2-6.3-47.2-21.6V41.8	c0-9,0-15.3,8.1-17.1c4.9-0.9,17.1-0.9,25.6-0.9c67.5,0,74.2,14.9,80.5,87.3H607L598.5,10.3L598.5,10.3z"/><path d="M839.7,299.2h-11.2C817.2,368.1,806.8,401,729.9,401h-59.4c-21.2,0-22.1-3.2-22.1-18V263.2h40.1c43.6,0,48.6,14.4,48.6,52.6	h11.2V197.1h-11.2c0,38.3-5,52.2-48.6,52.2h-40V141.7c0-14.9,0.9-18,22-18h57.6c68.8,0,80.5,24.8,87.8,87.3h11.2l-12.6-100.8h-252	v13.5h10.3c34.7,0,35.5,5,35.5,21.2v234.9c0,16.2-0.9,21.1-35.5,21.1h-10.3v14h258.3L839.7,299.2z"/><path d="M975.2,140.4l61.7-90c9.4-14.4,24.8-28.8,64.8-29.2V7.7H994.5v13.5c18,0.4,27.9,10.4,27.9,20.7c0,4.5-0.9,5.4-4.1,10.4	L967,127.8l-57.6-86.4c-0.9-1.3-3.2-5-3.2-6.7c0-5.4,9.9-13.1,28.8-13.5V7.7C919.8,9,887,9,869.8,9c-13.9,0-41.8-0.4-58.5-1.3v13.5	h8.6c24.8,0,33.3,3.1,41.8,15.7l82.3,124.6L870.8,270c-6.3,9-19.8,29.7-64.8,29.7v14H913v-14c-20.7-0.5-28.3-12.6-28.3-20.7	c0-4.1,1.3-5.9,4.5-10.8l63.5-94.1l71.1,107.1c0.9,1.8,2.2,3.6,2.2,5c0,5.4-9.9,13-29.2,13.5v14c15.8-1.4,48.6-1.4,65.2-1.4	c18.9,0,39.6,0.5,58.5,1.4v-14h-8.5c-23.4,0-32.8-2.2-42.3-16.2L975.2,140.4L975.2,140.4z"/></svg>