<?xml version="1.0" encoding="UTF-8"?>
<svg id="a" data-name="Calque 1" xmlns="http://www.w3.org/2000/svg" viewBox="0 0 424 282.67">
  <path d="M237.44,282.67h156.88c5.01,0,9.8-1.76,14.13-4.24,4.34-2.48,8.8-5.6,11.31-9.89,2.5-4.3,4.24-9.17,4.24-14.13,0-4.96-1.73-9.84-4.24-14.13l-106-182.32c-2.5-4.3-5.56-7.41-9.89-9.89-4.33-2.48-10.54-4.24-15.55-4.24s-9.8,1.76-14.13,4.24c-4.34,2.48-7.39,5.6-9.89,9.89l-26.85,46.64L183.73,14.13c-2.5-4.3-5.56-8.82-9.89-11.3-4.34-2.48-9.13-2.83-14.13-2.83s-9.8.35-14.13,2.83c-4.33,2.48-8.8,7.01-11.31,11.3L2.83,240.27C.32,244.56,0,249.44,0,254.4c0,4.96.32,9.84,2.83,14.13,2.5,4.3,6.97,7.41,11.31,9.89,4.34,2.48,9.13,4.24,14.13,4.24h98.93c39.2,0,67.73-17.58,87.63-50.88l48.05-83.39,25.44-43.81,77.73,132.85h-103.17l-25.44,45.23ZM125.79,237.44H56.53L159.71,59.36l52.29,89.04-34.64,60.38c-13.21,21.6-28.27,28.66-51.57,28.66Z" fill="#00dc82" stroke-width="0"/>
</svg>