<?xml version="1.0" encoding="UTF-8"?><svg id="a" xmlns="http://www.w3.org/2000/svg" xmlns:xlink="http://www.w3.org/1999/xlink" viewBox="0 0 55.57 8.21"><defs><clipPath id="i"><rect x="29.91" y="2" width="7" height="6.21" fill="none" stroke-width="0"/></clipPath><clipPath id="k"><rect x="34.91" y="0" width="20.66" height="7" fill="none" stroke-width="0"/></clipPath></defs><g id="b"><path d="M5.86,2.19l-.17-2.03H.17l-.17,2.03h.22C.34.73.48.44,1.84.44c.17,0,.41,0,.5.02.19.03.19.12.19.34v4.75c0,.31,0,.44-.95.44h-.36v.28c.38-.03,1.28-.03,1.7-.03s1.34,0,1.72.03v-.28h-.36c-.95,0-.95-.12-.95-.44V.8c0-.19,0-.31.16-.34.11-.02.34-.02.52-.02,1.38,0,1.5.3,1.62,1.75h.23Z" fill="#000" stroke-width="0"/></g><g id="c"><path d="M11.02,6.27v-.28c-.47,0-.69,0-.7-.27v-1.73c0-.77,0-1.05-.28-1.38-.12-.16-.42-.33-.94-.33-.77,0-1.16.53-1.31.86V0l-1.31.09v.28c.64,0,.72.06.72.52v4.69c0,.41-.11.41-.72.41v.28l1.03-.03,1.02.03v-.28c-.61,0-.72,0-.72-.41v-1.66c0-.94.66-1.45,1.22-1.45s.67.48.67,1v2.11c0,.41-.09.41-.7.41v.28l1.02-.03,1.02.03Z" fill="#000" stroke-width="0"/></g><g id="d"><path d="M15.57,5.47v-.52h-.22v.52c0,.52-.23.58-.33.58-.3,0-.33-.41-.33-.45v-1.81c0-.38,0-.73-.33-1.06-.36-.36-.81-.5-1.23-.5-.75,0-1.38.42-1.38,1.02,0,.28.19.44.42.44.25,0,.41-.19.41-.42,0-.11-.03-.41-.45-.42.25-.31.69-.41.97-.41.45,0,.97.34.97,1.16v.33c-.47.03-1.09.06-1.67.33-.67.31-.91.78-.91,1.17,0,.73.89.95,1.45.95.59,0,1.02-.36,1.19-.78.03.36.28.73.7.73.19,0,.73-.12.73-.84ZM14.07,5c0,.86-.66,1.17-1.06,1.17-.44,0-.81-.33-.81-.77,0-.5.38-1.25,1.88-1.31v.91Z" fill="#000" stroke-width="0"/></g><g id="e"><path d="M18.72,5.14v-.52h-.23v.5c0,.67-.27,1.02-.59,1.02-.61,0-.61-.83-.61-.98v-2.5h1.3v-.28h-1.3V.72h-.22c-.02.73-.28,1.7-1.17,1.73v.2h.77v2.48c0,1.11.84,1.22,1.17,1.22.64,0,.89-.64.89-1.22Z" fill="#000" stroke-width="0"/></g><g id="f"><path d="M24.48,3.94h-.22c-.09.92-.23,2.05-1.81,2.05h-.75c-.42,0-.44-.06-.44-.36V.81c0-.31,0-.44.86-.44h.3V.09c-.33.03-1.14.03-1.52.03s-1.06,0-1.38-.03v.28h.22c.69,0,.72.11.72.42v4.77c0,.33-.03.42-.72.42h-.22v.28h4.7l.25-2.33Z" fill="#000" stroke-width="0"/></g><g id="g"><path d="M26.66,4.66v-.23h-.12c-.42,0-.47-.06-.53-.23l-1.55-3.89c-.03-.09-.05-.14-.17-.14s-.14.05-.17.14l-1.47,3.7c-.06.16-.16.42-.73.42v.23c.22-.02.44-.03.66-.03.25,0,.72.03.75.03v-.23c-.28,0-.45-.12-.45-.3,0-.05.02-.06.03-.12l.31-.78h1.78l.38.92s.03.08.03.11c0,.17-.34.17-.52.17v.23l.94-.03c.3,0,.78.03.84.03ZM24.91,3h-1.62l.81-2.06.81,2.06Z" fill="#000" stroke-width="0"/></g><g id="h"><path d="M31.79,2.19l-.17-2.03h-5.52l-.17,2.03h.22c.12-1.45.27-1.75,1.62-1.75.17,0,.41,0,.5.02.19.03.19.12.19.34v4.75c0,.31,0,.44-.95.44h-.36v.28c.38-.03,1.28-.03,1.7-.03s1.34,0,1.72.03v-.28h-.36c-.95,0-.95-.12-.95-.44V.8c0-.19,0-.31.16-.34.11-.02.34-.02.52-.02,1.38,0,1.5.3,1.62,1.75h.23Z" fill="#000" stroke-width="0"/></g><g clip-path="url(#i)"><g id="j"><path d="M36.5,5.88h-.23c-.22,1.39-.42,2.05-1.98,2.05h-1.2c-.42,0-.44-.06-.44-.36v-2.41h.81c.88,0,.97.28.97,1.05h.23v-2.39h-.23c0,.78-.09,1.06-.97,1.06h-.81v-2.17c0-.3.02-.36.44-.36h1.17c1.38,0,1.62.5,1.77,1.75h.23l-.27-2.03h-5.08v.28h.22c.69,0,.72.09.72.42v4.73c0,.33-.03.42-.72.42h-.22v.28h5.22l.38-2.33Z" fill="#000" stroke-width="0"/></g></g><g clip-path="url(#k)"><g id="l"><path d="M42.19,6.27v-.28h-.17c-.47,0-.67-.05-.86-.33l-1.91-2.88,1.25-1.81c.19-.3.5-.58,1.3-.59V.09l-1,.03c-.36,0-.8,0-1.16-.03v.28c.36.02.56.2.56.42,0,.09-.02.11-.08.2l-1.03,1.53-1.17-1.75s-.06-.09-.06-.14c0-.09.2-.25.59-.27V.09c-.31.03-.98.03-1.31.03l-1.19-.03v.28h.17c.5,0,.67.06.84.31l1.66,2.52-1.47,2.19c-.12.17-.41.59-1.31.59v.28l1-.03c.33,0,.83,0,1.16.03v-.28c-.42,0-.56-.25-.56-.42,0-.08.02-.11.08-.2l1.28-1.91,1.44,2.16s.05.08.05.11c0,.11-.2.27-.59.27v.28c.31-.03.98-.03,1.31-.03l1.19.03Z" fill="#000" stroke-width="0"/></g><g id="m"><path d="M47.65,3.94h-.22c-.09.92-.23,2.05-1.81,2.05h-.75c-.42,0-.44-.06-.44-.36V.81c0-.31,0-.44.86-.44h.3V.09c-.33.03-1.14.03-1.52.03s-1.06,0-1.38-.03v.28h.22c.69,0,.72.11.72.42v4.77c0,.33-.03.42-.72.42h-.22v.28h4.7l.25-2.33Z" fill="#000" stroke-width="0"/></g><g id="n"><path d="M50.28,6.27v-.28c-.59,0-.64-.05-.64-.39v-3.31l-1.27.09v.28c.59,0,.67.05.67.5v2.42c0,.41-.09.41-.7.41v.28l1-.03c.31,0,.62.02.94.03ZM49.78.81c0-.25-.2-.48-.48-.48-.3,0-.48.25-.48.48s.2.48.48.48c.3,0,.48-.27.48-.48Z" fill="#000" stroke-width="0"/></g><g id="o"><path d="M55.26,4.31c0-1.14-.89-2.03-1.91-2.03-.7,0-1.09.42-1.25.58V0l-1.3.09v.28c.64,0,.7.06.7.52v5.38h.23l.33-.56c.12.2.5.66,1.17.66,1.08,0,2.02-.88,2.02-2.05ZM54.51,4.31c0,.33-.02.88-.28,1.28-.19.28-.53.58-1.02.58-.41,0-.73-.22-.95-.56-.12-.19-.12-.2-.12-.38v-1.86c0-.17,0-.19.11-.33.34-.5.84-.58,1.06-.58.41,0,.73.23.94.58.23.38.27.89.27,1.27Z" fill="#000" stroke-width="0"/></g></g></svg>