<?xml version="1.0" encoding="UTF-8"?><svg id="a" xmlns="http://www.w3.org/2000/svg" viewBox="0 0 368.65 368.65"><g id="b"><path d="M184.32,368.64c-3.28,0-5.95-2.66-5.95-5.95V5.95c0-3.29,2.67-5.95,5.95-5.95s5.95,2.66,5.95,5.95v356.75c0,3.28-2.66,5.95-5.95,5.95h0Z" fill="#3b4a51" fill-rule="evenodd" stroke-width="0"/><path d="M166.48,29.73c-1.5,0-3.01-.57-4.17-1.7-2.34-2.3-2.38-6.07-.07-8.41L179.77,1.78c1.1-1.12,2.61-1.76,4.19-1.78h.05c1.56,0,3.05.61,4.17,1.71l18.15,17.84c2.34,2.3,2.38,6.07.07,8.41s-6.07,2.37-8.41.07l-13.91-13.67-13.36,13.59c-1.16,1.18-2.7,1.78-4.24,1.78h0Z" fill="#3b4a51" fill-rule="evenodd" stroke-width="0"/><path d="M362.69,190.27H5.95c-3.28,0-5.95-2.66-5.95-5.95s2.66-5.95,5.95-5.95h356.75c3.28,0,5.95,2.66,5.95,5.95s-2.66,5.95-5.95,5.95h-.01Z" fill="#3b4a51" fill-rule="evenodd" stroke-width="0"/><path d="M344.86,208.1c-1.51,0-3.01-.57-4.17-1.7-2.34-2.3-2.38-6.07-.07-8.41l13.67-13.91-13.6-13.36c-2.34-2.3-2.38-6.07-.07-8.41,2.3-2.34,6.07-2.38,8.41-.07l17.84,17.52c1.12,1.1,1.77,2.61,1.78,4.19s-.6,3.1-1.7,4.22l-17.84,18.15c-1.16,1.18-2.7,1.78-4.24,1.78h0Z" fill="#3b4a51" fill-rule="evenodd" stroke-width="0"/><path d="M118.92,35.68c-1.52,0-3.04-.58-4.2-1.74-2.32-2.32-2.32-6.09,0-8.41L138.49,1.74c2.32-2.32,6.09-2.32,8.41,0s2.32,6.09,0,8.41l-23.78,23.78c-1.16,1.16-2.68,1.74-4.2,1.74h0Z" fill="#707dd3" fill-rule="evenodd" stroke-width="0"/><path d="M142.7,35.68c-1.52,0-3.04-.58-4.2-1.74l-23.78-23.78c-2.32-2.32-2.32-6.09,0-8.41s6.09-2.32,8.41,0l23.78,23.78c2.32,2.32,2.32,6.09,0,8.41-1.16,1.16-2.68,1.74-4.21,1.74Z" fill="#707dd3" fill-rule="evenodd" stroke-width="0"/><path d="M350.8,127.84c-1.52,0-3.04-.58-4.2-1.74-2.32-2.32-2.32-6.09,0-8.41l11.89-11.89c2.32-2.32,6.09-2.32,8.41,0s2.32,6.09,0,8.41l-11.89,11.89c-1.16,1.16-2.68,1.74-4.2,1.74h0Z" fill="#f1cb86" fill-rule="evenodd" stroke-width="0"/><path d="M350.8,127.84c-1.52,0-3.04-.58-4.2-1.74l-11.89-11.89c-2.32-2.32-2.32-6.09,0-8.41s6.09-2.32,8.41,0l11.89,11.89c2.32,2.32,2.32,6.09,0,8.41-1.16,1.16-2.68,1.74-4.2,1.74h0Z" fill="#f1cb86" fill-rule="evenodd" stroke-width="0"/><path d="M350.8,148.65c-3.28,0-5.95-2.66-5.95-5.95v-20.81c0-3.28,2.66-5.95,5.95-5.95s5.95,2.66,5.95,5.95v20.81c0,3.28-2.66,5.95-5.95,5.95Z" fill="#f1cb86" fill-rule="evenodd" stroke-width="0"/><path d="M47.57,327.02c-1.52,0-3.04-.58-4.2-1.74-2.32-2.32-2.32-6.09,0-8.41L310.92,49.31c2.32-2.32,6.09-2.32,8.41,0s2.32,6.09,0,8.41L51.77,325.28c-1.16,1.16-2.68,1.74-4.2,1.74Z" fill="#dd636e" fill-rule="evenodd" stroke-width="0"/></g></svg>