<svg xmlns="http://www.w3.org/2000/svg" xmlns:xlink="http://www.w3.org/1999/xlink" width="153.285pt" height="118.206pt" viewBox="0 0 153.285 118.206"><defs><path id="b" d="M.5-4.03125C.5-1.625 1.20313.14063 3.20313.14063c1.98437 0 2.71875-1.76563 2.71875-4.17188 0-2.42187-.73438-4.1875-2.71875-4.1875-2 0-2.70313 1.76563-2.70313 4.1875m1.21875 0c0-1.96875.34375-3.76562 1.48438-3.76562C4.34375-7.79687 4.6875-6 4.6875-4.03125c0 1.95313-.34375 3.75-1.48437 3.75-1.14063 0-1.48438-1.79687-1.48438-3.75m0 0"/><path id="c" d="M1.1875 0h3.57813v-.3125l-.92188-.07812C3.60938-.42187 3.48438-.5 3.48438-.92187v-6.42188l-.0625-.04687-2.23438.375V-6.75l1.01563.125c.1875.03125.25.10938.25.42188v5.28125c0 .42187-.10938.5-.35938.53125L1.1875-.3125Zm0 0"/><path id="d" d="M.29688-.10937.40625 0h4.5l.375-1.4375L4.98438-1.5c-.23438.59375-.45313.67188-.89063.67188H1.3125c.17188-.5625.8125-1.34375 1.82813-2.0625 1.04687-.76563 1.84375-1.25 1.84375-2.46875 0-1.51563-1-2.03125-2.14063-2.03125-1.5 0-2.26562.89062-2.26562 1.46875 0 .35937.42187.53125.60937.53125S1.45313-5.5 1.5-5.6875c.17188-.73437.59375-1.32812 1.26563-1.32812.82812 0 1.07812.6875 1.07812 1.5 0 1.15625-.59375 1.82812-1.54687 2.65625C.96875-1.6875.5-.95312.29688-.10937m0 0"/><path id="e" d="M.29688-1.10937c0 .46875.75 1.23437 2.28125 1.23437 1.57812 0 2.57812-.79687 2.57812-2.1875 0-1.45312-1.25-1.89062-1.85937-1.9375v-.04687c.59375-.09375 1.53125-.53125 1.53125-1.60938 0-1.20312-.9375-1.73437-2.10938-1.73437-1.4375 0-2.14062.82812-2.14062 1.28125 0 .34375.39062.53125.53125.53125s.21874-.07813.26562-.21875c.25-.75.65625-1.21875 1.26563-1.21875.85937 0 1.07812.75 1.07812 1.35937C3.71875-5 3.48438-4.1875 2.5625-4.1875c-.53125 0-.82812-.09375-.95312-.09375-.14063 0-.20313.09375-.20313.29688 0 .1875.0625.29687.20313.29687.125 0 .42187-.09375.95312-.09375C3.48438-3.78125 4-2.95312 4-2 4-.70312 3.375-.25 2.59375-.25c-.71875 0-1.1875-.53125-1.40625-1.15625-.0625-.20312-.17187-.3125-.3125-.3125-.20312 0-.57812.21875-.57812.60938m0 0"/><clipPath id="a"><path d="M23 0h129.41797v93H23Zm0 0"/></clipPath><clipPath id="f"><path d="M134 79h18.41797v26H134Zm0 0"/></clipPath></defs><g clip-path="url(#a)"><path fill="none" stroke="#7f7f7f" stroke-dasharray=".39584200500000005 .9896348124000001" stroke-miterlimit="10" stroke-width=".39584" d="M23.90625 91.90625h128.11722M23.90625 55.30077h128.11722M23.90625 18.6953h128.11722M23.90625 91.90625V.39451m36.60548 91.51174V.39451M97.1172 91.90625V.39451m36.60548 91.51174V.39451"/></g><use xlink:href="#b" x="7.89131" y="108.75846" fill="#7f7f7f"/><path fill="none" stroke="#7f7f7f" stroke-miterlimit="10" stroke-width=".39584" d="M60.51173 82.7539v18.3047"/><use xlink:href="#c" x="57.62822" y="113.00196" fill="#7f7f7f"/><path fill="none" stroke="#7f7f7f" stroke-miterlimit="10" stroke-width=".39584" d="M97.1172 82.7539v18.3047"/><use xlink:href="#d" x="94.23235" y="113.00196" fill="#7f7f7f"/><path fill="none" stroke="#7f7f7f" stroke-miterlimit="10" stroke-width=".39584" d="M133.72269 82.7539v18.3047"/><use xlink:href="#e" x="130.83747" y="113.00196" fill="#7f7f7f"/><path fill="none" stroke="#000" stroke-miterlimit="10" stroke-width=".79169" d="M5.60546 91.90625h140.2852"/><path d="M150.02344 91.90625c-.50781-.10547-2.73828-.70312-4.13281-1.35547v2.71094c1.39453-.65234 3.625-1.25 4.1328-1.35547m0 0"/><g clip-path="url(#f)"><path fill="none" stroke="#000" stroke-miterlimit="10" stroke-width=".79169" d="M150.02344 91.90625c-.50781-.10547-2.73828-.70313-4.13282-1.35547v2.71094c1.39454-.65235 3.625-1.25 4.13282-1.35547Zm0 0"/></g><path fill="none" stroke="#7f7f7f" stroke-miterlimit="10" stroke-width=".39584" d="M33.0586 55.30077H14.7539"/><use xlink:href="#c" x="4.44446" y="59.00168" fill="#7f7f7f"/><path fill="none" stroke="#7f7f7f" stroke-miterlimit="10" stroke-width=".39584" d="M33.0586 18.6953H14.7539"/><use xlink:href="#d" x="4.44446" y="22.39755" fill="#7f7f7f"/><path fill="none" stroke="#000" stroke-miterlimit="10" stroke-width=".79169" d="M23.90625 110.21094V6.53123"/><path stroke="#000" stroke-miterlimit="10" stroke-width=".79169" d="M23.90625 2.39453c-.10547.50781-.70313 2.73828-1.35547 4.13672h2.71094c-.65234-1.39844-1.25-3.6289-1.35547-4.13672Zm0 0"/></svg>