<svg xmlns="http://www.w3.org/2000/svg" xmlns:xlink="http://www.w3.org/1999/xlink" width="153.308pt" height="118.206pt" viewBox="0 0 153.308 118.206"><defs><path id="b" d="M.5-4.03125C.5-1.625 1.21875.14063 3.21875.14063c1.98438 0 2.70313-1.76563 2.70313-4.17188 0-2.42187-.71875-4.1875-2.70313-4.1875-2 0-2.71875 1.76563-2.71875 4.1875m1.21875 0c0-1.96875.35938-3.76562 1.5-3.76562C4.35938-7.79687 4.6875-6 4.6875-4.03125c0 1.95313-.32812 3.75-1.46875 3.75-1.14062 0-1.5-1.79687-1.5-3.75m0 0"/><path id="c" d="M1.1875 0h3.57813v-.3125l-.92188-.07812C3.60938-.42187 3.48438-.5 3.48438-.92187v-6.42188l-.0625-.04687-2.23438.375V-6.75l1.01563.125c.1875.03125.25.10938.25.42188v5.28125c0 .42187-.10938.5-.35938.53125L1.1875-.3125Zm0 0"/><path id="d" d="M.29688-.10937.42188 0h4.5l.375-1.4375-.3125-.0625c-.21875.59375-.45313.67188-.89063.67188H1.3125c.1875-.5625.82813-1.34375 1.84375-2.0625C4.1875-3.65625 5-4.14062 5-5.35937 5-6.875 4-7.39062 2.84375-7.39062c-1.48437 0-2.25.89062-2.25 1.46875 0 .35937.40625.53125.59375.53125.20313 0 .26563-.10938.3125-.29688.17188-.73437.60938-1.32812 1.28125-1.32812.82813 0 1.07813.6875 1.07813 1.5 0 1.15625-.59375 1.82812-1.54688 2.65625C.96875-1.6875.51563-.95312.29688-.10937m0 0"/><path id="e" d="M.29688-1.10937c0 .46875.75 1.23437 2.29687 1.23437 1.57813 0 2.5625-.79687 2.5625-2.1875 0-1.45312-1.25-1.89062-1.84375-1.9375v-.04687c.59375-.09375 1.53125-.53125 1.53125-1.60938 0-1.20312-.9375-1.73437-2.10937-1.73437-1.4375 0-2.14063.82812-2.14063 1.28125 0 .34375.375.53125.53125.53125.14063 0 .21875-.07813.26563-.21875.23437-.75.64062-1.21875 1.26562-1.21875.85938 0 1.07813.75 1.07813 1.35937C3.73438-5 3.5-4.1875 2.57813-4.1875c-.53125 0-.82813-.09375-.95313-.09375-.14062 0-.20312.09375-.20312.29688 0 .1875.0625.29687.20312.29687.125 0 .42188-.09375.95313-.09375.92187 0 1.4375.82813 1.4375 1.78125 0 1.29688-.64063 1.75-1.40625 1.75-.71875 0-1.20313-.53125-1.40625-1.15625-.0625-.20312-.17188-.3125-.32813-.3125-.1875 0-.57812.21875-.57812.60938m0 0"/><clipPath id="a"><path d="M23 0h129.45313v93H23Zm0 0"/></clipPath><clipPath id="f"><path d="M134 79h18.45313v26H134Zm0 0"/></clipPath></defs><g clip-path="url(#a)"><path fill="none" stroke="#7f7f7f" stroke-dasharray=".39584200500000005 .9896348124000001" stroke-miterlimit="10" stroke-width=".39584" d="M23.9414 91.90625h128.11723M23.9414 55.30077h128.11722M23.9414 18.6953h128.11722M23.9414 91.90625V.39451m36.60547 91.51174V.39451m36.60548 91.51174V.39451m36.60548 91.51174V.39451"/></g><use xlink:href="#b" x="7.91274" y="108.75846" fill="#7f7f7f"/><path fill="none" stroke="#7f7f7f" stroke-miterlimit="10" stroke-width=".39584" d="M60.54688 82.7539v18.3047"/><use xlink:href="#c" x="57.65164" y="113.00196" fill="#7f7f7f"/><path fill="none" stroke="#7f7f7f" stroke-miterlimit="10" stroke-width=".39584" d="M97.15236 82.7539v18.3047"/><use xlink:href="#d" x="94.25577" y="113.00196" fill="#7f7f7f"/><path fill="none" stroke="#7f7f7f" stroke-miterlimit="10" stroke-width=".39584" d="M133.75784 82.7539v18.3047"/><use xlink:href="#e" x="130.85989" y="113.00196" fill="#7f7f7f"/><path fill="none" stroke="#000" stroke-miterlimit="10" stroke-width=".79169" d="M5.63671 91.90625h140.2852"/><path d="M150.0586 91.90625c-.50782-.10547-2.73829-.70312-4.13673-1.35547v2.71094c1.39844-.65234 3.62891-1.25 4.13672-1.35547m0 0"/><g clip-path="url(#f)"><path fill="none" stroke="#000" stroke-miterlimit="10" stroke-width=".79169" d="M150.0586 91.90625c-.50782-.10547-2.73829-.70313-4.13672-1.35547v2.71094c1.39843-.65235 3.6289-1.25 4.13672-1.35547Zm0 0"/></g><path fill="none" stroke="#7f7f7f" stroke-miterlimit="10" stroke-width=".39584" d="M33.09375 55.30077h-18.3047"/><use xlink:href="#c" x="4.45596" y="59.00168" fill="#7f7f7f"/><path fill="none" stroke="#7f7f7f" stroke-miterlimit="10" stroke-width=".39584" d="M33.09375 18.6953h-18.3047"/><use xlink:href="#d" x="4.45596" y="22.39755" fill="#7f7f7f"/><path fill="none" stroke="#000" stroke-miterlimit="10" stroke-width=".79169" d="M23.9414 110.21094V6.53123"/><path stroke="#000" stroke-miterlimit="10" stroke-width=".79169" d="M23.9414 2.39453c-.10546.50781-.70312 2.73828-1.35546 4.13672h2.71094c-.65235-1.39844-1.25-3.6289-1.35547-4.13672Zm0 0"/></svg>