<svg xmlns="http://www.w3.org/2000/svg" xmlns:xlink="http://www.w3.org/1999/xlink" width="179.19pt" height="180.042pt" viewBox="0 0 179.19 180.042"><defs><path id="b" d="M.4375-3.5c0 2.09375.60938 3.625 2.34375 3.625C4.5.125 5.125-1.40625 5.125-3.5S4.5-7.125 2.78125-7.125C1.04688-7.125.4375-5.59375.4375-3.5M1.5-3.5c0-1.70312.28125-3.26562 1.28125-3.26562.98438 0 1.28125 1.5625 1.28125 3.26562S3.76563-.25 2.78125-.25C1.78125-.25 1.5-1.79687 1.5-3.5m0 0"/><path id="c" d="M1.14063 0h3.4375v-.29687l-.875-.07813c-.21875-.03125-.34375-.10937-.34375-.51562v-6.1875l-.0625-.04688-2.15625.35938V-6.5l.98437.125c.17188.01563.23438.09375.23438.39063v5.09375c0 .40625-.09375.48437-.34375.51562l-.875.07813Zm0 0"/><path id="d" d="M.28125-.09375.39063 0h4.34375l.35937-1.39062-.29687-.04688c-.21875.5625-.4375.64063-.85938.64063H1.26563c.15624-.54688.78125-1.29688 1.75-2C4.03125-3.53125 4.8125-4 4.8125-5.17187c0-1.45313-.96875-1.95313-2.07812-1.95313-1.4375 0-2.17188.85938-2.17188 1.40625 0 .35938.39063.53125.57813.53125s.25-.10937.29687-.29687c.17188-.70313.57813-1.28125 1.23438-1.28125.79687 0 1.03125.67187 1.03125 1.4375 0 1.14062-.5625 1.76562-1.48438 2.57812C.92188-1.625.48438-.92187.28125-.09375m0 0"/><path id="e" d="M.28125-1.07812C.28125-.625 1 .125 2.48438.125 4 .125 4.96875-.64062 4.96875-1.98437c0-1.40625-1.20312-1.8125-1.79687-1.875v-.04688C3.75-4 4.65625-4.42187 4.65625-5.45312 4.65625-6.60937 3.75-7.125 2.625-7.125c-1.39062 0-2.0625.79688-2.0625 1.25 0 .3125.35938.5.51563.5.125 0 .20312-.07812.25-.21875.23437-.70312.625-1.17187 1.21875-1.17187.82812 0 1.03125.73437 1.03125 1.32812 0 .625-.21875 1.40625-1.10938 1.40625-.5 0-.79687-.09375-.92187-.09375q-.1875 0-.1875.28125c0 .1875.0625.29688.1875.29688s.42187-.09375.92187-.09375c.89063 0 1.39063.79687 1.39063 1.70312C3.85938-.6875 3.25-.25 2.5-.25c-.6875 0-1.15625-.51562-1.34375-1.09375-.07812-.20312-.17187-.3125-.3125-.3125-.20312 0-.5625.20313-.5625.57813m0 0"/><path id="f" d="m.20313-2.09375.09375.21875h2.84375v1.07813c0 .34375-.10938.40625-.35938.42187l-.67187.07813V0H4.875v-.29687l-.46875-.0625c-.25-.03125-.3125-.09375-.3125-.4375V-1.875h1.07813v-.48437H4.09375V-7h-.76562c-.98438 1.4375-2.17188 3.26563-3.125 4.90625m.75-.26562c.625-1.14063 1.39062-2.35938 2.1875-3.625v3.625Zm0 0"/><path id="i" d="M1-3.28125c0 2.625.59375 5.51563 3.0625 5.60938v-.34375c-.82812-.15626-2.125-1.1875-2.125-5.26563 0-4.04687 1.23438-5.07812 2.125-5.26562v-.34375C1.59375-8.79687 1-5.90625 1-3.28125m0 0"/><path id="j" d="M.875-1.40625c0 .76563.21875 1.54688 1.15625 1.54688 1.34375 0 2.375-1.42188 3.0625-2.6875H5.125l-.39062 1.39062c-.0625.23438-.09375.45313-.09375.625 0 .4375.1875.67188.59375.67188.92187 0 1.53125-.79688 1.92187-1.67188l-.26562-.17187c-.21875.42187-.73438 1.23437-1.04688 1.23437-.14062 0-.1875-.09375-.1875-.21875s.03125-.25.0625-.42187L7.5625-8.59375 7.5-8.64062l-2.07812.28125-.0625.26562.70312.0625c.1875.01563.25.0625.25.20313 0 .0625 0 .15625-.04687.28125l-.4375 1.875-.03125.01562c-.21875-.10937-.57813-.1875-.98438-.1875-2.70312 0-3.9375 3.03125-3.9375 4.4375m1.14063.10938c0-1.26563 1.01562-4.14063 2.875-4.14063.35937 0 .67187.10938.8125.23438-.17188.89062-.5625 2-1.15625 2.95312-.5625.90625-1.32813 1.78125-1.9375 1.78125-.375 0-.59375-.3125-.59375-.82812m0 0"/><path id="l" d="M.6875 1.98438v.34375C3.15625 2.23438 3.75-.65625 3.75-3.28125S3.15625-8.79687.6875-8.89062v.34375c.90625.1875 2.14063 1.21875 2.14063 5.26562 0 4.07813-1.29688 5.10938-2.14063 5.26563m0 0"/><path id="k" d="M.89063 0h2.71875v-.25l-.64063-.0625c-.1875-.01562-.26562-.07812-.26562-.375V-5.5l-.0625-.04687-1.75.29687v.21875l.70312.09375c.15625.03125.20313.09375.20313.34375V-.6875c0 .29688-.07813.35938-.26563.375L.89063-.25Zm0 0"/><path id="n" d="M.23438-.09375.32813 0h3.45312l.29688-1.15625-.25-.04687c-.1875.4375-.32813.48437-.65625.48437H1.07813c.14062-.375.5625-.92187 1.35937-1.45312.82813-.5625 1.40625-.9375 1.40625-1.82813 0-1.14062-.76562-1.54687-1.67187-1.54687-1.10938 0-1.73438.64062-1.73438 1.14062 0 .29688.32813.4375.5.4375.15625 0 .23438-.09375.28125-.25.125-.5625.42188-1.01562.90625-1.01562.57813 0 .75.48437.75 1.07812 0 .79688-.34375 1.3125-1.10937 1.96875C.71875-1.29687.35938-.70312.23438-.09375m0 0"/><path id="p" d="M.21875-.85937c0 .32812.54688.95312 1.78125.95312 1.20313 0 1.96875-.59375 1.96875-1.625 0-1.10937-.96875-1.40625-1.39062-1.45312v-.03125c.45312-.07813 1.15625-.40625 1.15625-1.20313 0-.95312-.78125-1.32812-1.65625-1.32812-1.03125 0-1.64063.59375-1.64063 1 0 .28125.3125.42187.45313.42187.125 0 .1875-.07812.23437-.1875.1875-.57812.46875-.92187.90625-.92187.60938 0 .75.5625.75 1S2.64063-3.125 1.98438-3.125c-.375 0-.625-.09375-.75-.09375-.10938 0-.15626.09375-.15626.25s.04688.25.15626.25c.125 0 .375-.07812.75-.07812.60937 0 1 .51562 1 1.29687C2.98438-.5625 2.5625-.20312 2-.20312c-.48437 0-.82812-.375-1-.90625-.0625-.15626-.14062-.25-.26562-.25-.1875 0-.51563.1875-.51563.5m0 0"/><clipPath id="a"><path d="M1 0h177.3125v177H1Zm0 0"/></clipPath><clipPath id="g"><path d="M160 146h18.3125v26H160Zm0 0"/></clipPath><clipPath id="h"><path d="M1.6875.39453h176.23047V153H1.6875Zm0 0"/></clipPath><clipPath id="m"><path d="M1.6875.39453h176.23047V83H1.6875Zm0 0"/></clipPath><clipPath id="o"><path d="M1.6875.39453h176.23047V176.625H1.6875Zm0 0"/></clipPath></defs><g clip-path="url(#a)"><path fill="none" stroke="#000" stroke-miterlimit="10" stroke-opacity=".5" stroke-width=".39639" d="M1.6875 159h176.23044M1.6875 123.75391h176.23044M1.6875 88.50783h176.23044M1.6875 53.26173h176.23044M1.6875 18.01566h176.23044M19.3125 176.625V.39456M54.55859 176.625V.39456M89.80467 176.625V.39456m35.2461 176.23044V.39456M160.29684 176.625V.39456"/></g><path fill="none" stroke="#000" stroke-miterlimit="10" stroke-opacity=".5" stroke-width=".39639" d="M19.3125 150.1914v17.6211"/><use xlink:href="#b" x="4.20038" y="174.83769" fill-opacity=".5"/><path fill="none" stroke="#000" stroke-miterlimit="10" stroke-opacity=".5" stroke-width=".39639" d="M54.55859 150.1914v17.6211"/><use xlink:href="#c" x="51.78121" y="171.37412" fill-opacity=".5"/><path fill="none" stroke="#000" stroke-miterlimit="10" stroke-opacity=".5" stroke-width=".39639" d="M89.80467 150.1914v17.6211"/><use xlink:href="#d" x="87.02766" y="171.37412" fill-opacity=".5"/><path fill="none" stroke="#000" stroke-miterlimit="10" stroke-opacity=".5" stroke-width=".39639" d="M125.05076 150.1914v17.6211"/><use xlink:href="#e" x="122.27312" y="171.31344" fill-opacity=".5"/><path fill="none" stroke="#000" stroke-miterlimit="10" stroke-opacity=".5" stroke-width=".39639" d="M160.29685 150.1914v17.6211"/><use xlink:href="#f" x="157.51858" y="171.31344" fill-opacity=".5"/><path fill="none" stroke="#000" stroke-miterlimit="10" stroke-width=".79279" d="M1.6875 159h170.08591"/><path d="M175.91797 159c-.50781-.10547-2.7461-.70312-4.14453-1.35547v2.71484c1.39844-.65234 3.63672-1.2539 4.14453-1.35937m0 0"/><g clip-path="url(#g)"><path fill="none" stroke="#000" stroke-miterlimit="10" stroke-width=".79279" d="M175.91797 159c-.50781-.10547-2.7461-.70312-4.14453-1.35547v2.71484c1.39843-.65234 3.63672-1.2539 4.14453-1.35937Zm0 0"/></g><path fill="none" stroke="#000" stroke-miterlimit="10" stroke-opacity=".5" stroke-width=".39639" d="M28.125 123.75391H10.5"/><use xlink:href="#c" x="4.20038" y="127.31755" fill-opacity=".5"/><path fill="none" stroke="#000" stroke-miterlimit="10" stroke-opacity=".5" stroke-width=".39639" d="M28.125 88.50783H10.5"/><use xlink:href="#d" x="4.20038" y="92.07209" fill-opacity=".5"/><path fill="none" stroke="#000" stroke-miterlimit="10" stroke-opacity=".5" stroke-width=".39639" d="M28.125 53.26174H10.5"/><use xlink:href="#e" x="4.20038" y="56.76496" fill-opacity=".5"/><path fill="none" stroke="#000" stroke-miterlimit="10" stroke-opacity=".5" stroke-width=".39639" d="M28.125 18.01565H10.5"/><use xlink:href="#f" x="4.20038" y="21.51949" fill-opacity=".5"/><path fill="none" stroke="#000" stroke-miterlimit="10" stroke-width=".79279" d="M19.3125 176.625V6.5391"/><path stroke="#000" stroke-miterlimit="10" stroke-width=".79279" d="M19.3125 2.39453c-.10547.51172-.70703 2.7461-1.35937 4.14453h2.71484c-.65235-1.39843-1.25-3.6328-1.35547-4.14453Zm0 0"/><g clip-path="url(#h)"><path fill="none" stroke="#007F7F" stroke-miterlimit="10" stroke-width=".79279" d="M1.6875 141.37891s5.3086-5.30469 7.34375-7.34375l7.34375-7.34375c2.03516-2.03515 5.30469-5.30468 7.34375-7.33984 2.03516-2.03906 5.30469-5.3086 7.33984-7.34375l7.34375-7.34375 7.34375-7.34375c2.03516-2.03515 5.30469-5.30468 7.34375-7.33984 2.03515-2.03906 5.30468-5.3086 7.33984-7.34375l7.34375-7.34375 7.34375-7.34374c2.03515-2.03516 5.30468-5.3047 7.34375-7.33985 2.03515-2.03906 5.30468-5.30468 7.33984-7.34375l7.34375-7.34374c2.03906-2.03516 5.30468-5.3047 7.34375-7.34375l7.33984-7.33984c2.03906-2.03907 5.3086-5.3047 7.34375-7.34375l7.34375-7.34375c2.03906-2.03516 5.30468-5.30469 7.34374-7.34375l7.33985-7.33984c2.03906-2.03907 5.30859-5.30469 7.34375-7.34375l7.34374-7.34375c2.03907-2.03516 5.30469-5.30469 7.34375-7.33984 2.03516-2.03907 5.30469-5.3086 7.33985-7.34375l7.34374-7.34375"/></g><g fill="#007F7F"><use xlink:href="#i" x="147.04829" y="13.66628"/><use xlink:href="#j" x="151.80505" y="13.66628"/></g><use xlink:href="#k" x="158.37055" y="16.39178" fill="#007F7F"/><use xlink:href="#l" x="163.50945" y="13.66628" fill="#007F7F"/><g clip-path="url(#m)"><path fill="none" stroke="#FF7F00" stroke-miterlimit="10" stroke-width=".79279" d="M1.6875 70.88674s5.3086-5.3047 7.34375-7.34375l7.34375-7.34375c2.03516-2.03516 5.30469-5.30469 7.34375-7.33984 2.03516-2.03907 5.30469-5.3086 7.33984-7.34375l7.34375-7.34375c2.03906-2.03516 5.30469-5.30469 7.34375-7.34375 2.03516-2.03516 5.30469-5.30469 7.34375-7.33984 2.03515-2.03906 5.30468-5.30469 7.33984-7.34375l7.34375-7.34375c2.03906-2.03516 5.30469-5.30469 7.34375-7.34375 2.03515-2.03515 5.30468-5.30469 7.34375-7.33984 2.03515-2.03906 5.30468-5.30469 7.33984-7.34375l7.34375-7.34375c2.03906-2.03515 5.30468-5.30469 7.34375-7.34375l7.33984-7.33984c2.03906-2.03906 5.3086-5.30469 7.34375-7.34375l7.34375-7.34375c2.03906-2.03515 5.30468-5.30468 7.34374-7.33984 2.03516-2.03906 5.3047-5.3086 7.33985-7.34375 2.03906-2.03906 5.30859-5.30468 7.34375-7.34375l7.34374-7.34375c2.03907-2.03515 5.30469-5.30468 7.34375-7.33984 2.03516-2.03906 5.30469-5.3086 7.33985-7.34375l7.34374-7.34375"/></g><g fill="#FF7F00"><use xlink:href="#i" x="28.96362" y="21.10271"/><use xlink:href="#j" x="33.72037" y="21.10271"/></g><use xlink:href="#n" x="40.28587" y="23.82821" fill="#FF7F00"/><use xlink:href="#l" x="45.42478" y="21.10271" fill="#FF7F00"/><g clip-path="url(#o)"><path fill="none" stroke="#EC008C" stroke-miterlimit="10" stroke-width=".79279" d="M1.6875 282.36326s5.3086-15.91797 7.34375-22.03125c2.03906-6.10937 5.30469-15.91406 7.34375-22.02734 2.03516-6.11328 5.30469-15.91406 7.34375-22.02734 2.03516-6.11328 5.30469-15.91406 7.33984-22.02734 2.03906-6.11328 5.30469-15.91796 7.34375-22.02734 2.03906-6.11328 5.30469-15.91796 7.34375-22.03124 2.03516-6.11328 5.30469-15.91406 7.34375-22.02734 2.03515-6.11328 5.30468-15.91406 7.33984-22.02734 2.03906-6.11328 5.30469-15.91406 7.34375-22.02734s5.30469-15.91797 7.34375-22.03125c2.03515-6.10937 5.30468-15.91406 7.34375-22.02734 2.03515-6.11328 5.30468-15.91406 7.33984-22.02734 2.03906-6.11328 5.30469-15.91406 7.34375-22.02734s5.30468-15.91796 7.34375-22.02734c2.03515-6.11328 5.30468-15.91796 7.33984-22.03124 2.03906-6.10938 5.3086-15.91406 7.34375-22.02734 2.03906-6.11328 5.30468-15.91406 7.34375-22.02734s5.30468-15.91406 7.34374-22.02734c2.03516-6.11328 5.3047-15.91797 7.33985-22.02734 2.03906-6.11328 5.30859-15.91797 7.34375-22.03125 2.03906-6.11328 5.30468-15.91406 7.34374-22.02734 2.03907-6.11328 5.30469-15.91406 7.34375-22.02734 2.03516-6.11328 5.30469-15.91406 7.33985-22.02734 2.03906-6.11328 7.34374-22.03124 7.34374-22.03124"/></g><g fill="#EC008C"><use xlink:href="#i" x="58.93415" y="137.0239"/><use xlink:href="#j" x="63.6909" y="137.0239"/></g><use xlink:href="#p" x="70.2564" y="139.7494" fill="#EC008C"/><use xlink:href="#l" x="75.39655" y="137.0239" fill="#EC008C"/></svg>