<svg xmlns="http://www.w3.org/2000/svg" xmlns:xlink="http://www.w3.org/1999/xlink" width="286.466pt" height="287.829pt" viewBox="0 0 286.466 287.829"><defs><path id="b" d="M1.82813 0h5.53125v-.48437l-1.42188-.125c-.34375-.03126-.54687-.15626-.54687-.82813v-9.92187l-.09375-.07813-3.46875.59375v.40625l1.57812.1875c.28125.04688.39063.17188.39063.65625v8.15625c0 .67188-.15625.79688-.5625.82813l-1.40625.125Zm0 0"/><path id="c" d="M.45313-.15625.625 0h6.96875l.57813-2.21875-.46875-.09375C7.34375-1.39062 7-1.26562 6.32813-1.26562h-4.3125c.28125-.89063 1.28125-2.07813 2.84375-3.20313 1.60937-1.1875 2.85937-1.9375 2.85937-3.82812 0-2.34375-1.5625-3.14063-3.32812-3.14063-2.3125 0-3.5 1.39063-3.5 2.26563 0 .57812.65625.84375.9375.84375.29687 0 .40625-.17188.48437-.46875.26563-1.14063.92188-2.04688 1.96875-2.04688 1.28125 0 1.65625 1.0625 1.65625 2.29688 0 1.8125-.90625 2.82812-2.375 4.125C1.48438-2.60937.76563-1.46875.45313-.15625m0 0"/><path id="d" d="M.45313-1.71875C.45313-1 1.60938.20313 4 .20313c2.42188 0 3.96875-1.23438 3.96875-3.39063 0-2.25-1.9375-2.92187-2.85937-3.01562v-.0625c.90625-.14063 2.35937-.82813 2.35937-2.48438 0-1.875-1.45312-2.6875-3.26562-2.6875-2.21875 0-3.3125 1.28125-3.3125 2 0 .51563.59375.8125.82812.8125.21875 0 .34375-.125.40625-.34375.375-1.14062 1.01563-1.875 1.95313-1.875 1.32812 0 1.67187 1.15625 1.67187 2.10938 0 1-.35937 2.26562-1.79687 2.26562-.79688 0-1.26563-.15625-1.46875-.15625-.20313 0-.29688.15625-.29688.46875 0 .28125.09375.46875.29688.46875s.67187-.17187 1.46875-.17187c1.4375 0 2.25 1.29687 2.25 2.76562 0 2-1 2.70313-2.1875 2.70313-1.10938 0-1.84375-.82813-2.17188-1.78125-.10937-.3125-.26562-.48438-.5-.48438-.3125 0-.89062.32813-.89062.9375m0 0"/><path id="e" d="m.32813-3.35937.14062.34375h4.57813v1.71875c0 .57812-.17188.67187-.59375.70312l-1.0625.10938V0h4.4375v-.48437l-.75-.09375c-.40625-.04688-.5-.14063-.5-.71875v-1.71875h1.71875v-.78125H6.57813V-11.25H5.34375C3.76563-8.92187 1.85938-6 .32813-3.35937m1.21875-.4375c1-1.82813 2.21875-3.78125 3.5-5.8125v5.8125Zm0 0"/><path id="f" d="M.70313-5.625c0 3.375.98437 5.82813 3.75 5.82813C7.23438.20313 8.23438-2.25 8.23438-5.625c0-3.35937-1-5.8125-3.78125-5.8125-2.76563 0-3.75 2.45313-3.75 5.8125m1.70312 0c0-2.73437.45313-5.21875 2.04688-5.21875s2.0625 2.48438 2.0625 5.21875-.46875 5.23438-2.0625 5.23438-2.04688-2.5-2.04688-5.23438m0 0"/><path id="j" d="M1.60938-5.26562c0 4.21875.95312 8.84375 4.92187 9V3.1875C5.1875 2.92188 3.10938 1.26563 3.10938-5.26562c0-6.51563 1.98437-8.15625 3.42187-8.45313v-.5625C2.5625-14.125 1.60938-9.48437 1.60938-5.26562m0 0"/><path id="k" d="M1.39063-2.25c0 1.21875.35937 2.46875 1.875 2.46875 2.14062 0 3.8125-2.28125 4.90625-4.29687h.04687l-.625 2.23437c-.09375.375-.15625.70313-.15625.98438 0 .70312.3125 1.07812.96875 1.07812 1.48438 0 2.45313-1.26562 3.09375-2.6875l-.4375-.25C10.71875-2.0625 9.89063-.75 9.375-.75c-.21875 0-.3125-.14062-.3125-.35937 0-.1875.0625-.40625.125-.65625l2.95313-12.01563-.10938-.07812-3.3125.4375-.10937.4375 1.10937.09375c.3125.01562.42188.09375.42188.3125 0 .10937-.01563.26562-.07813.46875l-.71875 3-.03125.04687c-.35937-.1875-.9375-.32812-1.57812-.32812-4.35938 0-6.34375 4.875-6.34375 7.14062m1.84375.15625c0-2.03125 1.64062-6.64062 4.625-6.64062.57812 0 1.07812.1875 1.29687.375C8.875-6.92187 8.25-5.15625 7.29688-3.59375 6.40625-2.14062 5.17188-.75 4.17188-.75c-.59375 0-.9375-.5-.9375-1.34375m0 0"/><path id="m" d="M1.10938 3.1875v.54688c3.96875-.15625 4.92187-4.78125 4.92187-9s-.95312-8.85938-4.92187-9.01563v.5625c1.4375.29688 3.42187 1.9375 3.42187 8.45313 0 6.53125-2.07812 8.1875-3.42187 8.45312m0 0"/><path id="l" d="M1.42188 0H5.8125v-.40625L4.76563-.5c-.29688-.03125-.4375-.125-.4375-.60937v-7.71875L4.25-8.89062l-2.8125.46875v.34375l1.125.15625c.25.04687.32813.14062.32813.54687v6.26563c0 .48437-.125.57812-.42188.60937l-1.04687.09375Zm0 0"/><path id="o" d="M.375-.15625.53125 0H6.0625l.48438-1.85937-.39063-.07813c-.3125.70313-.54687.79688-1.07812.79688H1.73438c.21874-.625.90625-1.5 2.17187-2.35938C5.23438-4.39062 6.1875-5 6.1875-6.4375c0-1.8125-1.25-2.45312-2.6875-2.45312-1.78125 0-2.79687 1.03125-2.79687 1.8125 0 .48437.53125.70312.8125.70312.25 0 .375-.14062.4375-.39062.20312-.92188.6875-1.64063 1.45312-1.64063.92188 0 1.21875.79688 1.21875 1.73438 0 1.26562-.57812 2.10937-1.79687 3.15625C1.15625-2.07812.57813-1.125.375-.15625m0 0"/><path id="q" d="M.35938-1.39062c0 .54687.85937 1.54687 2.84375 1.54687 1.95312 0 3.15625-.95312 3.15625-2.625 0-1.78125-1.54688-2.25-2.20313-2.32812v-.04688c.70313-.125 1.82813-.64062 1.82813-1.92187 0-1.53125-1.25-2.125-2.64063-2.125-1.67187 0-2.64062.92187-2.64062 1.59375 0 .45312.51562.6875.73437.6875.1875 0 .29688-.125.375-.32813.29688-.92187.73438-1.46875 1.4375-1.46875.98438 0 1.21875.92188 1.21875 1.60938 0 .70312-.21875 1.76562-1.29687 1.76562-.59375 0-.98438-.14062-1.1875-.14062-.1875 0-.26563.15625-.26563.40625s.07813.40625.26563.40625c.20312 0 .59375-.14063 1.1875-.14063 1 0 1.625.84375 1.625 2.09375 0 1.5-.6875 2.07813-1.57813 2.07813-.79687 0-1.34375-.60938-1.625-1.45313-.07812-.25-.21875-.39062-.42187-.39062-.29688 0-.8125.28125-.8125.78125m0 0"/><clipPath id="a"><path d="M2 .1836h283.9336V284H2Zm0 0"/></clipPath><clipPath id="g"><path d="M268 242h17.9336v26H268Zm0 0"/></clipPath><clipPath id="h"><path d="M18 .1836h26V18H18Zm0 0"/></clipPath><clipPath id="i"><path d="M2.59766.57813h282.9414V239H2.59766Zm0 0"/></clipPath><clipPath id="n"><path d="M2.59766 45h282.9414v238.51953H2.59766Zm0 0"/></clipPath><clipPath id="p"><path d="M2.59766.57813h282.9414v282.9414H2.59766Zm0 0"/></clipPath></defs><g clip-path="url(#a)"><path fill="none" stroke="#000" stroke-miterlimit="10" stroke-opacity=".5" stroke-width=".39776" d="M2.59767 255.22266h282.9413M2.59767 198.63674h282.9413M2.59767 142.04692h282.9413M2.59767 85.461h282.9413M2.59767 28.87118h282.9413M30.89062 283.51952V.57822m56.58983 282.9413V.57822m56.58591 282.9413V.57822m56.58983 282.9413V.57822m56.58591 282.9413V.57822"/></g><path fill="none" stroke="#000" stroke-miterlimit="10" stroke-opacity=".5" stroke-width=".39776" d="M87.48045 241.07813v28.29296"/><use xlink:href="#b" x="83.02224" y="275.08998" fill-opacity=".5"/><path fill="none" stroke="#000" stroke-miterlimit="10" stroke-opacity=".5" stroke-width=".39776" d="M144.06636 241.07813v28.29296"/><use xlink:href="#c" x="139.60975" y="275.08998" fill-opacity=".5"/><path fill="none" stroke="#000" stroke-miterlimit="10" stroke-opacity=".5" stroke-width=".39776" d="M200.65619 241.07813v28.29296"/><use xlink:href="#d" x="196.19727" y="274.99116" fill-opacity=".5"/><path fill="none" stroke="#000" stroke-miterlimit="10" stroke-opacity=".5" stroke-width=".39776" d="M257.2421 241.07813v28.29296"/><use xlink:href="#e" x="252.78379" y="274.99116" fill-opacity=".5"/><path fill="none" stroke="#000" stroke-miterlimit="10" stroke-opacity=".5" stroke-width=".39776" d="M45.03906 198.63674H16.7461"/><use xlink:href="#b" x="6.62864" y="204.35583" fill-opacity=".5"/><path fill="none" stroke="#000" stroke-miterlimit="10" stroke-opacity=".5" stroke-width=".39776" d="M45.03906 142.04692H16.7461"/><use xlink:href="#c" x="6.62864" y="147.76832" fill-opacity=".5"/><path fill="none" stroke="#000" stroke-miterlimit="10" stroke-opacity=".5" stroke-width=".39776" d="M45.03906 85.461H16.7461"/><use xlink:href="#d" x="6.62864" y="91.08199" fill-opacity=".5"/><path fill="none" stroke="#000" stroke-miterlimit="10" stroke-opacity=".5" stroke-width=".39776" d="M45.03906 28.87118H16.7461"/><use xlink:href="#e" x="6.62864" y="34.49447" fill-opacity=".5"/><path fill="none" stroke="#000" stroke-miterlimit="10" stroke-opacity=".5" stroke-width=".39776" d="M30.89062 241.07813v28.29296"/><use xlink:href="#f" x="6.62864" y="280.65061" fill-opacity=".5"/><path fill="none" stroke="#000" stroke-miterlimit="10" stroke-width=".79553" d="M2.59767 255.22266H279.371"/><path d="M283.52734 255.22266c-.5078-.10547-2.7539-.70703-4.15625-1.35938v2.72266c1.40235-.65625 3.64844-1.2539 4.15625-1.36328m0 0"/><g clip-path="url(#g)"><path fill="none" stroke="#000" stroke-miterlimit="10" stroke-width=".79553" d="M283.52734 255.22266c-.50781-.10547-2.7539-.70704-4.15625-1.35938v2.72266c1.40235-.65625 3.64844-1.2539 4.15625-1.36328Zm0 0"/></g><path fill="none" stroke="#000" stroke-miterlimit="10" stroke-width=".79553" d="M30.89062 283.51952V6.74228"/><path d="M30.89063 2.58594c-.10547.51172-.70704 2.7539-1.35938 4.15625h2.72266c-.65625-1.40235-1.25782-3.64453-1.36328-4.15625m0 0"/><g clip-path="url(#h)"><path fill="none" stroke="#000" stroke-miterlimit="10" stroke-width=".79553" d="M30.89062 2.58594c-.10546.51172-.70703 2.7539-1.35937 4.15625h2.72266c-.65625-1.40235-1.25782-3.64453-1.36329-4.15625Zm0 0"/></g><g clip-path="url(#i)"><path fill="none" stroke="#007F7F" stroke-miterlimit="10" stroke-width=".79553" d="M2.59767 226.9297 285.53115-56.0038"/></g><g fill="#007F7F"><use xlink:href="#j" x="165.63324" y="93.02237"/><use xlink:href="#k" x="173.27032" y="93.02237"/></g><use xlink:href="#l" x="183.81136" y="97.39821" fill="#007F7F"/><use xlink:href="#m" x="192.06397" y="93.02237" fill="#007F7F"/><g clip-path="url(#n)"><path fill="none" stroke="#FF7F00" stroke-miterlimit="10" stroke-width=".79553" d="m2.59767 57.16414 117.89058 117.89058 11.78515 11.78905 117.89058 117.89059 11.78906 11.78515 23.57811 23.57811"/></g><g fill="#FF7F00"><use xlink:href="#j" x="31.83565" y="132.84913"/><use xlink:href="#k" x="39.47273" y="132.84913"/></g><use xlink:href="#o" x="50.01377" y="137.22497" fill="#FF7F00"/><use xlink:href="#m" x="58.26639" y="132.84913" fill="#FF7F00"/><g clip-path="url(#p)"><path fill="none" stroke="#EC008C" stroke-miterlimit="10" stroke-width=".79553" d="M2.59767 453.28118 14.38672 417.914l11.78906-35.36327 82.5234-247.57022 11.78907-35.36326 11.78515-35.36718 82.5234-247.57022 11.78906-35.36327 58.9453-176.83587"/></g><g fill="#EC008C"><use xlink:href="#j" x="80.75347" y="245.96128"/><use xlink:href="#k" x="88.39054" y="245.96128"/></g><use xlink:href="#q" x="98.93158" y="250.33712" fill="#EC008C"/><use xlink:href="#m" x="107.1822" y="245.96128" fill="#EC008C"/></svg>