<svg xmlns="http://www.w3.org/2000/svg" xmlns:xlink="http://www.w3.org/1999/xlink" width="190.135pt" height="191.907pt" viewBox="0 0 190.135 191.907"><defs><path id="b" d="M.5-4.04687C.5-1.625 1.21875.14063 3.20313.14063c2 0 2.71875-1.76563 2.71875-4.1875s-.71875-4.1875-2.71875-4.1875C1.21875-8.23437.5-6.46875.5-4.04687m1.23438 0c0-1.96875.32812-3.76563 1.46875-3.76563 1.15625 0 1.48437 1.79688 1.48437 3.76563S4.35938-.28125 3.20313-.28125c-1.14063 0-1.46875-1.79687-1.46875-3.76562m0 0"/><path id="j" d="M1.04688-3.42187c0 2.73437.60937 5.73437 3.1875 5.84375V2.0625c-.875-.17187-2.21875-1.23437-2.21875-5.48437 0-4.20313 1.28125-5.28125 2.21875-5.46875V-9.25c-2.57813.09375-3.1875 3.09375-3.1875 5.82813m0 0"/><path id="k" d="M.90625-1.45312c0 .78125.23438 1.59375 1.20313 1.59375 1.39062 0 2.48437-1.48438 3.1875-2.78125h.03125l-.40625 1.4375q-.09375.375-.09375.65625c0 .4375.20312.6875.625.6875.95312 0 1.57812-.82813 2-1.73438l-.28125-.17187c-.21875.42187-.76563 1.28125-1.09375 1.28125-.15625 0-.20313-.09375-.20313-.23438 0-.125.04688-.26562.07813-.42187L7.85938-8.9375l-.0625-.04687-2.15625.28125-.0625.28125.71875.0625c.20312.01562.28125.07812.28125.21875 0 .0625-.01563.15625-.0625.29687l-.45313 1.9375-.03125.03125c-.23437-.125-.60937-.20312-1.01562-.20312-2.82813 0-4.10938 3.15625-4.10938 4.625m1.1875.09374c0-1.3125 1.0625-4.29687 3-4.29687.375 0 .6875.10938.82813.25-.17188.92188-.57813 2.0625-1.1875 3.07813-.57813.9375-1.39063 1.84375-2.03125 1.84375-.39063 0-.60938-.32813-.60938-.875m0 0"/><path id="m" d="M.71875 2.0625v.35938c2.5625-.10938 3.1875-3.10938 3.1875-5.84375S3.28125-9.15625.71875-9.25v.35938c.9375.1875 2.21875 1.26562 2.21875 5.46875 0 4.25-1.35937 5.3125-2.21875 5.48437m0 0"/><path id="c" d="M1.1875 0h3.57813v-.3125l-.90625-.07812C3.625-.42187 3.5-.5 3.5-.92187v-6.4375l-.0625-.0625-2.25.39062v.26563l1.01563.125c.1875.01562.26562.10937.26562.42187v5.29688c0 .42187-.10937.5-.375.53125L1.1875-.3125Zm0 0"/><path id="d" d="M.29688-.10937.40625 0h4.51563l.375-1.4375-.3125-.0625c-.21875.59375-.4375.67188-.89063.67188H1.3125c.17188-.5625.82813-1.34375 1.82813-2.07813C4.1875-3.67187 5-4.15625 5-5.375c0-1.51562-1-2.04687-2.15625-2.04687-1.5 0-2.26562.90625-2.26562 1.48437 0 .35938.42187.54688.60937.54688s.26563-.125.3125-.3125c.17188-.73438.59375-1.32813 1.28125-1.32813.82813 0 1.07813.6875 1.07813 1.5 0 1.17188-.59375 1.82813-1.54688 2.65625C.96875-1.6875.5-.95312.29688-.10937m0 0"/><path id="e" d="M.29688-1.10937c0 .45312.75 1.23437 2.29687 1.23437 1.57813 0 2.57813-.79687 2.57813-2.1875 0-1.46875-1.26563-1.89062-1.85938-1.95312v-.04688c.59375-.09375 1.53125-.53125 1.53125-1.60937 0-1.21875-.9375-1.75-2.10937-1.75-1.45313 0-2.15625.84375-2.15625 1.29687 0 .34375.39062.53125.53125.53125s.21874-.07812.26562-.21875c.25-.75.65625-1.21875 1.26563-1.21875.85937 0 1.09375.75 1.09375 1.35938 0 .65625-.23438 1.48437-1.17188 1.48437-.51562 0-.82812-.10937-.95312-.10937-.14063 0-.1875.10937-.1875.29687s.04687.3125.1875.3125c.125 0 .4375-.10937.95312-.10937.9375 0 1.45313.84375 1.45313 1.78125C4.01563-.70312 3.375-.25 2.59375-.25c-.71875 0-1.1875-.54687-1.39062-1.15625-.07813-.20312-.1875-.3125-.32813-.3125-.20312 0-.57812.20313-.57812.60938m0 0"/><path id="f" d="m.20313-2.1875.09375.23438h2.98437v1.125c0 .35937-.125.42187-.39062.4375L2.1875-.3125V0h2.89063v-.3125l-.5-.0625c-.25-.03125-.3125-.09375-.3125-.45312v-1.125H5.375v-.51563H4.26563v-4.82812h-.8125c-1.01563 1.51562-2.25 3.40625-3.25 5.10937M1-2.46875c.65625-1.17187 1.4375-2.4375 2.28125-3.76562v3.76562Zm0 0"/><path id="l" d="M.92188 0h2.84375v-.26562l-.67188-.0625c-.1875-.01563-.28125-.07813-.28125-.39063v-5L2.75-5.76562l-1.8125.29687v.23438l.71875.09375c.17188.03125.21875.09375.21875.35937v4.0625c0 .3125-.07812.375-.28125.39063l-.67187.0625Zm0 0"/><path id="o" d="M.25-.09375.34375 0H3.9375L4.25-1.20312 3.98438-1.25c-.1875.45313-.34375.51563-.6875.51563H1.125c.14063-.40625.59375-.98438 1.40625-1.53125.85938-.57813 1.48438-.98438 1.48438-1.90625 0-1.1875-.8125-1.59375-1.75-1.59375-1.15625 0-1.8125.65625-1.8125 1.17187 0 .3125.34375.45313.53125.45313.15624 0 .25-.09375.28124-.25.14063-.59375.45313-1.0625.95313-1.0625.59375 0 .78125.51562.78125 1.125C3-3.5 2.625-2.96875 1.82813-2.28125.75-1.34375.375-.73437.25-.09375m0 0"/><path id="q" d="M.23438-.90625c0 .35938.5625 1 1.84375 1 1.26562 0 2.04687-.60937 2.04687-1.6875 0-1.15625-1-1.46875-1.4375-1.51562v-.03125c.46875-.07813 1.20313-.42188 1.20313-1.25 0-.98438-.8125-1.375-1.71875-1.375-1.09375 0-1.71875.59375-1.71875 1.03125 0 .29687.32812.4375.48437.4375.125 0 .1875-.07813.23438-.20313.1875-.59375.48437-.95312.9375-.95312.64062 0 .79687.59375.79687 1.04687 0 .45313-.15625 1.14063-.84375 1.14063-.39062 0-.64062-.07813-.76562-.07813s-.17188.09375-.17188.25c0 .17188.04688.26563.17188.26563s.375-.09375.76562-.09375c.64063 0 1.04688.54687 1.04688 1.35937 0 .96875-.4375 1.34375-1.01563 1.34375-.51562 0-.875-.39062-1.0625-.9375-.04687-.15625-.14062-.25-.26562-.25-.20313 0-.53125.17188-.53125.5m0 0"/><clipPath id="a"><path d="M23 .38672h166.27344V167H23Zm0 0"/></clipPath><clipPath id="g"><path d="M171 153h18.27344v26H171Zm0 0"/></clipPath><clipPath id="h"><path d="M11 .38672h26V19H11Zm0 0"/></clipPath><clipPath id="i"><path d="M5.46094.78125H188.8789V159H5.46094Zm0 0"/></clipPath><clipPath id="n"><path d="M5.46094.78125H188.8789V86H5.46094Zm0 0"/></clipPath><clipPath id="p"><path d="M5.46094.78125H188.8789v183.42188H5.46094Zm0 0"/></clipPath></defs><g clip-path="url(#a)"><path fill="none" stroke="#7f7f7f" stroke-dasharray=".396694795 .9917668516" stroke-miterlimit="10" stroke-width=".39669" d="M23.80078 165.85937h165.0781M23.80077 129.1758h165.0781M23.80077 92.4922h165.0781M23.80077 55.80862h165.0781m-165.0781-36.6836h165.0781M23.80077 165.85938V.78128m36.68359 165.0781V.78127m36.68358 165.0781V.78127m36.6875 165.0781V.78127m36.68358 165.0781V.78127"/></g><use xlink:href="#b" x="7.75173" y="182.74863" fill="#7f7f7f"/><path fill="none" stroke="#7f7f7f" stroke-miterlimit="10" stroke-width=".39669" d="M60.48437 156.6914v18.33985"/><use xlink:href="#c" x="57.59597" y="187.00129" fill="#7f7f7f"/><path fill="none" stroke="#7f7f7f" stroke-miterlimit="10" stroke-width=".39669" d="M97.16795 156.6914v18.33985"/><use xlink:href="#d" x="94.27909" y="187.00129" fill="#7f7f7f"/><path fill="none" stroke="#7f7f7f" stroke-miterlimit="10" stroke-width=".39669" d="M133.85545 156.6914v18.33985"/><use xlink:href="#e" x="130.9632" y="187.00129" fill="#7f7f7f"/><path fill="none" stroke="#7f7f7f" stroke-miterlimit="10" stroke-width=".39669" d="M170.53903 156.6914v18.33985"/><use xlink:href="#f" x="167.64631" y="186.87387" fill="#7f7f7f"/><path fill="none" stroke="#000" stroke-miterlimit="10" stroke-width=".7934" d="M5.46094 165.85937h177.2695"/><path d="M186.875 165.85938c-.50781-.10547-2.7461-.70313-4.14453-1.35547v2.71484c1.39844-.65234 3.63672-1.2539 4.14453-1.35937m0 0"/><g clip-path="url(#g)"><path fill="none" stroke="#000" stroke-miterlimit="10" stroke-width=".7934" d="M186.875 165.85937c-.50781-.10546-2.7461-.70312-4.14453-1.35546v2.71484c1.39844-.65234 3.63672-1.2539 4.14453-1.35938Zm0 0"/></g><path fill="none" stroke="#7f7f7f" stroke-miterlimit="10" stroke-width=".39669" d="M32.97265 129.17579H14.62891"/><use xlink:href="#c" x="4.29745" y="132.88449" fill="#7f7f7f"/><path fill="none" stroke="#7f7f7f" stroke-miterlimit="10" stroke-width=".39669" d="M32.97265 92.4922H14.62891"/><use xlink:href="#d" x="4.29745" y="96.20137" fill="#7f7f7f"/><path fill="none" stroke="#7f7f7f" stroke-miterlimit="10" stroke-width=".39669" d="M32.97265 55.80862H14.62891"/><use xlink:href="#e" x="4.29745" y="59.45355" fill="#7f7f7f"/><path fill="none" stroke="#7f7f7f" stroke-miterlimit="10" stroke-width=".39669" d="M32.97265 19.12503H14.62891"/><use xlink:href="#f" x="4.29745" y="22.77044" fill="#7f7f7f"/><path fill="none" stroke="#000" stroke-miterlimit="10" stroke-width=".7934" d="M23.80078 184.20312V6.92972"/><path d="M23.80078 2.78516c-.10547.5078-.70312 2.74609-1.35547 4.14453h2.71485c-.65235-1.39844-1.25391-3.63672-1.35938-4.14453m0 0"/><g clip-path="url(#h)"><path fill="none" stroke="#000" stroke-miterlimit="10" stroke-width=".7934" d="M23.80078 2.78516c-.10547.50781-.70312 2.74609-1.35547 4.14453h2.71485c-.65235-1.39844-1.25391-3.63672-1.35938-4.14453Zm0 0"/></g><g clip-path="url(#i)"><path fill="none" stroke="#007f7f" stroke-miterlimit="10" stroke-width=".7934" d="M5.46094 147.51953s5.51953-5.52343 7.64062-7.64453 5.52344-5.51952 7.64453-7.64062c2.1172-2.1211 5.51953-5.52344 7.64063-7.64453 2.1211-2.11719 5.52343-5.51953 7.64062-7.64062 2.1211-2.1211 5.52344-5.52344 7.64453-7.64063 2.1211-2.12109 5.51953-5.52343 7.64062-7.64452 2.1211-2.1211 5.52344-5.51954 7.64453-7.64063 2.1211-2.1211 5.51953-5.52343 7.64063-7.64453 2.12109-2.1211 5.52343-5.51953 7.64453-7.64062 2.11718-2.1211 5.51953-5.52344 7.64062-7.64453 2.1211-2.1211 5.52344-5.51953 7.64062-7.64062 2.1211-2.1211 5.52344-5.52344 7.64453-7.64063 2.1211-2.1211 5.51953-5.52343 7.64063-7.64453 2.12109-2.1211 5.52343-5.51953 7.64453-7.64062s5.51953-5.52344 7.64062-7.64453c2.1211-2.1211 5.52344-5.51953 7.64453-7.64062 2.1211-2.1211 5.51953-5.52344 7.64062-7.64453 2.1211-2.1211 5.52344-5.51953 7.64453-7.64063 2.11719-2.12109 5.51953-5.52343 7.64063-7.64453 2.12109-2.11718 5.51953-5.51953 7.64062-7.64062s5.52344-5.52344 7.64453-7.64062c2.1211-2.1211 5.51953-5.52344 7.64062-7.64453 2.1211-2.1211 5.52344-5.51953 7.64453-7.64063 2.1211-2.12109 7.64063-7.64453 7.64063-7.64453"/></g><g fill="#007f7f"><use xlink:href="#j" x="156.74988" y="14.59662"/><use xlink:href="#k" x="161.70071" y="14.59662"/></g><use xlink:href="#l" x="168.53407" y="17.43203" fill="#007f7f"/><use xlink:href="#m" x="173.88264" y="14.59662" fill="#007f7f"/><g clip-path="url(#n)"><path fill="none" stroke="#ff7f00" stroke-miterlimit="10" stroke-width=".7934" d="m5.46094 74.14846 7.64062-7.64063c2.1211-2.1211 5.52344-5.51953 7.64453-7.64062 2.1172-2.1211 5.51953-5.52344 7.64063-7.64453 2.1211-2.1211 5.52343-5.51953 7.64062-7.64062l7.64453-7.64453 7.64062-7.64063 7.64453-7.64453c2.1211-2.11718 5.51953-5.51953 7.64063-7.64062 2.12109-2.1211 5.52343-5.52344 7.64453-7.64062 2.11718-2.1211 5.51953-5.52344 7.64062-7.64453 2.1211-2.1211 5.52344-5.51953 7.64062-7.64063l7.64453-7.64453 7.64063-7.64062 7.64453-7.64453c2.12109-2.11719 5.51953-5.51953 7.64062-7.64062s5.52344-5.52344 7.64453-7.64063c2.1211-2.12109 5.51953-5.52343 7.64062-7.64453s5.52344-5.51953 7.64453-7.64062c2.11719-2.1211 5.51953-5.52344 7.64063-7.64453l7.64062-7.64062 7.64453-7.64453 7.64062-7.64063 7.64453-7.64452c2.1211-2.1172 7.64063-7.64063 7.64063-7.64063"/></g><g fill="#ff7f00"><use xlink:href="#j" x="33.84702" y="22.33641"/><use xlink:href="#k" x="38.79784" y="22.33641"/></g><use xlink:href="#o" x="45.62991" y="25.17311" fill="#ff7f00"/><use xlink:href="#m" x="50.97977" y="22.33641" fill="#ff7f00"/><g clip-path="url(#p)"><path fill="none" stroke="#ec008c" stroke-miterlimit="10" stroke-width=".7934" d="M5.46094 294.25388s5.51953-16.5625 7.64062-22.92578 5.52344-16.5664 7.64453-22.92577c2.1172-6.36328 5.51953-16.5664 7.64063-22.92969 2.1211-6.35937 5.52343-16.5625 7.64062-22.92577 2.1211-6.36328 5.52344-16.5664 7.64453-22.92578 2.1211-6.36328 5.51953-16.5664 7.64062-22.92968 2.1211-6.35938 5.52344-16.5625 7.64453-22.92578 2.1211-6.36328 5.51953-16.5664 7.64063-22.92577 2.12109-6.36329 5.52343-16.5664 7.64453-22.92969 2.11718-6.35937 5.51953-16.5625 7.64062-22.92577s5.52344-16.5625 7.64062-22.92578c2.1211-6.36328 5.52344-16.5664 7.64453-22.92578 2.1211-6.36328 5.51953-16.5664 7.64063-22.92968 2.12109-6.35937 5.52343-16.5625 7.64453-22.92578s5.51953-16.5664 7.64062-22.92577c2.1211-6.36328 5.52344-16.5664 7.64453-22.92969 2.1211-6.35937 5.51953-16.5625 7.64062-22.92577s5.52344-16.5664 7.64453-22.92578c2.11719-6.36328 5.51953-16.5664 7.64063-22.92968 2.12109-6.35938 5.51953-16.5625 7.64062-22.92578s5.52344-16.5625 7.64453-22.92578c2.1211-6.36328 5.51953-16.5664 7.64062-22.92968 2.1211-6.35937 5.52344-16.5625 7.64453-22.92577 2.1211-6.36328 7.64063-22.92578 7.64063-22.92578"/></g><g fill="#ec008c"><use xlink:href="#j" x="65.0411" y="142.98752"/><use xlink:href="#k" x="69.99193" y="142.98752"/></g><use xlink:href="#q" x="76.824" y="145.82422" fill="#ec008c"/><use xlink:href="#m" x="82.17386" y="142.98752" fill="#ec008c"/></svg>