<svg xmlns="http://www.w3.org/2000/svg" xmlns:xlink="http://www.w3.org/1999/xlink" width="177.962pt" height="179.679pt" viewBox="0 0 177.962 179.679"><defs><path id="b" d="M.4375-3.51562C.4375-1.40625 1.04688.125 2.78125.125c1.73438 0 2.35938-1.53125 2.35938-3.64062 0-2.09375-.625-3.64063-2.35938-3.64063S.4375-5.60937.4375-3.51562m1.0625 0c0-1.70313.29688-3.26563 1.28125-3.26563 1 0 1.29688 1.5625 1.29688 3.26563C4.07813-1.79687 3.78125-.25 2.78125-.25 1.79688-.25 1.5-1.79687 1.5-3.51562m0 0"/><path id="c" d="M.89063-2.65625h5.78125v-.625H.89063Zm0 0"/><path id="d" d="M.28125-1.07812C.28125-.625 1 .125 2.5.125c1.51563 0 2.48438-.78125 2.48438-2.10937 0-1.42188-1.21875-1.82813-1.79688-1.89063v-.04687C3.76563-4 4.67188-4.4375 4.67188-5.46875c0-1.17187-.90625-1.6875-2.04688-1.6875-1.39062 0-2.0625.8125-2.0625 1.26563 0 .3125.35938.5.51563.5.125 0 .20312-.07813.25-.21875.23437-.71875.625-1.17188 1.21875-1.17188.82812 0 1.04687.73438 1.04687 1.32813 0 .625-.21875 1.42187-1.125 1.42187-.5 0-.79687-.10937-.90625-.10937-.14062 0-.20312.10937-.20312.29687 0 .17188.0625.28125.20312.28125.10938 0 .40625-.09375.90625-.09375.90625 0 1.40625.79688 1.40625 1.71875C3.875-.6875 3.25-.25 2.5-.25c-.6875 0-1.14062-.51562-1.34375-1.10937-.07812-.20313-.17187-.29688-.3125-.29688-.1875 0-.5625.20313-.5625.57813m0 0"/><path id="e" d="M.28125-.09375.39063 0H4.75l.34375-1.39062-.28125-.04688c-.21875.5625-.4375.64063-.85937.64063h-2.6875c.17187-.54688.79687-1.29688 1.76562-2 1-.73438 1.79688-1.20313 1.79688-2.39063 0-1.45312-.98438-1.96875-2.09375-1.96875-1.4375 0-2.17188.875-2.17188 1.42188 0 .35937.40625.53125.57813.53125.1875 0 .26562-.10938.29687-.29688.17188-.70312.59375-1.28125 1.23438-1.28125.8125 0 1.04687.67188 1.04687 1.4375 0 1.14063-.57812 1.78125-1.5 2.57813C.92188-1.64062.48438-.92187.28125-.09375m0 0"/><path id="f" d="M1.14063 0h3.45312v-.29687l-.875-.07813C3.48438-.40625 3.375-.48437 3.375-.89062v-6.20313l-.0625-.0625-2.17187.375v.26563l.98437.10937c.17188.03125.25.10938.25.40625v5.10938c0 .40625-.10937.48437-.34375.51562l-.89062.07813Zm0 0"/><path id="k" d="M1-3.29687c0 2.64062.60938 5.53125 3.07813 5.64062v-.35937C3.25 1.82812 1.9375.79688 1.9375-3.29687c0-4.0625 1.25-5.09375 2.14063-5.28125v-.35938C1.60938-8.82812 1-5.9375 1-3.29687m0 0"/><path id="l" d="M.875-1.40625c0 .76563.21875 1.54688 1.17188 1.54688 1.34375 0 2.375-1.4375 3.0625-2.6875h.03125L4.75-1.15625c-.0625.23438-.09375.45313-.09375.625 0 .4375.1875.67188.60938.67188.92187 0 1.53125-.79688 1.92187-1.6875l-.26562-.15626c-.21875.40626-.73438 1.23438-1.0625 1.23438-.14063 0-.1875-.09375-.1875-.23437 0-.10938.03125-.23438.07812-.40625L7.59375-8.625l-.0625-.04687-2.07812.28125-.0625.26562.6875.0625c.1875.01563.26562.0625.26562.20313q0 .09375-.04687.28125l-.45313 1.875-.01562.03125c-.23438-.10938-.59375-.20313-.98438-.20313C2.10938-5.875.875-2.82812.875-1.40625m1.15625.09375c0-1.26562 1.01563-4.14062 2.875-4.14062.375 0 .67188.10937.8125.23437-.17187.89063-.5625 2-1.15625 2.96875C4-1.34375 3.23438-.46875 2.60938-.46875c-.375 0-.57813-.3125-.57813-.84375m0 0"/><path id="m" d="M.70313 1.98438v.35937c2.46875-.10937 3.0625-3 3.0625-5.64062S3.17188-8.82812.70313-8.9375v.35938c.89062.1875 2.125 1.21875 2.125 5.28125 0 4.09375-1.29688 5.125-2.125 5.28125m0 0"/><clipPath id="a"><path d="M.14063 1h177.64453v178.35938H.14063Zm0 0"/></clipPath><clipPath id="g"><path d="M.14063 54H172v2H.14063Zm0 0"/></clipPath><clipPath id="h"><path d="M159 42h18.78516v26H159Zm0 0"/></clipPath><clipPath id="i"><path d="M123 7h2v172.35938h-2Zm0 0"/></clipPath><clipPath id="j"><path d="M.53516 2.10938h176.85156v176.85156H.53516Zm0 0"/></clipPath></defs><g clip-path="url(#a)"><path fill="none" stroke="#000" stroke-miterlimit="10" stroke-opacity=".5" stroke-width=".39779" d="M.53511 161.27738h176.85163M.5351 125.90628h176.85163M.5351 90.53516h176.85163M.5351 55.16797h176.85163M.5351 19.79687h176.85163M18.22262 178.96096V2.10937m35.3672 176.85162V2.10936m35.3711 176.85162V2.10936m35.37111 176.85162V2.10936m35.3711 176.85162V2.10936"/></g><path fill="none" stroke="#000" stroke-miterlimit="10" stroke-opacity=".5" stroke-width=".39779" d="M124.33203 46.32422v17.6836"/><use xlink:href="#b" x="109.16694" y="71.05905" fill-opacity=".5"/><path fill="none" stroke="#000" stroke-miterlimit="10" stroke-opacity=".5" stroke-width=".39779" d="M18.22262 46.32422v17.6836"/><g fill-opacity=".5"><use xlink:href="#c" x="11.65514" y="67.52137"/><use xlink:href="#d" x="19.21822" y="67.52137"/></g><path fill="none" stroke="#000" stroke-miterlimit="10" stroke-opacity=".5" stroke-width=".39779" d="M53.58982 46.32422v17.6836"/><g fill-opacity=".5"><use xlink:href="#c" x="47.02495" y="67.58326"/><use xlink:href="#e" x="54.58803" y="67.58326"/></g><path fill="none" stroke="#000" stroke-miterlimit="10" stroke-opacity=".5" stroke-width=".39779" d="M88.96093 46.32422v17.6836"/><g fill-opacity=".5"><use xlink:href="#c" x="82.39477" y="67.58326"/><use xlink:href="#f" x="89.95785" y="67.58326"/></g><path fill="none" stroke="#000" stroke-miterlimit="10" stroke-opacity=".5" stroke-width=".39779" d="M159.70314 46.32422v17.6836"/><use xlink:href="#f" x="156.91563" y="67.58326" fill-opacity=".5"/><g clip-path="url(#g)"><path fill="none" stroke="#000" stroke-miterlimit="10" stroke-width=".79559" d="M.53511 55.16797h170.68756"/></g><path d="M175.3789 55.16797c-.51171-.10938-2.7539-.70703-4.15624-1.36328v2.72265c1.40234-.65234 3.64453-1.2539 4.15625-1.35937m0 0"/><g clip-path="url(#h)"><path fill="none" stroke="#000" stroke-miterlimit="10" stroke-width=".79559" d="M175.3789 55.16797c-.51171-.10938-2.7539-.70703-4.15624-1.36328v2.72265c1.40234-.65234 3.64453-1.2539 4.15625-1.35937Zm0 0"/></g><path fill="none" stroke="#000" stroke-miterlimit="10" stroke-opacity=".5" stroke-width=".39779" d="M133.17578 161.27738h-17.6875"/><g fill-opacity=".5"><use xlink:href="#c" x="105.38469" y="164.7886"/><use xlink:href="#d" x="112.94777" y="164.7886"/></g><path fill="none" stroke="#000" stroke-miterlimit="10" stroke-opacity=".5" stroke-width=".39779" d="M133.17578 125.90627h-17.6875"/><g fill-opacity=".5"><use xlink:href="#c" x="105.38469" y="129.48068"/><use xlink:href="#e" x="112.94777" y="129.48068"/></g><path fill="none" stroke="#000" stroke-miterlimit="10" stroke-opacity=".5" stroke-width=".39779" d="M133.17578 90.53517h-17.6875"/><g fill-opacity=".5"><use xlink:href="#c" x="105.38469" y="94.11087"/><use xlink:href="#f" x="112.94777" y="94.11087"/></g><path fill="none" stroke="#000" stroke-miterlimit="10" stroke-opacity=".5" stroke-width=".39779" d="M133.17578 19.79686h-17.6875"/><use xlink:href="#f" x="109.16694" y="23.37125" fill-opacity=".5"/><g clip-path="url(#i)"><path fill="none" stroke="#000" stroke-miterlimit="10" stroke-width=".79559" d="M124.33203 178.96098V8.27733"/></g><path stroke="#000" stroke-miterlimit="10" stroke-width=".79559" d="M124.33203 4.1211c-.10547.5078-.70703 2.7539-1.36328 4.15624h2.72656c-.65625-1.40234-1.25781-3.64844-1.36328-4.15625Zm0 0"/><g clip-path="url(#j)"><path fill="none" stroke="#007F7F" stroke-miterlimit="10" stroke-width=".79559" d="m.53511 2.10936 7.3711 7.3711c2.04297 2.04296 5.32032 5.32421 7.3672 7.36718 2.04296 2.04688 5.32421 5.32422 7.36718 7.3711 2.04688 2.04297 5.32422 5.32031 7.3711 7.36719l7.36719 7.36719c2.04297 2.04687 5.32422 5.32422 7.36719 7.3711 2.04687 2.04296 5.32422 5.32422 7.3711 7.36719l7.36718 7.36719c2.04688 2.04687 5.32422 5.32422 7.3672 7.3711 2.04687 2.04296 5.32421 5.32421 7.37109 7.36718 2.04297 2.04688 5.32422 5.32422 7.36719 7.3672l14.73829 14.73828c2.04296 2.04687 5.32422 5.32422 7.36719 7.3711 2.04687 2.04296 5.32422 5.32421 7.3711 7.36718l7.36718 7.3672c2.04688 2.04687 5.32422 5.32421 7.3672 7.37109 2.04687 2.04297 5.32421 5.32422 7.37109 7.36719 2.04297 2.04688 5.32422 5.32422 7.36719 7.36719l7.3711 7.3711c2.04296 2.04297 5.3203 5.32422 7.36718 7.36719 2.04297 2.04687 5.32422 5.32422 7.3672 7.3711 2.04687 2.04296 5.32421 5.3203 7.37109 7.36718l7.36719 7.3672"/></g><g fill="#007F7F"><use xlink:href="#k" x="22.61556" y="13.06865"/><use xlink:href="#l" x="27.3891" y="13.06865"/></g><use xlink:href="#m" x="35.09638" y="13.06865" fill="#007F7F"/></svg>