<svg xmlns="http://www.w3.org/2000/svg" xmlns:xlink="http://www.w3.org/1999/xlink" width="127.956pt" height="96.066pt" viewBox="0 0 127.956 96.066"><defs><path id="c" d="M0 0h3.51563C6.3125 0 6.875-1.4375 6.875-2.40625c0-1.21875-.89062-1.75-1.75-1.90625l.01563-.03125c1.54687-.1875 2.1875-1.0625 2.1875-1.9375 0-.9375-.54688-1.73437-2.6875-1.73437H1.71875l-.07812.32812.6875.0625c.20312.01563.28125.10938.28125.29688 0 .0625-.01563.17187-.04688.28125L1.20313-.96875C1.10937-.57812 1-.4375.71875-.40625L.0625-.32812Zm2.3125-.89062c0-.07813.01563-.17188.04688-.25L3.01563-4.125h.45312c1.15625 0 2.17188.34375 2.17188 1.65625 0 1.03125-.64063 2.0625-2.1875 2.0625-.90625 0-1.14063-.1875-1.14063-.48437m.79688-3.64063.59375-2.6875c.09375-.34375.15625-.40625.9375-.40625.96875 0 1.51562.5 1.51562 1.3125 0 1.20313-1.01562 1.78125-2.29687 1.78125Zm0 0"/><path id="d" d="M-.21875 0h2.60938l.07812-.32812-.64062-.0625c-.15626-.01563-.21876-.09375-.21876-.20313 0-.0625.03126-.14062.0625-.23437.39063-.73438.75-1.48438 1.1875-2.26563h2.60938L5.75-.70312s-.0625.28124-.3125.3125l-.625.0625L4.76563 0h2.84375l.07812-.32812L7.23438-.375c-.35938-.03125-.40625-.1875-.46875-.67187l-.84375-6.96875h-.82813L3.14063-4.59375c-.59375 1.03125-1.54688 2.75-1.98438 3.45313-.375.59375-.5625.71875-.92187.76562l-.375.04688Zm3.3125-3.53125L4.98438-6.9375l.42187 3.40625Zm0 0"/><path id="e" d="M.125 0h6.04688L6.75-2.03125h-.34375C5.8125-.60937 5.29688-.40625 3.875-.40625c-1.375 0-1.45312-.17187-1.45312-.48437 0-.125.04687-.29688.09375-.53125l.59375-2.53125H4.625c.85938 0 1.01563.17187 1.01563.67187v.32813h.34375L6.51563-5.375h-.34375c-.29688.79688-.42188.98438-1.45313.98438H3.20313l.65625-2.89063C3.92188-7.5625 4-7.625 4.1875-7.625h1.39063c1.14062 0 1.375.29688 1.375.9375 0 .28125-.03125.59375-.03125.59375h.34375l.42187-1.92187H1.84375L1.75-7.6875l.70313.0625c.20312 0 .28125.09375.28125.28125 0 .0625-.01563.15625-.03125.26563L1.3125-.96875c-.09375.40625-.1875.53125-.46875.5625L.1875-.32812Zm0 0"/><clipPath id="a"><path d="M.59375 0h126.72266v95H.59375Zm0 0"/></clipPath><clipPath id="b"><path d="M.59375 0h126.72266v95.14063H.59375Zm0 0"/></clipPath></defs><g clip-path="url(#a)"><path fill="#CCE5E5" d="M127.1211 47.57031c0-26.16406-28.27735-47.375-63.16407-47.375S.78906 21.40625.78906 47.57031s28.28125 47.375 63.16797 47.375 63.16406-21.21094 63.16406-47.375m0 0"/></g><g clip-path="url(#b)"><path fill="none" stroke="#000" stroke-miterlimit="10" stroke-width=".39466" d="M127.12108 47.57031c0-26.16406-28.27733-47.375-63.16405-47.375-34.88671 0-63.16796 21.21094-63.16796 47.375s28.28125 47.375 63.16796 47.375 63.16405-21.21094 63.16405-47.375Zm0 0"/></g><path fill="#9CC" stroke="#000" stroke-miterlimit="10" stroke-width=".39466" d="M105.01171 47.57031c0-17.0078-18.3789-30.79296-41.05468-30.79296S22.89844 30.5625 22.89844 47.5703s18.38281 30.79297 41.0586 30.79297c22.67577 0 41.05467-13.78516 41.05467-30.79297Zm0 0"/><path fill="#66B2B2" stroke="#000" stroke-miterlimit="10" stroke-width=".39466" d="M86.0625 47.57031c0-9.15625-9.89844-16.58203-22.10547-16.58203-12.21093 0-22.10937 7.42578-22.10937 16.58203s9.89844 16.58203 22.10937 16.58203c12.20703 0 22.10547-7.42578 22.10547-16.58203Zm0 0"/><use xlink:href="#c" x="69.06653" y="54.81902"/><use xlink:href="#d" x="38.20458" y="33.30816"/><use xlink:href="#e" x="101.07334" y="27.89182"/></svg>