<svg xmlns="http://www.w3.org/2000/svg" xmlns:xlink="http://www.w3.org/1999/xlink" width="204.491pt" height="153.468pt" viewBox="0 0 204.491 153.468"><defs><path id="b" d="M0 0h5.65625c4.51563 0 5.42188-2.32812 5.42188-3.875 0-1.96875-1.45313-2.8125-2.8125-3.07812l.01562-.03125c2.48438-.29688 3.53125-1.71875 3.53125-3.125 0-1.51563-.89062-2.79688-4.32812-2.79688H2.76563l-.125.53125 1.10937.10938c.32813.01562.45313.15625.45313.45312 0 .10938-.03125.28125-.07813.45313l-2.20312 9.8125c-.14063.60937-.3125.82812-.76563.89062l-1.0625.125Zm3.73438-1.4375c0-.125.01562-.26562.0625-.40625l1.0625-4.79687h.73437c1.85938 0 3.48438.54687 3.48438 2.67187 0 1.67188-1.01563 3.3125-3.51563 3.3125-1.46875 0-1.82812-.29687-1.82812-.78125M5-7.28125l.98438-4.34375c.125-.54687.23437-.64062 1.48437-.64062 1.5625 0 2.4375.78125 2.4375 2.09375 0 1.95312-1.625 2.89062-3.6875 2.89062Zm0 0"/><path id="c" d="M-.35937 0h4.21875l.10937-.53125L2.9375-.64062c-.23437-.01563-.32812-.14063-.32812-.3125 0-.09376.03125-.23438.09375-.375.60937-1.1875 1.20312-2.40625 1.90625-3.65625h4.1875L9.25-1.125s-.09375.45313-.48437.48438l-1 .10937L7.67188 0H12.25l.125-.53125-.71875-.0625c-.57812-.0625-.65625-.3125-.75-1.09375l-1.375-11.21875H8.20313l-3.14063 5.5c-.95312 1.67188-2.5 4.45313-3.20312 5.5625C1.26563-.875.95313-.67187.375-.60937l-.60937.07812Zm5.34375-5.70312 3.03125-5.48438.6875 5.48438Zm0 0"/><path id="d" d="M.20313 0h9.71875l.96875-3.28125h-.5625c-.95313 2.3125-1.78125 2.625-4.09375 2.625-2.20313 0-2.32813-.28125-2.32813-.78125 0-.1875.0625-.46875.14063-.84375L5-6.375h2.45313c1.39062 0 1.64062.28125 1.64062 1.09375 0 .15625 0 .3125-.01562.51563H9.625l.875-3.89063h-.57812C9.45313-7.375 9.25-7.0625 7.60938-7.0625H5.15625l1.0625-4.65625c.09375-.45312.21875-.54687.53125-.54687H9c1.82813 0 2.20313.46875 2.20313 1.48437 0 .45313-.0625.96875-.0625.96875h.5625l.6875-3.09375h-9.4375l-.14063.53125 1.14063.07813c.3125.03125.45312.15625.45312.45312 0 .125-.01562.26563-.0625.4375L2.125-1.54687c-.15625.64062-.3125.85937-.78125.89062l-1.04687.125Zm0 0"/><clipPath id="a"><path d="M.09766 0H203.8828v152.9375H.09766Zm0 0"/></clipPath></defs><g clip-path="url(#a)"><path fill="#CCE5E5" stroke="#000" stroke-miterlimit="10" stroke-width=".39713" d="M203.68745 76.46875c0-42.12498-45.53123-76.2695-101.69526-76.2695S.29692 34.34377.29692 76.46875s45.53123 76.2734 101.69527 76.2734 101.69526-34.14842 101.69526-76.2734Zm0 0"/></g><path fill="#9CC" stroke="#000" stroke-miterlimit="10" stroke-width=".39713" d="M168.09372 76.46875c0-27.3789-29.59374-49.5742-66.10153-49.5742-36.5078 0-66.10154 22.1953-66.10154 49.5742s29.59374 49.5742 66.10154 49.5742 66.10153-22.1953 66.10153-49.5742Zm0 0"/><path fill="#66B2B2" stroke="#000" stroke-miterlimit="10" stroke-width=".39713" d="M137.58592 76.46875c0-14.74218-15.93359-26.6953-35.59373-26.6953-19.65624 0-35.59374 11.95312-35.59374 26.6953s15.9375 26.6953 35.59374 26.6953c19.66014 0 35.59373-11.95312 35.59373-26.6953Zm0 0"/><use xlink:href="#b" x="110.21986" y="88.13946"/><use xlink:href="#c" x="60.5331" y="53.50652"/><use xlink:href="#d" x="161.75023" y="44.78675"/></svg>