<svg xmlns="http://www.w3.org/2000/svg" xmlns:xlink="http://www.w3.org/1999/xlink" width="339.08pt" height="130.997pt" viewBox="0 0 339.08 130.997"><defs><path id="a" d="m1.39063-12.375.75.07813c.4375.04687.60937.21875.70312.89062.21875 1.70313.4375 3.5625.67188 5.42188L4.3125 0h1.29688L9.375-6.4375c1.21875-2.0625 2.375-3.98437 3.125-5.125.42188-.64062.70313-.73437 1.6875-.8125l.10938-.54687h-4.125l-.09375.54687 1.03125.07813c.21875.01562.3125.09375.3125.25 0 .32812-1.39063 2.8125-2.95313 5.53125L5.78125-1.875l-.67187-4.96875c-.21875-1.64062-.57813-4.65625-.57813-5.04687 0-.21875.07813-.35938.34375-.39063l1.1875-.09375.09375-.54687H1.48438Zm0 0"/><path id="d" d="m2.70313-2.03125.78125.78125 3.23437-3.26562L9.98438-1.25l.75-.78125L7.5-5.26562l3.23438-3.26563-.75-.75-3.26563 3.23438-3.23437-3.23438-.78125.75 3.26562 3.26563Zm0 0"/><path id="b" d="M.53125-4.35937c0 2.54687.78125 4.51562 3 4.51562s3-1.96875 3-4.51562c0-2.5625-.78125-4.53125-3-4.53125s-3 1.96875-3 4.53125m1.5 0c0-1.98438.3125-4.04688 1.5-4.04688 1.20313 0 1.5 2.0625 1.5 4.04688 0 1.96875-.29687 4.03125-1.5 4.03125-1.1875 0-1.5-2.0625-1.5-4.03125m0 0"/><path id="c" d="M1.42188 0h4.375v-.40625L4.75-.5c-.28125-.03125-.42187-.125-.42187-.60937V-8.8125l-.09375-.07812-2.79688.48437v.34375l1.125.15625c.25.03125.32813.125.32813.53125v6.26563c0 .48437-.125.57812-.42188.60937l-1.04687.09375Zm0 0"/><path id="e" d="M.92188-4.48437C.92188-1.375 2.4375.21875 5.25.21875c1.3125 0 3.07813-.67187 3.59375-2.6875l-.5625-.25C7.71875-1.40625 6.96875-.75 5.60938-.75c-2.23438 0-2.75-2.32812-2.75-4.07812 0-2.78125 1.09375-3.89063 2.39062-3.89063.85938 0 1.39063.60938 1.76563 1.625.125.29688.23437.46875.59375.46875.375 0 1.09375-.23437 1.09375-.95312 0-.84375-1.23438-1.79688-3.25-1.79688-3.40625 0-4.53125 2.40625-4.53125 4.89063m0 0"/><path id="f" d="M.92188-4.57812c0 3.03125 1.48437 4.79687 4.48437 4.79687S9.875-1.54687 9.875-4.57812c0-3.01563-1.46875-4.79688-4.46875-4.79688S.92188-7.59375.92188-4.57812m1.9375 0c0-2.57813.84375-4.14063 2.54687-4.14063s2.54688 1.5625 2.54688 4.14063c0 2.59375-.84375 4.14062-2.54688 4.14062S2.85938-1.98437 2.85938-4.57812m0 0"/><path id="g" d="M.92188-4.51562c0 2.96875 1.26562 4.73437 4.3125 4.73437 2.0625 0 3.14062-1.15625 3.625-2.625l-.54688-.29687C7.79688-1.60937 7.07813-.73437 5.60938-.73437c-2.32813 0-2.78125-2.23438-2.75-4.17188H8.25c.39063 0 .73438-.10937.73438-.71875 0-1.09375-.35938-3.75-3.78125-3.75-2.92188 0-4.28125 2.0625-4.28125 4.85938M2.875-5.625c0-.78125.28125-3.09375 2.23438-3.09375 1.73437 0 1.92187 1.76563 1.92187 2.5 0 .35938-.10937.59375-.625.59375Zm0 0"/><path id="h" d="M3.75-9.15625v-.92187c0-2.10938 1.09375-2.82813 1.95313-2.82813.95312 0 1.35937.34375 2.04687 1.23438.125.17187.21875.29687.5.29687h.01563c-.20313.5625-.3125 1.17188-.3125 1.875v.34375Zm5.21875-3.42187c-.5-.51563-1.875-1-3.03125-1-1.01562 0-2.40625.45312-2.875 1.17187C2.625-11.75 2-10.89062 2-9.65625v.5H.5625v.75H2V-1.625C2-.67187 1.95313-.64062.59375-.53125V0h4.75v-.53125C3.82813-.60937 3.75-.65625 3.75-1.60937v-6.79688h4.20313V-1.625c0 .95313-.04688.98438-1.39063 1.09375V0h4.75v-.53125c-1.51562-.07812-1.59375-.125-1.59375-1.07812v-6.79688h3.59375c.48438 0 .59375.20313.59375.85938V-1.625c0 .95313-.03125.98438-1.39062 1.09375V0h4.5625v-.53125C15.73437-.64062 15.6875-.67187 15.6875-1.625v-7.75c-.625.04688-1.75.21875-3.25.21875H9.71875v-.85937c0-2.75 1.23438-3.20313 2.26563-3.20313.92187 0 1.59375.57813 1.95312 1.59375.07813.17188.21875.34375.53125.34375.42188 0 1.01563-.26562 1.01563-.85937 0-.8125-1.15625-1.71875-3.28125-1.71875-1.4375 0-2.53125.46875-3.23438 1.28125m0 0"/><path id="i" d="M1.70313-12.21875c0 .67188.48437 1.14063 1.15625 1.14063.67187 0 1.14062-.46875 1.14062-1.14063 0-.6875-.46875-1.14062-1.14062-1.14062-.67188 0-1.15625.45312-1.15625 1.14062M.59375 0h4.54688v-.53125C3.8125-.64062 3.75-.67187 3.75-1.625v-7.64062L3.625-9.375l-2.92187.46875v.45313l.6875.10937C1.875-8.26562 2-8.1875 2-7.51562V-1.625C2-.67187 1.95313-.64062.59375-.53125Zm0 0"/><path id="j" d="M.59375 0h4.54688v-.53125C3.8125-.64062 3.75-.67187 3.75-1.625V-6c0-.48437.03125-.71875.1875-1.01562C4.32813-7.75 5.17188-8.375 6.15625-8.375c1.28125 0 1.96875.70313 1.96875 2.32813V-1.625c0 .95313-.0625.98438-1.40625 1.09375V0h4.5625v-.53125C9.95313-.64062 9.875-.67187 9.875-1.625v-4.78125c0-1.875-1.03125-2.96875-2.73437-2.96875-1.39063 0-2.25.67188-3.40625 1.42188l-.25-1.42188-2.78125.46875v.45313l.6875.10937C1.875-8.26562 2-8.1875 2-7.51562V-1.625C2-.67187 1.95313-.64062.59375-.53125Zm0 0"/><path id="k" d="M.57813-8.40625h1.34375v6.5C1.92188 0 3.34375.21875 4 .21875c.95313 0 1.84375-.48437 2.375-.8125L6.23438-1c-.45313.1875-.84375.25-1.32813.25-.64062 0-1.23437-.46875-1.23437-1.875v-5.78125h2.40625v-.75H3.67188V-11.5h-.53125L2-9.15625H.57813Zm0 0"/><path id="l" d="M.59375 0h4.54688v-.53125C3.8125-.64062 3.75-.67187 3.75-1.625V-6c0-.48437 0-.73437.14063-1C4.25-7.75 5.0625-8.375 6.10938-8.375c1.60937 0 1.79687 1.1875 1.79687 2.32813V-1.625c0 .95313-.0625.98438-1.40625 1.09375V0h4.54688v-.53125C9.71875-.64062 9.65625-.67187 9.65625-1.625V-6c0-.48437.01563-.71875.14063-1.01562.28125-.75 1.07812-1.35938 2.125-1.35938 1.17187 0 1.89062.65625 1.89062 2.32813V-1.625c0 .95313-.0625.98438-1.40625 1.09375V0h4.5625v-.53125C15.64063-.64062 15.5625-.67187 15.5625-1.625v-4.78125c0-1.875-1.01562-2.96875-2.78125-2.96875-1.53125 0-2.625 1-3.28125 1.42188-.45312-.875-1.17187-1.42188-2.48437-1.42188-1.4375 0-2.60938.95313-3.26563 1.42188L3.57813-9.375l-2.875.46875v.45313l.6875.10937C1.875-8.26562 2-8.1875 2-7.51562V-1.625C2-.67187 1.95313-.64062.59375-.53125Zm0 0"/><path id="m" d="m.48438-8.45312.70312.10937c.48438.07813.59375.15625.59375.82813v4.9375C1.78125-.4375 3.0625.21875 4.45313.21875c1.59375 0 2.875-1.07812 3.42187-1.32812L8.04688 0h3v-.53125C9.76563-.64062 9.64063-.67187 9.64063-1.625v-7.64062L9.5-9.375l-2.92187.46875v.45313l.71875.10937c.46875.07813.59375.15625.59375.82813v4.21875c0 .51562-.0625.9375-.15625 1.10937-.4375.85938-1.3125 1.40625-2.28125 1.40625-1.09375 0-1.89063-.6875-1.89063-2.14062v-6.34375L3.42188-9.375l-2.9375.46875Zm0 0"/><path id="n" d="M.375 0h4.54688v-.53125C3.59375-.64062 3.53125-.67187 3.53125-1.625V-13.75l-.125-.10937-2.92187.46875v.46875l.6875.0625c.48437.0625.59375.15625.59375.875V-1.625c0 .95313-.03126.98438-1.39063 1.09375Zm0 0"/><path id="o" d="M.48438 3.75v.54688H5.3125V3.75C3.73438 3.65625 3.625 3.625 3.625 2.65625V-.20312c.39063.21875 1.28125.42187 2.14063.42187 2.51562 0 4.67187-1.15625 4.67187-5.01562 0-1.32813-.23437-4.57813-3.64062-4.57813-1.375 0-2.4375.90625-3.17188 1.39063L3.375-9.375l-2.8125.46875v.45313l.70313.10937c.48437.07813.60937.15625.60937.82813V2.65625c0 .96875-.09375 1-1.39062 1.09375M3.625-2.9375V-6c0-.48437.09375-.71875.25-1.0625.4375-.84375 1.21875-1.3125 2.20313-1.3125.76562 0 2.42187.48438 2.42187 3.70313 0 2.75-.875 4.23437-2.73437 4.23437-.96875 0-1.71875-.5-2.01563-1.34375C3.64063-2.125 3.625-2.5 3.625-2.9375m0 0"/><path id="p" d="M.92188-2.42187c0 1.39062.92187 2.64062 2.67187 2.64062C4.6875.21875 5.78125-.5 6.375-.89062c.26563.6875.57813 1.10937 1.23438 1.10937.70312 0 1.5-.20312 2.20312-.5625l-.10937-.4375c-.26563.0625-.6875.07813-.95313 0-.34375-.07812-.65625-.40625-.65625-1.57812v-4.53125c0-1.09375-.25-2.48438-3.0625-2.48438C2.92188-9.375 1.25-8.28125 1.25-7.25c0 .59375.70313.875 1.0625.875.39063 0 .48438-.20312.59375-.51562.40625-1.39063 1.17188-1.82813 1.92188-1.82813.73437 0 1.57812.375 1.57812 1.85938v.78125c-.48437.46875-2.29687.95312-3.76562 1.42187C1.29688-4.23437.92188-3.29687.92188-2.42187m1.875-.26563c0-.875.40625-1.32812 1.45312-1.71875.76563-.28125 1.73438-.64062 2.15625-.90625v2.65625c0 1.5-1.15625 1.875-1.89062 1.875-1.15625 0-1.71875-.8125-1.71875-1.90625m0 0"/><path id="q" d="M.59375 0h4.9375v-.53125C3.85938-.64062 3.75-.67187 3.75-1.625V-6c0-1.4375.64063-1.9375 1.07813-1.9375.29687 0 .625.125 1.15625.42188.14062.07812.28125.10937.375.10937.45312 0 .85937-.48437.85937-1.0625 0-.42187-.26562-.90625-1-.90625-.67187 0-1.23437.39063-2.46875 1.48438L3.53125-9.375l-2.82812.46875v.45313l.6875.10937C1.875-8.26562 2-8.1875 2-7.51562V-1.625C2-.67187 1.90625-.64062.59375-.53125Zm0 0"/><path id="r" d="m3.75-10.5.28125.39063 2.82813-1.57813c.54687-.29687 1.04687-.60937 1.04687-1.01562 0-.375-.45312-.8125-.73437-.8125-.3125 0-.64063.20312-1.1875.78125ZM.92188-4.51562c0 2.96875 1.26562 4.73437 4.3125 4.73437 2.0625 0 3.14062-1.15625 3.625-2.625l-.54688-.29687C7.79688-1.60937 7.07813-.73437 5.60938-.73437c-2.32813 0-2.78125-2.23438-2.75-4.17188H8.25c.39063 0 .73438-.10937.73438-.71875 0-1.09375-.35938-3.75-3.78125-3.75-2.92188 0-4.28125 2.0625-4.28125 4.85938M2.875-5.625c0-.78125.28125-3.09375 2.23438-3.09375 1.73437 0 1.92187 1.76563 1.92187 2.5 0 .35938-.10937.59375-.625.59375Zm0 0"/><path id="s" d="M.92188-4.35937c0 2.98437 1.625 4.57812 3.89062 4.57812 1.04688 0 1.9375-.5 2.92188-1.21875v3.65625c0 .96875-.10938 1-1.5 1.09375v.54688h4.65625V3.75C9.59375 3.65625 9.5 3.625 9.5 2.65625V-9.375h-.51562l-.79688.57813C7.46875-9.20312 6.51563-9.375 5.71875-9.375c-1.48437 0-2.67187.45313-3.5 1.28125C1.40625-7.25.92188-6.04687.92188-4.35937m1.9375-.23438c0-2.29687.79687-4.125 2.70312-4.125.96875 0 1.67188.32813 2.03125 1.28125.125.29688.14063.625.14063 1.07813v3.15625c0 .42187 0 .73437-.125 1.03125C7.25-1.17187 6.53125-.78125 5.5-.78125c-1.84375 0-2.64062-1.70312-2.64062-3.8125m0 0"/></defs><use xlink:href="#a" x="74.49687" y="69.69312"/><use xlink:href="#b" x="85.8022" y="74.06526"/><use xlink:href="#a" x="244.11466" y="69.76991"/><use xlink:href="#c" x="255.42198" y="74.14005"/><path fill="none" stroke="#007F7F" stroke-miterlimit="10" stroke-width=".39742" d="M101.07031 55.80469c45.9375-26.52734 90.08593-26.52734 132.0664-2.28516"/><path fill="#007F7F" stroke="#007F7F" stroke-miterlimit="10" stroke-width=".39742" d="M236.45313 55.4336c-.34375-.34376-1.77344-2-2.50391-3.32032l-1.6211 2.8086c1.50782-.02735 3.65626.38671 4.125.51171Zm0 0"/><path fill="none" stroke="#FF7F00" stroke-miterlimit="10" stroke-width=".39742" d="M237.09764 75.1914c-45.9414 26.52735-90.08983 26.52735-132.0703 2.28516"/><path fill="#FF7F00" stroke="#FF7F00" stroke-miterlimit="10" stroke-width=".39742" d="M101.71094 75.5625c.34375.34375 1.77734 1.9961 2.5039 3.3164l1.6211-2.80859c-1.50781.03125-3.65235-.38281-4.125-.50781Zm0 0"/><use xlink:href="#d" x="55.07956" y="20.64919"/><g fill="#007F7F"><use xlink:href="#e" x="68.51311" y="20.64919"/><use xlink:href="#f" x="77.77316" y="20.64919"/><use xlink:href="#g" x="88.54344" y="20.64919"/><use xlink:href="#h" x="98.14131" y="20.64919"/><use xlink:href="#e" x="115.48901" y="20.64919"/><use xlink:href="#i" x="124.74907" y="20.64919"/><use xlink:href="#g" x="130.17395" y="20.64919"/><use xlink:href="#j" x="139.77182" y="20.64919"/><use xlink:href="#k" x="151.31708" y="20.64919"/></g><g fill="#007F7F"><use xlink:href="#l" x="161.92839" y="20.64919"/><use xlink:href="#m" x="179.15687" y="20.64919"/><use xlink:href="#n" x="190.46367" y="20.64919"/><use xlink:href="#k" x="195.66997" y="20.64919"/><use xlink:href="#i" x="202.08842" y="20.64919"/><use xlink:href="#o" x="207.5133" y="20.64919"/><use xlink:href="#n" x="218.85985" y="20.64919"/><use xlink:href="#i" x="224.06615" y="20.64919"/><use xlink:href="#e" x="229.49103" y="20.64919"/><use xlink:href="#p" x="238.75109" y="20.64919"/><use xlink:href="#k" x="248.50793" y="20.64919"/><use xlink:href="#g" x="254.92638" y="20.64919"/><use xlink:href="#m" x="264.52425" y="20.64919"/><use xlink:href="#q" x="275.83105" y="20.64919"/></g><use xlink:href="#d" x="6.62303" y="119.90289"/><g fill="#FF7F00"><use xlink:href="#e" x="20.05658" y="119.90289"/><use xlink:href="#f" x="29.31664" y="119.90289"/><use xlink:href="#g" x="40.08692" y="119.90289"/><use xlink:href="#h" x="49.68479" y="119.90289"/><use xlink:href="#e" x="67.03249" y="119.90289"/><use xlink:href="#i" x="76.29254" y="119.90289"/><use xlink:href="#g" x="81.71743" y="119.90289"/><use xlink:href="#j" x="91.3153" y="119.90289"/><use xlink:href="#k" x="102.86056" y="119.90289"/></g><g fill="#FF7F00"><use xlink:href="#l" x="113.47187" y="119.90289"/><use xlink:href="#m" x="130.70034" y="119.90289"/><use xlink:href="#n" x="142.00715" y="119.90289"/><use xlink:href="#k" x="147.21344" y="119.90289"/><use xlink:href="#i" x="153.63189" y="119.90289"/><use xlink:href="#o" x="159.05678" y="119.90289"/><use xlink:href="#n" x="170.40333" y="119.90289"/><use xlink:href="#i" x="175.60962" y="119.90289"/><use xlink:href="#e" x="181.03451" y="119.90289"/><use xlink:href="#p" x="190.29456" y="119.90289"/><use xlink:href="#k" x="200.0514" y="119.90289"/><use xlink:href="#g" x="206.46985" y="119.90289"/><use xlink:href="#m" x="216.06772" y="119.90289"/><use xlink:href="#q" x="227.37453" y="119.90289"/></g><g fill="#FF7F00"><use xlink:href="#q" x="238.82043" y="119.90289"/><use xlink:href="#r" x="246.07348" y="119.90289"/><use xlink:href="#e" x="255.67135" y="119.90289"/><use xlink:href="#i" x="264.93141" y="119.90289"/><use xlink:href="#o" x="270.35629" y="119.90289"/><use xlink:href="#q" x="281.70284" y="119.90289"/></g><g fill="#FF7F00"><use xlink:href="#f" x="288.83666" y="119.90289"/><use xlink:href="#s" x="299.60694" y="119.90289"/><use xlink:href="#m" x="310.63555" y="119.90289"/><use xlink:href="#g" x="321.94235" y="119.90289"/></g></svg>