<svg xmlns="http://www.w3.org/2000/svg" xmlns:xlink="http://www.w3.org/1999/xlink" width="204.491pt" height="153.468pt" viewBox="0 0 204.491 153.468"><defs><path id="b" d="M-.35937 0h4.21875l.10937-.53125L2.9375-.64062c-.23437-.01563-.32812-.14063-.32812-.3125 0-.09376.03125-.23438.09375-.375.60937-1.1875 1.20312-2.40625 1.90625-3.65625h4.1875L9.25-1.125s-.09375.45313-.48437.48438l-1 .10937L7.67188 0H12.25l.125-.53125-.71875-.0625c-.57812-.0625-.65625-.3125-.75-1.09375l-1.375-11.21875H8.20313l-3.14063 5.5c-.95312 1.67188-2.5 4.45313-3.20312 5.5625C1.26563-.875.95313-.67187.375-.60937l-.60937.07812Zm5.34375-5.70312 3.03125-5.48438.6875 5.48438Zm0 0"/><path id="c" d="M.20313 0h9.71875l.96875-3.28125h-.5625c-.95313 2.3125-1.78125 2.625-4.09375 2.625-2.20313 0-2.32813-.28125-2.32813-.78125 0-.1875.0625-.46875.14063-.84375L5-6.375h2.45313c1.39062 0 1.64062.28125 1.64062 1.09375 0 .15625 0 .3125-.01562.51563H9.625l.875-3.89063h-.57812C9.45313-7.375 9.25-7.0625 7.60938-7.0625H5.15625l1.0625-4.65625c.09375-.45312.21875-.54687.53125-.54687H9c1.82813 0 2.20313.46875 2.20313 1.48437 0 .45313-.0625.96875-.0625.96875h.5625l.6875-3.09375h-9.4375l-.14063.53125 1.14063.07813c.3125.03125.45312.15625.45312.45312 0 .125-.01562.26563-.0625.4375L2.125-1.54687c-.15625.64062-.3125.85937-.78125.89062l-1.04687.125Zm0 0"/><clipPath id="a"><path d="M.09766 0H203.8828v152.9375H.09766Zm0 0"/></clipPath></defs><g clip-path="url(#a)"><path fill="#CCE5E5" stroke="#000" stroke-miterlimit="10" stroke-width=".39713" d="M203.68745 76.46875c0-42.12498-45.53123-76.2695-101.69526-76.2695S.29692 34.34377.29692 76.46875s45.53123 76.2734 101.69527 76.2734 101.69526-34.14842 101.69526-76.2734Zm0 0"/></g><path fill="#9CC" stroke="#000" stroke-miterlimit="10" stroke-width=".39713" d="M168.09372 76.46875c0-27.3789-29.59374-49.5742-66.10153-49.5742-36.5078 0-66.10154 22.1953-66.10154 49.5742s29.59374 49.5742 66.10154 49.5742 66.10153-22.1953 66.10153-49.5742Zm0 0"/><use xlink:href="#b" x="60.5331" y="53.50652"/><use xlink:href="#c" x="161.75023" y="44.78675"/></svg>