<svg xmlns="http://www.w3.org/2000/svg" xmlns:xlink="http://www.w3.org/1999/xlink" width="133.058pt" height="99.893pt" viewBox="0 0 133.058 99.893"><defs><path id="c" d="M0 0h3.67188c2.90625 0 3.5-1.5 3.5-2.5 0-1.28125-.9375-1.82812-1.82813-2l.01563-.03125c1.60937-.1875 2.29687-1.09375 2.29687-2.01562 0-.96875-.57812-1.8125-2.8125-1.8125h-3.0625l-.07812.34375.73437.0625c.20313.01562.28125.10937.28125.29687 0 .07813-.01562.1875-.04687.29688L1.25-1c-.09375.39063-.20312.53125-.5.57813l-.6875.07812Zm2.42188-.92187c0-.09376.01562-.1875.03125-.28126l.70312-3.09374H3.625c1.20313 0 2.25.34375 2.25 1.71875 0 1.09375-.65625 2.15625-2.28125 2.15625-.9375 0-1.17187-.20313-1.17187-.5m.8125-3.79688L3.875-7.51562c.07813-.35938.15625-.4375.95313-.4375 1.01562 0 1.59375.51562 1.59375 1.375 0 1.25-1.0625 1.85937-2.39063 1.85937Zm0 0"/><path id="d" d="M-.23437 0H2.5l.07813-.34375-.67188-.0625C1.75-.42187 1.6875-.5 1.6875-.625c0-.0625.01563-.14062.0625-.23437.39063-.78125.78125-1.5625 1.23438-2.375h2.71875L6-.73437s-.07812.29687-.32812.32812l-.64063.0625L4.96875 0H7.9375l.07813-.34375-.46875-.04687c-.375-.03125-.42188-.20313-.48438-.70313l-.89062-7.26562H5.3125l-2.03125 3.5625c-.625 1.07812-1.625 2.875-2.07812 3.59375C.82813-.5625.625-.4375.25-.40625l-.40625.0625Zm3.46875-3.6875L5.1875-7.23437 5.625-3.6875Zm0 0"/><path id="e" d="M.125 0h6.29688l.625-2.125H6.6875c-.625 1.5-1.15625 1.70313-2.65625 1.70313-1.42187 0-1.5-.1875-1.5-.5 0-.125.04688-.3125.09375-.5625L3.23438-4.125h1.59375c.89062 0 1.0625.17188 1.0625.70313 0 .10937 0 .20312-.01563.32812h.35938l.5625-2.51562h-.375C6.125-4.76562 6-4.57812 4.92188-4.57812H3.34375l.6875-3.01563c.0625-.28125.14063-.35937.34375-.35937h1.45313c1.1875 0 1.42187.3125 1.42187.96875 0 .29687-.03125.625-.03125.625h.35938l.45312-2H1.92188l-.09376.34375.73438.0625c.20313 0 .29688.09375.29688.28125 0 .07812-.01563.17187-.04688.29687L1.375-1c-.10937.40625-.20312.54688-.5.57813l-.6875.07812Zm0 0"/><clipPath id="a"><path d="M0 .29688h132v99.1914H0Zm0 0"/></clipPath><clipPath id="b"><path d="M0 .29688h132.1211v99.1914H0Zm0 0"/></clipPath></defs><g clip-path="url(#a)"><path fill="#cce5e5" d="M131.92578 49.89453C131.92578 22.60937 102.4375.4961 66.0625.4961 29.6836.4961.19531 22.60938.19531 49.89453c0 27.28125 29.48828 49.39844 65.86719 49.39844 36.375 0 65.86328-22.11719 65.86328-49.39844m0 0"/></g><g clip-path="url(#b)"><path fill="none" stroke="#000" stroke-miterlimit="10" stroke-width=".3957" d="M131.92577 49.89453C131.92577 22.60938 102.4375.4961 66.0625.4961 29.6836.4961.19532 22.60938.19532 49.89453c0 27.28125 29.48828 49.39843 65.86718 49.39843 36.375 0 65.86327-22.11718 65.86327-49.39843Zm0 0"/></g><path fill="#9cc" stroke="#000" stroke-miterlimit="10" stroke-width=".3957" d="M108.87109 49.89453c0-17.73437-19.16406-32.10937-42.80859-32.10937S23.25 32.16016 23.25 49.89453C23.25 67.625 42.41798 82 66.0625 82s42.80859-14.375 42.80859-32.10547Zm0 0"/><path fill="#66b2b2" stroke="#000" stroke-miterlimit="10" stroke-width=".3957" d="M89.11328 49.89453c0-9.55078-10.32031-17.29296-23.05078-17.29296-12.73437 0-23.05468 7.74218-23.05468 17.29296 0 9.54688 10.3203 17.28906 23.05468 17.28906 12.73047 0 23.05078-7.74218 23.05078-17.28906Zm0 0"/><use xlink:href="#c" x="71.39058" y="57.45137"/><use xlink:href="#d" x="39.21041" y="35.02216"/><use xlink:href="#e" x="104.76431" y="29.37414"/></svg>