<svg xmlns="http://www.w3.org/2000/svg" xmlns:xlink="http://www.w3.org/1999/xlink" width="93.097pt" height="80.521pt" viewBox="0 0 93.097 80.521"><defs><path id="a" d="M.39063-3.26562c0 2 1.14062 3.4375 3.53125 3.4375 2.14062 0 3.17187-1.07813 3.84375-2.28125.65625-1.17188.76562-2.40625.76562-2.875 0-2.48438-1.5-3.54688-3.48437-3.54688-1.92188 0-3.125 1.0625-3.82813 2.21875C.54688-5.20312.39063-4.04687.39063-3.26562m1.26562.5c0-1.01563.1875-2.14063.75-3.3125.54688-1.14063 1.40625-2.03125 2.6875-2.03125 1.3125 0 2.17188.78125 2.17188 2.48437 0 .70313-.0625 1.6875-.5625 2.96875C6.20313-1.35937 5.375-.25 3.8125-.25 2.5-.25 1.65625-1.09375 1.65625-2.76562m0 0"/><path id="b" d="M0 0h2.84375l.0625-.34375-.46875-.04687C2.07813-.40625 1.89063-.5 1.89063-.75c0-.64062.10937-1 .25-1.65625L3.25-7.3125h.01563L4.71875-.14062h.32813L9.75-7.3125h.03125L8.29688-1c-.09375.40625-.21875.54688-.51563.57813L7.125-.34375 7.0625 0h3.28125l.0625-.34375-.70312-.07812c-.21875-.01563-.3125-.10938-.3125-.3125 0-.07813.01562-.15626.03125-.26563L10.875-7.34375c.10938-.40625.20313-.57812.5-.59375l.67188-.04687.09375-.35938H9.78125c-.64062 1.10938-1.35937 2.1875-2.09375 3.29688L5.54688-1.78125h-.03125L4.84375-5.125c-.25-1.09375-.5-2.14062-.70312-3.21875H1.8125l-.07812.35938.70312.0625c.20313 0 .3125.10937.3125.3125 0 .07812-.01562.17187-.04687.26562L1.5625-2.40625c-.14062.65625-.28125 1.10938-.42187 1.51563-.14063.375-.35938.46875-.70313.5l-.375.04687Zm0 0"/><path id="c" d="M0 0h2.84375l.0625-.34375-.46875-.04687C2.07813-.40625 1.89063-.48437 1.89063-.75c0-.64062.10937-1 .25-1.65625l1.125-4.9375h.04687C4.4375-4.89062 5.54688-2.45312 6.65625 0h.78125l1.34375-5.9375c.14063-.64062.28125-1.10937.42188-1.5.15625-.39062.35937-.48437.71875-.51562l.375-.03125.0625-.35938H7.51563l-.0625.35938.46875.04687c.35937.03125.57812.15625.57812.42188 0 .4375-.14062.9375-.28125 1.57812l-.98437 4.35938H7.1875c-1.04687-2.25-2.0625-4.5-3.07812-6.76563H1.8125l-.07812.35938.70312.0625c.20313 0 .3125.10937.3125.3125 0 .07812-.01562.17187-.04687.26562L1.5625-2.40625c-.14062.65625-.28125 1.10938-.42187 1.51563-.14063.375-.34375.46875-.70313.5l-.375.04687Zm0 0"/></defs><path fill="none" stroke="#000" stroke-miterlimit="10" stroke-width=".39467" d="m17.72266 53.24219 53.9258 9.51172L24.0625 17.29296Zm0 0"/><use xlink:href="#a" x="4.27553" y="66.30587"/><use xlink:href="#b" x="76.17811" y="75.62151"/><use xlink:href="#c" x="9.54937" y="12.76222"/></svg>