<svg xmlns="http://www.w3.org/2000/svg" xmlns:xlink="http://www.w3.org/1999/xlink" width="79.384pt" height="37.257pt" viewBox="0 0 79.384 37.257"><defs><path id="a" d="M.20313 0H1.875v-.17187c-.53125-.03126-.53125-.04688-.53125-.375v-1.48438h2.07813v1.48438c0 .32812-.01563.34375-.53125.375V0h1.65625v-.17187c-.51563-.03126-.53125-.04688-.53125-.375v-3.03125c0-.32813.01562-.34375.53125-.375V-4.125H2.89063v.17188c.51562.03125.53125.04687.53125.375v1.3125H1.34375v-1.3125c0-.32813 0-.34375.53125-.375V-4.125H.20313v.17188c.53125.03125.54687.04687.54687.375v3.03125c0 .32812-.01562.34375-.54687.375Zm0 0"/><path id="b" d="M-.03125-2.75c.28125.01563.34375.04688.45313.3125.29687.71875.79687 1.98438.9375 2.39063.03124.10937.04687.1875.04687.29687 0 .14063-.0625.3125-.14062.5-.09376.20313-.20313.26563-.26563.26563S.89063.98437.78125.875C.71875.82813.67188.79688.60938.79688c-.125 0-.26563.17187-.26563.34375 0 .14062.15625.29687.40625.29687s.54688-.0625.85938-.95312c.35937-1.0625.92187-2.51563 1.09375-2.92188.10937-.25.14062-.29687.4375-.3125v-.17187H2V-2.75l.3125.03125c.10938.01563.125.07813.07813.20313-.07813.35937-.39063 1.25-.65625 1.96875h-.01563c-.26562-.71875-.5-1.35938-.73437-1.98438-.03126-.10937-.04688-.1875.09374-.20312L1.34376-2.75v-.17187h-1.375Zm0 0"/><path id="c" d="M.15625 1.20313V1.375H1.6875v-.17187c-.5-.03126-.53125-.04688-.53125-.35938V-.0625c.125.0625.40625.125.6875.125.79688 0 1.48438-.35937 1.48438-1.59375C3.32813-1.95312 3.25-3 2.17188-3c-.4375 0-.78125.29688-1.01563.45313L1.07813-3l-.90625.15625v.14063l.23437.03125c.15625.03125.1875.0625.1875.28125V.84375c0 .3125-.01562.32813-.4375.35938m1-2.14063v-.98437c0-.14063.03125-.21876.07813-.32813.14062-.28125.39062-.42187.70312-.42187.25 0 .78125.15625.78125 1.1875 0 .875-.28125 1.34375-.875 1.34375-.3125 0-.54687-.15625-.64062-.4375-.04688-.09376-.04688-.21876-.04688-.35938m0 0"/><path id="d" d="M.29688-1.45312C.29688-.5.76563.0625 1.71875.0625c.96875 0 1.4375-.5625 1.4375-1.51562C3.15625-2.42187 2.6875-3 1.71875-3 .76563-3 .29688-2.42187.29688-1.45312m.60937 0c0-.82813.28125-1.32813.8125-1.32813.54688 0 .8125.5.8125 1.32813 0 .8125-.26562 1.3125-.8125 1.3125-.53125 0-.8125-.5-.8125-1.3125m0 0"/><path id="e" d="M.1875-2.6875h.42188v2.07813c0 .60937.45312.67187.67187.67187.29688 0 .57813-.14062.75-.25l-.04687-.125c-.14063.04688-.26563.07813-.42188.07813-.20312 0-.39062-.15625-.39062-.60938V-2.6875h.76562v-.23437h-.76562v-.75H1l-.35937.75H.1875Zm0 0"/><path id="f" d="m1.20313-3.34375.07812.10938.90625-.5c.17188-.09375.34375-.1875.34375-.3125S2.375-4.3125 2.29688-4.3125c-.10938 0-.20313.0625-.39063.25ZM.29688-1.4375c0 .9375.40625 1.5 1.375 1.5.65625 0 1-.35937 1.15625-.82812l-.17188-.09376c-.17187.34376-.39062.625-.875.625-.73437 0-.875-.70312-.875-1.32812H2.625c.14063 0 .25-.03125.25-.23437C2.875-2.14062 2.75-3 1.65625-3 .73438-3 .29688-2.32812.29688-1.4375m.625-.35937c0-.25.09374-.98438.70312-.98438.5625 0 .625.5625.625.79688 0 .10937-.04687.1875-.20312.1875Zm0 0"/><path id="g" d="M.1875 0h1.45313v-.17187c-.42188-.03126-.4375-.04688-.4375-.34375v-1.40625c0-.14063 0-.21876.04687-.3125.14063-.23438.40625-.4375.71875-.4375.40625 0 .625.21875.625.75v1.40625c0 .29687-.01562.3125-.45312.34375V0h1.46875v-.17187c-.4375-.03126-.45313-.04688-.45313-.34375v-1.53125c0-.59375-.32812-.95313-.875-.95313-.45312 0-.71875.21875-1.09375.46875L1.10938-3l-.89063.15625v.14063l.21875.03125c.15625.03125.20313.0625.20313.28125v1.875c0 .29687-.01563.3125-.45313.34375Zm0 0"/><path id="h" d="m.15625-2.70312.21875.03125c.15625.03125.20313.0625.20313.28125v1.5625c0 .6875.40625.89062.84375.89062.5 0 .92187-.32812 1.09375-.42187L2.5625 0h.96875v-.17187c-.42187-.03126-.45312-.04688-.45312-.34375v-2.4375L3.03125-3l-.9375.15625v.14063l.23438.03125c.15625.03125.1875.0625.1875.28125v1.34375c0 .15624-.01563.29687-.04688.34375-.14062.28124-.42187.45312-.73437.45312-.34375 0-.59375-.21875-.59375-.6875v-2.01562L1.09375-3l-.9375.15625Zm0 0"/><path id="i" d="m.28125-1 .0625.78125c.21875.1875.57813.28125.92188.28125.71875 0 1.125-.35937 1.125-.875 0-.53125-.32813-.76562-.9375-.95312-.25-.07813-.64063-.20313-.64063-.53125 0-.3125.23438-.48438.53125-.48438.42188 0 .625.32813.67188.6875h.17187v-.70312C1.98438-2.9375 1.6875-3 1.42188-3c-.64063 0-1.07813.3125-1.07813.875 0 .5.40625.71875.89063.875.26562.07813.64062.20313.64062.60938 0 .3125-.23437.5-.54687.5-.48438 0-.75-.34375-.875-.85938Zm0 0"/><path id="j" d="M.29688-1.4375c0 .9375.40625 1.5 1.375 1.5.65625 0 1-.35937 1.15625-.82812l-.17188-.09376c-.17187.34376-.39062.625-.875.625-.73437 0-.875-.70312-.875-1.32812H2.625c.14063 0 .25-.03125.25-.23437C2.875-2.14062 2.75-3 1.65625-3 .73438-3 .29688-2.32812.29688-1.4375m.625-.35937c0-.25.09374-.98438.70312-.98438.5625 0 .625.5625.625.79688 0 .10937-.04687.1875-.20312.1875Zm0 0"/><clipPath id="k"><path d="M.47266 0H74v36.52734H.47266Zm0 0"/></clipPath><clipPath id="l"><path d="M.47266 0h77.83203v36.52734H.47266Zm0 0"/></clipPath><clipPath id="m"><path d="M.47266 0H9v8H.47266Zm0 0"/></clipPath></defs><use xlink:href="#a" x="41.29307" y="27.06819" fill="#007f7f"/><g fill="#007f7f"><use xlink:href="#b" x="45.91521" y="27.06819"/><use xlink:href="#c" x="48.93104" y="27.06819"/><use xlink:href="#d" x="52.55637" y="27.06819"/><use xlink:href="#e" x="55.99758" y="27.06819"/><use xlink:href="#f" x="58.04834" y="27.06819"/><use xlink:href="#g" x="61.11496" y="27.06819"/><use xlink:href="#h" x="64.80378" y="27.06819"/><use xlink:href="#i" x="68.41642" y="27.06819"/><use xlink:href="#j" x="71.0132" y="27.06819"/></g><g clip-path="url(#k)"><path fill="none" stroke="#000" stroke-miterlimit="10" stroke-width=".39071" d="M72.94529.19531H.66797v36.1367"/></g><g clip-path="url(#l)"><path fill="none" stroke="#007f7f" stroke-miterlimit="10" stroke-width=".39071" d="M.66797 36.33202 72.94529.19532"/></g><g clip-path="url(#m)"><path fill="none" stroke="red" stroke-miterlimit="10" stroke-width=".39071" d="M.66797 7.42187h7.22656V.19531"/></g></svg>