<svg xmlns="http://www.w3.org/2000/svg" xmlns:xlink="http://www.w3.org/1999/xlink" width="178.493pt" height="143.252pt" viewBox="0 0 178.493 143.252"><defs><path id="a" d="M.90625-6.375h.35938c.39062-1.23437.82812-1.59375 2.01562-1.59375h.82813L2.54688-.98437c-.09375.375-.23438.5625-.59375.57812l-.79688.0625L1.07813 0H4.8125l.07813-.34375-.875-.0625c-.25 0-.35938-.10937-.35938-.3125 0-.07812.01563-.15625.04688-.26562l1.5625-6.98438h.76562c1.17188 0 1.42188.3125 1.42188.96875 0 .1875-.01563.39063-.04688.625h.375l.45313-2h-6.875Zm0 0"/><path id="b" d="M1-2.07812C1-.4375 2.1875.1875 3.9375.1875c1.65625 0 3.17188-.35937 3.82813-3.17187L8.79688-7.375c.10937-.40625.21875-.57812.51562-.60937l.67188-.04688.07812-.34375H6.75l-.07812.34375.70312.04688c.20313.01562.3125.125.3125.34375 0 .07812-.01562.17187-.04687.26562l-.96875 4.23438C6.29688-1.53125 5.70313-.25 4.01563-.25 2.9375-.25 2.1875-.70312 2.1875-2.04687c0-.34375.0625-.75.15625-1.21875L3.3125-7.375c.10938-.40625.1875-.57812.5-.60937l.67188-.04688.07812-.34375H1.25l-.09375.34375.71875.04688c.21875.01562.29688.125.29688.32812 0 .07813 0 .17188-.03125.28125L1.125-3.10937C1.03125-2.71875 1-2.39062 1-2.07812m0 0"/><path id="c" d="m.90625-8.03125.48438.04688c.28124.04687.39062.14062.45312.57812.14063 1.10938.28125 2.3125.4375 3.53125L2.79688 0h.84375l2.4375-4.17187C6.875-5.51562 7.625-6.75 8.10938-7.5c.26562-.42187.45312-.48437 1.09375-.53125l.0625-.34375H6.59375l-.0625.34375.67188.04688c.14062.01562.20312.0625.20312.17187 0 .20313-.89062 1.8125-1.92187 3.57813L3.75-1.21875 3.3125-4.4375c-.14062-1.0625-.375-3.03125-.375-3.26562 0-.14063.04688-.23438.21875-.26563l.78125-.0625L4-8.375H.96875Zm0 0"/><path id="j" d="M.17188-3.57812c0 .21875.21875.29687.32812.29687.07813 0 .17188-.03125.1875-.14062.07813-.45313.25-.64063.5-.64063.28125 0 .39063.25.39063.60938 0 .375-.26563.75-.54688.95312-.35937.28125-.48437.4375-.48437.70313 0 .39062.3125.59375.64062.59375.1875 0 .42188-.03126.57813-.17188L1.71875-1.5c-.03125.01563-.10937.03125-.17187.03125-.125 0-.40625-.10937-.40625-.4375 0-.26562.14062-.48437.45312-.70312.20313-.14063.57813-.375.57813-.84375 0-.5625-.40625-.82813-.95313-.82813-.79687 0-1.04687.5-1.04687.70313M.76563-.29687c0 .21875.17187.375.39062.375s.375-.15625.375-.375c0-.23438-.15625-.39063-.375-.39063s-.39062.15625-.39062.39063m0 0"/><path id="m" d="M.29688-1.45312c0 1.01562.5 1.53125 1.40625 1.53125.42187 0 1-.21875 1.15625-.875L2.6875-.875c-.1875.42188-.42187.625-.875.625-.71875 0-.89062-.75-.89062-1.3125 0-.90625.35937-1.26562.78125-1.26562.26562 0 .45312.20312.5625.53125.04687.09375.07812.15625.20312.15625s.34375-.07813.34375-.3125c0-.28125-.39062-.57813-1.04687-.57813-1.10938 0-1.46875.76563-1.46875 1.57813m0 0"/><path id="n" d="M.1875 0h1.48438v-.17187c-.4375-.03126-.45313-.04688-.45313-.35938V-1.9375c0-.15625 0-.25.04688-.32812.10937-.25.375-.4375.70312-.4375.53125 0 .59375.375.59375.75v1.42187c0 .3125-.01562.32813-.45312.35938V0h1.46875v-.17187C3.14063-.20313 3.125-.21875 3.125-.53125V-1.9375c0-.15625.01563-.23437.04688-.32812.09375-.25.34375-.4375.6875-.4375.39062 0 .60937.20312.60937.75v1.42187c0 .3125-.01562.32813-.45312.35938V0H5.5v-.17187c-.4375-.03126-.45312-.04688-.45312-.35938v-1.54687c0-.60938-.32813-.95313-.90625-.95313-.5 0-.84375.32813-1.0625.45313-.15625-.28125-.375-.45313-.8125-.45313-.45313 0-.84375.29688-1.04688.45313l-.0625-.45313-.9375.14063v.15625l.23438.03125c.15625.03125.20312.04687.20312.26562v1.90625c0 .3125-.03125.32813-.46875.35938Zm0 0"/><path id="o" d="m.1875-2.34375.0625.04688h1.6875l.17188-.53125-.14063-.03125c-.07812.15625-.14062.21875-.34375.21875H.65625c.04688-.15625.1875-.35938.54688-.5625C1.73438-3.5 2-3.71875 2-4.09375 2-4.54687 1.6875-4.75 1.17188-4.75c-.57813 0-.875.29688-.875.57813 0 .125.14062.21875.28125.21875.09374 0 .14062-.0625.15624-.15625.07813-.35938.23438-.48438.42188-.48438.21875 0 .32813.1875.32813.42188 0 .25-.07813.5625-.48438.84375-.54687.35937-.76562.6875-.8125.98437m0 0"/><path id="k" d="M.1875-.07812.25 0h2.625l.23438-.92187-.20313-.03126c-.14062.32813-.25.375-.5.375H.875C.96875-.84374 1.25-1.25 1.85938-1.625c.64062-.40625 1.0625-.6875 1.0625-1.34375 0-.84375-.57813-1.14062-1.28125-1.14062-.79688 0-1.3125.45312-1.3125.85937 0 .23438.26562.34375.40625.34375.125 0 .1875-.0625.21874-.20312.09376-.4375.3125-.76563.65626-.76563.39062 0 .53125.34375.53125.78125 0 .53125-.21875.9375-.8125 1.45313C.53125-.96875.25-.51562.1875-.07812m0 0"/><path id="l" d="M.23438-2.01562c0 1.15625.375 2.09375 1.42187 2.09375 1.0625 0 1.42188-.9375 1.42188-2.09375 0-1.17188-.35938-2.09375-1.42188-2.09375-1.04687 0-1.42187.92187-1.42187 2.09375m.76562 0C1-2.875 1.125-3.875 1.65625-3.875c.54688 0 .65625 1 .65625 1.85938 0 .84375-.10937 1.84375-.65625 1.84375-.53125 0-.65625-1-.65625-1.84375m0 0"/><path id="p" d="M.21875-1.125c0 .75.54688 1.20313 1.4375 1.20313.90625 0 1.4375-.45313 1.4375-1.20313 0-.57812-.35937-.9375-.79687-1.0625.34375-.09375.65625-.39062.65625-.875 0-.67187-.53125-1.04687-1.29688-1.04687-.76562 0-1.29687.375-1.29687 1.04687 0 .48438.3125.78125.67187.875-.4375.125-.8125.48438-.8125 1.0625m.76563.03125c0-.53125.23437-.9375.67187-.9375s.67188.40625.67188.9375-.21875.92188-.67188.92188c-.45312 0-.67187-.39063-.67187-.92188m.10937-1.98437c0-.46875.20313-.79688.5625-.79688.375 0 .57813.32813.57813.79688 0 .42187-.1875.79687-.57813.79687-.375 0-.5625-.375-.5625-.79687m0 0"/><clipPath id="d"><path d="M101 18h76.77734v77H101Zm0 0"/></clipPath><clipPath id="e"><path d="M96 12h81.77734v88H96Zm0 0"/></clipPath><clipPath id="f"><path d="M.21094 0H102v102H.21094Zm0 0"/></clipPath><clipPath id="g"><path d="M.21094 0H108v108H.21094Zm0 0"/></clipPath><clipPath id="h"><path d="M72 94h49v48.50781H72Zm0 0"/></clipPath><clipPath id="i"><path d="M66 88h60v54.50781H66Zm0 0"/></clipPath></defs><use xlink:href="#a" x="117.58254" y="107.16443"/><use xlink:href="#b" x="96.7921" y="24.95171"/><use xlink:href="#c" x="58.34585" y="114.36981"/><path fill="none" stroke="red" stroke-miterlimit="10" stroke-width=".39643" d="m111.75781 87.01953-7.22266 1.26953 1.27344 7.22266"/><path fill="none" stroke="#000" stroke-miterlimit="10" stroke-width=".39643" d="m72.16014 101.44532 40.87111-7.20704-11.38282-64.55472Zm0 0"/><g clip-path="url(#d)"><path fill="#cce5e5" d="m113.03125 94.23828 64.54688-11.38281-11.37891-64.54688-64.55078 11.37891Zm0 0"/></g><g clip-path="url(#e)"><path fill="none" stroke="#000" stroke-miterlimit="10" stroke-width=".39643" d="m113.03125 94.23828 64.5469-11.38282-11.3789-64.5469-64.55082 11.37891Zm0 0"/></g><g clip-path="url(#f)"><path fill="#ffe5cc" d="M101.64844 29.6836 29.89454.19921.40624 71.95312l71.7539 29.4922Zm0 0"/></g><g clip-path="url(#g)"><path fill="none" stroke="#000" stroke-miterlimit="10" stroke-width=".39643" d="M101.64843 29.68356 29.8945.19918.4062 71.9531l71.75394 29.4922Zm0 0"/></g><g clip-path="url(#h)"><path fill="#fbcce8" d="m72.16016 101.44531 40.86718-7.20703 7.20704 40.86719-40.8672 7.20703Zm0 0"/></g><g clip-path="url(#i)"><path fill="none" stroke="#000" stroke-miterlimit="10" stroke-width=".39643" d="m72.16014 101.44532 40.8672-7.20704 7.20704 40.8672-40.8672 7.20704Zm0 0"/></g><use xlink:href="#j" x="138.78036" y="58.37618" fill="#007f7f"/><g fill="#ff7f00"><use xlink:href="#k" x="41.58437" y="53.16241"/><use xlink:href="#l" x="44.90204" y="53.16241"/></g><g fill="#ff7f00"><use xlink:href="#m" x="49.57923" y="53.16241"/><use xlink:href="#n" x="52.58123" y="53.16241"/><use xlink:href="#o" x="58.16652" y="53.16241"/></g><use xlink:href="#p" x="88.41584" y="120.62017" fill="#ec008c"/><g fill="#ec008c"><use xlink:href="#m" x="93.09222" y="120.62017"/><use xlink:href="#n" x="96.09423" y="120.62017"/><use xlink:href="#o" x="101.67951" y="120.62017"/></g></svg>