<svg xmlns="http://www.w3.org/2000/svg" xmlns:xlink="http://www.w3.org/1999/xlink" width="65.982pt" height="47.31pt" viewBox="0 0 65.982 47.31"><defs><path id="a" d="M.20313 0H1.875v-.17187c-.51562-.03126-.53125-.04688-.53125-.375v-1.5H3.4375v1.5c0 .32812 0 .34375-.53125.375V0h1.67188v-.17187c-.53125-.03126-.54688-.04688-.54688-.375v-3.04688c0-.32812.01563-.34375.54688-.375v-.17187H2.90625v.17187c.53125.03125.53125.04688.53125.375v1.32813H1.34375v-1.32813c0-.32812.01563-.34375.53125-.375v-.17187H.20313v.17187c.53125.03125.54687.04688.54687.375v3.04688c0 .32812-.01562.34375-.54687.375Zm0 0"/><path id="b" d="M-.03125-2.76562c.28125.01562.34375.0625.45313.3125.3125.71875.79687 2 .9375 2.40625.04687.10937.0625.1875.0625.29687 0 .14063-.0625.3125-.15626.51563-.09374.1875-.1875.25-.26562.25-.04687 0-.10937-.01563-.21875-.125C.73438.82813.67188.79687.60938.79687c-.125 0-.26563.17188-.26563.34376 0 .14062.17188.3125.42188.3125.23437 0 .54687-.07813.84375-.96875.375-1.0625.92187-2.51563 1.10937-2.9375.10938-.25.14063-.28125.4375-.3125v-.17188H2.01563v.17188l.3125.03125c.09375.01562.10937.07812.07812.20312-.07812.35938-.39062 1.26563-.65625 1.98438h-.01562c-.28126-.73438-.51563-1.375-.73438-2-.04687-.10938-.0625-.1875.07813-.1875l.26562-.03125v-.17188h-1.375Zm0 0"/><path id="c" d="M.15625 1.20313V1.375h1.54688v-.17187c-.5-.03126-.54688-.04688-.54688-.34375V-.0625c.125.0625.42188.125.6875.125.8125 0 1.5-.35937 1.5-1.59375 0-.4375-.07812-1.48437-1.15625-1.48437-.45312 0-.79687.29687-1.03125.45312l-.07812-.45312-.90625.15625v.15625l.23437.03125c.15625.01562.1875.04687.1875.26562V.85938c0 .29687-.01562.3125-.4375.34375m1-2.14063v-.98437c0-.15626.03125-.23438.09375-.34375.14063-.26563.375-.42188.70313-.42188.23437 0 .78125.15625.78125 1.1875 0 .875-.28125 1.35938-.89063 1.35938-.3125 0-.54687-.15625-.64062-.4375-.03126-.10938-.04688-.21876-.04688-.35938m0 0"/><path id="d" d="M.29688-1.46875C.29688-.5.76563.0625 1.73438.0625S3.17188-.5 3.17188-1.46875s-.46875-1.54687-1.4375-1.54687-1.4375.57812-1.4375 1.54687m.625 0c0-.82812.26562-1.32812.8125-1.32812.54687 0 .8125.5.8125 1.32812 0 .82813-.26563 1.32813-.8125 1.32813-.54688 0-.8125-.5-.8125-1.32813m0 0"/><path id="e" d="M.1875-2.70312H.625v2.09375c0 .60937.45313.67187.65625.67187.3125 0 .59375-.14062.76563-.25L2-.3125c-.14062.04688-.26562.0625-.42187.0625-.20313 0-.40625-.14062-.40625-.59375v-1.85937h.78125v-.23438h-.78125v-.75H1l-.35937.75H.1875Zm0 0"/><path id="f" d="m1.20313-3.35937.09374.10937.90626-.5c.17187-.09375.32812-.20312.32812-.32812 0-.10938-.14062-.25-.23437-.25s-.20313.0625-.375.23437ZM.29688-1.45312C.29688-.5.70313.0625 1.67188.0625c.67187 0 1.01562-.35937 1.17187-.82812l-.17187-.09376c-.17188.34376-.40625.625-.875.625-.75 0-.89063-.71874-.875-1.34374h1.71875c.125 0 .23437-.03126.23437-.21876 0-.35937-.10937-1.21874-1.20312-1.21874-.9375 0-1.375.67187-1.375 1.5625m.625-.34375c0-.25.09374-1 .71875-1 .54687 0 .60937.5625.60937.79687 0 .125-.03125.20313-.20312.20313Zm0 0"/><path id="g" d="M.1875 0h1.46875v-.17187c-.4375-.03126-.45312-.04688-.45312-.34375v-1.40625c0-.15626.01562-.23438.0625-.32813.125-.23437.39062-.4375.70312-.4375.42188 0 .64063.23438.64063.75v1.42188c0 .29687-.01563.3125-.45313.34375V0H3.625v-.17187c-.4375-.03126-.45312-.04688-.45312-.34375v-1.53125c0-.60938-.32813-.96875-.89063-.96875-.4375 0-.71875.21875-1.07812.46875l-.09376-.46875-.89062.15625v.15625l.23438.03125c.14062.01562.1875.04687.1875.26562v1.89063c0 .29687-.01563.3125-.45313.34375Zm0 0"/><path id="h" d="m.15625-2.70312.21875.03125c.15625.01562.20313.04687.20313.26562v1.57813c0 .6875.40625.89062.84375.89062.51562 0 .9375-.34375 1.10937-.42187L2.57813 0h.96875v-.17187c-.42188-.03126-.45313-.04688-.45313-.34375v-2.45313l-.04687-.04687-.9375.15625v.15625l.23437.03125c.15625.01562.1875.04687.1875.26562v1.34375c0 .17188-.01562.29688-.04687.35938C2.34375-.42188 2.0625-.25 1.75-.25c-.35937 0-.60937-.21875-.60937-.6875v-2.03125l-.04688-.04687-.9375.15625Zm0 0"/><path id="i" d="m.28125-1 .0625.78125c.21875.1875.57813.28125.9375.28125.70313 0 1.10938-.375 1.10938-.875 0-.53125-.3125-.76562-.9375-.95312-.25-.07813-.64063-.20313-.64063-.54688 0-.3125.23438-.48437.53125-.48437.4375 0 .64063.32812.6875.6875h.17188v-.70313c-.20313-.14062-.5-.20312-.78125-.20312-.64063 0-1.07813.3125-1.07813.875 0 .5.40625.71875.90625.875.26563.09374.64063.21874.64063.625 0 .3125-.23438.5-.5625.5-.48438 0-.75-.34375-.875-.85938Zm0 0"/><path id="j" d="M.29688-1.45312C.29688-.5.70313.0625 1.67188.0625c.67187 0 1.01562-.35937 1.17187-.82812l-.17187-.09376c-.17188.34376-.40625.625-.875.625-.75 0-.89063-.71874-.875-1.34374h1.71875c.125 0 .23437-.03126.23437-.21876 0-.35937-.10937-1.21874-1.20312-1.21874-.9375 0-1.375.67187-1.375 1.5625m.625-.34375c0-.25.09374-1 .71875-1 .54687 0 .60937.5625.60937.79687 0 .125-.03125.20313-.20312.20313Zm0 0"/><clipPath id="k"><path d="M.46484 0H32v46.6289H.46484Zm0 0"/></clipPath><clipPath id="l"><path d="M15 0h17v46.6289H15Zm0 0"/></clipPath><clipPath id="m"><path d="M.46484 10H17v22H.46484Zm0 0"/></clipPath></defs><use xlink:href="#a" x="28.29055" y="17.35587" fill="#007f7f"/><g fill="#007f7f"><use xlink:href="#b" x="32.93073" y="17.35587"/><use xlink:href="#c" x="35.96247" y="17.35587"/><use xlink:href="#d" x="39.60695" y="17.35587"/><use xlink:href="#e" x="43.06634" y="17.35587"/><use xlink:href="#f" x="45.12793" y="17.35587"/><use xlink:href="#g" x="48.21073" y="17.35587"/><use xlink:href="#h" x="51.91904" y="17.35587"/><use xlink:href="#i" x="55.55076" y="17.35587"/><use xlink:href="#j" x="58.16125" y="17.35587"/></g><g clip-path="url(#k)"><path fill="none" stroke="#000" stroke-miterlimit="10" stroke-width=".39277" d="M21.21094.19531.66016 20.7461l25.6875 25.6875"/></g><g clip-path="url(#l)"><path fill="none" stroke="#007f7f" stroke-miterlimit="10" stroke-width=".39277" d="M26.34766 46.4336 21.21094.1953"/></g><g clip-path="url(#m)"><path fill="none" stroke="red" stroke-miterlimit="10" stroke-width=".39277" d="m5.79687 25.88281 5.13672-5.13672-5.13672-5.13671"/></g></svg>