<svg xmlns="http://www.w3.org/2000/svg" xmlns:xlink="http://www.w3.org/1999/xlink" width="60.789pt" height="43.803pt" viewBox="0 0 60.789 43.803"><defs><path id="a" d="M.21875 0h1.6875v-.17187C1.375-.21875 1.35938-.21875 1.35938-.5625v-1.51562h2.125V-.5625c0 .34375-.01563.34375-.54688.39063V0H4.625v-.17187c-.53125-.04688-.54687-.04688-.54687-.39063v-3.07812c0-.32813.01562-.34375.54687-.375v-.17188H2.9375v.17188c.53125.03125.54688.04687.54688.375v1.34375h-2.125v-1.34375c0-.32813.01562-.34375.54687-.375v-.17188H.21875v.17188c.53125.03125.54688.04687.54688.375V-.5625c0 .34375-.01563.34375-.54688.39063Zm0 0"/><path id="b" d="M-.03125-2.79687c.29688.01562.35938.04687.46875.3125.29688.73437.79688 2.01562.9375 2.4375.04688.10937.0625.1875.0625.29687 0 .14063-.0625.32813-.15625.51563-.09375.20312-.20312.26562-.26562.26562C.96875 1.03125.90625 1 .79687.89063.73438.84375.6875.8125.60938.8125.5.8125.34376.98438.34376 1.15625c0 .14063.17188.3125.42188.3125S1.32813 1.39063 1.625.5C2-.57812 2.5625-2.0625 2.75-2.48437c.10938-.25.14063-.29688.45313-.3125v-.17188H2.04688v.17188l.3125.03125c.09375.01562.10937.07812.07812.20312-.09375.35938-.40625 1.28125-.67187 2H1.75c-.26562-.73437-.51562-1.375-.75-2.01562-.03125-.10938-.04687-.1875.09375-.20313l.26563-.01562v-.17188H-.03126Zm0 0"/><path id="c" d="M.15625 1.21875v.17188h1.5625v-.17188c-.5-.03125-.54687-.04687-.54687-.35937V-.0625c.125.0625.42187.14063.70312.14063.8125 0 1.51563-.375 1.51563-1.64063 0-.42187-.07813-1.48437-1.1875-1.48437-.4375 0-.79688.29687-1.03125.45312l-.07813-.45312-.90625.15625V-2.75l.21875.04688c.15625.01562.20313.04687.20313.26562V.85938c0 .3125-.03126.32812-.45313.35937M1.17188-.95312v-1c0-.15626.03124-.23438.09374-.34375.14063-.26563.39063-.42188.70313-.42188.25 0 .79688.15625.79688 1.20313 0 .89062-.28125 1.375-.89063 1.375-.3125 0-.5625-.15625-.65625-.4375q-.04687-.16407-.04687-.375m0 0"/><path id="d" d="M.29688-1.48437C.29688-.5.78125.07813 1.75.07813c.98438 0 1.45313-.57813 1.45313-1.5625 0-.98438-.46875-1.5625-1.45313-1.5625-.96875 0-1.45312.57812-1.45312 1.5625m.625 0c0-.84375.28124-1.34375.82812-1.34375.5625 0 .82813.5.82813 1.34375S2.3125-.14062 1.75-.14062c-.54687 0-.82812-.5-.82812-1.34375m0 0"/><path id="e" d="M.1875-2.73437H.625V-.625c0 .625.45313.70313.67188.70313.3125 0 .59375-.15625.78125-.26563l-.04688-.14062C1.875-.26562 1.75-.25 1.59375-.25c-.20312 0-.40625-.14062-.40625-.60937v-1.875h.78125v-.23438H1.1875v-.76562h-.17187l-.35938.76562H.1875Zm0 0"/><path id="f" d="m1.21875-3.40625.09375.125.90625-.51562C2.40625-3.89062 2.5625-4 2.5625-4.125s-.14062-.26562-.23437-.26562c-.10938 0-.20313.0625-.39063.25Zm-.92187 1.9375C.29688-.5.70313.07813 1.70313.07813c.67187 0 1.01562-.375 1.17187-.85938L2.70313-.875c-.17188.35938-.40625.64063-.89063.64063-.75 0-.89062-.73438-.89062-1.35938h1.75c.14062 0 .25-.03125.25-.23437 0-.35938-.125-1.21875-1.23438-1.21875-.95312 0-1.39062.67187-1.39062 1.57812m.64062-.35937c0-.25.09375-1 .71875-1 .5625 0 .625.5625.625.8125 0 .10937-.03125.1875-.20312.1875Zm0 0"/><path id="g" d="M.1875 0h1.48438v-.17187c-.4375-.03126-.45313-.04688-.45313-.35938v-1.42187c0-.15626 0-.23438.0625-.32813.125-.23437.39063-.4375.71875-.4375.40625 0 .64063.23438.64063.75v1.4375c0 .3125-.01563.32813-.45313.35938V0h1.48438v-.17187c-.4375-.03126-.46875-.04688-.46875-.35938v-1.54687c0-.60938-.32813-.96875-.89063-.96875-.45312 0-.71875.21875-1.09375.46875L1.125-3.04687l-.90625.15625V-2.75l.23438.04688c.15625.01562.20312.04687.20312.26562v1.90625c0 .3125-.03125.32813-.46875.35938Zm0 0"/><path id="h" d="m.15625-2.75.23438.04688c.15625.01562.1875.04687.1875.26562v1.59375c0 .70313.42187.92188.875.92188.51562 0 .92187-.35938 1.10937-.4375L2.60938 0h.98437v-.17187C3.17188-.20313 3.125-.21875 3.125-.53125V-3l-.04687-.04687-.9375.15625V-2.75l.23437.04688c.14063.01562.1875.04687.1875.26562v1.35938c0 .17187-.01562.3125-.04687.375-.14063.26562-.4375.45312-.75.45312-.35938 0-.60938-.23437-.60938-.70312V-3l-.04687-.04687-.95313.15625Zm0 0"/><path id="i" d="m.28125-1.01562.0625.79687c.21875.1875.59375.29688.95313.29688.71875 0 1.125-.39063 1.125-.90625 0-.53125-.32813-.76563-.95313-.96875C1.21875-1.875.82813-2 .82813-2.34375c0-.3125.23437-.48437.54687-.48437.42188 0 .625.32812.67188.70312h.17187v-.71875c-.1875-.14062-.5-.20312-.76562-.20312-.67188 0-1.10938.3125-1.10938.89062 0 .5.40625.71875.92188.875.26562.09375.64062.21875.64062.64063 0 .3125-.23437.5-.5625.5-.48437 0-.76562-.35938-.89062-.875Zm0 0"/><path id="j" d="M.29688-1.46875C.29688-.5.70313.07813 1.70313.07813c.67187 0 1.01562-.375 1.17187-.85938L2.70313-.875c-.17188.35938-.40625.64063-.89063.64063-.75 0-.89062-.73438-.89062-1.35938h1.75c.14062 0 .25-.03125.25-.23437 0-.35938-.125-1.21875-1.23438-1.21875-.95312 0-1.39062.67187-1.39062 1.57812m.64062-.35937c0-.25.09375-1 .71875-1 .5625 0 .625.5625.625.8125 0 .10937-.03125.1875-.20312.1875Zm0 0"/><clipPath id="k"><path d="M.03125 7h60.51563v36.60547H.03124Zm0 0"/></clipPath><clipPath id="l"><path d="M.03125 7h60.51563v15H.03124Zm0 0"/></clipPath><clipPath id="m"><path d="M11 27h22v16.60547H11Zm0 0"/></clipPath></defs><use xlink:href="#a" x="13.64782" y="8.68096" fill="#007f7f"/><g fill="#007f7f"><use xlink:href="#b" x="18.33458" y="8.68096"/><use xlink:href="#c" x="21.39678" y="8.68096"/><use xlink:href="#d" x="25.07786" y="8.68096"/><use xlink:href="#e" x="28.57198" y="8.68096"/><use xlink:href="#f" x="30.65427" y="8.68096"/><use xlink:href="#g" x="33.76804" y="8.68096"/><use xlink:href="#h" x="37.51358" y="8.68096"/><use xlink:href="#i" x="41.18177" y="8.68096"/><use xlink:href="#j" x="43.81848" y="8.68096"/></g><g clip-path="url(#k)"><path fill="none" stroke="#000" stroke-miterlimit="10" stroke-width=".39671" d="m.23046 13.35155 21.04688 30.0586 39.07423-27.36328"/></g><g clip-path="url(#l)"><path fill="none" stroke="#007f7f" stroke-miterlimit="10" stroke-width=".39671" d="M60.35157 16.04687.23047 13.35155"/></g><g clip-path="url(#m)"><path fill="none" stroke="red" stroke-miterlimit="10" stroke-width=".39671" d="m27.28516 39.19922-4.20703-6.00782-6.01173 4.20704"/></g></svg>