<svg xmlns="http://www.w3.org/2000/svg" xmlns:xlink="http://www.w3.org/1999/xlink" width="118.33pt" height="147.799pt" viewBox="0 0 118.33 147.799"><defs><path id="a" d="M-.23437 0H2.5l.07813-.34375-.67188-.0625C1.75-.42187 1.6875-.5 1.6875-.625c0-.0625.03125-.14062.0625-.23437.40625-.78125.78125-1.5625 1.23438-2.375h2.71875L6-.73437s-.0625.29687-.32812.32812l-.64063.0625L4.96875 0H7.9375l.07813-.34375-.45313-.04687c-.375-.03125-.4375-.20313-.5-.70313L6.1875-8.375h-.875L3.28125-4.79687c-.60937 1.07812-1.625 2.875-2.07812 3.59375C.82813-.5625.625-.4375.25-.40625l-.40625.0625Zm3.46875-3.6875L5.20313-7.25l.4375 3.5625Zm0 0"/><path id="b" d="M0 0h3.67188C6.59375 0 7.1875-1.5 7.1875-2.51562c0-1.26563-.9375-1.82813-1.82812-1.98438l.01562-.03125c1.60938-.1875 2.28125-1.10937 2.28125-2.01562 0-.98438-.57812-1.82813-2.79687-1.82813h-3.0625l-.07813.35938.71875.0625c.20313.01562.29688.09375.29688.29687 0 .07813-.03125.17188-.0625.29688L1.25-1c-.09375.39063-.20312.53125-.5.57813l-.6875.07812Zm2.42188-.92187c0-.09376.01562-.1875.03125-.28126l.70312-3.09374H3.625c1.20313 0 2.26563.34375 2.26563 1.71875 0 1.07812-.65625 2.15625-2.28125 2.15625-.95313 0-1.1875-.20313-1.1875-.5M3.25-4.71875l.625-2.8125c.09375-.35937.15625-.42187.96875-.42187 1.01563 0 1.57813.51562 1.57813 1.35937 0 1.26563-1.04688 1.875-2.39063 1.875Zm0 0"/><path id="c" d="M.625-3.32812C.625-1.71875 1.42188.1875 4.42188.1875c.85937 0 1.6875-.125 2.45312-.51562L7.46875-2.25h-.35937c-.67188 1.20313-1.28125 2-2.76563 2-1.40625 0-2.40625-.89062-2.40625-2.76562 0-1.09375.28125-2.4375.85938-3.39063.60937-1.01562 1.5625-1.73437 2.85937-1.73437 1.53125 0 1.96875.71875 1.96875 2.03125H8l.4375-1.8125c-.70312-.4375-1.82812-.64063-2.6875-.64063-2.28125 0-3.59375 1.0625-4.29687 2.20313C.78125-5.28125.625-4.15625.625-3.32812m0 0"/><path id="g" d="M-.125 0h1.39063l.04687-.20312-.34375-.01563C.89063-.23437.85938-.26562.85938-.32812c0-.03125.01562-.07813.03124-.125.1875-.35938.35938-.71875.57813-1.10938h1.29688l.125 1.17188s-.03125.15625-.15625.17187l-.3125.01563L2.375 0H4l.04688-.20312-.23438-.01563c-.1875-.01562-.20312-.17187-.23437-.375L3.17188-4.1875h-.5625L1.57813-2.375C1.25-1.78125.75-.89062.54688-.5625c-.15626.26563-.25.3125-.4375.34375l-.1875.01563Zm1.73438-1.8125.9375-1.70312.1875 1.70312Zm0 0"/><path id="h" d="M.0625 0h1.90625c1.35938 0 1.82813-.5625 1.82813-1.21875 0-.64062-.48438-.9375-.92188-1.01562.79688-.09375 1.15625-.54688 1.15625-1.01563 0-.51562-.29687-.9375-1.46875-.9375H.95313l-.04688.20313.34375.03125q.14063 0 .14063.14062c0 .04688-.01563.10938-.03126.17188L.67188-.54687C.625-.32813.5625-.25.40626-.23437l-.3125.03124Zm1.34375-.48437c0-.04688.01563-.09375.01563-.14063l.32812-1.5H2c.5625 0 .98438.21875.98438.8125C2.98438-.75 2.65625-.25 1.89063-.25c-.39063 0-.48438-.07812-.48438-.23437m.40625-1.875.3125-1.375c.03125-.17188.0625-.21875.40625-.21875.45313 0 .73438.21875.73438.65625 0 .59375-.45313.9375-1.10938.9375Zm0 0"/><path id="i" d="M.1875-.07812.25 0h2.625l.23438-.92187-.20313-.03126c-.14062.32813-.25.375-.5.375H.875C.96875-.84374 1.25-1.25 1.85938-1.625c.64062-.40625 1.0625-.6875 1.0625-1.34375 0-.84375-.57813-1.14062-1.28125-1.14062-.79688 0-1.3125.45312-1.3125.85937 0 .23438.26562.34375.40625.34375.125 0 .1875-.0625.21874-.20312.09376-.4375.3125-.76563.65626-.76563.39062 0 .53125.34375.53125.78125 0 .53125-.21875.9375-.8125 1.45313C.53125-.96875.25-.51562.1875-.07812m0 0"/><path id="j" d="M.40625-1.65625c0 .6875.29688 1.75 1.92188 1.75.42187 0 .875-.0625 1.25-.25l.32812-1.0625H3.6875c-.35937.625-.67187 1.0625-1.39062 1.0625-.625 0-1.07813-.42187-1.07813-1.3125 0-.54687.14063-1.23437.4375-1.73437C1.9375-3.6875 2.375-4.03125 3-4.03125c.73438 0 .9375.4375.9375 1.04688h.20313l.21875-.98438c-.34375-.21875-.95313-.3125-1.32813-.3125-1.15625 0-1.82812.5-2.21875 1.09375-.32812.51563-.40625 1.10938-.40625 1.53125m0 0"/><clipPath id="d"><path d="M29 88h60v59.28125H29Zm0 0"/></clipPath><clipPath id="e"><path d="M29 .3164h88.66406V89H29Zm0 0"/></clipPath><clipPath id="f"><path d="M23 .3164h94.66406V95H23Zm0 0"/></clipPath></defs><use xlink:href="#a" x="16.65569" y="101.37791"/><use xlink:href="#b" x="92.70211" y="101.37791"/><use xlink:href="#c" x="16.79689" y="54.40687"/><path fill="none" stroke="red" stroke-miterlimit="10" stroke-width=".39626" d="M36.83985 88.45703V81.1289h-7.32813"/><path fill="none" stroke="#000" stroke-miterlimit="10" stroke-width=".39626" d="M29.51172 59.13671v29.32032h58.64064Zm0 0"/><g clip-path="url(#d)"><path fill="#cce5e5" stroke="#000" stroke-miterlimit="10" stroke-width=".39626" d="M29.51172 88.45703v58.62892h58.62892V88.45703Zm0 0"/></g><g clip-path="url(#e)"><path fill="#ffe5cc" d="m88.15234 88.45703 29.3125-58.6289L58.83594.51171l-29.32422 58.625Zm0 0"/></g><g clip-path="url(#f)"><path fill="none" stroke="#000" stroke-miterlimit="10" stroke-width=".39626" d="m88.15236 88.45703 29.3125-58.62892L58.83595.5117l-29.32423 58.625Zm0 0"/></g><path fill="#fbcce8" stroke="#000" stroke-miterlimit="10" stroke-width=".39626" d="M29.51172 59.13671v29.31641H.19922v-29.3164Zm0 0"/><use xlink:href="#g" x="52.62503" y="121.12113" fill="#007f7f"/><use xlink:href="#h" x="57.02948" y="121.12113" fill="#007f7f"/><use xlink:href="#i" x="61.3364" y="118.5461" fill="#007f7f"/><use xlink:href="#h" x="67.16769" y="47.77741" fill="#ff7f00"/><use xlink:href="#j" x="71.46911" y="47.77741" fill="#ff7f00"/><use xlink:href="#i" x="76.12467" y="45.20109" fill="#ff7f00"/><use xlink:href="#j" x="8.46805" y="77.09441" fill="#ec008c"/><use xlink:href="#g" x="13.12364" y="77.09441" fill="#ec008c"/><use xlink:href="#i" x="17.53362" y="74.5181" fill="#ec008c"/></svg>