<svg xmlns="http://www.w3.org/2000/svg" xmlns:xlink="http://www.w3.org/1999/xlink" width="63.875pt" height="36.697pt" viewBox="0 0 63.875 36.697"><defs><path id="a" d="M.21875 0h1.67188v-.17187C1.375-.21875 1.35938-.21875 1.35938-.5625v-1.5h2.10937v1.5c0 .34375-.01562.34375-.54687.39063V0h1.6875v-.17187C4.07813-.21875 4.0625-.21875 4.0625-.5625v-3.04687c0-.34375.01563-.35938.54688-.39063v-.17187h-1.6875V-4c.53125.03125.54687.04688.54687.39063v1.32812H1.35938v-1.32812c0-.34375.01562-.35938.53125-.39063v-.17187H.21874V-4C.75-3.96875.75-3.95312.75-3.60937V-.5625c0 .34375 0 .34375-.53125.39063Zm0 0"/><path id="b" d="M-.03125-2.78125c.28125.01563.35938.04688.46875.3125.29688.73438.79688 2 .9375 2.42188.03125.10937.04688.1875.04688.29687 0 .14063-.04688.32813-.14063.51563-.09375.20312-.20312.25-.26562.25S.90625 1 .79687.89063C.73438.84375.6875.8125.60938.8125.5.8125.34376.96875.34376 1.15625c0 .14063.17188.29688.42188.29688S1.3125 1.39063 1.625.5C2-.57812 2.5625-2.04687 2.73438-2.46875c.10937-.25.15625-.29687.45312-.3125v-.17187H2.03125v.17187l.3125.03125c.10938.01563.10938.07813.07813.20313-.07813.35937-.40625 1.26562-.65625 2H1.75C1.46875-1.28125 1.23438-1.9375 1-2.5625c-.03125-.10937-.04687-.1875.09375-.20312l.26563-.01563v-.17187H-.03126Zm0 0"/><path id="c" d="M.15625 1.21875v.17188h1.5625v-.17188c-.51562-.03125-.54687-.04687-.54687-.35937V-.0625c.125.0625.42187.14063.6875.14063.8125 0 1.51562-.375 1.51562-1.625 0-.4375-.07812-1.48438-1.17187-1.48438-.45313 0-.79688.29688-1.03125.45313l-.07813-.45313L.1875-2.875v.14063l.21875.03125c.15625.03125.20313.0625.20313.28125V.85938c0 .3125-.03126.32812-.45313.35937M1.17188-.95312v-.98438c0-.15625.03124-.23437.07812-.34375.14063-.28125.39063-.42187.71875-.42187.23438 0 .78125.15625.78125 1.1875 0 .89062-.28125 1.375-.89062 1.375-.3125 0-.54688-.15625-.64063-.4375-.04687-.10938-.04687-.23438-.04687-.375m0 0"/><path id="d" d="M.29688-1.48437C.29688-.5.78125.07813 1.75.07813S3.1875-.5 3.1875-1.48437c0-.96875-.46875-1.54688-1.4375-1.54688S.29688-2.45312.29688-1.48437m.625 0c0-.82813.26562-1.32813.82812-1.32813.54688 0 .8125.5.8125 1.32813 0 .84375-.26562 1.34375-.8125 1.34375-.5625 0-.82812-.5-.82812-1.34375m0 0"/><path id="e" d="M.1875-2.71875H.625v2.10938c0 .60937.45313.6875.67188.6875.29687 0 .59375-.15625.76562-.26563l-.04687-.14062C1.875-.26562 1.73438-.25 1.59375-.25c-.21875 0-.40625-.14062-.40625-.59375v-1.875h.78125v-.23437H1.1875v-.76563h-.17187l-.35938.76563H.1875Zm0 0"/><path id="f" d="m1.21875-3.39062.07813.125.92187-.51563c.17188-.09375.34375-.1875.34375-.32812 0-.10938-.15625-.25-.25-.25s-.20312.0625-.375.25Zm-.92187 1.9375C.29688-.5.70313.07813 1.6875.07813c.67188 0 1.01563-.375 1.17188-.85938L2.6875-.875c-.17187.35938-.40625.64063-.875.64063-.75 0-.90625-.71875-.89062-1.35938h1.75c.125 0 .23437-.03125.23437-.21875 0-.35937-.125-1.21875-1.21875-1.21875-.95312 0-1.39062.67188-1.39062 1.57813M.9375-1.8125c0-.25.07813-1 .71875-1 .54688 0 .60938.5625.60938.79688 0 .125-.03125.20312-.20313.20312Zm0 0"/><path id="g" d="M.1875 0h1.46875v-.17187c-.42187-.03126-.4375-.04688-.4375-.35938V-1.9375c0-.15625 0-.23437.04688-.32812.14062-.23438.40625-.4375.71875-.4375.42187 0 .64062.21875.64062.75v1.42187c0 .3125-.01562.32813-.45312.35938V0h1.46875v-.17187c-.42188-.03126-.45313-.04688-.45313-.35938V-2.0625c0-.60937-.32812-.96875-.875-.96875-.45312 0-.73437.21875-1.10937.46875L1.125-3.03125.21875-2.875v.14063l.23438.03125c.15625.03125.20312.0625.20312.28125v1.89062c0 .3125-.03125.32813-.46875.35938Zm0 0"/><path id="h" d="m.15625-2.73437.23438.03125c.15625.03125.1875.0625.1875.28125v1.59375c0 .6875.40625.90625.85937.90625.51563 0 .9375-.35938 1.10938-.4375L2.59375 0h.98438v-.17187c-.42188-.03126-.46875-.04688-.46875-.35938V-3l-.04688-.03125-.9375.15625v.14063l.23438.03125c.15625.03125.1875.0625.1875.28125v1.35937c0 .15625-.01563.29688-.04688.35938C2.35938-.4375 2.07813-.25 1.76563-.25c-.35938 0-.60938-.21875-.60938-.6875V-3l-.04687-.03125-.95313.15625Zm0 0"/><path id="i" d="m.28125-1.01562.0625.79687c.21875.1875.59375.29688.9375.29688.71875 0 1.14063-.39063 1.14063-.90625 0-.53125-.32813-.76563-.95313-.95313-.25-.07812-.64062-.20312-.64062-.54687 0-.3125.23437-.48438.53125-.48438.4375 0 .64062.32813.6875.6875h.17187v-.70312c-.20312-.14063-.51562-.20313-.78125-.20313-.65625 0-1.09375.3125-1.09375.875 0 .5.40625.73438.90625.89063.26563.07812.65625.21874.65625.625 0 .3125-.25.5-.5625.5-.48437 0-.76562-.35938-.89062-.875Zm0 0"/><path id="j" d="M.29688-1.45312C.29688-.5.70313.07813 1.6875.07813c.67188 0 1.01563-.375 1.17188-.85938L2.6875-.875c-.17187.35938-.40625.64063-.875.64063-.75 0-.90625-.71875-.89062-1.35938h1.75c.125 0 .23437-.03125.23437-.21875 0-.35937-.125-1.21875-1.21875-1.21875-.95312 0-1.39062.67188-1.39062 1.57813M.9375-1.8125c0-.25.07813-1 .71875-1 .54688 0 .60938.5625.60938.79688 0 .125-.03125.20312-.20313.20312Zm0 0"/><clipPath id="k"><path d="M.19922 0H49v36.39453H.19922Zm0 0"/></clipPath><clipPath id="l"><path d="M.19922 0H49v36H.19922Zm0 0"/></clipPath><clipPath id="m"><path d="M.19922 22H20v14.39453H.19922Zm0 0"/></clipPath></defs><use xlink:href="#a" x="26.11061" y="9.02746" fill="#007f7f"/><g fill="#007f7f"><use xlink:href="#b" x="30.7799" y="9.02746"/><use xlink:href="#c" x="33.83068" y="9.02746"/><use xlink:href="#d" x="37.49803" y="9.02746"/><use xlink:href="#e" x="40.97913" y="9.02746"/><use xlink:href="#f" x="43.05365" y="9.02746"/><use xlink:href="#g" x="46.15581" y="9.02746"/><use xlink:href="#h" x="49.88739" y="9.02746"/><use xlink:href="#i" x="53.5419" y="9.02746"/><use xlink:href="#j" x="56.16878" y="9.02746"/></g><g clip-path="url(#k)"><path fill="none" stroke="#000" stroke-miterlimit="10" stroke-width=".39524" d="m.39844.19921 6.34765 36 36.00001-6.34765"/></g><g clip-path="url(#l)"><path fill="none" stroke="#007f7f" stroke-miterlimit="10" stroke-width=".39524" d="M42.7461 29.85156.39844.19921"/></g><g clip-path="url(#m)"><path fill="none" stroke="red" stroke-miterlimit="10" stroke-width=".39524" d="m13.94531 34.92969-1.26953-7.19922L5.47656 29"/></g></svg>