<svg xmlns="http://www.w3.org/2000/svg" xmlns:xlink="http://www.w3.org/1999/xlink" width="94.833pt" height="80.521pt" viewBox="0 0 94.833 80.521"><defs><path id="a" d="M.39063-3.26562C.39063-1.28125 1.53125.1875 3.9375.1875c2.14063 0 3.1875-1.10937 3.85938-2.29687.65625-1.1875.76562-2.42188.76562-2.90625 0-2.48438-1.5-3.54688-3.5-3.54688-1.9375 0-3.125 1.0625-3.84375 2.23438C.54688-5.21875.39063-4.0625.39063-3.26562m1.26562.48437c0-1.01562.20313-2.15625.75-3.32812.5625-1.14063 1.42188-2.03125 2.70313-2.03125 1.32812 0 2.17187.78125 2.17187 2.5 0 .70312-.0625 1.6875-.5625 2.96875C6.21875-1.35937 5.39063-.25 3.82813-.25c-1.3125 0-2.17188-.84375-2.17188-2.53125m0 0"/><path id="b" d="M0 0h2.85938l.0625-.34375-.46875-.04687c-.375-.01563-.5625-.10938-.5625-.375 0-.64063.125-1 .26562-1.64063L3.25-7.34375h.03125L4.73438-.14062h.34375l4.70312-7.20313h.03125L8.32813-1c-.09375.40625-.21875.54688-.51563.57813l-.65625.07812L7.07813 0H10.375l.0625-.34375-.70312-.07812c-.21875-.01563-.3125-.125-.3125-.3125 0-.07813.01562-.17188.04687-.26563l1.45313-6.35937c.09375-.42188.1875-.57813.5-.60938l.67187-.04687.09375-.35938h-2.375c-.64062 1.10938-1.35937 2.1875-2.09375 3.3125L5.57813-1.79687h-.04688l-.67187-3.35938c-.25-1.09375-.5-2.125-.70313-3.21875H1.8125l-.07812.35938.71875.0625c.20312.01562.29687.10937.29687.3125 0 .07812 0 .17187-.03125.28125L1.57813-2.40625c-.15626.64063-.29688 1.10938-.4375 1.5C1-.51562.78125-.42187.4375-.39062l-.375.04687Zm0 0"/><path id="c" d="M0 0h2.85938l.0625-.34375-.46875-.04687c-.375-.01563-.5625-.09375-.5625-.35938 0-.64062.125-1.01562.26562-1.65625l1.125-4.95312h.04688C4.45313-4.90625 5.57813-2.45312 6.6875 0h.78125L8.8125-5.96875c.15625-.64062.29688-1.09375.4375-1.5.14063-.39062.35938-.46875.71875-.51562l.375-.03125.0625-.35938H7.54688l-.0625.35938.46875.04687c.35937.03125.5625.15625.5625.42188 0 .4375-.125.9375-.26563 1.57812l-.98437 4.39063h-.0625C6.17188-3.84375 5.14063-6.10937 4.125-8.375H1.8125l-.07812.35938.71875.0625c.20312.01562.29687.10937.29687.3125 0 .07812 0 .17187-.03125.28125L1.57813-2.40625c-.15626.64063-.29688 1.10938-.4375 1.5C1-.51562.79688-.42187.4375-.39062l-.375.04687Zm0 0"/></defs><path fill="none" stroke="#000" stroke-miterlimit="10" stroke-width=".39614" d="m18.52734 53.29297 54.12498 9.54296-47.7617-45.62888Zm0 0"/><use xlink:href="#a" x="4.48887" y="66.40299"/><use xlink:href="#b" x="77.20032" y="75.75336"/><use xlink:href="#c" x="9.1392" y="12.65969"/></svg>