<?xml version="1.0" encoding="UTF-8"?>
<svg xmlns="http://www.w3.org/2000/svg" xmlns:xlink="http://www.w3.org/1999/xlink" width="1239pt" height="529pt" viewBox="0 0 1239 529" version="1.2">
<g id="surface1">
<path style="fill-rule:nonzero;fill:rgb(83.898926%,61.199951%,40.79895%);fill-opacity:1;stroke-width:0.09375;stroke-linecap:butt;stroke-linejoin:miter;stroke:rgb(83.898926%,61.199951%,40.79895%);stroke-opacity:1;stroke-miterlimit:10;" d="M 23.429688 529 L 30.75 529 C 30.511719 522.441406 29.941406 515.769531 31.039062 509.269531 C 31.359375 508.988281 31.988281 508.429688 32.300781 508.148438 C 36.761719 507 41.46875 507.738281 45.988281 506.871094 C 52.621094 505.621094 59.378906 505.5 66.039062 504.410156 C 75.289062 502.910156 84.710938 502.941406 93.980469 501.53125 C 106.570312 499.589844 119.339844 499.171875 131.929688 497.230469 C 142.140625 495.71875 152.429688 494.789062 162.71875 494.058594 C 184.769531 490.988281 207.011719 489.558594 229.050781 486.488281 C 245.058594 485.050781 260.929688 482.191406 276.988281 481.191406 C 289.011719 479.859375 301 478.160156 313.078125 477.351562 C 325.820312 475.589844 338.589844 473.960938 351.421875 473.070312 C 370.199219 470.308594 389.160156 469.230469 407.949219 466.539062 C 417.898438 465.121094 427.980469 464.941406 437.910156 463.359375 C 447.558594 461.898438 457.28125 460.988281 467 460.191406 C 479.320312 458.761719 491.640625 457.261719 504 456.238281 C 522.929688 453.460938 542.039062 452.160156 560.96875 449.359375 C 567.621094 448.371094 574.359375 448.320312 581.03125 447.53125 C 593.371094 446.410156 605.589844 444.121094 617.988281 443.539062 C 623.898438 443.230469 629.648438 441.589844 635.578125 441.390625 C 635.691406 450.269531 635.578125 459.171875 634.460938 467.988281 C 633.371094 483.050781 631.449219 498.03125 629.738281 513.03125 C 629.179688 518.328125 629.261719 523.671875 629.25 529 L 636.449219 529 C 636.039062 521.808594 637.820312 514.769531 638.289062 507.628906 C 638.960938 493.488281 641.21875 479.488281 642.761719 465.441406 C 650.410156 464.011719 658.238281 464.859375 665.929688 463.691406 C 684.980469 463.109375 703.921875 460.519531 722.980469 460.429688 C 741.988281 459.21875 760.980469 457.761719 779.980469 456.621094 C 792.710938 456.628906 805.320312 454.441406 818.050781 454.550781 C 825.421875 454.628906 832.640625 452.851562 840 452.691406 C 853.691406 452.511719 867.351562 451.351562 881.019531 450.53125 C 892.070312 450.878906 902.949219 448.210938 914.011719 448.570312 C 922.03125 448.808594 929.980469 447.519531 938 447.480469 C 943.671875 447.371094 949.300781 446.398438 954.988281 446.449219 C 964.019531 446.410156 972.929688 444.519531 981.960938 444.5 C 989.878906 444.53125 997.738281 443.300781 1005.671875 443.550781 C 1017.078125 442.890625 1028.460938 441.78125 1039.878906 441.28125 C 1040.878906 449.160156 1039.21875 457.03125 1039.21875 464.921875 C 1037.238281 478.449219 1036.460938 492.089844 1035.699219 505.730469 C 1035.488281 513.519531 1032.460938 521.199219 1034.410156 529 L 1039.289062 529 C 1040.800781 528.238281 1041.671875 526.878906 1041.511719 525.128906 C 1042.960938 501.269531 1045.511719 477.488281 1046.96875 453.628906 C 1047.410156 449.378906 1047.550781 445.039062 1048.839844 440.929688 C 1050.03125 440.070312 1051.671875 440.238281 1053.078125 439.96875 C 1070.371094 439.058594 1087.738281 440.28125 1104.988281 438.640625 C 1111.121094 438.359375 1117.269531 438.789062 1123.390625 438.148438 C 1128.941406 437.550781 1134.519531 437.53125 1140.101562 437.710938 C 1137.878906 462.339844 1136.699219 487.050781 1133.609375 511.601562 C 1133.101562 517.378906 1133.300781 523.199219 1133.230469 529 L 1139.289062 529 C 1142.390625 511.78125 1142.441406 494.238281 1144.53125 476.910156 C 1145.929688 465.628906 1146.679688 454.289062 1147.449219 442.960938 C 1147.511719 440.75 1148 437.480469 1150.898438 437.558594 C 1157.921875 437.398438 1164.929688 436.960938 1171.949219 436.449219 C 1185.300781 436.441406 1198.660156 436.5 1212.019531 436.421875 C 1221.011719 436.570312 1230.039062 435.941406 1239 437.03125 L 1239 428.289062 C 1227.339844 428.941406 1215.640625 428.371094 1203.96875 428.550781 C 1194.761719 428.351562 1185.5 429.148438 1176.351562 427.851562 C 1176 420.21875 1176.929688 412.628906 1177.109375 405.019531 C 1176.171875 396.011719 1177.71875 387.011719 1177.410156 377.980469 C 1177.660156 368.320312 1177.28125 358.640625 1178.140625 349 C 1178.820312 340.679688 1178.199219 332.320312 1178.949219 324 C 1179.75 315.671875 1179.320312 307.300781 1179.621094 298.949219 C 1181.070312 279.679688 1180.019531 260.320312 1180.820312 241.019531 C 1182.300781 227.691406 1180.699219 214.238281 1182.109375 200.898438 C 1183.03125 190.058594 1181.960938 179.148438 1182.929688 168.300781 C 1184.191406 156.921875 1182.878906 145.421875 1184.171875 134.039062 C 1184.980469 120.070312 1183.96875 106.058594 1184.921875 92.089844 C 1185.738281 82.429688 1185.25 72.730469 1185.550781 63.050781 C 1185.070312 42 1188.511719 21.058594 1187.269531 0 L 1179.328125 0 C 1179.570312 2.890625 1180.039062 5.960938 1178.980469 8.730469 C 1177.308594 10.738281 1174.398438 10.800781 1172.03125 11.199219 C 1159.269531 12.300781 1146.699219 14.929688 1133.949219 16.078125 C 1125.449219 16.789062 1117.199219 19.199219 1108.710938 19.929688 C 1095.898438 21.320312 1083.21875 23.691406 1070.398438 24.878906 C 1056.929688 27.558594 1043.199219 28.449219 1029.71875 31.011719 C 1023.179688 32.179688 1016.570312 32.890625 1009.96875 33.511719 C 1001.230469 34.160156 992.78125 36.769531 984.03125 37.238281 C 949.289062 41.621094 914.710938 47.058594 880.039062 51.839844 C 872.410156 53.359375 864.621094 53.71875 856.929688 54.820312 C 840.761719 57.488281 824.449219 59.179688 808.28125 61.878906 C 795.171875 63.289062 782.238281 66.308594 769.03125 66.789062 C 757.390625 68.25 745.96875 71.308594 734.21875 71.878906 C 718.511719 74.238281 702.851562 77.011719 687.058594 78.820312 C 676.601562 79.921875 666.21875 81.628906 655.851562 83.371094 C 654.378906 83.871094 652.878906 82.589844 652.730469 81.160156 C 651.878906 75.800781 653.179688 70.421875 653.378906 65.058594 C 653.75 55.03125 653.230469 44.980469 653.71875 34.960938 C 654.898438 23.351562 654.410156 11.648438 654.460938 0 L 646.359375 0 C 646.839844 4.988281 646.578125 10.011719 646.539062 15.011719 C 646.421875 21.988281 646.78125 29 646.109375 35.960938 C 644.621094 51.828125 646.710938 67.878906 644.511719 83.679688 C 608 83.71875 571.5 83.800781 535 83.738281 C 528 84.101562 521.019531 84.898438 514.011719 84.550781 C 507.648438 84.25 501.328125 85.058594 495 85.390625 C 443.339844 85.410156 391.671875 85.691406 340.011719 85.660156 C 333.019531 86.359375 326.03125 86.019531 319.039062 85.71875 C 307.390625 86.808594 295.679688 86.378906 284 86.441406 C 265.660156 86.390625 247.320312 86.449219 228.980469 86.769531 C 222.289062 86.519531 215.609375 86.828125 208.949219 87.328125 C 154.808594 87.5 100.671875 87.519531 46.53125 87.511719 C 45.519531 77.640625 47.710938 67.871094 47.308594 58 C 47.03125 49.980469 48.539062 42.019531 48.289062 33.988281 C 48.058594 24.328125 49.789062 14.738281 49.621094 5.078125 C 49.53125 3.339844 48.988281 1.671875 48.480469 0 L 41.308594 0 C 41.679688 7.589844 40.421875 15.140625 40.460938 22.730469 C 38.78125 39.398438 40.460938 56.199219 38.761719 72.859375 C 38.148438 79.898438 38.980469 86.980469 38.070312 94 C 36.769531 104.289062 38.019531 114.679688 36.988281 124.988281 C 36.070312 133.640625 36.898438 142.351562 36.039062 151 C 35.371094 157.300781 35.800781 163.660156 35.109375 169.960938 C 33.78125 181.261719 35.300781 192.691406 33.96875 204 C 32.839844 214.300781 33.980469 224.691406 33.058594 235 C 32.289062 242.980469 32.601562 251.011719 32.460938 259.011719 C 32.441406 265.351562 31.339844 271.640625 31.46875 277.980469 C 31.609375 285.011719 30.351562 291.960938 30.519531 298.980469 C 30.589844 304 30.390625 309.03125 29.878906 314.03125 C 29.199219 320.679688 29.730469 327.390625 29.070312 334.050781 C 27.890625 346.699219 29.179688 359.449219 27.890625 372.089844 C 27.078125 380.320312 27.96875 388.621094 26.980469 396.839844 C 25.46875 411.839844 27.800781 427.050781 25 441.941406 C 24.019531 449.988281 25.019531 458.109375 24.289062 466.171875 C 23.398438 477.089844 22.351562 488.019531 22.71875 498.988281 C 23.011719 508.980469 21.660156 519.109375 23.429688 529 M 30.640625 494.019531 C 31.199219 489.378906 31.648438 484.71875 31.410156 480.039062 C 31.078125 473.988281 32.621094 468.050781 32.480469 462.011719 C 32.539062 455.808594 32.28125 449.601562 32.808594 443.421875 C 34.511719 430.351562 32.539062 417.101562 34.351562 404.03125 C 34.359375 393.328125 35.769531 382.699219 35.449219 371.988281 C 36.921875 361.371094 36.21875 350.648438 36.578125 339.96875 C 38.230469 327.378906 37.039062 314.648438 37.859375 302.011719 C 38.589844 295.871094 38.148438 289.648438 39.148438 283.53125 C 39.878906 273.351562 39.070312 263.121094 39.738281 252.929688 C 40.371094 248.308594 40.308594 243.628906 40.601562 238.980469 C 42.308594 226.398438 40.761719 213.660156 41.839844 201.039062 C 42.859375 191.710938 42.03125 182.300781 42.570312 172.949219 C 42.878906 168.28125 43.941406 163.699219 44.179688 159.019531 C 44.570312 151.011719 44 142.980469 44.539062 134.980469 C 46.078125 123.371094 44.980469 111.621094 45.558594 99.949219 C 45.53125 97.929688 46.769531 96.261719 47.671875 94.539062 C 116.449219 94.558594 185.238281 94.460938 254.019531 94.359375 C 266.671875 94.101562 279.359375 94.980469 291.949219 93.519531 C 346.308594 93.488281 400.691406 93.390625 455.050781 93.351562 C 464.648438 92.339844 474.289062 92.730469 483.921875 92.558594 C 537.480469 92.578125 591.03125 92.300781 644.578125 92.421875 C 644.25 106.410156 645.011719 120.460938 643.519531 134.390625 C 643.191406 142.601562 643.949219 150.839844 642.789062 159 C 641.890625 176.640625 643.148438 194.359375 641.648438 211.980469 C 641.339844 221.628906 642.03125 231.328125 640.660156 240.910156 C 640.109375 252.550781 640.890625 264.238281 640.140625 275.871094 C 638.691406 286.179688 640.308594 296.648438 638.808594 306.960938 C 638.308594 317.160156 638.671875 327.390625 638.480469 337.601562 C 638.699219 345.109375 637.230469 352.539062 637.589844 360.039062 C 637.371094 372.359375 638.039062 384.710938 636.710938 396.96875 C 636.371094 408.019531 636.671875 419.078125 636.390625 430.121094 C 636.691406 433.070312 633.460938 434.449219 631 434.410156 C 622.480469 434.628906 614 435.621094 605.589844 436.929688 C 588.039062 439.019531 570.429688 440.550781 552.941406 443.078125 C 537.878906 443.808594 523.011719 446.519531 507.988281 447.648438 C 486.578125 450.730469 464.929688 451.738281 443.539062 454.921875 C 435.039062 456.28125 426.378906 456.210938 417.929688 457.921875 C 399.300781 459.960938 380.570312 461.199219 362.03125 464.019531 C 348.609375 464.949219 335.300781 466.941406 321.898438 468.070312 C 304.589844 470.53125 287.171875 472.191406 269.769531 473.960938 C 251.589844 476.800781 233.121094 477.21875 215 480.488281 C 209.550781 481.390625 204.011719 481.378906 198.519531 481.851562 C 184.738281 483.910156 170.851562 484.910156 157.011719 486.46875 C 138.359375 488.839844 119.621094 490.421875 100.988281 493.039062 C 90.980469 493.878906 81 495.160156 71 496.199219 C 58.128906 497.890625 45.070312 498.148438 32.308594 500.671875 C 31.359375 498.578125 30.121094 496.421875 30.640625 494.019531 M 643.441406 456.550781 C 643.25 447.359375 643.691406 438.171875 643.421875 428.980469 C 643.238281 424.289062 643.949219 419.648438 644.28125 415 C 644.660156 403.671875 644.25 392.308594 644.808594 380.988281 C 645.921875 371.371094 645.210938 361.671875 645.609375 352.019531 C 647.671875 335.109375 645.378906 317.988281 647.320312 301.058594 C 647.75 292.101562 647.070312 283.109375 647.828125 274.160156 C 647.710938 272.109375 647.609375 270.050781 647.769531 267.988281 C 649.289062 255.058594 647.558594 241.988281 649.261719 229.070312 C 649.441406 211.050781 649.550781 193.03125 649.730469 175.011719 C 651.5 160.410156 650.210938 145.671875 650.839844 131.011719 C 652.148438 119.050781 651.320312 107 651.730469 95.011719 C 651.578125 93.289062 653.019531 91.980469 654.539062 91.460938 C 661.109375 89.179688 668.148438 88.960938 675.011719 88.191406 C 685.71875 86.589844 696.460938 85.109375 707.230469 83.941406 C 716.578125 82.179688 726.019531 80.890625 735.480469 79.828125 C 746.328125 78.558594 757.03125 75.941406 767.96875 75.441406 C 772.03125 75.238281 775.921875 73.960938 779.960938 73.570312 C 796.289062 71.960938 812.390625 68.570312 828.730469 67.070312 C 843.101562 64.679688 857.550781 62.910156 871.949219 60.679688 C 880.769531 59.269531 889.789062 59.191406 898.511719 57.140625 C 908.679688 55.488281 918.929688 54.371094 929.121094 52.859375 C 952.078125 49.140625 975.191406 46.511719 998.179688 42.960938 C 1006.550781 41.769531 1015.050781 41.621094 1023.339844 39.871094 C 1031.378906 38.160156 1039.679688 38.101562 1047.671875 36.101562 C 1061.070312 34.078125 1074.558594 32.691406 1087.941406 30.539062 C 1097 29.160156 1106.191406 28.769531 1115.171875 26.898438 C 1121.449219 25.488281 1127.980469 25.699219 1134.199219 23.941406 C 1144.449219 22.671875 1154.691406 21.070312 1164.988281 20.171875 C 1169.46875 19.070312 1173.980469 18.011719 1178.640625 18.300781 C 1178.570312 23.480469 1178.980469 28.660156 1178.5 33.820312 C 1176.671875 48.140625 1178.851562 62.660156 1176.921875 76.980469 C 1176.488281 87.308594 1177.410156 97.710938 1175.859375 107.980469 C 1175.710938 131.660156 1175.640625 155.339844 1175.410156 179.019531 C 1175.679688 186.320312 1174.328125 193.539062 1174.53125 200.839844 C 1174.300781 208.230469 1174.738281 215.648438 1173.851562 223.011719 C 1173.089844 235.660156 1174.109375 248.390625 1172.679688 261 C 1172.320312 270.679688 1172.710938 280.371094 1172.308594 290.039062 C 1170.671875 302.300781 1172.300781 314.710938 1170.828125 326.980469 C 1170.410156 339.339844 1170.78125 351.71875 1170.378906 364.078125 C 1168.621094 379.648438 1170.558594 395.390625 1168.761719 410.949219 C 1168.699219 416.910156 1167.800781 422.789062 1167.441406 428.71875 C 1163 429.710938 1158.449219 429.640625 1153.941406 429.570312 C 1145.589844 429.300781 1137.308594 430.890625 1128.960938 430.46875 C 1118.320312 430.808594 1107.621094 429.941406 1097.058594 431.441406 C 1087.351562 432.121094 1077.570312 430.960938 1067.898438 432.230469 C 1061.949219 432.960938 1055.941406 432.550781 1049.96875 432.628906 C 1038.289062 433.261719 1026.628906 434.601562 1014.921875 434.628906 C 1010.929688 434.820312 1006.988281 435.601562 1003 435.601562 C 991.609375 435.261719 980.371094 437.75 968.980469 437.648438 C 960.691406 439 952.269531 438.191406 943.960938 439.238281 C 924.269531 440.101562 904.671875 442.210938 884.96875 442.828125 C 874.320312 444.160156 863.539062 442.890625 852.898438 444.300781 C 834.921875 445.179688 817.039062 447.648438 799.019531 447.578125 C 791.390625 448.789062 783.660156 448.261719 776.03125 449.261719 C 767.359375 449.96875 758.691406 450.761719 749.988281 450.648438 C 741.019531 451.890625 731.949219 451.140625 723 452.390625 C 715.308594 452.429688 707.699219 453.738281 700.019531 453.589844 C 691.671875 454.21875 683.339844 455.171875 674.980469 455.601562 C 664.441406 455.28125 653.988281 457.179688 643.441406 456.550781 Z M 643.441406 456.550781 " transform="matrix(1,0,0,-1,0,529)"/>
</g>
</svg>
