<?xml version="1.0" encoding="UTF-8"?>
<svg xmlns="http://www.w3.org/2000/svg" xmlns:xlink="http://www.w3.org/1999/xlink" width="27pt" height="27pt" viewBox="0 0 27 27" version="1.2">
<g id="surface1">
<path style=" stroke:none;fill-rule:nonzero;fill:rgb(60.391235%,66.665649%,70.587158%);fill-opacity:1;" d="M 20.539062 18.480469 L 18.421875 20.601562 L 14.707031 16.890625 L 16.828125 14.769531 Z M 20.539062 18.480469 "/>
<path style=" stroke:none;fill-rule:nonzero;fill:rgb(39.99939%,45.881653%,49.803162%);fill-opacity:1;" d="M 26.011719 21.832031 L 21.601562 17.421875 C 21.015625 16.835938 20.066406 16.835938 19.480469 17.421875 L 17.359375 19.542969 C 16.773438 20.128906 16.773438 21.078125 17.359375 21.664062 L 21.769531 26.074219 C 22.941406 27.246094 24.84375 27.246094 26.015625 26.074219 C 27.183594 24.902344 27.183594 23.003906 26.011719 21.832031 Z M 26.011719 21.832031 "/>
<path style=" stroke:none;fill-rule:nonzero;fill:rgb(53.33252%,59.999084%,65.097046%);fill-opacity:1;" d="M 10.042969 0.128906 C 4.507812 0.207031 0.0625 4.71875 0.0625 10.253906 C 0.0625 12.9375 1.132812 15.511719 3.03125 17.410156 C 4.929688 19.3125 7.503906 20.378906 10.191406 20.378906 C 15.78125 20.378906 20.316406 15.84375 20.316406 10.253906 C 20.316406 7.566406 19.246094 4.992188 17.347656 3.09375 C 15.449219 1.195312 12.875 0.128906 10.191406 0.128906 C 10.140625 0.128906 10.089844 0.128906 10.042969 0.128906 Z M 10.078125 3.128906 C 10.113281 3.128906 10.152344 3.128906 10.191406 3.128906 C 12.078125 3.128906 13.890625 3.878906 15.226562 5.214844 C 16.5625 6.550781 17.316406 8.363281 17.316406 10.253906 C 17.316406 14.1875 14.125 17.378906 10.191406 17.378906 C 8.300781 17.378906 6.488281 16.625 5.152344 15.289062 C 3.816406 13.953125 3.0625 12.140625 3.0625 10.253906 C 3.0625 6.359375 6.1875 3.1875 10.078125 3.128906 Z M 10.078125 3.128906 "/>
</g>
</svg>
