<?xml version="1.0" encoding="utf-8"?>
<!-- Generator: Adobe Illustrator 26.2.1, SVG Export Plug-In . SVG Version: 6.00 Build 0)  -->
<svg version="1.1" id="Calque_1" xmlns="http://www.w3.org/2000/svg" xmlns:xlink="http://www.w3.org/1999/xlink" x="0px" y="0px"
	 viewBox="0 0 262.9 177.3" style="enable-background:new 0 0 262.9 177.3;" xml:space="preserve">
<style type="text/css">
	.st0{fill:#E3E9F2;}
	.st1{fill:#F0F3FB;}
	.st2{opacity:0.2;fill:#442973;enable-background:new    ;}
	.st3{fill:#B7553F;}
	.st4{clip-path:url(#SVGID_00000048462453576183422010000008653771378920032190_);}
	.st5{fill:#3C7258;}
	.st6{clip-path:url(#SVGID_00000031171317302166444260000016861045851204282794_);}
	.st7{fill:#FFFFFF;}
	.st8{fill:#F6A24A;}
	.st9{clip-path:url(#SVGID_00000099644268506220183830000015078011393730473367_);}
	.st10{opacity:0.2;fill:#CF2974;enable-background:new    ;}
	.st11{clip-path:url(#SVGID_00000037683999108152547950000000355062201147008902_);}
	.st12{fill:#852974;}
	.st13{clip-path:url(#SVGID_00000077285198067607449570000016943009009971123892_);}
	.st14{fill:#5B2831;}
	.st15{fill:#782831;}
	.st16{fill:#FFD46C;}
	.st17{fill:#492C50;}
	.st18{fill:none;stroke:#492C50;stroke-linecap:round;stroke-miterlimit:10;}
	.st19{fill:#639DC4;}
	.st20{clip-path:url(#SVGID_00000077317665987077746120000005118858937889357446_);}
	.st21{fill:#E6E0F0;}
	.st22{clip-path:url(#SVGID_00000124161109356224459110000008608211612529929631_);}
	.st23{clip-path:url(#SVGID_00000013185373654513350870000002835530940718968220_);}
	.st24{fill:#DF2F5D;}
	.st25{clip-path:url(#SVGID_00000150805970730449232540000008939717895210366384_);}
	.st26{clip-path:url(#SVGID_00000075125963450360333890000017363584872006894215_);}
	.st27{fill:#3B2733;}
	.st28{clip-path:url(#SVGID_00000060714490887687386620000011180197568167759263_);}
	.st29{clip-path:url(#SVGID_00000101794146942589576700000001661883494432750479_);}
	.st30{fill:#FABB6C;}
	.st31{fill:#30223B;}
	.st32{clip-path:url(#SVGID_00000044168449943183650140000014573376313119386536_);}
	.st33{opacity:0.8;fill:#FCF7CB;enable-background:new    ;}
	.st34{fill:#EC605A;}
	.st35{fill:#FCF7CB;}
	.st36{fill:#C7D6EF;}
	.st37{fill:#F9B243;}
	.st38{fill:#FFD44A;}
	.st39{clip-path:url(#SVGID_00000173848468874407045530000016896129861552532908_);}
	.st40{fill:#FFEE97;}
	.st41{fill:#D15B8D;}
	.st42{clip-path:url(#SVGID_00000044890305700762885690000011946583705329804732_);}
	.st43{opacity:0.2;fill:#572873;enable-background:new    ;}
	.st44{fill:#B0D2F0;}
	.st45{clip-path:url(#SVGID_00000101075284595080273910000012221227958597154732_);}
	.st46{clip-path:url(#SVGID_00000111164388379139399540000004950211164481043090_);}
	.st47{fill:#FFECD1;}
	.st48{fill:#EA5272;}
	.st49{clip-path:url(#SVGID_00000180364186726093811260000017754618094047554993_);}
</style>
<g>
	<g id="Calque_1_00000132052247959347580460000001737942636169308558_">
		<polygon class="st0" points="81,101.2 11.7,132.9 73.1,149.7 143.9,106.4 		"/>
		<polygon class="st1" points="86.8,99.7 25.2,143 93.2,147.5 103.3,137.8 107,142.8 135,105.2 		"/>
		<polygon class="st0" points="107,142.8 93.2,147.5 103.3,137.8 		"/>
		<path class="st2" d="M16.9,122.2L0,114.1c0,0,8.2-45.2,128.4-43C247.9,73.3,260.6,105,260.6,105l-19.4,11.5l-33.8,5.8l-56.4,24.5
			l13.6-29.7l-119.5-2.8L16.9,122.2z"/>
		<polygon class="st0" points="255.5,156.7 156.5,177.3 127.8,140 216.5,123.6 		"/>
		<polygon class="st1" points="262.9,162.5 162.2,172 137.8,131.7 227.8,125.3 		"/>
		<path class="st3" d="M44,0h161.8c4.7,0,8.6,3.9,8.6,8.6v94c0,4.7-3.9,8.6-8.6,8.6H44c-4.7,0-8.6-3.9-8.6-8.6v-94
			C35.4,3.9,39.3,0,44,0z"/>
		<g>
			<defs>
				<path id="SVGID_1_" d="M44,0h161.8c4.7,0,8.6,3.9,8.6,8.6v94c0,4.7-3.9,8.6-8.6,8.6H44c-4.7,0-8.6-3.9-8.6-8.6v-94
					C35.4,3.9,39.3,0,44,0z"/>
			</defs>
			<clipPath id="SVGID_00000130634535834991050250000007307387391206816424_">
				<use xlink:href="#SVGID_1_"  style="overflow:visible;"/>
			</clipPath>
			<g style="clip-path:url(#SVGID_00000130634535834991050250000007307387391206816424_);">
				<path class="st2" d="M37-4.1c0.3,0.8,0.3,112.4,0.3,112.4l188.7,1.9l-0.6,4.4l-194-3.3L28.9-3.5L37-4.1z"/>
			</g>
		</g>
		<rect x="43.7" y="7.9" class="st5" width="162.4" height="95.5"/>
		<g>
			<defs>
				<rect id="SVGID_00000163787463361193414400000011286927897852464053_" x="43.7" y="7.9" width="162.4" height="95.5"/>
			</defs>
			<clipPath id="SVGID_00000007414719054049574650000003101386500281823647_">
				<use xlink:href="#SVGID_00000163787463361193414400000011286927897852464053_"  style="overflow:visible;"/>
			</clipPath>
			<g style="clip-path:url(#SVGID_00000007414719054049574650000003101386500281823647_);">
				<polyline class="st2" points="39.4,11.5 202.1,11.5 199.7,108.7 212.3,106.2 216.3,-18 39.9,-5 39.4,13.5 				"/>
			</g>
		</g>
		<path class="st7" d="M78.7,27.7c1.7-2,3.3-4.1,4.9-6.3l-2.8-0.8c-0.3,3.8-0.7,7.7-1,11.6c0,0.8,0.7,1.5,1.5,1.5s1.5-0.7,1.5-1.5
			c0.3-3.9,0.6-7.7,1-11.6c0-0.7-0.5-1.3-1.1-1.5C82,19,81.3,19.3,81,19.9c-1.4,2-2.8,3.9-4.4,5.7c-0.6,0.6-0.5,1.6,0.1,2.1
			C77.2,28.2,78.1,28.2,78.7,27.7z"/>
		<path class="st7" d="M88.2,28.8l0.9-0.1l-0.4,0.1c1.3-0.2,2.6-0.3,3.9-0.3c0.8,0,1.5-0.7,1.5-1.5s-0.7-1.5-1.5-1.5
			c-1.7,0-3.5,0.2-5.2,0.5c-0.8,0.2-1.2,1.1-1,1.8c0.1,0.4,0.4,0.7,0.7,0.9C87.5,28.8,87.9,28.9,88.2,28.8L88.2,28.8z"/>
		<path class="st7" d="M88.3,25.6c0.2,0.9,0.3,1.8,0.5,2.7l-0.1-0.4c0.1,0.4,0.1,0.7,0.1,1.1c0.1,0.3,0.1,0.7,0.1,1v-0.4l0,0
			l0.4-0.7l0,0l0.7-0.4h0.8l0,0l0.7,0.4l0,0l0.4,1.5l0,0c0.2-0.8-0.2-1.6-1-1.8c-0.8-0.2-1.6,0.2-1.8,1c-0.2,0.8,0.3,1.7,1.1,1.9
			c0.8,0.2,1.7-0.3,1.9-1.1c0.1-0.6,0-1.3-0.1-1.9c-0.2-1.2-0.3-2.5-0.6-3.7c-0.2-0.8-1-1.3-1.8-1c-0.8,0.3-1.2,1.1-1,1.8L88.3,25.6
			z"/>
		<path class="st7" d="M97.9,20.4L96.6,25c-0.1,0.5,0,0.9,0.3,1.3c0.3,0.4,0.7,0.6,1.2,0.6c1.4,0.1,2.8,0,4.1-0.1
			c0.4,0,0.8-0.2,1.1-0.4c0.3-0.3,0.4-0.7,0.4-1.1c0-0.4-0.2-0.8-0.4-1.1c-0.3-0.3-0.7-0.4-1.1-0.4c-1.4,0.2-2.7,0.2-4.1,0.1
			l1.4,1.9l1.3-4.7c0.2-0.8-0.2-1.6-1-1.8C99,19.1,98.2,19.5,97.9,20.4L97.9,20.4z"/>
		<path class="st7" d="M101,24.1c-0.2,2-0.2,4,0.2,6c0.1,0.4,0.4,0.7,0.7,0.9c0.7,0.4,1.6,0.2,2.1-0.5c0.2-0.4,0.2-0.8,0.2-1.2v-0.2
			c0,0.2,0,0.2,0,0.1s0-0.2,0-0.3l-0.1-0.7c0-0.5-0.1-0.9-0.1-1.4c0-0.9,0-1.9,0.1-2.8c0-0.4-0.2-0.8-0.4-1.1
			c-0.3-0.3-0.7-0.4-1.1-0.4c-0.4,0-0.8,0.2-1.1,0.4C101.2,23.3,101.1,23.7,101,24.1L101,24.1z"/>
		<path class="st7" d="M109,27.7l0.6-0.1h-0.4c1.4-0.2,2.8-0.2,4.2-0.2c0.8,0,1.5-0.7,1.5-1.5c0-0.8-0.7-1.5-1.5-1.5
			c-1.7-0.1-3.5,0-5.2,0.3c-0.4,0.1-0.7,0.4-0.9,0.7c-0.2,0.4-0.3,0.8-0.2,1.2c0.1,0.4,0.4,0.7,0.7,0.9
			C108.2,27.6,108.6,27.7,109,27.7L109,27.7z"/>
		<path class="st7" d="M109.9,30.9c0.4-0.1,0.9-0.2,1.4-0.3h-0.4c0.8-0.1,1.7-0.1,2.5,0l-0.4-0.1h0.2c0.4,0.1,0.8,0,1.2-0.2
			c0.7-0.4,1-1.3,0.5-2.1c-0.2-0.3-0.5-0.6-0.9-0.7c-1.6-0.3-3.3-0.2-4.9,0.3c-0.8,0.2-1.3,1-1.1,1.8S109.1,31,109.9,30.9
			L109.9,30.9z"/>
		<path class="st7" d="M124.5,20.1c-3.4-0.2-6.1,3-6.4,6.2c-0.2,3.2,2.2,6,5.4,6.2c1.8,0.1,3.4-0.8,4.5-2.2c0.4-0.7,0.2-1.6-0.5-2
			c-0.7-0.4-1.6-0.2-2.1,0.5c0.2-0.3-0.2,0.1-0.2,0.2s-0.1,0.1,0,0l-0.2,0.1l-0.4,0.2c-0.2,0.1-0.2,0.1,0,0l-0.2,0.1l-0.4,0.1
			c-0.2,0-0.2,0,0,0h-0.3h-0.4c-0.2,0-0.2,0,0,0H123l-0.4-0.1h0.1l-0.2-0.1c0,0-0.5-0.3-0.2-0.1l-0.3-0.3c-0.1-0.1-0.2-0.3-0.3-0.4
			c0.2,0.2-0.1-0.1-0.1-0.1l-0.3-0.5c-0.1-0.2-0.1-0.2,0,0c0-0.1-0.1-0.1-0.1-0.2c0-0.1-0.1-0.3-0.1-0.4c0-0.1,0-0.2,0-0.3
			c0,0.2,0,0.2,0,0c0-0.1,0-0.3,0-0.4c0-0.1,0.1-0.6,0-0.3c0.1-0.3,0.2-0.7,0.3-1c-0.1,0.3,0.1-0.1,0.1-0.2s0.2-0.3,0.3-0.5l0.2-0.2
			c-0.1,0.1-0.1,0.1,0,0s0.2-0.2,0.3-0.4s0.4-0.4,0.2-0.2l0.4-0.3c0.2-0.1,0.3-0.2,0.5-0.3c-0.2,0.1,0.2,0,0.2-0.1s0.6-0.1,0.3-0.1
			c0.2,0,0.4,0,0.6,0c0.8,0,1.5-0.7,1.5-1.5C125.9,20.8,125.3,20.2,124.5,20.1L124.5,20.1z"/>
		<path class="st7" d="M57.7,85.4c1.6,2.3,3.5,4.3,5.5,6.2c0.6,0.6,1.6,0.6,2.1,0c0.1-0.1,0.2-0.2,0.2-0.3
			c2.9-6.1-0.4-12.2-0.7-18.4l-1.1,1.4c14.2-2.5,28.4-4.7,42.7-6.7c1.9-0.3,1.1-3.2-0.8-2.9c-14.3,2-28.5,4.2-42.7,6.7
			c-0.7,0.2-1.1,0.8-1.1,1.4c0.3,3,0.8,5.9,1.5,8.8c0.5,2.7,0.8,5.6-0.4,8.1l2.4-0.3c-1.9-1.7-3.5-3.5-5-5.6
			C59.2,82.3,56.6,83.8,57.7,85.4L57.7,85.4z"/>
		<path class="st7" d="M74.4,87c0.2-1.8,0.3-3.6,0.5-5.3c0-0.3,0.1-0.7,0.1-1.1c0,0.4,0-0.2,0-0.2l0.1-0.4c0-0.1,0.2-0.5,0.1-0.2
			c0-0.1,0.3-0.5,0.1-0.2c0.1-0.1,0.2-0.2,0.3-0.3c-1.1-0.1-1.4-0.1-1,0.1c0.1,0.1,0.2,0.1,0,0c0.2,0.2,0.4,0.4,0.7,0.7
			c-0.2-0.2,0.1,0.2,0.2,0.2s0.2,0.3,0.3,0.5s0.3,0.6,0.4,0.9c-0.1-0.3,0.1,0.2,0.1,0.3s0.1,0.3,0.1,0.4c0.6,1.6,1.2,3.3,1.8,4.9
			c0.2,0.8,1.1,1.2,1.9,1c0.8-0.2,1.2-1,1-1.8c-0.5-1.5-1.1-3.1-1.6-4.6c-0.4-1.3-1-2.5-1.8-3.6c-0.4-0.6-0.9-1-1.5-1.4
			c-1-0.5-2.1-0.2-2.8,0.7c-0.9,1.2-1.3,2.6-1.3,4.1L71.4,87c0,0.8,0.7,1.5,1.5,1.5C73.7,88.4,74.4,87.8,74.4,87z"/>
		<path class="st7" d="M73.7,85.4c1.5-0.2,3-0.3,4.5-0.4c0.8,0,1.5-0.7,1.5-1.5s-0.7-1.5-1.5-1.5c-1.5,0.1-3,0.2-4.5,0.4
			c-0.4,0-0.8,0.2-1.1,0.4c-0.6,0.6-0.6,1.5,0,2.1C72.9,85.3,73.3,85.4,73.7,85.4z"/>
		<path class="st7" d="M83.1,83.4c1.8-0.1,3.6-0.4,5.4-0.8c0.8-0.2,1.2-1.1,1-1.8c-0.2-0.8-1-1.2-1.8-1.1c-1,0.2-2,0.4-3,0.5
			l0.4-0.1c-0.7,0.1-1.3,0.2-2,0.2c-0.4,0-0.8,0.2-1.1,0.4c-0.3,0.3-0.4,0.7-0.4,1.1C81.5,82.7,82.2,83.3,83.1,83.4L83.1,83.4z"/>
		<path class="st7" d="M83.2,80c0.6,1.5,1.1,3.1,1.3,4.7c0.1,0.4,0.4,0.7,0.7,0.9c0.4,0.2,0.8,0.3,1.2,0.2c0.4-0.1,0.7-0.4,0.9-0.7
			c0.2-0.4,0.2-0.8,0.2-1.2c-0.3-1.6-0.7-3.2-1.3-4.7c-0.1-0.4-0.4-0.7-0.7-0.9c-0.4-0.2-0.8-0.3-1.2-0.2C83.5,78.4,83,79.2,83.2,80
			z"/>
		<path class="st7" d="M93.5,75.1c0.2-0.1,0.3-0.2,0.5-0.3c-0.4,0.2-0.2,0.1,0,0l0.3-0.1c0.4-0.1-0.3,0,0,0h0.3h0.3
			c0.2,0,0.4,0.1,0,0c0.2,0.1,0.4,0.1,0.6,0.1l0.1,0.1l-0.2-0.1c0.1,0,0.2,0.1,0.3,0.1l0.2,0.2c0.3,0.2-0.2-0.2,0,0l0.2,0.2l0.1,0.1
			c0.1,0.1,0.1,0.1-0.1-0.1c0,0.1,0.1,0.2,0.2,0.3c0,0.1,0.1,0.1,0.1,0.2c0.1,0.1,0.1,0.1,0-0.1c0,0.1,0.1,0.2,0.1,0.3
			c0-0.2,0-0.3,0-0.1c0,0.1,0,0.1,0,0.2c0,0,0,0.1,0,0.2c0-0.3,0-0.3,0-0.2c-0.1,0.1-0.1,0.2-0.1,0.3c0.1-0.2,0.1-0.3,0-0.1
			c0,0.1,0,0.1-0.1,0.2c0,0.1-0.2,0.2-0.2,0.3c0.2-0.2,0.2-0.2,0.1-0.1L96,76.8c-0.1,0.1-0.2,0.2-0.3,0.2l-0.1,0.1l0.1-0.1l-0.3,0.2
			c-0.4,0.3-0.9,0.5-1.3,0.7c-0.7,0.4-1,1.3-0.5,2.1c0.4,0.7,1.3,0.9,2.1,0.5c0.9-0.4,1.7-1,2.4-1.7c0.8-0.8,1.3-2,1.3-3.1
			c-0.1-1.2-0.8-2.4-1.8-3.1c-0.8-0.5-1.6-0.9-2.6-0.9c-1-0.1-2,0.2-2.9,0.7c-0.7,0.4-0.9,1.3-0.5,2.1
			C91.9,75.3,92.8,75.5,93.5,75.1L93.5,75.1z"/>
		<path class="st7" d="M95.8,80.5c0.5-0.3,1.1-0.4,1.7-0.4c0.3,0,0.6,0.2,0.9,0.3c0.1,0.1,0.2,0.2,0.3,0.3c0,0,0.3,0.3,0.2,0.2
			c0.1,0.2,0.2,0.4,0.3,0.6c-0.1-0.2,0,0.2,0,0.2c0-0.2,0-0.1,0,0c0-0.2,0-0.1,0,0s0.1-0.1-0.1,0.1L99,82.2c-0.1,0.1,0,0.1,0-0.1
			l-0.2,0.2c-0.1,0.1-0.2,0.2-0.3,0.3c-0.1,0.1-0.1,0,0.1,0l-0.2,0.1c-0.2,0.1-0.5,0.3-0.7,0.4c0.3-0.2,0,0-0.1,0l-0.4,0.1
			c-0.2,0.1-0.5,0.1-0.7,0.2h-0.3c0.5-0.1,0,0-0.1,0c-0.5,0-1,0-1.5,0l1.4,1.1c-0.9-3.6-1.6-7.3-2.1-11c-0.2-0.8-1.1-1.2-1.8-1
			c-0.8,0.3-1.2,1.1-1,1.8c0.6,3.8,1.3,7.5,2.2,11.2c0.2,0.6,0.8,1.1,1.4,1.1c1.6,0.1,3.3-0.2,4.8-0.9c1.2-0.6,2.2-1.7,2.7-3
			c0.6-1.8-0.5-3.7-2-4.7c-1.8-1.2-4.1-1.2-5.9-0.1c-0.7,0.4-1,1.3-0.6,2C94.1,80.7,95,80.9,95.8,80.5
			C95.8,80.5,95.8,80.5,95.8,80.5L95.8,80.5z"/>
		<path class="st7" d="M160.6,19c-1.5,17.4-2.8,34.8-3.6,52.2c-0.2,4.6-0.3,9.2-0.4,13.8c0,0.8,0.7,1.5,1.5,1.5s1.5-0.7,1.5-1.5
			c0.2-17.4,1.4-34.9,2.8-52.3c0.4-4.6,0.7-9.2,1.1-13.7C163.8,17.1,160.8,17.1,160.6,19z"/>
		<path class="st7" d="M192.6,50.6c-17.8,0.5-35.7-0.2-53.6-0.7l-13.4-0.4c-1.9-0.1-1.9,2.9,0,3c17.9,0.6,35.7,1.2,53.6,1.3
			c4.5,0,9,0,13.4-0.1C194.5,53.6,194.5,50.6,192.6,50.6z"/>
		<path class="st7" d="M158.8,24.1l0.3-0.4c0.3-0.4-0.2,0.2,0.1-0.2c0.2-0.2,0.3-0.4,0.5-0.6c0.4-0.4,0.8-0.9,1.1-1.3
			c0.8-0.8,1.6-1.6,2.4-2.4h-2.1l3.9,4.4c0.6,0.6,1.5,0.6,2.1,0c0.6-0.6,0.6-1.5,0-2.1l-3.8-4.4c-0.6-0.6-1.5-0.6-2.1,0
			c-1.8,1.6-3.5,3.5-4.9,5.5c-0.4,0.7-0.1,1.6,0.5,2C157.5,25,158.4,24.7,158.8,24.1L158.8,24.1z"/>
		<path class="st7" d="M129.3,46c-1.8,1.1-3.5,2.4-4.9,3.8c-0.6,0.6-0.6,1.5,0,2.1l5.4,4.4c0.6,0.6,1.6,0.5,2.1-0.1
			c0.5-0.6,0.5-1.5,0-2l-5.4-4.4V52c0.7-0.7,1.4-1.3,2.2-1.9l0,0l0.4-0.3l0.5-0.4c0.4-0.3,0.8-0.6,1.3-0.8c0.7-0.4,1-1.3,0.5-2.1
			C130.9,45.8,129.9,45.6,129.3,46L129.3,46z"/>
		<path class="st7" d="M143,55.3c0.2-3.9,2.2-7.6,3.8-11.1c0.2-0.5,0.4-0.9,0.6-1.3c0-0.1,0.2-0.3,0.3-0.3c0.3-0.1,0,0,0.2,0.1
			c0.7,0.3,1.2,1.7,1.4,2.3c0.5,1.6,0.8,3.3,0.9,4.9c0.3,3.7,0.4,7.6,1.4,11.2c0.9,3.2,2.6,7,6,8.2s6.7-1.7,8.5-4.4
			c1.7-2.7,2.7-5.8,3-9c0.5-4,0.2-8,1.4-11.9c0.4-1.2,1-2.9,2.5-3.2c1.5-0.3,2.4,1.1,2.9,2.3c0.9,2.7,1.5,5.6,1.8,8.4
			c0.5,2.9,0.8,5.9,0.8,8.9c0,0.8,0.7,1.5,1.5,1.5s1.5-0.7,1.5-1.5c0-2.8-0.3-5.7-0.8-8.5c-0.4-3-0.9-5.9-1.7-8.7
			c-0.9-3-3.1-6-6.6-5.3c-3.8,0.8-5,5.3-5.5,8.6c-0.6,4-0.3,8.1-1.2,12c-0.4,1.7-1.1,3.3-2,4.8c-0.9,1.3-2.6,3.4-4.3,3.4
			s-3-2.1-3.8-3.5c-0.9-1.9-1.5-3.9-1.7-6c-0.5-3.8-0.3-7.8-1.2-11.6c-0.5-1.9-1.4-4.2-3.1-5.4s-3.8-0.2-4.8,1.6
			c-1.1,2.2-2.1,4.5-3,6.8c-0.9,2.1-1.5,4.4-1.7,6.7C139.9,57.2,142.9,57.2,143,55.3z"/>
		<path class="st7" d="M153.8,82.3c0.6,0.9,1.2,1.7,1.9,2.5c0.6,0.9,1.5,1.6,2.5,2c1.5,0.4,2.3-1.1,3.1-2l2.1-2.6
			c0.6-0.6,0.5-1.6-0.1-2.1c-0.6-0.5-1.5-0.5-2,0l-1.7,2.1l-0.9,1.1l-0.4,0.5c-0.1,0.1-0.1,0.2-0.2,0.2c-0.3,0.4,0.6-0.3,1-0.1
			c0,0,0.3,0.2,0.2,0.1l-0.2-0.2l-0.4-0.4c-0.3-0.3-0.5-0.6-0.8-0.9l-0.4-0.4c-0.3-0.3,0.1,0.1,0,0l-0.2-0.2c-0.2-0.3-0.5-0.7-0.7-1
			c-0.4-0.7-1.3-1-2-0.6C153.7,80.6,153.5,81.5,153.8,82.3C153.9,82.3,153.9,82.3,153.8,82.3L153.8,82.3z"/>
		<path class="st7" d="M189.3,48.7l2.9,3.8c0.1,0.2,0.2,0.3,0.4,0.5l0.1,0.2c0.1-0.9,0.1-1.2-0.1-0.8s-0.4,0.7-0.6,1l-1.2,2.2
			c-0.4,0.7-0.2,1.6,0.5,2.1c0.7,0.4,1.6,0.2,2.1-0.5c0,0,0-0.1,0.1-0.1l1.4-2.4c0.2-0.4,0.5-0.8,0.7-1.3c0.3-0.6,0.2-1.3-0.2-1.9
			c-1-1.5-2.2-2.9-3.3-4.4c-0.4-0.7-1.3-0.9-2.1-0.5C189.2,47.1,188.9,48,189.3,48.7L189.3,48.7z"/>
		<path class="st7" d="M124.7,77.6c-0.6,5.2-0.8,10.5-0.6,15.8c0,0.8,0.7,1.5,1.5,1.5c7,0.6,13.9,0.7,20.9,0.3c1.9-0.1,1.9-3.1,0-3
			c-7,0.4-14,0.3-20.9-0.3l1.5,1.5c-0.2-5.3,0-10.6,0.6-15.8c0-0.8-0.7-1.5-1.5-1.5C125.4,76.1,124.7,76.8,124.7,77.6z"/>
		<path class="st7" d="M124.7,88c1.1,1.3,2.3,2.6,3.7,3.7c1.4,1.2,2.8,2.3,4.4,3.3c0.7,0.4,1.6,0.2,2.1-0.5c0.4-0.7,0.1-1.6-0.5-2
			c-0.7-0.4-1.4-0.9-2-1.4l-0.5-0.4c0.2,0.1,0,0-0.1-0.1l-0.3-0.2c-0.3-0.3-0.7-0.6-1-0.8c-1.3-1.1-2.5-2.3-3.6-3.6
			c-0.6-0.6-1.5-0.6-2.1,0C124.1,86.5,124.1,87.4,124.7,88L124.7,88z"/>
		<path class="st7" d="M75.7,47.6c1.8-0.2,3.6-0.4,5.4-0.5l-1.4-1.9c-1.3,3.2-2.3,6.5-3.2,9.8c-0.2,0.8,0.2,1.6,1,1.8
			c0.8,0.2,1.6-0.2,1.8-1c0.8-3.3,1.9-6.6,3.2-9.8c0.2-0.8-0.3-1.6-1.1-1.9c-0.1,0-0.2,0-0.4,0c-1.8,0.1-3.6,0.3-5.4,0.5
			c-0.8,0-1.5,0.7-1.5,1.5C74.2,46.9,74.8,47.8,75.7,47.6L75.7,47.6z"/>
		<path class="st7" d="M77.2,51.5c1.8,0,3.5-0.1,5.3-0.3c0.4,0,0.8-0.2,1.1-0.4c0.3-0.3,0.4-0.7,0.5-1.1c0-0.4-0.2-0.8-0.4-1.1
			c-0.3-0.3-0.7-0.4-1.1-0.4c-1.7,0.2-3.5,0.3-5.3,0.3c-0.8,0-1.5,0.7-1.5,1.5S76.4,51.5,77.2,51.5L77.2,51.5z"/>
		<path class="st7" d="M88.6,49.5l6.2,4.8c0.3,0.3,0.7,0.4,1.1,0.4c0.8,0,1.5-0.6,1.5-1.5c0-0.4-0.2-0.8-0.4-1.1l-6.2-4.8
			c-0.3-0.3-0.7-0.4-1.1-0.4c-0.4,0-0.8,0.2-1.1,0.4C88,48,88,48.9,88.6,49.5L88.6,49.5z"/>
		<path class="st7" d="M88.9,55c2.8-2.1,5.5-4.5,8-7c0.6-0.6,0.6-1.5,0.1-2.1s-1.5-0.6-2.1-0.1c0,0-0.1,0-0.1,0.1
			c-1.2,1.2-2.4,2.4-3.7,3.5c-0.6,0.6-1.2,1.1-1.9,1.6l-0.9,0.8c-0.2,0.1-0.3,0.3-0.5,0.4l-0.1,0.1c0.1-0.1,0.1-0.1,0,0l-0.3,0.2
			c-0.6,0.5-0.8,1.5-0.2,2.1C87.6,55.1,88.3,55.2,88.9,55z"/>
		<path class="st8" d="M19.7,86.2c0,0-6.7-4-12.5,0.9s-7.6,27.2,10.4,24.4c4-5.8,2.4-7.9,2.4-7.9s-7.3,4-9.8-0.6S9,89.3,17.8,91.4"
			/>
		<g>
			<defs>
				<path id="SVGID_00000103963256161197495110000010164285968855129761_" d="M19.7,86.2c0,0-6.7-4-12.5,0.9s-7.6,27.2,10.4,24.4
					c4-5.8,2.4-7.9,2.4-7.9s-7.3,4-9.8-0.6S9,89.3,17.8,91.4"/>
			</defs>
			<clipPath id="SVGID_00000026152759717343807390000007077420238726054281_">
				<use xlink:href="#SVGID_00000103963256161197495110000010164285968855129761_"  style="overflow:visible;"/>
			</clipPath>
			<g style="clip-path:url(#SVGID_00000026152759717343807390000007077420238726054281_);">
				<path class="st10" d="M21.8,90c-1.6-1.1-3.5-1.6-5.4-1.3c-3.9,0.6-7.3,3.1-9.2,6.6c-1.8,3.5-2.5,7.5-2,11.4c0.2,2.8,1,5.6,2.5,8
					c1.5,2.4,3.9,4.1,6.7,4.7c4.1,0.6,8.2-2,10.4-5.5s2.8-7.8,3.1-12c0.2-3.5,0.1-7.3-2-10c-0.8-1.1-1.9-2-2.3-3.2"/>
			</g>
		</g>
		<path class="st8" d="M16.9,76.5v45.8c0,0,17.4,9.7,33.9-1.2c-0.3-5.8-0.6-44-0.6-44S37.4,67.3,16.9,76.5z"/>
		<g>
			<defs>
				<path id="SVGID_00000026859068646120243770000010568005736903622021_" d="M16.9,76.5v45.8c0,0,17.4,9.7,33.9-1.2
					c-0.3-5.8-0.6-44-0.6-44S37.4,67.3,16.9,76.5z"/>
			</defs>
			<clipPath id="SVGID_00000030471302335635968640000005728188443973762467_">
				<use xlink:href="#SVGID_00000026859068646120243770000010568005736903622021_"  style="overflow:visible;"/>
			</clipPath>
			<g style="clip-path:url(#SVGID_00000030471302335635968640000005728188443973762467_);">
				<path class="st10" d="M14.7,79c0.5,7.7,1,15.4,2.5,22.9c0.5,2.9,1.5,5.7,3,8.2c2.7,4,7.3,6.1,11.9,7.6c3.1,1.1,6.3,1.6,9.6,1.7
					c5.6-0.1,11.1-2.6,16.7-1.7c1.5,0.2,3.2,1,3.5,2.4c0.1,1.3-0.4,2.6-1.4,3.4c-2.5,2.5-6,3.8-9.5,4.6c-6,1.5-12.3,2-18.5,1.6
					c-2.6-0.1-5.1-0.6-7.5-1.4c-6.5-2.4-11.1-8.8-12.9-15.5S10.9,98.8,12.3,92"/>
			</g>
		</g>
		<path class="st12" d="M19.4,77.5c0,0,2.9,4.7,15.7,4.4s13.2-4.3,13.2-4.3s-5-3.4-14.4-3.4S19.4,77.5,19.4,77.5z"/>
		<g>
			<defs>
				<path id="SVGID_00000018952504900455401990000013736214841084684210_" d="M19.4,77.5c0,0,2.9,4.7,15.7,4.4s13.2-4.3,13.2-4.3
					s-5-3.4-14.4-3.4S19.4,77.5,19.4,77.5z"/>
			</defs>
			<clipPath id="SVGID_00000161621193751264189830000005230474967334176433_">
				<use xlink:href="#SVGID_00000018952504900455401990000013736214841084684210_"  style="overflow:visible;"/>
			</clipPath>
			<g style="clip-path:url(#SVGID_00000161621193751264189830000005230474967334176433_);">
				<path class="st14" d="M22.1,84.8c-1.2,0.3-2.2-1.3-1.8-2.4c0.6-1.1,1.6-1.9,2.8-2.3c2.6-1,5.3-1.7,8.1-2.1
					c4.2-0.7,8.6-0.1,12.6,1.6c1,0.4,1.9,1.1,2.5,1.9c0.6,0.9,0.7,2.1,0.1,3c-0.6,0.7-1.4,1.1-2.2,1.3c-4.3,1.4-8.6,2.6-13,3.7"/>
				<path class="st15" d="M43.4,82.7c-0.5-0.7-1.2-1.3-1.9-1.6c-3-1.4-6.4-1.9-9.7-1.3c-2.2,0.3-4.3,0.9-6.2,1.7
					c-1,0.3-1.8,1-2.2,1.9c-0.3,1,0.4,2.3,1.4,2.1l7.1,4c3.4-0.9,6.7-1.9,10-3.1c0.7-0.2,1.3-0.6,1.7-1.1
					C43.9,84.5,43.9,83.5,43.4,82.7z M42.1,85.1c-0.4,0.4-0.9,0.8-1.5,0.9c-2.8,1-5.7,1.8-8.6,2.5l-6-3.3c-0.8,0.2-1.4-0.9-1.1-1.7
					c0.4-0.8,1.1-1.3,1.9-1.6c1.7-0.7,3.5-1.2,5.3-1.4c2.8-0.5,5.7-0.1,8.3,1.1c0.7,0.3,1.3,0.7,1.7,1.3
					C42.4,83.7,42.4,84.5,42.1,85.1z"/>
			</g>
		</g>
		<ellipse class="st16" cx="40.4" cy="100.3" rx="7.2" ry="8.2"/>
		<ellipse class="st17" cx="37.7" cy="98.5" rx="1.2" ry="1.4"/>
		<ellipse class="st17" cx="43.9" cy="98.1" rx="1.2" ry="1.4"/>
		<path class="st18" d="M37.2,101.2c1,1.2,2.5,1.8,4,1.7c1.5,0,2.9-0.8,3.5-2.2"/>
		<path class="st7" d="M24.7,70.6c-1.3-5.7,1.2-11.9-0.6-17.5c-0.8-2.6-2.5-4.8-4.8-6.2c-2-1.3-4.3-2-6.3-3.2
			c-3.3-2.1-5.8-5.4-6.9-9.2c-1.1-3.8-1.1-7.8-0.1-11.6c1-4.1,3.1-8.2,6.9-10.1c2.1-1.1,5.1-1.2,6.4,0.8c0.7,1.3,0.8,2.8,0.3,4.1
			c-1.3,4.5-5.5,8.1-5.8,12.8c-0.2,3.5,1.9,6.8,4.5,9.2c2.6,2.4,5.8,4.1,8.6,6.2s5.4,5,6,8.4c0.9,4.9-2.1,9.6-3,14.5
			c-0.4,1.6-0.2,3.3,0.4,4.9c0.5,1.2,7.5,8,2.6,6.4C28.7,78.4,25.7,74.9,24.7,70.6z"/>
		<path class="st7" d="M31.8,72.4c-0.3-2.1,0.2-4.3,1.3-6.2c1-1.9,2.4-3.6,3.5-5.4c2.1-3.2,3.3-6.8,3.6-10.6
			c0.3-3.8-0.9-7.6-3.1-10.6c-1.5-1.9-3.7-3.5-4.4-5.9s0.2-5.2,1.6-7.5c1.6-2.8,4-5.1,6.8-6.5c2.9-1.4,6.4-1.4,9.2,0.2
			c2.9,1.8,4.5,5.3,4.6,8.7c-0.1,3.4-1,6.8-2.7,9.8c-1.5,2.8-3.5,5.7-3.4,8.9c0,2.5,1.4,5,1,7.5c-0.4,3.4-3.6,5.7-6.3,7.8
			c-2.2,1.8-4.3,3.7-6.2,5.9c-0.9,1-1.6,2.1-2,3.3c-0.4,1.7,0.7,2.2,0.8,3.6C36.2,78.5,32,74,31.8,72.4z"/>
		<path class="st19" d="M204.1,68.4l4.6,47c0,0,14.9,10.8,32.4,1c0,0,5.3-47.4,5.1-47.7C244.2,63.2,212.4,59.6,204.1,68.4z"/>
		<g>
			<defs>
				<path id="SVGID_00000134235146081226030650000002427186153488725950_" d="M204.1,68.4l4.6,47c0,0,14.9,10.8,32.4,1
					c0,0,5.3-47.4,5.1-47.7C244.2,63.2,212.4,59.6,204.1,68.4z"/>
			</defs>
			<clipPath id="SVGID_00000060718072372816320460000005196970495156171682_">
				<use xlink:href="#SVGID_00000134235146081226030650000002427186153488725950_"  style="overflow:visible;"/>
			</clipPath>
			<g style="clip-path:url(#SVGID_00000060718072372816320460000005196970495156171682_);">
				<ellipse class="st2" cx="207.6" cy="87.7" rx="5.1" ry="6.9"/>
				<ellipse class="st2" cx="231.8" cy="84.3" rx="5.1" ry="6.9"/>
				<ellipse class="st2" cx="245.1" cy="98.3" rx="5.1" ry="6.9"/>
				<ellipse class="st2" cx="226" cy="105.6" rx="7.3" ry="7.8"/>
			</g>
		</g>
		<path class="st2" d="M206.8,69.2c0,0,19.4,8.3,37.1-0.2C236.4,62.8,208,64.7,206.8,69.2z"/>
		<path class="st21" d="M214.5,71.6l14.4-60.1l13,2.1L226.4,73C222.4,73.3,218.3,72.8,214.5,71.6z"/>
		<g>
			<defs>
				<path id="SVGID_00000026869930046836226800000006327315091190383503_" d="M214.5,71.6l14.4-60.1l13,2.1L226.4,73
					C222.4,73.3,218.3,72.8,214.5,71.6z"/>
			</defs>
			<clipPath id="SVGID_00000033349116408355757310000002863062007618954151_">
				<use xlink:href="#SVGID_00000026869930046836226800000006327315091190383503_"  style="overflow:visible;"/>
			</clipPath>
			<g style="clip-path:url(#SVGID_00000033349116408355757310000002863062007618954151_);">
				<polyline class="st2" points="244.2,16.6 231.8,14.3 231.4,15.7 244.2,18.4 				"/>
				<polyline class="st2" points="246.1,20.2 233.7,17.9 233.3,19.4 246.1,22 				"/>
				<polyline class="st2" points="245.4,23.6 233,21.3 232.6,22.8 245.4,25.4 				"/>
				<polyline class="st2" points="244.7,27 232.3,24.7 231.9,26.2 244.7,28.8 				"/>
				<polyline class="st2" points="240.8,30.5 228.4,28.2 228,29.7 240.8,32.3 				"/>
				<polyline class="st2" points="242.7,34.1 230.3,31.9 229.9,33.3 242.7,35.9 				"/>
				<polyline class="st2" points="242,37.5 229.6,35.3 229.2,36.7 242,39.3 				"/>
				<polyline class="st2" points="241.3,40.9 228.9,38.7 228.5,40.1 241.3,42.7 				"/>
				<polyline class="st2" points="237.4,44.4 225,42.2 224.6,43.6 237.4,46.3 				"/>
				<polyline class="st2" points="239.3,48.1 226.9,45.8 226.5,47.2 239.3,49.9 				"/>
				<polyline class="st2" points="238.6,51.5 226.2,49.2 225.8,50.6 238.6,53.3 				"/>
				<polyline class="st2" points="237.9,54.8 225.5,52.6 225.1,54 237.9,56.7 				"/>
				<polyline class="st2" points="234,58.4 221.6,56.1 221.2,57.6 234,60.2 				"/>
				<polyline class="st2" points="235.9,62 223.5,59.8 223.1,61.2 235.9,63.8 				"/>
				<polyline class="st2" points="235.2,65.4 222.8,63.2 222.4,64.6 235.2,67.2 				"/>
				<polyline class="st2" points="234.5,68.8 222.1,66.6 221.7,68 234.5,70.6 				"/>
				<polyline class="st2" points="230.6,72.3 218.2,70.1 217.8,71.5 230.6,74.1 				"/>
				<polyline class="st2" points="232.6,75.9 220.1,73.7 219.7,75.1 232.6,77.8 				"/>
				<polyline class="st2" points="231.8,79.3 219.4,77.1 219,78.5 231.8,81.2 				"/>
				<polyline class="st2" points="231.1,82.7 218.7,80.5 218.3,81.9 231.1,84.6 				"/>
			</g>
		</g>
		<path class="st8" d="M224.4,72.8l-4.3-22.1l3.9-0.6l4.4,22.7C227,73,225.7,73,224.4,72.8z"/>
		<g>
			<defs>
				<path id="SVGID_00000095328028952270230640000004599814635895277998_" d="M224.4,72.8l-4.3-22.1l3.9-0.6l4.4,22.7
					C227,73,225.7,73,224.4,72.8z"/>
			</defs>
			<clipPath id="SVGID_00000121987278510227387470000011400649355602690955_">
				<use xlink:href="#SVGID_00000095328028952270230640000004599814635895277998_"  style="overflow:visible;"/>
			</clipPath>
			<g style="clip-path:url(#SVGID_00000121987278510227387470000011400649355602690955_);">
				<path class="st2" d="M223.7,45.9c-2.4,0.7-4.5,2.2-5.9,4.3c-0.6,0.8-0.8,1.8-0.7,2.8c0.2,0.9,0.7,1.6,1.5,2.1
					c1.6,0.9,3.3,1.3,5.1,1.3c1.1,0.2,2.3,0,3.4-0.4c0.2-2.9-0.6-5.8-2.3-8.2"/>
			</g>
		</g>
		<path class="st24" d="M220.2,54.7c1.2,0.2,2.4,0,3.5-0.6c0.4,1.1,1.8,10.5,2.7,10.8s-0.1-7.7-0.8-11.8s-4.6-14.8-5.9-14.8
			S217.7,44.7,220.2,54.7z"/>
		<g>
			<defs>
				<path id="SVGID_00000004520341187046398100000016930809572498598540_" d="M220.2,54.7c1.2,0.2,2.4,0,3.5-0.6
					c0.4,1.1,1.8,10.5,2.7,10.8s-0.1-7.7-0.8-11.8s-4.6-14.8-5.9-14.8S217.7,44.7,220.2,54.7z"/>
			</defs>
			<clipPath id="SVGID_00000016761810270042847510000002537209017851971774_">
				<use xlink:href="#SVGID_00000004520341187046398100000016930809572498598540_"  style="overflow:visible;"/>
			</clipPath>
			<g style="clip-path:url(#SVGID_00000016761810270042847510000002537209017851971774_);">
				<polygon class="st2" points="222.4,55.7 221.6,44.6 223.7,54.1 223.1,56.1 				"/>
			</g>
		</g>
		<path class="st8" d="M234.1,72.2l3.6-17.8l-3.8-0.7l-3.7,19C231.5,72.7,232.8,72.5,234.1,72.2z"/>
		<g>
			<defs>
				<path id="SVGID_00000152248731099267472150000004963015191257197979_" d="M234.1,72.2l3.6-17.8l-3.8-0.7l-3.7,19
					C231.5,72.7,232.8,72.5,234.1,72.2z"/>
			</defs>
			<clipPath id="SVGID_00000042696042600491475140000015586776476526959754_">
				<use xlink:href="#SVGID_00000152248731099267472150000004963015191257197979_"  style="overflow:visible;"/>
			</clipPath>
			<g style="clip-path:url(#SVGID_00000042696042600491475140000015586776476526959754_);">
				<path class="st2" d="M234.1,49.5c2.4,0.7,4.5,2.2,5.8,4.4c0.6,0.8,0.8,1.8,0.7,2.8c-0.2,0.9-0.7,1.6-1.5,2.1
					c-1.6,0.9-3.3,1.3-5.1,1.2c-1.1,0.1-2.3,0-3.4-0.5c-0.1-2.9,0.7-5.8,2.4-8.2"/>
			</g>
		</g>
		<path class="st27" d="M237.5,58.4c-1.2,0.2-2.4,0-3.5-0.7c-0.4,1.1-1.9,10.4-2.8,10.8s0.2-7.7,0.9-11.8s5.1-15.5,6.3-15.5
			S240.1,48.4,237.5,58.4z"/>
		<g>
			<defs>
				<path id="SVGID_00000086668903350868493210000003151423435935951275_" d="M237.5,58.4c-1.2,0.2-2.4,0-3.5-0.7
					c-0.4,1.1-1.9,10.4-2.8,10.8s0.2-7.7,0.9-11.8s5.1-15.5,6.3-15.5S240.1,48.4,237.5,58.4z"/>
			</defs>
			<clipPath id="SVGID_00000112605161596856672760000015067134564009436558_">
				<use xlink:href="#SVGID_00000086668903350868493210000003151423435935951275_"  style="overflow:visible;"/>
			</clipPath>
			<g style="clip-path:url(#SVGID_00000112605161596856672760000015067134564009436558_);">
				<polygon class="st2" points="235.3,59.3 236.2,48.3 234,57.7 234.6,59.8 				"/>
			</g>
		</g>
		<path class="st17" d="M178.7,88.7l-2,1.6l-3.8,21.7c0,0-27.6,36.6-27.4,37.2s1.9,4.6,1.9,4.6l54,7.2l24.1-40.2
			c0,0,2.7-25.3,1.9-25.9S178.7,88.7,178.7,88.7z"/>
		<g>
			<defs>
				<path id="SVGID_00000157297499180320453780000011308841244916194225_" d="M178.7,88.7l-2,1.6l-3.8,21.7c0,0-27.6,36.6-27.4,37.2
					s1.9,4.6,1.9,4.6l54,7.2l24.1-40.2c0,0,2.7-25.3,1.9-25.9S178.7,88.7,178.7,88.7z"/>
			</defs>
			<clipPath id="SVGID_00000172409627097348191280000004973702645985551261_">
				<use xlink:href="#SVGID_00000157297499180320453780000011308841244916194225_"  style="overflow:visible;"/>
			</clipPath>
			<g style="clip-path:url(#SVGID_00000172409627097348191280000004973702645985551261_);">
				<polygon class="st2" points="142.7,147.5 145.5,149.2 199.5,156.2 222.2,118.8 224.4,96.7 175.3,90.5 177.6,84.8 239.9,87.9 
					236.4,113.3 213.7,166.4 142.3,157 				"/>
				<polygon class="st30" points="179.1,94.4 176.8,111.1 219.8,116.9 221.7,99.7 				"/>
				<polygon class="st31" points="180.5,96 178.7,110 218.3,115.3 219.8,100.9 				"/>
				<g>
					<defs>
						<polygon id="SVGID_00000102504070676458714520000007913164574191258795_" points="180.5,96 178.7,110 218.3,115.3 
							219.8,100.9 						"/>
					</defs>
					<clipPath id="SVGID_00000037652066673530611890000017365685722417679776_">
						<use xlink:href="#SVGID_00000102504070676458714520000007913164574191258795_"  style="overflow:visible;"/>
					</clipPath>
					<g style="clip-path:url(#SVGID_00000037652066673530611890000017365685722417679776_);">
						<path class="st33" d="M219.1,85.4c-16.9,10.4-33.5,21.2-49.8,32.6c1.6,0.7,3.4,0.8,5,0.1c1.6-0.6,3.1-1.5,4.5-2.5
							c9.6-6.6,19.4-13.1,29.2-19.6c5-3.3,10-6.6,15.3-9.4c2.9-1.7,6.1-2.9,9.4-3.3c0.6,1.1-0.5,2.3-1.5,3l-49.1,33.2
							c0.5-0.1,1.1,0.2,1.2,0.7c0,0.1,0,0.2,0,0.3l3.7-2.3l51.8-32.7"/>
					</g>
				</g>
				<polygon class="st34" points="174.8,115.5 173.2,117.5 180.3,118.4 181.4,116.6 				"/>
				<polygon class="st34" points="183.8,116.8 182.2,118.7 189.3,119.6 190.4,117.8 				"/>
				<polygon class="st34" points="192.8,118.1 191.2,120 198.3,120.9 199.4,119.1 				"/>
				<polygon class="st34" points="201.8,119.4 200.2,121.3 207.3,122.2 208.4,120.4 				"/>
				<polygon class="st34" points="210.8,120.6 209.2,122.6 216.3,123.5 217.4,121.7 				"/>
				<polygon class="st34" points="172.1,119.2 170.6,121.2 177.6,122.1 178.7,120.3 				"/>
				<polygon class="st34" points="181.1,120.5 179.6,122.5 186.7,123.4 187.8,121.6 				"/>
				<polygon class="st34" points="190.1,121.8 188.6,123.8 195.7,124.7 196.8,122.9 				"/>
				<polygon class="st34" points="199.1,123.1 197.6,125.1 204.7,126 205.8,124.1 				"/>
				<polygon class="st34" points="208.2,124.4 206.6,126.4 213.7,127.2 214.8,125.4 				"/>
				<polygon class="st30" points="169,123.5 166.3,127.2 173.4,128.1 175.6,124.6 				"/>
				<polygon class="st30" points="178,124.8 175.3,128.5 182.4,129.4 184.6,125.9 				"/>
				<polygon class="st30" points="187,126.1 184.4,129.7 191.4,130.6 193.6,127.2 				"/>
				<polygon class="st30" points="196,127.4 193.4,131 200.4,131.9 202.6,128.5 				"/>
				<polygon class="st30" points="205,128.7 202.4,132.3 209.4,133.2 211.6,129.8 				"/>
				<polygon class="st30" points="165.6,128.4 162.9,132 170,132.9 172.2,129.4 				"/>
				<polygon class="st35" points="174.6,129.7 171.9,133.3 179,134.2 181.2,130.7 				"/>
				<polygon class="st35" points="183.6,131 180.9,134.6 188,135.5 190.2,132 				"/>
				<polygon class="st35" points="192.6,132.3 189.9,135.9 197,136.8 199.2,133.3 				"/>
				<polygon class="st30" points="201.6,133.6 198.9,137.2 206,138.1 208.2,134.6 				"/>
				<polygon class="st34" points="162.1,133.2 159.5,136.9 166.5,137.8 168.7,134.3 				"/>
				<polygon class="st35" points="171.1,134.5 168.5,138.2 175.5,139.1 177.7,135.6 				"/>
				<polygon class="st35" points="180.1,135.8 177.5,139.5 184.5,140.4 186.7,136.9 				"/>
				<polygon class="st35" points="189.1,137.1 186.5,140.7 193.5,141.6 195.8,138.2 				"/>
				<polygon class="st30" points="198.1,138.4 195.5,142 202.5,142.9 204.8,139.5 				"/>
				<polygon class="st34" points="158.7,138.1 156,141.7 163.1,142.6 165.3,139.2 				"/>
				<polygon class="st35" points="167.7,139.4 165,143 172.1,143.9 174.3,140.4 				"/>
				<polygon class="st35" points="176.7,140.7 174,144.3 181.1,145.2 183.3,141.7 				"/>
				<polygon class="st35" points="185.7,142 183,145.6 190.1,146.5 192.3,143 				"/>
				<polygon class="st36" points="155.2,143 152.6,146.6 159.6,147.5 161.9,144 				"/>
				<polygon class="st36" points="164.3,144.2 161.6,147.9 168.7,148.8 170.9,145.3 				"/>
				<polygon class="st36" points="173.3,145.5 170.6,149.2 177.7,150.1 179.9,146.6 				"/>
				<polygon class="st36" points="182.3,146.8 179.6,150.5 186.7,151.4 188.9,147.9 				"/>
				<polygon class="st30" points="194.6,143.5 188.6,151.7 195.7,152.6 201.2,144.5 				"/>
			</g>
		</g>
		<polygon class="st37" points="29.5,163.2 29.5,165.8 128.2,168.1 133.1,160.3 132.9,157.9 		"/>
		<polygon class="st38" points="39.3,155.5 132.9,157.9 127.2,166.1 29.5,163.2 		"/>
		<g>
			<defs>
				<polygon id="SVGID_00000099656521198338099530000005794876480053874108_" points="39.3,155.5 132.9,157.9 127.2,166.1 
					29.5,163.2 				"/>
			</defs>
			<clipPath id="SVGID_00000163067608855160921540000014655586833541520561_">
				<use xlink:href="#SVGID_00000099656521198338099530000005794876480053874108_"  style="overflow:visible;"/>
			</clipPath>
			<g style="clip-path:url(#SVGID_00000163067608855160921540000014655586833541520561_);">
				<polyline class="st40" points="46.1,152.5 38.8,160.7 40.6,160.8 47.2,153.3 				"/>
				<polyline class="st40" points="52.3,151.4 45,159.6 46.7,159.7 53.4,152.2 				"/>
				<polyline class="st40" points="56.7,151.8 49.4,159.9 51.2,160.1 57.8,152.5 				"/>
				<polyline class="st40" points="60.6,152.9 53.7,161.4 55.5,161.4 61.8,153.6 				"/>
				<polyline class="st40" points="66.7,151.5 59.8,160 61.6,160 67.9,152.2 				"/>
				<polyline class="st40" points="71.2,151.7 64.3,160.1 66,160.2 72.3,152.4 				"/>
				<polyline class="st40" points="75.2,152.9 68.3,161.4 70,161.4 76.3,153.6 				"/>
				<polyline class="st40" points="81.3,151.5 74.4,160 76.1,160 82.4,152.2 				"/>
				<polyline class="st40" points="85.7,151.7 78.8,160.1 80.6,160.2 86.9,152.4 				"/>
				<polyline class="st40" points="89.7,152.9 82.8,161.4 84.6,161.4 90.9,153.6 				"/>
				<polyline class="st40" points="95.8,151.5 88.9,160 90.7,160 97,152.2 				"/>
				<polyline class="st40" points="100.3,151.7 93.4,160.1 95.1,160.2 101.4,152.4 				"/>
				<polyline class="st40" points="103.8,153.5 96.9,162 98.6,162 104.9,154.2 				"/>
				<polyline class="st40" points="109.9,152.1 103,160.6 104.7,160.6 111.1,152.8 				"/>
				<polyline class="st40" points="114.4,152.3 107.5,160.8 109.2,160.8 115.5,153 				"/>
				<polyline class="st40" points="118.3,154.1 111.4,162.6 113.2,162.6 119.5,154.8 				"/>
				<polyline class="st40" points="124.5,152.7 117.6,161.2 119.3,161.2 125.6,153.4 				"/>
				<polyline class="st40" points="128.9,152.9 122,161.4 123.7,161.4 130.1,153.6 				"/>
			</g>
		</g>
		<path class="st41" d="M76.4,121.1c-1.5,1.1-3,5.5-1.1,6.6s14.6,2.8,16.6,2.2s5.5-4.7,5-7.5S80.3,118.1,76.4,121.1z"/>
		<g>
			<defs>
				<path id="SVGID_00000181075327590549862810000015769382569937283205_" d="M76.4,121.1c-1.5,1.1-3,5.5-1.1,6.6s14.6,2.8,16.6,2.2
					s5.5-4.7,5-7.5S80.3,118.1,76.4,121.1z"/>
			</defs>
			<clipPath id="SVGID_00000147216049636296131380000015316460235575881393_">
				<use xlink:href="#SVGID_00000181075327590549862810000015769382569937283205_"  style="overflow:visible;"/>
			</clipPath>
			<g style="clip-path:url(#SVGID_00000147216049636296131380000015316460235575881393_);">
				<path class="st43" d="M72.8,117.2c-0.8,2.5,1.2,5,3.3,6.5c2.1,1.6,4.5,2.7,7,3.2c3.5,0.6,7-0.3,10.4-1.2
					c1.2-0.4,2.4-0.6,3.7-0.6c1.3,0,2.4,0.8,3,1.9c0.4,1.3,0,2.8-1.1,3.7c-1.1,0.8-2.3,1.4-3.7,1.7c-5.6,1.6-11.4,2.2-17.2,1.8
					c-4.6-0.3-9.6-1.6-11.9-5.6c-0.5-0.7-0.6-1.7-0.2-2.4"/>
			</g>
		</g>
		<path class="st44" d="M215.3,148.6c-1.2,1.5-1.6,5.9,0.5,6.7c5.4,2.3,15.3,0.8,17-0.2s4.1-7.6-0.4-9.7
			C229.9,144.2,218.4,144.7,215.3,148.6z"/>
		<g>
			<defs>
				<path id="SVGID_00000063625955641186889480000001832645640861850043_" d="M215.3,148.6c-1.2,1.5-1.6,5.9,0.5,6.7
					c5.4,2.3,15.3,0.8,17-0.2s4.1-7.6-0.4-9.7C229.9,144.2,218.4,144.7,215.3,148.6z"/>
			</defs>
			<clipPath id="SVGID_00000101081693621526862050000004349087714266583990_">
				<use xlink:href="#SVGID_00000063625955641186889480000001832645640861850043_"  style="overflow:visible;"/>
			</clipPath>
			<g style="clip-path:url(#SVGID_00000101081693621526862050000004349087714266583990_);">
				<path class="st43" d="M210.5,148.5c0.1,2.6,2.9,4.2,5.5,4.9c2.5,0.7,5.1,0.9,7.6,0.4c3.5-0.7,6.6-2.9,9.3-5
					c0.9-0.8,2-1.5,3.2-1.9c1.5-0.7,3.4,0,4.1,1.5c0.4,1,0.3,2.1-0.3,3c-0.7,1.2-1.7,2.2-2.8,2.9c-4.6,3.5-9.8,6.2-15.4,8
					c-4.3,1.4-9.5,2-13.1-0.8c-0.8-0.5-1.2-1.3-1.1-2.2"/>
			</g>
		</g>
		<path class="st16" d="M146.8,123.9l-44.7-9c0,0-4.4,1-1,5c6.3,1.1,45.3,8.2,45.3,8.2l6.7-1.5L146.8,123.9z"/>
		<g>
			<defs>
				<path id="SVGID_00000078754110351660539820000010399689006399001277_" d="M146.8,123.9l-44.7-9c0,0-4.4,1-1,5
					c6.3,1.1,45.3,8.2,45.3,8.2l6.7-1.5L146.8,123.9z"/>
			</defs>
			<clipPath id="SVGID_00000129166292214247774970000016912721419611852179_">
				<use xlink:href="#SVGID_00000078754110351660539820000010399689006399001277_"  style="overflow:visible;"/>
			</clipPath>
			<g style="clip-path:url(#SVGID_00000129166292214247774970000016912721419611852179_);">
				<path class="st47" d="M154.1,121.8c0.6-0.1,1,0.7,1.1,1.3c0.5,1.4,0.7,2.9,0.7,4.4c0,1.5-0.7,2.9-1.9,3.8
					c-0.7,0.4-1.4,0.6-2.2,0.6c-2.2,0-4.2-1.3-5.2-3.2c-0.9-2-0.9-4.3,0.1-6.2c1-1.9,2.7-3.4,4.8-4.2"/>
				<path class="st47" d="M108.5,114.1c-1.2,2.4-1.4,5.2-0.5,7.8c0.4,0.7,0.5,1.5,0.5,2.3c-0.4,1-1.4,1.7-2.5,1.8
					c-3,0.4-6-1-7.6-3.6c-1.6-2.6-1.7-5.8-0.4-8.5c1.4-2.7,4-4.6,7-5"/>
				<path class="st48" d="M106.4,114.1c-1.2,2.4-1.4,5.2-0.5,7.8c0.4,0.7,0.5,1.5,0.5,2.3c-0.4,1-1.4,1.7-2.5,1.8
					c-3,0.3-6-1-7.7-3.6c-1.6-2.6-1.7-5.8-0.4-8.5c1.4-2.7,4-4.5,7-4.9"/>
				<path class="st17" d="M155.1,125c-0.6-0.9-1.4-2-2.5-2c-0.5,0-0.9,0.2-1.3,0.4c-0.9,0.5-1.6,1.3-2.1,2.3c-0.3,0.4-0.3,1,0,1.4
					c0.9,1.7,2.9,2.6,4.7,2"/>
				<path class="st2" d="M154.5,127.5l-8.8-1.9l-44.1-8.3c0,0-1.7,1.9,0.7,4.5s49.6,9.5,49.6,9.5L154.5,127.5z"/>
			</g>
		</g>
		<path class="st16" d="M61.5,139.1l-45.2,5.6c0,0-3.9,2.3,0.7,5.1c6.4-0.9,45.6-6.6,45.6-6.6l5.9-3.5L61.5,139.1z"/>
		<g>
			<defs>
				<path id="SVGID_00000083074746437250136290000018343235405380739201_" d="M61.5,139.1l-45.2,5.6c0,0-3.9,2.3,0.7,5.1
					c6.4-0.9,45.6-6.6,45.6-6.6l5.9-3.5L61.5,139.1z"/>
			</defs>
			<clipPath id="SVGID_00000143604851198516789630000013450244537289904297_">
				<use xlink:href="#SVGID_00000083074746437250136290000018343235405380739201_"  style="overflow:visible;"/>
			</clipPath>
			<g style="clip-path:url(#SVGID_00000143604851198516789630000013450244537289904297_);">
				<path class="st47" d="M67.7,134.8c0.6-0.3,1.1,0.3,1.5,0.8c0.9,1.2,1.6,2.5,2.1,3.9c0.5,1.4,0.3,3-0.6,4.2
					c-0.5,0.6-1.2,1.1-1.9,1.3c-2.1,0.7-4.4,0.2-6-1.4c-1.5-1.6-2.2-3.8-1.9-5.9c0.3-2.2,1.5-4.1,3.2-5.5"/>
				<path class="st47" d="M22,142c-0.4,2.7,0.3,5.4,2,7.5c0.6,0.5,1,1.2,1.2,2c-0.1,1.1-0.8,2.1-1.8,2.5c-2.7,1.3-6,0.9-8.3-1
					c-2.3-1.9-3.5-4.9-3.1-7.9c0.5-3,2.3-5.5,5-6.9"/>
				<path class="st48" d="M20.1,142.7c-0.4,2.7,0.3,5.4,2,7.5c0.6,0.5,1,1.2,1.2,2c-0.1,1.1-0.8,2.1-1.8,2.5c-2.8,1.3-6,0.9-8.4-1
					c-2.3-1.9-3.5-4.9-3.1-7.9c0.5-3,2.4-5.5,5.1-6.9"/>
				<path class="st17" d="M69.6,137.5c-0.9-0.7-2-1.4-3-1c-0.4,0.2-0.8,0.4-1.1,0.8c-0.7,0.8-1.1,1.8-1.2,2.8c0,0.2,0,0.5,0,0.7
					c0.1,0.3,0.2,0.5,0.4,0.7c1.4,1.3,3.5,1.5,5.1,0.4"/>
				<path class="st2" d="M69.9,140.1l-9,1l-44.5,6.1c0,0-1,2.3,2,4s50-6.7,50-6.7L69.9,140.1z"/>
			</g>
		</g>
	</g>
</g>
</svg>
