<?xml version="1.0" encoding="UTF-8" ?>
<!DOCTYPE svg PUBLIC "-//W3C//DTD SVG 1.1//EN" "http://www.w3.org/Graphics/SVG/1.1/DTD/svg11.dtd">
<svg width="512pt" height="512pt" viewBox="0 0 512 512" version="1.1" xmlns="http://www.w3.org/2000/svg">
<g id="#e5ecf1ff">
<path fill="#e5ecf1" opacity="1.00" d=" M 79.11 0.00 L 409.84 0.00 C 414.63 0.27 419.02 4.14 419.28 9.04 C 419.60 15.73 419.31 22.43 419.39 29.13 C 419.31 142.19 419.50 255.25 419.30 368.31 C 309.21 368.52 199.13 368.33 89.04 368.41 C 82.62 368.48 76.13 367.95 69.76 369.05 C 69.72 249.69 69.75 130.34 69.74 10.98 C 69.24 5.49 73.60 0.36 79.11 0.00 M 196.57 39.33 C 184.76 66.89 173.07 94.52 161.19 122.05 C 152.52 102.90 144.09 83.63 135.52 64.44 C 134.45 62.10 132.73 59.64 130.00 59.21 C 125.70 58.54 121.32 58.90 116.99 58.82 C 113.93 58.94 110.32 58.63 108.04 61.11 C 104.18 64.59 105.45 71.68 110.28 73.63 C 114.38 74.84 118.73 74.26 122.94 74.29 C 132.23 94.97 141.37 115.72 150.60 136.43 C 152.16 139.81 153.34 143.43 155.48 146.51 C 158.28 150.23 164.69 150.12 167.32 146.26 C 169.43 143.12 170.54 139.45 172.07 136.01 C 184.44 107.12 196.73 78.19 209.14 49.31 C 260.42 49.38 311.71 49.27 363.00 49.37 C 365.74 49.31 368.92 49.23 370.84 46.95 C 373.93 43.94 373.61 38.36 370.22 35.70 C 368.54 34.08 366.10 34.03 363.92 33.93 C 310.94 33.95 257.95 33.93 204.97 33.94 C 201.24 33.57 197.80 35.82 196.57 39.33 M 224.42 78.18 C 223.97 81.02 225.75 83.49 227.25 85.72 C 233.06 93.86 238.72 102.11 244.51 110.26 C 238.28 119.44 231.64 128.34 225.54 137.60 C 222.22 142.34 226.31 149.47 232.01 149.24 C 235.56 149.44 238.05 146.61 239.87 143.96 C 244.51 137.21 249.22 130.50 253.94 123.81 C 258.70 130.53 263.41 137.28 268.09 144.06 C 269.62 146.11 271.31 148.49 274.00 149.01 C 278.11 150.16 282.69 147.16 283.36 142.97 C 284.05 140.09 282.36 137.43 280.82 135.15 C 274.96 126.89 269.15 118.58 263.38 110.26 C 269.19 102.08 274.85 93.80 280.70 85.65 C 282.42 83.14 284.30 80.10 283.18 76.95 C 282.21 73.10 277.85 70.57 274.02 71.59 C 271.12 72.13 269.43 74.74 267.81 76.93 C 263.25 83.59 258.60 90.20 253.94 96.80 C 249.30 90.20 244.65 83.61 240.09 76.96 C 238.43 74.67 236.59 72.01 233.58 71.52 C 229.35 70.57 224.81 73.85 224.42 78.18 M 111.43 171.60 C 106.27 172.66 103.97 179.64 107.32 183.65 C 109.22 186.47 112.85 186.83 115.96 186.77 C 135.31 186.70 154.66 186.73 174.01 186.75 C 176.38 186.70 179.00 186.57 180.86 184.89 C 184.25 182.19 184.51 176.59 181.39 173.58 C 179.54 171.53 176.64 171.24 174.04 171.24 C 154.71 171.27 135.38 171.30 116.04 171.23 C 114.50 171.26 112.95 171.29 111.43 171.60 M 301.34 171.49 C 296.30 172.16 293.47 178.56 296.16 182.81 C 297.81 186.04 301.65 186.93 304.99 186.76 C 324.69 186.70 344.38 186.75 364.08 186.73 C 367.59 186.94 371.34 185.17 372.52 181.67 C 374.36 177.21 370.95 171.56 366.06 171.41 C 358.69 170.99 351.29 171.41 343.91 171.27 C 329.73 171.44 315.51 170.94 301.34 171.49 M 110.30 207.32 C 105.71 209.17 104.23 215.74 107.59 219.38 C 110.34 222.81 115.17 222.03 119.05 222.18 C 137.66 222.04 156.28 222.22 174.89 222.10 C 178.05 222.23 181.41 220.83 182.78 217.83 C 185.46 213.04 181.46 206.42 175.93 206.74 C 156.27 206.53 136.59 206.79 116.92 206.62 C 114.70 206.67 112.42 206.60 110.30 207.32 M 299.38 207.47 C 294.85 209.55 293.70 216.19 297.26 219.68 C 299.41 222.21 302.93 222.06 305.95 222.11 C 325.62 221.96 345.30 222.17 364.97 222.01 C 369.37 222.35 373.37 218.36 372.98 213.95 C 372.89 209.82 369.03 206.43 364.93 206.71 C 345.28 206.57 325.63 206.77 305.98 206.62 C 303.77 206.68 301.45 206.60 299.38 207.47 M 124.40 255.56 C 121.65 257.38 119.62 260.05 117.61 262.62 C 109.65 272.91 105.42 285.98 105.79 298.98 C 106.07 313.83 112.36 328.60 123.18 338.81 C 127.37 342.84 135.12 339.80 135.69 334.11 C 136.53 330.03 133.07 327.13 130.80 324.28 C 118.18 309.72 118.04 286.18 130.40 271.42 C 132.80 268.39 136.59 265.35 135.68 261.00 C 135.03 255.97 128.75 252.88 124.40 255.56 M 300.28 255.45 C 296.59 257.26 294.86 262.38 297.11 265.91 C 299.35 269.29 302.44 272.03 304.50 275.55 C 313.76 290.30 312.56 310.89 301.20 324.18 C 298.91 327.07 295.37 329.96 296.21 334.10 C 296.78 339.82 304.58 342.86 308.75 338.78 C 320.04 328.12 326.35 312.54 326.14 297.06 C 326.09 283.06 320.63 269.25 311.24 258.90 C 308.76 255.59 304.25 253.19 300.28 255.45 M 144.34 274.04 C 143.68 277.24 145.79 279.98 147.47 282.47 C 151.08 287.50 154.64 292.57 158.12 297.70 C 154.44 302.86 150.85 308.08 147.15 313.23 C 145.81 315.29 144.14 317.44 144.25 320.04 C 144.18 324.14 147.93 327.82 152.03 327.62 C 154.80 327.71 157.15 325.90 158.69 323.74 C 161.76 319.63 164.53 315.30 167.52 311.12 C 171.05 315.74 173.96 320.83 177.74 325.25 C 180.92 329.01 187.55 328.11 189.82 323.80 C 191.74 320.83 190.78 317.01 188.75 314.37 C 184.85 308.74 180.80 303.21 177.01 297.50 C 180.73 292.38 184.30 287.15 187.99 282.00 C 189.86 279.42 191.75 276.17 190.49 272.90 C 189.02 267.69 181.51 265.73 177.87 269.84 C 174.01 274.26 171.11 279.41 167.61 284.12 C 165.01 280.47 162.39 276.85 159.92 273.12 C 158.32 271.07 156.76 268.54 154.05 267.91 C 149.82 266.55 144.95 269.66 144.34 274.04 M 245.27 271.31 C 243.29 274.25 244.17 278.11 246.22 280.77 C 250.13 286.43 254.18 291.98 258.03 297.68 C 254.37 302.82 250.80 308.01 247.13 313.13 C 245.55 315.47 243.64 318.06 244.24 321.07 C 244.73 325.09 248.83 328.23 252.85 327.56 C 255.88 327.31 257.89 324.77 259.54 322.50 C 269.22 308.52 279.03 294.63 288.77 280.69 C 290.78 278.05 291.59 274.25 289.66 271.33 C 287.28 266.99 280.42 266.26 277.38 270.27 C 273.77 274.64 270.87 279.54 267.53 284.11 C 264.10 279.65 261.24 274.76 257.68 270.42 C 254.68 266.29 247.72 266.92 245.27 271.31 M 210.96 277.94 C 209.11 281.59 209.91 285.91 209.79 289.85 C 205.13 290.10 199.12 288.64 195.82 292.88 C 192.66 296.64 194.37 303.11 199.02 304.75 C 202.52 305.69 206.19 305.32 209.78 305.32 C 210.03 309.97 208.53 315.96 212.74 319.29 C 216.57 322.57 223.24 320.69 224.74 315.86 C 225.53 312.40 225.26 308.83 225.26 305.32 C 229.03 305.28 232.99 305.82 236.62 304.51 C 241.12 302.40 242.27 295.78 238.71 292.30 C 235.21 288.74 229.70 290.11 225.24 289.85 C 225.13 285.92 225.88 281.66 224.12 278.01 C 221.43 273.17 213.69 273.13 210.96 277.94 M 342.48 275.66 C 337.05 276.73 334.88 284.28 338.73 288.18 C 341.50 291.48 346.20 290.70 350.02 290.84 C 355.87 290.57 361.79 291.33 367.60 290.38 C 372.78 289.05 374.76 281.83 371.09 277.98 C 368.40 274.73 363.81 275.36 360.06 275.29 C 354.21 275.56 348.30 274.87 342.48 275.66 M 343.40 304.63 C 340.11 304.93 337.33 307.71 336.87 310.95 C 336.11 314.93 339.05 319.20 343.10 319.72 C 349.05 320.28 355.04 319.77 361.01 319.99 C 364.11 319.84 367.69 320.32 370.22 318.12 C 373.76 315.35 373.91 309.45 370.51 306.51 C 367.96 304.07 364.18 304.50 360.96 304.42 C 355.11 304.63 349.24 304.15 343.40 304.63 Z" />
<path fill="#e5ecf1" opacity="1.00" d=" M 69.77 430.35 C 72.17 430.75 74.59 430.89 77.01 430.95 C 191.10 430.90 305.19 430.94 419.29 430.92 C 419.53 443.63 419.26 456.33 419.46 469.03 C 419.35 472.88 419.42 477.45 416.19 480.16 C 411.76 484.03 405.38 482.64 400.00 482.90 C 301.02 482.82 202.03 482.88 103.05 482.86 C 95.09 482.79 87.12 483.00 79.16 482.79 C 74.10 482.63 69.72 478.11 69.80 473.03 C 69.67 458.81 69.75 444.58 69.77 430.35 Z" />
</g>
<g id="#b6c1ccff">
<path fill="#b6c1cc" opacity="1.00" d=" M 419.39 29.13 C 427.60 29.27 435.82 28.88 444.02 29.30 C 449.23 29.75 453.02 34.84 452.69 39.94 C 452.71 149.34 452.69 258.74 452.70 368.15 C 441.57 368.30 430.43 368.04 419.30 368.31 C 419.50 255.25 419.31 142.19 419.39 29.13 Z" />
<path fill="#b6c1cc" opacity="1.00" d=" M 419.29 430.92 C 430.42 430.98 441.56 430.86 452.70 430.99 C 452.69 454.33 452.71 477.67 452.69 501.01 C 453.18 506.66 448.61 511.92 442.88 512.00 L 112.17 512.00 C 107.58 511.43 103.44 507.76 103.17 503.00 C 102.84 496.29 103.15 489.57 103.05 482.86 C 202.03 482.88 301.02 482.82 400.00 482.90 C 405.38 482.64 411.76 484.03 416.19 480.16 C 419.42 477.45 419.35 472.88 419.46 469.03 C 419.26 456.33 419.53 443.63 419.29 430.92 Z" />
</g>
<g id="#8f818fff">
<path fill="#8f818f" opacity="1.00" d=" M 196.57 39.33 C 197.80 35.82 201.24 33.57 204.97 33.94 C 257.95 33.93 310.94 33.95 363.92 33.93 C 366.10 34.03 368.54 34.08 370.22 35.70 C 373.61 38.36 373.93 43.94 370.84 46.95 C 368.92 49.23 365.74 49.31 363.00 49.37 C 311.71 49.27 260.42 49.38 209.14 49.31 C 196.73 78.19 184.44 107.12 172.07 136.01 C 170.54 139.45 169.43 143.12 167.32 146.26 C 164.69 150.12 158.28 150.23 155.48 146.51 C 153.34 143.43 152.16 139.81 150.60 136.43 C 141.37 115.72 132.23 94.97 122.94 74.29 C 118.73 74.26 114.38 74.84 110.28 73.63 C 105.45 71.68 104.18 64.59 108.04 61.11 C 110.32 58.63 113.93 58.94 116.99 58.82 C 121.32 58.90 125.70 58.54 130.00 59.21 C 132.73 59.64 134.45 62.10 135.52 64.44 C 144.09 83.63 152.52 102.90 161.19 122.05 C 173.07 94.52 184.76 66.89 196.57 39.33 Z" />
<path fill="#8f818f" opacity="1.00" d=" M 224.42 78.18 C 224.81 73.85 229.35 70.57 233.58 71.52 C 236.59 72.01 238.43 74.67 240.09 76.96 C 244.65 83.61 249.30 90.20 253.94 96.80 C 258.60 90.20 263.25 83.59 267.81 76.93 C 269.43 74.74 271.12 72.13 274.02 71.59 C 277.85 70.57 282.21 73.10 283.18 76.95 C 284.30 80.10 282.42 83.14 280.70 85.65 C 274.85 93.80 269.19 102.08 263.38 110.26 C 269.15 118.58 274.96 126.89 280.82 135.15 C 282.36 137.43 284.05 140.09 283.36 142.97 C 282.69 147.16 278.11 150.16 274.00 149.01 C 271.31 148.49 269.62 146.11 268.09 144.06 C 263.41 137.28 258.70 130.53 253.94 123.81 C 249.22 130.50 244.51 137.21 239.87 143.96 C 238.05 146.61 235.56 149.44 232.01 149.24 C 226.31 149.47 222.22 142.34 225.54 137.60 C 231.64 128.34 238.28 119.44 244.51 110.26 C 238.72 102.11 233.06 93.86 227.25 85.72 C 225.75 83.49 223.97 81.02 224.42 78.18 Z" />
<path fill="#8f818f" opacity="1.00" d=" M 111.43 171.60 C 112.95 171.29 114.50 171.26 116.04 171.23 C 135.38 171.30 154.71 171.27 174.04 171.24 C 176.64 171.24 179.54 171.53 181.39 173.58 C 184.51 176.59 184.25 182.19 180.86 184.89 C 179.00 186.57 176.38 186.70 174.01 186.75 C 154.66 186.73 135.31 186.70 115.96 186.77 C 112.85 186.83 109.22 186.47 107.32 183.65 C 103.97 179.64 106.27 172.66 111.43 171.60 Z" />
<path fill="#8f818f" opacity="1.00" d=" M 301.34 171.49 C 315.51 170.94 329.73 171.44 343.91 171.27 C 351.29 171.41 358.69 170.99 366.06 171.41 C 370.95 171.56 374.36 177.21 372.52 181.67 C 371.34 185.17 367.59 186.94 364.08 186.73 C 344.38 186.75 324.69 186.70 304.99 186.76 C 301.65 186.93 297.81 186.04 296.16 182.81 C 293.47 178.56 296.30 172.16 301.34 171.49 Z" />
<path fill="#8f818f" opacity="1.00" d=" M 110.30 207.32 C 112.42 206.60 114.70 206.67 116.92 206.62 C 136.59 206.79 156.27 206.53 175.93 206.74 C 181.46 206.42 185.46 213.04 182.78 217.83 C 181.41 220.83 178.05 222.23 174.89 222.10 C 156.28 222.22 137.66 222.04 119.05 222.18 C 115.17 222.03 110.34 222.81 107.59 219.38 C 104.23 215.74 105.71 209.17 110.30 207.32 Z" />
<path fill="#8f818f" opacity="1.00" d=" M 299.38 207.47 C 301.45 206.60 303.77 206.68 305.98 206.62 C 325.63 206.77 345.28 206.57 364.93 206.71 C 369.03 206.43 372.89 209.82 372.98 213.95 C 373.37 218.36 369.37 222.35 364.97 222.01 C 345.30 222.17 325.62 221.96 305.95 222.11 C 302.93 222.06 299.41 222.21 297.26 219.68 C 293.70 216.19 294.85 209.55 299.38 207.47 Z" />
<path fill="#8f818f" opacity="1.00" d=" M 124.40 255.56 C 128.75 252.88 135.03 255.97 135.68 261.00 C 136.59 265.35 132.80 268.39 130.40 271.42 C 118.04 286.18 118.18 309.72 130.80 324.28 C 133.07 327.13 136.53 330.03 135.69 334.11 C 135.12 339.80 127.37 342.84 123.18 338.81 C 112.36 328.60 106.07 313.83 105.79 298.98 C 105.42 285.98 109.65 272.91 117.61 262.62 C 119.62 260.05 121.65 257.38 124.40 255.56 Z" />
<path fill="#8f818f" opacity="1.00" d=" M 300.28 255.45 C 304.25 253.19 308.76 255.59 311.24 258.90 C 320.63 269.25 326.09 283.06 326.14 297.06 C 326.35 312.54 320.04 328.12 308.75 338.78 C 304.58 342.86 296.78 339.82 296.21 334.10 C 295.37 329.96 298.91 327.07 301.20 324.18 C 312.56 310.89 313.76 290.30 304.50 275.55 C 302.44 272.03 299.35 269.29 297.11 265.91 C 294.86 262.38 296.59 257.26 300.28 255.45 Z" />
<path fill="#8f818f" opacity="1.00" d=" M 144.34 274.04 C 144.95 269.66 149.82 266.55 154.05 267.91 C 156.76 268.54 158.32 271.07 159.92 273.12 C 162.39 276.85 165.01 280.47 167.61 284.12 C 171.11 279.41 174.01 274.26 177.87 269.84 C 181.51 265.73 189.02 267.69 190.49 272.90 C 191.75 276.17 189.86 279.42 187.99 282.00 C 184.30 287.15 180.73 292.38 177.01 297.50 C 180.80 303.21 184.85 308.74 188.75 314.37 C 190.78 317.01 191.74 320.83 189.82 323.80 C 187.55 328.11 180.92 329.01 177.74 325.25 C 173.96 320.83 171.05 315.74 167.52 311.12 C 164.53 315.30 161.76 319.63 158.69 323.74 C 157.15 325.90 154.80 327.71 152.03 327.62 C 147.93 327.82 144.18 324.14 144.25 320.04 C 144.14 317.44 145.81 315.29 147.15 313.23 C 150.85 308.08 154.44 302.86 158.12 297.70 C 154.64 292.57 151.08 287.50 147.47 282.47 C 145.79 279.98 143.68 277.24 144.34 274.04 Z" />
<path fill="#8f818f" opacity="1.00" d=" M 245.27 271.31 C 247.72 266.92 254.68 266.29 257.68 270.42 C 261.24 274.76 264.10 279.65 267.53 284.11 C 270.87 279.54 273.77 274.64 277.38 270.27 C 280.42 266.26 287.28 266.99 289.66 271.33 C 291.59 274.25 290.78 278.05 288.77 280.69 C 279.03 294.63 269.22 308.52 259.54 322.50 C 257.89 324.77 255.88 327.31 252.85 327.56 C 248.83 328.23 244.73 325.09 244.24 321.07 C 243.64 318.06 245.55 315.47 247.13 313.13 C 250.80 308.01 254.37 302.82 258.03 297.68 C 254.18 291.98 250.13 286.43 246.22 280.77 C 244.17 278.11 243.29 274.25 245.27 271.31 Z" />
<path fill="#8f818f" opacity="1.00" d=" M 210.96 277.94 C 213.69 273.13 221.43 273.17 224.12 278.01 C 225.88 281.66 225.13 285.92 225.24 289.85 C 229.70 290.11 235.21 288.74 238.71 292.30 C 242.27 295.78 241.12 302.40 236.62 304.51 C 232.99 305.82 229.03 305.28 225.26 305.32 C 225.26 308.83 225.53 312.40 224.74 315.86 C 223.24 320.69 216.57 322.57 212.74 319.29 C 208.53 315.96 210.03 309.97 209.78 305.32 C 206.19 305.32 202.52 305.69 199.02 304.75 C 194.37 303.11 192.66 296.64 195.82 292.88 C 199.12 288.64 205.13 290.10 209.79 289.85 C 209.91 285.91 209.11 281.59 210.96 277.94 Z" />
<path fill="#8f818f" opacity="1.00" d=" M 342.48 275.66 C 348.30 274.87 354.21 275.56 360.06 275.29 C 363.81 275.36 368.40 274.73 371.09 277.98 C 374.76 281.83 372.78 289.05 367.60 290.38 C 361.79 291.33 355.87 290.57 350.02 290.84 C 346.20 290.70 341.50 291.48 338.73 288.18 C 334.88 284.28 337.05 276.73 342.48 275.66 Z" />
<path fill="#8f818f" opacity="1.00" d=" M 343.40 304.63 C 349.24 304.15 355.11 304.63 360.96 304.42 C 364.18 304.50 367.96 304.07 370.51 306.51 C 373.91 309.45 373.76 315.35 370.22 318.12 C 367.69 320.32 364.11 319.84 361.01 319.99 C 355.04 319.77 349.05 320.28 343.10 319.72 C 339.05 319.20 336.11 314.93 336.87 310.95 C 337.33 307.71 340.11 304.93 343.40 304.63 Z" />
<path fill="#8f818f" opacity="1.00" d=" M 32.03 400.02 C 31.67 396.02 35.59 393.80 38.36 391.76 C 44.23 391.98 50.11 391.76 55.98 391.83 C 58.70 391.97 61.87 391.98 63.81 394.23 C 66.66 396.97 66.73 402.03 63.88 404.81 C 61.68 407.33 58.08 407.26 55.03 407.38 C 49.35 407.35 43.66 407.46 37.99 407.22 C 35.50 405.39 32.24 403.46 32.03 400.02 Z" />
</g>
<g id="#fcdd2eff">
<path fill="#fcdd2e" opacity="1.00" d=" M 69.76 369.05 C 76.13 367.95 82.62 368.48 89.04 368.41 C 199.13 368.33 309.21 368.52 419.30 368.31 C 430.43 368.04 441.57 368.30 452.70 368.15 C 456.18 368.16 459.69 367.99 463.13 368.66 C 448.57 368.14 433.98 368.55 419.42 368.51 C 419.41 381.65 419.31 394.79 419.47 407.92 L 419.15 407.92 C 323.10 407.96 227.05 407.91 131.00 407.94 C 100.46 408.06 69.92 407.63 39.39 408.23 C 39.04 407.98 38.34 407.47 37.99 407.22 C 43.66 407.46 49.35 407.35 55.03 407.38 C 58.08 407.26 61.68 407.33 63.88 404.81 C 66.73 402.03 66.66 396.97 63.81 394.23 C 61.87 391.98 58.70 391.97 55.98 391.83 C 50.11 391.76 44.23 391.98 38.36 391.76 C 49.07 384.53 58.71 375.74 69.76 369.05 Z" />
</g>
<g id="#fc8086ff">
<path fill="#fc8086" opacity="1.00" d=" M 419.42 368.51 C 433.98 368.55 448.57 368.14 463.13 368.66 C 472.93 370.39 480.31 379.92 479.98 389.81 C 478.41 395.75 475.28 401.67 469.81 404.85 C 465.43 407.71 460.04 408.03 454.97 407.99 C 443.14 407.87 431.30 407.96 419.47 407.92 C 419.31 394.79 419.41 381.65 419.42 368.51 Z" />
</g>
<g id="#fa4954ff">
<path fill="#fa4954" opacity="1.00" d=" M 469.81 404.85 C 475.28 401.67 478.41 395.75 479.98 389.81 C 480.01 396.52 480.01 403.24 480.02 409.97 C 480.29 418.81 474.08 427.22 465.76 430.00 C 461.59 431.57 457.05 430.90 452.70 430.99 C 441.56 430.86 430.42 430.98 419.29 430.92 C 419.12 423.26 419.25 415.59 419.15 407.92 L 419.47 407.92 C 431.30 407.96 443.14 407.87 454.97 407.99 C 460.04 408.03 465.43 407.71 469.81 404.85 Z" />
</g>
<g id="#f9c301ff">
<path fill="#f9c301" opacity="1.00" d=" M 39.39 408.23 C 69.92 407.63 100.46 408.06 131.00 407.94 C 227.05 407.91 323.10 407.96 419.15 407.92 C 419.25 415.59 419.12 423.26 419.29 430.92 C 305.19 430.94 191.10 430.90 77.01 430.95 C 74.59 430.89 72.17 430.75 69.77 430.35 C 67.14 429.05 64.75 427.33 62.41 425.56 C 54.76 419.76 47.04 414.04 39.39 408.23 Z" />
</g>
</svg>
