<svg id="Capa_1" enable-background="new 0 0 512.001 512.001" height="512" viewBox="0 0 512.001 512.001" width="512" xmlns="http://www.w3.org/2000/svg"><g><g><g><g><g><path d="m33.114 70.164h-25.614c-4.142 0-7.5-3.357-7.5-7.5s3.358-7.5 7.5-7.5h25.614c4.142 0 7.5 3.357 7.5 7.5s-3.358 7.5-7.5 7.5z" fill="#3b4a51"/></g><g><path d="m33.114 160.164h-25.614c-4.142 0-7.5-3.357-7.5-7.5s3.358-7.5 7.5-7.5h25.614c4.142 0 7.5 3.357 7.5 7.5s-3.358 7.5-7.5 7.5z" fill="#3b4a51"/></g><g><path d="m33.114 250.164h-25.614c-4.142 0-7.5-3.357-7.5-7.5s3.358-7.5 7.5-7.5h25.614c4.142 0 7.5 3.357 7.5 7.5s-3.358 7.5-7.5 7.5z" fill="#3b4a51"/></g><g><path d="m33.114 340.164h-25.614c-4.142 0-7.5-3.357-7.5-7.5s3.358-7.5 7.5-7.5h25.614c4.142 0 7.5 3.357 7.5 7.5s-3.358 7.5-7.5 7.5z" fill="#3b4a51"/></g><g><path d="m33.114 430.164h-25.614c-4.142 0-7.5-3.357-7.5-7.5s3.358-7.5 7.5-7.5h25.614c4.142 0 7.5 3.357 7.5 7.5s-3.358 7.5-7.5 7.5z" fill="#3b4a51"/></g></g><g><g><path d="m76 512c-4.142 0-7.5-3.357-7.5-7.5v-25.614c0-4.143 3.358-7.5 7.5-7.5s7.5 3.357 7.5 7.5v25.614c0 4.143-3.358 7.5-7.5 7.5z" fill="#3b4a51"/></g><g><path d="m166 512c-4.142 0-7.5-3.357-7.5-7.5v-25.614c0-4.143 3.358-7.5 7.5-7.5s7.5 3.357 7.5 7.5v25.614c0 4.143-3.358 7.5-7.5 7.5z" fill="#3b4a51"/></g><g><path d="m256 512c-4.142 0-7.5-3.357-7.5-7.5v-25.614c0-4.143 3.358-7.5 7.5-7.5 4.143 0 7.5 3.357 7.5 7.5v25.614c0 4.143-3.357 7.5-7.5 7.5z" fill="#3b4a51"/></g><g><path d="m346 512c-4.143 0-7.5-3.357-7.5-7.5v-25.614c0-4.143 3.357-7.5 7.5-7.5s7.5 3.357 7.5 7.5v25.614c0 4.143-3.357 7.5-7.5 7.5z" fill="#3b4a51"/></g><g><path d="m436 512c-4.143 0-7.5-3.357-7.5-7.5v-25.614c0-4.143 3.357-7.5 7.5-7.5s7.5 3.357 7.5 7.5v25.614c0 4.143-3.357 7.5-7.5 7.5z" fill="#3b4a51"/></g></g><g><path d="m504.5 512h-467c-20.678 0-37.5-16.822-37.5-37.5v-467c0-4.142 3.358-7.5 7.5-7.5s7.5 3.358 7.5 7.5v467c0 12.406 10.093 22.5 22.5 22.5h467c4.143 0 7.5 3.357 7.5 7.5s-3.357 7.5-7.5 7.5z" fill="#596c76"/></g></g></g><g><path d="m415 50.5h-93c-3.866 0-7-3.134-7-7v-29c0-3.866 3.134-7 7-7h93c3.866 0 7 3.134 7 7v29c0 3.866-3.134 7-7 7z" fill="#8993da"/><path d="m415 7.5h-30c3.866 0 7 3.134 7 7v29c0 3.866-3.134 7-7 7h30c3.866 0 7-3.134 7-7v-29c0-3.866-3.134-7-7-7z" fill="#707dd3"/><path d="m250 50.5h-93c-3.866 0-7-3.134-7-7v-29c0-3.866 3.134-7 7-7h93c3.866 0 7 3.134 7 7v29c0 3.866-3.134 7-7 7z" fill="#e28086"/><path d="m250 7.5h-30c3.866 0 7 3.134 7 7v29c0 3.866-3.134 7-7 7h30c3.866 0 7-3.134 7-7v-29c0-3.866-3.134-7-7-7z" fill="#dd636e"/><g><path d="m257 93.107h-107c-4.142 0-7.5-3.357-7.5-7.5s3.358-7.5 7.5-7.5h107c4.143 0 7.5 3.357 7.5 7.5s-3.357 7.5-7.5 7.5z" fill="#e28086"/></g><g><path d="m422 93.107h-107c-4.143 0-7.5-3.357-7.5-7.5s3.357-7.5 7.5-7.5h107c4.143 0 7.5 3.357 7.5 7.5s-3.357 7.5-7.5 7.5z" fill="#8993da"/></g></g><g><g><path d="m241.082 359.123c-2.91 0-5.837-.878-8.373-2.67l-87.814-62.067-22.509 31.848c-2.39 3.382-7.072 4.184-10.453 1.796-3.383-2.391-4.187-7.071-1.796-10.454l22.797-32.256c4.616-6.528 13.681-8.086 20.21-3.472l87.877 62.112 107.903-108.385c4.85-4.873 12.533-5.658 18.271-1.867l38.242 25.275 92.928-132.062c2.384-3.388 7.062-4.199 10.45-1.817 3.387 2.384 4.201 7.063 1.817 10.45l-93.208 132.46c-4.545 6.457-13.265 8.105-19.854 3.751l-38.306-25.317-107.91 108.394c-2.817 2.829-6.53 4.281-10.272 4.281z" fill="#8993da"/></g><g><path d="m135.898 443.74c-.988 0-1.993-.196-2.958-.611-3.805-1.636-5.564-6.047-3.929-9.853l81.136-188.765c1.947-4.531 6.013-7.733 10.874-8.566 4.862-.827 9.761.836 13.105 4.46l105.141 113.989 41.32-48.16c2.104-2.452 5.009-4.15 8.179-4.78l113.562-22.566c4.061-.804 8.01 1.832 8.818 5.895.807 4.062-1.832 8.011-5.895 8.818l-113.393 22.532-41.573 48.455c-2.694 3.14-6.611 4.982-10.746 5.057-.086.001-.173.002-.259.002-4.042 0-7.913-1.692-10.658-4.669l-104.998-113.836-80.832 188.058c-1.22 2.839-3.987 4.54-6.894 4.54z" fill="#e28086"/></g></g></g></svg>
