<svg xmlns="http://www.w3.org/2000/svg" xmlns:xlink="http://www.w3.org/1999/xlink" width="578.633pt" height="349.531pt" viewBox="0 0 578.633 349.531"><defs><path id="a" d="M.5-1.9375C.5-1.125 1.8125.21875 4.48438.21875c2.75 0 4.48437-1.39062 4.48437-3.79687 0-2.54688-2.1875-3.29688-3.23437-3.39063v-.07812c1.03125-.15625 2.67187-.92188 2.67187-2.79688 0-2.09375-1.64062-3.03125-3.67187-3.03125C2.23438-12.875 1-11.42187 1-10.60937c0 .57812.67188.90625.9375.90625.23438 0 .375-.14063.45313-.39063.42187-1.28125 1.14062-2.10937 2.20312-2.10937 1.48438 0 1.875 1.3125 1.875 2.375 0 1.125-.40625 2.5625-2.01562 2.5625-.90625 0-1.4375-.1875-1.65625-.1875-.23438 0-.34375.1875-.34375.53125 0 .3125.10937.51562.34375.51562.21875 0 .75-.1875 1.65625-.1875 1.60937 0 2.51562 1.45313 2.51562 3.10938 0 2.25-1.10937 3.04687-2.45312 3.04687-1.25 0-2.07813-.9375-2.4375-2-.125-.35937-.3125-.54687-.5625-.54687C1.17188-2.98437.5-2.625.5-1.9375m0 0"/><path id="b" d="M.82813-5.84375C.82813-1.75 2.3125.21875 5.15625.21875c2.79688 0 4.29688-1.6875 4.29688-4.26562C9.45313-6.60937 7.875-8 5.84375-8c-1.5 0-2.59375 1.01563-3.10937 1.64063.03125-4.17188 1.17187-5.84375 2.89062-5.84375.85938 0 1.48438.71875 1.76563 1.8125.0625.21875.20312.40625.48437.40625.42188 0 1-.34375 1-.875 0-.76563-.92187-2.01563-3.20312-2.01563-3 0-4.84375 2.32813-4.84375 7.03125m1.90625 1.375c0-1.15625.875-2.5625 2.46875-2.5625 1.1875 0 2.34375 1.09375 2.34375 3.26563 0 2-.76563 3.32812-2.34375 3.32812-1.65625 0-2.46875-1.76562-2.46875-4.03125m0 0"/><path id="c" d="M.6875-8.59375c0 2.54688 1.5625 3.9375 3.60938 3.9375 1.48437 0 2.59375-1 3.09375-1.625C7.375-2.10937 6.21875-.4375 4.51563-.4375c-.875 0-1.5-.73437-1.78125-1.8125-.0625-.23437-.20313-.40625-.48438-.40625-.42187 0-1 .34375-1 .85938 0 .76562.92188 2.01562 3.20313 2.01562 3 0 4.85937-2.3125 4.85937-7.03125 0-4.07812-1.5-6.0625-4.34375-6.0625-2.79687 0-4.28125 1.70313-4.28125 4.28125M2.57813-8.875c0-2 .76562-3.32812 2.35937-3.32812 1.65625 0 2.45313 1.75 2.45313 4.03125 0 1.14062-.85938 2.54687-2.45313 2.54687-1.1875 0-2.35937-1.07812-2.35937-3.25m0 0"/><path id="d" d="M2.04688 0h6.23437v-.54687L6.6875-.6875c-.40625-.03125-.625-.17187-.625-.92187v-11.15625l-.09375-.10938-3.92187.67188v.46875l1.78125.21875c.32812.03125.4375.17187.4375.71875v9.1875c0 .75-.17188.89062-.625.92187l-1.59375.14063Zm0 0"/><path id="e" d="M.5-.1875.70313 0h7.84375l.64062-2.5-.53125-.09375C8.25-1.57812 7.875-1.4375 7.10938-1.4375H2.28125c.29688-.98437 1.42188-2.32812 3.17188-3.59375C7.26563-6.35937 8.6875-7.20312 8.6875-9.32812c0-2.64063-1.76562-3.54688-3.75-3.54688C2.34375-12.875 1-11.29687 1-10.3125c0 .64063.73438.95313 1.04688.95313.34375 0 .46875-.20313.54687-.53125.3125-1.28125 1.04688-2.3125 2.21875-2.3125 1.45313 0 1.875 1.20312 1.875 2.59375 0 2.03125-1.03125 3.1875-2.67187 4.64062C1.67188-2.9375.85938-1.65625.5-.1875m0 0"/><path id="f" d="M.76563-1.9375c0 .875 1.32812 2.15625 3.78125 2.15625 3.125 0 4.53125-1.89062 4.53125-4.28125 0-2.67187-1.64063-4.01562-3.90625-4.01562-1.04688 0-2.1875.46875-2.79688 1.01562l.42188-3.59375c.0625-.48437.1875-.54687.54687-.54687H8.0625l.45313-1.28125-.09375-.15625H2.09375l-.1875.17187-.375 6.32813L2-5.90625C2.78125-6.8125 3.54688-7.25 4.57813-7.25c1.20312 0 2.53125.89063 2.53125 3.39063 0 1.95312-.78125 3.42187-2.4375 3.42187-1.32813 0-2-.95312-2.375-2.04687-.09375-.28125-.28125-.45313-.54688-.45313-.375 0-.98437.375-.98437 1m0 0"/><path id="g" d="M.78125-3.4375c0 1.90625 1.17188 3.65625 4.23438 3.65625S9.25-1.53125 9.25-3.4375c0-1.9375-1.21875-3.0625-2.5-3.375 1.14063-.29687 2.07813-1.28125 2.07813-2.82812 0-2.0625-1.64063-3.23438-3.8125-3.23438s-3.8125 1.17188-3.8125 3.23438c0 1.54687.96875 2.53125 2.09375 2.82812C2.03125-6.5.78125-5.375.78125-3.4375m1.89063.04688c0-1.71875.82812-3.01563 2.34375-3.01563 1.51562 0 2.32812 1.29688 2.32812 3.01563 0 1.67187-.73437 2.95312-2.32812 2.95312S2.67188-1.71875 2.67188-3.39062m.375-6.29688c0-1.45312.67187-2.51562 1.96875-2.51562 1.28125 0 1.96875 1.0625 1.96875 2.51562 0 1.28125-.59375 2.59375-1.96875 2.59375S3.04688-8.40625 3.04688-9.6875m0 0"/><path id="h" d="M.78125-6.32812c0 3.79687 1.10938 6.54687 4.23438 6.54687s4.25-2.75 4.25-6.54687c0-3.78125-1.125-6.54688-4.25-6.54688S.78125-10.10937.78125-6.32812m1.92188 0c0-3.07813.51562-5.875 2.3125-5.875 1.79687 0 2.3125 2.79687 2.3125 5.875S6.8125-.4375 5.01563-.4375c-1.79688 0-2.3125-2.8125-2.3125-5.89062m0 0"/><path id="i" d="M.23438-5.53125h.3125c.125-1.14062.34375-1.375 1.57812-1.375h.60938v5.9375c0 .59375-.01563.59375-1.14063.67188V0H4.9375v-.29687C3.8125-.375 3.78125-.375 3.78125-.96875v-5.9375h.625c1.23438 0 1.45313.23438 1.57813 1.375h.3125v-1.73437H.23438Zm0 0"/><path id="j" d="M.51563-2.54687C.51563-.875 1.23438.125 2.9375.125c1.17188 0 1.76563-.65625 2.04688-1.48437l-.3125-.15626c-.28125.60938-.6875 1.10938-1.51563 1.10938-1.3125 0-1.5625-1.26562-1.54687-2.35937h3.03125c.21875 0 .42187-.04688.42187-.40625 0-.60938-.20312-2.10938-2.125-2.10938-1.65625 0-2.42187 1.17188-2.42187 2.73438m1.10937-.625c0-.4375.15625-1.73438 1.25-1.73438.96875 0 1.07813.98438 1.07813 1.40625 0 .20313-.0625.32813-.34375.32813Zm0 0"/><path id="k" d="M.32813 0h2.5625v-.29687c-.75-.0625-.78125-.07813-.78125-.625V-3.375c0-.26562 0-.42187.07812-.5625.20313-.42187.67188-.76562 1.25-.76562.90625 0 1.01563.65625 1.01563 1.29687v2.48438c0 .54687-.03125.5625-.79688.625V0h2.5625v-.29687c-.75-.0625-.78125-.07813-.78125-.625V-3.375c0-.26562.01563-.40625.07813-.57812.15625-.42188.60937-.75 1.20312-.75.65625 0 1.0625.35937 1.0625 1.29687v2.48438c0 .54687-.04687.5625-.79687.625V0h2.5625v-.29687c-.75-.0625-.78125-.07813-.78125-.625v-2.6875c0-1.0625-.57813-1.67188-1.57813-1.67188-.85937 0-1.46875.57813-1.84375.8125-.25-.5-.65625-.8125-1.39062-.8125-.8125 0-1.46875.53125-1.84375.8125l-.09375-.8125-1.625.26563V-4.75l.39062.04688c.26563.04687.34375.09375.34375.46875v3.3125c0 .54687-.03125.5625-.79687.625Zm0 0"/><path id="l" d="M.26563 2.10938v.3125h2.71875v-.3125c-.875-.04688-.95313-.07813-.95313-.60938V-.10937C2.26563.01563 2.76563.125 3.25.125c1.42188 0 2.625-.65625 2.625-2.82812 0-.75-.14062-2.57813-2.04687-2.57813-.78125 0-1.375.51563-1.79688.78125l-.125-.78125-1.59375.26563V-4.75l.40625.04688c.26563.04687.32813.09375.32813.46875V1.5c0 .53125-.04688.5625-.78125.60938m1.76562-3.76563V-3.375c0-.26562.0625-.40625.15625-.59375.23438-.48437.67188-.73437 1.23438-.73437.42187 0 1.35937.26562 1.35937 2.07812 0 1.54688-.48437 2.375-1.53125 2.375-.54687 0-.96875-.28125-1.14062-.75-.0625-.20312-.07813-.40625-.07813-.65625m0 0"/><path id="m" d="m2.10938-5.90625.15625.21875 1.59375-.89062c.3125-.17188.59375-.34375.59375-.57813 0-.20312-.25-.45312-.42188-.45312S3.6875-7.5 3.375-7.17187ZM.51563-2.54687C.51563-.875 1.23438.125 2.9375.125c1.17188 0 1.76563-.65625 2.04688-1.48437l-.3125-.15626c-.28125.60938-.6875 1.10938-1.51563 1.10938-1.3125 0-1.5625-1.26562-1.54687-2.35937h3.03125c.21875 0 .42187-.04688.42187-.40625 0-.60938-.20312-2.10938-2.125-2.10938-1.65625 0-2.42187 1.17188-2.42187 2.73438m1.10937-.625c0-.4375.15625-1.73438 1.25-1.73438.96875 0 1.07813.98438 1.07813 1.40625 0 .20313-.0625.32813-.34375.32813Zm0 0"/><path id="n" d="M.32813 0h2.78125v-.29687c-.9375-.0625-1-.07813-1-.625V-3.375c0-.8125.35937-1.09375.60937-1.09375.17188 0 .34375.07813.65625.23438.07813.04687.15625.0625.20313.0625.26562 0 .48437-.26563.48437-.59375 0-.23438-.14062-.51563-.5625-.51563-.375 0-.6875.21875-1.39062.84375l-.125-.84375-1.59375.26563V-4.75l.39062.04688c.26563.04687.34375.09375.34375.46875v3.3125c0 .54687-.04687.5625-.79687.625Zm0 0"/><path id="o" d="M.51563-1.35937C.51563-.57812 1.04688.125 2.03125.125 2.64063.125 3.25-.28125 3.59375-.5c.14063.39063.32813.625.6875.625.39063 0 .84375-.10937 1.25-.3125l-.07812-.25c-.14063.03125-.375.04688-.53125 0-.1875-.04687-.375-.23437-.375-.89062V-3.875c0-.625-.125-1.40625-1.71875-1.40625-1.1875 0-2.125.60938-2.125 1.20313 0 .32812.39062.48437.59375.48437.21874 0 .28124-.10937.34375-.28125.23437-.79687.65625-1.03125 1.07812-1.03125.40625 0 .89063.20313.89063 1.04688v.4375c-.28125.26562-1.29688.53125-2.125.79687-.75.23438-.96875.76563-.96875 1.26563m1.0625-.15626c0-.48437.21874-.75.8125-.96874.42187-.15625.98437-.35938 1.21875-.5V-1.5c0 .84375-.65625 1.0625-1.0625 1.0625-.65625 0-.96875-.45312-.96875-1.07812m0 0"/><path id="p" d="M.32813-4.73437h.75v3.65625C1.07813 0 1.875.125 2.25.125c.53125 0 1.04688-.26562 1.34375-.45312L3.51563-.5625c-.26563.10938-.48438.14063-.75.14063-.35938 0-.70313-.26563-.70313-1.0625v-3.25h1.35938v-.42188H2.0625v-1.32812h-.29687L1.125-5.15625H.32813Zm0 0"/><path id="q" d="m.26563-4.75.40625.04688C.9375-4.65625 1-4.60937 1-4.23437v2.78125C1-.25 1.71875.125 2.5.125c.90625 0 1.625-.60937 1.9375-.75L4.53125 0h1.6875v-.29687C5.5-.35937 5.42188-.375 5.42188-.92187v-4.29688l-.07813-.0625-1.64062.26563V-4.75l.40625.04688c.26562.04687.32812.09375.32812.46875v2.375c0 .29687-.03125.53125-.07812.625-.25.48437-.75.79687-1.29688.79687C2.45313-.4375 2-.82812 2-1.64062v-3.57813l-.07812-.0625-1.65625.26563Zm0 0"/><path id="r" d="M.64063-3.125c0 2.375.57812 5.14063 2.8125 5.23438v-.3125c-.75-.15626-1.9375-1.23438-1.9375-4.92188 0-3.65625 1.125-4.73437 1.9375-4.90625v-.3125C1.21875-8.25.64063-5.5.64063-3.125m0 0"/><path id="s" d="M.32813 0h2.5625v-.29687c-.75-.0625-.78125-.07813-.78125-.625V-3.375c0-.26562.01562-.40625.10937-.57812.21875-.40625.6875-.75 1.25-.75.71875 0 1.10938.39062 1.10938 1.29687v2.48438c0 .54687-.03125.5625-.79688.625V0h2.57813v-.29687c-.75-.0625-.79688-.07813-.79688-.625v-2.6875c0-1.0625-.57812-1.67188-1.54687-1.67188-.78125 0-1.26563.375-1.90625.8125l-.15625-.8125-1.5625.26563V-4.75l.39062.04688c.26563.04687.34375.09375.34375.46875v3.3125c0 .54687-.03125.5625-.79687.625Zm0 0"/><path id="t" d="M.39063-5.6875c0 .78125.65625 1.4375 1.4375 1.4375.79687 0 1.46875-.65625 1.46875-1.4375 0-.79687-.67188-1.46875-1.46875-1.46875-.78125 0-1.4375.67188-1.4375 1.46875m.57812 0c0-.54687.40625-.95312.85938-.95312.46875 0 .875.40625.875.95312 0 .53125-.40625.9375-.875.9375-.45313 0-.85938-.40625-.85938-.9375m0 0"/><path id="u" d="M.5-3.59375c0 1.23438.375 2.23438 1 2.85938.64063.64062 1.6875.89062 2.85938.89062.84375 0 1.8125-.23437 2.3125-.5l.15625-1.76562h-.3125C6.21875-1 5.67188-.21876 4.29688-.21876c-2.17188 0-2.625-2.125-2.625-3.39062 0-1.73438.6875-3.46875 2.64062-3.46875 1.07813 0 1.82813.45312 2.03125 1.70312h.3125v-1.65625C6.1875-7.25 5.39063-7.4375 4.4375-7.4375c-1.3125 0-2.34375.375-2.96875 1.07813C.85938-5.6875.5-4.78125.5-3.59375m0 0"/><path id="v" d="M3.23438-3.125c0-2.375-.57813-5.125-2.8125-5.21875v.3125c.8125.17188 1.92187 1.25 1.92187 4.90625 0 3.6875-1.17187 4.76563-1.92187 4.92188v.3125C2.65625 2.01563 3.23438-.75 3.23438-3.125m0 0"/><path id="w" d="M.375 0h2.92188v-.29687c-.90625-.07813-.9375-.07813-.9375-.67188v-2.625h3.6875v2.625c0 .59375-.03125.59375-.95313.67188V0h2.92188v-.29687c-.90625-.07813-.9375-.07813-.9375-.67188v-5.32812c0-.59375.03125-.60938.9375-.67188v-.29687H5.09375v.29687c.92188.0625.95313.07813.95313.67188v2.3125h-3.6875v-2.3125c0-.59375.03125-.60938.9375-.67188v-.29687H.375v.29687c.92188.0625.9375.07813.9375.67188v5.32812c0 .59375-.01562.59375-.9375.67188Zm0 0"/></defs><path fill="none" stroke="#000" stroke-miterlimit="10" stroke-opacity=".5" stroke-width=".39797" d="M24.0039 312.76172h509.5586M24.0039 249.0664h509.5586M24.0039 185.37109h509.5586M24.0039 121.6758h509.5586M24.0039 57.98046h509.5586M55.85156 344.60937V26.13282m63.69531 318.47657V26.1328m63.69532 318.47657V26.1328m63.6914 318.47657V26.1328m63.69532 318.47657V26.1328m63.6953 318.47657V26.1328m63.69532 318.47657V26.1328m63.69531 318.47657V26.1328M119.54687 296.83594v31.84765"/><use xlink:href="#a" x="114.52903" y="335.01048" fill-opacity=".5"/><path fill="none" stroke="#000" stroke-miterlimit="10" stroke-opacity=".5" stroke-width=".39797" d="M183.24219 296.83594v31.84765"/><use xlink:href="#b" x="178.22257" y="335.01048" fill-opacity=".5"/><path fill="none" stroke="#000" stroke-miterlimit="10" stroke-opacity=".5" stroke-width=".39797" d="M246.9336 296.83594v31.84765"/><use xlink:href="#c" x="241.9171" y="335.01048" fill-opacity=".5"/><path fill="none" stroke="#000" stroke-miterlimit="10" stroke-opacity=".5" stroke-width=".39797" d="M310.6289 296.83594v31.84765"/><g fill-opacity=".5"><use xlink:href="#d" x="300.59437" y="335.12133"/><use xlink:href="#e" x="310.62773" y="335.12133"/></g><path fill="none" stroke="#000" stroke-miterlimit="10" stroke-opacity=".5" stroke-width=".39797" d="M374.32422 296.83594v31.84765"/><g fill-opacity=".5"><use xlink:href="#d" x="364.2879" y="335.01048"/><use xlink:href="#f" x="374.32127" y="335.01048"/></g><path fill="none" stroke="#000" stroke-miterlimit="10" stroke-opacity=".5" stroke-width=".39797" d="M438.01953 296.83594v31.84765"/><g fill-opacity=".5"><use xlink:href="#d" x="427.98244" y="335.01048"/><use xlink:href="#g" x="438.0158" y="335.01048"/></g><path fill="none" stroke="#000" stroke-miterlimit="10" stroke-opacity=".5" stroke-width=".39797" d="M501.71484 296.83594v31.84765"/><g fill-opacity=".5"><use xlink:href="#e" x="491.67597" y="335.12133"/><use xlink:href="#d" x="501.70934" y="335.12133"/></g><path fill="none" stroke="#000" stroke-miterlimit="10" stroke-opacity=".5" stroke-width=".39797" d="M71.77344 249.0664H39.92578"/><use xlink:href="#a" x="28.54141" y="255.39231" fill-opacity=".5"/><path fill="none" stroke="#000" stroke-miterlimit="10" stroke-opacity=".5" stroke-width=".39797" d="M71.77344 185.3711H39.92578"/><use xlink:href="#b" x="28.54141" y="191.69878" fill-opacity=".5"/><path fill="none" stroke="#000" stroke-miterlimit="10" stroke-opacity=".5" stroke-width=".39797" d="M71.77344 121.67578H39.92578"/><use xlink:href="#c" x="28.54141" y="128.00424" fill-opacity=".5"/><path fill="none" stroke="#000" stroke-miterlimit="10" stroke-opacity=".5" stroke-width=".39797" d="M71.77344 57.98047H39.92578"/><g fill-opacity=".5"><use xlink:href="#d" x="23.52414" y="64.42156"/><use xlink:href="#e" x="33.55751" y="64.42156"/></g><path fill="none" stroke="#000" stroke-miterlimit="10" stroke-opacity=".5" stroke-width=".39797" d="M55.85156 296.83594v31.84765"/><use xlink:href="#h" x="28.54141" y="341.37994" fill-opacity=".5"/><path fill="none" stroke="#000" stroke-miterlimit="10" stroke-width=".79594" d="M24.0039 312.76172h503.39063"/><path stroke="#000" stroke-miterlimit="10" stroke-width=".79594" d="M531.55078 312.76172c-.50781-.10938-2.7539-.71094-4.15625-1.36328v2.72265c1.40234-.65234 3.64844-1.2539 4.15625-1.35937Zm0 0"/><path fill="none" stroke="#000" stroke-miterlimit="10" stroke-width=".79594" d="M55.85156 344.60938V32.30078"/><path stroke="#000" stroke-miterlimit="10" stroke-width=".79594" d="M55.85156 28.14453c-.10547.50781-.70703 2.7539-1.36328 4.15625h2.72656c-.65625-1.40234-1.2578-3.64844-1.36328-4.15625Zm0 0"/><use xlink:href="#i" x="7.66542" y="15.81078"/><use xlink:href="#j" x="13.13877" y="15.81078"/><use xlink:href="#k" x="18.54497" y="15.81078"/><use xlink:href="#l" x="28.24926" y="15.81078"/><use xlink:href="#m" x="34.64043" y="15.81078"/><use xlink:href="#n" x="40.04663" y="15.81078"/><use xlink:href="#o" x="44.03132" y="15.81078"/><use xlink:href="#p" x="49.52706" y="15.81078"/><use xlink:href="#q" x="53.14238" y="15.81078"/><use xlink:href="#n" x="59.51117" y="15.81078"/><use xlink:href="#j" x="63.38393" y="15.81078"/><use xlink:href="#r" x="71.15184" y="15.81078"/><use xlink:href="#j" x="75.0246" y="15.81078"/><use xlink:href="#s" x="80.4308" y="15.81078"/><use xlink:href="#t" x="89.29561" y="15.81078"/><use xlink:href="#u" x="92.97809" y="15.81078"/><use xlink:href="#v" x="100.16397" y="15.81078"/><use xlink:href="#w" x="541.46517" y="316.33654"/><use xlink:href="#j" x="549.54648" y="316.33654"/><use xlink:href="#q" x="554.95267" y="316.33654"/><use xlink:href="#n" x="561.32146" y="316.33654"/><use xlink:href="#j" x="565.19422" y="316.33654"/></svg>