<svg xmlns="http://www.w3.org/2000/svg" xmlns:xlink="http://www.w3.org/1999/xlink" width="816.024" height="299.333" viewBox="0 0 816.024 299.333"><defs><path id="a" d="M-.375-13.9375c1.1875.04688 1.42188.125 1.84375 1.23438.67188 1.76562 1.45313 3.875 2.20313 5.96875L6.03125 0h1.5l2.6875-7.25c.875-2.3125 1.70313-4.46875 2.21875-5.57812.4375-.98438.67188-1.03125 1.8125-1.10938v-.59375H9.60938v.59375l1.14062.09375c.54688.04688.59375.26563.46875.67188-.21875.92187-.85937 2.78125-1.625 4.875l-2.1875 6.01562-.04687-.01562-1.95313-5.42188c-.64062-1.82812-1.3125-3.6875-1.84375-5.35937-.1875-.53125-.125-.71875.39063-.76563l1.09375-.09375v-.59375H-.375Zm0 0"/><path id="b" d="M1.03125-5.07812C1.03125-1.75 2.45313.25 5.875.25c2.32813 0 3.53125-1.29687 4.09375-2.95312l-.625-.34375C8.76563-1.8125 7.95313-.82812 6.3125-.82812c-2.625 0-3.14062-2.5-3.09375-4.6875h6.0625c.4375 0 .82813-.125.82813-.8125 0-1.23438-.40625-4.21875-4.25-4.21875-3.28125 0-4.82813 2.3125-4.82813 5.46875m2.20313-1.25c0-.875.32812-3.48438 2.51562-3.48438 1.9375 0 2.17188 1.98438 2.17188 2.8125 0 .40625-.14063.67188-.71875.67188Zm0 0"/><path id="c" d="M.67188 0h5.54687v-.60937c-1.875-.10938-2-.15626-2-1.21875V-6.75c0-1.60937.71875-2.17187 1.21875-2.17187.32813 0 .6875.14062 1.29688.46875.15625.09375.3125.10937.42187.10937.51563 0 .95313-.53125.95313-1.1875C8.10938-10 7.82813-10.54687 7-10.54687c-.76562 0-1.39062.4375-2.78125 1.67187l-.23437-1.67187-3.20313.53125V-9.5l.78125.10938c.54688.09375.70313.17187.70313.9375v6.625c0 1.0625-.125 1.10937-1.59375 1.21875Zm0 0"/><path id="d" d="M.64063-9.45312h1.53125v7.3125C2.17188 0 3.75.25 4.5.25c1.0625 0 2.07813-.54687 2.67188-.92187L7.01563-1.125c-.51563.20313-.95313.28125-1.5.28125-.70313 0-1.375-.51562-1.375-2.10937v-6.5h2.70312v-.85938H4.14063v-2.64062h-.60938L2.26563-10.3125h-1.625Zm0 0"/><path id="e" d="M.73438 0h5.54687v-.60937C5.40625-.6875 4.92188-.6875 4.76563-.9375c-.0625-.09375-.04688-.10937-.04688-1v-4.90625h1.4375c1.25 0 2.23438.375 2.59375 1.8125.15625.57813.375 2.26563.59375 3.21875C9.65625-.46875 10.48438 0 11.71875 0h1.70313v-.60937c-1.64063-.17188-2-1.32813-2.17188-2.76563-.25-1.875-.625-3.28125-2.85937-3.82812V-7.25c1.96875-.375 3.42187-1.71875 3.42187-3.70312 0-2.01563-1.28125-3.57813-4.95312-3.57813h-6.125v.59375c1.85937.14063 1.90625.17188 1.90625 1.34375V-1.9375c0 1.17188-.04688 1.20313-1.90625 1.32813Zm3.98437-7.57812v-5.1875c0-.875.14063-1.04688 1.51563-1.04688 1.5625 0 3.32812.57813 3.32812 3.0625 0 2.20313-1.15625 3.17188-3.1875 3.17188Zm0 0"/><path id="f" d="M1.03125-5.14062C1.03125-1.75 2.70313.25 6.07813.25s5.03125-2 5.03125-5.39062c0-3.40625-1.65625-5.40625-5.03125-5.40625s-5.04688 2-5.04688 5.40625m2.1875 0c0-2.90625.9375-4.67188 2.85938-4.67188S8.9375-8.04687 8.9375-5.14062 8-.48437 6.07813-.48437s-2.85938-1.75-2.85938-4.65625m0 0"/><path id="g" d="m.98438-3.51562.21874 2.75C1.96876-.09376 3.23438.25 4.46876.25c2.5 0 3.9375-1.32812 3.9375-3.10937 0-1.85938-1.14062-2.6875-3.3125-3.35938-.875-.26562-2.23437-.71875-2.23437-1.89062 0-1.10938.82812-1.70313 1.875-1.70313 1.5 0 2.21875 1.15625 2.375 2.4375h.60937v-2.46875c-.70312-.51562-1.76562-.70312-2.70312-.70312-2.28125 0-3.82813 1.0625-3.82813 3.0625 0 1.73437 1.42188 2.51562 3.17188 3.0625.9375.28125 2.26562.75 2.26562 2.1875 0 1.07812-.82812 1.75-1.95312 1.75-1.70313 0-2.65625-1.23438-3.07813-3.03125Zm0 0"/><path id="h" d="M.73438 0H7.25c3.1875 0 5.25-1.14062 5.25-4.0625 0-2.48437-1.76562-3.57812-3.79687-3.85937v-.03125c1.96875-.40625 3.125-1.64063 3.125-3.25 0-1.15625-.45313-2.03125-1.29688-2.59375-.82812-.53125-2.03125-.73438-3.71875-.73438H.73438v.59375c1.85937.14063 1.90625.17188 1.90625 1.34375V-1.9375c0 1.17188-.04688 1.20313-1.90625 1.32813Zm3.98437-2.34375v-5.125h1.5c2.60938 0 4.04688 1.29688 4.04688 3.53125 0 2.53125-1.71875 3.20313-3.53125 3.20313-1.6875 0-2.01563-.3125-2.01563-1.60938m0-5.85937v-4.5625c0-.89063.0625-1.04688 1.70313-1.04688 1.53125 0 3.21875.57813 3.21875 2.75 0 2.04688-1.32813 2.85938-3.51563 2.85938Zm0 0"/><path id="i" d="M.42188 0h5.125v-.60937c-1.5-.10938-1.5625-.15626-1.5625-1.21875v-13.64063l-.15625-.10937-3.29688.51562v.53125l.78125.0625c.54688.0625.67188.1875.67188.98438v11.65625c0 1.0625-.04688 1.10937-1.5625 1.21875Zm0 0"/><path id="j" d="m.53125-9.5.8125.10938c.53125.09375.67188.17187.67188.9375v5.54687c0 2.42188 1.42187 3.15625 3 3.15625C6.79688.25 8.25-.96875 8.85938-1.25L9.0625 0h3.375v-.60937c-1.45312-.10938-1.59375-.15626-1.59375-1.21875v-8.59375l-.15625-.125-3.28125.53125V-9.5l.79688.10938c.54687.09375.67187.17187.67187.9375v4.73437c0 .59375-.0625 1.0625-.17187 1.26563C8.20313-1.5 7.21875-.875 6.125-.875 4.89063-.875 4-1.65625 4-3.28125v-7.14062l-.15625-.125-3.3125.53125Zm0 0"/><path id="k" d="M.84375-2.14062C.84375-1.1875 2.32813.25 5.04688.25c3.46875 0 5.03125-2.10937 5.03125-4.76562 0-2.95313-1.82813-4.45313-4.32813-4.45313-1.17187 0-2.42187.5-3.09375 1.09375l-.01562-.01562.46875-3.9375c.0625-.53125.20312-.60938.60937-.60938H8.9375l.51563-1.42187-.10938-.1875H2.32813l-.20313.20312-.42187 7.03125.51562.26563c.85938-1.01563 1.71875-1.5 2.85938-1.5 1.34375 0 2.8125.98437 2.8125 3.75 0 2.17187-.875 3.8125-2.70313 3.8125-1.46875 0-2.21875-1.0625-2.64062-2.26563-.10938-.3125-.3125-.51562-.60938-.51562-.42187 0-1.09375.42187-1.09375 1.125m0 0"/><path id="l" d="M2.28125 0H9.1875v-.60937L7.42188-.76563c-.45313-.04687-.6875-.20312-.6875-1.01562v-12.39062l-.10938-.10938-4.34375.73438v.51562l1.96875.23438c.35938.04687.48438.20312.48438.8125v10.20312c0 .39063-.03125.64063-.17188.79688-.10937.15624-.29687.20312-.51562.21874l-1.76563.15626Zm0 0"/><path id="m" d="M.875-7.01562C.875-2.8125 2.10938.25 5.5625.25c3.46875 0 4.71875-3.0625 4.71875-7.26562s-1.25-7.26563-4.71875-7.26563c-3.45312 0-4.6875 3.0625-4.6875 7.26563m2.125 0c0-3.42188.57813-6.53125 2.5625-6.53125 2 0 2.57813 3.10937 2.57813 6.53125S7.5625-.48437 5.5625-.48437C3.57813-.48437 3-3.59375 3-7.01562m0 0"/><path id="n" d="M.5-3.59375c0 1.23438.375 2.23438 1 2.85938.64063.64062 1.6875.89062 2.85938.89062.84375 0 1.8125-.23437 2.3125-.5l.15625-1.76562h-.3125C6.21875-1 5.67188-.21876 4.29688-.21876c-2.17188 0-2.625-2.125-2.625-3.39062 0-1.73438.6875-3.46875 2.64062-3.46875 1.07813 0 1.82813.45312 2.03125 1.70312h.3125v-1.65625C6.1875-7.25 5.39063-7.4375 4.4375-7.4375c-1.3125 0-2.34375.375-2.96875 1.07813C.85938-5.6875.5-4.78125.5-3.59375m0 0"/><path id="o" d="M.51563-2.57812C.51563-.875 1.35938.125 3.04688.125s2.51562-1 2.51562-2.70312-.82812-2.70313-2.51562-2.70313-2.53125 1-2.53125 2.70313m1.09375 0c0-1.45313.46875-2.32813 1.4375-2.32813.95312 0 1.42187.875 1.42187 2.32813S4-.25 3.04688-.25c-.96875 0-1.4375-.875-1.4375-2.32812m0 0"/><path id="p" d="m.26563-4.75.40625.04688C.9375-4.65625 1-4.60937 1-4.23437v2.78125C1-.25 1.71875.125 2.5.125c.90625 0 1.625-.60937 1.9375-.75L4.53125 0h1.6875v-.29687C5.5-.35937 5.42188-.375 5.42188-.92187v-4.29688l-.07813-.0625-1.64062.26563V-4.75l.40625.04688c.26562.04687.32812.09375.32812.46875v2.375c0 .29687-.03125.53125-.07812.625-.25.48437-.75.79687-1.29688.79687C2.45313-.4375 2-.82812 2-1.64062v-3.57813l-.07812-.0625-1.65625.26563Zm0 0"/><path id="q" d="M.21875 0h2.5625v-.29687c-.75-.0625-.79687-.07813-.79687-.625v-6.8125l-.07813-.0625-1.64062.25v.28125l.39062.03125C.92188-7.20312 1-7.15625 1-6.75v5.82813c0 .54687-.03125.5625-.78125.625Zm0 0"/><path id="r" d="M.51563-2.54687C.51563-.875 1.23438.125 2.9375.125c1.17188 0 1.76563-.65625 2.04688-1.48437l-.3125-.15626c-.28125.60938-.6875 1.10938-1.51563 1.10938-1.3125 0-1.5625-1.26562-1.54687-2.35937h3.03125c.21875 0 .42187-.04688.42187-.40625 0-.60938-.20312-2.10938-2.125-2.10938-1.65625 0-2.42187 1.17188-2.42187 2.73438m1.10937-.625c0-.4375.15625-1.73438 1.25-1.73438.96875 0 1.07813.98438 1.07813 1.40625 0 .20313-.0625.32813-.34375.32813Zm0 0"/><path id="s" d="M.32813 0h2.78125v-.29687c-.9375-.0625-1-.07813-1-.625V-3.375c0-.8125.35937-1.09375.60937-1.09375.17188 0 .34375.07813.65625.23438.07813.04687.15625.0625.20313.0625.26562 0 .48437-.26563.48437-.59375 0-.23438-.14062-.51563-.5625-.51563-.375 0-.6875.21875-1.39062.84375l-.125-.84375-1.59375.26563V-4.75l.39062.04688c.26563.04687.34375.09375.34375.46875v3.3125c0 .54687-.04687.5625-.79687.625Zm0 0"/><path id="t" d="M.375 0h2.48438v-.29687c-.67188-.0625-.9375-.09375-1-.53125-.0625-.34375-.0625-.75-.0625-1.3125v-4.1875h.01562C3.3125-4.21875 4.79688-2.10937 6.28125 0h.70313v-5.14062c0-.5625.01562-.95313.07812-1.29688.0625-.4375.3125-.48437.85938-.53125v-.29687h-2.5v.29687c.6875.0625.9375.09375 1 .53125.0625.34375.07812.73438.07812 1.29688v3.6875l-.01562-.03126C5.09375-3.40624 3.71875-5.34374 2.375-7.26561H.35938v.29687c.92187.0625.95312.07813.95312.67188v4.15625c0 .5625-.03125.96875-.07812 1.3125-.07813.4375-.3125.48437-.85938.53125Zm0 0"/><path id="u" d="M.32813 0h2.5625v-.29687c-.75-.0625-.78125-.07813-.78125-.625V-3.375c0-.26562 0-.42187.07812-.5625.20313-.42187.67188-.76562 1.25-.76562.90625 0 1.01563.65625 1.01563 1.29687v2.48438c0 .54687-.03125.5625-.79688.625V0h2.5625v-.29687c-.75-.0625-.78125-.07813-.78125-.625V-3.375c0-.26562.01563-.40625.07813-.57812.15625-.42188.60937-.75 1.20312-.75.65625 0 1.0625.35937 1.0625 1.29687v2.48438c0 .54687-.04687.5625-.79687.625V0h2.5625v-.29687c-.75-.0625-.78125-.07813-.78125-.625v-2.6875c0-1.0625-.57813-1.67188-1.57813-1.67188-.85937 0-1.46875.57813-1.84375.8125-.25-.5-.65625-.8125-1.39062-.8125-.8125 0-1.46875.53125-1.84375.8125l-.09375-.8125-1.625.26563V-4.75l.39062.04688c.26563.04687.34375.09375.34375.46875v3.3125c0 .54687-.03125.5625-.79687.625Zm0 0"/><path id="v" d="m.21875-7.26562.39063.03125c.28124.03125.34375.07812.34375.48437V.04688l.1875.07812.42187-.40625C1.92188-.0625 2.375.125 3.15625.125c1.39063 0 2.60938-.67187 2.60938-2.82812 0-.64063-.125-2.57813-2.01563-2.57813-.79687 0-1.42187.51563-1.8125.75v-3.20312l-.07812-.0625-1.64063.25ZM1.9375-1.71875V-3.375c0-.26562.01563-.42187.09375-.59375.26563-.5.70313-.73437 1.29688-.73437.4375 0 1.34375.23437 1.34375 2.07812 0 1.54688-.46875 2.375-1.5 2.375-.5625 0-.96875-.28125-1.15625-.79687-.0625-.1875-.07813-.40625-.07813-.67188m0 0"/><path id="w" d="M.51563-2.46875C.51563-.92187 1.32813.125 2.71875.125c.57813 0 1.04688-.26562 1.625-.71875v.51563L4.4375 0H6.125v-.29687c-.75-.0625-.78125-.07813-.78125-.625v-6.8125l-.07812-.0625-1.65625.25v.28125l.40625.03125c.26562.03125.34375.07812.34375.48437v1.73438c-.29688-.17188-.6875-.26563-1.17188-.26563-.85937 0-1.51562.28125-1.95312.73438-.4375.46875-.71875 1.15625-.71875 2.07812m1.09375-.125c0-1.35937.5-2.3125 1.5625-2.3125.5 0 .90625.21875 1.09375.65625.09375.17188.09375.32813.09375.60938v1.84375c0 .23437 0 .42187-.07813.59375-.20312.54687-.67187.76562-1.21875.76562-.95312 0-1.45312-.95312-1.45312-2.15625m0 0"/><path id="x" d="m.76563-5.14062.17187.17187c.53125-.48437 1.25-1.1875 1.25-1.9375 0-.5625-.35937-.89062-.70312-.89062-.3125 0-.5.21875-.5.5 0 .39062.34375.59375.34375.98437 0 .40625-.25.79688-.5625 1.17188m0 0"/><path id="y" d="m2.10938-5.90625.15625.21875 1.59375-.89062c.3125-.17188.59375-.34375.59375-.57813 0-.20312-.25-.45312-.42188-.45312S3.6875-7.5 3.375-7.17187ZM.51563-2.54687C.51563-.875 1.23438.125 2.9375.125c1.17188 0 1.76563-.65625 2.04688-1.48437l-.3125-.15626c-.28125.60938-.6875 1.10938-1.51563 1.10938-1.3125 0-1.5625-1.26562-1.54687-2.35937h3.03125c.21875 0 .42187-.04688.42187-.40625 0-.60938-.20312-2.10938-2.125-2.10938-1.65625 0-2.42187 1.17188-2.42187 2.73438m1.10937-.625c0-.4375.15625-1.73438 1.25-1.73438.96875 0 1.07813.98438 1.07813 1.40625 0 .20313-.0625.32813-.34375.32813Zm0 0"/><path id="z" d="M1.28125-7.15625c0 .23438.26563.40625.57813.57813l1.59375.89062.15625-.21875-1.25-1.26562c-.3125-.32813-.5-.4375-.6875-.4375-.15626 0-.39063.25-.39063.45312M.51563-2.54687C.51563-.875 1.23438.125 2.9375.125c1.17188 0 1.76563-.65625 2.04688-1.48437l-.3125-.15626c-.28125.60938-.6875 1.10938-1.51563 1.10938-1.3125 0-1.5625-1.26562-1.54687-2.35937h3.03125c.21875 0 .42187-.04688.42187-.40625 0-.60938-.20312-2.10938-2.125-2.10938-1.65625 0-2.42187 1.17188-2.42187 2.73438m1.10937-.625c0-.4375.15625-1.73438 1.25-1.73438.96875 0 1.07813.98438 1.07813 1.40625 0 .20313-.0625.32813-.34375.32813Zm0 0"/><path id="A" d="M.01563-4.84375c.48437.04688.59375.07813.75.46875.28124.6875.51562 1.375.78125 2.10938L2.35938 0h.75l.9375-2.54687c.3125-.8125.625-1.51563.76562-1.84375.15625-.375.26563-.4375.75-.45313v-.3125h-2v.3125l.51563.04688c.17187.01562.20312.14062.15625.28125-.07813.34375-.28125.95312-.51563 1.625l-.70312 1.9375h-.03125l-.64063-1.76563c-.20312-.60937-.42187-1.20312-.625-1.76562-.07812-.20313-.03125-.29688.17188-.3125l.48437-.04688v-.3125H.01563Zm0 0"/><path id="B" d="M.5-1.75.60938-.375c.375.32813 1.01562.5 1.625.5 1.25 0 1.96875-.65625 1.96875-1.5625 0-.92187-.5625-1.34375-1.65625-1.67187C2.10938-3.25 1.4375-3.46875 1.4375-4.0625c0-.54687.40625-.84375.9375-.84375.75 0 1.10938.57813 1.1875 1.21875h.29688v-1.23437C3.51563-5.1875 2.96875-5.28125 2.5-5.28125 1.35938-5.28125.59375-4.75.59375-3.75c0 .875.71875 1.26563 1.59375 1.53125.46875.15625 1.125.39063 1.125 1.09375 0 .54688-.42187.875-.96875.875C1.48438-.25 1-.85937.79688-1.75Zm0 0"/><path id="E" d="M1.14063 0h3.57812v-.34375l-.79687-.0625C3.6875-.4375 3.5625-.51562 3.5625-.89062v-6.1875l-.07812-.07813-2.32813.39063v.29687L2-6.34375c.21875.03125.29688.125.29688.45313v5c0 .375-.10938.45312-.34375.48437l-.8125.0625Zm0 0"/><path id="F" d="M.32813-.14062.45313 0h4.53125l.40625-1.59375-.32813-.04687C4.79688-1.07812 4.60938-1 4.1875-1H1.51563c.15624-.48437.65625-1.15625 1.71875-1.8125 1.10937-.71875 1.84375-1.21875 1.84375-2.35937 0-1.46875-1-1.98438-2.21875-1.98438-1.40625 0-2.29688.79688-2.29688 1.5 0 .40625.46875.59375.71875.59375.20313 0 .3125-.10937.375-.32812.17188-.78125.54688-1.34375 1.14063-1.34375.6875 0 .92187.60937.92187 1.35937 0 .92188-.39062 1.64063-1.42187 2.51563C.92188-1.6875.45313-.90625.32813-.14062m0 0"/><path id="G" d="M.40625-3.51562C.40625-1.48437 1.04688.125 2.89063.125c1.82812 0 2.46875-1.60937 2.46875-3.64062 0-2.01563-.64063-3.64063-2.46875-3.64063-1.84375 0-2.48438 1.625-2.48438 3.64063m1.34375 0c0-1.46875.20313-3.21875 1.14063-3.21875s1.14062 1.75 1.14062 3.21875c0 1.48437-.20312 3.21875-1.14062 3.21875S1.75-2.03125 1.75-3.51562m0 0"/><path id="H" d="M.39063-5.6875c0 .78125.65625 1.4375 1.4375 1.4375.79687 0 1.46875-.65625 1.46875-1.4375 0-.79687-.67188-1.46875-1.46875-1.46875-.78125 0-1.4375.67188-1.4375 1.46875m.59375 0c0-.54687.40625-.95312.84375-.95312.46875 0 .875.40625.875.95312 0 .54688-.42188.9375-.875.9375s-.84375-.39062-.84375-.9375m0 0"/><path id="I" d="M.40625-3.32812C.40625-1.125 1.20313.125 2.95313.125c1.70312 0 2.5-1.04687 2.5-2.40625 0-1.45312-.90625-2.1875-2.03125-2.1875-.76563 0-1.35938.46875-1.6875.875.01562-1.64062.42187-3.14062 1.40625-3.14062.46875 0 .78125.40625.95312 1.0625.04688.14062.15625.26562.35938.26562.25 0 .67187-.1875.67187-.54687 0-.46875-.57812-1.20313-1.90625-1.20313-1.73437 0-2.8125 1.28125-2.8125 3.82813m1.32813.85937c0-.625.42187-1.32812 1.20312-1.32812.625 0 1.20313.53125 1.20313 1.73437 0 1.03125-.34375 1.76563-1.15625 1.76563-.84375 0-1.25-.96875-1.25-2.17188m0 0"/><path id="L" d="M.39063-1.95312c0 1.29687.9375 2.07812 2.5 2.07812S5.375-.65625 5.375-1.95312c0-1.01563-.625-1.625-1.39062-1.84375.60937-.15625 1.14062-.6875 1.14062-1.51563 0-1.1875-.90625-1.84375-2.23437-1.84375s-2.25.67188-2.25 1.84375c0 .82813.53125 1.35938 1.15625 1.51563-.76563.21875-1.40625.82812-1.40625 1.84375m1.32812.04687c0-.92187.40625-1.625 1.17188-1.625.75 0 1.14062.70313 1.14062 1.625 0 .92188-.35937 1.60938-1.14062 1.60938s-1.17188-.6875-1.17188-1.60938m.1875-3.45312c0-.79688.35938-1.375.98438-1.375.64062 0 .98437.57812.98437 1.375 0 .73437-.32812 1.40625-.98437 1.40625s-.98438-.67188-.98438-1.40625m0 0"/><path id="O" d="M.875-3.82812C.875-1.70312 2.17188.25 5.5625.25c3.40625 0 4.70313-1.95312 4.70313-4.07812 0-2.14063-1.34375-3.39063-2.78125-3.73438 1.28125-.32812 2.3125-1.42187 2.3125-3.14062 0-2.28125-1.8125-3.57813-4.23438-3.57813-2.40625 0-4.21875 1.29688-4.21875 3.57813 0 1.71875 1.07813 2.8125 2.32813 3.14062C2.26563-7.21875.875-5.96875.875-3.82812M2.96875-3.75c0-1.92187.92188-3.35937 2.59375-3.35937 1.6875 0 2.59375 1.4375 2.59375 3.35937 0 1.84375-.82812 3.26563-2.59375 3.26563-1.76562 0-2.59375-1.42188-2.59375-3.26563m.40625-7c0-1.60937.76563-2.79687 2.1875-2.79687 1.4375 0 2.20313 1.1875 2.20313 2.79687 0 1.42188-.67188 2.875-2.20313 2.875-1.51562 0-2.1875-1.45312-2.1875-2.875m0 0"/><path id="P" d="M.40625-4.20312.57813-3.75H6.3125v2.14063c0 .71875-.23437.82812-.75.875l-1.34375.125V0h5.54688v-.60937l-.9375-.10938c-.48438-.0625-.625-.17187-.625-.89062V-3.75h2.15625v-.98437H8.20313v-9.3125H6.65625c-1.95312 2.90625-4.32812 6.5625-6.25 9.84375m1.51563-.53125C3.17188-7.01562 4.70313-9.45312 6.3125-12v7.26563Zm0 0"/><path id="Q" d="M2.28125 0H9.1875v-.60937L7.42188-.76563c-.45313-.04687-.6875-.20312-.6875-1.01562v-12.39062l-.10938-.10938-4.34375.73438v.51562l1.96875.23438c.35938.04687.48438.20312.48438.8125v10.20312c0 .8125-.20313.96875-.6875 1.01563l-1.76563.15624Zm0 0"/><path id="R" d="M.5625-.20312.78125 0h8.70313l.71875-2.76562-.59375-.125C9.17188-1.75 8.75-1.59375 7.89063-1.59375H2.53125c.32813-1.09375 1.57813-2.59375 3.53125-4C8.07813-7.0625 9.64063-8 9.64063-10.35937c0-2.92188-1.95313-3.92188-4.15625-3.92188-2.89063 0-4.35938 1.73438-4.35938 2.82813 0 .71875.79688 1.0625 1.15625 1.0625.375 0 .51563-.23438.60938-.59375.32812-1.42188 1.15625-2.5625 2.45312-2.5625 1.60938 0 2.07813 1.34375 2.07813 2.875 0 2.26562-1.14063 3.54687-2.96875 5.15625C1.85938-3.26562.96875-1.82812.5625-.20312m0 0"/><clipPath id="C"><path d="M623 0h191.6289v128H623Zm0 0"/></clipPath><clipPath id="D"><path d="M617 0h197.6289v134H617Zm0 0"/></clipPath><clipPath id="J"><path d="M559 127h255.6289v128H559Zm0 0"/></clipPath><clipPath id="K"><path d="M554 121h260.6289v140H554Zm0 0"/></clipPath><clipPath id="M"><path d="M554 0h260.6289v261H554Zm0 0"/></clipPath><clipPath id="N"><path d="M554 11h260.6289v123H554Zm0 0"/></clipPath></defs><path fill="none" stroke="#000" stroke-miterlimit="10" stroke-width=".39762" d="M50.77734 254.75h254.55478m-254.55478 0V32.41399"/><path fill="none" stroke="#000" stroke-linecap="round" stroke-linejoin="round" stroke-miterlimit="10" stroke-width=".39762" d="M48.39453 34.28125c1.42969-.3789 2.10547-1.21875 2.38281-2.0664.28125.84765.95704 1.6875 2.38672 2.0664"/><path fill="none" stroke="#000" stroke-miterlimit="10" stroke-opacity=".5" stroke-width=".39762" d="M114.41018 242.02343v25.45314m63.63283-25.45314v25.45314m63.63283-25.45314v25.45314"/><use xlink:href="#a" x="95.30281" y="289.91598"/><use xlink:href="#b" x="107.13447" y="289.91598"/><use xlink:href="#c" x="117.9373" y="289.91598"/><use xlink:href="#d" x="126.27986" y="289.91598"/><use xlink:href="#e" x="155.43781" y="289.91598"/><use xlink:href="#f" x="168.54434" y="289.91598"/><use xlink:href="#g" x="180.66677" y="289.91598"/><use xlink:href="#b" x="189.81451" y="289.91598"/><use xlink:href="#h" x="220.29229" y="290.96664"/><use xlink:href="#i" x="233.62249" y="290.96664"/><use xlink:href="#b" x="239.48241" y="290.96664"/><use xlink:href="#j" x="250.28524" y="290.96664"/><path fill="none" stroke="#000" stroke-miterlimit="10" stroke-opacity=".5" stroke-width=".39762" d="M63.50782 191.11326H38.05078"/><use xlink:href="#k" x="19.0128" y="198.01876"/><path fill="none" stroke="#000" stroke-miterlimit="10" stroke-opacity=".5" stroke-width=".39762" d="M63.50782 127.47261H38.05078"/><use xlink:href="#l" x="7.87462" y="134.51127"/><use xlink:href="#m" x="19.01294" y="134.51127"/><path fill="none" stroke="#000" stroke-miterlimit="10" stroke-opacity=".5" stroke-width=".39762" d="M63.50782 63.83587H38.05078"/><use xlink:href="#l" x="7.87462" y="70.88006"/><use xlink:href="#k" x="19.01294" y="70.88006"/><use xlink:href="#n" x="313.20426" y="258.56883"/><use xlink:href="#o" x="320.27195" y="258.56883"/><use xlink:href="#p" x="326.33316" y="258.56883"/><use xlink:href="#q" x="332.69632" y="258.56883"/><use xlink:href="#r" x="335.62628" y="258.56883"/><use xlink:href="#p" x="341.02769" y="258.56883"/><use xlink:href="#s" x="347.39085" y="258.56883"/><use xlink:href="#t" x="11.05753" y="24.01648"/><use xlink:href="#o" x="18.94158" y="24.01648"/><use xlink:href="#u" x="25.00279" y="24.01648"/><use xlink:href="#v" x="34.6985" y="24.01648"/><use xlink:href="#s" x="40.98337" y="24.01648"/><use xlink:href="#r" x="44.85271" y="24.01648"/><use xlink:href="#w" x="52.60256" y="24.01648"/><use xlink:href="#x" x="58.64141" y="24.01648"/><use xlink:href="#y" x="61.56019" y="24.01648"/><use xlink:href="#q" x="66.9616" y="24.01648"/><use xlink:href="#z" x="69.89156" y="24.01648"/><use xlink:href="#A" x="75.29297" y="24.01648"/><use xlink:href="#r" x="80.52664" y="24.01648"/><use xlink:href="#B" x="85.92806" y="24.01648"/><path fill="#7FBFBF" stroke="#000" stroke-miterlimit="10" stroke-width=".39762" d="M82.58985 254.75V152.92965h63.64065V254.75Zm0 0"/><path fill="#F57FC5" stroke="#000" stroke-miterlimit="10" stroke-width=".39762" d="M146.22269 254.75v-50.91017h63.64064V254.75Zm0 0"/><path fill="#7FD6F7" stroke="#000" stroke-miterlimit="10" stroke-width=".39762" d="M209.85552 254.75V102.01948h63.63674V254.75Zm0 0"/><g clip-path="url(#C)"><path fill="#7FBFBF" d="M687.16406 127.47266h127.27735C814.4414 57.17969 757.45703.1953 687.16406.1953c-22.33593 0-44.29297 5.88672-63.63672 17.05469Zm0 0"/></g><g clip-path="url(#D)"><path fill="none" stroke="#000" stroke-miterlimit="10" stroke-width=".39762" d="M814.44166 127.47261c0-70.29299-56.9844-127.27738-127.27738-127.27738-22.33595 0-44.29299 5.88672-63.63674 17.0547"/></g><path fill="none" stroke="#000" stroke-miterlimit="10" stroke-width=".39762" d="M706.25803 127.47261c0-10.54297-8.55078-19.08985-19.09375-19.08985-3.35157 0-6.64454.88282-9.54688 2.5586"/><use xlink:href="#E" x="691.94532" y="104.53207"/><use xlink:href="#F" x="697.70459" y="104.53207"/><use xlink:href="#G" x="703.46386" y="104.53207"/><use xlink:href="#H" x="709.22313" y="104.53207"/><path fill="#F57FC5" d="M687.16406 127.47266 623.52734 17.25c-39.375 22.73047-63.64062 64.75781-63.64062 110.22266Zm0 0"/><path fill="none" stroke="#000" stroke-miterlimit="10" stroke-width=".39762" d="M623.52754 17.24992c-39.37502 22.73048-63.64065 64.75783-63.64065 110.2227m117.73051-16.53126c-5.90625 3.40625-9.54297 9.71094-9.54297 16.53125"/><use xlink:href="#I" x="653.09788" y="115.71316"/><use xlink:href="#G" x="658.85715" y="115.71316"/><use xlink:href="#H" x="664.61642" y="115.71316"/><g clip-path="url(#J)"><path fill="#7FD6F7" d="M687.16406 127.47266H559.88672c0 70.29296 56.98437 127.27734 127.27734 127.27734s127.27735-56.98437 127.27735-127.27734Zm0 0"/></g><g clip-path="url(#K)"><path fill="none" stroke="#000" stroke-miterlimit="10" stroke-width=".39762" d="M559.88689 127.47261c0 70.293 56.9844 127.27739 127.27739 127.27739s127.27738-56.9844 127.27738-127.27739"/></g><path fill="none" stroke="#000" stroke-miterlimit="10" stroke-width=".39762" d="M668.07443 127.47261c0 10.54298 8.54687 19.09376 19.08985 19.09376s19.09375-8.55078 19.09375-19.09376"/><use xlink:href="#E" x="676.67235" y="161.53206"/><use xlink:href="#L" x="682.43162" y="161.53206"/><use xlink:href="#G" x="688.19089" y="161.53206"/><use xlink:href="#H" x="693.95016" y="161.53206"/><g clip-path="url(#M)"><path fill="none" stroke="#000" stroke-miterlimit="10" stroke-width=".39762" d="M814.44166 127.47261c0-70.29299-56.9844-127.27738-127.27738-127.27738-70.293 0-127.2774 56.9844-127.2774 127.27738 0 70.293 56.9844 127.27739 127.2774 127.27739 70.29299 0 127.27738-56.9844 127.27738-127.27739Zm0 0"/></g><g clip-path="url(#N)"><path fill="none" stroke="#000" stroke-miterlimit="10" stroke-width=".39762" d="M814.42604 127.47261H687.16428L623.53144 17.25773l63.63284 110.21488H559.9025"/></g><use xlink:href="#a" x="707.82892" y="52.30944"/><use xlink:href="#b" x="719.66059" y="52.30944"/><use xlink:href="#c" x="730.46342" y="52.30944"/><use xlink:href="#d" x="738.80597" y="52.30944"/><use xlink:href="#O" x="721.36177" y="79.15063"/><use xlink:href="#e" x="595.67683" y="81.55053"/><use xlink:href="#f" x="608.78337" y="81.55053"/><use xlink:href="#g" x="620.90579" y="81.55053"/><use xlink:href="#b" x="630.05353" y="81.55053"/><use xlink:href="#P" x="612.69615" y="108.38948"/><use xlink:href="#h" x="665.79658" y="201.39648"/><use xlink:href="#i" x="679.12678" y="201.39648"/><use xlink:href="#b" x="684.9867" y="201.39648"/><use xlink:href="#j" x="695.78952" y="201.39648"/><use xlink:href="#Q" x="676.01806" y="228.23543"/><use xlink:href="#R" x="687.15637" y="228.23543"/></svg>