<svg xmlns="http://www.w3.org/2000/svg" xmlns:xlink="http://www.w3.org/1999/xlink" width="1038.945" height="860.16" viewBox="0 0 1038.945 860.16"><defs><path id="a" d="M-.85937-31.39062c2.67187.09374 3.23437.25 4.1875 2.76562 1.51562 3.98438 3.26562 8.71875 4.9375 13.45313L13.60938 0h3.375l6.04687-16.32812C25-21.5625 26.85938-26.40625 28.01563-28.92188c1.01562-2.21874 1.51562-2.32812 4.07812-2.46874V-32.75H21.67188v1.35938l2.5625.20312c1.21874.09375 1.3125.59375 1.0625 1.5-.5 2.07813-1.96876 6.25-3.67188 11L16.67188-5.14062l-.09376-.04688-4.39062-12.20312c-1.45312-4.125-2.96875-8.3125-4.17187-12.09376-.40625-1.20312-.25-1.60937.90625-1.70312l2.46875-.20312V-32.75h-12.25Zm0 0"/><path id="b" d="M2.3125-11.4375c0 7.5 3.23438 11.98438 10.9375 11.98438 5.25 0 7.96875-2.92188 9.21875-6.64063l-1.40625-.76562c-1.3125 2.78125-3.125 5-6.85937 5-5.89063 0-7.04688-5.65625-6.95313-10.59375h13.65625c1.01563 0 1.875-.25 1.875-1.8125 0-2.76563-.90625-9.51563-9.57812-9.51563-7.40625 0-10.89063 5.23438-10.89063 12.34375m5-2.82812c0-1.95313.70313-7.85938 5.64063-7.85938 4.375 0 4.89062 4.48438 4.89062 6.35938 0 .90625-.3125 1.5-1.625 1.5Zm0 0"/><path id="c" d="M1.51563 0h12.5v-1.35937c-4.23438-.25-4.48438-.35938-4.48438-2.76563v-11.09375c0-3.625 1.60938-4.89062 2.71875-4.89062.75 0 1.5625.3125 2.92188 1.0625.34375.20312.70312.25.95312.25 1.15625 0 2.17188-1.20313 2.17188-2.67188 0-1.0625-.65626-2.3125-2.53126-2.3125-1.70312 0-3.125 1-6.23437 3.78125l-.5625-3.78125-7.20312 1.20313v1.15624l1.76562.25c1.20313.20313 1.5625.40626 1.5625 2.125V-4.125c0 2.40625-.25 2.51563-3.57812 2.76563Zm0 0"/><path id="d" d="M1.46875-21.3125h3.42188v16.46875C4.89063 0 8.46875.54688 10.125.54688c2.42188 0 4.6875-1.20313 6.04688-2.0625l-.34376-1c-1.17187.45312-2.17187.59375-3.375.59375-1.625 0-3.125-1.15625-3.125-4.73438V-21.3125h6.09376v-1.92187H9.32813v-5.9375H7.96875l-2.875 5.9375h-3.625Zm0 0"/><path id="e" d="M1.65625 0h12.5v-1.35937c-1.96875-.20313-3.0625-.20313-3.42187-.75-.15625-.20313-.10938-.26563-.10938-2.28125v-11.03125h3.23438c2.8125 0 5.03125.85937 5.84375 4.07812.35937 1.3125.85937 5.09375 1.35937 7.26563C21.76563-1.0625 23.64063 0 26.40625 0h3.82813v-1.35937c-3.67188-.40625-4.48438-3.03125-4.89063-6.25-.54687-4.23438-1.40625-7.40625-6.45312-8.60938v-.10937c4.4375-.85938 7.71874-3.875 7.71874-8.35938 0-4.54687-2.875-8.0625-11.14062-8.0625H1.65625v1.35938c4.1875.29687 4.29688.34374 4.29688 3.01562v23.98438c0 2.67187-.10938 2.73437-4.29688 3.03125ZM10.625-17.07812v-11.6875c0-1.96876.3125-2.375 3.4375-2.375 3.53125 0 7.5 1.3125 7.5 6.90624 0 4.98438-2.60937 7.15626-7.20312 7.15626Zm0 0"/><path id="f" d="M2.3125-11.59375C2.3125-3.9375 6.09375.54688 13.70313.54688S25.04688-3.9375 25.04688-11.59375s-3.73438-12.1875-11.34376-12.1875S2.3125-19.25 2.3125-11.59375m4.9375 0c0-6.54687 2.125-10.53125 6.45313-10.53125 4.34375 0 6.45312 3.98438 6.45312 10.53125S18.04688-1.10937 13.70313-1.10937C9.375-1.10937 7.25-5.04687 7.25-11.59375m0 0"/><path id="g" d="m2.21875-7.90625.5 6.1875C4.4375-.20312 7.3125.54688 10.07813.54688c5.64062 0 8.875-2.96875 8.875-7 0-4.17188-2.57813-6.04688-7.46876-7.5625-1.95312-.59375-5.03124-1.60938-5.03124-4.28125 0-2.46876 1.85937-3.82813 4.23437-3.82813 3.375 0 4.98438 2.625 5.34375 5.5h1.35938v-5.54687c-1.5625-1.15626-3.98438-1.60938-6.10938-1.60938-5.14062 0-8.60937 2.42188-8.60937 6.90625 0 3.92188 3.21875 5.6875 7.15625 6.89063 2.10937.65625 5.09375 1.71875 5.09375 4.9375 0 2.42187-1.875 3.9375-4.39063 3.9375-3.82812 0-6-2.76563-6.95312-6.79688Zm0 0"/><path id="h" d="M1.65625 0h14.67188c7.20312 0 11.84374-2.5625 11.84374-9.17187 0-5.59375-3.98437-8.0625-8.5625-8.67188v-.09375c4.42188-.90625 7.04688-3.6875 7.04688-7.3125 0-2.60937-1-4.57812-2.92187-5.84375C21.875-32.29687 19.15624-32.75 15.375-32.75H1.65625v1.35938c4.1875.29687 4.29688.34374 4.29688 3.01562v23.98438c0 2.67187-.10938 2.73437-4.29688 3.03125ZM10.625-5.29687v-11.53125h3.39063c5.89062 0 9.10937 2.92187 9.10937 7.95312 0 5.70313-3.875 7.21875-7.95312 7.21875-3.78125 0-4.54688-.71875-4.54688-3.64062m0-13.20313v-10.26562c0-2.01563.15625-2.375 3.84375-2.375 3.46875 0 7.25 1.3125 7.25 6.20312 0 4.625-2.96875 6.4375-7.90625 6.4375Zm0 0"/><path id="i" d="M.95313 0H12.5v-1.35937c-3.375-.25-3.53125-.35938-3.53125-2.76563v-30.75l-.35937-.25-7.40625 1.15625V-32.75l1.76562.14063c1.21875.15624 1.51563.40624 1.51563 2.21874V-4.125c0 2.40625-.09375 2.51563-3.53125 2.76563Zm0 0"/><path id="j" d="m1.20313-21.42187 1.82812.25c1.20313.20312 1.5.40624 1.5 2.125v12.5c0 5.4375 3.23438 7.09375 6.75 7.09375 4.03125 0 7.3125-2.71875 8.67188-3.375L20.40624 0h7.60938v-1.35937c-3.28126-.25-3.57813-.35938-3.57813-2.76563v-19.35937l-.34375-.29688-7.42187 1.20313v1.15624l1.82812.25c1.20313.20313 1.5.40626 1.5 2.125v10.6875C20-7.0625 19.85938-6 19.60938-5.54687 18.5-3.375 16.28124-1.96875 13.8125-1.96875c-2.78125 0-4.79687-1.76562-4.79687-5.4375v-16.07812l-.34375-.29688-7.46875 1.20313Zm0 0"/><path id="k" d="M1.96875-15.82812c0 9.48437 2.76563 16.375 10.57813 16.375s10.64062-6.89063 10.64062-16.375c0-9.46875-2.82812-16.375-10.64062-16.375s-10.57813 6.90624-10.57813 16.375m4.78125 0c0-7.70313 1.3125-14.70313 5.79688-14.70313s5.79687 7 5.79687 14.70313c0 7.71875-1.3125 14.71875-5.79687 14.71875S6.75-8.10937 6.75-15.82812m0 0"/><path id="l" d="M1.92188-4.84375c0 2.17188 3.3125 5.39063 9.46875 5.39063 7.8125 0 11.32812-4.73438 11.32812-10.71875 0-6.65625-4.125-10.03125-9.76562-10.03125-2.625 0-5.5 1.15624-7 2.51562L7-26.65625c.15625-1.20312.45313-1.35937 1.35938-1.35937h11.79687L21.3125-31.25l-.25-.39062H5.23438l-.45313.45312-.95312 15.8125 1.15625.60938c1.96875-2.26563 3.89062-3.375 6.45312-3.375 3.03125 0 6.34375 2.21874 6.34375 8.46874 0 4.89063-1.95312 8.5625-6.09375 8.5625-3.32812 0-4.98437-2.375-5.9375-5.09374-.25-.70313-.70312-1.15625-1.35937-1.15625-.96875 0-2.46875.95312-2.46875 2.51562m0 0"/><path id="m" d="M5.14063 0h15.5625v-1.35937l-3.96876-.35938c-1.01562-.09375-1.5625-.45312-1.5625-2.3125v-27.92187l-.25-.25-9.78124 1.67187v1.15625l4.4375.54688c.79687.10937 1.10937.45312 1.10937 1.8125v22.98437c0 1.85938-.45312 2.21875-1.5625 2.3125l-3.98437.35938Zm0 0"/><path id="o" d="M1.14063-8.07812c0 2.76562.82812 5 2.23437 6.42187C4.84375-.20312 7.17188.35938 9.82813.35938c1.89062 0 4.07812-.53125 5.20312-1.14063l.32813-3.95312h-.70313c-.65625 2.46875-1.89062 4.25-4.98437 4.25-4.89063 0-5.89063-4.78125-5.89063-7.65625 0-3.875 1.53125-7.78125 5.9375-7.78125 2.42188 0 4.10938 1.01562 4.5625 3.8125h.70313v-3.70313c-1.0625-.51562-2.84375-.9375-5.01563-.9375-2.92187 0-5.26562.85938-6.67187 2.4375C1.9375-12.79687 1.14063-10.75 1.14063-8.07812m0 0"/><path id="p" d="M1.15625-5.79687c0 3.82812 1.89063 6.07812 5.6875 6.07812 3.8125 0 5.67188-2.25 5.67188-6.07812s-1.85938-6.09375-5.67188-6.09375c-3.79687 0-5.6875 2.26562-5.6875 6.09375m2.46875 0c0-3.26563 1.0625-5.26563 3.21875-5.26563 2.17188 0 3.23438 2 3.23438 5.26563 0 3.28125-1.0625 5.25-3.23438 5.25-2.15625 0-3.21875-1.96875-3.21875-5.25m0 0"/><path id="q" d="m.60938-10.70312.90625.125c.59375.09375.75.20312.75 1.0625v6.23437c0 2.73438 1.60937 3.5625 3.375 3.5625 2.01562 0 3.65625-1.35937 4.32812-1.6875L10.20313 0H14v-.6875c-1.64062-.125-1.78125-.17187-1.78125-1.375v-9.67187l-.17187-.15625-3.70313.60937v.57813l.90625.125c.59375.09375.75.20312.75 1.0625v5.32812C10-3.53125 9.92188-3 9.79688-2.76562 9.25-1.6875 8.14063-.98437 6.90625-.98437c-1.39062 0-2.39062-.875-2.39062-2.71875v-8.03125l-.1875-.15625-3.71875.60937Zm0 0"/><path id="r" d="M.48438 0H6.25v-.6875c-1.6875-.125-1.76562-.17187-1.76562-1.375v-15.375l-.17188-.125-3.70312.59375v.59375l.875.07813c.60937.07812.75.20312.75 1.10937v13.125c0 1.20313-.04688 1.25-1.75 1.375Zm0 0"/><path id="s" d="M1.15625-5.71875c0 3.75 1.60938 6 5.46875 6 2.625 0 3.98438-1.46875 4.60938-3.32812l-.70313-.375C9.875-2.04687 8.96875-.9375 7.10938-.9375 4.15625-.9375 3.57813-3.75 3.625-6.21875h6.82813c.5 0 .9375-.125.9375-.90625 0-1.39062-.45313-4.76562-4.79688-4.76562-3.70312 0-5.4375 2.625-5.4375 6.17187m2.5-1.40625c0-.98437.34375-3.9375 2.8125-3.9375 2.20313 0 2.45313 2.25 2.45313 3.17188 0 .45312-.15625.76562-.8125.76562Zm0 0"/><path id="t" d="M.75 0H7v-.6875c-2.10937-.125-2.23437-.17187-2.23437-1.375v-5.54687c0-1.8125.79687-2.4375 1.35937-2.4375.375 0 .78125.14062 1.45313.53125.17187.09375.35937.125.48437.125.57813 0 1.07813-.60938 1.07813-1.34375 0-.53125-.32813-1.15625-1.25-1.15625-.85938 0-1.5625.5-3.125 1.89062l-.28125-1.89062-3.60938.60937v.57813l.89063.125c.60937.09375.78125.20312.78125 1.0625v7.45312c0 1.20313-.125 1.25-1.79688 1.375Zm0 0"/><path id="u" d="M0-.82812v-5.625h-.6875c-.125 1.54687-.1875 2.125-1.17187 2.26562-.78125.125-1.6875.15625-2.95313.15625H-14.25v-.04687C-9.5-7.45312-4.76562-10.8125 0-14.15625v-1.5625h-11.59375c-1.25 0-2.14062-.04687-2.92187-.17187-.96875-.15625-1.07813-.70313-1.17188-1.9375h-.6875v5.60937h.6875c.125-1.53125.20313-2.09375 1.17188-2.23437.78125-.125 1.67187-.1875 2.92187-.1875h8.3125l-.04687.0625c-4.35938 3.09375-8.6875 6.1875-13.04688 9.23437V-.8125h.6875c.14063-2.07812.17188-2.14062 1.5-2.14062h9.375c1.26563 0 2.17188.0625 2.95313.1875C-.875-2.625-.78125-2.0625-.6875-.82812Zm0 0"/><path id="v" d="M-5.79687-1.15625c3.82812 0 6.07812-1.89062 6.07812-5.6875 0-3.8125-2.25-5.67187-6.07812-5.67187s-6.09375 1.85937-6.09375 5.67187c0 3.79688 2.26562 5.6875 6.09375 5.6875m0-2.46875c-3.26563 0-5.26563-1.0625-5.26563-3.21875 0-2.17187 2-3.23437 5.26563-3.23437 3.28125 0 5.25 1.0625 5.25 3.23437 0 2.15625-1.96875 3.21875-5.25 3.21875m0 0"/><path id="w" d="M0-.75v-5.78125h-.6875c-.125 1.6875-.17187 1.76563-1.375 1.76563h-5.54687c-.60938 0-.92188 0-1.25-.17188-.96875-.45312-1.75-1.48437-1.75-2.79687 0-2.03125 1.48437-2.29688 2.95312-2.29688h5.59375c1.20313 0 1.25.07813 1.375 1.79688H0V-14h-.6875c-.125 1.6875-.17187 1.76563-1.375 1.76563h-5.54687c-.60938 0-.90625-.03125-1.28125-.1875-.95313-.34375-1.71875-1.35938-1.71875-2.6875 0-1.48438.84375-2.39063 2.95312-2.39063h5.59375c1.20313 0 1.25.0625 1.375 1.78125H0v-5.79687h-.6875c-.125 1.6875-.17187 1.79687-1.375 1.79687h-6.04687c-2.39063 0-3.78125 1.28125-3.78125 3.51563 0 1.95312 1.28125 3.32812 1.8125 4.15624-1.10938.59375-1.8125 1.5-1.8125 3.15626 0 1.8125 1.21875 3.29687 1.8125 4.125l-1.8125.23437.60937 3.65625h.57813l.125-.89062c.09375-.60938.20312-.78125 1.0625-.78125h7.45312c1.20313 0 1.25.07812 1.375 1.79687Zm0 0"/><path id="x" d="m-16.375-.48437.07813-.90625c.07812-.59375.20312-.75 1.10937-.75H.09375l.1875-.42188L-.625-3.5c.46875-.82812.90625-1.84375.90625-3.60937C.28125-10.25-1.23437-13-6.0625-13c-1.46875 0-5.82812.3125-5.82812 4.5625 0 1.78125 1.15625 3.20313 1.6875 4.07813h-7.23438l-.125.17187.59375 3.70313Zm12.51563-3.875h-3.75c-.60938 0-.95313-.01563-1.32813-.21875-1.14062-.57813-1.67187-1.5625-1.67187-2.90625 0-.98438.5625-3.04688 4.6875-3.04688 3.48437 0 5.375 1.0625 5.375 3.40625 0 1.25-.64063 2.15625-1.82813 2.59375-.42187.15625-.90625.17188-1.48437.17188m0 0"/><path id="y" d="M0-.75V-7h-.6875c-.125 2.10938-.17187 2.23438-1.375 2.23438h-5.54687c-1.8125 0-2.4375-.79688-2.4375-1.35938 0-.375.14062-.78125.53125-1.45312.09375-.17188.125-.35938.125-.48438 0-.57812-.60938-1.07812-1.34375-1.07812-.53125 0-1.15625.32812-1.15625 1.25 0 .85937.5 1.5625 1.89062 3.125l-1.89062.28125.60937 3.60937h.57813l.125-.89062c.09375-.60938.20312-.78125 1.0625-.78125h7.45312c1.20313 0 1.25.125 1.375 1.79687Zm0 0"/><path id="z" d="M-5.71875-1.15625c3.75 0 6-1.60937 6-5.46875 0-2.625-1.46875-3.98437-3.32812-4.60937l-.375.70312c1.375.65625 2.48437 1.5625 2.48437 3.42188 0 2.95312-2.8125 3.53125-5.28125 3.48437v-6.82812c0-.5-.125-.9375-.90625-.9375-1.39062 0-4.76562.45312-4.76562 4.79687 0 3.70313 2.625 5.4375 6.17187 5.4375m-1.40625-2.5c-.98437 0-3.9375-.34375-3.9375-2.8125 0-2.20312 2.25-2.45312 3.17188-2.45312.45312 0 .76562.15625.76562.8125Zm0 0"/><path id="A" d="M-5.5625-1.15625C-2.0625-1.15625.28125-3 .28125-6.125c0-1.28125-.57812-2.35937-1.60937-3.64062h1.15625L0-9.96875v-3.82812h-.6875c-.125 1.6875-.17187 1.75-1.375 1.75h-15.375l-.125.1875.59375 3.71875h.59375l.07813-.90625c.07812-.59375.20312-.75 1.10937-.75h3.875c-.34375.65625-.57812 1.53125-.57812 2.625 0 1.9375.625 3.39062 1.64062 4.375 1.0625 1.01562 2.625 1.64062 4.6875 1.64062M-5.84375-3.625c-3.07812 0-5.21875-1.10937-5.21875-3.53125 0-1.10937.51563-2.01562 1.48438-2.4375.40625-.20312.76562-.20312 1.39062-.20312h4.15625c.53125 0 .9375 0 1.34375.15625 1.23438.46875 1.70313 1.5 1.70313 2.73437 0 2.17188-2.14063 3.28125-4.85938 3.28125m0 0"/><path id="B" d="m-11.5625-1.71875.375-.39062c-1.07812-1.1875-2.67187-2.79688-4.35937-2.79688-1.28125 0-2.01563.78125-2.01563 1.5625 0 .70313.51563 1.125 1.14063 1.125.85937 0 1.32812-.78125 2.21874-.78125.90625 0 1.78125.5625 2.64063 1.28125m0 0"/><path id="C" d="m-13.29687-4.76562.46875-.34375-1.98438-3.57813c-.375-.70312-.78125-1.34375-1.28125-1.34375-.48437 0-1.03125.59375-1.03125.9375 0 .40625.25.8125.98438 1.51563Zm7.57812 3.60937c3.75 0 6-1.60937 6-5.46875 0-2.625-1.46875-3.98437-3.32812-4.60937l-.375.70312c1.375.65625 2.48437 1.5625 2.48437 3.42188 0 2.95312-2.8125 3.53125-5.28125 3.48437v-6.82812c0-.5-.125-.9375-.90625-.9375-1.39062 0-4.76562.45312-4.76562 4.79687 0 3.70313 2.625 5.4375 6.17187 5.4375m-1.40625-2.5c-.98437 0-3.9375-.34375-3.9375-2.8125 0-2.20312 2.25-2.45312 3.17188-2.45312.45312 0 .76562.15625.76562.8125Zm0 0"/><path id="D" d="M0-.48437V-6.25h-.6875c-.125 1.6875-.17187 1.76563-1.375 1.76563h-15.375l-.125.17187.59375 3.70313h.59375l.07813-.875c.07812-.60938.20312-.75 1.10937-.75h13.125c1.20313 0 1.25.04687 1.375 1.75Zm0 0"/><path id="E" d="M-16.09375-2.875c.5 0 .90625-.59375 1.28125-1.3125l1.98438-3.5625-.46875-.35937-2.84375 2.79687c-.73438.70313-.98438 1.125-.98438 1.53125 0 .35938.54688.90625 1.03125.90625m10.375 1.71875c3.75 0 6-1.60937 6-5.46875 0-2.625-1.46875-3.98437-3.32812-4.60937l-.375.70312c1.375.65625 2.48437 1.5625 2.48437 3.42188 0 2.95312-2.8125 3.53125-5.28125 3.48437v-6.82812c0-.5-.125-.9375-.90625-.9375-1.39062 0-4.76562.45312-4.76562 4.79687 0 3.70313 2.625 5.4375 6.17187 5.4375m-1.40625-2.5c-.98437 0-3.9375-.34375-3.9375-2.8125 0-2.20312 2.25-2.45312 3.17188-2.45312.45312 0 .76562.15625.76562.8125Zm0 0"/><path id="F" d="M-10.90625-.03125c.09375-1.10937.17188-1.32812 1.0625-1.6875 1.5625-.625 3.09375-1.15625 4.73438-1.75L0-5.3125V-7l-5.71875-2.125c-1.84375-.67187-3.42187-1.375-4.1875-1.70312-.82812-.35938-.95312-.60938-1-1.6875h-.70312v4.48437h.70312l.09375-1.15625c.0625-.39062.32813-.45312.65625-.35937.76563.20312 2.14063.625 3.65625 1.1875l4.35938 1.57812v.0625L-6.125-5.29687c-1.35937.48437-2.6875.96875-3.96875 1.42187-.45312.17188-.65625.07813-.71875-.375l-.09375-1.09375h-.70312v5.3125Zm0 0"/><path id="G" d="m-3.95312-1.10937 3.09375-.25C-.09376-2.21875.28124-3.65625.28124-5.03125c0-2.82812-1.48437-4.4375-3.5-4.4375C-5.3125-9.46875-6.25-8.1875-7-5.75c-.29687.98438-.8125 2.53125-2.14062 2.53125-1.23438 0-1.92188-.9375-1.92188-2.125 0-1.6875 1.3125-2.48437 2.75-2.67187v-.67188h-2.76562c-.57813.78125-.8125 1.98438-.8125 3.04688 0 2.5625 1.21875 4.3125 3.45312 4.3125 1.96875 0 2.84375-1.625 3.45313-3.57813.32812-1.0625.85937-2.54687 2.46875-2.54687 1.20312 0 1.96875.92187 1.96875 2.1875 0 1.92187-1.39063 3-3.40625 3.48437Zm0 0"/><path id="J" d="M-.1875-6.98437c.59375.03125.71875.0625.92188.625.34375.875.73437 1.9375 1.10937 2.98437L3.03125 0h.75L5.125-3.625c.4375-1.17187.84375-2.25 1.10938-2.8125.21875-.48437.32812-.51562.90625-.54687v-.29688H4.8125v.29688l.57813.04687c.26562.03125.29687.14063.23437.34375-.10937.45313-.4375 1.39063-.8125 2.4375L3.70313-1.14062l-.01563-.01563-.96875-2.70312c-.32812-.92188-.67187-1.85938-.9375-2.6875-.09375-.28125-.0625-.35938.20313-.39063l.54687-.04687v-.29688H-.1875Zm0 0"/><path id="K" d="M.51563-2.54687C.51563-.875 1.23438.125 2.95313.125 4.10938.125 4.71875-.53125 5-1.35937l-.3125-.17188c-.29687.625-.70312 1.10938-1.53125 1.10938-1.3125 0-1.5625-1.25-1.54687-2.34375h3.04687c.21875 0 .40625-.0625.40625-.40625 0-.60938-.20312-2.10938-2.125-2.10938-1.65625 0-2.42187 1.15625-2.42187 2.73438m1.10937-.625c0-.4375.15625-1.75 1.25-1.75.98438 0 1.09375 1 1.09375 1.42187 0 .1875-.0625.32813-.35937.32813Zm0 0"/><path id="L" d="M.34375 0h2.76563v-.29687c-.9375-.0625-.98438-.07813-.98438-.625v-2.46875c0-.79688.34375-1.07813.59375-1.07813.17188 0 .34375.0625.65625.23438.07813.04687.15625.0625.20313.0625.26562 0 .48437-.28125.48437-.59375 0-.23438-.14062-.51563-.5625-.51563-.375 0-.6875.21875-1.375.82813L2-5.28125l-1.60937.26563v.25l.39062.0625c.26563.04687.34375.09375.34375.46875v3.3125c0 .54687-.04687.5625-.78125.625Zm0 0"/><path id="M" d="M.32813-4.73437h.76562v3.65625C1.09375 0 1.875.125 2.25.125c.54688 0 1.04688-.26562 1.34375-.46875L3.51563-.5625c-.25.10938-.48438.14063-.75.14063-.35938 0-.6875-.26563-.6875-1.0625v-3.25h1.34375v-.4375H2.07813v-1.3125h-.3125L1.125-5.17187H.32813Zm0 0"/><path id="O" d="M.375 0h2.76563v-.29687c-.42188-.04688-.67188-.04688-.75-.17188-.03125-.04687-.03125-.0625-.03125-.5v-2.45312h.71875c.625 0 1.125.1875 1.29687.90625.07813.28125.20313 1.125.3125 1.60937C4.84375-.23437 5.25 0 5.875 0h.84375v-.29687c-.8125-.09375-1-.67188-1.07812-1.39063-.125-.9375-.3125-1.65625-1.4375-1.92187V-3.625c.98437-.1875 1.71875-.875 1.71875-1.85937 0-1.01563-.64063-1.79688-2.48438-1.79688H.375v.29688c.92188.07812.95313.07812.95313.67187v5.34375c0 .59375-.03126.59375-.95313.67188Zm1.98438-3.79687v-2.59375c0-.4375.07812-.53125.76562-.53125.78125 0 1.67188.29687 1.67188 1.53125 0 1.10937-.57813 1.59375-1.60938 1.59375Zm0 0"/><path id="P" d="M.51563-2.57812C.51563-.875 1.35938.125 3.04688.125s2.51562-1 2.51562-2.70312-.82812-2.70313-2.51562-2.70313-2.53125 1-2.53125 2.70313m1.09375 0c0-1.45313.46875-2.34375 1.4375-2.34375s1.4375.89062 1.4375 2.34375C4.48438-1.125 4.01563-.25 3.04688-.25s-1.4375-.875-1.4375-2.32812m0 0"/><path id="Q" d="M.5-1.76562.60938-.375c.375.32813 1.01562.5 1.625.5C3.5.125 4.21875-.53125 4.21875-1.4375c0-.92187-.57812-1.34375-1.67187-1.67187C2.125-3.25 1.4375-3.46875 1.4375-4.0625c0-.54687.40625-.85937.9375-.85937.75 0 1.10938.59375 1.1875 1.21875h.29688v-1.21875c-.34375-.26563-.875-.35938-1.34375-.35938C1.35938-5.28125.59375-4.75.59375-3.75c0 .875.71875 1.26563 1.59375 1.53125.46875.14063 1.125.375 1.125 1.09375 0 .54688-.40625.875-.96875.875-.85937 0-1.32812-.60937-1.54687-1.51562Zm0 0"/><path id="U" d="M.375 0h3.25c1.60938 0 2.64063-.57812 2.64063-2.03125 0-1.25-.89063-1.79687-1.90625-1.9375v-.01562c.98437-.20313 1.5625-.82813 1.5625-1.625 0-.57813-.21875-1.01563-.64063-1.29688-.42187-.28125-1.03125-.375-1.85937-.375H.375v.29688c.92188.07812.95313.07812.95313.67187v5.34375c0 .59375-.03126.59375-.95313.67188Zm1.98438-1.17187v-2.5625h.75c1.3125 0 2.03125.64062 2.03125 1.76562C5.14063-.70312 4.28125-.375 3.375-.375c-.84375 0-1.01562-.15625-1.01562-.79687m0-2.9375v-2.28125c0-.45313.03125-.53125.85937-.53125.76563 0 1.60938.29687 1.60938 1.375 0 1.03125-.65625 1.4375-1.76563 1.4375Zm0 0"/><path id="V" d="M.21875 0h2.5625v-.29687C2.03125-.35937 2-.375 2-.92187V-7.75l-.07812-.0625-1.65625.26563v.26562L.65625-7.25C.9375-7.21875 1-7.15625 1-6.75v5.82813c0 .54687-.03125.5625-.78125.625Zm0 0"/><path id="W" d="m.26563-4.76562.40625.0625c.26562.04687.34375.09375.34375.46875v2.78125c0 1.20312.70312 1.57812 1.5 1.57812.89062 0 1.625-.60937 1.92187-.75L4.53125 0h1.70313v-.29687C5.5-.35937 5.4375-.375 5.4375-.92187v-4.29688l-.07812-.0625-1.65625.26563v.25l.40625.0625c.26562.04687.34375.09375.34375.46875v2.375c0 .29687-.04688.53125-.09375.625-.25.48437-.73438.79687-1.29688.79687C2.45313-.4375 2-.82812 2-1.64062v-3.57813l-.07812-.0625-1.65625.26563Zm0 0"/><path id="N" d="M.875-3.82812C.875-1.70312 2.17188.25 5.57813.25s4.70312-1.95312 4.70312-4.07812c0-2.15625-1.34375-3.375-2.78125-3.71875v-.04688C8.78125-7.92187 9.8125-9 9.8125-10.71875c0-2.29687-1.8125-3.59375-4.23437-3.59375s-4.23438 1.29688-4.23438 3.59375c0 1.71875 1.07813 2.79688 2.32813 3.125v.04688C2.26563-7.20312.875-5.98437.875-3.82812m2.10938.0625c0-1.92188.90625-3.35938 2.59375-3.35938 1.67187 0 2.59375 1.4375 2.59375 3.35938C8.17188-1.90625 7.34375-.5 5.57813-.5 3.8125-.5 2.98438-1.90625 2.98438-3.76562m.39062-7c0-1.60938.76563-2.79688 2.20313-2.79688s2.1875 1.1875 2.1875 2.79688c0 1.42187-.67188 2.89062-2.1875 2.89062-1.53125 0-2.20313-1.46875-2.20313-2.89062m0 0"/><path id="R" d="m.40625-4.20312.17188.4375H6.3125v2.15625c0 .71875-.21875.82812-.73437.875l-1.34375.125V0h5.54687v-.60937l-.9375-.10938c-.48437-.0625-.625-.17187-.625-.89062v-2.15625h2.14063V-4.75H8.21875v-9.3125H6.67188C4.70313-11.15625 2.32813-7.5.40625-4.20312M1.92188-4.75c1.25-2.28125 2.73437-4.71875 4.34375-7.28125h.04687V-4.75Zm0 0"/><path id="X" d="M2.28125 0h6.92188v-.60937L7.4375-.76563c-.45312-.04687-.70312-.20312-.70312-1.03124v-12.40625L6.625-14.3125l-4.34375.75v.51563L4.25-12.8125c.35938.04688.5.20313.5.8125v10.20313c0 .40625-.04687.65625-.1875.8125-.10937.15624-.28125.20312-.51562.21874l-1.76563.15626Zm0 0"/><path id="Y" d="M.5625-.20312.78125 0H9.5l.70313-2.78125-.57813-.10937C9.1875-1.75 8.75-1.59375 7.90625-1.59375h-5.375c.32813-1.09375 1.59375-2.59375 3.53125-4 2.01563-1.48437 3.59375-2.42187 3.59375-4.76562 0-2.9375-1.95312-3.95313-4.17187-3.95313-2.89063 0-4.35938 1.75-4.35938 2.84375 0 .71875.79688 1.0625 1.15625 1.0625.39063 0 .51563-.23437.60938-.59375.32812-1.42187 1.15625-2.5625 2.45312-2.5625 1.625 0 2.09375 1.34375 2.09375 2.875 0 2.26563-1.14062 3.54688-2.98437 5.15625C1.85938-3.26562.96875-1.84375.5625-.20312m0 0"/><clipPath id="n"><path d="M273.40234 286h680.23828v445.23438H273.40234Zm0 0"/></clipPath><clipPath id="H"><path d="M846 476h192.41016v128H846Zm0 0"/></clipPath><clipPath id="I"><path d="M846 475h192.41016v130H846Zm0 0"/></clipPath><clipPath id="S"><path d="M783 603h255.41016v129H783Zm0 0"/></clipPath><clipPath id="T"><path d="M782 603h256.41016v129H782Zm0 0"/></clipPath></defs><path fill="#FFF" d="M273.40234 731.23438h680.23828V175.71484H273.40234Zm0 0"/><path fill="none" stroke="#7F7F7F" stroke-miterlimit="10" stroke-width=".44788" d="M330.09375 752.73828v-21.5039m283.4297 21.5039v-21.5039m283.4258 21.5039v-21.5039M330.09375 154.2109v21.5039m283.4297-21.5039v21.5039m283.4258-21.5039v21.5039M273.40234 731.23437h21.5039m-21.5039-185.17188h21.5039m-21.5039-185.1758h21.5039m-21.5039-185.17188h21.5039m658.73442 555.51956h-21.5039m21.5039-185.17188h-21.5039m21.5039-185.1758h-21.5039m21.5039-185.17188h-21.5039"/><path fill="none" stroke="#000" stroke-miterlimit="10" stroke-width=".89575" d="M273.40234 731.23437V175.71481h680.23832v555.51956Zm0 0"/><use xlink:href="#a" x="287.06321" y="803.28754"/><use xlink:href="#b" x="313.71776" y="803.28754"/><use xlink:href="#c" x="338.05451" y="803.28754"/><use xlink:href="#d" x="356.84873" y="803.28754"/><use xlink:href="#e" x="562.62836" y="803.28754"/><use xlink:href="#f" x="592.15494" y="803.28754"/><use xlink:href="#g" x="619.46451" y="803.28754"/><use xlink:href="#b" x="640.07265" y="803.28754"/><use xlink:href="#h" x="848.82337" y="805.65673"/><use xlink:href="#i" x="878.85382" y="805.65673"/><use xlink:href="#b" x="892.05512" y="805.65673"/><use xlink:href="#j" x="916.39188" y="805.65673"/><use xlink:href="#k" x="230.51294" y="747.05421"/><use xlink:href="#l" x="230.51294" y="561.60581"/><use xlink:href="#m" x="205.42069" y="376.71262"/><use xlink:href="#k" x="230.51325" y="376.71262"/><use xlink:href="#m" x="205.42069" y="191.5407"/><use xlink:href="#l" x="230.51325" y="191.5407"/><g clip-path="url(#n)"><path fill="#7FBFBF" stroke="#007F7F" stroke-miterlimit="10" stroke-width=".89575" d="M405.67579 434.95701H254.5117v296.27736h151.1641Zm283.4258 148.13673H537.94141v148.14063h151.16016Zm283.4297-296.27736H821.37111v444.418h151.16016Zm0 0"/></g><use xlink:href="#o" x="924.70701" y="842.17456"/><use xlink:href="#p" x="940.604" y="842.17456"/><use xlink:href="#q" x="954.25879" y="842.17456"/><use xlink:href="#r" x="968.59379" y="842.17456"/><use xlink:href="#s" x="975.19445" y="842.17456"/><use xlink:href="#q" x="987.36282" y="842.17456"/><use xlink:href="#t" x="1001.69783" y="842.17456"/><use xlink:href="#u" x="34.83253" y="195.76657"/><use xlink:href="#v" x="34.83253" y="178.00527"/><use xlink:href="#w" x="34.83253" y="164.35049"/><use xlink:href="#x" x="34.83253" y="142.50787"/><use xlink:href="#y" x="34.83253" y="128.34922"/><use xlink:href="#z" x="34.83253" y="119.63233"/><use xlink:href="#A" x="34.83253" y="102.14816"/><use xlink:href="#B" x="34.83253" y="88.56895"/><use xlink:href="#C" x="34.83253" y="81.99349"/><use xlink:href="#D" x="34.83253" y="69.82512"/><use xlink:href="#E" x="34.83253" y="63.22446"/><use xlink:href="#F" x="34.83253" y="51.05609"/><use xlink:href="#z" x="34.83253" y="39.26561"/><use xlink:href="#G" x="34.83253" y="27.09723"/><g clip-path="url(#H)"><path fill="#7FBFBF" d="M910.58594 603.79688h127.4375c0-70.38282-57.05469-127.4375-127.4375-127.4375-22.36328 0-44.34766 5.89453-63.71485 17.07421Zm0 0"/></g><g clip-path="url(#I)"><path fill="none" stroke="#000" stroke-linejoin="round" stroke-miterlimit="10" stroke-width=".79623" d="M910.58569 603.79692h127.43745c0-70.38278-57.05467-127.43745-127.43745-127.43745-22.36327 0-44.34764 5.89453-63.71482 17.07422Zm0 0"/></g><use xlink:href="#J" x="999.09312" y="457.30242"/><use xlink:href="#K" x="1005.02755" y="457.30242"/><use xlink:href="#L" x="1010.43572" y="457.30242"/><use xlink:href="#M" x="1014.60101" y="457.30242"/><path fill="none" stroke="#B2D9D9" stroke-miterlimit="10" stroke-width=".39811" d="m975.65207 491.879 22.96093-26.53124"/><use xlink:href="#N" x="936.86189" y="555.64937"/><path fill="#F57FC5" stroke="#000" stroke-linejoin="round" stroke-miterlimit="10" stroke-width=".79623" d="M910.58569 603.79692 846.87087 493.4337c-39.42186 22.7578-63.71872 64.83981-63.71872 110.36323Zm0 0"/><use xlink:href="#O" x="741.58659" y="515.15991"/><use xlink:href="#P" x="748.14805" y="515.15991"/><use xlink:href="#Q" x="754.21685" y="515.15991"/><use xlink:href="#K" x="758.79643" y="515.15991"/><path fill="none" stroke="#B2D9D9" stroke-miterlimit="10" stroke-width=".39811" d="m798.66776 539.1407-26.53124-15.98046"/><use xlink:href="#R" x="831.76353" y="568.54578"/><g clip-path="url(#S)"><path fill="#7F7FFF" d="M910.58594 603.79688h-127.4336c0 70.3828 57.05079 127.4375 127.4336 127.4375s127.4375-57.0547 127.4375-127.4375Zm0 0"/></g><g clip-path="url(#T)"><path fill="none" stroke="#000" stroke-linejoin="round" stroke-miterlimit="10" stroke-width=".79623" d="M910.58569 603.79692H783.15215c0 70.38279 57.05075 127.43745 127.43354 127.43745 70.38278 0 127.43745-57.05466 127.43745-127.43745Zm0 0"/></g><use xlink:href="#U" x="899.885" y="779.47379"/><use xlink:href="#V" x="906.55844" y="779.47379"/><use xlink:href="#K" x="909.49206" y="779.47379"/><use xlink:href="#W" x="914.90023" y="779.47379"/><path fill="none" stroke="#B2D9D9" stroke-miterlimit="10" stroke-width=".39811" d="M910.58569 732.78516v30.95701"/><use xlink:href="#X" x="899.42545" y="653.8195"/><use xlink:href="#Y" x="910.5777" y="653.8195"/></svg>