<svg xmlns="http://www.w3.org/2000/svg" xmlns:xlink="http://www.w3.org/1999/xlink" width="514.34pt" height="310.695pt" viewBox="0 0 514.34 310.695"><defs><path id="a" d="M.45313-1.71875C.45313-1 1.60938.20313 4 .20313c2.42188 0 3.96875-1.23438 3.96875-3.39063 0-2.25-1.9375-2.92187-2.85937-3.01562v-.0625c.90625-.14063 2.35937-.82813 2.35937-2.48438 0-1.875-1.45312-2.6875-3.26562-2.6875-2.21875 0-3.3125 1.28125-3.3125 2 0 .51563.59375.8125.82812.8125.21875 0 .34375-.125.40625-.34375.375-1.14062 1.01563-1.875 1.95313-1.875 1.32812 0 1.67187 1.15625 1.67187 2.10938 0 1-.35937 2.26562-1.79687 2.26562-.79688 0-1.26563-.15625-1.46875-.15625-.20313 0-.29688.15625-.29688.46875 0 .28125.09375.46875.29688.46875s.67187-.17187 1.46875-.17187c1.4375 0 2.25 1.29687 2.25 2.76562 0 2-1 2.70313-2.1875 2.70313-1.10938 0-1.84375-.82813-2.17188-1.78125-.10937-.3125-.26562-.48438-.5-.48438-.3125 0-.89062.32813-.89062.9375m0 0"/><path id="b" d="M.73438-5.1875c0 3.625 1.32812 5.39063 3.84375 5.39063 2.5 0 3.8125-1.51563 3.8125-3.79688S7-7.10937 5.1875-7.10937c-1.3125 0-2.29687.89062-2.75 1.45312.01563-3.70312 1.03125-5.1875 2.5625-5.1875.76563 0 1.32813.64063 1.57813 1.60938C6.625-9.04687 6.75-8.875 7-8.875c.375 0 .89063-.3125.89063-.78125 0-.67187-.8125-1.78125-2.84375-1.78125-2.67188 0-4.3125 2.04688-4.3125 6.25M2.4375-3.96875C2.4375-5 3.20313-6.25 4.625-6.25c1.04688 0 2.09375.96875 2.09375 2.90625 0 1.76563-.6875 2.95313-2.09375 2.95313-1.46875 0-2.1875-1.5625-2.1875-3.57813m0 0"/><path id="c" d="M.60938-7.64062c0 2.26562 1.39062 3.5 3.20312 3.5 1.32813 0 2.3125-.89063 2.76563-1.45313C6.54688-1.875 5.53125-.39062 4.01563-.39062 3.23438-.39062 2.6875-1.03125 2.4375-2 2.375-2.20312 2.25-2.35937 2-2.35937c-.375 0-.89062.29687-.89062.76562 0 .6875.82812 1.79688 2.84375 1.79688 2.67187 0 4.3125-2.0625 4.3125-6.25 0-3.64063-1.3125-5.39063-3.84375-5.39063-2.48438 0-3.8125 1.5-3.8125 3.79688m1.6875-.25c0-1.78125.67187-2.95313 2.09375-2.95313 1.46875 0 2.1875 1.54688 2.1875 3.57813C6.57813-6.25 5.79688-5 4.39063-5c-1.0625 0-2.09375-.96875-2.09375-2.89062m0 0"/><path id="d" d="M1.82813 0h5.53125v-.48437l-1.42188-.125c-.34375-.03126-.54687-.15626-.54687-.82813v-9.92187l-.09375-.07813-3.46875.59375v.40625l1.57812.1875c.28125.04688.39063.17188.39063.65625v8.15625c0 .67188-.15625.79688-.5625.82813l-1.40625.125Zm0 0"/><path id="e" d="M.45313-.15625.625 0h6.96875l.57813-2.21875-.46875-.09375C7.34375-1.39062 7-1.26562 6.32813-1.26562h-4.3125c.28125-.89063 1.28125-2.07813 2.84375-3.20313 1.60937-1.1875 2.85937-1.9375 2.85937-3.82812 0-2.34375-1.5625-3.14063-3.32812-3.14063-2.3125 0-3.5 1.39063-3.5 2.26563 0 .57812.65625.84375.9375.84375.29687 0 .40625-.17188.48437-.46875.26563-1.14063.92188-2.04688 1.96875-2.04688 1.28125 0 1.65625 1.0625 1.65625 2.29688 0 1.8125-.90625 2.82812-2.375 4.125C1.48438-2.60937.76563-1.46875.45313-.15625m0 0"/><path id="f" d="M.6875-1.71875c0 .76563 1.17188 1.92188 3.35938 1.92188 2.78125 0 4.03125-1.6875 4.03125-3.8125 0-2.375-1.46875-3.57813-3.46875-3.57813-.9375 0-1.95313.42188-2.5.90625l.375-3.1875c.0625-.4375.17187-.48437.48437-.48437h4.1875l.42188-1.15625-.09375-.14063h-5.625l-.15626.17188-.34374 5.60937.40625.21875c.70312-.79687 1.39062-1.20312 2.29687-1.20312 1.07813 0 2.26563.79687 2.26563 3.01562 0 1.73438-.70313 3.04688-2.17188 3.04688-1.1875 0-1.78125-.84375-2.10937-1.8125-.09375-.25-.25-.40625-.48438-.40625-.34375 0-.875.32812-.875.89062m0 0"/><path id="g" d="M.70313-3.0625c0 1.70313 1.03125 3.26563 3.75 3.26563 2.73437 0 3.76562-1.5625 3.76562-3.26563 0-1.71875-1.07812-2.71875-2.21875-2.98437 1.01563-.28125 1.84375-1.15625 1.84375-2.53125 0-1.82813-1.45312-2.85938-3.39062-2.85938-1.92188 0-3.375 1.03125-3.375 2.85938 0 1.375.85937 2.25 1.85937 2.53125C1.8125-5.78125.70313-4.78125.70313-3.0625m1.67187.04688c0-1.53125.73438-2.67188 2.07813-2.67188s2.07812 1.14063 2.07812 2.67188c0 1.5-.65625 2.625-2.07812 2.625-1.40625 0-2.07813-1.125-2.07813-2.625m.32813-5.59375c0-1.29688.60937-2.23438 1.75-2.23438 1.15625 0 1.76562.9375 1.76562 2.23438 0 1.14062-.54687 2.3125-1.76562 2.3125s-1.75-1.17188-1.75-2.3125m0 0"/><path id="h" d="M.70313-5.625c0 3.375.98437 5.82813 3.75 5.82813C7.23438.20313 8.23438-2.25 8.23438-5.625c0-3.35937-1-5.8125-3.78125-5.8125-2.76563 0-3.75 2.45313-3.75 5.8125m1.70312 0c0-2.73437.45313-5.21875 2.04688-5.21875s2.0625 2.48438 2.0625 5.21875-.46875 5.23438-2.0625 5.23438-2.04688-2.5-2.04688-5.23438m0 0"/><path id="i" d="M.20313-4.92187h.28124c.10938-1.01563.3125-1.23438 1.40626-1.23438h.54687v5.29688c0 .51562-.01562.53125-1.03125.59375V0h3v-.26562c-1.01562-.0625-1.04687-.07813-1.04687-.59375v-5.29688h.5625c1.09375 0 1.29687.21875 1.40625 1.23438h.28125v-1.54688H.20313Zm0 0"/><path id="j" d="M.45313-2.26562c0 1.48437.64062 2.375 2.17187 2.375 1.03125 0 1.5625-.57813 1.8125-1.3125l-.28125-.15626c-.25.54688-.60937.98438-1.34375.98438-1.17187 0-1.40625-1.10937-1.375-2.07812H4.125c.20313 0 .375-.0625.375-.35938 0-.54687-.1875-1.89062-1.89062-1.89062-1.46875 0-2.15625 1.04687-2.15625 2.4375m.98437-.54688c0-.39062.14063-1.5625 1.125-1.5625.85938 0 .95313.89063.95313 1.26563 0 .17187-.04688.29687-.3125.29687Zm0 0"/><path id="k" d="M.29688 0h2.28125v-.26562C1.90625-.3125 1.875-.34375 1.875-.8125V-3c0-.25 0-.375.07813-.5.17187-.375.57812-.6875 1.10937-.6875.79688 0 .90625.57813.90625 1.15625V-.8125c0 .46875-.03125.5-.71875.54688V0h2.28125v-.26562c-.67187-.04688-.6875-.07813-.6875-.54688V-3c0-.25 0-.35937.0625-.51562.14063-.375.53125-.67188 1.0625-.67188.59375 0 .95313.32813.95313 1.15625V-.8125c0 .46875-.03125.5-.71875.54688V0H8.5v-.26562c-.67187-.04688-.70312-.07813-.70312-.54688v-2.39062c0-.95313-.51563-1.5-1.39063-1.5-.76562 0-1.3125.51562-1.65625.71875-.21875-.4375-.57812-.71875-1.23437-.71875-.71875 0-1.3125.48437-1.64063.71875l-.07812-.71875-1.45313.25v.21875l.35938.04687C.9375-4.14062 1-4.09375 1-3.76562V-.8125c0 .46875-.03125.5-.70312.54688Zm0 0"/><path id="l" d="M.23438 1.875v.28125h2.42187V1.875c-.78125-.04687-.84375-.0625-.84375-.54687V-.09376c.20313.10938.64063.20313 1.07813.20313 1.26562 0 2.32812-.57813 2.32812-2.51563 0-.65625-.10937-2.29687-1.8125-2.29687-.6875 0-1.21875.46875-1.59375.70312l-.125-.70312-1.40625.25v.21875l.35938.04687c.23437.04688.29687.09375.29687.42188v5.09375c0 .48437-.04687.5-.70312.54687M1.8125-1.46875V-3c0-.25.04688-.35937.125-.53125.21875-.4375.60938-.65625 1.10938-.65625.375 0 1.21875.23438 1.21875 1.84375 0 1.375-.4375 2.125-1.375 2.125-.48438 0-.85938-.25-1.01563-.67187-.04687-.17188-.0625-.35938-.0625-.57813m0 0"/><path id="m" d="m1.875-5.25.14063.1875 1.42187-.79687c.28125-.14063.53125-.29688.53125-.5 0-.1875-.23437-.40625-.375-.40625-.15625 0-.3125.09375-.59375.39062ZM.45313-2.26562c0 1.48437.64062 2.375 2.17187 2.375 1.03125 0 1.5625-.57813 1.8125-1.3125l-.28125-.15626c-.25.54688-.60937.98438-1.34375.98438-1.17187 0-1.40625-1.10937-1.375-2.07812H4.125c.20313 0 .375-.0625.375-.35938 0-.54687-.1875-1.89062-1.89062-1.89062-1.46875 0-2.15625 1.04687-2.15625 2.4375m.98437-.54688c0-.39062.14063-1.5625 1.125-1.5625.85938 0 .95313.89063.95313 1.26563 0 .17187-.04688.29687-.3125.29687Zm0 0"/><path id="n" d="M.29688 0h2.46875v-.26562C1.9375-.3125 1.875-.34375 1.875-.8125V-3c0-.71875.32813-.96875.54688-.96875.14062 0 .3125.0625.57812.20313.0625.04687.14063.04687.1875.04687.21875 0 .42188-.23437.42188-.51562 0-.21875-.125-.46875-.5-.46875-.32813 0-.60938.20312-1.23438.75l-.10937-.75-1.42188.25v.21875l.35938.04687C.9375-4.14062 1-4.09375 1-3.76562V-.8125c0 .46875-.04687.5-.70312.54688Zm0 0"/><path id="o" d="M.45313-1.21875c0 .70313.46875 1.32813 1.34375 1.32813.54687 0 1.09375-.35938 1.39062-.5625.14063.35937.29688.5625.625.5625.34375 0 .75-.09375 1.10938-.28126l-.0625-.21874c-.125.03125-.34375.04687-.48438 0-.17187-.03125-.32812-.20313-.32812-.79688v-2.26562c0-.54688-.10938-1.25-1.53125-1.25-1.04688 0-1.89063.54687-1.89063 1.0625 0 .3125.34375.45312.53125.45312.20313 0 .25-.10937.29688-.26562.20312-.70313.59375-.92188.96875-.92188.35937 0 .78125.1875.78125.9375v.39063c-.23438.23437-1.14063.48437-1.875.71875-.6875.20312-.875.67187-.875 1.10937m.95312-.125c0-.4375.20313-.67187.71875-.85937.39063-.14063.875-.32813 1.07813-.45313v1.32813c0 .75-.57813.9375-.9375.9375-.57813 0-.85938-.40625-.85938-.95313m0 0"/><path id="p" d="M.28125-4.20312h.6875v3.25C.96875 0 1.67188.10938 2 .10938c.48438 0 .92188-.23438 1.1875-.40625L3.125-.5c-.23437.09375-.42187.125-.67187.125-.3125 0-.60938-.23437-.60938-.9375v-2.89062h1.20313v-.39063H1.84375v-1.17187h-.26562L1-4.59375H.28125Zm0 0"/><path id="q" d="m.23438-4.23437.35937.04687c.25.04688.29688.09375.29688.42188v2.46875c0 1.07812.64062 1.40625 1.34375 1.40625.79687 0 1.4375-.53125 1.70312-.67188L4.03125 0h1.5v-.26562c-.64062-.04688-.70312-.07813-.70312-.54688v-3.82812L4.75-4.70312l-1.45312.25v.21875l.35937.04687c.23438.04688.29688.09375.29688.42188v2.10937c0 .26563-.03125.46875-.07813.5625-.21875.42188-.65625.70313-1.14062.70313-.54688 0-.95313-.34375-.95313-1.07813v-3.17187l-.0625-.0625-1.48437.25Zm0 0"/><path id="r" d="M.5625-2.78125c0 2.10938.51563 4.57813 2.5 4.65625v-.28125C2.40625 1.46875 1.35938.5 1.35938-2.78125c0-3.25.98437-4.21875 1.70312-4.35937v-.28125c-1.98437.07812-2.5 2.53125-2.5 4.64062m0 0"/><path id="s" d="M.29688 0h2.28125v-.26562C1.90625-.3125 1.875-.34375 1.875-.8125V-3c0-.25.01563-.35937.09375-.51562.20313-.35938.625-.67188 1.10938-.67188.64062 0 1 .34375 1 1.15625V-.8125c0 .46875-.03125.5-.71875.54688V0h2.29687v-.26562c-.67187-.04688-.70312-.07813-.70312-.54688v-2.39062c0-.95313-.53125-1.5-1.375-1.5-.70313 0-1.125.34375-1.70313.71875l-.14062-.71875-1.39063.25v.21875l.35938.04687C.9375-4.14062 1-4.09375 1-3.76562V-.8125c0 .46875-.03125.5-.70312.54688Zm0 0"/><path id="t" d="M.34375-5.0625c0 .6875.59375 1.28125 1.28125 1.28125.70313 0 1.29688-.59375 1.29688-1.28125 0-.70312-.59375-1.29687-1.29688-1.29687-.6875 0-1.28125.59375-1.28125 1.29687m.51563 0c0-.48437.35937-.84375.76562-.84375.42188 0 .78125.35938.78125.84375 0 .46875-.35937.82813-.78125.82813-.40625 0-.76562-.35938-.76562-.82813m0 0"/><path id="u" d="M.45313-3.1875c0 1.09375.32812 1.96875.875 2.53125.57812.57813 1.51562.79688 2.54687.79688.75 0 1.625-.20313 2.0625-.45313l.14063-1.5625h-.28125c-.26563.98438-.75 1.6875-1.96875 1.6875C1.89063-.1875 1.5-2.07812 1.5-3.21875c0-1.53125.59375-3.07812 2.34375-3.07812.95313 0 1.625.40625 1.79688 1.51562h.28125V-6.25c-.42188-.20312-1.125-.375-1.98438-.375-1.15625 0-2.07812.34375-2.64062.96875C.76563-5.0625.45313-4.25.45313-3.1875m0 0"/><path id="v" d="M2.875-2.78125c0-2.10937-.51562-4.5625-2.5-4.64062v.28125C1.09375-7 2.09375-6.03125 2.09375-2.78125c0 3.28125-1.04687 4.25-1.71875 4.375V1.875c1.98438-.07812 2.5-2.54687 2.5-4.65625m0 0"/><path id="w" d="M.32813 0H2.9375v-.26562c-.8125-.0625-.84375-.07813-.84375-.59375V-3.1875H5.375v2.32813c0 .51562-.01562.53125-.84375.59375V0h2.60938v-.26562c-.82813-.0625-.84375-.07813-.84375-.59375v-4.75c0-.51563.01562-.53125.84375-.59375v-.26563H4.53125v.26563c.82813.0625.84375.07812.84375.59375v2.0625H2.09375v-2.0625c0-.51563.03125-.53125.84375-.59375v-.26563H.32813v.26563c.82812.0625.84375.07812.84375.59375v4.75c0 .51562-.01563.53125-.84375.59375Zm0 0"/><path id="x" d="m2.70313-2.03125.78125.78125 3.25-3.26562L10-1.25l.75-.78125-3.25-3.25 3.25-3.26562-.75-.75-3.26562 3.25-3.25-3.25-.78125.75 3.26562 3.26562Zm0 0"/></defs><path fill="none" stroke="#000" stroke-miterlimit="10" stroke-opacity=".5" stroke-width=".39799" d="M21.15626 278.07422h452.96855M21.15626 221.45315h452.96855M21.15626 164.83208h452.96855M21.15626 108.21101h452.96855M21.15626 51.58995h452.96855M49.46484 306.3828V23.27746m56.62107 283.10534V23.27746m56.62107 283.10534V23.27746m56.62107 283.10534V23.27746m56.62107 283.10534V23.27746m56.62107 283.10534V23.27746m56.62106 283.10534V23.27746m56.62107 283.10534V23.27746M106.08591 263.91798v28.30858"/><use xlink:href="#a" x="101.62759" y="297.85164" fill-opacity=".5"/><path fill="none" stroke="#000" stroke-miterlimit="10" stroke-opacity=".5" stroke-width=".39799" d="M162.70698 263.91798v28.30858"/><use xlink:href="#b" x="158.24794" y="297.85164" fill-opacity=".5"/><path fill="none" stroke="#000" stroke-miterlimit="10" stroke-opacity=".5" stroke-width=".39799" d="M219.32805 263.91798v28.30858"/><use xlink:href="#c" x="214.86828" y="297.85164" fill-opacity=".5"/><path fill="none" stroke="#000" stroke-miterlimit="10" stroke-opacity=".5" stroke-width=".39799" d="M275.94912 263.91798v28.30858"/><g fill-opacity=".5"><use xlink:href="#d" x="267.02835" y="297.95051"/><use xlink:href="#e" x="275.94742" y="297.95051"/></g><path fill="none" stroke="#000" stroke-miterlimit="10" stroke-opacity=".5" stroke-width=".39799" d="M332.57019 263.91798v28.30858"/><g fill-opacity=".5"><use xlink:href="#d" x="323.64869" y="297.85164"/><use xlink:href="#f" x="332.56776" y="297.85164"/></g><path fill="none" stroke="#000" stroke-miterlimit="10" stroke-opacity=".5" stroke-width=".39799" d="M389.19125 263.91798v28.30858"/><g fill-opacity=".5"><use xlink:href="#d" x="380.26904" y="297.85164"/><use xlink:href="#g" x="389.18811" y="297.85164"/></g><path fill="none" stroke="#000" stroke-miterlimit="10" stroke-opacity=".5" stroke-width=".39799" d="M445.81232 263.91798v28.30858"/><g fill-opacity=".5"><use xlink:href="#e" x="436.88938" y="297.95051"/><use xlink:href="#d" x="445.80845" y="297.95051"/></g><path fill="none" stroke="#000" stroke-miterlimit="10" stroke-opacity=".5" stroke-width=".39799" d="M63.62109 221.45315H35.3125"/><use xlink:href="#a" x="25.18968" y="227.07646" fill-opacity=".5"/><path fill="none" stroke="#000" stroke-miterlimit="10" stroke-opacity=".5" stroke-width=".39799" d="M63.62109 164.83208H35.3125"/><use xlink:href="#b" x="25.18968" y="170.45611" fill-opacity=".5"/><path fill="none" stroke="#000" stroke-miterlimit="10" stroke-opacity=".5" stroke-width=".39799" d="M63.62109 108.21101H35.3125"/><use xlink:href="#c" x="25.18968" y="113.83577" fill-opacity=".5"/><path fill="none" stroke="#000" stroke-miterlimit="10" stroke-opacity=".5" stroke-width=".39799" d="M63.62109 51.58995H35.3125"/><g fill-opacity=".5"><use xlink:href="#d" x="20.7304" y="57.3143"/><use xlink:href="#e" x="29.64947" y="57.3143"/></g><path fill="none" stroke="#000" stroke-miterlimit="10" stroke-opacity=".5" stroke-width=".39799" d="M49.46484 263.91798v28.30858"/><use xlink:href="#h" x="25.18968" y="303.51437" fill-opacity=".5"/><path fill="none" stroke="#000" stroke-miterlimit="10" stroke-width=".79599" d="M21.15626 278.07422h446.79668"/><path stroke="#000" stroke-miterlimit="10" stroke-width=".79599" d="M472.11328 278.07422c-.51172-.10547-2.7539-.70703-4.16015-1.36328v2.72265c1.40624-.65234 3.64843-1.2539 4.16015-1.35937Zm0 0"/><path fill="none" stroke="#000" stroke-miterlimit="10" stroke-width=".79599" d="M49.46484 306.3828V29.44933"/><path stroke="#000" stroke-miterlimit="10" stroke-width=".79599" d="M49.46484 25.28906c-.10546.51172-.70703 2.7539-1.35937 4.16016h2.72266c-.65235-1.40625-1.25391-3.64844-1.36329-4.16016Zm0 0"/><use xlink:href="#i" x="6.63249" y="14.10175"/><use xlink:href="#j" x="11.49798" y="14.10175"/><use xlink:href="#k" x="16.30376" y="14.10175"/><use xlink:href="#l" x="24.9303" y="14.10175"/><use xlink:href="#m" x="30.61168" y="14.10175"/><use xlink:href="#n" x="35.41747" y="14.10175"/><use xlink:href="#o" x="38.95962" y="14.10175"/><use xlink:href="#p" x="43.84501" y="14.10175"/><use xlink:href="#q" x="47.05882" y="14.10175"/><use xlink:href="#n" x="52.7203" y="14.10175"/><use xlink:href="#j" x="56.16295" y="14.10175"/><use xlink:href="#r" x="63.06817" y="14.10175"/><use xlink:href="#j" x="66.51082" y="14.10175"/><use xlink:href="#s" x="71.31661" y="14.10175"/><use xlink:href="#t" x="79.19691" y="14.10175"/><use xlink:href="#u" x="82.47042" y="14.10175"/><use xlink:href="#v" x="88.85823" y="14.10175"/><use xlink:href="#w" x="481.14859" y="281.25194"/><use xlink:href="#j" x="488.34235" y="281.25194"/><use xlink:href="#q" x="493.14814" y="281.25194"/><use xlink:href="#n" x="498.80962" y="281.25194"/><use xlink:href="#j" x="502.25227" y="281.25194"/><use xlink:href="#x" x="42.74016" y="169.47937" fill="#007F7F"/><use xlink:href="#x" x="99.3605" y="169.47937" fill="#007F7F"/><use xlink:href="#x" x="155.98085" y="188.35315" fill="#007F7F"/><use xlink:href="#x" x="212.60119" y="150.60558" fill="#007F7F"/><use xlink:href="#x" x="269.22154" y="131.7328" fill="#007F7F"/><use xlink:href="#x" x="325.84188" y="93.98524" fill="#007F7F"/><use xlink:href="#x" x="382.46222" y="56.23868" fill="#007F7F"/><use xlink:href="#x" x="439.08257" y="37.36589" fill="#007F7F"/><path fill="none" stroke="#007F7F" stroke-miterlimit="10" stroke-width=".79599" d="M49.46484 164.83208h56.62107l56.62107 18.875 56.62107-37.74999 56.62107-18.87109 56.62107-37.74998 56.62106-37.74607 56.62107-18.875"/></svg>