<svg xmlns="http://www.w3.org/2000/svg" xmlns:xlink="http://www.w3.org/1999/xlink" width="334.322pt" height="206.631pt" viewBox="0 0 334.322 206.631"><defs><path id="a" d="M.5-4.0625C.5-1.625 1.23438.14063 3.23438.14063S5.9375-1.625 5.9375-4.0625c0-2.42187-.70312-4.1875-2.70312-4.1875S.5-6.48437.5-4.0625m1.23438 0c0-1.96875.34375-3.76562 1.5-3.76562 1.14062 0 1.46875 1.79687 1.46875 3.76562 0 1.98438-.32813 3.78125-1.46875 3.78125-1.15625 0-1.5-1.79687-1.5-3.78125m0 0"/><path id="b" d="M.29688-1.10937C.29688-.65625 1.0625.125 2.60938.125 4.1875.125 5.1875-.67187 5.1875-2.0625c0-1.46875-1.26562-1.90625-1.85937-1.95312v-.04688c.59375-.09375 1.53125-.54687 1.53125-1.625 0-1.20312-.9375-1.73437-2.10938-1.73437-1.45312 0-2.15625.82812-2.15625 1.29687 0 .32813.375.51563.53125.51563.14063 0 .21875-.07813.26563-.21875.25-.73438.65625-1.21875 1.26562-1.21875.85938 0 1.09375.75 1.09375 1.375 0 .65625-.23437 1.46875-1.17187 1.46875-.51563 0-.82813-.09375-.95313-.09375-.14062 0-.1875.09375-.1875.29687 0 .1875.04688.29688.1875.29688.125 0 .4375-.09375.95313-.09375.9375 0 1.45312.82812 1.45312 1.78125C4.03125-.70312 3.39063-.25 2.60938-.25c-.71875 0-1.1875-.54687-1.40625-1.15625-.0625-.20312-.17188-.3125-.3125-.3125-.20313 0-.59375.20313-.59375.60938m0 0"/><path id="c" d="M.48438-3.375c0 2.35938.85937 3.5 2.5 3.5 1.625 0 2.48437-.96875 2.48437-2.46875 0-1.46875-.90625-2.26562-2.07812-2.26562-.875 0-1.5.57812-1.79688.9375.01563-2.40625.67188-3.375 1.65625-3.375.5 0 .85938.42187 1.03125 1.04687.03125.125.10938.23438.28125.23438.23438 0 .57813-.20313.57813-.5 0-.4375-.53125-1.15625-1.84375-1.15625-1.73438 0-2.8125 1.32812-2.8125 4.04687m1.10937.79688c0-.67188.5-1.48438 1.42188-1.48438.6875 0 1.35937.64063 1.35937 1.89063C4.375-1.01562 3.92188-.25 3.01563-.25c-.95313 0-1.42188-1.01562-1.42188-2.32812m0 0"/><path id="d" d="M.40625-4.96875c0 1.48438.90625 2.28125 2.07813 2.28125.85937 0 1.5-.57812 1.79687-.9375C4.26563-1.21875 3.60938-.25 2.60938-.25c-.5 0-.85938-.42187-1.01563-1.04687-.03125-.14063-.125-.23438-.28125-.23438-.25 0-.57812.1875-.57812.5 0 .4375.53125 1.15625 1.84375 1.15625C4.3125.125 5.375-1.20312 5.375-3.92187c0-2.375-.85937-3.5-2.48437-3.5S.40625-6.45312.40625-4.96875M1.5-5.125c0-1.15625.4375-1.92187 1.35938-1.92187.95312 0 1.42187 1.01562 1.42187 2.32812 0 .65625-.5 1.46875-1.42187 1.46875C2.17188-3.25 1.5-3.875 1.5-5.125m0 0"/><path id="e" d="M1.1875 0h3.59375v-.3125l-.92187-.07812C3.625-.42187 3.5-.5 3.5-.9375V-7.375l-.0625-.04687-2.25.375v.26562l1.01563.125c.1875.03125.26562.10938.26562.42188V-.9375c0 .4375-.10937.51563-.35937.54688L1.1875-.3125Zm0 0"/><path id="f" d="M.29688-.10937.42188 0H4.9375l.375-1.4375L5.01563-1.5c-.23438.59375-.45313.67188-.90625.67188H1.32813c.17187-.5625.82812-1.34375 1.82812-2.07813 1.04688-.76562 1.85938-1.25 1.85938-2.46875 0-1.53125-1-2.04687-2.15625-2.04687-1.5 0-2.26563.90625-2.26563 1.46875 0 .375.42188.54687.60938.54687s.26562-.10937.3125-.29687c.17187-.75.59375-1.34375 1.28125-1.34375.82812 0 1.07812.70312 1.07812 1.5 0 1.17187-.59375 1.84375-1.54687 2.67187C.96875-1.70312.51563-.95312.29688-.10937m0 0"/><path id="g" d="M.45313-1.10937c0 .5.76562 1.23437 2.1875 1.23437C4.4375.125 5.25-.96875 5.25-2.34375c0-1.53125-.95312-2.3125-2.25-2.3125-.60937 0-1.26562.26563-1.60937.57813L1.625-6.15625c.03125-.26562.10938-.3125.3125-.3125h2.71875l.26563-.73437-.04688-.09375H1.21875l-.10937.09375-.21876 3.65625.26563.14062c.45313-.51562.90625-.78125 1.5-.78125.6875 0 1.45313.51563 1.45313 1.95313 0 1.125-.45313 1.98437-1.40625 1.98437-.76563 0-1.14063-.54687-1.35938-1.1875-.0625-.15625-.17187-.26562-.32812-.26562-.21876 0-.5625.23437-.5625.59375m0 0"/><path id="h" d="M.46875-1.98437C.46875-.89062 1.14063.125 2.90625.125c1.76563 0 2.4375-1.01562 2.4375-2.10937 0-1.125-.6875-1.76563-1.4375-1.9375.65625-.1875 1.20313-.75 1.20313-1.64063 0-1.1875-.95313-1.85937-2.20313-1.85937S.70313-6.75.70313-5.5625c0 .89063.5625 1.45313 1.21875 1.64063C1.1875-3.75.46875-3.10937.46875-1.98437m1.09375.03124c0-1 .46875-1.75 1.34375-1.75s1.34375.75 1.34375 1.75C4.25-.98436 3.82813-.25 2.90625-.25c-.92187 0-1.34375-.73437-1.34375-1.70312m.20313-3.64062c0-.82812.39062-1.45312 1.14062-1.45312s1.14063.625 1.14063 1.45312c0 .75-.34375 1.5-1.14063 1.5-.79687 0-1.14062-.75-1.14062-1.5m0 0"/><path id="i" d="M.14063-3.20312H.3125C.39063-3.85937.51563-4 1.23438-4h.34375v3.4375c0 .34375 0 .34375-.65625.39063V0h1.9375v-.17187C2.20313-.21875 2.1875-.21875 2.1875-.5625V-4h.35938c.71875 0 .84375.14063.90625.79688h.1875v-1h-3.5Zm0 0"/><path id="j" d="M.29688-1.46875C.29688-.5.71875.07813 1.70313.07813c.67187 0 1.01562-.375 1.1875-.85938L2.70313-.875c-.17188.34375-.40625.64063-.875.64063-.76563 0-.90625-.73438-.89063-1.35938h1.75c.125 0 .23438-.03125.23438-.23437 0-.35938-.10938-1.21875-1.23438-1.21875-.9375 0-1.39062.67187-1.39062 1.57812m.64062-.35937c0-.25.09375-1.01563.71875-1.01563.5625 0 .64063.57813.64063.8125 0 .125-.04688.20313-.21875.20313Zm0 0"/><path id="k" d="M.1875 0h1.48438v-.17187c-.4375-.03126-.45313-.04688-.45313-.35938v-1.42187c0-.15626 0-.23438.04688-.32813.125-.23437.39062-.4375.71875-.4375.53125 0 .59375.375.59375.75v1.4375c0 .3125-.01563.32813-.46875.35938V0h1.48437v-.17187c-.4375-.03126-.45312-.04688-.45312-.35938v-1.42187c0-.15626.01562-.23438.04687-.32813.09375-.25.34375-.4375.6875-.4375.39063 0 .625.20313.625.75v1.4375c0 .3125-.03125.32813-.46875.35938V0h1.5v-.17187c-.4375-.03126-.46875-.04688-.46875-.35938v-1.54687c0-.625-.32812-.96875-.90625-.96875-.5 0-.84375.32812-1.0625.45312-.15625-.28125-.39062-.45312-.8125-.45312-.46875 0-.84375.29687-1.0625.45312l-.04687-.45312-.95313.15625V-2.75l.23438.03125c.15625.03125.20312.04688.20312.28125v1.90625c0 .3125-.01562.32813-.46875.35938Zm0 0"/><path id="l" d="M.15625 1.21875v.17188h1.57813v-.17188c-.51563-.03125-.5625-.04687-.5625-.35937V-.0625C1.3125 0 1.59375.07813 1.875.07813c.82813 0 1.51563-.375 1.51563-1.64063 0-.4375-.07813-1.48437-1.17188-1.48437-.45312 0-.79687.29687-1.04687.45312l-.07813-.45312-.90625.15625V-2.75l.21875.03125c.15625.03125.20313.04688.20313.28125V.85938c0 .3125-.03126.32812-.45313.35937M1.17188-.95312v-1c0-.15626.03124-.23438.09374-.34375.14063-.28125.39063-.42188.71876-.42188.23437 0 .78125.15625.78125 1.20313 0 .89062-.28125 1.375-.89063 1.375-.3125 0-.5625-.15625-.65625-.4375q-.04687-.16407-.04687-.375m0 0"/><path id="m" d="m1.21875-3.42187.09375.125.92188-.5c.17187-.10938.34375-.20313.34375-.34375 0-.10938-.15625-.26563-.25-.26563s-.20313.07813-.375.26563ZM.29688-1.46875C.29688-.5.71875.07813 1.70313.07813c.67187 0 1.01562-.375 1.1875-.85938L2.70313-.875c-.17188.34375-.40625.64063-.875.64063-.76563 0-.90625-.73438-.89063-1.35938h1.75c.125 0 .23438-.03125.23438-.23437 0-.35938-.10938-1.21875-1.23438-1.21875-.9375 0-1.39062.67187-1.39062 1.57812m.64062-.35937c0-.25.09375-1.01563.71875-1.01563.5625 0 .64063.57813.64063.8125 0 .125-.04688.20313-.21875.20313Zm0 0"/><path id="n" d="M.1875 0h1.60938v-.17187C1.25-.20313 1.21875-.21875 1.21875-.53125v-1.42187c0-.46875.20313-.625.35938-.625.09374 0 .1875.03125.375.14062.04687.01563.07812.03125.10937.03125.15625 0 .28125-.15625.28125-.34375 0-.14062-.07812-.29687-.3125-.29687-.21875 0-.40625.125-.8125.48437l-.0625-.48437-.9375.15625V-2.75l.23438.03125c.15625.03125.20312.04688.20312.28125v1.90625c0 .3125-.03125.32813-.46875.35938Zm0 0"/><path id="o" d="M.29688-.79687c0 .45312.3125.875.875.875.35937 0 .70312-.23438.90625-.375.07812.23437.1875.375.40625.375S2.96875 0 3.20313-.10937L3.15625-.25c-.07812.01563-.21875.03125-.3125 0C2.73438-.28125 2.625-.39062 2.625-.76562V-2.25c0-.34375-.0625-.79687-.98437-.79687-.6875 0-1.23438.34375-1.23438.6875 0 .1875.23438.28125.34375.28125.125 0 .15625-.0625.1875-.17188.14063-.45312.39063-.59375.64063-.59375.23437 0 .5.125.5.60938v.25c-.15625.15624-.73438.3125-1.21875.46875-.4375.14062-.5625.4375-.5625.71875M.90625-.875c0-.28125.14063-.4375.48438-.5625.23437-.09375.5625-.20312.6875-.29687v.875c0 .48437-.375.60937-.60938.60937-.375 0-.5625-.26562-.5625-.625m0 0"/><path id="p" d="M.1875-2.73437H.625V-.625c0 .625.46875.70313.67188.70313.3125 0 .60937-.15625.78125-.26563l-.04688-.14062C1.875-.26562 1.75-.25 1.59375-.25c-.20312 0-.39062-.14062-.39062-.60937v-1.875h.78125v-.25h-.78125V-3.75h-.1875l-.35938.76563H.1875Zm0 0"/><path id="q" d="m.15625-2.75.23438.03125c.15625.03125.1875.04688.1875.28125v1.59375c0 .70313.42187.92188.875.92188.51562 0 .9375-.35938 1.10937-.4375L2.625 0h.96875v-.17187c-.42187-.03126-.45312-.04688-.45312-.35938v-2.48437l-.04688-.03125-.95312.15625V-2.75l.23437.03125c.15625.03125.1875.04688.1875.28125v1.35938c0 .17187-.01562.3125-.04687.35937-.14063.28125-.42188.46875-.75.46875-.34375 0-.60938-.23437-.60938-.70312v-2.0625l-.04687-.03125-.95313.15625Zm0 0"/><path id="r" d="M.375-1.8125C.375-.4375.70313 1.17188 2 1.21875v-.1875C1.5625.95313.875.32813.875-1.8125c0-2.10937.65625-2.73437 1.125-2.82812v-.1875C.70313-4.78125.375-3.17187.375-1.8125m0 0"/><path id="s" d="M.1875 0h1.48438v-.17187c-.4375-.03126-.45313-.04688-.45313-.35938v-1.42187c0-.15626.01563-.23438.0625-.32813.125-.23437.40625-.4375.71875-.4375.42188 0 .64063.21875.64063.75v1.4375c0 .3125-.01563.32813-.45313.35938V0h1.48438v-.17187c-.4375-.03126-.45313-.04688-.45313-.35938v-1.54687c0-.625-.34375-.96875-.89062-.96875-.45313 0-.73438.21875-1.10938.45312L1.125-3.04687l-.90625.15625V-2.75l.23438.03125c.15625.03125.20312.04688.20312.28125v1.90625c0 .3125-.01562.32813-.46875.35938Zm0 0"/><path id="t" d="M.21875-3.29687c0 .45312.39063.84375.84375.84375s.84375-.39063.84375-.84375-.39062-.84375-.84375-.84375-.84375.39062-.84375.84375m.34375 0c0-.3125.23438-.54688.5-.54688.26563 0 .5.23438.5.54688s-.23437.54687-.5.54687c-.26562 0-.5-.23437-.5-.54687m0 0"/><path id="u" d="M.29688-2.07812c0 .71875.20312 1.28125.5625 1.65625.375.375.98437.51562 1.65625.51562.5 0 1.0625-.14062 1.34375-.29687l.09375-1.01563h-.1875C3.59375-.57812 3.28125-.125 2.48438-.125c-1.25 0-1.51563-1.23437-1.51563-1.96875 0-.98437.39063-2 1.53125-2 .625 0 1.04688.26563 1.17188.98438h.17187v-.95313c-.26562-.125-.71875-.23437-1.28125-.23437-.75 0-1.35937.21875-1.71875.625C.5-3.28125.29688-2.76562.29688-2.07812m0 0"/><path id="v" d="M1.875-1.8125c0-1.35937-.34375-2.96875-1.625-3.01562v.1875c.46875.09375 1.10938.71875 1.10938 2.82812C1.35938.32813.67188.95313.25 1.03125v.1875C1.53125 1.17188 1.875-.4375 1.875-1.8125m0 0"/><path id="w" d="M.21875 0h1.6875v-.17187C1.375-.21875 1.35938-.21875 1.35938-.5625v-1.51562H3.5V-.5625c0 .34375-.01562.34375-.5625.39063V0h1.70313v-.17187c-.53125-.04688-.54688-.04688-.54688-.39063v-3.07812c0-.34375.01563-.34375.54688-.39063v-.17187H2.9375v.17187c.54688.04688.5625.04688.5625.39063v1.34375H1.35938v-1.34375c0-.34375.01562-.34375.54687-.39063v-.17187H.21875v.17187c.53125.04688.54688.04688.54688.39063V-.5625c0 .34375-.01563.34375-.54688.39063Zm0 0"/></defs><path fill="none" stroke="#7f7f7f" stroke-dasharray=".39769503 .9942675144" stroke-miterlimit="10" stroke-width=".3977" d="M32.1289 180.60937h275.8242M32.1289 143.83204h275.8242M32.1289 107.0547h275.8242M32.1289 70.27736h275.8242M32.1289 33.50392h275.8242M32.1289 180.60937V15.1133m36.77735 165.49607V15.1133m36.77733 165.49607V15.1133m36.77344 165.49607V15.1133m36.77734 165.49607V15.1133m36.77734 165.49607V15.1133m36.77734 165.49607V15.1133m36.77343 165.49607V15.1133"/><use xlink:href="#a" x="16.0265" y="197.53842" fill="#7f7f7f"/><path fill="none" stroke="#7f7f7f" stroke-miterlimit="10" stroke-width=".3977" d="M68.90625 171.41406v18.38672"/><use xlink:href="#b" x="65.99716" y="201.80177" fill="#7f7f7f"/><path fill="none" stroke="#7f7f7f" stroke-miterlimit="10" stroke-width=".3977" d="M105.68358 171.41406v18.38672"/><use xlink:href="#c" x="102.77258" y="201.80177" fill="#7f7f7f"/><path fill="none" stroke="#7f7f7f" stroke-miterlimit="10" stroke-width=".3977" d="M142.45702 171.41406v18.38672"/><use xlink:href="#d" x="139.549" y="201.80177" fill="#7f7f7f"/><path fill="none" stroke="#7f7f7f" stroke-miterlimit="10" stroke-width=".3977" d="M179.23436 171.41406v18.38672"/><g fill="#7f7f7f"><use xlink:href="#e" x="173.41631" y="201.80177"/><use xlink:href="#f" x="179.23267" y="201.80177"/></g><path fill="none" stroke="#7f7f7f" stroke-miterlimit="10" stroke-width=".3977" d="M216.0117 171.41406v18.38672"/><g fill="#7f7f7f"><use xlink:href="#e" x="210.19273" y="201.80177"/><use xlink:href="#g" x="216.00908" y="201.80177"/></g><path fill="none" stroke="#7f7f7f" stroke-miterlimit="10" stroke-width=".3977" d="M252.78904 171.41406v18.38672"/><g fill="#7f7f7f"><use xlink:href="#e" x="246.96815" y="201.80177"/><use xlink:href="#h" x="252.7845" y="201.80177"/></g><path fill="none" stroke="#7f7f7f" stroke-miterlimit="10" stroke-width=".3977" d="M289.56247 171.41406v18.38672"/><g fill="#7f7f7f"><use xlink:href="#f" x="283.74457" y="201.80177"/><use xlink:href="#e" x="289.56092" y="201.80177"/></g><path fill="none" stroke="#000" stroke-miterlimit="10" stroke-width=".7954" d="M13.74219 180.60937h288.04684"/><path stroke="#000" stroke-miterlimit="10" stroke-width=".7954" d="M305.94531 180.60937c-.51172-.10937-2.7539-.70703-4.15625-1.36328v2.72266c1.40235-.65234 3.64453-1.2539 4.15625-1.35938Zm0 0"/><path fill="none" stroke="#7f7f7f" stroke-miterlimit="10" stroke-width=".3977" d="M41.32422 143.83204H22.9375"/><use xlink:href="#b" x="12.55254" y="147.48493" fill="#7f7f7f"/><path fill="none" stroke="#7f7f7f" stroke-miterlimit="10" stroke-width=".3977" d="M41.32422 107.0547H22.9375"/><use xlink:href="#c" x="12.55254" y="110.7095" fill="#7f7f7f"/><path fill="none" stroke="#7f7f7f" stroke-miterlimit="10" stroke-width=".3977" d="M41.32422 70.27736H22.9375"/><use xlink:href="#d" x="12.55254" y="73.93309" fill="#7f7f7f"/><path fill="none" stroke="#7f7f7f" stroke-miterlimit="10" stroke-width=".3977" d="M41.32422 33.50392H22.9375"/><g fill="#7f7f7f"><use xlink:href="#e" x="6.73634" y="37.22154"/><use xlink:href="#f" x="12.55269" y="37.22154"/></g><path fill="none" stroke="#000" stroke-miterlimit="10" stroke-width=".7954" d="M32.1289 198.9961V21.27735"/><path stroke="#000" stroke-miterlimit="10" stroke-width=".7954" d="M32.1289 17.1211c-.10546.51171-.70703 2.7539-1.35937 4.15624h2.72266c-.65625-1.40234-1.25782-3.64453-1.36328-4.15625Zm0 0"/><use xlink:href="#i" x="4.30826" y="9.15446"/><use xlink:href="#j" x="7.46848" y="9.15446"/><use xlink:href="#k" x="10.58992" y="9.15446"/><use xlink:href="#l" x="16.193" y="9.15446"/><use xlink:href="#m" x="19.88315" y="9.15446"/><use xlink:href="#n" x="23.00459" y="9.15446"/><use xlink:href="#o" x="25.30528" y="9.15446"/><use xlink:href="#p" x="28.47842" y="9.15446"/><use xlink:href="#q" x="30.56585" y="9.15446"/><use xlink:href="#n" x="34.24307" y="9.15446"/><use xlink:href="#j" x="36.47913" y="9.15446"/><use xlink:href="#r" x="40.95772" y="9.15446"/><use xlink:href="#j" x="43.19379" y="9.15446"/><use xlink:href="#s" x="46.31523" y="9.15446"/><use xlink:href="#t" x="51.43361" y="9.15446"/><use xlink:href="#u" x="53.55981" y="9.15446"/><use xlink:href="#v" x="57.70881" y="9.15446"/><use xlink:href="#w" x="312.51522" y="182.67256"/><use xlink:href="#j" x="317.18123" y="182.67256"/><use xlink:href="#q" x="320.30267" y="182.67256"/><use xlink:href="#n" x="323.97989" y="182.67256"/><use xlink:href="#j" x="326.21596" y="182.67256"/></svg>