<svg xmlns="http://www.w3.org/2000/svg" xmlns:xlink="http://www.w3.org/1999/xlink" width="321.463pt" height="194.184pt" viewBox="0 0 321.463 194.184"><defs><path id="a" d="M.4375-3.5c0 2.09375.60938 3.625 2.34375 3.625C4.5.125 5.125-1.40625 5.125-3.5S4.5-7.125 2.78125-7.125C1.04688-7.125.4375-5.59375.4375-3.5M1.5-3.5c0-1.70312.28125-3.26562 1.28125-3.26562.98438 0 1.28125 1.5625 1.28125 3.26562S3.76563-.25 2.78125-.25C1.78125-.25 1.5-1.79687 1.5-3.5m0 0"/><path id="b" d="M.28125-1.07812C.28125-.625 1 .125 2.48438.125 4 .125 4.96875-.64062 4.96875-1.98437c0-1.40625-1.20312-1.8125-1.79687-1.875v-.04688C3.75-4 4.65625-4.42187 4.65625-5.45312 4.65625-6.60937 3.75-7.125 2.625-7.125c-1.39062 0-2.0625.79688-2.0625 1.25 0 .3125.35938.5.51563.5.125 0 .20312-.07812.25-.21875.23437-.70312.625-1.17187 1.21875-1.17187.82812 0 1.03125.73437 1.03125 1.32812 0 .625-.21875 1.40625-1.10938 1.40625-.5 0-.79687-.09375-.92187-.09375q-.1875 0-.1875.28125c0 .1875.0625.29688.1875.29688s.42187-.09375.92187-.09375c.89063 0 1.39063.79687 1.39063 1.70312C3.85938-.6875 3.25-.25 2.5-.25c-.6875 0-1.15625-.51562-1.34375-1.09375-.07812-.20312-.17187-.3125-.3125-.3125-.20312 0-.5625.20313-.5625.57813m0 0"/><path id="c" d="M.45313-3.23437C.45313-.96875 1.28125.125 2.85938.125c1.54687 0 2.375-.9375 2.375-2.375 0-1.40625-.875-2.17187-2-2.17187-.82813 0-1.4375.54687-1.71875.89062.01562-2.29687.65625-3.23437 1.59375-3.23437.48437 0 .82812.40625.98437 1.01562.03125.10938.10938.21875.26563.21875.23437 0 .5625-.1875.5625-.48437 0-.42188-.51563-1.10938-1.78125-1.10938-1.65625 0-2.6875 1.28125-2.6875 3.89063m1.0625.75c0-.625.48437-1.40625 1.35937-1.40625.65625 0 1.3125.59375 1.3125 1.79687C4.1875-.98437 3.76563-.25 2.875-.25c-.90625 0-1.35937-.96875-1.35937-2.23437m0 0"/><path id="d" d="M.375-4.76562c0 1.42187.875 2.1875 2 2.1875.82813 0 1.4375-.5625 1.71875-.90625C4.07813-1.17187 3.45313-.25 2.5-.25c-.48437 0-.82812-.39062-.98437-1-.03126-.125-.10938-.21875-.26563-.21875-.23437 0-.5625.1875-.5625.46875 0 .4375.51563 1.125 1.78125 1.125 1.65625 0 2.6875-1.28125 2.6875-3.89062 0-2.26563-.82812-3.35938-2.40625-3.35938-1.54687 0-2.375.9375-2.375 2.35938m1.04688-.15625c0-1.10938.4375-1.84375 1.3125-1.84375.90625 0 1.35937.96875 1.35937 2.23437 0 .64063-.48437 1.42188-1.35937 1.42188-.65625 0-1.3125-.60938-1.3125-1.8125m0 0"/><path id="e" d="M1.14063 0h3.4375v-.29687l-.875-.07813c-.21875-.03125-.34375-.10937-.34375-.51562v-6.1875l-.0625-.04688-2.15625.35938V-6.5l.98437.125c.17188.01563.23438.09375.23438.39063v5.09375c0 .40625-.09375.48437-.34375.51562l-.875.07813Zm0 0"/><path id="f" d="M.28125-.09375.39063 0h4.34375l.35937-1.39062-.29687-.04688c-.21875.5625-.4375.64063-.85938.64063H1.26563c.15624-.54688.78125-1.29688 1.75-2C4.03125-3.53125 4.8125-4 4.8125-5.17187c0-1.45313-.96875-1.95313-2.07812-1.95313-1.4375 0-2.17188.85938-2.17188 1.40625 0 .35938.39063.53125.57813.53125s.25-.10937.29687-.29687c.17188-.70313.57813-1.28125 1.23438-1.28125.79687 0 1.03125.67187 1.03125 1.4375 0 1.14062-.5625 1.76562-1.48438 2.57812C.92188-1.625.48438-.92187.28125-.09375m0 0"/><path id="g" d="M.42188-1.07812C.42188-.59375 1.15625.125 2.51563.125 4.25.125 5.03125-.92187 5.03125-2.25c0-1.46875-.92187-2.21875-2.17187-2.21875-.57813 0-1.20313.25-1.54688.54688l.23438-1.98438c.03124-.26562.10937-.29687.3125-.29687h2.60937l.25-.71875L4.65625-7h-3.5l-.09375.09375-.21875 3.5.26563.14063c.4375-.5.85937-.75 1.42187-.75.67188 0 1.40625.48437 1.40625 1.875C3.9375-1.0625 3.5-.25 2.59375-.25c-.73437 0-1.10937-.51562-1.32812-1.125-.04688-.15625-.15626-.25-.29688-.25-.20312 0-.54687.20313-.54687.54688m0 0"/><path id="h" d="M.4375-1.90625C.4375-.84375 1.07813.125 2.78125.125 4.46875.125 5.125-.84375 5.125-1.90625c0-1.07812-.67187-1.70312-1.39062-1.85937.64062-.17188 1.15625-.71875 1.15625-1.57813 0-1.14062-.90625-1.78125-2.10938-1.78125S.67188-6.48437.67188-5.34375c0 .85938.53125 1.40625 1.15625 1.57813C1.125-3.60937.4375-2.98437.4375-1.90625m1.04688.03125c0-.95312.45312-1.67187 1.29687-1.67187.82813 0 1.29688.71875 1.29688 1.67187 0 .92188-.42188 1.625-1.29688 1.625-.89062 0-1.29687-.70312-1.29687-1.625m.20312-3.48437c0-.8125.375-1.40625 1.09375-1.40625.70313 0 1.09375.59375 1.09375 1.40625 0 .70312-.34375 1.4375-1.09375 1.4375-.76562 0-1.09375-.73438-1.09375-1.4375m0 0"/><path id="i" d="M.125-3.0625h.17188c.07812-.64062.20312-.76562.875-.76562h.34375v3.28125c0 .34375-.01563.34375-.64063.375V0h1.85938v-.17187c-.625-.03126-.64063-.03126-.64063-.375v-3.28125h.34375c.6875 0 .8125.125.875.76562H3.5v-.96875H.125Zm0 0"/><path id="j" d="M.28125-1.40625C.28125-.48437.6875.0625 1.625.0625c.65625 0 .98438-.35937 1.14063-.8125l-.17188-.09375C2.4375-.5 2.20313-.23437 1.75-.23437c-.71875 0-.875-.6875-.85937-1.29688h1.6875c.125 0 .21875-.03125.21875-.21875 0-.34375-.10938-1.17187-1.17188-1.17187-.90625 0-1.34375.64062-1.34375 1.51562m.625-.34375c0-.25.07813-.96875.6875-.96875.54688 0 .60938.54688.60938.78125 0 .10938-.04688.1875-.20313.1875Zm0 0"/><path id="k" d="M.1875 0h1.42188v-.17187c-.42188-.03126-.4375-.03126-.4375-.34375V-1.875c0-.14062 0-.23437.04687-.3125.10938-.23437.35938-.42187.6875-.42187.5 0 .5625.35937.5625.71875v1.375c0 .3125-.01562.3125-.4375.34375V0h1.42188v-.17187c-.42188-.03126-.4375-.03126-.4375-.34375V-1.875c0-.14062 0-.21875.04687-.3125.07813-.23437.32813-.42187.65625-.42187.375 0 .59375.20312.59375.71875v1.375c0 .3125-.01562.3125-.4375.34375V0h1.42188v-.17187c-.42188-.03126-.4375-.03126-.4375-.34375V-2c0-.59375-.3125-.92187-.875-.92187-.46875 0-.8125.3125-1.01563.4375-.14062-.26563-.375-.4375-.78125-.4375-.4375 0-.8125.29687-1.01562.4375l-.0625-.4375-.89063.14062v.14063l.21875.03125c.14063.03125.1875.04687.1875.26562v1.82813c0 .3125-.01562.3125-.4375.34375Zm0 0"/><path id="l" d="M.15625 1.17188v.17187h1.5v-.17187C1.17188 1.14062 1.125 1.125 1.125.82813V-.0625c.125.0625.40625.125.67188.125C2.59375.0625 3.25-.29687 3.25-1.5c0-.40625-.0625-1.42187-1.125-1.42187-.4375 0-.76562.28125-1 .42187l-.07812-.42187-.875.14062v.14063l.21875.03125c.15625.03125.1875.04687.1875.26562V.82813c0 .29687-.01563.3125-.42188.34375M1.125-.92187V-1.875c0-.14062.03125-.21875.07813-.32812.14062-.26563.39062-.40625.6875-.40625.25 0 .76562.14062.76562 1.15625 0 .84375-.28125 1.3125-.85937 1.3125-.29688 0-.53125-.15625-.625-.42188C1.14062-.65625 1.125-.78125 1.125-.92187m0 0"/><path id="m" d="m1.17188-3.28125.09374.125.875-.48437c.17188-.09375.32813-.20313.32813-.32813 0-.10937-.14062-.25-.23437-.25s-.1875.0625-.375.25Zm-.89063 1.875C.28125-.48437.6875.0625 1.625.0625c.65625 0 .98438-.35937 1.14063-.8125l-.17188-.09375C2.4375-.5 2.20313-.23437 1.75-.23437c-.71875 0-.875-.6875-.85937-1.29688h1.6875c.125 0 .21875-.03125.21875-.21875 0-.34375-.10938-1.17187-1.17188-1.17187-.90625 0-1.34375.64062-1.34375 1.51562m.625-.34375c0-.25.07813-.96875.6875-.96875.54688 0 .60938.54688.60938.78125 0 .10938-.04688.1875-.20313.1875Zm0 0"/><path id="n" d="M.1875 0h1.53125v-.17187c-.51562-.03126-.54687-.03126-.54687-.34375V-1.875c0-.4375.20312-.59375.32812-.59375.09375 0 .20313.03125.35938.125.04687.03125.09374.03125.125.03125.14062 0 .26562-.15625.26562-.32812 0-.125-.07812-.28125-.3125-.28125-.20312 0-.375.125-.76562.45312l-.0625-.45312-.89063.14062v.14063l.21875.03125c.14063.03125.1875.04687.1875.26562v1.82813c0 .3125-.03125.3125-.4375.34375Zm0 0"/><path id="o" d="M.28125-.75c0 .42188.29688.8125.84375.8125.34375 0 .6875-.21875.85938-.34375.09374.21875.1875.34375.39062.34375.21875 0 .46875-.0625.6875-.17187l-.03125-.125c-.07812.01562-.21875.01562-.29687 0-.10938-.03126-.20313-.14063-.20313-.5v-1.42188c0-.34375-.07812-.76562-.96875-.76562-.65625 0-1.17187.32812-1.17187.65625 0 .1875.21875.28125.32812.28125.125 0 .15625-.0625.1875-.17188.125-.4375.35938-.5625.59375-.5625s.5.10938.5.57813v.25c-.15625.14062-.71875.29687-1.17187.4375-.42188.125-.54688.42187-.54688.70312M.875-.84375c0-.26562.125-.40625.45313-.53125.23437-.09375.53125-.20312.67187-.28125v.82813c0 .46875-.35937.59375-.59375.59375C1.04688-.23437.875-.5.875-.84375m0 0"/><path id="p" d="M.1875-2.625h.42188v2.03125c0 .59375.4375.65625.64062.65625.29688 0 .57813-.14062.73438-.25l-.03126-.125c-.14062.0625-.26562.07813-.42187.07813-.20312 0-.39062-.14063-.39062-.57813V-2.625h.75v-.23437h-.75v-.73438H.98437L.625-2.85937H.1875Zm0 0"/><path id="q" d="m.15625-2.64062.21875.03125c.14063.03125.1875.04687.1875.26562V-.8125c0 .67188.39063.875.82813.875.5 0 .89062-.32812 1.0625-.40625L2.51563 0h.9375v-.17187c-.40625-.03126-.4375-.03126-.4375-.34375v-2.375l-.04688-.03125-.92187.14062v.14063l.23437.03125c.14063.03125.1875.04687.1875.26562v1.3125c0 .15625-.03125.29688-.0625.34375-.125.26563-.40625.45313-.70312.45313-.34375 0-.59375-.21875-.59375-.67188v-1.98437l-.04688-.03125-.90625.14062Zm0 0"/><path id="r" d="M.35938-1.73437c0 1.3125.3125 2.84375 1.54687 2.90625V1C1.5.90625.84375.3125.84375-1.73437c0-2.03125.625-2.625 1.0625-2.71875V-4.625C.67188-4.57812.35938-3.04687.35938-1.73437m0 0"/><path id="s" d="M.1875 0h1.42188v-.17187c-.42188-.03126-.4375-.03126-.4375-.34375V-1.875c0-.14062 0-.21875.0625-.3125.125-.23437.375-.42187.6875-.42187.39062 0 .60937.21875.60937.71875v1.375c0 .3125-.01562.3125-.4375.34375V0h1.42188v-.17187c-.40625-.03126-.4375-.03126-.4375-.34375V-2c0-.59375-.3125-.92187-.84375-.92187-.4375 0-.70313.20312-1.0625.4375l-.09376-.4375-.85937.14062v.14063l.21875.03125c.14063.03125.1875.04687.1875.26562v1.82813c0 .3125-.01562.3125-.4375.34375Zm0 0"/><path id="t" d="M.21875-3.15625c0 .4375.35938.79688.79688.79688s.8125-.35938.8125-.79688-.375-.8125-.8125-.8125-.79688.375-.79688.8125m.32813 0c0-.29687.21874-.53125.46875-.53125.25 0 .48437.23438.48437.53125 0 .29688-.23437.51563-.48437.51563s-.46875-.21875-.46875-.51563m0 0"/><path id="u" d="M.28125-1.98437c0 .67187.20313 1.23437.54688 1.57812.35937.35938.9375.5 1.59375.5.46875 0 1-.14062 1.28125-.28125l.07812-.98437h-.17187C3.45313-.5625 3.14063-.125 2.375-.125 1.17188-.125.9375-1.29687.9375-2c0-.95312.375-1.92187 1.45313-1.92187.59375 0 1.01562.25 1.125.9375h.17187v-.90625c-.25-.125-.70312-.23438-1.23437-.23438-.71875 0-1.29688.20313-1.64063.60938-.32812.35937-.53125.85937-.53125 1.53125m0 0"/><path id="v" d="M1.79688-1.73437c0-1.3125-.32813-2.84375-1.5625-2.89063v.17188c.45312.09375 1.0625.6875 1.0625 2.71875C1.29688.3125.65625.90625.23438 1v.17188c1.23437-.0625 1.5625-1.59375 1.5625-2.90625m0 0"/><path id="w" d="M.20313 0h1.625v-.17187c-.5-.03126-.51563-.03126-.51563-.375v-1.4375h2.03125v1.4375c0 .34375 0 .34375-.51562.375V0h1.625v-.17187c-.51563-.03126-.53125-.03126-.53125-.375V-3.5c0-.32812.01562-.32812.53125-.35937v-.17188h-1.625v.17188c.51562.03125.51562.03125.51562.35937v1.29688H1.3125V-3.5c0-.32812.01563-.32812.51563-.35937v-.17188h-1.625v.17188c.51562.03125.53125.03125.53125.35937v2.95313c0 .34375-.01563.34375-.53125.375Zm0 0"/></defs><path fill="none" stroke="#000" stroke-miterlimit="10" stroke-opacity=".5" stroke-width=".39683" d="M13.58985 173.26172h282.28114M13.58985 137.97658h282.28114M13.58985 102.69143h282.28114M13.58985 67.4063h282.28114M13.58985 32.12115h282.28114M31.23047 190.90234V14.47662M66.5156 190.90234V14.47662m35.28514 176.42572V14.47662m35.28515 176.42572V14.47662m35.28514 176.42572V14.47662m35.28514 176.42572V14.47662m35.28514 176.42572V14.47662m35.28515 176.42572V14.47662M31.23047 164.44141v17.64062"/><use xlink:href="#a" x="16.10326" y="189.1153" fill-opacity=".5"/><path fill="none" stroke="#000" stroke-miterlimit="10" stroke-opacity=".5" stroke-width=".39683" d="M66.51561 164.44141v17.64062"/><use xlink:href="#b" x="63.73809" y="185.58713" fill-opacity=".5"/><path fill="none" stroke="#000" stroke-miterlimit="10" stroke-opacity=".5" stroke-width=".39683" d="M101.80075 164.44141v17.64062"/><use xlink:href="#c" x="99.02281" y="185.58713" fill-opacity=".5"/><path fill="none" stroke="#000" stroke-miterlimit="10" stroke-opacity=".5" stroke-width=".39683" d="M137.0859 164.44141v17.64062"/><use xlink:href="#d" x="134.30754" y="185.58713" fill-opacity=".5"/><path fill="none" stroke="#000" stroke-miterlimit="10" stroke-opacity=".5" stroke-width=".39683" d="M172.37104 164.44141v17.64062"/><g fill-opacity=".5"><use xlink:href="#e" x="166.81295" y="185.64787"/><use xlink:href="#f" x="172.37116" y="185.64787"/></g><path fill="none" stroke="#000" stroke-miterlimit="10" stroke-opacity=".5" stroke-width=".39683" d="M207.65618 164.44141v17.64062"/><g fill-opacity=".5"><use xlink:href="#e" x="202.09767" y="185.58713"/><use xlink:href="#g" x="207.65589" y="185.58713"/></g><path fill="none" stroke="#000" stroke-miterlimit="10" stroke-opacity=".5" stroke-width=".39683" d="M242.94132 164.44141v17.64062"/><g fill-opacity=".5"><use xlink:href="#e" x="237.3824" y="185.58713"/><use xlink:href="#h" x="242.94061" y="185.58713"/></g><path fill="none" stroke="#000" stroke-miterlimit="10" stroke-opacity=".5" stroke-width=".39683" d="M278.22647 164.44141v17.64062"/><g fill-opacity=".5"><use xlink:href="#f" x="272.66712" y="185.64787"/><use xlink:href="#e" x="278.22534" y="185.64787"/></g><path fill="none" stroke="#000" stroke-miterlimit="10" stroke-width=".79368" d="M13.58985 173.26172h276.1288"/><path stroke="#000" stroke-miterlimit="10" stroke-width=".79368" d="M293.86719 173.26172c-.50782-.10547-2.75-.70703-4.14844-1.35938v2.71875c1.39844-.65625 3.64062-1.2539 4.14844-1.35937Zm0 0"/><path fill="none" stroke="#000" stroke-miterlimit="10" stroke-opacity=".5" stroke-width=".39683" d="M40.05468 137.97658H22.41016"/><use xlink:href="#b" x="16.10326" y="141.48047" fill-opacity=".5"/><path fill="none" stroke="#000" stroke-miterlimit="10" stroke-opacity=".5" stroke-width=".39683" d="M40.05468 102.69143H22.41016"/><use xlink:href="#c" x="16.10326" y="106.19574" fill-opacity=".5"/><path fill="none" stroke="#000" stroke-miterlimit="10" stroke-opacity=".5" stroke-width=".39683" d="M40.05468 67.4063H22.41016"/><use xlink:href="#d" x="16.10326" y="70.91102" fill-opacity=".5"/><path fill="none" stroke="#000" stroke-miterlimit="10" stroke-opacity=".5" stroke-width=".39683" d="M40.05468 32.12115H22.41016"/><g fill-opacity=".5"><use xlink:href="#e" x="13.32394" y="35.68803"/><use xlink:href="#f" x="18.88215" y="35.68803"/></g><path fill="none" stroke="#000" stroke-miterlimit="10" stroke-width=".79368" d="M31.23047 190.90234V20.62897"/><path stroke="#000" stroke-miterlimit="10" stroke-width=".79368" d="M31.23047 16.48047c-.10547.51172-.70313 2.75-1.35547 4.14844h2.71484c-.65234-1.39844-1.2539-3.63672-1.35937-4.14844Zm0 0"/><use xlink:href="#i" x="4.53885" y="8.75919"/><use xlink:href="#j" x="7.57094" y="8.75919"/><use xlink:href="#k" x="10.56583" y="8.75919"/><use xlink:href="#l" x="15.94174" y="8.75919"/><use xlink:href="#m" x="19.48228" y="8.75919"/><use xlink:href="#n" x="22.47717" y="8.75919"/><use xlink:href="#o" x="24.68458" y="8.75919"/><use xlink:href="#p" x="27.72907" y="8.75919"/><use xlink:href="#q" x="29.73187" y="8.75919"/><use xlink:href="#n" x="33.26" y="8.75919"/><use xlink:href="#j" x="35.40541" y="8.75919"/><use xlink:href="#r" x="39.70242" y="8.75919"/><use xlink:href="#j" x="41.84783" y="8.75919"/><use xlink:href="#s" x="44.84271" y="8.75919"/><use xlink:href="#t" x="49.75358" y="8.75919"/><use xlink:href="#u" x="51.79358" y="8.75919"/><use xlink:href="#v" x="55.77436" y="8.75919"/><use xlink:href="#w" x="300.24922" y="175.2416"/><use xlink:href="#j" x="304.72605" y="175.2416"/><use xlink:href="#q" x="307.72093" y="175.2416"/><use xlink:href="#n" x="311.24907" y="175.2416"/><use xlink:href="#j" x="313.39448" y="175.2416"/></svg>