<svg xmlns="http://www.w3.org/2000/svg" xmlns:xlink="http://www.w3.org/1999/xlink" width="325.151pt" height="280.15pt" viewBox="0 0 325.151 280.15"><defs><path id="a" d="M.5-4.04687C.5-1.625 1.21875.14063 3.21875.14063S5.9375-1.625 5.9375-4.04687c0-2.4375-.71875-4.20313-2.71875-4.20313S.5-6.48437.5-4.04687m1.23438 0c0-1.98438.32812-3.78125 1.48437-3.78125 1.14063 0 1.48438 1.79687 1.48438 3.78125 0 1.96875-.34375 3.76562-1.48438 3.76562-1.15625 0-1.48437-1.79687-1.48437-3.76562m0 0"/><path id="j" d="m1.75-1.3125.51563.5 2.09375-2.125 2.125 2.125.48437-.5-2.10937-2.10937 2.10937-2.10938-.48437-.5-2.125 2.10938-2.09375-2.10938-.51563.5 2.125 2.10938Zm0 0"/><path id="b" d="M1.1875 0h3.59375v-.3125l-.92187-.07812C3.625-.42187 3.5-.5 3.5-.9375V-7.375l-.0625-.04687-2.25.375v.26562l1.01563.125c.1875.03125.26562.10938.26562.42188V-.9375c0 .4375-.10937.51563-.35937.54688L1.1875-.3125Zm0 0"/><path id="c" d="M.29688-.10937.40625 0h4.51563l.375-1.4375L5-1.5c-.23437.59375-.45312.67188-.89062.67188H1.3125c.17188-.5625.82813-1.34375 1.84375-2.07813 1.04688-.76562 1.85938-1.25 1.85938-2.46875 0-1.53125-1.01563-2.04687-2.17188-2.04687-1.5 0-2.26562.90625-2.26562 1.46875 0 .375.42187.54687.60937.54687.20313 0 .26563-.10937.3125-.29687.17188-.75.60938-1.34375 1.28125-1.34375.82813 0 1.07813.70312 1.07813 1.5 0 1.17187-.59375 1.84375-1.54688 2.67187C.96875-1.70312.5-.95312.29688-.10937m0 0"/><path id="d" d="M.29688-1.10937c0 .45312.75 1.23437 2.29687 1.23437 1.57813 0 2.57813-.79687 2.57813-2.1875 0-1.46875-1.25-1.90625-1.85938-1.95312v-.04688c.59375-.09375 1.53125-.54687 1.53125-1.625 0-1.20312-.9375-1.73437-2.10937-1.73437-1.4375 0-2.15625.82812-2.15625 1.29687 0 .32813.39062.51563.53125.51563s.23437-.07813.28124-.21875c.23438-.73438.64063-1.21875 1.26563-1.21875.85938 0 1.07813.75 1.07813 1.375 0 .65625-.23438 1.46875-1.17188 1.46875-.51562 0-.8125-.09375-.95312-.09375-.14063 0-.1875.09375-.1875.29687 0 .1875.04687.29688.1875.29688.14062 0 .4375-.09375.95312-.09375.9375 0 1.45313.82812 1.45313 1.78125 0 1.3125-.625 1.76562-1.40625 1.76562-.71875 0-1.20313-.54687-1.40625-1.15625-.07813-.20312-.1875-.3125-.32813-.3125-.20312 0-.57812.20313-.57812.60938m0 0"/><path id="e" d="m.20313-2.1875.09375.23438h2.98437v1.10937c0 .375-.125.4375-.39062.45313l-.6875.07812V0h2.875v-.3125L4.59375-.375c-.25-.03125-.32812-.09375-.32812-.46875v-1.10937H5.375v-.51563H4.26563v-4.82812h-.79688C2.4375-5.79687 1.20313-3.89062.20313-2.1875M1-2.46875C1.65625-3.65625 2.4375-4.92187 3.28125-6.25v3.78125Zm0 0"/><path id="f" d="M.4375-1.10937c0 .5.76563 1.23437 2.1875 1.23437C4.42188.125 5.25-.96875 5.25-2.34375c0-1.53125-.95312-2.3125-2.26562-2.3125-.59375 0-1.26563.26563-1.60938.57813l.23438-2.07813c.04687-.26562.10937-.3125.32812-.3125h2.71875l.26563-.73437-.0625-.09375H1.20313l-.09376.09375-.21874 3.65625.26562.14062c.45313-.51562.89063-.78125 1.48438-.78125.70312 0 1.46875.51563 1.46875 1.95313 0 1.125-.45313 1.98437-1.40625 1.98437-.76563 0-1.15625-.54687-1.375-1.1875-.0625-.15625-.17188-.26562-.3125-.26562-.21876 0-.57813.23437-.57813.59375m0 0"/><path id="g" d="M.48438-3.375c0 2.35938.85937 3.5 2.48437 3.5s2.48438-.96875 2.48438-2.46875c0-1.46875-.90625-2.26562-2.07813-2.26562-.85937 0-1.5.57812-1.79687.9375.01562-2.40625.67187-3.375 1.67187-3.375.5 0 .85938.42187 1.01563 1.04687.03125.125.10937.23438.28125.23438.25 0 .57812-.20313.57812-.5 0-.4375-.53125-1.15625-1.84375-1.15625-1.73437 0-2.79687 1.32812-2.79687 4.04687m1.09375.79688c0-.67188.5-1.48438 1.42187-1.48438.6875 0 1.35938.64063 1.35938 1.89063C4.35938-1.01562 3.92188-.25 3-.25c-.95312 0-1.42187-1.01562-1.42187-2.32812m0 0"/><path id="h" d="M.45313-3.65625c0 2.1875.64062 3.78125 2.4375 3.78125 1.8125 0 2.45312-1.59375 2.45312-3.78125 0-2.17187-.64062-3.76562-2.45312-3.76562-1.79688 0-2.4375 1.59375-2.4375 3.76562m1.10937 0c0-1.76562.29688-3.39062 1.32813-3.39062s1.34375 1.625 1.34375 3.39062C4.23438-1.875 3.92188-.25 2.89063-.25S1.5625-1.875 1.5625-3.65625m0 0"/><path id="i" d="M.45313-1.98437C.45313-.89062 1.125.125 2.89063.125c1.76562 0 2.4375-1.01562 2.4375-2.10937 0-1.125-.6875-1.76563-1.4375-1.9375.67187-.1875 1.20312-.75 1.20312-1.64063 0-1.1875-.9375-1.85937-2.20312-1.85937-1.25 0-2.1875.67187-2.1875 1.85937 0 .89063.54687 1.45313 1.20312 1.64063-.73437.17187-1.45312.8125-1.45312 1.9375m1.09375.03124c0-1 .46875-1.75 1.34375-1.75s1.35937.75 1.35937 1.75C4.25-.98436 3.8125-.25 2.89063-.25c-.92188 0-1.34375-.73437-1.34375-1.70312M1.75-5.59374c0-.82812.40625-1.45312 1.14063-1.45312.75 0 1.14062.625 1.14062 1.45312 0 .75-.34375 1.5-1.14062 1.5-.78125 0-1.14063-.75-1.14063-1.5m0 0"/><path id="k" d="M.14063-3.1875H.3125c.07813-.65625.20313-.79687.90625-.79687h.35938V-.5625c0 .34375-.01563.34375-.65625.39063V0h1.9375v-.17187C2.20313-.21875 2.1875-.21875 2.1875-.5625v-3.42187h.35938c.70312 0 .82812.14062.90625.79687h.1875v-1h-3.5Zm0 0"/><path id="l" d="M.29688-.78125c0 .45313.29687.85938.875.85938.34375 0 .70312-.23438.90625-.375.07812.23437.1875.375.39062.375.23438 0 .48438-.07813.71875-.1875L3.15625-.25c-.09375.01563-.23437.03125-.3125 0C2.73438-.28125 2.625-.39062 2.625-.76562v-1.46875c0-.35938-.07812-.8125-1-.8125-.67187 0-1.21875.35937-1.21875.6875 0 .20312.21875.28125.34375.28125s.15625-.0625.1875-.15625c.14063-.45313.39063-.59375.625-.59375.25 0 .51563.125.51563.60937v.25c-.15625.15625-.75.29688-1.21875.45313-.4375.14062-.5625.4375-.5625.73437M.90625-.875c0-.28125.125-.42187.46875-.5625.25-.07812.5625-.20312.70313-.28125v.85938c0 .48437-.375.60937-.60938.60937-.375 0-.5625-.26562-.5625-.625m0 0"/><path id="m" d="M.5625-3.96875c0 .21875.14063.375.35938.375.23437 0 .375-.15625.375-.375s-.14063-.375-.375-.375c-.21876 0-.35938.15625-.35938.375M.1875 0h1.48438v-.17187c-.4375-.03126-.45313-.04688-.45313-.35938V-3l-.04687-.04687-.95313.15625V-2.75l.23438.04688c.15625.01562.20312.04687.20312.26562v1.90625c0 .3125-.03125.32813-.46875.35938Zm0 0"/><path id="n" d="M.125 0h1.46875v-.17187c-.42187-.03126-.4375-.04688-.4375-.35938v-3.9375L1.10938-4.5l-.95313.15625v.15625l.21875.01563c.15625.01562.20313.04687.20313.28125v3.35937c0 .3125-.01563.32813-.45313.35938Zm0 0"/><path id="o" d="M.29688-1.46875C.29688-.5.70313.07813 1.70313.07813c.67187 0 1.01562-.375 1.17187-.85938L2.70313-.875c-.17188.35938-.40625.64063-.89063.64063-.75 0-.89062-.73438-.89062-1.35938h1.75c.14062 0 .25-.03125.25-.23437 0-.35938-.125-1.21875-1.23438-1.21875-.95312 0-1.39062.67187-1.39062 1.57812m.64062-.35937c0-.25.09375-1 .71875-1 .5625 0 .625.5625.625.8125 0 .10937-.03125.1875-.20312.1875Zm0 0"/><path id="p" d="M.375-1.79687c0 1.35937.32813 2.95312 1.60938 3.01562v-.1875C1.5625.95313.875.32813.875-1.79687c0-2.10938.64063-2.73438 1.10938-2.84375v-.17188C.70313-4.76562.375-3.17187.375-1.79687m0 0"/><path id="q" d="M.1875 0h1.48438v-.17187c-.4375-.03126-.45313-.04688-.45313-.35938v-1.42187c0-.15626 0-.23438.0625-.32813.125-.23437.39063-.4375.71875-.4375.40625 0 .64063.23438.64063.75v1.4375c0 .3125-.01563.32813-.45313.35938V0h1.48438v-.17187c-.4375-.03126-.46875-.04688-.46875-.35938v-1.54687c0-.60938-.32813-.96875-.89063-.96875-.45312 0-.71875.21875-1.09375.46875L1.125-3.04687l-.90625.15625V-2.75l.23438.04688c.15625.01562.20312.04687.20312.26562v1.90625c0 .3125-.03125.32813-.46875.35938Zm0 0"/><path id="r" d="M.29688-1.45312c0 1.01562.5 1.53125 1.40625 1.53125.42187 0 1-.21875 1.17187-.875l-.1875-.09376C2.5-.45312 2.26563-.25 1.8125-.25 1.09375-.25.92188-1 .92188-1.5625c0-.90625.35937-1.26562.78125-1.26562.28124 0 .45312.1875.57812.53125.03125.09375.07813.14062.1875.14062.125 0 .35938-.0625.35938-.29687 0-.28125-.40625-.59375-1.0625-.59375-1.09375 0-1.46875.78125-1.46875 1.59375m0 0"/><path id="s" d="M.1875 0h1.48438v-.17187c-.4375-.03126-.45313-.04688-.45313-.35938v-1.42187c0-.15626 0-.23438.04688-.3125.10937-.25.375-.45313.71875-.45313.51562 0 .57812.375.57812.75v1.4375c0 .3125-.01562.32813-.45312.35938V0h1.48437v-.17187c-.4375-.03126-.45312-.04688-.45312-.35938v-1.42187c0-.15626 0-.23438.04687-.32813.07813-.23437.34375-.4375.6875-.4375.375 0 .60938.21875.60938.75v1.4375c0 .3125-.01563.32813-.45313.35938V0h1.48438v-.17187c-.4375-.03126-.46875-.04688-.46875-.35938v-1.54687c0-.60938-.32813-.96875-.89063-.96875-.5 0-.85937.32812-1.07812.46875-.14063-.28125-.375-.46875-.79688-.46875-.46875 0-.84375.3125-1.0625.46875l-.0625-.46875-.9375.15625V-2.75l.23438.04688c.15625.01562.20312.04687.20312.26562v1.90625c0 .3125-.03125.32813-.46875.35938Zm0 0"/><path id="t" d="M1.85938-1.79687c0-1.375-.32813-2.96875-1.60938-3.01563v.17188c.45313.10937 1.10938.73437 1.10938 2.84375 0 2.125-.6875 2.75-1.10938 2.82812v.1875c1.28125-.0625 1.60938-1.65625 1.60938-3.01562m0 0"/><path id="u" d="m1-4.48437.07813.14062.65625-.375c.07812-.04687.14062-.07812.1875-.07812.0625 0 .125.03125.20312.07812l.65625.375.07813-.14062-.70313-.6875C2.07813-5.23437 2-5.3125 1.92188-5.3125c-.0625 0-.14063.0625-.21876.14063ZM-.17187 0h1.32812v-.17187l-.3125-.03126C.67188-.21874.64063-.29686.6875-.45312c.10938-.35937.23438-.73437.375-1.17187h1.35938l.40625 1.17188c.0625.17187.03125.23437-.15625.25l-.28125.03124V0H3.9375v-.17187c-.34375-.03126-.42187-.04688-.53125-.375L2.125-4.1875h-.45312l-.625 1.78125c-.1875.53125-.45313 1.25-.65625 1.8125-.125.32813-.1875.40625-.5625.42188Zm1.3125-1.85937c.1875-.59375.40625-1.1875.59375-1.73438H1.75l.59375 1.73438Zm0 0"/><path id="v" d="M.25.57813c0 .60937.60938.89062 1.3125.89062.35938 0 .75-.07812 1.03125-.25.28125-.17187.48438-.45312.48438-.82812C3.07813-.26562 2.5625-.5 1.90625-.5h-.48437c-.4375 0-.5-.14062-.5-.26562 0-.17188.23437-.26563.3125-.29688.10937.01563.25.03125.3125.03125.5625 0 1.21875-.26562 1.21875-1 0-.25-.07813-.45312-.1875-.5625l.48437-.07812.125-.375-.04687-.0625-.78125.25c-.17188-.10938-.5-.1875-.78125-.1875-.9375 0-1.25.5625-1.25 1.01562 0 .57813.375.84375.64062.90625v.01563c-.32812.125-.54687.29687-.54687.54687 0 .20313.25.4375.53125.46875v.01563C.70313 0 .25.14063.25.57813M.82813.5625q0-.32812.1875-.46875c.14062-.09375.34375-.14062.625-.14062.54687 0 .9375.14062.9375.59375 0 .48437-.4375.71875-.875.71875-.51563 0-.875-.26563-.875-.70313M.9375-2.03125c0-.59375.3125-.79687.64063-.79687.29687 0 .60937.21875.60937.79687 0 .51563-.26562.78125-.625.78125-.34375 0-.625-.26562-.625-.78125m0 0"/><path id="w" d="m1.21875-3.40625.09375.125.90625-.51562C2.40625-3.89062 2.5625-4 2.5625-4.125s-.14062-.26562-.23437-.26562c-.10938 0-.20313.0625-.39063.25Zm-.92187 1.9375C.29688-.5.70313.07813 1.70313.07813c.67187 0 1.01562-.375 1.17187-.85938L2.70313-.875c-.17188.35938-.40625.64063-.89063.64063-.75 0-.89062-.73438-.89062-1.35938h1.75c.14062 0 .25-.03125.25-.23437 0-.35938-.125-1.21875-1.23438-1.21875-.95312 0-1.39062.67187-1.39062 1.57812m.64062-.35937c0-.25.09375-1 .71875-1 .5625 0 .625.5625.625.8125 0 .10937-.03125.1875-.20312.1875Zm0 0"/></defs><path fill="none" stroke="#7f7f7f" stroke-dasharray=".39729254500000005 .9932612716000001" stroke-miterlimit="10" stroke-width=".39729" d="M35.48047 253.69922h238.80466M35.48047 216.95703h238.80466M35.48047 180.21876h238.80466M35.48047 143.48048h238.80466M35.48047 106.7422h238.80466M35.48047 70.00002h238.80466M35.48047 33.26174h238.80466M35.48047 253.69922V14.89065m36.73828 238.80857V14.89065m36.74218 238.80857V14.89065m36.73828 238.80857V14.89065m36.73828 238.80857V14.89065m36.73828 238.80857V14.89065m36.74218 238.80857V14.89065"/><use xlink:href="#a" x="19.40689" y="270.61194" fill="#7f7f7f"/><path fill="none" stroke="#7f7f7f" stroke-miterlimit="10" stroke-width=".39729" d="M72.21875 244.51172v18.3711"/><use xlink:href="#b" x="69.32643" y="274.87102" fill="#7f7f7f"/><path fill="none" stroke="#7f7f7f" stroke-miterlimit="10" stroke-width=".39729" d="M108.96093 244.51172v18.3711"/><use xlink:href="#c" x="106.06496" y="274.87102" fill="#7f7f7f"/><path fill="none" stroke="#7f7f7f" stroke-miterlimit="10" stroke-width=".39729" d="M145.69921 244.51172v18.3711"/><use xlink:href="#d" x="142.80349" y="274.87102" fill="#7f7f7f"/><path fill="none" stroke="#7f7f7f" stroke-miterlimit="10" stroke-width=".39729" d="M182.43749 244.51172v18.3711"/><use xlink:href="#e" x="179.54302" y="274.7434" fill="#7f7f7f"/><path fill="none" stroke="#7f7f7f" stroke-miterlimit="10" stroke-width=".39729" d="M219.17577 244.51172v18.3711"/><use xlink:href="#f" x="216.28155" y="274.7434" fill="#7f7f7f"/><path fill="none" stroke="#7f7f7f" stroke-miterlimit="10" stroke-width=".39729" d="M255.91795 244.51172v18.3711"/><use xlink:href="#g" x="253.02108" y="274.87102" fill="#7f7f7f"/><path fill="none" stroke="#000" stroke-miterlimit="10" stroke-width=".7946" d="M17.10938 253.69922h251.0195"/><path stroke="#000" stroke-miterlimit="10" stroke-width=".7946" d="M272.28125 253.69922c-.51172-.10547-2.7539-.70703-4.15234-1.35938v2.71875c1.39843-.65234 3.64062-1.2539 4.15234-1.35937Zm0 0"/><path fill="none" stroke="#7f7f7f" stroke-miterlimit="10" stroke-width=".39729" d="M44.66406 216.95703H26.29688"/><g fill="#7f7f7f"><use xlink:href="#c" x="10.15994" y="220.60865"/><use xlink:href="#h" x="15.94722" y="220.60865"/></g><path fill="none" stroke="#7f7f7f" stroke-miterlimit="10" stroke-width=".39729" d="M44.66406 180.21876H26.29688"/><g fill="#7f7f7f"><use xlink:href="#e" x="10.15994" y="183.87012"/><use xlink:href="#h" x="15.94722" y="183.87012"/></g><path fill="none" stroke="#7f7f7f" stroke-miterlimit="10" stroke-width=".39729" d="M44.66406 143.48048H26.29688"/><g fill="#7f7f7f"><use xlink:href="#g" x="10.15994" y="147.13059"/><use xlink:href="#h" x="15.94722" y="147.13059"/></g><path fill="none" stroke="#7f7f7f" stroke-miterlimit="10" stroke-width=".39729" d="M44.66406 106.7422H26.29688"/><g fill="#7f7f7f"><use xlink:href="#i" x="10.15994" y="110.39206"/><use xlink:href="#h" x="15.94722" y="110.39206"/></g><path fill="none" stroke="#7f7f7f" stroke-miterlimit="10" stroke-width=".39729" d="M44.66406 70.00002H26.29688"/><g fill="#7f7f7f"><use xlink:href="#b" x="4.3725" y="73.65253"/><use xlink:href="#h" x="10.15978" y="73.65253"/><use xlink:href="#h" x="15.94705" y="73.65253"/></g><path fill="none" stroke="#7f7f7f" stroke-miterlimit="10" stroke-width=".39729" d="M44.66406 33.26174H26.29688"/><g fill="#7f7f7f"><use xlink:href="#b" x="4.3725" y="36.914"/><use xlink:href="#c" x="10.15978" y="36.914"/><use xlink:href="#h" x="15.94705" y="36.914"/></g><path fill="none" stroke="#000" stroke-miterlimit="10" stroke-width=".7946" d="M35.48047 272.0664V21.0508"/><path stroke="#000" stroke-miterlimit="10" stroke-width=".7946" d="M35.48047 16.89844c-.10547.50781-.70703 2.75-1.35938 4.15234h2.71875c-.65234-1.40234-1.2539-3.64453-1.35937-4.15234Zm0 0"/><use xlink:href="#j" x="31.11636" y="164.84784" fill="#007f7f"/><use xlink:href="#j" x="67.86287" y="109.72907" fill="#007f7f"/><use xlink:href="#j" x="104.60838" y="100.54294" fill="#007f7f"/><use xlink:href="#j" x="141.35488" y="96.86809" fill="#007f7f"/><use xlink:href="#j" x="178.1004" y="82.16969" fill="#007f7f"/><use xlink:href="#j" x="214.8469" y="54.61031" fill="#007f7f"/><use xlink:href="#j" x="251.59341" y="36.23705" fill="#007f7f"/><path fill="none" stroke="#007f7f" stroke-miterlimit="10" stroke-width=".7946" d="m35.48047 161.83204 36.74609-55.12109 36.74609-9.1875 36.74609-3.67187 36.7461-14.69922 36.74999-27.5586 36.74609-18.37499"/><use xlink:href="#k" x="16.85164" y="9.11933"/><use xlink:href="#l" x="20.00869" y="9.11933"/><use xlink:href="#m" x="23.17864" y="9.11933"/><use xlink:href="#n" x="24.94117" y="9.11933"/><use xlink:href="#n" x="26.63267" y="9.11933"/><use xlink:href="#o" x="28.32418" y="9.11933"/><use xlink:href="#p" x="32.80473" y="9.11933"/><use xlink:href="#o" x="35.03855" y="9.11933"/><use xlink:href="#q" x="38.15686" y="9.11933"/><use xlink:href="#r" x="43.27011" y="9.11933"/><use xlink:href="#s" x="46.27867" y="9.11933"/><use xlink:href="#t" x="51.87613" y="9.11933"/><use xlink:href="#u" x="278.84573" y="255.62242"/><use xlink:href="#v" x="282.69358" y="255.62242"/><use xlink:href="#o" x="285.84417" y="255.62242"/><use xlink:href="#p" x="290.32472" y="255.62242"/><use xlink:href="#o" x="292.55854" y="255.62242"/><use xlink:href="#q" x="295.67685" y="255.62242"/><use xlink:href="#l" x="300.7901" y="255.62242"/><use xlink:href="#q" x="303.96006" y="255.62242"/><use xlink:href="#q" x="307.71107" y="255.62242"/><use xlink:href="#w" x="311.46208" y="255.62242"/><use xlink:href="#o" x="314.58039" y="255.62242"/><use xlink:href="#t" x="317.6987" y="255.62242"/></svg>