<svg xmlns="http://www.w3.org/2000/svg" xmlns:xlink="http://www.w3.org/1999/xlink" width="325.221pt" height="280.15pt" viewBox="0 0 325.221 280.15"><defs><path id="a" d="M.5-4.04687C.5-1.625 1.21875.14063 3.23438.14063c2 0 2.70312-1.76563 2.70312-4.1875 0-2.4375-.70312-4.20313-2.70312-4.20313C1.21875-8.25.5-6.48437.5-4.04687m1.23438 0c0-1.98438.34375-3.78125 1.5-3.78125 1.14062 0 1.46875 1.79687 1.46875 3.78125 0 1.96875-.32813 3.76562-1.46875 3.76562-1.15625 0-1.5-1.79687-1.5-3.76562m0 0"/><path id="j" d="m1.75-1.3125.51563.5 2.09375-2.125 2.125 2.125.48437-.5-2.10937-2.10937 2.10937-2.10938-.48437-.5-2.125 2.10938-2.09375-2.10938-.51563.5 2.125 2.10938Zm0 0"/><path id="b" d="M1.1875 0h3.59375v-.3125l-.92187-.07812C3.625-.42187 3.5-.5 3.5-.9375V-7.375l-.0625-.04687-2.25.375v.26562l1.01563.125c.1875.03125.26562.10938.26562.42188V-.9375c0 .4375-.10937.51563-.35937.54688L1.1875-.3125Zm0 0"/><path id="c" d="M.29688-.10937.42188 0H4.9375l.375-1.4375L5.01563-1.5c-.23438.59375-.45313.67188-.90625.67188H1.32813c.17187-.5625.82812-1.34375 1.82812-2.07813 1.04688-.76562 1.85938-1.25 1.85938-2.46875 0-1.53125-1-2.04687-2.15625-2.04687-1.5 0-2.26563.90625-2.26563 1.46875 0 .375.42188.54687.60938.54687s.26562-.10937.3125-.29687c.17187-.75.59375-1.34375 1.28125-1.34375.82812 0 1.07812.70312 1.07812 1.5 0 1.17187-.59375 1.84375-1.54687 2.67187C.96875-1.70312.51563-.95312.29688-.10937m0 0"/><path id="d" d="M.29688-1.10937C.29688-.65625 1.0625.125 2.60938.125 4.1875.125 5.1875-.67187 5.1875-2.0625c0-1.46875-1.26562-1.90625-1.85937-1.95312v-.04688c.59375-.09375 1.53125-.54687 1.53125-1.625 0-1.20312-.9375-1.73437-2.10938-1.73437-1.45312 0-2.15625.82812-2.15625 1.29687 0 .32813.375.51563.53125.51563.14063 0 .21875-.07813.26563-.21875.25-.73438.65625-1.21875 1.26562-1.21875.85938 0 1.09375.75 1.09375 1.375 0 .65625-.23437 1.46875-1.17187 1.46875-.51563 0-.82813-.09375-.95313-.09375-.14062 0-.1875.09375-.1875.29687 0 .1875.04688.29688.1875.29688.125 0 .4375-.09375.95313-.09375.9375 0 1.45312.82812 1.45312 1.78125C4.03125-.70312 3.39063-.25 2.60938-.25c-.71875 0-1.1875-.54687-1.40625-1.15625-.0625-.20312-.17188-.3125-.3125-.3125-.20313 0-.59375.20313-.59375.60938m0 0"/><path id="e" d="m.21875-2.1875.09375.23438h2.98438v1.10937c0 .375-.125.4375-.39063.45313l-.70312.07812V0h2.89062v-.3125L4.60938-.375c-.26563-.03125-.32813-.09375-.32813-.46875v-1.10937h1.10938v-.51563H4.28125v-4.82812h-.8125c-1.01562 1.5-2.25 3.40625-3.25 5.10937m.79688-.28125c.64062-1.1875 1.4375-2.45312 2.28125-3.78125v3.78125Zm0 0"/><path id="f" d="M.45313-1.10937c0 .5.76562 1.23437 2.1875 1.23437C4.4375.125 5.25-.96875 5.25-2.34375c0-1.53125-.95312-2.3125-2.25-2.3125-.60937 0-1.26562.26563-1.60937.57813L1.625-6.15625c.03125-.26562.10938-.3125.3125-.3125h2.71875l.26563-.73437-.04688-.09375H1.21875l-.10937.09375-.21876 3.65625.26563.14062c.45313-.51562.90625-.78125 1.5-.78125.6875 0 1.45313.51563 1.45313 1.95313 0 1.125-.45313 1.98437-1.40625 1.98437-.76563 0-1.14063-.54687-1.35938-1.1875-.0625-.15625-.17187-.26562-.32812-.26562-.21876 0-.5625.23437-.5625.59375m0 0"/><path id="g" d="M.48438-3.375c0 2.35938.85937 3.5 2.5 3.5 1.625 0 2.48437-.96875 2.48437-2.46875 0-1.46875-.90625-2.26562-2.07812-2.26562-.875 0-1.5.57812-1.79688.9375.01563-2.40625.67188-3.375 1.65625-3.375.5 0 .85938.42187 1.03125 1.04687.03125.125.10938.23438.28125.23438.23438 0 .57813-.20313.57813-.5 0-.4375-.53125-1.15625-1.84375-1.15625-1.73438 0-2.8125 1.32812-2.8125 4.04687m1.10937.79688c0-.67188.5-1.48438 1.42188-1.48438.6875 0 1.35937.64063 1.35937 1.89063C4.375-1.01562 3.92188-.25 3.01563-.25c-.95313 0-1.42188-1.01562-1.42188-2.32812m0 0"/><path id="h" d="M.45313-3.65625c0 2.1875.65625 3.78125 2.45312 3.78125s2.4375-1.59375 2.4375-3.78125c0-2.17187-.64062-3.76562-2.4375-3.76562-1.79687 0-2.45312 1.59375-2.45312 3.76562m1.10937 0c0-1.76562.3125-3.39062 1.34375-3.39062s1.32813 1.625 1.32813 3.39062C4.23438-1.875 3.9375-.25 2.90625-.25S1.5625-1.875 1.5625-3.65625m0 0"/><path id="i" d="M.46875-1.98437C.46875-.89062 1.14063.125 2.90625.125c1.76563 0 2.4375-1.01562 2.4375-2.10937 0-1.125-.6875-1.76563-1.4375-1.9375.65625-.1875 1.20313-.75 1.20313-1.64063 0-1.1875-.95313-1.85937-2.20313-1.85937S.70313-6.75.70313-5.5625c0 .89063.5625 1.45313 1.21875 1.64063C1.1875-3.75.46875-3.10937.46875-1.98437m1.09375.03124c0-1 .46875-1.75 1.34375-1.75s1.34375.75 1.34375 1.75C4.25-.98436 3.82813-.25 2.90625-.25c-.92187 0-1.34375-.73437-1.34375-1.70312m.20313-3.64062c0-.82812.39062-1.45312 1.14062-1.45312s1.14063.625 1.14063 1.45312c0 .75-.34375 1.5-1.14063 1.5-.79687 0-1.14062-.75-1.14062-1.5m0 0"/><path id="k" d="M.14063-3.1875H.3125c.07813-.65625.20313-.79687.90625-.79687h.35938V-.5625c0 .34375-.01563.34375-.65625.39063V0h1.9375v-.17187C2.20313-.21875 2.1875-.21875 2.1875-.5625v-3.42187h.35938c.70312 0 .82812.14062.90625.79687h.1875v-1h-3.5Zm0 0"/><path id="l" d="M.29688-.78125c0 .45313.29687.85938.875.85938.34375 0 .70312-.23438.90625-.375.07812.23437.1875.375.39062.375.23438 0 .48438-.07813.71875-.1875L3.15625-.25c-.09375.01563-.23437.03125-.3125 0C2.73438-.28125 2.625-.39062 2.625-.76562v-1.46875c0-.35938-.07812-.8125-1-.8125-.67187 0-1.21875.35937-1.21875.6875 0 .20312.21875.28125.34375.28125s.15625-.0625.1875-.15625c.14063-.45313.39063-.59375.625-.59375.25 0 .51563.125.51563.60937v.25c-.15625.15625-.75.29688-1.21875.45313-.4375.14062-.5625.4375-.5625.73437M.90625-.875c0-.28125.125-.42187.46875-.5625.25-.07812.5625-.20312.70313-.28125v.85938c0 .48437-.375.60937-.60938.60937-.375 0-.5625-.26562-.5625-.625m0 0"/><path id="m" d="M.5625-3.96875c0 .21875.14063.375.35938.375.23437 0 .375-.15625.375-.375s-.14063-.375-.375-.375c-.21876 0-.35938.15625-.35938.375M.1875 0h1.48438v-.17187c-.4375-.03126-.45313-.04688-.45313-.35938V-3l-.04687-.04687-.95313.15625V-2.75l.23438.04688c.15625.01562.20312.04687.20312.26562v1.90625c0 .3125-.03125.32813-.46875.35938Zm0 0"/><path id="n" d="M.125 0h1.46875v-.17187c-.42187-.03126-.4375-.04688-.4375-.35938v-3.9375L1.10938-4.5l-.95313.15625v.15625l.21875.01563c.15625.01562.20313.04687.20313.28125v3.35937c0 .3125-.01563.32813-.45313.35938Zm0 0"/><path id="o" d="M.29688-1.46875C.29688-.5.70313.07813 1.70313.07813c.67187 0 1.01562-.375 1.17187-.85938L2.70313-.875c-.17188.35938-.40625.64063-.89063.64063-.75 0-.89062-.73438-.89062-1.35938h1.75c.14062 0 .25-.03125.25-.23437 0-.35938-.125-1.21875-1.23438-1.21875-.95312 0-1.39062.67187-1.39062 1.57812m.64062-.35937c0-.25.09375-1 .71875-1 .5625 0 .625.5625.625.8125 0 .10937-.03125.1875-.20312.1875Zm0 0"/><path id="p" d="M.375-1.79687c0 1.35937.32813 2.95312 1.60938 3.01562v-.1875C1.5625.95313.875.32813.875-1.79687c0-2.10938.64063-2.73438 1.10938-2.84375v-.17188C.70313-4.76562.375-3.17187.375-1.79687m0 0"/><path id="q" d="M.1875 0h1.48438v-.17187c-.4375-.03126-.45313-.04688-.45313-.35938v-1.42187c0-.15626 0-.23438.0625-.32813.125-.23437.39063-.4375.71875-.4375.40625 0 .64063.23438.64063.75v1.4375c0 .3125-.01563.32813-.45313.35938V0h1.48438v-.17187c-.4375-.03126-.46875-.04688-.46875-.35938v-1.54687c0-.60938-.32813-.96875-.89063-.96875-.45312 0-.71875.21875-1.09375.46875L1.125-3.04687l-.90625.15625V-2.75l.23438.04688c.15625.01562.20312.04687.20312.26562v1.90625c0 .3125-.03125.32813-.46875.35938Zm0 0"/><path id="r" d="M.29688-1.45312c0 1.01562.5 1.53125 1.40625 1.53125.42187 0 1-.21875 1.17187-.875l-.1875-.09376C2.5-.45312 2.26563-.25 1.8125-.25 1.09375-.25.92188-1 .92188-1.5625c0-.90625.35937-1.26562.78125-1.26562.28124 0 .45312.1875.57812.53125.03125.09375.07813.14062.1875.14062.125 0 .35938-.0625.35938-.29687 0-.28125-.40625-.59375-1.0625-.59375-1.09375 0-1.46875.78125-1.46875 1.59375m0 0"/><path id="s" d="M.1875 0h1.48438v-.17187c-.4375-.03126-.45313-.04688-.45313-.35938v-1.42187c0-.15626 0-.23438.04688-.3125.10937-.25.375-.45313.71875-.45313.51562 0 .57812.375.57812.75v1.4375c0 .3125-.01562.32813-.45312.35938V0h1.48437v-.17187c-.4375-.03126-.45312-.04688-.45312-.35938v-1.42187c0-.15626 0-.23438.04687-.32813.07813-.23437.34375-.4375.6875-.4375.375 0 .60938.21875.60938.75v1.4375c0 .3125-.01563.32813-.45313.35938V0h1.48438v-.17187c-.4375-.03126-.46875-.04688-.46875-.35938v-1.54687c0-.60938-.32813-.96875-.89063-.96875-.5 0-.85937.32812-1.07812.46875-.14063-.28125-.375-.46875-.79688-.46875-.46875 0-.84375.3125-1.0625.46875l-.0625-.46875-.9375.15625V-2.75l.23438.04688c.15625.01562.20312.04687.20312.26562v1.90625c0 .3125-.03125.32813-.46875.35938Zm0 0"/><path id="t" d="M1.85938-1.79687c0-1.375-.32813-2.96875-1.60938-3.01563v.17188c.45313.10937 1.10938.73437 1.10938 2.84375 0 2.125-.6875 2.75-1.10938 2.82812v.1875c1.28125-.0625 1.60938-1.65625 1.60938-3.01562m0 0"/><path id="u" d="m1-4.48437.07813.14062.65625-.375c.07812-.04687.14062-.07812.1875-.07812.0625 0 .125.03125.20312.07812l.65625.375.07813-.14062-.70313-.6875C2.07813-5.23437 2-5.3125 1.92188-5.3125c-.0625 0-.14063.0625-.21876.14063ZM-.17187 0h1.32812v-.17187l-.3125-.03126C.67188-.21874.64063-.29686.6875-.45312c.10938-.35937.23438-.73437.375-1.17187h1.35938l.40625 1.17188c.0625.17187.03125.23437-.15625.25l-.28125.03124V0H3.9375v-.17187c-.34375-.03126-.42187-.04688-.53125-.375L2.125-4.1875h-.45312l-.625 1.78125c-.1875.53125-.45313 1.25-.65625 1.8125-.125.32813-.1875.40625-.5625.42188Zm1.3125-1.85937c.1875-.59375.40625-1.1875.59375-1.73438H1.75l.59375 1.73438Zm0 0"/><path id="v" d="M.25.57813c0 .60937.60938.89062 1.3125.89062.35938 0 .75-.07812 1.03125-.25.28125-.17187.48438-.45312.48438-.82812C3.07813-.26562 2.5625-.5 1.90625-.5h-.48437c-.4375 0-.5-.14062-.5-.26562 0-.17188.23437-.26563.3125-.29688.10937.01563.25.03125.3125.03125.5625 0 1.21875-.26562 1.21875-1 0-.25-.07813-.45312-.1875-.5625l.48437-.07812.125-.375-.04687-.0625-.78125.25c-.17188-.10938-.5-.1875-.78125-.1875-.9375 0-1.25.5625-1.25 1.01562 0 .57813.375.84375.64062.90625v.01563c-.32812.125-.54687.29687-.54687.54687 0 .20313.25.4375.53125.46875v.01563C.70313 0 .25.14063.25.57813M.82813.5625q0-.32812.1875-.46875c.14062-.09375.34375-.14062.625-.14062.54687 0 .9375.14062.9375.59375 0 .48437-.4375.71875-.875.71875-.51563 0-.875-.26563-.875-.70313M.9375-2.03125c0-.59375.3125-.79687.64063-.79687.29687 0 .60937.21875.60937.79687 0 .51563-.26562.78125-.625.78125-.34375 0-.625-.26562-.625-.78125m0 0"/><path id="w" d="m1.21875-3.40625.09375.125.90625-.51562C2.40625-3.89062 2.5625-4 2.5625-4.125s-.14062-.26562-.23437-.26562c-.10938 0-.20313.0625-.39063.25Zm-.92187 1.9375C.29688-.5.70313.07813 1.70313.07813c.67187 0 1.01562-.375 1.17187-.85938L2.70313-.875c-.17188.35938-.40625.64063-.89063.64063-.75 0-.89062-.73438-.89062-1.35938h1.75c.14062 0 .25-.03125.25-.23437 0-.35938-.125-1.21875-1.23438-1.21875-.95312 0-1.39062.67187-1.39062 1.57812m.64062-.35937c0-.25.09375-1 .71875-1 .5625 0 .625.5625.625.8125 0 .10937-.03125.1875-.20312.1875Zm0 0"/></defs><path fill="none" stroke="#7f7f7f" stroke-dasharray=".39729254500000005 .9932612716000001" stroke-miterlimit="10" stroke-width=".39729" d="M35.58594 253.69922H274.3906M35.58594 216.95703H274.3906M35.58594 180.21876H274.3906M35.58594 143.48048H274.3906M35.58594 106.7422H274.3906M35.58594 70.00002H274.3906M35.58594 33.26174H274.3906M35.58594 253.69922V14.89065m36.73828 238.80857V14.89065m36.73827 238.80857V14.89065m36.74219 238.80857V14.89065m36.73828 238.80857V14.89065m36.73827 238.80857V14.89065m36.74219 238.80857V14.89065"/><use xlink:href="#a" x="19.49871" y="270.61194" fill="#7f7f7f"/><path fill="none" stroke="#7f7f7f" stroke-miterlimit="10" stroke-width=".39729" d="M72.32422 244.51172v18.3711"/><use xlink:href="#b" x="69.41925" y="274.87102" fill="#7f7f7f"/><path fill="none" stroke="#7f7f7f" stroke-miterlimit="10" stroke-width=".39729" d="M109.0625 244.51172v18.3711"/><use xlink:href="#c" x="106.15778" y="274.87102" fill="#7f7f7f"/><path fill="none" stroke="#7f7f7f" stroke-miterlimit="10" stroke-width=".39729" d="M145.80468 244.51172v18.3711"/><use xlink:href="#d" x="142.89731" y="274.87102" fill="#7f7f7f"/><path fill="none" stroke="#7f7f7f" stroke-miterlimit="10" stroke-width=".39729" d="M182.54296 244.51172v18.3711"/><use xlink:href="#e" x="179.63584" y="274.7434" fill="#7f7f7f"/><path fill="none" stroke="#7f7f7f" stroke-miterlimit="10" stroke-width=".39729" d="M219.28123 244.51172v18.3711"/><use xlink:href="#f" x="216.37537" y="274.7434" fill="#7f7f7f"/><path fill="none" stroke="#7f7f7f" stroke-miterlimit="10" stroke-width=".39729" d="M256.02342 244.51172v18.3711"/><use xlink:href="#g" x="253.1139" y="274.87102" fill="#7f7f7f"/><path fill="none" stroke="#000" stroke-miterlimit="10" stroke-width=".7946" d="M17.21485 253.69922h251.0195"/><path stroke="#000" stroke-miterlimit="10" stroke-width=".7946" d="M272.38672 253.69922c-.51172-.10547-2.7539-.70703-4.15235-1.35938v2.71875c1.39844-.65234 3.64063-1.2539 4.15235-1.35937Zm0 0"/><path fill="none" stroke="#7f7f7f" stroke-miterlimit="10" stroke-width=".39729" d="M44.76953 216.95703h-18.3711"/><g fill="#7f7f7f"><use xlink:href="#c" x="10.21787" y="220.60865"/><use xlink:href="#h" x="16.02839" y="220.60865"/></g><path fill="none" stroke="#7f7f7f" stroke-miterlimit="10" stroke-width=".39729" d="M44.76953 180.21876h-18.3711"/><g fill="#7f7f7f"><use xlink:href="#e" x="10.21787" y="183.87012"/><use xlink:href="#h" x="16.02839" y="183.87012"/></g><path fill="none" stroke="#7f7f7f" stroke-miterlimit="10" stroke-width=".39729" d="M44.76953 143.48048h-18.3711"/><g fill="#7f7f7f"><use xlink:href="#g" x="10.21787" y="147.13059"/><use xlink:href="#h" x="16.02839" y="147.13059"/></g><path fill="none" stroke="#7f7f7f" stroke-miterlimit="10" stroke-width=".39729" d="M44.76953 106.7422h-18.3711"/><g fill="#7f7f7f"><use xlink:href="#i" x="10.21787" y="110.39206"/><use xlink:href="#h" x="16.02839" y="110.39206"/></g><path fill="none" stroke="#7f7f7f" stroke-miterlimit="10" stroke-width=".39729" d="M44.76953 70.00002h-18.3711"/><g fill="#7f7f7f"><use xlink:href="#b" x="4.4075" y="73.65253"/><use xlink:href="#h" x="10.21802" y="73.65253"/><use xlink:href="#h" x="16.02854" y="73.65253"/></g><path fill="none" stroke="#7f7f7f" stroke-miterlimit="10" stroke-width=".39729" d="M44.76953 33.26174h-18.3711"/><g fill="#7f7f7f"><use xlink:href="#b" x="4.4075" y="36.914"/><use xlink:href="#c" x="10.21802" y="36.914"/><use xlink:href="#h" x="16.02854" y="36.914"/></g><path fill="none" stroke="#000" stroke-miterlimit="10" stroke-width=".7946" d="M35.58594 272.0664V21.0508"/><path stroke="#000" stroke-miterlimit="10" stroke-width=".7946" d="M35.58594 16.89844c-.10547.50781-.70703 2.75-1.35938 4.15234h2.71875c-.65234-1.40234-1.2539-3.64453-1.35937-4.15234Zm0 0"/><use xlink:href="#j" x="31.22115" y="164.84784" fill="#007f7f"/><use xlink:href="#j" x="67.96666" y="109.72907" fill="#007f7f"/><use xlink:href="#j" x="104.71317" y="100.54294" fill="#007f7f"/><use xlink:href="#j" x="141.45967" y="96.86809" fill="#007f7f"/><use xlink:href="#j" x="178.20518" y="82.16969" fill="#007f7f"/><use xlink:href="#j" x="214.95169" y="54.61031" fill="#007f7f"/><use xlink:href="#j" x="251.6982" y="36.23705" fill="#007f7f"/><path fill="none" stroke="#007f7f" stroke-miterlimit="10" stroke-width=".7946" d="m35.58594 161.83204 36.74609-55.12109 36.74609-9.1875 36.74609-3.67187 36.74609-14.69922 36.74609-27.5586 36.75-18.37499"/><use xlink:href="#k" x="16.95643" y="9.11933"/><use xlink:href="#l" x="20.11347" y="9.11933"/><use xlink:href="#m" x="23.28343" y="9.11933"/><use xlink:href="#n" x="25.04595" y="9.11933"/><use xlink:href="#n" x="26.73746" y="9.11933"/><use xlink:href="#o" x="28.42897" y="9.11933"/><use xlink:href="#p" x="32.90952" y="9.11933"/><use xlink:href="#o" x="35.14334" y="9.11933"/><use xlink:href="#q" x="38.26165" y="9.11933"/><use xlink:href="#r" x="43.36845" y="9.11933"/><use xlink:href="#s" x="46.377" y="9.11933"/><use xlink:href="#t" x="51.97446" y="9.11933"/><use xlink:href="#u" x="278.95051" y="255.62242"/><use xlink:href="#v" x="282.79837" y="255.62242"/><use xlink:href="#o" x="285.94896" y="255.62242"/><use xlink:href="#p" x="290.42951" y="255.62242"/><use xlink:href="#o" x="292.66333" y="255.62242"/><use xlink:href="#q" x="295.78164" y="255.62242"/><use xlink:href="#l" x="300.89489" y="255.62242"/><use xlink:href="#q" x="304.06485" y="255.62242"/><use xlink:href="#q" x="307.81586" y="255.62242"/><use xlink:href="#w" x="311.56687" y="255.62242"/><use xlink:href="#o" x="314.68518" y="255.62242"/><use xlink:href="#t" x="317.80349" y="255.62242"/></svg>