<svg xmlns="http://www.w3.org/2000/svg" xmlns:xlink="http://www.w3.org/1999/xlink" width="199.625pt" height="161.429pt" viewBox="0 0 199.625 161.429"><defs><path id="a" d="M-.20312-7.73437c.65625.03125.78125.0625 1.01562.6875.375.98437.8125 2.14062 1.21875 3.3125L3.34375 0h.84375l1.48438-4.01562C6.15625-5.3125 6.60938-6.5 6.89063-7.125c.25-.54687.375-.5625 1.01562-.60937v-.32813H5.32813v.32813l.64062.0625c.29688.01562.32813.14062.26563.35937-.125.51563-.48438 1.54688-.90625 2.70313L4.10938-1.26562l-.03125-.01563-1.07813-3C2.64063-5.29687 2.26563-6.32812 1.96875-7.25c-.09375-.3125-.0625-.40625.23438-.42187l.59375-.0625v-.32813h-3Zm0 0"/><path id="b" d="M.57813-2.8125c0 1.84375.78125 2.95313 2.6875 2.95313 1.28125 0 1.95312-.71875 2.26562-1.64063l-.34375-.1875C4.85938-1 4.42188-.45312 3.5-.45312c-1.45312 0-1.73437-1.39063-1.71875-2.60938h3.375c.23438 0 .45313-.0625.45313-.45312 0-.67188-.21875-2.34375-2.35938-2.34375-1.82812 0-2.67187 1.29687-2.67187 3.04687m1.21875-.70312c0-.48438.17187-1.9375 1.39062-1.9375 1.07813 0 1.20313 1.10937 1.20313 1.5625 0 .23437-.07813.375-.39063.375Zm0 0"/><path id="c" d="M.375 0h3.07813v-.32812c-1.04688-.0625-1.10938-.09375-1.10938-.6875V-3.75c0-.89062.39063-1.20312.67188-1.20312.1875 0 .39062.07812.71875.26562.09375.04688.17187.0625.23437.0625.28125 0 .53125-.29687.53125-.65625 0-.26562-.15625-.57812-.60937-.57812-.42188 0-.78125.25-1.54688.9375l-.14062-.9375L.4375-5.5625v.29688l.4375.0625c.29688.04687.375.09375.375.51562v3.67188c0 .59375-.0625.625-.875.6875Zm0 0"/><path id="d" d="M.35938-5.25h.84375v4.0625C1.20313 0 2.07813.14063 2.5.14063c.59375 0 1.14063-.29688 1.48438-.51563l-.09375-.25c-.28125.10938-.53125.15625-.82813.15625-.39062 0-.76562-.28125-.76562-1.17187V-5.25h1.5v-.46875h-1.5V-7.1875h-.34375L1.25-5.71875H.35938Zm0 0"/><path id="e" d="M.40625 0h3.07813v-.32812c-.48438-.0625-.75-.0625-.84375-.1875-.03125-.0625-.01563-.0625-.01563-.5625v-2.71875h.78125c.70313 0 1.25.21875 1.4375 1C4.9375-2.46875 5.0625-1.53125 5.1875-1c.17188.73438.625 1 1.3125 1h.9375v-.32812c-.90625-.10938-1.09375-.75-1.20312-1.54688-.125-1.04687-.34375-1.82812-1.57813-2.125v-.01562c1.09375-.21875 1.89063-.95313 1.89063-2.0625 0-1.125-.70313-1.98438-2.73438-1.98438H.40625v.32813c1.03125.07812 1.0625.09375 1.0625.75v5.90625c0 .65625-.03125.67187-1.0625.75ZM2.625-4.20312v-2.875c0-.48438.0625-.59375.84375-.59375.85938 0 1.84375.32812 1.84375 1.70312 0 1.23438-.64062 1.76563-1.78125 1.76563Zm0 0"/><path id="f" d="M.57813-2.85937c0 1.89062.92187 3 2.79687 3s2.79688-1.10938 2.79688-3c0-1.875-.92188-3-2.79688-3s-2.79687 1.125-2.79687 3m1.20312 0c0-1.60938.53125-2.59375 1.59375-2.59375s1.59375.98437 1.59375 2.59375c0 1.625-.53125 2.59375-1.59375 2.59375s-1.59375-.96875-1.59375-2.59375m0 0"/><path id="g" d="m.54688-1.95312.125 1.53125c.42187.375 1.125.5625 1.8125.5625 1.39062 0 2.1875-.73438 2.1875-1.73438 0-1.03125-.64063-1.48437-1.84375-1.85937C2.34375-3.59375 1.59375-3.84375 1.59375-4.5c0-.60937.45313-.95312 1.03125-.95312.84375 0 1.23438.65625 1.3125 1.35937h.34375v-1.35937c-.39062-.29688-.98437-.40625-1.5-.40625-1.26562 0-2.125.59375-2.125 1.70312 0 .96875.79688 1.40625 1.76563 1.70313.51562.15625 1.25.42187 1.25 1.21875 0 .59375-.45313.96875-1.07813.96875-.9375 0-1.48437-.6875-1.71875-1.6875Zm0 0"/><path id="h" d="M.40625 0h3.60938C5.79688 0 6.9375-.625 6.9375-2.26562c0-1.375-.98437-1.98438-2.10937-2.125v-.03125c1.09375-.21875 1.73437-.90625 1.73437-1.79688 0-.64062-.25-1.125-.71875-1.4375-.45312-.29687-1.125-.40625-2.0625-.40625h-3.375v.32813c1.03125.07812 1.0625.09375 1.0625.75v5.90625c0 .65625-.03125.67187-1.0625.75ZM2.625-1.29687v-2.84375h.82813c1.45312 0 2.23437.71875 2.23437 1.95312 0 1.40625-.95312 1.78125-1.95312 1.78125-.9375 0-1.10938-.17187-1.10938-.89062m0-3.25v-2.53125c0-.5.03125-.59375.9375-.59375.85938 0 1.78125.32812 1.78125 1.53125 0 1.14062-.73437 1.59375-1.9375 1.59375Zm0 0"/><path id="i" d="M.23438 0h2.84375v-.32812c-.82813-.0625-.875-.09375-.875-.6875v-7.5625l-.07813-.0625-1.82812.28125v.29687l.4375.03125c.29687.04688.375.10938.375.54688v6.46875c0 .59375-.03126.625-.875.6875Zm0 0"/><path id="j" d="m.29688-5.26562.45312.0625c.29688.04687.35938.09375.35938.51562v3.07813c0 1.34375.79687 1.75 1.67187 1.75.98438 0 1.79688-.67188 2.125-.82813l.125.6875h1.85938v-.32812c-.79688-.0625-.875-.09375-.875-.6875v-4.76563l-.07813-.07812-1.82812.29687v.29688l.4375.0625c.29687.04687.375.09375.375.51562v2.625c0 .32813-.03125.59375-.09375.70313-.28125.53125-.82813.875-1.42188.875-.6875 0-1.1875-.4375-1.1875-1.34375v-3.95313l-.07812-.07812-1.84375.29687Zm0 0"/><path id="k" d="M.46875-1.1875c0 .53125.82813 1.32813 2.32813 1.32813 1.9375 0 2.79687-1.17188 2.79687-2.64063 0-1.64062-1.01562-2.46875-2.40625-2.46875-.64062 0-1.34375.26563-1.71875.60938V-4.375l.25-2.1875c.04688-.29687.125-.32812.34375-.32812h2.90625L5.25-7.6875l-.0625-.10937H1.29688l-.125.125L.9375-3.78125l.29688.14063c.48437-.54688.95312-.82813 1.57812-.82813.75 0 1.5625.54688 1.5625 2.09375 0 1.20313-.48437 2.10938-1.5 2.10938-.8125 0-1.21875-.59375-1.45312-1.26563-.0625-.17187-.1875-.28125-.34375-.28125-.23438 0-.60938.23438-.60938.625m0 0"/><path id="l" d="M1.26563 0h3.82812v-.32812L4.125-.42187C3.875-.45312 3.73438-.53125 3.73438-1v-6.85937l-.0625-.0625-2.40625.40625v.28125l1.09375.14062c.20312.01563.26562.10938.26562.4375V-1c0 .23438-.01562.375-.09375.45313-.0625.09374-.15625.10937-.28125.125l-.98437.09375Zm0 0"/><path id="m" d="M.48438-3.89062c0 2.32812.6875 4.03125 2.60937 4.03125S5.70313-1.5625 5.70313-3.89062c0-2.34375-.6875-4.03125-2.60938-4.03125S.48438-6.23437.48438-3.89062m1.17187 0c0-1.90625.32813-3.625 1.4375-3.625 1.09375 0 1.42188 1.71875 1.42188 3.625 0 1.89062-.32813 3.625-1.42188 3.625-1.10937 0-1.4375-1.73438-1.4375-3.625m0 0"/><path id="n" d="M.28125-1.98437c0 .67187.20313 1.23437.54688 1.57812.35937.35938.9375.5 1.59375.5.46875 0 1-.14062 1.28125-.28125l.07812-.98437h-.17187C3.45313-.5625 3.14063-.125 2.375-.125 1.17188-.125.9375-1.29687.9375-2c0-.95312.375-1.92187 1.45313-1.92187.59375 0 1.01562.25 1.125.9375h.17187v-.90625c-.25-.125-.70312-.23438-1.23437-.23438-.71875 0-1.29688.20313-1.64063.60938-.32812.35937-.53125.85937-.53125 1.53125m0 0"/><path id="o" d="M.28125-1.42187C.28125-.48437.75.0625 1.6875.0625s1.39063-.54687 1.39063-1.48437c0-.95313-.45313-1.5-1.39063-1.5s-1.40625.54687-1.40625 1.5m.60938 0c0-.8125.26562-1.29688.79687-1.29688s.79688.48438.79688 1.29688c0 .79687-.26563 1.28125-.79688 1.28125S.89063-.625.89063-1.42187m0 0"/><path id="p" d="m.15625-2.64062.21875.03125c.14063.03125.1875.04687.1875.26562V-.8125c0 .67188.39063.875.82813.875.5 0 .89062-.32812 1.0625-.40625L2.51563 0h.9375v-.17187c-.40625-.03126-.4375-.03126-.4375-.34375v-2.375l-.04688-.03125-.92187.14062v.14063l.23437.03125c.14063.03125.1875.04687.1875.26562v1.3125c0 .15625-.03125.29688-.0625.34375-.125.26563-.40625.45313-.70312.45313-.34375 0-.59375-.21875-.59375-.67188v-1.98437l-.04688-.03125-.90625.14062Zm0 0"/><path id="q" d="M.125 0h1.40625v-.17187c-.40625-.03126-.42187-.03126-.42187-.34375v-3.78125l-.04688-.03125-.90625.14062v.15625l.20313.01563c.15625.01562.1875.04687.1875.28125v3.21875c0 .3125 0 .3125-.42188.34375Zm0 0"/><path id="r" d="M.28125-1.40625C.28125-.48437.6875.0625 1.625.0625c.65625 0 .98438-.35937 1.14063-.8125l-.17188-.09375C2.4375-.5 2.20313-.23437 1.75-.23437c-.71875 0-.875-.6875-.85937-1.29688h1.6875c.125 0 .21875-.03125.21875-.21875 0-.34375-.10938-1.17187-1.17188-1.17187-.90625 0-1.34375.64062-1.34375 1.51562m.625-.34375c0-.25.07813-.96875.6875-.96875.54688 0 .60938.54688.60938.78125 0 .10938-.04688.1875-.20313.1875Zm0 0"/><path id="s" d="M.1875 0h1.53125v-.17187c-.51562-.03126-.54687-.03126-.54687-.34375V-1.875c0-.4375.20312-.59375.32812-.59375.09375 0 .20313.03125.35938.125.04687.03125.09374.03125.125.03125.14062 0 .26562-.15625.26562-.32812 0-.125-.07812-.28125-.3125-.28125-.20312 0-.375.125-.76562.45312l-.0625-.45312-.89063.14062v.14063l.21875.03125c.14063.03125.1875.04687.1875.26562v1.82813c0 .3125-.03125.3125-.4375.34375Zm0 0"/><path id="t" d="M.20313 0h1.39062v-.17187c-.39062-.03126-.53125-.04688-.5625-.28126C1-.65624 1-.875 1-1.1875v-2.32812C1.84375-2.34375 2.65625-1.17187 3.48438 0H3.875v-2.85937c0-.29688.01563-.51563.04688-.71875.03125-.23438.17187-.26563.46875-.28125v-.17188h-1.375v.17188c.375.03125.5.04687.54687.28125.03125.20312.04688.42187.04688.71875V-.8125h-.01563C2.82813-1.89062 2.0625-2.95312 1.3125-4.03125H.20313v.17188c.51562.03125.51562.03125.51562.35937v2.3125c0 .3125 0 .53125-.03125.73438-.04687.23437-.17187.26562-.48437.28125Zm0 0"/><path id="u" d="M.1875 0h1.42188v-.17187c-.42188-.03126-.4375-.03126-.4375-.34375V-1.875c0-.14062 0-.23437.04687-.3125.10938-.23437.35938-.42187.6875-.42187.5 0 .5625.35937.5625.71875v1.375c0 .3125-.01562.3125-.4375.34375V0h1.42188v-.17187c-.42188-.03126-.4375-.03126-.4375-.34375V-1.875c0-.14062 0-.21875.04687-.3125.07813-.23437.32813-.42187.65625-.42187.375 0 .59375.20312.59375.71875v1.375c0 .3125-.01562.3125-.4375.34375V0h1.42188v-.17187c-.42188-.03126-.4375-.03126-.4375-.34375V-2c0-.59375-.3125-.92187-.875-.92187-.46875 0-.8125.3125-1.01563.4375-.14062-.26563-.375-.4375-.78125-.4375-.4375 0-.8125.29687-1.01562.4375l-.0625-.4375-.89063.14062v.14063l.21875.03125c.14063.03125.1875.04687.1875.26562v1.82813c0 .3125-.01562.3125-.4375.34375Zm0 0"/><path id="v" d="m.125-4.03125.21875.01563c.14063.01562.1875.04687.1875.28125V.03125L.625.0625l.23438-.21875c.20312.125.45312.21875.89062.21875.78125 0 1.45313-.35937 1.45313-1.5625 0-.35937-.07813-1.42187-1.125-1.42187-.4375 0-.78125.28125-1 .40625v-1.78125l-.04688-.03125L.125-4.1875Zm.95313 3.07813V-1.875c0-.14062 0-.23437.04687-.32812.14063-.28125.39063-.40625.71875-.40625.23438 0 .75.14062.75 1.15625 0 .84375-.26562 1.3125-.84375 1.3125-.29687 0-.53125-.15625-.64062-.4375-.03126-.10938-.03126-.23438-.03126-.375m0 0"/><path id="w" d="M.28125-1.375C.28125-.51562.73438.0625 1.5.0625c.32813 0 .59375-.14062.90625-.39062v.28125L2.45313 0h.95312v-.17187c-.42187-.03126-.4375-.03126-.4375-.34375v-3.78125l-.04687-.03125L2-4.1875v.15625l.23438.01563c.14062.01562.17187.04687.17187.28125v.95312c-.15625-.09375-.375-.14062-.64062-.14062-.46875 0-.82813.15625-1.07813.39062-.25.26563-.40625.65625-.40625 1.15625m.60938-.0625c0-.76562.28124-1.28125.875-1.28125.26562 0 .5.125.59375.35938.04687.09375.04687.1875.04687.34375V-1c0 .14063 0 .23438-.03125.34375-.10937.29688-.375.42188-.67187.42188-.53125 0-.8125-.53125-.8125-1.20313m0 0"/><path id="x" d="M.42188-2.84375.51563-2.75c.29687-.26562.6875-.65625.6875-1.07812 0-.3125-.1875-.5-.375-.5-.17188 0-.28126.125-.28126.28125 0 .21875.1875.32812.1875.54687s-.125.4375-.3125.65625m0 0"/><path id="y" d="m1.17188-3.28125.09374.125.875-.48437c.17188-.09375.32813-.20313.32813-.32813 0-.10937-.14062-.25-.23437-.25s-.1875.0625-.375.25Zm-.89063 1.875C.28125-.48437.6875.0625 1.625.0625c.65625 0 .98438-.35937 1.14063-.8125l-.17188-.09375C2.4375-.5 2.20313-.23437 1.75-.23437c-.71875 0-.875-.6875-.85937-1.29688h1.6875c.125 0 .21875-.03125.21875-.21875 0-.34375-.10938-1.17187-1.17188-1.17187-.90625 0-1.34375.64062-1.34375 1.51562m.625-.34375c0-.25.07813-.96875.6875-.96875.54688 0 .60938.54688.60938.78125 0 .10938-.04688.1875-.20313.1875Zm0 0"/><path id="z" d="M.70313-3.96875c0 .125.15624.23438.32812.32813l.875.48437L2-3.28125l-.6875-.6875c-.17187-.1875-.28125-.25-.375-.25s-.23437.14063-.23437.25m-.42188 2.5625C.28125-.48437.6875.0625 1.625.0625c.65625 0 .98438-.35937 1.14063-.8125l-.17188-.09375C2.4375-.5 2.20313-.23437 1.75-.23437c-.71875 0-.875-.6875-.85937-1.29688h1.6875c.125 0 .21875-.03125.21875-.21875 0-.34375-.10938-1.17187-1.17188-1.17187-.90625 0-1.34375.64062-1.34375 1.51562m.625-.34375c0-.25.07813-.96875.6875-.96875.54688 0 .60938.54688.60938.78125 0 .10938-.04688.1875-.20313.1875Zm0 0"/><path id="A" d="M0-2.6875c.28125.03125.32813.04688.42188.26563.15625.375.28125.76562.4375 1.15625L1.3125 0h.40625L2.25-1.40625c.15625-.45312.34375-.84375.42188-1.03125.07812-.20312.14062-.23437.40625-.25v-.17187H1.98438v.17187l.28124.03125c.09375 0 .10938.07813.07813.15625-.04687.1875-.14062.53125-.28125.90625l-.39062 1.0625h-.01563L1.29688-1.5c-.10938-.34375-.23438-.67187-.34375-.98437-.04688-.10938-.01563-.17188.09374-.17188l.26563-.03125v-.17187H0Zm0 0"/><path id="B" d="m.26563-.96875.0625.76563c.21875.17187.57812.26562.90625.26562.70312 0 1.09375-.35937 1.09375-.85937 0-.51563-.3125-.73438-.90625-.92188-.25-.07812-.625-.20312-.625-.53125 0-.3125.23437-.46875.51562-.46875.42188 0 .60938.3125.65625.67188h.17188v-.6875c-.1875-.14063-.48438-.1875-.75-.1875-.64063 0-1.0625.29687-1.0625.84375 0 .48437.39062.70312.875.84375.26562.09374.64062.21874.64062.60937 0 .29688-.23437.48438-.54687.48438-.46875 0-.73438-.34375-.85938-.82813Zm0 0"/></defs><path fill="none" stroke="#000" stroke-miterlimit="10" stroke-width=".39709" d="M28.10547 136.49219H169.3398m-141.23433 0V17.4805"/><path stroke="#000" stroke-miterlimit="10" stroke-width=".39709" d="M28.10547 13.65234c-.125.47266-.83984 2.53516-1.6211 3.82813h3.2422c-.77735-1.29297-1.4961-3.35547-1.6211-3.82813Zm0 0"/><path fill="none" stroke="#000" stroke-miterlimit="10" stroke-opacity=".5" stroke-width=".39709" d="M63.41405 129.42969v14.125m35.30858-14.125v14.125m35.30859-14.125v14.125"/><use xlink:href="#a" x="52.81673" y="156.00419"/><use xlink:href="#b" x="59.38131" y="156.00419"/><use xlink:href="#c" x="65.37505" y="156.00419"/><use xlink:href="#d" x="70.00376" y="156.00419"/><use xlink:href="#e" x="86.18969" y="156.00419"/><use xlink:href="#f" x="93.4616" y="156.00419"/><use xlink:href="#g" x="100.1875" y="156.00419"/><use xlink:href="#b" x="105.26294" y="156.00419"/><use xlink:href="#h" x="122.18038" y="156.58713"/><use xlink:href="#i" x="129.57639" y="156.58713"/><use xlink:href="#b" x="132.82765" y="156.58713"/><use xlink:href="#j" x="138.82139" y="156.58713"/><path fill="none" stroke="#000" stroke-miterlimit="10" stroke-opacity=".5" stroke-width=".39709" d="M35.16797 101.1836h-14.125"/><use xlink:href="#k" x="10.48048" y="105.01255"/><path fill="none" stroke="#000" stroke-miterlimit="10" stroke-opacity=".5" stroke-width=".39709" d="M35.16797 65.87502h-14.125"/><use xlink:href="#l" x="4.30134" y="69.7722"/><use xlink:href="#m" x="10.48122" y="69.7722"/><path fill="none" stroke="#000" stroke-miterlimit="10" stroke-opacity=".5" stroke-width=".39709" d="M35.16797 30.56644h-14.125"/><use xlink:href="#l" x="4.30134" y="34.4641"/><use xlink:href="#k" x="10.48122" y="34.4641"/><use xlink:href="#n" x="173.72406" y="138.61171"/><use xlink:href="#o" x="177.63923" y="138.61171"/><use xlink:href="#p" x="181.00218" y="138.61171"/><use xlink:href="#q" x="184.53266" y="138.61171"/><use xlink:href="#r" x="186.15829" y="138.61171"/><use xlink:href="#p" x="189.15516" y="138.61171"/><use xlink:href="#s" x="192.68563" y="138.61171"/><use xlink:href="#t" x="6.06709" y="8.46107"/><use xlink:href="#o" x="10.44761" y="8.46107"/><use xlink:href="#u" x="13.81056" y="8.46107"/><use xlink:href="#v" x="19.19004" y="8.46107"/><use xlink:href="#s" x="22.67708" y="8.46107"/><use xlink:href="#r" x="24.82391" y="8.46107"/><use xlink:href="#w" x="29.12377" y="8.46107"/><use xlink:href="#x" x="32.47431" y="8.46107"/><use xlink:href="#y" x="34.09374" y="8.46107"/><use xlink:href="#q" x="37.09061" y="8.46107"/><use xlink:href="#z" x="38.71624" y="8.46107"/><use xlink:href="#A" x="41.71311" y="8.46107"/><use xlink:href="#r" x="44.61691" y="8.46107"/><use xlink:href="#B" x="47.61378" y="8.46107"/><path fill="#7FBFBF" stroke="#000" stroke-miterlimit="10" stroke-width=".39709" d="M45.76171 136.49219V80.00002H81.0703v56.49217Zm0 0"/><path fill="#F57FC5" stroke="#000" stroke-miterlimit="10" stroke-width=".39709" d="M81.0703 136.49219V108.2461h35.30858v28.24609Zm0 0"/><path fill="#7FD6F7" stroke="#000" stroke-miterlimit="10" stroke-width=".39709" d="M116.37888 136.49219V51.75003h35.30858v84.74216Zm0 0"/></svg>