<svg xmlns="http://www.w3.org/2000/svg" xmlns:xlink="http://www.w3.org/1999/xlink" width="389.797pt" height="328.132pt" viewBox="0 0 389.797 328.132"><defs><path id="a" d="M1.82813 0h5.53125v-.48437l-1.42188-.125c-.35937-.03126-.54687-.15626-.54687-.82813v-9.90625l-.09375-.09375-3.46875.59375v.40625l1.57812.20313c.28125.03125.39063.15625.39063.64062v8.15625c0 .67188-.17188.79688-.5625.82813l-1.40625.125Zm0 0"/><path id="b" d="M.45313-.15625.625 0h6.95313l.57812-2.21875-.46875-.09375C7.32813-1.39062 7-1.26562 6.3125-1.26562H2.01563c.28125-.875 1.28125-2.07813 2.82812-3.20313 1.60938-1.1875 2.85938-1.9375 2.85938-3.8125 0-2.34375-1.54688-3.15625-3.3125-3.15625-2.3125 0-3.5 1.40625-3.5 2.28125 0 .5625.64062.84375.9375.84375.29687 0 .40625-.1875.48437-.46875.26563-1.14062.92188-2.0625 1.96875-2.0625 1.28125 0 1.65625 1.07813 1.65625 2.3125 0 1.79688-.90625 2.82813-2.375 4.10938C1.48438-2.60937.76563-1.46875.45313-.15625m0 0"/><path id="c" d="M.45313-1.71875C.45313-1 1.60938.20313 3.98438.20313c2.4375 0 3.98437-1.23438 3.98437-3.39063 0-2.25-1.9375-2.90625-2.875-3v-.07812c.92188-.14063 2.35938-.8125 2.35938-2.48438 0-1.85937-1.4375-2.6875-3.25-2.6875-2.21875 0-3.3125 1.29688-3.3125 2.01563 0 .51562.59375.79687.82812.79687.21875 0 .34375-.125.40625-.34375.375-1.14062 1-1.875 1.95313-1.875 1.32812 0 1.67187 1.17188 1.67187 2.10938 0 1-.35937 2.28125-1.79687 2.28125-.79688 0-1.26563-.17188-1.46875-.17188-.21875 0-.29688.17188-.29688.46875 0 .28125.07813.46875.29688.46875.20312 0 .67187-.15625 1.46875-.15625 1.4375 0 2.23437 1.28125 2.23437 2.75 0 2-.98437 2.70313-2.1875 2.70313-1.10937 0-1.82812-.82813-2.15625-1.78125-.10937-.3125-.26562-.46875-.5-.46875-.3125 0-.89062.3125-.89062.92187m0 0"/><path id="d" d="M.32813-3.35937.46875-3h4.57813v1.71875c0 .5625-.1875.65625-.59375.6875L3.375-.48437V0h4.4375v-.48437l-.75-.09375c-.39062-.04688-.5-.14063-.5-.70313V-3h1.71875v-.79687H6.5625v-7.4375H5.32813C3.75-8.90625 1.85938-6 .32813-3.35937m1.20312-.4375C2.54688-5.625 3.75-7.5625 5.04688-9.60937v5.8125Zm0 0"/><path id="e" d="M.6875-1.71875c0 .76563 1.17188 1.92188 3.35938 1.92188 2.76562 0 4.01562-1.6875 4.01562-3.8125 0-2.35938-1.45312-3.5625-3.46875-3.5625-.92187 0-1.95312.40625-2.48437.89062l.375-3.1875c.0625-.42187.15625-.48437.48437-.48437h4.1875l.40625-1.14063-.07812-.14062h-5.625l-.15626.15625-.34374 5.625.40625.21875c.70312-.8125 1.39062-1.20313 2.29687-1.20313 1.07813 0 2.25.78125 2.25 3 0 1.73438-.6875 3.04688-2.15625 3.04688-1.1875 0-1.78125-.84375-2.10937-1.8125-.09375-.25-.25-.40625-.48438-.40625-.34375 0-.875.34375-.875.89062m0 0"/><path id="f" d="M.73438-5.1875c0 3.625 1.32812 5.39063 3.84375 5.39063 2.48437 0 3.8125-1.51563 3.8125-3.79688S7-7.10937 5.1875-7.10937c-1.32812 0-2.3125.90625-2.75 1.45312.01563-3.70312 1.03125-5.1875 2.54688-5.1875.78125 0 1.32812.64063 1.57812 1.60938.0625.20312.1875.35937.4375.35937.375 0 .89063-.29687.89063-.76562 0-.6875-.82813-1.79688-2.84375-1.79688-2.67188 0-4.3125 2.0625-4.3125 6.25M2.4375-3.96875c0-1.01562.76563-2.28125 2.17188-2.28125 1.0625 0 2.09375.96875 2.09375 2.90625 0 1.76563-.67188 2.95313-2.09375 2.95313-1.45313 0-2.17188-1.5625-2.17188-3.57813m0 0"/><path id="g" d="M.70313-5.625c0 3.375.98437 5.82813 3.75 5.82813C7.23438.20313 8.23438-2.25 8.23438-5.625c0-3.35937-1-5.8125-3.78125-5.8125-2.76563 0-3.75 2.45313-3.75 5.8125m1.6875 0c0-2.73437.46875-5.21875 2.0625-5.21875s2.0625 2.48438 2.0625 5.21875c0 2.75-.46875 5.23438-2.0625 5.23438S2.39063-2.875 2.39063-5.625m0 0"/><path id="h" d="M.70313-3.0625c0 1.70313 1.03125 3.26563 3.75 3.26563s3.76562-1.5625 3.76562-3.26563c0-1.71875-1.07812-2.71875-2.21875-2.98437C7.01563-6.3125 7.84375-7.1875 7.84375-8.5625c0-1.82812-1.45312-2.875-3.39062-2.875s-3.375 1.04688-3.375 2.875c0 1.375.85937 2.25 1.85937 2.51563C1.8125-5.78125.70313-4.78125.70313-3.0625M2.375-3c0-1.54687.73438-2.6875 2.07813-2.6875S6.53125-4.54687 6.53125-3c0 1.48438-.65625 2.60938-2.07812 2.60938C3.04688-.39062 2.375-1.51562 2.375-3m.32813-5.60937c0-1.28125.60937-2.23438 1.75-2.23438 1.14062 0 1.75.95313 1.75 2.23438 0 1.15625-.53125 2.3125-1.75 2.3125s-1.75-1.15625-1.75-2.3125m0 0"/><path id="i" d="M.20313-4.90625h.28124c.10938-1.01562.3125-1.23437 1.40626-1.23437h.54687v5.28125c0 .51562-.01562.53125-1.03125.59375V0h2.98438v-.26562c-1-.0625-1.03125-.07813-1.03125-.59375v-5.28125h.5625c1.09375 0 1.28125.21875 1.39062 1.23437h.28125v-1.54687H.20313Zm0 0"/><path id="j" d="M.45313-1.21875c0 .70313.46875 1.32813 1.34375 1.32813.54687 0 1.09375-.35938 1.39062-.5625.125.35937.29688.5625.625.5625.34375 0 .73438-.09375 1.09375-.28126l-.0625-.21874c-.125.03125-.32812.04687-.46875 0-.17187-.03125-.32812-.20313-.32812-.79688v-2.26562c0-.54688-.125-1.23438-1.53125-1.23438C1.45313-4.6875.625-4.14062.625-3.625c0 .29688.34375.4375.53125.4375s.25-.10937.29688-.26562c.20312-.6875.57812-.90625.96875-.90625.35937 0 .78125.1875.78125.9375v.375c-.23438.25-1.14063.48437-1.875.71875-.6875.21875-.875.67187-.875 1.10937m.95312-.125c0-.4375.1875-.65625.71875-.85937.375-.14063.85938-.32813 1.07813-.45313v1.32813c0 .75-.57813.9375-.95313.9375-.57812 0-.84375-.40625-.84375-.95313m0 0"/><path id="k" d="M.85938-6.10937c0 .32812.23437.57812.57812.57812.32813 0 .5625-.25.5625-.57812 0-.34375-.23437-.5625-.5625-.5625-.34375 0-.57812.21875-.57812.5625M.29688 0h2.28125v-.26562C1.90625-.3125 1.875-.34375 1.875-.8125V-4.625l-.0625-.0625-1.46875.23438v.23437l.35938.04688C.9375-4.14062 1-4.09375 1-3.75v2.9375c0 .46875-.03125.5-.70312.54688Zm0 0"/><path id="l" d="M.1875 0h2.28125v-.26562c-.67187-.04688-.70312-.07813-.70312-.54688V-6.875l-.0625-.04687-1.46875.21875v.25l.35937.03125c.23438.01562.29688.07812.29688.42187v5.1875c0 .46875-.03126.5-.70313.54688Zm0 0"/><path id="m" d="M.45313-2.25c0 1.46875.64062 2.35938 2.15625 2.35938 1.03125 0 1.57812-.57813 1.82812-1.3125l-.28125-.14063c-.26562.53125-.625.96875-1.35937.96875-1.15625 0-1.39063-1.10937-1.35938-2.07812H4.125c.20313 0 .35938-.04688.35938-.35938 0-.54687-.17188-1.875-1.875-1.875C1.14063-4.6875.45313-3.65625.45313-2.25m.98437-.5625c0-.39062.14063-1.54687 1.10938-1.54687.875 0 .96875.875.96875 1.25 0 .17187-.0625.29687-.3125.29687Zm0 0"/><path id="n" d="M.5625-2.76562c0 2.09375.51563 4.54687 2.5 4.64062v-.28125C2.39063 1.45313 1.34375.5 1.34375-2.76562c0-3.25 1-4.21875 1.71875-4.375v-.26563c-1.98437.07813-2.5 2.53125-2.5 4.64063m0 0"/><path id="o" d="M.29688 0h2.28125v-.26562C1.90625-.3125 1.875-.34375 1.875-.8125V-3c0-.23437.01563-.35937.09375-.51562.20313-.35938.60938-.67188 1.10938-.67188.64062 0 .98437.35938.98437 1.17188V-.8125c0 .46875-.03125.5-.70312.54688V0h2.28125v-.26562C4.98438-.3125 4.9375-.34375 4.9375-.8125v-2.39062c0-.9375-.51562-1.48438-1.375-1.48438-.6875 0-1.125.32813-1.6875.71875l-.14062-.71875-1.39063.23438v.23437l.35938.04688C.9375-4.14062 1-4.09375 1-3.75v2.9375c0 .46875-.03125.5-.70312.54688Zm0 0"/><path id="p" d="M.45313-2.25c0 1.5625.76562 2.35938 2.17187 2.35938.65625 0 1.53125-.34375 1.79688-1.34375l-.28125-.125c-.28125.65625-.65625.98437-1.34375.98437-1.10938 0-1.35938-1.17187-1.35938-2.04687 0-1.39063.54688-1.9375 1.1875-1.9375.42188 0 .6875.3125.89063.8125.04687.14062.10937.23437.29687.23437s.54688-.10937.54688-.46875c0-.4375-.625-.90625-1.64063-.90625-1.6875 0-2.26562 1.20313-2.26562 2.4375m0 0"/><path id="q" d="M.29688 0h2.28125v-.26562C1.90625-.3125 1.875-.34375 1.875-.8125V-3c0-.23437 0-.375.07813-.5.17187-.375.57812-.6875 1.09375-.6875.8125 0 .90625.59375.90625 1.17188V-.8125c0 .46875-.03125.5-.70313.54688V0h2.28125v-.26562c-.67187-.04688-.70312-.07813-.70312-.54688V-3c0-.23437.01562-.35937.07812-.51562.125-.375.53125-.67188 1.0625-.67188.57813 0 .9375.32813.9375 1.17188V-.8125c0 .46875-.03125.5-.70312.54688V0h2.28125v-.26562c-.65625-.04688-.70313-.07813-.70313-.54688v-2.39062c0-.9375-.5-1.48438-1.39062-1.48438-.76563 0-1.3125.5-1.64063.71875-.23437-.4375-.59375-.71875-1.23437-.71875-.71875 0-1.3125.46875-1.64063.71875l-.09375-.71875-1.4375.23438v.23437l.35938.04688C.9375-4.14062 1-4.09375 1-3.75v2.9375c0 .46875-.03125.5-.70312.54688Zm0 0"/><path id="r" d="M2.875-2.76562c0-2.10938-.51562-4.5625-2.5-4.64063v.26563c.71875.15625 1.71875 1.125 1.71875 4.375C2.09375.5 1.04688 1.45313.375 1.59375V1.875c1.98438-.09375 2.5-2.54687 2.5-4.64062m0 0"/><path id="s" d="m1.54688-6.89062.10937.1875 1-.5625c.125-.0625.23438-.125.3125-.125.07813 0 .1875.0625.3125.125l1 .5625.125-.1875-1.09375-1.0625c-.10937-.10938-.23437-.21875-.34375-.21875-.10937 0-.21875.09375-.34375.21875ZM-.26562 0h2.04687v-.26562L1.29688-.3125c-.26563-.03125-.3125-.14062-.23438-.39062.15625-.54688.34375-1.125.5625-1.79688h2.10938l.625 1.79688c.07812.26562.04687.35937-.25.39062l-.4375.04688V0h2.40625v-.26562C5.53125-.3125 5.42188-.34375 5.25-.82812l-1.96875-5.625h-.70312l-.96875 2.75C1.32812-2.875.92188-1.76562.59375-.92187c-.20312.51562-.28125.625-.85937.65625Zm2.03125-2.85937c.29687-.92188.625-1.84375.89062-2.67188h.03125l.9375 2.67188Zm0 0"/><path id="t" d="M.39063.89063c0 .95312.9375 1.35937 2.03125 1.35937.54687 0 1.14062-.10937 1.57812-.375.4375-.25.75-.70312.75-1.28125 0-1.01562-.8125-1.35937-1.8125-1.35937h-.73437c-.6875 0-.78125-.23438-.78125-.40625 0-.26563.35937-.42188.46875-.45313.1875.01563.39062.03125.48437.03125.89063 0 1.89063-.39062 1.89063-1.53125 0-.39062-.125-.70312-.29688-.875l.75-.10937.1875-.59375-.07812-.07813-1.1875.375c-.26563-.17187-.78125-.28125-1.21875-.28125C1-4.6875.5-3.8125.5-3.125c0 .875.57813 1.28125 1 1.39063v.03124C1-1.51562.64063-1.25.64063-.875c0 .32813.39062.67188.82812.71875V-.125C1.07813 0 .39063.21875.39063.89063m.89062-.03126q0-.49218.28125-.70312c.21875-.17187.53125-.21875.96875-.21875.82813 0 1.4375.20313 1.4375.89063 0 .75-.67187 1.10937-1.34375 1.10937-.79687 0-1.34375-.40625-1.34375-1.07812M1.45313-3.125c0-.92187.46875-1.23437.96875-1.23437.45312 0 .9375.32812.9375 1.23437 0 .79688-.39063 1.20313-.9375 1.20313-.53125 0-.96875-.40625-.96875-1.20313m0 0"/><path id="u" d="m1.875-5.25.14063.1875 1.40625-.78125c.28125-.15625.53125-.3125.53125-.5S3.73438-6.75 3.59375-6.75c-.17187 0-.32812.09375-.60937.375Zm-1.42187 3c0 1.46875.64062 2.35938 2.15625 2.35938 1.03125 0 1.57812-.57813 1.82812-1.3125l-.28125-.14063c-.26562.53125-.625.96875-1.35937.96875-1.15625 0-1.39063-1.10937-1.35938-2.07812H4.125c.20313 0 .35938-.04688.35938-.35938 0-.54687-.17188-1.875-1.875-1.875C1.14063-4.6875.45313-3.65625.45313-2.25m.98437-.5625c0-.39062.14063-1.54687 1.10938-1.54687.875 0 .96875.875.96875 1.25 0 .17187-.0625.29687-.3125.29687Zm0 0"/><path id="v" d="m2.70313-2.03125.78125.78125 3.23437-3.26562L9.98438-1.25l.75-.78125L7.5-5.26562l3.23438-3.26563-.75-.75-3.26563 3.23438-3.23437-3.23438-.78125.75 3.26562 3.26563Zm0 0"/></defs><path fill="none" stroke="#000" stroke-miterlimit="10" stroke-opacity=".5" stroke-width=".39745" d="M15.44921 298.57422h296.85556M15.44921 256.16405h296.85556M15.44921 213.75779h296.85556M15.44921 171.34762h296.85556M15.44921 128.94136h296.85556M15.44921 86.53119h296.85556M15.44921 44.12492h296.85556M36.65234 319.77735V22.92179m42.41017 296.85556V22.92179m42.40627 296.85556V22.92179m42.41016 296.85556V22.92179m42.40627 296.85556V22.92179m42.40626 296.85556V22.92179m42.41017 296.85556V22.92179M79.06251 287.97265v21.20313"/><use xlink:href="#a" x="74.6077" y="314.89003" fill-opacity=".5"/><path fill="none" stroke="#000" stroke-miterlimit="10" stroke-opacity=".5" stroke-width=".39745" d="M121.46878 287.97265v21.20313"/><use xlink:href="#b" x="117.01453" y="314.89003" fill-opacity=".5"/><path fill="none" stroke="#000" stroke-miterlimit="10" stroke-opacity=".5" stroke-width=".39745" d="M163.87894 287.97265v21.20313"/><use xlink:href="#c" x="159.42234" y="314.79129" fill-opacity=".5"/><path fill="none" stroke="#000" stroke-miterlimit="10" stroke-opacity=".5" stroke-width=".39745" d="M206.2852 287.97265v21.20313"/><use xlink:href="#d" x="201.83016" y="314.79129" fill-opacity=".5"/><path fill="none" stroke="#000" stroke-miterlimit="10" stroke-opacity=".5" stroke-width=".39745" d="M248.69147 287.97265v21.20313"/><use xlink:href="#e" x="244.23699" y="314.69255" fill-opacity=".5"/><path fill="none" stroke="#000" stroke-miterlimit="10" stroke-opacity=".5" stroke-width=".39745" d="M291.10164 287.97265v21.20313"/><use xlink:href="#f" x="286.64481" y="314.79129" fill-opacity=".5"/><path fill="none" stroke="#000" stroke-miterlimit="10" stroke-opacity=".5" stroke-width=".39745" d="M47.2539 256.16405H26.05079"/><g fill-opacity=".5"><use xlink:href="#b" x="11.48967" y="261.78152"/><use xlink:href="#g" x="20.39662" y="261.78152"/></g><path fill="none" stroke="#000" stroke-miterlimit="10" stroke-opacity=".5" stroke-width=".39745" d="M47.2539 213.75779H26.05079"/><g fill-opacity=".5"><use xlink:href="#d" x="11.48967" y="219.37469"/><use xlink:href="#g" x="20.39662" y="219.37469"/></g><path fill="none" stroke="#000" stroke-miterlimit="10" stroke-opacity=".5" stroke-width=".39745" d="M47.2539 171.34762H26.05079"/><g fill-opacity=".5"><use xlink:href="#f" x="11.48967" y="176.96687"/><use xlink:href="#g" x="20.39662" y="176.96687"/></g><path fill="none" stroke="#000" stroke-miterlimit="10" stroke-opacity=".5" stroke-width=".39745" d="M47.2539 128.94136H26.05079"/><g fill-opacity=".5"><use xlink:href="#h" x="11.48967" y="134.55905"/><use xlink:href="#g" x="20.39662" y="134.55905"/></g><path fill="none" stroke="#000" stroke-miterlimit="10" stroke-opacity=".5" stroke-width=".39745" d="M47.2539 86.53119H26.05079"/><g fill-opacity=".5"><use xlink:href="#a" x="7.03645" y="92.15223"/><use xlink:href="#g" x="15.9434" y="92.15223"/><use xlink:href="#g" x="24.85035" y="92.15223"/></g><path fill="none" stroke="#000" stroke-miterlimit="10" stroke-opacity=".5" stroke-width=".39745" d="M47.2539 44.12492H26.05079"/><g fill-opacity=".5"><use xlink:href="#a" x="7.03645" y="49.74441"/><use xlink:href="#b" x="15.9434" y="49.74441"/><use xlink:href="#g" x="24.85035" y="49.74441"/></g><path fill="none" stroke="#000" stroke-miterlimit="10" stroke-opacity=".5" stroke-width=".39745" d="M36.65234 287.97265v21.20313"/><use xlink:href="#g" x="12.40924" y="320.44633" fill-opacity=".5"/><path fill="none" stroke="#000" stroke-miterlimit="10" stroke-width=".79491" d="M15.44921 298.57422h290.6954"/><path stroke="#000" stroke-miterlimit="10" stroke-width=".79491" d="M310.29688 298.57422c-.50782-.10547-2.75-.70703-4.15235-1.36328v2.72265c1.40235-.65234 3.64453-1.2539 4.15235-1.35937Zm0 0"/><path fill="none" stroke="#000" stroke-miterlimit="10" stroke-width=".79491" d="M36.65234 319.77735V29.08195"/><path stroke="#000" stroke-miterlimit="10" stroke-width=".79491" d="M36.65234 24.92969c-.10547.5078-.70703 2.75-1.35937 4.15234h2.72266c-.65626-1.40234-1.25782-3.64453-1.36329-4.15234Zm0 0"/><use xlink:href="#i" x="7.98195" y="14.03587"/><use xlink:href="#j" x="12.84082" y="14.03587"/><use xlink:href="#k" x="17.71957" y="14.03587"/><use xlink:href="#l" x="20.4322" y="14.03587"/><use xlink:href="#l" x="23.03552" y="14.03587"/><use xlink:href="#m" x="25.63885" y="14.03587"/><use xlink:href="#n" x="32.53468" y="14.03587"/><use xlink:href="#m" x="35.97266" y="14.03587"/><use xlink:href="#o" x="40.77192" y="14.03587"/><use xlink:href="#p" x="48.64151" y="14.03587"/><use xlink:href="#q" x="53.27186" y="14.03587"/><use xlink:href="#r" x="61.88667" y="14.03587"/><use xlink:href="#s" x="319.32336" y="301.53436"/><use xlink:href="#t" x="325.24543" y="301.53436"/><use xlink:href="#m" x="330.09437" y="301.53436"/><use xlink:href="#n" x="336.98027" y="301.53436"/><use xlink:href="#m" x="340.41825" y="301.53436"/><use xlink:href="#o" x="345.2175" y="301.53436"/><use xlink:href="#j" x="353.0871" y="301.53436"/><use xlink:href="#o" x="357.96585" y="301.53436"/><use xlink:href="#o" x="363.73887" y="301.53436"/><use xlink:href="#u" x="369.51189" y="301.53436"/><use xlink:href="#m" x="374.31115" y="301.53436"/><use xlink:href="#r" x="379.11041" y="301.53436"/><use xlink:href="#v" x="29.93687" y="197.20633" fill="#007F7F"/><use xlink:href="#v" x="72.3397" y="133.60159" fill="#007F7F"/><use xlink:href="#v" x="114.74254" y="123.00163" fill="#007F7F"/><use xlink:href="#v" x="157.14537" y="118.76085" fill="#007F7F"/><use xlink:href="#v" x="199.5482" y="101.79971" fill="#007F7F"/><use xlink:href="#v" x="241.95103" y="69.99784" fill="#007F7F"/><use xlink:href="#v" x="284.35387" y="48.79592" fill="#007F7F"/><path fill="none" stroke="#007F7F" stroke-miterlimit="10" stroke-width=".79491" d="M36.65234 192.56637 79.0547 128.9609l42.40626-10.60157 42.40236-4.24219 42.40236-16.96094 42.40626-31.8008 42.40235-21.20312"/></svg>