<svg xmlns="http://www.w3.org/2000/svg" xmlns:xlink="http://www.w3.org/1999/xlink" width="376.435" height="268.191" viewBox="0 0 376.435 268.191"><defs><path id="a" d="M.5625-.20312.78125 0h8.6875l.71875-2.76562-.57812-.10938c-.45313 1.125-.875 1.28125-1.71875 1.28125H2.53125C2.85938-2.6875 4.10938-4.17187 6.0625-5.57812 8.0625-7.0625 9.625-8 9.625-10.34375c0-2.92187-1.9375-3.9375-4.15625-3.9375-2.875 0-4.35937 1.75-4.35937 2.84375 0 .71875.8125 1.04688 1.17187 1.04688.375 0 .51563-.21875.59375-.57813.34375-1.4375 1.17188-2.57812 2.46875-2.57812 1.60938 0 2.07813 1.34375 2.07813 2.89062 0 2.25-1.14063 3.53125-2.96875 5.14063-2.59375 2.25-3.5 3.6875-3.89063 5.3125m0 0"/><path id="b" d="M.92188-6.48437C.92188-1.9375 2.5625.25 5.71875.25c3.10938 0 4.76563-1.875 4.76563-4.73437 0-2.84375-1.75-4.39063-4-4.39063-1.65625 0-2.89063 1.125-3.45313 1.8125.03125-4.625 1.29688-6.48437 3.20313-6.48437.95312 0 1.65625.8125 1.96875 2.01562.0625.25.21875.45313.53125.45313.46875 0 1.125-.39063 1.125-.96875 0-.84375-1.03125-2.23438-3.5625-2.23438-3.32813 0-5.375 2.57813-5.375 7.79688m2.10937 1.53125c0-1.28125.96875-2.84375 2.73438-2.84375 1.3125 0 2.60937 1.20312 2.60937 3.625 0 2.20312-.84375 3.6875-2.60937 3.6875-1.82813 0-2.73438-1.95313-2.73438-4.46875m0 0"/><path id="c" d="M2.28125 0H9.1875v-.60937L7.42188-.76563c-.45313-.03124-.70313-.1875-.70313-1.01562v-12.39062l-.10937-.10938-4.32813.73438v.51562l1.96875.25c.35938.04688.48438.20313.48438.8125v10.1875c0 .82813-.20313.98438-.6875 1.01563l-1.76563.15624Zm0 0"/><path id="d" d="M.875-7.01562C.875-2.8125 2.09375.25 5.5625.25s4.71875-3.0625 4.71875-7.26562-1.25-7.26563-4.71875-7.26563S.875-11.21875.875-7.01562m2.125 0c0-3.42188.57813-6.53125 2.5625-6.53125 1.98438 0 2.57813 3.10937 2.57813 6.53125S7.54688-.48437 5.5625-.48437 3-3.59375 3-7.01562m0 0"/><path id="e" d="M2.28125 0H9.1875v-.60937L7.42188-.76563c-.45313-.03124-.70313-.1875-.70313-1.01562v-12.39062l-.10937-.10938-4.32813.73438v.51562l1.96875.25c.35938.04688.48438.20313.48438.8125v10.1875c0 .39063-.04688.64063-.17188.79688-.10937.15624-.29687.20312-.51562.21874l-1.76563.15626Zm0 0"/><path id="f" d="M.5625-.20312.78125 0h8.6875l.71875-2.76562-.57812-.10938c-.45313 1.125-.875 1.28125-1.71875 1.28125H2.53125C2.85938-2.6875 4.10938-4.17187 6.0625-5.57812 8.0625-7.0625 9.625-8 9.625-10.34375c0-2.92187-1.9375-3.9375-4.15625-3.9375-2.875 0-4.35937 1.75-4.35937 2.84375 0 .71875.8125 1.04688 1.17187 1.04688.375 0 .51563-.21875.59375-.57813.34375-1.4375 1.17188-2.57812 2.46875-2.57812 1.60938 0 2.07813 1.34375 2.07813 2.89062 0 2.25-1.14063 3.53125-2.96875 5.14063-2.59375 2.25-3.5 3.6875-3.89063 5.3125m0 0"/><path id="g" d="M.5625-2.14062C.5625-1.25 2.01563.25 4.98438.25 8.01563.25 9.9375-1.29687 9.9375-3.98437c0-2.8125-2.40625-3.64063-3.5625-3.75v-.07813C7.5-8 9.3125-8.84375 9.3125-10.92187c0-2.32813-1.8125-3.35938-4.0625-3.35938-2.76562 0-4.14062 1.60938-4.14062 2.5 0 .65625.75 1.01563 1.03125 1.01563.26562 0 .42187-.15625.51562-.42188.46875-1.4375 1.25-2.35937 2.4375-2.35937 1.65625 0 2.07813 1.45312 2.07813 2.64062 0 1.25-.45313 2.84375-2.23438 2.84375-1 0-1.59375-.20312-1.82812-.20312-.26563 0-.39063.20312-.39063.57812 0 .35938.125.57813.39063.57813.23437 0 .82812-.20313 1.82812-.20313 1.78125 0 2.79688 1.60938 2.79688 3.45313 0 2.5-1.23438 3.375-2.73438 3.375-1.375 0-2.29687-1.03125-2.70312-2.21875-.125-.40625-.32813-.60938-.625-.60938-.375 0-1.10938.40625-1.10938 1.17188m0 0"/><path id="h" d="m1.73438-7.75.125.21875L3-8.17187c.125-.07813.25-.14063.34375-.14063s.20313.0625.34375.14063l1.125.64062.14063-.21875-1.21875-1.20312c-.14063-.125-.26563-.23438-.39063-.23438s-.25.10938-.39062.23438ZM-.29687 0h2.3125v-.29687l-.54688-.0625C1.15625-.39062 1.10938-.5 1.20313-.78125c.17187-.625.39062-1.28125.625-2.01562H4.1875l.70313 2c.10937.3125.0625.42187-.28125.45312l-.46875.04688V0h2.6875v-.29687c-.60938-.0625-.73438-.09375-.92188-.64063L3.6875-7.26562h-.78125L1.8125-4.15625c-.32812.92188-.78125 2.17188-1.14062 3.125-.21876.57813-.3125.70313-.96875.73438Zm2.28125-3.20312C2.3125-4.25 2.6875-5.28125 3-6.21875h.03125L4.0625-3.20312Zm0 0"/><path id="i" d="M.4375 1c0 1.0625 1.0625 1.53125 2.28125 1.53125.625 0 1.28125-.125 1.78125-.42187.48438-.28125.84375-.79688.84375-1.4375 0-1.14063-.90625-1.53125-2.03125-1.53125h-.84375c-.76562 0-.875-.25-.875-.45313 0-.3125.40625-.46875.54688-.51562.1875.01562.42187.03124.53125.03124 1 0 2.125-.4375 2.125-1.71874 0-.42188-.15625-.79688-.32813-.96875L5.3125-4.625l.20313-.65625-.09375-.09375-1.32813.42188c-.29687-.20313-.89062-.3125-1.375-.3125-1.60937 0-2.15625.96875-2.15625 1.75 0 .98437.64063 1.45312 1.125 1.57812v.01563c-.57812.21874-.96875.53125-.96875.9375 0 .375.4375.76562.9375.8125v.03124C1.20313 0 .4375.25.4375 1m1-.04687c0-.34375.10938-.625.32813-.78125.23437-.1875.57812-.25 1.07812-.25.9375 0 1.60938.23437 1.60938 1.01562 0 .84375-.75 1.23438-1.5 1.23438-.89063 0-1.51563-.45313-1.51563-1.21875m.1875-4.46875c0-1.03125.54688-1.39063 1.09375-1.39063.51563 0 1.0625.375 1.0625 1.39063 0 .89062-.45312 1.34375-1.0625 1.34375-.59375 0-1.09375-.45313-1.09375-1.34375m0 0"/><path id="j" d="M.51563-2.53125C.51563-.875 1.23438.125 2.9375.125c1.15625 0 1.76563-.65625 2.04688-1.48437l-.3125-.15626C4.375-.90624 3.98438-.40624 3.15625-.40624c-1.3125 0-1.5625-1.26562-1.54687-2.35937h3.03125c.21875 0 .40625-.04688.40625-.39063 0-.625-.20313-2.10937-2.125-2.10937-1.64063 0-2.40625 1.15625-2.40625 2.73437m1.10937-.625c0-.4375.15625-1.75 1.25-1.75.96875 0 1.07813 1 1.07813 1.40625 0 .20313-.0625.34375-.35938.34375Zm0 0"/><path id="k" d="M.64063-3.10937c0 2.35937.57812 5.125 2.79687 5.20312v-.3125c-.75-.14062-1.92187-1.21875-1.92187-4.89062 0-3.65625 1.125-4.75 1.92187-4.90625v-.3125C1.21875-8.25.64063-5.48437.64063-3.10937m0 0"/><path id="l" d="M.32813 0h2.5625v-.29687c-.75-.0625-.78125-.07813-.78125-.625V-3.375c0-.26562.01562-.40625.10937-.5625.21875-.42187.6875-.76562 1.25-.76562.70313 0 1.09375.39062 1.09375 1.3125v2.46875c0 .54687-.03125.5625-.78125.625V0h2.5625v-.29687c-.75-.0625-.79687-.07813-.79687-.625v-2.67188c0-1.0625-.57813-1.67187-1.53125-1.67187-.78125 0-1.26563.375-1.92188.79687l-.14062-.79687L.39063-5v.25l.39062.0625c.26563.04688.34375.07813.34375.46875v3.29688c0 .54687-.03125.5625-.79687.625Zm0 0"/><path id="m" d="M.51563-1.35937c0 .78125.51562 1.48437 1.5 1.48437.625 0 1.23437-.40625 1.57812-.625.14063.39063.3125.625.6875.625.39063 0 .82813-.10937 1.23438-.3125l-.0625-.25c-.14063.03125-.375.04688-.53125 0-.20313-.04687-.375-.23437-.375-.89062V-3.875c0-.60937-.14063-1.39062-1.71875-1.39062-1.1875 0-2.125.60937-2.125 1.1875 0 .32812.39062.48437.59375.48437.21874 0 .28124-.10937.32812-.28125.23438-.78125.67188-1.03125 1.09375-1.03125.40625 0 .875.21875.875 1.04688v.4375c-.26562.26562-1.28125.54687-2.10937.8125-.76563.23437-.96875.75-.96875 1.25m1.0625-.15626c0-.48437.21874-.73437.8125-.96874.42187-.15625.96875-.35938 1.20312-.5V-1.5c0 .85938-.64062 1.0625-1.0625 1.0625-.64062 0-.95312-.45312-.95312-1.07812m0 0"/><path id="n" d="m2.10938-5.90625.15625.21875 1.59375-.875c.3125-.17187.59375-.35937.59375-.57812 0-.20313-.26563-.45313-.42188-.45313-.17187 0-.35937.10938-.67187.4375Zm-1.59375 3.375C.51563-.875 1.23438.125 2.9375.125c1.15625 0 1.76563-.65625 2.04688-1.48437l-.3125-.15626C4.375-.90624 3.98438-.40624 3.15625-.40624c-1.3125 0-1.5625-1.26562-1.54687-2.35937h3.03125c.21875 0 .40625-.04688.40625-.39063 0-.625-.20313-2.10937-2.125-2.10937-1.64063 0-2.40625 1.15625-2.40625 2.73437m1.10937-.625c0-.4375.15625-1.75 1.25-1.75.96875 0 1.07813 1 1.07813 1.40625 0 .20313-.0625.34375-.35938.34375Zm0 0"/><path id="o" d="M3.23438-3.10937c0-2.375-.59375-5.14063-2.8125-5.21875v.3125c.8125.15625 1.92187 1.25 1.92187 4.90625 0 3.67187-1.17187 4.75-1.92187 4.89062v.3125C2.64063 2.01563 3.23438-.75 3.23438-3.10937m0 0"/><path id="p" d="M.375 0h2.48438v-.29687c-.6875-.0625-.9375-.09375-1-.53125-.0625-.34375-.07813-.75-.07813-1.3125v-4.1875h.03125C3.3125-4.21875 4.79688-2.10937 6.28125 0h.6875v-5.14062c0-.5625.03125-.95313.07813-1.29688.0625-.4375.3125-.48437.85937-.51562v-.3125H5.42188v.3125c.67187.04687.92187.07812.98437.51562.0625.34375.07813.73438.07813 1.29688v3.6875l-.01563-.01563c-1.375-1.9375-2.75-3.85937-4.09375-5.79687H.35938v.3125c.92187.0625.95312.07812.95312.65625v4.15625c0 .5625-.03125.96875-.07812 1.3125-.07813.4375-.3125.48437-.85938.53125Zm0 0"/><path id="q" d="M.51563-2.5625C.51563-.875 1.35938.125 3.03125.125c1.6875 0 2.51563-1 2.51563-2.6875 0-1.70312-.82813-2.70312-2.51563-2.70312-1.67187 0-2.51562 1-2.51562 2.70312m1.09375 0c0-1.45312.46875-2.34375 1.42187-2.34375.96875 0 1.4375.89063 1.4375 2.34375C4.46875-1.10937 4-.25 3.03125-.25c-.95312 0-1.42187-.85937-1.42187-2.3125m0 0"/><path id="r" d="M.32813 0h2.5625v-.29687c-.75-.0625-.78125-.07813-.78125-.625V-3.375c0-.26562 0-.40625.07812-.5625.20313-.42187.65625-.76562 1.25-.76562.89063 0 1.01563.65625 1.01563 1.3125v2.46875c0 .54687-.04688.5625-.79688.625V0h2.5625v-.29687c-.75-.0625-.79687-.07813-.79687-.625V-3.375c0-.26562.01562-.40625.07812-.5625.17188-.4375.60938-.76562 1.20313-.76562.65625 0 1.0625.375 1.0625 1.3125v2.46875c0 .54687-.03125.5625-.79688.625V0h2.57813v-.29687c-.75-.0625-.79688-.07813-.79688-.625v-2.67188c0-1.0625-.57812-1.67187-1.5625-1.67187-.85937 0-1.48437.5625-1.84375.79687-.26562-.48437-.65625-.79687-1.40625-.79687-.79687 0-1.45312.53125-1.82812.79687l-.09375-.79687L.39063-5v.25l.39062.0625c.26563.04688.34375.07813.34375.46875v3.29688c0 .54687-.03125.5625-.79687.625Zm0 0"/><path id="s" d="m.21875-7.26562.39063.03125c.26562.04687.34375.09375.34375.5V.04688l.1875.07812.40625-.40625C1.92188-.0625 2.375.125 3.15625.125c1.39063 0 2.60938-.67187 2.60938-2.8125 0-.65625-.14063-2.57812-2.01563-2.57812-.79687 0-1.42187.5-1.8125.73437v-3.20312l-.07812-.04688-1.64063.25Zm1.71875 5.5625V-3.375c0-.26562 0-.42187.09375-.59375.26563-.5.6875-.73437 1.28125-.73437.4375 0 1.35938.25 1.35938 2.07812 0 1.54688-.46875 2.375-1.51563 2.375-.54687 0-.95312-.28125-1.14062-.79687-.07813-.1875-.07813-.40625-.07813-.65625m0 0"/><path id="t" d="M.32813 0h2.78125v-.29687c-.9375-.0625-1-.07813-1-.625V-3.375c0-.79687.35937-1.07812.60937-1.07812.15625 0 .34375.0625.64063.23437.07812.04688.15625.04688.21875.04688.25 0 .48437-.26563.48437-.59375 0-.23438-.15625-.5-.5625-.5-.39062 0-.70312.21875-1.39062.82812l-.125-.82812L.39063-5v.25l.39062.0625c.26563.04688.34375.07813.34375.46875v3.29688c0 .54687-.04687.5625-.79687.625Zm0 0"/><path id="u" d="M.51563-2.46875C.51563-.92187 1.32813.125 2.71875.125c.5625 0 1.04688-.26562 1.60938-.71875v.51563L4.42188 0H6.125v-.29687c-.75-.0625-.78125-.07813-.78125-.625v-6.8125l-.07812-.04688-1.65625.25v.26563l.40625.03125c.26562.04687.32812.09375.32812.5v1.71875c-.28125-.15625-.67187-.25-1.15625-.25-.85937 0-1.51562.26562-1.95312.71875-.4375.46875-.71875 1.15625-.71875 2.07812m1.09375-.125c0-1.35937.48437-2.3125 1.5625-2.3125.5 0 .89062.21875 1.07812.65625.09375.1875.09375.34375.09375.625v1.84375c0 .23438 0 .40625-.0625.57813-.21875.5625-.67187.76562-1.21875.76562-.96875 0-1.45312-.95312-1.45312-2.15625m0 0"/><path id="v" d="M.51563-2.53125C.51563-.76562 1.375.125 2.95313.125c.73437 0 1.73437-.375 2.01562-1.51562l-.3125-.14063c-.32812.73438-.73437 1.10938-1.5 1.10938-1.25 0-1.54687-1.3125-1.54687-2.29688 0-1.5625.60937-2.1875 1.34375-2.1875.48437 0 .78125.34375.98437.92188.07813.15625.14063.26562.34375.26562.20313 0 .60938-.14062.60938-.53125 0-.48437-.6875-1.01562-1.82813-1.01562-1.90625 0-2.54687 1.34375-2.54687 2.73437m0 0"/><path id="w" d="m.26563-4.75.40625.0625C.9375-4.64062 1-4.60937 1-4.21875v2.76563C1-.25 1.71875.125 2.5.125c.89063 0 1.625-.60937 1.92188-.75L4.53125 0h1.6875v-.29687c-.73437-.0625-.79687-.07813-.79687-.625v-4.28125l-.07813-.0625L3.70313-5v.25l.39062.0625c.28125.04688.34375.07813.34375.46875v2.35938c0 .29687-.03125.53125-.09375.625-.25.48437-.73437.79687-1.28125.79687C2.45313-.4375 2-.82812 2-1.64062v-3.5625l-.07812-.0625L.26563-5Zm0 0"/><path id="x" d="m.48438-1.75.125 1.375c.375.32813 1.01562.5 1.625.5 1.25 0 1.96875-.65625 1.96875-1.5625 0-.92187-.57813-1.32812-1.65625-1.67187-.4375-.125-1.10938-.35938-1.10938-.95313 0-.54687.40625-.84375.9375-.84375.73438 0 1.09375.57813 1.17188 1.21875h.3125v-1.23437c-.34375-.25-.89063-.34375-1.35938-.34375-1.14062 0-1.90625.53125-1.90625 1.51562 0 .875.71875 1.26563 1.57813 1.53125.46875.15625 1.14062.39063 1.14062 1.10938 0 .53125-.42187.85937-.98437.85937C1.48438-.25 1-.85937.79688-1.75Zm0 0"/><path id="y" d="M.95313-6.875c0 .39063.28124.65625.65625.65625.375 0 .64062-.26562.64062-.65625 0-.375-.26562-.625-.64062-.625s-.65625.25-.65625.625M.32813 0h2.5625v-.29687c-.75-.0625-.78125-.07813-.78125-.625v-4.28125l-.07813-.0625L.39063-5v.25l.39062.0625c.26563.04688.34375.07813.34375.46875v3.29688c0 .54687-.03125.5625-.79687.625Zm0 0"/></defs><path fill="none" stroke="#000" stroke-miterlimit="10" stroke-width=".3973" d="M60.23047 226.07031h228.91416m-228.91416 0V26.16398"/><path fill="none" stroke="#000" stroke-linecap="round" stroke-linejoin="round" stroke-miterlimit="10" stroke-width=".3973" d="M57.84766 28.03125c1.42968-.375 2.10546-1.21875 2.3828-2.0664.27735.84765.95313 1.6914 2.38282 2.0664"/><path fill="none" stroke="#000" stroke-miterlimit="10" stroke-opacity=".5" stroke-width=".3973" d="M117.45706 214.625v22.89063m57.22268-22.89063v22.89063m57.22658-22.89063v22.89063"/><use xlink:href="#a" x="111.88675" y="259.68964"/><use xlink:href="#b" x="169.10914" y="259.68964"/><use xlink:href="#c" x="220.76632" y="259.68964"/><use xlink:href="#d" x="231.89588" y="259.68964"/><path fill="none" stroke="#000" stroke-miterlimit="10" stroke-opacity=".5" stroke-width=".3973" d="M71.67579 168.83982H48.78515"/><use xlink:href="#e" x="29.75949" y="175.98414"/><path fill="none" stroke="#000" stroke-miterlimit="10" stroke-opacity=".5" stroke-width=".3973" d="M71.67579 111.60932H48.78515"/><use xlink:href="#f" x="29.75949" y="118.75876"/><path fill="none" stroke="#000" stroke-miterlimit="10" stroke-opacity=".5" stroke-width=".3973" d="M71.67579 54.38274H48.78515"/><use xlink:href="#g" x="29.75949" y="61.41075"/><use xlink:href="#h" x="297.02628" y="229.39902"/><use xlink:href="#i" x="303.68614" y="229.39902"/><use xlink:href="#j" x="309.13918" y="229.39902"/><use xlink:href="#k" x="316.88294" y="229.39902"/><use xlink:href="#j" x="320.74924" y="229.39902"/><use xlink:href="#l" x="326.14641" y="229.39902"/><use xlink:href="#m" x="334.99642" y="229.39902"/><use xlink:href="#l" x="340.48298" y="229.39902"/><use xlink:href="#l" x="346.97523" y="229.39902"/><use xlink:href="#n" x="353.46748" y="229.39902"/><use xlink:href="#j" x="358.86465" y="229.39902"/><use xlink:href="#o" x="364.26182" y="229.39902"/><use xlink:href="#p" x="7.73293" y="15.78439"/><use xlink:href="#q" x="15.61079" y="15.78439"/><use xlink:href="#r" x="21.66724" y="15.78439"/><use xlink:href="#s" x="31.35532" y="15.78439"/><use xlink:href="#t" x="37.63526" y="15.78439"/><use xlink:href="#j" x="41.50156" y="15.78439"/><use xlink:href="#u" x="49.25649" y="15.78439"/><use xlink:href="#j" x="55.53643" y="15.78439"/><use xlink:href="#v" x="63.29137" y="15.78439"/><use xlink:href="#q" x="68.49857" y="15.78439"/><use xlink:href="#w" x="74.55502" y="15.78439"/><use xlink:href="#x" x="80.91318" y="15.78439"/><use xlink:href="#y" x="85.48345" y="15.78439"/><use xlink:href="#l" x="88.53403" y="15.78439"/><use xlink:href="#k" x="95.02627" y="15.78439"/><use xlink:href="#j" x="98.89257" y="15.78439"/><use xlink:href="#x" x="104.28974" y="15.78439"/><use xlink:href="#o" x="108.86001" y="15.78439"/><path fill="#7FBFBF" stroke="#000" stroke-miterlimit="10" stroke-width=".3973" d="M88.83986 226.07031V54.38274h57.23049V226.0703Zm0 0"/><path fill="#F57FC5" stroke="#000" stroke-miterlimit="10" stroke-width=".3973" d="M146.06644 226.07031v-57.2305h57.2305v57.2305Zm0 0"/><path fill="#7FD6F7" stroke="#000" stroke-miterlimit="10" stroke-width=".3973" d="M203.29303 226.07031V111.60932h57.2305v114.461Zm0 0"/></svg>