<svg xmlns="http://www.w3.org/2000/svg" xmlns:xlink="http://www.w3.org/1999/xlink" width="453.437pt" height="166.385pt" viewBox="0 0 453.437 166.385"><defs><path id="a" d="M-.20312-7.73437c.65625.03125.78125.0625 1.01562.6875.375.98437.8125 2.14062 1.21875 3.3125L3.34375 0h.84375l1.48438-4.01562C6.15625-5.3125 6.60938-6.5 6.89063-7.125c.25-.54687.375-.5625 1.01562-.60937v-.32813H5.32813v.32813l.64062.0625c.29688.01562.32813.14062.26563.35937-.125.51563-.48438 1.54688-.90625 2.70313L4.10938-1.26562l-.03125-.01563-1.07813-3C2.64063-5.29687 2.26563-6.32812 1.96875-7.25c-.09375-.3125-.0625-.40625.23438-.42187l.59375-.0625v-.32813h-3Zm0 0"/><path id="b" d="M.57813-2.8125c0 1.84375.78125 2.95313 2.6875 2.95313 1.28125 0 1.95312-.71875 2.26562-1.64063l-.34375-.1875C4.85938-1 4.42188-.45312 3.5-.45312c-1.45312 0-1.73437-1.39063-1.71875-2.60938h3.375c.23438 0 .45313-.0625.45313-.45312 0-.67188-.21875-2.34375-2.35938-2.34375-1.82812 0-2.67187 1.29687-2.67187 3.04687m1.21875-.70312c0-.48438.17187-1.9375 1.39062-1.9375 1.07813 0 1.20313 1.10937 1.20313 1.5625 0 .23437-.07813.375-.39063.375Zm0 0"/><path id="c" d="M.375 0h3.07813v-.32812c-1.04688-.0625-1.10938-.09375-1.10938-.6875V-3.75c0-.89062.39063-1.20312.67188-1.20312.1875 0 .39062.07812.71875.26562.09375.04688.17187.0625.23437.0625.28125 0 .53125-.29687.53125-.65625 0-.26562-.15625-.57812-.60937-.57812-.42188 0-.78125.25-1.54688.9375l-.14062-.9375L.4375-5.5625v.29688l.4375.0625c.29688.04687.375.09375.375.51562v3.67188c0 .59375-.0625.625-.875.6875Zm0 0"/><path id="d" d="M.35938-5.25h.84375v4.0625C1.20313 0 2.07813.14063 2.5.14063c.59375 0 1.14063-.29688 1.48438-.51563l-.09375-.25c-.28125.10938-.53125.15625-.82813.15625-.39062 0-.76562-.28125-.76562-1.17187V-5.25h1.5v-.46875h-1.5V-7.1875h-.34375L1.25-5.71875H.35938Zm0 0"/><path id="e" d="M.40625 0h3.07813v-.32812c-.48438-.0625-.75-.0625-.84375-.1875-.03125-.0625-.01563-.0625-.01563-.5625v-2.71875h.78125c.70313 0 1.25.21875 1.4375 1C4.9375-2.46875 5.0625-1.53125 5.1875-1c.17188.73438.625 1 1.3125 1h.9375v-.32812c-.90625-.10938-1.09375-.75-1.20312-1.54688-.125-1.04687-.34375-1.82812-1.57813-2.125v-.01562c1.09375-.21875 1.89063-.95313 1.89063-2.0625 0-1.125-.70313-1.98438-2.73438-1.98438H.40625v.32813c1.03125.07812 1.0625.09375 1.0625.75v5.90625c0 .65625-.03125.67187-1.0625.75ZM2.625-4.20312v-2.875c0-.48438.0625-.59375.84375-.59375.85938 0 1.84375.32812 1.84375 1.70312 0 1.23438-.64062 1.76563-1.78125 1.76563Zm0 0"/><path id="f" d="M.57813-2.85937c0 1.89062.92187 3 2.79687 3s2.79688-1.10938 2.79688-3c0-1.875-.92188-3-2.79688-3s-2.79687 1.125-2.79687 3m1.20312 0c0-1.60938.53125-2.59375 1.59375-2.59375s1.59375.98437 1.59375 2.59375c0 1.625-.53125 2.59375-1.59375 2.59375s-1.59375-.96875-1.59375-2.59375m0 0"/><path id="g" d="m.54688-1.95312.125 1.53125c.42187.375 1.125.5625 1.8125.5625 1.39062 0 2.1875-.73438 2.1875-1.73438 0-1.03125-.64063-1.48437-1.84375-1.85937C2.34375-3.59375 1.59375-3.84375 1.59375-4.5c0-.60937.45313-.95312 1.03125-.95312.84375 0 1.23438.65625 1.3125 1.35937h.34375v-1.35937c-.39062-.29688-.98437-.40625-1.5-.40625-1.26562 0-2.125.59375-2.125 1.70312 0 .96875.79688 1.40625 1.76563 1.70313.51562.15625 1.25.42187 1.25 1.21875 0 .59375-.45313.96875-1.07813.96875-.9375 0-1.48437-.6875-1.71875-1.6875Zm0 0"/><path id="h" d="M.40625 0h3.60938C5.79688 0 6.9375-.625 6.9375-2.26562c0-1.375-.98437-1.98438-2.10937-2.125v-.03125c1.09375-.21875 1.73437-.90625 1.73437-1.79688 0-.64062-.25-1.125-.71875-1.4375-.45312-.29687-1.125-.40625-2.0625-.40625h-3.375v.32813c1.03125.07812 1.0625.09375 1.0625.75v5.90625c0 .65625-.03125.67187-1.0625.75ZM2.625-1.29687v-2.84375h.82813c1.45312 0 2.23437.71875 2.23437 1.95312 0 1.40625-.95312 1.78125-1.95312 1.78125-.9375 0-1.10938-.17187-1.10938-.89062m0-3.25v-2.53125c0-.5.03125-.59375.9375-.59375.85938 0 1.78125.32812 1.78125 1.53125 0 1.14062-.73437 1.59375-1.9375 1.59375Zm0 0"/><path id="i" d="M.23438 0h2.84375v-.32812c-.82813-.0625-.875-.09375-.875-.6875v-7.5625l-.07813-.0625-1.82812.28125v.29687l.4375.03125c.29687.04688.375.10938.375.54688v6.46875c0 .59375-.03126.625-.875.6875Zm0 0"/><path id="j" d="m.29688-5.26562.45312.0625c.29688.04687.35938.09375.35938.51562v3.07813c0 1.34375.79687 1.75 1.67187 1.75.98438 0 1.79688-.67188 2.125-.82813l.125.6875h1.85938v-.32812c-.79688-.0625-.875-.09375-.875-.6875v-4.76563l-.07813-.07812-1.82812.29687v.29688l.4375.0625c.29687.04687.375.09375.375.51562v2.625c0 .32813-.03125.59375-.09375.70313-.28125.53125-.82813.875-1.42188.875-.6875 0-1.1875-.4375-1.1875-1.34375v-3.95313l-.07812-.07812-1.84375.29687Zm0 0"/><path id="k" d="M.46875-1.1875c0 .53125.82813 1.32813 2.32813 1.32813 1.9375 0 2.79687-1.17188 2.79687-2.64063 0-1.64062-1.01562-2.46875-2.40625-2.46875-.64062 0-1.34375.26563-1.71875.60938V-4.375l.25-2.1875c.04688-.29687.125-.32812.34375-.32812h2.90625L5.25-7.6875l-.0625-.10937H1.29688l-.125.125L.9375-3.78125l.29688.14063c.48437-.54688.95312-.82813 1.57812-.82813.75 0 1.5625.54688 1.5625 2.09375 0 1.20313-.48437 2.10938-1.5 2.10938-.8125 0-1.21875-.59375-1.45312-1.26563-.0625-.17187-.1875-.28125-.34375-.28125-.23438 0-.60938.23438-.60938.625m0 0"/><path id="l" d="M1.26563 0h3.82812v-.32812L4.125-.42187C3.875-.45312 3.73438-.53125 3.73438-1v-6.85937l-.0625-.0625-2.40625.40625v.28125l1.09375.14062c.20312.01563.26562.10938.26562.4375V-1c0 .23438-.01562.375-.09375.45313-.0625.09374-.15625.10937-.28125.125l-.98437.09375Zm0 0"/><path id="m" d="M.48438-3.89062c0 2.32812.6875 4.03125 2.60937 4.03125S5.70313-1.5625 5.70313-3.89062c0-2.34375-.6875-4.03125-2.60938-4.03125S.48438-6.23437.48438-3.89062m1.17187 0c0-1.90625.32813-3.625 1.4375-3.625 1.09375 0 1.42188 1.71875 1.42188 3.625 0 1.89062-.32813 3.625-1.42188 3.625-1.10937 0-1.4375-1.73438-1.4375-3.625m0 0"/><path id="n" d="M.28125-1.98437c0 .67187.20313 1.23437.54688 1.57812.35937.35938.9375.5 1.59375.5.46875 0 1-.14062 1.28125-.28125l.07812-.98437h-.17187C3.45313-.5625 3.14063-.125 2.375-.125 1.17188-.125.9375-1.29687.9375-2c0-.95312.375-1.92187 1.45313-1.92187.59375 0 1.01562.25 1.125.9375h.17187v-.90625c-.25-.125-.70312-.23438-1.23437-.23438-.71875 0-1.29688.20313-1.64063.60938-.32812.35937-.53125.85937-.53125 1.53125m0 0"/><path id="o" d="M.28125-1.42187C.28125-.48437.75.0625 1.6875.0625s1.39063-.54687 1.39063-1.48437c0-.95313-.45313-1.5-1.39063-1.5s-1.40625.54687-1.40625 1.5m.60938 0c0-.8125.26562-1.29688.79687-1.29688s.79688.48438.79688 1.29688c0 .79687-.26563 1.28125-.79688 1.28125S.89063-.625.89063-1.42187m0 0"/><path id="p" d="m.15625-2.64062.21875.03125c.14063.03125.1875.04687.1875.26562V-.8125c0 .67188.39063.875.82813.875.5 0 .89062-.32812 1.0625-.40625L2.51563 0h.9375v-.17187c-.40625-.03126-.4375-.03126-.4375-.34375v-2.375l-.04688-.03125-.92187.14062v.14063l.23437.03125c.14063.03125.1875.04687.1875.26562v1.3125c0 .15625-.03125.29688-.0625.34375-.125.26563-.40625.45313-.70312.45313-.34375 0-.59375-.21875-.59375-.67188v-1.98437l-.04688-.03125-.90625.14062Zm0 0"/><path id="q" d="M.125 0h1.40625v-.17187c-.40625-.03126-.42187-.03126-.42187-.34375v-3.78125l-.04688-.03125-.90625.14062v.15625l.20313.01563c.15625.01562.1875.04687.1875.28125v3.21875c0 .3125 0 .3125-.42188.34375Zm0 0"/><path id="r" d="M.28125-1.40625C.28125-.48437.6875.0625 1.625.0625c.65625 0 .98438-.35937 1.14063-.8125l-.17188-.09375C2.4375-.5 2.20313-.23437 1.75-.23437c-.71875 0-.875-.6875-.85937-1.29688h1.6875c.125 0 .21875-.03125.21875-.21875 0-.34375-.10938-1.17187-1.17188-1.17187-.90625 0-1.34375.64062-1.34375 1.51562m.625-.34375c0-.25.07813-.96875.6875-.96875.54688 0 .60938.54688.60938.78125 0 .10938-.04688.1875-.20313.1875Zm0 0"/><path id="s" d="M.1875 0h1.53125v-.17187c-.51562-.03126-.54687-.03126-.54687-.34375V-1.875c0-.4375.20312-.59375.32812-.59375.09375 0 .20313.03125.35938.125.04687.03125.09374.03125.125.03125.14062 0 .26562-.15625.26562-.32812 0-.125-.07812-.28125-.3125-.28125-.20312 0-.375.125-.76562.45312l-.0625-.45312-.89063.14062v.14063l.21875.03125c.14063.03125.1875.04687.1875.26562v1.82813c0 .3125-.03125.3125-.4375.34375Zm0 0"/><path id="t" d="M.20313 0h1.39062v-.17187c-.39062-.03126-.53125-.04688-.5625-.28126C1-.65624 1-.875 1-1.1875v-2.32812C1.84375-2.34375 2.65625-1.17187 3.48438 0H3.875v-2.85937c0-.29688.01563-.51563.04688-.71875.03125-.23438.17187-.26563.46875-.28125v-.17188h-1.375v.17188c.375.03125.5.04687.54687.28125.03125.20312.04688.42187.04688.71875V-.8125h-.01563C2.82813-1.89062 2.0625-2.95312 1.3125-4.03125H.20313v.17188c.51562.03125.51562.03125.51562.35937v2.3125c0 .3125 0 .53125-.03125.73438-.04687.23437-.17187.26562-.48437.28125Zm0 0"/><path id="u" d="M.1875 0h1.42188v-.17187c-.42188-.03126-.4375-.03126-.4375-.34375V-1.875c0-.14062 0-.23437.04687-.3125.10938-.23437.35938-.42187.6875-.42187.5 0 .5625.35937.5625.71875v1.375c0 .3125-.01562.3125-.4375.34375V0h1.42188v-.17187c-.42188-.03126-.4375-.03126-.4375-.34375V-1.875c0-.14062 0-.21875.04687-.3125.07813-.23437.32813-.42187.65625-.42187.375 0 .59375.20312.59375.71875v1.375c0 .3125-.01562.3125-.4375.34375V0h1.42188v-.17187c-.42188-.03126-.4375-.03126-.4375-.34375V-2c0-.59375-.3125-.92187-.875-.92187-.46875 0-.8125.3125-1.01563.4375-.14062-.26563-.375-.4375-.78125-.4375-.4375 0-.8125.29687-1.01562.4375l-.0625-.4375-.89063.14062v.14063l.21875.03125c.14063.03125.1875.04687.1875.26562v1.82813c0 .3125-.01562.3125-.4375.34375Zm0 0"/><path id="v" d="m.125-4.03125.21875.01563c.14063.01562.1875.04687.1875.28125V.03125L.625.0625l.23438-.21875c.20312.125.45312.21875.89062.21875.78125 0 1.45313-.35937 1.45313-1.5625 0-.35937-.07813-1.42187-1.125-1.42187-.4375 0-.78125.28125-1 .40625v-1.78125l-.04688-.03125L.125-4.1875Zm.95313 3.07813V-1.875c0-.14062 0-.23437.04687-.32812.14063-.28125.39063-.40625.71875-.40625.23438 0 .75.14062.75 1.15625 0 .84375-.26562 1.3125-.84375 1.3125-.29687 0-.53125-.15625-.64062-.4375-.03126-.10938-.03126-.23438-.03126-.375m0 0"/><path id="w" d="M.28125-1.375C.28125-.51562.73438.0625 1.5.0625c.32813 0 .59375-.14062.90625-.39062v.28125L2.45313 0h.95312v-.17187c-.42187-.03126-.4375-.03126-.4375-.34375v-3.78125l-.04687-.03125L2-4.1875v.15625l.23438.01563c.14062.01562.17187.04687.17187.28125v.95312c-.15625-.09375-.375-.14062-.64062-.14062-.46875 0-.82813.15625-1.07813.39062-.25.26563-.40625.65625-.40625 1.15625m.60938-.0625c0-.76562.28124-1.28125.875-1.28125.26562 0 .5.125.59375.35938.04687.09375.04687.1875.04687.34375V-1c0 .14063 0 .23438-.03125.34375-.10937.29688-.375.42188-.67187.42188-.53125 0-.8125-.53125-.8125-1.20313m0 0"/><path id="x" d="M.42188-2.84375.51563-2.75c.29687-.26562.6875-.65625.6875-1.07812 0-.3125-.1875-.5-.375-.5-.17188 0-.28126.125-.28126.28125 0 .21875.1875.32812.1875.54687s-.125.4375-.3125.65625m0 0"/><path id="y" d="m1.17188-3.28125.09374.125.875-.48437c.17188-.09375.32813-.20313.32813-.32813 0-.10937-.14062-.25-.23437-.25s-.1875.0625-.375.25Zm-.89063 1.875C.28125-.48437.6875.0625 1.625.0625c.65625 0 .98438-.35937 1.14063-.8125l-.17188-.09375C2.4375-.5 2.20313-.23437 1.75-.23437c-.71875 0-.875-.6875-.85937-1.29688h1.6875c.125 0 .21875-.03125.21875-.21875 0-.34375-.10938-1.17187-1.17188-1.17187-.90625 0-1.34375.64062-1.34375 1.51562m.625-.34375c0-.25.07813-.96875.6875-.96875.54688 0 .60938.54688.60938.78125 0 .10938-.04688.1875-.20313.1875Zm0 0"/><path id="z" d="M.70313-3.96875c0 .125.15624.23438.32812.32813l.875.48437L2-3.28125l-.6875-.6875c-.17187-.1875-.28125-.25-.375-.25s-.23437.14063-.23437.25m-.42188 2.5625C.28125-.48437.6875.0625 1.625.0625c.65625 0 .98438-.35937 1.14063-.8125l-.17188-.09375C2.4375-.5 2.20313-.23437 1.75-.23437c-.71875 0-.875-.6875-.85937-1.29688h1.6875c.125 0 .21875-.03125.21875-.21875 0-.34375-.10938-1.17187-1.17188-1.17187-.90625 0-1.34375.64062-1.34375 1.51562m.625-.34375c0-.25.07813-.96875.6875-.96875.54688 0 .60938.54688.60938.78125 0 .10938-.04688.1875-.20313.1875Zm0 0"/><path id="A" d="M0-2.6875c.28125.03125.32813.04688.42188.26563.15625.375.28125.76562.4375 1.15625L1.3125 0h.40625L2.25-1.40625c.15625-.45312.34375-.84375.42188-1.03125.07812-.20312.14062-.23437.40625-.25v-.17187H1.98438v.17187l.28124.03125c.09375 0 .10938.07813.07813.15625-.04687.1875-.14062.53125-.28125.90625l-.39062 1.0625h-.01563L1.29688-1.5c-.10938-.34375-.23438-.67187-.34375-.98437-.04688-.10938-.01563-.17188.09374-.17188l.26563-.03125v-.17187H0Zm0 0"/><path id="B" d="m.26563-.96875.0625.76563c.21875.17187.57812.26562.90625.26562.70312 0 1.09375-.35937 1.09375-.85937 0-.51563-.3125-.73438-.90625-.92188-.25-.07812-.625-.20312-.625-.53125 0-.3125.23437-.46875.51562-.46875.42188 0 .60938.3125.65625.67188h.17188v-.6875c-.1875-.14063-.48438-.1875-.75-.1875-.64063 0-1.0625.29687-1.0625.84375 0 .48437.39062.70312.875.84375.26562.09374.64062.21874.64062.60937 0 .29688-.23437.48438-.54687.48438-.46875 0-.73438-.34375-.85938-.82813Zm0 0"/><path id="E" d="M.625 0h2v-.1875l-.45312-.04687c-.125 0-.1875-.04688-.1875-.26563v-3.42187l-.04688-.04688L.64063-3.75v.17188l.46875.0625c.125.01562.17187.0625.17187.25V-.5c0 .21875-.0625.26563-.20312.26563L.625-.1875Zm0 0"/><path id="F" d="M.1875-.07812.25 0h2.51563l.21875-.875-.1875-.03125c-.14063.29688-.23438.34375-.48438.34375H.84375c.09375-.25.35938-.64062.95313-1 .60937-.39062 1.01562-.67187 1.01562-1.29687 0-.8125-.54687-1.10938-1.21875-1.10938-.78125 0-1.28125.4375-1.28125.84375 0 .21875.26563.32813.40625.32813.10938 0 .17188-.0625.20313-.1875.09374-.4375.29687-.75.625-.75.375 0 .51562.32812.51562.75 0 .51562-.21875.90625-.78125 1.39062C.51563-.9375.25-.5.1875-.07812m0 0"/><path id="G" d="M.23438-1.95312c0 1.125.34375 2.01562 1.35937 2.01562 1.03125 0 1.375-.89062 1.375-2.01562s-.34375-2.01563-1.375-2.01563c-1.01562 0-1.35937.89063-1.35937 2.01563m.73437 0c0-.8125.10938-1.78125.625-1.78125.53125 0 .64063.96875.64063 1.78125 0 .82812-.10938 1.79687-.64063 1.79687-.51562 0-.625-.96875-.625-1.79687m0 0"/><path id="H" d="M.21875-3.15625c0 .4375.35938.79688.79688.79688s.8125-.35938.8125-.79688-.375-.8125-.8125-.8125-.79688.375-.79688.8125m.32813 0c0-.29687.21874-.53125.46875-.53125.25 0 .48437.23438.48437.53125 0 .29688-.23437.51563-.48437.51563s-.46875-.21875-.46875-.51563m0 0"/><path id="I" d="M.23438-1.84375C.23438-.625.65625.0625 1.64063.0625c.9375 0 1.39062-.57812 1.39062-1.32812 0-.8125-.51562-1.21875-1.14062-1.21875-.42188 0-.75.26562-.92188.5 0-.92188.23438-1.75.78125-1.75.25 0 .42188.23437.51563.59375C2.29688-3.0625 2.35938-3 2.46875-3c.14063 0 .375-.10937.375-.29687 0-.26563-.32812-.67188-1.0625-.67188-.95312 0-1.54687.71875-1.54687 2.125m.73437.46875c0-.34375.23438-.73437.65625-.73437.35938 0 .67188.29687.67188.96875 0 .5625-.1875.98437-.64063.98437-.46875 0-.6875-.54687-.6875-1.21875m0 0"/><path id="L" d="M.21875-1.07812c0 .71875.51563 1.14062 1.375 1.14062.875 0 1.39063-.42187 1.39063-1.14062 0-.5625-.34375-.90625-.78125-1.03125.34375-.09375.64062-.375.64062-.84375 0-.65625-.5-1.01563-1.25-1.01563-.73437 0-1.23437.375-1.23437 1.01563 0 .46875.29687.75.64062.84375-.42187.125-.78125.46875-.78125 1.03125m.73438.01562c0-.5.21874-.89062.64062-.89062s.64063.39062.64063.89062c0 .51563-.20313.90625-.64063.90625-.42187 0-.64062-.39062-.64062-.90625m.09374-1.90625c0-.4375.20313-.76562.54688-.76562.35938 0 .54688.32812.54688.76562 0 .40625-.17188.76563-.54688.76563-.35937 0-.54687-.35938-.54687-.76563m0 0"/><path id="O" d="M.48438-2.125c0 1.1875.71875 2.26563 2.60937 2.26563 1.875 0 2.59375-1.07813 2.59375-2.26563S4.95313-4 4.15625-4.1875c.70313-.1875 1.28125-.79687 1.28125-1.75 0-1.26562-1.01562-1.98437-2.34375-1.98437C1.75-7.92187.75-7.20312.75-5.9375c0 .95313.59375 1.5625 1.28125 1.75C1.25-4 .48438-3.3125.48438-2.125m1.17187.04688c0-1.07813.5-1.85938 1.4375-1.85938.92188 0 1.4375.78125 1.4375 1.85938 0 1.03125-.46875 1.8125-1.4375 1.8125-.98437 0-1.4375-.78125-1.4375-1.8125M1.875-5.96875c0-.89062.42188-1.54687 1.21875-1.54687.79688 0 1.21875.65625 1.21875 1.54687 0 .79688-.375 1.60938-1.21875 1.60938S1.875-5.17187 1.875-5.96875m0 0"/><path id="P" d="m.21875-2.32812.10938.25H3.5v1.1875c0 .39062-.125.45312-.40625.48437l-.75.07813V0h3.07813v-.32812l-.51563-.0625C4.625-.4375 4.54688-.5 4.54688-.89062v-1.1875H5.75V-2.625H4.54688v-5.17187h-.84375C2.60938-6.17187 1.29688-4.15625.21875-2.32812M1.0625-2.625C1.76563-3.89062 2.60938-5.25 3.5-6.65625V-2.625Zm0 0"/><path id="Q" d="M1.26563 0h3.82812v-.32812L4.125-.42187C3.875-.45312 3.73438-.53125 3.73438-1v-6.85937l-.0625-.0625-2.40625.40625v.28125l1.09375.14062c.20312.01563.26562.10938.26562.4375V-1c0 .46875-.10937.54688-.375.57813l-.98437.09375Zm0 0"/><path id="R" d="M.3125-.10937.4375 0h4.82813l.39062-1.53125-.32812-.0625c-.23438.625-.48438.71875-.95313.71875H1.40625c.1875-.60937.875-1.4375 1.95313-2.23437 1.125-.8125 1.98437-1.32813 1.98437-2.64063 0-1.625-1.07812-2.17187-2.29687-2.17187-1.60938 0-2.42188.96875-2.42188 1.5625 0 .40625.4375.59375.64063.59375.20312 0 .28124-.125.32812-.32813.1875-.79687.65625-1.42187 1.375-1.42187.89063 0 1.15625.73437 1.15625 1.59375 0 1.25-.64062 1.96875-1.65625 2.85937C1.03125-1.8125.53125-1.01562.3125-.10937m0 0"/><clipPath id="C"><path d="M346 0h106.32031v71H346Zm0 0"/></clipPath><clipPath id="D"><path d="M340 0h112.32031v77H340Zm0 0"/></clipPath><clipPath id="J"><path d="M310 70h142.32031v72H310Zm0 0"/></clipPath><clipPath id="K"><path d="M305 65h147.32031v83H305Zm0 0"/></clipPath><clipPath id="M"><path d="M305 0h147.32031v148H305Zm0 0"/></clipPath><clipPath id="N"><path d="M305 4h147.32031v73H305Zm0 0"/></clipPath></defs><path fill="none" stroke="#000" stroke-miterlimit="10" stroke-width=".39703" d="M28.49219 141.41016h141.21088m-141.21088 0V22.4141"/><path stroke="#000" stroke-miterlimit="10" stroke-width=".39703" d="M28.49219 18.58984c-.1289.46875-.84375 2.53516-1.6211 3.82422h3.23828c-.77734-1.28906-1.49218-3.35547-1.61718-3.82422Zm0 0"/><path fill="none" stroke="#000" stroke-miterlimit="10" stroke-opacity=".5" stroke-width=".39703" d="M63.79296 134.34766v14.12109m35.30467-14.12109v14.12109m35.30467-14.12109v14.12109"/><use xlink:href="#a" x="53.19788" y="160.91721"/><use xlink:href="#b" x="59.76141" y="160.91721"/><use xlink:href="#c" x="65.7542" y="160.91721"/><use xlink:href="#d" x="70.38218" y="160.91721"/><use xlink:href="#e" x="86.56554" y="160.91721"/><use xlink:href="#f" x="93.8363" y="160.91721"/><use xlink:href="#g" x="100.56113" y="160.91721"/><use xlink:href="#b" x="105.63577" y="160.91721"/><use xlink:href="#h" x="122.55053" y="161.50006"/><use xlink:href="#i" x="129.94536" y="161.50006"/><use xlink:href="#b" x="133.19611" y="161.50006"/><use xlink:href="#j" x="139.18891" y="161.50006"/><path fill="none" stroke="#000" stroke-miterlimit="10" stroke-opacity=".5" stroke-width=".39703" d="M35.55078 106.10548H21.42969"/><use xlink:href="#k" x="10.86834" y="109.93366"/><path fill="none" stroke="#000" stroke-miterlimit="10" stroke-opacity=".5" stroke-width=".39703" d="M35.55078 70.8008H21.42969"/><use xlink:href="#l" x="4.69017" y="74.69889"/><use xlink:href="#m" x="10.86908" y="74.69889"/><path fill="none" stroke="#000" stroke-miterlimit="10" stroke-opacity=".5" stroke-width=".39703" d="M35.55078 35.50004H21.42969"/><use xlink:href="#l" x="4.69017" y="39.39638"/><use xlink:href="#k" x="10.86908" y="39.39638"/><use xlink:href="#n" x="174.08604" y="143.52749"/><use xlink:href="#o" x="178.00059" y="143.52749"/><use xlink:href="#p" x="181.36301" y="143.52749"/><use xlink:href="#q" x="184.89292" y="143.52749"/><use xlink:href="#r" x="186.5183" y="143.52749"/><use xlink:href="#p" x="189.51469" y="143.52749"/><use xlink:href="#s" x="193.04461" y="143.52749"/><use xlink:href="#t" x="6.45565" y="13.39748"/><use xlink:href="#o" x="10.83547" y="13.39748"/><use xlink:href="#u" x="14.19789" y="13.39748"/><use xlink:href="#v" x="19.57651" y="13.39748"/><use xlink:href="#s" x="23.063" y="13.39748"/><use xlink:href="#r" x="25.20949" y="13.39748"/><use xlink:href="#w" x="29.50867" y="13.39748"/><use xlink:href="#x" x="32.85868" y="13.39748"/><use xlink:href="#y" x="34.47785" y="13.39748"/><use xlink:href="#q" x="37.47424" y="13.39748"/><use xlink:href="#z" x="39.09962" y="13.39748"/><use xlink:href="#A" x="42.09601" y="13.39748"/><use xlink:href="#r" x="44.99936" y="13.39748"/><use xlink:href="#B" x="47.99575" y="13.39748"/><path fill="#7FBFBF" stroke="#000" stroke-miterlimit="10" stroke-width=".39703" d="M46.14452 141.41016V84.9219H81.4453v56.48826Zm0 0"/><path fill="#F57FC5" stroke="#000" stroke-miterlimit="10" stroke-width=".39703" d="M81.4453 141.41016v-28.24218h35.30467v28.24218Zm0 0"/><path fill="#7FD6F7" stroke="#000" stroke-miterlimit="10" stroke-width=".39703" d="M116.74997 141.41016V56.67972h35.30077v84.73044Zm0 0"/><g clip-path="url(#C)"><path fill="#7FBFBF" d="M381.51953 70.80078h70.60938c0-38.99219-31.61329-70.60547-70.60938-70.60547-12.39062 0-24.57031 3.26563-35.30078 9.46094Zm0 0"/></g><g clip-path="url(#D)"><path fill="none" stroke="#000" stroke-miterlimit="10" stroke-width=".39703" d="M452.12875 70.8008c0-38.99217-31.61327-70.60544-70.60935-70.60544-12.39062 0-24.5703 3.26563-35.30077 9.46094"/></g><path fill="none" stroke="#000" stroke-miterlimit="10" stroke-width=".39703" d="M392.11315 70.8008c0-5.84765-4.74219-10.58983-10.59375-10.58983-1.85547 0-3.68359.48828-5.29297 1.41797"/><use xlink:href="#E" x="384.17351" y="58.07634"/><use xlink:href="#F" x="387.36842" y="58.07634"/><use xlink:href="#G" x="390.56334" y="58.07634"/><use xlink:href="#H" x="393.75825" y="58.07634"/><path fill="#F57FC5" d="M381.51953 70.80078 346.21875 9.65625c-21.84375 12.60938-35.30469 35.92578-35.30469 61.14453Zm0 0"/><path fill="none" stroke="#000" stroke-miterlimit="10" stroke-width=".39703" d="M346.21863 9.6563c-21.84374 12.60937-35.30467 35.92577-35.30467 61.1445m65.31247-9.17186c-3.27734 1.89453-5.29687 5.39062-5.29687 9.17187"/><use xlink:href="#I" x="362.62416" y="64.27941"/><use xlink:href="#G" x="365.81907" y="64.27941"/><use xlink:href="#H" x="369.01399" y="64.27941"/><g clip-path="url(#J)"><path fill="#7FD6F7" d="M381.51953 70.80078h-70.60547c0 38.9961 31.61328 70.60938 70.60547 70.60938 38.9961 0 70.60938-31.61328 70.60938-70.60938Zm0 0"/></g><g clip-path="url(#K)"><path fill="none" stroke="#000" stroke-miterlimit="10" stroke-width=".39703" d="M310.91396 70.8008c0 38.99609 31.61327 70.60936 70.60544 70.60936 38.99608 0 70.60935-31.61327 70.60935-70.60935"/></g><path fill="none" stroke="#000" stroke-miterlimit="10" stroke-width=".39703" d="M370.92956 70.8008c0 5.85157 4.74219 10.59375 10.58984 10.59375 5.85156 0 10.59375-4.74218 10.59375-10.59374"/><use xlink:href="#E" x="375.70083" y="89.69646"/><use xlink:href="#L" x="378.89574" y="89.69646"/><use xlink:href="#G" x="382.09066" y="89.69646"/><use xlink:href="#H" x="385.28557" y="89.69646"/><g clip-path="url(#M)"><path fill="none" stroke="#000" stroke-miterlimit="10" stroke-width=".39703" d="M452.12875 70.8008c0-38.99217-31.61327-70.60544-70.60935-70.60544-38.99217 0-70.60544 31.61327-70.60544 70.60545 0 38.99608 31.61327 70.60935 70.60544 70.60935 38.99608 0 70.60935-31.61327 70.60935-70.60935Zm0 0"/></g><g clip-path="url(#N)"><path fill="none" stroke="#000" stroke-miterlimit="10" stroke-width=".39703" d="M452.12875 70.8008H381.5194L346.21863 9.6563l35.30077 61.1445h-70.60544"/></g><use xlink:href="#a" x="392.98494" y="29.10666"/><use xlink:href="#b" x="399.54847" y="29.10666"/><use xlink:href="#c" x="405.54127" y="29.10666"/><use xlink:href="#d" x="410.16924" y="29.10666"/><use xlink:href="#O" x="400.49219" y="43.99538"/><use xlink:href="#e" x="330.7699" y="45.32771"/><use xlink:href="#f" x="338.04066" y="45.32771"/><use xlink:href="#g" x="344.76549" y="45.32771"/><use xlink:href="#b" x="349.84013" y="45.32771"/><use xlink:href="#P" x="340.21125" y="60.21643"/><use xlink:href="#h" x="369.66812" y="111.81097"/><use xlink:href="#i" x="377.06296" y="111.81097"/><use xlink:href="#b" x="380.31371" y="111.81097"/><use xlink:href="#j" x="386.3065" y="111.81097"/><use xlink:href="#Q" x="375.33841" y="126.69969"/><use xlink:href="#R" x="381.51732" y="126.69969"/></svg>