<svg xmlns="http://www.w3.org/2000/svg" xmlns:xlink="http://www.w3.org/1999/xlink" width="142.131pt" height="142.131pt" viewBox="0 0 142.131 142.131"><defs><path id="c" d="M.625 0h1.98438v-.1875l-.4375-.04687c-.14063 0-.20313-.04688-.20313-.26563v-3.42187l-.03125-.03125L.64063-3.75v.17188l.46875.0625c.125.03125.17187.07812.17187.26562V-.5c0 .21875-.0625.26563-.20312.26563L.625-.1875Zm0 0"/><path id="d" d="M.17188-.07812.25 0h2.51563l.21875-.875-.1875-.03125c-.14063.3125-.25.34375-.48438.34375H.82813c.09374-.25.375-.625.95312-1 .625-.39062 1.03125-.67187 1.03125-1.29687 0-.8125-.5625-1.09375-1.23437-1.09375-.78125 0-1.26563.4375-1.26563.82812 0 .21875.25.32813.40625.32813.10938 0 .17188-.0625.20313-.1875.09374-.42188.29687-.73438.625-.73438.375 0 .5.32813.5.75 0 .5-.20313.90625-.76563 1.39063C.51563-.9375.25-.5.17188-.07812m0 0"/><path id="e" d="M.23438-1.9375c0 1.10938.34375 2 1.35937 2 1.01563 0 1.375-.89062 1.375-2 0-1.125-.35937-2.01562-1.375-2.01562-1.01562 0-1.35937.89062-1.35937 2.01562m.73437 0c0-.82812.10938-1.78125.625-1.78125.51563 0 .64063.95313.64063 1.78125 0 .8125-.125 1.78125-.64063 1.78125-.51562 0-.625-.96875-.625-1.78125m0 0"/><path id="f" d="M.21875-3.15625c0 .45313.35938.8125.79688.8125s.8125-.35937.8125-.8125c0-.42187-.375-.79687-.8125-.79687s-.79688.375-.79688.79687m.32813 0c0-.29687.21874-.51562.46875-.51562.25 0 .48437.21875.48437.51562 0 .3125-.23437.53125-.48437.53125s-.46875-.21875-.46875-.53125m0 0"/><path id="g" d="M.23438-1.84375C.23438-.625.65625.0625 1.64063.0625c.9375 0 1.375-.57812 1.375-1.32812 0-.79688-.5-1.20313-1.125-1.20313-.42188 0-.75.26563-.9375.48438.01562-.90625.23437-1.73438.78125-1.73438.26562 0 .4375.21875.53125.57813.03125.07812.07812.15625.20312.15625s.35938-.10938.35938-.3125c0-.25-.3125-.65625-1.04688-.65625-.95312 0-1.54687.70312-1.54687 2.10937m.71875.46875c0-.34375.23437-.71875.67187-.71875.34375 0 .67188.28125.67188.95313 0 .57812-.1875.98437-.64063.98437-.46875 0-.70312-.54687-.70312-1.21875m0 0"/><path id="j" d="M.21875-1.07812c0 .71875.51563 1.14062 1.375 1.14062.875 0 1.375-.42187 1.375-1.14062 0-.5625-.34375-.90625-.76562-1.01563.34375-.09375.625-.39062.625-.84375 0-.65625-.5-1.01562-1.23438-1.01562-.73437 0-1.23437.375-1.23437 1.01562 0 .45313.29687.75.625.84375-.42188.10938-.76563.45313-.76563 1.01563m.73438.01562c0-.5.21874-.89062.64062-.89062s.64063.39062.64063.89062c0 .51563-.20313.90625-.64063.90625S.95313-.54687.95313-1.0625m.09374-1.90625c0-.4375.20313-.75.54688-.75.35938 0 .54688.3125.54688.75 0 .40625-.17188.78125-.54688.78125-.35937 0-.54687-.375-.54687-.78125m0 0"/><path id="m" d="M-.20312-7.70312c.65625.01562.78125.0625 1.01562.67187.375.98438.8125 2.14063 1.21875 3.3125L3.34375 0h.82813l1.48437-4.01562c.48438-1.28125.9375-2.46875 1.21875-3.09375.25-.53125.375-.5625 1.01563-.59375v-.34375h-2.5625v.34375l.625.04687c.29687.01563.32812.14063.26562.375-.125.5-.48437 1.53125-.90625 2.6875L4.09375-1.26562l-.01562-.01563L3-4.26562c-.35937-1.01563-.73437-2.04688-1.03125-2.96875-.09375-.29688-.0625-.40625.21875-.42188l.60938-.04687v-.34375h-3Zm0 0"/><path id="n" d="M.5625-2.8125C.5625-.96875 1.35938.14063 3.25.14063c1.29688 0 1.95313-.71875 2.26563-1.64063l-.34375-.1875C4.84375-1 4.40625-.45312 3.48438-.45312c-1.4375 0-1.73438-1.39063-1.70313-2.60938h3.35938c.25 0 .45312-.0625.45312-.4375 0-.6875-.21875-2.34375-2.34375-2.34375-1.82812 0-2.6875 1.29688-2.6875 3.03125M1.79688-3.5c0-.48437.17187-1.9375 1.39062-1.9375 1.0625 0 1.1875 1.10938 1.1875 1.5625 0 .21875-.0625.375-.39062.375Zm0 0"/><path id="o" d="M.375 0h3.0625v-.32812c-1.03125-.0625-1.09375-.09375-1.09375-.6875v-2.71875c0-.89063.39063-1.20313.65625-1.20313.1875 0 .39063.07813.71875.26563.09375.04687.17188.0625.23438.0625.29687 0 .53125-.29688.53125-.65625 0-.26563-.15625-.57813-.60938-.57813-.42187 0-.76562.25-1.53125.9375l-.14062-.9375-1.76563.29688v.28125l.42188.0625c.29687.0625.39062.10937.39062.53125v3.65625c0 .59375-.0625.625-.875.6875Zm0 0"/><path id="p" d="M.35938-5.23437h.84375v4.04687c0 1.1875.875 1.32813 1.28125 1.32813.59375 0 1.15625-.29688 1.48437-.51563l-.07812-.25c-.29688.125-.53125.15625-.82813.15625-.40625 0-.76562-.28125-.76562-1.17187v-3.59375h1.48437v-.46875H2.29688v-1.46875h-.34375L1.25-5.70312H.35938Zm0 0"/><path id="r" d="M.40625 0h3.07813v-.32812C3-.39062 2.71875-.39062 2.64063-.51562c-.04688-.04688-.03125-.0625-.03125-.5625v-2.70313h.79687c.6875 0 1.23438.20313 1.4375 1 .07813.3125.20313 1.25.32813 1.78125.17187.73438.625 1 1.3125 1h.9375v-.32812c-.90625-.10938-1.09375-.75-1.20313-1.54688-.125-1.03125-.34375-1.8125-1.57812-2.10937v-.03125c1.09375-.20313 1.89062-.95313 1.89062-2.04688 0-1.10937-.70312-1.98437-2.73437-1.98437H.40625v.34375c1.03125.0625 1.04688.07812 1.04688.73437v5.89063c0 .65625-.01563.67187-1.04688.75Zm2.20313-4.1875v-2.875c0-.48437.07812-.57812.84375-.57812.85937 0 1.84375.3125 1.84375 1.6875 0 1.21875-.64063 1.76562-1.76563 1.76562Zm0 0"/><path id="s" d="M.5625-2.84375c0 1.875.9375 2.98438 2.79688 2.98438 1.875 0 2.79687-1.10938 2.79687-2.98438 0-1.89062-.92187-3-2.79687-3-1.85938 0-2.79688 1.10938-2.79688 3m1.21875 0c0-1.60937.51563-2.59375 1.57813-2.59375 1.07812 0 1.59375.98438 1.59375 2.59375 0 1.60938-.51563 2.57813-1.59375 2.57813-1.0625 0-1.57813-.96875-1.57813-2.57813m0 0"/><path id="t" d="m.54688-1.9375.125 1.51563c.42187.375 1.125.5625 1.79687.5625 1.39063 0 2.1875-.73438 2.1875-1.71875 0-1.03125-.64062-1.48438-1.82812-1.85938-.48438-.15625-1.25-.40625-1.25-1.04687 0-.60938.46875-.95313 1.04687-.95313.82813 0 1.21875.64063 1.3125 1.35938h.32813V-5.4375c-.375-.29687-.96875-.40625-1.5-.40625-1.25 0-2.10938.59375-2.10938 1.70313 0 .95312.79688 1.39062 1.75 1.6875.53125.15625 1.25.42187 1.25 1.21875 0 .59375-.45312.96875-1.0625.96875-.95312 0-1.48437-.6875-1.71875-1.67188Zm0 0"/><path id="v" d="M.40625 0h3.60938c1.76562 0 2.90625-.625 2.90625-2.25 0-1.375-.98438-1.98437-2.10938-2.125v-.03125C5.90625-4.625 6.54688-5.3125 6.54688-6.20312c0-.64063-.25-1.125-.71875-1.4375-.45313-.29688-1.125-.40625-2.04688-.40625h-3.375v.34375c1.03125.0625 1.04688.07812 1.04688.73437v5.89063c0 .65625-.01563.67187-1.04688.75Zm2.20313-1.29687v-2.84375h.82812c1.45313 0 2.25.71875 2.25 1.96875 0 1.39062-.95312 1.76562-1.96875 1.76562-.92187 0-1.10937-.17187-1.10937-.89062m0-3.25V-7.0625c0-.5.03125-.57812.9375-.57812.85937 0 1.78125.3125 1.78125 1.51562 0 1.14063-.71875 1.57813-1.9375 1.57813Zm0 0"/><path id="w" d="M.23438 0H3.0625v-.32812c-.82812-.0625-.85937-.09375-.85937-.6875V-8.5625l-.09375-.0625-1.8125.28125v.29688L.73438-8c.29687.03125.35937.09375.35937.53125v6.45313c0 .59375-.01562.625-.85937.6875Zm0 0"/><path id="x" d="m.29688-5.26562.45312.0625c.29688.0625.35938.10937.35938.53125v3.0625c0 1.34375.79687 1.75 1.65625 1.75 1 0 1.79687-.67188 2.14062-.82813L5.01563 0H6.875v-.32812C6.07813-.39062 6-.42187 6-1.01562v-4.75l-.07812-.07813-1.82813.29688v.28125l.45313.0625c.29687.0625.35937.10937.35937.53125v2.625c0 .3125-.03125.57812-.09375.6875-.26562.53125-.8125.875-1.42187.875-.6875 0-1.17188-.4375-1.17188-1.32813v-3.95312L2.125-5.84375l-1.82812.29688Zm0 0"/><path id="q" d="M.48438-2.10937c0 1.17187.71875 2.25 2.59375 2.25 1.89062 0 2.60937-1.07813 2.60937-2.25 0-1.1875-.75-1.89063-1.54687-2.07813.70312-.1875 1.28125-.78125 1.28125-1.73437 0-1.26563-1-1.98438-2.34375-1.98438C1.75-7.90625.75-7.1875.75-5.92187c0 .95312.59375 1.54687 1.28125 1.73437C1.25-4 .48438-3.29687.48438-2.10937m1.15625.03125c0-1.0625.51562-1.85938 1.4375-1.85938.9375 0 1.4375.79688 1.4375 1.85938 0 1.03125-.45313 1.8125-1.4375 1.8125-.96875 0-1.4375-.78125-1.4375-1.8125m.23437-3.875C1.875-6.84375 2.29688-7.5 3.07813-7.5c.79687 0 1.21875.65625 1.21875 1.54688 0 .79687-.375 1.59375-1.21875 1.59375S1.875-5.15625 1.875-5.95312m0 0"/><path id="u" d="m.21875-2.32812.10938.25h3.15625v1.1875c0 .39062-.125.45312-.40625.48437l-.73438.07813V0h3.0625v-.32812l-.51562-.0625c-.28125-.04688-.34375-.10938-.34375-.5v-1.1875h1.1875V-2.625h-1.1875v-5.14062H3.6875c-1.09375 1.60937-2.40625 3.625-3.46875 5.4375M1.0625-2.625C1.75-3.89062 2.59375-5.23437 3.48438-6.64062V-2.625Zm0 0"/><path id="y" d="M1.26563 0h3.82812v-.32812l-.98437-.09375c-.25-.03125-.39063-.10938-.39063-.5625v-6.85938l-.0625-.0625L1.26563-7.5v.28125l1.07812.14063c.20313.03125.28125.10937.28125.4375v5.65625c0 .45312-.10937.53125-.39062.5625l-.96875.09375Zm0 0"/><path id="z" d="M.3125-.10937.4375 0H5.25l.39063-1.53125-.3125-.0625c-.25.625-.48438.71875-.95313.71875H1.39063c.1875-.60937.89062-1.4375 1.96875-2.21875 1.10937-.8125 1.96875-1.34375 1.96875-2.64062 0-1.60938-1.07813-2.17188-2.29688-2.17188C1.4375-7.90625.625-6.9375.625-6.34375c0 .40625.4375.59375.64063.59375.20312 0 .28124-.125.32812-.32812C1.78125-6.875 2.23438-7.5 2.95313-7.5c.89062 0 1.15625.75 1.15625 1.59375 0 1.25-.625 1.95313-1.64063 2.84375C1.03125-1.8125.53125-1.01562.3125-.10937m0 0"/><clipPath id="a"><path d="M35 0h106.26563v71H35Zm0 0"/></clipPath><clipPath id="b"><path d="M29 0h112.26563v77H29Zm0 0"/></clipPath><clipPath id="h"><path d="M0 70h141.26563v71.26563H0Zm0 0"/></clipPath><clipPath id="i"><path d="M0 65h141.26563v76.26563H0Zm0 0"/></clipPath><clipPath id="k"><path d="M0 0h141.26563v141.26563H0Zm0 0"/></clipPath><clipPath id="l"><path d="M0 4h141.26563v73H0Zm0 0"/></clipPath></defs><g clip-path="url(#a)"><path fill="#7FBFBF" d="M70.63281 70.63281h70.4375c0-38.89844-31.53515-70.4336-70.4375-70.4336-12.35937 0-24.51172 3.25392-35.21484 9.4375Zm0 0"/></g><g clip-path="url(#b)"><path fill="none" stroke="#000" stroke-miterlimit="10" stroke-width=".39608" d="M141.0703 70.63281c0-38.89843-31.53515-70.43359-70.43749-70.43359-12.35937 0-24.51171 3.25391-35.21484 9.4375"/></g><path fill="none" stroke="#000" stroke-miterlimit="10" stroke-width=".39608" d="M81.19922 70.63281c0-5.83203-4.73047-10.5625-10.5664-10.5625-1.85157 0-3.67579.48828-5.28126 1.41407"/><use xlink:href="#c" x="73.28394" y="57.93776"/><use xlink:href="#d" x="76.47117" y="57.93776"/><use xlink:href="#e" x="79.65841" y="57.93776"/><use xlink:href="#f" x="82.84565" y="57.93776"/><path fill="#F57FC5" d="M70.63281 70.63281 35.41797 9.63671C13.625 22.21485.19922 45.47267.19922 70.63282Zm0 0"/><path fill="none" stroke="#000" stroke-miterlimit="10" stroke-width=".39608" d="M35.41797 9.63672C13.625 22.21485.19922 45.47266.19922 70.63282m65.15234-9.14844c-3.26953 1.88671-5.28125 5.375-5.28125 9.14843"/><use xlink:href="#g" x="51.78538" y="64.12493"/><use xlink:href="#e" x="54.97262" y="64.12493"/><use xlink:href="#f" x="58.15986" y="64.12493"/><g clip-path="url(#h)"><path fill="#7FD6F7" d="M70.63281 70.63281H.19921c0 38.90235 31.53517 70.4375 70.4336 70.4375 38.90235 0 70.4375-31.53515 70.4375-70.4375Zm0 0"/></g><g clip-path="url(#i)"><path fill="none" stroke="#000" stroke-miterlimit="10" stroke-width=".39608" d="M.19922 70.63281c0 38.90234 31.53516 70.4375 70.4336 70.4375 38.90233 0 70.43749-31.53516 70.43749-70.4375"/></g><path fill="none" stroke="#000" stroke-miterlimit="10" stroke-width=".39608" d="M60.07031 70.63281c0 5.83594 4.73047 10.5664 10.5625 10.5664 5.83594 0 10.5664-4.73046 10.5664-10.5664"/><use xlink:href="#c" x="64.83161" y="89.4819"/><use xlink:href="#j" x="68.01885" y="89.4819"/><use xlink:href="#e" x="71.20609" y="89.4819"/><use xlink:href="#f" x="74.39333" y="89.4819"/><g clip-path="url(#k)"><path fill="none" stroke="#000" stroke-miterlimit="10" stroke-width=".39608" d="M141.0703 70.63281c0-38.89843-31.53515-70.43359-70.43749-70.43359C31.73438.19922.19922 31.73438.19922 70.63282c0 38.90233 31.53516 70.43749 70.4336 70.43749 38.90233 0 70.43749-31.53516 70.43749-70.4375Zm0 0"/></g><g clip-path="url(#l)"><path fill="none" stroke="#000" stroke-miterlimit="10" stroke-width=".39608" d="M141.0703 70.63281H70.63282l-35.21874-61 35.21874 61H.19922"/></g><use xlink:href="#m" x="82.07419" y="29.03771"/><use xlink:href="#n" x="88.62195" y="29.03771"/><use xlink:href="#o" x="94.60035" y="29.03771"/><use xlink:href="#p" x="99.2172" y="29.03771"/><use xlink:href="#q" x="89.5634" y="43.89065"/><use xlink:href="#r" x="20.00767" y="45.21878"/><use xlink:href="#s" x="27.26096" y="45.21878"/><use xlink:href="#t" x="33.96963" y="45.21878"/><use xlink:href="#n" x="39.03208" y="45.21878"/><use xlink:href="#u" x="29.42758" y="60.07172"/><use xlink:href="#v" x="58.81341" y="111.54327"/><use xlink:href="#w" x="66.19047" y="111.54327"/><use xlink:href="#n" x="69.43341" y="111.54327"/><use xlink:href="#x" x="75.4118" y="111.54327"/><use xlink:href="#y" x="64.47007" y="126.3962"/><use xlink:href="#z" x="70.63413" y="126.3962"/></svg>