<svg xmlns="http://www.w3.org/2000/svg" xmlns:xlink="http://www.w3.org/1999/xlink" width="207.64pt" height="167.912pt" viewBox="0 0 207.64 167.912"><defs><path id="a" d="M-.21875-8.04687c.6875.01562.82813.0625 1.07813.70312.375 1.03125.82812 2.23438 1.26562 3.45313L3.48438 0h.875l1.54687-4.1875c.5-1.34375.98438-2.57812 1.28125-3.23437.25-.5625.39063-.59375 1.04688-.625v-.35938H5.5625v.35938L6.21875-8c.3125.03125.32813.15625.26563.39063-.125.53125-.5 1.59375-.9375 2.8125L4.28125-1.3125 4.25-1.32812l-1.125-3.125c-.375-1.0625-.76562-2.14063-1.07812-3.10938-.09375-.3125-.0625-.40625.23437-.4375l.64063-.04687v-.35938H-.21875Zm0 0"/><path id="b" d="M.59375-2.9375c0 1.92188.82813 3.07813 2.79688 3.07813 1.35937 0 2.04687-.75 2.375-1.70313L5.40625-1.75c-.34375.70313-.8125 1.26563-1.76562 1.26563-1.51563 0-1.8125-1.4375-1.78125-2.70313h3.5c.26562 0 .48437-.0625.48437-.46875 0-.71875-.23437-2.4375-2.45312-2.4375C1.48438-6.09375.59375-4.75.59375-2.9375M1.875-3.65625c0-.5.17188-2.01562 1.45313-2.01562 1.10937 0 1.25 1.15625 1.25 1.625 0 .23437-.07813.39062-.42188.39062Zm0 0"/><path id="c" d="M.39063 0h3.20312v-.34375C2.5-.40625 2.4375-.4375 2.4375-1.0625v-2.84375c0-.92187.42188-1.25.70313-1.25.1875 0 .40625.07813.75.26563.09375.0625.1875.07812.25.07812.29687 0 .54687-.3125.54687-.6875 0-.28125-.17187-.59375-.64062-.59375-.4375 0-.79688.25-1.60938.96875l-.14062-.96875-1.84375.3125v.29688l.45312.0625c.3125.04687.40625.09375.40625.53125v3.82812c0 .625-.07812.65625-.92187.71875Zm0 0"/><path id="d" d="M.375-5.46875h.875v4.23438C1.25 0 2.17188.14063 2.59375.14063c.625 0 1.20313-.3125 1.54688-.53125l-.07813-.25c-.29687.10937-.5625.15624-.875.15624-.40625 0-.79687-.29687-.79687-1.21874v-3.76563h1.5625v-.48437h-1.5625v-1.53125h-.34375L1.3125-5.95312H.375Zm0 0"/><path id="e" d="M.42188 0H3.625v-.34375c-.5-.0625-.78125-.0625-.875-.20312-.03125-.04688-.03125-.0625-.03125-.57813v-2.82812h.82813c.73437 0 1.29687.21875 1.5 1.04687.09375.32813.21875 1.29688.35937 1.85938C5.57813-.26562 6.0625 0 6.76563 0H7.75v-.34375C6.8125-.45312 6.60938-1.125 6.5-1.95312c-.14062-1.07813-.35937-1.89063-1.65625-2.20313v-.03125c1.14063-.21875 1.98438-1 1.98438-2.14062 0-1.17188-.73438-2.07813-2.85938-2.07813H.42188v.35938c1.07812.07812 1.10937.09375 1.10937.76562V-1.125c0 .6875-.03125.70313-1.10937.78125Zm2.29687-4.375v-3c0-.5.07813-.60937.89063-.60937.90625 0 1.92187.32812 1.92187 1.76562 0 1.28125-.67187 1.84375-1.84375 1.84375Zm0 0"/><path id="f" d="M.59375-2.96875c0 1.95313.96875 3.10938 2.92188 3.10938s2.90625-1.15625 2.90625-3.10938c0-1.96875-.95313-3.125-2.90625-3.125-1.95313 0-2.92188 1.15625-2.92188 3.125m1.26563 0c0-1.6875.54687-2.70312 1.65625-2.70312 1.10937 0 1.65625 1.01562 1.65625 2.70312 0 1.67188-.54688 2.6875-1.65625 2.6875-1.10938 0-1.65625-1.01562-1.65625-2.6875m0 0"/><path id="g" d="M.5625-2.03125.70313-.4375c.4375.39063 1.17187.57813 1.875.57813 1.45312 0 2.28125-.76563 2.28125-1.79688 0-1.0625-.65625-1.54687-1.90625-1.9375C2.4375-3.75 1.65625-4 1.65625-4.6875c0-.64062.46875-.98437 1.07813-.98437.875 0 1.28125.67187 1.375 1.40625h.34375V-5.6875c-.39063-.29687-1.01563-.40625-1.5625-.40625-1.3125 0-2.20313.60938-2.20313 1.76563 0 1 .82813 1.45312 1.82813 1.76562.54687.17188 1.3125.4375 1.3125 1.26563 0 .625-.48438 1.01562-1.125 1.01562-.98438 0-1.54688-.71875-1.78125-1.75Zm0 0"/><path id="h" d="M.42188 0H4.1875c1.84375 0 3.03125-.65625 3.03125-2.35937 0-1.42188-1.01562-2.0625-2.1875-2.21875v-.01563c1.125-.23437 1.79688-.95312 1.79688-1.875 0-.67187-.25-1.1875-.73438-1.5-.48437-.3125-1.1875-.4375-2.15625-.4375H.42188v.35938c1.07812.07812 1.10937.09375 1.10937.76562V-1.125c0 .6875-.03125.70313-1.10937.78125Zm2.29687-1.35937V-4.3125h.875c1.51563 0 2.34375.75 2.34375 2.03125 0 1.46875-1 1.85938-2.04687 1.85938-.96875 0-1.17188-.1875-1.17188-.9375m0-3.39063v-2.625c0-.51562.04688-.60937.98438-.60937.89062 0 1.85937.32812 1.85937 1.59375 0 1.1875-.75 1.64062-2.01562 1.64062Zm0 0"/><path id="i" d="M.25 0h2.95313v-.34375c-.85938-.0625-.90625-.09375-.90625-.71875v-7.875L2.20313-9 .3125-8.70312v.29687l.45313.04688c.3125.03125.39062.10937.39062.5625v6.73437c0 .625-.03125.65625-.90625.71875Zm0 0"/><path id="j" d="m.3125-5.48437.46875.0625c.29688.04687.375.09375.375.53125v3.20312c0 1.40625.82813 1.82813 1.73438 1.82813 1.03125 0 1.875-.70313 2.21875-.85938L5.23438 0H7.1875v-.34375c-.84375-.0625-.92187-.09375-.92187-.71875v-4.95312l-.09375-.07813-1.89063.3125v.29688l.46875.0625c.29688.04687.375.09375.375.53125v2.75c0 .32812-.03125.60937-.09375.71875C4.75-.85937 4.17188-.5 3.54688-.5 2.82813-.5 2.3125-.95312 2.3125-1.90625v-4.10937l-.09375-.07813-1.90625.3125Zm0 0"/><path id="k" d="M.48438-1.23437c0 .54687.85937 1.375 2.4375 1.375 2 0 2.90625-1.21875 2.90625-2.75 0-1.70313-1.0625-2.57813-2.5-2.57813-.67188 0-1.40625.29688-1.79688.64063v-.01563l.26563-2.26562c.03124-.3125.10937-.35938.34375-.35938h3.03125l.29687-.82812-.0625-.09375h-4.0625L1.23438-8l-.25 4.0625.29687.15625c.5-.59375 1-.875 1.65625-.875.76563 0 1.625.57813 1.625 2.17188 0 1.25-.5 2.20312-1.5625 2.20312-.85937 0-1.28125-.60937-1.53125-1.3125-.0625-.17187-.17187-.29687-.34375-.29687-.25 0-.64062.25-.64062.65625m0 0"/><path id="l" d="M1.3125 0h4v-.34375L4.29688-.4375c-.26563-.03125-.40625-.125-.40625-.59375V-8.1875l-.0625-.0625-2.51563.42188v.29687l1.14063.14063c.20312.03125.28125.10937.28125.46875v5.89062c0 .23438-.01563.375-.09375.46875-.0625.07813-.17188.10938-.29688.125L1.3125-.34375Zm0 0"/><path id="m" d="M.5-4.0625C.5-1.625 1.21875.14063 3.21875.14063S5.9375-1.625 5.9375-4.0625c0-2.42187-.71875-4.1875-2.71875-4.1875S.5-6.48437.5-4.0625m1.23438 0c0-1.96875.32812-3.76562 1.48437-3.76562S4.70313-6.03125 4.70313-4.0625c0 1.98438-.32813 3.78125-1.48438 3.78125S1.73438-2.07812 1.73438-4.0625m0 0"/><path id="n" d="M.29688-2.07812c0 .71875.20312 1.28125.5625 1.65625.375.375.98437.51562 1.65625.51562.5 0 1.0625-.14062 1.34375-.29687l.09375-1.01563h-.1875C3.59375-.57812 3.28125-.125 2.48438-.125c-1.25 0-1.51563-1.23437-1.51563-1.96875 0-.98437.39063-2 1.53125-2 .625 0 1.04688.26563 1.17188.98438h.17187v-.95313c-.26562-.125-.71875-.23437-1.28125-.23437-.75 0-1.35937.21875-1.71875.625C.5-3.28125.29688-2.76562.29688-2.07812m0 0"/><path id="o" d="M.29688-1.48437C.29688-.5.78125.07813 1.76563.07813c.96875 0 1.45312-.57813 1.45312-1.5625 0-.98438-.48437-1.5625-1.45312-1.5625-.98438 0-1.46875.57812-1.46875 1.5625m.64062 0c0-.84375.26563-1.35938.82813-1.35938.54687 0 .82812.51563.82812 1.35938S2.3125-.14062 1.76563-.14062c-.5625 0-.82813-.5-.82813-1.34375m0 0"/><path id="p" d="m.15625-2.75.23438.03125c.15625.03125.1875.04688.1875.28125v1.59375c0 .70313.42187.92188.875.92188.51562 0 .9375-.35938 1.10937-.4375L2.625 0h.96875v-.17187c-.42187-.03126-.45312-.04688-.45312-.35938v-2.48437l-.04688-.03125-.95312.15625V-2.75l.23437.03125c.15625.03125.1875.04688.1875.28125v1.35938c0 .17187-.01562.3125-.04687.35937-.14063.28125-.42188.46875-.75.46875-.34375 0-.60938-.23437-.60938-.70312v-2.0625l-.04687-.03125-.95313.15625Zm0 0"/><path id="q" d="M.125 0h1.48438v-.17187c-.4375-.03126-.45313-.04688-.45313-.35938v-3.9375l-.04687-.04687-.95313.15625v.15625L.375-4.1875c.15625.01563.20313.04688.20313.28125v3.375c0 .3125-.01563.32813-.45313.35938Zm0 0"/><path id="r" d="M.29688-1.46875C.29688-.5.71875.07813 1.70313.07813c.67187 0 1.01562-.375 1.1875-.85938L2.70313-.875c-.17188.34375-.40625.64063-.875.64063-.76563 0-.90625-.73438-.89063-1.35938h1.75c.125 0 .23438-.03125.23438-.23437 0-.35938-.10938-1.21875-1.23438-1.21875-.9375 0-1.39062.67187-1.39062 1.57812m.64062-.35937c0-.25.09375-1.01563.71875-1.01563.5625 0 .64063.57813.64063.8125 0 .125-.04688.20313-.21875.20313Zm0 0"/><path id="s" d="M.1875 0h1.60938v-.17187C1.25-.20313 1.21875-.21875 1.21875-.53125v-1.42187c0-.46875.20313-.625.35938-.625.09374 0 .1875.03125.375.14062.04687.01563.07812.03125.10937.03125.15625 0 .28125-.15625.28125-.34375 0-.14062-.07812-.29687-.3125-.29687-.21875 0-.40625.125-.8125.48437l-.0625-.48437-.9375.15625V-2.75l.23438.03125c.15625.03125.20312.04688.20312.28125v1.90625c0 .3125-.03125.32813-.46875.35938Zm0 0"/><path id="t" d="M.21875 0h1.4375v-.17187c-.39062-.03126-.54687-.04688-.57812-.3125-.03126-.1875-.04688-.42188-.04688-.75v-2.42188h.01563C1.92188-2.4375 2.78125-1.21875 3.64063 0h.39062v-2.96875c0-.32812.01563-.5625.04688-.75.04687-.26562.1875-.28125.5-.3125v-.17187h-1.4375v.17187c.39062.03125.53125.04688.57812.3125.03125.1875.04688.42188.04688.75v2.125L3.75-.85937c-.79687-1.10938-1.59375-2.21875-2.375-3.34375H.20313v.17187C.75-3.98437.75-3.98437.75-3.64062v2.40625c0 .32812 0 .5625-.03125.75-.04687.26562-.1875.28125-.5.3125Zm0 0"/><path id="u" d="M.1875 0h1.48438v-.17187c-.4375-.03126-.45313-.04688-.45313-.35938v-1.42187c0-.15626 0-.23438.04688-.32813.125-.23437.39062-.4375.71875-.4375.53125 0 .59375.375.59375.75v1.4375c0 .3125-.01563.32813-.46875.35938V0h1.48437v-.17187c-.4375-.03126-.45312-.04688-.45312-.35938v-1.42187c0-.15626.01562-.23438.04687-.32813.09375-.25.34375-.4375.6875-.4375.39063 0 .625.20313.625.75v1.4375c0 .3125-.03125.32813-.46875.35938V0h1.5v-.17187c-.4375-.03126-.46875-.04688-.46875-.35938v-1.54687c0-.625-.32812-.96875-.90625-.96875-.5 0-.84375.32812-1.0625.45312-.15625-.28125-.39062-.45312-.8125-.45312-.46875 0-.84375.29687-1.0625.45312l-.04687-.45312-.95313.15625V-2.75l.23438.03125c.15625.03125.20312.04688.20312.28125v1.90625c0 .3125-.01562.32813-.46875.35938Zm0 0"/><path id="v" d="m.125-4.20312.23438.01562c.15625.01563.1875.04688.1875.28125v3.9375l.10937.04688.25-.23438c.20313.125.46875.23438.92188.23438.79687 0 1.51562-.39063 1.51562-1.64063 0-.375-.07812-1.48437-1.17187-1.48437-.46875 0-.82813.29687-1.04688.42187v-1.84375l-.04687-.04687-.95313.15625Zm1 3.21875v-.96875c0-.15626 0-.25.04688-.34375.15624-.29688.40625-.42188.75-.42188.25 0 .78125.14063.78125 1.20313 0 .89062-.26563 1.375-.875 1.375q-.4922 0-.65625-.46875C1.125-.71875 1.125-.84375 1.125-.98437m0 0"/><path id="w" d="M.29688-1.42187c0 .89062.46875 1.5 1.28125 1.5.32812 0 .60937-.15625.9375-.42188v.29688L2.5625 0h.98438v-.17187c-.4375-.03126-.45313-.04688-.45313-.35938v-3.9375l-.04687-.04687-.95313.15625v.15625l.23438.01562c.15625.01563.1875.04688.1875.28125v1C2.34375-3 2.125-3.04687 1.84375-3.04687c-.5 0-.875.15625-1.125.42187-.26562.26563-.42187.67188-.42187 1.20313M.9375-1.5c0-.79687.28125-1.34375.90625-1.34375.28125 0 .51563.14063.625.39063.04688.09375.04688.1875.04688.34375v1.07812c0 .125 0 .23438-.03125.34375-.125.3125-.39063.4375-.71875.4375C1.21875-.25.9375-.79687.9375-1.5m0 0"/><path id="x" d="m.4375-2.96875.10938.09375c.29687-.28125.71875-.6875.71875-1.10937 0-.34375-.20313-.53125-.40625-.53125-.1875 0-.29688.14062-.29688.29687 0 .21875.20313.34375.20313.57813 0 .21875-.14063.45312-.32813.67187m0 0"/><path id="y" d="m1.21875-3.42187.09375.125.92188-.5c.17187-.10938.34375-.20313.34375-.34375 0-.10938-.15625-.26563-.25-.26563s-.20313.07813-.375.26563ZM.29688-1.46875C.29688-.5.71875.07813 1.70313.07813c.67187 0 1.01562-.375 1.1875-.85938L2.70313-.875c-.17188.34375-.40625.64063-.875.64063-.76563 0-.90625-.73438-.89063-1.35938h1.75c.125 0 .23438-.03125.23438-.23437 0-.35938-.10938-1.21875-1.23438-1.21875-.9375 0-1.39062.67187-1.39062 1.57812m.64062-.35937c0-.25.09375-1.01563.71875-1.01563.5625 0 .64063.57813.64063.8125 0 .125-.04688.20313-.21875.20313Zm0 0"/><path id="z" d="M.73438-4.14062c0 .14062.15624.23437.34375.34375l.92187.5.07813-.125-.71875-.71875c-.17188-.1875-.28126-.26563-.39063-.26563-.09375 0-.23437.15625-.23437.26563m-.4375 2.67187C.29688-.5.71875.07813 1.70313.07813c.67187 0 1.01562-.375 1.1875-.85938L2.70313-.875c-.17188.34375-.40625.64063-.875.64063-.76563 0-.90625-.73438-.89063-1.35938h1.75c.125 0 .23438-.03125.23438-.23437 0-.35938-.10938-1.21875-1.23438-1.21875-.9375 0-1.39062.67187-1.39062 1.57812m.64062-.35937c0-.25.09375-1.01563.71875-1.01563.5625 0 .64063.57813.64063.8125 0 .125-.04688.20313-.21875.20313Zm0 0"/><path id="A" d="M0-2.79687c.29688.01562.34375.04687.4375.26562.17188.40625.29688.79688.45313 1.21875L1.35938 0h.4375l.54687-1.46875c.17188-.46875.35938-.875.4375-1.07812.09375-.20313.15625-.23438.4375-.25v-.1875H2.0625v.1875l.29688.01562c.09375.01563.125.09375.09375.17188-.04688.20312-.15625.54687-.3125.9375l-.40625 1.125-.375-1.03125c-.125-.34375-.25-.6875-.35938-1.01563q-.0703-.16406.09375-.1875l.28125-.01562v-.1875H0Zm0 0"/><path id="B" d="m.28125-1.01562.0625.79687c.21875.1875.59375.29688.95313.29688.71875 0 1.14062-.39063 1.14062-.90625 0-.53125-.32812-.78125-.96875-.96875C1.21875-1.875.82813-2 .82813-2.34375c0-.32812.23437-.5.54687-.5.4375 0 .64063.34375.6875.70313h.17188v-.70313C2.03125-3 1.71875-3.04687 1.45313-3.04687c-.65625 0-1.10938.29687-1.10938.875 0 .51562.40625.73437.92188.89062.26562.07813.65625.21875.65625.64063 0 .29687-.25.5-.5625.5-.5 0-.78125-.35938-.90625-.875Zm0 0"/></defs><path fill="none" stroke="#000" stroke-miterlimit="10" stroke-width=".39781" d="M29.11328 142.33203h147.1484m-147.1484 0V18.15237"/><path stroke="#000" stroke-miterlimit="10" stroke-width=".39781" d="M29.11328 14.32031c-.1289.47266-.84375 2.53907-1.625 3.83203h3.2461c-.77735-1.29296-1.4961-3.35937-1.6211-3.83203Zm0 0"/><path fill="none" stroke="#000" stroke-miterlimit="10" stroke-opacity=".5" stroke-width=".39781" d="M65.90624 134.97656v14.71484m36.79296-14.71484v14.71484m36.79687-14.71484v14.71484"/><use xlink:href="#a" x="54.87286" y="162.66354"/><use xlink:href="#b" x="61.71231" y="162.66354"/><use xlink:href="#c" x="67.95703" y="162.66354"/><use xlink:href="#d" x="72.77955" y="162.66354"/><use xlink:href="#e" x="89.65656" y="162.66354"/><use xlink:href="#f" x="97.23296" y="162.66354"/><use xlink:href="#g" x="104.24049" y="162.66354"/><use xlink:href="#b" x="109.52845" y="162.66354"/><use xlink:href="#h" x="127.16852" y="163.27149"/><use xlink:href="#i" x="134.87421" y="163.27149"/><use xlink:href="#b" x="138.26162" y="163.27149"/><use xlink:href="#j" x="144.50633" y="163.27149"/><path fill="none" stroke="#000" stroke-miterlimit="10" stroke-opacity=".5" stroke-width=".39781" d="M36.46875 105.54688H21.7539"/><use xlink:href="#k" x="10.74836" y="109.52766"/><path fill="none" stroke="#000" stroke-miterlimit="10" stroke-opacity=".5" stroke-width=".39781" d="M36.46875 68.75783H21.7539"/><use xlink:href="#l" x="4.30953" y="72.80533"/><use xlink:href="#m" x="10.74818" y="72.80533"/><path fill="none" stroke="#000" stroke-miterlimit="10" stroke-opacity=".5" stroke-width=".39781" d="M36.46875 31.97268H21.7539"/><use xlink:href="#l" x="4.30953" y="36.01112"/><use xlink:href="#k" x="10.74818" y="36.01112"/><use xlink:href="#n" x="180.85644" y="144.54096"/><use xlink:href="#o" x="184.93554" y="144.54096"/><use xlink:href="#p" x="188.4393" y="144.54096"/><use xlink:href="#q" x="192.11761" y="144.54096"/><use xlink:href="#r" x="193.81131" y="144.54096"/><use xlink:href="#p" x="196.93367" y="144.54096"/><use xlink:href="#s" x="200.61197" y="144.54096"/><use xlink:href="#t" x="6.15134" y="8.9161"/><use xlink:href="#o" x="10.70881" y="8.9161"/><use xlink:href="#u" x="14.21258" y="8.9161"/><use xlink:href="#v" x="19.81731" y="8.9161"/><use xlink:href="#s" x="23.45036" y="8.9161"/><use xlink:href="#r" x="25.68708" y="8.9161"/><use xlink:href="#w" x="30.16698" y="8.9161"/><use xlink:href="#x" x="33.65782" y="8.9161"/><use xlink:href="#y" x="35.34505" y="8.9161"/><use xlink:href="#q" x="38.46741" y="8.9161"/><use xlink:href="#z" x="40.16111" y="8.9161"/><use xlink:href="#A" x="43.28347" y="8.9161"/><use xlink:href="#r" x="46.30886" y="8.9161"/><use xlink:href="#B" x="49.43122" y="8.9161"/><path fill="#7fbfbf" stroke="#000" stroke-miterlimit="10" stroke-width=".39781" d="M47.51171 142.33203V83.47658h36.78906v58.85545Zm0 0"/><path fill="#f57fc5" stroke="#000" stroke-miterlimit="10" stroke-width=".39781" d="M84.30858 142.33203v-29.42577h36.78515v29.42577Zm0 0"/><path fill="#7fd6f7" stroke="#000" stroke-miterlimit="10" stroke-width=".39781" d="M121.10154 142.33203V54.043h36.78906v88.28904Zm0 0"/></svg>