<svg xmlns="http://www.w3.org/2000/svg" xmlns:xlink="http://www.w3.org/1999/xlink" width="409.189pt" height="96.873pt" viewBox="0 0 409.189 96.873"><defs><clipPath id="a"><path d="M21.6211 65H33v14.96094H21.6211Zm0 0"/></clipPath><clipPath id="b"><path d="M25 65h15v14.96094H25Zm0 0"/></clipPath><clipPath id="c"><path d="M35 78h3v1.96094h-3Zm0 0"/></clipPath><clipPath id="d"><path d="M29 73h15v6.96094H29Zm0 0"/></clipPath><clipPath id="e"><path d="M33 69h14v10.96094H33Zm0 0"/></clipPath><clipPath id="f"><path d="M44 69h14v10.96094H44Zm0 0"/></clipPath><clipPath id="g"><path d="M62 65h15v14.96094H62Zm0 0"/></clipPath><clipPath id="h"><path d="M69 65h15v14.96094H69Zm0 0"/></clipPath><clipPath id="i"><path d="M73 69h15v10.96094H73Zm0 0"/></clipPath><clipPath id="j"><path d="M77 65h15v14.96094H77Zm0 0"/></clipPath><clipPath id="k"><path d="M106 69h15v10.96094h-15Zm0 0"/></clipPath><clipPath id="l"><path d="M136 65h14v14.96094h-14Zm0 0"/></clipPath><clipPath id="m"><path d="M139 65h15v14.96094h-15Zm0 0"/></clipPath><clipPath id="n"><path d="M147 65h14v14.96094h-14Zm0 0"/></clipPath><clipPath id="o"><path d="M150 69h15v10.96094h-15Zm0 0"/></clipPath><clipPath id="p"><path d="M158 69h14v10.96094h-14Zm0 0"/></clipPath><clipPath id="q"><path d="M161 65h15v14.96094h-15Zm0 0"/></clipPath><clipPath id="r"><path d="M169 65h15v14.96094h-15Zm0 0"/></clipPath><clipPath id="s"><path d="M176 65h15v14.96094h-15Zm0 0"/></clipPath><clipPath id="t"><path d="M180 65h15v14.96094h-15Zm0 0"/></clipPath><clipPath id="u"><path d="M211 78h4v1.96094h-4Zm0 0"/></clipPath><clipPath id="v"><path d="M205 73h15v6.96094h-15Zm0 0"/></clipPath><clipPath id="w"><path d="M228 65h14v14.96094h-14Zm0 0"/></clipPath><clipPath id="x"><path d="M235 65h15v14.96094h-15Zm0 0"/></clipPath><clipPath id="y"><path d="M250 69h14v10.96094h-14Zm0 0"/></clipPath><clipPath id="z"><path d="M253 69h15v10.96094h-15Zm0 0"/></clipPath><clipPath id="A"><path d="M264 65h15v14.96094h-15Zm0 0"/></clipPath><clipPath id="B"><path d="M268 69h15v10.96094h-15Zm0 0"/></clipPath><clipPath id="C"><path d="M279 65h15v14.96094h-15Zm0 0"/></clipPath><clipPath id="D"><path d="M283 65h15v14.96094h-15Zm0 0"/></clipPath><clipPath id="E"><path d="M294 65h15v14.96094h-15Zm0 0"/></clipPath><clipPath id="F"><path d="M319 65h15v14.96094h-15Zm0 0"/></clipPath><clipPath id="G"><path d="M327 69h15v10.96094h-15Zm0 0"/></clipPath><clipPath id="H"><path d="M345 65h15v14.96094h-15Zm0 0"/></clipPath><clipPath id="I"><path d="M349 65h15v14.96094h-15Zm0 0"/></clipPath><clipPath id="J"><path d="M375 65h14v14.96094h-14Zm0 0"/></clipPath><clipPath id="K"><path d="M378 58h11.41406v15H378Zm0 0"/></clipPath><clipPath id="L"><path d="M388 63h1.41406v4H388Zm0 0"/></clipPath><clipPath id="M"><path d="M382 58h7.41406v15H382Zm0 0"/></clipPath><path id="N" d="M.23438-2.03125c0 1.17188.375 2.10938 1.4375 2.10938s1.42187-.9375 1.42187-2.10938-.35937-2.10937-1.42187-2.10937-1.4375.9375-1.4375 2.10937m.78125 0c0-.85937.10937-1.85937.65625-1.85937.54687 0 .65625 1 .65625 1.85937 0 .85938-.10938 1.85938-.65625 1.85938-.54688 0-.65625-1-.65625-1.85938m0 0"/><path id="O" d="M.1875-.07812.26563 0h2.625L3.125-.92187l-.20312-.03126c-.14063.32813-.25.375-.5.375H.875c.09375-.28124.375-.67187 1-1.04687.64063-.40625 1.0625-.70312 1.0625-1.35937 0-.85938-.57812-1.15625-1.28125-1.15625-.8125 0-1.32812.45312-1.32812.875 0 .23437.26562.34375.42187.34375.10938 0 .17188-.0625.20313-.20313.09374-.4375.32812-.76562.67187-.76562.39063 0 .51563.34375.51563.78125 0 .53125-.21875.95312-.8125 1.45312C.53125-.98437.26563-.53125.1875-.07812m0 0"/><path id="P" d="m.125-1.21875.09375.14063H1.8125v.625c0 .17187-.0625.20312-.1875.21875l-.39062.03124V0h1.71875v-.20312l-.28125-.01563c-.125-.03125-.15625-.0625-.15625-.23437v-.625H3.125v-.34375h-.60937V-4.0625h-.59375C1.3125-3.17187.67188-2.15625.125-1.21875m.53125-.20312c.32813-.60938.73438-1.28125 1.15625-1.96875v1.96875Zm0 0"/><path id="Q" d="M.23438-1.92187c0 1.28125.45312 2 1.46875 2 .98437 0 1.45312-.60938 1.45312-1.39063 0-.84375-.53125-1.28125-1.17187-1.28125-.45313 0-.78125.28125-.98438.51563.01563-.95313.25-1.8125.8125-1.8125.26563 0 .45313.23437.5625.60937.01563.07813.07813.15625.20313.15625.14062 0 .39062-.10937.39062-.3125 0-.28125-.34375-.70312-1.10937-.70312-1 0-1.625.75-1.625 2.21875m.76562.5c0-.375.25-.76563.70313-.76563.35937 0 .6875.29688.6875.98438 0 .60937-.1875 1.03125-.65625 1.03125-.5 0-.73438-.5625-.73438-1.25m0 0"/><path id="R" d="M.21875-1.125c0 .75.54688 1.20313 1.45313 1.20313S3.10938-.375 3.10938-1.125c0-.59375-.35938-.9375-.8125-1.0625.35937-.10937.67187-.40625.67187-.89062 0-.6875-.53125-1.0625-1.29687-1.0625C.90625-4.14062.375-3.75.375-3.07812c0 .48437.29688.78125.65625.89062-.4375.125-.8125.46875-.8125 1.0625M1-1.10937c0-.53125.23438-.92188.67188-.92188s.65625.39063.65625.92188c0 .54687-.20313.9375-.65625.9375C1.21875-.17187 1-.5625 1-1.10937m.09375-1.98438c0-.46875.21875-.79687.57813-.79687.375 0 .5625.32812.5625.79687 0 .42188-.1875.79688-.5625.79688s-.57813-.375-.57813-.79688m0 0"/><path id="S" d="M.65625 0h2.07813v-.20312l-.46875-.03126C2.125-.25 2.0625-.29687 2.0625-.51561v-3.57813l-.04687-.04687-1.34375.23437v.17188l.48437.0625c.125.03125.17188.07812.17188.26562v2.89063c0 .21874-.0625.26562-.20313.28124l-.46875.03126Zm0 0"/><path id="T" d="m.3125.76563.15625.125c.29688-.28126.8125-.71875.8125-1.20313 0-.32812-.17187-.57812-.45312-.57812-.25 0-.375.17187-.375.32812 0 .21875.1875.34375.1875.59375C.64063.29688.5.54688.3125.76563m0 0"/></defs><path fill="#fff" stroke="#fff" stroke-miterlimit="10" stroke-width=".39771" d="M21.6211 79.96094V6.40234h367.78126v73.5586Zm0 0"/><path fill="none" stroke="#000" stroke-miterlimit="10" stroke-width=".39771" d="M21.6211 79.96094V6.40234h367.78126v73.5586Zm0 0"/><path fill="none" stroke="#ec008c" stroke-dasharray="2.9829121166 2.9829121166" stroke-miterlimit="10" stroke-width="1.19316" d="M21.6211 67.69922h367.78126"/><path d="M26.58984 72.60547c0-.71484-.57812-1.29297-1.28906-1.29297-.71484 0-1.29297.57813-1.29297 1.29297 0 .71094.57813 1.29297 1.29297 1.29297.71094 0 1.28906-.58203 1.28906-1.29297m0 0"/><g clip-path="url(#a)"><path fill="none" stroke="#000" stroke-miterlimit="10" stroke-width=".39771" d="M26.58984 72.60547c0-.71485-.57812-1.29297-1.28906-1.29297-.71484 0-1.29297.57812-1.29297 1.29297 0 .71094.57813 1.29297 1.29297 1.29297.71094 0 1.28906-.58203 1.28906-1.29297Zm0 0"/></g><path stroke="#000" stroke-miterlimit="10" stroke-width=".39771" d="M30.26953 65.25c0-.71485-.57812-1.29297-1.29297-1.29297s-1.29297.57812-1.29297 1.29297.57813 1.29297 1.29297 1.29297c.71485 0 1.29297-.57813 1.29297-1.29297Zm0 0"/><path d="M33.94922 72.60547c0-.71484-.58203-1.29297-1.29297-1.29297-.71484 0-1.29297.57813-1.29297 1.29297 0 .71094.57813 1.29297 1.29297 1.29297.71094 0 1.29297-.58203 1.29297-1.29297m0 0"/><g clip-path="url(#b)"><path fill="none" stroke="#000" stroke-miterlimit="10" stroke-width=".39771" d="M33.94922 72.60547c0-.71485-.58203-1.29297-1.29297-1.29297-.71484 0-1.29297.57812-1.29297 1.29297 0 .71094.57813 1.29297 1.29297 1.29297.71094 0 1.29297-.58203 1.29297-1.29297Zm0 0"/></g><g clip-path="url(#c)"><path d="M37.625 79.96094c0-.71485-.57812-1.29297-1.29297-1.29297s-1.29297.57812-1.29297 1.29297.57813 1.29297 1.29297 1.29297 1.29297-.57813 1.29297-1.29297m0 0"/></g><g clip-path="url(#d)"><path fill="none" stroke="#000" stroke-miterlimit="10" stroke-width=".39771" d="M37.625 79.96094c0-.71485-.57812-1.29297-1.29297-1.29297s-1.29297.57812-1.29297 1.29297.57813 1.29297 1.29297 1.29297c.71485 0 1.29297-.57813 1.29297-1.29297Zm0 0"/></g><path d="M41.30469 76.28125c0-.71484-.57813-1.29297-1.29297-1.29297s-1.29297.57813-1.29297 1.29297.57813 1.29297 1.29297 1.29297 1.29297-.57813 1.29297-1.29297m0 0"/><g clip-path="url(#e)"><path fill="none" stroke="#000" stroke-miterlimit="10" stroke-width=".39771" d="M41.30469 76.28125c0-.71484-.57813-1.29297-1.29297-1.29297s-1.29297.57813-1.29297 1.29297.57813 1.29297 1.29297 1.29297 1.29297-.57813 1.29297-1.29297Zm0 0"/></g><path stroke="#000" stroke-miterlimit="10" stroke-width=".39771" d="M44.98047 68.92578c0-.71094-.57812-1.29297-1.29297-1.29297-.71094 0-1.29297.58203-1.29297 1.29297 0 .71484.58203 1.29297 1.29297 1.29297.71485 0 1.29297-.57813 1.29297-1.29297Zm3.67969 0c0-.71094-.57813-1.29297-1.29297-1.29297s-1.29297.58203-1.29297 1.29297c0 .71484.57813 1.29297 1.29297 1.29297s1.29297-.57813 1.29297-1.29297Zm0 0"/><path d="M52.33594 76.28125c0-.71484-.57813-1.29297-1.29297-1.29297-.71094 0-1.29297.57813-1.29297 1.29297s.58203 1.29297 1.29297 1.29297c.71484 0 1.29297-.57813 1.29297-1.29297m0 0"/><g clip-path="url(#f)"><path fill="none" stroke="#000" stroke-miterlimit="10" stroke-width=".39771" d="M52.33594 76.28125c0-.71484-.57813-1.29297-1.29297-1.29297-.71094 0-1.29297.57813-1.29297 1.29297s.58203 1.29297 1.29297 1.29297c.71484 0 1.29297-.57813 1.29297-1.29297Zm0 0"/></g><path stroke="#000" stroke-miterlimit="10" stroke-width=".39771" d="M56.01563 61.57031c0-.71484-.57813-1.29297-1.29297-1.29297-.71485 0-1.29297.57813-1.29297 1.29297 0 .71485.57812 1.29297 1.29297 1.29297s1.29297-.57812 1.29297-1.29297ZM59.6914 65.25c0-.71485-.57812-1.29297-1.28905-1.29297-.71485 0-1.29297.57812-1.29297 1.29297s.57812 1.29297 1.29297 1.29297c.71093 0 1.28906-.57813 1.28906-1.29297Zm3.6797 0c0-.71485-.57813-1.29297-1.29297-1.29297-.71485 0-1.29297.57812-1.29297 1.29297s.57812 1.29297 1.29297 1.29297 1.29297-.57813 1.29297-1.29297Zm3.67968 3.67578c0-.71094-.58203-1.29297-1.29297-1.29297-.71484 0-1.29296.58203-1.29296 1.29297 0 .71484.57812 1.29297 1.29296 1.29297.71094 0 1.29297-.57813 1.29297-1.29297Zm0 0"/><path d="M70.72656 72.60547c0-.71484-.57812-1.29297-1.29297-1.29297s-1.29296.57813-1.29296 1.29297c0 .71094.57812 1.29297 1.29296 1.29297s1.29297-.58203 1.29297-1.29297m0 0"/><g clip-path="url(#g)"><path fill="none" stroke="#000" stroke-miterlimit="10" stroke-width=".39771" d="M70.72656 72.60547c0-.71485-.57812-1.29297-1.29296-1.29297s-1.29297.57812-1.29297 1.29297c0 .71094.57812 1.29297 1.29297 1.29297s1.29296-.58203 1.29296-1.29297Zm0 0"/></g><path stroke="#000" stroke-miterlimit="10" stroke-width=".39771" d="M74.40625 65.25c0-.71485-.58203-1.29297-1.29297-1.29297-.71484 0-1.29296.57812-1.29296 1.29297s.57812 1.29297 1.29296 1.29297c.71094 0 1.29297-.57813 1.29297-1.29297Zm0 0"/><path d="M78.08203 72.60547c0-.71484-.57812-1.29297-1.29297-1.29297-.71094 0-1.29297.57813-1.29297 1.29297 0 .71094.58204 1.29297 1.29297 1.29297.71485 0 1.29297-.58203 1.29297-1.29297m0 0"/><g clip-path="url(#h)"><path fill="none" stroke="#000" stroke-miterlimit="10" stroke-width=".39771" d="M78.08203 72.60547c0-.71485-.57812-1.29297-1.29296-1.29297-.71094 0-1.29297.57812-1.29297 1.29297 0 .71094.58203 1.29297 1.29297 1.29297.71484 0 1.29296-.58203 1.29296-1.29297Zm0 0"/></g><path d="M81.76172 76.28125c0-.71484-.57813-1.29297-1.29297-1.29297s-1.29297.57813-1.29297 1.29297.57813 1.29297 1.29297 1.29297 1.29297-.57813 1.29297-1.29297m0 0"/><g clip-path="url(#i)"><path fill="none" stroke="#000" stroke-miterlimit="10" stroke-width=".39771" d="M81.76172 76.28125c0-.71484-.57812-1.29297-1.29297-1.29297s-1.29297.57813-1.29297 1.29297.57813 1.29297 1.29297 1.29297c.71485 0 1.29297-.57813 1.29297-1.29297Zm0 0"/></g><path d="M85.4375 72.60547c0-.71484-.57812-1.29297-1.29297-1.29297-.71094 0-1.29297.57813-1.29297 1.29297 0 .71094.58203 1.29297 1.29297 1.29297.71484 0 1.29297-.58203 1.29297-1.29297m0 0"/><g clip-path="url(#j)"><path fill="none" stroke="#000" stroke-miterlimit="10" stroke-width=".39771" d="M85.4375 72.60547c0-.71485-.57812-1.29297-1.29297-1.29297-.71093 0-1.29296.57812-1.29296 1.29297 0 .71094.58203 1.29297 1.29296 1.29297.71485 0 1.29297-.58203 1.29297-1.29297Zm0 0"/></g><path stroke="#000" stroke-miterlimit="10" stroke-width=".39771" d="M89.1172 65.25c0-.71485-.57813-1.29297-1.29298-1.29297s-1.29297.57812-1.29297 1.29297.57813 1.29297 1.29297 1.29297c.71485 0 1.29297-.57813 1.29297-1.29297Zm3.67577-11.03516c0-.71484-.57812-1.29297-1.29297-1.29297-.71093 0-1.28906.57813-1.28906 1.29297 0 .71485.57813 1.29297 1.28906 1.29297.71485 0 1.29297-.57812 1.29297-1.29297Zm3.67969 7.35547c0-.71484-.57812-1.29297-1.29297-1.29297s-1.29297.57813-1.29297 1.29297c0 .71485.57813 1.29297 1.29297 1.29297.71485 0 1.29297-.57812 1.29297-1.29297Zm3.67969 0c0-.71484-.58203-1.29297-1.29297-1.29297-.71484 0-1.29297.57813-1.29297 1.29297 0 .71485.57813 1.29297 1.29297 1.29297.71094 0 1.29297-.57812 1.29297-1.29297Zm3.67578 3.67969c0-.71485-.57813-1.29297-1.29297-1.29297s-1.29297.57812-1.29297 1.29297.57813 1.29297 1.29297 1.29297 1.29297-.57813 1.29297-1.29297Zm3.67969 3.67578c0-.71094-.58203-1.29297-1.29297-1.29297-.71485 0-1.29297.58203-1.29297 1.29297 0 .71484.57812 1.29297 1.29297 1.29297.71094 0 1.29297-.57813 1.29297-1.29297ZM111.1836 65.25c0-.71485-.57813-1.29297-1.29297-1.29297s-1.29297.57812-1.29297 1.29297.57813 1.29297 1.29297 1.29297 1.29297-.57813 1.29297-1.29297Zm0 0"/><path d="M114.86328 76.28125c0-.71484-.57812-1.29297-1.29297-1.29297s-1.29297.57813-1.29297 1.29297.57813 1.29297 1.29297 1.29297c.71485 0 1.29297-.57813 1.29297-1.29297m0 0"/><g clip-path="url(#k)"><path fill="none" stroke="#000" stroke-miterlimit="10" stroke-width=".39771" d="M114.86329 76.28125c0-.71484-.57813-1.29297-1.29297-1.29297-.71485 0-1.29297.57813-1.29297 1.29297s.57812 1.29297 1.29297 1.29297 1.29297-.57813 1.29297-1.29297Zm0 0"/></g><path stroke="#000" stroke-miterlimit="10" stroke-width=".39771" d="M118.53907 65.25c0-.71485-.57813-1.29297-1.29297-1.29297-.71094 0-1.29297.57812-1.29297 1.29297s.58203 1.29297 1.29297 1.29297c.71484 0 1.29297-.57813 1.29297-1.29297Zm3.67969 3.67578c0-.71094-.57813-1.29297-1.29297-1.29297-.71485 0-1.29297.58203-1.29297 1.29297 0 .71484.57812 1.29297 1.29297 1.29297s1.29297-.57813 1.29297-1.29297Zm3.67578 0c0-.71094-.57813-1.29297-1.29297-1.29297-.71094 0-1.28906.58203-1.28906 1.29297 0 .71484.57812 1.29297 1.28906 1.29297.71484 0 1.29297-.57813 1.29297-1.29297Zm3.67968-3.67578c0-.71485-.57812-1.29297-1.29296-1.29297s-1.29297.57812-1.29297 1.29297.57812 1.29297 1.29297 1.29297 1.29296-.57813 1.29296-1.29297Zm3.67578 3.67578c0-.71094-.57812-1.29297-1.28906-1.29297-.71484 0-1.29297.58203-1.29297 1.29297 0 .71484.57813 1.29297 1.29297 1.29297.71094 0 1.28907-.57813 1.28907-1.29297Zm3.6797-7.35547c0-.71484-.57813-1.29297-1.29297-1.29297-.71485 0-1.29297.57813-1.29297 1.29297 0 .71485.57812 1.29297 1.29297 1.29297s1.29296-.57812 1.29296-1.29297Zm3.67968 3.67969c0-.71485-.58203-1.29297-1.29297-1.29297-.71484 0-1.29297.57812-1.29297 1.29297s.57813 1.29297 1.29297 1.29297c.71094 0 1.29297-.57813 1.29297-1.29297Zm0 0"/><path d="M144.28516 72.60547c0-.71484-.57813-1.29297-1.29297-1.29297-.71485 0-1.29297.57813-1.29297 1.29297 0 .71094.57812 1.29297 1.29297 1.29297s1.29297-.58203 1.29297-1.29297m0 0"/><g clip-path="url(#l)"><path fill="none" stroke="#000" stroke-miterlimit="10" stroke-width=".39771" d="M144.28516 72.60547c0-.71485-.57812-1.29297-1.29297-1.29297s-1.29297.57812-1.29297 1.29297c0 .71094.57813 1.29297 1.29297 1.29297.71485 0 1.29297-.58203 1.29297-1.29297Zm0 0"/></g><path d="M147.96484 72.60547c0-.71484-.57812-1.29297-1.29297-1.29297s-1.29296.57813-1.29296 1.29297c0 .71094.57812 1.29297 1.29297 1.29297s1.29296-.58203 1.29296-1.29297m0 0"/><g clip-path="url(#m)"><path fill="none" stroke="#000" stroke-miterlimit="10" stroke-width=".39771" d="M147.96485 72.60547c0-.71485-.57812-1.29297-1.29297-1.29297s-1.29297.57812-1.29297 1.29297c0 .71094.57813 1.29297 1.29297 1.29297.71485 0 1.29297-.58203 1.29297-1.29297Zm0 0"/></g><path stroke="#000" stroke-miterlimit="10" stroke-width=".39771" d="M151.64063 61.57031c0-.71484-.57812-1.29297-1.29297-1.29297-.71093 0-1.29297.57813-1.29297 1.29297 0 .71485.58204 1.29297 1.29297 1.29297.71485 0 1.29297-.57812 1.29297-1.29297Zm0 0"/><path d="M155.32031 72.60547c0-.71484-.57812-1.29297-1.29297-1.29297s-1.29297.57813-1.29297 1.29297c0 .71094.57813 1.29297 1.29297 1.29297.71485 0 1.29297-.58203 1.29297-1.29297m0 0"/><g clip-path="url(#n)"><path fill="none" stroke="#000" stroke-miterlimit="10" stroke-width=".39771" d="M155.32032 72.60547c0-.71485-.57813-1.29297-1.29297-1.29297s-1.29297.57812-1.29297 1.29297c0 .71094.57813 1.29297 1.29297 1.29297s1.29297-.58203 1.29297-1.29297Zm0 0"/></g><path d="M158.9961 76.28125c0-.71484-.57813-1.29297-1.29298-1.29297-.71093 0-1.29296.57813-1.29296 1.29297s.58203 1.29297 1.29297 1.29297c.71484 0 1.29296-.57813 1.29296-1.29297m0 0"/><g clip-path="url(#o)"><path fill="none" stroke="#000" stroke-miterlimit="10" stroke-width=".39771" d="M158.9961 76.28125c0-.71484-.57812-1.29297-1.29297-1.29297-.71094 0-1.29297.57813-1.29297 1.29297s.58203 1.29297 1.29297 1.29297c.71485 0 1.29297-.57813 1.29297-1.29297Zm0 0"/></g><path stroke="#000" stroke-miterlimit="10" stroke-width=".39771" d="M162.67579 61.57031c0-.71484-.57813-1.29297-1.29297-1.29297s-1.29297.57813-1.29297 1.29297c0 .71485.57813 1.29297 1.29297 1.29297s1.29297-.57812 1.29297-1.29297Zm0 0"/><path d="M166.35156 76.28125c0-.71484-.57812-1.29297-1.28906-1.29297-.71484 0-1.29297.57813-1.29297 1.29297s.57813 1.29297 1.29297 1.29297c.71094 0 1.28906-.57813 1.28906-1.29297m0 0"/><g clip-path="url(#p)"><path fill="none" stroke="#000" stroke-miterlimit="10" stroke-width=".39771" d="M166.35157 76.28125c0-.71484-.57813-1.29297-1.28906-1.29297-.71485 0-1.29297.57813-1.29297 1.29297s.57812 1.29297 1.29297 1.29297c.71093 0 1.28906-.57813 1.28906-1.29297Zm0 0"/></g><path d="M170.03125 72.60547c0-.71484-.57812-1.29297-1.29297-1.29297s-1.29297.57813-1.29297 1.29297c0 .71094.57813 1.29297 1.29297 1.29297s1.29297-.58203 1.29297-1.29297m0 0"/><g clip-path="url(#q)"><path fill="none" stroke="#000" stroke-miterlimit="10" stroke-width=".39771" d="M170.03126 72.60547c0-.71485-.57813-1.29297-1.29297-1.29297s-1.29297.57812-1.29297 1.29297c0 .71094.57813 1.29297 1.29297 1.29297s1.29297-.58203 1.29297-1.29297Zm0 0"/></g><path stroke="#000" stroke-miterlimit="10" stroke-width=".39771" d="M173.71095 65.25c0-.71485-.58204-1.29297-1.29297-1.29297-.71485 0-1.29297.57812-1.29297 1.29297s.57812 1.29297 1.29297 1.29297c.71093 0 1.29297-.57813 1.29297-1.29297Zm0 0"/><path d="M177.38672 72.60547c0-.71484-.57813-1.29297-1.29297-1.29297s-1.29297.57813-1.29297 1.29297c0 .71094.57813 1.29297 1.29297 1.29297s1.29297-.58203 1.29297-1.29297m0 0"/><g clip-path="url(#r)"><path fill="none" stroke="#000" stroke-miterlimit="10" stroke-width=".39771" d="M177.38673 72.60547c0-.71485-.57813-1.29297-1.29297-1.29297-.71485 0-1.29297.57812-1.29297 1.29297 0 .71094.57812 1.29297 1.29297 1.29297s1.29297-.58203 1.29297-1.29297Zm0 0"/></g><path stroke="#000" stroke-miterlimit="10" stroke-width=".39771" d="M181.06641 61.57031c0-.71484-.58203-1.29297-1.29296-1.29297-.71485 0-1.29297.57813-1.29297 1.29297 0 .71485.57812 1.29297 1.29297 1.29297.71093 0 1.29296-.57812 1.29296-1.29297Zm0 0"/><path d="M184.74219 72.60547c0-.71484-.57813-1.29297-1.29297-1.29297s-1.29297.57813-1.29297 1.29297c0 .71094.57813 1.29297 1.29297 1.29297s1.29297-.58203 1.29297-1.29297m0 0"/><g clip-path="url(#s)"><path fill="none" stroke="#000" stroke-miterlimit="10" stroke-width=".39771" d="M184.7422 72.60547c0-.71485-.57813-1.29297-1.29297-1.29297-.71485 0-1.29297.57812-1.29297 1.29297 0 .71094.57812 1.29297 1.29297 1.29297s1.29297-.58203 1.29297-1.29297Zm0 0"/></g><path d="M188.42188 72.60547c0-.71484-.57813-1.29297-1.29297-1.29297-.71485 0-1.29297.57813-1.29297 1.29297 0 .71094.57812 1.29297 1.29297 1.29297s1.29297-.58203 1.29297-1.29297m0 0"/><g clip-path="url(#t)"><path fill="none" stroke="#000" stroke-miterlimit="10" stroke-width=".39771" d="M188.42188 72.60547c0-.71485-.57812-1.29297-1.29297-1.29297s-1.29296.57812-1.29296 1.29297c0 .71094.57812 1.29297 1.29296 1.29297s1.29297-.58203 1.29297-1.29297Zm0 0"/></g><path stroke="#000" stroke-miterlimit="10" stroke-width=".39771" d="M192.09767 65.25c0-.71485-.57813-1.29297-1.29297-1.29297-.71094 0-1.29297.57812-1.29297 1.29297s.58203 1.29297 1.29297 1.29297c.71484 0 1.29297-.57813 1.29297-1.29297Zm3.67968-11.03516c0-.71484-.57812-1.29297-1.29297-1.29297s-1.29296.57813-1.29296 1.29297c0 .71485.57812 1.29297 1.29296 1.29297s1.29297-.57812 1.29297-1.29297Zm3.67578 7.35547c0-.71484-.57812-1.29297-1.29296-1.29297-.71094 0-1.28907.57813-1.28907 1.29297 0 .71485.57813 1.29297 1.28907 1.29297.71484 0 1.29296-.57812 1.29296-1.29297Zm3.67969 7.35547c0-.71094-.57812-1.29297-1.29297-1.29297s-1.29297.58203-1.29297 1.29297c0 .71484.57813 1.29297 1.29297 1.29297.71485 0 1.29297-.57813 1.29297-1.29297Zm3.67578 0c0-.71094-.57812-1.29297-1.28906-1.29297-.71484 0-1.29297.58203-1.29297 1.29297 0 .71484.57813 1.29297 1.29297 1.29297.71094 0 1.28906-.57813 1.28906-1.29297Zm3.6797-7.35547c0-.71484-.57813-1.29297-1.29298-1.29297s-1.29297.57813-1.29297 1.29297c0 .71485.57813 1.29297 1.29297 1.29297.71485 0 1.29297-.57812 1.29297-1.29297Zm0 0"/><g clip-path="url(#u)"><path d="M214.16797 79.96094c0-.71485-.58203-1.29297-1.29297-1.29297-.71484 0-1.29297.57812-1.29297 1.29297s.57813 1.29297 1.29297 1.29297c.71094 0 1.29297-.57813 1.29297-1.29297m0 0"/></g><g clip-path="url(#v)"><path fill="none" stroke="#000" stroke-miterlimit="10" stroke-width=".39771" d="M214.16798 79.96094c0-.71485-.58203-1.29297-1.29297-1.29297-.71484 0-1.29297.57812-1.29297 1.29297s.57813 1.29297 1.29297 1.29297c.71094 0 1.29297-.57813 1.29297-1.29297Zm0 0"/></g><path stroke="#000" stroke-miterlimit="10" stroke-width=".39771" d="M217.84376 65.25c0-.71485-.57812-1.29297-1.29297-1.29297s-1.29297.57812-1.29297 1.29297.57813 1.29297 1.29297 1.29297c.71485 0 1.29297-.57813 1.29297-1.29297Zm3.67969 3.67578c0-.71094-.57813-1.29297-1.29297-1.29297-.71485 0-1.29297.58203-1.29297 1.29297 0 .71484.57812 1.29297 1.29297 1.29297s1.29297-.57813 1.29297-1.29297Zm3.67578-3.67578c0-.71485-.57813-1.29297-1.29297-1.29297-.71094 0-1.29297.57812-1.29297 1.29297s.58203 1.29297 1.29297 1.29297c.71484 0 1.29297-.57813 1.29297-1.29297Zm3.67969 0c0-.71485-.57813-1.29297-1.29297-1.29297-.71485 0-1.29297.57812-1.29297 1.29297s.57812 1.29297 1.29297 1.29297 1.29297-.57813 1.29297-1.29297Zm3.67578 0c0-.71485-.57813-1.29297-1.29297-1.29297-.71094 0-1.28906.57812-1.28906 1.29297s.57812 1.29297 1.28906 1.29297c.71484 0 1.29297-.57813 1.29297-1.29297Zm0 0"/><path d="M236.23438 72.60547c0-.71484-.57813-1.29297-1.29297-1.29297-.71485 0-1.29297.57813-1.29297 1.29297 0 .71094.57812 1.29297 1.29297 1.29297s1.29297-.58203 1.29297-1.29297m0 0"/><g clip-path="url(#w)"><path fill="none" stroke="#000" stroke-miterlimit="10" stroke-width=".39771" d="M236.23439 72.60547c0-.71485-.57813-1.29297-1.29297-1.29297-.71485 0-1.29297.57812-1.29297 1.29297 0 .71094.57812 1.29297 1.29297 1.29297s1.29297-.58203 1.29297-1.29297Zm0 0"/></g><path stroke="#000" stroke-miterlimit="10" stroke-width=".39771" d="M239.91017 65.25c0-.71485-.57813-1.29297-1.28907-1.29297-.71484 0-1.29296.57812-1.29296 1.29297s.57812 1.29297 1.29296 1.29297c.71094 0 1.28907-.57813 1.28907-1.29297Zm0 0"/><path d="M243.58984 72.60547c0-.71484-.57812-1.29297-1.29297-1.29297s-1.29296.57813-1.29296 1.29297c0 .71094.57812 1.29297 1.29297 1.29297s1.29296-.58203 1.29296-1.29297m0 0"/><g clip-path="url(#x)"><path fill="none" stroke="#000" stroke-miterlimit="10" stroke-width=".39771" d="M243.58985 72.60547c0-.71485-.57812-1.29297-1.29296-1.29297s-1.29297.57812-1.29297 1.29297c0 .71094.57812 1.29297 1.29297 1.29297s1.29296-.58203 1.29296-1.29297Zm0 0"/></g><path stroke="#000" stroke-miterlimit="10" stroke-width=".39771" d="M247.26954 61.57031c0-.71484-.58203-1.29297-1.29297-1.29297-.71484 0-1.29296.57813-1.29296 1.29297 0 .71485.57812 1.29297 1.29296 1.29297.71094 0 1.29297-.57812 1.29297-1.29297Zm3.67578-7.35547c0-.71484-.57812-1.29297-1.29296-1.29297s-1.29297.57813-1.29297 1.29297c0 .71485.57812 1.29297 1.29297 1.29297s1.29296-.57812 1.29296-1.29297Zm3.67969 3.67969c0-.71484-.58203-1.29297-1.29297-1.29297-.71484 0-1.29297.57813-1.29297 1.29297 0 .71094.57813 1.29297 1.29297 1.29297.71094 0 1.29297-.58203 1.29297-1.29297Zm0 0"/><path d="M258.30078 76.28125c0-.71484-.57812-1.29297-1.29297-1.29297-.71094 0-1.29297.57813-1.29297 1.29297s.58203 1.29297 1.29297 1.29297c.71485 0 1.29297-.57813 1.29297-1.29297m0 0"/><g clip-path="url(#y)"><path fill="none" stroke="#000" stroke-miterlimit="10" stroke-width=".39771" d="M258.3008 76.28125c0-.71484-.57813-1.29297-1.29298-1.29297-.71093 0-1.29296.57813-1.29296 1.29297s.58203 1.29297 1.29296 1.29297c.71485 0 1.29297-.57813 1.29297-1.29297Zm0 0"/></g><path d="M261.98047 76.28125c0-.71484-.57813-1.29297-1.29297-1.29297s-1.29297.57813-1.29297 1.29297.57813 1.29297 1.29297 1.29297 1.29297-.57813 1.29297-1.29297m0 0"/><g clip-path="url(#z)"><path fill="none" stroke="#000" stroke-miterlimit="10" stroke-width=".39771" d="M261.98048 76.28125c0-.71484-.57812-1.29297-1.29297-1.29297s-1.29297.57813-1.29297 1.29297.57813 1.29297 1.29297 1.29297c.71485 0 1.29297-.57813 1.29297-1.29297Zm0 0"/></g><path stroke="#000" stroke-miterlimit="10" stroke-width=".39771" d="M265.65626 68.92578c0-.71094-.57812-1.29297-1.29297-1.29297-.71093 0-1.29297.58203-1.29297 1.29297 0 .71484.58204 1.29297 1.29297 1.29297.71485 0 1.29297-.57813 1.29297-1.29297Zm3.67969 0c0-.71094-.57813-1.29297-1.29297-1.29297s-1.29297.58203-1.29297 1.29297c0 .71484.57813 1.29297 1.29297 1.29297s1.29297-.57813 1.29297-1.29297Zm0 0"/><path d="M273.01172 72.60547c0-.71484-.57813-1.29297-1.29297-1.29297-.71094 0-1.28906.57813-1.28906 1.29297 0 .71094.57812 1.29297 1.28906 1.29297.71484 0 1.29297-.58203 1.29297-1.29297m0 0"/><g clip-path="url(#A)"><path fill="none" stroke="#000" stroke-miterlimit="10" stroke-width=".39771" d="M273.01173 72.60547c0-.71485-.57812-1.29297-1.29297-1.29297-.71093 0-1.28906.57812-1.28906 1.29297 0 .71094.57813 1.29297 1.28906 1.29297.71485 0 1.29297-.58203 1.29297-1.29297Zm0 0"/></g><path d="M276.6914 76.28125c0-.71484-.57812-1.29297-1.29296-1.29297s-1.29297.57813-1.29297 1.29297.57812 1.29297 1.29297 1.29297 1.29297-.57813 1.29297-1.29297m0 0"/><g clip-path="url(#B)"><path fill="none" stroke="#000" stroke-miterlimit="10" stroke-width=".39771" d="M276.69142 76.28125c0-.71484-.57813-1.29297-1.29297-1.29297s-1.29297.57813-1.29297 1.29297.57813 1.29297 1.29297 1.29297 1.29297-.57813 1.29297-1.29297Zm0 0"/></g><path stroke="#000" stroke-miterlimit="10" stroke-width=".39771" d="M280.3711 65.25c0-.71485-.58202-1.29297-1.29296-1.29297-.71485 0-1.29297.57812-1.29297 1.29297s.57812 1.29297 1.29297 1.29297c.71094 0 1.29297-.57813 1.29297-1.29297Zm3.67579-3.67969c0-.71484-.57813-1.29297-1.29297-1.29297s-1.29297.57813-1.29297 1.29297c0 .71485.57813 1.29297 1.29297 1.29297s1.29297-.57812 1.29297-1.29297Zm0 0"/><path d="M287.72656 72.60547c0-.71484-.58203-1.29297-1.29297-1.29297-.71484 0-1.29296.57813-1.29296 1.29297 0 .71094.57812 1.29297 1.29296 1.29297.71094 0 1.29297-.58203 1.29297-1.29297m0 0"/><g clip-path="url(#C)"><path fill="none" stroke="#000" stroke-miterlimit="10" stroke-width=".39771" d="M287.72658 72.60547c0-.71485-.58204-1.29297-1.29297-1.29297-.71485 0-1.29297.57812-1.29297 1.29297 0 .71094.57812 1.29297 1.29297 1.29297.71093 0 1.29297-.58203 1.29297-1.29297Zm0 0"/></g><path d="M291.40234 72.60547c0-.71484-.57812-1.29297-1.29296-1.29297s-1.29297.57813-1.29297 1.29297c0 .71094.57812 1.29297 1.29296 1.29297s1.29297-.58203 1.29297-1.29297m0 0"/><g clip-path="url(#D)"><path fill="none" stroke="#000" stroke-miterlimit="10" stroke-width=".39771" d="M291.40236 72.60547c0-.71485-.57813-1.29297-1.29297-1.29297-.71485 0-1.29297.57812-1.29297 1.29297 0 .71094.57812 1.29297 1.29297 1.29297s1.29297-.58203 1.29297-1.29297Zm0 0"/></g><path stroke="#000" stroke-miterlimit="10" stroke-width=".39771" d="M295.08205 65.25c0-.71485-.57813-1.29297-1.29297-1.29297-.71485 0-1.29297.57812-1.29297 1.29297s.57812 1.29297 1.29297 1.29297 1.29297-.57813 1.29297-1.29297Zm3.67578-3.67969c0-.71484-.57813-1.29297-1.29297-1.29297-.71094 0-1.29297.57813-1.29297 1.29297 0 .71485.58203 1.29297 1.29297 1.29297.71484 0 1.29297-.57812 1.29297-1.29297Zm0 0"/><path d="M302.4375 72.60547c0-.71484-.57812-1.29297-1.29297-1.29297s-1.29297.57813-1.29297 1.29297c0 .71094.57813 1.29297 1.29297 1.29297.71485 0 1.29297-.58203 1.29297-1.29297m0 0"/><g clip-path="url(#E)"><path fill="none" stroke="#000" stroke-miterlimit="10" stroke-width=".39771" d="M302.43751 72.60547c0-.71485-.57812-1.29297-1.29297-1.29297s-1.29296.57812-1.29296 1.29297c0 .71094.57812 1.29297 1.29296 1.29297s1.29297-.58203 1.29297-1.29297Zm0 0"/></g><path stroke="#000" stroke-miterlimit="10" stroke-width=".39771" d="M306.1133 68.92578c0-.71094-.57813-1.29297-1.29297-1.29297-.71094 0-1.28907.58203-1.28907 1.29297 0 .71484.57813 1.29297 1.28907 1.29297.71484 0 1.29297-.57813 1.29297-1.29297Zm3.67968-7.35547c0-.71484-.57812-1.29297-1.29297-1.29297s-1.29296.57813-1.29296 1.29297c0 .71485.57812 1.29297 1.29296 1.29297s1.29297-.57812 1.29297-1.29297Zm3.67578-7.35547c0-.71484-.57812-1.29297-1.28906-1.29297-.71484 0-1.29297.57813-1.29297 1.29297 0 .71485.57813 1.29297 1.29297 1.29297.71094 0 1.28906-.57812 1.28906-1.29297Zm3.67969 14.71094c0-.71094-.57812-1.29297-1.29297-1.29297s-1.29297.58203-1.29297 1.29297c0 .71484.57813 1.29297 1.29297 1.29297.71485 0 1.29297-.57813 1.29297-1.29297Zm3.67969 0c0-.71094-.58203-1.29297-1.29297-1.29297-.71484 0-1.29297.58203-1.29297 1.29297 0 .71484.57813 1.29297 1.29297 1.29297.71094 0 1.29297-.57813 1.29297-1.29297Zm3.67578-3.67578c0-.71485-.57812-1.29297-1.29297-1.29297s-1.29297.57812-1.29297 1.29297.57813 1.29297 1.29297 1.29297c.71485 0 1.29297-.57813 1.29297-1.29297Zm0 0"/><path d="M328.1836 72.60547c0-.71484-.57813-1.29297-1.29298-1.29297s-1.29296.57813-1.29296 1.29297c0 .71094.57812 1.29297 1.29296 1.29297s1.29297-.58203 1.29297-1.29297m0 0"/><g clip-path="url(#F)"><path fill="none" stroke="#000" stroke-miterlimit="10" stroke-width=".39771" d="M328.18361 72.60547c0-.71485-.57813-1.29297-1.29297-1.29297s-1.29297.57812-1.29297 1.29297c0 .71094.57813 1.29297 1.29297 1.29297s1.29297-.58203 1.29297-1.29297Zm0 0"/></g><path stroke="#000" stroke-miterlimit="10" stroke-width=".39771" d="M331.8594 65.25c0-.71485-.57813-1.29297-1.29298-1.29297-.71094 0-1.29297.57812-1.29297 1.29297s.58203 1.29297 1.29297 1.29297c.71485 0 1.29297-.57813 1.29297-1.29297Zm0 0"/><path d="M335.53906 76.28125c0-.71484-.57812-1.29297-1.29297-1.29297s-1.29296.57813-1.29296 1.29297.57812 1.29297 1.29296 1.29297 1.29297-.57813 1.29297-1.29297m0 0"/><g clip-path="url(#G)"><path fill="none" stroke="#000" stroke-miterlimit="10" stroke-width=".39771" d="M335.53908 76.28125c0-.71484-.57813-1.29297-1.29297-1.29297s-1.29297.57813-1.29297 1.29297.57813 1.29297 1.29297 1.29297 1.29297-.57813 1.29297-1.29297Zm0 0"/></g><path stroke="#000" stroke-miterlimit="10" stroke-width=".39771" d="M339.21486 61.57031c0-.71484-.57813-1.29297-1.29297-1.29297-.71094 0-1.29297.57813-1.29297 1.29297 0 .71485.58203 1.29297 1.29297 1.29297.71484 0 1.29297-.57812 1.29297-1.29297Zm3.67969 7.35547c0-.71094-.57813-1.29297-1.29297-1.29297s-1.29297.58203-1.29297 1.29297c0 .71484.57813 1.29297 1.29297 1.29297s1.29297-.57813 1.29297-1.29297Zm3.67578-11.03125c0-.71484-.57813-1.29297-1.28906-1.29297-.71485 0-1.29297.57813-1.29297 1.29297 0 .71094.57812 1.29297 1.29297 1.29297.71093 0 1.28906-.58203 1.28906-1.29297Zm3.67969 3.67578c0-.71484-.57813-1.29297-1.29297-1.29297-.71485 0-1.29297.57813-1.29297 1.29297 0 .71485.57812 1.29297 1.29297 1.29297s1.29297-.57812 1.29297-1.29297Zm0 0"/><path d="M353.92969 72.60547c0-.71484-.58203-1.29297-1.29297-1.29297-.71485 0-1.29297.57813-1.29297 1.29297 0 .71094.57813 1.29297 1.29297 1.29297.71094 0 1.29297-.58203 1.29297-1.29297m0 0"/><g clip-path="url(#H)"><path fill="none" stroke="#000" stroke-miterlimit="10" stroke-width=".39771" d="M353.9297 72.60547c0-.71485-.58203-1.29297-1.29296-1.29297-.71485 0-1.29297.57812-1.29297 1.29297 0 .71094.57812 1.29297 1.29297 1.29297.71093 0 1.29296-.58203 1.29296-1.29297Zm0 0"/></g><path d="M357.60547 72.60547c0-.71484-.57813-1.29297-1.29297-1.29297s-1.29297.57813-1.29297 1.29297c0 .71094.57813 1.29297 1.29297 1.29297s1.29297-.58203 1.29297-1.29297m0 0"/><g clip-path="url(#I)"><path fill="none" stroke="#000" stroke-miterlimit="10" stroke-width=".39771" d="M357.60549 72.60547c0-.71485-.57813-1.29297-1.29297-1.29297-.71485 0-1.29297.57812-1.29297 1.29297 0 .71094.57812 1.29297 1.29297 1.29297s1.29297-.58203 1.29297-1.29297Zm0 0"/></g><path stroke="#000" stroke-miterlimit="10" stroke-width=".39771" d="M361.28517 65.25c0-.71485-.58203-1.29297-1.29297-1.29297-.71484 0-1.29296.57812-1.29296 1.29297s.57812 1.29297 1.29296 1.29297c.71094 0 1.29297-.57813 1.29297-1.29297Zm3.67578 0c0-.71485-.57812-1.29297-1.29296-1.29297-.71094 0-1.29297.57812-1.29297 1.29297s.58203 1.29297 1.29297 1.29297c.71484 0 1.29296-.57813 1.29296-1.29297Zm3.67969 3.67578c0-.71094-.57812-1.29297-1.29297-1.29297s-1.29296.58203-1.29296 1.29297c0 .71484.57812 1.29297 1.29296 1.29297s1.29297-.57813 1.29297-1.29297Zm3.67578-3.67578c0-.71485-.57812-1.29297-1.29296-1.29297-.71094 0-1.29297.57812-1.29297 1.29297s.58203 1.29297 1.29297 1.29297c.71484 0 1.29296-.57813 1.29296-1.29297Zm3.67969 3.67578c0-.71094-.57812-1.29297-1.29297-1.29297s-1.29297.58203-1.29297 1.29297c0 .71484.57813 1.29297 1.29297 1.29297.71485 0 1.29297-.57813 1.29297-1.29297Zm3.67579-7.35547c0-.71484-.57813-1.29297-1.29298-1.29297-.71093 0-1.28906.57813-1.28906 1.29297 0 .71485.57813 1.29297 1.28906 1.29297.71485 0 1.29297-.57812 1.29297-1.29297Zm0 0"/><path d="M383.35156 72.60547c0-.71484-.57812-1.29297-1.29297-1.29297s-1.29296.57813-1.29296 1.29297c0 .71094.57812 1.29297 1.29296 1.29297s1.29297-.58203 1.29297-1.29297m0 0"/><g clip-path="url(#J)"><path fill="none" stroke="#000" stroke-miterlimit="10" stroke-width=".39771" d="M383.35158 72.60547c0-.71485-.57812-1.29297-1.29297-1.29297s-1.29297.57812-1.29297 1.29297c0 .71094.57813 1.29297 1.29297 1.29297.71485 0 1.29297-.58203 1.29297-1.29297Zm0 0"/></g><path d="M387.02734 65.25c0-.71484-.57812-1.29297-1.28906-1.29297-.71484 0-1.29297.57813-1.29297 1.29297s.57813 1.29297 1.29297 1.29297c.71094 0 1.28906-.57813 1.28906-1.29297m0 0"/><g clip-path="url(#K)"><path fill="none" stroke="#000" stroke-miterlimit="10" stroke-width=".39771" d="M387.02736 65.25c0-.71485-.57812-1.29297-1.28906-1.29297-.71484 0-1.29297.57812-1.29297 1.29297s.57813 1.29297 1.29297 1.29297c.71094 0 1.28906-.57813 1.28906-1.29297Zm0 0"/></g><g clip-path="url(#L)"><path d="M390.70703 65.25c0-.71484-.57812-1.29297-1.29297-1.29297s-1.29297.57813-1.29297 1.29297.57813 1.29297 1.29297 1.29297c.71485 0 1.29297-.57813 1.29297-1.29297m0 0"/></g><g clip-path="url(#M)"><path fill="none" stroke="#000" stroke-miterlimit="10" stroke-width=".39771" d="M390.70705 65.25c0-.71485-.57813-1.29297-1.29297-1.29297s-1.29297.57812-1.29297 1.29297.57813 1.29297 1.29297 1.29297 1.29297-.57813 1.29297-1.29297Zm0 0"/></g><path fill="none" stroke="#000" stroke-miterlimit="10" stroke-width=".39771" d="M21.6211 76.28125v7.35547"/><use xlink:href="#N" x="19.95645" y="92.3345"/><path fill="none" stroke="#000" stroke-miterlimit="10" stroke-width=".39771" d="M95.17579 76.28125v7.35547"/><use xlink:href="#O" x="91.84796" y="92.3345"/><use xlink:href="#N" x="95.17636" y="92.3345"/><path fill="none" stroke="#000" stroke-miterlimit="10" stroke-width=".39771" d="M168.73438 76.28125v7.35547"/><use xlink:href="#P" x="165.40318" y="92.3345"/><use xlink:href="#N" x="168.73157" y="92.3345"/><path fill="none" stroke="#000" stroke-miterlimit="10" stroke-width=".39771" d="M242.28907 76.28125v7.35547"/><use xlink:href="#Q" x="238.95839" y="92.3345"/><use xlink:href="#N" x="242.28679" y="92.3345"/><path fill="none" stroke="#000" stroke-miterlimit="10" stroke-width=".39771" d="M315.84377 76.28125v7.35547"/><use xlink:href="#R" x="312.51361" y="92.3345"/><use xlink:href="#N" x="315.842" y="92.3345"/><path fill="none" stroke="#000" stroke-miterlimit="10" stroke-width=".39771" d="M389.40236 76.28125v7.35547"/><use xlink:href="#S" x="384.40412" y="92.3345"/><use xlink:href="#N" x="387.73252" y="92.3345"/><use xlink:href="#N" x="391.06092" y="92.3345"/><path fill="none" stroke="#000" stroke-miterlimit="10" stroke-width=".39771" d="M25.30078 79.96094h-7.35937"/><use xlink:href="#N" x="10.04809" y="81.989"/><path fill="none" stroke="#000" stroke-miterlimit="10" stroke-width=".39771" d="M25.30078 65.25h-7.35937"/><use xlink:href="#N" x="4.30846" y="66.86797"/><use xlink:href="#T" x="7.63686" y="66.86797"/><use xlink:href="#O" x="10.04752" y="66.86797"/><path fill="none" stroke="#000" stroke-miterlimit="10" stroke-width=".39771" d="M25.30078 50.53906h-7.35937"/><use xlink:href="#N" x="4.30846" y="52.15713"/><use xlink:href="#T" x="7.63686" y="52.15713"/><use xlink:href="#P" x="10.04752" y="52.15713"/><path fill="none" stroke="#000" stroke-miterlimit="10" stroke-width=".39771" d="M25.30078 35.82812h-7.35937"/><use xlink:href="#N" x="4.30846" y="37.44628"/><use xlink:href="#T" x="7.63686" y="37.44628"/><use xlink:href="#Q" x="10.04752" y="37.44628"/><path fill="none" stroke="#000" stroke-miterlimit="10" stroke-width=".39771" d="M25.30078 21.11328h-7.35937"/><use xlink:href="#N" x="4.30846" y="22.73444"/><use xlink:href="#T" x="7.63686" y="22.73444"/><use xlink:href="#R" x="10.04752" y="22.73444"/><path fill="none" stroke="#000" stroke-miterlimit="10" stroke-width=".39771" d="M25.30078 6.40234h-7.35937"/><use xlink:href="#S" x="10.04809" y="8.46971"/><path fill="none" stroke="#000" stroke-miterlimit="10" stroke-width=".39771" d="M385.72267 67.69922h7.35547"/><use xlink:href="#S" x="399.19261" y="66.95589"/><path fill="none" stroke="#000" stroke-miterlimit="10" stroke-width=".3555" d="M399.1914 67.84375h3.32813"/><use xlink:href="#Q" x="399.19261" y="72.505"/></svg>