<svg xmlns="http://www.w3.org/2000/svg" xmlns:xlink="http://www.w3.org/1999/xlink" width="350.292pt" height="129.008pt" viewBox="0 0 350.292 129.008"><defs><path id="f" d="M.23438-1.9375c0 1.10938.34375 2 1.35937 2 1.01563 0 1.35938-.89062 1.35938-2 0-1.125-.34375-2-1.35938-2-1.01562 0-1.35937.875-1.35937 2m.73437 0c0-.8125.10938-1.78125.625-1.78125.51563 0 .625.96875.625 1.78125s-.10937 1.78125-.625 1.78125c-.51562 0-.625-.96875-.625-1.78125m0 0"/><path id="g" d="m.29688.73438.14062.125c.29688-.28126.79688-.70313.79688-1.15625 0-.3125-.17188-.5625-.45313-.5625-.23437 0-.34375.1875-.34375.32812 0 .20313.17188.32813.17188.5625 0 .25-.125.5-.3125.70313m0 0"/><path id="h" d="M.23438-1.82812C.23438-.625.65625.0625 1.625.0625c.9375 0 1.39063-.57812 1.39063-1.32812 0-.79688-.51563-1.20313-1.125-1.20313-.42188 0-.75.26563-.9375.48438.01562-.90625.23437-1.73438.78125-1.73438.25 0 .4375.23438.53125.59375.01562.07813.07812.14063.1875.14063.14062 0 .375-.10938.375-.29688 0-.26562-.32813-.65625-1.04688-.65625-.95312 0-1.54687.70313-1.54687 2.10938m.71875.46875c0-.34375.23437-.73438.67187-.73438.34375 0 .65625.29688.65625.95313 0 .57812-.1875.98437-.64062.98437-.46875 0-.6875-.54687-.6875-1.20312m0 0"/><path id="i" d="m.125-1.17187.07813.14062h1.53125v.59375c0 .17188-.0625.20313-.17188.21875l-.39062.03125V0h1.65625v-.1875l-.28125-.03125c-.10938-.01562-.15625-.04687-.15625-.21875v-.59375h.57812v-.32812h-.57812V-3.875h-.54688C1.26563-3.03125.64063-2.0625.125-1.17187m.5-.1875c.3125-.57813.70313-1.21875 1.10938-1.875v1.875Zm0 0"/><path id="j" d="M.21875-1.07812c0 .71875.51563 1.14062 1.375 1.14062.85938 0 1.375-.42187 1.375-1.14062 0-.5625-.34375-.89063-.76562-1.01563.32812-.09375.625-.375.625-.84375 0-.64062-.5-1-1.23438-1-.73437 0-1.23437.35938-1.23437 1 0 .46875.28125.75.625.84375-.42188.125-.76563.45313-.76563 1.01563m.73438.01562c0-.5.21874-.875.64062-.875s.64063.375.64063.875c0 .51563-.20313.90625-.64063.90625S.95313-.54687.95313-1.0625m.09374-1.89062c0-.4375.20313-.76563.54688-.76563.35938 0 .54688.32813.54688.76563 0 .40625-.1875.76562-.54688.76562-.35937 0-.54687-.35937-.54687-.76562m0 0"/><path id="k" d="m.23438-2.98437.17187.01562.0625-.10937C.54688-3.23437.625-3.3125.875-3.3125h1.54688c-.0625.20313-.1875.57813-.65625 1.20313C1.28125-1.45312.9375-.82812.9375-.23437c0 .26562.1875.29687.40625.29687.17188 0 .34375-.03125.34375-.28125.01563-.8125.14063-1.39062.42188-1.84375.45312-.71875.71875-1.09375.875-1.75l-.0625-.0625H.4375Zm0 0"/><path id="l" d="M.17188-.07812.25 0h2.5l.21875-.875-.17187-.03125c-.15625.3125-.25.34375-.48438.34375H.82813c.09374-.25.375-.625.95312-1 .60938-.375 1.01563-.65625 1.01563-1.28125 0-.8125-.54688-1.09375-1.21875-1.09375-.78125 0-1.26563.42188-1.26563.82813 0 .21875.25.3125.39063.3125.125 0 .17187-.04688.20312-.17188.09375-.4375.3125-.75.64063-.75.375 0 .5.34375.5.75 0 .51563-.20313.90625-.78125 1.39063C.51563-.9375.25-.5.17188-.07812m0 0"/><path id="m" d="M.625 0h1.98438v-.1875l-.45313-.04687c-.125 0-.1875-.04688-.1875-.26563v-3.40625l-.04687-.03125-1.28125.20313v.17187l.46875.0625c.125.01563.15624.0625.15624.25V-.5c0 .21875-.0625.26563-.1875.26563L.625-.1875Zm0 0"/><path id="n" d="M.17188-.64062c0 .23437.35937.70312 1.28125.70312.875 0 1.42187-.40625 1.42187-1.15625 0-.79687-.70312-1-.96875-1.01562v-.03125c.3125-.0625.8125-.28125.8125-.84375 0-.71875-.60937-.95313-1.21875-.95313-.71875 0-1.1875.39063-1.1875.71875 0 .21875.25.3125.35938.3125.09374 0 .15624-.04687.1875-.15625.125-.40625.3125-.65625.625-.65625.40625 0 .5.42188.5.71875 0 .28125-.07813.76563-.54688.76563-.25 0-.4375-.0625-.53125-.0625s-.125.0625-.125.1875.03125.20312.125.20312.26563-.0625.53125-.0625c.40625 0 .6875.29688.6875.90625 0 .64063-.28125.90625-.65625.90625-.32812 0-.5625-.25-.70312-.67187C.73437-.9375.67187-1 .5625-1c-.15625 0-.39062.125-.39062.35938m0 0"/><path id="o" d="M.26563-.64062c0 .23437.34375.70312 1.21875.70312C2.5.0625 2.90625-.53125 2.90625-1.25c0-.6875-.40625-1.23437-1.25-1.23437-.34375 0-.6875.15625-.89062.3125l.125-.95313c.01562-.17187.04687-.1875.1875-.1875H2.5625l.17188-.5-.03125-.0625H.64063l-.04688.04688-.125 1.9375.1875.125c.23438-.28126.45313-.40625.75-.40625.39063 0 .75.28125.75 1 0 .59375-.20312 1.01562-.64062 1.01562-.34375 0-.53125-.25-.67188-.67187C.79688-.92188.73438-1 .625-1c-.15625 0-.35937.14063-.35937.35938m0 0"/><path id="p" d="M.20313-2.60937c0 .79687.5 1.20312 1.125 1.20312.42187 0 .75-.26562.9375-.48437C2.25-.98437 2.03125-.15626 1.48438-.15626c-.25 0-.4375-.23437-.53125-.59375C.9375-.82812.875-.89062.76563-.89062c-.14063 0-.375.09374-.375.29687 0 .26563.3125.65625 1.04687.65625 1 0 1.54688-.75 1.54688-2.10937 0-1.21875-.42188-1.89063-1.39063-1.89063-.9375 0-1.39062.57813-1.39062 1.32813m.73437-.125c0-.57813.1875-.98438.64063-.98438.46875 0 .6875.54688.6875 1.20313 0 .34375-.23438.73437-.67188.73437-.34375 0-.65625-.29687-.65625-.95312m0 0"/><clipPath id="a"><path d="M24.83984 52H36v15H24.83984Zm0 0"/></clipPath><clipPath id="b"><path d="M327 47h14.3086v14H327Zm0 0"/></clipPath><clipPath id="c"><path d="M330 52h11.3086v15H330Zm0 0"/></clipPath><clipPath id="d"><path d="M340 52h1.3086v4H340Zm0 0"/></clipPath><clipPath id="e"><path d="M334 47h7.3086v14H334Zm0 0"/></clipPath></defs><path fill="#FFF" stroke="#FFF" stroke-miterlimit="10" stroke-width=".39546" d="M24.83984 112.00008V6.51573h316.46868v105.48435Zm0 0"/><path fill="none" stroke="#000" stroke-miterlimit="10" stroke-width=".39546" d="M24.83984 112.00008V6.51573h316.46868v105.48435Zm0 0"/><path fill="none" stroke="#EC008C" stroke-dasharray="2.9660252271 2.9660252271" stroke-miterlimit="10" stroke-width="1.18641" d="M24.83984 53.98056h316.46868"/><path d="M29.58984 59.2539c0-.68359-.55078-1.23437-1.23437-1.23437-.6836 0-1.23438.55078-1.23438 1.23438s.55079 1.23437 1.23438 1.23437 1.23437-.55078 1.23437-1.23437m0 0"/><g clip-path="url(#a)"><path fill="none" stroke="#000" stroke-miterlimit="10" stroke-width=".39546" d="M29.58984 59.254c0-.6836-.55078-1.23438-1.23437-1.23438-.6836 0-1.23438.55078-1.23438 1.23438s.55078 1.23437 1.23438 1.23437 1.23437-.55078 1.23437-1.23437Zm0 0"/></g><path stroke="#000" stroke-miterlimit="10" stroke-width=".39546" d="M33.10547 53.98056c0-.67969-.55078-1.23437-1.23438-1.23437s-1.23437.55468-1.23437 1.23437c0 .6836.55078 1.23828 1.23437 1.23828.6836 0 1.23438-.55469 1.23438-1.23828ZM36.625 64.53525c0-.6836-.55469-1.23829-1.23828-1.23829-.6797 0-1.23438.5547-1.23438 1.23829 0 .67968.55469 1.23437 1.23438 1.23437.68359 0 1.23828-.55469 1.23828-1.23437Zm3.51562-15.82422c0-.6836-.55469-1.23437-1.23828-1.23437-.67969 0-1.23437.55078-1.23437 1.23437 0 .6836.55468 1.23437 1.23437 1.23437.6836 0 1.23828-.55078 1.23828-1.23437Zm3.51563 5.26953c0-.67969-.5547-1.23437-1.23438-1.23437-.6836 0-1.23828.55468-1.23828 1.23437 0 .6836.55469 1.23828 1.23828 1.23828.67969 0 1.23438-.55469 1.23438-1.23828Zm3.51562 5.27344c0-.6836-.55078-1.23438-1.23438-1.23438s-1.23828.55078-1.23828 1.23438.5547 1.23437 1.23828 1.23437c.6836 0 1.23438-.55078 1.23438-1.23437Zm3.51563-5.27344c0-.67969-.55079-1.23437-1.23438-1.23437s-1.23438.55468-1.23438 1.23437c0 .6836.55079 1.23828 1.23438 1.23828s1.23437-.55469 1.23437-1.23828Zm3.51952 5.27344c0-.6836-.55468-1.23438-1.23828-1.23438s-1.23437.55078-1.23437 1.23438.55078 1.23437 1.23437 1.23437c.6836 0 1.23828-.55078 1.23828-1.23437Zm3.51563-10.54297c0-.6836-.55469-1.23437-1.23828-1.23437-.67969 0-1.23438.55078-1.23438 1.23437 0 .6836.55469 1.23437 1.23438 1.23437.6836 0 1.23828-.55078 1.23828-1.23437Zm3.51562 5.26953c0-.67969-.55469-1.23437-1.23828-1.23437-.67969 0-1.23437.55468-1.23437 1.23437 0 .6836.55468 1.23828 1.23437 1.23828.6836 0 1.23828-.55469 1.23828-1.23828Zm3.51563-10.55078c0-.67969-.55469-1.23437-1.23438-1.23437-.6836 0-1.23828.55468-1.23828 1.23437 0 .6836.55469 1.23828 1.23828 1.23828.67969 0 1.23438-.55468 1.23438-1.23828Zm3.51562 21.10547c0-.6836-.55078-1.23829-1.23437-1.23829-.6836 0-1.23828.5547-1.23828 1.23829 0 .67968.55468 1.23437 1.23828 1.23437.68359 0 1.23437-.55469 1.23437-1.23437Zm3.51563-10.55469c0-.67969-.55079-1.23437-1.23438-1.23437s-1.23437.55468-1.23437 1.23437c0 .6836.55078 1.23828 1.23437 1.23828.6836 0 1.23438-.55469 1.23438-1.23828Zm3.51953 10.55469c0-.6836-.5547-1.23829-1.23829-1.23829s-1.23437.5547-1.23437 1.23829c0 .67968.55078 1.23437 1.23437 1.23437.6836 0 1.23829-.55469 1.23829-1.23437Zm3.51562-15.82422c0-.6836-.55469-1.23437-1.23828-1.23437-.67969 0-1.23438.55078-1.23438 1.23437 0 .6836.5547 1.23437 1.23438 1.23437.6836 0 1.23828-.55078 1.23828-1.23437Zm3.51562 5.26953c0-.67969-.55468-1.23437-1.23437-1.23437-.6836 0-1.23828.55468-1.23828 1.23437 0 .6836.55469 1.23828 1.23828 1.23828.67969 0 1.23437-.55469 1.23437-1.23828Zm3.51563 5.27344c0-.6836-.55469-1.23438-1.23438-1.23438-.68359 0-1.23828.55078-1.23828 1.23438s.55469 1.23437 1.23828 1.23437c.6797 0 1.23438-.55078 1.23438-1.23437Zm3.51562 5.28125c0-.6836-.55078-1.23829-1.23437-1.23829-.6836 0-1.23438.5547-1.23438 1.23829 0 .67968.55078 1.23437 1.23438 1.23437s1.23437-.55469 1.23437-1.23437Zm3.51563-15.82422c0-.6836-.55078-1.23437-1.23438-1.23437s-1.23437.55078-1.23437 1.23437c0 .6836.55078 1.23437 1.23437 1.23437.6836 0 1.23438-.55078 1.23438-1.23437Zm3.51953 5.26953c0-.67969-.55469-1.23437-1.23828-1.23437-.6797 0-1.23438.55468-1.23438 1.23437 0 .6836.55469 1.23828 1.23438 1.23828.68359 0 1.23828-.55469 1.23828-1.23828Zm3.51562-5.26953c0-.6836-.55469-1.23437-1.23828-1.23437-.67969 0-1.23437.55078-1.23437 1.23437 0 .6836.55468 1.23437 1.23437 1.23437.6836 0 1.23828-.55078 1.23828-1.23437Zm3.51563 15.82422c0-.6836-.5547-1.23829-1.23438-1.23829-.6836 0-1.23828.5547-1.23828 1.23829 0 .67968.55469 1.23437 1.23828 1.23437.67969 0 1.23438-.55469 1.23438-1.23437Zm3.51562-10.55469c0-.67969-.55078-1.23437-1.23437-1.23437-.6836 0-1.23829.55468-1.23829 1.23437 0 .6836.5547 1.23828 1.23829 1.23828s1.23437-.55469 1.23437-1.23828Zm3.51562 5.27344c0-.6836-.55078-1.23438-1.23437-1.23438-.6836 0-1.23438.55078-1.23438 1.23438s.55079 1.23437 1.23438 1.23437 1.23437-.55078 1.23437-1.23437Zm3.51563-5.27344c0-.67969-.55078-1.23437-1.23438-1.23437s-1.23437.55468-1.23437 1.23437c0 .6836.55078 1.23828 1.23437 1.23828.6836 0 1.23438-.55469 1.23438-1.23828Zm3.51953-5.26953c0-.6836-.55469-1.23437-1.23828-1.23437-.67969 0-1.23438.55078-1.23438 1.23437 0 .6836.55469 1.23437 1.23438 1.23437.68359 0 1.23828-.55078 1.23828-1.23437Zm3.51562 5.26953c0-.67969-.55468-1.23437-1.23828-1.23437-.67969 0-1.23437.55468-1.23437 1.23437 0 .6836.55468 1.23828 1.23437 1.23828.6836 0 1.23828-.55469 1.23828-1.23828Zm3.51563 5.27344c0-.6836-.5547-1.23438-1.23438-1.23438-.6836 0-1.23828.55078-1.23828 1.23438s.55469 1.23437 1.23828 1.23437c.67969 0 1.23438-.55078 1.23438-1.23437Zm3.51562-5.27344c0-.67969-.55078-1.23437-1.23437-1.23437-.6836 0-1.23829.55468-1.23829 1.23437 0 .6836.5547 1.23828 1.23829 1.23828s1.23437-.55469 1.23437-1.23828Zm3.51562-5.26953c0-.6836-.55078-1.23437-1.23437-1.23437-.6836 0-1.23437.55078-1.23437 1.23437 0 .6836.55078 1.23437 1.23437 1.23437.6836 0 1.23437-.55078 1.23437-1.23437Zm3.51953 21.09375c0-.6836-.55468-1.23438-1.23828-1.23438-.68359 0-1.23437.55078-1.23437 1.23438s.55078 1.23437 1.23437 1.23437c.6836 0 1.23829-.55078 1.23829-1.23437Zm3.51563-15.82422c0-.67969-.55469-1.23437-1.23828-1.23437-.67969 0-1.23438.55468-1.23438 1.23437 0 .6836.5547 1.23828 1.23438 1.23828.6836 0 1.23828-.55469 1.23828-1.23828Zm3.51562-5.26953c0-.6836-.55468-1.23437-1.23437-1.23437-.6836 0-1.23828.55078-1.23828 1.23437 0 .6836.55469 1.23437 1.23828 1.23437.67969 0 1.23437-.55078 1.23437-1.23437Zm3.51563 10.54297c0-.6836-.55469-1.23438-1.23438-1.23438-.6836 0-1.23828.55078-1.23828 1.23438s.55469 1.23437 1.23828 1.23437c.67969 0 1.23438-.55078 1.23438-1.23437Zm3.51562 5.28125c0-.6836-.55078-1.23829-1.23437-1.23829-.6836 0-1.23438.5547-1.23438 1.23829 0 .67968.55078 1.23437 1.23438 1.23437s1.23437-.55469 1.23437-1.23437Zm3.51563-10.55469c0-.67969-.55078-1.23437-1.23438-1.23437s-1.23437.55468-1.23437 1.23437c0 .6836.55078 1.23828 1.23437 1.23828.6836 0 1.23438-.55469 1.23438-1.23828Zm3.51953-5.26953c0-.6836-.5547-1.23437-1.23828-1.23437-.6797 0-1.23438.55078-1.23438 1.23437 0 .6836.55469 1.23437 1.23438 1.23437.68359 0 1.23828-.55078 1.23828-1.23437Zm3.51562 10.54297c0-.6836-.55469-1.23438-1.23828-1.23438-.67969 0-1.23437.55078-1.23437 1.23438s.55468 1.23437 1.23437 1.23437c.6836 0 1.23828-.55078 1.23828-1.23437Zm3.51562-5.27344c0-.67969-.55468-1.23437-1.23437-1.23437-.6836 0-1.23828.55468-1.23828 1.23437 0 .6836.55469 1.23828 1.23828 1.23828.67969 0 1.23437-.55469 1.23437-1.23828Zm3.51563 10.55469c0-.6836-.55469-1.23829-1.23438-1.23829-.68359 0-1.23828.5547-1.23828 1.23829 0 .67968.5547 1.23437 1.23828 1.23437.6797 0 1.23438-.55469 1.23438-1.23437Zm3.51562-15.82422c0-.6836-.55078-1.23437-1.23437-1.23437-.6836 0-1.23438.55078-1.23438 1.23437 0 .6836.55079 1.23437 1.23438 1.23437s1.23437-.55078 1.23437-1.23437Zm3.51563 10.54297c0-.6836-.55078-1.23438-1.23438-1.23438s-1.23437.55078-1.23437 1.23438.55078 1.23437 1.23437 1.23437c.6836 0 1.23438-.55078 1.23438-1.23437Zm3.51952-5.27344c0-.67969-.55468-1.23437-1.23827-1.23437-.67969 0-1.23438.55468-1.23438 1.23437 0 .6836.55469 1.23828 1.23438 1.23828.6836 0 1.23828-.55469 1.23828-1.23828Zm3.51563 15.82422c0-.6836-.55469-1.23438-1.23828-1.23438-.67969 0-1.23437.55078-1.23437 1.23438s.55468 1.23437 1.23437 1.23437c.6836 0 1.23828-.55078 1.23828-1.23437Zm3.51563-10.55078c0-.6836-.5547-1.23438-1.23438-1.23438-.6836 0-1.23828.55078-1.23828 1.23438s.55469 1.23437 1.23828 1.23437c.67969 0 1.23438-.55078 1.23438-1.23437Zm3.51562-5.27344c0-.67969-.55078-1.23437-1.23437-1.23437-.6836 0-1.23828.55468-1.23828 1.23437 0 .6836.55468 1.23828 1.23828 1.23828.68359 0 1.23437-.55469 1.23437-1.23828Zm3.51562 5.27344c0-.6836-.55078-1.23438-1.23437-1.23438-.6836 0-1.23437.55078-1.23437 1.23438s.55078 1.23437 1.23437 1.23437c.6836 0 1.23437-.55078 1.23437-1.23437Zm3.51954 5.28125c0-.6836-.5547-1.23829-1.23829-1.23829s-1.23437.5547-1.23437 1.23829c0 .67968.55078 1.23437 1.23437 1.23437.6836 0 1.23829-.55469 1.23829-1.23437Zm3.51562-10.55469c0-.67969-.55469-1.23437-1.23828-1.23437-.67969 0-1.23438.55468-1.23438 1.23437 0 .6836.5547 1.23828 1.23438 1.23828.6836 0 1.23828-.55469 1.23828-1.23828Zm3.51562 5.27344c0-.6836-.55468-1.23438-1.23437-1.23438-.6836 0-1.23828.55078-1.23828 1.23438s.55468 1.23437 1.23828 1.23437c.67969 0 1.23437-.55078 1.23437-1.23437Zm3.51562 15.82421c0-.6836-.55468-1.23828-1.23437-1.23828-.68359 0-1.23828.55469-1.23828 1.23828 0 .67969.55469 1.23438 1.23828 1.23438.6797 0 1.23438-.5547 1.23438-1.23438Zm3.51563-10.54296c0-.6836-.55078-1.23829-1.23437-1.23829-.6836 0-1.23438.5547-1.23438 1.23829 0 .67968.55078 1.23437 1.23438 1.23437s1.23437-.55469 1.23437-1.23437Zm3.51563 5.26953c0-.6836-.55078-1.23438-1.23438-1.23438s-1.23437.55078-1.23437 1.23438.55078 1.23437 1.23437 1.23437c.6836 0 1.23438-.55078 1.23438-1.23437Zm3.51953-10.55078c0-.6836-.55469-1.23438-1.23828-1.23438-.6797 0-1.23438.55078-1.23438 1.23438s.55469 1.23437 1.23438 1.23437c.68359 0 1.23828-.55078 1.23828-1.23437Zm3.51562-5.27344c0-.67969-.55469-1.23437-1.23828-1.23437-.67969 0-1.23437.55468-1.23437 1.23437 0 .6836.55468 1.23828 1.23437 1.23828.6836 0 1.23828-.55469 1.23828-1.23828Zm3.51563 10.55469c0-.6836-.5547-1.23829-1.23438-1.23829-.6836 0-1.23828.5547-1.23828 1.23829 0 .67968.55469 1.23437 1.23828 1.23437.67969 0 1.23438-.55469 1.23438-1.23437Zm3.51562-15.82422c0-.6836-.55469-1.23437-1.23438-1.23437-.68359 0-1.23828.55078-1.23828 1.23437 0 .6836.5547 1.23437 1.23828 1.23437.6797 0 1.23438-.55078 1.23438-1.23437Zm3.51562 5.26953c0-.67969-.55078-1.23437-1.23437-1.23437-.6836 0-1.23438.55468-1.23438 1.23437 0 .6836.55078 1.23828 1.23438 1.23828s1.23437-.55469 1.23437-1.23828Zm3.51562 5.27344c0-.6836-.55077-1.23438-1.23437-1.23438s-1.23437.55078-1.23437 1.23438.55078 1.23437 1.23437 1.23437c.6836 0 1.23438-.55078 1.23438-1.23437Zm3.51954-10.54297c0-.6836-.55469-1.23437-1.23828-1.23437-.67969 0-1.23438.55078-1.23438 1.23437 0 .6836.55469 1.23437 1.23438 1.23437.68359 0 1.23828-.55078 1.23828-1.23437Zm3.51562-5.28125c0-.67969-.55469-1.23437-1.23828-1.23437-.67969 0-1.23437.55468-1.23437 1.23437 0 .6836.55468 1.23828 1.23437 1.23828.6836 0 1.23828-.55468 1.23828-1.23828Zm3.51563 10.55078c0-.67969-.5547-1.23437-1.23438-1.23437-.6836 0-1.23828.55468-1.23828 1.23437 0 .6836.55469 1.23828 1.23828 1.23828.67969 0 1.23438-.55469 1.23438-1.23828Zm3.51562 5.27344c0-.6836-.55078-1.23438-1.23437-1.23438-.6836 0-1.23829.55078-1.23829 1.23438s.5547 1.23437 1.23829 1.23437 1.23437-.55078 1.23437-1.23437Zm3.51562-10.54297c0-.6836-.55078-1.23437-1.23437-1.23437-.6836 0-1.23438.55078-1.23438 1.23437 0 .6836.55079 1.23437 1.23438 1.23437s1.23437-.55078 1.23437-1.23437Zm3.51953-5.28125c0-.67969-.55468-1.23437-1.23828-1.23437-.68359 0-1.23437.55468-1.23437 1.23437 0 .6836.55078 1.23828 1.23437 1.23828.6836 0 1.23828-.55468 1.23828-1.23828Zm3.51563 10.55078c0-.67969-.55469-1.23437-1.23828-1.23437-.67969 0-1.23438.55468-1.23438 1.23437 0 .6836.5547 1.23828 1.23438 1.23828.6836 0 1.23828-.55469 1.23828-1.23828Zm3.51562-5.26953c0-.6836-.55468-1.23437-1.23437-1.23437-.6836 0-1.23828.55078-1.23828 1.23437 0 .6836.55469 1.23437 1.23828 1.23437.67969 0 1.23437-.55078 1.23437-1.23437Zm3.51563 10.54297c0-.6836-.55469-1.23438-1.23438-1.23438-.6836 0-1.23828.55078-1.23828 1.23438s.55469 1.23437 1.23828 1.23437c.67969 0 1.23438-.55078 1.23438-1.23437Zm3.51562-5.27344c0-.67969-.55078-1.23437-1.23437-1.23437-.6836 0-1.23828.55468-1.23828 1.23437 0 .6836.55468 1.23828 1.23828 1.23828s1.23437-.55469 1.23437-1.23828Zm3.51563-5.26953c0-.6836-.55078-1.23437-1.23438-1.23437s-1.23437.55078-1.23437 1.23437c0 .6836.55078 1.23437 1.23437 1.23437.6836 0 1.23438-.55078 1.23438-1.23437Zm3.51953-5.28125c0-.67969-.5547-1.23437-1.23828-1.23437-.6836 0-1.23438.55468-1.23438 1.23437 0 .6836.55078 1.23828 1.23438 1.23828s1.23828-.55468 1.23828-1.23828Zm3.51562 10.55078c0-.67969-.55469-1.23437-1.23828-1.23437-.67969 0-1.23438.55468-1.23438 1.23437 0 .6836.5547 1.23828 1.23438 1.23828.6836 0 1.23828-.55469 1.23828-1.23828Zm3.51562-5.26953c0-.6836-.55468-1.23437-1.23437-1.23437-.6836 0-1.23828.55078-1.23828 1.23437 0 .6836.55469 1.23437 1.23828 1.23437.67969 0 1.23437-.55078 1.23437-1.23437Zm3.51563 10.54297c0-.6836-.55469-1.23438-1.23438-1.23438-.68359 0-1.23828.55078-1.23828 1.23438s.5547 1.23437 1.23828 1.23437c.6797 0 1.23438-.55078 1.23438-1.23437Zm3.51562 5.28125c0-.6836-.55078-1.23829-1.23437-1.23829-.6836 0-1.23438.5547-1.23438 1.23829 0 .67968.55079 1.23437 1.23438 1.23437s1.23437-.55469 1.23437-1.23437Zm3.51563-10.55469c0-.67969-.55078-1.23437-1.23438-1.23437s-1.23437.55468-1.23437 1.23437c0 .6836.55078 1.23828 1.23437 1.23828.6836 0 1.23438-.55469 1.23438-1.23828Zm3.51953 15.82422c0-.6836-.55469-1.23438-1.23828-1.23438-.67969 0-1.23438.55078-1.23438 1.23438s.55469 1.23437 1.23438 1.23437c.6836 0 1.23828-.55078 1.23828-1.23437ZM300.3476 59.254c0-.6836-.5547-1.23438-1.23829-1.23438-.67969 0-1.23437.55078-1.23437 1.23438s.55468 1.23437 1.23437 1.23437c.6836 0 1.23828-.55078 1.23828-1.23437Zm3.51562-5.27344c0-.67969-.5547-1.23437-1.23438-1.23437-.6836 0-1.23828.55468-1.23828 1.23437 0 .6836.55469 1.23828 1.23828 1.23828.67969 0 1.23438-.55469 1.23438-1.23828Zm3.51562-5.26953c0-.6836-.55078-1.23437-1.23437-1.23437-.6836 0-1.23829.55078-1.23829 1.23437 0 .6836.5547 1.23437 1.23829 1.23437s1.23437-.55078 1.23437-1.23437Zm3.51562-5.28125c0-.67969-.55078-1.23437-1.23437-1.23437-.6836 0-1.23437.55468-1.23437 1.23437 0 .6836.55078 1.23828 1.23437 1.23828.6836 0 1.23437-.55468 1.23437-1.23828ZM314.414 59.254c0-.6836-.5547-1.23438-1.23829-1.23438s-1.23437.55078-1.23437 1.23438.55078 1.23437 1.23437 1.23437c.6836 0 1.23829-.55078 1.23829-1.23437Zm3.51562 10.55078c0-.6836-.55469-1.23438-1.23828-1.23438-.67969 0-1.23438.55078-1.23438 1.23438s.5547 1.23437 1.23438 1.23437c.6836 0 1.23828-.55078 1.23828-1.23437Zm3.51562-15.82422c0-.67969-.55468-1.23437-1.23437-1.23437-.6836 0-1.23828.55468-1.23828 1.23437 0 .6836.55468 1.23828 1.23828 1.23828.67969 0 1.23437-.55469 1.23437-1.23828Zm3.51563 10.55469c0-.6836-.55469-1.23829-1.23438-1.23829-.6836 0-1.23828.5547-1.23828 1.23829 0 .67968.55469 1.23437 1.23828 1.23437.6797 0 1.23438-.55469 1.23438-1.23437Zm3.51563-10.55469c0-.67969-.55079-1.23437-1.23438-1.23437s-1.23828.55468-1.23828 1.23437c0 .6836.55468 1.23828 1.23828 1.23828s1.23437-.55469 1.23437-1.23828Zm3.51562 5.27344c0-.6836-.55079-1.23438-1.23438-1.23438s-1.23437.55078-1.23437 1.23438.55078 1.23437 1.23437 1.23437c.6836 0 1.23438-.55078 1.23438-1.23437Zm0 0"/><path d="M335.51172 53.98047c0-.67969-.55469-1.23438-1.23828-1.23438s-1.23438.5547-1.23438 1.23438c0 .6836.55078 1.23828 1.23438 1.23828s1.23828-.55469 1.23828-1.23828m0 0"/><g clip-path="url(#b)"><path fill="none" stroke="#000" stroke-miterlimit="10" stroke-width=".39546" d="M335.51165 53.98056c0-.67969-.5547-1.23437-1.23828-1.23437-.6836 0-1.23438.55468-1.23438 1.23437 0 .6836.55078 1.23828 1.23438 1.23828s1.23828-.55469 1.23828-1.23828Zm0 0"/></g><path d="M339.02734 59.2539c0-.68359-.55468-1.23437-1.23828-1.23437-.67969 0-1.23437.55078-1.23437 1.23438s.55469 1.23437 1.23437 1.23437c.6836 0 1.23828-.55078 1.23828-1.23437m0 0"/><g clip-path="url(#c)"><path fill="none" stroke="#000" stroke-miterlimit="10" stroke-width=".39546" d="M339.02727 59.254c0-.6836-.55469-1.23438-1.23828-1.23438-.67969 0-1.23438.55078-1.23438 1.23438s.5547 1.23437 1.23438 1.23437c.6836 0 1.23828-.55078 1.23828-1.23437Zm0 0"/></g><g clip-path="url(#d)"><path d="M342.54297 53.98047c0-.67969-.55469-1.23438-1.23438-1.23438-.68359 0-1.23828.5547-1.23828 1.23438 0 .6836.55469 1.23828 1.23828 1.23828.6797 0 1.23438-.55469 1.23438-1.23828m0 0"/></g><g clip-path="url(#e)"><path fill="none" stroke="#000" stroke-miterlimit="10" stroke-width=".39546" d="M342.5429 53.98056c0-.67969-.5547-1.23437-1.23438-1.23437-.6836 0-1.23828.55468-1.23828 1.23437 0 .6836.55469 1.23828 1.23828 1.23828.67969 0 1.23438-.55469 1.23438-1.23828Zm0 0"/></g><path fill="none" stroke="#000" stroke-miterlimit="10" stroke-width=".39546" d="M28.35547 112.00008h-7.03125"/><use xlink:href="#f" x="5.10452" y="113.55383"/><use xlink:href="#g" x="8.28678" y="113.55383"/><use xlink:href="#h" x="10.5916" y="113.55383"/><use xlink:href="#i" x="13.77385" y="113.55383"/><path fill="none" stroke="#000" stroke-miterlimit="10" stroke-width=".39546" d="M28.35547 101.4493h-7.03125"/><use xlink:href="#f" x="5.10452" y="103.00296"/><use xlink:href="#g" x="8.28678" y="103.00296"/><use xlink:href="#h" x="10.5916" y="103.00296"/><use xlink:href="#h" x="13.77385" y="103.00296"/><path fill="none" stroke="#000" stroke-miterlimit="10" stroke-width=".39546" d="M28.35547 90.90633h-7.03125"/><use xlink:href="#f" x="5.10452" y="92.46003"/><use xlink:href="#g" x="8.28678" y="92.46003"/><use xlink:href="#h" x="10.5916" y="92.46003"/><use xlink:href="#j" x="13.77385" y="92.46003"/><path fill="none" stroke="#000" stroke-miterlimit="10" stroke-width=".39546" d="M28.35547 80.35555h-7.03125"/><use xlink:href="#f" x="5.10452" y="81.90916"/><use xlink:href="#g" x="8.28678" y="81.90916"/><use xlink:href="#k" x="10.5916" y="81.90916"/><use xlink:href="#f" x="13.77385" y="81.90916"/><path fill="none" stroke="#000" stroke-miterlimit="10" stroke-width=".39546" d="M28.35547 69.80478h-7.03125"/><use xlink:href="#f" x="5.10452" y="71.3573"/><use xlink:href="#g" x="8.28678" y="71.3573"/><use xlink:href="#k" x="10.5916" y="71.3573"/><use xlink:href="#l" x="13.77385" y="71.3573"/><path fill="none" stroke="#000" stroke-miterlimit="10" stroke-width=".39546" d="M28.35547 59.254h-7.03125"/><use xlink:href="#f" x="5.10452" y="60.80643"/><use xlink:href="#g" x="8.28678" y="60.80643"/><use xlink:href="#k" x="10.5916" y="60.80643"/><use xlink:href="#i" x="13.77385" y="60.80643"/><path fill="none" stroke="#000" stroke-miterlimit="10" stroke-width=".39546" d="M28.35547 48.71103h-7.03125"/><use xlink:href="#f" x="5.10452" y="50.2635"/><use xlink:href="#g" x="8.28678" y="50.2635"/><use xlink:href="#k" x="10.5916" y="50.2635"/><use xlink:href="#h" x="13.77385" y="50.2635"/><path fill="none" stroke="#000" stroke-miterlimit="10" stroke-width=".39546" d="M28.35547 38.16025h-7.03125"/><use xlink:href="#f" x="5.10452" y="39.71263"/><use xlink:href="#g" x="8.28678" y="39.71263"/><use xlink:href="#k" x="10.5916" y="39.71263"/><use xlink:href="#j" x="13.77385" y="39.71263"/><path fill="none" stroke="#000" stroke-miterlimit="10" stroke-width=".39546" d="M28.35547 27.60947h-7.03125"/><use xlink:href="#f" x="5.10452" y="29.16176"/><use xlink:href="#g" x="8.28678" y="29.16176"/><use xlink:href="#j" x="10.5916" y="29.16176"/><use xlink:href="#f" x="13.77385" y="29.16176"/><path fill="none" stroke="#000" stroke-miterlimit="10" stroke-width=".39546" d="M28.35547 17.0587h-7.03125"/><use xlink:href="#f" x="5.10452" y="18.61089"/><use xlink:href="#g" x="8.28678" y="18.61089"/><use xlink:href="#j" x="10.5916" y="18.61089"/><use xlink:href="#l" x="13.77385" y="18.61089"/><path fill="none" stroke="#000" stroke-miterlimit="10" stroke-width=".39546" d="M28.35547 6.51573h-7.03125"/><use xlink:href="#f" x="5.10452" y="8.06796"/><use xlink:href="#g" x="8.28678" y="8.06796"/><use xlink:href="#j" x="10.5916" y="8.06796"/><use xlink:href="#i" x="13.77385" y="8.06796"/><path fill="none" stroke="#000" stroke-miterlimit="10" stroke-width=".39546" d="M24.83984 108.48445v7.03125"/><use xlink:href="#f" x="23.24801" y="123.83676"/><path fill="none" stroke="#000" stroke-miterlimit="10" stroke-width=".39546" d="M60 108.48445v7.03125"/><use xlink:href="#m" x="56.81986" y="123.83676"/><use xlink:href="#f" x="60.00212" y="123.83676"/><path fill="none" stroke="#000" stroke-miterlimit="10" stroke-width=".39546" d="M95.16405 108.48445v7.03125"/><use xlink:href="#l" x="91.98248" y="123.83676"/><use xlink:href="#f" x="95.16474" y="123.83676"/><path fill="none" stroke="#000" stroke-miterlimit="10" stroke-width=".39546" d="M130.3281 108.48445v7.03125"/><use xlink:href="#n" x="127.1451" y="123.83676"/><use xlink:href="#f" x="130.32736" y="123.83676"/><path fill="none" stroke="#000" stroke-miterlimit="10" stroke-width=".39546" d="M165.49215 108.48445v7.03125"/><use xlink:href="#i" x="162.30772" y="123.83676"/><use xlink:href="#f" x="165.48997" y="123.83676"/><path fill="none" stroke="#000" stroke-miterlimit="10" stroke-width=".39546" d="M200.6562 108.48445v7.03125"/><use xlink:href="#o" x="197.47034" y="123.83676"/><use xlink:href="#f" x="200.65259" y="123.83676"/><path fill="none" stroke="#000" stroke-miterlimit="10" stroke-width=".39546" d="M235.81636 108.48445v7.03125"/><use xlink:href="#h" x="232.63296" y="123.83676"/><use xlink:href="#f" x="235.81521" y="123.83676"/><path fill="none" stroke="#000" stroke-miterlimit="10" stroke-width=".39546" d="M270.98041 108.48445v7.03125"/><use xlink:href="#k" x="267.79558" y="123.83676"/><use xlink:href="#f" x="270.97783" y="123.83676"/><path fill="none" stroke="#000" stroke-miterlimit="10" stroke-width=".39546" d="M306.14447 108.48445v7.03125"/><use xlink:href="#j" x="302.95819" y="123.83676"/><use xlink:href="#f" x="306.14045" y="123.83676"/><path fill="none" stroke="#000" stroke-miterlimit="10" stroke-width=".39546" d="M341.30852 108.48445v7.03125"/><use xlink:href="#p" x="338.12081" y="123.83676"/><use xlink:href="#f" x="341.30307" y="123.83676"/></svg>