<svg xmlns="http://www.w3.org/2000/svg" xmlns:xlink="http://www.w3.org/1999/xlink" width="629.521pt" height="149.036pt" viewBox="0 0 629.521 149.036"><defs><clipPath id="a"><path d="M34.89844 103H49v16H34.89844Zm0 0"/></clipPath><clipPath id="b"><path d="M55 120h5v2.41797h-5Zm0 0"/></clipPath><clipPath id="c"><path d="M49 114h17v8.41797H49Zm0 0"/></clipPath><clipPath id="d"><path d="M55 109h16v13.41797H55Zm0 0"/></clipPath><clipPath id="e"><path d="M72 109h16v13.41797H72Zm0 0"/></clipPath><clipPath id="f"><path d="M117 109h16v13.41797h-16Zm0 0"/></clipPath><clipPath id="g"><path d="M168 109h16v13.41797h-16Zm0 0"/></clipPath><clipPath id="h"><path d="M235 109h16v13.41797h-16Zm0 0"/></clipPath><clipPath id="i"><path d="M247 109h16v13.41797h-16Zm0 0"/></clipPath><clipPath id="j"><path d="M325 120h5v2.41797h-5Zm0 0"/></clipPath><clipPath id="k"><path d="M320 114h16v8.41797h-16Zm0 0"/></clipPath><clipPath id="l"><path d="M387 109h17v13.41797h-17Zm0 0"/></clipPath><clipPath id="m"><path d="M393 109h16v13.41797h-16Zm0 0"/></clipPath><clipPath id="n"><path d="M416 109h16v13.41797h-16Zm0 0"/></clipPath><clipPath id="o"><path d="M506 109h16v13.41797h-16Zm0 0"/></clipPath><clipPath id="p"><path d="M585 92h13.22656v16H585Zm0 0"/></clipPath><clipPath id="q"><path d="M596 97h2.22656v5H596Zm0 0"/></clipPath><clipPath id="r"><path d="M590 92h8.22656v16H590Zm0 0"/></clipPath><path id="s" d="M.35938-3.10937C.35938-1.3125.9375.10938 2.5625.10938S4.75-1.3125 4.75-3.10937c0-1.79688-.5625-3.21875-2.1875-3.21875S.35938-4.90625.35938-3.10937m1.1875 0c0-1.3125.17187-2.85938 1.01562-2.85938.82813 0 1 1.54688 1 2.85938S3.39063-.25 2.5625-.25c-.84375 0-1.01562-1.54687-1.01562-2.85937m0 0"/><path id="t" d="M.28125-.125.39063 0h4.03125l.35937-1.40625-.29687-.04687c-.23438.5-.40625.5625-.78125.5625H1.34375C1.48438-1.3125 1.92188-1.90625 2.85938-2.5 3.84375-3.125 4.5-3.5625 4.5-4.57812c0-1.29688-.89062-1.75-1.96875-1.75C1.28125-6.32812.5-5.64062.5-5c0 .35938.40625.51563.64063.51563.17187 0 .28124-.09375.32812-.29688.14063-.67187.48438-1.1875 1.01563-1.1875.59375 0 .79687.54688.79687 1.20313 0 .82812-.32812 1.45312-1.23437 2.23437C.82813-1.5.39063-.79687.28124-.125m0 0"/><path id="u" d="m.20313-1.875.125.23438h2.45312v.9375c0 .26562-.09375.32812-.28125.34375l-.60937.04687V0h2.64062v-.3125l-.4375-.03125c-.1875-.03125-.25-.09375-.25-.35937v-.9375h.9375v-.53125h-.9375v-4.04688h-.89062C2.01563-4.85937 1.04688-3.3125.20313-1.875m.8125-.29687c.5-.9375 1.10937-1.95313 1.76562-3.01563v3.01563Zm0 0"/><path id="v" d="M.35938-2.9375c0 1.95313.70312 3.04688 2.25 3.04688 1.51562 0 2.21875-.9375 2.21875-2.125 0-1.29688-.8125-1.95313-1.79688-1.95313-.6875 0-1.20312.4375-1.5.78125.01563-1.45312.375-2.78125 1.25-2.78125.40625 0 .70313.375.84375.95313.04688.125.14063.23437.3125.23437.21875 0 .59375-.17187.59375-.48437 0-.42188-.51562-1.0625-1.67187-1.0625-1.54688 0-2.5 1.125-2.5 3.39062m1.17187.75c0-.5625.375-1.17187 1.07813-1.17187.54687 0 1.0625.46875 1.0625 1.53125C3.67188-.90625 3.375-.25 2.64063-.25c-.75 0-1.10938-.875-1.10938-1.9375m0 0"/><path id="w" d="M.34375-1.71875c0 1.14063.82813 1.82813 2.21875 1.82813 1.375 0 2.1875-.6875 2.1875-1.82813 0-.90625-.54687-1.45312-1.21875-1.64062.54688-.14063 1-.60938 1-1.34375 0-1.04688-.79687-1.625-1.96875-1.625-1.1875 0-2 .59375-2 1.625 0 .73437.48438 1.20312 1.01563 1.34375C.90625-3.17187.34375-2.625.34375-1.71875m1.1875.03125c0-.8125.34375-1.4375 1.03125-1.4375.67188 0 1.01563.625 1.01563 1.4375S3.25-.25 2.5625-.25c-.70312 0-1.03125-.625-1.03125-1.4375M1.6875-4.75c0-.70312.3125-1.21875.875-1.21875s.85938.51563.85938 1.21875c0 .65625-.28125 1.25-.85938 1.25-.57812 0-.875-.59375-.875-1.25m0 0"/><path id="x" d="M1.01563 0H4.1875v-.3125l-.71875-.04687c-.20312-.03125-.3125-.09375-.3125-.4375v-5.46875l-.0625-.0625L1.03125-6v.28125l.73438.10938c.20312.01562.28124.09375.28124.40625v4.40625c0 .34375-.10937.40625-.32812.4375l-.70312.04687Zm0 0"/><path id="y" d="m.46875 1.17188.25.1875C1.17188.9375 1.96875.25 1.96875-.46875c0-.5-.26562-.89062-.70312-.89062-.39063 0-.5625.26562-.5625.5 0 .34375.26562.51562.26562.92187 0 .39063-.20312.78125-.5 1.10938m0 0"/></defs><path fill="#FFF" stroke="#FFF" stroke-miterlimit="10" stroke-width=".39594" d="M34.89844 122.41797V9.75785h563.29278v112.66012Zm0 0"/><path fill="none" stroke="#000" stroke-miterlimit="10" stroke-width=".39594" d="M34.89844 122.41797V9.75785h563.29278v112.66012Zm0 0"/><path fill="none" stroke="#EC008C" stroke-dasharray="2.9696118231 2.9696118231" stroke-miterlimit="10" stroke-width="1.18784" d="M34.89844 103.64063h563.29278"/><path d="M42.51172 111.15234c0-1.09375-.88672-1.98046-1.98047-1.98046-1.08984 0-1.97656.88671-1.97656 1.98046s.88672 1.98047 1.97656 1.98047c1.09375 0 1.98047-.88672 1.98047-1.98047m0 0"/><g clip-path="url(#a)"><path fill="none" stroke="#000" stroke-miterlimit="10" stroke-width=".39594" d="M42.51172 111.15235c0-1.09375-.88672-1.98047-1.98047-1.98047-1.08985 0-1.97656.88672-1.97656 1.98047s.88671 1.98047 1.97656 1.98047c1.09375 0 1.98047-.88672 1.98047-1.98047Zm0 0"/></g><path stroke="#000" stroke-miterlimit="10" stroke-width=".39594" d="M48.14453 99.88673c0-1.09375-.88672-1.98047-1.97656-1.98047-1.09375 0-1.98047.88672-1.98047 1.98047s.88672 1.98046 1.98047 1.98046c1.08984 0 1.97656-.88671 1.97656-1.98046Zm5.63671 11.26562c0-1.09375-.88671-1.98047-1.98046-1.98047s-1.98047.88672-1.98047 1.98047.88672 1.98047 1.98047 1.98047 1.98046-.88672 1.98046-1.98047Zm0 0"/><g clip-path="url(#b)"><path d="M59.41406 122.41797c0-1.09375-.88672-1.98047-1.98047-1.98047s-1.98047.88672-1.98047 1.98047.88672 1.98047 1.98047 1.98047 1.98047-.88672 1.98047-1.98047m0 0"/></g><g clip-path="url(#c)"><path fill="none" stroke="#000" stroke-miterlimit="10" stroke-width=".39594" d="M59.41406 122.41797c0-1.09375-.88672-1.98047-1.98047-1.98047s-1.98047.88672-1.98047 1.98047.88672 1.98047 1.98047 1.98047 1.98047-.88672 1.98047-1.98047Zm0 0"/></g><path d="M65.04688 116.78516c0-1.09375-.88672-1.98047-1.98047-1.98047s-1.98047.88672-1.98047 1.98047.88672 1.98046 1.98047 1.98046 1.98047-.88671 1.98047-1.98046m0 0"/><g clip-path="url(#d)"><path fill="none" stroke="#000" stroke-miterlimit="10" stroke-width=".39594" d="M65.04686 116.78516c0-1.09375-.88671-1.98047-1.98046-1.98047s-1.98047.88672-1.98047 1.98047.88672 1.98047 1.98047 1.98047 1.98046-.88672 1.98046-1.98047Zm0 0"/></g><path stroke="#000" stroke-miterlimit="10" stroke-width=".39594" d="M70.67968 105.51954c0-1.09375-.88672-1.98047-1.98047-1.98047s-1.98047.88672-1.98047 1.98047S67.60546 107.5 68.6992 107.5s1.98047-.88671 1.98047-1.98046Zm5.63281 0c0-1.09375-.88672-1.98047-1.98047-1.98047s-1.98047.88672-1.98047 1.98047.88672 1.98046 1.98047 1.98046 1.98047-.88671 1.98047-1.98046Zm0 0"/><path d="M81.94531 116.78516c0-1.09375-.88672-1.98047-1.98047-1.98047s-1.98046.88672-1.98046 1.98047.88671 1.98046 1.98046 1.98046 1.98047-.88671 1.98047-1.98046m0 0"/><g clip-path="url(#e)"><path fill="none" stroke="#000" stroke-miterlimit="10" stroke-width=".39594" d="M81.9453 116.78516c0-1.09375-.88672-1.98047-1.98047-1.98047s-1.98047.88672-1.98047 1.98047.88672 1.98047 1.98047 1.98047 1.98047-.88672 1.98047-1.98047Zm0 0"/></g><path stroke="#000" stroke-miterlimit="10" stroke-width=".39594" d="M87.5781 94.25392c0-1.09375-.88671-1.98047-1.98046-1.98047s-1.97656.88672-1.97656 1.98047c0 1.09374.88281 1.98046 1.97656 1.98046s1.98047-.88672 1.98047-1.98046Zm5.63282 5.63281c0-1.09375-.88672-1.98047-1.98047-1.98047-1.08984 0-1.97656.88672-1.97656 1.98047s.88672 1.98046 1.97656 1.98046c1.09375 0 1.98047-.88671 1.98047-1.98046Zm5.63281 0c0-1.09375-.88281-1.98047-1.97656-1.98047s-1.98047.88672-1.98047 1.98047.88672 1.98046 1.98047 1.98046 1.97656-.88671 1.97656-1.98046Zm5.63672 5.63281c0-1.09375-.88672-1.98047-1.98047-1.98047s-1.98047.88672-1.98047 1.98047.88672 1.98046 1.98047 1.98046 1.98047-.88671 1.98047-1.98046Zm5.63281 5.63281c0-1.09375-.88672-1.98047-1.98047-1.98047s-1.98047.88672-1.98047 1.98047.88672 1.98047 1.98047 1.98047 1.98047-.88672 1.98047-1.98047Zm5.63281-11.26562c0-1.09375-.88672-1.98047-1.98047-1.98047s-1.98047.88672-1.98047 1.98047.88672 1.98046 1.98047 1.98046 1.98047-.88671 1.98047-1.98046Zm5.63281 11.26562c0-1.09375-.88672-1.98047-1.98047-1.98047s-1.98047.88672-1.98047 1.98047.88672 1.98047 1.98047 1.98047 1.98047-.88672 1.98047-1.98047Zm0 0"/><path d="M127.01172 116.78516c0-1.09375-.88672-1.98047-1.98047-1.98047s-1.98047.88672-1.98047 1.98047.88672 1.98046 1.98047 1.98046 1.98047-.88671 1.98047-1.98046m0 0"/><g clip-path="url(#f)"><path fill="none" stroke="#000" stroke-miterlimit="10" stroke-width=".39594" d="M127.01169 116.78516c0-1.09375-.88672-1.98047-1.98047-1.98047s-1.98047.88672-1.98047 1.98047.88672 1.98047 1.98047 1.98047 1.98047-.88672 1.98047-1.98047Zm0 0"/></g><path stroke="#000" stroke-miterlimit="10" stroke-width=".39594" d="M132.6445 111.15235c0-1.09375-.88672-1.98047-1.98047-1.98047s-1.98047.88672-1.98047 1.98047.88672 1.98047 1.98047 1.98047 1.98047-.88672 1.98047-1.98047Zm5.6328-11.26562c0-1.09375-.8867-1.98047-1.98046-1.98047-1.08984 0-1.97656.88672-1.97656 1.98047s.88672 1.98046 1.97656 1.98046c1.09375 0 1.98047-.88671 1.98047-1.98046Zm5.63282-16.89843c0-1.09376-.88672-1.98047-1.97656-1.98047-1.09375 0-1.98047.88671-1.98047 1.98046s.88672 1.97657 1.98047 1.97657c1.08984 0 1.97656-.88282 1.97656-1.97657Zm5.63672 11.26562c0-1.09375-.88672-1.98047-1.98047-1.98047s-1.98047.88672-1.98047 1.98047c0 1.09374.88672 1.98046 1.98047 1.98046s1.98047-.88672 1.98047-1.98046Zm5.63281 0c0-1.09375-.88672-1.98047-1.98047-1.98047s-1.98047.88672-1.98047 1.98047c0 1.09374.88672 1.98046 1.98047 1.98046s1.98047-.88672 1.98047-1.98046Zm5.63281 5.63281c0-1.09375-.88672-1.98047-1.98047-1.98047s-1.98047.88672-1.98047 1.98047.88672 1.98046 1.98047 1.98046 1.98047-.88671 1.98047-1.98046Zm5.63281 5.63281c0-1.09375-.88672-1.98047-1.98047-1.98047s-1.98047.88672-1.98047 1.98047.88672 1.98046 1.98047 1.98046 1.98047-.88671 1.98047-1.98046Zm5.63281-5.63281c0-1.09375-.88672-1.98047-1.98047-1.98047s-1.98047.88672-1.98047 1.98047.88672 1.98046 1.98047 1.98046 1.98047-.88671 1.98047-1.98046Zm0 0"/><path d="M177.71094 116.78516c0-1.09375-.88672-1.98047-1.98047-1.98047s-1.98047.88672-1.98047 1.98047.88672 1.98046 1.98047 1.98046 1.98047-.88671 1.98047-1.98046m0 0"/><g clip-path="url(#g)"><path fill="none" stroke="#000" stroke-miterlimit="10" stroke-width=".39594" d="M177.71089 116.78516c0-1.09375-.88672-1.98047-1.98047-1.98047s-1.98047.88672-1.98047 1.98047.88672 1.98047 1.98047 1.98047 1.98047-.88672 1.98047-1.98047Zm0 0"/></g><path stroke="#000" stroke-miterlimit="10" stroke-width=".39594" d="M183.3437 99.88673c0-1.09375-.88672-1.98047-1.98047-1.98047s-1.97656.88672-1.97656 1.98047.88281 1.98046 1.97656 1.98046 1.98047-.88671 1.98047-1.98046Zm5.63281 5.63281c0-1.09375-.88672-1.98047-1.98047-1.98047-1.08984 0-1.97656.88672-1.97656 1.98047s.88672 1.98046 1.97656 1.98046c1.09375 0 1.98047-.88671 1.98047-1.98046Zm5.63281 0c0-1.09375-.88281-1.98047-1.97656-1.98047s-1.98047.88672-1.98047 1.98047.88672 1.98046 1.98047 1.98046 1.97656-.88671 1.97656-1.98046Zm5.63672-5.63281c0-1.09375-.88672-1.98047-1.98047-1.98047s-1.98047.88672-1.98047 1.98047.88672 1.98046 1.98047 1.98046 1.98047-.88671 1.98047-1.98046Zm5.63281 5.63281c0-1.09375-.88672-1.98047-1.98047-1.98047s-1.98047.88672-1.98047 1.98047.88672 1.98046 1.98047 1.98046 1.98047-.88671 1.98047-1.98046Zm5.63281-11.26562c0-1.09375-.88672-1.98047-1.98047-1.98047s-1.98047.88672-1.98047 1.98047c0 1.09374.88672 1.98046 1.98047 1.98046s1.98047-.88672 1.98047-1.98046Zm5.63281 5.63281c0-1.09375-.88672-1.98047-1.98047-1.98047s-1.98047.88672-1.98047 1.98047.88672 1.98046 1.98047 1.98046 1.98047-.88671 1.98047-1.98046Zm5.63281 11.26562c0-1.09375-.88672-1.98047-1.98047-1.98047s-1.98047.88672-1.98047 1.98047.88672 1.98047 1.98047 1.98047 1.98047-.88672 1.98047-1.98047Zm5.63282 0c0-1.09375-.88673-1.98047-1.98048-1.98047s-1.98046.88672-1.98046 1.98047.88671 1.98047 1.98046 1.98047 1.98047-.88672 1.98047-1.98047Zm5.6328-16.89843c0-1.09375-.88672-1.98047-1.98047-1.98047s-1.97656.88672-1.97656 1.98047c0 1.09374.88281 1.98046 1.97656 1.98046s1.98047-.88672 1.98047-1.98046Zm5.63281 16.89843c0-1.09375-.88672-1.98047-1.97656-1.98047-1.09375 0-1.98047.88672-1.98047 1.98047s.88672 1.98047 1.98047 1.98047c1.08984 0 1.97656-.88672 1.97656-1.98047Zm0 0"/><path d="M245.3125 116.78516c0-1.09375-.88672-1.98047-1.98047-1.98047s-1.98047.88672-1.98047 1.98047.88672 1.98046 1.98047 1.98046 1.98047-.88671 1.98047-1.98046m0 0"/><g clip-path="url(#h)"><path fill="none" stroke="#000" stroke-miterlimit="10" stroke-width=".39594" d="M245.31243 116.78516c0-1.09375-.88672-1.98047-1.98047-1.98047s-1.98047.88672-1.98047 1.98047.88672 1.98047 1.98047 1.98047 1.98047-.88672 1.98047-1.98047Zm0 0"/></g><path stroke="#000" stroke-miterlimit="10" stroke-width=".39594" d="M250.94524 94.25392c0-1.09375-.88672-1.98047-1.98047-1.98047s-1.98047.88672-1.98047 1.98047c0 1.09374.88672 1.98046 1.98047 1.98046s1.98047-.88672 1.98047-1.98046Zm0 0"/><path d="M256.57813 116.78516c0-1.09375-.88672-1.98047-1.98047-1.98047s-1.98047.88672-1.98047 1.98047.88672 1.98046 1.98047 1.98046 1.98047-.88671 1.98047-1.98046m0 0"/><g clip-path="url(#i)"><path fill="none" stroke="#000" stroke-miterlimit="10" stroke-width=".39594" d="M256.57805 116.78516c0-1.09375-.88672-1.98047-1.98047-1.98047s-1.98047.88672-1.98047 1.98047.88672 1.98047 1.98047 1.98047 1.98047-.88672 1.98047-1.98047Zm0 0"/></g><path stroke="#000" stroke-miterlimit="10" stroke-width=".39594" d="M262.21086 111.15235c0-1.09375-.88672-1.98047-1.98047-1.98047s-1.98046.88672-1.98046 1.98047.88671 1.98047 1.98046 1.98047 1.98047-.88672 1.98047-1.98047Zm5.63281-11.26562c0-1.09375-.88672-1.98047-1.98047-1.98047s-1.98046.88672-1.98046 1.98047.88671 1.98046 1.98046 1.98046 1.98047-.88671 1.98047-1.98046Zm5.63281 11.26562c0-1.09375-.88672-1.98047-1.98047-1.98047-1.09374 0-1.98046.88672-1.98046 1.98047s.88672 1.98047 1.98046 1.98047 1.98047-.88672 1.98047-1.98047Zm5.63282-16.89843c0-1.09375-.88672-1.98047-1.98047-1.98047s-1.97657.88672-1.97657 1.98047c0 1.09374.88282 1.98046 1.97657 1.98046s1.98046-.88672 1.98046-1.98046Zm5.6328 16.89843c0-1.09375-.88671-1.98047-1.98046-1.98047-1.08985 0-1.97657.88672-1.97657 1.98047s.88672 1.98047 1.97657 1.98047c1.09375 0 1.98046-.88672 1.98046-1.98047Zm5.63281 0c0-1.09375-.8828-1.98047-1.97656-1.98047-1.09375 0-1.98046.88672-1.98046 1.98047s.88671 1.98047 1.98046 1.98047 1.97656-.88672 1.97656-1.98047Zm5.63672-11.26562c0-1.09375-.88672-1.98047-1.98047-1.98047s-1.98047.88672-1.98047 1.98047.88672 1.98046 1.98047 1.98046 1.98047-.88671 1.98047-1.98046Zm5.63281-16.89843c0-1.09376-.88672-1.98047-1.98047-1.98047s-1.98046.88671-1.98046 1.98046.88671 1.97657 1.98046 1.97657 1.98047-.88282 1.98047-1.97657Zm5.63281 11.26562c0-1.09375-.88672-1.98047-1.98047-1.98047s-1.98046.88672-1.98046 1.98047c0 1.09374.88671 1.98046 1.98046 1.98046s1.98047-.88672 1.98047-1.98046Zm5.63281 11.26562c0-1.09375-.88671-1.98047-1.98046-1.98047s-1.98047.88672-1.98047 1.98047.88672 1.98046 1.98047 1.98046 1.98046-.88671 1.98046-1.98046Zm5.63281 0c0-1.09375-.88671-1.98047-1.98046-1.98047s-1.98047.88672-1.98047 1.98047.88672 1.98046 1.98047 1.98046 1.98046-.88671 1.98046-1.98046Zm5.63282-11.26562c0-1.09375-.88672-1.98047-1.98047-1.98047s-1.98047.88672-1.98047 1.98047c0 1.09374.88672 1.98046 1.98047 1.98046s1.98047-.88672 1.98047-1.98046Zm0 0"/><g clip-path="url(#j)"><path d="M329.8086 122.41797c0-1.09375-.88673-1.98047-1.98048-1.98047s-1.97656.88672-1.97656 1.98047.88281 1.98047 1.97656 1.98047 1.98047-.88672 1.98047-1.98047m0 0"/></g><g clip-path="url(#k)"><path fill="none" stroke="#000" stroke-miterlimit="10" stroke-width=".39594" d="M329.8085 122.41797c0-1.09375-.88672-1.98047-1.98047-1.98047s-1.97656.88672-1.97656 1.98047.8828 1.98047 1.97656 1.98047c1.09375 0 1.98046-.88672 1.98046-1.98047Zm0 0"/></g><path stroke="#000" stroke-miterlimit="10" stroke-width=".39594" d="M335.4413 99.88673c0-1.09375-.88671-1.98047-1.97656-1.98047-1.09375 0-1.98046.88672-1.98046 1.98047s.88671 1.98046 1.98046 1.98046c1.08985 0 1.97657-.88671 1.97657-1.98046Zm5.63672 5.63281c0-1.09375-.88672-1.98047-1.98047-1.98047s-1.98046.88672-1.98046 1.98047.88671 1.98046 1.98046 1.98046 1.98047-.88671 1.98047-1.98046Zm5.63281-5.63281c0-1.09375-.88672-1.98047-1.98046-1.98047s-1.98047.88672-1.98047 1.98047.88672 1.98046 1.98047 1.98046c1.09374 0 1.98046-.88671 1.98046-1.98046Zm5.63281 0c0-1.09375-.88671-1.98047-1.98046-1.98047s-1.98047.88672-1.98047 1.98047.88672 1.98046 1.98047 1.98046 1.98046-.88671 1.98046-1.98046Zm5.63281 0c0-1.09375-.88671-1.98047-1.98046-1.98047s-1.98047.88672-1.98047 1.98047.88672 1.98046 1.98047 1.98046 1.98046-.88671 1.98046-1.98046Zm5.63282 11.26562c0-1.09375-.88672-1.98047-1.98047-1.98047s-1.98047.88672-1.98047 1.98047.88672 1.98047 1.98047 1.98047 1.98047-.88672 1.98047-1.98047Zm5.63281-11.26562c0-1.09375-.88672-1.98047-1.98047-1.98047s-1.98047.88672-1.98047 1.98047.88672 1.98046 1.98047 1.98046 1.98047-.88671 1.98047-1.98046Zm5.63281 11.26562c0-1.09375-.88672-1.98047-1.98047-1.98047s-1.97656.88672-1.97656 1.98047.8828 1.98047 1.97656 1.98047c1.09375 0 1.98047-.88672 1.98047-1.98047Zm5.63281-16.89843c0-1.09375-.88672-1.98047-1.98047-1.98047-1.08984 0-1.97656.88672-1.97656 1.98047 0 1.09374.88672 1.98046 1.97656 1.98046 1.09375 0 1.98047-.88672 1.98047-1.98046Zm5.6328-11.26562c0-1.09376-.8828-1.98047-1.97655-1.98047s-1.98047.88671-1.98047 1.98046.88672 1.97657 1.98047 1.97657 1.97656-.88282 1.97656-1.97657Zm5.63672 5.6328c0-1.09375-.88671-1.98046-1.98046-1.98046s-1.98047.88671-1.98047 1.98046.88672 1.98047 1.98047 1.98047 1.98046-.88672 1.98046-1.98047Zm0 0"/><path d="M397.41016 116.78516c0-1.09375-.88672-1.98047-1.98047-1.98047s-1.98047.88672-1.98047 1.98047.88672 1.98046 1.98047 1.98046 1.98047-.88671 1.98047-1.98046m0 0"/><g clip-path="url(#l)"><path fill="none" stroke="#000" stroke-miterlimit="10" stroke-width=".39594" d="M397.41004 116.78516c0-1.09375-.88672-1.98047-1.98047-1.98047s-1.98047.88672-1.98047 1.98047.88672 1.98047 1.98047 1.98047 1.98047-.88672 1.98047-1.98047Zm0 0"/></g><path d="M403.04297 116.78516c0-1.09375-.88672-1.98047-1.98047-1.98047s-1.98047.88672-1.98047 1.98047.88672 1.98046 1.98047 1.98046 1.98047-.88671 1.98047-1.98046m0 0"/><g clip-path="url(#m)"><path fill="none" stroke="#000" stroke-miterlimit="10" stroke-width=".39594" d="M403.04285 116.78516c0-1.09375-.88672-1.98047-1.98047-1.98047s-1.98047.88672-1.98047 1.98047.88672 1.98047 1.98047 1.98047 1.98047-.88672 1.98047-1.98047Zm0 0"/></g><path stroke="#000" stroke-miterlimit="10" stroke-width=".39594" d="M408.67566 105.51954c0-1.09375-.88672-1.98047-1.98047-1.98047s-1.98047.88672-1.98047 1.98047.88672 1.98046 1.98047 1.98046 1.98047-.88671 1.98047-1.98046Zm5.63281 0c0-1.09375-.88672-1.98047-1.98047-1.98047s-1.98047.88672-1.98047 1.98047.88672 1.98046 1.98047 1.98046 1.98047-.88671 1.98047-1.98046Zm5.63281 5.63281c0-1.09375-.88672-1.98047-1.98047-1.98047s-1.98047.88672-1.98047 1.98047.88672 1.98047 1.98047 1.98047 1.98047-.88672 1.98047-1.98047Zm0 0"/><path d="M425.57422 116.78516c0-1.09375-.88672-1.98047-1.98047-1.98047s-1.97656.88672-1.97656 1.98047.88281 1.98046 1.97656 1.98046 1.98047-.88671 1.98047-1.98046m0 0"/><g clip-path="url(#n)"><path fill="none" stroke="#000" stroke-miterlimit="10" stroke-width=".39594" d="M425.57409 116.78516c0-1.09375-.88672-1.98047-1.98047-1.98047s-1.97656.88672-1.97656 1.98047.88281 1.98047 1.97656 1.98047 1.98047-.88672 1.98047-1.98047Zm0 0"/></g><path stroke="#000" stroke-miterlimit="10" stroke-width=".39594" d="M431.2069 99.88673c0-1.09375-.88672-1.98047-1.97656-1.98047-1.09375 0-1.98047.88672-1.98047 1.98047s.88672 1.98046 1.98047 1.98046c1.08984 0 1.97656-.88671 1.97656-1.98046Zm5.63281-5.63281c0-1.09375-.88281-1.98047-1.97656-1.98047s-1.98047.88672-1.98047 1.98047c0 1.09374.88672 1.98046 1.98047 1.98046s1.97656-.88672 1.97656-1.98046Zm5.63672 16.89843c0-1.09375-.88672-1.98047-1.98047-1.98047s-1.98047.88672-1.98047 1.98047.88672 1.98047 1.98047 1.98047 1.98047-.88672 1.98047-1.98047Zm5.63281 0c0-1.09375-.88672-1.98047-1.98047-1.98047s-1.98047.88672-1.98047 1.98047.88672 1.98047 1.98047 1.98047 1.98047-.88672 1.98047-1.98047Zm5.63281-11.26562c0-1.09375-.88672-1.98047-1.98047-1.98047s-1.98047.88672-1.98047 1.98047.88672 1.98046 1.98047 1.98046 1.98047-.88671 1.98047-1.98046Zm5.63281-5.63281c0-1.09375-.88672-1.98047-1.98047-1.98047s-1.98047.88672-1.98047 1.98047c0 1.09374.88672 1.98046 1.98047 1.98046s1.98047-.88672 1.98047-1.98046Zm5.63281 16.89843c0-1.09375-.88672-1.98047-1.98047-1.98047s-1.98047.88672-1.98047 1.98047.88672 1.98047 1.98047 1.98047 1.98047-.88672 1.98047-1.98047Zm5.63281-5.63281c0-1.09375-.88672-1.98047-1.98047-1.98047s-1.97656.88672-1.97656 1.98047S467.56626 107.5 468.66 107.5s1.98047-.88671 1.98047-1.98046Zm5.63281-11.26562c0-1.09375-.88672-1.98047-1.98047-1.98047-1.08984 0-1.97656.88672-1.97656 1.98047 0 1.09374.88672 1.98046 1.97656 1.98046 1.09375 0 1.98047-.88672 1.98047-1.98046Zm5.63281-11.26562c0-1.09376-.88281-1.98047-1.97656-1.98047s-1.98047.88671-1.98047 1.98046.88672 1.97657 1.98047 1.97657 1.97656-.88282 1.97656-1.97657Zm5.63672 22.53124c0-1.09375-.88672-1.98047-1.98047-1.98047s-1.98047.88672-1.98047 1.98047.88672 1.98046 1.98047 1.98046 1.98047-.88671 1.98047-1.98046Zm5.63281 0c0-1.09375-.88672-1.98047-1.98047-1.98047s-1.98047.88672-1.98047 1.98047.88672 1.98046 1.98047 1.98046 1.98047-.88671 1.98047-1.98046Zm5.63281-5.63281c0-1.09375-.88672-1.98047-1.98047-1.98047s-1.98047.88672-1.98047 1.98047.88672 1.98046 1.98047 1.98046 1.98047-.88671 1.98047-1.98046Zm5.63281 11.26562c0-1.09375-.88672-1.98047-1.98047-1.98047s-1.98047.88672-1.98047 1.98047.88672 1.98047 1.98047 1.98047 1.98047-.88672 1.98047-1.98047Zm5.63281-11.26562c0-1.09375-.88672-1.98047-1.98047-1.98047s-1.98047.88672-1.98047 1.98047.88672 1.98046 1.98047 1.98046 1.98047-.88671 1.98047-1.98046Zm0 0"/><path d="M515.70703 116.78516c0-1.09375-.88672-1.98047-1.98047-1.98047s-1.98047.88672-1.98047 1.98047.88672 1.98046 1.98047 1.98046 1.98047-.88671 1.98047-1.98046m0 0"/><g clip-path="url(#o)"><path fill="none" stroke="#000" stroke-miterlimit="10" stroke-width=".39594" d="M515.70687 116.78516c0-1.09375-.88672-1.98047-1.98047-1.98047s-1.98047.88672-1.98047 1.98047.88672 1.98047 1.98047 1.98047 1.98047-.88672 1.98047-1.98047Zm0 0"/></g><path stroke="#000" stroke-miterlimit="10" stroke-width=".39594" d="M521.33968 94.25392c0-1.09375-.88672-1.98047-1.98047-1.98047s-1.97656.88672-1.97656 1.98047c0 1.09374.88281 1.98046 1.97656 1.98046s1.98047-.88672 1.98047-1.98046Zm5.63282 11.26562c0-1.09375-.88673-1.98047-1.97657-1.98047-1.09375 0-1.98047.88672-1.98047 1.98047s.88672 1.98046 1.98047 1.98046c1.08984 0 1.97656-.88671 1.97656-1.98046Zm5.6328-16.89844c0-1.09375-.88281-1.98046-1.97656-1.98046s-1.98047.88671-1.98047 1.98046.88672 1.98047 1.98047 1.98047 1.97656-.88672 1.97656-1.98047Zm5.63672 5.63282c0-1.09375-.88672-1.98047-1.98047-1.98047s-1.98047.88672-1.98047 1.98047c0 1.09374.88672 1.98046 1.98047 1.98046s1.98047-.88672 1.98047-1.98046Zm5.63281 16.89843c0-1.09375-.88672-1.98047-1.98047-1.98047s-1.98047.88672-1.98047 1.98047.88672 1.98047 1.98047 1.98047 1.98047-.88672 1.98047-1.98047Zm5.63281 0c0-1.09375-.88672-1.98047-1.98047-1.98047s-1.98047.88672-1.98047 1.98047.88672 1.98047 1.98047 1.98047 1.98047-.88672 1.98047-1.98047Zm5.63281-11.26562c0-1.09375-.88672-1.98047-1.98047-1.98047s-1.98046.88672-1.98046 1.98047.88671 1.98046 1.98046 1.98046 1.98047-.88671 1.98047-1.98046Zm5.63281 0c0-1.09375-.88672-1.98047-1.98047-1.98047s-1.98047.88672-1.98047 1.98047.88672 1.98046 1.98047 1.98046 1.98047-.88671 1.98047-1.98046Zm5.63281 5.63281c0-1.09375-.88672-1.98047-1.98047-1.98047s-1.98046.88672-1.98046 1.98047.88671 1.98046 1.98046 1.98046 1.98047-.88671 1.98047-1.98046Zm5.63281-5.63281c0-1.09375-.88672-1.98047-1.98047-1.98047-1.08984 0-1.97656.88672-1.97656 1.98047s.88672 1.98046 1.97656 1.98046c1.09375 0 1.98047-.88671 1.98047-1.98046Zm5.63282 5.63281c0-1.09375-.88282-1.98047-1.97657-1.98047s-1.98047.88672-1.98047 1.98047.88672 1.98046 1.98047 1.98046 1.97656-.88671 1.97656-1.98046Zm5.63671-11.26562c0-1.09375-.88672-1.98047-1.98047-1.98047s-1.98047.88672-1.98047 1.98047c0 1.09374.88672 1.98046 1.98047 1.98046s1.98047-.88672 1.98047-1.98046Zm5.63281 16.89843c0-1.09375-.88672-1.98047-1.98047-1.98047s-1.98047.88672-1.98047 1.98047.88672 1.98047 1.98047 1.98047 1.98047-.88672 1.98047-1.98047Zm0 0"/><path d="M594.57422 99.88672c0-1.09375-.88672-1.98047-1.98047-1.98047s-1.98047.88672-1.98047 1.98047.88672 1.98047 1.98047 1.98047 1.98047-.88672 1.98047-1.98047m0 0"/><g clip-path="url(#p)"><path fill="none" stroke="#000" stroke-miterlimit="10" stroke-width=".39594" d="M594.57403 99.88673c0-1.09375-.88672-1.98047-1.98047-1.98047s-1.98046.88672-1.98046 1.98047.88671 1.98046 1.98046 1.98046 1.98047-.88671 1.98047-1.98046Zm0 0"/></g><g clip-path="url(#q)"><path d="M600.20703 99.88672c0-1.09375-.88672-1.98047-1.98047-1.98047s-1.98047.88672-1.98047 1.98047.88672 1.98047 1.98047 1.98047 1.98047-.88672 1.98047-1.98047m0 0"/></g><g clip-path="url(#r)"><path fill="none" stroke="#000" stroke-miterlimit="10" stroke-width=".39594" d="M600.20684 99.88673c0-1.09375-.88672-1.98047-1.98047-1.98047s-1.98046.88672-1.98046 1.98047.88671 1.98046 1.98046 1.98046 1.98047-.88671 1.98047-1.98046Zm0 0"/></g><path fill="none" stroke="#000" stroke-miterlimit="10" stroke-width=".39594" d="M34.89844 116.78516v11.26562"/><use xlink:href="#s" x="32.3502" y="141.37058"/><path fill="none" stroke="#000" stroke-miterlimit="10" stroke-width=".39594" d="M147.55856 116.78516v11.26562"/><use xlink:href="#t" x="142.45899" y="141.37058"/><use xlink:href="#s" x="147.55677" y="141.37058"/><path fill="none" stroke="#000" stroke-miterlimit="10" stroke-width=".39594" d="M260.21477 116.78516v11.26562"/><use xlink:href="#u" x="255.11629" y="141.37058"/><use xlink:href="#s" x="260.21408" y="141.37058"/><path fill="none" stroke="#000" stroke-miterlimit="10" stroke-width=".39594" d="M372.87489 116.78516v11.26562"/><use xlink:href="#v" x="367.7726" y="141.37058"/><use xlink:href="#s" x="372.87039" y="141.37058"/><path fill="none" stroke="#000" stroke-miterlimit="10" stroke-width=".39594" d="M485.535 116.78516v11.26562"/><use xlink:href="#w" x="480.42991" y="141.37058"/><use xlink:href="#s" x="485.5277" y="141.37058"/><path fill="none" stroke="#000" stroke-miterlimit="10" stroke-width=".39594" d="M598.19122 116.78516v11.26562"/><use xlink:href="#x" x="590.5387" y="141.37058"/><use xlink:href="#s" x="595.63649" y="141.37058"/><use xlink:href="#s" x="600.73427" y="141.37058"/><path fill="none" stroke="#000" stroke-miterlimit="10" stroke-width=".39594" d="M40.53125 122.41797H29.26563"/><use xlink:href="#s" x="17.17436" y="125.52607"/><path fill="none" stroke="#000" stroke-miterlimit="10" stroke-width=".39594" d="M40.53125 99.88673H29.26563"/><use xlink:href="#s" x="8.38322" y="102.36687"/><use xlink:href="#y" x="13.48101" y="102.36687"/><use xlink:href="#t" x="17.17319" y="102.36687"/><path fill="none" stroke="#000" stroke-miterlimit="10" stroke-width=".39594" d="M40.53125 77.35548H29.26563"/><use xlink:href="#s" x="8.38322" y="79.83461"/><use xlink:href="#y" x="13.48101" y="79.83461"/><use xlink:href="#u" x="17.17319" y="79.83461"/><path fill="none" stroke="#000" stroke-miterlimit="10" stroke-width=".39594" d="M40.53125 54.82424H29.26563"/><use xlink:href="#s" x="8.38322" y="57.30335"/><use xlink:href="#y" x="13.48101" y="57.30335"/><use xlink:href="#v" x="17.17319" y="57.30335"/><path fill="none" stroke="#000" stroke-miterlimit="10" stroke-width=".39594" d="M40.53125 32.293H29.26563"/><use xlink:href="#s" x="8.38322" y="34.77209"/><use xlink:href="#y" x="13.48101" y="34.77209"/><use xlink:href="#w" x="17.17319" y="34.77209"/><path fill="none" stroke="#000" stroke-miterlimit="10" stroke-width=".39594" d="M40.53125 9.75785H29.26563"/><use xlink:href="#x" x="17.17436" y="12.92341"/><path fill="none" stroke="#000" stroke-miterlimit="10" stroke-width=".39594" d="M592.5584 103.64063h11.26563"/><use xlink:href="#x" x="613.18721" y="102.50199"/><path fill="none" stroke="#000" stroke-miterlimit="10" stroke-width=".54448" d="M613.1875 103.85547h5.09766"/><use xlink:href="#v" x="613.18721" y="110.99903"/></svg>