<svg xmlns="http://www.w3.org/2000/svg" xmlns:xlink="http://www.w3.org/1999/xlink" width="393.45pt" height="93.147pt" viewBox="0 0 393.45 93.147"><defs><clipPath id="a"><path d="M22.15625 62H33v14.3086H22.15625Zm0 0"/></clipPath><clipPath id="b"><path d="M22.15625 55H36v15H22.15625Zm0 0"/></clipPath><clipPath id="c"><path d="M25 62h15v14.3086H25Zm0 0"/></clipPath><clipPath id="d"><path d="M34 75h4v1.3086h-4Zm0 0"/></clipPath><clipPath id="e"><path d="M29 69h15v7.3086H29Zm0 0"/></clipPath><clipPath id="f"><path d="M32 65h15v11.3086H32Zm0 0"/></clipPath><clipPath id="g"><path d="M43 65h15v11.3086H43Zm0 0"/></clipPath><clipPath id="h"><path d="M60 62h15v14.3086H60Zm0 0"/></clipPath><clipPath id="i"><path d="M68 62h14v14.3086H68Zm0 0"/></clipPath><clipPath id="j"><path d="M71 65h15v11.3086H71Zm0 0"/></clipPath><clipPath id="k"><path d="M75 62h14v14.3086H75Zm0 0"/></clipPath><clipPath id="l"><path d="M103 65h14v11.3086h-14Zm0 0"/></clipPath><clipPath id="m"><path d="M131 62h14v14.3086h-14Zm0 0"/></clipPath><clipPath id="n"><path d="M134 62h15v14.3086h-15Zm0 0"/></clipPath><clipPath id="o"><path d="M141 62h15v14.3086h-15Zm0 0"/></clipPath><clipPath id="p"><path d="M145 65h14v11.3086h-14Zm0 0"/></clipPath><clipPath id="q"><path d="M152 65h14v11.3086h-14Zm0 0"/></clipPath><clipPath id="r"><path d="M155 62h15v14.3086h-15Zm0 0"/></clipPath><clipPath id="s"><path d="M162 62h15v14.3086h-15Zm0 0"/></clipPath><clipPath id="t"><path d="M169 62h15v14.3086h-15Zm0 0"/></clipPath><clipPath id="u"><path d="M173 62h14v14.3086h-14Zm0 0"/></clipPath><clipPath id="v"><path d="M203 75h3v1.3086h-3Zm0 0"/></clipPath><clipPath id="w"><path d="M197 69h15v7.3086h-15Zm0 0"/></clipPath><clipPath id="x"><path d="M218 62h15v14.3086h-15Zm0 0"/></clipPath><clipPath id="y"><path d="M226 62h14v14.3086h-14Zm0 0"/></clipPath><clipPath id="z"><path d="M240 65h14v11.3086h-14Zm0 0"/></clipPath><clipPath id="A"><path d="M243 65h15v11.3086h-15Zm0 0"/></clipPath><clipPath id="B"><path d="M254 62h14v14.3086h-14Zm0 0"/></clipPath><clipPath id="C"><path d="M257 65h15v11.3086h-15Zm0 0"/></clipPath><clipPath id="D"><path d="M268 62h14v14.3086h-14Zm0 0"/></clipPath><clipPath id="E"><path d="M271 62h15v14.3086h-15Zm0 0"/></clipPath><clipPath id="F"><path d="M282 62h14v14.3086h-14Zm0 0"/></clipPath><clipPath id="G"><path d="M306 62h15v14.3086h-15Zm0 0"/></clipPath><clipPath id="H"><path d="M313 65h15v11.3086h-15Zm0 0"/></clipPath><clipPath id="I"><path d="M331 62h14v14.3086h-14Zm0 0"/></clipPath><clipPath id="J"><path d="M334 62h15v14.3086h-15Zm0 0"/></clipPath><clipPath id="K"><path d="M359 62h14.27344v14.3086H359Zm0 0"/></clipPath><clipPath id="L"><path d="M362 55h11.27344v15H362Zm0 0"/></clipPath><clipPath id="M"><path d="M372 61h1.27344v3H372Zm0 0"/></clipPath><clipPath id="N"><path d="M366 55h7.27344v15H366Zm0 0"/></clipPath><path id="O" d="M.23438-1.9375c0 1.10938.34375 2 1.35937 2 1.01563 0 1.35938-.89062 1.35938-2 0-1.125-.34375-2-1.35938-2-1.01562 0-1.35937.875-1.35937 2m.73437 0c0-.8125.10938-1.78125.625-1.78125.51563 0 .625.96875.625 1.78125s-.10937 1.78125-.625 1.78125c-.51562 0-.625-.96875-.625-1.78125m0 0"/><path id="P" d="M.17188-.07812.25 0h2.5l.21875-.875-.17187-.03125c-.15625.3125-.25.34375-.48438.34375H.82813c.09374-.25.375-.625.95312-1 .60938-.375 1.01563-.65625 1.01563-1.28125 0-.8125-.54688-1.09375-1.21875-1.09375-.78125 0-1.26563.42188-1.26563.82813 0 .21875.25.3125.39063.3125.125 0 .17187-.04688.20312-.17188.09375-.4375.3125-.75.64063-.75.375 0 .5.34375.5.75 0 .51563-.20313.90625-.78125 1.39063C.51563-.9375.25-.5.17188-.07812m0 0"/><path id="Q" d="m.125-1.17187.07813.14062h1.53125v.59375c0 .17188-.0625.20313-.17188.21875l-.39062.03125V0h1.65625v-.1875l-.28125-.03125c-.10938-.01562-.15625-.04687-.15625-.21875v-.59375h.57812v-.32812h-.57812V-3.875h-.54688C1.26563-3.03125.64063-2.0625.125-1.17187m.5-.1875c.3125-.57813.70313-1.21875 1.10938-1.875v1.875Zm0 0"/><path id="R" d="M.23438-1.82812C.23438-.625.65625.0625 1.625.0625c.9375 0 1.39063-.57812 1.39063-1.32812 0-.79688-.51563-1.20313-1.125-1.20313-.42188 0-.75.26563-.9375.48438.01562-.90625.23437-1.73438.78125-1.73438.25 0 .4375.23438.53125.59375.01562.07813.07812.14063.1875.14063.14062 0 .375-.10938.375-.29688 0-.26562-.32813-.65625-1.04688-.65625-.95312 0-1.54687.70313-1.54687 2.10938m.71875.46875c0-.34375.23437-.73438.67187-.73438.34375 0 .65625.29688.65625.95313 0 .57812-.1875.98437-.64062.98437-.46875 0-.6875-.54687-.6875-1.20312m0 0"/><path id="S" d="M.21875-1.07812c0 .71875.51563 1.14062 1.375 1.14062.85938 0 1.375-.42187 1.375-1.14062 0-.5625-.34375-.89063-.76562-1.01563.32812-.09375.625-.375.625-.84375 0-.64062-.5-1-1.23438-1-.73437 0-1.23437.35938-1.23437 1 0 .46875.28125.75.625.84375-.42188.125-.76563.45313-.76563 1.01563m.73438.01562c0-.5.21874-.875.64062-.875s.64063.375.64063.875c0 .51563-.20313.90625-.64063.90625S.95313-.54687.95313-1.0625m.09374-1.89062c0-.4375.20313-.76563.54688-.76563.35938 0 .54688.32813.54688.76563 0 .40625-.1875.76562-.54688.76562-.35937 0-.54687-.35937-.54687-.76562m0 0"/><path id="T" d="M.625 0h1.98438v-.1875l-.45313-.04687c-.125 0-.1875-.04688-.1875-.26563v-3.40625l-.04687-.03125-1.28125.20313v.17187l.46875.0625c.125.01563.15624.0625.15624.25V-.5c0 .21875-.0625.26563-.1875.26563L.625-.1875Zm0 0"/><path id="U" d="m.29688.73438.14062.125c.29688-.28126.79688-.70313.79688-1.15625 0-.3125-.17188-.5625-.45313-.5625-.23437 0-.34375.1875-.34375.32812 0 .20313.17188.32813.17188.5625 0 .25-.125.5-.3125.70313m0 0"/></defs><path fill="#FFF" stroke="#FFF" stroke-miterlimit="10" stroke-width=".39489" d="M22.15625 76.3086V6.082H373.2736v70.2266Zm0 0"/><path fill="none" stroke="#000" stroke-miterlimit="10" stroke-width=".39489" d="M22.15625 76.3086V6.082H373.2736v70.2266Zm0 0"/><path fill="none" stroke="#EC008C" stroke-dasharray="2.9617213119 2.9617213119" stroke-miterlimit="10" stroke-width="1.18469" d="M22.15625 64.60156H373.2736"/><path d="M26.89844 69.28516c0-.6836-.55078-1.23438-1.23438-1.23438-.67968 0-1.23047.55078-1.23047 1.23438 0 .67968.55079 1.23437 1.23047 1.23437.6836 0 1.23438-.55469 1.23438-1.23437m0 0"/><g clip-path="url(#a)"><path fill="none" stroke="#000" stroke-miterlimit="10" stroke-width=".39489" d="M26.89844 69.28515c0-.6836-.55078-1.23437-1.23438-1.23437-.67968 0-1.23047.55078-1.23047 1.23437 0 .6797.55079 1.23438 1.23047 1.23438.6836 0 1.23438-.55469 1.23438-1.23438Zm0 0"/></g><path d="M30.41016 62.26172c0-.67969-.55079-1.23438-1.23438-1.23438-.67969 0-1.23437.5547-1.23437 1.23438 0 .6836.55468 1.23437 1.23437 1.23437.6836 0 1.23438-.55078 1.23438-1.23437m0 0"/><g clip-path="url(#b)"><path fill="none" stroke="#000" stroke-miterlimit="10" stroke-width=".39489" d="M30.41016 62.26171c0-.67969-.55078-1.23437-1.23438-1.23437-.67968 0-1.23437.55468-1.23437 1.23437 0 .6836.55469 1.23438 1.23437 1.23438.6836 0 1.23438-.55078 1.23438-1.23438Zm0 0"/></g><path d="M33.92188 69.28516c0-.6836-.55079-1.23438-1.23438-1.23438-.67969 0-1.23437.55078-1.23437 1.23438 0 .67968.55468 1.23437 1.23437 1.23437.6836 0 1.23438-.55469 1.23438-1.23437m0 0"/><g clip-path="url(#c)"><path fill="none" stroke="#000" stroke-miterlimit="10" stroke-width=".39489" d="M33.92188 69.28515c0-.6836-.55078-1.23437-1.23438-1.23437-.67968 0-1.23437.55078-1.23437 1.23437 0 .6797.55469 1.23438 1.23437 1.23438.6836 0 1.23438-.55469 1.23438-1.23438Zm0 0"/></g><g clip-path="url(#d)"><path d="M37.4336 76.3086c0-.6836-.55079-1.23438-1.23438-1.23438-.67969 0-1.23438.55078-1.23438 1.23437 0 .6797.5547 1.23438 1.23438 1.23438.6836 0 1.23437-.55469 1.23437-1.23438m0 0"/></g><g clip-path="url(#e)"><path fill="none" stroke="#000" stroke-miterlimit="10" stroke-width=".39489" d="M37.4336 76.3086c0-.6836-.55078-1.23438-1.23437-1.23438-.6797 0-1.23438.55078-1.23438 1.23437 0 .6797.55469 1.23438 1.23438 1.23438.68359 0 1.23437-.55469 1.23437-1.23438Zm0 0"/></g><path d="M40.94531 72.79688c0-.6836-.55468-1.23438-1.23437-1.23438-.6836 0-1.23438.55078-1.23438 1.23438 0 .67968.55078 1.23437 1.23438 1.23437.67968 0 1.23437-.55469 1.23437-1.23437m0 0"/><g clip-path="url(#f)"><path fill="none" stroke="#000" stroke-miterlimit="10" stroke-width=".39489" d="M40.94532 72.79687c0-.68359-.55469-1.23437-1.23437-1.23437-.6836 0-1.23438.55078-1.23438 1.23437 0 .6797.55078 1.23438 1.23438 1.23438.67968 0 1.23437-.55469 1.23437-1.23438Zm0 0"/></g><path stroke="#000" stroke-miterlimit="10" stroke-width=".39489" d="M44.45704 65.77343c0-.67969-.55469-1.23437-1.23437-1.23437-.6836 0-1.23438.55468-1.23438 1.23437 0 .6836.55078 1.23438 1.23438 1.23438.67968 0 1.23437-.55078 1.23437-1.23438Zm3.51172 0c0-.67969-.55469-1.23437-1.23437-1.23437-.6836 0-1.23438.55468-1.23438 1.23437 0 .6836.55078 1.23438 1.23438 1.23438.67968 0 1.23437-.55078 1.23437-1.23438Zm0 0"/><path d="M51.47656 72.79688c0-.6836-.55078-1.23438-1.23047-1.23438-.68359 0-1.23437.55078-1.23437 1.23438 0 .67968.55078 1.23437 1.23437 1.23437.6797 0 1.23047-.55469 1.23047-1.23437m0 0"/><g clip-path="url(#g)"><path fill="none" stroke="#000" stroke-miterlimit="10" stroke-width=".39489" d="M51.47658 72.79687c0-.68359-.55079-1.23437-1.23047-1.23437-.6836 0-1.23438.55078-1.23438 1.23437 0 .6797.55078 1.23438 1.23438 1.23438.67968 0 1.23047-.55469 1.23047-1.23438Zm0 0"/></g><path stroke="#000" stroke-miterlimit="10" stroke-width=".39489" d="M54.9883 58.75c0-.6797-.55078-1.23438-1.23438-1.23438-.67969 0-1.23437.55468-1.23437 1.23437 0 .6836.55468 1.23438 1.23437 1.23438.6836 0 1.23438-.55078 1.23438-1.23438Zm3.51172 3.51171c0-.67969-.55078-1.23437-1.23438-1.23437-.67969 0-1.23437.55468-1.23437 1.23437 0 .6836.55468 1.23438 1.23437 1.23438.6836 0 1.23438-.55078 1.23438-1.23438Zm3.51172 0c0-.67969-.55078-1.23437-1.23438-1.23437-.67969 0-1.23437.55468-1.23437 1.23437 0 .6836.55468 1.23438 1.23437 1.23438.6836 0 1.23438-.55078 1.23438-1.23438Zm3.51172 3.51172c0-.67969-.55469-1.23437-1.23438-1.23437-.67968 0-1.23437.55468-1.23437 1.23437 0 .6836.55469 1.23438 1.23437 1.23438.67969 0 1.23438-.55078 1.23438-1.23438Zm0 0"/><path d="M69.03516 69.28516c0-.6836-.5547-1.23438-1.23438-1.23438-.6836 0-1.23437.55078-1.23437 1.23438 0 .67968.55078 1.23437 1.23437 1.23437.67969 0 1.23438-.55469 1.23438-1.23437m0 0"/><g clip-path="url(#h)"><path fill="none" stroke="#000" stroke-miterlimit="10" stroke-width=".39489" d="M69.03518 69.28515c0-.6836-.55469-1.23437-1.23438-1.23437-.6836 0-1.23437.55078-1.23437 1.23437 0 .6797.55078 1.23438 1.23437 1.23438.6797 0 1.23438-.55469 1.23438-1.23438Zm0 0"/></g><path stroke="#000" stroke-miterlimit="10" stroke-width=".39489" d="M72.5469 62.26171c0-.67969-.55469-1.23437-1.23438-1.23437-.6836 0-1.23437.55468-1.23437 1.23437 0 .6836.55078 1.23438 1.23437 1.23438.6797 0 1.23438-.55078 1.23438-1.23438Zm0 0"/><path d="M76.05469 69.28516c0-.6836-.55078-1.23438-1.23047-1.23438-.6836 0-1.23438.55078-1.23438 1.23438 0 .67968.55079 1.23437 1.23438 1.23437.67969 0 1.23047-.55469 1.23047-1.23437m0 0"/><g clip-path="url(#i)"><path fill="none" stroke="#000" stroke-miterlimit="10" stroke-width=".39489" d="M76.05471 69.28515c0-.6836-.55078-1.23437-1.23047-1.23437-.6836 0-1.23437.55078-1.23437 1.23437 0 .6797.55078 1.23438 1.23437 1.23438.6797 0 1.23047-.55469 1.23047-1.23438Zm0 0"/></g><path d="M79.5664 72.79688c0-.6836-.55078-1.23438-1.23437-1.23438-.67969 0-1.23047.55078-1.23047 1.23438 0 .67968.55078 1.23437 1.23047 1.23437.6836 0 1.23438-.55469 1.23438-1.23437m0 0"/><g clip-path="url(#j)"><path fill="none" stroke="#000" stroke-miterlimit="10" stroke-width=".39489" d="M79.56643 72.79687c0-.68359-.55078-1.23437-1.23437-1.23437-.67969 0-1.23047.55078-1.23047 1.23437 0 .6797.55078 1.23438 1.23047 1.23438.6836 0 1.23437-.55469 1.23437-1.23438Zm0 0"/></g><path d="M83.07813 69.28516c0-.6836-.55079-1.23438-1.23438-1.23438-.67969 0-1.23437.55078-1.23437 1.23438 0 .67968.55468 1.23437 1.23437 1.23437.6836 0 1.23438-.55469 1.23438-1.23437m0 0"/><g clip-path="url(#k)"><path fill="none" stroke="#000" stroke-miterlimit="10" stroke-width=".39489" d="M83.07815 69.28515c0-.6836-.55078-1.23437-1.23437-1.23437-.67969 0-1.23438.55078-1.23438 1.23437 0 .6797.55469 1.23438 1.23438 1.23438.6836 0 1.23437-.55469 1.23437-1.23438Zm0 0"/></g><path stroke="#000" stroke-miterlimit="10" stroke-width=".39489" d="M86.58987 62.26171c0-.67969-.55078-1.23437-1.23437-1.23437-.67969 0-1.23438.55468-1.23438 1.23437 0 .6836.5547 1.23438 1.23438 1.23438.6836 0 1.23437-.55078 1.23437-1.23438Zm3.51173-10.53516c0-.67969-.55079-1.23047-1.23438-1.23047-.67969 0-1.23438.55078-1.23438 1.23047 0 .6836.5547 1.23438 1.23438 1.23438.6836 0 1.23437-.55078 1.23437-1.23438ZM93.61332 58.75c0-.6797-.5547-1.23438-1.23438-1.23438-.6836 0-1.23438.55468-1.23438 1.23437 0 .6836.55079 1.23438 1.23438 1.23438.67969 0 1.23438-.55078 1.23438-1.23438Zm3.51172 0c0-.6797-.5547-1.23438-1.23438-1.23438-.6836 0-1.23438.55468-1.23438 1.23437 0 .6836.55079 1.23438 1.23438 1.23438.67969 0 1.23438-.55078 1.23438-1.23438Zm3.51172 3.51171c0-.67969-.5547-1.23437-1.23438-1.23437-.6836 0-1.23438.55468-1.23438 1.23437 0 .6836.55079 1.23438 1.23438 1.23438.67969 0 1.23438-.55078 1.23438-1.23438Zm3.50781 3.51172c0-.67969-.55078-1.23437-1.23047-1.23437-.6836 0-1.23437.55468-1.23437 1.23437 0 .6836.55078 1.23438 1.23437 1.23438.67969 0 1.23047-.55078 1.23047-1.23438Zm3.51173-3.51172c0-.67969-.5508-1.23437-1.23439-1.23437-.67968 0-1.23437.55468-1.23437 1.23437 0 .6836.55469 1.23438 1.23437 1.23438.6836 0 1.23438-.55078 1.23438-1.23438Zm0 0"/><path d="M111.16797 72.79688c0-.6836-.55078-1.23438-1.23438-1.23438-.67968 0-1.23437.55078-1.23437 1.23438 0 .67968.55469 1.23437 1.23437 1.23437.6836 0 1.23438-.55469 1.23438-1.23437m0 0"/><g clip-path="url(#l)"><path fill="none" stroke="#000" stroke-miterlimit="10" stroke-width=".39489" d="M111.16801 72.79687c0-.68359-.55078-1.23437-1.23437-1.23437-.6797 0-1.23438.55078-1.23438 1.23437 0 .6797.55469 1.23438 1.23438 1.23438.68359 0 1.23437-.55469 1.23437-1.23438Zm0 0"/></g><path stroke="#000" stroke-miterlimit="10" stroke-width=".39489" d="M114.67973 62.26171c0-.67969-.55078-1.23437-1.23437-1.23437-.6797 0-1.23438.55468-1.23438 1.23437 0 .6836.55469 1.23438 1.23438 1.23438.68359 0 1.23437-.55078 1.23437-1.23438Zm3.51172 3.51172c0-.67969-.55469-1.23437-1.23437-1.23437-.6797 0-1.23438.55468-1.23438 1.23437 0 .6836.55469 1.23438 1.23438 1.23438.67968 0 1.23437-.55078 1.23437-1.23438Zm3.51172 0c0-.67969-.55469-1.23437-1.23437-1.23437-.6836 0-1.23438.55468-1.23438 1.23437 0 .6836.55078 1.23438 1.23438 1.23438.67968 0 1.23437-.55078 1.23437-1.23438Zm3.51173-3.51172c0-.67969-.5547-1.23437-1.23438-1.23437-.6836 0-1.23438.55468-1.23438 1.23437 0 .6836.55078 1.23438 1.23438 1.23438.67969 0 1.23437-.55078 1.23437-1.23438Zm3.5078 3.51172c0-.67969-.55077-1.23437-1.23046-1.23437-.6836 0-1.23438.55468-1.23438 1.23437 0 .6836.55078 1.23438 1.23438 1.23438.67969 0 1.23047-.55078 1.23047-1.23438Zm3.51173-7.02343c0-.6797-.55078-1.23438-1.23438-1.23438-.67969 0-1.23047.55468-1.23047 1.23437 0 .6836.55078 1.23438 1.23047 1.23438.6836 0 1.23438-.55078 1.23438-1.23438Zm3.51172 3.51171c0-.67969-.55078-1.23437-1.23438-1.23437-.67969 0-1.23437.55468-1.23437 1.23437 0 .6836.55468 1.23438 1.23437 1.23438.6836 0 1.23438-.55078 1.23438-1.23438Zm0 0"/><path d="M139.25781 69.28516c0-.6836-.55078-1.23438-1.23437-1.23438-.67969 0-1.23438.55078-1.23438 1.23438 0 .67968.55469 1.23437 1.23438 1.23437.6836 0 1.23437-.55469 1.23437-1.23437m0 0"/><g clip-path="url(#m)"><path fill="none" stroke="#000" stroke-miterlimit="10" stroke-width=".39489" d="M139.25787 69.28515c0-.6836-.55078-1.23437-1.23438-1.23437-.67969 0-1.23437.55078-1.23437 1.23437 0 .6797.55468 1.23438 1.23437 1.23438.6836 0 1.23438-.55469 1.23438-1.23438Zm0 0"/></g><path d="M142.76953 69.28516c0-.6836-.55078-1.23438-1.23437-1.23438-.6797 0-1.23438.55078-1.23438 1.23438 0 .67968.55469 1.23437 1.23438 1.23437.68359 0 1.23437-.55469 1.23437-1.23437m0 0"/><g clip-path="url(#n)"><path fill="none" stroke="#000" stroke-miterlimit="10" stroke-width=".39489" d="M142.76959 69.28515c0-.6836-.55078-1.23437-1.23438-1.23437-.67968 0-1.23437.55078-1.23437 1.23437 0 .6797.55469 1.23438 1.23437 1.23438.6836 0 1.23438-.55469 1.23438-1.23438Zm0 0"/></g><path stroke="#000" stroke-miterlimit="10" stroke-width=".39489" d="M146.2813 58.75c0-.6797-.55468-1.23438-1.23437-1.23438-.6836 0-1.23437.55468-1.23437 1.23437 0 .6836.55078 1.23438 1.23437 1.23438.6797 0 1.23438-.55078 1.23438-1.23438Zm0 0"/><path d="M149.79297 69.28516c0-.6836-.55469-1.23438-1.23438-1.23438-.68359 0-1.23437.55078-1.23437 1.23438 0 .67968.55078 1.23437 1.23437 1.23437.6797 0 1.23438-.55469 1.23438-1.23437m0 0"/><g clip-path="url(#o)"><path fill="none" stroke="#000" stroke-miterlimit="10" stroke-width=".39489" d="M149.79303 69.28515c0-.6836-.55469-1.23437-1.23438-1.23437-.68359 0-1.23437.55078-1.23437 1.23437 0 .6797.55078 1.23438 1.23437 1.23438.6797 0 1.23438-.55469 1.23438-1.23438Zm0 0"/></g><path d="M153.30469 72.79688c0-.6836-.55469-1.23438-1.23438-1.23438-.6836 0-1.23437.55078-1.23437 1.23438 0 .67968.55078 1.23437 1.23437 1.23437.67969 0 1.23438-.55469 1.23438-1.23437m0 0"/><g clip-path="url(#p)"><path fill="none" stroke="#000" stroke-miterlimit="10" stroke-width=".39489" d="M153.30475 72.79687c0-.68359-.55469-1.23437-1.23438-1.23437-.6836 0-1.23437.55078-1.23437 1.23437 0 .6797.55078 1.23438 1.23437 1.23438.6797 0 1.23438-.55469 1.23438-1.23438Zm0 0"/></g><path stroke="#000" stroke-miterlimit="10" stroke-width=".39489" d="M156.81256 58.75c0-.6797-.55078-1.23438-1.23047-1.23438-.68359 0-1.23437.55468-1.23437 1.23437 0 .6836.55078 1.23438 1.23437 1.23438.6797 0 1.23047-.55078 1.23047-1.23438Zm0 0"/><path d="M160.32422 72.79688c0-.6836-.55078-1.23438-1.23438-1.23438-.67968 0-1.23437.55078-1.23437 1.23438 0 .67968.55469 1.23437 1.23437 1.23437.6836 0 1.23438-.55469 1.23438-1.23437m0 0"/><g clip-path="url(#q)"><path fill="none" stroke="#000" stroke-miterlimit="10" stroke-width=".39489" d="M160.32428 72.79687c0-.68359-.55078-1.23437-1.23437-1.23437-.67969 0-1.23438.55078-1.23438 1.23437 0 .6797.55469 1.23438 1.23438 1.23438.6836 0 1.23437-.55469 1.23437-1.23438Zm0 0"/></g><path d="M163.83594 69.28516c0-.6836-.55078-1.23438-1.23438-1.23438-.67969 0-1.23437.55078-1.23437 1.23438 0 .67968.55469 1.23437 1.23437 1.23437.6836 0 1.23438-.55469 1.23438-1.23437m0 0"/><g clip-path="url(#r)"><path fill="none" stroke="#000" stroke-miterlimit="10" stroke-width=".39489" d="M163.836 69.28515c0-.6836-.55078-1.23437-1.23437-1.23437-.67969 0-1.23438.55078-1.23438 1.23437 0 .6797.5547 1.23438 1.23438 1.23438.6836 0 1.23437-.55469 1.23437-1.23438Zm0 0"/></g><path stroke="#000" stroke-miterlimit="10" stroke-width=".39489" d="M167.34772 62.26171c0-.67969-.55078-1.23437-1.23437-1.23437-.67969 0-1.23438.55468-1.23438 1.23437 0 .6836.5547 1.23438 1.23438 1.23438.6836 0 1.23437-.55078 1.23437-1.23438Zm0 0"/><path d="M170.85938 69.28516c0-.6836-.5547-1.23438-1.23438-1.23438s-1.23437.55078-1.23437 1.23438c0 .67968.55468 1.23437 1.23437 1.23437s1.23438-.55469 1.23438-1.23437m0 0"/><g clip-path="url(#s)"><path fill="none" stroke="#000" stroke-miterlimit="10" stroke-width=".39489" d="M170.85945 69.28515c0-.6836-.5547-1.23437-1.23438-1.23437s-1.23438.55078-1.23438 1.23437c0 .6797.5547 1.23438 1.23438 1.23438s1.23438-.55469 1.23438-1.23438Zm0 0"/></g><path stroke="#000" stroke-miterlimit="10" stroke-width=".39489" d="M174.37117 58.75c0-.6797-.5547-1.23438-1.23438-1.23438-.6836 0-1.23438.55468-1.23438 1.23437 0 .6836.55079 1.23438 1.23438 1.23438.67969 0 1.23438-.55078 1.23438-1.23438Zm0 0"/><path d="M177.88281 69.28516c0-.6836-.55469-1.23438-1.23437-1.23438-.6836 0-1.23438.55078-1.23438 1.23438 0 .67968.55078 1.23437 1.23438 1.23437.67969 0 1.23437-.55469 1.23437-1.23437m0 0"/><g clip-path="url(#t)"><path fill="none" stroke="#000" stroke-miterlimit="10" stroke-width=".39489" d="M177.88289 69.28515c0-.6836-.5547-1.23437-1.23438-1.23437-.6836 0-1.23438.55078-1.23438 1.23437 0 .6797.55079 1.23438 1.23438 1.23438.67969 0 1.23438-.55469 1.23438-1.23438Zm0 0"/></g><path d="M181.39063 69.28516c0-.6836-.55079-1.23438-1.23047-1.23438-.6836 0-1.23438.55078-1.23438 1.23438 0 .67968.55078 1.23437 1.23438 1.23437.67968 0 1.23047-.55469 1.23047-1.23437m0 0"/><g clip-path="url(#u)"><path fill="none" stroke="#000" stroke-miterlimit="10" stroke-width=".39489" d="M181.3907 69.28515c0-.6836-.55078-1.23437-1.23047-1.23437-.6836 0-1.23437.55078-1.23437 1.23437 0 .6797.55078 1.23438 1.23437 1.23438.67969 0 1.23047-.55469 1.23047-1.23438Zm0 0"/></g><path stroke="#000" stroke-miterlimit="10" stroke-width=".39489" d="M184.90242 62.26171c0-.67969-.55078-1.23437-1.23438-1.23437-.67968 0-1.23046.55468-1.23046 1.23437 0 .6836.55078 1.23438 1.23046 1.23438.6836 0 1.23438-.55078 1.23438-1.23438Zm3.51172-10.53516c0-.67969-.55078-1.23047-1.23437-1.23047-.6797 0-1.23438.55078-1.23438 1.23047 0 .6836.55469 1.23438 1.23438 1.23438.68359 0 1.23437-.55078 1.23437-1.23438Zm3.51172 7.02345c0-.6797-.55078-1.23438-1.23437-1.23438-.6797 0-1.23438.55468-1.23438 1.23437 0 .6836.55469 1.23438 1.23438 1.23438.68359 0 1.23437-.55078 1.23437-1.23438Zm3.51172 7.02343c0-.67969-.55078-1.23437-1.23437-1.23437-.6797 0-1.23438.55468-1.23438 1.23437 0 .6836.55469 1.23438 1.23438 1.23438.6836 0 1.23437-.55078 1.23437-1.23438Zm3.51172 0c0-.67969-.55469-1.23437-1.23437-1.23437-.6836 0-1.23438.55468-1.23438 1.23437 0 .6836.55078 1.23438 1.23438 1.23438.67968 0 1.23437-.55078 1.23437-1.23438Zm3.51172-7.02343c0-.6797-.55468-1.23438-1.23437-1.23438-.6836 0-1.23438.55468-1.23438 1.23437 0 .6836.55078 1.23438 1.23438 1.23438.67969 0 1.23437-.55078 1.23437-1.23438Zm0 0"/><g clip-path="url(#v)"><path d="M205.97266 76.3086c0-.6836-.5547-1.23438-1.23438-1.23438-.6836 0-1.23437.55078-1.23437 1.23437 0 .6797.55078 1.23438 1.23437 1.23438.67969 0 1.23438-.55469 1.23438-1.23438m0 0"/></g><g clip-path="url(#w)"><path fill="none" stroke="#000" stroke-miterlimit="10" stroke-width=".39489" d="M205.97274 76.3086c0-.6836-.55468-1.23438-1.23437-1.23438-.6836 0-1.23438.55078-1.23438 1.23437 0 .6797.55078 1.23438 1.23438 1.23438.67969 0 1.23437-.55469 1.23437-1.23438Zm0 0"/></g><path stroke="#000" stroke-miterlimit="10" stroke-width=".39489" d="M209.48056 62.26171c0-.67969-.55078-1.23437-1.23047-1.23437-.6836 0-1.23438.55468-1.23438 1.23437 0 .6836.55078 1.23438 1.23438 1.23438.67969 0 1.23047-.55078 1.23047-1.23438Zm3.51172 3.51172c0-.67969-.55078-1.23437-1.23438-1.23437-.67969 0-1.23437.55468-1.23437 1.23437 0 .6836.55468 1.23438 1.23437 1.23438.6836 0 1.23438-.55078 1.23438-1.23438Zm3.51172-3.51172c0-.67969-.55078-1.23437-1.23438-1.23437-.67969 0-1.23437.55468-1.23437 1.23437 0 .6836.55468 1.23438 1.23437 1.23438.6836 0 1.23438-.55078 1.23438-1.23438Zm3.51172 0c0-.67969-.55078-1.23437-1.23438-1.23437-.67968 0-1.23437.55468-1.23437 1.23437 0 .6836.55469 1.23438 1.23437 1.23438.6836 0 1.23438-.55078 1.23438-1.23438Zm3.51172 0c0-.67969-.55469-1.23437-1.23438-1.23437-.6836 0-1.23437.55468-1.23437 1.23437 0 .6836.55078 1.23438 1.23437 1.23438.6797 0 1.23438-.55078 1.23438-1.23438Zm0 0"/><path d="M227.03906 69.28516c0-.6836-.55469-1.23438-1.23437-1.23438-.6836 0-1.23438.55078-1.23438 1.23438 0 .67968.55078 1.23437 1.23438 1.23437.67969 0 1.23437-.55469 1.23437-1.23437m0 0"/><g clip-path="url(#x)"><path fill="none" stroke="#000" stroke-miterlimit="10" stroke-width=".39489" d="M227.03916 69.28515c0-.6836-.55469-1.23437-1.23438-1.23437-.68359 0-1.23437.55078-1.23437 1.23437 0 .6797.55078 1.23438 1.23437 1.23438.6797 0 1.23438-.55469 1.23438-1.23438Zm0 0"/></g><path stroke="#000" stroke-miterlimit="10" stroke-width=".39489" d="M230.55088 62.26171c0-.67969-.55469-1.23437-1.23438-1.23437-.68359 0-1.23437.55468-1.23437 1.23437 0 .6836.55078 1.23438 1.23437 1.23438.6797 0 1.23438-.55078 1.23438-1.23438Zm0 0"/><path d="M234.0586 69.28516c0-.6836-.55079-1.23438-1.23048-1.23438-.68359 0-1.23437.55078-1.23437 1.23438 0 .67968.55078 1.23437 1.23438 1.23437.67968 0 1.23046-.55469 1.23046-1.23437m0 0"/><g clip-path="url(#y)"><path fill="none" stroke="#000" stroke-miterlimit="10" stroke-width=".39489" d="M234.0587 69.28515c0-.6836-.55079-1.23437-1.23048-1.23437-.68359 0-1.23437.55078-1.23437 1.23437 0 .6797.55078 1.23438 1.23437 1.23438.6797 0 1.23047-.55469 1.23047-1.23438Zm0 0"/></g><path stroke="#000" stroke-miterlimit="10" stroke-width=".39489" d="M237.57041 58.75c0-.6797-.55078-1.23438-1.23437-1.23438-.67969 0-1.23047.55468-1.23047 1.23437 0 .6836.55078 1.23438 1.23047 1.23438.6836 0 1.23437-.55078 1.23437-1.23438Zm3.51172-7.02345c0-.67969-.55078-1.23047-1.23437-1.23047-.67969 0-1.23438.55078-1.23438 1.23047 0 .6836.5547 1.23438 1.23438 1.23438.6836 0 1.23437-.55078 1.23437-1.23438Zm3.51172 3.51172c0-.67969-.55078-1.23437-1.23437-1.23437-.67969 0-1.23438.55468-1.23438 1.23437 0 .6836.5547 1.23438 1.23438 1.23438.6836 0 1.23437-.55078 1.23437-1.23438Zm0 0"/><path d="M248.10547 72.79688c0-.6836-.55078-1.23438-1.23438-1.23438-.67968 0-1.23437.55078-1.23437 1.23438 0 .67968.55469 1.23437 1.23437 1.23437.6836 0 1.23438-.55469 1.23438-1.23437m0 0"/><g clip-path="url(#z)"><path fill="none" stroke="#000" stroke-miterlimit="10" stroke-width=".39489" d="M248.10558 72.79687c0-.68359-.55079-1.23437-1.23438-1.23437-.67969 0-1.23438.55078-1.23438 1.23437 0 .6797.5547 1.23438 1.23438 1.23438.6836 0 1.23438-.55469 1.23438-1.23438Zm0 0"/></g><path d="M251.61719 72.79688c0-.6836-.55469-1.23438-1.23438-1.23438-.6836 0-1.23437.55078-1.23437 1.23438 0 .67968.55078 1.23437 1.23437 1.23437.67969 0 1.23438-.55469 1.23438-1.23437m0 0"/><g clip-path="url(#A)"><path fill="none" stroke="#000" stroke-miterlimit="10" stroke-width=".39489" d="M251.6173 72.79687c0-.68359-.5547-1.23437-1.23438-1.23437-.6836 0-1.23437.55078-1.23437 1.23437 0 .6797.55078 1.23438 1.23437 1.23438.67969 0 1.23438-.55469 1.23438-1.23438Zm0 0"/></g><path stroke="#000" stroke-miterlimit="10" stroke-width=".39489" d="M255.12902 65.77343c0-.67969-.5547-1.23437-1.23438-1.23437-.6836 0-1.23438.55468-1.23438 1.23437 0 .6836.55079 1.23438 1.23438 1.23438.67969 0 1.23438-.55078 1.23438-1.23438Zm3.51172 0c0-.67969-.5547-1.23437-1.23438-1.23437-.6836 0-1.23437.55468-1.23437 1.23437 0 .6836.55078 1.23438 1.23437 1.23438.67969 0 1.23438-.55078 1.23438-1.23438Zm0 0"/><path d="M262.14844 69.28516c0-.6836-.55078-1.23438-1.23047-1.23438-.6836 0-1.23438.55078-1.23438 1.23438 0 .67968.55079 1.23437 1.23438 1.23437.67969 0 1.23047-.55469 1.23047-1.23437m0 0"/><g clip-path="url(#B)"><path fill="none" stroke="#000" stroke-miterlimit="10" stroke-width=".39489" d="M262.14855 69.28515c0-.6836-.55078-1.23437-1.23047-1.23437-.6836 0-1.23437.55078-1.23437 1.23437 0 .6797.55078 1.23438 1.23437 1.23438.67969 0 1.23047-.55469 1.23047-1.23438Zm0 0"/></g><path d="M265.66016 72.79688c0-.6836-.55079-1.23438-1.23438-1.23438-.67969 0-1.23437.55078-1.23437 1.23438 0 .67968.55468 1.23437 1.23437 1.23437.6836 0 1.23438-.55469 1.23438-1.23437m0 0"/><g clip-path="url(#C)"><path fill="none" stroke="#000" stroke-miterlimit="10" stroke-width=".39489" d="M265.66027 72.79687c0-.68359-.55078-1.23437-1.23437-1.23437-.6797 0-1.23438.55078-1.23438 1.23437 0 .6797.55469 1.23438 1.23438 1.23438.68359 0 1.23437-.55469 1.23437-1.23438Zm0 0"/></g><path stroke="#000" stroke-miterlimit="10" stroke-width=".39489" d="M269.172 62.26171c0-.67969-.55079-1.23437-1.23438-1.23437-.6797 0-1.23438.55468-1.23438 1.23437 0 .6836.55469 1.23438 1.23438 1.23438.68359 0 1.23437-.55078 1.23437-1.23438Zm3.51171-3.51171c0-.6797-.55078-1.23438-1.23437-1.23438-.6797 0-1.23438.55468-1.23438 1.23437 0 .6836.55469 1.23438 1.23438 1.23438.6836 0 1.23437-.55078 1.23437-1.23438Zm0 0"/><path d="M276.19531 69.28516c0-.6836-.55469-1.23438-1.23437-1.23438-.6836 0-1.23438.55078-1.23438 1.23438 0 .67968.55078 1.23437 1.23438 1.23437.67969 0 1.23437-.55469 1.23437-1.23437m0 0"/><g clip-path="url(#D)"><path fill="none" stroke="#000" stroke-miterlimit="10" stroke-width=".39489" d="M276.19543 69.28515c0-.6836-.55469-1.23437-1.23437-1.23437-.6836 0-1.23438.55078-1.23438 1.23437 0 .6797.55078 1.23438 1.23438 1.23438.67968 0 1.23437-.55469 1.23437-1.23438Zm0 0"/></g><path d="M279.70703 69.28516c0-.6836-.55469-1.23438-1.23437-1.23438-.6836 0-1.23438.55078-1.23438 1.23438 0 .67968.55078 1.23437 1.23438 1.23437.67968 0 1.23437-.55469 1.23437-1.23437m0 0"/><g clip-path="url(#E)"><path fill="none" stroke="#000" stroke-miterlimit="10" stroke-width=".39489" d="M279.70715 69.28515c0-.6836-.55468-1.23437-1.23437-1.23437-.6836 0-1.23438.55078-1.23438 1.23437 0 .6797.55078 1.23438 1.23438 1.23438.67969 0 1.23437-.55469 1.23437-1.23438Zm0 0"/></g><path stroke="#000" stroke-miterlimit="10" stroke-width=".39489" d="M283.21887 62.26171c0-.67969-.55468-1.23437-1.23437-1.23437-.6836 0-1.23438.55468-1.23438 1.23437 0 .6836.55078 1.23438 1.23438 1.23438.67969 0 1.23437-.55078 1.23437-1.23438Zm3.50782-3.51171c0-.6797-.55078-1.23438-1.23047-1.23438-.6836 0-1.23438.55468-1.23438 1.23437 0 .6836.55078 1.23438 1.23438 1.23438.67969 0 1.23047-.55078 1.23047-1.23438Zm0 0"/><path d="M290.23828 69.28516c0-.6836-.55078-1.23438-1.23437-1.23438-.6797 0-1.23047.55078-1.23047 1.23438 0 .67968.55078 1.23437 1.23047 1.23437.68359 0 1.23437-.55469 1.23437-1.23437m0 0"/><g clip-path="url(#F)"><path fill="none" stroke="#000" stroke-miterlimit="10" stroke-width=".39489" d="M290.2384 69.28515c0-.6836-.55077-1.23437-1.23437-1.23437-.67969 0-1.23047.55078-1.23047 1.23437 0 .6797.55078 1.23438 1.23047 1.23438.6836 0 1.23438-.55469 1.23438-1.23438Zm0 0"/></g><path stroke="#000" stroke-miterlimit="10" stroke-width=".39489" d="M293.75013 65.77343c0-.67969-.55078-1.23437-1.23438-1.23437-.67969 0-1.23437.55468-1.23437 1.23437 0 .6836.55468 1.23438 1.23437 1.23438.6836 0 1.23438-.55078 1.23438-1.23438Zm3.51172-7.02343c0-.6797-.55078-1.23438-1.23438-1.23438-.67968 0-1.23437.55468-1.23437 1.23437 0 .6836.55469 1.23438 1.23437 1.23438.6836 0 1.23438-.55078 1.23438-1.23438Zm3.51172-7.02345c0-.67969-.55078-1.23047-1.23438-1.23047-.67968 0-1.23437.55078-1.23437 1.23047 0 .6836.55469 1.23438 1.23437 1.23438.6836 0 1.23438-.55078 1.23438-1.23438Zm3.51172 14.04688c0-.67969-.55469-1.23437-1.23438-1.23437-.68359 0-1.23437.55468-1.23437 1.23437 0 .6836.55078 1.23438 1.23437 1.23438.6797 0 1.23438-.55078 1.23438-1.23438Zm3.51172 0c0-.67969-.55469-1.23437-1.23438-1.23437-.68359 0-1.23437.55468-1.23437 1.23437 0 .6836.55078 1.23438 1.23437 1.23438.6797 0 1.23438-.55078 1.23438-1.23438Zm3.51172-3.51172c0-.67969-.55469-1.23437-1.23438-1.23437-.68359 0-1.23437.55468-1.23437 1.23437 0 .6836.55078 1.23438 1.23437 1.23438.6797 0 1.23438-.55078 1.23438-1.23438Zm0 0"/><path d="M314.8164 69.28516c0-.6836-.55077-1.23438-1.23046-1.23438-.6836 0-1.23438.55078-1.23438 1.23438 0 .67968.55078 1.23437 1.23438 1.23437.67969 0 1.23047-.55469 1.23047-1.23437m0 0"/><g clip-path="url(#G)"><path fill="none" stroke="#000" stroke-miterlimit="10" stroke-width=".39489" d="M314.81654 69.28515c0-.6836-.55078-1.23437-1.23047-1.23437-.68359 0-1.23437.55078-1.23437 1.23437 0 .6797.55078 1.23438 1.23437 1.23438.6797 0 1.23047-.55469 1.23047-1.23438Zm0 0"/></g><path stroke="#000" stroke-miterlimit="10" stroke-width=".39489" d="M318.32827 62.26171c0-.67969-.55079-1.23437-1.23438-1.23437-.67969 0-1.23438.55468-1.23438 1.23437 0 .6836.5547 1.23438 1.23438 1.23438.6836 0 1.23438-.55078 1.23438-1.23438Zm0 0"/><path d="M321.83984 72.79688c0-.6836-.55078-1.23438-1.23437-1.23438-.67969 0-1.23438.55078-1.23438 1.23438 0 .67968.5547 1.23437 1.23438 1.23437.6836 0 1.23437-.55469 1.23437-1.23437m0 0"/><g clip-path="url(#H)"><path fill="none" stroke="#000" stroke-miterlimit="10" stroke-width=".39489" d="M321.83998 72.79687c0-.68359-.55078-1.23437-1.23437-1.23437-.67969 0-1.23438.55078-1.23438 1.23437 0 .6797.5547 1.23438 1.23438 1.23438.6836 0 1.23437-.55469 1.23437-1.23438Zm0 0"/></g><path stroke="#000" stroke-miterlimit="10" stroke-width=".39489" d="M325.3517 58.75c0-.6797-.55078-1.23438-1.23437-1.23438-.67969 0-1.23438.55468-1.23438 1.23437 0 .6836.5547 1.23438 1.23438 1.23438.6836 0 1.23438-.55078 1.23438-1.23438Zm3.51173 7.02343c0-.67969-.5547-1.23437-1.23438-1.23437-.6836 0-1.23437.55468-1.23437 1.23437 0 .6836.55078 1.23438 1.23437 1.23438.67969 0 1.23438-.55078 1.23438-1.23438Zm3.51172-10.53516c0-.67969-.5547-1.23437-1.23438-1.23437-.6836 0-1.23437.55468-1.23437 1.23437 0 .6836.55078 1.23438 1.23437 1.23438.67969 0 1.23438-.55078 1.23438-1.23438Zm3.51172 3.51173c0-.6797-.55469-1.23438-1.23438-1.23438-.6836 0-1.23437.55468-1.23437 1.23437 0 .6836.55078 1.23438 1.23437 1.23438.67969 0 1.23438-.55078 1.23438-1.23438Zm0 0"/><path d="M339.39453 69.28516c0-.6836-.55078-1.23438-1.23047-1.23438-.6836 0-1.23437.55078-1.23437 1.23438 0 .67968.55078 1.23437 1.23437 1.23437.67969 0 1.23047-.55469 1.23047-1.23437m0 0"/><g clip-path="url(#I)"><path fill="none" stroke="#000" stroke-miterlimit="10" stroke-width=".39489" d="M339.39468 69.28515c0-.6836-.55078-1.23437-1.23047-1.23437-.6836 0-1.23437.55078-1.23437 1.23437 0 .6797.55078 1.23438 1.23437 1.23438.67969 0 1.23047-.55469 1.23047-1.23438Zm0 0"/></g><path d="M342.90625 69.28516c0-.6836-.55078-1.23438-1.23437-1.23438-.6797 0-1.23047.55078-1.23047 1.23438 0 .67968.55078 1.23437 1.23046 1.23437.6836 0 1.23438-.55469 1.23438-1.23437m0 0"/><g clip-path="url(#J)"><path fill="none" stroke="#000" stroke-miterlimit="10" stroke-width=".39489" d="M342.9064 69.28515c0-.6836-.55078-1.23437-1.23437-1.23437-.6797 0-1.23047.55078-1.23047 1.23437 0 .6797.55078 1.23438 1.23047 1.23438.68359 0 1.23437-.55469 1.23437-1.23438Zm0 0"/></g><path stroke="#000" stroke-miterlimit="10" stroke-width=".39489" d="M346.41812 62.26171c0-.67969-.55078-1.23437-1.23437-1.23437-.6797 0-1.23438.55468-1.23438 1.23437 0 .6836.55469 1.23438 1.23438 1.23438.68359 0 1.23437-.55078 1.23437-1.23438Zm3.51172 0c0-.67969-.55078-1.23437-1.23437-1.23437-.6797 0-1.23438.55468-1.23438 1.23437 0 .6836.55469 1.23438 1.23438 1.23438.6836 0 1.23437-.55078 1.23437-1.23438Zm3.51172 3.51172c0-.67969-.55078-1.23437-1.23437-1.23437-.67969 0-1.23438.55468-1.23438 1.23437 0 .6836.55469 1.23438 1.23438 1.23438.6836 0 1.23437-.55078 1.23437-1.23438Zm3.51172-3.51172c0-.67969-.55468-1.23437-1.23437-1.23437-.6836 0-1.23438.55468-1.23438 1.23437 0 .6836.55078 1.23438 1.23438 1.23438.67969 0 1.23437-.55078 1.23437-1.23438Zm3.51172 3.51172c0-.67969-.55468-1.23437-1.23437-1.23437-.6836 0-1.23438.55468-1.23438 1.23437 0 .6836.55078 1.23438 1.23438 1.23438.67969 0 1.23437-.55078 1.23437-1.23438Zm3.51172-7.02343c0-.6797-.55468-1.23438-1.23437-1.23438-.6836 0-1.23438.55468-1.23438 1.23437 0 .6836.55078 1.23438 1.23438 1.23438.67969 0 1.23437-.55078 1.23437-1.23438Zm0 0"/><path d="M367.48438 69.28516c0-.6836-.55079-1.23438-1.23438-1.23438-.67969 0-1.23047.55078-1.23047 1.23438 0 .67968.55078 1.23437 1.23047 1.23437.6836 0 1.23438-.55469 1.23438-1.23437m0 0"/><g clip-path="url(#K)"><path fill="none" stroke="#000" stroke-miterlimit="10" stroke-width=".39489" d="M367.48454 69.28515c0-.6836-.55078-1.23437-1.23438-1.23437-.67969 0-1.23047.55078-1.23047 1.23437 0 .6797.55078 1.23438 1.23047 1.23438.6836 0 1.23438-.55469 1.23438-1.23438Zm0 0"/></g><path d="M370.9961 62.26172c0-.67969-.55079-1.23438-1.23438-1.23438-.67969 0-1.23438.5547-1.23438 1.23438 0 .6836.5547 1.23437 1.23438 1.23437.6836 0 1.23437-.55078 1.23437-1.23437m0 0"/><g clip-path="url(#L)"><path fill="none" stroke="#000" stroke-miterlimit="10" stroke-width=".39489" d="M370.99626 62.26171c0-.67969-.55078-1.23437-1.23438-1.23437-.67968 0-1.23437.55468-1.23437 1.23437 0 .6836.55469 1.23438 1.23437 1.23438.6836 0 1.23438-.55078 1.23438-1.23438Zm0 0"/></g><g clip-path="url(#M)"><path d="M374.50781 62.26172c0-.67969-.55078-1.23438-1.23437-1.23438-.67969 0-1.23438.5547-1.23438 1.23438 0 .6836.55469 1.23437 1.23438 1.23437.6836 0 1.23437-.55078 1.23437-1.23437m0 0"/></g><g clip-path="url(#N)"><path fill="none" stroke="#000" stroke-miterlimit="10" stroke-width=".39489" d="M374.50798 62.26171c0-.67969-.55078-1.23437-1.23438-1.23437-.67968 0-1.23437.55468-1.23437 1.23437 0 .6836.55469 1.23438 1.23437 1.23438.6836 0 1.23438-.55078 1.23438-1.23438Zm0 0"/></g><path fill="none" stroke="#000" stroke-miterlimit="10" stroke-width=".39489" d="M22.15625 72.79687v7.02344"/><use xlink:href="#O" x="20.56519" y="88.12103"/><path fill="none" stroke="#000" stroke-miterlimit="10" stroke-width=".39489" d="M92.37894 72.79687v7.02344"/><use xlink:href="#P" x="89.19967" y="88.12103"/><use xlink:href="#O" x="92.3773" y="88.12103"/><path fill="none" stroke="#000" stroke-miterlimit="10" stroke-width=".39489" d="M162.60163 72.79687v7.02344"/><use xlink:href="#Q" x="159.4226" y="88.12103"/><use xlink:href="#O" x="162.60022" y="88.12103"/><path fill="none" stroke="#000" stroke-miterlimit="10" stroke-width=".39489" d="M232.82822 72.79687v7.02344"/><use xlink:href="#R" x="229.64553" y="88.12103"/><use xlink:href="#O" x="232.82315" y="88.12103"/><path fill="none" stroke="#000" stroke-miterlimit="10" stroke-width=".39489" d="M303.05091 72.79687v7.02344"/><use xlink:href="#S" x="299.86846" y="88.12103"/><use xlink:href="#O" x="303.04608" y="88.12103"/><path fill="none" stroke="#000" stroke-miterlimit="10" stroke-width=".39489" d="M373.2736 72.79687v7.02344"/><use xlink:href="#T" x="368.50293" y="88.12103"/><use xlink:href="#O" x="371.68056" y="88.12103"/><use xlink:href="#O" x="374.85818" y="88.12103"/><path fill="none" stroke="#000" stroke-miterlimit="10" stroke-width=".39489" d="M25.66797 76.3086h-7.02344"/><use xlink:href="#O" x="11.10582" y="78.24447"/><path fill="none" stroke="#000" stroke-miterlimit="10" stroke-width=".39489" d="M25.66797 62.26171h-7.02344"/><use xlink:href="#O" x="5.626" y="63.80867"/><use xlink:href="#U" x="8.80363" y="63.80867"/><use xlink:href="#P" x="11.10509" y="63.80867"/><path fill="none" stroke="#000" stroke-miterlimit="10" stroke-width=".39489" d="M25.66797 48.21874h-7.02344"/><use xlink:href="#O" x="5.626" y="49.76329"/><use xlink:href="#U" x="8.80363" y="49.76329"/><use xlink:href="#Q" x="11.10509" y="49.76329"/><path fill="none" stroke="#000" stroke-miterlimit="10" stroke-width=".39489" d="M25.66797 34.17186h-7.02344"/><use xlink:href="#O" x="5.626" y="35.7189"/><use xlink:href="#U" x="8.80363" y="35.7189"/><use xlink:href="#R" x="11.10509" y="35.7189"/><path fill="none" stroke="#000" stroke-miterlimit="10" stroke-width=".39489" d="M25.66797 20.12888h-7.02344"/><use xlink:href="#O" x="5.626" y="21.67352"/><use xlink:href="#U" x="8.80363" y="21.67352"/><use xlink:href="#S" x="11.10509" y="21.67352"/><path fill="none" stroke="#000" stroke-miterlimit="10" stroke-width=".39489" d="M25.66797 6.082h-7.02344"/><use xlink:href="#T" x="11.10582" y="8.05523"/><path fill="none" stroke="#000" stroke-miterlimit="10" stroke-width=".39489" d="M369.76188 64.60156h7.02344"/><use xlink:href="#T" x="382.62164" y="63.8924"/><path fill="none" stroke="#000" stroke-miterlimit="10" stroke-width=".33939" d="M382.6211 64.73828h3.17578"/><use xlink:href="#R" x="382.62164" y="69.1889"/></svg>