<svg xmlns="http://www.w3.org/2000/svg" xmlns:xlink="http://www.w3.org/1999/xlink" width="104.163pt" height="121.959pt" viewBox="0 0 104.163 121.959"><defs><path id="a" d="M.48438-1.23437c0 .54687.84375 1.375 2.42187 1.375 1.98438 0 2.89063-1.20313 2.89063-2.73438 0-1.70312-1.0625-2.5625-2.5-2.5625-.65625 0-1.39063.28125-1.76563.64063l-.01562-.01563.26562-2.26562c.04688-.3125.125-.34375.34375-.34375h3.01563l.29687-.82813-.0625-.09375H1.32813l-.10938.10938-.25 4.03125.29688.15625c.5-.57813 1-.85938 1.65625-.85938.76562 0 1.60937.5625 1.60937 2.15625 0 1.25-.5 2.1875-1.54687 2.1875-.85938 0-1.28125-.60937-1.51563-1.29687-.0625-.1875-.1875-.29688-.34375-.29688-.25 0-.64062.25-.64062.64063m0 0"/><path id="b" d="m.60938 1.48438.23437.21874c.60938-.5625 1.48438-1.375 1.48438-2.3125 0-.65624-.34375-1.09374-.8125-1.09374-.375 0-.60938.29687-.60938.59375 0 .4375.40625.67187.40625 1.1875 0 .5-.3125.96875-.70312 1.40625m0 0"/><path id="c" d="M1.3125 0h3.96875v-.34375L4.26563-.4375C4-.46875 3.85938-.54687 3.85938-1.03125v-7.10937l-.0625-.0625-2.48438.42187v.29688l1.125.14062c.20313.01563.28125.10938.28125.45313v5.85937c0 .23438-.01562.375-.09375.46875-.0625.09375-.17187.10938-.29687.125L1.3125-.34375Zm0 0"/><path id="d" d="M.32813-.10937.45313 0h5l.40625-1.59375-.34375-.0625c-.25.65625-.5.75-.98438.75H1.45313c.1875-.64062.90625-1.5 2.03125-2.3125 1.15625-.84375 2.04687-1.375 2.04687-2.73437 0-1.67188-1.10937-2.25-2.39062-2.25-1.65625 0-2.5 1-2.5 1.625 0 .40625.46875.60937.67187.60937.21875 0 .29688-.125.34375-.34375.1875-.8125.67188-1.46875 1.40625-1.46875.9375 0 1.20313.76563 1.20313 1.65625 0 1.29688-.65625 2.03125-1.70313 2.95313C1.0625-1.875.54688-1.04687.32813-.10937m0 0"/><path id="f" d="m.23438-2.42187.09375.26562H3.625v1.23438c0 .40625-.125.46875-.42187.5l-.78125.07812V0h3.1875v-.34375l-.53125-.0625c-.28125-.04687-.35938-.10937-.35938-.51562v-1.23438h1.23438v-.5625H4.71875V-8.0625h-.89062c-1.125 1.67188-2.5 3.76563-3.59375 5.64063m.875-.29688c.71875-1.3125 1.5625-2.71875 2.48437-4.17187H3.625v4.17187Zm0 0"/><path id="g" d="M.5-2.20312C.5-.96875 1.25.14063 3.20313.14063s2.6875-1.10938 2.6875-2.34375c0-1.21875-.76563-1.9375-1.59375-2.125v-.03125c.73437-.1875 1.32812-.79688 1.32812-1.79688 0-1.3125-1.04687-2.04687-2.42187-2.04687-1.39063 0-2.4375.73437-2.4375 2.04687 0 1 .625 1.60938 1.34375 1.79688v.03125C1.29688-4.14062.5-3.42187.5-2.20312m1.20313.04687c0-1.10937.53125-1.92187 1.5-1.92187.95312 0 1.48437.8125 1.48437 1.92187 0 1.0625-.46875 1.875-1.48437 1.875-1.01563 0-1.5-.8125-1.5-1.875m.23437-4.01562c0-.9375.4375-1.60938 1.26563-1.60938.8125 0 1.25.67188 1.25 1.60938 0 .8125-.375 1.65625-1.25 1.65625S1.9375-5.35937 1.9375-6.17187m0 0"/><path id="h" d="M.32813-1.23437c0 .51562.82812 1.375 2.53125 1.375 1.75 0 2.85937-.89063 2.85937-2.42188 0-1.625-1.39062-2.09375-2.0625-2.15625V-4.5c.65625-.09375 1.70313-.59375 1.70313-1.78125 0-1.32812-1.04688-1.92187-2.34375-1.92187-1.59375 0-2.375.92187-2.375 1.4375 0 .375.42187.57812.59375.57812.15624 0 .25-.09375.29687-.25.26563-.8125.71875-1.34375 1.39063-1.34375.95312 0 1.20312.82813 1.20312 1.51563 0 .71875-.26562 1.625-1.28125 1.625-.57812 0-.92187-.10938-1.0625-.10938-.15625 0-.21875.10938-.21875.32813 0 .20312.0625.34375.21875.34375.14063 0 .48438-.125 1.0625-.125 1.01563 0 1.59375.92187 1.59375 1.98437 0 1.4375-.70312 1.9375-1.5625 1.9375-.79687 0-1.32812-.59375-1.54687-1.26562C1.25-1.78125 1.125-1.90625.96875-1.90625c-.21875 0-.64062.23438-.64062.67188m0 0"/><path id="i" d="M.5-4.03125C.5-1.625 1.20313.14063 3.20313.14063c1.98437 0 2.70312-1.76563 2.70312-4.17188 0-2.42187-.71875-4.17187-2.70312-4.17187-2 0-2.70313 1.75-2.70313 4.17187m1.21875 0c0-1.96875.34375-3.75 1.48438-3.75 1.14062 0 1.46875 1.78125 1.46875 3.75s-.32813 3.75-1.46875 3.75c-1.14063 0-1.48438-1.78125-1.48438-3.75m0 0"/><path id="e" d="M1.03125-3.0625h6.64063v-.70312H1.03125Zm0 0"/></defs><path fill="none" stroke="#000" stroke-miterlimit="10" stroke-width=".51328" d="M16.1289 10.91406V4.75m0 0h11.84375m.00001 6.16406V4.75"/><use xlink:href="#a" x="18.85162" y="20.16615"/><use xlink:href="#b" x="26.36781" y="20.16615"/><use xlink:href="#c" x="30.69765" y="20.16615"/><use xlink:href="#d" x="42.54368" y="20.16615"/><use xlink:href="#e" x="4.28259" y="35.58377"/><path fill="none" stroke="#000" stroke-miterlimit="10" stroke-width=".51328" d="M16.1289 39.4375h11.84375"/><use xlink:href="#f" x="18.85162" y="35.58377"/><use xlink:href="#c" x="18.85162" y="51.00267"/><use xlink:href="#c" x="30.69765" y="51.00267"/><use xlink:href="#e" x="4.28259" y="66.42028"/><path fill="none" stroke="#000" stroke-miterlimit="10" stroke-width=".51328" d="M16.1289 70.27344h23.6914"/><use xlink:href="#g" x="30.69823" y="66.42028"/><use xlink:href="#h" x="30.69823" y="81.83789"/><use xlink:href="#d" x="42.54426" y="81.83789"/><use xlink:href="#e" x="16.1279" y="97.2555"/><path fill="none" stroke="#000" stroke-miterlimit="10" stroke-width=".51328" d="M27.97266 101.10937h23.6953"/><use xlink:href="#h" x="30.69823" y="97.2555"/><use xlink:href="#d" x="42.54426" y="97.2555"/><use xlink:href="#i" x="42.54354" y="112.67312"/><path fill="none" stroke="#000" stroke-miterlimit="10" stroke-width=".51328" d="M57.58984 117.17188V4.75m0 14.77344h41.46094"/><use xlink:href="#f" x="66.23676" y="15.66919"/><use xlink:href="#c" x="66.23676" y="31.0868"/><use xlink:href="#b" x="73.75295" y="31.0868"/><use xlink:href="#d" x="78.08279" y="31.0868"/><use xlink:href="#g" x="89.92882" y="31.0868"/></svg>