<svg xmlns="http://www.w3.org/2000/svg" xmlns:xlink="http://www.w3.org/1999/xlink" width="180.282" height="211.082" viewBox="0 0 180.282 211.082"><defs><path id="a" d="M.84375-2.14062C.84375-1.1875 2.32813.25 5.04688.25 8.5.25 10.0625-1.85937 10.0625-4.5c0-2.95312-1.82812-4.45312-4.32812-4.45312-1.15625 0-2.40625.5-3.07813 1.09375L2.64063-7.875l.45312-3.92187c.07813-.54688.20313-.60938.60938-.60938h5.21875l.51562-1.42187-.10937-.1875h-7l-.20313.20312-.42187 7 .5.28125c.875-1.01562 1.71875-1.5 2.85937-1.5 1.34375 0 2.8125.98438 2.8125 3.75C7.875-2.125 7-.48437 5.17188-.48437c-1.46875 0-2.20313-1.0625-2.625-2.26563-.10938-.3125-.3125-.5-.60938-.5-.42187 0-1.09375.42188-1.09375 1.10938m0 0"/><path id="b" d="m1.07813 2.5625.39062.40625c1.04688-.98437 2.5625-2.39062 2.5625-4.04687 0-1.10938-.59375-1.89063-1.39062-1.89063-.65625 0-1.0625.51563-1.0625 1.04688 0 .76562.70312 1.15625.70312 2.0625 0 .85937-.54687 1.6875-1.20312 2.42187m0 0"/><path id="c" d="M2.28125 0h6.89063v-.60937L7.40625-.76563c-.4375-.03124-.6875-.1875-.6875-1.01562v-12.35937L6.60938-14.25l-4.32813.73438v.5l1.95313.25c.35937.04687.5.20312.5.8125v10.17187c0 .39063-.04688.64063-.1875.79688-.10938.15624-.28125.20312-.51563.21874l-1.75.15626Zm0 0"/><path id="d" d="M.5625-.20312.78125 0h8.67188l.71875-2.76562-.57813-.10938c-.45312 1.14063-.875 1.29688-1.71875 1.29688H2.51563c.34375-1.09375 1.59375-2.59375 3.53125-4 2.01562-1.46875 3.5625-2.40625 3.5625-4.75 0-2.92188-1.9375-3.92188-4.14063-3.92188-2.875 0-4.35937 1.73438-4.35937 2.82813 0 .71875.8125 1.04687 1.17187 1.04687.375 0 .5-.21875.59375-.57812.34375-1.4375 1.15625-2.5625 2.45313-2.5625 1.60937 0 2.07812 1.32812 2.07812 2.875 0 2.25-1.14062 3.51562-2.96875 5.125C1.85938-3.25.95313-1.82812.5625-.20312m0 0"/><path id="f" d="m.40625-4.1875.17188.4375h5.71875v2.14063c0 .71875-.23438.82812-.73438.875l-1.34375.125V0H9.75v-.60937l-.9375-.10938c-.48437-.0625-.625-.17187-.625-.89062V-3.75h2.14063v-.98437H8.1875v-9.28125H6.65625C4.6875-11.10937 2.32813-7.46875.40625-4.1875m1.51563-.54687C3.17188-7 4.64063-9.4375 6.25-11.98437h.04688v7.25Zm0 0"/><path id="g" d="M.875-3.8125C.875-1.70312 2.17188.25 5.5625.25s4.67188-1.95312 4.67188-4.0625c0-2.14062-1.32813-3.375-2.76563-3.70312v-.04688c1.28125-.34375 2.29688-1.40625 2.29688-3.125 0-2.28125-1.79688-3.5625-4.20313-3.5625-2.42187 0-4.21875 1.28125-4.21875 3.5625 0 1.71875 1.0625 2.78125 2.3125 3.125v.04688C2.25-7.1875.875-5.95312.875-3.8125m2.09375.0625c0-1.92187.90625-3.34375 2.59375-3.34375 1.67188 0 2.57813 1.42188 2.57813 3.34375 0 1.85938-.82813 3.26563-2.57813 3.26563-1.76562 0-2.59375-1.40625-2.59375-3.26563m.40625-6.98437c0-1.60938.75-2.78125 2.1875-2.78125 1.42188 0 2.1875 1.17187 2.1875 2.78125 0 1.4375-.67187 2.875-2.1875 2.875-1.53125 0-2.1875-1.4375-2.1875-2.875m0 0"/><path id="h" d="M.5625-2.14062C.5625-1.25 2.01563.25 4.96875.25c3.04688 0 4.95313-1.54687 4.95313-4.21875 0-2.8125-2.40625-3.64062-3.5625-3.75v-.09375c1.14062-.17187 2.9375-1.01562 2.9375-3.09375C9.29688-13.23437 7.5-14.25 5.25-14.25c-2.76562 0-4.14062 1.59375-4.14062 2.48438 0 .65625.75 1.01562 1.03125 1.01562.26562 0 .42187-.15625.51562-.42187.46875-1.4375 1.25-2.34375 2.4375-2.34375 1.64063 0 2.0625 1.4375 2.0625 2.625 0 1.25-.4375 2.82812-2.21875 2.82812-1.01562 0-1.59375-.1875-1.84375-.1875-.26562 0-.375.1875-.375.57813 0 .35937.10938.57812.375.57812.25 0 .82813-.20312 1.84375-.20312 1.78125 0 2.78125 1.60937 2.78125 3.4375 0 2.5-1.21875 3.375-2.71875 3.375-1.39062 0-2.29687-1.03125-2.70312-2.21875-.125-.39063-.32813-.59375-.625-.59375-.375 0-1.10938.39062-1.10938 1.15625m0 0"/><path id="i" d="M.875-7C.875-2.8125 2.09375.25 5.5625.25c3.45313 0 4.70313-3.0625 4.70313-7.25 0-4.20312-1.25-7.25-4.70313-7.25C2.09375-14.25.875-11.20312.875-7m2.10938 0c0-3.42187.57812-6.51562 2.57812-6.51562 1.98438 0 2.5625 3.09375 2.5625 6.51562 0 3.40625-.57812 6.51563-2.5625 6.51563-2 0-2.57812-3.10938-2.57812-6.51563m0 0"/><path id="e" d="M1.78125-5.3125h11.54688v-1.21875H1.78125Zm0 0"/></defs><path fill="none" stroke="#000" stroke-miterlimit="10" stroke-width=".89162" d="M28.05078 18.15234V7.4375m0 0h20.57813m-.00001 10.71484V7.4375"/><use xlink:href="#a" x="32.78196" y="34.22142"/><use xlink:href="#b" x="45.8385" y="34.22142"/><use xlink:href="#c" x="53.35996" y="34.22142"/><use xlink:href="#d" x="73.93796" y="34.22142"/><use xlink:href="#e" x="7.47153" y="61.00369"/><path fill="none" stroke="#000" stroke-miterlimit="10" stroke-width=".89162" d="M28.05078 67.69922h20.57813"/><use xlink:href="#f" x="32.78196" y="61.00369"/><use xlink:href="#c" x="32.78196" y="87.78597"/><use xlink:href="#c" x="53.35996" y="87.78597"/><use xlink:href="#e" x="7.47153" y="114.57048"/><path fill="none" stroke="#000" stroke-miterlimit="10" stroke-width=".89162" d="M28.05078 121.26563h41.15625"/><use xlink:href="#g" x="53.35872" y="114.57048"/><use xlink:href="#h" x="53.35872" y="141.35275"/><use xlink:href="#d" x="73.93672" y="141.35275"/><use xlink:href="#e" x="28.05053" y="168.13503"/><path fill="none" stroke="#000" stroke-miterlimit="10" stroke-width=".89162" d="M48.6289 174.83203h41.15235"/><use xlink:href="#h" x="53.35872" y="168.13503"/><use xlink:href="#d" x="73.93672" y="168.13503"/><use xlink:href="#i" x="73.93772" y="194.9173"/><path fill="none" stroke="#000" stroke-miterlimit="10" stroke-width=".89162" d="M100.07422 202.73047V7.4375m0 25.66797h72.01953"/><use xlink:href="#f" x="115.09348" y="26.40964"/><use xlink:href="#c" x="115.09348" y="53.19192"/><use xlink:href="#b" x="128.15002" y="53.19192"/><use xlink:href="#d" x="135.67148" y="53.19192"/><use xlink:href="#g" x="156.24949" y="53.19192"/></svg>