<svg xmlns="http://www.w3.org/2000/svg" xmlns:xlink="http://www.w3.org/1999/xlink" width="260.904pt" height="326.483pt" viewBox="0 0 260.904 326.483"><defs><path id="a" d="M.46875-1.1875c0 .53125.82813 1.32813 2.34375 1.32813 1.92188 0 2.79688-1.17188 2.79688-2.65625 0-1.64063-1.01563-2.46875-2.40625-2.46875-.65625 0-1.34375.26562-1.71875.60937l-.01563-.01562.26563-2.1875c.03124-.29688.10937-.34375.32812-.34375h2.90625l.29688-.79688-.0625-.09375H1.29688l-.10938.10938-.25 3.90625.29688.15625c.48437-.5625.95312-.84375 1.59375-.84375.73437 0 1.5625.54687 1.5625 2.09375 0 1.20312-.48438 2.10937-1.5 2.10937-.82813 0-1.23438-.57812-1.46875-1.25-.0625-.17187-.17188-.28125-.34375-.28125-.23438 0-.60938.23438-.60938.625m0 0"/><path id="c" d="M.3125-1.1875c0 .48438.8125 1.32813 2.46875 1.32813 1.6875 0 2.75-.85938 2.75-2.35938 0-1.5625-1.34375-2.01562-1.98437-2.07812v-.0625c.625-.09375 1.64062-.5625 1.64062-1.71875 0-1.29688-1.01562-1.875-2.26562-1.875C1.375-7.95312.625-7.04687.625-6.54687.625-6.1875 1.03125-6 1.1875-6s.25-.07812.29688-.23437c.25-.79688.6875-1.29688 1.34375-1.29688C3.75-7.53125 4-6.73437 4-6.0625c0 .6875-.25 1.57813-1.25 1.57813-.5625 0-.89062-.125-1.01562-.125-.15626 0-.21876.125-.21876.32812s.0625.32813.21876.32813c.125 0 .45312-.10938 1.01562-.10938 1 0 1.54688.89063 1.54688 1.90625 0 1.39063-.67188 1.875-1.51563 1.875-.76562 0-1.28125-.5625-1.5-1.21875-.07812-.23437-.1875-.34375-.34375-.34375-.21875 0-.625.23438-.625.65625m0 0"/><path id="d" d="M.3125-.10937.4375 0h4.84375l.39063-1.54687-.32813-.0625c-.25.64062-.48437.71875-.95312.71875H1.40625c.1875-.60938.875-1.4375 1.96875-2.21875 1.10938-.82813 1.98438-1.34375 1.98438-2.65625 0-1.625-1.07813-2.1875-2.3125-2.1875C1.4375-7.95312.625-6.98437.625-6.375c0 .40625.4375.59375.64063.59375.21874 0 .29687-.125.34375-.32812.1875-.79688.64062-1.42188 1.35937-1.42188.90625 0 1.15625.73438 1.15625 1.59375 0 1.26563-.625 1.96875-1.65625 2.85938C1.03125-1.8125.53125-1.01562.3125-.10937m0 0"/><path id="e" d="M.48438-3.90625c0 2.34375.6875 4.04688 2.60937 4.04688 1.9375 0 2.625-1.70313 2.625-4.04688s-.6875-4.04687-2.625-4.04687C1.17188-7.95312.48438-6.25.48438-3.90625m1.1875 0c0-1.90625.3125-3.625 1.42187-3.625 1.10938 0 1.4375 1.71875 1.4375 3.625s-.32812 3.625-1.4375 3.625c-1.10937 0-1.42187-1.71875-1.42187-3.625m0 0"/><path id="f" d="M1.26563 0h3.84375v-.32812L4.125-.42187C3.875-.45312 3.75-.53125 3.75-1v-6.89062l-.0625-.0625-2.42187.42187V-7.25l1.09375.14063c.20312.01562.28125.10937.28125.4375V-1c0 .23438-.03125.35938-.10938.45313-.0625.09374-.15625.10937-.28125.125l-.98437.09375Zm0 0"/><path id="g" d="M.48438-2.125c0 1.1875.71875 2.26563 2.60937 2.26563S5.70313-.9375 5.70313-2.125c0-1.20312-.73438-1.875-1.53125-2.0625v-.03125C4.875-4.40625 5.45313-5 5.45313-5.95312c0-1.26563-1.01563-2-2.35938-2S.75-7.21875.75-5.95312C.75-5 1.34375-4.40625 2.04688-4.21875v.03125C1.25-4 .48438-3.32812.48438-2.125m1.17187.03125c0-1.0625.51563-1.85937 1.4375-1.85937.9375 0 1.45313.79687 1.45313 1.85937 0 1.03125-.46875 1.8125-1.45313 1.8125-.98437 0-1.4375-.78125-1.4375-1.8125M1.875-5.98437c0-.89063.42188-1.54688 1.21875-1.54688.79688 0 1.21875.65625 1.21875 1.54688 0 .79687-.375 1.60937-1.21875 1.60937S1.875-5.1875 1.875-5.98437m0 0"/><path id="h" d="m.59375 1.4375.23438.21875C1.40625 1.10938 2.25.32813 2.25-.59375c0-.625-.32812-1.0625-.78125-1.0625-.35937 0-.57812.28125-.57812.59375 0 .42188.375.64063.375 1.14063 0 .48437-.29688.9375-.67188 1.35937m0 0"/><path id="i" d="M.51563-3.60937c0 2.53125.92187 3.75 2.67187 3.75C4.90625.14063 5.82813-.90625 5.82813-2.5c0-1.57812-.96875-2.4375-2.21875-2.4375-.92188 0-1.60938.625-1.92188 1h-.01562c0-2.5625.73437-3.59375 1.79687-3.59375.53125 0 .92188.4375 1.09375 1.10938.04688.14062.125.25.29688.25.26562 0 .625-.20313.625-.53125 0-.46875-.57813-1.25-1.98438-1.25-1.84375 0-2.98437 1.4375-2.98437 4.34375m1.17187.84375c0-.70313.53125-1.57813 1.51563-1.57813.73437 0 1.46875.67188 1.46875 2.01563 0 1.23437-.48438 2.04687-1.46875 2.04687-1.01563 0-1.51563-1.07812-1.51563-2.48437m0 0"/><path id="b" d="M1-2.95312h6.42188v-.6875H1Zm0 0"/></defs><path fill="none" stroke="#000" stroke-miterlimit="10" stroke-width=".49671" d="M15.76562 10.11328V4.14453m0 0h11.46485m0 5.96875V4.14453"/><use xlink:href="#a" x="18.40169" y="19.06381"/><use xlink:href="#b" x="4.30276" y="33.98394"/><path fill="none" stroke="#000" stroke-miterlimit="10" stroke-width=".49671" d="M15.76562 37.71484h11.46485"/><use xlink:href="#c" x="18.40169" y="33.98394"/><use xlink:href="#d" x="18.40169" y="48.90531"/><use xlink:href="#e" x="29.86548" y="48.90531"/><use xlink:href="#b" x="4.30276" y="63.82543"/><path fill="none" stroke="#000" stroke-miterlimit="10" stroke-width=".49671" d="M15.76562 67.55469h22.9258"/><use xlink:href="#f" x="18.40169" y="63.82543"/><use xlink:href="#g" x="29.86548" y="63.82543"/><use xlink:href="#d" x="29.86603" y="78.74555"/><use xlink:href="#e" x="41.32982" y="78.74555"/><use xlink:href="#b" x="15.76586" y="93.66568"/><path fill="none" stroke="#000" stroke-miterlimit="10" stroke-width=".49671" d="M27.23047 97.39453h22.92579"/><use xlink:href="#f" x="29.86603" y="93.66568"/><use xlink:href="#g" x="41.32982" y="93.66568"/><use xlink:href="#d" x="41.32913" y="108.5858"/><use xlink:href="#e" x="52.79292" y="108.5858"/><use xlink:href="#b" x="27.23021" y="123.50592"/><path fill="none" stroke="#000" stroke-miterlimit="10" stroke-width=".49671" d="M38.6914 127.23438h22.9297"/><use xlink:href="#f" x="41.32913" y="123.50592"/><use xlink:href="#g" x="52.79292" y="123.50592"/><use xlink:href="#d" x="52.79348" y="138.42729"/><use xlink:href="#e" x="64.25727" y="138.42729"/><use xlink:href="#b" x="38.6933" y="153.34742"/><path fill="none" stroke="#000" stroke-miterlimit="10" stroke-width=".49671" d="M50.15625 157.07813h22.9297"/><use xlink:href="#f" x="52.79348" y="153.34742"/><use xlink:href="#g" x="64.25727" y="153.34742"/><use xlink:href="#d" x="64.25782" y="168.26754"/><use xlink:href="#e" x="75.72161" y="168.26754"/><use xlink:href="#b" x="50.15765" y="183.18766"/><path fill="none" stroke="#000" stroke-miterlimit="10" stroke-width=".49671" d="M61.6211 186.91797h22.92578"/><use xlink:href="#f" x="64.25782" y="183.18766"/><use xlink:href="#g" x="75.72161" y="183.18766"/><use xlink:href="#d" x="75.72092" y="198.10779"/><use xlink:href="#e" x="87.18471" y="198.10779"/><use xlink:href="#b" x="61.62075" y="213.02791"/><path fill="none" stroke="#000" stroke-miterlimit="10" stroke-width=".49671" d="M73.08594 216.75781h22.92578"/><use xlink:href="#f" x="75.72092" y="213.02791"/><use xlink:href="#g" x="87.18471" y="213.02791"/><use xlink:href="#d" x="87.18527" y="227.94928"/><use xlink:href="#e" x="98.64905" y="227.94928"/><use xlink:href="#b" x="73.08509" y="242.86941"/><path fill="none" stroke="#000" stroke-miterlimit="10" stroke-width=".49671" d="M84.55078 246.60156h22.92579"/><use xlink:href="#f" x="87.18527" y="242.86941"/><use xlink:href="#g" x="98.64905" y="242.86941"/><use xlink:href="#d" x="98.64836" y="257.78953"/><use xlink:href="#e" x="110.11215" y="257.78953"/><use xlink:href="#b" x="84.54944" y="272.70965"/><path fill="none" stroke="#000" stroke-miterlimit="10" stroke-width=".49671" d="M96.01172 276.4414h22.9297"/><use xlink:href="#f" x="98.64836" y="272.70965"/><use xlink:href="#g" x="110.11215" y="272.70965"/><use xlink:href="#d" x="110.11271" y="287.62978"/><use xlink:href="#e" x="121.5765" y="287.62978"/><use xlink:href="#b" x="96.01254" y="302.5499"/><path fill="none" stroke="#000" stroke-miterlimit="10" stroke-width=".49671" d="M107.47656 306.28125h22.9297"/><use xlink:href="#f" x="110.11271" y="302.5499"/><use xlink:href="#g" x="121.5765" y="302.5499"/><use xlink:href="#d" x="121.57581" y="317.47127"/><path fill="none" stroke="#000" stroke-miterlimit="10" stroke-width=".49671" d="M136.13672 321.82422V4.14445m0 14.29695h120.37112"/><use xlink:href="#c" x="144.50325" y="14.71195"/><use xlink:href="#f" x="144.50325" y="29.63208"/><use xlink:href="#h" x="151.77691" y="29.63208"/><use xlink:href="#i" x="155.96704" y="29.63208"/><use xlink:href="#i" x="167.43083" y="29.63208"/><use xlink:href="#i" x="178.89462" y="29.63208"/><use xlink:href="#i" x="190.35841" y="29.63208"/><use xlink:href="#i" x="201.82219" y="29.63208"/><use xlink:href="#i" x="213.28598" y="29.63208"/><use xlink:href="#i" x="224.74977" y="29.63208"/><use xlink:href="#i" x="236.21356" y="29.63208"/><use xlink:href="#i" x="247.67735" y="29.63208"/></svg>