<svg xmlns="http://www.w3.org/2000/svg" xmlns:xlink="http://www.w3.org/1999/xlink" width="417.447pt" height="522.373pt" viewBox="0 0 417.447 522.373"><defs><path id="a" d="M.75-1.90625c0 .84375 1.3125 2.125 3.75 2.125 3.07813 0 4.48438-1.875 4.48438-4.23437 0-2.64063-1.64063-3.96875-3.875-3.96875-1.03125 0-2.14063.4375-2.73438.98437l-.03125-.03125.42188-3.5c.0625-.48437.1875-.53125.53125-.53125h4.67187l.45313-1.28125L8.32813-12.5H2.0625l-.17187.17188-.375 6.25.45312.25C2.75-6.73437 3.5-7.17187 4.51563-7.17187c1.20312 0 2.51562.875 2.51562 3.34375C7.03125-1.89062 6.25-.4375 4.625-.4375c-1.32812 0-1.98437-.9375-2.35937-2.01562-.09375-.28125-.28125-.45313-.53125-.45313-.375 0-.98438.375-.98438 1m0 0"/><path id="c" d="M.5-1.90625c0 .79688 1.29688 2.125 3.9375 2.125 2.70313 0 4.42188-1.375 4.42188-3.76562 0-2.5-2.15625-3.23438-3.1875-3.34375v-.07813c1.01562-.15625 2.625-.92187 2.625-2.76562 0-2.0625-1.60938-2.98438-3.625-2.98438C2.20313-12.71875 1-11.28125 1-10.48437c0 .57812.65625.89062.90625.89062s.39063-.14062.46875-.375C2.78125-11.25 3.48438-12.0625 4.53125-12.0625c1.48438 0 1.85938 1.29688 1.85938 2.34375 0 1.125-.40625 2.53125-1.98438 2.53125-.90625 0-1.42187-.17187-1.64062-.17187-.23438 0-.34375.17187-.34375.51562 0 .3125.10937.51563.34375.51563.21875 0 .73437-.1875 1.64062-.1875 1.57813 0 2.48438 1.4375 2.48438 3.07812 0 2.21875-1.09375 3-2.4375 3-1.23438 0-2.04688-.92187-2.40625-1.96875C1.9375-2.76562 1.75-2.95312 1.5-2.95312c-.34375 0-1 .35937-1 1.04687m0 0"/><path id="d" d="M.5-.17187.70313 0H8.4375l.64063-2.46875-.51563-.09375c-.40625 1.01563-.78125 1.15625-1.53125 1.15625H2.25c.29688-.98437 1.40625-2.3125 3.14063-3.57812 1.79687-1.3125 3.1875-2.14063 3.1875-4.23438 0-2.60937-1.73438-3.5-3.70313-3.5-2.5625 0-3.875 1.54688-3.875 2.53125 0 .625.71875.9375 1.03125.9375.34375 0 .45313-.20312.53125-.53125.29688-1.26562 1.04688-2.28125 2.1875-2.28125 1.4375 0 1.85938 1.1875 1.85938 2.5625 0 2.01563-1.01563 3.15625-2.64063 4.57813C1.65625-2.90625.85938-1.625.5-.17187m0 0"/><path id="e" d="M.78125-6.25C.78125-2.51562 1.875.21875 4.95313.21875c3.09375 0 4.20312-2.73437 4.20312-6.46875 0-3.75-1.10937-6.46875-4.20312-6.46875C1.875-12.71875.78125-10 .78125-6.25m1.89063 0c0-3.04687.51562-5.8125 2.28125-5.8125C6.73438-12.0625 7.25-9.29687 7.25-6.25S6.73438-.4375 4.95313-.4375c-1.76563 0-2.28125-2.76562-2.28125-5.8125m0 0"/><path id="f" d="M2.03125 0H8.1875v-.53125L6.60938-.67187c-.40625-.04688-.625-.1875-.625-.92188V-12.625l-.09375-.09375-3.85938.65625v.45313l1.75.21875c.3125.04687.4375.1875.4375.71875v9.07812c0 .35938-.03125.57813-.15625.71875-.09375.14063-.26562.17188-.45312.20313l-1.57813.14062Zm0 0"/><path id="g" d="M.78125-3.40625c0 1.89063 1.15625 3.625 4.17188 3.625 3.03125 0 4.1875-1.73437 4.1875-3.625 0-1.90625-1.20313-3-2.46875-3.29687V-6.75c1.125-.29687 2.04687-1.25 2.04687-2.78125 0-2.03125-1.60937-3.1875-3.76562-3.1875-2.14063 0-3.76563 1.15625-3.76563 3.1875C1.1875-8 2.15625-7.04687 3.26563-6.75v.04688C2.01563-6.40625.78125-5.3125.78125-3.40625m1.85938.0625c0-1.71875.82812-2.98437 2.3125-2.98437 1.5 0 2.3125 1.26562 2.3125 2.98437 0 1.65625-.73438 2.90625-2.3125 2.90625-1.5625 0-2.3125-1.25-2.3125-2.90625M3-9.57812c0-1.4375.6875-2.48438 1.95313-2.48438 1.28125 0 1.95312 1.04688 1.95312 2.48438C6.90625-8.29687 6.3125-7 4.95313-7 3.60938-7 3-8.29687 3-9.57812m0 0"/><path id="h" d="m.95313 2.29688.35937.34375c.9375-.875 2.29688-2.125 2.29688-3.59375 0-1-.54688-1.6875-1.26563-1.6875-.57812 0-.9375.45312-.9375.92187 0 .6875.625 1.04688.625 1.84375 0 .76563-.48437 1.5-1.07812 2.17188m0 0"/><path id="i" d="M.8125-5.76562c0 4.03125 1.48438 5.98437 4.28125 5.98437 2.76563 0 4.25-1.67187 4.25-4.21875 0-2.53125-1.5625-3.90625-3.57812-3.90625-1.46875 0-2.5625 1-3.0625 1.60938h-.03125c.01562-4.10938 1.1875-5.76563 2.875-5.76563.85937 0 1.48437.71875 1.76562 1.79688.04688.21875.1875.39062.46875.39062.42188 0 1-.34375 1-.85937 0-.75-.92187-1.98438-3.17187-1.98438-2.96875 0-4.79688 2.28125-4.79688 6.95313m1.89063 1.34375c0-1.125.85937-2.53125 2.4375-2.53125 1.17187 0 2.32812 1.07812 2.32812 3.23437 0 1.96875-.76562 3.28125-2.32812 3.28125-1.64063 0-2.4375-1.73437-2.4375-3.98437m0 0"/><path id="b" d="M1.59375-4.73437h10.29688v-1.09375H1.59375Zm0 0"/></defs><path fill="none" stroke="#000" stroke-miterlimit="10" stroke-width=".79495" d="M24.98047 16.21484V6.66406m0 0h18.34765m-.0039 9.55078V6.66406"/><use xlink:href="#a" x="29.19832" y="30.54404"/><use xlink:href="#b" x="6.63221" y="54.4224"/><path fill="none" stroke="#000" stroke-miterlimit="10" stroke-width=".79495" d="M24.98047 60.39063h18.34765"/><use xlink:href="#c" x="29.19832" y="54.4224"/><use xlink:href="#d" x="29.19832" y="78.30077"/><use xlink:href="#e" x="47.54512" y="78.30077"/><use xlink:href="#b" x="6.63221" y="102.17914"/><path fill="none" stroke="#000" stroke-miterlimit="10" stroke-width=".79495" d="M24.98047 108.14844h36.6914"/><use xlink:href="#f" x="29.19832" y="102.17914"/><use xlink:href="#g" x="47.54512" y="102.17914"/><use xlink:href="#d" x="47.54402" y="126.05751"/><use xlink:href="#e" x="65.89082" y="126.05751"/><use xlink:href="#b" x="24.97991" y="149.93588"/><path fill="none" stroke="#000" stroke-miterlimit="10" stroke-width=".79495" d="M43.32422 155.90625h36.69531"/><use xlink:href="#f" x="47.54402" y="149.93588"/><use xlink:href="#g" x="65.89082" y="149.93588"/><use xlink:href="#d" x="65.89171" y="173.81624"/><use xlink:href="#e" x="84.23852" y="173.81624"/><use xlink:href="#b" x="43.32561" y="197.69461"/><path fill="none" stroke="#000" stroke-miterlimit="10" stroke-width=".79495" d="M61.67187 203.66406H98.3672"/><use xlink:href="#f" x="65.89171" y="197.69461"/><use xlink:href="#g" x="84.23852" y="197.69461"/><use xlink:href="#d" x="84.23741" y="221.57298"/><use xlink:href="#e" x="102.58421" y="221.57298"/><use xlink:href="#b" x="61.6733" y="245.45135"/><path fill="none" stroke="#000" stroke-miterlimit="10" stroke-width=".79495" d="M80.01953 251.42188h36.6914"/><use xlink:href="#f" x="84.23741" y="245.45135"/><use xlink:href="#g" x="102.58421" y="245.45135"/><use xlink:href="#d" x="102.5851" y="269.32971"/><use xlink:href="#e" x="120.93191" y="269.32971"/><use xlink:href="#b" x="80.019" y="293.20808"/><path fill="none" stroke="#000" stroke-miterlimit="10" stroke-width=".79495" d="M98.36719 299.17969h36.6914"/><use xlink:href="#f" x="102.5851" y="293.20808"/><use xlink:href="#g" x="120.93191" y="293.20808"/><use xlink:href="#d" x="120.9308" y="317.08845"/><use xlink:href="#e" x="139.2776" y="317.08845"/><use xlink:href="#b" x="98.36669" y="340.96681"/><path fill="none" stroke="#000" stroke-miterlimit="10" stroke-width=".79495" d="M116.71094 346.9375h36.6953"/><use xlink:href="#f" x="120.9308" y="340.96681"/><use xlink:href="#g" x="139.2776" y="340.96681"/><use xlink:href="#d" x="139.27849" y="364.84518"/><use xlink:href="#e" x="157.6253" y="364.84518"/><use xlink:href="#b" x="116.71239" y="388.72355"/><path fill="none" stroke="#000" stroke-miterlimit="10" stroke-width=".79495" d="M135.0586 394.69531h36.6953"/><use xlink:href="#f" x="139.27849" y="388.72355"/><use xlink:href="#g" x="157.6253" y="388.72355"/><use xlink:href="#d" x="157.62619" y="412.60192"/><use xlink:href="#e" x="175.97299" y="412.60192"/><use xlink:href="#b" x="135.06008" y="436.48028"/><path fill="none" stroke="#000" stroke-miterlimit="10" stroke-width=".79495" d="M153.40625 442.44922h36.6914"/><use xlink:href="#f" x="157.62619" y="436.48028"/><use xlink:href="#g" x="175.97299" y="436.48028"/><use xlink:href="#d" x="175.97189" y="460.36065"/><use xlink:href="#e" x="194.31869" y="460.36065"/><use xlink:href="#b" x="153.40578" y="484.23902"/><path fill="none" stroke="#000" stroke-miterlimit="10" stroke-width=".79495" d="M171.7539 490.21094h36.69141"/><use xlink:href="#f" x="175.97189" y="484.23902"/><use xlink:href="#g" x="194.31869" y="484.23902"/><use xlink:href="#d" x="194.31958" y="508.11739"/><path fill="none" stroke="#000" stroke-miterlimit="10" stroke-width=".79495" d="M217.6211 515.08203V6.66408m0 22.8828h192.6406"/><use xlink:href="#c" x="231.01297" y="23.57926"/><use xlink:href="#f" x="231.01297" y="47.45763"/><use xlink:href="#h" x="242.65384" y="47.45763"/><use xlink:href="#i" x="249.35978" y="47.45763"/><use xlink:href="#i" x="267.70658" y="47.45763"/><use xlink:href="#i" x="286.05338" y="47.45763"/><use xlink:href="#i" x="304.40019" y="47.45763"/><use xlink:href="#i" x="322.74699" y="47.45763"/><use xlink:href="#i" x="341.0938" y="47.45763"/><use xlink:href="#i" x="359.4406" y="47.45763"/><use xlink:href="#i" x="377.7874" y="47.45763"/><use xlink:href="#i" x="396.13421" y="47.45763"/></svg>