<svg xmlns="http://www.w3.org/2000/svg" xmlns:xlink="http://www.w3.org/1999/xlink" width="160.251pt" height="187.628pt" viewBox="0 0 160.251 187.628"><defs><path id="a" d="M.8125-5.75c0 4.03125 1.46875 5.96875 4.26563 5.96875 2.75 0 4.21875-1.67187 4.21875-4.20312C9.29688-6.5 7.75-7.875 5.75-7.875c-1.46875 0-2.5625 1-3.04687 1.60938h-.04688c.01563-4.10938 1.1875-5.75 2.875-5.75.85938 0 1.46875.71875 1.75 1.78125.0625.21875.1875.40625.46875.40625.42188 0 1-.34375 1-.85938 0-.75-.92187-1.98437-3.15625-1.98437C2.64063-12.67187.8125-10.39062.8125-5.75m1.89063 1.34375c0-1.125.84375-2.51562 2.40625-2.51562 1.17187 0 2.32812 1.07812 2.32812 3.21875 0 1.95312-.75 3.26562-2.32812 3.26562-1.625 0-2.40625-1.71875-2.40625-3.96875m0 0"/><path id="b" d="M.5-.17187.6875 0h7.71875l.64063-2.45312-.51563-.10938C8.125-1.54687 7.75-1.40625 7-1.40625H2.23438C2.53125-2.375 3.64063-3.70312 5.375-4.95312c1.78125-1.3125 3.17188-2.14063 3.17188-4.23438 0-2.59375-1.71875-3.48437-3.6875-3.48437-2.5625 0-3.875 1.54687-3.875 2.51562 0 .64063.71875.9375 1.03125.9375.34375 0 .46875-.20312.54687-.51562C2.85938-11 3.59375-12.01562 4.73438-12.01562c1.4375 0 1.84375 1.1875 1.84375 2.5625 0 2-1 3.125-2.625 4.5625C1.64063-2.89062.85938-1.625.5-.17187m0 0"/><path id="c" d="M2.01563 0h6.14062v-.53125L6.57813-.67187c-.39063-.04688-.60938-.1875-.60938-.92188v-10.98437l-.09375-.09375-3.85937.65625v.45312l1.75.21875c.3125.04688.4375.1875.4375.71875v9.03125c0 .35938-.04688.57813-.15625.71875-.09375.14063-.26563.1875-.45313.20313l-1.57812.14062Zm0 0"/><path id="e" d="M.76563-6.21875C.76563-2.5 1.85938.21875 4.9375.21875S9.125-2.5 9.125-6.21875c0-3.73437-1.10937-6.45312-4.1875-6.45312S.76563-9.95312.76563-6.21875m1.89062 0c0-3.04687.51563-5.79687 2.28125-5.79687 1.76563 0 2.28125 2.75 2.28125 5.79687 0 3.03125-.51562 5.78125-2.28125 5.78125-1.76562 0-2.28125-2.75-2.28125-5.78125m0 0"/><path id="f" d="M.5-1.90625c0 .79688 1.28125 2.125 3.92188 2.125 2.70312 0 4.40625-1.375 4.40625-3.75 0-2.5-2.14063-3.23437-3.17188-3.32812v-.07813c1-.15625 2.60938-.92187 2.60938-2.76562 0-2.0625-1.60938-2.96875-3.60938-2.96875-2.45312 0-3.67187 1.42187-3.67187 2.21875 0 .57812.65625.89062.92187.89062.23438 0 .375-.14062.45313-.375.42187-1.26562 1.10937-2.07812 2.15625-2.07812 1.46875 0 1.84375 1.28125 1.84375 2.34375 0 1.10937-.39063 2.51562-1.98438 2.51562-.89062 0-1.40625-.1875-1.625-.1875-.23437 0-.32812.1875-.32812.51563 0 .32812.09375.51562.32812.51562.21875 0 .73438-.17187 1.625-.17187 1.59375 0 2.48438 1.42187 2.48438 3.04687 0 2.23438-1.09375 3-2.42188 3-1.21875 0-2.03125-.90625-2.39062-1.96875-.125-.34375-.29688-.53125-.5625-.53125C1.15625-2.9375.5-2.57812.5-1.90625m0 0"/><path id="g" d="M.76563-9.82812h.5l.1875-.40625c.23437-.51563.48437-.79688 1.32812-.79688H7.8125c-.17187.6875-.53125 1.75-2.04687 3.90625C4.15625-4.8125 3.10938-2.73437 3.10938-.53125c0 .60938.4375.75 1.01562.75.53125 0 .9375-.15625.90625-.6875-.09375-2.46875.40625-4.46875 1.39063-6.1875 1.1875-2.09375 2.1875-3.25 2.84375-5.59375l-.17188-.20312h-7.75Zm0 0"/><path id="d" d="M1.59375-4.71875h10.25V-5.8125h-10.25Zm0 0"/></defs><path fill="none" stroke="#000" stroke-miterlimit="10" stroke-width=".7923" d="M24.89844 16.38281V6.86328m0 0H43.1836m-.00391 9.51953V6.86328"/><use xlink:href="#a" x="29.10098" y="30.66018"/><use xlink:href="#b" x="47.38663" y="30.66018"/><use xlink:href="#c" x="65.67227" y="30.66018"/><use xlink:href="#d" x="6.6101" y="54.45894"/><path fill="none" stroke="#000" stroke-miterlimit="10" stroke-width=".7923" d="M24.89844 60.41016H43.1836"/><use xlink:href="#a" x="29.10098" y="54.45894"/><use xlink:href="#e" x="29.10098" y="78.25771"/><use xlink:href="#b" x="47.38663" y="78.25771"/><use xlink:href="#d" x="6.6101" y="102.05648"/><path fill="none" stroke="#000" stroke-miterlimit="10" stroke-width=".7923" d="M24.89844 108.00781h36.57032"/><use xlink:href="#e" x="47.38552" y="102.05648"/><use xlink:href="#b" x="47.38552" y="125.85723"/><use xlink:href="#c" x="65.67117" y="125.85723"/><use xlink:href="#d" x="24.89663" y="149.656"/><path fill="none" stroke="#000" stroke-miterlimit="10" stroke-width=".7923" d="M43.17969 155.60547H79.7539"/><use xlink:href="#b" x="47.38552" y="149.656"/><use xlink:href="#c" x="65.67117" y="149.656"/><use xlink:href="#e" x="65.67205" y="173.45477"/><path fill="none" stroke="#000" stroke-miterlimit="10" stroke-width=".7923" d="M88.89453 180.39453V6.86325m0 22.80472h64.00001"/><use xlink:href="#f" x="102.24312" y="23.71862"/><use xlink:href="#b" x="102.24312" y="47.51739"/><use xlink:href="#e" x="120.52877" y="47.51739"/><use xlink:href="#g" x="138.81441" y="47.51739"/></svg>