<svg xmlns="http://www.w3.org/2000/svg" xmlns:xlink="http://www.w3.org/1999/xlink" width="271.341pt" height="339.543pt" viewBox="0 0 271.341 339.543"><defs><path id="a" d="M.48438-1.23437c0 .54687.85937 1.375 2.4375 1.375 2 0 2.90625-1.21875 2.90625-2.75 0-1.70313-1.0625-2.57813-2.5-2.57813-.67188 0-1.40625.29688-1.79688.64063v-.01563l.26563-2.26562c.03124-.3125.10937-.35938.34375-.35938h3.03125l.29687-.82812-.0625-.09375h-4.0625L1.23438-8l-.25 4.0625.29687.15625c.5-.59375 1-.875 1.65625-.875.76563 0 1.625.57813 1.625 2.17188 0 1.25-.5 2.20312-1.5625 2.20312-.85937 0-1.28125-.60937-1.53125-1.3125-.0625-.17187-.17187-.29687-.34375-.29687-.25 0-.64062.25-.64062.65625m0 0"/><path id="c" d="M.32813-1.23437c0 .51562.82812 1.375 2.54687 1.375 1.76563 0 2.875-.89063 2.875-2.4375 0-1.625-1.39062-2.10938-2.0625-2.17188v-.04687c.65625-.10938 1.70313-.59375 1.70313-1.79688 0-1.34375-1.04688-1.9375-2.35938-1.9375-1.59375 0-2.39062.92188-2.39062 1.4375 0 .375.4375.57813.59375.57813.15624 0 .25-.07813.29687-.23438.28125-.82812.73438-1.35937 1.42188-1.35937.95312 0 1.1875.84375 1.1875 1.51562 0 .73438-.25 1.64063-1.28125 1.64063-.57813 0-.92188-.10938-1.0625-.10938-.15626 0-.21876.10938-.21876.34375 0 .20313.0625.32813.21876.32813.14062 0 .48437-.10938 1.0625-.10938 1.03125 0 1.60937.92188 1.60937 1.98438 0 1.45312-.70312 1.95312-1.57812 1.95312-.79688 0-1.32813-.59375-1.5625-1.28125-.07813-.23437-.1875-.34375-.35938-.34375-.21875 0-.64062.21875-.64062.67188m0 0"/><path id="d" d="M.32813-.10937.45313 0h5.03125l.40625-1.60937-.32813-.0625c-.26562.65625-.51562.75-1 .75H1.45313c.20312-.625.92187-1.5 2.04687-2.3125 1.17188-.84375 2.0625-1.39063 2.0625-2.75 0-1.6875-1.125-2.26563-2.39062-2.26563C1.5-8.25.64063-7.25.64063-6.60937c0 .40625.46875.59375.67187.59375.21875 0 .29688-.125.35938-.32813.1875-.82812.67187-1.48437 1.42187-1.48437.92188 0 1.20313.76562 1.20313 1.67187 0 1.29688-.67188 2.03125-1.71875 2.96875-1.5 1.29688-2.01563 2.125-2.25 3.07813m0 0"/><path id="e" d="M.5-4.0625C.5-1.625 1.21875.14063 3.21875.14063S5.9375-1.625 5.9375-4.0625c0-2.42187-.71875-4.1875-2.71875-4.1875S.5-6.48437.5-4.0625m1.23438 0c0-1.96875.32812-3.76562 1.48437-3.76562S4.70313-6.03125 4.70313-4.0625c0 1.98438-.32813 3.78125-1.48438 3.78125S1.73438-2.07812 1.73438-4.0625m0 0"/><path id="f" d="M1.3125 0h4v-.34375L4.29688-.4375c-.26563-.03125-.40625-.125-.40625-.59375V-8.1875l-.0625-.0625-2.51563.42188v.29687l1.14063.14063c.20312.03125.28125.10937.28125.46875v5.89062c0 .23438-.01563.375-.09375.46875-.0625.07813-.17188.10938-.29688.125L1.3125-.34375Zm0 0"/><path id="g" d="M.5-2.20312C.5-.98437 1.25.14063 3.21875.14063S5.9375-.98437 5.9375-2.20312c0-1.25-.78125-1.95313-1.60937-2.15625V-4.375c.73437-.20312 1.32812-.8125 1.32812-1.8125 0-1.3125-1.04687-2.0625-2.4375-2.0625-1.39062 0-2.4375.75-2.4375 2.0625 0 1 .60938 1.60938 1.34375 1.8125v.01563C1.3125-4.15625.5-3.45312.5-2.20312m1.21875.03125c0-1.10938.53125-1.9375 1.5-1.9375s1.5.82812 1.5 1.9375c0 1.07812-.48437 1.89062-1.5 1.89062-1.01562 0-1.5-.8125-1.5-1.89062m.23438-4.04688c0-.92187.4375-1.60937 1.26562-1.60937.82813 0 1.26563.6875 1.26563 1.60937 0 .82813-.39063 1.67188-1.26563 1.67188s-1.26562-.84375-1.26562-1.67188m0 0"/><path id="h" d="m.625 1.48438.23438.23437c.59375-.5625 1.48437-1.375 1.48437-2.34375 0-.64062-.35937-1.09375-.8125-1.09375-.375 0-.60937.29688-.60937.60938 0 .4375.39062.67187.39062 1.1875 0 .5-.29687.98437-.6875 1.40625m0 0"/><path id="i" d="M.53125-3.75c0 2.625.95313 3.89063 2.78125 3.89063 1.79688 0 2.75-1.07813 2.75-2.73438C6.0625-4.23437 5.04688-5.125 3.75-5.125c-.95312 0-1.67187.64063-2 1.04688h-.01562c.01562-2.6875.76562-3.75 1.875-3.75.54687 0 .95312.46875 1.14062 1.15625.03125.14062.125.26562.29688.26562.28125 0 .65625-.21875.65625-.5625 0-.48437-.59375-1.28125-2.0625-1.28125-1.92188 0-3.10938 1.48438-3.10938 4.5M1.75-2.875c0-.73437.5625-1.64062 1.57813-1.64062.76562 0 1.51562.70312 1.51562 2.09375 0 1.28125-.48437 2.14062-1.51562 2.14062C2.28125-.28125 1.75-1.40625 1.75-2.875m0 0"/><path id="b" d="M1.03125-3.07812h6.6875v-.70313h-6.6875Zm0 0"/></defs><path fill="none" stroke="#000" stroke-miterlimit="10" stroke-width=".51615" d="M16.21875 10.6914V4.4922m0-.00001h11.91406m0 6.19921V4.4922"/><use xlink:href="#a" x="18.95706" y="19.99436"/><use xlink:href="#b" x="4.30654" y="35.49821"/><path fill="none" stroke="#000" stroke-miterlimit="10" stroke-width=".51615" d="M16.21875 39.375h11.91406"/><use xlink:href="#c" x="18.95706" y="35.49821"/><use xlink:href="#d" x="18.95706" y="51.00205"/><use xlink:href="#e" x="30.86935" y="51.00205"/><use xlink:href="#b" x="4.30654" y="66.5059"/><path fill="none" stroke="#000" stroke-miterlimit="10" stroke-width=".51615" d="M16.21875 70.38281h23.82421"/><use xlink:href="#f" x="18.95706" y="66.5059"/><use xlink:href="#g" x="30.86935" y="66.5059"/><use xlink:href="#d" x="30.86993" y="82.01104"/><use xlink:href="#e" x="42.78222" y="82.01104"/><use xlink:href="#b" x="16.21811" y="97.51489"/><path fill="none" stroke="#000" stroke-miterlimit="10" stroke-width=".51615" d="M28.13281 101.39063h23.82421"/><use xlink:href="#f" x="30.86993" y="97.51489"/><use xlink:href="#g" x="42.78222" y="97.51489"/><use xlink:href="#d" x="42.7815" y="113.01873"/><use xlink:href="#e" x="54.69379" y="113.01873"/><use xlink:href="#b" x="28.13098" y="128.52258"/><path fill="none" stroke="#000" stroke-miterlimit="10" stroke-width=".51615" d="M40.04297 132.39844h23.82421"/><use xlink:href="#f" x="42.7815" y="128.52258"/><use xlink:href="#g" x="54.69379" y="128.52258"/><use xlink:href="#d" x="54.69436" y="144.02643"/><use xlink:href="#e" x="66.60665" y="144.02643"/><use xlink:href="#b" x="40.04255" y="159.53027"/><path fill="none" stroke="#000" stroke-miterlimit="10" stroke-width=".51615" d="M51.95703 163.40625h23.82421"/><use xlink:href="#f" x="54.69436" y="159.53027"/><use xlink:href="#g" x="66.60665" y="159.53027"/><use xlink:href="#d" x="66.60723" y="175.03542"/><use xlink:href="#e" x="78.51952" y="175.03542"/><use xlink:href="#b" x="51.95542" y="190.53926"/><path fill="none" stroke="#000" stroke-miterlimit="10" stroke-width=".51615" d="M63.86719 194.41406H87.6914"/><use xlink:href="#f" x="66.60723" y="190.53926"/><use xlink:href="#g" x="78.51952" y="190.53926"/><use xlink:href="#d" x="78.5188" y="206.04311"/><use xlink:href="#e" x="90.43109" y="206.04311"/><use xlink:href="#b" x="63.86699" y="221.54695"/><path fill="none" stroke="#000" stroke-miterlimit="10" stroke-width=".51615" d="M75.78125 225.42188h23.82421"/><use xlink:href="#f" x="78.5188" y="221.54695"/><use xlink:href="#g" x="90.43109" y="221.54695"/><use xlink:href="#d" x="90.43167" y="237.0508"/><use xlink:href="#e" x="102.34396" y="237.0508"/><use xlink:href="#b" x="75.77985" y="252.55465"/><path fill="none" stroke="#000" stroke-miterlimit="10" stroke-width=".51615" d="M87.6914 256.42969h23.82422"/><use xlink:href="#f" x="90.43167" y="252.55465"/><use xlink:href="#g" x="102.34396" y="252.55465"/><use xlink:href="#d" x="102.34324" y="268.05979"/><use xlink:href="#e" x="114.25553" y="268.05979"/><use xlink:href="#b" x="87.69272" y="283.56364"/><path fill="none" stroke="#000" stroke-miterlimit="10" stroke-width=".51615" d="M99.60547 287.4375h23.82421"/><use xlink:href="#f" x="102.34324" y="283.56364"/><use xlink:href="#g" x="114.25553" y="283.56364"/><use xlink:href="#d" x="114.25611" y="299.06748"/><use xlink:href="#e" x="126.1684" y="299.06748"/><use xlink:href="#b" x="99.60429" y="314.57133"/><path fill="none" stroke="#000" stroke-miterlimit="10" stroke-width=".51615" d="M111.51563 318.44922h23.8242"/><use xlink:href="#f" x="114.25611" y="314.57133"/><use xlink:href="#g" x="126.1684" y="314.57133"/><use xlink:href="#d" x="126.16768" y="330.07517"/><path fill="none" stroke="#000" stroke-miterlimit="10" stroke-width=".51615" d="M141.29688 334.59766V4.48837m0 14.85929h125.07808"/><use xlink:href="#c" x="149.99212" y="15.47224"/><use xlink:href="#f" x="149.99212" y="30.97609"/><use xlink:href="#h" x="157.55035" y="30.97609"/><use xlink:href="#i" x="161.90441" y="30.97609"/><use xlink:href="#i" x="173.8167" y="30.97609"/><use xlink:href="#i" x="185.72898" y="30.97609"/><use xlink:href="#i" x="197.64127" y="30.97609"/><use xlink:href="#i" x="209.55356" y="30.97609"/><use xlink:href="#i" x="221.46585" y="30.97609"/><use xlink:href="#i" x="233.37814" y="30.97609"/><use xlink:href="#i" x="245.29043" y="30.97609"/><use xlink:href="#i" x="257.20272" y="30.97609"/></svg>