<svg xmlns="http://www.w3.org/2000/svg" xmlns:xlink="http://www.w3.org/1999/xlink" width="100.157pt" height="117.268pt" viewBox="0 0 100.157 117.268"><defs><path id="a" d="M.46875-1.1875c0 .53125.8125 1.32813 2.32813 1.32813C4.70313.14063 5.5625-1.03125 5.5625-2.5c0-1.625-1-2.45312-2.39062-2.45312-.64063 0-1.32813.28125-1.70313.60937l-.01562-.01562.26562-2.17188c.03125-.29687.10938-.32812.32813-.32812H4.9375l.28125-.79688-.0625-.09375h-3.875l-.10937.10938-.23438 3.875.28125.15625c.48438-.5625.95313-.82813 1.57813-.82813.75 0 1.5625.53125 1.5625 2.0625 0 1.20313-.48438 2.10938-1.5 2.10938-.8125 0-1.21875-.59375-1.45313-1.25-.0625-.17188-.17187-.28126-.32812-.28126-.23438 0-.60938.23438-.60938.60938m0 0"/><path id="b" d="m.59375 1.42188.21875.21874c.57813-.54687 1.42188-1.3125 1.42188-2.23437 0-.60937-.32813-1.04687-.78125-1.04687-.35938 0-.57813.28124-.57813.57812 0 .42188.39063.64063.39063 1.14063 0 .48437-.29688.9375-.67188 1.34375m0 0"/><path id="c" d="M1.26563 0h3.8125v-.32812l-.98438-.09375c-.25-.01563-.375-.10938-.375-.5625v-6.84375l-.0625-.0625-2.39062.40625v.28125l1.07812.14062c.20313.03125.26563.10938.26563.45313v5.625c0 .21874-.01563.35937-.09375.4375-.0625.09374-.15625.10937-.28125.125l-.96875.09375Zm0 0"/><path id="d" d="M.3125-.10937.4375 0h4.79688L5.625-1.53125l-.3125-.0625c-.25.625-.48437.71875-.95312.71875H1.39063c.1875-.60937.875-1.4375 1.95312-2.20312C4.45313-3.90625 5.3125-4.42187 5.3125-5.71875c0-1.60937-1.0625-2.17187-2.28125-2.17187-1.59375 0-2.42187.96875-2.42187 1.57812 0 .39063.45312.57813.65625.57813s.28124-.125.32812-.32813c.1875-.78125.64063-1.42187 1.35938-1.42187.89062 0 1.14062.75 1.14062 1.59375 0 1.25-.625 1.95312-1.64062 2.84375C1.03125-1.79687.53125-1.01562.3125-.10937m0 0"/><path id="f" d="m.21875-2.32812.10938.25h3.15625v1.1875c0 .39062-.125.45312-.40625.48437l-.75.07813V0h3.0625v-.32812L4.875-.39062c-.26562-.04688-.34375-.10938-.34375-.5v-1.1875h1.1875v-.53125h-1.1875V-7.75h-.85937C2.59375-6.14062 1.28125-4.14062.21875-2.32812m.84375-.28125C1.75-3.875 2.5625-5.21875 3.45313-6.625h.03125v4.01563Zm0 0"/><path id="g" d="M.48438-2.10937c0 1.17187.71875 2.25 2.59375 2.25s2.59375-1.07813 2.59375-2.25c0-1.1875-.75-1.85938-1.53125-2.04688v-.03125c.70312-.1875 1.26562-.78125 1.26562-1.71875 0-1.26562-1-1.98437-2.32812-1.98437-1.34375 0-2.34375.71875-2.34375 1.98437 0 .9375.59375 1.53125 1.29687 1.71875v.03125C1.25-3.96875.48438-3.29687.48438-2.10937m1.15625.03125c0-1.0625.5-1.84375 1.4375-1.84375C4-3.92187 4.5-3.14062 4.5-2.07812c0 1.03125-.45312 1.8125-1.42187 1.8125-.98438 0-1.4375-.78125-1.4375-1.8125m.21874-3.85938c0-.89062.42188-1.54687 1.21876-1.54687.78125 0 1.20312.65625 1.20312 1.54687 0 .79688-.375 1.59375-1.20312 1.59375-.84375 0-1.21875-.79687-1.21875-1.59375m0 0"/><path id="h" d="M.3125-1.1875c0 .5.79688 1.32813 2.4375 1.32813 1.6875 0 2.75-.85938 2.75-2.34375 0-1.54688-1.34375-2-1.98437-2.0625v-.04688c.625-.10937 1.625-.57812 1.625-1.71875 0-1.28125-1-1.85937-2.23438-1.85937C1.375-7.89062.60938-7 .60938-6.5c0 .35938.42187.54688.57812.54688q.21095 0 .28125-.23438c.26563-.78125.6875-1.29687 1.34375-1.29687.92188 0 1.15625.8125 1.15625 1.45312 0 .70313-.25 1.57813-1.23437 1.57813-.5625 0-.89063-.10938-1.01563-.10938-.15625 0-.21875.10938-.21875.3125 0 .20313.0625.32813.21875.32813.125 0 .45313-.10938 1.01563-.10938.98437 0 1.53125.89063 1.53125 1.89063 0 1.39062-.67188 1.875-1.5 1.875C2-.26562 1.5-.84375 1.26563-1.5c-.0625-.21875-.17188-.32812-.34375-.32812-.20313 0-.60938.21874-.60938.64062m0 0"/><path id="i" d="M.48438-3.875c0 2.3125.67187 4.01563 2.59375 4.01563 1.90625 0 2.59375-1.70313 2.59375-4.01563 0-2.32812-.6875-4.01562-2.59375-4.01562-1.92188 0-2.59375 1.6875-2.59375 4.01562m1.17187 0c0-1.89062.3125-3.60937 1.42188-3.60937C4.17188-7.48437 4.5-5.76562 4.5-3.875S4.17188-.26562 3.07813-.26562c-1.10938 0-1.42188-1.71875-1.42188-3.60938m0 0"/><path id="e" d="M.98438-2.9375H7.375v-.67187H.98438Zm0 0"/></defs><path fill="none" stroke="#000" stroke-miterlimit="10" stroke-width=".49335" d="M15.5 10.16797V4.24219m0 0h11.38672m0 5.92578V4.24219"/><use xlink:href="#a" x="18.11974" y="19.06232"/><use xlink:href="#b" x="25.34411" y="19.06232"/><use xlink:href="#c" x="29.50585" y="19.06232"/><use xlink:href="#d" x="40.89196" y="19.06232"/><use xlink:href="#e" x="4.11635" y="33.88134"/><path fill="none" stroke="#000" stroke-miterlimit="10" stroke-width=".49335" d="M15.5 37.58594h11.38672"/><use xlink:href="#f" x="18.11974" y="33.88134"/><use xlink:href="#c" x="18.11974" y="48.70036"/><use xlink:href="#c" x="29.50585" y="48.70036"/><use xlink:href="#e" x="4.11635" y="63.51938"/><path fill="none" stroke="#000" stroke-miterlimit="10" stroke-width=".49335" d="M15.5 67.22266h22.77344"/><use xlink:href="#g" x="29.5064" y="63.51938"/><use xlink:href="#h" x="29.5064" y="78.3384"/><use xlink:href="#d" x="40.89251" y="78.3384"/><use xlink:href="#e" x="15.50178" y="93.15742"/><path fill="none" stroke="#000" stroke-miterlimit="10" stroke-width=".49335" d="M26.88672 96.86328h22.77344"/><use xlink:href="#h" x="29.5064" y="93.15742"/><use xlink:href="#d" x="40.89251" y="93.15742"/><use xlink:href="#i" x="40.89182" y="107.97768"/><path fill="none" stroke="#000" stroke-miterlimit="10" stroke-width=".49335" d="M55.35547 112.30078V4.24218m0 14.20313h39.84766"/><use xlink:href="#f" x="63.66514" y="14.73995"/><use xlink:href="#c" x="63.66514" y="29.55897"/><use xlink:href="#b" x="70.88952" y="29.55897"/><use xlink:href="#d" x="75.05125" y="29.55897"/><use xlink:href="#g" x="86.43736" y="29.55897"/></svg>