<svg xmlns="http://www.w3.org/2000/svg" xmlns:xlink="http://www.w3.org/1999/xlink" width="105.24pt" height="135.604pt" viewBox="0 0 105.24 135.604"><defs><path id="a" d="M0 0h3.29688l.0625-.32812-.79688-.07813C2.35938-.42187 2.28125-.5 2.28125-.6875c0-.07812 0-.17187.03125-.28125L2.82813-3.25h.875c.98437 0 1.89062-.14062 2.5625-.54687C7-4.25 7.4375-5.04687 7.4375-5.90625c0-.79687-.375-1.39062-.9375-1.71875-.54687-.3125-1.28125-.40625-2.04687-.40625H1.73438l-.09376.32813.6875.04687c.20313.01563.29688.10938.29688.3125 0 .07813-.01562.15625-.04687.28125L1.1875-.96875c-.09375.40625-.20312.53125-.48437.5625L.0625-.32812Zm2.98438-3.90625c0-.07812.01562-.14062.04687-.25l.70313-3.07812c.07812-.29688.14062-.40625.73437-.40625 1.15625 0 1.75.54687 1.75 1.53125 0 1.65625-.92187 2.45312-2.5 2.45312-.59375 0-.73437-.0625-.73437-.25m0 0"/><path id="b" d="M.125 0H3.5l.07813-.32812-.89063-.0625C2.48438-.40625 2.39063-.5 2.39063-.6875q0-.09375.04687-.23437l.64063-2.875H4.625c.84375 0 1.01563.15625 1.01563.65625 0 .09375 0 .21875-.01563.32812h.34375l.54688-2.42187h-.34375c-.29688.8125-.4375 1-1.46875 1H3.17188L3.875-7.28125c.0625-.29687.125-.35937.34375-.35937h1.42188c1.125 0 1.35937.29687 1.35937.92187 0 .29688-.04687.59375-.04687.59375h.35937L7.75-8.03125H1.84375l-.07812.32813.6875.0625c.20312.01562.29687.10937.29687.29687 0 .0625-.01562.15625-.04687.23438l-1.375 6.1875c-.09376.34375-.20313.5-.48438.53125l-.65625.0625Zm0 0"/><path id="c" d="M.89063 0h2.71875v-.25l-.65625-.0625c-.17188-.01562-.26563-.07812-.26563-.375v-4.79687l-.04687-.04688-1.75.29688v.21875l.70312.09375c.15625.01562.20313.07812.20313.32812V-.6875c0 .29688-.07813.35938-.26563.375L.89063-.25Zm0 0"/><path id="d" d="M.23438-.09375.32813 0h3.45312l.28125-1.15625-.23437-.04687c-.1875.4375-.34375.5-.67188.5H1.07813c.14062-.39063.5625-.9375 1.35937-1.46875C3.25-2.73437 3.84375-3.10937 3.84375-4c0-1.14062-.76562-1.53125-1.67187-1.53125-1.10938 0-1.73438.64063-1.73438 1.14063 0 .28125.32813.42187.5.42187.15625 0 .23438-.07812.28125-.23437.125-.57813.42188-1.03125.90625-1.03125.5625 0 .75.5.75 1.09375 0 .78125-.35937 1.29687-1.125 1.95312C.71875-1.29687.35938-.70312.23438-.09375m0 0"/></defs><path fill="none" stroke="#000" stroke-miterlimit="10" stroke-width=".39564" d="M.19922 67.60547 35.3789 32.42579M.19922 67.60547l35.17968 35.17968m17.58984-70.35936 35.17577-17.58984"/><use xlink:href="#a" x="41.1548" y="36.44445"/><use xlink:href="#a" x="92.5139" y="18.85547"/><path fill="none" stroke="#000" stroke-miterlimit="10" stroke-width=".39564" d="m52.96874 32.42579 35.17577 17.58984"/><use xlink:href="#b" x="92.5139" y="54.03442"/><path fill="none" stroke="#000" stroke-miterlimit="10" stroke-width=".39564" d="m52.96874 102.78515 35.17577-17.58984"/><use xlink:href="#b" x="40.74674" y="106.80335"/><use xlink:href="#a" x="92.5139" y="89.21338"/><path fill="none" stroke="#000" stroke-miterlimit="10" stroke-width=".39564" d="m52.96874 102.78515 35.17577 17.58984"/><use xlink:href="#b" x="92.5139" y="124.39233"/><use xlink:href="#c" x="15.59314" y="36.32506"/><path fill="none" stroke="#000" stroke-miterlimit="10" stroke-width=".68009" d="M15.59375 38.01953h4.38672"/><use xlink:href="#d" x="15.59314" y="45.64774"/><use xlink:href="#c" x="15.59314" y="95.09366"/><path fill="none" stroke="#000" stroke-miterlimit="10" stroke-width=".68009" d="M15.59375 96.78906h4.38672"/><use xlink:href="#d" x="15.59314" y="104.41634"/><use xlink:href="#c" x="68.36231" y="9.9406"/><path fill="none" stroke="#000" stroke-miterlimit="10" stroke-width=".68009" d="M68.36328 11.63281H72.75"/><use xlink:href="#d" x="68.36231" y="19.26328"/><use xlink:href="#c" x="68.36231" y="51.11923"/><path fill="none" stroke="#000" stroke-miterlimit="10" stroke-width=".68009" d="M68.36328 52.8125H72.75"/><use xlink:href="#d" x="68.36231" y="60.4419"/><use xlink:href="#c" x="68.36231" y="80.2995"/><path fill="none" stroke="#000" stroke-miterlimit="10" stroke-width=".68009" d="M68.36328 81.99219H72.75"/><use xlink:href="#d" x="68.36231" y="89.62093"/><use xlink:href="#c" x="68.36231" y="121.47812"/><path fill="none" stroke="#000" stroke-miterlimit="10" stroke-width=".68009" d="M68.36328 123.17188H72.75"/><use xlink:href="#d" x="68.36231" y="130.8008"/></svg>