<svg xmlns="http://www.w3.org/2000/svg" xmlns:xlink="http://www.w3.org/1999/xlink" width="189.55" height="244.415" viewBox="0 0 189.55 244.415"><defs><path id="a" d="M0 0h6.375c5.07813 0 6.09375-2.60937 6.09375-4.35937 0-2.21875-1.625-3.17188-3.17187-3.46875l.03125-.04688c2.79687-.32812 3.96875-1.92187 3.96875-3.5 0-1.70312-1-3.15625-4.875-3.15625h-5.3125l-.14063.59375 1.25.125c.35938.01563.51563.17188.51563.51563 0 .125-.03125.3125-.07813.5L2.17188-1.75c-.15625.70313-.35938.9375-.875 1.01563l-1.1875.125Zm4.20313-1.60937c0-.15626.01562-.3125.0625-.46875l1.21875-5.39063h.82812c2.07813 0 3.90625.60938 3.90625 3 0 1.875-1.14062 3.73438-3.95312 3.73438-1.65625 0-2.0625-.34375-2.0625-.875m1.4375-6.59375 1.09375-4.875c.15625-.625.26562-.73438 1.67187-.73438 1.76563 0 2.75.89063 2.75 2.35938 0 2.20312-1.82812 3.25-4.15625 3.25Zm0 0"/><path id="b" d="M0 0h5.75l.125-.60937-1.25-.10938c-.35937-.01562-.53125-.17187-.53125-.51562 0-.125.04688-.3125.09375-.51563l1.14063-5.09375h1.26562c2.03125 0 2.32813.5 2.32813 2.95313 0 2.54687 0 3.89062 2.21875 3.89062h1.625l.20312-.60937C11.5-.8125 10.98438-.875 10.98438-3.57812c0-2.14063-.1875-3.0625-1.92188-3.64063 2.5625-.35937 4.3125-1.85937 4.3125-3.9375 0-1.5-.65625-3.375-4.59375-3.375H3.125l-.15625.59375 1.25.09375c.35938.03125.51563.20313.51563.5625 0 .14063-.01563.29688-.0625.48438L2.14063-1.75c-.17188.75-.35938.96875-.85938 1.01563l-1.17187.125Zm5.5-7.57812 1.23438-5.4375c.15625-.59375.21875-.79688 1.8125-.79688 1.35937 0 2.625.59375 2.625 2.4375 0 2.5-1.625 3.79688-4.32813 3.79688Zm0 0"/><path id="c" d="M.42188-.17187.59375 0h6.23438l.53125-2.09375-.4375-.07812c-.34375.78125-.60938.89062-1.20313.89062H1.95313c.23437-.70312 1.01562-1.6875 2.45312-2.65625 1.48438-1 2.54688-1.6875 2.54688-3.29687C6.95313-9.28125 5.5625-10 3.9375-10 1.92188-10 .78125-8.84375.78125-7.95312c0 .53125.60938.78125.92188.78125.28124 0 .42187-.15625.48437-.4375.23438-1.03125.78125-1.84375 1.64063-1.84375 1.04687 0 1.375.89062 1.375 1.95312 0 1.42188-.64063 2.35938-2.03125 3.54688-1.875 1.625-2.53125 2.6875-2.75 3.78125m0 0"/><path id="d" d="M.625-1.5625c0 .625.95313 1.73438 3.03125 1.73438 2.51563 0 3.57813-1.48438 3.57813-3.32813 0-1.89062-1.125-3.14062-3.09375-3.14062-.875 0-1.73438.375-2.23438.79687l.3125-2.57812c.0625-.40625.125-.46875.4375-.46875h3.73438L6.8125-9.6875l-.09375-.14062H1.60938l-.125.14062-.29688 4.89063.42188.25C2.20313-5.25 2.78125-5.57812 3.5625-5.57812c.96875 0 1.9375.70312 1.9375 2.59375 0 1.5-.5625 2.60937-1.76562 2.60937-.9375 0-1.4375-.67187-1.76563-1.625-.09375-.25-.25-.40625-.5-.40625-.34375 0-.84375.3125-.84375.84375m0 0"/><path id="e" d="M.40625-1.5625c0 .60938.96875 1.73438 3.1875 1.73438 2.20313 0 3.5625-1.0625 3.5625-2.9375 0-2.01563-1.73437-2.54688-2.48437-2.625v-.0625c.79687-.14063 2.0625-.71875 2.0625-2.15625C6.73438-9.32812 5.32813-10 3.75-10 1.875-10 .78125-8.95312.78125-8.20312c0 .5.57813.76562.82813.76562.21874 0 .34375-.14062.42187-.35937.32813-1.03125.82813-1.65625 1.625-1.65625 1.10938 0 1.375 1.03125 1.375 1.8125s-.25 1.98437-1.46875 1.98437c-.67187 0-1.10937-.15625-1.32812-.15625s-.29688.17188-.29688.45313.07813.45312.29688.45312.65625-.15625 1.32812-.15625c1.14063 0 1.84375.9375 1.84375 2.35938 0 1.6875-.78125 2.32812-1.79687 2.32812-.89063 0-1.5-.67187-1.8125-1.625-.09376-.28125-.25-.4375-.48438-.4375-.32812 0-.90625.3125-.90625.875m0 0"/></defs><path fill="none" stroke="#000" stroke-miterlimit="10" stroke-width=".39755" d="M.19922 121.91797 63.8203 58.29689M.19922 121.91797l63.62108 63.62108M95.6367 58.2969l63.62107-31.8125"/><use xlink:href="#a" x="73.98077" y="65.56308"/><use xlink:href="#a" x="167.15576" y="33.75321"/><path fill="none" stroke="#000" stroke-miterlimit="10" stroke-width=".39755" d="m95.6367 58.2969 63.62107 31.80858"/><use xlink:href="#b" x="167.15576" y="97.37394"/><path fill="none" stroke="#000" stroke-miterlimit="10" stroke-width=".39755" d="m95.6367 185.53905 63.62107-31.8125"/><use xlink:href="#b" x="73.24353" y="192.80453"/><use xlink:href="#a" x="167.15576" y="160.99367"/><path fill="none" stroke="#000" stroke-miterlimit="10" stroke-width=".39755" d="m95.6367 185.53905 63.62107 31.80858"/><use xlink:href="#b" x="167.15576" y="224.61439"/><use xlink:href="#c" x="28.04147" y="65.17176"/><path fill="none" stroke="#000" stroke-miterlimit="10" stroke-width="1.23006" d="M28.04297 68.23438h7.9336"/><use xlink:href="#d" x="28.04147" y="82.03341"/><use xlink:href="#e" x="28.04147" y="171.62896"/><path fill="none" stroke="#000" stroke-miterlimit="10" stroke-width="1.23006" d="M28.04297 174.6914h7.9336"/><use xlink:href="#d" x="28.04147" y="188.4906"/><use xlink:href="#c" x="123.4773" y="17.45597"/><path fill="none" stroke="#000" stroke-miterlimit="10" stroke-width="1.23006" d="M123.47656 20.51953h7.9375"/><use xlink:href="#d" x="123.4773" y="34.31761"/><use xlink:href="#e" x="123.4773" y="92.1043"/><path fill="none" stroke="#000" stroke-miterlimit="10" stroke-width="1.23006" d="M123.47656 95.16406h7.9375"/><use xlink:href="#d" x="123.4773" y="108.9637"/><use xlink:href="#c" x="123.4773" y="144.69742"/><path fill="none" stroke="#000" stroke-miterlimit="10" stroke-width="1.23006" d="M123.47656 147.76172h7.9375"/><use xlink:href="#d" x="123.4773" y="161.55682"/><use xlink:href="#e" x="123.4773" y="219.34475"/><path fill="none" stroke="#000" stroke-miterlimit="10" stroke-width="1.23006" d="M123.47656 222.41016h7.9375"/><use xlink:href="#d" x="123.4773" y="236.2064"/></svg>