<svg xmlns="http://www.w3.org/2000/svg" xmlns:xlink="http://www.w3.org/1999/xlink" width="105.402pt" height="135.796pt" viewBox="0 0 105.402 135.796"><defs><path id="a" d="M0 0h3.53125c2.8125 0 3.375-1.45312 3.375-2.42187 0-1.21875-.89062-1.75-1.75-1.92188l.01563-.01562C6.71875-4.54687 7.375-5.42187 7.375-6.3125c0-.9375-.5625-1.73437-2.70312-1.73437H1.71875l-.07812.32812.70312.0625c.20313.01563.28125.09375.28125.28125q0 .1172-.04687.28125l-1.375 6.125C1.10937-.57812 1-.45312.71875-.40625L.0625-.32812Zm2.32813-.89062c0-.09376.01562-.17188.03125-.26563l.67187-2.98437H3.5c1.14063 0 2.15625.34375 2.15625 1.65625 0 1.04687-.625 2.07812-2.1875 2.07812-.92187 0-1.14062-.1875-1.14062-.48437M3.125-4.54687 3.73438-7.25c.07812-.34375.14062-.40625.92187-.40625.98438 0 1.53125.5 1.53125 1.3125 0 1.21875-1.01562 1.79688-2.3125 1.79688Zm0 0"/><path id="b" d="M0 0h3.1875l.07813-.32812-.70313-.0625C2.35938-.40625 2.26563-.5 2.26563-.6875c0-.0625.03125-.17187.04687-.28125l.64063-2.82812h.70312c1.125 0 1.28125.28125 1.28125 1.64062C4.9375-.75 4.9375 0 6.17188 0h.90625l.10937-.32812c-.8125-.125-1.10937-.15625-1.10937-1.65625 0-1.1875-.09375-1.70313-1.0625-2.01563 1.42187-.20312 2.39062-1.03125 2.39062-2.1875 0-.82812-.35937-1.85937-2.53125-1.85937H1.73438l-.09376.32812.70313.04688c.20313.01562.28125.10937.28125.3125 0 .07812-.01562.15625-.03125.26562L1.1875-.96875c-.09375.40625-.20312.53125-.48437.5625L.0625-.32812Zm3.04688-4.20312.6875-3.01563c.07812-.32812.125-.4375 1-.4375.75 0 1.45312.32813 1.45312 1.34375 0 1.39063-.89062 2.10938-2.39062 2.10938Zm0 0"/><path id="c" d="M.23438-.09375.32813 0h3.45312l.29688-1.15625-.25-.04687c-.1875.4375-.32813.48437-.65625.48437H1.07813c.14062-.375.5625-.92187 1.35937-1.45312.82813-.5625 1.40625-.9375 1.40625-1.82813 0-1.14062-.76562-1.54687-1.67187-1.54687-1.10938 0-1.73438.64062-1.73438 1.14062 0 .29688.32813.4375.5.4375.15625 0 .23438-.09375.28125-.25.125-.5625.42188-1.01562.90625-1.01562.57813 0 .75.48437.75 1.07812 0 .79688-.34375 1.3125-1.10937 1.96875C.71875-1.29687.35938-.70312.23438-.09375m0 0"/><path id="d" d="M.34375-.85937c0 .34375.53125.95312 1.6875.95312C3.42188.09375 4-.73437 4-1.75c0-1.04687-.625-1.73437-1.70312-1.73437-.48438 0-.96875.20312-1.23438.4375l.17188-1.42188c.03124-.23437.0625-.26562.23437-.26562h2.0625l.23438-.64063-.04688-.07812H.89063l-.0625.07812-.17188 2.71875.23438.14063c.32812-.39063.65625-.57813 1.09375-.57813.51562 0 1.0625.39063 1.0625 1.4375 0 .82813-.3125 1.45313-.96875 1.45313-.53125 0-.79688-.375-.98438-.90625C1.04688-1.25.95313-1.32813.8125-1.32813c-.1875 0-.46875.17188-.46875.46876m0 0"/><path id="e" d="M.21875-.85937c0 .32812.54688.95312 1.78125.95312 1.20313 0 1.96875-.59375 1.96875-1.625 0-1.10937-.96875-1.40625-1.39062-1.45312v-.03125c.45312-.07813 1.15625-.40625 1.15625-1.20313 0-.95312-.78125-1.32812-1.65625-1.32812-1.03125 0-1.64063.59375-1.64063 1 0 .28125.3125.42187.45313.42187.125 0 .1875-.07812.23437-.1875.1875-.57812.46875-.92187.90625-.92187.60938 0 .75.5625.75 1S2.64063-3.125 1.98438-3.125c-.375 0-.625-.09375-.75-.09375-.10938 0-.15626.09375-.15626.25s.04688.25.15626.25c.125 0 .375-.07812.75-.07812.60937 0 1 .51562 1 1.29687C2.98438-.5625 2.5625-.20312 2-.20312c-.48437 0-.82812-.375-1-.90625-.0625-.15626-.14062-.25-.26562-.25-.1875 0-.51563.1875-.51563.5m0 0"/></defs><path fill="none" stroke="#000" stroke-miterlimit="10" stroke-width=".39625" d="m.19922 67.79687 35.23045-35.23435M.19922 67.79687l35.23045 35.23436m17.61718-70.46871L88.2812 14.94534"/><use xlink:href="#a" x="41.05706" y="36.58764"/><use xlink:href="#a" x="92.65631" y="18.97159"/><path fill="none" stroke="#000" stroke-miterlimit="10" stroke-width=".39625" d="M53.04685 32.56252 88.2812 50.1797"/><use xlink:href="#b" x="92.65631" y="54.20469"/><path fill="none" stroke="#000" stroke-miterlimit="10" stroke-width=".39625" d="M53.04685 103.03123 88.2812 85.41405"/><use xlink:href="#b" x="40.64838" y="107.05484"/><use xlink:href="#a" x="92.65631" y="89.43779"/><path fill="none" stroke="#000" stroke-miterlimit="10" stroke-width=".39625" d="m53.04685 103.03123 35.23436 17.61718"/><use xlink:href="#b" x="92.65631" y="124.6709"/><use xlink:href="#c" x="15.61715" y="36.37261"/><path fill="none" stroke="#000" stroke-miterlimit="10" stroke-width=".68114" d="M15.61719 38.07031h4.39453"/><use xlink:href="#d" x="15.61715" y="45.70964"/><use xlink:href="#e" x="15.61715" y="95.32713"/><path fill="none" stroke="#000" stroke-miterlimit="10" stroke-width=".68114" d="M15.61719 97.02344h4.39453"/><use xlink:href="#d" x="15.61715" y="104.66416"/><use xlink:href="#c" x="68.46755" y="9.94853"/><path fill="none" stroke="#000" stroke-miterlimit="10" stroke-width=".68114" d="M68.46875 11.64453h4.39453"/><use xlink:href="#d" x="68.46755" y="19.28431"/><use xlink:href="#e" x="68.46755" y="51.286"/><path fill="none" stroke="#000" stroke-miterlimit="10" stroke-width=".68114" d="M68.46875 52.98047h4.39453"/><use xlink:href="#d" x="68.46755" y="60.62178"/><use xlink:href="#c" x="68.46755" y="80.41474"/><path fill="none" stroke="#000" stroke-miterlimit="10" stroke-width=".68114" d="M68.46875 82.11328h4.39453"/><use xlink:href="#d" x="68.46755" y="89.75176"/><use xlink:href="#e" x="68.46755" y="121.75221"/><path fill="none" stroke="#000" stroke-miterlimit="10" stroke-width=".68114" d="M68.46875 123.44922h4.39453"/><use xlink:href="#d" x="68.46755" y="131.08923"/></svg>