<svg xmlns="http://www.w3.org/2000/svg" xmlns:xlink="http://www.w3.org/1999/xlink" width="110.156pt" height="141.046pt" viewBox="0 0 110.156 141.046"><defs><path id="a" d="M0 0h3.4375L3.5-.34375l-.84375-.07812c-.20312-.01563-.29687-.10938-.29687-.29688q0-.11718.04687-.28125l.53125-2.375h.90625c1.03125 0 1.98438-.15625 2.67188-.57812.78125-.46875 1.21875-1.29688 1.21875-2.1875 0-.82813-.375-1.45313-.96875-1.79688-.5625-.3125-1.34375-.42187-2.14063-.42187H1.79688l-.09376.34375.73438.0625c.20313 0 .28125.10937.28125.3125 0 .07812 0 .17187-.03125.28125L1.23438-1c-.10938.40625-.20313.54688-.5.57813L.0625-.34375Zm3.10938-4.0625c0-.07812.01562-.15625.04687-.26562l.73438-3.1875c.0625-.3125.14062-.4375.76562-.4375 1.1875 0 1.8125.57812 1.8125 1.59375C6.46875-4.625 5.5-3.8125 3.875-3.8125c-.625 0-.76562-.0625-.76562-.25m0 0"/><path id="b" d="M.125 0h3.51563l.07812-.34375-.92187-.0625C2.57813-.42187 2.5-.53125 2.5-.70312c0-.07813 0-.15626.03125-.26563l.67188-2.98437H4.8125c.89063 0 1.04688.17187 1.04688.6875 0 .10937 0 .21875-.01563.34375h.375l.5625-2.53125h-.35937c-.3125.84375-.45313 1.04687-1.51563 1.04687H3.3125l.71875-3.17187c.07813-.29688.14063-.375.35938-.375h1.46875c1.1875 0 1.42187.3125 1.42187.95312 0 .3125-.04687.64063-.04687.64063h.375l.45312-2H1.92188l-.07813.34375.71875.0625c.20313.01562.29688.125.29688.3125 0 .0625-.01563.15625-.04688.25L1.375-.96875c-.09375.35938-.20312.53125-.5.5625l-.6875.0625Zm0 0"/><path id="c" d="M.92188 0H3.75v-.26562l-.67187-.0625c-.1875-.01563-.28125-.07813-.28125-.39063v-4.98437L2.75-5.75l-1.82812.3125v.21875l.73437.09375c.15625.03125.21875.09375.21875.35938v4.04687c0 .3125-.07812.375-.28125.39063l-.67187.0625Zm0 0"/><path id="d" d="M.25-.09375.34375 0h3.57813l.3125-1.20312-.25-.04688c-.20313.45313-.35938.51563-.70313.51563H1.125c.14063-.40625.57813-.96875 1.40625-1.53125C3.39063-2.82812 4-3.23437 4-4.15625 4-5.34375 3.1875-5.75 2.26563-5.75c-1.15625 0-1.8125.67188-1.8125 1.17188 0 .3125.34375.45312.53125.45312.15624 0 .23437-.09375.28124-.25.125-.59375.4375-1.0625.9375-1.0625.59375 0 .78125.51563.78125 1.125 0 .82813-.35937 1.35938-1.15625 2.04688C.75-1.34375.375-.73437.25-.09375m0 0"/></defs><path fill="none" stroke="#000" stroke-miterlimit="10" stroke-width=".39547" d="m.19922 70.05078 36.5742-36.5781M.19922 70.05078l36.5742 36.57811m18.28906-73.15622 36.5742-18.28905"/><use xlink:href="#a" x="41.98531" y="37.64987"/><use xlink:href="#a" x="96.1781" y="19.361"/><path fill="none" stroke="#000" stroke-miterlimit="10" stroke-width=".39547" d="m55.06248 33.47267 36.5742 18.28906"/><use xlink:href="#b" x="96.1781" y="55.93775"/><path fill="none" stroke="#000" stroke-miterlimit="10" stroke-width=".39547" d="m55.06248 106.6289 36.5742-18.28906"/><use xlink:href="#b" x="41.66378" y="110.80437"/><use xlink:href="#a" x="96.1781" y="92.5155"/><path fill="none" stroke="#000" stroke-miterlimit="10" stroke-width=".39547" d="m55.06248 106.6289 36.5742 18.28905"/><use xlink:href="#b" x="96.1781" y="129.09324"/><use xlink:href="#c" x="16.20534" y="37.52929"/><path fill="none" stroke="#000" stroke-miterlimit="10" stroke-width=".70698" d="M16.20703 39.28906h4.5586"/><use xlink:href="#d" x="16.20534" y="47.21935"/><use xlink:href="#c" x="16.20534" y="98.62816"/><path fill="none" stroke="#000" stroke-miterlimit="10" stroke-width=".70698" d="M16.20703 100.39063h4.5586"/><use xlink:href="#d" x="16.20534" y="108.31951"/><use xlink:href="#c" x="71.06829" y="10.09549"/><path fill="none" stroke="#000" stroke-miterlimit="10" stroke-width=".70698" d="M71.0664 11.85547h4.5625"/><use xlink:href="#d" x="71.06829" y="19.78683"/><use xlink:href="#c" x="71.06829" y="52.90648"/><path fill="none" stroke="#000" stroke-miterlimit="10" stroke-width=".70698" d="M71.0664 54.66797h4.5625"/><use xlink:href="#d" x="71.06829" y="62.59782"/><use xlink:href="#c" x="71.06829" y="83.25098"/><path fill="none" stroke="#000" stroke-miterlimit="10" stroke-width=".70698" d="M71.0664 85.01172h4.5625"/><use xlink:href="#d" x="71.06829" y="92.94104"/><use xlink:href="#c" x="71.06829" y="126.06098"/><path fill="none" stroke="#000" stroke-miterlimit="10" stroke-width=".70698" d="M71.0664 127.82031h4.5625"/><use xlink:href="#d" x="71.06829" y="135.75232"/></svg>