<svg xmlns="http://www.w3.org/2000/svg" xmlns:xlink="http://www.w3.org/1999/xlink" width="1136.075" height="119.556" viewBox="0 0 1136.075 119.556"><defs><path id="a" d="M.875-7.01562C.875-2.8125 2.09375.25 5.5625.25c3.45313 0 4.70313-3.0625 4.70313-7.26562 0-4.1875-1.25-7.25-4.70313-7.25-3.46875 0-4.6875 3.0625-4.6875 7.25m2.10938 0c0-3.40625.59375-6.51563 2.57812-6.51563S8.125-10.42187 8.125-7.01562c0 3.42187-.57812 6.53125-2.5625 6.53125-1.98437 0-2.57812-3.10938-2.57812-6.53125m0 0"/><path id="v" d="m1.07813 2.5625.39062.40625C2.51563 1.98438 4.04688.57813 4.04688-1.07812c0-1.10938-.60938-1.89063-1.40625-1.89063-.65625 0-1.0625.51563-1.0625 1.04688 0 .76562.70312 1.15625.70312 2.0625 0 .85937-.54687 1.6875-1.20312 2.42187m0 0"/><path id="w" d="M.84375-2.14062C.84375-1.1875 2.32813.25 5.04688.25 8.5.25 10.0625-1.85937 10.0625-4.51562c0-2.9375-1.82812-4.4375-4.32812-4.4375-1.15625 0-2.4375.51562-3.09375 1.10937l.46875-3.96875c.0625-.53125.1875-.60937.59375-.60937H8.9375l.5-1.42188-.10937-.17187h-7l-.20313.1875-.42187 7.01562.5.26563c.875-1 1.73437-1.48438 2.85937-1.48438 1.34375 0 2.8125.96875 2.8125 3.75 0 2.15625-.85937 3.79688-2.6875 3.79688-1.48437 0-2.21875-1.0625-2.64062-2.26563-.10938-.3125-.3125-.51562-.60938-.51562-.42187 0-1.09375.4375-1.09375 1.125m0 0"/><path id="J" d="M2.28125 0h6.89063v-.60937L7.40625-.76563c-.4375-.03124-.6875-.1875-.6875-1.01562v-12.375l-.10937-.10937-4.32813.73437v.51563l1.96875.25c.34375.03125.48438.1875.48438.79687v10.1875c0 .82813-.20313.98438-.6875 1.01563l-1.76563.15624Zm0 0"/><path id="b" d="M.73438 0h5.85937v-.60937c-1.84375-.125-1.875-.15626-1.875-1.32813v-10.64062c0-1.17188.03125-1.20313 1.875-1.32813v-.60937H.73438v.60937c1.85937.125 1.90625.15625 1.90625 1.32813V-1.9375c0 1.17188-.04688 1.20313-1.90625 1.32813Zm0 0"/><path id="c" d="M.67188 0h5.10937v-.60937c-1.5-.10938-1.5625-.15626-1.5625-1.21875V-6.75c0-.53125 0-.8125.15625-1.10937.40625-.84375 1.3125-1.54688 2.48438-1.54688 1.79687 0 2.03125 1.32813 2.03125 2.625v4.95313c0 1.0625-.07813 1.10937-1.59375 1.21875V0h5.125v-.60937c-1.5-.10938-1.57813-.15626-1.57813-1.21875V-6.75c0-.53125.03125-.79687.15625-1.125.32813-.85937 1.21875-1.53125 2.39063-1.53125 1.32812 0 2.125.75 2.125 2.625v4.95313c0 1.0625-.0625 1.10937-1.57813 1.21875V0h5.125v-.60937c-1.48437-.10938-1.57812-.15626-1.57812-1.21875V-7.1875c0-2.125-1.14063-3.34375-3.125-3.34375-1.71875 0-2.95313 1.125-3.6875 1.59375-.51563-.96875-1.3125-1.59375-2.79688-1.59375-1.59375 0-2.92187 1.0625-3.65625 1.59375l-.20312-1.59375L.78125-10v.51563l.78125.10937c.53125.09375.6875.17188.6875.9375v6.60938c0 1.0625-.0625 1.10937-1.57812 1.21875Zm0 0"/><path id="d" d="M.53125 4.21875v.60938h5.4375v-.60938C4.20313 4.10938 4.0625 4.0625 4.0625 2.98438V-.21875C4.51563.01563 5.51563.25 6.46875.25c2.84375 0 5.25-1.29687 5.25-5.625 0-1.5-.26562-5.15625-4.07812-5.15625-1.54688 0-2.75 1.01563-3.57813 1.5625l-.26562-1.5625L.625-10v.51563l.79688.10937c.54687.09375.67187.17188.67187.9375V2.98438c0 1.07812-.07812 1.125-1.5625 1.23437M4.0625-3.29687V-6.75c0-.53125.10938-.79687.29688-1.17187.48437-.96875 1.35937-1.48438 2.46875-1.48438.85937 0 2.73437.54688 2.73437 4.15625 0 3.07813-.98437 4.76563-3.09375 4.76563-1.09375 0-1.90625-.5625-2.25-1.53125-.125-.375-.15625-.79688-.15625-1.28125m0 0"/><path id="e" d="M1.03125-5.14062C1.03125-1.73437 2.70313.25 6.07813.25c3.35937 0 5.01562-1.98437 5.01562-5.39062 0-3.39063-1.65625-5.39063-5.01562-5.39063-3.375 0-5.04688 2-5.04688 5.39063m2.1875 0c0-2.89063.9375-4.65625 2.85938-4.65625S8.9375-8.03125 8.9375-5.14062C8.9375-2.23437 8-.48437 6.07813-.48437s-2.85938-1.75-2.85938-4.65625m0 0"/><path id="f" d="m.98438-3.5.21874 2.73438C1.96876-.09376 3.23438.25 4.46876.25c2.5 0 3.92188-1.32812 3.92188-3.10937 0-1.85938-1.14063-2.67188-3.29688-3.34375-.875-.26563-2.23437-.71875-2.23437-1.90625 0-1.09375.82812-1.6875 1.875-1.6875 1.5 0 2.20312 1.15625 2.35937 2.42187h.60938v-2.45312c-.6875-.51563-1.76563-.70313-2.70313-.70313-2.28125 0-3.8125 1.0625-3.8125 3.04688 0 1.75 1.42188 2.53125 3.17188 3.0625.9375.29687 2.25.76562 2.25 2.1875 0 1.07812-.82813 1.75-1.9375 1.75-1.70313 0-2.65625-1.23438-3.09375-3.01563Zm0 0"/><path id="g" d="M1.92188-13.73437c0 .76562.53125 1.29687 1.29687 1.29687.75 0 1.26563-.53125 1.26563-1.29687 0-.75-.51563-1.26563-1.26563-1.26563-.76562 0-1.29687.51563-1.29687 1.26563M.67188 0h5.10937v-.60937c-1.5-.10938-1.5625-.15626-1.5625-1.21875v-8.57813l-.15625-.125L.78125-10v.51563l.78125.10937c.53125.09375.6875.17188.6875.9375v6.60938c0 1.0625-.0625 1.10937-1.57812 1.21875Zm0 0"/><path id="h" d="m.42188-14.51562.8125.0625c.53125.07812.65625.1875.65625.98437V.09375L2.28125.25l.82813-.8125c.73437.42188 1.625.8125 3.1875.8125 2.79687 0 5.21875-1.34375 5.21875-5.625 0-1.29687-.26563-5.15625-4.03125-5.15625-1.59375 0-2.84375 1.01563-3.625 1.48438v-6.40625l-.15625-.10938-3.28125.51563Zm3.4375 11.09375V-6.75c0-.53125.03125-.84375.20312-1.17187.51563-1.01563 1.39063-1.48438 2.5625-1.48438.875 0 2.70313.5 2.70313 4.15625 0 3.07813-.9375 4.76563-3.01563 4.76563-1.10937 0-1.90625-.5625-2.29687-1.60938-.125-.39062-.15625-.8125-.15625-1.32812m0 0"/><path id="i" d="M.42188 0h5.10937v-.60937c-1.48437-.10938-1.5625-.15626-1.5625-1.21875v-13.625l-.15625-.10938-3.28125.51563v.53125l.78125.0625c.54688.07812.67188.1875.67188.98437v11.64063c0 1.0625-.04688 1.10937-1.5625 1.21875Zm0 0"/><path id="j" d="M1.03125-5.0625C1.03125-1.73437 2.45313.25 5.875.25c2.3125 0 3.53125-1.29687 4.07813-2.95312l-.625-.32813C8.75-1.8125 7.95313-.82812 6.29688-.82812c-2.60938 0-3.125-2.5-3.07813-4.6875h6.04688c.45312 0 .82812-.10938.82812-.79688 0-1.23437-.40625-4.21875-4.25-4.21875-3.28125 0-4.8125 2.3125-4.8125 5.46875m2.20313-1.25c0-.875.3125-3.48437 2.5-3.48437 1.95312 0 2.17187 1.98437 2.17187 2.8125 0 .39062-.14062.67187-.71875.67187Zm0 0"/><path id="x" d="M.60938-13.90625C2.45313-13.78125 2.5-13.75 2.5-12.57812v7.26562c0 1.21875.20313 2.34375.5625 3.0625C4.01563-.20312 6.23438.3125 8.28125.3125c2.07813 0 4.29688-.48437 5.25-2.5625.35938-.73437.57813-1.85937.57813-3.10937v-7.21875c0-1.17188.04687-1.20313 1.875-1.32813v-.60937h-5.84375v.60937c1.84375.125 1.89062.15625 1.89062 1.32813v6.8125c0 1.98437-.32812 3.25-.95312 4.09375-.65625.84375-1.5625 1.25-2.79688 1.25-1.20312 0-2.125-.40625-2.76562-1.25-.625-.84375-.9375-2.10938-.9375-4.09375v-6.8125c0-1.17188.0625-1.20313 1.89062-1.32813v-.60937H.60938Zm0 0"/><path id="y" d="M.67188 0h5.10937v-.60937c-1.5-.10938-1.5625-.15626-1.5625-1.21875V-6.75c0-.53125.03125-.79687.20313-1.125.45312-.82812 1.39062-1.53125 2.5-1.53125 1.42187 0 2.20312.78125 2.20312 2.625v4.95313c0 1.0625-.0625 1.10937-1.57812 1.21875V0h5.14062v-.60937c-1.5-.10938-1.59375-.15626-1.59375-1.21875V-7.1875c0-2.125-1.15625-3.34375-3.07812-3.34375-1.5625 0-2.51563.75-3.8125 1.59375l-.29688-1.59375L.78125-10v.51563l.78125.10937c.53125.09375.6875.17188.6875.9375v6.60938c0 1.0625-.0625 1.10937-1.57812 1.21875Zm0 0"/><path id="z" d="M1.03125-5.04687C1.03125-1.54687 2.75.25 5.89063.25 7.375.25 9.35938-.51562 9.9375-2.76562l-.625-.29688C8.65625-1.57812 7.84375-.84375 6.29688-.84375c-2.5 0-3.07813-2.60937-3.07813-4.57812 0-3.125 1.21875-4.375 2.67188-4.375.96875 0 1.5625.6875 1.98437 1.82812.14063.32813.28125.53125.67188.53125.42187 0 1.23437-.26562 1.23437-1.0625 0-.96875-1.39062-2.03125-3.65625-2.03125-3.82812 0-5.09375 2.6875-5.09375 5.48438m0 0"/><path id="A" d="M.45313 0h5.07812v-.60937c-1.4375-.10938-1.5625-.1875-1.5625-1.21875V-6.75c0-.53125 0-.79687.1875-1.10937.4375-.84375 1.40625-1.54688 2.51563-1.54688 1.4375 0 2.21875.78125 2.21875 2.625v4.95313c0 1.03125-.10938 1.10937-1.59375 1.21875V0h5.125v-.60937c-1.45313-.10938-1.57813-.1875-1.57813-1.21875V-7.1875c0-2.125-1.15625-3.34375-3.09375-3.34375-1.54687 0-2.48437.73438-3.79687 1.59375v-6.51562l-.15625-.10938-3.26563.51563v.53125l.78125.09375c.54688.09375.67188.20312.67188.95312v11.64063c0 1.03125-.0625 1.10937-1.53125 1.21875Zm0 0"/><path id="B" d="M1.03125-2.71875C1.03125-1.15625 2.07813.25 4.04688.25 5.26563.25 6.5-.5625 7.17188-1c.28125.78125.64062 1.25 1.375 1.25.78125 0 1.67187-.23437 2.48437-.625l-.14062-.5c-.28125.07813-.75.09375-1.0625 0-.39063-.07812-.73438-.46875-.73438-1.78125V-7.75c0-1.21875-.28125-2.78125-3.4375-2.78125-2.375 0-4.25 1.21875-4.25 2.375 0 .67188.78125.98438 1.1875.98438.4375 0 .54688-.21875.67188-.57813.46875-1.5625 1.3125-2.04687 2.15625-2.04687.82812 0 1.76562.42187 1.76562 2.09375v.875c-.53125.53125-2.5625 1.0625-4.21875 1.60937-1.51562.46875-1.9375 1.51563-1.9375 2.5m2.10938-.29687c0-.98438.45312-1.5 1.64062-1.9375.84375-.3125 1.9375-.71875 2.40625-1.01563v2.98438c0 1.6875-1.29687 2.10937-2.125 2.10937-1.28125 0-1.92187-.90625-1.92187-2.14062m0 0"/><path id="C" d="m.53125-9.48437.8125.10937c.53125.09375.67188.17188.67188.9375v5.53125C2.01563-.48437 3.4375.25 5 .25c1.78125 0 3.23438-1.20312 3.84375-1.5L9.04688 0h3.375v-.60937c-1.45313-.10938-1.59375-.15626-1.59375-1.21875v-8.57813l-.15625-.125L7.39063-10v.51563l.79687.10937c.54688.09375.67188.17188.67188.9375v4.73438c0 .57812-.0625 1.04687-.17188 1.25C8.1875-1.5 7.21875-.875 6.125-.875 4.89063-.875 4-1.65625 4-3.28125v-7.125l-.15625-.125L.53125-10Zm0 0"/><path id="D" d="M.67188 0h5.53125v-.60937c-1.875-.10938-1.98438-.15626-1.98438-1.21875V-6.75c0-1.59375.71875-2.15625 1.20313-2.15625.34375 0 .70312.125 1.29687.46875.15625.09375.3125.10938.42188.10938.51562 0 .96875-.53125.96875-1.1875 0-.46875-.29688-1.01563-1.125-1.01563-.75 0-1.375.4375-2.76563 1.67188l-.25-1.67188L.78125-10v.51563l.78125.10937c.53125.09375.6875.17188.6875.9375v6.60938c0 1.0625-.10937 1.10937-1.57812 1.21875Zm0 0"/><path id="E" d="M1.03125-4.9375c0 3.10938 1.625 5.1875 4.39063 5.1875 1.14062 0 2.10937-.51562 3.23437-1.4375v1.03125L8.84375 0h3.39063v-.60937c-1.5-.10938-1.5625-.15626-1.5625-1.21875v-13.625l-.15625-.10938-3.29688.51563v.53125l.79688.0625c.53125.07812.67187.1875.67187.98437v3.4375c-.57812-.3125-1.35937-.5-2.32812-.5-1.71875 0-3.01563.54688-3.875 1.4375-.90625.9375-1.45313 2.32813-1.45313 4.15625m2.1875-.25c0-2.71875.98438-4.60937 3.125-4.60937.98438 0 1.78125.4375 2.15625 1.3125.1875.35937.1875.67187.1875 1.23437v3.67188c0 .46875 0 .82812-.14062 1.1875C8.125-1.29687 7.21875-.875 6.125-.875c-1.92187 0-2.90625-1.89062-2.90625-4.3125m0 0"/><path id="F" d="M.01563 0h4.03125v-.60937l-.875-.10938C2.875-.76562 2.875-1 3.01563-1.23437 3.48438-2.125 4.15625-3.125 4.875-4.21875h.03125l1.875 2.92188c.23438.35937.15625.53125-.15625.57812l-.85937.10938V0h4.90625v-.60937c-.9375-.03126-1.26563-.10938-1.8125-.85938-.95313-1.39062-1.95313-2.84375-2.875-4.3125.6875-1.04687 1.5-2.125 2.32812-3.10937.53125-.67188.8125-.73438 1.82813-.78125v-.625H6.23438v.625l.82812.07812c.32813.03125.28125.26563.125.48438-.48437.79687-1.04687 1.67187-1.67187 2.64062H5.5l-1.76562-2.625c-.1875-.23437-.125-.48437.20312-.53125l.625-.04687v-.625H.17188v.625c.85937.04687 1.03125.07812 1.54687.76562C2.59375-7.6875 3.5-6.3125 4.40625-4.98437 3.60938-3.84375 2.8125-2.65625 1.9375-1.51562c-.53125.73437-1 .84375-1.92187.90625Zm0 0"/><path id="K" d="M1-7.17187c0 2.45312.73438 4.45312 1.98438 5.70312C4.28125-.17187 6.35938.3125 8.70313.3125c1.67187 0 3.625-.46875 4.625-1l.29687-3.51562H13c-.57812 2.1875-1.67187 3.78125-4.42187 3.78125-4.32813 0-5.23438-4.25-5.23438-6.79688 0-3.4375 1.375-6.89062 5.28125-6.89062 2.14063 0 3.64063.89062 4.03125 3.375h.625v-3.28125c-.9375-.45313-2.51562-.82813-4.4375-.82813-2.59375 0-4.67187.75-5.92187 2.15625C1.71875-11.34375 1-9.53125 1-7.17187m0 0"/><path id="L" d="M.64063-9.4375h1.53125v7.29688C2.17188 0 3.75.25 4.48438.25c1.07812 0 2.07812-.54687 2.6875-.92187l-.15625-.4375c-.51563.1875-.96875.26562-1.5.26562-.71875 0-1.39063-.51562-1.39063-2.10937V-9.4375h2.70313v-.85937H4.125v-2.625h-.59375L2.25-10.29687H.64063Zm0 0"/><path id="k" d="M.375 0h2.92188v-.29687C2.375-.375 2.35938-.375 2.35938-.96875v-5.32812c0-.57813.01562-.59375.9375-.65625v-.3125H.375v.3125c.92188.0625.9375.07812.9375.65625v5.32812c0 .59375-.01562.59375-.9375.67188Zm0 0"/><path id="l" d="M.32813 0h2.5625v-.29687c-.75-.0625-.78125-.07813-.78125-.625V-3.375c0-.26562 0-.40625.07812-.5625.20313-.42187.65625-.76562 1.25-.76562.89063 0 1.01563.65625 1.01563 1.3125v2.46875c0 .54687-.04688.5625-.79688.625V0h2.5625v-.29687c-.75-.0625-.79687-.07813-.79687-.625V-3.375c0-.26562.01562-.40625.07812-.5625.17188-.4375.60938-.76562 1.20313-.76562.65625 0 1.0625.375 1.0625 1.3125v2.46875c0 .54687-.03125.5625-.79688.625V0h2.57813v-.29687c-.75-.0625-.79688-.07813-.79688-.625v-2.67188c0-1.0625-.57812-1.67187-1.5625-1.67187-.85937 0-1.48437.5625-1.84375.79687-.26562-.48437-.65625-.79687-1.40625-.79687-.79687 0-1.45312.53125-1.82812.79687l-.09375-.79687L.39063-5v.25l.39062.0625c.26563.04688.34375.07813.34375.46875v3.29688c0 .54687-.03125.5625-.79687.625Zm0 0"/><path id="m" d="M.26563 2.10938v.29687h2.71875v-.29687c-.89063-.04688-.95313-.07813-.95313-.60938V-.10937C2.25.01563 2.76563.125 3.23438.125c1.42187 0 2.625-.65625 2.625-2.8125 0-.75-.125-2.57812-2.03125-2.57812-.78125 0-1.375.5-1.79688.78125l-.125-.78125L.3125-5v.25l.40625.0625c.26563.04688.32813.07813.32813.46875V1.5c0 .53125-.04688.5625-.78125.60938m1.76562-3.76563V-3.375c0-.26562.0625-.40625.14063-.59375.25-.48437.6875-.73437 1.25-.73437.42187 0 1.35937.26562 1.35937 2.07812 0 1.54688-.48437 2.375-1.54687 2.375-.54688 0-.95313-.28125-1.125-.75-.0625-.20312-.07813-.40625-.07813-.65625m0 0"/><path id="n" d="M.32813 0h2.78125v-.29687c-.9375-.0625-1-.07813-1-.625V-3.375c0-.79687.35937-1.07812.60937-1.07812.15625 0 .34375.0625.64063.23437.07812.04688.15625.04688.21875.04688.25 0 .48437-.26563.48437-.59375 0-.23438-.15625-.5-.5625-.5-.39062 0-.70312.21875-1.39062.82812l-.125-.82812L.39063-5v.25l.39062.0625c.26563.04688.34375.07813.34375.46875v3.29688c0 .54687-.04687.5625-.79687.625Zm0 0"/><path id="o" d="M.51563-2.5625C.51563-.875 1.35938.125 3.03125.125c1.6875 0 2.51563-1 2.51563-2.6875 0-1.70312-.82813-2.70312-2.51563-2.70312-1.67187 0-2.51562 1-2.51562 2.70312m1.09375 0c0-1.45312.46875-2.34375 1.42187-2.34375.96875 0 1.4375.89063 1.4375 2.34375C4.46875-1.10937 4-.25 3.03125-.25c-.95312 0-1.42187-.85937-1.42187-2.3125m0 0"/><path id="p" d="m.21875-7.26562.39063.03125c.26562.04687.34375.09375.34375.5V.04688l.1875.07812.40625-.40625C1.92188-.0625 2.375.125 3.15625.125c1.39063 0 2.60938-.67187 2.60938-2.8125 0-.65625-.14063-2.57812-2.01563-2.57812-.79687 0-1.42187.5-1.8125.73437v-3.20312l-.07812-.04688-1.64063.25Zm1.71875 5.5625V-3.375c0-.26562 0-.42187.09375-.59375.26563-.5.6875-.73437 1.28125-.73437.4375 0 1.35938.25 1.35938 2.07812 0 1.54688-.46875 2.375-1.51563 2.375-.54687 0-.95312-.28125-1.14062-.79687-.07813-.1875-.07813-.40625-.07813-.65625m0 0"/><path id="q" d="M.51563-1.35937c0 .78125.51562 1.48437 1.5 1.48437.625 0 1.23437-.40625 1.57812-.625.14063.39063.3125.625.6875.625.39063 0 .82813-.10937 1.23438-.3125l-.0625-.25c-.14063.03125-.375.04688-.53125 0-.20313-.04687-.375-.23437-.375-.89062V-3.875c0-.60937-.14063-1.39062-1.71875-1.39062-1.1875 0-2.125.60937-2.125 1.1875 0 .32812.39062.48437.59375.48437.21874 0 .28124-.10937.32812-.28125.23438-.78125.67188-1.03125 1.09375-1.03125.40625 0 .875.21875.875 1.04688v.4375c-.26562.26562-1.28125.54687-2.10937.8125-.76563.23437-.96875.75-.96875 1.25m1.0625-.15626c0-.48437.21874-.73437.8125-.96874.42187-.15625.96875-.35938 1.20312-.5V-1.5c0 .85938-.64062 1.0625-1.0625 1.0625-.64062 0-.95312-.45312-.95312-1.07812m0 0"/><path id="r" d="M.21875 0h2.54688v-.29687c-.75-.0625-.78125-.07813-.78125-.625v-6.8125l-.07813-.04688-1.64062.25v.26563l.39062.03125c.26563.04687.34375.09375.34375.5v5.8125c0 .54687-.03125.5625-.78125.625Zm0 0"/><path id="s" d="M.51563-2.53125C.51563-.875 1.23438.125 2.9375.125c1.15625 0 1.76563-.65625 2.04688-1.48437l-.3125-.15626C4.375-.90624 3.98438-.40624 3.15625-.40624c-1.3125 0-1.5625-1.26562-1.54687-2.35937h3.03125c.21875 0 .40625-.04688.40625-.39063 0-.625-.20313-2.10937-2.125-2.10937-1.64063 0-2.40625 1.15625-2.40625 2.73437m1.10937-.625c0-.4375.15625-1.75 1.25-1.75.96875 0 1.07813 1 1.07813 1.40625 0 .20313-.0625.34375-.35938.34375Zm0 0"/><path id="t" d="M.375 0h3.09375v-.29687C2.375-.375 2.35938-.375 2.35938-.96875v-2.01562h.59375c.48437 0 .95312-.04688 1.34375-.125.79687-.21875 1.73437-.78125 1.73437-2.09375 0-.79688-.35937-1.35938-.82812-1.64063-.5-.3125-1.17188-.42187-1.90625-.42187H.375v.3125c.92188.0625.9375.07812.9375.65625v5.32812c0 .59375-.01562.59375-.9375.67188Zm1.98438-3.76562v-2.75c0-.28125.10937-.39063.79687-.39063 1.07813 0 1.73438.625 1.73438 1.76563 0 1.3125-.85938 1.79687-1.76563 1.79687-.60937 0-.76562-.03125-.76562-.42187m0 0"/><path id="u" d="m.26563-4.75.40625.0625C.9375-4.64062 1-4.60937 1-4.21875v2.76563C1-.25 1.71875.125 2.5.125c.89063 0 1.625-.60937 1.92188-.75L4.53125 0h1.6875v-.29687c-.73437-.0625-.79687-.07813-.79687-.625v-4.28125l-.07813-.0625L3.70313-5v.25l.39062.0625c.28125.04688.34375.07813.34375.46875v2.35938c0 .29687-.03125.53125-.09375.625-.25.48437-.73437.79687-1.28125.79687C2.45313-.4375 2-.82812 2-1.64062v-3.5625l-.07812-.0625L.26563-5Zm0 0"/><path id="G" d="M.23438-5.51562h.3125c.125-1.14063.34375-1.39063 1.57812-1.39063h.60938v5.9375c0 .59375-.01563.59375-1.14063.67188V0H4.9375v-.29687C3.8125-.375 3.78125-.375 3.78125-.96875v-5.9375h.625c1.21875 0 1.45313.25 1.57813 1.39063h.3125v-1.75H.23438Zm0 0"/><path id="H" d="M1.28125-7.14062c0 .21875.26563.40625.57813.57812l1.57812.875.15625-.21875-1.23437-1.25c-.3125-.32812-.5-.4375-.6875-.4375-.15626 0-.39063.25-.39063.45313M.51563-2.53125C.51563-.875 1.23438.125 2.9375.125c1.15625 0 1.76563-.65625 2.04688-1.48437l-.3125-.15626C4.375-.90624 3.98438-.40624 3.15625-.40624c-1.3125 0-1.5625-1.26562-1.54687-2.35937h3.03125c.21875 0 .40625-.04688.40625-.39063 0-.625-.20313-2.10937-2.125-2.10937-1.64063 0-2.40625 1.15625-2.40625 2.73437m1.10937-.625c0-.4375.15625-1.75 1.25-1.75.96875 0 1.07813 1 1.07813 1.40625 0 .20313-.0625.34375-.35938.34375Zm0 0"/><path id="I" d="m.48438-1.75.125 1.375c.375.32813 1.01562.5 1.625.5 1.25 0 1.96875-.65625 1.96875-1.5625 0-.92187-.57813-1.32812-1.65625-1.67187-.4375-.125-1.10938-.35938-1.10938-.95313 0-.54687.40625-.84375.9375-.84375.73438 0 1.09375.57813 1.17188 1.21875h.3125v-1.23437c-.34375-.25-.89063-.34375-1.35938-.34375-1.14062 0-1.90625.53125-1.90625 1.51562 0 .875.71875 1.26563 1.57813 1.53125.46875.15625 1.14062.39063 1.14062 1.10938 0 .53125-.42187.85937-.98437.85937C1.48438-.25 1-.85937.79688-1.75Zm0 0"/></defs><path fill="none" stroke="#000" stroke-miterlimit="10" stroke-width=".39703" d="M61.44531 72.24219h1029.40625M61.44531 86.53906V57.94531"/><use xlink:href="#a" x="55.88351" y="108.69932"/><use xlink:href="#b" x="9.08431" y="45.23003" fill="red"/><g fill="red"><use xlink:href="#c" x="16.02987" y="45.23003"/><use xlink:href="#d" x="35.39258" y="45.23003"/><use xlink:href="#e" x="48.14473" y="45.23003"/><use xlink:href="#f" x="60.24921" y="45.23003"/><use xlink:href="#f" x="69.38341" y="45.23003"/><use xlink:href="#g" x="78.51761" y="45.23003"/><use xlink:href="#h" x="84.61452" y="45.23003"/><use xlink:href="#i" x="97.16566" y="45.23003"/><use xlink:href="#j" x="103.01691" y="45.23003"/></g><use xlink:href="#k" x="205.03759" y="47.64207" fill="#F30"/><g fill="#F30"><use xlink:href="#l" x="208.51037" y="47.64207"/><use xlink:href="#m" x="218.19172" y="47.64207"/><use xlink:href="#n" x="224.5678" y="47.64207"/></g><g fill="#F30"><use xlink:href="#o" x="228.57657" y="47.64207"/><use xlink:href="#p" x="234.62881" y="47.64207"/><use xlink:href="#q" x="240.90439" y="47.64207"/><use xlink:href="#p" x="246.38714" y="47.64207"/><use xlink:href="#r" x="252.66271" y="47.64207"/><use xlink:href="#s" x="255.58834" y="47.64207"/></g><use xlink:href="#t" x="373.13631" y="47.64207" fill="#FF5900"/><g fill="#FF5900"><use xlink:href="#s" x="379.12156" y="47.64207"/><use xlink:href="#u" x="384.51498" y="47.64207"/></g><g fill="#FF5900"><use xlink:href="#m" x="393.22485" y="47.64207"/><use xlink:href="#n" x="399.60092" y="47.64207"/></g><g fill="#FF5900"><use xlink:href="#o" x="403.60969" y="47.64207"/><use xlink:href="#p" x="409.66194" y="47.64207"/><use xlink:href="#q" x="415.93751" y="47.64207"/><use xlink:href="#p" x="421.42026" y="47.64207"/><use xlink:href="#r" x="427.69583" y="47.64207"/><use xlink:href="#s" x="430.62146" y="47.64207"/></g><path fill="none" stroke="#000" stroke-miterlimit="10" stroke-width=".39703" d="M576.14844 86.53906V57.94531"/><use xlink:href="#a" x="560.99864" y="108.69932"/><use xlink:href="#v" x="572.12048" y="108.69932"/><use xlink:href="#w" x="580.16035" y="108.69932"/><use xlink:href="#x" x="519.89529" y="23.0098" fill="#FF7F00"/><g fill="#FF7F00"><use xlink:href="#y" x="535.64005" y="23.0098"/><use xlink:href="#j" x="548.61553" y="23.0098"/></g><g fill="#FF7F00"><use xlink:href="#z" x="564.11463" y="23.0098"/><use xlink:href="#A" x="574.52181" y="23.0098"/><use xlink:href="#B" x="587.25162" y="23.0098"/><use xlink:href="#y" x="598.21712" y="23.0098"/><use xlink:href="#z" x="611.1926" y="23.0098"/><use xlink:href="#j" x="621.59977" y="23.0098"/></g><g fill="#FF7F00"><use xlink:href="#f" x="535.67444" y="49.80902"/><use xlink:href="#C" x="544.80863" y="49.80902"/><use xlink:href="#D" x="557.51611" y="49.80902"/></g><g fill="#FF7F00"><use xlink:href="#E" x="570.37992" y="49.80902"/><use xlink:href="#j" x="582.93107" y="49.80902"/><use xlink:href="#C" x="593.71791" y="49.80902"/><use xlink:href="#F" x="606.42539" y="49.80902"/></g><use xlink:href="#t" x="726.41234" y="49.93157" fill="#997F33"/><use xlink:href="#n" x="732.58741" y="49.93157" fill="#997F33"/><g fill="#997F33"><use xlink:href="#o" x="736.59618" y="49.93157"/><use xlink:href="#p" x="742.64843" y="49.93157"/><use xlink:href="#q" x="748.924" y="49.93157"/><use xlink:href="#p" x="754.40675" y="49.93157"/><use xlink:href="#r" x="760.68233" y="49.93157"/><use xlink:href="#s" x="763.60795" y="49.93157"/></g><use xlink:href="#G" x="886.85649" y="50.50245" fill="#4C7F59"/><g fill="#4C7F59"><use xlink:href="#n" x="892.50674" y="50.50245"/><use xlink:href="#H" x="896.58251" y="50.50245"/><use xlink:href="#I" x="901.97593" y="50.50245"/></g><g fill="#4C7F59"><use xlink:href="#m" x="908.88799" y="50.50245"/><use xlink:href="#n" x="915.26407" y="50.50245"/></g><g fill="#4C7F59"><use xlink:href="#o" x="919.28401" y="50.50245"/><use xlink:href="#p" x="925.33625" y="50.50245"/><use xlink:href="#q" x="931.61182" y="50.50245"/><use xlink:href="#p" x="937.09457" y="50.50245"/><use xlink:href="#r" x="943.37015" y="50.50245"/><use xlink:href="#s" x="946.29577" y="50.50245"/></g><path fill="none" stroke="#000" stroke-miterlimit="10" stroke-width=".39703" d="M1090.85156 86.53906V57.94531"/><use xlink:href="#J" x="1085.2776" y="108.69932"/><use xlink:href="#K" x="1055.60779" y="49.74227" fill="#007F7F"/><g fill="#007F7F"><use xlink:href="#j" x="1069.69991" y="49.74227"/><use xlink:href="#D" x="1080.48675" y="49.74227"/></g><g fill="#007F7F"><use xlink:href="#L" x="1088.81696" y="49.74227"/><use xlink:href="#B" x="1096.03052" y="49.74227"/><use xlink:href="#g" x="1106.99603" y="49.74227"/><use xlink:href="#y" x="1113.09293" y="49.74227"/></g></svg>