<svg xmlns="http://www.w3.org/2000/svg" xmlns:xlink="http://www.w3.org/1999/xlink" width="189.259" height="244.069" viewBox="0 0 189.259 244.069"><defs><path id="a" d="M0 0h5.96875l.10938-.60937-1.45313-.125c-.35937-.03126-.51562-.1875-.51562-.51563 0-.14062.01562-.29687.0625-.48437l.9375-4.14063h1.5625c1.79687 0 3.4375-.25 4.65625-.98437 1.32812-.82813 2.10937-2.25 2.10937-3.8125 0-1.4375-.67187-2.53125-1.6875-3.10938-.98437-.54687-2.32812-.73437-3.71875-.73437H3.125l-.15625.60937 1.25.07813c.35938.03125.51563.20312.51563.5625 0 .14062-.01563.29687-.0625.5L2.14063-1.73437c-.17188.70312-.35938.95312-.875 1l-1.15625.125Zm5.40625-7.0625c0-.125.01563-.26562.0625-.4375L6.75-13.0625c.125-.53125.26563-.73437 1.32813-.73437 2.07812 0 3.15625.98437 3.15625 2.76562 0 3-1.67188 4.42188-4.51563 4.42188-1.0625 0-1.3125-.10938-1.3125-.45313m0 0"/><path id="b" d="M.21875 0H6.3125l.14063-.60937L4.875-.71875c-.39062-.01562-.54687-.20312-.54687-.51562 0-.125.03125-.26563.07812-.4375l1.15625-5.1875h2.78125c1.54688 0 1.84375.29687 1.84375 1.1875 0 .17187 0 .375-.03125.60937h.625l.98438-4.40625h-.625C10.60938-8 10.35938-7.65625 8.5-7.65625H5.73438l1.25-5.5c.14062-.53125.25-.64062.625-.64062h2.57812c2.04688 0 2.45313.53125 2.45313 1.65625 0 .53125-.0625 1.09375-.0625 1.09375h.64062L14-14.51562H3.32813l-.14063.60937 1.25.10938c.35938.01562.51563.20312.51563.53125 0 .10937-.01563.26562-.0625.42187l-2.5 11.17188c-.15625.625-.35938.90625-.875.95312l-1.1875.10938Zm0 0"/><path id="c" d="M1.59375 0h4.92188v-.45312L5.34375-.5625c-.32812-.03125-.48437-.14062-.48437-.6875v-8.65625l-.09375-.07812-3.15625.53125v.39062l1.26562.17188c.28125.04687.375.15625.375.60937V-1.25c0 .54688-.14062.65625-.48437.6875l-1.17188.10938Zm0 0"/><path id="d" d="M.42188-.17187.59375 0H6.8125l.53125-2.09375-.4375-.07812c-.34375.78125-.60937.89062-1.20312.89062h-3.75c.23437-.70312 1.01562-1.6875 2.4375-2.64062 1.48437-1 2.54687-1.6875 2.54687-3.29688 0-2.04687-1.39062-2.76562-3.01562-2.76562-2 0-3.14063 1.15625-3.14063 2.04687 0 .53125.60938.78125.92188.78125.28124 0 .42187-.15625.48437-.4375.23438-1.03125.78125-1.84375 1.64063-1.84375 1.03125 0 1.35937.89063 1.35937 1.95313 0 1.42187-.64062 2.35937-2.01562 3.54687-1.875 1.60938-2.53125 2.67188-2.75 3.76563m0 0"/></defs><path fill="none" stroke="#000" stroke-miterlimit="10" stroke-width=".39695" d="m.19922 121.57031 63.52344-63.52344M.19922 121.57031l63.52344 63.52344M95.48828 58.04687l63.52344-31.76562"/><use xlink:href="#a" x="74.15765" y="65.30362"/><use xlink:href="#a" x="166.90054" y="33.54098"/><path fill="none" stroke="#000" stroke-miterlimit="10" stroke-width=".39695" d="m95.48828 58.04687 63.52344 31.76172"/><use xlink:href="#b" x="166.90054" y="97.06526"/><path fill="none" stroke="#000" stroke-miterlimit="10" stroke-width=".39695" d="m95.48828 185.09375 63.52344-31.76172"/><use xlink:href="#b" x="73.42054" y="192.35119"/><use xlink:href="#a" x="166.90054" y="160.58955"/><path fill="none" stroke="#000" stroke-miterlimit="10" stroke-width=".39695" d="m95.48828 185.09375 63.52344 31.76562"/><use xlink:href="#b" x="166.90054" y="224.11284"/><use xlink:href="#c" x="27.99713" y="65.08423"/><path fill="none" stroke="#000" stroke-miterlimit="10" stroke-width="1.22819" d="M27.9961 68.14453h7.92577"/><use xlink:href="#d" x="27.99713" y="81.92031"/><use xlink:href="#c" x="27.99713" y="171.20872"/><path fill="none" stroke="#000" stroke-miterlimit="10" stroke-width="1.22819" d="M27.9961 174.26953h7.92577"/><use xlink:href="#d" x="27.99713" y="188.0448"/><use xlink:href="#c" x="123.28829" y="17.44176"/><path fill="none" stroke="#000" stroke-miterlimit="10" stroke-width="1.22819" d="M123.28906 20.5h7.92578"/><use xlink:href="#d" x="123.28829" y="34.2756"/><use xlink:href="#c" x="123.28829" y="91.80361"/><path fill="none" stroke="#000" stroke-miterlimit="10" stroke-width="1.22819" d="M123.28906 94.86328h7.92578"/><use xlink:href="#d" x="123.28829" y="108.63969"/><use xlink:href="#c" x="123.28829" y="144.48933"/><path fill="none" stroke="#000" stroke-miterlimit="10" stroke-width="1.22819" d="M123.28906 147.54687h7.92578"/><use xlink:href="#d" x="123.28829" y="161.32541"/><use xlink:href="#c" x="123.28829" y="218.85119"/><path fill="none" stroke="#000" stroke-miterlimit="10" stroke-width="1.22819" d="M123.28906 221.91016h7.92578"/><use xlink:href="#d" x="123.28829" y="235.68727"/></svg>