<?xml version="1.0" encoding="UTF-8"?>
<svg xmlns="http://www.w3.org/2000/svg" xmlns:xlink="http://www.w3.org/1999/xlink" width="600pt" height="802pt" viewBox="0 0 600 802" version="1.2">
<g id="surface1">
<path style="fill-rule:nonzero;fill:rgb(10.998535%,8.628845%,9.01947%);fill-opacity:1;stroke-width:0.09375;stroke-linecap:butt;stroke-linejoin:miter;stroke:rgb(10.998535%,8.628845%,9.01947%);stroke-opacity:1;stroke-miterlimit:10;" d="M 307.019531 779.148438 C 311.949219 782.949219 319.039062 782.089844 324.199219 779.199219 C 330.910156 775.269531 335.140625 768.359375 338.519531 761.570312 C 345.03125 747.761719 348.699219 732.828125 351.898438 717.96875 C 356.351562 696.570312 359.21875 674.871094 361.359375 653.121094 C 377.28125 649.378906 392.519531 641.769531 404.011719 630 C 418.589844 615.398438 426.46875 594.589844 425.691406 574.011719 C 424.578125 546.53125 418.011719 518.539062 402.589844 495.429688 C 387.328125 472.101562 363.019531 455.699219 336.511719 447.761719 C 338.058594 434.839844 339.140625 421.058594 333.800781 408.820312 C 334.929688 405.480469 334.589844 400.96875 338.148438 399.109375 C 364.21875 381.800781 392.519531 366.960938 423.148438 359.738281 C 436.789062 356.648438 451.03125 355.289062 464.898438 357.621094 C 470.511719 358.640625 476.21875 359.890625 481.148438 362.890625 C 481.511719 371.460938 484.550781 380.210938 490.710938 386.339844 C 493.550781 389.101562 498.140625 391.429688 501.910156 389.070312 C 506.691406 385.789062 506.898438 379.320312 506.730469 374.101562 C 518.140625 377.808594 530.460938 381.378906 542.480469 378.570312 C 550.980469 376.648438 556.929688 368.460938 557.75 360.050781 C 558.371094 354.28125 554.730469 348.949219 550 345.96875 C 541.71875 340.648438 531.621094 339.371094 522 338.828125 C 509.25 338.429688 496.488281 339.988281 484.019531 342.578125 C 481.75 343 479.449219 343.828125 477.128906 343.308594 C 459.78125 340.371094 441.980469 342.441406 424.96875 346.398438 C 394.640625 353.601562 366.558594 367.898438 340.199219 384.199219 C 342.589844 374.789062 345.109375 365.410156 347.46875 355.980469 C 350.691406 346.589844 352.859375 336.878906 354.5 327.089844 C 359.710938 304.371094 365.429688 281.441406 365.53125 257.988281 C 365.769531 252.21875 364.140625 246.628906 363.328125 241 C 369.269531 179.980469 375.410156 118.980469 381.441406 57.980469 C 389.710938 62.648438 399.601562 64.839844 408.960938 62.5 C 423.71875 59.039062 435.628906 48.339844 444.480469 36.460938 C 449.148438 29.980469 453.238281 22.890625 454.96875 15.019531 C 427.449219 24.371094 400.019531 34 372.570312 43.570312 C 364.929688 102.789062 357.160156 161.988281 349.429688 221.199219 C 338.578125 208.140625 326.320312 195.609375 310.78125 188.25 C 298.429688 182.238281 283.589844 180.449219 270.621094 185.550781 C 260.960938 189.070312 253.269531 196.351562 247.230469 204.460938 C 238.960938 183.609375 240.570312 160.390625 245.421875 138.941406 C 252.140625 110.109375 264.289062 82.769531 279.070312 57.21875 C 250.160156 57.230469 221.25 57.25 192.339844 57.210938 C 198.859375 68.328125 208.308594 78.75 221.050781 82.46875 C 232.058594 85.769531 243.871094 83.058594 253.871094 77.960938 C 244.300781 98.691406 236.898438 120.519531 233.078125 143.070312 C 228.671875 169.921875 228.878906 198.429688 239.171875 223.980469 C 233.960938 244.941406 235.828125 266.859375 238.878906 288 C 240.609375 297.019531 241.460938 306.191406 243.878906 315.070312 C 245.738281 322.421875 246.960938 329.921875 249.53125 337.078125 C 253.691406 349.441406 257.410156 361.960938 261.820312 374.25 C 245.289062 362.78125 228.128906 352.011719 209.488281 344.28125 C 190.699219 336.339844 170.429688 331.148438 149.921875 331.761719 C 134.398438 326.558594 118.449219 321.738281 101.960938 321.28125 C 93.78125 321.070312 85.179688 321.699219 77.890625 325.761719 C 73.460938 328.238281 69.96875 332.761719 69.761719 337.960938 C 69.570312 346.539062 74.519531 355.578125 82.929688 358.449219 C 93.640625 362.359375 105.410156 360.859375 116.390625 358.949219 C 115.398438 362.820312 114.371094 367.46875 117.089844 370.898438 C 120 374.339844 125.148438 373.730469 128.878906 372.109375 C 137.808594 368.238281 144.738281 360.148438 147.628906 350.890625 C 148.03125 348.988281 150.351562 349.210938 151.800781 348.738281 C 173.699219 344.960938 195.878906 351.300781 215.679688 360.390625 C 234.371094 369.078125 251.640625 380.53125 267.851562 393.199219 C 270.128906 394.800781 271.269531 397.820312 270.691406 400.53125 C 269.71875 406.371094 270.601562 412.289062 272 417.980469 C 273.980469 425.871094 275.050781 434 274.929688 442.140625 C 265.210938 443.699219 255.328125 445.191406 246.25 449.191406 C 229.769531 456.378906 213.628906 465.070312 200.371094 477.371094 C 190.511719 486.449219 182.449219 497.988281 179.449219 511.210938 C 176.210938 525.269531 178.890625 540.121094 184.820312 553.101562 C 193.679688 572.660156 208.210938 588.929688 223.558594 603.648438 C 215.058594 622.441406 206.109375 641.050781 195.890625 658.980469 C 187.988281 672.640625 179.671875 686.261719 168.859375 697.851562 C 165.199219 701.460938 161.28125 705.359375 156.191406 706.75 C 153.148438 707.621094 150.710938 705.199219 148.761719 703.28125 C 139.910156 693.820312 134.371094 681.980469 127.71875 671.03125 C 129.308594 682.871094 130.941406 695 136.160156 705.898438 C 138.96875 711.691406 143.460938 717.269531 149.859375 719.148438 C 155.449219 720.789062 161.460938 719.308594 166.351562 716.378906 C 174.371094 711.640625 180.601562 704.5 186.308594 697.261719 C 205.910156 671.378906 219.949219 641.878906 233.761719 612.648438 C 243.828125 621.179688 254.339844 629.25 265.5 636.308594 C 290.71875 649.660156 319.46875 657.828125 348.179688 655.199219 C 346.089844 676.121094 343.199219 696.980469 338.808594 717.539062 C 335.898438 730.609375 332.621094 743.738281 326.921875 755.921875 C 324.671875 760.398438 322.171875 765.109375 317.878906 767.960938 C 314.980469 769.851562 311.640625 767.628906 309.441406 765.671875 C 301.160156 758.03125 296.519531 747.53125 291.308594 737.769531 C 292.328125 746.648438 293.878906 755.539062 296.890625 763.980469 C 298.921875 769.761719 302.128906 775.328125 307.019531 779.148438 M 281.738281 635.21875 C 276.359375 632.769531 270.851562 630.480469 265.988281 627.078125 C 251.851562 617.460938 238.441406 606.738281 226.089844 594.910156 C 213.140625 582.289062 201.140625 568.28125 193.179688 551.921875 C 187.339844 540 184.238281 526.21875 187.269531 513.078125 C 190.46875 499.179688 199.941406 487.628906 210.859375 478.878906 C 223.75 468.601562 238.539062 460.859375 253.851562 454.871094 C 275.789062 447.96875 299.53125 448.191406 321.960938 452.558594 C 329.699219 454.351562 337.761719 455.871094 344.578125 460.171875 C 346.050781 460.359375 347.589844 460.378906 348.960938 461.019531 C 360.03125 465.949219 370.558594 472.28125 379.449219 480.570312 C 398.808594 497.921875 410.128906 522.648438 414.769531 547.910156 C 416.679688 559.191406 418.261719 570.621094 417.578125 582.089844 C 416.070312 598.730469 408.628906 614.929688 396.269531 626.289062 C 393.351562 628.828125 390.601562 632.03125 386.640625 632.878906 C 385.441406 634.640625 383.589844 635.808594 381.78125 636.859375 C 372.269531 642.101562 361.71875 645.328125 350.980469 646.761719 C 327.378906 649.859375 303.371094 644.621094 281.738281 635.21875 M 283.171875 441.691406 C 283.089844 438.039062 282.71875 434.390625 281.851562 430.828125 C 281.960938 430.730469 282.171875 430.519531 282.269531 430.421875 L 281.949219 430.320312 C 282.398438 420.328125 276.46875 410.820312 278.859375 400.820312 C 280.378906 395.738281 286.410156 394.820312 290.960938 394.820312 C 297.019531 395.078125 303.238281 395.738281 308.941406 397.949219 C 315.269531 399.800781 321.351562 403.390625 324.820312 409.160156 C 328.359375 415.070312 329.871094 422.089844 329.71875 428.941406 C 329.648438 434.511719 329.941406 440.179688 328.390625 445.601562 C 313.589844 442.109375 298.339844 441 283.171875 441.691406 M 315.390625 391.640625 C 306.101562 387.96875 295.890625 386.101562 285.910156 387.128906 C 282.539062 387.269531 279.570312 389.769531 276.339844 389.761719 C 273.621094 382.898438 270.46875 376.058594 268.96875 368.789062 C 267.800781 368.039062 267.699219 366.300781 267.109375 365.101562 C 260.660156 345.648438 254.371094 326.070312 250.308594 305.949219 C 245.578125 283.039062 241.941406 259.441406 244.988281 236.058594 C 246.789062 223.230469 251.089844 209.878906 260.988281 200.96875 C 263.070312 199.230469 265.03125 196.96875 267.738281 196.261719 C 273.148438 191.988281 280.320312 190.761719 287.039062 190.601562 C 297.421875 190.429688 307.210938 194.800781 315.808594 200.25 C 329.851562 209.671875 340.941406 222.730469 350.671875 236.398438 C 353.160156 239.828125 355.578125 243.46875 356.390625 247.699219 C 357.898438 255.03125 357.488281 262.578125 356.988281 269.988281 C 355.03125 290.28125 350.25 310.140625 345.710938 329.96875 C 340.011719 353.179688 333.988281 376.308594 327.890625 399.421875 C 323.871094 396.589844 320.058594 393.371094 315.390625 391.640625 Z M 315.390625 391.640625 " transform="matrix(1,0,0,-1,0,802)"/>
<path style="fill-rule:nonzero;fill:rgb(43.499756%,41.19873%,42.698669%);fill-opacity:1;stroke-width:0.09375;stroke-linecap:butt;stroke-linejoin:miter;stroke:rgb(43.499756%,41.19873%,42.698669%);stroke-opacity:1;stroke-miterlimit:10;" d="M 281.738281 635.21875 C 303.371094 644.621094 327.378906 649.859375 350.980469 646.761719 C 361.71875 645.328125 372.269531 642.101562 381.78125 636.859375 C 383.589844 635.808594 385.441406 634.640625 386.640625 632.878906 C 399.820312 612.96875 404.511719 588.570312 404.078125 565 C 403.449219 534.800781 392.738281 504.308594 371.820312 482.171875 C 363.949219 473.449219 354.351562 466.578125 344.578125 460.171875 C 337.761719 455.871094 329.699219 454.351562 321.960938 452.558594 C 299.53125 448.191406 275.789062 447.96875 253.851562 454.871094 C 238.539062 460.859375 223.75 468.601562 210.859375 478.878906 C 199.941406 487.628906 190.46875 499.179688 187.269531 513.078125 C 184.238281 526.21875 187.339844 540 193.179688 551.921875 C 201.140625 568.28125 213.140625 582.289062 226.089844 594.910156 C 238.441406 606.738281 251.851562 617.460938 265.988281 627.078125 C 270.851562 630.480469 276.359375 632.769531 281.738281 635.21875 M 359.429688 580.378906 C 347.210938 577.949219 337.480469 566.539062 337.28125 554.050781 C 336.671875 543.210938 343.210938 532.5 352.96875 527.851562 C 364.410156 522.078125 379.539062 525.460938 387.25 535.738281 C 395.820312 546.21875 394.96875 562.800781 385.421875 572.378906 C 378.890625 579.328125 368.730469 582.308594 359.429688 580.378906 M 219.148438 568.820312 C 207.339844 565.988281 199.710938 552.46875 203.550781 540.898438 C 206.339844 530.980469 216.710938 523.898438 226.988281 525.160156 C 239.761719 525.910156 249.71875 539.371094 246.691406 551.800781 C 244.511719 563.960938 231.019531 572.359375 219.148438 568.820312 M 257.03125 489.851562 C 243.21875 491.191406 229.511719 493.398438 215.839844 495.75 C 221.441406 491.640625 227.941406 488.808594 233.03125 484.011719 C 242.078125 475.511719 251.460938 466.761719 263.238281 462.230469 C 283.730469 453.980469 307.609375 455.558594 327.078125 465.859375 C 343 474.050781 357.140625 486.710938 364.589844 503.230469 C 329.640625 493.78125 293.378906 486.929688 257.03125 489.851562 Z M 257.03125 489.851562 " transform="matrix(1,0,0,-1,0,802)"/>
<path style="fill-rule:nonzero;fill:rgb(23.899841%,20.399475%,22.399902%);fill-opacity:1;stroke-width:0.09375;stroke-linecap:butt;stroke-linejoin:miter;stroke:rgb(23.899841%,20.399475%,22.399902%);stroke-opacity:1;stroke-miterlimit:10;" d="M 386.640625 632.878906 C 390.601562 632.03125 393.351562 628.828125 396.269531 626.289062 C 408.628906 614.929688 416.070312 598.730469 417.578125 582.089844 C 418.261719 570.621094 416.679688 559.191406 414.769531 547.910156 C 410.128906 522.648438 398.808594 497.921875 379.449219 480.570312 C 370.558594 472.28125 360.03125 465.949219 348.960938 461.019531 C 347.589844 460.378906 346.050781 460.359375 344.578125 460.171875 C 354.351562 466.578125 363.949219 473.449219 371.820312 482.171875 C 392.738281 504.308594 403.449219 534.800781 404.078125 565 C 404.511719 588.570312 399.820312 612.96875 386.640625 632.878906 Z M 386.640625 632.878906 " transform="matrix(1,0,0,-1,0,802)"/>
<path style="fill-rule:nonzero;fill:rgb(10.998535%,8.599854%,8.999634%);fill-opacity:1;stroke-width:0.09375;stroke-linecap:butt;stroke-linejoin:miter;stroke:rgb(10.998535%,8.599854%,8.999634%);stroke-opacity:1;stroke-miterlimit:10;" d="M 359.429688 580.378906 C 368.730469 582.308594 378.890625 579.328125 385.421875 572.378906 C 394.96875 562.800781 395.820312 546.21875 387.25 535.738281 C 379.539062 525.460938 364.410156 522.078125 352.96875 527.851562 C 343.210938 532.5 336.671875 543.210938 337.28125 554.050781 C 337.480469 566.539062 347.210938 577.949219 359.429688 580.378906 M 373.371094 570.441406 C 367.289062 569.121094 364.71875 560.691406 369.230469 556.320312 C 373.378906 551.351562 382.300781 553.578125 383.738281 559.828125 C 385.769531 565.828125 379.410156 572.289062 373.371094 570.441406 Z M 373.371094 570.441406 " transform="matrix(1,0,0,-1,0,802)"/>
<path style="fill-rule:nonzero;fill:rgb(99.598694%,99.598694%,96.499634%);fill-opacity:1;stroke-width:0.09375;stroke-linecap:butt;stroke-linejoin:miter;stroke:rgb(99.598694%,99.598694%,96.499634%);stroke-opacity:1;stroke-miterlimit:10;" d="M 373.371094 570.441406 C 379.410156 572.289062 385.769531 565.828125 383.738281 559.828125 C 382.300781 553.578125 373.378906 551.351562 369.230469 556.320312 C 364.71875 560.691406 367.289062 569.121094 373.371094 570.441406 Z M 373.371094 570.441406 " transform="matrix(1,0,0,-1,0,802)"/>
<path style="fill-rule:nonzero;fill:rgb(10.998535%,8.599854%,8.999634%);fill-opacity:1;stroke-width:0.09375;stroke-linecap:butt;stroke-linejoin:miter;stroke:rgb(10.998535%,8.599854%,8.999634%);stroke-opacity:1;stroke-miterlimit:10;" d="M 219.148438 568.820312 C 231.019531 572.359375 244.511719 563.960938 246.691406 551.800781 C 249.71875 539.371094 239.761719 525.910156 226.988281 525.160156 C 216.710938 523.898438 206.339844 530.980469 203.550781 540.898438 C 199.710938 552.46875 207.339844 565.988281 219.148438 568.820312 M 226.359375 561.550781 C 220.699219 559.609375 218.949219 551.46875 223.460938 547.460938 C 227.871094 542.699219 236.949219 545.421875 237.820312 551.921875 C 239.398438 558.210938 232.289062 564.230469 226.359375 561.550781 Z M 226.359375 561.550781 " transform="matrix(1,0,0,-1,0,802)"/>
<path style="fill-rule:nonzero;fill:rgb(99.598694%,99.598694%,96.499634%);fill-opacity:1;stroke-width:0.09375;stroke-linecap:butt;stroke-linejoin:miter;stroke:rgb(99.598694%,99.598694%,96.499634%);stroke-opacity:1;stroke-miterlimit:10;" d="M 226.359375 561.550781 C 232.289062 564.230469 239.398438 558.210938 237.820312 551.921875 C 236.949219 545.421875 227.871094 542.699219 223.460938 547.460938 C 218.949219 551.46875 220.699219 559.609375 226.359375 561.550781 Z M 226.359375 561.550781 " transform="matrix(1,0,0,-1,0,802)"/>
<path style="fill-rule:nonzero;fill:rgb(10.998535%,8.599854%,8.999634%);fill-opacity:1;stroke-width:0.09375;stroke-linecap:butt;stroke-linejoin:miter;stroke:rgb(10.998535%,8.599854%,8.999634%);stroke-opacity:1;stroke-miterlimit:10;" d="M 257.03125 489.851562 C 293.378906 486.929688 329.640625 493.78125 364.589844 503.230469 C 357.140625 486.710938 343 474.050781 327.078125 465.859375 C 307.609375 455.558594 283.730469 453.980469 263.238281 462.230469 C 251.460938 466.761719 242.078125 475.511719 233.03125 484.011719 C 227.941406 488.808594 221.441406 491.640625 215.839844 495.75 C 229.511719 493.398438 243.21875 491.191406 257.03125 489.851562 M 242.050781 483.628906 C 246.140625 480.628906 250.160156 477.230469 254.890625 475.339844 C 281.210938 472.050781 308.148438 473.75 333.941406 479.910156 C 338.960938 482.289062 342.710938 486.710938 346.660156 490.511719 C 312.589844 482.300781 276.898438 478.101562 242.050781 483.628906 M 257.660156 473.671875 C 267.769531 467.960938 279.410156 465.078125 291 464.910156 C 305.371094 465.039062 319.738281 469.609375 331.480469 477.890625 C 307.519531 471.378906 282.179688 469.238281 257.660156 473.671875 Z M 257.660156 473.671875 " transform="matrix(1,0,0,-1,0,802)"/>
<path style="fill-rule:nonzero;fill:rgb(99.598694%,99.598694%,96.499634%);fill-opacity:1;stroke-width:0.09375;stroke-linecap:butt;stroke-linejoin:miter;stroke:rgb(99.598694%,99.598694%,96.499634%);stroke-opacity:1;stroke-miterlimit:10;" d="M 242.050781 483.628906 C 276.898438 478.101562 312.589844 482.300781 346.660156 490.511719 C 342.710938 486.710938 338.960938 482.289062 333.941406 479.910156 C 308.148438 473.75 281.210938 472.050781 254.890625 475.339844 C 250.160156 477.230469 246.140625 480.628906 242.050781 483.628906 Z M 242.050781 483.628906 " transform="matrix(1,0,0,-1,0,802)"/>
<path style="fill-rule:nonzero;fill:rgb(99.598694%,99.598694%,96.499634%);fill-opacity:1;stroke-width:0.09375;stroke-linecap:butt;stroke-linejoin:miter;stroke:rgb(99.598694%,99.598694%,96.499634%);stroke-opacity:1;stroke-miterlimit:10;" d="M 257.660156 473.671875 C 282.179688 469.238281 307.519531 471.378906 331.480469 477.890625 C 319.738281 469.609375 305.371094 465.039062 291 464.910156 C 279.410156 465.078125 267.769531 467.960938 257.660156 473.671875 Z M 257.660156 473.671875 " transform="matrix(1,0,0,-1,0,802)"/>
<path style="fill-rule:nonzero;fill:rgb(23.899841%,20.399475%,22.399902%);fill-opacity:1;stroke-width:0.09375;stroke-linecap:butt;stroke-linejoin:miter;stroke:rgb(23.899841%,20.399475%,22.399902%);stroke-opacity:1;stroke-miterlimit:10;" d="M 283.171875 441.691406 C 298.339844 441 313.589844 442.109375 328.390625 445.601562 C 329.941406 440.179688 329.648438 434.511719 329.71875 428.941406 C 329.871094 422.089844 328.359375 415.070312 324.820312 409.160156 C 321.351562 403.390625 315.269531 399.800781 308.941406 397.949219 C 316.828125 407.28125 317.488281 420.070312 316.550781 431.691406 C 307.199219 429.398438 297.429688 429.390625 287.988281 431.128906 C 286.019531 431.699219 284.101562 431.148438 282.269531 430.421875 C 282.171875 430.519531 281.960938 430.730469 281.851562 430.828125 C 282.71875 434.390625 283.089844 438.039062 283.171875 441.691406 Z M 283.171875 441.691406 " transform="matrix(1,0,0,-1,0,802)"/>
<path style="fill-rule:nonzero;fill:rgb(43.499756%,41.19873%,42.698669%);fill-opacity:1;stroke-width:0.09375;stroke-linecap:butt;stroke-linejoin:miter;stroke:rgb(43.499756%,41.19873%,42.698669%);stroke-opacity:1;stroke-miterlimit:10;" d="M 282.269531 430.421875 C 284.101562 431.148438 286.019531 431.699219 287.988281 431.128906 C 297.429688 429.390625 307.199219 429.398438 316.550781 431.691406 C 317.488281 420.070312 316.828125 407.28125 308.941406 397.949219 C 303.238281 395.738281 297.019531 395.078125 290.960938 394.820312 C 286.410156 394.820312 280.378906 395.738281 278.859375 400.820312 C 276.46875 410.820312 282.398438 420.328125 281.949219 430.320312 Z M 282.269531 430.421875 " transform="matrix(1,0,0,-1,0,802)"/>
<path style="fill-rule:nonzero;fill:rgb(23.899841%,20.399475%,22.399902%);fill-opacity:1;stroke-width:0.09375;stroke-linecap:butt;stroke-linejoin:miter;stroke:rgb(23.899841%,20.399475%,22.399902%);stroke-opacity:1;stroke-miterlimit:10;" d="M 315.390625 391.640625 C 320.058594 393.371094 323.871094 396.589844 327.890625 399.421875 C 333.988281 376.308594 340.011719 353.179688 345.710938 329.96875 C 350.25 310.140625 355.03125 290.28125 356.988281 269.988281 C 357.488281 262.578125 357.898438 255.03125 356.390625 247.699219 C 355.578125 243.46875 353.160156 239.828125 350.671875 236.398438 C 340.941406 222.730469 329.851562 209.671875 315.808594 200.25 C 307.210938 194.800781 297.421875 190.429688 287.039062 190.601562 C 280.320312 190.761719 273.148438 191.988281 267.738281 196.261719 C 278.71875 195.921875 290.101562 196.859375 300.050781 201.921875 C 312.269531 207.699219 320.800781 219.308594 325.171875 231.851562 C 332.390625 252.050781 332.058594 273.960938 330.441406 295.070312 C 328.730469 313.878906 325.199219 332.488281 320.878906 350.851562 C 318.859375 359.421875 313.480469 367.660156 305.058594 371 C 293.390625 375.808594 280.421875 372.710938 268.96875 368.789062 C 270.46875 376.058594 273.621094 382.898438 276.339844 389.761719 C 279.570312 389.769531 282.539062 387.269531 285.910156 387.128906 C 295.890625 386.101562 306.101562 387.96875 315.390625 391.640625 Z M 315.390625 391.640625 " transform="matrix(1,0,0,-1,0,802)"/>
<path style="fill-rule:nonzero;fill:rgb(43.499756%,41.19873%,42.698669%);fill-opacity:1;stroke-width:0.09375;stroke-linecap:butt;stroke-linejoin:miter;stroke:rgb(43.499756%,41.19873%,42.698669%);stroke-opacity:1;stroke-miterlimit:10;" d="M 268.96875 368.789062 C 280.421875 372.710938 293.390625 375.808594 305.058594 371 C 313.480469 367.660156 318.859375 359.421875 320.878906 350.851562 C 325.199219 332.488281 328.730469 313.878906 330.441406 295.070312 C 332.058594 273.960938 332.390625 252.050781 325.171875 231.851562 C 320.800781 219.308594 312.269531 207.699219 300.050781 201.921875 C 290.101562 196.859375 278.71875 195.921875 267.738281 196.261719 C 265.03125 196.96875 263.070312 199.230469 260.988281 200.96875 C 251.089844 209.878906 246.789062 223.230469 244.988281 236.058594 C 241.941406 259.441406 245.578125 283.039062 250.308594 305.949219 C 254.371094 326.070312 260.660156 345.648438 267.109375 365.101562 C 267.699219 366.300781 267.800781 368.039062 268.96875 368.789062 Z M 268.96875 368.789062 " transform="matrix(1,0,0,-1,0,802)"/>
</g>
</svg>
