<svg xmlns="http://www.w3.org/2000/svg" width="512pt" height="512pt" version="1.1" viewBox="0 0 512 512"><g id="#f1cb86ff"><path fill="#f1cb86" d="M 90.07 25.15 C 91.64 22.69 94.79 23.79 96.24 25.77 C 209.60 124.92 322.79 224.28 436.23 323.34 C 430.59 329.39 425.93 336.34 422.04 343.63 C 410.54 334.32 399.74 324.17 388.49 314.55 C 291.94 230.10 195.51 145.50 98.94 61.06 C 96.02 58.48 93.23 55.73 90.01 53.52 C 90.04 44.07 89.91 34.61 90.07 25.15 Z" opacity="1"/></g><g id="#736c76ff"><path fill="#736c76" d="M 24.55 54.55 C 27.43 51.01 33.51 51.17 36.27 54.79 C 43.79 63.94 51.28 73.11 58.75 82.31 C 61.24 85.15 61.16 89.81 58.50 92.53 C 55.73 95.69 50.29 95.75 47.45 92.65 C 44.18 88.94 41.21 84.98 38.00 81.22 C 37.97 165.38 37.97 249.55 38.00 333.72 C 41.18 329.97 44.16 326.07 47.37 322.36 C 50.18 319.16 55.68 319.22 58.49 322.39 C 61.19 325.12 61.23 329.82 58.71 332.68 C 51.23 341.87 43.75 351.05 36.22 360.20 C 33.46 363.75 27.48 363.88 24.59 360.43 C 17.04 351.31 9.61 342.10 2.09 332.95 C 1.01 331.75 0.41 330.26 0.00 328.72 L 0.00 326.57 C 0.73 320.96 8.03 317.87 12.40 321.59 C 16.10 325.36 19.13 329.74 22.60 333.73 C 22.60 249.55 22.63 165.37 22.59 81.19 C 19.14 85.21 16.09 89.59 12.36 93.36 C 8.01 96.99 0.92 94.02 0.00 88.54 L 0.00 86.28 C 0.37 84.70 1.01 83.18 2.11 81.96 C 9.61 72.84 17.02 63.65 24.55 54.55 Z" opacity="1"/><path fill="#736c76" d="M 240.73 64.94 C 239.98 60.34 244.34 55.77 248.98 56.33 C 261.01 57.21 273.04 58.04 285.05 59.02 C 289.44 59.48 292.66 64.29 291.41 68.53 C 290.60 71.84 287.37 74.33 283.96 74.28 C 279.08 74.00 274.20 73.57 269.32 73.23 C 340.32 140.54 411.32 207.86 482.36 275.13 C 481.79 270.08 480.94 265.05 480.52 259.98 C 480.45 255.27 485.43 251.40 489.97 252.69 C 493.30 253.39 495.73 256.55 495.92 259.90 C 497.38 271.59 498.95 283.27 500.38 294.97 C 500.87 299.53 496.58 303.82 492.00 303.25 C 480.02 302.35 468.03 301.53 456.05 300.57 C 451.67 300.08 448.40 295.33 449.66 291.07 C 450.43 287.79 453.61 285.26 456.99 285.31 C 461.92 285.53 466.83 286.02 471.76 286.34 C 400.78 219.00 329.76 151.70 258.72 84.42 C 259.28 89.30 260.03 94.16 260.53 99.05 C 260.84 102.86 257.80 106.50 254.04 107.01 C 249.81 107.80 245.53 104.37 245.22 100.12 C 243.73 88.39 242.19 76.67 240.73 64.94 Z" opacity="1"/><path fill="#736c76" d="M 422.04 343.63 C 425.93 336.34 430.59 329.39 436.23 323.34 C 461.56 345.32 486.76 367.50 512.00 389.62 L 512.00 393.23 C 511.55 393.52 510.65 394.09 510.20 394.38 C 502.15 395.08 494.05 394.48 485.98 394.69 C 460.51 393.97 435.01 394.73 409.54 394.25 C 409.34 376.65 414.11 359.26 422.04 343.63 Z" opacity="1"/><path fill="#736c76" d="M 158.17 429.19 C 161.05 426.86 165.63 427.16 168.19 429.83 C 171.30 432.71 171.19 438.16 167.99 440.93 C 164.36 444.12 160.47 446.99 156.85 450.19 C 254.65 450.19 352.45 450.21 450.24 450.18 C 446.38 446.93 442.37 443.86 438.58 440.54 C 435.48 437.46 435.93 431.91 439.37 429.28 C 442.22 426.92 446.68 427.13 449.38 429.63 C 458.57 437.14 467.79 444.60 476.93 452.16 C 480.37 455.06 480.30 460.98 476.77 463.79 C 467.62 471.31 458.43 478.78 449.26 486.27 C 446.23 489.04 441.06 488.73 438.42 485.59 C 435.66 482.64 435.91 477.54 438.95 474.89 C 442.68 471.75 446.52 468.76 450.24 465.60 C 352.42 465.60 254.60 465.62 156.77 465.59 C 160.47 468.76 164.36 471.69 168.02 474.90 C 171.06 477.55 171.29 482.66 168.54 485.61 C 165.87 488.73 160.72 489.04 157.69 486.26 C 148.52 478.75 139.33 471.27 130.17 463.74 C 126.64 460.95 126.61 454.91 130.13 452.10 C 139.46 444.45 148.79 436.79 158.17 429.19 Z" opacity="1"/></g><g id="#f4d8a5ff"><path fill="#f4d8a5" d="M 90.01 53.52 C 93.23 55.73 96.02 58.48 98.94 61.06 C 195.51 145.50 291.94 230.10 388.49 314.55 C 399.74 324.17 410.54 334.32 422.04 343.63 C 414.11 359.26 409.34 376.65 409.54 394.25 C 435.01 394.73 460.51 393.97 485.98 394.69 C 494.05 394.48 502.15 395.08 510.20 394.38 L 509.51 394.78 C 501.66 394.97 493.81 394.80 485.96 394.86 C 462.99 394.41 439.99 394.74 417.00 394.64 C 392.69 394.15 368.33 394.51 344.00 394.40 C 281.29 394.50 218.54 394.20 155.85 394.55 C 156.33 375.04 155.93 355.50 156.06 335.98 C 156.84 328.80 150.08 322.55 142.99 323.59 C 125.33 323.65 107.67 323.53 90.01 323.65 C 90.01 233.60 90.02 143.56 90.01 53.52 Z" opacity="1"/></g><g id="#e28086ff"><path fill="#e28086" d="M 90.01 323.65 C 107.67 323.53 125.33 323.65 142.99 323.59 C 150.08 322.55 156.84 328.80 156.06 335.98 C 155.93 355.50 156.33 375.04 155.85 394.55 C 135.92 394.83 115.95 394.58 96.00 394.68 C 93.49 394.81 91.02 393.41 90.04 391.07 C 89.96 368.59 90.01 346.12 90.01 323.65 Z" opacity="1"/></g></svg>