<?xml version="1.0" encoding="iso-8859-1"?>
<!-- Generator: Adobe Illustrator 19.0.0, SVG Export Plug-In . SVG Version: 6.00 Build 0)  -->
<svg version="1.1" id="Capa_1" xmlns="http://www.w3.org/2000/svg" xmlns:xlink="http://www.w3.org/1999/xlink" x="0px" y="0px"
	 viewBox="0 0 512 512" style="enable-background:new 0 0 512 512;" xml:space="preserve">
<g>
	<rect x="48.333" y="142.217" style="fill:#f0f7ff;" width="415.338" height="31.214"/>
	<rect x="48.333" y="238.364" style="fill:#f0f7ff;" width="415.338" height="31.214"/>
	<rect x="48.333" y="334.511" style="fill:#f0f7ff;" width="415.338" height="31.214"/>
</g>
<circle style="fill:#e2a2ac;" cx="297.609" cy="157.824" r="37.107"/>
<path style="fill:#e28086;" d="M307.915,174.325c-20.492,0-37.105-16.613-37.105-37.105c0-1.857,0.14-3.68,0.404-5.464
	c-6.617,6.701-10.706,15.905-10.706,26.068c0,20.492,16.613,37.105,37.105,37.105c18.636,0,34.059-13.74,36.701-31.642
	C327.587,170.099,318.247,174.325,307.915,174.325z"/>
<circle style="fill:#707dd3;" cx="371.823" cy="157.824" r="37.107"/>
<path style="fill:#5766cb;" d="M382.126,174.325c-20.492,0-37.105-16.613-37.105-37.105c0-1.857,0.14-3.68,0.404-5.464
	c-6.617,6.701-10.706,15.905-10.706,26.068c0,20.492,16.613,37.105,37.105,37.105c18.636,0,34.059-13.74,36.701-31.642
	C401.798,170.099,392.457,174.325,382.126,174.325z"/>
<circle style="fill:#f4d8a5;" cx="223.405" cy="157.824" r="37.107"/>
<path style="fill:#f1cb86;" d="M233.705,174.325c-20.492,0-37.105-16.613-37.105-37.105c0-1.856,0.14-3.68,0.404-5.464
	c-6.617,6.701-10.706,15.905-10.706,26.068c0,20.492,16.613,37.105,37.105,37.105c18.636,0,34.059-13.74,36.701-31.642
	C253.377,170.099,244.035,174.325,233.705,174.325z"/>
<circle style="fill:#f4d8a5;" cx="297.609" cy="350.108" r="37.107"/>
<path style="fill:#f1cb86;" d="M307.915,366.613c-20.492,0-37.105-16.613-37.105-37.106c0-1.856,0.14-3.68,0.404-5.463
	c-6.617,6.701-10.706,15.905-10.706,26.067c0,20.493,16.613,37.106,37.105,37.106c18.636,0,34.059-13.741,36.701-31.642
	C327.587,362.387,318.247,366.613,307.915,366.613z"/>
<circle style="fill:#e28086;" cx="371.823" cy="350.108" r="37.107"/>
<path style="fill:#dd636e;" d="M382.126,366.613c-20.492,0-37.105-16.613-37.105-37.106c0-1.856,0.14-3.68,0.404-5.463
	c-6.617,6.701-10.706,15.905-10.706,26.067c0,20.493,16.613,37.106,37.105,37.106c18.636,0,34.059-13.741,36.701-31.642
	C401.798,362.387,392.457,366.613,382.126,366.613z"/>
<circle style="fill:#707dd3;" cx="223.405" cy="350.108" r="37.107"/>
<path style="fill:#5766cb;" d="M233.705,366.613c-20.492,0-37.105-16.613-37.105-37.106c0-1.856,0.14-3.68,0.404-5.463
	c-6.617,6.701-10.706,15.905-10.706,26.067c0,20.493,16.613,37.106,37.105,37.106c18.636,0,34.059-13.741,36.701-31.642
	C253.377,362.387,244.035,366.613,233.705,366.613z"/>
<circle style="fill:#8993da;" cx="254.96" cy="253.971" r="37.107"/>
<path style="fill:#707dd3;" d="M265.261,270.469c-20.492,0-37.105-16.613-37.105-37.106c0-1.856,0.14-3.68,0.404-5.463
	c-6.617,6.701-10.706,15.905-10.706,26.067c0,20.493,16.613,37.106,37.105,37.106c18.636,0,34.059-13.741,36.701-31.642
	C284.934,266.244,275.592,270.469,265.261,270.469z"/>
<circle style="fill:#f1cb86;" cx="329.174" cy="253.971" r="37.107"/>
<path style="fill:#ecbe6b;" d="M339.472,270.469c-20.492,0-37.105-16.613-37.105-37.106c0-1.856,0.14-3.68,0.404-5.463
	c-6.617,6.701-10.706,15.905-10.706,26.067c0,20.493,16.613,37.106,37.105,37.106c18.636,0,34.059-13.741,36.701-31.642
	C359.145,266.244,349.803,270.469,339.472,270.469z"/>
<circle style="fill:#e28086;" cx="180.745" cy="253.971" r="37.107"/>
<path style="fill:#dd636e;" d="M191.051,270.469c-20.492,0-37.105-16.613-37.105-37.106c0-1.856,0.14-3.68,0.404-5.463
	c-6.617,6.701-10.706,15.905-10.706,26.067c0,20.493,16.613,37.106,37.105,37.106c18.636,0,34.059-13.741,36.701-31.642
	C210.724,266.244,201.382,270.469,191.051,270.469z"/>
<path style="fill:#596c76;" d="M449.762,25.432H62.238c-18.628,0-33.729,15.1-33.729,33.729V457.44h47.512V106.673
	c0-18.628,15.1-33.729,33.729-33.729H402.25c18.628,0,33.729,15.1,33.729,33.729V457.44h47.512V59.161
	C483.491,40.533,468.389,25.432,449.762,25.432z"/>
<g>
	<rect x="28.509" y="395.322" style="fill:#3b4a51;" width="47.512" height="62.12"/>
	<polygon style="fill:#3b4a51;" points="483.491,395.324 483.49,395.324 435.978,395.324 435.978,457.44 483.491,457.44 	"/>
</g>
<path style="fill:#dfe7f4;" d="M483.491,426.23H28.509C12.764,426.23,0,438.994,0,454.739v31.83h512v-31.83
	C512,438.994,499.236,426.23,483.491,426.23z"/>
</svg>
