<svg height="512pt" viewBox="0 0 512 512" width="512pt" xmlns="http://www.w3.org/2000/svg"><path d="m0 405.855469v-395.449219c0-5.746094 4.660156-10.40625 10.40625-10.40625h320.519531c5.75 0 10.410157 4.660156 10.410157 10.40625v405.855469h-330.929688c-5.746094 0-10.40625-4.660157-10.40625-10.40625zm0 0" fill="#f0f7ff"/><path d="m318.4375 0v96.78125h-69.722656c-21.839844 0-39.542969 17.703125-39.542969 39.542969v259.121093h-209.171875v10.410157c0 5.746093 4.660156 10.40625 10.40625 10.40625h330.929688v-405.855469c-.003907-5.746094-4.660157-10.40625-10.410157-10.40625zm0 0" fill="#dfe7f4"/><path d="m491.1875 512h-242.472656c-11.496094 0-20.8125-9.316406-20.8125-20.8125v-354.863281c0-11.496094 9.316406-20.8125 20.8125-20.8125h242.472656c11.496094 0 20.8125 9.316406 20.8125 20.8125v354.863281c0 11.496094-9.316406 20.8125-20.8125 20.8125zm0 0" fill="#8993da"/><path d="m494.988281 115.875c.226563 1.234375.363281 2.5.363281 3.800781v365.265625c0 5.75-4.660156 10.40625-10.40625 10.40625h-252.878906c-1.300781 0-2.566406-.132812-3.800781-.363281 1.789063 9.679687 10.253906 17.015625 20.449219 17.015625h242.472656c11.496094 0 20.8125-9.320312 20.8125-20.8125v-354.863281c0-10.195313-7.335938-18.660157-17.011719-20.449219zm0 0" fill="#707dd3"/><path d="m260.164062 217.496094v-56.195313c0-5.746093 4.65625-10.40625 10.40625-10.40625h198.761719c5.746094 0 10.40625 4.660157 10.40625 10.40625v56.195313c0 5.746094-4.660156 10.40625-10.40625 10.40625h-198.761719c-5.75 0-10.40625-4.660156-10.40625-10.40625zm0 0" fill="#f4d8a5"/><path d="m464.128906 150.894531v49.949219c0 5.75-4.65625 10.40625-10.40625 10.40625h-193.558594v6.246094c0 5.746094 4.65625 10.40625 10.40625 10.40625h198.761719c5.746094 0 10.40625-4.660156 10.40625-10.40625v-56.195313c0-5.746093-4.660156-10.40625-10.40625-10.40625zm0 0" fill="#f1cb86"/><path d="m260.164062 343.414062v-72.84375c0-5.75 4.65625-10.40625 10.40625-10.40625h72.84375c5.746094 0 10.40625 4.65625 10.40625 10.40625v72.84375c0 5.746094-4.660156 10.40625-10.40625 10.40625h-72.84375c-5.75 0-10.40625-4.660156-10.40625-10.40625zm0 0" fill="#f0f7ff"/><path d="m338.210938 260.164062v66.601563c0 5.746094-4.660157 10.40625-10.40625 10.40625h-67.644532v6.242187c0 5.75 4.660156 10.40625 10.40625 10.40625h72.847656c5.746094 0 10.40625-4.65625 10.40625-10.40625v-72.84375c0-5.746093-4.660156-10.40625-10.40625-10.40625zm0 0" fill="#dfe7f4"/><path d="m386.082031 343.414062v-72.84375c0-5.75 4.65625-10.40625 10.40625-10.40625h72.84375c5.746094 0 10.40625 4.65625 10.40625 10.40625v72.84375c0 5.746094-4.660156 10.40625-10.40625 10.40625h-72.84375c-5.75 0-10.40625-4.660156-10.40625-10.40625zm0 0" fill="#f0f7ff"/><path d="m464.128906 260.164062v66.601563c0 5.746094-4.65625 10.40625-10.40625 10.40625h-67.640625v6.242187c0 5.75 4.65625 10.40625 10.40625 10.40625h72.84375c5.746094 0 10.40625-4.65625 10.40625-10.40625v-72.84375c0-5.746093-4.660156-10.40625-10.40625-10.40625zm0 0" fill="#dfe7f4"/><path d="m260.164062 469.332031v-72.84375c0-5.75 4.65625-10.40625 10.40625-10.40625h72.84375c5.746094 0 10.40625 4.65625 10.40625 10.40625v72.84375c0 5.746094-4.660156 10.40625-10.40625 10.40625h-72.84375c-5.75 0-10.40625-4.65625-10.40625-10.40625zm0 0" fill="#f0f7ff"/><path d="m338.210938 386.082031v66.601563c0 5.746094-4.660157 10.40625-10.40625 10.40625h-67.644532v6.242187c0 5.746094 4.660156 10.40625 10.40625 10.40625h72.847656c5.746094 0 10.40625-4.660156 10.40625-10.40625v-72.84375c0-5.75-4.660156-10.40625-10.40625-10.40625zm0 0" fill="#dfe7f4"/><path d="m386.082031 469.332031v-72.84375c0-5.75 4.65625-10.40625 10.40625-10.40625h72.84375c5.746094 0 10.40625 4.65625 10.40625 10.40625v72.84375c0 5.746094-4.660156 10.40625-10.40625 10.40625h-72.84375c-5.75 0-10.40625-4.65625-10.40625-10.40625zm0 0" fill="#e28086"/><path d="m464.128906 386.082031v66.601563c0 5.746094-4.65625 10.40625-10.40625 10.40625h-67.640625v6.242187c0 5.746094 4.65625 10.40625 10.40625 10.40625h72.84375c5.746094 0 10.40625-4.660156 10.40625-10.40625v-72.84375c0-5.75-4.660156-10.40625-10.40625-10.40625zm0 0" fill="#dd636e"/><g fill="#596c76"><path d="m68.050781 151.414062c-.144531 0-.285156-.003906-.429687-.011718-3.121094-.171875-5.839844-2.1875-6.910156-5.128906l-17.488282-48.1875c-.621094-1.0625-1.777344-1.738282-3.023437-1.738282h-11.0625c-4.308594 0-7.804688-3.492187-7.804688-7.804687s3.496094-7.804688 7.804688-7.804688h11.0625c7.304687 0 14.066406 4.253907 17.226562 10.839844.109375.230469.210938.46875.296875.710937l11.417969 31.449219 44.011719-89.328125c.058594-.113281.117187-.226562.179687-.339844 3.367188-6.0625 9.765625-9.832031 16.703125-9.832031h100.988282c4.3125 0 7.804687 3.496094 7.804687 7.804688 0 4.3125-3.492187 7.804687-7.804687 7.804687h-100.988282c-1.222656 0-2.355468.640625-2.988281 1.683594l-51.996094 105.527344c-1.320312 2.675781-4.039062 4.355468-7 4.355468zm0 0"/><path d="m183.785156 91.359375 20.496094-20.496094c3.050781-3.046875 3.050781-7.988281 0-11.039062-3.046875-3.046875-7.988281-3.046875-11.035156 0l-20.5 20.496093-20.496094-20.496093c-3.046875-3.046875-7.988281-3.046875-11.035156 0-3.050782 3.050781-3.050782 7.992187 0 11.039062l20.496094 20.496094-20.496094 20.5c-3.050782 3.046875-3.050782 7.988281 0 11.039063 1.523437 1.523437 3.519531 2.285156 5.515625 2.285156 2 0 3.996093-.761719 5.519531-2.285156l20.496094-20.5 20.5 20.5c1.523437 1.523437 3.519531 2.285156 5.519531 2.285156 1.996094 0 3.992187-.761719 5.515625-2.285156 3.050781-3.050782 3.050781-7.992188 0-11.039063zm0 0"/><path d="m188.359375 203.445312h-159.222656c-4.308594 0-7.804688-3.492187-7.804688-7.804687 0-4.308594 3.496094-7.804687 7.804688-7.804687h159.222656c4.308594 0 7.804687 3.496093 7.804687 7.804687 0 4.3125-3.496093 7.804687-7.804687 7.804687zm0 0"/><path d="m188.359375 245.074219h-159.222656c-4.308594 0-7.804688-3.496094-7.804688-7.804688 0-4.3125 3.496094-7.804687 7.804688-7.804687h159.222656c4.308594 0 7.804687 3.492187 7.804687 7.804687 0 4.308594-3.496093 7.804688-7.804687 7.804688zm0 0"/><path d="m188.359375 286.699219h-159.222656c-4.308594 0-7.804688-3.496094-7.804688-7.804688 0-4.3125 3.496094-7.804687 7.804688-7.804687h159.222656c4.308594 0 7.804687 3.492187 7.804687 7.804687 0 4.308594-3.496093 7.804688-7.804687 7.804688zm0 0"/><path d="m125.917969 328.324219h-96.777344c-4.3125 0-7.804687-3.492188-7.804687-7.804688 0-4.308593 3.492187-7.804687 7.804687-7.804687h96.777344c4.3125 0 7.804687 3.496094 7.804687 7.804687 0 4.3125-3.492187 7.804688-7.804687 7.804688zm0 0"/><path d="m327.285156 299.1875h-12.488281v-12.488281c0-4.3125-3.492187-7.804688-7.804687-7.804688-4.308594 0-7.804688 3.492188-7.804688 7.804688v12.488281h-12.488281c-4.308594 0-7.804688 3.492188-7.804688 7.804688s3.492188 7.804687 7.804688 7.804687h12.488281v12.488281c0 4.3125 3.492188 7.804688 7.804688 7.804688 4.308593 0 7.804687-3.492188 7.804687-7.804688v-12.488281h12.488281c4.308594 0 7.804688-3.492187 7.804688-7.804687s-3.496094-7.804688-7.804688-7.804688zm0 0"/><path d="m453.203125 453.722656h-40.585937c-4.308594 0-7.804688-3.492187-7.804688-7.804687 0-4.308594 3.496094-7.804688 7.804688-7.804688h40.585937c4.308594 0 7.804687 3.496094 7.804687 7.804688 0 4.3125-3.492187 7.804687-7.804687 7.804687zm0 0"/><path d="m453.203125 427.707031h-40.585937c-4.308594 0-7.804688-3.492187-7.804688-7.804687s3.496094-7.804688 7.804688-7.804688h40.585937c4.308594 0 7.804687 3.492188 7.804687 7.804688s-3.492187 7.804687-7.804687 7.804687zm0 0"/><path d="m443.945312 306.992188 8.832032-8.832032c3.046875-3.046875 3.046875-7.988281 0-11.039062-3.046875-3.046875-7.988282-3.046875-11.039063.003906l-8.828125 8.828125-8.832031-8.828125c-3.046875-3.050781-7.988281-3.050781-11.035156-.003906-3.050781 3.050781-3.050781 7.992187 0 11.039062l8.828125 8.832032-8.828125 8.832031c-3.050781 3.046875-3.050781 7.988281 0 11.035156 1.523437 1.523437 3.519531 2.289063 5.519531 2.289063 1.996094 0 3.992188-.761719 5.515625-2.289063l8.832031-8.832031 8.828125 8.832031c1.527344 1.523437 3.523438 2.289063 5.519531 2.289063 2 0 3.996094-.761719 5.519532-2.289063 3.046875-3.046875 3.046875-7.988281 0-11.035156zm0 0"/><path d="m327.285156 440.714844h-40.585937c-4.308594 0-7.804688-3.492188-7.804688-7.804688s3.496094-7.804687 7.804688-7.804687h40.585937c4.308594 0 7.804688 3.492187 7.804688 7.804687s-3.496094 7.804688-7.804688 7.804688zm0 0"/><path d="m317.398438 410.015625c0 5.746094-4.660157 10.40625-10.40625 10.40625-5.746094 0-10.40625-4.660156-10.40625-10.40625s4.660156-10.40625 10.40625-10.40625c5.746093 0 10.40625 4.660156 10.40625 10.40625zm0 0"/><path d="m317.398438 455.804688c0 5.746093-4.660157 10.40625-10.40625 10.40625-5.746094 0-10.40625-4.660157-10.40625-10.40625 0-5.746094 4.660156-10.40625 10.40625-10.40625 5.746093 0 10.40625 4.660156 10.40625 10.40625zm0 0"/></g></svg>
