<svg xmlns="http://www.w3.org/2000/svg" xmlns:xlink="http://www.w3.org/1999/xlink" width="186.997pt" height="124.345pt" viewBox="0 0 186.997 124.345"><defs><path id="a" d="M.45313 0h10.71875l1.0625-3.67187h-.625c-1.0625 2.57812-2.01563 2.9375-4.39063 2.9375-2.14062 0-2.60937-.20313-2.60937-.875 0-.21876.07812-.53125.15625-.95313L7.10938-12.75c.1875-.6875.35937-1 .89062-1.04687l1.25-.09375.15625-.60938H3.5625l-.15625.60938 1.25.09375c.35938.01562.51563.20312.51563.54687 0 .14063-.01563.29688-.0625.5L2.59375-1.73437c-.1875.73437-.35937.95312-.875 1l-1.15625.125Zm0 0"/><path id="b" d="M-.40625 0h4.73438l.125-.60937-1.15625-.10938c-.26563-.01562-.375-.15625-.375-.34375 0-.125.04687-.28125.10937-.4375.6875-1.32812 1.35938-2.6875 2.14063-4.09375H9.875l.51563 4.32813s-.10938.5-.5625.54687l-1.10938.10938L8.60938 0H13.75l.14063-.60937-.79688-.0625c-.65625-.0625-.73437-.35938-.85937-1.21875L10.70313-14.5h-1.5L5.6875-8.3125C4.60938-6.4375 2.875-3.32812 2.09375-2.07812 1.42188-.98437 1.0625-.76562.42188-.6875l-.6875.07813Zm6-6.40625 3.42188-6.14062.75 6.14062Zm0 0"/><path id="c" d="M1.09375-5.75c0 2.76563 1.35938 6.0625 6.54688 6.0625 1.5 0 2.92187-.20312 4.26562-.875l1.03125-3.34375h-.625C11.15625-1.8125 10.09375-.42187 7.51563-.42187c-2.4375 0-4.17188-1.5625-4.17188-4.79688 0-1.89062.48438-4.21875 1.5-5.89062 1.04688-1.75 2.6875-2.98438 4.9375-2.98438 2.65625 0 3.42188 1.23438 3.42188 3.53125h.64062l.76563-3.15625c-1.20313-.75-3.17188-1.10937-4.64063-1.10937-3.95312 0-6.21875 1.84375-7.45312 3.8125-1.15625 1.875-1.42188 3.8125-1.42188 5.26562m0 0"/></defs><path fill="none" stroke="#000" stroke-miterlimit="10" stroke-width=".39641" d="m93.6289 29.79688-63.4492 63.4453h126.89453Zm0 0"/><use xlink:href="#a" x="101.49737" y="21.9265"/><use xlink:href="#b" x="7.92029" y="115.61499"/><use xlink:href="#c" x="164.93619" y="115.94923"/></svg>