<svg xmlns="http://www.w3.org/2000/svg" xmlns:xlink="http://www.w3.org/1999/xlink" width="381.072" height="148.242" viewBox="0 0 381.072 148.242"><defs><path id="a" d="m3.03125-2.28125.875.875 3.625-3.65625 3.65625 3.65625.85938-.875-3.64063-3.625 3.64063-3.65625-.85938-.84375-3.65625 3.625-3.625-3.625-.875.84375L6.6875-5.90625Zm0 0"/><path id="b" d="M1.71875-3.59375C1.71875-.76562 3.79688.3125 6.82813.3125c2.84375 0 5.45312-.60937 6.60937-5.48437L15.23438-12.75c.17187-.71875.34375-1 .89062-1.04687l1.15625-.09375.125-.60938H11.6875l-.15625.60938 1.21875.09375c.35938.01562.53125.20312.53125.57812 0 .125-.01562.28125-.0625.46875l-1.6875 7.3125C10.875-2.65625 9.85938-.42187 6.9375-.42187c-1.85937 0-3.14062-.79688-3.14062-3.125 0-.57813.07812-1.29688.26562-2.09375L5.73438-12.75c.17187-.71875.32812-1 .85937-1.04687l1.17188-.09375.125-.60938H2.15625L2-13.89062l1.25.09375c.35938.01562.51563.20312.51563.54687 0 .14063-.01563.29688-.0625.5L1.9375-5.375c-.15625.67188-.21875 1.25-.21875 1.78125m0 0"/><path id="c" d="M0 0h5.73438l.125-.60937-1.25-.10938c-.34375-.01562-.53125-.17187-.53125-.5 0-.14062.04687-.3125.09375-.51562L5.3125-6.82812h1.26563c2.03125 0 2.3125.5 2.3125 2.95312 0 2.53125 0 3.875 2.21875 3.875h1.625l.20312-.60937c-1.48437-.1875-1.98437-.26563-1.98437-2.95313 0-2.14062-.1875-3.0625-1.92188-3.64062 2.5625-.35938 4.29688-1.84375 4.29688-3.92188 0-1.5-.64063-3.375-4.5625-3.375H3.125l-.15625.60938 1.25.09375c.35938.01562.51563.20312.51563.54687 0 .14063-.03125.29688-.07813.5L2.14063-1.73437c-.17188.73437-.35938.95312-.875 1l-1.15625.125Zm5.48438-7.5625 1.23437-5.42187c.15625-.59375.21875-.79688 1.79688-.79688 1.35937 0 2.64062.60938 2.64062 2.4375 0 2.48438-1.64062 3.78125-4.32812 3.78125Zm0 0"/><path id="d" d="M.45313 0h10.71875l1.0625-3.67187h-.625c-1.0625 2.57812-2.01563 2.9375-4.39063 2.9375-2.14062 0-2.60937-.20313-2.60937-.875 0-.21876.07812-.53125.15625-.95313L7.10938-12.75c.1875-.6875.35937-1 .89062-1.04687l1.25-.09375.15625-.60938H3.5625l-.15625.60938 1.25.09375c.35938.01562.51563.20312.51563.54687 0 .14063-.01563.29688-.0625.5L2.59375-1.73437c-.1875.73437-.35937.95312-.875 1l-1.15625.125Zm0 0"/></defs><path fill="none" stroke="#000" stroke-miterlimit="10" stroke-width=".39647" d="M32.63672 117.36719h317.27742L220.4649 29.79685Zm0 0"/><use xlink:href="#a" x="25.09793" y="122.57425"/><use xlink:href="#b" x="7.94066" y="139.74246"/><use xlink:href="#a" x="342.33879" y="122.57425"/><use xlink:href="#c" x="357.75596" y="139.74246"/><use xlink:href="#a" x="212.90462" y="35.01595"/><use xlink:href="#d" x="214.15423" y="21.92887"/></svg>