<svg xmlns="http://www.w3.org/2000/svg" width="315.054pt" height="170.254pt" viewBox="0 0 315.054 170.254"><defs><clipPath id="a"><path d="M.21484 0H125v125H.21484Zm0 0"/></clipPath><clipPath id="b"><path d="M187 21h126.89453v138H187Zm0 0"/></clipPath><clipPath id="c"><path d="M106 26h157v143.51172H106Zm0 0"/></clipPath></defs><path fill="none" stroke="#000" stroke-miterlimit="10" stroke-width=".39676" d="m31.45313 101.4375 16.78514-62.64841 51.18358-3.07031Zm0 0"/><g clip-path="url(#a)"><path fill="none" stroke="red" stroke-miterlimit="10" stroke-width=".79354" d="M106.52731 34.26565C91.96091 9.0391 59.70702.39457 34.48047 14.96097 9.25392 29.52347.61329 61.77737 15.17579 87.00391s46.8203 33.87108 72.04684 19.30468c25.22265-14.5625 33.86718-46.81638 19.30468-72.04294Zm0 0"/></g><path fill="none" stroke="#000" stroke-miterlimit="10" stroke-width=".39676" d="m214.89836 124.36718 68.79294-68.79294 22.92968 45.86326Zm0 0"/><g clip-path="url(#b)"><path fill="none" stroke="#000" stroke-miterlimit="10" stroke-width=".79354" d="M313.50379 89.97266c0-31.66014-25.66796-57.3281-57.3281-57.3281-31.66015 0-57.3281 25.66796-57.3281 57.3281s25.66795 57.3281 57.3281 57.3281 57.3281-25.66796 57.3281-57.3281Zm0 0"/></g><path fill="none" stroke="#000" stroke-miterlimit="10" stroke-width=".39676" d="m121.79293 116.52734-39.11326-6.89844 13.58202 37.3203Zm0 0"/><path fill="none" stroke="#0F0" stroke-miterlimit="10" stroke-width=".79354" d="M127.76168 124.36718c0-15.1953-12.32031-27.51562-27.51561-27.51562-15.19922 0-27.51953 12.32031-27.51953 27.51562 0 15.19921 12.32031 27.51952 27.51953 27.51952 15.1953 0 27.5156-12.32031 27.5156-27.51952Zm0 0"/><path fill="none" stroke="#000" stroke-miterlimit="10" stroke-width=".39676" d="m146.10542 124.36718 45.86326-79.43356 13.71484 113.83198Zm0 0"/><g clip-path="url(#c)"><path fill="none" stroke="#00F" stroke-miterlimit="10" stroke-width=".79354" d="M241.89835 137.30858c18.36327-31.80468 7.46874-72.47653-24.33984-90.8398-31.80467-18.36328-72.47653-7.46485-90.8398 24.34373-18.36327 31.80468-7.46484 72.47263 24.34374 90.8359 31.80467 18.36327 72.47262 7.46484 90.8359-24.33983Zm0 0"/></g></svg>