<svg xmlns="http://www.w3.org/2000/svg" xmlns:xlink="http://www.w3.org/1999/xlink" width="181.392pt" height="71.855pt" viewBox="0 0 181.392 71.855"><defs><path id="a" d="M-.23437 0H2.5l.07813-.34375-.67188-.0625C1.75-.42187 1.6875-.5 1.6875-.625c0-.0625.03125-.15625.0625-.23437.40625-.78125.79688-1.5625 1.25-2.375h2.71875l.29688 2.5s-.0625.29687-.32813.32812l-.64062.0625L4.98438 0h2.98437l.07813-.34375-.46875-.04687c-.375-.03125-.42188-.20313-.5-.70313L6.1875-8.39062h-.85937L3.29688-4.8125c-.625 1.07813-1.625 2.89063-2.07813 3.60938C.82813-.5625.625-.4375.25-.40625l-.40625.0625Zm3.46875-3.70312 1.98437-3.5625.4375 3.5625Zm0 0"/><path id="b" d="M0 0h3.67188c2.9375 0 3.53125-1.51562 3.53125-2.51562 0-1.28125-.9375-1.82813-1.82813-2v-.03125C7-4.73437 7.67188-5.65625 7.67188-6.5625c0-.98437-.57813-1.82812-2.8125-1.82812h-3.0625l-.07813.34375.71875.07812c.20313 0 .29688.09375.29688.29688 0 .0625-.03125.17187-.04688.29687L1.25-1c-.09375.39063-.20312.53125-.5.57813l-.6875.07812Zm2.42188-.92187q0-.14063.04687-.28126l.6875-3.10937h.48438c1.20312 0 2.25.34375 2.25 1.73438 0 1.07812-.65625 2.15625-2.28125 2.15625-.95313 0-1.1875-.20313-1.1875-.5M3.25-4.73437l.64063-2.8125c.07812-.35938.15625-.42188.96875-.42188 1.01562 0 1.57812.51563 1.57812 1.35938 0 1.26562-1.0625 1.875-2.39062 1.875Zm0 0"/><path id="c" d="M.625-3.32812C.625-1.73437 1.42188.1875 4.42188.1875c.875 0 1.70312-.125 2.46875-.51562l.59375-1.9375H7.125C6.45313-1.04687 5.84375-.25 4.34375-.25 2.9375-.25 1.9375-1.15625 1.9375-3.01562c0-1.09375.28125-2.4375.85938-3.40625.60937-1.03125 1.5625-1.73438 2.875-1.73438 1.53125 0 1.96875.70313 1.96875 2.03125h.375l.4375-1.8125C7.75-8.375 6.625-8.57812 5.76563-8.57812c-2.28125 0-3.59375 1.0625-4.3125 2.20312C.78125-5.29687.625-4.17187.625-3.32812m0 0"/></defs><path fill="none" stroke="#000" stroke-miterlimit="10" stroke-width=".39717" d="M53.53124 17.3086 16.80078 54.03517H163.7148Zm0 0"/><use xlink:href="#a" x="49.37251" y="12.74022"/><use xlink:href="#b" x="4.30258" y="66.9864"/><use xlink:href="#c" x="168.29988" y="67.17975"/></svg>