<svg xmlns="http://www.w3.org/2000/svg" xmlns:xlink="http://www.w3.org/1999/xlink" width="186.365pt" height="163.623pt" viewBox="0 0 186.365 163.623"><defs><path id="a" d="m1.75-1.3125.51563.5 2.09375-2.125 2.125 2.125.48437-.5-2.10937-2.10937 2.10937-2.10938-.48437-.5-2.125 2.10938-2.09375-2.10938-.51563.5 2.125 2.10938Zm0 0"/><path id="b" d="m.90625-8.04687.53125.0625c.26563.01562.3125.15625.34375.51562L2.32813 0h.84375l3.3125-6.6875h.07812L7.1875 0h.84375l2.10938-4.34375c.6875-1.375 1.3125-2.59375 1.53125-2.96875.32812-.59375.42187-.65625 1.17187-.73437l.04688-.34375H10.1875l-.0625.34375.78125.07812c.10938.01563.1875.07813.1875.17188 0 .1875-.71875 1.73437-1.45312 3.26562L8.1875-1.48437H8.125L7.51563-8.1875h-.85938L3.375-1.48437h-.0625l-.39062-6.1875c0-.21875.07812-.29688.25-.29688l.79687-.07812.07813-.34375H.96875Zm0 0"/><path id="c" d="M.125 0h6.32813l.625-2.125h-.35938c-.625 1.5-1.17187 1.70313-2.67187 1.70313-1.42188 0-1.5-.1875-1.5-.5 0-.14063.03125-.3125.09375-.5625L3.25-4.14062h1.59375c.90625 0 1.0625.17187 1.0625.70312 0 .10938 0 .20313-.01562.34375h.375l.5625-2.53125h-.375c-.3125.84375-.4375 1.03125-1.51563 1.03125H3.35938l.6875-3.01562c.0625-.29688.14062-.35938.34375-.35938h1.45312c1.1875 0 1.4375.29688 1.4375.95313 0 .29687-.04687.64062-.04687.64062h.375l.4375-2.01562h-6.125l-.09376.34375.73438.0625c.21875.01562.29688.09375.29688.29687 0 .07813 0 .15625-.03125.28125L1.375-1c-.09375.40625-.20312.54688-.5.57813l-.6875.07812Zm0 0"/><path id="d" d="M0 0h3.67188c2.9375 0 3.53125-1.51562 3.53125-2.51562 0-1.28125-.9375-1.82813-1.82813-2v-.03125C7-4.73437 7.67188-5.65625 7.67188-6.5625c0-.98437-.57813-1.82812-2.8125-1.82812h-3.0625l-.07813.34375.71875.07812c.20313 0 .29688.09375.29688.29688 0 .0625-.03125.17187-.04688.29687L1.25-1c-.09375.39063-.20312.53125-.5.57813l-.6875.07812Zm2.42188-.92187q0-.14063.04687-.28126l.6875-3.10937h.48438c1.20312 0 2.25.34375 2.25 1.73438 0 1.07812-.65625 2.15625-2.28125 2.15625-.95313 0-1.1875-.20313-1.1875-.5M3.25-4.73437l.64063-2.8125c.07812-.35938.15625-.42188.96875-.42188 1.01562 0 1.57812.51563 1.57812 1.35938 0 1.26562-1.0625 1.875-2.39062 1.875Zm0 0"/></defs><path fill="none" stroke="#000" stroke-miterlimit="10" stroke-width=".39715" d="M21.75781 145.90625h146.9023L15.51173 17.36332Zm0 0"/><use xlink:href="#a" x="17.39373" y="148.91885"/><use xlink:href="#b" x="4.30234" y="158.85499"/><use xlink:href="#a" x="164.3241" y="148.91885"/><use xlink:href="#c" x="173.2467" y="158.85499"/><use xlink:href="#a" x="11.15001" y="20.3559"/><use xlink:href="#d" x="11.54367" y="12.78171"/></svg>