<svg xmlns="http://www.w3.org/2000/svg" xmlns:xlink="http://www.w3.org/1999/xlink" width="166.231pt" height="142.131pt" viewBox="0 0 166.231 142.131"><defs><path id="a" d="M.39063 0h9.53125l.95312-3.26562h-.5625C9.35938-.96875 8.51563-.65625 6.42188-.65625c-1.90625 0-2.32813-.17187-2.32813-.76562 0-.20313.0625-.48438.14063-.85938l2.07812-9.04687c.15625-.60938.3125-.89063.79688-.92188l1.10937-.07812.14063-.54688h-5.1875l-.14063.54688 1.10938.07812c.3125.01563.45312.17188.45312.48438 0 .125-.01562.26562-.0625.4375L2.29688-1.54687c-.15625.65625-.3125.85937-.76563.89062L.5-.53125Zm0 0"/><path id="b" d="M-.35937 0h4.20312l.10938-.53125L2.9375-.64062c-.25-.01563-.34375-.125-.34375-.3125 0-.09376.04688-.23438.09375-.375.625-1.1875 1.21875-2.39063 1.90625-3.64063h4.17188L9.21875-1.125s-.09375.45313-.48437.48438l-1 .10937L7.64063 0h4.57812l.10938-.53125-.70313-.0625c-.57812-.0625-.65625-.3125-.75-1.09375L9.5-12.875H8.17188l-3.125 5.48438c-.95313 1.67187-2.5 4.4375-3.1875 5.54687C1.26563-.875.95313-.67187.375-.60937l-.60937.07812Zm5.32812-5.6875L8-11.14062l.67188 5.45312Zm0 0"/><path id="c" d="M.96875-5.10937c0 2.45312 1.20313 5.39062 5.82813 5.39062 1.3125 0 2.59375-.1875 3.78125-.78125l.90625-2.96875h-.5625C9.89063-1.60937 8.96875-.375 6.67188-.375c-2.15625 0-3.70313-1.39062-3.70313-4.25 0-1.6875.4375-3.75 1.32813-5.23437.92187-1.5625 2.39062-2.65625 4.39062-2.65625 2.35938 0 3.03125 1.09375 3.03125 3.125h.57813l.67187-2.78125c-1.07812-.67188-2.8125-1-4.125-1-3.5 0-5.51562 1.65625-6.60937 3.39062C1.20313-8.10937.96875-6.39062.96875-5.10937m0 0"/><clipPath id="d"><path d="M20 22h125v119.26563H20Zm0 0"/></clipPath></defs><path fill="none" stroke="red" stroke-miterlimit="10" stroke-width=".39608" d="m54.66797 56.54688 3.98437-3.98438 3.98438 3.98438-3.98438 3.98437-3.98437-3.98437m56.34765 0-3.98438-3.98438-3.98437 3.98438 3.98437 3.98437 3.98438-3.98437M82.84374 84.72266v-5.63672h-5.63671v5.63672h5.63671m-30.97655 2.80078 5.60156-5.60156m50.74609 5.60156 5.60156-5.60156m16.19922-11.97657-8.40235 2.80078m6.30078-4.90234-8.40234 2.80078m-17.67187-28.875-8.40234 2.80079m6.30468-4.90235-8.40234 2.80078M68.0664 37.54688l2.80078 8.40234m-4.90234-6.30078 2.80078 8.40234m-28.875 17.67188L42.6914 74.125m-4.90234-6.30078 2.80078 8.40234"/><path fill="none" stroke="#000" stroke-miterlimit="10" stroke-width=".39608" d="M82.84374 28.3711 26.4922 84.72266h112.6992Zm0 0"/><use xlink:href="#a" x="89.83939" y="21.37531"/><use xlink:href="#b" x="6.72357" y="104.59052"/><use xlink:href="#c" x="146.18787" y="104.88771"/><path fill="none" stroke="#000" stroke-miterlimit="10" stroke-width=".39608" d="M96.92968 98.8086 40.58203 42.46093M68.7539 98.8086l56.35156-56.34766m-42.26172 70.43359V.19923"/><g clip-path="url(#d)"><path fill="none" stroke="#000" stroke-miterlimit="10" stroke-width=".39608" d="M139.1914 84.72266c0-31.1211-25.22656-56.35156-56.34766-56.35156S26.4922 53.60157 26.4922 84.72266s25.23046 56.34765 56.35155 56.34765 56.34766-25.22656 56.34766-56.34765Zm0 0"/></g></svg>