<svg xmlns="http://www.w3.org/2000/svg" xmlns:xlink="http://www.w3.org/1999/xlink" width="186.997pt" height="159.837pt" viewBox="0 0 186.997 159.837"><defs><path id="a" d="M.45313 0h10.76562l1.07813-3.6875h-.625C10.59375-1.09375 9.625-.73437 7.25-.73437c-2.14062 0-2.60937-.20313-2.60937-.875 0-.23438.0625-.54688.15625-.96875L7.14063-12.8125c.1875-.6875.35937-1 .89062-1.04687l1.26563-.09375.15625-.59375h-5.875l-.15625.59375 1.25.09375c.35937.01562.51562.20312.51562.5625 0 .125-.01562.28125-.0625.48437L2.59375-1.75c-.17187.75-.35937.96875-.875 1.01563l-1.15625.125Zm0 0"/><path id="b" d="M-.40625 0h4.75l.14063-.60937L3.3125-.71875c-.26562-.01562-.375-.15625-.375-.35937 0-.10938.04688-.26563.10938-.42188.6875-1.34375 1.35937-2.70312 2.14062-4.125h4.73438l.51562 4.34375s-.10937.51563-.5625.5625L8.75-.60937 8.64063 0h5.17187l.14063-.60937-.8125-.0625c-.64063-.0625-.73438-.35938-.84375-1.23438L10.75-14.54687h-1.5l-3.54687 6.1875c-1.0625 1.89062-2.8125 5.01562-3.59375 6.28125C1.4375-.98437 1.07813-.76562.42188-.6875l-.6875.07813ZM5.625-6.42187l3.42188-6.1875.76562 6.1875Zm0 0"/><path id="c" d="M1.09375-5.78125C1.09375-3 2.46875.3125 7.6875.3125c1.5 0 2.92188-.20312 4.26563-.875l1.03125-3.35937h-.625c-1.17188 2.10937-2.21875 3.5-4.8125 3.5-2.4375 0-4.1875-1.57813-4.1875-4.8125 0-1.90625.48437-4.23438 1.5-5.92188 1.04687-1.76562 2.70312-3 4.96875-3 2.67187 0 3.42187 1.23438 3.42187 3.54688h.65625l.76563-3.15625c-1.21875-.76563-3.1875-1.125-4.65625-1.125-3.96875 0-6.25 1.85937-7.48438 3.82812-1.17187 1.875-1.4375 3.82813-1.4375 5.28125m0 0"/><clipPath id="d"><path d="M24 26h139v133.67578H24Zm0 0"/></clipPath></defs><path fill="none" stroke="red" stroke-miterlimit="10" stroke-width=".39809" d="m61.76562 63.90626 4.5078-4.5039 4.50391 4.5039-4.5039 4.5039-4.50781-4.5039m63.71092 0-4.50781-4.5039-4.5039 4.5039 4.5039 4.5039 4.5078-4.5039M93.62108 95.76172v-6.3711h-6.3711v6.3711h6.3711m-34.66796 2.8125 5.6289-5.6289m58.07811 5.6289 5.6289-5.6289m18.05078-13.80469-8.4453 2.8125m6.33593-4.92578-8.44531 2.8164m-21.30078-32.55858-8.4453 2.8164m6.33593-4.92968-8.44531 2.8164m-26.92968-4.94531 2.8164 8.44531m-4.92578-6.33593 2.8125 8.4453M45.14453 74.89844l2.8164 8.4414m-4.92578-6.33202 2.8164 8.4453"/><path fill="none" stroke="#000" stroke-miterlimit="10" stroke-width=".39809" d="M93.62108 32.0508 29.91406 95.76172H157.3281Zm0 0"/><use xlink:href="#a" x="101.53131" y="24.14138"/><use xlink:href="#b" x="7.55714" y="118.22743"/><use xlink:href="#c" x="165.23934" y="118.56309"/><path fill="none" stroke="#000" stroke-miterlimit="10" stroke-width=".39809" d="M109.54685 111.6875 45.83984 47.98048M77.6953 111.6875l63.70702-63.70702m-47.78124 79.63279V.19924"/><g clip-path="url(#d)"><path fill="none" stroke="#000" stroke-miterlimit="10" stroke-width=".39809" d="M157.3359 95.76172c0-35.1914-28.52733-63.71483-63.71482-63.71483-35.1914 0-63.71483 28.52343-63.71483 63.71483 0 35.18749 28.52343 63.71483 63.71483 63.71483 35.18749 0 63.71482-28.52734 63.71482-63.71483Zm0 0"/></g></svg>