<svg xmlns="http://www.w3.org/2000/svg" xmlns:xlink="http://www.w3.org/1999/xlink" width="338.761pt" height="131.779pt" viewBox="0 0 338.761 131.779"><defs><path id="a" d="m2.70313-2.03125.78125.78125 3.23437-3.26562L9.98438-1.25l.75-.78125L7.5-5.26562l3.23438-3.26563-.75-.75-3.26563 3.23438-3.23437-3.23438-.78125.75 3.26562 3.26563Zm0 0"/><path id="b" d="M1.53125-3.20312c0 2.53125 1.84375 3.48437 4.5625 3.48437C8.625.28125 10.95313-.26562 12-4.60937l1.57813-6.76563c.17187-.64062.32812-.89062.79687-.9375l1.04688-.07812.10937-.53125h-5.10937l-.14063.53125 1.09375.07812c.32813.01563.48438.17188.48438.51563 0 .125-.03125.26562-.0625.42187l-1.51563 6.51563C9.70313-2.35937 8.79688-.375 6.1875-.375c-1.65625 0-2.8125-.71875-2.8125-2.78125 0-.53125.09375-1.15625.25-1.875L5.10938-11.375c.15625-.64062.29687-.89062.78125-.9375l1.03125-.07812.125-.53125h-5.125l-.125.53125 1.10937.07812c.3125.01563.45313.17188.45313.5 0 .10938-.01563.25-.0625.4375l-1.5625 6.57813c-.14063.59375-.20313 1.10937-.20313 1.59375m0 0"/><path id="c" d="M0 0h5.10938l.125-.53125L4.125-.64062c-.32812-.01563-.48437-.15626-.48437-.45313 0-.125.04687-.28125.07812-.45312l1.01563-4.54688H5.875c1.79688 0 2.0625.4375 2.0625 2.625C7.9375-1.1875 7.9375 0 9.90625 0h1.45313l.17187-.53125c-1.3125-.1875-1.76562-.25-1.76562-2.65625 0-1.90625-.15625-2.71875-1.70313-3.23437 2.28125-.32813 3.82813-1.65625 3.82813-3.5 0-1.34375-.57813-3-4.07813-3H2.78125l-.14062.53125 1.125.07812c.3125.01563.45312.17188.45312.5 0 .10938-.01562.25-.0625.4375l-2.25 9.82813c-.15625.65625-.3125.84375-.76562.89062l-1.04688.125Zm4.89063-6.75 1.09375-4.82812c.14062-.53125.20312-.71875 1.60937-.71875 1.21875 0 2.34375.54687 2.34375 2.17187 0 2.23438-1.4375 3.375-3.84375 3.375Zm0 0"/><path id="d" d="M.39063 0h9.57812l.95313-3.28125h-.5625c-.95313 2.3125-1.8125 2.625-3.92188 2.625-1.90625 0-2.3125-.17187-2.3125-.78125 0-.1875.04688-.46875.125-.84375L6.34375-11.375c.15625-.625.3125-.89062.79688-.9375L8.25-12.39062l.14063-.53125H3.1875l-.14062.53125 1.10937.07812c.3125.01563.45313.17188.45313.5 0 .10938-.01563.25-.04688.4375l-2.25 9.82813c-.17187.65625-.32812.84375-.78125.89062L.5-.53125Zm0 0"/></defs><path fill="none" stroke="#000" stroke-miterlimit="10" stroke-width=".39783" d="M28.82031 104.6914h282.99226L196.3516 26.58593Zm0 0"/><use xlink:href="#a" x="22.0965" y="109.33764"/><use xlink:href="#b" x="6.79416" y="124.64996"/><use xlink:href="#a" x="305.08691" y="109.33764"/><use xlink:href="#c" x="318.83785" y="124.64996"/><use xlink:href="#a" x="189.62754" y="31.23162"/><use xlink:href="#d" x="190.74168" y="19.5592"/></svg>