<svg xmlns="http://www.w3.org/2000/svg" xmlns:xlink="http://www.w3.org/1999/xlink" width="109.658pt" height="92.525pt" viewBox="0 0 109.658 92.525"><defs><path id="a" d="M.25 0h6.20313l.625-2.125h-.35938c-.625 1.5-1.17187 1.70313-2.54687 1.70313-1.23438 0-1.5-.125-1.5-.5 0-.14063.03125-.3125.09375-.5625L4.10938-7.375c.10937-.39062.20312-.57812.51562-.60937l.71875-.04688.09375-.34375h-3.375l-.09375.34375.71875.04688c.21875.01562.29688.125.29688.32812 0 .07813 0 .17188-.03125.28125L1.5-1c-.10937.42188-.21875.54688-.5.57813l-.67187.07812Zm0 0"/><path id="b" d="M-.23437 0H2.5l.07813-.34375-.67188-.0625C1.75-.42187 1.6875-.5 1.6875-.625c0-.0625.03125-.14062.0625-.23437.40625-.78125.79688-1.5625 1.23438-2.375h2.71875L6-.73437s-.0625.29687-.3125.32812l-.64062.0625L4.96875 0h2.98438l.07812-.34375-.46875-.04687c-.375-.03125-.42187-.20313-.48437-.70313L6.1875-8.375h-.85937L3.28125-4.8125c-.60937 1.09375-1.625 2.89063-2.0625 3.60938C.82813-.5625.625-.4375.25-.40625l-.40625.0625Zm3.46875-3.70312L5.20313-7.25l.4375 3.54688Zm0 0"/><path id="c" d="M.625-3.32812C.625-1.73437 1.42188.1875 4.42188.1875c.85937 0 1.6875-.125 2.46875-.51562L7.46875-2.25h-.35937c-.67188 1.20313-1.26563 2-2.76563 2-1.40625 0-2.40625-.89062-2.40625-2.76562 0-1.09375.28125-2.4375.85938-3.40625.60937-1.01563 1.5625-1.71875 2.85937-1.71875 1.53125 0 1.96875.70312 1.96875 2.03125H8l.4375-1.8125c-.6875-.4375-1.82812-.65625-2.67187-.65625-2.28125 0-3.59375 1.07812-4.3125 2.20312C.78125-5.28125.625-4.15625.625-3.32812m0 0"/><clipPath id="d"><path d="M12 12h85v80.05078H12Zm0 0"/></clipPath></defs><path fill="none" stroke="red" stroke-miterlimit="10" stroke-width=".39646" d="m41.30077 31.67189 5.1875 5.1875-5.1875 5.18359m26.30077-10.37109-5.1836 5.1875 5.1836 5.18359m-13.14844 5.8164h-7.33202v7.33203m-11.2539 2.97656.49219-5.94922m36.16795 5.94922.4961-5.94922m11.89452-7.41796-4.55469 3.85546m3.15235-5.25781-4.5547 3.85547M66.58591 26.46876l-4.55468 3.85547m3.15625-5.2539-4.5586 3.85156m-16.57811-4.20313 3.85547 4.55469m-5.25781-3.15235 3.85546 4.5547M25.72265 43.05079l3.85547 4.55468m-5.25781-3.15625 3.85547 4.5586"/><path fill="none" stroke="#000" stroke-miterlimit="10" stroke-width=".39646" d="M54.4453 18.52736 17.78125 55.19141h73.32809Zm0 0"/><use xlink:href="#a" x="58.99859" y="13.97724"/><use xlink:href="#b" x="4.40487" y="68.12029"/><use xlink:href="#c" x="95.66138" y="68.3133"/><path fill="none" stroke="#000" stroke-miterlimit="10" stroke-width=".39646" d="M63.61326 64.35937 26.94921 27.69533m18.33203 36.66404 36.66404-36.66404M54.4453 73.52343V.19924"/><g clip-path="url(#d)"><path fill="none" stroke="#000" stroke-miterlimit="10" stroke-width=".39646" d="M91.10934 55.1914c0-20.24608-16.41405-36.66013-36.66404-36.66013-20.24609 0-36.66014 16.41405-36.66014 36.66014 0 20.24999 16.41405 36.66404 36.66014 36.66404 20.24999 0 36.66404-16.41405 36.66404-36.66404Zm0 0"/></g></svg>