<svg xmlns="http://www.w3.org/2000/svg" xmlns:xlink="http://www.w3.org/1999/xlink" width="109.658pt" height="71.849pt" viewBox="0 0 109.658 71.849"><defs><path id="a" d="M.26563 0h6.20312l.60938-2.125h-.35938C6.10938-.625 5.54688-.42187 4.1875-.42187c-1.25 0-1.51562-.125-1.51562-.5 0-.14063.03125-.3125.09375-.5625L4.10938-7.375c.10937-.40625.21875-.59375.53125-.60937l.71875-.0625.09375-.34375H2.0625l-.09375.34375.73438.0625C2.90625-7.96875 3-7.875 3-7.67187c0 .07812-.01562.17187-.04687.29687L1.5-1c-.10937.42188-.20312.54688-.5.57813l-.67187.07812Zm0 0"/><path id="b" d="M-.23437 0H2.5l.07813-.34375-.67188-.0625C1.75-.42187 1.6875-.5 1.6875-.625c0-.0625.03125-.15625.0625-.23437.40625-.78125.79688-1.5625 1.25-2.375h2.71875l.29688 2.5s-.0625.29687-.32813.32812l-.64062.0625L4.98438 0h2.98437l.07813-.34375-.46875-.04687c-.375-.03125-.42188-.20313-.5-.70313L6.1875-8.39062h-.85937L3.29688-4.8125c-.625 1.07813-1.625 2.89063-2.07813 3.60938C.82813-.5625.625-.4375.25-.40625l-.40625.0625Zm3.46875-3.70312 1.98437-3.5625.4375 3.5625Zm0 0"/><path id="c" d="M.625-3.32812C.625-1.73437 1.42188.1875 4.42188.1875c.875 0 1.70312-.125 2.46875-.51562l.59375-1.9375H7.125C6.45313-1.04687 5.84375-.25 4.34375-.25 2.9375-.25 1.9375-1.15625 1.9375-3.01562c0-1.09375.28125-2.4375.85938-3.40625.60937-1.03125 1.5625-1.73438 2.875-1.73438 1.53125 0 1.96875.70313 1.96875 2.03125h.375l.4375-1.8125C7.75-8.375 6.625-8.57812 5.76563-8.57812c-2.28125 0-3.59375 1.0625-4.3125 2.20312C.78125-5.29687.625-4.17187.625-3.32812m0 0"/></defs><path fill="none" stroke="#000" stroke-miterlimit="10" stroke-width=".39726" d="M54.44532 17.29687 17.70703 54.03125H91.1797Zm0 0"/><use xlink:href="#a" x="59.00697" y="12.73283"/><use xlink:href="#b" x="4.30358" y="66.98463"/><use xlink:href="#c" x="95.7434" y="67.17803"/></svg>