<svg xmlns="http://www.w3.org/2000/svg" xmlns:xlink="http://www.w3.org/1999/xlink" width="181.392pt" height="71.855pt" viewBox="0 0 181.392 71.855"><defs><path id="a" d="M-.23437 0H2.5l.07813-.34375-.67188-.0625C1.75-.42187 1.6875-.5 1.6875-.625c0-.0625.03125-.15625.0625-.23437.40625-.78125.79688-1.5625 1.25-2.375h2.71875l.29688 2.5s-.0625.29687-.32813.32812l-.64062.0625L4.98438 0h2.98437l.07813-.34375-.46875-.04687c-.375-.03125-.42188-.20313-.5-.70313L6.1875-8.39062h-.85937L3.29688-4.8125c-.625 1.07813-1.625 2.89063-2.07813 3.60938C.82813-.5625.625-.4375.25-.40625l-.40625.0625Zm3.46875-3.70312 1.98437-3.5625.4375 3.5625Zm0 0"/><path id="b" d="M0 0h3.67188c2.9375 0 3.53125-1.51562 3.53125-2.51562 0-1.28125-.9375-1.82813-1.82813-2v-.03125C7-4.73437 7.67188-5.65625 7.67188-6.5625c0-.98437-.57813-1.82812-2.8125-1.82812h-3.0625l-.07813.34375.71875.07812c.20313 0 .29688.09375.29688.29688 0 .0625-.03125.17187-.04688.29687L1.25-1c-.09375.39063-.20312.53125-.5.57813l-.6875.07812Zm2.42188-.92187q0-.14063.04687-.28126l.6875-3.10937h.48438c1.20312 0 2.25.34375 2.25 1.73438 0 1.07812-.65625 2.15625-2.28125 2.15625-.95313 0-1.1875-.20313-1.1875-.5M3.25-4.73437l.64063-2.8125c.07812-.35938.15625-.42188.96875-.42188 1.01562 0 1.57812.51563 1.57812 1.35938 0 1.26562-1.0625 1.875-2.39062 1.875Zm0 0"/><path id="c" d="M.625-3.32812C.625-1.73437 1.42188.1875 4.42188.1875c.875 0 1.70312-.125 2.46875-.51562l.59375-1.9375H7.125C6.45313-1.04687 5.84375-.25 4.34375-.25 2.9375-.25 1.9375-1.15625 1.9375-3.01562c0-1.09375.28125-2.4375.85938-3.40625.60937-1.03125 1.5625-1.73438 2.875-1.73438 1.53125 0 1.96875.70313 1.96875 2.03125h.375l.4375-1.8125C7.75-8.375 6.625-8.57812 5.76563-8.57812c-2.28125 0-3.59375 1.0625-4.3125 2.20312C.78125-5.29687.625-4.17187.625-3.32812m0 0"/><path id="d" d="M.26563 0h3.3125l.07812-.34375-.71875-.0625c-.21875 0-.29687-.125-.29687-.3125 0-.07812 0-.1875.03125-.28125l1.4375-6.375c.09375-.375.21875-.59375.53125-.60937l.65625-.0625.07812-.34375H2.0625l-.09375.34375.73438.0625C2.90625-7.96875 3-7.84375 3-7.65625q0 .1172-.04687.28125L1.5-1c-.09375.375-.20312.54688-.5.57813l-.67187.07812Zm0 0"/><path id="e" d="M1.04688-3.42187c0 2.73437.625 5.75 3.1875 5.84375V2.0625C3.375 1.89063 2.01563.82813 2.01563-3.42187c0-4.21875 1.28125-5.29688 2.21875-5.48438v-.35937c-2.5625.10937-3.1875 3.10937-3.1875 5.84375m0 0"/><path id="f" d="M1.15625.14063 2.21875 0c.32813-1.23437.5-1.90625.8125-2.67187.35938-.9375 1.5625-2.78125 2.625-2.78125.28125 0 .4375.1875.4375.5 0 .09375-.01562.21875-.04687.34375l-1 3.45312c-.0625.21875-.10938.42188-.10938.59375 0 .45313.23438.70313.73438.70313.84375 0 1.53125-.82813 1.9375-1.73438l-.29688-.17187c-.21875.42187-.75 1.28125-1.09375 1.28125-.14062 0-.1875-.09375-.1875-.23438 0-.125.01563-.26562.07813-.4375l.95312-3.1875c.09375-.28125.125-.53125.125-.78125 0-.5625-.26562-.96875-.96875-.96875-1.14062 0-2.45312 1.25-3.21875 2.71875h-.03125l1.35938-5.5625L4.26563-9l-2.1875.28125L2-8.42187l.70313.07812c.20312.01563.29687.0625.29687.23438 0 .09375-.01562.20312-.0625.35937Zm0 0"/><path id="g" d="M.71875 2.0625v.35938c2.57813-.09375 3.1875-3.10938 3.1875-5.84375S3.29688-9.15625.71875-9.26562v.35937c.9375.1875 2.21875 1.26563 2.21875 5.48438 0 4.25-1.34375 5.3125-2.21875 5.48437m0 0"/></defs><use xlink:href="#a" x="49.37251" y="12.74022"/><use xlink:href="#b" x="4.30258" y="66.9864"/><use xlink:href="#c" x="168.29988" y="67.17975"/><use xlink:href="#d" x="51.03793" y="66.9864"/><use xlink:href="#e" x="58.09627" y="39.0889"/><use xlink:href="#f" x="63.053" y="39.0889"/><use xlink:href="#g" x="71.46913" y="39.0889"/><path fill="none" stroke="red" stroke-miterlimit="10" stroke-width=".39717" d="M46.1914 54.03516V46.6914h7.34374"/><path fill="none" stroke="#000" stroke-miterlimit="10" stroke-width=".39717" d="M53.53514 17.3008 16.80078 54.03515h146.94136Zm0 0v36.73436"/></svg>