<svg xmlns="http://www.w3.org/2000/svg" xmlns:xlink="http://www.w3.org/1999/xlink" width="279.019pt" height="110.535pt" viewBox="0 0 279.019 110.535"><defs><path id="a" d="M-.35937 0h4.20312l.125-.53125L2.9375-.64062c-.23437-.01563-.34375-.14063-.34375-.3125 0-.09376.04688-.23438.10938-.375.60937-1.1875 1.20312-2.40625 1.90625-3.65625h4.1875L9.25-1.125s-.10937.45313-.5.48438l-.98437.10937L7.65625 0H12.25l.10938-.53125-.71875-.0625c-.5625-.0625-.64063-.3125-.75-1.09375L9.53125-12.90625H8.20313l-3.14063 5.5c-.95312 1.67188-2.5 4.45313-3.20312 5.5625C1.26563-.875.95313-.67187.375-.60937l-.60937.07812Zm5.34375-5.6875 3.03125-5.48437.67187 5.48437Zm0 0"/><path id="b" d="M0 0h5.65625c4.5 0 5.42188-2.32812 5.42188-3.875 0-1.95312-1.45313-2.8125-2.82813-3.07812l.03125-.03125C10.75-7.28125 11.8125-8.6875 11.8125-10.09375c0-1.51562-.89062-2.8125-4.32812-2.8125H2.76563l-.125.54688 1.10937.09375c.3125.01562.45313.15625.45313.45312 0 .125-.03125.28125-.07813.46875L1.92188-1.54687c-.14063.60937-.3125.82812-.76563.89062l-1.0625.125Zm3.73438-1.42187c0-.14063.01562-.28126.0625-.42188L4.85938-6.625h.73437c1.84375 0 3.46875.53125 3.46875 2.65625 0 1.67188-1 3.3125-3.5 3.3125-1.46875 0-1.82812-.29687-1.82812-.76562M5-7.28125l.96875-4.32812c.14063-.5625.25-.65625 1.5-.65625 1.5625 0 2.4375.79687 2.4375 2.10937 0 1.9375-1.625 2.875-3.6875 2.875Zm0 0"/><path id="c" d="M.96875-5.125C.96875-2.65625 2.1875.28125 6.8125.28125c1.32813 0 2.59375-.1875 3.78125-.78125l.92188-2.96875h-.5625C9.92188-1.60937 8.98438-.375 6.6875-.375c-2.15625 0-3.70312-1.39062-3.70312-4.26562 0-1.6875.42187-3.75 1.32812-5.23438.92188-1.57812 2.39063-2.67187 4.40625-2.67187 2.35938 0 3.03125 1.09375 3.03125 3.14062h.57813L13-12.20312c-1.07812-.67188-2.8125-1-4.125-1-3.51562 0-5.54687 1.65625-6.625 3.40625C1.20313-8.14062.96875-6.40625.96875-5.125m0 0"/><path id="d" d="M.39063 0H5.5l.10938-.53125L4.5-.60937c-.3125-.03126-.45312-.20313-.45312-.5 0-.125.01562-.28126.0625-.4375l2.21875-9.79688c.14062-.57812.3125-.90625.79687-.9375l1.03125-.07812.125-.54688H3.17188l-.14063.54688 1.10938.07812c.32812.01563.46875.21875.46875.51563 0 .125-.03125.25-.0625.42187l-2.25 9.79688c-.14063.59375-.3125.85937-.76563.89062L.5-.53125Zm0 0"/><path id="e" d="M1.60938-5.26562c0 4.21875.95312 8.84375 4.90625 9v-.5625c-1.34375-.25-3.42188-1.90625-3.42188-8.4375 0-6.48438 1.98438-8.125 3.42188-8.42188v-.5625c-3.95313.15625-4.90625 4.78125-4.90625 8.98438m0 0"/><path id="f" d="M1.78125.21875 3.40625 0c.5-1.90625.78125-2.9375 1.25-4.10937.5625-1.45313 2.40625-4.28125 4.03125-4.28125.4375 0 .67188.29687.67188.76562 0 .15625-.01563.34375-.07813.54688L7.76563-1.78125c-.10938.32813-.17188.65625-.17188.90625 0 .70313.35938 1.09375 1.14063 1.09375 1.28125 0 2.34375-1.26562 2.96875-2.67187L11.25-2.71875C10.92188-2.0625 10.07813-.75 9.5625-.75c-.21875 0-.29687-.14062-.29687-.35937 0-.1875.04687-.40625.125-.65625l1.46875-4.90625c.14062-.4375.1875-.82813.1875-1.20313 0-.875-.40625-1.48437-1.48438-1.48437-1.76562 0-3.76562 1.92187-4.95312 4.15625H4.5625L6.64063-13.75l-.09375-.07812-3.35938.4375-.10937.4375 1.0625.10937c.32812.04688.46875.10938.46875.375 0 .14063-.03125.29688-.07813.54688Zm0 0"/><path id="g" d="M1.10938 3.17188v.5625c3.95312-.15625 4.90625-4.78125 4.90625-9 0-4.20313-.95313-8.82813-4.90625-8.98438v.5625c1.4375.29688 3.42187 1.9375 3.42187 8.42188 0 6.53125-2.09375 8.1875-3.42187 8.4375m0 0"/></defs><use xlink:href="#a" x="75.97876" y="19.51092"/><use xlink:href="#b" x="6.70917" y="102.88319"/><use xlink:href="#c" x="258.75386" y="103.18094"/><use xlink:href="#d" x="78.538" y="102.88319"/><use xlink:href="#e" x="89.38735" y="60.00656"/><use xlink:href="#f" x="97.00661" y="60.00656"/><use xlink:href="#g" x="109.94347" y="60.00656"/><path fill="none" stroke="red" stroke-miterlimit="10" stroke-width=".39683" d="M82.37892 82.97656H71.08595V71.6836h11.29297v11.29297"/><path fill="none" stroke="#000" stroke-miterlimit="10" stroke-width=".39683" d="M82.37892 26.51952 25.92188 82.97656h225.82426Zm0 0v56.45704"/></svg>