<svg xmlns="http://www.w3.org/2000/svg" xmlns:xlink="http://www.w3.org/1999/xlink" width="185.692pt" height="88.065pt" viewBox="0 0 185.692 88.065"><defs><path id="a" d="m1.75-1.3125.5.5 2.07813-2.09375L6.4375-.8125l.48438-.5-2.09375-2.07812L6.92188-5.5l-.48438-.48437-2.10937 2.09375L2.25-5.98437 1.75-5.5l2.09375 2.10938Zm0 0"/><path id="b" d="M-.39062 0h3l.07812-.34375L2-.42187c-.20312-.03125-.23437-.09375-.23437-.1875 0-.15626 1.5-2.09375 2.29687-3.0625h.04688C4.51563-2.71875 5.375-.84375 5.375-.625c0 .10938-.07812.20313-.26562.21875l-.625.0625L4.42188 0h3.25L7.75-.34375c-.79687-.0625-1-.10937-1.23437-.625-.29688-.60937-1.0625-2.35937-1.64063-3.64062C5.70313-5.59375 7-7.01562 7.67188-7.64062c.26562-.21875.51562-.29688 1.15625-.34375l.07812-.34375H6.14063l-.07813.34375.42188.04687c.25.01563.29687.04688.29687.20313S5.4375-5.96875 4.6875-5.10937h-.03125C4.32813-5.89062 3.625-7.54687 3.625-7.71875c0-.14062.07813-.20312.25-.21875l.64063-.04687.0625-.34375h-3.125l-.07813.34375c.71875.0625.9375.09375 1.125.51562.35938.78125.875 2.17188 1.375 3.26563-.9375 1.125-2.14062 2.57812-2.84375 3.3125C.64063-.46875.4375-.42187-.3125-.34375Zm0 0"/><path id="c" d="M0 0h2.84375l.0625-.34375-.46875-.04687C2.07813-.40625 1.89063-.5 1.89063-.75c0-.64062.10937-1 .25-1.64062l1.09375-4.90625h.03125L4.71875-.14062h.32813l4.6875-7.15625h.03125L8.29688-1c-.10938.40625-.21875.54688-.51563.57813L7.125-.34375 7.04688 0h3.28125l.0625-.34375-.70313-.07812c-.21875-.01563-.3125-.10938-.3125-.3125 0-.07813.01563-.15626.04688-.26563l1.4375-6.32812c.10937-.40625.20312-.57813.5-.60938l.67187-.04687.09375-.34375H9.76563C9.125-7.21875 8.40625-6.15625 7.67188-5.03125l-2.125 3.25h-.03125L4.82813-5.125c-.23438-1.09375-.48438-2.125-.6875-3.20312H1.8125l-.07812.34375.70312.0625c.20313.01562.29688.125.29688.32812 0 .07813 0 .15625-.03125.26563L1.5625-2.39062c-.14062.64062-.28125 1.09375-.42187 1.5-.14063.375-.35938.46875-.70313.5l-.375.04687Zm0 0"/><path id="d" d="M.25 0h6.17188l.60937-2.10937h-.35937C6.0625-.625 5.51563-.42187 4.15625-.42187c-1.23437 0-1.5-.10938-1.5-.5 0-.125.03125-.3125.07813-.54688l1.35937-5.85937c.09375-.39063.20313-.57813.5-.60938l.71875-.04687.09375-.34375H2.04688l-.09375.34375.71875.04687c.21875.01563.29687.125.29687.32813 0 .07812-.01562.17187-.03125.28125L1.48438-1c-.09376.42188-.20313.54688-.5.57813l-.65625.07812Zm0 0"/></defs><path fill="none" stroke="#000" stroke-miterlimit="10" stroke-width=".39431" d="M18.14453 70.01172h145.85541L68.46482 17.13674Zm0 0"/><use xlink:href="#a" x="13.81311" y="73.00292"/><use xlink:href="#b" x="5.09467" y="82.86818"/><use xlink:href="#a" x="159.69426" y="73.00292"/><use xlink:href="#c" x="168.5532" y="82.86818"/><use xlink:href="#a" x="64.14176" y="20.12137"/><use xlink:href="#d" x="64.85914" y="12.60121"/></svg>