<svg xmlns="http://www.w3.org/2000/svg" xmlns:xlink="http://www.w3.org/1999/xlink" width="166.231pt" height="110.535pt" viewBox="0 0 166.231 110.535"><defs><path id="a" d="M.39063 0H9.9375l.95313-3.26562h-.5625C9.375-.96875 8.53125-.65625 6.42188-.65625c-1.90625 0-2.3125-.17187-2.3125-.76562 0-.20313.04687-.48438.14062-.85938l2.07813-9.0625c.15625-.60937.3125-.89062.79687-.9375l1.10938-.07812.14062-.53125H3.17188l-.14063.53125 1.10938.07812c.32812.03125.45312.1875.45312.5 0 .125-.01562.26563-.04687.4375l-2.25 9.79688c-.15625.65625-.3125.85937-.76563.89062L.5-.53125Zm0 0"/><path id="b" d="M-.35937 0h4.20312l.125-.53125L2.9375-.64062c-.23437-.01563-.34375-.125-.34375-.3125 0-.09376.04688-.23438.10938-.375.60937-1.1875 1.20312-2.40625 1.89062-3.65625h4.1875L9.23438-1.125s-.09375.45313-.48438.48438l-1 .10937L7.65625 0h4.57813l.125-.53125-.71875-.0625c-.57813-.0625-.65625-.3125-.75-1.09375l-1.375-11.20312H8.1875l-3.125 5.5c-.95312 1.65625-2.5 4.4375-3.20312 5.54687C1.26563-.875.95313-.67187.375-.60937l-.60937.07812Zm5.34375-5.6875 3.03125-5.46875.67187 5.46875Zm0 0"/><path id="c" d="M.96875-5.10937c0 2.45312 1.21875 5.39062 5.82813 5.39062C8.125.28125 9.40625.09375 10.59375-.5L11.5-3.46875h-.5625C9.90625-1.60937 8.98438-.375 6.6875-.375c-2.17187 0-3.71875-1.39062-3.71875-4.26562 0-1.6875.4375-3.75 1.32813-5.23438.9375-1.5625 2.40625-2.65625 4.40625-2.65625 2.35937 0 3.03125 1.09375 3.03125 3.125h.57812l.67188-2.78125c-1.0625-.6875-2.8125-1-4.125-1-3.5 0-5.53125 1.64063-6.625 3.39063C1.20313-8.125.96875-6.40625.96875-5.10937m0 0"/></defs><path fill="none" stroke="#000" stroke-miterlimit="10" stroke-width=".39667" d="M82.84374 26.53126 26.41016 82.96484H139.2734Zm0 0"/><use xlink:href="#a" x="89.84935" y="19.52584"/><use xlink:href="#b" x="6.61042" y="102.86332"/><use xlink:href="#c" x="146.28129" y="103.16094"/></svg>