<svg xmlns="http://www.w3.org/2000/svg" xmlns:xlink="http://www.w3.org/1999/xlink" width="210.194pt" height="59.144pt" viewBox="0 0 210.194 59.144"><defs><path id="a" d="m1.67188-1.25.48437.46875 2-2 2.01563 2L6.625-1.25l-2-2 2-2.01562-.45312-.46875-2.01563 2-2-2-.48437.46875L3.6875-3.25Zm0 0"/><path id="b" d="M-.21875 0H2.375l.07813-.32812-.64063-.0625c-.14062-.01563-.20312-.09375-.20312-.20313 0-.0625.03124-.14062.0625-.23437.375-.73438.75-1.48438 1.17187-2.25H5.4375l.28125 2.375s-.0625.28124-.29687.3125l-.625.0625L4.73438 0h2.84375l.07812-.32812L7.20313-.375c-.34375-.03125-.40625-.1875-.45313-.67187l-.85937-6.9375h-.8125L3.125-4.57812c-.57812 1.03125-1.54687 2.75-1.96875 3.4375-.375.59375-.5625.71875-.92187.76562l-.375.04688Zm3.29688-3.53125 1.89062-3.39062.40625 3.39062Zm0 0"/><path id="c" d="M.60938-3.17187c0 1.53125.73437 3.34375 3.60937 3.34375.8125 0 1.60938-.10938 2.34375-.48438l.5625-1.84375h-.34375C6.14063-1 5.5625-.23437 4.14063-.23437c-1.34375 0-2.29688-.85938-2.29688-2.64063 0-1.04687.26563-2.3125.82813-3.23437.57812-.98438 1.48437-1.65625 2.71875-1.65625 1.46875 0 1.875.67187 1.875 1.9375H7.625l.42188-1.71875c-.67188-.42188-1.75-.625-2.5625-.625-2.17188 0-3.42188 1.03125-4.09375 2.10937C.75-5.03125.60938-3.96875.60938-3.17187m0 0"/></defs><path fill="none" stroke="#000" stroke-miterlimit="10" stroke-width=".39281" d="M78.22264 6.95704 17.44922 41.53516h174.64056L111.75388 7.3086"/><use xlink:href="#a" x="74.07301" y="9.8248"/><use xlink:href="#a" x="13.2996" y="44.40334"/><use xlink:href="#a" x="187.93704" y="44.40334"/><use xlink:href="#a" x="107.60372" y="10.17375"/><use xlink:href="#b" x="5.19391" y="53.85258"/><use xlink:href="#c" x="196.42322" y="54.03692"/></svg>