<svg xmlns="http://www.w3.org/2000/svg" xmlns:xlink="http://www.w3.org/1999/xlink" width="108.052pt" height="92.525pt" viewBox="0 0 108.052 92.525"><defs><path id="a" d="M.25 0h6.1875l.60938-2.125H6.6875C6.07813-.625 5.51563-.42187 4.15625-.42187c-1.23437 0-1.5-.125-1.5-.5 0-.125.04688-.3125.09375-.5625l1.34375-5.85938c.10938-.40625.20313-.57812.51563-.60937L5.32813-8l.09375-.34375H2.0625L1.96875-8l.71875.04688c.20313.01562.29688.125.29688.32812 0 .07813-.01563.15625-.04688.28125L1.48438-1c-.09376.42188-.20313.54688-.5.57813l-.65625.07812Zm0 0"/><path id="b" d="M-.23437 0h2.71875l.07812-.34375-.65625-.0625C1.75-.42187 1.6875-.5 1.6875-.60937c0-.07813.01563-.15626.0625-.25.39063-.76563.78125-1.5625 1.23438-2.35938H5.6875l.29688 2.48438s-.0625.29687-.3125.32812l-.65625.0625L4.95313 0h2.96875L8-.34375l-.45312-.04687c-.375-.03125-.4375-.20313-.5-.70313l-.875-7.25h-.875L3.28125-4.79687c-.625 1.07812-1.625 2.89062-2.07812 3.60937-.375.625-.59375.75-.95313.79688l-.40625.04687Zm3.45312-3.6875L5.1875-7.23437 5.625-3.6875Zm0 0"/><path id="c" d="M.625-3.3125c0 1.59375.78125 3.5 3.78125 3.5.85938 0 1.6875-.125 2.45313-.51562L7.45313-2.25h-.35938c-.67187 1.20313-1.28125 2-2.76562 2-1.40625 0-2.40625-.89062-2.40625-2.75 0-1.09375.28124-2.4375.85937-3.39062C3.39063-7.40625 4.34375-8.125 5.64063-8.125c1.53125 0 1.96875.71875 1.96875 2.03125h.35937l.4375-1.8125c-.6875-.42187-1.8125-.64062-2.67187-.64062-2.26563 0-3.57813 1.07812-4.28125 2.20312C.78125-5.26562.625-4.15625.625-3.3125m0 0"/><clipPath id="d"><path d="M53 .16797h1V74h-1Zm0 0"/></clipPath><clipPath id="e"><path d="M11 13h85v78.88672H11Zm0 0"/></clipPath></defs><path fill="none" stroke="red" stroke-miterlimit="10" stroke-width=".39503" d="m40.53126 31.72656 5.16406 5.16406-5.16406 5.16797m26.20313-10.33203-5.16407 5.16406 5.16407 5.16797m-13.10157 5.79688h-7.30469v7.30469M35.11329 58.125l.49218-5.92578M71.64064 58.125l.4961-5.92578m11.85156-7.39453-4.53907 3.84375m3.14063-5.23829L78.0508 47.25M65.72267 26.54296l-4.53907 3.83985m3.14454-5.23829-4.53907 3.83985m-16.51953-4.1875 3.83984 4.53906M41.875 26.1914l3.83985 4.53906M25.0039 43.0625l3.84376 4.53906m-5.23828-3.14453 3.83984 4.53906"/><path fill="none" stroke="#000" stroke-miterlimit="10" stroke-width=".39503" d="M53.62891 18.6289 17.09766 55.16016h73.06251Zm0 0"/><use xlink:href="#a" x="58.16271" y="14.09373"/><use xlink:href="#b" x="4.27945" y="68.04142"/><use xlink:href="#c" x="94.6932" y="68.23373"/><path fill="none" stroke="#000" stroke-miterlimit="10" stroke-width=".39503" d="M62.76173 64.29297 26.23047 27.76171M44.4961 64.29297l36.53126-36.53126"/><g clip-path="url(#d)"><path fill="none" stroke="#000" stroke-miterlimit="10" stroke-width=".39503" d="M53.62891 73.42579V.36327"/></g><g clip-path="url(#e)"><path fill="none" stroke="#000" stroke-miterlimit="10" stroke-width=".39503" d="M90.15627 55.16016c0-20.17579-16.35548-36.53126-36.52736-36.53126-20.17578 0-36.53125 16.35547-36.53125 36.53126 0 20.17578 16.35547 36.53126 36.53125 36.53126 20.17188 0 36.52736-16.35548 36.52736-36.53126Zm0 0"/></g></svg>