<svg xmlns="http://www.w3.org/2000/svg" xmlns:xlink="http://www.w3.org/1999/xlink" width="218.638pt" height="61.516pt" viewBox="0 0 218.638 61.516"><defs><path id="a" d="m1.75-1.3125.5.5 2.09375-2.10937L6.45313-.8125l.48437-.5-2.09375-2.09375L6.9375-5.51562 6.45313-6 4.34375-3.90625 2.25-6l-.5.48438 2.10938 2.10937Zm0 0"/><path id="b" d="M-.23437 0h2.71875l.07812-.34375-.65625-.0625C1.75-.42187 1.6875-.5 1.6875-.60937c0-.07813.01563-.15626.0625-.25.39063-.76563.78125-1.5625 1.23438-2.35938H5.6875l.29688 2.48438s-.0625.29687-.3125.32812l-.65625.0625L4.95313 0h2.96875L8-.34375l-.45312-.04687c-.375-.03125-.4375-.20313-.5-.70313l-.875-7.25h-.875L3.28125-4.79687c-.625 1.07812-1.625 2.89062-2.07812 3.60937-.375.625-.59375.75-.95313.79688l-.40625.04687Zm3.45312-3.6875L5.1875-7.23437 5.625-3.6875Zm0 0"/><path id="c" d="M.625-3.3125c0 1.59375.78125 3.5 3.78125 3.5.85938 0 1.6875-.125 2.45313-.51562L7.45313-2.25h-.35938c-.67187 1.20313-1.28125 2-2.76562 2-1.40625 0-2.40625-.89062-2.40625-2.75 0-1.09375.28124-2.4375.85937-3.39062C3.39063-7.40625 4.34375-8.125 5.64063-8.125c1.53125 0 1.96875.71875 1.96875 2.03125h.35937l.4375-1.8125c-.6875-.42187-1.8125-.64062-2.67187-.64062-2.26563 0-3.57813 1.07812-4.28125 2.20312C.78125-5.26562.625-4.15625.625-3.3125m0 0"/></defs><path fill="none" stroke="#000" stroke-miterlimit="10" stroke-width=".39539" d="M81.40628 7.28905 17.78516 43.48828h182.81649l-84.0977-35.83205"/><use xlink:href="#a" x="77.0737" y="10.28309"/><use xlink:href="#a" x="13.44135" y="46.48824"/><use xlink:href="#a" x="196.29171" y="46.48824"/><use xlink:href="#a" x="112.18049" y="10.64921"/><use xlink:href="#b" x="4.95711" y="56.38041"/><use xlink:href="#c" x="205.17482" y="56.57289"/></svg>