<svg xmlns="http://www.w3.org/2000/svg" xmlns:xlink="http://www.w3.org/1999/xlink" width="183.024pt" height="71.855pt" viewBox="0 0 183.024 71.855"><defs><path id="a" d="M-.23437 0H2.5l.07813-.34375-.67188-.0625C1.75-.42187 1.6875-.5 1.6875-.625c0-.0625.03125-.14062.0625-.23437.40625-.78125.78125-1.5625 1.23438-2.375h2.71875L6-.73437s-.0625.29687-.32812.32812l-.64063.0625L4.96875 0H7.9375l.07813-.34375-.45313-.04687c-.375-.03125-.4375-.20313-.5-.70313L6.1875-8.375h-.875L3.28125-4.79687c-.60937 1.07812-1.625 2.875-2.07812 3.59375C.82813-.5625.625-.4375.25-.40625l-.40625.0625Zm3.46875-3.6875L5.20313-7.25l.4375 3.5625Zm0 0"/><path id="b" d="M0 0h3.67188C6.59375 0 7.1875-1.5 7.1875-2.51562c0-1.26563-.9375-1.82813-1.82812-1.98438l.01562-.03125c1.60938-.1875 2.28125-1.10937 2.28125-2.01562 0-.98438-.57812-1.82813-2.79687-1.82813h-3.0625l-.07813.35938.71875.0625c.20313.01562.29688.09375.29688.29687 0 .07813-.03125.17188-.0625.29688L1.25-1c-.09375.39063-.20312.53125-.5.57813l-.6875.07812Zm2.42188-.92187c0-.09376.01562-.1875.03125-.28126l.70312-3.09374H3.625c1.20313 0 2.26563.34375 2.26563 1.71875 0 1.07812-.65625 2.15625-2.28125 2.15625-.95313 0-1.1875-.20313-1.1875-.5M3.25-4.71875l.625-2.8125c.09375-.35937.15625-.42187.96875-.42187 1.01563 0 1.57813.51562 1.57813 1.35937 0 1.26563-1.04688 1.875-2.39063 1.875Zm0 0"/><path id="c" d="M.625-3.32812C.625-1.71875 1.42188.1875 4.42188.1875c.85937 0 1.6875-.125 2.45312-.51562L7.46875-2.25h-.35937c-.67188 1.20313-1.28125 2-2.76563 2-1.40625 0-2.40625-.89062-2.40625-2.76562 0-1.09375.28125-2.4375.85938-3.39063.60937-1.01562 1.5625-1.73437 2.85937-1.73437 1.53125 0 1.96875.71875 1.96875 2.03125H8l.4375-1.8125c-.70312-.4375-1.82812-.64063-2.6875-.64063-2.28125 0-3.59375 1.0625-4.29687 2.20313C.78125-5.28125.625-4.15625.625-3.32812m0 0"/><path id="d" d="M.25 0h3.3125l.07813-.34375-.71875-.0625c-.20313 0-.29688-.125-.29688-.3125 0-.07812.01563-.1875.04688-.28125l1.4375-6.35937c.09375-.375.20312-.57813.51562-.60938l.67188-.04687L5.375-8.375H2.0625l-.09375.35938.71875.04687c.20313.01563.29688.14063.29688.32813 0 .07812-.01563.17187-.03125.28125L1.5-1c-.09375.375-.21875.54688-.51562.57813l-.65625.07812Zm0 0"/><path id="e" d="M1.04688-3.40625c0 2.71875.60937 5.71875 3.17187 5.82813V2.0625C3.35938 1.89063 2.01563.82813 2.01563-3.40625c0-4.21875 1.28125-5.28125 2.20312-5.48437V-9.25c-2.5625.10938-3.17187 3.10938-3.17187 5.84375m0 0"/><path id="f" d="M1.15625.14063 2.21875 0c.3125-1.23437.5-1.90625.8125-2.67187.35938-.9375 1.54688-2.78125 2.60938-2.78125.28125 0 .4375.20312.4375.51562 0 .09375-.01563.21875-.04688.34375l-1 3.4375c-.0625.21875-.09375.42188-.09375.59375 0 .45313.21875.70313.73438.70313.82812 0 1.51562-.82813 1.92187-1.73438l-.29687-.17187c-.21875.42187-.75 1.28125-1.09375 1.28125-.14063 0-.1875-.09375-.1875-.23438 0-.125.01562-.26562.07812-.42187l.95313-3.1875c.07812-.28125.125-.53125.125-.78125 0-.5625-.26563-.96875-.96875-.96875-1.14063 0-2.4375 1.25-3.21875 2.70312h-.01563L4.3125-8.92187 4.25-8.96875l-2.17187.28125L2-8.40625l.6875.07813c.20313.03125.29688.0625.29688.25 0 .07812-.01563.1875-.04688.34375Zm0 0"/><path id="g" d="M.71875 2.0625v.35938c2.5625-.10938 3.1875-3.10938 3.1875-5.82813 0-2.73437-.625-5.73437-3.1875-5.84375v.35938C1.64063-8.6875 2.9375-7.625 2.9375-3.40625c0 4.23438-1.35937 5.29688-2.21875 5.46875m0 0"/></defs><use xlink:href="#a" x="49.55872" y="12.78591"/><use xlink:href="#b" x="4.2941" y="66.9252"/><use xlink:href="#c" x="168.5094" y="67.11817"/><use xlink:href="#d" x="50.88564" y="66.9252"/><use xlink:href="#e" x="58.52292" y="39.08268"/><use xlink:href="#f" x="63.46989" y="39.08268"/><use xlink:href="#g" x="71.86943" y="39.08268"/><path fill="none" stroke="red" stroke-miterlimit="10" stroke-width=".39639" d="M46.64063 54v-7.33203h7.33204"/><path fill="none" stroke="#000" stroke-miterlimit="10" stroke-width=".39639" d="M53.97267 17.33592 17.30859 54H163.961Zm0 0V54"/></svg>