<svg xmlns="http://www.w3.org/2000/svg" xmlns:xlink="http://www.w3.org/1999/xlink" width="372.447pt" height="124.415pt" viewBox="0 0 372.447 124.415"><defs><clipPath id="f"><path d="M363 0h8.30078v8H363Zm0 0"/></clipPath><clipPath id="g"><path d="M330 0h41.30078v24H330Zm0 0"/></clipPath><clipPath id="h"><path d="M.59766 116H9v7.83203H.59766Zm0 0"/></clipPath><clipPath id="i"><path d="M.59766 12H219v111.83203H.59766Zm0 0"/></clipPath><clipPath id="j"><path d="M.59766 0h370.70312v123.83203H.59766Zm0 0"/></clipPath><clipPath id="k"><path d="M206 0h136v123.83203H206Zm0 0"/></clipPath><clipPath id="l"><path d="M.59766 17h370.70312v2H.59766Zm0 0"/></clipPath><path id="a" d="m1.6875-1.26562.48438.48437L4.1875-2.8125 6.21875-.78125l.46875-.48437-2.01562-2.01563L6.6875-5.3125l-.46875-.46875L4.1875-3.76562 2.17188-5.78125l-.48438.46875 2.03125 2.03125Zm0 0"/><path id="b" d="M.375-3.14062c0 1.90625 1.09375 3.3125 3.42188 3.3125C5.84375.17188 6.85938-.875 7.5-2.03125c.625-1.14062.73438-2.32812.73438-2.78125 0-2.40625-1.4375-3.42187-3.35938-3.42187-1.85937 0-3.01562 1.01562-3.70312 2.14062C.53125-5.01562.375-3.92187.375-3.14062m1.21875.46875c0-.98438.1875-2.07813.71875-3.20313.53125-1.09375 1.375-1.95312 2.60938-1.95312 1.26562 0 2.09375.75 2.09375 2.40625 0 .65625-.0625 1.625-.54688 2.85937C5.98438-1.3125 5.1875-.23437 3.6875-.23437c-1.26562 0-2.09375-.8125-2.09375-2.4375m0 0"/><path id="c" d="M-.21875 0h2.625l.07813-.32812-.65625-.0625C1.6875-.40625 1.625-.48437 1.625-.59375c0-.0625.01563-.15625.0625-.23437.375-.75.75-1.5 1.1875-2.28125h2.60938l.29687 2.40625s-.0625.28124-.3125.3125l-.625.0625L4.78125 0h2.85938l.07812-.32812L7.26563-.375c-.35938-.03125-.40625-.1875-.46875-.67187l-.84375-7H5.125L3.15625-4.625c-.59375 1.04688-1.5625 2.78125-1.98437 3.46875-.375.60938-.57813.73438-.9375.76563l-.39063.0625Zm3.32813-3.5625L5-6.96875l.42188 3.40625Zm0 0"/><path id="d" d="M0 0h3.53125c2.8125 0 3.375-1.45312 3.375-2.42187 0-1.21875-.89062-1.75-1.75-1.92188l.01563-.01562C6.71875-4.54687 7.375-5.42187 7.375-6.3125c0-.9375-.5625-1.73437-2.70312-1.73437H1.71875l-.07812.32812.70312.0625c.20313.01563.28125.09375.28125.28125q0 .1172-.04687.28125l-1.375 6.125C1.10937-.57812 1-.45312.71875-.40625L.0625-.32812Zm2.32813-.89062c0-.09376.01562-.17188.03125-.26563l.67187-2.98437H3.5c1.14063 0 2.15625.34375 2.15625 1.65625 0 1.04687-.625 2.07812-2.1875 2.07812-.92187 0-1.14062-.1875-1.14062-.48437M3.125-4.54687 3.73438-7.25c.07812-.34375.14062-.40625.92187-.40625.98438 0 1.53125.5 1.53125 1.3125 0 1.21875-1.01562 1.79688-2.3125 1.79688Zm0 0"/><path id="e" d="M.60938-3.20312c0 1.54687.75 3.375 3.64062 3.375.82813 0 1.625-.10938 2.35938-.48438l.57812-1.85937h-.34375C6.1875-1 5.60938-.23437 4.17188-.23437c-1.34375 0-2.3125-.875-2.3125-2.67188 0-1.04687.26562-2.32812.82812-3.26562.57813-.98438 1.5-1.65625 2.75-1.65625 1.46875 0 1.89063.67187 1.89063 1.95312h.35937l.42188-1.75c-.65625-.42187-1.75-.60937-2.57813-.60937-2.1875 0-3.45312 1.01562-4.125 2.10937C.75-5.07812.60938-4 .60938-3.20312m0 0"/></defs><use xlink:href="#a" x="314.01164" y="20.72654"/><use xlink:href="#b" x="313.8932" y="13.27956"/><path fill="none" stroke="red" stroke-miterlimit="10" stroke-width=".39664" d="M212.39844 53.10156h7.05468v-7.05468h-7.05468v7.05468"/><path fill="none" stroke="#000" stroke-miterlimit="10" stroke-width=".39664" d="M212.39844 53.10156h70.53515l-70.53515-35.26953Zm0 0"/><use xlink:href="#c" x="200.0256" y="65.53585"/><use xlink:href="#d" x="287.31318" y="65.53585"/><use xlink:href="#e" x="200.16196" y="13.27956"/><g clip-path="url(#f)"><path fill="none" stroke="red" stroke-miterlimit="10" stroke-width=".39664" d="M371.10156.19922h-7.05078V7.25h7.05078V.19922"/></g><g clip-path="url(#g)"><path fill="none" stroke="#000" stroke-miterlimit="10" stroke-width=".39664" d="M371.10156.19922h-35.26562l35.26562 17.63281Zm0 0"/></g><g clip-path="url(#h)"><path fill="none" stroke="red" stroke-miterlimit="10" stroke-width=".39664" d="M.79297 123.63672h7.05078v-7.05469H.79297v7.05469"/></g><g clip-path="url(#i)"><path fill="none" stroke="#000" stroke-miterlimit="10" stroke-width=".39664" d="M.79297 123.63672h211.60547L.79297 17.83203Zm0 0"/></g><g clip-path="url(#j)"><path fill="none" stroke="#000" stroke-dasharray="2.9748422756 2.9748422756" stroke-miterlimit="10" stroke-width=".39664" d="m.78906 123.63672 211.60938-70.53516L371.10156.19922"/></g><g clip-path="url(#k)"><path fill="none" stroke="#000" stroke-dasharray="2.9748422756 2.9748422756" stroke-miterlimit="10" stroke-width=".39664" d="M212.39844 123.63672 335.83594.19922"/></g><g clip-path="url(#l)"><path fill="none" stroke="#000" stroke-dasharray="2.9748422756 2.9748422756" stroke-miterlimit="10" stroke-width=".39664" d="M.78906 17.83203h370.3125"/></g></svg>