<svg xmlns="http://www.w3.org/2000/svg" xmlns:xlink="http://www.w3.org/1999/xlink" width="253.284pt" height="253.482pt" viewBox="0 0 253.284 253.482"><defs><path id="a" d="M-.35937 0h4.21875l.10937-.53125L2.9375-.64062c-.23437-.01563-.32812-.14063-.32812-.3125 0-.09376.03125-.23438.09375-.375.60937-1.20313 1.21875-2.40625 1.90625-3.65625h4.1875l.46875 3.84375s-.10938.46875-.5.5l-1 .10937L7.67188 0h4.59375l.10937-.53125-.70312-.0625c-.57813-.0625-.65625-.32812-.76563-1.09375L9.54688-12.92187H8.20313L5.0625-7.40625c-.95312 1.65625-2.5 4.4375-3.1875 5.5625C1.26563-.875.95313-.67187.375-.60937l-.60937.07812Zm5.34375-5.70312 3.04687-5.48438.67188 5.48438Zm0 0"/><path id="b" d="M0 0h5.67188c4.5 0 5.42187-2.32812 5.42187-3.875 0-1.96875-1.45312-2.82812-2.82812-3.07812L8.28125-7c2.48438-.29687 3.54688-1.70312 3.54688-3.10937 0-1.51563-.89063-2.8125-4.32813-2.8125H2.76563l-.125.54687 1.10937.09375c.32813.01563.46875.15625.46875.45313 0 .125-.04687.28125-.07812.45312L1.92188-1.54687c-.14063.60937-.3125.82812-.76563.89062l-1.0625.125Zm3.73438-1.4375c0-.125.01562-.26562.0625-.40625L4.875-6.64062h.73438c1.84375 0 3.46875.53125 3.46875 2.67187 0 1.65625-1.01563 3.3125-3.51563 3.3125-1.46875 0-1.82812-.29687-1.82812-.78125m1.28125-5.85937.96875-4.32813c.14062-.5625.23437-.65625 1.48437-.65625 1.57813 0 2.45313.79688 2.45313 2.10938 0 1.9375-1.64063 2.875-3.70313 2.875Zm0 0"/><path id="c" d="M.96875-5.125C.96875-2.65625 2.1875.28125 6.8125.28125c1.34375 0 2.60938-.1875 3.79688-.78125l.92187-2.98437h-.5625C9.9375-1.60937 9-.375 6.70313-.375c-2.17188 0-3.71875-1.39062-3.71875-4.28125 0-1.6875.4375-3.75 1.32812-5.23437.9375-1.57813 2.40625-2.67188 4.40625-2.67188 2.375 0 3.04688 1.09375 3.04688 3.14063h.57812l.67188-2.79688c-1.07813-.6875-2.8125-1-4.125-1-3.53125 0-5.54688 1.65625-6.64063 3.40625C1.21875-8.15625.96875-6.42187.96875-5.125m0 0"/></defs><path fill="none" stroke="red" stroke-miterlimit="10" stroke-width=".39738" d="M226.33202 126.48437h-11.30469v-11.30859h11.30469v11.3086"/><path fill="none" stroke="#000" stroke-miterlimit="10" stroke-width=".39738" d="M113.26563 126.48437h113.06639V69.94922Zm0 0"/><use xlink:href="#a" x="93.42989" y="146.41738"/><use xlink:href="#b" x="233.35035" y="146.41738"/><use xlink:href="#c" x="233.35035" y="62.65217"/></svg>