<svg xmlns="http://www.w3.org/2000/svg" xmlns:xlink="http://www.w3.org/1999/xlink" width="745.338pt" height="317.632pt" viewBox="0 0 745.338 317.632"><defs><clipPath id="a"><path d="M.10156 133H108v104H.10156Zm0 0"/></clipPath><clipPath id="d"><path d="M432 209h115v108.26563H432Zm0 0"/></clipPath><clipPath id="e"><path d="M636 82h108.57422v88H636Zm0 0"/></clipPath><path id="b" d="m2.70313-2.03125.78125.78125 3.25-3.26562L10-1.25l.75-.78125-3.25-3.25 3.25-3.26562-.75-.75-3.26562 3.25-3.25-3.25-.78125.75 3.26562 3.26562Zm0 0"/><path id="c" d="M.59375-5.0625c0 3.09375 1.78125 5.34375 5.5 5.34375 3.29688 0 4.92188-1.6875 5.95313-3.54687C13.0625-5.09375 13.23438-7 13.23438-7.75c0-3.82812-2.32813-5.48437-5.40625-5.48437-2.98438 0-4.84375 1.65625-5.9375 3.4375C.85938-8.0625.59375-6.29687.59375-5.0625m1.96875.76563c0-1.57813.29688-3.32813 1.15625-5.14063.85938-1.76562 2.1875-3.14062 4.1875-3.14062 2.04688 0 3.35938 1.21875 3.35938 3.85937 0 1.07813-.09375 2.60938-.875 4.59375-.78125 2.01563-2.04688 3.75-4.48438 3.75C3.875-.375 2.5625-1.6875 2.5625-4.29687m0 0"/></defs><g clip-path="url(#a)"><path fill="none" stroke="#000" stroke-miterlimit="10" stroke-width=".39804" d="m.3008 230.4258 101.91017-56.0508-50.94532-35.6836Zm0 0"/></g><path fill="none" stroke="#000" stroke-miterlimit="10" stroke-width=".39804" d="m204.16022 118.30468-50.96486 91.7344-50.98439-35.66407Zm0 0"/><use xlink:href="#b" x="95.48414" y="179.02059"/><use xlink:href="#c" x="95.29436" y="167.06345"/><path fill="none" stroke="#000" stroke-miterlimit="10" stroke-width=".39804" d="M408.01964 113.20703c0-28.14845-22.81641-50.96486-50.96486-50.96486s-50.96485 22.81641-50.96485 50.96486 22.8164 50.96485 50.96485 50.96485 50.96486-22.81641 50.96486-50.96485Zm0 0"/><g clip-path="url(#d)"><path fill="none" stroke="#000" stroke-miterlimit="10" stroke-width=".39804" d="M540.52748 266.1016c0-28.14845-22.81641-50.96486-50.96485-50.96486-28.14845 0-50.96486 22.8164-50.96486 50.96485s22.81641 50.96486 50.96486 50.96486 50.96485-22.81641 50.96485-50.96486Zm0 0"/></g><use xlink:href="#b" x="416.57613" y="194.29589"/><use xlink:href="#c" x="402.43951" y="209.9158"/><use xlink:href="#b" x="350.32189" y="117.85546"/><use xlink:href="#b" x="482.82937" y="15.92755"/><g clip-path="url(#e)"><path fill="none" stroke="#000" stroke-miterlimit="10" stroke-width=".39804" d="M642.4572 164.17188h101.9297l-76.44533-76.44533Zm0 0"/></g><path fill="none" stroke="#000" stroke-miterlimit="10" stroke-width=".39804" d="m667.94157 189.65626 25.48048-76.44923H591.49234Zm0 0"/><use xlink:href="#b" x="661.19572" y="143.33793"/><use xlink:href="#c" x="674.95378" y="158.95684"/></svg>