<svg xmlns="http://www.w3.org/2000/svg" xmlns:xlink="http://www.w3.org/1999/xlink" width="178.389" height="164.655" viewBox="0 0 178.389 164.655"><defs><path id="a" d="m3.03125-2.28125.875.875 3.64063-3.67187 3.67187 3.67187.84375-.875-3.64062-3.64062 3.64062-3.65625-.84375-.85938-3.67187 3.64063-3.64063-3.64063-.875.85938 3.67188 3.65625Zm0 0"/><path id="b" d="M-.40625 0h4.73438l.14062-.60937L3.3125-.71875c-.28125-.01562-.39062-.15625-.39062-.35937 0-.10938.04687-.26563.10937-.42188.70313-1.34375 1.375-2.70312 2.15625-4.10937h4.70313l.51562 4.32812s-.10937.51563-.54687.5625l-1.125.10938L8.625 0h5.15625l.14063-.60937-.8125-.0625c-.64063-.0625-.73438-.35938-.84375-1.23438l-1.54688-12.60937H9.23438l-3.53125 6.1875c-1.07813 1.875-2.82813 5-3.60938 6.25C1.4375-.98437 1.07813-.76562.42188-.6875l-.6875.07813Zm6.01563-6.40625 3.42187-6.17187.75 6.17187Zm0 0"/><path id="d" d="M0 0h6.375c5.0625 0 6.09375-2.60937 6.09375-4.35937 0-2.20313-1.625-3.17188-3.17187-3.45313l.01562-.04687c2.79688-.34375 3.98438-1.92188 3.98438-3.51563 0-1.70312-1.01563-3.14062-4.875-3.14062h-5.3125l-.14063.59375 1.25.10937c.35938.03125.51563.1875.51563.51563 0 .14062-.04688.3125-.09375.51562L2.17188-1.75c-.15625.70313-.35938.95313-.875 1.01563l-1.1875.125Zm4.20313-1.60937c0-.15626.01562-.3125.0625-.46875l1.20312-5.39063h.82813c2.07812 0 3.92187.60938 3.92187 3 0 1.875-1.14062 3.73438-3.96875 3.73438-1.64062 0-2.04687-.34375-2.04687-.875M5.625-8.20312l1.09375-4.875c.15625-.625.28125-.73438 1.6875-.73438 1.76563 0 2.75.89063 2.75 2.375C11.15625-9.25 9.3125-8.20312 7-8.20312Zm0 0"/><path id="e" d="M1.8125-5.92187c0 4.73437 1.0625 9.9375 5.51563 10.125v-.625c-1.5-.29688-3.84375-2.14063-3.84375-9.5 0-7.3125 2.23437-9.15625 3.84375-9.5v-.625c-4.45313.1875-5.51563 5.39062-5.51563 10.125m0 0"/><path id="f" d="M1.5625-2.53125C1.5625-1.15625 1.96875.25 3.67188.25c2.40625 0 4.28125-2.57812 5.51562-4.82812h.04688l-.70313 2.5c-.10937.42187-.17187.79687-.17187 1.125C8.35938-.17187 8.71875.25 9.45313.25c1.65625 0 2.75-1.4375 3.46875-3.01562l-.5-.29688c-.375.73438-1.3125 2.21875-1.89063 2.21875-.25 0-.34375-.15625-.34375-.40625 0-.20312.0625-.45312.14063-.73437l3.29687-13.5-.10937-.09375-3.73438.5-.10937.48437 1.25.10938c.34375.03125.46875.125.46875.35937 0 .10938-.01563.29688-.07813.51563l-.8125 3.375-.04687.04687c-.40625-.20312-1.04688-.35937-1.76563-.35937-4.89062 0-7.125 5.46875-7.125 8.01562m2.07813.1875c0-2.28125 1.82812-7.46875 5.1875-7.46875.64062 0 1.20312.20313 1.45312.42188-.3125 1.60937-1.01562 3.60937-2.07812 5.34375C7.1875-2.40625 5.8125-.84375 4.6875-.84375c-.67187 0-1.04687-.5625-1.04687-1.5m0 0"/><path id="g" d="M1.25 3.57813v.625c4.45313-.1875 5.51563-5.39063 5.51563-10.125s-1.0625-9.9375-5.51563-10.125v.625c1.60938.34375 3.84375 2.1875 3.84375 9.5 0 7.35937-2.34375 9.20312-3.84375 9.5m0 0"/><path id="c" d="M.65625-.79687c0 .07812.17188.21874.375.21874.125 0 .35938-.03124.39063-.125l2.625-6.71874c.09375-.21875.10937-.35938.10937-.42188 0-.3125-.48437-.4375-.9375-.4375-.4375 0-1.14062.17188-1.1875.45313Zm0 0"/></defs><use xlink:href="#a" x="22.19598" y="35.18397"/><use xlink:href="#b" x="7.4455" y="22.07487"/><use xlink:href="#a" x="123.88468" y="136.87168"/><use xlink:href="#b" x="139.32779" y="156.75657"/><use xlink:href="#c" x="154.62938" y="147.82093"/><use xlink:href="#a" x="104.81799" y="54.25067"/><use xlink:href="#d" x="90.73722" y="41.14157"/><use xlink:href="#e" x="139.32779" y="53.89987"/><use xlink:href="#f" x="147.90613" y="53.89987"/><use xlink:href="#g" x="161.75657" y="53.89987"/><path fill="none" stroke="red" stroke-miterlimit="10" stroke-width=".39714" d="m80.58984 80.8125 8.98829-8.98828-8.98829-8.9922-8.98828 8.9922 8.98828 8.98828"/><path fill="none" stroke="#000" stroke-miterlimit="10" stroke-width=".39714" d="M29.74607 131.65627 131.43752 29.96873m-101.69145 0 101.69145 101.68754"/><path fill="none" stroke="red" stroke-miterlimit="10" stroke-width=".39714" d="M51.17968 55.37108h7.9414m42.90237 50.84377h7.9414"/></svg>