<svg xmlns="http://www.w3.org/2000/svg" xmlns:xlink="http://www.w3.org/1999/xlink" width="158.378pt" height="158.577pt" viewBox="0 0 158.378 158.577"><defs><path id="a" d="M-.21875 0h2.625l.07813-.32812-.64063-.0625C1.6875-.40625 1.625-.48437 1.625-.59375c0-.0625.03125-.15625.0625-.23437.39063-.75.75-1.5 1.1875-2.28125H5.5l.28125 2.40625s-.0625.28124-.3125.3125l-.625.0625L4.78125 0h2.875l.07813-.32812L7.28125-.375c-.35937-.03125-.40625-.20312-.46875-.67187L5.95313-8.0625H5.125L3.15625-4.625c-.59375 1.04688-1.5625 2.78125-1.98437 3.46875-.375.60938-.57813.73438-.9375.76563l-.39063.0625Zm3.32813-3.5625 1.90625-3.42187.42187 3.42187Zm0 0"/><path id="b" d="M0 0h3.53125c2.82813 0 3.39063-1.45312 3.39063-2.42187 0-1.21875-.90625-1.76563-1.76563-1.92188l.01563-.01562C6.71875-4.54687 7.375-5.4375 7.375-6.3125c0-.9375-.54687-1.75-2.70312-1.75H1.71875l-.0625.32813.6875.0625c.20313.01562.28125.10937.28125.29687 0 .0625-.01562.17188-.04687.28125l-1.375 6.125C1.10937-.57812 1-.45312.71875-.40625L.0625-.32812Zm2.32813-.89062c0-.09376.01562-.17188.04687-.26563l.67188-2.98437H3.5c1.15625 0 2.17188.32812 2.17188 1.65625 0 1.04687-.64063 2.07812-2.20313 2.07812-.90625 0-1.14062-.1875-1.14062-.48437M3.125-4.54687 3.73438-7.25c.09375-.35937.15625-.42187.9375-.42187.96875 0 1.51562.5 1.51562 1.3125 0 1.21875-1.01562 1.8125-2.29687 1.8125Zm0 0"/><path id="c" d="M.60938-3.20312c0 1.54687.75 3.375 3.64062 3.375.84375 0 1.625-.10938 2.375-.48438l.57813-1.85937h-.35938C6.20313-1 5.625-.23437 4.1875-.23437c-1.35937 0-2.32812-.875-2.32812-2.67188 0-1.04687.28124-2.34375.82812-3.26562.59375-.98438 1.5-1.67188 2.76563-1.67188 1.46875 0 1.89062.6875 1.89062 1.96875h.35938l.42187-1.75c-.67187-.42187-1.76562-.625-2.57812-.625-2.20313 0-3.46875 1.03125-4.14063 2.125C.75-5.09375.60938-4 .60938-3.20312m0 0"/></defs><path fill="none" stroke="red" stroke-miterlimit="10" stroke-width=".39694" d="M141.3789 79.07812h-7.0586v-7.05859h7.0586v7.0586"/><path fill="none" stroke="#000" stroke-miterlimit="10" stroke-width=".39694" d="M70.78906 79.07812h70.58984V43.78125Zm0 0"/><use xlink:href="#a" x="58.40463" y="91.52345"/><use xlink:href="#b" x="145.75956" y="91.52345"/><use xlink:href="#c" x="145.75956" y="39.22684"/></svg>