<svg xmlns="http://www.w3.org/2000/svg" xmlns:xlink="http://www.w3.org/1999/xlink" width="99.111pt" height="91.159pt" viewBox="0 0 99.111 91.159"><defs><path id="a" d="m1.67188-1.26562.48437.48437 2.01563-2.01562L6.20313-.78125l.46875-.48437-2.01563-2 2.01563-2.03125-.46875-.46875L4.17188-3.75 2.15625-5.76562l-.48437.46875 2.03125 2.03125Zm0 0"/><path id="b" d="M-.21875 0h2.60938l.07812-.32812-.64062-.0625c-.15626-.01563-.21876-.09375-.21876-.20313 0-.0625.03126-.14062.0625-.23437.39063-.73438.76563-1.5 1.1875-2.26563h2.60938L5.75-.70312s-.0625.28124-.3125.3125l-.60937.0625L4.76563 0h2.84375l.07812-.32812L7.25-.375c-.35937-.03125-.40625-.1875-.46875-.67187l-.85937-6.96875h-.82813L3.14063-4.60937C2.5625-3.5625 1.59375-1.84375 1.15625-1.14062.79688-.54687.59375-.42187.23438-.375l-.375.04688Zm3.3125-3.54687 1.89063-3.40625.42187 3.40625Zm0 0"/><path id="d" d="M0 0h3.51563c2.79687 0 3.375-1.4375 3.375-2.40625 0-1.21875-.90625-1.75-1.75-1.90625v-.03125c1.54687-.1875 2.20312-1.0625 2.20312-1.9375 0-.9375-.5625-1.73437-2.6875-1.73437h-2.9375l-.07812.32812.6875.0625c.20312.01563.28125.09375.28125.28125q0 .1172-.04688.28125L1.20313-.96875C1.10937-.57812 1-.4375.71875-.40625L.0625-.32812Zm2.32813-.89062c0-.07813 0-.17188.03125-.25L3.03125-4.125h.45313c1.14062 0 2.15625.32813 2.15625 1.65625 0 1.03125-.625 2.0625-2.1875 2.0625-.90625 0-1.125-.1875-1.125-.48437m.78125-3.64063.60937-2.6875c.07813-.34375.14063-.40625.92188-.40625.96875 0 1.51562.48438 1.51562 1.3125 0 1.20313-1.01562 1.78125-2.29687 1.78125Zm0 0"/><path id="e" d="M1-3.26562c0 2.60937.59375 5.48437 3.04688 5.59375v-.35938c-.82813-.15625-2.125-1.17187-2.125-5.23437 0-4.04688 1.23437-5.0625 2.125-5.25v-.34375C1.59375-8.76562 1-5.89062 1-3.26562m0 0"/><path id="f" d="M.85938-1.39062c0 .75.23437 1.53125 1.17187 1.53125 1.32813 0 2.35938-1.42188 3.04688-2.67188h.01562l-.375 1.39063c-.0625.23437-.10937.4375-.10937.60937 0 .4375.20312.67188.60937.67188.92188 0 1.51563-.79688 1.92188-1.67188l-.28125-.15625c-.20313.40625-.71875 1.21875-1.04688 1.21875-.14062 0-.1875-.09375-.1875-.21875 0-.10937.04688-.25.07813-.40625l1.82812-7.45312-.0625-.0625-2.0625.28125-.0625.26562.6875.0625c.1875.01563.26563.0625.26563.20313q0 .09375-.04688.28125l-.45312 1.85937-.01563.03125c-.23437-.10937-.57812-.20312-.98437-.20312-2.70313 0-3.9375 3.03125-3.9375 4.4375m1.15625.09374c0-1.26562 1.01562-4.125 2.85937-4.125.35938 0 .67188.10938.79688.23438C5.5-4.29687 5.125-3.20312 4.53125-2.23437c-.5625.90625-1.32812 1.76562-1.9375 1.76562-.375 0-.57812-.3125-.57812-.82812m0 0"/><path id="g" d="M.6875 1.96875v.35938c2.45313-.10938 3.04688-2.98438 3.04688-5.59375 0-2.625-.59375-5.5-3.04688-5.59375v.34375c.89063.1875 2.125 1.20312 2.125 5.25 0 4.0625-1.29687 5.07812-2.125 5.23437m0 0"/><path id="c" d="M.35938-.125c0 .04688.09375.125.20312.125.07813 0 .20313-.01562.21875-.0625l1.45313-3.71875c.0625-.125.0625-.1875.0625-.23437 0-.17188-.26563-.23438-.51563-.23438s-.625.09375-.65625.25Zm0 0"/></defs><use xlink:href="#a" x="12.27345" y="19.37426"/><use xlink:href="#b" x="4.12562" y="12.13307"/><use xlink:href="#a" x="68.4482" y="75.54901"/><use xlink:href="#b" x="76.9785" y="86.21263"/><use xlink:href="#c" x="85.43053" y="81.27692"/><use xlink:href="#a" x="57.91537" y="29.90709"/><use xlink:href="#d" x="50.13713" y="22.66589"/><use xlink:href="#e" x="76.9785" y="29.71189"/><use xlink:href="#f" x="81.71686" y="29.71189"/><use xlink:href="#g" x="89.36732" y="29.71189"/><path fill="none" stroke="red" stroke-miterlimit="10" stroke-width=".39486" d="m44.53125 44.58203 4.96485-4.96484-4.96485-4.96485-4.96485 4.96485 4.96485 4.96484"/><path fill="none" stroke="#000" stroke-miterlimit="10" stroke-width=".39486" d="m16.4414 72.66798 56.1758-56.1758m-56.1758 0 56.1758 56.1758"/><path fill="none" stroke="red" stroke-miterlimit="10" stroke-width=".39486" d="M26.52734 30.52734h7.89844M54.6172 58.61328h7.89452"/></svg>