<svg xmlns="http://www.w3.org/2000/svg" xmlns:xlink="http://www.w3.org/1999/xlink" width="93.65pt" height="110.019pt" viewBox="0 0 93.65 110.019"><defs><path id="b" d="m1.75-1.3125.5.5 2.09375-2.10937L6.45313-.8125l.48437-.5-2.09375-2.09375L6.9375-5.51562 6.45313-6 4.34375-3.90625 2.25-6l-.5.48438 2.10938 2.10937Zm0 0"/><path id="c" d="M.39063-3.26562c0 2 1.14062 3.45312 3.54687 3.45312 2.125 0 3.17188-1.09375 3.82813-2.29687.65625-1.17188.78125-2.40625.78125-2.89063 0-2.46875-1.51563-3.54687-3.5-3.54687-1.92188 0-3.125 1.07812-3.82813 2.23437-.67187 1.10938-.82812 2.25-.82812 3.04688m1.26562.48437c0-1 .1875-2.14062.75-3.3125C2.95313-7.23437 3.8125-8.125 5.09375-8.125c1.32813 0 2.17188.79688 2.17188 2.5 0 .6875-.0625 1.6875-.5625 2.96875C6.20313-1.35937 5.375-.25 3.8125-.25 2.5-.25 1.65625-1.09375 1.65625-2.78125m0 0"/><clipPath id="a"><path d="M.24219 0H80v79H.24219Zm0 0"/></clipPath></defs><g clip-path="url(#a)"><path fill="none" stroke="#000" stroke-miterlimit="10" stroke-width=".39498" d="M73.49213 36.72266c0-20.17187-16.35156-36.52734-36.52733-36.52734C16.79292.19532.44136 16.5508.44136 36.72266S16.79292 73.24609 36.9648 73.24609c20.17577 0 36.52733-16.35156 36.52733-36.52343Zm0 0"/></g><use xlink:href="#b" x="80.10624" y="94.51425"/><use xlink:href="#c" x="70.98755" y="104.58842"/><use xlink:href="#b" x="32.62363" y="39.71983"/></svg>