<svg xmlns="http://www.w3.org/2000/svg" xmlns:xlink="http://www.w3.org/1999/xlink" width="160.905pt" height="59.359pt" viewBox="0 0 160.905 59.359"><defs><path id="c" d="M1.03125-3.39062c0 2.71875.625 5.70312 3.17188 5.79687v-.35937C3.34375 1.89063 2 .8125 2-3.39062c0-4.1875 1.28125-5.26563 2.20313-5.45313v-.35937c-2.54688.10937-3.17188 3.09375-3.17188 5.8125m0 0"/><path id="d" d="M.89063-1.45312c0 .78125.23437 1.59375 1.20312 1.59375 1.39063 0 2.46875-1.46875 3.17188-2.76563h.03125l-.40625 1.4375c-.0625.23438-.09375.45313-.09375.64063 0 .4375.20312.6875.625.6875C6.375.14063 7-.67187 7.40625-1.59375L7.125-1.75c-.21875.42188-.75 1.26563-1.09375 1.26563-.14062 0-.1875-.09375-.1875-.23438 0-.10937.03125-.25.07813-.42187L7.8125-8.875 7.75-8.9375l-2.14062.28125-.0625.29688.71875.0625c.1875 0 .26562.0625.26562.20312 0 .0625-.01562.15625-.04687.29688L6.01563-5.875 6-5.84375c-.23437-.10937-.60937-.20312-1.01562-.20312-2.8125 0-4.09375 3.14062-4.09375 4.59375m1.20312.10937c0-1.3125 1.04688-4.28125 2.96875-4.28125.375 0 .6875.10938.82813.25-.17188.92188-.57813 2.0625-1.1875 3.0625-.57813.92188-1.375 1.82813-2.01563 1.82813-.375 0-.59375-.32813-.59375-.85938m0 0"/><path id="e" d="M.71875 2.04688v.35937C3.26563 2.3125 3.875-.67187 3.875-3.39062S3.26563-9.09375.71875-9.20312v.35937c.92188.1875 2.20313 1.26563 2.20313 5.45313 0 4.20312-1.34375 5.28125-2.20313 5.4375m0 0"/><clipPath id="a"><path d="M24 0h71v58.72656H24Zm0 0"/></clipPath><clipPath id="b"><path d="M.8125 23H153v35.72656H.8125Zm0 0"/></clipPath></defs><g clip-path="url(#a)"><path fill="none" stroke="#000" stroke-miterlimit="10" stroke-width=".39424" d="m30.1758 52.69531 58.33204-32.08204L59.33986.19529Zm0 0"/></g><g clip-path="url(#b)"><path fill="none" stroke="#000" stroke-miterlimit="10" stroke-width=".39424" d="M1.00781 58.52734 146.836 29.36327"/></g><use xlink:href="#c" x="137.94268" y="43.0887"/><use xlink:href="#d" x="142.8629" y="43.0887"/><use xlink:href="#e" x="150.807" y="43.0887"/></svg>