<svg xmlns="http://www.w3.org/2000/svg" xmlns:xlink="http://www.w3.org/1999/xlink" width="1020.87pt" height="198.824pt" viewBox="0 0 1020.87 198.824"><defs><clipPath id="a"><path d="M.38672 0H483v198.64844H.38672Zm0 0"/></clipPath><clipPath id="d"><path d="M538 0h482.35547v198.64844H538Zm0 0"/></clipPath><clipPath id="e"><path d="M821.91406 28.51953h169.9336v84.96485h-169.9336Zm0 0"/></clipPath><clipPath id="f"><path d="M821.91406 113h169.9336v.48438h-169.9336Zm0 0"/></clipPath><path id="b" d="M-.35937 0h4.21875l.125-.53125-1.03125-.10937c-.25-.01563-.34375-.14063-.34375-.3125q0-.16407.09375-.375C3.32813-2.53125 3.92188-3.75 4.625-5h4.1875l.46875 3.85938s-.10937.46875-.5.5l-1 .10937L7.6875 0h4.59375l.125-.53125-.71875-.0625c-.57812-.0625-.65625-.32812-.76562-1.09375l-1.35938-11.25H8.21875L5.07813-7.42187C4.125-5.75 2.5625-2.96875 1.875-1.84375 1.28125-.875.95313-.67187.375-.60937l-.60937.07812ZM5-5.71875l3.04688-5.48437.67187 5.48437Zm0 0"/><path id="c" d="M0 0h5.67188c4.51562 0 5.4375-2.32812 5.4375-3.875 0-1.98437-1.45313-2.82812-2.82813-3.09375L8.29688-7c2.5-.3125 3.54687-1.71875 3.54687-3.125 0-1.51562-.89062-2.8125-4.34375-2.8125H2.76563l-.125.53125 1.125.10938c.3125.01562.45312.15625.45312.45312 0 .125-.03125.28125-.07812.45313L1.9375-1.54687c-.14062.60937-.32812.82812-.78125.89062l-1.0625.125Zm3.75-1.4375c0-.14062.01563-.28125.04688-.40625L4.875-6.65625h.73438c1.85937 0 3.48437.54688 3.48437 2.67188 0 1.67187-1.01562 3.32812-3.51562 3.32812C4.09375-.65625 3.75-.95312 3.75-1.4375m1.26563-5.875.96875-4.32812c.14062-.5625.25-.65625 1.5-.65625 1.57812 0 2.45312.79687 2.45312 2.10937 0 1.95313-1.64062 2.875-3.70312 2.875Zm0 0"/></defs><g stroke="#000" stroke-miterlimit="10" stroke-width=".39815" clip-path="url(#a)"><path fill="#FFF" d="M.58594 198.44922V.19522h481.46895v198.254Zm0 0"/><path fill="none" stroke-dasharray=".39814932000000003 1.990796556" d="M.58594 198.44922h481.46895M.58594 170.12889h481.46895M.58594 141.80466h481.46895M.58594 113.48434h481.46895M.58594 85.16401h481.46895M.58594 56.83978h481.46895M.58594 28.51946h481.46895M.58594.19914h481.46895M.58594 198.44922V.19522m28.32032 198.254V.19522m28.32423 198.254V.19522m28.32033 198.254V.19522m28.32032 198.254V.19522m28.32423 198.254V.19522m28.32033 198.254V.19522m28.32032 198.254V.19522m28.32423 198.254V.19522m28.32033 198.254V.19522m28.32032 198.254V.19522m28.32423 198.254V.19522m28.32033 198.254V.19522m28.32423 198.254V.19522m28.32032 198.254V.19522m28.32033 198.254V.19522m28.32423 198.254V.19522m28.32032 198.254V.19522"/></g><path fill="none" stroke="#007F7F" stroke-miterlimit="10" stroke-width=".39815" d="m170.5157 170.1289 165.41413-27.57033"/><path fill="#007F7F" stroke="#007F7F" stroke-miterlimit="10" stroke-width=".39813" d="M339.71094 141.92969c-.48438-.05079-2.64453-.41797-4.04688-.97266l.53125 3.20313c1.14844-.98047 3.07422-2.03126 3.51563-2.23047Zm0 0"/><path fill="none" stroke="#000" stroke-miterlimit="10" stroke-width=".39815" d="m28.90626 141.80466 141.60944-28.32032-56.64456-56.64456Zm0 0"/><use xlink:href="#b" x="150.64049" y="176.59768" fill="#007F7F"/><use xlink:href="#c" x="347.47525" y="148.27675" fill="#007F7F"/><g stroke="#000" stroke-miterlimit="10" stroke-width=".39815" clip-path="url(#d)"><path fill="#FFF" d="M538.69945 198.44922V.19522h481.46895v198.254Zm0 0"/><path fill="none" stroke-dasharray=".39814932000000003 1.990796556" d="M538.69945 198.44922h481.46895m-481.46895-28.32033h481.46895m-481.46895-28.32423h481.46895m-481.46895-28.32032h481.46895M538.69945 85.16401h481.46895M538.69945 56.83978h481.46895M538.69945 28.51946h481.46895M538.69945.19914h481.46895M538.69945 198.44922V.19522m28.32032 198.254V.19522m28.32423 198.254V.19522m28.32032 198.254V.19522m28.32033 198.254V.19522m28.32423 198.254V.19522m28.32032 198.254V.19522m28.32033 198.254V.19522m28.32423 198.254V.19522m28.32033 198.254V.19522m28.32032 198.254V.19522m28.32423 198.254V.19522m28.32032 198.254V.19522m28.32033 198.254V.19522m28.32423 198.254V.19522m28.32032 198.254V.19522m28.32423 198.254V.19522m28.32033 198.254V.19522"/></g><path fill="none" stroke="#007F7F" stroke-miterlimit="10" stroke-width=".39815" d="M878.55896 170.1289H656.56278"/><path fill="#007F7F" stroke="#007F7F" stroke-miterlimit="10" stroke-width=".39815" d="M652.73047 170.1289c.46875.125 2.53906.84376 3.83203 1.625v-3.25c-1.29297.78126-3.36328 1.4961-3.83203 1.625Zm0 0"/><g clip-path="url(#e)"><path fill="none" stroke="#000" stroke-miterlimit="10" stroke-width=".39815" d="M991.84807 113.48434c0-46.9258-38.04298-84.96488-84.96488-84.96488-46.9258 0-84.96878 38.03908-84.96878 84.96488s38.04298 84.96488 84.96878 84.96488c46.9219 0 84.96488-38.03908 84.96488-84.96488Zm0 0"/></g><g clip-path="url(#f)"><path fill="none" stroke="#000" stroke-miterlimit="10" stroke-width=".39815" d="M821.9144 113.48434h169.93367"/></g><use xlink:href="#b" x="885.58192" y="176.59768" fill="#007F7F"/><use xlink:href="#c" x="632.70077" y="176.59768" fill="#007F7F"/></svg>