<svg xmlns="http://www.w3.org/2000/svg" xmlns:xlink="http://www.w3.org/1999/xlink" width="387.328pt" height="129.375pt" viewBox="0 0 387.328 129.375"><defs><path id="a" d="m1.75-1.3125.5.5 2.10938-2.10937L6.46875-.8125l.48438-.5-2.09375-2.10937 2.09375-2.10938-.48438-.48437-2.10937 2.09375L2.25-6.01562l-.5.48437 2.10938 2.10938Zm0 0"/><path id="b" d="M.39063-3.28125c0 2 1.14062 3.46875 3.54687 3.46875 2.14063 0 3.1875-1.10937 3.85938-2.29687.65625-1.1875.78125-2.42188.78125-2.90625 0-2.48438-1.51563-3.5625-3.51563-3.5625-1.9375 0-3.125 1.07812-3.84375 2.23437-.67187 1.125-.82812 2.26563-.82812 3.0625m1.26562.5c0-1.01562.20313-2.15625.75-3.32812C2.96875-7.25 3.82813-8.14062 5.125-8.14062c1.3125 0 2.17188.78125 2.17188 2.5 0 .6875-.0625 1.6875-.5625 2.96875C6.21875-1.35937 5.40625-.25 3.82813-.25c-1.3125 0-2.17188-.84375-2.17188-2.53125m0 0"/><path id="c" d="M-.23437 0H2.5l.07813-.34375-.67188-.0625C1.75-.42187 1.6875-.5 1.6875-.625c0-.0625.03125-.14062.0625-.23437.40625-.78125.79688-1.5625 1.23438-2.375h2.71875L6-.73437s-.0625.29687-.3125.32812l-.64062.0625L4.96875 0h2.98438l.07812-.34375-.46875-.04687c-.375-.03125-.42187-.20313-.48437-.70313L6.1875-8.375h-.85937L3.28125-4.8125c-.60937 1.09375-1.625 2.89063-2.0625 3.60938C.82813-.5625.625-.4375.25-.40625l-.40625.0625Zm3.46875-3.70312L5.20313-7.25l.4375 3.54688Zm0 0"/><path id="d" d="M0 0h3.67188C6.59375 0 7.1875-1.51562 7.1875-2.51562c0-1.28125-.9375-1.82813-1.82812-2l.01562-.01563c1.60938-.20312 2.29688-1.10937 2.29688-2.03125 0-.98437-.57813-1.8125-2.8125-1.8125h-3.0625l-.07813.34375.71875.0625c.20313.01563.29688.10938.29688.29688 0 .07812-.03125.1875-.04688.29687L1.25-1c-.09375.39063-.20312.53125-.5.57813l-.6875.07812Zm2.42188-.92187q0-.14063.04687-.28126l.6875-3.10937h.48438c1.1875 0 2.25.35938 2.25 1.73438 0 1.07812-.65625 2.15625-2.28125 2.15625-.95313 0-1.1875-.20313-1.1875-.5M3.25-4.73437l.625-2.8125c.09375-.35938.15625-.42188.96875-.42188 1.01563 0 1.59375.51563 1.59375 1.375 0 1.25-1.0625 1.85938-2.40625 1.85938Zm0 0"/><path id="e" d="M.625-3.32812C.625-1.73437 1.42188.1875 4.42188.1875c.85937 0 1.6875-.125 2.46875-.51562L7.46875-2.25h-.35937c-.67188 1.20313-1.26563 2-2.76563 2-1.40625 0-2.40625-.89062-2.40625-2.76562 0-1.09375.28125-2.4375.85938-3.40625.60937-1.01563 1.5625-1.71875 2.85937-1.71875 1.53125 0 1.96875.70312 1.96875 2.03125H8l.4375-1.8125c-.6875-.4375-1.82812-.65625-2.67187-.65625-2.28125 0-3.59375 1.07812-4.3125 2.20312C.78125-5.28125.625-4.15625.625-3.32812m0 0"/></defs><use xlink:href="#a" x="326.49829" y="21.54392"/><use xlink:href="#b" x="326.37588" y="13.80033"/><path fill="none" stroke="red" stroke-miterlimit="10" stroke-width=".39658" d="M228.168 55.20702v-7.33203h-7.33593"/><path fill="none" stroke="#000" stroke-miterlimit="10" stroke-width=".39658" d="M220.83207 55.20702h73.36325l-73.36325-36.67968Zm0 0"/><use xlink:href="#c" x="207.9679" y="68.13982"/><use xlink:href="#d" x="298.74934" y="68.13982"/><use xlink:href="#e" x="208.10922" y="13.79336"/></svg>