<svg xmlns="http://www.w3.org/2000/svg" xmlns:xlink="http://www.w3.org/1999/xlink" width="160.905pt" height="91.107pt" viewBox="0 0 160.905 91.107"><defs><path id="b" d="M1.04688-3.40625c0 2.71875.60937 5.71875 3.15625 5.8125v-.35937C3.34375 1.89063 2 .82813 2-3.40625c0-4.1875 1.28125-5.25 2.20313-5.4375v-.35937C1.65625-9.10937 1.04688-6.125 1.04688-3.40625m0 0"/><path id="c" d="M.89063-1.45312c0 .78125.23437 1.59375 1.21875 1.59375 1.375 0 2.45312-1.46875 3.15625-2.76563h.03125l-.39063 1.4375c-.0625.23438-.10937.45313-.10937.64063 0 .4375.20312.6875.625.6875.95312 0 1.57812-.82813 2-1.73438L7.125-1.75c-.20312.42188-.75 1.26563-1.07812 1.26563-.14063 0-.20313-.09375-.20313-.23438 0-.10937.04688-.25.07813-.42187l1.90625-7.75-.0625-.04688-2.14063.28125-.07812.28125.71875.0625c.20312.01563.28125.0625.28125.20313 0 .0625-.01563.17187-.0625.29687L6.03125-5.875 6-5.84375c-.23437-.125-.59375-.21875-1.01562-.21875-2.79688 0-4.09375 3.15625-4.09375 4.60938m1.20312.10937c0-1.3125 1.04688-4.28125 2.96875-4.28125.375 0 .70313.10938.84375.23438-.1875.92187-.57812 2.0625-1.20312 3.0625-.57813.9375-1.375 1.84375-2.01563 1.84375-.375 0-.59375-.32813-.59375-.85938m0 0"/><path id="d" d="M.71875 2.04688v.35937C3.26563 2.3125 3.89063-.6875 3.89063-3.40625s-.625-5.70312-3.17188-5.79687v.35937c.92188.1875 2.20313 1.25 2.20313 5.4375 0 4.23438-1.34375 5.29688-2.20313 5.45313m0 0"/><clipPath id="a"><path d="M.73438 23H153v42H.73438Zm0 0"/></clipPath><clipPath id="e"><path d="M24 47h78v43.22266H24Zm0 0"/></clipPath></defs><path fill="none" stroke="#000" stroke-miterlimit="10" stroke-width=".39463" d="m30.12499 52.7461 58.3906-32.11327L59.32028.19534Zm0 0"/><g clip-path="url(#a)"><path fill="none" stroke="#000" stroke-miterlimit="10" stroke-width=".39463" d="m.92969 58.58594 145.97258-29.1953"/></g><use xlink:href="#b" x="137.99944" y="43.13223"/><use xlink:href="#c" x="142.92452" y="43.13223"/><use xlink:href="#d" x="150.87647" y="43.13223"/><g clip-path="url(#e)"><path fill="none" stroke="#000" stroke-miterlimit="10" stroke-width=".39463" d="m30.12108 52.75 66.24215 7.1875-19.08592 30.08983Zm0 0"/></g></svg>