<svg xmlns="http://www.w3.org/2000/svg" xmlns:xlink="http://www.w3.org/1999/xlink" width="867.655pt" height="178.98pt" viewBox="0 0 867.655 178.98"><defs><path id="b" d="M1.60938-5.28125c0 4.21875.95312 8.85938 4.92187 9.03125v-.5625c-1.32812-.26562-3.42187-1.90625-3.42187-8.46875 0-6.51562 1.98437-8.17187 3.42187-8.46875v-.54687C2.5625-14.14062 1.60938-9.5 1.60938-5.28125m0 0"/><path id="c" d="M1.39063-2.25c0 1.21875.35937 2.46875 1.875 2.46875 2.15625 0 3.82812-2.29687 4.92187-4.29687h.04688l-.625 2.21875c-.09375.39062-.15625.71875-.15625 1 0 .70312.3125 1.07812.96875 1.07812 1.48437 0 2.45312-1.28125 3.09375-2.6875l-.4375-.26562C10.73438-2.07812 9.90625-.75 9.39063-.75c-.23438 0-.3125-.14062-.3125-.35937 0-.1875.0625-.40625.125-.65625l2.95312-12.04688-.10937-.07812-3.32813.4375-.09375.4375 1.10938.10937c.3125.01563.42187.09375.42187.3125 0 .10938-.01562.26563-.07812.46875l-.71875 3-.03125.04688c-.35938-.1875-.9375-.32813-1.57813-.32813-4.35937 0-6.35937 4.89063-6.35937 7.15625M3.25-2.09375C3.25-4.125 4.875-8.75 7.875-8.75c.57813 0 1.0625.1875 1.28125.39063-.26562 1.42187-.89062 3.20312-1.84375 4.75C6.42188-2.15625 5.17188-.75 4.1875-.75c-.60937 0-.9375-.5-.9375-1.34375m0 0"/><path id="d" d="M1.10938 3.1875V3.75c3.96875-.17187 4.92187-4.8125 4.92187-9.03125s-.95312-8.85937-4.92187-9.01562v.54687c1.4375.29688 3.4375 1.95313 3.4375 8.46875 0 6.5625-2.09375 8.20313-3.4375 8.46875m0 0"/><path id="f" d="m2.70313-2.03125.78125.78125 3.25-3.26562L10-1.25l.75-.78125-3.23437-3.25L10.75-8.54687l-.75-.75L6.73438-6.0625l-3.25-3.23437-.78125.75 3.26562 3.26562Zm0 0"/><clipPath id="a"><path d="M45 .02734h114V98H45Zm0 0"/></clipPath><clipPath id="e"><path d="M392 20h165v158.9336H392Zm0 0"/></clipPath></defs><g clip-path="url(#a)"><path fill="none" stroke="#000" stroke-miterlimit="10" stroke-width=".39834" d="M51.20315 92.03124 153.211 35.92575 102.20708.22261Zm0 0"/></g><path fill="none" stroke="#000" stroke-miterlimit="10" stroke-width=".39834" d="m.19922 102.23047 255.01965-51.00393"/><use xlink:href="#b" x="241.39102" y="72.56573"/><use xlink:href="#c" x="249.03928" y="72.56573"/><use xlink:href="#d" x="261.38805" y="72.56573"/><path fill="none" stroke="#000" stroke-miterlimit="10" stroke-width=".39834" d="M459.23068 76.73046c0-28.1719-22.83204-51.00393-51.00393-51.00393-28.16798 0-51.00393 22.83204-51.00393 51.00393 0 28.16798 22.83595 51.00393 51.00393 51.00393 28.1719 0 51.00393-22.83595 51.00393-51.00393Zm0 0"/><g clip-path="url(#e)"><path fill="none" stroke="#000" stroke-miterlimit="10" stroke-width=".39834" d="m398.02753 178.73832 153.01179-153.0118"/></g><use xlink:href="#b" x="558.0681" y="47.06387"/><use xlink:href="#c" x="565.71636" y="47.06387"/><use xlink:href="#d" x="578.06513" y="47.06387"/><use xlink:href="#f" x="401.49136" y="81.38022"/><path fill="none" stroke="#000" stroke-miterlimit="10" stroke-width=".39834" d="M693.84798 127.73439h102.00786L719.3519 51.22654Zm-51.00393-25.50392h204.01572"/><use xlink:href="#b" x="833.02577" y="91.44922"/><use xlink:href="#c" x="840.67404" y="91.44922"/><use xlink:href="#d" x="853.0228" y="91.44922"/></svg>