<svg xmlns="http://www.w3.org/2000/svg" xmlns:xlink="http://www.w3.org/1999/xlink" width="103.087pt" height="94.817pt" viewBox="0 0 103.087 94.817"><defs><path id="a" d="m1.75-1.3125.5.5 2.09375-2.10937L6.45313-.8125l.48437-.5-2.09375-2.09375L6.9375-5.51562 6.45313-6 4.34375-3.90625 2.25-6l-.5.48438 2.10938 2.10937Zm0 0"/><path id="b" d="M-.23437 0h2.71875l.07812-.34375-.65625-.0625C1.75-.42187 1.6875-.5 1.6875-.60937c0-.07813.01563-.15626.0625-.25.39063-.76563.78125-1.5625 1.23438-2.35938H5.6875l.29688 2.48438s-.0625.29687-.3125.32812l-.65625.0625L4.95313 0h2.96875L8-.34375l-.45312-.04687c-.375-.03125-.4375-.20313-.5-.70313l-.875-7.25h-.875L3.28125-4.79687c-.625 1.07812-1.625 2.89062-2.07812 3.60937-.375.625-.59375.75-.95313.79688l-.40625.04687Zm3.45312-3.6875L5.1875-7.23437 5.625-3.6875Zm0 0"/><path id="d" d="M0 0h3.65625c2.92188 0 3.51563-1.5 3.51563-2.5 0-1.28125-.9375-1.82812-1.82813-2l.01563-.01562C6.96875-4.71875 7.64063-5.625 7.64063-6.53125c0-.98437-.57813-1.8125-2.79688-1.8125h-3.0625L1.70313-8l.71875.0625c.21875.01563.29687.10938.29687.29688 0 .07812-.01562.17187-.04687.29687L1.25-1c-.09375.39063-.20312.53125-.5.57813l-.6875.07812Zm2.42188-.92187c0-.09376 0-.1875.03125-.26563l.6875-3.10937H3.625c1.1875 0 2.25.35937 2.25 1.73437 0 1.07813-.65625 2.14063-2.28125 2.14063-.95312 0-1.17187-.1875-1.17187-.5m.8125-3.79688.625-2.79687c.09375-.35938.15625-.42188.96875-.42188 1.01562 0 1.57812.51563 1.57812 1.35938 0 1.26562-1.04687 1.85937-2.39062 1.85937Zm0 0"/><path id="e" d="M1.04688-3.40625c0 2.71875.60937 5.71875 3.17187 5.82813V2.0625C3.35938 1.89063 2 .82813 2-3.40625c0-4.20312 1.28125-5.26562 2.21875-5.45312v-.35938C1.65625-9.125 1.04688-6.125 1.04688-3.40625m0 0"/><path id="f" d="M.90625-1.45312c0 .78125.21875 1.59375 1.20313 1.59375 1.39062 0 2.46875-1.46875 3.17187-2.78125h.01563L4.90625-1.1875c-.0625.23438-.10937.45313-.10937.64063 0 .4375.21875.6875.64062.6875.95313 0 1.57813-.82813 1.98438-1.73438l-.28125-.17187c-.21875.4375-.75 1.28125-1.09375 1.28125-.14063 0-.1875-.09375-.1875-.23438 0-.10937.03125-.25.07812-.42187l1.89063-7.76563-.0625-.04687-2.14063.28125-.0625.28125.71875.0625c.1875.01562.26563.0625.26563.20312 0 .07813-.01563.17188-.04688.29688L6.03125-5.875l-.01562.01563C5.78125-5.96875 5.40625-6.0625 5-6.0625c-2.8125 0-4.09375 3.14063-4.09375 4.60938m1.1875.10937c0-1.3125 1.04688-4.29687 2.98438-4.29687.375 0 .6875.125.82812.25-.17187.92187-.57812 2.0625-1.1875 3.0625-.57812.9375-1.375 1.84375-2.01562 1.84375-.39063 0-.60938-.32813-.60938-.85938m0 0"/><path id="g" d="M.71875 2.0625v.35938C3.28125 2.3125 3.89063-.6875 3.89063-3.40625S3.28125-9.125.71875-9.21875v.35938c.92188.1875 2.20313 1.25 2.20313 5.45312 0 4.23438-1.34375 5.29688-2.20313 5.46875m0 0"/><path id="c" d="M.375-.125c0 .04688.09375.125.21875.125.07813 0 .20313-.01562.21875-.07812L2.32813-3.9375c.04687-.125.0625-.1875.0625-.23437 0-.17188-.28125-.25-.54688-.25-.25 0-.65625.09375-.67187.26562Zm0 0"/></defs><use xlink:href="#a" x="12.75503" y="20.48198"/><use xlink:href="#b" x="4.2791" y="12.9487"/><use xlink:href="#a" x="71.21032" y="78.93726"/><use xlink:href="#b" x="80.08472" y="90.03101"/><use xlink:href="#c" x="88.87804" y="84.89599"/><use xlink:href="#a" x="60.24939" y="31.4429"/><use xlink:href="#d" x="52.15806" y="23.90962"/><use xlink:href="#e" x="80.08472" y="31.23772"/><use xlink:href="#f" x="85.01441" y="31.23772"/><use xlink:href="#g" x="92.97381" y="31.23772"/><path fill="none" stroke="red" stroke-miterlimit="10" stroke-width=".395" d="m51.48828 41.54688-5.16797-5.16797-5.16406 5.16797"/><path fill="none" stroke="#000" stroke-miterlimit="10" stroke-width=".395" d="m17.09375 75.9375 58.45703-58.45312m-58.45703 0L75.55078 75.9375"/><path fill="none" stroke="red" stroke-miterlimit="10" stroke-width=".395" d="m29.4414 34.02344 4.53907-3.84375m24.68359 33.0625 4.53906-3.83985"/></svg>