<svg xmlns="http://www.w3.org/2000/svg" xmlns:xlink="http://www.w3.org/1999/xlink" width="107.692pt" height="84.983pt" viewBox="0 0 107.692 84.983"><defs><path id="a" d="m1.6875-1.26562.48438.48437L4.20313-2.8125 6.23438-.78125l.46875-.48437L4.6875-3.29687l2.01563-2.03125-.46875-.46875-2.03125 2.01562-2.03125-2.01562-.48438.46875 2.03125 2.03125Zm0 0"/><path id="b" d="M-.21875 0h2.625l.07813-.32812-.64063-.0625C1.6875-.40625 1.625-.48437 1.625-.59375c0-.0625.03125-.15625.0625-.23437.39063-.75.76563-1.5 1.1875-2.29688H5.5l.28125 2.42188s-.0625.28124-.29687.3125l-.625.0625L4.79688 0h2.875l.0625-.32812-.4375-.04688C6.9375-.40625 6.875-.57812 6.8125-1.0625l-.84375-7.01562H5.125l-1.95312 3.4375c-.59375 1.04687-1.5625 2.79687-2 3.48437-.375.60938-.57813.73438-.9375.76563l-.39063.0625ZM3.125-3.5625 5.01563-7l.42187 3.4375Zm0 0"/><path id="c" d="M.375-3.15625C.375-1.23437 1.48438.17188 3.79688.17188c2.0625 0 3.07812-1.04688 3.71875-2.20313s.75-2.34375.75-2.79687c0-2.40625-1.45313-3.4375-3.39063-3.4375-1.85937 0-3.01562 1.03125-3.6875 2.15625C.53125-5.03125.375-3.92187.375-3.15625m1.23438.46875c0-.98437.17187-2.0625.71875-3.20312C2.85938-7 3.6875-7.84375 4.9375-7.84375c1.26563 0 2.09375.75 2.09375 2.40625 0 .67188-.0625 1.625-.54687 2.85938C6-1.3125 5.20313-.23437 3.6875-.23437c-1.26562 0-2.07812-.82813-2.07812-2.45313m0 0"/><path id="d" d="M.35938-.125c0 .04688.09375.125.21875.125.0625 0 .1875-.01562.21874-.0625L2.25-3.8125c.04688-.10937.0625-.1875.0625-.21875 0-.17187-.26562-.25-.51562-.25s-.64063.10938-.67188.26563Zm0 0"/></defs><use xlink:href="#a" x="12.33871" y="10.05028"/><use xlink:href="#b" x="4.13916" y="19.60994"/><use xlink:href="#a" x="47.67066" y="45.38223"/><use xlink:href="#c" x="47.552" y="37.92157"/><use xlink:href="#a" x="83.00261" y="80.71418"/><use xlink:href="#b" x="91.58706" y="73.42802"/><use xlink:href="#d" x="100.09273" y="68.46098"/><path fill="none" stroke="#000" stroke-miterlimit="10" stroke-width=".39736" d="M16.53516 7.14844 87.19921 77.8164"/><path fill="none" stroke="red" stroke-miterlimit="10" stroke-width=".39736" d="M30.22266 24.8125h7.94922M65.5586 60.14453h7.9453"/></svg>