<svg xmlns="http://www.w3.org/2000/svg" xmlns:xlink="http://www.w3.org/1999/xlink" width="867.655pt" height="219.799pt" viewBox="0 0 867.655 219.799"><defs><path id="b" d="M1.60938-5.28125c0 4.21875.95312 8.85938 4.92187 9.03125v-.5625c-1.32812-.26562-3.42187-1.90625-3.42187-8.46875 0-6.5 1.98437-8.15625 3.42187-8.45312v-.5625C2.5625-14.14062 1.60938-9.5 1.60938-5.28125m0 0"/><path id="c" d="M1.39063-2.25c0 1.21875.35937 2.46875 1.875 2.46875 2.15625 0 3.82812-2.28125 4.92187-4.29687h.03125l-.60937 2.23437c-.10938.375-.17188.70313-.17188.98438 0 .70312.32813 1.07812.98438 1.07812 1.46875 0 2.45312-1.28125 3.07812-2.6875l-.4375-.26562C10.73438-2.0625 9.89063-.75 9.375-.75c-.21875 0-.29687-.14062-.29687-.35937 0-.1875.0625-.40625.125-.65625l2.9375-12.03125-.09375-.07813-3.32813.4375L8.625-13l1.10938.09375c.29687.03125.42187.10938.42187.32813 0 .09375-.03125.25-.07812.45312l-.71875 3.01563-.04688.03125c-.35937-.17188-.9375-.3125-1.5625-.3125-4.35937 0-6.35937 4.875-6.35937 7.14062M3.25-2.09375c0-2.03125 1.625-6.64062 4.60938-6.64062.57812 0 1.07812.17187 1.29687.375-.28125 1.4375-.89062 3.20312-1.84375 4.75C6.40625-2.15625 5.17188-.75 4.1875-.75c-.60937 0-.9375-.5-.9375-1.34375m0 0"/><path id="d" d="M1.10938 3.1875V3.75c3.96875-.17187 4.92187-4.8125 4.92187-9.03125s-.95312-8.85937-4.92187-9.01562v.5625c1.4375.29687 3.42187 1.95312 3.42187 8.45312 0 6.5625-2.07812 8.20313-3.42187 8.46875m0 0"/><path id="e" d="m2.70313-2.03125.78125.78125 3.25-3.26562L10-1.25l.75-.78125-3.25-3.25 3.25-3.26562-.75-.75-3.26562 3.25-3.25-3.25-.78125.75 3.26562 3.26562Zm0 0"/><clipPath id="a"><path d="M.22266 45H261v63H.22266Zm0 0"/></clipPath><clipPath id="f"><path d="M443 111h114v108.59766H443Zm0 0"/></clipPath></defs><path fill="none" stroke="#000" stroke-miterlimit="10" stroke-width=".39814" d="m51.39842 91.95703 101.957-56.0742L102.37886.19927Zm0 0"/><g clip-path="url(#a)"><path fill="none" stroke="#000" stroke-miterlimit="10" stroke-width=".39814" d="M.42187 102.15234 255.3085 51.1758"/></g><use xlink:href="#b" x="241.49039" y="72.5027"/><use xlink:href="#c" x="249.1347" y="72.5027"/><use xlink:href="#d" x="261.47709" y="72.5027"/><path fill="none" stroke="#000" stroke-miterlimit="10" stroke-width=".39814" d="m51.39451 91.96094 115.66793 12.55078-33.32811 52.53904Zm407.82407-15.29687c0-28.15624-22.8242-50.97654-50.97654-50.97654-28.15624 0-50.97655 22.8203-50.97655 50.97654 0 28.15234 22.8203 50.97655 50.97655 50.97655 28.15233 0 50.97654-22.82421 50.97654-50.97655Zm-61.17185 101.95309L550.97636 25.68753"/><use xlink:href="#b" x="558.00394" y="47.01401"/><use xlink:href="#c" x="565.64826" y="47.01401"/><use xlink:href="#d" x="577.99065" y="47.01401"/><use xlink:href="#e" x="401.50806" y="81.31264"/><g clip-path="url(#f)"><path fill="none" stroke="#000" stroke-miterlimit="10" stroke-width=".39814" d="M499.99982 117.4453c28.15624 0 50.97654 22.82422 50.97654 50.97655 0 28.15624-22.8203 50.98045-50.97654 50.98045-28.15234 0-50.97655-22.82421-50.97655-50.98045 0-28.15233 22.82421-50.97654 50.97655-50.97654Zm0 0"/></g><use xlink:href="#e" x="493.26614" y="173.07073"/><path fill="none" stroke="#000" stroke-miterlimit="10" stroke-width=".39814" d="M693.7146 127.64062h101.95308L719.20286 51.1758Zm-50.97655-25.48828h203.90617"/><use xlink:href="#b" x="832.81963" y="91.37744"/><use xlink:href="#c" x="840.46395" y="91.37744"/><use xlink:href="#d" x="852.80634" y="91.37744"/><path fill="none" stroke="#000" stroke-miterlimit="10" stroke-width=".39814" d="M693.7146 76.66407h101.95308l-76.46482 76.46482Zm0 0"/></svg>