<svg xmlns="http://www.w3.org/2000/svg" xmlns:xlink="http://www.w3.org/1999/xlink" width="160.906pt" height="55.674pt" viewBox="0 0 160.906 55.674"><defs><path id="c" d="M1.04688-3.40625c0 2.71875.60937 5.71875 3.17187 5.82813V2.0625C3.35938 1.89063 2.01563.82813 2.01563-3.40625c0-4.21875 1.28125-5.28125 2.20312-5.48437V-9.25c-2.5625.10938-3.17187 3.10938-3.17187 5.84375m0 0"/><path id="d" d="M.90625-1.45312c0 .78125.23438 1.59375 1.20313 1.59375 1.39062 0 2.46875-1.48438 3.1875-2.78125h.01562l-.39062 1.4375c-.0625.25-.10938.46875-.10938.65625 0 .4375.20313.6875.64063.6875.95312 0 1.57812-.82813 1.98437-1.73438l-.28125-.17187c-.21875.42187-.75 1.28125-1.09375 1.28125-.14062 0-.1875-.09375-.1875-.23438 0-.125.03125-.26562.07813-.42187l1.90625-7.78125-.0625-.04688-2.15625.28125-.0625.28125.71875.0625c.1875.01563.26562.0625.26562.20313 0 .0625-.01562.17187-.04687.29687l-.46875 1.95313-.01563.01562c-.23437-.10937-.60937-.20312-1.01562-.20312-2.82813 0-4.10938 3.15625-4.10938 4.625m1.1875.09374c0-1.3125 1.0625-4.29687 2.98438-4.29687.375 0 .70312.125.84375.25-.17188.92188-.57813 2.07813-1.20313 3.07813-.57812.9375-1.375 1.84375-2.01562 1.84375-.39063 0-.60938-.32813-.60938-.875m0 0"/><path id="e" d="M.71875 2.0625v.35938c2.5625-.10938 3.1875-3.10938 3.1875-5.82813 0-2.73437-.625-5.73437-3.1875-5.84375v.35938C1.64063-8.6875 2.9375-7.625 2.9375-3.40625c0 4.23438-1.35937 5.29688-2.21875 5.46875m0 0"/><clipPath id="a"><path d="M31 0h86v55.35156H31Zm0 0"/></clipPath><clipPath id="b"><path d="M.42188 36H148v2H.42188Zm0 0"/></clipPath></defs><g clip-path="url(#a)"><path fill="none" stroke="#000" stroke-miterlimit="10" stroke-width=".39618" d="M37.25783 55.15235h73.26956L55.57424.1992Zm0 0"/></g><g clip-path="url(#b)"><path fill="none" stroke="#000" stroke-miterlimit="10" stroke-width=".39618" d="M.6211 36.83594h146.54303"/></g><use xlink:href="#c" x="138.2277" y="29.86413"/><use xlink:href="#d" x="143.1721" y="29.86413"/><use xlink:href="#e" x="151.15524" y="29.86413"/></svg>