<svg xmlns="http://www.w3.org/2000/svg" xmlns:xlink="http://www.w3.org/1999/xlink" width="745.338pt" height="168.775pt" viewBox="0 0 745.338 168.775"><defs><clipPath id="a"><path d="M.16406 71H108v97.55078H.16406Zm0 0"/></clipPath><clipPath id="d"><path d="M636 20h108.51172v88H636Zm0 0"/></clipPath><path id="b" d="m2.70313-2.03125.78125.78125 3.25-3.26562L10-1.25l.75-.78125-3.25-3.25 3.25-3.26562-.75-.75-3.26562 3.25-3.25-3.25-.78125.75 3.26562 3.26562Zm0 0"/><path id="c" d="M.59375-5.0625c0 3.09375 1.78125 5.34375 5.5 5.34375 3.29688 0 4.92188-1.6875 5.95313-3.54687C13.0625-5.09375 13.23438-7 13.23438-7.75c0-3.82812-2.32813-5.48437-5.40625-5.48437-2.98438 0-4.84375 1.65625-5.9375 3.4375C.85938-8.0625.59375-6.29687.59375-5.0625m1.96875.76563c0-1.57813.29688-3.32813 1.15625-5.14063.85938-1.76562 2.1875-3.14062 4.1875-3.14062 2.04688 0 3.35938 1.21875 3.35938 3.85937 0 1.07813-.09375 2.60938-.875 4.59375-.78125 2.01563-2.04688 3.75-4.48438 3.75C3.875-.375 2.5625-1.6875 2.5625-4.29687m0 0"/></defs><g clip-path="url(#a)"><path fill="none" stroke="#000" stroke-miterlimit="10" stroke-width=".39797" d="m.3633 168.3516 101.89847-56.043-50.94142-35.67579Zm0 0"/></g><use xlink:href="#b" x="95.53246" y="116.95408"/><use xlink:href="#c" x="95.34271" y="104.99902"/><path fill="none" stroke="#000" stroke-miterlimit="10" stroke-width=".39797" d="M408.01188 51.15233c0-28.14063-22.8125-50.95314-50.95314-50.95314-28.14454 0-50.95705 22.8125-50.95705 50.95314 0 28.14455 22.81251 50.95705 50.95705 50.95705 28.14064 0 50.95314-22.8125 50.95314-50.95705Zm0 0"/><use xlink:href="#b" x="416.56848" y="132.22772"/><use xlink:href="#c" x="402.43432" y="147.8439"/><use xlink:href="#b" x="350.32579" y="55.80061"/><g clip-path="url(#d)"><path fill="none" stroke="#000" stroke-miterlimit="10" stroke-width=".39797" d="M642.4104 102.10938h101.9141l-76.4336-76.43362Zm0 0"/></g><use xlink:href="#b" x="661.14542" y="81.27765"/><use xlink:href="#c" x="674.90108" y="96.89483"/></svg>