<svg xmlns="http://www.w3.org/2000/svg" xmlns:xlink="http://www.w3.org/1999/xlink" width="1148.429" height="223.627" viewBox="0 0 1148.429 223.627"><defs><clipPath id="a"><path d="M.67188 0H543v223.2539H.67188Zm0 0"/></clipPath><clipPath id="d"><path d="M605 0h542.1875v223.2539H605Zm0 0"/></clipPath><clipPath id="e"><path d="M924.14453 32.03516h191.02344v95.5078H924.14453Zm0 0"/></clipPath><clipPath id="f"><path d="M924.14453 127h191.02344v.54297H924.14453Zm0 0"/></clipPath><path id="b" d="M-.40625 0h4.75l.125-.60937L3.3125-.71875c-.26562-.01562-.375-.15625-.375-.35937 0-.10938.03125-.26563.10938-.42188.6875-1.34375 1.35937-2.70312 2.14062-4.10937h4.71875l.51563 4.32812s-.10938.51563-.54688.5625L8.75-.60937 8.64063 0h5.17187l.125-.60937-.79687-.0625c-.65625-.0625-.75-.35938-.85938-1.23438l-1.54687-12.64062h-1.5L5.70313-8.34375c-1.07813 1.875-2.8125 5.01563-3.59375 6.26563C1.4375-.98437 1.07813-.76562.42188-.6875l-.6875.07813Zm6.01563-6.42187 3.4375-6.17188.75 6.17188Zm0 0"/><path id="c" d="M0 0h6.375c5.07813 0 6.10938-2.625 6.10938-4.35937 0-2.21875-1.625-3.1875-3.17188-3.46875l.01563-.04688c2.79687-.34375 3.98437-1.92187 3.98437-3.51562 0-1.70313-1-3.15625-4.875-3.15625H3.10938l-.14063.60937 1.26563.10938c.35937.01562.51562.17187.51562.51562 0 .14063-.04687.3125-.09375.51563L2.17188-1.75c-.15625.70313-.35938.9375-.875 1.01563l-1.1875.125Zm4.20313-1.60937c0-.15626.03125-.3125.07812-.46875l1.20313-5.39063h.82812c2.07813 0 3.90625.59375 3.90625 3 0 1.875-1.14062 3.73438-3.95312 3.73438-1.65625 0-2.0625-.34375-2.0625-.875m1.4375-6.60938 1.09375-4.875c.15625-.625.26562-.73437 1.67187-.73437 1.78125 0 2.76563.89062 2.76563 2.375 0 2.1875-1.84375 3.23437-4.17188 3.23437Zm0 0"/></defs><g stroke="#000" stroke-miterlimit="10" stroke-width=".39783" clip-path="url(#a)"><path fill="#FFF" d="M.8711 223.05469V.19527h541.23056V223.0547Zm0 0"/><path fill="none" stroke-dasharray=".39783450500000006 1.9892224415000002" d="M.8711 223.05469h541.23056M.87109 191.21874h541.23057M.87109 159.3828h541.23057M.87109 127.54295h541.23057M.87109 95.70701h541.23057M.87109 63.87106h541.23057M.87109 32.03512h541.23057M.87109.19527h541.23057M.87109 223.0547V.19527M32.70704 223.0547V.19527M64.54298 223.0547V.19527M96.38283 223.0547V.19527m31.83594 222.85942V.19527m31.83595 222.85942V.19527m31.83594 222.85942V.19527m31.83985 222.85942V.19527m31.83594 222.85942V.19527M287.4024 223.0547V.19527m31.83594 222.85942V.19527m31.83985 222.85942V.19527m31.83594 222.85942V.19527m31.83594 222.85942V.19527m31.83985 222.85942V.19527m31.83595 222.85942V.19527M510.2618 223.0547V.19527m31.83594 222.85942V.19527"/></g><path fill="none" stroke="#007F7F" stroke-miterlimit="10" stroke-width=".39783" d="m191.89066 191.21874 190.58988-31.76563"/><path fill="none" stroke="#007F7F" stroke-linecap="round" stroke-linejoin="round" stroke-miterlimit="10" stroke-width=".39781" d="M380.2461 157.40625c.60546 1.35156 1.54687 1.8789 2.42968 2.01562-.78906.41407-1.50781 1.21875-1.64453 2.69532"/><path fill="none" stroke="#000" stroke-miterlimit="10" stroke-width=".39783" d="m32.70704 159.3828 159.18362-31.83985-63.67189-63.67189Zm0 0"/><use xlink:href="#b" x="169.5295" y="198.49592" fill="#007F7F"/><use xlink:href="#c" x="390.73454" y="166.669" fill="#007F7F"/><g stroke="#000" stroke-miterlimit="10" stroke-width=".39783" clip-path="url(#d)"><path fill="#FFF" d="M605.77355 223.05469V.19527h541.23056V223.0547Zm0 0"/><path fill="none" stroke-dasharray=".39783450500000006 1.9892224415000002" d="M605.77355 223.05469h541.23056m-541.23056-31.83595h541.23056M605.77355 159.3828h541.23056m-541.23056-31.83985h541.23056M605.77355 95.70701h541.23056M605.77355 63.87106h541.23056M605.77355 32.03512h541.23056M605.77355.19527h541.23056M605.77355 223.0547V.19527m31.83594 222.85942V.19527m31.83985 222.85942V.19527m31.83594 222.85942V.19527m31.83595 222.85942V.19527m31.83984 222.85942V.19527m31.83595 222.85942V.19527m31.83594 222.85942V.19527M860.4689 223.0547V.19527m31.83985 222.85942V.19527M924.1447 223.0547V.19527m31.83594 222.85942V.19527m31.83985 222.85942V.19527m31.83594 222.85942V.19527m31.83595 222.85942V.19527m31.83594 222.85942V.19527m31.83985 222.85942V.19527m31.83594 222.85942V.19527"/></g><path fill="none" stroke="#007F7F" stroke-miterlimit="10" stroke-width=".39783" d="M987.82049 191.21874H733.51966"/><path fill="none" stroke="#007F7F" stroke-linecap="round" stroke-linejoin="round" stroke-miterlimit="10" stroke-width=".39783" d="M735.39063 193.60547c-.37891-1.4336-1.22266-2.10938-2.07032-2.38672.84766-.27734 1.6914-.95313 2.07032-2.38672"/><g clip-path="url(#e)"><path fill="none" stroke="#000" stroke-miterlimit="10" stroke-width=".39783" d="M1115.16817 127.54295c0-52.75-42.76173-95.50783-95.51174-95.50783-52.75 0-95.51173 42.75782-95.51173 95.50783s42.76172 95.51174 95.51173 95.51174 95.51174-42.76173 95.51174-95.51174Zm0 0"/></g><g clip-path="url(#f)"><path fill="none" stroke="#000" stroke-miterlimit="10" stroke-width=".39783" d="M924.1447 127.54295h191.02347"/></g><use xlink:href="#b" x="995.67153" y="198.49592" fill="#007F7F"/><use xlink:href="#c" x="711.43063" y="198.49592" fill="#007F7F"/></svg>