<svg xmlns="http://www.w3.org/2000/svg" xmlns:xlink="http://www.w3.org/1999/xlink" width="838.453" height="189.822" viewBox="0 0 838.453 189.822"><defs><clipPath id="a"><path d="M.1211 80H121v109.64453H.1211Zm0 0"/></clipPath><clipPath id="d"><path d="M717 23h120.78516v98H717Zm0 0"/></clipPath><path id="b" d="m3.04688-2.28125.875.875L7.5625-5.07812l3.67188 3.67187.85937-.875L8.4375-5.9375l3.65625-3.67187-.85937-.84375L7.5625-6.8125l-3.64062-3.64062-.875.84375L6.71875-5.9375Zm0 0"/><path id="c" d="M.67188-5.6875c0 3.46875 2 6 6.17187 6 3.71875 0 5.53125-1.90625 6.70313-3.98437 1.14062-2.0625 1.34375-4.20313 1.34375-5.03125 0-4.32813-2.625-6.1875-6.09375-6.1875-3.35938 0-5.4375 1.85937-6.67188 3.875C.96875-9.0625.67188-7.07812.67188-5.6875m2.21875.84375c0-1.76562.32812-3.73437 1.29687-5.76562.96875-2 2.46875-3.54688 4.70313-3.54688 2.29687 0 3.78125 1.375 3.78125 4.34375 0 1.21875-.10938 2.9375-.98438 5.17188C10.8125-2.375 9.375-.42187 6.65625-.42187c-2.29687 0-3.76562-1.48438-3.76562-4.42188m0 0"/></defs><g clip-path="url(#a)"><path fill="none" stroke="#000" stroke-miterlimit="10" stroke-width=".39813" d="m.3203 189.4453 114.68358-63.07812-57.33593-40.14843Zm0 0"/></g><use xlink:href="#b" x="107.43387" y="131.5966"/><use xlink:href="#c" x="107.22107" y="118.14122"/><path fill="none" stroke="#000" stroke-miterlimit="10" stroke-width=".39813" d="M459.10148 57.54688c0-31.67187-25.67578-57.34765-57.34765-57.34765S344.4062 25.87501 344.4062 57.54688s25.67577 57.34765 57.34764 57.34765 57.34765-25.67578 57.34765-57.34765Zm0 0"/><use xlink:href="#b" x="468.73108" y="148.79347"/><use xlink:href="#c" x="452.824" y="166.36899"/><use xlink:href="#b" x="394.17899" y="62.77613"/><g clip-path="url(#d)"><path fill="none" stroke="#000" stroke-miterlimit="10" stroke-width=".39813" d="M722.90222 114.89453h114.6953L751.578 28.8711Zm0 0"/></g><use xlink:href="#b" x="743.99296" y="91.44925"/><use xlink:href="#c" x="759.47444" y="109.02477"/></svg>