<svg xmlns="http://www.w3.org/2000/svg" xmlns:xlink="http://www.w3.org/1999/xlink" width="169.911pt" height="228.643pt" viewBox="0 0 169.911 228.643"><defs><clipPath id="a"><path d="M.08984 38H80v86H.08984Zm0 0"/></clipPath><clipPath id="b"><path d="M90 148h79.73438v80.28516H90Zm0 0"/></clipPath><path id="c" d="m1.76563-1.3125.5.5L4.375-2.9375 6.5-.8125l.48438-.5L4.875-3.42187l2.10938-2.125-.48438-.5L4.375-3.9375 2.26563-6.04687l-.5.5 2.10937 2.125Zm0 0"/><path id="d" d="M.39063-3.28125c0 2 1.15625 3.46875 3.5625 3.46875 2.15625 0 3.20312-1.10937 3.875-2.3125.65625-1.1875.78125-2.42187.78125-2.90625 0-2.5-1.51563-3.57812-3.53125-3.57812-1.9375 0-3.14063 1.07812-3.84375 2.25C.5625-5.23437.39063-4.09375.39063-3.28125m1.28125.48438c0-1.01563.1875-2.15625.75-3.32813.54687-1.15625 1.42187-2.04687 2.71875-2.04687 1.32812 0 2.1875.78125 2.1875 2.5 0 .70312-.0625 1.70312-.57813 3C6.25-1.375 5.42188-.25 3.84375-.25c-1.32812 0-2.17187-.84375-2.17187-2.54687m0 0"/></defs><g clip-path="url(#a)"><path fill="none" stroke="#000" stroke-miterlimit="10" stroke-width=".39788" d="M73.87889 80.91406c0-20.3203-16.47266-36.79296-36.79687-36.79296C16.7617 44.1211.28905 60.59375.28905 80.91406s16.47266 36.79297 36.79297 36.79297c20.32421 0 36.79687-16.47265 36.79687-36.79297Zm0 0"/></g><g clip-path="url(#b)"><path fill="none" stroke="#000" stroke-miterlimit="10" stroke-width=".39788" d="M169.53904 191.29687c0-20.32031-16.47265-36.79297-36.79297-36.79297-20.3203 0-36.79296 16.47266-36.79296 36.79297s16.47265 36.79297 36.79296 36.79297 36.79297-16.47266 36.79297-36.79297Zm0 0"/></g><use xlink:href="#c" x="80.54039" y="139.13176"/><use xlink:href="#d" x="71.35474" y="149.27992"/><use xlink:href="#c" x="32.70908" y="83.93494"/><use xlink:href="#c" x="128.37171" y="10.34884"/></svg>