<svg xmlns="http://www.w3.org/2000/svg" xmlns:xlink="http://www.w3.org/1999/xlink" width="838.453pt" height="357.31pt" viewBox="0 0 838.453 357.31"><defs><clipPath id="a"><path d="M.53516 150H121v115H.53516Zm0 0"/></clipPath><clipPath id="d"><path d="M487 236h127v120.6211H487Zm0 0"/></clipPath><clipPath id="e"><path d="M716 92h121.3711v99H716Zm0 0"/></clipPath><path id="b" d="m3.04688-2.28125.875.875L7.5625-5.07812l3.67188 3.67187.84375-.875L8.4375-5.92187l3.64063-3.67188-.84375-.85937L7.5625-6.79687l-3.64062-3.65625-.875.85937 3.67187 3.67188Zm0 0"/><path id="c" d="M.67188-5.6875c0 3.46875 1.98437 6 6.17187 6 3.71875 0 5.53125-1.90625 6.6875-3.98437C14.67188-5.73437 14.875-7.875 14.875-8.70312c0-4.3125-2.60937-6.17188-6.07812-6.17188-3.35938 0-5.4375 1.85938-6.67188 3.85938C.96875-9.0625.67188-7.07812.67188-5.6875m2.21875.85938c0-1.76563.32812-3.73438 1.29687-5.78125.95313-1.98438 2.45313-3.53125 4.70313-3.53125 2.29687 0 3.78125 1.35937 3.78125 4.34375 0 1.20312-.125 2.92187-.98438 5.17187-.875 2.25-2.3125 4.20313-5.04687 4.20313-2.28125 0-3.75-1.48438-3.75-4.40625m0 0"/></defs><g clip-path="url(#a)"><path fill="none" stroke="#000" stroke-miterlimit="10" stroke-width=".39773" d="m.7344 259.03129 114.57426-63.01956-57.28518-40.10548Zm0 0"/></g><path fill="none" stroke="#000" stroke-miterlimit="10" stroke-width=".39773" d="m229.89854 132.98827-57.28908 103.12504-57.3008-40.10158Zm0 0"/><use xlink:href="#b" x="107.743" y="201.23739"/><use xlink:href="#c" x="107.53042" y="187.79635"/><path fill="none" stroke="#000" stroke-miterlimit="10" stroke-width=".39773" d="M459.0627 127.2617c0-31.64454-25.64845-57.29298-57.2891-57.29298-31.64453 0-57.29298 25.64844-57.29298 57.29299 0 31.64063 25.64845 57.28908 57.29299 57.28908 31.64064 0 57.28908-25.64845 57.28908-57.28908Zm0 0"/><g clip-path="url(#d)"><path fill="none" stroke="#000" stroke-miterlimit="10" stroke-width=".39773" d="M608.01978 299.13287c0-31.64064-25.64845-57.28909-57.28908-57.28909-31.64455 0-57.293 25.64845-57.293 57.28909s25.64845 57.29299 57.293 57.29299c31.64063 0 57.28908-25.65236 57.28908-57.293Zm0 0"/></g><use xlink:href="#b" x="468.682" y="218.41721"/><use xlink:href="#c" x="452.79068" y="235.97531"/><use xlink:href="#b" x="394.20382" y="132.48516"/><use xlink:href="#b" x="543.15917" y="17.90442"/><g clip-path="url(#e)"><path fill="none" stroke="#000" stroke-miterlimit="10" stroke-width=".39773" d="M722.60185 184.5508h114.58208L751.2464 98.61325Zm0 0"/></g><path fill="none" stroke="#000" stroke-miterlimit="10" stroke-width=".39773" d="m751.2464 213.19533 28.64844-85.93362H665.31277Zm0 0"/><use xlink:href="#b" x="743.67097" y="161.13084"/><use xlink:href="#c" x="759.1371" y="178.68893"/></svg>