<svg xmlns="http://www.w3.org/2000/svg" xmlns:xlink="http://www.w3.org/1999/xlink" width="110.95pt" height="74.099pt" viewBox="0 0 110.95 74.099"><defs><clipPath id="a"><path d="M31 0h79.25781v61H31Zm0 0"/></clipPath><clipPath id="b"><path d="M.64063 12H80v61.20703H.64063Zm0 0"/></clipPath><path id="c" d="m1.73438-1.3125.5.5 2.09375-2.09375L6.42188-.8125l.48437-.5-2.07812-2.07812 2.07812-2.09375-.48437-.48438-2.09375 2.07813-2.09375-2.07813-.5.48438 2.10937 2.09375Zm0 0"/><path id="d" d="M.39063-3.25c0 1.98438 1.125 3.42188 3.53125 3.42188 2.125 0 3.15625-1.07813 3.8125-2.26563S8.51563-4.5 8.51563-4.98437c0-2.46875-1.5-3.53125-3.48438-3.53125-1.92187 0-3.10937 1.0625-3.8125 2.21875C.54688-5.1875.39063-4.04687.39063-3.25m1.26562.48438c0-1.01563.1875-2.14063.73438-3.29688.54687-1.14062 1.40625-2.03125 2.6875-2.03125 1.32812 0 2.17187.78125 2.17187 2.48438 0 .70312-.07812 1.6875-.5625 2.95312C6.1875-1.35937 5.35938-.25 3.79688-.25 2.5-.25 1.65625-1.09375 1.65625-2.76562m0 0"/></defs><g clip-path="url(#a)"><path fill="none" stroke="#000" stroke-miterlimit="10" stroke-width=".39371" d="M37.25407 54.8086h72.81643L55.4572.1953Zm0 0"/></g><g clip-path="url(#b)"><path fill="none" stroke="#000" stroke-miterlimit="10" stroke-width=".39371" d="m55.4572 73.01173 18.20314-54.6133H.8439Zm0 0"/></g><use xlink:href="#c" x="51.13576" y="39.59159"/><use xlink:href="#d" x="59.98121" y="49.63447"/></svg>