<svg xmlns="http://www.w3.org/2000/svg" xmlns:xlink="http://www.w3.org/1999/xlink" width="595.674pt" height="198.824pt" viewBox="0 0 595.674 198.824"><defs><path id="a" d="m2.70313-2.03125.78125.78125 3.25-3.26562L10-1.25l.75-.78125-3.25-3.25 3.25-3.26562-.75-.75-3.26562 3.25-3.25-3.25-.78125.75 3.26562 3.26562Zm0 0"/><path id="b" d="M.59375-5.0625c0 3.09375 1.78125 5.34375 5.5 5.34375 3.29688 0 4.92188-1.6875 5.95313-3.54687C13.0625-5.09375 13.23438-7 13.23438-7.75c0-3.82812-2.32813-5.48437-5.40625-5.48437-2.98438 0-4.84375 1.65625-5.9375 3.4375C.85938-8.0625.59375-6.29687.59375-5.0625m1.96875.76563c0-1.57813.29688-3.32813 1.15625-5.14063.85938-1.76562 2.1875-3.14062 4.1875-3.14062 2.04688 0 3.35938 1.21875 3.35938 3.85937 0 1.07813-.09375 2.60938-.875 4.59375-.78125 2.01563-2.04688 3.75-4.48438 3.75C3.875-.375 2.5625-1.6875 2.5625-4.29687m0 0"/><path id="c" d="M-.35937 0h4.21875l.125-.53125-1.03125-.10937c-.25-.01563-.34375-.14063-.34375-.3125q0-.16407.09375-.375C3.32813-2.53125 3.92188-3.75 4.625-5h4.1875l.46875 3.85938s-.10937.46875-.5.5l-1 .10937L7.6875 0h4.59375l.125-.53125-.71875-.0625c-.57812-.0625-.65625-.32812-.76562-1.09375l-1.35938-11.25H8.21875L5.07813-7.42187C4.125-5.75 2.5625-2.96875 1.875-1.84375 1.28125-.875.95313-.67187.375-.60937l-.60937.07812ZM5-5.71875l3.04688-5.48437.67187 5.48437Zm0 0"/><path id="d" d="M0 0h5.67188c4.51562 0 5.4375-2.32812 5.4375-3.875 0-1.98437-1.45313-2.82812-2.82813-3.09375L8.29688-7c2.5-.3125 3.54687-1.71875 3.54687-3.125 0-1.51562-.89062-2.8125-4.34375-2.8125H2.76563l-.125.53125 1.125.10938c.3125.01562.45312.15625.45312.45312 0 .125-.03125.28125-.07812.45313L1.9375-1.54687c-.14062.60937-.32812.82812-.78125.89062l-1.0625.125Zm3.75-1.4375c0-.14062.01563-.28125.04688-.40625L4.875-6.65625h.73438c1.85937 0 3.48437.54688 3.48437 2.67188 0 1.67187-1.01562 3.32812-3.51562 3.32812C4.09375-.65625 3.75-.95312 3.75-1.4375m1.26563-5.875.96875-4.32812c.14062-.5625.25-.65625 1.5-.65625 1.57812 0 2.45312.79687 2.45312 2.10937 0 1.95313-1.64062 2.875-3.70312 2.875Zm0 0"/><path id="e" d="M.96875-5.14062c0 2.46875 1.21875 5.42187 5.85938 5.42187C8.15625.28125 9.4375.09375 10.625-.5l.92188-2.98437h-.5625C9.95313-1.60937 9.01563-.375 6.70313-.375c-2.17188 0-3.71875-1.39062-3.71875-4.28125 0-1.6875.4375-3.76562 1.32812-5.25.9375-1.57812 2.42188-2.67187 4.42188-2.67187 2.375 0 3.04687 1.09375 3.04687 3.14062h.57813l.67187-2.8125c-1.0625-.67187-2.8125-.98437-4.14062-.98437-3.51563 0-5.54688 1.65625-6.64063 3.40625C1.21875-8.15625.96875-6.4375.96875-5.14062m0 0"/></defs><use xlink:href="#a" x="503.35607" y="33.16964"/><use xlink:href="#b" x="503.16624" y="21.20922"/><path fill="none" stroke="red" stroke-miterlimit="10" stroke-width=".39815" d="M340.15227 85.16409h11.32813V73.83596h-11.32813v11.32813"/><path fill="none" stroke="#000" stroke-miterlimit="10" stroke-width=".39815" d="M340.15227 85.16409h113.28911l-113.2891-56.64456Zm0 0"/><use xlink:href="#c" x="320.28213" y="105.13693"/><use xlink:href="#d" x="460.47503" y="105.13693"/><use xlink:href="#e" x="320.50094" y="21.20922"/></svg>