<svg xmlns="http://www.w3.org/2000/svg" xmlns:xlink="http://www.w3.org/1999/xlink" width="976.083pt" height="247.223pt" viewBox="0 0 976.083 247.223"><defs><path id="b" d="M1.8125-5.92187c0 4.73437 1.0625 9.9375 5.51563 10.125v-.625c-1.5-.29688-3.84375-2.14063-3.84375-9.5 0-7.3125 2.23437-9.15625 3.84375-9.5v-.625c-4.45313.1875-5.51563 5.39062-5.51563 10.125m0 0"/><path id="c" d="M1.5625-2.53125C1.5625-1.15625 1.96875.25 3.67188.25c2.40625 0 4.28125-2.57812 5.51562-4.82812h.04688l-.70313 2.5c-.10937.42187-.17187.79687-.17187 1.125C8.35938-.17187 8.71875.25 9.45313.25c1.65625 0 2.75-1.4375 3.46875-3.01562l-.5-.29688c-.375.73438-1.3125 2.21875-1.89063 2.21875-.25 0-.34375-.15625-.34375-.40625 0-.20312.0625-.45312.14063-.73437l3.29687-13.5-.10937-.09375-3.73438.5-.10937.48437 1.25.10938c.34375.03125.46875.125.46875.35937 0 .10938-.01563.29688-.07813.51563l-.8125 3.375-.04687.04687c-.40625-.20312-1.04688-.35937-1.76563-.35937-4.89062 0-7.125 5.46875-7.125 8.01562m2.07813.1875c0-2.28125 1.82812-7.46875 5.1875-7.46875.64062 0 1.20312.20313 1.45312.42188-.3125 1.60937-1.01562 3.60937-2.07812 5.34375C7.1875-2.40625 5.8125-.84375 4.6875-.84375c-.67187 0-1.04687-.5625-1.04687-1.5m0 0"/><path id="d" d="M1.25 3.57813v.625c4.45313-.1875 5.51563-5.39063 5.51563-10.125s-1.0625-9.9375-5.51563-10.125v.625c1.60938.34375 3.84375 2.1875 3.84375 9.5 0 7.35937-2.34375 9.20312-3.84375 9.5m0 0"/><path id="e" d="m3.03125-2.28125.875.875 3.64063-3.67187 3.67187 3.67187.84375-.875-3.64062-3.64062 3.64062-3.65625-.84375-.85938-3.67187 3.64063-3.64063-3.64063-.875.85938 3.67188 3.65625Zm0 0"/><clipPath id="a"><path d="M1.07031 51H293v70H1.07031Zm0 0"/></clipPath><clipPath id="f"><path d="M499 126h126v120.44922H499Zm0 0"/></clipPath></defs><path fill="none" stroke="#000" stroke-miterlimit="10" stroke-width=".39725" d="m58.4922 103.19531 114.44531-62.9414L115.71485.1953Zm0 0"/><g clip-path="url(#a)"><path fill="none" stroke="#000" stroke-miterlimit="10" stroke-width=".39725" d="m1.26953 114.64062 286.1094-57.22266"/></g><use xlink:href="#b" x="271.86791" y="81.3593"/><use xlink:href="#c" x="280.44867" y="81.3593"/><use xlink:href="#d" x="294.30301" y="81.3593"/><path fill="none" stroke="#000" stroke-miterlimit="10" stroke-width=".39725" d="m58.48438 103.19922 129.83204 14.08594-37.41016 58.97266Zm457.78128-17.16797c0-31.60547-25.61719-57.22266-57.21876-57.22266-31.60547 0-57.22266 25.61719-57.22266 57.22266 0 31.60156 25.6172 57.21875 57.22266 57.21875 31.60157 0 57.21876-25.61719 57.21876-57.21875ZM447.6016 200.47266 619.26566 28.8086"/><use xlink:href="#b" x="627.15328" y="52.74822"/><use xlink:href="#c" x="635.73404" y="52.74822"/><use xlink:href="#d" x="649.58838" y="52.74822"/><use xlink:href="#e" x="451.48639" y="91.24822"/><g clip-path="url(#f)"><path fill="none" stroke="#000" stroke-miterlimit="10" stroke-width=".39725" d="M562.043 131.8086c31.60548 0 57.22267 25.61718 57.22267 57.21875 0 31.60547-25.6172 57.22266-57.22266 57.22266-31.60157 0-57.21876-25.6172-57.21876-57.22266 0-31.60157 25.6172-57.21876 57.21876-57.21876Zm0 0"/></g><use xlink:href="#e" x="554.48468" y="194.2465"/><path fill="none" stroke="#000" stroke-miterlimit="10" stroke-width=".39725" d="M779.48833 143.25h114.44142L808.0977 57.41796Zm-57.22266-28.60938h228.88674"/><use xlink:href="#b" x="935.63376" y="102.54571"/><use xlink:href="#c" x="944.21451" y="102.54571"/><use xlink:href="#d" x="958.06885" y="102.54571"/><path fill="none" stroke="#000" stroke-miterlimit="10" stroke-width=".39725" d="M779.48833 86.03125h114.44142l-85.83204 85.83203Zm0 0"/></svg>