<svg xmlns="http://www.w3.org/2000/svg" xmlns:xlink="http://www.w3.org/1999/xlink" width="670.083" height="223.627" viewBox="0 0 670.083 223.627"><defs><clipPath id="f"><path d="M655 0h14.0664v14H655Zm0 0"/></clipPath><clipPath id="g"><path d="M599 0h70.0664v38H599Zm0 0"/></clipPath><clipPath id="h"><path d="M.10156 210H14v13.2539H.10156Zm0 0"/></clipPath><clipPath id="i"><path d="M.10156 26H388v197.2539H.10156Zm0 0"/></clipPath><clipPath id="j"><path d="M.10156 0h668.96485v223.2539H.10156Zm0 0"/></clipPath><clipPath id="k"><path d="M376 0h235v223.2539H376Zm0 0"/></clipPath><clipPath id="l"><path d="M.10156 31h668.96485v2H.10156Zm0 0"/></clipPath><path id="a" d="m3.04688-2.28125.875.875L7.5625-5.07812l3.67188 3.67187.84375-.875L8.4375-5.92187l3.64063-3.67188-.84375-.85937L7.5625-6.79687l-3.64062-3.65625-.875.85937 3.67187 3.67188Zm0 0"/><path id="b" d="M.67188-5.6875c0 3.46875 1.98437 6 6.17187 6 3.71875 0 5.53125-1.90625 6.6875-3.98437C14.67188-5.73437 14.875-7.875 14.875-8.70312c0-4.3125-2.60937-6.17188-6.07812-6.17188-3.35938 0-5.4375 1.85938-6.67188 3.85938C.96875-9.0625.67188-7.07812.67188-5.6875m2.21875.85938c0-1.76563.32812-3.73438 1.29687-5.78125.95313-1.98438 2.45313-3.53125 4.70313-3.53125 2.29687 0 3.78125 1.35937 3.78125 4.34375 0 1.20312-.125 2.92187-.98438 5.17187-.875 2.25-2.3125 4.20313-5.04687 4.20313-2.28125 0-3.75-1.48438-3.75-4.40625m0 0"/><path id="c" d="M-.40625 0h4.75l.125-.60937L3.3125-.71875c-.26562-.01562-.375-.15625-.375-.35937 0-.10938.03125-.26563.10938-.42188.6875-1.34375 1.35937-2.70312 2.14062-4.10937h4.71875l.51563 4.32812s-.10938.51563-.54688.5625L8.75-.60937 8.64063 0h5.17187l.125-.60937-.79687-.0625c-.65625-.0625-.75-.35938-.85938-1.23438l-1.54687-12.64062h-1.5L5.70313-8.34375c-1.07813 1.875-2.8125 5.01563-3.59375 6.26563C1.4375-.98437 1.07813-.76562.42188-.6875l-.6875.07813Zm6.01563-6.42187 3.4375-6.17188.75 6.17188Zm0 0"/><path id="d" d="M0 0h6.375c5.07813 0 6.10938-2.625 6.10938-4.35937 0-2.21875-1.625-3.1875-3.17188-3.46875l.01563-.04688c2.79687-.34375 3.98437-1.92187 3.98437-3.51562 0-1.70313-1-3.15625-4.875-3.15625H3.10938l-.14063.60937 1.26563.10938c.35937.01562.51562.17187.51562.51562 0 .14063-.04687.3125-.09375.51563L2.17188-1.75c-.15625.70313-.35938.9375-.875 1.01563l-1.1875.125Zm4.20313-1.60937c0-.15626.03125-.3125.07812-.46875l1.20313-5.39063h.82812c2.07813 0 3.90625.59375 3.90625 3 0 1.875-1.14062 3.73438-3.95312 3.73438-1.65625 0-2.0625-.34375-2.0625-.875m1.4375-6.60938 1.09375-4.875c.15625-.625.26562-.73437 1.67187-.73437 1.78125 0 2.76563.89062 2.76563 2.375 0 2.1875-1.84375 3.23437-4.17188 3.23437Zm0 0"/><path id="e" d="M1.09375-5.76562C1.09375-3 2.46875.3125 7.67188.3125c1.5 0 2.9375-.20312 4.28125-.875l1.03125-3.35937h-.64063c-1.15625 2.10937-2.20312 3.5-4.79687 3.5-2.45313 0-4.1875-1.5625-4.1875-4.8125 0-1.90625.48437-4.23438 1.5-5.90625 1.04687-1.76563 2.70312-3 4.96875-3 2.65625 0 3.42187 1.23437 3.42187 3.53125h.64063l.76562-3.15625C13.45313-14.51562 11.48438-14.875 10-14.875c-3.95312 0-6.23437 1.85938-7.46875 3.82813-1.17187 1.875-1.4375 3.8125-1.4375 5.28125m0 0"/></defs><use xlink:href="#a" x="565.79461" y="37.26085"/><use xlink:href="#b" x="565.58197" y="23.81628"/><path fill="none" stroke="red" stroke-miterlimit="10" stroke-width=".39783" d="M382.3359 95.71095h12.73438V82.97657H382.3359v12.73438"/><path fill="none" stroke="#000" stroke-miterlimit="10" stroke-width=".39783" d="M382.3359 95.71095h127.33596L382.3359 32.04297Zm0 0"/><use xlink:href="#c" x="359.99887" y="118.16191"/><use xlink:href="#d" x="517.57804" y="118.16191"/><use xlink:href="#e" x="360.24446" y="23.82326"/><g clip-path="url(#f)"><path fill="none" stroke="red" stroke-miterlimit="10" stroke-width=".39783" d="M668.87111.19921h-12.73438V12.9336h12.73438V.19921"/></g><g clip-path="url(#g)"><path fill="none" stroke="#000" stroke-miterlimit="10" stroke-width=".39783" d="M668.87111.19921h-63.66798l63.66798 31.83204Zm0 0"/></g><g clip-path="url(#h)"><path fill="none" stroke="red" stroke-miterlimit="10" stroke-width=".39783" d="M.29287 223.05863h12.73437v-12.73438H.29287v12.73438"/></g><g clip-path="url(#i)"><path fill="none" stroke="#000" stroke-miterlimit="10" stroke-width=".39783" d="M.29287 223.05863h382.00397L.29287 32.05469Zm0 0"/></g><g clip-path="url(#j)"><path fill="none" stroke="#000" stroke-dasharray="2.9838386539000004 2.9838386539000004" stroke-miterlimit="10" stroke-width=".39783" d="M.35146 223.0391 382.35543 95.70314 668.8594.20312"/></g><g clip-path="url(#k)"><path fill="none" stroke="#000" stroke-dasharray="2.9838386539000004 2.9838386539000004" stroke-miterlimit="10" stroke-width=".39783" d="M382.35543 223.0391 605.19141.20312"/></g><g clip-path="url(#l)"><path fill="none" stroke="#000" stroke-dasharray="2.9838386539000004 2.9838386539000004" stroke-miterlimit="10" stroke-width=".39783" d="M.35146 32.03516h668.50793"/></g></svg>