<svg id="Icons" height="512" viewBox="0 0 60 60" width="512" xmlns="http://www.w3.org/2000/svg"><path d="m58.707 48.3-9-7a1 1 0 0 0 -1.707.7v3h-11a2 2 0 0 0 -2 2v4a2 2 0 0 0 2 2h11v3a1 1 0 0 0 1.707.707l9-7a1 1 0 0 0 0-1.407z" fill="#f1cb86"/><circle cx="4" cy="34" fill="#e2a2ac" r="3"/><g fill="#dd636e"><path d="m22 37a12.013 12.013 0 0 1 -12-12v-12a12 12 0 0 1 24 0v12a12.013 12.013 0 0 1 -12 12zm0-30a6.006 6.006 0 0 0 -6 6v12a6 6 0 0 0 12 0v-12a6.006 6.006 0 0 0 -6-6z"/><path d="m46 37a12.013 12.013 0 0 1 -12-12v-12a12 12 0 0 1 24 0v12a12.013 12.013 0 0 1 -12 12zm0-30a6.006 6.006 0 0 0 -6 6v12a6 6 0 0 0 12 0v-12a6.006 6.006 0 0 0 -6-6z"/></g></svg>
