<svg xmlns="http://www.w3.org/2000/svg" width="191.737pt" height="191.737pt" viewBox="0 0 191.737 191.737"><defs><clipPath id="a"><path d="M0 0h191.47266v191.47266H0Zm0 0"/></clipPath><clipPath id="b"><path d="M.19922.19922h191.07812v95.53906H.19922Zm0 0"/></clipPath><clipPath id="c"><path d="M0 95h191.47266v1H0Zm0 0"/></clipPath></defs><g clip-path="url(#a)"><path fill="#FFF" stroke="#000" stroke-miterlimit="10" stroke-width=".39795" d="M191.27732 95.73828c0-52.76561-42.77342-95.53904-95.53904-95.53904S.19924 42.97267.19924 95.73828s42.77343 95.53904 95.53904 95.53904 95.53904-42.77342 95.53904-95.53904Zm0 0"/></g><g clip-path="url(#b)"><path fill="#7FD6F7" stroke="#000" stroke-miterlimit="10" stroke-width=".39795" d="M191.27732 95.73828c0-52.76561-42.77342-95.53904-95.53904-95.53904S.19924 42.97267.19924 95.73828s42.77343 95.53904 95.53904 95.53904 95.53904-42.77342 95.53904-95.53904Zm0 0"/></g><g clip-path="url(#c)"><path fill="none" stroke="#000" stroke-miterlimit="10" stroke-width=".39795" d="M.19924 95.73828h191.07808"/></g></svg>