<svg xmlns="http://www.w3.org/2000/svg" width="1084.65" height="32.288" viewBox="0 0 1084.65 32.288"><defs><clipPath id="a"><path d="M11.53125 0h1061.2461v31.58984H11.53124Zm0 0"/></clipPath><clipPath id="b"><path d="M11.53125 0H277v31.58984H11.53125Zm0 0"/></clipPath><clipPath id="c"><path d="M11.53125 0H278v31.58984H11.53125Zm0 0"/></clipPath><clipPath id="d"><path d="M276 0h267v31.58984H276Zm0 0"/></clipPath><clipPath id="e"><path d="M542 0h266v31.58984H542Zm0 0"/></clipPath><clipPath id="f"><path d="M541 0h267v31.58984H541Zm0 0"/></clipPath><clipPath id="g"><path d="M11.53125 0H12v31.58984h-.46875Zm0 0"/></clipPath><clipPath id="h"><path d="M276 0h2v31.58984h-2Zm0 0"/></clipPath><clipPath id="i"><path d="M541 0h2v31.58984h-2Zm0 0"/></clipPath><clipPath id="j"><path d="M807 0h1v31.58984h-1Zm0 0"/></clipPath></defs><g clip-path="url(#a)"><path fill="#FFF" stroke="#000" stroke-miterlimit="10" stroke-width=".3899" d="M11.72266 31.39844V.19532h1060.87473v31.20312Zm0 0"/></g><g clip-path="url(#b)"><path fill="#7FD6F7" d="M11.72266 31.39844V.1953H276.9414v31.20313Zm0 0"/></g><g clip-path="url(#c)"><path fill="none" stroke="#000" stroke-miterlimit="10" stroke-width=".3899" d="M11.72266 31.39844V.19532h265.21868v31.20312Zm0 0"/></g><g clip-path="url(#d)"><path fill="#7FD6F7" stroke="#000" stroke-miterlimit="10" stroke-width=".3899" d="M276.94134 31.39844V.19532h265.21868v31.20312Zm0 0"/></g><g clip-path="url(#e)"><path fill="#7FD6F7" d="M542.16016 31.39844V.1953H807.3789v31.20313Zm0 0"/></g><g clip-path="url(#f)"><path fill="none" stroke="#000" stroke-miterlimit="10" stroke-width=".3899" d="M542.16002 31.39844V.19532h265.21869v31.20312Zm0 0"/></g><g clip-path="url(#g)"><path fill="none" stroke="#000" stroke-miterlimit="10" stroke-width=".3899" d="M11.72266 31.39844V.19532"/></g><g clip-path="url(#h)"><path fill="none" stroke="#000" stroke-miterlimit="10" stroke-width=".3899" d="M276.94134 31.39844V.19532"/></g><g clip-path="url(#i)"><path fill="none" stroke="#000" stroke-miterlimit="10" stroke-width=".3899" d="M542.16002 31.39844V.19532"/></g><g clip-path="url(#j)"><path fill="none" stroke="#000" stroke-miterlimit="10" stroke-width=".3899" d="M807.3787 31.39844V.19532"/></g></svg>