<svg xmlns="http://www.w3.org/2000/svg" width="1020.872pt" height="28.745pt" viewBox="0 0 1020.872 28.745"><defs><clipPath id="a"><path d="M4.42578 0h1011.89453v28.49219H4.42578Zm0 0"/></clipPath><clipPath id="b"><path d="M4.42578 0H207v28.49219H4.42578Zm0 0"/></clipPath><clipPath id="c"><path d="M4.42578 0H208v28.49219H4.42578Zm0 0"/></clipPath><clipPath id="d"><path d="M4.42578 0H5v28.49219h-.57422Zm0 0"/></clipPath><clipPath id="e"><path d="M206 0h2v28.49219h-2Zm0 0"/></clipPath><clipPath id="f"><path d="M409 0h1v28.49219h-1Zm0 0"/></clipPath><clipPath id="g"><path d="M611 0h1v28.49219h-1Zm0 0"/></clipPath><clipPath id="h"><path d="M813 0h2v28.49219h-2Zm0 0"/></clipPath><clipPath id="i"><path d="M1015 0h1.32031v28.49219H1015Zm0 0"/></clipPath></defs><g clip-path="url(#a)"><path fill="#FFF" stroke="#000" stroke-miterlimit="10" stroke-width=".395" d="M4.6211 28.29687V.19922h1011.51182v28.09765Zm0 0"/></g><g clip-path="url(#b)"><path fill="#7FBFBF" d="M4.6211 28.29688V.19921h202.30468v28.09766Zm0 0"/></g><g clip-path="url(#c)"><path fill="none" stroke="#000" stroke-miterlimit="10" stroke-width=".395" d="M4.6211 28.29687V.19922h202.3047v28.09765Zm0 0"/></g><g clip-path="url(#d)"><path fill="none" stroke="#000" stroke-miterlimit="10" stroke-width=".395" d="M4.6211 28.29687V.19922"/></g><g clip-path="url(#e)"><path fill="none" stroke="#000" stroke-miterlimit="10" stroke-width=".395" d="M206.9258 28.29687V.19922"/></g><g clip-path="url(#f)"><path fill="none" stroke="#000" stroke-miterlimit="10" stroke-width=".395" d="M409.2266 28.29687V.19922"/></g><g clip-path="url(#g)"><path fill="none" stroke="#000" stroke-miterlimit="10" stroke-width=".395" d="M611.53131 28.29687V.19922"/></g><g clip-path="url(#h)"><path fill="none" stroke="#000" stroke-miterlimit="10" stroke-width=".395" d="M813.83212 28.29687V.19922"/></g><g clip-path="url(#i)"><path fill="none" stroke="#000" stroke-miterlimit="10" stroke-width=".395" d="M1016.13682 28.29687V.19922"/></g></svg>