<svg xmlns="http://www.w3.org/2000/svg" xmlns:xlink="http://www.w3.org/1999/xlink" width="525.055pt" height="225.407pt" viewBox="0 0 525.055 225.407"><defs><clipPath id="g"><path d="M8 13h515.89453v38H8Zm0 0"/></clipPath><clipPath id="h"><path d="M8 87h515.89453v38H8Zm0 0"/></clipPath><clipPath id="i"><path d="M8 86h515.89453v39H8Zm0 0"/></clipPath><clipPath id="j"><path d="M8 160h515.89453v38H8Zm0 0"/></clipPath><clipPath id="k"><path d="M8 160h515.89453v39H8Zm0 0"/></clipPath><clipPath id="w"><path d="M260 44h263.89453v49H260Zm0 0"/></clipPath><clipPath id="b"><path d="M50 50h30v30.39453H50Zm0 0"/></clipPath><clipPath id="c"><path d="M.20313.29688H61V61H.20313Zm0 0"/></clipPath><clipPath id="a"><path d="M0 0h81v81H0z"/></clipPath><clipPath id="y"><path d="M363 118h160.89453v49H363Zm0 0"/></clipPath><clipPath id="e"><path d="M50 51h30v29.90234H50Zm0 0"/></clipPath><clipPath id="f"><path d="M.11719 1H61v61H.11719Zm0 0"/></clipPath><clipPath id="d"><path d="M0 0h81v81H0z"/></clipPath><path id="l" d="M1.3125 0h4v-.34375L4.29688-.4375c-.26563-.03125-.40625-.125-.40625-.59375V-8.1875l-.0625-.0625-2.51563.42188v.29687l1.14063.14063c.20312.03125.28125.10937.28125.46875v5.89062c0 .23438-.01563.375-.09375.46875-.0625.07813-.17188.10938-.29688.125L1.3125-.34375Zm0 0"/><path id="m" d="M.59375-2.85937c0 1.79687.9375 3 2.54688 3 .65625 0 1.21875-.29688 1.875-.82813v.59375L5.10938 0h1.96875v-.34375c-.85938-.0625-.90625-.09375-.90625-.71875v-7.875L6.09375-9l-1.92187.29688v.29687l.46875.04688c.3125.03125.39062.10937.39062.5625v2c-.34375-.1875-.79687-.29688-1.34375-.29688-1 0-1.75.3125-2.25.82813-.51562.54687-.84375 1.34375-.84375 2.40625M1.85938-3c0-1.57812.5625-2.67187 1.8125-2.67187.5625 0 1.03125.25 1.25.76562.10937.20313.10937.39063.10937.70313v2.14062c0 .26563 0 .46875-.07812.6875-.25.625-.78125.875-1.40625.875-1.125 0-1.6875-1.10937-1.6875-2.5m0 0"/><path id="n" d="M1.10938-7.95312c0 .45312.3125.75.75.75s.73437-.29688.73437-.75c0-.4375-.29687-.73438-.73437-.73438s-.75.29688-.75.73438M.39063 0h2.95312v-.34375c-.85937-.0625-.90625-.09375-.90625-.71875v-4.95312l-.07812-.07813-1.90625.3125v.29688l.45312.0625c.3125.04687.40625.09375.40625.53125v3.82812c0 .625-.04687.65625-.92187.71875Zm0 0"/><path id="o" d="M.01563 0h2.32812v-.34375l-.51562-.0625C1.67187-.4375 1.67187-.57812 1.75-.70312c.26563-.53125.65625-1.10938 1.0625-1.73438h.03125L3.92188-.75c.14062.20313.09375.3125-.07813.34375l-.51562.0625V0h2.84375v-.34375C5.64063-.375 5.4375-.40625 5.125-.85937 4.57813-1.65625 4-2.5 3.46875-3.34375c.39063-.60937.85938-1.23437 1.34375-1.79687.29688-.39063.46875-.42188 1.04688-.45313v-.35937h-2.25v.35937l.46875.03125c.20312.03125.17187.15625.07812.29688-.28125.45312-.60937.96875-.96875 1.51562h-.01562L2.15625-5.26562c-.10937-.14063-.0625-.28125.125-.29688l.35938-.03125v-.35937H.10938v.35937c.48437.03125.59375.03125.89062.4375.5.71875 1.03125 1.5 1.54688 2.28125-.45313.65625-.92188 1.34375-1.42188 2-.3125.42188-.57812.48438-1.10937.53125Zm0 0"/><path id="p" d="M1.46875-8.25c0 .25.3125.45313.67188.65625l1.84375 1.01563.17187-.25-1.4375-1.45313c-.35937-.375-.57812-.5-.78125-.5-.1875 0-.46875.28125-.46875.53125m-.875 5.3125c0 1.92188.82813 3.07813 2.79688 3.07813 1.35937 0 2.04687-.75 2.375-1.70313L5.40625-1.75c-.34375.70313-.8125 1.26563-1.76562 1.26563-1.51563 0-1.8125-1.4375-1.78125-2.70313h3.5c.26562 0 .48437-.0625.48437-.46875 0-.71875-.23437-2.4375-2.45312-2.4375C1.48438-6.09375.59375-4.75.59375-2.9375M1.875-3.65625c0-.5.17188-2.01562 1.45313-2.01562 1.10937 0 1.25 1.15625 1.25 1.625 0 .23437-.07813.39062-.42188.39062Zm0 0"/><path id="q" d="M.39063 0h2.95312v-.34375c-.85937-.0625-.90625-.09375-.90625-.71875v-2.84375c0-.3125 0-.46875.09375-.64062.23438-.5.76563-.89063 1.4375-.89063 1.04688 0 1.17188.76563 1.17188 1.51563v2.85937c0 .625-.03125.65625-.92188.71875V0H7.1875v-.34375c-.875-.0625-.90625-.09375-.90625-.71875v-2.84375c0-.3125.01563-.46875.09375-.65625.17188-.48437.6875-.875 1.375-.875.76563 0 1.23438.42188 1.23438 1.51563v2.85937c0 .625-.04688.65625-.92188.71875V0h2.96875v-.34375c-.85937-.0625-.90625-.09375-.90625-.71875v-3.09375c0-1.23437-.67187-1.9375-1.8125-1.9375-1 0-1.70312.65625-2.14062.92188-.29688-.5625-.75-.92188-1.60938-.92188-.9375 0-1.6875.60938-2.125.92188l-.10937-.92188-1.875.3125v.29688l.45312.0625c.3125.04687.40625.09375.40625.53125v3.82812c0 .625-.04687.65625-.92187.71875Zm0 0"/><path id="r" d="M.59375-2.9375c0 1.92188.82813 3.07813 2.79688 3.07813 1.35937 0 2.04687-.75 2.375-1.70313L5.40625-1.75c-.34375.70313-.8125 1.26563-1.76562 1.26563-1.51563 0-1.8125-1.4375-1.78125-2.70313h3.5c.26562 0 .48437-.0625.48437-.46875 0-.71875-.23437-2.4375-2.45312-2.4375C1.48438-6.09375.59375-4.75.59375-2.9375M1.875-3.65625c0-.5.17188-2.01562 1.45313-2.01562 1.10937 0 1.25 1.15625 1.25 1.625 0 .23437-.07813.39062-.42188.39062Zm0 0"/><path id="s" d="M.59375-2.92187c0 2.03125 1 3.0625 2.8125 3.0625.85938 0 2.01563-.4375 2.34375-1.75l-.35937-.15626c-.375.84376-.85938 1.28126-1.75 1.28126-1.4375 0-1.78125-1.51563-1.78125-2.65625 0-1.8125.71875-2.53125 1.54687-2.53125.5625 0 .90625.40625 1.15625 1.0625.07813.1875.15625.3125.39063.3125s.70312-.15625.70312-.625c0-.5625-.79687-1.17188-2.10937-1.17188-2.21875 0-2.95313 1.5625-2.95313 3.17188m0 0"/><path id="t" d="M.39063 0h2.95312v-.34375c-.85937-.0625-.90625-.09375-.90625-.71875v-2.84375c0-.3125.01563-.46875.125-.65625.25-.48437.79688-.875 1.4375-.875.82813 0 1.28125.45313 1.28125 1.51563v2.85937c0 .625-.03125.65625-.90625.71875V0h2.96875v-.34375c-.875-.0625-.92187-.09375-.92187-.71875v-3.09375c0-1.23437-.67188-1.9375-1.78125-1.9375-.90625 0-1.46875.4375-2.21875.92188l-.15625-.92188-1.8125.3125v.29688l.45312.0625c.3125.04687.40625.09375.40625.53125v3.82812c0 .625-.04687.65625-.92187.71875Zm0 0"/><path id="u" d="M.375-5.46875h.875v4.23438C1.25 0 2.17188.14063 2.59375.14063c.625 0 1.20313-.3125 1.54688-.53125l-.07813-.25c-.29687.10937-.5625.15624-.875.15624-.40625 0-.79687-.29687-.79687-1.21874v-3.76563h1.5625v-.48437h-1.5625v-1.53125h-.34375L1.3125-5.95312H.375Zm0 0"/><path id="v" d="M.25 0h2.95313v-.34375c-.85938-.0625-.90625-.09375-.90625-.71875v-7.875L2.20313-9 .3125-8.70312v.29687l.45313.04688c.3125.03125.39062.10937.39062.5625v6.73437c0 .625-.03125.65625-.90625.71875Zm0 0"/><g id="x" clip-path="url(#a)"><path fill="#9aaab4" d="m61.13672 55.11719-6.28125 6.29687-11.01953-11.00781 6.29297-6.29297Zm0 0"/><g clip-path="url(#b)"><path fill="#66757f" d="M77.3711 65.0625 64.28905 51.98047c-1.73828-1.73828-4.55469-1.73828-6.29297 0l-6.29297 6.29297c-1.73828 1.73828-1.73828 4.55078 0 6.28906l13.08594 13.08594c3.47266 3.47656 9.11719 3.47656 12.59375 0 3.46485-3.47656 3.46485-9.10938-.01172-12.58594m0 0"/></g><g clip-path="url(#c)"><path fill="#8899a6" d="M30 .67969C13.57813.91016.39063 14.29688.39063 30.71484c0 7.96094 3.17578 15.59766 8.80468 21.23047 5.63672 5.64063 13.26953 8.8086 21.24219 8.8086 16.58203 0 30.03516-13.45703 30.03516-30.03907 0-7.97265-3.17188-15.60937-8.8047-21.24218C46.03517 3.83984 38.39845.67969 30.4375.67969zm.10156 8.89843h.33594c5.59766 0 10.97656 2.22657 14.9414 6.1875 3.95704 3.96485 6.19532 9.33985 6.19532 14.94922 0 11.67188-9.46484 21.13672-21.13672 21.13672-5.60547 0-10.98437-2.23437-14.94922-6.19922-3.96094-3.96484-6.19922-9.33984-6.19922-14.9375 0-11.55468 9.27344-20.96093 20.8125-21.13671m0 0"/></g></g><g id="z" clip-path="url(#d)"><path fill="#9aaab4" d="m61.04688 55.625-6.28126 6.29688L43.7461 50.91016l6.29297-6.29297Zm0 0"/><g clip-path="url(#e)"><path fill="#66757f" d="M77.28516 65.57031 64.19922 52.48828c-1.73828-1.74219-4.55469-1.74219-6.29297 0l-6.29297 6.28906c-1.73828 1.73828-1.73828 4.5547 0 6.29297l13.08594 13.08203c3.47266 3.47657 9.1211 3.47657 12.59766 0 3.46484-3.47656 3.46484-9.10546-.01172-12.58203m0 0"/></g><g clip-path="url(#f)"><path fill="#8899a6" d="M29.91016 1.1836C13.48828 1.41796.30078 14.80077.30078 31.22265c0 7.96093 3.17578 15.59765 8.8086 21.22656 5.6328 5.64453 13.26953 8.8086 21.23828 8.8086 16.58593 0 30.03906-13.45313 30.03906-30.03516 0-7.97657-3.17578-15.60938-8.80469-21.2422C45.94922 4.34767 38.3125 1.1836 30.34766 1.1836zm.10156 8.90234h.33594c5.59765 0 10.97656 2.22265 14.9414 6.1875 3.96094 3.96484 6.19532 9.33984 6.19532 14.94922 0 11.66796-9.46485 21.13672-21.13672 21.13672-5.60547 0-10.98438-2.23829-14.94922-6.19922-3.96094-3.96485-6.19922-9.33985-6.19922-14.9375 0-11.5547 9.27344-20.96485 20.8125-21.13672m0 0"/></g></g></defs><g clip-path="url(#g)"><path fill="#fff" stroke="#000" stroke-miterlimit="10" stroke-width=".79492" d="M8.94531 50.59766v-36.7539h514.55854v36.7539Zm0 0"/></g><path fill="none" stroke="#000" stroke-miterlimit="10" stroke-width=".79492" d="M60.39843 50.59766v-36.7539m51.45703 36.7539v-36.7539m51.45702 36.7539v-36.7539m51.45312 36.7539v-36.7539m51.45703 36.7539v-36.7539m51.45702 36.7539v-36.7539m51.45312 36.7539v-36.7539m51.45703 36.7539v-36.7539m51.45703 36.7539v-36.7539"/><g clip-path="url(#h)"><path fill="#fff" d="M8.94531 124.10547v-36.7539h514.5586v36.7539Zm0 0"/></g><g clip-path="url(#i)"><path fill="none" stroke="#000" stroke-miterlimit="10" stroke-width=".79492" d="M8.94531 124.10546v-36.7539h514.55854v36.7539Zm0 0"/></g><path fill="none" stroke="#000" stroke-miterlimit="10" stroke-width=".79492" d="M60.39843 124.10546v-36.7539m51.45703 36.7539v-36.7539m51.45702 36.7539v-36.7539m51.45312 36.7539v-36.7539m51.45703 36.7539v-36.7539m51.45702 36.7539v-36.7539m51.45312 36.7539v-36.7539m51.45703 36.7539v-36.7539m51.45703 36.7539v-36.7539"/><g clip-path="url(#j)"><path fill="#fff" d="M8.94531 197.61328v-36.7539h514.5586v36.7539Zm0 0"/></g><g clip-path="url(#k)"><path fill="none" stroke="#000" stroke-miterlimit="10" stroke-width=".79492" d="M8.94531 197.61327v-36.7539h514.55854v36.7539Zm0 0"/></g><path fill="none" stroke="#000" stroke-miterlimit="10" stroke-width=".79492" d="M60.39843 197.61327v-36.7539m51.45703 36.7539v-36.7539m51.45702 36.7539v-36.7539m51.45312 36.7539v-36.7539m51.45703 36.7539v-36.7539m51.45702 36.7539v-36.7539m51.45312 36.7539v-36.7539m51.45703 36.7539v-36.7539m51.45703 36.7539v-36.7539"/><path fill="#7fd6f7" stroke="#000" stroke-miterlimit="10" stroke-width=".39746" d="M8.94531 50.59766v-36.7539h51.45312v36.7539Zm0 0"/><path fill="none" stroke="#00adef" stroke-miterlimit="10" stroke-width=".39746" d="M34.67187 36.79297v22.99219"/><path fill="#00adef" stroke="#00adef" stroke-miterlimit="10" stroke-width=".39746" d="M34.67187 32.96484c-.125.46875-.84375 2.53516-1.62109 3.82813h3.24219c-.77735-1.29297-1.4961-3.35938-1.6211-3.82813Zm0 0"/><use xlink:href="#l" x="8.15271" y="73.35302" fill="#00adef"/><g fill="#00adef"><use xlink:href="#m" x="17.31118" y="73.35302"/><use xlink:href="#n" x="24.57079" y="73.35302"/><use xlink:href="#o" x="28.09725" y="73.35302"/><use xlink:href="#n" x="33.98761" y="73.35302"/><use xlink:href="#p" x="37.51407" y="73.35302"/><use xlink:href="#q" x="43.7532" y="73.35302"/><use xlink:href="#r" x="54.95262" y="73.35302"/></g><path fill="#f57fc5" stroke="#000" stroke-miterlimit="10" stroke-width=".39746" d="M8.94531 124.10546v-36.7539h51.45312v36.7539Zm0 0"/><path fill="none" stroke="#ec008c" stroke-miterlimit="10" stroke-width=".39746" d="M34.67187 110.30077v22.99219"/><path fill="#ec008c" stroke="#ec008c" stroke-miterlimit="10" stroke-width=".39746" d="M34.67187 106.47266c-.125.46875-.84375 2.53515-1.62109 3.82812h3.24219c-.77735-1.29297-1.4961-3.35937-1.6211-3.82812Zm0 0"/><use xlink:href="#l" x="4.52326" y="146.64122" fill="#ec008c"/><g fill="#ec008c"><use xlink:href="#s" x="13.68173" y="146.64122"/><use xlink:href="#r" x="19.70126" y="146.64122"/><use xlink:href="#t" x="25.94039" y="146.64122"/><use xlink:href="#u" x="33.44543" y="146.64122"/><use xlink:href="#n" x="37.61776" y="146.64122"/><use xlink:href="#p" x="41.14422" y="146.64122"/><use xlink:href="#q" x="47.38335" y="146.64122"/><use xlink:href="#r" x="58.58278" y="146.64122"/></g><path fill="#7fbfbf" stroke="#000" stroke-miterlimit="10" stroke-width=".39746" d="M8.94531 197.61327v-36.7539h51.45312v36.7539Zm0 0"/><path fill="none" stroke="#007f7f" stroke-miterlimit="10" stroke-width=".39746" d="M34.67187 183.80858v22.9961"/><path fill="#007f7f" stroke="#007f7f" stroke-miterlimit="10" stroke-width=".39746" d="M34.67187 179.98047c-.125.46875-.84375 2.53516-1.62109 3.82812h3.24219c-.77735-1.29296-1.4961-3.35937-1.6211-3.82812Zm0 0"/><use xlink:href="#l" x="5.74404" y="220.36826" fill="#007f7f"/><g fill="#007f7f"><use xlink:href="#q" x="14.90252" y="220.36826"/><use xlink:href="#n" x="26.10194" y="220.36826"/><use xlink:href="#v" x="29.62841" y="220.36826"/><use xlink:href="#v" x="33.01278" y="220.36826"/><use xlink:href="#n" x="36.39715" y="220.36826"/><use xlink:href="#p" x="39.92361" y="220.36826"/><use xlink:href="#q" x="46.16274" y="220.36826"/><use xlink:href="#r" x="57.36217" y="220.36826"/></g><path fill="none" stroke="#000" stroke-dasharray="2.9809992654000004 2.9809992654000004" stroke-miterlimit="10" stroke-width=".39746" d="M214.7656 50.59766 8.94531 87.35156"/><g clip-path="url(#w)"><path fill="none" stroke="#000" stroke-dasharray="2.9809992654000004 2.9809992654000004" stroke-miterlimit="10" stroke-width=".39746" d="m266.22263 50.59766 257.28122 36.7539"/></g><use xlink:href="#x" transform="translate(212 4)"/><path fill="none" stroke="#000" stroke-dasharray="2.9809992654000004 2.9809992654000004" stroke-miterlimit="10" stroke-width=".39746" d="M317.67965 124.10546 8.94531 160.85936"/><g clip-path="url(#y)"><path fill="none" stroke="#000" stroke-dasharray="2.9809992654000004 2.9809992654000004" stroke-miterlimit="10" stroke-width=".39746" d="m369.13277 124.10546 154.37108 36.7539"/></g><use xlink:href="#z" transform="translate(315 77)"/></svg>