<svg xmlns="http://www.w3.org/2000/svg" width="442.604pt" height="37.249pt" viewBox="0 0 442.604 37.249"><defs><clipPath id="a"><path d="M4.17969 0H438v36.51172H4.17969Zm0 0"/></clipPath><clipPath id="b"><path d="M4.17969 0h433.85547v36.51172H4.17969Zm0 0"/></clipPath><clipPath id="c"><path d="M4.17969 0H77v19H4.17969Zm0 0"/></clipPath><clipPath id="d"><path d="M365 0h73.03516v19H365Zm0 0"/></clipPath><clipPath id="e"><path d="M4.17969 18H77v18.51172H4.17969Zm0 0"/></clipPath><clipPath id="f"><path d="M4.17969 0H5v36.51172h-.82031Zm0 0"/></clipPath><clipPath id="g"><path d="M76 0h1v36.51172h-1Zm0 0"/></clipPath><clipPath id="h"><path d="M148 0h2v36.51172h-2Zm0 0"/></clipPath><clipPath id="i"><path d="M220 0h2v36.51172h-2Zm0 0"/></clipPath><clipPath id="j"><path d="M293 0h1v36.51172h-1Zm0 0"/></clipPath><clipPath id="k"><path d="M365 0h1v36.51172h-1Zm0 0"/></clipPath><clipPath id="l"><path d="M437 0h1.03516v36.51172H437Zm0 0"/></clipPath><clipPath id="m"><path d="M4.17969 18h433.85547v1H4.17969Zm0 0"/></clipPath></defs><g clip-path="url(#a)"><path fill="#fff" d="M4.375 36.3164V.19532h433.47266v36.1211Zm0 0"/></g><g clip-path="url(#b)"><path fill="none" stroke="#000" stroke-miterlimit="10" stroke-width=".39063" d="M4.375 36.3164V.1953h433.47273v36.1211Zm0 0"/></g><g clip-path="url(#c)"><path fill="#7fd6f7" stroke="#000" stroke-miterlimit="10" stroke-width=".39063" d="M4.375 18.2578V.1953h72.2461v18.0625Zm0 0"/></g><path fill="#7fd6f7" stroke="#000" stroke-miterlimit="10" stroke-width=".39063" d="M76.6211 18.2578V.1953h72.2422v18.0625Zm72.2422 0V.1953h72.24611v18.0625Zm72.24611 0V.1953h72.2461v18.0625Zm72.24611 0V.1953h72.2461v18.0625Zm0 0"/><path fill="#7fd6f7" d="M365.60156 18.25781V.19531h72.2461v18.0625Zm0 0"/><g clip-path="url(#d)"><path fill="none" stroke="#000" stroke-miterlimit="10" stroke-width=".39063" d="M365.60162 18.2578V.1953h72.2461v18.0625Zm0 0"/></g><g clip-path="url(#e)"><path fill="#7fd6f7" stroke="#000" stroke-miterlimit="10" stroke-width=".39063" d="M4.375 36.3164V18.2578h72.2461v18.0586Zm0 0"/></g><g clip-path="url(#f)"><path fill="none" stroke="#000" stroke-miterlimit="10" stroke-width=".39063" d="M4.375 36.3164V.1953"/></g><g clip-path="url(#g)"><path fill="none" stroke="#000" stroke-miterlimit="10" stroke-width=".39063" d="M76.6211 36.3164V.1953"/></g><g clip-path="url(#h)"><path fill="none" stroke="#000" stroke-miterlimit="10" stroke-width=".39063" d="M148.8633 36.3164V.1953"/></g><g clip-path="url(#i)"><path fill="none" stroke="#000" stroke-miterlimit="10" stroke-width=".39063" d="M221.10941 36.3164V.1953"/></g><g clip-path="url(#j)"><path fill="none" stroke="#000" stroke-miterlimit="10" stroke-width=".39063" d="M293.35552 36.3164V.1953"/></g><g clip-path="url(#k)"><path fill="none" stroke="#000" stroke-miterlimit="10" stroke-width=".39063" d="M365.60162 36.3164V.1953"/></g><g clip-path="url(#l)"><path fill="none" stroke="#000" stroke-miterlimit="10" stroke-width=".39063" d="M437.84773 36.3164V.1953"/></g><g clip-path="url(#m)"><path fill="none" stroke="#000" stroke-miterlimit="10" stroke-width=".39063" d="M4.375 18.2578h433.47273"/></g></svg>