<svg xmlns="http://www.w3.org/2000/svg" xmlns:xlink="http://www.w3.org/1999/xlink" width="723.68pt" height="71.709pt" viewBox="0 0 723.68 71.709"><defs><path id="a" d="M1.46875-2.25c0 1.25.57813 2.5 2.01563 2.5 2.25 0 4.20312-2.59375 5.42187-4.73437h.04688l-.71875 2.39062c-.125.46875-.21875.85938-.21875 1.20313C8.01563-.15626 8.375.25 9.15625.25c1.57813 0 2.76563-1.4375 3.48438-3.01562l-.5-.29688c-.375.73438-1.3125 2.21875-1.89063 2.21875C10-.84375 9.90625-1 9.90625-1.25c0-.20312.07813-.45312.14063-.73437l2.21875-8.375H10.5l-.09375.26562c-.35937-.25-.98437-.4375-1.54687-.4375-5 0-7.39063 5.5-7.39063 8.28125m2.07813-.04687c0-2.29688 2.0625-7.5 5.35937-7.5.51563 0 .96875.17187 1.28125.46875-.39062 1.5625-1.125 3.64062-2.23437 5.3125C6.76563-2.23437 5.46875-.84375 4.46875-.84375c-.6875 0-.92187-.625-.92187-1.45312m0 0"/><path id="b" d="M1.82813 0h.76562l.64063-1.23437C3.60938-.35937 4.67188.25 5.875.25c2.45313 0 4.23438-1.64062 5.26563-3.48437C12.1875-5.09375 12.53125-6.9375 12.53125-7.875c0-1.5625-.67187-2.65625-2.23437-2.65625-1.59375 0-3.6875 1.4375-5.29688 4.32813h-.04687l2.32812-9.26563-.09375-.09375-3.75.48438-.14062.5 1.1875.125c.35937.04687.51562.125.51562.4375 0 .15625-.01562.32812-.09375.59375Zm2.59375-2.28125c0-1 .45312-2.45312 1.10937-3.6875.9375-1.67187 2.53125-3.46875 3.82813-3.46875.78125 0 1.10937.53125 1.10937 1.73438 0 1.51562-1.25 7.21875-4.32812 7.21875-1.07813 0-1.71875-.75-1.71875-1.79688m0 0"/><path id="c" d="M.6875 0h5.09375v-.79687L4.57813-.89063c-.57813-.04687-.79688-.375-.875-1.125-.09375-.75-.09375-1.5625-.09375-3.28124V-11.75h.07812C6.28125-7.85937 8.79688-3.89062 11.29688 0H13.625v-9.25c0-1.71875 0-2.51562.07813-3.25.07812-.73437.28125-1.04687.76562-1.125l.73438-.10937v-.78125h-5.0625v.78125l1.1875.10937c.57812.04688.8125.39063.89062 1.125.07813.75.07813 1.53125.07813 3.25v4.71875h-.07813c-2.23437-3.32812-4.45312-6.65625-6.60937-9.98437H.67188v.78125c1.5.0625 1.625.1875 1.625 1.25v7.1875c0 1.71875-.01563 2.54687-.10938 3.28125-.0625.75-.26562 1.0625-.76562 1.125L.6875-.79688Zm0 0"/><path id="d" d="m.625-9.17187.73438.10937c.34375.04688.46875.20313.46875 1.04688v5.10937C1.82813-.45312 3.34375.25 4.875.25c1.78125 0 2.875-.96875 3.71875-1.4375L8.78125 0H13.125v-.79687c-1.20312-.07813-1.32812-.15626-1.32812-1.03125v-8.57813l-.1875-.125L7.375-9.9375v.76563l.73438.10937c.32812.04688.48437.20313.48437 1.04688v4.4375c0 .35937-.01562.875-.15625 1.1875-.20312.5-.75.98437-1.67187.98437C5.65625-1.40625 5-2.04687 5-3.6875v-6.71875l-.15625-.125L.625-9.9375Zm0 0"/><path id="e" d="M.67188 0h5.625v-.79687l-.40625-.04688c-.4375-.04687-.70313-.10937-.70313-.8125V-6.5c0-1.82812 1.04688-2.4375 1.95313-2.4375 1.03125 0 1.51562.875 1.51562 2.03125v5.25c0 .70313-.23437.76563-.6875.8125l-.42187.04688V0h5.40625v-.79687l-.42188-.04688c-.45312-.04687-.67187-.10937-.67187-.8125V-6.5c0-1.82812.9375-2.4375 1.84375-2.4375 1.03125 0 1.59375.875 1.59375 2.03125v5.25c0 .70313-.21875.76563-.67188.8125l-.45312.04688V0h5.65625v-.79687C18.625-.875 18.48437-.95313 18.48437-1.82812v-5.45313c0-1.9375-1.0625-3.25-3.29687-3.25-1.45312 0-2.76562 1-3.67187 1.57813-.42188-.76563-1.26563-1.57813-2.82813-1.57813-1.35937 0-2.34375.70313-3.5 1.4375l-.28125-1.4375-4.125.59375v.76563l.73438.10937c.34375.04688.51562.20313.51562 1.04688v6.1875c0 .875-.15625.95312-1.35937 1.03125Zm0 0"/><path id="f" d="m4.09375-11.35937.42188.64062 3.82812-2.17187c.76563-.42188 1.4375-.84375 1.4375-1.375s-.57812-1.28125-1.09375-1.28125c-.42187 0-.78125.25-1.5625 1.0625ZM.82813-5.14062C.82813-2.28125 2.07813.25 5.96875.25c2.5 0 3.85938-1.20312 4.5625-3.0625l-.75-.42187c-.625 1.20312-1.51562 1.875-2.79687 1.875-2.09375 0-2.82813-1.71875-2.82813-3.9375h5.4375c.76563 0 1.125-.20313 1.125-.85938 0-1.71875-.67187-4.375-4.71875-4.375-3.76562 0-5.17187 2.45313-5.17187 5.39063m3.32812-1.15625c0-1.51563.40625-3.28125 1.76563-3.28125 1.26562 0 1.48437 1.60937 1.48437 2.59375 0 .57812-.15625.6875-.64062.6875Zm0 0"/><path id="g" d="M.67188 0h6.34375v-.79687C5.40625-.89063 5.1875-.95313 5.1875-1.82812V-6.5c0-1.09375.1875-1.60937.70313-1.60937.34375 0 .65625.1875 1.125.45312.26562.20313.54687.32813.95312.32813.42188 0 .84375-.21875 1.07813-.53125.21875-.3125.32812-.73438.32812-1.20313 0-.89062-.57812-1.46875-1.45312-1.46875-.85938 0-1.53125.57813-2.76563 1.84375L4.875-10.53125.78125-9.9375v.76563l.73438.10937c.34375.04688.51562.20313.51562 1.04688v6.1875c0 .875-.15625.95312-1.35937 1.03125Zm0 0"/><path id="h" d="M1-2.8125C1-1.25 2.01563.25 4.125.25c1.34375 0 2.28125-.71875 3.01563-1.20312C7.40625-.3125 7.79688.25 8.79688.25c1.09375 0 2.39062-.35937 3.07812-.625l-.01562-.70312c-.26563.03124-.73438 0-1.04688-.10938-.28125-.07812-.67187-.32812-.67187-1.5625v-4.84375c0-1.3125-.1875-2.9375-3.89063-2.9375-3.07812 0-5 1.21875-5 2.57813 0 .92187 1.34375 1.32812 1.875 1.32812.46875 0 .6875-.34375.89063-.85937.57812-1.78125 1.28125-2.09375 1.85937-2.09375.59375 0 1.1875.35937 1.1875 1.5625v1.10937c-.75.51563-2.48437 1.01563-3.84375 1.48438C1.5625-4.84375 1-4.01562 1-2.8125m3.20313-.32812c0-.98438.35937-1.48438.98437-1.84375.64063-.35938 1.35938-.64063 1.875-.85938v3.03125c-.04687 1.14063-.70312 1.42188-1.28125 1.42188-.82812 0-1.57812-.64063-1.57812-1.75m0 0"/><path id="i" d="M.78125-9.25h1.23438v6.79688C2.01563-.53125 3.42188.25 4.59375.25c.875 0 2.17188-.39062 3.35938-1.125l-.23438-.67187c-.28125.14062-.70312.23437-1.17187.23437-.8125 0-1.35938-.60937-1.35938-1.95312V-9.25H7.375v-1.04687H5.1875v-2.625H3.96875l-1.84375 2.625H.78125Zm0 0"/><path id="j" d="M.82813-5.14062C.82813-2.28125 2.07813.25 5.96875.25c2.5 0 3.85938-1.20312 4.5625-3.0625l-.75-.42187c-.625 1.20312-1.51562 1.875-2.79687 1.875-2.09375 0-2.82813-1.71875-2.82813-3.9375h5.4375c.76563 0 1.125-.20313 1.125-.85938 0-1.71875-.67187-4.375-4.71875-4.375-3.76562 0-5.17187 2.45313-5.17187 5.39063m3.32812-1.15625c0-1.51563.40625-3.28125 1.76563-3.28125 1.26562 0 1.48437 1.60937 1.48437 2.59375 0 .57812-.15625.6875-.64062.6875Zm0 0"/><path id="B" d="M.79688 0h6.28125c3.28125 0 8.48437-.45312 8.48437-7.40625 0-2.34375-.625-4.10937-1.85937-5.32812-1.21875-1.20313-2.96875-1.75-5.6875-1.78125H.79688v.78125c1.5.0625 1.6875.1875 1.6875 1.25v10.45312c0 1.07813-.1875 1.15625-1.6875 1.23438Zm5.04687-1.89062v-11.07813c0-.5.40625-.57812 1.71875-.57812 2.8125 0 4.29688 2.09375 4.29688 6.14062C11.85938-1.875 9.53125-.95312 7.5-.95312c-1.3125 0-1.65625-.28126-1.65625-.9375m0 0"/><path id="C" d="M.67188 0h5.625v-.79687l-.40625-.04688c-.4375-.04687-.70313-.10937-.70313-.8125v-5c0-.46875.07813-.9375.23438-1.21875C5.6875-8.42187 6.25-8.9375 7.125-8.9375c1.0625 0 1.625.67188 1.67188 1.92188v5.35937c0 .70313-.21875.76563-.67188.8125l-.4375.04688V0h5.64063v-.79687c-1.20313-.07813-1.375-.15626-1.375-1.03125v-5.46875c-.03125-1.96875-.98438-3.23438-3.15625-3.23438-1.23438 0-2.23438.625-3.60938 1.4375l-.28125-1.4375-4.125.59375v.76563l.73438.10937c.34375.04688.51562.20313.51562 1.04688v6.1875c0 .875-.15625.95312-1.35937 1.03125Zm0 0"/><path id="D" d="M.82813-5.14062C.82813-1.78125 2.4375.25 6.25.25s5.45313-2.03125 5.45313-5.39062c0-3.34375-1.64063-5.39063-5.45313-5.39063S.82813-8.48437.82813-5.14062m3.32812 0c0-2.8125.59375-4.4375 2.09375-4.4375s2.09375 1.625 2.09375 4.4375S7.75-.71875 6.25-.71875 4.15625-2.32812 4.15625-5.14062m0 0"/><path id="E" d="M1.57813-13.28125c0 1 .71875 1.84375 1.90625 1.84375 1.15625 0 1.96875-.84375 1.96875-1.84375 0-.98437-.76563-1.82812-1.96875-1.82812-1.1875 0-1.90625.84375-1.90625 1.82812M.67188 0h5.92187v-.79687C5.375-.875 5.1875-.95313 5.1875-1.82812v-8.57813l-.125-.125-4.28125.59375v.76563l.73438.10937c.34375.04688.51562.20313.51562 1.04688v6.1875c0 .875-.15625.95312-1.35937 1.03125Zm0 0"/><path id="k" d="M1.26563-6.23437c0 4.73437 1.17187 10.25 5.60937 10.4375v-.625c-1.5-.29688-3.84375-2.46875-3.84375-9.8125 0-7.29688 2.23438-9.46875 3.84375-9.79688v-.625c-4.4375.17188-5.60937 5.6875-5.60937 10.42188m0 0"/><path id="l" d="M1.92188-13.73437c0 .76562.53125 1.29687 1.29687 1.29687.75 0 1.26563-.53125 1.26563-1.29687 0-.75-.51563-1.26563-1.26563-1.26563-.76562 0-1.29687.51563-1.29687 1.26563M.67188 0h5.10937v-.60937c-1.5-.10938-1.5625-.15626-1.5625-1.21875v-8.57813l-.15625-.125L.78125-10v.51563l.78125.10937c.53125.09375.6875.17188.6875.9375v6.60938c0 1.0625-.0625 1.10937-1.57812 1.21875Zm0 0"/><path id="m" d="M.67188 0h5.10937v-.60937c-1.5-.10938-1.5625-.15626-1.5625-1.21875V-6.75c0-.53125.03125-.79687.20313-1.125.45312-.82812 1.39062-1.53125 2.5-1.53125 1.42187 0 2.20312.78125 2.20312 2.625v4.95313c0 1.0625-.0625 1.10937-1.57812 1.21875V0h5.14062v-.60937c-1.5-.10938-1.59375-.15626-1.59375-1.21875V-7.1875c0-2.125-1.15625-3.34375-3.07812-3.34375-1.5625 0-2.51563.75-3.8125 1.59375l-.29688-1.59375L.78125-10v.51563l.78125.10937c.53125.09375.6875.17188.6875.9375v6.60938c0 1.0625-.0625 1.10937-1.57812 1.21875Zm0 0"/><path id="n" d="M1.03125-4.9375c0 3.10938 1.625 5.1875 4.39063 5.1875 1.14062 0 2.10937-.51562 3.23437-1.4375v1.03125L8.84375 0h3.39063v-.60937c-1.5-.10938-1.5625-.15626-1.5625-1.21875v-13.625l-.15625-.10938-3.29688.51563v.53125l.79688.0625c.53125.07812.67187.1875.67187.98437v3.4375c-.57812-.3125-1.35937-.5-2.32812-.5-1.71875 0-3.01563.54688-3.875 1.4375-.90625.9375-1.45313 2.32813-1.45313 4.15625m2.1875-.25c0-2.71875.98438-4.60937 3.125-4.60937.98438 0 1.78125.4375 2.15625 1.3125.1875.35937.1875.67187.1875 1.23437v3.67188c0 .46875 0 .82812-.14062 1.1875C8.125-1.29687 7.21875-.875 6.125-.875c-1.92187 0-2.90625-1.89062-2.90625-4.3125m0 0"/><path id="o" d="M1.03125-4.89062C1.03125-1.54687 2.85938.25 5.40625.25c1.1875 0 2.1875-.5625 3.28125-1.35937v4.09375c0 1.07812-.10937 1.125-1.67187 1.23437v.60938h5.21875v-.60938c-1.45313-.10937-1.5625-.15625-1.5625-1.23437v-13.51563h-.57813l-.89062.64063c-.8125-.45313-1.875-.64063-2.76563-.64063-1.6875 0-3.01562.5-3.9375 1.4375s-1.46875 2.3125-1.46875 4.20313m2.1875-.26563c0-2.59375.89063-4.64062 3.03125-4.64062 1.09375 0 1.875.375 2.28125 1.45312.125.32813.15625.6875.15625 1.20313v3.54687c0 .46875 0 .82813-.14062 1.15625C8.15625-1.3125 7.34375-.875 6.1875-.875c-2.07812 0-2.96875-1.92187-2.96875-4.28125m0 0"/><path id="p" d="m.53125-9.48437.8125.10937c.53125.09375.67188.17188.67188.9375v5.53125C2.01563-.48437 3.4375.25 5 .25c1.78125 0 3.23438-1.20312 3.84375-1.5L9.04688 0h3.375v-.60937c-1.45313-.10938-1.59375-.15626-1.59375-1.21875v-8.57813l-.15625-.125L7.39063-10v.51563l.79687.10937c.54688.09375.67188.17188.67188.9375v4.73438c0 .57812-.0625 1.04687-.17188 1.25C8.1875-1.5 7.21875-.875 6.125-.875 4.89063-.875 4-1.65625 4-3.28125v-7.125l-.15625-.125L.53125-10Zm0 0"/><path id="q" d="M1.03125-5.0625C1.03125-1.73437 2.45313.25 5.875.25c2.3125 0 3.53125-1.29687 4.07813-2.95312l-.625-.32813C8.75-1.8125 7.95313-.82812 6.29688-.82812c-2.60938 0-3.125-2.5-3.07813-4.6875h6.04688c.45312 0 .82812-.10938.82812-.79688 0-1.23437-.40625-4.21875-4.25-4.21875-3.28125 0-4.8125 2.3125-4.8125 5.46875m2.20313-1.25c0-.875.3125-3.48437 2.5-3.48437 1.95312 0 2.17187 1.98437 2.17187 2.8125 0 .39062-.14062.67187-.71875.67187Zm0 0"/><path id="r" d="M1.03125-5.04687C1.03125-1.54687 2.75.25 5.89063.25 7.375.25 9.35938-.51562 9.9375-2.76562l-.625-.29688C8.65625-1.57812 7.84375-.84375 6.29688-.84375c-2.5 0-3.07813-2.60937-3.07813-4.57812 0-3.125 1.21875-4.375 2.67188-4.375.96875 0 1.5625.6875 1.98437 1.82812.14063.32813.28125.53125.67188.53125.42187 0 1.23437-.26562 1.23437-1.0625 0-.96875-1.39062-2.03125-3.65625-2.03125-3.82812 0-5.09375 2.6875-5.09375 5.48438m0 0"/><path id="s" d="M1.03125-5.14062C1.03125-1.73437 2.70313.25 6.07813.25c3.35937 0 5.01562-1.98437 5.01562-5.39062 0-3.39063-1.65625-5.39063-5.01562-5.39063-3.375 0-5.04688 2-5.04688 5.39063m2.1875 0c0-2.89063.9375-4.65625 2.85938-4.65625S8.9375-8.03125 8.9375-5.14062C8.9375-2.23437 8-.48437 6.07813-.48437s-2.85938-1.75-2.85938-4.65625m0 0"/><path id="t" d="M.67188 0h5.10937v-.60937c-1.5-.10938-1.5625-.15626-1.5625-1.21875V-6.75c0-.53125 0-.8125.15625-1.10937.40625-.84375 1.3125-1.54688 2.48438-1.54688 1.79687 0 2.03125 1.32813 2.03125 2.625v4.95313c0 1.0625-.07813 1.10937-1.59375 1.21875V0h5.125v-.60937c-1.5-.10938-1.57813-.15626-1.57813-1.21875V-6.75c0-.53125.03125-.79687.15625-1.125.32813-.85937 1.21875-1.53125 2.39063-1.53125 1.32812 0 2.125.75 2.125 2.625v4.95313c0 1.0625-.0625 1.10937-1.57813 1.21875V0h5.125v-.60937c-1.48437-.10938-1.57812-.15626-1.57812-1.21875V-7.1875c0-2.125-1.14063-3.34375-3.125-3.34375-1.71875 0-2.95313 1.125-3.6875 1.59375-.51563-.96875-1.3125-1.59375-2.79688-1.59375-1.59375 0-2.92187 1.0625-3.65625 1.59375l-.20312-1.59375L.78125-10v.51563l.78125.10937c.53125.09375.6875.17188.6875.9375v6.60938c0 1.0625-.0625 1.10937-1.57812 1.21875Zm0 0"/><path id="u" d="m.42188-14.51562.8125.0625c.53125.07812.65625.1875.65625.98437V.09375L2.28125.25l.82813-.8125c.73437.42188 1.625.8125 3.1875.8125 2.79687 0 5.21875-1.34375 5.21875-5.625 0-1.29687-.26563-5.15625-4.03125-5.15625-1.59375 0-2.84375 1.01563-3.625 1.48438v-6.40625l-.15625-.10938-3.28125.51563Zm3.4375 11.09375V-6.75c0-.53125.03125-.84375.20312-1.17187.51563-1.01563 1.39063-1.48438 2.5625-1.48438.875 0 2.70313.5 2.70313 4.15625 0 3.07813-.9375 4.76563-3.01563 4.76563-1.10937 0-1.90625-.5625-2.29687-1.60938-.125-.39062-.15625-.8125-.15625-1.32812m0 0"/><path id="v" d="M.53125 4.21875v.60938h5.4375v-.60938C4.20313 4.10938 4.0625 4.0625 4.0625 2.98438V-.21875C4.51563.01563 5.51563.25 6.46875.25c2.84375 0 5.25-1.29687 5.25-5.625 0-1.5-.26562-5.15625-4.07812-5.15625-1.54688 0-2.75 1.01563-3.57813 1.5625l-.26562-1.5625L.625-10v.51563l.79688.10937c.54687.09375.67187.17188.67187.9375V2.98438c0 1.07812-.07812 1.125-1.5625 1.23437M4.0625-3.29687V-6.75c0-.53125.10938-.79687.29688-1.17187.48437-.96875 1.35937-1.48438 2.46875-1.48438.85937 0 2.73437.54688 2.73437 4.15625 0 3.07813-.98437 4.76563-3.09375 4.76563-1.09375 0-1.90625-.5625-2.25-1.53125-.125-.375-.15625-.79688-.15625-1.28125m0 0"/><path id="w" d="M1.03125-2.71875C1.03125-1.15625 2.07813.25 4.04688.25 5.26563.25 6.5-.5625 7.17188-1c.28125.78125.64062 1.25 1.375 1.25.78125 0 1.67187-.23437 2.48437-.625l-.14062-.5c-.28125.07813-.75.09375-1.0625 0-.39063-.07812-.73438-.46875-.73438-1.78125V-7.75c0-1.21875-.28125-2.78125-3.4375-2.78125-2.375 0-4.25 1.21875-4.25 2.375 0 .67188.78125.98438 1.1875.98438.4375 0 .54688-.21875.67188-.57813.46875-1.5625 1.3125-2.04687 2.15625-2.04687.82812 0 1.76562.42187 1.76562 2.09375v.875c-.53125.53125-2.5625 1.0625-4.21875 1.60937-1.51562.46875-1.9375 1.51563-1.9375 2.5m2.10938-.29687c0-.98438.45312-1.5 1.64062-1.9375.84375-.3125 1.9375-.71875 2.40625-1.01563v2.98438c0 1.6875-1.29687 2.10937-2.125 2.10937-1.28125 0-1.92187-.90625-1.92187-2.14062m0 0"/><path id="x" d="M.67188 0h5.53125v-.60937c-1.875-.10938-1.98438-.15626-1.98438-1.21875V-6.75c0-1.59375.71875-2.15625 1.20313-2.15625.34375 0 .70312.125 1.29687.46875.15625.09375.3125.10938.42188.10938.51562 0 .96875-.53125.96875-1.1875 0-.46875-.29688-1.01563-1.125-1.01563-.75 0-1.375.4375-2.76563 1.67188l-.25-1.67188L.78125-10v.51563l.78125.10937c.53125.09375.6875.17188.6875.9375v6.60938c0 1.0625-.10937 1.10937-1.57812 1.21875Zm0 0"/><path id="y" d="M.64063-9.4375h1.53125v7.29688C2.17188 0 3.75.25 4.48438.25c1.07812 0 2.07812-.54687 2.6875-.92187l-.15625-.4375c-.51563.1875-.96875.26562-1.5.26562-.71875 0-1.39063-.51562-1.39063-2.10937V-9.4375h2.70313v-.85937H4.125v-2.625h-.59375L2.25-10.29687H.64063Zm0 0"/><path id="z" d="m.98438-3.5.21874 2.73438C1.96876-.09376 3.23438.25 4.46876.25c2.5 0 3.92188-1.32812 3.92188-3.10937 0-1.85938-1.14063-2.67188-3.29688-3.34375-.875-.26563-2.23437-.71875-2.23437-1.90625 0-1.09375.82812-1.6875 1.875-1.6875 1.5 0 2.20312 1.15625 2.35937 2.42187h.60938v-2.45312c-.6875-.51563-1.76563-.70313-2.70313-.70313-2.28125 0-3.8125 1.0625-3.8125 3.04688 0 1.75 1.42188 2.53125 3.17188 3.0625.9375.29687 2.25.76562 2.25 2.1875 0 1.07812-.82813 1.75-1.9375 1.75-1.70313 0-2.65625-1.23438-3.09375-3.01563Zm0 0"/><path id="A" d="M6.45313-6.23437c0-4.73438-1.15625-10.25-5.60938-10.42188v.625c1.60938.32813 3.84375 2.5 3.84375 9.79688 0 7.34375-2.34375 9.51562-3.84375 9.8125v.625C5.29688 4.01563 6.45313-1.5 6.45313-6.23437m0 0"/><path id="F" d="M.42188 0h5.10937v-.60937c-1.48437-.10938-1.5625-.15626-1.5625-1.21875v-13.625l-.15625-.10938-3.28125.51563v.53125l.78125.0625c.54688.07812.67188.1875.67188.98437v11.64063c0 1.0625-.04688 1.10937-1.5625 1.21875Zm0 0"/><path id="G" d="m1.51563-10.25.35937.34375c1.04688-.96875 2.48438-2.375 2.48438-3.875 0-1.14062-.70313-1.78125-1.39063-1.78125-.625 0-1 .45313-1 1 0 .76563.6875 1.1875.6875 1.96875 0 .79688-.48437 1.59375-1.14062 2.34375m0 0"/><path id="H" d="m4.21875-11.79687.3125.4375L7.70313-13.125c.625-.34375 1.1875-.70312 1.1875-1.14062 0-.42188-.51563-.92188-.82813-.92188-.35937 0-.71875.23438-1.34375.875ZM1.03125-5.0625C1.03125-1.73437 2.45313.25 5.875.25c2.3125 0 3.53125-1.29687 4.07813-2.95312l-.625-.32813C8.75-1.8125 7.95313-.82812 6.29688-.82812c-2.60938 0-3.125-2.5-3.07813-4.6875h6.04688c.45312 0 .82812-.10938.82812-.79688 0-1.23437-.40625-4.21875-4.25-4.21875-3.28125 0-4.8125 2.3125-4.8125 5.46875m2.20313-1.25c0-.875.3125-3.48437 2.5-3.48437 1.95312 0 2.17187 1.98437 2.17187 2.8125 0 .39062-.14062.67187-.71875.67187Zm0 0"/><path id="I" d="M.875 2.01563C.875 4.125 2.98438 5.0625 5.42188 5.0625 6.67188 5.0625 8 4.82813 9 4.21875c.95313-.57812 1.67188-1.57812 1.67188-2.875 0-2.28125-1.8125-3.0625-4.0625-3.0625H4.9375c-1.51562 0-1.75-.51562-1.75-.92187 0-.59375.8125-.9375 1.07813-1.01563.40625.04688.84375.0625 1.07812.0625 1.98438 0 4.23438-.875 4.23438-3.42187 0-.85938-.29688-1.60938-.64063-1.95313L10.60938-9.25l.42187-1.3125-.1875-.17187-2.67187.84375c-.57813-.40625-1.76563-.64063-2.71875-.64063-3.21875 0-4.34375 1.95313-4.34375 3.51563 0 1.96875 1.29687 2.89062 2.26562 3.125v.04687c-1.14062.45313-1.92187 1.04688-1.92187 1.875 0 .73438.84375 1.51563 1.84375 1.64063v.03125C2.40625 0 .875.48438.875 2.01563m2-.09375c0-.71875.20313-1.25.65625-1.59375C4-.01562 4.6875-.15625 5.6875-.15625c1.85938 0 3.21875.46875 3.21875 2.03125 0 1.67188-1.51562 2.48438-3.01562 2.48438-1.78125 0-3.01563-.92188-3.01563-2.4375m.39063-8.9375c0-2.07813 1.0625-2.78125 2.1875-2.78125 1.01562 0 2.09375.75 2.09375 2.78125 0 1.76562-.89063 2.6875-2.125 2.6875-1.17188 0-2.15625-.92188-2.15625-2.6875m0 0"/></defs><use xlink:href="#a" x="11.42401" y="26.83137" fill="#007F7F"/><path fill="none" stroke="#000" stroke-miterlimit="10" stroke-width="1.22802" d="M11.42578 36.36328h13.08203"/><use xlink:href="#b" x="11.48004" y="57.93066" fill="#FF7F00"/><path fill="none" stroke="#007F7F" stroke-miterlimit="10" stroke-width=".39689" d="M38.41015 18.1797h43.07811"/><path fill="#007F7F" stroke="#007F7F" stroke-miterlimit="10" stroke-width=".39689" d="M34.58594 18.17969c.46875.125 2.53515.83984 3.82422 1.62109V16.5625c-1.28907.77734-3.35547 1.49219-3.82422 1.61719Zm0 0"/><path fill="none" stroke="#FF7F00" stroke-miterlimit="10" stroke-width=".39689" d="M38.41015 53.11718h43.07811"/><path fill="#FF7F00" stroke="#FF7F00" stroke-miterlimit="10" stroke-width=".39689" d="M34.58594 53.11719c.46875.125 2.53515.83984 3.82422 1.6211V51.5c-1.28907.77734-3.35547 1.49219-3.82422 1.61719Zm0 0"/><use xlink:href="#c" x="89.37369" y="24.09622" fill="#007F7F"/><g fill="#007F7F"><use xlink:href="#d" x="104.46562" y="24.09622"/><use xlink:href="#e" x="117.88315" y="24.09622"/><use xlink:href="#f" x="137.99828" y="24.09622"/><use xlink:href="#g" x="149.07165" y="24.09622"/><use xlink:href="#h" x="158.51527" y="24.09622"/><use xlink:href="#i" x="170.14677" y="24.09622"/><use xlink:href="#j" x="178.11692" y="24.09622"/><use xlink:href="#d" x="189.19029" y="24.09622"/><use xlink:href="#g" x="202.60782" y="24.09622"/></g><use xlink:href="#k" x="216.76248" y="24.09622"/><use xlink:href="#l" x="224.48705" y="24.09622"/><use xlink:href="#m" x="230.58187" y="24.09622"/><use xlink:href="#n" x="243.5529" y="24.09622"/><use xlink:href="#l" x="256.09974" y="24.09622"/><use xlink:href="#o" x="262.19456" y="24.09622"/><use xlink:href="#p" x="274.58512" y="24.09622"/><use xlink:href="#q" x="287.28824" y="24.09622"/><use xlink:href="#r" x="302.78203" y="24.09622"/><use xlink:href="#s" x="313.18564" y="24.09622"/><use xlink:href="#t" x="325.28597" y="24.09622"/><use xlink:href="#u" x="344.64204" y="24.09622"/><use xlink:href="#l" x="357.18889" y="24.09622"/><use xlink:href="#q" x="363.28371" y="24.09622"/><use xlink:href="#m" x="374.06685" y="24.09622"/><use xlink:href="#n" x="391.74852" y="24.09622"/><use xlink:href="#q" x="404.29536" y="24.09622"/><use xlink:href="#v" x="419.78915" y="24.09622"/><use xlink:href="#w" x="432.53692" y="24.09622"/><use xlink:href="#x" x="443.49866" y="24.09622"/><use xlink:href="#y" x="451.82601" y="24.09622"/><use xlink:href="#z" x="459.0371" y="24.09622"/><use xlink:href="#s" x="472.87881" y="24.09622"/><use xlink:href="#m" x="484.97915" y="24.09622"/><use xlink:href="#v" x="502.66082" y="24.09622"/><use xlink:href="#x" x="515.40859" y="24.09622"/><use xlink:href="#q" x="523.13316" y="24.09622"/><use xlink:href="#m" x="533.9163" y="24.09622"/><use xlink:href="#n" x="546.88732" y="24.09622"/><use xlink:href="#A" x="559.43416" y="24.09622"/><g fill="#FF7F00"><use xlink:href="#B" x="89.37369" y="58.90994"/><use xlink:href="#f" x="105.89444" y="58.90994"/><use xlink:href="#C" x="116.96781" y="58.90994"/><use xlink:href="#D" x="130.56394" y="58.90994"/><use xlink:href="#e" x="143.04381" y="58.90994"/><use xlink:href="#E" x="163.15894" y="58.90994"/><use xlink:href="#C" x="170.01282" y="58.90994"/><use xlink:href="#h" x="183.60896" y="58.90994"/><use xlink:href="#i" x="195.24046" y="58.90994"/><use xlink:href="#j" x="203.21061" y="58.90994"/><use xlink:href="#d" x="214.28398" y="58.90994"/><use xlink:href="#g" x="227.70151" y="58.90994"/></g><use xlink:href="#k" x="241.85615" y="58.90994"/><use xlink:href="#l" x="249.58072" y="58.90994"/><use xlink:href="#m" x="255.67554" y="58.90994"/><use xlink:href="#n" x="268.64656" y="58.90994"/><use xlink:href="#l" x="281.19341" y="58.90994"/><use xlink:href="#o" x="287.28822" y="58.90994"/><use xlink:href="#p" x="299.67879" y="58.90994"/><use xlink:href="#q" x="312.38191" y="58.90994"/><use xlink:href="#q" x="327.8757" y="58.90994"/><use xlink:href="#m" x="338.65884" y="58.90994"/><use xlink:href="#r" x="356.34051" y="58.90994"/><use xlink:href="#s" x="366.74412" y="58.90994"/><use xlink:href="#t" x="378.84445" y="58.90994"/><use xlink:href="#u" x="398.20052" y="58.90994"/><use xlink:href="#l" x="410.74737" y="58.90994"/><use xlink:href="#q" x="416.84218" y="58.90994"/><use xlink:href="#m" x="427.62532" y="58.90994"/><use xlink:href="#n" x="445.307" y="58.90994"/><use xlink:href="#q" x="457.85384" y="58.90994"/><use xlink:href="#v" x="473.34763" y="58.90994"/><use xlink:href="#w" x="486.0954" y="58.90994"/><use xlink:href="#x" x="497.05714" y="58.90994"/><use xlink:href="#y" x="505.38449" y="58.90994"/><use xlink:href="#z" x="512.59558" y="58.90994"/><use xlink:href="#F" x="526.43729" y="58.90994"/><use xlink:href="#G" x="532.0856" y="58.90994"/><use xlink:href="#p" x="537.91252" y="58.90994"/><use xlink:href="#m" x="550.61564" y="58.90994"/><use xlink:href="#l" x="563.58666" y="58.90994"/><use xlink:href="#y" x="569.68148" y="58.90994"/><use xlink:href="#H" x="576.89256" y="58.90994"/><use xlink:href="#q" x="592.38635" y="58.90994"/><use xlink:href="#z" x="603.16949" y="58.90994"/><use xlink:href="#y" x="612.30056" y="58.90994"/><use xlink:href="#v" x="624.22229" y="58.90994"/><use xlink:href="#w" x="636.97006" y="58.90994"/><use xlink:href="#x" x="647.9318" y="58.90994"/><use xlink:href="#y" x="656.25915" y="58.90994"/><use xlink:href="#w" x="663.47024" y="58.90994"/><use xlink:href="#I" x="674.43198" y="58.90994"/><use xlink:href="#H" x="685.32675" y="58.90994"/><use xlink:href="#q" x="696.10989" y="58.90994"/><use xlink:href="#A" x="706.89303" y="58.90994"/></svg>