<svg xmlns="http://www.w3.org/2000/svg" width="106.698pt" height="106.698pt" viewBox="0 0 106.698 106.698"><defs><clipPath id="a"><path d="M0 0h106.39844v106.39844H0Zm0 0"/></clipPath><clipPath id="b"><path d="M.19922.19922h106v53h-106Zm0 0"/></clipPath><clipPath id="c"><path d="M0 53h106.39844v1H0Zm0 0"/></clipPath></defs><g clip-path="url(#a)"><path fill="#FFF" stroke="#000" stroke-miterlimit="10" stroke-width=".39738" d="M106.19924 53.19922c0-29.27345-23.73048-53.00002-53.00002-53.00002C23.92577.1992.1992 23.92577.1992 53.19922c0 29.26954 23.72657 53.00002 53.00002 53.00002 29.26954 0 53.00002-23.73048 53.00002-53.00002Zm0 0"/></g><g clip-path="url(#b)"><path fill="#7FD6F7" stroke="#000" stroke-miterlimit="10" stroke-width=".39738" d="M106.19924 53.19922c0-29.27345-23.73048-53.00002-53.00002-53.00002C23.92577.1992.1992 23.92577.1992 53.19922c0 29.26954 23.72657 53.00002 53.00002 53.00002 29.26954 0 53.00002-23.73048 53.00002-53.00002Zm0 0"/></g><g clip-path="url(#c)"><path fill="none" stroke="#000" stroke-miterlimit="10" stroke-width=".39738" d="M.1992 53.19922h106.00004"/></g></svg>