<svg xmlns="http://www.w3.org/2000/svg" width="680.713pt" height="57.091pt" viewBox="0 0 680.713 57.091"><defs><clipPath id="a"><path d="M5.1914 0h670.04688v56H5.19141Zm0 0"/></clipPath><clipPath id="b"><path d="M5.1914 0h670.04688v56.19531H5.19141Zm0 0"/></clipPath><clipPath id="c"><path d="M5.1914 0H117v29H5.1914Zm0 0"/></clipPath><clipPath id="d"><path d="M5.1914 0H118v29H5.1914Zm0 0"/></clipPath><clipPath id="e"><path d="M563 0h112.23828v29H563Zm0 0"/></clipPath><clipPath id="f"><path d="M5.1914 28H117v28H5.1914Zm0 0"/></clipPath><clipPath id="g"><path d="M5.1914 27H118v29.19531H5.1914Zm0 0"/></clipPath><clipPath id="h"><path d="M5.1914 0H6v56.19531h-.8086Zm0 0"/></clipPath><clipPath id="i"><path d="M116 0h2v56.19531h-2Zm0 0"/></clipPath><clipPath id="j"><path d="M228 0h1v56.19531h-1Zm0 0"/></clipPath><clipPath id="k"><path d="M340 0h1v56.19531h-1Zm0 0"/></clipPath><clipPath id="l"><path d="M451 0h2v56.19531h-2Zm0 0"/></clipPath><clipPath id="m"><path d="M563 0h1v56.19531h-1Zm0 0"/></clipPath><clipPath id="n"><path d="M674 0h1.23828v56.19531H674Zm0 0"/></clipPath><clipPath id="o"><path d="M5.1914 27h670.04688v2H5.19141Zm0 0"/></clipPath></defs><g clip-path="url(#a)"><path fill="#FFF" d="M5.39063 56V.19531h669.66015V56Zm0 0"/></g><g clip-path="url(#b)"><path fill="none" stroke="#000" stroke-miterlimit="10" stroke-width=".39226" d="M5.39062 56V.19529h669.66044V56Zm0 0"/></g><g clip-path="url(#c)"><path fill="#7FD6F7" d="M5.39063 28.09766V.1953H117v27.90235Zm0 0"/></g><g clip-path="url(#d)"><path fill="none" stroke="#000" stroke-miterlimit="10" stroke-width=".39226" d="M5.39062 28.09764V.1953h111.60943v27.90235Zm0 0"/></g><path fill="#7FD6F7" stroke="#000" stroke-miterlimit="10" stroke-width=".39226" d="M117.00005 28.09764V.1953h111.60942v27.90235Zm111.60942 0V.1953h111.60942v27.90235Zm111.60943 0V.1953h111.6094v27.90235Zm111.60941 0V.1953h111.61333v27.90235Zm0 0"/><g clip-path="url(#e)"><path fill="#7FD6F7" stroke="#000" stroke-miterlimit="10" stroke-width=".39226" d="M563.44164 28.09764V.1953h111.60942v27.90235Zm0 0"/></g><g clip-path="url(#f)"><path fill="#7FD6F7" d="M5.39063 56V28.09766H117V56Zm0 0"/></g><g clip-path="url(#g)"><path fill="none" stroke="#000" stroke-miterlimit="10" stroke-width=".39226" d="M5.39062 56V28.09764h111.60943V56Zm0 0"/></g><g clip-path="url(#h)"><path fill="none" stroke="#000" stroke-miterlimit="10" stroke-width=".39226" d="M5.39062 56V.19529"/></g><g clip-path="url(#i)"><path fill="none" stroke="#000" stroke-miterlimit="10" stroke-width=".39226" d="M117.00005 56V.19529"/></g><g clip-path="url(#j)"><path fill="none" stroke="#000" stroke-miterlimit="10" stroke-width=".39226" d="M228.60947 56V.19529"/></g><g clip-path="url(#k)"><path fill="none" stroke="#000" stroke-miterlimit="10" stroke-width=".39226" d="M340.2189 56V.19529"/></g><g clip-path="url(#l)"><path fill="none" stroke="#000" stroke-miterlimit="10" stroke-width=".39226" d="M451.82831 56V.19529"/></g><g clip-path="url(#m)"><path fill="none" stroke="#000" stroke-miterlimit="10" stroke-width=".39226" d="M563.44164 56V.19529"/></g><g clip-path="url(#n)"><path fill="none" stroke="#000" stroke-miterlimit="10" stroke-width=".39226" d="M675.05106 56V.19529"/></g><g clip-path="url(#o)"><path fill="none" stroke="#000" stroke-miterlimit="10" stroke-width=".39226" d="M5.39062 28.09764h669.66044"/></g></svg>