<svg xmlns="http://www.w3.org/2000/svg" xmlns:xlink="http://www.w3.org/1999/xlink" width="504.875pt" height="216.737pt" viewBox="0 0 504.875 216.737"><defs><clipPath id="g"><path d="M8 13h496.50781v36H8Zm0 0"/></clipPath><clipPath id="h"><path d="M8 12h496.50781v38H8Zm0 0"/></clipPath><clipPath id="i"><path d="M8 84h496.50781v36H8Zm0 0"/></clipPath><clipPath id="j"><path d="M8 83h496.50781v37H8Zm0 0"/></clipPath><clipPath id="k"><path d="M8 154h496.50781v37H8Zm0 0"/></clipPath><clipPath id="w"><path d="M250 43h254.50781v47H250Zm0 0"/></clipPath><clipPath id="b"><path d="M48 48h29.49219v29.26172H48Zm0 0"/></clipPath><clipPath id="c"><path d="M.36719.13672H59V59H.36719Zm0 0"/></clipPath><clipPath id="a"><path d="M0 0h78v78H0z"/></clipPath><clipPath id="y"><path d="M349 113h155.50781v48H349Zm0 0"/></clipPath><clipPath id="e"><path d="M48 49h29.58594v29H48Zm0 0"/></clipPath><clipPath id="f"><path d="M.45703 1H59v59H.45703Zm0 0"/></clipPath><clipPath id="d"><path d="M0 0h78v79H0z"/></clipPath><path id="l" d="M1.26563 0h3.84375v-.32812L4.125-.42187C3.875-.45312 3.75-.53125 3.75-1v-6.89062l-.0625-.0625-2.42187.42187V-7.25l1.09375.14063c.20312.01562.28125.10937.28125.4375V-1c0 .23438-.03125.35938-.10938.45313-.0625.09374-.15625.10937-.28125.125l-.98437.09375Zm0 0"/><path id="m" d="M.57813-2.75c0 1.73438.90625 2.89063 2.4375 2.89063.64062 0 1.17187-.29688 1.8125-.79688v.5625L4.92188 0H6.8125v-.32812c-.82812-.0625-.875-.09375-.875-.6875v-7.59375l-.07812-.0625-1.84375.28125v.3125l.45312.03125c.29688.03125.375.09375.375.54687v1.92188c-.32812-.1875-.76562-.29688-1.29687-.29688-.95313 0-1.6875.3125-2.17188.8125C.89063-4.54687.57813-3.76562.57813-2.75m1.21875-.14062c0-1.51563.54687-2.5625 1.73437-2.5625.54688 0 1 .23437 1.20313.73437.10937.1875.10937.35938.10937.67188v2.0625c0 .25 0 .45312-.07812.65625-.23438.60937-.75.84375-1.35938.84375-1.0625 0-1.60937-1.0625-1.60937-2.40625m0 0"/><path id="n" d="M1.0625-7.65625c0 .4375.3125.73438.73438.73438.42187 0 .70312-.29688.70312-.73438 0-.42187-.28125-.70312-.70312-.70312-.42188 0-.73438.28125-.73438.70312M.375 0h2.84375v-.32812c-.82812-.0625-.875-.09375-.875-.6875v-4.78125L2.26563-5.875.4375-5.57812v.29687l.4375.0625c.29688.04688.375.09375.375.51563v3.6875c0 .59375-.03125.625-.875.6875Zm0 0"/><path id="o" d="M.01563 0H2.25v-.32812l-.48437-.0625c-.15626-.03125-.15626-.17188-.09376-.29688.26563-.5.64063-1.04687 1.04688-1.65625h.01563l1.04687 1.625c.125.20313.09375.29688-.09375.32813l-.48437.0625V0H5.9375v-.32812c-.51562-.03125-.70312-.0625-1-.5-.53125-.76563-1.09375-1.57813-1.60937-2.39063.39062-.59375.84375-1.1875 1.29687-1.73437.29688-.375.46875-.40625 1.01563-.4375v-.34375H3.46875v.34375l.46875.04687c.17188.01563.15625.14063.0625.26563-.26562.45312-.57812.9375-.92187 1.46875H3.0625L2.07813-5.0625c-.09375-.14062-.0625-.26562.10937-.29687l.34375-.03125v-.34375H.09375v.34375c.48438.03125.57813.04687.85938.42187.48437.6875 1 1.45313 1.5 2.1875-.4375.64063-.89063 1.29688-1.375 1.9375C.78125-.4375.51563-.375.01563-.32812Zm0 0"/><path id="p" d="M1.42188-7.95312c0 .25.29687.45312.64062.64062l1.76563.98438L4-6.5625 2.625-7.96875c-.34375-.35937-.5625-.48437-.76562-.48437-.17188 0-.4375.26562-.4375.5m-.84375 5.125c0 1.85937.79687 2.96875 2.6875 2.96875C4.5625.14063 5.23438-.57812 5.54688-1.5l-.34375-.1875C4.875-1 4.42188-.45312 3.5-.45312c-1.45312 0-1.73437-1.40625-1.70312-2.625h3.35937c.25 0 .46875-.0625.46875-.4375 0-.6875-.23437-2.35938-2.35937-2.35938-1.82813 0-2.6875 1.29688-2.6875 3.04688m1.21875-.6875c0-.48438.1875-1.9375 1.40625-1.9375 1.07812 0 1.20312 1.09375 1.20312 1.5625 0 .21875-.07812.375-.40625.375Zm0 0"/><path id="q" d="M.375 0h2.84375v-.32812c-.82812-.0625-.875-.09375-.875-.6875V-3.75c0-.29687 0-.46875.09375-.625.21875-.46875.73438-.85937 1.375-.85937 1.01563 0 1.14063.73437 1.14063 1.45312v2.76563c0 .59375-.04688.625-.89063.6875V0h2.85938v-.32812c-.84375-.0625-.875-.09375-.875-.6875V-3.75c0-.29687.01562-.45312.07812-.64062.1875-.46875.67188-.84375 1.34375-.84375.73438 0 1.17188.40625 1.17188 1.45312v2.76563c0 .59375-.03125.625-.875.6875V0H10.625v-.32812c-.84375-.0625-.89062-.09375-.89062-.6875V-4c0-1.1875-.625-1.875-1.73438-1.875-.95312 0-1.64062.64063-2.0625.90625-.28125-.54687-.71875-.90625-1.54687-.90625-.89063 0-1.625.59375-2.04688.90625L2.23438-5.875.4375-5.57812v.29687l.4375.0625c.29688.04688.375.09375.375.51563v3.6875c0 .59375-.03125.625-.875.6875Zm0 0"/><path id="r" d="M.57813-2.82812c0 1.85937.79687 2.96875 2.6875 2.96875C4.5625.14063 5.23438-.57812 5.54688-1.5l-.34375-.1875C4.875-1 4.42188-.45312 3.5-.45312c-1.45312 0-1.73437-1.40625-1.70312-2.625h3.35937c.25 0 .46875-.0625.46875-.4375 0-.6875-.23437-2.35938-2.35937-2.35938-1.82813 0-2.6875 1.29688-2.6875 3.04688m1.21875-.6875c0-.48438.1875-1.9375 1.40625-1.9375 1.07812 0 1.20312 1.09375 1.20312 1.5625 0 .21875-.07812.375-.40625.375Zm0 0"/><path id="s" d="M.57813-2.8125c0 1.95313.95312 2.95313 2.70312 2.95313.82813 0 1.9375-.42188 2.25-1.6875l-.34375-.15626C4.82813-.89062 4.35938-.46874 3.5-.46874c-1.39062 0-1.70312-1.45312-1.70312-2.54687 0-1.75.67187-2.4375 1.48437-2.4375.53125 0 .875.375 1.10938 1.01562.07812.1875.15625.29688.375.29688.23437 0 .6875-.15625.6875-.59375 0-.54688-.78125-1.14063-2.04688-1.14063-2.125 0-2.82812 1.51563-2.82812 3.0625m0 0"/><path id="t" d="M.375 0h2.84375v-.32812c-.82812-.0625-.875-.09375-.875-.6875V-3.75c0-.29687.01563-.45312.125-.64062.25-.45313.76563-.84375 1.39063-.84375.79687 0 1.23437.4375 1.23437 1.45312v2.76563c0 .59375-.04687.625-.89062.6875V0H7.0625v-.32812c-.82812-.0625-.875-.09375-.875-.6875V-4c0-1.1875-.65625-1.875-1.71875-1.875-.875 0-1.40625.42188-2.125.90625L2.17188-5.875.4375-5.57812v.29687l.4375.0625c.29688.04688.375.09375.375.51563v3.6875c0 .59375-.03125.625-.875.6875Zm0 0"/><path id="u" d="M.35938-5.26562h.84375v4.07812C1.20313 0 2.09375.14063 2.5.14063c.59375 0 1.15625-.29688 1.5-.51563l-.09375-.25c-.28125.10938-.53125.15625-.82812.15625-.40625 0-.78125-.29687-.78125-1.17187v-3.625H3.8125v-.46875H2.29688v-1.46875h-.32813L1.25-5.73437H.35938Zm0 0"/><path id="v" d="M.23438 0h2.84375v-.32812c-.82813-.0625-.85938-.09375-.85938-.6875v-7.59375l-.09375-.0625-1.82812.28125v.3125l.4375.03125c.29687.03125.375.09375.375.54687v6.48438c0 .59375-.03126.625-.875.6875Zm0 0"/><g id="x" clip-path="url(#a)"><path fill="#9AAAB4" d="m59.03516 52.92578-6.04688 6.0586-10.60937-10.59766 6.05859-6.0586Zm0 0"/><g clip-path="url(#b)"><path fill="#66757F" d="M74.67188 62.5 62.07422 49.90234c-1.67578-1.67578-4.39063-1.67578-6.0625 0l-6.0586 6.0586c-1.67578 1.67578-1.67578 4.38672 0 6.0586L62.5547 74.61718c3.34375 3.34765 8.77734 3.34765 12.1289 0 3.33594-3.34766 3.33594-8.76953-.01171-12.11719m0 0"/></g><g clip-path="url(#c)"><path fill="#8899A6" d="M29.05469.5039C13.24219.72657.54297 13.6172.54297 29.42579c0 7.66797 3.0586 15.01953 8.48047 20.4414 5.42578 5.4336 12.77734 8.48048 20.45312 8.48048 15.96875 0 28.92188-12.95313 28.92188-28.92188 0-7.67578-3.05469-15.03125-8.47657-20.45312C44.4961 3.55078 37.14453.5039 29.47658.5039zm.09765 8.57032h.32422c5.39063 0 10.57032 2.14062 14.38672 5.95703 3.8125 3.8164 5.96484 8.99219 5.96484 14.39453 0 11.23828-9.11328 20.35547-20.35156 20.35547-5.39843 0-10.57812-2.15625-14.39453-5.97266-3.8164-3.8164-5.96875-8.99218-5.96875-14.3828 0-11.125 8.92969-20.1836 20.03906-20.35157m0 0"/></g></g><g id="z" clip-path="url(#d)"><path fill="#9AAAB4" d="m59.1289 53.70313-6.04687 6.0625-10.61328-10.60157 6.0586-6.0586Zm0 0"/><g clip-path="url(#e)"><path fill="#66757F" d="M74.76172 63.28125 62.16406 50.68359c-1.67187-1.67578-4.38672-1.67578-6.0586 0l-6.05859 6.0586c-1.67578 1.67187-1.67578 4.38281 0 6.0586l12.59766 12.59765c3.34766 3.34765 8.78125 3.34765 12.1289 0 3.33594-3.34766 3.33594-8.76953-.01171-12.11719m0 0"/></g><g clip-path="url(#f)"><path fill="#8899A6" d="M29.14844 1.28516C13.33594 1.5078.63672 14.39453.63672 30.20703c0 7.66797 3.0586 15.01953 8.48047 20.4414 5.42578 5.4336 12.77734 8.48048 20.45312 8.48048 15.96875 0 28.92188-12.95313 28.92188-28.92188 0-7.67969-3.05469-15.03125-8.47657-20.45312a28.9067 28.9067 0 0 0-20.4453-8.46875zm.09765 8.5703h.32422c5.39063 0 10.57032 2.14063 14.38672 5.95704 3.8125 3.8164 5.96484 8.99219 5.96484 14.39453 0 11.23828-9.11328 20.35156-20.35156 20.35156-5.39843 0-10.57812-2.15234-14.39453-5.96875-3.8164-3.8164-5.96875-8.99218-5.96875-14.3828 0-11.125 8.92969-20.1836 20.03906-20.35157m0 0"/></g></g></defs><g clip-path="url(#g)"><path fill="#FFF" d="M8.64844 48.71875V13.32813h495.46875v35.39062Zm0 0"/></g><g clip-path="url(#h)"><path fill="none" stroke="#000" stroke-miterlimit="10" stroke-width=".79605" d="M8.64844 48.71875V13.32813h495.46874v35.39062Zm0 0"/></g><path fill="none" stroke="#000" stroke-miterlimit="10" stroke-width=".79605" d="M58.19531 48.71875V13.32813m49.54688 35.39062V13.32813m49.54296 35.39062V13.32813m49.54688 35.39062V13.32813m49.54687 35.39062V13.32813m49.54688 35.39062V13.32813m49.54687 35.39062V13.32813m49.54687 35.39062V13.32813m49.54688 35.39062V13.32813"/><g clip-path="url(#i)"><path fill="#FFF" d="M8.64844 119.5V84.10938h495.46875V119.5Zm0 0"/></g><g clip-path="url(#j)"><path fill="none" stroke="#000" stroke-miterlimit="10" stroke-width=".79605" d="M8.64844 119.5V84.10937h495.46874V119.5Zm0 0"/></g><path fill="none" stroke="#000" stroke-miterlimit="10" stroke-width=".79605" d="M58.19531 119.5V84.10937M107.74219 119.5V84.10937M157.28515 119.5V84.10937M206.83203 119.5V84.10937M256.3789 119.5V84.10937M305.92578 119.5V84.10937M355.47265 119.5V84.10937M405.01952 119.5V84.10937M454.5664 119.5V84.10937"/><g clip-path="url(#k)"><path fill="#FFF" stroke="#000" stroke-miterlimit="10" stroke-width=".79605" d="M8.64844 190.28125v-35.39063h495.46874v35.39063Zm0 0"/></g><path fill="none" stroke="#000" stroke-miterlimit="10" stroke-width=".79605" d="M58.19531 190.28125v-35.39063m49.54688 35.39063v-35.39063m49.54296 35.39063v-35.39063m49.54688 35.39063v-35.39063m49.54687 35.39063v-35.39063m49.54688 35.39063v-35.39063m49.54687 35.39063v-35.39063m49.54687 35.39063v-35.39063m49.54688 35.39063v-35.39063"/><path fill="#7FD6F7" stroke="#000" stroke-miterlimit="10" stroke-width=".39802" d="M8.64844 48.71875V13.32813H58.1953v35.39062Zm0 0"/><path fill="none" stroke="#00ADEF" stroke-miterlimit="10" stroke-width=".39802" d="M33.42187 35.60156v21.96485"/><path fill="#00ADEF" stroke="#00ADEF" stroke-miterlimit="10" stroke-width=".39802" d="M33.42188 31.76953c-.12891.46875-.84375 2.53906-1.625 3.83203h3.24609c-.77734-1.29297-1.4961-3.36328-1.6211-3.83203Zm0 0"/><use xlink:href="#l" x="7.88425" y="70.63129" fill="#00ADEF"/><g fill="#00ADEF"><use xlink:href="#m" x="16.70294" y="70.63129"/><use xlink:href="#n" x="23.69321" y="70.63129"/><use xlink:href="#o" x="27.08884" y="70.63129"/><use xlink:href="#n" x="32.76067" y="70.63129"/><use xlink:href="#p" x="36.1563" y="70.63129"/><use xlink:href="#q" x="42.16395" y="70.63129"/><use xlink:href="#r" x="52.94788" y="70.63129"/></g><path fill="#F57FC5" stroke="#000" stroke-miterlimit="10" stroke-width=".39802" d="M8.64844 119.5V84.10937H58.1953V119.5Zm0 0"/><path fill="none" stroke="#EC008C" stroke-miterlimit="10" stroke-width=".39802" d="M33.42187 106.38281v21.96485"/><path fill="#EC008C" stroke="#EC008C" stroke-miterlimit="10" stroke-width=".39802" d="M33.42188 102.55078c-.12891.46875-.84375 2.53906-1.625 3.83203h3.24609c-.77734-1.29297-1.4961-3.36328-1.6211-3.83203Zm0 0"/><use xlink:href="#l" x="4.38949" y="141.20066" fill="#EC008C"/><g fill="#EC008C"><use xlink:href="#s" x="13.20818" y="141.20066"/><use xlink:href="#r" x="19.00439" y="141.20066"/><use xlink:href="#t" x="25.01204" y="141.20066"/><use xlink:href="#u" x="32.23864" y="141.20066"/><use xlink:href="#n" x="36.25618" y="141.20066"/><use xlink:href="#p" x="39.65181" y="141.20066"/><use xlink:href="#q" x="45.65946" y="141.20066"/><use xlink:href="#r" x="56.44339" y="141.20066"/></g><path fill="#7FBFBF" stroke="#000" stroke-miterlimit="10" stroke-width=".39802" d="M8.64844 190.28125v-35.39063H58.1953v35.39063Zm0 0"/><path fill="none" stroke="#007F7F" stroke-miterlimit="10" stroke-width=".39802" d="M33.42187 177.16406v21.96484"/><path fill="#007F7F" stroke="#007F7F" stroke-miterlimit="10" stroke-width=".39802" d="M33.42188 173.33203c-.12891.46875-.84375 2.53906-1.625 3.83203h3.24609c-.77734-1.29297-1.4961-3.36328-1.6211-3.83203Zm0 0"/><use xlink:href="#l" x="5.56407" y="212.19152" fill="#007F7F"/><g fill="#007F7F"><use xlink:href="#q" x="14.38276" y="212.19152"/><use xlink:href="#n" x="25.16668" y="212.19152"/><use xlink:href="#v" x="28.56231" y="212.19152"/><use xlink:href="#v" x="31.82112" y="212.19152"/><use xlink:href="#n" x="35.07993" y="212.19152"/><use xlink:href="#p" x="38.47556" y="212.19152"/><use xlink:href="#q" x="44.48322" y="212.19152"/><use xlink:href="#r" x="55.26714" y="212.19152"/></g><path fill="none" stroke="#000" stroke-dasharray="2.9852135157 2.9852135157" stroke-miterlimit="10" stroke-width=".39802" d="M206.83203 48.71875 8.64843 84.10937"/><g clip-path="url(#w)"><path fill="none" stroke="#000" stroke-dasharray="2.9852135157 2.9852135157" stroke-miterlimit="10" stroke-width=".39802" d="m256.3789 48.71875 247.73828 35.39062"/></g><use xlink:href="#x" transform="translate(204 4)"/><path fill="none" stroke="#000" stroke-dasharray="2.9852135157 2.9852135157" stroke-miterlimit="10" stroke-width=".39802" d="M305.92578 119.5 8.64844 154.89062"/><g clip-path="url(#y)"><path fill="none" stroke="#000" stroke-dasharray="2.9852135157 2.9852135157" stroke-miterlimit="10" stroke-width=".39802" d="m355.47265 119.5 148.64453 35.39062"/></g><use xlink:href="#z" transform="translate(303 74)"/></svg>