<svg xmlns="http://www.w3.org/2000/svg" xmlns:xlink="http://www.w3.org/1999/xlink" width="692.754pt" height="97.281pt" viewBox="0 0 692.754 97.281"><defs><path id="b" d="M.5625-.20312.78125 0H9.4375l.70313-2.76562L9.5625-2.875c-.4375 1.14063-.85937 1.29688-1.70312 1.29688H2.51563c.32812-1.09375 1.57812-2.57813 3.51562-3.98438 2-1.46875 3.5625-2.40625 3.5625-4.73437 0-2.92188-1.9375-3.92188-4.14062-3.92188-2.875 0-4.34375 1.73438-4.34375 2.82813 0 .70312.79687 1.04687 1.15625 1.04687.375 0 .51562-.21875.60937-.57812.32813-1.42188 1.15625-2.5625 2.4375-2.5625 1.60938 0 2.07813 1.32812 2.07813 2.875 0 2.25-1.14063 3.51562-2.96875 5.10937C1.84375-3.25.95313-1.82812.5625-.20312m0 0"/><path id="c" d="m1.0625 2.5625.40625.39063c1.04688-.96875 2.5625-2.375 2.5625-4.01563 0-1.125-.60937-1.89062-1.40625-1.89062-.64062 0-1.04687.5-1.04687 1.04687 0 .75.6875 1.15625.6875 2.04688 0 .85937-.53125 1.6875-1.20313 2.42187m0 0"/><path id="d" d="m.40625-4.1875.17188.45313h5.70312v2.125c0 .71875-.23437.82812-.73437.875l-1.34375.14062V0h5.51562v-.59375l-.9375-.125c-.48437-.0625-.60937-.17187-.60937-.89062v-2.125h2.125v-.98438h-2.125v-9.25H6.625C4.67188-11.07812 2.3125-7.45312.40625-4.1875m1.5-.53125c1.25-2.26562 2.76563-4.6875 4.375-7.23437v7.23437Zm0 0"/><path id="e" d="M.5625-2.14062C.5625-1.25 2 .25 4.96875.25c3.01563 0 4.9375-1.54687 4.9375-4.20312 0-2.8125-2.40625-3.64063-3.5625-3.75v-.07813c1.125-.1875 2.9375-1.03125 2.9375-3.09375 0-2.3125-1.8125-3.34375-4.04687-3.34375-2.76563 0-4.125 1.60938-4.125 2.5 0 .64063.73437 1 1.03125 1 .26562 0 .42187-.15625.5-.42187.46875-1.4375 1.25-2.34375 2.4375-2.34375 1.64062 0 2.0625 1.45312 2.0625 2.625 0 1.25-.4375 2.82812-2.21875 2.82812-1 0-1.57813-.20312-1.82813-.20312-.26562 0-.375.20312-.375.57812 0 .35938.10938.57813.375.57813.25 0 .82813-.20313 1.82813-.20313 1.78125 0 2.78125 1.60938 2.78125 3.4375 0 2.48438-1.23438 3.35938-2.71875 3.35938-1.375 0-2.29688-1.03125-2.6875-2.20313-.14063-.40625-.34375-.60937-.625-.60937-.375 0-1.10938.40625-1.10938 1.15625m0 0"/><path id="f" d="M.84375-2.14062C.84375-1.17187 2.3125.25 5.03125.25c3.45313 0 5-2.09375 5-4.75 0-2.9375-1.82812-4.42187-4.3125-4.42187-1.15625 0-2.42187.51562-3.09375 1.10937l.46875-3.95312c.0625-.53125.20313-.60938.59375-.60938h5.21875l.5-1.42187-.10937-.17188H2.3125l-.20312.20313-.42188 6.98437.51563.26563c.875-1 1.71875-1.5 2.84375-1.5 1.34375 0 2.8125.98437 2.8125 3.75 0 2.15625-.875 3.78125-2.70313 3.78125-1.46875 0-2.20312-1.04688-2.625-2.25-.10937-.3125-.3125-.51563-.59375-.51563-.42187 0-1.09375.42188-1.09375 1.10938m0 0"/><path id="g" d="M.875-11.03125h.54688l.20312-.45312c.26563-.57813.5625-.89063 1.48438-.89063h5.65625c-.20313.76563-.59375 1.96875-2.29688 4.39063C4.67188-5.40625 3.5-3.07812 3.5-.59375 3.5.09375 3.98438.25 4.625.25c.57813 0 1-.14062 1-.8125 0-3.20312.5625-5.14062 1.57813-6.90625C8.54688-9.8125 9.65625-11.125 10.39063-13.75l-.17188-.21875H1.51563Zm0 0"/><clipPath id="a"><path d="M672 35h18.08984v26H672Zm0 0"/></clipPath></defs><path fill="none" stroke="#000" stroke-miterlimit="10" stroke-width=".79116" d="M24.92188 48.28125h658.64826"/><path d="M687.70703 48.28125c-.50781-.10547-2.74219-.70312-4.13672-1.35156v2.70703c1.39453-.64844 3.6289-1.25 4.13672-1.35547m0 0"/><g clip-path="url(#a)"><path fill="none" stroke="#000" stroke-miterlimit="10" stroke-width=".79116" d="M687.70703 48.28125c-.50781-.10547-2.74219-.70313-4.13672-1.35156v2.70703c1.39453-.64844 3.6289-1.25 4.13672-1.35547Zm0 0"/></g><path fill="none" stroke="#000" stroke-miterlimit="10" stroke-width=".79116" d="M24.92188 32.45704v31.65233m63.31248-31.65233v31.65233m63.31248-31.65233v31.65233m63.31248-31.65233v31.65233m63.31248-31.65233v31.65233m63.3125-31.65233v31.65233m63.31247-31.65233v31.65233m63.31249-31.65233v31.65233m63.31248-31.65233v31.65233m63.31248-31.65233v31.65233m63.31248-31.65233v31.65233"/><use xlink:href="#b" x="9.83537" y="86.19097"/><use xlink:href="#c" x="20.9166" y="86.19097"/><use xlink:href="#d" x="28.92714" y="86.19097"/><path fill="none" stroke="#000" stroke-miterlimit="10" stroke-width=".79116" d="M214.85932 32.45704v31.65233"/><use xlink:href="#b" x="194.22952" y="86.19097"/><use xlink:href="#c" x="205.31075" y="86.19097"/><use xlink:href="#d" x="213.32129" y="86.19097"/><use xlink:href="#e" x="224.40252" y="86.19097"/><path fill="none" stroke="#000" stroke-miterlimit="10" stroke-width=".79116" d="M278.1718 32.45704v31.65233"/><use xlink:href="#b" x="257.54158" y="86.19097"/><use xlink:href="#c" x="268.62282" y="86.19097"/><use xlink:href="#d" x="276.63335" y="86.19097"/><use xlink:href="#d" x="287.71459" y="86.19097"/><use xlink:href="#b" x="642.95103" y="86.19097"/><use xlink:href="#c" x="654.03227" y="86.19097"/><use xlink:href="#f" x="662.0428" y="86.19097"/><path fill="none" stroke="#007F7F" stroke-miterlimit="10" stroke-width=".79116" d="M259.17963 35.6211v25.3242"/><g fill="#007F7F"><use xlink:href="#b" x="233.00691" y="21.6351"/><use xlink:href="#c" x="244.08815" y="21.6351"/></g><g fill="#007F7F"><use xlink:href="#d" x="252.09868" y="21.6351"/><use xlink:href="#e" x="263.17992" y="21.6351"/><use xlink:href="#g" x="274.26116" y="21.6351"/></g></svg>