<svg xmlns="http://www.w3.org/2000/svg" width="425.595pt" height="18.115pt" viewBox="0 0 425.595 18.115"><defs><clipPath id="a"><path d="M9.71875 0h405.76953v17.26953H9.71875Zm0 0"/></clipPath><clipPath id="b"><path d="M9.71875 0H91v17.26953H9.71875Zm0 0"/></clipPath><clipPath id="c"><path d="M9.71875 0H92v17.26953H9.71875Zm0 0"/></clipPath><clipPath id="d"><path d="M90 0h83v17.26953H90Zm0 0"/></clipPath><clipPath id="e"><path d="M172 0h82v17.26953h-82Zm0 0"/></clipPath><clipPath id="f"><path d="M171 0h83v17.26953h-83Zm0 0"/></clipPath><clipPath id="g"><path d="M9.71875 0H11v17.26953H9.71875Zm0 0"/></clipPath><clipPath id="h"><path d="M90 0h2v17.26953h-2Zm0 0"/></clipPath><clipPath id="i"><path d="M171 0h2v17.26953h-2Zm0 0"/></clipPath><clipPath id="j"><path d="M252 0h2v17.26953h-2Zm0 0"/></clipPath><clipPath id="k"><path d="M334 0h1v17.26953h-1Zm0 0"/></clipPath></defs><g clip-path="url(#a)"><path fill="#FFF" stroke="#000" stroke-miterlimit="10" stroke-width=".37994" d="M9.91016 17.08203V.19141h405.3945v16.89062Zm0 0"/></g><g clip-path="url(#b)"><path fill="#7FD6F7" d="M9.91016 17.08203V.19141h81.07812v16.89062Zm0 0"/></g><g clip-path="url(#c)"><path fill="none" stroke="#000" stroke-miterlimit="10" stroke-width=".37994" d="M9.91016 17.08203V.19141h81.07812v16.89062Zm0 0"/></g><g clip-path="url(#d)"><path fill="#7FD6F7" stroke="#000" stroke-miterlimit="10" stroke-width=".37994" d="M90.98828 17.08203V.19141h81.07812v16.89062Zm0 0"/></g><g clip-path="url(#e)"><path fill="#7FD6F7" d="M172.0664 17.08203V.19141h81.07813v16.89062Zm0 0"/></g><g clip-path="url(#f)"><path fill="none" stroke="#000" stroke-miterlimit="10" stroke-width=".37994" d="M172.0664 17.08203V.19141h81.07812v16.89062Zm0 0"/></g><g clip-path="url(#g)"><path fill="none" stroke="#000" stroke-miterlimit="10" stroke-width=".37994" d="M9.91016 17.08203V.19141"/></g><g clip-path="url(#h)"><path fill="none" stroke="#000" stroke-miterlimit="10" stroke-width=".37994" d="M90.98828 17.08203V.19141"/></g><g clip-path="url(#i)"><path fill="none" stroke="#000" stroke-miterlimit="10" stroke-width=".37994" d="M172.0664 17.08203V.19141"/></g><g clip-path="url(#j)"><path fill="none" stroke="#000" stroke-miterlimit="10" stroke-width=".37994" d="M253.14452 17.08203V.19141"/></g><g clip-path="url(#k)"><path fill="none" stroke="#000" stroke-miterlimit="10" stroke-width=".37994" d="M334.22655 17.08203V.19141"/></g></svg>