<svg xmlns="http://www.w3.org/2000/svg" width="170.477pt" height="170.477pt" viewBox="0 0 170.477 170.477"><defs><clipPath id="a"><path d="M0 0h169.95703v169.95703H0Zm0 0"/></clipPath><clipPath id="b"><path d="M.19922.19531h169.5586v84.78125H.19921Zm0 0"/></clipPath><clipPath id="c"><path d="M0 84h169.95703v2H0Zm0 0"/></clipPath></defs><g clip-path="url(#a)"><path fill="#FFF" stroke="#000" stroke-miterlimit="10" stroke-width=".39728" d="M169.75785 84.97656c0-46.82424-37.95705-84.78129-84.78129-84.78129C38.15623.19527.19918 38.15232.19918 84.97657c0 46.82423 37.95705 84.78128 84.77738 84.78128 46.82424 0 84.7813-37.95705 84.7813-84.78129Zm0 0"/></g><g clip-path="url(#b)"><path fill="#7FD6F7" stroke="#000" stroke-miterlimit="10" stroke-width=".39728" d="M169.75785 84.97656c0-46.82424-37.95705-84.78129-84.78129-84.78129C38.15623.19527.19918 38.15232.19918 84.97657c0 46.82423 37.95705 84.78128 84.77738 84.78128 46.82424 0 84.7813-37.95705 84.7813-84.78129Zm0 0"/></g><g clip-path="url(#c)"><path fill="none" stroke="#000" stroke-miterlimit="10" stroke-width=".39728" d="M.19918 84.97656h169.55867"/></g></svg>