<svg xmlns="http://www.w3.org/2000/svg" xmlns:xlink="http://www.w3.org/1999/xlink" width="560.386pt" height="45.284pt" viewBox="0 0 560.386 45.284"><defs><path id="a" d="M.29688-.10937.40625 0H4.875l.35938-1.42187-.29688-.0625c-.21875.59375-.4375.67187-.875.67187h-2.75c.17188-.5625.8125-1.32812 1.8125-2.04687 1.03125-.76563 1.82813-1.25 1.82813-2.45313 0-1.5-1-2.01562-2.125-2.01562-1.48438 0-2.25.89062-2.25 1.45312 0 .375.42187.54688.60937.54688s.25-.125.29688-.29688c.17187-.73437.60937-1.32812 1.26562-1.32812.82813 0 1.0625.6875 1.0625 1.48437 0 1.15625-.57812 1.8125-1.51562 2.64063C.96875-1.67187.5-.9375.29688-.10937m0 0"/><path id="b" d="M.29688-1.09375c0 .45313.75 1.21875 2.26562 1.21875 1.5625 0 2.54688-.79687 2.54688-2.17187 0-1.4375-1.23438-1.85938-1.82813-1.92188v-.04687c.57813-.09375 1.51563-.53125 1.51563-1.59375 0-1.1875-.9375-1.71875-2.09375-1.71875-1.42188 0-2.125.82812-2.125 1.28125 0 .32812.39062.51562.53125.51562s.21874-.07812.26562-.21875c.23438-.73437.64063-1.20312 1.25-1.20312.84375 0 1.0625.75 1.0625 1.35937 0 .64063-.21875 1.45313-1.14062 1.45313-.51563 0-.8125-.10938-.9375-.10938-.14063 0-.20313.10938-.20313.3125 0 .17188.0625.29688.20313.29688.125 0 .42187-.10938.9375-.10938.92187 0 1.4375.82813 1.4375 1.76563C3.98438-.70312 3.34375-.25 2.57813-.25 1.875-.25 1.40625-.78125 1.1875-1.39062c-.0625-.20313-.17187-.3125-.3125-.3125-.20312 0-.57812.21874-.57812.60937m0 0"/><path id="h" d="M.32813-.10937.45313 0h4.96875l.40625-1.57812L5.5-1.64062C5.23438-1 5-.90625 4.51563-.90625h-3.0625c.1875-.625.90625-1.48437 2.01562-2.28125 1.14063-.84375 2.04688-1.375 2.04688-2.71875 0-1.67187-1.10938-2.23437-2.375-2.23437-1.65625 0-2.48438.98437-2.48438 1.60937 0 .40625.45313.60938.65625.60938.21875 0 .29688-.14063.34375-.34375.1875-.8125.67188-1.45313 1.40625-1.45313.92188 0 1.1875.75 1.1875 1.64063 0 1.28125-.65625 2.01562-1.70312 2.92187C1.07813-1.85937.5625-1.04687.32813-.10937m0 0"/><path id="i" d="m.60938 1.46875.23437.23438c.59375-.5625 1.46875-1.375 1.46875-2.3125 0-.64063-.34375-1.09375-.8125-1.09375-.35937 0-.59375.29687-.59375.60937 0 .4375.39063.65625.39063 1.17188 0 .5-.29688.96875-.6875 1.39062m0 0"/><path id="j" d="m.25-2.39062.09375.25h3.26563v1.21875c0 .40625-.125.46875-.42188.5l-.76562.07812V0h3.15625v-.34375l-.53125-.0625c-.28125-.04687-.35938-.10937-.35938-.51562v-1.21875h1.23438v-.5625H4.6875V-8h-.875C2.6875-6.34375 1.34375-4.26562.25-2.39062m.85938-.3125C1.82813-4 2.6875-5.39062 3.60938-6.84375v4.14063Zm0 0"/><path id="k" d="M1.29688 0h3.9375v-.34375l-1-.09375c-.25-.01562-.39063-.10937-.39063-.57812v-7.0625l-.0625-.0625-2.48437.42187v.28125l1.125.14063c.20312.03125.28125.125.28125.46875v5.8125c0 .46875-.10938.5625-.39063.57812l-1.01562.09375Zm0 0"/><path id="l" d="M.5-6.32812h.3125l.125-.25c.14063-.32813.3125-.51563.84375-.51563h3.25c-.125.4375-.35937 1.125-1.32812 2.51563C2.67188-3.09375 2-1.76562 2-.34375c0 .39063.28125.48438.65625.48438.32813 0 .5625-.07813.5625-.45313 0-1.84375.32813-2.95312.90625-3.96875C4.89063-5.625 5.53125-6.375 5.95313-7.875L5.85938-8h-5Zm0 0"/><clipPath id="c"><path d="M410 .58984h1v18.13672h-1Zm0 0"/></clipPath><clipPath id="d"><path d="M446 .58984h1v18.13672h-1Zm0 0"/></clipPath><clipPath id="e"><path d="M482 .58984h1v18.13672h-1Zm0 0"/></clipPath><clipPath id="f"><path d="M518 .58984h2v18.13672h-2Zm0 0"/></clipPath><clipPath id="g"><path d="M538 0h17.72266v23H538Zm0 0"/></clipPath></defs><path fill="none" stroke="#000" stroke-miterlimit="10" stroke-width=".3923" d="M11.18766.58984v18.13672"/><use xlink:href="#a" x="8.30885" y="30.56375"/><path fill="none" stroke="#7f7f7f" stroke-miterlimit="10" stroke-width=".3923" d="M47.46501.58984v18.13672M83.74236.58984v18.13672M120.01972.58984v18.13672M156.29707.58984v18.13672M192.57442.58984v18.13672M228.85177.58984v18.13672M265.12912.58984v18.13672M301.40647.58984v18.13672M337.68383.58984v18.13672"/><path fill="none" stroke="#000" stroke-miterlimit="10" stroke-width=".3923" d="M373.96118.58984v18.13672"/><use xlink:href="#b" x="371.077" y="30.56375"/><g clip-path="url(#c)"><path fill="none" stroke="#7f7f7f" stroke-miterlimit="10" stroke-width=".3923" d="M410.23853.58984v18.13672"/></g><g clip-path="url(#d)"><path fill="none" stroke="#7f7f7f" stroke-miterlimit="10" stroke-width=".3923" d="M446.51588.58984v18.13672"/></g><g clip-path="url(#e)"><path fill="none" stroke="#7f7f7f" stroke-miterlimit="10" stroke-width=".3923" d="M482.79323.58984v18.13672"/></g><g clip-path="url(#f)"><path fill="none" stroke="#7f7f7f" stroke-miterlimit="10" stroke-width=".3923" d="M519.07058.58984v18.13672"/></g><path fill="none" stroke="#000" stroke-miterlimit="10" stroke-width=".7846" d="M11.18766 9.65625H549.2659"/><path d="M553.36328 9.65625c-.5-.10547-2.71484-.69531-4.09766-1.34375V11c1.38282-.64453 3.59766-1.23828 4.09766-1.34375m0 0"/><g clip-path="url(#g)"><path fill="none" stroke="#000" stroke-miterlimit="10" stroke-width=".7846" d="M553.36328 9.65625c-.5-.10547-2.71484-.69531-4.09765-1.34375V11c1.3828-.64453 3.59765-1.23828 4.09765-1.34375Zm0 0"/></g><path fill="none" stroke="#000" stroke-miterlimit="10" stroke-opacity=".5" stroke-width=".3923" d="M14.81266 6.03125v7.2539m3.62891-7.2539v7.2539m3.6289-7.2539v7.2539m3.62501-7.2539v7.2539m3.6289-7.2539v7.2539m3.62891-7.2539v7.2539m3.62891-7.2539v7.2539m3.625-7.2539v7.2539m3.6289-7.2539v7.2539m7.25391-7.2539v7.2539m3.62891-7.2539v7.2539m3.62891-7.2539v7.2539m3.625-7.2539v7.2539m3.6289-7.2539v7.2539m3.62891-7.2539v7.2539m3.62891-7.2539v7.2539m3.625-7.2539v7.2539m3.62891-7.2539v7.2539m7.2539-7.2539v7.2539m3.62891-7.2539v7.2539m3.62891-7.2539v7.2539m3.625-7.2539v7.2539m3.62891-7.2539v7.2539m3.62891-7.2539v7.2539m3.6289-7.2539v7.2539m3.625-7.2539v7.2539m3.6289-7.2539v7.2539m7.25392-7.2539v7.2539m3.6289-7.2539v7.2539m3.62891-7.2539v7.2539m3.625-7.2539v7.2539m3.62891-7.2539v7.2539m3.62891-7.2539v7.2539m3.6289-7.2539v7.2539m3.625-7.2539v7.2539m3.62891-7.2539v7.2539m7.25391-7.2539v7.2539m3.6289-7.2539v7.2539m3.62891-7.2539v7.2539m3.625-7.2539v7.2539m3.62891-7.2539v7.2539m3.62891-7.2539v7.2539m3.6289-7.2539v7.2539m3.625-7.2539v7.2539m3.62891-7.2539v7.2539m7.25391-7.2539v7.2539m3.62891-7.2539v7.2539m3.6289-7.2539v7.2539m3.625-7.2539v7.2539m3.62891-7.2539v7.2539m3.62891-7.2539v7.2539m3.62891-7.2539v7.2539m3.625-7.2539v7.2539m3.6289-7.2539v7.2539m7.25391-7.2539v7.2539m3.62891-7.2539v7.2539m3.62891-7.2539v7.2539m3.625-7.2539v7.2539m3.62891-7.2539v7.2539m3.6289-7.2539v7.2539m3.6289-7.2539v7.2539m3.625-7.2539v7.2539m3.62892-7.2539v7.2539m7.2539-7.2539v7.2539m3.62891-7.2539v7.2539m3.62891-7.2539v7.2539m3.625-7.2539v7.2539m3.6289-7.2539v7.2539m3.62891-7.2539v7.2539m3.62891-7.2539v7.2539m3.625-7.2539v7.2539m3.62891-7.2539v7.2539m7.25391-7.2539v7.2539m3.6289-7.2539v7.2539m3.62891-7.2539v7.2539m3.625-7.2539v7.2539m3.62891-7.2539v7.2539m3.6289-7.2539v7.2539m3.62891-7.2539v7.2539m3.625-7.2539v7.2539m3.62891-7.2539v7.2539m7.25391-7.2539v7.2539m3.6289-7.2539v7.2539m3.62891-7.2539v7.2539m3.625-7.2539v7.2539m3.62891-7.2539v7.2539m3.62891-7.2539v7.2539m3.6289-7.2539v7.2539m3.625-7.2539v7.2539m3.62891-7.2539v7.2539m7.25391-7.2539v7.2539m3.62891-7.2539v7.2539m3.62891-7.2539v7.2539m3.625-7.2539v7.2539m3.6289-7.2539v7.2539m3.6289-7.2539v7.2539m3.62891-7.2539v7.2539m3.62501-7.2539v7.2539m3.6289-7.2539v7.2539m7.25391-7.2539v7.2539m3.62891-7.2539v7.2539m3.6289-7.2539v7.2539m3.62501-7.2539v7.2539m3.6289-7.2539v7.2539m3.62891-7.2539v7.2539m3.62891-7.2539v7.2539m3.625-7.2539v7.2539m3.6289-7.2539v7.2539m7.25391-7.2539v7.2539m3.62891-7.2539v7.2539m3.62891-7.2539v7.2539m3.625-7.2539v7.2539m3.6289-7.2539v7.2539m3.62891-7.2539v7.2539m3.62891-7.2539v7.2539m3.625-7.2539v7.2539m3.62891-7.2539v7.2539m7.2539-7.2539v7.2539m3.62891-7.2539v7.2539m3.62891-7.2539v7.2539m3.625-7.2539v7.2539m3.62891-7.2539v7.2539m3.6289-7.2539v7.2539m3.62891-7.2539v7.2539m3.625-7.2539v7.2539m3.62891-7.2539v7.2539m7.25391-7.2539v7.2539m3.62891-7.2539v7.2539m3.6289-7.2539v7.2539m3.625-7.2539v7.2539m3.6289-7.2539v7.2539m3.62891-7.2539v7.2539m3.62891-7.2539v7.2539"/><path fill="none" stroke="#007f7f" stroke-miterlimit="10" stroke-width="1.17692" d="M159.92207 2.40234v14.51172"/><g fill="#007f7f"><use xlink:href="#h" x="148.05429" y="38.63414"/><use xlink:href="#i" x="154.42921" y="38.63414"/></g><g fill="#007f7f"><use xlink:href="#j" x="159.01915" y="38.63414"/><use xlink:href="#k" x="165.39407" y="38.63414"/></g><path fill="none" stroke="#007f7f" stroke-miterlimit="10" stroke-width="1.17692" d="M265.12912.58984v18.13672"/><g fill="#007f7f"><use xlink:href="#h" x="256.4445" y="38.63414"/><use xlink:href="#i" x="262.81941" y="38.63414"/></g><use xlink:href="#l" x="267.40936" y="38.63414" fill="#007f7f"/></svg>