<svg xmlns="http://www.w3.org/2000/svg" width="1148.431pt" height="32.288pt" viewBox="0 0 1148.431 32.288"><defs><clipPath id="a"><path d="M12.10938 0h1123.65234v31.58984H12.10938Zm0 0"/></clipPath><clipPath id="b"><path d="M12.10938 0H237v31.58984H12.10938Zm0 0"/></clipPath><clipPath id="c"><path d="M12.10938 0H238v31.58984H12.10938Zm0 0"/></clipPath><clipPath id="d"><path d="M12.10938 0H13v31.58984h-.89062Zm0 0"/></clipPath><clipPath id="e"><path d="M236 0h2v31.58984h-2Zm0 0"/></clipPath><clipPath id="f"><path d="M461 0h1v31.58984h-1Zm0 0"/></clipPath><clipPath id="g"><path d="M686 0h1v31.58984h-1Zm0 0"/></clipPath><clipPath id="h"><path d="M910 0h2v31.58984h-2Zm0 0"/></clipPath><clipPath id="i"><path d="M1135 0h.76172v31.58984H1135Zm0 0"/></clipPath></defs><g clip-path="url(#a)"><path fill="#FFF" stroke="#000" stroke-miterlimit="10" stroke-width=".3899" d="M12.30469 31.39844V.19532h1123.27706v31.20312Zm0 0"/></g><g clip-path="url(#b)"><path fill="#7FBFBF" d="M12.30469 31.39844V.1953h224.65625v31.20313Zm0 0"/></g><g clip-path="url(#c)"><path fill="none" stroke="#000" stroke-miterlimit="10" stroke-width=".3899" d="M12.30469 31.39844V.19532h224.6562v31.20312Zm0 0"/></g><g clip-path="url(#d)"><path fill="none" stroke="#000" stroke-miterlimit="10" stroke-width=".3899" d="M12.30469 31.39844V.19532"/></g><g clip-path="url(#e)"><path fill="none" stroke="#000" stroke-miterlimit="10" stroke-width=".3899" d="M236.96088 31.39844V.19532"/></g><g clip-path="url(#f)"><path fill="none" stroke="#000" stroke-miterlimit="10" stroke-width=".3899" d="M461.61708 31.39844V.19532"/></g><g clip-path="url(#g)"><path fill="none" stroke="#000" stroke-miterlimit="10" stroke-width=".3899" d="M686.27327 31.39844V.19532"/></g><g clip-path="url(#h)"><path fill="none" stroke="#000" stroke-miterlimit="10" stroke-width=".3899" d="M910.92556 31.39844V.19532"/></g><g clip-path="url(#i)"><path fill="none" stroke="#000" stroke-miterlimit="10" stroke-width=".3899" d="M1135.58175 31.39844V.19532"/></g></svg>