<svg xmlns="http://www.w3.org/2000/svg" width="765.752" height="32.288" viewBox="0 0 765.752 32.288"><defs><clipPath id="a"><path d="M8.14063 0h749.23046v31.58984H8.14063Zm0 0"/></clipPath><clipPath id="b"><path d="M8.14063 0H159v31.58984H8.14063Zm0 0"/></clipPath><clipPath id="c"><path d="M158 0h150v31.58984H158Zm0 0"/></clipPath><clipPath id="d"><path d="M157 0h152v31.58984H157Zm0 0"/></clipPath><clipPath id="e"><path d="M307 0h151v31.58984H307Zm0 0"/></clipPath><clipPath id="f"><path d="M8.14063 0H9v31.58984h-.85937Zm0 0"/></clipPath><clipPath id="g"><path d="M157 0h2v31.58984h-2Zm0 0"/></clipPath><clipPath id="h"><path d="M307 0h2v31.58984h-2Zm0 0"/></clipPath><clipPath id="i"><path d="M457 0h1v31.58984h-1Zm0 0"/></clipPath><clipPath id="j"><path d="M607 0h1v31.58984h-1Zm0 0"/></clipPath></defs><g clip-path="url(#a)"><path fill="#FFF" stroke="#000" stroke-miterlimit="10" stroke-width=".3899" d="M8.33594 31.39844V.19532H757.1834v31.20312Zm0 0"/></g><g clip-path="url(#b)"><path fill="#7FD6F7" stroke="#000" stroke-miterlimit="10" stroke-width=".3899" d="M8.33594 31.39844V.19532h149.7695v31.20312Zm0 0"/></g><g clip-path="url(#c)"><path fill="#7FD6F7" d="M158.10547 31.39844V.1953H307.875v31.20313Zm0 0"/></g><g clip-path="url(#d)"><path fill="none" stroke="#000" stroke-miterlimit="10" stroke-width=".3899" d="M158.10543 31.39844V.19532h149.7695v31.20312Zm0 0"/></g><g clip-path="url(#e)"><path fill="#7FD6F7" stroke="#000" stroke-miterlimit="10" stroke-width=".3899" d="M307.87493 31.39844V.19532h149.76949v31.20312Zm0 0"/></g><g clip-path="url(#f)"><path fill="none" stroke="#000" stroke-miterlimit="10" stroke-width=".3899" d="M8.33594 31.39844V.19532"/></g><g clip-path="url(#g)"><path fill="none" stroke="#000" stroke-miterlimit="10" stroke-width=".3899" d="M158.10543 31.39844V.19532"/></g><g clip-path="url(#h)"><path fill="none" stroke="#000" stroke-miterlimit="10" stroke-width=".3899" d="M307.87493 31.39844V.19532"/></g><g clip-path="url(#i)"><path fill="none" stroke="#000" stroke-miterlimit="10" stroke-width=".3899" d="M457.64442 31.39844V.19532"/></g><g clip-path="url(#j)"><path fill="none" stroke="#000" stroke-miterlimit="10" stroke-width=".3899" d="M607.41391 31.39844V.19532"/></g></svg>