<svg xmlns="http://www.w3.org/2000/svg" xmlns:xlink="http://www.w3.org/1999/xlink" width="643.271pt" height="63.741pt" viewBox="0 0 643.271 63.741"><defs><path id="a" d="M1.3125-2c0 1.10938.51563 2.21875 1.78125 2.21875 2 0 3.73438-2.29687 4.82813-4.20312h.03125l-.625 2.125c-.125.40625-.20313.76562-.20313 1.0625 0 .65625.3125 1.01562 1.01563 1.01562 1.40625 0 2.45312-1.26562 3.09375-2.67187l-.4375-.26563C10.45313-2.0625 9.625-.75 9.10938-.75c-.21875 0-.29688-.14062-.29688-.35937 0-.1875.0625-.40625.125-.65625l1.95313-7.4375h-1.5625L9.25-8.96875c-.3125-.21875-.875-.39062-1.375-.39062-4.4375 0-6.5625 4.89062-6.5625 7.35937m1.84375-.04687c0-2.04688 1.82813-6.67188 4.76563-6.67188.45312 0 .84375.17188 1.125.42188C8.71875-6.90625 8.0625-5.0625 7.0625-3.57812 6.01563-1.98437 4.85938-.75 3.96875-.75c-.60937 0-.8125-.5625-.8125-1.29687m0 0"/><path id="b" d="M1.625 0h.67188L2.875-1.09375C3.21875-.3125 4.14063.21875 5.21875.21875c2.1875 0 3.76563-1.45312 4.6875-3.09375C10.82813-4.53125 11.125-6.17187 11.125-7c0-1.39062-.59375-2.35937-1.98437-2.35937-1.40625 0-3.26563 1.28125-4.70313 3.84375h-.03125L6.46875-13.75l-.07812-.07812-3.32813.4375-.125.4375 1.04688.10937c.32812.04688.45312.10938.45312.375 0 .14063-.01562.29688-.07812.54688Zm2.29688-2.03125c0-.89062.40625-2.17187 1-3.26562C5.75-6.78125 7.15625-8.39062 8.3125-8.39062c.70313 0 1 .46875 1 1.54687C9.3125-5.5 8.20313-.4375 5.45313-.4375c-.95313 0-1.53125-.65625-1.53125-1.59375m0 0"/><path id="c" d="M.60938 0h4.53125v-.71875L4.0625-.79687c-.51562-.03126-.70312-.32813-.76562-.98438-.07813-.67187-.07813-1.39062-.07813-2.92187v-5.73438h.0625C5.57813-6.98437 7.8125-3.45312 10.04688 0h2.0625v-8.21875c0-1.53125 0-2.23437.07812-2.89062.0625-.65625.23438-.9375.67188-1l.65625-.09375v-.70313h-4.5v.70313l1.04687.09375c.51563.04687.73438.34375.79688 1 .07812.67187.07812 1.35937.07812 2.89062v4.1875h-.07812c-1.98438-2.95312-3.95313-5.90625-5.875-8.875H.59375v.70313c1.32813.0625 1.45313.15625 1.45313 1.10937v6.39063c0 1.53125-.01563 2.26562-.10938 2.92187-.04687.65625-.23437.92188-.67187.98438l-.65625.07812Zm0 0"/><path id="d" d="m.5625-8.15625.64063.09375c.3125.04688.42187.1875.42187.9375v4.54688c0 2.1875 1.35938 2.79687 2.70313 2.79687 1.57812 0 2.5625-.85937 3.3125-1.26562L7.79688 0h3.875v-.71875c-1.07813-.0625-1.1875-.14062-1.1875-.90625V-9.25l-.17188-.10937-3.76562.53125v.67187l.65625.09375c.29687.04688.4375.1875.4375.9375v3.95313c0 .3125-.01563.76562-.14063 1.04687-.17187.4375-.67187.875-1.48437.875-1 0-1.57813-.57812-1.57813-2.03125V-9.25l-.125-.10937-3.75.53125Zm0 0"/><path id="e" d="M.59375 0h5v-.71875L5.23438-.75c-.39063-.04687-.625-.10937-.625-.71875v-4.3125c0-1.625.92187-2.15625 1.73437-2.15625.92188 0 1.35938.78125 1.35938 1.8125v4.65625c0 .60938-.21875.67188-.625.71875l-.375.03125V0h4.8125v-.71875L11.125-.75c-.39062-.04687-.59375-.10937-.59375-.71875v-4.3125c0-1.625.84375-2.15625 1.65625-2.15625.90625 0 1.40625.78125 1.40625 1.8125v4.65625c0 .60938-.20312.67188-.59375.71875l-.40625.03125V0H17.625v-.71875c-1.07812-.0625-1.1875-.14062-1.1875-.90625v-4.84375c0-1.73437-.95312-2.89062-2.9375-2.89062-1.29687 0-2.46875.89062-3.26562 1.40625-.375-.67188-1.125-1.40625-2.51563-1.40625-1.20312 0-2.07812.625-3.10937 1.28125l-.25-1.28125-3.67188.53125v.67187l.65625.09375c.29688.04688.46875.1875.46875.9375v5.5c0 .76563-.14062.84375-1.21875.90625Zm0 0"/><path id="f" d="m3.625-10.09375.39063.5625 3.40625-1.92187c.67187-.375 1.26562-.75 1.26562-1.23438 0-.46875-.51562-1.125-.96875-1.125-.375 0-.6875.21875-1.39062.9375ZM.73438-4.5625c0 2.53125 1.10937 4.78125 4.5625 4.78125 2.21875 0 3.4375-1.07812 4.0625-2.71875l-.67188-.375c-.54687 1.0625-1.34375 1.67188-2.46875 1.67188-1.875 0-2.53125-1.53125-2.53125-3.5h4.84375c.67188 0 1-.17188 1-.78125 0-1.51563-.59375-3.875-4.1875-3.875-3.35937 0-4.60937 2.17187-4.60937 4.79687M3.6875-5.59375c0-1.35937.35938-2.92187 1.57813-2.92187 1.125 0 1.32812 1.4375 1.32812 2.29687 0 .53125-.14062.625-.57812.625Zm0 0"/><path id="g" d="M.59375 0h5.64063v-.71875c-1.4375-.07812-1.625-.14062-1.625-.90625v-4.15625c0-.96875.17187-1.42187.625-1.42187.29687 0 .57812.15625 1 .39062.23437.1875.5.29688.84375.29688.39062 0 .76562-.1875.95312-.46875.20313-.28125.29688-.65625.29688-1.07813 0-.78125-.51563-1.29687-1.28125-1.29687-.78125 0-1.375.51562-2.46875 1.64062l-.25-1.64062-3.64063.53125v.67187l.65625.09375c.29688.04688.46875.1875.46875.9375v5.5c0 .76563-.14062.84375-1.21875.90625Zm0 0"/><path id="h" d="M.89063-2.5c0 1.39063.89062 2.71875 2.78125 2.71875 1.1875 0 2.01562-.64062 2.67187-1.07812.25.57812.57813 1.07812 1.46875 1.07812.98438 0 2.125-.3125 2.75-.5625l-.03125-.60937c-.23437.01562-.65625 0-.92187-.09376-.25-.07812-.59375-.29687-.59375-1.39062V-6.75c0-1.17187-.17188-2.60937-3.45313-2.60937-2.75 0-4.45312 1.07812-4.45312 2.29687 0 .8125 1.1875 1.17188 1.67187 1.17188.40625 0 .60938-.29688.79688-.75.51562-1.59375 1.125-1.875 1.64062-1.875.53125 0 1.04688.3125 1.04688 1.39062v1c-.65625.45313-2.20313.89063-3.40625 1.29688C1.39063-4.3125.89063-3.57812.89063-2.5m2.84375-.29687c0-.875.3125-1.3125.875-1.625C5.17188-4.75 5.8125-5 6.26563-5.20312V-2.5c-.03125 1.01563-.60938 1.26563-1.125 1.26563-.73438 0-1.40625-.57813-1.40625-1.5625m0 0"/><path id="i" d="M.6875-8.21875h1.09375v6.03125c0 1.71875 1.25 2.40625 2.3125 2.40625.76563 0 1.92188-.34375 2.96875-1L6.85938-1.375c-.25.125-.625.20313-1.04688.20313-.71875 0-1.20312-.53125-1.20312-1.71875v-5.32813h1.9375v-.92187h-1.9375v-2.34375H3.53125L1.89063-9.14062H.6875Zm0 0"/><path id="j" d="M.73438-4.5625c0 2.53125 1.10937 4.78125 4.5625 4.78125 2.21875 0 3.4375-1.07812 4.0625-2.71875l-.67188-.375c-.54687 1.0625-1.34375 1.67188-2.46875 1.67188-1.875 0-2.53125-1.53125-2.53125-3.5h4.84375c.67188 0 1-.17188 1-.78125 0-1.51563-.59375-3.875-4.1875-3.875-3.35937 0-4.60937 2.17187-4.60937 4.79687M3.6875-5.59375c0-1.35937.35938-2.92187 1.57813-2.92187 1.125 0 1.32812 1.4375 1.32812 2.29687 0 .53125-.14062.625-.57812.625Zm0 0"/><path id="B" d="M.71875 0h5.57813c2.90625 0 7.53125-.39062 7.53125-6.59375 0-2.07812-.54688-3.64062-1.64063-4.71875-1.09375-1.0625-2.64062-1.5625-5.0625-1.59375H.71875v.70313c1.32813.0625 1.48438.15625 1.48438 1.10937v9.28125c0 .95313-.15625 1.03125-1.48438 1.09375Zm4.48438-1.6875v-9.84375c0-.4375.35937-.51562 1.53125-.51562 2.5 0 3.79687 1.85937 3.79687 5.45312 0 4.92188-2.0625 5.73438-3.85937 5.73438-1.17188 0-1.46875-.23438-1.46875-.82813m0 0"/><path id="C" d="M.59375 0h5v-.71875L5.23438-.75c-.39063-.04687-.625-.10937-.625-.71875v-4.4375c0-.42187.07812-.84375.21875-1.09375.23437-.48437.73437-.9375 1.5-.9375.95312 0 1.45312.59375 1.48437 1.70313v4.76562c0 .60938-.1875.67188-.59375.71875l-.39062.03125V0h5.01562v-.71875c-1.0625-.0625-1.23437-.14062-1.23437-.90625v-4.85937c-.01563-1.75-.85938-2.875-2.79688-2.875-1.07812 0-1.98437.54687-3.20312 1.28125l-.25-1.28125-3.67188.53125v.67187l.65625.09375c.29688.04688.46875.1875.46875.9375v5.5c0 .76563-.14062.84375-1.21875.90625Zm0 0"/><path id="D" d="M.73438-4.5625c0 2.96875 1.42187 4.78125 4.82812 4.78125 3.39063 0 4.82813-1.8125 4.82813-4.78125 0-2.98437-1.4375-4.79687-4.82813-4.79687-3.40625 0-4.82812 1.8125-4.82812 4.79687m2.95312 0c0-2.5.54688-3.95312 1.875-3.95312 1.32813 0 1.85938 1.45312 1.85938 3.95312S6.89063-.64062 5.5625-.64062c-1.32812 0-1.875-1.42188-1.875-3.92188m0 0"/><path id="E" d="M1.40625-11.8125c0 .89063.64063 1.65625 1.6875 1.65625 1.03125 0 1.75-.76562 1.75-1.65625 0-.875-.67187-1.625-1.75-1.625-1.04687 0-1.6875.75-1.6875 1.625M.59375 0h5.26563v-.71875c-1.07813-.0625-1.25-.14062-1.25-.90625V-9.25L4.5-9.35937l-3.8125.53125v.67187l.65625.09375c.29688.04688.46875.1875.46875.9375v5.5c0 .76563-.14062.84375-1.21875.90625Zm0 0"/><path id="k" d="M1.125-5.53125c0 4.20313 1.03125 9.10938 4.98438 9.26563v-.5625C4.78125 2.92188 2.70313 1 2.70313-5.53125c0-6.5 1.98437-8.42187 3.40625-8.71875v-.54687C2.15625-14.64062 1.125-9.75 1.125-5.53125m0 0"/><path id="l" d="M1.70313-12.20312c0 .67187.48437 1.15625 1.15625 1.15625.67187 0 1.125-.48438 1.125-1.15625 0-.67188-.45313-1.125-1.125-1.125-.67188 0-1.15625.45312-1.15625 1.125M.59375 0h4.54688v-.53125C3.8125-.64062 3.75-.67187 3.75-1.625V-9.25l-.14062-.10937-2.92188.46875v.45312l.70313.10938C1.85938-8.25 2-8.17187 2-7.5v5.875C2-.67187 1.9375-.64062.59375-.53125Zm0 0"/><path id="m" d="M.59375 0h4.54688v-.53125C3.8125-.64062 3.75-.67187 3.75-1.625V-6c0-.46875.01563-.70312.17188-1 .40625-.73437 1.23437-1.35937 2.23437-1.35937 1.26563 0 1.95313.70312 1.95313 2.32812V-1.625c0 .95313-.04688.98438-1.40625 1.09375V0h4.5625v-.53125C9.9375-.64062 9.85938-.67187 9.85938-1.625v-4.76562c0-1.89063-1.03125-2.96875-2.73438-2.96875-1.39062 0-2.25.67187-3.39062 1.42187l-.26563-1.42187-2.78125.46875v.45312l.70313.10938C1.85938-8.25 2-8.17187 2-7.5v5.875C2-.67187 1.9375-.64062.59375-.53125Zm0 0"/><path id="n" d="M.90625-4.39062C.90625-1.625 2.35938.21875 4.82813.21875c1 0 1.85937-.45312 2.875-1.26562v.90625L7.85938 0H10.875v-.53125C9.54688-.64062 9.48438-.67187 9.48438-1.625v-12.10937l-.14063-.09375-2.9375.45312v.46875l.71875.0625c.46875.0625.59375.15625.59375.875v3.0625c-.51562-.28125-1.20312-.45312-2.0625-.45312-1.53125 0-2.67187.48437-3.45312 1.28125C1.40625-7.25.90625-6.01562.90625-4.39062m1.95313-.21875c0-2.42188.875-4.10938 2.78125-4.10938.875 0 1.57812.40625 1.92187 1.17188.15625.32812.15625.59375.15625 1.09375v3.28125c0 .40625 0 .73437-.125 1.04687-.375.96875-1.1875 1.34375-2.15625 1.34375-1.70312 0-2.57812-1.67187-2.57812-3.82812m0 0"/><path id="o" d="M.90625-4.34375c0 2.96875 1.64063 4.5625 3.89063 4.5625 1.0625 0 1.95312-.5 2.92187-1.21875v3.65625c0 .95313-.09375 1-1.48437 1.09375v.53125H10.875V3.75c-1.29687-.09375-1.39062-.14062-1.39062-1.09375V-9.35937h-.51563l-.79687.5625c-.70313-.39063-1.65625-.5625-2.45313-.5625-1.48437 0-2.6875.45312-3.5 1.28125C1.40625-7.25.90625-6.03125.90625-4.34375m1.95313-.23437c0-2.3125.79687-4.14063 2.70312-4.14063.96875 0 1.65625.34375 2.01563 1.29688.125.29687.14062.60937.14062 1.07812v3.15625c0 .40625 0 .73438-.125 1.03125C7.25-1.17187 6.53125-.78125 5.5-.78125c-1.84375 0-2.64062-1.70312-2.64062-3.79687m0 0"/><path id="p" d="m.46875-8.4375.71875.10938c.48438.07812.59375.15625.59375.82812v4.92188C1.78125-.4375 3.0625.21875 4.4375.21875c1.59375 0 2.89063-1.07812 3.42188-1.32812L8.03125 0h3v-.53125C9.75-.64062 9.625-.67187 9.625-1.625V-9.25l-.14062-.10937-2.92188.46875v.45312l.71875.10938c.48438.07812.59375.15625.59375.82812v4.20313c0 .51562-.0625.9375-.15625 1.10937-.4375.85938-1.3125 1.40625-2.28125 1.40625-1.09375 0-1.89062-.6875-1.89062-2.14062V-9.25l-.14063-.10937-2.9375.46875Zm0 0"/><path id="q" d="M.90625-4.5c0 2.95313 1.28125 4.71875 4.3125 4.71875 2.0625 0 3.14063-1.15625 3.625-2.625l-.54687-.29687C7.78125-1.60937 7.0625-.73437 5.59375-.73437c-2.3125 0-2.78125-2.21875-2.73437-4.17188h5.375c.39062 0 .73437-.09375.73437-.70312 0-1.09375-.35937-3.75-3.76562-3.75C2.28125-9.35937.90625-7.29687.90625-4.5M2.875-5.60937c0-.78125.28125-3.10938 2.21875-3.10938 1.73438 0 1.9375 1.76563 1.9375 2.5 0 .35938-.125.60938-.64062.60938Zm0 0"/><path id="r" d="M.90625-4.48437C.90625-1.375 2.4375.21875 5.23438.21875c1.3125 0 3.07812-.67187 3.59375-2.67187l-.54688-.26563C7.70313-1.40625 6.96875-.75 5.59375-.75 3.375-.75 2.85938-3.07812 2.85938-4.82812c0-2.76563 1.09375-3.89063 2.375-3.89063.85937 0 1.39062.625 1.76562 1.64063.125.29687.25.46875.59375.46875.39063 0 1.09375-.23438 1.09375-.95313 0-.84375-1.21875-1.79687-3.25-1.79687-3.39062 0-4.53125 2.39062-4.53125 4.875m0 0"/><path id="s" d="M.90625-4.5625c0 3.01563 1.5 4.78125 4.48438 4.78125 3 0 4.46875-1.76562 4.46875-4.78125S8.39063-9.35937 5.39063-9.35937c-2.98438 0-4.48438 1.78125-4.48438 4.79687m1.95313 0c0-2.57812.82812-4.15625 2.53125-4.15625 1.71875 0 2.54687 1.57813 2.54687 4.15625s-.82812 4.125-2.54687 4.125c-1.70313 0-2.53125-1.54687-2.53125-4.125m0 0"/><path id="t" d="M.59375 0h4.54688v-.53125C3.8125-.64062 3.75-.67187 3.75-1.625V-6c0-.46875 0-.73437.14063-.98437.35937-.75 1.17187-1.375 2.20312-1.375 1.60938 0 1.79688 1.17187 1.79688 2.32812V-1.625c0 .95313-.04688.98438-1.40625 1.09375V0h4.54687v-.53125C9.70313-.64062 9.64063-.67187 9.64063-1.625V-6c0-.46875.01562-.70312.14062-1 .28125-.76562 1.07813-1.35937 2.125-1.35937 1.17188 0 1.89063.65625 1.89063 2.32812V-1.625c0 .95313-.0625.98438-1.42188 1.09375V0h4.57813v-.53125c-1.34376-.10937-1.42188-.14062-1.42188-1.09375v-4.76562c0-1.89063-1-2.96875-2.76562-2.96875-1.53125 0-2.625 1-3.28125 1.42187C9.03125-8.8125 8.3125-9.35937 7-9.35937c-1.42187 0-2.59375.95312-3.25 1.42187l-.17187-1.42187-2.89063.46875v.45312l.70313.10938C1.85938-8.25 2-8.17187 2-7.5v5.875C2-.67187 1.9375-.64062.59375-.53125Zm0 0"/><path id="u" d="m.375-12.90625.71875.0625c.46875.0625.59375.15625.59375.875V.07813l.34375.14062L2.76563-.5c.64062.375 1.4375.71875 2.82812.71875 2.48438 0 4.64063-1.1875 4.64063-5 0-1.15625-.23438-4.57812-3.59375-4.57812-1.40625 0-2.51563.90625-3.20313 1.32812v-5.70312l-.14062-.09375L.375-13.375Zm3.0625 9.875V-6c0-.46875.01563-.75.17188-1.04687.45312-.89063 1.23437-1.3125 2.28125-1.3125.78125 0 2.40625.4375 2.40625 3.70312 0 2.73438-.82813 4.21875-2.6875 4.21875-.98438 0-1.70313-.5-2.03125-1.42187-.125-.34375-.14063-.71875-.14063-1.17188m0 0"/><path id="v" d="M.46875 3.75v.53125h4.82813V3.75c-1.5625-.09375-1.6875-.14062-1.6875-1.09375V-.20312C4.01563.01563 4.90625.21875 5.75.21875c2.53125 0 4.67188-1.15625 4.67188-5 0-1.32812-.23438-4.57812-3.64063-4.57812-1.35937 0-2.4375.90625-3.17187 1.375l-.23438-1.375-2.8125.46875v.45312l.70313.10938c.48437.07812.59375.15625.59375.82812V2.65625c0 .95313-.07813 1-1.39063 1.09375m3.14063-6.6875V-6c0-.46875.09375-.70312.26562-1.04687.4375-.84375 1.20313-1.3125 2.20313-1.3125.75 0 2.42187.48437 2.42187 3.70312C8.5-1.92187 7.625-.4375 5.75-.4375c-.96875 0-1.70312-.5-2-1.34375C3.625-2.125 3.60938-2.5 3.60938-2.9375m0 0"/><path id="w" d="M.90625-2.42187c0 1.39062.9375 2.64062 2.6875 2.64062C4.6875.21875 5.78125-.5 6.375-.89062c.25.6875.57813 1.10937 1.21875 1.10937.70313 0 1.5-.20312 2.20313-.5625l-.10938-.4375c-.26562.0625-.67187.09375-.95312 0-.34375-.07812-.65625-.40625-.65625-1.57812v-4.53125c0-1.09375-.23438-2.46875-3.0625-2.46875C2.92188-9.35937 1.25-8.28125 1.25-7.25c0 .60938.6875.875 1.04688.875.40625 0 .5-.1875.59375-.51562.42187-1.39063 1.17187-1.82813 1.9375-1.82813.73437 0 1.5625.39063 1.5625 1.875v.76563c-.48438.48437-2.28125.95312-3.75 1.4375C1.29688-4.23437.90625-3.29687.90625-2.42187m1.89063-.25c0-.875.39062-1.34375 1.45312-1.73438.75-.28125 1.71875-.64062 2.14063-.89062v2.64062c0 1.5-1.15625 1.875-1.89063 1.875-1.14062 0-1.70312-.8125-1.70312-1.89062m0 0"/><path id="x" d="M.59375 0h4.92188v-.53125C3.84375-.64062 3.75-.67187 3.75-1.625V-6c0-1.42187.64063-1.92187 1.07813-1.92187.29687 0 .60937.125 1.14062.42187.14063.07813.28125.09375.375.09375.46875 0 .85938-.46875.85938-1.04687 0-.42188-.25-.90625-.98438-.90625-.6875 0-1.23437.39062-2.46875 1.48437l-.21875-1.48437-2.84375.46875v.45312l.70313.10938C1.85938-8.25 2-8.17187 2-7.5v5.875C2-.67187 1.90625-.64062.59375-.53125Zm0 0"/><path id="y" d="M.57813-8.39062h1.34375v6.48437c0 1.90625 1.40625 2.125 2.0625 2.125.95312 0 1.84375-.48437 2.39062-.8125L6.23438-1c-.45313.1875-.85938.25-1.32813.25-.64062 0-1.23437-.45312-1.23437-1.875v-5.76562h2.40625v-.75H3.67188v-2.34375h-.53125L2-9.14062H.57813Zm0 0"/><path id="z" d="m.875-3.10937.20313 2.4375C1.75-.07812 2.875.21874 3.96875.21874c2.21875 0 3.5-1.17187 3.5-2.76562 0-1.64063-1.01562-2.375-2.9375-2.96875C3.75-5.75 2.54688-6.15625 2.54688-7.20312c0-.96875.73437-1.51563 1.65625-1.51563 1.32812 0 1.96875 1.04688 2.10937 2.17188h.53125v-2.1875c-.60937-.45313-1.5625-.625-2.40625-.625-2.01562 0-3.39062.95312-3.39062 2.71875 0 1.54687 1.28125 2.23437 2.82812 2.71875.82813.25 2 .67187 2 1.9375 0 .95312-.73437 1.54687-1.73437 1.54687-1.5 0-2.35938-1.09375-2.73438-2.67187Zm0 0"/><path id="A" d="M5.73438-5.53125c0-4.21875-1.03125-9.10937-4.98438-9.26562v.54687c1.4375.29688 3.42188 2.21875 3.42188 8.71875C4.17188 1 2.07813 2.92188.75 3.17188v.5625c3.95313-.15625 4.98438-5.0625 4.98438-9.26563m0 0"/><path id="F" d="M.375 0h4.54688v-.53125C3.59375-.64062 3.53125-.67187 3.53125-1.625v-12.10937l-.14062-.09375-2.92188.45312v.46875l.70313.0625c.46875.0625.59375.15625.59375.875V-1.625c0 .95313-.04688.98438-1.39063 1.09375Zm0 0"/><path id="G" d="m1.34375-9.10937.32813.29687C2.59375-9.65625 3.875-10.92187 3.875-12.25c0-1-.625-1.57812-1.23437-1.57812-.5625 0-.89063.39062-.89063.89062 0 .67188.60938 1.04688.60938 1.75 0 .70313-.4375 1.40625-1.01563 2.07813m0 0"/><path id="H" d="m3.75-10.48437.28125.39062 2.8125-1.57812c.5625-.29688 1.04688-.60938 1.04688-1.01563 0-.375-.45313-.8125-.73438-.8125-.3125 0-.625.20313-1.1875.78125ZM.90625-4.5c0 2.95313 1.28125 4.71875 4.3125 4.71875 2.0625 0 3.14063-1.15625 3.625-2.625l-.54687-.29687C7.78125-1.60937 7.0625-.73437 5.59375-.73437c-2.3125 0-2.78125-2.21875-2.73437-4.17188h5.375c.39062 0 .73437-.09375.73437-.70312 0-1.09375-.35937-3.75-3.76562-3.75C2.28125-9.35937.90625-7.29687.90625-4.5M2.875-5.60937c0-.78125.28125-3.10938 2.21875-3.10938 1.73438 0 1.9375 1.76563 1.9375 2.5 0 .35938-.125.60938-.64062.60938Zm0 0"/><path id="I" d="M.78125 1.78125C.78125 3.67188 2.65625 4.5 4.82813 4.5 5.9375 4.5 7.10938 4.28125 8 3.75c.84375-.51562 1.48438-1.40625 1.48438-2.5625 0-2.01562-1.60938-2.71875-3.60938-2.71875H4.39063c-1.35938 0-1.54688-.45312-1.54688-.8125 0-.53125.70313-.82812.95313-.90625.34375.03125.75.0625.95312.0625 1.76563 0 3.76563-.78125 3.76563-3.04687 0-.76563-.26563-1.42188-.57813-1.75l1.48438-.23438.375-1.17187-.15625-.15625-2.375.75c-.51563-.34375-1.57813-.5625-2.42188-.5625C1.98438-9.35937 1-7.625 1-6.23437c0 1.75 1.14063 2.5625 2 2.78125v.04687c-1.01562.39063-1.70312.92188-1.70312 1.65625 0 .65625.75 1.35938 1.64062 1.45313v.03125C2.14063 0 .78125.4375.78125 1.78125m1.78125-.07812c0-.625.17188-1.10938.57813-1.40625.40625-.3125 1.03125-.4375 1.92187-.4375 1.64063 0 2.85938.42187 2.85938 1.8125 0 1.48437-1.35938 2.20312-2.6875 2.20312-1.57813 0-2.67188-.8125-2.67188-2.17187m.32813-7.9375c0-1.84375.95312-2.48438 1.95312-2.48438.90625 0 1.85938.6875 1.85938 2.48438 0 1.57812-.79688 2.39062-1.875 2.39062-1.0625 0-1.9375-.8125-1.9375-2.39062m0 0"/></defs><use xlink:href="#a" x="9.93504" y="23.85109" fill="#007F7F"/><path fill="none" stroke="#000" stroke-miterlimit="10" stroke-width="1.09157" d="M9.9336 32.32422h11.6289"/><use xlink:href="#b" x="9.98284" y="51.49476" fill="#FF7F00"/><path fill="none" stroke="#007F7F" stroke-miterlimit="10" stroke-width=".39689" d="M34.42969 16.16016h37.78124"/><path fill="#007F7F" stroke="#007F7F" stroke-miterlimit="10" stroke-width=".39689" d="M30.60547 16.16016c.46875.125 2.53516.83984 3.82422 1.61718v-3.23828c-1.28906.77735-3.35547 1.49219-3.82422 1.6211Zm0 0"/><path fill="none" stroke="#FF7F00" stroke-miterlimit="10" stroke-width=".39689" d="M34.42969 47.21484h37.78124"/><path fill="#FF7F00" stroke="#FF7F00" stroke-miterlimit="10" stroke-width=".39689" d="M30.60547 47.21484c.46875.125 2.53516.83985 3.82422 1.61719v-3.23828c-1.28906.78125-3.35547 1.4961-3.82422 1.6211Zm0 0"/><use xlink:href="#c" x="79.2235" y="21.41797" fill="#007F7F"/><g fill="#007F7F"><use xlink:href="#d" x="92.63848" y="21.41797"/><use xlink:href="#e" x="104.56511" y="21.41797"/><use xlink:href="#f" x="122.44513" y="21.41797"/><use xlink:href="#g" x="132.28808" y="21.41797"/><use xlink:href="#h" x="140.68236" y="21.41797"/><use xlink:href="#i" x="151.02142" y="21.41797"/><use xlink:href="#j" x="158.10596" y="21.41797"/><use xlink:href="#d" x="167.9489" y="21.41797"/><use xlink:href="#g" x="179.87554" y="21.41797"/></g><use xlink:href="#k" x="192.4554" y="21.41797"/><use xlink:href="#l" x="199.32165" y="21.41797"/><use xlink:href="#m" x="204.73924" y="21.41797"/><use xlink:href="#n" x="216.26897" y="21.41797"/><use xlink:href="#l" x="227.42166" y="21.41797"/><use xlink:href="#o" x="232.83925" y="21.41797"/><use xlink:href="#p" x="243.85303" y="21.41797"/><use xlink:href="#q" x="255.14463" y="21.41797"/><use xlink:href="#r" x="268.91682" y="21.41797"/><use xlink:href="#s" x="278.16442" y="21.41797"/><use xlink:href="#t" x="288.92022" y="21.41797"/><use xlink:href="#u" x="306.12553" y="21.41797"/><use xlink:href="#l" x="317.27822" y="21.41797"/><use xlink:href="#q" x="322.6958" y="21.41797"/><use xlink:href="#m" x="332.28077" y="21.41797"/><use xlink:href="#n" x="347.99773" y="21.41797"/><use xlink:href="#q" x="359.15042" y="21.41797"/><use xlink:href="#v" x="372.9226" y="21.41797"/><use xlink:href="#w" x="384.25389" y="21.41797"/><use xlink:href="#x" x="393.99761" y="21.41797"/><use xlink:href="#y" x="401.39967" y="21.41797"/><use xlink:href="#z" x="407.80949" y="21.41797"/><use xlink:href="#s" x="420.11317" y="21.41797"/><use xlink:href="#m" x="430.86896" y="21.41797"/><use xlink:href="#v" x="446.58592" y="21.41797"/><use xlink:href="#x" x="457.91721" y="21.41797"/><use xlink:href="#q" x="464.78346" y="21.41797"/><use xlink:href="#m" x="474.36843" y="21.41797"/><use xlink:href="#n" x="485.89816" y="21.41797"/><use xlink:href="#A" x="497.05085" y="21.41797"/><g fill="#FF7F00"><use xlink:href="#B" x="79.2235" y="52.36423"/><use xlink:href="#f" x="93.90853" y="52.36423"/><use xlink:href="#C" x="103.75148" y="52.36423"/><use xlink:href="#D" x="115.83687" y="52.36423"/><use xlink:href="#e" x="126.93002" y="52.36423"/><use xlink:href="#E" x="144.81005" y="52.36423"/><use xlink:href="#C" x="150.90236" y="52.36423"/><use xlink:href="#h" x="162.98774" y="52.36423"/><use xlink:href="#i" x="173.3268" y="52.36423"/><use xlink:href="#j" x="180.41134" y="52.36423"/><use xlink:href="#d" x="190.25429" y="52.36423"/><use xlink:href="#g" x="202.18092" y="52.36423"/></g><use xlink:href="#k" x="214.76077" y="52.36423"/><use xlink:href="#l" x="221.62701" y="52.36423"/><use xlink:href="#m" x="227.0446" y="52.36423"/><use xlink:href="#n" x="238.57434" y="52.36423"/><use xlink:href="#l" x="249.72703" y="52.36423"/><use xlink:href="#o" x="255.14462" y="52.36423"/><use xlink:href="#p" x="266.1584" y="52.36423"/><use xlink:href="#q" x="277.45" y="52.36423"/><use xlink:href="#q" x="291.22218" y="52.36423"/><use xlink:href="#m" x="300.80715" y="52.36423"/><use xlink:href="#r" x="316.52411" y="52.36423"/><use xlink:href="#s" x="325.77171" y="52.36423"/><use xlink:href="#t" x="336.52751" y="52.36423"/><use xlink:href="#u" x="353.73281" y="52.36423"/><use xlink:href="#l" x="364.88551" y="52.36423"/><use xlink:href="#q" x="370.30309" y="52.36423"/><use xlink:href="#m" x="379.88806" y="52.36423"/><use xlink:href="#n" x="395.60501" y="52.36423"/><use xlink:href="#q" x="406.7577" y="52.36423"/><use xlink:href="#v" x="420.52989" y="52.36423"/><use xlink:href="#w" x="431.86118" y="52.36423"/><use xlink:href="#x" x="441.6049" y="52.36423"/><use xlink:href="#y" x="449.00695" y="52.36423"/><use xlink:href="#z" x="455.41677" y="52.36423"/><use xlink:href="#F" x="467.72045" y="52.36423"/><use xlink:href="#G" x="472.74115" y="52.36423"/><use xlink:href="#p" x="477.9206" y="52.36423"/><use xlink:href="#m" x="489.2122" y="52.36423"/><use xlink:href="#l" x="500.74194" y="52.36423"/><use xlink:href="#y" x="506.15953" y="52.36423"/><use xlink:href="#H" x="512.56935" y="52.36423"/><use xlink:href="#q" x="526.34154" y="52.36423"/><use xlink:href="#z" x="535.9265" y="52.36423"/><use xlink:href="#y" x="544.04296" y="52.36423"/><use xlink:href="#v" x="554.64" y="52.36423"/><use xlink:href="#w" x="565.97129" y="52.36423"/><use xlink:href="#x" x="575.71501" y="52.36423"/><use xlink:href="#y" x="583.11706" y="52.36423"/><use xlink:href="#w" x="589.52688" y="52.36423"/><use xlink:href="#I" x="599.27061" y="52.36423"/><use xlink:href="#H" x="608.95479" y="52.36423"/><use xlink:href="#q" x="618.53976" y="52.36423"/><use xlink:href="#A" x="628.12472" y="52.36423"/></svg>