<svg xmlns="http://www.w3.org/2000/svg" width="680.713pt" height="28.745pt" viewBox="0 0 680.713 28.745"><defs><clipPath id="a"><path d="M3 0h674.57813v28.49219H3Zm0 0"/></clipPath><clipPath id="b"><path d="M2.85156 0h674.72657v28.49219H2.85155Zm0 0"/></clipPath><clipPath id="c"><path d="M3 0h135v28.49219H3Zm0 0"/></clipPath><clipPath id="d"><path d="M2.85156 0H139v28.49219H2.85156Zm0 0"/></clipPath><clipPath id="e"><path d="M137 0h136v28.49219H137Zm0 0"/></clipPath><clipPath id="f"><path d="M272 0h136v28.49219H272Zm0 0"/></clipPath><clipPath id="g"><path d="M2.85156 0H4v28.49219H2.85156Zm0 0"/></clipPath><clipPath id="h"><path d="M137 0h2v28.49219h-2Zm0 0"/></clipPath><clipPath id="i"><path d="M272 0h1v28.49219h-1Zm0 0"/></clipPath><clipPath id="j"><path d="M407 0h1v28.49219h-1Zm0 0"/></clipPath><clipPath id="k"><path d="M542 0h1v28.49219h-1Zm0 0"/></clipPath></defs><g clip-path="url(#a)"><path fill="#FFF" d="M3.04688 28.29688V.19921h674.34375v28.09766Zm0 0"/></g><g clip-path="url(#b)"><path fill="none" stroke="#000" stroke-miterlimit="10" stroke-width=".395" d="M3.04688 28.29687V.19922H677.3907v28.09765Zm0 0"/></g><g clip-path="url(#c)"><path fill="#7FD6F7" d="M3.04688 28.29688V.19921h134.86718v28.09766Zm0 0"/></g><g clip-path="url(#d)"><path fill="none" stroke="#000" stroke-miterlimit="10" stroke-width=".395" d="M3.04688 28.29687V.19922h134.8672v28.09765Zm0 0"/></g><g clip-path="url(#e)"><path fill="#7FD6F7" stroke="#000" stroke-miterlimit="10" stroke-width=".395" d="M137.91408 28.29687V.19922h134.8711v28.09765Zm0 0"/></g><g clip-path="url(#f)"><path fill="#7FD6F7" stroke="#000" stroke-miterlimit="10" stroke-width=".395" d="M272.78518 28.29687V.19922h134.8672v28.09765Zm0 0"/></g><g clip-path="url(#g)"><path fill="none" stroke="#000" stroke-miterlimit="10" stroke-width=".395" d="M3.04688 28.29687V.19922"/></g><g clip-path="url(#h)"><path fill="none" stroke="#000" stroke-miterlimit="10" stroke-width=".395" d="M137.91408 28.29687V.19922"/></g><g clip-path="url(#i)"><path fill="none" stroke="#000" stroke-miterlimit="10" stroke-width=".395" d="M272.78518 28.29687V.19922"/></g><g clip-path="url(#j)"><path fill="none" stroke="#000" stroke-miterlimit="10" stroke-width=".395" d="M407.65239 28.29687V.19922"/></g><g clip-path="url(#k)"><path fill="none" stroke="#000" stroke-miterlimit="10" stroke-width=".395" d="M542.51959 28.29687V.19922"/></g></svg>