<svg xmlns="http://www.w3.org/2000/svg" width="425.595pt" height="35.832pt" viewBox="0 0 425.595 35.832"><defs><clipPath id="a"><path d="M.79297 0h423.60547v35.66406H.79297Zm0 0"/></clipPath><clipPath id="b"><path d="M.79297 0H72v18H.79297Zm0 0"/></clipPath><clipPath id="c"><path d="M.79297 0H72v19H.79297Zm0 0"/></clipPath><clipPath id="d"><path d="M353 0h71.39844v18H353Zm0 0"/></clipPath><clipPath id="e"><path d="M353 0h71.39844v19H353Zm0 0"/></clipPath><clipPath id="f"><path d="M.79297 17H72v18.66406H.79297Zm0 0"/></clipPath><clipPath id="g"><path d="M.79297 0H2v35.66406H.79297Zm0 0"/></clipPath><clipPath id="h"><path d="M71 0h1v35.66406h-1Zm0 0"/></clipPath><clipPath id="i"><path d="M141 0h2v35.66406h-2Zm0 0"/></clipPath><clipPath id="j"><path d="M212 0h1v35.66406h-1Zm0 0"/></clipPath><clipPath id="k"><path d="M282 0h2v35.66406h-2Zm0 0"/></clipPath><clipPath id="l"><path d="M353 0h1v35.66406h-1Zm0 0"/></clipPath><clipPath id="m"><path d="M424 0h.39844v35.66406H424Zm0 0"/></clipPath><clipPath id="n"><path d="M.79297 17h423.60547v2H.79297Zm0 0"/></clipPath></defs><g clip-path="url(#a)"><path fill="#FFF" stroke="#000" stroke-miterlimit="10" stroke-width=".39664" d="M.98828 35.46484V.19924H424.2069v35.2656Zm0 0"/></g><g clip-path="url(#b)"><path fill="#7FD6F7" d="M.98828 17.83203V.19922h70.53906v17.63281Zm0 0"/></g><g clip-path="url(#c)"><path fill="none" stroke="#000" stroke-miterlimit="10" stroke-width=".39664" d="M.98828 17.83204V.19924h70.53904v17.6328Zm0 0"/></g><path fill="#7FD6F7" stroke="#000" stroke-miterlimit="10" stroke-width=".39664" d="M71.52732 17.83204V.19924h70.53513v17.6328Zm70.53513 0V.19924h70.53513v17.6328Zm70.53513 0V.19924h70.53904v17.6328Zm70.53904 0V.19924h70.53514v17.6328Zm0 0"/><g clip-path="url(#d)"><path fill="#7FD6F7" d="M353.67188 17.83203V.19922h70.53515v17.63281Zm0 0"/></g><g clip-path="url(#e)"><path fill="none" stroke="#000" stroke-miterlimit="10" stroke-width=".39664" d="M353.67176 17.83204V.19924h70.53513v17.6328Zm0 0"/></g><g clip-path="url(#f)"><path fill="#7FD6F7" stroke="#000" stroke-miterlimit="10" stroke-width=".39664" d="M.98828 35.46484v-17.6328h70.53904v17.6328Zm0 0"/></g><g clip-path="url(#g)"><path fill="none" stroke="#000" stroke-miterlimit="10" stroke-width=".39664" d="M.98828 35.46484V.19924"/></g><g clip-path="url(#h)"><path fill="none" stroke="#000" stroke-miterlimit="10" stroke-width=".39664" d="M71.52732 35.46484V.19924"/></g><g clip-path="url(#i)"><path fill="none" stroke="#000" stroke-miterlimit="10" stroke-width=".39664" d="M142.06245 35.46484V.19924"/></g><g clip-path="url(#j)"><path fill="none" stroke="#000" stroke-miterlimit="10" stroke-width=".39664" d="M212.59758 35.46484V.19924"/></g><g clip-path="url(#k)"><path fill="none" stroke="#000" stroke-miterlimit="10" stroke-width=".39664" d="M283.13662 35.46484V.19924"/></g><g clip-path="url(#l)"><path fill="none" stroke="#000" stroke-miterlimit="10" stroke-width=".39664" d="M353.67176 35.46484V.19924"/></g><g clip-path="url(#m)"><path fill="none" stroke="#000" stroke-miterlimit="10" stroke-width=".39664" d="M424.20689 35.46484V.19924"/></g><g clip-path="url(#n)"><path fill="none" stroke="#000" stroke-miterlimit="10" stroke-width=".39664" d="M.98828 17.83204H424.2069"/></g></svg>