<svg xmlns="http://www.w3.org/2000/svg" xmlns:xlink="http://www.w3.org/1999/xlink" width="385.04pt" height="54.045pt" viewBox="0 0 385.04 54.045"><defs><path id="b" d="M.3125-.10937.42188 0H5.1875l.39063-1.51562-.3125-.0625c-.25.625-.48438.70312-.95313.70312H1.375c.1875-.59375.875-1.40625 1.9375-2.1875 1.10938-.79687 1.95313-1.3125 1.95313-2.60937C5.26563-7.26562 4.20313-7.8125 3-7.8125c-1.57812 0-2.39062.95313-2.39062 1.54688 0 .39062.4375.57812.64062.57812.20313 0 .28125-.125.32813-.3125.1875-.79687.64062-1.42187 1.34375-1.42187.89062 0 1.14062.73437 1.14062 1.59375 0 1.23437-.625 1.92187-1.625 2.8125C1.01563-1.78125.53125-1 .3125-.10937m0 0"/><path id="c" d="M.59375 1.40625.8125 1.625C1.375 1.09375 2.21875.3125 2.21875-.59375c0-.60937-.32812-1.03125-.78125-1.03125-.34375 0-.5625.28125-.5625.57813 0 .40625.375.625.375 1.125C1.25.54688.95313 1 .59375 1.40625m0 0"/><path id="d" d="m.21875-2.29687.09375.23437h3.14063V-.875c0 .39063-.125.45313-.40625.46875l-.73438.07813V0h3.03125v-.32812l-.51562-.0625C4.5625-.42187 4.48438-.48437 4.48438-.875v-1.1875h1.1875v-.53125h-1.1875V-7.6875h-.84375C2.5625-6.09375 1.26563-4.09375.21875-2.29687m.82813-.29688c.6875-1.25 1.51562-2.57812 2.40625-3.96875v3.96875Zm0 0"/><path id="e" d="M.3125-1.17187c0 .48437.78125 1.3125 2.42188 1.3125 1.65625 0 2.70312-.84375 2.70312-2.3125 0-1.54688-1.3125-2-1.95312-2.0625v-.04688c.625-.09375 1.625-.5625 1.625-1.70312 0-1.26563-1-1.82813-2.23438-1.82813-1.51562 0-2.26562.875-2.26562 1.35938 0 .35937.40625.5625.5625.5625.15624 0 .23437-.09375.28124-.23438.26563-.78125.6875-1.29687 1.34376-1.29687.89062 0 1.125.79687 1.125 1.45312 0 .6875-.23438 1.54688-1.21875 1.54688-.54688 0-.875-.10938-1-.10938-.15626 0-.20313.10938-.20313.32813 0 .1875.04688.3125.20313.3125.125 0 .45312-.10938 1-.10938.98437 0 1.53125.875 1.53125 1.89063 0 1.35937-.67188 1.84375-1.5 1.84375-.75 0-1.25-.5625-1.46875-1.21875-.07813-.21876-.1875-.32813-.34375-.32813-.21876 0-.60938.21875-.60938.64063m0 0"/><path id="f" d="M.46875-1.17187c0 .53125.79688 1.3125 2.29688 1.3125 1.89062 0 2.75-1.15625 2.75-2.60938 0-1.625-1-2.4375-2.375-2.4375-.625 0-1.32813.28125-1.70313.60938l.26563-2.17188c.03124-.29687.10937-.32812.32812-.32812h2.85938l.28125-.78125-.0625-.10938H1.26563l-.10938.10938L.9375-3.73437l.28125.15625c.46875-.5625.9375-.82813 1.5625-.82813.73438 0 1.53125.54688 1.53125 2.0625 0 1.1875-.46875 2.07813-1.46875 2.07813-.8125 0-1.21875-.57813-1.45312-1.23438-.0625-.17187-.17188-.28125-.32813-.28125-.23437 0-.59375.23438-.59375.60938m0 0"/><path id="g" d="M.48438-6.0625h.29687l.10938-.25c.15624-.3125.3125-.48437.82812-.48437h3.10938c-.125.40625-.34375 1.07812-1.26563 2.40625-1 1.42187-1.64062 2.70312-1.64062 4.0625 0 .375.26562.46875.625.46875.3125 0 .54687-.07813.54687-.45313 0-1.75.3125-2.8125.875-3.79687.73438-1.28125 1.34375-2.01563 1.75-3.45313l-.10937-.125H.82813Zm0 0"/><clipPath id="a"><path d="M363 14h18.22656v25H363Zm0 0"/></clipPath></defs><path fill="none" stroke="#000" stroke-miterlimit="10" stroke-width=".78317" d="M15.2461 26.55469h359.5233"/><path d="M378.86328 26.55469c-.5039-.10547-2.71484-.69922-4.09375-1.34375v2.6836c1.3789-.64454 3.58985-1.23829 4.09375-1.33985m0 0"/><g clip-path="url(#a)"><path fill="none" stroke="#000" stroke-miterlimit="10" stroke-width=".78317" d="M378.86328 26.55469c-.5039-.10547-2.71484-.69922-4.09375-1.34375v2.68359c1.3789-.64453 3.58984-1.23828 4.09375-1.33984Zm0 0"/></g><path fill="none" stroke="#000" stroke-miterlimit="10" stroke-width=".78317" d="M15.2461 17.84766v17.41015m34.8203-17.41015v17.41015m34.81639-17.41015v17.41015m34.8203-17.41015v17.41015m34.81639-17.41015v17.41015m34.8203-17.41015v17.41015m34.81639-17.41015v17.41015m34.8203-17.41015v17.41015m34.8164-17.41015v17.41015m34.8203-17.41015v17.41015m34.81639-17.41015v17.41015"/><use xlink:href="#b" x="6.9501" y="47.40041"/><use xlink:href="#c" x="13.04416" y="47.40041"/><use xlink:href="#d" x="17.44951" y="47.40041"/><path fill="none" stroke="#000" stroke-miterlimit="10" stroke-width=".78317" d="M119.70309 17.84766v17.41015"/><use xlink:href="#b" x="108.35621" y="47.40041"/><use xlink:href="#c" x="114.45027" y="47.40041"/><use xlink:href="#d" x="118.85562" y="47.40041"/><use xlink:href="#e" x="124.94967" y="47.40041"/><path fill="none" stroke="#000" stroke-miterlimit="10" stroke-width=".78317" d="M154.51948 17.84766v17.41015"/><use xlink:href="#b" x="143.17397" y="47.40041"/><use xlink:href="#c" x="149.26803" y="47.40041"/><use xlink:href="#d" x="153.67337" y="47.40041"/><use xlink:href="#d" x="159.76743" y="47.40041"/><use xlink:href="#b" x="355.12765" y="47.40041"/><use xlink:href="#c" x="361.22171" y="47.40041"/><use xlink:href="#f" x="365.62705" y="47.40041"/><path fill="none" stroke="#007F7F" stroke-miterlimit="10" stroke-width=".78317" d="M144.07417 19.58985v13.92577"/><g fill="#007F7F"><use xlink:href="#b" x="129.68139" y="11.89776"/><use xlink:href="#c" x="135.77545" y="11.89776"/></g><g fill="#007F7F"><use xlink:href="#d" x="140.18079" y="11.89776"/><use xlink:href="#e" x="146.27485" y="11.89776"/><use xlink:href="#g" x="152.36891" y="11.89776"/></g></svg>