<svg xmlns="http://www.w3.org/2000/svg" xmlns:xlink="http://www.w3.org/1999/xlink" width="908.456pt" height="390.127pt" viewBox="0 0 908.456 390.127"><defs><path id="g" d="M2.28125 0H9.1875v-.60937L7.42188-.76563c-.45313-.04687-.6875-.20312-.6875-1.01562v-12.39062l-.10938-.10938-4.34375.73438v.51562l1.96875.23438c.35938.04687.48438.20312.48438.8125v10.20312c0 .39063-.03125.64063-.17188.79688-.10937.15624-.29687.20312-.51562.21874l-1.76563.15626Zm0 0"/><path id="h" d="M1.03125-4.9375C1.03125-1.82812 2.65625.25 5.4375.25c1.14063 0 2.09375-.51562 3.23438-1.4375v1.03125L8.85938 0H12.25v-.60937c-1.5-.10938-1.5625-.15626-1.5625-1.21875v-13.64063l-.15625-.10937-3.3125.51562v.53125l.8125.0625c.53125.0625.67188.1875.67188.98438v3.4375c-.59375-.3125-1.375-.5-2.32813-.5-1.71875 0-3.01562.54687-3.89062 1.45312-.89063.9375-1.45313 2.3125-1.45313 4.15625m2.1875-.25c0-2.73437.98438-4.625 3.125-4.625.98438 0 1.79688.4375 2.17188 1.3125.1875.35938.1875.67188.1875 1.23438v3.6875c0 .46875 0 .82812-.14063 1.1875C8.14063-1.29687 7.21875-.875 6.125-.875c-1.92187 0-2.90625-1.89062-2.90625-4.3125m0 0"/><path id="i" d="M1.92188-13.75c0 .76563.53125 1.29688 1.29687 1.29688.76563 0 1.28125-.53125 1.28125-1.29688 0-.76562-.51562-1.28125-1.28125-1.28125-.76562 0-1.29687.51563-1.29687 1.28125M.67188 0h5.125v-.60937c-1.5-.10938-1.57813-.15626-1.57813-1.21875v-8.59375l-.15625-.125-3.28125.53125V-9.5l.78125.10938c.54688.09375.70313.17187.70313.9375v6.625c0 1.0625-.07813 1.10937-1.59375 1.21875Zm0 0"/><path id="j" d="M.01563 0h4.03125v-.60937l-.875-.10938C2.89063-.76562 2.89063-1 3.01563-1.23437 3.48438-2.125 4.15625-3.125 4.875-4.21875h.04688l1.875 2.92188c.21875.35937.15625.53125-.15625.57812l-.875.10938V0h4.92187v-.60937C9.75-.64063 9.40625-.71875 8.875-1.46875 7.92188-2.85937 6.90625-4.3125 6-5.79687c.6875-1.04688 1.48438-2.125 2.3125-3.10938.54688-.65625.82813-.73437 1.84375-.78125v-.625H6.23438v.625l.82812.07813c.34375.04687.29688.26562.14063.48437-.5.8125-1.04688 1.67188-1.6875 2.64063H5.5L3.73438-9.09375c-.17188-.25-.10938-.5.20312-.54687l.625-.04688v-.625H.17188v.625c.85937.04688 1.03125.07813 1.54687.76563.875 1.23437 1.79688 2.59375 2.6875 3.9375C3.625-3.84375 2.8125-2.65625 1.9375-1.51562c-.53125.73437-1 .84375-1.92187.90625Zm0 0"/><path id="k" d="M2.54688-14.28125c0 .4375.53125.79688 1.17187 1.14063L6.89063-11.375l.3125-.4375-2.48438-2.51562c-.625-.65625-1-.875-1.35937-.875-.3125 0-.8125.48437-.8125.92187M1.03125-5.07812C1.03125-1.75 2.45313.25 5.875.25c2.32813 0 3.53125-1.29687 4.09375-2.95312l-.625-.34375C8.76563-1.8125 7.95313-.82812 6.3125-.82812c-2.625 0-3.14062-2.5-3.09375-4.6875h6.0625c.4375 0 .82813-.125.82813-.8125 0-1.23438-.40625-4.21875-4.25-4.21875-3.28125 0-4.82813 2.3125-4.82813 5.46875m2.20313-1.25c0-.875.32812-3.48438 2.51562-3.48438 1.9375 0 2.17188 1.98438 2.17188 2.8125 0 .40625-.14063.67188-.71875.67188Zm0 0"/><path id="l" d="M.67188 0h5.125v-.60937c-1.5-.10938-1.57813-.15626-1.57813-1.21875V-6.75c0-.54687 0-.82812.15625-1.125.40625-.84375 1.32813-1.53125 2.48438-1.53125 1.8125 0 2.04687 1.3125 2.04687 2.60938v4.96875c0 1.0625-.07812 1.10937-1.59375 1.21875V0h5.125v-.60937c-1.5-.10938-1.57812-.15626-1.57812-1.21875V-6.75c0-.54687.03125-.8125.15625-1.14062.32812-.85938 1.21875-1.51563 2.40625-1.51563 1.3125 0 2.125.73438 2.125 2.60938v4.96875c0 1.0625-.07813 1.10937-1.59375 1.21875V0h5.14062v-.60937C17.59375-.71875 17.5-.76563 17.5-1.82812v-5.375c0-2.125-1.14062-3.34375-3.125-3.34375-1.71875 0-2.95312 1.14062-3.6875 1.60937-.51562-.98437-1.3125-1.60937-2.79687-1.60937-1.60938 0-2.92188 1.0625-3.67188 1.60937l-.1875-1.60937-3.25.53125V-9.5l.78125.10938c.54688.09375.70313.17187.70313.9375v6.625c0 1.0625-.07813 1.10937-1.59375 1.21875Zm0 0"/><path id="m" d="M1.03125-5.07812C1.03125-1.75 2.45313.25 5.875.25c2.32813 0 3.53125-1.29687 4.09375-2.95312l-.625-.34375C8.76563-1.8125 7.95313-.82812 6.3125-.82812c-2.625 0-3.14062-2.5-3.09375-4.6875h6.0625c.4375 0 .82813-.125.82813-.8125 0-1.23438-.40625-4.21875-4.25-4.21875-3.28125 0-4.82813 2.3125-4.82813 5.46875m2.20313-1.25c0-.875.32812-3.48438 2.51562-3.48438 1.9375 0 2.17188 1.98438 2.17188 2.8125 0 .40625-.14063.67188-.71875.67188Zm0 0"/><path id="n" d="M1.03125-5.04687C1.03125-1.54687 2.75.25 5.90625.25 7.375.25 9.375-.51562 9.95313-2.76562l-.625-.29688C8.67188-1.59375 7.84375-.84375 6.3125-.84375c-2.51562 0-3.09375-2.625-3.09375-4.59375 0-3.125 1.23438-4.375 2.6875-4.375.95313 0 1.5625.6875 1.98438 1.82813.14062.34375.26562.53125.67187.53125.42188 0 1.23438-.26563 1.23438-1.0625 0-.96875-1.39063-2.03125-3.67188-2.03125-3.82812 0-5.09375 2.70312-5.09375 5.5m0 0"/><path id="o" d="M.67188 0h5.125v-.60937c-1.5-.10938-1.57813-.15626-1.57813-1.21875V-6.75c0-.54687.03125-.8125.20313-1.14062C4.875-8.71875 5.8125-9.40625 6.9375-9.40625c1.42188 0 2.20313.78125 2.20313 2.60938v4.96875c0 1.0625-.0625 1.10937-1.57813 1.21875V0h5.14063v-.60937c-1.5-.10938-1.59375-.15626-1.59375-1.21875v-5.375c0-2.125-1.15625-3.34375-3.07813-3.34375-1.5625 0-2.53125.75-3.82812 1.60937l-.29688-1.60937-3.125.53125V-9.5l.78125.10938c.54688.09375.70313.17187.70313.9375v6.625c0 1.0625-.07813 1.10937-1.59375 1.21875Zm0 0"/><path id="p" d="M.64063-9.45312h1.53125v7.3125C2.17188 0 3.75.25 4.5.25c1.0625 0 2.07813-.54687 2.67188-.92187L7.01563-1.125c-.51563.20313-.95313.28125-1.5.28125-.70313 0-1.375-.51562-1.375-2.10937v-6.5h2.70312v-.85938H4.14063v-2.64062h-.60938L2.26563-10.3125h-1.625Zm0 0"/><path id="q" d="M.42188 0h5.125v-.60937c-1.5-.10938-1.5625-.15626-1.5625-1.21875v-13.64063l-.15625-.10937-3.29688.51562v.53125l.78125.0625c.54688.0625.67188.1875.67188.98438v11.65625c0 1.0625-.04688 1.10937-1.5625 1.21875Zm0 0"/><clipPath id="d"><path d="M15 23h892.17188v66H15Zm0 0"/></clipPath><clipPath id="e"><path d="M15 150h892.17188v66H15Zm0 0"/></clipPath><clipPath id="f"><path d="M15 278h892.17188v65H15Zm0 0"/></clipPath><clipPath id="r"><path d="M455 81h452.17188v76H455Zm0 0"/></clipPath><clipPath id="a"><path d="M0 0h140v140H0z"/></clipPath><clipPath id="t"><path d="M633 209h274.17188v76H633Zm0 0"/></clipPath><clipPath id="c"><path d="M87 87h52.65625v52.39844H87Zm0 0"/></clipPath><clipPath id="b"><path d="M0 0h140v140H0z"/></clipPath><g id="s" clip-path="url(#a)"><path fill="#9AAAB4" d="m106.28516 95.35938-10.8711 10.89843-19.08203-19.0586L87.22656 76.3047Zm0 0"/><path fill="#66757F" d="m134.39844 112.57813-22.65235-22.65235c-3.0078-3.01172-7.89062-3.01172-10.89843 0l-10.89454 10.89453c-3.01171 3.00781-3.01171 7.88281 0 10.89453l22.65626 22.65235c6.01562 6.01953 15.78906 6.01953 21.80859 0 6-6.01953 6-15.76953-.01953-21.78906m0 0"/><path fill="#8899A6" d="M52.375 1.09766C23.9414 1.5 1.10547 24.67578 1.10547 53.10546c0 13.78907 5.5 27.00782 15.25 36.75782 9.7539 9.76953 22.97656 15.25 36.77734 15.25 28.71485 0 52.00782-23.29297 52.00782-52.00781 0-13.80469-5.4961-27.02734-15.2461-36.77734-9.7539-9.75391-22.97266-15.23047-36.76172-15.23047zm.17969 15.41015h.57812c9.69532 0 19.00782 3.85547 25.86719 10.71485 6.85938 6.86328 10.73047 16.17187 10.73047 25.8828 0 20.20704-16.39063 36.59767-36.59766 36.59767-9.70703 0-19.01953-3.8711-25.88281-10.73438S16.51563 62.80078 16.51563 53.10547c0-20.0039 16.05859-36.29297 36.03906-36.59766m0 0"/></g><g id="u" clip-path="url(#b)"><path fill="#9AAAB4" d="m106.47266 95.63281-10.875 10.90235-19.08204-19.0625 10.89454-10.89454Zm0 0"/><g clip-path="url(#c)"><path fill="#66757F" d="M134.58203 112.85156 111.9297 90.19922c-3.00781-3.00781-7.88672-3.00781-10.89844 0l-10.89453 10.89453c-3.01172 3.01172-3.01172 7.88672 0 10.89453l22.65625 22.65234c6.01562 6.01954 15.78906 6.01954 21.8125 0 5.9961-6.01953 5.9961-15.76953-.02344-21.78906m0 0"/></g><path fill="#8899A6" d="M52.5586 1.375C24.1289 1.77344 1.28905 24.94922 1.28905 53.38281c0 13.78516 5.5039 27.00782 15.25 36.7539 9.7539 9.76954 22.97657 15.25 36.77735 15.25 28.71484 0 52.0078-23.29296 52.0078-52.0039 0-13.8086-5.49608-27.03125-15.24218-36.78125C80.32422 6.84766 67.10547 1.375 53.31641 1.375zm.17968 15.40625h.57813c9.6953 0 19.0078 3.85547 25.87109 10.71484 6.85547 6.86329 10.72656 16.17188 10.72656 25.88672 0 20.20703-16.39062 36.59766-36.59765 36.59766-9.70703 0-19.01953-3.875-25.88282-10.73828-6.85937-6.85938-10.73437-16.16797-10.73437-25.85938 0-20.00781 16.0586-36.29687 36.03906-36.60156m0 0"/></g></defs><path fill="#FFF" d="M15.85547 87.60547V23.96875h890.92969v63.63672Zm0 0"/><g clip-path="url(#d)"><path fill="none" stroke="#000" stroke-miterlimit="10" stroke-width=".79523" d="M15.85547 87.60547v-63.6367h890.92945v63.6367Zm0 0"/></g><path fill="none" stroke="#000" stroke-miterlimit="10" stroke-width=".79523" d="M104.94529 87.60547v-63.6367m89.09373 63.6367v-63.6367m89.09372 63.6367v-63.6367m89.09373 63.6367v-63.6367m89.08982 63.6367v-63.6367m89.09372 63.6367v-63.6367m89.09373 63.6367v-63.6367m89.08982 63.6367v-63.6367m89.09373 63.6367v-63.6367"/><path fill="#FFF" d="M15.85547 214.88281V151.2461h890.92969v63.63672Zm0 0"/><g clip-path="url(#e)"><path fill="none" stroke="#000" stroke-miterlimit="10" stroke-width=".79523" d="M15.85547 214.88278v-63.6367h890.92945v63.6367Zm0 0"/></g><path fill="none" stroke="#000" stroke-miterlimit="10" stroke-width=".79523" d="M104.94529 214.88278v-63.6367m89.09373 63.6367v-63.6367m89.09372 63.6367v-63.6367m89.09373 63.6367v-63.6367m89.08982 63.6367v-63.6367m89.09372 63.6367v-63.6367m89.09373 63.6367v-63.6367m89.08982 63.6367v-63.6367m89.09373 63.6367v-63.6367"/><path fill="#FFF" d="M15.85547 342.16016v-63.64063h890.92969v63.64063Zm0 0"/><g clip-path="url(#f)"><path fill="none" stroke="#000" stroke-miterlimit="10" stroke-width=".79523" d="M15.85547 342.16009v-63.6406h890.92945v63.6406Zm0 0"/></g><path fill="none" stroke="#000" stroke-miterlimit="10" stroke-width=".79523" d="M104.94529 342.16009v-63.6406m89.09373 63.6406v-63.6406m89.09372 63.6406v-63.6406m89.09373 63.6406v-63.6406m89.08982 63.6406v-63.6406m89.09372 63.6406v-63.6406m89.09373 63.6406v-63.6406m89.08982 63.6406v-63.6406m89.09373 63.6406v-63.6406"/><path fill="#7FD6F7" stroke="#000" stroke-miterlimit="10" stroke-width=".39761" d="M15.85547 87.60547v-63.6367h89.08982v63.6367Zm0 0"/><path fill="none" stroke="#00ADEF" stroke-miterlimit="10" stroke-width=".39761" d="M60.39843 60.35938v43.15624"/><path fill="#00ADEF" stroke="#00ADEF" stroke-miterlimit="10" stroke-width=".39761" d="M60.39844 56.53125c-.125.46875-.83985 2.53906-1.6211 3.82813h3.2461c-.78125-1.28907-1.4961-3.35938-1.625-3.82813Zm0 0"/><use xlink:href="#g" x="14.48203" y="127.00679" fill="#00ADEF"/><g fill="#00ADEF"><use xlink:href="#h" x="30.33945" y="127.00679"/><use xlink:href="#i" x="42.90908" y="127.00679"/><use xlink:href="#j" x="49.01497" y="127.00679"/><use xlink:href="#i" x="59.21382" y="127.00679"/><use xlink:href="#k" x="65.3197" y="127.00679"/><use xlink:href="#l" x="76.12243" y="127.00679"/><use xlink:href="#m" x="95.51366" y="127.00679"/></g><path fill="#F57FC5" stroke="#000" stroke-miterlimit="10" stroke-width=".39761" d="M15.85547 214.88278v-63.6367h89.08982v63.6367Zm0 0"/><path fill="none" stroke="#EC008C" stroke-miterlimit="10" stroke-width=".39761" d="M60.39843 187.6367v43.15623"/><path fill="#EC008C" stroke="#EC008C" stroke-miterlimit="10" stroke-width=".39761" d="M60.39844 183.80469c-.125.47265-.83985 2.53906-1.6211 3.83203h3.2461c-.78125-1.29297-1.4961-3.35938-1.625-3.83203Zm0 0"/><use xlink:href="#g" x="8.1971" y="253.90084" fill="#EC008C"/><g fill="#EC008C"><use xlink:href="#n" x="24.05451" y="253.90084"/><use xlink:href="#m" x="34.47702" y="253.90084"/><use xlink:href="#o" x="45.27974" y="253.90084"/><use xlink:href="#p" x="58.27433" y="253.90084"/><use xlink:href="#i" x="65.49851" y="253.90084"/><use xlink:href="#k" x="71.6044" y="253.90084"/><use xlink:href="#l" x="82.40712" y="253.90084"/><use xlink:href="#m" x="101.79835" y="253.90084"/></g><path fill="#7FBFBF" stroke="#000" stroke-miterlimit="10" stroke-width=".39761" d="M15.85547 342.16009v-63.6406h89.08982v63.6406Zm0 0"/><path fill="none" stroke="#007F7F" stroke-miterlimit="10" stroke-width=".39761" d="M60.39843 314.914v43.15233"/><path fill="#007F7F" stroke="#007F7F" stroke-miterlimit="10" stroke-width=".39761" d="M60.39844 311.08203c-.125.47266-.83985 2.53906-1.6211 3.83203h3.2461c-.78125-1.29297-1.4961-3.35937-1.625-3.83203Zm0 0"/><use xlink:href="#g" x="10.31037" y="381.55518" fill="#007F7F"/><g fill="#007F7F"><use xlink:href="#l" x="26.16779" y="381.55518"/><use xlink:href="#i" x="45.55901" y="381.55518"/><use xlink:href="#q" x="51.6649" y="381.55518"/><use xlink:href="#q" x="57.52477" y="381.55518"/><use xlink:href="#i" x="63.38463" y="381.55518"/><use xlink:href="#k" x="69.49052" y="381.55518"/><use xlink:href="#l" x="80.29324" y="381.55518"/><use xlink:href="#m" x="99.68447" y="381.55518"/></g><path fill="none" stroke="#000" stroke-dasharray="2.9821649091 2.9821649091" stroke-miterlimit="10" stroke-width=".39761" d="m372.22647 87.60547-356.371 63.6406"/><g clip-path="url(#r)"><path fill="none" stroke="#000" stroke-dasharray="2.9821649091 2.9821649091" stroke-miterlimit="10" stroke-width=".39761" d="m461.31629 87.60547 445.46863 63.6406"/></g><use xlink:href="#s" transform="translate(367 7)"/><path fill="none" stroke="#000" stroke-dasharray="2.9821649091 2.9821649091" stroke-miterlimit="10" stroke-width=".39761" d="m550.41001 214.88278-534.55454 63.6367"/><g clip-path="url(#t)"><path fill="none" stroke="#000" stroke-dasharray="2.9821649091 2.9821649091" stroke-miterlimit="10" stroke-width=".39761" d="m639.50374 214.88278 267.28118 63.6367"/></g><use xlink:href="#u" transform="translate(545 134)"/></svg>