<svg xmlns="http://www.w3.org/2000/svg" xmlns:xlink="http://www.w3.org/1999/xlink" width="560.375pt" height="36.839pt" viewBox="0 0 560.375 36.839"><defs><clipPath id="c"><path d="M411 .59375h1v18.34766h-1Zm0 0"/></clipPath><clipPath id="d"><path d="M448 .59375h1v18.34766h-1Zm0 0"/></clipPath><clipPath id="e"><path d="M484 .59375h2v18.34766h-2Zm0 0"/></clipPath><clipPath id="f"><path d="M521 .59375h1v18.34766h-1Zm0 0"/></clipPath><clipPath id="g"><path d="M541 0h17.84375v23H541Zm0 0"/></clipPath><path id="a" d="M.29688-.10937.40625 0h4.51563l.375-1.4375-.3125-.0625c-.21875.59375-.4375.67188-.89063.67188H1.3125c.17188-.5625.82813-1.34375 1.82813-2.07813C4.1875-3.67187 5-4.15625 5-5.375c0-1.51562-1-2.04687-2.15625-2.04687-1.5 0-2.26562.90625-2.26562 1.48437 0 .35938.42187.54688.60937.54688s.26563-.125.3125-.3125c.17188-.73438.59375-1.32813 1.28125-1.32813.82813 0 1.07813.6875 1.07813 1.5 0 1.17188-.59375 1.82813-1.54688 2.65625C.96875-1.6875.5-.95312.29688-.10937m0 0"/><path id="b" d="M.29688-1.10937c0 .45312.75 1.23437 2.29687 1.23437 1.57813 0 2.57813-.79687 2.57813-2.1875 0-1.46875-1.26563-1.89062-1.85938-1.95312v-.04688c.59375-.09375 1.53125-.53125 1.53125-1.60937 0-1.21875-.9375-1.75-2.10937-1.75-1.45313 0-2.15625.84375-2.15625 1.29687 0 .34375.39062.53125.53125.53125s.21874-.07812.26562-.21875c.25-.75.65625-1.21875 1.26563-1.21875.85937 0 1.09375.75 1.09375 1.35938 0 .65625-.23438 1.48437-1.17188 1.48437-.51562 0-.82812-.10937-.95312-.10937-.14063 0-.1875.10937-.1875.29687s.04687.3125.1875.3125c.125 0 .4375-.10937.95312-.10937.9375 0 1.45313.84375 1.45313 1.78125C4.01563-.70312 3.375-.25 2.59375-.25c-.71875 0-1.1875-.54687-1.39062-1.15625-.07813-.20312-.1875-.3125-.32813-.3125-.20312 0-.57812.20313-.57812.60938m0 0"/><path id="h" d="M.84375-.625c0 .4375.29688.76563.76563.76563.48437 0 .75-.32813.76562-.76563 0-.4375-.28125-.78125-.76562-.78125-.46875 0-.76563.34375-.76563.78125m0 0"/></defs><path fill="none" stroke="#000" stroke-miterlimit="10" stroke-width=".39677" d="M8.10573.59375V18.9414"/><use xlink:href="#a" x="5.20627" y="30.9119"/><path fill="none" stroke="#7f7f7f" stroke-miterlimit="10" stroke-width=".39677" d="M44.79715.59375V18.9414M81.48857.59375V18.9414M118.17608.59375V18.9414M154.8675.59375V18.9414M191.55892.59375V18.9414M228.25034.59375V18.9414M264.94176.59375V18.9414M301.62927.59375V18.9414M338.32069.59375V18.9414"/><path fill="none" stroke="#000" stroke-miterlimit="10" stroke-width=".39677" d="M375.0121.59375V18.9414"/><use xlink:href="#b" x="372.10678" y="30.9119"/><g clip-path="url(#c)"><path fill="none" stroke="#7f7f7f" stroke-miterlimit="10" stroke-width=".39677" d="M411.70353.59375V18.9414"/></g><g clip-path="url(#d)"><path fill="none" stroke="#7f7f7f" stroke-miterlimit="10" stroke-width=".39677" d="M448.39104.59375V18.9414"/></g><g clip-path="url(#e)"><path fill="none" stroke="#7f7f7f" stroke-miterlimit="10" stroke-width=".39677" d="M485.08246.59375V18.9414"/></g><g clip-path="url(#f)"><path fill="none" stroke="#7f7f7f" stroke-miterlimit="10" stroke-width=".39677" d="M521.77388.59375V18.9414"/></g><path fill="none" stroke="#000" stroke-miterlimit="10" stroke-width=".79354" d="M8.10573 9.76562h544.20722"/><path d="M556.46094 9.76563c-.50782-.10547-2.7461-.70313-4.14844-1.35547V11.125c1.40234-.65234 3.64063-1.25 4.14844-1.35937m0 0"/><g clip-path="url(#g)"><path fill="none" stroke="#000" stroke-miterlimit="10" stroke-width=".79354" d="M556.46094 9.76562c-.50781-.10546-2.7461-.70312-4.14844-1.35546V11.125c1.40234-.65234 3.64063-1.25 4.14844-1.35938Zm0 0"/></g><path fill="none" stroke="#000" stroke-miterlimit="10" stroke-opacity=".5" stroke-width=".39677" d="M11.7737 6.09765v7.33985m3.67187-7.33985v7.33985m3.66797-7.33985v7.33985m3.66797-7.33985v7.33985m3.66797-7.33985v7.33985m3.67188-7.33985v7.33985m3.66797-7.33985v7.33985m3.66797-7.33985v7.33985m3.66797-7.33985v7.33985m7.33985-7.33985v7.33985m3.66797-7.33985v7.33985m3.66797-7.33985v7.33985m3.67187-7.33985v7.33985m3.66797-7.33985v7.33985m3.66797-7.33985v7.33985m3.67188-7.33985v7.33985m3.66797-7.33985v7.33985m3.66797-7.33985v7.33985m7.33985-7.33985v7.33985m3.66796-7.33985v7.33985m3.66798-7.33985v7.33985m3.67187-7.33985v7.33985m3.66797-7.33985v7.33985m3.66798-7.33985v7.33985m3.66796-7.33985v7.33985m3.67188-7.33985v7.33985m3.66796-7.33985v7.33985m7.33986-7.33985v7.33985m3.66797-7.33985v7.33985m3.66797-7.33985v7.33985m3.66797-7.33985v7.33985m3.67187-7.33985v7.33985m3.66797-7.33985v7.33985m3.66797-7.33985v7.33985m3.66797-7.33985v7.33985m3.67188-7.33985v7.33985m7.33594-7.33985v7.33985m3.67187-7.33985v7.33985m3.66797-7.33985v7.33985m3.66797-7.33985v7.33985m3.67188-7.33985v7.33985m3.66797-7.33985v7.33985m3.66797-7.33985v7.33985m3.66797-7.33985v7.33985m3.67188-7.33985v7.33985m7.33594-7.33985v7.33985m3.66797-7.33985v7.33985m3.67187-7.33985v7.33985m3.66797-7.33985v7.33985m3.66797-7.33985v7.33985m3.67188-7.33985v7.33985m3.66797-7.33985v7.33985m3.66797-7.33985v7.33985m3.66797-7.33985v7.33985m7.33984-7.33985v7.33985m3.66798-7.33985v7.33985m3.66797-7.33985v7.33985m3.67187-7.33985v7.33985m3.66798-7.33985v7.33985m3.66796-7.33985v7.33985m3.67188-7.33985v7.33985m3.66797-7.33985v7.33985m3.66797-7.33985v7.33985m7.33985-7.33985v7.33985m3.66797-7.33985v7.33985m3.66797-7.33985v7.33985m3.67187-7.33985v7.33985m3.66797-7.33985v7.33985m3.66797-7.33985v7.33985m3.66797-7.33985v7.33985m3.67188-7.33985v7.33985m3.66797-7.33985v7.33985m7.33594-7.33985v7.33985m3.67188-7.33985v7.33985m3.66797-7.33985v7.33985m3.66797-7.33985v7.33985m3.67187-7.33985v7.33985m3.66797-7.33985v7.33985m3.66797-7.33985v7.33985m3.66797-7.33985v7.33985m3.67188-7.33985v7.33985m7.33594-7.33985v7.33985m3.67187-7.33985v7.33985m3.66797-7.33985v7.33985m3.66797-7.33985v7.33985m3.66797-7.33985v7.33985m3.67188-7.33985v7.33985m3.66798-7.33985v7.33985m3.66796-7.33985v7.33985m3.67188-7.33985v7.33985m7.33594-7.33985v7.33985m3.66797-7.33985v7.33985m3.67187-7.33985v7.33985m3.66798-7.33985v7.33985m3.66796-7.33985v7.33985m3.66797-7.33985v7.33985m3.67188-7.33985v7.33985m3.66797-7.33985v7.33985m3.66797-7.33985v7.33985m7.33985-7.33985v7.33985m3.66797-7.33985v7.33985m3.66797-7.33985v7.33985m3.67187-7.33985v7.33985m3.66797-7.33985v7.33985m3.66797-7.33985v7.33985m3.67188-7.33985v7.33985m3.66797-7.33985v7.33985m3.66797-7.33985v7.33985m7.33985-7.33985v7.33985m3.66797-7.33985v7.33985m3.66797-7.33985v7.33985m3.67187-7.33985v7.33985m3.66797-7.33985v7.33985m3.66797-7.33985v7.33985m3.66797-7.33985v7.33985m3.67188-7.33985v7.33985m3.66797-7.33985v7.33985m7.33594-7.33985v7.33985m3.67187-7.33985v7.33985m3.66798-7.33985v7.33985m3.66797-7.33985v7.33985m3.67187-7.33985v7.33985m3.66798-7.33985v7.33985m3.66796-7.33985v7.33985m3.66797-7.33985v7.33985m3.67187-7.33985v7.33985m7.33595-7.33985v7.33985m3.67187-7.33985v7.33985m3.66798-7.33985v7.33985m3.66796-7.33985v7.33985m3.66797-7.33985v7.33985m3.67188-7.33985v7.33985m3.66797-7.33985v7.33985"/><path fill="none" stroke="#007f7f" stroke-miterlimit="10" stroke-width="1.19033" d="M158.53547 2.42968v14.6758"/><use xlink:href="#h" x="125.71341" y="32.2391" fill="#007f7f"/><use xlink:href="#h" x="131.38724" y="32.2391" fill="#007f7f"/><use xlink:href="#h" x="137.06107" y="32.2391" fill="#007f7f"/><use xlink:href="#h" x="142.73491" y="32.2391" fill="#007f7f"/><use xlink:href="#h" x="148.40874" y="32.2391" fill="#007f7f"/><use xlink:href="#h" x="154.08257" y="32.2391" fill="#007f7f"/><use xlink:href="#h" x="159.75641" y="32.2391" fill="#007f7f"/><use xlink:href="#h" x="165.43024" y="32.2391" fill="#007f7f"/><use xlink:href="#h" x="171.10407" y="32.2391" fill="#007f7f"/><use xlink:href="#h" x="176.77791" y="32.2391" fill="#007f7f"/><use xlink:href="#h" x="182.45174" y="32.2391" fill="#007f7f"/><use xlink:href="#h" x="188.12557" y="32.2391" fill="#007f7f"/><path fill="none" stroke="#007f7f" stroke-miterlimit="10" stroke-width="1.19033" d="M264.94176.59375V18.9414"/><use xlink:href="#h" x="232.1144" y="32.2391" fill="#007f7f"/><use xlink:href="#h" x="237.78823" y="32.2391" fill="#007f7f"/><use xlink:href="#h" x="243.46206" y="32.2391" fill="#007f7f"/><use xlink:href="#h" x="249.1359" y="32.2391" fill="#007f7f"/><use xlink:href="#h" x="254.80973" y="32.2391" fill="#007f7f"/><use xlink:href="#h" x="260.48356" y="32.2391" fill="#007f7f"/><use xlink:href="#h" x="266.1574" y="32.2391" fill="#007f7f"/><use xlink:href="#h" x="271.83123" y="32.2391" fill="#007f7f"/><use xlink:href="#h" x="277.50506" y="32.2391" fill="#007f7f"/><use xlink:href="#h" x="283.1789" y="32.2391" fill="#007f7f"/><use xlink:href="#h" x="288.85273" y="32.2391" fill="#007f7f"/><use xlink:href="#h" x="294.52656" y="32.2391" fill="#007f7f"/></svg>