<svg xmlns="http://www.w3.org/2000/svg" width="602.76pt" height="18.115pt" viewBox="0 0 602.76 18.115"><defs><clipPath id="a"><path d="M14 0h574.60938v17.26953H14Zm0 0"/></clipPath><clipPath id="b"><path d="M13.92188 0h574.6875v17.26953H13.92188Zm0 0"/></clipPath><clipPath id="c"><path d="M14 0h144v17.26953H14Zm0 0"/></clipPath><clipPath id="d"><path d="M13.92188 0H158v17.26953H13.92188Zm0 0"/></clipPath><clipPath id="e"><path d="M157 0h145v17.26953H157Zm0 0"/></clipPath><clipPath id="f"><path d="M301 0h144v17.26953H301Zm0 0"/></clipPath><clipPath id="g"><path d="M301 0h145v17.26953H301Zm0 0"/></clipPath><clipPath id="h"><path d="M13.92188 0H15v17.26953h-1.07812Zm0 0"/></clipPath><clipPath id="i"><path d="M157 0h1v17.26953h-1Zm0 0"/></clipPath><clipPath id="j"><path d="M301 0h1v17.26953h-1Zm0 0"/></clipPath><clipPath id="k"><path d="M444 0h2v17.26953h-2Zm0 0"/></clipPath></defs><g clip-path="url(#a)"><path fill="#FFF" d="M14.11328 17.08203V.19141h574.3125v16.89062Zm0 0"/></g><g clip-path="url(#b)"><path fill="none" stroke="#000" stroke-miterlimit="10" stroke-width=".37994" d="M14.11328 17.08203V.19141h574.31247v16.89062Zm0 0"/></g><g clip-path="url(#c)"><path fill="#7FD6F7" d="M14.11328 17.08203V.19141h143.57813v16.89062Zm0 0"/></g><g clip-path="url(#d)"><path fill="none" stroke="#000" stroke-miterlimit="10" stroke-width=".37994" d="M14.11328 17.08203V.19141H157.6914v16.89062Zm0 0"/></g><g clip-path="url(#e)"><path fill="#7FD6F7" stroke="#000" stroke-miterlimit="10" stroke-width=".37994" d="M157.6914 17.08203V.19141h143.5781v16.89062Zm0 0"/></g><g clip-path="url(#f)"><path fill="#7FD6F7" d="M301.26953 17.08203V.19141h143.57813v16.89062Zm0 0"/></g><g clip-path="url(#g)"><path fill="none" stroke="#000" stroke-miterlimit="10" stroke-width=".37994" d="M301.26951 17.08203V.19141h143.57812v16.89062Zm0 0"/></g><g clip-path="url(#h)"><path fill="none" stroke="#000" stroke-miterlimit="10" stroke-width=".37994" d="M14.11328 17.08203V.19141"/></g><g clip-path="url(#i)"><path fill="none" stroke="#000" stroke-miterlimit="10" stroke-width=".37994" d="M157.6914 17.08203V.19141"/></g><g clip-path="url(#j)"><path fill="none" stroke="#000" stroke-miterlimit="10" stroke-width=".37994" d="M301.26951 17.08203V.19141"/></g><g clip-path="url(#k)"><path fill="none" stroke="#000" stroke-miterlimit="10" stroke-width=".37994" d="M444.84763 17.08203V.19141"/></g></svg>