<svg xmlns="http://www.w3.org/2000/svg" width="442.604pt" height="18.824pt" viewBox="0 0 442.604 18.824"><defs><clipPath id="a"><path d="M2 0h438.35938v18.64844H2Zm0 0"/></clipPath><clipPath id="b"><path d="M1.85547 0h438.5039v18.64844H1.85548Zm0 0"/></clipPath><clipPath id="c"><path d="M2 0h88v18.64844H2Zm0 0"/></clipPath><clipPath id="d"><path d="M1.85547 0H90v18.64844H1.85547Zm0 0"/></clipPath><clipPath id="e"><path d="M89 0h89v18.64844H89Zm0 0"/></clipPath><clipPath id="f"><path d="M177 0h88v18.64844h-88Zm0 0"/></clipPath><clipPath id="g"><path d="M177 0h89v18.64844h-89Zm0 0"/></clipPath><clipPath id="h"><path d="M1.85547 0H3v18.64844H1.85547Zm0 0"/></clipPath><clipPath id="i"><path d="M89 0h1v18.64844h-1Zm0 0"/></clipPath><clipPath id="j"><path d="M177 0h1v18.64844h-1Zm0 0"/></clipPath><clipPath id="k"><path d="M264 0h2v18.64844h-2Zm0 0"/></clipPath><clipPath id="l"><path d="M352 0h1v18.64844h-1Zm0 0"/></clipPath></defs><g clip-path="url(#a)"><path fill="#fff" d="M2.05078 18.45313V.19921h438.11328v18.2539Zm0 0"/></g><g clip-path="url(#b)"><path fill="none" stroke="#000" stroke-miterlimit="10" stroke-width=".39481" d="M2.05078 18.45313V.19922h438.11335v18.2539Zm0 0"/></g><g clip-path="url(#c)"><path fill="#7fd6f7" d="M2.05078 18.45313V.19921h87.6211v18.2539Zm0 0"/></g><g clip-path="url(#d)"><path fill="none" stroke="#000" stroke-miterlimit="10" stroke-width=".39481" d="M2.05078 18.45313V.19922h87.6211v18.2539Zm0 0"/></g><g clip-path="url(#e)"><path fill="#7fd6f7" stroke="#000" stroke-miterlimit="10" stroke-width=".39481" d="M89.67189 18.45313V.19922h87.62501v18.2539Zm0 0"/></g><g clip-path="url(#f)"><path fill="#7fd6f7" d="M177.29688 18.45313V.19921h87.62109v18.2539Zm0 0"/></g><g clip-path="url(#g)"><path fill="none" stroke="#000" stroke-miterlimit="10" stroke-width=".39481" d="M177.2969 18.45313V.19922h87.62111v18.2539Zm0 0"/></g><g clip-path="url(#h)"><path fill="none" stroke="#000" stroke-miterlimit="10" stroke-width=".39481" d="M2.05078 18.45313V.19922"/></g><g clip-path="url(#i)"><path fill="none" stroke="#000" stroke-miterlimit="10" stroke-width=".39481" d="M89.67189 18.45313V.19922"/></g><g clip-path="url(#j)"><path fill="none" stroke="#000" stroke-miterlimit="10" stroke-width=".39481" d="M177.2969 18.45313V.19922"/></g><g clip-path="url(#k)"><path fill="none" stroke="#000" stroke-miterlimit="10" stroke-width=".39481" d="M264.91801 18.45313V.19922"/></g><g clip-path="url(#l)"><path fill="none" stroke="#000" stroke-miterlimit="10" stroke-width=".39481" d="M352.54302 18.45313V.19922"/></g></svg>