<svg xmlns="http://www.w3.org/2000/svg" xmlns:xlink="http://www.w3.org/1999/xlink" width="359.791pt" height="82.587pt" viewBox="0 0 359.791 82.587"><defs><path id="b" d="M.76563-6.21875C.76563-2.5 1.85938.21875 4.9375.21875S9.125-2.5 9.125-6.21875c0-3.73437-1.10937-6.45312-4.1875-6.45312S.76563-9.95312.76563-6.21875m1.89062 0c0-3.04687.51563-5.79687 2.28125-5.79687 1.76563 0 2.28125 2.75 2.28125 5.79687 0 3.03125-.51562 5.78125-2.28125 5.78125-1.76562 0-2.28125-2.75-2.28125-5.78125m0 0"/><path id="c" d="M2.01563 0h6.14062v-.53125L6.57813-.67187c-.39063-.04688-.60938-.1875-.60938-.92188v-10.98437l-.09375-.09375-3.85937.65625v.45312l1.75.21875c.3125.04688.4375.1875.4375.71875v9.03125c0 .73438-.17188.875-.60938.92188l-1.57812.14062Zm0 0"/><path id="d" d="M.5-.17187.6875 0h7.71875l.64063-2.45312-.51563-.10938C8.125-1.54687 7.75-1.40625 7-1.40625H2.23438C2.53125-2.375 3.64063-3.70312 5.375-4.95312c1.78125-1.3125 3.17188-2.14063 3.17188-4.23438 0-2.59375-1.71875-3.48437-3.6875-3.48437-2.5625 0-3.875 1.54687-3.875 2.51562 0 .64063.71875.9375 1.03125.9375.34375 0 .46875-.20312.54687-.51562C2.85938-11 3.59375-12.01562 4.73438-12.01562c1.4375 0 1.84375 1.1875 1.84375 2.5625 0 2-1 3.125-2.625 4.5625C1.64063-2.89062.85938-1.625.5-.17187m0 0"/><path id="e" d="M.5-1.90625c0 .79688 1.28125 2.125 3.92188 2.125 2.70312 0 4.40625-1.375 4.40625-3.75 0-2.5-2.14063-3.23437-3.17188-3.32812v-.07813c1-.15625 2.60938-.92187 2.60938-2.76562 0-2.0625-1.60938-2.96875-3.60938-2.96875-2.45312 0-3.67187 1.42187-3.67187 2.21875 0 .57812.65625.89062.92187.89062.23438 0 .375-.14062.45313-.375.42187-1.26562 1.10937-2.07812 2.15625-2.07812 1.46875 0 1.84375 1.28125 1.84375 2.34375 0 1.10937-.39063 2.51562-1.98438 2.51562-.89062 0-1.40625-.1875-1.625-.1875-.23437 0-.32812.1875-.32812.51563 0 .32812.09375.51562.32812.51562.21875 0 .73438-.17187 1.625-.17187 1.59375 0 2.48438 1.42187 2.48438 3.04687 0 2.23438-1.09375 3-2.42188 3-1.21875 0-2.03125-.90625-2.39062-1.96875-.125-.34375-.29688-.53125-.5625-.53125C1.15625-2.9375.5-2.57812.5-1.90625m0 0"/><path id="f" d="m.35938-3.73437.15625.40625h5.07812v1.90625c0 .625-.20312.73437-.65625.76562l-1.1875.125V0h4.92188v-.53125l-.84375-.10937c-.4375-.04688-.54688-.15626-.54688-.78125v-1.90625H9.1875v-.875H7.28125v-8.25h-1.375C4.15625-9.875 2.0625-6.64062.35938-3.73437m1.34375-.46875c1.10937-2.01563 2.45312-4.1875 3.89062-6.4375v6.4375Zm0 0"/><path id="g" d="M.75-1.90625c0 .85938 1.3125 2.125 3.73438 2.125C7.54688.21875 8.9375-1.64062 8.9375-4c0-2.625-1.625-3.95312-3.84375-3.95312-1.03125 0-2.15625.45312-2.75 1L2.75-10.48437c.0625-.48438.1875-.54688.54688-.54688H7.9375l.45313-1.26562-.10938-.15625H2.0625l-.17187.17187L1.5-6.04687l.46875.23437C2.73438-6.70312 3.48438-7.14062 4.5-7.14062c1.1875 0 2.5.875 2.5 3.32812 0 1.92188-.78125 3.375-2.40625 3.375-1.29687 0-1.95312-.9375-2.32812-2-.10938-.28125-.28125-.45312-.54688-.45312-.375 0-.96875.375-.96875.98437m0 0"/><path id="h" d="M.59375-5.03125c0 3.0625 1.76563 5.3125 5.46875 5.3125C9.35938.28125 10.96875-1.40625 12-3.25c1-1.82812 1.1875-3.73437 1.1875-4.46875 0-3.82812-2.32812-5.46875-5.39062-5.46875-2.98438 0-4.82813 1.64063-5.90625 3.4375C.85938-8.03125.59375-6.26562.59375-5.03125m1.96875.75c0-1.5625.29688-3.3125 1.14063-5.125.85937-1.75 2.1875-3.125 4.17187-3.125 2.03125 0 3.34375 1.20313 3.34375 3.84375 0 1.07813-.09375 2.59375-.875 4.57813-.76562 2-2.03125 3.73437-4.45312 3.73437-2.03125 0-3.32813-1.3125-3.32813-3.90625m0 0"/><path id="i" d="M-.35937 0h4.20312l.125-.53125L2.9375-.64062c-.23437-.01563-.34375-.125-.34375-.3125 0-.09376.04688-.23438.10938-.375.60937-1.1875 1.20312-2.40625 1.89062-3.65625h4.1875L9.23438-1.125s-.09375.45313-.48438.48438l-1 .10937L7.65625 0h4.57813l.125-.53125-.71875-.0625c-.57813-.0625-.65625-.3125-.75-1.09375l-1.375-11.20312H8.1875l-3.125 5.5c-.95312 1.65625-2.5 4.4375-3.20312 5.54687C1.26563-.875.95313-.67187.375-.60937l-.60937.07812Zm5.34375-5.6875 3.03125-5.46875.67187 5.46875Zm0 0"/><clipPath id="a"><path d="M341 28h17.79297v26H341Zm0 0"/></clipPath></defs><path fill="none" stroke="#000" stroke-miterlimit="10" stroke-width=".79304" d="M14.28906 41.17578h337.96481"/><path d="M356.39844 41.17578c-.51172-.10547-2.7461-.70312-4.14453-1.35547v2.71485c1.39843-.65235 3.6328-1.25391 4.14453-1.35938m0 0"/><g clip-path="url(#a)"><path fill="none" stroke="#000" stroke-miterlimit="10" stroke-width=".79304" d="M356.39844 41.17578c-.51172-.10547-2.7461-.70312-4.14453-1.35547v2.71485c1.39843-.65235 3.6328-1.25391 4.14453-1.35938Zm0 0"/></g><path fill="none" stroke="#000" stroke-miterlimit="10" stroke-width=".79304" d="M14.28906 27.07422v28.20703"/><use xlink:href="#b" x="9.35235" y="75.35019"/><path fill="none" stroke="#000" stroke-miterlimit="10" stroke-width=".39652" d="M19.92969 35.53516V46.8203m5.64062-11.28514V46.8203m5.64063-11.28514V46.8203m5.64062-11.28514V46.8203m5.64454-11.28514V46.8203m5.64062-11.28514V46.8203m5.64062-11.28514V46.8203m5.64062-11.28514V46.8203m5.64063-11.28514V46.8203"/><path fill="none" stroke="#000" stroke-miterlimit="10" stroke-width=".79304" d="M70.69921 27.07422v28.20703"/><use xlink:href="#c" x="65.76325" y="75.35019"/><path fill="none" stroke="#000" stroke-miterlimit="10" stroke-width=".39652" d="M76.33984 35.53516V46.8203m5.64062-11.28514V46.8203m5.64063-11.28514V46.8203m5.64453-11.28514V46.8203m5.64062-11.28514V46.8203m5.64063-11.28514V46.8203m5.64063-11.28514V46.8203m5.64062-11.28514V46.8203m5.64062-11.28514V46.8203"/><path fill="none" stroke="#000" stroke-miterlimit="10" stroke-width=".79304" d="M127.11327 27.07422v28.20703"/><use xlink:href="#d" x="122.17316" y="75.35019"/><path fill="none" stroke="#000" stroke-miterlimit="10" stroke-width=".39652" d="M132.7539 35.53516V46.8203m5.64062-11.28514V46.8203m5.64062-11.28514V46.8203m5.64063-11.28514V46.8203m5.64063-11.28514V46.8203m5.64062-11.28514V46.8203m5.64062-11.28514V46.8203m5.64063-11.28514V46.8203m5.64453-11.28514V46.8203"/><path fill="none" stroke="#000" stroke-miterlimit="10" stroke-width=".79304" d="M183.52342 27.07422v28.20703"/><use xlink:href="#e" x="178.58406" y="75.35019"/><path fill="none" stroke="#000" stroke-miterlimit="10" stroke-width=".39652" d="M189.16405 35.53516V46.8203m5.64062-11.28514V46.8203m5.64063-11.28514V46.8203m5.64062-11.28514V46.8203m5.64453-11.28514V46.8203m5.64062-11.28514V46.8203m5.64063-11.28514V46.8203m5.64062-11.28514V46.8203m5.64063-11.28514V46.8203"/><path fill="none" stroke="#000" stroke-miterlimit="10" stroke-width=".79304" d="M239.93357 27.07422v28.20703"/><use xlink:href="#f" x="234.99496" y="75.13228"/><path fill="none" stroke="#000" stroke-miterlimit="10" stroke-width=".39652" d="M245.5742 35.53516V46.8203m5.64453-11.28514V46.8203m5.64062-11.28514V46.8203m5.64063-11.28514V46.8203m5.64062-11.28514V46.8203m5.64063-11.28514V46.8203m5.64062-11.28514V46.8203m5.64062-11.28514V46.8203m5.64063-11.28514V46.8203"/><path fill="none" stroke="#000" stroke-miterlimit="10" stroke-width=".79304" d="M296.34763 27.07422v28.20703"/><use xlink:href="#g" x="291.40586" y="75.13228"/><path fill="none" stroke="#000" stroke-miterlimit="10" stroke-width=".39652" d="M301.98825 35.53516V46.8203m5.64063-11.28514V46.8203m5.64062-11.28514V46.8203m5.64063-11.28514V46.8203m5.64062-11.28514V46.8203m5.64063-11.28514V46.8203m5.64452-11.28514V46.8203m5.64063-11.28514V46.8203m5.64063-11.28514V46.8203"/><use xlink:href="#h" x="7.39912" y="19.79302"/><path fill="none" stroke="#007F7F" stroke-miterlimit="10" stroke-width="1.18958" d="M245.5781 29.89453v22.5664"/><use xlink:href="#i" x="239.17904" y="22.89053" fill="#007F7F"/></svg>