<svg xmlns="http://www.w3.org/2000/svg" xmlns:xlink="http://www.w3.org/1999/xlink" width="641.292pt" height="84.041pt" viewBox="0 0 641.292 84.041"><defs><path id="b" d="M.5-.17187.6875 0h7.67188l.625-2.4375-.51563-.10937c-.39062 1.01562-.76562 1.14062-1.51562 1.14062H2.21875c.29688-.95312 1.40625-2.28125 3.125-3.51562 1.76563-1.29688 3.14063-2.125 3.14063-4.20313 0-2.57812-1.70313-3.46875-3.65625-3.46875-2.54688 0-3.84375 1.54688-3.84375 2.5 0 .64063.70312.9375 1.03125.9375.32812 0 .45312-.20312.53125-.51562.29687-1.26563 1.01562-2.26563 2.15625-2.26563 1.42187 0 1.84375 1.17188 1.84375 2.54688 0 1.98437-1.01563 3.10937-2.625 4.53125C1.64063-2.875.84375-1.60937.5-.17187m0 0"/><path id="c" d="M.5-1.89062C.5-1.10937 1.76563.21875 4.39063.21875c2.6875 0 4.375-1.35937 4.375-3.71875 0-2.48437-2.125-3.21875-3.15625-3.3125v-.07812c1.01562-.15625 2.60937-.90625 2.60937-2.75 0-2.04688-1.59375-2.95313-3.59375-2.95313-2.4375 0-3.64062 1.42188-3.64062 2.20313 0 .57812.65625.89062.90625.89062.23437 0 .375-.14062.45312-.375.42188-1.25 1.10938-2.0625 2.15625-2.0625 1.45313 0 1.82813 1.28125 1.82813 2.32813 0 1.09375-.39063 2.5-1.96875 2.5-.89063 0-1.40625-.1875-1.625-.1875-.23438 0-.32813.1875-.32813.51562 0 .3125.09375.51563.32813.51563.21875 0 .73437-.17188 1.625-.17188 1.57812 0 2.45312 1.40625 2.45312 3.03125 0 2.20313-1.07812 2.96875-2.40625 2.96875-1.21875 0-2.01562-.90625-2.375-1.95312-.125-.34375-.29687-.53125-.54687-.53125C1.14063-2.92187.5-2.5625.5-1.89062m0 0"/><path id="d" d="M.8125-5.71875c0 4 1.45313 5.9375 4.23438 5.9375 2.73437 0 4.1875-1.65625 4.1875-4.17187s-1.53125-3.875-3.51563-3.875c-1.46875 0-2.54687.98437-3.04687 1.60937C2.70313-10.3125 3.82813-11.9375 5.5-11.9375c.84375 0 1.45313.70313 1.73438 1.76563.0625.21875.1875.40625.46875.40625.42187 0 .98437-.34375.98437-.85938 0-.75-.90625-1.96875-3.125-1.96875-2.9375 0-4.75 2.26563-4.75 6.875M2.67188-4.375c0-1.125.85937-2.5 2.40625-2.5 1.17187 0 2.3125 1.0625 2.3125 3.1875 0 1.95313-.75 3.25-2.3125 3.25-1.60938 0-2.40625-1.70312-2.40625-3.9375m0 0"/><path id="e" d="m.95313 2.26563.34375.35937C2.21875 1.75 3.5625.51563 3.5625-.95312c0-.98438-.53125-1.67188-1.23437-1.67188-.57813 0-.92188.45313-.92188.9375 0 .65625.60938 1.01563.60938 1.8125 0 .76563-.48438 1.48438-1.0625 2.14063m0 0"/><path id="f" d="M2.01563 0h6.07812v-.53125L6.54688-.67187c-.40625-.03126-.60938-.17188-.60938-.90625v-10.90625l-.10937-.10938-3.8125.65625v.45313l1.73437.21875c.3125.03125.42188.17187.42188.70312v8.98438c0 .73437-.17188.875-.60938.90625l-1.54687.14062Zm0 0"/><path id="g" d="M.67188-8.40625c0 2.5 1.53125 3.85938 3.53125 3.85938 1.45312 0 2.53125-.98438 3.03125-1.59375C7.21875-2.0625 6.09375-.4375 4.40625-.4375c-.84375 0-1.45312-.70312-1.73437-1.76562-.04688-.21875-.1875-.39063-.46875-.39063-.40625 0-.98438.32813-.98438.84375 0 .75.90625 1.96875 3.14063 1.96875 2.9375 0 4.75-2.26562 4.75-6.875 0-4-1.46875-5.9375-4.25-5.9375-2.73438 0-4.1875 1.65625-4.1875 4.1875m1.84375-.28125c0-1.95312.75-3.25 2.3125-3.25 1.60937 0 2.40625 1.71875 2.40625 3.9375 0 1.125-.84375 2.5-2.40625 2.5-1.15625 0-2.3125-1.0625-2.3125-3.1875m0 0"/><clipPath id="a"><path d="M619 30h18.32422v26H619Zm0 0"/></clipPath></defs><path fill="none" stroke="#000" stroke-miterlimit="10" stroke-width=".78802" d="M14.73828 42.75h616.09397"/><path d="M634.94922 42.75c-.50781-.10547-2.73047-.70312-4.11719-1.35156v2.69922c1.38672-.64844 3.60938-1.2461 4.11719-1.34766m0 0"/><g clip-path="url(#a)"><path fill="none" stroke="#000" stroke-miterlimit="10" stroke-width=".78802" d="M634.94922 42.75c-.50781-.10547-2.73047-.70313-4.11719-1.35156v2.69922c1.38672-.64844 3.60938-1.2461 4.11719-1.34766Zm0 0"/></g><path fill="none" stroke="#000" stroke-miterlimit="10" stroke-width=".78802" d="M14.73828 28.73437v28.02735"/><path fill="none" stroke="#000" stroke-miterlimit="10" stroke-width=".394" d="M20.34375 37.14062v11.21485m5.60547-11.21485v11.21485m5.60548-11.21485v11.21485m5.60546-11.21485v11.21485m5.60547-11.21485v11.21485m5.60547-11.21485v11.21485m5.60548-11.21485v11.21485m5.60547-11.21485v11.21485m5.60547-11.21485v11.21485"/><path fill="none" stroke="#000" stroke-miterlimit="10" stroke-width=".78802" d="M70.79299 28.73437v28.02735"/><path fill="none" stroke="#000" stroke-miterlimit="10" stroke-width=".394" d="M76.39846 37.14062v11.21485m5.60547-11.21485v11.21485m5.60547-11.21485v11.21485m5.60547-11.21485v11.21485m5.60547-11.21485v11.21485m5.60547-11.21485v11.21485m5.60547-11.21485v11.21485m5.60547-11.21485v11.21485m5.60547-11.21485v11.21485"/><path fill="none" stroke="#000" stroke-miterlimit="10" stroke-width=".78802" d="M126.8477 28.73437v28.02735"/><path fill="none" stroke="#000" stroke-miterlimit="10" stroke-width=".394" d="M132.45317 37.14062v11.21485m5.60547-11.21485v11.21485m5.60546-11.21485v11.21485m5.60548-11.21485v11.21485m5.60547-11.21485v11.21485m5.60547-11.21485v11.21485m5.60548-11.21485v11.21485m5.60156-11.21485v11.21485m5.60547-11.21485v11.21485"/><path fill="none" stroke="#000" stroke-miterlimit="10" stroke-width=".78802" d="M182.9024 28.73437v28.02735"/><path fill="none" stroke="#000" stroke-miterlimit="10" stroke-width=".394" d="M188.50397 37.14062v11.21485m5.60547-11.21485v11.21485m5.60547-11.21485v11.21485m5.60547-11.21485v11.21485m5.60547-11.21485v11.21485m5.60547-11.21485v11.21485m5.60548-11.21485v11.21485m5.60546-11.21485v11.21485m5.60547-11.21485v11.21485"/><path fill="none" stroke="#000" stroke-miterlimit="10" stroke-width=".78802" d="M238.9532 28.73437v28.02735"/><path fill="none" stroke="#000" stroke-miterlimit="10" stroke-width=".394" d="M244.55868 37.14062v11.21485m5.60547-11.21485v11.21485m5.60547-11.21485v11.21485m5.60547-11.21485v11.21485m5.60547-11.21485v11.21485m5.60547-11.21485v11.21485m5.60547-11.21485v11.21485m5.60547-11.21485v11.21485m5.60547-11.21485v11.21485"/><path fill="none" stroke="#000" stroke-miterlimit="10" stroke-width=".78802" d="M295.00791 28.73437v28.02735"/><path fill="none" stroke="#000" stroke-miterlimit="10" stroke-width=".394" d="M300.61338 37.14062v11.21485m5.60547-11.21485v11.21485m5.60547-11.21485v11.21485m5.60548-11.21485v11.21485m5.60547-11.21485v11.21485m5.60547-11.21485v11.21485m5.60546-11.21485v11.21485m5.60548-11.21485v11.21485m5.60547-11.21485v11.21485"/><path fill="none" stroke="#000" stroke-miterlimit="10" stroke-width=".78802" d="M351.06262 28.73437v28.02735"/><path fill="none" stroke="#000" stroke-miterlimit="10" stroke-width=".394" d="M356.66809 37.14062v11.21485m5.60547-11.21485v11.21485m5.60547-11.21485v11.21485m5.60547-11.21485v11.21485m5.60547-11.21485v11.21485m5.60547-11.21485v11.21485m5.60548-11.21485v11.21485m5.60547-11.21485v11.21485m5.60547-11.21485v11.21485"/><path fill="none" stroke="#000" stroke-miterlimit="10" stroke-width=".78802" d="M407.11733 28.73437v28.02735"/><path fill="none" stroke="#000" stroke-miterlimit="10" stroke-width=".394" d="M412.7228 37.14062v11.21485m5.60547-11.21485v11.21485m5.60547-11.21485v11.21485m5.60547-11.21485v11.21485m5.60547-11.21485v11.21485m5.60547-11.21485v11.21485m5.60547-11.21485v11.21485m5.60548-11.21485v11.21485m5.60546-11.21485v11.21485"/><path fill="none" stroke="#000" stroke-miterlimit="10" stroke-width=".78802" d="M463.17204 28.73437v28.02735"/><path fill="none" stroke="#000" stroke-miterlimit="10" stroke-width=".394" d="M468.7775 37.14062v11.21485m5.60548-11.21485v11.21485m5.60156-11.21485v11.21485m5.60938-11.21485v11.21485m5.60547-11.21485v11.21485m5.60156-11.21485v11.21485m5.60547-11.21485v11.21485m5.60548-11.21485v11.21485m5.60546-11.21485v11.21485"/><path fill="none" stroke="#000" stroke-miterlimit="10" stroke-width=".78802" d="M519.22284 28.73437v28.02735"/><path fill="none" stroke="#000" stroke-miterlimit="10" stroke-width=".394" d="M524.8283 37.14062v11.21485m5.60548-11.21485v11.21485m5.60547-11.21485v11.21485m5.60547-11.21485v11.21485m5.60547-11.21485v11.21485m5.60547-11.21485v11.21485m5.60547-11.21485v11.21485m5.60547-11.21485v11.21485m5.60547-11.21485v11.21485"/><path fill="none" stroke="#000" stroke-miterlimit="10" stroke-width=".78802" d="M575.27754 28.73437v28.02735"/><path fill="none" stroke="#000" stroke-miterlimit="10" stroke-width=".394" d="M580.88301 37.14062v11.21485m5.60547-11.21485v11.21485m5.60548-11.21485v11.21485m5.60547-11.21485v11.21485m5.60547-11.21485v11.21485m5.60547-11.21485v11.21485m5.60547-11.21485v11.21485m5.60546-11.21485v11.21485m5.60548-11.21485v11.21485"/><use xlink:href="#b" x="9.83371" y="76.31022"/><use xlink:href="#c" x="570.36642" y="76.31022"/><path fill="none" stroke="#007F7F" stroke-miterlimit="10" stroke-width="1.18204" d="M244.55868 31.53906v22.41797"/><g fill="#007F7F"><use xlink:href="#d" x="231.19968" y="19.15443"/><use xlink:href="#e" x="241.01052" y="19.15443"/></g><use xlink:href="#f" x="248.10269" y="19.15443" fill="#007F7F"/><path fill="none" stroke="#007F7F" stroke-miterlimit="10" stroke-width="1.18204" d="M407.11733 28.73437v28.02735"/><use xlink:href="#g" x="402.20631" y="21.558" fill="#007F7F"/></svg>