<svg xmlns="http://www.w3.org/2000/svg" xmlns:xlink="http://www.w3.org/1999/xlink" width="175.315pt" height="52.581pt" viewBox="0 0 175.315 52.581"><defs><path id="a" d="M.45313-3.625c0 2.17188.64062 3.75 2.4375 3.75 1.79687 0 2.42187-1.57812 2.42187-3.75s-.625-3.76562-2.42187-3.76562S.45313-5.79687.45313-3.625m1.09375 0c0-1.78125.3125-3.375 1.34375-3.375s1.3125 1.59375 1.3125 3.375c0 1.76563-.28125 3.375-1.3125 3.375S1.54688-1.85937 1.54688-3.625m0 0"/><path id="b" d="M1.17188 0H4.75v-.3125l-.90625-.07812C3.60938-.42187 3.48438-.5 3.48438-.92187v-6.40625l-.0625-.0625L1.17188-7v.26563l1.03125.125c.17187.01562.25.09375.25.40625v5.28125c0 .42187-.10938.5-.35938.53125l-.92187.07812Zm0 0"/><path id="c" d="M.29688-.10937.42188 0h4.5l.35937-1.4375-.29687-.04687c-.23438.57812-.45313.65625-.89063.65625H1.3125c.17188-.5625.82813-1.32813 1.82813-2.0625C4.1875-3.65625 5-4.14062 5-5.35937 5-6.875 3.98438-7.39062 2.84375-7.39062c-1.48437 0-2.25.90625-2.25 1.46875 0 .375.40625.54687.59375.54687.20313 0 .26563-.125.3125-.29687C1.67188-6.42187 2.10938-7 2.78125-7c.82813 0 1.0625.6875 1.0625 1.48438 0 1.17187-.57812 1.82812-1.53125 2.65625C.96875-1.6875.51563-.95312.29688-.10937m0 0"/><path id="d" d="M.29688-1.10937c0 .46875.75 1.23437 2.29687 1.23437 1.5625 0 2.5625-.79687 2.5625-2.1875 0-1.45312-1.25-1.875-1.84375-1.9375v-.04687c.57813-.09375 1.51563-.53125 1.51563-1.60938 0-1.20312-.9375-1.73437-2.09375-1.73437-1.4375 0-2.14063.82812-2.14063 1.29687 0 .32813.375.51563.53125.51563.14063 0 .21875-.07813.26563-.21875C1.625-6.53125 2.03125-7 2.64063-7 3.5-7 3.71875-6.25 3.71875-5.64062c0 .64062-.23437 1.46875-1.15625 1.46875-.51562 0-.8125-.10938-.9375-.10938-.14062 0-.20312.10938-.20312.29688s.0625.3125.20312.3125c.125 0 .42188-.10938.9375-.10938.92188 0 1.45313.82813 1.45313 1.78125 0 1.29688-.64063 1.75-1.40625 1.75-.71875 0-1.20313-.53125-1.40625-1.15625-.0625-.20312-.17188-.3125-.32813-.3125-.1875 0-.57812.21875-.57812.60938m0 0"/><path id="e" d="m.21875-2.17187.09375.23437h2.95313v1.10938c0 .35937-.10938.42187-.375.45312l-.6875.0625V0H5.0625v-.3125L4.57813-.375C4.32813-.40625 4.25-.46875 4.25-.82812V-1.9375h1.10938v-.51562H4.25v-4.8125h-.79687C2.4375-5.76562 1.21875-3.875.21875-2.17187M1-2.45312c.65625-1.17188 1.4375-2.4375 2.26563-3.75v3.75Zm0 0"/><path id="j" d="M.39063-3.26562c0 2 1.14062 3.45312 3.54687 3.45312 2.125 0 3.17188-1.09375 3.82813-2.29687.65625-1.17188.78125-2.40625.78125-2.89063 0-2.46875-1.51563-3.54687-3.5-3.54687-1.92188 0-3.125 1.07812-3.82813 2.23437-.67187 1.10938-.82812 2.25-.82812 3.04688m1.26562.48437c0-1 .1875-2.14062.75-3.3125C2.95313-7.23437 3.8125-8.125 5.09375-8.125c1.32813 0 2.17188.79688 2.17188 2.5 0 .6875-.0625 1.6875-.5625 2.96875C6.20313-1.35937 5.375-.25 3.8125-.25 2.5-.25 1.65625-1.09375 1.65625-2.78125m0 0"/><path id="k" d="M-.23437 0h2.71875l.07812-.34375-.65625-.0625C1.75-.42187 1.6875-.5 1.6875-.60937c0-.07813.01563-.15626.0625-.25.39063-.76563.78125-1.5625 1.23438-2.35938H5.6875l.29688 2.48438s-.0625.29687-.3125.32812l-.65625.0625L4.95313 0h2.96875L8-.34375l-.45312-.04687c-.375-.03125-.4375-.20313-.5-.70313l-.875-7.25h-.875L3.28125-4.79687c-.625 1.07812-1.625 2.89062-2.07812 3.60937-.375.625-.59375.75-.95313.79688l-.40625.04687Zm3.45312-3.6875L5.1875-7.23437 5.625-3.6875Zm0 0"/><clipPath id="f"><path d="M159 23.03125h1v7.3125h-1Zm0 0"/></clipPath><clipPath id="g"><path d="M162 23.03125h2v7.3125h-2Zm0 0"/></clipPath><clipPath id="h"><path d="M166 23.03125h.17969v7.3125H166Zm0 0"/></clipPath><clipPath id="i"><path d="M156 14h18.28125v26H156Zm0 0"/></clipPath></defs><path fill="none" stroke="#000" stroke-miterlimit="10" stroke-width=".39535" d="M9.3711 17.54688v18.28124"/><use xlink:href="#a" x="6.47938" y="47.75545"/><path fill="none" stroke="#7f7f7f" stroke-miterlimit="10" stroke-width=".39535" d="M13.02734 23.03125v7.3125m3.65626-7.3125v7.3125m3.65233-7.3125v7.3125m3.65625-7.3125v7.3125m3.65625-7.3125v7.3125m3.65625-7.3125v7.3125m3.65625-7.3125v7.3125m3.65625-7.3125v7.3125m3.65625-7.3125v7.3125"/><path fill="none" stroke="#000" stroke-miterlimit="10" stroke-width=".39535" d="M45.92968 17.54688v18.28124"/><use xlink:href="#b" x="43.03905" y="47.75545"/><path fill="none" stroke="#7f7f7f" stroke-miterlimit="10" stroke-width=".39535" d="M49.58592 23.03125v7.3125m3.65625-7.3125v7.3125m3.65625-7.3125v7.3125m3.65625-7.3125v7.3125m3.65625-7.3125v7.3125m3.65625-7.3125v7.3125m3.65625-7.3125v7.3125m3.65234-7.3125v7.3125m3.65624-7.3125v7.3125"/><path fill="none" stroke="#000" stroke-miterlimit="10" stroke-width=".39535" d="M82.48826 17.54688v18.28124"/><use xlink:href="#c" x="79.59773" y="47.75545"/><path fill="none" stroke="#7f7f7f" stroke-miterlimit="10" stroke-width=".39535" d="M86.1445 23.03125v7.3125m3.65625-7.3125v7.3125m3.65625-7.3125v7.3125m3.65625-7.3125v7.3125m3.65625-7.3125v7.3125m3.65625-7.3125v7.3125m3.65625-7.3125v7.3125m3.65625-7.3125v7.3125m3.65625-7.3125v7.3125"/><path fill="none" stroke="#000" stroke-miterlimit="10" stroke-width=".39535" d="M119.05074 17.54688v18.28124"/><use xlink:href="#d" x="116.15739" y="47.75545"/><path fill="none" stroke="#7f7f7f" stroke-miterlimit="10" stroke-width=".39535" d="M122.70309 23.03125v7.3125m3.65625-7.3125v7.3125m3.65624-7.3125v7.3125m3.65625-7.3125v7.3125m3.65625-7.3125v7.3125m3.65625-7.3125v7.3125m3.65625-7.3125v7.3125m3.65625-7.3125v7.3125m3.65625-7.3125v7.3125"/><path fill="none" stroke="#000" stroke-miterlimit="10" stroke-width=".39535" d="M155.60933 17.54688v18.28124"/><use xlink:href="#e" x="152.71607" y="47.62846"/><g clip-path="url(#f)"><path fill="none" stroke="#7f7f7f" stroke-miterlimit="10" stroke-width=".39535" d="M159.26557 23.03125v7.3125"/></g><g clip-path="url(#g)"><path fill="none" stroke="#7f7f7f" stroke-miterlimit="10" stroke-width=".39535" d="M162.92182 23.03125v7.3125"/></g><g clip-path="url(#h)"><path fill="none" stroke="#7f7f7f" stroke-miterlimit="10" stroke-width=".39535" d="M166.57807 23.03125v7.3125"/></g><path fill="none" stroke="#000" stroke-miterlimit="10" stroke-width=".79071" d="M9.3711 26.6875h158.39057"/><path d="M171.89063 26.6875c-.50782-.10547-2.73438-.70312-4.12891-1.35547v2.70703c1.39453-.64843 3.6211-1.2461 4.1289-1.35156m0 0"/><g clip-path="url(#i)"><path fill="none" stroke="#000" stroke-miterlimit="10" stroke-width=".79071" d="M171.89062 26.6875c-.5078-.10547-2.73437-.70312-4.1289-1.35547v2.70703c1.39453-.64843 3.6211-1.2461 4.1289-1.35156Zm0 0"/></g><use xlink:href="#j" x="4.63607" y="12.82778"/><path fill="none" stroke="#007f7f" stroke-miterlimit="10" stroke-width="1.18607" d="M159.26557 19.375V34"/><use xlink:href="#k" x="154.86296" y="14.83578" fill="#007f7f"/></svg>