<svg xmlns="http://www.w3.org/2000/svg" xmlns:xlink="http://www.w3.org/1999/xlink" width="402.044pt" height="39.838pt" viewBox="0 0 402.044 39.838"><defs><path id="a" d="M.8125-1.25c0 .6875.32813 1.39063 1.125 1.39063 1.25 0 2.32813-1.4375 3.01563-2.64063h.01562l-.39062 1.32813c-.07813.26562-.125.48437-.125.67187 0 .40625.20312.64063.64062.64063.875 0 1.53125-.79688 1.92188-1.67188L6.75-1.70312c-.21875.40625-.73437 1.23437-1.0625 1.23437-.125 0-.17187-.09375-.17187-.21875s.03125-.25.0625-.42187L6.8125-5.75h-.98437l-.04688.14063c-.20312-.14063-.54687-.25-.85937-.25C2.14063-5.85937.8125-2.79687.8125-1.25m1.15625-.03125c0-1.28125 1.14063-4.17187 2.98438-4.17187.28125 0 .53125.10937.70312.26562-.20312.875-.625 2.03125-1.23437 2.95313-.65625 1-1.375 1.76562-1.9375 1.76562-.39063 0-.51563-.34375-.51563-.8125m0 0"/><path id="b" d="M1.01563 0h.42187l.35938-.6875c.21874.48438.79687.82813 1.46875.82813 1.35937 0 2.35937-.90625 2.92187-1.9375.59375-1.03125.76563-2.0625.76563-2.57813 0-.875-.35938-1.48437-1.23438-1.48437s-2.04687.8125-2.9375 2.40625H2.75l1.29688-5.14063L4-8.64062 1.90625-8.375l-.0625.28125.65625.0625c.1875.03125.28125.0625.28125.23438 0 .09375-.01562.1875-.04687.34375Zm1.4375-1.26562c0-.5625.25-1.35938.625-2.04688C3.59375-4.25 4.48438-5.25 5.20313-5.25c.42187 0 .60937.29688.60937.96875 0 .84375-.6875 4.01563-2.40625 4.01563-.59375 0-.95312-.42188-.95312-1m0 0"/><path id="c" d="M.39063 0h2.82812v-.45312L2.54688-.5c-.32813-.01562-.45313-.20312-.48438-.60937-.04687-.42188-.04687-.875-.04687-1.82813v-3.59375h.03125C3.48438-4.35937 4.89063-2.15625 6.28125 0H7.5625v-5.14062c0-.95313 0-1.39063.0625-1.8125.03125-.40625.14063-.57813.42188-.60938l.40625-.0625v-.4375H5.625v.4375l.67188.0625c.3125.01563.45312.20313.48437.60938.04688.42187.04688.85937.04688 1.8125v2.625h-.04688C5.54688-4.35937 4.3125-6.21875 3.10938-8.0625H.375v.4375c.82813.03125.90625.09375.90625.6875v4c0 .95313-.01562 1.40625-.0625 1.82813C1.17188-.70312 1.0625-.53125.79688-.5l-.40625.04688Zm0 0"/><path id="d" d="m.34375-5.09375.40625.0625c.1875.01563.26563.10938.26563.57813v2.84375c0 1.35937.84375 1.75 1.6875 1.75 1 0 1.60937-.53125 2.07812-.79688L4.875 0h2.42188v-.45312c-.67188-.03125-.75-.07813-.75-.5625v-4.76563l-.09375-.07812-2.35938.34375v.42187l.40625.0625c.1875.01563.28125.10938.28125.57813v2.46875c0 .20312-.01562.48437-.09375.65625-.10937.28124-.42187.54687-.92187.54687-.625 0-.98438-.35937-.98438-1.26562v-3.73438l-.09375-.07812-2.34375.34375Zm0 0"/><path id="e" d="M.375 0H3.5v-.45312l-.21875-.01563C3.03125-.5 2.875-.53125 2.875-.92187v-2.6875c0-1.01563.59375-1.35938 1.09375-1.35938.57813 0 .84375.48438.84375 1.14063v2.90625c0 .39062-.14062.42187-.39062.45312l-.23438.01563V0h3.01563v-.45312l-.25-.01563C6.71875-.5 6.59375-.53125 6.59375-.92187v-2.6875c0-1.01563.51563-1.35938 1.03125-1.35938.5625 0 .875.48438.875 1.14063v2.90625c0 .39062-.125.42187-.375.45312l-.25.01563V0h3.14063v-.45312c-.67188-.03125-.75-.07813-.75-.5625v-3.03125c0-1.07813-.59375-1.8125-1.82813-1.8125-.8125 0-1.54687.5625-2.03125.89062-.23437-.42187-.71875-.89062-1.57812-.89062-.76563 0-1.3125.40625-1.95313.8125l-.14062-.8125-2.29688.34375v.42187l.40625.0625c.1875.01563.28125.10938.28125.57813v3.4375c0 .48437-.07812.53125-.75.5625Zm0 0"/><path id="f" d="M2.26563-6.3125 2.5-5.95312l2.14063-1.20313c.42187-.23437.79687-.46875.79687-.76562 0-.29688-.32812-.71875-.60937-.71875-.23438 0-.4375.14062-.875.59375ZM.45313-2.85937c0 1.59375.70312 3 2.85937 3 1.39063 0 2.14063-.67188 2.54688-1.70313l-.42188-.23437C5.09375-1.125 4.59375-.75 3.89063-.75c-1.17188 0-1.57813-.96875-1.57813-2.1875h3.01563c.42187 0 .625-.10937.625-.48437 0-.95313-.375-2.4375-2.60938-2.4375-2.10937 0-2.89062 1.375-2.89062 3M2.3125-3.5c0-.84375.21875-1.82812.96875-1.82812.71875 0 .84375.90625.84375 1.4375 0 .32812-.09375.39062-.35937.39062Zm0 0"/><path id="g" d="M.375 0h3.51563v-.45312C3-.5 2.875-.53125 2.875-1.01562v-2.59375c0-.60938.10938-.89063.40625-.89063.1875 0 .35938.09375.60938.25.15625.10938.3125.1875.53125.1875.25 0 .48437-.125.60937-.29687.125-.1875.17188-.42188.17188-.67188 0-.5-.3125-.82812-.79688-.82812-.48437 0-.85937.32812-1.54687 1.03125l-.15625-1.03125-2.26563.34375v.42187l.40625.0625c.1875.01563.28125.10938.28125.57813v3.4375c0 .48437-.07812.53125-.75.5625Zm0 0"/><path id="h" d="M.5625-1.5625c0 .875.54688 1.70313 1.73438 1.70313.75 0 1.26562-.40625 1.67187-.67188.15625.35938.35938.67188.92188.67188.60937 0 1.32812-.20313 1.70312-.34375v-.39063c-.15625.01563-.42187 0-.59375-.0625-.14062-.04687-.375-.1875-.375-.875v-2.6875c0-.73437-.09375-1.64062-2.15625-1.64062-1.70312 0-2.78125.6875-2.78125 1.4375 0 .51562.75.73437 1.04688.73437.26562 0 .39062-.1875.5-.46875.32812-1 .70312-1.17187 1.03125-1.17187.32812 0 .65625.20312.65625.875v.625c-.40625.28125-1.375.54687-2.14063.8125C.875-2.6875.5625-2.23437.5625-1.5625M2.32813-1.75c0-.54687.20312-.8125.54687-1.01562.35938-.20313.76563-.35938 1.04688-.48438v1.6875c-.03125.625-.39063.79688-.70313.79688-.46875 0-.89062-.35938-.89062-.98438m0 0"/><path id="i" d="M.4375-5.14062h.67188v3.78125c0 1.0625.78125 1.5 1.45312 1.5.48438 0 1.20313-.21875 1.85938-.625l-.125-.375c-.17188.07812-.40625.125-.65625.125-.45313 0-.76563-.32813-.76563-1.07813v-3.32812h1.21875v-.57813H2.875V-7.1875h-.67187L1.17188-5.71875H.4375Zm0 0"/><path id="j" d="M.45313-2.85937c0 1.59375.70312 3 2.85937 3 1.39063 0 2.14063-.67188 2.54688-1.70313l-.42188-.23437C5.09375-1.125 4.59375-.75 3.89063-.75c-1.17188 0-1.57813-.96875-1.57813-2.1875h3.01563c.42187 0 .625-.10937.625-.48437 0-.95313-.375-2.4375-2.60938-2.4375-2.10937 0-2.89062 1.375-2.89062 3M2.3125-3.5c0-.84375.21875-1.82812.96875-1.82812.71875 0 .84375.90625.84375 1.4375 0 .32812-.09375.39062-.35937.39062Zm0 0"/><path id="B" d="M.45313 0H3.9375C5.75 0 8.64063-.25 8.64063-4.125c0-1.29687-.34375-2.28125-1.01563-2.95312-.6875-.65625-1.65625-.96875-3.17187-.98438h-4v.4375c.82812.03125.92187.09375.92187.6875v5.8125c0 .59375-.09375.64063-.92187.67188ZM3.25-1.04687v-6.15625c0-.28125.21875-.32813.95313-.32813 1.5625 0 2.39062 1.17188 2.39062 3.40625 0 3.07813-1.29687 3.59375-2.42187 3.59375-.73438 0-.92188-.15625-.92188-.51562m0 0"/><path id="C" d="M.375 0H3.5v-.45312l-.21875-.01563C3.03125-.5 2.875-.53125 2.875-.92187v-2.78125c0-.25.04688-.51563.14063-.67188.14062-.29687.45312-.59375.9375-.59375.59375 0 .90625.375.9375 1.07813v2.96875c0 .39062-.125.42187-.375.45312l-.25.01563V0h3.14062v-.45312c-.67187-.03125-.76562-.07813-.76562-.5625V-4.0625c-.01563-1.09375-.54688-1.79687-1.75-1.79687-.6875 0-1.25.34375-2.01563.8125l-.14062-.8125-2.29688.34375v.42187l.40625.0625c.1875.01563.28125.10938.28125.57813v3.4375c0 .48437-.07812.53125-.75.5625Zm0 0"/><path id="D" d="M.45313-2.85937c0 1.85937.90625 3 3.01562 3C5.59375.14063 6.5-1 6.5-2.85937c0-1.85938-.90625-3-3.03125-3-2.10937 0-3.01562 1.14062-3.01562 3m1.85937 0c0-1.5625.32813-2.46875 1.15625-2.46875.84375 0 1.17188.90625 1.17188 2.46875S4.3125-.39062 3.46875-.39062c-.82812 0-1.15625-.90625-1.15625-2.46875m0 0"/><path id="E" d="M.875-7.375c0 .54688.40625 1.01563 1.0625 1.01563.64063 0 1.09375-.46875 1.09375-1.01563 0-.54687-.42187-1.03125-1.09375-1.03125-.65625 0-1.0625.48438-1.0625 1.03125M.375 0h3.28125v-.45312c-.67187-.03125-.78125-.07813-.78125-.5625v-4.76563l-.0625-.07812-2.375.34375v.42187l.40625.0625c.1875.01563.28125.10938.28125.57813v3.4375c0 .48437-.07812.53125-.75.5625Zm0 0"/><path id="k" d="M.70313-3.46875c0 2.64063.65625 5.70313 3.125 5.79688v-.34375C2.98438 1.82812 1.6875.625 1.6875-3.46875c0-4.04687 1.23438-5.25 2.14063-5.4375V-9.25c-2.46875.09375-3.125 3.15625-3.125 5.78125m0 0"/><path id="l" d="M1.0625-7.625c0 .42188.29688.71875.71875.71875S2.5-7.20312 2.5-7.625s-.29687-.71875-.71875-.71875-.71875.29688-.71875.71875M.375 0h2.84375v-.32812c-.84375-.0625-.875-.09375-.875-.6875v-4.76563l-.07812-.07812L.4375-5.5625v.29688l.4375.0625c.29688.04687.375.09375.375.51562v3.67188c0 .59375-.03125.625-.875.6875Zm0 0"/><path id="m" d="M.375 0h2.84375v-.32812c-.84375-.0625-.875-.09375-.875-.6875V-3.75c0-.29687.01563-.4375.10938-.625.25-.46875.76562-.84375 1.39062-.84375.79688 0 1.23438.4375 1.23438 1.45313v2.75c0 .59375-.04688.625-.89063.6875V0h2.85938v-.32812c-.82813-.0625-.875-.09375-.875-.6875V-4c0-1.17187-.65625-1.85937-1.71875-1.85937-.875 0-1.40625.42187-2.125.89062l-.15625-.89062L.4375-5.5625v.29688l.4375.0625c.29688.04687.375.09375.375.51562v3.67188c0 .59375-.03125.625-.875.6875Zm0 0"/><path id="n" d="M.57813-2.73437c0 1.71875.89062 2.875 2.4375 2.875.625 0 1.17187-.29688 1.79687-.79688v.5625L4.90625 0h1.89063v-.32812c-.82813-.0625-.85938-.09375-.85938-.6875v-7.5625l-.09375-.0625L4-8.35937v.29687l.45313.03125c.29687.04688.375.10938.375.54688v1.90625C4.5-5.75 4.0625-5.85937 3.53125-5.85937c-.95312 0-1.67187.3125-2.15625.8125-.5.51562-.79687 1.28125-.79687 2.3125M1.78125-2.875c0-1.51562.54688-2.57812 1.73438-2.57812.54687 0 1 .25 1.21875.73437.09375.20313.09375.375.09375.6875v2.04688c0 .26562 0 .45312-.07813.65625-.23437.60937-.75.84375-1.34375.84375-1.07812 0-1.625-1.04688-1.625-2.39063m0 0"/><path id="o" d="M.57813-2.71875C.57813-.85937 1.59375.14063 3 .14063c.65625 0 1.21875-.3125 1.82813-.76563v2.28125c0 .60938-.0625.625-.9375.6875v.34375h2.90625v-.34375C6 2.28125 5.9375 2.26563 5.9375 1.65625v-7.51562h-.32812l-.5.35937c-.4375-.25-1.04688-.35937-1.53125-.35937-.9375 0-1.6875.28125-2.1875.8125-.51563.51562-.8125 1.28125-.8125 2.32812m1.20312-.14062c0-1.45313.5-2.59375 1.6875-2.59375.60938 0 1.04688.21875 1.26563.8125.07812.1875.09375.39062.09375.67187V-2c0 .26563 0 .46875-.07813.64063-.21875.625-.67187.875-1.3125.875-1.15625 0-1.65625-1.0625-1.65625-2.375m0 0"/><path id="p" d="m.29688-5.26562.45312.0625c.29688.04687.35938.09375.35938.51562v3.07813c0 1.34375.79687 1.75 1.67187 1.75.98438 0 1.79688-.67188 2.125-.82813l.125.6875h1.85938v-.32812c-.79688-.0625-.875-.09375-.875-.6875v-4.76563l-.07813-.07812-1.82812.29687v.29688l.4375.0625c.29687.04687.375.09375.375.51562v2.625c0 .32813-.03125.59375-.09375.70313-.28125.53125-.82813.875-1.42188.875-.6875 0-1.1875-.4375-1.1875-1.34375v-3.95313l-.07812-.07812-1.84375.29687Zm0 0"/><path id="q" d="M.57813-2.8125c0 1.84375.78125 2.95313 2.6875 2.95313 1.28125 0 1.95312-.71875 2.26562-1.64063l-.34375-.1875C4.85938-1 4.42188-.45312 3.5-.45312c-1.45312 0-1.73437-1.39063-1.71875-2.60938h3.375c.23438 0 .45313-.0625.45313-.45312 0-.67188-.21875-2.34375-2.35938-2.34375-1.82812 0-2.67187 1.29687-2.67187 3.04687m1.21875-.70312c0-.48438.17187-1.9375 1.39062-1.9375 1.07813 0 1.20313 1.10937 1.20313 1.5625 0 .23437-.07813.375-.39063.375Zm0 0"/><path id="r" d="M.57813-2.79687c0 1.9375.95312 2.9375 2.70312 2.9375.8125 0 1.92188-.42188 2.23438-1.67188l-.34375-.17187C4.8125-.875 4.35938-.46875 3.5-.46875c-1.39062 0-1.71875-1.45312-1.71875-2.54687 0-1.73438.6875-2.4375 1.5-2.4375.53125 0 .85938.39062 1.09375 1.03125.07813.17187.15625.29687.375.29687.23438 0 .6875-.15625.6875-.60937 0-.53125-.76562-1.125-2.03125-1.125-2.125 0-2.82812 1.5-2.82812 3.0625m0 0"/><path id="s" d="M.57813-2.85937c0 1.89062.92187 3 2.79687 3s2.79688-1.10938 2.79688-3c0-1.875-.92188-3-2.79688-3s-2.79687 1.125-2.79687 3m1.20312 0c0-1.60938.53125-2.59375 1.59375-2.59375s1.59375.98437 1.59375 2.59375c0 1.625-.53125 2.59375-1.59375 2.59375s-1.59375-.96875-1.59375-2.59375m0 0"/><path id="t" d="M.375 0h2.84375v-.32812c-.84375-.0625-.875-.09375-.875-.6875V-3.75c0-.29687 0-.45312.09375-.60937.21875-.48438.71875-.85938 1.375-.85938 1 0 1.125.73438 1.125 1.45313v2.75c0 .59375-.03125.625-.875.6875V0h2.82813v-.32812c-.82813-.0625-.85938-.09375-.85938-.6875V-3.75c0-.29687.01563-.4375.07813-.625.1875-.46875.67187-.84375 1.32812-.84375.73438 0 1.1875.40625 1.1875 1.45313v2.75c0 .59375-.04687.625-.89062.6875V0h2.85937v-.32812c-.82812-.0625-.875-.09375-.875-.6875V-4c0-1.17187-.64062-1.85937-1.73437-1.85937-.96875 0-1.64063.64062-2.04688.89062-.29687-.54687-.73437-.89062-1.5625-.89062-.89062 0-1.625.59375-2.03125.89062l-.10937-.89062L.4375-5.5625v.29688l.4375.0625c.29688.04687.375.09375.375.51562v3.67188c0 .59375-.03125.625-.875.6875Zm0 0"/><path id="u" d="m.23438-8.0625.45312.03125c.29688.04688.35938.10938.35938.54688V.04688l.21874.09375.45313-.45313C2.14063-.07812 2.625.14063 3.5.14063c1.54688 0 2.90625-.75 2.90625-3.125 0-.71875-.15625-2.875-2.25-2.875-.875 0-1.57812.57812-2.01562.82812v-3.54687l-.07813-.0625-1.82812.28125Zm1.90625 6.17188V-3.75c0-.29687.01562-.46875.125-.65625.28125-.5625.76562-.8125 1.42187-.8125.48438 0 1.5.26563 1.5 2.29688 0 1.71875-.51562 2.65625-1.67187 2.65625-.625 0-1.07813-.3125-1.28125-.90625-.07813-.20313-.09375-.4375-.09375-.71875m0 0"/><path id="v" d="M.29688 2.34375v.34375H3.3125v-.34375c-.98437-.0625-1.04687-.07812-1.04687-.6875V-.125C2.5.01563 3.0625.14063 3.59375.14063c1.57813 0 2.92188-.71875 2.92188-3.125 0-.84375-.15625-2.875-2.26563-2.875-.85937 0-1.53125.57812-1.98437.875l-.15625-.875-1.76563.29687v.29688l.45313.0625c.29687.04687.375.09375.375.51562v6.34375c0 .60938-.0625.625-.875.6875m1.96875-4.1875V-3.75c0-.29687.04687-.4375.15625-.65625.26562-.53125.75-.8125 1.375-.8125.46875 0 1.51562.29688 1.51562 2.29688 0 1.71875-.54687 2.65625-1.71875 2.65625-.60937 0-1.0625-.3125-1.25-.84375-.07812-.21876-.07812-.45313-.07812-.73438m0 0"/><path id="w" d="M.57813-1.51562c0 .875.57812 1.65625 1.67187 1.65625.67188 0 1.35938-.45313 1.73438-.70313.15625.4375.35937.70313.76562.70313.4375 0 .9375-.125 1.375-.34375l-.07812-.28126c-.15625.03125-.42188.04688-.59375 0C5.25-.53124 5.04688-.75 5.04688-1.46874V-4.3125c0-.67187-.14063-1.54687-1.90625-1.54687-1.3125 0-2.35938.6875-2.35938 1.32812 0 .375.4375.54688.65625.54688.25 0 .3125-.125.375-.32813.26563-.85937.73438-1.14062 1.20313-1.14062.45312 0 .98437.25.98437 1.17187v.48438c-.29687.29687-1.4375.59375-2.34375.89062C.8125-2.64062.57813-2.0625.57813-1.51562M1.75-1.67188C1.75-2.21875 2-2.5 2.65625-2.75 3.125-2.92187 3.73438-3.15625 4-3.3125v1.65625c0 .9375-.71875 1.17188-1.1875 1.17188C2.09375-.48437 1.75-1 1.75-1.67187m0 0"/><path id="x" d="M.375 0h3.07813v-.32812c-1.04688-.0625-1.10938-.09375-1.10938-.6875V-3.75c0-.89062.39063-1.20312.67188-1.20312.1875 0 .39062.07812.71875.26562.09375.04688.17187.0625.23437.0625.28125 0 .53125-.29687.53125-.65625 0-.26562-.15625-.57812-.60937-.57812-.42188 0-.78125.25-1.54688.9375l-.14062-.9375L.4375-5.5625v.29688l.4375.0625c.29688.04687.375.09375.375.51562v3.67188c0 .59375-.0625.625-.875.6875Zm0 0"/><path id="y" d="M.35938-5.25h.84375v4.0625C1.20313 0 2.07813.14063 2.5.14063c.59375 0 1.14063-.29688 1.48438-.51563l-.09375-.25c-.28125.10938-.53125.15625-.82813.15625-.39062 0-.76562-.28125-.76562-1.17187V-5.25h1.5v-.46875h-1.5V-7.1875h-.34375L1.25-5.71875H.35938Zm0 0"/><path id="z" d="m.54688-1.95312.125 1.53125c.42187.375 1.125.5625 1.8125.5625 1.39062 0 2.1875-.73438 2.1875-1.73438 0-1.03125-.64063-1.48437-1.84375-1.85937C2.34375-3.59375 1.59375-3.84375 1.59375-4.5c0-.60937.45313-.95312 1.03125-.95312.84375 0 1.23438.65625 1.3125 1.35937h.34375v-1.35937c-.39062-.29688-.98437-.40625-1.5-.40625-1.26562 0-2.125.59375-2.125 1.70312 0 .96875.79688 1.40625 1.76563 1.70313.51562.15625 1.25.42187 1.25 1.21875 0 .59375-.45313.96875-1.07813.96875-.9375 0-1.48437-.6875-1.71875-1.6875Zm0 0"/><path id="A" d="M3.57813-3.46875c0-2.625-.64063-5.6875-3.10938-5.78125v.34375c.89063.1875 2.14063 1.39063 2.14063 5.4375 0 4.09375-1.3125 5.29688-2.14063 5.45313v.34375C2.9375 2.23438 3.57813-.82812 3.57813-3.46875m0 0"/><path id="F" d="M.23438 0h2.84375v-.32812c-.82813-.0625-.875-.09375-.875-.6875v-7.5625l-.07813-.0625-1.82812.28125v.29687l.4375.03125c.29687.04688.375.10938.375.54688v6.46875c0 .59375-.03126.625-.875.6875Zm0 0"/><path id="G" d="m.84375-5.6875.20313.17188c.57812-.53125 1.375-1.3125 1.375-2.14063 0-.625-.39063-.98437-.76563-.98437-.35937 0-.5625.23437-.5625.54687 0 .42188.375.65625.375 1.09375 0 .45313-.26562.89063-.625 1.3125m0 0"/><path id="H" d="m2.34375-6.54687.17188.23437 1.76562-.98437c.34375-.1875.65625-.375.65625-.625 0-.23438-.28125-.51563-.45312-.51563-.20313 0-.40625.125-.75.48438ZM.57813-2.8125c0 1.84375.78125 2.95313 2.6875 2.95313 1.28125 0 1.95312-.71875 2.26562-1.64063l-.34375-.1875C4.85938-1 4.42188-.45312 3.5-.45312c-1.45312 0-1.73437-1.39063-1.71875-2.60938h3.375c.23438 0 .45313-.0625.45313-.45312 0-.67188-.21875-2.34375-2.35938-2.34375-1.82812 0-2.67187 1.29687-2.67187 3.04687m1.21875-.70312c0-.48438.17187-1.9375 1.39062-1.9375 1.07813 0 1.20313 1.10937 1.20313 1.5625 0 .23437-.07813.375-.39063.375Zm0 0"/><path id="I" d="M.48438 1.10938c0 1.1875 1.17187 1.70312 2.53125 1.70312.6875 0 1.42187-.125 1.98437-.46875.53125-.32812.9375-.875.9375-1.59375 0-1.26562-1.01562-1.70312-2.26562-1.70312h-.9375c-.84375 0-.95313-.28126-.95313-.51563 0-.32812.4375-.51562.59375-.5625.21875.01563.46875.03125.59375.03125 1.09375 0 2.35938-.48437 2.35938-1.89062 0-.48438-.17188-.89063-.35938-1.09375l.92188-.15625L6.125-5.875l-.09375-.09375L4.54688-5.5c-.32813-.21875-.98438-.35937-1.51563-.35937C1.23438-5.85937.625-4.76562.625-3.89062c0 1.09375.71875 1.59375 1.25 1.73437v.01563c-.64062.25-1.0625.59375-1.0625 1.04687 0 .40625.46875.84375 1.03125.90625v.03125C1.34375 0 .48438.26563.48438 1.10938m1.10937-.04688c0-.39062.125-.6875.35938-.875.26562-.20312.65625-.28125 1.20312-.28125 1.03125 0 1.79688.26563 1.79688 1.14063 0 .92187-.84375 1.375-1.67188 1.375-1 0-1.6875-.51563-1.6875-1.35938m.21875-4.95312c0-1.15625.59375-1.5625 1.21875-1.5625.5625 0 1.15625.42187 1.15625 1.5625 0 .96875-.48437 1.48437-1.17187 1.48437-.65625 0-1.20313-.51562-1.20313-1.48437m0 0"/></defs><use xlink:href="#a" x="5.95996" y="14.90688" fill="#007F7F"/><path fill="none" stroke="#000" stroke-miterlimit="10" stroke-width=".68223" d="M5.96094 20.20313h7.26563"/><use xlink:href="#b" x="5.99109" y="32.18412" fill="#FF7F00"/><path fill="none" stroke="#007F7F" stroke-miterlimit="10" stroke-width=".39689" d="M22.98047 10.10156H44.8828"/><path fill="#007F7F" stroke="#007F7F" stroke-miterlimit="10" stroke-width=".39689" d="M19.16016 10.10156c.46875.125 2.53125.83985 3.8203 1.6172v-3.2383c-1.28905.77735-3.35155 1.4922-3.8203 1.6211Zm0 0"/><path fill="none" stroke="#FF7F00" stroke-miterlimit="10" stroke-width=".39689" d="M22.98047 29.50781H44.8828"/><path fill="#FF7F00" stroke="#FF7F00" stroke-miterlimit="10" stroke-width=".39689" d="M19.16016 29.50781c.46875.1289 2.53125.84375 3.8203 1.6211v-3.23829c-1.28905.77735-3.35155 1.4922-3.8203 1.6172Zm0 0"/><use xlink:href="#c" x="49.26611" y="13.38656" fill="#007F7F"/><g fill="#007F7F"><use xlink:href="#d" x="57.65045" y="13.38656"/><use xlink:href="#e" x="65.10457" y="13.38656"/><use xlink:href="#f" x="76.27955" y="13.38656"/><use xlink:href="#g" x="82.43137" y="13.38656"/><use xlink:href="#h" x="87.67778" y="13.38656"/><use xlink:href="#i" x="94.13967" y="13.38656"/><use xlink:href="#j" x="98.5675" y="13.38656"/><use xlink:href="#d" x="104.71932" y="13.38656"/><use xlink:href="#g" x="112.17344" y="13.38656"/></g><use xlink:href="#k" x="120.03583" y="13.38656"/><use xlink:href="#l" x="124.32722" y="13.38656"/><use xlink:href="#m" x="127.7132" y="13.38656"/><use xlink:href="#n" x="134.91926" y="13.38656"/><use xlink:href="#l" x="141.88967" y="13.38656"/><use xlink:href="#o" x="145.27566" y="13.38656"/><use xlink:href="#p" x="152.15925" y="13.38656"/><use xlink:href="#q" x="159.21648" y="13.38656"/><use xlink:href="#r" x="167.82406" y="13.38656"/><use xlink:href="#s" x="173.6038" y="13.38656"/><use xlink:href="#t" x="180.32615" y="13.38656"/><use xlink:href="#u" x="191.07943" y="13.38656"/><use xlink:href="#l" x="198.04984" y="13.38656"/><use xlink:href="#q" x="201.43582" y="13.38656"/><use xlink:href="#m" x="207.42641" y="13.38656"/><use xlink:href="#n" x="217.24948" y="13.38656"/><use xlink:href="#q" x="224.21989" y="13.38656"/><use xlink:href="#v" x="232.82747" y="13.38656"/><use xlink:href="#w" x="239.90951" y="13.38656"/><use xlink:href="#x" x="245.99932" y="13.38656"/><use xlink:href="#y" x="250.62558" y="13.38656"/><use xlink:href="#z" x="254.63171" y="13.38656"/><use xlink:href="#s" x="262.32148" y="13.38656"/><use xlink:href="#m" x="269.04384" y="13.38656"/><use xlink:href="#v" x="278.86691" y="13.38656"/><use xlink:href="#x" x="285.94894" y="13.38656"/><use xlink:href="#q" x="290.24033" y="13.38656"/><use xlink:href="#m" x="296.23092" y="13.38656"/><use xlink:href="#n" x="303.43698" y="13.38656"/><use xlink:href="#A" x="310.40739" y="13.38656"/><g fill="#FF7F00"><use xlink:href="#B" x="49.26611" y="32.72692"/><use xlink:href="#f" x="58.44423" y="32.72692"/><use xlink:href="#C" x="64.59605" y="32.72692"/><use xlink:href="#D" x="72.14939" y="32.72692"/><use xlink:href="#e" x="79.0826" y="32.72692"/><use xlink:href="#E" x="90.25758" y="32.72692"/><use xlink:href="#C" x="94.06526" y="32.72692"/><use xlink:href="#h" x="101.6186" y="32.72692"/><use xlink:href="#i" x="108.08049" y="32.72692"/><use xlink:href="#j" x="112.50831" y="32.72692"/><use xlink:href="#d" x="118.66013" y="32.72692"/><use xlink:href="#g" x="126.11426" y="32.72692"/></g><use xlink:href="#k" x="133.97664" y="32.72692"/><use xlink:href="#l" x="138.26803" y="32.72692"/><use xlink:href="#m" x="141.65401" y="32.72692"/><use xlink:href="#n" x="148.86007" y="32.72692"/><use xlink:href="#l" x="155.83049" y="32.72692"/><use xlink:href="#o" x="159.21647" y="32.72692"/><use xlink:href="#p" x="166.10006" y="32.72692"/><use xlink:href="#q" x="173.15729" y="32.72692"/><use xlink:href="#q" x="181.76487" y="32.72692"/><use xlink:href="#m" x="187.75546" y="32.72692"/><use xlink:href="#r" x="197.57853" y="32.72692"/><use xlink:href="#s" x="203.35826" y="32.72692"/><use xlink:href="#t" x="210.08061" y="32.72692"/><use xlink:href="#u" x="220.8339" y="32.72692"/><use xlink:href="#l" x="227.8043" y="32.72692"/><use xlink:href="#q" x="231.19029" y="32.72692"/><use xlink:href="#m" x="237.18087" y="32.72692"/><use xlink:href="#n" x="247.00394" y="32.72692"/><use xlink:href="#q" x="253.97435" y="32.72692"/><use xlink:href="#v" x="262.58194" y="32.72692"/><use xlink:href="#w" x="269.66397" y="32.72692"/><use xlink:href="#x" x="275.75378" y="32.72692"/><use xlink:href="#y" x="280.38005" y="32.72692"/><use xlink:href="#z" x="284.38617" y="32.72692"/><use xlink:href="#F" x="292.07595" y="32.72692"/><use xlink:href="#G" x="295.21387" y="32.72692"/><use xlink:href="#p" x="298.45102" y="32.72692"/><use xlink:href="#m" x="305.50825" y="32.72692"/><use xlink:href="#l" x="312.71431" y="32.72692"/><use xlink:href="#y" x="316.1003" y="32.72692"/><use xlink:href="#H" x="320.10642" y="32.72692"/><use xlink:href="#q" x="328.71401" y="32.72692"/><use xlink:href="#z" x="334.70459" y="32.72692"/><use xlink:href="#y" x="339.77736" y="32.72692"/><use xlink:href="#v" x="346.40049" y="32.72692"/><use xlink:href="#w" x="353.48253" y="32.72692"/><use xlink:href="#x" x="359.57233" y="32.72692"/><use xlink:href="#y" x="364.1986" y="32.72692"/><use xlink:href="#w" x="368.20473" y="32.72692"/><use xlink:href="#I" x="374.29453" y="32.72692"/><use xlink:href="#H" x="380.34713" y="32.72692"/><use xlink:href="#q" x="386.33771" y="32.72692"/><use xlink:href="#A" x="392.3283" y="32.72692"/></svg>