<svg xmlns="http://www.w3.org/2000/svg" xmlns:xlink="http://www.w3.org/1999/xlink" width="560.375pt" height="45.284pt" viewBox="0 0 560.375 45.284"><defs><path id="a" d="M.28125-.10937.40625 0h4.45313l.375-1.42187-.29688-.0625c-.23437.59375-.45312.67187-.89062.67187h-2.75c.17187-.5625.8125-1.32812 1.8125-2.04687C4.14063-3.625 4.9375-4.10937 4.9375-5.3125c0-1.5-1-2.01562-2.125-2.01562-1.48437 0-2.23437.89062-2.23437 1.45312 0 .375.40625.54688.59375.54688s.26562-.125.3125-.29688c.17187-.73437.59375-1.32812 1.25-1.32812.82812 0 1.07812.6875 1.07812 1.48437 0 1.15625-.59375 1.8125-1.53125 2.64063C.95313-1.67187.5-.9375.28125-.10937m0 0"/><path id="b" d="M.28125-1.09375c0 .45313.75 1.21875 2.28125 1.21875 1.5625 0 2.54688-.79687 2.54688-2.17187 0-1.4375-1.25-1.85938-1.84375-1.92188v-.04687c.59375-.09375 1.51562-.53125 1.51562-1.59375 0-1.1875-.92187-1.71875-2.09375-1.71875-1.42187 0-2.10937.82812-2.10937 1.28125 0 .32812.375.51562.51562.51562.14063 0 .21875-.07812.26563-.21875.25-.73437.64062-1.20312 1.25-1.20312.85937 0 1.07812.75 1.07812 1.35937 0 .64063-.23437 1.45313-1.15625 1.45313-.51562 0-.8125-.10938-.9375-.10938-.14062 0-.1875.10938-.1875.3125 0 .17188.04688.29688.1875.29688.125 0 .42188-.10938.9375-.10938.92188 0 1.4375.82813 1.4375 1.76563C3.96875-.70312 3.34375-.25 2.5625-.25c-.70312 0-1.17187-.53125-1.375-1.14062-.07812-.20313-.17187-.3125-.32812-.3125-.1875 0-.57813.21874-.57813.60937m0 0"/><path id="h" d="M.3125-.10937.45313 0h4.95312l.40625-1.57812-.32812-.0625c-.25.64062-.5.73437-.98438.73437H1.4375c.1875-.625.90625-1.48437 2.01563-2.28125C4.60938-4.03125 5.5-4.5625 5.5-5.90625c0-1.67187-1.10937-2.23437-2.375-2.23437-1.64062 0-2.48437.98437-2.48437 1.60937 0 .40625.45312.60938.65625.60938.21874 0 .29687-.14063.34375-.34375.20312-.8125.67187-1.45313 1.40625-1.45313.92187 0 1.1875.75 1.1875 1.64063 0 1.28125-.65625 2.01562-1.70313 2.92187C1.0625-1.85937.54688-1.04687.3125-.10937m0 0"/><path id="i" d="m.60938 1.46875.23437.23438c.59375-.5625 1.46875-1.375 1.46875-2.3125 0-.64063-.34375-1.09375-.8125-1.09375-.35937 0-.59375.29687-.59375.60937 0 .4375.39063.65625.39063 1.17188 0 .5-.29688.96875-.6875 1.39062m0 0"/><path id="j" d="m.23438-2.39062.09375.25h3.26562v1.21875c0 .40625-.125.46875-.42187.5l-.76563.07812V0h3.17188v-.34375l-.54688-.0625C4.75-.45312 4.67188-.51562 4.67188-.92187v-1.21875h1.23437v-.5625H4.67188V-8h-.875c-1.125 1.65625-2.46875 3.73438-3.5625 5.60938m.85937-.3125C1.8125-4 2.67188-5.39062 3.59375-6.84375v4.14063Zm0 0"/><path id="k" d="M1.29688 0h3.9375v-.34375l-1-.09375c-.25-.01562-.39063-.10937-.39063-.57812v-7.0625l-.0625-.0625-2.48437.42187v.28125l1.125.14063c.20312.03125.28125.125.28125.46875v5.8125c0 .46875-.10938.5625-.39063.57812l-1.01562.09375Zm0 0"/><path id="l" d="M.5-6.32812h.3125l.125-.25c.14063-.32813.3125-.51563.84375-.51563h3.25c-.125.4375-.35937 1.125-1.32812 2.51563C2.67188-3.09375 2-1.76562 2-.34375c0 .39063.28125.48438.65625.48438.32813 0 .5625-.07813.5625-.45313 0-1.84375.32813-2.95312.90625-3.96875C4.89063-5.625 5.53125-6.375 5.95313-7.875L5.85938-8h-5Zm0 0"/><clipPath id="c"><path d="M410 .58984h1v18.13672h-1Zm0 0"/></clipPath><clipPath id="d"><path d="M446 .58984h1v18.13672h-1Zm0 0"/></clipPath><clipPath id="e"><path d="M482 .58984h1v18.13672h-1Zm0 0"/></clipPath><clipPath id="f"><path d="M518 .58984h2v18.13672h-2Zm0 0"/></clipPath><clipPath id="g"><path d="M538 0h17.70703v23H538Zm0 0"/></clipPath></defs><path fill="none" stroke="#000" stroke-miterlimit="10" stroke-width=".3923" d="M11.16813.58984v18.13672"/><use xlink:href="#a" x="8.30335" y="30.56375"/><path fill="none" stroke="#7f7f7f" stroke-miterlimit="10" stroke-width=".3923" d="M47.44548.58984v18.13672M83.72283.58984v18.13672M120.00018.58984v18.13672M156.27754.58984v18.13672M192.55489.58984v18.13672M228.83224.58984v18.13672M265.1096.58984v18.13672M301.38694.58984v18.13672M337.6643.58984v18.13672"/><path fill="none" stroke="#000" stroke-miterlimit="10" stroke-width=".3923" d="M373.94165.58984v18.13672"/><use xlink:href="#b" x="371.0715" y="30.56375"/><g clip-path="url(#c)"><path fill="none" stroke="#7f7f7f" stroke-miterlimit="10" stroke-width=".3923" d="M410.219.58984v18.13672"/></g><g clip-path="url(#d)"><path fill="none" stroke="#7f7f7f" stroke-miterlimit="10" stroke-width=".3923" d="M446.49635.58984v18.13672"/></g><g clip-path="url(#e)"><path fill="none" stroke="#7f7f7f" stroke-miterlimit="10" stroke-width=".3923" d="M482.7737.58984v18.13672"/></g><g clip-path="url(#f)"><path fill="none" stroke="#7f7f7f" stroke-miterlimit="10" stroke-width=".3923" d="M519.05105.58984v18.13672"/></g><path fill="none" stroke="#000" stroke-miterlimit="10" stroke-width=".7846" d="M11.16813 9.65625h538.08215"/><path d="M553.34766 9.65625c-.50391-.10547-2.71485-.69531-4.09766-1.34375V11c1.38281-.64453 3.59375-1.23828 4.09766-1.34375m0 0"/><g clip-path="url(#g)"><path fill="none" stroke="#000" stroke-miterlimit="10" stroke-width=".7846" d="M553.34766 9.65625c-.50391-.10547-2.71485-.69531-4.09766-1.34375V11c1.38281-.64453 3.59375-1.23828 4.09766-1.34375Zm0 0"/></g><path fill="none" stroke="#000" stroke-miterlimit="10" stroke-opacity=".5" stroke-width=".3923" d="M14.79704 6.03125v7.2539m3.6289-7.2539v7.2539m3.625-7.2539v7.2539m3.62891-7.2539v7.2539m3.62891-7.2539v7.2539m3.6289-7.2539v7.2539m3.62501-7.2539v7.2539m3.6289-7.2539v7.2539m3.62891-7.2539v7.2539m7.25391-7.2539v7.2539m3.62891-7.2539v7.2539m3.625-7.2539v7.2539m3.6289-7.2539v7.2539m3.62891-7.2539v7.2539m3.62891-7.2539v7.2539m3.625-7.2539v7.2539m3.6289-7.2539v7.2539m3.62891-7.2539v7.2539m7.25391-7.2539v7.2539m3.62891-7.2539v7.2539m3.625-7.2539v7.2539m3.6289-7.2539v7.2539m3.62891-7.2539v7.2539m3.62891-7.2539v7.2539m3.625-7.2539v7.2539m3.62891-7.2539v7.2539m3.6289-7.2539v7.2539m7.25392-7.2539v7.2539m3.6289-7.2539v7.2539m3.625-7.2539v7.2539m3.6289-7.2539v7.2539m3.62891-7.2539v7.2539m3.62891-7.2539v7.2539m3.625-7.2539v7.2539m3.62891-7.2539v7.2539m3.6289-7.2539v7.2539m7.25391-7.2539v7.2539m3.62891-7.2539v7.2539m3.625-7.2539v7.2539m3.62891-7.2539v7.2539m3.6289-7.2539v7.2539m3.62891-7.2539v7.2539m3.625-7.2539v7.2539m3.62891-7.2539v7.2539m3.62891-7.2539v7.2539m7.25391-7.2539v7.2539m3.6289-7.2539v7.2539m3.625-7.2539v7.2539m3.6289-7.2539v7.2539m3.62892-7.2539v7.2539m3.6289-7.2539v7.2539m3.625-7.2539v7.2539m3.62891-7.2539v7.2539m3.62891-7.2539v7.2539m7.25391-7.2539v7.2539m3.6289-7.2539v7.2539m3.625-7.2539v7.2539m3.62891-7.2539v7.2539m3.62891-7.2539v7.2539m3.62891-7.2539v7.2539m3.625-7.2539v7.2539m3.6289-7.2539v7.2539m3.62891-7.2539v7.2539m7.25391-7.2539v7.2539m3.6289-7.2539v7.2539m3.625-7.2539v7.2539m3.62891-7.2539v7.2539m3.62891-7.2539v7.2539m3.62891-7.2539v7.2539m3.625-7.2539v7.2539m3.6289-7.2539v7.2539m3.62891-7.2539v7.2539m7.25391-7.2539v7.2539m3.62891-7.2539v7.2539m3.625-7.2539v7.2539m3.6289-7.2539v7.2539m3.62891-7.2539v7.2539m3.62891-7.2539v7.2539m3.625-7.2539v7.2539m3.62891-7.2539v7.2539m3.62891-7.2539v7.2539m7.2539-7.2539v7.2539m3.6289-7.2539v7.2539m3.625-7.2539v7.2539m3.62892-7.2539v7.2539m3.6289-7.2539v7.2539m3.62891-7.2539v7.2539m3.625-7.2539v7.2539m3.62891-7.2539v7.2539m3.62891-7.2539v7.2539m7.2539-7.2539v7.2539m3.62891-7.2539v7.2539m3.625-7.2539v7.2539m3.62891-7.2539v7.2539m3.62891-7.2539v7.2539m3.6289-7.2539v7.2539m3.625-7.2539v7.2539m3.62891-7.2539v7.2539m3.62891-7.2539v7.2539m7.2539-7.2539v7.2539m3.62891-7.2539v7.2539m3.625-7.2539v7.2539m3.62891-7.2539v7.2539m3.62891-7.2539v7.2539m3.6289-7.2539v7.2539m3.62501-7.2539v7.2539m3.6289-7.2539v7.2539m3.62891-7.2539v7.2539m7.25391-7.2539v7.2539m3.6289-7.2539v7.2539m3.625-7.2539v7.2539m3.62891-7.2539v7.2539m3.62891-7.2539v7.2539m3.62891-7.2539v7.2539m3.625-7.2539v7.2539m3.62891-7.2539v7.2539m3.6289-7.2539v7.2539m7.2539-7.2539v7.2539m3.62892-7.2539v7.2539m3.625-7.2539v7.2539m3.6289-7.2539v7.2539m3.62891-7.2539v7.2539m3.62891-7.2539v7.2539m3.625-7.2539v7.2539m3.62891-7.2539v7.2539m3.6289-7.2539v7.2539m7.25391-7.2539v7.2539m3.62891-7.2539v7.2539m3.625-7.2539v7.2539m3.6289-7.2539v7.2539m3.62891-7.2539v7.2539m3.62891-7.2539v7.2539m3.625-7.2539v7.2539"/><path fill="none" stroke="#007f7f" stroke-miterlimit="10" stroke-width="1.17692" d="M159.90644 2.40234v14.51172"/><g fill="#007f7f"><use xlink:href="#h" x="148.07537" y="38.63414"/><use xlink:href="#i" x="154.42479" y="38.63414"/></g><g fill="#007f7f"><use xlink:href="#j" x="159.01473" y="38.63414"/><use xlink:href="#k" x="165.36415" y="38.63414"/></g><path fill="none" stroke="#007f7f" stroke-miterlimit="10" stroke-width="1.17692" d="M265.1096.58984v18.13672"/><g fill="#007f7f"><use xlink:href="#h" x="256.45376" y="38.63414"/><use xlink:href="#i" x="262.80318" y="38.63414"/></g><use xlink:href="#l" x="267.39312" y="38.63414" fill="#007f7f"/></svg>