<svg xmlns="http://www.w3.org/2000/svg" xmlns:xlink="http://www.w3.org/1999/xlink" width="721.404pt" height="94.546pt" viewBox="0 0 721.404 94.546"><defs><path id="b" d="M.5625-.20312.78125 0h8.67188l.71875-2.76562-.57813-.10938c-.45312 1.14063-.875 1.29688-1.71875 1.29688H2.51563c.34375-1.09375 1.59375-2.59375 3.53125-4 2.01562-1.46875 3.5625-2.40625 3.5625-4.75 0-2.92188-1.9375-3.92188-4.14063-3.92188-2.875 0-4.35937 1.73438-4.35937 2.82813 0 .71875.8125 1.04687 1.17187 1.04687.375 0 .5-.21875.59375-.57812.34375-1.4375 1.15625-2.5625 2.45313-2.5625 1.60937 0 2.07812 1.32812 2.07812 2.875 0 2.25-1.14062 3.51562-2.96875 5.125C1.85938-3.25.95313-1.82812.5625-.20312m0 0"/><path id="c" d="M.5625-2.14062C.5625-1.25 2.01563.25 4.96875.25c3.04688 0 4.95313-1.54687 4.95313-4.21875 0-2.8125-2.40625-3.64062-3.5625-3.75v-.09375c1.14062-.17187 2.9375-1.01562 2.9375-3.09375C9.29688-13.23437 7.5-14.25 5.25-14.25c-2.76562 0-4.14062 1.59375-4.14062 2.48438 0 .65625.75 1.01562 1.03125 1.01562.26562 0 .42187-.15625.51562-.42187.46875-1.4375 1.25-2.34375 2.4375-2.34375 1.64063 0 2.0625 1.4375 2.0625 2.625 0 1.25-.4375 2.82812-2.21875 2.82812-1.01562 0-1.59375-.1875-1.84375-.1875-.26562 0-.375.1875-.375.57813 0 .35937.10938.57812.375.57812.25 0 .82813-.20312 1.84375-.20312 1.78125 0 2.78125 1.60937 2.78125 3.4375 0 2.5-1.21875 3.375-2.71875 3.375-1.39062 0-2.29687-1.03125-2.70312-2.21875-.125-.39063-.32813-.59375-.625-.59375-.375 0-1.10938.39062-1.10938 1.15625m0 0"/><path id="d" d="M.92188-6.46875C.92188-1.9375 2.5625.25 5.71875.25c3.09375 0 4.75-1.875 4.75-4.73437 0-2.82813-1.75-4.375-4-4.375-1.65625 0-2.875 1.10937-3.4375 1.8125.03125-4.625 1.29688-6.46875 3.1875-6.46875.96875 0 1.65625.79687 1.96875 2 .0625.25.21875.45312.53125.45312.46875 0 1.125-.39062 1.125-.96875 0-.84375-1.03125-2.21875-3.54687-2.21875-3.32813 0-5.375 2.5625-5.375 7.78125m2.10937 1.51563C3.03125-6.21875 4-7.78125 5.75-7.78125c1.32813 0 2.60938 1.20313 2.60938 3.60938 0 2.20312-.84375 3.6875-2.60938 3.6875-1.82812 0-2.71875-1.95313-2.71875-4.46875m0 0"/><path id="e" d="m1.07813 2.5625.39062.40625c1.04688-.98437 2.5625-2.39062 2.5625-4.04687 0-1.10938-.59375-1.89063-1.39062-1.89063-.65625 0-1.0625.51563-1.0625 1.04688 0 .76562.70312 1.15625.70312 2.0625 0 .85937-.54687 1.6875-1.20312 2.42187m0 0"/><path id="f" d="M2.28125 0h6.89063v-.60937L7.40625-.76563c-.4375-.03124-.6875-.1875-.6875-1.01562v-12.35937L6.60938-14.25l-4.32813.73438v.5l1.95313.25c.35937.04687.5.20312.5.8125v10.17187c0 .82813-.20313.98438-.70313 1.01563l-1.75.15624Zm0 0"/><path id="g" d="M.76563-9.53125c0 2.84375 1.73437 4.375 3.98437 4.375 1.65625 0 2.875-1.10937 3.4375-1.8125C8.17188-2.34375 6.89063-.48437 5-.48437c-.96875 0-1.65625-.8125-1.96875-2.01563-.0625-.25-.21875-.4375-.53125-.4375-.46875 0-1.10937.375-1.10937.95313C1.39063-1.14062 2.40625.25 4.9375.25c3.3125 0 5.375-2.57812 5.375-7.79687 0-4.53125-1.65625-6.70313-4.79687-6.70313-3.10938 0-4.75 1.85938-4.75 4.71875m2.09375-.3125c0-2.20312.84375-3.67187 2.60937-3.67187 1.82813 0 2.71875 1.9375 2.71875 4.45312 0 1.28125-.95312 2.84375-2.71875 2.84375-1.3125 0-2.60937-1.21875-2.60937-3.625m0 0"/><clipPath id="a"><path d="M701 35h18.38281v26H701Zm0 0"/></clipPath></defs><path fill="none" stroke="#000" stroke-miterlimit="10" stroke-width=".7932" d="M14.41797 48.40625h698.42965"/><path d="M716.99219 48.40625c-.50782-.10547-2.7461-.70312-4.14453-1.35547v2.71484c1.39843-.65234 3.63671-1.2539 4.14453-1.35937m0 0"/><g clip-path="url(#a)"><path fill="none" stroke="#000" stroke-miterlimit="10" stroke-width=".7932" d="M716.99219 48.40625c-.50781-.10547-2.7461-.70313-4.14453-1.35547v2.71484c1.39843-.65234 3.63672-1.2539 4.14453-1.35937Zm0 0"/></g><path fill="none" stroke="#000" stroke-miterlimit="10" stroke-width=".7932" d="M14.41797 32.53906v31.73828"/><path fill="none" stroke="#000" stroke-miterlimit="10" stroke-width=".3966" d="M20.76562 42.0586v12.6953m6.34766-12.6953v12.6953m6.34766-12.6953v12.6953m6.34766-12.6953v12.6953m6.34765-12.6953v12.6953m6.34765-12.6953v12.6953m6.34766-12.6953v12.6953m6.34766-12.6953v12.6953m6.34765-12.6953v12.6953"/><path fill="none" stroke="#000" stroke-miterlimit="10" stroke-width=".7932" d="M77.89453 32.53906v31.73828"/><path fill="none" stroke="#000" stroke-miterlimit="10" stroke-width=".3966" d="M84.24218 42.0586v12.6953m6.34766-12.6953v12.6953m6.34375-12.6953v12.6953m6.34765-12.6953v12.6953m6.35156-12.6953v12.6953m6.34376-12.6953v12.6953m6.34765-12.6953v12.6953m6.34766-12.6953v12.6953m6.34765-12.6953v12.6953"/><path fill="none" stroke="#000" stroke-miterlimit="10" stroke-width=".7932" d="M141.36718 32.53906v31.73828"/><path fill="none" stroke="#000" stroke-miterlimit="10" stroke-width=".3966" d="M147.71484 42.0586v12.6953m6.34766-12.6953v12.6953m6.34765-12.6953v12.6953m6.34765-12.6953v12.6953m6.34766-12.6953v12.6953m6.34766-12.6953v12.6953m6.34765-12.6953v12.6953m6.34766-12.6953v12.6953m6.34765-12.6953v12.6953"/><path fill="none" stroke="#000" stroke-miterlimit="10" stroke-width=".7932" d="M204.84374 32.53906v31.73828"/><path fill="none" stroke="#000" stroke-miterlimit="10" stroke-width=".3966" d="M211.1914 42.0586v12.6953m6.34765-12.6953v12.6953m6.34765-12.6953v12.6953m6.34766-12.6953v12.6953m6.34766-12.6953v12.6953m6.34765-12.6953v12.6953m6.34766-12.6953v12.6953m6.34766-12.6953v12.6953m6.34765-12.6953v12.6953"/><path fill="none" stroke="#000" stroke-miterlimit="10" stroke-width=".7932" d="M268.3203 32.53906v31.73828"/><path fill="none" stroke="#000" stroke-miterlimit="10" stroke-width=".3966" d="M274.66795 42.0586v12.6953m6.34766-12.6953v12.6953m6.34766-12.6953v12.6953m6.34765-12.6953v12.6953m6.34766-12.6953v12.6953m6.34765-12.6953v12.6953m6.34767-12.6953v12.6953m6.34374-12.6953v12.6953m6.35156-12.6953v12.6953"/><path fill="none" stroke="#000" stroke-miterlimit="10" stroke-width=".7932" d="M331.79686 32.53906v31.73828"/><path fill="none" stroke="#000" stroke-miterlimit="10" stroke-width=".3966" d="M338.1406 42.0586v12.6953m6.35157-12.6953v12.6953m6.34375-12.6953v12.6953m6.34766-12.6953v12.6953m6.34765-12.6953v12.6953m6.34766-12.6953v12.6953m6.34765-12.6953v12.6953m6.34766-12.6953v12.6953m6.34765-12.6953v12.6953"/><path fill="none" stroke="#000" stroke-miterlimit="10" stroke-width=".7932" d="M395.26951 32.53906v31.73828"/><path fill="none" stroke="#000" stroke-miterlimit="10" stroke-width=".3966" d="M401.61717 42.0586v12.6953m6.34765-12.6953v12.6953m6.34766-12.6953v12.6953m6.34765-12.6953v12.6953m6.34766-12.6953v12.6953m6.34766-12.6953v12.6953m6.34765-12.6953v12.6953m6.34766-12.6953v12.6953m6.34765-12.6953v12.6953"/><path fill="none" stroke="#000" stroke-miterlimit="10" stroke-width=".7932" d="M458.74607 32.53906v31.73828"/><path fill="none" stroke="#000" stroke-miterlimit="10" stroke-width=".3966" d="M465.09373 42.0586v12.6953m6.34765-12.6953v12.6953m6.34766-12.6953v12.6953m6.34766-12.6953v12.6953m6.34765-12.6953v12.6953m6.34765-12.6953v12.6953m6.34766-12.6953v12.6953m6.34766-12.6953v12.6953m6.34765-12.6953v12.6953"/><path fill="none" stroke="#000" stroke-miterlimit="10" stroke-width=".7932" d="M522.22263 32.53906v31.73828"/><path fill="none" stroke="#000" stroke-miterlimit="10" stroke-width=".3966" d="M528.57029 42.0586v12.6953m6.34765-12.6953v12.6953m6.34766-12.6953v12.6953m6.34765-12.6953v12.6953m6.34765-12.6953v12.6953m6.34766-12.6953v12.6953m6.34766-12.6953v12.6953m6.34375-12.6953v12.6953m6.34766-12.6953v12.6953"/><path fill="none" stroke="#000" stroke-miterlimit="10" stroke-width=".7932" d="M585.69919 32.53906v31.73828"/><path fill="none" stroke="#000" stroke-miterlimit="10" stroke-width=".3966" d="M592.04294 42.0586v12.6953m6.34766-12.6953v12.6953m6.34765-12.6953v12.6953m6.34765-12.6953v12.6953m6.34766-12.6953v12.6953m6.34766-12.6953v12.6953m6.34765-12.6953v12.6953m6.34766-12.6953v12.6953m6.34765-12.6953v12.6953"/><path fill="none" stroke="#000" stroke-miterlimit="10" stroke-width=".7932" d="M649.17184 32.53906v31.73828"/><path fill="none" stroke="#000" stroke-miterlimit="10" stroke-width=".3966" d="M655.5195 42.0586v12.6953m6.34765-12.6953v12.6953m6.34765-12.6953v12.6953m6.34766-12.6953v12.6953m6.34766-12.6953v12.6953m6.34766-12.6953v12.6953m6.34765-12.6953v12.6953m6.34766-12.6953v12.6953m6.34765-12.6953v12.6953"/><use xlink:href="#b" x="8.8625" y="86.41305"/><use xlink:href="#c" x="643.60951" y="86.41305"/><path fill="none" stroke="#007F7F" stroke-miterlimit="10" stroke-width="1.18982" d="M274.66795 35.71094v25.39062"/><g fill="#007F7F"><use xlink:href="#d" x="259.53778" y="21.68985"/><use xlink:href="#e" x="270.64757" y="21.68985"/></g><use xlink:href="#f" x="278.67874" y="21.68985" fill="#007F7F"/><path fill="none" stroke="#007F7F" stroke-miterlimit="10" stroke-width="1.18982" d="M458.74607 32.53906v31.73828"/><use xlink:href="#g" x="453.1859" y="24.41178" fill="#007F7F"/></svg>