<svg xmlns="http://www.w3.org/2000/svg" width="663.708pt" height="18.824pt" viewBox="0 0 663.708 18.824"><defs><clipPath id="a"><path d="M3 0h657.48828v18.64844H3Zm0 0"/></clipPath><clipPath id="b"><path d="M2.92969 0h657.5586v18.64844H2.92968Zm0 0"/></clipPath><clipPath id="c"><path d="M3 0h132v18.64844H3Zm0 0"/></clipPath><clipPath id="d"><path d="M2.92969 0H135v18.64844H2.92969Zm0 0"/></clipPath><clipPath id="e"><path d="M2.92969 0H4v18.64844H2.92969Zm0 0"/></clipPath><clipPath id="f"><path d="M134 0h1v18.64844h-1Zm0 0"/></clipPath><clipPath id="g"><path d="M265 0h2v18.64844h-2Zm0 0"/></clipPath><clipPath id="h"><path d="M397 0h1v18.64844h-1Zm0 0"/></clipPath><clipPath id="i"><path d="M528 0h2v18.64844h-2Zm0 0"/></clipPath><clipPath id="j"><path d="M660 0h.48828v18.64844H660Zm0 0"/></clipPath></defs><g clip-path="url(#a)"><path fill="#fff" d="M3.125 18.45313V.19921h657.17578v18.2539Zm0 0"/></g><g clip-path="url(#b)"><path fill="none" stroke="#000" stroke-miterlimit="10" stroke-width=".39481" d="M3.125 18.45313V.19922h657.17589v18.2539Zm0 0"/></g><g clip-path="url(#c)"><path fill="#7fbfbf" d="M3.125 18.45313V.19921h131.4375v18.2539Zm0 0"/></g><g clip-path="url(#d)"><path fill="none" stroke="#000" stroke-miterlimit="10" stroke-width=".39481" d="M3.125 18.45313V.19922h131.43752v18.2539Zm0 0"/></g><g clip-path="url(#e)"><path fill="none" stroke="#000" stroke-miterlimit="10" stroke-width=".39481" d="M3.125 18.45313V.19922"/></g><g clip-path="url(#f)"><path fill="none" stroke="#000" stroke-miterlimit="10" stroke-width=".39481" d="M134.56252 18.45313V.19922"/></g><g clip-path="url(#g)"><path fill="none" stroke="#000" stroke-miterlimit="10" stroke-width=".39481" d="M265.99614 18.45313V.19922"/></g><g clip-path="url(#h)"><path fill="none" stroke="#000" stroke-miterlimit="10" stroke-width=".39481" d="M397.42975 18.45313V.19922"/></g><g clip-path="url(#i)"><path fill="none" stroke="#000" stroke-miterlimit="10" stroke-width=".39481" d="M528.86727 18.45313V.19922"/></g><g clip-path="url(#j)"><path fill="none" stroke="#000" stroke-miterlimit="10" stroke-width=".39481" d="M660.30089 18.45313V.19922"/></g></svg>