<svg xmlns="http://www.w3.org/2000/svg" xmlns:xlink="http://www.w3.org/1999/xlink" width="159.136pt" height="228.758pt" viewBox="0 0 159.136 228.758"><defs><path id="b" d="M.5-4.04687C.5-1.625 1.21875.14063 3.21875.14063S5.92188-1.625 5.92188-4.04687s-.70313-4.1875-2.70313-4.1875S.5-6.46875.5-4.04687m1.21875 0c0-1.96875.35938-3.75 1.5-3.75 1.14063 0 1.46875 1.78125 1.46875 3.75S4.35938-.28125 3.21875-.28125c-1.14062 0-1.5-1.79687-1.5-3.76562m0 0"/><path id="m" d="m1.75-1.3125.5.5 2.10938-2.10937L6.46875-.8125l.48438-.5-2.09375-2.09375 2.09375-2.10937-.48438-.5-2.10937 2.10937L2.25-6.01562l-.5.5 2.10938 2.10937Zm0 0"/><path id="c" d="M1.1875 0h3.57813v-.3125l-.92188-.07812C3.625-.42187 3.48438-.5 3.48438-.92187v-6.42188l-.04688-.0625-2.25.375v.26563l1.01563.14062c.1875.01563.25.09375.25.40625v5.29688c0 .42187-.09375.5-.35938.53125L1.1875-.3125Zm0 0"/><path id="d" d="M.29688-.10937.42188 0h4.5l.375-1.4375L5-1.5c-.23437.59375-.45312.67188-.89062.67188H1.32813c.17187-.5625.8125-1.34375 1.82812-2.07813 1.04688-.75 1.85938-1.25 1.85938-2.46875 0-1.51562-1.01563-2.03125-2.15625-2.03125-1.5 0-2.26563.90625-2.26563 1.46875 0 .375.42188.54688.59375.54688.20313 0 .26563-.10938.3125-.29688.1875-.75.60938-1.34375 1.28125-1.34375.84375 0 1.07813.70313 1.07813 1.5 0 1.17188-.59375 1.82813-1.54688 2.67188C.96875-1.6875.51563-.95312.29688-.10937m0 0"/><path id="e" d="M.29688-1.10937C.29688-.65625 1.0625.125 2.59375.125c1.57813 0 2.57813-.79687 2.57813-2.1875 0-1.46875-1.25-1.89062-1.85938-1.95312v-.04688c.59375-.09375 1.53125-.53125 1.53125-1.60937 0-1.20313-.9375-1.73438-2.10937-1.73438-1.4375 0-2.14063.82813-2.14063 1.29688 0 .32812.375.51562.53125.51562.14063 0 .21875-.07812.26563-.21875.25-.73437.65625-1.21875 1.26562-1.21875.85938 0 1.07813.76563 1.07813 1.375 0 .64063-.23438 1.46875-1.15625 1.46875-.53125 0-.82813-.10937-.95313-.10937-.14062 0-.20312.10937-.20312.3125 0 .1875.0625.29687.20312.29687.125 0 .42188-.10937.95313-.10937.92187 0 1.4375.84375 1.4375 1.79687 0 1.29688-.625 1.75-1.40625 1.75-.71875 0-1.1875-.53125-1.40625-1.15625-.0625-.20312-.17188-.3125-.32813-.3125-.1875 0-.57812.21875-.57812.60938m0 0"/><path id="g" d="m.21875-2.17187.09375.21875h2.96875v1.125c0 .35937-.10937.42187-.375.45312l-.70312.0625V0h2.875v-.3125L4.59375-.375c-.25-.03125-.32812-.09375-.32812-.45312v-1.125H5.375v-.5H4.26563v-4.82813h-.79688c-1.01562 1.5-2.25 3.39063-3.25 5.10938m.79688-.28125c.64062-1.1875 1.4375-2.45313 2.26562-3.76563v3.76563Zm0 0"/><path id="h" d="M.48438-3.35937c0 2.34375.85937 3.48437 2.5 3.48437 1.60937 0 2.46875-.96875 2.46875-2.45312 0-1.46875-.90625-2.28125-2.07813-2.28125-.85937 0-1.5.59375-1.78125.95312 0-2.40625.67188-3.375 1.65625-3.375.5 0 .85938.42188 1.01563 1.04688.03125.125.10937.23437.28125.23437.23437 0 .57812-.20312.57812-.5 0-.4375-.53125-1.15625-1.84375-1.15625-1.73437 0-2.79687 1.32813-2.79687 4.04688m1.10937.78125c0-.65625.5-1.46875 1.40625-1.46875.6875 0 1.35938.625 1.35938 1.875C4.35938-1.01562 3.92188-.25 3-.25c-.95312 0-1.40625-1.01562-1.40625-2.32812m0 0"/><path id="i" d="M.46875-1.98437C.46875-.875 1.14063.125 2.90625.125c1.75 0 2.42188-1 2.42188-2.10937s-.6875-1.76563-1.4375-1.9375c.67187-.17188 1.20312-.73438 1.20312-1.625 0-1.1875-.9375-1.85938-2.1875-1.85938-1.26562 0-2.20312.67188-2.20312 1.85938 0 .89062.5625 1.45312 1.20312 1.625-.71875.17187-1.4375.82812-1.4375 1.9375m1.07813.03124c0-.98437.48437-1.73437 1.35937-1.73437.85938 0 1.34375.75 1.34375 1.73438C4.25-.98437 3.8125-.25 2.90625-.25c-.92187 0-1.35937-.73437-1.35937-1.70312m.21874-3.625c0-.82812.39063-1.45312 1.14063-1.45312.73438 0 1.125.625 1.125 1.45313 0 .75-.34375 1.5-1.125 1.5-.79687 0-1.14062-.75-1.14062-1.5m0 0"/><path id="j" d="M.45313-3.64062c0 2.1875.64062 3.76562 2.45312 3.76562 1.79688 0 2.42188-1.57812 2.42188-3.76562 0-2.17188-.625-3.76563-2.42188-3.76563-1.8125 0-2.45312 1.59375-2.45312 3.76563m1.09375 0c0-1.78125.3125-3.39063 1.35937-3.39063 1.03125 0 1.3125 1.60938 1.3125 3.39063S3.9375-.25 2.90625-.25c-1.04687 0-1.35937-1.60937-1.35937-3.39062m0 0"/><clipPath id="a"><path d="M29 .4961h129.27734V203H29Zm0 0"/></clipPath><clipPath id="f"><path d="M140 189h18.27734v27H140Zm0 0"/></clipPath><clipPath id="k"><path d="M17 .4961h26V19H17Zm0 0"/></clipPath><clipPath id="l"><path d="M29.60156.89453h128.28125V214H29.60156Zm0 0"/></clipPath></defs><g clip-path="url(#a)"><path fill="none" stroke="#7f7f7f" stroke-dasharray=".39634810000000004 .9909000880000001" stroke-miterlimit="10" stroke-width=".39635" d="M29.60156 202.47656h128.28125M29.60156 165.82422h128.28125M29.60156 129.17188h128.28125M29.60156 92.51953h128.28125M29.60156 55.8672h128.28125M29.60156 19.21875h128.28125M29.60156 202.47656V.89062m36.65235 201.58594V.89062m36.64843 201.58594V.89062m36.65235 201.58594V.89062"/></g><use xlink:href="#b" x="13.55242" y="219.35008" fill="#7f7f7f"/><path fill="none" stroke="#7f7f7f" stroke-miterlimit="10" stroke-width=".39635" d="M66.2539 193.3125v18.32813"/><use xlink:href="#c" x="63.35403" y="223.59901" fill="#7f7f7f"/><path fill="none" stroke="#7f7f7f" stroke-miterlimit="10" stroke-width=".39635" d="M102.90234 193.3125v18.32813"/><use xlink:href="#d" x="100.00504" y="223.59901" fill="#7f7f7f"/><path fill="none" stroke="#7f7f7f" stroke-miterlimit="10" stroke-width=".39635" d="M139.55469 193.3125v18.32813"/><use xlink:href="#e" x="136.65705" y="223.59901" fill="#7f7f7f"/><path fill="none" stroke="#000" stroke-miterlimit="10" stroke-width=".79271" d="M11.27344 202.47656h140.46484"/><path d="M155.8789 202.47656c-.5078-.10547-2.74218-.70312-4.14062-1.35547v2.71094c1.39844-.65234 3.63281-1.25 4.14063-1.35547m0 0"/><g clip-path="url(#f)"><path fill="none" stroke="#000" stroke-miterlimit="10" stroke-width=".79271" d="M155.8789 202.47656c-.5078-.10547-2.74218-.70312-4.14062-1.35547v2.71094c1.39844-.65234 3.63281-1.25 4.14063-1.35547Zm0 0"/></g><path fill="none" stroke="#7f7f7f" stroke-miterlimit="10" stroke-width=".39635" d="M38.76172 165.82422H20.4375"/><use xlink:href="#d" x="10.09022" y="169.52957" fill="#7f7f7f"/><path fill="none" stroke="#7f7f7f" stroke-miterlimit="10" stroke-width=".39635" d="M38.76172 129.17188H20.4375"/><use xlink:href="#g" x="10.09022" y="132.81491" fill="#7f7f7f"/><path fill="none" stroke="#7f7f7f" stroke-miterlimit="10" stroke-width=".39635" d="M38.76172 92.51953H20.4375"/><use xlink:href="#h" x="10.09022" y="96.1629" fill="#7f7f7f"/><path fill="none" stroke="#7f7f7f" stroke-miterlimit="10" stroke-width=".39635" d="M38.76172 55.86719H20.4375"/><use xlink:href="#i" x="10.09022" y="59.51189" fill="#7f7f7f"/><path fill="none" stroke="#7f7f7f" stroke-miterlimit="10" stroke-width=".39635" d="M38.76172 19.21875H20.4375"/><g fill="#7f7f7f"><use xlink:href="#c" x="4.29369" y="22.85989"/><use xlink:href="#j" x="10.09036" y="22.85989"/></g><path fill="none" stroke="#000" stroke-miterlimit="10" stroke-width=".79271" d="M29.60156 220.80078V7.03516"/><path d="M29.60156 2.89453c-.10547.50781-.70703 2.74219-1.35937 4.14063h2.71484c-.65234-1.39844-1.25-3.63282-1.35547-4.14063m0 0"/><g clip-path="url(#k)"><path fill="none" stroke="#000" stroke-miterlimit="10" stroke-width=".79271" d="M29.60156 2.89453c-.10547.50781-.70703 2.74219-1.35937 4.14063h2.71484c-.65234-1.39844-1.25-3.63282-1.35547-4.14063Zm0 0"/></g><g clip-path="url(#l)"><path fill="none" stroke="#007f7f" stroke-miterlimit="10" stroke-width=".79271" d="M29.60156 202.47656s3.85938-.17187 5.34375-.39062c1.48438-.21485 3.86328-.73438 5.34375-1.16797 1.48438-.4336 3.86328-1.30078 5.34766-1.94922 1.48047-.64844 3.85937-1.86328 5.34375-2.72656 1.48437-.86719 3.85937-2.42578 5.34375-3.50781s3.86328-2.98829 5.34375-4.28907c1.48437-1.29687 3.86328-3.55078 5.34766-5.0664 1.48046-1.51172 3.85937-4.11328 5.34375-5.84375s3.86328-4.6797 5.34375-6.625c1.48437-1.94532 3.86328-5.2422 5.34765-7.40625 1.48047-2.16016 3.85938-5.8047 5.34375-8.1836s3.85938-6.36718 5.34375-8.96093c1.48438-2.59766 3.86328-6.9336 5.34375-9.7461 1.48438-2.8086 3.86328-7.49219 5.34766-10.51953 1.48047-3.02734 3.85937-8.0586 5.34375-11.30078 1.48437-3.2461 3.86328-8.6211 5.34375-12.08203 1.48437-3.46094 3.86328-9.1836 5.34765-12.85938 1.48047-3.67968 3.85938-9.75 5.34375-13.64062 1.48438-3.89453 3.86329-10.3125 5.34375-14.42188 1.48438-4.10937 3.86329-10.87109 5.34375-15.19922 1.48438-4.32421 3.86329-11.43359 5.34766-15.97656 1.48047-4.54297 3.85938-12 5.34375-16.75781s3.86328-12.5625 5.34375-17.53516C154.01563-8.65625 157.87891-22 157.87891-22"/></g><use xlink:href="#m" x="25.24693" y="205.48535"/><use xlink:href="#m" x="43.57243" y="200.90323"/><use xlink:href="#m" x="61.89794" y="187.15885"/><use xlink:href="#m" x="80.22344" y="164.25222"/><use xlink:href="#m" x="98.54994" y="132.18234"/><use xlink:href="#m" x="116.87545" y="90.94921"/><use xlink:href="#m" x="135.20095" y="40.55283"/></svg>