<svg xmlns="http://www.w3.org/2000/svg" xmlns:xlink="http://www.w3.org/1999/xlink" width="163.692pt" height="101.652pt" viewBox="0 0 163.692 101.652"><defs><path id="a" d="M0 0h3.71875c2.42188 0 3.82813-.875 4.70313-2.1875.70312-1.04687.8125-2.07812.8125-2.79687 0-.98438-.34375-1.95313-1.03125-2.54688-.71875-.59375-1.79688-.85937-3.14063-.85937H1.79688l-.07813.34375.71875.0625c.20313.01562.28125.10937.28125.3125 0 .0625-.01562.17187-.03125.29687L1.23438-1c-.07813.39063-.1875.54688-.48438.57813l-.6875.07812Zm2.40625-.89062v-.15626L3.875-7.53124c.09375-.40625.26563-.4375 1.32813-.4375 2.53125.04688 2.73437 1.75 2.73437 2.71875 0 1.04688-.25 2.01563-.78125 2.92188-.70312 1.14062-1.73437 1.90625-3.75 1.90625-.59375 0-1-.07813-1-.46875m0 0"/><path id="b" d="M.125 0h6.32813l.625-2.125h-.35938c-.625 1.5-1.17187 1.70313-2.67187 1.70313-1.42188 0-1.5-.1875-1.5-.5 0-.14063.03125-.3125.09375-.5625L3.25-4.14062h1.59375c.90625 0 1.0625.17187 1.0625.70312 0 .10938 0 .20313-.01562.34375h.375l.5625-2.53125h-.375c-.3125.84375-.4375 1.03125-1.51563 1.03125H3.35938l.6875-3.01562c.0625-.29688.14062-.35938.34375-.35938h1.45312c1.1875 0 1.4375.29688 1.4375.95313 0 .29687-.04687.64062-.04687.64062h.375l.4375-2.01562h-6.125l-.09376.34375.73438.0625c.21875.01562.29688.09375.29688.29687 0 .07813 0 .15625-.03125.28125L1.375-1c-.09375.40625-.20312.54688-.5.57813l-.6875.07812Zm0 0"/><path id="c" d="M.125 0h3.53125l.07813-.34375-.92188-.0625C2.59375-.42187 2.5-.53125 2.5-.70312c0-.07813.01563-.15626.04688-.26563l.67187-3h1.60938c.89062 0 1.0625.17188 1.0625.6875 0 .10938 0 .21875-.01563.34375h.35938l.5625-2.53125H6.4375c-.3125.84375-.45312 1.04688-1.51562 1.04688H3.3125l.73438-3.1875c.0625-.29688.14062-.35938.35937-.35938h1.48438c1.1875 0 1.42187.29688 1.42187.95313 0 .29687-.04687.625-.04687.625h.375l.45312-2H1.92188l-.07813.34375.71875.07812c.21875 0 .29688.10938.29688.29688 0 .0625 0 .15625-.03125.25L1.375-.96875c-.07812.35938-.20312.53125-.5.5625l-.6875.0625Zm0 0"/><path id="d" d="m.125-1.21875.09375.14063H1.8125v.625c0 .17187-.0625.20312-.1875.21875l-.39062.03124V0h1.71875v-.20312l-.28125-.01563C2.54688-.25 2.5-.28125 2.5-.45312v-.625h.60938v-.32813H2.5v-2.64062h-.57812C1.3125-3.15625.67188-2.15625.125-1.21875m.53125-.1875c.32813-.625.73438-1.28125 1.15625-1.96875v1.96875Zm0 0"/><path id="g" d="M.26563-.67187c0 .25.35937.75 1.28125.75 1.0625 0 1.48437-.625 1.48437-1.375 0-.71875-.40625-1.29688-1.29687-1.29688-.35938 0-.71875.15625-.92188.32813l.10938-1c.03124-.1875.0625-.20313.20312-.20313h1.54688l.1875-.51562-.03125-.0625H.67188L.60938-4l-.125 2.01563.20312.125c.23438-.28126.48438-.42188.79688-.42188.39062 0 .76562.29688.76562 1.0625 0 .60938-.20312 1.04688-.67187 1.04688-.35938 0-.54688-.25-.70313-.6875-.03125-.10938-.10937-.17188-.23437-.17188-.15626 0-.375.14063-.375.35938m0 0"/><path id="h" d="M.1875-.67187c0 .25.35938.75 1.32813.75.92187 0 1.5-.4375 1.5-1.21875 0-.82813-.73438-1.04688-1.03125-1.07813v-.01562c.32812-.0625.85937-.29688.85937-.89063 0-.75-.625-1-1.26562-1-.76563 0-1.25.42188-1.25.76563 0 .21875.26562.32812.375.32812s.15624-.0625.1875-.15625c.14062-.4375.34375-.70312.65625-.70312.42187 0 .53125.4375.53125.75 0 .29687-.09375.8125-.57813.8125-.26562 0-.45312-.07813-.54687-.07813-.10938 0-.14063.07813-.14063.20313S.84375-2 .95313-2c.09374 0 .28124-.0625.54687-.0625.42188 0 .71875.3125.71875.95313 0 .67187-.29687.9375-.6875.9375-.34375 0-.57812-.25-.71875-.6875-.04687-.125-.10937-.1875-.21875-.1875-.17187 0-.40625.14062-.40625.375m0 0"/><path id="e" d="M.29688-1.45312c0 1.01562.5 1.53125 1.40625 1.53125.42187 0 1-.21875 1.17187-.875l-.1875-.09376C2.5-.45312 2.26563-.25 1.8125-.25 1.09375-.25.92188-1 .92188-1.5625c0-.90625.35937-1.26562.78125-1.26562.28124 0 .45312.1875.57812.53125.03125.09375.07813.14062.1875.14062.125 0 .35938-.0625.35938-.29687 0-.28125-.40625-.59375-1.0625-.59375-1.09375 0-1.46875.78125-1.46875 1.59375m0 0"/><path id="f" d="M.1875 0h1.48438v-.17187c-.4375-.03126-.45313-.04688-.45313-.35938v-1.42187c0-.15626 0-.23438.04688-.3125.10937-.25.375-.45313.71875-.45313.51562 0 .57812.375.57812.75v1.4375c0 .3125-.01562.32813-.45312.35938V0h1.48437v-.17187c-.4375-.03126-.45312-.04688-.45312-.35938v-1.42187c0-.15626 0-.23438.04687-.32813.07813-.23437.34375-.4375.6875-.4375.375 0 .60938.21875.60938.75v1.4375c0 .3125-.01563.32813-.45313.35938V0h1.48438v-.17187c-.4375-.03126-.46875-.04688-.46875-.35938v-1.54687c0-.60938-.32813-.96875-.89063-.96875-.5 0-.85937.32812-1.07812.46875-.14063-.28125-.375-.46875-.79688-.46875-.46875 0-.84375.3125-1.0625.46875l-.0625-.46875-.9375.15625V-2.75l.23438.04688c.15625.01562.20312.04687.20312.26562v1.90625c0 .3125-.03125.32813-.46875.35938Zm0 0"/></defs><path fill="none" stroke="#000" stroke-miterlimit="10" stroke-width=".39714" d="m56.44922 84.05469 89.06638-51.42577-127.63668-15.3789Zm0 0"/><use xlink:href="#a" x="51.42714" y="97.00292"/><use xlink:href="#b" x="150.07642" y="36.82493"/><use xlink:href="#c" x="4.42804" y="12.69155"/><use xlink:href="#d" x="105.54287" y="66.95478"/><use xlink:href="#e" x="110.22764" y="66.95478"/><use xlink:href="#f" x="113.23502" y="66.95478"/><use xlink:href="#g" x="75.05425" y="20.31047"/><use xlink:href="#e" x="79.74031" y="20.31047"/><use xlink:href="#f" x="82.7477" y="20.31047"/><use xlink:href="#h" x="19.31607" y="52.67965"/><use xlink:href="#e" x="24.00212" y="52.67965"/><use xlink:href="#f" x="27.00951" y="52.67965"/></svg>