<svg xmlns="http://www.w3.org/2000/svg" xmlns:xlink="http://www.w3.org/1999/xlink" width="112.763pt" height="115.452pt" viewBox="0 0 112.763 115.452"><defs><path id="a" d="M.39063-.8125c.46875.625 1.64062 1 2.51562 1C5.26563.15625 5.98438-1.20312 5.98438-2.5c0-1.09375-.59375-1.78125-1.82813-2.40625-.70312-.35937-1.54687-.78125-1.54687-1.6875 0-.875.625-1.54687 1.6875-1.54687 1.21875 0 1.45312.5625 1.45312 1.89062h.35938l.42187-1.70312c-.51562-.40625-1.40625-.625-2.15625-.625-2.125 0-2.79687 1.39062-2.79687 2.42187 0 1.125.78125 1.71875 1.76562 2.20313C4.3125-3.46875 4.89063-2.96875 4.89063-2c0 1-.79688 1.75-1.82813 1.75-1.625 0-1.92187-1.25-2-2.42187H.70313Zm0 0"/><path id="b" d="M0 0h3.3125l.07813-.34375-.71875-.0625c-.20313 0-.29688-.125-.29688-.3125 0-.07812.01563-.1875.03125-.28125l.76563-3.375h.03125c.54687 1.14063 1.14062 2.34375 1.875 3.35938C5.65625-.23437 6.1875.03124 7.10938.04688l.59375.01562.09375-.35937c-.6875-.0625-.98438-.39063-1.42188-.92188-.8125-1.03125-1.625-2.5-2.14062-3.5625 1.10937-.92187 2.10937-1.75 3.21875-2.53125.6875-.48437.98437-.65625 1.95312-.71875l.0625-.34375H6.4375l-.04687.34375.46875.04688c.125 0 .17187.0625.17187.14062 0 .0625-.07812.14063-.1875.25L3.26563-4.51562h-.0625L3.85938-7.375c.07812-.375.20312-.57812.51562-.60937l.67188-.04688L5.125-8.375H1.79688l-.07813.34375.71875.04688c.20313.01562.29688.14062.29688.34375 0 .07812-.01563.17187-.04688.26562L1.23438-1c-.09376.375-.20313.54688-.5.57813L.0625-.34375Zm0 0"/><path id="c" d="M.25 0h3.32813l.0625-.34375-.71875-.0625c-.20313 0-.29688-.125-.29688-.3125 0-.07812.01563-.1875.04688-.28125l1.4375-6.375c.09375-.375.20312-.57812.51562-.60937l.67188-.04688L5.375-8.375H2.0625l-.09375.34375.71875.04688c.21875.01562.29688.14062.29688.34375 0 .07812 0 .17187-.03125.26562L1.5-1c-.09375.375-.21875.54688-.5.57813l-.67187.07812Zm0 0"/><path id="d" d="M.21875-1.125c0 .75.54688 1.20313 1.4375 1.20313.90625 0 1.4375-.45313 1.4375-1.20313 0-.57812-.35937-.9375-.79687-1.0625.34375-.09375.65625-.39062.65625-.875 0-.67187-.53125-1.04687-1.29688-1.04687-.76562 0-1.29687.375-1.29687 1.04687 0 .48438.3125.78125.67187.875-.4375.125-.8125.48438-.8125 1.0625m.76563.03125c0-.53125.23437-.9375.67187-.9375s.67188.40625.67188.9375-.21875.92188-.67188.92188c-.45312 0-.67187-.39063-.67187-.92188m.10937-1.98437c0-.46875.20313-.79688.5625-.79688.375 0 .57813.32813.57813.79688 0 .42187-.1875.79687-.57813.79687-.375 0-.5625-.375-.5625-.79687m0 0"/><path id="e" d="m.3125.76563.15625.125c.29688-.28126.8125-.71875.8125-1.20313 0-.3125-.17187-.57812-.46875-.57812-.23437 0-.35937.1875-.35937.34375 0 .21874.17187.32812.17187.57812C.625.29688.5.54688.3125.76563m0 0"/><path id="f" d="M.26563-.65625c0 .23438.35937.73438 1.28125.73438 1.04687 0 1.48437-.625 1.48437-1.375 0-.71875-.42187-1.29688-1.29687-1.29688-.375 0-.71875.15625-.92188.32813L.92188-3.25c.03124-.1875.0625-.20312.20312-.20312h1.54688l.1875-.53125-.04688-.0625H.65625l-.04687.0625-.125 2.01562.20312.125c.23438-.29687.48438-.42187.78125-.42187.40625 0 .78125.29687.78125 1.04687 0 .60938-.20312 1.04688-.67187 1.04688-.35938 0-.54688-.25-.70313-.6875-.03125-.10938-.10937-.17188-.23437-.17188-.15626 0-.375.14063-.375.375m0 0"/><path id="g" d="M.1875-.07812.25 0h2.625l.23438-.92187-.20313-.03126c-.14062.32813-.25.375-.5.375H.875C.96875-.84374 1.25-1.25 1.85938-1.625c.64062-.40625 1.0625-.6875 1.0625-1.34375 0-.84375-.57813-1.14062-1.28125-1.14062-.79688 0-1.3125.45312-1.3125.85937 0 .23438.26562.34375.40625.34375.125 0 .1875-.0625.21874-.20312.09376-.4375.3125-.76563.65626-.76563.39062 0 .53125.34375.53125.78125 0 .53125-.21875.9375-.8125 1.45313C.53125-.96875.25-.51562.1875-.07812m0 0"/><path id="j" d="M.65625 0h2.0625v-.20312L2.25-.23438c-.125-.01562-.20312-.0625-.20312-.28124v-3.5625l-.03125-.03125-1.34375.21875v.17187l.48437.0625c.125.03125.17188.07813.17188.26563v2.875c0 .21874-.0625.26562-.20313.28124l-.46875.03126Zm0 0"/><path id="k" d="M.1875-.65625c0 .23438.35938.73438 1.32813.73438C2.4375.07813 3-.35937 3-1.14062c0-.82813-.73437-1.03125-1.01562-1.0625v-.03125c.32812-.0625.84375-.29688.84375-.875 0-.75-.625-1-1.25-1-.76563 0-1.25.40625-1.25.75 0 .21875.25.32812.375.32812.10937 0 .15624-.04687.1875-.15625.14062-.4375.34375-.6875.65625-.6875.42187 0 .51562.4375.51562.73438 0 .29687-.07812.8125-.5625.8125-.26562 0-.45312-.0625-.54687-.0625-.10938 0-.14063.0625-.14063.20312 0 .10938.03125.20313.14063.20313.09374 0 .28124-.07813.54687-.07813.42188 0 .71875.32813.71875.95313 0 .67187-.29687.9375-.6875.9375-.34375 0-.57812-.25-.71875-.6875q-.07031-.1875-.23437-.1875c-.15626 0-.39063.14062-.39063.39062m0 0"/><path id="l" d="M.23438-1.90625C.23438-.64062.6875.07813 1.70313.07813c.96875 0 1.4375-.60938 1.4375-1.39063 0-.84375-.53125-1.26562-1.17188-1.26562-.4375 0-.78125.28125-.96875.51562 0-.95312.25-1.8125.8125-1.8125.26563 0 .45313.23438.54688.60938.01562.07812.09375.15625.20312.15625.14063 0 .39063-.10938.39063-.3125 0-.26563-.34375-.6875-1.09375-.6875-1 0-1.625.73437-1.625 2.20312M1-1.42187c0-.35938.25-.76563.6875-.76563.35938 0 .6875.3125.6875 1 0 .59375-.1875 1.01563-.65625 1.01563-.48437 0-.71875-.5625-.71875-1.25m0 0"/><path id="y" d="M0-3.26562h.15625c.14063-.51563 1.3125-.96875 2.32813-.96875h.5v-.54688h-.5C1.5-4.78125 0-4.34375 0-3.45312Zm0 0"/><path id="z" d="M0-4.23437h2.42188v-.54688H0Zm0 0"/><path id="A" d="M0-4.23437c1.98438 0 2.6875-.51563 2.89063-1 .28125.46875.84375 1 2.90625 1v-.54688c-2.17188 0-2.64063-.57812-2.82813-.96875H2.8125c-.17187.39063-.65625.96875-2.8125.96875Zm0 0"/><path id="B" d="M0-4.23437h.5c1.01563 0 2.1875.45312 2.3125.96875h.15625v-.1875c0-.89063-1.48437-1.32813-2.46875-1.32813H0Zm0 0"/><path id="C" d="m.125-1.21875.09375.15625H1.8125v.60938c0 .17187-.0625.20312-.1875.21875l-.39062.03124V0H2.9375v-.20312l-.28125-.01563C2.53125-.25 2.5-.28125 2.5-.45312v-.60938h.60938v-.34375H2.5v-2.64062h-.57812C1.3125-3.15625.67188-2.15625.125-1.21875m.53125-.1875C.98438-2.01562 1.39063-2.6875 1.8125-3.375v1.96875Zm0 0"/><path id="h" d="M.29688-1.45312c0 1.01562.5 1.53125 1.40625 1.53125.42187 0 1-.21875 1.15625-.875L2.6875-.875c-.1875.42188-.42187.625-.875.625-.71875 0-.89062-.75-.89062-1.3125 0-.90625.35937-1.26562.78125-1.26562.26562 0 .45312.20312.5625.53125.04687.09375.07812.15625.20312.15625s.34375-.07813.34375-.3125c0-.28125-.39062-.57813-1.04687-.57813-1.10938 0-1.46875.76563-1.46875 1.57813m0 0"/><path id="i" d="M.1875 0h1.48438v-.17187c-.4375-.03126-.45313-.04688-.45313-.35938V-1.9375c0-.15625 0-.25.04688-.32812.10937-.25.375-.4375.70312-.4375.53125 0 .59375.375.59375.75v1.42187c0 .3125-.01562.32813-.45312.35938V0h1.46875v-.17187C3.14063-.20313 3.125-.21875 3.125-.53125V-1.9375c0-.15625.01563-.23437.04688-.32812.09375-.25.34375-.4375.6875-.4375.39062 0 .60937.20312.60937.75v1.42187c0 .3125-.01562.32813-.45312.35938V0H5.5v-.17187c-.4375-.03126-.45312-.04688-.45312-.35938v-1.54687c0-.60938-.32813-.95313-.90625-.95313-.5 0-.84375.32813-1.0625.45313-.15625-.28125-.375-.45313-.8125-.45313-.45313 0-.84375.29688-1.04688.45313l-.0625-.45313-.9375.14063v.15625l.23438.03125c.15625.03125.20312.04687.20312.26562v1.90625c0 .3125-.03125.32813-.46875.35938Zm0 0"/><path id="m" d="M.29688-2.04687C.29688-.76562.95313.09375 2.5.09375c.42188 0 1.0625-.07812 1.42188-.29687l.0625-1.17188h-.21875c-.23438.65625-.5 1.1875-1.17188 1.1875-1.07812 0-1.23437-1.28125-1.23437-1.96875C1.35938-2.59375 1.45312-4 2.54688-4c.76562 0 .96875.64063 1.10937 1.07813h.23438v-1.09375c-.35938-.21875-1-.26563-1.29688-.26563-.85937 0-1.42187.23438-1.78125.64063-.375.40625-.51562.98437-.51562 1.59375m0 0"/><path id="n" d="m.67188-3.3125.15624.17188.75-.57813c.09376-.04687.17188-.10937.21876-.10937.0625 0 .15624.0625.23437.10937l.76563.57813.14062-.17188-.85937-1.01562c-.09375-.10938-.1875-.1875-.28125-.1875-.07813 0-.17188.07812-.26563.1875Zm-.4375 1.82813c0 .96875.46875 1.5625 1.5625 1.5625 1.10937 0 1.57812-.59375 1.57812-1.5625s-.46875-1.54688-1.57812-1.54688c-1.09375 0-1.5625.57813-1.5625 1.54688m.96875 0c0-.8125.17187-1.28125.59375-1.28125.4375 0 .60937.46875.60937 1.28125S2.23438-.20312 1.79688-.20312c-.42188 0-.59375-.46875-.59375-1.28125m0 0"/><path id="o" d="M.21875-2.67187h.35938v1.96875c0 .54687.40625.78125.75.78125.25 0 .625-.10938.96875-.32813l-.0625-.1875c-.09375.03125-.21875.0625-.34375.0625C1.65625-.375 1.5-.54687 1.5-.9375v-1.73437h.625v-.29688H1.5v-.76562h-.35937l-.53125.76562H.21875Zm0 0"/><path id="p" d="m1.17188-3.28125.125.1875 1.10937-.625c.21875-.125.40625-.23437.40625-.39062s-.15625-.375-.3125-.375c-.125 0-.21875.07812-.45312.3125Zm-.9375 1.79688c0 .82812.35937 1.5625 1.48437 1.5625.71875 0 1.10938-.35938 1.3125-.89063l-.21875-.125c-.17187.35938-.4375.54688-.79687.54688-.60938 0-.8125-.5-.8125-1.14063h1.5625c.21875 0 .32812-.04687.32812-.25 0-.48437-.20312-1.25-1.35937-1.25-1.09375 0-1.5.70313-1.5 1.54688m.96875-.32813c0-.4375.10937-.95312.5-.95312.375 0 .4375.46875.4375.75 0 .17187-.04688.20312-.1875.20312Zm0 0"/><path id="q" d="M.14063 0h1.70312v-.23437C1.5-.25 1.46875-.28125 1.46875-.53125v-3.92187l-.0625-.03125-1.21875.15625v.21875l.21875.03125C.5-4.0625.54688-4 .54688-3.76562v3.23437c0 .25-.04688.28125-.40625.29688Zm0 0"/><path id="r" d="M.23438-1.48437c0 .82812.35937 1.5625 1.48437 1.5625.71875 0 1.10938-.35938 1.3125-.89063l-.21875-.125c-.17187.35938-.4375.54688-.79687.54688-.60938 0-.8125-.5-.8125-1.14063h1.5625c.21875 0 .32812-.04687.32812-.25 0-.48437-.20312-1.25-1.35937-1.25-1.09375 0-1.5.70313-1.5 1.54688m.96875-.32813c0-.4375.10937-.95312.5-.95312.375 0 .4375.46875.4375.75 0 .17187-.04688.20312-.1875.20312Zm0 0"/><path id="s" d="M.14063 1.15625v.23438h1.8125v-.23438c-.4375-.01562-.48438-.04687-.48438-.29687V0c.09375.04688.29688.07813.46875.07813.89063 0 1.60938-.3125 1.60938-1.64063 0-1-.53125-1.46875-1.09375-1.46875-.42188 0-.70313.1875-.98438.40625l-.10937-.40625-1.17188.17188v.21875l.21875.03125c.09375.01562.14063.04687.14063.29687V.85938c0 .25-.04688.28124-.40625.29687M1.46875-.92187V-1.875c0-.125 0-.25.03125-.32812.07813-.23438.23438-.375.48438-.375.28124 0 .60937.15625.60937 1.14062 0 .75-.17187 1.23438-.64062 1.23438-.26563 0-.40625-.14063-.46875-.40625-.01563-.09376-.01563-.20313-.01563-.3125m0 0"/><path id="t" d="m.1875-2.64062.20313.03125c.09375.01562.14062.04687.14062.29687v1.46875c0 .71875.4375.92188.875.92188.51563 0 .82813-.28126 1.07813-.42188L2.53125 0h1.25v-.23437c-.34375-.01563-.375-.04688-.375-.29688V-3l-.0625-.03125-1.21875.17188v.21875l.21875.03125c.09375.01562.14063.04687.14063.29687v1.28125c0 .10938-.01563.25-.04688.34375-.0625.14063-.21875.28125-.48437.28125-.32813 0-.51563-.1875-.51563-.65625V-3l-.04687-.03125-1.20313.17188Zm0 0"/><path id="u" d="m.26563-1.125.0625.90625C.5625 0 1.03125.07813 1.35938.07813c.75 0 1.25-.32813 1.25-.98438 0-.51562-.34375-.78125-.89063-.98437-.35937-.125-.60937-.26563-.60937-.51563 0-.1875.14062-.35937.39062-.35937.29688 0 .5625.28125.67188.75h.23437v-.8125c-.25-.15625-.59375-.20313-.90625-.20313-.75 0-1.20312.34375-1.20312.95313 0 .4375.35937.71875.89062.92187.3125.10938.60938.29688.60938.57813 0 .23437-.15626.375-.42188.375C.98438-.20312.65625-.625.5-1.125Zm0 0"/><path id="v" d="M.23438-1.48437c0 .96875.46875 1.5625 1.5625 1.5625 1.10937 0 1.57812-.59375 1.57812-1.5625s-.46875-1.54688-1.57812-1.54688c-1.09375 0-1.5625.57813-1.5625 1.54688m.96875 0c0-.8125.17187-1.28125.59375-1.28125.4375 0 .60937.46875.60937 1.28125S2.23438-.20312 1.79688-.20312c-.42188 0-.59375-.46875-.59375-1.28125m0 0"/><path id="w" d="M.1875 0h1.625v-.23437L1.70313-.25C1.57813-.25 1.5-.28125 1.5-.46875v-1.45312c0-.125.01563-.26563.0625-.34375.07813-.15625.23438-.3125.48438-.3125.3125 0 .48437.20312.48437.5625v1.54687c0 .1875-.0625.21875-.1875.21875l-.125.01563V0h1.625v-.23437C3.5-.25 3.4375-.28125 3.4375-.53125v-1.57812c0-.5625-.28125-.92188-.90625-.92188-.34375 0-.64062.17188-1.03125.40625l-.07812-.40625-1.20313.17188v.21875l.21875.03125c.09375.01562.14063.04687.14063.29687v1.78125c0 .25-.03126.28125-.39063.29688Zm0 0"/><path id="x" d="M.1875.57813c0 .59375.64063.89062 1.5.89062.26563 0 .70313-.0625 1-.21875.34375-.1875.5625-.5.5625-.9375 0-.71875-.5625-.95312-1.20312-.95312H1.5c-.29687 0-.40625-.09376-.40625-.20313 0-.14062.15625-.20312.23438-.21875.10937.01563.20312 0 .28124 0 .70313 0 1.35938-.25 1.35938-.96875 0-.1875-.07812-.375-.15625-.46875l.40625-.07812.10938-.45313-.04688-.0625-.76562.25c-.20313-.10937-.54688-.1875-.875-.1875-1.07813 0-1.40625.54688-1.40625 1.01563 0 .51562.375.8125.75.875-.40625.10937-.65625.32812-.65625.5625C.32813-.3125.625-.0625.89063 0 .64063.0625.1875.17188.1875.57813M1 .51563C1 .35937 1.07813.25 1.15625.1875 1.25.125 1.42188.09375 1.6875.09375c.51563 0 .82813.125.82813.48438 0 .4375-.32813.60937-.73438.60937S1 .95313 1 .51563m.1875-2.54688c0-.51562.20313-.73437.45313-.73437.23437 0 .45312.21875.45312.73437 0 .42188-.1875.70313-.45312.70313s-.45313-.28126-.45313-.70313m0 0"/></defs><path fill="none" stroke="#000" stroke-miterlimit="10" stroke-width=".39662" d="m16.33203 65.09374 35.9297 32.51954 7.39062-80.38673Zm0 0"/><use xlink:href="#a" x="4.44502" y="78.22172"/><use xlink:href="#b" x="56.81644" y="110.54628"/><use xlink:href="#c" x="56.56563" y="12.67484"/><use xlink:href="#d" x="7.42985" y="90.02668"/><use xlink:href="#e" x="10.74909" y="90.02668"/><use xlink:href="#f" x="13.15312" y="90.02668"/><use xlink:href="#g" x="16.47236" y="90.02668"/><use xlink:href="#h" x="21.15252" y="90.02668"/><use xlink:href="#i" x="24.15594" y="90.02668"/><use xlink:href="#j" x="7.80607" y="42.77696"/><use xlink:href="#j" x="11.12531" y="42.77696"/><use xlink:href="#e" x="14.44454" y="42.77696"/><use xlink:href="#k" x="16.84858" y="42.77696"/><use xlink:href="#l" x="20.16781" y="42.77696"/><use xlink:href="#h" x="24.84748" y="42.77696"/><use xlink:href="#i" x="27.85091" y="42.77696"/><use xlink:href="#m" x="60.5109" y="54.71658"/><use xlink:href="#n" x="64.74535" y="54.71658"/><use xlink:href="#o" x="68.34817" y="54.71658"/><use xlink:href="#p" x="70.64908" y="54.71658"/><use xlink:href="#q" x="75.18" y="54.71658"/><use xlink:href="#r" x="77.11354" y="54.71658"/><use xlink:href="#s" x="81.64446" y="54.71658"/><use xlink:href="#q" x="85.43419" y="54.71658"/><use xlink:href="#t" x="87.36773" y="54.71658"/><use xlink:href="#u" x="91.24125" y="54.71658"/><use xlink:href="#q" x="95.3339" y="54.71658"/><use xlink:href="#v" x="97.26744" y="54.71658"/><use xlink:href="#w" x="100.87027" y="54.71658"/><use xlink:href="#x" x="104.79534" y="54.71658"/><use xlink:href="#y" x="73.14025" y="62.613"/><use xlink:href="#z" x="75.62807" y="62.613"/><use xlink:href="#z" x="77.54872" y="62.613"/><use xlink:href="#z" x="79.47581" y="62.613"/><use xlink:href="#A" x="81.39646" y="62.613"/><use xlink:href="#z" x="86.70724" y="62.613"/><use xlink:href="#z" x="88.63433" y="62.613"/><use xlink:href="#z" x="90.55498" y="62.613"/><use xlink:href="#B" x="92.48207" y="62.613"/><use xlink:href="#j" x="73.14025" y="63.75936"/><use xlink:href="#C" x="76.45949" y="63.75936"/><use xlink:href="#e" x="79.77873" y="63.75936"/><use xlink:href="#g" x="82.18276" y="63.75936"/><use xlink:href="#h" x="86.86292" y="63.75936"/><use xlink:href="#i" x="89.86635" y="63.75936"/></svg>