<svg xmlns="http://www.w3.org/2000/svg" xmlns:xlink="http://www.w3.org/1999/xlink" width="219.105pt" height="219.841pt" viewBox="0 0 219.105 219.841"><defs><path id="a" d="M-.35937 0h4.20312l.125-.53125L2.9375-.64062c-.23437-.01563-.34375-.14063-.34375-.3125 0-.09376.04688-.23438.10938-.375.60937-1.1875 1.20312-2.40625 1.90625-3.65625h4.1875L9.25-1.125s-.10937.45313-.5.48438l-.98437.10937L7.65625 0H12.25l.10938-.53125-.71875-.0625c-.5625-.0625-.64063-.3125-.75-1.09375L9.53125-12.90625H8.20313l-3.14063 5.5c-.95312 1.67188-2.5 4.45313-3.20312 5.5625C1.26563-.875.95313-.67187.375-.60937l-.60937.07812Zm5.34375-5.6875 3.03125-5.48437.67187 5.48437Zm0 0"/><path id="b" d="M0 0h5.65625c4.5 0 5.42188-2.32812 5.42188-3.875 0-1.95312-1.45313-2.8125-2.82813-3.07812l.03125-.03125C10.75-7.28125 11.8125-8.6875 11.8125-10.09375c0-1.51562-.89062-2.8125-4.32812-2.8125H2.76563l-.125.54688 1.10937.09375c.3125.01562.45313.15625.45313.45312 0 .125-.03125.28125-.07813.46875L1.92188-1.54687c-.14063.60937-.3125.82812-.76563.89062l-1.0625.125Zm3.73438-1.42187c0-.14063.01562-.28126.0625-.42188L4.85938-6.625h.73437c1.84375 0 3.46875.53125 3.46875 2.65625 0 1.67188-1 3.3125-3.5 3.3125-1.46875 0-1.82812-.29687-1.82812-.76562M5-7.28125l.96875-4.32812c.14063-.5625.25-.65625 1.5-.65625 1.5625 0 2.4375.79687 2.4375 2.10937 0 1.9375-1.625 2.875-3.6875 2.875Zm0 0"/><path id="c" d="M.96875-5.125C.96875-2.65625 2.1875.28125 6.8125.28125c1.32813 0 2.59375-.1875 3.78125-.78125l.92188-2.96875h-.5625C9.92188-1.60937 8.98438-.375 6.6875-.375c-2.15625 0-3.70312-1.39062-3.70312-4.26562 0-1.6875.42187-3.75 1.32812-5.23438.92188-1.57812 2.39063-2.67187 4.40625-2.67187 2.35938 0 3.03125 1.09375 3.03125 3.14062h.57813L13-12.20312c-1.07812-.67188-2.8125-1-4.125-1-3.51562 0-5.54687 1.65625-6.625 3.40625C1.20313-8.14062.96875-6.40625.96875-5.125m0 0"/><path id="d" d="M0 0h5.71875c3.73438 0 5.89063-1.34375 7.23438-3.375 1.07812-1.60937 1.25-3.17187 1.25-4.28125 0-1.51562-.53125-3.01562-1.60938-3.90625-1.07812-.92187-2.75-1.34375-4.8125-1.34375H2.76563l-.125.54688 1.10937.07812c.3125.01563.4375.17188.4375.46875 0 .125-.01562.28125-.0625.46875L1.90625-1.54687c-.14062.60937-.29687.85937-.75.89062l-1.0625.125Zm3.6875-1.375c0-.07812 0-.15625.01563-.23437l2.25-9.95313c.15625-.64062.42187-.70312 2.04687-.70312 3.89063.07812 4.20313 2.70312 4.20313 4.1875 0 1.60937-.375 3.10937-1.20313 4.5-1.07812 1.75-2.67187 2.92187-5.76562 2.92187-.90625 0-1.54688-.125-1.54688-.71875m0 0"/><path id="e" d="M.20313 0h9.71875l.95312-3.28125h-.5625c-.95312 2.3125-1.78125 2.625-4.07812 2.625-2.20313 0-2.32813-.28125-2.32813-.76562 0-.20313.0625-.48438.14063-.85938L5-6.375h2.4375c1.39063 0 1.65625.28125 1.65625 1.09375 0 .15625 0 .3125-.03125.51563h.5625l.875-3.89063h-.57812C9.45313-7.35937 9.25-7.0625 7.59375-7.0625h-2.4375l1.0625-4.64062c.09375-.46875.20313-.5625.53125-.5625h2.23438c1.82812 0 2.20312.48437 2.20312 1.48437 0 .46875-.0625.98438-.0625.98438h.5625l.6875-3.10938H2.95313l-.14063.54688 1.14063.07812c.3125.01563.45312.15625.45312.45313 0 .125-.01562.26562-.0625.4375L2.125-1.54687c-.15625.64062-.3125.85937-.78125.89062l-1.04687.125Zm0 0"/><path id="f" d="M.375-3.57812C.375-2 1.10938.1875 4.48438.1875c.92187 0 1.85937-.125 2.70312-.53125l.64063-2.20312h-.40625C6.67188-1.21875 6-.3125 4.4375-.3125 3-.3125 1.96875-1.23437 1.96875-3.20312c0-2.15625.98438-5.53125 3.92188-5.53125 1.625 0 2.0625.85937 2.0625 2.23437H8.375l.48438-2.0625c-.75-.46875-2.01563-.67187-2.89063-.67187-4 0-5.59375 2.9375-5.59375 5.65625m0 0"/><path id="g" d="M.17188 0h6.90625l.6875-2.40625h-.42188C6.65625-.79687 6-.5 4.51563-.5 3.10938-.5 2.9375-.60937 2.9375-1.01562c0-.125.01563-.29688.07813-.51563L3.6875-4.4375h1.59375c.90625 0 1.09375.21875 1.09375.79688 0 .07812 0 .21875-.01562.32812h.42187l.625-2.78125h-.4375c-.35937.90625-.5 1.125-1.5625 1.125H3.8125l.71875-3.17187c.07813-.32813.15625-.40625.4375-.40625H6.375c1.25 0 1.51563.375 1.53125 1.0625 0 .14062 0 .54687-.01562.67187h.42187l.48438-2.21875h-6.6875L2-8.625l.76563.04688c.21875.01562.3125.125.3125.32812q0 .11719-.04688.32813L1.5-1.14062C1.39063-.6875 1.28125-.5.9375-.46875L.25-.40625Zm0 0"/><path id="h" d="M1.10938-1.79687h7.1875v-.875h-7.1875Zm0-2.89063h7.1875v-.875h-7.1875Zm0 0"/><path id="i" d="M.54688-4.07812c0 2.76562.98437 4.23437 3.0625 4.23437 2.03125 0 3.0625-1.23437 3.0625-2.96875 0-1.76562-1.125-2.73437-2.51563-2.73437-.98437 0-1.71875.64062-2.10937 1.10937.01562-2.40625.64062-3.95312 1.84375-3.95312.57812 0 .98437.51562 1.1875 1.29687.0625.15625.1875.29688.40625.29688.3125 0 .76562-.23438.76562-.64063 0-.54687-.67187-1.4375-2.28125-1.4375-2.10937 0-3.42187 1.59375-3.42187 4.79688m1.5 1c0-.78125.54687-1.70313 1.57812-1.70313.8125 0 1.54688.71875 1.54688 2.20313 0 1.32812-.46875 2.25-1.51563 2.25-1.09375 0-1.60937-1.23438-1.60937-2.75m0 0"/><path id="l" d="M.0625 0h4.04688c2.67187 0 4.15625-.9375 5.09375-2.35937.73437-1.10938.875-2.25.875-2.96875 0-1.14063-.40625-2.17188-1.15625-2.78125-.76563-.625-1.92188-.92188-3.39063-.92188H2l-.09375.40625.75.04688c.21875.01562.3125.125.3125.34375 0 .07812-.03125.20312-.04687.34375l-1.53125 6.75C1.29687-.6875 1.1875-.5.84375-.46875l-.6875.0625Zm2.75-.98437c0-.0625 0-.125.01563-.1875l1.5625-6.89063C4.5-8.5 4.6875-8.54687 5.73438-8.54687c2.5.04687 2.75 1.73437 2.75 2.82812-.01563.89063-.25 2.1875-.85938 3.21875-.70312 1.1875-1.78125 2-3.76562 2C3.25-.5 2.8125-.5625 2.8125-.98437m0 0"/><path id="m" d="M.35938-1.39062c0 .54687.85937 1.54687 2.82812 1.54687 1.95313 0 3.15625-.95312 3.15625-2.60937 0-1.78125-1.53125-2.25-2.20312-2.32813v-.04687c.70312-.125 1.82812-.64063 1.82812-1.92188 0-1.53125-1.25-2.125-2.64062-2.125-1.65625 0-2.64063.92188-2.64063 1.59375 0 .45313.51563.6875.75.6875.1875 0 .29688-.125.375-.32812.28125-.90625.73438-1.46875 1.4375-1.46875.96875 0 1.20313.92187 1.20313 1.60937 0 .70313-.21875 1.76563-1.28125 1.76563-.60938 0-.98438-.14063-1.1875-.14063-.1875 0-.26563.15625-.26563.40625s.07813.40625.26563.40625c.20312 0 .57812-.14062 1.1875-.14062 1 0 1.625.82812 1.625 2.07812 0 1.5-.70313 2.07813-1.59375 2.07813-.78125 0-1.32813-.60938-1.60938-1.45313-.07812-.25-.21875-.39062-.42187-.39062-.29688 0-.8125.28125-.8125.78125m0 0"/><path id="n" d="M.0625 0h4.04688c3.03125 0 3.875-1.39062 3.875-2.67187 0-1.375-1.03125-2-1.96875-2.15625l.01562-.03125C7.75-5.0625 8.5-6.03125 8.5-7.04687c0-1.07813-.64062-1.98438-3.10937-1.98438H2l-.09375.40625.75.0625c.21875.01563.3125.10938.3125.32813 0 .07812-.03125.20312-.04687.34375l-1.51563 6.75c-.09375.45312-.21875.625-.5625.67187l-.6875.0625Zm2.78125-1.03125c0-.09375.01563-.1875.04688-.29687L3.625-4.59375h.51563c1.25 0 2.25.40625 2.25 1.78125C6.39063-1.625 5.6875-.5 4-.5c-.92187 0-1.15625-.1875-1.15625-.53125m.875-4.0625.6875-2.98437c.09375-.39063.15625-.46875.95313-.46875 1.03125 0 1.64062.5 1.64062 1.4375C7-5.8125 5.9375-5.09375 4.5-5.09375Zm0 0"/><path id="o" d="M.5625-1.39062c0 .5625.84375 1.54687 2.6875 1.54687 2.21875 0 3.17188-1.32812 3.17188-2.96875 0-1.65625-1-2.76562-2.75-2.76562-.76563 0-1.53125.32812-1.98438.70312l.28125-2.29687c.0625-.35938.10938-.40625.39063-.40625h3.3125l.375-1.01563-.09375-.125H1.4375l-.125.125-.25 4.34375.375.21875c.51563-.625 1.03125-.90625 1.73438-.90625.84375 0 1.70312.625 1.70312 2.28125 0 1.34375-.5 2.32813-1.5625 2.32813-.82812 0-1.26562-.60938-1.5625-1.45313-.07812-.21875-.21875-.35937-.4375-.35937-.3125 0-.75.28125-.75.75m0 0"/><path id="j" d="M.64063-3.14062c0 2.1875 1.0625 3.29687 3.03125 3.29687.90625 0 2.14062-.46875 2.51562-1.875l-.39062-.1875c-.40625.92188-.92188 1.375-1.875 1.375C2.35938-.53125 2-2.15625 2-3.375c0-1.9375.76563-2.71875 1.67188-2.71875.59375 0 .96875.42188 1.23437 1.14063.07813.20312.15625.32812.40625.32812.26563 0 .76563-.17187.76563-.67187 0-.59375-.85938-1.26563-2.26563-1.26563-2.375 0-3.17187 1.6875-3.17187 3.42188m0 0"/><path id="k" d="M.42188 0h3.17187v-.375C2.67188-.4375 2.625-.46875 2.625-1.14062V-4.1875c0-.34375 0-.51562.09375-.70312.25-.53125.82813-.95313 1.54688-.95313 1.125 0 1.26562.8125 1.26562 1.625v3.07813c0 .67187-.04687.70312-.98437.76562V0h3.17187v-.375C6.79688-.4375 6.75-.46875 6.75-1.14062V-4.1875c0-.34375.01563-.5.09375-.71875.20313-.53125.75-.9375 1.48438-.9375.82812 0 1.32812.45313 1.32812 1.625v3.07813c0 .67187-.04687.70312-.98437.76562V0h3.1875v-.375c-.92188-.0625-.98438-.09375-.98438-.76562v-3.32813c0-1.32812-.70312-2.09375-1.9375-2.09375-1.07812 0-1.84375.71875-2.29687 1-.32813-.60937-.82813-1-1.73438-1-1 0-1.82812.67188-2.28125 1l-.125-1-2.01562.34375v.3125l.48437.07813c.34375.04687.4375.10937.4375.57812v4.10938c0 .67187-.04687.70312-.98437.76562Zm0 0"/></defs><path fill="none" stroke="#000" stroke-miterlimit="10" stroke-width=".39688" d="m26.42185 30.4492 165.58597 72.47267-45.14844 2.20313-45.16798-78.23439Zm0 0"/><use xlink:href="#a" x="6.61398" y="23.43677"/><use xlink:href="#b" x="108.70297" y="19.8803"/><use xlink:href="#c" x="136.93365" y="68.4987"/><use xlink:href="#d" x="125.2444" y="125.03576"/><use xlink:href="#e" x="199.01805" y="122.83176"/><use xlink:href="#f" x="18.36399" y="164.87901"/><use xlink:href="#g" x="28.10155" y="164.87901"/><use xlink:href="#h" x="40.45061" y="164.87901"/><use xlink:href="#i" x="52.54964" y="164.87901"/><use xlink:href="#j" x="62.53556" y="164.87901"/><use xlink:href="#k" x="69.00874" y="164.87901"/><use xlink:href="#f" x="18.36399" y="188.69373"/><use xlink:href="#l" x="28.10155" y="188.69373"/><use xlink:href="#h" x="41.74247" y="188.69373"/><use xlink:href="#m" x="53.84149" y="188.69373"/><use xlink:href="#j" x="63.82827" y="188.69373"/><use xlink:href="#k" x="70.30146" y="188.69373"/><use xlink:href="#f" x="18.36399" y="212.50646"/><use xlink:href="#n" x="28.10155" y="212.50646"/><use xlink:href="#h" x="40.17279" y="212.50646"/><use xlink:href="#o" x="52.27182" y="212.50646"/><use xlink:href="#j" x="62.25869" y="212.50646"/><use xlink:href="#k" x="68.73187" y="212.50646"/></svg>