<svg xmlns="http://www.w3.org/2000/svg" xmlns:xlink="http://www.w3.org/1999/xlink" width="118.656pt" height="236.035pt" viewBox="0 0 118.656 236.035"><defs><path id="a" d="M.20313 0h5.40625l.125-.53125-1.40625-.10937c-.34375-.01563-.48438-.17188-.48438-.45313 0-.10937.03125-.23437.0625-.39062L4.9375-6.09375h2.48438c1.375 0 1.625.26563 1.625 1.04688 0 .17187 0 .34375-.01563.54687h.54688l.875-3.90625h-.54688C9.42188-7.10937 9.20313-6.8125 7.5625-6.8125H5.09375l1.125-4.875c.10938-.48437.20313-.57812.54688-.57812h2.28125c1.82812 0 2.1875.48437 2.1875 1.46875 0 .48437-.0625.96875-.0625.96875H11.75l.6875-3.07813H2.95313l-.10938.54688 1.10938.09375c.3125.01562.45312.1875.45312.48437 0 .09375-.01562.23438-.0625.375L2.125-1.48437c-.14062.54687-.3125.8125-.78125.84375L.29688-.53125Zm0 0"/><path id="b" d="M0 0h5.71875c3.73438 0 5.89063-1.34375 7.23438-3.375 1.07812-1.60937 1.25-3.17187 1.25-4.28125 0-1.51562-.53125-3.01562-1.60938-3.90625-1.07812-.92187-2.75-1.34375-4.8125-1.34375H2.76563l-.125.54688 1.10937.07812c.3125.01563.4375.17188.4375.46875 0 .125-.01562.28125-.0625.46875L1.90625-1.54687c-.14062.60937-.29687.85937-.75.89062l-1.0625.125Zm3.6875-1.375c0-.07812 0-.15625.01563-.23437l2.25-9.95313c.15625-.64062.42187-.70312 2.04687-.70312 3.89063.07812 4.20313 2.70312 4.20313 4.1875 0 1.60937-.375 3.10937-1.20313 4.5-1.07812 1.75-2.67187 2.92187-5.76562 2.92187-.90625 0-1.54688-.125-1.54688-.71875m0 0"/><path id="c" d="M.20313 0h9.71875l.95312-3.28125h-.5625c-.95312 2.3125-1.78125 2.625-4.07812 2.625-2.20313 0-2.32813-.28125-2.32813-.76562 0-.20313.0625-.48438.14063-.85938L5-6.375h2.4375c1.39063 0 1.65625.28125 1.65625 1.09375 0 .15625 0 .3125-.03125.51563h.5625l.875-3.89063h-.57812C9.45313-7.35937 9.25-7.0625 7.59375-7.0625h-2.4375l1.0625-4.64062c.09375-.46875.20313-.5625.53125-.5625h2.23438c1.82812 0 2.20312.48437 2.20312 1.48437 0 .46875-.0625.98438-.0625.98438h.5625l.6875-3.10938H2.95313l-.14063.54688 1.14063.07812c.3125.01563.45312.15625.45312.45313 0 .125-.01562.26562-.0625.4375L2.125-1.54687c-.15625.64062-.3125.85937-.78125.89062l-1.04687.125Zm0 0"/><path id="d" d="M.79688-5.3125c0 1.85938.60937 3.39063 1.57812 4.21875C3.46875-.14062 5 .28125 6.73438.28125c1.35937 0 2.875-.32812 3.9375-.71875l.89062-3.76562c.17188-.64063.26563-.89063.57813-.9375l.8125-.07813.125-.53125H8.15625l-.09375.53125 1.39063.125c.25.01563.375.125.375.4375 0 .10938-.03125.25-.0625.45313l-.67188 2.8125C8.95313-.85937 8.71875-.375 6.76563-.375 4.5-.375 2.85938-1.89062 2.85938-5.17187c0-2.98438 1.45312-7.375 5.90625-7.375 2.45312 0 2.85937 1.4375 2.98437 3.20312h.54688l.6875-2.92187c-1.14063-.60938-2.625-.9375-4.1875-.9375-2.85938 0-4.92188 1.03125-6.23438 2.70312C1.32813-8.9375.79688-6.96875.79688-5.3125m0 0"/><path id="e" d="M0 0h5.09375l.125-.53125-1.10937-.07812c-.3125-.03126-.45313-.1875-.45313-.48438 0-.14062.01563-.28125.04688-.45312L4.78125-6.375h6.23438L9.92188-1.54687c-.15625.64062-.34375.85937-.79688.89062l-1.03125.125L8 0h5.09375l.125-.53125L12.125-.60937c-.34375-.03126-.48437-.1875-.48437-.5 0-.125.03125-.26563.0625-.4375l2.25-9.79688c.15625-.625.29687-.90625.76562-.9375l1.03125-.07812.125-.54688h-5.09375l-.14062.54688 1.10937.07812c.3125.01563.45313.20313.45313.51563 0 .125-.01563.25-.0625.42187L11.1875-7.0625H4.96875l.96875-4.28125c.15625-.625.3125-.90625.79688-.9375l1.03125-.07812.10937-.54688H2.78125l-.14062.54688 1.10937.07812c.3125.01563.45313.20313.45313.51563 0 .125-.01563.25-.0625.42187L1.90625-1.54687c-.15625.64062-.3125.85937-.78125.89062l-1.03125.125Zm0 0"/><path id="f" d="M.17188 0h6.90625l.6875-2.40625h-.42188C6.65625-.79687 6-.5 4.51563-.5 3.10938-.5 2.9375-.60937 2.9375-1.01562c0-.125.01563-.29688.07813-.51563L3.6875-4.4375h1.59375c.90625 0 1.09375.21875 1.09375.79688 0 .07812 0 .21875-.01562.32812h.42187l.625-2.78125h-.4375c-.35937.90625-.5 1.125-1.5625 1.125H3.8125l.71875-3.17187c.07813-.32813.15625-.40625.4375-.40625H6.375c1.25 0 1.51563.375 1.53125 1.0625 0 .14062 0 .54687-.01562.67187h.42187l.48438-2.21875h-6.6875L2-8.625l.76563.04688c.21875.01562.3125.125.3125.32812q0 .11719-.04688.32813L1.5-1.14062C1.39063-.6875 1.28125-.5.9375-.46875L.25-.40625Zm0 0"/><path id="g" d="M.6875-3.71875c0 3.35938 2.5 3.90625 4.14063 3.90625.96875 0 2.04687-.20312 2.85937-.54687l.60938-2.5625c.10937-.4375.15625-.64063.40625-.65625l.57812-.0625.07813-.40625H5.76563l-.07813.40625.9375.07812c.1875.01563.26563.10938.26563.3125 0 .07813-.03125.1875-.0625.32813L6.375-1c-.09375.42188-.26562.6875-1.48437.6875-1.5625 0-2.5625-1.01562-2.5625-3.1875 0-2.14062 1-5.23437 3.98437-5.23437 1.625 0 1.98438 1 2.0625 2.26562h.42188L9.25-8.57812c-.79687-.46875-1.875-.65625-2.92187-.65625-4.5 0-5.64063 3.53125-5.64063 5.51562m0 0"/><path id="h" d="M1.10938-1.79687h7.1875v-.875h-7.1875Zm0-2.89063h7.1875v-.875h-7.1875Zm0 0"/><path id="i" d="M.53125-4.35937c0 2.54687.78125 4.51562 3 4.51562s3-1.96875 3-4.51562c0-2.5625-.78125-4.51563-3-4.51563s-3 1.95313-3 4.51563m1.5 0c0-1.96875.29688-4.03125 1.5-4.03125 1.1875 0 1.5 2.0625 1.5 4.03125s-.3125 4.03125-1.5 4.03125c-1.20312 0-1.5-2.0625-1.5-4.03125m0 0"/><path id="j" d="m.67188 1.625.28124.26563c.65626-.60938 1.70313-1.53125 1.70313-2.5625 0-.6875-.375-1.21875-.95312-1.21875-.46875 0-.71875.35937-.71875.70312 0 .46875.40625.71875.40625 1.26563 0 .54687-.3125 1.09375-.71875 1.54687m0 0"/><path id="k" d="M.54688-4.07812c0 2.76562.98437 4.23437 3.0625 4.23437 2.03125 0 3.0625-1.23437 3.0625-2.96875 0-1.76562-1.125-2.73437-2.51563-2.73437-.98437 0-1.71875.64062-2.10937 1.10937.01562-2.40625.64062-3.95312 1.84375-3.95312.57812 0 .98437.51562 1.1875 1.29687.0625.15625.1875.29688.40625.29688.3125 0 .76562-.23438.76562-.64063 0-.54687-.67187-1.4375-2.28125-1.4375-2.10937 0-3.42187 1.59375-3.42187 4.79688m1.5 1c0-.78125.54687-1.70313 1.57812-1.70313.8125 0 1.54688.71875 1.54688 2.20313 0 1.32812-.46875 2.25-1.51563 2.25-1.09375 0-1.60937-1.23438-1.60937-2.75m0 0"/><path id="n" d="M.17188 0h3.90625l.09375-.40625L3.25-.46875c-.25-.01562-.35937-.125-.35937-.34375 0-.07812.03125-.15625.04687-.26562L3.64063-4.25H5.3125c.90625 0 1.10938.21875 1.10938.8125 0 .07813 0 .21875-.01563.32813h.42188l.625-2.8125h-.42188C6.67188-4.98437 6.5-4.78125 5.4375-4.78125H3.76563l.76562-3.375c.07813-.3125.15625-.39062.40625-.39062h1.45313c1.25 0 1.5.35937 1.51562 1.04687 0 .29688 0 .54688-.01562.67188h.4375l.48437-2.20313H2.10938l-.09375.40625.75.0625c.21875.01563.3125.125.3125.34375q0 .1172-.04688.28125L1.5-1.09375c-.09375.40625-.21875.59375-.5625.625L.25-.40625Zm0 0"/><path id="o" d="M1.42188 0h4.375v-.40625L4.75-.5c-.29687-.03125-.4375-.125-.4375-.60937V-8.8125l-.07812-.0625-2.79688.46875v.34375l1.125.15625c.25.04688.32813.14063.32813.54688v6.25c0 .48437-.125.57812-.4375.60937l-1.03125.09375Zm0 0"/><path id="p" d="M.0625 0h3.70313l.09375-.40625-.75-.04687c-.21875-.01563-.3125-.125-.3125-.34375 0-.09376.01562-.20313.03125-.34375l.75-3.29688h4.125l-.75 3.29688c-.125.45312-.23438.64062-.5625.67187l-.70313.0625L5.60938 0H9.3125l.09375-.40625-.73437-.04687c-.23438-.01563-.34375-.125-.34375-.35938 0-.07812.03125-.1875.0625-.32812l1.54687-6.75c.10938-.4375.1875-.65625.53125-.6875l.70313-.04688.07812-.40625H7.5625l-.10937.40625.75.04688c.23437.01562.32812.125.32812.35937 0 .07813-.03125.20313-.0625.32813l-.64062 2.92187h-4.125l.65625-2.92187c.10937-.4375.21875-.65625.57812-.6875l.67188-.04688.09375-.40625h-3.6875l-.10938.40625.75.04688c.21875.01562.3125.125.3125.35937 0 .07813-.01562.20313-.03125.32813l-1.54687 6.75C1.28125-.6875 1.17187-.5.82813-.46875l-.67188.0625Zm0 0"/><path id="q" d="M.46875-5.92187c0 1.78125 1.10938 2.73437 2.5 2.73437.98438 0 1.71875-.625 2.10938-1.10937C5.0625-1.875 4.4375-.32812 3.23438-.32812c-.57813 0-.98438-.51563-1.1875-1.29688-.0625-.17187-.1875-.3125-.40625-.3125-.3125 0-.76563.25-.76563.64063 0 .5625.6875 1.45312 2.29688 1.45312 2.15625 0 3.40625-1.65625 3.40625-4.79687 0-2.78125-.98438-4.23438-3.0625-4.23438-2.03125 0-3.04688 1.23438-3.04688 2.95313m1.48438-.21875c0-1.32813.46875-2.25 1.51562-2.25 1.09375 0 1.60938 1.21875 1.60938 2.75 0 .78125-.54688 1.70312-1.57813 1.70312-.8125 0-1.54687-.71875-1.54687-2.20312m0 0"/><path id="r" d="M.0625 0h4.04688c2.67187 0 4.15625-.9375 5.09375-2.35937.73437-1.10938.875-2.25.875-2.96875 0-1.14063-.40625-2.17188-1.15625-2.78125-.76563-.625-1.92188-.92188-3.39063-.92188H2l-.09375.40625.75.04688c.21875.01562.3125.125.3125.34375 0 .07812-.03125.20312-.04687.34375l-1.53125 6.75C1.29687-.6875 1.1875-.5.84375-.46875l-.6875.0625Zm2.75-.98437c0-.0625 0-.125.01563-.1875l1.5625-6.89063C4.5-8.5 4.6875-8.54687 5.73438-8.54687c2.5.04687 2.75 1.73437 2.75 2.82812-.01563.89063-.25 2.1875-.85938 3.21875-.70312 1.1875-1.78125 2-3.76562 2C3.25-.5 2.8125-.5625 2.8125-.98437m0 0"/><path id="s" d="M.5625-1.39062c0 .5625.84375 1.54687 2.6875 1.54687 2.21875 0 3.17188-1.32812 3.17188-2.96875 0-1.65625-1-2.76562-2.75-2.76562-.76563 0-1.53125.32812-1.98438.70312l.28125-2.29687c.0625-.35938.10938-.40625.39063-.40625h3.3125l.375-1.01563-.09375-.125H1.4375l-.125.125-.25 4.34375.375.21875c.51563-.625 1.03125-.90625 1.73438-.90625.84375 0 1.70312.625 1.70312 2.28125 0 1.34375-.5 2.32813-1.5625 2.32813-.82812 0-1.26562-.60938-1.5625-1.45313-.07812-.21875-.21875-.35937-.4375-.35937-.3125 0-.75.28125-.75.75m0 0"/><path id="l" d="M.64063-3.14062c0 2.1875 1.0625 3.29687 3.03125 3.29687.90625 0 2.14062-.46875 2.51562-1.875l-.39062-.1875c-.40625.92188-.92188 1.375-1.875 1.375C2.35938-.53125 2-2.15625 2-3.375c0-1.9375.76563-2.71875 1.67188-2.71875.59375 0 .96875.42188 1.23437 1.14063.07813.20312.15625.32812.40625.32812.26563 0 .76563-.17187.76563-.67187 0-.59375-.85938-1.26563-2.26563-1.26563-2.375 0-3.17187 1.6875-3.17187 3.42188m0 0"/><path id="m" d="M.42188 0h3.17187v-.375C2.67188-.4375 2.625-.46875 2.625-1.14062V-4.1875c0-.34375 0-.51562.09375-.70312.25-.53125.82813-.95313 1.54688-.95313 1.125 0 1.26562.8125 1.26562 1.625v3.07813c0 .67187-.04687.70312-.98437.76562V0h3.17187v-.375C6.79688-.4375 6.75-.46875 6.75-1.14062V-4.1875c0-.34375.01563-.5.09375-.71875.20313-.53125.75-.9375 1.48438-.9375.82812 0 1.32812.45313 1.32812 1.625v3.07813c0 .67187-.04687.70312-.98437.76562V0h3.1875v-.375c-.92188-.0625-.98438-.09375-.98438-.76562v-3.32813c0-1.32812-.70312-2.09375-1.9375-2.09375-1.07812 0-1.84375.71875-2.29687 1-.32813-.60937-.82813-1-1.73438-1-1 0-1.82812.67188-2.28125 1l-.125-1-2.01562.34375v.3125l.48437.07813c.34375.04687.4375.10937.4375.57812v4.10938c0 .67187-.04687.70312-.98437.76562Zm0 0"/></defs><path fill="none" stroke="#000" stroke-miterlimit="10" stroke-width=".39688" d="M33.55078 82.42188h56.46483L26.21094 26.52345Zm0 0"/><use xlink:href="#a" x="13.93857" y="102.33063"/><use xlink:href="#b" x="97.02389" y="102.33063"/><use xlink:href="#c" x="19.92011" y="19.51322"/><path fill="none" stroke="#000" stroke-miterlimit="10" stroke-width=".39688" d="M30.61719 60.0625h33.87499"/><use xlink:href="#d" x="10.13014" y="66.52203"/><use xlink:href="#e" x="71.50322" y="66.51207"/><use xlink:href="#f" x="6.68423" y="155.13276"/><use xlink:href="#g" x="16.33841" y="155.13276"/><use xlink:href="#h" x="29.27085" y="155.13276"/><use xlink:href="#i" x="41.36983" y="155.13276"/><use xlink:href="#j" x="48.41252" y="155.13276"/><use xlink:href="#k" x="53.52437" y="155.13276"/><use xlink:href="#l" x="63.49795" y="155.13276"/><use xlink:href="#m" x="69.97111" y="155.13276"/><use xlink:href="#f" x="6.68423" y="178.9454"/><use xlink:href="#n" x="16.33841" y="178.9454"/><use xlink:href="#h" x="28.71521" y="178.9454"/><use xlink:href="#o" x="40.81419" y="178.9454"/><use xlink:href="#l" x="50.79987" y="178.9454"/><use xlink:href="#m" x="57.27303" y="178.9454"/><use xlink:href="#f" x="6.68423" y="202.75805"/><use xlink:href="#p" x="16.33841" y="202.75805"/><use xlink:href="#h" x="31.14612" y="202.75805"/><use xlink:href="#i" x="43.2451" y="202.75805"/><use xlink:href="#j" x="50.28779" y="202.75805"/><use xlink:href="#q" x="55.39964" y="202.75805"/><use xlink:href="#l" x="65.37428" y="202.75805"/><use xlink:href="#m" x="71.84744" y="202.75805"/><use xlink:href="#f" x="6.68423" y="226.57069"/><use xlink:href="#r" x="16.33841" y="226.57069"/><use xlink:href="#h" x="29.97928" y="226.57069"/><use xlink:href="#o" x="42.07826" y="226.57069"/><use xlink:href="#j" x="49.12095" y="226.57069"/><use xlink:href="#s" x="54.23281" y="226.57069"/><use xlink:href="#l" x="64.20705" y="226.57069"/><use xlink:href="#m" x="70.68022" y="226.57069"/></svg>