<svg xmlns="http://www.w3.org/2000/svg" xmlns:xlink="http://www.w3.org/1999/xlink" width="162.293pt" height="101.652pt" viewBox="0 0 162.293 101.652"><defs><path id="a" d="M0 0h3.71875c2.42188 0 3.82813-.875 4.70313-2.1875.6875-1.04687.8125-2.0625.8125-2.78125 0-.98437-.35938-1.96875-1.04688-2.54687-.71875-.59375-1.79687-.85938-3.14062-.85938h-3.25l-.07813.34375.71875.04688c.20313.01562.28125.125.28125.3125 0 .07812-.01562.1875-.03125.29687L1.23438-1c-.09376.39063-.1875.54688-.48438.57813l-.6875.07812Zm2.39063-.89062c0-.04688 0-.10938.01562-.15626l1.45313-6.46874c.10937-.40625.28125-.45313 1.32812-.45313 2.53125.04688 2.73438 1.75 2.73438 2.71875 0 1.04688-.23438 2.03125-.78125 2.9375C6.4375-1.1875 5.40625-.42187 3.40625-.42187c-.59375 0-1.01562-.07813-1.01562-.46875m0 0"/><path id="b" d="M.125 0h6.3125l.625-2.125h-.35937c-.625 1.5-1.15625 1.70313-2.65625 1.70313-1.4375 0-1.5-.1875-1.5-.5 0-.14063.03125-.3125.07812-.5625l.625-2.65625h1.57813c.90625 0 1.07812.1875 1.07812.71875 0 .09375 0 .20312-.01562.32812H6.25L6.8125-5.625h-.375c-.29687.84375-.4375 1.03125-1.5 1.03125H3.34375l.6875-3.01562c.0625-.29688.14063-.35938.34375-.35938h1.46875c1.1875 0 1.42188.3125 1.42188.96875 0 .29688-.03125.625-.03125.625h.35937l.45313-2h-6.125l-.09376.34375.73438.04688c.20313.01562.29688.10937.29688.29687 0 .07813-.01563.17188-.03125.28125L1.375-1c-.09375.40625-.20312.54688-.5.57813l-.6875.07812Zm0 0"/><path id="c" d="M.125 0h3.51563l.07812-.34375-.90625-.0625C2.59375-.42187 2.5-.53125 2.5-.70312c0-.07813.01563-.15626.04688-.26563l.65625-2.98437h1.625c.875 0 1.04687.15625 1.04687.67187 0 .10938 0 .21875-.01562.35938h.35937l.57813-2.54688H6.4375c-.3125.85938-.45312 1.04688-1.53125 1.04688H3.3125l.71875-3.17188c.07813-.3125.14063-.375.35938-.375H5.875c1.1875 0 1.42188.3125 1.42188.95313 0 .3125-.04688.64062-.04688.64062h.375l.45313-2H1.92188l-.07813.34375.71875.0625c.20313.01563.29688.125.29688.3125 0 .0625-.01563.15625-.03125.25L1.375-.96875c-.09375.35938-.20312.53125-.5.5625l-.6875.0625Zm0 0"/><path id="d" d="m.125-1.21875.09375.14063H1.8125v.625c0 .17187-.0625.20312-.1875.21875l-.39062.03124V0h1.71875v-.20312l-.28125-.01563C2.54688-.25 2.5-.28125 2.5-.45312v-.625h.60938v-.32813H2.5v-2.64062h-.57812C1.3125-3.15625.67188-2.15625.125-1.21875m.53125-.1875c.32813-.625.73438-1.28125 1.15625-1.96875v1.96875Zm0 0"/><path id="g" d="M.26563-.67187c0 .25.35937.75 1.28125.75 1.0625 0 1.48437-.625 1.48437-1.375 0-.71875-.40625-1.29688-1.29687-1.29688-.35938 0-.71875.15625-.92188.32813l.10938-1c.03124-.1875.0625-.20313.20312-.20313h1.54688l.1875-.51562-.03125-.0625H.67188L.60938-4l-.125 2.01563.20312.125c.23438-.28126.48438-.42188.79688-.42188.39062 0 .76562.29688.76562 1.0625 0 .60938-.20312 1.04688-.67187 1.04688-.35938 0-.54688-.25-.70313-.6875-.03125-.10938-.10937-.17188-.23437-.17188-.15626 0-.375.14063-.375.35938m0 0"/><path id="h" d="M.1875-.67187c0 .25.35938.75 1.32813.75.92187 0 1.5-.4375 1.5-1.21875 0-.82813-.73438-1.04688-1.03125-1.07813v-.01562c.32812-.0625.85937-.29688.85937-.89063 0-.75-.625-1-1.26562-1-.76563 0-1.25.42188-1.25.76563 0 .21875.26562.32812.375.32812s.15624-.0625.1875-.15625c.14062-.4375.34375-.70312.65625-.70312.42187 0 .53125.4375.53125.75 0 .29687-.09375.8125-.57813.8125-.26562 0-.45312-.07813-.54687-.07813-.10938 0-.14063.07813-.14063.20313S.84375-2 .95313-2c.09374 0 .28124-.0625.54687-.0625.42188 0 .71875.3125.71875.95313 0 .67187-.29687.9375-.6875.9375-.34375 0-.57812-.25-.71875-.6875-.04687-.125-.10937-.1875-.21875-.1875-.17187 0-.40625.14062-.40625.375m0 0"/><path id="e" d="M.29688-1.45312c0 1.01562.5 1.53125 1.40625 1.53125.42187 0 1-.21875 1.17187-.875l-.1875-.09376C2.5-.45312 2.26563-.25 1.8125-.25 1.09375-.25.92188-1 .92188-1.5625c0-.90625.35937-1.26562.78125-1.26562.28124 0 .45312.1875.57812.53125.03125.09375.07813.14062.1875.14062.125 0 .35938-.0625.35938-.29687 0-.28125-.40625-.59375-1.0625-.59375-1.09375 0-1.46875.78125-1.46875 1.59375m0 0"/><path id="f" d="M.1875 0h1.48438v-.17187c-.4375-.03126-.45313-.04688-.45313-.35938v-1.42187c0-.15626 0-.23438.04688-.3125.10937-.25.375-.45313.71875-.45313.51562 0 .57812.375.57812.75v1.4375c0 .3125-.01562.32813-.45312.35938V0h1.48437v-.17187c-.4375-.03126-.45312-.04688-.45312-.35938v-1.42187c0-.15626 0-.23438.04687-.32813.07813-.23437.34375-.4375.6875-.4375.375 0 .60938.21875.60938.75v1.4375c0 .3125-.01563.32813-.45313.35938V0h1.48438v-.17187c-.4375-.03126-.46875-.04688-.46875-.35938v-1.54687c0-.60938-.32813-.96875-.89063-.96875-.5 0-.85937.32812-1.07812.46875-.14063-.28125-.375-.46875-.79688-.46875-.46875 0-.84375.3125-1.0625.46875l-.0625-.46875-.9375.15625V-2.75l.23438.04688c.15625.01562.20312.04687.20312.26562v1.90625c0 .3125-.03125.32813-.46875.35938Zm0 0"/></defs><path fill="none" stroke="#000" stroke-miterlimit="10" stroke-width=".39677" d="m55.57422 84.02344 88.98832-51.37502-127.51959-15.3672Zm0 0"/><use xlink:href="#a" x="50.82858" y="96.96003"/><use xlink:href="#b" x="149.11541" y="36.83794"/><use xlink:href="#c" x="4.29828" y="12.72697"/><use xlink:href="#d" x="104.62223" y="66.9398"/><use xlink:href="#e" x="109.30394" y="66.9398"/><use xlink:href="#f" x="112.30853" y="66.9398"/><use xlink:href="#g" x="74.16292" y="20.33881"/><use xlink:href="#e" x="78.84463" y="20.33881"/><use xlink:href="#f" x="81.84922" y="20.33881"/><use xlink:href="#h" x="18.47651" y="52.67793"/><use xlink:href="#e" x="23.15692" y="52.67793"/><use xlink:href="#f" x="26.16152" y="52.67793"/></svg>