<svg xmlns="http://www.w3.org/2000/svg" xmlns:xlink="http://www.w3.org/1999/xlink" width="233.967pt" height="281.395pt" viewBox="0 0 233.967 281.395"><defs><path id="a" d="M0 0h5.67188c4.5 0 5.42187-2.32812 5.42187-3.875 0-1.96875-1.45312-2.82812-2.82812-3.07812L8.28125-7c2.48438-.29687 3.54688-1.70312 3.54688-3.10937 0-1.51563-.89063-2.8125-4.32813-2.8125H2.76563l-.125.54687 1.10937.09375c.32813.01563.46875.15625.46875.45313 0 .125-.04687.28125-.07812.45312L1.92188-1.54687c-.14063.60937-.3125.82812-.76563.89062l-1.0625.125Zm3.73438-1.4375c0-.125.01562-.26562.0625-.40625L4.875-6.64062h.73438c1.84375 0 3.46875.53125 3.46875 2.67187 0 1.65625-1.01563 3.3125-3.51563 3.3125-1.46875 0-1.82812-.29687-1.82812-.78125m1.28125-5.85937.96875-4.32813c.14062-.5625.23437-.65625 1.48437-.65625 1.57813 0 2.45313.79688 2.45313 2.10938 0 1.9375-1.64063 2.875-3.70313 2.875Zm0 0"/><path id="b" d="M.96875-5.125C.96875-2.65625 2.1875.28125 6.8125.28125c1.34375 0 2.60938-.1875 3.79688-.78125l.92187-2.98437h-.5625C9.9375-1.60937 9-.375 6.70313-.375c-2.17188 0-3.71875-1.39062-3.71875-4.28125 0-1.6875.4375-3.75 1.32812-5.23437.9375-1.57813 2.40625-2.67188 4.40625-2.67188 2.375 0 3.04688 1.09375 3.04688 3.14063h.57812l.67188-2.79688c-1.07813-.6875-2.8125-1-4.125-1-3.53125 0-5.54688 1.65625-6.64063 3.40625C1.21875-8.15625.96875-6.42187.96875-5.125m0 0"/><path id="c" d="M-.35937 0h4.21875l.10937-.53125L2.9375-.64062c-.23437-.01563-.32812-.14063-.32812-.3125 0-.09376.03125-.23438.09375-.375.60937-1.20313 1.21875-2.40625 1.90625-3.65625h4.1875l.46875 3.84375s-.10938.46875-.5.5l-1 .10937L7.67188 0h4.59375l.10937-.53125-.70312-.0625c-.57813-.0625-.65625-.32812-.76563-1.09375L9.54688-12.92187H8.20313L5.0625-7.40625c-.95312 1.65625-2.5 4.4375-3.1875 5.5625C1.26563-.875.95313-.67187.375-.60937l-.60937.07812Zm5.34375-5.70312 3.04687-5.48438.67188 5.48438Zm0 0"/><path id="d" d="M0 0h4.40625l.10938-.53125-.73438-.0625c-.5625-.04687-.85937-.1875-.85937-.57812 0-1 .17187-1.54688.39062-2.54688l1.71875-7.60937h.03125l2.25 11.10937h.51563l7.28125-11.10937h.03125l-2.28125 9.78125c-.15625.625-.34375.84375-.79688.89062l-1.01562.125L10.9375 0h5.07813l.10937-.53125-1.09375-.125c-.34375-.01562-.48437-.17187-.48437-.48437 0-.10938.01562-.25.0625-.40625l2.25-9.82813c.15624-.625.29687-.89062.76562-.92187l1.03125-.07813.14063-.54687h-3.65626c-.98437 1.71875-2.10937 3.375-3.23437 5.10937L8.60938-2.76562h-.0625L7.5-7.95312c-.39062-1.6875-.76562-3.29688-1.07812-4.96875h-3.625l-.10938.54687 1.09375.09375c.3125.01563.46875.17188.46875.5 0 .10938-.01562.25-.0625.40625L2.42188-3.71875c-.21875 1-.4375 1.71875-.65625 2.32813-.21876.59375-.54688.73437-1.09375.79687l-.57813.0625Zm0 0"/><path id="e" d="M0 0h5.3125l.09375-.53125-1.29687-.125c-.3125-.01562-.45313-.15625-.45313-.45312 0-.125.01563-.26563.0625-.4375l.82813-3.6875H5.9375c1.59375 0 3.0625-.21875 4.14063-.875 1.1875-.73438 1.89062-2 1.89062-3.39063 0-1.26562-.59375-2.25-1.51562-2.76562-.875-.5-2.0625-.65625-3.29688-.65625h-4.375l-.14062.54687 1.10937.07813c.32813.01562.46875.17187.46875.48437 0 .125-.03125.26563-.0625.4375l-2.25 9.82813c-.15625.625-.3125.84375-.76562.89062l-1.04688.125Zm4.8125-6.28125c0-.125.01563-.23437.0625-.39062L6-11.625c.125-.48437.23438-.65625 1.1875-.65625 1.85938 0 2.8125.875 2.8125 2.46875 0 2.65625-1.5 3.92188-4.01562 3.92188-.95313 0-1.17188-.09375-1.17188-.39063m0 0"/><path id="f" d="M.0625 0H4.125C7.15625 0 8-1.39062 8-2.67187c0-1.375-1.03125-2-1.96875-2.17188l.01563-.03125c1.71875-.1875 2.46875-1.17187 2.46875-2.1875 0-1.07812-.64063-1.98437-3.10938-1.98437H2l-.09375.40625.75.0625c.21875.01562.32813.10937.32813.32812 0 .07813-.03125.20313-.0625.34375L1.40625-1.14062c-.09375.4375-.21875.625-.5625.67187l-.6875.0625Zm2.79688-1.03125c0-.09375.01562-.1875.03125-.3125l.75-3.26562h.51562c1.25 0 2.25.42187 2.25 1.79687C6.40625-1.625 5.70313-.5 4.01563-.5c-.92188 0-1.15625-.20312-1.15625-.53125m.875-4.07812.67187-3C4.51563-8.5 4.5625-8.5625 5.375-8.5625c1.03125 0 1.64063.5 1.64063 1.4375 0 1.3125-1.0625 2.01563-2.5 2.01563Zm0 0"/><path id="g" d="M.375-3.59375C.375-2 1.10938.1875 4.5.1875c.92188 0 1.85938-.125 2.70313-.53125l.65625-2.20312H7.4375c-.75 1.32812-1.42187 2.23437-3 2.23437-1.4375 0-2.45312-.92187-2.45312-2.90625 0-2.15625.98437-5.53125 3.92187-5.53125 1.625 0 2.0625.85938 2.0625 2.23438h.42188l.48437-2.0625c-.75-.46875-2.01562-.6875-2.89062-.6875-4 0-5.60938 2.95312-5.60938 5.67187m0 0"/><path id="h" d="M1.10938-1.79687H8.3125v-.875H1.10938Zm0-2.90625H8.3125v-.875H1.10938Zm0 0"/><path id="i" d="M1.42188 0H5.8125v-.40625L4.76563-.5c-.29688-.03125-.4375-.125-.4375-.60937v-7.71875L4.25-8.89062l-2.8125.46875v.34375l1.125.15625c.25.04687.32813.14062.32813.54687v6.26563c0 .48437-.125.57812-.42188.60937l-1.04687.09375Zm0 0"/><path id="j" d="M.5625-1.39062c0 .5625.84375 1.54687 2.6875 1.54687 2.23438 0 3.1875-1.32812 3.1875-2.96875 0-1.67187-1.01562-2.78125-2.76562-2.78125-.76563 0-1.53125.32813-1.96875.70313l.28124-2.29688c.04688-.35937.10938-.40625.375-.40625H5.6875l.375-1.03125-.09375-.125H1.4375l-.10937.125-.26563 4.35938.375.23437c.53125-.625 1.04688-.92187 1.73438-.92187.85937 0 1.71875.625 1.71875 2.29687 0 1.32813-.5 2.32813-1.5625 2.32813-.84375 0-1.28125-.60938-1.57813-1.45313-.07812-.21875-.21875-.35937-.4375-.35937-.3125 0-.75.28125-.75.75m0 0"/><path id="m" d="M-.25 0h2.98438l.07812-.40625-.71875-.0625c-.17187-.01562-.25-.10937-.25-.23437 0-.21876 1.34375-2.6875 1.35938-2.71875H6.0625l.28125 2.59375S6.29688-.5 6.01563-.46875l-.70313.0625L5.23438 0H8.625l.09375-.40625-.5-.04687C7.8125-.48437 7.75-.75 7.70313-1.25l-.92188-7.79687H5.6875L3.48438-5.15625c-.70313 1.23438-1.78125 3.17188-2.25 3.90625-.375.60938-.59375.75-1 .79688l-.40625.04687Zm3.73438-3.95312L5.5625-7.71875l.42188 3.76563Zm0 0"/><path id="n" d="m.53125-6.8125.39063.03125.125-.26562c.17187-.34375.32812-.54688.92187-.54688h3.5c-.125.45313-.40625 1.28125-1.45312 2.73438-1.125 1.53125-1.85938 2.96875-1.85938 4.40625 0 .51562.35938.60937.8125.60937.39063 0 .70313-.09375.70313-.59375.01562-1.90625.34375-3.17187.98437-4.21875.92188-1.5625 1.57813-2.40625 1.96875-3.95312L6.5-8.75H.96875Zm0 0"/><path id="o" d="M.51563-2.40625c0 1.46875 1 2.5625 3.01562 2.5625 2.03125 0 3.03125-1.09375 3.03125-2.5625 0-1.29687-.79687-2.0625-1.73437-2.29687C5.60938-4.92187 6.25-5.59375 6.25-6.64062c0-1.45313-1.125-2.25-2.71875-2.25-1.57812 0-2.71875.8125-2.71875 2.25 0 1.04687.67188 1.71875 1.4375 1.9375-.90625.23437-1.73437 1-1.73437 2.29687m1.5.04688c0-1.17188.53125-2.04688 1.51562-2.04688 1 0 1.51563.875 1.51563 2.04688 0 1.14062-.48438 2.03125-1.51563 2.03125s-1.51562-.89063-1.51562-2.03125M2.25-6.6875c0-.98437.45313-1.71875 1.28125-1.71875.84375 0 1.28125.73438 1.28125 1.71875 0 .90625-.40625 1.76563-1.28125 1.76563-.85937 0-1.28125-.85938-1.28125-1.76563m0 0"/><path id="p" d="M.0625 0h3.10938L3.25-.40625l-.54687-.04687c-.375-.01563-.57813-.125-.57813-.42188 0-.57812.14063-1.09375.3125-1.85937l1.125-5.125h.03125L5.07813-.15625h.48437l4.90625-7.70312H10.5L8.9375-1.14062c-.10937.4375-.21875.64062-.5625.67187l-.67187.0625L7.59375 0h3.67188l.07812-.40625-.73437-.0625c-.23438-.01562-.32813-.14062-.32813-.34375 0-.07812.01563-.20312.04688-.32812l1.53125-6.76563c.10937-.45312.21875-.65625.5625-.6875l.6875-.04687.10937-.40625h-2.75c-.64062 1.14062-1.375 2.28125-2.10937 3.4375L6.14063-2.125h-.04688l-.6875-3.5625c-.25-1.14062-.48437-2.23437-.70312-3.35937H2l-.07812.40625.73437.0625C2.875-8.5625 3-8.46875 3-8.23437c0 .07812-.03125.20312-.0625.32812L1.75-2.73437c-.15625.76562-.29687 1.26562-.4375 1.70312-.14062.42188-.375.54688-.73437.57813l-.4375.04687Zm0 0"/><path id="q" d="m.26563-2.625.15625.29688h3.5V-1c0 .42188-.15625.48438-.4375.51563l-.84375.07812V0h3.59375v-.40625l-.59375-.0625c-.28125-.04687-.375-.10937-.375-.53125v-1.32812h1.32812V-3H5.26563v-5.75H4.15625C2.875-6.875 1.46875-4.65625.26563-2.625M1.32813-3c.73437-1.375 1.64062-2.84375 2.59375-4.375V-3Zm0 0"/><path id="r" d="M.0625 0h3.875l.07813-.40625L3.125-.48437C2.89063-.5 2.79688-.59375 2.79688-.8125q0-.11718.04687-.32812l.5625-2.46875h.9375c3.79688 0 4.26563-2.04688 4.26563-3.01563 0-2.42187-2.67188-2.42187-3.46875-2.42187h-3.125l-.09375.40625.75.04687c.21875.01563.3125.125.3125.35938q0 .11719-.04688.32812L1.39063-1.14062c-.10938.4375-.21876.64062-.5625.67187l-.67188.0625Zm3.53125-4.375c0-.07812.01563-.15625.04688-.25l.78125-3.48437c.09375-.34375.17187-.45313.8125-.45313 1.20312 0 1.82812.57813 1.82812 1.67188 0 1.71875-.98437 2.78125-2.70312 2.78125-.60938 0-.76563-.0625-.76563-.26563m0 0"/><path id="s" d="M.54688-4.09375c0 2.78125.98437 4.25 3.07812 4.25 2.03125 0 3.0625-1.23437 3.0625-2.96875 0-1.78125-1.125-2.75-2.53125-2.75-.98437 0-1.71875.64063-2.10937 1.125.01562-2.42187.65625-3.96875 1.84375-3.96875.59375 0 1 .51563 1.20312 1.29688.0625.15625.1875.29687.40625.29687.3125 0 .76563-.23437.76563-.64062 0-.54688-.67188-1.4375-2.28125-1.4375-2.125 0-3.4375 1.59375-3.4375 4.79687m1.5 1c0-.78125.5625-1.70312 1.59375-1.70312.79687 0 1.53125.71875 1.53125 2.20312 0 1.34375-.45313 2.26563-1.51563 2.26563-1.07812 0-1.60937-1.23438-1.60937-2.76563m0 0"/><path id="k" d="M.64063-3.14062c0 2.1875 1.07812 3.29687 3.03125 3.29687.92187 0 2.15625-.46875 2.51562-1.875l-.375-.1875c-.40625.92188-.92187 1.375-1.89062 1.375C2.35938-.53125 2-2.15625 2-3.39062c0-1.9375.76563-2.71875 1.67188-2.71875.60937 0 .98437.42187 1.25 1.14062.07812.20313.15625.32813.40625.32813.26562 0 .76562-.15625.76562-.65625 0-.60938-.85937-1.28125-2.28125-1.28125-2.375 0-3.17187 1.6875-3.17187 3.4375m0 0"/><path id="l" d="M.42188 0h3.1875v-.375c-.9375-.07812-.98438-.09375-.98438-.76562v-3.0625c0-.32813 0-.51563.10938-.70313.25-.51562.8125-.95312 1.54687-.95312 1.125 0 1.26563.8125 1.26563 1.625v3.09375c0 .67187-.04688.6875-1 .76562V0h3.1875v-.375c-.92188-.07812-.96875-.09375-.96875-.76562v-3.0625c0-.32813.01562-.5.09375-.71875.20312-.51563.75-.9375 1.5-.9375.8125 0 1.3125.45312 1.3125 1.625v3.09375c0 .67187-.03125.6875-.98438.76562V0h3.20313v-.375c-.9375-.07812-.98438-.09375-.98438-.76562v-3.34375c0-1.32813-.71875-2.09375-1.95312-2.09375-1.07813 0-1.84375.71875-2.29688 1.01562-.32812-.625-.82812-1.01562-1.73437-1.01562-1.01563 0-1.82813.67187-2.29688 1.01562L2.5-6.57812l-2.01562.34375v.3125l.48437.07812c.34375.04688.4375.10938.4375.57813v4.125c0 .67187-.04687.6875-.98437.76562Zm0 0"/></defs><path fill="none" stroke="#000" stroke-miterlimit="10" stroke-width=".39765" d="m31.5039 26.57422 175.94148 47.14455L25.85547 88.3672l119.12114 25.45314Zm0 0"/><use xlink:href="#a" x="12.24968" y="19.55097"/><use xlink:href="#b" x="214.46691" y="66.41421"/><use xlink:href="#c" x="97.216" y="75.10951"/><use xlink:href="#d" x="151.99922" y="133.7684"/><use xlink:href="#e" x="6.86126" y="108.31612"/><use xlink:href="#f" x="19.01014" y="178.57506"/><use xlink:href="#g" x="28.39072" y="178.57506"/><use xlink:href="#h" x="40.86105" y="178.57506"/><use xlink:href="#i" x="52.98344" y="178.57506"/><use xlink:href="#j" x="60.03975" y="178.57506"/><use xlink:href="#k" x="70.04442" y="178.57506"/><use xlink:href="#l" x="76.5301" y="178.57506"/><use xlink:href="#m" x="19.01014" y="202.43377"/><use xlink:href="#f" x="28.58557" y="202.43377"/><use xlink:href="#h" x="40.69404" y="202.43377"/><use xlink:href="#n" x="52.81642" y="202.43377"/><use xlink:href="#k" x="62.81995" y="202.43377"/><use xlink:href="#l" x="69.30564" y="202.43377"/><use xlink:href="#m" x="19.01014" y="226.29247"/><use xlink:href="#g" x="28.58557" y="226.29247"/><use xlink:href="#h" x="41.0559" y="226.29247"/><use xlink:href="#o" x="53.17829" y="226.29247"/><use xlink:href="#k" x="63.18317" y="226.29247"/><use xlink:href="#l" x="69.66885" y="226.29247"/><use xlink:href="#m" x="19.01014" y="250.15117"/><use xlink:href="#p" x="28.58557" y="250.15117"/><use xlink:href="#h" x="45.38433" y="250.15117"/><use xlink:href="#q" x="57.50671" y="250.15117"/><use xlink:href="#k" x="67.51186" y="250.15117"/><use xlink:href="#l" x="73.99755" y="250.15117"/><use xlink:href="#m" x="19.01014" y="274.01187"/><use xlink:href="#r" x="28.58557" y="274.01187"/><use xlink:href="#h" x="40.76363" y="274.01187"/><use xlink:href="#s" x="52.88601" y="274.01187"/><use xlink:href="#k" x="62.8898" y="274.01187"/><use xlink:href="#l" x="69.37549" y="274.01187"/></svg>