<svg xmlns="http://www.w3.org/2000/svg" xmlns:xlink="http://www.w3.org/1999/xlink" width="71pt" height="63.715pt" viewBox="0 0 71 63.715"><defs><path id="a" d="M0 0h3.3125l.07813-.34375-.71875-.0625c-.20313 0-.29688-.125-.29688-.3125 0-.07812.01563-.1875.03125-.28125l.76563-3.375h.03125c.54687 1.14063 1.14062 2.34375 1.875 3.35938C5.65625-.23437 6.1875.03124 7.10938.04688l.59375.01562.09375-.35937c-.6875-.0625-.98438-.39063-1.42188-.92188-.8125-1.03125-1.625-2.5-2.14062-3.5625 1.10937-.92187 2.10937-1.75 3.21875-2.53125.6875-.48437.98437-.65625 1.95312-.71875l.0625-.34375H6.4375l-.04687.34375.46875.04688c.125 0 .17187.0625.17187.14062 0 .0625-.07812.14063-.1875.25L3.26563-4.51562h-.0625L3.85938-7.375c.07812-.375.20312-.57812.51562-.60937l.67188-.04688L5.125-8.375H1.79688l-.07813.34375.71875.04688c.20313.01562.29688.14062.29688.34375 0 .07812-.01563.17187-.04688.26562L1.23438-1c-.09376.375-.20313.54688-.5.57813L.0625-.34375Zm0 0"/><path id="b" d="M.25 0h3.32813l.0625-.34375-.71875-.0625c-.20313 0-.29688-.125-.29688-.3125 0-.07812.01563-.1875.04688-.28125l1.4375-6.375c.09375-.375.20312-.57812.51562-.60937l.67188-.04688L5.375-8.375H2.0625l-.09375.34375.71875.04688c.21875.01562.29688.14062.29688.34375 0 .07812 0 .17187-.03125.26562L1.5-1c-.09375.375-.21875.54688-.5.57813l-.67187.07812Zm0 0"/><path id="c" d="M-1 1.10938v.3125c.125.01562.26563.01562.39063.01562.5625 0 1.375-.14062 1.875-.46875C1.82813.5625 2.25-.10937 2.54688-1.3125l1.40625-6.09375c.09375-.375.20312-.54687.5-.57812l.67187-.04688.09375-.34375H1.875l-.07812.34375.71875.04688c.21875.01562.3125.125.3125.32812 0 .0625 0 .14063-.03125.25L1.46875-1.73437C1.20313-.60937.875.15624.5.5c-.40625.375-.90625.54688-1.5.60938m0 0"/><path id="d" d="M.1875-.67187c0 .25.35938.75 1.32813.75.92187 0 1.5-.4375 1.5-1.21875 0-.82813-.73438-1.04688-1.03125-1.07813v-.01562c.32812-.0625.85937-.29688.85937-.89063 0-.75-.625-1-1.26562-1-.76563 0-1.25.42188-1.25.76563 0 .21875.26562.32812.375.32812s.15624-.0625.1875-.15625c.14062-.4375.34375-.70312.65625-.70312.42187 0 .53125.4375.53125.75 0 .29687-.09375.8125-.57813.8125-.26562 0-.45312-.07813-.54687-.07813-.10938 0-.14063.07813-.14063.20313S.84375-2 .95313-2c.09374 0 .28124-.0625.54687-.0625.42188 0 .71875.3125.71875.95313 0 .67187-.29687.9375-.6875.9375-.34375 0-.57812-.25-.71875-.6875-.04687-.125-.10937-.1875-.21875-.1875-.17187 0-.40625.14062-.40625.375m0 0"/><path id="g" d="M.26563-.67187c0 .25.35937.75 1.28125.75 1.0625 0 1.48437-.625 1.48437-1.375 0-.71875-.40625-1.29688-1.29687-1.29688-.35938 0-.71875.15625-.92188.32813l.10938-1c.03124-.1875.0625-.20313.20312-.20313h1.54688l.1875-.51562-.03125-.0625H.67188L.60938-4l-.125 2.01563.20312.125c.23438-.28126.48438-.42188.79688-.42188.39062 0 .76562.29688.76562 1.0625 0 .60938-.20312 1.04688-.67187 1.04688-.35938 0-.54688-.25-.70313-.6875-.03125-.10938-.10937-.17188-.23437-.17188-.15626 0-.375.14063-.375.35938m0 0"/><path id="e" d="M.29688-1.45312c0 1.01562.5 1.53125 1.40625 1.53125.42187 0 1-.21875 1.17187-.875l-.1875-.09376C2.5-.45312 2.26563-.25 1.8125-.25 1.09375-.25.92188-1 .92188-1.5625c0-.90625.35937-1.26562.78125-1.26562.28124 0 .45312.1875.57812.53125.03125.09375.07813.14062.1875.14062.125 0 .35938-.0625.35938-.29687 0-.28125-.40625-.59375-1.0625-.59375-1.09375 0-1.46875.78125-1.46875 1.59375m0 0"/><path id="f" d="M.1875 0h1.48438v-.17187c-.4375-.03126-.45313-.04688-.45313-.35938v-1.42187c0-.15626 0-.23438.04688-.3125.10937-.25.375-.45313.71875-.45313.51562 0 .57812.375.57812.75v1.4375c0 .3125-.01562.32813-.45312.35938V0h1.48437v-.17187c-.4375-.03126-.45312-.04688-.45312-.35938v-1.42187c0-.15626 0-.23438.04687-.32813.07813-.23437.34375-.4375.6875-.4375.375 0 .60938.21875.60938.75v1.4375c0 .3125-.01563.32813-.45313.35938V0h1.48438v-.17187c-.4375-.03126-.46875-.04688-.46875-.35938v-1.54687c0-.60938-.32813-.96875-.89063-.96875-.5 0-.85937.32812-1.07812.46875-.14063-.28125-.375-.46875-.79688-.46875-.46875 0-.84375.3125-1.0625.46875l-.0625-.46875-.9375.15625V-2.75l.23438.04688c.15625.01562.20312.04687.20312.26562v1.90625c0 .3125-.03125.32813-.46875.35938Zm0 0"/></defs><path fill="none" stroke="red" stroke-miterlimit="10" stroke-width=".39673" d="M26.61328 44.7539v-7.33593h-7.33984"/><path fill="none" stroke="#000" stroke-miterlimit="10" stroke-width=".39673" d="m19.27344 17.23437 36.69531 27.51954H19.27344Zm0 0"/><use xlink:href="#a" x="4.45586" y="57.68995"/><use xlink:href="#b" x="8.54258" y="12.67829"/><use xlink:href="#c" x="60.52307" y="57.68995"/><use xlink:href="#d" x="42.17614" y="26.36706"/><use xlink:href="#e" x="46.856" y="26.36706"/><use xlink:href="#f" x="49.86025" y="26.36706"/><use xlink:href="#g" x="30.9842" y="53.35733"/><use xlink:href="#e" x="35.66407" y="53.35733"/><use xlink:href="#f" x="38.66831" y="53.35733"/></svg>