<svg xmlns="http://www.w3.org/2000/svg" xmlns:xlink="http://www.w3.org/1999/xlink" width="153.97pt" height="182.901pt" viewBox="0 0 153.97 182.901"><defs><path id="a" d="M0 0h3.6875C6.625 0 7.21875-1.51562 7.21875-2.51562c0-1.28125-.9375-1.84375-1.84375-2.01563l.01563-.01562c1.625-.20313 2.3125-1.125 2.3125-2.03125 0-.98438-.59375-1.82813-2.82813-1.82813H1.79688l-.07813.34375L2.4375-8c.21875.01563.3125.10938.3125.29688 0 .07812-.03125.1875-.0625.29687L1.25-1.01562c-.07812.40625-.20312.54687-.5.59375l-.6875.07812Zm2.4375-.9375c0-.07812 0-.17187.03125-.26562l.70313-3.125h.46875c1.21875 0 2.26562.35937 2.26562 1.73437C5.90625-1.5 5.25-.42187 3.625-.42187c-.95312 0-1.1875-.20313-1.1875-.51563M3.26563-4.75l.625-2.8125C3.98438-7.9375 4.04688-8 4.85938-8c1.03125 0 1.59375.51563 1.59375 1.375 0 1.26563-1.0625 1.875-2.40625 1.875Zm0 0"/><path id="b" d="M.64063-3.34375c0 1.60938.78125 3.53125 3.79687 3.53125.85938 0 1.6875-.125 2.46875-.51562L7.5-2.26562h-.35937C6.46875-1.04687 5.85938-.25 4.35938-.25c-1.40625 0-2.42188-.90625-2.42188-2.78125 0-1.09375.28125-2.4375.875-3.40625.60938-1.03125 1.5625-1.73437 2.85938-1.73437 1.54687 0 1.98437.70312 1.98437 2.04687h.375l.4375-1.82812c-.6875-.4375-1.82812-.65625-2.6875-.65625-2.28125 0-3.60937 1.07812-4.3125 2.21875C.79688-5.29687.64063-4.17187.64063-3.34375m0 0"/><path id="c" d="M-.23437 0h2.75l.07812-.34375-.67187-.0625C1.76562-.42187 1.6875-.5 1.6875-.625c0-.0625.03125-.15625.07813-.23437C2.15625-1.64062 2.54688-2.4375 3-3.25h2.73438l.29687 2.51563s-.0625.29687-.32812.32812l-.64063.0625L5 0h2.98438l.07812-.34375-.46875-.04687c-.375-.03125-.42187-.20313-.48437-.70313l-.90625-7.3125h-.85938L3.29688-4.82812c-.625 1.09375-1.625 2.90625-2.07813 3.625C.82813-.5625.625-.4375.25-.40625l-.40625.0625ZM3.25-3.71875l1.98438-3.5625.4375 3.5625Zm0 0"/><path id="d" d="M0 0h2.875l.0625-.34375-.48437-.04687c-.35938-.01563-.54688-.10938-.54688-.375 0-.64063.10938-1 .25-1.65625L3.26563-7.375h.03125L4.76563-.14062h.32812L9.82813-7.375h.03125L8.375-1.01562c-.10937.42187-.21875.5625-.51562.59375l-.67188.07812L7.10938 0h3.3125L10.5-.34375l-.71875-.07812c-.21875-.01563-.3125-.125-.3125-.3125q0-.1172.04688-.28126l1.45312-6.39062c.10938-.40625.20313-.57812.5-.60937l.67188-.04688.09375-.34375h-2.375C9.21875-7.29687 8.48438-6.20312 7.75-5.07812L5.60938-1.79687H5.5625l-.6875-3.375c-.25-1.10938-.48437-2.15625-.70312-3.23438H1.82813L1.75-8.0625 2.45313-8c.21875.01563.3125.125.3125.32813 0 .07812-.01563.17187-.03125.26562L1.57813-2.42187c-.14063.65625-.28126 1.10937-.42188 1.51562-.14062.39063-.35937.48438-.71875.51563l-.375.04687Zm0 0"/><path id="e" d="M0 0h3.45313l.0625-.34375-.84375-.07812C2.46875-.4375 2.375-.53125 2.375-.71875c0-.07812.01563-.17187.04688-.29687l.54687-2.39063H3.875c1.03125 0 1.98438-.14062 2.6875-.5625.76563-.48437 1.21875-1.3125 1.21875-2.21875 0-.82812-.375-1.45312-.96875-1.79687-.57812-.32813-1.35937-.42188-2.15625-.42188H1.8125l-.09375.34375.71875.04688c.21875.01562.3125.125.3125.32812q0 .1172-.04687.28125L1.23438-1.01562c-.09376.42187-.20313.5625-.5.59375L.0625-.34375Zm3.125-4.09375c0-.07812.01563-.15625.04688-.25l.73437-3.21875C3.98438-7.875 4.0625-8 4.6875-8 5.89063-8 6.5-7.42187 6.5-6.39062c0 1.73437-.96875 2.5625-2.60937 2.5625-.625 0-.76563-.0625-.76563-.26563m0 0"/><path id="f" d="M.04688 0H2.6875c1.96875 0 2.53125-.90625 2.53125-1.73437 0-.90625-.67187-1.3125-1.29687-1.42188l.01562-.01562c1.125-.125 1.60938-.76563 1.60938-1.42188 0-.70312-.42188-1.29687-2.03125-1.29687H1.3125l-.07812.26562.5.04688c.14062 0 .20312.0625.20312.20312 0 .0625-.01562.14063-.03125.23438L.92188-.75c-.0625.29688-.15626.42188-.375.4375l-.45313.04688Zm1.8125-.67187c0-.0625 0-.125.03124-.20313L2.35939-3h.34375c.8125 0 1.46875.26563 1.46875 1.17188 0 .76562-.45313 1.5-1.5625 1.5-.59375 0-.75-.125-.75-.34375m.5625-2.65625L2.875-5.28125c.0625-.25.09375-.29687.625-.29687.67188 0 1.0625.32812 1.0625.9375 0 .85937-.6875 1.3125-1.625 1.3125Zm0 0"/><path id="g" d="M.25-2.34375C.25-1.3125.71875.125 2.92188.125c.60937 0 1.21875-.07812 1.76562-.35937l.42188-1.42188h-.26563c-.5.85938-.92187 1.45313-1.95312 1.45313-.9375 0-1.60938-.60938-1.60938-1.89063 0-1.40625.65625-3.60937 2.5625-3.60937 1.0625 0 1.34375.5625 1.34375 1.46875h.28125l.3125-1.34375c-.48437-.3125-1.3125-.45313-1.89062-.45313C1.28125-6.03125.25-4.10937.25-2.34375m0 0"/><path id="h" d="M.71875-1.17187h4.6875v-.5625H.71875Zm0-1.89063h4.6875v-.57812H.71875Zm0 0"/><path id="i" d="M.92188 0h2.85937v-.26562l-.6875-.0625c-.1875-.01563-.28125-.07813-.28125-.39063V-5.75l-.04687-.04687-1.82813.3125V-5.25l.73438.09375c.15624.03125.21874.09375.21874.35938v4.07812c0 .3125-.09374.375-.28124.39063l-.6875.0625Zm0 0"/><path id="j" d="M.35938-.90625c0 .35938.5625 1 1.76562 1 1.45313 0 2.0625-.85937 2.0625-1.92187 0-1.09375-.65625-1.8125-1.79687-1.8125-.5 0-1 .21875-1.28125.45312l.17187-1.48437c.04688-.23438.07813-.28125.26563-.28125h2.15625l.23437-.65625-.04687-.07813H.9375l-.07812.07813L.6875-2.76562l.25.14062c.34375-.40625.67188-.59375 1.125-.59375.5625 0 1.125.40625 1.125 1.48438 0 .875-.32812 1.51562-1.01562 1.51562-.54688 0-.84375-.39062-1.03125-.9375q-.07032-.23437-.28126-.23437c-.20312 0-.5.17187-.5.48437m0 0"/><path id="m" d="M-.15625 0h1.9375l.04688-.26562-.46875-.04688c-.10938 0-.15626-.0625-.15626-.14062 0-.14063.875-1.76563.875-1.78125H3.9375L4.125-.53125s-.03125.20313-.20312.21875l-.45313.04688L3.40625 0H5.625l.04688-.26562-.32813-.03125c-.26562-.01563-.29687-.1875-.32812-.51563l-.60938-5.07812h-.70312l-1.4375 2.53125C1.8125-2.5625 1.10938-1.29687.8125-.8125c-.25.39063-.39062.48438-.65625.51563l-.26562.03125Zm2.42188-2.57812 1.34375-2.4375.28125 2.4375Zm0 0"/><path id="n" d="m.34375-4.4375.25.03125.09375-.17187c.09375-.23438.20313-.375.59375-.375H3.5625c-.07812.29687-.26562.84375-.95312 1.79687-.71875.98438-1.20313 1.92188-1.20313 2.85938 0 .32812.23438.39062.53125.39062.25 0 .45313-.04687.45313-.375.01562-1.23437.21875-2.0625.64062-2.75.60938-1.01562 1.03125-1.5625 1.28125-2.5625l-.07812-.09375H.64063Zm0 0"/><path id="o" d="M.32813-1.5625c0 .95313.65625 1.65625 1.96875 1.65625 1.32812 0 1.96875-.70312 1.96875-1.65625 0-.84375-.51563-1.34375-1.125-1.5.51562-.14062.92187-.57812.92187-1.26562 0-.9375-.73437-1.46875-1.76562-1.46875S.53125-5.25.53125-4.32812c0 .6875.4375 1.125.9375 1.26562-.59375.15625-1.14062.65625-1.14062 1.5m.98437.01563c0-.75.34375-1.3125.98438-1.3125.65625 0 1 .5625 1 1.3125 0 .76562-.32813 1.32812-1 1.32812-.67188 0-.98438-.5625-.98438-1.32812m.15625-2.79688c0-.65625.29688-1.125.82813-1.125.54687 0 .84375.46875.84375 1.125 0 .57813-.26563 1.14063-.84375 1.14063-.5625 0-.82813-.5625-.82813-1.14063m0 0"/><path id="p" d="M.04688 0H2.0625l.0625-.26562-.35937-.03125c-.25-.01563-.375-.07813-.375-.28125 0-.35938.09374-.70313.20312-1.20313L2.3125-5.125h.03125L3.3125-.09375h.3125L6.8125-5.125h.01563L5.8125-.75c-.0625.29688-.14062.42188-.35937.4375l-.4375.04688L4.95313 0h2.375l.0625-.26562-.48438-.04688c-.15625 0-.21875-.09375-.21875-.21875 0-.04687.01563-.125.03125-.21875l1-4.39062c.07813-.29688.14063-.4375.35938-.45313l.45312-.03125.0625-.26562H6.8125c-.42187.75-.89062 1.48437-1.375 2.23437L4-1.39062h-.03125l-.45312-2.3125c-.15625-.73438-.3125-1.45313-.45313-2.1875h-1.75L1.25-5.625l.48438.04688c.14062 0 .21874.0625.21874.21875 0 .04687-.01562.125-.04687.21875l-.76562 3.35937c-.10938.5-.20313.82813-.28126 1.10938-.09374.26562-.25.35937-.48437.375l-.28125.03125Zm0 0"/><path id="q" d="m.17188-1.71875.09375.20313H2.5625v.85937c0 .28125-.10937.32813-.29687.34375l-.54688.04688V0H4.0625v-.26562L3.67188-.3125c-.1875-.01562-.25-.0625-.25-.34375v-.85937h.875v-.4375h-.875V-5.6875h-.71875C1.875-4.48437.95313-3.03125.17188-1.71875m.6875-.23437C1.34375-2.84375 1.9375-3.8125 2.5625-4.79687v2.84375Zm0 0"/><path id="r" d="M.04688 0H2.5625l.04688-.26562-.57813-.04688c-.14062-.01562-.20312-.07812-.20312-.21875 0-.04687 0-.125.01562-.21875l.375-1.59375h.60938c2.46875 0 2.76562-1.32812 2.76562-1.96875 0-1.57812-1.71875-1.57812-2.25-1.57812H1.3125L1.25-5.625l.48438.03125c.15624.01563.20312.07813.20312.23438 0 .04687 0 .125-.03125.21875l-1 4.39062c-.07812.29688-.14062.42188-.35937.4375l-.45313.04688Zm2.29687-2.84375c0-.0625 0-.10937.01563-.17187L2.875-5.28125c.0625-.21875.10938-.29687.53125-.29687.78125 0 1.1875.39062 1.1875 1.09375 0 1.125-.64062 1.8125-1.75 1.8125-.40625 0-.5-.04688-.5-.17188m0 0"/><path id="s" d="M.35938-2.67187c0 1.8125.64062 2.76562 2 2.76562 1.3125 0 1.98437-.79687 1.98437-1.92187 0-1.15625-.73437-1.78125-1.64062-1.78125-.64063 0-1.10938.40625-1.375.71875.01562-1.57813.4375-2.57813 1.20312-2.57813.39063 0 .65625.32813.78125.84375.04688.10938.125.1875.26563.1875.20312 0 .5-.14062.5-.40625 0-.375-.4375-.95312-1.48438-.95312-1.375 0-2.23437 1.04687-2.23437 3.125m.96875.65625c0-.5.35937-1.10938 1.03125-1.10938.53125 0 1.01562.46875 1.01562 1.4375 0 .875-.29687 1.46875-.98437 1.46875-.71875 0-1.0625-.79687-1.0625-1.79687m0 0"/><path id="k" d="M.42188-2.04687c0 1.42187.6875 2.14062 1.96875 2.14062.59375 0 1.40625-.29687 1.64062-1.21875l-.25-.10937c-.26562.59375-.59375.89062-1.21875.89062-1.01562 0-1.25-1.0625-1.25-1.85937 0-1.26563.48438-1.78125 1.07813-1.78125.39062 0 .64062.28125.8125.75.04687.14062.10937.21875.26562.21875.17188 0 .5-.10938.5-.4375 0-.39063-.5625-.82813-1.48437-.82813-1.54688 0-2.0625 1.09375-2.0625 2.23438m0 0"/><path id="l" d="M.26563 0h2.07812v-.25c-.60937-.04687-.625-.0625-.625-.5v-1.98437c0-.21875 0-.34375.0625-.45313.15625-.34375.53125-.625 1-.625.73438 0 .82813.53125.82813 1.0625v2c0 .4375-.03125.45313-.64063.5V0h2.0625v-.25c-.59375-.04687-.625-.0625-.625-.5v-1.98437c0-.21875 0-.32813.0625-.46875.125-.34375.48438-.60938.96875-.60938.53125 0 .85938.29688.85938 1.0625v2c0 .4375-.03125.45313-.64063.5V0h2.07813v-.25c-.60938-.04687-.64063-.0625-.64063-.5v-2.17187c0-.85938-.45312-1.35938-1.26562-1.35938-.70313 0-1.20313.46875-1.5.65625-.20313-.40625-.53125-.65625-1.125-.65625-.65625 0-1.1875.4375-1.48438.65625L1.625-4.28125.3125-4.0625v.20313l.32813.04687c.21874.04688.28124.07813.28124.39063V-.75c0 .4375-.03124.45313-.65624.5Zm0 0"/></defs><path fill="none" stroke="#000" stroke-miterlimit="10" stroke-width=".39828" d="m21.1836 17.30078 114.55077 30.6914-118.22656 9.53907L95.0625 74.10156Zm0 0"/><use xlink:href="#a" x="8.10828" y="12.72811"/><use xlink:href="#b" x="140.30473" y="43.2386"/><use xlink:href="#c" x="63.71019" y="48.89953"/><use xlink:href="#d" x="99.63574" y="87.08886"/><use xlink:href="#e" x="4.34132" y="70.51883"/><use xlink:href="#f" x="13.0526" y="116.25477"/><use xlink:href="#g" x="19.16885" y="116.25477"/><use xlink:href="#h" x="27.27853" y="116.25477"/><use xlink:href="#i" x="35.17981" y="116.25477"/><use xlink:href="#j" x="39.77379" y="116.25477"/><use xlink:href="#k" x="46.27952" y="116.25477"/><use xlink:href="#l" x="50.50199" y="116.25477"/><use xlink:href="#m" x="13.0526" y="131.78787"/><use xlink:href="#f" x="19.2957" y="131.78787"/><use xlink:href="#h" x="27.1698" y="131.78787"/><use xlink:href="#n" x="35.07108" y="131.78787"/><use xlink:href="#k" x="41.57607" y="131.78787"/><use xlink:href="#l" x="45.79854" y="131.78787"/><use xlink:href="#m" x="13.0526" y="147.32096"/><use xlink:href="#g" x="19.2957" y="147.32096"/><use xlink:href="#h" x="27.40539" y="147.32096"/><use xlink:href="#o" x="35.30667" y="147.32096"/><use xlink:href="#k" x="41.81254" y="147.32096"/><use xlink:href="#l" x="46.03501" y="147.32096"/><use xlink:href="#m" x="13.0526" y="162.85405"/><use xlink:href="#p" x="19.2957" y="162.85405"/><use xlink:href="#h" x="30.22339" y="162.85405"/><use xlink:href="#q" x="38.12467" y="162.85405"/><use xlink:href="#k" x="44.63071" y="162.85405"/><use xlink:href="#l" x="48.85319" y="162.85405"/><use xlink:href="#m" x="13.0526" y="178.38844"/><use xlink:href="#r" x="19.2957" y="178.38844"/><use xlink:href="#h" x="27.21511" y="178.38844"/><use xlink:href="#s" x="35.11639" y="178.38844"/><use xlink:href="#k" x="41.62154" y="178.38844"/><use xlink:href="#l" x="45.84401" y="178.38844"/></svg>