<svg xmlns="http://www.w3.org/2000/svg" xmlns:xlink="http://www.w3.org/1999/xlink" width="145.546pt" height="96.362pt" viewBox="0 0 145.546 96.362"><defs><path id="a" d="M-.35937 0h4.20312l.10938-.53125L2.9375-.64062c-.25-.01563-.34375-.125-.34375-.3125 0-.09376.04688-.23438.09375-.375.625-1.1875 1.21875-2.39063 1.90625-3.64063h4.17188L9.21875-1.125s-.09375.45313-.48437.48438l-1 .10937L7.64063 0h4.57812l.10938-.53125-.70313-.0625c-.57812-.0625-.65625-.3125-.75-1.09375L9.5-12.875H8.17188l-3.125 5.48438c-.95313 1.67187-2.5 4.4375-3.1875 5.54687C1.26563-.875.95313-.67187.375-.60937l-.60937.07812Zm5.32812-5.6875L8-11.14062l.67188 5.45312Zm0 0"/><path id="b" d="M0 0h5.64063c4.5 0 5.40625-2.3125 5.40625-3.85937 0-1.95313-1.45313-2.8125-2.8125-3.0625L8.25-6.96875c2.48438-.29687 3.53125-1.70312 3.53125-3.10937 0-1.5-.89062-2.79688-4.3125-2.79688H2.75l-.10937.54688 1.09375.09375c.32812.01562.46875.15625.46875.45312 0 .125-.04688.28125-.07813.45313L1.92188-1.54687c-.14063.60937-.3125.82812-.78125.89062l-1.04688.125Zm3.71875-1.42187c0-.14063.01563-.28126.0625-.42188l1.0625-4.76562h.73438c1.84375 0 3.46875.53125 3.46875 2.65625 0 1.65625-1.01563 3.29687-3.5 3.29687-1.46875 0-1.82813-.29687-1.82813-.76562m1.26563-5.84375.96875-4.3125c.14062-.5625.25-.65625 1.48437-.65625 1.5625 0 2.4375.79687 2.4375 2.09375 0 1.9375-1.625 2.875-3.67187 2.875Zm0 0"/><path id="c" d="M.96875-5.10937c0 2.45312 1.20313 5.39062 5.82813 5.39062 1.3125 0 2.59375-.1875 3.78125-.78125l.90625-2.96875h-.5625C9.89063-1.60937 8.96875-.375 6.67188-.375c-2.15625 0-3.70313-1.39062-3.70313-4.25 0-1.6875.4375-3.75 1.32813-5.23437.92187-1.5625 2.39062-2.65625 4.39062-2.65625 2.35938 0 3.03125 1.09375 3.03125 3.125h.57813l.67187-2.78125c-1.07812-.67188-2.8125-1-4.125-1-3.5 0-5.51562 1.65625-6.60937 3.39062C1.20313-8.10937.96875-6.39062.96875-5.10937m0 0"/><path id="d" d="M1.01563 0h3.15625v-.3125l-.70313-.04687c-.21875-.03125-.3125-.09375-.3125-.4375v-5.46875l-.07812-.04688-2.04688.32813v.26562l.73438.10938c.20312.03125.26562.10937.26562.40625v4.40625c0 .34375-.09375.40625-.3125.4375l-.70312.04687Zm0 0"/><path id="g" d="M.28125-.125.39063 0h4.01562l.35938-1.40625-.29688-.04687c-.21875.5-.39062.5625-.76562.5625h-2.375C1.48437-1.3125 1.92188-1.90625 2.85938-2.5c.98437-.60937 1.625-1.0625 1.625-2.0625 0-1.29687-.89063-1.75-1.95313-1.75C1.28125-6.3125.5-5.625.5-5c0 .35938.40625.53125.64063.53125.17187 0 .28124-.09375.32812-.29687.14063-.6875.48438-1.1875 1-1.1875.60938 0 .8125.53125.8125 1.20312 0 .8125-.32812 1.45313-1.25 2.21875C.82813-1.5.39063-.79687.28125-.125m0 0"/><path id="e" d="M.45313-2.23437c0 1.54687.76562 2.34375 2.15625 2.34375.65625 0 1.53125-.34375 1.79687-1.32813L4.125-1.35937c-.28125.65625-.65625.98437-1.32812.98437-1.10938 0-1.375-1.15625-1.375-2.03125 0-1.375.54687-1.9375 1.1875-1.9375.42187 0 .6875.3125.875.8125.0625.15625.125.23438.29687.23438.1875 0 .54688-.10938.54688-.46875 0-.42188-.60938-.90625-1.625-.90625-1.6875 0-2.25 1.20312-2.25 2.4375m0 0"/><path id="f" d="M.29688 0H2.5625v-.26562C1.90625-.3125 1.875-.34375 1.875-.8125v-2.17187c0-.23438 0-.375.0625-.5.17188-.375.57813-.67188 1.09375-.67188.8125 0 .90625.57813.90625 1.15625v2.1875c0 .46875-.03125.5-.70312.54688V0H5.5v-.26562c-.65625-.04688-.6875-.07813-.6875-.54688v-2.17187c0-.23438 0-.35938.0625-.5.14063-.39063.53125-.67188 1.0625-.67188.57813 0 .9375.3125.9375 1.15625v2.1875c0 .46875-.03125.5-.70312.54688V0h2.28125v-.26562C7.78125-.3125 7.75-.34375 7.75-.8125v-2.375c0-.9375-.51562-1.48437-1.39062-1.48437-.76563 0-1.3125.51562-1.625.71875-.23438-.4375-.59375-.71875-1.25-.71875-.70313 0-1.28125.48437-1.60938.71875l-.09375-.71875-1.4375.23437v.23438l.34375.04687c.25.04688.3125.07813.3125.42188V-.8125c0 .46875-.03125.5-.70312.54688Zm0 0"/></defs><path fill="none" stroke="red" stroke-miterlimit="10" stroke-width=".39588" d="M110.875 68.69531H99.60937V57.4336H110.875v11.26172"/><path fill="none" stroke="#000" stroke-miterlimit="10" stroke-width=".39588" d="M110.875 68.69531v-42.2383l-84.4805 42.2383Zm0 0"/><use xlink:href="#a" x="117.86644" y="88.55668"/><use xlink:href="#b" x="117.86644" y="19.46413"/><use xlink:href="#c" x="6.85046" y="88.85371"/><use xlink:href="#d" x="117.86644" y="50.68542"/><use xlink:href="#e" x="125.05286" y="50.68542"/><use xlink:href="#f" x="129.66492" y="50.68542"/><use xlink:href="#g" x="58.44387" y="82.01499"/><use xlink:href="#e" x="65.63029" y="82.01499"/><use xlink:href="#f" x="70.24235" y="82.01499"/></svg>