<svg xmlns="http://www.w3.org/2000/svg" xmlns:xlink="http://www.w3.org/1999/xlink" width="102.734pt" height="177.705pt" viewBox="0 0 102.734 177.705"><defs><path id="a" d="M.39063-3.28125c0 2 1.14062 3.46875 3.5625 3.46875 2.14062 0 3.1875-1.10937 3.85937-2.3125.67188-1.1875.78125-2.42187.78125-2.90625 0-2.48437-1.51562-3.5625-3.51562-3.5625-1.9375 0-3.14063 1.07813-3.84375 2.23438C.5625-5.23437.39063-4.07812.39063-3.28125m1.28125.48438c0-1.01563.1875-2.15625.75-3.32813.54687-1.15625 1.42187-2.04687 2.70312-2.04687 1.32813 0 2.1875.79687 2.1875 2.51562 0 .6875-.0625 1.6875-.5625 2.98438C6.23438-1.375 5.42188-.25 3.84375-.25c-1.32812 0-2.17187-.84375-2.17187-2.54687m0 0"/><path id="b" d="M.26563 0h3.3125l.07812-.34375-.71875-.0625c-.21875 0-.29687-.125-.29687-.3125 0-.07812.01562-.1875.03125-.29687l1.45312-6.375c.09375-.375.20313-.57813.51563-.60938l.67187-.04687.07813-.35938H2.0625l-.07812.35938L2.70313-8C2.90625-7.98437 3-7.85937 3-7.65625c0 .07813-.01562.15625-.04687.26563L1.5-1.01562c-.09375.39062-.20312.5625-.5.59375l-.67187.07812Zm0 0"/><path id="c" d="M.26563 0h6.20312l.625-2.125h-.35937C6.10938-.64062 5.5625-.42187 4.1875-.42187c-1.23437 0-1.51562-.125-1.51562-.51563 0-.125.04687-.29687.09375-.54687L4.125-7.39062c.09375-.40625.20313-.57813.51563-.60938l.71875-.04687.09375-.35938H2.0625l-.07812.35938L2.70313-8C2.90625-7.98437 3-7.875 3-7.67187q0 .11718-.04687.28125L1.5-1.01562c-.10937.4375-.20312.5625-.5.59375l-.67187.07812Zm0 0"/><path id="d" d="M-.23437 0H2.5l.07813-.34375-.67188-.0625C1.75-.42187 1.6875-.5 1.6875-.625c0-.0625.03125-.15625.0625-.23437.40625-.78125.79688-1.5625 1.25-2.39063h2.71875l.29688 2.51563s-.0625.29687-.3125.32812l-.65625.0625L4.98438 0h2.98437l.07813-.34375-.46875-.04687c-.375-.03125-.42188-.20313-.48438-.70313l-.89062-7.3125h-.85938L3.29688-4.8125c-.625 1.07813-1.625 2.89063-2.07813 3.60938C.82813-.5625.625-.4375.25-.40625l-.40625.0625ZM3.25-3.70312l1.96875-3.57813.4375 3.57813Zm0 0"/><path id="e" d="M0 0h3.6875c2.92188 0 3.51563-1.51562 3.51563-2.51562 0-1.28125-.9375-1.84375-1.82813-2l.01563-.03125C7-4.75 7.6875-5.65625 7.6875-6.57812c0-.98438-.57812-1.82813-2.8125-1.82813H1.79688l-.07813.35938.71875.0625c.21875.01562.29688.10937.29688.29687 0 .07813-.01563.1875-.04688.29688L1.25-1.01562c-.09375.40625-.20312.54687-.5.59375l-.6875.07812Zm2.42188-.9375c0-.07812.01562-.17187.04687-.26562l.70313-3.10938h.46875c1.20312 0 2.26562.34375 2.26562 1.73438C5.90625-1.5 5.25-.42187 3.625-.42187c-.96875 0-1.20312-.20313-1.20312-.51563M3.25-4.75l.64063-2.8125c.09375-.35937.15625-.42187.96875-.42187 1.01562 0 1.59375.51562 1.59375 1.375 0 1.26562-1.0625 1.85937-2.40625 1.85937Zm0 0"/><path id="f" d="M.1875 0h4.375l.45313-1.54687h-.28125c-.35938.875-.76563 1.21875-1.75 1.21875-.79688 0-1-.0625-1-.34375 0-.0625.03124-.17188.04687-.32813l.95313-4.14062c.07812-.28125.14062-.42188.35937-.4375L3.8125-5.625l.07813-.25h-2.4375l-.07813.25.48438.04688c.15624 0 .21874.07812.21874.21875 0 .0625-.01562.125-.03125.21875l-1 4.40625c-.07812.29687-.15624.40625-.375.42187l-.4375.04688Zm0 0"/><path id="g" d="M-.15625 0h1.92188l.0625-.26562-.46875-.04688c-.10938 0-.17188-.0625-.17188-.14062 0-.14063.89063-1.75.89063-1.76563H3.9375l.1875 1.6875s-.03125.20313-.21875.21875l-.45312.04688L3.40625 0h2.20313l.04687-.26562-.3125-.03125C5.07813-.3125 5.04688-.48437 5-.8125L4.40625-5.875h-.70312l-1.4375 2.53125C1.8125-2.54687 1.10938-1.29687.8125-.8125c-.25.39063-.39062.48438-.65625.51563l-.26562.03125Zm2.42188-2.5625 1.34375-2.45312.28125 2.45312Zm0 0"/><path id="h" d="M.71875-1.17187h4.6875v-.5625H.71875Zm0-1.89063h4.6875v-.5625H.71875Zm0 0"/><path id="i" d="M.34375-2.84375c0 1.67188.5 2.9375 1.95313 2.9375C3.75.09375 4.25-1.17187 4.25-2.84375c0-1.65625-.5-2.9375-1.95312-2.9375C.84375-5.78125.34375-4.5.34375-2.84375m.98438 0c0-1.28125.1875-2.625.96875-2.625s.98437 1.34375.98437 2.625-.20312 2.625-.98437 2.625-.96875-1.34375-.96875-2.625m0 0"/><path id="j" d="m.4375 1.0625.1875.17188c.42188-.40625 1.10938-1 1.10938-1.67188 0-.45312-.25-.79687-.625-.79687-.29688 0-.46875.23437-.46875.45312 0 .3125.26562.46875.26562.82813 0 .35937-.20312.71875-.46875 1.01562m0 0"/><path id="k" d="m.17188-1.70312.09375.1875h2.28125v.85937c0 .28125-.09375.32813-.28125.34375l-.54688.04688V0h2.32813v-.26562L3.65625-.3125c-.17187-.01562-.23437-.0625-.23437-.34375v-.85937h.85937v-.4375h-.85937V-5.6875h-.71875C1.875-4.46875.95313-3.03125.17188-1.70312m.6875-.25c.48437-.89063 1.0625-1.84375 1.6875-2.84375v2.84375Zm0 0"/><path id="l" d="M.32813-1.5625c0 .95313.65625 1.65625 1.96875 1.65625 1.32812 0 1.96875-.70312 1.96875-1.65625 0-.84375-.51563-1.34375-1.125-1.5.5-.125.92187-.57812.92187-1.25 0-.9375-.73437-1.46875-1.76562-1.46875S.53125-5.25.53125-4.3125c0 .67188.4375 1.125.9375 1.25-.59375.15625-1.14062.65625-1.14062 1.5m.98437.03125c0-.76562.34375-1.32812.98438-1.32812.64062 0 .98437.5625.98437 1.32812 0 .75-.3125 1.3125-.98437 1.3125-.67188 0-.98438-.5625-.98438-1.3125m.15625-2.8125c0-.64062.28125-1.125.82813-1.125.54687 0 .82812.48438.82812 1.125 0 .59375-.25 1.15625-.82812 1.15625-.5625 0-.82813-.5625-.82813-1.15625m0 0"/><path id="o" d="M.1875 0h2.40625l.04688-.26562-.48438-.03125c-.14062-.01563-.20312-.09375-.20312-.23438 0-.04687.01562-.125.03124-.20312l1-4.40625c.0625-.26563.14063-.42188.35938-.4375l.45313-.04688.0625-.25H1.45313l-.07813.25.48438.04688c.15624 0 .21874.09375.21874.21875 0 .0625-.01562.14062-.03125.21875l-1 4.40625c-.0625.26562-.15624.40625-.375.42187l-.4375.04688Zm0 0"/><path id="p" d="M.92188 0h2.84375v-.26562l-.67188-.0625c-.1875-.01563-.28125-.07813-.28125-.39063v-5.01562l-.04687-.04688-1.82813.3125V-5.25l.73438.10938c.15624.01562.20312.07812.20312.34375v4.07812c0 .3125-.07812.375-.28125.39063l-.67187.0625Zm0 0"/><path id="q" d="M.25-.09375.34375 0H3.9375L4.25-1.21875 4-1.25c-.20312.4375-.35937.51563-.70312.51563H1.125c.14063-.42188.59375-.98438 1.42188-1.53125.85937-.57813 1.46875-.98438 1.46875-1.90625 0-1.1875-.79688-1.60938-1.75-1.60938-1.15625 0-1.8125.67188-1.8125 1.1875 0 .3125.35937.45313.53125.45313s.25-.09375.28124-.25c.14063-.60938.45313-1.07813.95313-1.07813.59375 0 .78125.51563.78125 1.14063 0 .8125-.375 1.35937-1.15625 2.04687C.75-1.34375.375-.73437.25-.09375m0 0"/><path id="r" d="M.04688 0h2.625c1.98437 0 2.53125-.90625 2.53125-1.73437 0-.89063-.67188-1.3125-1.28125-1.40625v-.03125c1.125-.125 1.60937-.75 1.60937-1.42188 0-.70312-.40625-1.28125-2.01562-1.28125H1.29688l-.0625.25.5.04688c.14062.01562.20312.07812.20312.21875 0 .04687-.01562.125-.03125.21875l-1 4.40625c-.0625.28124-.14062.40625-.35937.42187l-.45313.04688Zm1.8125-.67187c0-.0625 0-.125.01562-.20313L2.35938-3h.34375c.8125 0 1.45312.28125 1.45312 1.17188 0 .76562-.45312 1.5-1.54687 1.5-.59375 0-.75-.125-.75-.34375m.5625-2.64063L2.875-5.26562c.0625-.25.09375-.29688.60938-.29688.67187 0 1.07812.32813 1.07812.9375 0 .84375-.6875 1.3125-1.625 1.3125Zm0 0"/><path id="s" d="M.35938-.90625c0 .35938.54687 1 1.75 1 1.45312 0 2.0625-.85937 2.0625-1.92187 0-1.07813-.64063-1.8125-1.78125-1.8125-.5 0-1 .21875-1.28125.46875l.17187-1.5c.04688-.23438.07813-.26563.25-.26563H3.6875l.25-.65625-.0625-.09375H.9375l-.07812.09375L.6875-2.76562l.25.14062c.34375-.40625.67188-.59375 1.125-.59375.54688 0 1.10938.40625 1.10938 1.48438 0 .875-.32813 1.51562-1.01563 1.51562-.53125 0-.82812-.39062-1.01562-.9375C1.07813-1.29687 1-1.39062.84375-1.39062c-.1875 0-.48437.17187-.48437.48437m0 0"/><path id="t" d="M.375-2.28125C.375-.875 1.21875.125 2.90625.125c1.51563 0 2.25-.76562 2.71875-1.60937.45313-.82813.53125-1.6875.53125-2.04688 0-1.73437-1.04687-2.48437-2.46875-2.48437-2.26562 0-3.3125 2.04687-3.3125 3.73437m1.03125.40625c0-1.46875.73438-3.8125 2.34375-3.8125.875 0 1.39063.54688 1.39063 1.64063 0 .5625-.07813 1.3125-.42188 2.1875C4.375-.95312 3.8125-.20312 2.8125-.20312c-.875 0-1.40625-.5625-1.40625-1.67188m0 0"/><path id="u" d="m.34375-4.42187.25.01562.07813-.17187c.10937-.21875.21874-.35938.60937-.35938H3.5625c-.09375.29688-.26562.84375-.95312 1.78125-.73438 1-1.20313 1.92188-1.20313 2.85938 0 .32812.23438.39062.51563.39062.26562 0 .46875-.04687.46875-.375 0-1.23437.21875-2.0625.625-2.75.60937-1.01562 1.03125-1.5625 1.29687-2.5625l-.09375-.09375H.64063Zm0 0"/><path id="m" d="M.42188-2.04687c0 1.42187.6875 2.14062 1.96875 2.14062.59375 0 1.40625-.29687 1.64062-1.21875l-.26562-.10937c-.25.59375-.59375.89062-1.21875.89062-1.01563 0-1.25-1.0625-1.25-1.85937 0-1.26563.5-1.76563 1.09375-1.76563.39062 0 .625.28125.79687.73438.0625.14062.10938.21875.28125.21875.17188 0 .5-.10938.5-.4375 0-.375-.5625-.8125-1.48437-.8125-1.54688 0-2.0625 1.09375-2.0625 2.21875m0 0"/><path id="n" d="M.26563 0h2.07812v-.25c-.60937-.04687-.64062-.0625-.64062-.48437v-2c0-.21875 0-.32813.0625-.45313.17187-.34375.54687-.625 1.01562-.625.73438 0 .8125.53125.8125 1.0625v2.01563c0 .42187-.01562.4375-.64062.48437V0h2.07812v-.25c-.60937-.04687-.64062-.0625-.64062-.48437v-2c0-.21875.01562-.32813.0625-.45313.14062-.34375.5-.625.96875-.625.54687 0 .85937.29688.85937 1.0625v2.01563c0 .42187-.01562.4375-.64062.48437V0h2.07812v-.25c-.59375-.04687-.64062-.0625-.64062-.48437v-2.17188c0-.85937-.45313-1.35937-1.26563-1.35937-.6875 0-1.1875.45312-1.48437.64062-.21875-.39062-.53125-.64062-1.14063-.64062-.64062 0-1.17187.4375-1.48437.64062L1.625-4.26562l-1.3125.21875v.20312l.32813.04688c.20312.03125.26562.0625.26562.375v2.6875c0 .42187-.01562.4375-.64062.48437Zm0 0"/></defs><path fill="none" stroke="#000" stroke-miterlimit="10" stroke-width=".39747" d="M21.79297 78.08984h36.7578l8.45311-43.37107Zm0 0"/><use xlink:href="#a" x="7.71103" y="91.24531"/><use xlink:href="#b" x="63.12156" y="91.05181"/><use xlink:href="#c" x="71.57667" y="47.67213"/><path fill="none" stroke="#000" stroke-miterlimit="10" stroke-width=".39747" d="M70.3945 17.3594h14.70703"/><use xlink:href="#d" x="56.99144" y="12.78446"/><use xlink:href="#e" x="89.67581" y="12.78446"/><path fill="none" stroke="#000" stroke-miterlimit="10" stroke-width=".39747" d="m67.0117 34.71096 3.39453-17.36327M67.0117 34.71096l18.10155-17.36327"/><use xlink:href="#f" x="4.30585" y="125.28866"/><use xlink:href="#g" x="9.87609" y="125.28866"/><use xlink:href="#h" x="17.8607" y="125.28866"/><use xlink:href="#i" x="25.73679" y="125.28866"/><use xlink:href="#j" x="30.32139" y="125.28866"/><use xlink:href="#k" x="33.64002" y="125.28866"/><use xlink:href="#l" x="38.22461" y="125.28866"/><use xlink:href="#m" x="44.7261" y="125.28866"/><use xlink:href="#n" x="48.93994" y="125.28866"/><use xlink:href="#f" x="4.30585" y="140.79002"/><use xlink:href="#o" x="9.87609" y="140.79002"/><use xlink:href="#h" x="16.05218" y="140.79002"/><use xlink:href="#p" x="23.92827" y="140.79002"/><use xlink:href="#j" x="28.51287" y="140.79002"/><use xlink:href="#q" x="31.8315" y="140.79002"/><use xlink:href="#m" x="38.33235" y="140.79002"/><use xlink:href="#n" x="42.5462" y="140.79002"/><use xlink:href="#f" x="4.30585" y="156.29139"/><use xlink:href="#r" x="9.87609" y="156.29139"/><use xlink:href="#h" x="17.7341" y="156.29139"/><use xlink:href="#i" x="25.6102" y="156.29139"/><use xlink:href="#j" x="30.19479" y="156.29139"/><use xlink:href="#l" x="33.51342" y="156.29139"/><use xlink:href="#s" x="38.09802" y="156.29139"/><use xlink:href="#m" x="44.59902" y="156.29139"/><use xlink:href="#n" x="48.81287" y="156.29139"/><use xlink:href="#f" x="4.30585" y="171.79275"/><use xlink:href="#t" x="9.87609" y="171.79275"/><use xlink:href="#h" x="18.349" y="171.79275"/><use xlink:href="#p" x="26.22509" y="171.79275"/><use xlink:href="#j" x="30.80969" y="171.79275"/><use xlink:href="#u" x="34.12832" y="171.79275"/><use xlink:href="#m" x="40.63" y="171.79275"/><use xlink:href="#n" x="44.84385" y="171.79275"/></svg>