<svg xmlns="http://www.w3.org/2000/svg" xmlns:xlink="http://www.w3.org/1999/xlink" width="176.8pt" height="307.502pt" viewBox="0 0 176.8 307.502"><defs><path id="a" d="M.67188-5.6875c0 3.46875 1.98437 6 6.17187 6 3.71875 0 5.53125-1.90625 6.6875-3.98437C14.67188-5.73437 14.875-7.875 14.875-8.70312c0-4.3125-2.60937-6.17188-6.07812-6.17188-3.35938 0-5.4375 1.85938-6.67188 3.85938C.96875-9.0625.67188-7.07812.67188-5.6875m2.21875.85938c0-1.76563.32812-3.73438 1.29687-5.78125.95313-1.98438 2.45313-3.53125 4.70313-3.53125 2.29687 0 3.78125 1.35937 3.78125 4.34375 0 1.20312-.125 2.92187-.98438 5.17187-.875 2.25-2.3125 4.20313-5.04687 4.20313-2.28125 0-3.75-1.48438-3.75-4.40625m0 0"/><path id="b" d="M.45313 0h5.75l.125-.60937-1.25-.07813C4.71875-.71875 4.5625-.92187 4.5625-1.25c0-.14062.03125-.3125.0625-.5l2.51563-11.04687c.15625-.65625.35937-1.01563.89062-1.04688l1.17188-.09375.125-.60937h-5.75l-.15625.60937 1.25.09375c.35937.01563.51562.23438.51562.57813 0 .125-.01562.28125-.0625.46875L2.59375-1.75c-.15625.67188-.35937.96875-.875 1.01563l-1.15625.125Zm0 0"/><path id="c" d="M.45313 0h10.75l1.07812-3.6875h-.625C10.57813-1.09375 9.625-.73437 7.25-.73437c-2.15625 0-2.625-.20313-2.625-.875 0-.21876.07813-.53125.15625-.96875l2.35938-10.21875C7.3125-13.5 7.5-13.8125 8.03125-13.84375l1.25-.09375.15625-.60937H3.57813l-.15625.60937 1.25.09375c.35937.01563.51562.1875.51562.54688 0 .14062-.01562.29687-.0625.5L2.59375-1.75c-.17187.75-.35937.96875-.875 1.01563l-1.15625.125Zm0 0"/><path id="d" d="M-.40625 0h4.75l.125-.60937L3.3125-.71875c-.26562-.01562-.375-.15625-.375-.35937 0-.10938.03125-.26563.10938-.42188.6875-1.34375 1.35937-2.70312 2.14062-4.10937h4.71875l.51563 4.32812s-.10938.51563-.54688.5625L8.75-.60937 8.64063 0h5.17187l.125-.60937-.79687-.0625c-.65625-.0625-.75-.35938-.85938-1.23438l-1.54687-12.64062h-1.5L5.70313-8.34375c-1.07813 1.875-2.8125 5.01563-3.59375 6.26563C1.4375-.98437 1.07813-.76562.42188-.6875l-.6875.07813Zm6.01563-6.42187 3.4375-6.17188.75 6.17188Zm0 0"/><path id="e" d="M0 0h6.375c5.07813 0 6.10938-2.625 6.10938-4.35937 0-2.21875-1.625-3.1875-3.17188-3.46875l.01563-.04688c2.79687-.34375 3.98437-1.92187 3.98437-3.51562 0-1.70313-1-3.15625-4.875-3.15625H3.10938l-.14063.60937 1.26563.10938c.35937.01562.51562.17187.51562.51562 0 .14063-.04687.3125-.09375.51563L2.17188-1.75c-.15625.70313-.35938.9375-.875 1.01563l-1.1875.125Zm4.20313-1.60937c0-.15626.03125-.3125.07812-.46875l1.20313-5.39063h.82812c2.07813 0 3.90625.59375 3.90625 3 0 1.875-1.14062 3.73438-3.95312 3.73438-1.65625 0-2.0625-.34375-2.0625-.875m1.4375-6.60938 1.09375-4.875c.15625-.625.26562-.73437 1.67187-.73437 1.78125 0 2.76563.89062 2.76563 2.375 0 2.1875-1.84375 3.23437-4.17188 3.23437Zm0 0"/><path id="f" d="M.3125 0h7.60938l.76562-2.6875h-.46875C7.5625-1.15625 6.875-.5625 5.17188-.5625c-1.375 0-1.73438-.10937-1.73438-.59375 0-.125.04688-.3125.09375-.5625l1.64063-7.1875c.125-.5.23437-.73437.625-.76562l.8125-.0625.125-.45313H2.5l-.125.45313.85938.0625c.25.01562.35937.14062.35937.39062q0 .14063-.04687.375l-1.75 7.625c-.125.53125-.25.70313-.625.75l-.76563.07813Zm0 0"/><path id="g" d="M-.28125 0h3.35938l.09375-.45312-.82813-.07813c-.1875-.01562-.28125-.10937-.28125-.25 0-.25 1.53125-3.04687 1.54688-3.07812H6.8125l.32813 2.9375s-.0625.35937-.375.39062l-.78125.07813L5.89063 0h3.82812l.09375-.45312L9.25-.5c-.45312-.04687-.51562-.34375-.57812-.90625L7.625-10.1875H6.40625L3.92188-5.79687c-.78125 1.375-2.01563 3.5625-2.53125 4.39062-.42188.6875-.67188.84375-1.125.89063l-.45313.0625Zm4.20313-4.45312L6.25-8.6875l.48438 4.23438Zm0 0"/><path id="h" d="M1.25-2.01562h8.10938v-1H1.25Zm0-3.28125h8.10938v-.98438H1.25Zm0 0"/><path id="i" d="M.59375-4.92187c0 2.89062.875 5.09375 3.39063 5.09375 2.5 0 3.375-2.20313 3.375-5.09375 0-2.875-.875-5.09375-3.375-5.09375-2.51563 0-3.39063 2.21875-3.39063 5.09375m1.6875 0c0-2.21875.35938-4.54688 1.70313-4.54688s1.6875 2.32813 1.6875 4.54688S5.32813-.375 3.98438-.375 2.28125-2.70312 2.28125-4.92187m0 0"/><path id="j" d="m.75 1.82813.32813.29687C1.8125 1.4375 3 .40625 3-.75c0-.78125-.4375-1.375-1.07812-1.375-.53125 0-.8125.40625-.8125.78125 0 .53125.45312.8125.45312 1.4375 0 .60938-.34375 1.21875-.8125 1.73438m0 0"/><path id="k" d="m.29688-2.96875.17187.34375h3.95313v1.5c0 .46875-.17188.54688-.5.57813l-.9375.09374V0h4.03125v-.45312l-.67188-.07813c-.3125-.04687-.42187-.125-.42187-.59375v-1.5h1.5v-.76562h-1.5v-6.45313h-1.25C3.25-7.73437 1.64063-5.25.29688-2.96875m1.1875-.42187c.82812-1.53125 1.85937-3.1875 2.9375-4.92188v4.92188Zm0 0"/><path id="l" d="M.57813-2.71875c0 1.67188 1.125 2.89063 3.40625 2.89063S7.375-1.04687 7.375-2.71875c0-1.45312-.89062-2.3125-1.9375-2.57812.875-.23438 1.59375-1 1.59375-2.17188 0-1.64062-1.26562-2.54687-3.04687-2.54687-1.79688 0-3.07813.92187-3.07813 2.54687 0 1.17188.76563 1.9375 1.625 2.17188C1.5-5.03125.57813-4.17187.57813-2.71875m1.6875.04688c0-1.3125.60937-2.28125 1.71875-2.28125 1.10937 0 1.70312.96875 1.70312 2.28125S5.14063-.375 3.98438-.375s-1.71875-.98437-1.71875-2.29687m.26562-4.84375c0-1.125.51563-1.95313 1.45313-1.95313s1.4375.82813 1.4375 1.95313c0 1.01562-.45313 1.98437-1.4375 1.98437-.96875 0-1.45313-.96875-1.45313-1.98437m0 0"/><path id="o" d="M.3125 0h4.17188l.09375-.45312L3.75-.51562c-.25-.01563-.35937-.15626-.35937-.39063 0-.09375.01562-.23437.04687-.375l1.73438-7.625c.10937-.46875.23437-.73437.625-.76562l.76562-.0625.10938-.45313H2.5l-.125.45313.85938.0625c.25.01562.35937.15625.35937.39062 0 .09375-.01562.23438-.04687.375l-1.75 7.625c-.10938.48438-.25.71875-.625.75l-.76563.07813Zm0 0"/><path id="p" d="M1.59375 0h4.9375v-.45312L5.35938-.5625C5.03125-.59375 4.875-.70312 4.875-1.25v-8.6875l-.09375-.07812-3.17187.53125v.39062l1.28125.17188c.28125.04687.375.15625.375.60937V-1.25c0 .54688-.14063.65625-.48438.6875l-1.1875.10938Zm0 0"/><path id="q" d="M.42188-.17187.59375 0h6.23438l.53125-2.09375-.4375-.07812c-.34375.78125-.60938.89062-1.20313.89062H1.95313c.23437-.70312 1.03125-1.70312 2.45312-2.65625 1.48438-1 2.54688-1.6875 2.54688-3.29687 0-2.0625-1.39063-2.78125-3.01563-2.78125-2.01562 0-3.15625 1.15625-3.15625 2.04687 0 .54688.60938.79688.92188.79688.28124 0 .42187-.15625.48437-.4375.23438-1.04688.79688-1.85938 1.65625-1.85938 1.03125 0 1.35938.89063 1.35938 1.96875 0 1.42188-.64063 2.35938-2.01563 3.54688C1.29688-2.32812.64063-1.26562.42188-.17187m0 0"/><path id="r" d="M.07813 0h4.5625c3.42187 0 4.375-1.5625 4.375-3.01562 0-1.54688-1.15625-2.25-2.23438-2.4375l.01563-.03125C8.75-5.70312 9.59375-6.79687 9.59375-7.95312c0-1.21875-.71875-2.23438-3.51562-2.23438H2.25l-.10937.45313L3-9.65625c.25.01563.35938.125.35938.35938 0 .09375-.03125.23437-.0625.39062l-1.71875 7.625c-.10938.5-.25.70313-.625.75l-.78125.07813Zm3.14062-1.15625c0-.10937.01563-.21875.04688-.34375l.82812-3.6875h.57813c1.40625 0 2.53125.46875 2.53125 2.01563 0 1.34375-.78125 2.60937-2.6875 2.60937-1.03125 0-1.29688-.21875-1.29688-.59375M4.20313-5.75l.76562-3.375c.10938-.4375.17188-.51562 1.07813-.51562 1.15625 0 1.85937.5625 1.85937 1.60937 0 1.48438-1.20312 2.28125-2.82812 2.28125Zm0 0"/><path id="s" d="M.625-1.5625c0 .625.95313 1.73438 3.04688 1.73438 2.5 0 3.5625-1.48438 3.5625-3.34375 0-1.875-1.125-3.125-3.09375-3.125-.85938 0-1.73438.375-2.23438.79687l.3125-2.59375c.0625-.40625.125-.46875.45313-.46875h3.71875l.42187-1.14062-.09375-.14063H1.60938l-.125.14063-.29688 4.90625.42188.25c.59375-.70313 1.1875-1.03125 1.96875-1.03125C4.53125-5.57812 5.5-4.875 5.5-3c0 1.51563-.5625 2.625-1.75 2.625-.9375 0-1.45312-.67187-1.78125-1.625-.09375-.25-.25-.40625-.5-.40625-.34375 0-.84375.3125-.84375.84375m0 0"/><path id="t" d="M.65625-3.95312C.65625-1.5 2.09375.21875 5.04688.21875c2.60937 0 3.89062-1.3125 4.70312-2.78125.78125-1.45312.92188-2.92187.92188-3.54687 0-3.01563-1.82813-4.3125-4.28125-4.3125-3.92188 0-5.73438 3.5625-5.73438 6.46875M2.4375-3.25c0-2.54687 1.26563-6.60937 4.04688-6.60937 1.54687 0 2.42187.95312 2.42187 2.84375 0 .96875-.125 2.28125-.71875 3.78125C7.5625-1.65625 6.59375-.34375 4.875-.34375c-1.5 0-2.4375-.98437-2.4375-2.90625m0 0"/><path id="u" d="m.59375-7.65625.4375.03125.14063-.3125c.1875-.39062.375-.625 1.03125-.625h3.95312c-.14062.51563-.45312 1.46875-1.64062 3.09375C3.26563-3.75 2.42188-2.125 2.42188-.51562c0 .57812.42187.6875.92187.6875.4375 0 .79688-.09375.79688-.65625.01562-2.15625.375-3.57813 1.09375-4.76563C6.28125-7 7.01563-7.95312 7.45313-9.6875l-.14063-.15625H1.09375Zm0 0"/><path id="m" d="M.71875-3.54687c0 2.46875 1.20313 3.71875 3.42188 3.71875 1.03125 0 2.42187-.53125 2.82812-2.10938l-.4375-.20312C6.07813-1.10937 5.5-.59375 4.42188-.59375c-1.75 0-2.17188-1.82812-2.17188-3.21875C2.25-6 3.125-6.875 4.14063-6.875c.67187 0 1.09375.48438 1.39062 1.28125.09375.23438.1875.375.46875.375.29688 0 .85938-.1875.85938-.75 0-.67187-.96875-1.42187-2.5625-1.42187C1.60938-7.39062.71875-5.5.71875-3.54687m0 0"/><path id="n" d="M.46875 0H4.0625v-.42187C3.01563-.5 2.96875-.53125 2.96875-1.28125v-3.45312c0-.375 0-.57813.10938-.78125C3.35938-6.10937 4-6.59375 4.8125-6.59375c1.26563 0 1.42188.92188 1.42188 1.82813v3.48437c0 .75-.04688.78125-1.10938.85938V0h3.59375v-.42187C7.65625-.5 7.60938-.53125 7.60938-1.28125v-3.45312c0-.375.01562-.5625.10937-.79688.23438-.59375.85938-1.0625 1.6875-1.0625.92188 0 1.48438.51563 1.48438 1.82813v3.48437c0 .75-.04688.78125-1.10938.85938V0h3.60938v-.42187c-1.0625-.07813-1.125-.10938-1.125-.85938v-3.76562c0-1.48438-.79688-2.34375-2.1875-2.34375-1.20313 0-2.0625.79687-2.59375 1.125-.35938-.6875-.92188-1.125-1.95313-1.125-1.125 0-2.04687.75-2.5625 1.125l-.14062-1.125-2.28125.375v.35937l.54687.07813c.375.0625.48438.125.48438.65625v4.64062c0 .75-.04688.78125-1.10938.85938Zm0 0"/></defs><path fill="none" stroke="#000" stroke-miterlimit="10" stroke-width=".39785" d="M37.80078 135.08203h63.67968l14.64453-75.1367Zm0 0"/><use xlink:href="#a" x="14.34094" y="157.87133"/><use xlink:href="#b" x="109.37803" y="157.53587"/><use xlink:href="#c" x="124.02131" y="82.40654"/><path fill="none" stroke="#000" stroke-miterlimit="10" stroke-width=".39785" d="M121.97265 29.89845h25.46874"/><use xlink:href="#d" x="99.62183" y="22.00636"/><use xlink:href="#e" x="155.3346" y="22.00636"/><path fill="none" stroke="#000" stroke-miterlimit="10" stroke-width=".39785" d="m116.11718 59.95313 5.84765-30.04296m-5.84765 30.04296 31.3125-30.04296"/><use xlink:href="#f" x="7.50201" y="216.84732"/><use xlink:href="#g" x="17.15214" y="216.84732"/><use xlink:href="#h" x="30.98504" y="216.84732"/><use xlink:href="#i" x="44.62994" y="216.84732"/><use xlink:href="#j" x="52.5725" y="216.84732"/><use xlink:href="#k" x="58.33751" y="216.84732"/><use xlink:href="#l" x="66.28006" y="216.84732"/><use xlink:href="#m" x="77.52786" y="216.84732"/><use xlink:href="#n" x="84.82812" y="216.84732"/><use xlink:href="#f" x="7.50201" y="243.70257"/><use xlink:href="#o" x="17.15214" y="243.70257"/><use xlink:href="#h" x="27.85188" y="243.70257"/><use xlink:href="#p" x="41.49678" y="243.70257"/><use xlink:href="#j" x="49.43934" y="243.70257"/><use xlink:href="#q" x="55.20435" y="243.70257"/><use xlink:href="#m" x="66.45329" y="243.70257"/><use xlink:href="#n" x="73.75355" y="243.70257"/><use xlink:href="#f" x="7.50201" y="270.56008"/><use xlink:href="#r" x="17.15214" y="270.56008"/><use xlink:href="#h" x="30.76572" y="270.56008"/><use xlink:href="#i" x="44.41062" y="270.56008"/><use xlink:href="#j" x="52.35318" y="270.56008"/><use xlink:href="#l" x="58.11819" y="270.56008"/><use xlink:href="#s" x="66.06074" y="270.56008"/><use xlink:href="#m" x="77.30996" y="270.56008"/><use xlink:href="#n" x="84.61022" y="270.56008"/><use xlink:href="#f" x="7.50201" y="297.41534"/><use xlink:href="#t" x="17.15214" y="297.41534"/><use xlink:href="#h" x="31.83099" y="297.41534"/><use xlink:href="#p" x="45.47589" y="297.41534"/><use xlink:href="#j" x="53.41845" y="297.41534"/><use xlink:href="#u" x="59.18346" y="297.41534"/><use xlink:href="#m" x="70.4316" y="297.41534"/><use xlink:href="#n" x="77.73186" y="297.41534"/></svg>