<svg xmlns="http://www.w3.org/2000/svg" xmlns:xlink="http://www.w3.org/1999/xlink" width="151.504pt" height="91.423pt" viewBox="0 0 151.504 91.423"><defs><path id="a" d="M-1 1.10938v.3125c.125 0 .26563.01562.39063.01562.5625 0 1.375-.14062 1.875-.46875C1.82813.5625 2.25-.10937 2.53125-1.3125l1.42188-6.09375c.09375-.375.1875-.53125.5-.5625l.67187-.04687.09375-.35938H1.875l-.07812.35938.71875.04687c.21875.01563.3125.10938.3125.32813 0 .0625-.01563.14062-.03125.23437L1.46875-1.73437C1.20313-.60937.875.15624.5.5c-.40625.375-.90625.54688-1.5.60938m0 0"/><path id="b" d="M0 0h3.3125l.07813-.34375-.71875-.0625c-.21875 0-.29688-.125-.29688-.3125 0-.07812 0-.1875.03125-.28125l.76563-3.35937h.01562c.5625 1.125 1.15625 2.34375 1.89063 3.34375C5.65625-.23437 6.1875.03124 7.10938.04688l.59375.01562.09375-.35937C7.09375-.35937 6.8125-.6875 6.375-1.21875c-.8125-1.01562-1.64062-2.48437-2.14062-3.5625 1.09375-.90625 2.09375-1.75 3.20312-2.51562.70313-.5.98438-.65625 1.96875-.71875l.04688-.35938H6.4375l-.04687.35938.45312.03125c.14063.01562.17188.0625.17188.14062 0 .0625-.0625.15625-.17188.26563L3.25-4.5h-.04687l.64062-2.85937c.09375-.375.21875-.57813.51563-.60938l.67187-.04687.07813-.35938h-3.3125l-.07813.35938.71875.04687c.20313.01563.29688.14063.29688.32813q0 .11718-.04688.28125L1.23438-1c-.09376.375-.20313.54688-.5.57813L.0625-.34375Zm0 0"/><path id="c" d="M.25 0h6.20313l.60937-2.125h-.35937C6.09375-.625 5.53125-.42187 4.17188-.42187c-1.23438 0-1.5-.125-1.5-.5 0-.14063.03125-.3125.07812-.5625l1.35938-5.875c.09375-.40625.20312-.57813.51562-.60938l.71875-.04687.09375-.35938h-3.375l-.09375.35938.71875.04687c.20313.01563.29688.10938.29688.32813 0 .0625-.01563.15625-.03125.28125L1.5-1c-.10937.42188-.21875.54688-.51562.57813l-.65625.07812Zm0 0"/><path id="d" d="M.1875-.65625c0 .23438.35938.73438 1.32813.73438C2.4375.07813 3-.35937 3-1.14062c0-.82813-.73437-1.03125-1.01562-1.0625v-.03125c.32812-.0625.84375-.29688.84375-.875 0-.75-.625-1-1.25-1-.76563 0-1.25.40625-1.25.75 0 .21875.25.32812.375.32812.10937 0 .15624-.04687.1875-.15625.14062-.4375.34375-.6875.65625-.6875.42187 0 .51562.4375.51562.73438 0 .29687-.07812.8125-.5625.8125-.26562 0-.45312-.0625-.54687-.0625-.10938 0-.14063.0625-.14063.20312 0 .10938.03125.20313.14063.20313.09374 0 .28124-.07813.54687-.07813.42188 0 .71875.32813.71875.95313 0 .67187-.29687.9375-.6875.9375-.34375 0-.57812-.25-.71875-.6875q-.07031-.1875-.23437-.1875c-.15626 0-.39063.14062-.39063.39062m0 0"/><path id="g" d="M.65625 0h2.0625v-.20312L2.25-.23438c-.125-.01562-.20312-.0625-.20312-.28124v-3.5625l-.03125-.03125-1.34375.21875v.17187l.48437.0625c.125.03125.17188.07813.17188.26563v2.875c0 .21874-.0625.26562-.20313.28124l-.46875.03126Zm0 0"/><path id="h" d="m.3125.76563.15625.125c.29688-.28126.8125-.71875.8125-1.20313 0-.3125-.17187-.57812-.46875-.57812-.23437 0-.35937.1875-.35937.34375 0 .21874.17187.32812.17187.57812C.625.29688.5.54688.3125.76563m0 0"/><path id="i" d="m.125-1.21875.09375.15625H1.8125v.60938c0 .17187-.0625.20312-.1875.21875l-.39062.03124V0H2.9375v-.20312l-.28125-.01563C2.53125-.25 2.5-.28125 2.5-.45312v-.60938h.60938v-.34375H2.5v-2.64062h-.57812C1.3125-3.15625.67188-2.15625.125-1.21875m.53125-.1875C.98438-2.01562 1.39063-2.6875 1.8125-3.375v1.96875Zm0 0"/><path id="e" d="M.29688-1.45312c0 1.01562.5 1.53125 1.40625 1.53125.42187 0 1-.21875 1.15625-.875L2.6875-.875c-.1875.42188-.42187.625-.875.625-.71875 0-.89062-.75-.89062-1.3125 0-.90625.35937-1.26562.78125-1.26562.26562 0 .45312.20312.5625.53125.04687.09375.07812.15625.20312.15625s.34375-.07813.34375-.3125c0-.28125-.39062-.57813-1.04687-.57813-1.10938 0-1.46875.76563-1.46875 1.57813m0 0"/><path id="f" d="M.1875 0h1.48438v-.17187c-.4375-.03126-.45313-.04688-.45313-.35938V-1.9375c0-.15625 0-.25.04688-.32812.10937-.25.375-.4375.70312-.4375.53125 0 .59375.375.59375.75v1.42187c0 .3125-.01562.32813-.45312.35938V0h1.46875v-.17187C3.14063-.20313 3.125-.21875 3.125-.53125V-1.9375c0-.15625.01563-.23437.04688-.32812.09375-.25.34375-.4375.6875-.4375.39062 0 .60937.20312.60937.75v1.42187c0 .3125-.01562.32813-.45312.35938V0H5.5v-.17187c-.4375-.03126-.45312-.04688-.45312-.35938v-1.54687c0-.60938-.32813-.95313-.90625-.95313-.5 0-.84375.32813-1.0625.45313-.15625-.28125-.375-.45313-.8125-.45313-.45313 0-.84375.29688-1.04688.45313l-.0625-.45313-.9375.14063v.15625l.23438.03125c.15625.03125.20312.04687.20312.26562v1.90625c0 .3125-.03125.32813-.46875.35938Zm0 0"/></defs><path fill="none" stroke="red" stroke-miterlimit="10" stroke-width=".396" d="m102.70703 69.92188 3.66016-6.34375 6.34375 3.66015"/><path fill="none" stroke="#000" stroke-miterlimit="10" stroke-width=".396" d="m13.89065 18.64455 95.16013 54.93748L134.6875 29.1758Zm0 0"/><use xlink:href="#a" x="4.51858" y="12.65513"/><use xlink:href="#b" x="113.59615" y="86.49609"/><use xlink:href="#c" x="139.23434" y="24.62955"/><use xlink:href="#d" x="43.67346" y="54.77231"/><use xlink:href="#e" x="48.34478" y="54.77231"/><use xlink:href="#f" x="51.34353" y="54.77231"/><use xlink:href="#g" x="126.41525" y="52.99155"/><use xlink:href="#h" x="129.72932" y="52.99155"/><use xlink:href="#i" x="132.12962" y="52.99155"/><use xlink:href="#e" x="136.8017" y="52.99155"/><use xlink:href="#f" x="139.80045" y="52.99155"/></svg>