<svg xmlns="http://www.w3.org/2000/svg" xmlns:xlink="http://www.w3.org/1999/xlink" width="98.236pt" height="170.847pt" viewBox="0 0 98.236 170.847"><defs><path id="a" d="M.375-3.14062c0 1.92187 1.09375 3.3125 3.40625 3.3125 2.04688 0 3.04688-1.04688 3.70313-2.20313.625-1.125.73437-2.3125.73437-2.78125 0-2.375-1.45312-3.40625-3.35937-3.40625-1.85938 0-3 1.03125-3.6875 2.14063C.53125-5 .375-3.90625.375-3.14062m1.21875.46875c0-.96875.1875-2.0625.71875-3.1875.53125-1.09375 1.35938-1.95313 2.59375-1.95313C6.1875-7.8125 7-7.0625 7-5.40625 7-4.75 6.9375-3.79687 6.45313-2.5625c-.48438 1.25-1.28125 2.32813-2.78125 2.32813-1.26563 0-2.07813-.8125-2.07813-2.4375m0 0"/><path id="b" d="M.25 0h3.17188L3.5-.32812l-.6875-.0625c-.20312 0-.29687-.10938-.29687-.29688q0-.11718.04687-.28125l1.375-6.09375c.09375-.35937.20313-.5625.5-.59375l.64063-.04687.07812-.32813H1.98438l-.09376.32813.6875.04687c.20313.01563.29688.14063.29688.32813 0 .07812-.01562.15625-.04687.26562L1.4375-.96875c-.09375.375-.20312.53125-.48437.5625L.3125-.32812Zm0 0"/><path id="c" d="M.25 0h5.9375l.59375-2.04687H6.4375C5.84375-.60937 5.3125-.40625 4-.40625c-1.1875 0-1.4375-.10937-1.4375-.48437 0-.125.03125-.29688.07813-.53125L3.9375-7.0625c.10938-.39062.20313-.5625.5-.59375l.6875-.04687.09375-.32813H1.98438l-.09376.32813.6875.04687c.20313.01563.29688.10938.29688.3125 0 .07813-.01562.15625-.04687.28125L1.4375-.96875c-.10937.40625-.20312.53125-.48437.5625L.3125-.32812Zm0 0"/><path id="d" d="M-.21875 0h2.60938l.07812-.32812-.64062-.0625C1.6875-.40625 1.625-.48437 1.625-.59375c0-.0625.01563-.14062.0625-.23437.375-.73438.75-1.5 1.1875-2.28125h2.59375l.29688 2.40625s-.0625.28124-.3125.3125l-.625.0625L4.76563 0H7.625l.07813-.32812L7.25-.375c-.35937-.03125-.40625-.1875-.46875-.67187L5.9375-8.03125h-.82812L3.15625-4.60937c-.59375 1.03125-1.5625 2.76562-2 3.45312-.35937.60938-.5625.73438-.92187.76563l-.375.0625Zm3.32813-3.54687L5-6.95312l.40625 3.40625Zm0 0"/><path id="e" d="M0 0h3.51563c2.8125 0 3.375-1.45312 3.375-2.40625 0-1.23437-.89063-1.76562-1.75-1.92187l.01562-.01563c1.54688-.1875 2.20313-1.0625 2.20313-1.95312 0-.9375-.5625-1.73438-2.70313-1.73438h-2.9375l-.07812.32813.6875.0625c.20312.01562.29687.09375.29687.28125 0 .07812-.03125.17187-.04687.29687l-1.375 6.09375C1.10937-.57812 1-.4375.71875-.40625L.0625-.32812Zm2.32813-.89062c0-.07813 0-.17188.03125-.26563L3.03125-4.125h.45313c1.15625 0 2.15625.32813 2.15625 1.65625 0 1.03125-.625 2.0625-2.1875 2.0625-.90625 0-1.125-.1875-1.125-.48437m.78125-3.64063.60937-2.70312c.09375-.34375.15625-.40625.92188-.40625.98437 0 1.53125.5 1.53125 1.3125 0 1.21875-1.01563 1.79687-2.29688 1.79687Zm0 0"/><path id="f" d="M.17188 0H4.375l.42188-1.48437h-.26563C4.1875-.64062 3.79688-.3125 2.85938-.3125c-.76563 0-.96875-.0625-.96875-.32812 0-.0625.03124-.17188.0625-.3125l.90625-3.96875c.0625-.26563.125-.40625.34375-.42188l.45312-.03125.0625-.25H1.39063l-.07813.25.46875.03125c.14063.01563.20313.07813.20313.21875 0 .04688-.01563.125-.03126.20313L1-.70312C.92188-.42188.85938-.3125.65625-.29687L.21875-.25Zm0 0"/><path id="g" d="M-.15625 0h1.85938L1.75-.25l-.45312-.04687c-.10938 0-.15626-.0625-.15626-.14063 0-.14062.84376-1.67187.84376-1.6875h1.78125l.1875 1.60938s-.04688.20312-.21875.21874L3.3125-.25 3.25 0h2.10938l.0625-.25-.3125-.03125c-.25-.01562-.28125-.1875-.32813-.5L4.21875-5.625h-.67187l-1.375 2.42188C1.73438-2.4375 1.0625-1.23437.76563-.78125c-.23438.39063-.375.46875-.625.5l-.25.03125Zm2.32813-2.45312 1.28125-2.34375.26562 2.34375Zm0 0"/><path id="h" d="M.6875-1.10937h4.48438v-.54688H.6875Zm0-1.8125h4.48438v-.54688H.6875Zm0 0"/><path id="i" d="M.32813-2.71875c0 1.59375.48437 2.8125 1.875 2.8125 1.375 0 1.85937-1.21875 1.85937-2.8125s-.48437-2.8125-1.85937-2.8125c-1.39063 0-1.875 1.21875-1.875 2.8125m.9375 0c0-1.23437.1875-2.51562.9375-2.51562.73437 0 .9375 1.28125.9375 2.51562S2.9375-.20312 2.20313-.20312c-.75 0-.9375-1.28125-.9375-2.51563m0 0"/><path id="j" d="m.42188 1.01563.17187.15624C1 .79688 1.65625.21876 1.65625-.42186c0-.42188-.23437-.75-.59375-.75-.29687 0-.45312.21874-.45312.42187 0 .29688.25.45313.25.79688s-.1875.6875-.4375.96875m0 0"/><path id="k" d="m.17188-1.64062.09375.1875H2.4375V-.625c0 .26563-.09375.3125-.26562.32813L1.64063-.25V0H3.875v-.25L3.5-.29687c-.17187-.01563-.23437-.0625-.23437-.32813v-.82812h.84375V-1.875h-.84375v-3.5625h-.6875C1.79688-4.28125.90625-2.90625.17188-1.64062M.82813-1.875c.45312-.84375 1.01562-1.76562 1.60937-2.71875V-1.875Zm0 0"/><path id="l" d="M.3125-1.5c0 .92188.625 1.59375 1.89063 1.59375 1.26562 0 1.875-.67187 1.875-1.59375 0-.79687-.5-1.28125-1.07813-1.42187.48438-.14063.89063-.5625.89063-1.20313 0-.90625-.70313-1.40625-1.6875-1.40625C1.21875-5.53125.5-5.01562.5-4.125c0 .64063.42188 1.0625.90625 1.20313C.82813-2.78125.3125-2.29687.3125-1.5m.9375.03125c0-.73437.32813-1.26562.95313-1.26562.60937 0 .9375.53125.9375 1.26562 0 .71875-.29688 1.26563-.9375 1.26563C1.5625-.20312 1.25-.75 1.25-1.46875m.15625-2.6875c0-.60937.26563-1.07812.79688-1.07812.51562 0 .79687.46875.79687 1.07812 0 .5625-.25 1.09375-.79687 1.09375-.54688 0-.79688-.53125-.79688-1.09375m0 0"/><path id="o" d="M.17188 0h2.29687l.0625-.25-.46875-.03125C1.9375-.29687 1.875-.375 1.875-.5c0-.04687 0-.125.01563-.20312l.96875-4.21875c.0625-.25.125-.40625.34375-.42188L3.625-5.375l.0625-.25H1.39063l-.07813.25.46875.03125c.14063.01563.20313.09375.20313.21875 0 .04688-.01563.125-.03126.20313L1-.70312C.9375-.4375.85938-.3125.65625-.29687L.21875-.25Zm0 0"/><path id="p" d="M.89063 0h2.71875v-.25l-.65625-.0625c-.17188-.01562-.26563-.07812-.26563-.375v-4.79687l-.04687-.04688-1.75.29688v.21875l.70312.09375c.15625.01562.20313.07812.20313.32812V-.6875c0 .29688-.07813.35938-.26563.375L.89063-.25Zm0 0"/><path id="q" d="M.23438-.09375.32813 0h3.45312l.28125-1.15625-.23437-.04687c-.1875.4375-.34375.5-.67188.5H1.07813c.14062-.39063.5625-.9375 1.35937-1.46875C3.25-2.73437 3.84375-3.10937 3.84375-4c0-1.14062-.76562-1.53125-1.67187-1.53125-1.10938 0-1.73438.64063-1.73438 1.14063 0 .28125.32813.42187.5.42187.15625 0 .23438-.07812.28125-.23437.125-.57813.42188-1.03125.90625-1.03125.5625 0 .75.5.75 1.09375 0 .78125-.35937 1.29687-1.125 1.95312C.71875-1.29687.35938-.70312.23438-.09375m0 0"/><path id="r" d="M.04688 0H2.5625c1.89063 0 2.42188-.85937 2.42188-1.65625 0-.85937-.64063-1.25-1.23438-1.35937v-.01563c1.07813-.125 1.54688-.71875 1.54688-1.35937 0-.67188-.39063-1.23438-1.9375-1.23438H1.25l-.0625.25.46875.04688c.14063 0 .20313.0625.20313.1875 0 .0625-.03126.14062-.04688.21875L.875-.70312C.8125-.4375.73438-.3125.53125-.29687L.09375-.25Zm1.73437-.64062c0-.0625 0-.125.01563-.1875l.46875-2.03125h.3125c.78125 0 1.40625.25 1.40625 1.10937 0 .73438-.4375 1.4375-1.48438 1.4375-.57812 0-.71875-.125-.71875-.32812m.53125-2.53125L2.75-5.03125c.04688-.25.09375-.29687.59375-.29687.64063 0 1.01563.3125 1.01563.89062 0 .8125-.65625 1.26563-1.5625 1.26563Zm0 0"/><path id="s" d="M.34375-.85937c0 .34375.53125.95312 1.6875.95312C3.40625.09375 4-.73437 4-1.75c0-1.03125-.625-1.73437-1.71875-1.73437-.46875 0-.95312.21875-1.21875.45312l.17188-1.4375c.03124-.21875.0625-.25.23437-.25h2.0625l.23438-.64062-.04688-.07813H.89063l-.0625.07813-.17188 2.70312.23438.14063c.32812-.39063.65625-.5625 1.07812-.5625.53125 0 1.0625.39062 1.0625 1.42187 0 .82813-.29687 1.45313-.96875 1.45313-.51562 0-.79687-.375-.96875-.90625C1.03125-1.25.95313-1.32813.8125-1.32813c-.1875 0-.46875.17188-.46875.46876m0 0"/><path id="t" d="M.35938-2.1875c0 1.35938.79687 2.3125 2.42187 2.3125 1.45313 0 2.15625-.73437 2.60938-1.54687.42187-.79688.5-1.60938.5-1.95313 0-1.65625-1.01563-2.375-2.35938-2.375C1.375-5.75.35938-3.79687.35938-2.1875m.98437.39063c0-1.40625.70313-3.64063 2.23438-3.64063.85937 0 1.34375.51563 1.34375 1.5625 0 .53125-.07813 1.26563-.40625 2.09375C4.1875-.92187 3.64063-.1875 2.6875-.1875c-.82812 0-1.34375-.54687-1.34375-1.60937m0 0"/><path id="u" d="m.32813-4.23437.25.01562.07812-.15625c.09375-.21875.20313-.34375.5625-.34375h2.1875c-.07812.28125-.25.79688-.90625 1.70313-.70312.95312-1.15625 1.84375-1.15625 2.73437 0 .3125.21875.375.5.375.25 0 .4375-.04687.4375-.35937.01563-1.1875.21875-1.96875.60938-2.64063.57812-.96875.98437-1.48437 1.23437-2.4375l-.07812-.09375H.60938Zm0 0"/><path id="m" d="M.39063-1.95312c0 1.35937.67187 2.04687 1.89062 2.04687.57813 0 1.34375-.29687 1.57813-1.17187l-.25-.10938c-.25.57813-.57813.85938-1.17188.85938-.96875 0-1.1875-1.01563-1.1875-1.78125 0-1.20313.46875-1.6875 1.03125-1.6875.375 0 .60938.26562.78125.70312.04688.14063.09375.21875.25.21875.17188 0 .48438-.10937.48438-.42187 0-.375-.54688-.78125-1.42188-.78125-1.48437 0-1.98437 1.04687-1.98437 2.125m0 0"/><path id="n" d="M.26563 0h1.96875v-.23437c-.57813-.04688-.59375-.0625-.59375-.46875v-1.90625c0-.21875 0-.32813.0625-.4375.15624-.32813.5-.59375.95312-.59375.70313 0 .78125.5.78125 1.01562v1.92188c0 .40625-.01562.42187-.60937.46875V0H4.8125v-.23437c-.57812-.04688-.60937-.0625-.60937-.46875v-1.90625c0-.21875.01562-.3125.0625-.45313.125-.32812.46875-.57812.92187-.57812.51563 0 .82813.28125.82813 1.01562v1.92188c0 .40625-.03125.42187-.60938.46875V0h1.98438v-.23437c-.57813-.04688-.60938-.0625-.60938-.46875v-2.07813c0-.82812-.4375-1.29687-1.21875-1.29687-.65625 0-1.14062.4375-1.42187.60937-.20313-.375-.51563-.60937-1.07813-.60937-.625 0-1.14062.40625-1.42187.60937l-.07813-.60937L.29688-3.875v.20313l.3125.03125c.20312.04687.26562.07812.26562.375v2.5625c0 .40625-.03125.42187-.60937.46875Zm0 0"/></defs><path fill="none" stroke="#000" stroke-miterlimit="10" stroke-width=".39542" d="M20.84766 75.1836h35.16016l8.08594-41.4883Zm0 0"/><use xlink:href="#a" x="7.8946" y="87.76628"/><use xlink:href="#b" x="60.37446" y="87.58072"/><use xlink:href="#c" x="68.46057" y="46.09239"/><path fill="none" stroke="#000" stroke-miterlimit="10" stroke-width=".39542" d="M67.33204 17.09765h14.0625"/><use xlink:href="#d" x="54.99331" y="12.73382"/><use xlink:href="#e" x="85.75904" y="12.73382"/><path fill="none" stroke="#000" stroke-miterlimit="10" stroke-width=".39542" d="m64.09766 33.6953 3.23438-16.59765M64.09766 33.6953l17.29688-16.59765"/><use xlink:href="#f" x="4.11897" y="120.33052"/><use xlink:href="#g" x="9.43874" y="120.33052"/><use xlink:href="#h" x="17.08537" y="120.33052"/><use xlink:href="#i" x="24.61956" y="120.33052"/><use xlink:href="#j" x="29.00513" y="120.33052"/><use xlink:href="#k" x="32.17969" y="120.33052"/><use xlink:href="#l" x="36.56526" y="120.33052"/><use xlink:href="#m" x="42.78451" y="120.33052"/><use xlink:href="#n" x="46.81542" y="120.33052"/><use xlink:href="#f" x="4.11897" y="135.15895"/><use xlink:href="#o" x="9.43874" y="135.15895"/><use xlink:href="#h" x="15.35537" y="135.15895"/><use xlink:href="#p" x="22.88955" y="135.15895"/><use xlink:href="#j" x="27.27512" y="135.15895"/><use xlink:href="#q" x="30.44969" y="135.15895"/><use xlink:href="#m" x="36.66832" y="135.15895"/><use xlink:href="#n" x="40.69924" y="135.15895"/><use xlink:href="#f" x="4.11897" y="149.98862"/><use xlink:href="#r" x="9.43874" y="149.98862"/><use xlink:href="#h" x="16.96428" y="149.98862"/><use xlink:href="#i" x="24.49846" y="149.98862"/><use xlink:href="#j" x="28.88403" y="149.98862"/><use xlink:href="#l" x="32.05859" y="149.98862"/><use xlink:href="#s" x="36.44416" y="149.98862"/><use xlink:href="#m" x="42.66295" y="149.98862"/><use xlink:href="#n" x="46.69387" y="149.98862"/><use xlink:href="#f" x="4.11897" y="164.81704"/><use xlink:href="#t" x="9.43874" y="164.81704"/><use xlink:href="#h" x="17.55248" y="164.81704"/><use xlink:href="#p" x="25.08666" y="164.81704"/><use xlink:href="#j" x="29.47223" y="164.81704"/><use xlink:href="#u" x="32.6468" y="164.81704"/><use xlink:href="#m" x="38.86623" y="164.81704"/><use xlink:href="#n" x="42.89715" y="164.81704"/></svg>