<svg xmlns="http://www.w3.org/2000/svg" xmlns:xlink="http://www.w3.org/1999/xlink" width="193.997pt" height="199.812pt" viewBox="0 0 193.997 199.812"><defs><path id="a" d="M.67188-1.40625C1.5-.3125 3.51563.3125 5.0625.3125c4.07813-.04687 5.32813-2.39062 5.32813-4.65625 0-1.90625-1.03125-3.09375-3.15625-4.1875C6-9.15625 4.51563-9.875 4.51563-11.46875c0-1.5 1.10937-2.6875 2.9375-2.6875 2.125 0 2.53125.98438 2.53125 3.29688h.625l.75-2.95313c-.90625-.71875-2.46875-1.07812-3.76563-1.07812-3.67187 0-4.84375 2.42187-4.84375 4.1875 0 1.96875 1.34375 3 3.04688 3.82812 1.6875.85938 2.71875 1.71875 2.71875 3.40625 0 1.75-1.42188 3.04688-3.1875 3.04688-2.82813 0-3.35938-2.17188-3.48438-4.21875h-.64062Zm0 0"/><path id="b" d="M0 0h5.75l.14063-.60937-1.25-.07813C4.28125-.71875 4.125-.92187 4.125-1.25c0-.14062.01563-.3125.0625-.5l1.32813-5.84375h.03125c.96875 1.96875 2 4.07813 3.28125 5.82813 1 1.35937 1.92187 1.8125 3.53125 1.85937l1.03125.01563.15625-.625C12.34375-.625 11.84375-1.1875 11.07813-2.125 9.67188-3.89062 8.23438-6.45312 7.35938-8.3125c1.90625-1.57812 3.65625-3.04687 5.57812-4.39062 1.21875-.84375 1.70313-1.14063 3.40625-1.25l.09375-.59375h-5.25l-.07812.59375.79687.07812c.23438.01563.29688.10938.29688.23438 0 .10937-.10938.26562-.3125.45312L5.67188-7.84375h-.09375L6.6875-12.8125c.15625-.64062.35938-1 .90625-1.04687L8.75-13.95312l.14063-.59375h-5.75l-.15625.59375 1.25.09375c.35937.01562.51562.25.51562.57812 0 .14063-.03125.29688-.07812.46875L2.15625-1.75c-.15625.67188-.35937.96875-.875 1.01563l-1.17187.125Zm0 0"/><path id="c" d="M.45313 0h5.75l.14062-.60937L5.07813-.6875C4.71875-.71875 4.5625-.92187 4.5625-1.25c0-.14062.03125-.3125.07813-.5l2.5-11.0625c.15625-.64062.35937-1 .89062-1.04687l1.17188-.09375.14062-.59375H3.57813l-.15625.59375 1.25.09375c.35937.01562.51562.25.51562.57812 0 .14063-.01562.29688-.0625.46875L2.59375-1.75c-.15625.67188-.35937.96875-.875 1.01563l-1.15625.125Zm0 0"/><path id="d" d="M.39063-1.95312c0 1.29687.9375 2.07812 2.5 2.07812S5.375-.65625 5.375-1.95312c0-1.01563-.60937-1.625-1.39062-1.84375C4.60938-3.96875 5.125-4.5 5.125-5.32812c0-1.1875-.90625-1.82813-2.23437-1.82813s-2.25.67188-2.25 1.82813c0 .82812.53125 1.35937 1.15625 1.53125-.76563.21875-1.40625.82812-1.40625 1.84375m1.32812.03124c0-.90624.40625-1.60937 1.17188-1.60937.76562 0 1.15625.70313 1.15625 1.60938 0 .9375-.375 1.625-1.15625 1.625s-1.17188-.6875-1.17188-1.625m.1875-3.4375c0-.79687.35938-1.39062.98438-1.39062.65625 0 .98437.59375.98437 1.39063 0 .73437-.32812 1.39062-.98437 1.39062s-.98438-.65625-.98438-1.39062m0 0"/><path id="e" d="m.53125 1.32813.28125.21874c.51563-.5 1.42188-1.25 1.42188-2.07812 0-.5625-.3125-1.01562-.8125-1.01562-.42188 0-.625.3125-.625.57812 0 .39063.29687.59375.29687 1.03125S.875.95313.53125 1.32813m0 0"/><path id="f" d="M.46875-1.15625c0 .42188.625 1.28125 2.21875 1.28125 1.84375 0 2.57813-1.07812 2.57813-2.39062 0-1.23438-.71875-2.25-2.25-2.25-.64063 0-1.25.28125-1.60938.57812l.20313-1.73437c.04687-.3125.09374-.34375.34375-.34375h2.70312l.3125-.90625-.0625-.10938h-3.75l-.09375.09375-.21875 3.5.34375.21875c.42188-.5.84375-.73437 1.375-.73437.70313 0 1.34375.51562 1.34375 1.82812 0 1.07813-.35937 1.82813-1.15625 1.82813-.625 0-.96875-.4375-1.21875-1.1875-.07812-.20313-.20312-.3125-.40625-.3125-.28125 0-.65625.25-.65625.64062m0 0"/><path id="g" d="M.32813-.14062.45313 0H5l.40625-1.59375-.34375-.04687c-.25.54687-.45312.625-.875.625H1.51563c.17187-.46875.65625-1.14063 1.71875-1.8125 1.10937-.70313 1.85937-1.20313 1.85937-2.34375 0-1.46875-1.01562-1.98438-2.21875-1.98438-1.42187 0-2.3125.78125-2.3125 1.5 0 .40625.46875.59375.71875.59375.20313 0 .32813-.10937.375-.34375C1.82813-6.17187 2.20313-6.75 2.79688-6.75c.6875 0 .92187.60938.92187 1.35938 0 .9375-.375 1.65625-1.40625 2.51562C.9375-1.6875.45313-.90625.32813-.14062m0 0"/><path id="j" d="M1.14063 0h3.59375v-.34375l-.8125-.07812c-.23438-.01563-.34375-.09375-.34375-.46875v-6.20313L3.5-7.15625l-2.32812.375v.3125L2-6.35937c.23438.04687.3125.125.3125.46875v5c0 .375-.10937.45312-.35937.46875l-.8125.07812Zm0 0"/><path id="k" d="M.3125-1.15625C.3125-.73437.95313.125 2.625.125c1.60938 0 2.60938-.75 2.60938-2.09375 0-1.45312-1.28125-1.8125-1.78125-1.875v-.04687c.5625-.10938 1.46875-.5 1.46875-1.53125 0-1.29688-1.07813-1.73438-2.1875-1.73438-1.32813 0-2.17188.71875-2.17188 1.3125 0 .39063.45313.57813.65625.57813.1875 0 .28125-.09375.34375-.28125.23438-.75.57813-1.20313 1.125-1.20313.73438 0 .90625.76563.90625 1.29688 0 .51562-.14062 1.40625-.98437 1.40625-.45313 0-.78125-.125-.96875-.125-.17188 0-.23438.125-.23438.35937 0 .20313.0625.34375.23438.34375.1875 0 .5-.10937.96875-.10937.73437 0 1.25.54687 1.25 1.64062 0 1.17188-.51563 1.64063-1.20313 1.64063-.59375 0-1.01562-.4375-1.25-1.20313-.07812-.20312-.20312-.3125-.39062-.3125-.28126 0-.70313.23438-.70313.65625m0 0"/><path id="l" d="M.42188-3.32812C.42188-1.125 1.20313.125 2.95313.125c1.70312 0 2.51562-1.0625 2.51562-2.40625 0-1.45312-.92187-2.20312-2.04687-2.20312-.76563 0-1.34375.48437-1.6875.89062C1.75-5.25 2.15625-6.75 3.14063-6.75c.46875 0 .79687.42188.95312 1.0625.04688.15625.15625.28125.35938.28125.25 0 .67187-.1875.67187-.54687 0-.48438-.57812-1.20313-1.90625-1.20313-1.73437 0-2.79687 1.28125-2.79687 3.82813m1.3125.85937c0-.64062.42187-1.32812 1.21875-1.32812.625 0 1.1875.53125 1.1875 1.71875 0 1.04687-.32813 1.78125-1.15625 1.78125-.84375 0-1.25-.96875-1.25-2.17188m0 0"/><path id="y" d="M0-5.6875h.28125C.51563-6.59375 2.54688-7.375 4.32813-7.375h.85937v-.95312h-.85937C2.60938-8.32812 0-7.5625 0-6.01562Zm0 0"/><path id="z" d="M0-7.375h4.21875v-.95312H0Zm0 0"/><path id="A" d="M0-7.375c3.46875 0 4.6875-.875 5.04688-1.71875C5.51563-8.29687 6.5-7.375 10.09375-7.375v-.95312c-3.79687 0-4.60937-1-4.92187-1.6875h-.28125c-.28125.6875-1.125 1.6875-4.89063 1.6875Zm0 0"/><path id="B" d="M0-7.375h.85938c1.78125 0 3.8125.78125 4.04687 1.6875h.26563v-.32812c0-1.54688-2.59375-2.3125-4.3125-2.3125H0Zm0 0"/><path id="C" d="m.21875-2.125.15625.26563h2.76563v1.0625c0 .29687-.10938.375-.3125.39062l-.6875.0625V0H5.125v-.34375l-.5-.04687C4.40625-.42187 4.34375-.5 4.34375-.79687v-1.0625h1.0625v-.59375h-1.0625v-4.57813h-1C2.28125-5.48437 1.17188-3.73437.21875-2.125m.92188-.32812c.57812-1.0625 1.26562-2.21875 2-3.42188v3.42188Zm0 0"/><path id="h" d="M.51563-2.53125C.51563-.76562 1.375.125 2.95313.125c.75 0 1.73437-.375 2.03125-1.51562l-.3125-.14063C4.34375-.79687 3.9375-.42187 3.15625-.42187c-1.25 0-1.54687-1.3125-1.54687-2.29688 0-1.57812.625-2.20312 1.34375-2.20312.48437 0 .78125.34375 1 .92187.0625.17188.14062.26563.34375.26563.20312 0 .60937-.125.60937-.53125 0-.48438-.6875-1.01563-1.84375-1.01563-1.90625 0-2.54687 1.34375-2.54687 2.75m0 0"/><path id="i" d="M.34375 0h2.5625v-.29687c-.75-.0625-.78125-.07813-.78125-.625v-2.46875c0-.26563 0-.40625.07813-.54688.1875-.4375.65625-.78125 1.23437-.78125.90625 0 1.01563.65625 1.01563 1.3125v2.48438c0 .54687-.03125.5625-.79688.625V0h2.57813v-.29687c-.75-.0625-.79688-.07813-.79688-.625v-2.46875c0-.26563.01563-.39063.07813-.5625.17187-.42188.60937-.76563 1.20312-.76563.65625 0 1.0625.375 1.0625 1.3125v2.48438c0 .54687-.03125.5625-.79687.625V0H9.5625v-.29687c-.75-.0625-.79687-.07813-.79687-.625v-2.6875c0-1.0625-.5625-1.67188-1.5625-1.67188-.85938 0-1.48438.5625-1.84375.79688-.26563-.48438-.67188-.79688-1.40625-.79688-.8125 0-1.46875.53125-1.82813.79688l-.10937-.79688-1.625.26563v.25l.39062.0625c.26563.04687.34375.09375.34375.46875v3.3125c0 .54687-.03125.5625-.78125.625Zm0 0"/><path id="m" d="M.5-3.57812c0 2.25 1.15625 3.73437 3.85938 3.73437.73437 0 1.82812-.125 2.46875-.5l.125-2.04687h-.40625C6.14063-1.25 5.6875-.32812 4.5-.32812c-1.875 0-2.125-2.21875-2.125-3.40625 0-.78125.14063-3.21875 2.04688-3.21875 1.34375 0 1.70312 1.09375 1.95312 1.85937h.40625v-1.89062c-.625-.375-1.73437-.46875-2.26562-.46875-1.48438 0-2.48438.42187-3.10938 1.10937C.76563-5.625.5-4.625.5-3.57812m0 0"/><path id="n" d="m1.17188-5.76562.26562.28125L2.75-6.46875c.15625-.09375.28125-.20312.39063-.20312s.25.10937.40625.20312l1.3125.98438.25-.28125-1.5-1.78125c-.15625-.17188-.32813-.3125-.46875-.3125-.15625 0-.3125.125-.46875.3125Zm-.75 3.1875C.42188-.89062 1.21875.125 3.14063.125 5.04688.125 5.875-.89062 5.875-2.57812c0-1.67188-.82812-2.70313-2.73437-2.70313C1.21875-5.28125.42188-4.25.42188-2.57812m1.65625 0c0-1.40625.3125-2.23438 1.0625-2.23438s1.04687.82813 1.04687 2.23438S3.89063-.35937 3.14063-.35937s-1.0625-.8125-1.0625-2.21875m0 0"/><path id="o" d="M.39063-4.64062h.625v3.40625C1.01563-.26562 1.71875.125 2.3125.125c.4375 0 1.07813-.1875 1.67188-.5625L3.875-.76562c-.14062.0625-.35937.10937-.59375.10937-.40625 0-.6875-.3125-.6875-.98437v-3h1.10938v-.53125H2.59375v-1.3125H2l-.9375 1.3125H.39063Zm0 0"/><path id="p" d="m2.04688-5.70312.21875.32812L4.1875-6.46875c.39063-.20312.71875-.42187.71875-.6875s-.29687-.64062-.54687-.64062c-.21875 0-.39063.125-.78125.53125Zm-1.625 3.125c0 1.4375.625 2.70312 2.5625 2.70312 1.26562 0 1.9375-.60937 2.29687-1.53125l-.375-.21875c-.3125.60938-.76562.9375-1.40625.9375-1.04687 0-1.42187-.85937-1.42187-1.96875H4.8125c.39063 0 .5625-.09375.5625-.4375 0-.85937-.32812-2.1875-2.35937-2.1875C1.125-5.28125.42188-4.0625.42188-2.57812m1.65625-.57813c0-.76562.20312-1.65625.89062-1.65625.64063 0 .75.8125.75 1.3125 0 .28125-.07812.34375-.32812.34375Zm0 0"/><path id="q" d="M.25 0h2.96875v-.40625c-.60937-.03125-.67187-.07812-.67187-.51562v-6.8125l-.09375-.07813-2.10938.28125v.39063l.34375.04687c.17188.03125.25.125.25.54688v5.625c0 .4375-.07812.48437-.6875.51562Zm0 0"/><path id="r" d="M.42188-2.57812c0 1.4375.625 2.70312 2.5625 2.70312 1.26562 0 1.9375-.60937 2.29687-1.53125l-.375-.21875c-.3125.60938-.76562.9375-1.40625.9375-1.04687 0-1.42187-.85937-1.42187-1.96875H4.8125c.39063 0 .5625-.09375.5625-.4375 0-.85937-.32812-2.1875-2.35937-2.1875C1.125-5.28125.42188-4.0625.42188-2.57812m1.65625-.57813c0-.76562.20312-1.65625.89062-1.65625.64063 0 .75.8125.75 1.3125 0 .28125-.07812.34375-.32812.34375Zm0 0"/><path id="s" d="M.25 2.01563v.40625h3.15625v-.40625C2.625 1.98438 2.54688 1.9375 2.54688 1.5V0c.17187.07813.51562.125.8125.125 1.5625 0 2.8125-.54687 2.8125-2.84375 0-1.75-.92188-2.5625-1.90625-2.5625-.73438 0-1.20313.32813-1.71875.71875l-.1875-.71875-2.01563.29688v.375l.34375.0625c.17188.01562.25.09375.25.53125V1.5c0 .4375-.07812.48438-.6875.51563m2.29688-3.625v-1.65625c0-.21875 0-.4375.04687-.57813.14063-.39062.4375-.64062.875-.64062C3.95313-4.48437 4.5-4.20312 4.5-2.5c0 1.3125-.28125 2.14063-1.09375 2.14063-.45312 0-.71875-.25-.8125-.70313-.04687-.15625-.04687-.34375-.04687-.54687m0 0"/><path id="t" d="m.3125-4.60937.375.0625c.15625.01562.23438.09375.23438.53125v2.5625C.92188-.21876 1.6875.125 2.4375.125c.90625 0 1.45313-.48437 1.875-.71875L4.40625 0h2.1875v-.40625c-.60937-.03125-.67187-.07812-.67187-.51562v-4.29688l-.09375-.0625-2.125.29688v.375l.35937.0625c.17188.01562.25.09375.25.53125v2.21875c0 .1875-.01562.4375-.07812.59375-.09375.25-.375.5-.84375.5-.5625 0-.875-.32813-.875-1.14063v-3.375l-.07813-.0625-2.125.29688Zm0 0"/><path id="u" d="M.45313-1.95312.57813-.375c.40625.35938 1.20312.5 1.79687.5 1.28125 0 2.15625-.5625 2.15625-1.70312 0-.90625-.57812-1.34375-1.54687-1.71875-.60938-.21875-1.0625-.46875-1.0625-.89063 0-.32812.23437-.625.67187-.625.54688 0 .98438.5 1.1875 1.29688h.39063v-1.40625c-.4375-.26563-1.03125-.35938-1.57813-.35938-1.28125 0-2.07812.59375-2.07812 1.65625 0 .78125.60937 1.26563 1.54687 1.625.53125.1875 1.0625.5 1.0625 1 0 .40625-.26562.64063-.73437.64063-.6875 0-1.26563-.73438-1.53125-1.59375Zm0 0"/><path id="v" d="M.42188-2.57812C.42188-.89062 1.21875.125 3.14063.125 5.04688.125 5.875-.89062 5.875-2.57812c0-1.67188-.82812-2.70313-2.73437-2.70313C1.21875-5.28125.42188-4.25.42188-2.57812m1.65625 0c0-1.40625.3125-2.23438 1.0625-2.23438s1.04687.82813 1.04687 2.23438S3.89063-.35937 3.14063-.35937s-1.0625-.8125-1.0625-2.21875m0 0"/><path id="w" d="M.34375 0h2.8125v-.40625l-.20312-.01562c-.21875-.03125-.35938-.0625-.35938-.40625v-2.51563c0-.23437.04688-.46875.125-.60937.14063-.26563.42188-.53125.85938-.53125.53125 0 .8125.34375.82812.96875v2.6875c0 .34375-.10937.375-.32812.40625l-.21875.01562V0H6.6875v-.40625C6.07813-.4375 6-.48437 6-.92187v-2.73438c-.01562-1-.5-1.625-1.59375-1.625-.60937 0-1.10937.3125-1.8125.71875l-.125-.71875-2.07812.29688v.375l.375.0625c.17187.01562.25.09375.25.53125v3.09375c0 .4375-.07813.48437-.67188.51562Zm0 0"/><path id="x" d="M.34375 1.01563c0 1.01562 1.09375 1.53125 2.59375 1.53125.45313 0 1.21875-.09375 1.75-.39063.57813-.29687.96875-.84375.96875-1.60937 0-1.26563-.96875-1.65625-2.07812-1.65625h-.98438c-.51562 0-.70312-.17188-.70312-.35938 0-.23437.26562-.34375.42187-.375.20313.01563.35938 0 .48438 0 1.23437 0 2.35937-.4375 2.35937-1.70312 0-.3125-.125-.625-.26562-.8125l.70312-.125.20313-.79688-.09375-.10937L4.375-4.9375c-.35937-.20312-.9375-.34375-1.5-.34375C.96875-5.28125.42188-4.3125.42188-3.5c0 .875.64062 1.40625 1.28125 1.5v.03125c-.6875.17188-1.125.54688-1.125.96875 0 .46875.51562.89063.96875.98438v.03125c-.4375.09375-1.20313.28125-1.20313 1M1.73438.90625c0-.29687.14062-.48437.28124-.57812.14063-.10938.46875-.15625.9375-.15625.89063 0 1.42188.20312 1.42188.84375 0 .75-.57812 1.04687-1.28125 1.04687-.70312 0-1.35937-.40625-1.35937-1.15625m.32812-4.4375c0-.89062.375-1.28125.79688-1.28125.40625 0 .79687.39063.79687 1.26563 0 .75-.32812 1.23437-.8125 1.23437-.45312 0-.78125-.48437-.78125-1.21875m0 0"/></defs><path fill="none" stroke="#000" stroke-miterlimit="10" stroke-width=".39813" d="m27.04297 113.08984 62.41797 56.48828L102.30078 29.9297Zm0 0"/><use xlink:href="#a" x="7.55366" y="135.89314"/><use xlink:href="#b" x="97.37215" y="192.0483"/><use xlink:href="#c" x="97.96559" y="22.02028"/><use xlink:href="#d" x="11.57387" y="156.40085"/><use xlink:href="#e" x="17.34055" y="156.40085"/><use xlink:href="#f" x="21.5172" y="156.40085"/><use xlink:href="#g" x="27.28387" y="156.40085"/><use xlink:href="#h" x="35.41269" y="156.40085"/><use xlink:href="#i" x="40.6307" y="156.40085"/><use xlink:href="#j" x="12.22626" y="74.31608"/><use xlink:href="#j" x="17.99294" y="74.31608"/><use xlink:href="#e" x="23.75962" y="74.31608"/><use xlink:href="#k" x="27.93626" y="74.31608"/><use xlink:href="#l" x="33.70294" y="74.31608"/><use xlink:href="#h" x="41.83315" y="74.31608"/><use xlink:href="#i" x="47.05116" y="74.31608"/><use xlink:href="#m" x="103.79211" y="95.05831"/><use xlink:href="#n" x="111.14882" y="95.05831"/><use xlink:href="#o" x="117.40819" y="95.05831"/><use xlink:href="#p" x="121.40567" y="95.05831"/><use xlink:href="#q" x="129.26627" y="95.05831"/><use xlink:href="#r" x="132.6255" y="95.05831"/><use xlink:href="#s" x="140.4973" y="95.05831"/><use xlink:href="#q" x="147.08139" y="95.05831"/><use xlink:href="#t" x="150.44062" y="95.05831"/><use xlink:href="#u" x="157.17028" y="95.05831"/><use xlink:href="#q" x="164.28065" y="95.05831"/><use xlink:href="#v" x="167.63988" y="95.05831"/><use xlink:href="#w" x="173.89925" y="95.05831"/><use xlink:href="#x" x="180.71848" y="95.05831"/><use xlink:href="#y" x="125.73147" y="108.77491"/><use xlink:href="#z" x="130.05367" y="108.77491"/><use xlink:href="#z" x="133.40171" y="108.77491"/><use xlink:href="#z" x="136.73854" y="108.77491"/><use xlink:href="#A" x="140.08658" y="108.77491"/><use xlink:href="#z" x="149.30206" y="108.77491"/><use xlink:href="#z" x="152.6501" y="108.77491"/><use xlink:href="#z" x="155.98693" y="108.77491"/><use xlink:href="#B" x="159.33497" y="108.77491"/><use xlink:href="#j" x="125.73147" y="110.76878"/><use xlink:href="#C" x="131.49814" y="110.76878"/><use xlink:href="#e" x="137.26482" y="110.76878"/><use xlink:href="#g" x="141.44147" y="110.76878"/><use xlink:href="#h" x="149.57253" y="110.76878"/><use xlink:href="#i" x="154.79054" y="110.76878"/></svg>