<svg xmlns="http://www.w3.org/2000/svg" xmlns:xlink="http://www.w3.org/1999/xlink" width="77.134pt" height="153.43pt" viewBox="0 0 77.134 153.43"><defs><path id="a" d="M.125 0h3.5l.07813-.34375-.90625-.0625c-.21875-.01562-.3125-.125-.3125-.29687 0-.07813.01562-.15626.04687-.26563L3.1875-3.9375h1.60938c.875 0 1.04687.17188 1.04687.6875 0 .09375 0 .21875-.01562.34375h.35937L6.75-5.4375h-.35937c-.29688.84375-.45313 1.04688-1.51563 1.04688H3.29688l.71875-3.15625c.07812-.3125.14062-.375.35937-.375h1.46875c1.17188 0 1.40625.3125 1.40625.95312 0 .3125-.03125.625-.03125.625h.35938l.45312-1.98437h-6.125l-.07812.34375.71875.0625c.20312.01562.29687.125.29687.3125 0 .0625-.01562.15625-.03125.23437L1.375-.96875c-.09375.35938-.20312.53125-.5.5625l-.6875.0625Zm0 0"/><path id="b" d="M0 0h3.6875C6.09375 0 7.5-.875 8.35938-2.17187c.70312-1.04688.8125-2.0625.8125-2.78125 0-.96875-.34375-1.9375-1.03125-2.51563-.70313-.59375-1.78125-.85937-3.125-.85937H1.78125l-.07812.34375.71875.04687c.20312.01563.28125.125.28125.3125 0 .07813-.01563.1875-.03125.29688L1.23438-1c-.09376.39063-.20313.54688-.48438.57813l-.6875.07812Zm2.39063-.89062v-.14063l1.45312-6.4375c.10938-.40625.26563-.45312 1.3125-.45312 2.51563.0625 2.71875 1.75 2.71875 2.70312 0 1.04688-.23437 2.01563-.78125 2.90625C6.40625-1.17187 5.375-.42187 3.375-.42187c-.57812 0-.98437-.07813-.98437-.46875m0 0"/><path id="c" d="M.125 0h6.28125l.60938-2.10937h-.35938C6.04688-.625 5.51563-.42187 4.01563-.42187c-1.42188 0-1.48438-.1875-1.48438-.5 0-.125.03125-.3125.07813-.54688l.625-2.64062H4.8125c.89063 0 1.0625.17187 1.0625.70312 0 .09375 0 .20313-.01562.32813h.35937l.5625-2.51563h-.375c-.3125.84375-.4375 1.03125-1.5 1.03125H3.32813l.6875-3c.0625-.29687.14062-.35937.34375-.35937h1.4375c1.1875 0 1.42187.3125 1.42187.96875 0 .29687-.03125.625-.03125.625h.35938l.45312-2H1.90625l-.09375.34375.73438.04687c.20312.01563.29687.10938.29687.29688 0 .07812-.01562.17187-.03125.28125L1.375-1c-.10937.40625-.20312.54688-.5.57813l-.6875.07812Zm0 0"/><path id="d" d="M.51563-3.4375c0 1.20313.39062 2.1875 1.01562 2.73438.71875.60937 1.70313.875 2.8125.875.89063 0 1.85938-.20313 2.54688-.45313l.57812-2.4375c.10938-.40625.17188-.57812.375-.59375l.51563-.0625.07812-.34375H5.26563l-.0625.34375.89062.07813c.17188.01562.25.09375.25.28125 0 .07812-.01562.17187-.04687.29687L5.875-.89062c-.09375.34375-.25.64062-1.5.64062-1.46875 0-2.53125-.96875-2.53125-3.09375 0-1.92187.9375-4.75 3.8125-4.75 1.57813 0 1.85938.92188 1.92188 2.0625h.35937l.4375-1.89062c-.71875-.39063-1.6875-.59375-2.70312-.59375-1.84375 0-3.17188.65625-4.01563 1.73437C.85938-5.76562.51563-4.5.51563-3.4375m0 0"/><path id="e" d="M0 0h3.29688L3.375-.34375l-.71875-.04687c-.20312-.01563-.29687-.125-.29687-.3125 0-.09376.01562-.1875.03125-.29688l.70312-3.10937h4.01563L6.40625-1c-.10937.40625-.21875.54688-.51562.57813l-.65625.07812L5.15625 0h3.29688l.07812-.34375-.70312-.04687c-.21875-.01563-.3125-.125-.3125-.32813q0-.11718.04687-.28125L9-7.32812c.10938-.39063.20313-.57813.5-.60938l.67188-.04687.07812-.34375H6.95313l-.07813.34375.70313.04687c.21875.01563.29687.14063.29687.34375 0 .07813-.01562.15625-.03125.26563l-.625 2.76562H3.20313l.625-2.76562c.10937-.39063.20312-.57813.51562-.60938l.67188-.04687.07812-.34375H1.79688l-.09376.34375.71876.04687c.20312.01563.29687.14063.29687.34375 0 .07813-.01562.15625-.04687.26563L1.23438-1c-.10938.40625-.20313.54688-.5.57813L.0625-.34375Zm0 0"/><path id="f" d="M.10938 0H4.5625l.45313-1.54687H4.75C4.29688-.51562 3.875-.32812 2.92188-.32812c-.90625 0-1.03125-.0625-1.03125-.32813 0-.07812.01562-.1875.0625-.32812l.4375-1.89063h1.01562c.59375 0 .70313.15625.70313.53125v.20313H4.375l.40625-1.79688H4.5c-.23437.59375-.32812.73438-1.01562.73438H2.45313L2.92188-5.25c.0625-.21875.10937-.26562.28125-.26562h.90625c.8125 0 .98437.23437 1 .6875 0 .07812 0 .35937-.01563.4375h.26563l.3125-1.4375h-4.3125l-.0625.26562.48437.03125c.14063 0 .20313.0625.20313.20313 0 .04687-.01563.125-.03126.21875l-.98437 4.375C.89063-.45313.82813-.32812.60938-.3125l-.45313.04688Zm0 0"/><path id="g" d="M.45313-2.40625C.45313-.23437 2.04688.125 3.125.125c.60938 0 1.3125-.14062 1.82813-.35937l.40625-1.65625c.0625-.28126.10937-.40625.26562-.42188l.35938-.03125.0625-.26562H3.71875l-.04687.26562.60937.04688c.10938.01562.17188.0625.17188.20312 0 .04688-.01563.125-.04688.20313l-.29687 1.25c-.0625.26562-.15625.4375-.95313.4375-1 0-1.65625-.65625-1.65625-2.0625 0-1.375.65625-3.375 2.57813-3.375 1.04687 0 1.28125.64062 1.32812 1.46875h.26563l.29687-1.375c-.5-.29688-1.20312-.42188-1.875-.42188-2.90625 0-3.64062 2.28125-3.64062 3.5625m0 0"/><path id="h" d="M.71875-1.15625h4.64063v-.5625H.71875Zm0-1.875h4.64063v-.5625H.71875Zm0 0"/><path id="i" d="M.34375-2.8125c0 1.64063.5 2.90625 1.9375 2.90625s1.9375-1.26562 1.9375-2.90625c0-1.65625-.5-2.92187-1.9375-2.92187S.34375-4.46875.34375-2.8125m.96875 0c0-1.28125.1875-2.60937.96875-2.60937.76563 0 .96875 1.32812.96875 2.60937 0 1.26563-.20312 2.59375-.96875 2.59375-.78125 0-.96875-1.32812-.96875-2.59375m0 0"/><path id="j" d="m.4375 1.04688.1875.17187C1.04688.82813 1.71875.23438 1.71875-.4375c0-.4375-.25-.78125-.60937-.78125-.3125 0-.46875.23438-.46875.45313 0 .29687.25.45312.25.8125s-.1875.70312-.45313 1m0 0"/><path id="k" d="M.34375-2.64062c0 1.79687.64063 2.73437 1.98438 2.73437 1.3125 0 1.98437-.79687 1.98437-1.90625 0-1.14062-.73437-1.76562-1.625-1.76562-.64062 0-1.125.40625-1.375.71875.01563-1.5625.42188-2.5625 1.20313-2.5625.375 0 .625.34375.76562.84375.03125.10937.125.1875.26563.1875.1875 0 .48437-.14063.48437-.40625 0-.35938-.42187-.9375-1.46875-.9375-1.35937 0-2.21875 1.03125-2.21875 3.09375m.96875.65625c0-.51563.35938-1.09375 1.03125-1.09375.51563 0 1 .45312 1 1.40625 0 .85937-.29687 1.45312-.98437 1.45312C1.65625-.21875 1.3125-1 1.3125-1.98437m0 0"/><path id="n" d="M.10938 0h2.53125l.04687-.26562-.59375-.04688c-.15625 0-.23437-.07812-.23437-.20312 0-.0625.03124-.10938.04687-.1875L2.34375-2.75H3.4375c.57813 0 .70313.15625.70313.53125v.20313h.26562l.40625-1.8125h-.28125c-.21875.60937-.32812.75-1.03125.75H2.4375l.48438-2.1875c.0625-.20313.09375-.25.26562-.25h.9375c.8125 0 .96875.23437.98438.67187 0 .1875 0 .34375-.01563.4375H5.375l.3125-1.42187H1.35938l-.0625.26562.48437.03125c.14063.01563.20313.09375.20313.21875 0 .0625-.01563.125-.03126.1875L.96876-.70312c-.0625.26562-.14062.375-.35937.39062l-.45313.04688Zm0 0"/><path id="o" d="M.92188 0h2.8125v-.26562l-.67188-.0625c-.1875-.01563-.26562-.07813-.26562-.39063V-5.6875l-.0625-.04687-1.8125.3125v.21875l.73437.09375c.15625.03125.20313.09375.20313.35937v4.03125c0 .3125-.07813.375-.26563.39063l-.67187.0625Zm0 0"/><path id="p" d="M.04688 0H2.4375L2.5-.26562l-.48437-.03125C1.85938-.3125 1.79688-.375 1.79688-.51562c0-.0625.01562-.125.03124-.21876L2.3125-2.875h2.65625L4.48438-.73437c-.07813.28124-.14063.40625-.35938.42187l-.45312.04688L3.625 0h2.39063l.0625-.26562-.48438-.03125C5.4375-.3125 5.375-.375 5.375-.51562c0-.0625.03125-.125.04688-.21876l.98437-4.35937c.07813-.28125.125-.42187.35938-.4375l.45312-.03125.04688-.26562H4.875l-.0625.26562.48438.03125c.14062 0 .20312.07813.20312.21875 0 .0625-.01562.14063-.03125.21875L5.0625-3.20312H2.39063l.42187-1.89063c.07813-.28125.14063-.42187.375-.4375l.4375-.03125.0625-.26562H1.29688l-.0625.26562.48437.03125c.14063 0 .20313.07813.20313.21875 0 .0625-.01563.14063-.03126.21875l-1 4.35938C.82813-.45313.75-.32812.53126-.3125l-.4375.04688Zm0 0"/><path id="q" d="M.3125-3.82812c0 1.15625.70313 1.78125 1.60938 1.78125.64062 0 1.10937-.42188 1.35937-.71875 0 1.5625-.42187 2.54687-1.1875 2.54687-.375 0-.64062-.32812-.78125-.82812-.03125-.10938-.10937-.20313-.25-.20313-.20312 0-.5.15625-.5.42188 0 .35937.4375.92187 1.48438.92187C3.4375.09375 4.25-.96875 4.25-3c0-1.79687-.64062-2.73437-1.98437-2.73437-1.3125 0-1.95313.79687-1.95313 1.90625m.95313-.14063c0-.85937.29687-1.45312.98437-1.45312s1.03125.79687 1.03125 1.78125c0 .5-.35937 1.09375-1.01562 1.09375-.53125 0-1-.45313-1-1.42188m0 0"/><path id="r" d="M.04688 0h2.60937C4.375 0 5.34375-.60937 5.9375-1.53125 6.40625-2.25 6.5-2.98437 6.5-3.4375c0-.73437-.25-1.40625-.73437-1.79687-.5-.40625-1.25-.59375-2.20313-.59375H1.29688l-.0625.26562.48437.03125c.14063 0 .20313.07813.20313.21875 0 .04688-.01563.125-.03126.21875l-1 4.35938c-.0625.28124-.125.40625-.34374.42187l-.45313.04688Zm1.78125-.64062V-.75l1-4.45312c.07812-.28125.1875-.3125.875-.3125 1.60937.03125 1.78125 1.125 1.78125 1.82812-.01563.5625-.17188 1.40625-.5625 2.07813C4.46875-.85937 3.78125-.32812 2.5-.32812c-.40625 0-.67187-.04688-.67187-.3125m0 0"/><path id="s" d="M.35938-.89062c0 .35937.54687.98437 1.73437.98437 1.4375 0 2.04688-.84375 2.04688-1.90625 0-1.07812-.64063-1.79687-1.76563-1.79687-.5 0-1 .21875-1.28125.46875l.1875-1.48438c.03125-.23437.0625-.26562.25-.26562h2.125l.25-.65625-.0625-.07813H.92188l-.0625.07813L.6875-2.75l.23438.15625c.34375-.40625.67187-.59375 1.125-.59375.54687 0 1.09375.39063 1.09375 1.46875 0 .85938-.3125 1.5-1 1.5-.53125 0-.82813-.375-1.01563-.92187Q1.0547-1.37501.84375-1.375c-.20312 0-.48437.17188-.48437.48438m0 0"/><path id="l" d="M.40625-2.03125c0 1.40625.70313 2.125 1.96875 2.125.57813 0 1.39063-.29687 1.60938-1.20312l-.25-.125c-.25.59375-.59375.89062-1.20313.89062-1 0-1.23437-1.04687-1.23437-1.82812 0-1.26563.48437-1.76563 1.07812-1.76563.375 0 .625.28125.79688.73438.04687.14062.10937.21875.26562.21875.17188 0 .48438-.10938.48438-.4375 0-.375-.54688-.8125-1.46875-.8125-1.53125 0-2.04688 1.09375-2.04688 2.20312m0 0"/><path id="m" d="M.26563 0h2.0625v-.23437c-.60938-.04688-.64063-.07813-.64063-.5v-1.96875c0-.21875 0-.34375.07813-.45313.15624-.34375.51562-.625.98437-.625.73438 0 .8125.53125.8125 1.0625v1.98438c0 .42187-.01562.45312-.625.5V0h2.04688v-.23437c-.59375-.04688-.625-.07813-.625-.5v-1.96875c0-.21875.01562-.32813.0625-.46875.125-.32813.48437-.60938.95312-.60938.53125 0 .85938.29688.85938 1.0625v1.98438c0 .42187-.03125.45312-.64063.5V0h2.0625v-.23437c-.59375-.04688-.64062-.07813-.64062-.5v-2.15625c0-.84375-.45313-1.34375-1.25-1.34375-.6875 0-1.1875.45312-1.48438.64062-.20312-.39062-.51562-.64062-1.10937-.64062-.65625 0-1.1875.4375-1.48438.64062l-.07812-.64062-1.29688.21875v.20312l.3125.04688c.21875.03125.28125.07812.28125.375v2.65625c0 .42187-.03125.45312-.64062.5Zm0 0"/></defs><path fill="none" stroke="#000" stroke-miterlimit="10" stroke-width=".39408" d="M21.60938 53.77344h36.44139L16.8711 17.69533Zm0 0"/><use xlink:href="#a" x="8.9515" y="66.62231"/><use xlink:href="#b" x="62.58237" y="66.62231"/><use xlink:href="#c" x="12.81018" y="13.16351"/><path fill="none" stroke="#000" stroke-miterlimit="10" stroke-width=".39408" d="M19.71485 39.33985h21.86717"/><use xlink:href="#d" x="6.49211" y="43.50486"/><use xlink:href="#e" x="46.1113" y="43.49892"/><use xlink:href="#f" x="4.26907" y="100.7012"/><use xlink:href="#g" x="10.49999" y="100.7012"/><use xlink:href="#h" x="18.84673" y="100.7012"/><use xlink:href="#i" x="26.65555" y="100.7012"/><use xlink:href="#j" x="31.20098" y="100.7012"/><use xlink:href="#k" x="34.49126" y="100.7012"/><use xlink:href="#l" x="40.93729" y="100.7012"/><use xlink:href="#m" x="45.11514" y="100.7012"/><use xlink:href="#f" x="4.26907" y="116.07015"/><use xlink:href="#n" x="10.49999" y="116.07015"/><use xlink:href="#h" x="18.48811" y="116.07015"/><use xlink:href="#o" x="26.29693" y="116.07015"/><use xlink:href="#l" x="32.7418" y="116.07015"/><use xlink:href="#m" x="36.91965" y="116.07015"/><use xlink:href="#f" x="4.26907" y="131.4391"/><use xlink:href="#p" x="10.49999" y="131.4391"/><use xlink:href="#h" x="20.05705" y="131.4391"/><use xlink:href="#i" x="27.86587" y="131.4391"/><use xlink:href="#j" x="32.4113" y="131.4391"/><use xlink:href="#q" x="35.70158" y="131.4391"/><use xlink:href="#l" x="42.14701" y="131.4391"/><use xlink:href="#m" x="46.32486" y="131.4391"/><use xlink:href="#f" x="4.26907" y="146.80805"/><use xlink:href="#r" x="10.49999" y="146.80805"/><use xlink:href="#h" x="19.30396" y="146.80805"/><use xlink:href="#o" x="27.11278" y="146.80805"/><use xlink:href="#j" x="31.65821" y="146.80805"/><use xlink:href="#s" x="34.9485" y="146.80805"/><use xlink:href="#l" x="41.39366" y="146.80805"/><use xlink:href="#m" x="45.57152" y="146.80805"/></svg>