<svg xmlns="http://www.w3.org/2000/svg" xmlns:xlink="http://www.w3.org/1999/xlink" width="74.16pt" height="147.522pt" viewBox="0 0 74.16 147.522"><defs><path id="a" d="M.125 0h3.35938l.07812-.32812-.875-.0625C2.46875-.40625 2.39063-.5 2.39063-.67187c0-.07813.01562-.15626.03125-.25l.64062-2.85938h1.54688c.84375 0 1 .15625 1 .65625v.32813h.34375l.53125-2.42188h-.34375c-.29688.8125-.42188 1-1.45313 1H3.17188L3.85938-7.25c.0625-.29687.125-.35937.34375-.35937h1.40625c1.14062 0 1.35937.29687 1.35937.90625 0 .29687-.03125.60937-.03125.60937h.34375L7.71875-8H1.82813l-.0625.32813.6875.0625c.1875.01562.28125.10937.28125.29687 0 .0625-.01563.14063-.03125.23438L1.3125-.92187c-.07812.34375-.1875.5-.46875.53125l-.65625.0625Zm0 0"/><path id="b" d="M0 0h3.54688c2.3125 0 3.65625-.84375 4.5-2.09375.65625-1 .76562-1.96875.76562-2.65625 0-.9375-.32812-1.875-1-2.42187C7.14063-7.75 6.10938-8 4.82813-8H1.71875l-.07812.32813.6875.04687c.20312.01563.26562.10938.26562.29688 0 .07812-.01562.17187-.03125.28125L1.1875-.95312C1.09375-.57812 1-.4375.71875-.40625L.0625-.32812Zm2.29688-.84375V-1L3.6875-7.17187c.10938-.40625.26563-.4375 1.28125-.4375C7.375-7.5625 7.57813-5.9375 7.57813-5.01562c0 1-.23438 1.9375-.75 2.79687C6.15625-1.125 5.17188-.40625 3.25-.40625c-.5625 0-.95312-.07812-.95312-.4375m0 0"/><path id="c" d="M.125 0h6.03125L6.75-2.03125h-.34375c-.59375 1.42188-1.10937 1.625-2.54687 1.625-1.35938 0-1.4375-.17187-1.4375-.48437 0-.125.04687-.29688.09375-.53125l.59375-2.53125h1.5c.875 0 1.03125.17187 1.03125.67187 0 .10938 0 .20313-.01563.32813h.34375L6.51563-5.375h-.35938c-.29687.8125-.42187.98438-1.4375.98438H3.20313l.65625-2.875c.0625-.28125.125-.34375.32812-.34375h1.39063c1.125 0 1.35937.29687 1.35937.92187 0 .28125-.03125.60938-.03125.60938H7.25L7.6875-8H1.82813L1.75-7.67187l.70313.04687q.28125.02344.28125.28125c0 .07813-.01563.17188-.03125.28125L1.3125-.95312c-.09375.39062-.1875.51562-.46875.54687L.1875-.32812Zm0 0"/><path id="d" d="M.5-3.29687c0 1.15625.375 2.10937.98438 2.625.67187.57812 1.625.84375 2.6875.84375.85937 0 1.78125-.20313 2.45312-.4375l.54688-2.34375c.10937-.39063.17187-.5625.35937-.57813l.51563-.04687.0625-.34375H5.0625L5-3.23437l.85938.0625c.15625.01562.23437.09375.23437.28125 0 .07812-.01562.15625-.03125.28125l-.42187 1.75c-.09375.32812-.23438.625-1.4375.625-1.40625 0-2.4375-.9375-2.4375-2.98438 0-1.84375.90625-4.5625 3.67187-4.5625 1.51563 0 1.78125.89063 1.84375 1.98438h.35938l.40625-1.8125c-.70313-.375-1.625-.57813-2.59375-.57813-1.76563 0-3.04688.64063-3.85938 1.67188C.82813-5.54687.5-4.32812.5-3.29687m0 0"/><path id="e" d="M0 0h3.17188l.0625-.32812-.6875-.04688c-.1875-.01562-.28125-.125-.28125-.29687 0-.09376.01562-.17188.03125-.28126l.67187-3h3.85938l-.67188 3c-.09375.39063-.20312.51563-.5.54688l-.625.07813L4.96875 0H8.125l.07813-.32812-.6875-.04688C7.3125-.39062 7.23438-.5 7.23438-.6875c0-.07812 0-.15625.03125-.26562l1.39062-6.09375c.09375-.375.1875-.54688.48438-.57813l.64062-.04687L9.84375-8H6.6875l-.09375.32813.6875.04687c.20313.01563.29688.125.29688.32813 0 .0625-.01563.15625-.04688.25L6.9375-4.39062H3.07813l.60937-2.65625c.09375-.375.1875-.54688.48438-.57813l.64062-.04687L4.89063-8H1.71875l-.07812.32813.6875.04687c.20312.01563.28125.125.28125.32813 0 .0625-.01563.15625-.03125.25L1.1875-.95312C1.07813-.5625.98438-.4375.70313-.40625L.0625-.32812Zm0 0"/><path id="f" d="M.10938 0h4.28125l.4375-1.48437H4.5625c-.4375 1-.84375 1.17187-1.76562 1.17187-.85938 0-.98438-.0625-.98438-.3125 0-.07812.03125-.1875.0625-.32812l.42188-1.8125h.98437c.5625 0 .67188.14062.67188.5v.21875h.25l.39062-1.73438h-.26562c-.21875.5625-.3125.6875-.96875.6875h-1l.45312-1.95312c.04688-.21875.10938-.25.28125-.25h.85938c.78125 0 .95312.21875.95312.64062v.4375h.25l.29688-1.39062H1.3125l-.07812.25.48437.03125c.14063.01562.20313.07812.20313.20312 0 .04688-.03126.125-.04688.20313L.9375-.70312C.85938-.4375.79688-.3125.59375-.29687L.15625-.25Zm0 0"/><path id="g" d="M.4375-2.3125C.4375-.21875 1.96875.125 3 .125c.59375 0 1.26563-.14062 1.76563-.34375l.39062-1.59375c.0625-.28125.09375-.39062.25-.40625l.35938-.04687.04687-.25H3.57813l-.04688.25.57813.0625c.10937 0 .17187.0625.17187.1875 0 .04687-.01562.125-.03125.20312L3.95313-.625c-.04688.26563-.15625.4375-.92188.4375-.96875 0-1.57812-.64062-1.57812-1.98437 0-1.32813.60937-3.25 2.46875-3.25 1 0 1.23437.625 1.28125 1.40625h.25L5.75-5.32812c-.5-.28125-1.17187-.40625-1.8125-.40625-2.79687 0-3.5 2.1875-3.5 3.42187m0 0"/><path id="h" d="M.6875-1.10937h4.46875v-.54688H.6875Zm0-1.8125h4.46875v-.53125H.6875Zm0 0"/><path id="i" d="M.32813-2.70312C.32813-1.125.8125.09375 2.1875.09375c1.39063 0 1.85938-1.21875 1.85938-2.79687 0-1.59375-.46875-2.8125-1.85938-2.8125-1.375 0-1.85937 1.21875-1.85937 2.8125m.9375 0c0-1.23438.1875-2.5.92187-2.5.75 0 .9375 1.26562.9375 2.5 0 1.21875-.1875 2.5-.9375 2.5-.73437 0-.92187-1.28125-.92187-2.5m0 0"/><path id="j" d="m.40625 1.01563.1875.15624C1 .79688 1.64063.21876 1.64063-.40624c0-.4375-.21876-.76562-.57813-.76562-.29687 0-.45312.21874-.45312.4375 0 .28124.25.4375.25.78125s-.1875.67187-.45313.96875m0 0"/><path id="k" d="M.34375-2.53125c0 1.71875.60938 2.625 1.90625 2.625 1.25 0 1.89063-.76562 1.89063-1.84375 0-1.09375-.70313-1.6875-1.5625-1.6875-.60938 0-1.0625.39063-1.3125.6875.01562-1.5.40625-2.45312 1.15625-2.45312.35937 0 .60937.3125.73437.79687.03125.10938.10938.1875.25.1875.1875 0 .46875-.14062.46875-.39062 0-.34375-.40625-.90625-1.40625-.90625-1.3125 0-2.125 1-2.125 2.98437m.92188.60938c0-.46875.34375-1.04688.98437-1.04688.5 0 .95313.4375.95313 1.35938 0 .82812-.28125 1.40625-.9375 1.40625-.67188 0-1-.76563-1-1.71875m0 0"/><path id="n" d="M.10938 0h2.42187l.0625-.25-.57812-.04687c-.15625 0-.21875-.07813-.21875-.20313 0-.04687.01562-.10937.03124-.17187l.4375-1.96875h1.03125c.5625 0 .6875.14062.6875.5 0 .04687 0 .14062-.01562.20312h.26563L4.625-3.67187h-.26562c-.21875.57812-.32813.70312-.98438.70312H2.34375L2.8125-5.0625c.04688-.20312.09375-.23437.26563-.23437h.89062c.78125 0 .9375.21875.9375.64062v.42188h.26563l.29687-1.375H1.3125l-.0625.25.46875.04687c.14063.01563.20313.07813.20313.20313 0 .0625-.03126.10937-.04688.1875L.9375-.6875c-.0625.26563-.14062.375-.34375.39063L.15625-.25Zm0 0"/><path id="o" d="M.875 0h2.71875v-.25l-.64062-.0625c-.1875-.01562-.26563-.07812-.26563-.375v-4.78125l-.0625-.04687-1.73437.29687V-5l.70312.09375c.15625.03125.20313.07813.20313.32813V-.6875c0 .29688-.07813.35938-.26563.375L.875-.25Zm0 0"/><path id="p" d="M.04688 0h2.29687l.04688-.25-.45313-.03125c-.14062-.01562-.20312-.07812-.20312-.20312 0-.0625.01562-.14063.03124-.21875l.45313-2.0625h2.5625L4.3125-.70312c-.0625.26562-.14062.39062-.34375.40625L3.53125-.25 3.48438 0h2.29687l.0625-.25L5.375-.28125C5.23438-.29687 5.17188-.35937 5.17188-.5c0-.04687.01562-.125.03125-.20312l.96875-4.20313c.0625-.26562.10937-.39062.32812-.42187l.4375-.03125.04688-.25H4.6875l-.0625.25.46875.03125c.14063.01562.20313.07812.20313.21875 0 .0625-.01563.125-.03125.20312l-.40625 1.8125h-2.5625l.40625-1.8125c.07812-.26562.14062-.39062.35937-.42187l.42188-.03125.0625-.25H1.25l-.0625.25.45313.03125c.14062.01562.20312.07812.20312.21875 0 .0625 0 .125-.03125.20312L.85938-.70312C.79688-.4375.71875-.3125.51563-.29687L.09375-.25Zm0 0"/><path id="q" d="M.29688-3.67187c0 1.10937.6875 1.70312 1.54687 1.70312.60938 0 1.07813-.40625 1.3125-.70312-.01562 1.5-.40625 2.46875-1.14062 2.46875-.375 0-.625-.32813-.75-.8125-.03126-.09376-.10938-.1875-.25-.1875-.1875 0-.46875.15624-.46875.40625 0 .34375.42187.89062 1.42187.89062 1.34375 0 2.125-1.03125 2.125-2.96875 0-1.73437-.625-2.64062-1.90625-2.64062-1.26562 0-1.89062.76562-1.89062 1.84375m.92187-.14063c0-.82812.28125-1.39062.9375-1.39062.67188 0 1 .75 1 1.70312 0 .48438-.34375 1.04688-.98437 1.04688-.5 0-.95313-.4375-.95313-1.35938m0 0"/><path id="r" d="M.04688 0h2.5C4.20313 0 5.125-.59375 5.70313-1.46875c.46875-.6875.54687-1.39062.54687-1.84375 0-.70312-.25-1.34375-.71875-1.71875-.46875-.39062-1.1875-.57812-2.09375-.57812H1.23438l-.04688.25.45313.03125c.14062.01562.20312.07812.20312.21875 0 .04687-.01562.125-.03125.20312L.85938-.70312c-.0625.26562-.125.39062-.32813.40625L.09375-.25ZM1.75-.60937c0-.03126 0-.07813.01563-.10938L2.71875-5c.07813-.28125.1875-.29687.84375-.29687 1.54688.01562 1.70313 1.07812 1.70313 1.75 0 .54687-.15625 1.35937-.53125 2C4.29688-.8125 3.625-.3125 2.39063-.3125c-.375 0-.64063-.04687-.64063-.29687m0 0"/><path id="s" d="M.34375-.85937c0 .34375.53125.95312 1.67188.95312 1.375 0 1.96875-.8125 1.96875-1.84375s-.625-1.71875-1.70313-1.71875c-.48437 0-.95312.20313-1.23437.4375l.17187-1.42187c.04688-.21875.07813-.25.25-.25h2.04688L3.75-5.34375l-.04687-.07812H.89063l-.07813.07812-.15625 2.70313L.89063-2.5c.32812-.39062.64062-.57812 1.07812-.57812.53125 0 1.0625.39062 1.0625 1.4375 0 .82812-.3125 1.4375-.96875 1.4375-.51562 0-.79687-.375-.96875-.90625-.0625-.125-.14062-.21876-.28125-.21876-.1875 0-.46875.17188-.46875.46876m0 0"/><path id="l" d="M.39063-1.95312c0 1.35937.67187 2.04687 1.89062 2.04687.5625 0 1.32813-.29687 1.5625-1.15625l-.25-.125c-.25.57813-.5625.85938-1.15625.85938-.96875 0-1.20312-1.01563-1.20312-1.76563 0-1.20312.48437-1.6875 1.04687-1.6875.35938 0 .59375.26563.76563.70313.04687.125.09375.20312.25.20312.17187 0 .48437-.09375.48437-.40625 0-.375-.53125-.79687-1.42187-.79687-1.46875 0-1.96875 1.04687-1.96875 2.125m0 0"/><path id="m" d="M.26563 0h1.96875v-.23437C1.65625-.28125 1.625-.29687 1.625-.70312v-1.90625c0-.20313 0-.3125.0625-.42188.15625-.32812.51563-.59375.95313-.59375.70312 0 .79687.5.79687 1v1.92188c0 .40625-.03125.42187-.60937.46875V0h1.96875v-.23437c-.57813-.04688-.60938-.0625-.60938-.46875v-1.90625c0-.20313.01563-.3125.0625-.4375.125-.32813.46875-.57813.92188-.57813.51562 0 .82812.28125.82812 1v1.92188c0 .40625-.03125.42187-.625.46875V0h1.98438v-.23437C6.78125-.28125 6.75-.29687 6.75-.70312v-2.07813c0-.8125-.4375-1.29687-1.20312-1.29687-.67188 0-1.14063.45312-1.42188.625-.20312-.375-.51562-.625-1.07812-.625-.625 0-1.125.42187-1.42188.625l-.07812-.625-1.25.21875v.1875l.3125.04687c.20312.03125.26562.07813.26562.35938v2.5625c0 .40625-.03125.42187-.60937.46875Zm0 0"/></defs><path fill="none" stroke="#000" stroke-miterlimit="10" stroke-width=".39404" d="M20.77734 51.73437H55.8125l-39.58984-34.6875Zm0 0"/><use xlink:href="#a" x="8.60553" y="64.08856"/><use xlink:href="#b" x="60.16255" y="64.08856"/><use xlink:href="#c" x="12.31748" y="12.69766"/><path fill="none" stroke="#000" stroke-miterlimit="10" stroke-width=".39404" d="M18.95312 37.85937h21.02344"/><use xlink:href="#d" x="6.24229" y="41.86825"/><use xlink:href="#e" x="44.32593" y="41.86231"/><use xlink:href="#f" x="4.10451" y="96.85294"/><use xlink:href="#g" x="10.08657" y="96.85294"/><use xlink:href="#h" x="18.12011" y="96.85294"/><use xlink:href="#i" x="25.62785" y="96.85294"/><use xlink:href="#j" x="29.99802" y="96.85294"/><use xlink:href="#k" x="33.16145" y="96.85294"/><use xlink:href="#l" x="39.35894" y="96.85294"/><use xlink:href="#m" x="43.37571" y="96.85294"/><use xlink:href="#f" x="4.10451" y="111.62932"/><use xlink:href="#n" x="10.08657" y="111.62932"/><use xlink:href="#h" x="17.77532" y="111.62932"/><use xlink:href="#o" x="25.28306" y="111.62932"/><use xlink:href="#l" x="31.47944" y="111.62932"/><use xlink:href="#m" x="35.49621" y="111.62932"/><use xlink:href="#f" x="4.10451" y="126.40694"/><use xlink:href="#p" x="10.08657" y="126.40694"/><use xlink:href="#h" x="19.28376" y="126.40694"/><use xlink:href="#i" x="26.7915" y="126.40694"/><use xlink:href="#j" x="31.16168" y="126.40694"/><use xlink:href="#q" x="34.3251" y="126.40694"/><use xlink:href="#l" x="40.52201" y="126.40694"/><use xlink:href="#m" x="44.53878" y="126.40694"/><use xlink:href="#f" x="4.10451" y="141.18332"/><use xlink:href="#r" x="10.08657" y="141.18332"/><use xlink:href="#h" x="18.55971" y="141.18332"/><use xlink:href="#o" x="26.06745" y="141.18332"/><use xlink:href="#j" x="30.43763" y="141.18332"/><use xlink:href="#s" x="33.60105" y="141.18332"/><use xlink:href="#l" x="39.79772" y="141.18332"/><use xlink:href="#m" x="43.81449" y="141.18332"/></svg>