<svg xmlns="http://www.w3.org/2000/svg" xmlns:xlink="http://www.w3.org/1999/xlink" width="163.729pt" height="108.402pt" viewBox="0 0 163.729 108.402"><defs><path id="a" d="M-.40625 0h4.73438l.125-.60937-1.15625-.10938c-.26563-.01562-.375-.15625-.375-.34375 0-.125.04687-.28125.10937-.4375.6875-1.32812 1.35938-2.6875 2.14063-4.09375H9.875l.51563 4.32813s-.10938.5-.5625.54687l-1.10938.10938L8.60938 0H13.75l.14063-.60937-.79688-.0625c-.65625-.0625-.73437-.35938-.85937-1.21875L10.70313-14.5h-1.5L5.6875-8.3125C4.60938-6.4375 2.875-3.32812 2.09375-2.07812 1.42188-.98437 1.0625-.76562.42188-.6875l-.6875.07813Zm6-6.40625 3.42188-6.14062.75 6.14062Zm0 0"/><path id="b" d="M0 0h6.35938c5.0625 0 6.07812-2.60937 6.07812-4.34375 0-2.21875-1.625-3.17187-3.15625-3.45312l.01563-.04688c2.78125-.34375 3.96875-1.92187 3.96875-3.5 0-1.70312-1-3.15625-4.85938-3.15625h-5.3125l-.125.60938 1.25.10937c.35938.03125.51563.1875.51563.51563 0 .125-.04688.3125-.09375.51562L2.15625-1.73437c-.15625.6875-.34375.9375-.85937 1l-1.1875.125Zm4.1875-1.60937c0-.15626.03125-.3125.07813-.46875l1.20312-5.375h.8125c2.07813 0 3.90625.60937 3.90625 3 0 1.85937-1.14062 3.71875-3.9375 3.71875-1.65625 0-2.0625-.32813-2.0625-.875M5.625-8.1875l1.09375-4.85937c.15625-.625.26563-.73438 1.67188-.73438 1.75 0 2.73437.89063 2.73437 2.35938 0 2.1875-1.82812 3.23437-4.14062 3.23437Zm0 0"/><path id="c" d="M1.09375-5.75c0 2.76563 1.35938 6.0625 6.54688 6.0625 1.5 0 2.92187-.20312 4.26562-.875l1.03125-3.34375h-.625C11.15625-1.8125 10.09375-.42187 7.51563-.42187c-2.4375 0-4.17188-1.5625-4.17188-4.79688 0-1.89062.48438-4.21875 1.5-5.89062 1.04688-1.75 2.6875-2.98438 4.9375-2.98438 2.65625 0 3.42188 1.23438 3.42188 3.53125h.64062l.76563-3.15625c-1.20313-.75-3.17188-1.10937-4.64063-1.10937-3.95312 0-6.21875 1.84375-7.45312 3.8125-1.15625 1.875-1.42188 3.8125-1.42188 5.26562m0 0"/><path id="d" d="M1.14063 0h3.5625v-.34375l-.79688-.0625c-.23437-.03125-.35937-.10937-.35937-.48437v-6.15625L3.46875-7.125l-2.3125.39063v.29687L2-6.3125c.21875.03125.29688.125.29688.45313v4.96875c0 .375-.10938.45312-.35938.48437l-.79687.0625Zm0 0"/><path id="g" d="M.32813-.14062.45313 0h4.51562L5.375-1.57812l-.34375-.0625c-.25.5625-.4375.64062-.85937.64062H1.5c.17188-.46875.65625-1.15625 1.71875-1.8125C4.32813-3.51562 5.0625-4.01562 5.0625-5.14062c0-1.46875-1-1.98438-2.20312-1.98438-1.40625 0-2.29688.78125-2.29688 1.5 0 .40625.46875.59375.71875.59375.20313 0 .3125-.10937.375-.34375.15625-.76562.53125-1.32812 1.125-1.32812.6875 0 .92188.59375.92188 1.34375 0 .92187-.39063 1.64062-1.40625 2.5C.92188-1.6875.45313-.90625.32813-.14062m0 0"/><path id="e" d="M.51563-2.51562C.51563-.76562 1.375.125 2.9375.125c.73438 0 1.73438-.375 2.01563-1.5l-.3125-.15625c-.3125.73438-.73438 1.10938-1.5 1.10938-1.25 0-1.53125-1.3125-1.53125-2.28125 0-1.5625.60937-2.1875 1.32812-2.1875.48438 0 .78125.34375 1 .90625.0625.17187.125.28125.32813.28125.21875 0 .60937-.14063.60937-.54688 0-.46875-.6875-1.01562-1.82812-1.01562-1.90625 0-2.53125 1.35937-2.53125 2.75m0 0"/><path id="f" d="M.32813 0h2.5625v-.29687c-.75-.0625-.78125-.07813-.78125-.60938v-2.45312c0-.26563 0-.42188.07812-.5625.20313-.42188.65625-.76563 1.23438-.76563.90625 0 1.01562.65625 1.01562 1.29688v2.48437c0 .53125-.03125.54688-.79687.60938V0H6.1875v-.29687c-.73437-.0625-.76562-.07813-.76562-.60938v-2.45312c0-.26563 0-.40625.07812-.57813.14063-.42187.59375-.75 1.1875-.75.65625 0 1.0625.35938 1.0625 1.29688v2.48437c0 .53125-.04687.54688-.79687.60938V0h2.5625v-.29687c-.75-.0625-.79688-.07813-.79688-.60938v-2.6875c0-1.04687-.5625-1.67187-1.5625-1.67187-.84375 0-1.46875.57812-1.82812.8125-.26563-.5-.65625-.8125-1.39063-.8125-.8125 0-1.46875.54687-1.82812.8125L2-5.26562l-1.60937.28125v.25l.39062.0625c.26563.03125.34375.07812.34375.45312v3.3125c0 .53125-.03125.54688-.79687.60938Zm0 0"/></defs><path fill="none" stroke="red" stroke-miterlimit="10" stroke-width=".39631" d="M124.88672 77.36328h-12.6836v-12.6836h12.6836v12.6836"/><path fill="none" stroke="#000" stroke-miterlimit="10" stroke-width=".39631" d="M124.88672 77.36328V29.79686L29.75388 77.36328Zm0 0"/><use xlink:href="#a" x="132.76471" y="99.73083"/><use xlink:href="#b" x="132.76471" y="21.92107"/><use xlink:href="#c" x="7.74438" y="100.06499"/><use xlink:href="#d" x="132.76471" y="57.08111"/><use xlink:href="#e" x="140.85607" y="57.08111"/><use xlink:href="#f" x="146.05033" y="57.08111"/><use xlink:href="#g" x="65.84587" y="92.36248"/><use xlink:href="#e" x="73.93947" y="92.36248"/><use xlink:href="#f" x="79.13373" y="92.36248"/></svg>