<svg xmlns="http://www.w3.org/2000/svg" xmlns:xlink="http://www.w3.org/1999/xlink" width="146.23pt" height="175.87pt" viewBox="0 0 146.23 175.87"><defs><path id="a" d="M0 0h3.53125c2.8125 0 3.375-1.45312 3.375-2.42187 0-1.21875-.89062-1.75-1.75-1.92188l.01563-.01562C6.71875-4.54687 7.375-5.42187 7.375-6.3125c0-.9375-.5625-1.73437-2.70312-1.73437H1.71875l-.07812.32812.70312.0625c.20313.01563.28125.09375.28125.28125q0 .1172-.04687.28125l-1.375 6.125C1.10937-.57812 1-.45312.71875-.40625L.0625-.32812Zm2.32813-.89062c0-.09376.01562-.17188.03125-.26563l.67187-2.98437H3.5c1.14063 0 2.15625.34375 2.15625 1.65625 0 1.04687-.625 2.07812-2.1875 2.07812-.92187 0-1.14062-.1875-1.14062-.48437M3.125-4.54687 3.73438-7.25c.07812-.34375.14062-.40625.92187-.40625.98438 0 1.53125.5 1.53125 1.3125 0 1.21875-1.01562 1.79688-2.3125 1.79688Zm0 0"/><path id="b" d="M.60938-3.20312c0 1.54687.75 3.375 3.64062 3.375.82813 0 1.625-.10938 2.35938-.48438l.57812-1.85937h-.34375C6.1875-1 5.60938-.23437 4.17188-.23437c-1.34375 0-2.3125-.875-2.3125-2.67188 0-1.04687.26562-2.32812.82812-3.26562.57813-.98438 1.5-1.65625 2.75-1.65625 1.46875 0 1.89063.67187 1.89063 1.95312h.35937l.42188-1.75c-.65625-.42187-1.75-.60937-2.57813-.60937-2.1875 0-3.45312 1.01562-4.125 2.10937C.75-5.07812.60938-4 .60938-3.20312m0 0"/><path id="c" d="M-.21875 0h2.625l.07813-.32812-.65625-.0625C1.6875-.40625 1.625-.48437 1.625-.59375c0-.0625.01563-.15625.0625-.23437.375-.75.75-1.5 1.1875-2.28125h2.60938l.29687 2.40625s-.0625.28124-.3125.3125l-.625.0625L4.78125 0h2.85938l.07812-.32812L7.26563-.375c-.35938-.03125-.40625-.1875-.46875-.67187l-.84375-7H5.125L3.15625-4.625c-.59375 1.04688-1.5625 2.78125-1.98437 3.46875-.375.60938-.57813.73438-.9375.76563l-.39063.0625Zm3.32813-3.5625L5-6.96875l.42188 3.40625Zm0 0"/><path id="d" d="M0 0h2.75l.0625-.32812L2.35938-.375C2-.39062 1.82813-.48437 1.82813-.73437c0-.60938.10937-.96875.23437-1.57813l1.07813-4.75h.01562L4.5625-.14062h.3125L9.42188-7.0625h.01562L8.01563-.96875c-.09375.40625-.20313.53125-.5.5625l-.625.07813L6.8125 0h3.17188l.0625-.32812L9.375-.40625c-.21875-.01562-.3125-.10937-.3125-.29687 0-.07813.01563-.17188.04688-.26563L10.5-7.09375c.10938-.39062.1875-.54687.48438-.57812l.65625-.04688.07812-.32812H9.4375C8.82813-6.98437 8.125-5.95312 7.42188-4.875l-2.0625 3.15625h-.03125l-.65625-3.23437C4.4375-6.01562 4.20313-7.01562 4-8.04687H1.75l-.07812.32812.6875.0625c.1875.01563.29687.10938.29687.3125 0 .07813-.01562.15625-.04687.25L1.51563-2.3125C1.375-1.70312 1.23437-1.25 1.10938-.875.96875-.5.75-.40625.42188-.375L.0625-.32812Zm0 0"/><path id="e" d="M0 0h3.3125l.0625-.32812-.8125-.07813c-.20312-.01562-.28125-.10937-.28125-.28125 0-.07812.01563-.17187.03125-.28125l.53125-2.29687h.85938c1 0 1.90625-.125 2.57812-.53125.75-.46875 1.17188-1.26563 1.17188-2.125 0-.79688-.35938-1.40625-.9375-1.71875-.54688-.3125-1.28125-.40625-2.0625-.40625H1.73438l-.09376.32812.70313.04688c.20313.01562.28125.10937.28125.3125 0 .07812-.01562.15625-.03125.26562L1.1875-.96875c-.09375.40625-.20312.53125-.48437.5625L.0625-.32812Zm3-3.92187c0-.0625.01563-.14063.03125-.23438L3.73438-7.25c.07812-.29687.15625-.40625.75-.40625 1.15625 0 1.75.54688 1.75 1.53125 0 1.67188-.9375 2.45313-2.5 2.45313-.59375 0-.73438-.0625-.73438-.25m0 0"/><path id="f" d="M.04688 0H2.5625c1.89063 0 2.42188-.85937 2.42188-1.67187 0-.85938-.64063-1.23438-1.23438-1.34375l.01563-.01563c1.07812-.125 1.54687-.73437 1.54687-1.35937 0-.6875-.40625-1.25-1.95312-1.25H1.25l-.0625.25.46875.04687c.14063.01563.20313.07813.20313.20313 0 .04687-.01563.125-.03126.21875L.875-.71875C.8125-.4375.73438-.32812.53125-.29687L.09375-.25Zm1.73437-.64062c0-.0625 0-.125.01563-.1875L2.26563-2.875h.3125c.78125 0 1.40625.26563 1.40625 1.125 0 .73438-.42188 1.4375-1.48438 1.4375-.57812 0-.71875-.125-.71875-.32812m.54688-2.54688L2.75-5.04687c.0625-.25.09375-.28125.59375-.28125.64063 0 1.03125.3125 1.03125.89062 0 .8125-.65625 1.25-1.5625 1.25Zm0 0"/><path id="g" d="M.23438-2.23437C.23438-1.25.6875.125 2.79688.125c.57812 0 1.17187-.07812 1.6875-.34375l.40625-1.375H4.625C4.15625-.76562 3.75-.1875 2.76563-.1875 1.875-.1875 1.23438-.76562 1.23438-2c0-1.34375.60937-3.45312 2.4375-3.45312 1.01562 0 1.28125.53125 1.28125 1.39062h.28125l.29687-1.28125c-.46875-.29687-1.25-.42187-1.79687-.42187-2.5 0-3.5 1.84375-3.5 3.53125m0 0"/><path id="h" d="M.6875-1.125h4.48438v-.54687H.6875Zm0-1.8125h4.48438v-.54687H.6875Zm0 0"/><path id="i" d="M.89063 0h2.71875v-.25l-.64063-.0625c-.1875-.01562-.26562-.07812-.26562-.375V-5.5l-.0625-.04687-1.75.29687v.21875l.70312.09375c.15625.03125.20313.09375.20313.34375V-.6875c0 .29688-.07813.35938-.26563.375L.89063-.25Zm0 0"/><path id="j" d="M.34375-.85937c0 .34375.53125.95312 1.6875.95312C3.42188.09375 4-.73437 4-1.75c0-1.04687-.625-1.73437-1.70312-1.73437-.48438 0-.96875.20312-1.23438.4375l.17188-1.42188c.03124-.23437.0625-.26562.23437-.26562h2.0625l.23438-.64063-.04688-.07812H.89063l-.0625.07812-.17188 2.71875.23438.14063c.32812-.39063.65625-.57813 1.09375-.57813.51562 0 1.0625.39063 1.0625 1.4375 0 .82813-.3125 1.45313-.96875 1.45313-.53125 0-.79688-.375-.98438-.90625C1.04688-1.25.95313-1.32813.8125-1.32813c-.1875 0-.46875.17188-.46875.46876m0 0"/><path id="m" d="M-.15625 0h1.85938L1.75-.25l-.45312-.04687c-.09376 0-.15626-.0625-.15626-.14063 0-.14062.84376-1.67187.85938-1.70312h1.76563l.1875 1.625S3.92188-.3125 3.75-.29688L3.3125-.25 3.26563 0H5.375l.04688-.25-.3125-.03125c-.25-.01562-.28125-.1875-.3125-.5l-.57813-4.85937h-.67187l-1.375 2.4375c-.4375.75-1.10938 1.96875-1.40625 2.42187-.23438.375-.35938.46875-.625.5l-.25.03125Zm2.32813-2.46875 1.28125-2.32812.28125 2.32812Zm0 0"/><path id="n" d="m.32813-4.23437.25.01562.07812-.17187c.09375-.21875.20313-.34375.5625-.34375h2.1875c-.07812.28125-.25.8125-.90625 1.70312-.70312.95313-1.15625 1.85938-1.15625 2.75 0 .3125.21875.375.5.375.25 0 .45313-.04687.45313-.35937 0-1.1875.20312-1.98438.59375-2.64063.59375-.96875 1-1.48437 1.23437-2.45312l-.07812-.09375H.60938Zm0 0"/><path id="o" d="M.32813-1.5c0 .92188.60937 1.59375 1.875 1.59375 1.26562 0 1.875-.67187 1.875-1.59375 0-.8125-.48438-1.28125-1.0625-1.4375.48437-.125.875-.54687.875-1.20312 0-.89063-.70313-1.40625-1.6875-1.40625C1.21875-5.54687.5-5.03125.5-4.14062c0 .65625.42188 1.07812.90625 1.20312C.82813-2.78125.32813-2.3125.32813-1.5m.92187.03125c0-.73437.34375-1.26562.95313-1.26562.60937 0 .9375.53125.9375 1.26562 0 .71875-.29688 1.26563-.9375 1.26563C1.5625-.20312 1.25-.75 1.25-1.46875m.15625-2.6875c0-.625.28125-1.07812.79688-1.07812.51562 0 .79687.45312.79687 1.07812 0 .5625-.25 1.09375-.79687 1.09375-.53125 0-.79688-.53125-.79688-1.09375m0 0"/><path id="p" d="M.04688 0h1.9375l.04687-.25-.34375-.03125c-.23437-.01562-.35937-.07812-.35937-.26562 0-.35938.07812-.67188.1875-1.15625l.70312-3.20313h.01563l.9375 4.8125h.29687l3.04688-4.8125h.01562L5.5625-.71875c-.0625.28125-.14062.40625-.34375.42188L4.79688-.25l-.0625.25h2.28125l.04687-.25-.45312-.04687c-.15625 0-.20313-.07813-.20313-.20313 0-.0625.01563-.14062.03125-.21875l.95313-4.20312c.0625-.28125.125-.40625.34375-.42188l.4375-.04687.0625-.25H6.51563C6.125-4.92187 5.65625-4.21875 5.20313-3.5l-1.375 2.17188h-.03125l-.4375-2.20313C3.20313-4.25 3.0625-4.9375 2.9375-5.64062H1.25l-.04687.25.45312.04687c.14063.01563.20313.07813.20313.20313 0 .0625-.01563.14062-.03126.21875l-.73437 3.21875c-.10937.48437-.1875.79687-.28125 1.0625C.73438-.375.57813-.29687.35938-.28125L.09375-.25Zm0 0"/><path id="q" d="m.17188-1.64062.09375.1875h2.1875V-.625c0 .26563-.10938.29688-.28125.32813L1.64063-.25V0h2.25v-.25l-.375-.04687c-.17188-.03125-.23438-.0625-.23438-.32813v-.82812h.82813V-1.875h-.82813v-3.57812h-.70312C1.79688-4.28125.90625-2.90625.17188-1.64062M.82813-1.875c.45312-.84375 1.01562-1.76562 1.625-2.71875V-1.875Zm0 0"/><path id="r" d="M.04688 0h2.40625L2.5-.25l-.5625-.04687C1.79688-.3125 1.75-.375 1.75-.5c0-.0625 0-.125.01563-.21875L2.125-2.25h.57813c2.375 0 2.65625-1.26562 2.65625-1.875 0-1.51562-1.65625-1.51562-2.15625-1.51562H1.25l-.04687.25.46875.04687c.125 0 .1875.07813.1875.20313 0 .0625-.01563.125-.03126.21875L.85939-.71875c-.0625.28125-.125.40625-.34375.42188L.09375-.25Zm2.1875-2.71875c0-.0625.01562-.09375.03125-.15625L2.75-5.04687c.0625-.21875.10938-.28125.51563-.28125.73437 0 1.125.35937 1.125 1.03125 0 1.07812-.59375 1.73437-1.67188 1.73437-.39062 0-.48437-.03125-.48437-.15625m0 0"/><path id="s" d="M.34375-2.54687C.34375-.8125.95313.09375 2.25.09375c1.26563 0 1.90625-.76562 1.90625-1.84375 0-1.10937-.70312-1.70312-1.5625-1.70312-.60937 0-1.07812.39062-1.3125.6875 0-1.51563.40625-2.46875 1.14063-2.46875.375 0 .625.3125.75.79687.03125.10938.10937.20313.25.20313.1875 0 .48437-.15625.48437-.40625 0-.34375-.42187-.90625-1.42187-.90625-1.32813 0-2.14063 1-2.14063 3m.9375.625c0-.48438.34375-1.0625.98438-1.0625.5 0 .95312.4375.95312 1.375 0 .82812-.28125 1.40625-.9375 1.40625-.67187 0-1-.76563-1-1.71875m0 0"/><path id="k" d="M.40625-1.95312c0 1.35937.65625 2.04687 1.89063 2.04687.5625 0 1.34375-.29687 1.5625-1.17187l-.25-.10938c-.25.57813-.5625.85938-1.15625.85938-.98438 0-1.20313-1.01563-1.20313-1.78125 0-1.21875.46875-1.70313 1.04688-1.70313.35937 0 .59375.28125.76562.71875.04688.125.10938.20313.26563.20313s.46875-.09375.46875-.40625c0-.375-.53125-.79688-1.42188-.79688-1.48437 0-1.96875 1.04688-1.96875 2.14063m0 0"/><path id="l" d="M.26563 0H2.25v-.23437c-.57812-.04688-.60937-.0625-.60937-.48438V-2.625c0-.20312 0-.3125.0625-.42187.15624-.32813.51562-.60938.95312-.60938.70313 0 .79688.51563.79688 1.01563v1.92187c0 .42188-.03125.4375-.625.48438V0h2v-.23437c-.59375-.04688-.60938-.0625-.60938-.48438V-2.625c0-.20312 0-.3125.0625-.4375.10938-.32812.46875-.59375.92188-.59375.51562 0 .82812.29688.82812 1.01563v1.92187c0 .42188-.03125.4375-.625.48438V0h2v-.23437c-.57812-.04688-.60937-.0625-.60937-.48438v-2.07812c0-.8125-.45313-1.29688-1.21875-1.29688-.67188 0-1.14063.4375-1.4375.625-.1875-.375-.5-.625-1.07813-.625-.625 0-1.14062.42188-1.42187.625l-.07813-.625-1.26562.20313v.20312l.3125.04688c.20312.03125.26562.0625.26562.35937v2.5625c0 .42188-.03125.4375-.60937.48438Zm0 0"/></defs><path fill="none" stroke="#000" stroke-miterlimit="10" stroke-width=".39641" d="m19.48047 16.95312 109.625 29.3711-113.14063 9.13281L90.1836 71.3125Zm0 0"/><use xlink:href="#a" x="7.48558" y="12.57681"/><use xlink:href="#b" x="133.48113" y="41.77506"/><use xlink:href="#c" x="60.42582" y="47.19254"/><use xlink:href="#d" x="94.56008" y="83.74108"/><use xlink:href="#e" x="4.12926" y="67.88358"/><use xlink:href="#f" x="11.6974" y="111.65808"/><use xlink:href="#g" x="17.55077" y="111.65808"/><use xlink:href="#h" x="25.3119" y="111.65808"/><use xlink:href="#i" x="32.8649" y="111.65808"/><use xlink:href="#j" x="37.26143" y="111.65808"/><use xlink:href="#k" x="43.49621" y="111.65808"/><use xlink:href="#l" x="47.5372" y="111.65808"/><use xlink:href="#m" x="11.6974" y="126.52356"/><use xlink:href="#f" x="17.67217" y="126.52356"/><use xlink:href="#h" x="25.20784" y="126.52356"/><use xlink:href="#n" x="32.76084" y="126.52356"/><use xlink:href="#k" x="38.99491" y="126.52356"/><use xlink:href="#l" x="43.0359" y="126.52356"/><use xlink:href="#m" x="11.6974" y="141.38903"/><use xlink:href="#g" x="17.67217" y="141.38903"/><use xlink:href="#h" x="25.4333" y="141.38903"/><use xlink:href="#o" x="32.98631" y="141.38903"/><use xlink:href="#k" x="39.21998" y="141.38903"/><use xlink:href="#l" x="43.26097" y="141.38903"/><use xlink:href="#m" x="11.6974" y="156.2545"/><use xlink:href="#p" x="17.67217" y="156.2545"/><use xlink:href="#h" x="28.13018" y="156.2545"/><use xlink:href="#q" x="35.68319" y="156.2545"/><use xlink:href="#k" x="41.91703" y="156.2545"/><use xlink:href="#l" x="45.95802" y="156.2545"/><use xlink:href="#m" x="11.6974" y="171.11998"/><use xlink:href="#r" x="17.67217" y="171.11998"/><use xlink:href="#h" x="25.25119" y="171.11998"/><use xlink:href="#s" x="32.8042" y="171.11998"/><use xlink:href="#k" x="39.03844" y="171.11998"/><use xlink:href="#l" x="43.07943" y="171.11998"/></svg>