<svg xmlns="http://www.w3.org/2000/svg" xmlns:xlink="http://www.w3.org/1999/xlink" width="109.757pt" height="92.47pt" viewBox="0 0 109.757 92.47"><defs><path id="a" d="M0 0h2.75l.0625-.32812L2.34375-.375C2-.39062 1.8125-.48437 1.8125-.73437c0-.60938.125-.96875.25-1.57813L3.125-7.04687h.03125L4.54688-.14062H4.875l4.53125-6.90625h.03125L8-.96875c-.09375.40625-.20312.53125-.48437.5625L6.875-.32812 6.8125 0h3.15625l.0625-.32812-.67187-.07813c-.21875-.01562-.29688-.10937-.29688-.29687 0-.07813.01563-.15626.03125-.26563L10.5-7.07812c.09375-.39063.1875-.5625.48438-.57813l.64062-.04687.07813-.34375H9.4375c-.625 1.0625-1.3125 2.10937-2.03125 3.1875L5.35938-1.71875h-.03125l-.65625-3.23437C4.4375-6 4.1875-7 4-8.04687H1.75l-.07812.34375.67187.0625c.20313 0 .29688.10937.29688.29687 0 .07813 0 .17188-.03125.26563L1.51563-2.3125C1.375-1.70312 1.23437-1.25 1.09375-.85937.96875-.5.75-.40625.42188-.375L.0625-.32812Zm0 0"/><path id="b" d="M0 0h2.75l.0625-.32812L2.34375-.375C2-.39062 1.8125-.46875 1.8125-.71875c0-.625.125-.98437.25-1.59375l1.09375-4.76562h.03125A710 710 0 0 1 6.42188 0h.75l1.3125-5.73437c.125-.60938.26562-1.0625.40625-1.4375.125-.375.34375-.46875.6875-.5l.35937-.03125L10-8.04687H7.25l-.0625.34375.45313.04687C8-7.625 8.1875-7.51562 8.1875-7.25c0 .42188-.125.90625-.25 1.51563l-.95312 4.21875H6.9375c-1.01562-2.1875-2-4.34375-2.98437-6.53125H1.75l-.07812.34375.67187.0625c.20313 0 .29688.10937.29688.29687 0 .07813 0 .17188-.03125.26563L1.51563-2.3125C1.375-1.70312 1.23437-1.25 1.09375-.85937.96875-.5.76563-.40625.42188-.375L.0625-.32812Zm0 0"/><path id="c" d="M.375-3.14062c0 1.92187 1.09375 3.3125 3.40625 3.3125 2.0625 0 3.0625-1.04688 3.70313-2.20313.64062-1.14062.75-2.32812.75-2.78125 0-2.39062-1.45313-3.42187-3.375-3.42187-1.85938 0-3 1.03125-3.6875 2.14062C.53125-5.01562.375-3.90625.375-3.14062m1.21875.46875c0-.98438.1875-2.0625.71875-3.1875.53125-1.10938 1.35938-1.96875 2.59375-1.96875C6.1875-7.82812 7-7.0625 7-5.42187c0 .67187-.0625 1.625-.54687 2.85937-.46875 1.25-1.26563 2.32813-2.78125 2.32813-1.26563 0-2.07813-.8125-2.07813-2.4375m0 0"/><path id="d" d="M.28125-1.96875c0 1.23438.64063 2.0625 2.125 2.0625.40625 0 1.01563-.07812 1.35938-.28125l.07812-1.14062h-.23437c-.21875.64062-.46875 1.15625-1.125 1.15625-1.03125 0-1.17188-1.23438-1.17188-1.89063 0-.4375.07813-1.78125 1.125-1.78125.75 0 .95313.60938 1.07813 1.03125H3.75v-1.04687c-.35937-.20313-.96875-.25-1.25-.25-.82812 0-1.375.21875-1.71875.60937-.35937.39063-.5.9375-.5 1.53125m0 0"/><path id="e" d="m.65625-3.1875.14063.15625.71875-.53125c.09374-.0625.15624-.125.21874-.125s.14063.0625.21876.125l.73437.53125.14063-.15625L2-4.17187c-.09375-.09375-.1875-.17188-.26562-.17188s-.17188.07813-.25.17188ZM.23438-1.42187c0 .92187.4375 1.48437 1.5 1.48437S3.25-.5 3.25-1.42187c0-.92188-.45312-1.5-1.51562-1.5s-1.5.57812-1.5 1.5m.92187 0c0-.78125.15625-1.23438.57813-1.23438.40625 0 .57812.45313.57812 1.23438S2.14063-.20312 1.73438-.20312c-.42188 0-.57813-.4375-.57813-1.21875m0 0"/><path id="f" d="M.21875-2.5625H.5625v1.875c0 .53125.39063.75.71875.75.23438 0 .59375-.09375.92188-.29687l-.0625-.1875c-.07813.03125-.20313.0625-.32813.0625-.21875 0-.375-.17188-.375-.54688V-2.5625h.60938v-.29687H1.4375v-.71875h-.34375l-.5.71875h-.375Zm0 0"/><path id="g" d="m1.125-3.15625.125.1875 1.0625-.59375c.21875-.125.39063-.25.39063-.39062 0-.15625-.15625-.35938-.29688-.35938-.10937 0-.21875.07813-.4375.29688ZM.23438-1.42187C.23438-.625.57813.0625 1.65625.0625c.6875 0 1.0625-.32812 1.26563-.84375l-.21875-.10937C2.53125-.5625 2.29688-.375 1.9375-.375c-.57812 0-.78125-.48437-.78125-1.09375h1.5c.21875 0 .3125-.04687.3125-.23437 0-.48438-.1875-1.21875-1.29687-1.21875-1.04688 0-1.4375.6875-1.4375 1.5M1.15625-1.75c0-.42187.10938-.90625.48438-.90625.35937 0 .40625.45313.40625.71875 0 .15625-.03125.1875-.17188.1875Zm0 0"/><path id="h" d="M.14063 0h1.64062v-.21875c-.34375-.01562-.375-.04687-.375-.28125v-3.78125l-.04687-.03125-1.17188.15625v.20313l.20313.03125c.07812.03125.125.07812.125.3125V-.5c0 .23438-.04688.26563-.375.28125Zm0 0"/><path id="i" d="M.23438-1.42187C.23438-.625.57813.0625 1.65625.0625c.6875 0 1.0625-.32812 1.26563-.84375l-.21875-.10937C2.53125-.5625 2.29688-.375 1.9375-.375c-.57812 0-.78125-.48437-.78125-1.09375h1.5c.21875 0 .3125-.04687.3125-.23437 0-.48438-.1875-1.21875-1.29687-1.21875-1.04688 0-1.4375.6875-1.4375 1.5M1.15625-1.75c0-.42187.10938-.90625.48438-.90625.35937 0 .40625.45313.40625.71875 0 .15625-.03125.1875-.17188.1875Zm0 0"/><path id="j" d="M.14063 1.10938v.23437H1.875v-.23437c-.42187-.01563-.46875-.03126-.46875-.28126V0c.09375.04688.29688.0625.45313.0625.85937 0 1.54687-.29687 1.54687-1.5625 0-.96875-.5-1.42187-1.04687-1.42187-.40625 0-.67188.1875-.95313.40625l-.10937-.40625L.1875-2.75v.20313l.20313.03125c.07812.01562.125.0625.125.29687V.82813c0 .25-.04688.26562-.375.28124m1.26562-2v-.90625c0-.125 0-.25.03125-.32813.07813-.21875.23438-.34375.46875-.34375.28125 0 .57813.15625.57813 1.09375 0 .71875-.15625 1.17188-.60938 1.17188-.25 0-.39062-.125-.45312-.39063-.01563-.07812-.01563-.17187-.01563-.29687m0 0"/><path id="k" d="m.17188-2.54687.20312.03125C.46875-2.5.5-2.45312.5-2.21875v1.42188C.5-.125.92188.0625 1.34375.0625c.5 0 .79688-.26562 1.03125-.39062L2.4375 0h1.20313v-.21875c-.34375-.01562-.375-.04687-.375-.28125v-2.39062l-.04688-.03125L2.04688-2.75v.20313l.20312.03125c.09375.01562.125.0625.125.29687v1.23438c0 .09374 0 .23437-.03125.32812-.0625.125-.21875.26563-.46875.26563-.3125 0-.48437-.17188-.48437-.625v-1.875l-.04688-.03125L.17188-2.75Zm0 0"/><path id="l" d="m.25-1.07812.07813.875C.54688 0 .98438.0625 1.3125.0625 2.01563.0625 2.5-.23437 2.5-.875c0-.5-.3125-.73437-.84375-.9375-.34375-.125-.59375-.26562-.59375-.5 0-.1875.125-.34375.375-.34375.29688 0 .54688.28125.65625.71875h.21875v-.78125c-.25-.14062-.57812-.20312-.875-.20312-.71875 0-1.15625.32812-1.15625.92187 0 .42188.34375.70313.85938.89063.29687.10937.57812.28124.57812.5625 0 .21874-.14062.34375-.39062.34375-.39063 0-.70313-.39063-.85938-.875Zm0 0"/><path id="m" d="M.23438-1.42187c0 .92187.4375 1.48437 1.5 1.48437S3.25-.5 3.25-1.42187c0-.92188-.45312-1.5-1.51562-1.5s-1.5.57812-1.5 1.5m.92187 0c0-.78125.15625-1.23438.57813-1.23438.40625 0 .57812.45313.57812 1.23438S2.14063-.20312 1.73438-.20312c-.42188 0-.57813-.4375-.57813-1.21875m0 0"/><path id="n" d="M.1875 0H1.75v-.21875l-.10937-.01562C1.51563-.25 1.4375-.26563 1.4375-.45312v-1.39063c0-.125.01563-.26562.0625-.34375.07813-.14062.23438-.28125.46875-.28125.29688 0 .45313.17188.46875.53125v1.48438c0 .1875-.0625.20312-.1875.21875l-.125.01562V0h1.5625v-.21875c-.32812-.01562-.375-.04687-.375-.28125v-1.51562c-.01562-.54688-.28125-.90625-.875-.90625-.34375 0-.625.17187-1 .40625l-.07812-.40625L.21874-2.75v.20313l.20313.03125c.09375.01562.14062.0625.14062.29687V-.5c0 .23438-.04687.26563-.375.28125Zm0 0"/><path id="o" d="M.1875.5625c0 .5625.60938.84375 1.4375.84375.25 0 .67188-.04687.96875-.21875.3125-.15625.53125-.46875.53125-.89062 0-.6875-.53125-.90625-1.15625-.90625H1.4375c-.28125 0-.39062-.09376-.39062-.20313 0-.125.14062-.1875.23437-.20312h.26563c.6875 0 1.29687-.25 1.29687-.9375 0-.17188-.0625-.35938-.14062-.45313l.39062-.0625.10938-.45312-.04688-.04688-.75.23438c-.1875-.10938-.5-.1875-.82812-.1875-1.04688 0-1.34375.54687-1.34375.98437 0 .48438.35937.78125.70312.84375-.375.09375-.625.3125-.625.54688 0 .25.28125.48437.54688.54687C.60938.0625.1875.17188.1875.5625M.95313.5c0-.15625.07812-.26562.15624-.32812C1.1875.125 1.375.09375 1.625.09375c.5 0 .79688.10938.79688.46875 0 .40625-.32813.57813-.71875.57813S.95313.92187.95313.5m.1875-2.45312c0-.48438.20312-.70313.4375-.70313.23437 0 .4375.21875.4375.70313 0 .40625-.17188.67187-.4375.67187-.25 0-.4375-.26562-.4375-.67187m0 0"/><path id="p" d="M0-3.14062h.15625c.125-.5 1.25-.9375 2.23438-.9375h.46875v-.51563h-.46875C1.4375-4.59375 0-4.17187 0-3.32812Zm0 0"/><path id="q" d="M0-4.07812h2.32813v-.51563H0Zm0 0"/><path id="r" d="M0-4.07812c1.90625 0 2.59375-.48438 2.78125-.95313.26563.45313.8125.95313 2.79688.95313v-.51563c-2.09375 0-2.54688-.5625-2.71875-.9375h-.15625c-.15625.375-.625.9375-2.70313.9375Zm0 0"/><path id="s" d="M0-4.07812h.46875c.98438 0 2.10938.4375 2.23438.9375h.15625v-.1875c0-.84375-1.4375-1.26563-2.39063-1.26563H0Zm0 0"/><path id="t" d="M.17188-.07812.25 0h2.51563l.21875-.875-.1875-.03125c-.14063.3125-.25.34375-.48438.34375H.82813c.09374-.25.375-.625.95312-1 .625-.39062 1.03125-.67187 1.03125-1.29687 0-.8125-.5625-1.09375-1.23437-1.09375-.78125 0-1.26563.4375-1.26563.82812 0 .21875.25.32813.40625.32813.10938 0 .17188-.0625.20313-.1875.09374-.42188.29687-.73438.625-.73438.375 0 .5.32813.5.75 0 .5-.20313.90625-.76563 1.39063C.51563-.9375.25-.5.17188-.07812m0 0"/><path id="u" d="m.29688.73438.15625.125c.28125-.28126.78125-.70313.78125-1.15625 0-.3125-.17188-.5625-.45313-.5625-.23437 0-.34375.17187-.34375.32812 0 .20313.17188.32813.17188.5625 0 .25-.125.5-.3125.70313m0 0"/><path id="v" d="m.125-1.17187.07813.14062h1.53125v.59375c0 .17188-.0625.20313-.17188.21875l-.375.03125V0h1.64063v-.1875L2.5625-.21875c-.125-.01562-.15625-.04687-.15625-.21875v-.59375h.57813v-.32812h-.57813v-2.53125h-.5625C1.26563-3.03125.65625-2.0625.125-1.17187m.5-.1875C.95313-1.9375 1.32813-2.57812 1.73438-3.25v1.89063Zm0 0"/><path id="y" d="M.625 0h1.98438v-.1875l-.4375-.04687c-.14063 0-.20313-.04688-.20313-.26563v-3.42187l-.03125-.03125L.64063-3.75v.17188l.46875.0625c.125.03125.17187.07812.17187.26562V-.5c0 .21875-.0625.26563-.20312.26563L.625-.1875Zm0 0"/><path id="z" d="m.23438-3 .1875.03125.04687-.125C.54688-3.23437.625-3.32812.875-3.32812h1.54688c-.04688.20312-.1875.59375-.65625 1.21875-.48438.65625-.8125 1.28125-.8125 1.875 0 .26562.17187.29687.39062.29687.17188 0 .35938-.03125.35938-.28125 0-.8125.14062-1.39062.40625-1.84375.45312-.73437.71875-1.10937.875-1.76562l-.0625-.0625H.45313Zm0 0"/><path id="A" d="M.23438-1.84375C.23438-.625.65625.0625 1.64063.0625c.9375 0 1.375-.57812 1.375-1.32812 0-.79688-.5-1.20313-1.125-1.20313-.42188 0-.75.26563-.9375.48438.01562-.90625.23437-1.73438.78125-1.73438.26562 0 .4375.21875.53125.57813.03125.07812.07812.15625.20312.15625s.35938-.10938.35938-.3125c0-.25-.3125-.65625-1.04688-.65625-.95312 0-1.54687.70312-1.54687 2.10937m.71875.46875c0-.34375.23437-.71875.67187-.71875.34375 0 .67188.28125.67188.95313 0 .57812-.1875.98437-.64063.98437-.46875 0-.70312-.54687-.70312-1.21875m0 0"/><path id="w" d="M.28125-1.39062C.28125-.42187.76563.0625 1.64063.0625c.40625 0 .95312-.20312 1.10937-.82812l-.17187-.07813c-.17188.40625-.40625.60938-.82813.60938-.70312 0-.85937-.71875-.85937-1.26563 0-.875.34375-1.21875.75-1.21875.26562 0 .42187.1875.54687.51563.03125.09375.07813.14062.1875.14062.10938 0 .32813-.07812.32813-.29687 0-.26563-.375-.5625-1-.5625-1.0625 0-1.42188.75-1.42188 1.53125m0 0"/><path id="x" d="M.1875 0h1.42188v-.17187C1.1875-.20313 1.17188-.20313 1.17188-.5v-1.375c0-.14062 0-.21875.04687-.29687.10938-.23438.35938-.4375.6875-.4375.5 0 .5625.375.5625.73437V-.5c0 .29688-.03125.29688-.45312.32813V0H3.4375v-.17187C3.03125-.20313 3-.20313 3-.5v-1.375c0-.14062.01563-.21875.04688-.3125.09375-.23437.34375-.42187.67187-.42187.35938 0 .57813.20312.57813.73437V-.5c0 .29688-.01563.29688-.4375.32813V0h1.42187v-.17187C4.875-.20313 4.84375-.20313 4.84375-.5V-2c0-.57812-.3125-.92187-.85937-.92187-.48438 0-.82813.3125-1.03125.45312-.14063-.28125-.35938-.45312-.76563-.45312-.45312 0-.8125.29687-1.01562.45312l-.0625-.45312-.89063.15625v.14062l.21875.03125c.14063.01563.1875.04688.1875.25V-.5c0 .29688-.01562.29688-.4375.32813Zm0 0"/></defs><path fill="none" stroke="#000" stroke-miterlimit="10" stroke-width=".39623" d="M88.91797 16.55078 19.86329 65.875l56.37108 9.16015Zm0 0"/><use xlink:href="#a" x="93.29133" y="12.17522"/><use xlink:href="#b" x="5.85647" y="78.29624"/><use xlink:href="#c" x="80.60803" y="87.64267"/><use xlink:href="#d" x="4.31928" y="38.61443"/><use xlink:href="#e" x="8.38688" y="38.61443"/><use xlink:href="#f" x="11.84774" y="38.61443"/><use xlink:href="#g" x="14.05799" y="38.61443"/><use xlink:href="#h" x="18.40418" y="38.61443"/><use xlink:href="#i" x="20.26153" y="38.61443"/><use xlink:href="#j" x="24.61392" y="38.61443"/><use xlink:href="#h" x="28.25433" y="38.61443"/><use xlink:href="#k" x="30.11168" y="38.61443"/><use xlink:href="#l" x="33.83257" y="38.61443"/><use xlink:href="#h" x="37.76396" y="38.61443"/><use xlink:href="#m" x="39.62131" y="38.61443"/><use xlink:href="#n" x="43.08217" y="38.61443"/><use xlink:href="#o" x="46.85259" y="38.61443"/><use xlink:href="#p" x="18.04437" y="46.19846"/><use xlink:href="#q" x="20.52083" y="46.19846"/><use xlink:href="#q" x="22.45248" y="46.19846"/><use xlink:href="#r" x="24.38412" y="46.19846"/><use xlink:href="#q" x="29.56613" y="46.19846"/><use xlink:href="#q" x="31.49777" y="46.19846"/><use xlink:href="#s" x="33.4356" y="46.19846"/><use xlink:href="#t" x="18.04437" y="47.30089"/><use xlink:href="#u" x="21.23282" y="47.30089"/><use xlink:href="#v" x="23.54212" y="47.30089"/><use xlink:href="#w" x="28.03709" y="47.30089"/><use xlink:href="#x" x="30.92218" y="47.30089"/><use xlink:href="#y" x="86.94968" y="47.34265"/><use xlink:href="#u" x="90.13813" y="47.34265"/><use xlink:href="#z" x="92.44744" y="47.34265"/><use xlink:href="#w" x="96.94365" y="47.34265"/><use xlink:href="#x" x="99.82873" y="47.34265"/><use xlink:href="#y" x="38.92593" y="78.78444"/><use xlink:href="#u" x="42.11438" y="78.78444"/><use xlink:href="#A" x="44.42369" y="78.78444"/><use xlink:href="#w" x="48.91866" y="78.78444"/><use xlink:href="#x" x="51.80374" y="78.78444"/></svg>