<svg xmlns="http://www.w3.org/2000/svg" xmlns:xlink="http://www.w3.org/1999/xlink" width="328.748" height="218.728" viewBox="0 0 328.748 218.728"><defs><path id="a" d="M-.40625 0h4.75l.14063-.60937L3.3125-.71875c-.26562-.01562-.375-.15625-.375-.35937 0-.10938.04688-.26563.10938-.42188.6875-1.34375 1.35937-2.70312 2.14062-4.125h4.73438l.51562 4.34375s-.10937.51563-.5625.5625L8.75-.60937 8.64063 0h5.17187l.14063-.60937-.8125-.0625c-.64063-.0625-.73438-.35938-.84375-1.23438L10.75-14.54687h-1.5l-3.54687 6.1875c-1.0625 1.89062-2.8125 5.01562-3.59375 6.28125C1.4375-.98437 1.07813-.76562.42188-.6875l-.6875.07813ZM5.625-6.42187l3.42188-6.1875.76562 6.1875Zm0 0"/><path id="b" d="M0 0h6.375C11.46875 0 12.5-2.625 12.5-4.35937c0-2.21875-1.64062-3.1875-3.1875-3.48438l.03125-.03125c2.79688-.34375 3.98438-1.9375 3.98438-3.51562 0-1.70313-1.01563-3.15625-4.89063-3.15625H3.10938l-.125.59375 1.25.10937c.35937.03125.51562.1875.51562.51563 0 .14062-.04687.3125-.09375.51562L2.17188-1.75c-.15625.70313-.35938.9375-.875 1.01563l-1.1875.125Zm4.20313-1.60937c0-.15626.03125-.3125.07812-.46875l1.20313-5.40625h.82812c2.07813 0 3.92188.60937 3.92188 3 0 1.89062-1.14063 3.75-3.96875 3.75-1.65625 0-2.0625-.34375-2.0625-.875m1.4375-6.60938 1.09375-4.875c.15625-.625.28125-.75 1.6875-.75 1.76562 0 2.75.90625 2.75 2.375 0 2.20313-1.82813 3.25-4.15625 3.25Zm0 0"/><path id="c" d="M1.09375-5.78125C1.09375-3 2.46875.3125 7.6875.3125c1.5 0 2.92188-.20312 4.26563-.875l1.03125-3.35937h-.625c-1.17188 2.10937-2.21875 3.5-4.8125 3.5-2.4375 0-4.1875-1.57813-4.1875-4.8125 0-1.90625.48437-4.23438 1.5-5.92188 1.04687-1.76562 2.70312-3 4.96875-3 2.67187 0 3.42187 1.23438 3.42187 3.54688h.65625l.76563-3.15625c-1.21875-.76563-3.1875-1.125-4.65625-1.125-3.96875 0-6.25 1.85937-7.48438 3.82812-1.17187 1.875-1.4375 3.82813-1.4375 5.28125m0 0"/><path id="d" d="M0 0h4.96875l.10938-.60937L4.25-.67187c-.625-.04688-.95312-.20313-.95312-.65625 0-1.10938.20312-1.73438.4375-2.85938l1.9375-8.57812h.03125L8.23438-.25h.59375l8.1875-12.51562h.04687L14.48438-1.75c-.17188.71875-.375.96875-.89063 1.01563l-1.14062.125L12.3125 0h5.73438l.10937-.60937-1.23437-.125c-.375-.03126-.53126-.20313-.53126-.54688 0-.125.01563-.28125.0625-.46875l2.53126-11.0625c.1875-.71875.34374-1 .875-1.04687l1.17187-.09375.15625-.59375h-4.125c-1.125 1.92187-2.375 3.79687-3.65625 5.75L9.6875-3.10937H9.625L8.4375-8.95312c-.42187-1.90625-.84375-3.71875-1.20312-5.59375H3.15625l-.14062.59375 1.23437.10937c.35938.03125.54688.20313.54688.5625 0 .14063-.03125.29688-.07813.46875l-1.98437 8.625c-.25 1.125-.5 1.92188-.73438 2.625-.25.67188-.64062.82813-1.23437.89063l-.65625.0625Zm0 0"/><path id="e" d="M0 0h4.96875l.10938-.60937L4.25-.67187c-.625-.04688-.95312-.17188-.95312-.625 0-1.125.20312-1.76563.4375-2.89063l1.96875-8.625h.07812C7.75-8.53125 9.6875-4.28125 11.625 0h1.35938l2.35937-10.35937c.23438-1.125.48438-1.9375.73438-2.625.25-.67188.625-.82813 1.25-.89063l.65624-.07812.10938-.59375H13.125l-.10937.59375.82812.09375c.625.0625.98438.26562.98438.73437 0 .76563-.23438 1.64063-.46875 2.76563L12.625-2.75h-.09375c-1.8125-3.9375-3.59375-7.85937-5.35937-11.79687H3.15625l-.14062.59375 1.23437.10937c.35938.03125.54688.20313.54688.5625 0 .14063-.03125.29688-.07813.46875l-1.98437 8.625c-.25 1.125-.5 1.92188-.73438 2.625-.25.67188-.60937.82813-1.23437.89063l-.65625.0625Zm0 0"/><path id="f" d="M.42188-4.04687C.42188-2.25 1.25.21875 5.0625.21875c1.03125 0 2.09375-.14062 3.04688-.60937L8.84375-2.875H8.375C7.51563-1.375 6.76563-.34375 5-.34375c-1.60937 0-2.78125-1.04687-2.78125-3.28125 0-2.42187 1.125-6.23437 4.42188-6.23437 1.84375 0 2.32812.96875 2.32812 2.53125h.48438L10-9.65625c-.84375-.53125-2.28125-.76562-3.26562-.76562-4.51563 0-6.3125 3.32812-6.3125 6.375m0 0"/><path id="g" d="M.07813 0h3.5l.09375-.45312L3.04688-.5c-.42188-.03125-.65625-.15625-.65625-.48437 0-.64063.15625-1.21875.35937-2.09375l1.26563-5.78125h.03125l1.67187 8.6875h.54688l5.51562-8.6875h.03125l-1.75 7.57812c-.125.5-.25.71875-.625.75l-.76562.07813L8.5625 0h4.10938l.09375-.45312-.82813-.07813c-.26562-.01562-.375-.15625-.375-.375 0-.09375.03125-.23437.0625-.375l1.73438-7.625c.125-.5.23437-.73437.625-.76562l.78125-.0625.10937-.45313h-3.09375c-.71875 1.28125-1.54687 2.57813-2.375 3.875l-2.5 3.92188h-.04687l-.78125-4c-.28125-1.28125-.54688-2.53125-.78125-3.79688H2.25l-.09375.45313L3-9.65625c.25.01563.375.125.375.375 0 .09375-.03125.23438-.0625.375L1.96875-3.07812c-.1875.875-.34375 1.4375-.5 1.92187C1.3125-.6875 1.04688-.54687.64063-.5l-.48438.04688Zm0 0"/><path id="h" d="M1.25-2.01562h8.10938v-1H1.25Zm0-3.28125h8.10938v-.98438H1.25Zm0 0"/><path id="i" d="m.29688-2.96875.17187.34375h3.95313v1.5c0 .46875-.17188.54688-.5.57813l-.9375.09374V0h4.03125v-.45312l-.67188-.07813c-.3125-.04687-.42187-.125-.42187-.59375v-1.5h1.5v-.76562h-1.5v-6.45313h-1.25C3.25-7.73437 1.64063-5.25.29688-2.96875m1.1875-.42187c.82812-1.53125 1.85937-3.1875 2.9375-4.92188v4.92188Zm0 0"/><path id="j" d="m.75 1.82813.32813.29687C1.8125 1.4375 3 .40625 3-.75c0-.78125-.4375-1.375-1.07812-1.375-.53125 0-.8125.40625-.8125.78125 0 .53125.45312.8125.45312 1.4375 0 .60938-.34375 1.21875-.8125 1.73438m0 0"/><path id="k" d="M.57813-2.71875c0 1.67188 1.125 2.89063 3.40625 2.89063S7.375-1.04687 7.375-2.71875c0-1.45312-.89062-2.3125-1.9375-2.57812.875-.23438 1.59375-1 1.59375-2.17188 0-1.64062-1.26562-2.54687-3.04687-2.54687-1.79688 0-3.07813.92187-3.07813 2.54687 0 1.17188.76563 1.9375 1.625 2.17188C1.5-5.03125.57813-4.17187.57813-2.71875m1.6875.04688c0-1.3125.60937-2.28125 1.71875-2.28125 1.10937 0 1.70312.96875 1.70312 2.28125S5.14063-.375 3.98438-.375s-1.71875-.98437-1.71875-2.29687m.26562-4.84375c0-1.125.51563-1.95313 1.45313-1.95313s1.4375.82813 1.4375 1.95313c0 1.01562-.45313 1.98437-1.4375 1.98437-.96875 0-1.45313-.96875-1.45313-1.98437m0 0"/><path id="n" d="M.07813 0h4.5625c3.42187 0 4.375-1.5625 4.375-3.01562 0-1.54688-1.15625-2.25-2.23438-2.4375l.01563-.03125C8.75-5.70312 9.59375-6.79687 9.59375-7.95312c0-1.21875-.71875-2.23438-3.51562-2.23438H2.25l-.10937.45313L3-9.65625c.25.01563.35938.125.35938.35938 0 .09375-.03125.23437-.0625.39062l-1.71875 7.625c-.10938.5-.25.70313-.625.75l-.78125.07813Zm3.14062-1.15625c0-.10937.01563-.21875.04688-.34375l.82812-3.6875h.57813c1.40625 0 2.53125.46875 2.53125 2.01563 0 1.34375-.78125 2.60937-2.6875 2.60937-1.03125 0-1.29688-.21875-1.29688-.59375M4.20313-5.75l.76562-3.375c.10938-.4375.17188-.51562 1.07813-.51562 1.15625 0 1.85937.5625 1.85937 1.60937 0 1.48438-1.20312 2.28125-2.82812 2.28125Zm0 0"/><path id="o" d="M.625-1.5625c0 .625.95313 1.73438 3.04688 1.73438 2.5 0 3.5625-1.48438 3.5625-3.34375 0-1.875-1.125-3.125-3.09375-3.125-.85938 0-1.73438.375-2.23438.79687l.3125-2.59375c.0625-.40625.125-.46875.45313-.46875h3.71875l.42187-1.14062-.09375-.14063H1.60938l-.125.14063-.29688 4.90625.42188.25c.59375-.70313 1.1875-1.03125 1.96875-1.03125C4.53125-5.57812 5.5-4.875 5.5-3c0 1.51563-.5625 2.625-1.75 2.625-.9375 0-1.45312-.67187-1.78125-1.625-.09375-.25-.25-.40625-.5-.40625-.34375 0-.84375.3125-.84375.84375m0 0"/><path id="p" d="M.07813 0h3.51562l.09375-.45312L3.04688-.5c-.42188-.03125-.64063-.14062-.64063-.46875 0-.64062.15625-1.23437.35938-2.10937l1.28125-5.71875h.0625C5.4375-5.85937 6.73438-2.9375 8.04688 0h1.10937L10.75-7.10937c.54688-2.48438.78125-2.51563 1.35938-2.57813l.48437-.04687.07813-.45313h-3.5l-.09375.45313.64062.0625c.42188.04687.64063.17187.64063.51562 0 .45313-.17188 1.17188-.35938 2.04688l-1.10937 5h-.0625c-1.23438-2.70313-2.42188-5.375-3.60938-8.07813h-2.9375l-.09375.45313.84375.07812c.25.01563.35938.125.35938.375 0 .09375-.01563.23438-.04688.375L2-3.07812c-.1875.875-.35937 1.4375-.53125 1.92187C1.29688-.6875 1.0625-.54687.64063-.5l-.46875.04688Zm0 0"/><path id="q" d="M.40625-1.5625c0 .60938.96875 1.73438 3.20313 1.73438 2.1875 0 3.54687-1.0625 3.54687-2.95313 0-2-1.73437-2.53125-2.48437-2.60937v-.0625c.79687-.14063 2.0625-.71875 2.0625-2.15625 0-1.73438-1.40625-2.40625-2.96875-2.40625-1.89063 0-2.98438 1.04687-2.98438 1.79687 0 .51563.57813.78125.82813.78125.21874 0 .34375-.14062.42187-.35937.32813-1.04688.84375-1.67188 1.64063-1.67188 1.09375 0 1.35937 1.03125 1.35937 1.82813 0 .78125-.25 1.98437-1.45312 1.98437-.67188 0-1.125-.15625-1.34375-.15625s-.29688.17188-.29688.45313.07813.45312.29688.45312.67187-.15625 1.34375-.15625c1.125 0 1.82812.9375 1.82812 2.34375C5.40625-1.01562 4.625-.375 3.625-.375c-.89062 0-1.51562-.67187-1.82812-1.625-.09376-.28125-.25-.4375-.48438-.4375-.32812 0-.90625.3125-.90625.875m0 0"/><path id="r" d="M.42188-.17187.59375 0h6.23438l.53125-2.09375-.4375-.07812c-.34375.78125-.60938.89062-1.20313.89062H1.95313c.23437-.70312 1.03125-1.70312 2.45312-2.65625 1.48438-1 2.54688-1.6875 2.54688-3.29687 0-2.0625-1.39063-2.78125-3.01563-2.78125-2.01562 0-3.15625 1.15625-3.15625 2.04687 0 .54688.60938.79688.92188.79688.28124 0 .42187-.15625.48437-.4375.23438-1.04688.79688-1.85938 1.65625-1.85938 1.03125 0 1.35938.89063 1.35938 1.96875 0 1.42188-.64063 2.35938-2.01563 3.54688C1.29688-2.32812.64063-1.26562.42188-.17187m0 0"/><path id="s" d="M-.28125 0h3.35938l.09375-.45312-.82813-.07813c-.1875-.01562-.28125-.10937-.28125-.25 0-.25 1.53125-3.04687 1.54688-3.07812H6.8125l.32813 2.9375s-.0625.35937-.375.39062l-.78125.07813L5.89063 0h3.82812l.09375-.45312L9.25-.5c-.45312-.04687-.51562-.34375-.57812-.90625L7.625-10.1875H6.40625L3.92188-5.79687c-.78125 1.375-2.01563 3.5625-2.53125 4.39062-.42188.6875-.67188.84375-1.125.89063l-.45313.0625Zm4.20313-4.45312L6.25-8.6875l.48438 4.23438Zm0 0"/><path id="l" d="M.71875-3.54687c0 2.46875 1.20313 3.71875 3.42188 3.71875 1.03125 0 2.42187-.53125 2.82812-2.10938l-.4375-.20312C6.07813-1.10937 5.5-.59375 4.42188-.59375c-1.75 0-2.17188-1.82812-2.17188-3.21875C2.25-6 3.125-6.875 4.14063-6.875c.67187 0 1.09375.48438 1.39062 1.28125.09375.23438.1875.375.46875.375.29688 0 .85938-.1875.85938-.75 0-.67187-.96875-1.42187-2.5625-1.42187C1.60938-7.39062.71875-5.5.71875-3.54687m0 0"/><path id="m" d="M.46875 0H4.0625v-.42187C3.01563-.5 2.96875-.53125 2.96875-1.28125v-3.45312c0-.375 0-.57813.10938-.78125C3.35938-6.10937 4-6.59375 4.8125-6.59375c1.26563 0 1.42188.92188 1.42188 1.82813v3.48437c0 .75-.04688.78125-1.10938.85938V0h3.59375v-.42187C7.65625-.5 7.60938-.53125 7.60938-1.28125v-3.45312c0-.375.01562-.5625.10937-.79688.23438-.59375.85938-1.0625 1.6875-1.0625.92188 0 1.48438.51563 1.48438 1.82813v3.48437c0 .75-.04688.78125-1.10938.85938V0h3.60938v-.42187c-1.0625-.07813-1.125-.10938-1.125-.85938v-3.76562c0-1.48438-.79688-2.34375-2.1875-2.34375-1.20313 0-2.0625.79687-2.59375 1.125-.35938-.6875-.92188-1.125-1.95313-1.125-1.125 0-2.04687.75-2.5625 1.125l-.14062-1.125-2.28125.375v.35937l.54687.07813c.375.0625.48438.125.48438.65625v4.64062c0 .75-.04688.78125-1.10938.85938Zm0 0"/></defs><path fill="none" stroke="#000" stroke-miterlimit="10" stroke-width=".39801" d="M29.89063 188.53125h127.40234l-19.7461-157.97656Zm0 0"/><use xlink:href="#a" x="7.54003" y="210.99462"/><use xlink:href="#b" x="165.18699" y="210.99462"/><use xlink:href="#c" x="130.4352" y="22.35021"/><path fill="none" stroke="#000" stroke-miterlimit="10" stroke-width=".39801" d="M51.41797 156.9414h101.91016"/><use xlink:href="#d" x="22.99881" y="164.22078"/><use xlink:href="#e" x="161.22492" y="164.22078"/><use xlink:href="#f" x="228.90076" y="74.36902"/><use xlink:href="#g" x="239.8866" y="74.36902"/><use xlink:href="#h" x="258.78664" y="74.36902"/><use xlink:href="#i" x="272.43667" y="74.36902"/><use xlink:href="#j" x="280.38221" y="74.36902"/><use xlink:href="#k" x="286.14938" y="74.36902"/><use xlink:href="#l" x="297.40232" y="74.36902"/><use xlink:href="#m" x="304.70532" y="74.36902"/><use xlink:href="#f" x="228.90076" y="101.23436"/><use xlink:href="#n" x="239.8866" y="101.23436"/><use xlink:href="#h" x="253.50529" y="101.23436"/><use xlink:href="#o" x="267.15531" y="101.23436"/><use xlink:href="#l" x="278.42018" y="101.23436"/><use xlink:href="#m" x="285.72318" y="101.23436"/><use xlink:href="#g" x="228.90076" y="128.10195"/><use xlink:href="#p" x="244.76049" y="128.10195"/><use xlink:href="#h" x="261.45082" y="128.10195"/><use xlink:href="#q" x="275.10085" y="128.10195"/><use xlink:href="#j" x="283.04639" y="128.10195"/><use xlink:href="#r" x="288.81357" y="128.10195"/><use xlink:href="#l" x="300.06526" y="128.10195"/><use xlink:href="#m" x="307.36826" y="128.10195"/><use xlink:href="#s" x="228.90076" y="154.96729"/><use xlink:href="#n" x="239.69854" y="154.96729"/><use xlink:href="#h" x="253.31723" y="154.96729"/><use xlink:href="#i" x="266.96725" y="154.96729"/><use xlink:href="#l" x="278.23366" y="154.96729"/><use xlink:href="#m" x="285.53666" y="154.96729"/></svg>