<svg xmlns="http://www.w3.org/2000/svg" xmlns:xlink="http://www.w3.org/1999/xlink" width="246.49" height="247.317" viewBox="0 0 246.49 247.317"><defs><path id="a" d="M-.40625 0h4.75l.125-.60937L3.3125-.71875c-.26562-.01562-.39062-.15625-.39062-.35937 0-.10938.04687-.26563.125-.42188.6875-1.34375 1.35937-2.70312 2.14062-4.10937h4.71875l.51563 4.32812s-.10938.51563-.5625.5625L8.75-.60937 8.625 0h5.17188l.14062-.60937-.8125-.0625c-.65625-.0625-.73437-.35938-.84375-1.23438l-1.54687-12.625h-1.5l-3.53125 6.1875c-1.07813 1.875-2.8125 5.01563-3.59375 6.26563C1.4375-.98437 1.07813-.76562.42188-.6875l-.6875.07813Zm6.01563-6.42187 3.42187-6.17188.76563 6.17188Zm0 0"/><path id="b" d="M0 0h6.375c5.07813 0 6.09375-2.60937 6.09375-4.35937 0-2.21875-1.625-3.17188-3.17187-3.46875l.03125-.04688c2.79687-.32812 3.96875-1.92187 3.96875-3.5 0-1.70312-1-3.15625-4.875-3.15625h-5.3125l-.14063.59375 1.25.125c.35938.01563.51563.17188.51563.51563 0 .125-.03125.3125-.07813.5L2.17188-1.75c-.15625.70313-.35938.9375-.875 1.01563l-1.1875.125Zm4.20313-1.60937c0-.15626.01562-.3125.0625-.46875l1.21875-5.39063h.82812c2.07813 0 3.90625.60938 3.90625 3 0 1.875-1.14062 3.73438-3.95312 3.73438-1.65625 0-2.0625-.34375-2.0625-.875m1.4375-6.59375 1.09375-4.875c.15625-.625.26562-.73438 1.67187-.73438 1.76563 0 2.75.89063 2.75 2.35938 0 2.20312-1.82812 3.25-4.15625 3.25Zm0 0"/><path id="c" d="M1.09375-5.76562C1.09375-3 2.45313.3125 7.67188.3125c1.5 0 2.92187-.20312 4.26562-.875l1.03125-3.34375h-.625C11.17188-1.8125 10.125-.42187 7.53125-.42187c-2.4375 0-4.17187-1.5625-4.17187-4.8125 0-1.89063.48437-4.21875 1.5-5.90625C5.90625-12.90625 7.5625-14.125 9.8125-14.125c2.65625 0 3.42188 1.21875 3.42188 3.53125h.65625l.75-3.15625C13.4375-14.51562 11.46875-14.875 10-14.875c-3.96875 0-6.25 1.85938-7.46875 3.82813-1.17187 1.875-1.4375 3.82812-1.4375 5.28125m0 0"/><path id="d" d="M0 0h6.4375c4.20313 0 6.64063-1.51562 8.15625-3.79687C15.8125-5.60937 16.01563-7.375 16.01563-8.625c0-1.70312-.60938-3.40625-1.8125-4.40625-1.23438-1.03125-3.10938-1.5-5.4375-1.5H3.10938l-.14063.59375 1.25.09375c.35938.03125.5.20313.5.54688 0 .125-.01562.3125-.0625.5L2.14063-1.75c-.15625.70313-.32813.96875-.84375 1.01563l-1.1875.125Zm4.15625-1.54687c0-.07813 0-.17188.03125-.26563l2.51563-11.21875c.1875-.71875.46875-.78125 2.3125-.78125 4.375.07813 4.73437 3.03125 4.73437 4.71875 0 1.79688-.42187 3.5-1.35937 5.0625-1.21875 1.96875-3 3.29688-6.48438 3.29688-1.03125 0-1.75-.14063-1.75-.8125m0 0"/><path id="e" d="M.21875 0h10.95313L12.25-3.6875h-.625C10.54688-1.09375 9.60938-.73437 7.01563-.73437c-2.48438 0-2.60938-.3125-2.60938-.875 0-.21876.0625-.53125.15625-.96875l1.07813-4.59375h2.75c1.5625 0 1.84375.3125 1.84375 1.21875 0 .1875 0 .35937-.01563.59375h.625L11.82813-9.75h-.65625c-.53125 1.45313-.75 1.79688-2.60938 1.79688h-2.75L7-13.1875c.10938-.51562.25-.625.60938-.625H10.125c2.0625 0 2.48438.53125 2.48438 1.67188 0 .51562-.0625 1.09375-.0625 1.09375h.625l.78125-3.48438h-10.625l-.15625.59375 1.28125.09375c.35937.03125.51562.1875.51562.51563 0 .14062-.03125.29687-.07812.5L2.39063-1.75c-.17188.71875-.35938.96875-.875 1.01563l-1.1875.125Zm0 0"/><path id="f" d="M.42188-4.03125c0 1.78125.82812 4.25 4.625 4.25 1.03125 0 2.09375-.14062 3.04687-.60937l.73438-2.46875h-.46875C7.5-1.375 6.75-.34375 4.98438-.34375c-1.60938 0-2.76563-1.04687-2.76563-3.26562 0-2.42188 1.10938-6.23438 4.40625-6.23438 1.84375 0 2.32813.96875 2.32813 2.53125h.48437l.54688-2.32812c-.84375-.53125-2.28125-.76563-3.26563-.76563-4.5 0-6.29687 3.32813-6.29687 6.375m0 0"/><path id="g" d="M.1875 0h7.78125L8.75-2.70312h-.46875C7.48438-.89062 6.75-.5625 5.07813-.5625c-1.57813 0-1.78125-.125-1.78125-.57812 0-.14063.03125-.32813.09375-.57813L4.15625-5H5.9375c1.03125 0 1.23438.25 1.23438.90625 0 .09375 0 .25-.01563.375H7.625l.71875-3.14062h-.48437c-.42188 1.03125-.57813 1.26562-1.78125 1.26562H4.28125l.8125-3.57812c.09375-.375.1875-.45313.5-.45313h1.57813c1.42187 0 1.71875.42188 1.73437 1.1875 0 .15625 0 .625-.01562.78125h.46875l.54687-2.51562H2.375l-.125.45312.85938.0625c.25.01563.35937.125.35937.35938 0 .09375-.03125.21875-.0625.375L1.6875-1.28125c-.125.5-.25.71875-.625.75l-.78125.07813Zm0 0"/><path id="h" d="M1.25-2.01562h8.09375V-3H1.25Zm0-3.26563h8.09375v-.98437H1.25Zm0 0"/><path id="i" d="M.60938-4.59375c0 3.125 1.10937 4.76563 3.45312 4.76563C6.34375.17188 7.5-1.21875 7.5-3.15625c0-2-1.26562-3.07812-2.82812-3.07812-1.10938 0-1.9375.71875-2.375 1.25.01562-2.71875.73437-4.46875 2.07812-4.46875.65625 0 1.10938.57812 1.34375 1.45312.0625.1875.20313.35938.45313.35938.34375 0 .85937-.28125.85937-.73438 0-.625-.75-1.625-2.5625-1.625-2.375 0-3.85937 1.79688-3.85937 5.40625m1.6875 1.125c0-.875.625-1.90625 1.78125-1.90625.90625 0 1.73437.79688 1.73437 2.46875 0 1.5-.51562 2.53125-1.70312 2.53125-1.21875 0-1.8125-1.375-1.8125-3.09375m0 0"/><path id="l" d="M.07813 0H4.625c3 0 4.6875-1.0625 5.73438-2.65625.82812-1.25.98437-2.53125.98437-3.34375 0-1.28125-.45312-2.45312-1.29687-3.14062-.85938-.70313-2.15625-1.03125-3.82813-1.03125H2.25l-.10937.45312.84375.0625c.25.01563.35937.14063.35937.375 0 .09375-.03125.23438-.0625.39063L1.5625-1.28125c-.10937.5-.23437.71875-.60937.75l-.78125.07813Zm3.09375-1.10937c0-.0625 0-.14063.01562-.20313l1.75-7.76562c.125-.5.32813-.54688 1.51563-.54688 2.82812.04688 3.10937 1.96875 3.10937 3.1875-.01562 1-.28125 2.46875-.96875 3.625-.79687 1.32813-2.01562 2.25-4.25 2.25-.6875 0-1.17187-.07812-1.17187-.54687m0 0"/><path id="m" d="M.40625-1.5625c0 .60938.96875 1.73438 3.1875 1.73438 2.1875 0 3.54688-1.0625 3.54688-2.9375 0-2-1.73438-2.53125-2.48438-2.60938v-.0625c.79688-.14062 2.0625-.71875 2.0625-2.15625C6.71875-9.32812 5.3125-10 3.75-10 1.875-10 .78125-8.95312.78125-8.20312c0 .51562.57813.78125.82813.78125.21874 0 .34375-.14063.42187-.375.32813-1.03125.82813-1.65625 1.625-1.65625 1.09375 0 1.35938 1.03125 1.35938 1.82812 0 .78125-.25 1.98438-1.45313 1.98438-.67187 0-1.10937-.15625-1.32812-.15625s-.29688.17187-.29688.45312.07813.45313.29688.45313.65625-.15625 1.32812-.15625c1.125 0 1.82813.9375 1.82813 2.34375 0 1.6875-.78125 2.32812-1.78125 2.32812-.89063 0-1.5-.67187-1.8125-1.625-.09376-.28125-.25-.4375-.48438-.4375-.32812 0-.90625.3125-.90625.875m0 0"/><path id="n" d="M.07813 0H4.625C8.04688 0 9-1.5625 9-3c0-1.54687-1.15625-2.25-2.23437-2.4375l.01562-.03125c1.95313-.21875 2.79688-1.3125 2.79688-2.46875 0-1.21875-.71875-2.23437-3.51563-2.23437H2.25l-.10937.45312.84375.07813c.25.01562.35937.125.35937.35937 0 .09375-.03125.23438-.0625.39063L1.57813-1.28125c-.10938.5-.25.70313-.625.75l-.78125.07813Zm3.125-1.15625c0-.10937.01562-.21875.04687-.34375l.82813-3.67187h.57812c1.40625 0 2.53125.46875 2.53125 2.01562C7.1875-1.82812 6.40625-.5625 4.5-.5625c-1.03125 0-1.29687-.21875-1.29687-.59375m.98437-4.57812.76563-3.375c.10937-.4375.17187-.51563 1.07812-.51563 1.15625 0 1.85938.5625 1.85938 1.60938 0 1.48437-1.20313 2.28125-2.82813 2.28125Zm0 0"/><path id="o" d="M.625-1.5625c0 .625.95313 1.73438 3.03125 1.73438 2.5 0 3.5625-1.48438 3.5625-3.32813 0-1.875-1.125-3.125-3.09375-3.125-.85937 0-1.71875.375-2.21875.79688l.3125-2.59375c.0625-.40625.125-.46875.4375-.46875H6.375l.42188-1.14063-.09375-.14062H1.60938l-.125.14062-.29688 4.90625.42188.25C2.20313-5.23437 2.78125-5.5625 3.5625-5.5625c.95313 0 1.92188.70313 1.92188 2.57813 0 1.5-.5625 2.60937-1.75 2.60937-.9375 0-1.4375-.67187-1.76563-1.625-.09375-.25-.25-.40625-.5-.40625-.34375 0-.84375.3125-.84375.84375m0 0"/><path id="j" d="M.71875-3.53125C.71875-1.07812 1.92188.17188 4.125.17188c1.03125 0 2.42188-.53125 2.82813-2.10938l-.4375-.20312C6.0625-1.10937 5.48438-.59375 4.40625-.59375c-1.75 0-2.15625-1.82812-2.15625-3.20312 0-2.1875.85938-3.0625 1.875-3.0625.67188 0 1.09375.48437 1.39063 1.28125.09375.23437.1875.375.46875.375.29687 0 .85937-.1875.85937-.75 0-.67188-.96875-1.42188-2.5625-1.42188-2.67187 0-3.5625 1.89063-3.5625 3.84375m0 0"/><path id="k" d="M.46875 0h3.57813v-.42187C3-.5 2.95313-.53125 2.95313-1.28125v-3.4375c0-.375 0-.57812.10937-.78125.28125-.59375.92188-1.07812 1.73438-1.07812 1.26562 0 1.42187.92187 1.42187 1.82812v3.46875c0 .75-.04687.78125-1.10937.85938V0h3.59375v-.42187C7.64063-.5 7.59375-.53125 7.59375-1.28125v-3.4375c0-.375.01563-.5625.10938-.79687.23437-.59375.85937-1.0625 1.6875-1.0625.92187 0 1.48437.51562 1.48437 1.82812v3.46875c0 .75-.04687.78125-1.10937.85938V0h3.59375v-.42187C12.3125-.5 12.25-.53125 12.25-1.28125v-3.75c0-1.48437-.79687-2.34375-2.1875-2.34375-1.20312 0-2.0625.79688-2.59375 1.125-.35937-.6875-.92187-1.125-1.95312-1.125-1.125 0-2.04688.75-2.5625 1.125L2.8125-7.375.54688-7v.35938l.54687.07812c.375.0625.48438.125.48438.65625v4.625c0 .75-.04688.78125-1.10938.85938Zm0 0"/></defs><path fill="none" stroke="#000" stroke-miterlimit="10" stroke-width=".3974" d="M29.85156 33.88281 216.375 115.52344l-50.85547 2.48437-50.88281-88.1289Zm0 0"/><use xlink:href="#a" x="7.53555" y="25.98723"/><use xlink:href="#b" x="122.53596" y="21.9803"/><use xlink:href="#c" x="154.33614" y="76.74705"/><use xlink:href="#d" x="141.1685" y="140.43417"/><use xlink:href="#e" x="224.273" y="137.95103"/><use xlink:href="#f" x="20.77399" y="185.31672"/><use xlink:href="#g" x="31.7432" y="185.31672"/><use xlink:href="#h" x="45.65423" y="185.31672"/><use xlink:href="#i" x="59.28359" y="185.31672"/><use xlink:href="#j" x="70.53257" y="185.31672"/><use xlink:href="#k" x="77.82452" y="185.31672"/><use xlink:href="#f" x="20.77399" y="212.14139"/><use xlink:href="#l" x="31.7432" y="212.14139"/><use xlink:href="#h" x="47.10948" y="212.14139"/><use xlink:href="#m" x="60.73885" y="212.14139"/><use xlink:href="#j" x="71.9888" y="212.14139"/><use xlink:href="#k" x="79.28074" y="212.14139"/><use xlink:href="#f" x="20.77399" y="238.96606"/><use xlink:href="#n" x="31.7432" y="238.96606"/><use xlink:href="#h" x="45.34127" y="238.96606"/><use xlink:href="#o" x="58.97063" y="238.96606"/><use xlink:href="#j" x="70.21844" y="238.96606"/><use xlink:href="#k" x="77.51038" y="238.96606"/></svg>