<svg xmlns="http://www.w3.org/2000/svg" xmlns:xlink="http://www.w3.org/1999/xlink" width="197.556pt" height="166.435pt" viewBox="0 0 197.556 166.435"><defs><path id="a" d="M0 0h4.95313l.125-.60937L4.25-.67187c-.625-.04688-.96875-.20313-.96875-.64063 0-1.125.20313-1.75.45313-2.85937l1.92187-8.5625h.04688L8.21875-.25h.57813l8.1875-12.48437h.04687L14.45313-1.75c-.17188.71875-.375.96875-.89063 1.01563l-1.14062.125L12.28125 0h5.73438l.10937-.60937-1.23437-.125c-.375-.03126-.53126-.20313-.53126-.54688 0-.125.01563-.28125.0625-.46875l2.53126-11.03125c.17187-.71875.32812-1 .85937-1.04687l1.17188-.09375.15624-.59375h-4.10937c-1.125 1.90625-2.375 3.79687-3.64062 5.73437L9.67188-3.10937h-.0625L8.42188-8.9375C8-10.84375 7.57813-12.64062 7.21875-14.51562h-4.0625l-.14062.59375L4.25-13.8125c.35938.03125.53125.20313.53125.5625 0 .14063-.01562.29688-.0625.46875l-2 8.60938C2.48438-3.0625 2.23438-2.25 1.98438-1.5625c-.23438.67188-.625.82813-1.21875.89063l-.65625.0625Zm0 0"/><path id="b" d="M0 0h4.95313l.125-.60937L4.25-.67187c-.625-.04688-.96875-.17188-.96875-.625 0-1.10938.20313-1.76563.45313-2.875l1.96875-8.60938h.0625C7.73438-8.51562 9.67188-4.26562 11.59375 0h1.35938l2.35937-10.34375c.23438-1.125.48438-1.92187.73438-2.60937.23437-.67188.625-.82813 1.25-.90625l.64062-.0625.10938-.59375h-4.95313l-.10937.59375.82812.09375c.625.0625.98438.26562.98438.73437 0 .76563-.23438 1.625-.46875 2.75L12.60938-2.75h-.09375c-1.8125-3.9375-3.59375-7.84375-5.35938-11.76562h-4l-.14062.59375L4.25-13.8125c.35938.03125.53125.20313.53125.5625 0 .14063-.01562.29688-.0625.46875l-2 8.60938C2.48438-3.0625 2.23438-2.25 1.98438-1.5625 1.75-.89062 1.39063-.73437.76563-.67187l-.65625.0625Zm0 0"/><path id="c" d="M.67188-5.67187C.67188-2.21875 2.65625.3125 6.84375.3125c3.70313 0 5.51563-1.90625 6.67188-3.98437 1.14062-2.04688 1.34375-4.1875 1.34375-5.01563 0-4.3125-2.60938-6.17187-6.07813-6.17187C5.42188-14.85937 3.34375-13 2.125-11 .95313-9.04687.67188-7.0625.67188-5.67187m2.20312.84375c0-1.76563.34375-3.73438 1.29688-5.76563C5.14063-12.57812 6.64063-14.125 8.875-14.125c2.29688 0 3.76563 1.35938 3.76563 4.34375 0 1.20313-.10938 2.92188-.98438 5.15625-.85937 2.25-2.29687 4.20313-5.01562 4.20313-2.28125 0-3.76563-1.48438-3.76563-4.40625m0 0"/><path id="d" d="M.5-3.5625C.5-1.3125 1.65625.15625 4.34375.15625c.73438 0 1.82813-.125 2.45313-.5l.125-2.04687h-.39063C6.125-1.23437 5.67188-.32812 4.48438-.32812 2.625-.32812 2.375-2.54687 2.375-3.73437c0-.76563.14063-3.20313 2.03125-3.20313 1.34375 0 1.70313 1.09375 1.95313 1.85938h.40625v-1.875c-.625-.39063-1.73438-.46875-2.26563-.46875-1.48437 0-2.48437.40625-3.09375 1.09375C.76563-5.60937.5-4.60937.5-3.5625m0 0"/><path id="e" d="m1.17188-5.75.26562.28125L2.75-6.45312c.14063-.09375.28125-.1875.375-.1875.10938 0 .26563.09375.40625.1875l1.3125.98437.25-.28125-1.5-1.76562c-.15625-.1875-.32812-.32813-.46875-.32813s-.29687.14063-.45312.32813ZM.40625-2.5625C.40625-.89062 1.21875.125 3.125.125S5.85938-.89062 5.85938-2.5625c0-1.6875-.82813-2.70312-2.73438-2.70312S.40625-4.25.40625-2.5625m1.67188 0c0-1.42187.29687-2.23437 1.04687-2.23437s1.04688.8125 1.04688 2.23437c0 1.40625-.29688 2.20313-1.04688 2.20313S2.07813-1.15625 2.07813-2.5625m0 0"/><path id="f" d="M.39063-4.625H1v3.39063C1-.26562 1.70313.125 2.29688.125c.4375 0 1.09375-.1875 1.6875-.5625l-.125-.32812c-.14063.0625-.34375.10937-.59375.10937-.39063 0-.67188-.29687-.67188-.96875v-3H3.6875v-.53125H2.59375v-1.3125h-.60937l-.92188 1.3125H.39063Zm0 0"/><path id="g" d="m2.04688-5.6875.20312.32813 1.92188-1.09375c.39062-.20313.71875-.42188.71875-.6875s-.28125-.64063-.54688-.64063c-.20312 0-.39062.125-.78125.53125ZM.40625-2.5625c0 1.42188.625 2.6875 2.57813 2.6875 1.25 0 1.9375-.60937 2.28125-1.53125l-.375-.21875c-.3125.60938-.75.9375-1.39063.9375-1.04687 0-1.42187-.85937-1.42187-1.95312h2.71875c.39062 0 .5625-.10938.5625-.4375 0-.85938-.32813-2.1875-2.35938-2.1875-1.89062 0-2.59375 1.21875-2.59375 2.70312m1.67188-.59375c0-.75.20312-1.64062.875-1.64062.64062 0 .75.8125.75 1.29687 0 .29688-.07813.34375-.3125.34375Zm0 0"/><path id="h" d="M.25 0h2.95313v-.40625c-.59375-.03125-.67188-.07812-.67188-.51562v-6.79688l-.07812-.0625L.32813-7.5v.375l.35937.04688c.17188.04687.25.125.25.54687v5.60938c0 .4375-.07812.48437-.6875.51562Zm0 0"/><path id="i" d="M.40625-2.5625c0 1.42188.625 2.6875 2.57813 2.6875 1.25 0 1.9375-.60937 2.28125-1.53125l-.375-.21875c-.3125.60938-.75.9375-1.39063.9375-1.04687 0-1.42187-.85937-1.42187-1.95312h2.71875c.39062 0 .5625-.10938.5625-.4375 0-.85938-.32813-2.1875-2.35938-2.1875-1.89062 0-2.59375 1.21875-2.59375 2.70312m1.67188-.59375c0-.75.20312-1.64062.875-1.64062.64062 0 .75.8125.75 1.29687 0 .29688-.07813.34375-.3125.34375Zm0 0"/><path id="j" d="M.25 2.01563v.39062h3.14063v-.39062C2.625 1.98438 2.53125 1.9375 2.53125 1.5V0c.1875.07813.53125.125.8125.125 1.5625 0 2.8125-.53125 2.8125-2.84375 0-1.73437-.92187-2.54687-1.90625-2.54687-.73437 0-1.20312.32812-1.71875.71875l-.1875-.71875-2.01562.29687v.375l.35937.0625c.17188.01563.25.09375.25.51563V1.5c0 .4375-.07812.48438-.6875.51563m2.28125-3.60938V-3.25c0-.21875 0-.4375.0625-.57812.125-.39063.42188-.64063.85938-.64063.48437 0 1.03125.28125 1.03125 1.98438 0 1.29687-.28125 2.125-1.09375 2.125-.45313 0-.70313-.25-.8125-.70313-.03125-.15625-.04688-.32812-.04688-.53125m0 0"/><path id="k" d="m.3125-4.59375.375.0625c.15625.01563.23438.09375.23438.51563v2.5625c0 1.23437.75 1.57812 1.51562 1.57812.89063 0 1.4375-.48437 1.85938-.71875L4.39063 0H6.5625v-.40625c-.59375-.03125-.65625-.07812-.65625-.51562v-4.28125l-.09375-.0625-2.125.29687v.375l.375.0625c.15625.01563.23438.09375.23438.51563v2.23437c0 .17188 0 .42188-.07813.57813-.09375.25-.375.5-.82812.5-.5625 0-.89063-.32813-.89063-1.14063v-3.35937l-.07812-.0625-2.10938.29687Zm0 0"/><path id="l" d="m.45313-1.9375.125 1.5625c.40625.35938 1.20312.5 1.79687.5 1.28125 0 2.15625-.5625 2.15625-1.70312 0-.90625-.59375-1.34375-1.54687-1.70313-.60938-.23437-1.0625-.46875-1.0625-.89062 0-.32813.23437-.625.67187-.625.53125 0 .98438.5 1.1875 1.28125h.39063v-1.39063c-.4375-.26562-1.03125-.35937-1.57813-.35937-1.28125 0-2.07812.59375-2.07812 1.65625C.51563-2.84375 1.125-2.34375 2.0625-2c.53125.1875 1.04688.5 1.04688 1 0 .40625-.26563.64063-.71875.64063-.6875 0-1.26563-.71875-1.53125-1.57813Zm0 0"/><path id="m" d="M.40625-2.5625C.40625-.89062 1.21875.125 3.125.125S5.85938-.89062 5.85938-2.5625c0-1.6875-.82813-2.70312-2.73438-2.70312S.40625-4.25.40625-2.5625m1.67188 0c0-1.42187.29687-2.23437 1.04687-2.23437s1.04688.8125 1.04688 2.23437c0 1.40625-.29688 2.20313-1.04688 2.20313S2.07813-1.15625 2.07813-2.5625m0 0"/><path id="n" d="M.32813 0h2.82812v-.40625l-.20312-.01562c-.23438-.03125-.35938-.0625-.35938-.40625v-2.5c0-.23438.04688-.46875.125-.60938.125-.28125.40625-.53125.84375-.53125.53125 0 .8125.32813.84375.95313v2.6875c0 .34375-.10937.375-.34375.40625l-.21875.01562V0h2.82813v-.40625c-.60938-.03125-.6875-.07812-.6875-.51562v-2.73438c-.01563-.98437-.5-1.60937-1.57813-1.60937-.625 0-1.125.3125-1.8125.71875l-.14062-.71875-2.0625.29687v.375l.375.0625c.15624.01563.25.09375.25.51563v3.09375c0 .4375-.07813.48437-.6875.51562Zm0 0"/><path id="o" d="M.32813 1c0 1.01563 1.10937 1.53125 2.59375 1.53125.46875 0 1.21875-.07812 1.75-.375.57812-.29687.96875-.84375.96875-1.60937 0-1.26563-.96875-1.65625-2.07813-1.65625h-.96875c-.51562 0-.70312-.17188-.70312-.35938 0-.23437.26562-.34375.40625-.375.20312.01563.35937.01563.48437.01563 1.23438 0 2.35938-.45313 2.35938-1.70313 0-.3125-.125-.64062-.26563-.8125l.70313-.125.20312-.79687L5.6875-5.375l-1.32812.45313c-.34375-.20313-.92188-.34375-1.5-.34375-1.89063 0-2.45313.96875-2.45313 1.78125 0 .875.65625 1.39062 1.29688 1.5v.01562C1.01563-1.79687.5625-1.42187.5625-1c0 .46875.51563.89063.98438.98438v.03125C1.10938.10938.32813.29688.32813 1M1.73438.90625c0-.29687.125-.48437.28124-.57812.14063-.10938.46875-.15625.92188-.15625C3.82813.17188 4.375.375 4.375 1c0 .75-.59375 1.0625-1.29687 1.0625-.70313 0-1.34375-.40625-1.34375-1.15625m.32812-4.42187c0-.89063.35938-1.28125.78125-1.28125s.79688.39062.79688 1.26562c0 .75-.32813 1.21875-.79688 1.21875-.45312 0-.78125-.48437-.78125-1.20312m0 0"/><path id="p" d="M0-5.67187h.28125c.23438-.89063 2.25-1.67188 4.03125-1.67188h.85938v-.95312H4.3125C2.60938-8.29687 0-7.54687 0-6Zm0 0"/><path id="q" d="M0-7.34375h4.20313v-.95312H0Zm0 0"/><path id="r" d="M0-7.34375c3.45313 0 4.67188-.89062 5.03125-1.73437.46875.8125 1.45313 1.73437 5.03125 1.73437v-.95312c-3.78125 0-4.59375-1.01563-4.90625-1.6875H4.875C4.59375-9.3125 3.75-8.29687 0-8.29687Zm0 0"/><path id="s" d="M0-7.34375h.85938c1.78125 0 3.79687.78125 4.03125 1.67188h.26562V-6c0-1.54687-2.59375-2.29687-4.29687-2.29687H0Zm0 0"/><path id="t" d="M.32813-.14062.45313 0h4.53125l.40625-1.59375-.34375-.04687c-.25.5625-.4375.64062-.875.64062H1.51563c.15624-.46875.65625-1.15625 1.71875-1.8125 1.09375-.70312 1.84375-1.20312 1.84375-2.34375 0-1.46875-1.01563-1.98437-2.21875-1.98437-1.40625 0-2.29688.78125-2.29688 1.5 0 .40625.46875.59375.71875.59375.20313 0 .3125-.10938.375-.34375.17188-.76563.54688-1.32813 1.14063-1.32813.67187 0 .90625.59375.90625 1.34375 0 .92188-.375 1.64063-1.40625 2.51563C.92188-1.6875.45313-.90625.32813-.14062m0 0"/><path id="u" d="m.53125 1.3125.26563.23438c.53125-.5 1.42187-1.25 1.42187-2.07813 0-.5625-.29687-1.01562-.79687-1.01562-.42188 0-.625.3125-.625.59375 0 .375.29687.57812.29687 1.01562S.875.95313.53125 1.3125m0 0"/><path id="v" d="m.21875-2.10937.15625.25h2.76563v1.0625c0 .3125-.10938.375-.32813.39062l-.67187.0625V0h2.96875v-.34375l-.5-.04687c-.20313-.03125-.28125-.09375-.28125-.40625v-1.0625h1.0625v-.59375h-1.0625v-4.5625h-1C2.28125-5.46875 1.17188-3.73437.21875-2.10937m.92188-.34375c.5625-1.0625 1.26562-2.20313 2-3.40625v3.40625Zm0 0"/><path id="y" d="M1.14063 0h3.57812v-.34375l-.8125-.0625C3.67188-.4375 3.5625-.51562 3.5625-.89062v-6.1875l-.07812-.0625-2.32813.375v.3125L2-6.32812c.21875.03125.29688.10937.29688.45312v4.98438c0 .375-.10938.45312-.35938.48437l-.79687.0625Zm0 0"/><path id="z" d="M.42188-5.40625.75-5.35937l.09375-.21875C.98438-5.84375 1.10938-6 1.57813-6H4.375c-.09375.375-.32812 1.0625-1.1875 2.1875-.875 1.1875-1.48437 2.29688-1.48437 3.39063 0 .46875.34375.54687.71875.54687.32812 0 .64062-.0625.64062-.51562.01563-1.46875.25-2.53125.76563-3.34375.8125-1.29688 1.28125-1.98438 1.5625-3.17188l-.10938-.10937H.79688Zm0 0"/><path id="A" d="M.40625-3.3125c0 2.20313.79688 3.4375 2.54688 3.4375 1.6875 0 2.5-1.04687 2.5-2.40625 0-1.45312-.92188-2.1875-2.03125-2.1875-.78125 0-1.35938.48438-1.6875.875.01562-1.64062.42187-3.125 1.40625-3.125.45312 0 .78125.40625.95312 1.04688.04688.15625.15625.28125.35938.28125.23437 0 .65625-.1875.65625-.54688 0-.46875-.57813-1.20312-1.89063-1.20312-1.73437 0-2.8125 1.28125-2.8125 3.82812m1.32813.84375c0-.625.42187-1.3125 1.20312-1.3125.625 0 1.20313.51563 1.20313 1.71875 0 1.03125-.34375 1.76563-1.15625 1.76563-.84375 0-1.25-.96875-1.25-2.17188m0 0"/><path id="w" d="M.51563-2.53125C.51563-.76562 1.375.125 2.95313.125c.73437 0 1.73437-.375 2.01562-1.51562l-.3125-.14063c-.32812.73438-.73437 1.10938-1.5 1.10938-1.25 0-1.54687-1.3125-1.54687-2.29688 0-1.5625.60937-2.1875 1.34375-2.1875.48437 0 .78125.34375.98437.92188.07813.15625.14063.26562.34375.26562.20313 0 .60938-.14062.60938-.53125 0-.48437-.6875-1.01562-1.82813-1.01562-1.90625 0-2.54687 1.34375-2.54687 2.73437m0 0"/><path id="x" d="M.32813 0h2.5625v-.29687c-.75-.0625-.78125-.07813-.78125-.625V-3.375c0-.26562 0-.40625.07812-.5625.20313-.42187.65625-.76562 1.25-.76562.89063 0 1.01563.65625 1.01563 1.3125v2.46875c0 .54687-.04688.5625-.79688.625V0h2.5625v-.29687c-.75-.0625-.79687-.07813-.79687-.625V-3.375c0-.26562.01562-.40625.07812-.5625.17188-.4375.60938-.76562 1.20313-.76562.65625 0 1.0625.375 1.0625 1.3125v2.46875c0 .54687-.03125.5625-.79688.625V0h2.57813v-.29687c-.75-.0625-.79688-.07813-.79688-.625v-2.67188c0-1.0625-.57812-1.67187-1.5625-1.67187-.85937 0-1.48437.5625-1.84375.79687-.26562-.48437-.65625-.79687-1.40625-.79687-.79687 0-1.45312.53125-1.82812.79687l-.09375-.79687L.39063-5v.25l.39062.0625c.26563.04688.34375.07813.34375.46875v3.29688c0 .54687-.03125.5625-.79687.625Zm0 0"/></defs><path fill="none" stroke="#000" stroke-miterlimit="10" stroke-width=".39715" d="m160.1836 29.85936-124.57425 88.9805 101.69143 16.52734Zm0 0"/><use xlink:href="#a" x="168.07575" y="21.96743"/><use xlink:href="#b" x="10.33923" y="141.25249"/><use xlink:href="#c" x="145.19543" y="158.11325"/><use xlink:href="#d" x="7.55866" y="69.66326"/><use xlink:href="#e" x="14.89739" y="69.66326"/><use xlink:href="#f" x="21.14145" y="69.66326"/><use xlink:href="#g" x="25.12915" y="69.66326"/><use xlink:href="#h" x="32.9817" y="69.66326"/><use xlink:href="#i" x="36.33272" y="69.66326"/><use xlink:href="#j" x="44.18526" y="69.66326"/><use xlink:href="#h" x="50.75325" y="69.66326"/><use xlink:href="#k" x="54.10427" y="69.66326"/><use xlink:href="#l" x="60.81747" y="69.66326"/><use xlink:href="#h" x="67.91045" y="69.66326"/><use xlink:href="#m" x="71.26146" y="69.66326"/><use xlink:href="#n" x="77.50552" y="69.66326"/><use xlink:href="#o" x="84.30808" y="69.66326"/><use xlink:href="#p" x="32.32135" y="83.34631"/><use xlink:href="#q" x="36.78937" y="83.34631"/><use xlink:href="#q" x="40.27443" y="83.34631"/><use xlink:href="#r" x="43.75948" y="83.34631"/><use xlink:href="#q" x="53.10882" y="83.34631"/><use xlink:href="#q" x="56.59387" y="83.34631"/><use xlink:href="#s" x="60.0901" y="83.34631"/><use xlink:href="#t" x="32.32135" y="85.33531"/><use xlink:href="#u" x="38.07393" y="85.33531"/><use xlink:href="#v" x="42.24036" y="85.33531"/><use xlink:href="#w" x="50.35239" y="85.33531"/><use xlink:href="#x" x="55.55763" y="85.33531"/><use xlink:href="#y" x="156.63559" y="85.41006"/><use xlink:href="#u" x="162.38817" y="85.41006"/><use xlink:href="#z" x="166.5546" y="85.41006"/><use xlink:href="#w" x="174.66439" y="85.41006"/><use xlink:href="#x" x="179.86963" y="85.41006"/><use xlink:href="#y" x="69.9977" y="142.1325"/><use xlink:href="#u" x="75.75028" y="142.1325"/><use xlink:href="#A" x="79.91671" y="142.1325"/><use xlink:href="#w" x="88.0265" y="142.1325"/><use xlink:href="#x" x="93.23174" y="142.1325"/></svg>