<svg xmlns="http://www.w3.org/2000/svg" xmlns:xlink="http://www.w3.org/1999/xlink" width="145.656pt" height="87.897pt" viewBox="0 0 145.656 87.897"><defs><path id="a" d="M-.96875 1.0625v.29688c.125.01562.26563.03124.39063.03124C-.04687 1.39063.75 1.25 1.21875.9375c.54688-.39062.95313-1.03125 1.23438-2.20312l1.35937-5.875C3.90625-7.5 4-7.67187 4.29688-7.6875l.64062-.04687.09375-.34375H1.8125l-.07812.34375.6875.04687c.21875.01563.3125.10938.3125.3125 0 .0625-.01563.14063-.03125.23438L1.42188-1.67187C1.15625-.57812.84375.15624.48438.48438.09375.84375-.39062 1-.96875 1.0625m0 0"/><path id="b" d="M0 0h3.1875l.07813-.32812-.6875-.0625c-.20313 0-.29688-.125-.29688-.3125 0-.0625.01563-.17188.04688-.26563l.73437-3.25h.01563C3.60938-3.125 4.1875-1.95312 4.89063-.98437 5.45313-.21876 5.96875.03124 6.85938.04688l.5625.01562.09375-.34375c-.67188-.0625-.9375-.375-1.35938-.90625-.79687-.96875-1.57812-2.39062-2.0625-3.42187 1.04688-.875 2.01563-1.6875 3.09375-2.4375.65625-.46875.9375-.625 1.875-.6875l.0625-.34375H6.20313l-.04688.34375.45313.03125c.125.01562.15625.0625.15625.14062 0 .0625-.0625.14063-.17188.25L3.14063-4.34375h-.04688l.625-2.76562c.07813-.35938.1875-.5625.5-.57813l.64063-.04687.07812-.34375H1.73438l-.07813.34375.6875.04687c.20313.01563.29688.14063.29688.32813 0 .0625-.01563.15625-.04688.25L1.1875-.96875c-.07812.375-.1875.53125-.48437.5625L.0625-.32812Zm0 0"/><path id="c" d="M.25 0h5.96875l.59375-2.04687h-.34375C5.875-.60937 5.34375-.40625 4.03125-.40625c-1.20312 0-1.45312-.10937-1.45312-.48437 0-.125.03125-.29688.07812-.53125l1.3125-5.6875c.09375-.375.1875-.5625.48438-.57813l.70312-.04687.07813-.34375h-3.25l-.07813.34375.6875.04687c.20313.01563.28125.10938.28125.3125 0 .07813 0 .15625-.03125.26563L1.4375-.96875c-.09375.40625-.20312.53125-.48437.5625L.3125-.32812Zm0 0"/><path id="d" d="M.17188-.64062c0 .23437.35937.70312 1.29687.70312.875 0 1.4375-.40625 1.4375-1.15625 0-.8125-.71875-1.01562-.98437-1.04687v-.01563c.3125-.0625.8125-.28125.8125-.85937 0-.71875-.59375-.95313-1.21875-.95313-.73438 0-1.20313.39063-1.20313.73438 0 .20312.25.3125.35938.3125s.15624-.0625.1875-.15625C1-3.5 1.1875-3.75 1.5-3.75c.40625 0 .5.42188.5.71875C2-2.75 1.92188-2.25 1.45313-2.25c-.26563 0-.4375-.0625-.53125-.0625-.10938 0-.14063.0625-.14063.1875s.03125.20313.14063.20313c.09374 0 .26562-.0625.53125-.0625.40625 0 .6875.3125.6875.90625 0 .65625-.28125.92187-.67188.92187-.32812 0-.54687-.25-.6875-.67187C.73438-.9375.67188-1 .5625-1c-.15625 0-.39062.125-.39062.35938m0 0"/><path id="g" d="M.64063 0H2.625v-.1875l-.45312-.04687C2.04688-.25 1.98438-.28125 1.98438-.5v-3.4375l-.04688-.03125-1.29687.20313v.17187l.46875.0625c.125.03125.17187.07813.17187.26563V-.5c0 .21875-.0625.25-.20312.26563l-.4375.04687Zm0 0"/><path id="h" d="m.29688.73438.15625.125c.28125-.28126.78125-.70313.78125-1.15625 0-.3125-.17188-.5625-.4375-.5625-.25 0-.35938.17187-.35938.32812 0 .20313.17188.3125.17188.5625s-.125.5-.3125.70313m0 0"/><path id="i" d="m.125-1.17187.07813.14062H1.75v.59375c0 .15625-.0625.20313-.1875.21875l-.375.03125V0h1.65625v-.1875L2.5625-.21875c-.10937-.01562-.15625-.0625-.15625-.21875v-.59375H3v-.32812h-.59375v-2.54688h-.54687C1.26563-3.04687.65625-2.07812.125-1.17187m.51563-.1875c.3125-.59375.70312-1.23438 1.10937-1.90625v1.90625Zm0 0"/><path id="e" d="M.28125-1.40625C.28125-.42187.76563.0625 1.64063.0625c.40625 0 .96875-.20312 1.125-.82812l-.17188-.09376c-.1875.42188-.40625.625-.84375.625-.6875 0-.85937-.73437-.85937-1.28124 0-.85938.34375-1.21875.75-1.21875.26562 0 .4375.20312.54687.51562.04688.09375.07813.14063.1875.14063.125 0 .34375-.0625.34375-.29688 0-.26562-.375-.5625-1.01562-.5625-1.0625 0-1.42188.75-1.42188 1.53125m0 0"/><path id="f" d="M.1875 0h1.42188v-.17187c-.42188-.03126-.4375-.04688-.4375-.34375V-1.875c0-.15625 0-.23437.04687-.3125.10938-.23437.35938-.4375.6875-.4375.5 0 .5625.375.5625.73438v1.375c0 .29687-.01562.3125-.4375.34375V0h1.42188v-.17187c-.40625-.03126-.4375-.04688-.4375-.34375V-1.875c0-.15625.01562-.23437.04687-.3125.09375-.25.34375-.4375.67188-.4375.35937 0 .59375.21875.59375.73438v1.375c0 .29687-.03125.3125-.45313.34375V0h1.4375v-.17187c-.42187-.03126-.4375-.04688-.4375-.34375V-2c0-.59375-.32812-.9375-.875-.9375-.48437 0-.82812.3125-1.03125.45313-.14062-.28125-.35937-.45313-.78125-.45313-.4375 0-.8125.29688-1.01562.45313L1.125-2.9375l-.90625.15625v.14063l.21875.03125c.14063.01562.1875.04687.1875.26562v1.82813c0 .29687-.01562.3125-.4375.34375Zm0 0"/></defs><path fill="none" stroke="red" stroke-miterlimit="10" stroke-width=".39756" d="m105.03125 71.07422-6.1211-3.53516 3.53126-6.1211 6.125 3.53516-3.53516 6.1211"/><path fill="none" stroke="#000" stroke-miterlimit="10" stroke-width=".39756" d="m13.18748 18.05077 91.84377 53.02345 24.7461-42.85938Zm0 0"/><use xlink:href="#a" x="4.14122" y="12.26832"/><use xlink:href="#b" x="109.41958" y="83.539"/><use xlink:href="#c" x="134.16514" y="23.82602"/><use xlink:href="#d" x="41.92997" y="52.92031"/><use xlink:href="#e" x="46.44057" y="52.92031"/><use xlink:href="#f" x="49.33535" y="52.92031"/><use xlink:href="#g" x="121.79236" y="51.20037"/><use xlink:href="#h" x="124.99153" y="51.20037"/><use xlink:href="#i" x="127.3086" y="51.20037"/><use xlink:href="#e" x="131.81868" y="51.20037"/><use xlink:href="#f" x="134.71346" y="51.20037"/></svg>