<svg xmlns="http://www.w3.org/2000/svg" xmlns:xlink="http://www.w3.org/1999/xlink" width="172.444pt" height="177.615pt" viewBox="0 0 172.444 177.615"><defs><path id="a" d="M.59375-1.25C1.32813-.28125 3.125.28125 4.48438.28125c3.625-.04687 4.73437-2.125 4.73437-4.14062 0-1.6875-.92187-2.73438-2.79687-3.70313-1.09375-.5625-2.40625-1.20312-2.40625-2.60937 0-1.32813.96875-2.375 2.59375-2.375 1.89062 0 2.25.875 2.25 2.92187h.54687l.65625-2.625c-.78125-.64062-2.17187-.95312-3.32812-.95312-3.26563 0-4.29688 2.14062-4.29688 3.70312 0 1.75 1.20313 2.67188 2.70313 3.40625 1.5.75 2.40625 1.53125 2.40625 3.01563 0 1.54687-1.25 2.70312-2.82813 2.70312-2.5 0-2.96875-1.92187-3.09375-3.73437h-.54687Zm0 0"/><path id="b" d="M0 0h5.10938l.10937-.53125-1.10937-.07812c-.3125-.03126-.45313-.20313-.45313-.5 0-.125.01563-.28126.0625-.4375l1.17188-5.1875h.03125c.85937 1.75 1.76562 3.60937 2.90625 5.17187C8.71875-.35937 9.53125.04688 10.96875.07813l.90625.01562.14063-.54687C10.9375-.5625 10.5-1.04687 9.82813-1.89062c-1.25-1.5625-2.51563-3.82813-3.29688-5.48438 1.6875-1.40625 3.23438-2.6875 4.95313-3.89062 1.0625-.75 1.5-1 3.01562-1.10938l.07813-.53125H9.92188l-.07813.53125.71875.0625c.20313.01563.26563.09375.26563.21875 0 .09375-.10938.23438-.28125.39063l-5.51563 4.75H4.9375l1-4.40625c.14063-.57813.3125-.89063.79688-.9375l1.03125-.07813.125-.53125H2.78125l-.14062.53125 1.10937.07813c.32813.03125.45313.21875.45313.51562q0 .1875-.04688.42188l-2.25 9.8125c-.14062.59375-.3125.85937-.78125.89062l-1.03125.125Zm0 0"/><path id="c" d="M.39063 0H5.5l.125-.53125-1.10937-.07812c-.32813-.03126-.46875-.20313-.46875-.5 0-.125.03125-.28126.0625-.4375l2.21875-9.8125c.14062-.57813.32812-.89063.79687-.9375l1.03125-.07813.125-.53125H3.17188l-.14063.53125 1.125.07813c.3125.03125.45313.21875.45313.51562 0 .125-.01563.26563-.0625.42188l-2.25 9.8125c-.125.59375-.3125.85937-.76563.89062L.5-.53125Zm0 0"/><path id="d" d="M.34375-1.73437c0 1.14062.84375 1.84375 2.21875 1.84375 1.39063 0 2.20313-.6875 2.20313-1.84375 0-.90625-.54688-1.45313-1.23438-1.64063.54688-.14062 1.01563-.60937 1.01563-1.34375 0-1.0625-.79688-1.625-1.98438-1.625s-2 .59375-2 1.625c0 .73438.48438 1.20313 1.03125 1.34375-.67187.1875-1.25.73438-1.25 1.64063m1.1875.03124c0-.8125.35938-1.42187 1.03125-1.42187.67188 0 1.03125.60938 1.03125 1.42188 0 .82812-.32812 1.4375-1.03125 1.4375-.6875 0-1.03125-.60938-1.03125-1.4375m.15625-3.0625c0-.70312.3125-1.21875.875-1.21875.57813 0 .875.51563.875 1.21875 0 .65625-.28125 1.25-.875 1.25-.57812 0-.875-.59375-.875-1.25m0 0"/><path id="e" d="m.48438 1.17188.23437.20312C1.1875.9375 1.98438.26563 1.98438-.48437c0-.48438-.28126-.89063-.71875-.89063-.375 0-.5625.28125-.5625.51563 0 .34375.26562.51562.26562.92187 0 .39063-.1875.78125-.48437 1.10938m0 0"/><path id="f" d="M.42188-1.03125c0 .39063.54687 1.14063 1.96875 1.14063 1.625 0 2.28125-.95313 2.28125-2.10938 0-1.10937-.64063-2-2-2-.5625 0-1.10938.25-1.42188.51563l.1875-1.54688c.03125-.28125.07813-.3125.29688-.3125H4.125l.28125-.79687-.04687-.09375H1.03125l-.09375.07812L.75-3.04687l.29688.1875c.39062-.4375.75-.65625 1.23437-.65625.60938 0 1.1875.46875 1.1875 1.625 0 .95312-.3125 1.625-1.03125 1.625-.54687 0-.85937-.39063-1.09375-1.0625C1.29688-1.48438 1.1875-1.59375 1-1.59375c-.25 0-.57812.21875-.57812.5625m0 0"/><path id="g" d="M.28125-.125.39063 0H4.4375l.35938-1.40625-.3125-.04687c-.21875.48437-.39063.5625-.76563.5625h-2.375C1.48438-1.3125 1.92188-1.92187 2.875-2.5c.98438-.625 1.64063-1.07812 1.64063-2.09375 0-1.29687-.89063-1.75-1.96875-1.75-1.25 0-2.04688.6875-2.04688 1.32813 0 .35937.42188.53125.64063.53125.1875 0 .28124-.10938.32812-.3125.15625-.67188.48438-1.1875 1.01563-1.1875.60937 0 .8125.53125.8125 1.20312 0 .82813-.32813 1.46875-1.25 2.23438C.82813-1.5.39063-.8125.28124-.125m0 0"/><path id="j" d="M1.01563 0H4.1875v-.3125L3.48438-.375c-.21875-.01562-.3125-.07812-.3125-.42187v-5.5l-.07813-.04688-2.0625.32813V-5.75l.75.10938c.20313.03125.26563.10937.26563.40625v4.4375c0 .34375-.09375.40625-.3125.42187l-.71875.0625Zm0 0"/><path id="k" d="M.28125-1.03125c0 .39063.5625 1.14063 2.04688 1.14063C3.75.10938 4.64063-.5625 4.64063-1.75c0-1.29687-1.125-1.60937-1.57813-1.65625v-.04687c.5-.09375 1.3125-.4375 1.3125-1.35938 0-1.15625-.96875-1.53125-1.95312-1.53125C1.25-6.34375.5-5.71875.5-5.17187c0 .32812.40625.5.57813.5.17187 0 .25-.09375.29687-.25.21875-.65625.51563-1.0625 1.01563-1.0625.65625 0 .79687.67187.79687 1.14062s-.125 1.25-.875 1.25c-.40625 0-.6875-.10937-.85937-.10937-.15626 0-.20313.10937-.20313.3125 0 .1875.04688.3125.20313.3125.17187 0 .4375-.10938.85937-.10938.65625 0 1.10938.5 1.10938 1.46875 0 1.03125-.45313 1.45313-1.0625 1.45313-.53125 0-.90625-.39063-1.10938-1.0625-.0625-.1875-.17187-.28126-.34375-.28126-.25 0-.625.20313-.625.57813m0 0"/><path id="l" d="M.375-2.95312C.375-1 1.0625.10938 2.625.10938c1.51563 0 2.21875-.9375 2.21875-2.14063 0-1.28125-.8125-1.9375-1.79687-1.9375-.6875 0-1.20313.42188-1.5.78125 0-1.46875.375-2.79687 1.25-2.79687.40625 0 .6875.375.84375.95312.03125.125.14062.23438.3125.23438.21875 0 .59375-.17188.59375-.48438 0-.42187-.51563-1.0625-1.6875-1.0625-1.53125 0-2.48438 1.125-2.48438 3.39063m1.17188.75c0-.54688.375-1.17188 1.0625-1.17188.5625 0 1.0625.46875 1.0625 1.53125 0 .92188-.29688 1.57813-1.01563 1.57813-.76562 0-1.10937-.85938-1.10937-1.9375m0 0"/><path id="y" d="M0-5.03125h.25c.20313-.8125 2-1.5 3.57813-1.5h.76562v-.85937h-.76562C2.3125-7.39062 0-6.70312 0-5.34375Zm0 0"/><path id="z" d="M0-6.53125h3.73438v-.85937H0Zm0 0"/><path id="A" d="M0-6.53125c3.07813 0 4.15625-.79687 4.46875-1.53125.4375.70313 1.29688 1.53125 4.48438 1.53125v-.85937c-3.375 0-4.07813-.89063-4.35938-1.5h-.25c-.26562.60937-1 1.5-4.34375 1.5Zm0 0"/><path id="B" d="M0-6.53125h.76563c1.57812 0 3.375.6875 3.59375 1.5h.23437v-.3125c0-1.35937-2.3125-2.04687-3.82812-2.04687H0Zm0 0"/><path id="C" d="m.20313-1.875.125.21875h2.46875v.95313c0 .26562-.10938.32812-.29688.34375l-.60937.04687V0h2.65625v-.3125l-.4375-.03125c-.1875-.03125-.25-.09375-.25-.35937v-.95313h.9375v-.51562h-.9375v-4.0625h-.89063C2.03125-4.875 1.04688-3.3125.20313-1.875m.8125-.29687c.5-.95313 1.125-1.96875 1.78125-3.03125v3.03125Zm0 0"/><path id="h" d="M.45313-2.25c0 1.5625.76562 2.35938 2.17187 2.35938.65625 0 1.53125-.34375 1.79688-1.34375l-.28125-.125c-.28125.65625-.65625.98437-1.34375.98437-1.10938 0-1.35938-1.17187-1.35938-2.04687 0-1.39063.54688-1.9375 1.1875-1.9375.42188 0 .6875.3125.89063.8125.04687.14062.10937.23437.29687.23437s.54688-.10937.54688-.46875c0-.4375-.625-.90625-1.64063-.90625-1.6875 0-2.26562 1.20313-2.26562 2.4375m0 0"/><path id="i" d="M.29688 0h2.28125v-.26562C1.90625-.3125 1.875-.34375 1.875-.8125V-3c0-.23437 0-.375.07813-.5.17187-.375.57812-.6875 1.09375-.6875.8125 0 .90625.59375.90625 1.17188V-.8125c0 .46875-.03125.5-.70313.54688V0h2.28125v-.26562c-.67187-.04688-.70312-.07813-.70312-.54688V-3c0-.23437.01562-.35937.07812-.51562.125-.375.53125-.67188 1.0625-.67188.57813 0 .9375.32813.9375 1.17188V-.8125c0 .46875-.03125.5-.70312.54688V0h2.28125v-.26562c-.65625-.04688-.70313-.07813-.70313-.54688v-2.39062c0-.9375-.5-1.48438-1.39062-1.48438-.76563 0-1.3125.5-1.64063.71875-.23437-.4375-.59375-.71875-1.23437-.71875-.71875 0-1.3125.46875-1.64063.71875l-.09375-.71875-1.4375.23438v.23437l.35938.04688C.9375-4.14062 1-4.09375 1-3.75v2.9375c0 .46875-.03125.5-.70312.54688Zm0 0"/><path id="m" d="M.45313-3.17187c0 2 1.01562 3.3125 3.40625 3.3125.65625 0 1.64062-.10938 2.1875-.45313l.10937-1.8125h-.35937C5.45313-1.10937 5.04688-.28125 4-.28125c-1.67187 0-1.89062-1.98437-1.89062-3.03125 0-.6875.125-2.85937 1.8125-2.85937 1.20312 0 1.51562.96875 1.73437 1.65625h.35938V-6.1875C5.45313-6.53125 4.46875-6.60937 4-6.60937c-1.3125 0-2.20312.375-2.75.98437-.5625.64063-.79687 1.51563-.79687 2.45313m0 0"/><path id="n" d="m1.04688-5.10937.21874.25 1.17188-.875c.14063-.09375.25-.17188.34375-.17188s.23438.07813.35938.17188l1.17187.875.21875-.25L3.20313-6.6875c-.14063-.15625-.29688-.28125-.42188-.28125s-.26562.10938-.40625.28125ZM.375-2.28125c0 1.48438.70313 2.39063 2.40625 2.39063 1.70313 0 2.42188-.90625 2.42188-2.39063 0-1.5-.71875-2.40625-2.42188-2.40625S.375-3.78125.375-2.28125m1.46875 0c0-1.25.26563-1.98437.9375-1.98437.67188 0 .9375.73437.9375 1.98437S3.45313-.3125 2.78125-.3125c-.67187 0-.9375-.71875-.9375-1.96875m0 0"/><path id="o" d="M.34375-4.10937h.54688v3.01562c0 .85938.625 1.20313 1.15625 1.20313.39062 0 .96875-.17188 1.48437-.5L3.4375-.6875c-.125.0625-.3125.09375-.53125.09375-.35937 0-.59375-.26562-.59375-.85937v-2.65625h.96875v-.46875H2.3125V-5.75h-.54687L.9375-4.57812H.34375Zm0 0"/><path id="p" d="M1.8125-5.0625 2-4.76562l1.71875-.96875c.32813-.1875.64063-.375.64063-.60938 0-.25-.26563-.57812-.5-.57812-.1875 0-.34375.10937-.6875.46875ZM.375-2.28125C.375-1.01562.92188.10938 2.65625.10938 3.76563.10938 4.375-.42187 4.6875-1.25l-.32812-.1875c-.28125.53125-.6875.82813-1.25.82813-.9375 0-1.26563-.76563-1.26563-1.75h2.42188c.34375 0 .5-.07813.5-.39063 0-.76562-.29688-1.9375-2.09375-1.9375C1-4.6875.375-3.59375.375-2.28125m1.46875-.51562c0-.6875.1875-1.46875.79688-1.46875.5625 0 .65625.71875.65625 1.15625 0 .25-.0625.3125-.28125.3125Zm0 0"/><path id="q" d="M.23438 0h2.625v-.35937C2.3125-.39062 2.25-.42187 2.25-.8125v-6.04687l-.07812-.0625-1.875.25v.32812l.3125.04688c.15624.03125.21874.10937.21874.5V-.8125c0 .39063-.0625.42188-.59374.45313Zm0 0"/><path id="r" d="M.375-2.28125C.375-1.01562.92188.10938 2.65625.10938 3.76563.10938 4.375-.42187 4.6875-1.25l-.32812-.1875c-.28125.53125-.6875.82813-1.25.82813-.9375 0-1.26563-.76563-1.26563-1.75h2.42188c.34375 0 .5-.07813.5-.39063 0-.76562-.29688-1.9375-2.09375-1.9375C1-4.6875.375-3.59375.375-2.28125m1.46875-.51562c0-.6875.1875-1.46875.79688-1.46875.5625 0 .65625.71875.65625 1.15625 0 .25-.0625.3125-.28125.3125Zm0 0"/><path id="s" d="M.23438 1.78125v.35938h2.78125v-.35938c-.6875-.01562-.76563-.0625-.76563-.45312V0c.17188.0625.46875.10938.73438.10938 1.375 0 2.48437-.48438 2.48437-2.53125 0-1.54688-.8125-2.26563-1.6875-2.26563-.65625 0-1.0625.29688-1.53125.64063l-.15625-.64063-1.79687.26563v.34375l.3125.04687c.15624.01563.21874.09375.21874.46875v4.89063c0 .39062-.0625.4375-.59374.45312M2.25-1.42187v-1.46875c0-.20313 0-.39063.0625-.51563.10938-.34375.375-.5625.76563-.5625.4375 0 .92187.23438.92187 1.75C4-1.04687 3.73438-.3125 3.01563-.3125c-.40625 0-.625-.21875-.71875-.625C2.26563-1.07812 2.25-1.25 2.25-1.42187m0 0"/><path id="t" d="m.28125-4.07812.32813.04687C.75-4.01562.8125-3.9375.8125-3.5625v2.26563c0 1.09375.67188 1.40625 1.35938 1.40625.79687 0 1.28125-.42188 1.65625-.64063L3.90625 0h1.9375v-.35937C5.3125-.39062 5.25-.42187 5.25-.8125V-4.625l-.07812-.0625-1.89063.26563v.34375l.32813.04687c.14062.01563.21875.09375.21875.46875v1.96875c0 .15625-.01563.39063-.07813.53125-.07812.21875-.32812.4375-.73437.4375-.5 0-.79688-.29687-.79688-1.01562V-4.625l-.0625-.0625-1.875.26563Zm0 0"/><path id="u" d="M.40625-1.73437.51563-.34375c.35937.32813 1.0625.45313 1.59375.45313 1.14062 0 1.92187-.5 1.92187-1.51563 0-.79687-.51562-1.1875-1.375-1.51562-.54687-.20313-.95312-.42188-.95312-.79688 0-.28125.21874-.54687.60937-.54687.46875 0 .875.4375 1.04688 1.14062h.34375v-1.23437c-.39063-.23438-.90625-.32813-1.39063-.32813-1.15625 0-1.85937.53125-1.85937 1.48438 0 .67187.54687 1.10937 1.375 1.42187.48437.17188.9375.45313.9375.89063 0 .35937-.23438.57812-.64063.57812C1.51563-.3125 1-.96875.76563-1.73437Zm0 0"/><path id="v" d="M.375-2.28125c0 1.48438.70313 2.39063 2.40625 2.39063 1.70313 0 2.42188-.90625 2.42188-2.39063 0-1.5-.71875-2.40625-2.42188-2.40625S.375-3.78125.375-2.28125m1.46875 0c0-1.25.26563-1.98437.9375-1.98437.67188 0 .9375.73437.9375 1.98437S3.45313-.3125 2.78125-.3125c-.67187 0-.9375-.71875-.9375-1.96875m0 0"/><path id="w" d="M.29688 0h2.5v-.35937L2.625-.375c-.20312-.01562-.3125-.04687-.3125-.35937v-2.23438c0-.20312.03125-.40625.10938-.54687.10937-.23438.35937-.45313.75-.45313.46875 0 .71875.29688.75.84375v2.39063c0 .3125-.10938.34375-.29688.35937l-.20312.01563V0H5.9375v-.35937c-.54687-.03125-.625-.0625-.625-.45313V-3.25c0-.875-.4375-1.4375-1.39062-1.4375-.54688 0-1 .28125-1.60938.64063l-.125-.64063-1.84375.26563v.34375l.32813.04687c.15624.01563.23437.09375.23437.46875v2.75c0 .39063-.07812.42188-.60937.45313Zm0 0"/><path id="x" d="M.29688.89063c0 .90625.96875 1.35937 2.3125 1.35937.40625 0 1.07812-.07812 1.54687-.32812.51563-.26563.85938-.76563.85938-1.4375 0-1.125-.85938-1.46875-1.84375-1.46875H2.3125c-.46875 0-.64062-.15626-.64062-.3125 0-.21876.25-.3125.375-.34375.17187.01562.3125.01562.42187.01562 1.10938 0 2.10938-.40625 2.10938-1.51562 0-.28125-.10938-.5625-.23438-.71875l.60938-.10938.1875-.71875-.07813-.09375L3.875-4.375c-.3125-.1875-.82812-.3125-1.32812-.3125C.85938-4.6875.375-3.82812.375-3.09375c0 .76563.5625 1.23438 1.14063 1.32813V-1.75C.90625-1.59375.5-1.26562.5-.89062c0 .40625.46875.79687.875.875v.03125c-.39062.07812-1.07812.25-1.07812.875m1.25-.07813c0-.26562.10937-.4375.23437-.53125.14063-.07812.42188-.125.82813-.125.79687 0 1.28125.17188 1.28125.73438 0 .67187-.51563.9375-1.14063.9375-.64062 0-1.20312-.35938-1.20312-1.01563m.28124-3.9375c0-.79687.32813-1.14062.70313-1.14062s.70313.34375.70313 1.125c0 .67187-.28125 1.07812-.70313 1.07812-.40625 0-.70312-.42187-.70312-1.0625m0 0"/></defs><path fill="none" stroke="#000" stroke-miterlimit="10" stroke-width=".39722" d="m23.90625 100.39063 55.35547 50.10156L90.64843 26.63674Zm0 0"/><use xlink:href="#a" x="6.61966" y="120.61495"/><use xlink:href="#b" x="86.27882" y="170.41837"/><use xlink:href="#c" x="86.80512" y="19.62257"/><use xlink:href="#d" x="10.18516" y="138.8043"/><use xlink:href="#e" x="15.29943" y="138.8043"/><use xlink:href="#f" x="19.00355" y="138.8043"/><use xlink:href="#g" x="24.11782" y="138.8043"/><use xlink:href="#h" x="31.32899" y="138.8043"/><use xlink:href="#i" x="35.95666" y="138.8043"/><use xlink:href="#j" x="10.76429" y="66.00303"/><use xlink:href="#j" x="15.87856" y="66.00303"/><use xlink:href="#e" x="20.99283" y="66.00303"/><use xlink:href="#k" x="24.69695" y="66.00303"/><use xlink:href="#l" x="29.81123" y="66.00303"/><use xlink:href="#h" x="37.02163" y="66.00303"/><use xlink:href="#i" x="41.6493" y="66.00303"/><use xlink:href="#m" x="91.97246" y="84.39971"/><use xlink:href="#n" x="98.49688" y="84.39971"/><use xlink:href="#o" x="104.0481" y="84.39971"/><use xlink:href="#p" x="107.59333" y="84.39971"/><use xlink:href="#q" x="114.56462" y="84.39971"/><use xlink:href="#r" x="117.54381" y="84.39971"/><use xlink:href="#s" x="124.52504" y="84.39971"/><use xlink:href="#q" x="130.36424" y="84.39971"/><use xlink:href="#t" x="133.34343" y="84.39971"/><use xlink:href="#u" x="139.31173" y="84.39971"/><use xlink:href="#q" x="145.61768" y="84.39971"/><use xlink:href="#v" x="148.59686" y="84.39971"/><use xlink:href="#w" x="154.14808" y="84.39971"/><use xlink:href="#x" x="160.19583" y="84.39971"/><use xlink:href="#y" x="111.42972" y="96.56449"/><use xlink:href="#z" x="115.26294" y="96.56449"/><use xlink:href="#z" x="118.2322" y="96.56449"/><use xlink:href="#z" x="121.19152" y="96.56449"/><use xlink:href="#A" x="124.16078" y="96.56449"/><use xlink:href="#z" x="132.33368" y="96.56449"/><use xlink:href="#z" x="135.30294" y="96.56449"/><use xlink:href="#z" x="138.26226" y="96.56449"/><use xlink:href="#B" x="141.23152" y="96.56449"/><use xlink:href="#j" x="111.42972" y="98.33279"/><use xlink:href="#C" x="116.54399" y="98.33279"/><use xlink:href="#e" x="121.65826" y="98.33279"/><use xlink:href="#g" x="125.36239" y="98.33279"/><use xlink:href="#h" x="132.57355" y="98.33279"/><use xlink:href="#i" x="137.20122" y="98.33279"/></svg>