<svg xmlns="http://www.w3.org/2000/svg" xmlns:xlink="http://www.w3.org/1999/xlink" width="280.827" height="175.902" viewBox="0 0 280.827 175.902"><defs><path id="a" d="M0 0h6.45313c4.21875 0 6.65625-1.53125 8.17187-3.8125 1.21875-1.8125 1.42188-3.57812 1.42188-4.84375 0-1.70312-.60938-3.39062-1.8125-4.40625-1.23438-1.03125-3.125-1.5-5.45313-1.5H3.10938l-.125.60938 1.25.07812c.35937.03125.5.20313.5.54688 0 .125-.03125.3125-.07813.51562l-2.5 11.0625C2-1.04687 1.8125-.78125 1.29688-.73437l-1.1875.125Zm4.17188-1.54687c0-.09376 0-.17188.01562-.26563l2.53125-11.25c.1875-.71875.46875-.78125 2.3125-.78125 4.39063.09375 4.75 3.04688 4.75 4.71875 0 1.82813-.42187 3.51563-1.375 5.09375-1.20312 1.96875-3 3.29688-6.48437 3.29688-1.03125 0-1.75-.14063-1.75-.8125m0 0"/><path id="b" d="M.21875 0h10.98438l1.07812-3.70312h-.625c-1.07812 2.60937-2.01562 2.96875-4.625 2.96875-2.48437 0-2.625-.3125-2.625-.875 0-.23438.07813-.54688.17188-.96875l1.0625-4.60938h2.76562c1.5625 0 1.85938.3125 1.85938 1.23438 0 .17187 0 .34375-.03125.57812h.625l1-4.39062h-.65625c-.53125 1.45312-.76563 1.78125-2.625 1.78125h-2.75l1.1875-5.23438c.10937-.51562.25-.625.60937-.625h2.53125c2.0625 0 2.48438.53125 2.48438 1.67188 0 .51562-.07813 1.10937-.07813 1.10937h.64063l.78125-3.5H3.34375l-.15625.60938 1.26563.07812c.35937.03125.51562.1875.51562.51563 0 .14062-.01562.29687-.0625.5L2.39063-1.75c-.17188.71875-.35938.96875-.85938 1.01563l-1.1875.125Zm0 0"/><path id="c" d="M.21875 0h6.125l.125-.60937-1.57812-.10938C4.5-.73437 4.34375-.92187 4.34375-1.23437c0-.125.03125-.26563.0625-.45313L5.57813-6.875H8.375c1.54688 0 1.84375.28125 1.84375 1.1875 0 .17188 0 .375-.03125.59375h.64063L11.8125-9.5h-.625c-.54687 1.48438-.79687 1.8125-2.65625 1.8125H5.76563l1.25-5.51562c.125-.53125.25-.64063.625-.64063h2.57812c2.0625 0 2.46875.53125 2.46875 1.65625 0 .53125-.07812 1.09375-.07812 1.09375h.65625l.78125-3.46875H3.34375l-.14062.60938 1.25.10937c.35937.01563.51562.20313.51562.53125 0 .10938-.01562.26563-.0625.42188L2.39063-1.6875c-.15625.64063-.35938.92188-.85938.96875l-1.1875.10938Zm0 0"/><path id="d" d="m.21875-2.125.15625.26563h2.76563v1.0625c0 .29687-.10938.375-.3125.39062l-.6875.0625V0H5.125v-.34375l-.5-.04687C4.40625-.42187 4.34375-.5 4.34375-.79687v-1.0625h1.0625v-.59375h-1.0625v-4.57813h-1C2.28125-5.48437 1.17188-3.73437.21875-2.125m.92188-.32812c.57812-1.0625 1.26562-2.21875 2-3.42188v3.42188Zm0 0"/><path id="g" d="M.46875-1.15625c0 .42188.625 1.28125 2.21875 1.28125 1.84375 0 2.57813-1.07812 2.57813-2.39062 0-1.23438-.71875-2.25-2.25-2.25-.64063 0-1.25.28125-1.60938.57812l.20313-1.73437c.04687-.3125.09374-.34375.34375-.34375h2.70312l.3125-.90625-.0625-.10938h-3.75l-.09375.09375-.21875 3.5.34375.21875c.42188-.5.84375-.73437 1.375-.73437.70313 0 1.34375.51562 1.34375 1.82812 0 1.07813-.35937 1.82813-1.15625 1.82813-.625 0-.96875-.4375-1.21875-1.1875-.07812-.20313-.20312-.3125-.40625-.3125-.28125 0-.65625.25-.65625.64062m0 0"/><path id="h" d="M.3125-1.15625C.3125-.73437.95313.125 2.625.125c1.60938 0 2.60938-.75 2.60938-2.09375 0-1.45312-1.28125-1.8125-1.78125-1.875v-.04687c.5625-.10938 1.46875-.5 1.46875-1.53125 0-1.29688-1.07813-1.73438-2.1875-1.73438-1.32813 0-2.17188.71875-2.17188 1.3125 0 .39063.45313.57813.65625.57813.1875 0 .28125-.09375.34375-.28125.23438-.75.57813-1.20313 1.125-1.20313.73438 0 .90625.76563.90625 1.29688 0 .51562-.14062 1.40625-.98437 1.40625-.45313 0-.78125-.125-.96875-.125-.17188 0-.23438.125-.23438.35937 0 .20313.0625.34375.23438.34375.1875 0 .5-.10937.96875-.10937.73437 0 1.25.54687 1.25 1.64062 0 1.17188-.51563 1.64063-1.20313 1.64063-.59375 0-1.01562-.4375-1.25-1.20313-.07812-.20312-.20312-.3125-.39062-.3125-.28126 0-.70313.23438-.70313.65625m0 0"/><path id="e" d="M.51563-2.53125C.51563-.76562 1.375.125 2.95313.125c.75 0 1.73437-.375 2.03125-1.51562l-.3125-.14063C4.34375-.79687 3.9375-.42187 3.15625-.42187c-1.25 0-1.54687-1.3125-1.54687-2.29688 0-1.57812.625-2.20312 1.34375-2.20312.48437 0 .78125.34375 1 .92187.0625.17188.14062.26563.34375.26563.20312 0 .60937-.125.60937-.53125 0-.48438-.6875-1.01563-1.84375-1.01563-1.90625 0-2.54687 1.34375-2.54687 2.75m0 0"/><path id="f" d="M.34375 0h2.5625v-.29687c-.75-.0625-.78125-.07813-.78125-.625v-2.46875c0-.26563 0-.40625.07813-.54688.1875-.4375.65625-.78125 1.23437-.78125.90625 0 1.01563.65625 1.01563 1.3125v2.48438c0 .54687-.03125.5625-.79688.625V0h2.57813v-.29687c-.75-.0625-.79688-.07813-.79688-.625v-2.46875c0-.26563.01563-.39063.07813-.5625.17187-.42188.60937-.76563 1.20312-.76563.65625 0 1.0625.375 1.0625 1.3125v2.48438c0 .54687-.03125.5625-.79687.625V0H9.5625v-.29687c-.75-.0625-.79687-.07813-.79687-.625v-2.6875c0-1.0625-.5625-1.67188-1.5625-1.67188-.85938 0-1.48438.5625-1.84375.79688-.26563-.48438-.67188-.79688-1.40625-.79688-.8125 0-1.46875.53125-1.82813.79688l-.10937-.79688-1.625.26563v.25l.39062.0625c.26563.04687.34375.09375.34375.46875v3.3125c0 .54687-.03125.5625-.78125.625Zm0 0"/></defs><path fill="none" stroke="#000" stroke-miterlimit="10" stroke-width=".39825" d="m96.52734 145.85547 154.54292-89.22653L29.60549 29.94535Zm0 0"/><use xlink:href="#a" x="88.28162" y="168.33248"/><use xlink:href="#b" x="258.98546" y="63.91081"/><use xlink:href="#c" x="7.4664" y="22.03361"/><use xlink:href="#d" x="181.71306" y="116.1926"/><use xlink:href="#e" x="189.84405" y="116.1926"/><use xlink:href="#f" x="195.06375" y="116.1926"/><use xlink:href="#g" x="128.80665" y="35.25147"/><use xlink:href="#e" x="136.93989" y="35.25147"/><use xlink:href="#f" x="142.15959" y="35.25147"/><use xlink:href="#h" x="32.08823" y="91.41886"/><use xlink:href="#e" x="40.22147" y="91.41886"/><use xlink:href="#f" x="45.44117" y="91.41886"/></svg>