<svg xmlns="http://www.w3.org/2000/svg" xmlns:xlink="http://www.w3.org/1999/xlink" width="136.936pt" height="137.397pt" viewBox="0 0 136.936 137.397"><defs><path id="a" d="M-.21875 0h2.625l.07813-.32812-.64063-.0625C1.6875-.40625 1.625-.48437 1.625-.59375c0-.0625.03125-.15625.0625-.23437.39063-.75.75-1.5 1.1875-2.28125H5.5l.28125 2.40625s-.0625.28124-.3125.3125l-.625.0625L4.78125 0h2.875l.07813-.32812L7.28125-.375c-.35937-.03125-.40625-.20312-.46875-.67187L5.95313-8.0625H5.125L3.15625-4.625c-.59375 1.04688-1.5625 2.78125-1.98437 3.46875-.375.60938-.57813.73438-.9375.76563l-.39063.0625Zm3.32813-3.5625 1.90625-3.42187.42187 3.42187Zm0 0"/><path id="b" d="M0 0h3.53125c2.82813 0 3.39063-1.45312 3.39063-2.42187 0-1.21875-.90625-1.76563-1.76563-1.92188l.01563-.01562C6.71875-4.54687 7.375-5.4375 7.375-6.3125c0-.9375-.54687-1.75-2.70312-1.75H1.71875l-.0625.32813.6875.0625c.20313.01562.28125.10937.28125.29687 0 .0625-.01562.17188-.04687.28125l-1.375 6.125C1.10937-.57812 1-.45312.71875-.40625L.0625-.32812Zm2.32813-.89062c0-.09376.01562-.17188.04687-.26563l.67188-2.98437H3.5c1.15625 0 2.17188.32812 2.17188 1.65625 0 1.04687-.64063 2.07812-2.20313 2.07812-.90625 0-1.14062-.1875-1.14062-.48437M3.125-4.54687 3.73438-7.25c.09375-.35937.15625-.42187.9375-.42187.96875 0 1.51562.5 1.51562 1.3125 0 1.21875-1.01562 1.8125-2.29687 1.8125Zm0 0"/><path id="c" d="M.60938-3.20312c0 1.54687.75 3.375 3.64062 3.375.84375 0 1.625-.10938 2.375-.48438l.57813-1.85937h-.35938C6.20313-1 5.625-.23437 4.1875-.23437c-1.35937 0-2.32812-.875-2.32812-2.67188 0-1.04687.28124-2.34375.82812-3.26562.59375-.98438 1.5-1.67188 2.76563-1.67188 1.46875 0 1.89062.6875 1.89062 1.96875h.35938l.42187-1.75c-.67187-.42187-1.76562-.625-2.57812-.625-2.20313 0-3.46875 1.03125-4.14063 2.125C.75-5.09375.60938-4 .60938-3.20312m0 0"/><path id="d" d="M0 0h3.57813C5.90625 0 7.25-.84375 8.09375-2.10937c.67188-1 .79688-1.98438.79688-2.67188 0-.95312-.34375-1.89062-1.01563-2.45312-.67187-.5625-1.71875-.82813-3.01562-.82813H1.71875l-.0625.32813.6875.0625c.20313 0 .28125.10937.28125.29687 0 .0625-.01562.17188-.04687.28125L1.1875-.96875C1.10938-.57812 1-.4375.71875-.40625L.0625-.32812Zm2.3125-.85937V-1l1.40625-6.23437c.10938-.39063.26563-.4375 1.28125-.4375 2.4375.04687 2.625 1.6875 2.625 2.625 0 1-.23437 1.9375-.75 2.8125C6.20313-1.14062 5.20313-.40625 3.28125-.40625c-.57812 0-.96875-.07812-.96875-.45312m0 0"/><path id="e" d="M.125 0h6.07813l.59375-2.04687h-.34375c-.59375 1.4375-1.125 1.64062-2.5625 1.64062-1.375 0-1.45313-.17187-1.45313-.48437 0-.125.04688-.29688.09375-.53125l.59375-2.5625h1.53125c.85938 0 1.03125.17187 1.03125.6875 0 .09375 0 .1875-.01562.3125h.34375l.54687-2.42188h-.35937c-.29688.79688-.42188.98438-1.45313.98438H3.21875l.67188-2.89063c.04687-.29687.125-.35937.32812-.35937H5.625c1.14063 0 1.375.29687 1.375.9375 0 .28125-.04687.60937-.04687.60937h.35937l.42188-1.9375H1.84375l-.07812.32813.70312.0625c.20313 0 .28125.09375.28125.28125 0 .07812-.01562.15625-.03125.26562L1.32813-.96875c-.09376.39063-.20313.53125-.48438.5625L.1875-.32812Zm0 0"/><path id="f" d="M.23438-2.23437C.23438-1.25.6875.125 2.79688.125c.57812 0 1.17187-.07812 1.6875-.34375l.40625-1.375H4.625C4.15625-.76562 3.75-.1875 2.76563-.1875 1.875-.1875 1.23438-.76562 1.23438-2c0-1.34375.60937-3.45312 2.4375-3.45312 1.01562 0 1.28125.53125 1.28125 1.39062h.28125l.29687-1.28125c-.46875-.29687-1.25-.42187-1.79687-.42187-2.5 0-3.5 1.84375-3.5 3.53125m0 0"/><path id="g" d="M.10938 0h4.29687l.4375-1.5h-.25C4.15625-.5 3.75-.3125 2.8125-.3125c-.875 0-.98437-.0625-.98437-.32812 0-.07813.01562-.17188.04687-.3125l.4375-1.82813h.98438c.57812 0 .6875.14063.6875.51563 0 .04687 0 .125-.01563.20312h.26563l.39062-1.75h-.26562c-.23438.57813-.3125.70313-.98438.70313h-1l.45313-1.96875c.04687-.21875.10937-.25.28125-.25h.875c.78125 0 .9375.23437.95312.65625 0 .07812 0 .34375-.01562.42187h.26562l.29688-1.39062H1.3125l-.0625.25.46875.04687c.14063 0 .20313.0625.20313.1875 0 .0625-.01563.125-.03126.21875L.9375-.71875C.85938-.4375.79688-.3125.59375-.29687L.15625-.25Zm0 0"/><path id="h" d="M.6875-1.125h4.48438v-.54687H.6875Zm0-1.8125h4.48438v-.54687H.6875Zm0 0"/><path id="i" d="M.34375-2.54687C.34375-.8125.95313.09375 2.25.09375c1.26563 0 1.90625-.76562 1.90625-1.84375 0-1.10937-.70312-1.70312-1.5625-1.70312-.60937 0-1.07812.39062-1.3125.6875 0-1.51563.40625-2.46875 1.14063-2.46875.375 0 .625.3125.75.79687.03125.10938.10937.20313.25.20313.1875 0 .48437-.15625.48437-.40625 0-.34375-.42187-.90625-1.42187-.90625-1.32813 0-2.14063 1-2.14063 3m.9375.625c0-.48438.34375-1.0625.98438-1.0625.5 0 .95312.4375.95312 1.375 0 .82812-.28125 1.40625-.9375 1.40625-.67187 0-1-.76563-1-1.71875m0 0"/><path id="l" d="M.04688 0H2.5625c1.67188 0 2.59375-.59375 3.17188-1.46875.46875-.70312.54687-1.40625.54687-1.85937 0-.71875-.25-1.35938-.71875-1.73438-.46875-.39062-1.1875-.57812-2.10937-.57812H1.25l-.0625.25.46875.04687c.14063 0 .20313.07813.20313.20313 0 .04687-.01563.125-.03126.21875L.85939-.71875C.8125-.4375.73438-.3125.53125-.29687L.09375-.25Zm1.71875-.60937v-.125l.96875-4.29688c.07812-.28125.1875-.29687.84375-.29687 1.5625.01562 1.71875 1.07812 1.71875 1.75 0 .5625-.15625 1.375-.53125 2.01562-.45313.73438-1.10938 1.25-2.35938 1.25-.375 0-.64062-.04687-.64062-.29687m0 0"/><path id="m" d="M.21875-.85937c0 .32812.54688.95312 1.78125.95312 1.20313 0 1.96875-.59375 1.96875-1.625 0-1.10937-.96875-1.40625-1.39062-1.45312v-.03125c.45312-.07813 1.15625-.40625 1.15625-1.20313 0-.95312-.78125-1.32812-1.65625-1.32812-1.03125 0-1.64063.59375-1.64063 1 0 .28125.3125.42187.45313.42187.125 0 .1875-.07812.23437-.1875.1875-.57812.46875-.92187.90625-.92187.60938 0 .75.5625.75 1S2.64063-3.125 1.98438-3.125c-.375 0-.625-.09375-.75-.09375-.10938 0-.15626.09375-.15626.25s.04688.25.15626.25c.125 0 .375-.07812.75-.07812.60937 0 1 .51562 1 1.29687C2.98438-.5625 2.5625-.20312 2-.20312c-.48437 0-.82812-.375-1-.90625-.0625-.15626-.14062-.25-.26562-.25-.1875 0-.51563.1875-.51563.5m0 0"/><path id="n" d="M.04688 0H2.5625c1.89063 0 2.42188-.85937 2.42188-1.67187 0-.85938-.64063-1.23438-1.23438-1.34375l.01563-.01563c1.07812-.125 1.54687-.73437 1.54687-1.35937 0-.6875-.40625-1.25-1.95312-1.25H1.25l-.0625.25.46875.04687c.14063.01563.20313.07813.20313.20313 0 .04687-.01563.125-.03126.21875L.875-.71875C.8125-.4375.73438-.32812.53125-.29687L.09375-.25Zm1.73437-.64062c0-.0625 0-.125.01563-.1875L2.26563-2.875h.3125c.78125 0 1.40625.26563 1.40625 1.125 0 .73438-.42188 1.4375-1.48438 1.4375-.57812 0-.71875-.125-.71875-.32812m.54688-2.54688L2.75-5.04687c.0625-.25.09375-.28125.59375-.28125.64063 0 1.03125.3125 1.03125.89062 0 .8125-.65625 1.25-1.5625 1.25Zm0 0"/><path id="o" d="M.34375-.85937c0 .34375.53125.95312 1.6875.95312C3.42188.09375 4-.73437 4-1.75c0-1.04687-.625-1.73437-1.70312-1.73437-.48438 0-.96875.20312-1.23438.4375l.17188-1.42188c.03124-.23437.0625-.26562.23437-.26562h2.0625l.23438-.64063-.04688-.07812H.89063l-.0625.07812-.17188 2.71875.23438.14063c.32812-.39063.65625-.57813 1.09375-.57813.51562 0 1.0625.39063 1.0625 1.4375 0 .82813-.3125 1.45313-.96875 1.45313-.53125 0-.79688-.375-.98438-.90625C1.04688-1.25.95313-1.32813.8125-1.32813c-.1875 0-.46875.17188-.46875.46876m0 0"/><path id="j" d="M.40625-1.95312c0 1.35937.65625 2.04687 1.89063 2.04687.5625 0 1.34375-.29687 1.5625-1.17187l-.25-.10938c-.25.57813-.5625.85938-1.15625.85938-.98438 0-1.20313-1.01563-1.20313-1.78125 0-1.21875.46875-1.70313 1.04688-1.70313.35937 0 .59375.28125.76562.71875.04688.125.10938.20313.26563.20313s.46875-.09375.46875-.40625c0-.375-.53125-.79688-1.42188-.79688-1.48437 0-1.96875 1.04688-1.96875 2.14063m0 0"/><path id="k" d="M.26563 0H2.25v-.23437c-.57812-.04688-.60937-.0625-.60937-.48438V-2.625c0-.20312 0-.3125.0625-.42187.15624-.32813.51562-.60938.95312-.60938.70313 0 .79688.51563.79688 1.01563v1.92187c0 .42188-.03125.4375-.625.48438V0h2v-.23437c-.59375-.04688-.60938-.0625-.60938-.48438V-2.625c0-.20312 0-.3125.0625-.4375.10938-.32812.46875-.59375.92188-.59375.51562 0 .82812.29688.82812 1.01563v1.92187c0 .42188-.03125.4375-.625.48438V0h2v-.23437c-.57812-.04688-.60937-.0625-.60937-.48438v-2.07812c0-.8125-.45313-1.29688-1.21875-1.29688-.67188 0-1.14063.4375-1.4375.625-.1875-.375-.5-.625-1.07813-.625-.625 0-1.14062.42188-1.42187.625l-.07813-.625-1.26562.20313v.20312l.3125.04688c.20312.03125.26562.0625.26562.35937v2.5625c0 .42188-.03125.4375-.60937.48438Zm0 0"/></defs><path fill="none" stroke="#000" stroke-miterlimit="10" stroke-width=".39676" d="m16.77738 18.79299 103.45308 45.28514-28.20702 1.375-28.21874-48.8828Zm0 0"/><use xlink:href="#a" x="4.40018" y="14.41275"/><use xlink:href="#b" x="68.18425" y="12.19149"/><use xlink:href="#c" x="85.82184" y="42.56818"/><use xlink:href="#d" x="78.51789" y="77.89215"/><use xlink:href="#e" x="124.61061" y="76.51619"/><use xlink:href="#f" x="11.74196" y="102.7854"/><use xlink:href="#g" x="17.81741" y="102.7854"/><use xlink:href="#h" x="25.54192" y="102.7854"/><use xlink:href="#i" x="33.10152" y="102.7854"/><use xlink:href="#j" x="39.34083" y="102.7854"/><use xlink:href="#k" x="43.38535" y="102.7854"/><use xlink:href="#f" x="11.74196" y="117.66385"/><use xlink:href="#l" x="17.81741" y="117.66385"/><use xlink:href="#h" x="26.34909" y="117.66385"/><use xlink:href="#m" x="33.90869" y="117.66385"/><use xlink:href="#j" x="40.14729" y="117.66385"/><use xlink:href="#k" x="44.19181" y="117.66385"/><use xlink:href="#f" x="11.74196" y="132.54231"/><use xlink:href="#n" x="17.81741" y="132.54231"/><use xlink:href="#h" x="25.36833" y="132.54231"/><use xlink:href="#o" x="32.92794" y="132.54231"/><use xlink:href="#j" x="39.1666" y="132.54231"/><use xlink:href="#k" x="43.21111" y="132.54231"/></svg>