<svg xmlns="http://www.w3.org/2000/svg" xmlns:xlink="http://www.w3.org/1999/xlink" width="292.22pt" height="194.44pt" viewBox="0 0 292.22 194.44"><defs><path id="a" d="M-.35937 0h4.21875l.10937-.53125L2.9375-.64062c-.23437-.01563-.32812-.14063-.32812-.3125 0-.09376.03125-.23438.09375-.375.60937-1.20313 1.21875-2.40625 1.90625-3.65625h4.1875l.46875 3.84375s-.10938.46875-.5.5l-1 .10937L7.67188 0h4.59375l.10937-.53125-.70312-.0625c-.57813-.0625-.65625-.32812-.76563-1.09375L9.54688-12.92187H8.20313L5.0625-7.40625c-.95312 1.65625-2.5 4.4375-3.1875 5.5625C1.26563-.875.95313-.67187.375-.60937l-.60937.07812Zm5.34375-5.70312 3.04687-5.48438.67188 5.48438Zm0 0"/><path id="b" d="M0 0h5.67188c4.5 0 5.42187-2.32812 5.42187-3.875 0-1.96875-1.45312-2.82812-2.82812-3.07812L8.28125-7c2.48438-.29687 3.54688-1.70312 3.54688-3.10937 0-1.51563-.89063-2.8125-4.32813-2.8125H2.76563l-.125.54687 1.10937.09375c.32813.01563.46875.15625.46875.45313 0 .125-.04687.28125-.07812.45312L1.92188-1.54687c-.14063.60937-.3125.82812-.76563.89062l-1.0625.125Zm3.73438-1.4375c0-.125.01562-.26562.0625-.40625L4.875-6.64062h.73438c1.84375 0 3.46875.53125 3.46875 2.67187 0 1.65625-1.01563 3.3125-3.51563 3.3125-1.46875 0-1.82812-.29687-1.82812-.78125m1.28125-5.85937.96875-4.32813c.14062-.5625.23437-.65625 1.48437-.65625 1.57813 0 2.45313.79688 2.45313 2.10938 0 1.9375-1.64063 2.875-3.70313 2.875Zm0 0"/><path id="c" d="M.96875-5.125C.96875-2.65625 2.1875.28125 6.8125.28125c1.34375 0 2.60938-.1875 3.79688-.78125l.92187-2.98437h-.5625C9.9375-1.60937 9-.375 6.70313-.375c-2.17188 0-3.71875-1.39062-3.71875-4.28125 0-1.6875.4375-3.75 1.32812-5.23437.9375-1.57813 2.40625-2.67188 4.40625-2.67188 2.375 0 3.04688 1.09375 3.04688 3.14063h.57812l.67188-2.79688c-1.07813-.6875-2.8125-1-4.125-1-3.53125 0-5.54688 1.65625-6.64063 3.40625C1.21875-8.15625.96875-6.42187.96875-5.125m0 0"/><path id="d" d="M0 0h4.40625l.10938-.53125-.73438-.0625c-.5625-.04687-.85937-.1875-.85937-.57812 0-1 .17187-1.54688.39062-2.54688l1.71875-7.60937h.03125l2.25 11.10937h.51563l7.28125-11.10937h.03125l-2.28125 9.78125c-.15625.625-.34375.84375-.79688.89062l-1.01562.125L10.9375 0h5.07813l.10937-.53125-1.09375-.125c-.34375-.01562-.48437-.17187-.48437-.48437 0-.10938.01562-.25.0625-.40625l2.25-9.82813c.15624-.625.29687-.89062.76562-.92187l1.03125-.07813.14063-.54687h-3.65626c-.98437 1.71875-2.10937 3.375-3.23437 5.10937L8.60938-2.76562h-.0625L7.5-7.95312c-.39062-1.6875-.76562-3.29688-1.07812-4.96875h-3.625l-.10938.54687 1.09375.09375c.3125.01563.46875.17188.46875.5 0 .10938-.01562.25-.0625.40625L2.42188-3.71875c-.21875 1-.4375 1.71875-.65625 2.32813-.21876.59375-.54688.73437-1.09375.79687l-.57813.0625Zm0 0"/><path id="e" d="M0 0h4.40625l.10938-.53125-.73438-.0625c-.5625-.04687-.85937-.15625-.85937-.5625 0-.98437.17187-1.5625.39062-2.5625l1.75-7.65625h.0625C6.875-7.57812 8.60938-3.79687 10.3125 0h1.21875l2.07813-9.20312c.21875-1 .4375-1.70313.65625-2.32813.21875-.59375.5625-.73437 1.125-.79687l.5625-.04688.10937-.54687h-4.42187l-.09375.54687.73437.07813c.5625.04687.875.23437.875.65625 0 .67187-.20312 1.4375-.42187 2.4375L11.20313-2.4375H11.125c-1.60937-3.5-3.1875-6.98437-4.76562-10.48437h-3.5625l-.10938.54687 1.09375.09375c.3125.01563.46875.17188.46875.5 0 .10938-.01562.25-.0625.40625L2.42188-3.71875c-.21875 1-.4375 1.71875-.65625 2.32813-.21876.59375-.53125.73437-1.09375.79687l-.57813.0625Zm0 0"/><path id="f" d="M.375-3.59375C.375-2 1.10938.1875 4.48438.1875c.92187 0 1.875-.125 2.70312-.53125l.65625-2.20312h-.42187C6.67188-1.21875 6-.3125 4.4375-.3125 3-.3125 1.96875-1.23437 1.96875-3.21875c0-2.15625 1-5.53125 3.92188-5.53125 1.625 0 2.0625.85938 2.0625 2.23438h.4375L8.875-8.5625c-.75-.46875-2.01562-.6875-2.89062-.6875C1.96875-9.25.375-6.29687.375-3.59375m0 0"/><path id="g" d="M.0625 0h3.10938L3.25-.40625 2.70313-.4375C2.32813-.46875 2.125-.57812 2.125-.875c0-.57812.14063-1.07812.3125-1.84375l1.125-5.14062h.03125L5.07813-.15625h.48437l4.89063-7.70312h.03125l-1.5625 6.71875C8.8125-.6875 8.70313-.5 8.375-.46875l-.6875.0625L7.59375 0H11.25l.07813-.40625-.73438-.0625c-.23437-.01562-.32812-.14062-.32812-.34375 0-.07812.03125-.20312.04687-.32812l1.53125-6.76563c.10938-.4375.21875-.64062.5625-.67187l.6875-.0625.10938-.39063h-2.75c-.64063 1.125-1.375 2.26563-2.10938 3.42188L6.125-2.125h-.03125l-.70312-3.54687c-.25-1.14063-.48438-2.23438-.6875-3.35938H2l-.07812.39063.73437.07812c.21875.01563.32813.10938.32813.32813 0 .07812-.01563.20312-.04688.32812L1.75-2.71875c-.17187.76563-.29687 1.26563-.4375 1.6875-.14062.42188-.375.54688-.75.59375l-.42187.03125Zm0 0"/><path id="h" d="M1.10938-1.79687h7.1875v-.875h-7.1875Zm0-2.90625h7.1875v-.875h-7.1875Zm0 0"/><path id="i" d="m.26563-2.625.15625.29688h3.5V-1c0 .42188-.15625.48438-.45313.51563l-.82812.07812V0h3.59375v-.40625L5.625-.46875C5.35938-.51562 5.25-.57812 5.25-1v-1.32812h1.34375V-3H5.25v-5.73437H4.14063C2.875-6.875 1.45313-4.65625.26563-2.625M1.32813-3c.73437-1.35937 1.64062-2.84375 2.59375-4.375V-3Zm0 0"/><path id="j" d="m.67188 1.625.28124.26563c.65626-.60938 1.70313-1.53125 1.70313-2.5625 0-.6875-.375-1.21875-.95312-1.21875-.46875 0-.71875.35937-.71875.6875 0 .48437.40625.73437.40625 1.28125 0 .54687-.3125 1.09375-.71875 1.54687m0 0"/><path id="k" d="M.51563-2.40625c0 1.46875 1 2.5625 3.01562 2.5625 2.03125 0 3.01563-1.09375 3.01563-2.5625 0-1.29687-.79688-2.0625-1.71875-2.29687C5.60938-4.90625 6.25-5.59375 6.25-6.64062c0-1.4375-1.125-2.25-2.71875-2.25-1.57812 0-2.71875.82812-2.71875 2.25 0 1.04687.67188 1.73437 1.4375 1.9375-.92187.23437-1.73437 1-1.73437 2.29687m1.5.04688c0-1.17188.53125-2.03125 1.51562-2.03125.98438 0 1.51563.85937 1.51563 2.03125 0 1.15625-.48438 2.03125-1.51563 2.03125s-1.51562-.875-1.51562-2.03125M2.25-6.67187c0-.98438.45313-1.73438 1.28125-1.73438.82813 0 1.28125.75 1.28125 1.73438 0 .90625-.40625 1.76562-1.28125 1.76562-.85937 0-1.28125-.85937-1.28125-1.76562m0 0"/><path id="n" d="M.0625 0h4.04688C7.14063 0 8-1.39062 8-2.67187c0-1.375-1.03125-2-1.98437-2.17188l.01562-.01562c1.73438-.20313 2.48438-1.17188 2.48438-2.1875 0-1.09375-.64063-1.98438-3.125-1.98438H2l-.09375.39063.75.07812c.21875.01563.3125.10938.3125.3125 0 .09375-.01562.21875-.04687.34375L1.40625-1.14062c-.09375.45312-.21875.625-.5625.67187l-.6875.0625Zm2.78125-1.03125c0-.09375.01563-.1875.04688-.29687L3.625-4.60937h.51563c1.25 0 2.25.42187 2.25 1.79687C6.39063-1.625 5.70313-.5 4-.5c-.90625 0-1.15625-.1875-1.15625-.53125m.89063-4.07812.67187-2.98438c.09375-.39062.15625-.45312.96875-.45312 1.01563 0 1.64063.5 1.64063 1.42187 0 1.3125-1.0625 2.01563-2.51563 2.01563Zm0 0"/><path id="o" d="M.5625-1.39062c0 .5625.84375 1.54687 2.6875 1.54687 2.23438 0 3.17188-1.32812 3.17188-2.96875 0-1.67187-1-2.78125-2.75-2.78125-.76563 0-1.53125.34375-1.96875.71875l.26562-2.29687c.0625-.35938.10938-.42188.39063-.42188h3.3125l.375-1.01562-.07813-.125H1.4375l-.10937.125L1.0625-4.25l.375.21875c.51563-.625 1.03125-.92187 1.73438-.92187.84375 0 1.70312.625 1.70312 2.29687 0 1.32813-.5 2.32813-1.54687 2.32813-.84375 0-1.28125-.60938-1.57813-1.45313-.07812-.21875-.21875-.35937-.4375-.35937-.3125 0-.75.28125-.75.75m0 0"/><path id="p" d="M.0625 0h3.125l.07813-.40625-.5625-.03125c-.375-.03125-.5625-.125-.5625-.42187 0-.57813.14062-1.09375.3125-1.85938l1.14062-5.07812h.04688C4.82813-5.20312 5.98438-2.59375 7.14063 0H8.125l1.42188-6.3125c.48437-2.20312.6875-2.21875 1.20312-2.28125l.4375-.04687.0625-.39063H8.14063l-.09375.39063.57812.0625c.375.04687.5625.15625.5625.45312 0 .40625-.15625 1.04688-.3125 1.8125L7.89063-1.875h-.0625C6.75-4.26562 5.6875-6.64062 4.625-9.03125H2.03125l-.07812.39063.73437.07812c.21875.01563.3125.10938.3125.32813 0 .07812-.01562.20312-.03125.32812l-1.1875 5.1875c-.17187.76563-.32812 1.26563-.46875 1.6875-.15625.42188-.35937.54688-.75.59375l-.40625.03125Zm0 0"/><path id="q" d="M.35938-1.39062c0 .54687.85937 1.54687 2.84375 1.54687 1.9375 0 3.15625-.95312 3.15625-2.625 0-1.76562-1.54688-2.25-2.21875-2.3125v-.0625c.71875-.125 1.84375-.64062 1.84375-1.92187 0-1.51563-1.25-2.125-2.64063-2.125-1.67187 0-2.65625.9375-2.65625 1.60937 0 .4375.51563.67188.75.67188.1875 0 .29688-.125.375-.3125.28125-.92188.73438-1.48438 1.4375-1.48438.98438 0 1.21875.92188 1.21875 1.625 0 .6875-.23437 1.76563-1.29687 1.76563-.59375 0-.98438-.14063-1.1875-.14063-.1875 0-.26563.15625-.26563.40625s.07813.39063.26563.39063c.20312 0 .59375-.125 1.1875-.125 1 0 1.625.82812 1.625 2.07812 0 1.5-.6875 2.07813-1.57813 2.07813-.79687 0-1.34375-.60938-1.625-1.45313-.07812-.25-.21875-.39062-.42187-.39062-.29688 0-.8125.28125-.8125.78125m0 0"/><path id="r" d="M.375-.15625.53125 0H6.0625l.46875-1.85937-.39062-.07813c-.29688.70313-.53125.79688-1.0625.79688H1.73438c.21874-.625.90625-1.5 2.17187-2.34375C5.23438-4.375 6.17188-5 6.17188-6.42187c0-1.82813-1.23438-2.46875-2.6875-2.46875C1.70313-8.89062.6875-7.85937.6875-7.0625c0 .46875.54688.6875.82813.6875.25 0 .375-.14062.4375-.39062.20312-.90625.6875-1.64063 1.45312-1.64063.92188 0 1.20313.79688 1.20313 1.75 0 1.26563-.5625 2.09375-1.78125 3.15625C1.15625-2.07812.5625-1.125.375-.15625m0 0"/><path id="s" d="M-.25 0h2.96875l.09375-.40625-.73437-.0625c-.15625-.01562-.25-.09375-.25-.21875 0-.23437 1.35937-2.70312 1.375-2.73437h2.84375l.29687 2.59375S6.28125-.5 6-.46875l-.6875.0625L5.23438 0H8.625l.07813-.40625-.5-.03125C7.79688-.48437 7.75-.75 7.6875-1.25l-.92187-7.78125H5.6875L3.46875-5.14062C2.78125-3.92187 1.70313-1.98437 1.23438-1.25c-.375.60938-.59375.75-1 .79688l-.40625.04687Zm3.71875-3.95312 2.07813-3.75.4375 3.75Zm0 0"/><path id="l" d="M.64063-3.14062c0 2.1875 1.0625 3.29687 3.03125 3.29687.92187 0 2.15625-.46875 2.51562-1.875l-.39062-.1875c-.40625.92188-.92188 1.375-1.875 1.375C2.35938-.53125 2-2.15625 2-3.375c0-1.95312.76563-2.73437 1.67188-2.73437.59375 0 .96875.4375 1.23437 1.14062C5-4.75 5.07813-4.625 5.32813-4.625c.26562 0 .76562-.17187.76562-.67187 0-.59375-.85937-1.26563-2.28125-1.26563-2.375 0-3.17187 1.6875-3.17187 3.42188m0 0"/><path id="m" d="M.42188 0h3.1875v-.375c-.9375-.0625-.98438-.09375-.98438-.76562v-3.0625c0-.32813 0-.51563.09375-.6875.25-.53125.82813-.96875 1.54688-.96875 1.125 0 1.26562.82812 1.26562 1.625v3.09375c0 .67187-.03125.70312-.98437.76562V0h3.1875v-.375c-.9375-.0625-.96875-.09375-.96875-.76562v-3.0625c0-.32813 0-.5.09375-.70313.1875-.53125.75-.95312 1.48437-.95312.82813 0 1.32813.46875 1.32813 1.625v3.09375c0 .67187-.04688.70312-1 .76562V0H11.875v-.375c-.9375-.0625-.98437-.09375-.98437-.76562v-3.34375c0-1.3125-.71875-2.07813-1.95313-2.07813-1.0625 0-1.82812.70313-2.29687 1-.3125-.60937-.8125-1-1.73438-1-1 0-1.8125.67188-2.28125 1l-.125-1-2.01562.32813v.32812l.48437.0625c.34375.0625.4375.10938.4375.59375v4.10938c0 .67187-.04687.70312-.98437.76562Zm0 0"/></defs><path fill="none" stroke="#000" stroke-miterlimit="10" stroke-width=".39736" d="M26.48828 167.32422h113.05857L122.02342 27.12893Zm0 0"/><use xlink:href="#a" x="6.65265" y="187.25968"/><use xlink:href="#b" x="146.56669" y="187.25968"/><use xlink:href="#c" x="115.72451" y="19.83388"/><path fill="none" stroke="#000" stroke-miterlimit="10" stroke-width=".39736" d="M45.59375 139.28907h90.4492"/><use xlink:href="#d" x="20.37513" y="145.74524"/><use xlink:href="#e" x="143.06178" y="145.74524"/><use xlink:href="#f" x="203.09687" y="66.01288"/><use xlink:href="#g" x="212.83223" y="66.01288"/><use xlink:href="#h" x="229.61875" y="66.01288"/><use xlink:href="#i" x="241.73231" y="66.01288"/><use xlink:href="#j" x="248.78349" y="66.01288"/><use xlink:href="#k" x="253.88759" y="66.01288"/><use xlink:href="#l" x="263.8858" y="66.01288"/><use xlink:href="#m" x="270.36676" y="66.01288"/><use xlink:href="#f" x="203.09687" y="89.85621"/><use xlink:href="#n" x="212.83223" y="89.85621"/><use xlink:href="#h" x="224.93188" y="89.85621"/><use xlink:href="#o" x="237.04544" y="89.85621"/><use xlink:href="#l" x="247.04231" y="89.85621"/><use xlink:href="#m" x="253.52327" y="89.85621"/><use xlink:href="#g" x="203.09687" y="113.69754"/><use xlink:href="#p" x="217.1575" y="113.69754"/><use xlink:href="#h" x="231.98305" y="113.69754"/><use xlink:href="#q" x="244.09661" y="113.69754"/><use xlink:href="#j" x="251.14779" y="113.69754"/><use xlink:href="#r" x="256.25189" y="113.69754"/><use xlink:href="#l" x="266.25099" y="113.69754"/><use xlink:href="#m" x="272.73195" y="113.69754"/><use xlink:href="#s" x="203.09687" y="137.53888"/><use xlink:href="#n" x="212.66533" y="137.53888"/><use xlink:href="#h" x="224.76498" y="137.53888"/><use xlink:href="#i" x="236.87854" y="137.53888"/><use xlink:href="#l" x="246.87479" y="137.53888"/><use xlink:href="#m" x="253.35575" y="137.53888"/></svg>