<svg xmlns="http://www.w3.org/2000/svg" xmlns:xlink="http://www.w3.org/1999/xlink" width="114.153pt" height="96.181pt" viewBox="0 0 114.153 96.181"><defs><path id="a" d="M0 0h2.84375l.07813-.34375-.48438-.04687C2.07813-.40625 1.89063-.5 1.89063-.75c0-.65625.10937-1.01562.25-1.65625L3.25-7.32812h.03125l1.4375 7.1875h.34375l4.70313-7.1875h.01562L8.3125-1c-.10937.40625-.21875.54688-.51562.57813l-.65625.07812L7.0625 0h3.29688l.0625-.34375-.71875-.07812c-.21875-.01563-.29688-.125-.29688-.3125 0-.07813.01563-.17188.03125-.26563l1.45313-6.34375c.10937-.40625.1875-.57812.5-.60937L12.0625-8l.09375-.34375h-2.375C9.14063-7.25 8.42188-6.17187 7.6875-5.04687l-2.125 3.26562h-.04687l-.67188-3.35937c-.25-1.09375-.48437-2.125-.6875-3.20313H1.8125L1.73438-8l.70312.0625c.20313.01563.3125.10938.3125.32813 0 .0625-.01562.15625-.04687.26562L1.5625-2.40625c-.14062.64063-.28125 1.10938-.42187 1.5C1-.51562.78125-.42187.4375-.39062l-.375.04687Zm0 0"/><path id="b" d="M0 0h2.84375l.07813-.34375-.48438-.04687C2.07813-.40625 1.89063-.48437 1.89063-.75c0-.64062.10937-1.01562.25-1.65625l1.14062-4.9375h.03125C4.4375-4.89062 5.5625-2.45312 6.67188 0h.78125l1.34375-5.95312c.14062-.64063.28125-1.09375.42187-1.5.14063-.375.35938-.46875.71875-.51563L10.3125-8l.0625-.34375H7.53125L7.46875-8l.46875.04688c.35938.04687.5625.15625.5625.42187 0 .4375-.125.9375-.26562 1.57813L7.25-1.57812h-.0625C6.15625-3.84375 5.125-6.09375 4.10938-8.34375H1.8125L1.73438-8l.70312.0625c.20313.01563.3125.10938.3125.32813 0 .0625-.01562.15625-.04687.26562L1.5625-2.40625c-.14062.64063-.28125 1.10938-.42187 1.5C1-.51562.79688-.42187.4375-.39062l-.375.04687Zm0 0"/><path id="c" d="M.39063-3.26562c0 2 1.14062 3.45312 3.54687 3.45312 2.125 0 3.17188-1.09375 3.82813-2.29687.65625-1.17188.78125-2.40625.78125-2.89063 0-2.46875-1.51563-3.54687-3.5-3.54687-1.92188 0-3.125 1.07812-3.82813 2.23437-.67187 1.10938-.82812 2.25-.82812 3.04688m1.26562.48437c0-1 .1875-2.14062.75-3.3125C2.95313-7.23437 3.8125-8.125 5.09375-8.125c1.32813 0 2.17188.79688 2.17188 2.5 0 .6875-.0625 1.6875-.5625 2.96875C6.20313-1.35937 5.375-.25 3.8125-.25 2.5-.25 1.65625-1.09375 1.65625-2.78125m0 0"/><path id="d" d="M.28125-2.04687C.28125-.75.95313.09375 2.5.09375c.42188 0 1.04688-.07812 1.40625-.29687L3.98438-1.375H3.75c-.23437.65625-.48437 1.1875-1.17187 1.1875-1.0625 0-1.21875-1.28125-1.21875-1.95312 0-.45313.07812-1.84375 1.17187-1.84375.78125 0 .98438.625 1.125 1.0625h.23438V-4c-.35938-.21875-1-.26562-1.29688-.26562-.85937 0-1.4375.23437-1.78125.625-.375.42187-.53125.98437-.53125 1.59375m0 0"/><path id="e" d="m.67188-3.29687.15624.15625.75-.5625c.07813-.0625.15626-.125.21876-.125s.15624.0625.23437.125l.75.5625.14063-.15625-.85938-1.03125c-.07812-.09375-.1875-.1875-.26562-.1875s-.17188.07812-.26563.1875Zm-.4375 1.8125c0 .96875.46875 1.5625 1.5625 1.5625s1.5625-.59375 1.5625-1.5625c0-.95313-.46875-1.54688-1.5625-1.54688S.23438-2.4375.23438-1.48437m.95312 0c0-.79688.1875-1.26563.60938-1.26563.4375 0 .60937.46875.60937 1.26563 0 .8125-.17187 1.28125-.60937 1.28125-.42188 0-.60938-.46875-.60938-1.28125m0 0"/><path id="f" d="M.21875-2.65625h.35938v1.95313c0 .54687.40625.78125.75.78125.25 0 .625-.10938.95312-.32813l-.0625-.1875c-.07812.03125-.20312.0625-.34375.0625-.21875 0-.39062-.17187-.39062-.5625v-1.71875H2.125v-.29687h-.64062v-.76563h-.34375l-.53125.76563H.21875Zm0 0"/><path id="g" d="m1.17188-3.26562.125.1875 1.10937-.625c.21875-.125.40625-.25.40625-.40625 0-.14063-.17187-.35938-.3125-.35938-.125 0-.23437.0625-.45312.29688Zm-.9375 1.78125c0 .82812.35937 1.5625 1.48437 1.5625.71875 0 1.10938-.35938 1.3125-.89063l-.21875-.125c-.17187.35938-.4375.54688-.79687.54688-.60938 0-.82813-.5-.82813-1.125h1.57813c.21875 0 .3125-.0625.3125-.25 0-.5-.1875-1.26563-1.34375-1.26563-1.09375 0-1.5.70313-1.5 1.54688m.95312-.32813c0-.4375.125-.9375.51563-.9375.35937 0 .42187.45313.42187.73438 0 .17187-.03125.20312-.17187.20312Zm0 0"/><path id="h" d="M.14063 0h1.70312v-.23437C1.5-.25 1.45313-.28125 1.45313-.53125V-4.4375l-.04688-.03125L.1875-4.3125v.21875l.20313.03125C.5-4.04687.54688-4 .54688-3.75v3.21875c0 .25-.04688.28125-.40625.29688Zm0 0"/><path id="i" d="M.23438-1.48437c0 .82812.35937 1.5625 1.48437 1.5625.71875 0 1.10938-.35938 1.3125-.89063l-.21875-.125c-.17187.35938-.4375.54688-.79687.54688-.60938 0-.82813-.5-.82813-1.125h1.57813c.21875 0 .3125-.0625.3125-.25 0-.5-.1875-1.26563-1.34375-1.26563-1.09375 0-1.5.70313-1.5 1.54688m.95312-.32813c0-.4375.125-.9375.51563-.9375.35937 0 .42187.45313.42187.73438 0 .17187-.03125.20312-.17187.20312Zm0 0"/><path id="j" d="M.14063 1.15625v.23438h1.8125v-.23438c-.4375-.01562-.5-.04687-.5-.29687V0c.10937.04688.3125.07813.46875.07813.89062 0 1.60937-.3125 1.60937-1.64063 0-1-.51562-1.46875-1.07812-1.46875-.4375 0-.70313.1875-1 .42188l-.10938-.42188-1.15625.17188v.21875l.20313.03125c.10937.01562.15625.0625.15625.29687V.85938c0 .25-.04688.28124-.40625.29687m1.3125-2.07812V-1.875c0-.125 0-.25.03124-.32812.07813-.21875.25-.35938.5-.35938.28126 0 .59376.15625.59376 1.125 0 .75-.15625 1.23438-.625 1.23438-.26563 0-.40625-.14063-.46875-.40625-.01563-.09376-.03126-.1875-.03126-.3125m0 0"/><path id="k" d="m.1875-2.64062.20313.03125c.09375.01562.14062.0625.14062.29687v1.48438c0 .70312.4375.90625.875.90625.5 0 .82813-.28126 1.0625-.42188L2.53125 0h1.25v-.23437C3.42188-.25 3.39063-.28125 3.39063-.53125V-3l-.04688-.03125-1.21875.17188v.21875l.20313.03125c.09375.01562.14062.0625.14062.29687v1.28125c0 .10938 0 .25-.04687.34375-.04688.14063-.21875.28125-.46875.28125-.32813 0-.51563-.1875-.51563-.65625V-3l-.04687-.03125-1.20313.17188Zm0 0"/><path id="l" d="m.26563-1.125.0625.90625C.5625 0 1.01563.07813 1.35938.07813c.73437 0 1.23437-.32813 1.23437-.98438 0-.51562-.32812-.76562-.875-.98437-.35937-.125-.60937-.26563-.60937-.51563 0-.1875.125-.34375.375-.34375.3125 0 .57812.28125.6875.73438h.21875v-.79688c-.25-.15625-.59375-.21875-.90625-.21875-.73438 0-1.1875.34375-1.1875.95313 0 .45312.35937.73437.89062.92187.29688.10938.60938.29688.60938.57813 0 .23437-.15626.375-.42188.375C.96875-.20312.65625-.625.5-1.125Zm0 0"/><path id="m" d="M.23438-1.48437c0 .96875.46875 1.5625 1.5625 1.5625s1.5625-.59375 1.5625-1.5625c0-.95313-.46875-1.54688-1.5625-1.54688S.23438-2.4375.23438-1.48437m.95312 0c0-.79688.1875-1.26563.60938-1.26563.4375 0 .60937.46875.60937 1.26563 0 .8125-.17187 1.28125-.60937 1.28125-.42188 0-.60938-.46875-.60938-1.28125m0 0"/><path id="n" d="M.1875 0h1.625v-.23437L1.70313-.25c-.14063 0-.21876-.03125-.21876-.21875v-1.4375c0-.14062.03126-.28125.07813-.35937.07813-.15625.23438-.29688.48438-.29688.3125 0 .46875.1875.48437.54688v1.54687c0 .1875-.0625.21875-.1875.21875l-.14062.01563V0h1.625v-.23437C3.48438-.25 3.4375-.28125 3.4375-.53125v-1.5625c-.01562-.57812-.28125-.9375-.90625-.9375-.35937 0-.64062.1875-1.04687.42188l-.07813-.42188-1.1875.17188v.21875l.21875.03125c.09375.01562.14063.0625.14063.29687v1.78125c0 .25-.03126.28125-.39063.29688Zm0 0"/><path id="o" d="M.1875.57813c0 .57812.64063.875 1.5.875.26563 0 .6875-.04688 1-.21876C3.01563 1.0625 3.25.75 3.25.3125c0-.71875-.5625-.95312-1.20312-.95312h-.5625c-.29688 0-.40625-.09376-.40625-.20313 0-.125.15624-.20312.25-.21875.10937.01563.20312.01563.26562.01563.71875 0 1.35938-.26563 1.35938-.98438 0-.17187-.0625-.35937-.14063-.46875l.39063-.0625.125-.46875-.0625-.0625L2.5-2.82812c-.1875-.125-.53125-.20313-.85937-.20313C.5625-3.03125.23438-2.46875.23438-2c0 .5.375.79688.73437.85938v.01562c-.39062.09375-.64062.3125-.64062.54688C.32813-.3125.625-.0625.89063 0 .64063.0625.1875.17188.1875.57813M1 .51563C1 .35937 1.07813.25 1.15625.1875c.07813-.0625.26563-.09375.53125-.09375.51563 0 .82813.125.82813.48438 0 .4375-.34375.60937-.75.60937C1.375 1.1875 1 .95313 1 .51563m.1875-2.53125c0-.51563.20313-.73438.45313-.73438.23437 0 .45312.21875.45312.71875 0 .4375-.1875.70313-.46875.70313-.25 0-.4375-.28126-.4375-.6875m0 0"/><path id="p" d="M0-3.25h.15625c.14063-.53125 1.29688-.96875 2.32813-.96875h.48437v-.54687h-.48437C1.5-4.76562 0-4.32812 0-3.45312Zm0 0"/><path id="q" d="M0-4.21875h2.42188v-.54687H0Zm0 0"/><path id="r" d="M0-4.21875c1.98438 0 2.6875-.51562 2.89063-1 .28125.46875.82812 1 2.89062 1v-.54687c-2.17187 0-2.64062-.57813-2.8125-.96875H2.8125c-.17187.39062-.65625.96875-2.8125.96875Zm0 0"/><path id="s" d="M0-4.21875h.5c1.01563 0 2.17188.4375 2.3125.96875h.15625v-.20312c0-.875-1.48437-1.3125-2.46875-1.3125H0Zm0 0"/><path id="t" d="M.1875-.07812.25 0h2.60938l.23437-.90625-.1875-.03125c-.15625.3125-.26562.35938-.5.35938H.85938c.10937-.26563.39062-.65625 1-1.04688.625-.39062 1.0625-.6875 1.0625-1.34375 0-.84375-.57813-1.14062-1.28125-1.14062-.8125 0-1.3125.45312-1.3125.85937 0 .23438.26562.34375.40625.34375.125 0 .1875-.0625.21874-.1875.09376-.4375.3125-.76562.65626-.76562.39062 0 .51562.34375.51562.76562 0 .53125-.21875.95313-.79687 1.45313C.53125-.96875.25-.51562.1875-.07812m0 0"/><path id="u" d="m.3125.75.15625.14063c.29688-.28126.8125-.71875.8125-1.20313 0-.3125-.17187-.57812-.46875-.57812-.23437 0-.35937.1875-.35937.34375 0 .21874.17187.32812.17187.57812S.5.54688.3125.75m0 0"/><path id="v" d="m.125-1.21875.09375.15625h1.57813v.60938c0 .17187-.0625.20312-.17188.21875l-.39062.03124V0H2.9375v-.20312l-.28125-.01563c-.125-.03125-.17187-.0625-.17187-.23437v-.60938h.60937v-.34375h-.60937v-2.625h-.57813C1.3125-3.14062.67188-2.14062.125-1.21875m.53125-.1875c.32813-.60937.71875-1.26562 1.14063-1.95312v1.95312Zm0 0"/><path id="y" d="M.65625 0h2.04688v-.20312L2.25-.23438c-.14062-.01562-.20312-.0625-.20312-.28124V-4.0625L2-4.10937l-1.32812.21875v.17187l.48437.07813c.125.01562.17188.0625.17188.26562v2.85938c0 .21874-.0625.26562-.20313.28124l-.46875.03126Zm0 0"/><path id="z" d="m.25-3.10937.1875.03125.04688-.125c.07812-.15625.15625-.25.42187-.25h1.60938c-.0625.21875-.1875.60937-.67188 1.26562C1.32813-1.51562.98438-.85937.98438-.25c0 .28125.1875.32813.40625.32813.1875 0 .375-.04688.375-.29688 0-.84375.14062-1.45312.4375-1.92187.46875-.75.73437-1.14063.90625-1.82813l-.07813-.0625H.46875Zm0 0"/><path id="A" d="M.23438-1.90625C.23438-.64062.6875.07813 1.70313.07813c.96875 0 1.4375-.60938 1.4375-1.39063 0-.82812-.53125-1.25-1.17188-1.25-.45312 0-.78125.26563-.96875.5 0-.9375.23438-1.79687.79688-1.79687.26562 0 .45312.23437.54687.60937.03125.07813.09375.14063.21875.14063.14063 0 .375-.09375.375-.3125 0-.26563-.32812-.6875-1.09375-.6875-.98437 0-1.60937.73437-1.60937 2.20312M1-1.42187c0-.35938.23438-.75.6875-.75.35938 0 .6875.29687.6875.98437 0 .59375-.1875 1.01563-.65625 1.01563C1.23438-.17187 1-.71875 1-1.42187m0 0"/><path id="w" d="M.29688-1.45312c0 1.01562.5 1.53125 1.40625 1.53125.42187 0 .98437-.21875 1.15625-.875L2.67188-.875c-.1875.42188-.42188.625-.85938.625-.71875 0-.89062-.75-.89062-1.3125 0-.89062.35937-1.25.78125-1.25.26562 0 .4375.1875.5625.51563.04687.09375.07812.15625.1875.15625.125 0 .35937-.07813.35937-.3125 0-.26563-.39062-.57813-1.04687-.57813-1.10938 0-1.46875.78125-1.46875 1.57813m0 0"/><path id="x" d="M.1875 0h1.46875v-.17187c-.42187-.03126-.4375-.04688-.4375-.35938V-1.9375c0-.15625 0-.23437.04688-.32812.10937-.23438.375-.4375.70312-.4375.51563 0 .59375.375.59375.75v1.42187c0 .3125-.03125.32813-.46875.35938V0h1.48438v-.17187C3.14063-.20313 3.125-.21875 3.125-.53125V-1.9375c0-.15625 0-.23437.04688-.32812.07812-.25.34375-.4375.6875-.4375.375 0 .60937.21875.60937.75v1.42187c0 .3125-.03125.32813-.46875.35938V0h1.48438v-.17187c-.4375-.03126-.45313-.04688-.45313-.35938V-2.0625c0-.60937-.32812-.96875-.90625-.96875-.48437 0-.84375.32813-1.0625.46875-.14062-.28125-.375-.46875-.79687-.46875-.46875 0-.84375.3125-1.04688.46875l-.0625-.46875-.9375.15625v.14063l.23438.03125c.15625.03125.20312.0625.20312.28125v1.89062c0 .3125-.03125.32813-.46875.35938Zm0 0"/></defs><path fill="none" stroke="#000" stroke-miterlimit="10" stroke-width=".39514" d="M92.08985 17.16405 20.457 68.32813l58.47268 9.50391Zm0 0"/><use xlink:href="#a" x="96.62573" y="12.62748"/><use xlink:href="#b" x="5.92903" y="81.21345"/><use xlink:href="#c" x="83.46877" y="90.90889"/><use xlink:href="#d" x="4.34254" y="40.05324"/><use xlink:href="#e" x="8.56116" y="40.05324"/><use xlink:href="#f" x="12.15052" y="40.05324"/><use xlink:href="#g" x="14.44284" y="40.05324"/><use xlink:href="#h" x="18.9504" y="40.05324"/><use xlink:href="#i" x="20.87672" y="40.05324"/><use xlink:href="#j" x="25.39071" y="40.05324"/><use xlink:href="#h" x="29.16628" y="40.05324"/><use xlink:href="#k" x="31.09259" y="40.05324"/><use xlink:href="#l" x="34.95164" y="40.05324"/><use xlink:href="#h" x="39.029" y="40.05324"/><use xlink:href="#m" x="40.95531" y="40.05324"/><use xlink:href="#n" x="44.54467" y="40.05324"/><use xlink:href="#o" x="48.45508" y="40.05324"/><use xlink:href="#p" x="18.57723" y="47.91886"/><use xlink:href="#q" x="21.14564" y="47.91886"/><use xlink:href="#q" x="23.14901" y="47.91886"/><use xlink:href="#r" x="25.15237" y="47.91886"/><use xlink:href="#q" x="30.52678" y="47.91886"/><use xlink:href="#q" x="32.53015" y="47.91886"/><use xlink:href="#s" x="34.53993" y="47.91886"/><use xlink:href="#t" x="18.57723" y="49.06223"/><use xlink:href="#u" x="21.88406" y="49.06223"/><use xlink:href="#v" x="24.27911" y="49.06223"/><use xlink:href="#w" x="28.94098" y="49.06223"/><use xlink:href="#x" x="31.93318" y="49.06223"/><use xlink:href="#y" x="90.04675" y="49.10685"/><use xlink:href="#u" x="93.35359" y="49.10685"/><use xlink:href="#z" x="95.74863" y="49.10685"/><use xlink:href="#w" x="100.41179" y="49.10685"/><use xlink:href="#x" x="103.404" y="49.10685"/><use xlink:href="#y" x="40.23293" y="81.72113"/><use xlink:href="#u" x="43.53976" y="81.72113"/><use xlink:href="#A" x="45.93481" y="81.72113"/><use xlink:href="#w" x="50.59668" y="81.72113"/><use xlink:href="#x" x="53.58888" y="81.72113"/></svg>