<svg xmlns="http://www.w3.org/2000/svg" xmlns:xlink="http://www.w3.org/1999/xlink" width="262.157pt" height="158.204pt" viewBox="0 0 262.157 158.204"><defs><path id="a" d="M-1.73437 1.92188v.53125c.21874.01562.46875.04687.6875.04687.95312 0 2.39062-.25 3.23437-.82812.98438-.6875 1.71875-1.84375 2.20313-3.95313l2.45312-10.54687c.15625-.64063.32813-.92188.875-.96875l1.15625-.09375.15625-.60938H3.25l-.125.60938 1.21875.09375c.39063.01562.5625.20312.5625.54687 0 .10938-.01562.25-.0625.42188l-2.29687 9.8125C2.07813-1.04687 1.51563.26563.875.875c-.71875.64063-1.5625.9375-2.60937 1.04688m0 0"/><path id="b" d="M0 0h5.73438l.125-.60937-1.25-.07813c-.34375-.03125-.5-.23437-.5-.5625 0-.125.01562-.3125.0625-.48437l1.3125-5.82813h.04687c.95313 1.96875 1.98438 4.0625 3.25 5.79688 1 1.35937 1.92188 1.8125 3.53125 1.85937l1.01563.01563.15625-.625C12.28125-.625 11.79688-1.1875 11.03125-2.125 9.625-3.875 8.20313-6.42187 7.32813-8.26562c1.90625-1.59375 3.64062-3.03125 5.5625-4.375 1.20312-.84375 1.6875-1.14063 3.39062-1.25l.07813-.60938h-5.20313l-.09375.60938.79688.0625c.21875.03125.29687.10937.29687.25 0 .10937-.10937.26562-.3125.4375L5.64063-7.79687h-.09375l1.125-4.95313c.15625-.65625.35937-1 .89062-1.04687l1.15625-.09375.14063-.60938H3.125l-.15625.60938 1.25.09375c.35938.01562.51563.23437.51563.57812 0 .125-.03125.28125-.07813.46875L2.14063-1.73437c-.15625.67187-.35938.95312-.875 1l-1.15625.125Zm0 0"/><path id="c" d="M.45313 0h10.71875l1.0625-3.67187h-.625c-1.0625 2.57812-2.01563 2.9375-4.39063 2.9375-2.14062 0-2.60937-.20313-2.60937-.875 0-.21876.07812-.53125.15625-.95313L7.10938-12.75c.1875-.6875.35937-1 .89062-1.04687l1.25-.09375.15625-.60938H3.5625l-.15625.60938 1.25.09375c.35938.01562.51563.20312.51563.54687 0 .14063-.01563.29688-.0625.5L2.59375-1.73437c-.1875.73437-.35937.95312-.875 1l-1.15625.125Zm0 0"/><path id="d" d="M.3125-1.15625C.3125-.71875.95313.125 2.625.125c1.59375 0 2.57813-.75 2.57813-2.09375 0-1.4375-1.26563-1.79687-1.76563-1.85937V-3.875c.5625-.10937 1.46875-.5 1.46875-1.53125 0-1.28125-1.07812-1.71875-2.1875-1.71875-1.3125 0-2.15625.70313-2.15625 1.3125 0 .375.45313.5625.65625.5625.17188 0 .28125-.09375.32813-.26562.23437-.75.57812-1.20313 1.125-1.20313.73437 0 .90625.76563.90625 1.28125 0 .51563-.14063 1.40625-.98438 1.40625-.45312 0-.78125-.125-.95312-.125-.17188 0-.23438.125-.23438.35938 0 .20312.0625.34375.23438.34375.17187 0 .48437-.10938.95312-.10938.73438 0 1.25.54688 1.25 1.625 0 1.17188-.51562 1.64063-1.20312 1.64063-.59375 0-1-.4375-1.25-1.20313-.0625-.20312-.1875-.3125-.375-.3125-.28126 0-.70313.23438-.70313.65625m0 0"/><path id="g" d="M1.14063 0h3.5625v-.34375l-.79688-.0625C3.67188-.4375 3.5625-.51562 3.5625-.89062V-7.0625l-.07812-.0625-2.32813.375v.29688L2-6.32812c.21875.03125.29688.125.29688.45312v4.98438c0 .375-.10938.45312-.35938.48437l-.79687.0625Zm0 0"/><path id="h" d="m.53125 1.3125.26563.23438c.53125-.5 1.42187-1.25 1.42187-2.07813 0-.5625-.29687-1.01562-.79687-1.01562-.42188 0-.625.3125-.625.59375 0 .375.29687.57812.29687 1.01562S.875.95313.53125 1.3125m0 0"/><path id="i" d="m.21875-2.10937.15625.25h2.76563v1.0625c0 .3125-.125.375-.32813.39062l-.6875.0625V0h2.96875v-.34375l-.48437-.04687c-.21875-.03125-.28125-.09375-.28125-.40625v-1.0625H5.375v-.57813H4.32813V-7h-1C2.28125-5.46875 1.17188-3.71875.21875-2.10937m.92188-.32813c.5625-1.0625 1.26562-2.21875 2-3.40625v3.40625Zm0 0"/><path id="e" d="M.51563-2.51562C.51563-.76562 1.375.125 2.9375.125c.75 0 1.73438-.375 2.03125-1.51562l-.3125-.14063c-.32812.73438-.73437 1.10938-1.51562 1.10938-1.25 0-1.53125-1.3125-1.53125-2.29688 0-1.54687.60937-2.17187 1.32812-2.17187.48438 0 .78125.34375 1 .90625.0625.17187.14063.26562.32813.26562.21875 0 .625-.125.625-.53125 0-.48437-.70313-1.01562-1.82813-1.01562-1.90625 0-2.54687 1.34375-2.54687 2.75m0 0"/><path id="f" d="M.32813 0h2.5625v-.29687c-.75-.0625-.78125-.07813-.78125-.625V-3.375c0-.26562 0-.40625.07812-.54687.20313-.42188.65625-.78125 1.23438-.78125.90625 0 1.01562.67187 1.01562 1.3125v2.46875c0 .54687-.03125.5625-.79687.625V0h2.5625v-.29687c-.75-.0625-.78125-.07813-.78125-.625V-3.375c0-.26562.01562-.39062.07812-.5625.15625-.42187.60938-.76562 1.1875-.76562.67188 0 1.0625.375 1.0625 1.3125v2.46875c0 .54687-.03125.5625-.78125.625V0h2.5625v-.29687c-.75-.0625-.79687-.07813-.79687-.625v-2.67188c0-1.0625-.5625-1.67187-1.5625-1.67187-.85938 0-1.46875.5625-1.84375.79687-.25-.48437-.65625-.79687-1.39063-.79687-.79687 0-1.45312.53125-1.82812.79687l-.09375-.79687L.39063-5v.26563l.39062.04687c.26563.04688.34375.09375.34375.46875v3.29688c0 .54687-.03125.5625-.79687.625Zm0 0"/></defs><path fill="none" stroke="red" stroke-miterlimit="10" stroke-width=".3965" d="m188.76953 127.48828-10.98828-6.34375 6.34375-10.9922 10.99219 6.34376-6.34766 10.9922"/><path fill="none" stroke="#000" stroke-miterlimit="10" stroke-width=".3965" d="m23.9101 32.30857 164.85943 95.17971 44.41798-76.93362Zm0 0"/><use xlink:href="#a" x="7.67042" y="21.93165"/><use xlink:href="#b" x="196.65157" y="149.86695"/><use xlink:href="#c" x="241.06909" y="42.67627"/><use xlink:href="#d" x="75.50114" y="94.90548"/><use xlink:href="#e" x="83.59864" y="94.90548"/><use xlink:href="#f" x="88.79541" y="94.90548"/><use xlink:href="#g" x="218.85983" y="91.81603"/><use xlink:href="#h" x="224.60304" y="91.81603"/><use xlink:href="#i" x="228.76268" y="91.81603"/><use xlink:href="#e" x="236.8615" y="91.81603"/><use xlink:href="#f" x="242.05827" y="91.81603"/></svg>