<svg xmlns="http://www.w3.org/2000/svg" xmlns:xlink="http://www.w3.org/1999/xlink" width="156.028pt" height="97.73pt" viewBox="0 0 156.028 97.73"><defs><path id="a" d="M0 0h3.5625c2.32813 0 3.67188-.84375 4.51563-2.10937.67187-1 .78125-1.96875.78125-2.67188 0-.9375-.32813-1.875-1-2.4375-.6875-.5625-1.71875-.82812-3.01563-.82812h-3.125l-.07812.34375.70312.04687c.1875.01563.26563.10938.26563.29688 0 .07812-.01563.17187-.03125.28125L1.1875-.96875C1.09375-.57812 1-.4375.71875-.40625L.0625-.32812Zm2.29688-.85937c0-.04688 0-.09376.01562-.14063l1.40625-6.21875c.09375-.39062.25-.42187 1.26563-.42187 2.42187.04687 2.625 1.67187 2.625 2.60937 0 1-.23438 1.9375-.75 2.79688C6.1875-1.14062 5.20313-.40625 3.26563-.40625c-.5625 0-.96875-.07812-.96875-.45312m0 0"/><path id="b" d="M.125 0h6.0625l.59375-2.04687H6.4375C5.84375-.60937 5.32813-.40625 3.89063-.40625c-1.375 0-1.45313-.17187-1.45313-.48437 0-.125.03125-.29688.09375-.53125L3.125-3.96875h1.51563c.85937 0 1.03125.17188 1.03125.67188 0 .10937 0 .20312-.01563.32812H6l.54688-2.42187H6.1875c-.29687.79687-.42187.98437-1.45312.98437H3.21875L3.875-7.29687c.0625-.29688.14063-.34375.32813-.34375h1.40625c1.14062 0 1.375.29687 1.375.92187 0 .28125-.04688.60938-.04688.60938h.34375l.4375-1.9375h-5.875L1.75-7.70312l.71875.04687c.1875.01563.28125.09375.28125.28125 0 .07813-.01562.15625-.04687.26563l-1.375 6.14062c-.10938.40625-.20313.53125-.48438.5625L.1875-.32812Zm0 0"/><path id="c" d="M.125 0H3.5l.07813-.32812-.875-.0625C2.48438-.40625 2.40625-.5 2.40625-.6875c0-.0625 0-.14062.03125-.23437l.64063-2.875H4.625c.85938 0 1.01563.15625 1.01563.65625 0 .09375 0 .20312-.01563.32812h.35938L6.51563-5.25h-.34375c-.29688.8125-.4375 1-1.45313 1H3.1875l.6875-3.03125c.07813-.3125.14063-.35937.34375-.35937h1.42188C6.78125-7.64062 7-7.34375 7-6.73437c0 .29687-.03125.60937-.03125.60937h.35938l.4375-1.92187H1.84375l-.07812.34375.70312.0625c.1875 0 .28125.10937.28125.29687q0 .09375-.04687.23438l-1.375 6.1875c-.09376.34375-.20313.5-.48438.53125l-.65625.0625Zm0 0"/><path id="d" d="m.125-1.17187.07813.14062h1.53125v.59375c0 .17188-.0625.20313-.17188.21875l-.375.03125V0h1.64063v-.1875L2.5625-.21875c-.125-.01562-.15625-.04687-.15625-.21875v-.59375h.57813v-.32812h-.57813v-2.53125h-.5625C1.26563-3.03125.65625-2.0625.125-1.17187m.5-.1875C.95313-1.9375 1.32813-2.57812 1.73438-3.25v1.89063Zm0 0"/><path id="g" d="M.26563-.64062c0 .23437.34375.70312 1.21875.70312C2.5.0625 2.90625-.53125 2.90625-1.25c0-.6875-.39062-1.25-1.23437-1.25-.35938 0-.6875.15625-.90625.32813l.125-.95313c.03124-.17187.04687-.20312.1875-.20312H2.5625l.1875-.5-.04687-.0625H.64063l-.04688.0625-.125 1.92187.1875.125c.23438-.26562.46875-.40625.76563-.40625.375 0 .73437.28125.73437 1.01563 0 .59375-.1875 1.01562-.64062 1.01562-.34375 0-.53125-.25-.67188-.67187C.79688-.92188.73438-1 .625-1c-.15625 0-.35937.14063-.35937.35938m0 0"/><path id="h" d="M.17188-.64062c0 .23437.35937.70312 1.28125.70312.89062 0 1.4375-.40625 1.4375-1.15625 0-.79687-.70313-1-.98438-1.03125v-.01562c.3125-.0625.8125-.28125.8125-.85938 0-.71875-.59375-.95312-1.20312-.95312-.73438 0-1.20313.39062-1.20313.73437 0 .20313.25.3125.35938.3125.09374 0 .15624-.0625.1875-.15625.125-.42187.32812-.65625.625-.65625.40625 0 .5.42188.5.70313s-.07813.78125-.54688.78125c-.25 0-.42187-.0625-.53125-.0625-.09375 0-.125.0625-.125.1875 0 .10937.03125.20312.125.20312.10938 0 .28125-.07812.53125-.07812.40625 0 .6875.3125.6875.90625 0 .65625-.28125.92187-.65625.92187-.32812 0-.5625-.25-.70312-.67187C.73437-.9375.67187-1 .5625-1c-.15625 0-.39062.125-.39062.35938m0 0"/><path id="e" d="M.28125-1.39062C.28125-.42187.76563.0625 1.64063.0625c.40625 0 .95312-.20312 1.10937-.82812l-.17187-.07813c-.17188.40625-.40625.60938-.82813.60938-.70312 0-.85937-.71875-.85937-1.26563 0-.875.34375-1.21875.75-1.21875.26562 0 .42187.1875.54687.51563.03125.09375.07813.14062.1875.14062.10938 0 .32813-.07812.32813-.29687 0-.26563-.375-.5625-1-.5625-1.0625 0-1.42188.75-1.42188 1.53125m0 0"/><path id="f" d="M.1875 0h1.42188v-.17187C1.1875-.20313 1.17188-.20313 1.17188-.5v-1.375c0-.14062 0-.21875.04687-.29687.10938-.23438.35938-.4375.6875-.4375.5 0 .5625.375.5625.73437V-.5c0 .29688-.03125.29688-.45312.32813V0H3.4375v-.17187C3.03125-.20313 3-.20313 3-.5v-1.375c0-.14062.01563-.21875.04688-.3125.09375-.23437.34375-.42187.67187-.42187.35938 0 .57813.20312.57813.73437V-.5c0 .29688-.01563.29688-.4375.32813V0h1.42187v-.17187C4.875-.20313 4.84375-.20313 4.84375-.5V-2c0-.57812-.3125-.92187-.85937-.92187-.48438 0-.82813.3125-1.03125.45312-.14063-.28125-.35938-.45312-.76563-.45312-.45312 0-.8125.29687-1.01562.45312l-.0625-.45312-.89063.15625v.14062l.21875.03125c.14063.01563.1875.04688.1875.25V-.5c0 .29688-.01562.29688-.4375.32813Zm0 0"/></defs><path fill="none" stroke="#000" stroke-miterlimit="10" stroke-width=".39603" d="m53.32812 80.75 85.39064-49.29688-122.3633-14.74219Zm0 0"/><use xlink:href="#a" x="48.77515" y="93.16801"/><use xlink:href="#b" x="143.0906" y="35.47641"/><use xlink:href="#c" x="4.1253" y="12.33755"/><use xlink:href="#d" x="100.39656" y="64.36146"/><use xlink:href="#e" x="104.88858" y="64.36146"/><use xlink:href="#f" x="107.77223" y="64.36146"/><use xlink:href="#g" x="71.16666" y="19.64106"/><use xlink:href="#e" x="75.65867" y="19.64106"/><use xlink:href="#f" x="78.54233" y="19.64106"/><use xlink:href="#h" x="17.72955" y="50.67373"/><use xlink:href="#e" x="22.22157" y="50.67373"/><use xlink:href="#f" x="25.10522" y="50.67373"/></svg>