<svg xmlns="http://www.w3.org/2000/svg" xmlns:xlink="http://www.w3.org/1999/xlink" width="182.638pt" height="121.525pt" viewBox="0 0 182.638 121.525"><defs><path id="a" d="M-.21875 0h2.625l.07813-.32812-.64063-.0625C1.6875-.40625 1.625-.48437 1.625-.59375c0-.0625.03125-.15625.0625-.23437.39063-.75.75-1.5 1.1875-2.28125H5.5l.28125 2.40625s-.0625.28124-.3125.3125l-.625.0625L4.78125 0h2.875l.07813-.32812L7.28125-.375c-.35937-.03125-.40625-.20312-.46875-.67187L5.95313-8.0625H5.125L3.15625-4.625c-.59375 1.04688-1.5625 2.78125-1.98437 3.46875-.375.60938-.57813.73438-.9375.76563l-.39063.0625Zm3.32813-3.5625 1.90625-3.42187.42187 3.42187Zm0 0"/><path id="b" d="M0 0h3.53125c2.82813 0 3.39063-1.45312 3.39063-2.42187 0-1.21875-.90625-1.76563-1.76563-1.92188l.01563-.01562C6.71875-4.54687 7.375-5.4375 7.375-6.3125c0-.9375-.54687-1.75-2.70312-1.75H1.71875l-.0625.32813.6875.0625c.20313.01562.28125.10937.28125.29687 0 .0625-.01562.17188-.04687.28125l-1.375 6.125C1.10937-.57812 1-.45312.71875-.40625L.0625-.32812Zm2.32813-.89062c0-.09376.01562-.17188.04687-.26563l.67188-2.98437H3.5c1.15625 0 2.17188.32812 2.17188 1.65625 0 1.04687-.64063 2.07812-2.20313 2.07812-.90625 0-1.14062-.1875-1.14062-.48437M3.125-4.54687 3.73438-7.25c.09375-.35937.15625-.42187.9375-.42187.96875 0 1.51562.5 1.51562 1.3125 0 1.21875-1.01562 1.8125-2.29687 1.8125Zm0 0"/><path id="c" d="M.60938-3.20312c0 1.54687.75 3.375 3.64062 3.375.84375 0 1.625-.10938 2.375-.48438l.57813-1.85937h-.35938C6.20313-1 5.625-.23437 4.1875-.23437c-1.35937 0-2.32812-.875-2.32812-2.67188 0-1.04687.28124-2.34375.82812-3.26562.59375-.98438 1.5-1.67188 2.76563-1.67188 1.46875 0 1.89062.6875 1.89062 1.96875h.35938l.42187-1.75c-.67187-.42187-1.76562-.625-2.57812-.625-2.20313 0-3.46875 1.03125-4.14063 2.125C.75-5.09375.60938-4 .60938-3.20312m0 0"/><path id="d" d="M0 0h2.75l.0625-.32812L2.35938-.375c-.34375-.01562-.53125-.10937-.53125-.35937 0-.625.10937-.96875.25-1.57813l1.0625-4.76562h.01562L4.5625-.14062h.32813l4.53125-6.9375h.03125L8.03125-.96875c-.10937.39063-.21875.53125-.5.5625l-.64062.07813L6.82813 0H10l.0625-.32812-.6875-.07813c-.20312-.01562-.29687-.10937-.29687-.29687 0-.07813.01562-.17188.04687-.26563l1.39063-6.125c.10937-.40625.1875-.5625.48437-.57812l.65625-.0625.07813-.32813H9.45313C8.82813-7 8.14063-5.95312 7.4375-4.875L5.375-1.71875h-.04687l-.65625-3.25C4.4375-6.01562 4.20313-7.01562 4-8.0625H1.75l-.07812.32813.6875.0625c.20312.01562.29687.10937.29687.3125 0 .07812-.01562.15625-.03125.26562L1.51563-2.3125C1.375-1.70312 1.23437-1.25 1.10938-.875.96875-.5.75-.40625.42188-.375L.0625-.32812Zm0 0"/><path id="e" d="M0 0h2.75l.0625-.32812L2.35938-.375c-.34375-.01562-.53125-.09375-.53125-.34375 0-.625.10937-.98437.25-1.59375l1.07812-4.78125h.04688C4.29688-4.73437 5.375-2.375 6.4375 0h.76563L8.5-5.75c.14063-.60937.26563-1.0625.40625-1.45312.14063-.35938.34375-.45313.70313-.48438l.35937-.04687.0625-.32813H7.26563l-.0625.32813.46875.0625c.34375.03125.54687.14062.54687.40625 0 .42187-.125.90625-.26562 1.51562L7-1.53125h-.04687c-1.01563-2.17187-2-4.34375-2.98438-6.53125H1.75l-.07812.32813.6875.0625c.20312.01562.29687.10937.29687.3125 0 .07812-.01562.15625-.03125.26562L1.51563-2.3125C1.375-1.70312 1.23437-1.25 1.10938-.875c-.14063.375-.34375.46875-.6875.5L.0625-.32812Zm0 0"/><path id="f" d="M.23438-2.23437C.23438-1.25.6875.125 2.8125.125c.5625 0 1.15625-.07812 1.67188-.34375l.42187-1.375h-.26562C4.17188-.76562 3.75-.1875 2.76563-.1875 1.875-.1875 1.23438-.76562 1.23438-2c0-1.35937.60937-3.46875 2.45312-3.46875 1.01563 0 1.28125.54688 1.28125 1.40625h.26563l.3125-1.28125c-.46875-.29687-1.26563-.4375-1.8125-.4375-2.5 0-3.5 1.84375-3.5 3.54688m0 0"/><path id="g" d="M.04688 0h1.9375l.04687-.25-.34375-.03125c-.23437-.01562-.35937-.07812-.35937-.26562 0-.35938.09374-.67188.1875-1.15625l.70312-3.20313h.01563l.9375 4.8125h.29687l3.0625-4.8125h.01563l-.96875 4.1875c-.0625.28125-.14063.40625-.34375.42188L4.79688-.25 4.75 0h2.28125l.04688-.25L6.625-.29687c-.15625 0-.21875-.07813-.21875-.20313 0-.0625.01563-.14062.04688-.21875l.95312-4.21875c.0625-.28125.125-.40625.34375-.42187l.4375-.03125.0625-.25H6.53125C6.14063-4.9375 5.67188-4.21875 5.21875-3.5L3.82813-1.32812H3.8125L3.375-3.54687C3.21875-4.25 3.0625-4.9375 2.9375-5.64062H1.25l-.04687.25.45312.04687c.14063 0 .21875.0625.21875.20313 0 .04687-.03125.125-.04687.20312l-.73438 3.23438c-.10937.48437-.1875.79687-.28125 1.0625C.73438-.375.57813-.29687.35938-.28125L.09375-.25Zm0 0"/><path id="h" d="M.6875-1.125h4.5v-.54687h-4.5Zm0-1.8125h4.5v-.54687h-4.5Zm0 0"/><path id="i" d="m.17188-1.64062.09375.1875h2.1875V-.625c0 .26563-.09375.29688-.28125.32813L1.65625-.25V0h2.23438v-.25l-.375-.04687c-.17188-.03125-.23438-.0625-.23438-.32813v-.82812H4.125V-1.875h-.84375v-3.57812h-.6875C1.79688-4.29687.90625-2.90625.17188-1.64062M.82813-1.875c.45312-.85937 1.01562-1.78125 1.625-2.73437V-1.875Zm0 0"/><path id="j" d="m.42188 1.01563.17187.17187C1 .79688 1.65625.21875 1.65625-.42187c0-.42188-.23437-.76563-.59375-.76563-.29687 0-.45312.23438-.45312.4375 0 .29688.26562.45313.26562.79688s-.20312.6875-.45312.96875m0 0"/><path id="k" d="M.32813-1.5c0 .92188.625 1.59375 1.875 1.59375 1.26562 0 1.89062-.67187 1.89062-1.59375 0-.8125-.5-1.28125-1.07812-1.4375.48437-.125.89062-.5625.89062-1.20312 0-.90625-.70312-1.40625-1.70312-1.40625C1.21875-5.54687.5-5.03125.5-4.14062.5-3.5.92188-3.0625 1.40625-2.9375.82813-2.78125.32813-2.3125.32813-1.5m.9375.01563c0-.71875.32812-1.26563.9375-1.26563.625 0 .95312.54688.95312 1.26563 0 .73437-.3125 1.28125-.95312 1.28125-.64063 0-.9375-.54688-.9375-1.28125m.14062-2.6875c0-.60938.28125-1.07813.79688-1.07813C2.73438-5.25 3-4.78125 3-4.17187c0 .5625-.25 1.10937-.79687 1.10937-.53125 0-.79688-.54687-.79688-1.10937m0 0"/><path id="n" d="M.04688 0h2.53125C4.46875 0 5-.875 5-1.67187c0-.85938-.64062-1.25-1.23437-1.34375v-.03125c1.07812-.10938 1.54687-.71875 1.54687-1.35938 0-.67187-.39062-1.23437-1.9375-1.23437H1.25l-.0625.25.46875.04687c.14063 0 .20313.0625.20313.1875 0 .0625-.01563.14063-.03126.21875L.875-.71875C.8125-.4375.73438-.32812.53125-.29687L.09375-.25Zm1.73437-.64062c0-.0625.01563-.125.03125-.1875L2.26563-2.875h.32812C3.375-2.875 4-2.60937 4-1.75c0 .73438-.4375 1.4375-1.5 1.4375-.57812 0-.71875-.125-.71875-.32812m.54688-2.54688L2.75-5.0625c.0625-.23437.09375-.28125.60938-.28125.64062 0 1.01562.3125 1.01562.89063 0 .82812-.65625 1.26562-1.5625 1.26562Zm0 0"/><path id="o" d="M.34375-.875c0 .35938.53125.96875 1.6875.96875 1.39063 0 1.98438-.82812 1.98438-1.84375 0-1.04687-.625-1.75-1.71875-1.75-.48438 0-.95313.21875-1.23438.45313l.17188-1.4375c.03124-.21875.0625-.26563.25-.26563h2.0625l.23437-.625-.04687-.07812H.89063l-.0625.07812-.17188 2.71875.23438.14063c.32812-.39063.65625-.57813 1.09375-.57813.53125 0 1.0625.39063 1.0625 1.4375 0 .82813-.3125 1.45313-.96875 1.45313-.51563 0-.79688-.375-.98438-.90625C1.04688-1.25.95313-1.34375.8125-1.34375c-.1875 0-.46875.17188-.46875.46875m0 0"/><path id="p" d="M.04688 0h1.9375l.0625-.25-.35938-.03125c-.23437-.01562-.34375-.07812-.34375-.25 0-.35937.07813-.6875.1875-1.17187L2.23438-4.875h.04687C3.01563-3.25 3.73438-1.625 4.45313 0h.625l.875-3.9375c.3125-1.375.4375-1.39062.76562-1.4375l.26563-.01562.04687-.25H5.07813l-.04688.25.35938.03125c.23437.03125.35937.09375.35937.28125 0 .25-.10937.65625-.20312 1.14062l-.625 2.76563h-.03125c-.67188-1.5-1.34375-2.98438-2-4.46875h-1.625l-.04688.25.45313.04687c.14062 0 .20312.0625.20312.20313 0 .04687 0 .125-.03125.20312l-.73437 3.23438C1-1.21875.90625-.90625.8125-.64062.71875-.375.59375-.29687.35938-.28125L.09375-.25Zm0 0"/><path id="q" d="M.21875-.875c0 .34375.54688.96875 1.78125.96875 1.21875 0 1.96875-.59375 1.96875-1.625 0-1.125-.96875-1.40625-1.375-1.45312v-.03125c.4375-.07813 1.14063-.40625 1.14063-1.20313 0-.95312-.78125-1.32812-1.65625-1.32812-1.03125 0-1.64063.57812-1.64063 1 0 .26562.3125.42187.45313.42187.125 0 .1875-.07812.23437-.20312.1875-.57813.46875-.92188.90625-.92188.60938 0 .75.57813.75 1.01563 0 .42187-.125 1.09375-.79687 1.09375-.375 0-.625-.07813-.73438-.07813-.125 0-.17187.09375-.17187.25s.04687.25.17187.25c.10938 0 .35938-.09375.73438-.09375C2.60938-2.8125 3-2.28125 3-1.5 3-.5625 2.5625-.20312 2-.20312c-.48437 0-.82812-.375-1-.90625-.04687-.15626-.14062-.25-.26562-.25-.1875 0-.51563.17187-.51563.48437m0 0"/><path id="r" d="M.23438-.09375.32813 0h3.45312l.29688-1.17187-.23438-.03126c-.1875.4375-.34375.48438-.67187.48438H1.07813c.14062-.39062.57812-.9375 1.35937-1.46875.82813-.54687 1.42188-.9375 1.42188-1.82812 0-1.14063-.78125-1.53125-1.67188-1.53125-1.125 0-1.75.64062-1.75 1.14062 0 .28125.32813.42188.51563.42188.15624 0 .23437-.07813.26562-.23438.125-.57812.4375-1.03125.90625-1.03125.57813 0 .76563.5.76563 1.09375 0 .78125-.35938 1.3125-1.125 1.96875C.71875-1.29687.35938-.70312.23438-.09375m0 0"/><path id="s" d="M-.15625 0h1.85938L1.75-.25l-.45312-.04687c-.09376 0-.15626-.0625-.15626-.14063 0-.14062.84376-1.6875.85938-1.70312h1.78125l.1875 1.625S3.92188-.3125 3.75-.29688L3.3125-.25 3.26563 0h2.125l.04687-.25-.3125-.03125c-.25-.01562-.28125-.1875-.32812-.5l-.5625-4.85937h-.6875l-1.375 2.42187C1.73438-2.45312 1.0625-1.25.76563-.78125c-.23438.375-.35938.46875-.625.5l-.25.03125Zm2.32813-2.46875L3.46875-4.8125l.26563 2.34375Zm0 0"/><path id="l" d="M.40625-1.96875c0 1.375.65625 2.0625 1.89063 2.0625.5625 0 1.34375-.29687 1.5625-1.17187L3.625-1.1875c-.25.57813-.57812.85938-1.17187.85938-.96875 0-1.20313-1.01563-1.20313-1.78125 0-1.21875.48438-1.70313 1.04688-1.70313.375 0 .60937.26563.76562.71875.0625.125.10938.20313.26563.20313.17187 0 .48437-.10938.48437-.42188 0-.375-.54687-.78125-1.4375-.78125-1.48437 0-1.96875 1.04688-1.96875 2.125m0 0"/><path id="m" d="M.26563 0H2.25v-.23437c-.57812-.04688-.60937-.0625-.60937-.48438V-2.625c0-.20312 0-.3125.0625-.4375.15624-.32812.51562-.59375.96875-.59375.70312 0 .78125.51563.78125 1.01563v1.92187c0 .42188-.01563.4375-.60938.48438V0h1.98438v-.23437c-.57813-.04688-.60938-.0625-.60938-.48438V-2.625c0-.20312.01563-.3125.0625-.4375.125-.32812.46875-.59375.9375-.59375.5 0 .8125.28125.8125 1.01563v1.92187c0 .42188-.01562.4375-.60937.48438V0h2v-.23437c-.57813-.04688-.625-.0625-.625-.48438v-2.07812c0-.82813-.4375-1.29688-1.20313-1.29688-.67187 0-1.15625.4375-1.4375.625-.20312-.39062-.51562-.625-1.09375-.625-.625 0-1.14062.40625-1.42187.625l-.07813-.625-1.26562.20313v.20312l.3125.03125c.20312.04688.26562.07813.26562.375v2.5625c0 .42188-.03125.4375-.60937.48438Zm0 0"/></defs><path fill="none" stroke="#000" stroke-miterlimit="10" stroke-width=".39695" d="M16.69531 104.47266H87.2852l-10.94141-87.5352Zm0 0"/><use xlink:href="#a" x="4.31009" y="116.91701"/><use xlink:href="#b" x="91.66664" y="116.91701"/><use xlink:href="#c" x="72.40991" y="12.3836"/><path fill="none" stroke="#000" stroke-miterlimit="10" stroke-width=".39695" d="M28.625 86.96484h56.4727"/><use xlink:href="#d" x="12.8776" y="90.99732"/><use xlink:href="#e" x="89.47819" y="90.99732"/><use xlink:href="#f" x="126.96169" y="41.21665"/><use xlink:href="#g" x="133.04004" y="41.21665"/><use xlink:href="#h" x="143.52088" y="41.21665"/><use xlink:href="#i" x="151.08409" y="41.21665"/><use xlink:href="#j" x="155.48656" y="41.21665"/><use xlink:href="#k" x="158.67336" y="41.21665"/><use xlink:href="#l" x="164.91583" y="41.21665"/><use xlink:href="#m" x="168.96229" y="41.21665"/><use xlink:href="#f" x="126.96169" y="56.10222"/><use xlink:href="#n" x="133.04004" y="56.10222"/><use xlink:href="#h" x="140.59458" y="56.10222"/><use xlink:href="#o" x="148.1578" y="56.10222"/><use xlink:href="#l" x="154.39944" y="56.10222"/><use xlink:href="#m" x="158.44589" y="56.10222"/><use xlink:href="#g" x="126.96169" y="70.98778"/><use xlink:href="#p" x="135.74057" y="70.98778"/><use xlink:href="#h" x="144.99705" y="70.98778"/><use xlink:href="#q" x="152.56027" y="70.98778"/><use xlink:href="#j" x="156.96274" y="70.98778"/><use xlink:href="#r" x="160.14953" y="70.98778"/><use xlink:href="#l" x="166.39256" y="70.98778"/><use xlink:href="#m" x="170.43901" y="70.98778"/><use xlink:href="#s" x="126.96169" y="85.87335"/><use xlink:href="#n" x="132.93585" y="85.87335"/><use xlink:href="#h" x="140.49038" y="85.87335"/><use xlink:href="#i" x="148.0536" y="85.87335"/><use xlink:href="#l" x="154.29485" y="85.87335"/><use xlink:href="#m" x="158.3413" y="85.87335"/></svg>