<svg xmlns="http://www.w3.org/2000/svg" xmlns:xlink="http://www.w3.org/1999/xlink" width="118.741" height="110.262" viewBox="0 0 118.741 110.262"><defs><path id="a" d="M0 0h5.71875l.14063-.59375-1.25-.09375C4.25-.71875 4.09375-.90625 4.09375-1.25c0-.125.03125-.3125.0625-.48437l1.32813-5.8125h.03125C6.48438-5.59375 7.5-3.5 8.76563-1.76562 9.78125-.40625 10.6875.04688 12.29688.09374l1.01562.01563.15625-.625c-1.20312-.10938-1.6875-.67188-2.45312-1.59375C9.625-3.875 8.1875-6.40625 7.32813-8.26562c1.89062-1.57813 3.625-3.01563 5.54687-4.35938 1.20313-.84375 1.6875-1.14062 3.375-1.25l.09375-.59375h-5.20312l-.09375.59375.79687.0625c.21875.03125.29688.125.29688.25 0 .10938-.10938.26563-.3125.45313l-6.1875 5.3125h-.09375l1.10937-4.9375c.15625-.64063.35938-1 .89063-1.04688l1.15625-.09375.14062-.59375H3.125l-.15625.59375 1.23438.09375c.35937.01563.51562.25.51562.57813 0 .14062-.01562.28125-.0625.46875l-2.51562 11c-.15625.67187-.35938.95312-.875 1L.10938-.59375Zm0 0"/><path id="b" d="M.45313 0h5.71875l.125-.59375-1.25-.09375c-.34375-.03125-.5-.21875-.5-.5625 0-.125.01562-.3125.0625-.48437l2.5-11c.15625-.64063.34375-1 .89062-1.04688l1.15625-.09375.125-.59375H3.5625l-.15625.59375 1.25.09375c.35938.01563.51563.25.51563.57813 0 .14062-.03125.28125-.07813.46875l-2.51562 11c-.15625.67187-.34375.95312-.85938 1L.5625-.59375Zm0 0"/><path id="c" d="M-1.73437 1.92188v.53125c.21874.01562.46875.04687.6875.04687.95312 0 2.39062-.25 3.23437-.82812.96875-.6875 1.70313-1.84375 2.20313-3.9375l2.4375-10.53125c.15625-.65625.34375-.9375.875-.98438l1.15625-.09375.15625-.59375H3.25l-.125.59375 1.21875.09375q.5625.02344.5625.5625c0 .10938-.03125.23438-.07812.42188L2.53125-3C2.07813-1.04687 1.51563.26563.875.875c-.71875.64063-1.5625.92188-2.60937 1.04688m0 0"/><path id="d" d="M.3125-1.14062C.3125-.71875.95313.125 2.625.125c1.59375 0 2.57813-.75 2.57813-2.07812 0-1.45313-1.26563-1.8125-1.76563-1.875v-.03125c.5625-.125 1.46875-.5 1.46875-1.53125 0-1.29688-1.07812-1.73438-2.1875-1.73438-1.3125 0-2.15625.71875-2.15625 1.32813 0 .375.45313.5625.65625.5625.17188 0 .28125-.10938.32813-.28125.23437-.75.57812-1.1875 1.125-1.1875.73437 0 .90625.75.90625 1.28125 0 .51562-.14063 1.40625-.98438 1.40625-.45312 0-.78125-.125-.95312-.125-.1875 0-.23438.125-.23438.34375 0 .20312.04688.35937.23438.35937.17187 0 .48437-.125.95312-.125.71875 0 1.23438.54688 1.23438 1.64063 0 1.15625-.5 1.625-1.1875 1.625-.59375 0-1-.4375-1.25-1.20313-.0625-.1875-.1875-.3125-.375-.3125-.28126 0-.70313.23438-.70313.67188m0 0"/><path id="g" d="M.46875-1.14062c0 .42187.625 1.26562 2.20313 1.26562C4.5.125 5.23438-.95312 5.23438-2.25c0-1.23437-.71875-2.23437-2.23438-2.23437-.64062 0-1.23437.26562-1.60937.57812l.21874-1.73437c.04688-.3125.07813-.34375.32813-.34375H4.625l.32813-.90625L4.875-7H1.14063l-.07813.10938-.21875 3.46875.34375.21875c.42188-.5.82813-.73438 1.35938-.73438.6875 0 1.34375.51563 1.34375 1.82813 0 1.0625-.35938 1.8125-1.15625 1.8125-.625 0-.96875-.4375-1.21875-1.1875-.0625-.1875-.1875-.3125-.40625-.3125-.26563 0-.64063.26562-.64063.65625m0 0"/><path id="e" d="M.51563-2.51562C.51563-.76562 1.375.125 2.9375.125c.73438 0 1.73438-.375 2.01563-1.5l-.3125-.15625c-.3125.73438-.73438 1.10938-1.5 1.10938-1.25 0-1.53125-1.3125-1.53125-2.28125 0-1.5625.60937-2.1875 1.32812-2.1875.48438 0 .78125.34375 1 .90625.0625.17187.125.28125.32813.28125.21875 0 .60937-.14063.60937-.54688 0-.46875-.6875-1.01562-1.82812-1.01562-1.90625 0-2.53125 1.35937-2.53125 2.75m0 0"/><path id="f" d="M.32813 0h2.5625v-.29687c-.75-.0625-.78125-.07813-.78125-.60938v-2.45312c0-.26563 0-.42188.07812-.5625.20313-.42188.65625-.76563 1.23438-.76563.90625 0 1.01562.65625 1.01562 1.29688v2.48437c0 .53125-.03125.54688-.79687.60938V0H6.1875v-.29687c-.73437-.0625-.76562-.07813-.76562-.60938v-2.45312c0-.26563 0-.40625.07812-.57813.14063-.42187.59375-.75 1.1875-.75.65625 0 1.0625.35938 1.0625 1.29688v2.48437c0 .53125-.04687.54688-.79687.60938V0h2.5625v-.29687c-.75-.0625-.79688-.07813-.79688-.60938v-2.6875c0-1.04687-.5625-1.67187-1.5625-1.67187-.84375 0-1.46875.57812-1.82812.8125-.26563-.5-.65625-.8125-1.39063-.8125-.8125 0-1.46875.54687-1.82812.8125L2-5.26562l-1.60937.28125v.25l.39062.0625c.26563.03125.34375.07812.34375.45312v3.3125c0 .53125-.03125.54688-.79687.60938Zm0 0"/></defs><path fill="none" stroke="red" stroke-miterlimit="10" stroke-width=".39585" d="M31.23047 77.27344h12.67187V64.60157H31.23047v12.67187"/><path fill="none" stroke="#000" stroke-miterlimit="10" stroke-width=".39585" d="m31.23047 29.76174 63.34763 47.5117H31.23047Zm0 0"/><use xlink:href="#a" x="7.68742" y="99.61327"/><use xlink:href="#b" x="14.74618" y="21.89446"/><use xlink:href="#c" x="102.44619" y="99.61327"/><use xlink:href="#d" x="70.77119" y="45.52827"/><use xlink:href="#e" x="78.85533" y="45.52827"/><use xlink:href="#f" x="84.04352" y="45.52827"/><use xlink:href="#g" x="51.44256" y="92.13135"/><use xlink:href="#e" x="59.5267" y="92.13135"/><use xlink:href="#f" x="64.71489" y="92.13135"/></svg>