<svg xmlns="http://www.w3.org/2000/svg" xmlns:xlink="http://www.w3.org/1999/xlink" width="249.646pt" height="156.369pt" viewBox="0 0 249.646 156.369"><defs><path id="a" d="M0 0h5.71875c3.73438 0 5.89063-1.34375 7.23438-3.375 1.07812-1.60937 1.25-3.17187 1.25-4.28125 0-1.51562-.53125-3.01562-1.60938-3.90625-1.07812-.92187-2.75-1.34375-4.8125-1.34375H2.76563l-.125.54688 1.10937.07812c.3125.01563.4375.17188.4375.46875 0 .125-.01562.28125-.0625.46875L1.90625-1.54687c-.14062.60937-.29687.85937-.75.89062l-1.0625.125Zm3.6875-1.375c0-.07812 0-.15625.01563-.23437l2.25-9.95313c.15625-.64062.42187-.70312 2.04687-.70312 3.89063.07812 4.20313 2.70312 4.20313 4.1875 0 1.60937-.375 3.10937-1.20313 4.5-1.07812 1.75-2.67187 2.92187-5.76562 2.92187-.90625 0-1.54688-.125-1.54688-.71875m0 0"/><path id="b" d="M.20313 0h9.71875l.95312-3.28125h-.5625c-.95312 2.3125-1.78125 2.625-4.07812 2.625-2.20313 0-2.32813-.28125-2.32813-.76562 0-.20313.0625-.48438.14063-.85938L5-6.375h2.4375c1.39063 0 1.65625.28125 1.65625 1.09375 0 .15625 0 .3125-.03125.51563h.5625l.875-3.89063h-.57812C9.45313-7.35937 9.25-7.0625 7.59375-7.0625h-2.4375l1.0625-4.64062c.09375-.46875.20313-.5625.53125-.5625h2.23438c1.82812 0 2.20312.48437 2.20312 1.48437 0 .46875-.0625.98438-.0625.98438h.5625l.6875-3.10938H2.95313l-.14063.54688 1.14063.07812c.3125.01563.45312.15625.45312.45313 0 .125-.01562.26562-.0625.4375L2.125-1.54687c-.15625.64062-.3125.85937-.78125.89062l-1.04687.125Zm0 0"/><path id="c" d="M.20313 0h5.40625l.125-.53125-1.40625-.10937c-.34375-.01563-.48438-.17188-.48438-.45313 0-.10937.03125-.23437.0625-.39062L4.9375-6.09375h2.48438c1.375 0 1.625.26563 1.625 1.04688 0 .17187 0 .34375-.01563.54687h.54688l.875-3.90625h-.54688C9.42188-7.10937 9.20313-6.8125 7.5625-6.8125H5.09375l1.125-4.875c.10938-.48437.20313-.57812.54688-.57812h2.28125c1.82812 0 2.1875.48437 2.1875 1.46875 0 .48437-.0625.96875-.0625.96875H11.75l.6875-3.07813H2.95313l-.10938.54688 1.10938.09375c.3125.01562.45312.1875.45312.48437 0 .09375-.01562.23438-.0625.375L2.125-1.48437c-.14062.54687-.3125.8125-.78125.84375L.29688-.53125Zm0 0"/><path id="d" d="m.20313-1.875.125.23438h2.45312v.9375c0 .26562-.09375.32812-.28125.34375l-.60937.04687V0h2.64062v-.3125l-.4375-.03125c-.1875-.03125-.25-.09375-.25-.35937v-.9375h.9375v-.53125h-.9375v-4.0625h-.89062c-.92188 1.375-1.90625 2.92187-2.75 4.35937m.8125-.29687c.5-.9375 1.125-1.96875 1.76562-3.03125v3.03125Zm0 0"/><path id="g" d="M.42188-1.01562c0 .375.54687 1.125 1.95312 1.125C4.01563.10938 4.65625-.84375 4.65625-2c0-1.10937-.625-2-1.98437-2-.5625 0-1.10938.25-1.4375.51563l.1875-1.53125c.04687-.28125.09374-.3125.29687-.3125H4.125l.28125-.79688-.0625-.10937H1.01563l-.07813.09375L.75-3.04687l.29688.20312c.375-.45312.75-.65625 1.21875-.65625.625 0 1.20312.45313 1.20312 1.60938 0 .95312-.32812 1.625-1.03125 1.625-.54687 0-.85937-.39063-1.09375-1.04688-.04687-.17187-.15625-.28125-.35937-.28125-.23438 0-.5625.21875-.5625.57813m0 0"/><path id="h" d="M.28125-1.01562c0 .375.5625 1.125 2.04688 1.125C3.75.10938 4.64063-.5625 4.64063-1.75c0-1.28125-1.14063-1.60937-1.57813-1.65625v-.03125c.5-.10937 1.29688-.45312 1.29688-1.35937 0-1.15625-.95313-1.54688-1.9375-1.54688C1.25-6.34375.5-5.70312.5-5.17187c0 .34375.40625.51562.57813.51562.15624 0 .25-.09375.29687-.25.21875-.67187.51563-1.0625 1-1.0625.65625 0 .8125.67188.8125 1.14063 0 .45312-.125 1.25-.875 1.25-.40625 0-.6875-.10938-.85937-.10938-.15626 0-.20313.10938-.20313.29688 0 .20312.04688.32812.20313.32812.17187 0 .4375-.10937.85937-.10937.64063 0 1.09375.5 1.09375 1.45312 0 1.03125-.4375 1.45313-1.0625 1.45313-.51562 0-.89062-.39063-1.10937-1.0625q-.07032-.28126-.32813-.28126c-.25 0-.625.20313-.625.59376m0 0"/><path id="e" d="M.45313-2.25c0 1.5625.76562 2.35938 2.17187 2.35938.65625 0 1.53125-.34375 1.79688-1.34375l-.28125-.125c-.29688.65625-.65625.98437-1.34375.98437-1.10938 0-1.375-1.15625-1.375-2.03125 0-1.39062.54687-1.95312 1.20312-1.95312.42188 0 .6875.3125.875.8125.0625.15625.125.25.29688.25.1875 0 .54687-.125.54687-.48438 0-.42187-.60937-.90625-1.625-.90625C1.01563-4.6875.45313-3.48437.45313-2.25m0 0"/><path id="f" d="M.29688 0H2.5625v-.26562C1.90625-.3125 1.875-.34375 1.875-.8125V-3c0-.23437 0-.35937.0625-.5.1875-.375.59375-.67187 1.10938-.67187.79687 0 .90625.57812.90625 1.15625V-.8125c0 .46875-.03125.5-.70313.54688V0h2.26563v-.26562c-.65625-.04688-.6875-.07813-.6875-.54688V-3c0-.23437 0-.35937.0625-.5.14062-.375.53125-.67187 1.0625-.67187.57812 0 .9375.32812.9375 1.15625V-.8125c0 .46875-.03125.5-.70313.54688V0h2.28125v-.26562C7.8125-.3125 7.76563-.34375 7.76563-.8125v-2.375c0-.95312-.5-1.5-1.39063-1.5-.76562 0-1.3125.51563-1.625.71875-.23437-.4375-.59375-.71875-1.25-.71875-.71875 0-1.29687.48438-1.625.71875l-.09375-.71875-1.4375.25v.21875l.34375.04688C.9375-4.125 1-4.09375 1-3.75v2.9375c0 .46875-.03125.5-.70312.54688Zm0 0"/></defs><path fill="none" stroke="#000" stroke-miterlimit="10" stroke-width=".3969" d="m85.83984 129.21484 136.9219-79.05079L26.55077 26.52343Zm0 0"/><use xlink:href="#a" x="78.53778" y="149.12623"/><use xlink:href="#b" x="229.77249" y="56.61454"/><use xlink:href="#c" x="6.9397" y="19.51425"/><use xlink:href="#d" x="161.31176" y="102.93263"/><use xlink:href="#e" x="168.51668" y="102.93263"/><use xlink:href="#f" x="173.14061" y="102.93263"/><use xlink:href="#g" x="114.44189" y="31.225"/><use xlink:href="#e" x="121.64482" y="31.225"/><use xlink:href="#f" x="126.26876" y="31.225"/><use xlink:href="#h" x="28.75467" y="80.98619"/><use xlink:href="#e" x="35.95959" y="80.98619"/><use xlink:href="#f" x="40.58352" y="80.98619"/></svg>