<svg xmlns="http://www.w3.org/2000/svg" xmlns:xlink="http://www.w3.org/1999/xlink" width="90.967pt" height="60.226pt" viewBox="0 0 90.967 60.226"><defs><path id="a" d="M-.21875 0h2.60938l.0625-.32812-.64063-.0625c-.14062-.01563-.20312-.09375-.20312-.20313 0-.0625.03124-.14062.0625-.23437.375-.73438.75-1.48438 1.1875-2.26563h2.59375l.28125 2.39063s-.0625.28124-.3125.3125l-.60938.0625L4.75 0h2.84375l.0625-.32812-.4375-.04688C6.85938-.40625 6.8125-.5625 6.75-1.04687L5.90625-8h-.82812l-1.9375 3.40625c-.59375 1.04688-1.54688 2.76563-1.98438 3.45313-.375.59375-.5625.71875-.92187.76562l-.375.04688Zm3.3125-3.53125 1.875-3.39062.42188 3.39062Zm0 0"/><path id="b" d="M0 0h3.5c2.79688 0 3.35938-1.4375 3.35938-2.39062 0-1.21875-.89063-1.75-1.75-1.90625l.01562-.03125c1.54688-.1875 2.1875-1.0625 2.1875-1.9375C7.3125-7.1875 6.76563-8 4.64063-8h-2.9375l-.0625.34375.6875.0625q.28125 0 .28125.28125c0 .0625-.03125.17188-.04688.28125L1.1875-.95312C1.10938-.57812 1-.4375.71875-.40625L.0625-.32812Zm2.3125-.89062c0-.07813.01563-.17188.03125-.25l.67188-2.96875h.45312c1.14063 0 2.15625.32812 2.15625 1.65625C5.625-1.42187 5-.40625 3.4375-.40625c-.90625 0-1.125-.1875-1.125-.48437m.78125-3.625.60938-2.67188c.07812-.34375.14062-.40625.92187-.40625.96875 0 1.51563.48438 1.51563 1.29688 0 1.20312-1.01563 1.78125-2.29688 1.78125Zm0 0"/><path id="c" d="M.60938-3.17187c0 1.53125.75 3.34375 3.60937 3.34375.82813 0 1.60938-.10938 2.34375-.48438l.5625-1.84375h-.34375C6.15625-1 5.57813-.23437 4.14063-.23437c-1.34375 0-2.29688-.85938-2.29688-2.64063 0-1.04687.26563-2.32812.82813-3.25.57812-.96875 1.48437-1.64062 2.71875-1.64062 1.46875 0 1.89062.67187 1.89062 1.9375h.35938l.40625-1.73438C7.39063-7.98437 6.3125-8.17187 5.5-8.17187c-2.1875 0-3.4375 1.01562-4.10937 2.09375C.75-5.04687.60938-3.96875.60938-3.17187m0 0"/><path id="d" d="M.625 0h1.96875v-.1875l-.4375-.04687c-.14062 0-.20312-.04688-.20312-.25v-3.40625l-.03126-.03125-1.28124.20312v.17188l.45312.0625c.125.01562.17188.0625.17188.25v2.75c0 .20312-.0625.25-.20313.25L.625-.1875Zm0 0"/><path id="g" d="M.17188-.07812.25 0h2.48438l.21875-.875-.17188-.03125c-.14062.3125-.25.35938-.48437.35938H.82813c.09374-.26563.35937-.64063.95312-1 .59375-.39063 1-.65625 1-1.29688 0-.79687-.54687-1.07812-1.20312-1.07812-.78125 0-1.26563.42187-1.26563.82812 0 .21875.25.3125.39063.3125.10937 0 .17187-.0625.20312-.17187.09375-.4375.29688-.75.625-.75.375 0 .5.34375.5.75 0 .51562-.20312.90625-.76562 1.375C.51563-.92187.25-.5.17188-.07812m0 0"/><path id="e" d="M.28125-1.39062C.28125-.42187.75.0625 1.625.0625c.40625 0 .95313-.20312 1.10938-.82812L2.5625-.84375c-.1875.40625-.40625.60938-.82812.60938-.6875 0-.84375-.71875-.84375-1.26563 0-.85937.32812-1.20312.73437-1.20312.26563 0 .42188.20312.54688.51562.03125.09375.0625.14063.1875.14063.10937 0 .32812-.07813.32812-.29688 0-.26562-.375-.54687-1-.54687-1.0625 0-1.40625.73437-1.40625 1.5m0 0"/><path id="f" d="M.1875 0h1.40625v-.17187c-.42187-.03126-.4375-.03126-.4375-.32813v-1.35937c0-.14063 0-.21876.04688-.29688.10937-.23437.35937-.42187.6875-.42187.48437 0 .54687.35937.54687.71875V-.5c0 .29688-.01562.29688-.42187.32813V0h1.40625v-.17187C3-.20313 2.98438-.20313 2.98438-.5v-1.35937c0-.14063 0-.21876.04687-.3125.07813-.23438.32813-.40625.65625-.40625.35938 0 .57813.20312.57813.71875V-.5c0 .29688-.01563.29688-.4375.32813V0H5.25v-.17187C4.82813-.20313 4.8125-.20313 4.8125-.5v-1.48437c0-.57813-.3125-.90625-.85937-.90625-.48438 0-.8125.3125-1.01563.4375-.14062-.26563-.35937-.4375-.76562-.4375-.45313 0-.8125.28125-1.01563.4375l-.04687-.4375L.21874-2.75v.14063l.21875.03125c.14063.03125.1875.04687.1875.25V-.5c0 .29688-.01562.29688-.4375.32813Zm0 0"/></defs><path fill="none" stroke="red" stroke-miterlimit="10" stroke-width=".39344" d="M69.27344 42.67188h-6.9961v-6.9961h6.9961v6.9961"/><path fill="none" stroke="#000" stroke-miterlimit="10" stroke-width=".39344" d="M69.27344 42.67188V16.4336L16.7969 42.67188Zm0 0"/><use xlink:href="#a" x="73.61694" y="55.00707"/><use xlink:href="#b" x="73.61694" y="12.08963"/><use xlink:href="#c" x="4.65916" y="55.1917"/><use xlink:href="#d" x="73.61694" y="31.48339"/><use xlink:href="#e" x="78.08082" y="31.48339"/><use xlink:href="#f" x="80.94562" y="31.48339"/><use xlink:href="#g" x="36.7063" y="50.9433"/><use xlink:href="#e" x="41.17018" y="50.9433"/><use xlink:href="#f" x="44.03498" y="50.9433"/></svg>