<svg xmlns="http://www.w3.org/2000/svg" xmlns:xlink="http://www.w3.org/1999/xlink" width="133.481pt" height="265.532pt" viewBox="0 0 133.481 265.532"><defs><path id="a" d="M.21875 0H6.3125l.14063-.60937L4.875-.71875c-.39062-.01562-.54687-.20312-.54687-.51562 0-.125.03125-.26563.07812-.4375l1.15625-5.1875h2.78125c1.54688 0 1.84375.29687 1.84375 1.1875 0 .17187 0 .375-.03125.60937h.625l.98438-4.40625h-.625C10.60938-8 10.35938-7.65625 8.5-7.65625H5.73438l1.25-5.5c.14062-.53125.25-.64062.625-.64062h2.57812c2.04688 0 2.45313.53125 2.45313 1.65625 0 .53125-.0625 1.09375-.0625 1.09375h.64062L14-14.51562H3.32813l-.14063.60937 1.25.10938c.35938.01562.51563.20312.51563.53125 0 .10937-.01563.26562-.0625.42187l-2.5 11.17188c-.15625.625-.35938.90625-.875.95312l-1.1875.10938Zm0 0"/><path id="b" d="M0 0h6.4375c4.1875 0 6.625-1.51562 8.14063-3.79687 1.20312-1.8125 1.40625-3.57813 1.40625-4.82813 0-1.6875-.59375-3.39062-1.8125-4.39062-1.21875-1.03125-3.09375-1.5-5.42188-1.5H3.10938l-.14063.60937 1.25.07813c.35938.03125.5.20312.5.54687 0 .125-.03125.3125-.07812.51563l-2.5 11.03125c-.15625.6875-.32813.95312-.84375 1l-1.1875.125Zm4.15625-1.54687c0-.07813 0-.17188.01563-.26563l2.53125-11.20312c.17187-.71875.46875-.78125 2.29687-.78125 4.375.09375 4.73438 3.03125 4.73438 4.70312 0 1.8125-.42188 3.51563-1.35938 5.07813-1.20312 1.96875-3 3.28125-6.48437 3.28125-1.01563 0-1.73438-.14063-1.73438-.8125m0 0"/><path id="c" d="M.21875 0h10.95313l1.0625-3.6875h-.625C10.53125-1.09375 9.59375-.73437 7.01563-.73437c-2.48438 0-2.60938-.3125-2.60938-.875 0-.21876.0625-.53125.15625-.95313L5.625-7.17187h2.75c1.5625 0 1.84375.3125 1.84375 1.23437 0 .17188 0 .35938-.01562.57813h.625l.98437-4.375h-.64062c-.54688 1.45312-.76563 1.78125-2.625 1.78125H5.8125l1.17188-5.21875c.10937-.51563.25-.625.60937-.625h2.51563c2.0625 0 2.48437.53125 2.48437 1.67187 0 .51563-.0625 1.09375-.0625 1.09375h.625l.78125-3.48437H3.32813l-.15625.60937 1.26562.07813c.35938.03125.51563.1875.51563.51562 0 .14063-.01563.29688-.0625.5l-2.5 11.07813c-.1875.70312-.35938.95312-.875 1l-1.1875.125Zm0 0"/><path id="d" d="M.89063-5.98437c0 2.09375.6875 3.8125 1.78125 4.75C3.90625-.15626 5.625.3125 7.5625.3125c1.54688 0 3.25-.35937 4.45313-.79687l1-4.25c.1875-.71875.29687-1 .65625-1.04688l.90625-.09375.14062-.59375H9.17188L9.0625-5.875l1.5625.14063c.29688.01562.42188.15625.42188.48437 0 .14063-.01563.29688-.0625.51563l-.76563 3.17187c-.15625.60938-.42187 1.14063-2.60937 1.14063-2.54688 0-4.39063-1.70313-4.39063-5.40625 0-3.34375 1.625-8.28125 6.65625-8.28125 2.73438 0 3.20313 1.60937 3.34375 3.59375h.625l.76563-3.28125c-1.28125-.6875-2.95313-1.04688-4.71875-1.04688-3.21875 0-5.53125 1.15625-7.01563 3.03125C1.5-10.04687.89063-7.84375.89063-5.98437m0 0"/><path id="e" d="M0 0h5.73438L5.875-.60937 4.625-.6875c-.35937-.03125-.51562-.20312-.51562-.54687 0-.15626.01562-.3125.0625-.5L5.375-7.17187h7.01563l-1.21875 5.4375c-.1875.70312-.39063.95312-.90625 1l-1.15625.125L9 0h5.73438l.14062-.60937-1.23437-.07813c-.375-.03125-.53125-.20312-.53125-.5625 0-.14062.01562-.29687.0625-.48437l2.53125-11.03125c.17187-.70313.32812-1.01563.85937-1.0625l1.17188-.07813.125-.60937H12.125l-.15625.60937 1.25.07813c.35938.03125.51563.23437.51563.59375 0 .125-.03125.28125-.0625.46875l-1.07813 4.8125H5.57813l1.09375-4.8125c.1875-.70313.35937-1.01563.89062-1.0625l1.17188-.07813.125-.60937H3.125l-.15625.60937 1.25.07813c.35938.03125.51563.23437.51563.59375 0 .125-.01563.28125-.0625.46875L2.14063-1.73437c-.17188.70312-.35938.95312-.875 1l-1.15625.125Zm0 0"/><path id="f" d="M.1875 0h7.76563l.78125-2.70312h-.46875C7.48438-.89062 6.75-.5625 5.07813-.5625c-1.57813 0-1.78125-.125-1.78125-.57812 0-.14063.03125-.32813.09375-.57813L4.15625-5H5.9375c1.03125 0 1.23438.25 1.23438.90625 0 .09375 0 .25-.01563.375H7.625l.70313-3.14062h-.48438c-.40625 1.03125-.5625 1.26562-1.76562 1.26562H4.28125l.8125-3.5625c.09375-.375.1875-.45312.5-.45312h1.57813c1.40625 0 1.70312.42187 1.71875 1.1875 0 .15625 0 .625-.01563.76562h.46875l.54688-2.5H2.375l-.125.45313.85938.0625c.25.01562.35937.125.35937.35937 0 .09375-.03125.21875-.0625.375l-1.71875 7.625c-.125.5-.25.71875-.625.75l-.78125.07813Zm0 0"/><path id="g" d="M.78125-4.1875C.78125-.40625 3.57813.21875 5.4375.21875c1.07813 0 2.29688-.23437 3.20313-.625l.6875-2.875c.125-.5.1875-.71875.46875-.75l.64062-.0625.09375-.45312H6.48438l-.09375.45312L7.45313-4c.20312.01563.29687.10938.29687.34375 0 .09375-.03125.21875-.0625.375L7.17188-1.125C7.0625-.65625 6.875-.34375 5.5-.34375 3.75-.34375 2.625-1.5 2.625-3.9375c0-2.40625 1.125-5.89062 4.46875-5.89062 1.82813 0 2.23438 1.125 2.32813 2.54687h.46875l.51562-2.375c-.89062-.51562-2.10937-.73437-3.28125-.73437-5.0625 0-6.34375 3.96875-6.34375 6.20312m0 0"/><path id="h" d="M1.25-2.01562h8.07813V-3H1.25Zm0-3.26563h8.07813v-.98437H1.25Zm0 0"/><path id="i" d="M.59375-4.90625c0 2.875.875 5.07813 3.375 5.07813s3.375-2.20313 3.375-5.07813-.875-5.07812-3.375-5.07812-3.375 2.20312-3.375 5.07812m1.6875 0c0-2.21875.34375-4.53125 1.6875-4.53125s1.6875 2.3125 1.6875 4.53125S5.3125-.375 3.96875-.375s-1.6875-2.3125-1.6875-4.53125m0 0"/><path id="j" d="m.75 1.82813.32813.29687C1.8125 1.4375 2.98438.40625 2.98438-.75c0-.78125-.42188-1.375-1.0625-1.375-.53125 0-.8125.40625-.8125.78125 0 .53125.45312.8125.45312 1.4375 0 .60938-.34375 1.21875-.8125 1.73438m0 0"/><path id="k" d="M.60938-4.59375c0 3.125 1.10937 4.76563 3.45312 4.76563C6.34375.17188 7.5-1.21875 7.5-3.15625c0-2-1.26562-3.07812-2.82812-3.07812-1.10938 0-1.9375.71875-2.375 1.25C2.3125-7.70312 3.03125-9.4375 4.375-9.4375c.65625 0 1.10938.57813 1.34375 1.45313.0625.1875.20313.34375.45313.34375.34375 0 .85937-.26563.85937-.71875 0-.625-.75-1.625-2.5625-1.625-2.375 0-3.85937 1.79687-3.85937 5.39062m1.6875 1.125c0-.875.625-1.90625 1.78125-1.90625.90625 0 1.73437.79688 1.73437 2.46875 0 1.5-.51562 2.53125-1.70312 2.53125-1.21875 0-1.8125-1.375-1.8125-3.09375m0 0"/><path id="n" d="M.1875 0h4.40625l.09375-.45312-1.03125-.07813C3.375-.54687 3.25-.67187 3.25-.90625c0-.09375.03125-.1875.0625-.3125l.78125-3.5625h1.89063c1.01562 0 1.23437.25 1.23437.90625 0 .09375 0 .25-.01562.375h.46875L8.375-6.65625h-.46875C7.5-5.60937 7.3125-5.375 6.10938-5.375h-1.875l.85937-3.79687c.09375-.35938.17188-.4375.46875-.4375h1.625c1.40625 0 1.6875.40625 1.70313 1.17187 0 .32813 0 .60938-.01563.76563h.48438l.54687-2.48438H2.375l-.10937.45313.84375.07812c.25.01563.35937.14063.35937.375 0 .09375-.03125.20313-.0625.32813L1.6875-1.23437c-.10937.46875-.25.67187-.625.70312l-.78125.07813Zm0 0"/><path id="o" d="M1.59375 0h4.92188v-.45312L5.34375-.5625c-.32812-.03125-.48437-.14062-.48437-.6875v-8.65625l-.09375-.07812-3.15625.53125v.39062l1.26562.17188c.28125.04687.375.15625.375.60937V-1.25c0 .54688-.14062.65625-.48437.6875l-1.17188.10938Zm0 0"/><path id="p" d="M.07813 0h4.15625l.10937-.45312L3.5-.51562c-.25-.01563-.35937-.14063-.35937-.375 0-.10938.01562-.23438.04687-.39063L4.03125-5h4.625L7.8125-1.28125c-.125.5-.25.71875-.625.75l-.78125.07813L6.3125 0h4.15625l.10938-.45312L9.75-.51562c-.26562-.01563-.375-.14063-.375-.39063 0-.09375.03125-.21875.0625-.375L11.17188-8.875c.125-.5.21875-.73437.60937-.76562l.78125-.0625.09375-.45313H8.5l-.10937.45313.84375.0625c.25.01562.35937.14062.35937.39062 0 .09375-.03125.23438-.0625.375L8.8125-5.59375H4.17188L4.90625-8.875c.125-.5.25-.73437.64063-.76562l.76562-.0625.10938-.45313H2.26563l-.125.45313.84375.0625c.25.01562.35937.14062.35937.39062 0 .09375-.01562.23438-.04687.375L1.5625-1.28125c-.125.5-.25.71875-.625.75l-.76562.07813Zm0 0"/><path id="q" d="M.53125-6.65625c0 2 1.25 3.07813 2.8125 3.07813 1.10938 0 1.9375-.71875 2.375-1.25C5.70313-2.10937 4.98438-.375 3.64063-.375c-.65625 0-1.10938-.57812-1.34375-1.45312-.0625-.1875-.20313-.34375-.45313-.34375-.34375 0-.85937.26562-.85937.71875 0 .625.76562 1.625 2.57812 1.625C6 .17188 7.40625-1.6875 7.40625-5.21875c0-3.125-1.10937-4.76562-3.45312-4.76562-2.28125 0-3.42188 1.39062-3.42188 3.32812m1.67188-.25c0-1.5.51562-2.53125 1.70312-2.53125 1.21875 0 1.8125 1.375 1.8125 3.09375 0 .875-.625 1.90625-1.78125 1.90625-.90625 0-1.73437-.79687-1.73437-2.46875m0 0"/><path id="r" d="M.07813 0H4.625c3 0 4.67188-1.0625 5.71875-2.65625.82813-1.25.98438-2.53125.98438-3.34375 0-1.28125-.45313-2.4375-1.29688-3.125-.85937-.70312-2.15625-1.03125-3.8125-1.03125H2.25l-.10937.45313.84375.0625c.25.01562.35937.14062.35937.375 0 .09375-.03125.23437-.0625.39062L1.5625-1.28125c-.10937.5-.23437.71875-.60937.75l-.78125.07813Zm3.09375-1.10937c0-.0625 0-.14063.01562-.20313l1.75-7.75c.125-.5.32813-.54687 1.51563-.54687 2.8125.04687 3.09375 1.95312 3.09375 3.17187-.01563 1-.28125 2.46875-.96875 3.625-.79688 1.32813-2 2.25-4.23438 2.25-.6875 0-1.17187-.07812-1.17187-.54687m0 0"/><path id="s" d="M.625-1.5625c0 .625.95313 1.73438 3.03125 1.73438 2.5 0 3.5625-1.48438 3.5625-3.32813 0-1.875-1.125-3.125-3.09375-3.125-.85937 0-1.71875.375-2.21875.79688l.3125-2.57813c.0625-.40625.125-.46875.4375-.46875H6.375l.42188-1.14062-.09375-.14063H1.60938l-.125.14063-.29688 4.89062.42188.25C2.20313-5.23437 2.78125-5.5625 3.5625-5.5625c.95313 0 1.92188.70313 1.92188 2.57813 0 1.5-.5625 2.60937-1.75 2.60937-.9375 0-1.4375-.67187-1.76563-1.625-.09375-.25-.25-.40625-.5-.40625-.34375 0-.84375.3125-.84375.84375m0 0"/><path id="l" d="M.71875-3.53125C.71875-1.07812 1.92188.17188 4.125.17188c1.03125 0 2.42188-.53125 2.82813-2.10938l-.4375-.20312C6.0625-1.10937 5.48438-.59375 4.40625-.59375c-1.75 0-2.15625-1.82812-2.15625-3.20312 0-2.1875.85938-3.0625 1.875-3.0625.67188 0 1.09375.48437 1.39063 1.28125.09375.23437.1875.375.46875.375.29687 0 .85937-.1875.85937-.75 0-.67188-.96875-1.42188-2.5625-1.42188-2.67187 0-3.5625 1.89063-3.5625 3.84375m0 0"/><path id="m" d="M.46875 0h3.57813v-.42187C3-.5 2.95313-.53125 2.95313-1.28125v-3.4375c0-.375 0-.57812.10937-.78125.28125-.59375.92188-1.07812 1.73438-1.07812 1.26562 0 1.42187.92187 1.42187 1.82812v3.46875c0 .75-.04687.78125-1.10937.85938V0H8.6875v-.42187C7.64063-.5 7.59375-.53125 7.59375-1.28125v-3.4375c0-.375.01563-.5625.10938-.79687.21875-.59375.84375-1.0625 1.67187-1.0625.92188 0 1.48438.51562 1.48438 1.82812v3.46875c0 .75-.04688.78125-1.10938.85938V0h3.59375v-.42187C12.29688-.5 12.23438-.53125 12.23438-1.28125v-3.75c0-1.48437-.79688-2.34375-2.1875-2.34375-1.20313 0-2.0625.79688-2.57813 1.125-.35937-.6875-.92187-1.125-1.95312-1.125-1.125 0-2.04688.75-2.5625 1.125L2.8125-7.375.54688-7v.35938l.54687.07812c.375.0625.48438.125.48438.65625v4.625c0 .75-.04688.78125-1.10938.85938Zm0 0"/></defs><path fill="none" stroke="#000" stroke-miterlimit="10" stroke-width=".39696" d="M37.67187 93.01563h63.53517L29.41406 30.11718Zm0 0"/><use xlink:href="#a" x="15.60532" y="115.41945"/><use xlink:href="#b" x="109.08785" y="115.41945"/><use xlink:href="#c" x="22.33615" y="22.23676"/><path fill="none" stroke="#000" stroke-miterlimit="10" stroke-width=".39696" d="M34.3711 67.85937h38.11719"/><use xlink:href="#d" x="11.31999" y="75.1311"/><use xlink:href="#e" x="80.3705" y="75.12014"/><use xlink:href="#f" x="7.44206" y="174.83094"/><use xlink:href="#g" x="18.30518" y="174.83094"/><use xlink:href="#h" x="32.85708" y="174.83094"/><use xlink:href="#i" x="46.47114" y="174.83094"/><use xlink:href="#j" x="54.39575" y="174.83094"/><use xlink:href="#k" x="60.14773" y="174.83094"/><use xlink:href="#l" x="71.37025" y="174.83094"/><use xlink:href="#m" x="78.65401" y="174.83094"/><use xlink:href="#f" x="7.44206" y="201.62551"/><use xlink:href="#n" x="18.30518" y="201.62551"/><use xlink:href="#h" x="32.23186" y="201.62551"/><use xlink:href="#o" x="45.84593" y="201.62551"/><use xlink:href="#l" x="57.08205" y="201.62551"/><use xlink:href="#m" x="64.36581" y="201.62551"/><use xlink:href="#f" x="7.44206" y="228.42232"/><use xlink:href="#p" x="18.30518" y="228.42232"/><use xlink:href="#h" x="34.96718" y="228.42232"/><use xlink:href="#i" x="48.58125" y="228.42232"/><use xlink:href="#j" x="56.50585" y="228.42232"/><use xlink:href="#q" x="62.25784" y="228.42232"/><use xlink:href="#l" x="73.48154" y="228.42232"/><use xlink:href="#m" x="80.7653" y="228.42232"/><use xlink:href="#f" x="7.44206" y="255.21689"/><use xlink:href="#r" x="18.30518" y="255.21689"/><use xlink:href="#h" x="33.65422" y="255.21689"/><use xlink:href="#o" x="47.26829" y="255.21689"/><use xlink:href="#j" x="55.1929" y="255.21689"/><use xlink:href="#s" x="60.94488" y="255.21689"/><use xlink:href="#l" x="72.16815" y="255.21689"/><use xlink:href="#m" x="79.45191" y="255.21689"/></svg>