<svg id="Capa_1" enable-background="new 0 0 512 512" height="512" viewBox="0 0 512 512" width="512" xmlns="http://www.w3.org/2000/svg"><g><path d="m221.444 98.63v321.003c0 20.843-8.453 39.708-22.101 53.377-13.669 13.648-32.533 22.101-53.377 22.101-41.677 0-75.467-33.791-75.467-75.478v-15.143c0-20.843 8.443-39.718 22.101-53.366 13.659-13.669 32.523-22.111 53.366-22.111 2.185 0 4.34.113 6.463.299v-230.682z" fill="#e28086"/><path d="m491.091 401.108v.423c0 25.843-10.473 49.233-27.41 66.169-16.926 16.937-40.316 27.41-66.159 27.41-51.686 0-93.579-41.893-93.579-93.579v-302.901h69.015v289.85c0 19.73 15.988 35.718 35.708 35.718h2.268c19.72 0 35.708-15.988 35.708-35.718v-31.822c24.553 0 44.449 19.906 44.449 44.45z" fill="#e28086"/><g fill="#dd636e"><path d="m185.031 98.632v230.681c-2.134-.185-4.288-.299-6.463-.299-20.844 0-39.708 8.443-53.377 22.111-13.648 13.648-22.101 32.523-22.101 53.366v15.143c0 36.09 25.328 66.262 59.18 73.705-5.257 1.165-10.71 1.773-16.308 1.773-41.677 0-75.468-33.791-75.468-75.478v-15.143c0-20.843 8.453-39.718 22.101-53.366 13.659-13.669 32.533-22.111 53.366-22.111 2.186 0 4.34.113 6.463.299v-230.681z"/><g><path d="m441.264 424.196h2.268c19.723 0 35.712-15.989 35.712-35.712v-17.578c-8.118-8.758-19.715-14.244-32.599-14.244v31.822c0 14.299-8.408 26.63-20.546 32.333 4.604 2.164 9.742 3.379 15.165 3.379z"/><path d="m336.541 401.535v-302.901h-32.599v302.901c0 51.68 41.895 93.575 93.575 93.575 5.56 0 11.006-.488 16.299-1.418-43.909-7.712-77.275-46.037-77.275-92.157z"/></g><path d="m152.43 98.63 32.601-28.181 36.413 28.181v39.347h-69.014z"/><path d="m372.957 98.63v39.347h-69.015v-39.347l34.507-28.181z"/></g><path d="m0 123.692c0 37.145 30.112 67.257 67.256 67.257h3.519v-64.446c0-15.392 12.477-27.869 27.869-27.869h372.486c22.572 0 40.87-18.298 40.87-40.87 0-22.572-18.298-40.87-40.87-40.87h-364.331c-58.983-.001-106.799 47.815-106.799 106.798z" fill="#e28086"/><path d="m50.057 123.693c0 19.081 7.948 36.306 20.72 48.542v18.71h-3.526c-37.14 0-67.251-30.111-67.251-67.252 0-58.985 47.81-106.805 106.795-106.805h50.068c-58.985 0-106.806 47.82-106.806 106.805z" fill="#dd636e"/></g></svg>
