<svg xmlns="http://www.w3.org/2000/svg" xmlns:xlink="http://www.w3.org/1999/xlink" width="126.949pt" height="117.551pt" viewBox="0 0 126.949 117.551"><defs><path id="a" d="M.90625-6.375h.35938c.39062-1.23437.82812-1.59375 2.01562-1.59375h.82813L2.54688-.98437c-.09375.375-.21875.5625-.57813.57812l-.8125.0625L1.07813 0H4.8125l.09375-.34375-.89062-.0625c-.25 0-.34375-.10937-.34375-.3125 0-.07812 0-.15625.03125-.26562l1.57812-6.98438h.76563c1.17187 0 1.40625.29688 1.40625.95313 0 .1875 0 .39062-.03125.64062h.375L8.25-8.39062H1.35938Zm0 0"/><path id="b" d="M0 0h3.3125l.07813-.34375-.71875-.0625c-.20313-.01562-.3125-.10937-.3125-.29687 0-.07813.03125-.1875.04687-.29688l.67188-2.95312h.73437c1.17188 0 1.34375.28125 1.34375 1.70312 0 1.46875 0 2.25 1.26563 2.25H7.375l.10938-.34375C6.64063-.46875 6.34375-.5 6.34375-2.0625c0-1.23437-.10937-1.76562-1.10937-2.10937C6.71875-4.375 7.71875-5.23437 7.71875-6.4375c0-.875-.375-1.95312-2.64062-1.95312H1.8125l-.09375.34375.71875.0625c.20313.01562.29688.10937.29688.3125 0 .07812-.01563.17187-.03125.29687L1.23438-1c-.09376.42188-.20313.54688-.5.57813L.0625-.34375Zm3.17188-4.375.71875-3.14062c.07812-.34375.125-.45313 1.04687-.45313.78125 0 1.51563.34375 1.51563 1.40625 0 1.4375-.9375 2.1875-2.5 2.1875Zm0 0"/><path id="c" d="M.26563 0h3.3125l.07812-.34375-.71875-.0625c-.21875 0-.29687-.125-.29687-.3125 0-.07812 0-.1875.03125-.28125l1.4375-6.375c.09375-.375.21875-.59375.53125-.60937l.65625-.0625.07812-.34375H2.0625l-.09375.34375.73438.0625C2.90625-7.96875 3-7.84375 3-7.65625q0 .1172-.04687.28125L1.5-1c-.09375.375-.20312.54688-.5.57813l-.67187.07812Zm0 0"/></defs><use xlink:href="#a" x="61.20417" y="12.68654"/><use xlink:href="#b" x="4.5167" y="112.80313"/><use xlink:href="#c" x="117.38857" y="112.80313"/><path fill="none" stroke="#000" stroke-miterlimit="10" stroke-width=".39699" d="M65.13281 17.24218 17.4336 99.85938h95.39844Zm0 0"/><path fill="none" stroke="red" stroke-miterlimit="10" stroke-width=".39699" d="M38.83594 56.84375 43.74609 60.25m21.13672 42.58203.4961-5.95703M91.6836 57.28906l-5.40625 2.54688"/></svg>