<svg xmlns="http://www.w3.org/2000/svg" xmlns:xlink="http://www.w3.org/1999/xlink" width="287.886pt" height="37.926pt" viewBox="0 0 287.886 37.926"><defs><path id="a" d="m2.70313-2.03125.78125.78125 3.23437-3.26562L9.98438-1.25l.75-.78125L7.5-5.26562l3.23438-3.26563-.75-.75-3.26563 3.23438-3.23437-3.23438-.78125.75 3.26562 3.26563Zm0 0"/><path id="b" d="M0 0h4.42188l.09375-.53125-.73438-.0625c-.5625-.04687-.85937-.1875-.85937-.57812 0-1 .1875-1.54688.40625-2.54688l1.70312-7.625h.04688L7.3125-.21875h.53125l7.26563-11.125h.04687L12.875-1.54687c-.17187.625-.34375.84375-.79687.89062l-1.01563.125L10.9375 0h5.09375l.09375-.53125-1.09375-.125c-.32812-.01562-.46875-.17187-.46875-.48437 0-.10938.01563-.25.0625-.40625l2.23438-9.82813c.17187-.64062.3125-.89062.78124-.9375l1.03126-.07812.14062-.53125h-3.65625c-1 1.70312-2.10937 3.375-3.23437 5.10937l-3.3125 5.04688h-.0625L7.5-7.95312c-.375-1.6875-.75-3.3125-1.07812-4.96875h-3.625l-.10938.53125 1.09375.09375c.3125.03125.46875.1875.46875.5q0 .1875-.04687.42187L2.42188-3.71875c-.21875 1-.4375 1.70313-.65625 2.32813-.21876.59375-.54688.73437-1.09375.79687l-.57813.0625Zm0 0"/><path id="c" d="M0 0h4.42188l.09375-.53125-.73438-.0625c-.5625-.04687-.85937-.15625-.85937-.5625 0-.98437.1875-1.5625.40625-2.5625l1.75-7.65625H5.125C6.875-7.57812 8.60938-3.79687 10.32813 0h1.20312L13.625-9.20312c.21875-1 .4375-1.71875.65625-2.32813s.5625-.73437 1.10938-.79687l.57812-.0625.10938-.53125h-4.42188l-.09375.53125.73438.07812c.54687.0625.875.23438.875.65625 0 .67188-.20313 1.45313-.42188 2.45313l-1.53125 6.75h-.07812c-1.60938-3.5-3.20313-6.96875-4.78125-10.46875h-3.5625l-.10938.53125 1.09375.09375c.3125.03125.46875.1875.46875.5q0 .1875-.04687.42187L2.42188-3.71875c-.21875 1-.4375 1.70313-.65625 2.32813-.21876.59375-.53125.73437-1.09375.79687l-.57813.0625Zm0 0"/></defs><use xlink:href="#a" x="25.37135" y="31.22408"/><use xlink:href="#b" x="6.85149" y="19.55485"/><use xlink:href="#a" x="251.70174" y="31.22408"/><use xlink:href="#c" x="265.44892" y="19.55485"/></svg>