<svg xmlns="http://www.w3.org/2000/svg" xmlns:xlink="http://www.w3.org/1999/xlink" width="237.348pt" height="217.248pt" viewBox="0 0 237.348 217.248"><defs><path id="a" d="m3.03125-2.28125.875.875 3.64063-3.67187 3.67187 3.67187.84375-.875-3.64062-3.64062 3.64062-3.65625-.84375-.85938-3.67187 3.64063-3.64063-3.64063-.875.85938 3.67188 3.65625Zm0 0"/><path id="b" d="M.67188-5.67187C.67188-2.21875 2.65625.3125 6.84375.3125c3.70313 0 5.51563-1.90625 6.67188-3.98437 1.14062-2.04688 1.34375-4.1875 1.34375-5.01563 0-4.3125-2.60938-6.17187-6.07813-6.17187C5.42188-14.85937 3.34375-13 2.125-11 .95313-9.04687.67188-7.0625.67188-5.67187m2.20312.84375c0-1.76563.34375-3.73438 1.29688-5.76563C5.14063-12.57812 6.64063-14.125 8.875-14.125c2.29688 0 3.76563 1.35938 3.76563 4.34375 0 1.20313-.10938 2.92188-.98438 5.15625-.85937 2.25-2.29687 4.20313-5.01562 4.20313-2.28125 0-3.76563-1.48438-3.76563-4.40625m0 0"/><path id="d" d="M.6875-10.48437c0 1.84375 1.84375 3.29687 6.03125 3.29687-.6875 1.21875-1.20312 2.5-1.20312 3.875C5.51563-1 6.96875.25 9.60938.25c2.5625 0 5.25-1.85937 5.25-4.25 0-1.42187-1.1875-2.21875-2.6875-2.21875-1.64063 0-3.59375 1.85938-3.59375 3.34375 0 .4375.34375 1.28125.96875 1.28125.17187 0 .42187-.125.42187-.32812 0-.26563-.5-.29688-.5-.9375 0-1.03125 1.5-2.6875 2.70313-2.6875.85937 0 1.375.34375 1.375 1.17187 0 1.84375-1.79688 3.95313-3.9375 3.95313-1.51563 0-2.29688-.82813-2.29688-2.21875 0-1.5625 1.09375-3.39063 1.92188-4.73438 4.65625-.71875 9.25-3.01562 9.25-5.9375 0-1.125-.90626-1.85937-2.10938-1.85937-2.76562 0-6.95312 3.54687-9.25 7.23437C5.23438-7.95312 2.14063-8 2.14063-10.23437c0-2.04688 2.5-3.64063 4.07812-3.64063.28125 0 .4375-.17187.4375-.35937 0-.17188-.15625-.3125-.32812-.3125-2.34375 0-5.64063 1.59375-5.64063 4.0625m8.96875 2.28125C11.1875-10.90625 14.45313-14.5 16.375-14.5c.73438 0 1.25.42188 1.25 1.10938 0 2.35937-3.6875 4.5-7.96875 5.1875m0 0"/><path id="e" d="M2.04688 0h6.21875v-.54687L6.67188-.6875c-.39063-.03125-.625-.17187-.625-.92187V-12.75l-.09375-.09375-3.90625.65625v.46875L3.82813-11.5c.3125.03125.4375.17188.4375.71875v9.17188c0 .75-.1875.89062-.625.92187l-1.59375.14063Zm0 0"/><path id="f" d="m.96875 2.3125.35938.35938c.9375-.875 2.3125-2.15625 2.3125-3.64063 0-1-.54688-1.70312-1.26563-1.70312-.57812 0-.95312.45312-.95312.9375 0 .6875.625 1.04687.625 1.85937 0 .78125-.48438 1.53125-1.07813 2.1875m0 0"/><path id="g" d="M.78125-9.96875h.5l.1875-.40625c.23438-.53125.5-.8125 1.34375-.8125h5.10938c-.1875.6875-.54688 1.78125-2.0625 3.96875-1.64063 2.32813-2.70313 4.4375-2.70313 6.67188 0 .625.4375.76562 1.03125.76562.51563 0 .90625-.125.90625-.71875 0-2.90625.5-4.64062 1.42188-6.25 1.20312-2.125 2.21875-3.3125 2.875-5.67187l-.15625-.20313H1.375Zm0 0"/><path id="h" d="M.92188-4.54687c0 3.15625 1.54687 4.76562 4.39062 4.76562 1.32813 0 3.10938-.6875 3.64063-2.71875l-.5625-.25C7.79688-1.42187 7.0625-.76562 5.67188-.76562c-2.25 0-2.78125-2.34375-2.78125-4.125 0-2.8125 1.10937-3.9375 2.42187-3.9375.85938 0 1.40625.625 1.78125 1.65625.125.29687.25.46875.60938.46875.375 0 1.10937-.23438 1.10937-.95313 0-.875-1.25-1.82812-3.29687-1.82812-3.4375 0-4.59375 2.42187-4.59375 4.9375m0 0"/><path id="i" d="M.60938 0h4.59375v-.54687C3.85938-.64063 3.79688-.6875 3.79688-1.65625v-4.42187c0-.48438 0-.73438.14062-1 .35938-.76563 1.1875-1.39063 2.23438-1.39063C7.79688-8.46875 8-7.28125 8-6.10937v4.45312C8-.6875 7.9375-.64062 6.57813-.54687V0h4.60937v-.54687C9.82813-.64063 9.76563-.6875 9.76563-1.65625v-4.42187c0-.48438.03125-.71875.14062-1.01563.29688-.76562 1.09375-1.375 2.15625-1.375 1.1875 0 1.90625.67188 1.90625 2.35938v4.45312c0 .96875-.04687 1.01563-1.42187 1.10938V0h4.625v-.54687C15.82812-.64063 15.75-.6875 15.75-1.65625v-4.8125c0-1.92187-1.03125-3.01562-2.8125-3.01562-1.5625 0-2.65625 1.01562-3.32812 1.4375-.45313-.875-1.1875-1.4375-2.51563-1.4375-1.4375 0-2.625.95312-3.29687 1.4375L3.625-9.48437l-2.92187.46875v.46875l.70312.09375c.48438.09375.625.17187.625.85937v5.9375c0 .96875-.0625 1.01563-1.42187 1.10938Zm0 0"/><clipPath id="c"><path d="M.08594 0H223v216.5H.08594Zm0 0"/></clipPath></defs><use xlink:href="#a" x="100.78393" y="113.46524"/><use xlink:href="#b" x="84.91685" y="100.0447"/><g clip-path="url(#c)"><path fill="none" stroke="#000" stroke-miterlimit="10" stroke-width=".39713" d="M216.38667 108.25c0-59.67575-48.37498-108.05464-108.05464-108.05464C48.65628.19536.2813 48.57425.2813 108.25s48.37498 108.05073 108.05073 108.05073c59.67966 0 108.05464-48.37498 108.05464-108.05073Zm0 0"/></g><use xlink:href="#d" x="209.80156" y="46.08647"/><path fill="none" stroke="#000" stroke-dasharray="2.9785185365 2.9785185365" stroke-miterlimit="10" stroke-width=".39713" d="M108.33203 108.25h108.04292"/><use xlink:href="#e" x="133.20072" y="128.98851"/><use xlink:href="#f" x="143.21289" y="128.98851"/><use xlink:href="#g" x="150.4506" y="128.98851"/><use xlink:href="#h" x="164.70641" y="128.98851"/><use xlink:href="#i" x="174.07523" y="128.98851"/></svg>