<svg xmlns="http://www.w3.org/2000/svg" xmlns:xlink="http://www.w3.org/1999/xlink" width="131.949pt" height="120.871pt" viewBox="0 0 131.949 120.871"><defs><path id="a" d="m1.6875-1.26562.48438.48437 2.03125-2.04687L6.25-.78125l.46875-.48437L4.6875-3.29687l2.03125-2.03125L6.25-5.8125 4.20313-3.78125 2.17188-5.8125l-.48438.48438 2.04688 2.03125Zm0 0"/><path id="b" d="M.375-3.15625C.375-1.23437 1.48438.17188 3.8125.17188c2.0625 0 3.0625-1.0625 3.71875-2.21875.625-1.14063.73438-2.32813.73438-2.79688 0-2.39062-1.45313-3.42187-3.375-3.42187-1.875 0-3.03125 1.03125-3.70313 2.14062C.53125-5.03125.375-3.9375.375-3.15625m1.23438.46875c0-.98437.1875-2.07812.71875-3.20312C2.85938-7 3.6875-7.85937 4.9375-7.85937c1.28125 0 2.10938.75 2.10938 2.40625 0 .67187-.0625 1.64062-.54688 2.875C6-1.3125 5.21875-.23437 3.6875-.23437c-1.26562 0-2.07812-.82813-2.07812-2.45313m0 0"/><path id="d" d="M.39063-5.82812C.39063-4.8125 1.40625-4 3.75-4c-.39062.67188-.67187 1.39063-.67187 2.15625 0 1.28125.79687 1.98438 2.26562 1.98438 1.4375 0 2.92188-1.03125 2.92188-2.35938 0-.79687-.65625-1.23437-1.48438-1.23437-.92187 0-2 1.03125-2 1.84375 0 .25.1875.71875.53125.71875.09375 0 .23438-.0625.23438-.17188 0-.15625-.26563-.17187-.26563-.53125 0-.57812.82813-1.48437 1.5-1.48437.46875 0 .75.1875.75.64062 0 1.03125-.98437 2.20313-2.1875 2.20313-.84375 0-1.28125-.46875-1.28125-1.23438 0-.875.60938-1.89062 1.07813-2.64062C7.73438-4.5 10.28125-5.78125 10.28125-7.40625c0-.625-.5-1.03125-1.17187-1.03125-1.53125 0-3.85938 1.96875-5.14063 4.01563-1.0625 0-2.78125-.03125-2.78125-1.28125 0-1.14063 1.40625-2.01563 2.26563-2.01563.17187 0 .25-.10937.25-.20312s-.07813-.17188-.1875-.17188c-1.29688 0-3.125.875-3.125 2.26563M5.375-4.5625c.85938-1.5 2.67188-3.51562 3.73438-3.51562.42187 0 .70312.25.70312.625 0 1.3125-2.04687 2.5-4.4375 2.89062m0 0"/><path id="e" d="M1.14063 0h3.46875v-.29687L3.71875-.375C3.5-.40625 3.375-.48437 3.375-.89062v-6.21875l-.0625-.04688-2.17187.375v.25l.98437.125c.1875.01563.25.09375.25.40625v5.10938c0 .40625-.09375.48437-.34375.51562l-.89062.07813Zm0 0"/><path id="f" d="m.53125 1.28125.20313.20313C1.26563 1 2.03125.29688 2.03125-.53125c0-.5625-.3125-.95312-.70312-.95312-.32813 0-.53125.25-.53125.51562 0 .39063.34375.59375.34375 1.03125S.875.92188.53125 1.28125m0 0"/><path id="g" d="M.4375-5.5625h.28125l.09375-.21875c.14063-.29687.28125-.45312.75-.45312h2.84375c-.09375.39062-.29687.98437-1.14062 2.21875-.90625 1.29687-1.5 2.46875-1.5 3.71875 0 .34375.23437.42187.5625.42187.29687 0 .5-.0625.5-.40625 0-1.60937.28125-2.59375.79687-3.48437.67188-1.17188 1.23438-1.82813 1.60938-3.15625l-.09375-.10938h-4.375Zm0 0"/><path id="h" d="M.51563-2.53125C.51563-.76562 1.375.125 2.95313.125c.75 0 1.73437-.375 2.03125-1.51562l-.3125-.14063C4.34375-.79687 3.9375-.42187 3.15625-.42187c-1.25 0-1.54687-1.3125-1.54687-2.29688 0-1.57812.625-2.20312 1.34375-2.20312.48437 0 .78125.34375 1 .92187.0625.17188.14062.26563.34375.26563.20312 0 .60937-.125.60937-.53125 0-.48438-.6875-1.01563-1.84375-1.01563-1.90625 0-2.54687 1.34375-2.54687 2.75m0 0"/><path id="i" d="M.34375 0h2.5625v-.29687c-.75-.0625-.78125-.07813-.78125-.625v-2.46875c0-.26563 0-.40625.07813-.54688.1875-.4375.65625-.78125 1.23437-.78125.90625 0 1.01563.65625 1.01563 1.3125v2.48438c0 .54687-.03125.5625-.79688.625V0h2.57813v-.29687c-.75-.0625-.79688-.07813-.79688-.625v-2.46875c0-.26563.01563-.39063.07813-.5625.17187-.42188.60937-.76563 1.20312-.76563.65625 0 1.0625.375 1.0625 1.3125v2.48438c0 .54687-.03125.5625-.79687.625V0H9.5625v-.29687c-.75-.0625-.79687-.07813-.79687-.625v-2.6875c0-1.0625-.5625-1.67188-1.5625-1.67188-.85938 0-1.48438.5625-1.84375.79688-.26563-.48438-.67188-.79688-1.40625-.79688-.8125 0-1.46875.53125-1.82813.79688l-.10937-.79688-1.625.26563v.25l.39062.0625c.26563.04687.34375.09375.34375.46875v3.3125c0 .54687-.03125.5625-.78125.625Zm0 0"/><clipPath id="c"><path d="M.04297 0H127v120.74219H.04297Zm0 0"/></clipPath></defs><use xlink:href="#a" x="56.21092" y="63.27547"/><use xlink:href="#b" x="47.37535" y="55.80244"/><g clip-path="url(#c)"><path fill="none" stroke="#000" stroke-miterlimit="10" stroke-width=".39807" d="M120.58985 60.3711c0-33.23048-26.9414-60.17189-60.17579-60.17189C27.1836.19921.24218 27.14062.24218 60.3711c0 33.23438 26.94141 60.17189 60.17188 60.17189 33.23438 0 60.1758-26.9375 60.1758-60.17189Zm0 0"/></g><use xlink:href="#d" x="116.92113" y="25.75351"/><path fill="none" stroke="#000" stroke-dasharray="2.9856319519 2.9856319519" stroke-miterlimit="10" stroke-width=".39807" d="M60.41406 60.3711h60.1758"/><use xlink:href="#e" x="74.26665" y="71.92024"/><use xlink:href="#f" x="79.84227" y="71.92024"/><use xlink:href="#g" x="83.87284" y="71.92024"/><use xlink:href="#h" x="91.81292" y="71.92024"/><use xlink:href="#i" x="97.03027" y="71.92024"/></svg>