<svg xmlns="http://www.w3.org/2000/svg" xmlns:xlink="http://www.w3.org/1999/xlink" width="323.845" height="42.666" viewBox="0 0 323.845 42.666"><defs><path id="a" d="m3.03125-2.26562.85938.85937 3.625-3.64062 3.64062 3.64062L12-2.26562l-3.625-3.625L12-9.53125l-.84375-.85937-3.64062 3.625-3.625-3.625-.85938.85937 3.64063 3.64063Zm0 0"/><path id="b" d="M0 0h4.9375l.10938-.59375-.82813-.07812c-.60937-.04688-.95312-.1875-.95312-.64063 0-1.10937.20312-1.73437.45312-2.84375L5.625-12.67187h.04688L8.1875-.25h.57813l8.125-12.42187h.04687l-2.54687 10.9375c-.1875.71875-.39063.95312-.89063 1l-1.14062.14062-.125.59375h5.6875l.10937-.59375-1.21875-.14062c-.375-.01563-.53125-.20313-.53125-.53125 0-.14063.01563-.29688.0625-.46875l2.51563-10.98438c.17187-.70312.32812-1 .85937-1.04687l1.15625-.09375.15625-.59375H16.9375c-1.10937 1.90625-2.35937 3.78125-3.625 5.71875L9.625-3.09375h-.0625L8.375-8.89062c-.42187-1.89063-.84375-3.6875-1.1875-5.5625H3.14063L3-13.85937l1.21875.125c.35938.01562.54688.1875.54688.54687 0 .14063-.03125.29688-.07813.46875l-1.96875 8.5625c-.25 1.10938-.5 1.90625-.73437 2.59375-.25.67188-.625.82813-1.23438.89063l-.64062.07812Zm0 0"/><path id="c" d="M0 0h4.9375l.10938-.59375-.82813-.07812c-.60937-.04688-.95312-.17188-.95312-.625 0-1.10938.20312-1.75.45312-2.85938l1.95313-8.5625h.0625C7.6875-8.46875 9.625-4.25 11.54688 0h1.34375l2.34375-10.29687c.23437-1.10938.48437-1.90625.73437-2.59375.23438-.67188.625-.82813 1.23438-.89063l.65624-.07812.10938-.59375h-4.9375l-.10937.59375.8125.09375c.625.0625.98437.26562.98437.73437 0 .76563-.21875 1.625-.46875 2.73438l-1.70312 7.5625h-.09375a1945 1945 0 0 1-5.34375-11.71875H3.14063L3-13.85937l1.21875.125c.35938.01562.54688.1875.54688.54687 0 .14063-.03125.29688-.07813.46875l-1.96875 8.5625c-.25 1.10938-.5 1.90625-.73437 2.59375-.25.67188-.60938.82813-1.23438.89063l-.64062.07812Zm0 0"/></defs><use xlink:href="#a" x="29.30764" y="34.92162"/><use xlink:href="#b" x="8.5938" y="21.8698"/><use xlink:href="#a" x="282.41724" y="34.92162"/><use xlink:href="#c" x="297.79287" y="21.8698"/></svg>