<svg xmlns="http://www.w3.org/2000/svg" xmlns:xlink="http://www.w3.org/1999/xlink" width="412.945pt" height="119.843pt" viewBox="0 0 412.945 119.843"><defs><path id="a" d="m3.04688-2.28125.875.875L7.5625-5.07812l3.67188 3.67187.85937-.875L8.4375-5.9375l3.65625-3.67187-.85937-.84375L7.5625-6.8125l-3.64062-3.64062-.875.84375L6.71875-5.9375Zm0 0"/><path id="b" d="M.45313 0h10.76562l1.07813-3.6875h-.625C10.59375-1.09375 9.625-.73437 7.25-.73437c-2.14062 0-2.60937-.20313-2.60937-.875 0-.23438.0625-.54688.15625-.96875L7.14063-12.8125c.1875-.6875.35937-1 .89062-1.04687l1.26563-.09375.15625-.59375h-5.875l-.15625.59375 1.25.09375c.35937.01562.51562.20312.51562.5625 0 .125-.01562.28125-.0625.48437L2.59375-1.75c-.17187.75-.35937.96875-.875 1.01563l-1.15625.125Zm0 0"/><path id="c" d="M.21875 0H11.1875l1.07813-3.6875h-.625C10.5625-1.09375 9.625-.73437 7.03125-.73437c-2.48437 0-2.625-.3125-2.625-.875 0-.23438.07813-.54688.15625-.96875L5.64063-7.1875h2.75c1.57812 0 1.85937.3125 1.85937 1.23438 0 .17187 0 .35937-.01562.57812h.625l.98437-4.39062h-.65625c-.53125 1.45312-.75 1.79687-2.60937 1.79687h-2.75l1.1875-5.23437c.10937-.51563.23437-.64063.59375-.64063h2.53125c2.0625 0 2.48437.54688 2.48437 1.6875 0 .51563-.0625 1.09375-.0625 1.09375h.625l.78125-3.48437h-10.625l-.17187.59375 1.28125.09375c.35937.01562.51562.17187.51562.51562 0 .14063-.01562.29688-.0625.48438L2.39063-1.75c-.17188.71875-.35938.96875-.875 1.01563l-1.1875.125Zm0 0"/><path id="d" d="M.67188-5.6875c0 3.46875 2 6 6.17187 6 3.71875 0 5.53125-1.90625 6.70313-3.98437 1.14062-2.0625 1.34375-4.20313 1.34375-5.03125 0-4.32813-2.625-6.1875-6.09375-6.1875-3.35938 0-5.4375 1.85937-6.67188 3.875C.96875-9.0625.67188-7.07812.67188-5.6875m2.21875.84375c0-1.76562.32812-3.73437 1.29687-5.76562.96875-2 2.46875-3.54688 4.70313-3.54688 2.29687 0 3.78125 1.375 3.78125 4.34375 0 1.21875-.10938 2.9375-.98438 5.17188C10.8125-2.375 9.375-.42187 6.65625-.42187c-2.29687 0-3.76562-1.48438-3.76562-4.42188m0 0"/></defs><use xlink:href="#a" x="7.7039" y="112.22498"/><use xlink:href="#b" x="8.95725" y="99.08819"/><use xlink:href="#a" x="326.15072" y="48.53542"/><use xlink:href="#c" x="326.6201" y="35.39963"/><use xlink:href="#a" x="389.83928" y="35.7981"/><use xlink:href="#d" x="389.62656" y="22.34772"/></svg>