<svg xmlns="http://www.w3.org/2000/svg" xmlns:xlink="http://www.w3.org/1999/xlink" width="253.523pt" height="102.52pt" viewBox="0 0 253.523 102.52"><defs><path id="a" d="m2.70313-2.01562.76562.76562L6.70313-4.5l3.25 3.25.75-.76562L7.46875-5.25l3.23438-3.25-.75-.76562-3.25 3.23437-3.23438-3.23437L2.70313-8.5l3.25 3.25Zm0 0"/><path id="b" d="M.39063 0H5.5l.10938-.53125L4.5-.60937c-.3125-.03126-.45312-.20313-.45312-.5 0-.125.01562-.28126.0625-.4375l2.21875-9.79688c.14062-.57812.3125-.89062.79687-.9375l1.03125-.07812.10938-.53125H3.17188l-.14063.53125 1.10938.07812c.32812.03125.45312.21875.45312.51563q0 .1875-.04687.42187l-2.25 9.79688c-.14063.59375-.3125.85937-.76563.89062L.5-.53125Zm0 0"/><path id="c" d="M-1.54687 1.70313v.48437c.20312.01563.42187.03125.60937.03125.85938 0 2.125-.21875 2.875-.73437.875-.60938 1.53125-1.64063 1.96875-3.5l2.1875-9.39063c.125-.5625.29688-.82812.76563-.875l1.03125-.07812.14062-.53125H2.89063l-.10938.53125 1.07813.07812c.34375.03125.5.1875.5.5 0 .10938-.01563.21875-.0625.375L2.26563-2.67187C1.84375-.9375 1.34375.23438.76563.76563c-.625.57812-1.375.84375-2.3125.9375m0 0"/></defs><use xlink:href="#a" x="6.9634" y="95.43219"/><use xlink:href="#b" x="9.82898" y="78.1511"/><use xlink:href="#a" x="232.6786" y="39.00339"/><use xlink:href="#c" x="235.66262" y="19.50169"/></svg>