<svg xmlns="http://www.w3.org/2000/svg" xmlns:xlink="http://www.w3.org/1999/xlink" width="285.186" height="120.248" viewBox="0 0 285.186 120.248"><defs><path id="a" d="m3.03125-2.26562.875.85937 3.625-3.65625 3.65625 3.65625.84375-.85937-3.625-3.64063 3.625-3.65625-.84375-.84375-3.65625 3.625-3.625-3.625-.875.84375L6.6875-5.90625Zm0 0"/><path id="b" d="M.45313 0h5.71875l.14062-.60937-1.25-.07813c-.35937-.03125-.51562-.21875-.51562-.5625 0-.125.01562-.3125.0625-.48437l2.5-11.01563c.15625-.64062.35937-1 .89062-1.04687l1.15625-.07813.14063-.60937H3.5625l-.15625.60937 1.25.07813c.35938.03125.51563.25.51563.57812 0 .14063-.03125.29688-.0625.46875L2.57813-1.73437c-.15625.67187-.34375.95312-.85938 1l-1.15625.125Zm0 0"/><path id="c" d="M-1.73437 1.92188v.53125c.21874.01562.46875.04687.6875.04687.95312 0 2.39062-.25 3.23437-.82812.96875-.6875 1.71875-1.84375 2.20313-3.9375L6.84375-12.8125c.15625-.64062.32813-.9375.85938-.98437L8.875-13.875l.15625-.60937H3.25l-.125.60937 1.21875.07813c.375.03125.5625.20312.5625.5625 0 .10937-.03125.25-.07812.42187L2.54688-3.01562C2.07813-1.04687 1.51563.26563.875.875c-.71875.64063-1.5625.9375-2.60937 1.04688m0 0"/><path id="d" d="M1.8125-5.90625c0 4.71875 1.0625 9.92188 5.5 10.09375v-.625c-1.5-.28125-3.84375-2.14062-3.84375-9.46875 0-7.28125 2.23438-9.14062 3.84375-9.46875V-16c-4.4375.1875-5.5 5.375-5.5 10.09375m0 0"/><path id="e" d="M2 .25 3.82813 0c.60937-2.14062.9375-3.34375 1.39062-4.45312.70313-1.82813 2.76563-4.96875 4.5-4.96875.4375 0 .75.23437.75.89062 0 .21875-.04687.51563-.125.85938L8.25.25 10.07813 0c.59375-2.14062.95312-3.35937 1.48437-4.64062.78125-1.78125 2.67188-4.78125 4.4375-4.78125.51563 0 .79688.32812.79688.85937 0 .1875-.01563.39063-.09376.60938L14.90626-1.8125c-.09375.3125-.14062.60938-.14062.85938C14.76563-.17187 15.20313.25 16 .25c1.53125 0 2.6875-1.4375 3.40625-3.01562l-.48437-.28125c-.39063.73437-1.3125 2.20312-1.90626 2.20312-.23437 0-.32812-.15625-.32812-.40625 0-.20312.0625-.4375.14063-.73437l1.59374-5.5c.14063-.46875.23438-.92188.23438-1.29688 0-1.01562-.51562-1.73437-1.76562-1.73437-1.89063 0-3.76563 1.73437-5.28126 4.4375h-.09375l.42188-1.3125c.1875-.60938.29688-1.125.29688-1.5625 0-1-.53125-1.5625-1.5625-1.5625-1.92188 0-3.85938 1.79687-5.29688 4.4375h-.07812L6.625-10.40625l-.125-.10937-3.78125.57812-.14062.51563L3.875-9.3125c.3125.01563.42188.125.42188.35938 0 .15625-.0625.375-.125.64062Zm0 0"/><path id="f" d="M1.25 3.5625v.625c4.4375-.17187 5.5-5.375 5.5-10.09375S5.6875-15.8125 1.25-16v.625c1.60938.32813 3.82813 2.1875 3.82813 9.46875 0 7.32813-2.34375 9.1875-3.82813 9.46875m0 0"/></defs><use xlink:href="#a" x="7.9063" y="107.18569"/><use xlink:href="#b" x="11.12517" y="87.77607"/><use xlink:href="#a" x="261.41194" y="43.81002"/><use xlink:href="#c" x="264.76397" y="21.90402"/><path fill="none" stroke="red" stroke-miterlimit="10" stroke-width=".39603" d="m142.17577 70.30078 3.1953 12.26563 12.29688-3.07422-3.19531-12.26562-12.29687 3.07421"/><path fill="none" stroke="#000" stroke-miterlimit="10" stroke-width=".39603" d="m15.4375 101.98438 253.50778-63.3789m-118.51561 63.3789-15.84375-63.3789"/><path fill="none" stroke="red" stroke-miterlimit="10" stroke-width=".39603" d="M76.76562 89.53906 80.83984 82.75m122.68357-24.89843 4.07422-6.79297"/><use xlink:href="#d" x="158.29779" y="107.88829"/><use xlink:href="#e" x="166.85201" y="107.88829"/><use xlink:href="#f" x="187.6361" y="107.88829"/></svg>