<svg xmlns="http://www.w3.org/2000/svg" xmlns:xlink="http://www.w3.org/1999/xlink" width="195.277pt" height="180.823pt" viewBox="0 0 195.277 180.823"><defs><path id="a" d="M1.39063-9.8125h.5625c.59375-1.90625 1.26562-2.45312 3.09375-2.45312h1.28125l-2.42188 10.75c-.14062.57812-.32812.85937-.89062.90625l-1.23438.07812L1.67188 0h5.73437l.14063-.53125-1.375-.07812c-.375-.03126-.53125-.1875-.53125-.5 0-.125.01562-.23438.0625-.40625l2.42187-10.75h1.17188c1.79687 0 2.1875.46875 2.1875 1.48437 0 .28125-.03125.59375-.0625.96875H12l.6875-3.09375H2.07813Zm0 0"/><path id="b" d="M0 0h5.10938l.10937-.53125-1.10937-.10937c-.3125-.01563-.46875-.15626-.46875-.45313 0-.125.03125-.28125.07812-.45312l1-4.53125h1.14063c1.8125 0 2.0625.4375 2.0625 2.625C7.92188-1.1875 7.92188 0 9.89063 0h1.45312l.17188-.53125C10.20313-.71875 9.75-.78125 9.75-3.17187c0-1.90625-.15625-2.71875-1.70312-3.25 2.28125-.3125 3.82812-1.64063 3.82812-3.48438 0-1.32812-.57812-3-4.0625-3H2.78125l-.14062.53125 1.10937.07813c.32813.03125.45313.1875.45313.5 0 .125-.01563.26562-.04688.4375l-2.25 9.8125c-.15625.65625-.3125.85937-.78125.89062l-1.03125.125Zm4.89063-6.73437 1.09375-4.82813c.125-.53125.1875-.70312 1.60937-.70312 1.20313 0 2.32813.53125 2.32813 2.15625 0 2.21875-1.4375 3.375-3.84375 3.375Zm0 0"/><path id="c" d="M.39063 0H5.5l.125-.53125-1.10937-.07812c-.32813-.03126-.46875-.20313-.46875-.5 0-.125.03125-.28126.0625-.4375l2.21875-9.8125c.14062-.57813.32812-.89063.79687-.9375l1.03125-.07813.125-.53125H3.17188l-.14063.53125 1.125.07813c.3125.03125.45313.21875.45313.51562 0 .125-.01563.26563-.0625.42188l-2.25 9.8125c-.125.59375-.3125.85937-.76563.89062L.5-.53125Zm0 0"/></defs><use xlink:href="#a" x="93.82362" y="19.76506"/><use xlink:href="#b" x="6.6165" y="173.78482"/><use xlink:href="#c" x="180.25661" y="173.78482"/><path fill="none" stroke="#000" stroke-miterlimit="10" stroke-width=".39703" d="M99.8711 26.77736 26.4922 153.86718h146.75388Zm0 0"/><path fill="none" stroke="red" stroke-miterlimit="10" stroke-width=".39703" d="m62.15626 86.48438 2.05469 7.67187m32.85155 62.51952 5.61328-5.61718m37.71874-59.70702-7.67187-2.05469"/></svg>