<svg xmlns="http://www.w3.org/2000/svg" xmlns:xlink="http://www.w3.org/1999/xlink" width="476.617pt" height="109.046pt" viewBox="0 0 476.617 109.046"><defs><path id="a" d="m2.6875-2.01562.76563.76562 3.21875-3.23437 3.25 3.23437.75-.76562-3.21875-3.21875 3.21875-3.23438-.75-.75L6.67188-6 3.45313-9.21875l-.76563.75 3.23438 3.23438Zm0 0"/><path id="b" d="M.39063 0h9.5l.95312-3.26562h-.54687C9.34375-.96875 8.5-.65625 6.40625-.65625c-1.90625 0-2.3125-.17187-2.3125-.76562 0-.20313.04688-.46875.125-.84375l2.07813-9.03125c.15625-.60938.3125-.89063.79687-.92188l1.10938-.07812.125-.54688H3.15625l-.14062.54688 1.10937.07812c.3125.01563.45313.17188.45313.48438 0 .125-.01563.26562-.0625.4375l-2.21875 9.75c-.15625.65625-.32813.85937-.78125.89062L.5-.53125Zm0 0"/><path id="c" d="M.20313 0H9.875l.95313-3.26562h-.5625C9.32813-.96875 8.5-.65625 6.20313-.65625c-2.1875 0-2.3125-.26562-2.3125-.76562 0-.20313.0625-.46875.14062-.84375l.95313-4.07813h2.42187c1.375 0 1.64063.28125 1.64063 1.09375 0 .15625 0 .3125-.01563.51563h.54688l.875-3.875H9.875c-.46875 1.28125-.67187 1.57812-2.3125 1.57812H5.14063l1.04687-4.625c.09375-.45312.21875-.54687.53125-.54687h2.23438c1.8125 0 2.1875.46875 2.1875 1.48437 0 .45313-.0625.96875-.0625.96875h.5625l.6875-3.09375H2.9375l-.14062.54688 1.14062.07812c.3125.01563.45313.15625.45313.45313 0 .10937-.03125.25-.0625.42187L2.10938-1.54687c-.15625.64062-.3125.85937-.76563.89062l-1.04687.125Zm0 0"/><path id="d" d="M.59375-5.01562c0 3.0625 1.75 5.29687 5.45313 5.29687 3.28125 0 4.875-1.6875 5.90625-3.51562 1-1.82813 1.1875-3.71875 1.1875-4.45313 0-3.8125-2.3125-5.45312-5.375-5.45312-2.96875 0-4.79688 1.64062-5.89063 3.42187C.84375-8 .59375-6.23437.59375-5.01562m1.95313.75c0-1.5625.29687-3.29688 1.14062-5.09375.85938-1.76563 2.17188-3.125 4.15625-3.125 2.03125 0 3.32813 1.20312 3.32813 3.82812 0 1.07813-.09375 2.59375-.85938 4.5625-.76562 2-2.03125 3.71875-4.45312 3.71875-2.01563 0-3.3125-1.29687-3.3125-3.89062m0 0"/><clipPath id="e"><path d="M1.875 7h472.48438v101.10156H1.875Zm0 0"/></clipPath></defs><use xlink:href="#a" x="62.83862" y="99.02666"/><use xlink:href="#b" x="63.94494" y="87.43606"/><use xlink:href="#a" x="343.84421" y="42.82534"/><use xlink:href="#c" x="344.25958" y="31.23474"/><use xlink:href="#a" x="400.04553" y="31.58567"/><use xlink:href="#d" x="399.85817" y="19.71849"/><g clip-path="url(#e)"><path fill="none" stroke="#000" stroke-miterlimit="10" stroke-width=".39505" d="M474.16786 13.48441 2.07424 107.90236"/></g><path fill="none" stroke="red" stroke-miterlimit="10" stroke-width=".39505" d="m69.51562 94.41408 281.00774-56.20311"/></svg>