<svg xmlns="http://www.w3.org/2000/svg" xmlns:xlink="http://www.w3.org/1999/xlink" width="158.452pt" height="64.075pt" viewBox="0 0 158.452 64.075"><defs><path id="a" d="m1.67188-1.25.48437.46875 2-2 2.01563 2L6.625-1.25l-2-2 2-2.01562-.45312-.46875-2.01563 2-2-2-.48437.46875L3.6875-3.25Zm0 0"/><path id="b" d="M.25 0h3.15625l.0625-.32812-.6875-.04688C2.59375-.39062 2.5-.5 2.5-.6875c0-.07812.01563-.17187.04688-.26562l1.375-6.07813c.07812-.34375.1875-.54687.48437-.57812l.64063-.04688.07812-.32812H1.96875l-.09375.32812.6875.04688c.20313.01562.28125.14062.28125.32812 0 .07813 0 .15625-.03125.25L1.42188-.95312c-.07813.35937-.1875.51562-.46875.54687L.3125-.32812Zm0 0"/><path id="c" d="M-.95312 1.0625v.28125c.125.01563.25.03125.375.03125.53125 0 1.3125-.14062 1.78125-.45312C1.75.54688 2.15625-.09376 2.42188-1.25l1.34375-5.8125c.09375-.35937.1875-.51562.48437-.54687l.64063-.04688.07812-.32812H1.79688l-.07813.32812.67188.04688c.21875.01562.3125.125.3125.3125 0 .0625-.01563.14062-.03125.23437L1.40625-1.65625C1.14063-.57812.82813.14063.48438.48438.09375.82813-.375 1-.95312 1.0625m0 0"/></defs><use xlink:href="#a" x="4.94927" y="59.07124"/><use xlink:href="#b" x="6.72267" y="48.37465"/><use xlink:href="#a" x="144.66432" y="24.14247"/><use xlink:href="#c" x="146.51264" y="12.07074"/></svg>