<svg xmlns="http://www.w3.org/2000/svg" xmlns:xlink="http://www.w3.org/1999/xlink" width="195.534pt" height="195.574pt" viewBox="0 0 195.534 195.574"><defs><path id="a" d="M.79688-5.32812c0 1.875.60937 3.40625 1.59375 4.23437 1.09375.95313 2.625 1.375 4.34375 1.375 1.375 0 2.89062-.32812 3.95312-.71875l.90625-3.78125c.15625-.625.25-.89062.5625-.92187l.82813-.09375.10937-.53125H8.17188l-.10938.53125 1.39063.125c.26562.01562.39062.14062.39062.4375 0 .125-.03125.26562-.0625.45312l-.67187 2.82813C8.96875-.85937 8.71875-.375 6.78125-.375c-2.26562 0-3.92187-1.51562-3.92187-4.8125 0-2.98437 1.45312-7.375 5.92187-7.375 2.45313 0 2.85938 1.4375 2.98438 3.20313h.5625L13-12.28125c-1.14062-.625-2.625-.9375-4.20312-.9375-2.85938 0-4.92188 1.03125-6.23438 2.70313C1.32813-8.9375.79688-6.96875.79688-5.32812m0 0"/><path id="b" d="M.39063 0H5.5l.125-.53125-1.10937-.07812c-.32813-.03126-.46875-.20313-.46875-.5 0-.125.03125-.28126.0625-.4375L6.34375-11.375c.14063-.5625.3125-.89062.79688-.92187l1.03125-.07813.10937-.54687H3.1875l-.14062.54687 1.10937.07813c.3125.01562.45313.21875.45313.51562 0 .10938-.01563.25-.0625.40625L2.3125-1.54687c-.14062.59375-.32812.84375-.78125.89062L.5-.53125Zm0 0"/><path id="c" d="M0 0h5.10938l.125-.53125-1.125-.10937c-.3125-.01563-.46875-.15626-.46875-.45313 0-.125.03125-.28125.07812-.45312l1.01563-4.53125h1.125c1.8125 0 2.07812.4375 2.07812 2.625C7.9375-1.1875 7.9375 0 9.89063 0h1.45312l.1875-.53125c-1.3125-.1875-1.76562-.25-1.76562-2.65625 0-1.90625-.17188-2.71875-1.71875-3.23437 2.28125-.3125 3.84375-1.64063 3.84375-3.5 0-1.32813-.57813-3-4.07813-3H2.78125l-.14062.54687 1.10937.07813c.32813.01562.46875.17187.46875.48437 0 .125-.03125.26563-.0625.4375l-2.25 9.82813c-.15625.65625-.3125.84375-.76562.89062l-1.04688.125Zm4.89063-6.73437 1.09375-4.82813c.14062-.54687.20312-.71875 1.60937-.71875 1.20313 0 2.34375.53125 2.34375 2.17188 0 2.21875-1.45312 3.375-3.85937 3.375Zm0 0"/><path id="d" d="M.39063 0h9.5625l.95312-3.28125h-.54687c-.95313 2.3125-1.8125 2.625-3.92188 2.625-1.90625 0-2.32812-.17187-2.32812-.78125 0-.1875.0625-.46875.14062-.84375L6.34375-11.375c.15625-.60937.3125-.89062.79688-.92187L8.25-12.375l.14063-.54687H3.1875l-.14062.54687 1.10937.07813c.3125.01562.45313.17187.45313.48437 0 .125-.01563.26563-.0625.4375L2.3125-1.54687c-.17187.65625-.32812.84375-.78125.89062L.5-.53125Zm0 0"/></defs><use xlink:href="#a" x="6.62521" y="188.22547"/><use xlink:href="#b" x="175.56359" y="187.92718"/><use xlink:href="#c" x="175.56359" y="19.56542"/><use xlink:href="#d" x="8.91076" y="19.56542"/><path fill="none" stroke="#000" stroke-miterlimit="10" stroke-width=".39755" d="M27.14453 167.98437h141.39838V26.586H27.14453Zm0 0"/></svg>