<svg xmlns="http://www.w3.org/2000/svg" xmlns:xlink="http://www.w3.org/1999/xlink" width="179.929pt" height="23.703pt" viewBox="0 0 179.929 23.703"><defs><path id="a" d="m1.67188-1.25.48437.46875 2-2.01562L6.17188-.78125 6.64063-1.25l-2-2.01562 2-2.01563L6.17188-5.75 4.15625-3.73437l-2-2.01563-.48437.46875L3.6875-3.26562Zm0 0"/><path id="b" d="M0 0h2.73438l.0625-.32812L2.34375-.375c-.35937-.01562-.53125-.10937-.53125-.34375 0-.625.10938-.96875.23438-1.57812l1.0625-4.71875h.03125l1.39062 6.875h.3125l4.5-6.875H9.375L7.95313-.95312c-.09375.39062-.20313.51562-.48438.54687l-.625.07813L6.76563 0h3.14062l.0625-.32812-.67187-.07813C9.09375-.42187 9-.51562 9-.70312c0-.07813.01563-.15626.03125-.25l1.39063-6.07813c.10937-.39062.1875-.5625.48437-.57812l.64063-.04688L11.64063-8H9.375C8.75-6.9375 8.0625-5.90625 7.35938-4.82812l-2.03125 3.125h-.04688l-.64062-3.21875C4.40625-5.96875 4.17188-6.95312 3.96875-8H1.73438l-.07813.34375.6875.0625c.1875 0 .28125.10938.28125.29688 0 .07812 0 .17187-.03125.26562L1.5-2.29687c-.14062.60937-.26562 1.0625-.40625 1.4375S.75-.40625.42188-.375L.0625-.32812Zm0 0"/><path id="c" d="M0 0h2.73438l.0625-.32812L2.34375-.375c-.35937-.01562-.53125-.09375-.53125-.34375 0-.60937.10938-.96875.23438-1.57812l1.09375-4.73438h.03125C4.25-4.6875 5.32813-2.34375 6.375 0h.75l1.29688-5.6875c.14062-.625.26562-1.0625.40625-1.4375s.34375-.46875.6875-.5l.35937-.03125L9.9375-8H7.20313l-.0625.34375.45312.04688c.34375.03125.54688.14062.54688.40625 0 .42187-.125.89062-.26563 1.51562l-.9375 4.17188h-.04687C5.89063-3.67187 4.90625-5.82812 3.9375-8H1.73438l-.07813.34375.6875.0625c.1875 0 .28125.10938.28125.29688 0 .07812 0 .17187-.03125.26562L1.5-2.29687c-.14062.60937-.26562 1.0625-.40625 1.4375S.76563-.40625.42188-.375L.0625-.32812Zm0 0"/></defs><use xlink:href="#a" x="16.63137" y="19.31004"/><use xlink:href="#b" x="5.17788" y="12.09347"/><use xlink:href="#a" x="156.61042" y="19.31004"/><use xlink:href="#c" x="165.11289" y="12.09347"/></svg>