<svg xmlns="http://www.w3.org/2000/svg" xmlns:xlink="http://www.w3.org/1999/xlink" width="219.668pt" height="203.411pt" viewBox="0 0 219.668 203.411"><defs><path id="a" d="M1.5625-11.03125h.625c.67188-2.15625 1.4375-2.78125 3.48438-2.78125H7.125L4.40625-1.70312C4.25-1.04687 4.01563-.73437 3.39063-.6875l-1.375.07813L1.875 0h6.45313l.15625-.60937L6.95313-.6875c-.42188-.03125-.60938-.20312-.60938-.5625 0-.14062.03125-.26562.0625-.45312L9.14063-13.8125h1.3125c2.03125 0 2.46875.54688 2.46875 1.6875 0 .3125-.03125.65625-.07813 1.09375H13.5l.78125-3.48437H2.34375Zm0 0"/><path id="b" d="M0 0h5.75l.125-.60937-1.25-.10938c-.35937-.01562-.53125-.17187-.53125-.51562 0-.125.04688-.3125.07813-.51563L5.3125-6.84375h1.28125c2.03125 0 2.32813.5 2.32813 2.95313C8.92188-1.34375 8.92188 0 11.125 0h1.64063l.1875-.60937c-1.46875-.1875-1.98438-.26563-1.98438-2.96875 0-2.14063-.17187-3.0625-1.92187-3.64063 2.57812-.35937 4.3125-1.85937 4.3125-3.9375 0-1.48437-.64063-3.35937-4.57813-3.35937H3.125l-.15625.59375 1.25.09375c.35938.01562.51563.20312.51563.5625 0 .125-.01563.28125-.0625.48437L2.14063-1.75c-.17188.75-.35938.96875-.85938 1.01563l-1.17187.125Zm5.5-7.57812L6.71875-13c.15625-.60937.23438-.8125 1.8125-.8125 1.35938 0 2.64063.60938 2.64063 2.4375 0 2.5-1.625 3.79688-4.32813 3.79688Zm0 0"/><path id="c" d="M.45313 0H6.1875l.14063-.60937-1.25-.07813C4.71875-.71875 4.5625-.92187 4.5625-1.25c0-.14062.01563-.3125.0625-.5l2.5-11.03125c.15625-.64062.35938-1 .89063-1.04687l1.17187-.09375.125-.59375H3.57813l-.15625.59375 1.25.09375c.35937.01562.51562.25.51562.57812 0 .14063-.03125.29688-.07812.46875L2.59375-1.75c-.15625.67188-.35937.96875-.875 1.01563l-1.15625.125Zm0 0"/></defs><use xlink:href="#a" x="105.77974" y="21.97836"/><use xlink:href="#b" x="7.60103" y="195.37427"/><use xlink:href="#c" x="203.08598" y="195.37427"/><path fill="none" stroke="#000" stroke-miterlimit="10" stroke-width=".39735" d="m112.58594 29.87498-82.6055 143.07425h165.21099Zm0 0"/><path fill="none" stroke="red" stroke-miterlimit="10" stroke-width=".39735" d="m70.2578 97.5703 2.05469 7.67579m37.46095 70.51174 5.6211-5.6172m42.33594-67.69533-7.67969-2.05859"/></svg>