<svg xmlns="http://www.w3.org/2000/svg" xmlns:xlink="http://www.w3.org/1999/xlink" width="536.087" height="122.642" viewBox="0 0 536.087 122.642"><defs><path id="a" d="m3.03125-2.28125.875.875 3.64063-3.67187 3.67187 3.67187.84375-.875-3.64062-3.64062 3.64062-3.65625-.84375-.85938-3.67187 3.64063-3.64063-3.64063-.875.85938 3.67188 3.65625Zm0 0"/><path id="b" d="M.45313 0H11.1875l1.07813-3.6875h-.625C10.5625-1.09375 9.60938-.73437 7.23438-.73437c-2.14063 0-2.60938-.20313-2.60938-.875 0-.21876.0625-.53125.15625-.95313L7.125-12.78125c.1875-.6875.35938-1 .89063-1.04687l1.25-.09375.15625-.59375H3.57813l-.15625.59375 1.25.09375c.35937.01562.51562.20312.51562.5625 0 .125-.03125.28125-.07812.48437L2.59375-1.75c-.1875.75-.35937.96875-.875 1.01563l-1.15625.125Zm0 0"/><path id="c" d="M.21875 0h10.95313L12.25-3.6875h-.625C10.54688-1.09375 9.60938-.73437 7.01563-.73437c-2.48438 0-2.60938-.3125-2.60938-.875 0-.21876.0625-.53125.15625-.95313L5.625-7.17187h2.75c1.5625 0 1.85938.3125 1.85938 1.23437 0 .17188 0 .35938-.01563.57813h.625l.96875-4.375h-.64062c-.53125 1.4375-.76563 1.78125-2.60938 1.78125h-2.75L7-13.1875c.10938-.51562.23438-.625.59375-.625H10.125c2.04688 0 2.48438.54688 2.48438 1.6875 0 .5-.07813 1.09375-.07813 1.09375h.625l.78125-3.48437H3.32813l-.15625.59375 1.28125.09375c.34375.01562.5.17187.5.51562 0 .125-.01563.28125-.0625.48438L2.39063-1.75c-.17188.71875-.35938.96875-.875 1.01563l-1.1875.125Zm0 0"/><path id="d" d="M.67188-5.67187C.67188-2.21875 2.65625.3125 6.84375.3125c3.70313 0 5.51563-1.90625 6.67188-3.98437 1.14062-2.04688 1.34375-4.1875 1.34375-5.01563 0-4.3125-2.60938-6.17187-6.07813-6.17187C5.42188-14.85937 3.34375-13 2.125-11 .95313-9.04687.67188-7.0625.67188-5.67187m2.20312.84375c0-1.76563.34375-3.73438 1.29688-5.76563C5.14063-12.57812 6.64063-14.125 8.875-14.125c2.29688 0 3.76563 1.35938 3.76563 4.34375 0 1.20313-.10938 2.92188-.98438 5.15625-.85937 2.25-2.29687 4.20313-5.01562 4.20313-2.28125 0-3.76563-1.48438-3.76563-4.40625m0 0"/><clipPath id="e"><path d="M.32422 9h534.52734v113.28516H.32422Zm0 0"/></clipPath></defs><use xlink:href="#a" x="69.27272" y="112.04493"/><use xlink:href="#b" x="70.52407" y="98.92922"/><use xlink:href="#a" x="387.20765" y="48.45755"/><use xlink:href="#c" x="387.67728" y="35.34184"/><use xlink:href="#a" x="450.79504" y="35.74067"/><use xlink:href="#d" x="450.58266" y="22.31187"/><g clip-path="url(#e)"><path fill="none" stroke="#000" stroke-miterlimit="10" stroke-width=".39734" d="M534.65996 15.25788.52347 122.08596"/></g><path fill="none" stroke="red" stroke-miterlimit="10" stroke-width=".39734" d="M76.82812 106.82425 394.7655 43.23834"/></svg>