<svg xmlns="http://www.w3.org/2000/svg" xmlns:xlink="http://www.w3.org/1999/xlink" width="137.219pt" height="125.69pt" viewBox="0 0 137.219 125.69"><defs><path id="a" d="m1.75-1.3125.5.5 2.10938-2.10937L6.46875-.8125l.48438-.5-2.09375-2.09375 2.09375-2.10937-.48438-.5-2.10937 2.10937L2.25-6.01562l-.5.5 2.10938 2.10937Zm0 0"/><path id="b" d="M.39063-3.26562C.39063-1.28125 1.53125.1875 3.9375.1875c2.14063 0 3.1875-1.10937 3.85938-2.29687.65625-1.1875.76562-2.42188.76562-2.90625 0-2.48438-1.5-3.54688-3.5-3.54688-1.9375 0-3.125 1.0625-3.84375 2.23438C.54688-5.21875.39063-4.0625.39063-3.26562m1.26562.48437c0-1.01562.20313-2.15625.75-3.32812.5625-1.14063 1.42188-2.03125 2.70313-2.03125 1.32812 0 2.17187.78125 2.17187 2.5 0 .70312-.0625 1.6875-.5625 2.96875C6.21875-1.35937 5.39063-.25 3.82813-.25c-1.3125 0-2.17188-.84375-2.17188-2.53125m0 0"/><path id="d" d="M.40625-6.03125c0 1.04688 1.04688 1.89063 3.46875 1.89063-.40625.70312-.6875 1.4375-.6875 2.23437 0 1.32813.82813 2.04688 2.34375 2.04688 1.48438 0 3.03125-1.0625 3.03125-2.4375 0-.82813-.6875-1.28125-1.54687-1.28125-.95313 0-2.07813 1.0625-2.07813 1.92187 0 .25.20313.73438.5625.73438.09375 0 .25-.0625.25-.1875 0-.15626-.29687-.17188-.29687-.53125 0-.59375.875-1.54688 1.5625-1.54688.48437 0 .78125.1875.78125.65625C7.79688-1.45312 6.76563-.25 5.53125-.25c-.875 0-1.32812-.46875-1.32812-1.26562 0-.90625.64062-1.95313 1.10937-2.73438 2.70313-.40625 5.32813-1.73437 5.32813-3.42187 0-.64063-.51563-1.0625-1.20313-1.0625-1.59375 0-4 2.04687-5.32812 4.15625-1.09375 0-2.875-.03125-2.875-1.3125C1.23438-7.07812 2.67188-8 3.57813-8c.17187 0 .26562-.09375.26562-.20312 0-.09375-.09375-.17188-.20312-.17188-1.34375 0-3.23438.90625-3.23438 2.34375m5.15625 1.3125c.89063-1.5625 2.76563-3.64062 3.875-3.64062.42188 0 .71875.25.71875.64062 0 1.35938-2.125 2.59375-4.59375 3m0 0"/><path id="e" d="M1.1875 0h3.57813v-.3125l-.92188-.07812C3.625-.42187 3.48438-.5 3.48438-.92187v-6.42188l-.04688-.0625-2.25.375v.26563l1.01563.14062c.1875.01563.25.09375.25.40625v5.29688c0 .42187-.09375.5-.35938.53125L1.1875-.3125Zm0 0"/><path id="f" d="m.5625 1.32813.20313.21874c.54687-.51562 1.32812-1.25 1.32812-2.10937 0-.57812-.3125-.98437-.71875-.98437-.34375 0-.54687.26562-.54687.54687 0 .39063.35937.60938.35937 1.0625 0 .45313-.28125.89063-.625 1.26563m0 0"/><path id="g" d="M.45313-5.75h.28125l.10937-.23437c.14063-.29688.29688-.46875.78125-.46875h2.9375c-.09375.40625-.3125 1.03125-1.1875 2.29687C2.4375-2.8125 1.8125-1.59375 1.8125-.3125c0 .35938.26563.4375.59375.4375.3125 0 .53125-.0625.53125-.42187 0-1.65625.28125-2.67188.8125-3.59375.70313-1.21875 1.28125-1.90625 1.67188-3.28125l-.09375-.10938H.78125Zm0 0"/><path id="h" d="M.53125-2.625c0 1.82813.89063 2.75 2.53125 2.75.76563 0 1.79688-.39062 2.09375-1.5625l-.32812-.15625C4.5-.82812 4.0625-.4375 3.26563-.4375c-1.29688 0-1.59375-1.35937-1.59375-2.375 0-1.625.64062-2.28125 1.39062-2.28125.5 0 .8125.35938 1.03125.95313.0625.17187.14063.28125.34375.28125.21875 0 .64063-.14063.64063-.5625 0-.5-.71875-1.04688-1.90625-1.04688C1.1875-5.46875.53125-4.0625.53125-2.625m0 0"/><path id="i" d="M.34375 0H3v-.3125c-.78125-.0625-.8125-.07812-.8125-.64062V-3.5c0-.28125 0-.4375.07813-.57812.21875-.4375.6875-.79688 1.29687-.79688.9375 0 1.04688.67188 1.04688 1.34375v2.57813c0 .5625-.03125.57812-.8125.64062V0h2.65625v-.3125c-.78125-.0625-.8125-.07812-.8125-.64062V-3.5c0-.28125 0-.42187.07812-.59375.15625-.4375.625-.78125 1.23438-.78125.6875 0 1.10937.375 1.10937 1.34375v2.57813c0 .5625-.04687.57812-.82812.64062V0h2.67187v-.3125C9.125-.375 9.07813-.39062 9.07813-.95312v-2.78125c0-1.09375-.59375-1.73438-1.625-1.73438-.89063 0-1.53125.59375-1.90625.82813-.26563-.5-.6875-.82813-1.45313-.82813-.82812 0-1.51562.54688-1.90625.82813l-.09375-.82813-1.6875.28125v.26563L.8125-4.875c.28125.04688.35938.09375.35938.5v3.42188c0 .5625-.03126.57812-.82813.64062Zm0 0"/><clipPath id="c"><path d="M0 .20313h131v124.97656H0Zm0 0"/></clipPath></defs><use xlink:href="#a" x="58.13611" y="65.69776"/><use xlink:href="#b" x="48.98917" y="57.9608"/><g clip-path="url(#c)"><path fill="none" stroke="#000" stroke-miterlimit="10" stroke-width=".39624" d="M124.78128 62.6914c0-34.40235-27.88673-62.29299-62.293-62.29299C28.08592.39841.1992 28.28905.1992 62.69141c0 34.40235 27.88673 62.293 62.2891 62.293 34.40626 0 62.29299-27.89065 62.29299-62.293Zm0 0"/></g><use xlink:href="#d" x="120.9844" y="26.85385"/><path fill="none" stroke="#000" stroke-dasharray="2.9719132222 2.9719132222" stroke-miterlimit="10" stroke-width=".39624" d="M62.48828 62.6914H124.793"/><use xlink:href="#e" x="76.83468" y="74.64683"/><use xlink:href="#f" x="82.60667" y="74.64683"/><use xlink:href="#g" x="86.77918" y="74.64683"/><use xlink:href="#h" x="94.99761" y="74.64683"/><use xlink:href="#i" x="100.3987" y="74.64683"/></svg>