<svg xmlns="http://www.w3.org/2000/svg" xmlns:xlink="http://www.w3.org/1999/xlink" width="315.237pt" height="220.654pt" viewBox="0 0 315.237 220.654"><defs><path id="a" d="M0 0h6.375c5.07813 0 6.09375-2.60937 6.09375-4.35937 0-2.21875-1.625-3.17188-3.17187-3.46875l.03125-.04688c2.79687-.32812 3.96875-1.92187 3.96875-3.5 0-1.70312-1-3.15625-4.875-3.15625h-5.3125l-.14063.59375 1.25.125c.35938.01563.51563.17188.51563.51563 0 .125-.03125.3125-.07813.5L2.17188-1.75c-.15625.70313-.35938.9375-.875 1.01563l-1.1875.125Zm4.20313-1.60937c0-.15626.01562-.3125.0625-.46875l1.21875-5.39063h.82812c2.07813 0 3.90625.60938 3.90625 3 0 1.875-1.14062 3.73438-3.95312 3.73438-1.65625 0-2.0625-.34375-2.0625-.875m1.4375-6.59375 1.09375-4.875c.15625-.625.26562-.73438 1.67187-.73438 1.76563 0 2.75.89063 2.75 2.35938 0 2.20312-1.82812 3.25-4.15625 3.25Zm0 0"/><path id="b" d="M.67188-5.67187C.67188-2.21875 2.65625.3125 6.84375.3125c3.70313 0 5.51563-1.90625 6.6875-3.98437C14.67188-5.71875 14.875-7.875 14.875-8.70312c0-4.3125-2.625-6.17188-6.09375-6.17188-3.34375 0-5.42187 1.85938-6.65625 3.875C.96875-9.0625.67188-7.0625.67188-5.67187m2.21875.84375c0-1.76563.32812-3.73438 1.29687-5.76563.95313-2 2.45313-3.53125 4.6875-3.53125 2.29688 0 3.78125 1.35938 3.78125 4.32813 0 1.20312-.10937 2.9375-.98437 5.17187-.875 2.25-2.29688 4.20313-5.03125 4.20313-2.28125 0-3.75-1.48438-3.75-4.40625m0 0"/><path id="c" d="M1.34375-13.9375c1.3125.125 1.5.14063 1.73438.96875l2.0625 6.6875c.0625.17188.10937.32813.10937.51563 0 .17187-.0625.35937-.10937.59375L4.35938-1.625c-.14063.57813-.32813.79688-.875.85938l-1.51563.15624L1.85938 0h6.5L8.5-.60937l-1.60937-.125c-.39063-.03126-.51563-.1875-.51563-.5 0-.10938 0-.23438.04688-.39063l.78125-3.5625c.15625-.5625.40625-.98437.59375-1.28125 1.59375-2.3125 3.70312-5.10937 4.84375-6.39062.75-.84375 1-.98438 2.20312-1.07813l.10938-.59375h-4.79688l-.14062.59375.875.07813c.45312.04687.64062.09375.64062.35937 0 .35938-2.875 4.46875-4.53125 6.71875h-.0625s-1.92187-6.35937-1.92187-6.65625c0-.25.10937-.35937.42187-.40625l1.14063-.09375.125-.59375H1.46875Zm0 0"/><path id="d" d="M.67188-1.40625C1.5-.3125 3.51563.3125 5.04688.3125 9.125.26563 10.375-2.07812 10.375-4.34375c0-1.89062-1.03125-3.07812-3.15625-4.17187C6-9.14062 4.51563-9.85937 4.51563-11.45312c0-1.5 1.09375-2.67188 2.9375-2.67188 2.10937 0 2.51562.98438 2.51562 3.28125h.625l.75-2.95312C10.4375-14.51562 8.875-14.875 7.57813-14.875c-3.67188 0-4.82813 2.42188-4.82813 4.1875 0 1.96875 1.34375 3 3.04688 3.82813C7.46875-6.01562 8.5-5.14062 8.5-3.46875c0 1.75-1.40625 3.04688-3.17187 3.04688-2.82813 0-3.35938-2.17188-3.5-4.20313h-.625Zm0 0"/></defs><use xlink:href="#a" x="7.45296" y="212.11364"/><use xlink:href="#b" x="291.4815" y="212.44882"/><use xlink:href="#c" x="291.4815" y="22.73102"/><use xlink:href="#d" x="9.64466" y="22.41778"/><path fill="none" stroke="red" stroke-miterlimit="10" stroke-width=".39754" d="M283.58192 189.67969h-12.72265v-12.72656h12.72265v12.72656m0-159.05071v12.72655h-12.72265V30.62898h12.72265m-254.47645 0h12.72656v12.72655H29.10547V30.62898m0 159.05071v-12.72656h12.72656v12.72656H29.10547"/><path fill="none" stroke="#000" stroke-miterlimit="10" stroke-width=".39754" d="M29.10547 189.67969h254.47645V30.62898H29.10547Zm0 0"/><path fill="none" stroke="red" stroke-miterlimit="10" stroke-width=".39754" d="m153.5351 192.48828 5.6211-5.6211m127.23822-73.9023-5.6211-5.6211M159.1562 27.81648l-5.6211 5.625M26.29297 107.34379l5.625 5.62109"/></svg>