<svg xmlns="http://www.w3.org/2000/svg" xmlns:xlink="http://www.w3.org/1999/xlink" width="175.147pt" height="122.595pt" viewBox="0 0 175.147 122.595"><defs><path id="a" d="M0 0h3.53125c2.8125 0 3.375-1.45312 3.375-2.42187 0-1.21875-.89062-1.75-1.75-1.92188l.01563-.01562C6.71875-4.54687 7.375-5.42187 7.375-6.3125c0-.9375-.5625-1.73437-2.70312-1.73437H1.71875l-.07812.32812.70312.0625c.20313.01563.28125.09375.28125.28125q0 .1172-.04687.28125l-1.375 6.125C1.10937-.57812 1-.45312.71875-.40625L.0625-.32812Zm2.32813-.89062c0-.09376.01562-.17188.03125-.26563l.67187-2.98437H3.5c1.14063 0 2.15625.34375 2.15625 1.65625 0 1.04687-.625 2.07812-2.1875 2.07812-.92187 0-1.14062-.1875-1.14062-.48437M3.125-4.54687 3.73438-7.25c.07812-.34375.14062-.40625.92187-.40625.98438 0 1.53125.5 1.53125 1.3125 0 1.21875-1.01562 1.79688-2.3125 1.79688Zm0 0"/><path id="b" d="M.375-3.14062c0 1.90625 1.09375 3.3125 3.42188 3.3125C5.84375.17188 6.85938-.875 7.5-2.03125c.625-1.14062.73438-2.32812.73438-2.78125 0-2.40625-1.4375-3.42187-3.35938-3.42187-1.85937 0-3.01562 1.01562-3.70312 2.14062C.53125-5.01562.375-3.92187.375-3.14062m1.21875.46875c0-.98438.1875-2.07813.71875-3.20313.53125-1.09375 1.375-1.95312 2.60938-1.95312 1.26562 0 2.09375.75 2.09375 2.40625 0 .65625-.0625 1.625-.54688 2.85937C5.98438-1.3125 5.1875-.23437 3.6875-.23437c-1.26562 0-2.09375-.8125-2.09375-2.4375m0 0"/><path id="c" d="M.75-7.71875c.71875.0625.82813.07813.95313.53125l1.14062 3.70313c.04688.10937.0625.1875.0625.28125 0 .10937-.03125.20312-.0625.34375L2.42188-.90625c-.07813.32813-.1875.45313-.48438.48438l-.84375.09375L1.03125 0h3.60938l.0625-.32812-.89063-.07813c-.20312-.01562-.28125-.10937-.28125-.28125 0-.0625 0-.125.03125-.21875L3.98438-2.875c.09375-.3125.23437-.54687.34375-.70312C5.20313-4.875 6.375-6.42187 7-7.125c.42188-.46875.5625-.54687 1.23438-.59375l.0625-.32812H5.625l-.07812.32812.48437.03125c.25.03125.35938.0625.35938.20313C6.39063-7.28125 4.79688-5 3.875-3.75h-.03125s-1.0625-3.53125-1.0625-3.70312c0-.125.0625-.1875.23438-.21875l.625-.04688.07812-.32812H.8125Zm0 0"/><path id="d" d="M.375-.78125c.45313.60938 1.57813.95313 2.42188.95313C5.0625.15625 5.75-1.15625 5.75-2.40625c0-1.04687-.57812-1.70312-1.75-2.3125-.67187-.34375-1.5-.75-1.5-1.625 0-.82812.60938-1.48437 1.625-1.48437 1.17188 0 1.40625.54687 1.40625 1.8125H5.875l.40625-1.625c-.5-.40625-1.35937-.59375-2.07812-.59375-2.03125 0-2.67188 1.32812-2.67188 2.3125 0 1.09375.73438 1.65625 1.67188 2.125s1.5.95312 1.5 1.875c0 .96875-.78125 1.6875-1.75 1.6875-1.5625 0-1.85938-1.20313-1.9375-2.32813H.67188Zm0 0"/></defs><use xlink:href="#a" x="4.13088" y="117.60626"/><use xlink:href="#b" x="161.55519" y="117.79236"/><use xlink:href="#c" x="161.55519" y="12.64047"/><use xlink:href="#d" x="5.34497" y="12.46731"/><path fill="none" stroke="red" stroke-miterlimit="10" stroke-width=".39657" d="M157.17963 105.17188h-7.05468V98.1211h7.05468v7.05078m0-88.15231v7.05078h-7.05468v-7.05078h7.05468m-141.05073 0h7.0547v7.05078h-7.0547v-7.05078m0 88.15231V98.1211h7.0547v7.05078h-7.0547"/><path fill="none" stroke="#000" stroke-miterlimit="10" stroke-width=".39657" d="M16.1289 105.17188h141.05073V17.01957H16.12891Zm0 0"/><path fill="none" stroke="red" stroke-miterlimit="10" stroke-width=".39657" d="m83.85154 107.97656 5.60546-5.60937m70.52341-38.46873-5.60547-5.60547M89.457 14.21488l-5.60546 5.60937M13.32813 58.29299l5.60546 5.60547"/></svg>