<svg xmlns="http://www.w3.org/2000/svg" xmlns:xlink="http://www.w3.org/1999/xlink" width="189.538pt" height="147.829pt" viewBox="0 0 189.538 147.829"><defs><path id="a" d="m1.75-1.3125.51563.5L4.375-2.9375l2.10938 2.125.5-.5L4.875-3.42187l2.10938-2.125-.5-.48438L4.375-3.92187 2.26563-6.03125 1.75-5.54687l2.125 2.125Zm0 0"/><path id="b" d="M0 0h2.875l.0625-.34375-.48437-.04687c-.35938-.01563-.54688-.10938-.54688-.375 0-.64063.10938-1 .25-1.65625l1.10938-4.9375h.03125L4.75-.14062h.34375l4.73438-7.21875h.01562L8.35938-1.01562c-.10938.42187-.21875.5625-.51563.59375l-.65625.07812L7.10938 0h3.3125l.0625-.34375-.71875-.07812c-.21875-.01563-.3125-.125-.3125-.3125q0-.1172.04687-.28126l1.45313-6.375c.10937-.42187.20312-.57812.51562-.60937l.67188-.04687.07812-.35938h-2.375c-.64062 1.125-1.35937 2.20313-2.10937 3.32813L5.59375-1.79687H5.5625l-.6875-3.375c-.25-1.09375-.5-2.14063-.70312-3.23438H1.82813L1.75-8.04687l.70313.0625c.20312.01562.3125.10937.3125.32812 0 .07813-.01563.15625-.04688.26563L1.57813-2.42187c-.14063.65625-.28126 1.10937-.42188 1.51562-.14062.39063-.375.48438-.71875.51563l-.375.04687Zm0 0"/><path id="c" d="M0 0h2.875l.0625-.34375-.48437-.04687C2.09375-.40625 1.90625-.48437 1.90625-.75c0-.64062.10938-1.01562.25-1.67187l1.14063-4.96875h.03125C4.46875-4.92187 5.59375-2.46875 6.70313 0H7.5l1.34375-5.98437C9-6.625 9.14063-7.09375 9.28125-7.5c.14063-.375.35938-.46875.71875-.51562l.375-.03125.0625-.35938H7.57813L7.5-8.04687 7.98438-8c.35937.04688.5625.15625.5625.42188 0 .4375-.125.95312-.26563 1.59375l-1 4.39062h-.04687C6.1875-3.85937 5.15625-6.125 4.14063-8.40625h-2.3125L1.75-8.04687l.70313.0625c.20312.01562.3125.10937.3125.32812 0 .07813-.01563.15625-.04688.26563L1.57813-2.42187c-.14063.65625-.28126 1.10937-.42188 1.51562-.14062.39063-.35937.48438-.71875.51563l-.375.04687Zm0 0"/><clipPath id="d"><path d="M95 .09375h1V147.5625h-1Zm0 0"/></clipPath></defs><use xlink:href="#a" x="17.52728" y="76.84635"/><use xlink:href="#b" x="4.3065" y="69.26483"/><use xlink:href="#a" x="164.59879" y="76.84635"/><use xlink:href="#c" x="173.53102" y="69.26483"/><path fill="none" stroke="red" stroke-miterlimit="10" stroke-width=".39753" d="M95.42966 66.47657h7.35156v7.35155"/><path fill="none" stroke="#000" stroke-miterlimit="10" stroke-width=".39753" d="M21.89453 73.82812H168.9687"/><g clip-path="url(#d)"><path fill="none" stroke="#000" stroke-miterlimit="10" stroke-width=".39753" d="M95.42966.293v147.07416"/></g><path fill="none" stroke="red" stroke-miterlimit="10" stroke-width=".39753" d="m58.40623 76.8086.4961-5.96094m73.02731 5.96094.4961-5.96094"/><use xlink:href="#a" x="91.06303" y="76.84635"/><use xlink:href="#a" x="91.077" y="40.07099"/><use xlink:href="#a" x="91.077" y="132.00889"/><path fill="none" stroke="#000" stroke-dasharray="2.9815671431 2.9815671431" stroke-miterlimit="10" stroke-width=".39753" d="M21.89453 73.82812 95.44528 37.0547l73.5234 36.77342"/><path fill="none" stroke="red" stroke-miterlimit="10" stroke-width=".39753" d="m58.8828 58.66797-2.22266-5.55468m4 4.66406-2.22266-5.55468m71.30076 5.33203 3.10937-5.10938m-1.33203 5.99609 3.10937-5.10937"/><path fill="none" stroke="#000" stroke-dasharray="2.9815671431 2.9815671431" stroke-miterlimit="10" stroke-width=".39753" d="m21.89453 73.82812 73.55075 55.16404 73.5234-55.16404"/><path fill="none" stroke="red" stroke-miterlimit="10" stroke-width=".39753" d="m55.08592 102.4492 3.97656-4.47265m-2.38671 5.66797 3.97656-4.47266m-2.38672 5.66406 3.97656-4.47265m69.94138 4.76953-3.1836-5.0664m4.77344 3.875-3.1836-5.06641m4.77344 3.875-3.18359-5.07031"/></svg>