<svg xmlns="http://www.w3.org/2000/svg" xmlns:xlink="http://www.w3.org/1999/xlink" width="693.18pt" height="286.99pt" viewBox="0 0 693.18 286.99"><defs><path id="a" d="m2.70313-2.03125.78125.78125 3.25-3.26562L10-1.25l.75-.78125-3.25-3.25 3.25-3.26562-.75-.75-3.26562 3.25-3.25-3.25-.78125.75 3.26562 3.26562Zm0 0"/></defs><use xlink:href="#a" x="363.33419" y="168.96287"/><use xlink:href="#a" x="465.24863" y="118.00615"/><path fill="none" stroke="#000" stroke-miterlimit="10" stroke-width=".39803" d="m370.0625 164.31643 101.91402-50.957"/><path fill="none" stroke="red" stroke-miterlimit="10" stroke-width=".39803" d="m419.7578 142.61331 2.51562-7.55077"/><use xlink:href="#a" x="609.49699" y="136.65709"/><use xlink:href="#a" x="672.27373" y="41.57756"/><path fill="none" stroke="#000" stroke-miterlimit="10" stroke-width=".39803" d="m616.22645 132.00785 62.77732-95.07808"/><path fill="none" stroke="red" stroke-miterlimit="10" stroke-width=".39803" d="m648.35925 88.45318-1.59765-7.80078"/><use xlink:href="#a" x="261.41975" y="67.04843"/><use xlink:href="#a" x="516.20535" y="16.09171"/><path fill="none" stroke="#000" stroke-miterlimit="10" stroke-width=".39803" d="m268.14458 62.3985 254.78895-50.957"/><path fill="none" stroke="red" stroke-miterlimit="10" stroke-width=".39803" d="m393.3867 41.41023 2.33985-8.58593m.58594 8 2.33984-8.58594"/><use xlink:href="#a" x="57.58588" y="270.86333"/><use xlink:href="#a" x="6.63315" y="16.0987"/><path fill="none" stroke="#000" stroke-miterlimit="10" stroke-width=".39803" d="M64.30873 266.21482 13.35563 11.44931"/><path fill="none" stroke="red" stroke-miterlimit="10" stroke-width=".39803" d="m43.32436 140.98831-8.58593-2.34374m8-.58594-8.58594-2.33984"/><use xlink:href="#a" x="159.50531" y="67.04843"/><use xlink:href="#a" x="210.46203" y="118.00615"/><path fill="none" stroke="#000" stroke-miterlimit="10" stroke-width=".39803" d="m166.23056 62.3985 50.957 50.96092"/><path fill="none" stroke="red" stroke-miterlimit="10" stroke-width=".39803" d="m186.7657 88.56256 8.4414-2.8125m-6.33202 4.92578 8.4453-2.8164m-6.33202 4.92577 8.4414-2.8125"/><use xlink:href="#a" x="180.75418" y="240.11271"/><use xlink:href="#a" x="252.53626" y="246.39328"/><path fill="none" stroke="#000" stroke-miterlimit="10" stroke-width=".39803" d="m187.48055 235.46484 71.78122 6.28124"/><path fill="none" stroke="red" stroke-miterlimit="10" stroke-width=".39803" d="m220.04694 242.31249 4.66016-7.58594m-1.6875 7.84375 4.66015-7.58203m-1.6836 7.84375 4.65626-7.58594"/><use xlink:href="#a" x="477.13257" y="226.72854"/><use xlink:href="#a" x="546.73524" y="208.0786"/><path fill="none" stroke="#000" stroke-miterlimit="10" stroke-width=".39803" d="m483.85932 222.08203 69.60544-18.65234"/><path fill="none" stroke="red" stroke-miterlimit="10" stroke-width=".39803" d="m516.7929 217.3789 1.78516-8.72265m1.09766 7.94922 1.78515-8.71875m1.10156 7.94531 1.78125-8.71874"/><use xlink:href="#a" x="83.06973" y="219.92059"/><use xlink:href="#a" x="159.50531" y="118.00615"/><path fill="none" stroke="#000" stroke-miterlimit="10" stroke-width=".39803" d="m89.7931 215.27344 76.43746-101.91402"/><path fill="none" stroke="red" stroke-miterlimit="10" stroke-width=".39803" d="M130.39854 161.13284c-1.7578-1.3164-4.2539-.96094-5.57421.79687-1.3164 1.75781-.96094 4.2539.79687 5.57422 1.75781 1.3164 4.2539.96093 5.57422-.79688 1.3164-1.7578.96094-4.2539-.79688-5.57421Zm0 0"/><use xlink:href="#a" x="618.14876" y="219.86566"/><use xlink:href="#a" x="516.24331" y="143.43607"/><path fill="none" stroke="#000" stroke-miterlimit="10" stroke-width=".39803" d="M624.8788 215.21875 522.97258 138.7891"/><path fill="none" stroke="red" stroke-miterlimit="10" stroke-width=".39803" d="M570.746 174.6172c-1.3203 1.75782-.96484 4.25391.79688 5.57032 1.75781 1.3203 4.25.96484 5.57031-.79297 1.32031-1.76172.96484-4.2539-.79688-5.57422-1.7578-1.32031-4.2539-.96094-5.5703.79688Zm0 0"/><use xlink:href="#a" x="309.91938" y="280.1823"/><use xlink:href="#a" x="325.15636" y="153.71391"/><path fill="none" stroke="#000" stroke-miterlimit="10" stroke-width=".39803" d="m316.64456 275.53513 15.23827-126.4687"/><path fill="none" stroke="red" stroke-miterlimit="10" stroke-width=".39803" d="M324.7383 208.35157c-2.17968-.26172-4.16406 1.29296-4.42578 3.47656-.26562 2.17968 1.29297 4.16406 3.47656 4.42578 2.17969.26562 4.16406-1.29297 4.42578-3.47656.26172-2.1797-1.29296-4.16407-3.47656-4.42578Zm0 0"/></svg>