<svg xmlns="http://www.w3.org/2000/svg" xmlns:xlink="http://www.w3.org/1999/xlink" width="179.929pt" height="142.131pt" viewBox="0 0 179.929 142.131"><defs><path id="a" d="m1.6875-1.26562.48438.48437L4.1875-2.8125 6.21875-.78125l.46875-.48437-2.01562-2.01563L6.6875-5.3125l-.46875-.46875L4.1875-3.76562 2.17188-5.78125l-.48438.46875 2.03125 2.03125Zm0 0"/><path id="b" d="M0 0h2.75l.0625-.32812L2.34375-.375C2-.39062 1.8125-.48437 1.8125-.73437c0-.60938.125-.96875.25-1.57813L3.125-7.04687h.03125L4.54688-.14062H4.875l4.53125-6.90625h.03125L8-.96875c-.09375.40625-.20312.53125-.48437.5625L6.875-.32812 6.8125 0h3.15625l.0625-.32812-.67187-.07813c-.21875-.01562-.29688-.10937-.29688-.29687 0-.07813.01563-.15626.03125-.26563L10.5-7.07812c.09375-.39063.1875-.5625.48438-.57813l.64062-.04687.07813-.34375H9.4375c-.625 1.0625-1.3125 2.10937-2.03125 3.1875L5.35938-1.71875h-.03125l-.65625-3.23437C4.4375-6 4.1875-7 4-8.04687H1.75l-.07812.34375.67187.0625c.20313 0 .29688.10937.29688.29687 0 .07813 0 .17188-.03125.26563L1.51563-2.3125C1.375-1.70312 1.23437-1.25 1.09375-.85937.96875-.5.75-.40625.42188-.375L.0625-.32812Zm0 0"/><path id="c" d="M0 0h2.75l.0625-.32812L2.34375-.375C2-.39062 1.8125-.46875 1.8125-.71875c0-.625.125-.98437.25-1.59375l1.09375-4.76562h.03125A710 710 0 0 1 6.42188 0h.75l1.3125-5.73437c.125-.60938.26562-1.0625.40625-1.4375.125-.375.34375-.46875.6875-.5l.35937-.03125L10-8.04687H7.25l-.0625.34375.45313.04687C8-7.625 8.1875-7.51562 8.1875-7.25c0 .42188-.125.90625-.25 1.51563l-.95312 4.21875H6.9375c-1.01562-2.1875-2-4.34375-2.98437-6.53125H1.75l-.07812.34375.67187.0625c.20313 0 .29688.10937.29688.29687 0 .07813 0 .17188-.03125.26563L1.51563-2.3125C1.375-1.70312 1.23437-1.25 1.09375-.85937.96875-.5.76563-.40625.42188-.375L.0625-.32812Zm0 0"/><clipPath id="d"><path d="M90 0h1v141.26563h-1Zm0 0"/></clipPath></defs><use xlink:href="#a" x="16.16372" y="73.52347"/><use xlink:href="#b" x="4.6372" y="66.26088"/><use xlink:href="#a" x="157.03542" y="73.52347"/><use xlink:href="#c" x="165.59211" y="66.26088"/><path fill="none" stroke="red" stroke-miterlimit="10" stroke-width=".39608" d="M90.78515 70.63281v-7.04297h7.04297v7.04297h-7.04297"/><path fill="none" stroke="#000" stroke-miterlimit="10" stroke-width=".39608" d="M20.34766 70.63281h140.87499"/><g clip-path="url(#d)"><path fill="none" stroke="#000" stroke-miterlimit="10" stroke-width=".39608" d="M90.78515.19532V141.0703"/></g><path fill="none" stroke="red" stroke-miterlimit="10" stroke-width=".39608" d="m52.76562 73.4336 5.60156-5.60157m64.83594 5.60157 5.60156-5.60157"/><use xlink:href="#a" x="86.60007" y="73.52347"/><use xlink:href="#a" x="86.60007" y="38.3058"/><use xlink:href="#a" x="86.60007" y="126.35048"/><path fill="none" stroke="#000" stroke-dasharray="2.9706579136 2.9706579136" stroke-miterlimit="10" stroke-width=".39608" d="m20.34766 70.63281 70.4375-35.21875 70.43749 35.21875"/><path fill="none" stroke="red" stroke-miterlimit="10" stroke-width=".39608" d="M54.65234 57.91016v-8.85547m2.65625 7.52734v-8.85547m64.23828 7.4961 7.08593-5.3125m-4.42968 6.64062 7.08593-5.3125"/><path fill="none" stroke="#000" stroke-dasharray="2.9706579136 2.9706579136" stroke-miterlimit="10" stroke-width=".39608" d="m20.34766 70.63281 70.4375 52.82812 70.43749-52.82812"/><path fill="none" stroke="red" stroke-miterlimit="10" stroke-width=".39608" d="m50.76562 98.39843 7.92188-3.96093m-5.54688 5.74218 7.92188-3.96093m-5.54297 5.74219 7.92187-3.95704m62.51562 4.03125-1.58593-8.71484m3.96093 6.92969-1.58593-8.71094m3.96093 6.92969L129.125 89.7539"/></svg>