<svg xmlns="http://www.w3.org/2000/svg" xmlns:xlink="http://www.w3.org/1999/xlink" width="187.155pt" height="24.652pt" viewBox="0 0 187.155 24.652"><defs><path id="a" d="m1.73438-1.29687.5.5L4.3125-2.89062 6.40625-.79687l.48438-.5L4.8125-3.39062l2.07813-2.07813-.48438-.5L4.3125-3.875 2.23438-5.96875l-.5.5 2.09375 2.07813Zm0 0"/><path id="b" d="M0 0h2.82813l.0625-.34375-.46875-.04687C2.0625-.40625 1.875-.5 1.875-.75c0-.64062.10938-1 .25-1.64062l1.10938-4.89063H3.25L4.70313-.14062h.32812l4.67188-7.14063h.03125L8.26563-1c-.10938.40625-.21875.54688-.51563.57813l-.65625.07812L7.01563 0h3.28125l.0625-.34375-.70313-.07812c-.21875-.01563-.3125-.10938-.3125-.3125 0-.0625.01563-.15626.03125-.26563l1.45313-6.29687c.09375-.40625.1875-.57813.5-.60938l.65625-.04687.09375-.34375H9.73438C9.09375-7.20312 8.375-6.125 7.64063-5.01562L5.53125-1.78125h-.04687L4.8125-5.10937c-.25-1.07813-.48437-2.10938-.6875-3.1875H1.79688l-.07813.34375.70313.0625c.20312.01562.3125.10937.3125.32812 0 .0625-.01563.15625-.04688.26563l-1.125 4.90625c-.14062.64062-.28125 1.09375-.42187 1.5-.14063.375-.35938.46875-.70313.5l-.375.04687Zm0 0"/><path id="c" d="M0 0h2.82813l.0625-.34375-.46875-.04687C2.0625-.40625 1.875-.48437 1.875-.73437c0-.64063.10938-1.01563.25-1.65625L3.25-7.29687h.04688C4.42188-4.85937 5.53125-2.4375 6.625 0h.78125L8.75-5.90625c.14063-.64062.28125-1.10937.42188-1.5.14062-.375.34375-.46875.70312-.51562l.375-.03125.0625-.34375H7.48438l-.0625.34375.46875.04687c.35937.04688.5625.15625.5625.42188 0 .4375-.125.9375-.26563 1.57812L7.20313-1.5625h-.04688c-1.04687-2.25-2.0625-4.48437-3.07812-6.73437H1.79688l-.07813.34375.70313.0625c.20312.01562.3125.10937.3125.32812 0 .0625-.01563.15625-.04688.26563l-1.125 4.90625c-.14062.64062-.28125 1.09375-.42187 1.5-.14063.375-.34375.46875-.70313.5l-.375.04687Zm0 0"/></defs><use xlink:href="#a" x="17.036" y="20.05194"/><use xlink:href="#b" x="5.14289" y="12.55773"/><use xlink:href="#a" x="162.41476" y="20.05194"/><use xlink:href="#c" x="171.24313" y="12.55773"/></svg>