<svg xmlns="http://www.w3.org/2000/svg" xmlns:xlink="http://www.w3.org/1999/xlink" width="219.959pt" height="220.004pt" viewBox="0 0 219.959 220.004"><defs><path id="a" d="M.89063-5.98437c0 2.10937.6875 3.8125 1.78125 4.75C3.90625-.15626 5.625.3125 7.5625.3125c1.54688 0 3.23438-.35937 4.4375-.79687l1.01563-4.25c.17187-.70313.28125-1 .64062-1.04688l.90625-.09375.14063-.59375H9.17188L9.0625-5.875l1.5625.14063c.28125.01562.42188.15625.42188.48437 0 .14063-.03125.29688-.0625.51563l-.76563 3.17187c-.15625.60938-.42187 1.14063-2.60937 1.14063-2.54688 0-4.39063-1.70313-4.39063-5.40625 0-3.34375 1.625-8.26563 6.64063-8.26563 2.75 0 3.21875 1.59375 3.34375 3.57813h.625l.76562-3.28125c-1.26562-.6875-2.95312-1.04688-4.70312-1.04688-3.21875 0-5.54688 1.17188-7.01563 3.04688C1.5-10.04687.89063-7.82812.89063-5.98437m0 0"/><path id="b" d="M.45313 0H6.1875l.125-.60937-1.25-.07813c-.35937-.03125-.51562-.23437-.51562-.5625 0-.14062.03125-.3125.07812-.48437l2.5-11.03125c.15625-.64063.34375-1 .89063-1.04688l1.15625-.09375.125-.59375H3.5625l-.15625.59375 1.25.09375c.35938.01563.51563.25.51563.57813 0 .14062-.01563.29687-.0625.46875L2.59375-1.73437c-.15625.65625-.35937.95312-.875 1l-1.15625.125Zm0 0"/><path id="c" d="M0 0h5.73438L5.875-.60937l-1.25-.10938c-.35937-.01562-.54687-.17187-.54687-.51562 0-.125.04687-.3125.09375-.5L5.3125-6.82812h1.26563c2.03125 0 2.32812.48437 2.32812 2.95312 0 2.53125 0 3.875 2.20313 3.875h1.625l.20312-.60937c-1.46875-.1875-1.98437-.26563-1.98437-2.95313 0-2.15625-.17188-3.0625-1.92188-3.64062 2.57813-.35938 4.3125-1.85938 4.3125-3.9375 0-1.48438-.64062-3.35938-4.57812-3.35938H3.125l-.15625.59375 1.25.09375c.35938.01563.51563.20313.51563.5625 0 .125-.03125.28125-.07813.48438L2.14063-1.73437c-.17188.73437-.35938.95312-.875 1l-1.15625.125Zm5.48438-7.5625 1.23437-5.42187c.15625-.60938.21875-.8125 1.79688-.8125 1.375 0 2.64062.60937 2.64062 2.4375 0 2.5-1.625 3.79687-4.32812 3.79687Zm0 0"/><path id="d" d="M.45313 0h10.71875L12.25-3.6875h-.625C10.54688-1.09375 9.59375-.73437 7.23438-.73437c-2.14063 0-2.60938-.20313-2.60938-.875 0-.21876.0625-.53125.15625-.95313L7.125-12.76562c.17188-.6875.34375-1 .89063-1.04688l1.25-.09375.15625-.59375H3.5625l-.15625.59375 1.25.09375c.35938.01563.51563.20313.51563.5625 0 .125-.01563.28125-.0625.48438L2.59375-1.73437c-.1875.73437-.35937.95312-.875 1l-1.15625.125Zm0 0"/></defs><use xlink:href="#a" x="7.91258" y="211.26257"/><use xlink:href="#b" x="197.54507" y="210.92809"/><use xlink:href="#c" x="197.54507" y="21.94266"/><use xlink:href="#d" x="10.47896" y="21.94266"/><path fill="none" stroke="#000" stroke-miterlimit="10" stroke-width=".3967" d="M30.94922 188.53906h158.7148V29.82426H30.94923Zm0 0"/></svg>