<svg xmlns="http://www.w3.org/2000/svg" xmlns:xlink="http://www.w3.org/1999/xlink" width="253.523pt" height="106.893pt" viewBox="0 0 253.523 106.893"><defs><path id="a" d="m2.70313-2.03125.78125.78125 3.23437-3.26562L9.98438-1.25l.75-.78125L7.5-5.26562l3.23438-3.26563-.75-.75-3.26563 3.23438-3.23437-3.23438-.78125.75 3.26562 3.26563Zm0 0"/><path id="b" d="M.39063 0h5.125L5.625-.53125 4.51563-.60937c-.3125-.03126-.45313-.20313-.45313-.5 0-.125.01563-.28126.0625-.4375L6.34375-11.375c.14063-.57812.3125-.89062.79688-.9375l1.03125-.07812.125-.53125H3.1875l-.14062.53125 1.10937.07812c.3125.01563.45313.21875.45313.51563q0 .1875-.04688.42187l-2.25 9.82813c-.14062.59375-.32812.84375-.78125.89062L.5-.53125Zm0 0"/><path id="c" d="M-1.54687 1.70313v.48437c.1875.01563.40625.04688.60937.04688.85938 0 2.125-.21875 2.89063-.75.875-.60938 1.53125-1.64063 1.96875-3.51563l2.1875-9.40625c.14062-.57812.29687-.82812.76562-.875l1.04688-.07812.14062-.53125H2.90625l-.125.53125 1.09375.07812c.34375.01563.5.17188.5.5 0 .09375-.01562.21875-.0625.375l-2.04687 8.75C1.84375-.9375 1.35938.23438.78125.78125c-.64062.57813-1.39062.82813-2.32812.92188m0 0"/><path id="d" d="M1.60938-5.26562c0 4.21875.95312 8.84375 4.92187 9V3.1875C5.1875 2.92188 3.10938 1.26563 3.10938-5.26562c0-6.51563 1.98437-8.15625 3.42187-8.45313v-.5625C2.5625-14.125 1.60938-9.48437 1.60938-5.26562m0 0"/><path id="e" d="M1.79688.21875 3.42188 0c.53125-1.90625.82812-2.98437 1.23437-3.98437.64063-1.625 2.46875-4.42188 4.01563-4.42188.39062 0 .67187.21875.67187.78125 0 .20313-.03125.46875-.10937.78125l-1.875 7.0625L8.98438 0c.54687-1.90625.85937-3 1.34375-4.14062.6875-1.59375 2.375-4.26563 3.95312-4.26563.45313 0 .71875.29688.71875.76563 0 .15625-.01562.34375-.07812.54687L13.3125-1.60937c-.07812.28124-.125.53125-.125.75 0 .70312.375 1.07812 1.09375 1.07812 1.375 0 2.40625-1.26562 3.04688-2.6875l-.4375-.25C16.54687-2.0625 15.71875-.75 15.20313-.75c-.21875 0-.3125-.14062-.3125-.35937 0-.1875.0625-.40625.125-.65625l1.4375-4.92188c.10937-.40625.1875-.8125.1875-1.15625 0-.90625-.45313-1.54687-1.5625-1.54687-1.6875 0-3.35938 1.54687-4.71875 3.95312h-.07813l.375-1.17187c.17188-.53125.26563-.98438.26563-1.39063 0-.89062-.48438-1.39062-1.39063-1.39062-1.71875 0-3.4375 1.60937-4.73437 3.95312h-.0625l1.17187-3.84375-.09375-.10937-3.39062.51562-.10938.46875 1.15625.09375c.26563.01563.375.125.375.3125 0 .14063-.0625.34375-.125.57813Zm0 0"/><path id="f" d="M1.10938 3.1875v.54688c3.96875-.15625 4.92187-4.78125 4.92187-9s-.95312-8.85938-4.92187-9.01563v.5625c1.4375.29688 3.42187 1.9375 3.42187 8.45313 0 6.53125-2.07812 8.1875-3.42187 8.45312m0 0"/><path id="g" d="M0 0h5.10938l.125-.53125L4.125-.60937c-.32812-.03126-.46875-.20313-.46875-.5 0-.125.03125-.28126.0625-.4375L4.89063-6.75h.04687C5.78125-5 6.70313-3.125 7.84375-1.57812 8.73438-.35937 9.54688.04688 10.98438.07813l.90625.01562.14062-.54687c-1.07812-.10938-1.51562-.59375-2.1875-1.4375-1.25-1.57813-2.53125-3.84375-3.29687-5.48438 1.6875-1.42187 3.23437-2.70312 4.95312-3.90625 1.07813-.75 1.51563-1.01562 3.01563-1.10937l.07812-.53125H9.9375l-.07812.53125.71875.0625c.20312.01562.26562.09375.26562.21875 0 .09375-.10937.23437-.28125.39062l-5.53125 4.75h-.07812l1-4.40625c.14062-.57812.3125-.89062.79687-.9375l1.03125-.07812.10938-.53125H2.78125l-.14062.53125 1.125.07812c.3125.01563.45312.21875.45312.51563 0 .125-.01562.26562-.0625.42187l-2.25 9.82813c-.14062.59375-.3125.84375-.76562.89062l-1.04688.125Zm0 0"/></defs><use xlink:href="#a" x="6.62853" y="95.74492"/><use xlink:href="#b" x="9.50212" y="78.41652"/><use xlink:href="#a" x="232.97466" y="39.15838"/><use xlink:href="#c" x="235.96703" y="19.60218"/><path fill="none" stroke="red" stroke-miterlimit="10" stroke-width=".39775" d="m126.52343 62.8086 2.84766 10.95312 10.98047-2.7461-2.84766-10.95312-10.98047 2.7461"/><path fill="none" stroke="#000" stroke-miterlimit="10" stroke-width=".39775" d="m13.35156 91.10156 226.34765-56.58593M133.8828 91.10156l-14.14843-56.58593"/><path fill="none" stroke="red" stroke-miterlimit="10" stroke-width=".39775" d="m67.89062 80.36719 4.09375-6.82031M181.0625 52.07422l4.09374-6.82031"/><use xlink:href="#d" x="140.90589" y="96.37174"/><use xlink:href="#e" x="148.54283" y="96.37174"/><use xlink:href="#f" x="167.0982" y="96.37174"/><path fill="none" stroke="#000" stroke-dasharray="2.9832109996000002 2.9832109996000002" stroke-miterlimit="10" stroke-width=".39775" d="m13.35156 91.10156 109.77734-42.4414 116.5703-14.14453"/><path fill="none" stroke="red" stroke-miterlimit="10" stroke-width=".39775" d="M71.94922 68.44922c-.79297-2.05078-3.09766-3.0664-5.14453-2.27734-2.05079.79296-3.07032 3.09765-2.27735 5.14453.79297 2.05078 3.09375 3.0703 5.14453 2.27734 2.04688-.79297 3.0664-3.09375 2.27735-5.14453Zm113.41015-27.33984c-.26172-2.1797-2.2461-3.73438-4.42578-3.46875-2.1797.26562-3.73438 2.2461-3.46875 4.42968.26172 2.1797 2.24609 3.73047 4.42578 3.46875 2.17968-.26562 3.73437-2.24609 3.46875-4.42968Zm0 0"/><use xlink:href="#a" x="116.40598" y="53.30577"/><use xlink:href="#g" x="130.15511" y="41.53591"/></svg>