<svg xmlns="http://www.w3.org/2000/svg" xmlns:xlink="http://www.w3.org/1999/xlink" width="127.115pt" height="127.141pt" viewBox="0 0 127.115 127.141"><defs><path id="a" d="M.51563-3.45312c0 1.21875.39062 2.20312 1.03125 2.75.70312.60937 1.6875.89062 2.8125.89062.89062 0 1.85937-.21875 2.5625-.46875L7.5-2.71875c.09375-.42187.17188-.59375.375-.60937l.51563-.04688.07812-.35937h-3.1875l-.0625.35937.90625.0625c.15625.01563.23438.09375.23438.29688 0 .07812 0 .15625-.03125.29687l-.4375 1.8125c-.09375.35938-.25.65625-1.5.65625-1.46875 0-2.53125-.96875-2.53125-3.10937 0-1.92188.9375-4.76563 3.82812-4.76563 1.57813 0 1.84375.92188 1.92188 2.0625h.35937l.4375-1.89062c-.73437-.39063-1.6875-.59375-2.70312-.59375-1.85938 0-3.20313.67187-4.04688 1.75C.85938-5.78125.51563-4.51562.51563-3.45312m0 0"/><path id="b" d="M.25 0h3.3125l.07813-.34375-.71875-.0625c-.20313 0-.29688-.125-.29688-.3125 0-.07812.01563-.1875.03125-.28125l1.45313-6.35937c.07812-.375.20312-.57813.5-.59375l.67187-.0625.07813-.34375H2.0625l-.09375.34375.71875.0625c.20313 0 .29688.14062.29688.32812 0 .07813-.01563.17188-.04688.26563L1.48438-1c-.07813.375-.20313.54688-.5.57813l-.65625.07812Zm0 0"/><path id="c" d="M0 0h3.3125l.0625-.34375-.71875-.0625c-.20312-.01562-.29687-.10937-.29687-.29687 0-.07813.01562-.1875.04687-.29688l.65625-2.9375h.73438c1.17187 0 1.32812.28125 1.32812 1.70313C5.125-.76562 5.125 0 6.40625 0h.9375l.10938-.34375C6.60938-.46875 6.3125-.5 6.3125-2.0625c0-1.23437-.09375-1.75-1.10937-2.09375C6.6875-4.35937 7.6875-5.21875 7.6875-6.42187c0-.85938-.375-1.9375-2.64062-1.9375h-3.25l-.09376.34375.73438.0625c.20313 0 .28125.10937.28125.3125 0 .07812 0 .17187-.03125.28125L1.23438-1c-.10938.42188-.20313.54688-.5.57813L.0625-.34375Zm3.15625-4.35937.71875-3.125c.07813-.34375.125-.46875 1.03125-.46875.79688 0 1.51563.35937 1.51563 1.40625 0 1.4375-.9375 2.1875-2.48438 2.1875Zm0 0"/><path id="d" d="M.25 0h6.1875l.625-2.125h-.35937c-.625 1.5-1.17188 1.70313-2.53125 1.70313-1.23438 0-1.51563-.125-1.51563-.5 0-.125.04688-.3125.09375-.5625l1.35938-5.875c.09375-.39063.20312-.57813.5-.59375l.73437-.0625.07813-.34375H2.0625l-.09375.34375.71875.0625c.20313 0 .29688.10937.29688.3125q0 .11718-.04688.28125L1.48438-1c-.09376.42188-.20313.54688-.5.57813l-.65625.07812Zm0 0"/></defs><use xlink:href="#a" x="4.28715" y="121.80804"/><use xlink:href="#b" x="113.61499" y="121.61538"/><use xlink:href="#c" x="113.61499" y="12.65995"/><use xlink:href="#d" x="5.76586" y="12.65995"/><path fill="none" stroke="#000" stroke-miterlimit="10" stroke-width=".39575" d="M17.5625 108.71094h91.50782V17.20312H17.5625Zm0 0"/></svg>