<svg xmlns="http://www.w3.org/2000/svg" xmlns:xlink="http://www.w3.org/1999/xlink" width="131.949pt" height="120.871pt" viewBox="0 0 131.949 120.871"><defs><path id="a" d="m1.6875-1.26562.48438.48437 2.03125-2.04687L6.25-.78125l.46875-.48437L4.6875-3.29687l2.03125-2.03125L6.25-5.8125 4.20313-3.78125 2.17188-5.8125l-.48438.48438 2.04688 2.03125Zm0 0"/><path id="b" d="M.375-3.15625C.375-1.23437 1.48438.17188 3.8125.17188c2.0625 0 3.0625-1.0625 3.71875-2.21875.625-1.14063.73438-2.32813.73438-2.79688 0-2.39062-1.45313-3.42187-3.375-3.42187-1.875 0-3.03125 1.03125-3.70313 2.14062C.53125-5.03125.375-3.9375.375-3.15625m1.23438.46875c0-.98437.1875-2.07812.71875-3.20312C2.85938-7 3.6875-7.85937 4.9375-7.85937c1.28125 0 2.10938.75 2.10938 2.40625 0 .67187-.0625 1.64062-.54688 2.875C6-1.3125 5.21875-.23437 3.6875-.23437c-1.26562 0-2.07812-.82813-2.07812-2.45313m0 0"/><path id="d" d="M.39063-5.82812C.39063-4.8125 1.40625-4 3.75-4c-.39062.67188-.67187 1.39063-.67187 2.15625 0 1.28125.79687 1.98438 2.26562 1.98438 1.4375 0 2.92188-1.03125 2.92188-2.35938 0-.79687-.65625-1.23437-1.48438-1.23437-.92187 0-2 1.03125-2 1.84375 0 .25.1875.71875.53125.71875.09375 0 .23438-.0625.23438-.17188 0-.15625-.26563-.17187-.26563-.53125 0-.57812.82813-1.48437 1.5-1.48437.46875 0 .75.1875.75.64062 0 1.03125-.98437 2.20313-2.1875 2.20313-.84375 0-1.28125-.46875-1.28125-1.23438 0-.875.60938-1.89062 1.07813-2.64062C7.73438-4.5 10.28125-5.78125 10.28125-7.40625c0-.625-.5-1.03125-1.17187-1.03125-1.53125 0-3.85938 1.96875-5.14063 4.01563-1.0625 0-2.78125-.03125-2.78125-1.28125 0-1.14063 1.40625-2.01563 2.26563-2.01563.17187 0 .25-.10937.25-.20312s-.07813-.17188-.1875-.17188c-1.29688 0-3.125.875-3.125 2.26563M5.375-4.5625c.85938-1.5 2.67188-3.51562 3.73438-3.51562.42187 0 .70312.25.70312.625 0 1.3125-2.04687 2.5-4.4375 2.89062m0 0"/><clipPath id="c"><path d="M.04297 0H127v120.74219H.04297Zm0 0"/></clipPath></defs><use xlink:href="#a" x="56.21092" y="63.27547"/><use xlink:href="#b" x="47.37535" y="55.80244"/><g clip-path="url(#c)"><path fill="none" stroke="#000" stroke-miterlimit="10" stroke-width=".39807" d="M120.58985 60.3711c0-33.23048-26.9414-60.17189-60.17579-60.17189C27.1836.19921.24218 27.14062.24218 60.3711c0 33.23438 26.94141 60.17189 60.17188 60.17189 33.23438 0 60.1758-26.9375 60.1758-60.17189Zm0 0"/></g><use xlink:href="#d" x="116.92113" y="25.75351"/></svg>