<svg xmlns="http://www.w3.org/2000/svg" xmlns:xlink="http://www.w3.org/1999/xlink" width="122.209pt" height="122.234pt" viewBox="0 0 122.209 122.234"><defs><path id="a" d="M.5-3.3125c0 1.15625.375 2.10938.98438 2.625.6875.59375 1.64062.85938 2.70312.85938.85938 0 1.79688-.20313 2.46875-.4375l.5625-2.35938c.09375-.39062.15625-.5625.35938-.57812l.5-.04688.07812-.34375h-3.0625l-.0625.34375.85938.0625c.15625.01563.23437.09375.23437.28125 0 .07813-.01562.15625-.03125.28125L5.67188-.85937c-.09375.32812-.23438.625-1.45313.625-1.40625 0-2.4375-.9375-2.4375-3 0-1.85938.90625-4.59375 3.6875-4.59375 1.51563 0 1.78125.89062 1.85938 2h.34375l.42187-1.8125c-.70312-.39063-1.64062-.59375-2.60937-.59375-1.78125 0-3.07813.64062-3.89063 1.6875C.82813-5.5625.5-4.34375.5-3.3125m0 0"/><path id="b" d="M.25 0h3.17188L3.5-.32812l-.6875-.0625c-.20312 0-.28125-.10938-.28125-.29688 0-.07812 0-.17187.03125-.28125l1.39063-6.10937c.07812-.35938.1875-.5625.48437-.57813l.65625-.04687.0625-.34375H1.98438l-.09376.34375.70313.04687c.1875.01563.28125.125.28125.3125 0 .07813-.01562.17188-.04687.26563L1.4375-.96875c-.09375.375-.20312.53125-.48437.5625L.3125-.32812Zm0 0"/><path id="c" d="M0 0h3.1875L3.25-.32812l-.6875-.0625C2.35938-.40625 2.26563-.5 2.26563-.6875c0-.0625.03125-.17187.04687-.28125l.625-2.8125h.71875c1.125 0 1.28125.26563 1.28125 1.625C4.9375-.75 4.9375 0 6.15625 0h.90625l.10938-.32812c-.8125-.125-1.09375-.15625-1.09375-1.65625 0-1.1875-.09375-1.6875-1.0625-2.01563 1.42187-.1875 2.39062-1.03125 2.39062-2.17187 0-.82813-.35937-1.875-2.54687-1.875h-3.125l-.09376.34375.70313.04687c.1875.01563.28125.10938.28125.3125 0 .0625-.01562.15625-.03125.26563L1.1875-.96875c-.09375.40625-.20312.53125-.48437.5625L.0625-.32812Zm3.04688-4.1875.67187-3.01562c.09375-.32813.125-.4375 1.01563-.4375.75 0 1.45312.32812 1.45312 1.34375 0 1.39062-.90625 2.10937-2.40625 2.10937Zm0 0"/><path id="d" d="M.25 0h5.95313l.59375-2.04687h-.34375c-.59375 1.4375-1.125 1.64062-2.4375 1.64062-1.1875 0-1.45313-.10937-1.45313-.48437 0-.125.03125-.29688.07813-.53125l1.3125-5.65625c.09375-.39063.1875-.5625.48437-.57813l.70313-.04687.07812-.34375H1.98438l-.09376.34375.70313.04687c.1875.01563.28125.10938.28125.3125 0 .0625-.01562.15625-.04687.26563L1.4375-.96875c-.09375.40625-.20312.53125-.48437.5625L.3125-.32812Zm0 0"/></defs><use xlink:href="#a" x="4.1243" y="117.16324"/><use xlink:href="#b" x="109.28167" y="116.97744"/><use xlink:href="#c" x="109.28167" y="12.17875"/><use xlink:href="#d" x="5.5471" y="12.17875"/><path fill="none" stroke="#000" stroke-miterlimit="10" stroke-width=".39594" d="M16.89844 104.5625h88.0117V16.5508h-88.0117Zm0 0"/></svg>