<svg xmlns="http://www.w3.org/2000/svg" xmlns:xlink="http://www.w3.org/1999/xlink" width="693.18pt" height="286.99pt" viewBox="0 0 693.18 286.99"><defs><path id="a" d="m2.70313-2.03125.78125.78125 3.25-3.26562L10-1.25l.75-.78125-3.25-3.25 3.25-3.26562-.75-.75-3.26562 3.25-3.25-3.25-.78125.75 3.26562 3.26562Zm0 0"/></defs><use xlink:href="#a" x="363.33419" y="168.96287"/><use xlink:href="#a" x="465.24863" y="118.00615"/><path fill="none" stroke="#000" stroke-miterlimit="10" stroke-width=".39803" d="m370.0625 164.31643 101.91402-50.957"/><use xlink:href="#a" x="609.49699" y="136.65709"/><use xlink:href="#a" x="672.27373" y="41.57756"/><path fill="none" stroke="#000" stroke-miterlimit="10" stroke-width=".39803" d="m616.22645 132.00785 62.77732-95.07808"/><use xlink:href="#a" x="261.41975" y="67.04843"/><use xlink:href="#a" x="516.20535" y="16.09171"/><path fill="none" stroke="#000" stroke-miterlimit="10" stroke-width=".39803" d="m268.14458 62.3985 254.78895-50.957"/><use xlink:href="#a" x="57.58588" y="270.86333"/><use xlink:href="#a" x="6.63315" y="16.0987"/><path fill="none" stroke="#000" stroke-miterlimit="10" stroke-width=".39803" d="M64.30873 266.21482 13.35563 11.44931"/><use xlink:href="#a" x="159.50531" y="67.04843"/><use xlink:href="#a" x="210.46203" y="118.00615"/><path fill="none" stroke="#000" stroke-miterlimit="10" stroke-width=".39803" d="m166.23056 62.3985 50.957 50.96092"/><use xlink:href="#a" x="180.75418" y="240.11271"/><use xlink:href="#a" x="252.53626" y="246.39328"/><path fill="none" stroke="#000" stroke-miterlimit="10" stroke-width=".39803" d="m187.48055 235.46484 71.78122 6.28124"/><use xlink:href="#a" x="477.13257" y="226.72854"/><use xlink:href="#a" x="546.73524" y="208.0786"/><path fill="none" stroke="#000" stroke-miterlimit="10" stroke-width=".39803" d="m483.85932 222.08203 69.60544-18.65234"/><use xlink:href="#a" x="83.06973" y="219.92059"/><use xlink:href="#a" x="159.50531" y="118.00615"/><path fill="none" stroke="#000" stroke-miterlimit="10" stroke-width=".39803" d="m89.7931 215.27344 76.43746-101.91402"/><use xlink:href="#a" x="618.14876" y="219.86566"/><use xlink:href="#a" x="516.24331" y="143.43607"/><path fill="none" stroke="#000" stroke-miterlimit="10" stroke-width=".39803" d="M624.8788 215.21875 522.97258 138.7891"/><use xlink:href="#a" x="309.91938" y="280.1823"/><use xlink:href="#a" x="325.15636" y="153.71391"/><path fill="none" stroke="#000" stroke-miterlimit="10" stroke-width=".39803" d="m316.64456 275.53513 15.23827-126.4687"/></svg>