<svg xmlns="http://www.w3.org/2000/svg" xmlns:xlink="http://www.w3.org/1999/xlink" width="182.182pt" height="127.517pt" viewBox="0 0 182.182 127.517"><defs><path id="a" d="M0 0h3.67188C6.59375 0 7.1875-1.51562 7.1875-2.51562c0-1.28125-.9375-1.82813-1.82812-2l.01562-.01563c1.60938-.20312 2.29688-1.10937 2.29688-2.03125 0-.98437-.57813-1.8125-2.8125-1.8125h-3.0625l-.07813.34375.71875.0625c.20313.01563.29688.10938.29688.29688 0 .07812-.03125.1875-.04688.29687L1.25-1c-.09375.39063-.20312.53125-.5.57813l-.6875.07812Zm2.42188-.92187q0-.14063.04687-.28126l.6875-3.10937h.48438c1.1875 0 2.25.35938 2.25 1.73438 0 1.07812-.65625 2.15625-2.28125 2.15625-.95313 0-1.1875-.20313-1.1875-.5M3.25-4.73437l.625-2.8125c.09375-.35938.15625-.42188.96875-.42188 1.01563 0 1.59375.51563 1.59375 1.375 0 1.25-1.0625 1.85938-2.40625 1.85938Zm0 0"/><path id="b" d="M.39063-3.28125c0 2 1.14062 3.46875 3.54687 3.46875 2.14063 0 3.1875-1.10937 3.85938-2.29687.65625-1.1875.78125-2.42188.78125-2.90625 0-2.48438-1.51563-3.5625-3.51563-3.5625-1.9375 0-3.125 1.07812-3.84375 2.23437-.67187 1.125-.82812 2.26563-.82812 3.0625m1.26562.5c0-1.01562.20313-2.15625.75-3.32812C2.96875-7.25 3.82813-8.14062 5.125-8.14062c1.3125 0 2.17188.78125 2.17188 2.5 0 .6875-.0625 1.6875-.5625 2.96875C6.21875-1.35937 5.40625-.25 3.82813-.25c-1.3125 0-2.17188-.84375-2.17188-2.53125m0 0"/><path id="c" d="M.76563-8.03125c.76562.0625.875.07813 1.01562.5625L2.96875-3.625c.03125.10938.0625.20313.0625.29688 0 .10937-.04687.20312-.0625.34375L2.51563-.9375c-.07813.32813-.20313.45313-.5.5l-.875.09375L1.0625 0h3.76563l.0625-.34375-.92188-.07812C3.75-.4375 3.67188-.53125 3.67188-.70312c0-.0625 0-.14063.03125-.23438l.45312-2.04687c.07813-.32813.21875-.57813.34375-.73438.90625-1.34375 2.125-2.95312 2.78125-3.6875.4375-.5.57813-.57812 1.28125-.625L8.625-8.375H5.85938l-.07813.34375.5.04688c.25.01562.375.04687.375.20312 0 .20313-1.67187 2.57813-2.625 3.875H4S2.89063-7.57812 2.89063-7.75c0-.14062.0625-.20312.23437-.23437l.67188-.04688.0625-.34375H.84375Zm0 0"/><path id="d" d="M.39063-.8125c.46875.625 1.64062 1 2.51562 1C5.26563.15625 5.98438-1.20312 5.98438-2.5c0-1.09375-.59375-1.78125-1.82813-2.40625-.70312-.35937-1.54687-.78125-1.54687-1.6875 0-.875.625-1.54687 1.6875-1.54687 1.21875 0 1.45312.5625 1.45312 1.89062h.35938l.42187-1.70312c-.51562-.40625-1.40625-.625-2.15625-.625-2.125 0-2.79687 1.39062-2.79687 2.42187 0 1.125.78125 1.71875 1.76562 2.20313C4.3125-3.46875 4.89063-2.96875 4.89063-2c0 1-.79688 1.75-1.82813 1.75-1.625 0-1.92187-1.25-2-2.42187H.70313Zm0 0"/></defs><use xlink:href="#a" x="4.2977" y="122.32055"/><use xlink:href="#b" x="168.10919" y="122.51369"/><use xlink:href="#c" x="168.10919" y="13.09697"/><use xlink:href="#d" x="5.56103" y="12.91678"/><path fill="none" stroke="#000" stroke-miterlimit="10" stroke-width=".39672" d="M16.78125 109.38281h146.77343V17.65235H16.78125Zm0 0"/></svg>