<svg xmlns="http://www.w3.org/2000/svg" xmlns:xlink="http://www.w3.org/1999/xlink" width="779.8" height="322.863" viewBox="0 0 779.8 322.863"><defs><path id="a" d="m3.04688-2.28125.875.875 3.65625-3.6875L11.25-1.40625l.84375-.875L8.45313-5.9375l3.64062-3.67187-.84375-.85938L7.57813-6.8125l-3.65625-3.65625-.875.85938L6.71875-5.9375Zm0 0"/></defs><use xlink:href="#a" x="409.10685" y="190.05136"/><use xlink:href="#a" x="523.85416" y="132.6787"/><path fill="none" stroke="#000" stroke-miterlimit="10" stroke-width=".39833" d="m416.67969 184.8203 114.75001-57.375"/><use xlink:href="#a" x="686.25025" y="153.68878"/><use xlink:href="#a" x="756.91926" y="46.6542"/><path fill="none" stroke="#000" stroke-miterlimit="10" stroke-width=".39833" d="m693.82817 148.45702 70.66798-107.03908"/><use xlink:href="#a" x="294.36054" y="75.30505"/><use xlink:href="#a" x="581.22781" y="17.93139"/><path fill="none" stroke="#000" stroke-miterlimit="10" stroke-width=".39833" d="M301.93358 70.07029 588.8047 12.69528"/><use xlink:href="#a" x="64.89391" y="304.77068"/><use xlink:href="#a" x="7.53325" y="17.96538"/><path fill="none" stroke="#000" stroke-miterlimit="10" stroke-width=".39833" d="M72.4648 299.53907 15.1015 12.73043"/><use xlink:href="#a" x="179.61323" y="75.30505"/><use xlink:href="#a" x="236.98689" y="132.6787"/><path fill="none" stroke="#000" stroke-miterlimit="10" stroke-width=".39833" d="m187.18356 70.07029 57.375 57.375"/><use xlink:href="#a" x="203.57107" y="270.16136"/><use xlink:href="#a" x="284.38177" y="277.22936"/><path fill="none" stroke="#000" stroke-miterlimit="10" stroke-width=".39833" d="M211.1406 264.9297 291.9531 272"/><use xlink:href="#a" x="537.24947" y="255.07676"/><use xlink:href="#a" x="615.60523" y="234.08267"/><path fill="none" stroke="#000" stroke-miterlimit="10" stroke-width=".39833" d="m544.82424 249.84375 78.35548-20.99219"/><use xlink:href="#a" x="93.55375" y="247.42501"/><use xlink:href="#a" x="179.61323" y="132.6787"/><path fill="none" stroke="#000" stroke-miterlimit="10" stroke-width=".39833" d="m101.12105 242.1914 86.0625-114.7461"/><use xlink:href="#a" x="695.99012" y="247.33905"/><use xlink:href="#a" x="581.2678" y="161.29756"/><path fill="none" stroke="#000" stroke-miterlimit="10" stroke-width=".39833" d="m703.56645 242.10547-114.72267-86.03908"/><use xlink:href="#a" x="348.99736" y="315.25823"/><use xlink:href="#a" x="366.15008" y="172.88864"/><path fill="none" stroke="#000" stroke-miterlimit="10" stroke-width=".39833" d="m356.5703 310.02735 17.15235-142.37111"/></svg>