<svg xmlns="http://www.w3.org/2000/svg" xmlns:xlink="http://www.w3.org/1999/xlink" width="158.452pt" height="66.808pt" viewBox="0 0 158.452 66.808"><defs><path id="a" d="m1.6875-1.26562.48438.48437L4.1875-2.8125 6.23438-.78125l.46875-.48437-2.03125-2.01563 2.03125-2.04687-.46875-.46875L4.1875-3.76562 2.17188-5.79687l-.48438.46875 2.03125 2.04687Zm0 0"/><path id="b" d="M.25 0h3.1875l.07813-.32812-.70313-.0625c-.1875 0-.28125-.125-.28125-.29688 0-.07812.01563-.1875.03125-.28125l1.39063-6.125c.09375-.35937.20312-.5625.5-.57812l.64062-.0625.07813-.32813h-3.1875l-.09376.32813.70313.0625c.20313 0 .28125.125.28125.3125 0 .07812-.01562.15625-.03125.26562L1.4375-.96875c-.07812.375-.20312.53125-.48437.5625L.3125-.32812Zm0 0"/><path id="c" d="M-.96875 1.0625v.29688c.125.01562.26563.03124.39063.03124C-.04687 1.39063.75 1.25 1.21875.9375c.54688-.39062.95313-1.03125 1.21875-2.20312l1.375-5.875C3.89063-7.5 4-7.65625 4.29688-7.67187l.64062-.0625.09375-.32813H1.8125l-.07812.32813.6875.0625c.20312 0 .3125.10937.3125.29687q0 .09375-.04688.23438L1.42188-1.67187C1.15625-.57812.84375.15624.48438.48438.09375.84375-.39062 1-.96875 1.0625m0 0"/><path id="d" d="M1-3.28125c0 2.625.59375 5.51563 3.0625 5.60938v-.34375c-.82812-.15626-2.125-1.1875-2.125-5.26563 0-4.0625 1.23438-5.09375 2.125-5.28125v-.34375C1.59375-8.8125 1-5.92187 1-3.28125m0 0"/><path id="e" d="M1.10938.14063 2.14063 0c.32812-1.1875.51562-1.85937.76562-2.48437C3.29688-3.5 4.4375-5.25 5.40625-5.25c.25 0 .42188.14063.42188.5 0 .125-.01563.28125-.07813.48438L4.59375.14063 5.60938 0c.32812-1.1875.53125-1.875.82812-2.57812.4375-1 1.48438-2.67188 2.46875-2.67188.28125 0 .45313.1875.45313.48438 0 .09375-.01563.21875-.04688.34375L8.29688-1c-.04688.17188-.07813.32813-.07813.46875 0 .4375.25.67188.6875.67188.85938 0 1.5-.79688 1.90625-1.67188l-.28125-.17187c-.20312.40625-.73437 1.23437-1.04687 1.23437-.14063 0-.1875-.09375-.1875-.21875s.03125-.25.0625-.42187l.90625-3.0625c.0625-.25.125-.5.125-.71875 0-.5625-.29688-.96875-.98438-.96875-1.0625 0-2.09375.96875-2.9375 2.46875h-.04687l.23437-.73438c.09375-.32812.15625-.60937.15625-.85937 0-.5625-.29687-.875-.875-.875-1.0625 0-2.14062 1.01562-2.95312 2.46875h-.03125l.73437-2.40625-.0625-.0625-2.10937.32812L1.4375-5.25l.71875.0625c.17188.01563.23438.07813.23438.20313 0 .07812-.03125.20312-.07813.35937Zm0 0"/><path id="f" d="M.6875 1.98438v.34375c2.46875-.09375 3.07813-2.98438 3.07813-5.60938 0-2.64062-.60938-5.53125-3.07813-5.625v.34375c.90625.1875 2.14063 1.21875 2.14063 5.28125 0 4.07813-1.29688 5.10938-2.14063 5.26563m0 0"/><path id="g" d="M0 0h3.1875l.07813-.32812-.70313-.0625c-.1875 0-.28125-.125-.28125-.29688 0-.07812.01563-.1875.03125-.28125l.73438-3.23437h.03125c.53125 1.09375 1.10937 2.25 1.8125 3.21875.5625.76562 1.0625 1.01562 1.95312 1.03125l.57813.01562L7.5-.28125c-.67187-.0625-.9375-.375-1.35937-.89062-.78125-.98438-1.57813-2.40625-2.0625-3.4375 1.0625-.875 2.03125-1.6875 3.09375-2.42188.67187-.46875.9375-.64062 1.89062-.70312l.04688-.32813H6.20313l-.04688.32813.4375.04687c.125.01563.17188.0625.17188.125s-.0625.15625-.17188.25L3.14063-4.34375h-.04688l.60938-2.75c.09375-.35937.20312-.5625.5-.57812l.64062-.0625.07813-.32813h-3.1875l-.07813.32813.6875.0625c.20313 0 .28125.125.28125.3125 0 .07812 0 .15625-.03125.26562L1.1875-.96875c-.07812.375-.1875.53125-.48437.5625L.0625-.32812Zm0 0"/></defs><use xlink:href="#a" x="4.13669" y="59.73693"/><use xlink:href="#b" x="5.92949" y="48.92333"/><use xlink:href="#a" x="145.38021" y="24.42605"/><use xlink:href="#c" x="147.24875" y="12.22226"/><path fill="none" stroke="red" stroke-miterlimit="10" stroke-width=".39713" d="m78.9531 39.1836 1.77734 6.83594 6.85155-1.71485-1.77734-6.83202-6.85156 1.71093"/><path fill="none" stroke="#000" stroke-miterlimit="10" stroke-width=".39713" d="m8.33203 56.83984 141.24603-35.31248M83.54293 56.83984l-8.82421-35.31248"/><path fill="none" stroke="red" stroke-miterlimit="10" stroke-width=".39713" d="m41.58983 51.41797 4.08593-6.80859m66.53904-10.84374 4.08593-6.8125"/><use xlink:href="#d" x="87.9279" y="60.12758"/><use xlink:href="#e" x="92.69349" y="60.12758"/><use xlink:href="#f" x="104.27237" y="60.12758"/><path fill="none" stroke="#000" stroke-dasharray="2.9785185365 2.9785185365" stroke-miterlimit="10" stroke-width=".39713" d="m8.33203 56.83984 68.50388-26.48436 72.74215-8.82812"/><path fill="none" stroke="red" stroke-miterlimit="10" stroke-width=".39713" d="M46.2578 42.17579c-.78907-2.04297-3.08985-3.0625-5.13672-2.26953-2.04297.78906-3.0625 3.08984-2.26953 5.1328.78906 2.04688 3.08984 3.06641 5.13671 2.27344 2.04297-.78906 3.0625-3.08984 2.26953-5.13671Zm70.88668-16.71093c-.26172-2.17969-2.24219-3.73047-4.41797-3.46484-2.17968.26562-3.73046 2.24218-3.46484 4.42187.26563 2.17578 2.24219 3.72656 4.42188 3.46484 2.17578-.26562 3.72656-2.2461 3.46093-4.42187Zm0 0"/><use xlink:href="#a" x="72.63978" y="33.25352"/><use xlink:href="#g" x="81.21911" y="25.90892"/></svg>