<svg xmlns="http://www.w3.org/2000/svg" xmlns:xlink="http://www.w3.org/1999/xlink" width="310.001pt" height="70.96pt" viewBox="0 0 310.001 70.96"><defs><path id="a" d="m1.75-1.3125.51563.5 2.09375-2.125 2.125 2.125.48437-.5-2.10937-2.10937 2.10937-2.10938-.48437-.5-2.125 2.10938-2.09375-2.10938-.51563.5 2.125 2.10938Zm0 0"/><path id="b" d="M.26563 0h6.20312l.60938-2.125h-.35938C6.10938-.625 5.54688-.42187 4.1875-.42187c-1.25 0-1.51562-.125-1.51562-.5 0-.14063.03125-.3125.09375-.5625L4.10938-7.375c.10937-.40625.21875-.59375.53125-.60937l.71875-.0625.09375-.34375H2.0625l-.09375.34375.73438.0625C2.90625-7.96875 3-7.875 3-7.67187c0 .07812-.01562.17187-.04687.29687L1.5-1c-.10937.42188-.20312.54688-.5.57813l-.67187.07812Zm0 0"/><path id="c" d="M.125 0h6.32813l.625-2.125h-.35938c-.625 1.5-1.17187 1.70313-2.67187 1.70313-1.42188 0-1.5-.1875-1.5-.5 0-.14063.03125-.3125.09375-.5625L3.25-4.14062h1.59375c.90625 0 1.0625.17187 1.0625.70312 0 .10938 0 .20313-.01562.34375h.375l.5625-2.53125h-.375c-.3125.84375-.4375 1.03125-1.51563 1.03125H3.35938l.6875-3.01562c.0625-.29688.14062-.35938.34375-.35938h1.45312c1.1875 0 1.4375.29688 1.4375.95313 0 .29687-.04687.64062-.04687.64062h.375l.4375-2.01562h-6.125l-.09376.34375.73438.0625c.21875.01562.29688.09375.29688.29687 0 .07813 0 .15625-.03125.28125L1.375-1c-.09375.40625-.20312.54688-.5.57813l-.6875.07812Zm0 0"/><path id="d" d="M.39063-3.28125c0 2 1.14062 3.46875 3.5625 3.46875 2.14062 0 3.1875-1.10937 3.85937-2.29687.65625-1.1875.76563-2.4375.76563-2.90625 0-2.5-1.5-3.5625-3.5-3.5625-1.9375 0-3.14063 1.0625-3.85938 2.23437C.5625-5.23437.39063-4.07812.39063-3.28125m1.28125.5c0-1.03125.1875-2.15625.73437-3.34375.5625-1.14062 1.42188-2.03125 2.71875-2.03125 1.32813 0 2.1875.78125 2.1875 2.5 0 .70313-.07812 1.6875-.57812 2.98438S5.40625-.25 3.82813-.25c-1.3125 0-2.15625-.84375-2.15625-2.53125m0 0"/><clipPath id="e"><path d="M0 3h309.0039v67.82422H0Zm0 0"/></clipPath></defs><use xlink:href="#a" x="39.92135" y="64.82443"/><use xlink:href="#b" x="40.64402" y="57.24885"/><use xlink:href="#a" x="223.61738" y="28.08583"/><use xlink:href="#c" x="223.8885" y="20.51024"/><use xlink:href="#a" x="260.35698" y="20.73751"/><use xlink:href="#d" x="260.23438" y="12.9815"/><g clip-path="url(#e)"><path fill="none" stroke="#000" stroke-miterlimit="10" stroke-width=".39722" d="M308.80865 8.90623.19921 70.6289"/></g><path fill="none" stroke="red" stroke-miterlimit="10" stroke-width=".39722" d="M44.28516 61.80858 227.98442 25.0703"/></svg>