<svg xmlns="http://www.w3.org/2000/svg" xmlns:xlink="http://www.w3.org/1999/xlink" width="164.819pt" height="66.645pt" viewBox="0 0 164.819 66.645"><defs><path id="a" d="m1.75-1.3125.5.5 2.10938-2.10937L6.46875-.8125l.48438-.5-2.09375-2.09375 2.09375-2.10937-.48438-.5-2.10937 2.10937L2.25-6.01562l-.5.5 2.10938 2.10937Zm0 0"/><path id="b" d="M.25 0h3.3125l.07813-.34375-.71875-.0625c-.20313 0-.29688-.125-.29688-.3125 0-.07812.01563-.1875.04688-.28125l1.4375-6.35937c.09375-.375.20312-.57813.51562-.60938l.67188-.04687L5.375-8.375H2.0625l-.09375.35938.71875.04687c.20313.01563.29688.14063.29688.32813 0 .07812-.01563.17187-.03125.28125L1.5-1c-.09375.375-.21875.54688-.51562.57813l-.65625.07812Zm0 0"/><path id="c" d="M-1 1.10938v.3125c.125 0 .26563.01562.39063.01562.5625 0 1.375-.14062 1.875-.46875C1.82813.5625 2.25-.10937 2.53125-1.3125l1.42188-6.09375c.09375-.375.1875-.53125.5-.5625l.67187-.04687.09375-.35938H1.875l-.07812.35938.71875.04687c.21875.01563.3125.10938.3125.32813 0 .0625-.01563.14062-.03125.23437L1.46875-1.73437C1.20313-.60937.875.15624.5.5c-.40625.375-.90625.54688-1.5.60938m0 0"/></defs><use xlink:href="#a" x="4.64075" y="61.99775"/><use xlink:href="#b" x="6.50184" y="50.77255"/><use xlink:href="#a" x="151.28959" y="25.33604"/><use xlink:href="#c" x="153.22827" y="12.66752"/></svg>