<svg xmlns="http://www.w3.org/2000/svg" xmlns:xlink="http://www.w3.org/1999/xlink" width="237.348pt" height="217.248pt" viewBox="0 0 237.348 217.248"><defs><path id="a" d="m3.03125-2.28125.875.875 3.64063-3.67187 3.67187 3.67187.84375-.875-3.64062-3.64062 3.64062-3.65625-.84375-.85938-3.67187 3.64063-3.64063-3.64063-.875.85938 3.67188 3.65625Zm0 0"/><path id="b" d="M.67188-5.67187C.67188-2.21875 2.65625.3125 6.84375.3125c3.70313 0 5.51563-1.90625 6.67188-3.98437 1.14062-2.04688 1.34375-4.1875 1.34375-5.01563 0-4.3125-2.60938-6.17187-6.07813-6.17187C5.42188-14.85937 3.34375-13 2.125-11 .95313-9.04687.67188-7.0625.67188-5.67187m2.20312.84375c0-1.76563.34375-3.73438 1.29688-5.76563C5.14063-12.57812 6.64063-14.125 8.875-14.125c2.29688 0 3.76563 1.35938 3.76563 4.34375 0 1.20313-.10938 2.92188-.98438 5.15625-.85937 2.25-2.29687 4.20313-5.01562 4.20313-2.28125 0-3.76563-1.48438-3.76563-4.40625m0 0"/><path id="d" d="M.6875-10.48437c0 1.84375 1.84375 3.29687 6.03125 3.29687-.6875 1.21875-1.20312 2.5-1.20312 3.875C5.51563-1 6.96875.25 9.60938.25c2.5625 0 5.25-1.85937 5.25-4.25 0-1.42187-1.1875-2.21875-2.6875-2.21875-1.64063 0-3.59375 1.85938-3.59375 3.34375 0 .4375.34375 1.28125.96875 1.28125.17187 0 .42187-.125.42187-.32812 0-.26563-.5-.29688-.5-.9375 0-1.03125 1.5-2.6875 2.70313-2.6875.85937 0 1.375.34375 1.375 1.17187 0 1.84375-1.79688 3.95313-3.9375 3.95313-1.51563 0-2.29688-.82813-2.29688-2.21875 0-1.5625 1.09375-3.39063 1.92188-4.73438 4.65625-.71875 9.25-3.01562 9.25-5.9375 0-1.125-.90626-1.85937-2.10938-1.85937-2.76562 0-6.95312 3.54687-9.25 7.23437C5.23438-7.95312 2.14063-8 2.14063-10.23437c0-2.04688 2.5-3.64063 4.07812-3.64063.28125 0 .4375-.17187.4375-.35937 0-.17188-.15625-.3125-.32812-.3125-2.34375 0-5.64063 1.59375-5.64063 4.0625m8.96875 2.28125C11.1875-10.90625 14.45313-14.5 16.375-14.5c.73438 0 1.25.42188 1.25 1.10938 0 2.35937-3.6875 4.5-7.96875 5.1875m0 0"/><clipPath id="c"><path d="M.08594 0H223v216.5H.08594Zm0 0"/></clipPath></defs><use xlink:href="#a" x="100.78393" y="113.46524"/><use xlink:href="#b" x="84.91685" y="100.0447"/><g clip-path="url(#c)"><path fill="none" stroke="#000" stroke-miterlimit="10" stroke-width=".39713" d="M216.38667 108.25c0-59.67575-48.37498-108.05464-108.05464-108.05464C48.65628.19536.2813 48.57425.2813 108.25s48.37498 108.05073 108.05073 108.05073c59.67966 0 108.05464-48.37498 108.05464-108.05073Zm0 0"/></g><use xlink:href="#d" x="209.80156" y="46.08647"/></svg>