<svg xmlns="http://www.w3.org/2000/svg" xmlns:xlink="http://www.w3.org/1999/xlink" width="210.999pt" height="193.154pt" viewBox="0 0 210.999 193.154"><defs><path id="a" d="m2.70313-2.03125.76562.78125L6.70313-4.5l3.26562 3.25.75-.78125-3.23437-3.23437 3.23437-3.25-.75-.75-3.26562 3.23437-3.23438-3.23437-.76562.75 3.25 3.25Zm0 0"/><path id="b" d="M.59375-5.04687c0 3.07812 1.76563 5.32812 5.48438 5.32812C9.35938.28125 10.96875-1.40625 12-3.25c1.01563-1.82812 1.20313-3.73437 1.20313-4.46875 0-3.82812-2.32813-5.48437-5.40625-5.48437-2.96875 0-4.8125 1.65625-5.90625 3.4375C.85938-8.03125.59375-6.26562.59375-5.04687m1.96875.76562c0-1.57812.29688-3.3125 1.14063-5.125.85937-1.76562 2.1875-3.14062 4.17187-3.14062 2.04688 0 3.35938 1.21875 3.35938 3.85937 0 1.0625-.10938 2.59375-.875 4.57813-.78125 2-2.04688 3.73437-4.46875 3.73437C3.875-.375 2.5625-1.6875 2.5625-4.28125m0 0"/><path id="d" d="M.60938-9.3125c0 1.64063 1.64062 2.92188 5.35937 2.92188-.60937 1.09375-1.0625 2.21875-1.0625 3.45312 0 2.04688 1.28125 3.15625 3.625 3.15625 2.28125 0 4.67188-1.64062 4.67188-3.76562 0-1.28125-1.0625-1.96875-2.39063-1.96875-1.46875 0-3.1875 1.64062-3.1875 2.95312 0 .40625.29688 1.15625.84375 1.15625.15625 0 .375-.125.375-.29687 0-.23438-.4375-.26563-.4375-.84375 0-.90625 1.34375-2.375 2.40625-2.375.75 0 1.21875.29687 1.21875 1.03125 0 1.64062-1.59375 3.51562-3.5 3.51562-1.34375 0-2.04687-.73437-2.04687-1.96875 0-1.39062.98437-3.01562 1.71875-4.20312 4.14062-.64063 8.20312-2.6875 8.20312-5.28125 0-.98438-.79687-1.64063-1.85937-1.64063-2.46875 0-6.17188 3.15625-8.21875 6.42188-1.6875-.01563-4.42188-.0625-4.42188-2.04688 0-1.82812 2.21875-3.23437 3.60938-3.23437.26562 0 .39062-.15625.39062-.3125s-.125-.28125-.29687-.28125c-2.07813 0-5 1.40625-5 3.60937m7.96875 2.03125C9.9375-9.6875 12.84375-12.875 14.54688-12.875c.65625 0 1.10937.375 1.10937.98438 0 2.09375-3.28125 4-7.07812 4.60937m0 0"/><path id="e" d="M1.82813 0h5.51562v-.48437l-1.42187-.125c-.34375-.03126-.54688-.15626-.54688-.8125v-9.90625l-.09375-.07813-3.45312.57813v.42187l1.5625.1875c.28125.03125.39062.15625.39062.64063v8.15625c0 .65625-.15625.78125-.54687.8125l-1.40625.125Zm0 0"/><path id="f" d="m.85938 2.04688.3125.32812c.84375-.78125 2.0625-1.90625 2.0625-3.23437 0-.89063-.48438-1.51563-1.125-1.51563-.51563 0-.84375.40625-.84375.84375 0 .60938.5625.92188.5625 1.64063 0 .6875-.4375 1.35937-.96875 1.9375m0 0"/><path id="g" d="M.70313-8.85937h.4375l.15624-.35938C1.51564-9.6875 1.75-9.9375 2.5-9.9375h4.53125c-.15625.60938-.48437 1.57813-1.82812 3.53125C3.75-4.34375 2.79688-2.46875 2.79688-.48437c0 .5625.40625.6875.92187.6875.45313 0 .79688-.10938.79688-.65625 0-2.5625.45312-4.125 1.26562-5.54688C6.85938-7.875 7.75-8.9375 8.34375-11.03125l-.14062-.1875H1.21875Zm0 0"/><path id="h" d="M.82813-4.03125c0 2.79688 1.375 4.23438 3.89062 4.23438 1.17188 0 2.76563-.60938 3.23438-2.42188l-.5-.23437c-.53125 1.1875-1.1875 1.78125-2.42188 1.78125-2 0-2.45312-2.09375-2.45312-3.67188 0-2.5.96875-3.5 2.14062-3.5.76563 0 1.25.5625 1.57813 1.46875.10937.26563.21875.42188.54687.42188.32813 0 .98438-.20313.98438-.84375 0-.78125-1.10938-1.625-2.9375-1.625-3.04688 0-4.0625 2.15625-4.0625 4.39062m0 0"/><path id="i" d="M.53125 0H4.625v-.48437c-1.20312-.09375-1.25-.125-1.25-.98438v-3.92187c0-.4375 0-.65625.125-.89063.32813-.6875 1.04688-1.23437 1.98438-1.23437 1.4375 0 1.625 1.04687 1.625 2.09375v3.95312c0 .85938-.0625.89063-1.26563.98438V0H9.9375v-.48437c-1.20312-.09375-1.25-.125-1.25-.98438v-3.92187c0-.4375.01563-.64063.125-.90625.25-.6875.95313-1.21875 1.90625-1.21875 1.04688 0 1.6875.59375 1.6875 2.09375v3.95312c0 .85938-.04687.89063-1.26562.98438V0H15.25v-.48437c-1.1875-.09375-1.26562-.125-1.26562-.98438V-5.75c0-1.70312-.90625-2.67187-2.5-2.67187-1.375 0-2.35938.90625-2.95313 1.28125-.40625-.78125-1.04687-1.28125-2.23437-1.28125-1.28125 0-2.32813.84375-2.92188 1.28125l-.15625-1.28125L.625-8v.40625L1.25-7.5c.42188.07813.54688.14063.54688.75v5.28125c0 .85938-.04688.89063-1.26563.98438Zm0 0"/><clipPath id="c"><path d="M.46094 0H199v192.3125H.46094Zm0 0"/></clipPath></defs><use xlink:href="#a" x="89.90978" y="100.78855"/><use xlink:href="#b" x="75.8185" y="88.86976"/><g clip-path="url(#c)"><path fill="none" stroke="#000" stroke-miterlimit="10" stroke-width=".39676" d="M192.5742 96.15625c0-52.99608-42.96093-95.96092-95.95701-95.96092-53 0-95.96092 42.96484-95.96092 95.96092s42.96093 95.95701 95.96092 95.95701c52.99608 0 95.95701-42.96093 95.95701-95.95701Zm0 0"/></g><use xlink:href="#d" x="186.72573" y="40.95064"/><path fill="none" stroke="#000" stroke-dasharray="2.9757987012 2.9757987012" stroke-miterlimit="10" stroke-width=".39676" d="M96.61719 96.15625h95.95701"/><use xlink:href="#e" x="118.70367" y="114.57417"/><use xlink:href="#f" x="127.59524" y="114.57417"/><use xlink:href="#g" x="134.02288" y="114.57417"/><use xlink:href="#h" x="146.68511" y="114.57417"/><use xlink:href="#i" x="155.00533" y="114.57417"/></svg>