<svg xmlns="http://www.w3.org/2000/svg" xmlns:xlink="http://www.w3.org/1999/xlink" width="285.186pt" height="115.328pt" viewBox="0 0 285.186 115.328"><defs><path id="a" d="m3.03125-2.26562.875.85937 3.625-3.65625 3.65625 3.65625.84375-.85937-3.625-3.64063 3.625-3.65625-.84375-.84375-3.65625 3.625-3.625-3.625-.875.84375L6.6875-5.90625Zm0 0"/><path id="b" d="M.45313 0h5.71875l.14062-.60937-1.25-.07813c-.35937-.03125-.51562-.21875-.51562-.5625 0-.125.01562-.3125.0625-.48437l2.5-11.01563c.15625-.64062.35937-1 .89062-1.04687l1.15625-.07813.14063-.60937H3.5625l-.15625.60937 1.25.07813c.35938.03125.51563.25.51563.57812 0 .14063-.03125.29688-.0625.46875L2.57813-1.73437c-.15625.67187-.34375.95312-.85938 1l-1.15625.125Zm0 0"/><path id="c" d="M-1.73437 1.92188v.53125c.21874.01562.46875.04687.6875.04687.95312 0 2.39062-.25 3.23437-.82812.96875-.6875 1.71875-1.84375 2.20313-3.9375L6.84375-12.8125c.15625-.64062.32813-.9375.85938-.98437L8.875-13.875l.15625-.60937H3.25l-.125.60937 1.21875.07813c.375.03125.5625.20312.5625.5625 0 .10937-.03125.25-.07812.42187L2.54688-3.01562C2.07813-1.04687 1.51563.26563.875.875c-.71875.64063-1.5625.9375-2.60937 1.04688m0 0"/></defs><use xlink:href="#a" x="7.84913" y="107.23217"/><use xlink:href="#b" x="11.06937" y="87.81332"/><use xlink:href="#a" x="261.46236" y="43.82862"/><use xlink:href="#c" x="264.81583" y="21.91431"/></svg>