<svg xmlns="http://www.w3.org/2000/svg" xmlns:xlink="http://www.w3.org/1999/xlink" width="183.27pt" height="127.517pt" viewBox="0 0 183.27 127.517"><defs><path id="a" d="M0 0h3.67188c2.9375 0 3.53125-1.51562 3.53125-2.51562 0-1.28125-.9375-1.82813-1.82813-2v-.03125C7-4.73437 7.67188-5.65625 7.67188-6.5625c0-.98437-.57813-1.82812-2.8125-1.82812h-3.0625l-.07813.34375.71875.07812c.20313 0 .29688.09375.29688.29688 0 .0625-.03125.17187-.04688.29687L1.25-1c-.09375.39063-.20312.53125-.5.57813l-.6875.07812Zm2.42188-.92187q0-.14063.04687-.28126l.6875-3.10937h.48438c1.20312 0 2.25.34375 2.25 1.73438 0 1.07812-.65625 2.15625-2.28125 2.15625-.95313 0-1.1875-.20313-1.1875-.5M3.25-4.73437l.64063-2.8125c.07812-.35938.15625-.42188.96875-.42188 1.01562 0 1.57812.51563 1.57812 1.35938 0 1.26562-1.0625 1.875-2.39062 1.875Zm0 0"/><path id="b" d="M.39063-3.28125c0 2 1.14062 3.46875 3.5625 3.46875 2.14062 0 3.1875-1.10937 3.85937-2.29687.65625-1.1875.76563-2.4375.76563-2.90625 0-2.5-1.5-3.5625-3.5-3.5625-1.9375 0-3.14063 1.0625-3.85938 2.23437C.5625-5.23437.39063-4.07812.39063-3.28125m1.28125.5c0-1.03125.1875-2.15625.73437-3.34375.5625-1.14062 1.42188-2.03125 2.71875-2.03125 1.32813 0 2.1875.78125 2.1875 2.5 0 .70313-.07812 1.6875-.57812 2.98438S5.40625-.25 3.82813-.25c-1.3125 0-2.15625-.84375-2.15625-2.53125m0 0"/><path id="c" d="M.78125-8.04687c.75.07812.85938.07812 1 .5625L2.96875-3.625c.03125.10938.0625.1875.0625.29688 0 .09375-.03125.20312-.0625.34375L2.51563-.9375c-.07813.32813-.1875.45313-.5.5l-.875.09375L1.07813 0h3.75l.07812-.34375-.9375-.07812C3.75-.4375 3.67188-.53125 3.67188-.70312c0-.07813 0-.15626.03125-.23438L4.15625-3c.09375-.3125.23438-.5625.34375-.73437.92188-1.34375 2.14063-2.95313 2.79688-3.6875.4375-.48438.57812-.5625 1.26562-.625l.07813-.34375H5.85938l-.07813.34375.5.04687c.26563.03125.375.04688.375.20313 0 .20312-1.65625 2.57812-2.60937 3.89062H4S2.89063-7.59375 2.89063-7.75s.0625-.21875.25-.23437l.65625-.0625.07812-.34375H.85938Zm0 0"/><path id="d" d="M.39063-.8125c.46875.625 1.64062 1 2.53125 1C5.26563.15625 5.98438-1.20312 5.98438-2.5c0-1.09375-.59375-1.78125-1.8125-2.42187-.71875-.35938-1.5625-.76563-1.5625-1.6875 0-.85938.625-1.54688 1.6875-1.54688 1.23437 0 1.45312.5625 1.45312 1.89063h.375l.42188-1.70313C6.03125-8.375 5.125-8.57812 4.375-8.57812c-2.10937 0-2.78125 1.39062-2.78125 2.40625 0 1.14062.76563 1.73437 1.75 2.20312.96875.5 1.5625 1 1.5625 1.96875 0 1-.8125 1.75-1.82812 1.75-1.625 0-1.9375-1.25-2.01563-2.42187H.70313Zm0 0"/></defs><use xlink:href="#a" x="4.29987" y="122.35012"/><use xlink:href="#b" x="168.73589" y="122.54335"/><use xlink:href="#c" x="168.73589" y="13.0714"/><use xlink:href="#d" x="5.43435" y="12.89111"/><path fill="none" stroke="red" stroke-miterlimit="10" stroke-width=".39692" d="M156.8399 109.40625v-7.33985h7.33984m0-77.09768h-7.33984v-7.33985m-132.16802 0v7.33985h-7.33985m0 77.09768h7.33985v7.33985"/><path fill="none" stroke="#000" stroke-miterlimit="10" stroke-width=".39692" d="M17.33203 109.40625h146.84771V17.62887H17.33204Zm0 0"/><path fill="none" stroke="red" stroke-miterlimit="10" stroke-width=".39692" d="m90.49222 112.38281.49609-5.95312m76.14065-42.65627-5.95703-.4961M90.98831 14.66793l-.4961 5.95703M14.35547 63.27732l5.95312.4961"/></svg>