<svg xmlns="http://www.w3.org/2000/svg" xmlns:xlink="http://www.w3.org/1999/xlink" width="280.235pt" height="196.152pt" viewBox="0 0 280.235 196.152"><defs><path id="a" d="M0 0h5.65625c4.5 0 5.42188-2.32812 5.42188-3.875 0-1.95312-1.45313-2.8125-2.82813-3.07812l.03125-.03125C10.75-7.28125 11.8125-8.6875 11.8125-10.09375c0-1.51562-.89062-2.8125-4.32812-2.8125H2.76563l-.125.54688 1.10937.09375c.3125.01562.45313.15625.45313.45312 0 .125-.03125.28125-.07813.46875L1.92188-1.54687c-.14063.60937-.3125.82812-.76563.89062l-1.0625.125Zm3.73438-1.42187c0-.14063.01562-.28126.0625-.42188L4.85938-6.625h.73437c1.84375 0 3.46875.53125 3.46875 2.65625 0 1.67188-1 3.3125-3.5 3.3125-1.46875 0-1.82812-.29687-1.82812-.76562M5-7.28125l.96875-4.32812c.14063-.5625.25-.65625 1.5-.65625 1.5625 0 2.4375.79687 2.4375 2.10937 0 1.9375-1.625 2.875-3.6875 2.875Zm0 0"/><path id="b" d="M.59375-5.04687c0 3.07812 1.76563 5.32812 5.48438 5.32812C9.35938.28125 10.96875-1.40625 12-3.25c1.01563-1.82812 1.20313-3.73437 1.20313-4.46875 0-3.82812-2.32813-5.48437-5.40625-5.48437-2.96875 0-4.8125 1.65625-5.90625 3.4375C.85938-8.03125.59375-6.26562.59375-5.04687m1.96875.76562c0-1.57812.29688-3.3125 1.14063-5.125.85937-1.76562 2.1875-3.14062 4.17187-3.14062 2.04688 0 3.35938 1.21875 3.35938 3.85937 0 1.0625-.10938 2.59375-.875 4.57813-.78125 2-2.04688 3.73437-4.46875 3.73437C3.875-.375 2.5625-1.6875 2.5625-4.28125m0 0"/><path id="c" d="M1.1875-12.35937c1.17188.09375 1.32813.10937 1.54688.84375l1.82812 5.9375c.0625.15625.09375.29687.09375.45312s-.04687.32813-.09375.54688l-.6875 3.125c-.125.51562-.29687.71875-.78125.78125L1.75-.53125 1.64063 0h5.78125l.125-.53125-1.4375-.125c-.32813-.01562-.45313-.15625-.45313-.4375 0-.09375 0-.21875.03125-.35937l.70313-3.15625c.14062-.48438.35937-.875.53125-1.125 1.40625-2.0625 3.28125-4.54688 4.29687-5.67188.67188-.76562.89063-.875 1.95313-.95312l.10937-.54688H9.01563l-.125.54688.76562.0625c.40625.03125.57813.07812.57813.3125 0 .3125-2.5625 3.96875-4.01563 5.96875h-.0625S4.4375-11.67187 4.4375-11.92187c0-.21875.10938-.32813.39063-.35938l1-.07812.125-.54688H1.3125Zm0 0"/><path id="d" d="M.59375-1.25C1.32813-.28125 3.10938.28125 4.48438.28125c3.60937-.04687 4.71875-2.125 4.71875-4.125 0-1.6875-.90625-2.75-2.79688-3.71875C5.3125-8.10937 4.01563-8.75 4.01563-10.15625c0-1.32812.96875-2.39062 2.59375-2.39062 1.89062 0 2.23437.875 2.23437 2.92187h.5625l.65625-2.625c-.79687-.625-2.1875-.95312-3.32812-.95312-3.26563 0-4.29688 2.15625-4.29688 3.71875 0 1.75 1.1875 2.65625 2.70313 3.39062 1.48437.75 2.40625 1.53125 2.40625 3.01563 0 1.54687-1.25 2.70312-2.82813 2.70312-2.5 0-2.96875-1.92187-3.09375-3.73437h-.54687Zm0 0"/></defs><use xlink:href="#a" x="6.8347" y="188.11972"/><use xlink:href="#b" x="258.8502" y="188.41744"/><use xlink:href="#c" x="258.8502" y="20.08318"/><use xlink:href="#d" x="8.7793" y="19.80538"/><path fill="none" stroke="#000" stroke-miterlimit="10" stroke-width=".39678" d="M26.04688 168.21484h225.79677V27.08991H26.04688Zm0 0"/></svg>