<svg xmlns="http://www.w3.org/2000/svg" xmlns:xlink="http://www.w3.org/1999/xlink" width="450.619pt" height="186.62pt" viewBox="0 0 450.619 186.62"><defs><path id="a" d="m1.75-1.3125.51563.5L4.375-2.9375l2.10938 2.125.5-.5L4.875-3.42187l2.10938-2.125-.5-.48438L4.375-3.92187 2.26563-6.03125 1.75-5.54687l2.125 2.125Zm0 0"/></defs><use xlink:href="#a" x="236.28016" y="109.65871"/><use xlink:href="#a" x="302.49034" y="76.55412"/><path fill="none" stroke="#000" stroke-miterlimit="10" stroke-width=".39769" d="m240.64844 106.64062 66.21094-33.10547"/><path fill="none" stroke="red" stroke-miterlimit="10" stroke-width=".39769" d="m274.85547 92.8789-2.22265-5.5586"/><use xlink:href="#a" x="396.14165" y="88.67843"/><use xlink:href="#a" x="436.9256" y="26.90721"/><path fill="none" stroke="#000" stroke-miterlimit="10" stroke-width=".39769" d="m400.51173 85.66015 40.78516-61.77344"/><path fill="none" stroke="red" stroke-miterlimit="10" stroke-width=".39769" d="m423.25392 56.63671-4.70312-3.69922"/><use xlink:href="#a" x="170.07098" y="43.44853"/><use xlink:href="#a" x="335.59493" y="10.34394"/><path fill="none" stroke="#000" stroke-miterlimit="10" stroke-width=".39769" d="M174.4375 40.42968 339.96484 7.3242"/><path fill="none" stroke="red" stroke-miterlimit="10" stroke-width=".39769" d="m256.5586 27.0742-.6797-5.94921m2.62891 5.55859-.67968-5.9453"/><use xlink:href="#a" x="37.67856" y="175.87189"/><use xlink:href="#a" x="4.57596" y="10.35691"/><path fill="none" stroke="#000" stroke-miterlimit="10" stroke-width=".39769" d="M42.04686 172.85547 8.94139 7.33593"/><path fill="none" stroke="red" stroke-miterlimit="10" stroke-width=".39769" d="m28.68358 90.73828-5.94532.67968m5.55469-2.63281-5.94531.6836"/><use xlink:href="#a" x="103.8608" y="43.44853"/><use xlink:href="#a" x="136.96539" y="76.55412"/><path fill="none" stroke="#000" stroke-miterlimit="10" stroke-width=".39769" d="m108.22655 40.42968 33.10547 33.10547"/><path fill="none" stroke="red" stroke-miterlimit="10" stroke-width=".39769" d="m121.11718 57.53124 4.57031-3.86718m-3.16406 5.27344 4.57031-3.8672m-3.16406 5.26954 4.57031-3.86329"/><use xlink:href="#a" x="117.64772" y="155.88159"/><use xlink:href="#a" x="164.28276" y="159.96128"/><path fill="none" stroke="#000" stroke-miterlimit="10" stroke-width=".39769" d="m122.01562 152.86328 46.63672 4.07813"/><path fill="none" stroke="red" stroke-miterlimit="10" stroke-width=".39769" d="m142.86327 157.67969 1.01563-5.90235m.96484 6.07422 1.01563-5.89843m.96484 6.07031 1.01563-5.89844"/><use xlink:href="#a" x="310.13079" y="147.20825"/><use xlink:href="#a" x="355.34971" y="135.09192"/><path fill="none" stroke="#000" stroke-miterlimit="10" stroke-width=".39769" d="m314.5 144.1914 45.21876-12.11718"/><path fill="none" stroke="red" stroke-miterlimit="10" stroke-width=".39769" d="m335.7422 141.58203-1.0625-5.89062m2.98437 5.37499-1.0664-5.89062m2.98437 5.37891-1.0625-5.89453"/><use xlink:href="#a" x="54.20391" y="142.7633"/><use xlink:href="#a" x="103.8608" y="76.55412"/><path fill="none" stroke="#000" stroke-miterlimit="10" stroke-width=".39769" d="m58.5703 139.7461 49.65625-66.21095"/><path fill="none" stroke="red" stroke-miterlimit="10" stroke-width=".39769" d="M84.77342 104.86328c-.98828-.74219-2.39062-.53906-3.1328.44922-.73829.98828-.53907 2.39062.44921 3.1328.98828.7383 2.39063.53907 3.13281-.4492.73828-.9883.53907-2.39063-.44922-3.13282Zm0 0"/><use xlink:href="#a" x="401.76719" y="142.79424"/><use xlink:href="#a" x="335.561" y="93.13935"/><path fill="none" stroke="#000" stroke-miterlimit="10" stroke-width=".39769" d="M406.14064 139.77734 339.9336 90.1211"/><path fill="none" stroke="red" stroke-miterlimit="10" stroke-width=".39769" d="M371.25782 113.58203c-.74218.98828-.54296 2.39062.44532 3.13281s2.39062.53906 3.1328-.44922c.7422-.98828.54298-2.39062-.4453-3.1289-.98828-.7422-2.39063-.54297-3.13282.4453Zm0 0"/><use xlink:href="#a" x="201.53491" y="181.93255"/><use xlink:href="#a" x="211.43375" y="99.76985"/><path fill="none" stroke="#000" stroke-miterlimit="10" stroke-width=".39769" d="M205.90234 178.91407 215.80078 96.75"/><path fill="none" stroke="red" stroke-miterlimit="10" stroke-width=".39769" d="M211.14453 135.60547c-1.22656-.14844-2.33985.72656-2.48828 1.95312-.14844 1.22657.72656 2.34375 1.95312 2.48829 1.22656.14843 2.34375-.72657 2.48828-1.95313.14844-1.22656-.72656-2.33984-1.95312-2.48828Zm0 0"/></svg>