<svg xmlns="http://www.w3.org/2000/svg" xmlns:xlink="http://www.w3.org/1999/xlink" width="137.219pt" height="125.69pt" viewBox="0 0 137.219 125.69"><defs><path id="a" d="m1.75-1.3125.5.5 2.10938-2.10937L6.46875-.8125l.48438-.5-2.09375-2.09375 2.09375-2.10937-.48438-.5-2.10937 2.10937L2.25-6.01562l-.5.5 2.10938 2.10937Zm0 0"/><path id="b" d="M.39063-3.26562C.39063-1.28125 1.53125.1875 3.9375.1875c2.14063 0 3.1875-1.10937 3.85938-2.29687.65625-1.1875.76562-2.42188.76562-2.90625 0-2.48438-1.5-3.54688-3.5-3.54688-1.9375 0-3.125 1.0625-3.84375 2.23438C.54688-5.21875.39063-4.0625.39063-3.26562m1.26562.48437c0-1.01562.20313-2.15625.75-3.32812.5625-1.14063 1.42188-2.03125 2.70313-2.03125 1.32812 0 2.17187.78125 2.17187 2.5 0 .70312-.0625 1.6875-.5625 2.96875C6.21875-1.35937 5.39063-.25 3.82813-.25c-1.3125 0-2.17188-.84375-2.17188-2.53125m0 0"/><path id="d" d="M.40625-6.03125c0 1.04688 1.04688 1.89063 3.46875 1.89063-.40625.70312-.6875 1.4375-.6875 2.23437 0 1.32813.82813 2.04688 2.34375 2.04688 1.48438 0 3.03125-1.0625 3.03125-2.4375 0-.82813-.6875-1.28125-1.54687-1.28125-.95313 0-2.07813 1.0625-2.07813 1.92187 0 .25.20313.73438.5625.73438.09375 0 .25-.0625.25-.1875 0-.15626-.29687-.17188-.29687-.53125 0-.59375.875-1.54688 1.5625-1.54688.48437 0 .78125.1875.78125.65625C7.79688-1.45312 6.76563-.25 5.53125-.25c-.875 0-1.32812-.46875-1.32812-1.26562 0-.90625.64062-1.95313 1.10937-2.73438 2.70313-.40625 5.32813-1.73437 5.32813-3.42187 0-.64063-.51563-1.0625-1.20313-1.0625-1.59375 0-4 2.04687-5.32812 4.15625-1.09375 0-2.875-.03125-2.875-1.3125C1.23438-7.07812 2.67188-8 3.57813-8c.17187 0 .26562-.09375.26562-.20312 0-.09375-.09375-.17188-.20312-.17188-1.34375 0-3.23438.90625-3.23438 2.34375m5.15625 1.3125c.89063-1.5625 2.76563-3.64062 3.875-3.64062.42188 0 .71875.25.71875.64062 0 1.35938-2.125 2.59375-4.59375 3m0 0"/><clipPath id="c"><path d="M0 .20313h131v124.97656H0Zm0 0"/></clipPath></defs><use xlink:href="#a" x="58.13611" y="65.69776"/><use xlink:href="#b" x="48.98917" y="57.9608"/><g clip-path="url(#c)"><path fill="none" stroke="#000" stroke-miterlimit="10" stroke-width=".39624" d="M124.78128 62.6914c0-34.40235-27.88673-62.29299-62.293-62.29299C28.08592.39841.1992 28.28905.1992 62.69141c0 34.40235 27.88673 62.293 62.2891 62.293 34.40626 0 62.29299-27.89065 62.29299-62.293Zm0 0"/></g><use xlink:href="#d" x="120.9844" y="26.85385"/></svg>