<svg xmlns="http://www.w3.org/2000/svg" xmlns:xlink="http://www.w3.org/1999/xlink" width="323.845pt" height="255.489pt" viewBox="0 0 323.845 255.489"><defs><path id="a" d="m3.04688-2.28125.875.875L7.5625-5.07812l3.67188 3.67187.84375-.875L8.4375-5.92187l3.64063-3.67188-.84375-.85937L7.5625-6.79687l-3.64062-3.65625-.875.85937 3.67187 3.67188Zm0 0"/><path id="b" d="M0 0h4.96875l.10938-.60937L4.25-.67187c-.625-.04688-.95312-.20313-.95312-.64063 0-1.125.1875-1.75.4375-2.875L5.65625-12.75h.04688L8.23438-.25h.57812L17-12.75h.04688l-2.5625 11c-.1875.71875-.39063.96875-.90625 1.01563l-1.14063.125L12.3125 0h5.71875l.10938-.60937-1.21876-.125c-.39062-.03126-.54687-.20313-.54687-.54688 0-.125.03125-.28125.07813-.46875l2.51562-11.04687c.1875-.71875.34375-1.01563.875-1.04688l1.17188-.09375.15624-.60937h-4.125c-1.10937 1.92187-2.375 3.8125-3.64062 5.75L9.6875-3.10937H9.625L8.4375-8.95312c-.42187-1.90625-.85937-3.71875-1.20312-5.59375H3.15625l-.14062.60937 1.23437.10938c.35938.01562.53125.20312.53125.5625 0 .125-.01562.28125-.0625.46875L2.73438-4.1875c-.25 1.125-.5 1.92188-.75 2.625-.23438.67188-.625.82813-1.21875.89063l-.65625.0625Zm0 0"/><path id="c" d="M0 0h4.96875l.10938-.60937L4.25-.67187c-.625-.04688-.95312-.17188-.95312-.625 0-1.125.1875-1.76563.4375-2.89063l1.96875-8.60937h.0625C7.73438-8.53125 9.6875-4.28125 11.60938 0h1.375l2.34375-10.35937c.25-1.125.48437-1.92188.73437-2.625.25-.67188.625-.82813 1.25-.89063l.65625-.0625.10938-.60937h-4.96876L13-13.9375l.82813.09375c.625.0625.98437.26563.98437.73438 0 .76562-.21875 1.625-.46875 2.75L12.625-2.75h-.09375c-1.8125-3.9375-3.60937-7.85937-5.375-11.79687h-4l-.14062.60937 1.23437.10938c.35938.01562.53125.20312.53125.5625 0 .125-.01562.28125-.0625.46875L2.73438-4.1875c-.25 1.125-.5 1.92188-.75 2.625-.23438.67188-.59375.82813-1.21875.89063l-.65625.0625Zm0 0"/><clipPath id="d"><path d="M163 0h1v254.98047h-1Zm0 0"/></clipPath></defs><use xlink:href="#a" x="28.53628" y="132.71256"/><use xlink:href="#b" x="7.70195" y="119.58582"/><use xlink:href="#a" x="283.1181" y="132.71256"/><use xlink:href="#c" x="298.58317" y="119.58582"/><path fill="none" stroke="red" stroke-miterlimit="10" stroke-width=".3977" d="M163.39064 127.48828v-12.73047h12.73047v12.73047h-12.73047"/><path fill="none" stroke="#000" stroke-miterlimit="10" stroke-width=".3977" d="M36.09766 127.48828h254.58596"/><g clip-path="url(#d)"><path fill="none" stroke="#000" stroke-miterlimit="10" stroke-width=".3977" d="M163.39064.1953v254.58596"/></g><path fill="none" stroke="red" stroke-miterlimit="10" stroke-width=".3977" d="m96.9336 130.30078 5.6211-5.625m121.66797 5.625 5.625-5.625"/><use xlink:href="#a" x="155.82669" y="132.71256"/><use xlink:href="#a" x="155.81372" y="69.07484"/><use xlink:href="#a" x="155.81372" y="228.17064"/><path fill="none" stroke="#000" stroke-dasharray="2.98285234 2.98285234" stroke-miterlimit="10" stroke-width=".3977" d="M36.09766 127.48828 163.375 63.85156l127.3086 63.63672"/><path fill="none" stroke="red" stroke-miterlimit="10" stroke-width=".3977" d="M98.83985 100.5664v-8.89453m2.66797 7.5586v-8.89063m121.07032 7.55078 7.11329-5.33594m-4.44532 6.66797 7.11328-5.33593"/><path fill="none" stroke="#000" stroke-dasharray="2.98285234 2.98285234" stroke-miterlimit="10" stroke-width=".3977" d="M36.09766 127.48828 163.375 222.94923l127.3086-95.46095"/><path fill="none" stroke="red" stroke-miterlimit="10" stroke-width=".3977" d="m94.95704 176.60547 7.95312-3.97656m-5.5664 5.76563 7.95312-3.97657m-5.5664 5.76563 7.95312-3.97656m119.34376 3.98437-1.58984-8.75m3.97656 6.96094-1.58984-8.75m3.97656 6.96094-1.58984-8.75"/></svg>