<svg xmlns="http://www.w3.org/2000/svg" xmlns:xlink="http://www.w3.org/1999/xlink" width="433.251pt" height="179.393pt" viewBox="0 0 433.251 179.393"><defs><path id="a" d="m1.6875-1.26562.48438.48437L4.1875-2.8125 6.23438-.78125l.46875-.48437-2.03125-2.01563 2.03125-2.04687-.46875-.46875L4.1875-3.76562 2.17188-5.79687l-.48438.46875 2.03125 2.04687Zm0 0"/></defs><use xlink:href="#a" x="226.95754" y="105.27778"/><use xlink:href="#a" x="290.52146" y="73.49631"/><path fill="none" stroke="#000" stroke-miterlimit="10" stroke-width=".39716" d="m231.15234 102.3789 63.56252-31.78126"/><path fill="none" stroke="red" stroke-miterlimit="10" stroke-width=".39716" d="m261.66407 90.2617 2.51172-7.53515"/><use xlink:href="#a" x="380.46712" y="85.13195"/><use xlink:href="#a" x="419.62064" y="25.8316"/><path fill="none" stroke="#000" stroke-miterlimit="10" stroke-width=".39716" d="m384.6641 82.23436 39.15235-59.3008"/><path fill="none" stroke="red" stroke-miterlimit="10" stroke-width=".39716" d="m405.01957 56.50389-1.59375-7.78125"/><use xlink:href="#a" x="163.39362" y="41.71386"/><use xlink:href="#a" x="322.30293" y="9.93239"/><path fill="none" stroke="#000" stroke-miterlimit="10" stroke-width=".39716" d="m167.58983 38.81639 158.9102-31.78126"/><path fill="none" stroke="red" stroke-miterlimit="10" stroke-width=".39716" d="m244.89844 27.40232 2.33594-8.5664m.58203 7.98437 2.33984-8.5664"/><use xlink:href="#a" x="36.27374" y="168.83672"/><use xlink:href="#a" x="4.49427" y="9.93937"/><path fill="none" stroke="#000" stroke-miterlimit="10" stroke-width=".39716" d="M40.4648 165.94141 8.68745 7.03903"/><path fill="none" stroke="red" stroke-miterlimit="10" stroke-width=".39716" d="m29.05464 88.6367-8.5664-2.33593m7.98437-.58594L19.9023 83.3789"/><use xlink:href="#a" x="99.83069" y="41.71386"/><use xlink:href="#a" x="131.61215" y="73.49631"/><path fill="none" stroke="#000" stroke-miterlimit="10" stroke-width=".39716" d="m104.0234 38.81639 31.78127 31.78125"/><path fill="none" stroke="red" stroke-miterlimit="10" stroke-width=".39716" d="m114.99216 55.39842 8.42188-2.8086m-6.3164 4.91407 8.42577-2.8086m-6.32031 4.91798 8.42578-2.8086"/><use xlink:href="#a" x="113.07687" y="149.65462"/><use xlink:href="#a" x="157.84738" y="153.57137"/><path fill="none" stroke="#000" stroke-miterlimit="10" stroke-width=".39716" d="m117.2695 146.75782 44.77345 3.91406"/><path fill="none" stroke="red" stroke-miterlimit="10" stroke-width=".39716" d="m136.33982 152.41016 4.64844-7.5664m-1.67969 7.82812 4.64844-7.5664m-1.67969 7.82421 4.64844-7.5664"/><use xlink:href="#a" x="297.90648" y="141.31185"/><use xlink:href="#a" x="341.31759" y="129.68021"/><path fill="none" stroke="#000" stroke-miterlimit="10" stroke-width=".39716" d="m302.10158 138.41406 43.41407-11.63281"/><path fill="none" stroke="red" stroke-miterlimit="10" stroke-width=".39716" d="m321.95314 137.20703 1.78126-8.69922m1.09765 7.92969 1.78125-8.70313m1.09375 7.9297 1.78125-8.69923"/><use xlink:href="#a" x="52.158" y="137.05924"/><use xlink:href="#a" x="99.83069" y="73.49631"/><path fill="none" stroke="#000" stroke-miterlimit="10" stroke-width=".39716" d="m56.35152 134.16016 47.67189-63.56252"/><path fill="none" stroke="red" stroke-miterlimit="10" stroke-width=".39716" d="M82.55465 99.22265c-1.7539-1.3164-4.24218-.96094-5.5586.79687-1.3164 1.75391-.96093 4.2422.79298 5.5586s4.24219.96094 5.5586-.79297c1.3164-1.75781.96093-4.2461-.79298-5.5625Zm0 0"/><use xlink:href="#a" x="385.86685" y="137.04728"/><use xlink:href="#a" x="322.30691" y="89.37858"/><path fill="none" stroke="#000" stroke-miterlimit="10" stroke-width=".39716" d="m390.06253 134.14844-63.5586-47.66798"/><path fill="none" stroke="red" stroke-miterlimit="10" stroke-width=".39716" d="M355.12893 107.94921c-1.3164 1.75391-.96093 4.2422.79297 5.5586s4.2422.96094 5.5586-.79297c1.3164-1.75781.96094-4.2461-.79297-5.5625s-4.24219-.96094-5.5586.79687Zm0 0"/><use xlink:href="#a" x="193.63031" y="174.65105"/><use xlink:href="#a" x="203.13315" y="95.77394"/><path fill="none" stroke="#000" stroke-miterlimit="10" stroke-width=".39716" d="m197.82421 171.75391 9.5039-78.87892"/><path fill="none" stroke="red" stroke-miterlimit="10" stroke-width=".39716" d="M203.05077 128.3789c-2.17968-.26562-4.15625 1.28907-4.41797 3.46485-.26171 2.17969 1.28907 4.15625 3.46876 4.41797 2.17578.26562 4.15234-1.28906 4.41796-3.46485.26172-2.17968-1.29296-4.15625-3.46875-4.41797Zm0 0"/></svg>