<svg xmlns="http://www.w3.org/2000/svg" xmlns:xlink="http://www.w3.org/1999/xlink" width="164.819pt" height="69.488pt" viewBox="0 0 164.819 69.488"><defs><path id="a" d="m1.75-1.3125.5.5 2.09375-2.10937L6.45313-.8125l.48437-.5-2.09375-2.09375L6.9375-5.51562 6.45313-6 4.34375-3.90625 2.25-6l-.5.48438 2.10938 2.10937Zm0 0"/><path id="b" d="M.25 0h3.3125l.07813-.34375-.71875-.0625c-.20313 0-.29688-.125-.29688-.3125 0-.07812.01563-.1875.03125-.28125l1.45313-6.35937c.07812-.375.20312-.57813.5-.59375l.67187-.0625.07813-.34375H2.0625l-.09375.34375.71875.0625c.20313 0 .29688.14062.29688.32812 0 .07813-.01563.17188-.04688.26563L1.48438-1c-.07813.375-.20313.54688-.5.57813l-.65625.07812Zm0 0"/><path id="c" d="M-1 1.10938v.3125c.125 0 .26563.01562.39063.01562.5625 0 1.375-.14062 1.875-.46875C1.82813.5625 2.25-.10937 2.53125-1.3125l1.42188-6.07812c.07812-.375.1875-.54688.5-.5625l.67187-.0625.07813-.34375H1.875l-.07812.34375.70312.0625c.21875 0 .32813.10937.32813.3125 0 .0625-.01563.14062-.03125.25L1.46875-1.73437C1.20313-.60937.875.15624.5.5c-.40625.375-.90625.54688-1.5.60938m0 0"/><path id="d" d="M1.04688-3.40625c0 2.71875.60937 5.71875 3.17187 5.82813V2.0625C3.35938 1.89063 2 .82813 2-3.40625 2-7.60937 3.29688-8.6875 4.21875-8.875v-.35937c-2.5625.10937-3.17187 3.09375-3.17187 5.82812m0 0"/><path id="e" d="M1.15625.14063 2.21875 0c.34375-1.23437.53125-1.92187.79688-2.57812C3.42188-3.625 4.60938-5.4375 5.60938-5.4375c.25 0 .4375.14063.4375.51563 0 .125-.03125.29687-.07813.5L4.76563.14063 5.8125 0c.34375-1.23437.54688-1.9375.85938-2.67187C7.125-3.70312 8.21875-5.4375 9.23438-5.4375c.29687 0 .46875.1875.46875.5 0 .10938-.01563.21875-.0625.34375L8.60938-1.04687c-.0625.1875-.07813.35937-.07813.5 0 .4375.23438.6875.70313.6875.89062 0 1.54687-.82813 1.96875-1.73438l-.28125-.17187c-.21875.42187-.76563 1.28125-1.09375 1.28125-.14063 0-.20313-.09375-.20313-.23438 0-.10937.04688-.26562.07813-.42187l.9375-3.1875c.07812-.26563.125-.51563.125-.73438 0-.59375-.29688-1-1.01563-1-1.09375 0-2.17187 1-3.04687 2.54688h-.0625l.25-.75c.10937-.34375.17187-.64063.17187-.90625 0-.57813-.3125-.89063-.90625-.89063-1.10937 0-2.21875 1.03125-3.0625 2.54688H3.0625L3.8125-6 3.75-6.0625l-2.1875.32813-.07812.29687.75.0625c.1875.01563.25.07813.25.20313 0 .09375-.04688.21875-.07813.375Zm0 0"/><path id="f" d="M.71875 2.0625v.35938C3.28125 2.3125 3.89063-.6875 3.89063-3.40625c0-2.73437-.60938-5.71875-3.17188-5.82812v.35937c.92188.1875 2.21875 1.26563 2.21875 5.46875 0 4.23438-1.35937 5.29688-2.21875 5.46875m0 0"/><path id="g" d="M0 0h3.3125l.0625-.34375-.71875-.0625c-.20312 0-.29687-.125-.29687-.3125 0-.07812.01562-.1875.04687-.28125l.75-3.35937h.03125c.54688 1.125 1.14063 2.34375 1.875 3.34375.57813.78125 1.10938 1.04687 2.03125 1.0625L7.6875.0625l.09375-.35937c-.70312-.0625-.98437-.39063-1.42187-.92188-.79688-1.01562-1.625-2.48437-2.125-3.54687 1.09375-.92188 2.09375-1.75 3.20312-2.53125.6875-.48438.96875-.65625 1.95313-.71875l.04687-.34375H6.42188l-.04688.34375.46875.04687c.125.01563.17188.0625.17188.14063 0 .0625-.07813.15625-.1875.25L3.25-4.5h-.04687l.64062-2.85937c.09375-.375.20313-.57813.51563-.59375l.67187-.0625.07813-.34375h-3.3125l-.09376.34375.73438.0625c.20313 0 .28125.14062.28125.32812 0 .07813 0 .17188-.03125.26563L1.23438-1c-.09376.375-.20313.54688-.5.57813L.0625-.34375Zm0 0"/></defs><use xlink:href="#a" x="4.79835" y="61.87212"/><use xlink:href="#b" x="6.65567" y="50.66966"/><use xlink:href="#a" x="151.15001" y="25.2847"/><use xlink:href="#c" x="153.08475" y="12.64185"/><path fill="none" stroke="red" stroke-miterlimit="10" stroke-width=".39559" d="m84.1719 47.65234 7.09766-1.77344-1.83594-7.08203"/><path fill="none" stroke="#000" stroke-miterlimit="10" stroke-width=".39559" d="m9.14453 58.8711 146.3516-36.58986M87.07815 58.8711 77.9297 22.28123"/><path fill="none" stroke="red" stroke-miterlimit="10" stroke-width=".39559" d="m46.21095 52.66406-.96094-5.8789m74.12502-12.41407-.96094-5.875"/><use xlink:href="#d" x="91.61865" y="62.27713"/><use xlink:href="#e" x="96.55562" y="62.27713"/><use xlink:href="#f" x="108.55092" y="62.27713"/><path fill="none" stroke="#000" stroke-dasharray="2.9669816527 2.9669816527" stroke-miterlimit="10" stroke-width=".39559" d="m9.14453 58.8711 71.00002-27.44923 75.35159-9.14063"/><path fill="none" stroke="red" stroke-miterlimit="10" stroke-width=".39559" d="M46.71095 44.34765c-.4414-1.14844-1.73047-1.71484-2.8789-1.27344-1.14454.44141-1.71485 1.73047-1.27345 2.87891.44532 1.14453 1.73438 1.71485 2.87891 1.27344 1.14844-.44531 1.71484-1.73438 1.27344-2.8789Zm73.29689-17.75782c-.14843-1.21874-1.2578-2.08593-2.47656-1.9414-1.21875.14844-2.08984 1.25781-1.9414 2.48047.14843 1.21875 1.2578 2.08594 2.47656 1.9375 1.22265-.14453 2.08984-1.2539 1.9414-2.47657Zm0 0"/><use xlink:href="#a" x="75.8002" y="34.42435"/><use xlink:href="#g" x="84.68771" y="26.81641"/></svg>