<svg xmlns="http://www.w3.org/2000/svg" xmlns:xlink="http://www.w3.org/1999/xlink" width="450.619pt" height="186.62pt" viewBox="0 0 450.619 186.62"><defs><path id="a" d="m1.75-1.3125.51563.5L4.375-2.9375l2.10938 2.125.5-.5L4.875-3.42187l2.10938-2.125-.5-.48438L4.375-3.92187 2.26563-6.03125 1.75-5.54687l2.125 2.125Zm0 0"/></defs><use xlink:href="#a" x="236.28016" y="109.65871"/><use xlink:href="#a" x="302.49034" y="76.55412"/><path fill="none" stroke="#000" stroke-miterlimit="10" stroke-width=".39769" d="m240.64844 106.64062 66.21094-33.10547"/><use xlink:href="#a" x="396.14165" y="88.67843"/><use xlink:href="#a" x="436.9256" y="26.90721"/><path fill="none" stroke="#000" stroke-miterlimit="10" stroke-width=".39769" d="m400.51173 85.66015 40.78516-61.77344"/><use xlink:href="#a" x="170.07098" y="43.44853"/><use xlink:href="#a" x="335.59493" y="10.34394"/><path fill="none" stroke="#000" stroke-miterlimit="10" stroke-width=".39769" d="M174.4375 40.42968 339.96484 7.3242"/><use xlink:href="#a" x="37.67856" y="175.87189"/><use xlink:href="#a" x="4.57596" y="10.35691"/><path fill="none" stroke="#000" stroke-miterlimit="10" stroke-width=".39769" d="M42.04686 172.85547 8.94139 7.33593"/><use xlink:href="#a" x="103.8608" y="43.44853"/><use xlink:href="#a" x="136.96539" y="76.55412"/><path fill="none" stroke="#000" stroke-miterlimit="10" stroke-width=".39769" d="m108.22655 40.42968 33.10547 33.10547"/><use xlink:href="#a" x="117.64772" y="155.88159"/><use xlink:href="#a" x="164.28276" y="159.96128"/><path fill="none" stroke="#000" stroke-miterlimit="10" stroke-width=".39769" d="m122.01562 152.86328 46.63672 4.07813"/><use xlink:href="#a" x="310.13079" y="147.20825"/><use xlink:href="#a" x="355.34971" y="135.09192"/><path fill="none" stroke="#000" stroke-miterlimit="10" stroke-width=".39769" d="m314.5 144.1914 45.21876-12.11718"/><use xlink:href="#a" x="54.20391" y="142.7633"/><use xlink:href="#a" x="103.8608" y="76.55412"/><path fill="none" stroke="#000" stroke-miterlimit="10" stroke-width=".39769" d="m58.5703 139.7461 49.65625-66.21095"/><use xlink:href="#a" x="401.76719" y="142.79424"/><use xlink:href="#a" x="335.561" y="93.13935"/><path fill="none" stroke="#000" stroke-miterlimit="10" stroke-width=".39769" d="M406.14064 139.77734 339.9336 90.1211"/><use xlink:href="#a" x="201.53491" y="181.93255"/><use xlink:href="#a" x="211.43375" y="99.76985"/><path fill="none" stroke="#000" stroke-miterlimit="10" stroke-width=".39769" d="M205.90234 178.91407 215.80078 96.75"/></svg>