<svg xmlns="http://www.w3.org/2000/svg" xmlns:xlink="http://www.w3.org/1999/xlink" width="187.155pt" height="147.829pt" viewBox="0 0 187.155 147.829"><defs><path id="a" d="m1.75-1.3125.5.5 2.10938-2.10937L6.46875-.8125l.48438-.5-2.09375-2.10937 2.09375-2.10938-.48438-.48437-2.10937 2.09375L2.25-6.01562l-.5.48437 2.10938 2.10938Zm0 0"/><path id="b" d="M0 0h2.85938l.0625-.34375-.46875-.04687c-.35938-.01563-.5625-.10938-.5625-.375 0-.64063.125-1 .26562-1.64063l1.10938-4.9375h.01562L4.75-.14062h.32813l4.71875-7.20313h.03125L8.34375-1c-.10937.40625-.21875.54688-.51562.57813l-.65625.07812L7.09375 0h3.29688l.0625-.34375L9.75-.42187c-.21875-.01563-.3125-.125-.3125-.3125 0-.07813.01563-.17188.03125-.26563l1.46875-6.375c.09375-.40625.1875-.57812.5-.60937l.67188-.04688.07812-.34375H9.82813c-.65625 1.10938-1.375 2.1875-2.10938 3.3125L5.57813-1.79687h-.03125l-.6875-3.35938C4.60938-6.25 4.375-7.29687 4.15625-8.375H1.8125l-.07812.34375.71875.0625c.20312.01563.3125.125.3125.32813 0 .07812-.01563.17187-.04688.26562L1.57813-2.40625c-.14063.64063-.29688 1.10938-.4375 1.5C1-.51562.78125-.42187.4375-.39062l-.375.04687Zm0 0"/><path id="c" d="M0 0h2.85938l.0625-.34375-.46875-.04687c-.35938-.01563-.5625-.09375-.5625-.35938 0-.64062.125-1.01562.26562-1.65625l1.125-4.96875h.04688c1.125 2.46875 2.25 4.90625 3.35937 7.375h.78125l1.35938-5.96875c.14062-.64062.28125-1.10937.42187-1.5.14063-.39062.35938-.48437.73438-.51562l.35937-.04688.07813-.34375h-2.875l-.0625.34375.48437.04688c.35938.04687.5625.15625.5625.4375 0 .4375-.125.9375-.26562 1.57812l-1 4.39063h-.04688C6.17188-3.85937 5.14063-6.10937 4.125-8.375H1.8125l-.07812.34375.71875.0625c.20312.01563.3125.125.3125.32813 0 .07812-.01563.17187-.04688.26562L1.57813-2.40625c-.14063.64063-.29688 1.10938-.4375 1.5C1-.51562.79688-.42187.4375-.39062l-.375.04687Zm0 0"/><clipPath id="d"><path d="M93 .2461h2v147.16406h-2Zm0 0"/></clipPath></defs><use xlink:href="#a" x="16.30439" y="76.84029"/><use xlink:href="#b" x="4.2976" y="69.27445"/><use xlink:href="#a" x="163.07273" y="76.84029"/><use xlink:href="#c" x="171.98549" y="69.27445"/><path fill="none" stroke="red" stroke-miterlimit="10" stroke-width=".39671" d="M94.04685 66.49219h7.33594v7.33594"/><path fill="none" stroke="#000" stroke-miterlimit="10" stroke-width=".39671" d="M20.66406 73.82813h146.76949"/><g clip-path="url(#d)"><path fill="none" stroke="#000" stroke-miterlimit="10" stroke-width=".39671" d="M94.04685.44534v146.76948"/></g><path fill="none" stroke="red" stroke-miterlimit="10" stroke-width=".39671" d="m57.10155 76.80469.4961-5.95313m72.87106 5.95313.4961-5.95313"/><use xlink:href="#a" x="89.68906" y="76.84029"/><use xlink:href="#a" x="89.70299" y="40.14099"/><use xlink:href="#a" x="89.70299" y="131.88875"/><path fill="none" stroke="#000" stroke-dasharray="2.975380265 2.975380265" stroke-miterlimit="10" stroke-width=".39671" d="m20.66406 73.82813 73.39842-36.69921 73.37107 36.6992"/><path fill="none" stroke="red" stroke-miterlimit="10" stroke-width=".39671" d="m57.57811 58.69922-2.21875-5.54296m3.99219 4.65624-2.21875-5.54296m71.14842 5.3164 3.10546-5.09765m-1.32812 5.98828 3.10547-5.10156"/><path fill="none" stroke="#000" stroke-dasharray="2.975380265 2.975380265" stroke-miterlimit="10" stroke-width=".39671" d="m20.66406 73.82813 73.39842 55.05076 73.37107-55.05076"/><path fill="none" stroke="red" stroke-miterlimit="10" stroke-width=".39671" d="m53.78515 102.39062 3.96874-4.46094m-2.3789 5.65234 3.96484-4.46484m-2.3789 5.65625 3.96484-4.46484m69.79685 4.76171-3.17578-5.05859m4.76172 3.86719-3.17188-5.0586m4.76172 3.8672-3.17578-5.0547"/></svg>