<svg xmlns="http://www.w3.org/2000/svg" xmlns:xlink="http://www.w3.org/1999/xlink" width="287.886pt" height="227.17pt" viewBox="0 0 287.886 227.17"><defs><path id="a" d="m2.70313-2.03125.76562.78125 3.25-3.26562 3.25 3.26562.75-.78125-3.23437-3.23437 3.23437-3.25-.75-.76563-3.25 3.25-3.25-3.25-.76562.76563 3.25 3.25Zm0 0"/><path id="b" d="M0 0h4.40625l.10938-.53125-.75-.0625c-.54688-.04687-.84375-.1875-.84375-.57812 0-1 .17187-1.54688.39062-2.54688l1.71875-7.59375h.03125l2.25 11.09375h.51563l7.26562-11.09375h.03125l-2.28125 9.76563c-.15625.64062-.32812.85937-.79687.89062l-1 .125-.125.53125H16l.10938-.53125-1.09376-.125c-.34375-.01562-.48437-.17187-.48437-.46875 0-.125.03125-.26562.0625-.42187l2.25-9.8125c.15625-.64063.29688-.89063.76563-.9375l1.03124-.07813.14063-.53125H15.125c-.98437 1.70313-2.09375 3.375-3.23437 5.09375L8.59375-2.76562h-.04687L7.48438-7.9375c-.375-1.6875-.75-3.29687-1.0625-4.96875h-3.625l-.10938.53125 1.07813.10938c.32812.01562.48437.17187.48437.48437 0 .125-.01562.26563-.0625.42188L2.42188-3.71875c-.21875 1-.4375 1.71875-.65625 2.32813-.21876.59375-.54688.73437-1.09375.79687l-.57813.0625Zm0 0"/><path id="c" d="M0 0h4.40625l.10938-.53125-.75-.0625c-.54688-.04687-.84375-.15625-.84375-.5625 0-.98437.17187-1.5625.39062-2.5625l1.75-7.64062h.0625C6.875-7.5625 8.59375-3.79687 10.3125 0h1.20313l2.09375-9.1875c.21875-1 .4375-1.71875.65625-2.32812.21875-.59375.54687-.73438 1.10937-.79688l.57813-.0625.09375-.53125h-4.40626l-.10937.53125.73438.07813c.5625.0625.875.25.875.65625 0 .67187-.1875 1.45312-.40625 2.45312l-1.53125 6.75H11.125c-1.60937-3.5-3.20312-6.96875-4.76562-10.46875h-3.5625l-.10938.53125 1.07813.10938c.32812.01562.48437.17187.48437.48437 0 .125-.01562.26563-.0625.42188L2.42188-3.71875c-.21875 1-.4375 1.71875-.65625 2.32813-.21876.59375-.53125.73437-1.09375.79687l-.57813.0625Zm0 0"/><clipPath id="d"><path d="M145 0h1v226.34375h-1Zm0 0"/></clipPath></defs><use xlink:href="#a" x="25.57249" y="117.80658"/><use xlink:href="#b" x="7.08404" y="106.15714"/><use xlink:href="#a" x="251.51896" y="117.80658"/><use xlink:href="#c" x="265.24281" y="106.15714"/><path fill="none" stroke="red" stroke-miterlimit="10" stroke-width=".39705" d="M145.25785 113.17188V101.875h11.29688v11.29688h-11.29688"/><path fill="none" stroke="#000" stroke-miterlimit="10" stroke-width=".39705" d="M32.28125 113.17188h225.9493"/><g clip-path="url(#d)"><path fill="none" stroke="#000" stroke-miterlimit="10" stroke-width=".39705" d="M145.25785.19527v225.9493"/></g><path fill="none" stroke="red" stroke-miterlimit="10" stroke-width=".39705" d="m85.96096 115.98047 5.61719-5.61719m107.35941 5.61719 5.61328-5.61719"/><use xlink:href="#a" x="138.54572" y="117.80658"/><use xlink:href="#a" x="138.54572" y="61.32095"/><use xlink:href="#a" x="138.54572" y="202.537"/><path fill="none" stroke="#000" stroke-dasharray="2.9779506588 2.9779506588" stroke-miterlimit="10" stroke-width=".39705" d="m32.28125 113.17188 112.9766-56.4883 112.9727 56.4883"/><path fill="none" stroke="red" stroke-miterlimit="10" stroke-width=".39705" d="M87.87893 89.8125v-8.87501m2.66406 7.54297v-8.875m106.75785 7.53906 7.10156-5.32812m-4.4375 6.66015 7.10157-5.32812"/><path fill="none" stroke="#000" stroke-dasharray="2.9779506588 2.9779506588" stroke-miterlimit="10" stroke-width=".39705" d="m32.28125 113.17188 112.9766 84.7305 112.9727-84.7305"/><path fill="none" stroke="red" stroke-miterlimit="10" stroke-width=".39705" d="m84.00002 156.9258 7.9414-3.97266m-5.55859 5.75781 7.94141-3.96875m-5.5586 5.75391 7.94141-3.96875m105.0352 3.97656-1.58985-8.73828m3.96875 6.94922-1.58593-8.73438m3.96875 6.94922-1.58594-8.73437"/></svg>