<svg id="Layer_1" enable-background="new 0 0 53 53" viewBox="0 0 53 53" xmlns="http://www.w3.org/2000/svg"><g><g><g><g><g><g><g><path d="m49.9977722 14.649087c.345768.2676229.5330963.6918325.4980545 1.1277704l-.1039009 1.2913933-5.012558-4.0196238v-1.9754066z" fill="#707dd3"/></g></g><g><g><path d="m36.4392624 10.5067244c-.8327789-.6484413-2.2828598-4.8622065-2.2828598-3.805398v-1.7294827c0-1.0570035 1.2171059-1.6495278 2.0498848-1.0008986l3.1238518 2.4185779v1.8080688z" fill="#707dd3"/></g></g><g><g><path d="m39.3301392 6.389523 6.0492286 4.6836973v1.9754066l-6.0492286-4.8510351z" fill="#8993da"/></g></g></g><g><g><path d="m17.0746803 17.7567253c-.6966228-.0000095-2.9463358-4.530797-2.9463358-3.8340778l-.0026617-1.7518673c0-.7045393.5765429-1.2730179 1.2731647-1.2730179h3.4734802v1.721467z" fill="#707dd3"/></g></g><g><g><path d="m28.4985085 10.8942289v1.7299805c-3.3730469 2.4849854-6.6020508 2.7692261-9.630127 0v-1.7299805z" fill="#8993da"/></g></g><g><g><path d="m33.275631 10.8977623c.4884262 0 .8807716-.3923445.8807716-.8808689l1.8453598 3.0317335c0 .4805098-1.9907379.6664228-2.4791679.6664228l-5.0256214-1.0958204v-1.721467z" fill="#707dd3"/></g></g><g><g><path d="m34.1540298 6.7015553v4.9957552c0 .4843683-.3926582.8770266-.8770256.8770266h-17.875824c-.7029676 0-1.2728357.5698681-1.2728357 1.2728357v6.9651556c0 .7029667.5698681 1.2728348 1.2728357 1.2728348h17.875824c.4843674 0 .8770256.3926582.8770256.8770256v4.9955177c0 1.0580444 1.2159042 1.6541862 2.0523338 1.0062294l13.7193527-10.6279659c.6577835-.5095654.6577873-1.5028801.0000114-2.0124512l-13.7193564-10.6281853c-.8364258-.6479674-2.0523415-.0518289-2.0523415 1.0062218z" fill="#5766cb"/></g></g></g><g opacity=".15"><g><g><g><path d="m24.3561516 14.5380964c-.0014725.0176306-.0024281.0353041-.0022602.0520267-.0008678.3539476.284256.6409454.6377296.6412516l1.5123234.0042305c.3539906.00035.647562-.3072004.6411648-.6366911.0008678-.3539476-.284256-.6409464-.6377296-.6412516l-1.5123234-.0042315c-.3356686-.0009059-.6114235.2559177-.6389046.5846654z" fill="#fff"/></g></g></g><g><g><g><path d="m27.9420929 14.551054c-.0014744.0176306-.0024281.0353041-.0022602.0520267-.0008678.3539476.284256.6409454.6377277.6412516l3.4213314.0102911c.3533001.0023794.6438465-.3002014.6411648-.636692.0008698-.3539467-.284256-.6409454-.6377296-.6412516l-3.4213295-.0102911c-.3355828-.0019426-.6114254.2559176-.6389046.5846653z" fill="#fff"/></g></g></g></g></g></g><g><g><g><g><g><g><path d="m3.0022278 34.7153816c-.3457694.2676201-.5330958.6918297-.4980545 1.1277695l.1039019 1.2913933 5.012557-4.0196266v-1.9754048z" fill="#e28086"/></g></g><g><g><path d="m14.3350964 31.6108837c.8327789-.6484337 4.508503-5.9000721 4.508503-4.8432636v-1.7294827c0-1.0570049-1.2171078-1.6495285-2.0498867-1.0009003l-3.1238508 2.4185791v1.8080673z" fill="#e28086"/></g></g><g><g><path d="m13.6698618 26.4558163-6.0492296 4.6836967v1.9754048l6.0492296-4.8510342z" fill="#e2a2ac"/></g></g></g><g><g><path d="m34.1276741 37.3959236c.6966209 0 4.7439804-4.1425438 4.7439804-3.4458237l.0026627-1.713028c0-.7045383-.5765419-1.2730179-1.2731628-1.2730179h-3.4734802v1.7214699 4.7103997z" fill="#e28086"/></g></g><g><g><path d="m24.499 30.964h9.63v1.72h-9.63z" fill="#e2a2ac"/></g></g><g><g><path d="m19.724371 30.9640541c-.4884281 0-.8807716-.3923435-.8807716-.8808689l-4.3001699 2.6023388c0 .4805069.7302246 3.3524437 1.21875 3.3524437 3.9055185-.1900635 10.0405283 1.7046814 8.7409678-3.3524475l-.0001202-1.7214661z" fill="#e28086"/></g></g><g><g><path d="m18.8459682 26.7678471v4.9957561c0 .4843674.3926582.8770256.8770275.8770256h17.875824c.7029686 0 1.2728348.56987 1.2728348 1.2728348v6.9651566c0 .7029686-.5698662 1.2728348-1.2728348 1.2728348h-17.875824c-.4843693 0-.8770275.3926582-.8770275.8770294v4.9955139c0 1.0580482-1.2159023 1.6541862-2.05233 1.0062294l-13.7193546-10.6279641c-.6577828-.5095673-.6577878-1.5028801-.00001-2.0124512l13.7193527-10.6281853c.8364282-.6479682 2.0523419-.0518302 2.0523419 1.00622z" fill="#dd636e"/></g></g></g><g opacity=".15"><g><g><g><path d="m28.6438484 34.6043892c.0014725.0176315.0024281.035305.0022602.0520287.0008678.3539467-.284256.6409454-.6377296.6412506l-1.5123234.0042305c-.3539906.0003471-.647562-.3072014-.6411648-.636692-.0008678-.3539467.284256-.6409454.6377296-.6412506l1.5123234-.0042305c.3356686-.000908.6114235.2559165.6389046.5846633z" fill="#fff"/></g></g></g><g><g><g><path d="m25.0579071 34.6173477c.0014744.0176277.0024281.0353012.0022602.0520248.0008678.3539467-.284256.6409454-.6377277.6412544l-3.4213314.0102882c-.3532982.0023804-.6438446-.3002014-.6411648-.636692-.0008678-.3539467.284256-.6409454.6377277-.6412506l3.4213314-.0102921c.3355828-.0019416.6114254.2559205.6389046.5846673z" fill="#fff"/></g></g></g></g></g></g></g></svg>