<svg xmlns="http://www.w3.org/2000/svg" xmlns:xlink="http://www.w3.org/1999/xlink" width="279.617pt" height="99.564pt" viewBox="0 0 279.617 99.564"><defs><path id="a" d="M-.35937 0h4.20312l.125-.53125L2.9375-.64062c-.23437-.01563-.34375-.14063-.34375-.3125 0-.09376.04688-.23438.10938-.375.60937-1.1875 1.20312-2.40625 1.90625-3.65625h4.1875L9.25-1.125s-.10937.45313-.5.48438l-.98437.10937L7.65625 0H12.25l.10938-.53125-.71875-.0625c-.5625-.0625-.64063-.3125-.75-1.09375L9.53125-12.90625H8.20313l-3.14063 5.5c-.95312 1.67188-2.5 4.45313-3.20312 5.5625C1.26563-.875.95313-.67187.375-.60937l-.60937.07812Zm5.34375-5.6875 3.03125-5.48437.67187 5.48437Zm0 0"/><path id="b" d="M0 0h5.65625c4.5 0 5.42188-2.32812 5.42188-3.875 0-1.95312-1.45313-2.8125-2.82813-3.07812l.03125-.03125C10.75-7.28125 11.8125-8.6875 11.8125-10.09375c0-1.51562-.89062-2.8125-4.32812-2.8125H2.76563l-.125.54688 1.10937.09375c.3125.01562.45313.15625.45313.45312 0 .125-.03125.28125-.07813.46875L1.92188-1.54687c-.14063.60937-.3125.82812-.76563.89062l-1.0625.125Zm3.73438-1.42187c0-.14063.01562-.28126.0625-.42188L4.85938-6.625h.73437c1.84375 0 3.46875.53125 3.46875 2.65625 0 1.67188-1 3.3125-3.5 3.3125-1.46875 0-1.82812-.29687-1.82812-.76562M5-7.28125l.96875-4.32812c.14063-.5625.25-.65625 1.5-.65625 1.5625 0 2.4375.79687 2.4375 2.10937 0 1.9375-1.625 2.875-3.6875 2.875Zm0 0"/><path id="c" d="M.96875-5.125C.96875-2.65625 2.1875.28125 6.8125.28125c1.32813 0 2.59375-.1875 3.78125-.78125l.92188-2.96875h-.5625C9.92188-1.60937 8.98438-.375 6.6875-.375c-2.15625 0-3.70312-1.39062-3.70312-4.26562 0-1.6875.42187-3.75 1.32812-5.23438.92188-1.57812 2.39063-2.67187 4.40625-2.67187 2.35938 0 3.03125 1.09375 3.03125 3.14062h.57813L13-12.20312c-1.07812-.67188-2.8125-1-4.125-1-3.51562 0-5.54687 1.65625-6.625 3.40625C1.20313-8.14062.96875-6.40625.96875-5.125m0 0"/><path id="d" d="M0-12.29687h4.96875V-13.5H0Zm0 0"/><path id="e" d="M0-12.29687h12.32813l-.76563 1.20312.54688.45313c.75-.82813 1.625-1.40625 2.78125-1.90625V-13.25c-1.17188-.5-2.03125-1.07812-2.78125-1.90625l-.54688.45313.76563 1.20312H0Zm0 0"/><path id="f" d="M1.59375-4.71875h4.57813v4.57813h1.09375v-4.57813h4.57812V-5.8125H7.26563v-4.57812H6.17188v4.57812H1.59375Zm0 0"/><path id="g" d="M1.59375-2.65625h10.25V-3.75h-10.25Zm0-4.10937h10.25v-1.09375h-10.25Zm0 0"/></defs><path fill="none" stroke="#007F7F" stroke-miterlimit="10" stroke-width=".39676" d="M26.83594 30.28125 79.6328 69.875"/><path fill="#007F7F" stroke="#007F7F" stroke-miterlimit="10" stroke-width=".39675" d="M82.6875 72.16797c-.29688-.38281-1.51953-2.1914-2.08594-3.58594l-1.9414 2.58984c1.5.15235 3.57812.81641 4.02734.9961Zm0 0"/><path fill="none" stroke="#FF7F00" stroke-miterlimit="10" stroke-width=".39676" d="m83.28125 72.61328 164.79297-13.73047"/><path fill="#FF7F00" stroke="#FF7F00" stroke-miterlimit="10" stroke-width=".39674" d="M251.88281 58.5625c-.48047-.08594-2.59375-.625-3.9414-1.29297l.26562 3.22656c1.22266-.8828 3.21875-1.76562 3.67578-1.93359Zm0 0"/><path fill="none" stroke="#EC008C" stroke-miterlimit="10" stroke-width=".39676" d="m26.83594 30.28125 221.2578 27.65625"/><path fill="#EC008C" stroke="#EC008C" stroke-miterlimit="10" stroke-width=".39675" d="M251.88672 58.41016c-.45313-.1836-2.41016-1.14844-3.59375-2.07813l-.39844 3.21094c1.375-.61328 3.50781-1.0664 3.99219-1.13281Zm0 0"/><use xlink:href="#a" x="7.03095" y="23.27109"/><use xlink:href="#b" x="77.18075" y="92.51786"/><use xlink:href="#c" x="259.6268" y="51.21572"/><use xlink:href="#d" x="22.25926" y="73.61364" fill="#007F7F"/><use xlink:href="#d" x="25.90953" y="73.61364" fill="#007F7F"/><use xlink:href="#d" x="29.53995" y="73.61364" fill="#007F7F"/><use xlink:href="#e" x="33.17038" y="73.61364" fill="#007F7F"/><use xlink:href="#a" x="22.25926" y="77.36123" fill="#007F7F"/><use xlink:href="#b" x="35.84857" y="77.36123" fill="#007F7F"/><use xlink:href="#d" x="174.95857" y="87.72285" fill="#FF7F00"/><use xlink:href="#d" x="178.54933" y="87.72285" fill="#FF7F00"/><use xlink:href="#d" x="182.12024" y="87.72285" fill="#FF7F00"/><use xlink:href="#e" x="185.69115" y="87.72285" fill="#FF7F00"/><use xlink:href="#b" x="174.95857" y="91.77113" fill="#FF7F00"/><use xlink:href="#c" x="187.99241" y="91.77113" fill="#FF7F00"/><use xlink:href="#d" x="80.90942" y="22.06637" fill="#007F7F"/><use xlink:href="#d" x="84.55969" y="22.06637" fill="#007F7F"/><use xlink:href="#d" x="88.19012" y="22.06637" fill="#007F7F"/><use xlink:href="#e" x="91.82055" y="22.06637" fill="#007F7F"/><use xlink:href="#a" x="80.90942" y="25.81595" fill="#007F7F"/><use xlink:href="#b" x="94.49873" y="25.81595" fill="#007F7F"/><use xlink:href="#f" x="109.45442" y="25.81595" fill="#EC008C"/><use xlink:href="#d" x="125.62163" y="21.76768" fill="#FF7F00"/><use xlink:href="#d" x="129.21238" y="21.76768" fill="#FF7F00"/><use xlink:href="#d" x="132.78329" y="21.76768" fill="#FF7F00"/><use xlink:href="#e" x="136.3542" y="21.76768" fill="#FF7F00"/><use xlink:href="#b" x="125.62163" y="25.81595" fill="#FF7F00"/><use xlink:href="#c" x="138.65546" y="25.81595" fill="#FF7F00"/><use xlink:href="#g" x="155.09058" y="25.81595" fill="#EC008C"/><use xlink:href="#d" x="172.37688" y="21.76768" fill="#EC008C"/><use xlink:href="#d" x="176.14618" y="21.76768" fill="#EC008C"/><use xlink:href="#d" x="179.91547" y="21.76768" fill="#EC008C"/><use xlink:href="#e" x="183.66493" y="21.76768" fill="#EC008C"/><use xlink:href="#a" x="172.37688" y="25.81595" fill="#EC008C"/><use xlink:href="#c" x="185.96619" y="25.81595" fill="#EC008C"/></svg>