<svg xmlns="http://www.w3.org/2000/svg" xmlns:xlink="http://www.w3.org/1999/xlink" width="173.52pt" height="125.19pt" viewBox="0 0 173.52 125.19"><defs><clipPath id="a"><path d="M60 43h54v81.38672H60Zm0 0"/></clipPath><clipPath id="b"><path d="M104 39h68.72266v42H104Zm0 0"/></clipPath><clipPath id="c"><path d="M162 67h10.72266v16H162Zm0 0"/></clipPath><clipPath id="d"><path d="M42 12h31v112.38672H42Zm0 0"/></clipPath><path id="e" d="M0-12.28125h5.76563l-.75 1.21875.53125.45313c.75-.82813 1.625-1.40625 2.76562-1.90625v-.70313c-1.17187-.5-2.01562-1.07812-2.76562-1.90625l-.53125.45313.75 1.20312L0-13.48437Zm0 0"/><path id="f" d="M2.17188-1.25c0 .875.375 1.46875 1.4375 1.46875 1.78125 0 3.73437-1.95312 4.84375-4.125H8.5l-.625 2.125c-.09375.375-.15625.6875-.15625.96875 0 .65625.3125 1.03125 1.01563 1.03125 1.34375 0 2.45312-1.26562 3.10937-2.65625l-.4375-.28125C11.03125-2.07812 10.20313-.75 9.6875-.75c-.25 0-.34375-.15625-.34375-.42187 0-.15626.04688-.35938.09375-.5625l2-7.60938-1.65625.21875C9.25-7.21875 8.92188-6.23437 8.45313-5.10937 7.64063-3.23437 6.01563-.75 4.46875-.75c-.39062 0-.59375-.23437-.59375-.73437q0-.35157.14063-.89063L5.79688-9.25l-.09375-.09375-3.39063.51563-.10937.45312 1.15625.09375c.28125.03125.375.14063.375.35938 0 .14062-.03125.3125-.09375.53125L2.35938-2.46875c-.125.42188-.1875.84375-.1875 1.21875m0 0"/><path id="g" d="m2.17188-8.375 1.15625.09375c.28125.03125.35937.125.35937.34375 0 .14063-.03125.3125-.07812.54688L2.46875-2.21875c-.07812.35938-.10937.65625-.10937.9375 0 1.04688.54687 1.5 1.40625 1.5 1.59375 0 3.20312-1.48437 4.48437-3.20312C9.51563-4.6875 10.40625-6.75 10.4375-7.90625c0-.71875-.42187-1.4375-.57812-1.4375-.45313 0-.96875.15625-1.35938.39063.17188.65625.23438 1.34375.23438 2.32812C8.57813-4.09375 6.17188-.75 4.67188-.75 4.25-.75 4-1.01562 4-1.54687c0-.14063.01563-.3125.0625-.5L5.6875-9.25l-.10937-.09375-3.28125.51563Zm0 0"/><path id="h" d="M1.57813-4.71875H11.8125v-1.07812H1.57813Zm0 0"/></defs><g clip-path="url(#a)"><path fill="none" stroke="#007F7F" stroke-miterlimit="10" stroke-width=".39594" d="m66.46875 124.1875 41.06639-75.12887"/></g><path fill="#007F7F" stroke="#007F7F" stroke-miterlimit="10" stroke-width=".39592" d="M109.36328 45.71094c-.33594.35156-1.94922 1.8164-3.2461 2.57422l2.83594 1.54687c-.0664-1.5.29688-3.64843.41016-4.1211Zm0 0"/><g clip-path="url(#b)"><path fill="none" stroke="#FF7F00" stroke-miterlimit="10" stroke-width=".39594" d="m109.71873 45.06253 58.74607 29.76952"/></g><path fill="#FF7F00" d="M171.86719 76.55469c-.35938-.32422-1.875-1.89063-2.67188-3.16406l-1.46094 2.8789c1.5-.10937 3.66016.1836 4.13282.28516m0 0"/><g clip-path="url(#c)"><path fill="none" stroke="#FF7F00" stroke-miterlimit="10" stroke-width=".39592" d="M171.86719 76.55469c-.35938-.32422-1.875-1.89063-2.67188-3.16407l-1.46094 2.87891c1.5-.10937 3.66016.1836 4.13282.28516Zm0 0"/></g><g clip-path="url(#d)"><path fill="none" stroke="#EC008C" stroke-miterlimit="10" stroke-width=".39594" d="M66.46875 124.1875 47.69923 17.7227"/></g><path fill="#EC008C" stroke="#EC008C" stroke-miterlimit="10" stroke-width=".39593" d="M47.03516 13.96875c-.04297.48047-.38672 2.63281-.9297 4.03516l3.1836-.5625c-.98828-1.12891-2.04687-3.03516-2.2539-3.47266Zm0 0"/><path fill="none" stroke="#00ADEF" stroke-miterlimit="10" stroke-width=".39594" d="m109.71873 45.06253-58.74997-29.7656"/><path fill="#00ADEF" stroke="#00ADEF" stroke-miterlimit="10" stroke-width=".39593" d="M47.5664 13.57422c.36329.32422 1.875 1.89062 2.67188 3.16406l1.46094-2.88281c-1.5.11328-3.65625-.1836-4.13282-.28125Zm0 0"/><use xlink:href="#e" x="98.25562" y="106.74633" fill="#007F7F"/><use xlink:href="#f" x="95.08812" y="106.96293" fill="#007F7F"/><use xlink:href="#e" x="150.49065" y="53.54754" fill="#FF7F00"/><use xlink:href="#g" x="148.11602" y="53.76414" fill="#FF7F00"/><use xlink:href="#e" x="10.0851" y="76.05789" fill="#EC008C"/><use xlink:href="#f" x="6.91759" y="76.27648" fill="#EC008C"/><use xlink:href="#h" x="22.71575" y="76.27648" fill="#EC008C"/><use xlink:href="#e" x="41.24151" y="76.05789" fill="#EC008C"/><use xlink:href="#g" x="38.86489" y="76.27648" fill="#EC008C"/><use xlink:href="#h" x="85.3064" y="21.94104" fill="#00ADEF"/><use xlink:href="#e" x="101.06643" y="21.72245" fill="#00ADEF"/><use xlink:href="#g" x="98.68981" y="21.94104" fill="#00ADEF"/></svg>