<svg xmlns="http://www.w3.org/2000/svg" xmlns:xlink="http://www.w3.org/1999/xlink" width="227.171pt" height="159.139pt" viewBox="0 0 227.171 159.139"><defs><path id="b" d="M0-12.28125h5.76563l-.75 1.20313.53125.45312c.75-.82812 1.625-1.40625 2.78125-1.89062v-.71875c-1.17188-.5-2.03125-1.0625-2.78125-1.90625l-.53125.45312.75 1.21875L0-13.5Zm0 0"/><path id="c" d="M2.17188-1.25c0 .875.39062 1.46875 1.4375 1.46875 1.78125 0 3.73437-1.96875 4.84375-4.125H8.5l-.60937 2.125c-.10938.375-.15625.6875-.15625.96875 0 .65625.3125 1.03125 1 1.03125 1.34375 0 2.45312-1.26562 3.10937-2.65625l-.4375-.28125C11.03125-2.07812 10.20313-.75 9.6875-.75c-.23437 0-.34375-.15625-.34375-.42187 0-.15626.04688-.35938.10938-.57813l2-7.59375-1.67188.20313C9.25-7.23437 8.9375-6.23437 8.45313-5.10937 7.64063-3.23437 6.01563-.75 4.48438-.75c-.40625 0-.59375-.23437-.59375-.73437 0-.23438.03125-.53125.125-.89063L5.8125-9.25l-.10937-.09375-3.39063.5-.10937.46875 1.17187.09375c.26563.01563.375.14063.375.35938 0 .14062-.04687.3125-.10937.53125L2.35938-2.48437c-.125.4375-.1875.85937-.1875 1.23437m0 0"/><path id="d" d="M.5-.17187.6875 0h7.71875l.625-2.45312-.51562-.10938C8.125-1.54687 7.75-1.40625 7-1.40625H2.23438C2.53125-2.375 3.64063-3.70312 5.375-4.95312c1.78125-1.3125 3.17188-2.14063 3.17188-4.21875 0-2.59375-1.73438-3.48438-3.6875-3.48438-2.5625 0-3.875 1.54688-3.875 2.51563 0 .625.71875.92187 1.03125.92187.34375 0 .46875-.1875.54687-.51562C2.85938-11 3.59375-12 4.73438-12c1.42187 0 1.84375 1.1875 1.84375 2.54688 0 2-1.01563 3.14062-2.64063 4.5625C1.64063-2.89062.85938-1.625.5-.17187m0 0"/><path id="e" d="M1.57813-4.71875h10.25V-5.8125h-10.25Zm0 0"/><path id="f" d="M.5-1.90625c0 .79688 1.28125 2.125 3.92188 2.125 2.6875 0 4.39062-1.375 4.39062-3.75 0-2.48437-2.14062-3.21875-3.17187-3.32812v-.07813c1.01562-.15625 2.625-.90625 2.625-2.75 0-2.0625-1.60938-2.96875-3.60938-2.96875-2.45312 0-3.67187 1.42188-3.67187 2.21875 0 .57813.65625.89063.92187.89063.23438 0 .375-.14063.45313-.375C2.78125-11.1875 3.46875-12 4.51563-12c1.46875 0 1.84375 1.28125 1.84375 2.32813 0 1.10937-.39063 2.51562-1.98438 2.51562-.89062 0-1.40625-.17187-1.625-.17187-.23437 0-.32812.17187-.32812.51562 0 .3125.09375.51563.32812.51563.21875 0 .73438-.1875 1.625-.1875 1.59375 0 2.48438 1.4375 2.48438 3.0625 0 2.21875-1.09375 2.98437-2.42188 2.98437-1.23437 0-2.04687-.90625-2.39062-1.95312-.125-.35938-.29688-.54688-.5625-.54688C1.15625-2.9375.5-2.57812.5-1.90625m0 0"/><path id="g" d="M1.42188 0h4.35937v-.40625L4.75-.5c-.29687-.03125-.4375-.125-.4375-.60937v-7.6875l-.07812-.0625-2.8125.46875v.34375l1.125.15625c.25.03125.34375.14062.34375.53125v6.25c0 .48437-.125.57812-.4375.60937l-1.03125.09375Zm0 0"/><path id="h" d="M.375-.15625.53125 0h5.51563l.46875-1.85937-.39063-.0625c-.29687.6875-.53125.78125-1.0625.78125H1.73438c.20312-.625.90625-1.5 2.17187-2.34375 1.3125-.89063 2.25-1.5 2.25-2.92188 0-1.82812-1.23437-2.45312-2.67187-2.45312-1.78125 0-2.79688 1.01562-2.79688 1.8125 0 .46875.54688.6875.82813.6875.25 0 .375-.14063.42187-.39063.21875-.90625.70313-1.625 1.46875-1.625.90625 0 1.20313.78125 1.20313 1.73438 0 1.25-.57813 2.09375-1.79688 3.14062C1.15625-2.0625.5625-1.125.375-.15625m0 0"/><clipPath id="a"><path d="M.19922 0h225.94922v158.28125H.19922Zm0 0"/></clipPath></defs><g clip-path="url(#a)"><path fill="none" stroke="#000" stroke-miterlimit="10" stroke-opacity=".5" stroke-width=".39636" d="M.39842 146.80861h225.55474M.39842 112.97266h225.55474M.39842 79.14062h225.55474M.39842 45.3086h225.55474M.39842 11.47264h225.55474M11.67576 158.08596V.19529M45.5078 158.08596V.19529m33.83204 157.89067V.19529m33.83595 157.89067V.19529m33.83204 157.89067V.19529m33.83204 157.89067V.19529m33.83204 157.89067V.19529"/></g><path fill="none" stroke="#007F7F" stroke-miterlimit="10" stroke-width=".39636" d="m11.67576 79.14062 63.58986-31.79297"/><path fill="#007F7F" stroke="#007F7F" stroke-miterlimit="10" stroke-width=".39632" d="M78.67969 45.64062c-.47657.09375-2.64063.37891-4.14063.25782l1.44922 2.89453c.80469-1.27344 2.32813-2.83203 2.6914-3.15235Zm0 0"/><use xlink:href="#b" x="42.35687" y="54.78659" fill="#007F7F"/><use xlink:href="#c" x="39.18603" y="55.0054" fill="#007F7F"/><path fill="none" stroke="#FF7F00" stroke-miterlimit="10" stroke-width=".39636" d="M11.67576 112.97266 142.9297 47.34765"/><path fill="#FF7F00" stroke="#FF7F00" stroke-miterlimit="10" stroke-width=".39632" d="M146.34375 45.64062c-.47266.09375-2.63672.37891-4.13672.25782l1.44531 2.89453c.8047-1.27344 2.32813-2.83203 2.6914-3.15235Zm0 0"/><use xlink:href="#d" x="68.08368" y="71.92188" fill="#FF7F00"/><use xlink:href="#b" x="81.12313" y="71.70306" fill="#FF7F00"/><use xlink:href="#c" x="77.95229" y="71.92188" fill="#FF7F00"/><path fill="none" stroke="#EC008C" stroke-miterlimit="10" stroke-width=".39636" d="M214.6719 45.30859 15.74999 144.76955"/><path fill="#EC008C" stroke="#EC008C" stroke-miterlimit="10" stroke-width=".39632" d="M12.33594 146.47656c.47656-.09765 2.64062-.3789 4.13672-.26172l-1.44532-2.89062c-.80468 1.26953-2.32812 2.82812-2.6914 3.15234Zm0 0"/><g fill="#EC008C"><use xlink:href="#e" x="95.21788" y="88.83835"/><use xlink:href="#f" x="108.61488" y="88.83835"/></g><use xlink:href="#b" x="121.65484" y="88.61954" fill="#EC008C"/><use xlink:href="#c" x="118.484" y="88.83835" fill="#EC008C"/><path fill="none" stroke="#00ADEF" stroke-miterlimit="10" stroke-width=".39636" d="m180.83987 146.80861 29.75782-14.87891"/><path fill="#00ADEF" stroke="#00ADEF" stroke-miterlimit="10" stroke-width=".39632" d="M214.01172 130.22265c-.47656.09766-2.64063.37891-4.13672.26173l1.44531 2.89062c.80469-1.26953 2.32813-2.83203 2.6914-3.15235Zm0 0"/><use xlink:href="#g" x="187.91535" y="116.40421" fill="#00ADEF"/><path fill="none" stroke="#00ADEF" stroke-miterlimit="10" stroke-width="1.0901" d="M187.91406 119.1211h7.03516"/><use xlink:href="#h" x="187.91535" y="131.34736" fill="#00ADEF"/><use xlink:href="#b" x="200.49927" y="124.15229" fill="#00ADEF"/><use xlink:href="#c" x="197.32842" y="124.37111" fill="#00ADEF"/></svg>