<svg xmlns="http://www.w3.org/2000/svg" xmlns:xlink="http://www.w3.org/1999/xlink" width="138.095pt" height="159.83pt" viewBox="0 0 138.095 159.83"><defs><path id="c" d="M0-13.8125h6.48438l-.84375 1.35938.59375.51562c.84375-.9375 1.82812-1.57812 3.125-2.14062v-.79688c-1.32813-.5625-2.28125-1.20312-3.125-2.14062L5.64063-16.5l.84375 1.35938L0-15.15625Zm0 0"/><path id="d" d="M2.45313-1.40625C2.45313-.42187 2.875.25 4.04688.25 6.0625.25 8.26563-1.95312 9.5-4.39062h.04688L8.85938-2c-.10938.42188-.17188.78125-.17188 1.09375C8.6875-.17187 9.04688.25 9.8125.25c1.51563 0 2.76563-1.4375 3.5-2.98437l-.48437-.3125c-.42188.70312-1.35938 2.20312-1.9375 2.20312-.26563 0-.375-.1875-.375-.46875 0-.17187.03125-.40625.10937-.64062l2.25-8.5625-1.875.25c-.60937 2.14062-.95312 3.25-1.5 4.51562C8.59375-3.625 6.76563-.84375 5.03125-.84375c-.4375 0-.67187-.26562-.67187-.82812 0-.26563.04687-.59375.15625-1l2.01562-7.71875-.125-.125-3.79687.57812-.14063.51563 1.3125.10937c.3125.03125.42188.15625.42188.40625 0 .15625-.04688.35938-.10938.59375l-1.4375 5.53125c-.14062.48438-.20312.95313-.20312 1.375m0 0"/><path id="e" d="M1.78125-5.29687h11.51563v-1.23438H1.78125Zm0 0"/><path id="f" d="M1.59375 0H6.5v-.45312L5.32813-.5625C5-.59375 4.84375-.70312 4.84375-1.25v-8.64062L4.75-9.96875l-3.14062.53125v.39063L2.875-8.875c.28125.04688.375.15625.375.60938V-1.25c0 .54688-.14062.65625-.48437.6875l-1.17188.10938Zm0 0"/><path id="g" d="M.42188-.17187.59375 0h6.20313l.53125-2.09375-.4375-.07812c-.34375.78125-.60938.89062-1.20313.89062H1.95313c.23437-.70312 1.01562-1.6875 2.42187-2.625 1.48438-1 2.54688-1.6875 2.54688-3.29687 0-2.04688-1.39063-2.76563-3.01563-2.76563-1.98437 0-3.125 1.15625-3.125 2.04688 0 .53125.60938.78125.92188.78125.28124 0 .42187-.15625.48437-.4375.23438-1.03125.78125-1.84375 1.64063-1.84375 1.01562 0 1.34375.89062 1.34375 1.95312 0 1.42188-.64063 2.35938-2 3.54688-1.875 1.59375-2.53125 2.65625-2.75 3.75m0 0"/><clipPath id="a"><path d="M0 .4375h130v158.78906H0Zm0 0"/></clipPath><clipPath id="b"><path d="M117 .4375h16V11h-16Zm0 0"/></clipPath></defs><g clip-path="url(#a)"><path fill="none" stroke="#007F7F" stroke-miterlimit="10" stroke-width=".39591" d="M.19922 159.02734 124.07029 4.18754"/></g><path fill="#007F7F" d="M126.45313 1.21094c-.39063.28515-2.23438 1.44531-3.64454 1.96875l2.52344 2.01562c.19531-1.48828.92578-3.54297 1.1211-3.98437m0 0"/><g clip-path="url(#b)"><path fill="none" stroke="#007F7F" stroke-miterlimit="10" stroke-width=".39588" d="M126.45312 1.21094c-.39062.28516-2.23437 1.44531-3.64453 1.96875l2.52344 2.01562c.19531-1.48828.92578-3.54297 1.1211-3.98437Zm0 0"/></g><path fill="none" stroke="#FF7F00" stroke-miterlimit="10" stroke-width=".39591" d="m111.0742 63.9883-60.51562 75.64452"/><path fill="#FF7F00" stroke="#FF7F00" stroke-miterlimit="10" stroke-width=".39588" d="M48.17969 142.60937c.39062-.28515 2.23047-1.44921 3.64062-1.96875l-2.51953-2.01562c-.19922 1.48828-.92969 3.54297-1.1211 3.98437Zm0 0"/><use xlink:href="#c" x="45.04232" y="71.47183" fill="#007F7F"/><use xlink:href="#d" x="41.47917" y="71.71772" fill="#007F7F"/><use xlink:href="#e" x="87.26313" y="130.37134" fill="#FF7F00"/><use xlink:href="#f" x="104.98946" y="121.41876" fill="#FF7F00"/><path fill="none" stroke="#FF7F00" stroke-miterlimit="10" stroke-width="1.22497" d="M104.98828 124.46875h7.90625"/><use xlink:href="#g" x="104.98946" y="138.21071" fill="#FF7F00"/><use xlink:href="#c" x="119.12805" y="130.12545" fill="#FF7F00"/><use xlink:href="#d" x="115.5649" y="130.37134" fill="#FF7F00"/></svg>