<svg xmlns="http://www.w3.org/2000/svg" xmlns:xlink="http://www.w3.org/1999/xlink" width="74.114pt" height="47.359pt" viewBox="0 0 74.114 47.359"><defs><clipPath id="a"><path d="M.0586 0h73.125v43H.0586Zm0 0"/></clipPath><clipPath id="b"><path d="M62 0h11.1836v10H62Zm0 0"/></clipPath><clipPath id="c"><path d="M.0586 4h73.125v42.72656H.0586Zm0 0"/></clipPath><clipPath id="d"><path d="M.0586 42H6v4H.0586Zm0 0"/></clipPath><clipPath id="e"><path d="M.0586 37H11v9.72656H.0586Zm0 0"/></clipPath><path id="f" d="M0-7.92187h3.71875l-.48437.78125.34375.29687C4.0625-7.39062 4.625-7.76562 5.375-8.07812v-.45313c-.76562-.32812-1.3125-.70312-1.79687-1.23437l-.34375.29687.48437.78125L0-8.70312Zm0 0"/><path id="g" d="M1.40625-.8125c0 .5625.25.95313.92188.95313 1.14062 0 2.40625-1.26563 3.125-2.65625h.03125l-.39063 1.35937c-.07812.25-.10937.45313-.10937.625 0 .42188.20312.67188.65625.67188.85937 0 1.57812-.8125 2-1.71875L7.35938-1.75C7.125-1.34375 6.57813-.48437 6.25-.48437c-.15625 0-.21875-.10938-.21875-.26563 0-.10937.03125-.23437.0625-.375l1.29688-4.90625-1.07813.14063c-.34375 1.21875-.54687 1.85937-.85937 2.59375-.51563 1.21875-1.5625 2.8125-2.5625 2.8125-.25 0-.39063-.15625-.39063-.46875 0-.15626.03125-.34375.09375-.57813L3.75-5.96875l-.0625-.0625L1.5-5.70312l-.07812.29687.75.0625c.1875.01563.25.09375.25.23438 0 .09375-.03125.20312-.0625.34375l-.84375 3.17187c-.07813.28125-.10938.54688-.10938.78125m0 0"/><path id="h" d="M1.01563-3.04687H7.625V-3.75H1.01563Zm0 0"/></defs><g clip-path="url(#a)"><path fill="none" stroke="#007f7f" stroke-miterlimit="10" stroke-width=".39318" d="M.2539 37 68.94143 2.65624"/></g><path fill="#007f7f" d="M72.32813.96094c-.47266.09765-2.6172.3789-4.10547.26172l1.4375 2.86718c.79687-1.2578 2.30859-2.80859 2.66796-3.1289m0 0"/><g clip-path="url(#b)"><path fill="none" stroke="#007f7f" stroke-miterlimit="10" stroke-width=".39315" d="M72.32813.96094c-.47266.09766-2.6172.3789-4.10547.26172l1.4375 2.86718c.79687-1.2578 2.3086-2.80859 2.66797-3.1289Zm0 0"/></g><g clip-path="url(#c)"><path fill="none" stroke="#ff7f00" stroke-miterlimit="10" stroke-width=".39318" d="M72.98439 9.72656 4.29688 44.0703"/></g><g clip-path="url(#d)"><path fill="#ff7f00" d="M.91016 45.76172c.47265-.09375 2.61718-.375 4.10547-.25781l-1.4336-2.8672c-.80078 1.25782-2.3125 2.8086-2.67187 3.125m0 0"/></g><g clip-path="url(#e)"><path fill="none" stroke="#ff7f00" stroke-miterlimit="10" stroke-width=".39315" d="M.91016 45.76172c.47265-.09375 2.61718-.375 4.10546-.25781l-1.43359-2.8672c-.80078 1.25782-2.3125 2.8086-2.67187 3.125Zm0 0"/></g><use xlink:href="#f" x="25.9969" y="14.02251" fill="#007f7f"/><use xlink:href="#g" x="23.95237" y="14.16231" fill="#007f7f"/><use xlink:href="#h" x="41.13481" y="42.32711" fill="#ff7f00"/><use xlink:href="#f" x="51.81663" y="42.18602" fill="#ff7f00"/><use xlink:href="#g" x="49.7721" y="42.32711" fill="#ff7f00"/></svg>