<svg xmlns="http://www.w3.org/2000/svg" width="232.841pt" height="102.092pt" viewBox="0 0 232.841 102.092"><defs><clipPath id="a"><path d="M.94922 0h230.78516v101.1914H.94922Zm0 0"/></clipPath></defs><g clip-path="url(#a)"><path fill="none" stroke="#000" stroke-miterlimit="10" stroke-opacity=".5" stroke-width=".39499" d="M1.14459 93.79685H231.539M1.14459 72.1953H231.539M1.14459 50.59766H231.539M1.14459 28.9961H231.539M1.14459 7.39846H231.539M8.3438 100.99607V.19534m21.60155 100.80073V.19534M51.543 100.99607V.19534m21.60155 100.80073V.19534M94.7422 100.99607V.19534m21.60155 100.80073V.19534m21.59765 100.80073V.19534m21.60155 100.80073V.19534m21.59764 100.80073V.19534m21.60156 100.80073V.19534m21.59764 100.80073V.19534"/></g><path fill="none" stroke="#007F7F" stroke-miterlimit="10" stroke-width=".39499" d="m8.3438 72.1953 61.0195-40.67967"/><path fill="#007F7F" stroke="#007F7F" stroke-miterlimit="10" stroke-width=".39497" d="M72.52734 29.40625c-.45703.15234-2.55859.70313-4.05859.76953l1.78906 2.67969c.63672-1.35547 1.95313-3.08594 2.26953-3.44922Zm0 0"/><path fill="none" stroke="#007F7F" stroke-miterlimit="10" stroke-width=".39499" d="m116.34375 28.9961 17.8203-11.8789"/><path fill="#007F7F" stroke="#007F7F" stroke-miterlimit="10" stroke-width=".39497" d="M137.32812 15.00781c-.45703.15235-2.5625.69922-4.05859.76953l1.78516 2.6797c.64062-1.35548 1.95312-3.08595 2.27343-3.44923Zm0 0"/><path fill="none" stroke="#FF7F00" stroke-miterlimit="10" stroke-width=".39499" d="m73.14455 72.1953 19.5664-39.1367"/><path fill="#FF7F00" stroke="#FF7F00" stroke-miterlimit="10" stroke-width=".39496" d="M94.41406 29.65625c-.32422.36328-1.8789 1.8789-3.14453 2.6836l2.88281 1.4414c-.11718-1.4961.16407-3.65234.26172-4.125Zm0 0"/><path fill="none" stroke="#FF7F00" stroke-miterlimit="10" stroke-width=".39499" d="m159.54295 93.79685 41.16795-82.3359"/><path fill="#FF7F00" stroke="#FF7F00" stroke-miterlimit="10" stroke-width=".39496" d="M202.41016 8.0586c-.32032.35937-1.875 1.8789-3.14063 2.67968l2.88281 1.4414c-.12109-1.49218.16016-3.64843.25782-4.12109Zm0 0"/><path fill="none" stroke="#EC008C" stroke-miterlimit="10" stroke-width=".39499" d="m137.9414 7.39846 18.3867 18.3867"/><path fill="#EC008C" stroke="#EC008C" stroke-miterlimit="10" stroke-width=".39499" d="M159.01953 28.47656c-.24218-.42187-1.1914-2.375-1.55078-3.83203l-2.27734 2.28125c1.45312.35938 3.41015 1.3086 3.82812 1.55078Zm0 0"/><path fill="none" stroke="#EC008C" stroke-miterlimit="10" stroke-width=".39499" d="M94.7422 50.59766 134.73046 90.582"/><path fill="#EC008C" stroke="#EC008C" stroke-miterlimit="10" stroke-width=".39498" d="M137.42187 93.27344c-.24218-.41797-1.1914-2.375-1.55468-3.82813l-2.27735 2.27735c1.45704.35937 3.41016 1.30859 3.83203 1.55078Zm0 0"/><path fill="none" stroke="#007F7F" stroke-miterlimit="10" stroke-width=".39499" d="m202.74215 50.59766-19.5703 39.1367"/><path fill="#007F7F" stroke="#007F7F" stroke-miterlimit="10" stroke-width=".39496" d="M181.47266 93.13672c.3203-.36328 1.875-1.88281 3.14062-2.6836l-2.88281-1.4414c.11719 1.4961-.16406 3.64844-.25781 4.125Zm0 0"/></svg>