<svg xmlns="http://www.w3.org/2000/svg" xmlns:xlink="http://www.w3.org/1999/xlink" width="174.514pt" height="124.767pt" viewBox="0 0 174.514 124.767"><defs><path id="b" d="M0-8.01562h3.76563l-.5.79687.35937.29688c.48438-.54688 1.04688-.92188 1.79688-1.25V-8.625c-.75-.32812-1.3125-.70312-1.79688-1.25l-.35937.29688.5.79687L0-8.79687Zm0 0"/><path id="c" d="M1.42188-.8125c0 .5625.25.95313.9375.95313 1.15625 0 2.4375-1.28125 3.15625-2.6875h.03125l-.40625 1.39062c-.0625.23438-.09375.45313-.09375.625 0 .42188.20312.67188.65625.67188.875 0 1.59375-.82813 2.03125-1.73438l-.29688-.17187c-.23437.40625-.78125 1.28125-1.125 1.28125-.15625 0-.21875-.10938-.21875-.28125 0-.09376.03125-.23438.0625-.375l1.3125-4.95313-1.07812.14063c-.35938 1.23437-.5625 1.875-.875 2.625C4.98438-2.10937 3.92188-.48437 2.92188-.48437c-.26563 0-.39063-.15625-.39063-.48438 0-.15625.03125-.34375.09375-.57812l1.15625-4.48438-.0625-.0625-2.20312.32813-.07813.29687.76563.0625c.17187.01563.23437.09375.23437.23438 0 .09375-.01562.20312-.0625.35937l-.84375 3.20313c-.07812.28124-.10937.54687-.10937.79687m0 0"/><clipPath id="a"><path d="M0 .0586h174.03125v124.41796H0Zm0 0"/></clipPath></defs><g clip-path="url(#a)"><path fill="none" stroke="#7f7f7f" stroke-dasharray=".39739217000000004 .9935103416000001" stroke-miterlimit="10" stroke-width=".39739" d="M.19921 111.87891h173.63284M.1992 87.07422h173.63284M.1992 62.26953h173.63284M.1992 37.46484h173.63284M.1992 12.65624h173.63284M12.60155 124.28126V.2539m24.8047 124.02736V.2539m24.80469 124.02736V.2539m24.80469 124.02736V.2539m24.80469 124.02736V.2539M136.625 124.28126V.2539m24.8047 124.02736V.2539"/></g><path fill="none" stroke="#000" stroke-miterlimit="10" stroke-width=".39739" d="M12.58984 62.26953 58.12109 39.5"/><path stroke="#000" stroke-miterlimit="10" stroke-width=".39736" d="M61.54687 37.78906c-.47656.09766-2.64453.38282-4.14843.26172l1.44922 2.90234c.80468-1.27734 2.33593-2.83984 2.69921-3.16406Zm0 0"/><use xlink:href="#b" x="35.34676" y="45.01487"/><use xlink:href="#c" x="33.28032" y="45.15747"/></svg>