<svg xmlns="http://www.w3.org/2000/svg" xmlns:xlink="http://www.w3.org/1999/xlink" width="108.525pt" height="78.319pt" viewBox="0 0 108.525 78.319"><defs><clipPath id="a"><path d="M35 26h37v51.64453H35Zm0 0"/></clipPath><clipPath id="b"><path d="M62 22h45.82031v30H62Zm0 0"/></clipPath><clipPath id="c"><path d="M97 38h10.82031v16H97Zm0 0"/></clipPath><clipPath id="d"><path d="M24 7h24v70.64453H24Zm0 0"/></clipPath><path id="e" d="M0-7.65625h3.59375l-.46875.75.32813.29688C3.92188-7.14062 4.46875-7.5 5.1875-7.79687V-8.25c-.73437-.29687-1.26562-.65625-1.73437-1.1875l-.32813.29688.46875.75L0-8.40625Zm0 0"/><path id="f" d="M1.35938-.78125c0 .54688.23437.92188.89062.92188 1.10938 0 2.32813-1.23438 3.01563-2.57813h.03125l-.39063 1.32813Q4.8125-.75781 4.8125-.5c0 .40625.20313.64063.625.64063.84375 0 1.53125-.79688 1.9375-1.65625l-.26562-.17188c-.23438.39063-.75 1.21875-1.07813 1.21875-.14062 0-.20312-.09375-.20312-.26562 0-.09376.01562-.21876.0625-.35938l1.25-4.73437-1.04688.14062c-.32812 1.1875-.53125 1.79688-.82812 2.5-.5 1.17188-1.51563 2.71875-2.46875 2.71875-.25 0-.375-.14062-.375-.45312 0-.15626.01562-.34375.07812-.5625l1.10938-4.28125-.04688-.0625L1.4375-5.5l-.0625.28125.71875.0625c.17188.01563.23438.07813.23438.21875 0 .09375-.01563.20313-.0625.32813l-.79688 3.0625c-.07812.28124-.10937.53125-.10937.76562m0 0"/><path id="g" d="m1.35938-5.21875.71875.0625c.17187.01563.21875.07813.21875.20313 0 .09375-.01563.20312-.04688.34375L1.54688-1.375c-.04688.21875-.07813.40625-.07813.57813 0 .65625.34375.9375.875.9375 1 0 2-.9375 2.79688-2S6.5-4.20312 6.5-4.92187c0-.45313-.25-.90625-.35937-.90625-.28125 0-.59375.09375-.84375.25.10937.40625.14062.84375.14062 1.4375C5.34375-2.5625 3.84375-.46875 2.90625-.46875c-.25 0-.40625-.15625-.40625-.5 0-.07812 0-.1875.03125-.29687l1.01563-4.5-.0625-.0625L1.4375-5.5Zm0 0"/><path id="h" d="M.98438-2.9375H7.375v-.67187H.98438Zm0 0"/></defs><g clip-path="url(#a)"><path fill="none" stroke="#007F7F" stroke-miterlimit="10" stroke-width=".39506" d="m41.48438 77.44531 24.79297-45.35548"/></g><path fill="#007F7F" stroke="#007F7F" stroke-miterlimit="10" stroke-width=".39505" d="M68.10156 28.75c-.33594.35156-1.94531 1.8125-3.23828 2.5664l2.82813 1.54688c-.0625-1.5.29687-3.64062.41015-4.11328Zm0 0"/><g clip-path="url(#b)"><path fill="none" stroke="#FF7F00" stroke-miterlimit="10" stroke-width=".39506" d="m68.45704 28.10155 35.1172 17.79297"/></g><path fill="#FF7F00" d="M106.96875 47.61719c-.36328-.32422-1.8711-1.88672-2.66797-3.16016l-1.45703 2.8789c1.4961-.11327 3.64844.1797 4.125.28126m0 0"/><g clip-path="url(#c)"><path fill="none" stroke="#FF7F00" stroke-miterlimit="10" stroke-width=".39505" d="M106.96875 47.61719c-.36328-.32422-1.8711-1.88672-2.66797-3.16016l-1.45703 2.8789c1.4961-.11327 3.64844.1797 4.125.28126Zm0 0"/></g><g clip-path="url(#d)"><path fill="none" stroke="#EC008C" stroke-miterlimit="10" stroke-width=".39506" d="M41.48438 77.44531 30.07422 12.73045"/></g><path fill="#EC008C" stroke="#EC008C" stroke-miterlimit="10" stroke-width=".39506" d="M29.41406 8.98437c-.04297.48047-.38672 2.62891-.92578 4.02735l3.17578-.5586c-.98828-1.1328-2.04687-3.03125-2.25-3.46875Zm0 0"/><path fill="none" stroke="#00ADEF" stroke-miterlimit="10" stroke-width=".39506" d="m68.45704 28.10155-35.1172-17.79297"/><path fill="#00ADEF" stroke="#00ADEF" stroke-miterlimit="10" stroke-width=".39505" d="M29.94531 8.58984c.35938.32422 1.8711 1.88672 2.66407 3.16016l1.45703-2.8789c-1.4961.11328-3.64844-.1797-4.1211-.28126Zm0 0"/><use xlink:href="#e" x="61.30774" y="66.56867" fill="#007F7F"/><use xlink:href="#f" x="59.33242" y="66.70499" fill="#007F7F"/><use xlink:href="#e" x="93.88299" y="33.39314" fill="#FF7F00"/><use xlink:href="#g" x="92.40088" y="33.52945" fill="#FF7F00"/><use xlink:href="#e" x="6.32285" y="47.43207" fill="#EC008C"/><use xlink:href="#f" x="4.34752" y="47.56838" fill="#EC008C"/><use xlink:href="#h" x="14.19959" y="47.56838" fill="#EC008C"/><use xlink:href="#e" x="25.75265" y="47.43207" fill="#EC008C"/><use xlink:href="#g" x="24.27054" y="47.56838" fill="#EC008C"/><use xlink:href="#h" x="53.23246" y="13.68302" fill="#00ADEF"/><use xlink:href="#e" x="63.05951" y="13.54795" fill="#00ADEF"/><use xlink:href="#g" x="61.57863" y="13.68302" fill="#00ADEF"/></svg>