<svg xmlns="http://www.w3.org/2000/svg" xmlns:xlink="http://www.w3.org/1999/xlink" width="122.882pt" height="104.156pt" viewBox="0 0 122.882 104.156"><defs><path id="a" d="m1.6875-1.26562.46875.48437L4.17188-2.8125 6.20313-.78125l.46875-.48437-2.01563-2.01563 2.01563-2.01562-.46875-.46875L4.17188-3.75 2.15625-5.76562l-.46875.46875 2.01563 2.01562Zm0 0"/><path id="b" d="M-.21875 0h2.60938l.07812-.32812-.64062-.0625C1.6875-.40625 1.625-.48437 1.625-.59375c0-.0625.01563-.14062.0625-.23437.375-.73438.75-1.5 1.1875-2.28125h2.59375l.29688 2.40625s-.0625.28124-.3125.3125l-.625.0625L4.76563 0H7.625l.07813-.32812L7.25-.375c-.35937-.03125-.40625-.1875-.46875-.67187L5.9375-8.03125h-.82812L3.15625-4.60937c-.59375 1.03125-1.5625 2.76562-2 3.45312-.35937.60938-.5625.73438-.92187.76563l-.375.0625Zm3.32813-3.54687L5-6.95312l.40625 3.40625Zm0 0"/><path id="c" d="M0 0h3.51563c2.8125 0 3.375-1.45312 3.375-2.40625 0-1.23437-.89063-1.76562-1.75-1.92187l.01562-.01563c1.54688-.1875 2.20313-1.0625 2.20313-1.95312 0-.9375-.5625-1.73438-2.70313-1.73438h-2.9375l-.07812.32813.6875.0625c.20312.01562.29687.09375.29687.28125 0 .07812-.03125.17187-.04687.29687l-1.375 6.09375C1.10937-.57812 1-.4375.71875-.40625L.0625-.32812Zm2.32813-.89062c0-.07813 0-.17188.03125-.26563L3.03125-4.125h.45313c1.15625 0 2.15625.32813 2.15625 1.65625 0 1.03125-.625 2.0625-2.1875 2.0625-.90625 0-1.125-.1875-1.125-.48437m.78125-3.64063.60937-2.70312c.09375-.34375.15625-.40625.92188-.40625.98437 0 1.53125.5 1.53125 1.3125 0 1.21875-1.01563 1.79687-2.29688 1.79687Zm0 0"/><path id="d" d="M.60938-3.1875c0 1.53125.75 3.35938 3.625 3.35938.82812 0 1.625-.10938 2.35937-.48438l.57813-1.84375h-.34375C6.1875-1 5.59375-.23437 4.17188-.23437c-1.35938 0-2.3125-.85938-2.3125-2.65625 0-1.04688.26562-2.34375.82812-3.26563C3.26563-7.125 4.17188-7.8125 5.42188-7.8125c1.46875 0 1.89062.6875 1.89062 1.95313h.35938l.42187-1.73438c-.67187-.42187-1.75-.625-2.5625-.625-2.1875 0-3.45312 1.03125-4.14062 2.10938C.75-5.0625.60938-3.98437.60938-3.1875m0 0"/><path id="e" d="M0 0h3.5625c2.32813 0 3.67188-.84375 4.51563-2.09375.65625-1.01562.76562-1.98437.76562-2.67187 0-.9375-.32812-1.89063-1-2.4375-.67187-.57813-1.71875-.82813-3-.82813h-3.125l-.07812.32813.6875.04687c.20312.01563.28125.10938.28125.29688 0 .07812-.01563.17187-.03125.29687L1.1875-.96875C1.09375-.57812 1-.4375.71875-.40625L.0625-.32812Zm2.29688-.85937c0-.04688 0-.09376.01562-.14063l1.39063-6.20312c.10937-.39063.26562-.4375 1.28125-.4375 2.42187.04687 2.60937 1.6875 2.60937 2.60937 0 1-.23437 1.9375-.75 2.8125C6.1875-1.14062 5.1875-.40625 3.26563-.40625c-.57813 0-.96875-.07812-.96875-.45312m0 0"/><path id="f" d="M.125 0h6.0625l.57813-2.04687h-.34375C5.82813-.60937 5.3125-.40625 3.875-.40625c-1.35937 0-1.4375-.17187-1.4375-.48437 0-.125.03125-.29688.07813-.53125l.59375-2.54688h1.53125c.85937 0 1.01562.17188 1.01562.6875 0 .09375 0 .1875-.01562.3125H6l.53125-2.42187H6.1875c-.29687.8125-.42187.98437-1.45312.98437H3.21875L3.875-7.29687c.0625-.28125.125-.34375.32813-.34375h1.39062c1.14063 0 1.375.29687 1.375.92187 0 .29688-.03125.60938-.03125.60938h.34375l.4375-1.92188h-5.875L1.75-7.70312l.70313.04687c.20312.01563.29687.10938.29687.29688 0 .0625-.01562.15625-.04687.26562l-1.375 6.125c-.10938.40625-.20313.53125-.48438.5625L.1875-.32812Zm0 0"/></defs><path fill="none" stroke="#000" stroke-miterlimit="10" stroke-width=".3953" d="M16.88672 16.51172 87.1836 34.08594l17.57422 35.14844-70.29688-17.57422Zm0 0"/><use xlink:href="#a" x="12.70988" y="19.39484"/><use xlink:href="#b" x="4.55298" y="12.14657"/><use xlink:href="#a" x="83.00625" y="36.96943"/><use xlink:href="#c" x="91.54605" y="29.72017"/><use xlink:href="#a" x="30.28348" y="54.54402"/><use xlink:href="#d" x="22.26247" y="64.23846"/><use xlink:href="#a" x="100.57985" y="72.11761"/><use xlink:href="#e" x="109.11965" y="81.62755"/><use xlink:href="#a" x="47.85807" y="89.6922"/><use xlink:href="#f" x="39.83706" y="99.20115"/></svg>