<svg xmlns="http://www.w3.org/2000/svg" xmlns:xlink="http://www.w3.org/1999/xlink" width="232.841pt" height="163.109pt" viewBox="0 0 232.841 163.109"><defs><path id="b" d="M0-12.28125h5.76563l-.75 1.20313.53125.45312c.75-.82812 1.625-1.40625 2.78125-1.89062v-.71875c-1.17188-.5-2.03125-1.0625-2.78125-1.90625l-.53125.45312.75 1.21875L0-13.5Zm0 0"/><path id="c" d="M2.17188-1.25c0 .875.39062 1.46875 1.4375 1.46875 1.78125 0 3.73437-1.96875 4.84375-4.125H8.5l-.60937 2.125c-.10938.375-.15625.6875-.15625.96875 0 .65625.3125 1.03125 1 1.03125 1.34375 0 2.45312-1.26562 3.10937-2.65625l-.4375-.28125C11.03125-2.07812 10.20313-.75 9.6875-.75c-.23437 0-.34375-.15625-.34375-.42187 0-.15626.04688-.35938.10938-.57813l2-7.59375-1.67188.20313C9.25-7.23437 8.9375-6.23437 8.45313-5.10937 7.64063-3.23437 6.01563-.75 4.48438-.75c-.40625 0-.59375-.23437-.59375-.73437 0-.23438.03125-.53125.125-.89063L5.8125-9.25l-.10937-.09375-3.39063.5-.10937.46875 1.17187.09375c.26563.01563.375.14063.375.35938 0 .14062-.04687.3125-.10937.53125L2.35938-2.48437c-.125.4375-.1875.85937-.1875 1.23437m0 0"/><clipPath id="a"><path d="M.55469 0H232.1289v162.22266H.55469Zm0 0"/></clipPath></defs><g clip-path="url(#a)"><path fill="none" stroke="#000" stroke-miterlimit="10" stroke-opacity=".5" stroke-width=".39634" d="M.75 150.46874h231.18358M.75001 115.78906h231.18357M.75001 81.11328h231.18357M.75001 46.4336h231.18357M.75001 11.75782h231.18357M12.3086 162.02734V.19923m34.67968 161.8281V.19924m34.67578 161.8281V.19924m34.67969 161.8281V.19924m34.67578 161.8281V.19924m34.67577 161.8281V.19924m34.67969 161.8281V.19924"/></g><path fill="none" stroke="#000" stroke-miterlimit="10" stroke-width=".39634" d="m12.31641 81.11328 65.27343-32.63671"/><path stroke="#000" stroke-miterlimit="10" stroke-width=".3963" d="M81.0039 46.76953c-.47656.09766-2.64062.3789-4.14062.26172l1.44922 2.89062c.80469-1.26953 2.32813-2.83203 2.6914-3.15234Zm0 0"/><use xlink:href="#b" x="43.83998" y="56.33825"/><use xlink:href="#c" x="40.6693" y="56.55506"/></svg>