<svg xmlns="http://www.w3.org/2000/svg" xmlns:xlink="http://www.w3.org/1999/xlink" width="92.865pt" height="92.334pt" viewBox="0 0 92.865 92.334"><defs><path id="a" d="m1.75-1.3125.5.5 2.09375-2.10937L6.45313-.8125l.48437-.5-2.09375-2.09375L6.9375-5.51562 6.45313-6 4.34375-3.90625 2.25-6l-.5.48438 2.10938 2.10937Zm0 0"/><path id="b" d="M.39063-3.26562c0 2 1.14062 3.45312 3.54687 3.45312 2.125 0 3.17188-1.09375 3.84375-2.29687.65625-1.1875.76563-2.42188.76563-2.89063 0-2.48437-1.5-3.54687-3.5-3.54687-1.92188 0-3.125 1.0625-3.82813 2.21875-.67187 1.125-.82812 2.26562-.82812 3.0625m1.26562.48437c0-1.01562.20313-2.14062.75-3.3125C2.95313-7.23437 3.8125-8.125 5.10938-8.125c1.3125 0 2.17187.78125 2.17187 2.5 0 .6875-.0625 1.67188-.5625 2.96875C6.21875-1.35937 5.39063-.25 3.8125-.25 2.5-.25 1.65625-1.09375 1.65625-2.78125m0 0"/><path id="c" d="M.625-3.3125c0 1.59375.79688 3.5 3.78125 3.5.85938 0 1.6875-.125 2.45313-.51562L7.45313-2.25h-.35938c-.67187 1.20313-1.26562 2-2.76562 2-1.39063 0-2.40625-.89062-2.40625-2.76562 0-1.09375.29687-2.42188.875-3.39063C3.39063-7.42187 4.34375-8.125 5.64063-8.125c1.53125 0 1.96875.70313 1.96875 2.03125h.375l.4375-1.8125c-.6875-.4375-1.82813-.64062-2.67188-.64062-2.28125 0-3.59375 1.0625-4.29687 2.1875C.78125-5.26562.625-4.15625.625-3.3125m0 0"/><path id="d" d="M0 0h3.70313c2.42187 0 3.8125-.875 4.6875-2.1875.70312-1.04687.8125-2.0625.8125-2.78125 0-.96875-.34375-1.95312-1.03125-2.53125-.71875-.59375-1.79688-.85937-3.125-.85937H1.78125l-.07812.34375.73437.0625c.20313 0 .28125.10937.28125.29687 0 .07813-.01562.1875-.04687.29688L1.23438-1c-.09376.39063-.1875.54688-.48438.57813l-.6875.07812Zm2.39063-.89062c0-.04688 0-.09376.01562-.15626L3.85938-7.5c.09375-.40625.26562-.45312 1.32812-.45312 2.51563.0625 2.71875 1.75 2.71875 2.71875 0 1.04687-.23437 2.01562-.78125 2.92187-.70312 1.125-1.71875 1.89063-3.73437 1.89063-.59375 0-1-.07813-1-.46875m0 0"/><path id="e" d="M-.23437 0H2.5l.07813-.34375-.67188-.0625C1.75-.42187 1.6875-.5 1.6875-.625c0-.0625.01563-.14062.0625-.23437.39063-.78125.78125-1.5625 1.23438-2.375h2.71875L6-.73437s-.07812.29687-.32812.32812l-.64063.0625L4.96875 0H7.9375l.07813-.34375-.46875-.04687c-.375-.03125-.42188-.20313-.48438-.70313l-.89062-7.26562H5.3125l-2.03125 3.5625c-.625 1.07812-1.625 2.875-2.07812 3.59375C.82813-.5625.625-.4375.25-.40625l-.40625.0625Zm3.46875-3.6875L5.1875-7.23437 5.625-3.6875Zm0 0"/><path id="f" d="M0 0h3.67188c2.90625 0 3.5-1.5 3.5-2.5 0-1.28125-.9375-1.82812-1.82813-2l.01563-.03125c1.60937-.1875 2.29687-1.09375 2.29687-2.01562 0-.96875-.57812-1.8125-2.8125-1.8125h-3.0625l-.07812.34375.73437.0625c.20313.01562.28125.10937.28125.29687 0 .07813-.01562.1875-.04687.29688L1.25-1c-.09375.39063-.20312.53125-.5.57813l-.6875.07812Zm2.42188-.92187c0-.09376.01562-.1875.03125-.28126l.70312-3.09374H3.625c1.20313 0 2.25.34375 2.25 1.71875 0 1.09375-.65625 2.15625-2.28125 2.15625-.9375 0-1.17187-.20313-1.17187-.5m.8125-3.79688L3.875-7.51562c.07813-.35938.15625-.4375.95313-.4375 1.01562 0 1.59375.51562 1.59375 1.375 0 1.25-1.0625 1.85937-2.39063 1.85937Zm0 0"/></defs><use xlink:href="#a" x="42.6756" y="49.02538"/><use xlink:href="#b" x="42.55249" y="41.30011"/><path fill="none" stroke="#000" stroke-miterlimit="10" stroke-width=".39565" d="M75.48438 17.55859h-56.9258v56.9297h56.9258Zm0 0"/><use xlink:href="#c" x="80.02718" y="12.83641"/><use xlink:href="#d" x="4.55159" y="13.01711"/><use xlink:href="#e" x="5.72115" y="87.38668"/><use xlink:href="#f" x="80.02718" y="87.38668"/></svg>