<svg xmlns="http://www.w3.org/2000/svg" xmlns:xlink="http://www.w3.org/1999/xlink" width="372.747pt" height="88.772pt" viewBox="0 0 372.747 88.772"><defs><path id="a" d="m1.6875-1.26562.48438.48437L4.20313-2.8125 6.23438-.78125l.46875-.48437L4.6875-3.29687l2.01563-2.03125-.46875-.46875-2.03125 2.01562-2.03125-2.01562-.48438.46875 2.03125 2.03125Zm0 0"/><path id="b" d="M.375-3.15625C.375-1.23437 1.48438.17188 3.79688.17188c2.0625 0 3.07812-1.04688 3.71875-2.20313s.75-2.34375.75-2.79687c0-2.40625-1.45313-3.4375-3.39063-3.4375-1.85937 0-3.01562 1.03125-3.6875 2.15625C.53125-5.03125.375-3.92187.375-3.15625m1.23438.46875c0-.98437.17187-2.0625.71875-3.20312C2.85938-7 3.6875-7.84375 4.9375-7.84375c1.26563 0 2.09375.75 2.09375 2.40625 0 .67188-.0625 1.625-.54687 2.85938C6-1.3125 5.20313-.23437 3.6875-.23437c-1.26562 0-2.07812-.82813-2.07812-2.45313m0 0"/><path id="c" d="M.60938-3.20312c0 1.53125.75 3.375 3.65625 3.375.82812 0 1.625-.10938 2.375-.48438l.5625-1.85937h-.34375C6.20313-1 5.625-.23437 4.1875-.23437c-1.35937 0-2.32812-.875-2.32812-2.67188 0-1.0625.28124-2.34375.84375-3.28125.57812-.98437 1.5-1.65625 2.75-1.65625 1.48437 0 1.90625.67188 1.90625 1.95313h.35937l.42188-1.75c-.67188-.42188-1.76563-.625-2.59375-.625-2.1875 0-3.45313 1.03125-4.14063 2.125C.75-5.09375.60938-4.01562.60938-3.20312m0 0"/><path id="d" d="M0 0h3.57813c2.32812 0 3.6875-.84375 4.53125-2.10937.67187-1.01563.78125-1.98438.78125-2.6875 0-.9375-.32813-1.89063-1-2.4375-.6875-.57813-1.73438-.84375-3.01563-.84375H1.73438l-.07813.34375.6875.04687c.20313.01563.28125.10938.28125.29688q0 .11718-.04687.28125L1.1875-.96875C1.10938-.57812 1-.4375.71875-.40625L.0625-.32812Zm2.3125-.85937c0-.04688 0-.09376.01563-.14063l1.39062-6.23437c.10938-.40625.26563-.4375 1.28125-.4375 2.4375.04687 2.64063 1.6875 2.64063 2.60937 0 1.01563-.23438 1.95313-.76563 2.82813C6.20313-1.14062 5.21875-.40625 3.28125-.40625c-.57812 0-.96875-.07812-.96875-.45312m0 0"/><path id="e" d="M-.21875 0h2.625l.07813-.32812-.64063-.0625C1.6875-.40625 1.625-.48437 1.625-.59375c0-.0625.03125-.15625.0625-.23437.39063-.75.76563-1.5 1.1875-2.29688H5.5l.28125 2.42188s-.0625.28124-.29687.3125l-.625.0625L4.79688 0h2.875l.0625-.32812-.4375-.04688C6.9375-.40625 6.875-.57812 6.8125-1.0625l-.84375-7.01562H5.125l-1.95312 3.4375c-.59375 1.04687-1.5625 2.79687-2 3.48437-.375.60938-.57813.73438-.9375.76563l-.39063.0625ZM3.125-3.5625 5.01563-7l.42187 3.4375Zm0 0"/><path id="f" d="M0 0h3.54688C6.35938 0 6.9375-1.45312 6.9375-2.42187c0-1.23438-.90625-1.76563-1.76562-1.92188L5.1875-4.375c1.54688-.1875 2.20313-1.0625 2.20313-1.95312 0-.9375-.5625-1.75-2.70313-1.75H1.73438l-.07813.34375.6875.0625c.20313 0 .29688.09375.29688.28125 0 .07812-.03125.17187-.0625.28125l-1.375 6.14062C1.125-.57812 1-.45312.71875-.40625L.0625-.32812Zm2.32813-.89062c0-.09376.01562-.17188.04687-.26563l.67188-3H3.5c1.15625 0 2.17188.34375 2.17188 1.67188 0 1.04687-.625 2.07812-2.1875 2.07812-.92188 0-1.15625-.1875-1.15625-.48437M3.125-4.5625l.60938-2.70312c.09375-.34375.15625-.40625.9375-.40625.98437 0 1.53125.48437 1.53125 1.3125 0 1.21875-1.01563 1.79687-2.3125 1.79687Zm0 0"/><path id="g" d="M0-7.70312h3.10938v-.75H0Zm0 0"/><path id="h" d="M0-7.70312h7.71875l-.48437.76562.34375.28125c.46875-.53125 1.01562-.89062 1.73437-1.1875v-.45312c-.73437-.3125-1.26562-.67188-1.73437-1.1875l-.34375.28125.48437.75H0Zm0 0"/><path id="i" d="M1-2.95312h2.85938v2.85937h.6875v-2.85937h2.875v-.6875h-2.875v-2.875h-.6875v2.875H1Zm0 0"/></defs><use xlink:href="#a" x="41.31307" y="47.35238"/><use xlink:href="#b" x="41.19537" y="39.88955"/><path fill="none" stroke="#000" stroke-miterlimit="10" stroke-width=".39748" d="M73.0039 16.96094H18.02344V71.9414H73.0039Zm0 0"/><use xlink:href="#c" x="77.39041" y="12.40015"/><use xlink:href="#d" x="4.49164" y="12.57371"/><use xlink:href="#e" x="5.62174" y="84.40422"/><use xlink:href="#f" x="77.39041" y="84.40422"/><path fill="none" stroke="#007F7F" stroke-miterlimit="10" stroke-width=".39748" d="M18.02344 71.9414h50.40624"/><path fill="#007F7F" stroke="#007F7F" stroke-miterlimit="10" stroke-width=".39748" d="M72.26172 71.9414c-.47266-.125-2.53906-.83984-3.83203-1.62109v3.24219c1.29297-.77734 3.35937-1.49219 3.83203-1.6211Zm0 0"/><path fill="none" stroke="#007F7F" stroke-miterlimit="10" stroke-width=".39748" d="m45.51172 44.45313-24.2578-24.25781"/><path fill="#007F7F" stroke="#007F7F" stroke-miterlimit="10" stroke-width=".39748" d="M18.54687 17.48828c.2422.42188 1.19922 2.38672 1.5625 3.85156l2.29297-2.29297c-1.46484-.36328-3.4336-1.3164-3.85547-1.55859Zm0 0"/><path fill="none" stroke="#000" stroke-miterlimit="10" stroke-width=".39748" d="M98.52733 44.45313h30.76953"/><path stroke="#000" stroke-miterlimit="10" stroke-width=".39748" d="M133.125 44.45313c-.46875-.12891-2.53516-.84376-3.82813-1.625v3.24609c1.29297-.78125 3.35938-1.4961 3.82813-1.6211Zm0 0"/><use xlink:href="#a" x="182.68298" y="47.35238"/><use xlink:href="#b" x="182.56428" y="39.88955"/><path fill="none" stroke="#000" stroke-miterlimit="10" stroke-width=".39748" d="M214.37497 16.96094H159.3945V71.9414h54.98046Zm0 0"/><use xlink:href="#c" x="218.75932" y="12.40015"/><use xlink:href="#d" x="145.86055" y="12.57371"/><use xlink:href="#e" x="146.99065" y="84.40422"/><use xlink:href="#f" x="218.75932" y="84.40422"/><path fill="none" stroke="#007F7F" stroke-miterlimit="10" stroke-width=".39748" d="M159.3945 71.9414h50.40625"/><path fill="#007F7F" stroke="#007F7F" stroke-miterlimit="10" stroke-width=".39748" d="M213.63281 71.9414c-.47265-.125-2.53906-.83984-3.83203-1.62109v3.24219c1.29297-.77734 3.35938-1.49219 3.83203-1.6211Zm0 0"/><path fill="none" stroke="#007F7F" stroke-dasharray="2.9811785952000003 2.9811785952000003" stroke-miterlimit="10" stroke-width=".39748" d="m214.37497 71.9414-24.25781-24.2578"/><path fill="#007F7F" stroke="#007F7F" stroke-miterlimit="10" stroke-width=".39748" d="M187.41015 44.97656c.2422.42188 1.19532 2.39063 1.5586 3.85547l2.29297-2.29297c-1.46485-.36328-3.42969-1.32031-3.85157-1.5625Zm0 0"/><path fill="none" stroke="#000" stroke-miterlimit="10" stroke-width=".39748" d="M239.8984 44.45313h30.76952"/><path stroke="#000" stroke-miterlimit="10" stroke-width=".39748" d="M274.4961 44.45313c-.46876-.12891-2.53516-.84376-3.82813-1.625v3.24609c1.29297-.78125 3.35937-1.4961 3.82812-1.6211Zm0 0"/><use xlink:href="#a" x="324.05189" y="47.35238"/><use xlink:href="#b" x="323.9332" y="39.88955"/><path fill="none" stroke="#000" stroke-miterlimit="10" stroke-width=".39748" d="M355.74603 16.96094h-54.98046V71.9414h54.98046Zm0 0"/><use xlink:href="#c" x="360.12823" y="12.40015"/><use xlink:href="#d" x="287.22946" y="12.57371"/><use xlink:href="#e" x="288.35956" y="84.40422"/><use xlink:href="#f" x="360.12823" y="84.40422"/><path fill="none" stroke="#FF7F00" stroke-miterlimit="10" stroke-width=".39748" d="m300.76557 71.9414 24.25781-24.2578"/><path fill="#FF7F00" stroke="#FF7F00" stroke-miterlimit="10" stroke-width=".39748" d="M327.73047 44.97656c-.42187.24219-2.39063 1.19922-3.85547 1.5625l2.29297 2.29297c.36328-1.46484 1.3164-3.4336 1.5625-3.85547Zm0 0"/><use xlink:href="#g" x="318.89314" y="61.77459" fill="#FF7F00"/><use xlink:href="#g" x="321.17868" y="61.77459" fill="#FF7F00"/><use xlink:href="#g" x="323.45179" y="61.77459" fill="#FF7F00"/><use xlink:href="#h" x="325.72491" y="61.77459" fill="#FF7F00"/><use xlink:href="#e" x="318.89314" y="64.12231" fill="#FF7F00"/><use xlink:href="#f" x="327.4018" y="64.12231" fill="#FF7F00"/><use xlink:href="#i" x="336.75511" y="64.12231" fill="#FF7F00"/><use xlink:href="#g" x="346.88874" y="61.58882" fill="#FF7F00"/><use xlink:href="#g" x="349.13701" y="61.58882" fill="#FF7F00"/><use xlink:href="#g" x="351.38528" y="61.58882" fill="#FF7F00"/><use xlink:href="#g" x="353.63356" y="61.58882" fill="#FF7F00"/><use xlink:href="#h" x="355.86941" y="61.58882" fill="#FF7F00"/><use xlink:href="#b" x="346.88874" y="64.12231" fill="#FF7F00"/><use xlink:href="#d" x="356.04331" y="64.12231" fill="#FF7F00"/></svg>