<svg xmlns="http://www.w3.org/2000/svg" xmlns:xlink="http://www.w3.org/1999/xlink" width="127.815pt" height="108.337pt" viewBox="0 0 127.815 108.337"><defs><path id="a" d="m1.75-1.3125.5.5 2.10938-2.10937L6.46875-.8125l.48438-.5-2.09375-2.09375 2.09375-2.10937-.48438-.5-2.10937 2.10937L2.25-6.01562l-.5.5 2.10938 2.10937Zm0 0"/><path id="b" d="M-.23437 0H2.5l.07813-.34375-.67188-.0625C1.75-.42187 1.6875-.5 1.6875-.625c0-.0625.03125-.14062.0625-.23437.40625-.78125.78125-1.5625 1.23438-2.375h2.71875L6-.73437s-.0625.29687-.32812.32812l-.64063.0625L4.96875 0H7.9375l.07813-.34375-.45313-.04687c-.375-.03125-.4375-.20313-.5-.70313L6.1875-8.375h-.875L3.28125-4.79687c-.60937 1.07812-1.625 2.875-2.07812 3.59375C.82813-.5625.625-.4375.25-.40625l-.40625.0625Zm3.46875-3.6875L5.20313-7.25l.4375 3.5625Zm0 0"/><path id="c" d="M0 0h3.67188C6.59375 0 7.1875-1.5 7.1875-2.51562c0-1.26563-.9375-1.82813-1.82812-1.98438l.01562-.03125c1.60938-.1875 2.28125-1.10937 2.28125-2.01562 0-.98438-.57812-1.82813-2.79687-1.82813h-3.0625l-.07813.35938.71875.0625c.20313.01562.29688.09375.29688.29687 0 .07813-.03125.17188-.0625.29688L1.25-1c-.09375.39063-.20312.53125-.5.57813l-.6875.07812Zm2.42188-.92187c0-.09376.01562-.1875.03125-.28126l.70312-3.09374H3.625c1.20313 0 2.26563.34375 2.26563 1.71875 0 1.07812-.65625 2.15625-2.28125 2.15625-.95313 0-1.1875-.20313-1.1875-.5M3.25-4.71875l.625-2.8125c.09375-.35937.15625-.42187.96875-.42187 1.01563 0 1.57813.51562 1.57813 1.35937 0 1.26563-1.04688 1.875-2.39063 1.875Zm0 0"/><path id="d" d="M.625-3.32812C.625-1.71875 1.42188.1875 4.42188.1875c.85937 0 1.6875-.125 2.45312-.51562L7.46875-2.25h-.35937c-.67188 1.20313-1.28125 2-2.76563 2-1.40625 0-2.40625-.89062-2.40625-2.76562 0-1.09375.28125-2.4375.85938-3.39063.60937-1.01562 1.5625-1.73437 2.85937-1.73437 1.53125 0 1.96875.71875 1.96875 2.03125H8l.4375-1.8125c-.70312-.4375-1.82812-.64063-2.6875-.64063-2.28125 0-3.59375 1.0625-4.29687 2.20313C.78125-5.28125.625-4.15625.625-3.32812m0 0"/><path id="e" d="M0 0h3.70313C6.125 0 7.53125-.875 8.40625-2.1875c.70313-1.04687.8125-2.0625.8125-2.78125 0-.98437-.34375-1.95312-1.04687-2.53125-.70313-.59375-1.78125-.875-3.125-.875h-3.25l-.07813.35938.71875.04687c.20313.01563.28125.10938.28125.3125 0 .07813-.01562.17188-.04687.29688L1.23438-1c-.09376.39063-.1875.54688-.48438.57813l-.6875.07812Zm2.39063-.89062c0-.04688 0-.09376.01562-.15626L3.85938-7.5c.10937-.42187.28125-.45312 1.32812-.45312 2.53125.04687 2.73438 1.75 2.73438 2.71875 0 1.03125-.25 2.01562-.79688 2.92187-.6875 1.125-1.71875 1.89063-3.71875 1.89063-.59375 0-1.01562-.07813-1.01562-.46875m0 0"/><path id="f" d="M.125 0h6.3125l.625-2.125h-.375C6.07813-.625 5.53125-.42187 4.04688-.42187c-1.4375 0-1.51563-.1875-1.51563-.5 0-.14063.04688-.3125.09375-.5625l.625-2.65625h1.57813c.90625 0 1.0625.1875 1.0625.71875v.32812H6.25l.5625-2.51562h-.375c-.3125.82812-.4375 1.03125-1.5 1.03125H3.34375l.6875-3.01563c.0625-.29687.14063-.35937.34375-.35937h1.45313c1.1875 0 1.4375.3125 1.4375.96875 0 .29687-.04688.625-.04688.625h.35938L8.03125-8.375H1.92188l-.09376.35938.73438.04687c.20313.01563.29688.10938.29688.29688q0 .11718-.04688.28125L1.375-1c-.09375.40625-.20312.54688-.5.57813l-.6875.07812Zm0 0"/></defs><path fill="none" stroke="#000" stroke-miterlimit="10" stroke-width=".39608" d="m17.4375 17.20703 73.2695 18.3164 18.3164 36.6328-73.2695-18.3164Zm0 0"/><use xlink:href="#a" x="13.08651" y="20.21131"/><use xlink:href="#b" x="4.58753" y="12.65754"/><use xlink:href="#a" x="86.35413" y="38.52822"/><use xlink:href="#c" x="95.25267" y="30.97444"/><use xlink:href="#a" x="31.40342" y="56.84512"/><use xlink:href="#d" x="23.04557" y="66.9473"/><use xlink:href="#a" x="104.67104" y="75.16103"/><use xlink:href="#e" x="113.56958" y="85.07039"/><use xlink:href="#a" x="49.72032" y="93.47793"/><use xlink:href="#f" x="41.36247" y="103.38729"/></svg>