<svg xmlns="http://www.w3.org/2000/svg" xmlns:xlink="http://www.w3.org/1999/xlink" width="115.048pt" height="105.22pt" viewBox="0 0 115.048 105.22"><defs><path id="a" d="m1.75-1.3125.5.5 2.09375-2.10937L6.45313-.8125l.48437-.5-2.09375-2.09375L6.9375-5.51562 6.45313-6 4.34375-3.90625 2.25-6l-.5.48438 2.10938 2.10937Zm0 0"/><path id="b" d="M.39063-3.26562c0 2 1.14062 3.45312 3.54687 3.45312 2.125 0 3.17188-1.09375 3.82813-2.29687.65625-1.17188.78125-2.40625.78125-2.89063 0-2.46875-1.51563-3.54687-3.5-3.54687-1.92188 0-3.125 1.07812-3.82813 2.23437-.67187 1.10938-.82812 2.25-.82812 3.04688m1.26562.48437c0-1 .1875-2.14062.75-3.3125C2.95313-7.23437 3.8125-8.125 5.09375-8.125c1.32813 0 2.17188.79688 2.17188 2.5 0 .6875-.0625 1.6875-.5625 2.96875C6.20313-1.35937 5.375-.25 3.8125-.25 2.5-.25 1.65625-1.09375 1.65625-2.78125m0 0"/><path id="c" d="M0 0h3.65625c2.92188 0 3.51563-1.5 3.51563-2.5 0-1.28125-.9375-1.82812-1.82813-2l.01563-.01562C6.96875-4.71875 7.64063-5.625 7.64063-6.53125c0-.98437-.57813-1.8125-2.79688-1.8125h-3.0625L1.70313-8l.71875.0625c.21875.01563.29687.10938.29687.29688 0 .07812-.01562.17187-.04687.29687L1.25-1c-.09375.39063-.20312.53125-.5.57813l-.6875.07812Zm2.42188-.92187c0-.09376 0-.1875.03125-.26563l.6875-3.10937H3.625c1.1875 0 2.25.35937 2.25 1.73437 0 1.07813-.65625 2.14063-2.28125 2.14063-.95312 0-1.17187-.1875-1.17187-.5m.8125-3.79688.625-2.79687c.09375-.35938.15625-.42188.96875-.42188 1.01562 0 1.57812.51563 1.57812 1.35938 0 1.26562-1.04687 1.85937-2.39062 1.85937Zm0 0"/><path id="d" d="M.625-3.3125c0 1.59375.78125 3.5 3.78125 3.5.85938 0 1.6875-.125 2.45313-.51562L7.45313-2.25h-.35938c-.67187 1.20313-1.28125 2-2.76562 2-1.40625 0-2.40625-.89062-2.40625-2.75 0-1.09375.28124-2.4375.85937-3.39062C3.39063-7.40625 4.34375-8.125 5.64063-8.125c1.53125 0 1.96875.71875 1.96875 2.03125h.35937l.4375-1.8125c-.6875-.42187-1.8125-.64062-2.67187-.64062-2.26563 0-3.57813 1.07812-4.28125 2.20312C.78125-5.26562.625-4.15625.625-3.3125m0 0"/><path id="e" d="M0 0h3.70313c2.40625 0 3.8125-.875 4.6875-2.1875.6875-1.03125.8125-2.04687.8125-2.76562 0-.98438-.35938-1.95313-1.04688-2.53125-.70312-.59375-1.78125-.85938-3.125-.85938h-3.25L1.70313-8l.71875.04688c.21875.01562.28125.125.28125.3125 0 .07812 0 .17187-.03125.29687L1.23438-1c-.09376.39063-.1875.54688-.48438.57813l-.6875.07812Zm2.39063-.89062c0-.04688 0-.09376.01562-.15626l1.45313-6.4375c.09375-.42187.26562-.45312 1.3125-.45312 2.51562.04688 2.73437 1.75 2.73437 2.70313 0 1.04687-.25 2.01562-.79687 2.92187-.6875 1.125-1.71875 1.89063-3.71875 1.89063-.59375 0-1-.07813-1-.46875m0 0"/><path id="f" d="M.125 0h6.29688l.60937-2.125h-.35937C6.0625-.625 5.51563-.42187 4.03125-.42187c-1.42187 0-1.5-.1875-1.5-.5q0-.1875.09375-.5625L3.23438-4.125H4.8125c.90625 0 1.0625.1875 1.0625.70313v.34375h.35938l.5625-2.51563h-.375c-.3125.82813-.4375 1.01563-1.5 1.01563H3.34375l.67188-3c.0625-.29688.14062-.35938.34375-.35938H5.8125C7-7.9375 7.25-7.625 7.25-6.96875c0 .29688-.04687.625-.04687.625h.35937l.45313-2H1.90625L1.82813-8l.73437.04688c.20313.01562.28125.10937.28125.29687 0 .07813 0 .17188-.03125.28125L1.375-1c-.10937.40625-.20312.54688-.5.57813l-.6875.07812Zm0 0"/><path id="g" d="M.125 0h3.51563l.07812-.34375-.92187-.0625c-.21875-.01562-.3125-.125-.3125-.29687 0-.07813.01562-.15626.04687-.26563l.67188-2.96875h1.59375c.89062 0 1.0625.15625 1.0625.67188 0 .10937 0 .21875-.01563.34375h.35938l.5625-2.53125h-.35938c-.3125.85937-.45312 1.04687-1.51562 1.04687H3.29688l.71875-3.15625c.07812-.3125.14062-.375.35937-.375h1.48438c1.17187 0 1.40625.3125 1.40625.95313 0 .3125-.03125.625-.03125.625h.375l.4375-1.98438H1.90625L1.84375-8l.71875.0625c.20313.01563.28125.10938.28125.3125 0 .0625 0 .15625-.03125.23438L1.375-.96875c-.09375.35938-.20312.53125-.5.5625l-.6875.0625Zm0 0"/><path id="h" d="M-.23437 0h2.71875l.07812-.34375-.65625-.0625C1.75-.42187 1.6875-.5 1.6875-.60937c0-.07813.01563-.15626.0625-.25.39063-.76563.78125-1.5625 1.23438-2.35938H5.6875l.29688 2.48438s-.0625.29687-.3125.32812l-.65625.0625L4.95313 0h2.96875L8-.34375l-.45312-.04687c-.375-.03125-.4375-.20313-.5-.70313l-.875-7.25h-.875L3.28125-4.79687c-.625 1.07812-1.625 2.89062-2.07812 3.60937-.375.625-.59375.75-.95313.79688l-.40625.04687Zm3.45312-3.6875L5.1875-7.23437 5.625-3.6875Zm0 0"/></defs><use xlink:href="#a" x="52.83282" y="55.40884"/><use xlink:href="#b" x="52.71083" y="47.6917"/><path fill="none" stroke="#000" stroke-miterlimit="10" stroke-width=".39523" d="M97.38671 52.41016 77.28125 17.58594H37.0664L16.96094 52.41016l20.10547 34.82421h40.21484Zm0 0"/><use xlink:href="#c" x="101.92261" y="56.58411"/><use xlink:href="#d" x="81.81797" y="12.86786"/><use xlink:href="#e" x="23.07605" y="13.04837"/><use xlink:href="#f" x="4.28157" y="56.58411"/><use xlink:href="#g" x="24.37431" y="100.11987"/><use xlink:href="#h" x="81.81797" y="100.11987"/></svg>