<svg xmlns="http://www.w3.org/2000/svg" xmlns:xlink="http://www.w3.org/1999/xlink" width="110.971pt" height="51.966pt" viewBox="0 0 110.971 51.966"><defs><clipPath id="a"><path d="M.02344 11H40v37H.02344Zm0 0"/></clipPath><clipPath id="b"><path d="M31 8h79.92188v21H31Zm0 0"/></clipPath><clipPath id="c"><path d="M100 15h10.92188v16H100Zm0 0"/></clipPath><clipPath id="d"><path d="M.02344 18h110.89844v30H.02344Zm0 0"/></clipPath><clipPath id="e"><path d="M100 17h10.92188v15H100Zm0 0"/></clipPath><path id="f" d="M0-8.01562h3.76563l-.5.78125.35937.29687c.48438-.54687 1.0625-.92187 1.8125-1.23437v-.46875c-.76562-.32813-1.32812-.70313-1.8125-1.25l-.35937.29687.5.79688L0-8.8125Zm0 0"/><path id="g" d="M1.42188-.8125c0 .5625.25.95313.9375.95313 1.15625 0 2.4375-1.28125 3.17187-2.6875h.01563l-.39063 1.375c-.07812.25-.10937.45312-.10937.64062 0 .42188.20312.67188.65625.67188.875 0 1.60937-.82813 2.03125-1.73438l-.28125-.17187c-.25.40625-.79688 1.28125-1.125 1.28125-.15625 0-.21875-.10938-.21875-.28125 0-.09376.01562-.23438.0625-.375l1.3125-4.96875-1.09375.14062c-.34375 1.25-.5625 1.89063-.85938 2.625C5-2.10937 3.9375-.48437 2.92188-.48437c-.25 0-.39063-.15625-.39063-.48438 0-.15625.03125-.34375.09375-.57812l1.17188-4.5-.07813-.0625-2.20312.34375-.07813.29687.76563.0625c.17187.01563.23437.09375.23437.23438 0 .09375-.01562.20312-.0625.34375L1.54688-1.625c-.07813.29688-.125.5625-.125.8125m0 0"/><path id="h" d="m1.42188-5.46875.75.0625c.1875.01563.23437.07813.23437.21875 0 .09375-.01562.20313-.04687.35938l-.73438 3.375c-.0625.23437-.07812.4375-.07812.60937 0 .6875.35937.98438.90625.98438 1.04687 0 2.09375-.96875 2.9375-2.09375C6.21875-3.0625 6.8125-4.40625 6.8125-5.15625c0-.48437-.26562-.95312-.375-.95312-.29687 0-.625.10937-.89062.26562.125.42188.15625.875.15625 1.51563C5.60938-2.67187 4.03125-.48437 3.04688-.48437c-.26563 0-.4375-.17188-.4375-.53125 0-.07813.01562-.20313.04687-.3125l1.0625-4.71875-.07812-.0625L1.5-5.76562Zm0 0"/><path id="i" d="M1.03125-3.07812h3v2.98437h.70313v-2.98437h2.98437v-.71875H4.73438v-2.98438h-.70313v2.98438h-3Zm0 0"/></defs><g clip-path="url(#a)"><path fill="none" stroke="#007f7f" stroke-miterlimit="10" stroke-width=".39824" d="m.21875 42.08203 33.17187-24.875"/></g><path fill="#007f7f" stroke="#007f7f" stroke-miterlimit="10" stroke-width=".39823" d="M36.46094 14.90234c-.45313.1797-2.53906.85157-4.04297 1.00391l1.94922 2.59766c.5664-1.40235 1.79297-3.21875 2.09375-3.60157Zm0 0"/><g clip-path="url(#b)"><path fill="none" stroke="#ff7f00" stroke-miterlimit="10" stroke-width=".39824" d="m37.05468 14.45313 69.12499 8.64062"/></g><path fill="#ff7f00" d="M109.98438 23.57031c-.45313-.1836-2.41797-1.15234-3.60547-2.08593l-.40235 3.22265c1.38281-.61328 3.52344-1.07031 4.00781-1.13672m0 0"/><g clip-path="url(#c)"><path fill="none" stroke="#ff7f00" stroke-miterlimit="10" stroke-width=".39823" d="M109.98437 23.57031c-.45312-.1836-2.41796-1.15234-3.60546-2.08593l-.40235 3.22265c1.38281-.61328 3.52344-1.07031 4.00781-1.13672Zm0 0"/></g><g clip-path="url(#d)"><path fill="none" stroke="#ec008c" stroke-miterlimit="10" stroke-width=".39824" d="m.21875 42.08203 105.98826-17.66406"/></g><path fill="#ec008c" d="M109.98828 23.78516c-.48437-.04688-2.64453-.41407-4.05078-.97266l.53516 3.20703c1.14843-.98437 3.07421-2.03125 3.51562-2.23437m0 0"/><g clip-path="url(#e)"><path fill="none" stroke="#ec008c" stroke-miterlimit="10" stroke-width=".39822" d="M109.98828 23.78515c-.48437-.04687-2.64453-.41406-4.05078-.97265l.53516 3.20703c1.14843-.98437 3.07421-2.03125 3.51562-2.23438Zm0 0"/></g><use xlink:href="#f" x="7.87785" y="23.41098" fill="#007f7f"/><use xlink:href="#g" x="5.807" y="23.55259" fill="#007f7f"/><use xlink:href="#f" x="80.01425" y="14.20171" fill="#ff7f00"/><use xlink:href="#h" x="78.46047" y="14.34461" fill="#ff7f00"/><use xlink:href="#f" x="43.5585" y="47.33303" fill="#ec008c"/><use xlink:href="#g" x="41.48766" y="47.47594" fill="#ec008c"/><use xlink:href="#i" x="51.81614" y="47.47594" fill="#ec008c"/><use xlink:href="#f" x="63.92788" y="47.33303" fill="#ec008c"/><use xlink:href="#h" x="62.37539" y="47.47594" fill="#ec008c"/></svg>