<svg xmlns="http://www.w3.org/2000/svg" width="418.796" height="183.447" viewBox="0 0 418.796 183.447"><defs><clipPath id="a"><path d="M.52734 0h417.53907v182.89453H.52734Zm0 0"/></clipPath></defs><g clip-path="url(#a)"><path fill="none" stroke="#000" stroke-miterlimit="10" stroke-opacity=".5" stroke-width=".3973" d="M.72257 169.6602h417.1447M.72258 130.5547h417.1447M.72258 91.44923h417.1447M.72258 52.33982h417.1447M.72258 13.23435h417.1447M13.75774 182.69926V.19527m39.10939 182.50399V.19527m39.10549 182.50399V.19527M131.082 182.69926V.19527m39.10548 182.50399V.19527m39.1094 182.50399V.19527m39.10548 182.50399V.19527m39.1094 182.50399V.19527m39.10548 182.50399V.19527m39.1094 182.50399V.19527m39.10548 182.50399V.19527"/></g><path fill="none" stroke="#007F7F" stroke-miterlimit="10" stroke-width=".3973" d="m13.76163 130.5547 116.98834-77.99612"/><path fill="none" stroke="#007F7F" stroke-linecap="round" stroke-linejoin="round" stroke-miterlimit="10" stroke-width=".39728" d="M127.875 51.61328c1.10938.98047 2.1836 1.07422 3.04297.83594-.55078.70312-.8789 1.73047-.39844 3.1289"/><path fill="none" stroke="#007F7F" stroke-miterlimit="10" stroke-width=".3973" d="m209.29688 52.33983 38.77736-25.85158"/><path fill="none" stroke="#007F7F" stroke-linecap="round" stroke-linejoin="round" stroke-miterlimit="10" stroke-width=".39728" d="M245.19531 25.54297c1.10938.98047 2.1836 1.07422 3.04297.83594-.55078.70312-.875 1.73046-.39844 3.1289"/><path fill="none" stroke="#FF7F00" stroke-miterlimit="10" stroke-width=".3973" d="m131.082 130.5547 38.9297-77.8594"/><path fill="none" stroke="#FF7F00" stroke-linecap="round" stroke-linejoin="round" stroke-miterlimit="10" stroke-width=".39727" d="M167.04297 53.30078c1.44922.30078 2.42969-.14844 3.0586-.78125-.13282.8789.09765 1.9336 1.20702 2.91016"/><path fill="none" stroke="#FF7F00" stroke-miterlimit="10" stroke-width=".3973" d="m287.51175 169.6602 78.0352-156.07039"/><path fill="none" stroke="#FF7F00" stroke-linecap="round" stroke-linejoin="round" stroke-miterlimit="10" stroke-width=".39727" d="M362.58203 14.1914c1.44531.3047 2.42578-.14843 3.05469-.78124-.1289.8828.09765 1.9375 1.20703 2.91406"/><path fill="none" stroke="#EC008C" stroke-miterlimit="10" stroke-width=".3973" d="m248.40236 13.23434 38.82814 38.82424"/><path fill="none" stroke="#EC008C" stroke-linecap="round" stroke-linejoin="round" stroke-miterlimit="10" stroke-width=".3973" d="M287.59375 49.05469c-.74219 1.27734-.625 2.34765-.22266 3.14453-.79687-.40235-1.86718-.51953-3.14843.22656"/><path fill="none" stroke="#EC008C" stroke-miterlimit="10" stroke-width=".3973" d="m170.18748 91.44922 77.93363 77.93363"/><path fill="none" stroke="#EC008C" stroke-linecap="round" stroke-linejoin="round" stroke-miterlimit="10" stroke-width=".3973" d="M248.48828 166.375c-.7461 1.27734-.6289 2.35156-.22656 3.14453-.79297-.40234-1.86719-.51953-3.14453.22656"/><path fill="none" stroke="#007F7F" stroke-miterlimit="10" stroke-width=".3973" d="m365.72663 91.44922-38.9297 77.8555"/><path fill="none" stroke="#007F7F" stroke-linecap="round" stroke-linejoin="round" stroke-miterlimit="10" stroke-width=".39727" d="M329.76172 168.70312c-1.44531-.30468-2.42578.14844-3.05469.78126.1289-.88282-.09765-1.9375-1.20703-2.91407"/></svg>