<svg xmlns="http://www.w3.org/2000/svg" xmlns:xlink="http://www.w3.org/1999/xlink" width="142.853pt" height="142.036pt" viewBox="0 0 142.853 142.036"><defs><path id="a" d="m2.6875-2.01562.78125.76562L6.6875-4.5l3.25 3.25.75-.76562L7.46875-5.25 10.6875-8.5l-.75-.75-3.25 3.23438L3.46875-9.25l-.78125.75 3.25 3.25Zm0 0"/><path id="b" d="M.59375-5.03125c0 3.07813 1.76563 5.3125 5.46875 5.3125 3.28125 0 4.89063-1.6875 5.92188-3.53125 1-1.8125 1.1875-3.71875 1.1875-4.45312 0-3.8125-2.32813-5.46875-5.39063-5.46875-2.96875 0-4.8125 1.65625-5.90625 3.4375C.84375-8.01562.59375-6.25.59375-5.03125m1.95313.75c0-1.5625.29687-3.29687 1.15625-5.10937.84375-1.75 2.17187-3.125 4.15625-3.125 2.03125 0 3.34375 1.21875 3.34375 3.84375 0 1.0625-.09375 2.59375-.875 4.57812C9.5625-2.09375 8.29688-.375 5.875-.375c-2.01562 0-3.32812-1.3125-3.32812-3.90625m0 0"/><path id="c" d="M.96875-5.10937c0 2.45312 1.20313 5.39062 5.82813 5.39062 1.3125 0 2.59375-.1875 3.78125-.78125l.90625-2.96875h-.5625C9.89063-1.60937 8.96875-.375 6.67188-.375c-2.15625 0-3.70313-1.39062-3.70313-4.25 0-1.6875.4375-3.75 1.32813-5.23437.92187-1.5625 2.39062-2.65625 4.39062-2.65625 2.35938 0 3.03125 1.09375 3.03125 3.125h.57813l.67187-2.78125c-1.07812-.67188-2.8125-1-4.125-1-3.5 0-5.51562 1.65625-6.60937 3.39062C1.20313-8.10937.96875-6.39062.96875-5.10937m0 0"/><path id="d" d="M0 0h5.70313c3.71875 0 5.875-1.34375 7.21875-3.35937 1.07812-1.60938 1.25-3.17188 1.25-4.28125 0-1.5-.53125-3.01563-1.59375-3.90625-1.09375-.90625-2.76563-1.32813-4.8125-1.32813H2.75l-.10937.54688 1.09375.07812c.32812.01563.4375.17188.4375.46875 0 .125-.01563.28125-.04688.45313L1.90625-1.54687c-.14062.60937-.29687.85937-.76562.89062l-1.04688.125Zm3.6875-1.35937c0-.07813 0-.17188.01563-.25l2.23437-9.9375c.15625-.625.42188-.6875 2.04688-.6875 3.875.07812 4.1875 2.6875 4.1875 4.17187 0 1.60938-.375 3.10938-1.20313 4.5-1.07812 1.73438-2.65625 2.90625-5.75 2.90625-.90625 0-1.53125-.10937-1.53125-.70312m0 0"/><path id="e" d="M-.35937 0h4.20312l.10938-.53125L2.9375-.64062c-.25-.01563-.34375-.125-.34375-.3125 0-.09376.04688-.23438.09375-.375.625-1.1875 1.21875-2.39063 1.90625-3.64063h4.17188L9.21875-1.125s-.09375.45313-.48437.48438l-1 .10937L7.64063 0h4.57812l.10938-.53125-.70313-.0625c-.57812-.0625-.65625-.3125-.75-1.09375L9.5-12.875H8.17188l-3.125 5.48438c-.95313 1.67187-2.5 4.4375-3.1875 5.54687C1.26563-.875.95313-.67187.375-.60937l-.60937.07812Zm5.32812-5.6875L8-11.14062l.67188 5.45312Zm0 0"/><path id="f" d="M0 0h5.64063c4.5 0 5.40625-2.3125 5.40625-3.85937 0-1.95313-1.45313-2.8125-2.8125-3.0625L8.25-6.96875c2.48438-.29687 3.53125-1.70312 3.53125-3.10937 0-1.5-.89062-2.79688-4.3125-2.79688H2.75l-.10937.54688 1.09375.09375c.32812.01562.46875.15625.46875.45312 0 .125-.04688.28125-.07813.45313L1.92188-1.54687c-.14063.60937-.3125.82812-.78125.89062l-1.04688.125Zm3.71875-1.42187c0-.14063.01563-.28126.0625-.42188l1.0625-4.76562h.73438c1.84375 0 3.46875.53125 3.46875 2.65625 0 1.65625-1.01563 3.29687-3.5 3.29687-1.46875 0-1.82813-.29687-1.82813-.76562m1.26563-5.84375.96875-4.3125c.14062-.5625.25-.65625 1.48437-.65625 1.5625 0 2.4375.79687 2.4375 2.09375 0 1.9375-1.625 2.875-3.67187 2.875Zm0 0"/></defs><use xlink:href="#a" x="65.67355" y="75.44694"/><use xlink:href="#b" x="65.48582" y="63.55664"/><path fill="none" stroke="#000" stroke-miterlimit="10" stroke-width=".39581" d="M116.16407 27.02733H28.5625v87.59768h87.60158Zm0 0"/><use xlink:href="#c" x="123.15442" y="19.75691"/><use xlink:href="#d" x="7.00473" y="20.03403"/><use xlink:href="#e" x="8.80551" y="134.48227"/><use xlink:href="#f" x="123.15442" y="134.48227"/></svg>