<svg xmlns="http://www.w3.org/2000/svg" xmlns:xlink="http://www.w3.org/1999/xlink" width="170.477pt" height="79.943pt" viewBox="0 0 170.477 79.943"><defs><clipPath id="a"><path d="M51 16h118.95703v26H51Zm0 0"/></clipPath><clipPath id="b"><path d="M165 34h4.95703v4H165Zm0 0"/></clipPath><clipPath id="c"><path d="M159 28h10.95703v16H159Zm0 0"/></clipPath><clipPath id="d"><path d="M0 31h169.95703v40H0Zm0 0"/></clipPath><clipPath id="e"><path d="M164 35h5.95703v4H164Zm0 0"/></clipPath><clipPath id="f"><path d="M159 29h10.95703v16H159Zm0 0"/></clipPath><path id="g" d="M0-12.3125h5.78125l-.75 1.21875.53125.45313c.75-.84375 1.625-1.40625 2.78125-1.90625v-.71875c-1.17187-.5-2.03125-1.07813-2.78125-1.90625l-.53125.45312.75 1.21875L0-13.53125Zm0 0"/><path id="h" d="M2.1875-1.25c0 .875.375 1.46875 1.42188 1.46875 1.79687 0 3.76562-1.96875 4.875-4.125h.03125l-.60938 2.125c-.09375.375-.15625.6875-.15625.96875 0 .65625.3125 1.03125 1.01563 1.03125 1.34375 0 2.45312-1.26562 3.10937-2.65625l-.4375-.28125C11.0625-2.07812 10.23438-.75 9.71875-.75c-.25 0-.34375-.15625-.34375-.42187 0-.15626.03125-.35938.09375-.57813l2.01563-7.625-1.67188.21875C9.28125-7.25 8.95313-6.25 8.48438-5.125c-.8125 1.89063-2.45313 4.375-4 4.375-.39063 0-.59375-.25-.59375-.73437 0-.25.04687-.54688.14062-.90625L5.8125-9.28125 5.71875-9.375l-3.39062.51563-.125.45312 1.17187.10938c.28125.01562.375.14062.375.35937 0 .125-.03125.3125-.09375.53125L2.35938-2.48437C2.25-2.04687 2.1875-1.625 2.1875-1.25m0 0"/><path id="i" d="m2.1875-8.40625 1.15625.10938c.26563.01562.34375.10937.34375.32812 0 .14063-.01562.32813-.07812.5625l-1.125 5.1875c-.07813.35938-.125.65625-.125.92188 0 1.0625.5625 1.51562 1.40625 1.51562C5.375.21875 6.98438-1.26562 8.28125-3c1.26563-1.70312 2.17188-3.76562 2.1875-4.92187 0-.73438-.42187-1.45313-.57812-1.45313-.45313 0-.96875.15625-1.375.40625.1875.64063.25 1.34375.25 2.3125C8.59375-4.10937 6.20313-.75 4.6875-.75c-.42187 0-.67187-.26562-.67187-.79687 0-.14063.01562-.3125.0625-.5l1.625-7.23438-.10938-.09375-3.29687.51563Zm0 0"/><path id="j" d="M1.59375-4.71875h4.57813v4.57813h1.09375v-4.57813h4.59375V-5.8125H7.26563v-4.59375H6.17188v4.59375H1.59375Zm0 0"/></defs><path fill="none" stroke="#007F7F" stroke-miterlimit="10" stroke-width=".39728" d="m.19922 64.66797 52.8633-39.64846"/><path fill="#007F7F" stroke="#007F7F" stroke-miterlimit="10" stroke-width=".39727" d="M56.125 22.72656c-.45313.1797-2.53516.84766-4.03516.9961l1.94532 2.59375c.5664-1.39844 1.78906-3.20703 2.08984-3.58985Zm0 0"/><g clip-path="url(#a)"><path fill="none" stroke="#FF7F00" stroke-miterlimit="10" stroke-width=".39728" d="m56.71878 22.28123 108.50786 13.5625"/></g><g clip-path="url(#b)"><path fill="#FF7F00" d="M169.02344 36.3164c-.45313-.18359-2.41406-1.14843-3.59766-2.08203l-.40234 3.21876c1.3789-.61329 3.51562-1.07032 4-1.13672m0 0"/></g><g clip-path="url(#c)"><path fill="none" stroke="#FF7F00" stroke-miterlimit="10" stroke-width=".39727" d="M169.02344 36.3164c-.45313-.18359-2.41406-1.14843-3.59766-2.08202l-.40234 3.21874c1.3789-.61328 3.51562-1.0703 4-1.13671Zm0 0"/></g><g clip-path="url(#d)"><path fill="none" stroke="#EC008C" stroke-miterlimit="10" stroke-width=".39728" d="m.19922 64.66797 165.05477-27.50783"/></g><g clip-path="url(#e)"><path fill="#EC008C" d="M169.02734 36.53125c-.48437-.04687-2.64062-.41406-4.04297-.96875l.53516 3.19531c1.14453-.98047 3.0664-2.02343 3.50781-2.22656m0 0"/></g><g clip-path="url(#f)"><path fill="none" stroke="#EC008C" stroke-miterlimit="10" stroke-width=".39726" d="M169.02734 36.53125c-.48437-.04687-2.64062-.41406-4.04296-.96875l.53515 3.19531c1.14453-.98047 3.0664-2.02343 3.50781-2.22656Zm0 0"/></g><use xlink:href="#g" x="11.94535" y="36.01962" fill="#007F7F"/><use xlink:href="#h" x="8.7671" y="36.23895" fill="#007F7F"/><use xlink:href="#g" x="122.63876" y="21.88997" fill="#FF7F00"/><use xlink:href="#i" x="120.25607" y="22.1093" fill="#FF7F00"/><use xlink:href="#g" x="66.69539" y="72.73399" fill="#EC008C"/><use xlink:href="#h" x="63.51714" y="72.95332" fill="#EC008C"/><use xlink:href="#j" x="79.36888" y="72.95332" fill="#EC008C"/><use xlink:href="#g" x="97.95748" y="72.73399" fill="#EC008C"/><use xlink:href="#i" x="95.5728" y="72.95332" fill="#EC008C"/></svg>