<svg xmlns="http://www.w3.org/2000/svg" xmlns:xlink="http://www.w3.org/1999/xlink" width="181.78pt" height="64.72pt" viewBox="0 0 181.78 64.72"><defs><path id="a" d="M-.23437 0H2.5l.07813-.34375-.67188-.0625C1.75-.42187 1.6875-.5 1.6875-.625c0-.0625.03125-.14062.0625-.23437.40625-.78125.79688-1.5625 1.23438-2.375h2.71875L6-.73437s-.0625.29687-.3125.32812l-.64062.0625L4.96875 0h2.98438l.07812-.34375-.46875-.04687c-.375-.03125-.42187-.20313-.48437-.70313L6.1875-8.375h-.85937L3.28125-4.8125c-.60937 1.09375-1.625 2.89063-2.0625 3.60938C.82813-.5625.625-.4375.25-.40625l-.40625.0625Zm3.46875-3.70312L5.20313-7.25l.4375 3.54688Zm0 0"/><path id="b" d="M0 0h3.67188C6.59375 0 7.1875-1.51562 7.1875-2.51562c0-1.28125-.9375-1.82813-1.82812-2l.01562-.01563c1.60938-.20312 2.29688-1.10937 2.29688-2.03125 0-.98437-.57813-1.8125-2.8125-1.8125h-3.0625l-.07813.34375.71875.0625c.20313.01563.29688.10938.29688.29688 0 .07812-.03125.1875-.04688.29687L1.25-1c-.09375.39063-.20312.53125-.5.57813l-.6875.07812Zm2.42188-.92187q0-.14063.04687-.28126l.6875-3.10937h.48438c1.1875 0 2.25.35938 2.25 1.73438 0 1.07812-.65625 2.15625-2.28125 2.15625-.95313 0-1.1875-.20313-1.1875-.5M3.25-4.73437l.625-2.8125c.09375-.35938.15625-.42188.96875-.42188 1.01563 0 1.59375.51563 1.59375 1.375 0 1.25-1.0625 1.85938-2.40625 1.85938Zm0 0"/><path id="c" d="M.625-3.32812C.625-1.73437 1.42188.1875 4.42188.1875c.85937 0 1.6875-.125 2.46875-.51562L7.46875-2.25h-.35937c-.67188 1.20313-1.26563 2-2.76563 2-1.40625 0-2.40625-.89062-2.40625-2.76562 0-1.09375.28125-2.4375.85938-3.40625.60937-1.01563 1.5625-1.71875 2.85937-1.71875 1.53125 0 1.96875.70312 1.96875 2.03125H8l.4375-1.8125c-.6875-.4375-1.82812-.65625-2.67187-.65625-2.28125 0-3.59375 1.07812-4.3125 2.20312C.78125-5.28125.625-4.15625.625-3.32812m0 0"/><path id="d" d="M0-7.98437h3.21875v-.78125H0Zm0 0"/><path id="e" d="M0-7.98437h8l-.48437.78125.34375.29687c.5-.54687 1.0625-.92187 1.8125-1.23437v-.46875c-.76563-.32813-1.3125-.70313-1.8125-1.23438l-.34375.29688L8-8.76562H0Zm0 0"/><path id="f" d="M1.03125-3.0625h2.98438v2.96875h.70312V-3.0625h2.98438v-.71875H4.71875V-6.75h-.70312v2.96875H1.03125Zm0 0"/><path id="g" d="M1.03125-1.73437h6.67188v-.70313H1.03125Zm0-2.65625h6.67188v-.71875H1.03125Zm0 0"/></defs><path fill="none" stroke="#007f7f" stroke-miterlimit="10" stroke-width=".39678" d="M17.45313 19.67969 50.5039 44.46484"/><path fill="#007f7f" stroke="#007f7f" stroke-miterlimit="10" stroke-width=".39677" d="M53.5586 46.76172c-.29688-.38281-1.51954-2.19531-2.08204-3.58985l-1.9453 2.58594c1.5.15235 3.57812.82031 4.02734 1.0039Zm0 0"/><path fill="none" stroke="#ff7f00" stroke-miterlimit="10" stroke-width=".39678" d="m54.15233 47.20702 105.55075-8.79687"/><path fill="#ff7f00" stroke="#ff7f00" stroke-miterlimit="10" stroke-width=".39676" d="M163.51172 38.09375c-.47656-.08984-2.59375-.6289-3.9414-1.29687l.26952 3.22656c1.21875-.88282 3.21485-1.76563 3.67188-1.92969Zm0 0"/><path fill="none" stroke="#ec008c" stroke-miterlimit="10" stroke-width=".39678" d="M17.45313 19.67969 159.7226 37.46484"/><path fill="#ec008c" stroke="#ec008c" stroke-miterlimit="10" stroke-width=".39677" d="M163.51563 37.9375c-.44922-.1836-2.41016-1.14844-3.58985-2.07813l-.40234 3.21094c1.375-.61328 3.51172-1.0664 3.99219-1.1328Zm0 0"/><use xlink:href="#a" x="4.5804" y="15.12457"/><use xlink:href="#b" x="50.18709" y="60.1428"/><use xlink:href="#c" x="168.80491" y="33.29396"/><use xlink:href="#d" x="14.48256" y="47.85108" fill="#007f7f"/><use xlink:href="#d" x="16.85536" y="47.85108" fill="#007f7f"/><use xlink:href="#d" x="19.21526" y="47.85108" fill="#007f7f"/><use xlink:href="#e" x="21.57517" y="47.85108" fill="#007f7f"/><use xlink:href="#a" x="14.48256" y="50.28844" fill="#007f7f"/><use xlink:href="#b" x="23.31608" y="50.28844" fill="#007f7f"/><use xlink:href="#d" x="113.75707" y="57.02539" fill="#ff7f00"/><use xlink:href="#d" x="116.09118" y="57.02539" fill="#ff7f00"/><use xlink:href="#d" x="118.4124" y="57.02539" fill="#ff7f00"/><use xlink:href="#e" x="120.73361" y="57.02539" fill="#ff7f00"/><use xlink:href="#b" x="113.75707" y="59.65691" fill="#ff7f00"/><use xlink:href="#c" x="122.22951" y="59.65691" fill="#ff7f00"/><use xlink:href="#d" x="52.61857" y="14.34305" fill="#007f7f"/><use xlink:href="#d" x="54.99137" y="14.34305" fill="#007f7f"/><use xlink:href="#d" x="57.35128" y="14.34305" fill="#007f7f"/><use xlink:href="#e" x="59.71118" y="14.34305" fill="#007f7f"/><use xlink:href="#a" x="52.61857" y="16.7804" fill="#007f7f"/><use xlink:href="#b" x="61.45209" y="16.7804" fill="#007f7f"/><use xlink:href="#f" x="71.1738" y="16.7804" fill="#ec008c"/><use xlink:href="#d" x="81.68174" y="14.15018" fill="#ff7f00"/><use xlink:href="#d" x="84.01585" y="14.15018" fill="#ff7f00"/><use xlink:href="#d" x="86.33706" y="14.15018" fill="#ff7f00"/><use xlink:href="#e" x="88.65828" y="14.15018" fill="#ff7f00"/><use xlink:href="#b" x="81.68174" y="16.7804" fill="#ff7f00"/><use xlink:href="#c" x="90.15417" y="16.7804" fill="#ff7f00"/><use xlink:href="#g" x="100.83756" y="16.7804" fill="#ec008c"/><use xlink:href="#d" x="112.07554" y="14.15018" fill="#ec008c"/><use xlink:href="#d" x="114.52572" y="14.15018" fill="#ec008c"/><use xlink:href="#d" x="116.97589" y="14.15018" fill="#ec008c"/><use xlink:href="#e" x="119.41316" y="14.15018" fill="#ec008c"/><use xlink:href="#a" x="112.07554" y="16.7804" fill="#ec008c"/><use xlink:href="#c" x="120.90906" y="16.7804" fill="#ec008c"/></svg>