<svg xmlns="http://www.w3.org/2000/svg" xmlns:xlink="http://www.w3.org/1999/xlink" width="250.792pt" height="219.354pt" viewBox="0 0 250.792 219.354"><defs><path id="a" d="m3.03125-2.28125.875.875 3.64063-3.67187 3.67187 3.67187.84375-.875-3.64062-3.64062 3.64062-3.65625-.84375-.85938-3.67187 3.64063-3.64063-3.64063-.875.85938 3.67188 3.65625Zm0 0"/><path id="b" d="M-.40625 0h4.73438l.14062-.60937L3.3125-.71875c-.28125-.01562-.39062-.15625-.39062-.35937 0-.10938.04687-.26563.10937-.42188.70313-1.34375 1.375-2.70312 2.15625-4.10937h4.70313l.51562 4.32812s-.10937.51563-.54687.5625l-1.125.10938L8.625 0h5.15625l.14063-.60937-.8125-.0625c-.64063-.0625-.73438-.35938-.84375-1.23438l-1.54688-12.60937H9.23438l-3.53125 6.1875c-1.07813 1.875-2.82813 5-3.60938 6.25C1.4375-.98437 1.07813-.76562.42188-.6875l-.6875.07813Zm6.01563-6.40625 3.42187-6.17187.75 6.17187Zm0 0"/><path id="c" d="M0 0h6.375c5.0625 0 6.09375-2.60937 6.09375-4.35937 0-2.20313-1.625-3.17188-3.17187-3.45313l.01562-.04687c2.79688-.34375 3.98438-1.92188 3.98438-3.51563 0-1.70312-1.01563-3.14062-4.875-3.14062h-5.3125l-.14063.59375 1.25.10937c.35938.03125.51563.1875.51563.51563 0 .14062-.04688.3125-.09375.51562L2.17188-1.75c-.15625.70313-.35938.95313-.875 1.01563l-1.1875.125Zm4.20313-1.60937c0-.15626.01562-.3125.0625-.46875l1.20312-5.39063h.82813c2.07812 0 3.92187.60938 3.92187 3 0 1.875-1.14062 3.73438-3.96875 3.73438-1.64062 0-2.04687-.34375-2.04687-.875M5.625-8.20312l1.09375-4.875c.15625-.625.28125-.73438 1.6875-.73438 1.76563 0 2.75.89063 2.75 2.375C11.15625-9.25 9.3125-8.20312 7-8.20312Zm0 0"/><path id="d" d="M1.09375-5.76562C1.09375-3 2.45313.3125 7.65625.3125c1.5 0 2.9375-.20312 4.28125-.875l1.01563-3.34375h-.625C11.17188-1.8125 10.125-.42187 7.53125-.42187c-2.4375 0-4.1875-1.5625-4.1875-4.8125 0-1.89063.5-4.21875 1.5-5.89063 1.0625-1.76562 2.70313-3 4.96875-3 2.65625 0 3.42188 1.23438 3.42188 3.53125h.64062l.76563-3.14062c-1.21875-.76563-3.17188-1.125-4.65625-1.125-3.95313 0-6.23438 1.85937-7.45313 3.82812-1.17187 1.875-1.4375 3.8125-1.4375 5.26563m0 0"/><path id="e" d="M0 0h6.4375c4.20313 0 6.64063-1.51562 8.15625-3.79687C15.79688-5.60937 16-7.375 16-8.625c0-1.70312-.60937-3.39062-1.8125-4.40625-1.23437-1.01562-3.10937-1.48437-5.42187-1.48437H3.10938l-.14063.59375 1.25.09375c.35938.01562.5.20312.5.53125 0 .14062-.03125.3125-.07812.51562L2.14063-1.75c-.15625.70313-.32813.96875-.84375 1.01563l-1.1875.125Zm4.15625-1.54687c0-.07813 0-.17188.01563-.26563l2.53125-11.21875C6.875-13.73437 7.17188-13.8125 9-13.8125c4.39063.09375 4.73438 3.04688 4.73438 4.71875 0 1.8125-.42188 3.51563-1.35938 5.07813C11.17188-2.0625 9.39063-.73437 5.90625-.73437c-1.03125 0-1.75-.14063-1.75-.8125m0 0"/><path id="f" d="M.21875 0h10.95313L12.25-3.6875h-.625C10.54688-1.09375 9.60938-.73437 7.01563-.73437c-2.48438 0-2.60938-.3125-2.60938-.875 0-.21876.0625-.53125.15625-.95313L5.625-7.17187h2.75c1.5625 0 1.85938.3125 1.85938 1.23437 0 .17188 0 .35938-.01563.57813h.625l.96875-4.375h-.64062c-.53125 1.4375-.76563 1.78125-2.60938 1.78125h-2.75L7-13.1875c.10938-.51562.23438-.625.59375-.625H10.125c2.04688 0 2.48438.54688 2.48438 1.6875 0 .5-.07813 1.09375-.07813 1.09375h.625l.78125-3.48437H3.32813l-.15625.59375 1.28125.09375c.34375.01562.5.17187.5.51562 0 .125-.01563.28125-.0625.48438L2.39063-1.75c-.17188.71875-.35938.96875-.875 1.01563l-1.1875.125Zm0 0"/><path id="g" d="M.21875 0h6.10938l.125-.60937L4.875-.71875c-.39062-.01562-.54687-.20312-.54687-.51562 0-.125.03125-.26563.07812-.4375l1.15625-5.1875h2.79688c1.53125 0 1.82812.29687 1.82812 1.1875 0 .17187 0 .375-.01562.59375h.625l.98437-4.39063h-.625C10.60938-8 10.375-7.65625 8.51563-7.65625H5.75l1.25-5.5c.125-.54687.23438-.65625.625-.65625h2.5625c2.0625 0 2.45313.54688 2.45313 1.65625 0 .53125-.0625 1.09375-.0625 1.09375h.65625l.78125-3.45312H3.32813l-.14063.59375 1.26563.10937c.34375.03125.5.20313.5.54688 0 .10937-.01563.26562-.0625.42187l-2.5 11.17188c-.15625.625-.35938.90625-.875.95312l-1.1875.10938Zm0 0"/></defs><path fill="none" stroke="#000" stroke-miterlimit="10" stroke-width=".39733" d="m30.02734 29.8711 127.17193 31.79688 31.79298 63.58596L61.82032 93.46096Zm0 0"/><use xlink:href="#a" x="22.47112" y="35.09166"/><use xlink:href="#b" x="7.71358" y="21.97728"/><use xlink:href="#a" x="149.64259" y="66.88502"/><use xlink:href="#c" x="165.09309" y="53.76965"/><use xlink:href="#a" x="54.26448" y="98.67739"/><use xlink:href="#d" x="39.75222" y="116.21774"/><use xlink:href="#a" x="181.43497" y="130.46976"/><use xlink:href="#e" x="196.88546" y="147.67509"/><use xlink:href="#a" x="86.05685" y="162.26313"/><use xlink:href="#f" x="71.54459" y="179.46747"/><use xlink:href="#a" x="213.22734" y="194.0555"/><use xlink:href="#g" x="228.67783" y="211.26083"/><path fill="none" stroke="#000" stroke-dasharray="2.9800428398 2.9800428398" stroke-miterlimit="10" stroke-width=".39733" d="m61.82032 93.46096 31.79298 63.58596 127.17193 31.79298-31.79298-63.58596"/></svg>