<svg xmlns="http://www.w3.org/2000/svg" xmlns:xlink="http://www.w3.org/1999/xlink" width="196.61pt" height="166.65pt" viewBox="0 0 196.61 166.65"><defs><path id="a" d="m2.70313-2.03125.78125.78125 3.23437-3.26562L9.98438-1.25l.75-.78125L7.5-5.26562l3.23438-3.26563-.75-.75-3.26563 3.23438-3.23437-3.23438-.78125.75 3.26562 3.26563Zm0 0"/><path id="b" d="M-.35937 0h4.21875l.125-.53125L2.9375-.64062c-.23437-.01563-.32812-.14063-.32812-.3125 0-.09376.03125-.23438.09375-.375C3.32813-2.53125 3.92188-3.73437 4.60938-5H8.8125l.45313 3.85938s-.09375.46875-.5.5l-.98438.10937L7.67188 0h4.59375l.125-.53125-.71875-.0625c-.57813-.0625-.65625-.32812-.75-1.09375l-1.375-11.23437H8.21875l-3.14062 5.5C4.125-5.75 2.5625-2.96875 1.875-1.84375 1.26563-.875.95313-.67187.375-.60937l-.60937.07812ZM5-5.70312l3.03125-5.5.6875 5.5Zm0 0"/><path id="c" d="M0 0h5.67188c4.51562 0 5.42187-2.32812 5.42187-3.875 0-1.96875-1.45312-2.82812-2.8125-3.09375L8.29688-7c2.48437-.29687 3.53125-1.71875 3.53125-3.125 0-1.51562-.89063-2.79687-4.32813-2.79687H2.76563l-.125.53125 1.125.09375c.3125.03125.45312.15625.45312.46875 0 .10937-.04687.26562-.07812.45312L1.92188-1.54687c-.125.60937-.3125.82812-.76563.89062l-1.0625.125Zm3.73438-1.4375c0-.14062.03125-.26562.0625-.40625L4.875-6.64062h.73438c1.84375 0 3.48437.53125 3.48437 2.65625 0 1.67187-1.01562 3.32812-3.53125 3.32812-1.46875 0-1.82812-.29687-1.82812-.78125m1.28125-5.85937.96875-4.34375c.14062-.54688.23437-.65625 1.5-.65625 1.5625 0 2.4375.79687 2.4375 2.10937 0 1.95313-1.625 2.89063-3.70313 2.89063Zm0 0"/><path id="d" d="M.96875-5.125c0 2.45313 1.21875 5.40625 5.85938 5.40625C8.15625.28125 9.42188.09375 10.625-.5l.90625-2.98437h-.54687C9.9375-1.60937 9.01563-.375 6.70313-.375c-2.17188 0-3.71875-1.39062-3.71875-4.28125 0-1.6875.4375-3.75 1.32812-5.25.9375-1.57812 2.40625-2.67187 4.42188-2.67187 2.35937 0 3.04687 1.09375 3.04687 3.15625h.57813l.67187-2.8125c-1.07812-.67188-2.82812-1-4.14062-1-3.51563 0-5.54688 1.65625-6.64063 3.40625C1.21875-8.15625.96875-6.42187.96875-5.125m0 0"/><path id="e" d="M0 0h5.73438c3.73437 0 5.90625-1.35937 7.25-3.375 1.07812-1.625 1.25-3.1875 1.25-4.29687 0-1.51563-.53125-3.03125-1.60938-3.92188-1.09375-.92187-2.76562-1.32812-4.82812-1.32812H2.76563l-.125.53125 1.125.07812c.3125.01563.4375.17188.4375.48438 0 .10937-.03125.26562-.0625.45312L1.90625-1.54687c-.14062.60937-.29687.84375-.75.89062l-1.0625.125Zm3.70313-1.375c0-.07812 0-.15625.01562-.23437l2.25-9.98438c.15625-.64062.42188-.70312 2.04688-.70312 3.90625.07812 4.21875 2.70312 4.21875 4.20312 0 1.60938-.375 3.125-1.21875 4.51563C9.9375-1.82812 8.35938-.65625 5.25-.65625c-.90625 0-1.54687-.125-1.54687-.71875m0 0"/><path id="f" d="M.20313 0H9.9375l.96875-3.28125h-.5625C9.39063-.96875 8.54688-.65625 6.25-.65625c-2.21875 0-2.32812-.28125-2.32812-.78125 0-.1875.0625-.46875.14062-.84375l.95313-4.10937h2.4375c1.39062 0 1.65625.28125 1.65625 1.09375 0 .17187 0 .32812-.01563.51562h.54688l.875-3.89062H9.9375C9.46875-7.375 9.26563-7.07812 7.625-7.07812H5.17188l1.04687-4.65625c.10938-.45313.21875-.5625.54688-.5625h2.25c1.82812 0 2.20312.48437 2.20312 1.5 0 .45312-.0625.96875-.0625.96875h.5625l.6875-3.09375h-9.4375l-.14062.53125 1.125.07812c.32812.01563.46875.15625.46875.45313 0 .125-.03125.26562-.0625.4375L2.125-1.54687c-.15625.625-.3125.84375-.76562.89062l-1.0625.125Zm0 0"/></defs><path fill="none" stroke="#000" stroke-miterlimit="10" stroke-width=".39766" d="M26.48828 26.57812 139.6367 54.86328l28.28905 56.5742L54.77343 83.15233Zm0 0"/><use xlink:href="#a" x="19.76794" y="31.21943"/><use xlink:href="#b" x="6.63852" y="19.55194"/><use xlink:href="#a" x="132.91531" y="59.50603"/><use xlink:href="#c" x="146.66144" y="47.83853"/><use xlink:href="#a" x="48.05454" y="87.79362"/><use xlink:href="#d" x="35.14465" y="103.39784"/><use xlink:href="#a" x="161.2029" y="116.08021"/><use xlink:href="#e" x="174.94803" y="131.38606"/><use xlink:href="#a" x="76.34213" y="144.3668"/><use xlink:href="#f" x="63.43124" y="159.67365"/></svg>