<svg xmlns="http://www.w3.org/2000/svg" xmlns:xlink="http://www.w3.org/1999/xlink" width="199.079pt" height="182.074pt" viewBox="0 0 199.079 182.074"><defs><path id="a" d="m3.03125-2.28125.875.875 3.625-3.65625 3.65625 3.65625.85938-.875-3.64063-3.625 3.64063-3.65625-.85938-.84375-3.65625 3.625-3.625-3.625-.875.84375L6.6875-5.90625Zm0 0"/><path id="b" d="M.67188-5.65625C.67188-2.20312 2.65625.3125 6.82813.3125c3.70312 0 5.5-1.89062 6.65625-3.96875 1.14062-2.04687 1.34375-4.1875 1.34375-5.01562 0-4.3125-2.60938-6.15625-6.0625-6.15625-3.34375 0-5.42188 1.84375-6.64063 3.85937C.95313-9.03125.67188-7.04687.67188-5.65625M2.875-4.8125c0-1.76562.32813-3.73437 1.29688-5.75.95312-1.98437 2.45312-3.53125 4.6875-3.53125 2.29687 0 3.76562 1.35938 3.76562 4.32813 0 1.20312-.10937 2.92187-.98437 5.15625-.875 2.25-2.29688 4.1875-5.01563 4.1875-2.28125 0-3.75-1.46875-3.75-4.39063m0 0"/><path id="c" d="M0 0h6.35938c5.0625 0 6.07812-2.60937 6.07812-4.34375 0-2.21875-1.625-3.17187-3.15625-3.45312l.01563-.04688c2.78125-.34375 3.96875-1.92187 3.96875-3.5 0-1.70312-1-3.15625-4.85938-3.15625h-5.3125l-.125.60938 1.25.10937c.35938.03125.51563.1875.51563.51563 0 .125-.04688.3125-.09375.51562L2.15625-1.73437c-.15625.6875-.34375.9375-.85937 1l-1.1875.125Zm4.1875-1.60937c0-.15626.03125-.3125.07813-.46875l1.20312-5.375h.8125c2.07813 0 3.90625.60937 3.90625 3 0 1.85937-1.14062 3.71875-3.9375 3.71875-1.65625 0-2.0625-.32813-2.0625-.875M5.625-8.1875l1.09375-4.85937c.15625-.625.26563-.73438 1.67188-.73438 1.75 0 2.73437.89063 2.73437 2.35938 0 2.1875-1.82812 3.23437-4.14062 3.23437Zm0 0"/><path id="d" d="M1.09375-5.75c0 2.76563 1.35938 6.0625 6.54688 6.0625 1.5 0 2.92187-.20312 4.26562-.875l1.03125-3.34375h-.625C11.15625-1.8125 10.09375-.42187 7.51563-.42187c-2.4375 0-4.17188-1.5625-4.17188-4.79688 0-1.89062.48438-4.21875 1.5-5.89062 1.04688-1.75 2.6875-2.98438 4.9375-2.98438 2.65625 0 3.42188 1.23438 3.42188 3.53125h.64062l.76563-3.15625c-1.20313-.75-3.17188-1.10937-4.64063-1.10937-3.95312 0-6.21875 1.84375-7.45312 3.8125-1.15625 1.875-1.42188 3.8125-1.42188 5.26562m0 0"/><path id="e" d="M0 0h6.42188c4.1875 0 6.625-1.51562 8.14062-3.79687 1.20313-1.79688 1.40625-3.5625 1.40625-4.8125 0-1.6875-.60937-3.39063-1.8125-4.39063-1.21875-1.03125-3.09375-1.5-5.42187-1.5H3.09375l-.125.60938 1.25.09375c.35938.01562.48438.20312.48438.53125 0 .125-.01563.3125-.0625.51562l-2.5 11.01563c-.15625.6875-.32813.95312-.84375 1l-1.1875.125Zm4.14063-1.53125c0-.09375 0-.1875.03125-.28125L6.6875-13c.1875-.71875.46875-.78125 2.29688-.78125 4.375.09375 4.73437 3.03125 4.73437 4.70313 0 1.8125-.4375 3.5-1.35937 5.0625-1.20313 1.96875-3 3.28125-6.46875 3.28125-1.03125 0-1.75-.14063-1.75-.79688m0 0"/><path id="f" d="M.21875 0h10.9375l1.0625-3.67187h-.625c-1.0625 2.57812-2 2.9375-4.59375 2.9375-2.46875 0-2.60937-.3125-2.60937-.875 0-.21876.0625-.53125.15625-.95313L5.625-7.15625h2.73438c1.5625 0 1.85937.3125 1.85937 1.21875 0 .1875 0 .35938-.03125.59375h.625l.98438-4.375h-.64063c-.54687 1.45313-.76562 1.78125-2.60937 1.78125h-2.75l1.1875-5.21875c.10937-.51562.23437-.625.59375-.625h2.51562c2.0625 0 2.48438.53125 2.48438 1.67188 0 .51562-.0625 1.09375-.0625 1.09375h.625L13.90625-14.5H3.32813l-.15625.60938 1.26562.09375c.35938.01562.51563.17187.51563.51562 0 .125-.03125.28125-.0625.48438l-2.5 11.0625c-.1875.70312-.35938.95312-.875 1l-1.1875.125Zm0 0"/><path id="g" d="M.21875 0H6.3125l.125-.60937-1.57812-.10938c-.375-.01562-.53125-.20312-.53125-.5 0-.14062.01562-.28125.0625-.45312l1.15625-5.17188h2.79687c1.53125 0 1.82813.28125 1.82813 1.1875 0 .17188 0 .375-.03125.59375h.625L11.75-9.45312h-.625c-.53125 1.46875-.78125 1.8125-2.625 1.8125H5.73438l1.25-5.5c.125-.53125.23437-.64063.625-.64063h2.5625c2.04687 0 2.45312.53125 2.45312 1.65625 0 .53125-.07812 1.09375-.07812 1.09375h.65625L13.98438-14.5H3.32813l-.14063.60938 1.25.10937c.35938.03125.51563.20313.51563.53125 0 .10938-.03125.26563-.0625.42188l-2.5 11.15625c-.15625.625-.35938.90625-.875.95312l-1.1875.10938Zm0 0"/><path id="h" d="M-.40625 0h4.73438l.125-.60937-1.15625-.10938c-.26563-.01562-.375-.15625-.375-.34375 0-.125.04687-.28125.10937-.4375.6875-1.32812 1.35938-2.6875 2.14063-4.09375H9.875l.51563 4.32813s-.10938.5-.5625.54687l-1.10938.10938L8.60938 0H13.75l.14063-.60937-.79688-.0625c-.65625-.0625-.73437-.35938-.85937-1.21875L10.70313-14.5h-1.5L5.6875-8.3125C4.60938-6.4375 2.875-3.32812 2.09375-2.07812 1.42188-.98437 1.0625-.76562.42188-.6875l-.6875.07813Zm6-6.40625 3.42188-6.14062.75 6.14062Zm0 0"/></defs><use xlink:href="#a" x="91.75509" y="96.10721"/><use xlink:href="#b" x="91.54317" y="82.70736"/><path fill="none" stroke="#000" stroke-miterlimit="10" stroke-width=".39648" d="m169.08985 90.89844-34.89844-60.44142H64.39453L29.49609 90.89844l34.89844 60.44532h69.79688Zm0 0"/><use xlink:href="#c" x="176.96771" y="98.14784"/><use xlink:href="#d" x="142.0702" y="22.26377"/><use xlink:href="#e" x="40.10179" y="22.57618"/><use xlink:href="#f" x="7.47871" y="98.14784"/><use xlink:href="#g" x="42.35433" y="173.71949"/><use xlink:href="#h" x="142.0702" y="173.71949"/></svg>