<svg xmlns="http://www.w3.org/2000/svg" xmlns:xlink="http://www.w3.org/1999/xlink" width="139.34pt" height="121.873pt" viewBox="0 0 139.34 121.873"><defs><path id="a" d="m1.6875-1.26562.48438.48437L4.1875-2.8125 6.21875-.78125l.46875-.48437-2.01562-2.01563L6.6875-5.3125l-.46875-.46875L4.1875-3.76562 2.17188-5.78125l-.48438.46875 2.03125 2.03125Zm0 0"/><path id="b" d="M-.21875 0h2.625l.07813-.32812-.65625-.0625C1.6875-.40625 1.625-.48437 1.625-.59375c0-.0625.01563-.15625.0625-.23437.375-.75.75-1.5 1.1875-2.28125h2.60938l.29687 2.40625s-.0625.28124-.3125.3125l-.625.0625L4.78125 0h2.85938l.07812-.32812L7.26563-.375c-.35938-.03125-.40625-.1875-.46875-.67187l-.84375-7H5.125L3.15625-4.625c-.59375 1.04688-1.5625 2.78125-1.98437 3.46875-.375.60938-.57813.73438-.9375.76563l-.39063.0625Zm3.32813-3.5625L5-6.96875l.42188 3.40625Zm0 0"/><path id="c" d="M0 0h3.53125c2.8125 0 3.375-1.45312 3.375-2.42187 0-1.21875-.89062-1.75-1.75-1.92188l.01563-.01562C6.71875-4.54687 7.375-5.42187 7.375-6.3125c0-.9375-.5625-1.73437-2.70312-1.73437H1.71875l-.07812.32812.70312.0625c.20313.01563.28125.09375.28125.28125q0 .1172-.04687.28125l-1.375 6.125C1.10937-.57812 1-.45312.71875-.40625L.0625-.32812Zm2.32813-.89062c0-.09376.01562-.17188.03125-.26563l.67187-2.98437H3.5c1.14063 0 2.15625.34375 2.15625 1.65625 0 1.04687-.625 2.07812-2.1875 2.07812-.92187 0-1.14062-.1875-1.14062-.48437M3.125-4.54687 3.73438-7.25c.07812-.34375.14062-.40625.92187-.40625.98438 0 1.53125.5 1.53125 1.3125 0 1.21875-1.01562 1.79688-2.3125 1.79688Zm0 0"/><path id="d" d="M.60938-3.20312c0 1.54687.75 3.375 3.64062 3.375.82813 0 1.625-.10938 2.35938-.48438l.57812-1.85937h-.34375C6.1875-1 5.60938-.23437 4.17188-.23437c-1.34375 0-2.3125-.875-2.3125-2.67188 0-1.04687.26562-2.32812.82812-3.26562.57813-.98438 1.5-1.65625 2.75-1.65625 1.46875 0 1.89063.67187 1.89063 1.95312h.35937l.42188-1.75c-.65625-.42187-1.75-.60937-2.57813-.60937-2.1875 0-3.45312 1.01562-4.125 2.10937C.75-5.07812.60938-4 .60938-3.20312m0 0"/><path id="e" d="M0 0h3.5625C5.89063 0 7.25-.84375 8.09375-2.10937c.67188-1 .78125-1.98438.78125-2.67188 0-.9375-.34375-1.89062-1-2.4375-.6875-.57812-1.73437-.82812-3.01562-.82812H1.71875l-.07812.32812.70312.04688c.20313.01562.26563.10937.26563.29687 0 .07813 0 .17188-.03125.28125L1.1875-.96875C1.10938-.57812 1-.4375.71875-.40625L.0625-.32812Zm2.29688-.85937c0-.04688 0-.09376.01562-.14063l1.40625-6.21875C3.8125-7.625 3.98438-7.65625 5-7.65625c2.42188.04688 2.625 1.6875 2.625 2.60938 0 1-.23437 1.95312-.76562 2.8125C6.1875-1.14062 5.20313-.40625 3.26563-.40625c-.5625 0-.96875-.07812-.96875-.45312m0 0"/><path id="f" d="M.125 0h6.0625l.60938-2.04687H6.4375C5.84375-.60937 5.32813-.40625 3.89063-.40625c-1.375 0-1.45313-.17187-1.45313-.48437 0-.125.04688-.29688.09375-.53125l.59375-2.5625h1.51563c.875 0 1.03125.1875 1.03125.6875 0 .09375 0 .20312-.01563.32812h.35938l.53125-2.4375H6.1875c-.29687.8125-.40625 1-1.4375 1H3.21875L3.875-7.3125c.0625-.28125.14063-.34375.34375-.34375h1.39063c1.14062 0 1.375.29688 1.375.92188 0 .29687-.03125.60937-.03125.60937h.34375l.4375-1.92187H1.84375l-.07812.32812.70312.04688c.1875.01562.28125.09375.28125.28125 0 .07812-.01562.17187-.03125.28125L1.32813-.96875c-.09376.40625-.20313.53125-.48438.5625L.1875-.32812Zm0 0"/><path id="g" d="M.125 0H3.5l.07813-.32812-.875-.0625c-.21875-.01563-.29688-.125-.29688-.29688 0-.0625.01563-.14062.03125-.23437l.64063-2.875h1.5625c.84375 0 1.01562.15625 1.01562.65625 0 .09375 0 .20312-.01562.32812h.34375L6.53125-5.25H6.1875c-.29687.8125-.4375 1-1.46875 1H3.1875l.6875-3.04687c.07813-.29688.14063-.35938.34375-.35938h1.4375c1.14063 0 1.35938.29688 1.35938.92188 0 .29687-.04688.59375-.04688.59375h.35938l.4375-1.90625H1.84375l-.07812.32812.70312.0625c.1875.01563.28125.10938.28125.29688 0 .0625-.01562.14062-.03125.23437L1.32813-.92187c-.09376.34375-.20313.5-.48438.53125l-.65625.0625Zm0 0"/></defs><path fill="none" stroke="#000" stroke-miterlimit="10" stroke-width=".39662" d="M16.5039 16.78906 87.03909 34.4258l17.63282 35.26563L34.13672 52.0586Zm0 0"/><use xlink:href="#a" x="12.31566" y="19.68489"/><use xlink:href="#b" x="4.13143" y="12.41135"/><use xlink:href="#a" x="82.84758" y="37.31737"/><use xlink:href="#c" x="91.416" y="30.04482"/><use xlink:href="#a" x="29.94815" y="54.95085"/><use xlink:href="#d" x="21.90027" y="64.67778"/><use xlink:href="#a" x="100.48006" y="72.58433"/><use xlink:href="#e" x="109.04848" y="82.12514"/><use xlink:href="#a" x="47.58162" y="90.21681"/><use xlink:href="#f" x="39.53374" y="99.75862"/><use xlink:href="#a" x="118.11354" y="107.85029"/><use xlink:href="#g" x="126.68196" y="117.3911"/><path fill="none" stroke="#000" stroke-dasharray="2.9747526107 2.9747526107" stroke-miterlimit="10" stroke-width=".39662" d="m34.13672 52.0586 17.63282 35.26564 70.53518 17.63282-17.63282-35.26564"/></svg>