<svg xmlns="http://www.w3.org/2000/svg" xmlns:xlink="http://www.w3.org/1999/xlink" width="255.517pt" height="178.981pt" viewBox="0 0 255.517 178.981"><defs><path id="b" d="M0-13.875h6.51563L5.65625-12.5l.60938.5c.84375-.9375 1.82812-1.57812 3.125-2.14062v-.8125c-1.3125-.54688-2.28125-1.20313-3.125-2.14063l-.60938.51563.85938 1.35937L0-15.23437Zm0 0"/><path id="c" d="M2.46875-1.40625C2.46875-.42187 2.89063.25 4.07813.25c2.01562 0 4.21875-2.21875 5.46875-4.65625h.04687l-.6875 2.39063c-.10937.42187-.1875.78125-.1875 1.09375C8.71875-.17187 9.07813.25 9.875.25c1.51563 0 2.76563-1.4375 3.5-3l-.48437-.3125c-.42188.71875-1.375 2.21875-1.95313 2.21875-.26562 0-.375-.1875-.375-.46875 0-.1875.04688-.40625.10938-.65625l2.26562-8.59375-1.89062.25c-.59375 2.14063-.95313 3.26563-1.5 4.54688-.90625 2.125-2.75 4.92187-4.48438 4.92187-.45312 0-.67187-.28125-.67187-.82812 0-.28126.04687-.60938.15625-1.01563l2.01562-7.76562-.125-.10938-3.8125.57813-.14062.51562 1.3125.10938c.3125.03125.4375.15625.4375.40625 0 .15625-.04688.35937-.125.60937L2.65625-2.79687c-.125.5-.1875.96875-.1875 1.39062m0 0"/><path id="d" d="M.5625-.20312.78125 0h8.70313l.71875-2.78125-.57813-.10937C9.17188-1.75 8.75-1.59375 7.89063-1.59375H2.53125c.32813-1.09375 1.57813-2.59375 3.53125-4 2.01563-1.48437 3.57813-2.42187 3.57813-4.76562 0-2.9375-1.9375-3.9375-4.15625-3.9375-2.89063 0-4.35938 1.75-4.35938 2.84375 0 .71875.79688 1.04687 1.15625 1.04687.375 0 .51563-.21875.60938-.57812.32812-1.4375 1.15625-2.57813 2.45312-2.57813 1.60938 0 2.07813 1.34375 2.07813 2.89063 0 2.26562-1.14063 3.53125-2.96875 5.14062C1.85938-3.26562.96875-1.82812.5625-.20312m0 0"/><path id="e" d="M1.79688-5.32812h11.5625V-6.5625H1.79688Zm0 0"/><path id="f" d="M.5625-2.14062C.5625-1.25 2.01563.25 4.98438.25c3.04687 0 4.96875-1.54687 4.96875-4.23437 0-2.8125-2.40625-3.64063-3.57813-3.75v-.09375c1.14063-.1875 2.95313-1.03125 2.95313-3.10938 0-2.32812-1.8125-3.35937-4.0625-3.35937-2.78125 0-4.14063 1.60937-4.14063 2.5 0 .65625.73438 1.01562 1.01563 1.01562s.4375-.15625.51562-.42187c.46875-1.4375 1.26563-2.35938 2.4375-2.35938 1.65625 0 2.09375 1.45313 2.09375 2.64063 0 1.25-.45312 2.84375-2.25 2.84375-1 0-1.57812-.20313-1.82812-.20313-.26563 0-.375.20313-.375.57813 0 .35937.10937.59375.375.59375.25 0 .82812-.20313 1.82812-.20313 1.79688 0 2.79688 1.60938 2.79688 3.4375 0 2.51563-1.21875 3.375-2.71875 3.375-1.39063 0-2.3125-1.01562-2.71875-2.20312-.125-.40625-.32813-.60938-.625-.60938-.375 0-1.10938.40625-1.10938 1.17188m0 0"/><path id="g" d="M1.59375 0h4.9375v-.45312L5.35938-.5625C5.03125-.59375 4.875-.70312 4.875-1.25v-8.67187L4.78125-10l-3.17187.53125v.39063l1.26562.17187c.28125.04688.375.15625.375.60938V-1.25c0 .54688-.14062.65625-.48437.6875l-1.17188.10938Zm0 0"/><path id="h" d="M.42188-.17187.59375 0h6.23438l.53125-2.09375-.4375-.07812c-.34375.78125-.60938.89062-1.20313.89062H1.95313c.23437-.70312 1.01562-1.6875 2.45312-2.65625 1.48438-1 2.54688-1.6875 2.54688-3.29687C6.95313-9.28125 5.5625-10 3.9375-10 1.92188-10 .78125-8.84375.78125-7.95312c0 .53125.60938.78125.92188.78125.28124 0 .42187-.15625.48437-.4375.23438-1.03125.78125-1.84375 1.64063-1.84375 1.04687 0 1.375.89062 1.375 1.95312 0 1.42188-.64063 2.35938-2.03125 3.54688-1.875 1.625-2.53125 2.6875-2.75 3.78125m0 0"/><clipPath id="a"><path d="M0 .16016h255.03516v178.64062H0Zm0 0"/></clipPath></defs><g clip-path="url(#a)"><path fill="none" stroke="#000" stroke-miterlimit="10" stroke-opacity=".5" stroke-width=".39775" d="M.19924 165.87107H254.8398M.19924 127.67577H254.8398M.19924 89.48047H254.8398M.19924 51.28517H254.8398M.19924 13.08987H254.8398M12.9297 178.60544V.3555m38.19531 178.24995V.3555m38.1953 178.24995V.3555m38.19921 178.24995V.3555m38.1953 178.24995V.3555m38.1953 178.24995V.3555m38.1953 178.24995V.3555"/></g><path fill="none" stroke="#007F7F" stroke-miterlimit="10" stroke-width=".39775" d="m12.93752 89.48047 72.29295-36.14452"/><path fill="#007F7F" stroke="#007F7F" stroke-miterlimit="10" stroke-width=".39771" d="M88.65625 51.6211c-.47656.09765-2.64453.3828-4.15234.26171l1.45312 2.90235c.8086-1.27344 2.33594-2.83985 2.69922-3.16406Zm0 0"/><use xlink:href="#b" x="47.57357" y="61.98799" fill="#007F7F"/><use xlink:href="#c" x="43.99384" y="62.23502" fill="#007F7F"/><path fill="none" stroke="#FF7F00" stroke-miterlimit="10" stroke-width=".39775" d="m12.93752 127.67186 148.67574-74.33591"/><path fill="#FF7F00" stroke="#FF7F00" stroke-miterlimit="10" stroke-width=".39771" d="M165.03906 51.6211c-.47656.09765-2.64453.3828-4.14843.26171l1.44921 2.90235c.8086-1.27344 2.33594-2.83985 2.69922-3.16406Zm0 0"/><use xlink:href="#d" x="76.61318" y="81.32993" fill="#FF7F00"/><use xlink:href="#b" x="91.33635" y="81.08514" fill="#FF7F00"/><use xlink:href="#c" x="87.75661" y="81.32993" fill="#FF7F00"/><path fill="none" stroke="#EC008C" stroke-miterlimit="10" stroke-width=".39775" d="M242.0898 51.28907 17.03127 163.8203"/><path fill="#EC008C" stroke="#EC008C" stroke-miterlimit="10" stroke-width=".39771" d="M13.60156 165.53125c.48047-.09766 2.64844-.3789 4.15235-.26172l-1.44922-2.90234c-.8086 1.27343-2.33594 2.83984-2.70313 3.16406Zm0 0"/><g fill="#EC008C"><use xlink:href="#e" x="107.24228" y="100.42583"/><use xlink:href="#f" x="122.36687" y="100.42583"/></g><use xlink:href="#b" x="137.08836" y="100.1788" fill="#EC008C"/><use xlink:href="#c" x="133.50863" y="100.42583" fill="#EC008C"/><path fill="none" stroke="#00ADEF" stroke-miterlimit="10" stroke-width=".39775" d="m203.8984 165.86326 34.09765-17.05078"/><path fill="#00ADEF" stroke="#00ADEF" stroke-miterlimit="10" stroke-width=".39773" d="M241.42578 147.10156c-.48047.09766-2.64843.3789-4.15234.26172l1.44922 2.90235c.8086-1.27735 2.33594-2.83985 2.70312-3.16407Zm0 0"/><use xlink:href="#g" x="211.88448" y="131.54076" fill="#00ADEF"/><path fill="none" stroke="#00ADEF" stroke-miterlimit="10" stroke-width="1.23067" d="M211.88281 134.60547h7.9414"/><use xlink:href="#h" x="211.88448" y="148.41087" fill="#00ADEF"/><use xlink:href="#b" x="226.08888" y="140.29022" fill="#00ADEF"/><use xlink:href="#c" x="222.50914" y="140.53501" fill="#00ADEF"/></svg>