<svg xmlns="http://www.w3.org/2000/svg" xmlns:xlink="http://www.w3.org/1999/xlink" width="261.897" height="183.447" viewBox="0 0 261.897 183.447"><defs><path id="b" d="M0-13.85937h6.5l-.84375 1.375.59375.51562c.85938-.95312 1.84375-1.59375 3.14063-2.15625v-.79687C8.0625-15.48437 7.10938-16.125 6.25-17.07812l-.59375.51562.84375 1.375-6.5-.03125Zm0 0"/><path id="c" d="M2.45313-1.40625C2.45313-.42187 2.875.25 4.0625.25c2.01563 0 4.23438-2.21875 5.48438-4.65625h.03125l-.6875 2.39063c-.10938.42187-.17188.78125-.17188 1.09375 0 .75.35938 1.17187 1.14063 1.17187 1.51562 0 2.76562-1.4375 3.5-3l-.48438-.3125c-.42187.71875-1.375 2.21875-1.95312 2.21875-.26563 0-.375-.1875-.375-.46875 0-.1875.04687-.40625.10937-.65625l2.26563-8.57812-1.89063.25c-.59375 2.14062-.95312 3.26562-1.48437 4.53125-.92188 2.125-2.75 4.92187-4.5 4.92187-.4375 0-.67188-.26562-.67188-.82812 0-.26563.04688-.60938.15625-1.01563l2.01563-7.75-.10938-.10937-3.82812.57812-.125.51563 1.3125.10937c.3125.03125.42187.15625.42187.40625 0 .15625-.04687.35938-.10937.60938L2.65625-2.79687c-.125.5-.20312.96875-.20312 1.39062m0 0"/><clipPath id="a"><path d="M.34375 0h261.10938v182.89453H.34375Zm0 0"/></clipPath></defs><g clip-path="url(#a)"><path fill="none" stroke="#000" stroke-miterlimit="10" stroke-opacity=".5" stroke-width=".3973" d="M.53902 169.6602h260.71496M.53902 130.5547h260.71496M.53902 91.44923h260.71496M.53902 52.33982h260.71496M.53902 13.23435h260.71496M13.57418 182.69926V.19527m39.1094 182.50399V.19527m39.10548 182.50399V.19527m39.1094 182.50399V.19527m39.10548 182.50399V.19527m39.1094 182.50399V.19527m39.10548 182.50399V.19527"/></g><path fill="none" stroke="#000" stroke-miterlimit="10" stroke-width=".3973" d="m13.5898 91.44922 77.8438-38.9258"/><path fill="none" stroke="#000" stroke-linecap="round" stroke-linejoin="round" stroke-miterlimit="10" stroke-width=".39727" d="M88.69922 51.22656c.97656 1.11328 2.03125 1.33985 2.91406 1.21094-.63281.625-1.08594 1.60547-.78125 3.05469"/><use xlink:href="#b" x="49.13762" y="63.51005"/><use xlink:href="#c" x="45.5619" y="63.7568"/></svg>