<svg xmlns="http://www.w3.org/2000/svg" xmlns:xlink="http://www.w3.org/1999/xlink" width="176.973pt" height="161.856pt" viewBox="0 0 176.973 161.856"><defs><path id="a" d="m2.70313-2.03125.78125.78125 3.25-3.26562L10-1.25l.75-.78125-3.25-3.25 3.25-3.26562-.75-.75-3.26562 3.25-3.25-3.25-.78125.75 3.26562 3.26562Zm0 0"/><path id="b" d="M.59375-5.0625c0 3.09375 1.78125 5.34375 5.5 5.34375 3.29688 0 4.92188-1.6875 5.95313-3.54687C13.0625-5.09375 13.23438-7 13.23438-7.75c0-3.82812-2.32813-5.48437-5.40625-5.48437-2.98438 0-4.84375 1.65625-5.9375 3.4375C.85938-8.0625.59375-6.29687.59375-5.0625m1.96875.76563c0-1.57813.29688-3.32813 1.15625-5.14063.85938-1.76562 2.1875-3.14062 4.1875-3.14062 2.04688 0 3.35938 1.21875 3.35938 3.85937 0 1.07813-.09375 2.60938-.875 4.59375-.78125 2.01563-2.04688 3.75-4.48438 3.75C3.875-.375 2.5625-1.6875 2.5625-4.29687m0 0"/><path id="c" d="M0 0h5.67188c4.51562 0 5.4375-2.32812 5.4375-3.875 0-1.98437-1.45313-2.82812-2.82813-3.09375L8.29688-7c2.5-.3125 3.54687-1.71875 3.54687-3.125 0-1.51562-.89062-2.8125-4.34375-2.8125H2.76563l-.125.53125 1.125.10938c.3125.01562.45312.15625.45312.45312 0 .125-.03125.28125-.07812.45313L1.9375-1.54687c-.14062.60937-.32812.82812-.78125.89062l-1.0625.125Zm3.75-1.4375c0-.14062.01563-.28125.04688-.40625L4.875-6.65625h.73438c1.85937 0 3.48437.54688 3.48437 2.67188 0 1.67187-1.01562 3.32812-3.51562 3.32812C4.09375-.65625 3.75-.95312 3.75-1.4375m1.26563-5.875.96875-4.32812c.14062-.5625.25-.65625 1.5-.65625 1.57812 0 2.45312.79687 2.45312 2.10937 0 1.95313-1.64062 2.875-3.70312 2.875Zm0 0"/><path id="d" d="M.96875-5.14062c0 2.46875 1.21875 5.42187 5.85938 5.42187C8.15625.28125 9.4375.09375 10.625-.5l.92188-2.98437h-.5625C9.95313-1.60937 9.01563-.375 6.70313-.375c-2.17188 0-3.71875-1.39062-3.71875-4.28125 0-1.6875.4375-3.76562 1.32812-5.25.9375-1.57812 2.42188-2.67187 4.42188-2.67187 2.375 0 3.04687 1.09375 3.04687 3.14062h.57813l.67187-2.8125c-1.0625-.67187-2.8125-.98437-4.14062-.98437-3.51563 0-5.54688 1.65625-6.64063 3.40625C1.21875-8.15625.96875-6.4375.96875-5.14062m0 0"/><path id="e" d="M0 0h5.73438C9.46875 0 11.64063-1.35937 13-3.39062 14.07813-5 14.25-6.5625 14.25-7.6875c0-1.51562-.53125-3.01562-1.60937-3.92187-1.09375-.90625-2.76563-1.32813-4.84375-1.32813H2.76563l-.125.53125 1.125.07813c.3125.03125.4375.1875.4375.48437 0 .125-.01563.28125-.0625.45313L1.90625-1.54687c-.14062.60937-.29687.84375-.75.89062l-1.0625.125Zm3.70313-1.375c0-.07812 0-.15625.01562-.23437l2.25-10c.15625-.64063.42188-.6875 2.04688-.6875 3.90625.07812 4.23437 2.70312 4.23437 4.1875 0 1.625-.39062 3.125-1.21875 4.53125C9.95313-1.82812 8.35938-.65625 5.25-.65625c-.90625 0-1.54687-.125-1.54687-.71875m0 0"/><path id="f" d="M.20313 0h9.75l.95312-3.28125h-.5625C9.39063-.96875 8.5625-.65625 6.25-.65625c-2.20312 0-2.32812-.28125-2.32812-.78125 0-.1875.0625-.46875.14062-.85937l.95313-4.09375h2.45312c1.39063 0 1.64063.28125 1.64063 1.09375 0 .15625 0 .3125-.01563.51562h.5625l.875-3.89062h-.57812C9.46875-7.39062 9.28125-7.09375 7.625-7.09375H5.17188L6.23438-11.75c.09375-.45312.21875-.54687.53125-.54687h2.25c1.82812 0 2.21875.46875 2.21875 1.48437 0 .46875-.0625.98438-.0625.98438h.54687l.70313-3.10938H2.96875l-.14062.53125 1.14062.07813c.3125.03125.45313.17187.45313.46875 0 .10937-.01563.25-.0625.4375L2.125-1.54687c-.15625.625-.3125.84375-.76562.89062l-1.0625.125Zm0 0"/><path id="g" d="M.20313 0h5.4375L5.75-.53125 4.34375-.64062C4-.65625 3.85938-.8125 3.85938-1.09375c0-.125.01562-.23437.0625-.40625l1.03125-4.60937H7.4375c1.375 0 1.64063.25 1.64063 1.04687 0 .17188 0 .34375-.01563.54688h.54688l.875-3.92188H9.9375c-.48437 1.3125-.70312 1.60938-2.35937 1.60938H5.10938l1.125-4.89063c.10937-.48437.21875-.57812.54687-.57812h2.29688c1.82812 0 2.1875.46875 2.1875 1.46875 0 .48437-.0625.96875-.0625.96875h.57812l.70313-3.07813H2.96875l-.125.53125 1.125.10938c.3125.01562.45313.17187.45313.46875 0 .10937-.01563.25-.0625.375L2.125-1.5c-.14062.5625-.3125.82813-.76562.85938l-1.0625.10937Zm0 0"/><path id="h" d="M-.35937 0h4.21875l.125-.53125-1.03125-.10937c-.25-.01563-.34375-.14063-.34375-.3125q0-.16407.09375-.375C3.32813-2.53125 3.92188-3.75 4.625-5h4.1875l.46875 3.85938s-.10937.46875-.5.5l-1 .10937L7.6875 0h4.59375l.125-.53125-.71875-.0625c-.57812-.0625-.65625-.32812-.76562-1.09375l-1.35938-11.25H8.21875L5.07813-7.42187C4.125-5.75 2.5625-2.96875 1.875-1.84375 1.28125-.875.95313-.67187.375-.60937l-.60937.07812ZM5-5.71875l3.04688-5.48437.67187 5.48437Zm0 0"/></defs><use xlink:href="#a" x="81.93333" y="85.79367"/><use xlink:href="#b" x="81.7445" y="73.83331"/><path fill="none" stroke="#000" stroke-miterlimit="10" stroke-width=".39815" d="M150.96874 81.14453 119.8164 27.1836H57.50782L26.35548 81.14453l31.15234 53.96093h62.30858Zm0 0"/><use xlink:href="#c" x="158.00265" y="87.61505"/><use xlink:href="#d" x="126.84937" y="19.87432"/><use xlink:href="#e" x="35.82335" y="20.15307"/><use xlink:href="#f" x="6.70026" y="87.61505"/><use xlink:href="#g" x="37.83357" y="155.07703"/><use xlink:href="#h" x="126.84937" y="155.07703"/></svg>