<svg xmlns="http://www.w3.org/2000/svg" xmlns:xlink="http://www.w3.org/1999/xlink" width="314.542" height="112.006" viewBox="0 0 314.542 112.006"><defs><path id="a" d="M-.40625 0H4.3125l.125-.59375-1.15625-.125c-.26562-.01562-.375-.14062-.375-.34375 0-.10937.04688-.26562.10938-.42187.6875-1.34375 1.35937-2.6875 2.14062-4.09375h4.6875l.51563 4.3125S10.25-.75 9.79688-.71875l-1.10938.125L8.57813 0h5.125l.14062-.59375-.79687-.07812c-.65625-.0625-.73438-.34375-.84375-1.21875L10.67188-14.4375h-1.5l-3.5 6.15625C4.59375-6.42187 2.85938-3.3125 2.09375-2.0625 1.42188-.98437 1.0625-.75.42188-.6875l-.6875.09375Zm5.98438-6.375 3.39062-6.14062.76563 6.14062Zm0 0"/><path id="b" d="M0 0h6.32813c5.04687 0 6.0625-2.59375 6.0625-4.32812 0-2.20313-1.60938-3.15625-3.14063-3.45313l.01563-.04687c2.78125-.32813 3.95312-1.90625 3.95312-3.48438 0-1.6875-1-3.125-4.84375-3.125H3.09375l-.14062.59375 1.25.10938c.35937.03125.5.1875.5.51562 0 .125-.03125.3125-.07813.51563L2.15625-1.73437c-.15625.6875-.35937.9375-.875 1L.10938-.59375Zm4.17188-1.59375c0-.15625.03125-.3125.07812-.46875l1.1875-5.35937h.82813c2.0625 0 3.89062.59375 3.89062 2.98437 0 1.85938-1.14062 3.70313-3.9375 3.70313-1.64062 0-2.04687-.32813-2.04687-.85938m1.42187-6.5625L6.6875-13c.15625-.625.26563-.73437 1.67188-.73437 1.75 0 2.73437.89062 2.73437 2.35937 0 2.17188-1.82812 3.21875-4.14062 3.21875Zm0 0"/><path id="c" d="M1.09375-5.73437c0 2.75 1.34375 6.04687 6.53125 6.04687 1.48438 0 2.90625-.20312 4.23438-.875l1.03125-3.32812h-.625C11.10938-1.79687 10.0625-.42187 7.48438-.42187c-2.42188 0-4.15625-1.5625-4.15625-4.78125 0-1.89063.5-4.20313 1.5-5.85938 1.03125-1.75 2.6875-2.98437 4.92187-2.98437 2.64063 0 3.40625 1.23437 3.40625 3.51562h.64063l.75-3.14062c-1.1875-.75-3.15625-1.10938-4.60938-1.10938-3.9375 0-6.20312 1.84375-7.42187 3.8125-1.15625 1.85938-1.42188 3.79688-1.42188 5.23438m0 0"/><path id="d" d="M0-13.78125h5.54688v-1.32812H0Zm0 0"/><path id="e" d="M0-13.78125h13.79688l-.84375 1.35938.59375.51562c.84375-.9375 1.82812-1.57812 3.10937-2.14062v-.79688c-1.29687-.54687-2.26562-1.20312-3.10937-2.125l-.59375.5.84375 1.35938H0Zm0 0"/><path id="f" d="M1.78125-5.28125h5.125v5.125H8.125v-5.125h5.14063v-1.23437H8.125v-5.125H6.90625v5.125h-5.125Zm0 0"/><path id="g" d="M1.78125-2.98437h11.48438v-1.21875H1.78125Zm0-4.59375h11.48438v-1.21875H1.78125Zm0 0"/></defs><path fill="none" stroke="#007F7F" stroke-miterlimit="10" stroke-width=".39499" d="m30.74219 33.91406 62.89846 47.1719"/><path fill="none" stroke="#007F7F" stroke-linecap="round" stroke-linejoin="round" stroke-miterlimit="10" stroke-width=".39498" d="M93.57812 78.07813c-.55468 1.35937-.28906 2.39843.21875 3.125-.83984-.28126-1.91015-.2461-3.0664.66406"/><path fill="none" stroke="#FF7F00" stroke-miterlimit="10" stroke-width=".39499" d="M93.95706 81.32424 283.19934 65.5547"/><path fill="none" stroke="#FF7F00" stroke-linecap="round" stroke-linejoin="round" stroke-miterlimit="10" stroke-width=".39498" d="M281.15234 63.34375c.4922 1.38672 1.38282 1.98828 2.2422 2.1914-.81641.34766-1.59376 1.08594-1.84766 2.53516"/><path fill="none" stroke="#EC008C" stroke-miterlimit="10" stroke-width=".39499" d="m30.74219 33.91406 252.45715 31.55861"/><path fill="none" stroke="#EC008C" stroke-linecap="round" stroke-linejoin="round" stroke-miterlimit="10" stroke-width=".39499" d="M281.65234 62.89062c.19532 1.45704.9414 2.22657 1.7461 2.60547-.8711.16797-1.78516.73047-2.33203 2.09766"/><use xlink:href="#a" x="8.56172" y="26.06469"/><use xlink:href="#b" x="87.12253" y="103.61546"/><use xlink:href="#c" x="291.43932" y="57.35996"/><use xlink:href="#d" x="25.61439" y="82.4436" fill="#007F7F"/><use xlink:href="#d" x="29.70264" y="82.4436" fill="#007F7F"/><use xlink:href="#d" x="33.76867" y="82.4436" fill="#007F7F"/><use xlink:href="#e" x="37.83471" y="82.4436" fill="#007F7F"/><use xlink:href="#a" x="25.61439" y="86.64308" fill="#007F7F"/><use xlink:href="#b" x="40.83424" y="86.64308" fill="#007F7F"/><use xlink:href="#d" x="196.62178" y="98.2471" fill="#FF7F00"/><use xlink:href="#d" x="200.64338" y="98.2471" fill="#FF7F00"/><use xlink:href="#d" x="204.64275" y="98.2471" fill="#FF7F00"/><use xlink:href="#e" x="208.64213" y="98.2471" fill="#FF7F00"/><use xlink:href="#b" x="196.62178" y="102.77889" fill="#FF7F00"/><use xlink:href="#c" x="211.2195" y="102.77889" fill="#FF7F00"/><use xlink:href="#d" x="91.29154" y="24.71393" fill="#007F7F"/><use xlink:href="#d" x="95.37979" y="24.71393" fill="#007F7F"/><use xlink:href="#d" x="99.44582" y="24.71393" fill="#007F7F"/><use xlink:href="#e" x="103.51185" y="24.71393" fill="#007F7F"/><use xlink:href="#a" x="91.29154" y="28.91341" fill="#007F7F"/><use xlink:href="#b" x="106.51139" y="28.91341" fill="#007F7F"/><use xlink:href="#f" x="123.26157" y="28.91341" fill="#EC008C"/><use xlink:href="#d" x="141.3664" y="24.37939" fill="#FF7F00"/><use xlink:href="#d" x="145.38799" y="24.37939" fill="#FF7F00"/><use xlink:href="#d" x="149.38737" y="24.37939" fill="#FF7F00"/><use xlink:href="#e" x="153.38674" y="24.37939" fill="#FF7F00"/><use xlink:href="#b" x="141.3664" y="28.91341" fill="#FF7F00"/><use xlink:href="#c" x="155.96412" y="28.91341" fill="#FF7F00"/><use xlink:href="#g" x="174.37124" y="28.91341" fill="#EC008C"/><use xlink:href="#d" x="193.73391" y="24.37939" fill="#EC008C"/><use xlink:href="#d" x="197.95547" y="24.37939" fill="#EC008C"/><use xlink:href="#d" x="202.17704" y="24.37939" fill="#EC008C"/><use xlink:href="#e" x="206.37638" y="24.37939" fill="#EC008C"/><use xlink:href="#a" x="193.73391" y="28.91341" fill="#EC008C"/><use xlink:href="#c" x="208.95376" y="28.91341" fill="#EC008C"/></svg>