<svg xmlns="http://www.w3.org/2000/svg" xmlns:xlink="http://www.w3.org/1999/xlink" width="191.717pt" height="89.934pt" viewBox="0 0 191.717 89.934"><defs><clipPath id="a"><path d="M58 19h133.4336v28H58Zm0 0"/></clipPath><clipPath id="b"><path d="M180 33h11.4336v15H180Zm0 0"/></clipPath><clipPath id="c"><path d="M0 36h191.4336v43H0Zm0 0"/></clipPath><clipPath id="d"><path d="M180 34h11.4336v15H180Zm0 0"/></clipPath><path id="e" d="M0-13.875h6.51563l-.84375 1.35938L6.26563-12c.85937-.9375 1.84375-1.59375 3.14062-2.15625v-.79687c-1.32812-.5625-2.28125-1.21875-3.14062-2.15625l-.59375.51562.84375 1.375L0-15.25Zm0 0"/><path id="f" d="M2.46875-1.40625C2.46875-.42187 2.89063.25 4.07813.25 6.09375.25 8.3125-1.96875 9.5625-4.40625h.04688l-.70313 2.39063c-.10937.42187-.17187.78125-.17187 1.09375C8.73438-.17187 9.09375.25 9.875.25c1.51563 0 2.78125-1.4375 3.51563-3l-.5-.3125c-.42188.71875-1.35938 2.21875-1.9375 2.21875-.26563 0-.39063-.1875-.39063-.48437 0-.17188.04688-.39063.125-.64063l2.25-8.59375-1.875.23438c-.60937 2.15625-.96875 3.28125-1.5 4.54687-.92187 2.125-2.75 4.9375-4.5 4.9375-.45312 0-.67187-.28125-.67187-.82812 0-.28126.04687-.60938.15625-1.01563l2.01562-7.76562-.10937-.10938-3.82813.57813-.14062.51562 1.32812.10938c.3125.01562.42188.15625.42188.40625 0 .15625-.04688.35937-.10938.59375l-1.45312 5.5625c-.14063.48437-.20313.95312-.20313 1.39062m0 0"/><path id="g" d="m2.46875-9.46875 1.29688.10938c.3125.01562.40625.14062.40625.375 0 .15625-.03125.35937-.09375.625L2.79688-2.5c-.09375.39063-.125.73438-.125 1.04688C2.67188-.26562 3.29688.25 4.25.25c1.8125 0 3.625-1.6875 5.09375-3.625 1.42188-1.9375 2.4375-4.26562 2.45313-5.5625 0-.82812-.46875-1.625-.64063-1.625-.51562 0-1.10937.17188-1.54687.4375.20312.75.26562 1.53125.26562 2.625C9.6875-4.64062 6.98438-.84375 5.28125-.84375c-.46875 0-.76562-.29687-.76562-.90625 0-.15625.03125-.35937.07812-.5625l1.82813-8.14062-.10938-.10938-3.71875.57813Zm0 0"/><path id="h" d="M1.79688-5.32812h5.17187v5.17187H8.1875v-5.17187h5.1875V-6.5625H8.1875v-5.17187H6.96875v5.17187H1.79688Zm0 0"/></defs><path fill="none" stroke="#007F7F" stroke-miterlimit="10" stroke-width=".39791" d="m.19922 72.79297 60.01953-45.01172"/><path fill="#007F7F" stroke="#007F7F" stroke-miterlimit="10" stroke-width=".3979" d="M63.28516 25.48047c-.45313.17968-2.53907.84765-4.04297 1l1.94922 2.59765c.5664-1.39843 1.79297-3.21484 2.09375-3.59765Zm0 0"/><g clip-path="url(#a)"><path fill="none" stroke="#FF7F00" stroke-miterlimit="10" stroke-width=".39791" d="m63.8789 25.03516 122.8164 15.35156"/></g><path fill="#FF7F00" d="M190.5 40.86328c-.45312-.1836-2.41406-1.15234-3.60156-2.08594l-.40235 3.21875c1.37891-.61328 3.51953-1.0664 4.00391-1.1328m0 0"/><g clip-path="url(#b)"><path fill="none" stroke="#FF7F00" stroke-miterlimit="10" stroke-width=".39791" d="M190.5 40.86328c-.45313-.1836-2.41406-1.15234-3.60156-2.08594l-.40235 3.21875c1.3789-.61328 3.51953-1.0664 4.0039-1.13281Zm0 0"/></g><g clip-path="url(#c)"><path fill="none" stroke="#EC008C" stroke-miterlimit="10" stroke-width=".39791" d="m.19922 72.79297 186.52343-31.08594"/></g><path fill="#EC008C" d="M190.5039 41.07813c-.48437-.05079-2.64452-.41797-4.04687-.97266l.53516 3.20312c1.14453-.98437 3.0664-2.03125 3.51172-2.23047m0 0"/><g clip-path="url(#d)"><path fill="none" stroke="#EC008C" stroke-miterlimit="10" stroke-width=".39789" d="M190.5039 41.07812c-.48437-.05078-2.64453-.41796-4.04687-.97265l.53516 3.20312c1.14453-.98437 3.0664-2.03125 3.51172-2.23047Zm0 0"/></g><use xlink:href="#e" x="13.43167" y="40.51308" fill="#007F7F"/><use xlink:href="#f" x="9.85046" y="40.76021" fill="#007F7F"/><use xlink:href="#e" x="138.15107" y="24.59357" fill="#FF7F00"/><use xlink:href="#g" x="135.46404" y="24.84071" fill="#FF7F00"/><use xlink:href="#e" x="75.11562" y="81.88326" fill="#EC008C"/><use xlink:href="#f" x="71.53441" y="82.12815" fill="#EC008C"/><use xlink:href="#h" x="89.39596" y="82.12815" fill="#EC008C"/><use xlink:href="#e" x="110.34137" y="81.88326" fill="#EC008C"/><use xlink:href="#g" x="107.65658" y="82.12815" fill="#EC008C"/></svg>