<svg xmlns="http://www.w3.org/2000/svg" xmlns:xlink="http://www.w3.org/1999/xlink" width="387.669pt" height="92.334pt" viewBox="0 0 387.669 92.334"><defs><path id="a" d="m1.75-1.3125.5.5 2.09375-2.10937L6.45313-.8125l.48437-.5-2.09375-2.09375L6.9375-5.51562 6.45313-6 4.34375-3.90625 2.25-6l-.5.48438 2.10938 2.10937Zm0 0"/><path id="b" d="M.39063-3.26562c0 2 1.14062 3.45312 3.54687 3.45312 2.125 0 3.17188-1.09375 3.84375-2.29687.65625-1.1875.76563-2.42188.76563-2.89063 0-2.48437-1.5-3.54687-3.5-3.54687-1.92188 0-3.125 1.0625-3.82813 2.21875-.67187 1.125-.82812 2.26562-.82812 3.0625m1.26562.48437c0-1.01562.20313-2.14062.75-3.3125C2.95313-7.23437 3.8125-8.125 5.10938-8.125c1.3125 0 2.17187.78125 2.17187 2.5 0 .6875-.0625 1.67188-.5625 2.96875C6.21875-1.35937 5.39063-.25 3.8125-.25 2.5-.25 1.65625-1.09375 1.65625-2.78125m0 0"/><path id="c" d="M.625-3.3125c0 1.59375.79688 3.5 3.78125 3.5.85938 0 1.6875-.125 2.45313-.51562L7.45313-2.25h-.35938c-.67187 1.20313-1.26562 2-2.76562 2-1.39063 0-2.40625-.89062-2.40625-2.76562 0-1.09375.29687-2.42188.875-3.39063C3.39063-7.42187 4.34375-8.125 5.64063-8.125c1.53125 0 1.96875.70313 1.96875 2.03125h.375l.4375-1.8125c-.6875-.4375-1.82813-.64062-2.67188-.64062-2.28125 0-3.59375 1.0625-4.29687 2.1875C.78125-5.26562.625-4.15625.625-3.3125m0 0"/><path id="d" d="M0 0h3.70313c2.42187 0 3.8125-.875 4.6875-2.1875.70312-1.04687.8125-2.0625.8125-2.78125 0-.96875-.34375-1.95312-1.03125-2.53125-.71875-.59375-1.79688-.85937-3.125-.85937H1.78125l-.07812.34375.73437.0625c.20313 0 .28125.10937.28125.29687 0 .07813-.01562.1875-.04687.29688L1.23438-1c-.09376.39063-.1875.54688-.48438.57813l-.6875.07812Zm2.39063-.89062c0-.04688 0-.09376.01562-.15626L3.85938-7.5c.09375-.40625.26562-.45312 1.32812-.45312 2.51563.0625 2.71875 1.75 2.71875 2.71875 0 1.04687-.23437 2.01562-.78125 2.92187-.70312 1.125-1.71875 1.89063-3.73437 1.89063-.59375 0-1-.07813-1-.46875m0 0"/><path id="e" d="M-.23437 0H2.5l.07813-.34375-.67188-.0625C1.75-.42187 1.6875-.5 1.6875-.625c0-.0625.01563-.14062.0625-.23437.39063-.78125.78125-1.5625 1.23438-2.375h2.71875L6-.73437s-.07812.29687-.32812.32812l-.64063.0625L4.96875 0H7.9375l.07813-.34375-.46875-.04687c-.375-.03125-.42188-.20313-.48438-.70313l-.89062-7.26562H5.3125l-2.03125 3.5625c-.625 1.07812-1.625 2.875-2.07812 3.59375C.82813-.5625.625-.4375.25-.40625l-.40625.0625Zm3.46875-3.6875L5.1875-7.23437 5.625-3.6875Zm0 0"/><path id="f" d="M0 0h3.67188c2.90625 0 3.5-1.5 3.5-2.5 0-1.28125-.9375-1.82812-1.82813-2l.01563-.03125c1.60937-.1875 2.29687-1.09375 2.29687-2.01562 0-.96875-.57812-1.8125-2.8125-1.8125h-3.0625l-.07812.34375.73437.0625c.20313.01562.28125.10937.28125.29687 0 .07813-.01562.1875-.04687.29688L1.25-1c-.09375.39063-.20312.53125-.5.57813l-.6875.07812Zm2.42188-.92187c0-.09376.01562-.1875.03125-.28126l.70312-3.09374H3.625c1.20313 0 2.25.34375 2.25 1.71875 0 1.09375-.65625 2.15625-2.28125 2.15625-.9375 0-1.17187-.20313-1.17187-.5m.8125-3.79688L3.875-7.51562c.07813-.35938.15625-.4375.95313-.4375 1.01562 0 1.59375.51562 1.59375 1.375 0 1.25-1.0625 1.85937-2.39063 1.85937Zm0 0"/><path id="g" d="M0-7.96875h3.21875V-8.75H0Zm0 0"/><path id="h" d="M0-7.96875h7.98438L7.5-7.1875l.34375.29688c.48438-.54688 1.0625-.92188 1.79688-1.23438v-.46875c-.75-.3125-1.3125-.6875-1.79688-1.23437L7.5-9.53125l.48438.78125H0Zm0 0"/><path id="i" d="M1.03125-3.0625H4v2.96875h.70313V-3.0625h2.96875v-.70312H4.70313v-2.96875H4v2.96875H1.03125Zm0 0"/></defs><use xlink:href="#a" x="43.63389" y="49.02538"/><use xlink:href="#b" x="43.51078" y="41.30011"/><path fill="none" stroke="#000" stroke-miterlimit="10" stroke-width=".39565" d="M76.44141 17.55859h-56.9258v56.9297h56.9258Zm0 0"/><use xlink:href="#c" x="80.98547" y="12.83641"/><use xlink:href="#d" x="5.50988" y="13.01711"/><use xlink:href="#e" x="6.67944" y="87.38668"/><use xlink:href="#f" x="80.98547" y="87.38668"/><path fill="none" stroke="#007f7f" stroke-miterlimit="10" stroke-width=".39565" d="M19.51562 74.48829h52.37892"/><path fill="#007f7f" stroke="#007f7f" stroke-miterlimit="10" stroke-width=".39565" d="M75.70313 74.48828c-.46875-.1289-2.52344-.83984-3.8086-1.61719v3.23047c1.28516-.77734 3.33985-1.48828 3.8086-1.61328Zm0 0"/><path fill="none" stroke="#007f7f" stroke-miterlimit="10" stroke-width=".39565" d="m47.98047 46.02344-25.2461-25.2461"/><path fill="#007f7f" stroke="#007f7f" stroke-miterlimit="10" stroke-width=".39564" d="M20.03906 18.08203c.2422.42188 1.19141 2.3789 1.5547 3.83594l2.28124-2.28125c-1.45703-.36328-3.41797-1.3125-3.83594-1.55469Zm0 0"/><path fill="none" stroke="#000" stroke-miterlimit="10" stroke-width=".39565" d="M102.8594 46.02344h32.03906"/><path stroke="#000" stroke-miterlimit="10" stroke-width=".39565" d="M138.70703 46.02344c-.46875-.125-2.52344-.83985-3.8086-1.61328v3.22656c1.28516-.77344 3.33985-1.48828 3.8086-1.61328Zm0 0"/><use xlink:href="#a" x="189.97931" y="49.02538"/><use xlink:href="#b" x="189.85719" y="41.30011"/><path fill="none" stroke="#000" stroke-miterlimit="10" stroke-width=".39565" d="M222.79302 17.55859h-56.9297v56.9297h56.9297Zm0 0"/><use xlink:href="#c" x="227.33188" y="12.83641"/><use xlink:href="#d" x="151.85629" y="13.01711"/><use xlink:href="#e" x="153.02585" y="87.38668"/><use xlink:href="#f" x="227.33188" y="87.38668"/><path fill="none" stroke="#007f7f" stroke-miterlimit="10" stroke-width=".39565" d="M165.86332 74.48829h52.37892"/><path fill="#007f7f" stroke="#007f7f" stroke-miterlimit="10" stroke-width=".39565" d="M222.05078 74.48828c-.46484-.1289-2.52344-.83984-3.8086-1.61719v3.23047c1.28516-.77734 3.34376-1.48828 3.8086-1.61328Zm0 0"/><path fill="none" stroke="#007f7f" stroke-dasharray="2.9674299772 2.9674299772" stroke-miterlimit="10" stroke-width=".39565" d="m222.79302 74.48829-25.2461-25.2461"/><path fill="#007f7f" stroke="#007f7f" stroke-miterlimit="10" stroke-width=".39564" d="M194.85156 46.54688c.2422.41796 1.19141 2.3789 1.55078 3.83593l2.28516-2.28515c-1.45703-.35938-3.41797-1.3086-3.83594-1.55078Zm0 0"/><path fill="none" stroke="#000" stroke-miterlimit="10" stroke-width=".39565" d="M249.20709 46.02344h32.03907"/><path stroke="#000" stroke-miterlimit="10" stroke-width=".39565" d="M285.05469 46.02344c-.46485-.125-2.52344-.83985-3.8086-1.61328v3.22656c1.28516-.77344 3.34375-1.48828 3.8086-1.61328Zm0 0"/><use xlink:href="#a" x="336.32572" y="49.02538"/><use xlink:href="#b" x="336.2036" y="41.30011"/><path fill="none" stroke="#000" stroke-miterlimit="10" stroke-width=".39565" d="M369.14072 17.55859h-56.9297v56.9297h56.9297Zm0 0"/><use xlink:href="#c" x="373.6783" y="12.83641"/><use xlink:href="#d" x="298.20171" y="13.01711"/><use xlink:href="#e" x="299.37226" y="87.38668"/><use xlink:href="#f" x="373.6783" y="87.38668"/><path fill="none" stroke="#ff7f00" stroke-miterlimit="10" stroke-width=".39565" d="m312.21101 74.48829 25.2461-25.2461"/><path fill="#ff7f00" stroke="#ff7f00" stroke-miterlimit="10" stroke-width=".39564" d="M340.15234 46.54688c-.41797.24218-2.3789 1.1914-3.83593 1.55078l2.28515 2.28515c.35938-1.45703 1.3086-3.41797 1.55078-3.83593Zm0 0"/><use xlink:href="#g" x="330.98325" y="63.95778" fill="#ff7f00"/><use xlink:href="#g" x="333.34925" y="63.95778" fill="#ff7f00"/><use xlink:href="#g" x="335.70239" y="63.95778" fill="#ff7f00"/><use xlink:href="#h" x="338.05553" y="63.95778" fill="#ff7f00"/><use xlink:href="#e" x="330.98325" y="66.38815" fill="#ff7f00"/><use xlink:href="#f" x="339.79145" y="66.38815" fill="#ff7f00"/><use xlink:href="#i" x="349.47404" y="66.38815" fill="#ff7f00"/><use xlink:href="#g" x="359.96441" y="63.76417" fill="#ff7f00"/><use xlink:href="#g" x="362.29184" y="63.76417" fill="#ff7f00"/><use xlink:href="#g" x="364.61926" y="63.76417" fill="#ff7f00"/><use xlink:href="#g" x="366.94668" y="63.76417" fill="#ff7f00"/><use xlink:href="#h" x="369.26124" y="63.76417" fill="#ff7f00"/><use xlink:href="#b" x="359.96441" y="66.38815" fill="#ff7f00"/><use xlink:href="#d" x="369.44126" y="66.38815" fill="#ff7f00"/></svg>