<svg xmlns="http://www.w3.org/2000/svg" width="408.588pt" height="178.981pt" viewBox="0 0 408.588 178.981"><defs><clipPath id="a"><path d="M0 .08203h408.17578v178.80078H0Zm0 0"/></clipPath></defs><g clip-path="url(#a)"><path fill="none" stroke="#000" stroke-miterlimit="10" stroke-opacity=".5" stroke-width=".3981" d="M.19524 165.94143h407.7853M.19524 127.71095h407.7853M.19524 89.48047h407.7853M.19524 51.24999h407.7853M.19524 13.0195h407.7853M12.94134 178.68362V.27732m38.22658 178.4063V.27732m38.23048 178.4063V.27732m38.23048 178.4063V.27732m38.23048 178.4063V.27732m38.23048 178.4063V.27732m38.22658 178.4063V.27732m38.23048 178.4063V.27732m38.23048 178.4063V.27732m38.23048 178.4063V.27732m38.23049 178.4063V.27732"/></g><path fill="none" stroke="#000" stroke-miterlimit="10" stroke-width=".3981" d="m12.94134 127.71095 110.87895-73.9219"/><path stroke="#000" stroke-miterlimit="10" stroke-width=".39808" d="M127.01172 51.66406c-.46484.15625-2.58203.70703-4.09375.77344l1.80469 2.70313c.64062-1.3672 1.96484-3.10938 2.28906-3.47657Zm0 0"/><path fill="none" stroke="#000" stroke-miterlimit="10" stroke-width=".3981" d="m204.08984 51.24999 34.41798-22.94532"/><path stroke="#000" stroke-miterlimit="10" stroke-width=".39808" d="M241.69922 26.17969c-.46094.15234-2.58203.70703-4.08984.77343l1.80078 2.70313c.64453-1.36719 1.96875-3.11328 2.28906-3.47656Zm0 0"/><path fill="none" stroke="#000" stroke-miterlimit="10" stroke-width=".3981" d="m127.62888 127.71095 36.1836-72.3633"/><path stroke="#000" stroke-miterlimit="10" stroke-width=".39807" d="M165.52735 51.91797c-.32422.36328-1.89063 1.89453-3.16797 2.70312l2.90624 1.44922c-.12109-1.5039.16407-3.67578.26173-4.15234Zm0 0"/><path fill="none" stroke="#000" stroke-miterlimit="10" stroke-width=".3981" d="m280.5469 165.93753 74.41018-148.82037"/><path stroke="#000" stroke-miterlimit="10" stroke-width=".39807" d="M356.67188 13.6875c-.32422.36328-1.89063 1.89453-3.16797 2.70312l2.90625 1.45313c-.1172-1.50781.16406-3.67969.26172-4.15625Zm0 0"/><path fill="none" stroke="#000" stroke-miterlimit="10" stroke-width=".3981" d="m242.31642 13.02341 34.9922 34.9922"/><path stroke="#000" stroke-miterlimit="10" stroke-width=".39809" d="M280.01953 50.72656c-.24219-.42187-1.19922-2.39453-1.5625-3.85937l-2.29687 2.29687c1.46875.35938 3.4375 1.3164 3.85937 1.5625Zm0 0"/><path fill="none" stroke="#000" stroke-miterlimit="10" stroke-width=".3981" d="m165.85936 89.48047 73.22268 73.22268"/><path stroke="#000" stroke-miterlimit="10" stroke-width=".39809" d="M241.79297 165.41406c-.2461-.42187-1.20313-2.39453-1.5625-3.85937l-2.29688 2.29687c1.46485.36328 3.4375 1.31641 3.85938 1.5625Zm0 0"/><path fill="none" stroke="#000" stroke-miterlimit="10" stroke-width=".3981" d="m357.00396 89.48047-36.1797 72.3633"/><path stroke="#000" stroke-miterlimit="10" stroke-width=".39807" d="M319.10937 165.27344c.32422-.36328 1.89063-1.89453 3.16797-2.70313l-2.90625-1.45312c.1211 1.50781-.16406 3.67969-.26172 4.15625Zm0 0"/></svg>