<svg xmlns="http://www.w3.org/2000/svg" xmlns:xlink="http://www.w3.org/1999/xlink" width="71.265pt" height="45.536pt" viewBox="0 0 71.265 45.536"><defs><clipPath id="a"><path d="M0 .0039h70.53906V42H0Zm0 0"/></clipPath><clipPath id="b"><path d="M65 .0039h5V5h-5Zm0 0"/></clipPath><clipPath id="c"><path d="M59 .0039h11.53906V10H59Zm0 0"/></clipPath><clipPath id="d"><path d="M0 3h70.53906v42.07422H0Zm0 0"/></clipPath><clipPath id="e"><path d="M0 35h11v10.07422H0Zm0 0"/></clipPath><path id="f" d="M0-7.64062h3.59375l-.46875.75.32813.28125c.46875-.51563 1.01562-.875 1.71875-1.1875v-.4375c-.71875-.3125-1.25-.67188-1.71875-1.1875l-.32813.28125.46875.75H0Zm0 0"/><path id="g" d="M1.35938-.78125c0 .54688.23437.92188.89062.92188 1.10938 0 2.32813-1.21875 3.01563-2.5625h.01562l-.375 1.3125Q4.8125-.75781 4.8125-.5c0 .40625.1875.64063.625.64063.84375 0 1.53125-.79688 1.9375-1.65625l-.28125-.17188c-.23437.39063-.75 1.21875-1.0625 1.21875-.15625 0-.21875-.09375-.21875-.26562 0-.09376.03125-.21876.0625-.34375l1.25-4.73438-1.03125.125C5.75-4.5 5.5625-3.89062 5.26563-3.1875 4.76563-2.01562 3.75-.46875 2.78125-.46875c-.23437 0-.35937-.14062-.35937-.45312 0-.15626.01562-.32813.07812-.5625L3.60938-5.75l-.0625-.0625L1.4375-5.5l-.0625.28125.71875.0625c.17188.01563.23438.09375.23438.21875 0 .09375-.01563.20313-.0625.34375l-.79688 3.04688c-.07812.28124-.10937.53125-.10937.76562m0 0"/><path id="h" d="M.98438-2.9375h6.375v-.67187h-6.375Zm0 0"/></defs><g clip-path="url(#a)"><path fill="none" stroke="#007F7F" stroke-miterlimit="10" stroke-width=".39443" d="M.19531 35.6914 66.28518 2.64844"/></g><g clip-path="url(#b)"><path fill="#007F7F" d="M69.6836.94922c-.47657.09375-2.62891.3789-4.1211.25781l1.4414 2.8789c.80079-1.26562 2.31641-2.8164 2.6797-3.13671m0 0"/></g><g clip-path="url(#c)"><path fill="none" stroke="#007F7F" stroke-miterlimit="10" stroke-width=".3944" d="M69.6836.94922c-.47657.09375-2.62891.3789-4.1211.25781l1.4414 2.8789c.80079-1.26562 2.31641-2.8164 2.6797-3.13671Zm0 0"/></g><g clip-path="url(#d)"><path fill="none" stroke="#FF7F00" stroke-miterlimit="10" stroke-width=".39443" d="M70.33987 9.38671 4.2539 42.42969"/></g><path fill="#FF7F00" d="M.85547 44.1289c.47266-.09765 2.625-.3789 4.11719-.2578l-1.4375-2.87891c-.80078 1.26172-2.31641 2.8164-2.6797 3.13672m0 0"/><g clip-path="url(#e)"><path fill="none" stroke="#FF7F00" stroke-miterlimit="10" stroke-width=".3944" d="M.85547 44.1289c.47266-.09765 2.625-.3789 4.11719-.2578l-1.4375-2.87891c-.80079 1.26172-2.31641 2.8164-2.6797 3.13672Zm0 0"/></g><use xlink:href="#f" x="25.02144" y="13.52904" fill="#007F7F"/><use xlink:href="#g" x="23.04928" y="13.6639" fill="#007F7F"/><use xlink:href="#h" x="39.62334" y="40.82972" fill="#FF7F00"/><use xlink:href="#f" x="49.92831" y="40.69486" fill="#FF7F00"/><use xlink:href="#g" x="47.95615" y="40.82972" fill="#FF7F00"/></svg>