<svg xmlns="http://www.w3.org/2000/svg" xmlns:xlink="http://www.w3.org/1999/xlink" width="222.944pt" height="194.996pt" viewBox="0 0 222.944 194.996"><defs><path id="a" d="m2.70313-2.03125.78125.78125 3.25-3.26562L10-1.25l.75-.78125-3.23437-3.25L10.75-8.54687l-.75-.75L6.73438-6.0625l-3.25-3.23437-.78125.75 3.26562 3.26562Zm0 0"/><path id="b" d="M-.35937 0h4.21875l.125-.53125-1.03125-.10937c-.25-.01563-.34375-.14063-.34375-.3125 0-.10938.04687-.23438.09375-.375C3.32813-2.53125 3.92188-3.75 4.625-5h4.20313l.45312 3.85938s-.09375.46875-.5.5l-.98437.10937L7.6875 0h4.60938l.10937-.53125-.71875-.0625c-.57812-.0625-.65625-.32812-.75-1.09375l-1.375-11.26562H8.23438L5.07813-7.4375C4.125-5.75 2.5625-2.96875 1.875-1.85937 1.28125-.875.95313-.67187.375-.625l-.60937.09375ZM5-5.71875l3.04688-5.5.67187 5.5Zm0 0"/><path id="c" d="M0 0h5.67188c4.53125 0 5.4375-2.32812 5.4375-3.89062 0-1.96875-1.45313-2.82813-2.82813-3.07813l.03125-.04687c2.48438-.29688 3.54688-1.70313 3.54688-3.125 0-1.51563-.90625-2.8125-4.34375-2.8125h-4.75l-.10938.54687 1.10938.09375c.3125.01563.45312.15625.45312.45313 0 .125-.03125.28125-.07812.46875L1.9375-1.54687c-.14062.60937-.32812.82812-.78125.89062l-1.0625.125Zm3.75-1.4375c0-.14062.01563-.28125.0625-.42187L4.875-6.65625h.75c1.84375 0 3.48438.54688 3.48438 2.67188 0 1.67187-1.01563 3.32812-3.53125 3.32812C4.10938-.65625 3.75-.95312 3.75-1.4375m1.26563-5.875L6-11.65625c.14063-.5625.23438-.65625 1.48438-.65625 1.57812 0 2.45312.79688 2.45312 2.10938 0 1.95312-1.625 2.89062-3.70312 2.89062Zm0 0"/><path id="d" d="M.96875-5.14062c0 2.46875 1.21875 5.42187 5.85938 5.42187 1.34375 0 2.60937-.1875 3.8125-.78125l.90625-2.98437H11C9.95313-1.60937 9.03125-.375 6.71875-.375c-2.17187 0-3.73437-1.39062-3.73437-4.28125 0-1.70312.4375-3.76562 1.34375-5.26562C5.26563-11.5 6.73438-12.59375 8.75-12.59375c2.35938 0 3.04688 1.09375 3.04688 3.15625h.57812l.67188-2.8125c-1.07813-.67187-2.82813-1-4.14063-1-3.53125 0-5.5625 1.65625-6.65625 3.40625C1.21875-8.17187.96875-6.4375.96875-5.14062m0 0"/><path id="e" d="M0 0h5.73438c3.75 0 5.92187-1.35937 7.28125-3.39062 1.0625-1.60938 1.25-3.1875 1.25-4.29688 0-1.51562-.54688-3.03125-1.60938-3.92187-1.10937-.92188-2.78125-1.34375-4.84375-1.34375H2.76563l-.10938.54687 1.10938.07813c.3125.01562.4375.17187.4375.46875 0 .125-.01563.28125-.0625.46875L1.90625-1.54687c-.14062.60937-.29687.84375-.75.89062l-1.0625.125Zm3.70313-1.375c0-.07812 0-.15625.01562-.23437l2.25-10c.17188-.64063.42188-.70313 2.0625-.70313C11.9375-12.23437 12.25-9.60937 12.25-8.10937c0 1.60937-.375 3.125-1.21875 4.53125-1.07812 1.75-2.67187 2.92187-5.76562 2.92187-.92188 0-1.5625-.125-1.5625-.71875m0 0"/><path id="f" d="M.20313 0h9.75l.96875-3.28125h-.5625C9.40625-.96875 8.5625-.65625 6.25-.65625c-2.20312 0-2.32812-.28125-2.32812-.78125 0-.20312.0625-.46875.14062-.85937l.95313-4.09375h2.45312c1.39063 0 1.65625.28125 1.65625 1.09375 0 .15625 0 .3125-.01562.51562h.54687l.875-3.90625h-.57812C9.48438-7.39062 9.28125-7.09375 7.625-7.09375H5.17188L6.23438-11.75c.09375-.46875.21875-.5625.53125-.5625h2.26562c1.82813 0 2.20313.48438 2.20313 1.5 0 .45313-.0625.96875-.0625.96875h.5625l.70312-3.10937H2.96875l-.14062.54687 1.14062.07813c.3125.01562.45313.15625.45313.45312 0 .125-.01563.26563-.0625.4375L2.125-1.54687c-.15625.625-.3125.84375-.76562.89062l-1.0625.125Zm0 0"/><path id="g" d="M.20313 0h5.4375L5.75-.53125 4.34375-.64062C4-.65625 3.85938-.8125 3.85938-1.09375c0-.125.03125-.23437.0625-.40625l1.03125-4.60937h2.5c1.375 0 1.625.25 1.625 1.04687 0 .15625 0 .34375-.01563.54688h.5625l.875-3.9375h-.5625c-.46875 1.32812-.6875 1.625-2.34375 1.625H5.125l1.10938-4.90625c.125-.48438.21875-.57813.5625-.57813h2.28125c1.84375 0 2.20312.48438 2.20312 1.46875 0 .48438-.0625.98438-.0625.98438h.57813l.6875-3.09375H2.96875l-.125.54687 1.125.09375c.3125.01563.45313.1875.45313.48438 0 .09375-.01563.23437-.0625.375L2.125-1.5c-.14062.5625-.3125.82813-.76562.85938l-1.0625.10937Zm0 0"/></defs><path fill="none" stroke="#000" stroke-miterlimit="10" stroke-width=".3984" d="m26.52344 26.64844 113.35939 28.33984 28.33984 56.6797L54.86328 83.32813Zm0 0"/><use xlink:href="#a" x="19.79303" y="31.29863"/><use xlink:href="#b" x="6.63933" y="19.60956"/><use xlink:href="#a" x="133.14955" y="59.63851"/><use xlink:href="#c" x="146.9211" y="47.94945"/><use xlink:href="#a" x="48.13191" y="87.97739"/><use xlink:href="#d" x="35.19816" y="103.61047"/><use xlink:href="#a" x="161.48944" y="116.31727"/><use xlink:href="#e" x="175.25998" y="131.65142"/><use xlink:href="#a" x="76.47179" y="144.65616"/><use xlink:href="#f" x="63.53704" y="159.9913"/><use xlink:href="#a" x="189.82832" y="172.99504"/><use xlink:href="#g" x="203.59986" y="188.33018"/><path fill="none" stroke="#000" stroke-dasharray="2.9880827925 2.9880827925" stroke-miterlimit="10" stroke-width=".3984" d="m54.86328 83.32813 28.33985 56.6797 113.35939 28.33984-28.33985-56.6797"/></svg>