<svg xmlns="http://www.w3.org/2000/svg" xmlns:xlink="http://www.w3.org/1999/xlink" width="113.784pt" height="72.857pt" viewBox="0 0 113.784 72.857"><defs><clipPath id="a"><path d="M.0039 0h113.5625v64H.0039Zm0 0"/></clipPath><clipPath id="b"><path d="M102 0h11.5664v11H102Zm0 0"/></clipPath><clipPath id="c"><path d="M.0039 9h113.5625v63.71484H.0039Zm0 0"/></clipPath><clipPath id="d"><path d="M.0039 68H6v4H.0039Zm0 0"/></clipPath><clipPath id="e"><path d="M.0039 62H11v10.71484H.0039Zm0 0"/></clipPath><path id="f" d="M0-12.32812h5.78125l-.75 1.20312.53125.46875c.76563-.84375 1.64063-1.42187 2.79688-1.92187v-.70313c-1.17188-.5-2.03125-1.07812-2.79688-1.92187l-.53125.46875.75 1.20312L0-13.54687Zm0 0"/><path id="g" d="M2.1875-1.25c0 .875.375 1.46875 1.4375 1.46875 1.78125 0 3.75-1.96875 4.875-4.14062h.03125l-.60937 2.125C7.8125-1.40625 7.75-1.09375 7.75-.8125c0 .65625.32813 1.03125 1.01563 1.03125 1.35937 0 2.46875-1.26562 3.125-2.67187l-.4375-.26563C11.07813-2.09375 10.25-.75 9.71875-.75c-.23437 0-.32812-.17187-.32812-.42187 0-.15626.03125-.35938.09375-.57813L11.5-9.39062l-1.67187.21875C9.28125-7.26562 8.96875-6.26562 8.5-5.125 7.67188-3.23437 6.04688-.75 4.5-.75c-.40625 0-.59375-.25-.59375-.73437 0-.25.03125-.54688.125-.90625l1.79688-6.89063-.09375-.10937-3.40625.51562-.125.46875L3.375-8.3125c.28125.01563.39063.14063.39063.35938 0 .14062-.04688.3125-.10938.53125l-1.29687 4.9375C2.25-2.04687 2.1875-1.625 2.1875-1.25m0 0"/><path id="h" d="M1.59375-4.73437H11.875v-1.09375H1.59375Zm0 0"/></defs><g clip-path="url(#a)"><path fill="none" stroke="#007F7F" stroke-miterlimit="10" stroke-width=".39772" d="m.20313 57.57422 109.0742-54.53515"/></g><path fill="#007F7F" d="M112.70313 1.32422c-.47657.09766-2.64844.38281-4.15235.26172l1.45313 2.90234c.80468-1.27344 2.33593-2.83984 2.69921-3.16406m0 0"/><g clip-path="url(#b)"><path fill="none" stroke="#007F7F" stroke-miterlimit="10" stroke-width=".39769" d="M112.70312 1.32422c-.47656.09766-2.64843.38281-4.15234.26172l1.45313 2.90234c.80468-1.27344 2.33593-2.83984 2.69921-3.16406Zm0 0"/></g><g clip-path="url(#c)"><path fill="none" stroke="#FF7F00" stroke-miterlimit="10" stroke-width=".39772" d="M113.36718 15.13672 4.29297 69.67578"/></g><g clip-path="url(#d)"><path fill="#FF7F00" d="M.86719 71.38672c.47656-.09375 2.64844-.3789 4.15234-.26172l-1.45312-2.90234C2.7617 69.5 1.23047 71.0664.86719 71.38672m0 0"/></g><g clip-path="url(#e)"><path fill="none" stroke="#FF7F00" stroke-miterlimit="10" stroke-width=".39769" d="M.86719 71.38672c.47656-.09375 2.64844-.3789 4.15234-.26172l-1.45312-2.90234C2.7617 69.5 1.23047 71.0664.86719 71.38672Zm0 0"/></g><use xlink:href="#f" x="40.25266" y="21.82217" fill="#007F7F"/><use xlink:href="#g" x="37.0709" y="22.03974" fill="#007F7F"/><use xlink:href="#h" x="63.81042" y="65.86772" fill="#FF7F00"/><use xlink:href="#f" x="80.43379" y="65.64815" fill="#FF7F00"/><use xlink:href="#g" x="77.25204" y="65.86772" fill="#FF7F00"/></svg>