<svg xmlns="http://www.w3.org/2000/svg" xmlns:xlink="http://www.w3.org/1999/xlink" width="122.781pt" height="142.131pt" viewBox="0 0 122.781 142.131"><defs><path id="b" d="M0-12.28125h5.76563l-.75 1.21875.53125.45313c.75-.82813 1.625-1.40625 2.76562-1.90625v-.70313c-1.17187-.5-2.01562-1.07812-2.76562-1.90625l-.53125.45313.75 1.20312L0-13.48437Zm0 0"/><path id="c" d="M2.17188-1.25c0 .875.375 1.46875 1.4375 1.46875 1.78125 0 3.73437-1.95312 4.84375-4.125H8.5l-.625 2.125c-.09375.375-.15625.6875-.15625.96875 0 .65625.3125 1.03125 1.01563 1.03125 1.34375 0 2.45312-1.26562 3.10937-2.65625l-.4375-.28125C11.03125-2.07812 10.20313-.75 9.6875-.75c-.25 0-.34375-.15625-.34375-.42187 0-.15626.04688-.35938.09375-.5625l2-7.60938-1.65625.21875C9.25-7.21875 8.92188-6.23437 8.45313-5.10937 7.64063-3.23437 6.01563-.75 4.46875-.75c-.39062 0-.59375-.23437-.59375-.73437q0-.35157.14063-.89063L5.79688-9.25l-.09375-.09375-3.39063.51563-.10937.45312 1.15625.09375c.28125.03125.375.14063.375.35938 0 .14062-.03125.3125-.09375.53125L2.35938-2.46875c-.125.42188-.1875.84375-.1875 1.21875m0 0"/><path id="d" d="M1.57813-4.71875H11.8125v-1.07812H1.57813Zm0 0"/><path id="e" d="M1.40625 0h4.375v-.40625L4.73438-.5c-.28125-.03125-.42188-.125-.42188-.60937v-7.67188l-.07812-.07812-2.8125.46875v.35937l1.125.14063c.25.04687.32812.14062.32812.54687v6.23438c0 .48437-.10937.57812-.42187.60937l-1.04688.09375Zm0 0"/><path id="f" d="M.375-.15625.53125 0h5.51563l.46875-1.85937-.39063-.0625c-.29687.6875-.54687.78125-1.0625.78125H1.73438c.20312-.625.90625-1.5 2.15625-2.34375 1.32812-.875 2.26562-1.48438 2.26562-2.92188 0-1.8125-1.23437-2.45312-2.67187-2.45312-1.78125 0-2.79688 1.03125-2.79688 1.8125 0 .48437.54688.70312.82813.70312.25 0 .375-.14062.42187-.39062.20313-.92188.70313-1.64063 1.45313-1.64063.92187 0 1.20312.79688 1.20312 1.73438 0 1.26562-.5625 2.09375-1.78125 3.14062C1.15625-2.0625.5625-1.125.375-.15625m0 0"/><clipPath id="a"><path d="M.26563 0H116v141.26563H.26563Zm0 0"/></clipPath></defs><g clip-path="url(#a)"><path fill="none" stroke="#007F7F" stroke-miterlimit="10" stroke-width=".39608" d="M.46094 141.07031 110.3164 3.75391"/></g><path fill="#007F7F" stroke="#007F7F" stroke-miterlimit="10" stroke-width=".39605" d="M112.69922.77344c-.39063.28906-2.23438 1.44922-3.64453 1.96875l2.52344 2.01953c.1953-1.48828.92578-3.54297 1.12109-3.98828Zm0 0"/><path fill="none" stroke="#FF7F00" stroke-miterlimit="10" stroke-width=".39608" d="m99.07421 56.54688-53.5039 66.8789"/><path fill="#FF7F00" stroke="#FF7F00" stroke-miterlimit="10" stroke-width=".39605" d="M43.1875 126.40625c.39063-.28906 2.23438-1.45313 3.64453-1.97266l-2.52344-2.01562c-.19921 1.48828-.92968 3.54297-1.12109 3.98828Zm0 0"/><use xlink:href="#b" x="40.34716" y="63.20059" fill="#007F7F"/><use xlink:href="#c" x="37.17853" y="63.41925" fill="#007F7F"/><use xlink:href="#d" x="77.89459" y="115.58133" fill="#FF7F00"/><use xlink:href="#e" x="93.65821" y="107.62" fill="#FF7F00"/><path fill="none" stroke="#FF7F00" stroke-miterlimit="10" stroke-width="1.08934" d="M93.66016 110.33203h7.02734"/><use xlink:href="#f" x="93.65821" y="122.55071" fill="#FF7F00"/><use xlink:href="#b" x="106.23134" y="115.36266" fill="#FF7F00"/><use xlink:href="#c" x="103.06271" y="115.58133" fill="#FF7F00"/></svg>