<svg xmlns="http://www.w3.org/2000/svg" xmlns:xlink="http://www.w3.org/1999/xlink" width="144.936pt" height="126.766pt" viewBox="0 0 144.936 126.766"><defs><path id="a" d="m1.75-1.3125.51563.5L4.375-2.9375l2.10938 2.125.5-.5L4.875-3.42187l2.10938-2.125-.5-.48438L4.375-3.92187 2.26563-6.03125 1.75-5.54687l2.125 2.125Zm0 0"/><path id="b" d="M-.23437 0H2.5l.07813-.34375-.67188-.0625C1.75-.42187 1.6875-.5 1.6875-.625c0-.0625.03125-.15625.0625-.23437.40625-.78125.79688-1.5625 1.25-2.39063h2.71875l.29688 2.51563s-.0625.29687-.3125.32812l-.65625.0625L4.98438 0h2.98437l.07813-.34375-.46875-.04687c-.375-.03125-.42188-.20313-.48438-.70313l-.89062-7.3125h-.85938L3.29688-4.8125c-.625 1.07813-1.625 2.89063-2.07813 3.60938C.82813-.5625.625-.4375.25-.40625l-.40625.0625ZM3.25-3.70312l1.96875-3.57813.4375 3.57813Zm0 0"/><path id="c" d="M0 0h3.6875c2.92188 0 3.51563-1.51562 3.51563-2.51562 0-1.28125-.9375-1.84375-1.82813-2l.01563-.03125C7-4.75 7.6875-5.65625 7.6875-6.57812c0-.98438-.57812-1.82813-2.8125-1.82813H1.79688l-.07813.35938.71875.0625c.21875.01562.29688.10937.29688.29687 0 .07813-.01563.1875-.04688.29688L1.25-1.01562c-.09375.40625-.20312.54687-.5.59375l-.6875.07812Zm2.42188-.9375c0-.07812.01562-.17187.04687-.26562l.70313-3.10938h.46875c1.20312 0 2.26562.34375 2.26562 1.73438C5.90625-1.5 5.25-.42187 3.625-.42187c-.96875 0-1.20312-.20313-1.20312-.51563M3.25-4.75l.64063-2.8125c.09375-.35937.15625-.42187.96875-.42187 1.01562 0 1.59375.51562 1.59375 1.375 0 1.26562-1.0625 1.85937-2.40625 1.85937Zm0 0"/><path id="d" d="M.64063-3.32812c0 1.59375.78125 3.51562 3.79687 3.51562.85938 0 1.6875-.125 2.46875-.51562L7.5-2.26562h-.35937C6.45313-1.04687 5.85938-.25 4.35938-.25c-1.40625 0-2.42188-.90625-2.42188-2.78125 0-1.09375.28125-2.4375.85938-3.40625.60937-1.01562 1.57812-1.73437 2.875-1.73437 1.53125 0 1.98437.71875 1.98437 2.04687h.375l.4375-1.82812c-.70312-.4375-1.84375-.64063-2.6875-.64063-2.29687 0-3.60937 1.07813-4.32812 2.20313-.67188 1.09375-.8125 2.21875-.8125 3.0625m0 0"/><path id="e" d="M0 0h3.71875C6.15625 0 7.5625-.875 8.4375-2.20312 9.14063-3.25 9.25-4.26562 9.25-4.98437c0-.98438-.34375-1.96875-1.04687-2.54688-.70313-.59375-1.79688-.875-3.14063-.875H1.79688l-.07813.35938L2.4375-8c.21875.01563.28125.125.28125.3125 0 .07813 0 .1875-.03125.29688l-1.45312 6.375c-.07813.40625-.1875.5625-.48438.59375l-.6875.07812Zm2.40625-.89062c0-.04688 0-.10938.01563-.15626L3.875-7.53124c.10938-.42187.26563-.45312 1.32813-.45312 2.53125.04687 2.75 1.75 2.75 2.71875 0 1.04687-.25 2.03125-.79688 2.9375-.70312 1.14062-1.73437 1.90625-3.75 1.90625-.59375 0-1-.07813-1-.46875m0 0"/><path id="f" d="M.125 0h6.32813l.625-2.125h-.35938C6.09375-.64062 5.5625-.42187 4.0625-.42187c-1.4375 0-1.51562-.1875-1.51562-.51563 0-.125.03125-.29687.09375-.54687L3.25-4.14062h1.59375c.90625 0 1.07813.17187 1.07813.70312 0 .10938 0 .20313-.01563.34375h.35938l.5625-2.54687h-.375c-.29688.84375-.4375 1.04687-1.5 1.04687H3.35938l.6875-3.03125c.0625-.29687.14062-.35937.34375-.35937h1.46875c1.1875 0 1.42187.3125 1.42187.96875 0 .29687-.03125.625-.03125.625h.35938l.45312-2.01563H1.92188l-.09376.35938.75.04687c.20313.01563.29688.10938.29688.29688q0 .11718-.04687.28125L1.375-1.01562c-.09375.42187-.20312.5625-.5.59375l-.6875.07812Zm0 0"/><path id="g" d="M.125 0h3.53125l.07813-.34375-.92188-.0625C2.59375-.42187 2.5-.53125 2.5-.70312c0-.07813.01563-.15626.04688-.26563l.67187-3h1.60938c.89062 0 1.0625.17188 1.0625.6875 0 .10938 0 .21875-.01563.34375h.35938l.57812-2.54687h-.35937C6.14063-4.625 6-4.4375 4.92188-4.4375H3.32813l.71875-3.17187c.07812-.3125.14062-.375.35937-.375h1.48438c1.1875 0 1.42187.3125 1.42187.95312 0 .3125-.03125.64063-.03125.64063h.375l.45313-2.01563h-6.1875l-.07813.35938.73438.0625c.20312.01562.29687.10937.29687.3125 0 .0625-.01562.15625-.04687.23437L1.375-.96875c-.07812.35938-.20312.53125-.5.5625l-.6875.0625Zm0 0"/></defs><path fill="none" stroke="#000" stroke-miterlimit="10" stroke-width=".39777" d="m17.3164 17.27734 73.5781 18.39843 18.39843 36.78905-73.582-18.39453Zm0 0"/><use xlink:href="#a" x="12.94587" y="20.29753"/><use xlink:href="#b" x="4.41063" y="12.71154"/><use xlink:href="#a" x="86.52605" y="38.69258"/><use xlink:href="#c" x="95.46255" y="31.10658"/><use xlink:href="#a" x="31.34092" y="57.08762"/><use xlink:href="#d" x="22.94741" y="67.23289"/><use xlink:href="#a" x="104.92109" y="75.48266"/><use xlink:href="#e" x="113.8576" y="85.4343"/><use xlink:href="#a" x="49.73596" y="93.87671"/><use xlink:href="#f" x="41.34246" y="103.82934"/><use xlink:href="#a" x="123.31514" y="112.27175"/><use xlink:href="#g" x="132.25264" y="122.22338"/><path fill="none" stroke="#000" stroke-dasharray="2.9833305528 2.9833305528" stroke-miterlimit="10" stroke-width=".39777" d="m35.71093 54.0703 18.39452 36.78904 73.582 18.39452-18.39452-36.78904"/></svg>