<svg xmlns="http://www.w3.org/2000/svg" width="363.234pt" height="159.139pt" viewBox="0 0 363.234 159.139"><defs><clipPath id="a"><path d="M.59766 0H361.875v158.28125H.59766Zm0 0"/></clipPath></defs><g clip-path="url(#a)"><path fill="none" stroke="#000" stroke-miterlimit="10" stroke-opacity=".5" stroke-width=".39636" d="M.79292 146.80861h360.88681M.79293 112.97266h360.8868M.79293 79.14062h360.8868M.79293 45.3086h360.8868M.79293 11.47264h360.8868M12.07027 158.08596V.19529m33.83204 157.89067V.19529m33.83595 157.89067V.19529m33.83204 157.89067V.19529m33.83204 157.89067V.19529m33.83203 157.89067V.19529m33.83595 157.89067V.19529m33.83204 157.89067V.19529m33.83204 157.89067V.19529m33.83595 157.89067V.19529m33.83204 157.89067V.19529"/></g><path fill="none" stroke="#000" stroke-miterlimit="10" stroke-width=".39636" d="m12.07027 112.97266 97.70706-65.13673"/><path stroke="#000" stroke-miterlimit="10" stroke-width=".39634" d="M112.95313 45.71875c-.46094.15625-2.57032.70312-4.07422.77344l1.79687 2.6875c.64063-1.35938 1.95703-3.09766 2.27735-3.46094Zm0 0"/><path fill="none" stroke="#000" stroke-miterlimit="10" stroke-width=".39636" d="m181.23437 45.30859 30.04298-20.02735"/><path stroke="#000" stroke-miterlimit="10" stroke-width=".39634" d="M214.45313 23.16406c-.46094.15625-2.57032.70313-4.07422.76953l1.79296 2.69141c.64063-1.35938 1.96094-3.09766 2.28126-3.46094Zm0 0"/><path fill="none" stroke="#000" stroke-miterlimit="10" stroke-width=".39636" d="m113.5703 112.97266 31.79297-63.58985"/><path stroke="#000" stroke-miterlimit="10" stroke-width=".39632" d="M147.07031 45.96875c-.3203.36328-1.88281 1.88672-3.15234 2.6914l2.89453 1.44923c-.1211-1.5.16406-3.66407.25781-4.14063Zm0 0"/><path fill="none" stroke="#000" stroke-miterlimit="10" stroke-width=".39636" d="m248.90236 146.80861 65.62892-131.25784"/><path stroke="#000" stroke-miterlimit="10" stroke-width=".39632" d="M316.23828 12.13672c-.32422.36328-1.88281 1.88672-3.15625 2.6914l2.89453 1.44532c-.12109-1.5.16407-3.66016.26172-4.13672Zm0 0"/><path fill="none" stroke="#000" stroke-miterlimit="10" stroke-width=".39636" d="m215.07032 11.47655 30.60938 30.60938"/><path stroke="#000" stroke-miterlimit="10" stroke-width=".39635" d="M248.3789 44.78516c-.24218-.42188-1.1953-2.38282-1.55468-3.84375l-2.28906 2.28515c1.46093.36328 3.42187 1.31641 3.84375 1.5586Zm0 0"/><path fill="none" stroke="#000" stroke-miterlimit="10" stroke-width=".39636" d="m147.40234 79.14062 64.44532 64.44143"/><path stroke="#000" stroke-miterlimit="10" stroke-width=".39635" d="M214.54688 146.28516c-.2422-.42188-1.19532-2.38282-1.5586-3.84375l-2.28516 2.28515c1.46094.36328 3.42188 1.3125 3.84376 1.5586Zm0 0"/><path fill="none" stroke="#000" stroke-miterlimit="10" stroke-width=".39636" d="m316.56644 79.14062-31.79298 63.58986"/><path stroke="#000" stroke-miterlimit="10" stroke-width=".39632" d="M283.0664 146.14453c.32032-.36328 1.88282-1.88672 3.15235-2.6914l-2.89062-1.44532c.11718 1.5-.16407 3.66016-.26173 4.13672Zm0 0"/></svg>