<svg xmlns="http://www.w3.org/2000/svg" width="408.588" height="178.981" viewBox="0 0 408.588 178.981"><defs><clipPath id="a"><path d="M0 .08203h408.17578v178.80078H0Zm0 0"/></clipPath></defs><g clip-path="url(#a)"><path fill="none" stroke="#000" stroke-miterlimit="10" stroke-opacity=".5" stroke-width=".3981" d="M.19524 165.94143h407.7853M.19524 127.71095h407.7853M.19524 89.48047h407.7853M.19524 51.24999h407.7853M.19524 13.0195h407.7853M12.94134 178.68362V.27732m38.22658 178.4063V.27732m38.23048 178.4063V.27732m38.23048 178.4063V.27732m38.23048 178.4063V.27732m38.23048 178.4063V.27732m38.22658 178.4063V.27732m38.23048 178.4063V.27732m38.23048 178.4063V.27732m38.23048 178.4063V.27732m38.23049 178.4063V.27732"/></g><path fill="none" stroke="#000" stroke-miterlimit="10" stroke-width=".3981" d="m12.94134 127.71095 114.35551-76.2383"/><path fill="none" stroke="#000" stroke-linecap="round" stroke-linejoin="round" stroke-miterlimit="10" stroke-width=".39808" d="M124.41797 50.52344c1.10937.98047 2.1836 1.07812 3.04687.83984-.55468.69922-.8789 1.73047-.39843 3.13281"/><path fill="none" stroke="#000" stroke-miterlimit="10" stroke-width=".3981" d="m204.08984 51.24999 37.89845-25.26564"/><path fill="none" stroke="#000" stroke-linecap="round" stroke-linejoin="round" stroke-miterlimit="10" stroke-width=".39808" d="M239.10547 25.03516c1.10937.98437 2.1836 1.07812 3.04687.83984-.55078.70313-.8789 1.73437-.39843 3.13672"/><path fill="none" stroke="#000" stroke-miterlimit="10" stroke-width=".3981" d="m127.62888 127.71095 38.0508-76.1055"/><path fill="none" stroke="#000" stroke-linecap="round" stroke-linejoin="round" stroke-miterlimit="10" stroke-width=".39807" d="M162.70703 52.21094c1.45313.30468 2.4336-.14844 3.0625-.78125-.1289.88281.09766 1.9414 1.21094 2.91797"/><path fill="none" stroke="#000" stroke-miterlimit="10" stroke-width=".3981" d="m280.5469 165.93753 76.28128-152.55865"/><path fill="none" stroke="#000" stroke-linecap="round" stroke-linejoin="round" stroke-miterlimit="10" stroke-width=".39807" d="M353.85547 13.98437c1.44922.30079 2.4336-.14843 3.0625-.78515-.13281.88281.09765 1.9414 1.21094 2.92188"/><path fill="none" stroke="#000" stroke-miterlimit="10" stroke-width=".3981" d="m242.31642 13.02341 37.94923 37.94533"/><path fill="none" stroke="#000" stroke-linecap="round" stroke-linejoin="round" stroke-miterlimit="10" stroke-width=".39809" d="M280.63281 47.95703c-.7461 1.28125-.6289 2.35547-.22656 3.15235-.79688-.40235-1.8711-.51954-3.15235.22656"/><path fill="none" stroke="#000" stroke-miterlimit="10" stroke-width=".3981" d="m165.85936 89.48047 76.17581 76.1758"/><path fill="none" stroke="#000" stroke-linecap="round" stroke-linejoin="round" stroke-miterlimit="10" stroke-width=".39809" d="M242.40234 162.64453c-.74609 1.28125-.6289 2.35547-.22656 3.15235-.79687-.40235-1.8711-.51954-3.15234.22656"/><path fill="none" stroke="#000" stroke-miterlimit="10" stroke-width=".3981" d="m357.00396 89.48047-38.0508 76.10159"/><path fill="none" stroke="#000" stroke-linecap="round" stroke-linejoin="round" stroke-miterlimit="10" stroke-width=".39807" d="M321.92578 164.97656c-1.44922-.30078-2.42969.14844-3.0586.78516.12891-.88281-.10155-1.9414-1.21093-2.92188"/></svg>