<svg xmlns="http://www.w3.org/2000/svg" xmlns:xlink="http://www.w3.org/1999/xlink" width="160.698pt" height="159.779pt" viewBox="0 0 160.698 159.779"><defs><path id="a" d="m3.04688-2.28125.875.875L7.5625-5.07812l3.67188 3.67187.84375-.875L8.4375-5.92187l3.64063-3.67188-.84375-.85937L7.5625-6.79687l-3.64062-3.65625-.875.85937 3.67187 3.67188Zm0 0"/><path id="b" d="M.67188-5.6875c0 3.46875 1.98437 6 6.17187 6 3.71875 0 5.53125-1.90625 6.6875-3.98437C14.67188-5.73437 14.875-7.875 14.875-8.70312c0-4.3125-2.60937-6.17188-6.07812-6.17188-3.35938 0-5.4375 1.85938-6.67188 3.85938C.96875-9.0625.67188-7.07812.67188-5.6875m2.21875.85938c0-1.76563.32812-3.73438 1.29687-5.78125.95313-1.98438 2.45313-3.53125 4.70313-3.53125 2.29687 0 3.78125 1.35937 3.78125 4.34375 0 1.20312-.125 2.92187-.98438 5.17187-.875 2.25-2.3125 4.20313-5.04687 4.20313-2.28125 0-3.75-1.48438-3.75-4.40625m0 0"/><path id="c" d="M1.09375-5.76562C1.09375-3 2.46875.3125 7.67188.3125c1.5 0 2.9375-.20312 4.28125-.875l1.03125-3.35937h-.64063c-1.15625 2.10937-2.20312 3.5-4.79687 3.5-2.45313 0-4.1875-1.5625-4.1875-4.8125 0-1.90625.48437-4.23438 1.5-5.90625 1.04687-1.76563 2.70312-3 4.96875-3 2.65625 0 3.42187 1.23437 3.42187 3.53125h.64063l.76562-3.15625C13.45313-14.51562 11.48438-14.875 10-14.875c-3.95312 0-6.23437 1.85938-7.46875 3.82813-1.17187 1.875-1.4375 3.8125-1.4375 5.28125m0 0"/><path id="d" d="M0 0h6.4375c4.21875 0 6.65625-1.51562 8.17188-3.79687 1.20312-1.8125 1.40625-3.59375 1.40625-4.84375 0-1.70313-.59376-3.39063-1.8125-4.40625-1.21875-1.03125-3.10938-1.5-5.4375-1.5H3.10938l-.14063.60937 1.26563.09375c.35937.01563.48437.1875.48437.53125 0 .14063-.01562.3125-.0625.51563L2.14063-1.75c-.15625.70313-.32813.96875-.84375 1.01563l-1.1875.125Zm4.15625-1.54687c0-.09376 0-.17188.03125-.26563l2.53125-11.23437c.17188-.71875.46875-.78125 2.29688-.78125 4.39062.09375 4.75 3.04687 4.75 4.71875 0 1.8125-.4375 3.51562-1.375 5.07812-1.20313 1.96875-3 3.29688-6.48438 3.29688-1.03125 0-1.75-.14063-1.75-.8125m0 0"/><path id="e" d="M-.40625 0h4.75l.125-.60937L3.3125-.71875c-.26562-.01562-.375-.15625-.375-.35937 0-.10938.03125-.26563.10938-.42188.6875-1.34375 1.35937-2.70312 2.14062-4.10937h4.71875l.51563 4.32812s-.10938.51563-.54688.5625L8.75-.60937 8.64063 0h5.17187l.125-.60937-.79687-.0625c-.65625-.0625-.75-.35938-.85938-1.23438l-1.54687-12.64062h-1.5L5.70313-8.34375c-1.07813 1.875-2.8125 5.01563-3.59375 6.26563C1.4375-.98437 1.07813-.76562.42188-.6875l-.6875.07813Zm6.01563-6.42187 3.4375-6.17188.75 6.17188Zm0 0"/><path id="f" d="M0 0h6.375c5.07813 0 6.10938-2.625 6.10938-4.35937 0-2.21875-1.625-3.1875-3.17188-3.46875l.01563-.04688c2.79687-.34375 3.98437-1.92187 3.98437-3.51562 0-1.70313-1-3.15625-4.875-3.15625H3.10938l-.14063.60937 1.26563.10938c.35937.01562.51562.17187.51562.51562 0 .14063-.04687.3125-.09375.51563L2.17188-1.75c-.15625.70313-.35938.9375-.875 1.01563l-1.1875.125Zm4.20313-1.60937c0-.15626.03125-.3125.07812-.46875l1.20313-5.39063h.82812c2.07813 0 3.90625.59375 3.90625 3 0 1.875-1.14062 3.73438-3.95312 3.73438-1.65625 0-2.0625-.34375-2.0625-.875m1.4375-6.60938 1.09375-4.875c.15625-.625.26562-.73437 1.67187-.73437 1.78125 0 2.76563.89062 2.76563 2.375 0 2.1875-1.84375 3.23437-4.17188 3.23437Zm0 0"/></defs><use xlink:href="#a" x="73.77735" y="85.32728"/><use xlink:href="#b" x="73.56475" y="71.88554"/><path fill="none" stroke="#000" stroke-miterlimit="10" stroke-width=".39775" d="M130.85155 30.59376H31.82814v99.01951h99.02341Zm0 0"/><use xlink:href="#c" x="138.75524" y="22.37459"/><use xlink:href="#d" x="7.45699" y="22.688"/><use xlink:href="#e" x="9.49316" y="152.06187"/><use xlink:href="#f" x="138.75524" y="152.06187"/></svg>