<svg id="Capa_1" enable-background="new 0 0 512 512" height="512" viewBox="0 0 512 512" width="512" xmlns="http://www.w3.org/2000/svg"><g><path d="m238.026 256h-220.052c-9.927 0-17.974-8.047-17.974-17.974v-220.052c0-9.927 8.047-17.974 17.974-17.974h220.051c9.928 0 17.975 8.047 17.975 17.974v220.051c0 9.928-8.047 17.975-17.974 17.975z" fill="#f4d8a5"/><path d="m238.026 0h-4.818v215.233c0 9.927-8.047 17.974-17.974 17.974h-215.234v4.818c0 9.928 8.047 17.975 17.974 17.975h220.051c9.927 0 17.974-8.047 17.974-17.974v-220.052c.001-9.927-8.047-17.974-17.973-17.974z" fill="#f1cb86"/><path d="m179.467 109.972h-33.44v-33.44c0-9.957-8.071-18.028-18.028-18.028s-18.028 8.071-18.028 18.028v33.44h-33.438c-9.957 0-18.028 8.071-18.028 18.028s8.071 18.028 18.028 18.028h33.439v33.439c0 9.957 8.071 18.028 18.028 18.028s18.028-8.071 18.028-18.028v-33.439h33.44c9.957 0 18.028-8.071 18.028-18.028s-8.072-18.028-18.029-18.028z" fill="#e28086"/><path d="m238.026 512h-220.052c-9.927 0-17.974-8.047-17.974-17.974v-220.052c0-9.927 8.047-17.974 17.974-17.974h220.051c9.927 0 17.974 8.047 17.974 17.974v220.051c.001 9.928-8.046 17.975-17.973 17.975z" fill="#f4d8a5"/><path d="m238.026 256h-4.818v215.233c0 9.927-8.047 17.974-17.974 17.974h-215.234v4.818c0 9.928 8.047 17.975 17.974 17.975h220.051c9.927 0 17.974-8.047 17.974-17.974v-220.052c.001-9.927-8.047-17.974-17.973-17.974z" fill="#f1cb86"/><g><path d="m179.467 402.028h-102.934c-9.957 0-18.028-8.071-18.028-18.028s8.071-18.028 18.028-18.028h102.935c9.957 0 18.028 8.071 18.028 18.028s-8.072 18.028-18.029 18.028z" fill="#e28086"/></g><path d="m494.026 512h-220.052c-9.927 0-17.974-8.047-17.974-17.974v-476.012c0-9.927 8.047-17.974 17.974-17.974h220.051c9.928 0 17.975 8.047 17.975 17.974v476.012c0 9.927-8.047 17.974-17.974 17.974z" fill="#e28086"/><path d="m494.026.04h-4.818v471.194c0 9.927-8.047 17.974-17.974 17.974h-215.234v4.818c0 9.927 8.047 17.974 17.974 17.974h220.051c9.927 0 17.974-8.047 17.974-17.974v-476.012c.001-9.927-8.047-17.974-17.973-17.974z" fill="#dd636e"/><g><path d="m435.467 238.338h-102.934c-9.957 0-18.028-8.071-18.028-18.028s8.071-18.028 18.028-18.028h102.935c9.957 0 18.028 8.071 18.028 18.028-.001 9.957-8.072 18.028-18.029 18.028z" fill="#f9f6f9"/></g><g><path d="m435.467 309.757h-102.934c-9.957 0-18.028-8.071-18.028-18.028s8.071-18.028 18.028-18.028h102.935c9.957 0 18.028 8.071 18.028 18.028-.001 9.957-8.072 18.028-18.029 18.028z" fill="#f9f6f9"/></g></g></svg>