<svg id="Layer_3" height="512" viewBox="0 0 64 64" width="512" xmlns="http://www.w3.org/2000/svg" data-name="Layer 3"><rect fill="#dfe7f4" height="20" rx="4" width="20" x="22" y="22"/><path d="m26 22a4 4 0 0 0 -4 4v12a3.974 3.974 0 0 0 .108.892 3.974 3.974 0 0 0 .892.108h12a4 4 0 0 0 4-4v-12a3.974 3.974 0 0 0 -.108-.892 3.974 3.974 0 0 0 -.892-.108z" fill="#f0f7ff"/><rect fill="#707dd3" height="20" rx="4" width="20" x="2" y="22"/><path d="m6 22a4 4 0 0 0 -4 4v12a3.974 3.974 0 0 0 .108.892 3.974 3.974 0 0 0 .892.108h12a4 4 0 0 0 4-4v-12a3.974 3.974 0 0 0 -.108-.892 3.974 3.974 0 0 0 -.892-.108z" fill="#8993da"/><rect fill="#dfe7f4" height="20" rx="4" width="20" x="2" y="42"/><path d="m6 42a4 4 0 0 0 -4 4v12a3.974 3.974 0 0 0 .108.892 3.974 3.974 0 0 0 .892.108h12a4 4 0 0 0 4-4v-12a3.974 3.974 0 0 0 -.108-.892 3.974 3.974 0 0 0 -.892-.108z" fill="#f0f7ff"/><rect fill="#dd636e" height="20" rx="4" width="20" x="22" y="42"/><path d="m26 42a4 4 0 0 0 -4 4v12a3.974 3.974 0 0 0 .108.892 3.974 3.974 0 0 0 .892.108h12a4 4 0 0 0 4-4v-12a3.974 3.974 0 0 0 -.108-.892 3.974 3.974 0 0 0 -.892-.108z" fill="#e28086"/><rect fill="#f1cb86" height="20" rx="4" width="20" x="42" y="42"/><path d="m46 42a4 4 0 0 0 -4 4v12a3.974 3.974 0 0 0 .108.892 3.974 3.974 0 0 0 .892.108h12a4 4 0 0 0 4-4v-12a3.974 3.974 0 0 0 -.108-.892 3.974 3.974 0 0 0 -.892-.108z" fill="#f4d8a5"/><rect fill="#707dd3" height="20" rx="4" width="20" x="42" y="22"/><path d="m46 22a4 4 0 0 0 -4 4v12a3.974 3.974 0 0 0 .108.892 3.974 3.974 0 0 0 .892.108h12a4 4 0 0 0 4-4v-12a3.974 3.974 0 0 0 -.108-.892 3.974 3.974 0 0 0 -.892-.108z" fill="#8993da"/><rect fill="#dd636e" height="20" rx="4" width="20" x="42" y="2"/><path d="m46 2a4 4 0 0 0 -4 4v12a3.974 3.974 0 0 0 .108.892 3.974 3.974 0 0 0 .892.108h12a4 4 0 0 0 4-4v-12a3.974 3.974 0 0 0 -.108-.892 3.974 3.974 0 0 0 -.892-.108z" fill="#e28086"/><rect fill="#f1cb86" height="20" rx="4" transform="matrix(.707 -.707 .707 .707 -3.962 19.464)" width="20" x="11.515" y="4.515"/><path d="m24.343 3.2a4 4 0 0 0 -5.657 0l-8.486 8.486a3.94 3.94 0 0 0 -.618.829 3.934 3.934 0 0 0 .618.828l8.485 8.485a4 4 0 0 0 5.657 0l8.485-8.485a3.974 3.974 0 0 0 .619-.828 3.979 3.979 0 0 0 -.619-.829z" fill="#f4d8a5"/><g fill="#596c76"><path d="m25.051 18.05-5.657-5.656-.415.414v2.414h-2v-2.828a1 1 0 0 1 .293-.707l1.415-1.415a1.029 1.029 0 0 1 1.414 0l6.364 6.364z"/><path d="m56 17h-7a1 1 0 0 1 -1-1v-4a1 1 0 0 1 1-1h5v-2h-6v-2h7a1 1 0 0 1 1 1v4a1 1 0 0 1 -1 1h-5v2h6z" fill="#f0f7ff"/><path d="m55 37h-7v-2h6v-2h-5a1 1 0 0 1 -1-1v-4a1 1 0 0 1 1-1h7v2h-6v2h5a1 1 0 0 1 1 1v4a1 1 0 0 1 -1 1z" fill="#f0f7ff"/><path d="m15 57h-6a1 1 0 0 1 -1-1v-8a1 1 0 0 1 1-1h6a1 1 0 0 1 1 1v2h-2v-1h-4v2h5a1 1 0 0 1 1 1v4a1 1 0 0 1 -1 1zm-5-2h4v-2h-4z"/><path d="m13 37h-4v-2h4a1 1 0 0 0 0-2h-2a1 1 0 0 1 0-2h2a1 1 0 0 0 0-2h-4v-2h4a3 3 0 0 1 2.234 5 3 3 0 0 1 -2.234 5z" fill="#f0f7ff"/><path d="m37 31h-2v-4h-2v4h-2.78l.76-3.8-1.96-.4-1 5a1 1 0 0 0 .98 1.2h4v4h2v-4h2z"/><path d="m33.977 57.217-1.954-.434 1.73-7.783h-3.365l.56 1.684-1.9.632-1-3a1 1 0 0 1 .952-1.316h6a1 1 0 0 1 .977 1.217z" fill="#f0f7ff"/><path d="m56 50a3 3 0 0 0 -3-3h-2a2.987 2.987 0 0 0 -2.22 5 2.987 2.987 0 0 0 2.22 5h2a2.987 2.987 0 0 0 2.22-5 2.981 2.981 0 0 0 .78-2zm-5-1h2a1 1 0 0 1 0 2h-2a1 1 0 0 1 0-2zm2 6h-2a1 1 0 0 1 0-2h2a1 1 0 0 1 0 2z"/></g></svg>
