<svg id="Capa_1" enable-background="new 0 0 512 512" height="512" viewBox="0 0 512 512" width="512" xmlns="http://www.w3.org/2000/svg"><g><path d="m195.102 193.985h-193.986v-187.134c0-3.784 3.068-6.851 6.851-6.851h187.134v193.985z" fill="#707dd3"/><path d="m168.746 0h26.356v193.985h-26.356z" fill="#5766cb"/><path d="m389.087 193.985h-193.985v-193.985h187.134c3.784 0 6.851 3.067 6.851 6.851z" fill="#596c76"/><path d="m359.686 0v193.985h29.401v-187.134c0-3.784-3.067-6.851-6.851-6.851z" fill="#3b4a51"/><path d="m486.08 193.985h-96.993v-96.992h90.142c3.784 0 6.851 3.067 6.851 6.851z" fill="#e28086"/><path d="m462.473 96.993v96.993h23.606v-90.142c0-3.784-3.067-6.851-6.851-6.851z" fill="#dd636e"/><path d="m312.28 512h-304.313c-3.784 0-6.851-3.067-6.851-6.851v-311.164h318.015v311.164c0 3.784-3.067 6.851-6.851 6.851z" fill="#f4d8a5"/><path d="m292.775 193.985v318.015h19.505c3.784 0 6.851-3.067 6.851-6.851v-311.164z" fill="#f1cb86"/><path d="m504.033 385.738h-184.902v-191.753h184.902c3.784 0 6.851 3.067 6.851 6.851v178.051c0 3.784-3.068 6.851-6.851 6.851z" fill="#8993da"/><path d="m484.963 193.985v191.753h19.07c3.784 0 6.851-3.067 6.851-6.851v-178.051c0-3.784-3.067-6.851-6.851-6.851z" fill="#707dd3"/><path d="m411.307 484.765h-92.176v-99.027h99.027v92.176c0 3.784-3.067 6.851-6.851 6.851z" fill="#e28086"/><path d="m391.802 385.738v99.027h19.505c3.784 0 6.851-3.067 6.851-6.851v-92.176z" fill="#dd636e"/></g></svg>
