<svg xmlns="http://www.w3.org/2000/svg" xmlns:xlink="http://www.w3.org/1999/xlink" width="222.967pt" height="107.793pt" viewBox="0 0 222.967 107.793"><defs><clipPath id="a"><path d="M.19531 11H167v74H.19531Zm0 0"/></clipPath><clipPath id="b"><path d="M.19531 0H194v91H.19531Zm0 0"/></clipPath><clipPath id="c"><path d="M.19531 68H194v23H.19531Zm0 0"/></clipPath><clipPath id="g"><path d="M.19531 83H11v15H.19531Zm0 0"/></clipPath><path id="d" d="m.23438-2.42187.10937.25h3.29688V-.9375c0 .42188-.125.48438-.42188.51563l-.78125.07812V0h3.20313v-.34375l-.53125-.0625C4.8125-.45312 4.75-.51562 4.75-.9375v-1.23437h1.23438v-.5625H4.75v-5.375h-.90625c-1.125 1.67187-2.5 3.78125-3.60937 5.6875m.875-.3125C1.82813-4.0625 2.71875-5.46875 3.64063-6.9375v4.20313Zm0 0"/><path id="f" d="M.32813-1.23437c0 .51562.82812 1.375 2.54687 1.375 1.76563 0 2.875-.89063 2.875-2.4375 0-1.625-1.39062-2.10938-2.0625-2.17188v-.04687c.65625-.10938 1.70313-.59375 1.70313-1.79688 0-1.34375-1.04688-1.9375-2.35938-1.9375-1.59375 0-2.39062.92188-2.39062 1.4375 0 .375.4375.57813.59375.57813.15624 0 .25-.07813.29687-.23438.28125-.82812.73438-1.35937 1.42188-1.35937.95312 0 1.1875.84375 1.1875 1.51562 0 .73438-.25 1.64063-1.28125 1.64063-.57813 0-.92188-.10938-1.0625-.10938-.15626 0-.21876.10938-.21876.34375 0 .20313.0625.32813.21876.32813.14062 0 .48437-.10938 1.0625-.10938 1.03125 0 1.60937.92188 1.60937 1.98438 0 1.45312-.70312 1.95312-1.57812 1.95312-.79688 0-1.32813-.59375-1.5625-1.28125-.07813-.23437-.1875-.34375-.35938-.34375-.21875 0-.64062.21875-.64062.67188m0 0"/><path id="h" d="M.53125-3.75c0 2.625.95313 3.89063 2.78125 3.89063 1.79688 0 2.75-1.07813 2.75-2.73438C6.0625-4.23437 5.04688-5.125 3.75-5.125c-.95312 0-1.67187.64063-2 1.04688.01563-2.6875.75-3.75 1.85938-3.75.54687 0 .95312.46875 1.14062 1.15625.03125.14062.125.26562.29688.26562.28125 0 .65625-.21875.65625-.5625 0-.48437-.59375-1.28125-2.0625-1.28125-1.92188 0-3.10938 1.48438-3.10938 4.5M1.75-2.875c0-.73437.5625-1.64062 1.57813-1.64062.76562 0 1.51562.70312 1.51562 2.09375 0 1.28125-.48437 2.14062-1.51562 2.14062C2.28125-.28125 1.75-1.40625 1.75-2.875m0 0"/><path id="e" d="M.39063 0h2.95312v-.34375c-.85937-.0625-.90625-.09375-.90625-.71875v-2.84375c0-.3125 0-.46875.09375-.64062.23438-.5.76563-.89063 1.4375-.89063 1.04688 0 1.17188.76563 1.17188 1.51563v2.85937c0 .625-.03125.65625-.92188.71875V0H7.1875v-.34375c-.875-.0625-.90625-.09375-.90625-.71875v-2.84375c0-.3125.01563-.46875.09375-.65625.17188-.48437.6875-.875 1.375-.875.76563 0 1.23438.42188 1.23438 1.51563v2.85937c0 .625-.04688.65625-.92188.71875V0h2.96875v-.34375c-.85937-.0625-.90625-.09375-.90625-.71875v-3.09375c0-1.23437-.67187-1.9375-1.8125-1.9375-1 0-1.70312.65625-2.14062.92188-.29688-.5625-.75-.92188-1.60938-.92188-.9375 0-1.6875.60938-2.125.92188l-.10937-.92188-1.875.3125v.29688l.45312.0625c.3125.04687.40625.09375.40625.53125v3.82812c0 .625-.04687.65625-.92187.71875Zm0 0"/></defs><g clip-path="url(#a)"><path fill="none" stroke="#000" stroke-miterlimit="10" stroke-width=".39773" d="M.39453 84.79297H165.9062V11.23049H.39453Zm0 0"/></g><g clip-path="url(#b)"><path fill="none" stroke="#000" stroke-miterlimit="10" stroke-width=".39773" d="m165.9062 84.79297 22.0664-11.03515V.19534H22.46483L.39454 11.2305"/></g><path fill="none" stroke="#000" stroke-miterlimit="10" stroke-width=".39773" d="M165.9062 11.2305 187.9726.19533"/><g clip-path="url(#c)"><path fill="none" stroke="#000" stroke-dasharray="2.9830914464 2.9830914464" stroke-miterlimit="10" stroke-width=".39773" d="m.39453 84.79297 22.0703-11.03515H187.9726"/></g><path fill="none" stroke="#000" stroke-dasharray="2.9830914464 2.9830914464" stroke-miterlimit="10" stroke-width=".39773" d="M22.46484 73.75782V.19534"/><path fill="none" stroke="#000" stroke-miterlimit="10" stroke-width=".39773" d="M193.49212 69.1836V4.76956"/><path stroke="#000" stroke-miterlimit="10" stroke-width=".39773" d="M193.49219 73.01562c.125-.47265.84375-2.53906 1.62109-3.83203h-3.2461c.78126 1.29297 1.4961 3.35938 1.625 3.83203Zm0-72.07422c-.1289.46876-.84375 2.53907-1.625 3.82813h3.24609c-.77734-1.28906-1.4961-3.35937-1.6211-3.82812Zm0 0"/><use xlink:href="#d" x="198.05625" y="50.23154"/><use xlink:href="#e" x="207.22185" y="50.23154"/><path fill="none" stroke="#000" stroke-miterlimit="10" stroke-width=".39773" d="m169.99604 88.26172 13.88671-6.9414"/><path stroke="#000" stroke-miterlimit="10" stroke-width=".3977" d="M166.57031 89.97656c.47656-.09765 2.64844-.38281 4.15235-.26172l-1.44922-2.90234c-.8086 1.27344-2.33985 2.83984-2.70313 3.16406Zm20.73829-10.37109c-.47657.09765-2.64454.38281-4.15235.26172l1.45313 2.90234c.80859-1.27344 2.33593-2.83984 2.69921-3.16406Zm0 0"/><use xlink:href="#f" x="181.50503" y="92.10113"/><use xlink:href="#e" x="190.67063" y="92.10113"/><path fill="none" stroke="#000" stroke-miterlimit="10" stroke-width=".39773" d="M4.96875 90.3086h156.36323"/><path d="M1.14063 90.3086c.46875.125 2.53515.84374 3.82812 1.62109V88.6875c-1.29297.77734-3.35937 1.4961-3.82812 1.6211m0 0"/><g clip-path="url(#g)"><path fill="none" stroke="#000" stroke-miterlimit="10" stroke-width=".39773" d="M1.14063 90.3086c.46875.125 2.53515.84374 3.82812 1.62109V88.6875c-1.29297.77734-3.35937 1.4961-3.82812 1.6211Zm0 0"/></g><path stroke="#000" stroke-miterlimit="10" stroke-width=".39773" d="M165.16406 90.3086c-.47265-.125-2.53906-.84376-3.83203-1.6211v3.24219c1.29297-.77735 3.35938-1.4961 3.83203-1.6211Zm0 0"/><use xlink:href="#h" x="72.96447" y="103.13594"/><use xlink:href="#e" x="82.12877" y="103.13594"/></svg>