<svg xmlns="http://www.w3.org/2000/svg" xmlns:xlink="http://www.w3.org/1999/xlink" width="145.433pt" height="55.679pt" viewBox="0 0 145.433 55.679"><defs><path id="a" d="M.125 0h3.14063l.32812-1.14062h-.20312C3.15625-.60937 2.875-.25 2.15625-.25c-.51562 0-.6875-.04687-.6875-.23437 0-.04688.01563-.10938.03125-.20313l.67188-2.95312c.0625-.20313.09375-.3125.26562-.3125l.3125-.03125.0625-.20313H1.03125l-.04687.20313.32812.03125c.10938 0 .15625.04687.15625.15625 0 .03125-.01562.09375-.03125.15625L.73438-.54687C.6875-.32813.64062-.25.46875-.23437l-.29687.03124Zm0 0"/><path id="b" d="M.57813.07813 1.10938 0c.15624-.625.25-.95312.40625-1.32812.17187-.46875.78125-1.39063 1.29687-1.39063.15625 0 .21875.09375.21875.25 0 .04688 0 .10938-.01562.17188l-.5 1.71875c-.03125.10937-.04688.21874-.04688.29687 0 .21875.10938.35938.35938.35938.42187 0 .76562-.42188.96875-.875L3.65625-.875c-.10937.20313-.39062.625-.54687.625C3.03125-.25 3-.29687 3-.35937s.01563-.125.04688-.21875l.46875-1.57813c.04687-.14062.0625-.28125.0625-.40625 0-.28125-.125-.46875-.46875-.46875-.57813 0-1.23438.60938-1.60938 1.34375h-.01562l.67187-2.78125-.03125-.01562-1.09375.14062L1-4.20312l.34375.03125c.10938.01562.15625.03125.15625.125 0 .04687-.01562.09375-.03125.17187Zm0 0"/><path id="c" d="m.26563-.65625.5-.26562c.01562.5625.23437 1 .70312 1 .57813 0 .82813-.34375.95313-.57813L2.375-.60937c-.45312.40625-.67187.42187-.84375.42187-.20312 0-.3125-.14062-.3125-.39062 0-.125.07813-.53125.125-.70313.46875-.40625 2.0625-1.84375 2.0625-3.04687 0-.25-.09375-.45313-.39062-.45313-1.1875 0-2.09375 2.26563-2.25 3.57813l-.4375.3125Zm1.15625-.95312c.1875-.54688.45312-1.5.875-2.1875.21875-.35938.48437-.70313.6875-.70313.125 0 .15625.10938.15625.25 0 1.03125-1.125 2.0625-1.71875 2.64063m0 0"/></defs><path fill="none" stroke="#007f7f" stroke-miterlimit="10" stroke-width=".39622" d="M11.26563 44.16406H121.1836"/><path fill="none" stroke="#ff7f00" stroke-miterlimit="10" stroke-width=".39622" d="M11.26563 7.52734v36.63672"/><path fill="none" stroke="red" stroke-miterlimit="10" stroke-width=".39622" d="m121.20705 44.16406 14.63281-7.32812"/><use xlink:href="#a" x="64.38354" y="51.06759" fill="#007f7f"/><use xlink:href="#b" x="4.4272" y="28.05028" fill="#ff7f00"/><use xlink:href="#c" x="136.74636" y="42.85394" fill="red"/><path fill="none" stroke="#000" stroke-miterlimit="10" stroke-width=".39622" d="m121.20705 44.16406-.02344-36.63672-109.91798-.00781"/><path fill="none" stroke="#000" stroke-miterlimit="10" stroke-width=".39622" d="M135.8633 36.83594 135.83986.1992H25.92188L11.26563 7.52734m109.91798 0L135.83986.1992"/><path fill="none" stroke="#000" stroke-dasharray="2.9717040041000002 2.9717040041000002" stroke-miterlimit="10" stroke-width=".39622" d="m11.26563 44.16406 14.65625-7.32812h109.91798m-109.91798 0V.1992"/></svg>