<svg xmlns="http://www.w3.org/2000/svg" width="159.394" height="159.394" viewBox="0 0 159.394 159.394"><defs><clipPath id="a"><path d="M0 108h158.78906v50.78906H0Zm0 0"/></clipPath><clipPath id="b"><path d="M0 0h50v158.78906H0Zm0 0"/></clipPath><clipPath id="c"><path d="M158 0h.78906v115H158Zm0 0"/></clipPath><clipPath id="d"><path d="M44 0h114.78906v1H44Zm0 0"/></clipPath><clipPath id="e"><path d="M0 97h158.78906v56H0Zm0 0"/></clipPath><clipPath id="f"><path d="M6 0h56v158.78906H6Zm0 0"/></clipPath><clipPath id="g"><path d="M0 86h158.78906v56H0Zm0 0"/></clipPath><clipPath id="h"><path d="M17 0h56v158.78906H17Zm0 0"/></clipPath><clipPath id="i"><path d="M0 74h158.78906v56H0Zm0 0"/></clipPath><clipPath id="j"><path d="M28 0h57v158.78906H28Zm0 0"/></clipPath><clipPath id="k"><path d="M0 63h158.78906v56H0Zm0 0"/></clipPath><clipPath id="l"><path d="M40 0h56v158.78906H40Zm0 0"/></clipPath><clipPath id="m"><path d="M0 51h158.78906v57H0Zm0 0"/></clipPath><clipPath id="n"><path d="M51 0h57v158.78906H51Zm0 0"/></clipPath><clipPath id="o"><path d="M0 40h158.78906v56H0Zm0 0"/></clipPath><clipPath id="p"><path d="M63 0h56v158.78906H63Zm0 0"/></clipPath><clipPath id="q"><path d="M0 28h158.78906v57H0Zm0 0"/></clipPath><clipPath id="r"><path d="M74 0h56v158.78906H74Zm0 0"/></clipPath><clipPath id="s"><path d="M0 17h158.78906v56H0Zm0 0"/></clipPath><clipPath id="t"><path d="M86 0h56v158.78906H86Zm0 0"/></clipPath><clipPath id="u"><path d="M0 6h158.78906v56H0Zm0 0"/></clipPath><clipPath id="v"><path d="M97 0h56v158.78906H97Zm0 0"/></clipPath><clipPath id="w"><path d="M0 0h158.78906v50H0Zm0 0"/></clipPath><clipPath id="x"><path d="M108 0h50.78906v158.78906H108Zm0 0"/></clipPath><clipPath id="y"><path d="M114 44h1v114.78906h-1Zm0 0"/></clipPath></defs><g clip-path="url(#a)"><path fill="none" stroke="#000" stroke-miterlimit="10" stroke-width=".39699" d="M.1992 158.59377h114.36334l44.03127-44.03127"/></g><g clip-path="url(#b)"><path fill="none" stroke="#000" stroke-miterlimit="10" stroke-width=".39699" d="M.1992 158.59377V44.22653L44.22656.19916"/></g><g clip-path="url(#c)"><path fill="none" stroke="#000" stroke-miterlimit="10" stroke-width=".39699" d="M158.5938 114.5625V.19916"/></g><g clip-path="url(#d)"><path fill="none" stroke="#000" stroke-miterlimit="10" stroke-width=".39699" d="M44.22656.19916h114.36725"/></g><g clip-path="url(#e)"><path fill="none" stroke="#000" stroke-miterlimit="10" stroke-width=".39699" d="M.1992 147.15627h114.36334l44.03127-44.03128"/></g><g clip-path="url(#f)"><path fill="none" stroke="#000" stroke-miterlimit="10" stroke-width=".39699" d="M11.6328 158.59377V44.22653L55.66407.19916"/></g><path fill="none" stroke="#000" stroke-miterlimit="10" stroke-width=".39699" d="M154.19146 118.96485V4.6015m-114.36724 0h114.36724"/><g clip-path="url(#g)"><path fill="none" stroke="#000" stroke-miterlimit="10" stroke-width=".39699" d="M.1992 135.71876h114.36334l44.03127-44.03127"/></g><g clip-path="url(#h)"><path fill="none" stroke="#000" stroke-miterlimit="10" stroke-width=".39699" d="M23.0703 158.59377V44.22653L67.10157.19916"/></g><path fill="none" stroke="#000" stroke-miterlimit="10" stroke-width=".39699" d="M149.7852 123.3672V9.00384m-114.36333.00001h114.36334"/><g clip-path="url(#i)"><path fill="none" stroke="#000" stroke-miterlimit="10" stroke-width=".39699" d="M.1992 124.28125h114.36334L158.5938 80.2539"/></g><g clip-path="url(#j)"><path fill="none" stroke="#000" stroke-miterlimit="10" stroke-width=".39699" d="M34.5078 158.59377V44.22653L78.53909.19916"/></g><path fill="none" stroke="#000" stroke-miterlimit="10" stroke-width=".39699" d="M145.38286 127.76954V13.4062m-114.36334 0h114.36334"/><g clip-path="url(#k)"><path fill="none" stroke="#000" stroke-miterlimit="10" stroke-width=".39699" d="M.1992 112.84766h114.36334l44.03127-44.03128"/></g><g clip-path="url(#l)"><path fill="none" stroke="#000" stroke-miterlimit="10" stroke-width=".39699" d="M45.94531 158.59377V44.22653L89.97268.19916"/></g><path fill="none" stroke="#000" stroke-miterlimit="10" stroke-width=".39699" d="M140.98052 132.17579V17.80854m-114.36334 0h114.36334"/><g clip-path="url(#m)"><path fill="none" stroke="#000" stroke-miterlimit="10" stroke-width=".39699" d="M.1992 101.41015h114.36334l44.03127-44.03127"/></g><g clip-path="url(#n)"><path fill="none" stroke="#000" stroke-miterlimit="10" stroke-width=".39699" d="M57.37891 158.59377V44.22653L101.41018.19916"/></g><path fill="none" stroke="#000" stroke-miterlimit="10" stroke-width=".39699" d="M136.57817 136.57814V22.21089m-114.36334.00001h114.36334"/><g clip-path="url(#o)"><path fill="none" stroke="#000" stroke-miterlimit="10" stroke-width=".39699" d="M.1992 89.97264h114.36334l44.03127-44.02736"/></g><g clip-path="url(#p)"><path fill="none" stroke="#000" stroke-miterlimit="10" stroke-width=".39699" d="M68.81642 158.59377V44.22653L112.84769.19916"/></g><path fill="none" stroke="#000" stroke-miterlimit="10" stroke-width=".39699" d="M132.17582 140.98048V26.61714m-114.36724 0h114.36724"/><g clip-path="url(#q)"><path fill="none" stroke="#000" stroke-miterlimit="10" stroke-width=".39699" d="M.1992 78.53514h114.36334l44.03127-44.02737"/></g><g clip-path="url(#r)"><path fill="none" stroke="#000" stroke-miterlimit="10" stroke-width=".39699" d="M80.25392 158.59377V44.22653L124.2852.19916"/></g><path fill="none" stroke="#000" stroke-miterlimit="10" stroke-width=".39699" d="M127.77348 145.38283V31.01949m-114.36725 0h114.36725"/><g clip-path="url(#s)"><path fill="none" stroke="#000" stroke-miterlimit="10" stroke-width=".39699" d="M.1992 67.10154h114.36334l44.03127-44.03127"/></g><g clip-path="url(#t)"><path fill="none" stroke="#000" stroke-miterlimit="10" stroke-width=".39699" d="M91.69143 158.59377V44.22653L135.7188.19916"/></g><path fill="none" stroke="#000" stroke-miterlimit="10" stroke-width=".39699" d="M123.36723 149.78517V35.42183m-114.36334 0h114.36334"/><g clip-path="url(#u)"><path fill="none" stroke="#000" stroke-miterlimit="10" stroke-width=".39699" d="M.1992 55.66403h114.36334l44.03127-44.03127"/></g><g clip-path="url(#v)"><path fill="none" stroke="#000" stroke-miterlimit="10" stroke-width=".39699" d="M103.12503 158.59377V44.22653L147.1563.19916"/></g><path fill="none" stroke="#000" stroke-miterlimit="10" stroke-width=".39699" d="M118.96488 154.18752V39.82418m-114.36334 0h114.36334"/><g clip-path="url(#w)"><path fill="none" stroke="#000" stroke-miterlimit="10" stroke-width=".39699" d="M.1992 44.22653h114.36334L158.5938.19916"/></g><g clip-path="url(#x)"><path fill="none" stroke="#000" stroke-miterlimit="10" stroke-width=".39699" d="M114.56254 158.59377V44.22653L158.5938.19916"/></g><g clip-path="url(#y)"><path fill="none" stroke="#000" stroke-miterlimit="10" stroke-width=".39699" d="M114.56254 158.59377V44.22653"/></g><path fill="none" stroke="#000" stroke-miterlimit="10" stroke-width=".39699" d="M.1992 44.22653h114.36334"/></svg>