<svg xmlns="http://www.w3.org/2000/svg" xmlns:xlink="http://www.w3.org/1999/xlink" width="50.005pt" height="52.505pt" viewBox="0 0 50.005 52.505"><defs><clipPath id="b"><path d="M0 .26953h49.03125V48H0Zm0 0"/></clipPath><clipPath id="c"><path d="M29 .26953h20.03125V13H29Zm0 0"/></clipPath><clipPath id="d"><path d="M0 29h49.03125v19H0Zm0 0"/></clipPath><clipPath id="e"><path d="M13 .26953h2V36h-2Zm0 0"/></clipPath><path id="a" d="M.48438-.875c0 .70313.42187.9375.875.9375.42187 0 .9375-.17187 1.34375-.90625l-.15625-.10937c-.20313.29687-.5.70312-.89063.70312-.35937 0-.45312-.3125-.45312-.70312 0-.75.42187-1.70313.875-1.70313.14062 0 .25.10938.29687.42188.03125.125.0625.21875.20313.21875C2.75-2.01562 3-2.15625 3-2.35937c0-.29688-.3125-.53125-.78125-.53125C1.125-2.89062.48438-1.78125.48438-.875m0 0"/></defs><path fill="none" stroke="#007F7F" stroke-miterlimit="10" stroke-width=".39073" d="M.19531 42.15625H34.9375"/><use xlink:href="#a" x="15.94571" y="47.61346" fill="#007F7F"/><path fill="none" stroke="#000" stroke-miterlimit="10" stroke-width=".39073" d="M34.9375 42.15625V7.41407H.1953v34.74218"/><g clip-path="url(#b)"><path fill="none" stroke="#000" stroke-miterlimit="10" stroke-width=".39073" d="m34.9375 42.15625 13.89452-6.94922V.46485H14.08984L.19531 7.41407"/></g><g clip-path="url(#c)"><path fill="none" stroke="#000" stroke-miterlimit="10" stroke-width=".39073" d="M34.9375 7.41407 48.83201.46485"/></g><g clip-path="url(#d)"><path fill="none" stroke="#000" stroke-dasharray="2.9305179267 2.9305179267" stroke-miterlimit="10" stroke-width=".39073" d="m.19531 42.15625 13.89453-6.94922h34.74218"/></g><g clip-path="url(#e)"><path fill="none" stroke="#000" stroke-dasharray="2.9305179267 2.9305179267" stroke-miterlimit="10" stroke-width=".39073" d="M14.08984 35.20703V.46485"/></g></svg>