<svg xmlns="http://www.w3.org/2000/svg" xmlns:xlink="http://www.w3.org/1999/xlink" width="114.951pt" height="100.89pt" viewBox="0 0 114.951 100.89"><defs><clipPath id="a"><path d="M.03906 88h114.82422v12H.03906Zm0 0"/></clipPath><clipPath id="b"><path d="M.03906 82h114.82422v18.78125H.03906Zm0 0"/></clipPath><clipPath id="e"><path d="M.03906 82h114.82422v18.78125H.03906Zm0 0"/></clipPath><clipPath id="f"><path d="M.03906 0H95v100.78125H.03906Zm0 0"/></clipPath><clipPath id="g"><path d="M50 0h64.86328v95H50Zm0 0"/></clipPath><path id="c" d="M.57813.07813 1.10938 0c.17187-.625.25-.95312.40625-1.34375.1875-.46875.78125-1.39062 1.3125-1.39062.14062 0 .21875.09375.21875.25 0 .04687 0 .10937-.01563.17187l-.5 1.73438C2.5-.46875 2.48438-.375 2.48438-.28125c0 .21875.10937.35938.35937.35938.42188 0 .76563-.42188.96875-.875l-.14062-.09376C3.5625-.67186 3.28125-.25 3.125-.25c-.07812 0-.10937-.04687-.10937-.10937s.01562-.125.04687-.21875l.46875-1.59375c.04688-.14063.07813-.26563.07813-.39063 0-.29687-.14063-.48437-.48438-.48437-.57812 0-1.23437.625-1.625 1.35937h-.01562l.6875-2.79687-.03125-.03125-1.09375.15625L1-4.21875l.35938.03125c.09374.01563.14062.03125.14062.125 0 .04688 0 .09375-.03125.17188Zm0 0"/><path id="d" d="M.26563-.5c0 .4375.57812.57813 1.01562.57813.84375 0 1.70313-.64063 2.14063-1.32813l.35937-.54687c.0625.01562.125.03124.20313.03124.29687 0 .53125-.07812.8125-.23437.17187.10938.26562.26563.26562.46875C5.0625-1 4.46875-.125 3.9375-.125c-.23437 0-.40625-.09375-.40625-.3125 0-.5.53125-.73437.92188-.73437.0625 0 .14062-.0625.14062-.10938 0-.04687-.04687-.09375-.10937-.09375-.53125 0-1.1875.34375-1.1875.9375 0 .32813.26562.51563.625.51563.78125 0 1.625-.8125 1.625-1.51563 0-.3125-.1875-.57812-.46875-.73437.29687-.23438.67187-.60938.67187-1.03125 0-.3125-.21875-.64063-.48437-.82813.07812-.03125.21875-.15625.21875-.21875s-.03125-.125-.10938-.125c-.07812 0-.29687.15625-.375.20313-.40625-.17188-.90625-.23438-1.40625-.23438-.98437 0-2.125.54688-2.60937 1.34375-.14063.21875-.21876.5-.21876.75 0 .42188.28126.70313.76563.70313.54688 0 1.14063-.29688 1.375-.71875.14063-.20313.20313-.48438.20313-.71875 0-.14063-.03125-.46875-.1875-.46875-.0625 0-.15625.04687-.15625.10937s.03125.09375.03125.17188c0 .29687-.10938.5625-.28125.8125-.1875.29687-.59375.60937-.98438.60937-.32812 0-.48437-.17187-.48437-.48437 0-.26563.09374-.53125.1875-.6875.42187-.6875 1.4375-1.1875 2.32812-1.1875.42188 0 .85938.03125 1.1875.20312-.875.70313-1.45312 1.75-2.01562 2.65625C2.42188-.82812 1.875-.125 1.28125-.125.98438-.125.48438-.1875.48438-.5.48438-.53125.5-.5625.5-.57812q.09375.04687.1875.04687c.15625 0 .34375-.10937.34375-.25 0-.15625-.14062-.25-.29687-.25-.28126 0-.46875.23438-.46875.53125m3.625-1.46875c.01562-.04687.0625-.125.09375-.15625 0 0 .375 0 .5.01563-.10938.0625-.26563.14062-.40625.14062zm.21875-.34375c.29687-.48437.5625-1.04687.92187-1.46875.14063.125.20313.35938.20313.51563 0 .375-.29688.76562-.53125.96875-.10938-.03125-.29688-.03125-.42188-.03125-.0625 0-.10937 0-.17187.01562m0 0"/></defs><g clip-path="url(#a)"><path fill="#cce5e5" d="M.23828 99.89844h88.35938l26.0664-11.33985H26.3047Zm0 0"/></g><g clip-path="url(#b)"><path fill="none" stroke="#cce5e5" stroke-miterlimit="10" stroke-width=".39807" d="M.23828 99.89843h88.35939l26.0664-11.33984H26.3047Zm0 0"/></g><path fill="none" stroke="red" stroke-miterlimit="10" stroke-width=".39807" d="m64.8125 94.23046-.1328-7.36328h-7.35938"/><use xlink:href="#c" x="50.57003" y="52.28599" fill="#ff7f00"/><use xlink:href="#d" x="23.36269" y="96.39091" fill="#007f7f"/><path fill="none" stroke="#ff7f00" stroke-dasharray="2.9855721753 2.9855721753" stroke-miterlimit="10" stroke-width=".39807" d="m55.75782.1953 1.69531 94.03516"/><path fill="none" stroke="#000" stroke-dasharray="2.9855721753 2.9855721753" stroke-miterlimit="10" stroke-width=".39807" d="M57.45313 94.23046h44.1797"/><g fill="none" stroke="#000" stroke-miterlimit="10" stroke-width=".39807" clip-path="url(#e)"><path d="M.23828 99.89843h88.35939l26.0664-11.33984"/><path stroke-dasharray="2.9855721753 2.9855721753" d="M.23828 99.89843 26.3047 88.5586h88.35938"/></g><g clip-path="url(#f)"><path fill="none" stroke="#000" stroke-miterlimit="10" stroke-width=".39807" d="M.23828 99.90624 55.75782.1953l32.82422 99.71094"/></g><g clip-path="url(#g)"><path fill="none" stroke="#000" stroke-miterlimit="10" stroke-width=".39807" d="m55.75782.1953 58.88672 88.375"/></g><path fill="none" stroke="#000" stroke-dasharray="2.9855721753 2.9855721753" stroke-miterlimit="10" stroke-width=".39807" d="m55.75782.1953-29.46094 88.375"/></svg>