<svg xmlns="http://www.w3.org/2000/svg" xmlns:xlink="http://www.w3.org/1999/xlink" width="139.818pt" height="53.545pt" viewBox="0 0 139.818 53.545"><defs><path id="a" d="M.125 0h3.01563l.29687-1.09375H3.25c-.21875.5-.5.85938-1.1875.85938-.5 0-.65625-.04688-.65625-.23438 0-.04687.01563-.10937.03125-.1875L2.09375-3.5c.04688-.1875.07813-.28125.23438-.29687l.3125-.03125.04687-.1875H.98438l-.04688.1875.32813.03125c.09374 0 .14062.0625.14062.15625 0 .03125-.01562.07812-.03125.14062L.70313-.51562c-.04688.20312-.09376.28124-.25.29687L.15625-.1875Zm0 0"/><path id="b" d="m.5625.0625.5-.0625c.15625-.59375.23438-.90625.39063-1.28125.17187-.45312.75-1.32812 1.25-1.32812.14062 0 .20312.09375.20312.23437 0 .04688 0 .10938-.01562.17188L2.40625-.5625c-.03125.10938-.04687.20313-.04687.29688 0 .20312.10937.32812.35937.32812.39063 0 .71875-.39062.92188-.82812L3.5-.84375c-.10937.20313-.35937.60938-.53125.60938-.0625 0-.09375-.04688-.09375-.10938s.01563-.125.04688-.20312L3.375-2.07812c.04688-.125.0625-.25.0625-.375 0-.26563-.125-.45313-.46875-.45313-.54687 0-1.17187.59375-1.53125 1.29688h-.01562l.64062-2.67188-.03125-.01562L1-4.17187l-.04687.14062L1.29688-4c.09374.01563.14062.03125.14062.125 0 .04688-.01562.09375-.03125.17188Zm0 0"/><path id="c" d="M.25-.64062.73438-.875c.01562.53125.23437.95313.67187.95313.54688 0 .79688-.34375.92188-.54688l-.04688-.125c-.4375.39063-.64062.40625-.8125.40625-.20312 0-.29687-.125-.29687-.375 0-.10937.0625-.5.10937-.67187C1.73438-1.60937 3.26563-3 3.26563-4.15625c0-.21875-.09375-.42187-.375-.42187-1.125 0-2.01563 2.17187-2.15625 3.4375l-.40625.28124Zm1.125-.90625c.17188-.51563.42188-1.42188.82813-2.09375.20312-.34375.46875-.6875.65625-.6875.10937 0 .14062.125.14062.26562 0 .98438-1.0625 1.96875-1.625 2.51563m0 0"/></defs><path fill="none" stroke="#007F7F" stroke-miterlimit="10" stroke-width=".39514" d="M11.17187 42.35938h105.40625"/><path fill="none" stroke="#FF7F00" stroke-miterlimit="10" stroke-width=".39514" d="M11.17187 7.22266v35.13672"/><path fill="none" stroke="red" stroke-miterlimit="10" stroke-width=".39514" d="m116.57812 42.35938 14.05078-7.02735"/><use xlink:href="#a" x="62.09837" y="48.97781" fill="#007F7F"/><use xlink:href="#b" x="4.61484" y="26.90934" fill="#FF7F00"/><use xlink:href="#c" x="131.47881" y="41.10273" fill="red"/><path fill="none" stroke="#000" stroke-miterlimit="10" stroke-width=".39514" d="M116.57812 42.35938V7.22266H11.17187"/><path fill="none" stroke="#000" stroke-miterlimit="10" stroke-width=".39514" d="M130.6328 35.33203 130.6289.19532H25.22656L11.17187 7.22266m105.40625 0L130.6289.19532"/><path fill="none" stroke="#000" stroke-dasharray="2.9636341631 2.9636341631" stroke-miterlimit="10" stroke-width=".39514" d="m11.17187 42.35938 14.0547-7.02735H130.6289m-105.40234 0V.19532"/></svg>