<svg xmlns="http://www.w3.org/2000/svg" xmlns:xlink="http://www.w3.org/1999/xlink" width="113.784pt" height="113.784pt" viewBox="0 0 113.784 113.784"><defs><clipPath id="a"><path d="M0 0h113.57031v113.57031H0Zm0 0"/></clipPath><clipPath id="b"><path d="M0 51h113.57031v29H0Zm0 0"/></clipPath><clipPath id="c"><path d="M0 34h113.57031v29H0Zm0 0"/></clipPath><clipPath id="f"><path d="M56 56h57.57031v1H56Zm0 0"/></clipPath><path id="d" d="m2.70313-2.03125.78125.78125 3.23437-3.26562L9.98438-1.25l.75-.78125L7.5-5.26562l3.23438-3.26563-.75-.75-3.26563 3.23438-3.23437-3.23438-.78125.75 3.26562 3.26563Zm0 0"/><path id="e" d="M.51563-2.5c0 1.5625.9375 2.64063 2.79687 2.64063 1.67188 0 2.5-.84375 3-1.76563.5-.92187.57813-1.82812.57813-2.26562 0-1.90625-1.17188-2.71875-2.73438-2.71875-1.57812 0-2.5.85937-3.03125 1.78125C.60938-3.92187.51563-3.04687.51563-2.5m1.25.51563c0-.76563.15624-1.75.5625-2.67188C2.75-5.53125 3.375-6.23437 4.25-6.23437c.9375 0 1.42188.625 1.42188 1.71875 0 .67187-.10938 1.54687-.46875 2.46875-.39063 1-1 1.8125-2 1.8125-.92188 0-1.4375-.59375-1.4375-1.75m0 0"/><path id="g" d="M1 .10938 2.03125 0c.15625-.60937.32813-1.35937.48438-1.95312.3125-1.125.71875-1.85938 1.04687-1.85938.29688 0 .39063.28125.71875.28125.29688 0 .53125-.35937.53125-.6875 0-.29687-.15625-.46875-.48437-.46875-.54688 0-1.17188.5625-1.67188 1.5l.375-1.45312-.04687-.04688-1.76563.25-.0625.28125.54688.04688c.14062 0 .1875.07812.1875.1875q0 .09375-.04688.23437Zm0 0"/></defs><g clip-path="url(#a)"><path fill="none" stroke="#000" stroke-miterlimit="10" stroke-width=".39775" d="M113.37108 56.78516c0-31.2539-25.33593-56.58593-56.58592-56.58593C25.53126.19923.19923 25.53126.19923 56.78516c0 31.24999 25.33203 56.58592 56.58593 56.58592 31.24999 0 56.58592-25.33593 56.58592-56.58592Zm0 0"/></g><g clip-path="url(#b)"><path fill="none" stroke="#000" stroke-miterlimit="10" stroke-width=".39775" d="M.19923 56.78516c0 9.375 25.33203 16.97655 56.58593 16.97655 31.24999 0 56.58592-7.60156 56.58592-16.97655"/></g><g clip-path="url(#c)"><path fill="none" stroke="#000" stroke-dasharray="2.9831811113000004 2.9831811113000004" stroke-miterlimit="10" stroke-width=".39775" d="M113.37108 56.78516c0-9.375-25.33593-16.97656-56.58592-16.97656-31.2539 0-56.58593 7.60156-56.58593 16.97656"/></g><use xlink:href="#d" x="50.06197" y="61.42739" fill="#FF7F00"/><use xlink:href="#e" x="42.69794" y="64.76406" fill="#FF7F00"/><g clip-path="url(#f)"><path fill="none" stroke="#007F7F" stroke-dasharray="2.9831811113000004 2.9831811113000004" stroke-miterlimit="10" stroke-width=".39775" d="M56.78516 56.78516h56.58592"/></g><use xlink:href="#g" x="82.67106" y="55.30701" fill="#007F7F"/></svg>