<svg xmlns="http://www.w3.org/2000/svg" xmlns:xlink="http://www.w3.org/1999/xlink" width="127.958pt" height="112.651pt" viewBox="0 0 127.958 112.651"><defs><clipPath id="a"><path d="M.17578 0h127.5625v42H.17578Zm0 0"/></clipPath><clipPath id="b"><path d="M.17578 88h127.5625v24.30469H.17578Zm0 0"/></clipPath><clipPath id="c"><path d="M.17578 70h127.5625v30H.17578Zm0 0"/></clipPath><clipPath id="d"><path d="M63 94h64.73828v1H63Zm0 0"/></clipPath><clipPath id="e"><path d="M63 17h64.73828v2H63Zm0 0"/></clipPath><clipPath id="h"><path d="M.17578 17H1v78H.17578Zm0 0"/></clipPath><clipPath id="i"><path d="M127 17h.73828v78H127Zm0 0"/></clipPath><path id="f" d="M1.10938.125 2.28125 0c.17188-.6875.35938-1.53125.54688-2.1875.35937-1.28125.8125-2.09375 1.1875-2.09375.32812 0 .4375.29688.79687.29688.34375 0 .59375-.39063.59375-.76563 0-.32812-.17187-.51562-.54687-.51562-.60938 0-1.3125.625-1.85938 1.6875l.40625-1.64063-.04687-.04687-2 .28125-.0625.29687.625.0625c.14062.01563.21874.09375.21874.21875 0 .0625-.03125.15625-.0625.26563Zm0 0"/><path id="g" d="M1 .125 1.92188 0c.28124-1.07812.4375-1.65625.70312-2.3125.3125-.8125 1.35938-2.40625 2.26563-2.40625.25 0 .375.15625.375.42188 0 .09375 0 .20312-.03125.3125L4.375-1q-.09375.28125-.09375.51563c0 .39062.20313.60937.64063.60937.71875 0 1.3125-.71875 1.67187-1.51562l-.26562-.14063c-.1875.375-.65625 1.10938-.9375 1.10938-.125 0-.17188-.07813-.17188-.20313 0-.09375.01563-.21875.0625-.375l.82813-2.75c.07812-.25.10937-.46875.10937-.6875 0-.48437-.23437-.82812-.82812-.82812-1 0-2.125 1.07812-2.79688 2.34375H2.5625L3.75-7.73437l-.0625-.04688-1.89062.23438-.0625.25.59375.0625c.1875.03125.26562.0625.26562.21875 0 .07812-.01562.17187-.04687.29687Zm0 0"/></defs><path fill="none" stroke="red" stroke-miterlimit="10" stroke-width=".39727" d="M63.9415 94.2969V84.125h10.17188v10.1719H63.9415m0-76.29301h10.17188v10.17578H63.9415V18.0039"/><g clip-path="url(#a)"><path fill="none" stroke="#000" stroke-miterlimit="10" stroke-width=".39727" d="M127.5431 17.99998c0-9.83204-28.46486-17.80079-63.58207-17.80079C28.84383.19919.37506 8.16794.37506 17.99998s28.46877 17.8047 63.58597 17.8047 63.58207-7.97266 63.58207-17.8047Zm0 0"/></g><g clip-path="url(#b)"><path fill="none" stroke="#000" stroke-miterlimit="10" stroke-width=".39727" d="M.37506 94.3008c0 9.83204 28.46877 17.8047 63.58597 17.8047s63.58207-7.97266 63.58207-17.8047"/></g><g clip-path="url(#c)"><path fill="none" stroke="#000" stroke-dasharray="2.9795945153 2.9795945153" stroke-miterlimit="10" stroke-width=".39727" d="M127.5431 94.3008c0-9.83204-28.46486-17.8047-63.58207-17.8047-35.1172 0-63.58597 7.97266-63.58597 17.8047"/></g><g clip-path="url(#d)"><path fill="none" stroke="#007F7F" stroke-dasharray="2.9795945153 2.9795945153" stroke-miterlimit="10" stroke-width=".39727" d="M63.9415 94.2969h63.57425"/></g><g clip-path="url(#e)"><path fill="none" stroke="#007F7F" stroke-dasharray="2.9795945153 2.9795945153" stroke-miterlimit="10" stroke-width=".39727" d="M63.9415 18.00389h63.57425"/></g><path fill="none" stroke="#FF7F00" stroke-dasharray="2.9795945153 2.9795945153" stroke-miterlimit="10" stroke-width=".39727" d="M63.9415 94.2969V18.00388"/><use xlink:href="#f" x="96.86013" y="15.07131" fill="#007F7F"/><use xlink:href="#g" x="55.27098" y="59.98416" fill="#FF7F00"/><g clip-path="url(#h)"><path fill="none" stroke="#000" stroke-miterlimit="10" stroke-width=".39727" d="M.37506 17.99998V94.3008"/></g><g clip-path="url(#i)"><path fill="none" stroke="#000" stroke-miterlimit="10" stroke-width=".39727" d="M127.5431 17.99998V94.3008"/></g></svg>