<svg xmlns="http://www.w3.org/2000/svg" xmlns:xlink="http://www.w3.org/1999/xlink" width="134.397pt" height="152.918pt" viewBox="0 0 134.397 152.918"><defs><clipPath id="a"><path d="M0 115h133.79688v27H0Zm0 0"/></clipPath><clipPath id="b"><path d="M0 130h133.79688v22.53516H0Zm0 0"/></clipPath><clipPath id="c"><path d="M66 .30078h2V137h-2Zm0 0"/></clipPath><clipPath id="e"><path d="M66 135h67.79688v2H66Zm0 0"/></clipPath><clipPath id="g"><path d="M0 .30078h133.79688V142H0Zm0 0"/></clipPath><path id="d" d="M.89063.10938 1.70313 0c.25-.95312.39062-1.46875.625-2.04687.28125-.73438 1.20312-2.15625 2.01562-2.15625.21875 0 .34375.15625.34375.39062 0 .07813-.01562.17188-.04687.26563L3.875-.89062c-.04687.17187-.07812.32812-.07812.45312 0 .34375.1875.54688.5625.54688.65625 0 1.17187-.64063 1.5-1.34375l-.23438-.125c-.17187.32812-.57812.98437-.84375.98437-.10937 0-.14062-.07812-.14062-.1875q0-.11718.04687-.32812l.73438-2.4375c.07812-.21875.10937-.42188.10937-.60938 0-.4375-.21875-.75-.75-.75-.875 0-1.89062.96875-2.48437 2.09375h-.01563L3.32813-6.875l-.04688-.04687-1.6875.21875-.0625.21875.54688.0625c.15625.01562.21875.04687.21875.1875 0 .07812 0 .15625-.03125.26562Zm0 0"/><path id="f" d="M.98438.10938 2.03125 0c.15625-.60937.3125-1.35937.48438-1.9375.3125-1.14062.71875-1.85937 1.04687-1.85937.29688 0 .39063.26562.71875.26562.29688 0 .51563-.35937.51563-.6875 0-.29687-.14063-.46875-.48438-.46875-.54687 0-1.17187.5625-1.65625 1.51563l.375-1.46875-.04687-.04688-1.78125.26563-.04688.26562.54688.04688q.1875.02343.1875.1875 0 .09375-.04688.23437Zm0 0"/></defs><path fill="none" stroke="red" stroke-miterlimit="10" stroke-width=".39672" d="M67.02341 135.95313v-9.02735h9.03125v9.02735h-9.03125"/><g clip-path="url(#a)"><path fill="none" stroke="#000" stroke-dasharray="2.9754699299 2.9754699299" stroke-miterlimit="10" stroke-width=".39672" d="M.19922 135.95313c6.49609-9.82031 41.62108-16.3789 78.46091-14.64844 28.03515 1.3164 49.99608 7.17578 54.93748 14.64844"/></g><g clip-path="url(#b)"><path fill="none" stroke="#000" stroke-miterlimit="10" stroke-width=".39672" d="M.19922 135.95313c6.49609 9.82421 41.62108 16.3828 78.46091 14.65233 28.03515-1.3164 49.99608-7.17577 54.93748-14.65233"/></g><g clip-path="url(#c)"><path fill="none" stroke="#FF7F00" stroke-dasharray="2.9754699299 2.9754699299" stroke-miterlimit="10" stroke-width=".39672" d="M66.89841.49614v135.45699"/></g><use xlink:href="#d" x="68.26173" y="71.62867" fill="#FF7F00"/><g clip-path="url(#e)"><path fill="none" stroke="#007F7F" stroke-dasharray="2.9754699299 2.9754699299" stroke-miterlimit="10" stroke-width=".39672" d="M66.89841 135.95313h66.6992"/></g><use xlink:href="#f" x="97.84798" y="134.48266" fill="#007F7F"/><g clip-path="url(#g)"><path fill="none" stroke="#000" stroke-miterlimit="10" stroke-width=".39672" d="M.19922 135.95313 66.89842.49613l66.6992 135.457"/></g></svg>