<svg xmlns="http://www.w3.org/2000/svg" xmlns:xlink="http://www.w3.org/1999/xlink" width="119.453pt" height="139.814pt" viewBox="0 0 119.453 139.814"><defs><path id="e" d="M2.01563 0h6.14062v-.53125L6.57813-.67187c-.39063-.04688-.60938-.1875-.60938-.92188v-10.98437l-.09375-.09375-3.85937.65625v.45312l1.75.21875c.3125.04688.4375.1875.4375.71875v9.03125c0 .73438-.17188.875-.60938.92188l-1.57812.14062Zm0 0"/><path id="f" d="m.95313 2.28125.35937.35938c.92188-.875 2.28125-2.125 2.28125-3.59375 0-.98438-.54687-1.6875-1.25-1.6875-.57812 0-.9375.45312-.9375.9375 0 .67187.60938 1.03125.60938 1.82812 0 .76563-.46875 1.5-1.0625 2.15625m0 0"/><path id="g" d="M.75-1.90625c0 .85938 1.3125 2.125 3.73438 2.125C7.54688.21875 8.9375-1.64062 8.9375-4c0-2.625-1.625-3.95312-3.84375-3.95312-1.03125 0-2.15625.45312-2.75 1L2.75-10.48437c.0625-.48438.1875-.54688.54688-.54688H7.9375l.45313-1.26562-.10938-.15625H2.0625l-.17187.17187L1.5-6.04687l.46875.23437C2.73438-6.70312 3.48438-7.14062 4.5-7.14062c1.1875 0 2.5.875 2.5 3.32812 0 1.92188-.78125 3.375-2.40625 3.375-1.29687 0-1.95312-.9375-2.32812-2-.10938-.28125-.28125-.45312-.54688-.45312-.375 0-.96875.375-.96875.98437m0 0"/><path id="h" d="M.90625-4.48437C.90625-1.375 2.4375.21875 5.23438.21875c1.3125 0 3.07812-.67187 3.59375-2.67187l-.5625-.26563C7.6875-1.40625 6.95313-.75 5.59375-.75 3.375-.75 2.85938-3.07812 2.85938-4.8125c0-2.78125 1.09375-3.89062 2.375-3.89062.85937 0 1.39062.60937 1.76562 1.625.125.29687.23438.46875.59375.46875.375 0 1.09375-.23438 1.09375-.9375 0-.85938-1.23437-1.8125-3.25-1.8125-3.39062 0-4.53125 2.40625-4.53125 4.875m0 0"/><path id="i" d="M.59375 0h4.54688v-.53125C3.8125-.64062 3.75-.67187 3.75-1.625v-4.35937c0-.48438 0-.73438.14063-1 .35937-.75 1.17187-1.35938 2.20312-1.35938 1.59375 0 1.79688 1.17188 1.79688 2.3125V-1.625c0 .95313-.0625.98438-1.40625 1.09375V0h4.54687v-.53125C9.70313-.64062 9.64063-.67187 9.64063-1.625v-4.35937c0-.48438.01562-.71875.14062-1.01563.26563-.75 1.0625-1.34375 2.10938-1.34375 1.17187 0 1.89062.65625 1.89062 2.3125V-1.625c0 .95313-.0625.98438-1.40625 1.09375V0h4.5625v-.53125c-1.32812-.10937-1.40625-.14062-1.40625-1.09375v-4.76562c0-1.875-1.01562-2.96875-2.78125-2.96875-1.53125 0-2.625 1.01562-3.26562 1.42187C9.01563-8.79687 8.3125-9.35937 7-9.35937c-1.42187 0-2.59375.95312-3.25 1.42187l-.1875-1.42187-2.875.46875v.46875l.70313.09375C1.85938-8.25 2-8.17187 2-7.5v5.875C2-.67187 1.9375-.64062.59375-.53125Zm0 0"/><clipPath id="a"><path d="M0 .22656h118.91016V108H0Zm0 0"/></clipPath><clipPath id="b"><path d="M79 .22656h39.91016V23H79Zm0 0"/></clipPath><clipPath id="c"><path d="M0 79h118.91016v29H0Zm0 0"/></clipPath><clipPath id="d"><path d="M33 .22656h2V86h-2Zm0 0"/></clipPath></defs><path fill="none" stroke="#000" stroke-miterlimit="10" stroke-width=".39668" d="M.19922 102.00781h84.65237V17.35544H.19922Zm0 0"/><g clip-path="url(#a)"><path fill="none" stroke="#000" stroke-miterlimit="10" stroke-width=".39668" d="m84.8516 102.00781 33.85938-16.9297V.42576H34.0586L.1992 17.35544"/></g><g clip-path="url(#b)"><path fill="none" stroke="#000" stroke-miterlimit="10" stroke-width=".39668" d="M84.8516 17.35544 118.71097.42574"/></g><g clip-path="url(#c)"><path fill="none" stroke="#000" stroke-dasharray="2.9752009352 2.9752009352" stroke-miterlimit="10" stroke-width=".39668" d="m.19922 102.00781 33.85939-16.9297h84.65237"/></g><g clip-path="url(#d)"><path fill="none" stroke="#000" stroke-dasharray="2.9752009352 2.9752009352" stroke-miterlimit="10" stroke-width=".39668" d="M34.0586 85.07812V.42575"/></g><path fill="none" stroke="#000" stroke-miterlimit="10" stroke-width=".39668" d="M4.76172 110.47266H80.2891"/><path stroke="#000" stroke-miterlimit="10" stroke-width=".39668" d="M.9375 110.47266c.47266.125 2.53516.83984 3.82422 1.61718v-3.23437c-1.28906.77734-3.35156 1.49219-3.82422 1.61719Zm83.17188 0c-.46875-.125-2.53126-.83985-3.82032-1.6172v3.23438c1.28906-.77734 3.35157-1.49218 3.82032-1.61718Zm0 0"/><use xlink:href="#e" x="13.76298" y="130.15412"/><use xlink:href="#f" x="23.64053" y="130.15412"/><use xlink:href="#g" x="30.78094" y="130.15412"/><use xlink:href="#h" x="44.84664" y="130.15412"/><use xlink:href="#i" x="54.08949" y="130.15412"/></svg>