<svg xmlns="http://www.w3.org/2000/svg" xmlns:xlink="http://www.w3.org/1999/xlink" width="160.556pt" height="127.957pt" viewBox="0 0 160.556 127.957"><defs><clipPath id="a"><path d="M18 14h114v113.75781H18Zm0 0"/></clipPath><clipPath id="b"><path d="M12 8h126v119.75781H12Zm0 0"/></clipPath><clipPath id="c"><path d="M4 .15625h156V43H4Zm0 0"/></clipPath><clipPath id="d"><path d="M0 .15625h160.11328V49H0Zm0 0"/></clipPath><clipPath id="e"><path d="M12 8h126v119.75781H12Zm0 0"/></clipPath><clipPath id="f"><path d="M38 14h74v15H38Zm0 0"/></clipPath><clipPath id="g"><path d="M131.64844 71.02344c0-31.22266-25.3125-56.53516-56.53906-56.53516S18.5703 39.80078 18.5703 71.02344c0 31.22656 25.3125 56.53906 56.53907 56.53906 31.22656 0 56.53906-25.3125 56.53906-56.53906m0 0"/></clipPath><clipPath id="h"><path d="M32 14h86v21H32Zm0 0"/></clipPath><clipPath id="i"><path d="M131.64844 71.02344c0-31.22266-25.3125-56.53516-56.53906-56.53516S18.5703 39.80078 18.5703 71.02344c0 31.22656 25.3125 56.53906 56.53907 56.53906 31.22656 0 56.53906-25.3125 56.53906-56.53906m0 0"/></clipPath><clipPath id="j"><path d="M38 28h74v18H38Zm0 0"/></clipPath><clipPath id="k"><path d="M131.64844 71.02344c0-31.22266-25.3125-56.53516-56.53906-56.53516S18.5703 39.80078 18.5703 71.02344c0 31.22656 25.3125 56.53906 56.53907 56.53906 31.22656 0 56.53906-25.3125 56.53906-56.53906m0 0"/></clipPath><clipPath id="l"><path d="M32 23h86v29H32Zm0 0"/></clipPath><clipPath id="m"><path d="M131.64844 71.02344c0-31.22266-25.3125-56.53516-56.53906-56.53516S18.5703 39.80078 18.5703 71.02344c0 31.22656 25.3125 56.53906 56.53907 56.53906 31.22656 0 56.53906-25.3125 56.53906-56.53906m0 0"/></clipPath><clipPath id="n"><path d="M12 8h126v119.75781H12Zm0 0"/></clipPath><path id="o" d="m2.70313-2.03125.78125.78125 3.23437-3.26562L9.98438-1.25l.75-.78125L7.5-5.26562l3.23438-3.26563-.75-.75-3.26563 3.23438-3.23437-3.23438-.78125.75 3.26562 3.26563Zm0 0"/><path id="p" d="M.51563-2.5c0 1.5625.9375 2.64063 2.79687 2.64063 1.67188 0 2.5-.84375 3-1.76563.5-.92187.57813-1.82812.57813-2.26562 0-1.90625-1.17188-2.71875-2.73438-2.71875-1.57812 0-2.5.85937-3.03125 1.78125C.60938-3.92187.51563-3.04687.51563-2.5m1.25.51563c0-.76563.15624-1.75.5625-2.67188C2.75-5.53125 3.375-6.23437 4.25-6.23437c.9375 0 1.42188.625 1.42188 1.71875 0 .67187-.10938 1.54687-.46875 2.46875-.39063 1-1 1.8125-2 1.8125-.92188 0-1.4375-.59375-1.4375-1.75m0 0"/><path id="q" d="M-.1875 0h2.14063l.0625-.3125L1.5-.34375C1.375-.35937 1.32813-.42187 1.32813-.5c0-.0625.01562-.125.04687-.20312.29688-.54688.5625-1.10938.89063-1.70313h2l.1875 1.79688s-.03125.23437-.23438.26562l-.48437.03125L3.65625 0H6.1875L6.25-.3125l-.35937-.03125c-.29688-.03125-.3125-.25-.35938-.57812l-.625-5.53125h-.875L2.4375-3.65625C1.92188-2.75 1.15625-1.375.84375-.875c-.25.40625-.39062.5-.6875.53125L-.125-.3125Zm2.65625-2.79687 1.45313-2.625.29687 2.625Zm0 0"/><path id="r" d="M.09375 0h2.9375c2.10938 0 2.82813-.85937 2.82813-1.89062 0-.98438-.75-1.42188-1.42188-1.54688v-.01562c1.23438-.14063 1.78125-.82813 1.78125-1.5625 0-.78125-.46875-1.4375-2.28125-1.4375H1.46875l-.0625.29687.51563.04688c.15624.01562.21874.07812.21874.21875 0 .07812-.01562.17187-.03125.26562L1.03126-.82812C.96875-.51562.875-.39062.625-.35937L.15625-.3125Zm2.07813-.75c0-.07812.01562-.14062.03125-.21875l.51562-2.29687h.375c.85938 0 1.5.32812 1.5 1.25 0 .85937-.48437 1.64062-1.67187 1.64062-.59375 0-.75-.14062-.75-.375m.625-2.89062L3.26563-5.75c.07812-.28125.125-.34375.65625-.34375.6875 0 1.10937.34375 1.10937 1 0 .92188-.67187 1.45313-1.71875 1.45313Zm0 0"/></defs><g clip-path="url(#a)"><path fill="#B2D9D9" d="M131.64844 71.02344c0-31.22266-25.3125-56.53516-56.53906-56.53516S18.5703 39.80078 18.5703 71.02344c0 31.22656 25.3125 56.53906 56.53907 56.53906 31.22656 0 56.53906-25.3125 56.53906-56.53906m0 0"/></g><g clip-path="url(#b)"><path fill="none" stroke="#B2D9D9" stroke-miterlimit="10" stroke-width=".3974" d="M131.64842 71.02344c0-31.22265-25.31249-56.53515-56.53905-56.53515-31.22655 0-56.53904 25.3125-56.53904 56.53515 0 31.22655 25.31249 56.53905 56.53904 56.53905s56.53905-25.3125 56.53905-56.53905Zm0 0"/></g><path fill="none" stroke="#000" stroke-miterlimit="10" stroke-width=".3974" d="M18.57033 71.02344c0 9.36718 25.31249 16.96093 56.53904 16.96093s56.53905-7.59375 56.53905-16.96093"/><g clip-path="url(#c)"><path fill="#FFD9B2" d="M4.4375 42.7539h141.34375L159.91406.35157H18.57031Zm0 0"/></g><g clip-path="url(#d)"><path fill="none" stroke="#FFD9B2" stroke-miterlimit="10" stroke-width=".3974" d="M4.43752 42.75391h141.34371L159.91404.35158H18.57033Zm0 0"/></g><path fill="#FFD9B2" stroke="#FFD9B2" stroke-miterlimit="10" stroke-width=".3974" d="M.19924 56.89063h141.3398l4.2422-14.13672H4.43751Zm0 0"/><path fill="none" stroke="#000" stroke-dasharray="2.9805808292 2.9805808292" stroke-miterlimit="10" stroke-width=".3974" d="M131.64842 71.02344c0-9.36719-25.31249-16.96094-56.53905-16.96094-31.22655 0-56.53904 7.59375-56.53904 16.96094"/><g clip-path="url(#e)"><path fill="none" stroke="#000" stroke-dasharray="2.9805808292 2.9805808292" stroke-miterlimit="10" stroke-width=".3974" d="M131.64842 71.02344c0-31.22265-25.31249-56.53515-56.53905-56.53515-31.22655 0-56.53904 25.3125-56.53904 56.53515 0 31.22655 25.31249 56.53905 56.53904 56.53905s56.53905-25.3125 56.53905-56.53905Zm0 0"/></g><g clip-path="url(#f)"><g clip-path="url(#g)"><path fill="#B2D9D9" d="M111.85938 28.6211c0-9.3672-16.45313-16.96094-36.75-16.96094-20.29688 0-36.75 7.59375-36.75 16.96093"/></g></g><g clip-path="url(#h)"><g clip-path="url(#i)"><path fill="none" stroke="#B2D9D9" stroke-miterlimit="10" stroke-width=".3974" d="M111.85937 28.6211c0-9.36718-16.45312-16.96093-36.75-16.96093-20.29687 0-36.74999 7.59375-36.74999 16.96093"/></g></g><g clip-path="url(#j)"><g clip-path="url(#k)"><path fill="#B2D9D9" d="M38.35938 28.6211c0 9.36718 16.45312 16.96093 36.75 16.96093 20.29687 0 36.75-7.59375 36.75-16.96094"/></g></g><g clip-path="url(#l)"><g clip-path="url(#m)"><path fill="none" stroke="#B2D9D9" stroke-miterlimit="10" stroke-width=".3974" d="M38.35938 28.6211c0 9.36719 16.45312 16.96094 36.75 16.96094 20.29687 0 36.74999-7.59375 36.74999-16.96094"/></g></g><path fill="none" stroke="red" stroke-miterlimit="10" stroke-width=".3974" d="M38.35938 28.6211c0 9.36719 16.45312 16.96094 36.75 16.96094 20.29687 0 36.74999-7.59375 36.74999-16.96094"/><g clip-path="url(#n)"><path fill="none" stroke="#000" stroke-miterlimit="10" stroke-width=".3974" d="M131.64842 71.02344c0-31.22265-25.31249-56.53515-56.53905-56.53515-31.22655 0-56.53904 25.3125-56.53904 56.53515 0 31.22655 25.31249 56.53905 56.53904 56.53905s56.53905-25.3125 56.53905-56.53905Zm0 0"/></g><use xlink:href="#o" x="68.39287" y="75.66319"/><use xlink:href="#p" x="82.12988" y="78.99697"/><use xlink:href="#o" x="68.39287" y="33.26145"/><use xlink:href="#q" x="82.12988" y="37.50471"/><use xlink:href="#o" x="31.64449" y="33.26145"/><use xlink:href="#r" x="25.12053" y="26.19598"/><path fill="none" stroke="#000" stroke-dasharray="2.9805808292 2.9805808292" stroke-miterlimit="10" stroke-width=".3974" d="M75.10937 71.02344V28.6211H38.35938Zm0 0"/></svg>