<svg xmlns="http://www.w3.org/2000/svg" xmlns:xlink="http://www.w3.org/1999/xlink" width="77.784pt" height="90.948pt" viewBox="0 0 77.784 90.948"><defs><path id="e" d="M1.3125 0h4v-.34375L4.29688-.4375c-.26563-.03125-.40625-.125-.40625-.59375V-8.1875l-.0625-.0625-2.51563.42188v.29687l1.14063.14063c.20312.03125.28125.10937.28125.46875v5.89062c0 .46875-.10938.5625-.39063.59375L1.3125-.34375Zm0 0"/><path id="f" d="m.625 1.48438.23438.23437c.59375-.5625 1.48437-1.375 1.48437-2.34375 0-.64062-.35937-1.09375-.8125-1.09375-.375 0-.60937.29688-.60937.60938 0 .4375.39062.67187.39062 1.1875 0 .5-.29687.98437-.6875 1.40625m0 0"/><path id="g" d="M.48438-1.23437c0 .54687.85937 1.375 2.4375 1.375 2 0 2.90625-1.21875 2.90625-2.75 0-1.70313-1.0625-2.57813-2.5-2.57813-.67188 0-1.42188.29688-1.79688.65625l.26563-2.29687c.03124-.3125.10937-.35938.34375-.35938h3.03125l.29687-.82812-.0625-.09375h-4.0625L1.23438-8l-.25 4.0625.29687.15625c.5-.59375 1-.875 1.65625-.875.76563 0 1.625.57813 1.625 2.17188 0 1.25-.5 2.20312-1.5625 2.20312-.85937 0-1.28125-.60937-1.53125-1.3125-.0625-.17187-.17187-.29687-.34375-.29687-.25 0-.64062.25-.64062.65625m0 0"/><path id="h" d="M.59375-2.92187c0 2.03125 1 3.0625 2.8125 3.0625.85938 0 2.01563-.4375 2.34375-1.75l-.35937-.15626c-.375.84376-.85938 1.28126-1.75 1.28126-1.4375 0-1.78125-1.51563-1.78125-2.65625 0-1.8125.71875-2.53125 1.54687-2.53125.5625 0 .90625.40625 1.15625 1.0625.07813.1875.15625.3125.39063.3125s.70312-.15625.70312-.625c0-.5625-.79687-1.17188-2.10937-1.17188-2.21875 0-2.95313 1.5625-2.95313 3.17188m0 0"/><path id="i" d="M.39063 0h2.95312v-.34375c-.85937-.0625-.90625-.09375-.90625-.71875v-2.84375c0-.3125 0-.46875.09375-.64062.23438-.5.76563-.89063 1.4375-.89063 1.04688 0 1.17188.76563 1.17188 1.51563v2.85937c0 .625-.03125.65625-.92188.71875V0H7.1875v-.34375c-.875-.0625-.90625-.09375-.90625-.71875v-2.84375c0-.3125.01563-.46875.09375-.65625.17188-.48437.6875-.875 1.375-.875.76563 0 1.23438.42188 1.23438 1.51563v2.85937c0 .625-.04688.65625-.92188.71875V0h2.96875v-.34375c-.85937-.0625-.90625-.09375-.90625-.71875v-3.09375c0-1.23437-.67187-1.9375-1.8125-1.9375-1 0-1.70312.65625-2.14062.92188-.29688-.5625-.75-.92188-1.60938-.92188-.9375 0-1.6875.60938-2.125.92188l-.10937-.92188-1.875.3125v.29688l.45312.0625c.3125.04687.40625.09375.40625.53125v3.82812c0 .625-.04687.65625-.92187.71875Zm0 0"/><clipPath id="a"><path d="M0 .10156h77.57031V73H0Zm0 0"/></clipPath><clipPath id="b"><path d="M49 .10156h28.57031V17H49Zm0 0"/></clipPath><clipPath id="c"><path d="M0 49h77.57031v24H0Zm0 0"/></clipPath><clipPath id="d"><path d="M22 .10156h1V56h-1Zm0 0"/></clipPath></defs><path fill="none" stroke="#000" stroke-miterlimit="10" stroke-width=".3974" d="M.19922 66.44531h55.1211V11.3203H.19923Zm0 0"/><g clip-path="url(#a)"><path fill="none" stroke="#000" stroke-miterlimit="10" stroke-width=".3974" d="M55.32033 66.44531 77.3711 55.42187V.29686h-55.125L.19922 11.3203"/></g><g clip-path="url(#b)"><path fill="none" stroke="#000" stroke-miterlimit="10" stroke-width=".3974" d="M55.32033 11.3203 77.3711.29686"/></g><g clip-path="url(#c)"><path fill="none" stroke="#000" stroke-dasharray="2.9805509409 2.9805509409" stroke-miterlimit="10" stroke-width=".3974" d="M.19922 66.44531 22.2461 55.42187h55.125"/></g><g clip-path="url(#d)"><path fill="none" stroke="#000" stroke-dasharray="2.9805509409 2.9805509409" stroke-miterlimit="10" stroke-width=".3974" d="M22.2461 55.42187V.29686"/></g><path fill="none" stroke="#000" stroke-miterlimit="10" stroke-width=".3974" d="M4.76953 71.95703h45.98048"/><path stroke="#000" stroke-miterlimit="10" stroke-width=".3974" d="M.9414 71.95703c.46876.125 2.53516.84375 3.82813 1.6211v-3.2422c-1.29297.77735-3.35937 1.4961-3.82813 1.6211Zm53.63673 0c-.46876-.125-2.53516-.84375-3.82813-1.6211v3.2422c1.29297-.77735 3.35937-1.4961 3.82813-1.6211Zm0 0"/><use xlink:href="#e" x="9.03192" y="84.77387"/><use xlink:href="#f" x="15.46387" y="84.77387"/><use xlink:href="#g" x="20.11348" y="84.77387"/><use xlink:href="#h" x="29.27132" y="84.77387"/><use xlink:href="#i" x="35.28997" y="84.77387"/></svg>