<svg xmlns="http://www.w3.org/2000/svg" xmlns:xlink="http://www.w3.org/1999/xlink" width="74.808pt" height="87.458pt" viewBox="0 0 74.808 87.458"><defs><clipPath id="a"><path d="M.13672 10H54v54H.13672Zm0 0"/></clipPath><clipPath id="b"><path d="M.13672 0h74.34375v70H.13672Zm0 0"/></clipPath><clipPath id="c"><path d="M47 0h27.48047v17H47Zm0 0"/></clipPath><clipPath id="d"><path d="M.13672 47h74.34375v23H.13672Zm0 0"/></clipPath><clipPath id="e"><path d="M.13672 61H11v16H.13672Zm0 0"/></clipPath><path id="f" d="M1.26563 0h3.82812v-.32812l-.98437-.09375c-.25-.03125-.39063-.10938-.39063-.5625v-6.85938l-.0625-.0625L1.26563-7.5v.28125l1.07812.14063c.20313.03125.28125.10937.28125.4375v5.65625c0 .45312-.10937.53125-.39062.5625l-.96875.09375Zm0 0"/><path id="g" d="m.59375 1.42188.21875.21874c.57813-.54687 1.42188-1.3125 1.42188-2.23437 0-.625-.32813-1.04687-.78125-1.04687-.35938 0-.57813.28124-.57813.57812 0 .42188.39063.64063.39063 1.14063 0 .48437-.29688.9375-.67188 1.34375m0 0"/><path id="h" d="M.46875-1.1875c0 .53125.8125 1.32813 2.32813 1.32813 1.92187 0 2.78125-1.17188 2.78125-2.64063 0-1.64062-1.01563-2.46875-2.39063-2.46875-.65625 0-1.35937.29688-1.73437.625l.26562-2.20312c.03125-.29688.10938-.32813.32813-.32813h2.90625l.28125-.79687-.0625-.09375H1.28125l-.10937.10937-.23438 3.875.28125.15625c.48438-.5625.95313-.82812 1.59375-.82812.73438 0 1.5625.54687 1.5625 2.07812 0 1.20313-.48437 2.10938-1.5 2.10938-.82812 0-1.23437-.59375-1.46875-1.25-.0625-.1875-.17187-.29688-.32812-.29688-.23438 0-.60938.23438-.60938.625m0 0"/><path id="i" d="M.5625-2.79687c0 1.9375.95313 2.9375 2.70313 2.9375.8125 0 1.92187-.42188 2.23437-1.67188l-.34375-.17187C4.79688-.875 4.34375-.46875 3.48438-.46875c-1.375 0-1.70313-1.45312-1.70313-2.53125 0-1.73437.6875-2.4375 1.48438-2.4375.53125 0 .875.39063 1.10937 1.01563.0625.1875.14063.29687.35938.29687.23437 0 .6875-.14062.6875-.59375 0-.53125-.76563-1.125-2.03125-1.125-2.10938 0-2.82813 1.5-2.82813 3.04688m0 0"/><path id="j" d="M.375 0h2.82813v-.32812c-.82813-.0625-.85938-.09375-.85938-.6875v-2.71875c0-.29688 0-.45313.07813-.625.21875-.46875.73437-.84375 1.375-.84375 1 0 1.125.71875 1.125 1.4375v2.75c0 .59375-.03125.625-.875.6875V0H6.875v-.32812c-.82812-.0625-.85937-.09375-.85937-.6875v-2.71875c0-.29688.01562-.45313.07812-.64063.1875-.46875.67188-.82812 1.32813-.82812.73437 0 1.17187.40625 1.17187 1.4375v2.75c0 .59375-.03125.625-.875.6875V0h2.84375v-.32812c-.82812-.0625-.875-.09375-.875-.6875v-2.96875c0-1.17188-.625-1.85938-1.73437-1.85938-.95313 0-1.625.64063-2.03125.89063C5.625-5.5 5.1875-5.84375 4.375-5.84375c-.89062 0-1.625.59375-2.03125.89063l-.10937-.89063-1.79688.29688v.28125l.42188.0625c.29687.0625.39062.10937.39062.53125v3.65625c0 .59375-.03125.625-.875.6875Zm0 0"/></defs><g clip-path="url(#a)"><path fill="none" stroke="#000" stroke-miterlimit="10" stroke-width=".39605" d="M.33203 63.58203h52.82422V10.76171H.33203Zm0 0"/></g><g clip-path="url(#b)"><path fill="none" stroke="#000" stroke-miterlimit="10" stroke-width=".39605" d="m53.15625 63.58203 21.12891-10.5625V.19531H21.46094L.33204 10.7617"/></g><g clip-path="url(#c)"><path fill="none" stroke="#000" stroke-miterlimit="10" stroke-width=".39605" d="M53.15625 10.76171 74.28516.19531"/></g><g clip-path="url(#d)"><path fill="none" stroke="#000" stroke-dasharray="2.9704188071999997 2.9704188071999997" stroke-miterlimit="10" stroke-width=".39605" d="m.33203 63.58203 21.1289-10.5625h52.82423"/></g><path fill="none" stroke="#000" stroke-dasharray="2.9704188071999997 2.9704188071999997" stroke-miterlimit="10" stroke-width=".39605" d="M21.46094 53.01953V.19531"/><path fill="none" stroke="#000" stroke-miterlimit="10" stroke-width=".39605" d="M4.88672 68.86719h43.71485"/><path d="M1.07422 68.86719c.46875.125 2.52734.83984 3.8125 1.61719V67.25c-1.28516.77734-3.34375 1.49219-3.8125 1.61719m0 0"/><g clip-path="url(#e)"><path fill="none" stroke="#000" stroke-miterlimit="10" stroke-width=".39605" d="M1.07422 68.86719c.46875.125 2.52734.83984 3.8125 1.61719V67.25c-1.28516.77734-3.34375 1.49219-3.8125 1.61719Zm0 0"/></g><path stroke="#000" stroke-miterlimit="10" stroke-width=".39605" d="M52.41406 68.86719c-.46484-.125-2.52734-.83985-3.8125-1.61719v3.23438c1.28516-.77735 3.34766-1.4922 3.8125-1.6172Zm0 0"/><use xlink:href="#f" x="8.79728" y="81.1481"/><use xlink:href="#g" x="14.96083" y="81.1481"/><use xlink:href="#h" x="19.41641" y="81.1481"/><use xlink:href="#i" x="28.19333" y="81.1481"/><use xlink:href="#j" x="33.96083" y="81.1481"/></svg>