<svg xmlns="http://www.w3.org/2000/svg" xmlns:xlink="http://www.w3.org/1999/xlink" width="71.265pt" height="62.761pt" viewBox="0 0 71.265 62.761"><defs><clipPath id="a"><path d="M0 .20313h70.53906V26H0Zm0 0"/></clipPath><clipPath id="b"><path d="M0 46h70.53906v16.32422H0Zm0 0"/></clipPath><clipPath id="c"><path d="M0 36h70.53906v22H0Zm0 0"/></clipPath><clipPath id="d"><path d="M35 52h35.53906v1H35Zm0 0"/></clipPath><clipPath id="e"><path d="M35 10h35.53906v1H35Zm0 0"/></clipPath><clipPath id="h"><path d="M70 10h.53906v43H70Zm0 0"/></clipPath><path id="f" d="M.60938.0625 1.25 0c.10938-.375.20313-.84375.3125-1.20312.1875-.70313.4375-1.15625.64063-1.15625.1875 0 .25.17187.45312.17187.1875 0 .32813-.21875.32813-.42187 0-.1875-.09375-.29688-.3125-.29688-.32813 0-.71875.34375-1.01563.9375L1.875-2.875l-.01562-.03125L.75-2.75l-.03125.17188.34375.03125c.07813 0 .10938.04687.10938.10937 0 .04688-.01563.09375-.03126.15625Zm0 0"/><path id="g" d="M.54688.0625 1.0625 0c.15625-.59375.23438-.90625.39063-1.28125.17187-.4375.73437-1.32812 1.25-1.32812.125 0 .20312.09375.20312.25 0 .04687 0 .09375-.03125.15625L2.40625-.54687c-.03125.09374-.04687.20312-.04687.28124 0 .20313.10937.32813.34375.32813.40625 0 .73437-.39062.92187-.82812l-.14062-.07813c-.09375.20313-.35938.60938-.51563.60938-.0625 0-.09375-.04688-.09375-.10938s.01563-.125.03125-.20312L3.375-2.0625q.04688-.21093.04688-.375c0-.28125-.125-.46875-.45313-.46875-.54687 0-1.17187.59375-1.54687 1.29688l.64062-2.65625-.03125-.03125-1.04687.14062-.03126.14063.32813.03125c.10938.01562.14063.03125.14063.125 0 .03125 0 .07812-.01563.15625Zm0 0"/></defs><path fill="none" stroke="red" stroke-miterlimit="10" stroke-width=".39443" d="M35.26957 52.3047v-5.60938h5.61328v5.60937h-5.61328m0-42.08595h5.61328v5.61329h-5.61328v-5.61329"/><g clip-path="url(#a)"><path fill="none" stroke="#000" stroke-miterlimit="10" stroke-width=".39443" d="M70.3438 10.21874c0-5.42187-15.70313-9.82031-35.07423-9.82031-19.3672 0-35.07033 4.39844-35.07033 9.82031 0 5.42579 15.70313 9.82032 35.07033 9.82032 19.3711 0 35.07423-4.39453 35.07423-9.82032Zm0 0"/></g><g clip-path="url(#b)"><path fill="none" stroke="#000" stroke-miterlimit="10" stroke-width=".39443" d="M.19924 52.3047c0 5.42578 15.70313 9.82031 35.07033 9.82031 19.3711 0 35.07423-4.39453 35.07423-9.82032"/></g><g clip-path="url(#c)"><path fill="none" stroke="#000" stroke-dasharray="2.9583140457 2.9583140457" stroke-miterlimit="10" stroke-width=".39443" d="M70.3438 52.3047c0-5.42188-15.70313-9.82032-35.07423-9.82032-19.3672 0-35.07033 4.39844-35.07033 9.82031"/></g><g clip-path="url(#d)"><path fill="none" stroke="#007F7F" stroke-dasharray="2.9583140457 2.9583140457" stroke-miterlimit="10" stroke-width=".39443" d="M35.26957 52.3047H70.3438"/></g><g clip-path="url(#e)"><path fill="none" stroke="#007F7F" stroke-dasharray="2.9583140457 2.9583140457" stroke-miterlimit="10" stroke-width=".39443" d="M35.26957 10.21874H70.3438"/></g><path fill="none" stroke="#FF7F00" stroke-dasharray="2.9583140457 2.9583140457" stroke-miterlimit="10" stroke-width=".39443" d="M35.26957 52.3047V10.21873"/><use xlink:href="#f" x="53.41708" y="8.60242" fill="#007F7F"/><use xlink:href="#g" x="30.47668" y="33.37592" fill="#FF7F00"/><path fill="none" stroke="#000" stroke-miterlimit="10" stroke-width=".39443" d="M.19924 10.21874V52.3047"/><g clip-path="url(#h)"><path fill="none" stroke="#000" stroke-miterlimit="10" stroke-width=".39443" d="M70.3438 10.21874V52.3047"/></g></svg>