<svg xmlns="http://www.w3.org/2000/svg" xmlns:xlink="http://www.w3.org/1999/xlink" width="113.786pt" height="100.179pt" viewBox="0 0 113.786 100.179"><defs><clipPath id="a"><path d="M.35547 0h112.86328v38H.35547Zm0 0"/></clipPath><clipPath id="b"><path d="M.35547 77h112.86328v22.36328H.35547Zm0 0"/></clipPath><clipPath id="c"><path d="M.35547 62h112.86328v28H.35547Zm0 0"/></clipPath><clipPath id="d"><path d="M56 83h57.21875v1H56Zm0 0"/></clipPath><clipPath id="e"><path d="M56 15h57.21875v2H56Zm0 0"/></clipPath><clipPath id="h"><path d="M.35547 15H1v69H.35547Zm0 0"/></clipPath><clipPath id="i"><path d="M112 15h1.21875v69H112Zm0 0"/></clipPath><path id="f" d="M.98438.10938 2.01563 0c.15625-.60937.32812-1.35937.48437-1.9375.3125-1.125.71875-1.84375 1.04688-1.84375.29687 0 .39062.26563.70312.26563.29688 0 .53125-.35938.53125-.6875 0-.29688-.15625-.45313-.48437-.45313-.54688 0-1.17188.5625-1.65625 1.5l.375-1.45312-.04688-.04688-1.76562.25-.0625.26563.5625.04687q.1875.02344.1875.1875c0 .0625-.03126.14063-.04688.25Zm0 0"/><path id="g" d="M.89063.10938 1.70313 0c.25-.95312.375-1.46875.625-2.04687.26562-.71875 1.1875-2.125 2-2.125.21875 0 .32812.14062.32812.375 0 .07812 0 .17187-.03125.26562L3.85938-.89062c-.04688.17187-.07813.32812-.07813.45312 0 .34375.17188.54688.5625.54688.64063 0 1.17188-.625 1.48438-1.32813l-.23438-.14062c-.15625.32812-.57812.98437-.82812.98437-.10938 0-.15625-.0625-.15625-.17187 0-.09376.01562-.20313.0625-.32813l.73437-2.4375Q5.5-3.64062 5.5-3.92187c0-.4375-.20312-.73438-.73437-.73438-.89063 0-1.875.95313-2.46875 2.0625h-.03125l1.04687-4.25-.04687-.04687-1.67188.21875-.0625.21875.53125.0625c.15625.01562.23438.04687.23438.1875 0 .07812-.01563.15625-.04688.26562Zm0 0"/></defs><path fill="none" stroke="red" stroke-miterlimit="10" stroke-width=".39526" d="M56.78901 83.42187v-8.9961h8.9961v8.9961H56.789m.00001-67.48045h8.9961v9H56.789v-9"/><g clip-path="url(#a)"><path fill="none" stroke="#000" stroke-miterlimit="10" stroke-width=".39526" d="M113.01947 15.94142c0-8.69531-25.17578-15.7461-56.23046-15.7461C25.73043.19533.55465 7.24612.55465 15.94143S25.73043 31.6875 56.78901 31.6875c31.05468 0 56.23046-7.05078 56.23046-15.7461Zm0 0"/></g><g clip-path="url(#b)"><path fill="none" stroke="#000" stroke-miterlimit="10" stroke-width=".39526" d="M.55465 83.42187c0 8.6953 25.17578 15.74608 56.23436 15.74608 31.05468 0 56.23046-7.05077 56.23046-15.74608"/></g><g clip-path="url(#c)"><path fill="none" stroke="#000" stroke-dasharray="2.9645308121 2.9645308121" stroke-miterlimit="10" stroke-width=".39526" d="M113.01947 83.42187c0-8.69532-25.17578-15.7461-56.23046-15.7461-31.05858 0-56.23436 7.05078-56.23436 15.7461"/></g><g clip-path="url(#d)"><path fill="none" stroke="#007F7F" stroke-dasharray="2.9645308121 2.9645308121" stroke-miterlimit="10" stroke-width=".39526" d="M56.78901 83.42187h56.23436"/></g><g clip-path="url(#e)"><path fill="none" stroke="#007F7F" stroke-dasharray="2.9645308121 2.9645308121" stroke-miterlimit="10" stroke-width=".39526" d="M56.78901 15.94142h56.23436"/></g><path fill="none" stroke="#FF7F00" stroke-dasharray="2.9645308121 2.9645308121" stroke-miterlimit="10" stroke-width=".39526" d="M56.78901 83.42187V15.94142"/><use xlink:href="#f" x="85.88441" y="13.35059" fill="#007F7F"/><use xlink:href="#g" x="49.10284" y="53.07206" fill="#FF7F00"/><g clip-path="url(#h)"><path fill="none" stroke="#000" stroke-miterlimit="10" stroke-width=".39526" d="M.55465 15.94142v67.48045"/></g><g clip-path="url(#i)"><path fill="none" stroke="#000" stroke-miterlimit="10" stroke-width=".39526" d="M113.01947 15.94142v67.48045"/></g></svg>