<svg xmlns="http://www.w3.org/2000/svg" xmlns:xlink="http://www.w3.org/1999/xlink" width="251.649" height="96.221" viewBox="0 0 251.649 96.221"><defs><path id="a" d="M.21875 0h5.4375l.54688-1.95312h-.34375c-.39063.89062-.89063 1.53125-2.14063 1.53125-.89062 0-1.17187-.07813-1.17187-.40625 0-.09376.01562-.20313.04687-.34375l1.17188-5.125c.07812-.35938.15625-.51563.4375-.54688l.5625-.04687.07812-.34375h-3.0625l-.09375.34375.57813.04687c.1875.01563.26562.10938.26562.26563 0 .07812-.03125.17187-.04687.28125L1.26563-.9375c-.09376.375-.17188.51563-.4375.53125l-.53125.0625Zm0 0"/><path id="b" d="M1 .125 1.90625 0c.28125-1.0625.4375-1.64062.70313-2.29687.3125-.8125 1.34375-2.40625 2.26562-2.40625.25 0 .375.17187.375.4375 0 .07812-.01562.1875-.04687.29687L4.34375-1c-.04687.1875-.07812.35938-.07812.51563 0 .39062.20312.60937.625.60937.73437 0 1.3125-.71875 1.67187-1.5l-.25-.15625c-.1875.375-.65625 1.10938-.95312 1.10938-.125 0-.15625-.07813-.15625-.20313 0-.09375.01562-.21875.0625-.35937l.8125-2.75c.07812-.25.125-.46875.125-.6875 0-.48438-.23438-.82813-.84375-.82813C4.375-5.25 3.25-4.17187 2.57813-2.92187H2.5625l1.17188-4.78125-.0625-.04688-1.875.23438-.07813.25.60938.0625c.17187.03125.25.0625.25.21875 0 .07812-.01563.17187-.04688.29687Zm0 0"/><path id="c" d="m.45313-1.14062.85937-.45313C1.34375-.625 1.73438.14063 2.53125.14063c1 0 1.42188-.60938 1.65625-1l-.07812-.20313c-.78125.70313-1.15625.73438-1.46875.73438-.34375 0-.53125-.23438-.53125-.6875 0-.20313.125-.89063.20312-1.20313.82813-.6875 3.5625-3.17187 3.5625-5.26562 0-.42188-.14062-.78125-.67187-.78125-2.03125 0-3.625 3.92187-3.875 6.20312l-.75.53125Zm2.01562-1.64063c.3125-.9375.78125-2.57812 1.51563-3.79687.35937-.59375.82812-1.20313 1.17187-1.20313.20313 0 .26563.1875.26563.45313 0 1.78125-1.9375 3.5625-2.95313 4.54687m0 0"/></defs><path fill="none" stroke="#007F7F" stroke-miterlimit="10" stroke-width=".3953" d="M20.05469 76.11719h189.80467"/><path fill="none" stroke="#FF7F00" stroke-miterlimit="10" stroke-width=".3953" d="M20.05469 12.85157v63.26562"/><path fill="none" stroke="red" stroke-miterlimit="10" stroke-width=".3953" d="m209.83983 76.11719 25.32812-12.65234"/><use xlink:href="#a" x="111.74945" y="88.03726" fill="#007F7F"/><use xlink:href="#b" x="8.2474" y="48.30096" fill="#FF7F00"/><use xlink:href="#c" x="236.67208" y="73.85607" fill="red"/><path fill="none" stroke="#000" stroke-miterlimit="10" stroke-width=".3953" d="m209.83983 76.11719.01953-63.26562-189.80467.0039"/><path fill="none" stroke="#000" stroke-miterlimit="10" stroke-width=".3953" d="m235.14452 63.46485.02343-63.26953H45.36328l-25.3086 12.65625m189.80468 0L235.16796.19532"/><path fill="none" stroke="#000" stroke-dasharray="2.9648296951 2.9648296951" stroke-miterlimit="10" stroke-width=".3953" d="m20.05469 76.11719 25.30859-12.65234h189.80467m-189.80467 0V.19532"/></svg>