<svg xmlns="http://www.w3.org/2000/svg" xmlns:xlink="http://www.w3.org/1999/xlink" width="100.497pt" height="80.123pt" viewBox="0 0 100.497 80.123"><defs><clipPath id="a"><path d="M11 8h71v71.2539H11Zm0 0"/></clipPath><clipPath id="b"><path d="M6 3h82v76.2539H6Zm0 0"/></clipPath><clipPath id="c"><path d="M3 0h96.70313v27H3Zm0 0"/></clipPath><clipPath id="d"><path d="M.29688 0h99.40625v33H.29688Zm0 0"/></clipPath><clipPath id="e"><path d="M.29688 26H91v10H.29688Zm0 0"/></clipPath><clipPath id="f"><path d="M.29688 20H97v21H.29688Zm0 0"/></clipPath><clipPath id="g"><path d="M6 3h82v76.2539H6Zm0 0"/></clipPath><clipPath id="h"><path d="M24 8h46v10H24Zm0 0"/></clipPath><clipPath id="i"><path d="M81.98438 44.00781c0-19.35547-15.69532-35.04687-35.05079-35.04687-19.35937 0-35.05078 15.6914-35.05078 35.04687 0 19.35938 15.6914 35.05078 35.05078 35.05078 19.35547 0 35.05078-15.6914 35.05078-35.05078m0 0"/></clipPath><clipPath id="j"><path d="M18 8h58v16H18Zm0 0"/></clipPath><clipPath id="k"><path d="M81.98438 44.00781c0-19.35547-15.69532-35.04687-35.05079-35.04687-19.35937 0-35.05078 15.6914-35.05078 35.04687 0 19.35938 15.6914 35.05078 35.05078 35.05078 19.35547 0 35.05078-15.6914 35.05078-35.05078m0 0"/></clipPath><clipPath id="l"><path d="M24 17h46v12H24Zm0 0"/></clipPath><clipPath id="m"><path d="M81.98438 44.00781c0-19.35547-15.69532-35.04687-35.05079-35.04687-19.35937 0-35.05078 15.6914-35.05078 35.04687 0 19.35938 15.6914 35.05078 35.05078 35.05078 19.35547 0 35.05078-15.6914 35.05078-35.05078m0 0"/></clipPath><clipPath id="n"><path d="M18 12h58v22H18Zm0 0"/></clipPath><clipPath id="o"><path d="M81.98438 44.00781c0-19.35547-15.69532-35.04687-35.05079-35.04687-19.35937 0-35.05078 15.6914-35.05078 35.04687 0 19.35938 15.6914 35.05078 35.05078 35.05078 19.35547 0 35.05078-15.6914 35.05078-35.05078m0 0"/></clipPath><clipPath id="p"><path d="M6 3h82v76.2539H6Zm0 0"/></clipPath><path id="q" d="m1.67188-1.25.48437.46875 2-2.01562L6.1875-.78125 6.65625-1.25 4.64063-3.26562l2.01562-2.01563L6.1875-5.75l-2.03125 2-2-2-.48437.46875L3.6875-3.26562Zm0 0"/><path id="r" d="M.3125-1.54687c0 .96875.59375 1.64062 1.75 1.64062 1.01563 0 1.53125-.53125 1.85938-1.10937.29687-.5625.34375-1.125.34375-1.39063 0-1.1875-.71875-1.6875-1.6875-1.6875-.98438 0-1.5625.53125-1.875 1.10938C.375-2.4375.3125-1.89062.3125-1.54687m.78125.32812c0-.48437.09375-1.09375.35938-1.65625.25-.54687.64062-.98437 1.1875-.98437.57812 0 .875.375.875 1.0625 0 .42187-.07813.95312-.29688 1.53125-.23437.60937-.60937 1.125-1.23437 1.125-.5625 0-.89063-.375-.89063-1.07813m0 0"/><path id="s" d="M-.10937 0h1.32812L1.25-.1875.92188-.21875c-.0625 0-.10938-.04687-.10938-.09375 0-.03125.03125-.07812.04688-.125.17187-.34375.34375-.6875.54687-1.04687h1.23438l.125 1.10937s-.03125.14063-.15625.15625L2.3125-.1875 2.26563 0h1.5625L3.875-.1875l-.23437-.01562c-.17188-.03126-.1875-.17188-.21875-.375L3.03125-4H2.5l-.98437 1.73438c-.32813.5625-.79688 1.42187-1 1.71875-.14063.25-.23438.3125-.42188.32812l-.17187.03125Zm1.64062-1.73437.90625-1.625.17188 1.625Zm0 0"/><path id="t" d="M.0625 0H1.875c1.3125 0 1.75-.53125 1.75-1.17187 0-.60938-.45312-.89063-.875-.95313v-.01562c.76563-.09375 1.10938-.51563 1.10938-.96875C3.85938-3.59375 3.5625-4 2.4375-4H.90625L.875-3.8125l.3125.03125q.14063 0 .14063.14063c0 .04687-.01563.09375-.01563.15625L.64063-.51562c-.04688.20312-.09376.28124-.25.29687L.09375-.1875Zm1.28125-.46875c0-.04687.01563-.07812.01563-.14062l.32812-1.42188h.23438c.53125 0 .92187.21875.92187.78125 0 .53125-.29687 1.01563-1.03125 1.01563-.375 0-.46875-.07813-.46875-.23438m.39063-1.79687.29687-1.29688c.03125-.17187.0625-.21875.39063-.21875.4375 0 .70312.21875.70312.625 0 .57813-.42187.89063-1.0625.89063Zm0 0"/></defs><g clip-path="url(#a)"><path fill="#B2D9D9" d="M81.98438 44.00781c0-19.35547-15.69532-35.04687-35.05079-35.04687-19.35937 0-35.05078 15.6914-35.05078 35.04687 0 19.35938 15.6914 35.05078 35.05078 35.05078 19.35547 0 35.05078-15.6914 35.05078-35.05078m0 0"/></g><g clip-path="url(#b)"><path fill="none" stroke="#B2D9D9" stroke-miterlimit="10" stroke-width=".39418" d="M81.98438 44.00781c0-19.35547-15.69531-35.04688-35.05079-35.04688-19.35937 0-35.05078 15.69141-35.05078 35.04688 0 19.35938 15.6914 35.05079 35.05078 35.05079 19.35548 0 35.0508-15.6914 35.0508-35.05079Zm0 0"/></g><path fill="none" stroke="#000" stroke-miterlimit="10" stroke-width=".39418" d="M11.8828 44.00781c0 5.8086 15.69142 10.51563 35.0508 10.51563 19.35547 0 35.05078-4.70703 35.05078-10.51563"/><g clip-path="url(#c)"><path fill="#FFD9B2" d="M3.1211 26.48438h87.625L99.5078.1953h-87.625Zm0 0"/></g><g clip-path="url(#d)"><path fill="none" stroke="#FFD9B2" stroke-miterlimit="10" stroke-width=".39418" d="M3.12109 26.48437H90.7461L99.50782.19531H11.88281Zm0 0"/></g><g clip-path="url(#e)"><path fill="#FFD9B2" d="M.49219 35.2461h87.625l2.6289-8.76172H3.1211Zm0 0"/></g><g clip-path="url(#f)"><path fill="none" stroke="#FFD9B2" stroke-miterlimit="10" stroke-width=".39418" d="M.49218 35.2461h87.62501l2.62891-8.76173H3.1211Zm0 0"/></g><path fill="none" stroke="#000" stroke-dasharray="2.9564609711000003 2.9564609711000003" stroke-miterlimit="10" stroke-width=".39418" d="M81.98438 44.00781c0-5.80469-15.69531-10.51172-35.05079-10.51172-19.35937 0-35.05078 4.70703-35.05078 10.51172"/><g clip-path="url(#g)"><path fill="none" stroke="#000" stroke-dasharray="2.9564609711000003 2.9564609711000003" stroke-miterlimit="10" stroke-width=".39418" d="M81.98438 44.00781c0-19.35547-15.69531-35.04688-35.05079-35.04688-19.35937 0-35.05078 15.69141-35.05078 35.04688 0 19.35938 15.6914 35.05079 35.05078 35.05079 19.35548 0 35.0508-15.6914 35.0508-35.05079Zm0 0"/></g><g clip-path="url(#h)"><g clip-path="url(#i)"><path fill="#B2D9D9" d="M69.71484 17.72266c0-5.8086-10.19921-10.51563-22.78125-10.51563s-22.78515 4.70703-22.78515 10.51563"/></g></g><g clip-path="url(#j)"><g clip-path="url(#k)"><path fill="none" stroke="#B2D9D9" stroke-miterlimit="10" stroke-width=".39418" d="M69.71485 17.72265c0-5.8086-10.19922-10.51562-22.78126-10.51562s-22.78516 4.70703-22.78516 10.51562"/></g></g><g clip-path="url(#l)"><g clip-path="url(#m)"><path fill="#B2D9D9" d="M24.14844 17.72266c0 5.80468 10.20312 10.51562 22.78515 10.51562s22.78125-4.71094 22.78125-10.51562"/></g></g><g clip-path="url(#n)"><g clip-path="url(#o)"><path fill="none" stroke="#B2D9D9" stroke-miterlimit="10" stroke-width=".39418" d="M24.14843 17.72265c0 5.80469 10.20313 10.51563 22.78516 10.51563s22.78126-4.71094 22.78126-10.51563"/></g></g><path fill="none" stroke="red" stroke-miterlimit="10" stroke-width=".39418" d="M24.14843 17.72265c0 5.80469 10.20313 10.51563 22.78516 10.51563s22.78126-4.71094 22.78126-10.51563"/><g clip-path="url(#p)"><path fill="none" stroke="#000" stroke-miterlimit="10" stroke-width=".39418" d="M81.98438 44.00781c0-19.35547-15.69531-35.04688-35.05079-35.04688-19.35937 0-35.05078 15.69141-35.05078 35.04688 0 19.35938 15.6914 35.05079 35.05078 35.05079 19.35548 0 35.0508-15.6914 35.0508-35.05079Zm0 0"/></g><use xlink:href="#q" x="42.76936" y="46.8858"/><use xlink:href="#r" x="51.28515" y="48.95219"/><use xlink:href="#q" x="42.76936" y="20.59853"/><use xlink:href="#s" x="51.28515" y="23.22875"/><use xlink:href="#q" x="19.98673" y="20.59853"/><use xlink:href="#t" x="15.943" y="16.21848"/><path fill="none" stroke="#000" stroke-dasharray="2.9564609711000003 2.9564609711000003" stroke-miterlimit="10" stroke-width=".39418" d="M46.9336 44.00781V17.72265H24.14842Zm0 0"/></svg>