<svg xmlns="http://www.w3.org/2000/svg" xmlns:xlink="http://www.w3.org/1999/xlink" width="134.335" height="157.265" viewBox="0 0 134.335 157.265"><defs><path id="e" d="M2.28125 0h6.89063v-.60937L7.40625-.76563c-.4375-.03124-.6875-.1875-.6875-1.01562v-12.35937L6.60938-14.25l-4.32813.73438v.5l1.95313.25c.35937.04687.5.20312.5.8125v10.17187c0 .82813-.20313.98438-.70313 1.01563l-1.75.15624Zm0 0"/><path id="f" d="m1.07813 2.5625.39062.40625c1.04688-.98437 2.5625-2.39062 2.5625-4.04687 0-1.10938-.59375-1.89063-1.39062-1.89063-.65625 0-1.0625.51563-1.0625 1.04688 0 .76562.70312 1.15625.70312 2.0625 0 .85937-.54687 1.6875-1.20312 2.42187m0 0"/><path id="g" d="M.84375-2.14062C.84375-1.1875 2.32813.25 5.04688.25 8.5.25 10.0625-1.85937 10.0625-4.5c0-2.95312-1.82812-4.45312-4.32812-4.45312-1.15625 0-2.4375.51562-3.09375 1.125l.45312-3.96875c.07813-.54688.20313-.60938.60938-.60938h5.21875l.51562-1.42187-.10937-.1875h-7l-.20313.20312-.42187 7 .5.28125c.875-1.01562 1.71875-1.5 2.85937-1.5 1.34375 0 2.8125.98438 2.8125 3.75C7.875-2.125 7-.48437 5.17188-.48437c-1.46875 0-2.20313-1.0625-2.625-2.26563-.10938-.3125-.3125-.5-.60938-.5-.42187 0-1.09375.42188-1.09375 1.10938m0 0"/><path id="h" d="M1.03125-5.04687C1.03125-1.54687 2.75.25 5.89063.25c1.46875 0 3.45312-.76562 4.03125-3.01562l-.625-.29688c-.64063 1.48438-1.46875 2.21875-3 2.21875-2.5 0-3.07813-2.60937-3.07813-4.57812 0-3.125 1.21875-4.375 2.67188-4.375.95312 0 1.5625.6875 1.98437 1.82812.14063.34375.26563.53125.67188.53125.42187 0 1.21875-.26562 1.21875-1.0625 0-.95312-1.375-2.03125-3.65625-2.03125-3.8125 0-5.07813 2.70313-5.07813 5.48438m0 0"/><path id="i" d="M.67188 0h5.10937v-.60937c-1.5-.10938-1.5625-.15626-1.5625-1.21875v-4.90625c0-.54688 0-.82813.15625-1.125.40625-.84375 1.3125-1.53125 2.46875-1.53125 1.8125 0 2.03125 1.3125 2.03125 2.60937v4.95313c0 1.0625-.0625 1.10937-1.57812 1.21875V0h5.10937v-.60937c-1.5-.10938-1.5625-.15626-1.5625-1.21875v-4.90625c0-.54688.01563-.8125.15625-1.14063.3125-.84375 1.20313-1.51562 2.39063-1.51562 1.3125 0 2.10937.73437 2.10937 2.60937v4.95313c0 1.0625-.0625 1.10937-1.57812 1.21875V0h5.14062v-.60937c-1.5-.10938-1.59375-.15626-1.59375-1.21875V-7.1875c0-2.10937-1.14062-3.34375-3.125-3.34375-1.71875 0-2.9375 1.14063-3.67187 1.60938-.51563-.98438-1.32813-1.60938-2.79688-1.60938-1.60937 0-2.92187 1.07813-3.65625 1.60938l-.20312-1.60938L.78125-10v.51563l.78125.10937c.53125.09375.6875.1875.6875.9375v6.60938c0 1.0625-.0625 1.10937-1.57812 1.21875Zm0 0"/><clipPath id="a"><path d="M0 .02344h133.67188V121H0Zm0 0"/></clipPath><clipPath id="b"><path d="M89 .02344h44.67188V25H89Zm0 0"/></clipPath><clipPath id="c"><path d="M0 89h133.67188v32H0Zm0 0"/></clipPath><clipPath id="d"><path d="M38 .02344h1V96h-1Zm0 0"/></clipPath></defs><path fill="none" stroke="#000" stroke-miterlimit="10" stroke-width=".39654" d="M.19922 114.45703h95.19921V19.25782H.19922Zm0 0"/><g clip-path="url(#a)"><path fill="none" stroke="#000" stroke-miterlimit="10" stroke-width=".39654" d="m95.39843 114.45703 38.07812-19.03906V.21876h-95.1992L.19921 19.25782"/></g><g clip-path="url(#b)"><path fill="none" stroke="#000" stroke-miterlimit="10" stroke-width=".39654" d="M95.39843 19.25782 133.47655.21876"/></g><g clip-path="url(#c)"><path fill="none" stroke="#000" stroke-dasharray="2.9740950681 2.9740950681" stroke-miterlimit="10" stroke-width=".39654" d="m.19922 114.45703 38.07812-19.03906h95.19921"/></g><g clip-path="url(#d)"><path fill="none" stroke="#000" stroke-dasharray="2.9740950681 2.9740950681" stroke-miterlimit="10" stroke-width=".39654" d="M38.27734 95.41797V.21876"/></g><path fill="none" stroke="#000" stroke-miterlimit="10" stroke-width=".39654" d="M.59375 123.97656h94.40624"/><path fill="none" stroke="#000" stroke-linecap="round" stroke-linejoin="round" stroke-miterlimit="10" stroke-width=".39654" d="M2.45703 126.35547c-.375-1.42578-1.21484-2.10156-2.0625-2.3789.84766-.27735 1.6875-.94923 2.0625-2.37891m90.67969 0c.375 1.42968 1.21484 2.10156 2.0625 2.3789-.84766.27735-1.6875.95313-2.0625 2.3789"/><use xlink:href="#e" x="15.4535" y="146.11046"/><use xlink:href="#f" x="26.56165" y="146.11046"/><use xlink:href="#g" x="34.59164" y="146.11046"/><use xlink:href="#h" x="50.40747" y="146.11046"/><use xlink:href="#i" x="60.80184" y="146.11046"/></svg>