<svg xmlns="http://www.w3.org/2000/svg" xmlns:xlink="http://www.w3.org/1999/xlink" width="71.265pt" height="71.265pt" viewBox="0 0 71.265 71.265"><defs><clipPath id="a"><path d="M0 0h70.53906v70.53906H0Zm0 0"/></clipPath><clipPath id="b"><path d="M0 29h70.53906v23H0Zm0 0"/></clipPath><clipPath id="c"><path d="M0 19h70.53906v22H0Zm0 0"/></clipPath><clipPath id="f"><path d="M35 35h35.53906v1H35Zm0 0"/></clipPath><path id="d" d="m1.67188-1.25.48437.46875 2.01563-2.01562L6.1875-.78125 6.65625-1.25 4.64063-3.26562l2.01562-2.01563L6.1875-5.75l-2.01562 2-2.01563-2-.48437.46875 2.03125 2.01563Zm0 0"/><path id="e" d="M.3125-1.54687c0 .96875.59375 1.64062 1.75 1.64062 1.01563 0 1.53125-.53125 1.85938-1.10937.29687-.5625.34375-1.125.34375-1.39063 0-1.1875-.71875-1.6875-1.6875-1.6875-.98438 0-1.5625.53125-1.875 1.10938C.375-2.4375.3125-1.89062.3125-1.54687m.78125.32812c0-.48437.09375-1.09375.35938-1.65625.25-.54687.64062-.98437 1.1875-.98437.57812 0 .875.375.875 1.0625 0 .42187-.07813.95312-.29688 1.53125-.23437.60937-.60937 1.125-1.23437 1.125-.5625 0-.89063-.375-.89063-1.07813m0 0"/><path id="g" d="M.60938.0625 1.25 0c.10938-.375.20313-.84375.3125-1.20312.1875-.70313.4375-1.15625.64063-1.15625.1875 0 .25.17187.45312.17187.1875 0 .32813-.21875.32813-.42187 0-.1875-.09375-.29688-.3125-.29688-.32813 0-.71875.34375-1.01563.9375L1.875-2.875l-.01562-.03125L.75-2.75l-.03125.17188.34375.03125c.07813 0 .10938.04687.10938.10937 0 .04688-.01563.09375-.03126.15625Zm0 0"/></defs><g clip-path="url(#a)"><path fill="none" stroke="#000" stroke-miterlimit="10" stroke-width=".39443" d="M70.33986 35.26953c0-19.3711-15.70313-35.07032-35.07033-35.07032C15.89843.1992.1953 15.89843.1953 35.26953s15.70313 35.07033 35.07423 35.07033c19.3672 0 35.07033-15.69923 35.07033-35.07033Zm0 0"/></g><g clip-path="url(#b)"><path fill="none" stroke="#000" stroke-miterlimit="10" stroke-width=".39443" d="M.1953 35.26953c0 5.8125 15.70313 10.51954 35.07423 10.51954 19.3672 0 35.07033-4.70704 35.07033-10.51954"/></g><g clip-path="url(#c)"><path fill="none" stroke="#000" stroke-dasharray="2.9583140457 2.9583140457" stroke-miterlimit="10" stroke-width=".39443" d="M70.33986 35.26953c0-5.8125-15.70313-10.52344-35.07033-10.52344-19.3711 0-35.07423 4.71094-35.07423 10.52344"/></g><use xlink:href="#d" x="31.10222" y="38.14756" fill="#FF7F00"/><use xlink:href="#e" x="26.53829" y="40.21523" fill="#FF7F00"/><g clip-path="url(#f)"><path fill="none" stroke="#007F7F" stroke-dasharray="2.9583140457 2.9583140457" stroke-miterlimit="10" stroke-width=".39443" d="M35.26953 35.26953h35.07033"/></g><use xlink:href="#g" x="51.31278" y="34.35369" fill="#007F7F"/></svg>