<svg xmlns="http://www.w3.org/2000/svg" xmlns:xlink="http://www.w3.org/1999/xlink" width="187.5pt" height="94.224pt" viewBox="0 0 187.5 94.224"><defs><clipPath id="a"><path d="M17 28h169.48438v65.45313H17Zm0 0"/></clipPath><clipPath id="b"><path d="M12 22h174.48438v71.45313H12Zm0 0"/></clipPath><clipPath id="d"><path d="M17 64h1v29.45313h-1Zm0 0"/></clipPath><clipPath id="f"><path d="M12 0h174.48438v93.45313H12Zm0 0"/></clipPath><clipPath id="g"><path d="M12 0h133v93.45313H12Zm0 0"/></clipPath><clipPath id="h"><path d="M133 22h53.48438v71.45313H133Zm0 0"/></clipPath><path id="c" d="M.39063-.76562c0 .67187.90625.89062 1.5625.89062 1.28125 0 2.59375-.98437 3.28125-2.04687l.53125-.8125c.09375.01562.20312.03125.3125.03125.45312 0 .82812-.125 1.25-.34375.25.15625.39062.40625.39062.70312 0 .8125-.89062 2.14063-1.71875 2.14063-.34375 0-.60937-.125-.60937-.46875 0-.76563.79687-1.10938 1.40625-1.10938C6.90625-1.78125 7-1.875 7-1.95312a.14004.14004 0 0 0-.14062-.14063c-.82813 0-1.82813.51563-1.82813 1.4375 0 .5.40625.78125.96875.78125 1.17188 0 2.46875-1.23437 2.46875-2.32812 0-.46875-.28125-.875-.73437-1.10938.48437-.35937 1.03125-.92187 1.03125-1.57812 0-.46875-.3125-.96875-.73438-1.25.10938-.07813.34375-.25.34375-.34375s-.0625-.20313-.17187-.20313c-.10938 0-.46875.26563-.5625.32813-.625-.28125-1.40625-.35938-2.15625-.35938-1.5 0-3.25.82813-3.98438 2.03125-.20312.34375-.32812.78125-.32812 1.15625 0 .64063.42187 1.07813 1.15625 1.07813.84375 0 1.73437-.45313 2.10937-1.09375.20313-.3125.29688-.73438.29688-1.09375 0-.21875-.03125-.71875-.28125-.71875-.09375 0-.23438.0625-.23438.17187 0 .09375.0625.125.0625.25 0 .46875-.1875.875-.4375 1.25-.29687.45313-.90625.92188-1.51562.92188-.48438 0-.73438-.26563-.73438-.73438 0-.42187.14063-.82812.28125-1.04687C2.53125-5.60937 4.09375-6.375 5.4375-6.375c.64063 0 1.3125.0625 1.82813.3125-1.35938 1.07813-2.23438 2.67188-3.09375 4.04688-.46875.75-1.29688 1.8125-2.21875 1.8125-.4375 0-1.21875-.09375-1.21875-.5625 0-.04688.03124-.10938.03124-.10938.09376.03125.1875.0625.28126.0625.23437 0 .53125-.17187.53125-.375 0-.25-.21876-.39062-.45313-.39062-.4375 0-.73437.375-.73437.8125m5.54687-2.25c.03125-.0625.10938-.17188.14063-.21875 0 0 .57812 0 .78125.01562C6.67188-3.125 6.45313-3 6.23438-3c-.125 0-.125-.01562-.29688-.01562m.34375-.51563C6.73438-4.26562 7.125-5.125 7.6875-5.76562c.21875.17187.3125.53125.3125.78125C8-4.42187 7.53125-3.8125 7.17188-3.5 7-3.54687 6.71875-3.5625 6.53125-3.5625c-.09375 0-.15625.01563-.25.03125m0 0"/><path id="e" d="M.89063.10938 1.70313 0c.25-.95312.375-1.46875.625-2.04687.26562-.71875 1.1875-2.125 2-2.125.21875 0 .32812.14062.32812.375 0 .07812 0 .17187-.03125.26562L3.85938-.89062c-.04688.17187-.07813.32812-.07813.45312 0 .34375.17188.54688.5625.54688.64063 0 1.17188-.625 1.48438-1.32813l-.23438-.14062c-.15625.32812-.57812.98437-.82812.98437-.10938 0-.15625-.0625-.15625-.17187 0-.09376.01562-.20313.0625-.32813l.73437-2.4375Q5.5-3.64062 5.5-3.92187c0-.4375-.20312-.73438-.73437-.73438-.89063 0-1.875.95313-2.46875 2.0625h-.03125l1.04687-4.25-.04687-.04687-1.67188.21875-.0625.21875.53125.0625c.15625.01562.23438.04687.23438.1875 0 .07812-.01563.15625-.04688.26562Zm0 0"/></defs><g clip-path="url(#a)"><path fill="#CCE5E5" d="M17.59766 93.25781h168.6914L138.77344 28.3125Zm0 0"/></g><g clip-path="url(#b)"><path fill="none" stroke="#CCE5E5" stroke-miterlimit="10" stroke-width=".39524" d="M17.59766 93.25781h168.69147L138.7735 28.31247Zm0 0"/></g><use xlink:href="#c" x="128.57023" y="54.10441" fill="#007F7F"/><g clip-path="url(#d)"><path fill="none" stroke="#FF7F00" stroke-miterlimit="10" stroke-width=".39524" d="M17.59766 65.14061v28.1172"/></g><use xlink:href="#e" x="7.10459" y="82.58882" fill="#FF7F00"/><g clip-path="url(#f)"><path fill="none" stroke="#000" stroke-miterlimit="10" stroke-width=".39524" d="M17.59766 93.25781h168.69147v-28.1172L138.7735.19527 17.59766 65.14061h168.69147"/></g><g clip-path="url(#g)"><path fill="none" stroke="#000" stroke-dasharray="2.9644112589000002 2.9644112589000002" stroke-miterlimit="10" stroke-width=".39524" d="m17.59766 93.25781 121.17583-64.94534V.19527"/></g><g clip-path="url(#h)"><path fill="none" stroke="#000" stroke-dasharray="2.9644112589000002 2.9644112589000002" stroke-miterlimit="10" stroke-width=".39524" d="m138.77349 28.31247 47.51564 64.94534"/></g></svg>