<svg xmlns="http://www.w3.org/2000/svg" width="141.728pt" height="141.728pt" viewBox="0 0 141.728 141.728"><defs><clipPath id="a"><path d="M0 96h141.45703v45.45703H0Zm0 0"/></clipPath><clipPath id="b"><path d="M0 0h46v141.45703H0Zm0 0"/></clipPath><clipPath id="c"><path d="M141 0h.45703v103H141Zm0 0"/></clipPath><clipPath id="d"><path d="M39 0h102.45703v1H39Zm0 0"/></clipPath><clipPath id="e"><path d="M0 86h141.45703v51H0Zm0 0"/></clipPath><clipPath id="f"><path d="M4 0h52v141.45703H4Zm0 0"/></clipPath><clipPath id="g"><path d="M0 76h141.45703v51H0Zm0 0"/></clipPath><clipPath id="h"><path d="M14 0h52v141.45703H14Zm0 0"/></clipPath><clipPath id="i"><path d="M0 65h141.45703v52H0Zm0 0"/></clipPath><clipPath id="j"><path d="M25 0h51v141.45703H25Zm0 0"/></clipPath><clipPath id="k"><path d="M0 55h141.45703v52H0Zm0 0"/></clipPath><clipPath id="l"><path d="M35 0h51v141.45703H35Zm0 0"/></clipPath><clipPath id="m"><path d="M0 45h141.45703v51H0Zm0 0"/></clipPath><clipPath id="n"><path d="M45 0h51v141.45703H45Zm0 0"/></clipPath><clipPath id="o"><path d="M0 35h141.45703v51H0Zm0 0"/></clipPath><clipPath id="p"><path d="M55 0h52v141.45703H55Zm0 0"/></clipPath><clipPath id="q"><path d="M0 25h141.45703v51H0Zm0 0"/></clipPath><clipPath id="r"><path d="M65 0h52v141.45703H65Zm0 0"/></clipPath><clipPath id="s"><path d="M0 14h141.45703v52H0Zm0 0"/></clipPath><clipPath id="t"><path d="M76 0h51v141.45703H76Zm0 0"/></clipPath><clipPath id="u"><path d="M0 4h141.45703v52H0Zm0 0"/></clipPath><clipPath id="v"><path d="M86 0h51v141.45703H86Zm0 0"/></clipPath><clipPath id="w"><path d="M0 0h141.45703v46H0Zm0 0"/></clipPath><clipPath id="x"><path d="M96 0h45.45703v141.45703H96Zm0 0"/></clipPath><clipPath id="y"><path d="M101 39h2v102.45703h-2Zm0 0"/></clipPath></defs><g clip-path="url(#a)"><path fill="none" stroke="#000" stroke-miterlimit="10" stroke-width=".39773" d="M.1992 141.25783h101.8477l39.21096-39.21096"/></g><g clip-path="url(#b)"><path fill="none" stroke="#000" stroke-miterlimit="10" stroke-width=".39773" d="M.1992 141.25783V39.41013L39.41016.19917"/></g><g clip-path="url(#c)"><path fill="none" stroke="#000" stroke-miterlimit="10" stroke-width=".39773" d="M141.25786 102.04687V.19917"/></g><g clip-path="url(#d)"><path fill="none" stroke="#000" stroke-miterlimit="10" stroke-width=".39773" d="M39.41016.19917h101.8477"/></g><g clip-path="url(#e)"><path fill="none" stroke="#000" stroke-miterlimit="10" stroke-width=".39773" d="M.1992 131.07423h101.8477l39.21096-39.21095"/></g><g clip-path="url(#f)"><path fill="none" stroke="#000" stroke-miterlimit="10" stroke-width=".39773" d="M10.3828 141.25783V39.41013L49.59376.19917"/></g><path fill="none" stroke="#000" stroke-miterlimit="10" stroke-width=".39773" d="M137.33599 105.96875V4.12105m-101.84771 0h101.8477"/><g clip-path="url(#g)"><path fill="none" stroke="#000" stroke-miterlimit="10" stroke-width=".39773" d="M.1992 120.88673h101.8477l39.21096-39.21096"/></g><g clip-path="url(#h)"><path fill="none" stroke="#000" stroke-miterlimit="10" stroke-width=".39773" d="M20.5664 141.25783V39.41013L59.77735.19917"/></g><path fill="none" stroke="#000" stroke-miterlimit="10" stroke-width=".39773" d="M133.41411 109.89063V8.03902m-101.84771 0h101.84771"/><g clip-path="url(#i)"><path fill="none" stroke="#000" stroke-miterlimit="10" stroke-width=".39773" d="M.1992 110.70313h101.8477l39.21096-39.21096"/></g><g clip-path="url(#j)"><path fill="none" stroke="#000" stroke-miterlimit="10" stroke-width=".39773" d="M30.7539 141.25783V39.41013L69.96486.19917"/></g><path fill="none" stroke="#000" stroke-miterlimit="10" stroke-width=".39773" d="M129.49614 113.8086V11.9609m-101.85161 0h101.8516"/><g clip-path="url(#k)"><path fill="none" stroke="#000" stroke-miterlimit="10" stroke-width=".39773" d="M.1992 100.51953h101.8477l39.21096-39.21096"/></g><g clip-path="url(#l)"><path fill="none" stroke="#000" stroke-miterlimit="10" stroke-width=".39773" d="M40.9375 141.25783V39.41013L80.14846.19917"/></g><path fill="none" stroke="#000" stroke-miterlimit="10" stroke-width=".39773" d="M125.57426 117.73048V15.88277m-101.8477 0h101.8477"/><g clip-path="url(#m)"><path fill="none" stroke="#000" stroke-miterlimit="10" stroke-width=".39773" d="M.1992 90.33203h101.8477l39.21096-39.21096"/></g><g clip-path="url(#n)"><path fill="none" stroke="#000" stroke-miterlimit="10" stroke-width=".39773" d="M51.1211 141.25783V39.41013L90.33206.19917"/></g><path fill="none" stroke="#000" stroke-miterlimit="10" stroke-width=".39773" d="M121.65238 121.65235V19.80465m-101.8477 0h101.8477"/><g clip-path="url(#o)"><path fill="none" stroke="#000" stroke-miterlimit="10" stroke-width=".39773" d="M.1992 80.14843h101.8477l39.21096-39.21096"/></g><g clip-path="url(#p)"><path fill="none" stroke="#000" stroke-miterlimit="10" stroke-width=".39773" d="M61.3086 141.25783V39.41013L100.51956.19917"/></g><path fill="none" stroke="#000" stroke-miterlimit="10" stroke-width=".39773" d="M117.7305 125.57423V23.72653m-101.8477-.00001h101.8477"/><g clip-path="url(#q)"><path fill="none" stroke="#000" stroke-miterlimit="10" stroke-width=".39773" d="M.1992 69.96483h101.8477l39.21096-39.21096"/></g><g clip-path="url(#r)"><path fill="none" stroke="#000" stroke-miterlimit="10" stroke-width=".39773" d="M71.4922 141.25783V39.41013L110.70316.19917"/></g><path fill="none" stroke="#000" stroke-miterlimit="10" stroke-width=".39773" d="M113.80863 129.4961V27.6445m-101.84771 0h101.84771"/><g clip-path="url(#s)"><path fill="none" stroke="#000" stroke-miterlimit="10" stroke-width=".39773" d="M.1992 59.78123h101.8477l39.21096-39.21486"/></g><g clip-path="url(#t)"><path fill="none" stroke="#000" stroke-miterlimit="10" stroke-width=".39773" d="M81.6758 141.25783V39.41013L120.88676.19917"/></g><path fill="none" stroke="#000" stroke-miterlimit="10" stroke-width=".39773" d="M109.89066 133.41798V31.56638M8.03905 31.56637h101.85161"/><g clip-path="url(#u)"><path fill="none" stroke="#000" stroke-miterlimit="10" stroke-width=".39773" d="M.1992 49.59372h101.8477l39.21096-39.21095"/></g><g clip-path="url(#v)"><path fill="none" stroke="#000" stroke-miterlimit="10" stroke-width=".39773" d="M91.8633 141.25783V39.41013L131.07427.19917"/></g><path fill="none" stroke="#000" stroke-miterlimit="10" stroke-width=".39773" d="M105.96878 137.33595V35.48825m-101.8477 0h101.8477"/><g clip-path="url(#w)"><path fill="none" stroke="#000" stroke-miterlimit="10" stroke-width=".39773" d="M.1992 39.41013h101.8477L141.25787.19917"/></g><g clip-path="url(#x)"><path fill="none" stroke="#000" stroke-miterlimit="10" stroke-width=".39773" d="M102.0469 141.25783V39.41013L141.25787.19917"/></g><g clip-path="url(#y)"><path fill="none" stroke="#000" stroke-miterlimit="10" stroke-width=".39773" d="M102.0469 141.25783V39.41013"/></g><path fill="none" stroke="#000" stroke-miterlimit="10" stroke-width=".39773" d="M.1992 39.41013h101.8477"/></svg>