<svg xmlns="http://www.w3.org/2000/svg" xmlns:xlink="http://www.w3.org/1999/xlink" width="84.147pt" height="95.723pt" viewBox="0 0 84.147 95.723"><defs><clipPath id="a"><path d="M0 69h83.30078v22H0Zm0 0"/></clipPath><clipPath id="b"><path d="M0 79h83.30078v16.10547H0Zm0 0"/></clipPath><clipPath id="c"><path d="M41 .34375h1V85h-1Zm0 0"/></clipPath><clipPath id="e"><path d="M41 84h42.30078v1H41Zm0 0"/></clipPath><clipPath id="g"><path d="M0 .34375h83.30078V91H0Zm0 0"/></clipPath><path id="d" d="m.5625.0625.5-.0625c.15625-.59375.23438-.90625.39063-1.28125.17187-.45312.75-1.32812 1.25-1.32812.14062 0 .20312.09375.20312.23437 0 .04688 0 .10938-.01562.17188L2.40625-.5625c-.03125.10938-.04687.20313-.04687.29688 0 .20312.10937.32812.35937.32812.39063 0 .71875-.39062.92188-.82812L3.5-.84375c-.10937.20313-.35937.60938-.53125.60938-.0625 0-.09375-.04688-.09375-.10938s.01563-.125.04688-.20312L3.375-2.07812c.04688-.125.0625-.25.0625-.375 0-.26563-.125-.45313-.46875-.45313-.54687 0-1.17187.59375-1.53125 1.29688h-.01562l.64062-2.67188-.03125-.01562L1-4.17187l-.04687.14062L1.29688-4c.09374.01563.14062.03125.14062.125 0 .04688-.01562.09375-.03125.17188Zm0 0"/><path id="f" d="M.625.0625 1.26563 0c.09374-.375.20312-.84375.29687-1.20312.20313-.70313.45313-1.15625.65625-1.15625.1875 0 .23438.15625.4375.15625.1875 0 .32813-.21875.32813-.42188 0-.1875-.09375-.28125-.29688-.28125-.34375 0-.73437.34375-1.03125.9375L1.875-2.875l-.01562-.03125L.75-2.75l-.03125.15625.34375.03125c.07813.01563.10938.0625.10938.125 0 .03125 0 .09375-.03126.14063Zm0 0"/></defs><path fill="none" stroke="red" stroke-miterlimit="10" stroke-width=".3945" d="M41.73048 84.72656v-5.61328h5.60938v5.61328h-5.60938"/><g clip-path="url(#a)"><path fill="none" stroke="#000" stroke-dasharray="2.9588221467999998 2.9588221467999998" stroke-miterlimit="10" stroke-width=".3945" d="M.19531 84.72656c4.03907-6.10547 25.8711-10.17969 48.76564-9.10547 17.42579.82031 31.07423 4.46094 34.14454 9.10547"/></g><g clip-path="url(#b)"><path fill="none" stroke="#000" stroke-miterlimit="10" stroke-width=".3945" d="M.19531 84.72656c4.03907 6.10547 25.8711 10.1836 48.76564 9.10547 17.42579-.8203 31.07423-4.45703 34.14454-9.10547"/></g><g clip-path="url(#c)"><path fill="none" stroke="#FF7F00" stroke-dasharray="2.9588221467999998 2.9588221467999998" stroke-miterlimit="10" stroke-width=".3945" d="M41.65236.53904v84.18752"/></g><use xlink:href="#d" x="42.49918" y="44.74806" fill="#FF7F00"/><g clip-path="url(#e)"><path fill="none" stroke="#007F7F" stroke-dasharray="2.9588221467999998 2.9588221467999998" stroke-miterlimit="10" stroke-width=".3945" d="M41.65236 84.72656h41.45313"/></g><use xlink:href="#f" x="60.88679" y="83.81108" fill="#007F7F"/><g clip-path="url(#g)"><path fill="none" stroke="#000" stroke-miterlimit="10" stroke-width=".3945" d="M.19531 84.72656 41.65236.53904l41.45313 84.18752"/></g></svg>