<svg xmlns="http://www.w3.org/2000/svg" xmlns:xlink="http://www.w3.org/1999/xlink" width="117.262pt" height="59.04pt" viewBox="0 0 117.262 59.04"><defs><clipPath id="a"><path d="M11 17h104.96094v41H11Zm0 0"/></clipPath><clipPath id="b"><path d="M5 12h110.96094v46.09375H5Zm0 0"/></clipPath><clipPath id="d"><path d="M10 40h2v18.09375h-2Zm0 0"/></clipPath><clipPath id="f"><path d="M5 0h110.96094v58.09375H5Zm0 0"/></clipPath><clipPath id="g"><path d="M5 0h87v58.09375H5Zm0 0"/></clipPath><clipPath id="h"><path d="M80 12h35.96094v46.09375H80Zm0 0"/></clipPath><path id="c" d="M.25-.46875c0 .40625.54688.54688.95313.54688.8125 0 1.625-.60938 2.04687-1.26563l.32813-.51562c.0625.01562.125.03124.1875.03124.29687 0 .51562-.07812.78125-.21874.15625.09374.25.25.25.4375 0 .5-.5625 1.32812-1.07813 1.32812-.20312 0-.375-.07812-.375-.29687 0-.46875.5-.6875.875-.6875.0625 0 .125-.04688.125-.10938 0-.04687-.04687-.07812-.09375-.07812-.51562 0-1.125.3125-1.125.89062 0 .3125.25.48438.59375.48438.73438 0 1.53125-.76563 1.53125-1.4375 0-.29688-.17187-.54688-.45312-.70313.29687-.21875.64062-.5625.64062-.96875 0-.29687-.1875-.59375-.45312-.78125.0625-.04687.20312-.15625.20312-.21875 0-.04687-.03125-.10937-.10937-.10937-.0625 0-.28125.15625-.34375.20312-.39063-.17187-.85938-.23437-1.32813-.23437-.9375 0-2.01562.51562-2.46875 1.26562-.14062.21875-.20312.48438-.20312.71875 0 .40625.26562.65625.71875.65625.51562 0 1.07812-.28125 1.29687-.67187.125-.1875.1875-.45313.1875-.67188 0-.14062-.01562-.45312-.17187-.45312-.0625 0-.14063.04687-.14063.10937s.03125.07813.03125.15625c0 .28125-.10937.53125-.26562.76563-.1875.28125-.5625.57812-.9375.57812-.3125 0-.46875-.15625-.46875-.45312 0-.26563.09374-.51563.17187-.65625.40625-.65625 1.375-1.125 2.21875-1.125.39063 0 .8125.03125 1.125.1875-.84375.67187-1.375 1.65625-1.92187 2.51562-.28125.46875-.79688 1.125-1.375 1.125-.26563 0-.75-.0625-.75-.35937 0-.01563.03125-.04688.03125-.0625C.53125-.51563.59375-.5.65625-.5c.14063 0 .32813-.10937.32813-.23437 0-.15626-.14063-.25-.28126-.25C.42189-.98437.25-.75.25-.46875M3.6875-1.875c.01563-.03125.0625-.10937.07813-.14062 0 0 .35937 0 .48437.01562-.10937.0625-.25.14063-.39062.14063-.07813 0-.07813-.01563-.17188-.01563m.20313-.3125c.28125-.45312.53125-.98437.875-1.39062.14062.10937.20312.32812.20312.48437 0 .34375-.29687.73438-.51562.92188-.10938-.03125-.28125-.03125-.39063-.03125-.0625 0-.10937 0-.17187.01562m0 0"/><path id="e" d="m.54688.0625.5-.0625c.15624-.59375.25-.90625.39062-1.26562.17188-.45313.75-1.32813 1.25-1.32813.125 0 .20313.09375.20313.23438 0 .0625 0 .10937-.03125.17187L2.39063-.54687c-.03125.09374-.04688.20312-.04688.28124 0 .20313.10938.32813.34375.32813.40625 0 .73438-.39062.92188-.82812l-.14063-.07813c-.09375.20313-.35937.60938-.51562.60938-.0625 0-.09375-.04688-.09375-.10938 0-.04687.01562-.125.03125-.20312l.45312-1.51563c.04688-.125.0625-.25.0625-.375 0-.26562-.125-.45312-.45312-.45312-.54688 0-1.17188.59375-1.53125 1.28125h-.01563L2.04688-4.25l-.03125-.01562-1.03125.125L.95312-4l.32813.03125c.09375.01563.14063.03125.14063.125 0 .04688 0 .09375-.03126.15625Zm0 0"/></defs><g clip-path="url(#a)"><path fill="#CCE5E5" d="M11.16797 57.89844h104.59766L86.30469 17.6289Zm0 0"/></g><g clip-path="url(#b)"><path fill="none" stroke="#CCE5E5" stroke-miterlimit="10" stroke-width=".39212" d="M11.16797 57.89844h104.59765L86.3047 17.6289Zm0 0"/></g><use xlink:href="#c" x="79.97593" y="33.6223" fill="#007F7F"/><g clip-path="url(#d)"><path fill="none" stroke="#FF7F00" stroke-miterlimit="10" stroke-width=".39212" d="M11.16797 40.46484v17.4336"/></g><use xlink:href="#e" x="4.65958" y="51.28411" fill="#FF7F00"/><g clip-path="url(#f)"><path fill="none" stroke="#000" stroke-miterlimit="10" stroke-width=".39212" d="M11.16797 57.89844h104.59765v-17.4336L86.3047.19531 11.16797 40.46484h104.59765"/></g><g clip-path="url(#g)"><path fill="none" stroke="#000" stroke-dasharray="2.94100872 2.94100872" stroke-miterlimit="10" stroke-width=".39212" d="M11.16797 57.89844 86.30469 17.6289V.1953"/></g><g clip-path="url(#h)"><path fill="none" stroke="#000" stroke-dasharray="2.94100872 2.94100872" stroke-miterlimit="10" stroke-width=".39212" d="m86.30469 17.6289 29.46093 40.26954"/></g></svg>