<svg xmlns="http://www.w3.org/2000/svg" xmlns:xlink="http://www.w3.org/1999/xlink" width="214.4pt" height="103.655pt" viewBox="0 0 214.4 103.655"><defs><clipPath id="a"><path d="M.05469 10H160v72H.05469Zm0 0"/></clipPath><clipPath id="b"><path d="M.05469 0H186v88H.05469Zm0 0"/></clipPath><clipPath id="c"><path d="M.05469 65H186v23H.05469Zm0 0"/></clipPath><clipPath id="g"><path d="M.05469 85H5v4H.05469Zm0 0"/></clipPath><clipPath id="h"><path d="M.05469 79H11v15H.05469Zm0 0"/></clipPath><path id="d" d="m.21875-2.32812.10938.25H3.5v1.1875c0 .39062-.125.45312-.40625.48437l-.75.07813V0h3.07813v-.32812l-.51563-.0625C4.625-.4375 4.54688-.5 4.54688-.89062v-1.1875H5.75V-2.625H4.54688v-5.17187h-.84375C2.60938-6.17187 1.29688-4.15625.21875-2.32812M1.0625-2.625C1.76563-3.89062 2.60938-5.25 3.5-6.65625V-2.625Zm0 0"/><path id="f" d="M.3125-1.1875c0 .5.79688 1.32813 2.45313 1.32813 1.6875 0 2.75-.85938 2.75-2.34375 0-1.5625-1.32813-2.03125-1.98438-2.09375v-.04688c.64063-.09375 1.64063-.5625 1.64063-1.71875 0-1.29687-1-1.85937-2.25-1.85937C1.375-7.92187.625-7.03125.625-6.53125c0 .35938.40625.54688.5625.54688s.23438-.07813.28125-.23438c.26563-.79687.70313-1.29687 1.35938-1.29687.92187 0 1.15625.79687 1.15625 1.46875 0 .6875-.25 1.5625-1.25 1.5625-.54688 0-.875-.10938-1.01563-.10938-.14062 0-.20312.10938-.20312.32813 0 .20312.0625.32812.20312.32812.14063 0 .46875-.125 1.01563-.125 1 0 1.5625.90625 1.5625 1.92188 0 1.39062-.6875 1.875-1.51563 1.875-.76562 0-1.28125-.57813-1.5-1.23438-.07812-.21875-.1875-.34375-.34375-.34375-.21875 0-.625.23438-.625.65625m0 0"/><path id="i" d="M.51563-3.59375c0 2.51563.90625 3.73438 2.65625 3.73438C4.90625.14063 5.8125-.90625 5.8125-2.5c0-1.5625-.96875-2.42187-2.21875-2.42187-.90625 0-1.59375.60937-1.90625 1 .01563-2.5625.71875-3.59375 1.78125-3.59375.53125 0 .90625.4375 1.07813 1.10937.04687.14063.125.25.29687.25.26563 0 .625-.20312.625-.53125 0-.46875-.5625-1.23437-1.96875-1.23437C1.65625-7.92187.51563-6.5.51563-3.59375M1.6875-2.75c0-.71875.53125-1.57812 1.51563-1.57812.73437 0 1.45312.67187 1.45312 2.01562 0 1.21875-.46875 2.04688-1.45312 2.04688C2.1875-.26562 1.6875-1.35937 1.6875-2.75m0 0"/><path id="e" d="M.375 0h2.84375v-.32812c-.84375-.0625-.875-.09375-.875-.6875V-3.75c0-.29687 0-.45312.09375-.60937.21875-.48438.71875-.85938 1.375-.85938 1 0 1.125.73438 1.125 1.45313v2.75c0 .59375-.03125.625-.875.6875V0h2.82813v-.32812c-.82813-.0625-.85938-.09375-.85938-.6875V-3.75c0-.29687.01563-.4375.07813-.625.1875-.46875.67187-.84375 1.32812-.84375.73438 0 1.1875.40625 1.1875 1.45313v2.75c0 .59375-.04687.625-.89062.6875V0h2.85937v-.32812c-.82812-.0625-.875-.09375-.875-.6875V-4c0-1.17187-.64062-1.85937-1.73437-1.85937-.96875 0-1.64063.64062-2.04688.89062-.29687-.54687-.73437-.89062-1.5625-.89062-.89062 0-1.625.59375-2.03125.89062l-.10937-.89062L.4375-5.5625v.29688l.4375.0625c.29688.04687.375.09375.375.51562v3.67188c0 .59375-.03125.625-.875.6875Zm0 0"/></defs><g clip-path="url(#a)"><path fill="none" stroke="#000" stroke-miterlimit="10" stroke-width=".39718" d="M.2539 81.42578h158.92193V10.79295H.25391Zm0 0"/></g><g clip-path="url(#b)"><path fill="none" stroke="#000" stroke-miterlimit="10" stroke-width=".39718" d="m159.17583 81.42578 21.19141-10.59766V.1992H21.44532L.2539 10.79295"/></g><path fill="none" stroke="#000" stroke-miterlimit="10" stroke-width=".39718" d="M159.17583 10.79295 180.36724.19919"/><g clip-path="url(#c)"><path fill="none" stroke="#000" stroke-dasharray="2.9789070844000003 2.9789070844000003" stroke-miterlimit="10" stroke-width=".39718" d="m.2539 81.42578 21.19142-10.59766h158.92192"/></g><path fill="none" stroke="#000" stroke-dasharray="2.9789070844000003 2.9789070844000003" stroke-miterlimit="10" stroke-width=".39718" d="M21.44532 70.82812V.1992"/><path fill="none" stroke="#000" stroke-miterlimit="10" stroke-width=".39718" d="M185.66412 66.26171V4.76561"/><path stroke="#000" stroke-miterlimit="10" stroke-width=".39718" d="M185.66406 70.08594c.125-.46875.83985-2.53516 1.6211-3.82422h-3.2422c.77735 1.28906 1.4961 3.35547 1.6211 3.82422Zm0-69.14454c-.125.46876-.84375 2.53516-1.6211 3.82422h3.2422c-.78125-1.28906-1.4961-3.35546-1.6211-3.82421Zm0 0"/><use xlink:href="#d" x="190.04626" y="48.24044"/><use xlink:href="#e" x="198.84697" y="48.24044"/><path fill="none" stroke="#000" stroke-miterlimit="10" stroke-width=".39718" d="m163.26177 84.67969 13.01953-6.51172"/><path stroke="#000" stroke-miterlimit="10" stroke-width=".39715" d="M159.83984 86.39063c.47657-.09766 2.64454-.38282 4.14844-.26172l-1.44922-2.89844c-.8086 1.27344-2.33593 2.83594-2.69922 3.16016Zm19.86329-9.9336c-.47657.09766-2.64454.38281-4.14844.26172l1.44922 2.89844c.8086-1.27344 2.33593-2.83594 2.69922-3.16016Zm0 0"/><use xlink:href="#f" x="174.15415" y="88.44263"/><use xlink:href="#e" x="182.95486" y="88.44263"/><path fill="none" stroke="#000" stroke-miterlimit="10" stroke-width=".39718" d="M4.82422 86.72266h149.7852"/><g clip-path="url(#g)"><path d="M.9961 86.72266c.46874.125 2.53515.83984 3.82812 1.62109v-3.24219c-1.29297.77735-3.35938 1.49219-3.82813 1.6211m0 0"/></g><g clip-path="url(#h)"><path fill="none" stroke="#000" stroke-miterlimit="10" stroke-width=".39718" d="M.9961 86.72266c.46874.125 2.53515.83984 3.82812 1.6211v-3.2422c-1.29297.77735-3.35938 1.49219-3.82813 1.6211Zm0 0"/></g><path stroke="#000" stroke-miterlimit="10" stroke-width=".39718" d="M158.4336 86.72266c-.46875-.12891-2.53516-.84375-3.82422-1.6211v3.2422c1.28906-.78126 3.35547-1.4961 3.82422-1.6211Zm0 0"/><use xlink:href="#i" x="69.93403" y="99.03737"/><use xlink:href="#e" x="78.73474" y="99.03737"/></svg>