<?xml version="1.0" encoding="UTF-8"?><svg id="a" xmlns="http://www.w3.org/2000/svg" viewBox="0 0 511.81 511.49"><g id="b"><path id="c" d="M66.26,375.71c-17.47,0-31.54,14.07-31.54,31.54v50.53h63.08v-50.53c0-17.47-14.06-31.54-31.53-31.54Z" fill="#e28086" stroke-width="0"/><path id="d" d="M320.19,179.33c-17.47,0-31.54,14.07-31.54,31.54v246.91h63.09v-246.91c0-17.47-14.07-31.54-31.54-31.54Z" fill="#8993da" stroke-width="0"/><path id="e" d="M193.22,264.71c-17.47,0-31.54,14.07-31.54,31.54v161.53h63.08v-161.53c0-17.47-14.06-31.54-31.53-31.54Z" fill="#f4d8a5" stroke-width="0"/><path id="f" d="M447.16,51.26c-17.47,0-31.54,14.06-31.54,31.53v374.99h63.08V82.79c0-17.47-14.06-31.53-31.53-31.53Z" fill="#596c76" stroke-width="0"/><path id="g" d="M480.32,511.49H31.49c-17.45,0-31.49-14.04-31.49-31.49s14.04-31.49,31.49-31.49h448.83c17.45,0,31.49,14.04,31.49,31.49s-14.04,31.49-31.49,31.49h0Z" fill="#dfe7f4" stroke-width="0"/><path id="h" d="M268.21,0c-24.46-.13-23.96,31.63-6.7,36.26l-189.19,119.64c-9.18,6.71-9.75,16.68-5.71,23.54,4.01,6.94,13.09,11.4,23.5,7.26l198.23-103.99c-6.33,23.62,24.69,30.85,34.75,12.33l26.94-54.66c4.25-8.17,3.01-17.22-.79-23.79-3.79-6.58-11-12.18-20.2-12.58L268.21,0Z" vector-effect="none" fill="#dd636e" stroke-width="0"/></g></svg>