<svg xmlns="http://www.w3.org/2000/svg" xmlns:xlink="http://www.w3.org/1999/xlink" width="230.002" height="172.601" viewBox="0 0 230.002 172.601"><defs><clipPath id="a"><path d="M0 .17578h229V172H0Zm0 0"/></clipPath><clipPath id="b"><path d="M0 .17578h229.00781v171.85547H0Zm0 0"/></clipPath><path id="c" d="M-.40625 0h4.73438l.14062-.60937-1.17187-.10938c-.26563-.01562-.375-.15625-.375-.35937 0-.10938.04687-.26563.10937-.42188.6875-1.32812 1.35938-2.6875 2.14063-4.09375h4.71875l.5 4.32813s-.10938.5-.54688.54687l-1.125.10938L8.60938 0h5.15625l.14062-.60937-.8125-.0625c-.64062-.0625-.73437-.35938-.84375-1.21875L10.70313-14.5H9.21875L5.6875-8.32812c-1.0625 1.875-2.8125 5-3.59375 6.25C1.42188-.98437 1.07813-.76562.42188-.6875l-.6875.07813Zm6-6.40625 3.42188-6.15625.75 6.15625Zm0 0"/><path id="d" d="M.21875 0h10.9375l1.07813-3.6875h-.625C10.53125-1.09375 9.59375-.73437 7-.73437c-2.46875 0-2.60937-.3125-2.60937-.875 0-.21876.07812-.53125.15625-.95313L5.625-7.15625h2.73438c1.5625 0 1.85937.3125 1.85937 1.21875 0 .1875 0 .35938-.01562.57813h.625l.96875-4.375h-.64063C10.625-8.28125 10.39063-7.9375 8.54688-7.9375h-2.75l1.1875-5.23437c.10937-.5.25-.625.60937-.625h2.51563c2.04687 0 2.46875.54687 2.46875 1.6875 0 .5-.0625 1.09375-.0625 1.09375h.625L13.92188-14.5H3.32813l-.15625.59375 1.26562.09375c.35938.01563.51563.17188.51563.51563 0 .125-.01563.28125-.0625.48437l-2.5 11.07813c-.1875.70312-.35938.95312-.875 1l-1.1875.125Zm0 0"/></defs><g clip-path="url(#a)"><path fill="#CCE5E5" d="M228.8125 86.10156c0-47.34765-51.17578-85.73047-114.3086-85.73047C51.375.3711.19532 38.75391.19532 86.10156c0 47.34766 51.17969 85.73047 114.3086 85.73047 63.1328 0 114.30859-38.38281 114.30859-85.73047m0 0"/></g><g clip-path="url(#b)"><path fill="none" stroke="#000" stroke-miterlimit="10" stroke-width=".39678" d="M228.81254 86.10156c0-47.34767-51.1758-85.7305-114.30863-85.7305C51.37498.37106.19527 38.7539.19527 86.10156s51.1797 85.7305 114.30864 85.7305c63.13283 0 114.30863-38.38283 114.30863-85.7305Zm0 0"/></g><path fill="#9CC" stroke="#000" stroke-miterlimit="10" stroke-width=".39678" d="M188.80471 86.10156c0-30.77735-33.26563-55.72267-74.3008-55.72267S40.207 55.3242 40.207 86.10156s33.26173 55.72268 74.2969 55.72268 74.3008-24.94532 74.3008-55.72268Zm0 0"/><use xlink:href="#c" x="67.90436" y="60.29235"/><use xlink:href="#d" x="181.67271" y="50.49088"/></svg>