<svg xmlns="http://www.w3.org/2000/svg" xmlns:xlink="http://www.w3.org/1999/xlink" width="259.658pt" height="110.415pt" viewBox="0 0 259.658 110.415"><defs><path id="a" d="m1.39063-12.34375.75.07813c.4375.0625.59375.21875.6875.89062.21875 1.70313.4375 3.54688.67187 5.40625L4.29688 0h1.29687l3.75-6.42187c1.21875-2.0625 2.35938-3.95313 3.125-5.10938.40625-.64062.6875-.73437 1.67188-.8125L14.25-12.875h-4.10937l-.09375.53125 1.03125.07813c.21875.01562.3125.09375.3125.26562 0 .3125-1.39063 2.78125-2.95313 5.5L5.76563-1.85937 5.09375-6.8125c-.21875-1.64062-.57812-4.65625-.57812-5.03125 0-.21875.07812-.35937.34375-.40625l1.1875-.09375.09375-.53125H1.48438Zm0 0"/><path id="e" d="m2.6875-2.01562.78125.76562L6.70313-4.5l3.25 3.25.75-.76562L7.46875-5.25l3.23438-3.25-.75-.75-3.25 3.23438L3.46875-9.25l-.78125.75 3.25 3.25Zm0 0"/><path id="f" d="M1.57813-2.75c0 2.28125 1.375 2.96875 2.6875 2.96875 1.375 0 2.95312-.59375 4.23437-2.73437L8.04688-2.875C7.40625-2.01562 6.3125-.6875 5.07813-.6875c-1.375 0-1.65625-1.10937-1.65625-2.4375 0-2.42187 1.40625-5.57812 3.10937-5.57812.59375 0 1.01563.375 1.14063 1.48437.03125.34375.1875.5625.53125.5625.45312 0 1.1875-.42187 1.1875-1.03125C9.39063-8.64062 8.375-9.34375 7-9.34375c-3.3125 0-5.42187 3.53125-5.42187 6.59375m0 0"/><path id="k" d="M0-11.25h.59375c.04688-1.14062.26563-1.40625.89063-1.40625.28124 0 2.04687.29688 2.5625.29688.46875 0 1.03125-.03125 1.25-1.375H5.375c.21875 1.34375.6875 1.375 1.25 1.375.54688 0 2.26563-.29688 2.5625-.29688.64063 0 .84375.26563.875 1.40625h.59375v-.4375c0-1.67187-.82812-2.04687-1.70312-2.04687-.3125 0-2.03125.28125-2.5.28125-.53125 0-.82813-.0625-.82813-1.09375h-.59375c0 1.03125-.35937 1.09375-.82812 1.09375-.48438 0-2.1875-.28125-2.5-.28125-.875 0-1.70313.375-1.70313 2.04687Zm0 0"/><path id="b" d="M.53125-4.35937c0 2.5625.76563 4.51562 3 4.51562 2.21875 0 2.98438-1.95312 2.98438-4.51562 0-2.54688-.76563-4.5-2.98438-4.5-2.23437 0-3 1.95312-3 4.5m1.5 0c0-1.96875.29688-4.01563 1.5-4.01563 1.1875 0 1.48438 2.04688 1.48438 4.01563S4.71875-.32812 3.53125-.32812c-1.20312 0-1.5-2.0625-1.5-4.03125m0 0"/><path id="c" d="M1.42188 0h4.35937v-.40625L4.75-.5c-.29687-.03125-.4375-.125-.4375-.60937v-7.6875l-.07812-.0625-2.8125.46875v.34375l1.125.15625c.25.03125.34375.14062.34375.53125v6.25c0 .48437-.125.57812-.4375.60937l-1.03125.09375Zm0 0"/><path id="d" d="M.375-.15625.53125 0h5.51563l.46875-1.85937-.39063-.0625c-.29687.6875-.53125.78125-1.0625.78125H1.73438c.20312-.625.90625-1.5 2.17187-2.34375 1.3125-.89063 2.25-1.5 2.25-2.92188 0-1.82812-1.23437-2.45312-2.67187-2.45312-1.78125 0-2.79688 1.01562-2.79688 1.8125 0 .46875.54688.6875.82813.6875.25 0 .375-.14063.42187-.39063.21875-.90625.70313-1.625 1.46875-1.625.90625 0 1.20313.78125 1.20313 1.73438 0 1.25-.57813 2.09375-1.79688 3.14062C1.15625-2.0625.5625-1.125.375-.15625m0 0"/><path id="g" d="M1.10938-1.95312c0 1.59375.95312 2.10937 1.92187 2.10937.98438 0 2.10938-.40625 3.03125-1.98437l-.34375-.26563c-.45312.64063-1.1875 1.54688-2.0625 1.54688s-1.07812-.73438-1.07812-1.625c0-1.71875.96875-3.875 2.0625-3.875.375 0 .625.25.75 1 .03125.26562.14062.4375.40625.4375.35937 0 .92187-.29688.92187-.75 0-.6875-.71875-1.1875-1.75-1.1875-2.42187 0-3.85937 2.48437-3.85937 4.59375m0 0"/><path id="i" d="m1.85938-1.45312.60937.625L4.6875-3.0625 6.92188-.82812l.60937-.60938L5.3125-3.67187l2.21875-2.23438-.60937-.60937L4.6875-4.29687 2.46875-6.51562l-.60937.60937 2.21875 2.23438Zm0 0"/><path id="h" d="M1.10938 0h3.5v-.34375l-.79688-.0625C3.59375-.42187 3.48438-.5 3.48438-.875v-6.03125l-.07813-.0625-2.26562.375v.29688l.8125.10937c.21874.03125.29687.125.29687.45313V-.875c0 .375-.10937.45313-.35937.46875l-.78125.0625Zm0 0"/><path id="j" d="M.3125-.14062.4375 0h4.42188L5.25-1.54687l-.32812-.0625c-.25.54687-.42188.625-.84375.625H1.46875c.17188-.45313.64063-1.125 1.6875-1.76563 1.07813-.6875 1.79688-1.17187 1.79688-2.28125 0-1.4375-.98438-1.9375-2.15625-1.9375-1.375 0-2.25.76563-2.25 1.46875 0 .39063.45312.57813.70312.57813.20313 0 .3125-.10938.35938-.32813.17187-.76562.54687-1.3125 1.10937-1.3125.67188 0 .90625.57813.90625 1.3125 0 .90625-.375 1.60938-1.375 2.45313C.90625-1.64062.4375-.89062.3125-.14062m0 0"/></defs><use xlink:href="#a" x="7.12014" y="84.89222"/><use xlink:href="#b" x="18.39838" y="89.25113"/><use xlink:href="#a" x="119.90856" y="84.96782"/><use xlink:href="#c" x="131.18681" y="89.32872"/><use xlink:href="#a" x="232.69699" y="84.96782"/><use xlink:href="#d" x="243.97324" y="89.32872"/><path fill="none" stroke="#007F7F" stroke-miterlimit="10" stroke-width=".3964" d="M33.625 80.70703h74.72268"/><path fill="#007F7F" stroke="#007F7F" stroke-miterlimit="10" stroke-width=".3964" d="M112.16797 80.70703c-.46875-.125-2.53125-.83984-3.82031-1.61719v3.23438c1.28906-.77734 3.35156-1.49219 3.8203-1.61719Zm0 0"/><path fill="none" stroke="#FF7F00" stroke-miterlimit="10" stroke-width=".3964" d="M146.4141 80.70703h74.72267"/><path fill="#FF7F00" stroke="#FF7F00" stroke-miterlimit="10" stroke-width=".3964" d="M224.95703 80.70703c-.46875-.125-2.53125-.83984-3.82031-1.61719v3.23438c1.28906-.77734 3.35156-1.49219 3.82031-1.61719Zm0 0"/><path fill="none" stroke="#EC008C" stroke-miterlimit="10" stroke-width=".3964" d="M33.625 71.03515c64.86721-37.45313 127.20316-37.45313 188.12506-2.27734"/><path fill="#EC008C" stroke="#EC008C" stroke-miterlimit="10" stroke-width=".3964" d="M225.05469 70.66797c-.34375-.34375-1.76953-1.99219-2.4961-3.3125l-1.61718 2.80078c1.5039-.02734 3.64453.38672 4.11328.51172Zm0 0"/><use xlink:href="#e" x="58.05328" y="98.86619"/><use xlink:href="#f" x="71.45229" y="98.86619" fill="#007F7F"/><use xlink:href="#c" x="80.25366" y="103.22708" fill="#007F7F"/><use xlink:href="#e" x="170.84171" y="98.82839"/><use xlink:href="#f" x="184.24072" y="98.82839" fill="#FF7F00"/><use xlink:href="#d" x="193.0401" y="103.18928" fill="#FF7F00"/><use xlink:href="#e" x="103.46667" y="33.03398"/><use xlink:href="#g" x="119.06602" y="13.1553" fill="#007F7F"/><use xlink:href="#h" x="126.32357" y="16.20713" fill="#007F7F"/><use xlink:href="#i" x="132.76942" y="13.1553"/><use xlink:href="#g" x="142.14773" y="13.1553" fill="#FF7F00"/><use xlink:href="#j" x="149.40528" y="16.20713" fill="#FF7F00"/><use xlink:href="#k" x="132.12683" y="32.81713"/><use xlink:href="#f" x="132.36556" y="33.03398" fill="#EC008C"/></svg>