<svg xmlns="http://www.w3.org/2000/svg" xmlns:xlink="http://www.w3.org/1999/xlink" width="162.286pt" height="69.01pt" viewBox="0 0 162.286 69.01"><defs><path id="a" d="m.85938-7.65625.46875.04688c.26562.04687.35937.14062.42187.5625.14063 1.04687.28125 2.20312.42188 3.34375L2.67188 0h.79687l2.32813-3.98437c.75-1.26563 1.46875-2.45313 1.92187-3.15625.26563-.40625.4375-.46875 1.04688-.51563l.0625-.32812H6.28125l-.0625.32812.64063.04688c.14062.01562.20312.0625.20312.17187 0 .1875-.85937 1.73438-1.82812 3.40625l-1.65625 2.875-.42188-3.0625c-.14062-1.03125-.35937-2.89062-.35937-3.125 0-.14062.04687-.21875.21875-.25l.73437-.0625.0625-.32812H.92188Zm0 0"/><path id="e" d="m1.67188-1.25.48437.46875 2-2 2.01563 2L6.625-1.25l-2-2 2-2.01562-.45312-.46875-2.01563 2-2-2-.48437.46875L3.6875-3.25Zm0 0"/><path id="f" d="M.98438-1.70312c0 1.40625.84375 1.84375 1.65625 1.84375.85937 0 1.82812-.375 2.625-1.70313l-.28125-.21875C4.59375-1.25 3.92188-.4375 3.14063-.4375c-.84375 0-1.01563-.6875-1.01563-1.5 0-1.5.875-3.45312 1.92188-3.45312.375 0 .625.23437.70312.92187.03125.20313.125.34375.32813.34375.28125 0 .75-.26562.75-.64062 0-.59375-.64063-1.03125-1.5-1.03125-2.04688 0-3.34375 2.20312-3.34375 4.09375m0 0"/><path id="k" d="M0-6.96875h.375c.01563-.70312.15625-.875.54688-.875.17187 0 1.26562.1875 1.57812.1875.29688 0 .64063-.01562.78125-.85937h.04688c.14062.84375.4375.85937.78125.85937s1.40625-.1875 1.59375-.1875c.39062 0 .51562.17188.53125.875h.375V-7.25c0-1.03125-.51563-1.26562-1.0625-1.26562-.1875 0-1.26563.17187-1.54688.17187-.32812 0-.51562-.03125-.51562-.67187H3.125c0 .64062-.23437.67187-.51562.67187-.29688 0-1.35938-.17187-1.54688-.17187C.51563-8.51562 0-8.28125 0-7.25Zm0 0"/><path id="b" d="M.32813-2.70312C.32813-1.125.8125.09375 2.1875.09375S4.04688-1.125 4.04688-2.70312 3.5625-5.48437 2.1875-5.48437.32813-4.28125.32813-2.70312m.92187 0c0-1.21875.1875-2.48438.9375-2.48438.73438 0 .92188 1.26563.92188 2.48438s-.1875 2.5-.92188 2.5c-.75 0-.9375-1.28125-.9375-2.5m0 0"/><path id="c" d="M.875 0h2.70313v-.25L2.9375-.3125c-.17187-.01562-.26562-.07812-.26562-.375v-4.76562L2.625-5.48437l-1.73437.28125v.21875l.6875.09375c.15624.03125.20312.09375.20312.32812v3.875c0 .29688-.07812.35938-.26562.375L.875-.25Zm0 0"/><path id="d" d="M.23438-.09375.32813 0H3.75l.29688-1.15625-.25-.03125c-.1875.42188-.32813.48438-.65625.48438h-2.0625c.125-.39063.5625-.9375 1.34375-1.45313.8125-.54687 1.39062-.92187 1.39062-1.8125 0-1.125-.76562-1.51562-1.65625-1.51562-1.09375 0-1.71875.625-1.71875 1.125 0 .28125.32813.42187.5.42187.15625 0 .23438-.07812.26563-.23437.125-.57813.4375-1.01563.90625-1.01563.5625 0 .75.48438.75 1.07813 0 .78125-.35938 1.29687-1.10938 1.9375C.71875-1.28125.35938-.70312.23438-.09375m0 0"/><path id="g" d="M.6875-1.21875c0 1 .59375 1.3125 1.1875 1.3125.60938 0 1.3125-.25 1.875-1.23437l-.20312-.15626c-.29688.39063-.73438.96876-1.28125.96876-.54688 0-.67188-.46875-.67188-1.01563 0-1.0625.60938-2.40625 1.28125-2.40625.23438 0 .39063.15625.45313.625.03125.15625.09375.26563.26562.26563.21875 0 .5625-.1875.5625-.45313 0-.4375-.4375-.75-1.07812-.75-1.5 0-2.39063 1.54688-2.39063 2.84375m0 0"/><path id="i" d="m1.15625-.90625.375.39063 1.375-1.39063 1.375 1.39063.39063-.375-1.375-1.39063 1.375-1.375-.39063-.39062-1.375 1.375-1.375-1.375-.375.39062 1.375 1.375Zm0 0"/><path id="h" d="M.6875 0h2.15625v-.20312L2.35938-.25c-.14063-.01562-.20313-.0625-.20313-.29687v-3.71875l-.04687-.04688-1.40625.23438v.17187l.5.07813c.14062.01562.1875.07812.1875.28125v3c0 .23437-.0625.28124-.21876.29687L.6875-.20312Zm0 0"/><path id="j" d="M.20313-.09375.26563 0h2.75L3.25-.95312 3.04688-1c-.15625.34375-.26563.39063-.51563.39063h-1.625c.10938-.28126.40625-.6875 1.04688-1.09375C2.625-2.125 3.0625-2.4375 3.0625-3.125c0-.875-.60937-1.1875-1.32812-1.1875-.85938 0-1.39063.46875-1.39063.90625 0 .23438.28125.35938.4375.35938.10938 0 .1875-.07813.21875-.20313.09375-.46875.32813-.8125.6875-.8125.40625 0 .54688.35938.54688.8125 0 .5625-.21875 1-.84375 1.51563C.5625-1.01562.26563-.54687.20313-.09376m0 0"/></defs><use xlink:href="#a" x="4.88794" y="52.58463"/><use xlink:href="#b" x="11.87273" y="55.28588"/><use xlink:href="#a" x="74.75169" y="52.63195"/><use xlink:href="#c" x="81.73649" y="55.3332"/><use xlink:href="#a" x="144.61544" y="52.63195"/><use xlink:href="#d" x="151.60147" y="55.3332"/><path fill="none" stroke="#007F7F" stroke-miterlimit="10" stroke-width=".39287" d="M21.30469 49.99219h44.59374"/><path fill="#007F7F" stroke="#007F7F" stroke-miterlimit="10" stroke-width=".39287" d="M69.67969 49.99219c-.46485-.125-2.50782-.83203-3.78125-1.60156v3.20703c1.27343-.77344 3.3164-1.48047 3.78125-1.60547Zm0 0"/><path fill="none" stroke="#FF7F00" stroke-miterlimit="10" stroke-width=".39287" d="M91.16796 49.99219h44.59374"/><path fill="#FF7F00" stroke="#FF7F00" stroke-miterlimit="10" stroke-width=".39287" d="M139.54687 49.99219c-.46484-.125-2.5078-.83203-3.78515-1.60156v3.20703c1.27734-.77344 3.32031-1.48047 3.78515-1.60547Zm0 0"/><path fill="none" stroke="#EC008C" stroke-miterlimit="10" stroke-width=".39287" d="M21.30469 44.0039c40.17968-23.2031 78.79295-23.2031 115.06248-2.2617"/><path fill="#EC008C" stroke="#EC008C" stroke-miterlimit="10" stroke-width=".39286" d="M139.64453 43.63672c-.33984-.33985-1.7539-1.97656-2.47656-3.28125l-1.60156 2.77734c1.48828-.03125 3.61328.3789 4.07812.5039Zm0 0"/><use xlink:href="#e" x="36.43734" y="61.24145"/><use xlink:href="#f" x="44.73702" y="61.24145" fill="#007F7F"/><use xlink:href="#c" x="50.18758" y="63.94146" fill="#007F7F"/><use xlink:href="#e" x="106.30109" y="61.21778"/><use xlink:href="#f" x="114.60077" y="61.21778" fill="#FF7F00"/><use xlink:href="#d" x="120.05133" y="63.9178" fill="#FF7F00"/><use xlink:href="#e" x="64.5668" y="20.46245"/><use xlink:href="#g" x="74.23066" y="8.1491" fill="#007F7F"/><use xlink:href="#h" x="78.72494" y="10.03948" fill="#007F7F"/><use xlink:href="#i" x="82.71889" y="8.1491"/><use xlink:href="#g" x="88.52806" y="8.1491" fill="#FF7F00"/><use xlink:href="#j" x="93.02233" y="10.03948" fill="#FF7F00"/><use xlink:href="#k" x="82.32085" y="20.32813"/><use xlink:href="#f" x="82.4675" y="20.46245" fill="#EC008C"/></svg>