<svg xmlns="http://www.w3.org/2000/svg" xmlns:xlink="http://www.w3.org/1999/xlink" width="381.465pt" height="147.367pt" viewBox="0 0 381.465 147.367"><defs><path id="a" d="m1.5625-13.90625.84375.09375c.5.0625.67188.25.78125 1 .25 1.92188.5 4 .76563 6.09375L4.84375 0h1.45313l4.23437-7.23437c1.35938-2.3125 2.65625-4.45313 3.5-5.75.46875-.71875.78125-.82813 1.90625-.92188l.10938-.59375h-4.625l-.10938.59375 1.15625.09375c.25.01563.35938.10938.35938.29688 0 .34375-1.5625 3.14062-3.32813 6.20312l-3 5.21875-.76562-5.57812c-.25-1.85938-.64063-5.25-.64063-5.67188 0-.25.07813-.40625.375-.45312l1.34375-.10938.10938-.59375h-5.25Zm0 0"/><path id="d" d="m3.03125-2.28125.875.875L7.54688-5.0625l3.65625 3.65625.84375-.875-3.64063-3.625 3.64063-3.67187-.84375-.84375-3.65625 3.64062-3.64063-3.64062-.875.84375L6.6875-5.90625Zm0 0"/><path id="b" d="M.59375-4.90625c0 2.875.875 5.07813 3.375 5.07813s3.375-2.20313 3.375-5.07813-.875-5.07812-3.375-5.07812-3.375 2.20312-3.375 5.07812m1.6875 0c0-2.21875.34375-4.53125 1.6875-4.53125s1.6875 2.3125 1.6875 4.53125S5.3125-.375 3.96875-.375s-1.6875-2.3125-1.6875-4.53125m0 0"/><path id="c" d="M1.59375 0h4.92188v-.45312L5.34375-.5625c-.32812-.03125-.48437-.14062-.48437-.6875v-8.65625l-.09375-.07812-3.15625.53125v.39062l1.26562.17188c.28125.04687.375.15625.375.60937V-1.25c0 .54688-.14062.65625-.48437.6875l-1.17188.10938Zm0 0"/><path id="e" d="M1.03125-5.04687C1.03125-1.54687 2.75.25 5.89063.25c1.46875 0 3.45312-.76562 4.03125-3.01562l-.625-.29688c-.64063 1.48438-1.46875 2.21875-3 2.21875-2.5 0-3.07813-2.60937-3.07813-4.57812 0-3.125 1.21875-4.375 2.67188-4.375.95312 0 1.5625.6875 1.98437 1.82812.14063.34375.26563.53125.67188.53125.42187 0 1.21875-.26562 1.21875-1.0625 0-.95312-1.375-2.03125-3.65625-2.03125-3.8125 0-5.07813 2.70313-5.07813 5.48438m0 0"/><path id="f" d="M1.03125-5.125C1.03125-1.73437 2.70313.25 6.0625.25c3.375 0 5.03125-1.98437 5.03125-5.375S9.4375-10.53125 6.0625-10.53125c-3.35937 0-5.03125 2.01563-5.03125 5.40625m2.1875 0c0-2.90625.9375-4.67187 2.84375-4.67187 1.92188 0 2.85938 1.76562 2.85938 4.67187 0 2.89063-.9375 4.64063-2.85938 4.64063-1.90625 0-2.84375-1.75-2.84375-4.64063m0 0"/><path id="g" d="M1.03125-5.0625C1.03125-1.73437 2.45313.25 5.875.25c2.3125 0 3.51563-1.29687 4.07813-2.95312l-.625-.32813C8.75-1.8125 7.9375-.82812 6.29688-.82812c-2.60938 0-3.125-2.5-3.07813-4.6875h6.04688c.4375 0 .8125-.10938.8125-.79688 0-1.23437-.39063-4.21875-4.23438-4.21875-3.28125 0-4.8125 2.3125-4.8125 5.46875m2.20313-1.25c0-.875.3125-3.48437 2.5-3.48437 1.9375 0 2.17187 1.98437 2.17187 2.8125 0 .40625-.14062.67187-.71875.67187Zm0 0"/><path id="h" d="M4.21875-10.28125v-1.03125c0-2.35937 1.21875-3.17187 2.1875-3.17187 1.0625 0 1.51563.39062 2.29688 1.39062.125.17188.25.32813.5625.32813h.01562c-.21875.625-.35937 1.3125-.35937 2.09375v.39062ZM10.0625-14.125c-.5625-.57812-2.09375-1.10937-3.39062-1.10937-1.14063 0-2.70313.51562-3.23438 1.3125-.5.73437-1.1875 1.6875-1.1875 3.07812v.5625H.625v.84375H2.25v7.60938c0 1.0625-.0625 1.10937-1.57812 1.21875V0H6v-.60937C4.3125-.6875 4.21875-.73437 4.21875-1.8125v-7.625h4.70313v7.60938c0 1.0625-.04688 1.10937-1.5625 1.21875V0h5.34375v-.60937C11-.6875 10.90625-.73437 10.90625-1.8125v-7.625h4.04688c.53125 0 .67187.21875.67187.95313v6.65625c0 1.0625-.04687 1.10937-1.5625 1.21875V0h5.10938v-.60937c-1.5-.10938-1.5625-.15626-1.5625-1.21875v-8.70313c-.70313.0625-1.96876.25-3.64063.25h-3.0625V-11.25c0-3.07812 1.39063-3.59375 2.54688-3.59375 1.03125 0 1.78125.65625 2.1875 1.79688.09375.1875.25.375.60937.375.46875 0 1.125-.29688 1.125-.96875 0-.90625-1.28125-1.90625-3.67187-1.90625-1.60938 0-2.84375.51562-3.64063 1.42187m0 0"/><path id="i" d="M1.92188-13.71875c0 .75.53125 1.29688 1.29687 1.29688.75 0 1.26563-.54688 1.26563-1.29688C4.48438-14.48437 3.96875-15 3.21875-15c-.76562 0-1.29687.51563-1.29687 1.28125M.67188 0h5.10937v-.60937c-1.5-.10938-1.5625-.15626-1.5625-1.21875v-8.5625l-.15625-.14063L.78125-10v.51563l.78125.10937c.53125.09375.6875.1875.6875.9375v6.60938c0 1.0625-.0625 1.10937-1.57812 1.21875Zm0 0"/><path id="j" d="M.67188 0h5.10937v-.60937c-1.5-.10938-1.5625-.15626-1.5625-1.21875v-4.90625c0-.54688.01563-.8125.20313-1.14063.4375-.82812 1.375-1.51562 2.5-1.51562 1.42187 0 2.20312.78125 2.20312 2.60937v4.95313c0 1.0625-.0625 1.10937-1.57812 1.21875V0h5.125v-.60937c-1.5-.10938-1.57813-.15626-1.57813-1.21875V-7.1875c0-2.10937-1.17187-3.34375-3.07812-3.34375-1.5625 0-2.53125.76563-3.82813 1.60938l-.28125-1.60938L.78125-10v.51563l.78125.10937c.53125.09375.6875.1875.6875.9375v6.60938c0 1.0625-.0625 1.10937-1.57812 1.21875Zm0 0"/><path id="k" d="M.64063-9.4375h1.53125v7.29688C2.17188 0 3.75.25 4.48438.25 5.5625.25 6.5625-.29687 7.15625-.67187L7-1.10937c-.5.1875-.95312.26562-1.48437.26562-.71875 0-1.39063-.51562-1.39063-2.09375v-6.5h2.70313v-.84375H4.125v-2.64062h-.59375L2.25-10.28125H.64063Zm0 0"/><path id="l" d="M.67188 0h5.10937v-.60937c-1.5-.10938-1.5625-.15626-1.5625-1.21875v-4.90625c0-.54688 0-.82813.15625-1.125.40625-.84375 1.3125-1.53125 2.46875-1.53125 1.8125 0 2.03125 1.3125 2.03125 2.60937v4.95313c0 1.0625-.0625 1.10937-1.57812 1.21875V0h5.10937v-.60937c-1.5-.10938-1.5625-.15626-1.5625-1.21875v-4.90625c0-.54688.01563-.8125.15625-1.14063.3125-.84375 1.20313-1.51562 2.39063-1.51562 1.3125 0 2.10937.73437 2.10937 2.60937v4.95313c0 1.0625-.0625 1.10937-1.57812 1.21875V0h5.14062v-.60937c-1.5-.10938-1.59375-.15626-1.59375-1.21875V-7.1875c0-2.10937-1.14062-3.34375-3.125-3.34375-1.71875 0-2.9375 1.14063-3.67187 1.60938-.51563-.98438-1.32813-1.60938-2.79688-1.60938-1.60937 0-2.92187 1.07813-3.65625 1.60938l-.20312-1.60938L.78125-10v.51563l.78125.10937c.53125.09375.6875.1875.6875.9375v6.60938c0 1.0625-.0625 1.10937-1.57812 1.21875Zm0 0"/><path id="m" d="m.53125-9.48437.8125.10937c.53125.09375.67188.1875.67188.9375v5.53125C2.01563-.48437 3.4375.25 5 .25c1.78125 0 3.23438-1.20312 3.82813-1.5L9.03125 0h3.375v-.60937c-1.45312-.10938-1.57812-.15626-1.57812-1.21875v-8.5625l-.15625-.14063L7.39063-10v.51563l.79687.10937c.53125.09375.67188.1875.67188.9375v4.73438c0 .57812-.0625 1.04687-.1875 1.25C8.1875-1.5 7.20313-.875 6.10938-.875 4.89063-.875 4-1.65625 4-3.28125v-7.10937l-.15625-.14063L.53125-10Zm0 0"/><path id="n" d="M.42188 0h5.10937v-.60937c-1.5-.10938-1.5625-.15626-1.5625-1.21875V-15.4375l-.15625-.10937-3.28125.51562V-14.5l.78125.0625c.54688.0625.67188.1875.67188.98438v11.625c0 1.0625-.04688 1.10937-1.5625 1.21875Zm0 0"/><path id="o" d="M.53125 4.21875v.59375h5.42188v-.59375C4.1875 4.10938 4.0625 4.0625 4.0625 2.98438V-.21875C4.5.01563 5.51563.25 6.46875.25c2.82813 0 5.25-1.29687 5.25-5.625 0-1.5-.26562-5.15625-4.09375-5.15625-1.53125 0-2.73437 1.03125-3.5625 1.5625l-.26562-1.5625L.625-10v.51563l.79688.10937c.54687.09375.67187.1875.67187.9375V2.98438c0 1.07812-.07812 1.125-1.5625 1.23437M4.0625-3.29687v-3.4375c0-.54688.10938-.8125.28125-1.1875.5-.95313 1.375-1.46875 2.48438-1.46875.84375 0 2.71875.53125 2.71875 4.14062 0 3.07813-.98438 4.76563-3.07813 4.76563-1.09375 0-1.92187-.5625-2.25-1.53125-.14062-.375-.15625-.79688-.15625-1.28125m0 0"/><path id="p" d="M1.03125-2.71875c0 1.5625 1.04688 2.96875 3 2.96875C5.26563.25 6.5-.5625 7.15625-1 7.45313-.21875 7.8125.25 8.54688.25c.78125 0 1.67187-.23437 2.46875-.625l-.125-.5c-.29688.07813-.76563.09375-1.07813 0-.375-.07812-.73437-.46875-.73437-1.78125V-7.75c0-1.21875-.26563-2.78125-3.4375-2.78125-2.35938 0-4.23438 1.23438-4.23438 2.39063 0 .67187.78125.98437 1.1875.98437.4375 0 .54688-.23437.65625-.59375.46875-1.54687 1.32813-2.04687 2.17188-2.04687.82812 0 1.76562.42187 1.76562 2.09375v.875C6.65625-6.29687 4.625-5.75 2.96875-5.21875c-1.51562.46875-1.9375 1.51563-1.9375 2.5m2.10938-.29687c0-.98438.45312-1.48438 1.64062-1.9375.84375-.3125 1.9375-.71875 2.40625-1v2.96875c0 1.6875-1.29687 2.10937-2.125 2.10937-1.29687 0-1.92187-.90625-1.92187-2.14062m0 0"/><path id="q" d="M.67188 0h5.53125v-.60937c-1.875-.10938-1.98438-.15626-1.98438-1.21875v-4.90625c0-1.60938.71875-2.17188 1.20313-2.17188.32812 0 .6875.14063 1.29687.46875.15625.09375.3125.10938.42188.10938.51562 0 .95312-.53125.95312-1.17188 0-.46875-.28125-1.03125-1.10937-1.03125-.76563 0-1.39063.45313-2.76563 1.67188l-.25-1.67188L.78125-10v.51563l.78125.10937c.53125.09375.6875.1875.6875.9375v6.60938c0 1.0625-.10937 1.10937-1.57812 1.21875Zm0 0"/><path id="r" d="m4.21875-11.78125.3125.42188L7.70313-13.125c.625-.32812 1.17187-.6875 1.17187-1.125s-.51562-.92187-.8125-.92187c-.35937 0-.71875.21875-1.34375.875ZM1.03125-5.0625C1.03125-1.73437 2.45313.25 5.875.25c2.3125 0 3.51563-1.29687 4.07813-2.95312l-.625-.32813C8.75-1.8125 7.9375-.82812 6.29688-.82812c-2.60938 0-3.125-2.5-3.07813-4.6875h6.04688c.4375 0 .8125-.10938.8125-.79688 0-1.23437-.39063-4.21875-4.23438-4.21875-3.28125 0-4.8125 2.3125-4.8125 5.46875m2.20313-1.25c0-.875.3125-3.48437 2.5-3.48437 1.9375 0 2.17187 1.98437 2.17187 2.8125 0 .40625-.14062.67187-.71875.67187Zm0 0"/><path id="s" d="M1.03125-4.89062C1.03125-1.54687 2.85938.25 5.40625.25c1.17188 0 2.1875-.5625 3.26563-1.35937v4.09375c0 1.07812-.10938 1.125-1.67188 1.23437v.59375h5.23438v-.59375c-1.45313-.10937-1.5625-.15625-1.5625-1.23437v-13.51563h-.59375l-.89063.64063c-.79687-.4375-1.875-.64063-2.76562-.64063-1.67188 0-3.01563.51563-3.92188 1.45313-.92187.9375-1.46875 2.29687-1.46875 4.1875m2.1875-.26563c0-2.59375.89063-4.64062 3.03125-4.64062 1.09375 0 1.875.375 2.26563 1.45312.14062.32813.15625.6875.15625 1.20313v3.54687c0 .46875 0 .82813-.125 1.15625C8.14063-1.3125 7.34375-.875 6.1875-.875c-2.07812 0-2.96875-1.90625-2.96875-4.28125m0 0"/></defs><use xlink:href="#a" x="84.23595" y="78.08061"/><use xlink:href="#b" x="96.93664" y="82.99152"/><use xlink:href="#a" x="274.75658" y="78.16724"/><use xlink:href="#c" x="287.45504" y="83.07591"/><path fill="none" stroke="#007F7F" stroke-miterlimit="10" stroke-width=".39679" d="M114.08203 62.47656c51.59375-29.78906 101.17579-29.78906 148.82032-2.27344"/><path fill="#007F7F" stroke="#007F7F" stroke-miterlimit="10" stroke-width=".39679" d="M266.21484 62.11328c-.34375-.34375-1.77343-1.9961-2.5039-3.3125l-1.61719 2.80469c1.5039-.03125 3.64844.38281 4.1211.50781Zm0 0"/><path fill="none" stroke="#FF7F00" stroke-miterlimit="10" stroke-width=".39679" d="M266.85547 84.2539c-51.59765 29.79298-101.17969 29.79298-148.82422 2.28516"/><path fill="#FF7F00" stroke="#FF7F00" stroke-miterlimit="10" stroke-width=".39679" d="M114.72266 84.6289c.34375.34376 1.77343 1.9922 2.5 3.3125l1.62109-2.80468c-1.50781.03125-3.65234-.38281-4.1211-.50781Zm0 0"/><use xlink:href="#d" x="62.41567" y="22.99622"/><g fill="#007F7F"><use xlink:href="#e" x="77.50461" y="22.99622"/><use xlink:href="#f" x="87.90576" y="22.99622"/><use xlink:href="#g" x="100.00324" y="22.99622"/><use xlink:href="#h" x="110.78383" y="22.99622"/><use xlink:href="#e" x="130.26925" y="22.99622"/><use xlink:href="#i" x="140.6704" y="22.99622"/><use xlink:href="#g" x="146.76378" y="22.99622"/><use xlink:href="#j" x="157.54437" y="22.99622"/><use xlink:href="#k" x="170.51233" y="22.99622"/></g><g fill="#007F7F"><use xlink:href="#l" x="182.43124" y="22.99622"/><use xlink:href="#m" x="201.78274" y="22.99622"/><use xlink:href="#n" x="214.48286" y="22.99622"/><use xlink:href="#k" x="220.33071" y="22.99622"/><use xlink:href="#i" x="227.5401" y="22.99622"/><use xlink:href="#o" x="233.63347" y="22.99622"/><use xlink:href="#n" x="246.37823" y="22.99622"/><use xlink:href="#i" x="252.22609" y="22.99622"/><use xlink:href="#e" x="258.31947" y="22.99622"/><use xlink:href="#p" x="268.72062" y="22.99622"/><use xlink:href="#k" x="279.67977" y="22.99622"/><use xlink:href="#g" x="286.88915" y="22.99622"/><use xlink:href="#m" x="297.66974" y="22.99622"/><use xlink:href="#q" x="310.36986" y="22.99622"/></g><use xlink:href="#d" x="7.98846" y="134.47637"/><g fill="#FF7F00"><use xlink:href="#e" x="23.07739" y="134.47637"/><use xlink:href="#f" x="33.47855" y="134.47637"/><use xlink:href="#g" x="45.57602" y="134.47637"/><use xlink:href="#h" x="56.35661" y="134.47637"/><use xlink:href="#e" x="75.84203" y="134.47637"/><use xlink:href="#i" x="86.24318" y="134.47637"/><use xlink:href="#g" x="92.33656" y="134.47637"/><use xlink:href="#j" x="103.11715" y="134.47637"/><use xlink:href="#k" x="116.08511" y="134.47637"/></g><g fill="#FF7F00"><use xlink:href="#l" x="128.00403" y="134.47637"/><use xlink:href="#m" x="147.35553" y="134.47637"/><use xlink:href="#n" x="160.05564" y="134.47637"/><use xlink:href="#k" x="165.9035" y="134.47637"/><use xlink:href="#i" x="173.11288" y="134.47637"/><use xlink:href="#o" x="179.20626" y="134.47637"/><use xlink:href="#n" x="191.95102" y="134.47637"/><use xlink:href="#i" x="197.79888" y="134.47637"/><use xlink:href="#e" x="203.89225" y="134.47637"/><use xlink:href="#p" x="214.29341" y="134.47637"/><use xlink:href="#k" x="225.25256" y="134.47637"/><use xlink:href="#g" x="232.46194" y="134.47637"/><use xlink:href="#m" x="243.24253" y="134.47637"/><use xlink:href="#q" x="255.94265" y="134.47637"/></g><g fill="#FF7F00"><use xlink:href="#q" x="268.79901" y="134.47637"/><use xlink:href="#r" x="276.94583" y="134.47637"/><use xlink:href="#e" x="287.72642" y="134.47637"/><use xlink:href="#i" x="298.12757" y="134.47637"/><use xlink:href="#o" x="304.22095" y="134.47637"/><use xlink:href="#q" x="316.96571" y="134.47637"/></g><g fill="#FF7F00"><use xlink:href="#f" x="324.97861" y="134.47637"/><use xlink:href="#s" x="337.07609" y="134.47637"/><use xlink:href="#m" x="349.46373" y="134.47637"/><use xlink:href="#g" x="362.16384" y="134.47637"/></g></svg>