<svg xmlns="http://www.w3.org/2000/svg" xmlns:xlink="http://www.w3.org/1999/xlink" width="220.403pt" height="85.152pt" viewBox="0 0 220.403 85.152"><defs><path id="a" d="m.89063-7.98437.5.04687c.28124.03125.375.14063.4375.57813.14062 1.09375.28124 2.29687.4375 3.5L2.78125 0H3.625l2.4375-4.15625c.78125-1.32812 1.51563-2.5625 2-3.3125.28125-.40625.45313-.46875 1.09375-.51562l.0625-.35938H6.5625L6.5-7.98437l.67188.04687c.14062.01563.20312.0625.20312.15625 0 .21875-.89062 1.8125-1.90625 3.57813l-1.73437 3-.4375-3.20313c-.14063-1.07812-.375-3.01562-.375-3.26562 0-.14063.04687-.23438.21875-.25l.76562-.0625.07813-.35938H.96875Zm0 0"/><path id="d" d="m1.75-1.3125.5.5 2.07813-2.09375L6.4375-.8125l.48438-.5-2.07813-2.09375L6.92188-5.5l-.48438-.48437-2.10937 2.07812L2.25-5.98437 1.75-5.5l2.09375 2.09375Zm0 0"/><path id="b" d="M.34375-2.82812c0 1.65625.5 2.92187 1.9375 2.92187s1.9375-1.26562 1.9375-2.92187c0-1.64063-.5-2.90625-1.9375-2.90625S.34375-4.46875.34375-2.82812m.96875 0c0-1.26563.20313-2.59375.96875-2.59375.76563 0 .96875 1.32812.96875 2.59375 0 1.28125-.20312 2.60937-.96875 2.60937-.76562 0-.96875-1.32812-.96875-2.60937m0 0"/><path id="c" d="M.92188 0H3.75v-.26562l-.67187-.0625c-.1875-.01563-.28125-.07813-.28125-.39063v-4.98437l-.0625-.03125-1.8125.29687v.23438l.73437.09375c.15625.03125.21875.09375.21875.34375v4.04687c0 .3125-.09375.375-.28125.39063l-.67187.0625Zm0 0"/><path id="e" d="M.59375-2.90625c0 2.01563.98438 3.04688 2.79688 3.04688.84375 0 1.98437-.4375 2.3125-1.73438L5.34375-1.75C4.98438-.90625 4.5-.48437 3.625-.48437c-1.4375 0-1.78125-1.5-1.78125-2.64063 0-1.78125.70313-2.5 1.54688-2.5.54687 0 .89062.39063 1.14062 1.04688.07813.1875.15625.3125.375.3125.25 0 .71875-.15625.71875-.625 0-.54688-.79687-1.17188-2.10937-1.17188C1.32813-6.0625.59375-4.5.59375-2.90625m0 0"/><path id="f" d="M.59375-2.95312C.59375-1 1.54688.14063 3.48438.14063S6.375-1 6.375-2.95312c0-1.95313-.95312-3.10938-2.89062-3.10938S.59375-4.90625.59375-2.95312m1.25 0c0-1.67188.54688-2.67188 1.64063-2.67188 1.10937 0 1.64062 1 1.64062 2.67188S4.59375-.28125 3.48438-.28125c-1.09375 0-1.64063-1-1.64063-2.67187m0 0"/><path id="g" d="M.59375-2.90625C.59375-1 1.40625.14063 3.375.14063c1.32813 0 2.03125-.75 2.34375-1.6875L5.35938-1.75C5.03125-1.04687 4.5625-.46875 3.625-.46875c-1.51562 0-1.79687-1.4375-1.78125-2.70312h3.48438c.25 0 .46875-.0625.46875-.45313 0-.70312-.23438-2.4375-2.4375-2.4375-1.89063 0-2.76563 1.34375-2.76563 3.15625M1.85938-3.625c0-.5.1875-2 1.4375-2 1.10937 0 1.25 1.14063 1.25 1.60938 0 .23437-.07813.39062-.42188.39062Zm0 0"/><path id="h" d="M2.42188-5.90625V-6.5c0-1.35937.70312-1.82812 1.26562-1.82812.60938 0 .85938.21875 1.3125.79687.07813.10938.14063.1875.32813.1875h.01562c-.14062.35938-.21875.76563-.21875 1.21875v.21875ZM5.78125-8.125c-.3125-.32812-1.20312-.64062-1.95312-.64062-.64063 0-1.54688.29687-1.85938.76562-.28125.42188-.67187.96875-.67187 1.76563v.32812h-.9375v.48438h.9375v4.375c0 .60937-.04688.64062-.90625.70312V0h3.0625v-.34375c-.98438-.04687-1.03125-.07812-1.03125-.70312v-4.375H5.125v4.375c0 .60937-.01562.64062-.89062.70312V0h3.0625v-.34375c-.96875-.04687-1.03125-.07812-1.03125-.70312v-4.375h2.32812c.3125 0 .39063.125.39063.54687v3.82813c0 .60937-.03125.64062-.90625.70312V0h2.9375v-.34375c-.85938-.0625-.89063-.09375-.89063-.70312V-6.0625c-.40625.04688-1.125.15625-2.09375.15625H6.26563v-.5625c0-1.76562.79687-2.0625 1.46875-2.0625.59375 0 1.03125.375 1.26562 1.03125.04688.10938.14063.21875.34375.21875.26563 0 .65625-.17187.65625-.5625 0-.51562-.75-1.09375-2.125-1.09375-.92187 0-1.625.29688-2.09375.8125m0 0"/><path id="i" d="M1.10938-7.89062c0 .4375.29687.75.73437.75s.73438-.3125.73438-.75-.29688-.73438-.73438-.73438-.73437.29688-.73437.73438M.39063 0h2.9375v-.34375c-.85938-.0625-.90625-.09375-.90625-.70312v-4.9375l-.09375-.07813-1.875.3125v.29688l.4375.0625c.3125.04687.40625.10937.40625.54687v3.79688c0 .60937-.04688.64062-.90625.70312Zm0 0"/><path id="j" d="M.39063 0h2.9375v-.34375c-.85938-.0625-.90625-.09375-.90625-.70312V-3.875c0-.3125.01562-.45312.125-.65625.25-.46875.78125-.875 1.4375-.875.8125 0 1.26562.45313 1.26562 1.5v2.85938c0 .60937-.04687.64062-.92187.70312V0h2.95312v-.34375C6.42188-.40625 6.375-.4375 6.375-1.04687V-4.125c0-1.21875-.67187-1.9375-1.76562-1.9375-.90625 0-1.45313.4375-2.20313.9375L2.25-6.0625.45313-5.75v.29688l.4375.0625c.3125.04687.40625.10937.40625.54687v3.79688c0 .60937-.04688.64062-.90625.70312Zm0 0"/><path id="k" d="M.375-5.42187h.875v4.1875C1.25 0 2.15625.14063 2.57813.14063c.60937 0 1.1875-.3125 1.54687-.53125l-.09375-.25c-.29687.10937-.5625.15624-.85937.15624-.40625 0-.79688-.29687-.79688-1.20312v-3.73437h1.54688v-.48438H2.375v-1.51562h-.34375l-.73437 1.51562H.375Zm0 0"/><path id="l" d="M.39063 0h2.9375v-.34375c-.85938-.0625-.90625-.09375-.90625-.70312V-3.875c0-.3125 0-.46875.09375-.64062.23437-.48438.75-.89063 1.42187-.89063 1.04688 0 1.17188.76563 1.17188 1.5v2.85938c0 .60937-.04688.64062-.92188.70312V0H7.125v-.34375c-.85937-.0625-.89062-.09375-.89062-.70312V-3.875c0-.3125.01562-.45312.09375-.65625.17187-.48437.6875-.875 1.375-.875.75 0 1.21875.42188 1.21875 1.5v2.85938c0 .60937-.04688.64062-.92188.70312V0h2.95313v-.34375c-.85938-.0625-.90625-.09375-.90625-.70312V-4.125c0-1.21875-.65625-1.9375-1.79688-1.9375-.98437 0-1.6875.65625-2.125.9375-.28125-.57812-.75-.9375-1.59375-.9375-.92187 0-1.6875.625-2.10937.9375l-.10938-.9375L.45313-5.75v.29688l.4375.0625c.3125.04687.40625.10937.40625.54687v3.79688c0 .60937-.04688.64062-.90625.70312Zm0 0"/><path id="m" d="m.3125-5.45312.45313.0625c.3125.04687.39062.10937.39062.54687v3.17188c0 1.39062.8125 1.8125 1.71875 1.8125 1.03125 0 1.85938-.6875 2.20313-.85938L5.20313 0H7.125v-.34375c-.82812-.0625-.90625-.09375-.90625-.70312v-4.9375L6.125-6.0625 4.25-5.75v.29688l.45313.0625c.3125.04687.39062.10937.39062.54687V-2.125c0 .32813-.04687.59375-.10937.71875C4.70313-.85937 4.14063-.5 3.51563-.5c-.70313 0-1.21875-.45312-1.21875-1.39062v-4.09375l-.09375-.07813L.3125-5.75Zm0 0"/><path id="n" d="M.25 0h2.9375v-.34375c-.85937-.0625-.90625-.09375-.90625-.70312V-8.875l-.09375-.0625-1.875.29688v.29687l.4375.04688c.3125.03125.39063.09375.39063.5625v6.6875c0 .60937-.03126.64062-.89063.70312Zm0 0"/><path id="o" d="M.3125 2.42188v.34375h3.10938v-.34375c-1.01563-.0625-1.09375-.09375-1.09375-.70313V-.125c.26562.14063.84375.26563 1.39062.26563 1.625 0 3.01563-.75 3.01563-3.23438 0-.85937-.15625-2.96875-2.34375-2.96875-.89063 0-1.57813.59375-2.0625.90625L2.1875-6.0625.35938-5.75v.29688l.46875.0625c.29687.04687.375.10937.375.54687v6.5625c0 .60938-.04688.64063-.89063.70313m2.01563-4.32813V-3.875c0-.3125.07812-.45312.17187-.67187.28125-.5625.78125-.85938 1.42188-.85938.48437 0 1.5625.3125 1.5625 2.39063 0 1.76562-.5625 2.73437-1.76563 2.73437-.625 0-1.10937-.32812-1.29687-.875-.07813-.21875-.09375-.45312-.09375-.75m0 0"/><path id="p" d="M.59375-1.5625c0 .89063.59375 1.70313 1.73438 1.70313.70312 0 1.40625-.46875 1.79687-.71875.15625.45312.35938.71875.78125.71875.45313 0 .96875-.125 1.4375-.35938L6.26563-.5c-.17188.03125-.4375.04688-.625 0-.21875-.04687-.42188-.26562-.42188-1.03125v-2.92187c0-.70313-.15625-1.60938-1.96875-1.60938-1.35937 0-2.4375.71875-2.4375 1.375 0 .39063.4375.5625.67188.5625.26562 0 .32812-.125.39062-.32812.26563-.89063.75-1.17188 1.25-1.17188.46875 0 1 .23438 1 1.20313v.5C3.82813-3.625 2.65625-3.3125 1.70313-3c-.875.26563-1.10938.875-1.10938 1.4375m1.21875-.17187c0-.5625.25-.85938.9375-1.10938.48438-.1875 1.10938-.42187 1.375-.57812v1.70312C4.125-.75 3.39063-.5 2.90625-.5c-.73437 0-1.09375-.53125-1.09375-1.23437m0 0"/><path id="q" d="M.39063 0H3.5625v-.34375c-1.07812-.0625-1.14062-.09375-1.14062-.70312V-3.875c0-.92187.40625-1.25.70312-1.25.1875 0 .39063.07813.73438.28125.09375.04688.1875.0625.25.0625.29687 0 .54687-.3125.54687-.6875 0-.26562-.17187-.59375-.64062-.59375-.4375 0-.79688.26563-1.59375.96875l-.14063-.96875L.45313-5.75v.29688l.4375.0625c.3125.04687.40625.10937.40625.54687v3.79688c0 .60937-.0625.64062-.90625.70312Zm0 0"/><path id="r" d="m2.42188-6.76562.1875.23437 1.8125-1.01562c.35937-.1875.6875-.39063.6875-.65625 0-.23438-.29688-.51563-.48438-.51563-.20312 0-.40625.125-.76562.5ZM.59375-2.90625C.59375-1 1.40625.14063 3.375.14063c1.32813 0 2.03125-.75 2.34375-1.6875L5.35938-1.75C5.03125-1.04687 4.5625-.46875 3.625-.46875c-1.51562 0-1.79687-1.4375-1.78125-2.70312h3.48438c.25 0 .46875-.0625.46875-.45313 0-.70312-.23438-2.4375-2.4375-2.4375-1.89063 0-2.76563 1.34375-2.76563 3.15625M1.85938-3.625c0-.5.1875-2 1.4375-2 1.10937 0 1.25 1.14063 1.25 1.60938 0 .23437-.07813.39062-.42188.39062Zm0 0"/><path id="s" d="M.59375-2.8125c0 1.92188 1.04688 2.95313 2.51563 2.95313.67187 0 1.25-.3125 1.875-.78125v2.35937c0 .60938-.0625.64063-.95313.70313v.34375h3v-.34375c-.82812-.0625-.90625-.09375-.90625-.70313V-6.0625h-.32812l-.51563.375c-.45312-.25-1.07812-.375-1.59375-.375-.95312 0-1.71875.29688-2.25.84375C.90625-4.6875.59375-3.90625.59375-2.8125m1.25-.15625c0-1.48437.51563-2.65625 1.75-2.65625.625 0 1.07813.21875 1.3125.82813.07813.1875.07813.39062.07813.6875v2.04687c0 .26563 0 .46875-.07813.67188C4.6875-.75 4.21875-.5 3.54688-.5c-1.1875 0-1.70313-1.10937-1.70313-2.46875m0 0"/></defs><use xlink:href="#a" x="48.85542" y="44.86421"/><use xlink:href="#b" x="56.15246" y="47.68571"/><use xlink:href="#a" x="158.31733" y="44.91372"/><use xlink:href="#c" x="165.61436" y="47.73393"/><path fill="none" stroke="#007f7f" stroke-miterlimit="10" stroke-width=".39457" d="M66.00782 35.89843c29.65236-17.1211 58.14846-17.1211 83.87113-2.27343"/><path fill="#007f7f" stroke="#007f7f" stroke-miterlimit="10" stroke-width=".39457" d="M153.16797 35.52344c-.33985-.33984-1.76172-1.98047-2.48438-3.29297l-1.60937 2.78906c1.4961-.02734 3.6289.38281 4.09375.5039Zm0 0"/><path fill="none" stroke="#ff7f00" stroke-miterlimit="10" stroke-width=".39457" d="M153.80864 48.41797c-29.65236 17.1172-58.14846 17.1172-83.87113 2.26172"/><path fill="#ff7f00" stroke="#ff7f00" stroke-miterlimit="10" stroke-width=".39457" d="M66.64453 48.78125c.33985.33984 1.76172 1.98437 2.48438 3.29297l1.61328-2.78516c-1.5.02735-3.63281-.38281-4.09766-.50781Zm0 0"/><use xlink:href="#d" x="36.3361" y="13.21242"/><g fill="#007f7f"><use xlink:href="#e" x="45.00527" y="13.21242"/><use xlink:href="#f" x="50.98112" y="13.21242"/><use xlink:href="#g" x="57.93158" y="13.21242"/><use xlink:href="#h" x="64.12544" y="13.21242"/><use xlink:href="#e" x="75.32055" y="13.21242"/><use xlink:href="#i" x="81.29641" y="13.21242"/><use xlink:href="#g" x="84.79729" y="13.21242"/><use xlink:href="#j" x="90.99115" y="13.21242"/><use xlink:href="#k" x="98.44173" y="13.21242"/></g><g fill="#007f7f"><use xlink:href="#l" x="105.2896" y="13.21242"/><use xlink:href="#m" x="116.40777" y="13.21242"/><use xlink:href="#n" x="123.70447" y="13.21242"/><use xlink:href="#k" x="127.06428" y="13.21242"/><use xlink:href="#i" x="131.20635" y="13.21242"/><use xlink:href="#o" x="134.70722" y="13.21242"/><use xlink:href="#n" x="142.02957" y="13.21242"/><use xlink:href="#i" x="145.38939" y="13.21242"/><use xlink:href="#e" x="148.89026" y="13.21242"/><use xlink:href="#p" x="154.86612" y="13.21242"/><use xlink:href="#k" x="161.16257" y="13.21242"/><use xlink:href="#g" x="165.30463" y="13.21242"/><use xlink:href="#m" x="171.49849" y="13.21242"/><use xlink:href="#q" x="178.79519" y="13.21242"/></g><use xlink:href="#d" x="5.06551" y="77.26851"/><g fill="#ff7f00"><use xlink:href="#e" x="13.73339" y="77.26851"/><use xlink:href="#f" x="19.70925" y="77.26851"/><use xlink:href="#g" x="26.65971" y="77.26851"/><use xlink:href="#h" x="32.85357" y="77.26851"/><use xlink:href="#e" x="44.04868" y="77.26851"/><use xlink:href="#i" x="50.02454" y="77.26851"/><use xlink:href="#g" x="53.52541" y="77.26851"/><use xlink:href="#j" x="59.71927" y="77.26851"/><use xlink:href="#k" x="67.16985" y="77.26851"/></g><g fill="#ff7f00"><use xlink:href="#l" x="74.01772" y="77.26851"/><use xlink:href="#m" x="85.13589" y="77.26851"/><use xlink:href="#n" x="92.43259" y="77.26851"/><use xlink:href="#k" x="95.79241" y="77.26851"/><use xlink:href="#i" x="99.93447" y="77.26851"/><use xlink:href="#o" x="103.43535" y="77.26851"/><use xlink:href="#n" x="110.7577" y="77.26851"/><use xlink:href="#i" x="114.11751" y="77.26851"/><use xlink:href="#e" x="117.61839" y="77.26851"/><use xlink:href="#p" x="123.59424" y="77.26851"/><use xlink:href="#k" x="129.89069" y="77.26851"/><use xlink:href="#g" x="134.03276" y="77.26851"/><use xlink:href="#m" x="140.22662" y="77.26851"/><use xlink:href="#q" x="147.52331" y="77.26851"/></g><g fill="#ff7f00"><use xlink:href="#q" x="154.90978" y="77.26851"/><use xlink:href="#r" x="159.59044" y="77.26851"/><use xlink:href="#e" x="165.7843" y="77.26851"/><use xlink:href="#i" x="171.76015" y="77.26851"/><use xlink:href="#o" x="175.26103" y="77.26851"/><use xlink:href="#q" x="182.58338" y="77.26851"/></g><g fill="#ff7f00"><use xlink:href="#f" x="187.1871" y="77.26851"/><use xlink:href="#s" x="194.13755" y="77.26851"/><use xlink:href="#m" x="201.25472" y="77.26851"/><use xlink:href="#g" x="208.55142" y="77.26851"/></g></svg>