<svg xmlns="http://www.w3.org/2000/svg" xmlns:xlink="http://www.w3.org/1999/xlink" width="168.778pt" height="71.774pt" viewBox="0 0 168.778 71.774"><defs><path id="a" d="m.90625-8.04687.48438.0625c.28124.03125.39062.14062.45312.57812.14063 1.10938.28125 2.3125.4375 3.51563L2.79688 0h.84375l2.45312-4.1875C6.875-5.53125 7.625-6.76562 8.125-7.51562c.26563-.40625.4375-.46875 1.09375-.53125l.0625-.34375H6.60938l-.0625.34375.67187.0625c.14063.01562.20313.0625.20313.15625C7.42188-7.60937 6.51563-6 5.5-4.23437L3.75-1.21875 3.3125-4.4375c-.14062-1.07812-.375-3.03125-.375-3.28125 0-.14062.0625-.23437.21875-.25l.78125-.07812L4-8.39062H.96875Zm0 0"/><path id="e" d="m1.75-1.3125.51563.5 2.09375-2.125 2.125 2.125.48437-.5-2.10937-2.10937 2.10937-2.10938-.48437-.5-2.125 2.10938-2.09375-2.10938-.51563.5 2.125 2.10938Zm0 0"/><path id="f" d="M1.03125-1.79687c0 1.48437.89063 1.9375 1.75 1.9375.89063 0 1.92188-.39063 2.75-1.78125L5.23438-1.875c-.40625.5625-1.125 1.42188-1.9375 1.42188-.89063 0-1.0625-.71875-1.0625-1.59375 0-1.5625.92187-3.625 2.03125-3.625.375 0 .65625.25.73437.96875.01563.21875.125.35937.34375.35937.29688 0 .78125-.26562.78125-.65625 0-.625-.67187-1.09375-1.5625-1.09375-2.15625 0-3.53125 2.3125-3.53125 4.29688m0 0"/><path id="k" d="M0-7.32812h.39063C.40625-8.0625.5625-8.25.96875-8.25c.1875 0 1.32813.20313 1.67188.20313.29687 0 .65625-.01563.8125-.89063H3.5c.14063.875.45313.89063.8125.89063S5.79688-8.25 5.98438-8.25c.42187 0 .54687.1875.57812.92188h.375v-.28125c0-1.09375-.53125-1.32813-1.10937-1.32813-.20313 0-1.32813.17188-1.625.17188-.34375 0-.53125-.03125-.53125-.70313h-.39063c0 .67188-.23437.70313-.54687.70313s-1.42188-.17188-1.625-.17188C.54688-8.9375 0-8.70312 0-7.60937Zm0 0"/><path id="b" d="M.34375-2.82812c0 1.65625.5 2.92187 1.95313 2.92187C3.73438.09375 4.25-1.17187 4.25-2.82812c0-1.67188-.51562-2.9375-1.95312-2.9375C.84375-5.76562.34375-4.5.34375-2.82812m.96875 0c0-1.29688.20313-2.625.98438-2.625s.96875 1.32812.96875 2.625c0 1.28125-.1875 2.60937-.96875 2.60937S1.3125-1.54687 1.3125-2.82812m0 0"/><path id="c" d="M.92188 0h2.84375v-.26562l-.67188-.0625c-.1875-.01563-.28125-.07813-.28125-.39063v-5L2.75-5.76562l-1.8125.29687v.23438l.71875.09375c.17188.03125.21875.09375.21875.35937v4.0625c0 .3125-.07812.375-.28125.39063l-.67187.0625Zm0 0"/><path id="d" d="M.25-.09375.34375 0H3.9375L4.25-1.20312 3.98438-1.25c-.1875.45313-.34375.51563-.6875.51563H1.125c.14063-.40625.59375-.98438 1.40625-1.53125.85938-.57813 1.48438-.98438 1.48438-1.90625 0-1.1875-.8125-1.59375-1.75-1.59375-1.15625 0-1.8125.65625-1.8125 1.17187 0 .3125.34375.45313.53125.45313.15624 0 .25-.09375.28124-.25.14063-.59375.45313-1.0625.95313-1.0625.59375 0 .78125.51562.78125 1.125C3-3.5 2.625-2.96875 1.82813-2.28125.75-1.34375.375-.73437.25-.09375m0 0"/><path id="g" d="M.71875-1.26562c0 1.03125.625 1.35937 1.26563 1.35937.625 0 1.35937-.25 1.96875-1.28125l-.23438-.17187c-.29687.40625-.76562 1-1.32812 1-.57813 0-.70313-.46875-.70313-1.04688 0-1.125.625-2.53125 1.34375-2.53125.23438 0 .40625.15625.46875.65625.03125.17188.10938.28125.28125.28125.23438 0 .59375-.20312.59375-.48437 0-.45313-.46875-.78125-1.14062-.78125-1.57813 0-2.51563 1.625-2.51563 3m0 0"/><path id="i" d="m1.20313-.95312.40625.40625L3.04688-2 4.5-.54687l.40625-.39063-1.45312-1.45312 1.45312-1.45313L4.5-4.25 3.04688-2.79687 1.60938-4.25l-.40625.40625 1.45312 1.45313Zm0 0"/><path id="h" d="M.71875 0H3v-.21875l-.51562-.04687c-.15625-.01563-.21875-.0625-.21875-.29688v-3.92187l-.04688-.04688-1.48437.23438v.20312l.53125.07813c.14062.01562.20312.07812.20312.28125V-.5625c0 .23438-.07812.28125-.23437.29688l-.51563.04687Zm0 0"/><path id="j" d="M.20313-.09375.28124 0h2.875l.26563-1-.21875-.04687c-.15625.35937-.28125.40625-.54688.40625H.95313C1.0625-.9375 1.375-1.375 2.04688-1.78125c.70312-.45312 1.17187-.76562 1.17187-1.5 0-.92187-.64062-1.25-1.40625-1.25-.89062 0-1.45312.5-1.45312.95313 0 .25.29687.375.45312.375.125 0 .20313-.07813.23438-.21875.10937-.48438.34375-.84375.71875-.84375.4375 0 .59375.375.59375.85937 0 .57813-.25 1.03125-.89063 1.59375C.59375-1.07812.28125-.57812.20313-.09375m0 0"/></defs><use xlink:href="#a" x="4.45769" y="55.29987"/><use xlink:href="#b" x="11.80296" y="58.14053"/><use xlink:href="#a" x="77.92735" y="55.34972"/><use xlink:href="#c" x="85.27262" y="58.19037"/><use xlink:href="#a" x="151.39701" y="55.34972"/><use xlink:href="#d" x="158.74228" y="58.19037"/><path fill="none" stroke="#007f7f" stroke-miterlimit="10" stroke-width=".39725" d="M21.72266 52.57422h47.08593"/><path fill="#007f7f" stroke="#007f7f" stroke-miterlimit="10" stroke-width=".39725" d="M72.63672 52.57422c-.46875-.125-2.53516-.83984-3.82813-1.6211v3.2422c1.29297-.77735 3.35938-1.4961 3.82813-1.6211Zm0 0"/><path fill="none" stroke="#ff7f00" stroke-miterlimit="10" stroke-width=".39725" d="M95.20702 52.57422h47.08593"/><path fill="#ff7f00" stroke="#ff7f00" stroke-miterlimit="10" stroke-width=".39725" d="M146.1211 52.57422c-.46876-.125-2.53516-.83984-3.82813-1.6211v3.2422c1.29297-.77735 3.35937-1.4961 3.82812-1.6211Zm0 0"/><path fill="none" stroke="#ec008c" stroke-miterlimit="10" stroke-width=".39725" d="M21.72266 46.27734c42.26562-24.40624 82.8789-24.40624 121.18358-2.28906"/><path fill="#ec008c" stroke="#ec008c" stroke-miterlimit="10" stroke-width=".39724" d="M146.21875 45.90235c-.34375-.34766-1.77344-2-2.5-3.31641l-1.6211 2.80469c1.50782-.02735 3.65235.3828 4.1211.51172Zm0 0"/><use xlink:href="#e" x="37.6422" y="64.4052"/><use xlink:href="#f" x="46.37021" y="64.4052" fill="#007f7f"/><use xlink:href="#c" x="52.10206" y="67.24586" fill="#007f7f"/><use xlink:href="#e" x="111.12581" y="64.38028"/><use xlink:href="#f" x="119.85383" y="64.38028" fill="#ff7f00"/><use xlink:href="#d" x="125.58698" y="67.22094" fill="#ff7f00"/><use xlink:href="#e" x="67.23103" y="21.51824"/><use xlink:href="#g" x="77.39363" y="8.56942" fill="#007f7f"/><use xlink:href="#h" x="82.11984" y="10.55736" fill="#007f7f"/><use xlink:href="#i" x="86.31862" y="8.56942"/><use xlink:href="#g" x="92.42888" y="8.56942" fill="#ff7f00"/><use xlink:href="#j" x="97.1551" y="10.55736" fill="#ff7f00"/><use xlink:href="#k" x="85.90134" y="21.37699"/><use xlink:href="#f" x="86.05555" y="21.51824" fill="#ec008c"/></svg>