<svg xmlns="http://www.w3.org/2000/svg" xmlns:xlink="http://www.w3.org/1999/xlink" width="211.925pt" height="81.873pt" viewBox="0 0 211.925 81.873"><defs><path id="a" d="m.875-7.75.46875.04688c.26563.04687.375.14062.4375.5625.14063 1.07812.26563 2.23437.42188 3.39062l.5 3.75H3.5l2.375-4.03125c.75-1.29687 1.46875-2.48437 1.95313-3.20312.25-.40625.4375-.46875 1.04687-.51563l.0625-.32812H6.375L6.3125-7.75l.64063.04688c.14062.01562.20312.0625.20312.17187 0 .1875-.875 1.75-1.85937 3.45313L3.625-1.17187l-.42187-3.10938c-.14063-1.03125-.375-2.92187-.375-3.15625 0-.14062.0625-.21875.21875-.25l.75-.0625.0625-.32812H.9375Zm0 0"/><path id="d" d="m1.6875-1.26562.48438.48437 2.03125-2.04687L6.25-.78125l.46875-.48437L4.6875-3.29687l2.03125-2.03125L6.25-5.8125 4.20313-3.78125 2.17188-5.8125l-.48438.48438 2.04688 2.03125Zm0 0"/><path id="b" d="M.32813-2.73437c0 1.60937.48437 2.82812 1.875 2.82812 1.40625 0 1.89062-1.21875 1.89062-2.82812 0-1.59375-.48437-2.82813-1.89062-2.82813-1.39063 0-1.875 1.23438-1.875 2.82813m.9375 0c0-1.23438.20312-2.51563.9375-2.51563.75 0 .95312 1.28125.95312 2.51563S2.95313-.20312 2.20313-.20312c-.73438 0-.9375-1.29688-.9375-2.53125m0 0"/><path id="c" d="M.89063 0H3.625v-.25l-.65625-.0625c-.17187-.01562-.26562-.07812-.26562-.39062v-4.8125l-.04688-.04688-1.76562.29688v.21875l.70312.09375c.17188.03125.21875.09375.21875.34375v3.90625c0 .3125-.07812.375-.26562.39062L.89063-.25Zm0 0"/><path id="e" d="M.57813-2.8125c0 1.95313.95312 2.95313 2.70312 2.95313.82813 0 1.9375-.42188 2.25-1.6875l-.34375-.15626C4.82813-.89062 4.35938-.46874 3.5-.46874c-1.39062 0-1.70312-1.45312-1.70312-2.54687 0-1.75.67187-2.4375 1.48437-2.4375.53125 0 .875.375 1.10938 1.01562.07812.1875.15625.29688.375.29688.23437 0 .6875-.15625.6875-.59375 0-.54688-.78125-1.14063-2.04688-1.14063-2.125 0-2.82812 1.51563-2.82812 3.0625m0 0"/><path id="f" d="M.57813-2.85937c0 1.89062.92187 3 2.8125 3 1.875 0 2.79687-1.10938 2.79687-3C6.1875-4.75 5.26563-5.875 3.39063-5.875 1.5-5.875.57813-4.75.57813-2.85937m1.21875 0c0-1.625.51562-2.59375 1.59375-2.59375 1.0625 0 1.57812.96875 1.57812 2.59375 0 1.60937-.51562 2.57812-1.57812 2.57812-1.07813 0-1.59375-.96875-1.59375-2.57812m0 0"/><path id="g" d="M.57813-2.82812c0 1.85937.79687 2.96875 2.6875 2.96875C4.5625.14063 5.23438-.57812 5.54688-1.5l-.34375-.1875C4.875-1 4.42188-.45312 3.5-.45312c-1.45312 0-1.73437-1.40625-1.70312-2.625h3.35937c.25 0 .46875-.0625.46875-.4375 0-.6875-.23437-2.35938-2.35937-2.35938-1.82813 0-2.6875 1.29688-2.6875 3.04688m1.21875-.6875c0-.48438.1875-1.9375 1.40625-1.9375 1.07812 0 1.20312 1.09375 1.20312 1.5625 0 .21875-.07812.375-.40625.375Zm0 0"/><path id="h" d="M2.34375-5.73437v-.57813c0-1.3125.6875-1.76562 1.21875-1.76562.60938 0 .85938.21875 1.28125.78125.07813.09375.14063.1875.3125.1875h.01563c-.125.34375-.20313.73437-.20313 1.17187v.20313ZM5.60938-7.875C5.29688-8.20312 4.4375-8.5 3.71875-8.5c-.64062 0-1.5.29688-1.79687.73438-.28126.42187-.67188.95312-.67188 1.71875v.3125H.34375v.46875H1.25v4.25c0 .59375-.03125.625-.875.6875V0h2.96875v-.32812c-.9375-.0625-1-.07813-1-.67188v-4.26562h2.625v4.25c0 .59375-.01562.625-.85937.6875V0h2.96875v-.32812c-.95313-.0625-1-.07813-1-.67188v-4.26562h2.25c.29687 0 .375.125.375.54687v3.70313c0 .59375-.01563.625-.875.6875V0h2.85937v-.32812c-.84375-.0625-.875-.09375-.875-.6875V-5.875c-.39062.04688-1.09375.14063-2.03125.14063H6.07813v-.53125c0-1.71875.78125-2 1.42187-2 .57813 0 1 .35937 1.21875.98437.04688.125.14063.21875.32813.21875.26562 0 .64062-.15625.64062-.53125 0-.51562-.71875-1.07812-2.04687-1.07812-.90625 0-1.57813.28125-2.03125.79687m0 0"/><path id="i" d="M1.0625-7.65625c0 .4375.3125.73438.73438.73438.42187 0 .70312-.29688.70312-.73438 0-.42187-.28125-.70312-.70312-.70312-.42188 0-.73438.28125-.73438.70312M.375 0h2.84375v-.32812c-.82812-.0625-.875-.09375-.875-.6875v-4.78125L2.26563-5.875.4375-5.57812v.29687l.4375.0625c.29688.04688.375.09375.375.51563v3.6875c0 .59375-.03125.625-.875.6875Zm0 0"/><path id="j" d="M.375 0h2.84375v-.32812c-.82812-.0625-.875-.09375-.875-.6875V-3.75c0-.29687.01563-.45312.125-.64062.25-.45313.76563-.84375 1.39063-.84375.79687 0 1.23437.4375 1.23437 1.45312v2.76563c0 .59375-.04687.625-.89062.6875V0H7.0625v-.32812c-.82812-.0625-.875-.09375-.875-.6875V-4c0-1.1875-.65625-1.875-1.71875-1.875-.875 0-1.40625.42188-2.125.90625L2.17188-5.875.4375-5.57812v.29687l.4375.0625c.29688.04688.375.09375.375.51563v3.6875c0 .59375-.03125.625-.875.6875Zm0 0"/><path id="k" d="M.35938-5.26562h.84375v4.07812C1.20313 0 2.09375.14063 2.5.14063c.59375 0 1.15625-.29688 1.5-.51563l-.09375-.25c-.28125.10938-.53125.15625-.82812.15625-.40625 0-.78125-.29687-.78125-1.17187v-3.625H3.8125v-.46875H2.29688v-1.46875h-.32813L1.25-5.73437H.35938Zm0 0"/><path id="l" d="M.375 0h2.84375v-.32812c-.82812-.0625-.875-.09375-.875-.6875V-3.75c0-.29687 0-.46875.09375-.625.21875-.46875.73438-.85937 1.375-.85937 1.01563 0 1.14063.73437 1.14063 1.45312v2.76563c0 .59375-.04688.625-.89063.6875V0h2.85938v-.32812c-.84375-.0625-.875-.09375-.875-.6875V-3.75c0-.29687.01562-.45312.07812-.64062.1875-.46875.67188-.84375 1.34375-.84375.73438 0 1.17188.40625 1.17188 1.45312v2.76563c0 .59375-.03125.625-.875.6875V0H10.625v-.32812c-.84375-.0625-.89062-.09375-.89062-.6875V-4c0-1.1875-.625-1.875-1.73438-1.875-.95312 0-1.64062.64063-2.0625.90625-.28125-.54687-.71875-.90625-1.54687-.90625-.89063 0-1.625.59375-2.04688.90625L2.23438-5.875.4375-5.57812v.29687l.4375.0625c.29688.04688.375.09375.375.51563v3.6875c0 .59375-.03125.625-.875.6875Zm0 0"/><path id="m" d="m.29688-5.28125.45312.0625c.29688.04688.375.09375.375.51563v3.09375c0 1.32812.79688 1.75 1.65625 1.75 1 0 1.8125-.67188 2.14063-.84375L5.03125 0h1.89063v-.32812c-.8125-.0625-.89063-.09375-.89063-.6875v-4.78125L5.9375-5.875l-1.82812.29688v.29687l.45312.0625c.29688.04688.375.09375.375.51563v2.64062c0 .32813-.03125.57813-.09375.6875-.28125.54688-.82812.89063-1.4375.89063-.6875 0-1.1875-.4375-1.1875-1.34375v-3.96875L2.14063-5.875l-1.84375.29688Zm0 0"/><path id="n" d="M.23438 0h2.84375v-.32812c-.82813-.0625-.85938-.09375-.85938-.6875v-7.59375l-.09375-.0625-1.82812.28125v.3125l.4375.03125c.29687.03125.375.09375.375.54687v6.48438c0 .59375-.03126.625-.875.6875Zm0 0"/><path id="o" d="M.29688 2.34375v.34375h3.03125v-.34375c-.98438-.0625-1.0625-.07812-1.0625-.67187V-.125c.25.14063.8125.26563 1.34375.26563C5.1875.14063 6.53125-.57812 6.53125-3c0-.82812-.15625-2.875-2.28125-2.875-.85937 0-1.53125.57813-1.98437.875l-.15625-.875-1.76563.29688v.29687l.45313.0625c.29687.04688.375.09375.375.51563v6.375c0 .59375-.04688.60937-.875.67187m1.96875-4.1875V-3.75c0-.29687.0625-.45312.15625-.67187.28125-.53125.76562-.8125 1.39062-.8125.46875 0 1.51563.29687 1.51563 2.3125 0 1.71875-.54688 2.64062-1.71875 2.64062C3-.28125 2.53125-.57812 2.34375-1.125c-.0625-.20312-.07812-.4375-.07812-.71875m0 0"/><path id="p" d="M.57813-1.51562c0 .875.57812 1.65625 1.67187 1.65625.6875 0 1.375-.45313 1.75-.70313.15625.4375.35938.70313.76563.70313.4375 0 .9375-.125 1.375-.35938L6.0625-.48437c-.15625.03125-.42187.04687-.59375 0-.20312-.04688-.40625-.26563-.40625-1V-4.3125c0-.6875-.15625-1.5625-1.92187-1.5625-1.3125 0-2.35938.6875-2.35938 1.32813 0 .375.4375.54687.65625.54687.25 0 .3125-.10937.375-.3125.26563-.875.73438-1.14062 1.20313-1.14062S4-5.21875 4-4.29687v.48437c-.29687.3125-1.42187.60938-2.34375.90625-.84375.25-1.07812.84375-1.07812 1.39063M1.75-1.67188c0-.54687.25-.84374.90625-1.09374C3.14063-2.9375 3.75-3.15625 4-3.32812v1.65625c0 .95312-.71875 1.1875-1.17187 1.1875C2.10938-.48437 1.75-1 1.75-1.67187m0 0"/><path id="q" d="M.375 0h3.07813v-.32812c-1.04688-.0625-1.10938-.09375-1.10938-.6875V-3.75c0-.90625.40625-1.21875.67188-1.21875.1875 0 .39062.07813.73437.26563.07813.04687.17188.0625.23438.0625.28125 0 .53125-.29688.53125-.65625 0-.26563-.15625-.57813-.625-.57813-.42188 0-.76563.25-1.54688.9375l-.125-.9375-1.78125.29688v.29687l.4375.0625c.29688.04688.375.09375.375.51563v3.6875c0 .59375-.0625.625-.875.6875Zm0 0"/><path id="r" d="m2.34375-6.5625.1875.23438 1.76563-.98438c.34375-.1875.65625-.39062.65625-.64062 0-.23438-.28125-.5-.46875-.5s-.39063.125-.73438.48437ZM.57813-2.82812c0 1.85937.79687 2.96875 2.6875 2.96875C4.5625.14063 5.23438-.57812 5.54688-1.5l-.34375-.1875C4.875-1 4.42188-.45312 3.5-.45312c-1.45312 0-1.73437-1.40625-1.70312-2.625h3.35937c.25 0 .46875-.0625.46875-.4375 0-.6875-.23437-2.35938-2.35937-2.35938-1.82813 0-2.6875 1.29688-2.6875 3.04688m1.21875-.6875c0-.48438.1875-1.9375 1.40625-1.9375 1.07812 0 1.20312 1.09375 1.20312 1.5625 0 .21875-.07812.375-.40625.375Zm0 0"/><path id="s" d="M.57813-2.71875c0 1.85938 1.01562 2.85938 2.4375 2.85938.65625 0 1.21875-.3125 1.82812-.76563v2.29688c0 .59375-.0625.60937-.9375.67187v.34375H6.8125v-.34375c-.8125-.0625-.875-.07812-.875-.67187V-5.875H5.625l-.5.35938c-.45312-.25-1.04687-.35938-1.54687-.35938-.92188 0-1.67188.29688-2.1875.8125-.5.51563-.8125 1.28125-.8125 2.34375M1.79688-2.875c0-1.4375.48437-2.57812 1.6875-2.57812.60937 0 1.04687.20312 1.26562.79687.07813.1875.09375.39063.09375.67188V-2c0 .26563 0 .45313-.07812.64063-.21875.625-.67188.875-1.32813.875-1.15625 0-1.64062-1.07813-1.64062-2.39063m0 0"/></defs><use xlink:href="#a" x="46.74036" y="43.49853"/><use xlink:href="#b" x="53.81564" y="46.23428"/><use xlink:href="#a" x="152.87573" y="43.54645"/><use xlink:href="#c" x="159.94976" y="46.28221"/><path fill="none" stroke="#007F7F" stroke-miterlimit="10" stroke-width=".39788" d="M63.36718 34.8086c28.7461-16.59766 56.37109-16.59766 81.15624-2.28907"/><path fill="#007F7F" stroke="#007F7F" stroke-miterlimit="10" stroke-width=".39788" d="M147.83984 34.4375c-.34375-.34766-1.77734-2-2.5078-3.32422l-1.6211 2.8125c1.50781-.02734 3.66015.38672 4.1289.51172Zm0 0"/><path fill="none" stroke="#FF7F00" stroke-miterlimit="10" stroke-width=".39788" d="M148.48435 46.9375c-28.74608 16.60156-56.37108 16.60156-81.15232 2.28906"/><path fill="#FF7F00" stroke="#FF7F00" stroke-miterlimit="10" stroke-width=".39788" d="M64.01172 47.3125c.34375.34375 1.77734 2 2.50781 3.32031l1.6211-2.8125c-1.50782.03125-3.66016-.38281-4.12891-.50781Zm0 0"/><use xlink:href="#d" x="34.59121" y="12.81113"/><g fill="#007F7F"><use xlink:href="#e" x="42.99692" y="12.81113"/><use xlink:href="#f" x="48.79117" y="12.81113"/><use xlink:href="#g" x="55.53041" y="12.81113"/><use xlink:href="#h" x="61.53603" y="12.81113"/><use xlink:href="#e" x="72.39093" y="12.81113"/><use xlink:href="#i" x="78.18518" y="12.81113"/><use xlink:href="#g" x="81.57966" y="12.81113"/><use xlink:href="#j" x="87.58529" y="12.81113"/><use xlink:href="#k" x="94.80945" y="12.81113"/></g><g fill="#007F7F"><use xlink:href="#l" x="101.44921" y="12.81113"/><use xlink:href="#m" x="112.2295" y="12.81113"/><use xlink:href="#n" x="119.30446" y="12.81113"/><use xlink:href="#k" x="122.56217" y="12.81113"/><use xlink:href="#i" x="126.57835" y="12.81113"/><use xlink:href="#o" x="129.97284" y="12.81113"/><use xlink:href="#n" x="137.07266" y="12.81113"/><use xlink:href="#i" x="140.33037" y="12.81113"/><use xlink:href="#e" x="143.72486" y="12.81113"/><use xlink:href="#p" x="149.51911" y="12.81113"/><use xlink:href="#k" x="155.62421" y="12.81113"/><use xlink:href="#g" x="159.64039" y="12.81113"/><use xlink:href="#m" x="165.64602" y="12.81113"/><use xlink:href="#q" x="172.72097" y="12.81113"/></g><use xlink:href="#d" x="4.27124" y="74.91579"/><g fill="#FF7F00"><use xlink:href="#e" x="12.67571" y="74.91579"/><use xlink:href="#f" x="18.46995" y="74.91579"/><use xlink:href="#g" x="25.20919" y="74.91579"/><use xlink:href="#h" x="31.21482" y="74.91579"/><use xlink:href="#e" x="42.06971" y="74.91579"/><use xlink:href="#i" x="47.86396" y="74.91579"/><use xlink:href="#g" x="51.25845" y="74.91579"/><use xlink:href="#j" x="57.26407" y="74.91579"/><use xlink:href="#k" x="64.48824" y="74.91579"/></g><g fill="#FF7F00"><use xlink:href="#l" x="71.128" y="74.91579"/><use xlink:href="#m" x="81.90829" y="74.91579"/><use xlink:href="#n" x="88.98324" y="74.91579"/><use xlink:href="#k" x="92.24095" y="74.91579"/><use xlink:href="#i" x="96.25714" y="74.91579"/><use xlink:href="#o" x="99.65162" y="74.91579"/><use xlink:href="#n" x="106.75144" y="74.91579"/><use xlink:href="#i" x="110.00916" y="74.91579"/><use xlink:href="#e" x="113.40364" y="74.91579"/><use xlink:href="#p" x="119.19789" y="74.91579"/><use xlink:href="#k" x="125.30299" y="74.91579"/><use xlink:href="#g" x="129.31918" y="74.91579"/><use xlink:href="#m" x="135.3248" y="74.91579"/><use xlink:href="#q" x="142.39976" y="74.91579"/></g><g fill="#FF7F00"><use xlink:href="#q" x="149.56175" y="74.91579"/><use xlink:href="#r" x="154.10016" y="74.91579"/><use xlink:href="#e" x="160.10579" y="74.91579"/><use xlink:href="#i" x="165.90004" y="74.91579"/><use xlink:href="#o" x="169.29453" y="74.91579"/><use xlink:href="#q" x="176.39435" y="74.91579"/></g><g fill="#FF7F00"><use xlink:href="#f" x="180.85816" y="74.91579"/><use xlink:href="#s" x="187.59739" y="74.91579"/><use xlink:href="#m" x="194.49827" y="74.91579"/><use xlink:href="#g" x="201.57322" y="74.91579"/></g></svg>