<?xml version="1.0" encoding="UTF-8"?>
<svg xmlns="http://www.w3.org/2000/svg" xmlns:xlink="http://www.w3.org/1999/xlink" width="449pt" height="459pt" viewBox="0 0 449 459" version="1.2">
<defs>
<clipPath id="clip2">
  <path d="M 0 0 L 449 0 L 449 458.566406 L 0 458.566406 Z M 0 0 "/>
</clipPath>
<clipPath id="clip4">
  <path d="M 0 0 L 449 0 L 449 458.519531 L 0 458.519531 Z M 0 0 "/>
</clipPath>
<clipPath id="clip3">
  <rect x="0" y="0" width="449" height="459"/>
</clipPath>
<g id="surface8" clip-path="url(#clip3)">
<g clip-path="url(#clip4)" clip-rule="nonzero">
<path style=" stroke:none;fill-rule:nonzero;fill:rgb(0%,0%,0%);fill-opacity:1;" d="M 243.480469 0 L 247.191406 0 C 260.21875 1.101562 273.359375 2.738281 285.667969 7.378906 C 317.492188 19.121094 343.53125 45.378906 355.097656 77.25 C 367.160156 80.140625 378.839844 84.460938 389.769531 90.339844 C 407.570312 100.890625 422.917969 115.75 433.289062 133.71875 C 440.109375 146.75 445.570312 160.679688 447.492188 175.339844 C 448.160156 180.121094 448.257812 184.96875 449 189.75 L 449 193.078125 C 448.058594 200.78125 447.902344 208.601562 446.058594 216.179688 C 441.667969 234.628906 433.667969 252.488281 421.230469 266.941406 C 430.742188 296.660156 428.929688 330.398438 414 358.039062 C 410.78125 364.53125 406.628906 370.519531 402.410156 376.390625 C 393.949219 385.96875 384.847656 395.210938 373.980469 402.03125 C 349.628906 418.351562 318.71875 424.179688 290 418.78125 C 271.152344 441.25 242.992188 455.160156 213.941406 457.96875 C 190.589844 460.308594 166.660156 455.128906 146.191406 443.738281 C 122.199219 430.128906 102.960938 407.859375 93.789062 381.769531 C 80.460938 378.398438 67.351562 373.75 55.609375 366.511719 C 44.492188 359.210938 34.242188 350.488281 25.742188 340.230469 C 18.121094 330.621094 12.082031 319.820312 7.550781 308.429688 C 3.128906 297.359375 1.371094 285.480469 0 273.710938 L 0 259.191406 C 1.449219 249.359375 2.75 239.429688 6.058594 230.011719 C 10.820312 216.210938 17.898438 203.078125 27.519531 192.050781 C 25.460938 184.949219 23.667969 177.75 22.699219 170.410156 C 19.667969 150.390625 22.582031 129.640625 29.960938 110.839844 C 34.089844 101.179688 39.339844 92.03125 45.53125 83.550781 C 56.320312 69.898438 69.878906 58.320312 85.539062 50.640625 C 107.769531 38.960938 134.101562 35.601562 158.71875 40.128906 C 171.148438 25.449219 187.53125 14.339844 205.46875 7.519531 C 217.609375 2.820312 230.621094 1.28125 243.480469 0 M 220.757812 6.539062 C 198.449219 11.800781 177.648438 23.78125 162.410156 40.960938 C 200.359375 49.078125 233.097656 77.578125 246.347656 114.050781 C 271.949219 84.890625 312.96875 70.410156 351.242188 76.851562 C 342.167969 52.949219 324.691406 32.410156 302.769531 19.320312 C 294.519531 14.828125 286 10.730469 276.929688 8.160156 C 258.710938 2.949219 239.269531 2.691406 220.757812 6.539062 M 86.808594 53.960938 C 66.140625 64 49.21875 81.011719 38.25 101.101562 C 23.757812 127.769531 20.980469 160.339844 30.25 189.191406 C 41.691406 176.378906 56.269531 166.601562 71.917969 159.679688 C 91.78125 151.671875 113.917969 148.679688 135.058594 152.578125 C 129.03125 132.089844 127.878906 110.070312 133 89.269531 C 136.769531 72.238281 145.46875 56.75 155.949219 42.96875 C 132.539062 39.191406 107.800781 42.738281 86.808594 53.960938 M 138.257812 82.261719 C 131.082031 104.738281 131.417969 129.320312 138.21875 151.851562 C 144.609375 144.648438 151.789062 138.03125 159.96875 132.878906 C 183.96875 116.289062 214.46875 110.101562 243.167969 114.730469 C 236.371094 96.410156 224.757812 79.75 209.429688 67.53125 C 195.179688 55.910156 178.140625 47.5 160.101562 43.730469 C 150.089844 54.738281 143.070312 68.238281 138.257812 82.261719 M 249.007812 115.980469 C 262.179688 118.441406 274.582031 124.03125 285.910156 131.058594 C 307.492188 144.140625 323.570312 165.140625 332.960938 188.371094 C 341.980469 177.511719 348.570312 164.761719 353.257812 151.480469 C 360.550781 128.601562 360.667969 103.261719 352.519531 80.601562 C 315.050781 73.601562 274.050781 87.011719 249.007812 115.980469 M 356.539062 81.351562 C 365.089844 110.359375 363.378906 142.921875 348.917969 169.769531 C 345.339844 177.359375 340.160156 184.011719 335.417969 190.878906 C 344.097656 192.550781 352.519531 195.519531 360.480469 199.328125 C 387.699219 211.730469 408.820312 235.628906 419.75 263.289062 C 431.492188 248.648438 439.640625 231.210938 443.359375 212.820312 C 445.78125 198.269531 445.71875 183.269531 443.007812 168.761719 C 440.769531 159.890625 438.167969 151 433.960938 142.828125 C 419.441406 111.878906 389.992188 88.480469 356.539062 81.351562 M 147.679688 146.78125 C 145.179688 148.871094 142.550781 150.960938 141.058594 153.949219 C 151.441406 155.621094 161.210938 159.789062 170.46875 164.640625 C 190.480469 175.070312 207.058594 191.648438 218.121094 211.28125 C 214.820312 190.378906 216.710938 168.480469 224.660156 148.800781 C 229.179688 137.648438 235.460938 127.300781 242.839844 117.820312 C 233.300781 116.75 223.648438 115.628906 214.070312 116.949219 C 189.378906 118.820312 165.582031 129.75 147.679688 146.78125 M 248.179688 118.820312 C 252.378906 132.449219 254.429688 146.761719 253.480469 161.03125 C 252.839844 180.128906 246.03125 198.421875 236.902344 215 C 254.628906 200.191406 276.980469 191.070312 299.917969 188.578125 C 309.890625 188.191406 319.980469 187.851562 329.839844 189.640625 C 324.539062 176.148438 317.128906 163.328125 307.109375 152.78125 C 291.539062 135.828125 270.621094 123.871094 248.179688 118.820312 M 224.640625 158.378906 C 217.941406 180.199219 217.789062 204.160156 225.058594 225.859375 C 249.152344 197.03125 256.449219 155.851562 245.167969 120.179688 C 236.25 131.640625 229.179688 144.558594 224.640625 158.378906 M 93.949219 156.351562 C 70.949219 160.621094 49.96875 173.011719 33.878906 189.820312 C 32.667969 191.21875 31.03125 192.941406 32.210938 194.890625 C 36.628906 206.800781 43.351562 217.820312 51.75 227.339844 C 67.25 246.539062 89.78125 259.601562 113.789062 264.890625 C 104.628906 236.378906 106.910156 204.339844 120.640625 177.660156 C 124.160156 169.671875 129.398438 162.621094 134.539062 155.628906 C 121.128906 153.539062 107.269531 153.621094 93.949219 156.351562 M 140.320312 156.820312 C 149.070312 179.75 165.300781 199.871094 186.300781 212.691406 C 197.179688 219.148438 208.898438 224.511719 221.390625 226.929688 C 218.75 219.328125 214.96875 212.101562 210.539062 205.390625 C 201.628906 191 188.621094 179.679688 174.628906 170.390625 C 164.007812 164.058594 152.441406 159.320312 140.320312 156.820312 M 113.230469 208.988281 C 110.441406 227.320312 110.929688 246.46875 116.960938 264.121094 C 129.378906 250.328125 145.140625 239.738281 162.460938 233.140625 C 175.628906 227.96875 189.859375 226.039062 203.949219 226.019531 C 201.71875 223.738281 198.480469 223.03125 195.78125 221.46875 C 168.992188 208.761719 147.800781 185.308594 137.03125 157.761719 C 124.898438 172.449219 116.960938 190.359375 113.230469 208.988281 M 228.019531 228.101562 C 264.730469 234.808594 304.320312 220.53125 329.007812 192.699219 C 323.691406 192.289062 318.390625 191.339844 313.03125 191.449219 C 281.191406 190.589844 249.199219 204.28125 228.019531 228.101562 M 335.050781 193.691406 C 336.699219 201.109375 338.679688 208.46875 339.519531 216.050781 C 341.917969 238.960938 338.128906 262.839844 327 283.160156 C 323.46875 290.320312 318.667969 296.78125 313.980469 303.21875 C 343.679688 308.011719 375.539062 300.890625 399.492188 282.429688 C 405.789062 277.460938 412.25 272.488281 417.070312 265.988281 C 411.039062 249.039062 400.742188 233.671875 387.507812 221.488281 C 373.070312 207.570312 354.480469 198.308594 335.050781 193.691406 M 288.070312 224.960938 C 273.769531 230.609375 258.347656 233.128906 243 232.75 C 250.941406 236.320312 258.980469 239.898438 266.191406 244.820312 C 286.960938 257.988281 302.28125 278.558594 311.582031 301.140625 C 322.652344 287.039062 330.941406 270.601562 334.691406 253.011719 C 338.800781 233.710938 337.789062 213.328125 331.640625 194.570312 C 319.660156 207.808594 304.660156 218.339844 288.070312 224.960938 M 3.398438 264 C 2.332031 293.410156 14.039062 322.628906 33.871094 344.171875 C 49.101562 361.039062 69.980469 372.410156 92.050781 377.449219 C 90.820312 371.230469 88.609375 365.210938 88.089844 358.859375 C 84.640625 335.328125 88.460938 310.738281 99.410156 289.589844 C 102.75 281.660156 108.601562 275.238281 113.070312 267.980469 C 100.242188 265.199219 87.917969 260.089844 76.679688 253.351562 C 54.851562 240.089844 38.257812 219.089844 29.007812 195.398438 C 13.660156 214.878906 3.832031 239.039062 3.398438 264 M 131.558594 254.570312 C 127.519531 258.269531 122.609375 261.261719 119.941406 266.210938 C 135.839844 268.148438 152.289062 267.941406 167.730469 263.320312 C 187.949219 257.640625 206.621094 246.339844 220.679688 230.710938 C 215.199219 229.230469 209.5 229.320312 203.871094 229.171875 C 177.679688 228.390625 151.898438 238.371094 131.558594 254.570312 M 227.199219 231.921875 C 235.050781 252.089844 248.371094 270.339844 266.070312 282.929688 C 278.558594 292.078125 292.941406 298.929688 308.21875 301.820312 C 300.769531 281.679688 287.050781 263.941406 269.800781 251.210938 C 257.03125 242.160156 242.667969 234.851562 227.199219 231.921875 M 223.640625 232.808594 C 215.96875 242.660156 209.519531 253.460938 205.179688 265.191406 C 196.289062 288.558594 195.851562 314.878906 203.429688 338.671875 C 217.609375 320.859375 227.269531 298.980469 228.570312 276.078125 C 229.53125 261.539062 228.390625 246.660156 223.640625 232.808594 M 205.019531 249.039062 C 192.160156 258.238281 177.289062 264.46875 161.929688 268.101562 C 147.820312 271.210938 133.109375 271.308594 118.839844 269.230469 C 131.589844 304.53125 163.609375 332.019531 200.269531 339.839844 C 199.269531 335.210938 197.859375 330.679688 197.019531 326.03125 C 192.378906 300.78125 195.78125 273.769531 208.050781 251.089844 C 209.332031 248.5 210.539062 245.871094 211.941406 243.339844 C 209.929688 245.570312 207.558594 247.449219 205.019531 249.039062 M 230.492188 247 C 234.800781 271.5 231.019531 297.410156 219.628906 319.539062 C 216.148438 327.339844 210.75 334.03125 206.109375 341.148438 C 209.730469 341.410156 213.359375 341.671875 216.96875 342.121094 C 225.71875 343.199219 234.5 341.898438 243.167969 340.820312 C 257.371094 338.859375 270.660156 332.96875 282.992188 325.871094 C 292.160156 320.140625 300.917969 313.441406 307.730469 304.96875 C 298.859375 303.359375 290.25 300.300781 282.25 296.171875 C 260.359375 285.828125 241.960938 268.300781 230.492188 247 M 395.789062 288.851562 C 371.871094 304.898438 341.742188 311.050781 313.378906 306.230469 C 322.449219 334.929688 320.492188 367.371094 306.332031 394.121094 C 302.75 401.871094 297.710938 408.820312 292.621094 415.628906 C 294.359375 416.011719 296.121094 416.460938 297.917969 416.558594 C 304.609375 416.691406 311.28125 418.058594 317.96875 417.019531 C 357.019531 414.878906 394.097656 390.671875 411.347656 355.519531 C 425.339844 329.449219 427.21875 297.699219 418.460938 269.640625 C 411.769531 276.960938 404.140625 283.480469 395.789062 288.851562 M 96.332031 378.371094 C 118.757812 382.039062 142.269531 379.390625 163.03125 369.980469 C 176.789062 363.511719 189.660156 354.558594 199.507812 342.890625 C 161.730469 334.929688 129.121094 306.5 115.78125 270.289062 C 91.167969 299.660156 83.160156 342.300781 96.332031 378.371094 M 228.96875 345.460938 C 221.128906 345.441406 213.089844 345.949219 205.480469 343.671875 C 205.160156 341.410156 204.539062 338.878906 201.691406 339.011719 C 200.898438 340.730469 200.148438 342.488281 199.480469 344.269531 C 201.53125 344.300781 203.589844 344.320312 205.660156 344.339844 C 214.300781 367.589844 230.96875 387.828125 252.230469 400.679688 C 263.589844 407.300781 275.859375 412.878906 288.949219 414.878906 C 292.609375 410.519531 295.800781 405.789062 299.070312 401.128906 C 316.210938 373.460938 320.167969 338.351562 310.371094 307.371094 C 289.652344 330.058594 259.820312 344.589844 228.96875 345.460938 M 174.609375 367.648438 C 163.007812 373.789062 150.75 378.949219 137.800781 381.378906 C 130.589844 382.429688 123.308594 383.140625 116.039062 383.460938 C 109.769531 383.128906 103.492188 382.648438 97.28125 381.738281 C 100.550781 390.539062 104.839844 399.03125 110.507812 406.539062 C 118.128906 417.089844 127.058594 426.871094 137.878906 434.210938 C 147.371094 440.910156 157.929688 446.03125 168.871094 449.871094 C 187.851562 455.679688 208.300781 456.398438 227.691406 452.300781 C 250.039062 447.121094 270.890625 435.019531 286.167969 417.859375 C 265.691406 413.421875 246.558594 403.101562 231.46875 388.589844 C 218.269531 376.75 208.628906 361.371094 202.21875 344.941406 C 194.269531 353.871094 184.660156 361.210938 174.609375 367.648438 "/>
</g>
</g>
<filter id="alpha" filterUnits="objectBoundingBox" x="0%" y="0%" width="100%" height="100%">
  <feColorMatrix type="matrix" in="SourceGraphic" values="0 0 0 0 1 0 0 0 0 1 0 0 0 0 1 0 0 0 1 0"/>
</filter>
<mask id="mask0">
  <g filter="url(#alpha)">
<rect x="0" y="0" width="449" height="459" style="fill:rgb(0%,0%,0%);fill-opacity:0.960999;stroke:none;"/>
  </g>
</mask>
<clipPath id="clip6">
  <path d="M 0 0 L 449 0 L 449 458.519531 L 0 458.519531 Z M 0 0 "/>
</clipPath>
<clipPath id="clip5">
  <rect x="0" y="0" width="449" height="459"/>
</clipPath>
<g id="surface9" clip-path="url(#clip5)">
<g clip-path="url(#clip6)" clip-rule="nonzero">
<path style=" stroke:none;fill-rule:nonzero;fill:rgb(43.899536%,38.798523%,36.499023%);fill-opacity:1;" d="M 243.480469 0 L 247.191406 0 C 260.21875 1.101562 273.359375 2.738281 285.667969 7.378906 C 317.492188 19.121094 343.53125 45.378906 355.097656 77.25 C 367.160156 80.140625 378.839844 84.460938 389.769531 90.339844 C 407.570312 100.890625 422.917969 115.75 433.289062 133.71875 C 440.109375 146.75 445.570312 160.679688 447.492188 175.339844 C 448.160156 180.121094 448.257812 184.96875 449 189.75 L 449 193.078125 C 448.058594 200.78125 447.902344 208.601562 446.058594 216.179688 C 441.667969 234.628906 433.667969 252.488281 421.230469 266.941406 C 430.742188 296.660156 428.929688 330.398438 414 358.039062 C 410.78125 364.53125 406.628906 370.519531 402.410156 376.390625 C 393.949219 385.96875 384.847656 395.210938 373.980469 402.03125 C 349.628906 418.351562 318.71875 424.179688 290 418.78125 C 271.152344 441.25 242.992188 455.160156 213.941406 457.96875 C 190.589844 460.308594 166.660156 455.128906 146.191406 443.738281 C 122.199219 430.128906 102.960938 407.859375 93.789062 381.769531 C 80.460938 378.398438 67.351562 373.75 55.609375 366.511719 C 44.492188 359.210938 34.242188 350.488281 25.742188 340.230469 C 18.121094 330.621094 12.082031 319.820312 7.550781 308.429688 C 3.128906 297.359375 1.371094 285.480469 0 273.710938 L 0 259.191406 C 1.449219 249.359375 2.75 239.429688 6.058594 230.011719 C 10.820312 216.210938 17.898438 203.078125 27.519531 192.050781 C 25.460938 184.949219 23.667969 177.75 22.699219 170.410156 C 19.667969 150.390625 22.582031 129.640625 29.960938 110.839844 C 34.089844 101.179688 39.339844 92.03125 45.53125 83.550781 C 56.320312 69.898438 69.878906 58.320312 85.539062 50.640625 C 107.769531 38.960938 134.101562 35.601562 158.71875 40.128906 C 171.148438 25.449219 187.53125 14.339844 205.46875 7.519531 C 217.609375 2.820312 230.621094 1.28125 243.480469 0 M 220.757812 6.539062 C 198.449219 11.800781 177.648438 23.78125 162.410156 40.960938 C 200.359375 49.078125 233.097656 77.578125 246.347656 114.050781 C 271.949219 84.890625 312.96875 70.410156 351.242188 76.851562 C 342.167969 52.949219 324.691406 32.410156 302.769531 19.320312 C 294.519531 14.828125 286 10.730469 276.929688 8.160156 C 258.710938 2.949219 239.269531 2.691406 220.757812 6.539062 M 86.808594 53.960938 C 66.140625 64 49.21875 81.011719 38.25 101.101562 C 23.757812 127.769531 20.980469 160.339844 30.25 189.191406 C 41.691406 176.378906 56.269531 166.601562 71.917969 159.679688 C 91.78125 151.671875 113.917969 148.679688 135.058594 152.578125 C 129.03125 132.089844 127.878906 110.070312 133 89.269531 C 136.769531 72.238281 145.46875 56.75 155.949219 42.96875 C 132.539062 39.191406 107.800781 42.738281 86.808594 53.960938 M 138.257812 82.261719 C 131.082031 104.738281 131.417969 129.320312 138.21875 151.851562 C 144.609375 144.648438 151.789062 138.03125 159.96875 132.878906 C 183.96875 116.289062 214.46875 110.101562 243.167969 114.730469 C 236.371094 96.410156 224.757812 79.75 209.429688 67.53125 C 195.179688 55.910156 178.140625 47.5 160.101562 43.730469 C 150.089844 54.738281 143.070312 68.238281 138.257812 82.261719 M 249.007812 115.980469 C 262.179688 118.441406 274.582031 124.03125 285.910156 131.058594 C 307.492188 144.140625 323.570312 165.140625 332.960938 188.371094 C 341.980469 177.511719 348.570312 164.761719 353.257812 151.480469 C 360.550781 128.601562 360.667969 103.261719 352.519531 80.601562 C 315.050781 73.601562 274.050781 87.011719 249.007812 115.980469 M 356.539062 81.351562 C 365.089844 110.359375 363.378906 142.921875 348.917969 169.769531 C 345.339844 177.359375 340.160156 184.011719 335.417969 190.878906 C 344.097656 192.550781 352.519531 195.519531 360.480469 199.328125 C 387.699219 211.730469 408.820312 235.628906 419.75 263.289062 C 431.492188 248.648438 439.640625 231.210938 443.359375 212.820312 C 445.78125 198.269531 445.71875 183.269531 443.007812 168.761719 C 440.769531 159.890625 438.167969 151 433.960938 142.828125 C 419.441406 111.878906 389.992188 88.480469 356.539062 81.351562 M 147.679688 146.78125 C 145.179688 148.871094 142.550781 150.960938 141.058594 153.949219 C 151.441406 155.621094 161.210938 159.789062 170.46875 164.640625 C 190.480469 175.070312 207.058594 191.648438 218.121094 211.28125 C 214.820312 190.378906 216.710938 168.480469 224.660156 148.800781 C 229.179688 137.648438 235.460938 127.300781 242.839844 117.820312 C 233.300781 116.75 223.648438 115.628906 214.070312 116.949219 C 189.378906 118.820312 165.582031 129.75 147.679688 146.78125 M 248.179688 118.820312 C 252.378906 132.449219 254.429688 146.761719 253.480469 161.03125 C 252.839844 180.128906 246.03125 198.421875 236.902344 215 C 254.628906 200.191406 276.980469 191.070312 299.917969 188.578125 C 309.890625 188.191406 319.980469 187.851562 329.839844 189.640625 C 324.539062 176.148438 317.128906 163.328125 307.109375 152.78125 C 291.539062 135.828125 270.621094 123.871094 248.179688 118.820312 M 224.640625 158.378906 C 217.941406 180.199219 217.789062 204.160156 225.058594 225.859375 C 249.152344 197.03125 256.449219 155.851562 245.167969 120.179688 C 236.25 131.640625 229.179688 144.558594 224.640625 158.378906 M 93.949219 156.351562 C 70.949219 160.621094 49.96875 173.011719 33.878906 189.820312 C 32.667969 191.21875 31.03125 192.941406 32.210938 194.890625 C 36.628906 206.800781 43.351562 217.820312 51.75 227.339844 C 67.25 246.539062 89.78125 259.601562 113.789062 264.890625 C 104.628906 236.378906 106.910156 204.339844 120.640625 177.660156 C 124.160156 169.671875 129.398438 162.621094 134.539062 155.628906 C 121.128906 153.539062 107.269531 153.621094 93.949219 156.351562 M 140.320312 156.820312 C 149.070312 179.75 165.300781 199.871094 186.300781 212.691406 C 197.179688 219.148438 208.898438 224.511719 221.390625 226.929688 C 218.75 219.328125 214.96875 212.101562 210.539062 205.390625 C 201.628906 191 188.621094 179.679688 174.628906 170.390625 C 164.007812 164.058594 152.441406 159.320312 140.320312 156.820312 M 113.230469 208.988281 C 110.441406 227.320312 110.929688 246.46875 116.960938 264.121094 C 129.378906 250.328125 145.140625 239.738281 162.460938 233.140625 C 175.628906 227.96875 189.859375 226.039062 203.949219 226.019531 C 201.71875 223.738281 198.480469 223.03125 195.78125 221.46875 C 168.992188 208.761719 147.800781 185.308594 137.03125 157.761719 C 124.898438 172.449219 116.960938 190.359375 113.230469 208.988281 M 228.019531 228.101562 C 264.730469 234.808594 304.320312 220.53125 329.007812 192.699219 C 323.691406 192.289062 318.390625 191.339844 313.03125 191.449219 C 281.191406 190.589844 249.199219 204.28125 228.019531 228.101562 M 335.050781 193.691406 C 336.699219 201.109375 338.679688 208.46875 339.519531 216.050781 C 341.917969 238.960938 338.128906 262.839844 327 283.160156 C 323.46875 290.320312 318.667969 296.78125 313.980469 303.21875 C 343.679688 308.011719 375.539062 300.890625 399.492188 282.429688 C 405.789062 277.460938 412.25 272.488281 417.070312 265.988281 C 411.039062 249.039062 400.742188 233.671875 387.507812 221.488281 C 373.070312 207.570312 354.480469 198.308594 335.050781 193.691406 M 288.070312 224.960938 C 273.769531 230.609375 258.347656 233.128906 243 232.75 C 250.941406 236.320312 258.980469 239.898438 266.191406 244.820312 C 286.960938 257.988281 302.28125 278.558594 311.582031 301.140625 C 322.652344 287.039062 330.941406 270.601562 334.691406 253.011719 C 338.800781 233.710938 337.789062 213.328125 331.640625 194.570312 C 319.660156 207.808594 304.660156 218.339844 288.070312 224.960938 M 3.398438 264 C 2.332031 293.410156 14.039062 322.628906 33.871094 344.171875 C 49.101562 361.039062 69.980469 372.410156 92.050781 377.449219 C 90.820312 371.230469 88.609375 365.210938 88.089844 358.859375 C 84.640625 335.328125 88.460938 310.738281 99.410156 289.589844 C 102.75 281.660156 108.601562 275.238281 113.070312 267.980469 C 100.242188 265.199219 87.917969 260.089844 76.679688 253.351562 C 54.851562 240.089844 38.257812 219.089844 29.007812 195.398438 C 13.660156 214.878906 3.832031 239.039062 3.398438 264 M 131.558594 254.570312 C 127.519531 258.269531 122.609375 261.261719 119.941406 266.210938 C 135.839844 268.148438 152.289062 267.941406 167.730469 263.320312 C 187.949219 257.640625 206.621094 246.339844 220.679688 230.710938 C 215.199219 229.230469 209.5 229.320312 203.871094 229.171875 C 177.679688 228.390625 151.898438 238.371094 131.558594 254.570312 M 227.199219 231.921875 C 235.050781 252.089844 248.371094 270.339844 266.070312 282.929688 C 278.558594 292.078125 292.941406 298.929688 308.21875 301.820312 C 300.769531 281.679688 287.050781 263.941406 269.800781 251.210938 C 257.03125 242.160156 242.667969 234.851562 227.199219 231.921875 M 223.640625 232.808594 C 215.96875 242.660156 209.519531 253.460938 205.179688 265.191406 C 196.289062 288.558594 195.851562 314.878906 203.429688 338.671875 C 217.609375 320.859375 227.269531 298.980469 228.570312 276.078125 C 229.53125 261.539062 228.390625 246.660156 223.640625 232.808594 M 205.019531 249.039062 C 192.160156 258.238281 177.289062 264.46875 161.929688 268.101562 C 147.820312 271.210938 133.109375 271.308594 118.839844 269.230469 C 131.589844 304.53125 163.609375 332.019531 200.269531 339.839844 C 199.269531 335.210938 197.859375 330.679688 197.019531 326.03125 C 192.378906 300.78125 195.78125 273.769531 208.050781 251.089844 C 209.332031 248.5 210.539062 245.871094 211.941406 243.339844 C 209.929688 245.570312 207.558594 247.449219 205.019531 249.039062 M 230.492188 247 C 234.800781 271.5 231.019531 297.410156 219.628906 319.539062 C 216.148438 327.339844 210.75 334.03125 206.109375 341.148438 C 209.730469 341.410156 213.359375 341.671875 216.96875 342.121094 C 225.71875 343.199219 234.5 341.898438 243.167969 340.820312 C 257.371094 338.859375 270.660156 332.96875 282.992188 325.871094 C 292.160156 320.140625 300.917969 313.441406 307.730469 304.96875 C 298.859375 303.359375 290.25 300.300781 282.25 296.171875 C 260.359375 285.828125 241.960938 268.300781 230.492188 247 M 395.789062 288.851562 C 371.871094 304.898438 341.742188 311.050781 313.378906 306.230469 C 322.449219 334.929688 320.492188 367.371094 306.332031 394.121094 C 302.75 401.871094 297.710938 408.820312 292.621094 415.628906 C 294.359375 416.011719 296.121094 416.460938 297.917969 416.558594 C 304.609375 416.691406 311.28125 418.058594 317.96875 417.019531 C 357.019531 414.878906 394.097656 390.671875 411.347656 355.519531 C 425.339844 329.449219 427.21875 297.699219 418.460938 269.640625 C 411.769531 276.960938 404.140625 283.480469 395.789062 288.851562 M 96.332031 378.371094 C 118.757812 382.039062 142.269531 379.390625 163.03125 369.980469 C 176.789062 363.511719 189.660156 354.558594 199.507812 342.890625 C 161.730469 334.929688 129.121094 306.5 115.78125 270.289062 C 91.167969 299.660156 83.160156 342.300781 96.332031 378.371094 M 228.96875 345.460938 C 221.128906 345.441406 213.089844 345.949219 205.480469 343.671875 C 205.160156 341.410156 204.539062 338.878906 201.691406 339.011719 C 200.898438 340.730469 200.148438 342.488281 199.480469 344.269531 C 201.53125 344.300781 203.589844 344.320312 205.660156 344.339844 C 214.300781 367.589844 230.96875 387.828125 252.230469 400.679688 C 263.589844 407.300781 275.859375 412.878906 288.949219 414.878906 C 292.609375 410.519531 295.800781 405.789062 299.070312 401.128906 C 316.210938 373.460938 320.167969 338.351562 310.371094 307.371094 C 289.652344 330.058594 259.820312 344.589844 228.96875 345.460938 M 174.609375 367.648438 C 163.007812 373.789062 150.75 378.949219 137.800781 381.378906 C 130.589844 382.429688 123.308594 383.140625 116.039062 383.460938 C 109.769531 383.128906 103.492188 382.648438 97.28125 381.738281 C 100.550781 390.539062 104.839844 399.03125 110.507812 406.539062 C 118.128906 417.089844 127.058594 426.871094 137.878906 434.210938 C 147.371094 440.910156 157.929688 446.03125 168.871094 449.871094 C 187.851562 455.679688 208.300781 456.398438 227.691406 452.300781 C 250.039062 447.121094 270.890625 435.019531 286.167969 417.859375 C 265.691406 413.421875 246.558594 403.101562 231.46875 388.589844 C 218.269531 376.75 208.628906 361.371094 202.21875 344.941406 C 194.269531 353.871094 184.660156 361.210938 174.609375 367.648438 "/>
</g>
</g>
<clipPath id="clip8">
  <path d="M 0 0 L 449 0 L 449 458.566406 L 0 458.566406 Z M 0 0 "/>
</clipPath>
<clipPath id="clip7">
  <rect x="0" y="0" width="449" height="459"/>
</clipPath>
<g id="surface14" clip-path="url(#clip7)">
<g clip-path="url(#clip8)" clip-rule="nonzero">
<path style="fill:none;stroke-width:0.094;stroke-linecap:butt;stroke-linejoin:miter;stroke:rgb(0%,0%,0%);stroke-opacity:1;stroke-miterlimit:10;" d="M -0.00003125 0 L 3.710906 0 C 16.73825 -1.101562 29.878875 -2.738281 42.187469 -7.378906 C 74.011687 -19.121094 100.05075 -45.378906 111.617156 -77.25 C 123.679656 -80.140625 135.359344 -84.460938 146.289031 -90.339844 C 164.089812 -100.890625 179.437469 -115.75 189.808562 -133.71875 C 196.628875 -146.75 202.089812 -160.679688 204.011687 -175.339844 C 204.679656 -180.121094 204.777312 -184.96875 205.5195 -189.75 L 205.5195 -193.078125 C 204.578094 -200.78125 204.421844 -208.601562 202.578094 -216.179688 C 198.187469 -234.628906 190.187469 -252.488281 177.749969 -266.941406 C 187.261687 -296.660156 185.449187 -330.398438 170.5195 -358.039062 C 167.30075 -364.53125 163.148406 -370.519531 158.929656 -376.390625 C 150.468719 -385.96875 141.367156 -395.210938 130.499969 -402.03125 C 106.148406 -418.351562 75.23825 -424.179688 46.5195 -418.78125 C 27.671844 -441.25 -0.488313 -455.160156 -29.539094 -457.96875 C -52.890656 -460.308594 -76.820344 -455.128906 -97.289094 -443.738281 C -121.281281 -430.128906 -140.519563 -407.859375 -149.691438 -381.769531 C -163.019563 -378.398438 -176.128938 -373.75 -187.871125 -366.511719 C -198.988313 -359.210938 -209.238313 -350.488281 -217.738313 -340.230469 C -225.359406 -330.621094 -231.398469 -319.820312 -235.929719 -308.429688 C -240.351594 -297.359375 -242.109406 -285.480469 -243.4805 -273.710938 L -243.4805 -259.191406 C -242.031281 -249.359375 -240.7305 -239.429688 -237.421906 -230.011719 C -232.660188 -216.210938 -225.582063 -203.078125 -215.960969 -192.050781 C -218.019563 -184.949219 -219.812531 -177.75 -220.781281 -170.410156 C -223.812531 -150.390625 -220.898469 -129.640625 -213.519563 -110.839844 C -209.390656 -101.179688 -204.140656 -92.03125 -197.94925 -83.550781 C -187.160188 -69.898438 -173.601594 -58.320312 -157.941438 -50.640625 C -135.710969 -38.960938 -109.378938 -35.601562 -84.76175 -40.128906 C -72.332063 -25.449219 -55.94925 -14.339844 -38.01175 -7.519531 C -25.871125 -2.820312 -12.859406 -1.28125 -0.00003125 0 M -22.722688 -6.539062 C -45.031281 -11.800781 -65.832063 -23.78125 -81.070344 -40.960938 C -43.121125 -49.078125 -10.382844 -77.578125 2.867156 -114.050781 C 28.468719 -84.890625 69.48825 -70.410156 107.761687 -76.851562 C 98.687469 -52.949219 81.210906 -32.410156 59.289031 -19.320312 C 51.039031 -14.828125 42.5195 -10.730469 33.449187 -8.160156 C 15.230437 -2.949219 -4.210969 -2.691406 -22.722688 -6.539062 M -156.671906 -53.960938 C -177.339875 -64 -194.26175 -81.011719 -205.2305 -101.101562 C -219.722688 -127.769531 -222.500031 -160.339844 -213.2305 -189.191406 C -201.789094 -176.378906 -187.210969 -166.601562 -171.562531 -159.679688 C -151.69925 -151.671875 -129.562531 -148.679688 -108.421906 -152.578125 C -114.44925 -132.089844 -115.601594 -110.070312 -110.4805 -89.269531 C -106.710969 -72.238281 -98.01175 -56.75 -87.531281 -42.96875 C -110.941438 -39.191406 -135.679719 -42.738281 -156.671906 -53.960938 M -105.222688 -82.261719 C -112.398469 -104.738281 -112.062531 -129.320312 -105.26175 -151.851562 C -98.871125 -144.648438 -91.691438 -138.03125 -83.51175 -132.878906 C -59.51175 -116.289062 -29.01175 -110.101562 -0.312531 -114.730469 C -7.109406 -96.410156 -18.722688 -79.75 -34.050813 -67.53125 C -48.300813 -55.910156 -65.339875 -47.5 -83.378938 -43.730469 C -93.390656 -54.738281 -100.410188 -68.238281 -105.222688 -82.261719 M 5.527312 -115.980469 C 18.699187 -118.441406 31.101531 -124.03125 42.429656 -131.058594 C 64.011687 -144.140625 80.089812 -165.140625 89.480437 -188.371094 C 98.499969 -177.511719 105.089812 -164.761719 109.777312 -151.480469 C 117.070281 -128.601562 117.187469 -103.261719 109.039031 -80.601562 C 71.570281 -73.601562 30.570281 -87.011719 5.527312 -115.980469 M 113.058562 -81.351562 C 121.609344 -110.359375 119.898406 -142.921875 105.437469 -169.769531 C 101.859344 -177.359375 96.679656 -184.011719 91.937469 -190.878906 C 100.617156 -192.550781 109.039031 -195.519531 116.999969 -199.328125 C 144.218719 -211.730469 165.339812 -235.628906 176.2695 -263.289062 C 188.011687 -248.648438 196.160125 -231.210938 199.878875 -212.820312 C 202.30075 -198.269531 202.23825 -183.269531 199.527312 -168.761719 C 197.289031 -159.890625 194.687469 -151 190.480437 -142.828125 C 175.960906 -111.878906 146.511687 -88.480469 113.058562 -81.351562 M -95.800813 -146.78125 C -98.300813 -148.871094 -100.929719 -150.960938 -102.421906 -153.949219 C -92.039094 -155.621094 -82.269563 -159.789062 -73.01175 -164.640625 C -53.000031 -175.070312 -36.421906 -191.648438 -25.359406 -211.28125 C -28.660188 -190.378906 -26.769563 -168.480469 -18.820344 -148.800781 C -14.300813 -137.648438 -8.019563 -127.300781 -0.640656 -117.820312 C -10.179719 -116.75 -19.832063 -115.628906 -29.410188 -116.949219 C -54.101594 -118.820312 -77.898469 -129.75 -95.800813 -146.78125 M 4.699187 -118.820312 C 8.898406 -132.449219 10.949187 -146.761719 9.999969 -161.03125 C 9.359344 -180.128906 2.55075 -198.421875 -6.578156 -215 C 11.148406 -200.191406 33.499969 -191.070312 56.437469 -188.578125 C 66.410125 -188.191406 76.499969 -187.851562 86.359344 -189.640625 C 81.058562 -176.148438 73.648406 -163.328125 63.628875 -152.78125 C 48.058562 -135.828125 27.140594 -123.871094 4.699187 -118.820312 M -18.839875 -158.378906 C -25.539094 -180.199219 -25.691438 -204.160156 -18.421906 -225.859375 C 5.671844 -197.03125 12.968719 -155.851562 1.687469 -120.179688 C -7.2305 -131.640625 -14.300813 -144.558594 -18.839875 -158.378906 M -149.531281 -156.351562 C -172.531281 -160.621094 -193.51175 -173.011719 -209.601594 -189.820312 C -210.812531 -191.21875 -212.44925 -192.941406 -211.269563 -194.890625 C -206.851594 -206.800781 -200.128938 -217.820312 -191.7305 -227.339844 C -176.2305 -246.539062 -153.69925 -259.601562 -129.691438 -264.890625 C -138.851594 -236.378906 -136.570344 -204.339844 -122.839875 -177.660156 C -119.320344 -169.671875 -114.082063 -162.621094 -108.941438 -155.628906 C -122.351594 -153.539062 -136.210969 -153.621094 -149.531281 -156.351562 M -103.160188 -156.820312 C -94.410188 -179.75 -78.179719 -199.871094 -57.179719 -212.691406 C -46.300813 -219.148438 -34.582063 -224.511719 -22.089875 -226.929688 C -24.7305 -219.328125 -28.51175 -212.101562 -32.941438 -205.390625 C -41.851594 -191 -54.859406 -179.679688 -68.851594 -170.390625 C -79.472688 -164.058594 -91.039094 -159.320312 -103.160188 -156.820312 M -130.250031 -208.988281 C -133.039094 -227.320312 -132.550813 -246.46875 -126.519563 -264.121094 C -114.101594 -250.328125 -98.339875 -239.738281 -81.019563 -233.140625 C -67.851594 -227.96875 -53.621125 -226.039062 -39.531281 -226.019531 C -41.76175 -223.738281 -45.000031 -223.03125 -47.69925 -221.46875 C -74.488313 -208.761719 -95.679719 -185.308594 -106.44925 -157.761719 C -118.582063 -172.449219 -126.519563 -190.359375 -130.250031 -208.988281 M -15.460969 -228.101562 C 21.249969 -234.808594 60.839812 -220.53125 85.527312 -192.699219 C 80.210906 -192.289062 74.910125 -191.339844 69.55075 -191.449219 C 37.710906 -190.589844 5.718719 -204.28125 -15.460969 -228.101562 M 91.570281 -193.691406 C 93.218719 -201.109375 95.199187 -208.46875 96.039031 -216.050781 C 98.437469 -238.960938 94.648406 -262.839844 83.5195 -283.160156 C 79.98825 -290.320312 75.187469 -296.78125 70.499969 -303.21875 C 100.199187 -308.011719 132.058562 -300.890625 156.011687 -282.429688 C 162.308562 -277.460938 168.7695 -272.488281 173.589812 -265.988281 C 167.558562 -249.039062 157.261687 -233.671875 144.027312 -221.488281 C 129.589812 -207.570312 110.999969 -198.308594 91.570281 -193.691406 M 44.589812 -224.960938 C 30.289031 -230.609375 14.867156 -233.128906 -0.4805 -232.75 C 7.460906 -236.320312 15.499969 -239.898438 22.710906 -244.820312 C 43.480437 -257.988281 58.80075 -278.558594 68.101531 -301.140625 C 79.171844 -287.039062 87.460906 -270.601562 91.210906 -253.011719 C 95.320281 -233.710938 94.308562 -213.328125 88.160125 -194.570312 C 76.179656 -207.808594 61.179656 -218.339844 44.589812 -224.960938 M -240.082063 -264 C -241.148469 -293.410156 -229.441438 -322.628906 -209.609406 -344.171875 C -194.378938 -361.039062 -173.500031 -372.410156 -151.429719 -377.449219 C -152.660188 -371.230469 -154.871125 -365.210938 -155.390656 -358.859375 C -158.839875 -335.328125 -155.019563 -310.738281 -144.070344 -289.589844 C -140.7305 -281.660156 -134.878938 -275.238281 -130.410188 -267.980469 C -143.238313 -265.199219 -155.562531 -260.089844 -166.800813 -253.351562 C -188.628938 -240.089844 -205.222688 -219.089844 -214.472688 -195.398438 C -229.820344 -214.878906 -239.648469 -239.039062 -240.082063 -264 M -111.921906 -254.570312 C -115.960969 -258.269531 -120.871125 -261.261719 -123.539094 -266.210938 C -107.640656 -268.148438 -91.191438 -267.941406 -75.750031 -263.320312 C -55.531281 -257.640625 -36.859406 -246.339844 -22.800813 -230.710938 C -28.281281 -229.230469 -33.9805 -229.320312 -39.609406 -229.171875 C -65.800813 -228.390625 -91.582063 -238.371094 -111.921906 -254.570312 M -16.281281 -231.921875 C -8.429719 -252.089844 4.890594 -270.339844 22.589812 -282.929688 C 35.078094 -292.078125 49.460906 -298.929688 64.73825 -301.820312 C 57.289031 -281.679688 43.570281 -263.941406 26.320281 -251.210938 C 13.55075 -242.160156 -0.812531 -234.851562 -16.281281 -231.921875 M -19.839875 -232.808594 C -27.51175 -242.660156 -33.960969 -253.460938 -38.300813 -265.191406 C -47.191438 -288.558594 -47.628938 -314.878906 -40.050813 -338.671875 C -25.871125 -320.859375 -16.210969 -298.980469 -14.910188 -276.078125 C -13.94925 -261.539062 -15.089875 -246.660156 -19.839875 -232.808594 M -38.460969 -249.039062 C -51.320344 -258.238281 -66.191438 -264.46875 -81.550813 -268.101562 C -95.660188 -271.210938 -110.371125 -271.308594 -124.640656 -269.230469 C -111.890656 -304.53125 -79.871125 -332.019531 -43.210969 -339.839844 C -44.210969 -335.210938 -45.621125 -330.679688 -46.460969 -326.03125 C -51.101594 -300.78125 -47.69925 -273.769531 -35.429719 -251.089844 C -34.148469 -248.5 -32.941438 -245.871094 -31.539094 -243.339844 C -33.550813 -245.570312 -35.921906 -247.449219 -38.460969 -249.039062 M -12.988313 -247 C -8.679719 -271.5 -12.460969 -297.410156 -23.851594 -319.539062 C -27.332063 -327.339844 -32.7305 -334.03125 -37.371125 -341.148438 C -33.750031 -341.410156 -30.121125 -341.671875 -26.51175 -342.121094 C -17.76175 -343.199219 -8.9805 -341.898438 -0.312531 -340.820312 C 13.890594 -338.859375 27.179656 -332.96875 39.511687 -325.871094 C 48.679656 -320.140625 57.437469 -313.441406 64.249969 -304.96875 C 55.378875 -303.359375 46.7695 -300.300781 38.7695 -296.171875 C 16.878875 -285.828125 -1.519563 -268.300781 -12.988313 -247 M 152.308562 -288.851562 C 128.390594 -304.898438 98.261687 -311.050781 69.898406 -306.230469 C 78.968719 -334.929688 77.011687 -367.371094 62.851531 -394.121094 C 59.2695 -401.871094 54.230437 -408.820312 49.140594 -415.628906 C 50.878875 -416.011719 52.640594 -416.460938 54.437469 -416.558594 C 61.128875 -416.691406 67.80075 -418.058594 74.48825 -417.019531 C 113.539031 -414.878906 150.617156 -390.671875 167.867156 -355.519531 C 181.859344 -329.449219 183.73825 -297.699219 174.980437 -269.640625 C 168.289031 -276.960938 160.660125 -283.480469 152.308562 -288.851562 M -147.148469 -378.371094 C -124.722688 -382.039062 -101.210969 -379.390625 -80.44925 -369.980469 C -66.691438 -363.511719 -53.820344 -354.558594 -43.972688 -342.890625 C -81.750031 -334.929688 -114.359406 -306.5 -127.69925 -270.289062 C -152.312531 -299.660156 -160.320344 -342.300781 -147.148469 -378.371094 M -14.51175 -345.460938 C -22.351594 -345.441406 -30.390656 -345.949219 -38.000031 -343.671875 C -38.320344 -341.410156 -38.941438 -338.878906 -41.789094 -339.011719 C -42.582063 -340.730469 -43.332063 -342.488281 -44.000031 -344.269531 C -41.94925 -344.300781 -39.890656 -344.320312 -37.820344 -344.339844 C -29.179719 -367.589844 -12.51175 -387.828125 8.749969 -400.679688 C 20.109344 -407.300781 32.378875 -412.878906 45.468719 -414.878906 C 49.128875 -410.519531 52.320281 -405.789062 55.589812 -401.128906 C 72.730437 -373.460938 76.687469 -338.351562 66.890594 -307.371094 C 46.171844 -330.058594 16.339812 -344.589844 -14.51175 -345.460938 M -68.871125 -367.648438 C -80.472688 -373.789062 -92.7305 -378.949219 -105.679719 -381.378906 C -112.890656 -382.429688 -120.171906 -383.140625 -127.441438 -383.460938 C -133.710969 -383.128906 -139.988313 -382.648438 -146.19925 -381.738281 C -142.929719 -390.539062 -138.640656 -399.03125 -132.972688 -406.539062 C -125.351594 -417.089844 -116.421906 -426.871094 -105.601594 -434.210938 C -96.109406 -440.910156 -85.550813 -446.03125 -74.609406 -449.871094 C -55.628938 -455.679688 -35.179719 -456.398438 -15.789094 -452.300781 C 6.558562 -447.121094 27.410125 -435.019531 42.687469 -417.859375 C 22.210906 -413.421875 3.078094 -403.101562 -12.01175 -388.589844 C -25.210969 -376.75 -34.851594 -361.371094 -41.26175 -344.941406 C -49.210969 -353.871094 -58.820344 -361.210938 -68.871125 -367.648438 Z M -68.871125 -367.648438 " transform="matrix(1,0,0,-1,243.4805,0)"/>
</g>
</g>
<mask id="mask1">
  <g filter="url(#alpha)">
<rect x="0" y="0" width="449" height="459" style="fill:rgb(0%,0%,0%);fill-opacity:0.960999;stroke:none;"/>
  </g>
</mask>
<clipPath id="clip10">
  <path d="M 0 0 L 449 0 L 449 458.566406 L 0 458.566406 Z M 0 0 "/>
</clipPath>
<clipPath id="clip9">
  <rect x="0" y="0" width="449" height="459"/>
</clipPath>
<g id="surface15" clip-path="url(#clip9)">
<g clip-path="url(#clip10)" clip-rule="nonzero">
<path style="fill:none;stroke-width:0.094;stroke-linecap:butt;stroke-linejoin:miter;stroke:rgb(43.899536%,38.798523%,36.499023%);stroke-opacity:1;stroke-miterlimit:10;" d="M -0.00003125 0 L 3.710906 0 C 16.73825 -1.101562 29.878875 -2.738281 42.187469 -7.378906 C 74.011687 -19.121094 100.05075 -45.378906 111.617156 -77.25 C 123.679656 -80.140625 135.359344 -84.460938 146.289031 -90.339844 C 164.089812 -100.890625 179.437469 -115.75 189.808562 -133.71875 C 196.628875 -146.75 202.089812 -160.679688 204.011687 -175.339844 C 204.679656 -180.121094 204.777312 -184.96875 205.5195 -189.75 L 205.5195 -193.078125 C 204.578094 -200.78125 204.421844 -208.601562 202.578094 -216.179688 C 198.187469 -234.628906 190.187469 -252.488281 177.749969 -266.941406 C 187.261687 -296.660156 185.449187 -330.398438 170.5195 -358.039062 C 167.30075 -364.53125 163.148406 -370.519531 158.929656 -376.390625 C 150.468719 -385.96875 141.367156 -395.210938 130.499969 -402.03125 C 106.148406 -418.351562 75.23825 -424.179688 46.5195 -418.78125 C 27.671844 -441.25 -0.488313 -455.160156 -29.539094 -457.96875 C -52.890656 -460.308594 -76.820344 -455.128906 -97.289094 -443.738281 C -121.281281 -430.128906 -140.519563 -407.859375 -149.691438 -381.769531 C -163.019563 -378.398438 -176.128938 -373.75 -187.871125 -366.511719 C -198.988313 -359.210938 -209.238313 -350.488281 -217.738313 -340.230469 C -225.359406 -330.621094 -231.398469 -319.820312 -235.929719 -308.429688 C -240.351594 -297.359375 -242.109406 -285.480469 -243.4805 -273.710938 L -243.4805 -259.191406 C -242.031281 -249.359375 -240.7305 -239.429688 -237.421906 -230.011719 C -232.660188 -216.210938 -225.582063 -203.078125 -215.960969 -192.050781 C -218.019563 -184.949219 -219.812531 -177.75 -220.781281 -170.410156 C -223.812531 -150.390625 -220.898469 -129.640625 -213.519563 -110.839844 C -209.390656 -101.179688 -204.140656 -92.03125 -197.94925 -83.550781 C -187.160188 -69.898438 -173.601594 -58.320312 -157.941438 -50.640625 C -135.710969 -38.960938 -109.378938 -35.601562 -84.76175 -40.128906 C -72.332063 -25.449219 -55.94925 -14.339844 -38.01175 -7.519531 C -25.871125 -2.820312 -12.859406 -1.28125 -0.00003125 0 M -22.722688 -6.539062 C -45.031281 -11.800781 -65.832063 -23.78125 -81.070344 -40.960938 C -43.121125 -49.078125 -10.382844 -77.578125 2.867156 -114.050781 C 28.468719 -84.890625 69.48825 -70.410156 107.761687 -76.851562 C 98.687469 -52.949219 81.210906 -32.410156 59.289031 -19.320312 C 51.039031 -14.828125 42.5195 -10.730469 33.449187 -8.160156 C 15.230437 -2.949219 -4.210969 -2.691406 -22.722688 -6.539062 M -156.671906 -53.960938 C -177.339875 -64 -194.26175 -81.011719 -205.2305 -101.101562 C -219.722688 -127.769531 -222.500031 -160.339844 -213.2305 -189.191406 C -201.789094 -176.378906 -187.210969 -166.601562 -171.562531 -159.679688 C -151.69925 -151.671875 -129.562531 -148.679688 -108.421906 -152.578125 C -114.44925 -132.089844 -115.601594 -110.070312 -110.4805 -89.269531 C -106.710969 -72.238281 -98.01175 -56.75 -87.531281 -42.96875 C -110.941438 -39.191406 -135.679719 -42.738281 -156.671906 -53.960938 M -105.222688 -82.261719 C -112.398469 -104.738281 -112.062531 -129.320312 -105.26175 -151.851562 C -98.871125 -144.648438 -91.691438 -138.03125 -83.51175 -132.878906 C -59.51175 -116.289062 -29.01175 -110.101562 -0.312531 -114.730469 C -7.109406 -96.410156 -18.722688 -79.75 -34.050813 -67.53125 C -48.300813 -55.910156 -65.339875 -47.5 -83.378938 -43.730469 C -93.390656 -54.738281 -100.410188 -68.238281 -105.222688 -82.261719 M 5.527312 -115.980469 C 18.699187 -118.441406 31.101531 -124.03125 42.429656 -131.058594 C 64.011687 -144.140625 80.089812 -165.140625 89.480437 -188.371094 C 98.499969 -177.511719 105.089812 -164.761719 109.777312 -151.480469 C 117.070281 -128.601562 117.187469 -103.261719 109.039031 -80.601562 C 71.570281 -73.601562 30.570281 -87.011719 5.527312 -115.980469 M 113.058562 -81.351562 C 121.609344 -110.359375 119.898406 -142.921875 105.437469 -169.769531 C 101.859344 -177.359375 96.679656 -184.011719 91.937469 -190.878906 C 100.617156 -192.550781 109.039031 -195.519531 116.999969 -199.328125 C 144.218719 -211.730469 165.339812 -235.628906 176.2695 -263.289062 C 188.011687 -248.648438 196.160125 -231.210938 199.878875 -212.820312 C 202.30075 -198.269531 202.23825 -183.269531 199.527312 -168.761719 C 197.289031 -159.890625 194.687469 -151 190.480437 -142.828125 C 175.960906 -111.878906 146.511687 -88.480469 113.058562 -81.351562 M -95.800813 -146.78125 C -98.300813 -148.871094 -100.929719 -150.960938 -102.421906 -153.949219 C -92.039094 -155.621094 -82.269563 -159.789062 -73.01175 -164.640625 C -53.000031 -175.070312 -36.421906 -191.648438 -25.359406 -211.28125 C -28.660188 -190.378906 -26.769563 -168.480469 -18.820344 -148.800781 C -14.300813 -137.648438 -8.019563 -127.300781 -0.640656 -117.820312 C -10.179719 -116.75 -19.832063 -115.628906 -29.410188 -116.949219 C -54.101594 -118.820312 -77.898469 -129.75 -95.800813 -146.78125 M 4.699187 -118.820312 C 8.898406 -132.449219 10.949187 -146.761719 9.999969 -161.03125 C 9.359344 -180.128906 2.55075 -198.421875 -6.578156 -215 C 11.148406 -200.191406 33.499969 -191.070312 56.437469 -188.578125 C 66.410125 -188.191406 76.499969 -187.851562 86.359344 -189.640625 C 81.058562 -176.148438 73.648406 -163.328125 63.628875 -152.78125 C 48.058562 -135.828125 27.140594 -123.871094 4.699187 -118.820312 M -18.839875 -158.378906 C -25.539094 -180.199219 -25.691438 -204.160156 -18.421906 -225.859375 C 5.671844 -197.03125 12.968719 -155.851562 1.687469 -120.179688 C -7.2305 -131.640625 -14.300813 -144.558594 -18.839875 -158.378906 M -149.531281 -156.351562 C -172.531281 -160.621094 -193.51175 -173.011719 -209.601594 -189.820312 C -210.812531 -191.21875 -212.44925 -192.941406 -211.269563 -194.890625 C -206.851594 -206.800781 -200.128938 -217.820312 -191.7305 -227.339844 C -176.2305 -246.539062 -153.69925 -259.601562 -129.691438 -264.890625 C -138.851594 -236.378906 -136.570344 -204.339844 -122.839875 -177.660156 C -119.320344 -169.671875 -114.082063 -162.621094 -108.941438 -155.628906 C -122.351594 -153.539062 -136.210969 -153.621094 -149.531281 -156.351562 M -103.160188 -156.820312 C -94.410188 -179.75 -78.179719 -199.871094 -57.179719 -212.691406 C -46.300813 -219.148438 -34.582063 -224.511719 -22.089875 -226.929688 C -24.7305 -219.328125 -28.51175 -212.101562 -32.941438 -205.390625 C -41.851594 -191 -54.859406 -179.679688 -68.851594 -170.390625 C -79.472688 -164.058594 -91.039094 -159.320312 -103.160188 -156.820312 M -130.250031 -208.988281 C -133.039094 -227.320312 -132.550813 -246.46875 -126.519563 -264.121094 C -114.101594 -250.328125 -98.339875 -239.738281 -81.019563 -233.140625 C -67.851594 -227.96875 -53.621125 -226.039062 -39.531281 -226.019531 C -41.76175 -223.738281 -45.000031 -223.03125 -47.69925 -221.46875 C -74.488313 -208.761719 -95.679719 -185.308594 -106.44925 -157.761719 C -118.582063 -172.449219 -126.519563 -190.359375 -130.250031 -208.988281 M -15.460969 -228.101562 C 21.249969 -234.808594 60.839812 -220.53125 85.527312 -192.699219 C 80.210906 -192.289062 74.910125 -191.339844 69.55075 -191.449219 C 37.710906 -190.589844 5.718719 -204.28125 -15.460969 -228.101562 M 91.570281 -193.691406 C 93.218719 -201.109375 95.199187 -208.46875 96.039031 -216.050781 C 98.437469 -238.960938 94.648406 -262.839844 83.5195 -283.160156 C 79.98825 -290.320312 75.187469 -296.78125 70.499969 -303.21875 C 100.199187 -308.011719 132.058562 -300.890625 156.011687 -282.429688 C 162.308562 -277.460938 168.7695 -272.488281 173.589812 -265.988281 C 167.558562 -249.039062 157.261687 -233.671875 144.027312 -221.488281 C 129.589812 -207.570312 110.999969 -198.308594 91.570281 -193.691406 M 44.589812 -224.960938 C 30.289031 -230.609375 14.867156 -233.128906 -0.4805 -232.75 C 7.460906 -236.320312 15.499969 -239.898438 22.710906 -244.820312 C 43.480437 -257.988281 58.80075 -278.558594 68.101531 -301.140625 C 79.171844 -287.039062 87.460906 -270.601562 91.210906 -253.011719 C 95.320281 -233.710938 94.308562 -213.328125 88.160125 -194.570312 C 76.179656 -207.808594 61.179656 -218.339844 44.589812 -224.960938 M -240.082063 -264 C -241.148469 -293.410156 -229.441438 -322.628906 -209.609406 -344.171875 C -194.378938 -361.039062 -173.500031 -372.410156 -151.429719 -377.449219 C -152.660188 -371.230469 -154.871125 -365.210938 -155.390656 -358.859375 C -158.839875 -335.328125 -155.019563 -310.738281 -144.070344 -289.589844 C -140.7305 -281.660156 -134.878938 -275.238281 -130.410188 -267.980469 C -143.238313 -265.199219 -155.562531 -260.089844 -166.800813 -253.351562 C -188.628938 -240.089844 -205.222688 -219.089844 -214.472688 -195.398438 C -229.820344 -214.878906 -239.648469 -239.039062 -240.082063 -264 M -111.921906 -254.570312 C -115.960969 -258.269531 -120.871125 -261.261719 -123.539094 -266.210938 C -107.640656 -268.148438 -91.191438 -267.941406 -75.750031 -263.320312 C -55.531281 -257.640625 -36.859406 -246.339844 -22.800813 -230.710938 C -28.281281 -229.230469 -33.9805 -229.320312 -39.609406 -229.171875 C -65.800813 -228.390625 -91.582063 -238.371094 -111.921906 -254.570312 M -16.281281 -231.921875 C -8.429719 -252.089844 4.890594 -270.339844 22.589812 -282.929688 C 35.078094 -292.078125 49.460906 -298.929688 64.73825 -301.820312 C 57.289031 -281.679688 43.570281 -263.941406 26.320281 -251.210938 C 13.55075 -242.160156 -0.812531 -234.851562 -16.281281 -231.921875 M -19.839875 -232.808594 C -27.51175 -242.660156 -33.960969 -253.460938 -38.300813 -265.191406 C -47.191438 -288.558594 -47.628938 -314.878906 -40.050813 -338.671875 C -25.871125 -320.859375 -16.210969 -298.980469 -14.910188 -276.078125 C -13.94925 -261.539062 -15.089875 -246.660156 -19.839875 -232.808594 M -38.460969 -249.039062 C -51.320344 -258.238281 -66.191438 -264.46875 -81.550813 -268.101562 C -95.660188 -271.210938 -110.371125 -271.308594 -124.640656 -269.230469 C -111.890656 -304.53125 -79.871125 -332.019531 -43.210969 -339.839844 C -44.210969 -335.210938 -45.621125 -330.679688 -46.460969 -326.03125 C -51.101594 -300.78125 -47.69925 -273.769531 -35.429719 -251.089844 C -34.148469 -248.5 -32.941438 -245.871094 -31.539094 -243.339844 C -33.550813 -245.570312 -35.921906 -247.449219 -38.460969 -249.039062 M -12.988313 -247 C -8.679719 -271.5 -12.460969 -297.410156 -23.851594 -319.539062 C -27.332063 -327.339844 -32.7305 -334.03125 -37.371125 -341.148438 C -33.750031 -341.410156 -30.121125 -341.671875 -26.51175 -342.121094 C -17.76175 -343.199219 -8.9805 -341.898438 -0.312531 -340.820312 C 13.890594 -338.859375 27.179656 -332.96875 39.511687 -325.871094 C 48.679656 -320.140625 57.437469 -313.441406 64.249969 -304.96875 C 55.378875 -303.359375 46.7695 -300.300781 38.7695 -296.171875 C 16.878875 -285.828125 -1.519563 -268.300781 -12.988313 -247 M 152.308562 -288.851562 C 128.390594 -304.898438 98.261687 -311.050781 69.898406 -306.230469 C 78.968719 -334.929688 77.011687 -367.371094 62.851531 -394.121094 C 59.2695 -401.871094 54.230437 -408.820312 49.140594 -415.628906 C 50.878875 -416.011719 52.640594 -416.460938 54.437469 -416.558594 C 61.128875 -416.691406 67.80075 -418.058594 74.48825 -417.019531 C 113.539031 -414.878906 150.617156 -390.671875 167.867156 -355.519531 C 181.859344 -329.449219 183.73825 -297.699219 174.980437 -269.640625 C 168.289031 -276.960938 160.660125 -283.480469 152.308562 -288.851562 M -147.148469 -378.371094 C -124.722688 -382.039062 -101.210969 -379.390625 -80.44925 -369.980469 C -66.691438 -363.511719 -53.820344 -354.558594 -43.972688 -342.890625 C -81.750031 -334.929688 -114.359406 -306.5 -127.69925 -270.289062 C -152.312531 -299.660156 -160.320344 -342.300781 -147.148469 -378.371094 M -14.51175 -345.460938 C -22.351594 -345.441406 -30.390656 -345.949219 -38.000031 -343.671875 C -38.320344 -341.410156 -38.941438 -338.878906 -41.789094 -339.011719 C -42.582063 -340.730469 -43.332063 -342.488281 -44.000031 -344.269531 C -41.94925 -344.300781 -39.890656 -344.320312 -37.820344 -344.339844 C -29.179719 -367.589844 -12.51175 -387.828125 8.749969 -400.679688 C 20.109344 -407.300781 32.378875 -412.878906 45.468719 -414.878906 C 49.128875 -410.519531 52.320281 -405.789062 55.589812 -401.128906 C 72.730437 -373.460938 76.687469 -338.351562 66.890594 -307.371094 C 46.171844 -330.058594 16.339812 -344.589844 -14.51175 -345.460938 M -68.871125 -367.648438 C -80.472688 -373.789062 -92.7305 -378.949219 -105.679719 -381.378906 C -112.890656 -382.429688 -120.171906 -383.140625 -127.441438 -383.460938 C -133.710969 -383.128906 -139.988313 -382.648438 -146.19925 -381.738281 C -142.929719 -390.539062 -138.640656 -399.03125 -132.972688 -406.539062 C -125.351594 -417.089844 -116.421906 -426.871094 -105.601594 -434.210938 C -96.109406 -440.910156 -85.550813 -446.03125 -74.609406 -449.871094 C -55.628938 -455.679688 -35.179719 -456.398438 -15.789094 -452.300781 C 6.558562 -447.121094 27.410125 -435.019531 42.687469 -417.859375 C 22.210906 -413.421875 3.078094 -403.101562 -12.01175 -388.589844 C -25.210969 -376.75 -34.851594 -361.371094 -41.26175 -344.941406 C -49.210969 -353.871094 -58.820344 -361.210938 -68.871125 -367.648438 Z M -68.871125 -367.648438 " transform="matrix(1,0,0,-1,243.4805,0)"/>
</g>
</g>
<clipPath id="clip1">
  <rect x="0" y="0" width="449" height="459"/>
</clipPath>
<g id="surface18" clip-path="url(#clip1)">
<g clip-path="url(#clip2)" clip-rule="nonzero">
<use xlink:href="#surface8" comp-op="dst-out"/>
<use xlink:href="#surface9" comp-op="plus" mask="url(#mask0)"/>
<use xlink:href="#surface14" comp-op="dst-out"/>
<use xlink:href="#surface15" comp-op="plus" mask="url(#mask1)"/>
</g>
</g>
</defs>
<g id="surface1">
<path style=" stroke:none;fill-rule:nonzero;fill:rgb(43.899536%,38.798523%,36.499023%);fill-opacity:1;" d="M 206.109375 338.722656 L 199.128906 338.722656 L 199.128906 344.511719 L 206.109375 344.511719 Z M 206.109375 338.722656 "/>
<use xlink:href="#surface18"/>
<path style=" stroke:none;fill-rule:nonzero;fill:rgb(100%,69.799805%,69.799805%);fill-opacity:1;" d="M 220.761719 6.539062 C 239.269531 2.691406 258.710938 2.949219 276.929688 8.160156 C 286 10.730469 294.519531 14.828125 302.769531 19.320312 C 324.691406 32.410156 342.167969 52.949219 351.238281 76.851562 C 312.96875 70.410156 271.949219 84.890625 246.351562 114.050781 C 233.101562 77.578125 200.359375 49.078125 162.410156 40.960938 C 177.648438 23.78125 198.449219 11.800781 220.761719 6.539062 "/>
<path style="fill:none;stroke-width:0.094;stroke-linecap:butt;stroke-linejoin:miter;stroke:rgb(100%,69.799805%,69.799805%);stroke-opacity:1;stroke-miterlimit:10;" d="M 0.00191875 0.0009375 C 18.509731 3.848594 37.951138 3.590781 56.169888 -1.620156 C 65.2402 -4.190469 73.759731 -8.288125 82.009731 -12.780312 C 103.931606 -25.870156 121.408169 -46.409219 130.478481 -70.311562 C 92.20895 -63.870156 51.189419 -78.350625 25.591763 -107.510781 C 12.341763 -71.038125 -20.400425 -42.538125 -58.349644 -34.420937 C -43.111362 -17.24125 -22.310581 -5.260781 0.00191875 0.0009375 Z M 0.00191875 0.0009375 " transform="matrix(1,0,0,-1,220.7598,6.54)"/>
<path style=" stroke:none;fill-rule:nonzero;fill:rgb(100%,69.799805%,69.799805%);fill-opacity:1;" d="M 86.808594 53.960938 C 107.800781 42.738281 132.539062 39.191406 155.949219 42.96875 C 145.46875 56.75 136.769531 72.238281 133 89.269531 C 127.878906 110.070312 129.03125 132.089844 135.058594 152.578125 C 113.921875 148.679688 91.78125 151.671875 71.921875 159.679688 C 56.269531 166.601562 41.691406 176.378906 30.25 189.191406 C 20.980469 160.339844 23.761719 127.769531 38.25 101.101562 C 49.21875 81.011719 66.140625 64 86.808594 53.960938 "/>
<path style="fill:none;stroke-width:0.094;stroke-linecap:butt;stroke-linejoin:miter;stroke:rgb(100%,69.799805%,69.799805%);stroke-opacity:1;stroke-miterlimit:10;" d="M -0.00150625 -0.0009375 C 20.990681 11.221719 45.728962 14.768594 69.139119 10.99125 C 58.65865 -2.79 49.959431 -18.278281 46.1899 -35.309531 C 41.068806 -56.110313 42.22115 -78.129844 48.248494 -98.618125 C 27.111775 -94.719688 4.97115 -97.711875 -14.888225 -105.719688 C -30.540569 -112.641563 -45.118694 -122.418906 -56.5601 -135.231406 C -65.829631 -106.379844 -63.048381 -73.809531 -48.5601 -47.141563 C -37.59135 -27.051719 -20.669475 -10.04 -0.00150625 -0.0009375 Z M -0.00150625 -0.0009375 " transform="matrix(1,0,0,-1,86.8101,53.96)"/>
<path style=" stroke:none;fill-rule:nonzero;fill:rgb(100%,87.5%,69.799805%);fill-opacity:1;" d="M 138.261719 82.261719 C 143.070312 68.238281 150.089844 54.738281 160.101562 43.730469 C 178.140625 47.5 195.179688 55.910156 209.429688 67.53125 C 224.761719 79.75 236.371094 96.410156 243.167969 114.730469 C 214.46875 110.101562 183.96875 116.289062 159.96875 132.878906 C 151.789062 138.03125 144.609375 144.648438 138.21875 151.851562 C 131.417969 129.320312 131.078125 104.738281 138.261719 82.261719 "/>
<path style="fill:none;stroke-width:0.094;stroke-linecap:butt;stroke-linejoin:miter;stroke:rgb(100%,87.5%,69.799805%);stroke-opacity:1;stroke-miterlimit:10;" d="M 0.00191875 -0.00191875 C 4.810513 14.021519 11.830044 27.521519 21.841763 38.529331 C 39.880825 34.7598 56.919888 26.349644 71.169888 14.72855 C 86.501919 2.5098 98.111294 -14.150356 104.908169 -32.470669 C 76.20895 -27.841763 45.70895 -34.029263 21.70895 -50.619106 C 13.529263 -55.77145 6.349575 -62.388638 -0.04105 -69.591763 C -6.841831 -47.060513 -7.181675 -22.478481 0.00191875 -0.00191875 Z M 0.00191875 -0.00191875 " transform="matrix(1,0,0,-1,138.2598,82.2598)"/>
<path style=" stroke:none;fill-rule:nonzero;fill:rgb(100%,87.5%,69.799805%);fill-opacity:1;" d="M 249.011719 115.980469 C 274.050781 87.011719 315.050781 73.601562 352.519531 80.601562 C 360.667969 103.261719 360.550781 128.601562 353.261719 151.480469 C 348.570312 164.761719 341.980469 177.511719 332.960938 188.371094 C 323.570312 165.140625 307.488281 144.140625 285.910156 131.058594 C 274.578125 124.03125 262.179688 118.441406 249.011719 115.980469 "/>
<path style="fill:none;stroke-width:0.094;stroke-linecap:butt;stroke-linejoin:miter;stroke:rgb(100%,87.5%,69.799805%);stroke-opacity:1;stroke-miterlimit:10;" d="M 0.00191875 -0.00046875 C 25.040981 28.968281 66.040981 42.378438 103.509731 35.378438 C 111.658169 12.718281 111.540981 -12.621562 104.251919 -35.500469 C 99.560513 -48.781719 92.970669 -61.531719 83.951138 -72.391094 C 74.560513 -49.160625 58.478481 -28.160625 36.900356 -15.078594 C 25.568325 -8.05125 13.169888 -2.461406 0.00191875 -0.00046875 Z M 0.00191875 -0.00046875 " transform="matrix(1,0,0,-1,249.0098,115.98)"/>
<path style=" stroke:none;fill-rule:nonzero;fill:rgb(100%,69.799805%,69.799805%);fill-opacity:1;" d="M 356.539062 81.351562 C 389.988281 88.480469 419.441406 111.878906 433.960938 142.832031 C 438.171875 151 440.769531 159.890625 443.011719 168.761719 C 445.71875 183.269531 445.78125 198.269531 443.359375 212.820312 C 439.640625 231.210938 431.488281 248.648438 419.75 263.289062 C 408.820312 235.628906 387.699219 211.730469 360.480469 199.332031 C 352.519531 195.519531 344.101562 192.550781 335.421875 190.878906 C 340.160156 184.011719 345.339844 177.359375 348.921875 169.769531 C 363.378906 142.921875 365.089844 110.359375 356.539062 81.351562 "/>
<path style="fill:none;stroke-width:0.094;stroke-linecap:butt;stroke-linejoin:miter;stroke:rgb(100%,69.799805%,69.799805%);stroke-opacity:1;stroke-miterlimit:10;" d="M -0.0009375 -0.0014625 C 33.448281 -7.130369 62.901406 -30.528806 77.420937 -61.481931 C 81.631875 -69.6499 84.229531 -78.540525 86.471719 -87.411619 C 89.17875 -101.919431 89.24125 -116.919431 86.819375 -131.470213 C 83.100625 -149.860838 74.948281 -167.298338 63.21 -181.938963 C 52.280312 -154.278806 31.159219 -130.380369 3.940469 -117.981931 C -4.020469 -114.169431 -12.438438 -111.200681 -21.118125 -109.528806 C -16.379844 -102.661619 -11.200156 -96.009275 -7.618125 -88.419431 C 6.838906 -61.571775 8.549844 -29.009275 -0.0009375 -0.0014625 Z M -0.0009375 -0.0014625 " transform="matrix(1,0,0,-1,356.54,81.3501)"/>
<path style=" stroke:none;fill-rule:nonzero;fill:rgb(100%,96.899414%,69.799805%);fill-opacity:1;" d="M 147.679688 146.78125 C 165.582031 129.75 189.378906 118.820312 214.070312 116.949219 C 223.648438 115.628906 233.300781 116.75 242.839844 117.820312 C 235.460938 127.300781 229.179688 137.648438 224.660156 148.800781 C 216.710938 168.480469 214.820312 190.378906 218.121094 211.28125 C 207.058594 191.648438 190.480469 175.070312 170.46875 164.640625 C 161.210938 159.789062 151.441406 155.621094 141.058594 153.949219 C 142.550781 150.960938 145.179688 148.871094 147.679688 146.78125 "/>
<path style="fill:none;stroke-width:0.094;stroke-linecap:butt;stroke-linejoin:miter;stroke:rgb(100%,96.899414%,69.799805%);stroke-opacity:1;stroke-miterlimit:10;" d="M -0.0005125 -0.00145 C 17.901831 17.0298 41.698706 27.959488 66.390112 29.830581 C 75.968237 31.150894 85.620581 30.0298 95.159644 28.959488 C 87.780737 19.479019 81.499487 9.131363 76.979956 -2.020981 C 69.030737 -21.700669 67.140112 -43.599106 70.440894 -64.50145 C 59.378394 -44.868637 42.800269 -28.290512 22.78855 -17.860825 C 13.530737 -13.009262 3.761206 -8.841294 -6.621606 -7.169419 C -5.129419 -4.181137 -2.500513 -2.091294 -0.0005125 -0.00145 Z M -0.0005125 -0.00145 " transform="matrix(1,0,0,-1,147.6802,146.7798)"/>
<path style=" stroke:none;fill-rule:nonzero;fill:rgb(100%,96.899414%,69.799805%);fill-opacity:1;" d="M 248.179688 118.820312 C 270.621094 123.871094 291.539062 135.828125 307.109375 152.78125 C 317.128906 163.328125 324.539062 176.148438 329.839844 189.640625 C 319.980469 187.851562 309.890625 188.191406 299.917969 188.578125 C 276.980469 191.070312 254.628906 200.191406 236.902344 215 C 246.03125 198.417969 252.839844 180.128906 253.480469 161.03125 C 254.429688 146.761719 252.378906 132.449219 248.179688 118.820312 "/>
<path style="fill:none;stroke-width:0.094;stroke-linecap:butt;stroke-linejoin:miter;stroke:rgb(100%,96.899414%,69.799805%);stroke-opacity:1;stroke-miterlimit:10;" d="M -0.0000125 -0.0005125 C 22.441394 -5.051294 43.359363 -17.008325 58.929675 -33.96145 C 68.949206 -44.508325 76.359363 -57.328638 81.660144 -70.820825 C 71.800769 -69.031763 61.710925 -69.371606 51.738269 -69.758325 C 28.800769 -72.250513 6.449206 -81.371606 -11.277356 -96.1802 C -2.14845 -79.598169 4.660144 -61.309106 5.300769 -42.21145 C 6.249988 -27.941919 4.199206 -13.629419 -0.0000125 -0.0005125 Z M -0.0000125 -0.0005125 " transform="matrix(1,0,0,-1,248.1797,118.8198)"/>
<path style=" stroke:none;fill-rule:nonzero;fill:rgb(100%,69.799805%,69.799805%);fill-opacity:1;" d="M 224.640625 158.378906 C 229.179688 144.558594 236.25 131.640625 245.167969 120.179688 C 256.449219 155.851562 249.152344 197.03125 225.058594 225.859375 C 217.789062 204.160156 217.941406 180.199219 224.640625 158.378906 "/>
<path style="fill:none;stroke-width:0.094;stroke-linecap:butt;stroke-linejoin:miter;stroke:rgb(100%,69.799805%,69.799805%);stroke-opacity:1;stroke-miterlimit:10;" d="M 0.001025 0.00099375 C 4.540088 13.821306 11.6104 26.739275 20.528369 38.200213 C 31.809619 2.528338 24.512744 -38.65135 0.418994 -67.479475 C -6.850537 -45.780256 -6.698194 -21.819319 0.001025 0.00099375 Z M 0.001025 0.00099375 " transform="matrix(1,0,0,-1,224.6396,158.3799)"/>
<path style=" stroke:none;fill-rule:nonzero;fill:rgb(100%,87.5%,69.799805%);fill-opacity:1;" d="M 93.949219 156.351562 C 107.269531 153.621094 121.128906 153.539062 134.539062 155.628906 C 129.398438 162.621094 124.160156 169.671875 120.640625 177.660156 C 106.910156 204.339844 104.628906 236.378906 113.789062 264.890625 C 89.78125 259.601562 67.25 246.539062 51.75 227.339844 C 43.351562 217.820312 36.628906 206.800781 32.210938 194.890625 C 31.03125 192.941406 32.671875 191.21875 33.878906 189.820312 C 49.96875 173.011719 70.949219 160.621094 93.949219 156.351562 "/>
<path style="fill:none;stroke-width:0.094;stroke-linecap:butt;stroke-linejoin:miter;stroke:rgb(100%,87.5%,69.799805%);stroke-opacity:1;stroke-miterlimit:10;" d="M -0.00098125 -0.0014625 C 13.319331 2.729006 27.178706 2.811037 40.588862 0.721194 C 35.448237 -6.270994 30.209956 -13.321775 26.690425 -21.310056 C 12.959956 -47.989744 10.678706 -80.028806 19.838862 -108.540525 C -4.16895 -103.251463 -26.7002 -90.188963 -42.2002 -70.989744 C -50.598638 -61.470213 -57.321294 -50.450681 -61.739263 -38.540525 C -62.91895 -36.591306 -61.278325 -34.86865 -60.071294 -33.470213 C -43.98145 -16.661619 -23.000981 -4.270994 -0.00098125 -0.0014625 Z M -0.00098125 -0.0014625 " transform="matrix(1,0,0,-1,93.9502,156.3501)"/>
<path style=" stroke:none;fill-rule:nonzero;fill:rgb(100%,69.799805%,69.799805%);fill-opacity:1;" d="M 140.320312 156.820312 C 152.441406 159.320312 164.011719 164.058594 174.628906 170.390625 C 188.621094 179.679688 201.628906 191 210.539062 205.390625 C 214.96875 212.101562 218.75 219.328125 221.390625 226.929688 C 208.898438 224.511719 197.179688 219.148438 186.300781 212.691406 C 165.300781 199.871094 149.070312 179.75 140.320312 156.820312 "/>
<path style="fill:none;stroke-width:0.094;stroke-linecap:butt;stroke-linejoin:miter;stroke:rgb(100%,69.799805%,69.799805%);stroke-opacity:1;stroke-miterlimit:10;" d="M 0.0005125 -0.0005125 C 12.121606 -2.500513 23.691919 -7.238794 34.309106 -13.570825 C 48.301294 -22.859888 61.309106 -34.1802 70.219263 -48.570825 C 74.64895 -55.281763 78.4302 -62.508325 81.070825 -70.109888 C 68.578638 -67.691919 56.859888 -62.328638 45.980981 -55.871606 C 24.980981 -43.051294 8.750513 -22.9302 0.0005125 -0.0005125 Z M 0.0005125 -0.0005125 " transform="matrix(1,0,0,-1,140.3198,156.8198)"/>
<path style=" stroke:none;fill-rule:nonzero;fill:rgb(100%,96.899414%,69.799805%);fill-opacity:1;" d="M 113.230469 208.988281 C 116.960938 190.359375 124.898438 172.449219 137.03125 157.761719 C 147.800781 185.308594 168.988281 208.761719 195.78125 221.46875 C 198.480469 223.03125 201.71875 223.738281 203.949219 226.019531 C 189.859375 226.039062 175.628906 227.96875 162.460938 233.140625 C 145.140625 239.738281 129.378906 250.332031 116.960938 264.121094 C 110.929688 246.46875 110.441406 227.320312 113.230469 208.988281 "/>
<path style="fill:none;stroke-width:0.094;stroke-linecap:butt;stroke-linejoin:miter;stroke:rgb(100%,96.899414%,69.799805%);stroke-opacity:1;stroke-miterlimit:10;" d="M 0.00046875 0.00191875 C 3.730937 18.630825 11.668437 36.540981 23.80125 51.228481 C 34.570781 23.681606 55.758281 0.228481 82.55125 -12.47855 C 85.250469 -14.04105 88.48875 -14.748081 90.719219 -17.029331 C 76.629375 -17.048862 62.398906 -18.97855 49.230937 -24.150425 C 31.910625 -30.748081 16.148906 -41.341831 3.730937 -55.130894 C -2.300313 -37.47855 -2.788594 -18.330112 0.00046875 0.00191875 Z M 0.00046875 0.00191875 " transform="matrix(1,0,0,-1,113.23,208.9902)"/>
<path style=" stroke:none;fill-rule:nonzero;fill:rgb(100%,69.799805%,69.799805%);fill-opacity:1;" d="M 228.019531 228.101562 C 249.199219 204.28125 281.191406 190.589844 313.03125 191.449219 C 318.390625 191.339844 323.691406 192.289062 329.007812 192.699219 C 304.320312 220.53125 264.730469 234.808594 228.019531 228.101562 "/>
<path style="fill:none;stroke-width:0.094;stroke-linecap:butt;stroke-linejoin:miter;stroke:rgb(100%,69.799805%,69.799805%);stroke-opacity:1;stroke-miterlimit:10;" d="M 0.00003125 -0.0014625 C 21.179719 23.81885 53.171906 37.510256 85.01175 36.650881 C 90.371125 36.760256 95.671906 35.811037 100.988313 35.400881 C 76.300813 7.56885 36.710969 -6.708494 0.00003125 -0.0014625 Z M 0.00003125 -0.0014625 " transform="matrix(1,0,0,-1,228.0195,228.1001)"/>
<path style=" stroke:none;fill-rule:nonzero;fill:rgb(100%,87.5%,69.799805%);fill-opacity:1;" d="M 335.050781 193.691406 C 354.480469 198.308594 373.070312 207.570312 387.511719 221.488281 C 400.738281 233.667969 411.039062 249.039062 417.070312 265.988281 C 412.25 272.488281 405.789062 277.460938 399.488281 282.429688 C 375.539062 300.890625 343.679688 308.011719 313.980469 303.21875 C 318.667969 296.78125 323.46875 290.320312 327 283.160156 C 338.128906 262.839844 341.917969 238.960938 339.519531 216.050781 C 338.679688 208.46875 336.699219 201.109375 335.050781 193.691406 "/>
<path style="fill:none;stroke-width:0.094;stroke-linecap:butt;stroke-linejoin:miter;stroke:rgb(100%,87.5%,69.799805%);stroke-opacity:1;stroke-miterlimit:10;" d="M 0.00098125 -0.00150625 C 19.430669 -4.618694 38.020512 -13.880412 52.461919 -27.798381 C 65.688481 -39.978069 75.989262 -55.349162 82.020512 -72.298381 C 77.2002 -78.798381 70.739262 -83.771037 64.438481 -88.739787 C 40.489262 -107.200725 8.629887 -114.321819 -21.069331 -109.52885 C -16.381831 -103.09135 -11.58105 -96.630412 -8.0498 -89.470256 C 3.079106 -69.149944 6.868169 -45.271037 4.469731 -22.360881 C 3.629887 -14.77885 1.649419 -7.419475 0.00098125 -0.00150625 Z M 0.00098125 -0.00150625 " transform="matrix(1,0,0,-1,335.0498,193.6899)"/>
<path style=" stroke:none;fill-rule:nonzero;fill:rgb(100%,96.899414%,69.799805%);fill-opacity:1;" d="M 288.070312 224.960938 C 304.660156 218.339844 319.660156 207.808594 331.640625 194.570312 C 337.789062 213.328125 338.800781 233.710938 334.691406 253.011719 C 330.941406 270.601562 322.648438 287.039062 311.582031 301.140625 C 302.28125 278.558594 286.960938 257.988281 266.191406 244.820312 C 258.980469 239.898438 250.941406 236.320312 243 232.75 C 258.347656 233.128906 273.769531 230.609375 288.070312 224.960938 "/>
<path style="fill:none;stroke-width:0.094;stroke-linecap:butt;stroke-linejoin:miter;stroke:rgb(100%,96.899414%,69.799805%);stroke-opacity:1;stroke-miterlimit:10;" d="M 0.0000125 -0.0009375 C 16.589856 6.620156 31.589856 17.151406 43.570325 30.389688 C 49.718763 11.631875 50.730481 -8.750937 46.621106 -28.051719 C 42.871106 -45.641562 34.578138 -62.079062 23.511731 -76.180625 C 14.21095 -53.598594 -1.109362 -33.028281 -21.878894 -19.860312 C -29.089831 -14.938437 -37.128894 -11.360312 -45.0703 -7.79 C -29.722644 -8.168906 -14.300769 -5.649375 0.0000125 -0.0009375 Z M 0.0000125 -0.0009375 " transform="matrix(1,0,0,-1,288.0703,224.96)"/>
<path style=" stroke:none;fill-rule:nonzero;fill:rgb(100%,69.799805%,69.799805%);fill-opacity:1;" d="M 3.398438 264 C 3.828125 239.039062 13.660156 214.878906 29.011719 195.398438 C 38.261719 219.089844 54.851562 240.089844 76.679688 253.351562 C 87.917969 260.089844 100.238281 265.199219 113.070312 267.980469 C 108.601562 275.238281 102.75 281.660156 99.410156 289.589844 C 88.460938 310.738281 84.640625 335.328125 88.089844 358.859375 C 88.609375 365.210938 90.820312 371.230469 92.050781 377.449219 C 69.980469 372.410156 49.101562 361.039062 33.871094 344.171875 C 14.039062 322.628906 2.328125 293.410156 3.398438 264 "/>
<path style="fill:none;stroke-width:0.094;stroke-linecap:butt;stroke-linejoin:miter;stroke:rgb(100%,69.799805%,69.799805%);stroke-opacity:1;stroke-miterlimit:10;" d="M -0.0014625 0 C 0.428225 24.960938 10.260256 49.121094 25.611819 68.601562 C 34.861819 44.910156 51.451662 23.910156 73.279787 10.648438 C 84.518069 3.910156 96.838381 -1.199219 109.670412 -3.980469 C 105.201662 -11.238281 99.3501 -17.660156 96.010256 -25.589844 C 85.061037 -46.738281 81.240725 -71.328125 84.689944 -94.859375 C 85.209475 -101.210938 87.420412 -107.230469 88.650881 -113.449219 C 66.580569 -108.410156 45.701662 -97.039062 30.471194 -80.171875 C 10.639163 -58.628906 -1.071775 -29.410156 -0.0014625 0 Z M -0.0014625 0 " transform="matrix(1,0,0,-1,3.3999,264)"/>
<path style=" stroke:none;fill-rule:nonzero;fill:rgb(100%,69.799805%,69.799805%);fill-opacity:1;" d="M 131.558594 254.570312 C 151.898438 238.371094 177.679688 228.390625 203.871094 229.171875 C 209.5 229.320312 215.199219 229.230469 220.679688 230.710938 C 206.621094 246.339844 187.949219 257.640625 167.730469 263.320312 C 152.289062 267.941406 135.839844 268.148438 119.941406 266.210938 C 122.609375 261.257812 127.519531 258.269531 131.558594 254.570312 "/>
<path style="fill:none;stroke-width:0.094;stroke-linecap:butt;stroke-linejoin:miter;stroke:rgb(100%,69.799805%,69.799805%);stroke-opacity:1;stroke-miterlimit:10;" d="M -0.00150625 -0.0000125 C 20.338337 16.199206 46.119587 26.179675 72.310994 25.398425 C 77.9399 25.249988 83.639119 25.339831 89.119587 23.859363 C 75.060994 8.230456 56.389119 -3.070325 36.170369 -8.750012 C 20.728962 -13.371106 4.279744 -13.578137 -11.618694 -11.640637 C -8.950725 -6.687512 -4.040569 -3.699231 -0.00150625 -0.0000125 Z M -0.00150625 -0.0000125 " transform="matrix(1,0,0,-1,131.5601,254.5703)"/>
<path style=" stroke:none;fill-rule:nonzero;fill:rgb(100%,69.799805%,69.799805%);fill-opacity:1;" d="M 227.199219 231.917969 C 242.671875 234.851562 257.03125 242.160156 269.800781 251.210938 C 287.050781 263.941406 300.769531 281.679688 308.21875 301.820312 C 292.941406 298.929688 278.558594 292.078125 266.070312 282.929688 C 248.371094 270.339844 235.050781 252.089844 227.199219 231.917969 "/>
<path style="fill:none;stroke-width:0.094;stroke-linecap:butt;stroke-linejoin:miter;stroke:rgb(100%,69.799805%,69.799805%);stroke-opacity:1;stroke-miterlimit:10;" d="M -0.00098125 0.00193125 C 15.471675 -2.931663 29.83105 -10.240256 42.600581 -19.291038 C 59.850581 -32.021506 73.569331 -49.759788 81.01855 -69.900413 C 65.741206 -67.009788 51.358394 -60.158225 38.870113 -51.009788 C 21.170894 -38.419944 7.850581 -20.169944 -0.00098125 0.00193125 Z M -0.00098125 0.00193125 " transform="matrix(1,0,0,-1,227.2002,231.9199)"/>
<path style=" stroke:none;fill-rule:nonzero;fill:rgb(100%,69.799805%,69.799805%);fill-opacity:1;" d="M 223.640625 232.808594 C 228.390625 246.660156 229.53125 261.539062 228.570312 276.082031 C 227.269531 298.980469 217.609375 320.859375 203.429688 338.667969 C 195.851562 314.878906 196.289062 288.558594 205.179688 265.191406 C 209.519531 253.460938 215.96875 242.660156 223.640625 232.808594 "/>
<path style="fill:none;stroke-width:0.094;stroke-linecap:butt;stroke-linejoin:miter;stroke:rgb(100%,69.799805%,69.799805%);stroke-opacity:1;stroke-miterlimit:10;" d="M 0.000525 0.00100625 C 4.750525 -13.850556 5.89115 -28.729463 4.930213 -43.272431 C 3.629431 -66.170869 -6.030725 -88.049775 -20.210412 -105.858369 C -27.788537 -82.069306 -27.351037 -55.748994 -18.460412 -32.381806 C -14.120569 -20.651338 -7.67135 -9.850556 0.000525 0.00100625 Z M 0.000525 0.00100625 " transform="matrix(1,0,0,-1,223.6401,232.8096)"/>
<path style=" stroke:none;fill-rule:nonzero;fill:rgb(100%,96.899414%,69.799805%);fill-opacity:1;" d="M 205.019531 249.039062 C 207.558594 247.449219 209.929688 245.570312 211.941406 243.339844 C 210.539062 245.871094 209.328125 248.5 208.050781 251.089844 C 195.78125 273.769531 192.378906 300.78125 197.019531 326.03125 C 197.859375 330.679688 199.269531 335.210938 200.269531 339.839844 C 163.609375 332.019531 131.589844 304.53125 118.839844 269.230469 C 133.109375 271.308594 147.820312 271.210938 161.929688 268.101562 C 177.289062 264.46875 192.160156 258.238281 205.019531 249.039062 "/>
<path style="fill:none;stroke-width:0.094;stroke-linecap:butt;stroke-linejoin:miter;stroke:rgb(100%,96.899414%,69.799805%);stroke-opacity:1;stroke-miterlimit:10;" d="M -0.00046875 0.0009375 C 2.538594 1.590781 4.909687 3.469687 6.921406 5.700156 C 5.519062 3.168906 4.308125 0.54 3.030781 -2.049844 C -9.23875 -24.729531 -12.641094 -51.74125 -8.000469 -76.99125 C -7.160625 -81.639688 -5.750469 -86.170938 -4.750469 -90.799844 C -41.410625 -82.979531 -73.430156 -55.49125 -86.180156 -20.190469 C -71.910625 -22.268594 -57.199688 -22.170938 -43.090313 -19.061563 C -27.730938 -15.42875 -12.859844 -9.198281 -0.00046875 0.0009375 Z M -0.00046875 0.0009375 " transform="matrix(1,0,0,-1,205.02,249.04)"/>
<path style=" stroke:none;fill-rule:nonzero;fill:rgb(100%,96.899414%,69.799805%);fill-opacity:1;" d="M 230.488281 247 C 241.960938 268.300781 260.359375 285.828125 282.25 296.171875 C 290.25 300.300781 298.859375 303.359375 307.730469 304.96875 C 300.921875 313.441406 292.160156 320.140625 282.988281 325.871094 C 270.660156 332.96875 257.371094 338.859375 243.171875 340.820312 C 234.5 341.898438 225.71875 343.199219 216.96875 342.121094 C 213.359375 341.671875 209.730469 341.410156 206.109375 341.148438 C 210.75 334.03125 216.148438 327.339844 219.628906 319.539062 C 231.019531 297.410156 234.800781 271.5 230.488281 247 "/>
<path style="fill:none;stroke-width:0.094;stroke-linecap:butt;stroke-linejoin:miter;stroke:rgb(100%,96.899414%,69.799805%);stroke-opacity:1;stroke-miterlimit:10;" d="M -0.00191875 0 C 11.470737 -21.300781 29.869175 -38.828125 51.7598 -49.171875 C 59.7598 -53.300781 68.369175 -56.359375 77.240269 -57.96875 C 70.431675 -66.441406 61.669956 -73.140625 52.498081 -78.871094 C 40.169956 -85.96875 26.880894 -91.859375 12.681675 -93.820312 C 4.0098 -94.898438 -4.77145 -96.199219 -13.52145 -95.121094 C -17.130825 -94.671875 -20.759731 -94.410156 -24.380825 -94.148438 C -19.7402 -87.03125 -14.341763 -80.339844 -10.861294 -72.539062 C 0.529331 -50.410156 4.310581 -24.5 -0.00191875 0 Z M -0.00191875 0 " transform="matrix(1,0,0,-1,230.4902,247)"/>
<path style=" stroke:none;fill-rule:nonzero;fill:rgb(100%,69.799805%,69.799805%);fill-opacity:1;" d="M 395.789062 288.847656 C 404.140625 283.480469 411.769531 276.960938 418.460938 269.640625 C 427.21875 297.699219 425.339844 329.449219 411.351562 355.519531 C 394.101562 390.667969 357.019531 414.878906 317.96875 417.019531 C 311.28125 418.058594 304.609375 416.691406 297.921875 416.558594 C 296.121094 416.460938 294.359375 416.007812 292.621094 415.628906 C 297.710938 408.820312 302.75 401.871094 306.328125 394.121094 C 320.488281 367.371094 322.449219 334.929688 313.378906 306.230469 C 341.738281 311.050781 371.871094 304.902344 395.789062 288.847656 "/>
<path style="fill:none;stroke-width:0.094;stroke-linecap:butt;stroke-linejoin:miter;stroke:rgb(100%,69.799805%,69.799805%);stroke-opacity:1;stroke-miterlimit:10;" d="M -0.0009375 0.00194375 C 8.350625 5.369131 15.979531 11.888663 22.670938 19.208975 C 31.42875 -8.849619 29.549844 -40.599619 15.561563 -66.669931 C -1.688437 -101.818369 -38.770469 -126.029306 -77.82125 -128.169931 C -84.50875 -129.208994 -91.180625 -127.841806 -97.868125 -127.708994 C -99.668906 -127.611337 -101.430625 -127.158212 -103.168906 -126.779306 C -98.079062 -119.970712 -93.04 -113.021494 -89.461875 -105.271494 C -75.301719 -78.521494 -73.340781 -46.080087 -82.411094 -17.380869 C -54.051719 -22.201181 -23.918906 -16.052744 -0.0009375 0.00194375 Z M -0.0009375 0.00194375 " transform="matrix(1,0,0,-1,395.79,288.8496)"/>
<path style=" stroke:none;fill-rule:nonzero;fill:rgb(100%,87.5%,69.799805%);fill-opacity:1;" d="M 96.332031 378.371094 C 83.160156 342.300781 91.171875 299.660156 115.78125 270.289062 C 129.121094 306.5 161.730469 334.929688 199.511719 342.890625 C 189.660156 354.558594 176.789062 363.511719 163.03125 369.980469 C 142.269531 379.390625 118.761719 382.039062 96.332031 378.371094 "/>
<path style="fill:none;stroke-width:0.094;stroke-linecap:butt;stroke-linejoin:miter;stroke:rgb(100%,87.5%,69.799805%);stroke-opacity:1;stroke-miterlimit:10;" d="M 0.00193125 -0.00099375 C -13.169944 36.069319 -5.158225 78.709944 19.45115 108.081037 C 32.790994 71.8701 65.400369 43.440412 103.181619 35.479475 C 93.330056 23.811506 80.458962 14.858381 66.70115 8.389631 C 45.939431 -1.020525 22.431619 -3.668963 0.00193125 -0.00099375 Z M 0.00193125 -0.00099375 " transform="matrix(1,0,0,-1,96.3301,378.3701)"/>
<path style=" stroke:none;fill-rule:nonzero;fill:rgb(100%,87.5%,69.799805%);fill-opacity:1;" d="M 228.96875 345.460938 C 259.820312 344.589844 289.652344 330.058594 310.371094 307.371094 C 320.167969 338.351562 316.210938 373.460938 299.070312 401.128906 C 295.800781 405.789062 292.609375 410.519531 288.949219 414.878906 C 275.859375 412.878906 263.589844 407.300781 252.230469 400.679688 C 230.96875 387.828125 214.300781 367.589844 205.660156 344.339844 L 205.480469 343.671875 C 213.089844 345.949219 221.128906 345.441406 228.96875 345.460938 "/>
<path style="fill:none;stroke-width:0.094;stroke-linecap:butt;stroke-linejoin:miter;stroke:rgb(100%,87.5%,69.799805%);stroke-opacity:1;stroke-miterlimit:10;" d="M -0.00095 -0.0009375 C 30.850613 0.870156 60.682644 15.401406 81.401394 38.088906 C 91.198269 7.108437 87.241238 -28.000938 70.100613 -55.668906 C 66.831081 -60.329063 63.639675 -65.059531 59.979519 -69.418906 C 46.889675 -67.418906 34.620144 -61.840781 23.260769 -55.219688 C 1.99905 -42.368125 -14.668919 -22.129844 -23.309544 1.120156 L -23.489231 1.788125 C -15.879856 -0.489219 -7.840794 0.0185937 -0.00095 -0.0009375 Z M -0.00095 -0.0009375 " transform="matrix(1,0,0,-1,228.9697,345.46)"/>
<path style=" stroke:none;fill-rule:nonzero;fill:rgb(100%,69.799805%,69.799805%);fill-opacity:1;" d="M 174.609375 367.652344 C 184.660156 361.210938 194.269531 353.871094 202.21875 344.941406 C 208.628906 361.371094 218.269531 376.75 231.46875 388.589844 C 246.558594 403.097656 265.691406 413.421875 286.167969 417.859375 C 270.890625 435.019531 250.039062 447.121094 227.691406 452.300781 C 208.300781 456.402344 187.851562 455.679688 168.871094 449.871094 C 157.929688 446.03125 147.371094 440.910156 137.878906 434.210938 C 127.058594 426.871094 118.128906 417.089844 110.511719 406.539062 C 104.839844 399.03125 100.550781 390.539062 97.28125 381.742188 C 103.488281 382.652344 109.769531 383.128906 116.039062 383.460938 C 123.308594 383.140625 130.589844 382.429688 137.800781 381.378906 C 150.75 378.949219 163.011719 373.789062 174.609375 367.652344 "/>
<path style="fill:none;stroke-width:0.094;stroke-linecap:butt;stroke-linejoin:miter;stroke:rgb(100%,69.799805%,69.799805%);stroke-opacity:1;stroke-miterlimit:10;" d="M -0.000525 -0.00194375 C 10.050256 6.439462 19.659631 13.779306 27.60885 22.708994 C 34.019006 6.279306 43.659631 -9.0996 56.85885 -20.939444 C 71.948694 -35.447256 91.081506 -45.771475 111.558069 -50.208975 C 96.280725 -67.369131 75.429163 -79.470694 53.081506 -84.650381 C 33.690881 -88.751944 13.241663 -88.029288 -5.738806 -82.220694 C -16.680212 -78.38085 -27.238806 -73.259756 -36.730994 -66.560538 C -47.551306 -59.220694 -56.480994 -49.439444 -64.098181 -38.888663 C -69.770056 -31.38085 -74.059119 -22.888663 -77.32865 -14.091788 C -71.121619 -15.001944 -64.840369 -15.478506 -58.570837 -15.810538 C -51.301306 -15.490225 -44.020056 -14.779288 -36.809119 -13.728506 C -23.8599 -11.298819 -11.598181 -6.138663 -0.000525 -0.00194375 Z M -0.000525 -0.00194375 " transform="matrix(1,0,0,-1,174.6099,367.6504)"/>
</g>
</svg>
