<svg xmlns="http://www.w3.org/2000/svg" xmlns:xlink="http://www.w3.org/1999/xlink" width="349.711pt" height="364.071pt" viewBox="0 0 349.711 364.071"><defs><path id="c" d="M1.01563 0H4.1875v-.3125L3.48438-.375c-.21875-.01562-.3125-.07812-.3125-.42187v-5.5l-.07813-.04688-2.0625.32813V-5.75l.75.10938c.20313.03125.26563.10937.26563.40625v4.4375c0 .34375-.09375.40625-.3125.42187l-.71875.0625Zm0 0"/><path id="d" d="m.20313-1.875.125.21875h2.46875v.95313c0 .26562-.10938.32812-.29688.34375l-.60937.04687V0h2.65625v-.3125l-.4375-.03125c-.1875-.03125-.25-.09375-.25-.35937v-.95313h.9375v-.51562h-.9375v-4.0625h-.89063C2.03125-4.875 1.04688-3.3125.20313-1.875m.8125-.29687c.5-.95313 1.125-1.96875 1.78125-3.03125v3.03125Zm0 0"/><path id="e" d="M.375-3.125C.375-1.32812.9375.10938 2.5625.10938S4.76563-1.32812 4.76563-3.125 4.1875-6.34375 2.5625-6.34375.375-4.92187.375-3.125m1.17188 0c0-1.3125.1875-2.85937 1.01562-2.85937.84375 0 1.01563 1.54687 1.01563 2.85937S3.40625-.26562 2.5625-.26562c-.82812 0-1.01562-1.54688-1.01562-2.85938m0 0"/><path id="f" d="m.48438 1.17188.23437.20312C1.1875.9375 1.98438.26563 1.98438-.48437c0-.48438-.28126-.89063-.71875-.89063-.375 0-.5625.28125-.5625.51563 0 .34375.26562.51562.26562.92187 0 .39063-.1875.78125-.48437 1.10938m0 0"/><path id="g" d="M.375-2.95312C.375-1 1.0625.10938 2.625.10938c1.51563 0 2.21875-.9375 2.21875-2.14063 0-1.28125-.8125-1.9375-1.79687-1.9375-.6875 0-1.20313.42188-1.5.78125 0-1.46875.375-2.79687 1.25-2.79687.40625 0 .6875.375.84375.95312.03125.125.14062.23438.3125.23438.21875 0 .59375-.17188.59375-.48438 0-.42187-.51563-1.0625-1.6875-1.0625-1.53125 0-2.48438 1.125-2.48438 3.39063m1.17188.75c0-.54688.375-1.17188 1.0625-1.17188.5625 0 1.0625.46875 1.0625 1.53125 0 .92188-.29688 1.57813-1.01563 1.57813-.76562 0-1.10937-.85938-1.10937-1.9375m0 0"/><path id="h" d="M.28125-.125.39063 0H4.4375l.35938-1.40625-.3125-.04687c-.21875.48437-.39063.5625-.76563.5625h-2.375C1.48438-1.3125 1.92188-1.92187 2.875-2.5c.98438-.625 1.64063-1.07812 1.64063-2.09375 0-1.29687-.89063-1.75-1.96875-1.75-1.25 0-2.04688.6875-2.04688 1.32813 0 .35937.42188.53125.64063.53125.1875 0 .28124-.10938.32812-.3125.15625-.67188.48438-1.1875 1.01563-1.1875.60937 0 .8125.53125.8125 1.20312 0 .82813-.32813 1.46875-1.25 2.23438C.82813-1.5.39063-.8125.28124-.125m0 0"/><path id="i" d="M.42188-1.03125c0 .39063.54687 1.14063 1.96875 1.14063 1.625 0 2.28125-.95313 2.28125-2.10938 0-1.10937-.64063-2-2-2-.5625 0-1.10938.25-1.42188.51563l.1875-1.54688c.03125-.28125.07813-.3125.29688-.3125H4.125l.28125-.79687-.04687-.09375H1.03125l-.09375.07812L.75-3.04687l.29688.1875c.39062-.4375.75-.65625 1.23437-.65625.60938 0 1.1875.46875 1.1875 1.625 0 .95312-.3125 1.625-1.03125 1.625-.54687 0-.85937-.39063-1.09375-1.0625C1.29688-1.48438 1.1875-1.59375 1-1.59375c-.25 0-.57812.21875-.57812.5625m0 0"/><path id="j" d="M.34375-5.0625c0 .70313.57813 1.28125 1.28125 1.28125.70313 0 1.3125-.57812 1.3125-1.28125 0-.6875-.60937-1.28125-1.3125-1.28125-.70312 0-1.28125.59375-1.28125 1.28125m.53125 0c0-.46875.35938-.84375.75-.84375.40625 0 .78125.375.78125.84375 0 .48438-.375.84375-.78125.84375s-.75-.35937-.75-.84375m0 0"/><path id="k" d="M.28125-1.03125c0 .39063.5625 1.14063 2.04688 1.14063C3.75.10938 4.64063-.5625 4.64063-1.75c0-1.29687-1.125-1.60937-1.57813-1.65625v-.04687c.5-.09375 1.3125-.4375 1.3125-1.35938 0-1.15625-.96875-1.53125-1.95312-1.53125C1.25-6.34375.5-5.71875.5-5.17187c0 .32812.40625.5.57813.5.17187 0 .25-.09375.29687-.25.21875-.65625.51563-1.0625 1.01563-1.0625.65625 0 .79687.67187.79687 1.14062s-.125 1.25-.875 1.25c-.40625 0-.6875-.10937-.85937-.10937-.15626 0-.20313.10937-.20313.3125 0 .1875.04688.3125.20313.3125.17187 0 .4375-.10938.85937-.10938.65625 0 1.10938.5 1.10938 1.46875 0 1.03125-.45313 1.45313-1.0625 1.45313-.53125 0-.90625-.39063-1.10938-1.0625-.0625-.1875-.17187-.28126-.34375-.28126-.25 0-.625.20313-.625.57813m0 0"/><path id="l" d="M.34375-4.21875c0 1.29688.79688 1.95313 1.79688 1.95313.6875 0 1.20312-.42188 1.5-.78125-.01563 1.45312-.375 2.78125-1.25 2.78125-.40625 0-.70313-.35938-.84375-.9375-.04688-.125-.14063-.23438-.3125-.23438-.21876 0-.59375.17188-.59375.48438 0 .42187.5 1.0625 1.67187 1.0625 1.60938 0 2.5-1.21875 2.5-3.40625 0-1.95313-.6875-3.04688-2.25-3.04688-1.51562 0-2.21875.92188-2.21875 2.125M1.5-4.40625c0-.92187.3125-1.57812 1.03125-1.57812.76563 0 1.10938.85937 1.10938 1.9375 0 .5625-.375 1.17187-1.07813 1.17187C2-2.875 1.5-3.34375 1.5-4.40625m0 0"/><path id="m" d="m.375-4.8125.29688.04688.07812-.1875c.125-.25.25-.39063.65625-.39063h2.48438c-.07813.32813-.29688.95313-1.04688 1.95313C2.0625-2.32812 1.51563-1.34375 1.51563-.375c0 .42188.29687.48438.64062.48438.28125 0 .5625-.0625.5625-.45313.01563-1.3125.23438-2.25.6875-2.96875.71875-1.17187 1.14063-1.78125 1.39063-2.82812l-.09375-.09375H.71875Zm0 0"/><path id="p" d="M.65625 0h5.5v-.53125C4.23438-.65625 4.1875-.67187 4.1875-1.73437v-4.375h2.60938c1.59375 0 1.67187.4375 1.82812 1.64062h.5625v-4H8.625c-.15625 1.1875-.23437 1.65625-1.82812 1.65625H4.1875v-4.79687c0-.60938.0625-.67188.6875-.67188h1.84375c2.17188 0 2.60938.4375 2.85938 2.34375h.5625v-2.98437H.65625v.54687c1.65625.10938 1.6875.125 1.6875 1.1875v9.45313c0 1.0625-.03125 1.07812-1.6875 1.20312Zm0 0"/><path id="q" d="M.92188-2.42187c0 1.39062.92187 2.64062 2.67187 2.64062C4.6875.21875 5.78125-.5 6.375-.89062c.26563.6875.57813 1.10937 1.23438 1.10937.70312 0 1.5-.20312 2.20312-.5625l-.10937-.4375c-.26563.0625-.6875.07813-.95313 0-.34375-.07812-.65625-.40625-.65625-1.57812v-4.53125c0-1.09375-.25-2.48438-3.0625-2.48438C2.92188-9.375 1.25-8.28125 1.25-7.25c0 .59375.70313.875 1.0625.875.39063 0 .48438-.20312.59375-.51562.40625-1.39063 1.17188-1.82813 1.92188-1.82813.73437 0 1.57812.375 1.57812 1.85938v.78125c-.48437.46875-2.29687.95312-3.76562 1.42187C1.29688-4.23437.92188-3.29687.92188-2.42187m1.875-.26563c0-.875.40625-1.32812 1.45312-1.71875.76563-.28125 1.73438-.64062 2.15625-.90625v2.65625c0 1.5-1.15625 1.875-1.89062 1.875-1.15625 0-1.71875-.8125-1.71875-1.90625m0 0"/><path id="r" d="M.59375 0h4.9375v-.53125C3.85938-.64062 3.75-.67187 3.75-1.625V-6c0-1.4375.64063-1.9375 1.07813-1.9375.29687 0 .625.125 1.15625.42188.14062.07812.28125.10937.375.10937.45312 0 .85937-.48437.85937-1.0625 0-.42187-.26562-.90625-1-.90625-.67187 0-1.23437.39063-2.46875 1.48438L3.53125-9.375l-2.82812.46875v.45313l.6875.10937C1.875-8.26562 2-8.1875 2-7.51562V-1.625C2-.67187 1.90625-.64062.59375-.53125Zm0 0"/><path id="s" d="M1.70313-12.21875c0 .67188.48437 1.14063 1.15625 1.14063.67187 0 1.14062-.46875 1.14062-1.14063 0-.6875-.46875-1.14062-1.14062-1.14062-.67188 0-1.15625.45312-1.15625 1.14062M.59375 0h4.54688v-.53125C3.8125-.64062 3.75-.67187 3.75-1.625v-7.64062L3.625-9.375l-2.92187.46875v.45313l.6875.10937C1.875-8.26562 2-8.1875 2-7.51562V-1.625C2-.67187 1.95313-.64062.59375-.53125Zm0 0"/><path id="t" d="M.59375 0h4.54688v-.53125C3.8125-.64062 3.75-.67187 3.75-1.625V-6c0-.48437.03125-.71875.1875-1.01562C4.32813-7.75 5.17188-8.375 6.15625-8.375c1.28125 0 1.96875.70313 1.96875 2.32813V-1.625c0 .95313-.0625.98438-1.40625 1.09375V0h4.5625v-.53125C9.95313-.64062 9.875-.67187 9.875-1.625v-4.78125c0-1.875-1.03125-2.96875-2.73437-2.96875-1.39063 0-2.25.67188-3.40625 1.42188l-.25-1.42188-2.78125.46875v.45313l.6875.10937C1.875-8.26562 2-8.1875 2-7.51562V-1.625C2-.67187 1.95313-.64062.59375-.53125Zm0 0"/><path id="u" d="M.92188-4.51562c0 2.96875 1.26562 4.73437 4.3125 4.73437 2.0625 0 3.14062-1.15625 3.625-2.625l-.54688-.29687C7.79688-1.60937 7.07813-.73437 5.60938-.73437c-2.32813 0-2.78125-2.23438-2.75-4.17188H8.25c.39063 0 .73438-.10937.73438-.71875 0-1.09375-.35938-3.75-3.78125-3.75-2.92188 0-4.28125 2.0625-4.28125 4.85938M2.875-5.625c0-.78125.28125-3.09375 2.23438-3.09375 1.73437 0 1.92187 1.76563 1.92187 2.5 0 .35938-.10937.59375-.625.59375Zm0 0"/><path id="y" d="M-.53125 0h4.10938v-.53125l-.96875-.10937c-.5625-.0625-.64063-.25-.48438-.75.3125-1.10938.70313-2.26563 1.14063-3.59375h4.1875l1.25 3.57812c.1875.53125.09375.73438-.5.79688l-.84375.07812V0h4.78125v-.53125c-1.09375-.10937-1.28125-.17187-1.625-1.14062l-3.95313-11.25H5.17188L3.21875-7.39062c-.57812 1.625-1.375 3.85937-2.03125 5.5625C.79688-.8125.64063-.59375-.53125-.53125Zm4.04688-5.70312c.59375-1.875 1.25-3.70313 1.8125-5.34375h.0625l1.84375 5.34375Zm0 0"/><path id="z" d="M.59375 0h4.54688v-.53125C3.8125-.64062 3.75-.67187 3.75-1.625V-6c0-.48437 0-.73437.14063-1C4.25-7.75 5.0625-8.375 6.10938-8.375c1.60937 0 1.79687 1.1875 1.79687 2.32813V-1.625c0 .95313-.0625.98438-1.40625 1.09375V0h4.54688v-.53125C9.71875-.64062 9.65625-.67187 9.65625-1.625V-6c0-.48437.01563-.71875.14063-1.01562.28125-.75 1.07812-1.35938 2.125-1.35938 1.17187 0 1.89062.65625 1.89062 2.32813V-1.625c0 .95313-.0625.98438-1.40625 1.09375V0h4.5625v-.53125C15.64063-.64062 15.5625-.67187 15.5625-1.625v-4.78125c0-1.875-1.01562-2.96875-2.78125-2.96875-1.53125 0-2.625 1-3.28125 1.42188-.45312-.875-1.17187-1.42188-2.48437-1.42188-1.4375 0-2.60938.95313-3.26563 1.42188L3.57813-9.375l-2.875.46875v.45313l.6875.10937C1.875-8.26562 2-8.1875 2-7.51562V-1.625C2-.67187 1.95313-.64062.59375-.53125Zm0 0"/><path id="A" d="M.92188-4.39062c0 2.76562 1.4375 4.60937 3.90625 4.60937 1.01562 0 1.875-.45312 2.89062-1.26562v.90625L7.875 0h3.01563v-.53125C9.5625-.64062 9.5-.67187 9.5-1.625V-13.75l-.14062-.10937-2.9375.46875v.46875l.71875.0625c.46875.0625.59375.15625.59375.875v3.0625c-.51563-.28125-1.21875-.45313-2.0625-.45313-1.53125 0-2.6875.48438-3.46875 1.28125C1.40625-7.25.92188-6.01562.92188-4.39062m1.9375-.21875c0-2.42188.875-4.10938 2.78125-4.10938.875 0 1.59375.39063 1.9375 1.17188.15625.3125.15625.59375.15625 1.09375v3.26562c0 .42188 0 .75-.125 1.0625-.375.96875-1.1875 1.34375-2.15625 1.34375-1.71875 0-2.59375-1.6875-2.59375-3.82812m0 0"/><path id="B" d="m.875-3.125.20313 2.45313C1.75-.07812 2.875.21874 3.96875.21874c2.23438 0 3.5-1.17187 3.5-2.76562 0-1.64063-1.01562-2.375-2.9375-2.98438-.78125-.23437-1.98437-.625-1.98437-1.6875 0-.96875.73437-1.5 1.67187-1.5 1.32813 0 1.96875 1.03125 2.09375 2.15625h.54688V-8.75c-.625-.45312-1.57813-.625-2.40625-.625-2.03125 0-3.40625.95313-3.40625 2.71875 0 1.54688 1.28125 2.25 2.82812 2.71875.82813.26563 2.01563.67188 2.01563 1.95313 0 .95312-.75 1.54687-1.73438 1.54687-1.51562 0-2.375-1.09375-2.75-2.6875Zm0 0"/><path id="D" d="m.9375-3.82812.17188 3C1.92188-.0625 3.5.28124 4.8125.28124c3.29688 0 4.60938-1.89062 4.60938-3.79687 0-2.20313-1.48438-3.26563-3.67188-4.0625l-.625-.21875c-1.25-.46875-2.28125-1.26563-2.28125-2.375 0-1.375.8125-2.39063 2.39063-2.39063 1.60937 0 2.5.92188 2.79687 2.79688h.57813V-12.375c-.64063-.5-1.89063-.84375-3.15625-.84375-2.29688 0-4.3125 1.15625-4.3125 3.625 0 1.96875 1.5625 2.96875 3.53125 3.67188l.34375.14062c.8125.3125 2.59375 1.15625 2.59375 2.8125 0 1.625-1.03125 2.59375-2.70313 2.59375-1.75 0-2.90625-1.375-3.375-3.45312Zm0 0"/><path id="E" d="m.48438-8.45312.70312.10937c.48438.07813.59375.15625.59375.82813v4.9375C1.78125-.4375 3.0625.21875 4.45313.21875c1.59375 0 2.875-1.07812 3.42187-1.32812L8.04688 0h3v-.53125C9.76563-.64062 9.64063-.67187 9.64063-1.625v-7.64062L9.5-9.375l-2.92187.46875v.45313l.71875.10937c.46875.07813.59375.15625.59375.82813v4.21875c0 .51562-.0625.9375-.15625 1.10937-.4375.85938-1.3125 1.40625-2.28125 1.40625-1.09375 0-1.89063-.6875-1.89063-2.14062v-6.34375L3.42188-9.375l-2.9375.46875Zm0 0"/><path id="F" d="M.92188-4.48437C.92188-1.375 2.4375.21875 5.25.21875c1.3125 0 3.07813-.67187 3.59375-2.6875l-.5625-.25C7.71875-1.40625 6.96875-.75 5.60938-.75c-2.23438 0-2.75-2.32812-2.75-4.07812 0-2.78125 1.09375-3.89063 2.39062-3.89063.85938 0 1.39063.60938 1.76563 1.625.125.29688.23437.46875.59375.46875.375 0 1.09375-.23437 1.09375-.95312 0-.84375-1.23438-1.79688-3.25-1.79688-3.40625 0-4.53125 2.40625-4.53125 4.89063m0 0"/><path id="H" d="M.65625 0H6.4375c2.84375 0 4.67188-1.01562 4.67188-3.625 0-2.20312-1.5625-3.17187-3.375-3.40625v-.04687c1.75-.35938 2.78125-1.45313 2.78125-2.875 0-1.03125-.40625-1.8125-1.15625-2.3125-.73438-.46875-1.8125-.65625-3.29688-.65625H.65625v.54687c1.65625.10938 1.6875.125 1.6875 1.1875v9.45313c0 1.0625-.03125 1.07812-1.6875 1.20312ZM4.1875-2.09375v-4.54687h1.34375C7.84375-6.64062 9.125-5.48437 9.125-3.5c0 2.25-1.53125 2.84375-3.14062 2.84375-1.5 0-1.79688-.28125-1.79688-1.4375m0-5.20312v-4.04688c0-.79687.0625-.9375 1.51563-.9375 1.375 0 2.85937.51563 2.85937 2.4375 0 1.82813-1.17187 2.54688-3.10937 2.54688Zm0 0"/><path id="v" d="M.5-.17187.70313 0h7.71875l.64062-2.46875-.51562-.09375c-.39063 1.01563-.78125 1.15625-1.53125 1.15625H2.25c.29688-.98437 1.40625-2.3125 3.14063-3.5625C7.17188-6.28125 8.5625-7.10937 8.5625-9.20312c0-2.60938-1.71875-3.5-3.6875-3.5-2.5625 0-3.875 1.54687-3.875 2.53125 0 .625.70313.9375 1.03125.9375.32813 0 .45313-.20313.53125-.53125.29688-1.26563 1.03125-2.28125 2.1875-2.28125 1.4375 0 1.84375 1.1875 1.84375 2.5625 0 2.01562-1.01562 3.14062-2.64062 4.57812C1.65625-2.90625.85938-1.625.5-.17187m0 0"/><path id="w" d="M.75-1.90625c0 .85938 1.3125 2.125 3.73438 2.125 3.09375 0 4.48437-1.875 4.48437-4.23437 0-2.625-1.64062-3.95313-3.85937-3.95313-1.03125 0-2.17188.45313-2.76563 1l.42188-3.54687c.0625-.46875.17187-.53125.53125-.53125h4.65625l.45312-1.28125-.09375-.15625h-6.25l-.17187.1875-.375 6.23437.45312.23438C2.75-6.71875 3.5-7.15625 4.51563-7.15625c1.1875 0 2.5.875 2.5 3.34375 0 1.92188-.78125 3.375-2.40625 3.375-1.3125 0-1.96875-.9375-2.34375-2-.09375-.28125-.28125-.46875-.53125-.46875-.39063 0-.98438.375-.98438 1m0 0"/><path id="x" d="M.78125-6.23437C.78125-2.5 1.875.21875 4.95313.21875S9.14063-2.5 9.14063-6.23437c0-3.75-1.10938-6.46875-4.1875-6.46875S.78125-9.98437.78125-6.23437m1.875 0c0-3.04688.53125-5.8125 2.29688-5.8125s2.28125 2.76562 2.28125 5.8125c0 3.03125-.51563 5.79687-2.28125 5.79687-1.76563 0-2.29688-2.76562-2.29688-5.79687m0 0"/><path id="C" d="M2.03125 0h6.14063v-.53125L6.59375-.67187c-.39062-.04688-.60937-.1875-.60937-.92188v-11l-.09375-.10937-3.85938.65625v.45312l1.75.21875c.3125.04688.4375.1875.4375.71875v9.0625c0 .73438-.1875.875-.625.92188l-1.5625.14062Zm0 0"/><path id="G" d="M.78125-9.85937h.48438l.1875-.39063c.23437-.51562.5-.79687 1.32812-.79687h5.04688c-.17188.67187-.53125 1.75-2.04688 3.90625C4.17188-4.82812 3.125-2.75 3.125-.53125c0 .60938.4375.75 1.01563.75.51562 0 .89062-.125.89062-.71875 0-2.85937.5-4.59375 1.40625-6.17187C7.625-8.76562 8.625-9.9375 9.28125-12.28125l-.15625-.20312H1.34375Zm0 0"/><clipPath id="a"><path d="M42 0h307.1211v176H42Zm0 0"/></clipPath><clipPath id="b"><path d="M79 164h270.1211v182H79Zm0 0"/></clipPath><clipPath id="n"><path d="M4 0h345.1211v346H4Zm0 0"/></clipPath><clipPath id="o"><path d="M11 56h338.1211v261H11Zm0 0"/></clipPath></defs><path fill="#7FBFBF" d="M179.27734 169.84375h169.64844c0-93.69531-75.95312-169.64844-169.64844-169.64844-50.78515 0-98.91406 22.77735-131.1328 62.03125Zm0 0"/><g clip-path="url(#a)"><path fill="none" stroke="#000" stroke-miterlimit="10" stroke-width=".39748" d="M348.92582 169.84375c0-93.69533-75.95314-169.64847-169.64848-169.64847-50.78516 0-98.91408 22.77735-131.13284 62.03126"/></g><path fill="#7FD6F7" d="M179.27734 169.84375 48.14454 62.22656C12.21093 106.01563.49608 164.87891 16.9414 219.08594Zm0 0"/><path fill="none" stroke="#000" stroke-miterlimit="10" stroke-width=".39748" d="M48.1445 62.22654C12.2109 106.01561.49606 164.87891 16.94137 219.08594"/><path fill="#FFBF7F" d="M179.27734 169.84375 16.94141 219.08594c11.38671 37.54687 35.46484 70.01172 68.08984 91.8086Zm0 0"/><path fill="none" stroke="#000" stroke-miterlimit="10" stroke-width=".39748" d="M16.94137 219.08595c11.38672 37.54688 35.46485 70.01173 68.08986 91.80861"/><path fill="#F57FC5" d="M179.27734 169.84375 85.03125 310.89453c77.90234 52.05469 183.2461 31.09766 235.29688-46.80469 18.63671-27.88671 28.59765-60.70312 28.59765-94.24609Zm0 0"/><g clip-path="url(#b)"><path fill="none" stroke="#000" stroke-miterlimit="10" stroke-width=".39748" d="M85.03123 310.89456c77.90236 52.0547 183.24613 31.09766 235.29692-46.8047 18.63673-27.88672 28.59767-60.70313 28.59767-94.24611"/></g><path fill="none" stroke="#000" stroke-miterlimit="10" stroke-width=".39748" d="M196.2422 169.84375c0-9.36719-7.59376-16.96485-16.96486-16.96485-5.07812 0-9.89062 2.27735-13.11328 6.20313"/><use xlink:href="#c" x="171.86014" y="140.38977"/><use xlink:href="#d" x="176.97784" y="140.38977"/><use xlink:href="#e" x="182.09554" y="140.38977"/><use xlink:href="#f" x="187.21325" y="140.38977"/><use xlink:href="#g" x="190.91985" y="140.38977"/><use xlink:href="#h" x="196.03755" y="140.38977"/><use xlink:href="#i" x="201.15525" y="140.38977"/><use xlink:href="#j" x="206.27295" y="140.38977"/><path fill="none" stroke="#000" stroke-miterlimit="10" stroke-width=".39748" d="M166.16406 159.08203c-3.59375 4.3789-4.76563 10.26563-3.1211 15.6875"/><use xlink:href="#i" x="132.27216" y="165.71614"/><use xlink:href="#g" x="137.38986" y="165.71614"/><use xlink:href="#f" x="142.50756" y="165.71614"/><use xlink:href="#h" x="146.21417" y="165.71614"/><use xlink:href="#i" x="151.33187" y="165.71614"/><use xlink:href="#j" x="156.44957" y="165.71614"/><path fill="none" stroke="#000" stroke-miterlimit="10" stroke-width=".39748" d="M163.04297 174.76953c1.14062 3.75391 3.54687 7 6.8086 9.1797"/><use xlink:href="#k" x="135.73832" y="192.54468"/><use xlink:href="#l" x="140.85602" y="192.54468"/><use xlink:href="#f" x="145.97372" y="192.54468"/><use xlink:href="#k" x="149.68032" y="192.54468"/><use xlink:href="#m" x="154.79802" y="192.54468"/><use xlink:href="#i" x="159.91573" y="192.54468"/><use xlink:href="#j" x="165.03343" y="192.54468"/><path fill="none" stroke="#000" stroke-miterlimit="10" stroke-width=".39748" d="M169.85156 183.94922c7.79297 5.20703 18.32422 3.10938 23.53126-4.67969 1.86328-2.78906 2.85937-6.07031 2.85937-9.42578"/><use xlink:href="#c" x="178.98297" y="202.2569"/><use xlink:href="#h" x="184.10067" y="202.2569"/><use xlink:href="#k" x="189.21837" y="202.2569"/><use xlink:href="#f" x="194.33607" y="202.2569"/><use xlink:href="#m" x="198.04268" y="202.2569"/><use xlink:href="#i" x="203.16038" y="202.2569"/><use xlink:href="#j" x="208.27808" y="202.2569"/><g clip-path="url(#n)"><path fill="none" stroke="#000" stroke-miterlimit="10" stroke-width=".39748" d="M348.92582 169.84375c0-93.69533-75.95314-169.64847-169.64848-169.64847-93.69533 0-169.64847 75.95314-169.64847 169.64847s75.95314 169.64847 169.64847 169.64847c93.69534 0 169.64848-75.95314 169.64848-169.64847Zm0 0"/></g><g clip-path="url(#o)"><path fill="none" stroke="#000" stroke-miterlimit="10" stroke-width=".39748" d="M348.92582 169.84375H179.27734L48.1445 62.22655l131.13284 107.6172-162.33597 49.2461 162.33597-49.2461-94.24611 141.05081 94.24611-141.05081h169.64848"/></g><use xlink:href="#p" x="191.119" y="58.21046"/><use xlink:href="#q" x="201.05628" y="58.21046"/><use xlink:href="#r" x="210.8147" y="58.21046"/><use xlink:href="#s" x="218.22791" y="58.21046"/><use xlink:href="#t" x="223.65366" y="58.21046"/><use xlink:href="#u" x="235.20079" y="58.21046"/><use xlink:href="#v" x="203.1124" y="82.0616"/><use xlink:href="#w" x="213.00993" y="82.0616"/><use xlink:href="#x" x="222.90747" y="82.0616"/><use xlink:href="#y" x="28.7164" y="142.67593"/><use xlink:href="#z" x="40.56164" y="142.67593"/><use xlink:href="#q" x="57.79289" y="142.67593"/><use xlink:href="#t" x="67.5513" y="142.67593"/><use xlink:href="#A" x="79.09843" y="142.67593"/><use xlink:href="#u" x="90.26793" y="142.67593"/><use xlink:href="#B" x="99.86735" y="142.67593"/><use xlink:href="#C" x="53.50914" y="166.52508"/><use xlink:href="#x" x="63.40667" y="166.52508"/><use xlink:href="#x" x="73.30421" y="166.52508"/><use xlink:href="#D" x="65.09757" y="231.78655"/><use xlink:href="#E" x="74.73673" y="231.78655"/><use xlink:href="#F" x="86.04536" y="231.78655"/><use xlink:href="#r" x="95.30691" y="231.78655"/><use xlink:href="#u" x="102.18351" y="231.78655"/><use xlink:href="#G" x="78.54126" y="255.63569"/><use xlink:href="#x" x="88.4388" y="255.63569"/><use xlink:href="#H" x="204.29638" y="264.00733"/><use xlink:href="#u" x="216.24099" y="264.00733"/><use xlink:href="#E" x="225.84041" y="264.00733"/><use xlink:href="#r" x="237.14903" y="264.00733"/><use xlink:href="#r" x="244.40325" y="264.00733"/><use xlink:href="#u" x="251.27985" y="264.00733"/><use xlink:href="#v" x="217.74207" y="287.85847"/><use xlink:href="#v" x="227.6396" y="287.85847"/><use xlink:href="#x" x="237.53713" y="287.85847"/></svg>