<svg xmlns="http://www.w3.org/2000/svg" xmlns:xlink="http://www.w3.org/1999/xlink" width="232.274pt" height="168.625pt" viewBox="0 0 232.274 168.625"><defs><path id="a" d="M.32813-.10937.45313 0h5.01562l.42188-1.59375-.34375-.07812c-.25.67187-.5.75-.98438.75H1.45313c.20312-.625.92187-1.48438 2.04687-2.3125C4.65625-4.07812 5.5625-4.625 5.5625-5.96875c0-1.70312-1.125-2.28125-2.40625-2.28125C1.5-8.25.64063-7.23437.64063-6.60937c0 .42187.46875.60937.67187.60937.21875 0 .29688-.125.35938-.34375.1875-.8125.67187-1.48437 1.40625-1.48437.9375 0 1.20312.78125 1.20312 1.67187 0 1.29688-.65625 2.04688-1.71875 2.96875-1.48437 1.29688-2 2.125-2.23437 3.07813m0 0"/><path id="b" d="M.53125-3.75c0 2.625.95313 3.89063 2.76563 3.89063 1.79687 0 2.75-1.07813 2.75-2.73438 0-1.64062-1-2.53125-2.29688-2.53125-.96875 0-1.67187.64063-2 1.04688.01563-2.67188.75-3.75 1.84375-3.75.5625 0 .96875.46875 1.14063 1.17187.04687.14063.125.25.3125.25.26562 0 .64062-.21875.64062-.54687 0-.5-.59375-1.29688-2.04687-1.29688-1.92188 0-3.10938 1.48438-3.10938 4.5M1.75-2.85937C1.75-3.59375 2.3125-4.5 3.32813-4.5c.76562 0 1.51562.6875 1.51562 2.09375 0 1.26563-.5 2.125-1.51562 2.125-1.0625 0-1.57813-1.125-1.57813-2.57812m0 0"/><path id="c" d="M1.3125 0h3.98438v-.34375L4.28125-.4375c-.25-.03125-.39062-.125-.39062-.59375V-8.1875L3.8125-8.25l-2.5.42188v.29687l1.14063.15625c.20312.01563.28125.10938.28125.45313v5.89062c0 .46875-.10938.5625-.39063.59375L1.3125-.34375Zm0 0"/><path id="d" d="M.5-4.04687C.5-1.625 1.21875.14063 3.21875.14063S5.9375-1.625 5.9375-4.04687c0-2.4375-.71875-4.20313-2.71875-4.20313S.5-6.48437.5-4.04687m1.23438 0c0-1.98438.32812-3.78125 1.48437-3.78125 1.14063 0 1.48438 1.79687 1.48438 3.78125 0 1.96875-.34375 3.76562-1.48438 3.76562-1.15625 0-1.48437-1.79687-1.48437-3.76562m0 0"/><path id="e" d="M1.3125 0h3.98438v-.34375L4.28125-.4375c-.25-.03125-.39062-.125-.39062-.59375V-8.1875L3.8125-8.25l-2.5.42188v.29687l1.14063.15625c.20312.01563.28125.10938.28125.45313v5.89062c0 .23438-.03125.375-.09375.46875-.07813.07813-.17188.10938-.29688.125L1.3125-.34375Zm0 0"/><path id="f" d="M.32813-.10937.45313 0h5.01562l.42188-1.59375-.34375-.07812c-.25.67187-.5.75-.98438.75H1.45313c.20312-.625.92187-1.48438 2.04687-2.3125C4.65625-4.07812 5.5625-4.625 5.5625-5.96875c0-1.70312-1.125-2.28125-2.40625-2.28125C1.5-8.25.64063-7.23437.64063-6.60937c0 .42187.46875.60937.67187.60937.21875 0 .29688-.125.35938-.34375.1875-.8125.67187-1.48437 1.40625-1.48437.9375 0 1.20312.78125 1.20312 1.67187 0 1.29688-.65625 2.04688-1.71875 2.96875-1.48437 1.29688-2 2.125-2.23437 3.07813m0 0"/><path id="g" d="M.32813-1.23437c0 .51562.82812 1.375 2.54687 1.375 1.76563 0 2.875-.89063 2.875-2.4375 0-1.625-1.40625-2.10938-2.07812-2.17188v-.04687C4.34375-4.625 5.375-5.10937 5.375-6.3125c0-1.34375-1.03125-1.9375-2.34375-1.9375-1.59375 0-2.39062.9375-2.39062 1.45313 0 .375.4375.57812.59375.57812.15624 0 .25-.09375.29687-.25.28125-.82812.73438-1.35937 1.40625-1.35937.95313 0 1.20313.84375 1.20313 1.53125 0 .71875-.25 1.64062-1.28125 1.64062-.59375 0-.92188-.125-1.0625-.125-.15626 0-.21876.125-.21876.34375 0 .20313.0625.32813.21876.32813.14062 0 .46875-.10938 1.0625-.10938 1.03125 0 1.60937.92188 1.60937 1.98438 0 1.45312-.71875 1.95312-1.57812 1.95312-.79688 0-1.32813-.59375-1.5625-1.28125-.07813-.23437-.1875-.34375-.35938-.34375-.21875 0-.64062.23438-.64062.67188m0 0"/><path id="h" d="m1-4.48437.07813.14062.65625-.375c.07812-.04687.14062-.07812.1875-.07812.0625 0 .125.03125.20312.07812l.65625.375.07813-.14062-.70313-.6875C2.07813-5.23437 2-5.3125 1.92188-5.3125c-.0625 0-.14063.0625-.21876.14063ZM-.17187 0h1.32812v-.17187l-.3125-.03126C.67188-.21874.64063-.29686.6875-.45312c.10938-.35937.23438-.73437.375-1.17187h1.35938l.40625 1.17188c.0625.17187.03125.23437-.15625.25l-.28125.03124V0H3.9375v-.17187c-.34375-.03126-.42187-.04688-.53125-.375L2.125-4.1875h-.45312l-.625 1.78125c-.1875.53125-.45313 1.25-.65625 1.8125-.125.32813-.1875.40625-.5625.42188Zm1.3125-1.85937c.1875-.59375.40625-1.1875.59375-1.73438H1.75l.59375 1.73438Zm0 0"/><path id="i" d="M.25.57813c0 .60937.60938.89062 1.3125.89062.35938 0 .75-.07812 1.03125-.25.28125-.17187.48438-.45312.48438-.82812C3.07813-.26562 2.5625-.5 1.90625-.5h-.48437c-.4375 0-.5-.14062-.5-.26562 0-.17188.23437-.26563.3125-.29688.10937.01563.25.03125.3125.03125.5625 0 1.21875-.26562 1.21875-1 0-.25-.07813-.45312-.1875-.5625l.48437-.07812.125-.375-.04687-.0625-.78125.25c-.17188-.10938-.5-.1875-.78125-.1875-.9375 0-1.25.5625-1.25 1.01562 0 .57813.375.84375.64062.90625v.01563c-.32812.125-.54687.29687-.54687.54687 0 .20313.25.4375.53125.46875v.01563C.70313 0 .25.14063.25.57813M.82813.5625q0-.32812.1875-.46875c.14062-.09375.34375-.14062.625-.14062.54687 0 .9375.14062.9375.59375 0 .48437-.4375.71875-.875.71875-.51563 0-.875-.26563-.875-.70313M.9375-2.03125c0-.59375.3125-.79687.64063-.79687.29687 0 .60937.21875.60937.79687 0 .51563-.26562.78125-.625.78125-.34375 0-.625-.26562-.625-.78125m0 0"/><path id="j" d="M.29688-1.46875C.29688-.5.70313.07813 1.70313.07813c.67187 0 1.01562-.375 1.17187-.85938L2.70313-.875c-.17188.35938-.40625.64063-.89063.64063-.75 0-.89062-.73438-.89062-1.35938h1.75c.14062 0 .25-.03125.25-.23437 0-.35938-.125-1.21875-1.23438-1.21875-.95312 0-1.39062.67187-1.39062 1.57812m.64062-.35937c0-.25.09375-1 .71875-1 .5625 0 .625.5625.625.8125 0 .10937-.03125.1875-.20312.1875Zm0 0"/><path id="k" d="M.375-1.79687c0 1.35937.32813 2.95312 1.60938 3.01562v-.1875C1.5625.95313.875.32813.875-1.79687c0-2.10938.64063-2.73438 1.10938-2.84375v-.17188C.70313-4.76562.375-3.17187.375-1.79687m0 0"/><path id="l" d="M.1875 0h1.48438v-.17187c-.4375-.03126-.45313-.04688-.45313-.35938v-1.42187c0-.15626 0-.23438.0625-.32813.125-.23437.39063-.4375.71875-.4375.40625 0 .64063.23438.64063.75v1.4375c0 .3125-.01563.32813-.45313.35938V0h1.48438v-.17187c-.4375-.03126-.46875-.04688-.46875-.35938v-1.54687c0-.60938-.32813-.96875-.89063-.96875-.45312 0-.71875.21875-1.09375.46875L1.125-3.04687l-.90625.15625V-2.75l.23438.04688c.15625.01562.20312.04687.20312.26562v1.90625c0 .3125-.03125.32813-.46875.35938Zm0 0"/><path id="m" d="M.29688-.78125c0 .45313.29687.85938.875.85938.34375 0 .70312-.23438.90625-.375.07812.23437.1875.375.39062.375.23438 0 .48438-.07813.71875-.1875L3.15625-.25c-.09375.01563-.23437.03125-.3125 0C2.73438-.28125 2.625-.39062 2.625-.76562v-1.46875c0-.35938-.07812-.8125-1-.8125-.67187 0-1.21875.35937-1.21875.6875 0 .20312.21875.28125.34375.28125s.15625-.0625.1875-.15625c.14063-.45313.39063-.59375.625-.59375.25 0 .51563.125.51563.60937v.25c-.15625.15625-.75.29688-1.21875.45313-.4375.14062-.5625.4375-.5625.73437M.90625-.875c0-.28125.125-.42187.46875-.5625.25-.07812.5625-.20312.70313-.28125v.85938c0 .48437-.375.60937-.60938.60937-.375 0-.5625-.26562-.5625-.625m0 0"/><path id="n" d="m1.21875-3.40625.09375.125.90625-.51562C2.40625-3.89062 2.5625-4 2.5625-4.125s-.14062-.26562-.23437-.26562c-.10938 0-.20313.0625-.39063.25Zm-.92187 1.9375C.29688-.5.70313.07813 1.70313.07813c.67187 0 1.01562-.375 1.17187-.85938L2.70313-.875c-.17188.35938-.40625.64063-.89063.64063-.75 0-.89062-.73438-.89062-1.35938h1.75c.14062 0 .25-.03125.25-.23437 0-.35938-.125-1.21875-1.23438-1.21875-.95312 0-1.39062.67187-1.39062 1.57812m.64062-.35937c0-.25.09375-1 .71875-1 .5625 0 .625.5625.625.8125 0 .10937-.03125.1875-.20312.1875Zm0 0"/><path id="o" d="M1.85938-1.79687c0-1.375-.32813-2.96875-1.60938-3.01563v.17188c.45313.10937 1.10938.73437 1.10938 2.84375 0 2.125-.6875 2.75-1.10938 2.82812v.1875c1.28125-.0625 1.60938-1.65625 1.60938-3.01562m0 0"/><path id="p" d="M.21875 0h1.4375v-.17187c-.39062-.03126-.54687-.04688-.57812-.3125-.04688-.1875-.04688-.42188-.04688-.75v-2.42188h.01563L3.625 0h.40625v-2.96875c0-.32812.01563-.54687.04688-.75.03125-.25.17187-.28125.48437-.29687v-.17188H3.125v.17188c.39063.03125.54688.04687.57813.29687.03125.20313.04687.42188.04687.75v2.125l-.01562-.01562C2.9375-1.96875 2.15625-3.07812 1.375-4.1875H.20313v.17188c.53125.03125.54687.04687.54687.375v2.40625c0 .32812-.01562.5625-.04687.75-.03126.26562-.17188.28125-.48438.3125Zm0 0"/><path id="q" d="M.29688-1.48437C.29688-.5.78125.07813 1.75.07813c.98438 0 1.45313-.57813 1.45313-1.5625 0-.98438-.46875-1.5625-1.45313-1.5625-.96875 0-1.45312.57812-1.45312 1.5625m.625 0c0-.84375.28124-1.34375.82812-1.34375.5625 0 .82813.5.82813 1.34375S2.3125-.14062 1.75-.14062c-.54687 0-.82812-.5-.82812-1.34375m0 0"/><path id="r" d="M.1875 0h1.48438v-.17187c-.4375-.03126-.45313-.04688-.45313-.35938v-1.42187c0-.15626 0-.23438.04688-.3125.10937-.25.375-.45313.71875-.45313.51562 0 .57812.375.57812.75v1.4375c0 .3125-.01562.32813-.45312.35938V0h1.48437v-.17187c-.4375-.03126-.45312-.04688-.45312-.35938v-1.42187c0-.15626 0-.23438.04687-.32813.07813-.23437.34375-.4375.6875-.4375.375 0 .60938.21875.60938.75v1.4375c0 .3125-.01563.32813-.45313.35938V0h1.48438v-.17187c-.4375-.03126-.46875-.04688-.46875-.35938v-1.54687c0-.60938-.32813-.96875-.89063-.96875-.5 0-.85937.32812-1.07812.46875-.14063-.28125-.375-.46875-.79688-.46875-.46875 0-.84375.3125-1.0625.46875l-.0625-.46875-.9375.15625V-2.75l.23438.04688c.15625.01562.20312.04687.20312.26562v1.90625c0 .3125-.03125.32813-.46875.35938Zm0 0"/><path id="s" d="m.125-4.1875.23438.01563c.15625.01562.1875.04687.1875.28125V.03125l.10937.04688.23438-.23438c.21874.125.48437.23438.92187.23438.8125 0 1.51563-.39063 1.51563-1.64063 0-.35937-.07813-1.48437-1.17188-1.48437-.45312 0-.8125.29687-1.04687.4375v-1.85938L1.07812-4.5.125-4.34375Zm.98438 3.20313v-.96875c0-.15626.01562-.23438.0625-.34375q.23437-.42188.75-.42188c.25 0 .78125.14063.78125 1.20313 0 .89062-.28125 1.375-.875 1.375-.32813 0-.5625-.15625-.67188-.46875q-.04687-.16407-.04687-.375m0 0"/><path id="t" d="M.1875 0h1.60938v-.17187C1.25-.20313 1.21875-.21875 1.21875-.53125v-1.42187c0-.45313.20313-.625.34375-.625.10938 0 .20313.04687.375.14062.04688.03125.09375.03125.125.03125.15625 0 .28125-.15625.28125-.34375 0-.14062-.07812-.29687-.32812-.29687-.21875 0-.39063.125-.79688.48437l-.0625-.48437-.9375.15625V-2.75l.23438.04688c.15625.01562.20312.04687.20312.26562v1.90625c0 .3125-.03125.32813-.46875.35938Zm0 0"/><path id="u" d="M.29688-1.42187c0 .89062.46875 1.5 1.26562 1.5.32813 0 .60938-.15625.9375-.42188v.29688L2.5625 0h.96875v-.17187c-.42187-.03126-.45312-.04688-.45312-.35938v-3.9375L3.04688-4.5l-.96875.15625v.15625l.23437.01563c.15625.01562.20313.04687.20313.28125v1c-.17188-.09375-.40625-.15625-.67188-.15625-.5 0-.875.15625-1.125.42187-.26562.26563-.42187.67188-.42187 1.20313M.92188-1.5c0-.78125.29687-1.32812.90625-1.32812.28124 0 .51562.125.625.375.0625.10937.0625.1875.0625.35937v1.0625c0 .14063 0 .23438-.04688.34375-.125.3125-.39062.4375-.70312.4375-.54688 0-.84375-.54687-.84375-1.25m0 0"/><path id="v" d="M.29688-1.45312c0 1.01562.5 1.53125 1.40625 1.53125.42187 0 1-.21875 1.17187-.875l-.1875-.09376C2.5-.45312 2.26563-.25 1.8125-.25 1.09375-.25.92188-1 .92188-1.5625c0-.90625.35937-1.26562.78125-1.26562.28124 0 .45312.1875.57812.53125.03125.09375.07813.14062.1875.14062.125 0 .35938-.0625.35938-.29687 0-.28125-.40625-.59375-1.0625-.59375-1.09375 0-1.46875.78125-1.46875 1.59375m0 0"/><path id="w" d="m.15625-2.75.23438.04688c.15625.01562.1875.04687.1875.26562v1.59375c0 .70313.42187.92188.875.92188.51562 0 .92187-.35938 1.10937-.4375L2.60938 0h.98437v-.17187C3.17188-.20313 3.125-.21875 3.125-.53125V-3l-.04687-.04687-.9375.15625V-2.75l.23437.04688c.14063.01562.1875.04687.1875.26562v1.35938c0 .17187-.01562.3125-.04687.375-.14063.26562-.4375.45312-.75.45312-.35938 0-.60938-.23437-.60938-.70312V-3l-.04687-.04687-.95313.15625Zm0 0"/><path id="x" d="m.28125-1.01562.0625.79687c.21875.1875.59375.29688.95313.29688.71875 0 1.125-.39063 1.125-.90625 0-.53125-.32813-.76563-.95313-.96875C1.21875-1.875.82813-2 .82813-2.34375c0-.3125.23437-.48437.54687-.48437.42188 0 .625.32812.67188.70312h.17187v-.71875c-.1875-.14062-.5-.20312-.76562-.20312-.67188 0-1.10938.3125-1.10938.89062 0 .5.40625.71875.92188.875.26562.09375.64062.21875.64062.64063 0 .3125-.23437.5-.5625.5-.48437 0-.76562-.35938-.89062-.875Zm0 0"/><path id="y" d="M.5625-3.96875c0 .21875.14063.375.35938.375.23437 0 .375-.15625.375-.375s-.14063-.375-.375-.375c-.21876 0-.35938.15625-.35938.375M.1875 0h1.48438v-.17187c-.4375-.03126-.45313-.04688-.45313-.35938V-3l-.04687-.04687-.95313.15625V-2.75l.23438.04688c.15625.01562.20312.04687.20312.26562v1.90625c0 .3125-.03125.32813-.46875.35938Zm0 0"/></defs><path fill="none" stroke="#000" stroke-miterlimit="10" stroke-width=".39726" d="M34.63281 143.57031h146.9453m-146.9453 0V19.56251"/><path stroke="#000" stroke-miterlimit="10" stroke-width=".39726" d="M34.63281 15.73438c-.1289.47265-.84375 2.53906-1.6211 3.82812h3.2422c-.78125-1.28906-1.4961-3.35547-1.6211-3.82812Zm0 0"/><path fill="none" stroke="#000" stroke-miterlimit="10" stroke-opacity=".5" stroke-width=".39726" d="M71.375 136.22266v14.6953m36.74218-14.6953v14.6953m36.74609-14.6953v14.6953"/><use xlink:href="#a" x="68.16594" y="163.73027"/><use xlink:href="#b" x="104.91607" y="163.73027"/><use xlink:href="#c" x="138.45125" y="163.73027"/><use xlink:href="#d" x="144.88097" y="163.73027"/><path fill="none" stroke="#000" stroke-miterlimit="10" stroke-opacity=".5" stroke-width=".39726" d="M41.98047 106.83594H27.28516"/><use xlink:href="#e" x="16.29208" y="110.95223"/><path fill="none" stroke="#000" stroke-miterlimit="10" stroke-opacity=".5" stroke-width=".39726" d="M41.98047 70.09767H27.28516"/><use xlink:href="#f" x="16.29208" y="74.20908"/><path fill="none" stroke="#000" stroke-miterlimit="10" stroke-opacity=".5" stroke-width=".39726" d="M41.98047 33.3633H27.28516"/><use xlink:href="#g" x="16.29208" y="37.39614"/><use xlink:href="#h" x="186.16412" y="145.49427"/><use xlink:href="#i" x="190.01162" y="145.49427"/><use xlink:href="#j" x="193.16193" y="145.49427"/><use xlink:href="#k" x="197.64207" y="145.49427"/><use xlink:href="#j" x="199.87569" y="145.49427"/><use xlink:href="#l" x="202.99371" y="145.49427"/><use xlink:href="#m" x="208.1065" y="145.49427"/><use xlink:href="#l" x="211.27617" y="145.49427"/><use xlink:href="#l" x="215.02683" y="145.49427"/><use xlink:href="#n" x="218.7775" y="145.49427"/><use xlink:href="#j" x="221.89553" y="145.49427"/><use xlink:href="#o" x="225.01355" y="145.49427"/><use xlink:href="#p" x="4.30355" y="9.19529"/><use xlink:href="#q" x="8.8547" y="9.19529"/><use xlink:href="#r" x="12.3536" y="9.19529"/><use xlink:href="#s" x="17.95056" y="9.19529"/><use xlink:href="#t" x="21.57857" y="9.19529"/><use xlink:href="#j" x="23.81219" y="9.19529"/><use xlink:href="#u" x="28.28587" y="9.19529"/><use xlink:href="#j" x="31.91389" y="9.19529"/><use xlink:href="#v" x="36.39403" y="9.19529"/><use xlink:href="#q" x="39.40231" y="9.19529"/><use xlink:href="#w" x="42.90121" y="9.19529"/><use xlink:href="#x" x="46.57441" y="9.19529"/><use xlink:href="#y" x="49.21473" y="9.19529"/><use xlink:href="#l" x="50.97709" y="9.19529"/><use xlink:href="#k" x="54.72776" y="9.19529"/><use xlink:href="#j" x="56.96138" y="9.19529"/><use xlink:href="#x" x="60.0794" y="9.19529"/><use xlink:href="#o" x="62.71972" y="9.19529"/><path fill="#7fbfbf" stroke="#000" stroke-miterlimit="10" stroke-width=".39726" d="M53.00781 143.57031V33.3633h36.73437v110.20702Zm0 0"/><path fill="#f57fc5" stroke="#000" stroke-miterlimit="10" stroke-width=".39726" d="M89.75 143.57031v-36.73437h36.73436v36.73437Zm0 0"/><path fill="#7fd6f7" stroke="#000" stroke-miterlimit="10" stroke-width=".39726" d="M126.49218 143.57031V70.09767h36.73827v73.47264Zm0 0"/></svg>