<svg xmlns="http://www.w3.org/2000/svg" xmlns:xlink="http://www.w3.org/1999/xlink" width="393.375pt" height="409.53pt" viewBox="0 0 393.375 409.53"><defs><path id="e" d="M1.14063 0h3.57812v-.34375l-.79687-.0625C3.6875-.4375 3.5625-.51562 3.5625-.89062v-6.1875l-.07812-.07813-2.32813.39063v.29687L2-6.34375c.21875.03125.29688.125.29688.45313v5c0 .375-.10938.45312-.34375.48437l-.8125.0625Zm0 0"/><path id="f" d="m.21875-2.10937.15625.25h2.76563v1.0625c0 .29687-.10938.375-.32813.39062l-.67187.0625V0h2.96875v-.34375L4.625-.39062C4.40625-.42187 4.34375-.5 4.34375-.79687v-1.0625h1.04688v-.59375H4.34375v-4.57813H3.32813C2.28125-5.48437 1.17188-3.73437.21875-2.10937m.92188-.34375c.57812-1.0625 1.26562-2.21875 2-3.40625v3.40625Zm0 0"/><path id="g" d="M.40625-3.51562C.40625-1.48437 1.04688.125 2.89063.125c1.82812 0 2.46875-1.60937 2.46875-3.64062 0-2.01563-.64063-3.64063-2.46875-3.64063-1.84375 0-2.48438 1.625-2.48438 3.64063m1.34375 0c0-1.46875.20313-3.21875 1.14063-3.21875s1.14062 1.75 1.14062 3.21875c0 1.48437-.20312 3.21875-1.14062 3.21875S1.75-2.03125 1.75-3.51562m0 0"/><path id="h" d="m.53125 1.3125.28125.23438c.51563-.5 1.40625-1.25 1.40625-2.07813 0-.5625-.29687-1.01562-.79687-1.01562-.42188 0-.625.3125-.625.57812 0 .39063.29687.59375.29687 1.03125S.875.95313.53125 1.3125m0 0"/><path id="i" d="M.40625-3.32812C.40625-1.125 1.20313.125 2.95313.125c1.70312 0 2.5-1.04687 2.5-2.40625 0-1.45312-.90625-2.1875-2.03125-2.1875-.76563 0-1.35938.46875-1.6875.875.01562-1.64062.42187-3.14062 1.40625-3.14062.46875 0 .78125.40625.95312 1.0625.04688.14062.15625.26562.35938.26562.25 0 .67187-.1875.67187-.54687 0-.46875-.57812-1.20313-1.90625-1.20313-1.73437 0-2.8125 1.28125-2.8125 3.82813m1.32813.85937c0-.625.42187-1.32812 1.20312-1.32812.625 0 1.20313.53125 1.20313 1.73437 0 1.03125-.34375 1.76563-1.15625 1.76563-.84375 0-1.25-.96875-1.25-2.17188m0 0"/><path id="j" d="M.32813-.14062.45313 0h4.53125l.40625-1.59375-.32813-.04687C4.79688-1.07812 4.60938-1 4.1875-1H1.51563c.15624-.48437.65625-1.15625 1.71875-1.8125 1.10937-.71875 1.84375-1.21875 1.84375-2.35937 0-1.46875-1-1.98438-2.21875-1.98438-1.40625 0-2.29688.79688-2.29688 1.5 0 .40625.46875.59375.71875.59375.20313 0 .3125-.10937.375-.32812.17188-.78125.54688-1.34375 1.14063-1.34375.6875 0 .92187.60937.92187 1.35937 0 .92188-.39062 1.64063-1.42187 2.51563C.92188-1.6875.45313-.90625.32813-.14062m0 0"/><path id="k" d="M.46875-1.15625c0 .42188.625 1.28125 2.21875 1.28125 1.82813 0 2.57813-1.07812 2.57813-2.39062 0-1.23438-.71875-2.25-2.25-2.25-.64063 0-1.25.28125-1.60938.59375l.20313-1.73438C1.65625-5.96875 1.70312-6 1.95313-6h2.6875l.32812-.90625-.0625-.125h-3.75l-.09375.10938L.84375-3.4375l.34375.23438c.42188-.51563.84375-.75 1.375-.75.6875 0 1.34375.51562 1.34375 1.82812 0 1.07813-.35937 1.82813-1.17187 1.82813-.60938 0-.95313-.4375-1.21875-1.1875-.0625-.1875-.1875-.3125-.39063-.3125-.28125 0-.65625.25-.65625.64062m0 0"/><path id="l" d="M.39063-5.6875c0 .78125.65625 1.4375 1.4375 1.4375.79687 0 1.46875-.65625 1.46875-1.4375 0-.79687-.67188-1.46875-1.46875-1.46875-.78125 0-1.4375.67188-1.4375 1.46875m.59375 0c0-.54687.40625-.95312.84375-.95312.46875 0 .875.40625.875.95312 0 .54688-.42188.9375-.875.9375s-.84375-.39062-.84375-.9375m0 0"/><path id="m" d="M.3125-1.15625C.3125-.73437.95313.125 2.625.125c1.60938 0 2.59375-.75 2.59375-2.09375 0-1.45312-1.26562-1.8125-1.76562-1.875V-3.875c.5625-.125 1.46875-.51562 1.46875-1.54687 0-1.29688-1.07813-1.73438-2.1875-1.73438-1.32813 0-2.17188.71875-2.17188 1.32813 0 .375.45313.5625.65625.5625.1875 0 .28125-.09375.34375-.26563.23438-.75.57813-1.20312 1.125-1.20312.73438 0 .90625.76562.90625 1.28125 0 .51562-.14062 1.42187-.98437 1.42187-.46875 0-.78125-.125-.96875-.125-.17188 0-.23438.125-.23438.34375 0 .20313.0625.35938.23438.35938.1875 0 .5-.125.96875-.125.71875 0 1.23437.5625 1.23437 1.64062 0 1.17188-.5 1.64063-1.1875 1.64063-.59375 0-1.01562-.4375-1.25-1.20313-.07812-.20312-.20312-.3125-.39062-.3125-.28126 0-.70313.23438-.70313.65625m0 0"/><path id="n" d="M.375-4.75c0 1.45313.90625 2.20313 2.03125 2.20313.76563 0 1.35938-.48438 1.6875-.89063C4.07813-1.79687 3.6875-.29687 2.70313-.29687c-.46875 0-.79688-.40625-.96875-1.0625C1.6875-1.5 1.59375-1.625 1.39063-1.625c-.25 0-.67188.1875-.67188.54688 0 .46875.5625 1.20312 1.89063 1.20312 1.8125 0 2.8125-1.375 2.8125-3.82812 0-2.20313-.78125-3.45313-2.53125-3.45313C1.1875-7.15625.375-6.09375.375-4.75m1.3125-.20312c0-1.04688.34375-1.78125 1.17188-1.78125.84375 0 1.23437.96875 1.23437 2.1875 0 .625-.42187 1.3125-1.20312 1.3125-.625 0-1.20313-.53125-1.20313-1.71875m0 0"/><path id="o" d="M.42188-5.42187.75-5.375l.09375-.20312C.98438-5.84375 1.125-6 1.57813-6h2.8125c-.10938.35938-.34375 1.0625-1.1875 2.1875C2.3125-2.625 1.71875-1.51562 1.71875-.42187c0 .46875.32813.54687.70313.54687.32812 0 .64062-.0625.64062-.51562.01563-1.46875.26563-2.53125.76563-3.34375.8125-1.3125 1.29687-2 1.57812-3.17188l-.10937-.125H.8125Zm0 0"/><path id="r" d="M.73438 0H6.9375v-.60937c-2.17187-.125-2.21875-.15626-2.21875-1.34375V-6.875h2.9375c1.78125 0 1.875.5 2.04688 1.84375h.64062v-4.5h-.64062C9.53125-8.1875 9.4375-7.67187 7.65625-7.67187h-2.9375v-5.39063c0-.70312.0625-.76562.76563-.76562H7.5625c2.4375 0 2.9375.5 3.21875 2.64062h.625v-3.35937H.73438v.60937c1.85937.125 1.90625.15625 1.90625 1.34375v10.64063c0 1.1875-.04688 1.21875-1.90625 1.34375Zm0 0"/><path id="s" d="M1.03125-2.73437C1.03125-1.15625 2.07813.25 4.04688.25 5.28125.25 6.51563-.5625 7.1875-1c.28125.78125.64063 1.25 1.375 1.25.79688 0 1.6875-.23437 2.48438-.625l-.125-.5c-.29688.0625-.76563.09375-1.07813 0-.375-.09375-.73437-.46875-.73437-1.78125v-5.10937c0-1.23438-.26563-2.79688-3.45313-2.79688-2.35937 0-4.25 1.23438-4.25 2.39063 0 .67187.78125.98437 1.1875.98437.45313 0 .5625-.21875.67188-.57812.46875-1.5625 1.32812-2.0625 2.17187-2.0625.82813 0 1.76563.4375 1.76563 2.10937v.875C6.67188-6.3125 4.625-5.76562 2.96875-5.23437c-1.51562.46875-1.9375 1.51562-1.9375 2.5m2.125-.28125c0-.98438.45313-1.5 1.625-1.95313.85938-.3125 1.95313-.71875 2.42188-1V-3c0 1.70313-1.29688 2.125-2.125 2.125-1.29688 0-1.92188-.92187-1.92188-2.14062m0 0"/><path id="t" d="M.67188 0h5.54687v-.60937c-1.875-.10938-1.98437-.15626-1.98437-1.21875V-6.75c0-1.625.70312-2.17187 1.20312-2.17187.32813 0 .6875.125 1.29688.46875.15625.07812.3125.10937.42187.10937.51563 0 .96875-.54687.96875-1.1875C8.125-10 7.82813-10.5625 7-10.5625c-.75 0-1.39062.45313-2.76562 1.67188l-.25-1.67188-3.20313.53125v.51563l.78125.125c.54688.07812.70313.17187.70313.9375v6.625c0 1.0625-.125 1.10937-1.59375 1.21875Zm0 0"/><path id="u" d="M1.92188-13.76562c0 .76562.54687 1.29687 1.29687 1.29687C3.98438-12.46875 4.5-13 4.5-13.76562c0-.75-.51562-1.26563-1.28125-1.26563-.75 0-1.29687.51563-1.29687 1.26563M.67188 0h5.125v-.60937c-1.5-.10938-1.5625-.15626-1.5625-1.21875v-8.59375l-.15625-.14063-3.29688.53125v.51563l.78125.125c.54688.07812.70313.17187.70313.9375v6.625c0 1.0625-.07813 1.10937-1.59375 1.21875Zm0 0"/><path id="v" d="M.67188 0h5.125v-.60937c-1.5-.10938-1.5625-.15626-1.5625-1.21875V-6.75c0-.54687.01562-.8125.20312-1.14062.4375-.82813 1.375-1.53125 2.5-1.53125 1.4375 0 2.21875.78125 2.21875 2.625v4.96875c0 1.0625-.07812 1.10937-1.59375 1.21875V0h5.14063v-.60937c-1.5-.10938-1.57813-.15626-1.57813-1.21875v-5.375c0-2.125-1.17187-3.35938-3.09375-3.35938-1.5625 0-2.53125.76563-3.82812 1.60938l-.28125-1.60938-3.14063.53125v.51563l.78125.125c.54688.07812.70313.17187.70313.9375v6.625c0 1.0625-.07813 1.10937-1.59375 1.21875Zm0 0"/><path id="w" d="M1.03125-5.07812C1.03125-1.75 2.46875.25 5.89063.25c2.32812 0 3.53125-1.29687 4.09375-2.95312l-.625-.34375C8.76563-1.8125 7.96875-.82812 6.3125-.82812c-2.625 0-3.14062-2.5-3.09375-4.70313h6.0625c.45313 0 .82813-.10937.82813-.79687 0-1.23438-.40625-4.23438-4.25-4.23438-3.28125 0-4.82813 2.32813-4.82813 5.48438m2.21875-1.25c0-.875.3125-3.5 2.5-3.5 1.95313 0 2.17188 2 2.17188 2.82812 0 .40625-.14063.67188-.71875.67188Zm0 0"/><path id="A" d="M-.60937 0h4.64062v-.60937L2.9375-.71875C2.29688-.78125 2.21875-1 2.39063-1.5625c.35937-1.25.78125-2.54687 1.28125-4.04687h4.71875l1.40625 4.01562c.20312.60938.10937.82813-.5625.90625l-.95313.07813V0h5.39063v-.60937C12.4375-.71875 12.21875-.78125 11.84375-1.875L7.39063-14.54687H5.8125L3.625-8.32812C2.96875-6.48437 2.07813-3.98437 1.34375-2.0625.89063-.92187.71875-.67187-.60937-.60937Zm4.5625-6.42187C4.625-8.53125 5.375-10.57812 6-12.4375h.0625l2.07813 6.01563Zm0 0"/><path id="B" d="M.67188 0h5.125v-.60937c-1.5-.10938-1.5625-.15626-1.5625-1.21875V-6.75c0-.54687 0-.82812.15625-1.125.39062-.84375 1.3125-1.54687 2.48437-1.54687 1.8125 0 2.03125 1.32812 2.03125 2.625v4.96875c0 1.0625-.0625 1.10937-1.59375 1.21875V0h5.125v-.60937c-1.5-.10938-1.5625-.15626-1.5625-1.21875V-6.75c0-.54687.01563-.8125.15625-1.14062.3125-.85938 1.20313-1.53125 2.39063-1.53125 1.32812 0 2.125.73437 2.125 2.625v4.96875c0 1.0625-.0625 1.10937-1.57813 1.21875V0h5.14063v-.60937c-1.5-.10938-1.59376-.15626-1.59376-1.21875v-5.375c0-2.125-1.14062-3.35938-3.125-3.35938-1.71875 0-2.95312 1.14063-3.70312 1.60938-.5-.98438-1.3125-1.60938-2.79687-1.60938-1.60938 0-2.92188 1.07813-3.65625 1.60938l-.20313-1.60938-3.25.53125v.51563l.78125.125c.54688.07812.70313.17187.70313.9375v6.625c0 1.0625-.07813 1.10937-1.59375 1.21875Zm0 0"/><path id="C" d="M1.03125-4.9375C1.03125-1.82812 2.65625.25 5.4375.25c1.14063 0 2.10938-.51562 3.25-1.4375v1.03125L8.85938 0h3.40625v-.60937c-1.5-.10938-1.57813-.15626-1.57813-1.21875v-13.65625l-.15625-.10938-3.29687.51563v.53125l.79687.0625c.53125.07812.67188.1875.67188.98437v3.45313c-.57813-.3125-1.35938-.51563-2.32813-.51563-1.71875 0-3.01562.5625-3.89062 1.45313-.89063.9375-1.45313 2.32812-1.45313 4.17187m2.1875-.25c0-2.73437.98438-4.64062 3.14063-4.64062.98437 0 1.78125.45312 2.17187 1.32812.17188.35938.17188.67188.17188 1.23438v3.6875c0 .46875 0 .82812-.14063 1.1875C8.14063-1.29687 7.23438-.875 6.125-.875c-1.92187 0-2.90625-1.90625-2.90625-4.3125m0 0"/><path id="D" d="m.98438-3.51562.21874 2.75C1.96876-.09376 3.25.25 4.46876.25c2.51563 0 3.9375-1.32812 3.9375-3.10937 0-1.85938-1.14062-2.6875-3.3125-3.35938-.85937-.26562-2.23437-.71875-2.23437-1.90625 0-1.09375.82812-1.70312 1.89062-1.70312 1.5 0 2.20313 1.17187 2.35938 2.4375h.60937v-2.45313c-.6875-.51562-1.76562-.71875-2.70312-.71875-2.28125 0-3.82813 1.07813-3.82813 3.0625 0 1.75 1.4375 2.53125 3.17188 3.0625.9375.29688 2.26562.76563 2.26562 2.20313C6.625-1.15625 5.79688-.5 4.67188-.5c-1.70313 0-2.65625-1.21875-3.07813-3.01562Zm0 0"/><path id="F" d="M1.04688-4.3125 1.25-.9375c.92188.875 2.6875 1.25 4.17188 1.25 3.70312 0 5.1875-2.125 5.1875-4.26562 0-2.48438-1.6875-3.67188-4.14063-4.57813l-.70312-.23437c-1.40625-.54688-2.5625-1.4375-2.5625-2.6875 0-1.54688.90625-2.6875 2.6875-2.6875 1.8125 0 2.8125 1.03125 3.15625 3.15625h.64062v-2.95313c-.71875-.5625-2.125-.9375-3.5625-.9375-2.5625 0-4.84375 1.29688-4.84375 4.0625 0 2.21875 1.76563 3.35938 3.98438 4.14063l.375.15625c.92187.35937 2.92187 1.29687 2.92187 3.1875 0 1.8125-1.15625 2.90625-3.03125 2.90625-1.96875 0-3.26562-1.54688-3.8125-3.89063Zm0 0"/><path id="G" d="m.53125-9.51562.8125.125c.53125.07812.67188.17187.67188.9375v5.54687C2.01563-.5 3.45313.25 5.01563.25 6.79688.25 8.25-.96875 8.85938-1.25L9.0625 0h3.375v-.60937c-1.45312-.10938-1.57812-.15626-1.57812-1.21875v-8.59375l-.17188-.14063-3.28125.53125v.51563l.8125.125c.53125.07812.67188.17187.67188.9375v4.73437c0 .59375-.07813 1.0625-.1875 1.25C8.21875-1.5 7.23438-.875 6.125-.875 4.90625-.875 4-1.65625 4-3.29687v-7.125l-.15625-.14063-3.3125.53125Zm0 0"/><path id="H" d="M1.03125-5.0625C1.03125-1.54687 2.75.25 5.90625.25 7.39063.25 9.375-.51562 9.95313-2.78125l-.625-.28125C8.6875-1.59375 7.85938-.84375 6.3125-.84375c-2.51562 0-3.09375-2.625-3.09375-4.59375 0-3.125 1.23438-4.39062 2.6875-4.39062.96875 0 1.5625.70312 1.98438 1.84375.14062.32812.28125.53125.67187.53125.4375 0 1.23438-.26563 1.23438-1.07813 0-.95312-1.39063-2.03125-3.67188-2.03125-3.82812 0-5.09375 2.70313-5.09375 5.5m0 0"/><path id="J" d="M.73438 0H7.25c3.20313 0 5.25-1.14062 5.25-4.07812 0-2.48438-1.76562-3.57813-3.79687-3.84375v-.04688c1.96875-.40625 3.14062-1.625 3.14062-3.23437 0-1.17188-.45312-2.04688-1.3125-2.60938-.82812-.53125-2.03125-.73437-3.70312-.73437H.73438v.60937c1.85937.125 1.90625.15625 1.90625 1.34375v10.64063c0 1.1875-.04688 1.21875-1.90625 1.34375Zm3.98437-2.34375v-5.125h1.5c2.625 0 4.04688 1.29688 4.04688 3.53125 0 2.53125-1.71875 3.20313-3.53125 3.20313-1.67188 0-2.01563-.3125-2.01563-1.60938m0-5.875v-4.5625c0-.89062.0625-1.04687 1.70313-1.04687 1.54687 0 3.21875.57812 3.21875 2.75 0 2.0625-1.3125 2.85937-3.51563 2.85937Zm0 0"/><path id="x" d="M.5625-.20312.78125 0h8.70313l.71875-2.78125-.57813-.10937C9.17188-1.75 8.75-1.59375 7.89063-1.59375H2.53125c.32813-1.09375 1.57813-2.59375 3.53125-4 2.01563-1.48437 3.57813-2.42187 3.57813-4.76562 0-2.9375-1.9375-3.9375-4.15625-3.9375-2.89063 0-4.35938 1.75-4.35938 2.84375 0 .71875.79688 1.04687 1.15625 1.04687.375 0 .51563-.21875.60938-.57812.32812-1.4375 1.15625-2.57813 2.45312-2.57813 1.60938 0 2.07813 1.34375 2.07813 2.89063 0 2.26562-1.14063 3.53125-2.96875 5.14062C1.85938-3.26562.96875-1.82812.5625-.20312m0 0"/><path id="y" d="M.84375-2.14062C.84375-1.1875 2.32813.25 5.0625.25c3.46875 0 5.03125-2.10937 5.03125-4.76562 0-2.95313-1.84375-4.45313-4.34375-4.45313-1.15625 0-2.4375.51563-3.10937 1.10938l.46875-3.98438c.0625-.53125.20312-.59375.60937-.59375h5.23438l.51562-1.4375-.10937-.17187H2.32813l-.20313.20312-.42187 7.01563.51562.26562c.875-1 1.71875-1.5 2.85938-1.5 1.34375 0 2.8125.98438 2.8125 3.76563C7.89063-2.125 7.03125-.5 5.1875-.5c-1.46875 0-2.21875-1.04687-2.64062-2.25-.10938-.3125-.3125-.51562-.59375-.51562-.4375 0-1.10938.42187-1.10938 1.125m0 0"/><path id="z" d="M.875-7.03125C.875-2.8125 2.10938.25 5.57813.25s4.71875-3.0625 4.71875-7.28125c0-4.20312-1.25-7.26562-4.71875-7.26562S.875-11.23437.875-7.03125m2.125 0c0-3.42187.57813-6.53125 2.57813-6.53125 1.98437 0 2.5625 3.10938 2.5625 6.53125S7.5625-.5 5.57813-.5C3.57813-.5 3-3.60937 3-7.03125m0 0"/><path id="E" d="M2.28125 0h6.92188v-.60937L7.42188-.76563c-.4375-.04687-.6875-.20312-.6875-1.03124V-14.1875l-.10938-.10937-4.34375.73437v.51563l1.96875.25c.35938.04687.5.20312.5.79687v10.20313c0 .82812-.20312.98437-.70312 1.03125l-1.76563.15624Zm0 0"/><path id="I" d="M.875-11.09375h.5625l.20313-.45312c.26562-.57813.54687-.89063 1.48437-.89063h5.6875c-.20312.75-.59375 1.96875-2.29687 4.40625-1.8125 2.59375-3 4.9375-3 7.42188C3.51563.09374 4 .25 4.65625.25c.57813 0 1-.14062 1-.8125 0-3.21875.5625-5.17187 1.59375-6.95312 1.34375-2.35938 2.45313-3.67188 3.20313-6.3125l-.1875-.21875h-8.75Zm0 0"/><clipPath id="a"><path d="M53 .08984h339.75V192H53Zm0 0"/></clipPath><clipPath id="b"><path d="M48 .08984h344.75V197H48Zm0 0"/></clipPath><clipPath id="c"><path d="M95 191h297.75v192H95Zm0 0"/></clipPath><clipPath id="d"><path d="M89 185h303.75v203H89Zm0 0"/></clipPath><clipPath id="p"><path d="M4 .08984h388.75V388H4Zm0 0"/></clipPath><clipPath id="q"><path d="M13 64h379.75v292H13Zm0 0"/></clipPath></defs><g clip-path="url(#a)"><path fill="#7FBFBF" d="M201.51563 191.32422h191.03906C392.55469 85.8164 307.02344.28516 201.51563.28516c-57.1875 0-111.38672 25.64843-147.66407 69.85546Zm0 0"/></g><g clip-path="url(#b)"><path fill="none" stroke="#000" stroke-miterlimit="10" stroke-width=".39787" d="M392.55474 191.32422C392.55474 85.81638 307.02347.2851 201.51562.2851c-57.18751 0-111.38675 25.64845-147.6641 69.85549"/></g><path fill="#7FD6F7" d="M201.51563 191.32422 53.85155 70.14062C13.38672 119.44533.19531 185.73439 18.71094 246.77345Zm0 0"/><path fill="none" stroke="#000" stroke-miterlimit="10" stroke-width=".39787" d="M53.85152 70.14059C13.38666 119.44529.19525 185.73437 18.71088 246.77345"/><path fill="#FFBF7F" d="m201.51563 191.32422-182.8047 55.44922c12.82423 42.28125 39.9375 78.83984 76.67579 103.38672Zm0 0"/><path fill="none" stroke="#000" stroke-miterlimit="10" stroke-width=".39787" d="M18.71088 246.77345c12.82423 42.28127 39.93752 78.83987 76.6758 103.38675"/><g clip-path="url(#c)"><path fill="#F57FC5" d="M201.51563 191.32422 95.38672 350.16016c87.72266 58.61328 206.35156 35.01562 264.96484-52.70704 20.98438-31.40625 32.20313-68.35546 32.20313-106.1289Zm0 0"/></g><g clip-path="url(#d)"><path fill="none" stroke="#000" stroke-miterlimit="10" stroke-width=".39787" d="M95.38669 350.1602c87.72268 58.6133 206.35162 35.01564 264.96492-52.70704 20.98438-31.40626 32.20313-68.3555 32.20313-106.12894"/></g><path fill="none" stroke="#000" stroke-miterlimit="10" stroke-width=".39787" d="M220.6211 191.32422c0-10.55079-8.5547-19.10548-19.10548-19.10548-5.71875 0-11.13672 2.56641-14.76562 6.98829"/><use xlink:href="#e" x="193.1651" y="158.15605"/><use xlink:href="#f" x="198.92804" y="158.15605"/><use xlink:href="#g" x="204.69099" y="158.15605"/><use xlink:href="#h" x="210.45394" y="158.15605"/><use xlink:href="#i" x="214.62788" y="158.15605"/><use xlink:href="#j" x="220.39083" y="158.15605"/><use xlink:href="#k" x="226.15378" y="158.15605"/><use xlink:href="#l" x="231.91673" y="158.15605"/><path fill="none" stroke="#000" stroke-miterlimit="10" stroke-width=".39787" d="M186.75 179.20703c-4.04688 4.92969-5.3672 11.5586-3.51563 17.66407"/><use xlink:href="#k" x="148.58493" y="186.67474"/><use xlink:href="#i" x="154.34787" y="186.67474"/><use xlink:href="#h" x="160.11082" y="186.67474"/><use xlink:href="#j" x="164.28476" y="186.67474"/><use xlink:href="#k" x="170.04771" y="186.67474"/><use xlink:href="#l" x="175.81066" y="186.67474"/><path fill="none" stroke="#000" stroke-miterlimit="10" stroke-width=".39787" d="M183.23437 196.8711c1.28516 4.22656 3.9961 7.88281 7.66797 10.33594"/><use xlink:href="#m" x="152.48773" y="216.88574"/><use xlink:href="#n" x="158.25067" y="216.88574"/><use xlink:href="#h" x="164.01362" y="216.88574"/><use xlink:href="#m" x="168.18756" y="216.88574"/><use xlink:href="#o" x="173.95051" y="216.88574"/><use xlink:href="#k" x="179.71346" y="216.88574"/><use xlink:href="#l" x="185.47641" y="216.88574"/><path fill="none" stroke="#000" stroke-miterlimit="10" stroke-width=".39787" d="M190.90234 207.20704c8.77344 5.86328 20.63673 3.5039 26.5-5.26954 2.09767-3.14062 3.21876-6.83594 3.21876-10.61328"/><use xlink:href="#e" x="201.18535" y="227.82237"/><use xlink:href="#j" x="206.9483" y="227.82237"/><use xlink:href="#m" x="212.71125" y="227.82237"/><use xlink:href="#h" x="218.4742" y="227.82237"/><use xlink:href="#o" x="222.64814" y="227.82237"/><use xlink:href="#k" x="228.41109" y="227.82237"/><use xlink:href="#l" x="234.17404" y="227.82237"/><g clip-path="url(#p)"><path fill="none" stroke="#000" stroke-miterlimit="10" stroke-width=".39787" d="M392.55474 191.32422C392.55474 85.81638 307.02347.2851 201.51562.2851S10.48042 85.81638 10.48042 191.32422s85.52736 191.03912 191.0352 191.03912c105.50785 0 191.03912-85.53128 191.03912-191.03912Zm0 0"/></g><g clip-path="url(#q)"><path fill="none" stroke="#000" stroke-miterlimit="10" stroke-width=".39787" d="M392.53521 191.32422H201.51562L53.86714 70.1523l147.64848 121.1719-182.7852 55.44534 182.7852-55.44533L95.39841 350.14458l106.11721-158.82036h191.0196"/></g><use xlink:href="#r" x="214.85164" y="65.61633"/><use xlink:href="#s" x="226.04183" y="65.61633"/><use xlink:href="#t" x="237.0306" y="65.61633"/><use xlink:href="#u" x="245.37848" y="65.61633"/><use xlink:href="#v" x="251.48833" y="65.61633"/><use xlink:href="#w" x="264.49133" y="65.61633"/><use xlink:href="#x" x="228.35718" y="92.47241"/><use xlink:href="#y" x="239.50261" y="92.47241"/><use xlink:href="#z" x="250.64804" y="92.47241"/><use xlink:href="#A" x="31.9732" y="160.73021"/><use xlink:href="#B" x="45.31191" y="160.73021"/><use xlink:href="#s" x="64.7157" y="160.73021"/><use xlink:href="#v" x="75.70447" y="160.73021"/><use xlink:href="#C" x="88.70747" y="160.73021"/><use xlink:href="#w" x="101.28524" y="160.73021"/><use xlink:href="#D" x="112.09497" y="160.73021"/><use xlink:href="#E" x="59.89184" y="187.58629"/><use xlink:href="#z" x="71.03727" y="187.58629"/><use xlink:href="#z" x="82.1827" y="187.58629"/><use xlink:href="#F" x="72.94111" y="261.07578"/><use xlink:href="#G" x="83.7956" y="261.07578"/><use xlink:href="#H" x="96.53003" y="261.07578"/><use xlink:href="#t" x="106.95929" y="261.07578"/><use xlink:href="#w" x="114.7029" y="261.07578"/><use xlink:href="#I" x="88.08205" y="287.93186"/><use xlink:href="#z" x="99.22748" y="287.93186"/><use xlink:href="#J" x="229.69106" y="297.35888"/><use xlink:href="#w" x="243.14167" y="297.35888"/><use xlink:href="#G" x="253.9514" y="297.35888"/><use xlink:href="#t" x="266.68583" y="297.35888"/><use xlink:href="#t" x="274.85467" y="297.35888"/><use xlink:href="#w" x="282.59829" y="297.35888"/><use xlink:href="#x" x="244.83201" y="324.21721"/><use xlink:href="#x" x="255.97744" y="324.21721"/><use xlink:href="#z" x="267.12287" y="324.21721"/></svg>