<svg xmlns="http://www.w3.org/2000/svg" xmlns:xlink="http://www.w3.org/1999/xlink" width="227.473pt" height="236.786pt" viewBox="0 0 227.473 236.786"><defs><path id="e" d="M.65625 0h2.0625v-.20312l-.45312-.03126C2.125-.25 2.0625-.29687 2.0625-.51561v-3.5625L2.01563-4.125l-1.34375.21875v.17188l.48437.07812c.125.01563.17188.0625.17188.26563v2.875c0 .21874-.0625.26562-.20313.28124l-.46875.03126Zm0 0"/><path id="f" d="m.125-1.21875.09375.14063H1.8125v.625c0 .17187-.0625.20312-.1875.21875l-.39062.03124V0h1.71875v-.20312l-.28125-.01563C2.54688-.25 2.5-.28125 2.5-.45312v-.625h.60938v-.32813H2.5v-2.64062h-.57812C1.3125-3.15625.67188-2.15625.125-1.21875m.53125-.1875c.32813-.625.73438-1.28125 1.15625-1.96875v1.96875Zm0 0"/><path id="g" d="M.23438-2.03125c0 1.17188.375 2.10938 1.4375 2.10938 1.04687 0 1.42187-.9375 1.42187-2.10938 0-1.15625-.375-2.09375-1.42187-2.09375-1.0625 0-1.4375.9375-1.4375 2.09375m.76562 0c0-.84375.125-1.85937.67188-1.85937.53125 0 .65625 1.01562.65625 1.85937 0 .85938-.125 1.85938-.65625 1.85938-.54688 0-.67188-1-.67188-1.85938m0 0"/><path id="h" d="m.3125.76563.15625.125c.29688-.28126.8125-.71875.8125-1.20313 0-.3125-.17187-.57812-.46875-.57812-.23437 0-.35937.1875-.35937.32812 0 .23438.17187.34375.17187.59375C.625.29688.5.54688.3125.76563m0 0"/><path id="i" d="M.23438-1.92187c0 1.28125.45312 2 1.46875 2 .98437 0 1.45312-.60938 1.45312-1.39063 0-.84375-.53125-1.26562-1.1875-1.26562-.4375 0-.78125.28125-.96875.5 0-.9375.25-1.8125.8125-1.8125.26563 0 .45313.25.54688.625.03125.07812.09375.15625.20312.15625.14063 0 .39063-.10938.39063-.32813 0-.26562-.32813-.6875-1.09375-.6875-1 0-1.625.73438-1.625 2.20313m.76562.5c0-.35938.25-.76563.70313-.76563.35937 0 .6875.29688.6875 1 0 .59375-.20313 1.01563-.67188 1.01563-.48437 0-.71875-.5625-.71875-1.25m0 0"/><path id="j" d="M.1875-.07812.26563 0H2.875l.23438-.92187-.1875-.03126c-.15625.32813-.26563.375-.51563.375H.875C.96875-.85936 1.25-1.25 1.85938-1.625c.64062-.40625 1.0625-.70312 1.0625-1.35937 0-.84375-.57813-1.14063-1.26563-1.14063-.8125 0-1.32812.45313-1.32812.85938 0 .23437.26562.34375.40625.34375.125 0 .1875-.0625.21874-.1875.09376-.45313.3125-.78125.65626-.78125.39062 0 .53125.35937.53125.78125 0 .54687-.21875.95312-.8125 1.45312C.53125-.96875.26563-.51562.1875-.07812m0 0"/><path id="k" d="M.26563-.67187c0 .25.35937.75 1.28125.75 1.0625 0 1.48437-.625 1.48437-1.375 0-.71875-.40625-1.29688-1.29687-1.29688-.35938 0-.71875.15625-.92188.32813l.10938-1c.03124-.1875.0625-.20313.20312-.20313h1.54688l.1875-.51562-.03125-.0625H.67188L.60938-4l-.125 2.01563.20312.125c.23438-.28126.48438-.42188.79688-.42188.39062 0 .76562.29688.76562 1.0625 0 .60938-.20312 1.04688-.67187 1.04688-.35938 0-.54688-.25-.70313-.6875-.03125-.10938-.10937-.17188-.23437-.17188-.15626 0-.375.14063-.375.35938m0 0"/><path id="l" d="M.21875-3.28125c0 .45313.375.82813.84375.82813.45313 0 .84375-.375.84375-.82813 0-.45312-.39062-.84375-.84375-.84375-.46875 0-.84375.39063-.84375.84375m.34375 0c0-.3125.23438-.54687.5-.54687.26563 0 .5.23437.5.54687s-.25.53125-.5.53125c-.26562 0-.5-.21875-.5-.53125m0 0"/><path id="m" d="M.1875-.67187c0 .25.35938.75 1.32813.75.92187 0 1.5-.4375 1.5-1.21875 0-.82813-.73438-1.04688-1.03125-1.07813v-.01562c.32812-.0625.85937-.29688.85937-.89063 0-.75-.625-1-1.26562-1-.76563 0-1.25.42188-1.25.76563 0 .21875.26562.32812.375.32812s.15624-.0625.1875-.15625c.14062-.4375.34375-.70312.65625-.70312.42187 0 .53125.4375.53125.75 0 .29687-.09375.8125-.57813.8125-.26562 0-.45312-.07813-.54687-.07813-.10938 0-.14063.07813-.14063.20313S.84375-2 .95313-2c.09374 0 .28124-.0625.54687-.0625.42188 0 .71875.3125.71875.95313 0 .67187-.29687.9375-.6875.9375-.34375 0-.57812-.25-.71875-.6875-.04687-.125-.10937-.1875-.21875-.1875-.17187 0-.40625.14062-.40625.375m0 0"/><path id="n" d="M.21875-2.73437c0 .84375.51563 1.26562 1.17188 1.26562.4375 0 .78125-.28125.96875-.51562 0 .95312-.23438 1.8125-.79688 1.8125-.26562 0-.46875-.23438-.5625-.60938C.96875-.85937.92188-.9375.79688-.9375c-.14063 0-.39063.10938-.39063.3125 0 .28125.32813.70313 1.09375.70313 1.04688 0 1.625-.79688 1.625-2.21875 0-1.26563-.45312-1.98438-1.45312-1.98438-.98438 0-1.45313.60938-1.45313 1.39063m.75-.125c0-.59375.20313-1.03125.67188-1.03125.5 0 .71875.5625.71875 1.26562 0 .35938-.25.76563-.6875.76563-.375 0-.70313-.3125-.70313-1m0 0"/><path id="o" d="m.25-3.125.1875.03125.04688-.125c.07812-.15625.15625-.25.42187-.25h1.625c-.0625.21875-.1875.60938-.6875 1.26563C1.32813-1.51562.98438-.875.98438-.25c0 .28125.20312.32813.42187.32813.1875 0 .35938-.04688.35938-.29688.01562-.85937.15624-1.46875.4375-1.9375.46875-.75.75-1.14062.90625-1.82812l-.0625-.0625H.46875Zm0 0"/><path id="r" d="M.42188 0H4v-.34375C2.75-.42187 2.71875-.4375 2.71875-1.125v-2.84375h1.70313c1.03125 0 1.07812.28125 1.1875 1.0625h.35937V-5.5h-.35937c-.10938.76563-.15625 1.0625-1.1875 1.0625H2.71875v-3.10937c0-.40625.04688-.4375.45313-.4375H4.375c1.40625 0 1.6875.28125 1.85938 1.53125h.35937v-1.95313H.42188v.35938c1.07812.07812 1.10937.09375 1.10937.76562V-1.125c0 .6875-.03125.70313-1.10937.78125Zm0 0"/><path id="s" d="M.59375-1.57812c0 .90625.60938 1.71875 1.75 1.71875.70313 0 1.42188-.46875 1.79688-.71875.17187.45312.375.71875.8125.71875.45312 0 .96875-.125 1.4375-.35938L6.3125-.5c-.17187.03125-.45312.04688-.625 0-.21875-.0625-.42187-.28125-.42187-1.03125v-2.95312c0-.70313-.15625-1.60938-2-1.60938-1.35938 0-2.45313.70313-2.45313 1.375 0 .39063.45313.57813.6875.57813.25 0 .32813-.14063.39063-.34375.26562-.90625.76562-1.1875 1.25-1.1875.48437 0 1.01562.25 1.01562 1.21875v.5c-.3125.3125-1.48437.625-2.4375.92187-.875.28125-1.125.89063-1.125 1.45313M1.82813-1.75c0-.5625.25-.85937.9375-1.125.48437-.17187 1.125-.40625 1.39062-.57812v1.71875C4.15625-.75 3.40625-.5 2.9375-.5c-.75 0-1.10937-.53125-1.10937-1.25m0 0"/><path id="t" d="M.39063 0h3.20312v-.34375C2.5-.40625 2.4375-.4375 2.4375-1.0625v-2.84375c0-.92187.42188-1.25.70313-1.25.1875 0 .40625.07813.75.26563.09375.0625.1875.07812.25.07812.29687 0 .54687-.3125.54687-.6875 0-.28125-.17187-.59375-.64062-.59375-.4375 0-.79688.25-1.60938.96875l-.14062-.96875-1.84375.3125v.29688l.45312.0625c.3125.04687.40625.09375.40625.53125v3.82812c0 .625-.07812.65625-.92187.71875Zm0 0"/><path id="u" d="M1.10938-7.95312c0 .45312.3125.75.75.75s.73437-.29688.73437-.75c0-.4375-.29687-.73438-.73437-.73438s-.75.29688-.75.73438M.39063 0h2.95312v-.34375c-.85937-.0625-.90625-.09375-.90625-.71875v-4.95312l-.07812-.07813-1.90625.3125v.29688l.45312.0625c.3125.04687.40625.09375.40625.53125v3.82812c0 .625-.04687.65625-.92187.71875Zm0 0"/><path id="v" d="M.39063 0h2.95312v-.34375c-.85937-.0625-.90625-.09375-.90625-.71875v-2.84375c0-.3125.01563-.46875.125-.65625.25-.48437.79688-.875 1.4375-.875.82813 0 1.28125.45313 1.28125 1.51563v2.85937c0 .625-.03125.65625-.90625.71875V0h2.96875v-.34375c-.875-.0625-.92187-.09375-.92187-.71875v-3.09375c0-1.23437-.67188-1.9375-1.78125-1.9375-.90625 0-1.46875.4375-2.21875.92188l-.15625-.92188-1.8125.3125v.29688l.45312.0625c.3125.04687.40625.09375.40625.53125v3.82812c0 .625-.04687.65625-.92187.71875Zm0 0"/><path id="w" d="M.59375-2.9375c0 1.92188.82813 3.07813 2.79688 3.07813 1.35937 0 2.04687-.75 2.375-1.70313L5.40625-1.75c-.34375.70313-.8125 1.26563-1.76562 1.26563-1.51563 0-1.8125-1.4375-1.78125-2.70313h3.5c.26562 0 .48437-.0625.48437-.46875 0-.71875-.23437-2.4375-2.45312-2.4375C1.48438-6.09375.59375-4.75.59375-2.9375M1.875-3.65625c0-.5.17188-2.01562 1.45313-2.01562 1.10937 0 1.25 1.15625 1.25 1.625 0 .23437-.07813.39062-.42188.39062Zm0 0"/><path id="A" d="M-.34375 0h2.67188v-.34375l-.64063-.0625c-.35937-.04687-.40625-.17187-.3125-.5.21875-.71875.45313-1.46875.75-2.34375h2.71875l.8125 2.32813c.125.35937.0625.48437-.3125.51562l-.5625.0625V0h3.10938v-.34375c-.70313-.0625-.82813-.10937-1.0625-.73437l-2.5625-7.32813h-.90625L2.09375-4.8125c-.375 1.0625-.89062 2.51563-1.3125 3.625-.26562.65625-.375.79688-1.125.84375Zm2.625-3.70312c.39063-1.21875.8125-2.40625 1.1875-3.48438H3.5l1.20313 3.48438Zm0 0"/><path id="B" d="M.39063 0h2.95312v-.34375c-.85937-.0625-.90625-.09375-.90625-.71875v-2.84375c0-.3125 0-.46875.09375-.64062.23438-.5.76563-.89063 1.4375-.89063 1.04688 0 1.17188.76563 1.17188 1.51563v2.85937c0 .625-.03125.65625-.92188.71875V0H7.1875v-.34375c-.875-.0625-.90625-.09375-.90625-.71875v-2.84375c0-.3125.01563-.46875.09375-.65625.17188-.48437.6875-.875 1.375-.875.76563 0 1.23438.42188 1.23438 1.51563v2.85937c0 .625-.04688.65625-.92188.71875V0h2.96875v-.34375c-.85937-.0625-.90625-.09375-.90625-.71875v-3.09375c0-1.23437-.67187-1.9375-1.8125-1.9375-1 0-1.70312.65625-2.14062.92188-.29688-.5625-.75-.92188-1.60938-.92188-.9375 0-1.6875.60938-2.125.92188l-.10937-.92188-1.875.3125v.29688l.45312.0625c.3125.04687.40625.09375.40625.53125v3.82812c0 .625-.04687.65625-.92187.71875Zm0 0"/><path id="C" d="M.59375-2.85937c0 1.79687.9375 3 2.54688 3 .65625 0 1.21875-.29688 1.875-.82813v.59375L5.10938 0h1.96875v-.34375c-.85938-.0625-.90625-.09375-.90625-.71875v-7.875L6.09375-9l-1.92187.29688v.29687l.46875.04688c.3125.03125.39062.10937.39062.5625v2c-.34375-.1875-.79687-.29688-1.34375-.29688-1 0-1.75.3125-2.25.82813-.51562.54687-.84375 1.34375-.84375 2.40625M1.85938-3c0-1.57812.5625-2.67187 1.8125-2.67187.5625 0 1.03125.25 1.25.76562.10937.20313.10937.39063.10937.70313v2.14062c0 .26563 0 .46875-.07812.6875-.25.625-.78125.875-1.40625.875-1.125 0-1.6875-1.10937-1.6875-2.5m0 0"/><path id="D" d="M.5625-2.03125.70313-.4375c.4375.39063 1.17187.57813 1.875.57813 1.45312 0 2.28125-.76563 2.28125-1.79688 0-1.0625-.65625-1.54687-1.90625-1.9375C2.4375-3.75 1.65625-4 1.65625-4.6875c0-.64062.46875-.98437 1.07813-.98437.875 0 1.28125.67187 1.375 1.40625h.34375V-5.6875c-.39063-.29687-1.01563-.40625-1.5625-.40625-1.3125 0-2.20313.60938-2.20313 1.76563 0 1 .82813 1.45312 1.82813 1.76562.54687.17188 1.3125.4375 1.3125 1.26563 0 .625-.48438 1.01562-1.125 1.01562-.98438 0-1.54688-.71875-1.78125-1.75Zm0 0"/><path id="F" d="M.60938-2.5.71875-.54687C1.25-.03126 2.28125.1875 3.125.1875c2.14063 0 3-1.23437 3-2.46875 0-1.4375-.96875-2.125-2.39062-2.64062l-.40625-.14063c-.8125-.3125-1.48438-.82812-1.48438-1.54687 0-.89063.53125-1.5625 1.54688-1.5625 1.04687 0 1.64062.59375 1.82812 1.82812h.375v-1.70312C5.1875-8.375 4.375-8.59375 3.54688-8.59375c-1.5 0-2.8125.75-2.8125 2.35938 0 1.26562 1.01562 1.9375 2.29687 2.39062l.21875.07813c.53125.21875 1.70313.75 1.70313 1.84375C4.95313-.875 4.28125-.25 3.1875-.25 2.04688-.25 1.3125-1.14062 1-2.5Zm0 0"/><path id="G" d="m.3125-5.48437.46875.0625c.29688.04687.375.09375.375.53125v3.20312c0 1.40625.82813 1.82813 1.73438 1.82813 1.03125 0 1.875-.70313 2.21875-.85938L5.23438 0H7.1875v-.34375c-.84375-.0625-.92187-.09375-.92187-.71875v-4.95312l-.09375-.07813-1.89063.3125v.29688l.46875.0625c.29688.04687.375.09375.375.53125v2.75c0 .32812-.03125.60937-.09375.71875C4.75-.85937 4.17188-.5 3.54688-.5 2.82813-.5 2.3125-.95312 2.3125-1.90625v-4.10937l-.09375-.07813-1.90625.3125Zm0 0"/><path id="H" d="M.59375-2.92187c0 2.03125 1 3.0625 2.8125 3.0625.85938 0 2.01563-.4375 2.34375-1.75l-.35937-.15626c-.375.84376-.85938 1.28126-1.75 1.28126-1.4375 0-1.78125-1.51563-1.78125-2.65625 0-1.8125.71875-2.53125 1.54687-2.53125.5625 0 .90625.40625 1.15625 1.0625.07813.1875.15625.3125.39063.3125s.70312-.15625.70312-.625c0-.5625-.79687-1.17188-2.10937-1.17188-2.21875 0-2.95313 1.5625-2.95313 3.17188m0 0"/><path id="J" d="M.42188 0H4.1875c1.84375 0 3.03125-.65625 3.03125-2.35937 0-1.42188-1.01562-2.0625-2.1875-2.21875v-.01563c1.125-.23437 1.79688-.95312 1.79688-1.875 0-.67187-.25-1.1875-.73438-1.5-.48437-.3125-1.1875-.4375-2.15625-.4375H.42188v.35938c1.07812.07812 1.10937.09375 1.10937.76562V-1.125c0 .6875-.03125.70313-1.10937.78125Zm2.29687-1.35937V-4.3125h.875c1.51563 0 2.34375.75 2.34375 2.03125 0 1.46875-1 1.85938-2.04687 1.85938-.96875 0-1.17188-.1875-1.17188-.9375m0-3.39063v-2.625c0-.51562.04688-.60937.98438-.60937.89062 0 1.85937.32812 1.85937 1.59375 0 1.1875-.75 1.64062-2.01562 1.64062Zm0 0"/><path id="x" d="M.32813-.10937.45313 0h5.03125l.40625-1.60937-.32813-.0625c-.26562.65625-.51562.75-1 .75H1.45313c.20312-.625.92187-1.5 2.04687-2.3125 1.17188-.84375 2.0625-1.39063 2.0625-2.75 0-1.6875-1.125-2.26563-2.39062-2.26563C1.5-8.25.64063-7.25.64063-6.60937c0 .40625.46875.59375.67187.59375.21875 0 .29688-.125.35938-.32813.1875-.82812.67187-1.48437 1.42187-1.48437.92188 0 1.20313.76562 1.20313 1.67187 0 1.29688-.67188 2.03125-1.71875 2.96875-1.5 1.29688-2.01563 2.125-2.25 3.07813m0 0"/><path id="y" d="M.48438-1.23437c0 .54687.85937 1.375 2.4375 1.375 2 0 2.90625-1.21875 2.90625-2.75 0-1.70313-1.0625-2.57813-2.5-2.57813-.67188 0-1.42188.29688-1.79688.65625l.26563-2.29687c.03124-.3125.10937-.35938.34375-.35938h3.03125l.29687-.82812-.0625-.09375h-4.0625L1.23438-8l-.25 4.0625.29687.15625c.5-.59375 1-.875 1.65625-.875.76563 0 1.625.57813 1.625 2.17188 0 1.25-.5 2.20312-1.5625 2.20312-.85937 0-1.28125-.60937-1.53125-1.3125-.0625-.17187-.17187-.29687-.34375-.29687-.25 0-.64062.25-.64062.65625m0 0"/><path id="z" d="M.5-4.0625C.5-1.625 1.21875.14063 3.21875.14063S5.9375-1.625 5.9375-4.0625c0-2.42187-.71875-4.1875-2.71875-4.1875S.5-6.48437.5-4.0625m1.23438 0c0-1.96875.32812-3.76562 1.48437-3.76562S4.70313-6.03125 4.70313-4.0625c0 1.98438-.32813 3.78125-1.48438 3.78125S1.73438-2.07812 1.73438-4.0625m0 0"/><path id="E" d="M1.3125 0h4v-.34375L4.29688-.4375c-.26563-.03125-.40625-.125-.40625-.59375V-8.1875l-.0625-.0625-2.51563.42188v.29687l1.14063.14063c.20312.03125.28125.10937.28125.46875v5.89062c0 .46875-.10938.5625-.39063.59375L1.3125-.34375Zm0 0"/><path id="I" d="M.5-6.40625h.32813l.10937-.26562c.15625-.32813.32813-.51563.875-.51563h3.28125c-.125.4375-.34375 1.14063-1.32812 2.54688-1.04688 1.5-1.73438 2.85937-1.73438 4.29687 0 .39063.28125.48438.65625.48438.34375 0 .57813-.07813.57813-.46875 0-1.85938.32812-2.98438.92187-4.01563.78125-1.35937 1.42188-2.10937 1.84375-3.64062l-.09375-.125H.875Zm0 0"/><clipPath id="a"><path d="M31 .16797h195.94531V111H31Zm0 0"/></clipPath><clipPath id="b"><path d="M25 .16797h201.94531V117H25Zm0 0"/></clipPath><clipPath id="c"><path d="M55 110h171.94531v111H55Zm0 0"/></clipPath><clipPath id="d"><path d="M49 105h177.94531v122H49Zm0 0"/></clipPath><clipPath id="p"><path d="M0 .16797h226.94531V227H0Zm0 0"/></clipPath><clipPath id="q"><path d="M5 35h221.94531v174H5Zm0 0"/></clipPath></defs><g clip-path="url(#a)"><path fill="#7fbfbf" d="M116.42969 110.66016h110.30078c0-60.91407-49.38281-110.29688-110.30078-110.29688-33.01563 0-64.3086 14.8086-85.2539 40.33203Zm0 0"/></g><g clip-path="url(#b)"><path fill="none" stroke="#000" stroke-miterlimit="10" stroke-width=".39758" d="M226.73051 110.66016c0-60.9141-49.38283-110.29692-110.30082-110.29692-33.01564 0-64.30862 14.8086-85.25394 40.33204"/></g><path fill="#7fd6f7" d="M116.42969 110.66016 31.17579 40.6953C7.8125 69.16016.1953 107.4336 10.88671 142.67578Zm0 0"/><path fill="none" stroke="#000" stroke-miterlimit="10" stroke-width=".39758" d="M31.17575 40.69528C7.81245 69.16014.19527 107.4336 10.88668 142.6758"/><path fill="#ffbf7f" d="M116.42969 110.66016 10.88672 142.67578c7.40625 24.41016 23.0586 45.51953 44.26953 59.6914Zm0 0"/><path fill="none" stroke="#000" stroke-miterlimit="10" stroke-width=".39758" d="M10.88668 142.6758c7.40625 24.41016 23.0586 45.51954 44.26955 59.69142"/><g clip-path="url(#c)"><path fill="#f57fc5" d="m116.42969 110.66016-61.27344 91.70703c50.64844 33.83984 119.13672 20.21875 152.98047-30.42969 12.11328-18.13281 18.59375-39.46875 18.59375-61.27734Zm0 0"/></g><g clip-path="url(#d)"><path fill="none" stroke="#000" stroke-miterlimit="10" stroke-width=".39758" d="M55.15623 202.36722c50.64845 33.83986 119.13676 20.21876 152.98053-30.4297 12.11328-18.13281 18.59375-39.46876 18.59375-61.27736"/></g><path fill="#66b2b2" d="M116.42969 110.66016h11.03125c0-6.08985-4.9375-11.02735-11.03125-11.02735-3.30078 0-6.42969 1.48047-8.52344 4.03125Zm0 0"/><path fill="none" stroke="#000" stroke-miterlimit="10" stroke-width=".39758" d="M127.46094 110.66016c0-6.08985-4.9375-11.02735-11.03125-11.02735-3.30078 0-6.4297 1.48047-8.52344 4.03125"/><use xlink:href="#e" x="113.45415" y="87.3579"/><use xlink:href="#f" x="116.78144" y="87.3579"/><use xlink:href="#g" x="120.10873" y="87.3579"/><use xlink:href="#h" x="123.43601" y="87.3579"/><use xlink:href="#i" x="125.12873" y="87.3579"/><use xlink:href="#j" x="128.45601" y="87.3579"/><use xlink:href="#k" x="131.7833" y="87.3579"/><use xlink:href="#l" x="135.11058" y="87.3579"/><path fill="#66b2b2" d="m116.42969 110.66016-8.52344-6.9961c-2.33594 2.84766-3.09766 6.67578-2.03125 10.19922Zm0 0"/><path fill="none" stroke="#000" stroke-miterlimit="10" stroke-width=".39758" d="M107.90625 103.66406c-2.33594 2.84766-3.09766 6.67578-2.03125 10.19922"/><use xlink:href="#k" x="84.06624" y="107.54713"/><use xlink:href="#i" x="87.39352" y="107.54713"/><use xlink:href="#h" x="90.72081" y="107.54713"/><use xlink:href="#j" x="92.41353" y="107.54713"/><use xlink:href="#k" x="95.74081" y="107.54713"/><use xlink:href="#l" x="99.0681" y="107.54713"/><path fill="#66b2b2" d="m116.42969 110.66016-10.55469 3.20312c.74219 2.4414 2.3086 4.55078 4.42969 5.96875Zm0 0"/><path fill="none" stroke="#000" stroke-miterlimit="10" stroke-width=".39758" d="M105.875 113.86328c.74218 2.4414 2.3086 4.55079 4.42969 5.96875"/><use xlink:href="#m" x="85.82616" y="127.39115"/><use xlink:href="#n" x="89.15345" y="127.39115"/><use xlink:href="#h" x="92.48073" y="127.39115"/><use xlink:href="#m" x="94.17345" y="127.39115"/><use xlink:href="#o" x="97.50073" y="127.39115"/><use xlink:href="#k" x="100.82802" y="127.39115"/><use xlink:href="#l" x="104.1553" y="127.39115"/><path fill="#66b2b2" d="m116.42969 110.66016-6.125 9.17187c5.0625 3.38281 11.91406 2.02344 15.29687-3.04297 1.21094-1.8125 1.85938-3.94531 1.85938-6.1289Zm0 0"/><path fill="none" stroke="#000" stroke-miterlimit="10" stroke-width=".39758" d="M110.30469 119.83203c5.0625 3.38282 11.91406 2.02344 15.29688-3.04296 1.21093-1.8125 1.85937-3.94532 1.85937-6.12891"/><use xlink:href="#e" x="118.15925" y="134.65233"/><use xlink:href="#j" x="121.48654" y="134.65233"/><use xlink:href="#m" x="124.81382" y="134.65233"/><use xlink:href="#h" x="128.14111" y="134.65233"/><use xlink:href="#o" x="129.83382" y="134.65233"/><use xlink:href="#k" x="133.16111" y="134.65233"/><use xlink:href="#l" x="136.4884" y="134.65233"/><g clip-path="url(#p)"><path fill="none" stroke="#000" stroke-miterlimit="10" stroke-width=".39758" d="M226.73051 110.66016c0-60.9141-49.38283-110.29692-110.30082-110.29692C55.5156.36324 6.13277 49.74607 6.13277 110.66016c0 60.91799 49.38283 110.30082 110.29692 110.30082 60.918 0 110.30082-49.38283 110.30082-110.30082Zm0 0"/></g><g clip-path="url(#q)"><path fill="none" stroke="#000" stroke-miterlimit="10" stroke-width=".39758" d="M226.75004 110.66016H116.4297l-85.26957-69.9805 85.26957 69.9805L10.86714 142.6836l105.56255-32.02345-61.28518 91.7266 61.28518-91.7266h110.32035"/></g><use xlink:href="#r" x="124.13042" y="38.08226"/><use xlink:href="#s" x="130.59117" y="38.08226"/><use xlink:href="#t" x="136.93562" y="38.08226"/><use xlink:href="#u" x="141.75534" y="38.08226"/><use xlink:href="#v" x="145.28291" y="38.08226"/><use xlink:href="#w" x="152.7903" y="38.08226"/><use xlink:href="#x" x="131.92795" y="53.58913"/><use xlink:href="#y" x="138.36286" y="53.58913"/><use xlink:href="#z" x="144.79776" y="53.58913"/><use xlink:href="#A" x="18.54404" y="92.99734"/><use xlink:href="#B" x="26.24525" y="92.99734"/><use xlink:href="#s" x="37.44819" y="92.99734"/><use xlink:href="#v" x="43.79264" y="92.99734"/><use xlink:href="#C" x="51.30003" y="92.99734"/><use xlink:href="#w" x="58.56191" y="92.99734"/><use xlink:href="#D" x="64.80299" y="92.99734"/><use xlink:href="#E" x="34.66309" y="108.50291"/><use xlink:href="#z" x="41.098" y="108.50291"/><use xlink:href="#z" x="47.5329" y="108.50291"/><use xlink:href="#F" x="42.19724" y="150.93311"/><use xlink:href="#G" x="48.46417" y="150.93311"/><use xlink:href="#H" x="55.8165" y="150.93311"/><use xlink:href="#t" x="61.83791" y="150.93311"/><use xlink:href="#w" x="66.30875" y="150.93311"/><use xlink:href="#I" x="50.93899" y="166.43869"/><use xlink:href="#z" x="57.37389" y="166.43869"/><use xlink:href="#J" x="132.69857" y="171.88258"/><use xlink:href="#w" x="140.46439" y="171.88258"/><use xlink:href="#G" x="146.70547" y="171.88258"/><use xlink:href="#t" x="154.0578" y="171.88258"/><use xlink:href="#t" x="158.77415" y="171.88258"/><use xlink:href="#w" x="163.24499" y="171.88258"/><use xlink:href="#x" x="141.43902" y="187.38816"/><use xlink:href="#x" x="147.87393" y="187.38816"/><use xlink:href="#z" x="154.30883" y="187.38816"/></svg>