<svg xmlns="http://www.w3.org/2000/svg" xmlns:xlink="http://www.w3.org/1999/xlink" width="218.719pt" height="227.694pt" viewBox="0 0 218.719 227.694"><defs><path id="f" d="M.64063 0H2.625v-.1875l-.45312-.04687C2.04688-.25 1.98438-.28125 1.98438-.5v-3.4375l-.04688-.03125-1.29687.20313v.17187l.46875.0625c.125.03125.17187.07813.17187.26563V-.5c0 .21875-.0625.25-.20312.26563l-.4375.04687Zm0 0"/><path id="g" d="m.125-1.17187.07813.14062H1.75v.59375c0 .15625-.0625.20313-.1875.21875l-.375.03125V0h1.65625v-.1875L2.5625-.21875c-.10937-.01562-.15625-.0625-.15625-.21875v-.59375H3v-.32812h-.59375v-2.54688h-.54687C1.26563-3.04687.65625-2.07812.125-1.17187m.51563-.1875c.3125-.59375.70312-1.23438 1.10937-1.90625v1.90625Zm0 0"/><path id="h" d="M.23438-1.95312c0 1.125.34375 2.01562 1.375 2.01562 1.01562 0 1.375-.89062 1.375-2.01562s-.35938-2.01563-1.375-2.01563c-1.03125 0-1.375.89063-1.375 2.01563m.73437 0c0-.82813.10938-1.79688.64063-1.79688.51562 0 .625.96875.625 1.79688 0 .82812-.10938 1.79687-.625 1.79687-.53125 0-.64063-.96875-.64063-1.79687m0 0"/><path id="i" d="m.29688.73438.15625.125c.28125-.28126.78125-.70313.78125-1.15625 0-.3125-.17188-.5625-.4375-.5625-.25 0-.35938.17187-.35938.32812 0 .20313.17188.3125.17188.5625s-.125.5-.3125.70313m0 0"/><path id="j" d="M.23438-1.84375C.23438-.625.67188.0625 1.64063.0625c.95312 0 1.39062-.57812 1.39062-1.32812 0-.8125-.5-1.21875-1.125-1.21875-.4375 0-.75.26562-.9375.48437 0-.90625.23438-1.75.78125-1.75.25 0 .4375.23438.53125.59375.01563.07813.07813.15625.1875.15625.14063 0 .375-.10937.375-.3125 0-.25-.3125-.65625-1.04687-.65625-.96875 0-1.5625.70313-1.5625 2.125m.73437.46875c0-.34375.23438-.73437.67188-.73437.34375 0 .65625.29687.65625.95312 0 .57813-.1875 1-.64063 1-.46875 0-.6875-.54687-.6875-1.21875m0 0"/><path id="k" d="M.1875-.07812.25 0h2.53125L3-.89062l-.1875-.03126c-.14062.3125-.25.35938-.48437.35938H.84375c.09375-.26562.35938-.64062.95313-1 .60937-.39062 1.03125-.67187 1.03125-1.3125 0-.8125-.5625-1.09375-1.23438-1.09375-.78125 0-1.28125.4375-1.28125.82813 0 .21875.26563.32812.40625.32812.10938 0 .17188-.0625.20313-.1875.09374-.42187.29687-.75.625-.75.39062 0 .51562.34375.51562.76563 0 .51562-.20312.90625-.78125 1.39062C.51563-.9375.25-.5.1875-.07812m0 0"/><path id="l" d="M.26563-.64062C.26563-.40625.60938.0625 1.5.0625c1.01563 0 1.42188-.59375 1.42188-1.3125 0-.70312-.39063-1.25-1.25-1.25-.35938 0-.6875.15625-.89063.3125l.10938-.95312c.03124-.1875.04687-.20313.1875-.20313h1.5l.1875-.5-.04688-.0625H.64063l-.04688.0625-.125 1.9375.1875.125c.23438-.28125.46875-.40625.76563-.40625.39062 0 .75.28125.75 1 0 .60938-.20313 1.03125-.64063 1.03125-.34375 0-.54687-.25-.6875-.67187C.8125-.9375.73438-1 .625-1c-.15625 0-.35937.14063-.35937.35938m0 0"/><path id="m" d="M.21875-3.17187c0 .45312.35938.8125.79688.8125s.8125-.35938.8125-.8125c0-.42188-.375-.79688-.8125-.79688s-.79688.375-.79688.79688m.32813 0c0-.29688.21874-.51563.46875-.51563.26562 0 .48437.21875.48437.51563 0 .3125-.23437.53125-.48437.53125s-.46875-.21875-.46875-.53125m0 0"/><path id="n" d="M.17188-.64062c0 .23437.35937.70312 1.29687.70312.875 0 1.4375-.40625 1.4375-1.15625 0-.8125-.71875-1.01562-.98437-1.04687v-.01563c.3125-.0625.8125-.28125.8125-.85937 0-.71875-.59375-.95313-1.21875-.95313-.73438 0-1.20313.39063-1.20313.73438 0 .20312.25.3125.35938.3125s.15624-.0625.1875-.15625C1-3.5 1.1875-3.75 1.5-3.75c.40625 0 .5.42188.5.71875C2-2.75 1.92188-2.25 1.45313-2.25c-.26563 0-.4375-.0625-.53125-.0625-.10938 0-.14063.0625-.14063.1875s.03125.20313.14063.20313c.09374 0 .26562-.0625.53125-.0625.40625 0 .6875.3125.6875.90625 0 .65625-.28125.92187-.67188.92187-.32812 0-.54687-.25-.6875-.67187C.73438-.9375.67188-1 .5625-1c-.15625 0-.39062.125-.39062.35938m0 0"/><path id="o" d="M.21875-2.64062c0 .8125.5 1.21875 1.125 1.21875.42188 0 .75-.26563.9375-.48438C2.26563-1 2.04688-.15625 1.5-.15625c-.25 0-.4375-.23437-.53125-.59375C.9375-.82812.89063-.90625.76563-.90625s-.375.10938-.375.3125c0 .26563.32812.65625 1.0625.65625 1 0 1.5625-.76562 1.5625-2.125 0-1.21875-.4375-1.90625-1.40625-1.90625-.95313 0-1.39063.57813-1.39063 1.32813M.9375-2.75c0-.57812.1875-1 .64063-1 .48437 0 .70312.54688.70312 1.21875 0 .34375-.23437.73438-.67187.73438C1.25-1.79687.9375-2.09375.9375-2.75m0 0"/><path id="p" d="m.23438-3.01562.1875.03125.04687-.125C.54688-3.25.625-3.34375.875-3.34375h1.5625C2.375-3.14062 2.25-2.75 1.78125-2.125c-.5.65625-.82812 1.28125-.82812 1.89063 0 .26562.1875.29687.39062.29687.1875 0 .35938-.03125.35938-.28125 0-.8125.14062-1.40625.42187-1.85937.45313-.71875.71875-1.10938.875-1.76563l-.0625-.0625H.45313Zm0 0"/><path id="s" d="M.40625 0h3.45313v-.32812C2.65625-.40625 2.625-.42187 2.625-1.07812V-3.8125H4.25c1 0 1.04688.26563 1.14063 1.01563H5.75v-2.5h-.35937c-.09375.75-.14063 1.03125-1.14063 1.03125H2.625v-3c0-.39063.03125-.42188.42188-.42188h1.15625c1.35937 0 1.625.28125 1.79687 1.46875h.34375v-1.85937H.40625V-7.75c1.03125.07813 1.0625.09375 1.0625.75v5.92188c0 .65625-.03125.67187-1.0625.75Zm0 0"/><path id="t" d="M.57813-1.51562c0 .875.57812 1.65625 1.67187 1.65625.6875 0 1.375-.45313 1.75-.70313.15625.4375.35938.70313.76563.70313.4375 0 .9375-.125 1.375-.35938L6.0625-.48437c-.15625.03125-.42187.04687-.59375 0-.20312-.04688-.40625-.26563-.40625-1V-4.3125c0-.6875-.15625-1.5625-1.92187-1.5625-1.3125 0-2.35938.6875-2.35938 1.32813 0 .375.4375.54687.65625.54687.25 0 .3125-.10937.375-.3125.26563-.875.73438-1.14062 1.20313-1.14062S4-5.21875 4-4.29687v.48437c-.29687.3125-1.42187.60938-2.34375.90625-.84375.25-1.07812.84375-1.07812 1.39063M1.75-1.67188c0-.54687.25-.84374.90625-1.09374C3.14063-2.9375 3.75-3.15625 4-3.32812v1.65625c0 .95312-.71875 1.1875-1.17187 1.1875C2.10938-.48437 1.75-1 1.75-1.67187m0 0"/><path id="u" d="M.375 0h3.07813v-.32812c-1.04688-.0625-1.10938-.09375-1.10938-.6875V-3.75c0-.90625.40625-1.21875.67188-1.21875.1875 0 .39062.07813.73437.26563.07813.04687.17188.0625.23438.0625.28125 0 .53125-.29688.53125-.65625 0-.26563-.15625-.57813-.625-.57813-.42188 0-.76563.25-1.54688.9375l-.125-.9375-1.78125.29688v.29687l.4375.0625c.29688.04688.375.09375.375.51563v3.6875c0 .59375-.0625.625-.875.6875Zm0 0"/><path id="v" d="M1.0625-7.65625c0 .4375.3125.73438.73438.73438.42187 0 .70312-.29688.70312-.73438 0-.42187-.28125-.70312-.70312-.70312-.42188 0-.73438.28125-.73438.70312M.375 0h2.84375v-.32812c-.82812-.0625-.875-.09375-.875-.6875v-4.78125L2.26563-5.875.4375-5.57812v.29687l.4375.0625c.29688.04688.375.09375.375.51563v3.6875c0 .59375-.03125.625-.875.6875Zm0 0"/><path id="w" d="M.375 0h2.84375v-.32812c-.82812-.0625-.875-.09375-.875-.6875V-3.75c0-.29687.01563-.45312.125-.64062.25-.45313.76563-.84375 1.39063-.84375.79687 0 1.23437.4375 1.23437 1.45312v2.76563c0 .59375-.04687.625-.89062.6875V0H7.0625v-.32812c-.82812-.0625-.875-.09375-.875-.6875V-4c0-1.1875-.65625-1.875-1.71875-1.875-.875 0-1.40625.42188-2.125.90625L2.17188-5.875.4375-5.57812v.29687l.4375.0625c.29688.04688.375.09375.375.51563v3.6875c0 .59375-.03125.625-.875.6875Zm0 0"/><path id="x" d="M.57813-2.82812c0 1.85937.79687 2.96875 2.6875 2.96875C4.5625.14063 5.23438-.57812 5.54688-1.5l-.34375-.1875C4.875-1 4.42188-.45312 3.5-.45312c-1.45312 0-1.73437-1.40625-1.70312-2.625h3.35937c.25 0 .46875-.0625.46875-.4375 0-.6875-.23437-2.35938-2.35937-2.35938-1.82813 0-2.6875 1.29688-2.6875 3.04688m1.21875-.6875c0-.48438.1875-1.9375 1.40625-1.9375 1.07812 0 1.20312 1.09375 1.20312 1.5625 0 .21875-.07812.375-.40625.375Zm0 0"/><path id="B" d="M-.32812 0h2.5625v-.32812L1.625-.39062C1.28125-.4375 1.23438-.5625 1.32813-.875c.20312-.6875.4375-1.40625.71875-2.25h2.625l.78125 2.23438c.10937.34375.0625.46875-.3125.5l-.53125.0625V0h2.98437v-.32812c-.67187-.0625-.79687-.10938-1.01562-.71875L4.10938-8.07812h-.875L2.01563-4.625C1.65625-3.60937 1.15625-2.21875.75-1.14062c-.25.625-.35937.76562-1.07812.8125Zm2.53125-3.5625c.375-1.17187.78125-2.32812 1.125-3.35937H3.375L4.53125-3.5625Zm0 0"/><path id="C" d="M.375 0h2.84375v-.32812c-.82812-.0625-.875-.09375-.875-.6875V-3.75c0-.29687 0-.46875.09375-.625.21875-.46875.73438-.85937 1.375-.85937 1.01563 0 1.14063.73437 1.14063 1.45312v2.76563c0 .59375-.04688.625-.89063.6875V0h2.85938v-.32812c-.84375-.0625-.875-.09375-.875-.6875V-3.75c0-.29687.01562-.45312.07812-.64062.1875-.46875.67188-.84375 1.34375-.84375.73438 0 1.17188.40625 1.17188 1.45312v2.76563c0 .59375-.03125.625-.875.6875V0H10.625v-.32812c-.84375-.0625-.89062-.09375-.89062-.6875V-4c0-1.1875-.625-1.875-1.73438-1.875-.95312 0-1.64062.64063-2.0625.90625-.28125-.54687-.71875-.90625-1.54687-.90625-.89063 0-1.625.59375-2.04688.90625L2.23438-5.875.4375-5.57812v.29687l.4375.0625c.29688.04688.375.09375.375.51563v3.6875c0 .59375-.03125.625-.875.6875Zm0 0"/><path id="D" d="M.57813-2.75c0 1.73438.90625 2.89063 2.4375 2.89063.64062 0 1.17187-.29688 1.8125-.79688v.5625L4.92188 0H6.8125v-.32812c-.82812-.0625-.875-.09375-.875-.6875v-7.59375l-.07812-.0625-1.84375.28125v.3125l.45312.03125c.29688.03125.375.09375.375.54687v1.92188c-.32812-.1875-.76562-.29688-1.29687-.29688-.95313 0-1.6875.3125-2.17188.8125C.89063-4.54687.57813-3.76562.57813-2.75m1.21875-.14062c0-1.51563.54687-2.5625 1.73437-2.5625.54688 0 1 .23437 1.20313.73437.10937.1875.10937.35938.10937.67188v2.0625c0 .25 0 .45312-.07812.65625-.23438.60937-.75.84375-1.35938.84375-1.0625 0-1.60937-1.0625-1.60937-2.40625m0 0"/><path id="E" d="m.54688-1.95312.125 1.53125c.42187.375 1.125.5625 1.8125.5625 1.39062 0 2.1875-.73438 2.1875-1.73438 0-1.03125-.625-1.48437-1.84375-1.85937-.48438-.15625-1.23438-.40625-1.23438-1.0625 0-.60938.45313-.9375 1.04688-.9375.82812 0 1.23437.64062 1.3125 1.34375h.34375v-1.35938C3.90625-5.76562 3.3125-5.875 2.78125-5.875c-1.26562 0-2.125.59375-2.125 1.70313 0 .96875.79688 1.40625 1.76563 1.70312.53125.17188 1.26562.42188 1.26562 1.21875 0 .60938-.46875.96875-1.09375.96875-.9375 0-1.46875-.67187-1.70312-1.67187Zm0 0"/><path id="G" d="m.57813-2.40625.125 1.89063c.5.48437 1.48437.6875 2.3125.6875 2.0625 0 2.875-1.17188 2.875-2.375 0-1.375-.92188-2.03125-2.29688-2.53125L3.20313-4.875c-.78125-.29687-1.42188-.79687-1.42188-1.5 0-.84375.5-1.48437 1.48438-1.48437 1.01562 0 1.57812.57812 1.76562 1.75h.35938V-7.75c-.40625-.3125-1.1875-.51562-1.98438-.51562C1.98438-8.26562.70313-7.54687.70313-6c0 1.21875.98437 1.85938 2.21875 2.29688l.21875.07812c.5.20313 1.625.73438 1.625 1.76563 0 1.01562-.65625 1.625-1.6875 1.625-1.09375 0-1.82813-.85938-2.125-2.17188Zm0 0"/><path id="H" d="m.29688-5.28125.45312.0625c.29688.04688.375.09375.375.51563v3.09375c0 1.32812.79688 1.75 1.65625 1.75 1 0 1.8125-.67188 2.14063-.84375L5.03125 0h1.89063v-.32812c-.8125-.0625-.89063-.09375-.89063-.6875v-4.78125L5.9375-5.875l-1.82812.29688v.29687l.45312.0625c.29688.04688.375.09375.375.51563v2.64062c0 .32813-.03125.57813-.09375.6875-.28125.54688-.82812.89063-1.4375.89063-.6875 0-1.1875-.4375-1.1875-1.34375v-3.96875L2.14063-5.875l-1.84375.29688Zm0 0"/><path id="I" d="M.57813-2.8125c0 1.95313.95312 2.95313 2.70312 2.95313.82813 0 1.9375-.42188 2.25-1.6875l-.34375-.15626C4.82813-.89062 4.35938-.46874 3.5-.46874c-1.39062 0-1.70312-1.45312-1.70312-2.54687 0-1.75.67187-2.4375 1.48437-2.4375.53125 0 .875.375 1.10938 1.01562.07812.1875.15625.29688.375.29688.23437 0 .6875-.15625.6875-.59375 0-.54688-.78125-1.14063-2.04688-1.14063-2.125 0-2.82812 1.51563-2.82812 3.0625m0 0"/><path id="K" d="M.40625 0h3.625C5.8125 0 6.95313-.64062 6.95313-2.26562c0-1.375-.98438-1.98438-2.10938-2.14063v-.01562c1.09375-.23438 1.73438-.90625 1.73438-1.8125 0-.64063-.25-1.125-.71875-1.4375-.46875-.29688-1.14063-.40625-2.0625-.40625H.40625V-7.75c1.03125.07813 1.0625.09375 1.0625.75v5.92188c0 .65625-.03125.67187-1.0625.75ZM2.625-1.3125v-2.84375h.82813c1.45312 0 2.25.71875 2.25 1.96875C5.70313-.78125 4.75-.40625 3.75-.40625c-.9375 0-1.125-.17187-1.125-.90625m0-3.25v-2.54687c0-.48438.03125-.57813.9375-.57813.85938 0 1.79688.32813 1.79688 1.53125 0 1.14063-.73438 1.59375-1.95313 1.59375Zm0 0"/><path id="y" d="M.3125-.10937.4375 0h4.84375l.39063-1.54687-.32813-.0625c-.25.64062-.48437.71875-.95312.71875H1.40625c.1875-.60938.875-1.4375 1.96875-2.21875 1.10938-.82813 1.98438-1.34375 1.98438-2.65625 0-1.625-1.07813-2.1875-2.3125-2.1875C1.4375-7.95312.625-6.98437.625-6.375c0 .40625.4375.59375.64063.59375.21874 0 .29687-.125.34375-.32812.1875-.79688.64062-1.42188 1.35937-1.42188.90625 0 1.15625.73438 1.15625 1.59375 0 1.26563-.625 1.96875-1.65625 2.85938C1.03125-1.8125.53125-1.01562.3125-.10937m0 0"/><path id="z" d="M.46875-1.1875c0 .53125.82813 1.32813 2.34375 1.32813 1.92188 0 2.79688-1.17188 2.79688-2.65625 0-1.64063-1.01563-2.46875-2.40625-2.46875-.65625 0-1.35938.28125-1.73438.625l.26563-2.21875c.03124-.29688.10937-.34375.32812-.34375h2.90625l.29688-.79688-.0625-.09375H1.29688l-.10938.10938-.25 3.90625.29688.15625c.48437-.5625.95312-.84375 1.59375-.84375.73437 0 1.5625.54687 1.5625 2.09375 0 1.20312-.48438 2.10937-1.5 2.10937-.82813 0-1.23438-.57812-1.46875-1.25-.0625-.17187-.17188-.28125-.34375-.28125-.23438 0-.60938.23438-.60938.625m0 0"/><path id="A" d="M.48438-3.90625c0 2.34375.6875 4.04688 2.60937 4.04688 1.9375 0 2.625-1.70313 2.625-4.04688s-.6875-4.04687-2.625-4.04687C1.17188-7.95312.48438-6.25.48438-3.90625m1.1875 0c0-1.90625.3125-3.625 1.42187-3.625 1.10938 0 1.4375 1.71875 1.4375 3.625s-.32812 3.625-1.4375 3.625c-1.10937 0-1.42187-1.71875-1.42187-3.625m0 0"/><path id="F" d="M1.26563 0h3.84375v-.32812L4.125-.42187C3.875-.45312 3.75-.53125 3.75-1v-6.89062l-.0625-.0625-2.42187.42187V-7.25l1.09375.14063c.20312.01562.28125.10937.28125.4375V-1c0 .46875-.10938.54688-.39063.57813l-.98437.09375Zm0 0"/><path id="J" d="M.48438-6.17187h.3125l.10937-.25c.15625-.3125.3125-.5.82813-.5h3.17187C4.78125-6.5 4.5625-5.82812 3.625-4.46875c-1.01562 1.45313-1.67187 2.75-1.67187 4.14063 0 .375.26562.46875.64062.46875.3125 0 .54688-.07813.54688-.45313 0-1.79687.3125-2.875.89062-3.85937.75-1.3125 1.35938-2.04688 1.78125-3.51563l-.10937-.125H.84375Zm0 0"/><clipPath id="a"><path d="M30 0h188.4336v107H30Zm0 0"/></clipPath><clipPath id="b"><path d="M24 0h194.4336v112H24Zm0 0"/></clipPath><clipPath id="c"><path d="M.00781 33H36v110H.00781Zm0 0"/></clipPath><clipPath id="d"><path d="M53 106h165.4336v107H53Zm0 0"/></clipPath><clipPath id="e"><path d="M47 100h171.4336v119H47Zm0 0"/></clipPath><clipPath id="q"><path d="M.00781 0H218.4336v219H.00781Zm0 0"/></clipPath><clipPath id="r"><path d="M4 33h214.4336v168H4Zm0 0"/></clipPath></defs><g clip-path="url(#a)"><path fill="#7FBFBF" d="M112.07422 106.35547h106.16016c0-58.6289-47.52735-106.15625-106.16016-106.15625-31.77734 0-61.89453 14.25-82.05469 38.8164Zm0 0"/></g><g clip-path="url(#b)"><path fill="none" stroke="#000" stroke-miterlimit="10" stroke-width=".39797" d="M218.23439 106.35547C218.23439 47.72656 170.70704.1992 112.07422.1992c-31.77735 0-61.89454 14.25-82.0547 38.8164"/></g><path fill="#7FD6F7" d="M112.07422 106.35547 30.01953 39.01563C7.53516 66.41406.20313 103.25 10.4922 137.16796Zm0 0"/><g clip-path="url(#c)"><path fill="none" stroke="#000" stroke-miterlimit="10" stroke-width=".39797" d="M30.01952 39.01562C7.53515 66.41406.20312 103.25 10.49218 137.16797"/></g><path fill="#FFBF7F" d="m112.07422 106.35547-101.58203 30.8125c7.125 23.4961 22.19531 43.8125 42.60937 57.45312Zm0 0"/><path fill="none" stroke="#000" stroke-miterlimit="10" stroke-width=".39797" d="M10.49218 137.16797c7.125 23.4961 22.19531 43.8125 42.60938 57.45313"/><g clip-path="url(#d)"><path fill="#F57FC5" d="m112.07422 106.35547-58.97266 88.26562c48.7461 32.57032 114.66797 19.45703 147.23828-29.28906 11.66016-17.45312 17.89453-37.98437 17.89453-58.97656Zm0 0"/></g><g clip-path="url(#e)"><path fill="none" stroke="#000" stroke-miterlimit="10" stroke-width=".39797" d="M53.10156 194.6211c48.7461 32.57032 114.66798 19.45704 147.2383-29.28906C212 147.8789 218.23438 127.34766 218.23438 106.35547"/></g><path fill="none" stroke="#000" stroke-miterlimit="10" stroke-width=".39797" d="M122.6914 106.35547c0-5.86328-4.7539-10.61719-10.61718-10.61719-3.17578 0-6.1875 1.42578-8.20313 3.88281"/><use xlink:href="#f" x="107.43509" y="87.92384"/><use xlink:href="#g" x="110.63751" y="87.92384"/><use xlink:href="#h" x="113.83993" y="87.92384"/><use xlink:href="#i" x="117.04235" y="87.92384"/><use xlink:href="#j" x="119.36177" y="87.92384"/><use xlink:href="#k" x="122.56419" y="87.92384"/><use xlink:href="#l" x="125.76662" y="87.92384"/><use xlink:href="#m" x="128.96904" y="87.92384"/><path fill="none" stroke="#000" stroke-miterlimit="10" stroke-width=".39797" d="M103.8711 99.6211c-2.25 2.74218-2.98438 6.42577-1.95313 9.8164"/><use xlink:href="#l" x="82.66238" y="103.77254"/><use xlink:href="#j" x="85.8648" y="103.77254"/><use xlink:href="#i" x="89.06722" y="103.77254"/><use xlink:href="#k" x="91.38664" y="103.77254"/><use xlink:href="#l" x="94.58907" y="103.77254"/><use xlink:href="#m" x="97.79149" y="103.77254"/><path fill="none" stroke="#000" stroke-miterlimit="10" stroke-width=".39797" d="M101.91797 109.4375c.71093 2.34766 2.21875 4.38281 4.26172 5.7461"/><use xlink:href="#n" x="84.83146" y="120.55998"/><use xlink:href="#o" x="88.03388" y="120.55998"/><use xlink:href="#i" x="91.23631" y="120.55998"/><use xlink:href="#n" x="93.55573" y="120.55998"/><use xlink:href="#p" x="96.75815" y="120.55998"/><use xlink:href="#l" x="99.96057" y="120.55998"/><use xlink:href="#m" x="103.16299" y="120.55998"/><path fill="none" stroke="#000" stroke-miterlimit="10" stroke-width=".39797" d="M106.17969 115.1836c4.875 3.2578 11.46484 1.9453 14.72265-2.9297 1.16407-1.74609 1.78907-3.80078 1.78907-5.89843"/><use xlink:href="#f" x="111.8921" y="126.63781"/><use xlink:href="#k" x="115.09452" y="126.63781"/><use xlink:href="#n" x="118.29694" y="126.63781"/><use xlink:href="#i" x="121.49936" y="126.63781"/><use xlink:href="#p" x="123.81878" y="126.63781"/><use xlink:href="#l" x="127.0212" y="126.63781"/><use xlink:href="#m" x="130.22362" y="126.63781"/><g clip-path="url(#q)"><path fill="none" stroke="#000" stroke-miterlimit="10" stroke-width=".39797" d="M218.23439 106.35547C218.23439 47.72656 170.70704.1992 112.07422.1992 53.4453.1992 5.91796 47.72656 5.91796 106.35547S53.4453 212.51564 112.07422 212.51564c58.63282 0 106.16017-47.53126 106.16017-106.16017Zm0 0"/></g><g clip-path="url(#r)"><path fill="none" stroke="#000" stroke-miterlimit="10" stroke-width=".39797" d="M218.23439 106.35547H112.07422l-82.0547-67.33985 82.0547 67.33985-101.58204 30.8164 101.58204-30.8164-58.97266 88.26563 58.97266-88.26563h106.16017"/></g><use xlink:href="#s" x="119.48589" y="36.5012"/><use xlink:href="#t" x="125.70418" y="36.5012"/><use xlink:href="#u" x="131.81055" y="36.5012"/><use xlink:href="#v" x="136.4494" y="36.5012"/><use xlink:href="#w" x="139.84458" y="36.5012"/><use xlink:href="#x" x="147.07024" y="36.5012"/><use xlink:href="#y" x="126.9908" y="51.42489"/><use xlink:href="#z" x="133.18422" y="51.42489"/><use xlink:href="#A" x="139.37765" y="51.42489"/><use xlink:href="#B" x="17.86246" y="89.35392"/><use xlink:href="#C" x="25.27467" y="89.35392"/><use xlink:href="#t" x="36.05719" y="89.35392"/><use xlink:href="#w" x="42.16355" y="89.35392"/><use xlink:href="#D" x="49.38921" y="89.35392"/><use xlink:href="#x" x="56.37857" y="89.35392"/><use xlink:href="#E" x="62.38544" y="89.35392"/><use xlink:href="#F" x="33.37661" y="104.27886"/><use xlink:href="#A" x="39.57003" y="104.27886"/><use xlink:href="#A" x="45.76345" y="104.27886"/><use xlink:href="#G" x="40.62787" y="145.11623"/><use xlink:href="#H" x="46.65961" y="145.11623"/><use xlink:href="#I" x="53.73603" y="145.11623"/><use xlink:href="#u" x="59.53148" y="145.11623"/><use xlink:href="#x" x="63.83454" y="145.11623"/><use xlink:href="#J" x="49.04031" y="160.03992"/><use xlink:href="#A" x="55.23373" y="160.03992"/><use xlink:href="#K" x="127.73181" y="165.27913"/><use xlink:href="#x" x="135.2062" y="165.27913"/><use xlink:href="#H" x="141.21307" y="165.27913"/><use xlink:href="#u" x="148.28949" y="165.27913"/><use xlink:href="#u" x="152.82884" y="165.27913"/><use xlink:href="#x" x="157.1319" y="165.27913"/><use xlink:href="#y" x="136.1455" y="180.20282"/><use xlink:href="#y" x="142.33892" y="180.20282"/><use xlink:href="#A" x="148.53234" y="180.20282"/></svg>