<?xml version="1.0" encoding="UTF-8"?>
<svg xmlns="http://www.w3.org/2000/svg" xmlns:xlink="http://www.w3.org/1999/xlink" width="425pt" height="333pt" viewBox="0 0 425 333" version="1.2">
<g id="surface1">
<path style="fill-rule:nonzero;fill:rgb(100%,87.098694%,0%);fill-opacity:1;stroke-width:0.09375;stroke-linecap:butt;stroke-linejoin:miter;stroke:rgb(100%,87.098694%,0%);stroke-opacity:1;stroke-miterlimit:10;" d="M 276.128906 333 L 301.050781 333 C 304.378906 332.730469 307.558594 330.300781 308.140625 326.929688 C 308.589844 322.960938 308.25 318.960938 308.328125 314.96875 C 307.949219 309.890625 309.269531 304.46875 307.441406 299.609375 C 304.558594 294.21875 297.78125 295.730469 292.789062 295.589844 C 292.800781 291.320312 292.800781 287.050781 292.789062 282.789062 C 316.71875 279.960938 339.710938 270.300781 358.640625 255.429688 C 360.890625 257.691406 363.140625 259.941406 365.421875 262.171875 C 363.941406 264.171875 362.230469 266.351562 362.519531 269 C 362.550781 272.550781 365.519531 274.839844 367.78125 277.140625 C 370.730469 279.898438 373.328125 283.039062 376.488281 285.570312 C 379.421875 287.890625 383.859375 286.929688 386.320312 284.351562 C 394.199219 276.53125 402.050781 268.660156 409.878906 260.789062 C 412.628906 258.21875 413.238281 253.5 410.550781 250.671875 C 406.75 246.710938 402.859375 242.820312 398.898438 239.011719 C 395.640625 235.929688 390.539062 237.328125 387.660156 240.230469 C 385.761719 238.351562 383.871094 236.46875 381.929688 234.648438 C 381.980469 232.75 382.070312 230.761719 383.488281 229.308594 C 398.488281 209.050781 407.128906 184.300781 408.648438 159.171875 C 408.078125 151.789062 408.660156 144.359375 407.828125 137 C 404.949219 110.25 393.390625 84.589844 375.5 64.53125 C 355.398438 41.761719 327.21875 26.21875 297.160156 21.691406 C 265.308594 16.691406 231.699219 23.859375 204.839844 41.75 C 168.628906 65.261719 144.789062 107.589844 145.648438 151.011719 C 145.648438 153.980469 145.441406 156.949219 145.289062 159.921875 C 147.25 186.398438 156.800781 212.371094 173.410156 233.171875 C 171.070312 235.539062 168.71875 237.898438 166.351562 240.230469 C 164.460938 238.890625 162.53125 237.078125 160.019531 237.308594 C 156.539062 236.890625 154.210938 239.800781 152.019531 241.980469 C 149.089844 245.109375 145.808594 247.910156 143.050781 251.179688 C 140.769531 254.039062 141.570312 258.339844 144.101562 260.761719 C 151.390625 268.171875 158.820312 275.429688 166.109375 282.851562 C 167.96875 284.699219 170.089844 286.910156 172.96875 286.648438 C 177.230469 287 179.738281 283.039062 182.488281 280.5 C 185.191406 277.46875 188.71875 275.070312 190.710938 271.480469 C 192.378906 268.140625 190.351562 264.660156 188.261719 262.070312 C 190.621094 259.800781 192.929688 257.480469 195.230469 255.140625 C 214.300781 270.050781 237.390625 279.789062 261.46875 282.589844 C 261.480469 286.980469 261.480469 291.378906 261.488281 295.769531 C 257.410156 295.988281 252.898438 294.929688 249.179688 297.050781 C 246.820312 298.488281 245.679688 301.238281 245.839844 303.929688 C 245.839844 310.980469 245.820312 318.019531 245.851562 325.070312 C 245.679688 328.519531 248.289062 332.171875 251.851562 332.480469 C 259.941406 332.96875 268.078125 332.011719 276.128906 333 M 261.308594 251.761719 C 228.851562 246.828125 199.679688 224.921875 185.761719 195.210938 C 174.929688 172.710938 173.128906 146.160156 180.339844 122.300781 C 187.21875 99.488281 202.5 79.378906 222.570312 66.558594 C 242.851562 53.421875 268.011719 47.949219 291.910156 51.640625 C 312.078125 54.558594 331.238281 63.921875 346.058594 77.910156 C 362.589844 93.320312 373.820312 114.421875 376.960938 136.828125 C 380.058594 158.53125 376.25 181.261719 365.550781 200.460938 C 353.949219 221.660156 334.519531 238.429688 311.828125 246.75 C 295.769531 252.621094 278.210938 254.609375 261.308594 251.761719 Z M 261.308594 251.761719 " transform="matrix(1,0,0,-1,0,333)"/>
<path style="fill-rule:nonzero;fill:rgb(100%,100%,100%);fill-opacity:1;stroke-width:0.09375;stroke-linecap:butt;stroke-linejoin:miter;stroke:rgb(100%,100%,100%);stroke-opacity:1;stroke-miterlimit:10;" d="M 261.308594 251.761719 C 278.210938 254.609375 295.769531 252.621094 311.828125 246.75 C 334.519531 238.429688 353.949219 221.660156 365.550781 200.460938 C 376.25 181.261719 380.058594 158.53125 376.960938 136.828125 C 373.820312 114.421875 362.589844 93.320312 346.058594 77.910156 C 331.238281 63.921875 312.078125 54.558594 291.910156 51.640625 C 268.011719 47.949219 242.851562 53.421875 222.570312 66.558594 C 202.5 79.378906 187.21875 99.488281 180.339844 122.300781 C 173.128906 146.160156 174.929688 172.710938 185.761719 195.210938 C 199.679688 224.921875 228.851562 246.828125 261.308594 251.761719 M 214.980469 189.109375 C 211.410156 186.941406 210.261719 181.890625 212.261719 178.289062 C 213.730469 175.75 216.550781 174.511719 218.859375 172.871094 C 231.640625 164.390625 244.558594 156.101562 257.230469 147.429688 C 258.25 142.28125 260.871094 137.308594 265.21875 134.21875 C 271.949219 129.078125 282.078125 129.089844 288.808594 134.238281 C 293.078125 137.289062 295.570312 142.179688 296.988281 147.109375 C 298.570312 155.5 293.96875 164.660156 286.238281 168.351562 C 280.890625 171.058594 274.488281 171.078125 268.96875 168.828125 C 253.761719 175.621094 238.628906 182.558594 223.449219 189.410156 C 220.800781 190.800781 217.480469 190.851562 214.980469 189.109375 Z M 214.980469 189.109375 " transform="matrix(1,0,0,-1,0,333)"/>
<path style="fill-rule:nonzero;fill:rgb(96.899414%,57.998657%,11.399841%);fill-opacity:1;stroke-width:0.09375;stroke-linecap:butt;stroke-linejoin:miter;stroke:rgb(96.899414%,57.998657%,11.399841%);stroke-opacity:1;stroke-miterlimit:10;" d="M 4.121094 192.789062 C 6.710938 195.351562 10.371094 196.648438 13.988281 196.5 C 47.988281 196.480469 81.980469 196.5 115.980469 196.488281 C 120.140625 196.449219 124.351562 196.789062 128.46875 195.941406 C 125.121094 187.589844 122.269531 179.019531 120.328125 170.230469 C 84.878906 170.230469 49.429688 170.230469 13.96875 170.21875 C 10.519531 170.039062 7.039062 171.179688 4.46875 173.53125 C -1.058594 178.261719 -1.210938 187.851562 4.121094 192.789062 Z M 4.121094 192.789062 " transform="matrix(1,0,0,-1,0,333)"/>
<path style="fill-rule:nonzero;fill:rgb(100%,87.098694%,0%);fill-opacity:1;stroke-width:0.09375;stroke-linecap:butt;stroke-linejoin:miter;stroke:rgb(100%,87.098694%,0%);stroke-opacity:1;stroke-miterlimit:10;" d="M 214.980469 189.109375 C 217.480469 190.851562 220.800781 190.800781 223.449219 189.410156 C 238.628906 182.558594 253.761719 175.621094 268.96875 168.828125 C 274.488281 171.078125 280.890625 171.058594 286.238281 168.351562 C 293.96875 164.660156 298.570312 155.5 296.988281 147.109375 C 295.570312 142.179688 293.078125 137.289062 288.808594 134.238281 C 282.078125 129.089844 271.949219 129.078125 265.21875 134.21875 C 260.871094 137.308594 258.25 142.28125 257.230469 147.429688 C 244.558594 156.101562 231.640625 164.390625 218.859375 172.871094 C 216.550781 174.511719 213.730469 175.75 212.261719 178.289062 C 210.261719 181.890625 211.410156 186.941406 214.980469 189.109375 M 274.308594 158.671875 C 270.480469 157.488281 267.820312 153.371094 268.378906 149.398438 C 268.859375 145.171875 272.71875 141.699219 276.96875 141.660156 C 281.761719 141.648438 285.988281 146.058594 285.71875 150.851562 C 285.738281 156.378906 279.441406 160.640625 274.308594 158.671875 Z M 274.308594 158.671875 " transform="matrix(1,0,0,-1,0,333)"/>
<path style="fill-rule:nonzero;fill:rgb(96.899414%,57.998657%,11.399841%);fill-opacity:1;stroke-width:0.09375;stroke-linecap:butt;stroke-linejoin:miter;stroke:rgb(96.899414%,57.998657%,11.399841%);stroke-opacity:1;stroke-miterlimit:10;" d="M 153.101562 79.140625 C 142.03125 104.328125 139.28125 133.078125 145.289062 159.921875 C 145.441406 156.949219 145.648438 153.980469 145.648438 151.011719 C 144.789062 107.589844 168.628906 65.261719 204.839844 41.75 C 231.699219 23.859375 265.308594 16.691406 297.160156 21.691406 C 327.21875 26.21875 355.398438 41.761719 375.5 64.53125 C 393.390625 84.589844 404.949219 110.25 407.828125 137 C 408.660156 144.359375 408.078125 151.789062 408.648438 159.171875 L 408.699219 160.058594 C 414.011719 136.199219 412.511719 110.859375 404.339844 87.820312 C 394.199219 58.988281 373.53125 34.078125 347.199219 18.601562 C 324.980469 5.398438 298.820312 -0.878906 273.03125 0.53125 C 250.511719 0.28125 228.058594 6.480469 208.519531 17.601562 C 184.101562 31.480469 164.308594 53.371094 153.101562 79.140625 Z M 153.101562 79.140625 " transform="matrix(1,0,0,-1,0,333)"/>
<path style="fill-rule:nonzero;fill:rgb(100%,100%,100%);fill-opacity:1;stroke-width:0.09375;stroke-linecap:butt;stroke-linejoin:miter;stroke:rgb(100%,100%,100%);stroke-opacity:1;stroke-miterlimit:10;" d="M 274.308594 158.671875 C 279.441406 160.640625 285.738281 156.378906 285.71875 150.851562 C 285.988281 146.058594 281.761719 141.648438 276.96875 141.660156 C 272.71875 141.699219 268.859375 145.171875 268.378906 149.398438 C 267.820312 153.371094 270.480469 157.488281 274.308594 158.671875 Z M 274.308594 158.671875 " transform="matrix(1,0,0,-1,0,333)"/>
<path style="fill-rule:nonzero;fill:rgb(96.899414%,57.998657%,11.399841%);fill-opacity:1;stroke-width:0.09375;stroke-linecap:butt;stroke-linejoin:miter;stroke:rgb(96.899414%,57.998657%,11.399841%);stroke-opacity:1;stroke-miterlimit:10;" d="M 19 137.96875 C 20.21875 143.890625 25.890625 148.5 31.960938 148.28125 C 60.441406 148.261719 88.929688 148.269531 117.410156 148.28125 C 116.761719 139.570312 116.511719 130.851562 117.410156 122.148438 C 88.589844 122.21875 59.78125 122.140625 30.960938 122.191406 C 23.210938 122.128906 17.078125 130.578125 19 137.96875 Z M 19 137.96875 " transform="matrix(1,0,0,-1,0,333)"/>
<path style="fill-rule:nonzero;fill:rgb(96.899414%,57.998657%,11.399841%);fill-opacity:1;stroke-width:0.09375;stroke-linecap:butt;stroke-linejoin:miter;stroke:rgb(96.899414%,57.998657%,11.399841%);stroke-opacity:1;stroke-miterlimit:10;" d="M 41.390625 87.960938 C 41.671875 94.898438 48.171875 100.539062 55.03125 100.308594 C 77.101562 100.378906 99.160156 100.328125 121.230469 100.328125 C 123.179688 91.519531 125.910156 82.859375 129.480469 74.558594 C 127.699219 74.191406 125.898438 73.78125 124.070312 73.808594 C 100.710938 73.871094 77.339844 73.761719 53.980469 73.859375 C 46.820312 74.019531 40.660156 80.78125 41.390625 87.960938 Z M 41.390625 87.960938 " transform="matrix(1,0,0,-1,0,333)"/>
</g>
</svg>
