<?xml version="1.0" encoding="UTF-8"?>
<svg xmlns="http://www.w3.org/2000/svg" xmlns:xlink="http://www.w3.org/1999/xlink" width="1608pt" height="333pt" viewBox="0 0 1608 333" version="1.2">
<g id="surface1">
<path style="fill-rule:nonzero;fill:rgb(100%,87.098694%,0%);fill-opacity:1;stroke-width:0.09375;stroke-linecap:butt;stroke-linejoin:miter;stroke:rgb(100%,87.098694%,0%);stroke-opacity:1;stroke-miterlimit:10;" d="M 245.839844 325.03125 C 245.589844 328.929688 249.011719 332.921875 253.050781 332.558594 C 269.039062 332.589844 285.03125 332.601562 301.011719 332.558594 C 305.011719 332.851562 308.21875 328.828125 308.199219 325.039062 C 308.238281 317.988281 308.21875 310.941406 308.199219 303.890625 C 308.289062 300.5 306.179688 296.980469 302.761719 296.148438 C 299.441406 295.339844 295.960938 295.929688 292.570312 295.761719 C 292.578125 291.371094 292.578125 286.96875 292.578125 282.570312 C 316.609375 279.839844 339.640625 270.070312 358.660156 255.171875 C 360.949219 257.570312 363.289062 259.941406 365.730469 262.199219 C 362.820312 264.898438 361.46875 269.578125 364.050781 272.960938 C 367.660156 277 371.640625 280.699219 375.46875 284.53125 C 378.289062 287.519531 383.648438 287.390625 386.308594 284.238281 C 394.148438 276.398438 401.96875 268.550781 409.820312 260.730469 C 412.730469 258.160156 412.929688 253.398438 410.398438 250.5 C 407.820312 247.640625 404.980469 245.039062 402.261719 242.320312 C 716.488281 242.308594 1030.710938 242.308594 1344.941406 242.320312 C 1356.769531 242.390625 1367.53125 252.199219 1368.851562 263.929688 C 1369.480469 269.558594 1371.730469 275.101562 1375.851562 279.078125 C 1383.128906 286.859375 1395.648438 289.050781 1405.121094 284.160156 C 1409.730469 282.019531 1412.980469 277.988281 1416.769531 274.738281 C 1477.351562 218.339844 1537.980469 161.980469 1598.539062 105.539062 C 1603.871094 100.949219 1607.609375 94.160156 1607.359375 86.988281 C 1607.789062 79.851562 1604.699219 72.679688 1599.511719 67.828125 C 1594.449219 62.640625 1587.019531 60.789062 1579.980469 60.890625 C 1471.660156 60.898438 1363.351562 60.910156 1255.039062 60.699219 C 1196.019531 60.820312 1137.011719 60.398438 1077.988281 60.53125 C 1047.671875 60.75 1017.359375 60.121094 987.050781 60.25 C 909.691406 60.320312 832.328125 60.019531 754.96875 60.128906 C 701.339844 59.519531 647.691406 60.191406 594.050781 59.75 C 520.378906 59.859375 446.710938 59.589844 373.050781 59.578125 C 370.660156 59.78125 369.199219 57.660156 367.601562 56.28125 C 347.859375 37.339844 322.03125 24.949219 294.929688 21.269531 C 263.980469 16.710938 231.511719 24.230469 205.339844 41.261719 C 175.371094 60.511719 153.828125 92.421875 147.480469 127.5 C 145.21875 137.941406 145.339844 148.660156 145.25 159.28125 C 147.109375 185.960938 156.640625 212.210938 173.421875 233.148438 C 171.050781 235.570312 168.660156 237.96875 166.238281 240.328125 C 163.570312 237.109375 158.21875 236.019531 155.019531 239.058594 C 151.160156 242.839844 147.328125 246.660156 143.558594 250.519531 C 140.761719 253.339844 141.308594 258.210938 144.121094 260.808594 C 151.988281 268.679688 159.828125 276.570312 167.730469 284.398438 C 170.429688 287.429688 175.671875 287.441406 178.449219 284.519531 C 182.289062 280.609375 186.328125 276.878906 189.988281 272.808594 C 192.539062 269.398438 190.960938 264.851562 188.191406 262.109375 C 190.589844 259.851562 192.921875 257.519531 195.191406 255.128906 C 214.300781 270.019531 237.378906 279.800781 261.480469 282.601562 C 261.480469 286.988281 261.480469 291.378906 261.488281 295.761719 C 258.289062 295.871094 255.039062 295.488281 251.871094 295.988281 C 248.589844 296.558594 245.808594 299.570312 245.871094 302.96875 C 245.800781 310.320312 245.859375 317.671875 245.839844 325.03125 M 269.300781 252.648438 C 242.871094 250.800781 217.46875 237.78125 200.351562 217.589844 C 184.78125 199.578125 175.839844 175.859375 176.070312 152.011719 C 175.761719 129.078125 183.878906 106.230469 198.28125 88.410156 C 213.300781 69.609375 235.210938 56.429688 258.910156 52.179688 C 278.898438 48.5 299.96875 50.988281 318.511719 59.339844 C 341.691406 69.648438 360.648438 89.050781 370.46875 112.429688 C 378.960938 132.378906 380.640625 155.089844 375.449219 176.109375 C 369.390625 200.910156 353.46875 223.101562 331.96875 236.859375 C 313.578125 248.898438 291.191406 254.351562 269.300781 252.648438 M 455.339844 189.308594 C 448.449219 188.488281 441.46875 186.359375 436.160156 181.71875 C 431.058594 177.191406 428.28125 170.601562 427.148438 163.980469 C 425.390625 153.960938 423.710938 143.921875 421.921875 133.898438 C 420.671875 127.601562 419.679688 120.699219 422.828125 114.761719 C 426.980469 106.121094 436.921875 102.21875 446.019531 101.890625 C 455.941406 101.589844 466.660156 102.21875 475.160156 107.910156 C 481.621094 112.160156 485.109375 119.640625 486.390625 127.058594 C 488.460938 139.359375 490.808594 151.609375 492.738281 163.929688 C 493.839844 171.359375 490.488281 179.039062 484.511719 183.53125 C 476.308594 189.941406 465.261719 190.238281 455.339844 189.308594 M 662.46875 185.519531 C 656.28125 181.109375 654.859375 173.050781 653.421875 166.089844 C 652.351562 159.378906 651.359375 151.078125 656.890625 145.949219 C 663.871094 139.28125 674.21875 139.449219 682.570312 135.53125 C 685.628906 134.261719 685.019531 130.539062 684.71875 127.910156 C 684.359375 124 682.671875 119.300781 678.320312 118.429688 C 668.070312 117.039062 657.679688 118.671875 647.941406 122 C 646.179688 117.320312 645.230469 112.390625 643.539062 107.691406 C 647.039062 105.589844 651.078125 104.710938 655 103.730469 C 666.46875 101.28125 678.980469 100.609375 690.070312 104.96875 C 698.699219 108.390625 701.96875 117.980469 703.339844 126.398438 C 704.328125 132.839844 705.910156 140.71875 700.960938 145.988281 C 694.601562 152.058594 685.421875 153.03125 677.359375 155.480469 C 675.058594 156.25 671.871094 157.058594 671.570312 159.949219 C 671.53125 163.269531 671.980469 166.671875 673.261719 169.75 C 674.710938 173.109375 678.921875 173.238281 682.050781 173.441406 C 690.53125 173.511719 699.019531 172.351562 707.269531 170.398438 C 708.488281 175.699219 709.480469 181.039062 710.710938 186.339844 C 701.96875 188.410156 692.988281 189.851562 683.980469 189.609375 C 676.710938 189.570312 668.808594 189.589844 662.46875 185.519531 M 851.46875 189.328125 C 844.339844 188.488281 837.078125 186.261719 831.699219 181.308594 C 826.609375 176.550781 824.011719 169.75 822.949219 162.988281 C 821.101562 152.160156 819.238281 141.328125 817.320312 130.511719 C 816.121094 124.609375 816.441406 118.128906 819.820312 112.960938 C 824.671875 105.160156 834.261719 102.039062 843.039062 101.828125 C 852.628906 101.699219 862.949219 102.371094 871.148438 107.910156 C 877.621094 112.160156 881.109375 119.671875 882.390625 127.109375 C 884.46875 139.378906 886.78125 151.609375 888.730469 163.898438 C 889.890625 171.601562 886.230469 179.511719 879.929688 183.96875 C 871.78125 189.941406 861.140625 190.210938 851.46875 189.328125 M 997.28125 184.710938 C 991.941406 180.039062 990.679688 172.601562 989.28125 166.011719 C 988.269531 159.480469 987.25 151.511719 992.378906 146.359375 C 998.558594 140.121094 1007.789062 139.410156 1015.710938 136.71875 C 1017.851562 135.910156 1020.828125 134.828125 1020.871094 132.070312 C 1020.871094 128.230469 1020.429688 124.039062 1018.128906 120.828125 C 1014.898438 117.03125 1009.410156 118.28125 1005.03125 118.039062 C 997.648438 117.660156 990.648438 120.261719 983.570312 121.851562 C 982.230469 117.089844 980.96875 112.308594 979.441406 107.609375 C 983.199219 105.53125 987.421875 104.570312 991.570312 103.570312 C 1002.871094 101.261719 1015.148438 100.710938 1026.039062 105.011719 C 1034.871094 108.570312 1038 118.488281 1039.339844 127.089844 C 1040.269531 133.511719 1041.699219 141.46875 1036.398438 146.429688 C 1029.019531 153.011719 1018.558594 153.089844 1009.839844 156.789062 C 1006.46875 158.171875 1007.460938 162.308594 1007.839844 165.109375 C 1008.210938 168.578125 1009.828125 172.71875 1013.878906 172.988281 C 1023.679688 174.289062 1033.609375 172.378906 1043.21875 170.46875 C 1044.339844 175.75 1045.371094 181.058594 1046.621094 186.320312 C 1037.570312 188.519531 1028.261719 189.898438 1018.929688 189.601562 C 1011.570312 189.539062 1003.371094 189.441406 997.28125 184.710938 M 1301.089844 186.03125 C 1294.371094 182 1292.839844 173.589844 1291.320312 166.539062 C 1290.238281 159.851562 1289.070312 151.679688 1294.308594 146.359375 C 1300.691406 139.921875 1310.269531 139.410156 1318.378906 136.449219 C 1320.738281 135.699219 1323.371094 133.871094 1322.859375 131.019531 C 1322.539062 126.761719 1322.078125 121.410156 1317.929688 119.089844 C 1314.21875 117.421875 1309.988281 118.238281 1306.058594 118.050781 C 1299 117.820312 1292.308594 120.320312 1285.539062 121.871094 C 1284.140625 117.109375 1282.910156 112.308594 1281.378906 107.589844 C 1293 102.230469 1306.300781 100.878906 1318.929688 102.519531 C 1325.71875 103.378906 1332.929688 106.230469 1336.519531 112.421875 C 1340.121094 118.648438 1341.300781 125.929688 1342.03125 132.988281 C 1342.558594 137.878906 1341.980469 143.550781 1337.878906 146.851562 C 1330.46875 153.011719 1320.328125 153.171875 1311.78125 156.789062 C 1308.421875 158.140625 1309.410156 162.261719 1309.75 165.050781 C 1310.109375 168.570312 1311.800781 172.738281 1315.890625 173.011719 C 1325.671875 174.261719 1335.578125 172.429688 1345.148438 170.441406 C 1346.179688 175.808594 1347.550781 181.121094 1348.421875 186.53125 C 1340.339844 188.058594 1332.210938 189.75 1323.949219 189.609375 C 1316.261719 189.578125 1308.019531 189.910156 1301.089844 186.03125 M 511.421875 188.101562 C 508.230469 169.578125 505 151.070312 501.71875 132.558594 C 500.371094 126.179688 499.601562 118.988281 503.191406 113.160156 C 507.609375 105.621094 516.660156 102.449219 524.980469 101.960938 C 535.101562 101.410156 546.210938 102.078125 554.679688 108.289062 C 561.171875 113.058594 564.011719 121.070312 565.21875 128.738281 C 568.679688 148.519531 572.078125 168.308594 575.628906 188.078125 C 569.328125 188.261719 563.039062 188.128906 556.738281 188.171875 C 553.011719 168.421875 549.78125 148.570312 546.171875 128.800781 C 545.449219 124.621094 542.648438 120.640625 538.398438 119.53125 C 533.398438 118.191406 527.71875 117.910156 522.949219 120.148438 C 519.441406 122.109375 519.539062 126.71875 520.230469 130.148438 C 523.558594 149.488281 527.039062 168.808594 530.410156 188.148438 C 524.078125 188.160156 517.75 188.21875 511.421875 188.101562 M 592.21875 188.300781 C 587.269531 159.910156 582.21875 131.539062 577.320312 103.140625 C 587.191406 102.660156 597.089844 103.039062 606.96875 102.921875 C 614.941406 103.050781 622.929688 102.609375 630.890625 103.230469 C 631.738281 108.800781 632.859375 114.328125 633.671875 119.910156 C 622.179688 120.441406 610.660156 119.941406 599.160156 120.160156 C 600.210938 126.421875 601.328125 132.671875 602.488281 138.910156 C 613.140625 139.121094 623.808594 138.570312 634.449219 139.328125 C 635.519531 144.679688 636.308594 150.089844 637.429688 155.429688 C 626.78125 155.929688 616.101562 155.480469 605.441406 155.648438 C 606.410156 160.949219 607.210938 166.269531 608.300781 171.550781 C 619.871094 171.511719 631.441406 171.390625 643.011719 171.601562 C 643.621094 177.238281 645.019531 182.75 645.71875 188.371094 C 627.890625 188.308594 610.050781 188.460938 592.21875 188.300781 M 719.78125 188.371094 C 718.609375 182.800781 717.820312 177.171875 716.75 171.578125 C 724.371094 171.390625 732 171.558594 739.640625 171.5 C 735.730469 148.75 731.578125 126.050781 727.769531 103.289062 C 734.128906 103.320312 740.488281 103.25 746.851562 103.328125 C 750.710938 126.039062 754.761719 148.71875 758.730469 171.398438 C 766.390625 171.691406 774.050781 171.289062 781.710938 171.609375 C 782.648438 177.199219 783.679688 182.769531 784.570312 188.359375 C 762.96875 188.371094 741.378906 188.359375 719.78125 188.371094 M 793.761719 188.179688 C 788.578125 159.929688 783.808594 131.601562 778.769531 103.320312 C 785.089844 103.289062 791.421875 103.261719 797.75 103.328125 C 802.710938 131.550781 807.578125 159.789062 812.660156 188 C 806.359375 188.359375 800.058594 188.070312 793.761719 188.179688 M 908.289062 188.078125 C 903.28125 159.828125 898.390625 131.558594 893.371094 103.308594 C 899.550781 103.289062 905.730469 103.269531 911.910156 103.320312 C 915.339844 122.21875 918.46875 141.171875 921.78125 160.089844 C 922.351562 159.191406 922.871094 158.261719 923.210938 157.21875 C 928.910156 139.25 934.960938 121.390625 940.628906 103.398438 C 948.449219 103.179688 956.269531 103.308594 964.089844 103.328125 C 968.898438 131.621094 974.058594 159.851562 978.871094 188.128906 C 972.730469 188.179688 966.578125 188.210938 960.441406 188.109375 C 957.238281 169.578125 953.910156 151.058594 950.710938 132.53125 C 950.449219 131.078125 949.941406 129.699219 949.460938 128.320312 C 943.210938 148.238281 937.570312 168.359375 931.148438 188.210938 C 923.53125 188.070312 915.910156 188.289062 908.289062 188.078125 M 1087.199219 188.308594 C 1082.261719 159.960938 1077.25 131.628906 1072.300781 103.300781 C 1078.589844 103.28125 1084.878906 103.320312 1091.179688 103.269531 C 1093.261719 114.261719 1095.019531 125.308594 1096.96875 136.320312 C 1107.78125 136.488281 1118.601562 136.28125 1129.429688 136.421875 C 1130.460938 141.871094 1131.421875 147.339844 1132.320312 152.820312 C 1121.550781 152.871094 1110.769531 152.660156 1100.011719 152.921875 C 1100.910156 159.109375 1102.210938 165.230469 1103.101562 171.421875 C 1114.828125 171.628906 1126.558594 171.398438 1138.289062 171.53125 C 1139.339844 177.128906 1140.339844 182.738281 1141.300781 188.351562 C 1123.269531 188.351562 1105.230469 188.429688 1087.199219 188.308594 M 1152.898438 188.128906 C 1148.171875 159.71875 1142.671875 131.421875 1138.21875 102.96875 C 1155.800781 103.058594 1173.421875 102.53125 1190.988281 103.25 C 1191.851562 108.839844 1193.019531 114.371094 1193.738281 119.980469 C 1182.511719 120.339844 1171.261719 119.988281 1160.03125 120.160156 C 1163.679688 142.859375 1168.039062 165.460938 1171.878906 188.128906 C 1165.550781 188.191406 1159.21875 188.191406 1152.898438 188.128906 M 1236.101562 188.140625 C 1222.589844 159.839844 1208.839844 131.648438 1195.46875 103.289062 C 1202.261719 103.300781 1209.058594 103.269531 1215.871094 103.308594 C 1218.789062 108.800781 1220.5 115.050781 1223.96875 120.148438 C 1233.351562 120.410156 1242.761719 120.269531 1252.160156 120.199219 C 1252.78125 114.570312 1253.351562 108.941406 1254 103.308594 C 1260.640625 103.28125 1267.28125 103.300781 1273.929688 103.289062 C 1270.238281 131.609375 1265.851562 159.828125 1262.019531 188.128906 C 1253.371094 188.199219 1244.730469 188.179688 1236.101562 188.140625 M 1365.789062 188.128906 C 1360.929688 159.851562 1355.679688 131.621094 1351.039062 103.300781 C 1357.320312 103.300781 1363.609375 103.261719 1369.898438 103.328125 C 1371.921875 114.808594 1373.710938 126.339844 1375.96875 137.769531 C 1384.871094 137.679688 1393.78125 137.78125 1402.691406 137.710938 C 1400.730469 126.230469 1398.671875 114.769531 1396.730469 103.289062 C 1403.050781 103.308594 1409.359375 103.261719 1415.679688 103.320312 C 1420.648438 131.601562 1425.640625 159.871094 1430.558594 188.148438 C 1424.210938 188.078125 1417.859375 188.398438 1411.519531 187.96875 C 1409.679688 176.691406 1407.550781 165.46875 1405.648438 154.199219 C 1396.738281 154.21875 1387.839844 154.210938 1378.941406 154.210938 C 1380.519531 165.578125 1382.949219 176.808594 1384.710938 188.148438 C 1378.390625 188.171875 1372.089844 188.199219 1365.789062 188.128906 M 435.148438 96.359375 C 434.171875 91.570312 433.121094 86.800781 432.191406 82 C 444.128906 81.160156 456 79.5 467.71875 77.078125 C 468.859375 81.730469 470.160156 86.351562 471.160156 91.039062 C 470.449219 92.238281 468.570312 91.980469 467.378906 92.488281 C 456.789062 94.761719 446 96.320312 435.148438 96.359375 Z M 435.148438 96.359375 " transform="matrix(1,0,0,-1,0,333)"/>
<path style="fill-rule:nonzero;fill:rgb(100%,100%,100%);fill-opacity:1;stroke-width:0.09375;stroke-linecap:butt;stroke-linejoin:miter;stroke:rgb(100%,100%,100%);stroke-opacity:1;stroke-miterlimit:10;" d="M 269.300781 252.648438 C 291.191406 254.351562 313.578125 248.898438 331.96875 236.859375 C 353.46875 223.101562 369.390625 200.910156 375.449219 176.109375 C 380.640625 155.089844 378.960938 132.378906 370.46875 112.429688 C 360.648438 89.050781 341.691406 69.648438 318.511719 59.339844 C 299.96875 50.988281 278.898438 48.5 258.910156 52.179688 C 235.210938 56.429688 213.300781 69.609375 198.28125 88.410156 C 183.878906 106.230469 175.761719 129.078125 176.070312 152.011719 C 175.839844 175.859375 184.78125 199.578125 200.351562 217.589844 C 217.46875 237.78125 242.871094 250.800781 269.300781 252.648438 M 215.410156 189.371094 C 211.5 187.328125 210.128906 181.941406 212.320312 178.191406 C 213.789062 175.71875 216.550781 174.519531 218.800781 172.910156 C 231.609375 164.398438 244.558594 156.109375 257.238281 147.421875 C 258.238281 142.261719 260.890625 137.289062 265.238281 134.210938 C 272.558594 128.648438 283.800781 129.140625 290.558594 135.398438 C 296.140625 140.25 298.621094 148.390625 296.609375 155.511719 C 295 162.039062 289.839844 167.488281 283.441406 169.519531 C 278.730469 171.210938 273.578125 170.578125 268.988281 168.828125 C 253.820312 175.589844 238.71875 182.519531 223.578125 189.351562 C 221.050781 190.671875 217.890625 190.929688 215.410156 189.371094 Z M 215.410156 189.371094 " transform="matrix(1,0,0,-1,0,333)"/>
<path style="fill-rule:nonzero;fill:rgb(96.899414%,57.998657%,11.399841%);fill-opacity:1;stroke-width:0.09375;stroke-linecap:butt;stroke-linejoin:miter;stroke:rgb(96.899414%,57.998657%,11.399841%);stroke-opacity:1;stroke-miterlimit:10;" d="M 4.179688 192.839844 C 6.761719 195.359375 10.371094 196.640625 13.949219 196.5 C 48.300781 196.480469 82.660156 196.5 117.011719 196.488281 C 120.828125 196.46875 124.699219 196.761719 128.46875 195.910156 C 125.101562 187.570312 122.269531 179.011719 120.328125 170.21875 C 84.851562 170.230469 49.378906 170.21875 13.910156 170.21875 C 10.46875 170.050781 7.011719 171.199219 4.449219 173.539062 C -1.089844 178.300781 -1.199219 187.929688 4.179688 192.839844 Z M 4.179688 192.839844 " transform="matrix(1,0,0,-1,0,333)"/>
<path style="fill-rule:nonzero;fill:rgb(100%,87.098694%,0%);fill-opacity:1;stroke-width:0.09375;stroke-linecap:butt;stroke-linejoin:miter;stroke:rgb(100%,87.098694%,0%);stroke-opacity:1;stroke-miterlimit:10;" d="M 215.410156 189.371094 C 217.890625 190.929688 221.050781 190.671875 223.578125 189.351562 C 238.71875 182.519531 253.820312 175.589844 268.988281 168.828125 C 273.578125 170.578125 278.730469 171.210938 283.441406 169.519531 C 289.839844 167.488281 295 162.039062 296.609375 155.511719 C 298.621094 148.390625 296.140625 140.25 290.558594 135.398438 C 283.800781 129.140625 272.558594 128.648438 265.238281 134.210938 C 260.890625 137.289062 258.238281 142.261719 257.238281 147.421875 C 244.558594 156.109375 231.609375 164.398438 218.800781 172.910156 C 216.550781 174.519531 213.789062 175.71875 212.320312 178.191406 C 210.128906 181.941406 211.5 187.328125 215.410156 189.371094 M 274.300781 158.660156 C 269.070312 157.148438 266.519531 150.210938 269.738281 145.738281 C 273.300781 139.53125 284.25 141.191406 285.53125 148.390625 C 287.351562 154.710938 280.410156 161.058594 274.300781 158.660156 Z M 274.300781 158.660156 " transform="matrix(1,0,0,-1,0,333)"/>
<path style="fill-rule:nonzero;fill:rgb(94.099426%,47.099304%,18.798828%);fill-opacity:1;stroke-width:0.09375;stroke-linecap:butt;stroke-linejoin:miter;stroke:rgb(94.099426%,47.099304%,18.798828%);stroke-opacity:1;stroke-miterlimit:10;" d="M 455.339844 189.308594 C 465.261719 190.238281 476.308594 189.941406 484.511719 183.53125 C 490.488281 179.039062 493.839844 171.359375 492.738281 163.929688 C 490.808594 151.609375 488.460938 139.359375 486.390625 127.058594 C 485.109375 119.640625 481.621094 112.160156 475.160156 107.910156 C 466.660156 102.21875 455.941406 101.589844 446.019531 101.890625 C 436.921875 102.21875 426.980469 106.121094 422.828125 114.761719 C 419.679688 120.699219 420.671875 127.601562 421.921875 133.898438 C 423.710938 143.921875 425.390625 153.960938 427.148438 163.980469 C 428.28125 170.601562 431.058594 177.191406 436.160156 181.71875 C 441.46875 186.359375 448.449219 188.488281 455.339844 189.308594 M 456.5 172.460938 C 451.21875 171.621094 446.488281 167.46875 445.761719 162.039062 C 443.871094 151.589844 442.058594 141.121094 440.238281 130.648438 C 439.71875 127.621094 439.199219 124.011719 441.488281 121.53125 C 443.980469 119.101562 447.699219 118.75 451 118.539062 C 455.898438 118.488281 461.488281 119.121094 464.960938 122.988281 C 467.441406 125.621094 467.828125 129.390625 468.488281 132.78125 C 470.140625 142.570312 471.921875 152.339844 473.601562 162.128906 C 474.199219 165.238281 473.730469 169.109375 470.75 170.859375 C 466.5 173.421875 461.21875 172.960938 456.5 172.460938 Z M 456.5 172.460938 " transform="matrix(1,0,0,-1,0,333)"/>
<path style="fill-rule:nonzero;fill:rgb(94.099426%,47.099304%,18.798828%);fill-opacity:1;stroke-width:0.09375;stroke-linecap:butt;stroke-linejoin:miter;stroke:rgb(94.099426%,47.099304%,18.798828%);stroke-opacity:1;stroke-miterlimit:10;" d="M 662.46875 185.519531 C 668.808594 189.589844 676.710938 189.570312 683.980469 189.609375 C 692.988281 189.851562 701.96875 188.410156 710.710938 186.339844 C 709.480469 181.039062 708.488281 175.699219 707.269531 170.398438 C 699.019531 172.351562 690.53125 173.511719 682.050781 173.441406 C 678.921875 173.238281 674.710938 173.109375 673.261719 169.75 C 671.980469 166.671875 671.53125 163.269531 671.570312 159.949219 C 671.871094 157.058594 675.058594 156.25 677.359375 155.480469 C 685.421875 153.03125 694.601562 152.058594 700.960938 145.988281 C 705.910156 140.71875 704.328125 132.839844 703.339844 126.398438 C 701.96875 117.980469 698.699219 108.390625 690.070312 104.96875 C 678.980469 100.609375 666.46875 101.28125 655 103.730469 C 651.078125 104.710938 647.039062 105.589844 643.539062 107.691406 C 645.230469 112.390625 646.179688 117.320312 647.941406 122 C 657.679688 118.671875 668.070312 117.039062 678.320312 118.429688 C 682.671875 119.300781 684.359375 124 684.71875 127.910156 C 685.019531 130.539062 685.628906 134.261719 682.570312 135.53125 C 674.21875 139.449219 663.871094 139.28125 656.890625 145.949219 C 651.359375 151.078125 652.351562 159.378906 653.421875 166.089844 C 654.859375 173.050781 656.28125 181.109375 662.46875 185.519531 Z M 662.46875 185.519531 " transform="matrix(1,0,0,-1,0,333)"/>
<path style="fill-rule:nonzero;fill:rgb(94.099426%,47.099304%,18.798828%);fill-opacity:1;stroke-width:0.09375;stroke-linecap:butt;stroke-linejoin:miter;stroke:rgb(94.099426%,47.099304%,18.798828%);stroke-opacity:1;stroke-miterlimit:10;" d="M 851.46875 189.328125 C 861.140625 190.210938 871.78125 189.941406 879.929688 183.96875 C 886.230469 179.511719 889.890625 171.601562 888.730469 163.898438 C 886.78125 151.609375 884.46875 139.378906 882.390625 127.109375 C 881.109375 119.671875 877.621094 112.160156 871.148438 107.910156 C 862.949219 102.371094 852.628906 101.699219 843.039062 101.828125 C 834.261719 102.039062 824.671875 105.160156 819.820312 112.960938 C 816.441406 118.128906 816.121094 124.609375 817.320312 130.511719 C 819.238281 141.328125 821.101562 152.160156 822.949219 162.988281 C 824.011719 169.75 826.609375 176.550781 831.699219 181.308594 C 837.078125 186.261719 844.339844 188.488281 851.46875 189.328125 M 852.429688 172.449219 C 847.550781 171.609375 843.011719 168.039062 841.980469 163.050781 C 839.980469 152.769531 838.339844 142.410156 836.460938 132.101562 C 835.988281 128.800781 834.941406 125.058594 837.019531 122.089844 C 839.371094 119.121094 843.539062 118.769531 847.039062 118.539062 C 851.738281 118.511719 857.039062 119.058594 860.539062 122.558594 C 863.25 125.109375 863.78125 128.96875 864.421875 132.441406 C 866.089844 142.328125 867.871094 152.210938 869.589844 162.089844 C 870.191406 165.199219 869.75 169.058594 866.78125 170.839844 C 862.511719 173.441406 857.179688 172.960938 852.429688 172.449219 Z M 852.429688 172.449219 " transform="matrix(1,0,0,-1,0,333)"/>
<path style="fill-rule:nonzero;fill:rgb(94.099426%,47.099304%,18.798828%);fill-opacity:1;stroke-width:0.09375;stroke-linecap:butt;stroke-linejoin:miter;stroke:rgb(94.099426%,47.099304%,18.798828%);stroke-opacity:1;stroke-miterlimit:10;" d="M 997.28125 184.710938 C 1003.371094 189.441406 1011.570312 189.539062 1018.929688 189.601562 C 1028.261719 189.898438 1037.570312 188.519531 1046.621094 186.320312 C 1045.371094 181.058594 1044.339844 175.75 1043.21875 170.46875 C 1033.609375 172.378906 1023.679688 174.289062 1013.878906 172.988281 C 1009.828125 172.71875 1008.210938 168.578125 1007.839844 165.109375 C 1007.460938 162.308594 1006.46875 158.171875 1009.839844 156.789062 C 1018.558594 153.089844 1029.019531 153.011719 1036.398438 146.429688 C 1041.699219 141.46875 1040.269531 133.511719 1039.339844 127.089844 C 1038 118.488281 1034.871094 108.570312 1026.039062 105.011719 C 1015.148438 100.710938 1002.871094 101.261719 991.570312 103.570312 C 987.421875 104.570312 983.199219 105.53125 979.441406 107.609375 C 980.96875 112.308594 982.230469 117.089844 983.570312 121.851562 C 990.648438 120.261719 997.648438 117.660156 1005.03125 118.039062 C 1009.410156 118.28125 1014.898438 117.03125 1018.128906 120.828125 C 1020.429688 124.039062 1020.871094 128.230469 1020.871094 132.070312 C 1020.828125 134.828125 1017.851562 135.910156 1015.710938 136.71875 C 1007.789062 139.410156 998.558594 140.121094 992.378906 146.359375 C 987.25 151.511719 988.269531 159.480469 989.28125 166.011719 C 990.679688 172.601562 991.941406 180.039062 997.28125 184.710938 Z M 997.28125 184.710938 " transform="matrix(1,0,0,-1,0,333)"/>
<path style="fill-rule:nonzero;fill:rgb(94.099426%,47.099304%,18.798828%);fill-opacity:1;stroke-width:0.09375;stroke-linecap:butt;stroke-linejoin:miter;stroke:rgb(94.099426%,47.099304%,18.798828%);stroke-opacity:1;stroke-miterlimit:10;" d="M 1301.089844 186.03125 C 1308.019531 189.910156 1316.261719 189.578125 1323.949219 189.609375 C 1332.210938 189.75 1340.339844 188.058594 1348.421875 186.53125 C 1347.550781 181.121094 1346.179688 175.808594 1345.148438 170.441406 C 1335.578125 172.429688 1325.671875 174.261719 1315.890625 173.011719 C 1311.800781 172.738281 1310.109375 168.570312 1309.75 165.050781 C 1309.410156 162.261719 1308.421875 158.140625 1311.78125 156.789062 C 1320.328125 153.171875 1330.46875 153.011719 1337.878906 146.851562 C 1341.980469 143.550781 1342.558594 137.878906 1342.03125 132.988281 C 1341.300781 125.929688 1340.121094 118.648438 1336.519531 112.421875 C 1332.929688 106.230469 1325.71875 103.378906 1318.929688 102.519531 C 1306.300781 100.878906 1293 102.230469 1281.378906 107.589844 C 1282.910156 112.308594 1284.140625 117.109375 1285.539062 121.871094 C 1292.308594 120.320312 1299 117.820312 1306.058594 118.050781 C 1309.988281 118.238281 1314.21875 117.421875 1317.929688 119.089844 C 1322.078125 121.410156 1322.539062 126.761719 1322.859375 131.019531 C 1323.371094 133.871094 1320.738281 135.699219 1318.378906 136.449219 C 1310.269531 139.410156 1300.691406 139.921875 1294.308594 146.359375 C 1289.070312 151.679688 1290.238281 159.851562 1291.320312 166.539062 C 1292.839844 173.589844 1294.371094 182 1301.089844 186.03125 Z M 1301.089844 186.03125 " transform="matrix(1,0,0,-1,0,333)"/>
<path style="fill-rule:nonzero;fill:rgb(94.099426%,47.099304%,18.798828%);fill-opacity:1;stroke-width:0.09375;stroke-linecap:butt;stroke-linejoin:miter;stroke:rgb(94.099426%,47.099304%,18.798828%);stroke-opacity:1;stroke-miterlimit:10;" d="M 511.421875 188.101562 C 517.75 188.21875 524.078125 188.160156 530.410156 188.148438 C 527.039062 168.808594 523.558594 149.488281 520.230469 130.148438 C 519.539062 126.71875 519.441406 122.109375 522.949219 120.148438 C 527.71875 117.910156 533.398438 118.191406 538.398438 119.53125 C 542.648438 120.640625 545.449219 124.621094 546.171875 128.800781 C 549.78125 148.570312 553.011719 168.421875 556.738281 188.171875 C 563.039062 188.128906 569.328125 188.261719 575.628906 188.078125 C 572.078125 168.308594 568.679688 148.519531 565.21875 128.738281 C 564.011719 121.070312 561.171875 113.058594 554.679688 108.289062 C 546.210938 102.078125 535.101562 101.410156 524.980469 101.960938 C 516.660156 102.449219 507.609375 105.621094 503.191406 113.160156 C 499.601562 118.988281 500.371094 126.179688 501.71875 132.558594 C 505 151.070312 508.230469 169.578125 511.421875 188.101562 Z M 511.421875 188.101562 " transform="matrix(1,0,0,-1,0,333)"/>
<path style="fill-rule:nonzero;fill:rgb(94.099426%,47.099304%,18.798828%);fill-opacity:1;stroke-width:0.09375;stroke-linecap:butt;stroke-linejoin:miter;stroke:rgb(94.099426%,47.099304%,18.798828%);stroke-opacity:1;stroke-miterlimit:10;" d="M 592.21875 188.300781 C 610.050781 188.460938 627.890625 188.308594 645.71875 188.371094 C 645.019531 182.75 643.621094 177.238281 643.011719 171.601562 C 631.441406 171.390625 619.871094 171.511719 608.300781 171.550781 C 607.210938 166.269531 606.410156 160.949219 605.441406 155.648438 C 616.101562 155.480469 626.78125 155.929688 637.429688 155.429688 C 636.308594 150.089844 635.519531 144.679688 634.449219 139.328125 C 623.808594 138.570312 613.140625 139.121094 602.488281 138.910156 C 601.328125 132.671875 600.210938 126.421875 599.160156 120.160156 C 610.660156 119.941406 622.179688 120.441406 633.671875 119.910156 C 632.859375 114.328125 631.738281 108.800781 630.890625 103.230469 C 622.929688 102.609375 614.941406 103.050781 606.96875 102.921875 C 597.089844 103.039062 587.191406 102.660156 577.320312 103.140625 C 582.21875 131.539062 587.269531 159.910156 592.21875 188.300781 Z M 592.21875 188.300781 " transform="matrix(1,0,0,-1,0,333)"/>
<path style="fill-rule:nonzero;fill:rgb(94.099426%,47.099304%,18.798828%);fill-opacity:1;stroke-width:0.09375;stroke-linecap:butt;stroke-linejoin:miter;stroke:rgb(94.099426%,47.099304%,18.798828%);stroke-opacity:1;stroke-miterlimit:10;" d="M 719.78125 188.371094 C 741.378906 188.359375 762.96875 188.371094 784.570312 188.359375 C 783.679688 182.769531 782.648438 177.199219 781.710938 171.609375 C 774.050781 171.289062 766.390625 171.691406 758.730469 171.398438 C 754.761719 148.71875 750.710938 126.039062 746.851562 103.328125 C 740.488281 103.25 734.128906 103.320312 727.769531 103.289062 C 731.578125 126.050781 735.730469 148.75 739.640625 171.5 C 732 171.558594 724.371094 171.390625 716.75 171.578125 C 717.820312 177.171875 718.609375 182.800781 719.78125 188.371094 Z M 719.78125 188.371094 " transform="matrix(1,0,0,-1,0,333)"/>
<path style="fill-rule:nonzero;fill:rgb(94.099426%,47.099304%,18.798828%);fill-opacity:1;stroke-width:0.09375;stroke-linecap:butt;stroke-linejoin:miter;stroke:rgb(94.099426%,47.099304%,18.798828%);stroke-opacity:1;stroke-miterlimit:10;" d="M 793.761719 188.179688 C 800.058594 188.070312 806.359375 188.359375 812.660156 188 C 807.578125 159.789062 802.710938 131.550781 797.75 103.328125 C 791.421875 103.261719 785.089844 103.289062 778.769531 103.320312 C 783.808594 131.601562 788.578125 159.929688 793.761719 188.179688 Z M 793.761719 188.179688 " transform="matrix(1,0,0,-1,0,333)"/>
<path style="fill-rule:nonzero;fill:rgb(94.099426%,47.099304%,18.798828%);fill-opacity:1;stroke-width:0.09375;stroke-linecap:butt;stroke-linejoin:miter;stroke:rgb(94.099426%,47.099304%,18.798828%);stroke-opacity:1;stroke-miterlimit:10;" d="M 908.289062 188.078125 C 915.910156 188.289062 923.53125 188.070312 931.148438 188.210938 C 937.570312 168.359375 943.210938 148.238281 949.460938 128.320312 C 949.941406 129.699219 950.449219 131.078125 950.710938 132.53125 C 953.910156 151.058594 957.238281 169.578125 960.441406 188.109375 C 966.578125 188.210938 972.730469 188.179688 978.871094 188.128906 C 974.058594 159.851562 968.898438 131.621094 964.089844 103.328125 C 956.269531 103.308594 948.449219 103.179688 940.628906 103.398438 C 934.960938 121.390625 928.910156 139.25 923.210938 157.21875 C 922.871094 158.261719 922.351562 159.191406 921.78125 160.089844 C 918.46875 141.171875 915.339844 122.21875 911.910156 103.320312 C 905.730469 103.269531 899.550781 103.289062 893.371094 103.308594 C 898.390625 131.558594 903.28125 159.828125 908.289062 188.078125 Z M 908.289062 188.078125 " transform="matrix(1,0,0,-1,0,333)"/>
<path style="fill-rule:nonzero;fill:rgb(94.099426%,47.099304%,18.798828%);fill-opacity:1;stroke-width:0.09375;stroke-linecap:butt;stroke-linejoin:miter;stroke:rgb(94.099426%,47.099304%,18.798828%);stroke-opacity:1;stroke-miterlimit:10;" d="M 1087.199219 188.308594 C 1105.230469 188.429688 1123.269531 188.351562 1141.300781 188.351562 C 1140.339844 182.738281 1139.339844 177.128906 1138.289062 171.53125 C 1126.558594 171.398438 1114.828125 171.628906 1103.101562 171.421875 C 1102.210938 165.230469 1100.910156 159.109375 1100.011719 152.921875 C 1110.769531 152.660156 1121.550781 152.871094 1132.320312 152.820312 C 1131.421875 147.339844 1130.460938 141.871094 1129.429688 136.421875 C 1118.601562 136.28125 1107.78125 136.488281 1096.96875 136.320312 C 1095.019531 125.308594 1093.261719 114.261719 1091.179688 103.269531 C 1084.878906 103.320312 1078.589844 103.28125 1072.300781 103.300781 C 1077.25 131.628906 1082.261719 159.960938 1087.199219 188.308594 Z M 1087.199219 188.308594 " transform="matrix(1,0,0,-1,0,333)"/>
<path style="fill-rule:nonzero;fill:rgb(94.099426%,47.099304%,18.798828%);fill-opacity:1;stroke-width:0.09375;stroke-linecap:butt;stroke-linejoin:miter;stroke:rgb(94.099426%,47.099304%,18.798828%);stroke-opacity:1;stroke-miterlimit:10;" d="M 1152.898438 188.128906 C 1159.21875 188.191406 1165.550781 188.191406 1171.878906 188.128906 C 1168.039062 165.460938 1163.679688 142.859375 1160.03125 120.160156 C 1171.261719 119.988281 1182.511719 120.339844 1193.738281 119.980469 C 1193.019531 114.371094 1191.851562 108.839844 1190.988281 103.25 C 1173.421875 102.53125 1155.800781 103.058594 1138.21875 102.96875 C 1142.671875 131.421875 1148.171875 159.71875 1152.898438 188.128906 Z M 1152.898438 188.128906 " transform="matrix(1,0,0,-1,0,333)"/>
<path style="fill-rule:nonzero;fill:rgb(94.099426%,47.099304%,18.798828%);fill-opacity:1;stroke-width:0.09375;stroke-linecap:butt;stroke-linejoin:miter;stroke:rgb(94.099426%,47.099304%,18.798828%);stroke-opacity:1;stroke-miterlimit:10;" d="M 1236.101562 188.140625 C 1244.730469 188.179688 1253.371094 188.199219 1262.019531 188.128906 C 1265.851562 159.828125 1270.238281 131.609375 1273.929688 103.289062 C 1267.28125 103.300781 1260.640625 103.28125 1254 103.308594 C 1253.351562 108.941406 1252.78125 114.570312 1252.160156 120.199219 C 1242.761719 120.269531 1233.351562 120.410156 1223.96875 120.148438 C 1220.5 115.050781 1218.789062 108.800781 1215.871094 103.308594 C 1209.058594 103.269531 1202.261719 103.300781 1195.46875 103.289062 C 1208.839844 131.648438 1222.589844 159.839844 1236.101562 188.140625 M 1246.648438 171.378906 C 1241.140625 159.609375 1235.839844 147.738281 1230.511719 135.890625 C 1237.140625 135.78125 1243.769531 135.828125 1250.410156 135.859375 C 1249.050781 147.691406 1248.46875 159.621094 1246.648438 171.378906 Z M 1246.648438 171.378906 " transform="matrix(1,0,0,-1,0,333)"/>
<path style="fill-rule:nonzero;fill:rgb(94.099426%,47.099304%,18.798828%);fill-opacity:1;stroke-width:0.09375;stroke-linecap:butt;stroke-linejoin:miter;stroke:rgb(94.099426%,47.099304%,18.798828%);stroke-opacity:1;stroke-miterlimit:10;" d="M 1365.789062 188.128906 C 1372.089844 188.199219 1378.390625 188.171875 1384.710938 188.148438 C 1382.949219 176.808594 1380.519531 165.578125 1378.941406 154.210938 C 1387.839844 154.210938 1396.738281 154.21875 1405.648438 154.199219 C 1407.550781 165.46875 1409.679688 176.691406 1411.519531 187.96875 C 1417.859375 188.398438 1424.210938 188.078125 1430.558594 188.148438 C 1425.640625 159.871094 1420.648438 131.601562 1415.679688 103.320312 C 1409.359375 103.261719 1403.050781 103.308594 1396.730469 103.289062 C 1398.671875 114.769531 1400.730469 126.230469 1402.691406 137.710938 C 1393.78125 137.78125 1384.871094 137.679688 1375.96875 137.769531 C 1373.710938 126.339844 1371.921875 114.808594 1369.898438 103.328125 C 1363.609375 103.261719 1357.320312 103.300781 1351.039062 103.300781 C 1355.679688 131.621094 1360.929688 159.851562 1365.789062 188.128906 Z M 1365.789062 188.128906 " transform="matrix(1,0,0,-1,0,333)"/>
<path style="fill-rule:nonzero;fill:rgb(100%,87.098694%,0%);fill-opacity:1;stroke-width:0.09375;stroke-linecap:butt;stroke-linejoin:miter;stroke:rgb(100%,87.098694%,0%);stroke-opacity:1;stroke-miterlimit:10;" d="M 456.5 172.460938 C 461.21875 172.960938 466.5 173.421875 470.75 170.859375 C 473.730469 169.109375 474.199219 165.238281 473.601562 162.128906 C 471.921875 152.339844 470.140625 142.570312 468.488281 132.78125 C 467.828125 129.390625 467.441406 125.621094 464.960938 122.988281 C 461.488281 119.121094 455.898438 118.488281 451 118.539062 C 447.699219 118.75 443.980469 119.101562 441.488281 121.53125 C 439.199219 124.011719 439.71875 127.621094 440.238281 130.648438 C 442.058594 141.121094 443.871094 151.589844 445.761719 162.039062 C 446.488281 167.46875 451.21875 171.621094 456.5 172.460938 Z M 456.5 172.460938 " transform="matrix(1,0,0,-1,0,333)"/>
<path style="fill-rule:nonzero;fill:rgb(100%,87.098694%,0%);fill-opacity:1;stroke-width:0.09375;stroke-linecap:butt;stroke-linejoin:miter;stroke:rgb(100%,87.098694%,0%);stroke-opacity:1;stroke-miterlimit:10;" d="M 852.429688 172.449219 C 857.179688 172.960938 862.511719 173.441406 866.78125 170.839844 C 869.75 169.058594 870.191406 165.199219 869.589844 162.089844 C 867.871094 152.210938 866.089844 142.328125 864.421875 132.441406 C 863.78125 128.96875 863.25 125.109375 860.539062 122.558594 C 857.039062 119.058594 851.738281 118.511719 847.039062 118.539062 C 843.539062 118.769531 839.371094 119.121094 837.019531 122.089844 C 834.941406 125.058594 835.988281 128.800781 836.460938 132.101562 C 838.339844 142.410156 839.980469 152.769531 841.980469 163.050781 C 843.011719 168.039062 847.550781 171.609375 852.429688 172.449219 Z M 852.429688 172.449219 " transform="matrix(1,0,0,-1,0,333)"/>
<path style="fill-rule:nonzero;fill:rgb(100%,87.098694%,0%);fill-opacity:1;stroke-width:0.09375;stroke-linecap:butt;stroke-linejoin:miter;stroke:rgb(100%,87.098694%,0%);stroke-opacity:1;stroke-miterlimit:10;" d="M 1246.648438 171.378906 C 1248.46875 159.621094 1249.050781 147.691406 1250.410156 135.859375 C 1243.769531 135.828125 1237.140625 135.78125 1230.511719 135.890625 C 1235.839844 147.738281 1241.140625 159.609375 1246.648438 171.378906 Z M 1246.648438 171.378906 " transform="matrix(1,0,0,-1,0,333)"/>
<path style="fill-rule:nonzero;fill:rgb(96.899414%,57.998657%,11.399841%);fill-opacity:1;stroke-width:0.09375;stroke-linecap:butt;stroke-linejoin:miter;stroke:rgb(96.899414%,57.998657%,11.399841%);stroke-opacity:1;stroke-miterlimit:10;" d="M 161.320312 63.390625 C 143.890625 91.679688 137.890625 126.871094 145.25 159.28125 C 145.339844 148.660156 145.21875 137.941406 147.480469 127.5 C 153.828125 92.421875 175.371094 60.511719 205.339844 41.261719 C 231.511719 24.230469 263.980469 16.710938 294.929688 21.269531 C 322.03125 24.949219 347.859375 37.339844 367.601562 56.28125 C 369.199219 57.660156 370.660156 59.78125 373.050781 59.578125 C 446.710938 59.589844 520.378906 59.859375 594.050781 59.75 C 647.691406 60.191406 701.339844 59.519531 754.96875 60.128906 C 832.328125 60.019531 909.691406 60.320312 987.050781 60.25 C 1017.359375 60.121094 1047.671875 60.75 1077.988281 60.53125 C 1137.011719 60.398438 1196.019531 60.820312 1255.039062 60.699219 C 1363.351562 60.910156 1471.660156 60.898438 1579.980469 60.890625 C 1587.019531 60.789062 1594.449219 62.640625 1599.511719 67.828125 C 1598.699219 59.480469 1594.839844 50.96875 1587.390625 46.570312 C 1581.128906 42.351562 1573.300781 42.890625 1566.121094 42.75 C 1547.429688 42.898438 1528.730469 42.429688 1510.050781 43.078125 C 1500.371094 43.070312 1490.699219 42.539062 1481.03125 42.75 C 1463.039062 42.5 1445.058594 43.648438 1427.089844 42.761719 C 1414.070312 42.871094 1401.050781 42.46875 1388.050781 43.078125 C 1373.308594 43.28125 1358.601562 42.628906 1343.878906 42.75 C 1316.890625 43.660156 1289.878906 42.609375 1262.890625 42.78125 C 1253.609375 43.460938 1244.328125 42.429688 1235.03125 42.75 C 1204.75 43.03125 1174.429688 43.410156 1144.148438 42.75 C 1126.140625 42.730469 1108.121094 43.570312 1090.121094 42.761719 C 1082.410156 42.851562 1074.679688 42.5 1066.980469 43.03125 C 1050.328125 42.460938 1033.648438 42.890625 1016.988281 42.761719 C 1008.339844 42.441406 999.699219 43.519531 991.058594 42.800781 C 971.039062 42.769531 951.019531 42.558594 931.019531 43.078125 C 914.019531 42.5 897 42.851562 879.988281 42.75 C 857.660156 42.558594 835.359375 43.261719 813.039062 43.070312 C 790.019531 43.261719 767.03125 42.53125 744.011719 42.761719 C 722.96875 42.53125 701.949219 43.25 680.910156 43.070312 C 657.980469 42.941406 635.039062 43.371094 612.109375 42.75 C 599.738281 42.53125 587.390625 43.238281 575.019531 43.070312 C 553.671875 43.199219 532.339844 42.53125 510.988281 42.761719 C 503.679688 42.46875 496.390625 43.398438 489.101562 42.769531 C 463.058594 42.730469 437.011719 42.769531 410.960938 42.761719 C 397.53125 42.648438 384.128906 43.140625 370.710938 42.640625 C 350.390625 20.308594 321.980469 5.640625 292.101562 1.570312 C 273.039062 -0.621094 253.410156 0.320312 235.03125 6.140625 C 204.570312 15.398438 177.839844 36.191406 161.320312 63.390625 Z M 161.320312 63.390625 " transform="matrix(1,0,0,-1,0,333)"/>
<path style="fill-rule:nonzero;fill:rgb(100%,100%,100%);fill-opacity:1;stroke-width:0.09375;stroke-linecap:butt;stroke-linejoin:miter;stroke:rgb(100%,100%,100%);stroke-opacity:1;stroke-miterlimit:10;" d="M 274.300781 158.660156 C 280.410156 161.058594 287.351562 154.710938 285.53125 148.390625 C 284.25 141.191406 273.300781 139.53125 269.738281 145.738281 C 266.519531 150.210938 269.070312 157.148438 274.300781 158.660156 Z M 274.300781 158.660156 " transform="matrix(1,0,0,-1,0,333)"/>
<path style="fill-rule:nonzero;fill:rgb(96.899414%,57.998657%,11.399841%);fill-opacity:1;stroke-width:0.09375;stroke-linecap:butt;stroke-linejoin:miter;stroke:rgb(96.899414%,57.998657%,11.399841%);stroke-opacity:1;stroke-miterlimit:10;" d="M 19.03125 138.070312 C 20.28125 143.941406 25.929688 148.5 31.960938 148.28125 C 60.441406 148.261719 88.929688 148.261719 117.410156 148.28125 C 116.679688 139.570312 116.550781 130.851562 117.398438 122.148438 C 88.621094 122.210938 59.828125 122.148438 31.050781 122.179688 C 23.21875 122.070312 17.019531 130.621094 19.03125 138.070312 Z M 19.03125 138.070312 " transform="matrix(1,0,0,-1,0,333)"/>
<path style="fill-rule:nonzero;fill:rgb(96.899414%,57.998657%,11.399841%);fill-opacity:1;stroke-width:0.09375;stroke-linecap:butt;stroke-linejoin:miter;stroke:rgb(96.899414%,57.998657%,11.399841%);stroke-opacity:1;stroke-miterlimit:10;" d="M 41.398438 88.03125 C 41.71875 94.921875 48.148438 100.511719 54.960938 100.308594 C 77.050781 100.378906 99.140625 100.339844 121.230469 100.328125 C 122.898438 91.371094 126.53125 82.960938 129.078125 74.269531 C 104.039062 73.929688 79 74.21875 53.960938 74.121094 C 46.710938 73.761719 40.648438 81 41.398438 88.03125 Z M 41.398438 88.03125 " transform="matrix(1,0,0,-1,0,333)"/>
<path style="fill-rule:nonzero;fill:rgb(94.099426%,47.099304%,18.798828%);fill-opacity:1;stroke-width:0.09375;stroke-linecap:butt;stroke-linejoin:miter;stroke:rgb(94.099426%,47.099304%,18.798828%);stroke-opacity:1;stroke-miterlimit:10;" d="M 435.148438 96.359375 C 446 96.320312 456.789062 94.761719 467.378906 92.488281 C 468.570312 91.980469 470.449219 92.238281 471.160156 91.039062 C 470.160156 86.351562 468.859375 81.730469 467.71875 77.078125 C 456 79.5 444.128906 81.160156 432.191406 82 C 433.121094 86.800781 434.171875 91.570312 435.148438 96.359375 Z M 435.148438 96.359375 " transform="matrix(1,0,0,-1,0,333)"/>
</g>
</svg>
