<svg xmlns="http://www.w3.org/2000/svg" xmlns:xlink="http://www.w3.org/1999/xlink" width="339.283pt" height="63.642pt" viewBox="0 0 339.283 63.642"><defs><path id="a" d="M.45313-3.64062c0 2.1875.64062 3.76562 2.45312 3.76562 1.79688 0 2.42188-1.57812 2.42188-3.76562 0-2.17188-.625-3.76563-2.42188-3.76563-1.8125 0-2.45312 1.59375-2.45312 3.76563m1.09375 0c0-1.78125.3125-3.39063 1.35937-3.39063 1.03125 0 1.3125 1.60938 1.3125 3.39063S3.9375-.25 2.90625-.25c-1.04687 0-1.35937-1.60937-1.35937-3.39062m0 0"/><path id="b" d="M1.1875 0h3.57813v-.3125l-.92188-.07812C3.625-.42187 3.48438-.5 3.48438-.92187v-6.42188l-.04688-.0625-2.25.375v.26563l1.01563.14062c.1875.01563.25.09375.25.40625v5.29688c0 .42187-.09375.5-.35938.53125L1.1875-.3125Zm0 0"/><path id="d" d="M.25-.09375.34375 0H3.9375l.29688-1.20312-.25-.04688c-.20313.45313-.34375.51563-.6875.51563H1.125c.14063-.40625.59375-.98438 1.40625-1.53125C3.39063-2.84375 4-3.23437 4-4.17187c0-1.17188-.79687-1.59375-1.73437-1.59375-1.15625 0-1.8125.67187-1.8125 1.1875 0 .3125.34375.45312.53125.45312.15624 0 .23437-.09375.28124-.25.125-.60937.45313-1.07812.9375-1.07812C2.79688-5.45312 3-4.9375 3-4.3125 3-3.5 2.625-2.95312 1.82813-2.26562.75-1.34375.375-.73437.25-.09375m0 0"/><path id="e" d="M.17188-1.70312.26563-1.5h2.28125v.84375c0 .28125-.10938.32813-.29688.34375l-.53125.04688V0h2.3125v-.26562l-.375-.04688c-.1875-.01562-.25-.0625-.25-.34375V-1.5h.85938v-.45312h-.85938v-3.70313H2.6875C1.85938-4.45312.95313-3.01562.17188-1.70312m.6875-.25c.46875-.875 1.0625-1.82813 1.6875-2.82813v2.82813Zm0 0"/><path id="f" d="M.92188 0h2.84375v-.26562l-.6875-.0625c-.1875-.01563-.28125-.07813-.28125-.39063v-5L2.75-5.76562l-1.82812.3125v.21875l.73437.10937c.17188.01563.21875.07813.21875.34375v4.0625c0 .3125-.07812.375-.28125.39063l-.67187.0625Zm0 0"/><clipPath id="c"><path d="M320 19h17.97656v26H320Zm0 0"/></clipPath></defs><path fill="none" stroke="#ff7f00" stroke-miterlimit="10" stroke-width=".39627" d="M7.78125 26.14844v10.99218m54.96874-10.99218v10.99218m54.96873-10.99218v10.99218m54.96483-10.99218v10.99218m54.96874-10.99218v10.99218m54.96483-10.99218v10.99218"/><path fill="none" stroke="#ff7f00" stroke-miterlimit="10" stroke-width=".79255" d="M117.71872 22.48047V40.8047"/><path fill="none" stroke="#000" stroke-miterlimit="10" stroke-width=".39627" d="M7.78125 22.48047V40.8047"/><use xlink:href="#a" x="4.88529" y="52.76121"/><path fill="none" stroke="#000" stroke-miterlimit="10" stroke-width=".39627" d="M227.65229 22.48047V40.8047"/><use xlink:href="#b" x="224.7505" y="52.76121"/><path fill="none" stroke="#000" stroke-miterlimit="10" stroke-width=".79255" d="M7.78125 31.64453h323.66398"/><path d="M335.58594 31.64453c-.50781-.10547-2.7461-.70703-4.14063-1.35937V33c1.39453-.65234 3.63281-1.25 4.14063-1.35547m0 0"/><g clip-path="url(#c)"><path fill="none" stroke="#000" stroke-miterlimit="10" stroke-width=".79255" d="M335.58594 31.64453c-.50782-.10547-2.7461-.70703-4.14063-1.35937V33c1.39453-.65234 3.63281-1.25 4.14063-1.35547Zm0 0"/></g><use xlink:href="#d" x="115.42995" y="10.05295" fill="#ff7f00"/><path fill="none" stroke="#ff7f00" stroke-miterlimit="10" stroke-width=".70842" d="M115.42969 11.8164H120"/><use xlink:href="#e" x="115.42995" y="19.76392" fill="#ff7f00"/><use xlink:href="#f" x="115.42995" y="49.28228" fill="#007f7f"/><path fill="none" stroke="#007f7f" stroke-miterlimit="10" stroke-width=".70842" d="M115.42969 51.04687H120"/><use xlink:href="#d" x="115.42995" y="58.99325" fill="#007f7f"/></svg>