<svg xmlns="http://www.w3.org/2000/svg" xmlns:xlink="http://www.w3.org/1999/xlink" width="92.222pt" height="59.792pt" viewBox="0 0 92.222 59.792"><defs><path id="a" d="M1.3125 0h3.96875v-.34375L4.26563-.4375C4-.46875 3.85938-.54687 3.85938-1.03125v-7.10937l-.0625-.0625-2.48438.42187v.29688l1.125.14062c.20313.01563.28125.10938.28125.45313v5.85937c0 .23438-.01562.375-.09375.46875-.0625.09375-.17187.10938-.29687.125L1.3125-.34375Zm0 0"/><path id="b" d="M.32813-.10937.45313 0h5l.40625-1.59375-.34375-.0625c-.25.65625-.5.75-.98438.75H1.45313c.1875-.64062.90625-1.5 2.03125-2.3125 1.15625-.84375 2.04687-1.375 2.04687-2.73437 0-1.67188-1.10937-2.25-2.39062-2.25-1.65625 0-2.5 1-2.5 1.625 0 .40625.46875.60937.67187.60937.21875 0 .29688-.125.34375-.34375.1875-.8125.67188-1.46875 1.40625-1.46875.9375 0 1.20313.76563 1.20313 1.65625 0 1.29688-.65625 2.03125-1.70313 2.95313C1.0625-1.875.54688-1.04687.32813-.10937m0 0"/><path id="c" d="M.32813-1.23437c0 .51562.82812 1.375 2.53125 1.375 1.75 0 2.85937-.89063 2.85937-2.42188 0-1.625-1.39062-2.09375-2.0625-2.15625V-4.5c.65625-.09375 1.70313-.59375 1.70313-1.78125 0-1.32812-1.04688-1.92187-2.34375-1.92187-1.59375 0-2.375.92187-2.375 1.4375 0 .375.42187.57812.59375.57812.15624 0 .25-.09375.29687-.25.26563-.8125.71875-1.34375 1.39063-1.34375.95312 0 1.20312.82813 1.20312 1.51563 0 .71875-.26562 1.625-1.28125 1.625-.57812 0-.92187-.10938-1.0625-.10938-.15625 0-.21875.10938-.21875.32813 0 .20312.0625.34375.21875.34375.14063 0 .48438-.125 1.0625-.125 1.01563 0 1.59375.92187 1.59375 1.98437 0 1.4375-.70312 1.9375-1.5625 1.9375-.79687 0-1.32812-.59375-1.54687-1.26562C1.25-1.78125 1.125-1.90625.96875-1.90625c-.21875 0-.64062.23438-.64062.67188m0 0"/><path id="e" d="M.4375-5.51562C.4375-4 1.51563-3.23437 2.76563-3.23437c.73437 0 1.375-.42188 1.78125-1.01563h.03125c0 .75-.0625 1.73438-.28125 2.5625-.21875.79688-.64063 1.40625-1.40625 1.40625-.82813 0-1.125-.64062-1.3125-1.20312-.04688-.15626-.125-.25-.32813-.25-.23437 0-.5625.25-.5625.60937 0 .53125.625 1.26563 2.09375 1.26563.96875 0 1.71875-.35938 2.17188-1 .5-.6875.79687-1.75.79687-3.5 0-1.5-.29687-2.46875-.76562-3.03125-.46875-.54688-1.125-.8125-1.89063-.8125-1.54687 0-2.65625 1.01562-2.65625 2.6875m1.20313-.34375c0-1.10938.5-1.92188 1.4375-1.92188.96875 0 1.4375 1.14063 1.4375 2.3125 0 .20313 0 .45313-.07813.64063-.20312.5625-.67187.95312-1.3125.95312-.9375 0-1.48437-.82812-1.48437-1.98437m0 0"/><path id="f" d="m.23438-2.42187.09375.26562H3.625v1.23438c0 .40625-.125.46875-.42187.5l-.78125.07812V0h3.1875v-.34375l-.53125-.0625c-.28125-.04687-.35938-.10937-.35938-.51562v-1.23438h1.23438v-.5625H4.71875V-8.0625h-.89062c-1.125 1.67188-2.5 3.76563-3.59375 5.64063m.875-.29688c.71875-1.3125 1.5625-2.71875 2.48437-4.17187H3.625v4.17187Zm0 0"/><path id="g" d="M.5-6.375h.32813l.10937-.25c.15625-.34375.32813-.51562.85938-.51562H5.0625c-.125.4375-.34375 1.125-1.32812 2.53125C2.70313-3.125 2.01563-1.76562 2.01563-.34375c0 .39063.28125.48438.65625.48438.34375 0 .60937-.10938.59375-.45313-.0625-1.59375.25-2.89062.89062-4C4.9375-5.67187 5.57813-6.42187 6-7.9375l-.10937-.125H.875Zm0 0"/><path id="d" d="M1.03125-3.0625h6.64063v-.70312H1.03125Zm0 0"/></defs><path fill="none" stroke="#000" stroke-miterlimit="10" stroke-width=".51307" d="M16.1211 10.59375V4.42969m0 0h35.52344m-.00001 6.16406V4.42969"/><use xlink:href="#a" x="18.84413" y="19.83984"/><use xlink:href="#b" x="30.68545" y="19.83984"/><use xlink:href="#c" x="42.52678" y="19.83984"/><use xlink:href="#d" x="4.28089" y="35.25132"/><path fill="none" stroke="#000" stroke-miterlimit="10" stroke-width=".51307" d="M16.1211 39.10547h35.52344"/><use xlink:href="#a" x="18.84413" y="35.25132"/><use xlink:href="#a" x="30.68545" y="35.25132"/><use xlink:href="#e" x="42.52678" y="35.25132"/><use xlink:href="#f" x="42.52664" y="50.66281"/><path fill="none" stroke="#000" stroke-miterlimit="10" stroke-width=".51307" d="M57.5664 55.15625V4.42968m0 14.76954h29.60548"/><use xlink:href="#a" x="66.21044" y="15.34466"/><use xlink:href="#g" x="78.05176" y="15.34466"/><use xlink:href="#g" x="66.21044" y="30.75614"/></svg>