<svg xmlns="http://www.w3.org/2000/svg" xmlns:xlink="http://www.w3.org/1999/xlink" width="1033.923" height="71.591" viewBox="0 0 1033.923 71.591"><defs><path id="c" d="M.42188-.17187.59375 0H6.8125l.53125-2.09375-.4375-.07812c-.34375.78125-.60937.89062-1.20312.89062h-3.75c.23437-.70312 1.01562-1.6875 2.4375-2.64062 1.48437-1 2.54687-1.6875 2.54687-3.29688 0-2.03125-1.39062-2.75-3.01562-2.75-2 0-3.14063 1.15625-3.14063 2.04688 0 .51562.60938.76562.92188.76562.28124 0 .42187-.15625.48437-.4375.23438-1.01562.78125-1.82812 1.64063-1.82812 1.03125 0 1.35937.89062 1.35937 1.9375 0 1.42187-.64062 2.35937-2.01562 3.54687-1.875 1.60938-2.53125 2.67188-2.75 3.76563m0 0"/><path id="d" d="M.625-1.5625c0 .625.95313 1.73438 3.03125 1.73438 2.5 0 3.5625-1.48438 3.5625-3.32813 0-1.875-1.125-3.125-3.09375-3.125-.85937 0-1.71875.375-2.21875.79688l.3125-2.5625c.0625-.40625.125-.46875.4375-.46875H6.375l.42188-1.14063-.09375-.14062H1.60938l-.125.14062-.29688 4.875.42188.25C2.20313-5.23437 2.78125-5.5625 3.5625-5.5625c.95313 0 1.92188.70313 1.92188 2.57813 0 1.5-.5625 2.60937-1.75 2.60937-.9375 0-1.4375-.67187-1.76563-1.625-.09375-.25-.25-.40625-.5-.40625-.34375 0-.84375.3125-.84375.84375m0 0"/><path id="e" d="M.57813-2.70312c0 1.65625 1.125 2.875 3.39062 2.875 2.28125 0 3.39063-1.21875 3.39063-2.875 0-1.45313-.89063-2.3125-1.9375-2.57813.875-.23437 1.59375-1 1.59375-2.17187 0-1.60938-1.26563-2.51563-3.04688-2.51563s-3.0625.92188-3.0625 2.51563c0 1.17187.76563 1.9375 1.625 2.17187C1.5-5.01562.57813-4.15625.57813-2.70312m1.6875.04687c0-1.3125.59375-2.28125 1.70312-2.28125 1.10938 0 1.70313.96875 1.70313 2.28125C5.67188-1.35937 5.125-.375 3.96875-.375s-1.70312-.98437-1.70312-2.28125M2.53125-7.5c0-1.09375.5-1.92187 1.4375-1.92187s1.4375.82812 1.4375 1.92187c0 1.01563-.45312 1.98438-1.4375 1.98438-.96875 0-1.4375-.96875-1.4375-1.98438m0 0"/><path id="f" d="M.40625-1.5625c0 .60938.96875 1.73438 3.1875 1.73438 2.1875 0 3.54688-1.0625 3.54688-2.9375 0-2-1.73438-2.53125-2.48438-2.60938v-.0625c.79688-.14062 2.0625-.71875 2.0625-2.15625 0-1.70312-1.40625-2.375-2.96875-2.375-1.875 0-2.96875 1.04688-2.96875 1.79688 0 .48437.57813.75.82813.75.21874 0 .34375-.14063.42187-.34375.32813-1.03125.82813-1.65625 1.625-1.65625 1.09375 0 1.35938 1.03125 1.35938 1.79687 0 .78125-.25 1.98438-1.45313 1.98438-.67187 0-1.10937-.15625-1.32812-.15625s-.29688.17187-.29688.45312.07813.45313.29688.45313.65625-.15625 1.32812-.15625c1.125 0 1.82813.9375 1.82813 2.34375 0 1.6875-.78125 2.32812-1.78125 2.32812-.89063 0-1.5-.67187-1.8125-1.625-.09376-.28125-.25-.4375-.48438-.4375-.32812 0-.90625.3125-.90625.875m0 0"/><path id="g" d="M1.59375 0h4.92188v-.45312L5.34375-.5625c-.32812-.03125-.48437-.14062-.48437-.6875v-8.64062l-.09375-.07813-3.15625.53125v.39063L2.875-8.875c.28125.04688.375.15625.375.60938V-1.25c0 .54688-.14062.65625-.48437.6875l-1.17188.10938Zm0 0"/><path id="h" d="m.59375-7.64062.4375.03125.14063-.28125c.1875-.39063.375-.625 1.03125-.625h3.9375C6-8 5.6875-7.07812 4.5-5.45312 3.25-3.73437 2.42188-2.125 2.42188-.51562c0 .57812.40625.6875.90625.6875.4375 0 .79687-.09375.79687-.65625.01563-2.14063.375-3.5625 1.09375-4.75C6.26563-6.98437 7-7.90625 7.4375-9.64062l-.14062-.15625H1.09375Zm0 0"/><path id="i" d="M.875-7C.875-2.8125 2.09375.25 5.54688.25S10.25-2.8125 10.25-7 9-14.23437 5.54688-14.23437.875-11.1875.875-7m2.10938 0c0-3.40625.57812-6.5 2.5625-6.5 1.98437 0 2.5625 3.09375 2.5625 6.5S7.53125-.48437 5.54688-.48437C3.5625-.48437 2.98438-3.59375 2.98438-7m0 0"/><path id="j" d="M2.26563 0h6.89062v-.60937L7.39063-.75c-.4375-.04687-.6875-.20312-.6875-1.03125V-14.125l-.10938-.10937L2.26563-13.5v.51563l1.96875.23437c.35937.04688.48437.20313.48437.8125v10.15625c0 .82813-.20312.98438-.6875 1.03125l-1.76562.14063Zm0 0"/><path id="k" d="M.5625-.20312.78125 0h8.67188l.70312-2.76562-.57812-.10938c-.4375 1.14063-.85938 1.29688-1.71875 1.29688H2.51563c.34375-1.09375 1.57812-2.59375 3.51562-3.98438 2.01563-1.48437 3.57813-2.42187 3.57813-4.75 0-2.92187-1.9375-3.92187-4.15625-3.92187-2.875 0-4.34375 1.73437-4.34375 2.82812 0 .71875.8125 1.04688 1.15625 1.04688.39062 0 .51562-.21875.60937-.57813C3.20313-12.35937 4.03125-13.5 5.32813-13.5c1.59375 0 2.0625 1.32813 2.0625 2.875 0 2.25-1.125 3.51563-2.95313 5.125C1.84375-3.25.95313-1.82812.5625-.20312m0 0"/><path id="l" d="M.5625-2.14062C.5625-1.25 2 .25 4.96875.25 8 .25 9.92188-1.29687 9.92188-3.96875c0-2.8125-2.40625-3.625-3.57813-3.73437v-.09375c1.14063-.1875 2.95313-1.03125 2.95313-3.09375 0-2.32813-1.8125-3.34375-4.0625-3.34375-2.76563 0-4.125 1.59375-4.125 2.5 0 .64062.73437 1 1.03125 1 .26562 0 .42187-.15625.51562-.42188C3.125-12.59375 3.90625-13.5 5.07813-13.5c1.65625 0 2.07812 1.45313 2.07812 2.625 0 1.25-.45312 2.82813-2.23437 2.82813-1 0-1.57813-.20313-1.82813-.20313-.26562 0-.375.20313-.375.57813 0 .35937.10938.59375.375.59375.25 0 .82813-.20313 1.82813-.20313 1.78125 0 2.78125 1.59375 2.78125 3.42188 0 2.5-1.21875 3.375-2.71875 3.375-1.375 0-2.28125-1.03125-2.6875-2.21875-.14063-.39063-.34375-.59375-.625-.59375-.375 0-1.10938.40625-1.10938 1.15625m0 0"/><clipPath id="a"><path d="M15 15h1015.94922v2H15Zm0 0"/></clipPath><clipPath id="b"><path d="M1027 12h3.94922v8H1027Zm0 0"/></clipPath></defs><g clip-path="url(#a)"><path fill="none" stroke="#000" stroke-miterlimit="10" stroke-width=".79248" d="M15.8789 16.25h1013.89408"/></g><g clip-path="url(#b)"><path fill="none" stroke="#000" stroke-linecap="round" stroke-linejoin="round" stroke-miterlimit="10" stroke-width=".79248" d="M1027.63281 13.15625c.46485 1.85938 1.4961 2.73437 2.53516 3.09375-1.03906.36328-2.07031 1.23828-2.53516 3.09375"/></g><use xlink:href="#c" x="800.6826" y="46.7785"/><use xlink:href="#d" x="808.59283" y="46.7785"/><path fill="none" stroke="#000" stroke-miterlimit="10" stroke-width="1.226" d="M800.6836 49.83203h15.8203"/><use xlink:href="#e" x="804.638" y="63.58449"/><use xlink:href="#f" x="107.04834" y="46.7785"/><path fill="none" stroke="#000" stroke-miterlimit="10" stroke-width="1.226" d="M107.04687 49.83203h7.91407"/><use xlink:href="#e" x="107.04834" y="63.58449"/><use xlink:href="#g" x="547.01381" y="46.7785"/><use xlink:href="#h" x="554.92404" y="46.7785"/><path fill="none" stroke="#000" stroke-miterlimit="10" stroke-width="1.226" d="M547.01563 49.83203h15.8164"/><use xlink:href="#e" x="550.96921" y="63.58449"/><path fill="none" stroke="#000" stroke-miterlimit="10" stroke-width=".79248" d="M15.8789.39844v31.70702"/><use xlink:href="#i" x="10.32691" y="54.66768"/><path fill="none" stroke="#000" stroke-miterlimit="10" stroke-width=".39624" d="M15.8789 6.73829V25.7617M47.58592 6.73829V25.7617M79.29685 6.73829V25.7617m31.70701-19.02341V25.7617m31.71093-19.02341V25.7617M174.4218 6.73829V25.7617m31.71093-19.02341V25.7617m31.70701-19.02341V25.7617"/><path fill="none" stroke="#000" stroke-miterlimit="10" stroke-width=".79248" d="M269.55067.39844v31.70702"/><use xlink:href="#j" x="263.9957" y="54.66768"/><path fill="none" stroke="#000" stroke-miterlimit="10" stroke-width=".39624" d="M269.55067 6.73829V25.7617m31.70701-19.02341V25.7617M332.9686 6.73829V25.7617m31.70703-19.02341V25.7617m31.71092-19.02341V25.7617m31.70702-19.02341V25.7617m31.71092-19.02341V25.7617M491.5115 6.73829V25.7617"/><path fill="none" stroke="#000" stroke-miterlimit="10" stroke-width=".79248" d="M523.22243.39844v31.70702"/><use xlink:href="#k" x="517.66448" y="54.66768"/><path fill="none" stroke="#000" stroke-miterlimit="10" stroke-width=".39624" d="M523.22243 6.73829V25.7617m31.70702-19.02341V25.7617m31.71092-19.02341V25.7617m31.70702-19.02341V25.7617m31.71092-19.02341V25.7617m31.70702-19.02341V25.7617m31.71092-19.02341V25.7617m31.70702-19.02341V25.7617"/><path fill="none" stroke="#000" stroke-miterlimit="10" stroke-width=".79248" d="M776.8942.39844v31.70702"/><use xlink:href="#l" x="771.33327" y="54.66768"/><path fill="none" stroke="#000" stroke-miterlimit="10" stroke-width=".39624" d="M776.8942 6.73829V25.7617m31.707-19.02341V25.7617m31.71093-19.02341V25.7617m31.70702-19.02341V25.7617m31.71092-19.02341V25.7617m31.70702-19.02341V25.7617m31.71092-19.02341V25.7617m31.70702-19.02341V25.7617"/></svg>