<svg xmlns="http://www.w3.org/2000/svg" xmlns:xlink="http://www.w3.org/1999/xlink" width="919.087pt" height="63.68pt" viewBox="0 0 919.087 63.68"><defs><path id="b" d="M.375-.15625.53125 0h5.51563l.46875-1.85937-.39063-.0625c-.29687.6875-.53125.78125-1.0625.78125H1.73438c.20312-.625.90625-1.5 2.17187-2.34375 1.3125-.89063 2.25-1.5 2.25-2.92188 0-1.82812-1.23437-2.45312-2.67187-2.45312-1.78125 0-2.79688 1.01562-2.79688 1.8125 0 .46875.54688.6875.82813.6875.25 0 .375-.14063.42187-.39063.21875-.90625.70313-1.625 1.46875-1.625.90625 0 1.20313.78125 1.20313 1.73438 0 1.25-.57813 2.09375-1.79688 3.14062C1.15625-2.0625.5625-1.125.375-.15625m0 0"/><path id="c" d="M.5625-1.39062c0 .5625.84375 1.54687 2.6875 1.54687 2.21875 0 3.15625-1.32812 3.15625-2.95312 0-1.67188-1-2.78125-2.75-2.78125-.75 0-1.51562.32812-1.96875.70312l.28125-2.28125c.0625-.35937.10938-.42187.39063-.42187h3.29687l.375-1.01563-.07812-.125H1.42188l-.10938.125L1.04688-4.25l.375.21875c.53125-.60937 1.04687-.90625 1.73437-.90625.85938 0 1.71875.625 1.71875 2.28125 0 1.34375-.5 2.32813-1.5625 2.32813-.82812 0-1.26562-.59375-1.5625-1.45313-.07812-.21875-.21875-.35937-.45312-.35937-.29688 0-.73438.28125-.73438.75m0 0"/><path id="d" d="M.51563-2.40625c0 1.48438 1 2.5625 3.01562 2.5625s3-1.07812 3-2.5625c0-1.28125-.78125-2.04687-1.71875-2.28125.78125-.20312 1.42188-.89062 1.42188-1.9375 0-1.4375-1.125-2.23437-2.70313-2.23437-1.59375 0-2.71875.8125-2.71875 2.23437 0 1.04688.67188 1.73438 1.4375 1.9375-.92187.23438-1.73437 1-1.73437 2.28125m1.5.04688c0-1.17188.53125-2.03125 1.51562-2.03125.98438 0 1.5.85937 1.5 2.03125 0 1.15625-.48437 2.03125-1.5 2.03125-1.03125 0-1.51562-.875-1.51562-2.03125M2.25-6.65625c0-.98437.4375-1.71875 1.28125-1.71875.82813 0 1.26563.73438 1.26563 1.71875 0 .89063-.40625 1.76563-1.26563 1.76563-.875 0-1.28125-.875-1.28125-1.76563m0 0"/><path id="e" d="M.35938-1.39062c0 .54687.85937 1.54687 2.82812 1.54687 1.95313 0 3.15625-.95312 3.15625-2.60937 0-1.78125-1.54687-2.25-2.20312-2.3125v-.0625c.70312-.125 1.82812-.64063 1.82812-1.92188 0-1.51562-1.25-2.10937-2.64062-2.10937-1.65625 0-2.64063.92187-2.64063 1.59375 0 .4375.51563.67187.73438.67187.20312 0 .3125-.125.375-.3125.29687-.92187.75-1.46875 1.45312-1.46875.96875 0 1.20313.90625 1.20313 1.60938 0 .6875-.21875 1.75-1.29688 1.75-.59375 0-.98437-.125-1.17187-.125S1.71875-5 1.71875-4.75s.07813.40625.26563.40625.57812-.14062 1.17187-.14062c1 0 1.625.82812 1.625 2.07812 0 1.5-.6875 2.07813-1.57812 2.07813-.78125 0-1.32813-.59375-1.60938-1.45313-.07812-.25-.21875-.39062-.42187-.39062-.29688 0-.8125.28125-.8125.78125m0 0"/><path id="f" d="M1.42188 0h4.35937v-.40625L4.75-.5c-.29687-.03125-.4375-.125-.4375-.60937v-7.6875l-.07812-.0625-2.8125.46875v.34375l1.125.15625c.25.03125.34375.14062.34375.53125v6.25c0 .48437-.125.57812-.4375.60937l-1.03125.09375Zm0 0"/><path id="g" d="M.53125-6.78125.92188-6.75l.125-.26562c.15624-.35938.32812-.5625.90625-.5625h3.5C5.32813-7.125 5.04688-6.28125 4-4.84375 2.89063-3.3125 2.15625-1.89062 2.15625-.45312c0 .51562.35938.60937.79688.60937.39062 0 .70312-.09375.70312-.59375.01563-1.89062.34375-3.15625.98438-4.20312.92187-1.5625 1.57812-2.39063 1.96875-3.9375l-.125-.14063H.96875Zm0 0"/><path id="h" d="M.76563-6.21875C.76563-2.5 1.85938.21875 4.9375.21875S9.125-2.5 9.125-6.21875c0-3.73437-1.10937-6.45312-4.1875-6.45312S.76563-9.95312.76563-6.21875m1.89062 0c0-3.04687.51563-5.79687 2.28125-5.79687 1.76563 0 2.28125 2.75 2.28125 5.79687 0 3.03125-.51562 5.78125-2.28125 5.78125-1.76562 0-2.28125-2.75-2.28125-5.78125m0 0"/><path id="i" d="M2.01563 0h6.14062v-.53125L6.57813-.67187c-.39063-.04688-.60938-.1875-.60938-.92188v-10.98437l-.09375-.09375-3.85937.65625v.45312l1.75.21875c.3125.04688.4375.1875.4375.71875v9.03125c0 .73438-.17188.875-.60938.92188l-1.57812.14062Zm0 0"/><path id="j" d="M.5-.17187.6875 0h7.71875l.64063-2.45312-.51563-.10938C8.125-1.54687 7.75-1.40625 7-1.40625H2.23438C2.53125-2.375 3.64063-3.70312 5.375-4.95312c1.78125-1.3125 3.17188-2.14063 3.17188-4.23438 0-2.59375-1.71875-3.48437-3.6875-3.48437-2.5625 0-3.875 1.54687-3.875 2.51562 0 .64063.71875.9375 1.03125.9375.34375 0 .46875-.20312.54687-.51562C2.85938-11 3.59375-12.01562 4.73438-12.01562c1.4375 0 1.84375 1.1875 1.84375 2.5625 0 2-1 3.125-2.625 4.5625C1.64063-2.89062.85938-1.625.5-.17187m0 0"/><path id="k" d="M.5-1.90625c0 .79688 1.28125 2.125 3.92188 2.125 2.70312 0 4.40625-1.375 4.40625-3.75 0-2.5-2.14063-3.23437-3.17188-3.32812v-.07813c1-.15625 2.60938-.92187 2.60938-2.76562 0-2.0625-1.60938-2.96875-3.60938-2.96875-2.45312 0-3.67187 1.42187-3.67187 2.21875 0 .57812.65625.89062.92187.89062.23438 0 .375-.14062.45313-.375.42187-1.26562 1.10937-2.07812 2.15625-2.07812 1.46875 0 1.84375 1.28125 1.84375 2.34375 0 1.10937-.39063 2.51562-1.98438 2.51562-.89062 0-1.40625-.1875-1.625-.1875-.23437 0-.32812.1875-.32812.51563 0 .32812.09375.51562.32812.51562.21875 0 .73438-.17187 1.625-.17187 1.59375 0 2.48438 1.42187 2.48438 3.04687 0 2.23438-1.09375 3-2.42188 3-1.21875 0-2.03125-.90625-2.39062-1.96875-.125-.34375-.29688-.53125-.5625-.53125C1.15625-2.9375.5-2.57812.5-1.90625m0 0"/><clipPath id="a"><path d="M898 1h18.33594v27H898Zm0 0"/></clipPath></defs><path fill="none" stroke="#000" stroke-miterlimit="10" stroke-width=".79302" d="M13.38672 14.5h896.41797"/><path d="M913.94922 14.5c-.51172-.10937-2.7461-.70703-4.14453-1.35937v2.71484c1.39843-.65235 3.63281-1.25 4.14453-1.35547m0 0"/><g clip-path="url(#a)"><path fill="none" stroke="#000" stroke-miterlimit="10" stroke-width=".79302" d="M913.94922 14.5c-.51172-.10937-2.7461-.70703-4.14453-1.35938v2.71485c1.39843-.65234 3.6328-1.25 4.14453-1.35547Zm0 0"/></g><use xlink:href="#b" x="711.47054" y="41.65269"/><use xlink:href="#c" x="718.50666" y="41.65269"/><path fill="none" stroke="#000" stroke-miterlimit="10" stroke-width="1.09052" d="M711.46875 44.36719h14.07422"/><use xlink:href="#d" x="714.98686" y="56.60157"/><use xlink:href="#e" x="94.48297" y="41.65269"/><path fill="none" stroke="#000" stroke-miterlimit="10" stroke-width="1.09052" d="M94.48438 44.36719h7.03515"/><use xlink:href="#d" x="94.48297" y="56.60157"/><use xlink:href="#f" x="485.8324" y="41.65269"/><use xlink:href="#g" x="492.86852" y="41.65269"/><path fill="none" stroke="#000" stroke-miterlimit="10" stroke-width="1.09052" d="M485.83203 44.36719h14.07031"/><use xlink:href="#d" x="489.35071" y="56.60157"/><path fill="none" stroke="#000" stroke-miterlimit="10" stroke-width=".79302" d="M13.38672.39453v28.20703"/><use xlink:href="#h" x="8.4513" y="48.67043"/><path fill="none" stroke="#000" stroke-miterlimit="10" stroke-width=".39651" d="M13.38672 6.03516v16.92578M41.59375 6.03516v16.92578M69.79687 6.03516v16.92578M98.0039 6.03516v16.92578m28.20313-16.92578v16.92578m28.20703-16.92578v16.92578m28.20313-16.92578v16.92578m28.20703-16.92578v16.92578"/><path fill="none" stroke="#000" stroke-miterlimit="10" stroke-width=".79302" d="M239.02734.39453v28.20703"/><use xlink:href="#i" x="234.08944" y="48.67043"/><path fill="none" stroke="#000" stroke-miterlimit="10" stroke-width=".39651" d="M239.02734 6.03516v16.92578m28.20703-16.92578v16.92578M295.4375 6.03516v16.92578m28.20703-16.92578v16.92578m28.20313-16.92578v16.92578m28.20703-16.92578v16.92578m28.20312-16.92578v16.92578m28.20703-16.92578v16.92578"/><path fill="none" stroke="#000" stroke-miterlimit="10" stroke-width=".79302" d="M464.66797.39453v28.20703"/><use xlink:href="#j" x="459.72658" y="48.67043"/><path fill="none" stroke="#000" stroke-miterlimit="10" stroke-width=".39651" d="M464.66797 6.03516v16.92578M492.875 6.03516v16.92578m28.20312-16.92578v16.92578m28.20704-16.92578v16.92578m28.20312-16.92578v16.92578m28.20703-16.92578v16.92578m28.20313-16.92578v16.92578m28.20703-16.92578v16.92578"/><path fill="none" stroke="#000" stroke-miterlimit="10" stroke-width=".79302" d="M690.3086.39453v28.20703"/><use xlink:href="#k" x="685.36472" y="48.67043"/><path fill="none" stroke="#000" stroke-miterlimit="10" stroke-width=".39651" d="M690.3086 6.03516v16.92578m28.20702-16.92578v16.92578m28.20313-16.92578v16.92578m28.20703-16.92578v16.92578M803.1289 6.03516v16.92578m28.20704-16.92578v16.92578m28.20312-16.92578v16.92578M887.7461 6.03516v16.92578"/></svg>