<svg xmlns="http://www.w3.org/2000/svg" xmlns:xlink="http://www.w3.org/1999/xlink" width="574.579pt" height="39.95pt" viewBox="0 0 574.579 39.95"><defs><path id="b" d="M.23438-.09375.32813 0h3.46875l.29687-1.17187-.25-.03126c-.1875.42188-.34375.48438-.67187.48438H1.09375c.125-.39062.5625-.9375 1.35938-1.46875.8125-.54687 1.40625-.9375 1.40625-1.82812 0-1.14063-.76563-1.54688-1.67188-1.54688-1.10937 0-1.75.64063-1.75 1.14063 0 .29687.34375.4375.51563.4375.15624 0 .23437-.09375.26562-.25.125-.5625.4375-1.01563.90625-1.01563.57813 0 .76563.48438.76563 1.07813 0 .79687-.35938 1.3125-1.125 1.98437C.71875-1.29687.35938-.70312.23438-.09375m0 0"/><path id="c" d="M.34375-.875c0 .35938.53125.96875 1.6875.96875 1.39063 0 1.98438-.82812 1.98438-1.85937S3.39063-3.5 2.29688-3.5c-.48438 0-.95313.20313-1.23438.4375l.17188-1.42187c.03124-.23438.07812-.26563.25-.26563h2.0625l.23437-.64062-.04687-.07813H.89063l-.0625.07813-.17188 2.73437.23438.125c.34375-.39062.65625-.5625 1.09375-.5625.53125 0 1.07812.39063 1.07812 1.4375 0 .82813-.32812 1.45313-.98437 1.45313-.51563 0-.79688-.375-.98438-.90625C1.04688-1.25.95313-1.34375.8125-1.34375c-.1875 0-.46875.17188-.46875.46875m0 0"/><path id="d" d="M.32813-1.5c0 .92188.625 1.59375 1.875 1.59375 1.28125 0 1.89062-.67187 1.89062-1.59375 0-.8125-.48437-1.29687-1.07812-1.4375.48437-.14062.89062-.5625.89062-1.21875 0-.90625-.70312-1.40625-1.70312-1.40625C1.21875-5.5625.5-5.04687.5-4.15625.5-3.5.9375-3.07812 1.40625-2.9375.82813-2.79687.32813-2.3125.32813-1.5m.9375.01563c0-.71875.32812-1.26563.9375-1.26563.625 0 .95312.54688.95312 1.26563 0 .73437-.29687 1.28125-.95312 1.28125-.64063 0-.9375-.54688-.9375-1.28125m.14062-2.6875c0-.625.28125-1.07813.79688-1.07813.53125 0 .8125.45313.8125 1.07813 0 .5625-.25 1.09375-.8125 1.09375-.53125 0-.79688-.53125-.79688-1.09375m0 0"/><path id="e" d="M.21875-.875c0 .34375.54688.96875 1.78125.96875 1.21875 0 1.98438-.59375 1.98438-1.64062 0-1.10938-.96875-1.40625-1.39063-1.45313v-.03125C3.03125-3.10937 3.75-3.42187 3.75-4.23437c0-.95313-.79687-1.32813-1.65625-1.32813-1.04687 0-1.65625.57813-1.65625 1 0 .28125.3125.42188.45313.42188.125 0 .20312-.07813.23437-.1875.1875-.57813.46875-.92188.90625-.92188.60938 0 .76563.5625.76563 1s-.14063 1.10938-.8125 1.10938c-.375 0-.625-.09375-.73438-.09375-.125 0-.17187.09375-.17187.26562 0 .15625.04687.25.17187.25.10938 0 .35938-.09375.73438-.09375C2.60938-2.8125 3-2.28125 3-1.5c0 .9375-.4375 1.29688-.98437 1.29688-.5 0-.84375-.375-1.01563-.90625-.04687-.15626-.14062-.25-.26562-.25-.1875 0-.51563.17187-.51563.48437m0 0"/><path id="f" d="M.89063 0H3.625v-.25l-.65625-.0625c-.17187-.01562-.26562-.07812-.26562-.39062v-4.8125l-.04688-.04688-1.76562.29688v.21875l.70312.09375c.17188.03125.21875.09375.21875.34375v3.90625c0 .3125-.07812.375-.26562.39062L.89063-.25Zm0 0"/><path id="g" d="m.32813-4.25.25.01563.07812-.17188C.75-4.625.85938-4.75 1.23438-4.75h2.1875c-.07813.28125-.25.8125-.92188 1.71875-.6875.95313-1.15625 1.84375-1.15625 2.75 0 .3125.23438.375.51563.375.23437 0 .4375-.04687.4375-.35937C2.3125-1.46875 2.5-2.25 2.90625-2.92187c.57813-.96875 1-1.48438 1.23438-2.45313l-.07813-.09375H.60938Zm0 0"/><path id="h" d="M.48438-3.90625c0 2.34375.6875 4.04688 2.60937 4.04688 1.9375 0 2.625-1.70313 2.625-4.04688s-.6875-4.04687-2.625-4.04687C1.17188-7.95312.48438-6.25.48438-3.90625m1.1875 0c0-1.90625.3125-3.625 1.42187-3.625 1.10938 0 1.4375 1.71875 1.4375 3.625s-.32812 3.625-1.4375 3.625c-1.10937 0-1.42187-1.71875-1.42187-3.625m0 0"/><path id="i" d="M1.26563 0h3.84375v-.32812L4.125-.42187C3.875-.45312 3.75-.53125 3.75-1v-6.89062l-.0625-.0625-2.42187.42187V-7.25l1.09375.14063c.20312.01562.28125.10937.28125.4375V-1c0 .46875-.10938.54688-.39063.57813l-.98437.09375Zm0 0"/><path id="j" d="M.3125-.10937.4375 0h4.84375l.39063-1.54687-.32813-.0625c-.25.64062-.48437.71875-.95312.71875H1.40625c.1875-.60938.875-1.4375 1.96875-2.21875 1.10938-.82813 1.98438-1.34375 1.98438-2.65625 0-1.625-1.07813-2.1875-2.3125-2.1875C1.4375-7.95312.625-6.98437.625-6.375c0 .40625.4375.59375.64063.59375.21874 0 .29687-.125.34375-.32812.1875-.79688.64062-1.42188 1.35937-1.42188.90625 0 1.15625.73438 1.15625 1.59375 0 1.26563-.625 1.96875-1.65625 2.85938C1.03125-1.8125.53125-1.01562.3125-.10937m0 0"/><path id="k" d="M.3125-1.1875c0 .48438.8125 1.32813 2.46875 1.32813 1.6875 0 2.75-.85938 2.75-2.35938 0-1.5625-1.34375-2.01562-1.98437-2.07812v-.0625c.625-.09375 1.64062-.5625 1.64062-1.71875 0-1.29688-1.01562-1.875-2.26562-1.875C1.375-7.95312.625-7.04687.625-6.54687.625-6.1875 1.03125-6 1.1875-6s.25-.07812.29688-.23437c.25-.79688.6875-1.29688 1.34375-1.29688C3.75-7.53125 4-6.73437 4-6.0625c0 .6875-.25 1.57813-1.25 1.57813-.5625 0-.89062-.125-1.01562-.125-.15626 0-.21876.125-.21876.32812s.0625.32813.21876.32813c.125 0 .45312-.10938 1.01562-.10938 1 0 1.54688.89063 1.54688 1.90625 0 1.39063-.67188 1.875-1.51563 1.875-.76562 0-1.28125-.5625-1.5-1.21875-.07812-.23437-.1875-.34375-.34375-.34375-.21875 0-.625.23438-.625.65625m0 0"/><clipPath id="a"><path d="M556 0h18.00781v22H556Zm0 0"/></clipPath></defs><path fill="none" stroke="#000" stroke-miterlimit="10" stroke-width=".79601" d="M7.39062 9.2461h560.0586"/><path d="M571.60938 9.2461c-.51172-.10548-2.75782-.70704-4.16016-1.36329v2.72657c1.40234-.65625 3.64844-1.25782 4.16016-1.36329m0 0"/><g clip-path="url(#a)"><path fill="none" stroke="#000" stroke-miterlimit="10" stroke-width=".79601" d="M571.60938 9.2461c-.51172-.10547-2.75782-.70704-4.16016-1.36329v2.72656c1.40234-.65624 3.64844-1.2578 4.16016-1.36328Zm0 0"/></g><use xlink:href="#b" x="445.33644" y="26.28086"/><use xlink:href="#c" x="449.7506" y="26.28086"/><path fill="none" stroke="#000" stroke-miterlimit="10" stroke-width=".68415" d="M445.33594 27.98437h8.82812"/><use xlink:href="#d" x="447.54368" y="35.65912"/><use xlink:href="#e" x="58.26689" y="26.28086"/><path fill="none" stroke="#000" stroke-miterlimit="10" stroke-width=".68415" d="M58.26563 27.98437h4.41406"/><use xlink:href="#d" x="58.26689" y="35.65912"/><use xlink:href="#f" x="303.78186" y="26.28086"/><use xlink:href="#g" x="308.19601" y="26.28086"/><path fill="none" stroke="#000" stroke-miterlimit="10" stroke-width=".68415" d="M303.78125 27.98437h8.82812"/><use xlink:href="#d" x="305.9891" y="35.65912"/><path fill="none" stroke="#000" stroke-miterlimit="10" stroke-width=".79601" d="M7.39062.39844v17.69531"/><use xlink:href="#h" x="4.29469" y="30.6836"/><path fill="none" stroke="#000" stroke-miterlimit="10" stroke-width=".398" d="M7.39062 3.9375v10.61719M25.08594 3.9375v10.61719M42.78125 3.9375v10.61719M60.47656 3.9375v10.61719M78.16797 3.9375v10.61719M95.86328 3.9375v10.61719M113.5586 3.9375v10.61719M131.2539 3.9375v10.61719"/><path fill="none" stroke="#000" stroke-miterlimit="10" stroke-width=".79601" d="M148.94922.39844v17.69531"/><use xlink:href="#i" x="145.84952" y="30.6836"/><path fill="none" stroke="#000" stroke-miterlimit="10" stroke-width=".398" d="M148.94922 3.9375v10.61719m17.6914-10.61719v10.61719M184.33594 3.9375v10.61719M202.03125 3.9375v10.61719M219.72656 3.9375v10.61719M237.42187 3.9375v10.61719M255.11719 3.9375v10.61719M272.8086 3.9375v10.61719"/><path fill="none" stroke="#000" stroke-miterlimit="10" stroke-width=".79601" d="M290.5039.39844v17.69531"/><use xlink:href="#j" x="287.40436" y="30.6836"/><path fill="none" stroke="#000" stroke-miterlimit="10" stroke-width=".398" d="M290.5039 3.9375v10.61719M308.19922 3.9375v10.61719M325.89453 3.9375v10.61719M343.58984 3.9375v10.61719M361.28125 3.9375v10.61719M378.97656 3.9375v10.61719M396.67187 3.9375v10.61719M414.36719 3.9375v10.61719"/><path fill="none" stroke="#000" stroke-miterlimit="10" stroke-width=".79601" d="M432.0625.39844v17.69531"/><use xlink:href="#k" x="428.95919" y="30.6836"/><path fill="none" stroke="#000" stroke-miterlimit="10" stroke-width=".398" d="M432.0625 3.9375v10.61719M449.75781 3.9375v10.61719M467.44922 3.9375v10.61719M485.14453 3.9375v10.61719M502.83984 3.9375v10.61719M520.53516 3.9375v10.61719M538.23047 3.9375v10.61719M555.92188 3.9375v10.61719"/></svg>