<svg xmlns="http://www.w3.org/2000/svg" xmlns:xlink="http://www.w3.org/1999/xlink" width="607.276pt" height="90.312pt" viewBox="0 0 607.276 90.312"><defs><path id="b" d="M.76563-6.21875C.76563-2.5 1.85938.21875 4.92188.21875S9.09375-2.5 9.09375-6.21875s-1.10937-6.42187-4.17187-6.42187S.76563-9.9375.76563-6.21875m1.89062 0c0-3.01562.51563-5.76562 2.26563-5.76562 1.76562 0 2.28125 2.75 2.28125 5.76562 0 3.03125-.51563 5.78125-2.28125 5.78125-1.75 0-2.26563-2.75-2.26563-5.78125m0 0"/><path id="c" d="M2.01563 0H8.125v-.53125L6.5625-.67187c-.39062-.04688-.60937-.17188-.60937-.90625v-10.96875l-.09375-.09375-3.84375.65625v.45312l1.75.21875c.3125.03125.42187.17188.42187.70313v9.03125c0 .73437-.17187.85937-.60937.90625l-1.5625.14062Zm0 0"/><path id="d" d="M.5-.17187.6875 0h7.70313l.625-2.45312L8.5-2.54687c-.39062 1-.76562 1.14062-1.51562 1.14062h-4.75c.29687-.96875 1.40625-2.29687 3.125-3.54687C7.14063-6.25 8.53125-7.07812 8.53125-9.15625c0-2.59375-1.71875-3.48437-3.6875-3.48437-2.54687 0-3.85937 1.54687-3.85937 2.51562 0 .625.71875.92188 1.03125.92188.34375 0 .45312-.1875.53125-.51563.29687-1.26562 1.03125-2.26562 2.1875-2.26562 1.42187 0 1.82812 1.1875 1.82812 2.54687 0 2-1 3.125-2.625 4.54688C1.64063-2.89062.84375-1.625.5-.17187m0 0"/><path id="e" d="M.5-1.90625c0 .79688 1.28125 2.125 3.90625 2.125 2.6875 0 4.39063-1.35937 4.39063-3.73437 0-2.5-2.125-3.23438-3.15625-3.32813v-.07812c1-.15625 2.60937-.90625 2.60937-2.75 0-2.0625-1.60937-2.96875-3.59375-2.96875-2.45312 0-3.67187 1.42187-3.67187 2.21875 0 .57812.65625.89062.92187.89062.23438 0 .375-.14062.45313-.375.40625-1.26562 1.10937-2.07812 2.15625-2.07812 1.45312 0 1.82812 1.28125 1.82812 2.32812 0 1.10938-.39062 2.51563-1.96875 2.51563-.89062 0-1.40625-.17188-1.625-.17188-.23437 0-.34375.17188-.34375.5 0 .32813.10938.51563.34375.51563.21875 0 .73438-.17188 1.625-.17188 1.57813 0 2.46875 1.42188 2.46875 3.04688C6.84375-1.20312 5.75-.4375 4.4375-.4375c-1.23437 0-2.04687-.90625-2.40625-1.95312-.10937-.35938-.29687-.53125-.54687-.53125C1.14063-2.92187.5-2.57812.5-1.90625m0 0"/><path id="f" d="m.35938-3.71875.15625.39063h5.0625v1.90625c0 .625-.20313.73437-.65625.76562l-1.1875.125V0h4.90625v-.53125L7.8125-.64062c-.4375-.04688-.54687-.15626-.54687-.78125v-1.90625h1.89062v-.85938H7.26563v-8.23437h-1.375C4.15625-9.84375 2.0625-6.625.35938-3.71875m1.34375-.46875c1.10937-2.03125 2.45312-4.1875 3.875-6.4375v6.4375Zm0 0"/><path id="g" d="M.75-1.90625c0 .85938 1.3125 2.125 3.71875 2.125C7.53125.21875 8.92188-1.64062 8.92188-4c0-2.60937-1.625-3.9375-3.84375-3.9375-1.01563 0-2.15625.45313-2.75 1L2.75-10.46875C2.8125-10.9375 2.92188-11 3.28125-11h4.625l.46875-1.26562-.10937-.15625H2.0625L1.875-12.25 1.5-6.03125l.45313.23438C2.73438-6.6875 3.48438-7.125 4.48438-7.125c1.1875 0 2.5.875 2.5 3.32813 0 1.92187-.76563 3.35937-2.39063 3.35937-1.3125 0-1.96875-.92187-2.34375-2-.09375-.26562-.26562-.45312-.53125-.45312-.375 0-.96875.375-.96875.98437m0 0"/><path id="h" d="M.8125-5.73437c0 4.01562 1.46875 5.95312 4.25 5.95312 2.75 0 4.21875-1.65625 4.21875-4.1875 0-2.51562-1.54687-3.89062-3.54687-3.89062-1.46875 0-2.54688 1-3.04688 1.60937.01563-4.09375 1.15625-5.73437 2.82813-5.73437.85937 0 1.46875.70312 1.75 1.78125.04687.21875.1875.39062.46875.39062.42187 0 .98437-.32812.98437-.84375 0-.75-.90625-1.98437-3.14062-1.98437-2.95313 0-4.76563 2.28125-4.76563 6.90625m1.875 1.34375c0-1.125.85938-2.51563 2.42188-2.51563 1.15625 0 2.3125 1.07813 2.3125 3.20313 0 1.96875-.75 3.26562-2.3125 3.26562-1.625 0-2.42188-1.71875-2.42188-3.95312m0 0"/><path id="i" d="M.76563-9.8125h.5l.17187-.39062c.25-.51563.5-.79688 1.32813-.79688h5.03125c-.1875.67188-.53125 1.75-2.04688 3.90625C4.15625-4.8125 3.10938-2.73437 3.10938-.53125c0 .60938.4375.75 1 .75C4.625.21875 5 .09375 5-.5c0-2.84375.5-4.5625 1.40625-6.14062 1.1875-2.07813 2.17188-3.25 2.82813-5.57813l-.15625-.20312H1.34375Zm0 0"/><path id="j" d="M.76563-3.375C.76563-1.5 1.92188.21875 4.92188.21875 7.9375.21875 9.07813-1.5 9.07813-3.375c0-1.90625-1.1875-3.01562-2.45313-3.3125 1.125-.29687 2.04688-1.26562 2.04688-2.78125 0-2.03125-1.60938-3.17187-3.75-3.17187-2.125 0-3.73438 1.14062-3.73438 3.17187 0 1.51563.95313 2.48438 2.0625 2.78125C2-6.39062.76563-5.28125.76563-3.375m1.85937.04688c0-1.70313.8125-2.96875 2.29688-2.96875s2.29687 1.26562 2.29687 2.96875c0 1.64062-.73437 2.89062-2.29687 2.89062S2.625-1.6875 2.625-3.32812m.35938-6.1875c0-1.42188.67187-2.46875 1.9375-2.46875 1.26562 0 1.9375 1.04687 1.9375 2.46875 0 1.26562-.59375 2.54687-1.9375 2.54687S2.98438-8.25 2.98438-9.51562m0 0"/><path id="k" d="M.67188-8.45312c0 2.51562 1.54687 3.89062 3.54687 3.89062 1.45313 0 2.54688-1 3.04688-1.60937C7.23438-2.07812 6.10938-.4375 4.4375-.4375c-.85937 0-1.46875-.70312-1.75-1.78125-.0625-.21875-.1875-.39062-.46875-.39062-.42187 0-1 .32812-1 .84375 0 .75.92188 1.98437 3.15625 1.98437 2.9375 0 4.76563-2.28125 4.76563-6.90625 0-4.01562-1.46875-5.95312-4.25-5.95312-2.75 0-4.21875 1.65625-4.21875 4.1875m1.85937-.26563c0-1.96875.75-3.26562 2.3125-3.26562 1.625 0 2.42188 1.71875 2.42188 3.95312 0 1.125-.85938 2.51563-2.42188 2.51563-1.17187 0-2.3125-1.07813-2.3125-3.20313m0 0"/><path id="l" d="M1.40625 0h4.35938v-.40625L4.73438-.5c-.29688-.03125-.42188-.125-.42188-.60937v-7.67188l-.09375-.0625-2.79687.46875v.34375l1.125.15625c.25.04688.32812.14063.32812.53125v6.23438c0 .48437-.125.57812-.42187.60937l-1.04688.09375Zm0 0"/><path id="m" d="M.375-.15625.53125 0h5.5L6.5-1.85937l-.375-.0625c-.3125.6875-.54687.78125-1.07812.78125h-3.3125c.20312-.625.89062-1.48438 2.15625-2.32813 1.3125-.89062 2.25-1.5 2.25-2.92187 0-1.8125-1.21875-2.45313-2.67188-2.45313-1.76562 0-2.78125 1.01563-2.78125 1.8125 0 .46875.54688.6875.82813.6875.25 0 .35937-.14062.42187-.39062.20313-.90625.6875-1.625 1.45313-1.625.92187 0 1.20312.78125 1.20312 1.73437 0 1.25-.5625 2.07813-1.78125 3.14063C1.15625-2.0625.5625-1.125.375-.15625m0 0"/><path id="n" d="M.35938-1.39062c0 .54687.85937 1.54687 2.82812 1.54687 1.9375 0 3.14063-.95312 3.14063-2.60937 0-1.76563-1.53125-2.23438-2.20313-2.3125v-.04688c.70313-.125 1.82813-.64062 1.82813-1.92187 0-1.51563-1.25-2.10938-2.625-2.10938C1.65625-8.84375.6875-7.92187.6875-7.25c0 .4375.51563.67188.73438.67188.20312 0 .3125-.125.375-.3125.29687-.92188.73437-1.46875 1.4375-1.46875.96875 0 1.20312.90625 1.20312 1.60937 0 .6875-.21875 1.75-1.28125 1.75-.59375 0-.98437-.14062-1.17187-.14062-.20313 0-.26563.15625-.26563.40625s.0625.40625.26563.40625c.1875 0 .57812-.14063 1.17187-.14063 1 0 1.625.82813 1.625 2.07813 0 1.48437-.70312 2.0625-1.57812 2.0625-.79688 0-1.32813-.59375-1.60938-1.4375-.07812-.25-.21875-.39063-.4375-.39063-.28125 0-.79687.28125-.79687.76563m0 0"/><path id="o" d="m.53125-6.76562.375.03125L1.03125-7c.17188-.34375.34375-.5625.92188-.5625H5.4375c-.125.45313-.39062 1.29688-1.45312 2.73438C2.875-3.3125 2.14063-1.875 2.14063-.45312c0 .51562.35937.60937.8125.60937.39062 0 .70312-.09375.70312-.57812.01563-1.90625.32813-3.15625.96875-4.21875.92188-1.54688 1.57813-2.375 1.96875-3.92188l-.125-.125h-5.5Zm0 0"/><clipPath id="a"><path d="M586 36h18.6211v26H586Zm0 0"/></clipPath></defs><path fill="none" stroke="#000" stroke-miterlimit="10" stroke-width=".79098" d="M13.44922 48.73828h584.6526"/><path d="M602.23438 48.73828c-.50782-.10547-2.73829-.70312-4.13282-1.35547v2.70703c1.39453-.64843 3.625-1.24609 4.13282-1.35156m0 0"/><g clip-path="url(#a)"><path fill="none" stroke="#000" stroke-miterlimit="10" stroke-width=".79098" d="M602.23438 48.73828c-.50782-.10547-2.73829-.70312-4.13282-1.35547v2.70703c1.39453-.64843 3.625-1.24609 4.13282-1.35156Zm0 0"/></g><path fill="none" stroke="#000" stroke-miterlimit="10" stroke-width=".79098" d="M13.44922 34.67187v28.13282"/><use xlink:href="#b" x="8.52717" y="82.82107"/><path fill="none" stroke="#000" stroke-miterlimit="10" stroke-width=".79098" d="M69.71487 34.67187v28.13282"/><use xlink:href="#c" x="64.79154" y="82.82107"/><path fill="none" stroke="#000" stroke-miterlimit="10" stroke-width=".79098" d="M125.98052 34.67187v28.13282"/><use xlink:href="#d" x="121.05592" y="82.82107"/><path fill="none" stroke="#000" stroke-miterlimit="10" stroke-width=".79098" d="M182.24617 34.67187v28.13282"/><use xlink:href="#e" x="177.32029" y="82.82107"/><path fill="none" stroke="#000" stroke-miterlimit="10" stroke-width=".79098" d="M238.51182 34.67187v28.13282"/><use xlink:href="#f" x="233.58467" y="82.60372"/><path fill="none" stroke="#000" stroke-miterlimit="10" stroke-width=".79098" d="M294.77747 34.67187v28.13282"/><use xlink:href="#g" x="289.84805" y="82.60372"/><path fill="none" stroke="#000" stroke-miterlimit="10" stroke-width=".79098" d="M351.03921 34.67187v28.13282"/><use xlink:href="#h" x="346.11243" y="82.82107"/><path fill="none" stroke="#000" stroke-miterlimit="10" stroke-width=".79098" d="M407.30486 34.67187v28.13282"/><use xlink:href="#i" x="402.3768" y="82.60372"/><path fill="none" stroke="#000" stroke-miterlimit="10" stroke-width=".79098" d="M463.57051 34.67187v28.13282"/><use xlink:href="#j" x="458.64118" y="82.82107"/><path fill="none" stroke="#000" stroke-miterlimit="10" stroke-width=".79098" d="M519.83616 34.67187v28.13282"/><use xlink:href="#k" x="514.90556" y="82.82107"/><path fill="none" stroke="#000" stroke-miterlimit="10" stroke-width=".79098" d="M576.10181 34.67187v28.13282"/><use xlink:href="#c" x="566.24644" y="82.82107"/><use xlink:href="#b" x="576.09421" y="82.82107"/><path fill="none" stroke="#000" stroke-miterlimit="10" stroke-width=".39549" d="M420.54315 40.29687v16.87891"/><use xlink:href="#l" x="410.01164" y="15.43541"/><use xlink:href="#m" x="417.02966" y="15.43541"/><use xlink:href="#n" x="424.04768" y="15.43541"/><path fill="none" stroke="#000" stroke-miterlimit="10" stroke-width="1.08771" d="M410.01172 18.14453h21.05468"/><use xlink:href="#l" x="413.52091" y="30.34582"/><use xlink:href="#o" x="420.53893" y="30.34582"/></svg>