<svg xmlns="http://www.w3.org/2000/svg" xmlns:xlink="http://www.w3.org/1999/xlink" width="635.623pt" height="55.775pt" viewBox="0 0 635.623 55.775"><defs><path id="b" d="M.78125-6.23437C.78125-2.5 1.85938.21875 4.9375.21875S9.125-2.5 9.125-6.23437 8.01563-12.6875 4.9375-12.6875.78125-9.96875.78125-6.23437m1.875 0c0-3.03125.51563-5.79688 2.28125-5.79688 1.76563 0 2.28125 2.76563 2.28125 5.79688 0 3.04687-.51562 5.79687-2.28125 5.79687-1.76562 0-2.28125-2.75-2.28125-5.79687m0 0"/><path id="c" d="M2.03125 0h6.125v-.53125l-1.5625-.14062c-.40625-.04688-.625-.1875-.625-.92188v-10.98437L5.875-12.6875l-3.84375.65625v.46875l1.73438.21875c.32812.03125.4375.17188.4375.70313v9.04687c0 .73438-.17188.875-.60938.92188l-1.5625.14062Zm0 0"/><clipPath id="a"><path d="M616 1h18.16016v27H616Zm0 0"/></clipPath></defs><path fill="none" stroke="#000" stroke-miterlimit="10" stroke-width=".79381" d="M12.64453 14.51172H627.6171"/><path d="M631.76563 14.51172c-.51172-.10547-2.75-.70313-4.14844-1.35938v2.71875c1.39843-.65234 3.63672-1.2539 4.14843-1.35937m0 0"/><g clip-path="url(#a)"><path fill="none" stroke="#000" stroke-miterlimit="10" stroke-width=".79381" d="M631.76562 14.51172c-.51171-.10547-2.75-.70313-4.14843-1.35938v2.71875c1.39844-.65234 3.63672-1.2539 4.14843-1.35937Zm0 0"/></g><path fill="none" stroke="#000" stroke-miterlimit="10" stroke-width=".79381" d="M12.64453.39453V28.6289"/><use xlink:href="#b" x="7.7035" y="48.71847"/><path fill="none" stroke="#000" stroke-miterlimit="10" stroke-width=".79381" d="M351.44136.39453V28.6289"/><use xlink:href="#c" x="346.49379" y="48.71847"/></svg>