<svg xmlns="http://www.w3.org/2000/svg" xmlns:xlink="http://www.w3.org/1999/xlink" width="635.623pt" height="63.527pt" viewBox="0 0 635.623 63.527"><defs><path id="b" d="M1.40625 0h4.35938v-.40625L4.73438-.5c-.29688-.03125-.42188-.125-.42188-.60937v-7.67188l-.09375-.0625-2.79687.46875v.34375l1.125.15625c.25.04688.32812.14063.32812.53125v6.23438c0 .48437-.125.57812-.42187.60937l-1.04688.09375Zm0 0"/><path id="c" d="M.375-.15625.53125 0h5.5L6.5-1.85937l-.375-.0625c-.3125.6875-.54687.78125-1.07812.78125h-3.3125c.20312-.625.89062-1.48438 2.15625-2.32813 1.3125-.89062 2.25-1.5 2.25-2.92187 0-1.8125-1.21875-2.45313-2.67188-2.45313-1.76562 0-2.78125 1.01563-2.78125 1.8125 0 .46875.54688.6875.82813.6875.25 0 .35937-.14062.42187-.39062.20313-.90625.6875-1.625 1.45313-1.625.92187 0 1.20312.78125 1.20312 1.73437 0 1.25-.5625 2.07813-1.78125 3.14063C1.15625-2.0625.5625-1.125.375-.15625m0 0"/><path id="d" d="M.76563-6.21875C.76563-2.5 1.85938.21875 4.92188.21875S9.09375-2.5 9.09375-6.21875s-1.10937-6.42187-4.17187-6.42187S.76563-9.9375.76563-6.21875m1.89062 0c0-3.01562.51563-5.76562 2.26563-5.76562 1.76562 0 2.28125 2.75 2.28125 5.76562 0 3.03125-.51563 5.78125-2.28125 5.78125-1.75 0-2.26563-2.75-2.26563-5.78125m0 0"/><path id="e" d="M2.01563 0H8.125v-.53125L6.5625-.67187c-.39062-.04688-.60937-.17188-.60937-.90625v-10.96875l-.09375-.09375-3.84375.65625v.45312l1.75.21875c.3125.03125.42187.17188.42187.70313v9.03125c0 .73437-.17187.85937-.60937.90625l-1.5625.14062Zm0 0"/><clipPath id="a"><path d="M615 1h18.08594v27H615Zm0 0"/></clipPath></defs><path fill="none" stroke="#000" stroke-miterlimit="10" stroke-width=".79112" d="M13.67969 14.46484h612.88648"/><path d="M630.70313 14.46484c-.50782-.10547-2.7422-.70312-4.13672-1.35547v2.71094c1.39453-.65234 3.6289-1.25 4.13671-1.35547m0 0"/><g clip-path="url(#a)"><path fill="none" stroke="#000" stroke-miterlimit="10" stroke-width=".79112" d="M630.70312 14.46484c-.5078-.10546-2.74218-.70312-4.13671-1.35546v2.71093c1.39453-.65234 3.6289-1.25 4.13671-1.35547Zm0 0"/></g><path fill="none" stroke="#00F" stroke-miterlimit="10" stroke-width=".39556" d="M13.67969 6.02344v16.8828m168.82025-16.8828v16.8828M351.3241 6.02344v16.8828m168.82415-16.8828v16.8828"/><path fill="none" stroke="#00F" stroke-miterlimit="10" stroke-width=".79112" d="M182.49994.39454v28.1367"/><use xlink:href="#b" x="178.99111" y="41.55261" fill="#00F"/><path fill="none" stroke="#00F" stroke-miterlimit="10" stroke-width="1.0879" d="M178.99219 44.26172h7.01953"/><use xlink:href="#c" x="178.99111" y="56.46558" fill="#00F"/><path fill="none" stroke="#000" stroke-miterlimit="10" stroke-width=".79112" d="M13.67969.39454v28.1367"/><use xlink:href="#d" x="8.75364" y="48.55349"/><path fill="none" stroke="#000" stroke-miterlimit="10" stroke-width=".79112" d="M351.3241.39454v28.1367"/><use xlink:href="#e" x="346.39666" y="48.55349"/></svg>