<svg xmlns="http://www.w3.org/2000/svg" xmlns:xlink="http://www.w3.org/1999/xlink" width="715.026" height="110.322" viewBox="0 0 715.026 110.322"><defs><path id="a" d="M.625-1.5625c0 .625.95313 1.73438 3.03125 1.73438 2.48438 0 3.54688-1.48438 3.54688-3.32813 0-1.85937-1.125-3.10937-3.09375-3.10937-.84375 0-1.70313.375-2.20313.79687l.3125-2.57812c.0625-.40625.125-.46875.4375-.46875h3.70313l.42187-1.14063-.09375-.14062H1.60938l-.125.14062-.29688 4.89063.42188.25c.59375-.70313 1.17187-1.03125 1.95312-1.03125.9375 0 1.90625.70312 1.90625 2.5625 0 1.5-.5625 2.60937-1.73437 2.60937-.9375 0-1.4375-.67187-1.76563-1.625-.09375-.25-.25-.40625-.5-.40625-.34375 0-.84375.3125-.84375.84375m0 0"/><path id="b" d="M1.59375 0H6.5v-.45312L5.32813-.5625C5-.59375 4.84375-.70312 4.84375-1.25v-8.64062L4.75-9.96875l-3.14062.53125v.39063L2.875-8.875c.28125.04688.375.15625.375.60938V-1.25c0 .54688-.14062.65625-.48437.6875l-1.17188.10938Zm0 0"/><path id="c" d="M.59375-4.89062c0 2.85937.875 5.0625 3.35938 5.0625 2.5 0 3.375-2.20313 3.375-5.0625 0-2.875-.875-5.07813-3.375-5.07813-2.48438 0-3.35938 2.20313-3.35938 5.07813m1.6875 0c0-2.21875.34375-4.53125 1.67188-4.53125 1.34375 0 1.6875 2.3125 1.6875 4.53125 0 2.20312-.34375 4.51562-1.6875 4.51562-1.32813 0-1.67188-2.3125-1.67188-4.51562m0 0"/><path id="d" d="M.40625-1.5625c0 .60938.96875 1.73438 3.1875 1.73438 2.17188 0 3.53125-1.0625 3.53125-2.9375 0-1.98438-1.73437-2.51563-2.48437-2.59375v-.0625c.79687-.14063 2.0625-.71875 2.0625-2.15625 0-1.71875-1.40625-2.39063-2.95313-2.39063-1.875 0-2.96875 1.04688-2.96875 1.79688 0 .5.57813.76562.82813.76562.21874 0 .34375-.14062.42187-.35937.32813-1.03125.82813-1.65625 1.625-1.65625C4.73438-9.42187 5-8.39062 5-7.60937S4.75-5.625 3.5625-5.625c-.67187 0-1.10937-.15625-1.32812-.15625s-.29688.17188-.29688.45313.07813.45312.29688.45312.65625-.15625 1.32812-.15625c1.10938 0 1.8125.9375 1.8125 2.32813 0 1.6875-.78125 2.32812-1.76562 2.32812-.89063 0-1.5-.67187-1.8125-1.625-.09376-.28125-.25-.4375-.48438-.4375-.32812 0-.90625.3125-.90625.875m0 0"/><path id="e" d="M.60938-4.57812c0 3.10937 1.10937 4.75 3.4375 4.75 2.28125 0 3.4375-1.39063 3.4375-3.32813 0-1.98437-1.26563-3.0625-2.82813-3.0625-1.09375 0-1.92187.71875-2.35937 1.25.01562-2.71875.73437-4.45312 2.0625-4.45312.65625 0 1.10937.57812 1.34375 1.45312.0625.1875.20312.34375.45312.34375.34375 0 .85938-.26562.85938-.71875 0-.625-.75-1.625-2.5625-1.625-2.35938 0-3.84375 1.79688-3.84375 5.39063m1.6875 1.10937c0-.85937.625-1.89062 1.76562-1.89062.90625 0 1.73438.79687 1.73438 2.45312 0 1.5-.51563 2.53125-1.70313 2.53125-1.20312 0-1.79687-1.375-1.79687-3.09375m0 0"/><path id="f" d="M.42188-.17187.59375 0h6.20313l.53125-2.09375-.4375-.07812c-.34375.78125-.60938.89062-1.20313.89062H1.95313c.23437-.70312 1.01562-1.6875 2.42187-2.625 1.48438-1 2.54688-1.6875 2.54688-3.29687 0-2.04688-1.39063-2.76563-3.01563-2.76563-1.98437 0-3.125 1.15625-3.125 2.04688 0 .53125.60938.78125.92188.78125.28124 0 .42187-.15625.48437-.4375.23438-1.03125.78125-1.84375 1.64063-1.84375 1.01562 0 1.34375.89062 1.34375 1.95312 0 1.42188-.64063 2.35938-2 3.54688-1.875 1.59375-2.53125 2.65625-2.75 3.75m0 0"/><path id="g" d="m.29688-2.95312.17187.34375h3.92188V-1.125c0 .46875-.17188.54688-.48438.57813l-.9375.09374V0h4.01563v-.45312L6.3125-.53125C6-.57812 5.89063-.65625 5.89063-1.125v-1.48437h1.5V-3.375h-1.5v-6.42187h-1.25c-1.40625 2.09375-3 4.57812-4.34375 6.84375m1.1875-.42188c.82812-1.51562 1.84375-3.17187 2.90625-4.89062V-3.375Zm0 0"/><path id="h" d="M.875-7C.875-2.8125 2.09375.25 5.54688.25S10.25-2.8125 10.25-7 9-14.23437 5.54688-14.23437.875-11.1875.875-7m2.10938 0c0-3.40625.57812-6.5 2.5625-6.5 1.98437 0 2.5625 3.09375 2.5625 6.5S7.53125-.48437 5.54688-.48437C3.5625-.48437 2.98438-3.59375 2.98438-7m0 0"/><path id="i" d="M2.26563 0h6.89062v-.60937L7.39063-.75c-.4375-.04687-.6875-.20312-.6875-1.03125V-14.125l-.10938-.10937L2.26563-13.5v.51563l1.96875.23437c.35937.04688.48437.20313.48437.8125v10.15625c0 .82813-.20312.98438-.6875 1.03125l-1.76562.14063Zm0 0"/></defs><path fill="none" stroke="#000" stroke-miterlimit="10" stroke-width=".79214" d="M14.67188 54.73828h696.50788"/><path fill="none" stroke="#000" stroke-linecap="round" stroke-linejoin="round" stroke-miterlimit="10" stroke-width=".79214" d="M709.03906 51.64844c.46485 1.85156 1.4961 2.73047 2.53516 3.08984-1.03906.35938-2.07031 1.23828-2.53516 3.09375"/><path fill="none" stroke="#BF0040" stroke-miterlimit="10" stroke-width=".39607" d="M14.67188 45.23047V64.2461m38.03516-19.01563V64.2461M90.7422 45.23047V64.2461m38.03516-19.01563V64.2461m38.03125-19.01563V64.2461m38.03516-19.01563V64.2461m38.03516-19.01563V64.2461m38.03517-19.01563V64.2461m38.03515-19.01563V64.2461m38.03516-19.01563V64.2461m38.03126-19.01563V64.2461m38.03516-19.01563V64.2461m38.03516-19.01563V64.2461m38.03516-19.01563V64.2461m38.03515-19.01563V64.2461m38.03517-19.01563V64.2461m38.03125-19.01563V64.2461"/><path fill="none" stroke="#BF0040" stroke-miterlimit="10" stroke-width=".79214" d="M204.84377 38.89062v31.69532"/><use xlink:href="#a" x="188.21246" y="17.21992" fill="#BF0040"/><path fill="none" stroke="#BF0040" stroke-miterlimit="10" stroke-width="1.22547" d="M184.25781 20.26953h15.8125"/><g fill="#BF0040"><use xlink:href="#b" x="184.25876" y="34.01645"/><use xlink:href="#c" x="192.16559" y="34.01645"/></g><use xlink:href="#d" x="188.21023" y="85.25282" fill="#FF7F00"/><path fill="none" stroke="#FF7F00" stroke-miterlimit="10" stroke-width="1.22547" d="M188.21094 88.30469h7.90625"/><use xlink:href="#e" x="188.21023" y="102.05158" fill="#FF7F00"/><use xlink:href="#f" x="213.56764" y="17.39087" fill="#007F7F"/><path fill="none" stroke="#007F7F" stroke-miterlimit="10" stroke-width="1.22547" d="M213.5664 20.44531h7.91016"/><use xlink:href="#g" x="213.56764" y="34.18963" fill="#007F7F"/><use xlink:href="#b" x="213.56764" y="85.25282" fill="#00F"/><path fill="none" stroke="#00F" stroke-miterlimit="10" stroke-width="1.22547" d="M213.5664 88.30469h7.91016"/><use xlink:href="#f" x="213.56764" y="102.05158" fill="#00F"/><path fill="none" stroke="#FF7F00" stroke-miterlimit="10" stroke-width=".79214" d="M268.2344 38.89062v31.69532"/><use xlink:href="#g" x="264.27998" y="85.08087" fill="#FF7F00"/><path fill="none" stroke="#FF7F00" stroke-miterlimit="10" stroke-width="1.22547" d="M264.28125 88.13281h7.90625"/><use xlink:href="#e" x="264.27998" y="101.87963" fill="#FF7F00"/><path fill="none" stroke="#000" stroke-miterlimit="10" stroke-width=".79214" d="M14.67188 38.89062v31.69532"/><use xlink:href="#h" x="9.12507" y="93.1386"/><path fill="none" stroke="#000" stroke-miterlimit="10" stroke-width=".79214" d="M395.01567 38.89062v31.69532"/><use xlink:href="#i" x="389.46464" y="93.1386"/></svg>