<svg xmlns="http://www.w3.org/2000/svg" xmlns:xlink="http://www.w3.org/1999/xlink" width="228.732pt" height="35.093pt" viewBox="0 0 228.732 35.093"><defs><path id="a" d="M.4375-3.5625c0 2.125.64063 3.6875 2.40625 3.6875 1.75 0 2.375-1.5625 2.375-3.6875 0-2.14062-.625-3.70312-2.375-3.70312-1.76562 0-2.40625 1.5625-2.40625 3.70312m1.07813 0c0-1.75.3125-3.32812 1.32812-3.32812 1 0 1.29688 1.57812 1.29688 3.32812 0 1.73438-.29688 3.3125-1.29688 3.3125-1.01562 0-1.32812-1.57812-1.32812-3.3125m0 0"/><path id="b" d="M1.15625 0h3.51563v-.3125l-.90625-.07812c-.21875-.01563-.34375-.09375-.34375-.51563v-6.29687l-.0625-.0625-2.20313.375v.26562l1 .125c.1875.03125.25.10938.25.40625v5.1875c0 .42188-.09375.5-.34375.51563l-.90625.07812Zm0 0"/><clipPath id="c"><path d="M208 0h17.71875v22H208Zm0 0"/></clipPath></defs><path fill="none" stroke="#000" stroke-miterlimit="10" stroke-width=".38846" d="M9.80078.1914v17.96485"/><use xlink:href="#a" x="6.959" y="29.87584"/><path fill="none" stroke="#000" stroke-miterlimit="10" stroke-width=".38846" d="M153.48835.1914v17.96485"/><use xlink:href="#b" x="150.64729" y="29.87584"/><path fill="none" stroke="#000" stroke-miterlimit="10" stroke-width=".77693" d="M9.80078 9.17578H219.3126"/><path d="M223.3711 9.17578c-.4961-.10547-2.6875-.6914-4.0586-1.33203v2.66016c1.3711-.64063 3.5625-1.22657 4.0586-1.32813m0 0"/><g clip-path="url(#c)"><path fill="none" stroke="#000" stroke-miterlimit="10" stroke-width=".77693" d="M223.3711 9.17578c-.4961-.10547-2.6875-.6914-4.0586-1.33203v2.66016c1.3711-.64063 3.5625-1.22657 4.0586-1.32813Zm0 0"/></g></svg>