<svg xmlns="http://www.w3.org/2000/svg" xmlns:xlink="http://www.w3.org/1999/xlink" width="379.697pt" height="56.445pt" viewBox="0 0 379.697 56.445"><defs><path id="b" d="M.48438-3.875c0 2.32813.67187 4.01563 2.57812 4.01563 1.92188 0 2.60938-1.6875 2.60938-4.01563 0-2.3125-.6875-4-2.60938-4-1.90625 0-2.57812 1.6875-2.57812 4m1.17187 0c0-1.875.3125-3.59375 1.40625-3.59375 1.10938 0 1.42188 1.71875 1.42188 3.59375 0 1.89063-.3125 3.60938-1.42188 3.60938-1.09375 0-1.40625-1.71875-1.40625-3.60938m0 0"/><path id="c" d="M1.25 0h3.8125v-.32812l-.96875-.09375c-.25-.01563-.39062-.10938-.39062-.5625V-7.8125l-.04688-.0625L1.25-7.46875v.28125l1.09375.14063c.20313.01562.26563.10937.26563.4375v5.625c0 .45312-.10938.54687-.375.5625L1.25-.32812Zm0 0"/><path id="d" d="M.3125-.10937.4375 0h4.79688L5.625-1.53125l-.32812-.0625c-.25.625-.48438.71875-.9375.71875H1.39063c.1875-.60937.875-1.4375 1.95312-2.20312 1.10938-.8125 1.96875-1.32813 1.96875-2.625 0-1.625-1.07812-2.17188-2.29687-2.17188-1.57813 0-2.40625.95313-2.40625 1.5625 0 .39063.45312.57813.64062.57813.21875 0 .29688-.125.34375-.3125.1875-.79688.64063-1.42188 1.35938-1.42188.875 0 1.14062.73438 1.14062 1.59375 0 1.23438-.625 1.9375-1.64062 2.82813C1.01563-1.79687.53125-1.01562.3125-.10937m0 0"/><path id="e" d="M.3125-1.1875c0 .5.79688 1.32813 2.4375 1.32813 1.67188 0 2.73438-.85938 2.73438-2.32813 0-1.5625-1.32813-2.01562-1.96875-2.07812v-.04688c.625-.09375 1.625-.5625 1.625-1.71875 0-1.28125-1-1.84375-2.25-1.84375C1.375-7.875.60938-6.98437.60938-6.5c0 .35938.40625.5625.57812.5625.14063 0 .23438-.09375.28125-.23437.25-.79688.6875-1.29688 1.34375-1.29688.90625 0 1.14063.79688 1.14063 1.45313 0 .6875-.25 1.5625-1.23438 1.5625-.54687 0-.875-.10938-1-.10938-.15625 0-.21875.10938-.21875.32813 0 .1875.0625.3125.21875.3125.125 0 .45313-.10938 1-.10938.98438 0 1.54688.89063 1.54688 1.90625 0 1.375-.67188 1.85938-1.5 1.85938-.76563 0-1.28125-.57813-1.5-1.21875-.0625-.23438-.1875-.34375-.34375-.34375-.20313 0-.60938.21874-.60938.64062m0 0"/><path id="f" d="m.21875-2.3125.10938.23438h3.14062v1.1875c0 .39062-.10937.45312-.40625.48437l-.73437.07813V0h3.0625v-.32812L4.875-.39062c-.28125-.04688-.34375-.10938-.34375-.5v-1.1875h1.17188v-.53125H4.53125v-5.125h-.85937C2.59375-6.14062 1.28125-4.125.21875-2.3125m.84375-.29687C1.75-3.875 2.59375-5.21875 3.46875-6.625v4.01563Zm0 0"/><path id="g" d="M.46875-1.1875c0 .53125.8125 1.32813 2.3125 1.32813 1.92188 0 2.78125-1.15625 2.78125-2.625 0-1.64063-1.01562-2.45313-2.39062-2.45313-.64063 0-1.34375.28125-1.71875.60938l.26562-2.1875c.03125-.29688.10938-.34375.32813-.34375H4.9375l.28125-.78125-.0625-.09375h-3.875l-.10937.10937L.9375-3.76562l.28125.15625c.48438-.5625.95313-.82813 1.57813-.82813.73437 0 1.5625.54688 1.5625 2.07813 0 1.1875-.48438 2.09375-1.5 2.09375-.8125 0-1.21875-.57813-1.45313-1.25-.0625-.17188-.17187-.28126-.32812-.28126-.23438 0-.60938.23438-.60938.60938m0 0"/><path id="h" d="M.5-3.57812c0 2.5.92188 3.71875 2.65625 3.71875 1.71875 0 2.625-1.04688 2.625-2.625 0-1.5625-.96875-2.40625-2.20312-2.40625-.92188 0-1.59375.60937-1.90625 1 .01562-2.5625.71875-3.57813 1.76562-3.57813.53125 0 .92188.4375 1.09375 1.10938.03125.14062.10938.25.28125.25.26563 0 .625-.21875.625-.53125 0-.46875-.5625-1.23438-1.96875-1.23438C1.64063-7.875.5-6.45312.5-3.57812m1.17188.84375c0-.70313.53125-1.5625 1.51562-1.5625.71875 0 1.4375.65625 1.4375 1.98437 0 1.23438-.46875 2.04688-1.4375 2.04688-1.01562 0-1.51562-1.07813-1.51562-2.46875m0 0"/><path id="i" d="M.48438-6.10937h.29687l.125-.25c.14063-.32813.29688-.5.8125-.5h3.14063c-.10938.42187-.32813 1.09375-1.26563 2.4375C2.59375-3 1.9375-1.70312 1.9375-.32812c0 .375.26563.46875.625.46875.32813 0 .5625-.07813.5625-.45313 0-1.76562.29688-2.84375.875-3.82812C4.73438-5.4375 5.34375-6.17187 5.75-7.625l-.09375-.10937H.84375Zm0 0"/><path id="j" d="M.48438-2.10937c0 1.17187.71875 2.25 2.57812 2.25 1.875 0 2.59375-1.07813 2.59375-2.25 0-1.1875-.73437-1.875-1.53125-2.0625.70313-.1875 1.28125-.78125 1.28125-1.73438 0-1.25-1-1.96875-2.34375-1.96875-1.32812 0-2.32812.71875-2.32812 1.96875 0 .95313.59375 1.54688 1.28125 1.73438-.76563.1875-1.53125.875-1.53125 2.0625m1.15625.03125c0-1.04688.5-1.84375 1.42187-1.84375C4-3.92187 4.5-3.125 4.5-2.07812c0 1.03125-.45312 1.8125-1.4375 1.8125-.96875 0-1.42187-.78125-1.42187-1.8125m.21874-3.85938c0-.875.42188-1.53125 1.20313-1.53125.79688 0 1.21875.65625 1.21875 1.53125 0 .79688-.375 1.59375-1.21875 1.59375-.82812 0-1.20312-.79687-1.20312-1.59375m0 0"/><path id="k" d="M.42188-5.26562c0 1.5625.95312 2.42187 2.20312 2.42187.90625 0 1.59375-.625 1.90625-1C4.51563-1.29687 3.8125-.26562 2.76563-.26562c-.53125 0-.92188-.45313-1.09375-1.10938-.03126-.14062-.125-.25-.29688-.25-.25 0-.60937.20313-.60937.53125 0 .46875.5625 1.23438 1.95312 1.23438 1.84375 0 2.98438-1.42188 2.98438-4.3125 0-2.5-.92188-3.70313-2.65625-3.70313-1.71875 0-2.625 1.03125-2.625 2.60938m1.15625-.17188c0-1.21875.46875-2.03125 1.4375-2.03125 1.01562 0 1.51562 1.07813 1.51562 2.46875 0 .70313-.53125 1.5625-1.51562 1.5625-.71875 0-1.4375-.67187-1.4375-2m0 0"/><path id="l" d="M.875 0h2.71875v-.25l-.64062-.0625c-.1875-.01562-.26563-.07812-.26563-.375v-4.78125l-.0625-.04687-1.73437.29687V-5l.70312.09375c.15625.03125.20313.07813.20313.32813V-.6875c0 .29688-.07813.35938-.26563.375L.875-.25Zm0 0"/><path id="m" d="M.23438-.09375.32813 0h3.4375l.28125-1.15625-.23438-.04687c-.1875.4375-.34375.5-.67187.5h-2.0625c.125-.39063.5625-.9375 1.34375-1.46875.82812-.54688 1.40625-.92188 1.40625-1.8125 0-1.125-.76563-1.53125-1.65625-1.53125C1.0625-5.51562.4375-4.875.4375-4.375c0 .28125.32813.42188.5.42188.15625 0 .23438-.07813.26563-.23438.14062-.57812.4375-1.01562.90625-1.01562.57812 0 .75.48437.75 1.07812 0 .78125-.34375 1.29688-1.10938 1.95313C.71875-1.28125.35938-.70312.23438-.09375m0 0"/><path id="n" d="M.21875-.85937c0 .32812.54688.95312 1.76563.95312 1.20312 0 1.95312-.57812 1.95312-1.625 0-1.09375-.95312-1.39062-1.375-1.4375V-3c.45313-.07812 1.14063-.39062 1.14063-1.1875 0-.95312-.76563-1.32812-1.64063-1.32812-1.03125 0-1.625.57812-1.625 1 0 .26562.3125.42187.45313.42187.125 0 .1875-.07812.23437-.20312.17188-.5625.45313-.90625.89063-.90625.60937 0 .75.5625.75 1 0 .42187-.14063 1.09375-.79688 1.09375-.375 0-.60937-.09375-.73437-.09375s-.17188.09375-.17188.25.04688.25.17188.25.35937-.07813.73437-.07813c.625 0 1 .51563 1 1.29688C2.96875-.5625 2.54688-.20312 2-.20312c-.5 0-.82812-.375-1.01562-.90625-.04688-.15626-.125-.23438-.26563-.23438-.17187 0-.5.17188-.5.48438m0 0"/><path id="o" d="m.32813-4.21875.23437.01563.07813-.15625c.10937-.21875.21874-.34375.57812-.34375h2.17188c-.07813.28125-.25.79687-.90625 1.6875-.6875.95312-1.14063 1.84375-1.14063 2.73437 0 .3125.21875.375.5.375.23438 0 .4375-.04687.4375-.35937 0-1.1875.20313-1.96875.59375-2.625.57813-.96875.98438-1.48438 1.23438-2.4375l-.07813-.09375H.60938Zm0 0"/><clipPath id="a"><path d="M360 17h17.69922v26H360Zm0 0"/></clipPath></defs><path fill="none" stroke="#000" stroke-miterlimit="10" stroke-width=".78925" d="M8.8789 30.39453h362.31245"/><path d="M375.3164 30.39453c-.5078-.10547-2.73437-.70312-4.125-1.35156v2.70312c1.39063-.64843 3.6172-1.24609 4.125-1.35156m0 0"/><g clip-path="url(#a)"><path fill="none" stroke="#000" stroke-miterlimit="10" stroke-width=".78925" d="M375.3164 30.39453c-.5078-.10547-2.73437-.70312-4.125-1.35156v2.70312c1.39063-.64843 3.6172-1.24609 4.125-1.35156Zm0 0"/></g><path fill="none" stroke="#000" stroke-miterlimit="10" stroke-width=".78925" d="M8.8789 21.6211v17.54687"/><use xlink:href="#b" x="5.80908" y="51.64916"/><path fill="none" stroke="#000" stroke-miterlimit="10" stroke-width=".78925" d="M43.96874 21.6211v17.54687"/><use xlink:href="#c" x="40.89708" y="51.64916"/><path fill="none" stroke="#000" stroke-miterlimit="10" stroke-width=".78925" d="M79.05468 21.6211v17.54687"/><use xlink:href="#d" x="75.98507" y="51.64916"/><path fill="none" stroke="#000" stroke-miterlimit="10" stroke-width=".78925" d="M114.14451 21.6211v17.54687"/><use xlink:href="#e" x="111.07307" y="51.64916"/><path fill="none" stroke="#000" stroke-miterlimit="10" stroke-width=".78925" d="M149.23435 21.6211v17.54687"/><use xlink:href="#f" x="146.16106" y="51.51349"/><path fill="none" stroke="#000" stroke-miterlimit="10" stroke-width=".78925" d="M184.32028 21.6211v17.54687"/><use xlink:href="#g" x="181.24905" y="51.51349"/><path fill="none" stroke="#000" stroke-miterlimit="10" stroke-width=".78925" d="M219.41012 21.6211v17.54687"/><use xlink:href="#h" x="216.33705" y="51.64916"/><path fill="none" stroke="#000" stroke-miterlimit="10" stroke-width=".78925" d="M254.49996 21.6211v17.54687"/><use xlink:href="#i" x="251.42504" y="51.51349"/><path fill="none" stroke="#000" stroke-miterlimit="10" stroke-width=".78925" d="M289.5859 21.6211v17.54687"/><use xlink:href="#j" x="286.51304" y="51.64916"/><path fill="none" stroke="#000" stroke-miterlimit="10" stroke-width=".78925" d="M324.67573 21.6211v17.54687"/><use xlink:href="#k" x="321.60103" y="51.64916"/><path fill="none" stroke="#000" stroke-miterlimit="10" stroke-width=".78925" d="M359.76557 21.6211v17.54687"/><use xlink:href="#c" x="353.61822" y="51.64916"/><use xlink:href="#b" x="359.75958" y="51.64916"/><path fill="none" stroke="#000" stroke-miterlimit="10" stroke-width=".39462" d="M262.75387 25.13281v10.52344"/><use xlink:href="#l" x="256.18722" y="9.6261"/><use xlink:href="#m" x="260.56386" y="9.6261"/><use xlink:href="#n" x="264.94051" y="9.6261"/><path fill="none" stroke="#000" stroke-miterlimit="10" stroke-width=".67833" d="M256.1875 11.3164h13.1289"/><use xlink:href="#l" x="258.37446" y="18.92467"/><use xlink:href="#o" x="262.75111" y="18.92467"/></svg>