<svg xmlns="http://www.w3.org/2000/svg" xmlns:xlink="http://www.w3.org/1999/xlink" width="141.88pt" height="91.987pt" viewBox="0 0 141.88 91.987"><defs><path id="a" d="M2.03125 0H8.1875v-.53125L6.60938-.67187c-.40625-.04688-.625-.1875-.625-.92188V-12.625l-.09375-.09375-3.85938.65625v.45313l1.75.21875c.3125.04687.4375.1875.4375.71875v9.07812c0 .35938-.03125.57813-.15625.71875-.09375.14063-.26562.17188-.45312.20313l-1.57813.14062Zm0 0"/><path id="b" d="M.5-.17187.70313 0H8.4375l.64063-2.46875-.51563-.09375c-.40625 1.01563-.78125 1.15625-1.53125 1.15625H2.25c.29688-.98437 1.40625-2.3125 3.14063-3.57812 1.79687-1.3125 3.1875-2.14063 3.1875-4.23438 0-2.60937-1.73438-3.5-3.70313-3.5-2.5625 0-3.875 1.54688-3.875 2.53125 0 .625.71875.9375 1.03125.9375.34375 0 .45313-.20312.53125-.53125.29688-1.26562 1.04688-2.28125 2.1875-2.28125 1.4375 0 1.85938 1.1875 1.85938 2.5625 0 2.01563-1.01563 3.15625-2.64063 4.57813C1.65625-2.90625.85938-1.625.5-.17187m0 0"/><path id="c" d="M.5-1.90625c0 .79688 1.29688 2.125 3.9375 2.125 2.70313 0 4.42188-1.375 4.42188-3.76562 0-2.5-2.15625-3.23438-3.1875-3.34375v-.07813c1.01562-.15625 2.625-.92187 2.625-2.76562 0-2.0625-1.60938-2.98438-3.625-2.98438C2.20313-12.71875 1-11.28125 1-10.48437c0 .57812.65625.89062.90625.89062s.39063-.14062.46875-.375C2.78125-11.25 3.48438-12.0625 4.53125-12.0625c1.48438 0 1.85938 1.29688 1.85938 2.34375 0 1.125-.40625 2.53125-1.98438 2.53125-.90625 0-1.42187-.17187-1.64062-.17187-.23438 0-.34375.17187-.34375.51562 0 .3125.10937.51563.34375.51563.21875 0 .73437-.1875 1.64062-.1875 1.57813 0 2.48438 1.4375 2.48438 3.07812 0 2.21875-1.09375 3-2.4375 3-1.23438 0-2.04688-.92187-2.40625-1.96875C1.9375-2.76562 1.75-2.95312 1.5-2.95312c-.34375 0-1 .35937-1 1.04687m0 0"/><path id="e" d="M.67188-8.5625c0 2.35938 1.67187 3.54688 3.60937 3.54688 1.15625 0 2.125-.65625 2.76563-1.57813h.04687c0 1.17188-.09375 2.6875-.42187 3.98438-.34375 1.23437-1 2.17187-2.1875 2.17187-1.28125 0-1.75-1-2.03125-1.875-.07813-.23437-.20313-.375-.51563-.375-.35937 0-.875.375-.875.95313 0 .8125.96875 1.95312 3.23438 1.95312 1.51562 0 2.67187-.5625 3.39062-1.54687C8.45313-2.40625 8.92188-4.04687 8.92188-6.75c0-2.32812-.46875-3.84375-1.20313-4.71875-.71875-.82812-1.73437-1.25-2.92187-1.25-2.39063 0-4.125 1.57813-4.125 4.15625m1.875-.51562c0-1.71875.78125-2.98438 2.23437-2.98438C6.26563-12.0625 7-10.29687 7-8.48437c0 .32812-.01562.70312-.125 1-.3125.875-1.04687 1.46875-2.03125 1.46875-1.45312 0-2.29687-1.26563-2.29687-3.0625m0 0"/><path id="f" d="m.35938-3.75.15625.40625h5.09375v1.90625c0 .64063-.1875.73438-.65625.78125l-1.1875.125V0h4.9375v-.53125l-.84375-.10937c-.4375-.0625-.54688-.15626-.54688-.79688v-1.90625h1.90625v-.875H7.3125V-12.5h-1.375c-1.75 2.59375-3.875 5.82813-5.57812 8.75m1.35937-.46875C2.82813-6.25 4.14063-8.42187 5.57813-10.6875h.03125v6.46875Zm0 0"/><path id="g" d="M.78125-9.875h.5l.17188-.39062c.23437-.53125.5-.79688 1.32812-.79688h5.0625c-.1875.67188-.53125 1.75-2.04687 3.92188C4.1875-4.84375 3.125-2.75 3.125-.53125c0 .60938.4375.75 1.01563.75.53125 0 .9375-.15625.92187-.70312-.10937-2.46875.39063-4.46875 1.39063-6.20313 1.1875-2.09375 2.1875-3.26562 2.84375-5.60937L9.14063-12.5H1.35938Zm0 0"/><path id="d" d="M1.59375-4.73437h10.29688v-1.09375H1.59375Zm0 0"/></defs><path fill="none" stroke="#000" stroke-miterlimit="10" stroke-width=".79533" d="M24.99219 16.22266v-9.5547m0 .00001h55.0664m.00001 9.55469v-9.5547"/><use xlink:href="#a" x="29.21229" y="30.55855"/><use xlink:href="#b" x="47.56788" y="30.55855"/><use xlink:href="#c" x="65.92346" y="30.55855"/><use xlink:href="#d" x="6.63539" y="54.44835"/><path fill="none" stroke="#000" stroke-miterlimit="10" stroke-width=".79533" d="M24.99219 60.42187h55.0664"/><use xlink:href="#a" x="29.21229" y="54.44835"/><use xlink:href="#a" x="47.56788" y="54.44835"/><use xlink:href="#e" x="65.92346" y="54.44835"/><use xlink:href="#f" x="65.92324" y="78.33814"/><path fill="none" stroke="#000" stroke-miterlimit="10" stroke-width=".79533" d="M89.23438 85.30469V6.66796m0 22.89454H135.125"/><use xlink:href="#a" x="102.63419" y="23.59045"/><use xlink:href="#g" x="120.98978" y="23.59045"/><use xlink:href="#g" x="102.63419" y="47.48024"/></svg>