<svg xmlns="http://www.w3.org/2000/svg" xmlns:xlink="http://www.w3.org/1999/xlink" width="715.026" height="71.418" viewBox="0 0 715.026 71.418"><defs><path id="b" d="M1.59375 0h4.89063v-.45312L5.32813-.5625C5-.59375 4.84375-.70312 4.84375-1.25v-8.60937L4.75-9.9375l-3.14062.51563v.39062l1.25.17188c.28125.04687.375.15625.375.60937v7c0 .54688-.14063.65625-.48438.6875l-1.15625.10938Zm0 0"/><path id="c" d="M.42188-.17187.59375 0h6.1875l.53125-2.07812-.4375-.07813c-.34375.76563-.60937.875-1.1875.875H1.95313c.21874-.6875 1-1.67187 2.42187-2.625 1.46875-1 2.53125-1.6875 2.53125-3.28125 0-2.04687-1.375-2.75-3-2.75-1.98437 0-3.125 1.14063-3.125 2.03125 0 .53125.60938.78125.92188.78125.26562 0 .40625-.15625.46875-.4375.23437-1.03125.78125-1.84375 1.64062-1.84375 1.03125 0 1.35938.89063 1.35938 1.95313 0 1.42187-.64063 2.34375-2.01563 3.53125C1.29688-2.3125.64063-1.26562.42188-.17187m0 0"/><path id="d" d="M.85938-6.98437C.85938-2.79687 2.09375.25 5.53125.25c3.45313 0 4.70313-3.04687 4.70313-7.23437 0-4.17188-1.25-7.21875-4.70313-7.21875-3.4375 0-4.67187 3.04687-4.67187 7.21875m2.125 0c0-3.40625.57812-6.48438 2.54687-6.48438 1.98438 0 2.5625 3.07813 2.5625 6.48438s-.57812 6.5-2.5625 6.5c-1.96875 0-2.54687-3.09375-2.54687-6.5m0 0"/><path id="e" d="M2.26563 0h6.875v-.59375L7.375-.75c-.4375-.04687-.6875-.20312-.6875-1.03125v-12.3125l-.10937-.10937-4.3125.73437v.5l1.95312.25c.35938.04688.5.20313.5.79688v10.14062c0 .82813-.20312.98438-.6875 1.03125l-1.76562.15625Zm0 0"/><clipPath id="a"><path d="M707 12h4.65234v8H707Zm0 0"/></clipPath></defs><path fill="none" stroke="#000" stroke-miterlimit="10" stroke-width=".79057" d="M15.35547 16.21094H710.4768"/><g clip-path="url(#a)"><path fill="none" stroke="#000" stroke-linecap="round" stroke-linejoin="round" stroke-miterlimit="10" stroke-width=".79057" d="M708.33984 13.125c.46485 1.85156 1.4922 2.72656 2.53125 3.08594-1.03906.35937-2.0664 1.23437-2.53125 3.08594"/></g><path fill="none" stroke="#00F" stroke-miterlimit="10" stroke-width=".39528" d="M15.35547 6.72265v18.97657M205.1485 6.72265v18.97657M394.94153 6.72265v18.97657M584.73847 6.72265v18.97657"/><path fill="none" stroke="#00F" stroke-miterlimit="10" stroke-width=".79057" d="M205.1485.39453v31.63282"/><use xlink:href="#b" x="201.19958" y="46.66447" fill="#00F"/><path fill="none" stroke="#00F" stroke-miterlimit="10" stroke-width="1.22303" d="M201.19922 49.71094h7.89062"/><use xlink:href="#c" x="201.19958" y="63.42985" fill="#00F"/><path fill="none" stroke="#000" stroke-miterlimit="10" stroke-width=".79057" d="M15.35547.39453v31.63282"/><use xlink:href="#d" x="9.81744" y="54.53558"/><path fill="none" stroke="#000" stroke-miterlimit="10" stroke-width=".79057" d="M394.94153.39453v31.63282"/><use xlink:href="#e" x="389.40114" y="54.53558"/></svg>