<svg xmlns="http://www.w3.org/2000/svg" xmlns:xlink="http://www.w3.org/1999/xlink" width="397.414pt" height="35.009pt" viewBox="0 0 397.414 35.009"><defs><path id="b" d="M.46875-3.79687c0 2.26562.67188 3.9375 2.54688 3.9375S5.5625-1.53125 5.5625-3.79687c0-2.28125-.67187-3.9375-2.54687-3.9375S.46875-6.07812.46875-3.79687m1.15625 0c0-1.85938.3125-3.54688 1.39063-3.54688 1.07812 0 1.39062 1.6875 1.39062 3.54688 0 1.84375-.3125 3.53125-1.39062 3.53125-1.07813 0-1.39063-1.6875-1.39063-3.53125m0 0"/><path id="c" d="M1.23438 0h3.75v-.32812l-.96875-.07813c-.23438-.03125-.375-.10937-.375-.5625v-6.70312l-.0625-.0625-2.34375.39062v.28125l1.0625.14063c.20312.01562.26562.10937.26562.4375v5.51562c0 .45313-.10937.53125-.375.5625l-.95312.07813Zm0 0"/><clipPath id="a"><path d="M374 0h17.66016v22H374Zm0 0"/></clipPath></defs><path fill="none" stroke="#000" stroke-miterlimit="10" stroke-width=".77507" d="M12.23828 9.0039h373.03117"/><path d="M389.32031 9.0039c-.5-.10546-2.6836-.6914-4.05078-1.32812v2.65235c1.36719-.63672 3.55078-1.22266 4.05078-1.32422m0 0"/><g clip-path="url(#a)"><path fill="none" stroke="#000" stroke-miterlimit="10" stroke-width=".77507" d="M389.32031 9.0039c-.5-.10546-2.6836-.6914-4.05078-1.32812v2.65234c1.36719-.63671 3.55078-1.22265 4.05078-1.32421Zm0 0"/></g><path fill="none" stroke="#000" stroke-miterlimit="10" stroke-width=".77507" d="M12.23828.38672v17.23046"/><use xlink:href="#b" x="9.22176" y="29.87532"/><path fill="none" stroke="#000" stroke-miterlimit="10" stroke-width=".77507" d="M218.98433.38672v17.23046"/><use xlink:href="#c" x="215.96741" y="29.87532"/></svg>