<svg xmlns="http://www.w3.org/2000/svg" xmlns:xlink="http://www.w3.org/1999/xlink" width="159.615pt" height="103.485pt" viewBox="0 0 159.615 103.485"><defs><path id="a" d="M2.28125 0h6.89063v-.60937L7.40625-.76563c-.4375-.03124-.6875-.1875-.6875-1.01562v-12.35937L6.60938-14.25l-4.32813.73438v.5l1.95313.25c.35937.04687.5.20312.5.8125v10.17187c0 .39063-.04688.64063-.1875.79688-.10938.15624-.28125.20312-.51563.21874l-1.75.15626Zm0 0"/><path id="b" d="M.5625-.20312.78125 0h8.67188l.71875-2.76562-.57813-.10938c-.45312 1.14063-.875 1.29688-1.71875 1.29688H2.51563c.34375-1.09375 1.59375-2.59375 3.53125-4 2.01562-1.46875 3.5625-2.40625 3.5625-4.75 0-2.92188-1.9375-3.92188-4.14063-3.92188-2.875 0-4.35937 1.73438-4.35937 2.82813 0 .71875.8125 1.04687 1.17187 1.04687.375 0 .5-.21875.59375-.57812.34375-1.4375 1.15625-2.5625 2.45313-2.5625 1.60937 0 2.07812 1.32812 2.07812 2.875 0 2.25-1.14062 3.51562-2.96875 5.125C1.85938-3.25.95313-1.82812.5625-.20312m0 0"/><path id="c" d="M.5625-2.14062C.5625-1.25 2.01563.25 4.96875.25c3.04688 0 4.95313-1.54687 4.95313-4.21875 0-2.8125-2.40625-3.64062-3.5625-3.75v-.09375c1.14062-.17187 2.9375-1.01562 2.9375-3.09375C9.29688-13.23437 7.5-14.25 5.25-14.25c-2.76562 0-4.14062 1.59375-4.14062 2.48438 0 .65625.75 1.01562 1.03125 1.01562.26562 0 .42187-.15625.51562-.42187.46875-1.4375 1.25-2.34375 2.4375-2.34375 1.64063 0 2.0625 1.4375 2.0625 2.625 0 1.25-.4375 2.82812-2.21875 2.82812-1.01562 0-1.59375-.1875-1.84375-.1875-.26562 0-.375.1875-.375.57813 0 .35937.10938.57812.375.57812.25 0 .82813-.20312 1.84375-.20312 1.78125 0 2.78125 1.60937 2.78125 3.4375 0 2.5-1.21875 3.375-2.71875 3.375-1.39062 0-2.29687-1.03125-2.70312-2.21875-.125-.39063-.32813-.59375-.625-.59375-.375 0-1.10938.39062-1.10938 1.15625m0 0"/><path id="e" d="M.76563-9.59375c0 2.625 1.875 3.96875 4.03125 3.96875 1.29687 0 2.39062-.73437 3.10937-1.76562h.03125c0 1.32812-.07812 3.01562-.46875 4.46875-.375 1.375-1.10937 2.4375-2.45312 2.4375-1.42188 0-1.95313-1.125-2.26563-2.10938-.09375-.26562-.23437-.42187-.57812-.42187-.40625 0-.98438.42187-.98438 1.07812C1.1875-1.03125 2.28125.25 4.8125.25c1.70313 0 3-.625 3.79688-1.75C9.48438-2.70312 10-4.53125 10-7.5625c0-2.60937-.51562-4.3125-1.34375-5.29687C7.85938-13.79687 6.71875-14.25 5.375-14.25 2.70313-14.25.76563-12.5.76563-9.59375m2.09375-.57812c0-1.92188.85937-3.34375 2.5-3.34375 1.67187 0 2.5 1.98437 2.5 4.01562 0 .35938-.03125.78125-.15625 1.10938-.34375.98437-1.17188 1.65625-2.28125 1.65625-1.625 0-2.5625-1.4375-2.5625-3.4375m0 0"/><path id="f" d="m.40625-4.1875.17188.4375h5.71875v2.14063c0 .71875-.23438.82812-.73438.875l-1.34375.125V0H9.75v-.60937l-.9375-.10938c-.48437-.0625-.625-.17187-.625-.89062V-3.75h2.14063v-.98437H8.1875v-9.28125H6.65625C4.6875-11.10937 2.32813-7.46875.40625-4.1875m1.51563-.54687C3.17188-7 4.64063-9.4375 6.25-11.98437h.04688v7.25Zm0 0"/><path id="g" d="M.875-11.0625h.54688l.20312-.45312c.26563-.57813.5625-.89063 1.5-.89063h5.67188C8.59375-11.64062 8.1875-10.4375 6.5-8.01562c-1.8125 2.59375-3 4.9375-3 7.40625C3.5.09374 4 .25 4.64063.25 5.25.25 5.6875.0625 5.67188-.53125 5.5625-3.29687 6.10938-5.5625 7.23438-7.5c1.32812-2.34375 2.45312-3.65625 3.1875-6.29687l-.1875-.21875H1.51563Zm0 0"/><path id="d" d="M1.78125-5.3125h11.54688v-1.21875H1.78125Zm0 0"/></defs><path fill="none" stroke="#000" stroke-miterlimit="10" stroke-width=".89107" d="M28.20312 18.14062V7.4336m0 0h61.69531m.00001 10.70702V7.4336"/><use xlink:href="#a" x="32.93228" y="34.2003"/><use xlink:href="#b" x="53.49743" y="34.2003"/><use xlink:href="#c" x="74.06258" y="34.2003"/><use xlink:href="#d" x="7.63766" y="60.96585"/><path fill="none" stroke="#000" stroke-miterlimit="10" stroke-width=".89107" d="M28.20312 67.65625h61.69531"/><use xlink:href="#a" x="32.93228" y="60.96585"/><use xlink:href="#a" x="53.49743" y="60.96585"/><use xlink:href="#e" x="74.06258" y="60.96585"/><use xlink:href="#f" x="74.06234" y="87.7314"/><path fill="none" stroke="#000" stroke-miterlimit="10" stroke-width=".89107" d="M100.17969 95.53906V7.4336m0 25.65234h51.41406"/><use xlink:href="#a" x="115.1924" y="26.3934"/><use xlink:href="#g" x="135.75756" y="26.3934"/><use xlink:href="#g" x="115.1924" y="53.15895"/></svg>