<svg xmlns="http://www.w3.org/2000/svg" xmlns:xlink="http://www.w3.org/1999/xlink" width="397.414pt" height="61.194pt" viewBox="0 0 397.414 61.194"><defs><path id="b" d="M.23438-.09375.32813 0H3.75l.29688-1.15625-.23438-.04687c-.20312.4375-.34375.5-.67187.5h-2.0625c.125-.39063.5625-.9375 1.34375-1.45313.8125-.5625 1.40625-.9375 1.40625-1.82812 0-1.125-.76563-1.51563-1.67188-1.51563C1.0625-5.5.4375-4.85937.4375-4.375c0 .29688.32813.4375.5.4375.15625 0 .23438-.09375.26563-.25.125-.5625.4375-1.01562.90625-1.01562.5625 0 .75.5.75 1.07812 0 .78125-.35938 1.29688-1.10938 1.95313C.71875-1.28125.35938-.70312.23438-.09375m0 0"/><path id="c" d="m.15625-1.625.10938.1875h2.15625v.8125c0 .26563-.09375.3125-.26563.32813L1.64063-.25V0h2.21875v-.25l-.375-.04687C3.3125-.3125 3.25-.35937 3.25-.625v-.8125h.82813v-.42187H3.25v-3.54688h-.6875C1.78125-4.25.90625-2.89062.15625-1.625m.65625-.23437c.46875-.84375 1.01563-1.75 1.60938-2.70313v2.70313Zm0 0"/><path id="d" d="M.875 0h2.71875v-.25L2.9375-.3125c-.17187-.01562-.26562-.07812-.26562-.375v-4.76562L2.625-5.5l-1.73437.29688V-5l.6875.09375c.15624.03125.21874.09375.21874.34375v3.875c0 .29688-.07812.35938-.26562.375L.875-.25Zm0 0"/><path id="e" d="M.48438-3.85937c0 2.3125.67187 4 2.57812 4s2.59375-1.6875 2.59375-4-.6875-4-2.59375-4-2.57812 1.6875-2.57812 4m1.15625 0c0-1.89063.32812-3.59375 1.42187-3.59375S4.46875-5.75 4.46875-3.85937c0 1.875-.3125 3.59375-1.40625 3.59375S1.64063-1.98437 1.64063-3.85937m0 0"/><path id="f" d="M1.25 0h3.79688v-.32812l-.96875-.09375c-.23438-.01563-.375-.10938-.375-.5625v-6.8125l-.0625-.0625L1.25-7.45312v.28125l1.09375.14062c.1875.01563.26563.10938.26563.4375v5.60938c0 .45312-.10938.54687-.39063.5625L1.25-.32812Zm0 0"/><clipPath id="a"><path d="M376 17h18.54297v26H376Zm0 0"/></clipPath></defs><path fill="none" stroke="#000" stroke-miterlimit="10" stroke-width=".78665" d="M9.44922 30.19922h378.60547"/><path d="M392.16797 30.19922c-.50781-.10547-2.72656-.69922-4.11328-1.34766v2.69532c1.38672-.64844 3.60547-1.2422 4.11328-1.34766m0 0"/><g clip-path="url(#a)"><path fill="none" stroke="#000" stroke-miterlimit="10" stroke-width=".78665" d="M392.16797 30.19922c-.50781-.10547-2.72656-.69922-4.11328-1.34766v2.69531c1.38672-.64843 3.60547-1.24218 4.11328-1.34765Zm0 0"/></g><path fill="none" stroke="#007F7F" stroke-miterlimit="10" stroke-width=".39332" d="M9.44922 24.95312v10.4922m52.46094-10.4922v10.4922m52.46094-10.4922v10.4922m52.45702-10.4922v10.4922m52.46094-10.4922v10.4922m52.45704-10.4922v10.4922m52.46093-10.4922v10.4922"/><path fill="none" stroke="#007F7F" stroke-miterlimit="10" stroke-width=".78665" d="M114.3711 21.45703v17.48438"/><use xlink:href="#b" x="112.18757" y="9.59438" fill="#007F7F"/><path fill="none" stroke="#007F7F" stroke-miterlimit="10" stroke-width=".6761" d="M112.1875 11.27734h4.36328"/><use xlink:href="#c" x="112.18757" y="18.86231" fill="#007F7F"/><use xlink:href="#d" x="112.18757" y="47.03425" fill="#00F"/><path fill="none" stroke="#00F" stroke-miterlimit="10" stroke-width=".6761" d="M112.1875 48.71875h4.36328"/><use xlink:href="#b" x="112.18757" y="56.30218" fill="#00F"/><path fill="none" stroke="#000" stroke-miterlimit="10" stroke-width=".78665" d="M9.44922 21.45703v17.48438"/><use xlink:href="#e" x="6.39104" y="51.38519"/><path fill="none" stroke="#000" stroke-miterlimit="10" stroke-width=".78665" d="M219.28906 21.45703v17.48438"/><use xlink:href="#f" x="216.22526" y="51.38519"/></svg>