<svg xmlns="http://www.w3.org/2000/svg" xmlns:xlink="http://www.w3.org/1999/xlink" width="715.026pt" height="62.698pt" viewBox="0 0 715.026 62.698"><defs><path id="b" d="M.875-7C.875-2.8125 2.09375.25 5.5625.25c3.45313 0 4.70313-3.0625 4.70313-7.25 0-4.20312-1.25-7.25-4.70313-7.25C2.09375-14.25.875-11.20312.875-7m2.10938 0c0-3.42187.57812-6.51562 2.57812-6.51562 1.98438 0 2.5625 3.09375 2.5625 6.51562 0 3.40625-.57812 6.51563-2.5625 6.51563-2 0-2.57812-3.10938-2.57812-6.51563m0 0"/><path id="c" d="M2.28125 0h6.89063v-.60937L7.40625-.76563c-.4375-.03124-.6875-.1875-.6875-1.01562v-12.35937L6.60938-14.25l-4.32813.73438v.5l1.95313.25c.35937.04687.5.20312.5.8125v10.17187c0 .82813-.20313.98438-.70313 1.01563l-1.75.15624Zm0 0"/><clipPath id="a"><path d="M695 3h17.82813v26H695Zm0 0"/></clipPath></defs><path fill="none" stroke="#000" stroke-miterlimit="10" stroke-width=".79319" d="M14.21875 16.26563h692.07398"/><path d="M710.4375 16.26563c-.50781-.10547-2.7461-.70704-4.14453-1.35938V17.625c1.39844-.65234 3.63672-1.2539 4.14453-1.35937m0 0"/><g clip-path="url(#a)"><path fill="none" stroke="#000" stroke-miterlimit="10" stroke-width=".79319" d="M710.4375 16.26563c-.50781-.10547-2.7461-.70704-4.14453-1.35938V17.625c1.39844-.65234 3.63672-1.2539 4.14453-1.35937Zm0 0"/></g><path fill="none" stroke="#000" stroke-miterlimit="10" stroke-width=".79319" d="M14.21875.39844v31.73437"/><use xlink:href="#b" x="8.66431" y="54.71645"/><path fill="none" stroke="#000" stroke-miterlimit="10" stroke-width=".79319" d="M395.06627.39844v31.73437"/><use xlink:href="#c" x="389.50689" y="54.71645"/></svg>