<svg xmlns="http://www.w3.org/2000/svg" xmlns:xlink="http://www.w3.org/1999/xlink" width="715.026" height="110.149" viewBox="0 0 715.026 110.149"><defs><path id="c" d="M.42188-.17187.59375 0h6.20313l.53125-2.09375-.4375-.07812c-.34375.78125-.60938.89062-1.20313.89062H1.95313c.23437-.70312 1-1.67187 2.42187-2.625 1.48438-1 2.54688-1.6875 2.54688-3.29687 0-2.03125-1.39063-2.75-3.01563-2.75-1.98437 0-3.125 1.15625-3.125 2.04687 0 .51563.60938.76563.92188.76563.28124 0 .42187-.15625.48437-.4375.23438-1.01563.76563-1.82813 1.625-1.82813 1.03125 0 1.35938.89063 1.35938 1.9375 0 1.42188-.64063 2.35938-2.01563 3.54688C1.29688-2.32812.64063-1.26562.42188-.17187m0 0"/><path id="d" d="m.29688-2.9375.17187.34375h3.92188V-1.125c0 .46875-.17188.54688-.5.57813l-.9375.09374V0h4.03125v-.45312L6.3125-.53125C6-.57812 5.89063-.65625 5.89063-1.125v-1.46875h1.5v-.76562h-1.5v-6.42188h-1.25c-1.42188 2.07813-3 4.5625-4.34375 6.84375m1.1875-.42187C2.3125-4.89062 3.3125-6.54687 4.39063-8.25v4.89063Zm0 0"/><path id="e" d="M1.59375 0H6.5v-.45312L5.32813-.5625C5-.59375 4.84375-.70312 4.84375-1.25v-8.625L4.75-9.95312l-3.14062.53125v.39062l1.25.17188c.28125.04687.375.15625.375.60937v7c0 .54688-.14063.65625-.48438.6875l-1.15625.10938Zm0 0"/><path id="f" d="M.875-6.98437C.875-2.79687 2.09375.25 5.54688.25c3.4375 0 4.6875-3.04687 4.6875-7.23437s-1.25-7.23438-4.6875-7.23438C2.09375-14.21875.875-11.17187.875-6.98437m2.10938 0c0-3.40625.57812-6.5 2.5625-6.5 1.96875 0 2.54687 3.09375 2.54687 6.5s-.57812 6.5-2.54687 6.5c-1.98438 0-2.5625-3.09375-2.5625-6.5m0 0"/><path id="g" d="M2.26563 0h6.875v-.59375L7.39063-.75c-.45313-.04687-.6875-.20312-.6875-1.03125v-12.32812l-.10938-.10938-4.32812.73438v.51562l1.96875.23438c.34375.04687.48437.20312.48437.8125v10.14062c0 .82813-.20312.98438-.6875 1.03125l-1.76562.15625Zm0 0"/><clipPath id="a"><path d="M14 54h697.80078v2H14Zm0 0"/></clipPath><clipPath id="b"><path d="M708 51h3.80078v8H708Zm0 0"/></clipPath></defs><g clip-path="url(#a)"><path fill="none" stroke="#000" stroke-miterlimit="10" stroke-width=".7909" d="M15.21094 54.65234h695.41383"/></g><g clip-path="url(#b)"><path fill="none" stroke="#000" stroke-linecap="round" stroke-linejoin="round" stroke-miterlimit="10" stroke-width=".7909" d="M708.48828 51.5664c.46485 1.85157 1.49219 2.72657 2.53125 3.08594-1.03906.35938-2.0664 1.23438-2.53125 3.08594"/></g><path fill="none" stroke="#007F7F" stroke-miterlimit="10" stroke-width=".39544" d="M15.21094 45.16016v18.98437m94.93746-18.98437v18.98437m94.93747-18.98437v18.98437m94.93747-18.98437v18.98437m94.93356-18.98437v18.98437m94.93747-18.98437v18.98437m94.93747-18.98437v18.98437"/><path fill="none" stroke="#007F7F" stroke-miterlimit="10" stroke-width=".7909" d="M205.08587 38.82813v31.64452"/><use xlink:href="#c" x="201.13392" y="17.3636" fill="#007F7F"/><path fill="none" stroke="#007F7F" stroke-miterlimit="10" stroke-width="1.22355" d="M201.13281 20.41016h7.89453"/><use xlink:href="#d" x="201.13392" y="34.13602" fill="#007F7F"/><use xlink:href="#e" x="201.13392" y="85.11814" fill="#00F"/><path fill="none" stroke="#00F" stroke-miterlimit="10" stroke-width="1.22355" d="M201.13281 88.16406h7.89453"/><use xlink:href="#c" x="201.13392" y="101.89055" fill="#00F"/><path fill="none" stroke="#000" stroke-miterlimit="10" stroke-width=".7909" d="M15.21094 38.82813v31.64452"/><use xlink:href="#f" x="9.67139" y="92.99255"/><path fill="none" stroke="#000" stroke-miterlimit="10" stroke-width=".7909" d="M394.9569 38.82813v31.64452"/><use xlink:href="#g" x="389.41453" y="92.99255"/></svg>