<svg xmlns="http://www.w3.org/2000/svg" xmlns:xlink="http://www.w3.org/1999/xlink" width="394.559pt" height="57.602pt" viewBox="0 0 394.559 57.602"><defs><path id="a" d="M.45313-3.64062c0 2.1875.64062 3.76562 2.4375 3.76562 1.79687 0 2.4375-1.57812 2.4375-3.76562 0-2.17188-.64063-3.75-2.4375-3.75-1.79688 0-2.4375 1.57812-2.4375 3.75m1.09375 0c0-1.76563.3125-3.375 1.34375-3.375s1.32812 1.60937 1.32812 3.375C4.21875-1.85937 3.92188-.25 2.89063-.25S1.54688-1.85937 1.54688-3.64062m0 0"/><path id="b" d="M1.1875 0h3.57813v-.3125l-.92188-.07812C3.60938-.42187 3.48438-.5 3.48438-.92187v-6.42188l-.0625-.04687-2.23438.375V-6.75l1.01563.125c.1875.03125.25.10938.25.42188v5.28125c0 .42187-.10938.5-.35938.53125L1.1875-.3125Zm0 0"/><path id="c" d="M.29688-.10937.42188 0h4.5l.375-1.4375-.3125-.0625c-.21875.59375-.45313.67188-.89063.67188H1.3125c.1875-.5625.82813-1.34375 1.84375-2.0625C4.1875-3.65625 5-4.14062 5-5.35937 5-6.875 4-7.39062 2.84375-7.39062c-1.48437 0-2.25.89062-2.25 1.46875 0 .35937.40625.53125.59375.53125.20313 0 .26563-.10938.3125-.29688.17188-.73437.60938-1.32812 1.28125-1.32812.82813 0 1.07813.6875 1.07813 1.5 0 1.15625-.59375 1.82812-1.54688 2.65625C.96875-1.6875.51563-.95312.29688-.10937m0 0"/><path id="d" d="M.29688-1.10937c0 .46875.75 1.23437 2.29687 1.23437 1.57813 0 2.5625-.79687 2.5625-2.1875 0-1.45312-1.25-1.89062-1.84375-1.9375v-.04687c.59375-.09375 1.53125-.53125 1.53125-1.60938 0-1.20312-.9375-1.73437-2.10937-1.73437-1.4375 0-2.14063.82812-2.14063 1.28125 0 .34375.375.53125.53125.53125.14063 0 .21875-.07813.26563-.21875.23437-.75.64062-1.21875 1.26562-1.21875.85938 0 1.07813.75 1.07813 1.35937C3.73438-5 3.5-4.1875 2.57813-4.1875c-.53125 0-.82813-.09375-.95313-.09375-.14062 0-.20312.09375-.20312.29688 0 .1875.0625.29687.20312.29687.125 0 .42188-.09375.95313-.09375.92187 0 1.4375.82813 1.4375 1.78125 0 1.29688-.64063 1.75-1.40625 1.75-.71875 0-1.20313-.53125-1.40625-1.15625-.0625-.20312-.17188-.3125-.32813-.3125-.1875 0-.57812.21875-.57812.60938m0 0"/><path id="e" d="m.21875-2.17187.09375.23437h2.96875v1.10938c0 .35937-.125.42187-.39062.45312l-.6875.0625V0h2.875v-.3125l-.5-.0625c-.25-.03125-.3125-.09375-.3125-.45312V-1.9375H5.375v-.51562H4.26563v-4.8125h-.79688c-1.03125 1.5-2.25 3.39062-3.25 5.09375M1-2.45312c.65625-1.1875 1.4375-2.4375 2.28125-3.76563v3.76563Zm0 0"/><path id="f" d="M.45313-1.10937c0 .5.76562 1.23437 2.17187 1.23437 1.79688 0 2.60938-1.09375 2.60938-2.46875 0-1.51562-.95313-2.29687-2.25-2.29687-.59375 0-1.26563.26562-1.60938.57812l.25-2.0625c.03125-.28125.09375-.3125.3125-.3125h2.70313l.26562-.73437-.0625-.09375h-3.625l-.10937.09375-.21876 3.64062.26563.14063c.45313-.51563.89063-.78125 1.48438-.78125.6875 0 1.45312.51562 1.45312 1.95312 0 1.125-.45312 1.96875-1.39062 1.96875-.76563 0-1.15625-.54687-1.375-1.17187-.04688-.17188-.15626-.26563-.3125-.26563-.21876 0-.5625.21875-.5625.57813m0 0"/><path id="g" d="M.48438-3.35937C.48438-1 1.34375.125 2.96875.125c1.60938 0 2.46875-.96875 2.46875-2.45312 0-1.46875-.90625-2.26563-2.0625-2.26563-.85937 0-1.5.57813-1.78125.9375 0-2.40625.65625-3.35937 1.64063-3.35937.5 0 .85937.42187 1.03125 1.04687.03125.125.10937.21875.26562.21875.25 0 .59375-.1875.59375-.48437 0-.45313-.54687-1.15625-1.84375-1.15625-1.73437 0-2.79687 1.32812-2.79687 4.03125m1.10937.78125c0-.65625.48438-1.46875 1.40625-1.46875.6875 0 1.35938.625 1.35938 1.875C4.35938-1.01562 3.90625-.25 3-.25c-.95312 0-1.40625-1.01562-1.40625-2.32812m0 0"/><path id="h" d="M.45313-5.75h.28125l.10937-.21875c.14063-.3125.29688-.46875.78125-.46875h2.9375c-.10937.39063-.3125 1.01563-1.1875 2.28125C2.4375-2.8125 1.8125-1.59375 1.8125-.3125c0 .35938.26563.4375.59375.4375.29688 0 .51563-.0625.51563-.42187 0-1.65625.29687-2.67188.82812-3.59375.70313-1.21875 1.28125-1.89063 1.65625-3.26563l-.09375-.10937H.78125Zm0 0"/><path id="i" d="M.46875-1.98437C.46875-.875 1.14063.125 2.89063.125c1.76562 0 2.4375-1 2.4375-2.10937s-.70313-1.75-1.4375-1.92188c.65625-.1875 1.1875-.75 1.1875-1.64062 0-1.1875-.9375-1.84375-2.1875-1.84375s-2.1875.65625-2.1875 1.84375c0 .89062.5625 1.45312 1.20312 1.64062-.71875.17188-1.4375.8125-1.4375 1.92188m1.07813.04687c0-1 .48437-1.75 1.34375-1.75.875 0 1.34375.75 1.34375 1.75 0 .95313-.42188 1.6875-1.34375 1.6875-.90625 0-1.34375-.73437-1.34375-1.6875m.21874-3.625c0-.84375.39063-1.45312 1.125-1.45312.75 0 1.14063.60937 1.14063 1.45312 0 .73438-.34375 1.48438-1.14062 1.48438-.78125 0-1.125-.75-1.125-1.48438m0 0"/><path id="j" d="M.40625-4.9375c0 1.46875.90625 2.26563 2.07813 2.26563.84375 0 1.48437-.57813 1.78125-.9375C4.25-1.21875 3.59375-.25 2.60938-.25c-.5 0-.85938-.42187-1.01563-1.04687-.04687-.125-.125-.23438-.28125-.23438-.25 0-.57812.20313-.57812.5 0 .4375.53125 1.15625 1.84375 1.15625 1.71875 0 2.78125-1.32812 2.78125-4.03125 0-2.35937-.85938-3.48437-2.48438-3.48437-1.60937 0-2.46875.96875-2.46875 2.45312M1.5-5.10937c0-1.14063.4375-1.90625 1.34375-1.90625.95313 0 1.42188 1 1.42188 2.3125 0 .65625-.5 1.46875-1.42188 1.46875-.67187 0-1.34375-.625-1.34375-1.875m0 0"/><path id="l" d="M.92188 0H3.75v-.26562l-.67187-.0625c-.1875-.01563-.28125-.07813-.28125-.39063v-4.98437L2.75-5.75l-1.82812.3125v.21875l.73437.09375c.15625.03125.21875.09375.21875.35938v4.04687c0 .3125-.07812.375-.28125.39063l-.67187.0625Zm0 0"/><path id="m" d="M.25-.09375.34375 0h3.57813l.3125-1.20312-.25-.04688c-.20313.45313-.35938.51563-.70313.51563H1.125c.14063-.40625.57813-.96875 1.40625-1.53125C3.39063-2.82812 4-3.23437 4-4.15625 4-5.34375 3.1875-5.75 2.26563-5.75c-1.15625 0-1.8125.67188-1.8125 1.17188 0 .3125.34375.45312.53125.45312.15624 0 .23437-.09375.28124-.25.125-.59375.4375-1.0625.9375-1.0625.59375 0 .78125.51563.78125 1.125 0 .82813-.35937 1.35938-1.15625 2.04688C.75-1.34375.375-.73437.25-.09375m0 0"/><path id="n" d="M.23438-.90625c0 .35938.5625 1 1.82812 1 1.26563 0 2.04688-.60937 2.04688-1.6875 0-1.15625-1-1.45312-1.42188-1.5V-3.125c.45313-.09375 1.1875-.42187 1.1875-1.25 0-.98437-.8125-1.375-1.71875-1.375-1.07812 0-1.70312.60938-1.70312 1.03125 0 .29688.32812.4375.46875.4375.125 0 .20312-.07812.25-.20312.1875-.59375.46875-.95313.9375-.95313.625 0 .78125.59375.78125 1.04688C2.89063-3.9375 2.75-3.25 2.04688-3.25c-.375 0-.64063-.09375-.76563-.09375s-.17187.10938-.17187.26563.04687.26562.17187.26562.39063-.09375.76563-.09375c.65625 0 1.0625.54688 1.0625 1.34375 0 .98438-.45313 1.34375-1.03125 1.34375-.51563 0-.85938-.39062-1.04688-.9375-.04687-.15625-.14062-.25-.28125-.25-.1875 0-.51562.1875-.51562.5m0 0"/><path id="o" d="m.34375-4.40625.25.01563.07813-.15625c.10937-.23438.21874-.35938.59375-.35938h2.26562c-.07812.29688-.25.82813-.9375 1.76563-.71875.98437-1.20312 1.92187-1.20312 2.84375 0 .32812.23437.39062.53125.39062.25 0 .45312-.04687.45312-.375.01563-1.23437.21875-2.04687.625-2.73437.60938-1 1.03125-1.54688 1.28125-2.54688l-.07812-.09375H.625Zm0 0"/><clipPath id="k"><path d="M375 19h17.98438v26H375Zm0 0"/></clipPath></defs><path fill="none" stroke="#000" stroke-miterlimit="10" stroke-width=".39577" d="M8.3164 22.55078v18.30078"/><use xlink:href="#a" x="5.42213" y="52.79223"/><path fill="none" stroke="#000" stroke-miterlimit="10" stroke-width=".39577" d="M44.91406 22.55078v18.30078"/><use xlink:href="#b" x="42.01927" y="52.79223"/><path fill="none" stroke="#000" stroke-miterlimit="10" stroke-width=".39577" d="M81.51172 22.55078v18.30078"/><use xlink:href="#c" x="78.61739" y="52.79223"/><path fill="none" stroke="#000" stroke-miterlimit="10" stroke-width=".39577" d="M118.10938 22.55078v18.30078"/><use xlink:href="#d" x="115.21453" y="52.79223"/><path fill="none" stroke="#000" stroke-miterlimit="10" stroke-width=".39577" d="M154.70704 22.55078v18.30078"/><use xlink:href="#e" x="151.81265" y="52.66511"/><path fill="none" stroke="#000" stroke-miterlimit="10" stroke-width=".39577" d="M191.3047 22.55078v18.30078"/><use xlink:href="#f" x="188.40978" y="52.66511"/><path fill="none" stroke="#000" stroke-miterlimit="10" stroke-width=".39577" d="M227.90627 22.55078v18.30078"/><use xlink:href="#g" x="225.00692" y="52.79223"/><path fill="none" stroke="#000" stroke-miterlimit="10" stroke-width=".39577" d="M264.50392 22.55078v18.30078"/><use xlink:href="#h" x="261.60504" y="52.66511"/><path fill="none" stroke="#000" stroke-miterlimit="10" stroke-width=".39577" d="M301.10158 22.55078v18.30078"/><use xlink:href="#i" x="298.20218" y="52.79223"/><path fill="none" stroke="#000" stroke-miterlimit="10" stroke-width=".39577" d="M337.69924 22.55078v18.30078"/><use xlink:href="#j" x="334.8003" y="52.79223"/><path fill="none" stroke="#000" stroke-miterlimit="10" stroke-width=".39577" d="M374.2969 22.55078v18.30078"/><use xlink:href="#b" x="368.50343" y="52.79223"/><use xlink:href="#a" x="374.29158" y="52.79223"/><path fill="none" stroke="#000" stroke-miterlimit="10" stroke-width=".79154" d="M8.3164 31.69922h378.14456"/><path d="M390.59766 31.69922c-.50782-.10547-2.7422-.70313-4.13672-1.35156v2.70703c1.39453-.64844 3.6289-1.25 4.13672-1.35547m0 0"/><g clip-path="url(#k)"><path fill="none" stroke="#000" stroke-miterlimit="10" stroke-width=".79154" d="M390.59766 31.69922c-.50782-.10547-2.7422-.70313-4.13672-1.35156v2.70703c1.39453-.64844 3.6289-1.25 4.13672-1.35547Zm0 0"/></g><path fill="none" stroke="#000" stroke-miterlimit="10" stroke-width=".39577" d="M273.1133 26.21094V37.1914"/><use xlink:href="#l" x="266.26236" y="10.04013"/><use xlink:href="#m" x="270.82729" y="10.04013"/><use xlink:href="#n" x="275.39221" y="10.04013"/><path fill="none" stroke="#000" stroke-miterlimit="10" stroke-width=".70751" d="M266.26172 11.80078h13.6953"/><use xlink:href="#l" x="268.54499" y="19.73872"/><use xlink:href="#o" x="273.10992" y="19.73872"/></svg>