<svg xmlns="http://www.w3.org/2000/svg" xmlns:xlink="http://www.w3.org/1999/xlink" width="635.623pt" height="97.91pt" viewBox="0 0 635.623 97.91"><defs><path id="b" d="M.375-.15625.53125 0h5.54688l.46875-1.875-.39063-.0625c-.29687.70313-.54687.79688-1.0625.79688H1.73438c.21874-.625.90625-1.5 2.1875-2.35938C5.23438-4.39062 6.1875-5 6.1875-6.4375c0-1.82812-1.23437-2.46875-2.6875-2.46875-1.78125 0-2.79687 1.03125-2.79687 1.82813 0 .46875.53125.6875.8125.6875.25 0 .375-.125.4375-.39063.20312-.90625.6875-1.64062 1.46875-1.64062.90625 0 1.20312.79687 1.20312 1.75 0 1.26562-.5625 2.09375-1.79687 3.15625C1.15625-2.07812.57813-1.125.375-.15625m0 0"/><path id="c" d="m.26563-2.64062.15625.3125H3.9375V-1c0 .42188-.15625.48438-.45312.51563l-.84375.07812V0H6.25v-.40625l-.60937-.0625c-.28125-.04687-.375-.10937-.375-.53125v-1.32812h1.34375v-.6875H5.26563V-8.75H4.15625C2.89063-6.89062 1.46875-4.67187.26563-2.64062m1.0625-.375C2.0625-4.375 2.96875-5.85937 3.9375-7.39062v4.375Zm0 0"/><path id="d" d="M1.42188 0H5.8125v-.40625L4.76563-.5c-.29688-.03125-.4375-.125-.4375-.60937v-7.73438L4.25-8.90625l-2.8125.46875v.35938l1.125.14062c.25.04688.34375.14063.34375.54688v6.28125c0 .48437-.125.57812-.4375.60937l-1.04687.09375Zm0 0"/><path id="e" d="M.78125-6.25C.78125-2.51562 1.875.21875 4.95313.21875c3.09375 0 4.20312-2.73437 4.20312-6.46875 0-3.75-1.10937-6.46875-4.20312-6.46875C1.875-12.71875.78125-10 .78125-6.25m1.89063 0c0-3.04687.51562-5.8125 2.28125-5.8125C6.73438-12.0625 7.25-9.29687 7.25-6.25S6.73438-.4375 4.95313-.4375c-1.76563 0-2.28125-2.76562-2.28125-5.8125m0 0"/><path id="f" d="M2.03125 0H8.1875v-.53125L6.60938-.67187c-.40625-.04688-.625-.1875-.625-.92188V-12.625l-.09375-.09375-3.85938.65625v.45313l1.75.21875c.3125.04687.4375.1875.4375.71875v9.07812c0 .73438-.17187.875-.60937.92188l-1.57813.14062Zm0 0"/><clipPath id="a"><path d="M617 36h18.14453v26H617Zm0 0"/></clipPath></defs><path fill="none" stroke="#000" stroke-miterlimit="10" stroke-width=".79628" d="M11.69531 48.91016h616.88695"/><path d="M632.74219 48.91016c-.51172-.10547-2.75782-.70703-4.16016-1.36328v2.72656c1.40234-.65625 3.64844-1.25782 4.16016-1.36328m0 0"/><g clip-path="url(#a)"><path fill="none" stroke="#000" stroke-miterlimit="10" stroke-width=".79628" d="M632.74219 48.91016c-.51172-.10547-2.75781-.70704-4.16016-1.36329v2.72657c1.40235-.65625 3.64844-1.25782 4.16016-1.36328Zm0 0"/></g><path fill="none" stroke="#007F7F" stroke-miterlimit="10" stroke-width=".39813" d="M11.69531 40.41406v16.9922m84.96097-16.9922v16.9922m84.96488-16.9922v16.9922m84.96097-16.9922v16.9922m84.96097-16.9922v16.9922m84.96487-16.9922v16.9922m84.96097-16.9922v16.9922"/><path fill="none" stroke="#007F7F" stroke-miterlimit="10" stroke-width=".79628" d="M181.62116 34.75v28.32032"/><use xlink:href="#b" x="178.08594" y="15.53872" fill="#007F7F"/><path fill="none" stroke="#007F7F" stroke-miterlimit="10" stroke-width="1.09499" d="M178.08594 18.26562h7.0664"/><use xlink:href="#c" x="178.08594" y="30.54892" fill="#007F7F"/><use xlink:href="#d" x="178.08594" y="76.17498" fill="#00F"/><path fill="none" stroke="#00F" stroke-miterlimit="10" stroke-width="1.09499" d="M178.08594 78.90234h7.0664"/><use xlink:href="#b" x="178.08594" y="91.18518" fill="#00F"/><path fill="none" stroke="#000" stroke-miterlimit="10" stroke-width=".79628" d="M11.69531 34.75v28.32032"/><use xlink:href="#e" x="6.73844" y="83.2215"/><path fill="none" stroke="#000" stroke-miterlimit="10" stroke-width=".79628" d="M351.5431 34.75v28.32032"/><use xlink:href="#f" x="346.58305" y="83.2215"/></svg>