<svg xmlns="http://www.w3.org/2000/svg" xmlns:xlink="http://www.w3.org/1999/xlink" width="228.72pt" height="35.093pt" viewBox="0 0 228.72 35.093"><defs><path id="a" d="M.4375-3.5625c0 2.125.625 3.6875 2.39063 3.6875s2.39062-1.5625 2.39062-3.6875c0-2.14062-.625-3.70312-2.39062-3.70312S.4375-5.70312.4375-3.5625m1.07813 0c0-1.75.29687-3.32812 1.3125-3.32812 1.01562 0 1.3125 1.57812 1.3125 3.32812 0 1.73438-.29688 3.3125-1.3125 3.3125-1.01563 0-1.3125-1.57812-1.3125-3.3125m0 0"/><path id="b" d="M1.15625 0h3.51563v-.3125l-.90625-.07812c-.21875-.01563-.34375-.09375-.34375-.51563v-6.29687l-.0625-.0625-2.20313.375v.26562l1 .125c.1875.03125.25.10938.25.40625v5.1875c0 .42188-.09375.5-.34375.51563l-.90625.07812Zm0 0"/><clipPath id="c"><path d="M208 0h17.70313v22H208Zm0 0"/></clipPath></defs><path fill="none" stroke="#000" stroke-miterlimit="10" stroke-width=".38846" d="M9.78125.1914v17.96485"/><use xlink:href="#a" x="6.953" y="29.87584"/><path fill="none" stroke="#000" stroke-miterlimit="10" stroke-width=".38846" d="M153.47272.1914v17.96485"/><use xlink:href="#b" x="150.64129" y="29.87584"/><path fill="none" stroke="#000" stroke-miterlimit="10" stroke-width=".77693" d="M9.78125 9.17578h209.51572"/><path d="M223.35547 9.17578c-.5-.10547-2.6914-.6914-4.0586-1.33203v2.66016c1.3672-.64063 3.5586-1.22657 4.0586-1.32813m0 0"/><g clip-path="url(#c)"><path fill="none" stroke="#000" stroke-miterlimit="10" stroke-width=".77693" d="M223.35547 9.17578c-.5-.10547-2.6914-.6914-4.0586-1.33203v2.66016c1.3672-.64063 3.5586-1.22657 4.0586-1.32813Zm0 0"/></g></svg>