<svg xmlns="http://www.w3.org/2000/svg" xmlns:xlink="http://www.w3.org/1999/xlink" width="715.026" height="62.698" viewBox="0 0 715.026 62.698"><defs><clipPath id="a"><path d="M13 15h699.82813v2H13Zm0 0"/></clipPath><clipPath id="b"><path d="M709 12h3.82813v8H709Zm0 0"/></clipPath><path id="c" d="M.875-7C.875-2.8125 2.09375.25 5.5625.25c3.45313 0 4.70313-3.0625 4.70313-7.25 0-4.20312-1.25-7.25-4.70313-7.25C2.09375-14.25.875-11.20312.875-7m2.10938 0c0-3.42187.57812-6.51562 2.57812-6.51562 1.98438 0 2.5625 3.09375 2.5625 6.51562 0 3.40625-.57812 6.51563-2.5625 6.51563-2 0-2.57812-3.10938-2.57812-6.51563m0 0"/><path id="d" d="M2.28125 0h6.89063v-.60937L7.40625-.76563c-.4375-.03124-.6875-.1875-.6875-1.01562v-12.35937L6.60938-14.25l-4.32813.73438v.5l1.95313.25c.35937.04687.5.20312.5.8125v10.17187c0 .82813-.20313.98438-.70313 1.01563l-1.75.15624Zm0 0"/></defs><g clip-path="url(#a)"><path fill="none" stroke="#000" stroke-miterlimit="10" stroke-width=".79319" d="M14.21875 16.26563h697.42944"/></g><g clip-path="url(#b)"><path fill="none" stroke="#000" stroke-linecap="round" stroke-linejoin="round" stroke-miterlimit="10" stroke-width=".79319" d="M709.5039 13.16797c.46485 1.85938 1.5 2.73828 2.53907 3.09766-1.03906.35937-2.07422 1.23828-2.53906 3.09765"/></g><path fill="none" stroke="#000" stroke-miterlimit="10" stroke-width=".79319" d="M14.21875.39844v31.73437"/><use xlink:href="#c" x="8.66431" y="54.71645"/><path fill="none" stroke="#000" stroke-miterlimit="10" stroke-width=".79319" d="M395.06627.39844v31.73437"/><use xlink:href="#d" x="389.50689" y="54.71645"/></svg>