<svg xmlns="http://www.w3.org/2000/svg" xmlns:xlink="http://www.w3.org/1999/xlink" width="459.908" height="62.698" viewBox="0 0 459.908 62.698"><defs><path id="b" d="M.875-7C.875-2.8125 2.09375.25 5.5625.25c3.45313 0 4.70313-3.0625 4.70313-7.25 0-4.20312-1.25-7.25-4.70313-7.25C2.09375-14.25.875-11.20312.875-7m2.10938 0c0-3.42187.57812-6.51562 2.57812-6.51562 1.98438 0 2.5625 3.09375 2.5625 6.51562 0 3.40625-.57812 6.51563-2.5625 6.51563-2 0-2.57812-3.10938-2.57812-6.51563m0 0"/><path id="c" d="M2.28125 0h6.89063v-.60937L7.40625-.76563c-.4375-.03124-.6875-.1875-.6875-1.01562v-12.35937L6.60938-14.25l-4.32813.73438v.5l1.95313.25c.35937.04687.5.20312.5.8125v10.17187c0 .82813-.20313.98438-.70313 1.01563l-1.75.15624Zm0 0"/><clipPath id="a"><path d="M455 12h3.76172v8H455Zm0 0"/></clipPath></defs><path fill="none" stroke="#000" stroke-miterlimit="10" stroke-width=".79319" d="M14.04687 16.26563h443.5272"/><g clip-path="url(#a)"><path fill="none" stroke="#000" stroke-linecap="round" stroke-linejoin="round" stroke-miterlimit="10" stroke-width=".79319" d="M455.4336 13.16797c.46484 1.85938 1.49609 2.73828 2.53906 3.09766-1.04297.35937-2.07422 1.23828-2.53907 3.09765"/></g><path fill="none" stroke="#000" stroke-miterlimit="10" stroke-width=".79319" d="M14.04687.39844v31.73437"/><use xlink:href="#b" x="8.49173" y="54.71645"/><path fill="none" stroke="#000" stroke-miterlimit="10" stroke-width=".79319" d="M267.94522.39844v31.73437"/><use xlink:href="#c" x="262.38678" y="54.71645"/></svg>