<svg xmlns="http://www.w3.org/2000/svg" xmlns:xlink="http://www.w3.org/1999/xlink" width="339.272pt" height="41.432pt" viewBox="0 0 339.272 41.432"><defs><path id="a" d="M.45313-3.60937c0 2.15625.625 3.73437 2.40625 3.73437s2.4375-1.57812 2.4375-3.73437-.65625-3.73438-2.4375-3.73438S.45313-5.76562.45313-3.60937m1.09375 0c0-1.76563.29687-3.35938 1.3125-3.35938 1.03125 0 1.32812 1.59375 1.32812 3.35938S3.89063-.25 2.85938-.25c-1.01563 0-1.3125-1.59375-1.3125-3.35937m0 0"/><path id="b" d="M1.17188 0h3.54687v-.3125L3.8125-.39062C3.59375-.40625 3.46875-.5 3.46875-.92187v-6.375l-.0625-.04688-2.23437.375v.26563l1.01562.125c.1875.01562.25.10937.25.42187v5.23438c0 .42187-.10937.51562-.35937.53125l-.90625.07812Zm0 0"/><path id="d" d="M.90625 0h2.82813v-.26562l-.67188-.0625c-.1875-.01563-.28125-.07813-.28125-.39063v-4.95312l-.0625-.04688-1.79687.3125v.21875l.71875.10938c.17187.01562.21874.07812.21874.34375v4.01562c0 .3125-.07812.375-.28124.39063l-.67188.0625Zm0 0"/><path id="e" d="M.23438-.09375.34375 0h3.54688l.3125-1.20312-.25-.04688c-.20313.45313-.34375.51563-.6875.51563H1.125c.125-.40625.57813-.96875 1.39063-1.51563.84375-.5625 1.45312-.95312 1.45312-1.875 0-1.17187-.79687-1.59375-1.71875-1.59375-1.15625 0-1.79687.67188-1.79687 1.17188 0 .3125.34375.45312.51562.45312.17188 0 .25-.09375.28125-.25.14063-.59375.45313-1.04687.9375-1.04687.59375 0 .78125.5.78125 1.10937 0 .8125-.375 1.34375-1.15625 2.03125C.73438-1.32812.35938-.71875.23438-.09375m0 0"/><clipPath id="c"><path d="M319 0h17.61719v22H319Zm0 0"/></clipPath></defs><path fill="none" stroke="#007f7f" stroke-miterlimit="10" stroke-width=".39311" d="M9.05469 4.02734V14.9336M118.11326 4.02734V14.9336M227.17183 4.02734V14.9336"/><path fill="none" stroke="#007f7f" stroke-miterlimit="10" stroke-width=".78623" d="M118.11326.39453v18.17578"/><path fill="none" stroke="#000" stroke-miterlimit="10" stroke-width=".39311" d="M9.05469.39453v18.17578"/><use xlink:href="#a" x="6.19367" y="30.43082"/><path fill="none" stroke="#000" stroke-miterlimit="10" stroke-width=".39311" d="M227.17183.39453v18.17578"/><use xlink:href="#b" x="224.30552" y="30.43082"/><path fill="none" stroke="#000" stroke-miterlimit="10" stroke-width=".78623" d="M9.05469 9.48047h321.08197"/><path d="M334.2461 9.48047c-.50782-.10547-2.72266-.69922-4.10938-1.34375v2.6914c1.38672-.64843 3.60156-1.24218 4.10937-1.34765m0 0"/><g clip-path="url(#c)"><path fill="none" stroke="#000" stroke-miterlimit="10" stroke-width=".78623" d="M334.2461 9.48047c-.50782-.10547-2.72266-.69922-4.10938-1.34375v2.6914c1.38672-.64843 3.60156-1.24218 4.10937-1.34765Zm0 0"/></g><use xlink:href="#d" x="115.84622" y="26.97963" fill="#007f7f"/><path fill="none" stroke="#007f7f" stroke-miterlimit="10" stroke-width=".70277" d="M115.84766 28.73047h4.53125"/><use xlink:href="#e" x="115.84622" y="36.61316" fill="#007f7f"/></svg>