<svg xmlns="http://www.w3.org/2000/svg" xmlns:xlink="http://www.w3.org/1999/xlink" width="459.908pt" height="71.418pt" viewBox="0 0 459.908 71.418"><defs><path id="b" d="M.42188-.17187.59375 0h6.1875l.53125-2.07812-.4375-.07813c-.34375.76563-.60937.875-1.1875.875H1.95313c.21874-.6875 1-1.67187 2.42187-2.625 1.46875-1 2.53125-1.6875 2.53125-3.28125 0-2.04687-1.375-2.75-3-2.75-1.98437 0-3.125 1.14063-3.125 2.03125 0 .53125.60938.78125.92188.78125.26562 0 .40625-.15625.46875-.4375.23437-1.03125.78125-1.84375 1.64062-1.84375 1.03125 0 1.35938.89063 1.35938 1.95313 0 1.42187-.64063 2.34375-2.01563 3.53125C1.29688-2.3125.64063-1.26562.42188-.17187m0 0"/><path id="c" d="m.29688-2.9375.17187.34375h3.92188V-1.125c0 .46875-.17188.54688-.5.57813l-.9375.09374V0h4.01562v-.45312l-.67187-.07813c-.3125-.04687-.42188-.125-.42188-.59375v-1.46875h1.5v-.76562h-1.5v-6.40625H4.64063c-1.42188 2.07812-3 4.54687-4.34375 6.82812m1.1875-.42187C2.29688-4.89062 3.3125-6.53125 4.39063-8.25v4.89063Zm0 0"/><path id="d" d="M.625-1.5625c0 .625.95313 1.73438 3.01563 1.73438 2.48437 0 3.54687-1.48438 3.54687-3.3125 0-1.875-1.125-3.10938-3.07812-3.10938-.85938 0-1.71875.375-2.20313.78125l.29688-2.5625c.0625-.40625.125-.46875.4375-.46875h3.70312l.42188-1.14062-.09375-.125h-5.0625l-.125.125-.29688 4.875.42188.25c.57812-.70313 1.15625-1.03125 1.9375-1.03125.95312 0 1.92187.70312 1.92187 2.57812 0 1.48438-.5625 2.59375-1.75 2.59375-.9375 0-1.4375-.67187-1.76562-1.60937-.07813-.25-.23438-.40625-.48438-.40625-.34375 0-.84375.3125-.84375.82812m0 0"/><path id="e" d="M.85938-6.98437C.85938-2.79687 2.09375.25 5.53125.25c3.45313 0 4.70313-3.04687 4.70313-7.23437 0-4.17188-1.25-7.21875-4.70313-7.21875-3.4375 0-4.67187 3.04687-4.67187 7.21875m2.125 0c0-3.40625.57812-6.48438 2.54687-6.48438 1.98438 0 2.5625 3.07813 2.5625 6.48438s-.57812 6.5-2.5625 6.5c-1.96875 0-2.54687-3.09375-2.54687-6.5m0 0"/><path id="f" d="M2.26563 0h6.875v-.59375L7.375-.75c-.4375-.04687-.6875-.20312-.6875-1.03125v-12.3125l-.10937-.10937-4.3125.73437v.5l1.95312.25c.35938.04688.5.20313.5.79688v10.14062c0 .82813-.20312.98438-.6875 1.03125l-1.76562.15625Zm0 0"/><clipPath id="a"><path d="M440 3h18.0039v26H440Zm0 0"/></clipPath></defs><path fill="none" stroke="#000" stroke-miterlimit="10" stroke-width=".79057" d="M14.76172 16.21094h436.7267"/><path d="M455.61719 16.21094c-.50781-.10547-2.73828-.70313-4.1289-1.35157v2.70313c1.39062-.64844 3.62108-1.2461 4.1289-1.35156m0 0"/><g clip-path="url(#a)"><path fill="none" stroke="#000" stroke-miterlimit="10" stroke-width=".79057" d="M455.61719 16.21094c-.50781-.10547-2.73828-.70313-4.1289-1.35157v2.70313c1.39062-.64844 3.62109-1.2461 4.1289-1.35156Zm0 0"/></g><path fill="none" stroke="#007F7F" stroke-miterlimit="10" stroke-width=".39528" d="M14.76172 6.72265v18.97657M78.02736 6.72265v18.97657M141.2891 6.72265v18.97657m63.26565-18.97657v18.97657M267.8204 6.72265v18.97657m63.26564-18.97657v18.97657m63.26174-18.97657v18.97657"/><use xlink:href="#b" x="137.3437" y="46.66447" fill="#007F7F"/><path fill="none" stroke="#007F7F" stroke-miterlimit="10" stroke-width="1.22303" d="M137.34375 49.71094h7.89063"/><use xlink:href="#c" x="137.3437" y="63.42985" fill="#007F7F"/><use xlink:href="#d" x="327.13381" y="46.49386" fill="#007F7F"/><path fill="none" stroke="#007F7F" stroke-miterlimit="10" stroke-width="1.22303" d="M327.13281 49.53906h7.89454"/><use xlink:href="#c" x="327.13381" y="63.25924" fill="#007F7F"/><path fill="none" stroke="#000" stroke-miterlimit="10" stroke-width=".79057" d="M14.76172.39453v31.63282"/><use xlink:href="#e" x="9.22378" y="54.53558"/><path fill="none" stroke="#000" stroke-miterlimit="10" stroke-width=".79057" d="M267.8204.39453v31.63282"/><use xlink:href="#f" x="262.27957" y="54.53558"/></svg>