<svg xmlns="http://www.w3.org/2000/svg" xmlns:xlink="http://www.w3.org/1999/xlink" width="255.681pt" height="39.854pt" viewBox="0 0 255.681 39.854"><defs><path id="b" d="M.23438-.09375.32813 0h3.45312l.29688-1.17187-.23438-.03126c-.1875.4375-.34375.48438-.67187.48438H1.07813c.14062-.39062.57812-.9375 1.35937-1.46875.82813-.54687 1.42188-.9375 1.42188-1.82812 0-1.14063-.78125-1.53125-1.67188-1.53125-1.125 0-1.75.64062-1.75 1.14062 0 .28125.32813.42188.51563.42188.15624 0 .23437-.07813.26562-.23438.125-.57812.4375-1.03125.90625-1.03125.57813 0 .76563.5.76563 1.09375 0 .78125-.35938 1.3125-1.125 1.96875C.71875-1.29687.35938-.70312.23438-.09375m0 0"/><path id="c" d="m.17188-1.64062.09375.1875h2.1875V-.625c0 .26563-.09375.29688-.28125.32813L1.65625-.25V0h2.23438v-.25l-.375-.04687c-.17188-.03125-.23438-.0625-.23438-.32813v-.82812H4.125V-1.875h-.84375v-3.57812h-.6875C1.79688-4.29687.90625-2.90625.17188-1.64062M.82813-1.875c.45312-.85937 1.01562-1.78125 1.625-2.73437V-1.875Zm0 0"/><path id="d" d="M.34375-.875c0 .35938.53125.96875 1.6875.96875 1.39063 0 1.98438-.82812 1.98438-1.84375 0-1.04687-.625-1.75-1.71875-1.75-.48438 0-.95313.21875-1.23438.45313l.17188-1.4375c.03124-.21875.0625-.26563.25-.26563h2.0625l.23437-.625-.04687-.07812H.89063l-.0625.07812-.17188 2.71875.23438.14063c.32812-.39063.65625-.57813 1.09375-.57813.53125 0 1.0625.39063 1.0625 1.4375 0 .82813-.3125 1.45313-.96875 1.45313-.51563 0-.79688-.375-.98438-.90625C1.04688-1.25.95313-1.34375.8125-1.34375c-.1875 0-.46875.17188-.46875.46875m0 0"/><path id="e" d="M.48438-3.89062c0 2.32812.6875 4.03125 2.60937 4.03125S5.70313-1.5625 5.70313-3.89062c0-2.34375-.6875-4.03125-2.60938-4.03125S.48438-6.23437.48438-3.89062m1.17187 0c0-1.90625.32813-3.625 1.4375-3.625 1.09375 0 1.42188 1.71875 1.42188 3.625 0 1.89062-.32813 3.625-1.42188 3.625-1.10937 0-1.4375-1.73438-1.4375-3.625m0 0"/><path id="f" d="M1.26563 0h3.82812v-.32812L4.125-.42187C3.875-.45312 3.73438-.53125 3.73438-1v-6.85937l-.0625-.0625-2.40625.40625v.28125l1.09375.14062c.20312.01563.26562.10938.26562.4375V-1c0 .46875-.10937.54688-.375.57813l-.98437.09375Zm0 0"/><clipPath id="a"><path d="M237 0h18.05469v22H237Zm0 0"/></clipPath></defs><path fill="none" stroke="#000" stroke-miterlimit="10" stroke-width=".7941" d="M7.53125 9.22266h240.97656"/><path d="M252.65625 9.22266c-.50781-.10547-2.75-.70703-4.14844-1.35938v2.71875c1.39844-.65234 3.64063-1.2539 4.14844-1.35937m0 0"/><g clip-path="url(#a)"><path fill="none" stroke="#000" stroke-miterlimit="10" stroke-width=".7941" d="M252.65625 9.22266c-.50781-.10547-2.75-.70703-4.14844-1.35938v2.71875c1.39844-.65234 3.64063-1.2539 4.14844-1.35937Zm0 0"/></g><path fill="none" stroke="#007F7F" stroke-miterlimit="10" stroke-width=".39705" d="M7.53125 3.92969v10.58984M42.83594 3.92969v10.58984M78.14063 3.92969v10.58984m35.30468-10.58984v10.58984M148.75 3.92969v10.58984m35.30469-10.58984v10.58984m35.30078-10.58984v10.58984"/><use xlink:href="#b" x="75.93864" y="26.2177" fill="#007F7F"/><path fill="none" stroke="#007F7F" stroke-miterlimit="10" stroke-width=".6825" d="M75.9375 27.91797h4.40625"/><use xlink:href="#c" x="75.93864" y="35.57343" fill="#007F7F"/><use xlink:href="#d" x="181.84939" y="26.12205" fill="#007F7F"/><path fill="none" stroke="#007F7F" stroke-miterlimit="10" stroke-width=".6825" d="M181.84766 27.82031h4.40624"/><use xlink:href="#c" x="181.84939" y="35.47778" fill="#007F7F"/><path fill="none" stroke="#000" stroke-miterlimit="10" stroke-width=".7941" d="M7.53125.39844v17.65234"/><use xlink:href="#e" x="4.44355" y="30.60986"/><path fill="none" stroke="#000" stroke-miterlimit="10" stroke-width=".7941" d="M148.75.39844v17.65234"/><use xlink:href="#f" x="145.65823" y="30.60986"/></svg>