<svg xmlns="http://www.w3.org/2000/svg" xmlns:xlink="http://www.w3.org/1999/xlink" width="88.675pt" height="57.492pt" viewBox="0 0 88.675 57.492"><defs><path id="a" d="M1.26563 0h3.8125v-.32812l-.98438-.09375c-.25-.01563-.375-.10938-.375-.5625v-6.84375l-.0625-.0625-2.39062.40625v.28125l1.07812.14062c.20313.03125.26563.10938.26563.45313v5.625c0 .21874-.01563.35937-.09375.4375-.0625.09374-.15625.10937-.28125.125l-.96875.09375Zm0 0"/><path id="b" d="M.3125-.10937.4375 0h4.79688L5.625-1.53125l-.3125-.0625c-.25.625-.48437.71875-.95312.71875H1.39063c.1875-.60937.875-1.4375 1.95312-2.20312C4.45313-3.90625 5.3125-4.42187 5.3125-5.71875c0-1.60937-1.0625-2.17187-2.28125-2.17187-1.59375 0-2.42187.96875-2.42187 1.57812 0 .39063.45312.57813.65625.57813s.28124-.125.32812-.32813c.1875-.78125.64063-1.42187 1.35938-1.42187.89062 0 1.14062.75 1.14062 1.59375 0 1.25-.625 1.95312-1.64062 2.84375C1.03125-1.79687.53125-1.01562.3125-.10937m0 0"/><path id="c" d="M.3125-1.1875c0 .5.79688 1.32813 2.4375 1.32813 1.6875 0 2.75-.85938 2.75-2.34375 0-1.54688-1.34375-2-1.98437-2.0625v-.04688c.625-.10937 1.625-.57812 1.625-1.71875 0-1.28125-1-1.85937-2.23438-1.85937C1.375-7.89062.60938-7 .60938-6.5c0 .35938.42187.54688.57812.54688q.21095 0 .28125-.23438c.26563-.78125.6875-1.29687 1.34375-1.29687.92188 0 1.15625.8125 1.15625 1.45312 0 .70313-.25 1.57813-1.23437 1.57813-.5625 0-.89063-.10938-1.01563-.10938-.15625 0-.21875.10938-.21875.3125 0 .20313.0625.32813.21875.32813.125 0 .45313-.10938 1.01563-.10938.98437 0 1.53125.89063 1.53125 1.89063 0 1.39062-.67188 1.875-1.5 1.875C2-.26562 1.5-.84375 1.26563-1.5c-.0625-.21875-.17188-.32812-.34375-.32812-.20313 0-.60938.21874-.60938.64062m0 0"/><path id="e" d="M.42188-5.3125c0 1.46875 1.03125 2.20313 2.23437 2.20313.71875 0 1.3125-.40625 1.71875-.96875h.01563c0 .71875-.04688 1.65625-.25 2.46875-.21875.75-.625 1.34375-1.35938 1.34375-.79687 0-1.09375-.625-1.26562-1.17188-.04688-.14062-.125-.23437-.3125-.23437-.23438 0-.54688.23437-.54688.59375 0 .51562.60938 1.21875 2.01563 1.21875.9375 0 1.64062-.34375 2.09375-.96875C5.25-1.5 5.53125-2.5 5.53125-4.1875c0-1.4375-.28125-2.375-.73437-2.92187-.45313-.51563-1.07813-.78125-1.82813-.78125C1.5-7.89062.42188-6.90625.42188-5.3125m1.15625-.3125c0-1.0625.48437-1.85937 1.39062-1.85937.92188 0 1.375 1.10937 1.375 2.21875 0 .20312-.01562.4375-.07812.625-.1875.54687-.65625.90625-1.26563.90625-.90625 0-1.42187-.78125-1.42187-1.89063m0 0"/><path id="f" d="m.21875-2.32812.10938.25h3.15625v1.1875c0 .39062-.125.45312-.40625.48437l-.75.07813V0h3.0625v-.32812L4.875-.39062c-.26562-.04688-.34375-.10938-.34375-.5v-1.1875h1.1875v-.53125h-1.1875V-7.75h-.85937C2.59375-6.14062 1.28125-4.14062.21875-2.32812m.84375-.28125C1.75-3.875 2.5625-5.21875 3.45313-6.625h.03125v4.01563Zm0 0"/><path id="g" d="M.48438-6.125h.3125l.10937-.25c.14063-.3125.29688-.48437.82813-.48437h3.125C4.75-6.4375 4.53125-5.78125 3.59375-4.4375 2.59375-3 1.9375-1.70312 1.9375-.32812c0 .375.26563.46875.625.46875.34375 0 .57813-.10938.57813-.4375C3.07813-1.82812 3.375-3.07812 4-4.14062 4.73438-5.4375 5.35938-6.17187 5.76563-7.625l-.09375-.125H.84375Zm0 0"/><path id="d" d="M.98438-2.9375H7.375v-.67187H.98438Zm0 0"/></defs><path fill="none" stroke="#000" stroke-miterlimit="10" stroke-width=".49314" d="M15.72266 10.03906V4.11328m0 0H49.8672m-.00001 5.92578V4.11328"/><use xlink:href="#a" x="18.33947" y="18.92701"/><use xlink:href="#b" x="29.72085" y="18.92701"/><use xlink:href="#c" x="41.10222" y="18.92701"/><use xlink:href="#d" x="4.3419" y="33.73987"/><path fill="none" stroke="#000" stroke-miterlimit="10" stroke-width=".49314" d="M15.72266 37.44531H49.8672"/><use xlink:href="#a" x="18.33947" y="33.73987"/><use xlink:href="#a" x="29.72085" y="33.73987"/><use xlink:href="#e" x="41.10222" y="33.73987"/><use xlink:href="#f" x="41.10209" y="48.55398"/><path fill="none" stroke="#000" stroke-miterlimit="10" stroke-width=".49314" d="M55.5586 52.875V4.11718m0 14.19142h28.45312"/><use xlink:href="#a" x="63.86595" y="14.60644"/><use xlink:href="#g" x="75.24732" y="14.60644"/><use xlink:href="#g" x="63.86595" y="29.4193"/></svg>