<svg xmlns="http://www.w3.org/2000/svg" xmlns:xlink="http://www.w3.org/1999/xlink" width="379.697pt" height="35.009pt" viewBox="0 0 379.697 35.009"><defs><path id="b" d="M.46875-3.79687c0 2.26562.67188 3.9375 2.54688 3.9375S5.5625-1.53125 5.5625-3.79687c0-2.28125-.67187-3.9375-2.54687-3.9375S.46875-6.07812.46875-3.79687m1.15625 0c0-1.85938.3125-3.54688 1.39063-3.54688 1.07812 0 1.39062 1.6875 1.39062 3.54688 0 1.84375-.3125 3.53125-1.39062 3.53125-1.07813 0-1.39063-1.6875-1.39063-3.53125m0 0"/><path id="c" d="M1.23438 0h3.75v-.32812l-.96875-.07813c-.23438-.03125-.375-.10937-.375-.5625v-6.70312l-.0625-.0625-2.34375.39062v.28125l1.0625.14063c.20312.01562.26562.10937.26562.4375v5.51562c0 .45313-.10937.53125-.375.5625l-.95312.07813Zm0 0"/><path id="d" d="M.29688-.10937.42188 0h4.71875l.375-1.5-.3125-.0625c-.23438.625-.46875.70313-.92188.70313H1.375c.17188-.59375.85938-1.40625 1.90625-2.17188 1.09375-.79687 1.9375-1.29687 1.9375-2.57812 0-1.57813-1.04687-2.125-2.25-2.125-1.5625 0-2.35937.9375-2.35937 1.53125 0 .39062.4375.57812.625.57812.20312 0 .28124-.125.32812-.32812.1875-.76563.625-1.39063 1.32813-1.39063.875 0 1.125.73438 1.125 1.5625 0 1.23438-.60938 1.92188-1.60938 2.79688C1-1.76562.51563-1 .29688-.10937m0 0"/><path id="e" d="M.29688-1.15625c0 .48438.79687 1.29688 2.40625 1.29688 1.64062 0 2.6875-.84375 2.6875-2.29688 0-1.53125-1.3125-1.96875-1.9375-2.03125v-.04687c.60937-.09375 1.59375-.5625 1.59375-1.6875 0-1.26563-.98438-1.8125-2.20313-1.8125-1.5 0-2.23437.875-2.23437 1.35937 0 .34375.39062.53125.54687.53125s.23438-.07812.28125-.21875c.25-.78125.6875-1.28125 1.32813-1.28125.89062 0 1.125.79688 1.125 1.4375 0 .67188-.25 1.53125-1.21875 1.53125-.54688 0-.85938-.10937-.98438-.10937-.15625 0-.20312.10937-.20312.3125 0 .20312.04687.32812.20312.32812.125 0 .4375-.10937.98438-.10937.96875 0 1.51562.85937 1.51562 1.85937 0 1.35938-.65625 1.82813-1.46875 1.82813-.75 0-1.25-.5625-1.46875-1.20313-.07812-.21875-.1875-.32812-.34375-.32812-.20312 0-.60937.21874-.60937.64062m0 0"/><path id="f" d="m.21875-2.28125.09375.25h3.10938V-.875c0 .39063-.125.45313-.40625.46875l-.73438.07813V0h3.01563v-.32812l-.51563-.0625C4.51563-.42187 4.4375-.48437 4.4375-.875v-1.15625h1.17188v-.53125H4.4375v-5.04687h-.82812C2.54688-6.03125 1.26563-4.0625.21875-2.28125m.82813-.28125c.67187-1.23437 1.5-2.5625 2.375-3.9375v3.9375Zm0 0"/><path id="g" d="M.45313-1.15625c0 .51563.8125 1.29688 2.28125 1.29688 1.875 0 2.73437-1.14063 2.73437-2.59375 0-1.59375-1-2.40625-2.35937-2.40625-.625 0-1.3125.28125-1.6875.60937l.26562-2.15625c.03125-.29687.10938-.32812.32813-.32812h2.82812L5.125-7.5l-.0625-.10937H1.26563L1.15625-7.5.92188-3.6875l.28124.14063c.46876-.54688.92188-.8125 1.54688-.8125.71875 0 1.53125.53125 1.53125 2.03125 0 1.17187-.48437 2.0625-1.46875 2.0625-.79687 0-1.20312-.5625-1.4375-1.21875-.0625-.17188-.17187-.28126-.32812-.28126-.21876 0-.59375.23438-.59375.60938m0 0"/><path id="h" d="M.5-3.51562C.5-1.04687 1.39063.14063 3.09375.14063c1.6875 0 2.57813-1.03125 2.57813-2.57813 0-1.53125-.9375-2.375-2.15625-2.375-.90625 0-1.5625.60938-1.875.98438.01562-2.5.70312-3.51563 1.73437-3.51563.53125 0 .90625.4375 1.0625 1.09375.04688.14063.125.25.29688.25.25 0 .60937-.21875.60937-.53125 0-.45312-.5625-1.20312-1.92187-1.20312C1.60938-7.73437.5-6.34375.5-3.51562m1.14063.82812c0-.6875.53125-1.53125 1.48437-1.53125.71875 0 1.42188.64063 1.42188 1.95313 0 1.20312-.46875 2-1.42188 2-1 0-1.48437-1.04688-1.48437-2.42188m0 0"/><path id="i" d="M.46875-6h.3125l.10938-.25c.14062-.3125.29687-.48437.79687-.48437h3.07813c-.10938.40625-.32813 1.0625-1.23438 2.39062-.98437 1.40625-1.625 2.67188-1.625 4.01563 0 .375.26563.46875.60938.46875.3125 0 .54687-.07813.54687-.4375 0-1.75.29688-2.79688.85938-3.76563C4.65625-5.34375 5.25-6.04687 5.65625-7.48437l-.09375-.125H.82813Zm0 0"/><path id="j" d="M.46875-2.07812c0 1.15625.70313 2.21875 2.54688 2.21875S5.5625-.92187 5.5625-2.07812s-.73437-1.82813-1.5-2.01563c.6875-.1875 1.23438-.78125 1.23438-1.70312 0-1.23438-.96875-1.9375-2.28125-1.9375S.71875-7.03125.71875-5.79687c0 .92187.59375 1.51562 1.26563 1.70312-.76563.1875-1.51563.85938-1.51563 2.01563m1.14063.04687c0-1.04687.5-1.8125 1.40625-1.8125s1.40625.76563 1.40625 1.8125c0 1-.45313 1.76563-1.40625 1.76563-.95313 0-1.40625-.76563-1.40625-1.76563m.21874-3.79687c0-.875.40626-1.51563 1.1875-1.51563.78125 0 1.1875.64063 1.1875 1.51563 0 .78125-.35937 1.5625-1.1875 1.5625-.82812 0-1.1875-.78125-1.1875-1.5625m0 0"/><path id="k" d="M.40625-5.17187c0 1.54687.95313 2.375 2.17188 2.375.89062 0 1.5625-.60938 1.85937-.98438 0 2.51563-.70312 3.51563-1.71875 3.51563-.53125 0-.90625-.4375-1.07812-1.09375-.03126-.125-.10938-.23438-.28126-.23438-.25 0-.60937.20313-.60937.51563C.75-.625 1.3125.14063 2.67188.14063c1.8125 0 2.92187-1.40625 2.92187-4.23438 0-2.45312-.89062-3.64062-2.60937-3.64062-1.67188 0-2.57813 1.01562-2.57813 2.5625m1.14063-.17188c0-1.1875.46875-2 1.42187-2 .98438 0 1.46875 1.0625 1.46875 2.42188 0 .70312-.51562 1.54687-1.46875 1.54687-.71875 0-1.42187-.65625-1.42187-1.96875m0 0"/><clipPath id="a"><path d="M356 0h18.32422v22H356Zm0 0"/></clipPath></defs><path fill="none" stroke="#000" stroke-miterlimit="10" stroke-width=".77507" d="M12.1289 9.0039h355.80461"/><path d="M371.98438 9.0039c-.5-.10546-2.6836-.6914-4.05079-1.32812v2.65235c1.3672-.63672 3.55079-1.22266 4.05079-1.32422m0 0"/><g clip-path="url(#a)"><path fill="none" stroke="#000" stroke-miterlimit="10" stroke-width=".77507" d="M371.98437 9.0039c-.5-.10546-2.68359-.6914-4.05078-1.32812v2.65234c1.36719-.63671 3.55078-1.22265 4.05078-1.32421Zm0 0"/></g><path fill="none" stroke="#000" stroke-miterlimit="10" stroke-width=".77507" d="M12.1289.38672v17.23046"/><use xlink:href="#b" x="9.11551" y="29.87532"/><path fill="none" stroke="#000" stroke-miterlimit="10" stroke-width=".77507" d="M46.58984.38672v17.23046"/><use xlink:href="#c" x="43.57312" y="29.87532"/><path fill="none" stroke="#000" stroke-miterlimit="10" stroke-width=".77507" d="M81.04686.38672v17.23046"/><use xlink:href="#d" x="78.03073" y="29.87532"/><path fill="none" stroke="#000" stroke-miterlimit="10" stroke-width=".77507" d="M115.50388.38672v17.23046"/><use xlink:href="#e" x="112.48834" y="29.87532"/><path fill="none" stroke="#000" stroke-miterlimit="10" stroke-width=".77507" d="M149.9609.38672v17.23046"/><use xlink:href="#f" x="146.94594" y="29.74209"/><path fill="none" stroke="#000" stroke-miterlimit="10" stroke-width=".77507" d="M184.42184.38672v17.23046"/><use xlink:href="#g" x="181.40355" y="29.74209"/><path fill="none" stroke="#000" stroke-miterlimit="10" stroke-width=".77507" d="M218.87886.38672v17.23046"/><use xlink:href="#h" x="215.86116" y="29.87532"/><path fill="none" stroke="#000" stroke-miterlimit="10" stroke-width=".77507" d="M253.33588.38672v17.23046"/><use xlink:href="#i" x="250.31877" y="29.74209"/><path fill="none" stroke="#000" stroke-miterlimit="10" stroke-width=".77507" d="M287.79681.38672v17.23046"/><use xlink:href="#j" x="284.77638" y="29.87532"/><path fill="none" stroke="#000" stroke-miterlimit="10" stroke-width=".77507" d="M322.25384.38672v17.23046"/><use xlink:href="#k" x="319.23398" y="29.87532"/><path fill="none" stroke="#000" stroke-miterlimit="10" stroke-width=".77507" d="M356.71086.38672v17.23046"/><use xlink:href="#c" x="350.67596" y="29.87532"/><use xlink:href="#b" x="356.70698" y="29.87532"/></svg>