<svg xmlns="http://www.w3.org/2000/svg" xmlns:xlink="http://www.w3.org/1999/xlink" width="394.547pt" height="57.602pt" viewBox="0 0 394.547 57.602"><defs><path id="a" d="M.45313-3.64062c0 2.1875.64062 3.76562 2.4375 3.76562 1.78125 0 2.4375-1.57812 2.4375-3.76562 0-2.17188-.65625-3.75-2.4375-3.75-1.79688 0-2.4375 1.57812-2.4375 3.75m1.09375 0c0-1.76563.3125-3.375 1.34375-3.375 1.01562 0 1.32812 1.60937 1.32812 3.375 0 1.78125-.3125 3.39062-1.32812 3.39062-1.03125 0-1.34375-1.60937-1.34375-3.39062m0 0"/><path id="b" d="M1.1875 0h3.57813v-.3125l-.92188-.07812C3.60938-.42187 3.48438-.5 3.48438-.92187v-6.42188l-.0625-.04687-2.23438.375V-6.75l1.01563.125c.1875.03125.25.10938.25.42188v5.28125c0 .42187-.10938.5-.35938.53125L1.1875-.3125Zm0 0"/><path id="c" d="M.29688-.10937.40625 0h4.5l.375-1.4375L4.98438-1.5c-.23438.59375-.45313.67188-.89063.67188H1.3125c.17188-.5625.8125-1.34375 1.82813-2.0625 1.04687-.76563 1.84375-1.25 1.84375-2.46875 0-1.51563-1-2.03125-2.14063-2.03125-1.5 0-2.26562.89062-2.26562 1.46875 0 .35937.42187.53125.60937.53125S1.45313-5.5 1.5-5.6875c.17188-.73437.59375-1.32812 1.26563-1.32812.82812 0 1.07812.6875 1.07812 1.5 0 1.15625-.59375 1.82812-1.54687 2.65625C.96875-1.6875.5-.95312.29688-.10937m0 0"/><path id="d" d="M.29688-1.10937c0 .46875.75 1.23437 2.28125 1.23437 1.57812 0 2.57812-.79687 2.57812-2.1875 0-1.45312-1.25-1.89062-1.85937-1.9375v-.04687c.59375-.09375 1.53125-.53125 1.53125-1.60938 0-1.20312-.9375-1.73437-2.10938-1.73437-1.4375 0-2.14062.82812-2.14062 1.28125 0 .34375.39062.53125.53125.53125s.21874-.07813.26562-.21875c.25-.75.65625-1.21875 1.26563-1.21875.85937 0 1.07812.75 1.07812 1.35937C3.71875-5 3.48438-4.1875 2.5625-4.1875c-.53125 0-.82812-.09375-.95312-.09375-.14063 0-.20313.09375-.20313.29688 0 .1875.0625.29687.20313.29687.125 0 .42187-.09375.95312-.09375C3.48438-3.78125 4-2.95312 4-2 4-.70312 3.375-.25 2.59375-.25c-.71875 0-1.1875-.53125-1.40625-1.15625-.0625-.20312-.17187-.3125-.3125-.3125-.20312 0-.57812.21875-.57812.60938m0 0"/><path id="e" d="m.20313-2.17187.09375.23437h2.96875v1.10938c0 .35937-.10938.42187-.375.45312l-.70313.0625V0h2.875v-.3125L4.57813-.375C4.3125-.40625 4.25-.46875 4.25-.82812V-1.9375h1.10938v-.51562H4.25v-4.8125h-.79687c-1.01563 1.5-2.25 3.39062-3.25 5.09375M1-2.45312c.64063-1.1875 1.4375-2.4375 2.26563-3.76563v3.76563Zm0 0"/><path id="f" d="M.4375-1.10937c0 .5.76563 1.23437 2.17188 1.23437 1.79687 0 2.60937-1.09375 2.60937-2.46875 0-1.51562-.95312-2.29687-2.25-2.29687-.59375 0-1.25.26562-1.60937.57812l.25-2.0625c.03124-.28125.10937-.3125.3125-.3125H4.625l.26563-.73437-.04688-.09375H1.20313l-.10938.09375L.875-3.53125l.26563.14063c.45312-.51563.89062-.78125 1.48437-.78125.70313 0 1.46875.51562 1.46875 1.95312 0 1.125-.45312 1.96875-1.40625 1.96875-.76562 0-1.14062-.54687-1.375-1.17187C1.26563-1.59375 1.15625-1.6875 1-1.6875c-.21875 0-.5625.21875-.5625.57813m0 0"/><path id="g" d="M.46875-3.35937C.46875-1 1.32813.125 2.96875.125c1.60938 0 2.46875-.96875 2.46875-2.45312 0-1.46875-.90625-2.26563-2.07812-2.26563-.85938 0-1.5.57813-1.78125.9375.01562-2.40625.67187-3.35937 1.65625-3.35937.5 0 .85937.42187 1.01562 1.04687.03125.125.10938.21875.28125.21875.23438 0 .57813-.1875.57813-.48437 0-.45313-.53125-1.15625-1.84375-1.15625-1.71875 0-2.79688 1.32812-2.79688 4.03125m1.10938.78125c0-.65625.5-1.46875 1.40625-1.46875.6875 0 1.35937.625 1.35937 1.875 0 1.15625-.4375 1.92187-1.35937 1.92187-.95313 0-1.40625-1.01562-1.40625-2.32812m0 0"/><path id="h" d="M.45313-5.75h.28125l.10937-.21875c.14063-.3125.29688-.46875.78125-.46875h2.9375c-.10937.39063-.3125 1.01563-1.1875 2.28125C2.4375-2.8125 1.8125-1.59375 1.8125-.3125c0 .35938.26563.4375.59375.4375.29688 0 .51563-.0625.51563-.42187 0-1.65625.29687-2.67188.82812-3.59375.70313-1.21875 1.28125-1.89063 1.65625-3.26563l-.09375-.10937H.78125Zm0 0"/><path id="i" d="M.45313-1.98437C.45313-.875 1.125.125 2.89063.125c1.75 0 2.42187-1 2.42187-2.10937s-.6875-1.75-1.4375-1.92188c.65625-.1875 1.20313-.75 1.20313-1.64062 0-1.1875-.9375-1.84375-2.1875-1.84375-1.26563 0-2.20313.65625-2.20313 1.84375 0 .89062.5625 1.45312 1.21875 1.64062-.73437.17188-1.45312.8125-1.45312 1.92188m1.09375.04687c0-1 .46875-1.75 1.34375-1.75.85937 0 1.32812.75 1.32812 1.75 0 .95313-.42187 1.6875-1.32812 1.6875-.92188 0-1.34375-.73437-1.34375-1.6875M1.75-5.5625c0-.84375.39063-1.45312 1.14063-1.45312.73437 0 1.125.60937 1.125 1.45312 0 .73438-.34375 1.48438-1.125 1.48438-.79688 0-1.14063-.75-1.14063-1.48438m0 0"/><path id="j" d="M.39063-4.9375c0 1.46875.90625 2.26563 2.07812 2.26563.85938 0 1.48438-.57813 1.78125-.9375C4.23438-1.21875 3.57813-.25 2.59375-.25c-.5 0-.85937-.42187-1.01562-1.04687-.03126-.125-.125-.23438-.28126-.23438-.25 0-.57812.20313-.57812.5C.71875-.59375 1.25.125 2.5625.125c1.71875 0 2.78125-1.32812 2.78125-4.03125 0-2.35937-.84375-3.48437-2.48437-3.48437-1.60938 0-2.46875.96875-2.46875 2.45312m1.09375-.17187c0-1.14063.4375-1.90625 1.35937-1.90625.9375 0 1.40625 1 1.40625 2.3125 0 .65625-.5 1.46875-1.40625 1.46875-.6875 0-1.35937-.625-1.35937-1.875m0 0"/><path id="l" d="M.92188 0H3.75v-.26562l-.67187-.0625c-.1875-.01563-.28125-.07813-.28125-.39063v-4.98437L2.75-5.75l-1.82812.3125v.21875l.73437.09375c.15625.03125.21875.09375.21875.35938v4.04687c0 .3125-.07812.375-.28125.39063l-.67187.0625Zm0 0"/><path id="m" d="M.25-.09375.34375 0h3.57813l.3125-1.20312-.25-.04688c-.20313.45313-.35938.51563-.70313.51563H1.125c.14063-.40625.57813-.96875 1.40625-1.53125C3.39063-2.82812 4-3.23437 4-4.15625 4-5.34375 3.1875-5.75 2.26563-5.75c-1.15625 0-1.8125.67188-1.8125 1.17188 0 .3125.34375.45312.53125.45312.15624 0 .23437-.09375.28124-.25.125-.59375.4375-1.0625.9375-1.0625.59375 0 .78125.51563.78125 1.125 0 .82813-.35937 1.35938-1.15625 2.04688C.75-1.34375.375-.73437.25-.09375m0 0"/><path id="n" d="M.23438-.90625c0 .35938.5625 1 1.82812 1 1.26563 0 2.04688-.60937 2.04688-1.6875 0-1.15625-1-1.45312-1.42188-1.5V-3.125c.45313-.09375 1.1875-.42187 1.1875-1.25 0-.98437-.8125-1.375-1.71875-1.375-1.07812 0-1.70312.60938-1.70312 1.03125 0 .29688.32812.4375.46875.4375.125 0 .20312-.07812.25-.20312.1875-.59375.46875-.95313.9375-.95313.625 0 .78125.59375.78125 1.04688C2.89063-3.9375 2.75-3.25 2.04688-3.25c-.375 0-.64063-.09375-.76563-.09375s-.17187.10938-.17187.26563.04687.26562.17187.26562.39063-.09375.76563-.09375c.65625 0 1.0625.54688 1.0625 1.34375 0 .98438-.45313 1.34375-1.03125 1.34375-.51563 0-.85938-.39062-1.04688-.9375-.04687-.15625-.14062-.25-.28125-.25-.1875 0-.51562.1875-.51562.5m0 0"/><path id="o" d="m.34375-4.40625.25.01563.07813-.15625c.10937-.23438.21874-.35938.59375-.35938h2.26562c-.07812.29688-.25.82813-.9375 1.76563-.71875.98437-1.20312 1.92187-1.20312 2.84375 0 .32812.23437.39062.53125.39062.25 0 .45312-.04687.45312-.375.01563-1.23437.21875-2.04687.625-2.73437.60938-1 1.03125-1.54688 1.28125-2.54688l-.07812-.09375H.625Zm0 0"/><clipPath id="k"><path d="M375 19h17.96875v26H375Zm0 0"/></clipPath></defs><path fill="none" stroke="#000" stroke-miterlimit="10" stroke-width=".39577" d="M8.29687 22.55078v18.30078"/><use xlink:href="#a" x="5.41613" y="52.79223"/><path fill="none" stroke="#000" stroke-miterlimit="10" stroke-width=".39577" d="M44.89453 22.55078v18.30078"/><use xlink:href="#b" x="42.01327" y="52.79223"/><path fill="none" stroke="#000" stroke-miterlimit="10" stroke-width=".39577" d="M81.4961 22.55078v18.30078"/><use xlink:href="#c" x="78.61139" y="52.79223"/><path fill="none" stroke="#000" stroke-miterlimit="10" stroke-width=".39577" d="M118.09376 22.55078v18.30078"/><use xlink:href="#d" x="115.20853" y="52.79223"/><path fill="none" stroke="#000" stroke-miterlimit="10" stroke-width=".39577" d="M154.69142 22.55078v18.30078"/><use xlink:href="#e" x="151.80665" y="52.66511"/><path fill="none" stroke="#000" stroke-miterlimit="10" stroke-width=".39577" d="M191.28907 22.55078v18.30078"/><use xlink:href="#f" x="188.40378" y="52.66511"/><path fill="none" stroke="#000" stroke-miterlimit="10" stroke-width=".39577" d="M227.88673 22.55078v18.30078"/><use xlink:href="#g" x="225.00092" y="52.79223"/><path fill="none" stroke="#000" stroke-miterlimit="10" stroke-width=".39577" d="M264.4844 22.55078v18.30078"/><use xlink:href="#h" x="261.59904" y="52.66511"/><path fill="none" stroke="#000" stroke-miterlimit="10" stroke-width=".39577" d="M301.08205 22.55078v18.30078"/><use xlink:href="#i" x="298.19618" y="52.79223"/><path fill="none" stroke="#000" stroke-miterlimit="10" stroke-width=".39577" d="M337.67971 22.55078v18.30078"/><use xlink:href="#j" x="334.7943" y="52.79223"/><path fill="none" stroke="#000" stroke-miterlimit="10" stroke-width=".39577" d="M374.27737 22.55078v18.30078"/><use xlink:href="#b" x="368.50935" y="52.79223"/><use xlink:href="#a" x="374.27435" y="52.79223"/><path fill="none" stroke="#000" stroke-miterlimit="10" stroke-width=".79154" d="M8.29687 31.69922h378.14456"/><path d="M390.57813 31.69922c-.50782-.10547-2.73829-.70313-4.13672-1.35156v2.70703c1.39843-.64844 3.6289-1.25 4.13671-1.35547m0 0"/><g clip-path="url(#k)"><path fill="none" stroke="#000" stroke-miterlimit="10" stroke-width=".79154" d="M390.57813 31.69922c-.50782-.10547-2.73829-.70313-4.13672-1.35156v2.70703c1.39843-.64844 3.6289-1.25 4.13672-1.35547Zm0 0"/></g><path fill="none" stroke="#000" stroke-miterlimit="10" stroke-width=".39577" d="M273.09767 26.21094V37.1914"/><use xlink:href="#l" x="266.24574" y="10.04013"/><use xlink:href="#m" x="270.81066" y="10.04013"/><use xlink:href="#n" x="275.37558" y="10.04013"/><path fill="none" stroke="#000" stroke-miterlimit="10" stroke-width=".70751" d="M266.2461 11.80078h13.6953"/><use xlink:href="#l" x="268.52708" y="19.73872"/><use xlink:href="#o" x="273.092" y="19.73872"/></svg>