<svg xmlns="http://www.w3.org/2000/svg" xmlns:xlink="http://www.w3.org/1999/xlink" width="228.72pt" height="41.233pt" viewBox="0 0 228.72 41.233"><defs><path id="a" d="M.45313-3.59375c0 2.15625.625 3.71875 2.39062 3.71875 1.78125 0 2.42188-1.5625 2.42188-3.71875 0-2.14062-.64063-3.71875-2.42188-3.71875-1.76562 0-2.39062 1.57813-2.39062 3.71875m1.07812 0c0-1.75.29688-3.34375 1.3125-3.34375 1.01563 0 1.3125 1.59375 1.3125 3.34375S3.85938-.25 2.84375-.25c-1.01562 0-1.3125-1.59375-1.3125-3.34375m0 0"/><path id="b" d="M1.17188 0h3.53125v-.3125l-.90625-.07812C3.5625-.40625 3.4375-.48437 3.4375-.92187V-7.25l-.04687-.0625-2.21875.375v.26563l1 .125c.1875.03125.25.10937.25.42187v5.20313c0 .4375-.09375.51562-.35938.53125l-.89062.07812Zm0 0"/><path id="d" d="M.23438-.09375.34375 0h3.54688l.29687-1.1875-.25-.04687c-.20312.4375-.34375.5-.6875.5H1.10938C1.25-1.125 1.6875-1.6875 2.5-2.23437c.84375-.57813 1.45313-.96875 1.45313-1.875 0-1.17188-.79688-1.57813-1.71875-1.57813-1.14063 0-1.78125.65625-1.78125 1.15625 0 .3125.34375.45313.51562.45313.15625 0 .25-.09375.28125-.25.125-.59375.4375-1.04688.9375-1.04688.57813 0 .76563.5.76563 1.10938 0 .8125-.35938 1.34375-1.14063 2.01562C.73438-1.32812.35938-.71875.23438-.09375m0 0"/><path id="e" d="m.17188-1.6875.09375.20313h2.25v.84375c0 .26562-.10938.3125-.28125.32812l-.54688.04688V0h2.29688v-.26562l-.375-.03125c-.1875-.03125-.25-.07813-.25-.34375v-.84375h.85937v-.4375h-.85937v-3.67188h-.70313C1.84375-4.40625.9375-2.98437.17188-1.6875m.67187-.23437c.46875-.875 1.04688-1.8125 1.67188-2.79688v2.79688Zm0 0"/><path id="f" d="M.35938-.89062c0 .35937.54687.98437 1.71875.98437 1.4375 0 2.03125-.84375 2.03125-1.89062 0-1.07813-.64063-1.78125-1.76563-1.78125-.48437 0-.96875.21875-1.25.45312l.17188-1.46875c.03124-.23437.07812-.26562.25-.26562h2.125l.23437-.65625-.04687-.07813H.92188l-.07813.07813-.17187 2.79687.25.14063c.32812-.40625.65625-.59375 1.10937-.59375.54688 0 1.09375.40625 1.09375 1.46875 0 .85937-.3125 1.48437-1 1.48437-.53125 0-.8125-.375-1-.92187C1.0625-1.28125.98438-1.375.84375-1.375c-.20312 0-.48437.1875-.48437.48438m0 0"/><clipPath id="c"><path d="M208 0h18.49219v22H208Zm0 0"/></clipPath></defs><path fill="none" stroke="#007f7f" stroke-miterlimit="10" stroke-width=".39122" d="M9.03906 3.8125v10.85547M45.21484 3.8125v10.85547M81.39452 3.8125v10.85547M117.5703 3.8125v10.85547M153.74999 3.8125v10.85547M189.92967 3.8125v10.85547"/><path fill="none" stroke="#000" stroke-miterlimit="10" stroke-width=".39122" d="M9.03906.19531v18.08985"/><use xlink:href="#a" x="6.18915" y="30.08929"/><path fill="none" stroke="#000" stroke-miterlimit="10" stroke-width=".39122" d="M153.74999.19531v18.08985"/><use xlink:href="#b" x="150.89931" y="30.08929"/><path fill="none" stroke="#000" stroke-miterlimit="10" stroke-width=".78246" d="M9.03906 9.23828h211.00389"/><path d="M224.1289 9.23828c-.5-.10156-2.70702-.69531-4.08593-1.33594v2.67579c1.3789-.64063 3.58594-1.23438 4.08594-1.33985m0 0"/><g clip-path="url(#c)"><path fill="none" stroke="#000" stroke-miterlimit="10" stroke-width=".78246" d="M224.1289 9.23828c-.5-.10156-2.70702-.69531-4.08593-1.33594v2.67578c1.3789-.64062 3.58594-1.23437 4.08594-1.33984Zm0 0"/></g><use xlink:href="#d" x="79.13671" y="26.65468" fill="#007f7f"/><path fill="none" stroke="#007f7f" stroke-miterlimit="10" stroke-width=".69939" d="M79.13672 28.39844h4.51172"/><use xlink:href="#e" x="79.13671" y="36.24194" fill="#007f7f"/><use xlink:href="#f" x="187.67011" y="26.55749" fill="#007f7f"/><path fill="none" stroke="#007f7f" stroke-miterlimit="10" stroke-width=".69939" d="M187.67187 28.30078h4.51172"/><use xlink:href="#e" x="187.67011" y="36.14347" fill="#007f7f"/></svg>