<svg xmlns="http://www.w3.org/2000/svg" xmlns:xlink="http://www.w3.org/1999/xlink" width="179.19pt" height="109.176pt" viewBox="0 0 179.19 109.176"><defs><path id="a" d="M.4375-3.5c0 2.09375.60938 3.625 2.32813 3.625C4.5.125 5.125-1.40625 5.125-3.5c0-2.07812-.625-3.60937-2.35937-3.60937C1.04688-7.10937.4375-5.57812.4375-3.5m1.04688 0c0-1.70312.29687-3.23437 1.28125-3.23437 1 0 1.28125 1.53125 1.28125 3.23437S3.76563-.25 2.76563-.25c-.98438 0-1.28125-1.54687-1.28125-3.25m0 0"/><path id="b" d="M1.14063 0h3.4375v-.29687L3.6875-.375c-.21875-.03125-.34375-.10937-.34375-.51562v-6.15625l-.04687-.0625-2.15625.375v.25l.96875.125c.1875.01562.25.09375.25.39062v5.07813c0 .40625-.09375.48437-.34375.51562l-.875.07813Zm0 0"/><path id="c" d="M.28125-.09375.39063 0h4.32812l.35938-1.375-.29688-.0625c-.21875.5625-.4375.64063-.85937.64063H1.25c.17188-.53125.79688-1.28125 1.76563-1.98438 1-.73437 1.78125-1.20312 1.78125-2.375 0-1.45312-.96875-1.95312-2.07813-1.95312-1.42187 0-2.15625.875-2.15625 1.40625 0 .35937.39063.53125.57813.53125s.25-.10938.29687-.29688c.17188-.70312.57813-1.26562 1.21875-1.26562.79688 0 1.03125.65625 1.03125 1.42187 0 1.125-.5625 1.76563-1.46875 2.5625C.92188-1.625.48438-.90625.28125-.09375m0 0"/><path id="d" d="M.28125-1.0625C.28125-.625 1 .125 2.48438.125 4 .125 4.95313-.64062 4.95313-1.98437c0-1.39063-1.20313-1.8125-1.78125-1.85938v-.04687c.5625-.09375 1.46875-.51563 1.46875-1.54688 0-1.15625-.90625-1.67187-2.03125-1.67187-1.375 0-2.04688.79687-2.04688 1.25 0 .3125.35938.5.5.5s.21875-.07813.26563-.21875c.23437-.70313.625-1.15625 1.20312-1.15625.82813 0 1.04688.71875 1.04688 1.3125 0 .60937-.23438 1.40625-1.125 1.40625-.5 0-.78125-.09375-.90625-.09375-.14063 0-.1875.09375-.1875.28125 0 .17187.04687.29687.1875.29687.125 0 .40625-.10937.90625-.10937.89062 0 1.39062.79687 1.39062 1.71875 0 1.25-.60937 1.67187-1.35937 1.67187-.6875 0-1.14063-.5-1.34375-1.09375-.0625-.20312-.15626-.29687-.3125-.29687-.1875 0-.54688.1875-.54688.57812m0 0"/><path id="e" d="m.20313-2.09375.09375.21875h2.84375v1.07813c0 .35937-.10938.40625-.375.4375l-.65625.0625V0h2.75v-.29687l-.46875-.0625c-.23438-.03125-.3125-.07813-.3125-.4375V-1.875h1.07812v-.48437H4.07813v-4.625H3.3125c-.96875 1.4375-2.15625 3.25-3.10937 4.89062m.75-.26562c.625-1.14063 1.39062-2.34375 2.1875-3.60938v3.60938Zm0 0"/><path id="h" d="M.39063-5.79687c0 1.01562 1 1.8125 3.32812 1.8125-.375.6875-.67187 1.39062-.67187 2.15625 0 1.26562.8125 1.96875 2.26562 1.96875 1.42188 0 2.90625-1.03125 2.90625-2.35938C8.21875-3 7.5625-3.4375 6.73438-3.4375 5.82813-3.4375 4.75-2.40625 4.75-1.59375c0 .25.1875.71875.53125.71875.09375 0 .23438-.07812.23438-.1875 0-.15625-.28125-.15625-.28125-.51562 0-.57813.82812-1.48438 1.5-1.48438.46875 0 .75.1875.75.64063 0 1.03125-.98438 2.1875-2.17188 2.1875-.84375 0-1.26562-.45313-1.26562-1.21875 0-.875.59375-1.89063 1.0625-2.625C7.6875-4.46875 10.21875-5.75 10.21875-7.35937c0-.625-.48437-1.03125-1.15625-1.03125-1.53125 0-3.84375 1.96875-5.125 4-1.04687-.01563-2.75-.03125-2.75-1.26563 0-1.14062 1.39063-2.01562 2.25-2.01562.15625 0 .25-.10938.25-.20313s-.09375-.17187-.1875-.17187c-1.29687 0-3.10937.875-3.10937 2.25m4.95312 1.26562C6.1875-6.03125 8-8.01562 9.0625-8.01562c.40625 0 .6875.23437.6875.60937 0 1.29688-2.03125 2.48438-4.40625 2.875m0 0"/><path id="i" d="M-.17187 1.46875c0 .28125.35937.5.79687.5.84375 0 1.23438-.67187 1.57813-2.21875l.75-3.40625h1.03125l.07812-.32812H3.01563l.23437-1c.14063-.53125.28125-.75.48438-.75.1875 0 .32812.15625.51562.57812.04688.07813.125.15625.26563.15625.1875 0 .4375-.15625.4375-.39062 0-.34375-.45313-.64063-.98438-.64063-1.03125 0-1.4375.73438-1.73437 1.76563l-.07813.28125h-.70312l-.10938.32812h.73438L1.125 1.17188c-.07812.42187-.15625.48437-.23437.48437-.07813 0-.21876-.07812-.42188-.42187-.0625-.07813-.125-.20313-.25-.20313-.1875 0-.39062.21875-.39062.4375m0 0"/><clipPath id="f"><path d="M160 75h18.11719v26H160Zm0 0"/></clipPath><clipPath id="g"><path d="M1.88281.39453h175.83985v105.5039H1.8828Zm0 0"/></clipPath></defs><path fill="none" stroke="#000" stroke-miterlimit="10" stroke-opacity=".5" stroke-width=".39552" d="M1.88281 88.3125h175.83983M1.88281 53.14453h175.83983M1.88281 17.97657h175.83983M19.46875 105.89844V.39454m35.16797 105.5039V.39454m35.16796 105.5039V.39454m35.16797 105.5039V.39454m35.16796 105.5039V.39454M19.46875 79.52344v17.58203"/><use xlink:href="#a" x="4.38909" y="104.11619" fill-opacity=".5"/><path fill="none" stroke="#000" stroke-miterlimit="10" stroke-opacity=".5" stroke-width=".39552" d="M54.63672 79.52344v17.58203"/><use xlink:href="#b" x="51.86477" y="100.66027" fill-opacity=".5"/><path fill="none" stroke="#000" stroke-miterlimit="10" stroke-opacity=".5" stroke-width=".39552" d="M89.80468 79.52344v17.58203"/><use xlink:href="#c" x="87.03333" y="100.66027" fill-opacity=".5"/><path fill="none" stroke="#000" stroke-miterlimit="10" stroke-opacity=".5" stroke-width=".39552" d="M124.97265 79.52344v17.58203"/><use xlink:href="#d" x="122.20091" y="100.59973" fill-opacity=".5"/><path fill="none" stroke="#000" stroke-miterlimit="10" stroke-opacity=".5" stroke-width=".39552" d="M160.14061 79.52344v17.58203"/><use xlink:href="#e" x="157.36848" y="100.59973" fill-opacity=".5"/><path fill="none" stroke="#000" stroke-miterlimit="10" stroke-width=".79104" d="M1.88281 88.3125h169.71093"/><path d="M175.72656 88.3125c-.50781-.10547-2.73828-.70312-4.13281-1.35156v2.70703c1.39453-.64844 3.625-1.2461 4.13281-1.35547m0 0"/><g clip-path="url(#f)"><path fill="none" stroke="#000" stroke-miterlimit="10" stroke-width=".79104" d="M175.72656 88.3125c-.50781-.10547-2.73828-.70313-4.13281-1.35156v2.70703c1.39453-.64844 3.625-1.2461 4.13281-1.35547Zm0 0"/></g><path fill="none" stroke="#000" stroke-miterlimit="10" stroke-opacity=".5" stroke-width=".39552" d="M28.25781 53.14453H10.67578"/><use xlink:href="#b" x="4.38909" y="56.70105" fill-opacity=".5"/><path fill="none" stroke="#000" stroke-miterlimit="10" stroke-opacity=".5" stroke-width=".39552" d="M28.25781 17.97657H10.67578"/><use xlink:href="#c" x="4.38909" y="21.53348" fill-opacity=".5"/><path fill="none" stroke="#000" stroke-miterlimit="10" stroke-width=".79104" d="M19.46875 105.89844v-99.375"/><path stroke="#000" stroke-miterlimit="10" stroke-width=".79104" d="M19.46875 2.39062c-.10547.50782-.70313 2.73829-1.35547 4.13282h2.70703c-.64843-1.39453-1.2461-3.625-1.35156-4.13282Zm0 0"/><g clip-path="url(#g)"><path fill="none" stroke="#007F7F" stroke-miterlimit="10" stroke-width=".79104" d="M12.4336-34.77343s1.17968 35.67187 7.03515 52.75c5.85547 17.07812 20.52734 65.45702 35.16797 70.33593 14.63671 4.88281 55.6953-35.16797 70.33593-35.16797 14.63671 0 27.84765 27.85156 35.16796 35.16797 7.3164 7.32031 17.58203 17.58594 17.58203 17.58594"/></g><use xlink:href="#h" x="23.83432" y="19.83331" fill="#007F7F"/><use xlink:href="#i" x="33.31403" y="22.55278" fill="#007F7F"/></svg>