<svg xmlns="http://www.w3.org/2000/svg" xmlns:xlink="http://www.w3.org/1999/xlink" width="794.099pt" height="227.27pt" viewBox="0 0 794.099 227.27"><defs><path id="h" d="M-.20312-12.21875c.95312.04688 1.17187.17188 1.4375.95313L4.98438 0h2.35937l2.23438-6.51562c.6875-2.04688 1.34375-3.84375 1.625-4.57813.375-.90625.53125-1.04687 1.59375-1.125v-.6875H8.45313v.6875l1.0625.10938c.375.03125.40625.21875.3125.60937-.17188.60938-.59375 2.17188-1.15625 3.89063-.375 1.14062-1.1875 3.875-1.51563 4.82812h-.10937L4.25-11.4375c-.125-.40625-.09375-.64062.34375-.67187l.89063-.10938v-.6875h-5.6875Zm0 0"/><path id="i" d="M.89063-2.5c0 1.39063.89062 2.71875 2.78125 2.71875 1.1875 0 2.03125-.64062 2.6875-1.07812.23437.57812.57812 1.07812 1.46875 1.07812.96875 0 2.125-.3125 2.73437-.5625l-.01562-.60937c-.23438.01562-.65625 0-.9375-.09376-.23438-.07812-.59375-.29687-.59375-1.39062V-6.75c0-1.17187-.15625-2.625-3.45313-2.625-2.75 0-4.45312 1.09375-4.45312 2.3125 0 .8125 1.1875 1.17188 1.67187 1.17188.42188 0 .60938-.3125.79688-.76563.51562-1.57812 1.125-1.85937 1.64062-1.85937.54688 0 1.0625.3125 1.0625 1.39062v.98438C5.625-5.6875 4.07813-5.25 2.85938-4.82812 1.39063-4.3125.89063-3.57812.89063-2.5m2.84375-.29687c0-.875.3125-1.3125.875-1.625C5.1875-4.75 5.8125-5 6.28125-5.20312V-2.5c-.04687 1.01563-.625 1.26563-1.14062 1.26563-.73438 0-1.40625-.57813-1.40625-1.5625m0 0"/><path id="j" d="M.45313 0h5.25v-.71875C4.625-.78125 4.51563-.85937 4.51563-1.625v-12.09375l-.17188-.125-3.75.5v.67188l.64063.09375c.29687.0625.4375.21875.4375.98437V-1.625c0 .76563-.14063.84375-1.21875.90625Zm0 0"/><path id="k" d="M.73438-4.5625c0 2.53125 1.10937 4.78125 4.5625 4.78125C7.53125.21875 8.73438-.85937 9.375-2.5l-.67187-.375c-.5625 1.0625-1.35938 1.65625-2.48438 1.65625-1.875 0-2.53125-1.51562-2.53125-3.48437h4.85938c.67187 0 .98437-.1875.98437-.78125 0-1.53125-.59375-3.89063-4.1875-3.89063-3.35937 0-4.60937 2.1875-4.60937 4.8125M3.6875-5.59375c0-1.35937.35938-2.92187 1.57813-2.92187 1.125 0 1.32812 1.42187 1.32812 2.29687 0 .51563-.14062.625-.57812.625Zm0 0"/><path id="l" d="m.5625-8.15625.65625.09375c.29688.04688.40625.17188.40625.9375v4.54688c0 2.1875 1.35938 2.79687 2.70313 2.79687 1.59375 0 2.5625-.85937 3.3125-1.26562L7.8125 0h3.85938v-.71875c-1.0625-.0625-1.1875-.14062-1.1875-.90625V-9.25l-.15625-.125-3.78125.53125v.6875l.65625.09375c.29687.04688.4375.17188.4375.9375v3.95313c0 .3125-.01563.76562-.14063 1.04687-.17187.4375-.67187.875-1.48437.875-.98438 0-1.5625-.57812-1.5625-2.03125V-9.25l-.14063-.125-3.75.53125Zm0 0"/><path id="m" d="M.59375 0h5.64063v-.71875c-1.42188-.07812-1.625-.14062-1.625-.90625v-4.15625c0-.96875.17187-1.42187.64062-1.42187.29688 0 .5625.15625.98438.39062.23437.17188.5.29688.85937.29688.375 0 .75-.20313.95313-.46875.1875-.28125.29687-.65625.29687-1.07813 0-.79687-.51562-1.3125-1.29687-1.3125-.76563 0-1.35938.51563-2.45313 1.65625L4.32813-9.375.6875-8.84375v.6875l.65625.09375c.29688.04688.46875.17188.46875.9375v5.5c0 .76563-.14062.84375-1.21875.90625Zm0 0"/><path id="n" d="M.73438-4.40625c0 2.71875 1.40625 4.625 3.78125 4.625.6875 0 1.6875-.35937 2.6875-1.15625V0h4.01562v-.71875c-1.07812-.0625-1.20312-.14062-1.20312-.90625v-12.09375l-.125-.125-3.79688.5v.67188l.65625.09375c.29688.0625.45313.21875.45313.98437v2.45313C6.79688-9.3125 6.25-9.375 5.625-9.375c-1.39062 0-2.64062.42188-3.5 1.21875-.875.8125-1.39062 2.0625-1.39062 3.75m2.95312-.375c0-2.75 1.03125-3.73437 2.09375-3.73437.71875 0 1.09375.375 1.26563.75.1875.28125.15625.67187.15625 1.07812v3.84375c0 .76563-.26563 1.625-1.46875 1.625-1.20313 0-2.04688-1.1875-2.04688-3.5625m0 0"/><path id="p" d="M.89063-4.20312 1.1875-.875C2.14063 0 3.98438.28125 5.21875.28125c3.73438-.04687 4.82813-2.04687 4.82813-4 0-2.45312-1.8125-3.40625-3.51563-4.125-1.23437-.51562-2.79687-1.1875-2.79687-2.60937 0-1.17188.82812-1.875 1.95312-1.875 1.1875 0 2.32813.82812 2.85938 3.01562h.67187v-3.0625c-.98437-.59375-2.39062-.82812-3.51562-.82812-3.15625 0-4.65625 1.625-4.65625 3.82812 0 2.32813 2.07812 3.3125 3.71875 4.01563C6.46875-4.64062 7.25-3.8125 7.25-2.625 7.23438-1.23437 6.35938-.57812 5.14063-.57812c-1.40625 0-2.84375-1.28125-3.54688-3.625Zm0 0"/><path id="q" d="M1.40625-11.8125c0 .89063.64063 1.64063 1.6875 1.64063 1.03125 0 1.75-.75 1.75-1.64063 0-.875-.67187-1.625-1.75-1.625-1.04687 0-1.6875.75-1.6875 1.625M.59375 0h5.26563v-.71875c-1.07813-.0625-1.25-.14062-1.25-.90625V-9.25l-.09375-.125-3.82813.53125v.6875l.65625.09375c.29688.04688.46875.17188.46875.9375v5.5c0 .76563-.14062.84375-1.21875.90625Zm0 0"/><path id="r" d="M.59375 1.78125c0 1.8125 1.95313 2.73438 4.60938 2.73438.8125 0 2.17187-.17188 3.09375-.6875 1.03125-.53125 1.73437-1.5 1.73437-2.85938 0-2.23437-1.73437-2.9375-3.70312-2.9375H4.60938c-.92188 0-1.25-.29687-1.25-.64062 0-.40625.46875-.60938.73437-.67188.35938.04688.625.03125.84375.03125 2.21875 0 4.20313-.79687 4.20313-3.03125 0-.54687-.21875-1.125-.46875-1.4375l1.23437-.21875.375-1.42187-.17187-.1875L7.75-8.76562C7.125-9.10937 6.09375-9.375 5.07813-9.375 1.73438-9.375.73438-7.64062.73438-6.20312c0 1.5625 1.15625 2.48437 2.28125 2.67187V-3.5c-1.20313.29688-2 .98438-2 1.73438 0 .8125.90625 1.5625 1.71875 1.75v.03125C1.96875.20313.59375.53125.59375 1.78125m2.48438-.17187c0-.51563.23437-.85938.5-1.03125.25-.1875.82812-.28126 1.64062-.28126 1.59375 0 2.54688.35938 2.54688 1.48438 0 1.34375-1.03125 1.875-2.28125 1.875S3.07813 2.9375 3.07813 1.60938M3.65625-6.25c0-1.59375.65625-2.26562 1.40625-2.26562.73438 0 1.40625.67187 1.40625 2.23437 0 1.34375-.57812 2.17188-1.42187 2.17188-.79688 0-1.39063-.85938-1.39063-2.14063m0 0"/><path id="s" d="M.59375 0h5v-.71875L5.25-.75c-.40625-.04687-.64062-.10937-.64062-.71875v-4.45312c0-.40625.07812-.82813.21875-1.09375.23437-.46875.73437-.92188 1.5-.92188.95312 0 1.45312.59375 1.5 1.70313v4.76562c0 .60938-.20313.67188-.59375.71875l-.40625.03125V0h5.03125v-.71875C10.78125-.78125 10.625-.85937 10.625-1.625V-6.5c-.01562-1.73437-.875-2.875-2.79687-2.875-1.09375 0-1.98438.5625-3.21875 1.29688L4.375-9.375l-3.6875.53125v.6875l.65625.09375c.29688.04688.46875.17188.46875.9375v5.5c0 .76563-.14062.84375-1.21875.90625Zm0 0"/><path id="o" d="M.59375-.73437c0 .53125.4375.95312 1.1875.95312 1.28125 0 1.98438-1.26562 2.76563-2.51562l.75-1.23438h.04687L5.6875-2.0625C6.03125-.57812 6.375.21875 7.32813.21875c1.375 0 2.07812-1.40625 2.64062-2.54687l-.46875-.25C9.03125-1.75 8.51563-.75 8-.75c-.35937 0-.5-.42187-.90625-2.09375L6.5-5.28125c.67188-1.1875 1.625-2.6875 2.15625-2.6875.5625 0 .57813.29688 1.14063.29688.40625 0 .78125-.39063.78125-.89063 0-.57812-.4375-.8125-.95313-.8125-.98437 0-1.8125.89063-2.46875 1.95313l-.82812 1.26562h-.03125l-.75-3.14062L5.4375-9.375l-3.07812.9375.04687.45313L3.875-8.07812c.29688 0 .4375.14062.60938.92187l.65625 2.70313-.51563.89062c-.79687 1.375-1.48437 2.34375-1.9375 2.34375-.54687 0-.6875-.45312-1.28125-.45312-.46875 0-.8125.48437-.8125.9375m0 0"/><path id="t" d="M.5-.17187.6875 0h7.73438l.64062-2.46875-.51562-.09375c-.40625 1.01563-.78125 1.15625-1.53125 1.15625H2.25c.29688-.98437 1.40625-2.3125 3.125-3.5625 1.79688-1.3125 3.1875-2.14062 3.1875-4.21875 0-2.60937-1.73437-3.5-3.70312-3.5C2.29688-12.6875 1-11.14062 1-10.17187c0 .64062.70313.9375 1.03125.9375.32813 0 .45313-.20313.53125-.51563.29688-1.26562 1.03125-2.28125 2.1875-2.28125 1.42188 0 1.84375 1.1875 1.84375 2.5625 0 2-1.01562 3.14063-2.64062 4.5625C1.64063-2.90625.85938-1.625.5-.17187m0 0"/><path id="u" d="M1.59375-4.71875h4.57813v4.57813h1.09375v-4.57813h4.59375V-5.8125H7.26563v-4.59375H6.17188v4.59375H1.59375Zm0 0"/><path id="v" d="m.35938-3.73437.15625.39062h5.07812v1.90625c0 .64063-.1875.75-.65625.78125l-1.1875.125V0h4.92188v-.53125l-.82813-.10937c-.4375-.04688-.5625-.15626-.5625-.79688v-1.90625H9.1875v-.85937H7.28125v-8.26563H5.92188c-1.75 2.57813-3.85938 5.8125-5.5625 8.73438m1.34375-.46875c1.10937-2.03125 2.46875-4.20313 3.89062-6.46875v6.46875Zm0 0"/><path id="w" d="M1.59375-4.71875h10.26563V-5.8125H1.59375Zm0 0"/><path id="x" d="M.5-1.90625c0 .79688 1.28125 2.125 3.92188 2.125 2.70312 0 4.42187-1.375 4.42187-3.75 0-2.5-2.15625-3.23437-3.1875-3.34375v-.07812c1.01563-.15625 2.625-.90625 2.625-2.76563 0-2.0625-1.60937-2.96875-3.60937-2.96875C2.20313-12.6875 1-11.26562 1-10.46875c0 .57813.64063.89063.90625.89063.23438 0 .375-.14063.45313-.375.42187-1.26563 1.10937-2.07813 2.17187-2.07813C6-12.03125 6.375-10.75 6.375-9.6875c0 1.10938-.39062 2.51563-1.98437 2.51563-.89063 0-1.40625-.17188-1.625-.17188-.25 0-.34375.17188-.34375.51563 0 .3125.09375.51562.34375.51562.21875 0 .73437-.1875 1.625-.1875C5.98438-6.5 6.875-5.0625 6.875-3.4375c0 2.21875-1.09375 3-2.42187 3-1.23438 0-2.04688-.90625-2.40625-1.96875-.125-.35937-.29688-.53125-.5625-.53125C1.15625-2.9375.5-2.57812.5-1.90625m0 0"/><path id="y" d="M-.39062 3.4375C-.375 4.04688.4375 4.51563 1.3125 4.51563 3.17188 4.51563 3.96875 3 4.75-.57812L6.46875-8.4375h2.375l.17188-.71875H6.59375l.51563-2.10937c.35937-1.40625.71875-1.9375 1.23437-1.9375.5 0 .82813.40625 1.25 1.3125.09375.17187.23438.3125.51563.3125.375 0 .90625-.34375.90625-.8125 0-.79688-1-1.45313-2.125-1.45313-2.20313 0-3.10938 1.54688-3.82813 4.01563l-.20312.67187H3.25l-.21875.71875h1.67188l-2.15625 11c-.21875 1.15625-.42188 1.26563-.59375 1.26563-.20313 0-.5-.14063-1-.90625C.8125 2.73438.6875 2.5.45313 2.5c-.40625 0-.84375.45313-.84375.9375m0 0"/><path id="z" d="M1.60938-5.26562c0 4.21875.95312 8.84375 4.90625 9v-.5625c-1.32813-.25-3.42188-1.90625-3.42188-8.4375 0-6.48438 1.98438-8.14063 3.42188-8.4375v-.5625c-3.95313.17187-4.90625 4.79687-4.90625 9m0 0"/><path id="A" d="M1.10938 3.17188v.5625c3.95312-.15625 4.90625-4.78125 4.90625-9 0-4.20313-.95313-8.82813-4.90625-9v.5625c1.4375.29687 3.42187 1.95312 3.42187 8.4375 0 6.53125-2.09375 8.1875-3.42187 8.4375m0 0"/><path id="H" d="M.29688-3.95312C.29688-1.73437 2.5.20313 4.5625.20313c2.625 0 4.29688-2.625 4.60938-3.14063.35937.67188 2.17187 3.15625 5.0625 3.15625 3.45312 0 4.45312-2.625 4.45312-4.82812 0-2.21875-2.07812-3.98438-4.15625-3.98438-2.48437 0-3.82812 1.78125-4.625 2.875-.73437-1.1875-2.35937-2.84375-4.9375-2.84375-3.40625 0-4.67187 2.40625-4.67187 4.60938m1.17187.0625c0-1.875 1.3125-3.34375 2.875-3.34375 1.875 0 3.4375 1.96875 4.3125 3.35937C7.9375-2.60937 6.60938-.65625 4.51563-.65625c-1.35938 0-3.04688-1.54687-3.04688-3.23437m8.98438-1c.70312-1.26563 2.0625-2.82813 4.15625-2.82813 1.35937 0 2.98437 1.34375 2.98437 3.03125 0 1.89063-1.01562 3.60938-2.8125 3.60938-1.9375 0-3.46875-2.14063-4.32812-3.8125m0 0"/><path id="J" d="M.78125-6.23437C.78125-2.5 1.85938.21875 4.9375.21875S9.14063-2.5 9.14063-6.23437s-1.125-6.45313-4.20313-6.45313S.78125-9.96875.78125-6.23437m1.875 0c0-3.04688.51563-5.79688 2.28125-5.79688 1.78125 0 2.29688 2.75 2.29688 5.79688 0 3.03125-.51563 5.79687-2.29688 5.79687-1.76562 0-2.28125-2.76562-2.28125-5.79687m0 0"/><clipPath id="a"><path d="M1 56h227v170.54297H1Zm0 0"/></clipPath><clipPath id="b"><path d="M.82031 56H228v170.54297H.82031Zm0 0"/></clipPath><clipPath id="c"><path d="M227 0h565.3789v57H227Zm0 0"/></clipPath><clipPath id="d"><path d="M226 0h566.3789v57H226Zm0 0"/></clipPath><clipPath id="e"><path d="M227 56h565.3789v170.54297H227Zm0 0"/></clipPath><clipPath id="f"><path d="M226 56h566.3789v170.54297H226Zm0 0"/></clipPath><clipPath id="g"><path d="M.82031 0H228v57H.82031Zm0 0"/></clipPath><clipPath id="B"><path d="M.82031 56h791.5586v1H.8203Zm0 0"/></clipPath><clipPath id="C"><path d="M.82031 113h791.5586v1H.8203Zm0 0"/></clipPath><clipPath id="D"><path d="M.82031 169h791.5586v1H.8203Zm0 0"/></clipPath><clipPath id="E"><path d="M.82031 226h791.5586v.54297H.8203Zm0 0"/></clipPath><clipPath id="F"><path d="M.82031 0h791.5586v226.54297H.8203Zm0 0"/></clipPath><clipPath id="G"><path d="M226 0h2v226.54297h-2Zm0 0"/></clipPath><clipPath id="I"><path d="M226 56h566.3789v58H226Zm0 0"/></clipPath><clipPath id="K"><path d="M226 113h566.3789v57H226Zm0 0"/></clipPath><clipPath id="L"><path d="M226 169h566.3789v57.54297H226Zm0 0"/></clipPath><clipPath id="M"><path d="M424 169h2v57.54297h-2Zm0 0"/></clipPath><clipPath id="N"><path d="M593 169h3v57.54297h-3Zm0 0"/></clipPath><clipPath id="O"><path d="M594 169h1v57.54297h-1Zm0 0"/></clipPath></defs><g clip-path="url(#a)"><path fill="#FFF" d="M1.01953 56.71094v169.53515h226.05078V56.71094Zm0 0"/></g><g clip-path="url(#b)"><path fill="none" stroke="#000" stroke-miterlimit="10" stroke-width=".39722" d="M1.01953 56.71092v169.53512h226.05073V56.71092Zm0 0"/></g><g clip-path="url(#c)"><path fill="#FFF" d="M227.07031 56.71094V.19922h565.1211v56.51172Zm0 0"/></g><g clip-path="url(#d)"><path fill="none" stroke="#000" stroke-miterlimit="10" stroke-width=".39722" d="M227.07026 56.71092V.19922H792.1912v56.5117Zm0 0"/></g><g clip-path="url(#e)"><path fill="#FFF" d="M227.07031 56.71094v169.53515h565.1211V56.71094Zm0 0"/></g><g clip-path="url(#f)"><path fill="none" stroke="#000" stroke-miterlimit="10" stroke-width=".39722" d="M227.07026 56.71092v169.53512H792.1912V56.71092Zm0 0"/></g><path fill="#FFF" d="M1.01953.19922v56.51172h226.05078V.19922Zm0 0"/><g clip-path="url(#g)"><path fill="none" stroke="#000" stroke-miterlimit="10" stroke-width=".39722" d="M1.01953.19922v56.5117h226.05073V.19922Zm0 0"/></g><use xlink:href="#h" x="62.37848" y="35.26672"/><use xlink:href="#i" x="73.28243" y="35.26672"/><use xlink:href="#j" x="83.63026" y="35.26672"/><use xlink:href="#k" x="89.58871" y="35.26672"/><use xlink:href="#l" x="99.44001" y="35.26672"/><use xlink:href="#m" x="111.37676" y="35.26672"/><use xlink:href="#n" x="126.39204" y="35.26672"/><use xlink:href="#k" x="137.85212" y="35.26672"/><use xlink:href="#o" x="154.32913" y="35.26672"/><use xlink:href="#p" x="46.2443" y="89.63309"/><use xlink:href="#q" x="56.69144" y="89.63309"/><use xlink:href="#r" x="62.78892" y="89.63309"/><use xlink:href="#s" x="72.91827" y="89.63309"/><use xlink:href="#k" x="85.01392" y="89.63309"/><use xlink:href="#n" x="101.47909" y="89.63309"/><use xlink:href="#k" x="112.93916" y="89.63309"/><use xlink:href="#t" x="129.41515" y="89.63309"/><use xlink:href="#o" x="139.30617" y="89.63309"/><use xlink:href="#u" x="154.81799" y="89.63309"/><use xlink:href="#v" x="171.93859" y="89.63309"/><use xlink:href="#p" x="44.52383" y="146.14458"/><use xlink:href="#q" x="54.97097" y="146.14458"/><use xlink:href="#r" x="61.06844" y="146.14458"/><use xlink:href="#s" x="71.1978" y="146.14458"/><use xlink:href="#k" x="83.29344" y="146.14458"/><use xlink:href="#n" x="99.75861" y="146.14458"/><use xlink:href="#k" x="111.21869" y="146.14458"/><use xlink:href="#w" x="127.69468" y="146.14458"/><use xlink:href="#o" x="141.12104" y="146.14458"/><use xlink:href="#u" x="156.59314" y="146.14458"/><use xlink:href="#x" x="173.65415" y="146.14458"/><use xlink:href="#p" x="53.0923" y="202.86439"/><use xlink:href="#q" x="63.53944" y="202.86439"/><use xlink:href="#r" x="69.63692" y="202.86439"/><use xlink:href="#s" x="79.76628" y="202.86439"/><use xlink:href="#k" x="91.86192" y="202.86439"/><use xlink:href="#n" x="108.32709" y="202.86439"/><use xlink:href="#k" x="119.78717" y="202.86439"/><use xlink:href="#y" x="136.26316" y="202.86439"/><use xlink:href="#z" x="147.92185" y="202.86439"/><use xlink:href="#o" x="155.54866" y="202.86439"/><use xlink:href="#A" x="167.36624" y="202.86439"/><g clip-path="url(#B)"><path fill="none" stroke="#000" stroke-miterlimit="10" stroke-width=".39722" d="M1.01953 56.71092h791.17168"/></g><g clip-path="url(#C)"><path fill="none" stroke="#000" stroke-miterlimit="10" stroke-width=".39722" d="M1.01953 113.22263h791.17168"/></g><g clip-path="url(#D)"><path fill="none" stroke="#000" stroke-miterlimit="10" stroke-width=".39722" d="M1.01953 169.73433h791.17168"/></g><g clip-path="url(#E)"><path fill="none" stroke="#000" stroke-miterlimit="10" stroke-width=".39722" d="M1.01953 226.24604h791.17168"/></g><g clip-path="url(#F)"><path fill="none" stroke="#000" stroke-miterlimit="10" stroke-width=".39722" d="M1.01953.19922v226.04682h791.17168V.19922Zm0 0"/></g><g clip-path="url(#G)"><path fill="none" stroke="#000" stroke-miterlimit="10" stroke-width=".39722" d="M227.07026.19922v226.04682"/></g><use xlink:href="#w" x="239.08489" y="32.64514"/><use xlink:href="#H" x="252.51125" y="32.64514"/><use xlink:href="#w" x="413.19763" y="34.80022"/><use xlink:href="#t" x="426.62399" y="34.80022"/><use xlink:href="#x" x="589.44452" y="34.69157"/><use xlink:href="#u" x="747.68823" y="33.54924"/><use xlink:href="#H" x="761.1146" y="33.54924"/><g clip-path="url(#I)"><path fill="none" stroke="#000" stroke-miterlimit="10" stroke-width=".39722" d="M227.07026 56.71092v56.5117H792.1912v-56.5117Zm0 0"/></g><use xlink:href="#w" x="333.37602" y="87.87574"/><path fill="none" stroke="#000" stroke-dasharray="2.979265744 2.979265744" stroke-miterlimit="10" stroke-width=".39722" d="M424.85927 56.71092v56.5117"/><use xlink:href="#J" x="419.91107" y="91.20206"/><use xlink:href="#u" x="502.90947" y="90.16937"/><path fill="none" stroke="#000" stroke-dasharray="2.979265744 2.979265744" stroke-miterlimit="10" stroke-width=".39722" d="M594.3983 56.71092v56.5117"/><use xlink:href="#u" x="672.44392" y="90.16937"/><g clip-path="url(#K)"><path fill="none" stroke="#000" stroke-miterlimit="10" stroke-width=".39722" d="M227.07026 113.22263v56.5117H792.1912v-56.5117Zm0 0"/></g><use xlink:href="#u" x="333.37602" y="146.68086"/><path fill="none" stroke="#000" stroke-dasharray="2.979265744 2.979265744" stroke-miterlimit="10" stroke-width=".39722" d="M424.85927 113.22263v56.5117"/><use xlink:href="#u" x="502.90947" y="146.68086"/><path fill="none" stroke="#000" stroke-dasharray="2.979265744 2.979265744" stroke-miterlimit="10" stroke-width=".39722" d="M594.3983 113.22263v56.5117"/><use xlink:href="#J" x="589.44452" y="147.71354"/><use xlink:href="#w" x="672.44392" y="144.38722"/><g clip-path="url(#L)"><path fill="none" stroke="#000" stroke-miterlimit="10" stroke-width=".39722" d="M227.07026 169.73433v56.5117H792.1912v-56.5117Zm0 0"/></g><use xlink:href="#w" x="333.37602" y="200.89871"/><g clip-path="url(#M)"><path fill="none" stroke="#000" stroke-dasharray="2.979265744 2.979265744" stroke-miterlimit="10" stroke-width=".39722" d="M424.85927 169.73433v56.5117"/></g><use xlink:href="#J" x="419.91107" y="204.22502"/><use xlink:href="#u" x="502.90947" y="203.19234"/><g clip-path="url(#N)"><path fill="none" stroke="#000" stroke-miterlimit="10" stroke-width="1.39032" d="M594.3983 170.13277v55.71874"/></g><g clip-path="url(#O)"><path fill="none" stroke="#FFF" stroke-miterlimit="10" stroke-width=".59585" d="M594.3983 170.13277v55.71874"/></g><use xlink:href="#w" x="672.44392" y="200.89871"/></svg>