<svg xmlns="http://www.w3.org/2000/svg" xmlns:xlink="http://www.w3.org/1999/xlink" width="791.18" height="127.944" viewBox="0 0 791.18 127.944"><defs><path id="h" d="M-.21875-13.76562c1.0625.04687 1.3125.17187 1.60938 1.0625L5.625 0h2.65625l2.51563-7.34375c.78125-2.3125 1.51562-4.34375 1.82812-5.17187.42188-1.01563.60938-1.17188 1.79688-1.25v-.78125H9.53125v.78125l1.1875.10937c.4375.04688.46875.25.35938.6875-.20313.70313-.67188 2.4375-1.29688 4.39063-.42187 1.28125-1.34375 4.375-1.71875 5.4375h-.10937l-3.15625-9.75c-.14063-.45313-.125-.71875.375-.76563l1.01562-.10937v-.78125H-.21875Zm0 0"/><path id="i" d="M1-2.82812C1-1.25 2.01563.25 4.14063.25c1.34375 0 2.28125-.71875 3.03125-1.21875C7.4375-.3125 7.8125.25 8.82813.25c1.09375 0 2.39062-.35937 3.07812-.625l-.01562-.70312c-.26563.03124-.73438 0-1.04688-.10938-.28125-.09375-.67187-.32812-.67187-1.5625v-4.85937c0-1.32813-.1875-2.95313-3.90625-2.95313-3.09375 0-5.01563 1.21875-5.01563 2.59375 0 .92188 1.34375 1.3125 1.89063 1.3125.46875 0 .6875-.32812.89062-.84375.57813-1.79687 1.28125-2.10937 1.85938-2.10937.60937 0 1.1875.35937 1.1875 1.57812v1.10938c-.73438.51562-2.48438 1.01562-3.85938 1.48437C1.5625-4.85937 1-4.03125 1-2.82812m3.20313-.32813c0-.98437.35937-1.48437.98437-1.84375.65625-.34375 1.375-.64062 1.89063-.85937v3.03125c-.04688 1.15625-.70313 1.4375-1.28125 1.4375-.82813 0-1.59375-.64063-1.59375-1.76563m0 0"/><path id="j" d="M.51563 0h5.90625v-.8125C5.21875-.875 5.07813-.96875 5.07813-1.84375v-13.625l-.17188-.14062-4.23437.5625v.76562l.71875.10938c.32812.0625.48437.25.48437 1.09375v11.23437c0 .875-.15625.96875-1.35937 1.03125Zm0 0"/><path id="k" d="M.82813-5.15625c0 2.875 1.25 5.40625 5.15625 5.40625 2.5 0 3.875-1.21875 4.57812-3.07812l-.75-.42188c-.625 1.21875-1.53125 1.89063-2.79687 1.89063-2.10938 0-2.84375-1.73438-2.84375-3.95313H9.625c.76563 0 1.125-.20312 1.125-.875 0-1.71875-.67187-4.375-4.73437-4.375-3.78125 0-5.1875 2.45313-5.1875 5.40625M4.17188-6.3125c0-1.53125.39062-3.29687 1.76562-3.29687 1.26563 0 1.5 1.60937 1.5 2.59375 0 .59375-.15625.70312-.65625.70312Zm0 0"/><path id="l" d="m.625-9.20312.73438.10937c.34375.04688.48437.20313.48437 1.0625v5.125C1.84375-.45312 3.35938.25 4.875.25c1.79688 0 2.89063-.96875 3.75-1.4375L8.79688 0h4.375v-.8125c-1.21875-.0625-1.34375-.15625-1.34375-1.03125v-8.59375l-.1875-.125-4.25.59375v.76563l.73437.10937c.34375.04688.5.20313.5 1.0625v4.45313c0 .35937-.03125.875-.15625 1.1875-.20312.48437-.76562.98437-1.6875.98437-1.10937 0-1.76562-.65625-1.76562-2.28125v-6.75l-.15625-.125L.625-9.96875Zm0 0"/><path id="m" d="M.67188 0h6.35937v-.8125C5.42188-.89062 5.1875-.96875 5.1875-1.84375v-4.67187c0-1.09375.20313-1.60938.71875-1.60938.34375 0 .65625.17188 1.125.4375.26563.20313.5625.34375.96875.34375.42188 0 .84375-.21875 1.0625-.53125.23438-.3125.34375-.75.34375-1.21875 0-.89062-.57812-1.46875-1.45312-1.46875s-1.54688.57813-2.78125 1.85938L4.875-10.5625l-4.09375.59375v.76563l.73438.10937c.34375.04688.51562.20313.51562 1.0625v6.1875c0 .875-.15625.96875-1.35937 1.03125Zm0 0"/><path id="n" d="M.82813-4.96875C.82813-1.90625 2.42188.25 5.07813.25c.78125 0 1.90625-.40625 3.04687-1.29687V0h4.53125v-.8125c-1.21875-.0625-1.375-.15625-1.375-1.03125v-13.625l-.125-.14062-4.28125.5625v.76562l.73438.10938c.34375.0625.51562.25.51562 1.09375v2.78125c-.46875-.20313-1.07812-.26563-1.78125-.26563-1.57812 0-2.98437.46875-3.95312 1.35938C1.40625-8.28125.82813-6.875.82813-4.96875m3.34375-.42187c0-3.09375 1.15625-4.21875 2.34375-4.21875.8125 0 1.23437.42187 1.4375.85937.20312.3125.17187.75.17187 1.20313v4.34375c0 .85937-.3125 1.84375-1.65625 1.84375-1.35937 0-2.29687-1.34375-2.29687-4.03125m0 0"/><path id="p" d="M1.59375-13.32812c0 1.01562.71875 1.85937 1.90625 1.85937 1.15625 0 1.96875-.84375 1.96875-1.85937 0-.98438-.76562-1.82813-1.96875-1.82813-1.1875 0-1.90625.84375-1.90625 1.82813M.67188 0h5.9375v-.8125C5.39063-.875 5.1875-.96875 5.1875-1.84375v-8.59375l-.10937-.125-4.29688.59375v.76563l.73438.10937c.34375.04688.51562.20313.51562 1.0625v6.1875c0 .875-.15625.96875-1.35937 1.03125Zm0 0"/><path id="q" d="M.78125-9.26562h1.23438v6.79687C2.01563-.53125 3.42188.25 4.60938.25c.875 0 2.17187-.39062 3.35937-1.125L7.75-1.54687c-.29687.14062-.71875.21874-1.1875.21874-.8125 0-1.375-.59374-1.375-1.9375v-6h2.20313v-1.0625H5.1875v-2.64062H3.98438L2.125-10.32812H.78125Zm0 0"/><path id="r" d="M.82813-5.15625C.82813-1.79687 2.4375.25 6.26563.25s5.46875-2.04687 5.46875-5.40625-1.64063-5.40625-5.46875-5.40625S.82813-8.51562.82813-5.15625m3.34375 0c0-2.8125.59375-4.45312 2.09375-4.45312S8.375-7.96875 8.375-5.15625c0 2.82813-.60937 4.4375-2.10937 4.4375s-2.09375-1.60937-2.09375-4.4375m0 0"/><path id="s" d="M.67188 0H6.3125v-.8125l-.40625-.03125c-.4375-.04687-.71875-.125-.71875-.8125v-5.01562c0-.46875.09375-.9375.25-1.23438.26563-.53125.82813-1.04687 1.70313-1.04687 1.07812 0 1.64062.67187 1.6875 1.92187v5.375c0 .6875-.23438.76563-.67188.8125l-.45312.03125V0H13.375v-.8125c-1.21875-.0625-1.39062-.15625-1.39062-1.03125v-5.48437C11.95313-9.29687 11-10.5625 8.82813-10.5625c-1.23438 0-2.25.625-3.64063 1.45313l-.26562-1.45313-4.14063.59375v.76563l.73438.10937c.34375.04688.51562.20313.51562 1.0625v6.1875c0 .875-.15625.96875-1.35937 1.03125Zm0 0"/><path id="t" d="m.92188-3.89062.25 3.125C1.96875-.01562 3.5625.25 4.75.25c2.57813 0 4.3125-1.125 4.3125-3.40625 0-1.8125-1.15625-2.6875-3.07812-3.42187C4.75-7.03125 3.84375-7.51562 3.84375-8.375c0-.64062.48438-1.23437 1.34375-1.23437 1.07813 0 1.98438.98437 2.375 2.57812h.79688v-2.79687c-.875-.53125-2.0625-.73438-3.17188-.73438-2.5625 0-4.15625 1.20313-4.15625 3.32813 0 1.54687 1.23438 2.53125 3.09375 3.21875C5.1875-3.625 6.25-3 6.25-2c0 .8125-.54687 1.28125-1.45312 1.28125-1.39063 0-2.53125-1.45312-3.07813-3.17187Zm0 0"/><path id="o" d="M.67188-.82812c0 .60937.5 1.07812 1.34375 1.07812C3.45313.25 4.25-1.1875 5.125-2.59375l.85938-1.39062h.03125l.39062 1.65625C6.8125-.65625 7.1875.25 8.26563.25c1.54687 0 2.34375-1.59375 2.96875-2.875l-.53125-.28125c-.51563.9375-1.09375 2.0625-1.6875 2.0625-.39063 0-.54688-.48437-1.01563-2.35937l-.67187-2.75c.75-1.34375 1.82812-3.03125 2.4375-3.03125.625 0 .64062.34375 1.26562.34375.48438 0 .90625-.45313.90625-1.01563 0-.64062-.5-.90625-1.07812-.90625-1.125 0-2.0625 1-2.79688 2.1875l-.92187 1.4375h-.04688L6.25-10.48437l-.10937-.07813-3.46875 1.04688L2.70313-9l1.65625-.10937c.34375 0 .5.15625.70312 1.04687l.73438 3.04688-.57813 1c-.89062 1.54687-1.6875 2.65625-2.20312 2.65625-.59375 0-.75-.51563-1.42188-.51563-.54687 0-.92187.53125-.92187 1.04688m0 0"/><path id="u" d="M-.45312 3.875c.03125.6875.95312 1.20313 1.9375 1.20313 2.09375 0 3-1.70313 3.85937-5.73438l1.95313-8.85937h2.67187l.20313-.8125H7.4375l.57813-2.375c.40625-1.57813.8125-2.1875 1.39062-2.1875.5625 0 .9375.46875 1.40625 1.48437.10938.20313.26563.35938.57813.35938.4375 0 1.03125-.39063 1.03125-.92188 0-.90625-1.14063-1.64062-2.39063-1.64062-2.48437 0-3.51562 1.75-4.32812 4.53125l-.21875.75h-1.8125l-.25.8125H5.3125L2.85938 2.89063c-.23438 1.29687-.46875 1.4375-.67188 1.4375-.21875 0-.54687-.15625-1.10937-1.03125-.15626-.20313-.29688-.46875-.5625-.46875-.46875 0-.96875.51562-.96875 1.04687m0 0"/><path id="z" d="M1.79688-5.32812H13.375V-6.5625H1.79688Zm0 0"/><path id="A" d="M.5625-.20312.78125 0H9.5l.70313-2.78125-.57813-.10937C9.1875-1.75 8.75-1.59375 7.90625-1.59375h-5.375c.32813-1.09375 1.59375-2.59375 3.53125-4 2.01563-1.48437 3.59375-2.42187 3.59375-4.76562 0-2.9375-1.95312-3.95313-4.17187-3.95313-2.89063 0-4.35938 1.75-4.35938 2.84375 0 .71875.79688 1.0625 1.15625 1.0625.39063 0 .51563-.23437.60938-.59375.32812-1.42187 1.15625-2.5625 2.45312-2.5625 1.625 0 2.09375 1.34375 2.09375 2.875 0 2.26563-1.14062 3.54688-2.98437 5.15625C1.85938-3.26562.96875-1.84375.5625-.20312m0 0"/><path id="B" d="M2.28125 0h6.92188v-.60937L7.4375-.76563c-.45312-.04687-.70312-.20312-.70312-1.03124v-12.40625L6.625-14.3125l-4.34375.75v.51563L4.25-12.8125c.35938.04688.5.20313.5.8125v10.20313c0 .82812-.20312.98437-.70312 1.03125l-1.76563.15624Zm0 0"/><path id="D" d="M.79688-2.375H5.9375v-.54687H.79688Zm0 0"/><path id="E" d="M1.01563 0h3.07812v-.26562l-.79687-.07813C3.10938-.35937 3-.42187 3-.79687V-6.3125l-.04687-.04687-1.9375.32812v.23438l.875.10937c.15624.01563.21874.07813.21874.35938v4.53125c0 .375-.09375.4375-.3125.45312l-.78124.07813Zm0 0"/><path id="F" d="M.25-.95312C.25-.5625.89063.10938 2.21875.10938c1.35938 0 2.20313-.6875 2.20313-1.875 0-1.26563-1.0625-1.625-1.57813-1.67188v-.04687c.5-.07813 1.3125-.45313 1.3125-1.375 0-1.04688-.8125-1.5-1.8125-1.5C1.10938-6.35937.5-5.64062.5-5.25c0 .29688.32813.45313.45313.45313s.1875-.0625.23437-.1875c.20313-.64063.54688-1.04688 1.07813-1.04688.73437 0 .92187.64063.92187 1.17188 0 .5625-.1875 1.26562-.98437 1.26562-.45313 0-.70313-.09375-.8125-.09375-.125 0-.17188.09375-.17188.26563 0 .15625.04688.25.17188.25.10937 0 .35937-.07813.8125-.07813C3-3.25 3.4375-2.53125 3.4375-1.71875c0 1.10938-.54687 1.5-1.20312 1.5-.625 0-1.03125-.45312-1.20313-.98437C.96875-1.39062.875-1.46875.75-1.46875c-.17187 0-.5.17188-.5.51563m0 0"/><clipPath id="a"><path d="M0 63h287v64.85156H0Zm0 0"/></clipPath><clipPath id="b"><path d="M0 63h288v64.85156H0Zm0 0"/></clipPath><clipPath id="c"><path d="M286 .03906h504.35938V64H286Zm0 0"/></clipPath><clipPath id="d"><path d="M286 .03906h504.35938V65H286Zm0 0"/></clipPath><clipPath id="e"><path d="M286 63h504.35938v64.85156H286Zm0 0"/></clipPath><clipPath id="f"><path d="M0 .03906h287V64H0Zm0 0"/></clipPath><clipPath id="g"><path d="M0 .03906h288V65H0Zm0 0"/></clipPath><clipPath id="v"><path d="M0 63h790.35938v2H0Zm0 0"/></clipPath><clipPath id="w"><path d="M0 127h790.35938v.85156H0Zm0 0"/></clipPath><clipPath id="x"><path d="M0 .03906h790.35938v127.8125H0Zm0 0"/></clipPath><clipPath id="y"><path d="M286 .03906h2v127.8125h-2Zm0 0"/></clipPath><clipPath id="C"><path d="M286 63h504.35938v64.85156H286Zm0 0"/></clipPath></defs><g clip-path="url(#a)"><path fill="#FFF" d="M.19922 63.94531v63.70703h286.6836V63.94531Zm0 0"/></g><g clip-path="url(#b)"><path fill="none" stroke="#000" stroke-miterlimit="10" stroke-width=".39809" d="M.19922 63.94534v63.70705h286.6837V63.94534Zm0 0"/></g><g clip-path="url(#c)"><path fill="#FFF" d="M286.88281 63.94531V.23828h503.28907v63.70703Zm0 0"/></g><g clip-path="url(#d)"><path fill="none" stroke="#000" stroke-miterlimit="10" stroke-width=".39809" d="M286.88291 63.94534V.23828h503.28924v63.70706Zm0 0"/></g><g clip-path="url(#e)"><path fill="#FFF" stroke="#000" stroke-miterlimit="10" stroke-width=".39809" d="M286.88291 63.94534v63.70705h503.28924V63.94534Zm0 0"/></g><g clip-path="url(#f)"><path fill="#FFF" d="M.19922.23828v63.70703h286.6836V.23828Zm0 0"/></g><g clip-path="url(#g)"><path fill="none" stroke="#000" stroke-miterlimit="10" stroke-width=".39809" d="M.19922.23828v63.70706h286.6837V.23828Zm0 0"/></g><use xlink:href="#h" x="85.28811" y="39.77108"/><use xlink:href="#i" x="97.58172" y="39.77108"/><use xlink:href="#j" x="109.24833" y="39.77108"/><use xlink:href="#k" x="115.96615" y="39.77108"/><use xlink:href="#l" x="127.07294" y="39.77108"/><use xlink:href="#m" x="140.53097" y="39.77108"/><use xlink:href="#n" x="157.45988" y="39.77108"/><use xlink:href="#k" x="170.38048" y="39.77108"/><use xlink:href="#o" x="188.95741" y="39.77108"/><use xlink:href="#h" x="66.45487" y="101.05956"/><use xlink:href="#i" x="78.74848" y="101.05956"/><use xlink:href="#m" x="90.4151" y="101.05956"/><use xlink:href="#p" x="100.08876" y="101.05956"/><use xlink:href="#i" x="106.96333" y="101.05956"/><use xlink:href="#q" x="118.62994" y="101.05956"/><use xlink:href="#p" x="126.62414" y="101.05956"/><use xlink:href="#r" x="133.49871" y="101.05956"/><use xlink:href="#s" x="146.01625" y="101.05956"/><use xlink:href="#t" x="159.65342" y="101.05956"/><use xlink:href="#n" x="176.69429" y="101.05956"/><use xlink:href="#k" x="189.6149" y="101.05956"/><use xlink:href="#u" x="208.19297" y="101.05956"/><g clip-path="url(#v)"><path fill="none" stroke="#000" stroke-miterlimit="10" stroke-width=".39809" d="M.19922 63.94534h789.97293"/></g><g clip-path="url(#w)"><path fill="none" stroke="#000" stroke-miterlimit="10" stroke-width=".39809" d="M.19922 127.65239h789.97293"/></g><g clip-path="url(#x)"><path fill="none" stroke="#000" stroke-miterlimit="10" stroke-width=".39809" d="M.19922.23828v127.4141h789.97293V.23829Zm0 0"/></g><g clip-path="url(#y)"><path fill="none" stroke="#000" stroke-miterlimit="10" stroke-width=".39809" d="M286.88291.23828v127.4141"/></g><use xlink:href="#z" x="305.60626" y="39.24563"/><use xlink:href="#A" x="320.74375" y="39.24563"/><use xlink:href="#z" x="452.14738" y="39.24563"/><use xlink:href="#B" x="467.28487" y="39.24563"/><use xlink:href="#B" x="606.25766" y="39.24563"/><use xlink:href="#A" x="752.79878" y="39.24563"/><g clip-path="url(#C)"><path fill="none" stroke="#000" stroke-miterlimit="10" stroke-width=".39809" d="M286.88291 63.94534v63.70705h503.28924V63.94534Zm0 0"/></g><path fill="#FFF" d="M310.90234 123.67188h15.66797v-10.33985h-15.66797Zm0 0"/><use xlink:href="#D" x="312.89071" y="121.67919"/><use xlink:href="#E" x="319.61848" y="121.67919"/><path fill="#FFF" d="M310.90234 123.67188h15.66797v-10.33985h-15.66797Zm0 0"/><use xlink:href="#D" x="312.89071" y="121.67919"/><use xlink:href="#E" x="319.61848" y="121.67919"/><path fill="#FFF" d="M460.79297 78.375h8.9375V67.92578h-8.9375Zm0 0"/><use xlink:href="#F" x="462.77936" y="76.27525"/><path fill="#FFF" d="M460.79297 78.375h8.9375V67.92578h-8.9375Zm0 0"/><use xlink:href="#F" x="462.77936" y="76.27525"/><path fill="none" stroke="#000" stroke-miterlimit="10" stroke-width=".39809" d="m330.4259 114.86332 124.14848-38.4297"/><path d="M456.85547 75.73047c-1.01172.10156-2.83985.25-4.2461-.25 1.27344.75 1.51172 1.51172.88282 2.85156.875-1.20703 2.46875-2.11719 3.36328-2.60156m0 0"/><path fill="#FFF" d="M603.95703 123.67188H619.625v-10.33985h-15.66797Zm0 0"/><use xlink:href="#D" x="605.94099" y="121.67919"/><use xlink:href="#E" x="612.66876" y="121.67919"/><path fill="#FFF" d="M603.95703 123.67188H619.625v-10.33985h-15.66797Zm0 0"/><use xlink:href="#D" x="605.94099" y="121.67919"/><use xlink:href="#E" x="612.66876" y="121.67919"/><path fill="none" stroke="#000" stroke-miterlimit="10" stroke-width=".39809" d="m473.57439 75.7305 124.14457 38.4297"/><path d="M600.0039 114.86719c-.89453-.48438-2.48828-1.39453-3.36328-2.60156.62891 1.33984.39063 2.09765-.8828 2.85156 1.40624-.5039 3.23437-.35547 4.24609-.25m0 0"/><path fill="#FFF" d="M753.85156 78.26563h8.9336V67.92578h-8.9336Zm0 0"/><use xlink:href="#E" x="755.83064" y="76.27525"/><path fill="#FFF" d="M753.85156 78.26563h8.9336V67.92578h-8.9336Zm0 0"/><use xlink:href="#E" x="755.83064" y="76.27525"/><path fill="none" stroke="#000" stroke-miterlimit="10" stroke-width=".39809" d="m623.44944 114.85942 124.14848-38.48049"/><path d="M749.8789 75.67188c-1.01171.10546-2.83984.2539-4.24609-.2461 1.27344.75 1.51172 1.51172.88282 2.85156.8789-1.21093 2.46875-2.12109 3.36328-2.60546m0 0"/></svg>