<svg xmlns="http://www.w3.org/2000/svg" xmlns:xlink="http://www.w3.org/1999/xlink" width="234.866pt" height="295.601pt" viewBox="0 0 234.866 295.601"><defs><path id="b" d="M.5-4.0625C.5-1.625 1.21875.14063 3.21875.14063c2.01563 0 2.73438-1.76563 2.73438-4.20313s-.71875-4.20312-2.73438-4.20312C1.21875-8.26562.5-6.5.5-4.0625m1.23438 0c0-1.98437.32812-3.78125 1.48437-3.78125S4.70313-6.04687 4.70313-4.0625c0 1.98438-.32813 3.78125-1.48438 3.78125S1.73438-2.07812 1.73438-4.0625m0 0"/><path id="l" d="M.40625-6.0625c0 1.0625 1.0625 1.89063 3.48438 1.89063-.39063.71875-.6875 1.45312-.6875 2.25 0 1.34375.82812 2.0625 2.35937 2.0625 1.48438 0 3.04688-1.07813 3.04688-2.45313 0-.82812-.6875-1.28125-1.5625-1.28125-.95313 0-2.07813 1.07813-2.07813 1.92188 0 .26562.1875.75.5625.75.09375 0 .23438-.07813.23438-.1875 0-.15626-.28125-.17188-.28125-.54688 0-.59375.875-1.54687 1.5625-1.54687.5 0 .79687.1875.79687.67187C7.84375-1.46875 6.8125-.25 5.5625-.25c-.875 0-1.32812-.46875-1.32812-1.28125 0-.90625.625-1.96875 1.10937-2.73437 2.70313-.42188 5.35938-1.75 5.35938-3.4375 0-.65625-.51563-1.07813-1.21875-1.07813-1.60938 0-4.03125 2.04688-5.35938 4.1875-1.09375-.01562-2.89062-.03125-2.89062-1.32812 0-1.1875 1.45312-2.10938 2.35937-2.10938.17188 0 .26563-.10937.26563-.20312 0-.10938-.09375-.1875-.20313-.1875-1.35937 0-3.25.92187-3.25 2.35937M5.59375-4.75C6.48438-6.3125 8.375-8.39062 9.48438-8.39062c.42187 0 .71875.23437.71875.64062 0 1.35938-2.125 2.59375-4.60938 3m0 0"/><path id="c" d="M1.1875 0h3.59375v-.3125l-.92187-.07812C3.625-.42187 3.5-.5 3.5-.9375V-7.375l-.04687-.0625-2.26563.39063v.26562l1.03125.125c.17188.01563.25.10938.25.42188V-.9375c0 .4375-.10937.51563-.35937.54688L1.1875-.3125Zm0 0"/><path id="d" d="M.29688-.10937.40625 0H4.9375l.375-1.4375L5-1.5c-.23437.59375-.45312.67188-.89062.67188H1.3125c.17188-.5625.82813-1.34375 1.84375-2.07813 1.04688-.76562 1.85938-1.26562 1.85938-2.48437C5.01563-6.92187 4-7.4375 2.85938-7.4375c-1.51563 0-2.28125.90625-2.28125 1.48438 0 .35937.42187.54687.60937.54687.20313 0 .26563-.125.3125-.3125.17188-.73437.60938-1.32812 1.28125-1.32812.84375 0 1.07813.6875 1.07813 1.5 0 1.17187-.59375 1.82812-1.54688 2.67187C.96875-1.70312.5-.95312.29688-.10937m0 0"/><path id="e" d="M.29688-1.125c0 .46875.75 1.25 2.29687 1.25 1.57813 0 2.59375-.79687 2.59375-2.20312 0-1.45313-1.26562-1.89063-1.875-1.95313v-.04687c.59375-.09375 1.54688-.53125 1.54688-1.60938 0-1.21875-.95313-1.75-2.125-1.75-1.4375 0-2.15625.84375-2.15625 1.29688 0 .34375.39062.53125.54687.53125.125 0 .21875-.07813.26563-.21875.23437-.75.64062-1.21875 1.26562-1.21875.85938 0 1.07813.75 1.07813 1.35937 0 .65625-.23438 1.48438-1.15625 1.48438-.53125 0-.82813-.10938-.95313-.10938-.14062 0-.20312.10938-.20312.3125 0 .1875.0625.29688.20312.29688.125 0 .42188-.10938.95313-.10938.92187 0 1.45312.84375 1.45312 1.79688C4.03125-.70312 3.39063-.25 2.60938-.25c-.71875 0-1.20313-.54687-1.40625-1.15625-.07813-.21875-.17188-.3125-.32813-.3125-.20312 0-.57812.20313-.57812.59375m0 0"/><path id="f" d="m.20313-2.1875.09375.23438h2.98437v1.10937c0 .375-.10937.4375-.375.45313l-.70312.07812V0h2.89062v-.3125l-.5-.0625c-.25-.03125-.32812-.09375-.32812-.46875v-1.10937h1.125v-.51563h-1.125V-7.3125h-.79688C2.4375-5.79687 1.20313-3.90625.20313-2.1875M1-2.46875C1.65625-3.65625 2.4375-4.92187 3.28125-6.25v3.78125Zm0 0"/><path id="g" d="M.4375-1.125c0 .51563.76563 1.25 2.1875 1.25C4.4375.125 5.25-.96875 5.25-2.34375c0-1.54687-.95312-2.32812-2.26562-2.32812-.59375 0-1.26563.26562-1.60938.59375l.25-2.07813c.03125-.28125.09375-.3125.3125-.3125h2.71875l.26563-.75-.0625-.09375H1.20313l-.09376.10938-.21874 3.65625.26562.14062c.45313-.53125.89063-.78125 1.48438-.78125.70312 0 1.46875.51563 1.46875 1.95313 0 1.125-.45313 1.98437-1.40625 1.98437-.76563 0-1.15625-.54687-1.375-1.1875-.0625-.15625-.17188-.26562-.3125-.26562-.21876 0-.57813.21874-.57813.57812m0 0"/><path id="i" d="M.9375-2.76562h6.01563v-.64063H.9375Zm0 0"/><path id="m" d="M.26563.82813c0 .75.79687 1.21875 1.92187 1.21875 1.20313 0 2.125-.48438 2.125-1.42188 0-.67187-.53125-1.125-1.51562-1.34375C2.07813-.90625 1.76563-1 1.76563-1.23437c0-.15626.15624-.26563.34375-.3125.1875.03124.34375.03124.48437.03124 1.1875 0 1.89063-.64062 1.89063-1.53124 0-.21875-.0625-.42188-.17188-.5625L5-3.71875l.28125-.5625-.04687-.0625L4-4.01562c-.23437-.14063-.67187-.25-1.09375-.25-1.4375 0-1.875.90625-1.875 1.5625 0 .59375.46875.96875.73438 1.0625-.29688.10937-.82813.3125-.82813.67187 0 .29688.35938.54688.65625.65625C1.01563-.21875.26563.125.26563.82813M1.15625.75c0-.59375.51563-.85937.82813-.90625.51562.0625 1.5.28125 1.5.98438 0 .64062-.51563.90625-1.10938.90625-.6875 0-1.21875-.375-1.21875-.98438m.79688-3.29687c0-.54688.26562-1.39063 1.01562-1.39063.25 0 .625.10938.625.65625 0 .78125-.39062 1.4375-.98437 1.4375-.42188 0-.65625-.29687-.65625-.70312m0 0"/><clipPath id="a"><path d="M31 0h203.64063v295.20313H31Zm0 0"/></clipPath><clipPath id="h"><path d="M216 190h18.64063v26H216Zm0 0"/></clipPath><clipPath id="j"><path d="M31 6h2v289.20313h-2Zm0 0"/></clipPath><clipPath id="k"><path d="M13.4375 104h220.8086v169H13.4375Zm0 0"/></clipPath><clipPath id="n"><path d="M13 92h221.64063v1H13Zm0 0"/></clipPath></defs><g clip-path="url(#a)"><path fill="none" stroke="#7f7f7f" stroke-dasharray=".39796202500000005 .9949350220000001" stroke-miterlimit="10" stroke-width=".39796" d="M31.83594 276.40625h202.41015M31.83594 239.60156h202.41015M31.83594 202.80078h202.41015M31.83594 166h202.41015M31.83594 129.19922h202.41015M31.83594 92.39844h202.41015M31.83594 55.59766h202.41015M31.83594 18.79688h202.41015M31.83594 294.80468V.39455M68.64062 294.8047V.39454m36.80078 294.41015V.39454m36.80078 294.41015V.39454m36.80078 294.41015V.39454m36.80078 294.41015V.39454"/></g><use xlink:href="#b" x="15.73727" y="219.74439" fill="#7f7f7f"/><path fill="none" stroke="#7f7f7f" stroke-miterlimit="10" stroke-width=".39796" d="M68.64062 193.60156v18.40235"/><use xlink:href="#c" x="65.74077" y="224.01063" fill="#7f7f7f"/><path fill="none" stroke="#7f7f7f" stroke-miterlimit="10" stroke-width=".39796" d="M105.4414 193.60156v18.40235"/><use xlink:href="#d" x="102.5411" y="224.01063" fill="#7f7f7f"/><path fill="none" stroke="#7f7f7f" stroke-miterlimit="10" stroke-width=".39796" d="M142.24218 193.60156v18.40235"/><use xlink:href="#e" x="139.34143" y="224.01063" fill="#7f7f7f"/><path fill="none" stroke="#7f7f7f" stroke-miterlimit="10" stroke-width=".39796" d="M179.04296 193.60156v18.40235"/><use xlink:href="#f" x="176.14275" y="223.8828" fill="#7f7f7f"/><path fill="none" stroke="#7f7f7f" stroke-miterlimit="10" stroke-width=".39796" d="M215.84374 193.60156v18.40235"/><use xlink:href="#g" x="212.94308" y="223.8828" fill="#7f7f7f"/><path fill="none" stroke="#000" stroke-miterlimit="10" stroke-width=".79593" d="M13.4375 202.80078h214.63671"/><path d="M232.23438 202.80078c-.51172-.10547-2.75391-.70703-4.16016-1.35937v2.72265c1.40625-.65234 3.64844-1.2539 4.16016-1.36328m0 0"/><g clip-path="url(#h)"><path fill="none" stroke="#000" stroke-miterlimit="10" stroke-width=".79593" d="M232.23437 202.80078c-.51171-.10547-2.7539-.70703-4.16015-1.35937v2.72265c1.40625-.65234 3.64844-1.2539 4.16015-1.36328Zm0 0"/></g><path fill="none" stroke="#7f7f7f" stroke-miterlimit="10" stroke-width=".39796" d="M41.03906 276.40625H22.63672"/><g fill="#7f7f7f"><use xlink:href="#i" x="4.40257" y="280.12289"/><use xlink:href="#d" x="12.2716" y="280.12289"/></g><path fill="none" stroke="#7f7f7f" stroke-miterlimit="10" stroke-width=".39796" d="M41.03906 239.60156H22.63672"/><g fill="#7f7f7f"><use xlink:href="#i" x="4.40257" y="243.32256"/><use xlink:href="#c" x="12.2716" y="243.32256"/></g><path fill="none" stroke="#7f7f7f" stroke-miterlimit="10" stroke-width=".39796" d="M41.03906 166H22.63672"/><use xlink:href="#c" x="12.27095" y="169.72091" fill="#7f7f7f"/><path fill="none" stroke="#7f7f7f" stroke-miterlimit="10" stroke-width=".39796" d="M41.03906 129.19922H22.63672"/><use xlink:href="#d" x="12.27095" y="132.92058" fill="#7f7f7f"/><path fill="none" stroke="#7f7f7f" stroke-miterlimit="10" stroke-width=".39796" d="M41.03906 92.39844H22.63672"/><use xlink:href="#e" x="12.27095" y="96.05535" fill="#7f7f7f"/><path fill="none" stroke="#7f7f7f" stroke-miterlimit="10" stroke-width=".39796" d="M41.03906 55.59766H22.63672"/><use xlink:href="#f" x="12.27095" y="59.25502" fill="#7f7f7f"/><path fill="none" stroke="#7f7f7f" stroke-miterlimit="10" stroke-width=".39796" d="M41.03906 18.79688H22.63672"/><use xlink:href="#g" x="12.27095" y="22.38978" fill="#7f7f7f"/><g clip-path="url(#j)"><path fill="none" stroke="#000" stroke-miterlimit="10" stroke-width=".79593" d="M31.83594 294.80469V6.5625"/></g><path stroke="#000" stroke-miterlimit="10" stroke-width=".79593" d="M31.83594 2.40625c-.10547.50781-.70703 2.7539-1.35938 4.15625h2.72266c-.65235-1.40234-1.2539-3.64844-1.36328-4.15625Zm0 0"/><g clip-path="url(#k)"><path fill="none" stroke="#ff7f00" stroke-miterlimit="10" stroke-width=".79593" d="M13.4375 261.22266s6.64844-11.4375 9.19922-16.1211c2.55469-4.6836 6.64844-12.7461 9.19922-17.64062 2.55468-4.89844 6.64843-12.96094 9.20312-17.64453 2.55078-4.6836 6.64453-11.85938 9.19922-16.1211 2.55469-4.26562 6.64844-10.76562 9.19922-14.60547 2.55469-3.84375 6.64844-9.66796 9.20312-13.08984 2.55079-3.42187 6.64453-8.57031 9.19922-11.57031 2.55078-2.9961 6.64844-7.47266 9.19922-10.05078 2.55469-2.57813 6.64844-6.375 9.19922-8.53125 2.55469-2.15625 6.64844-5.28125 9.20312-7.01563 2.55078-1.73437 6.64454-4.18359 9.19922-5.4961 2.55469-1.3164 6.64844-3.08593 9.19922-3.98046 2.55469-.89453 6.64844-1.98828 9.19922-2.46094 2.55469-.47265 6.64844-.89062 9.20312-.9414 2.55079-.05078 6.64454.20312 9.19922.57422 2.55469.37109 6.64844 1.30078 9.19922 2.09375 2.55469.78906 6.64844 2.39843 9.20313 3.60937 2.55078 1.21484 6.64453 3.4961 9.19921 5.1289 2.55079 1.63673 6.64844 4.59376 9.19922 6.64844 2.5547 2.0547 6.64844 5.6875 9.19922 8.16407 2.55469 2.47656 6.64844 6.78906 9.20313 9.68359 2.55078 2.89844 6.64453 7.88281 9.19921 11.20312 2.5547 3.32032 6.64844 8.98047 9.19922 12.71875 2.5547 3.7422 9.20313 14.23829 9.20313 14.23829"/></g><use xlink:href="#l" x="104.71617" y="114.84398" fill="#ff7f00"/><use xlink:href="#m" x="114.63737" y="117.68974" fill="#ff7f00"/><g clip-path="url(#n)"><path fill="none" stroke="#000" stroke-dasharray="2.9847950795 2.9847950795" stroke-miterlimit="10" stroke-width=".79593" d="M13.4375 92.39844h220.8086"/></g></svg>