<svg xmlns="http://www.w3.org/2000/svg" xmlns:xlink="http://www.w3.org/1999/xlink" width="190.159pt" height="118.206pt" viewBox="0 0 190.159 118.206"><defs><path id="a" d="M.5-4.03125C.5-1.625 1.21875.14063 3.21875.14063c1.98438 0 2.70313-1.76563 2.70313-4.17188 0-2.42187-.71875-4.1875-2.70313-4.1875-2 0-2.71875 1.76563-2.71875 4.1875m1.21875 0c0-1.96875.35938-3.76562 1.5-3.76562C4.35938-7.79687 4.6875-6 4.6875-4.03125c0 1.95313-.32812 3.75-1.46875 3.75-1.14062 0-1.5-1.79687-1.5-3.75m0 0"/><path id="h" d="M.40625-6.03125c0 1.04688 1.04688 1.89063 3.46875 1.89063-.40625.70312-.70312 1.4375-.70312 2.23437 0 1.32813.84375 2.04688 2.35937 2.04688 1.48438 0 3.01563-1.0625 3.01563-2.4375 0-.82813-.67188-1.28125-1.53125-1.28125-.95313 0-2.07813 1.07812-2.07813 1.92187 0 .25.1875.75.54688.75.10937 0 .25-.07812.25-.20312 0-.15626-.28125-.15626-.28125-.53125 0-.59375.85937-1.54688 1.5625-1.54688.48437 0 .78125.1875.78125.67188C7.79688-1.45312 6.76563-.25 5.53125-.25c-.875 0-1.32812-.46875-1.32812-1.26562 0-.90625.625-1.95313 1.10937-2.73438C8-4.65625 10.64063-5.98437 10.64063-7.67187c0-.64063-.51563-1.0625-1.21875-1.0625-1.59375 0-4 2.04687-5.3125 4.17187-1.09375-.01562-2.875-.04687-2.875-1.32812 0-1.1875 1.4375-2.09375 2.34375-2.09375.15625 0 .25-.10938.25-.20313 0-.10937-.09375-.1875-.1875-.1875-1.35938 0-3.23438.92188-3.23438 2.34375m5.15625 1.3125c.875-1.5625 2.75-3.625 3.85938-3.625.42187 0 .71875.25.71875.64063 0 1.34375-2.10938 2.57812-4.57813 2.98437m0 0"/><path id="b" d="M1.1875 0h3.57813v-.3125l-.92188-.07812C3.60938-.42187 3.48438-.5 3.48438-.92187v-6.42188l-.0625-.04687-2.23438.375V-6.75l1.01563.125c.1875.03125.25.10938.25.42188v5.28125c0 .42187-.10938.5-.35938.53125L1.1875-.3125Zm0 0"/><path id="c" d="M.29688-.10937.42188 0h4.5l.375-1.4375-.3125-.0625c-.21875.59375-.45313.67188-.89063.67188H1.3125c.1875-.5625.82813-1.34375 1.84375-2.0625C4.1875-3.65625 5-4.14062 5-5.35937 5-6.875 4-7.39062 2.84375-7.39062c-1.48437 0-2.25.89062-2.25 1.46875 0 .35937.40625.53125.59375.53125.20313 0 .26563-.10938.3125-.29688.17188-.73437.60938-1.32812 1.28125-1.32812.82813 0 1.07813.6875 1.07813 1.5 0 1.15625-.59375 1.82812-1.54688 2.65625C.96875-1.6875.51563-.95312.29688-.10937m0 0"/><path id="d" d="M.29688-1.10937c0 .46875.75 1.23437 2.29687 1.23437 1.57813 0 2.5625-.79687 2.5625-2.1875 0-1.45312-1.25-1.89062-1.84375-1.9375v-.04687c.59375-.09375 1.53125-.53125 1.53125-1.60938 0-1.20312-.9375-1.73437-2.10937-1.73437-1.4375 0-2.14063.82812-2.14063 1.28125 0 .34375.375.53125.53125.53125.14063 0 .21875-.07813.26563-.21875.23437-.75.64062-1.21875 1.26562-1.21875.85938 0 1.07813.75 1.07813 1.35937C3.73438-5 3.5-4.1875 2.57813-4.1875c-.53125 0-.82813-.09375-.95313-.09375-.14062 0-.20312.09375-.20312.29688 0 .1875.0625.29687.20312.29687.125 0 .42188-.09375.95313-.09375.92187 0 1.4375.82813 1.4375 1.78125 0 1.29688-.64063 1.75-1.40625 1.75-.71875 0-1.20313-.53125-1.40625-1.15625-.0625-.20312-.17188-.3125-.32813-.3125-.1875 0-.57812.21875-.57812.60938m0 0"/><path id="e" d="m.21875-2.17187.09375.23437h2.96875v1.10938c0 .35937-.125.42187-.39062.45312l-.6875.0625V0h2.875v-.3125l-.5-.0625c-.25-.03125-.3125-.09375-.3125-.45312V-1.9375H5.375v-.51562H4.26563v-4.8125h-.79688c-1.03125 1.5-2.25 3.39062-3.25 5.09375M1-2.45312c.65625-1.1875 1.4375-2.4375 2.28125-3.76563v3.76563Zm0 0"/><path id="i" d="M-.1875 1.51563c.01563.29687.375.53125.82813.53125.89062 0 1.29687-.70313 1.64062-2.29688l.79688-3.54687h1.0625l.09375-.35938H3.125l.26563-1.01562c.14062-.5625.28125-.78125.48437-.78125s.34375.15625.54688.59375c.04687.07812.125.17187.26562.17187.20313 0 .45313-.17187.45313-.40625 0-.375-.45313-.67187-1.01563-.67187-1.0625 0-1.5.75-1.79687 1.84375l-.09375.26562h-.71875l-.10938.35938h.75l-.98437 5.01562c-.07813.4375-.15626.5-.25.5-.07813 0-.21876-.07812-.4375-.4375-.0625-.07812-.125-.20312-.25-.20312-.20313 0-.42188.21874-.42188.4375m0 0"/><clipPath id="f"><path d="M171 79h18.10547v26H171Zm0 0"/></clipPath><clipPath id="g"><path d="M5.6875.39453h183.02344v109.8164H5.6875Zm0 0"/></clipPath></defs><path fill="none" stroke="#7f7f7f" stroke-dasharray=".39584200500000005 .9896348124000001" stroke-miterlimit="10" stroke-width=".39584" d="M23.98828 91.90625h164.7227M23.98828 55.30077h164.7227M23.98828 18.6953h164.7227M23.98828 91.90625V.39451m36.60548 91.51174V.39451m36.60548 91.51174V.39451m36.60548 91.51174V.39451m36.60548 91.51174V.39451"/><use xlink:href="#a" x="7.96168" y="108.75846" fill="#7f7f7f"/><path fill="none" stroke="#7f7f7f" stroke-miterlimit="10" stroke-width=".39584" d="M60.59376 82.7539v18.3047"/><use xlink:href="#b" x="57.70058" y="113.00196" fill="#7f7f7f"/><path fill="none" stroke="#7f7f7f" stroke-miterlimit="10" stroke-width=".39584" d="M97.19924 82.7539v18.3047"/><use xlink:href="#c" x="94.3047" y="113.00196" fill="#7f7f7f"/><path fill="none" stroke="#7f7f7f" stroke-miterlimit="10" stroke-width=".39584" d="M133.80472 82.7539v18.3047"/><use xlink:href="#d" x="130.90883" y="113.00196" fill="#7f7f7f"/><path fill="none" stroke="#7f7f7f" stroke-miterlimit="10" stroke-width=".39584" d="M170.4102 82.7539v18.3047"/><use xlink:href="#e" x="167.51395" y="112.87481" fill="#7f7f7f"/><path fill="none" stroke="#000" stroke-miterlimit="10" stroke-width=".79169" d="M5.6875 91.90625h176.89067"/><path d="M186.71484 91.90625c-.5078-.10547-2.74218-.70312-4.13672-1.35547v2.71094c1.39454-.65234 3.62891-1.25 4.13672-1.35547m0 0"/><g clip-path="url(#f)"><path fill="none" stroke="#000" stroke-miterlimit="10" stroke-width=".79169" d="M186.71484 91.90625c-.5078-.10547-2.74218-.70313-4.13672-1.35547v2.71094c1.39454-.65235 3.62891-1.25 4.13672-1.35547Zm0 0"/></g><path fill="none" stroke="#7f7f7f" stroke-miterlimit="10" stroke-width=".39584" d="M33.14063 55.30077H14.83984"/><use xlink:href="#b" x="4.5049" y="59.00168" fill="#7f7f7f"/><path fill="none" stroke="#7f7f7f" stroke-miterlimit="10" stroke-width=".39584" d="M33.14063 18.6953H14.83984"/><use xlink:href="#c" x="4.5049" y="22.39755" fill="#7f7f7f"/><path fill="none" stroke="#000" stroke-miterlimit="10" stroke-width=".79169" d="M23.98828 110.21094V6.53123"/><path stroke="#000" stroke-miterlimit="10" stroke-width=".79169" d="M23.98828 2.39453c-.10547.50781-.70312 2.73828-1.35156 4.13672h2.70703c-.64844-1.39844-1.25-3.6289-1.35547-4.13672Zm0 0"/><g clip-path="url(#g)"><path fill="none" stroke="#007f7f" stroke-miterlimit="10" stroke-width=".79169" d="M16.66797-36.21097S17.89453.92185 23.98828 18.69529c6.09766 17.77735 21.3711 68.13283 36.60548 73.21096 15.23828 5.07813 57.97658-36.60548 73.21096-36.60548 15.23828 0 28.98829 28.98829 36.60548 36.60548s18.30078 18.3047 18.30078 18.3047"/></g><use xlink:href="#h" x="28.53548" y="20.62844" fill="#007f7f"/><use xlink:href="#i" x="38.4025" y="23.45902" fill="#007f7f"/></svg>