<svg xmlns="http://www.w3.org/2000/svg" xmlns:xlink="http://www.w3.org/1999/xlink" width="893.216pt" height="255.489pt" viewBox="0 0 893.216 255.489"><defs><path id="g" d="M-.21875-13.76562c1.0625.04687 1.3125.1875 1.60938 1.07812L5.60938 0h2.67187l2.5-7.34375C11.5625-9.64062 12.3125-11.6875 12.625-12.5c.42188-1.01562.59375-1.17187 1.78125-1.26562v-.78125h-4.875v.78125l1.1875.10937c.42188.04688.46875.25.35938.70313-.20313.6875-.67188 2.4375-1.29688 4.39062C9.35938-7.29687 8.4375-4.20312 8.0625-3.125h-.125l-3.15625-9.76562c-.125-.4375-.10937-.71875.39063-.76563l1-.10937v-.78125H-.21875Zm0 0"/><path id="h" d="M1-2.8125C1-1.25 2.01563.25 4.14063.25c1.34375 0 2.28125-.71875 3.01562-1.21875C7.42188-.3125 7.8125.25 8.8125.25c1.09375 0 2.39063-.35937 3.09375-.625l-.03125-.70312c-.26562.03124-.73437 0-1.04687-.10938-.26563-.09375-.67188-.32812-.67188-1.5625v-4.85937c0-1.3125-.17187-2.95313-3.89062-2.95313-3.09375 0-5.01563 1.23438-5.01563 2.59375 0 .92188 1.34375 1.32813 1.875 1.32813.48438 0 .70313-.34375.90625-.85938.57813-1.78125 1.26563-2.09375 1.85938-2.09375s1.1875.35938 1.1875 1.5625v1.125c-.75.5-2.48438 1-3.85938 1.46875C1.5625-4.85937 1-4.03125 1-2.8125m3.20313-.34375c0-.98437.35937-1.46875.98437-1.82812.65625-.35938 1.375-.65625 1.89063-.875v3.04687C7.03125-1.67187 6.375-1.39062 5.79688-1.39062c-.82813 0-1.59375-.64063-1.59375-1.76563m0 0"/><path id="i" d="M.51563 0h5.90625v-.8125C5.21875-.875 5.07813-.96875 5.07813-1.82812v-13.64063l-.17188-.125-4.23437.5625v.75l.71875.125c.32812.0625.48437.23438.48437 1.09375v11.23438c0 .85937-.15625.95312-1.35937 1.01562Zm0 0"/><path id="j" d="M.82813-5.14062C.82813-2.28125 2.07813.25 5.96875.25c2.51563 0 3.875-1.21875 4.59375-3.0625L9.79688-3.25C9.17188-2.03125 8.28125-1.35937 7-1.35937c-2.09375 0-2.84375-1.73438-2.84375-3.9375H9.625c.75 0 1.10938-.20313 1.10938-.875 0-1.71875-.67188-4.39063-4.71875-4.39063-3.78125 0-5.1875 2.46875-5.1875 5.42188M4.15625-6.3125c0-1.51562.40625-3.28125 1.76563-3.28125 1.28125 0 1.5 1.60938 1.5 2.59375 0 .57813-.15625.6875-.64063.6875Zm0 0"/><path id="k" d="m.625-9.20312.73438.125c.34375.03125.46875.1875.46875 1.04687v5.125C1.82813-.45312 3.35938.25 4.875.25c1.79688 0 2.89063-.96875 3.73438-1.4375L8.79688 0h4.35937v-.8125C11.95313-.875 11.8125-.96875 11.8125-1.82812v-8.59375l-.17187-.14063-4.25.60938v.75l.73437.125c.32813.03125.48438.1875.48438 1.04687v4.45313c0 .35937-.01563.875-.15625 1.1875-.20313.48437-.75.98437-1.67188.98437-1.125 0-1.76562-.65625-1.76562-2.28125v-6.73437l-.15625-.14063L.625-9.95312Zm0 0"/><path id="l" d="M.67188 0h6.35937v-.8125C5.42188-.89062 5.1875-.96875 5.1875-1.82812v-4.6875c0-1.09375.20313-1.60938.71875-1.60938.34375 0 .65625.1875 1.125.45313.26563.20312.54688.32812.95313.32812.42187 0 .85937-.21875 1.07812-.53125s.32813-.73437.32813-1.20312c0-.90625-.57813-1.48438-1.45313-1.48438-.85937 0-1.53125.57813-2.76562 1.85938L4.875-10.5625l-4.09375.60938v.75l.73438.125c.34375.03125.51562.1875.51562 1.04687v6.20313c0 .85937-.15625.95312-1.35937 1.01562Zm0 0"/><path id="m" d="M.82813-4.96875C.82813-1.90625 2.42188.25 5.07813.25c.78125 0 1.90625-.40625 3.04687-1.29687V0h4.51563v-.8125c-1.20313-.0625-1.35938-.15625-1.35938-1.01562v-13.64063l-.14062-.125-4.26563.5625v.75l.73438.125c.32812.0625.51562.23438.51562 1.09375v2.76563c-.46875-.20313-1.07812-.26563-1.79687-.26563-1.5625 0-2.96875.46875-3.9375 1.35938C1.40625-8.28125.82813-6.875.82813-4.96875m3.32812-.42187c0-3.09375 1.17188-4.20313 2.35938-4.20313.79687 0 1.21875.42188 1.42187.84375.20313.3125.1875.76563.1875 1.20313v4.34375c0 .85937-.3125 1.84375-1.65625 1.84375-1.375 0-2.3125-1.34375-2.3125-4.03125m0 0"/><path id="o" d="m1-4.75.34375 3.76563C2.42188 0 4.5.3125 5.89063.3125c4.20312-.04687 5.4375-2.29687 5.4375-4.5 0-2.76562-2.04688-3.84375-3.96875-4.65625-1.39063-.57812-3.15625-1.34375-3.15625-2.92187 0-1.32813.9375-2.125 2.20312-2.125 1.32813 0 2.64063.9375 3.21875 3.39062h.75v-3.4375c-1.09375-.67187-2.67187-.9375-3.95312-.9375-3.5625 0-5.23438 1.82813-5.23438 4.3125 0 2.625 2.32813 3.73438 4.1875 4.51563 1.92188.8125 2.79688 1.75 2.79688 3.09375-.03125 1.5625-1.01563 2.29687-2.375 2.29687-1.59375 0-3.20313-1.45312-4-4.09375Zm0 0"/><path id="p" d="M1.59375-13.3125c0 1 .70313 1.85938 1.89063 1.85938 1.17187 0 1.96875-.85938 1.96875-1.85938 0-.98437-.75-1.82812-1.96875-1.82812-1.1875 0-1.89063.84375-1.89063 1.82812M.67188 0h5.92187v-.8125C5.39063-.875 5.1875-.96875 5.1875-1.82812v-8.59375l-.10937-.14063-4.29688.60938v.75l.73438.125c.34375.03125.51562.1875.51562 1.04687v6.20313c0 .85937-.15625.95312-1.35937 1.01562Zm0 0"/><path id="q" d="M.67188 2.01563c0 2.03125 2.1875 3.0625 5.1875 3.0625.92187 0 2.4375-.17188 3.5-.76563 1.15625-.59375 1.9375-1.6875 1.9375-3.21875 0-2.53125-1.9375-3.3125-4.15625-3.3125H5.1875c-1.03125 0-1.40625-.32812-1.40625-.71875 0-.46875.53125-.6875.82813-.75.40625.04688.71875.01563.96875.01563 2.48437 0 4.71875-.89063 4.71875-3.40625 0-.625-.25-1.26563-.51563-1.625l1.39063-.25.42187-1.57813-.20312-.23437-2.67188.89062c-.6875-.39062-1.84375-.6875-2.98437-.6875-3.78125 0-4.90625 1.95313-4.90625 3.57813 0 1.75 1.29687 2.79687 2.57812 3v.04687c-1.375.32813-2.26562 1.09375-2.26562 1.95313 0 .90625 1.03125 1.76562 1.95312 1.96875v.03125c-.875.20312-2.42187.59375-2.42187 2m2.79687-.20313c0-.57812.26563-.96875.5625-1.15625.28125-.20312.9375-.32812 1.85938-.32812C7.67188.32813 8.75.73438 8.75 2.01563c0 1.5-1.17187 2.09375-2.57812 2.09375S3.46875 3.3125 3.46875 1.8125m.64063-8.85937c0-1.79688.75-2.54688 1.59375-2.54688.82812 0 1.59375.75 1.59375 2.51563 0 1.5-.65625 2.45312-1.60938 2.45312-.90625 0-1.57812-.96875-1.57812-2.42187m0 0"/><path id="r" d="M.67188 0H6.3125v-.8125l-.40625-.03125c-.45312-.04687-.71875-.125-.71875-.8125v-5.01562c0-.46875.09375-.9375.25-1.21875.26563-.54688.82813-1.0625 1.70313-1.0625 1.07812 0 1.625.67187 1.67187 1.92187v5.375c0 .6875-.21875.76563-.67187.8125l-.4375.03125V0h5.65625v-.8125c-1.20313-.0625-1.39063-.15625-1.39063-1.01562V-7.3125c-.01562-1.96875-.98437-3.25-3.15625-3.25-1.23437 0-2.23437.625-3.625 1.45313l-.26562-1.45313-4.14063.60938v.75l.73438.125c.34375.03125.51562.1875.51562 1.04687v6.20313c0 .85937-.15625.95312-1.35937 1.01562Zm0 0"/><path id="n" d="M.67188-.82812C.67188-.21876 1.15625.25 2.01563.25 3.45313.25 4.25-1.1875 5.125-2.59375l.84375-1.39062h.04688l.39062 1.65625C6.79688-.65625 7.1875.25 8.25.25c1.54688 0 2.35938-1.59375 2.98438-2.875l-.54688-.28125c-.5.9375-1.09375 2.0625-1.67187 2.0625-.40625 0-.5625-.46875-1.03125-2.35937l-.67188-2.75C8.07813-7.29687 9.15625-8.96875 9.75-8.96875c.625 0 .65625.32813 1.28125.32813.46875 0 .89063-.4375.89063-1 0-.65625-.48438-.92188-1.0625-.92188-1.125 0-2.0625 1.01563-2.79688 2.1875l-.92187 1.4375h-.04688L6.25-10.46875l-.125-.09375-3.46875 1.04688L2.70313-9l1.65625-.10937c.34375 0 .5.15625.70312 1.04687l.73438 3.04688L5.21875-4c-.90625 1.53125-1.6875 2.64063-2.20312 2.64063-.59375 0-.75-.51563-1.42188-.51563-.54687 0-.92187.53125-.92187 1.04688m0 0"/><path id="s" d="M.5625-.20312.78125 0h8.70313l.71875-2.78125-.57813-.10937C9.17188-1.75 8.75-1.59375 7.89063-1.59375H2.53125c.32813-1.09375 1.57813-2.59375 3.53125-4 2.01563-1.48437 3.57813-2.42187 3.57813-4.76562 0-2.9375-1.9375-3.9375-4.15625-3.9375-2.89063 0-4.35938 1.75-4.35938 2.84375 0 .71875.79688 1.04687 1.15625 1.04687.375 0 .51563-.21875.60938-.57812.32812-1.4375 1.15625-2.57813 2.45312-2.57813 1.60938 0 2.07813 1.34375 2.07813 2.89063 0 2.26562-1.14063 3.53125-2.96875 5.14062C1.85938-3.26562.96875-1.82812.5625-.20312m0 0"/><path id="t" d="M1.79688-5.32812h5.15625v5.17187H8.1875v-5.17187h5.17188V-6.5625H8.1875v-5.15625H6.95313v5.15625H1.79688Zm0 0"/><path id="u" d="m.40625-4.20312.17188.4375H6.3125v2.15625c0 .71875-.21875.82812-.73437.875l-1.34375.125V0h5.54687v-.60937l-.9375-.10938c-.5-.0625-.625-.17187-.625-.89062v-2.15625h2.14063V-4.75H8.21875v-9.29687H6.67188C4.70313-11.14062 2.32813-7.5.40625-4.20312M1.92188-4.75c1.25-2.28125 2.78125-4.71875 4.39062-7.26562V-4.75Zm0 0"/><path id="v" d="M1.79688-5.32812h11.5625V-6.5625H1.79688Zm0 0"/><path id="w" d="M.5625-2.14062C.5625-1.25 2.01563.25 4.98438.25c3.04687 0 4.96875-1.54687 4.96875-4.23437 0-2.8125-2.40625-3.64063-3.57813-3.75v-.09375c1.14063-.1875 2.95313-1.03125 2.95313-3.10938 0-2.32812-1.8125-3.35937-4.0625-3.35937-2.78125 0-4.14063 1.60937-4.14063 2.5 0 .65625.73438 1.01562 1.01563 1.01562s.4375-.15625.51562-.42187c.46875-1.4375 1.26563-2.35938 2.4375-2.35938 1.65625 0 2.09375 1.45313 2.09375 2.64063 0 1.25-.45312 2.84375-2.25 2.84375-1 0-1.57812-.20313-1.82812-.20313-.26563 0-.375.20313-.375.57813 0 .35937.10937.59375.375.59375.25 0 .82812-.20313 1.82812-.20313 1.79688 0 2.79688 1.60938 2.79688 3.4375 0 2.51563-1.21875 3.375-2.71875 3.375-1.39063 0-2.3125-1.01562-2.71875-2.20312-.125-.40625-.32813-.60938-.625-.60938-.375 0-1.10938.40625-1.10938 1.17188m0 0"/><path id="x" d="M-.45312 3.875c.03125.6875.95312 1.20313 1.9375 1.20313 2.09375 0 2.98437-1.70313 3.85937-5.73438l1.95313-8.85937h2.65625l.20312-.79688H7.42188l.59375-2.375c.39062-1.59375.79687-2.1875 1.375-2.1875.5625 0 .95312.46875 1.42187 1.46875.10938.20313.26563.35938.57813.35938.42187 0 1.03125-.375 1.03125-.92188 0-.89062-1.14063-1.625-2.39063-1.625-2.48437 0-3.51562 1.75-4.32812 4.51563l-.21875.76562h-1.8125l-.25.79688h1.875L2.85938 2.89063C2.625 4.1875 2.39063 4.3125 2.1875 4.3125c-.21875 0-.54687-.15625-1.10937-1.01562-.15626-.20313-.29688-.48438-.5625-.48438-.46875 0-.96875.51563-.96875 1.0625m0 0"/><path id="y" d="M1.8125-5.92187c0 4.73437 1.07813 9.95312 5.53125 10.125v-.625c-1.5-.28125-3.85937-2.14063-3.85937-9.5 0-7.32813 2.25-9.1875 3.85937-9.51563v-.625c-4.45312.17188-5.53125 5.39063-5.53125 10.14063m0 0"/><path id="z" d="M1.25 3.57813v.625c4.45313-.17188 5.53125-5.39063 5.53125-10.125 0-4.75-1.07812-9.96875-5.53125-10.14063v.625c1.60938.32813 3.84375 2.1875 3.84375 9.51563 0 7.35937-2.34375 9.21875-3.84375 9.5m0 0"/><path id="G" d="M.32813-4.45312c0 2.5 2.48437 4.67187 4.8125 4.67187 2.95312 0 4.84375-2.95312 5.20312-3.53125.39063.76563 2.4375 3.5625 5.70313 3.5625 3.89062 0 5.01562-2.95312 5.01562-5.4375 0-2.51562-2.35937-4.5-4.6875-4.5-2.79687 0-4.3125 2.01563-5.20312 3.25C10.34375-7.78125 8.5-9.64062 5.59375-9.64062c-3.82812 0-5.26562 2.70312-5.26562 5.1875m1.32812.0625c0-2.09375 1.46875-3.75 3.25-3.75C7-8.14062 8.76563-5.92187 9.75-4.35937c-.79687 1.42187-2.29687 3.625-4.67187 3.625-1.51563 0-3.42188-1.75-3.42188-3.65625M11.76563-5.5c.8125-1.4375 2.32812-3.20312 4.70312-3.20312 1.51563 0 3.35938 1.51562 3.35938 3.42187 0 2.125-1.14063 4.07813-3.1875 4.07813-2.15626 0-3.89063-2.42188-4.875-4.29688m0 0"/><path id="I" d="M.875-7.03125C.875-2.8125 2.10938.25 5.57813.25s4.71875-3.0625 4.71875-7.28125c0-4.20312-1.25-7.26562-4.71875-7.26562S.875-11.23437.875-7.03125m2.125 0c0-3.42187.57813-6.53125 2.57813-6.53125 1.98437 0 2.5625 3.10938 2.5625 6.53125S7.5625-.5 5.57813-.5C3.57813-.5 3-3.60937 3-7.03125m0 0"/><clipPath id="a"><path d="M.5 63H256v191.98047H.5Zm0 0"/></clipPath><clipPath id="b"><path d="M255 0h636.9336v64H255Zm0 0"/></clipPath><clipPath id="c"><path d="M255 0h636.9336v65H255Zm0 0"/></clipPath><clipPath id="d"><path d="M255 63h636.9336v191.98047H255Zm0 0"/></clipPath><clipPath id="e"><path d="M.5 0H256v64H.5Zm0 0"/></clipPath><clipPath id="f"><path d="M.5 0H256v65H.5Zm0 0"/></clipPath><clipPath id="A"><path d="M.5 63h891.4336v2H.5Zm0 0"/></clipPath><clipPath id="B"><path d="M.5 127h891.4336v1H.5Zm0 0"/></clipPath><clipPath id="C"><path d="M.5 190h891.4336v2H.5Zm0 0"/></clipPath><clipPath id="D"><path d="M.5 254h891.4336v.98047H.5Zm0 0"/></clipPath><clipPath id="E"><path d="M.5 0h891.4336v254.98047H.5Zm0 0"/></clipPath><clipPath id="F"><path d="M255 0h1v254.98047h-1Zm0 0"/></clipPath><clipPath id="H"><path d="M255 63h636.9336v65H255Zm0 0"/></clipPath><clipPath id="J"><path d="M255 127h636.9336v65H255Zm0 0"/></clipPath><clipPath id="K"><path d="M255 190h636.9336v64.98047H255Zm0 0"/></clipPath><clipPath id="L"><path d="M477 190h2v64.98047h-2Zm0 0"/></clipPath><clipPath id="M"><path d="M668 190h2v64.98047h-2Zm0 0"/></clipPath></defs><g clip-path="url(#a)"><path fill="#FFF" stroke="#000" stroke-miterlimit="10" stroke-width=".3977" d="M.69922 63.84376v190.94142h254.58596V63.84376Zm0 0"/></g><g clip-path="url(#b)"><path fill="#FFF" d="M255.28516 63.84375V.19922h636.46093v63.64453Zm0 0"/></g><g clip-path="url(#c)"><path fill="none" stroke="#000" stroke-miterlimit="10" stroke-width=".3977" d="M255.28518 63.84376V.19922h636.461v63.64454Zm0 0"/></g><g clip-path="url(#d)"><path fill="#FFF" stroke="#000" stroke-miterlimit="10" stroke-width=".3977" d="M255.28518 63.84376v190.94142h636.461V63.84376Zm0 0"/></g><g clip-path="url(#e)"><path fill="#FFF" d="M.69922.19922v63.64453h254.58594V.19922Zm0 0"/></g><g clip-path="url(#f)"><path fill="none" stroke="#000" stroke-miterlimit="10" stroke-width=".3977" d="M.69922.19922v63.64454h254.58596V.19922Zm0 0"/></g><use xlink:href="#g" x="69.79566" y="39.69461"/><use xlink:href="#h" x="82.07744" y="39.69461"/><use xlink:href="#i" x="93.73284" y="39.69461"/><use xlink:href="#j" x="100.44419" y="39.69461"/><use xlink:href="#k" x="111.54031" y="39.69461"/><use xlink:href="#l" x="124.9854" y="39.69461"/><use xlink:href="#m" x="141.89802" y="39.69461"/><use xlink:href="#j" x="154.8062" y="39.69461"/><use xlink:href="#n" x="173.36526" y="39.69461"/><use xlink:href="#o" x="51.62275" y="100.92414"/><use xlink:href="#p" x="63.39" y="100.92414"/><use xlink:href="#q" x="70.25796" y="100.92414"/><use xlink:href="#r" x="81.66727" y="100.92414"/><use xlink:href="#j" x="95.29133" y="100.92414"/><use xlink:href="#m" x="113.83705" y="100.92414"/><use xlink:href="#j" x="126.74523" y="100.92414"/><use xlink:href="#s" x="145.30538" y="100.92414"/><use xlink:href="#n" x="156.44624" y="100.92414"/><use xlink:href="#t" x="173.91814" y="100.92414"/><use xlink:href="#u" x="193.20211" y="100.92414"/><use xlink:href="#o" x="49.68713" y="164.56885"/><use xlink:href="#p" x="61.45437" y="164.56885"/><use xlink:href="#q" x="68.32233" y="164.56885"/><use xlink:href="#r" x="79.73164" y="164.56885"/><use xlink:href="#j" x="93.3557" y="164.56885"/><use xlink:href="#m" x="111.90142" y="164.56885"/><use xlink:href="#j" x="124.8096" y="164.56885"/><use xlink:href="#v" x="143.36751" y="164.56885"/><use xlink:href="#n" x="158.49043" y="164.56885"/><use xlink:href="#t" x="175.89523" y="164.56885"/><use xlink:href="#w" x="195.13445" y="164.56885"/><use xlink:href="#o" x="59.33832" y="228.44908"/><use xlink:href="#p" x="71.10557" y="228.44908"/><use xlink:href="#q" x="77.97353" y="228.44908"/><use xlink:href="#r" x="89.38284" y="228.44908"/><use xlink:href="#j" x="103.0069" y="228.44908"/><use xlink:href="#m" x="121.55262" y="228.44908"/><use xlink:href="#j" x="134.4608" y="228.44908"/><use xlink:href="#x" x="153.0187" y="228.44908"/><use xlink:href="#y" x="166.1506" y="228.44908"/><use xlink:href="#n" x="174.74114" y="228.44908"/><use xlink:href="#z" x="188.052" y="228.44908"/><g clip-path="url(#A)"><path fill="none" stroke="#000" stroke-miterlimit="10" stroke-width=".3977" d="M.69922 63.84376h891.04696"/></g><g clip-path="url(#B)"><path fill="none" stroke="#000" stroke-miterlimit="10" stroke-width=".3977" d="M.69922 127.4922h891.04696"/></g><g clip-path="url(#C)"><path fill="none" stroke="#000" stroke-miterlimit="10" stroke-width=".3977" d="M.69922 191.13674h891.04696"/></g><g clip-path="url(#D)"><path fill="none" stroke="#000" stroke-miterlimit="10" stroke-width=".3977" d="M.69922 254.78518h891.04696"/></g><g clip-path="url(#E)"><path fill="none" stroke="#000" stroke-miterlimit="10" stroke-width=".3977" d="M.69922.19922v254.58596h891.04696V.19922Zm0 0"/></g><g clip-path="url(#F)"><path fill="none" stroke="#000" stroke-miterlimit="10" stroke-width=".3977" d="M255.28518.19922v254.58596"/></g><use xlink:href="#v" x="268.83157" y="36.74151"/><use xlink:href="#G" x="283.9545" y="36.74151"/><use xlink:href="#v" x="464.94532" y="39.16866"/><use xlink:href="#s" x="480.06825" y="39.16866"/><use xlink:href="#w" x="663.46327" y="39.0459"/><use xlink:href="#t" x="841.70178" y="37.75948"/><use xlink:href="#G" x="856.82471" y="37.75948"/><g clip-path="url(#H)"><path fill="none" stroke="#000" stroke-miterlimit="10" stroke-width=".3977" d="M255.28518 63.84376v63.64844h636.461V63.84376Zm0 0"/></g><use xlink:href="#v" x="374.92836" y="98.92315"/><path fill="none" stroke="#000" stroke-dasharray="2.98285234 2.98285234" stroke-miterlimit="10" stroke-width=".3977" d="M478.04692 63.84376v63.64844"/><use xlink:href="#I" x="472.41838" y="102.68063"/><use xlink:href="#t" x="565.82356" y="101.50698"/><path fill="none" stroke="#000" stroke-dasharray="2.98285234 2.98285234" stroke-miterlimit="10" stroke-width=".3977" d="M668.98444 63.84376v63.64844"/><use xlink:href="#t" x="756.71875" y="101.50698"/><g clip-path="url(#J)"><path fill="none" stroke="#000" stroke-miterlimit="10" stroke-width=".3977" d="M255.28518 127.4922v63.64454h636.461V127.4922Zm0 0"/></g><use xlink:href="#t" x="374.92836" y="165.13971"/><path fill="none" stroke="#000" stroke-dasharray="2.98285234 2.98285234" stroke-miterlimit="10" stroke-width=".3977" d="M478.04692 127.4922v63.64454"/><use xlink:href="#t" x="565.82356" y="165.13971"/><path fill="none" stroke="#000" stroke-dasharray="2.98285234 2.98285234" stroke-miterlimit="10" stroke-width=".3977" d="M668.98444 127.4922v63.64454"/><use xlink:href="#I" x="663.33353" y="166.31935"/><use xlink:href="#v" x="756.71875" y="162.55587"/><g clip-path="url(#K)"><path fill="none" stroke="#000" stroke-miterlimit="10" stroke-width=".3977" d="M255.28518 191.13674v63.64844h636.461v-63.64844Zm0 0"/></g><use xlink:href="#v" x="374.92836" y="226.1876"/><g clip-path="url(#L)"><path fill="none" stroke="#000" stroke-dasharray="2.98285234 2.98285234" stroke-miterlimit="10" stroke-width=".3977" d="M478.04692 191.13674v63.64844"/></g><use xlink:href="#I" x="472.41838" y="229.95806"/><use xlink:href="#t" x="565.82356" y="228.77144"/><g clip-path="url(#M)"><path fill="none" stroke="#000" stroke-dasharray="2.98285234 2.98285234" stroke-miterlimit="10" stroke-width=".3977" d="M668.98444 191.13674v63.64844"/></g><use xlink:href="#I" x="663.33353" y="229.95806"/><use xlink:href="#v" x="756.71875" y="226.1876"/></svg>