<svg xmlns="http://www.w3.org/2000/svg" xmlns:xlink="http://www.w3.org/1999/xlink" width="548.844pt" height="127.944pt" viewBox="0 0 548.844 127.944"><defs><path id="g" d="M-.21875-13.78125c1.0625.04688 1.3125.1875 1.60938 1.07813L5.625 0h2.67188l2.5-7.34375c.78125-2.3125 1.53125-4.35937 1.84375-5.1875.42187-1 .59375-1.15625 1.78125-1.25v-.78125h-4.875v.78125l1.1875.10938c.42187.04687.46875.25.35937.70312-.20312.6875-.67187 2.4375-1.29687 4.39063-.4375 1.28125-1.34375 4.35937-1.73438 5.4375h-.10937l-3.15625-9.76563c-.14063-.45312-.10938-.71875.375-.76562l1.01562-.10938v-.78125H-.21875Zm0 0"/><path id="h" d="M1.01563-2.82812c0 1.57812 1 3.07812 3.125 3.07812C5.48438.25 6.4375-.46875 7.17188-.96875 7.4375-.3125 7.8125.25 8.82813.25c1.09375 0 2.39062-.35937 3.09375-.625l-.03125-.70312c-.26563.03124-.73438 0-1.04688-.10938-.26562-.09375-.67187-.34375-.67187-1.5625v-4.875c0-1.3125-.17188-2.95312-3.89063-2.95312-3.09375 0-5.03125 1.23437-5.03125 2.59375 0 .92187 1.34375 1.32812 1.89063 1.32812.46875 0 .6875-.32812.89062-.84375.57813-1.79687 1.28125-2.10937 1.85938-2.10937.60937 0 1.1875.35937 1.1875 1.5625v1.125c-.73438.51562-2.48438 1-3.85938 1.48437-1.65625.57813-2.20312 1.40625-2.20312 2.60938m3.20312-.32813c0-.98437.35938-1.48437.98438-1.84375.64062-.35937 1.35937-.64062 1.875-.875v3.04688c-.04688 1.14062-.6875 1.4375-1.28125 1.4375-.82813 0-1.57813-.64063-1.57813-1.76563m0 0"/><path id="i" d="M.51563 0H6.4375v-.8125C5.21875-.875 5.09375-.96875 5.09375-1.84375v-13.64062l-.1875-.14063-4.23437.5625v.76563l.71875.10937c.32812.07813.48437.25.48437 1.10938v11.23437c0 .875-.15625.96875-1.35937 1.03125Zm0 0"/><path id="j" d="M.82813-5.15625c0 2.875 1.25 5.40625 5.15625 5.40625 2.5 0 3.875-1.21875 4.59375-3.07812L9.8125-3.25c-.625 1.21875-1.51562 1.89063-2.79687 1.89063-2.10938 0-2.84375-1.73438-2.84375-3.95313h5.46875c.75 0 1.10937-.20312 1.10937-.875 0-1.71875-.67187-4.39062-4.71875-4.39062-3.79687 0-5.20312 2.46875-5.20312 5.42187M4.17188-6.3125c0-1.53125.40625-3.29687 1.76562-3.29687 1.28125 0 1.5 1.60937 1.5 2.59375 0 .57812-.15625.70312-.64062.70312Zm0 0"/><path id="k" d="m.625-9.20312.73438.10937c.34375.04688.48437.20313.48437 1.04688v5.14062C1.84375-.45312 3.35938.25 4.89063.25 6.67188.25 7.78125-.71875 8.625-1.1875L8.8125 0h4.35938v-.8125c-1.20313-.0625-1.34375-.15625-1.34375-1.03125v-8.59375l-.17188-.14062-4.26562.60937v.76563l.75.10937c.32812.04688.48437.20313.48437 1.04688v4.46875c0 .35937-.01562.85937-.15625 1.1875-.20312.48437-.76562.98437-1.67187.98437-1.125 0-1.78125-.65625-1.78125-2.29687v-6.73438l-.15625-.14062L.625-9.96875Zm0 0"/><path id="l" d="M.67188 0h6.35937v-.8125C5.42188-.89062 5.20313-.96875 5.20313-1.84375v-4.67187c0-1.10938.20312-1.625.71875-1.625.32812 0 .64062.1875 1.10937.45312.26563.20313.5625.34375.96875.34375.42188 0 .84375-.23437 1.07813-.54687.21875-.3125.32812-.73438.32812-1.20313 0-.90625-.57812-1.48437-1.45312-1.48437S6.40625-10 5.17188-8.71875l-.28125-1.85937-4.10938.60937v.76563l.75.10937c.32813.04688.5.20313.5 1.04688v6.20312c0 .875-.15625.96875-1.35937 1.03125Zm0 0"/><path id="m" d="M.82813-4.96875C.82813-1.90625 2.42188.25 5.09375.25c.78125 0 1.89063-.40625 3.04688-1.29687V0h4.51562v-.8125c-1.20312-.0625-1.35937-.15625-1.35937-1.03125v-13.64062l-.14063-.14063-4.28125.5625v.76563l.75.10937c.32813.07813.51563.25.51563 1.10938v2.76562c-.48438-.20312-1.07813-.26562-1.79688-.26562-1.57812 0-2.98437.46875-3.95312 1.375C1.40625-8.29687.82813-6.875.82813-4.96875m3.34375-.4375c0-3.07812 1.15625-4.20312 2.34375-4.20312.8125 0 1.23437.42187 1.4375.84375.20312.3125.1875.76562.1875 1.21875v4.34375c0 .84375-.32813 1.84375-1.67188 1.84375-1.35937 0-2.29687-1.35938-2.29687-4.04688m0 0"/><path id="o" d="m1.01563-4.75.32812 3.76563C2.42188 0 4.5.3125 5.89063.3125c4.21875-.04687 5.45312-2.3125 5.45312-4.5 0-2.78125-2.04687-3.85937-3.96875-4.65625-1.39062-.59375-3.15625-1.34375-3.15625-2.9375 0-1.32812.9375-2.14062 2.1875-2.14062 1.34375 0 2.64063.95312 3.23438 3.40625h.75v-3.4375c-1.09375-.67188-2.6875-.95313-3.95313-.95313-3.5625 0-5.25 1.84375-5.25 4.32813 0 2.625 2.32813 3.75 4.1875 4.53125 1.92188.79687 2.79688 1.75 2.79688 3.09375-.01563 1.5625-1 2.29687-2.375 2.29687-1.57813 0-3.20313-1.45312-4-4.09375Zm0 0"/><path id="p" d="M1.59375-13.32812c0 1 .71875 1.85937 1.90625 1.85937 1.15625 0 1.96875-.85937 1.96875-1.85937 0-.98438-.76562-1.84375-1.96875-1.84375-1.1875 0-1.90625.85937-1.90625 1.84375M.67188 0h5.9375v-.8125C5.40625-.875 5.20313-.96875 5.20313-1.84375v-8.59375l-.10938-.14062-4.3125.60937v.76563l.75.10937c.32813.04688.5.20313.5 1.04688v6.20312c0 .875-.15625.96875-1.35937 1.03125Zm0 0"/><path id="q" d="M.67188 2.01563c0 2.04687 2.20312 3.07812 5.20312 3.07812.92188 0 2.4375-.1875 3.48438-.76562 1.17187-.60938 1.95312-1.70313 1.95312-3.23438 0-2.53125-1.95312-3.3125-4.17187-3.3125h-1.9375c-1.03125 0-1.42188-.32812-1.42188-.71875 0-.46875.54688-.6875.82813-.76562.40625.04687.71875.03125.96875.03125 2.48437 0 4.73437-.90625 4.73437-3.40625 0-.625-.25-1.28125-.51562-1.64063l1.39062-.25.42188-1.57812-.20313-.23438-2.67187.90625c-.6875-.40625-1.85938-.70312-3-.70312-3.78125 0-4.90625 1.95312-4.90625 3.59375 0 1.73437 1.29687 2.79687 2.57812 3v.04687C2.03125-3.60937 1.14063-2.84375 1.14063-2c0 .92188 1.03125 1.78125 1.95312 1.98438v.03125c-.875.20312-2.42187.59375-2.42187 2m2.79687-.20313c0-.57812.26563-.96875.5625-1.15625.29688-.20312.9375-.3125 1.85938-.3125 1.79687 0 2.875.39063 2.875 1.67188 0 1.5-1.17188 2.10937-2.57813 2.10937-1.42187 0-2.71875-.8125-2.71875-2.3125m.65625-8.875c0-1.78125.73438-2.54687 1.59375-2.54687.82813 0 1.57813.76562 1.57813 2.53125 0 1.5-.64063 2.4375-1.60938 2.4375-.89062 0-1.5625-.96875-1.5625-2.42188m0 0"/><path id="r" d="M.67188 0H6.3125v-.8125l-.39062-.03125c-.45313-.04687-.71875-.125-.71875-.8125v-5.01562c0-.46875.07812-.95313.23437-1.23438.28125-.54687.84375-1.0625 1.70313-1.0625 1.07812 0 1.64062.67188 1.6875 1.9375v5.375c0 .6875-.21875.76563-.67188.8125l-.45312.03125V0H13.375v-.8125c-1.20312-.0625-1.39062-.15625-1.39062-1.03125v-5.48437c-.01563-1.96875-.98438-3.25-3.15625-3.25-1.23438 0-2.23438.625-3.625 1.45312l-.28125-1.45312-4.14063.60937v.76563l.75.10937c.32813.04688.5.20313.5 1.04688v6.20312c0 .875-.15625.96875-1.35937 1.03125Zm0 0"/><path id="n" d="M.67188-.82812c0 .60937.5 1.07812 1.34375 1.07812C3.45313.25 4.25-1.1875 5.125-2.59375l.85938-1.39062h.04687l.375 1.65625C6.8125-.65625 7.1875.25 8.26563.25 9.8125.25 10.625-1.34375 11.25-2.625l-.54687-.28125c-.51563.9375-1.09375 2.0625-1.67188 2.0625-.40625 0-.5625-.48437-1.03125-2.35937l-.67187-2.75c.76562-1.34375 1.84375-3.03125 2.4375-3.03125.625 0 .65625.32812 1.28125.32812.46875 0 .89062-.4375.89062-1 0-.65625-.48437-.92187-1.07812-.92187C9.75-10.57812 8.8125-9.5625 8.0625-8.375l-.92187 1.42188h-.03125L6.25-10.48437l-.10937-.09375-3.46875 1.0625L2.71875-9 4.375-9.125c.32813 0 .48438.15625.6875 1.0625l.73438 3.04688-.57813 1c-.89062 1.54687-1.67187 2.65625-2.1875 2.65625-.60937 0-.76562-.51563-1.4375-.51563-.54687 0-.92187.53125-.92187 1.04688m0 0"/><path id="s" d="M.67188 2.01563c0 1.89062 1.96875 3.07812 4.64062 3.07812 2.84375 0 5.125-1.21875 5.125-3.53125C10.4375 0 9.25-1.14062 6.76563-1.71875 5-2.15625 4.21875-2.4375 4.21875-3.03125c0-.39062.39063-.6875.90625-.82812.4375.07812.82813.07812 1.15625.07812 2.92188 0 4.54688-1.59375 4.54688-3.76562 0-.5625-.15625-1.10938-.4375-1.45313l1.75-.28125.71875-1.3125-.125-.1875-3.0625.82813c-.53125-.35938-1.57813-.625-2.60938-.625-3.45312 0-4.48437 2.375-4.48437 3.875 0 1.57812 1.15625 2.40625 1.79687 2.625-.65625.26562-1.95312.73437-1.95312 1.59375 0 .76562.92187 1.35937 1.5 1.59375-1.4375.23437-3.25 1.15625-3.25 2.90625M2.625 1.84375c0-1.53125 1.34375-2.25 2.21875-2.375 1.3125.17188 3.8125.73438 3.8125 2.5 0 1.59375-1.3125 2.40625-2.875 2.40625C3.9375 4.375 2.625 3.35938 2.625 1.84375m1.92188-8.1875c0-1.3125.67187-3.5 2.67187-3.5.625 0 1.67188.32813 1.67188 1.78125 0 1.95313-1.03125 3.53125-2.59375 3.53125-1.125 0-1.75-.75-1.75-1.8125m0 0"/><path id="t" d="M1.8125-5.9375c0 4.75 1.07813 9.96875 5.53125 10.15625v-.64062C5.84375 3.29688 3.5 1.4375 3.5-5.9375c0-7.32812 2.23438-9.1875 3.84375-9.51562v-.64063C2.89063-15.90625 1.8125-10.6875 1.8125-5.9375m0 0"/><path id="u" d="M1.25 3.57813v.64062C5.71875 4.03125 6.79688-1.1875 6.79688-5.9375S5.71875-15.90625 1.25-16.09375v.64063c1.625.32812 3.85938 2.1875 3.85938 9.51562 0 7.375-2.35938 9.23438-3.85938 9.51563m0 0"/><path id="z" d="M1.79688-5.32812H13.375V-6.5625H1.79688Zm0 0"/><path id="A" d="M.5625-2.15625C.5625-1.25 2.01563.25 5 .25c3.04688 0 4.96875-1.54687 4.96875-4.23437 0-2.82813-2.42187-3.65625-3.57812-3.76563v-.09375c1.14062-.17187 2.95312-1.03125 2.95312-3.10937 0-2.32813-1.8125-3.35938-4.07812-3.35938-2.78125 0-4.14063 1.60938-4.14063 2.5 0 .65625.73438 1.01563 1.03125 1.01563.26563 0 .42188-.15625.51563-.42188.46875-1.4375 1.25-2.35937 2.4375-2.35937 1.65625 0 2.07812 1.45312 2.07812 2.64062 0 1.26563-.4375 2.84375-2.23437 2.84375-1.01563 0-1.59375-.20312-1.84375-.20312-.26563 0-.375.20312-.375.59375 0 .35937.10937.57812.375.57812.25 0 .82812-.20312 1.84375-.20312C6.75-7.32812 7.75-5.71875 7.75-3.875 7.75-1.35937 6.51563-.5 5.01563-.5 3.625-.5 2.71875-1.53125 2.3125-2.71875c-.14062-.39062-.34375-.59375-.625-.59375-.39062 0-1.125.40625-1.125 1.15625m0 0"/><path id="B" d="M.875-7.03125C.875-2.82812 2.10938.25 5.57813.25s4.73437-3.07812 4.73437-7.28125c0-4.21875-1.26562-7.28125-4.73437-7.28125S.875-11.25.875-7.03125m2.125 0c0-3.4375.57813-6.54687 2.57813-6.54687s2.57812 3.10937 2.57812 6.54687C8.15625-3.60937 7.57813-.5 5.57813-.5S3-3.60937 3-7.03125m0 0"/><path id="E" d="M1.79688-5.32812h5.17187v5.17187h1.23438v-5.17187H13.375V-6.5625H8.20313v-5.17187H6.96875v5.17187H1.79688Zm0 0"/><clipPath id="a"><path d="M.04297 63H192v64.88672H.04297Zm0 0"/></clipPath><clipPath id="b"><path d="M191 0h357.64453v64H191Zm0 0"/></clipPath><clipPath id="c"><path d="M191 0h357.64453v65H191Zm0 0"/></clipPath><clipPath id="d"><path d="M191 63h357.64453v64.88672H191Zm0 0"/></clipPath><clipPath id="e"><path d="M.04297 0H192v64H.04297Zm0 0"/></clipPath><clipPath id="f"><path d="M.04297 0H192v65H.04297Zm0 0"/></clipPath><clipPath id="v"><path d="M.04297 63h548.60156v2H.04297Zm0 0"/></clipPath><clipPath id="w"><path d="M.04297 127h548.60156v.88672H.04297Zm0 0"/></clipPath><clipPath id="x"><path d="M.04297 0h548.60156v127.88672H.04297Zm0 0"/></clipPath><clipPath id="y"><path d="M191 0h1v127.88672h-1Zm0 0"/></clipPath><clipPath id="C"><path d="M191 63h357.64453v64.88672H191Zm0 0"/></clipPath><clipPath id="D"><path d="M369 63h2v64.88672h-2Zm0 0"/></clipPath></defs><g clip-path="url(#a)"><path fill="#FFF" stroke="#000" stroke-miterlimit="10" stroke-width=".39832" d="M.24219 63.94534v63.74613h191.23447V63.94534Zm0 0"/></g><g clip-path="url(#b)"><path fill="#FFF" d="M191.47656 63.94531V.19921h356.97657v63.7461Zm0 0"/></g><g clip-path="url(#c)"><path fill="none" stroke="#000" stroke-miterlimit="10" stroke-width=".39832" d="M191.47666 63.94534V.19922H548.4534v63.74612Zm0 0"/></g><g clip-path="url(#d)"><path fill="#FFF" stroke="#000" stroke-miterlimit="10" stroke-width=".39832" d="M191.47666 63.94534v63.74613H548.4534V63.94534Zm0 0"/></g><g clip-path="url(#e)"><path fill="#FFF" d="M.24219.19922v63.7461h191.23437V.19921Zm0 0"/></g><g clip-path="url(#f)"><path fill="none" stroke="#000" stroke-miterlimit="10" stroke-width=".39832" d="M.24219.19922v63.74612h191.23447V.19922Zm0 0"/></g><use xlink:href="#g" x="37.57217" y="39.7566"/><use xlink:href="#h" x="49.87313" y="39.7566"/><use xlink:href="#i" x="61.54673" y="39.7566"/><use xlink:href="#j" x="68.26857" y="39.7566"/><use xlink:href="#k" x="79.38201" y="39.7566"/><use xlink:href="#l" x="92.8481" y="39.7566"/><use xlink:href="#m" x="109.78713" y="39.7566"/><use xlink:href="#j" x="122.71547" y="39.7566"/><use xlink:href="#n" x="141.30352" y="39.7566"/><use xlink:href="#o" x="26.54974" y="101.31665"/><use xlink:href="#p" x="38.33537" y="101.31665"/><use xlink:href="#q" x="45.21405" y="101.31665"/><use xlink:href="#r" x="56.64118" y="101.31665"/><use xlink:href="#j" x="70.28651" y="101.31665"/><use xlink:href="#m" x="88.8612" y="101.31665"/><use xlink:href="#j" x="101.78954" y="101.31665"/><use xlink:href="#s" x="120.37642" y="101.31665"/><use xlink:href="#t" x="134.62672" y="101.31665"/><use xlink:href="#n" x="143.23068" y="101.31665"/><use xlink:href="#u" x="156.56233" y="101.31665"/><g clip-path="url(#v)"><path fill="none" stroke="#000" stroke-miterlimit="10" stroke-width=".39832" d="M.24219 63.94534h548.2112"/></g><g clip-path="url(#w)"><path fill="none" stroke="#000" stroke-miterlimit="10" stroke-width=".39832" d="M.24219 127.69147h548.2112"/></g><g clip-path="url(#x)"><path fill="none" stroke="#000" stroke-miterlimit="10" stroke-width=".39832" d="M.24219.19922v127.49225h548.2112V.19922Zm0 0"/></g><g clip-path="url(#y)"><path fill="none" stroke="#000" stroke-miterlimit="10" stroke-width=".39832" d="M191.47666.19922v127.49225"/></g><use xlink:href="#z" x="210.2091" y="39.10688"/><use xlink:href="#A" x="225.35565" y="39.10688"/><use xlink:href="#B" x="364.41161" y="39.10688"/><use xlink:href="#A" x="511.04043" y="39.10688"/><g clip-path="url(#C)"><path fill="none" stroke="#000" stroke-miterlimit="10" stroke-width=".39832" d="M191.47666 63.94534v63.74613H548.4534V63.94534Zm0 0"/></g><use xlink:href="#z" x="289.01761" y="99.07863"/><g clip-path="url(#D)"><path fill="none" stroke="#000" stroke-dasharray="2.9875149148 2.9875149148" stroke-miterlimit="10" stroke-width=".39832" d="M369.96503 63.94534v63.74613"/></g><use xlink:href="#B" x="364.34264" y="102.84199"/><use xlink:href="#E" x="435.59945" y="101.6665"/></svg>