<svg xmlns="http://www.w3.org/2000/svg" xmlns:xlink="http://www.w3.org/1999/xlink" width="701.898" height="127.944" viewBox="0 0 701.898 127.944"><defs><path id="g" d="M-.21875-13.78125c1.0625.04688 1.3125.1875 1.60938 1.07813L5.625 0h2.67188l2.5-7.34375c.78125-2.3125 1.53125-4.35937 1.84375-5.1875.42187-1 .59375-1.15625 1.78125-1.25v-.78125h-4.875v.78125l1.1875.10938c.42187.04687.46875.25.35937.70312-.20312.6875-.67187 2.4375-1.29687 4.39063-.4375 1.28125-1.34375 4.35937-1.73438 5.4375h-.10937l-3.15625-9.76563c-.14063-.45312-.10938-.71875.375-.76562l1.01562-.10938v-.78125H-.21875Zm0 0"/><path id="h" d="M1.01563-2.82812c0 1.57812 1 3.07812 3.125 3.07812C5.48438.25 6.4375-.46875 7.17188-.96875 7.4375-.3125 7.8125.25 8.82813.25c1.09375 0 2.39062-.35937 3.09375-.625l-.03125-.70312c-.26563.03124-.73438 0-1.04688-.10938-.26562-.09375-.67187-.34375-.67187-1.5625v-4.875c0-1.3125-.17188-2.95312-3.89063-2.95312-3.09375 0-5.03125 1.23437-5.03125 2.59375 0 .92187 1.34375 1.32812 1.89063 1.32812.46875 0 .6875-.32812.89062-.84375.57813-1.79687 1.28125-2.10937 1.85938-2.10937.60937 0 1.1875.35937 1.1875 1.5625v1.125c-.73438.51562-2.48438 1-3.85938 1.48437-1.65625.57813-2.20312 1.40625-2.20312 2.60938m3.20312-.32813c0-.98437.35938-1.48437.98438-1.84375.64062-.35937 1.35937-.64062 1.875-.875v3.04688c-.04688 1.14062-.6875 1.4375-1.28125 1.4375-.82813 0-1.57813-.64063-1.57813-1.76563m0 0"/><path id="i" d="M.51563 0H6.4375v-.8125C5.21875-.875 5.09375-.96875 5.09375-1.84375v-13.64062l-.1875-.14063-4.23437.5625v.76563l.71875.10937c.32812.07813.48437.25.48437 1.10938v11.23437c0 .875-.15625.96875-1.35937 1.03125Zm0 0"/><path id="j" d="M.82813-5.15625c0 2.875 1.25 5.40625 5.15625 5.40625 2.5 0 3.875-1.21875 4.59375-3.07812L9.8125-3.25c-.625 1.21875-1.51562 1.89063-2.79687 1.89063-2.10938 0-2.84375-1.73438-2.84375-3.95313h5.46875c.75 0 1.10937-.20312 1.10937-.875 0-1.71875-.67187-4.39062-4.71875-4.39062-3.79687 0-5.20312 2.46875-5.20312 5.42187M4.17188-6.3125c0-1.53125.40625-3.29687 1.76562-3.29687 1.28125 0 1.5 1.60937 1.5 2.59375 0 .57812-.15625.70312-.64062.70312Zm0 0"/><path id="k" d="m.625-9.20312.73438.10937c.34375.04688.48437.20313.48437 1.04688v5.14062C1.84375-.45312 3.35938.25 4.89063.25 6.67188.25 7.78125-.71875 8.625-1.1875L8.8125 0h4.35938v-.8125c-1.20313-.0625-1.34375-.15625-1.34375-1.03125v-8.59375l-.17188-.14062-4.26562.60937v.76563l.75.10937c.32812.04688.48437.20313.48437 1.04688v4.46875c0 .35937-.01562.85937-.15625 1.1875-.20312.48437-.76562.98437-1.67187.98437-1.125 0-1.78125-.65625-1.78125-2.29687v-6.73438l-.15625-.14062L.625-9.96875Zm0 0"/><path id="l" d="M.67188 0h6.35937v-.8125C5.42188-.89062 5.20313-.96875 5.20313-1.84375v-4.67187c0-1.10938.20312-1.625.71875-1.625.32812 0 .64062.1875 1.10937.45312.26563.20313.5625.34375.96875.34375.42188 0 .84375-.23437 1.07813-.54687.21875-.3125.32812-.73438.32812-1.20313 0-.90625-.57812-1.48437-1.45312-1.48437S6.40625-10 5.17188-8.71875l-.28125-1.85937-4.10938.60937v.76563l.75.10937c.32813.04688.5.20313.5 1.04688v6.20312c0 .875-.15625.96875-1.35937 1.03125Zm0 0"/><path id="m" d="M.82813-4.96875C.82813-1.90625 2.42188.25 5.09375.25c.78125 0 1.89063-.40625 3.04688-1.29687V0h4.51562v-.8125c-1.20312-.0625-1.35937-.15625-1.35937-1.03125v-13.64062l-.14063-.14063-4.28125.5625v.76563l.75.10937c.32813.07813.51563.25.51563 1.10938v2.76562c-.48438-.20312-1.07813-.26562-1.79688-.26562-1.57812 0-2.98437.46875-3.95312 1.375C1.40625-8.29687.82813-6.875.82813-4.96875m3.34375-.4375c0-3.07812 1.15625-4.20312 2.34375-4.20312.8125 0 1.23437.42187 1.4375.84375.20312.3125.1875.76562.1875 1.21875v4.34375c0 .84375-.32813 1.84375-1.67188 1.84375-1.35937 0-2.29687-1.35938-2.29687-4.04688m0 0"/><path id="o" d="m1.01563-4.75.32812 3.76563C2.42188 0 4.5.3125 5.89063.3125c4.21875-.04687 5.45312-2.3125 5.45312-4.5 0-2.78125-2.04687-3.85937-3.96875-4.65625-1.39062-.59375-3.15625-1.34375-3.15625-2.9375 0-1.32812.9375-2.14062 2.1875-2.14062 1.34375 0 2.64063.95312 3.23438 3.40625h.75v-3.4375c-1.09375-.67188-2.6875-.95313-3.95313-.95313-3.5625 0-5.25 1.84375-5.25 4.32813 0 2.625 2.32813 3.75 4.1875 4.53125 1.92188.79687 2.79688 1.75 2.79688 3.09375-.01563 1.5625-1 2.29687-2.375 2.29687-1.57813 0-3.20313-1.45312-4-4.09375Zm0 0"/><path id="p" d="M1.59375-13.32812c0 1 .71875 1.85937 1.90625 1.85937 1.15625 0 1.96875-.85937 1.96875-1.85937 0-.98438-.76562-1.84375-1.96875-1.84375-1.1875 0-1.90625.85937-1.90625 1.84375M.67188 0h5.9375v-.8125C5.40625-.875 5.20313-.96875 5.20313-1.84375v-8.59375l-.10938-.14062-4.3125.60937v.76563l.75.10937c.32813.04688.5.20313.5 1.04688v6.20312c0 .875-.15625.96875-1.35937 1.03125Zm0 0"/><path id="q" d="M.67188 2.01563c0 2.04687 2.20312 3.07812 5.20312 3.07812.92188 0 2.4375-.1875 3.48438-.76562 1.17187-.60938 1.95312-1.70313 1.95312-3.23438 0-2.53125-1.95312-3.3125-4.17187-3.3125h-1.9375c-1.03125 0-1.42188-.32812-1.42188-.71875 0-.46875.54688-.6875.82813-.76562.40625.04687.71875.03125.96875.03125 2.48437 0 4.73437-.90625 4.73437-3.40625 0-.625-.25-1.28125-.51562-1.64063l1.39062-.25.42188-1.57812-.20313-.23438-2.67187.90625c-.6875-.40625-1.85938-.70312-3-.70312-3.78125 0-4.90625 1.95312-4.90625 3.59375 0 1.73437 1.29687 2.79687 2.57812 3v.04687C2.03125-3.60937 1.14063-2.84375 1.14063-2c0 .92188 1.03125 1.78125 1.95312 1.98438v.03125c-.875.20312-2.42187.59375-2.42187 2m2.79687-.20313c0-.57812.26563-.96875.5625-1.15625.29688-.20312.9375-.3125 1.85938-.3125 1.79687 0 2.875.39063 2.875 1.67188 0 1.5-1.17188 2.10937-2.57813 2.10937-1.42187 0-2.71875-.8125-2.71875-2.3125m.65625-8.875c0-1.78125.73438-2.54687 1.59375-2.54687.82813 0 1.57813.76562 1.57813 2.53125 0 1.5-.64063 2.4375-1.60938 2.4375-.89062 0-1.5625-.96875-1.5625-2.42188m0 0"/><path id="r" d="M.67188 0H6.3125v-.8125l-.39062-.03125c-.45313-.04687-.71875-.125-.71875-.8125v-5.01562c0-.46875.07812-.95313.23437-1.23438.28125-.54687.84375-1.0625 1.70313-1.0625 1.07812 0 1.64062.67188 1.6875 1.9375v5.375c0 .6875-.21875.76563-.67188.8125l-.45312.03125V0H13.375v-.8125c-1.20312-.0625-1.39062-.15625-1.39062-1.03125v-5.48437c-.01563-1.96875-.98438-3.25-3.15625-3.25-1.23438 0-2.23438.625-3.625 1.45312l-.28125-1.45312-4.14063.60937v.76563l.75.10937c.32813.04688.5.20313.5 1.04688v6.20312c0 .875-.15625.96875-1.35937 1.03125Zm0 0"/><path id="n" d="M.67188-.82812c0 .60937.5 1.07812 1.34375 1.07812C3.45313.25 4.25-1.1875 5.125-2.59375l.85938-1.39062h.04687l.375 1.65625C6.8125-.65625 7.1875.25 8.26563.25 9.8125.25 10.625-1.34375 11.25-2.625l-.54687-.28125c-.51563.9375-1.09375 2.0625-1.67188 2.0625-.40625 0-.5625-.48437-1.03125-2.35937l-.67187-2.75c.76562-1.34375 1.84375-3.03125 2.4375-3.03125.625 0 .65625.32812 1.28125.32812.46875 0 .89062-.4375.89062-1 0-.65625-.48437-.92187-1.07812-.92187C9.75-10.57812 8.8125-9.5625 8.0625-8.375l-.92187 1.42188h-.03125L6.25-10.48437l-.10937-.09375-3.46875 1.0625L2.71875-9 4.375-9.125c.32813 0 .48438.15625.6875 1.0625l.73438 3.04688-.57813 1c-.89062 1.54687-1.67187 2.65625-2.1875 2.65625-.60937 0-.76562-.51563-1.4375-.51563-.54687 0-.92187.53125-.92187 1.04688m0 0"/><path id="s" d="M.5625-.20312.78125 0H9.5l.71875-2.78125-.57812-.10937C9.1875-1.75 8.76563-1.59375 7.90625-1.59375h-5.375C2.875-2.6875 4.125-4.1875 6.07813-5.60937 8.09375-7.07812 9.65625-8.01562 9.65625-10.375c0-2.9375-1.95312-3.9375-4.17187-3.9375-2.89063 0-4.35938 1.75-4.35938 2.84375 0 .71875.79688 1.04688 1.15625 1.04688.39063 0 .51563-.21875.60938-.57813.32812-1.4375 1.17187-2.57812 2.46875-2.57812 1.60937 0 2.07812 1.34375 2.07812 2.89062 0 2.26563-1.14062 3.54688-2.98437 5.15625C1.85938-3.26562.96875-1.84375.5625-.20312m0 0"/><path id="t" d="M1.79688-5.32812h5.17187v5.17187h1.23438v-5.17187H13.375V-6.5625H8.20313v-5.17187H6.96875v5.17187H1.79688Zm0 0"/><path id="u" d="m.40625-4.21875.17188.45313H6.3125v2.15625c0 .71875-.21875.82812-.73437.875l-1.34375.125V0h5.5625v-.60937l-.95313-.10938c-.48437-.0625-.625-.17187-.625-.89062v-2.15625H10.375V-4.75H8.21875v-9.32812H6.67188C4.70313-11.15625 2.32813-7.5.40625-4.21875M1.92188-4.75C3.1875-7.03125 4.70313-9.48437 6.3125-12.03125V-4.75Zm0 0"/><path id="z" d="M1.79688-5.32812H13.375V-6.5625H1.79688Zm0 0"/><path id="A" d="M.34375-4.45312c0 2.5 2.48438 4.67187 4.8125 4.67187C8.10938.21875 10-2.73437 10.35938-3.3125 10.75-2.54687 12.79688.25 16.0625.25c3.90625 0 5.01563-2.96875 5.01563-5.45312 0-2.5-2.34376-4.5-4.67188-4.5-2.8125 0-4.32812 2.01562-5.21875 3.25-.82812-1.34375-2.67187-3.20313-5.57812-3.20313-3.84375 0-5.26563 2.70313-5.26563 5.20313m1.3125.0625c0-2.10938 1.48438-3.76563 3.25-3.76563 2.10938 0 3.875 2.21875 4.85938 3.78125C8.96875-2.9375 7.46875-.73437 5.09375-.73437c-1.53125 0-3.4375-1.75-3.4375-3.65625m10.125-1.125c.8125-1.4375 2.32813-3.20313 4.70313-3.20313 1.53124 0 3.375 1.53125 3.375 3.4375 0 2.125-1.15626 4.07813-3.1875 4.07813-2.17188 0-3.90626-2.42188-4.89063-4.3125m0 0"/><path id="D" d="M.875-7.03125C.875-2.82812 2.10938.25 5.57813.25s4.73437-3.07812 4.73437-7.28125c0-4.21875-1.26562-7.28125-4.73437-7.28125S.875-11.25.875-7.03125m2.125 0c0-3.4375.57813-6.54687 2.57813-6.54687s2.57812 3.10937 2.57812 6.54687C8.15625-3.60937 7.57813-.5 5.57813-.5S3-3.60937 3-7.03125m0 0"/><clipPath id="a"><path d="M.10156 63H256v64.88672H.10156Zm0 0"/></clipPath><clipPath id="b"><path d="M255 0h446.69531v64H255Zm0 0"/></clipPath><clipPath id="c"><path d="M255 0h446.69531v65H255Zm0 0"/></clipPath><clipPath id="d"><path d="M255 63h446.69531v64.88672H255Zm0 0"/></clipPath><clipPath id="e"><path d="M.10156 0H256v64H.10156Zm0 0"/></clipPath><clipPath id="f"><path d="M.10156 0H256v65H.10156Zm0 0"/></clipPath><clipPath id="v"><path d="M.10156 63h701.59375v2H.10156Zm0 0"/></clipPath><clipPath id="w"><path d="M.10156 127h701.59375v.88672H.10156Zm0 0"/></clipPath><clipPath id="x"><path d="M.10156 0h701.59375v127.88672H.10156Zm0 0"/></clipPath><clipPath id="y"><path d="M255 0h1v127.88672h-1Zm0 0"/></clipPath><clipPath id="B"><path d="M255 63h446.69531v64.88672H255Zm0 0"/></clipPath><clipPath id="C"><path d="M478 63h1v64.88672h-1Zm0 0"/></clipPath></defs><g clip-path="url(#a)"><path fill="#FFF" stroke="#000" stroke-miterlimit="10" stroke-width=".39832" d="M.30078 63.94534v63.74613h254.9845V63.94534Zm0 0"/></g><g clip-path="url(#b)"><path fill="#FFF" d="M255.28516 63.94531V.19921H701.5039v63.7461Zm0 0"/></g><g clip-path="url(#c)"><path fill="none" stroke="#000" stroke-miterlimit="10" stroke-width=".39832" d="M255.28528 63.94534V.19922h446.21898v63.74612Zm0 0"/></g><g clip-path="url(#d)"><path fill="#FFF" stroke="#000" stroke-miterlimit="10" stroke-width=".39832" d="M255.28528 63.94534v63.74613h446.21898V63.94534Zm0 0"/></g><g clip-path="url(#e)"><path fill="#FFF" d="M.30078.19922v63.7461h254.98438V.19921Zm0 0"/></g><g clip-path="url(#f)"><path fill="none" stroke="#000" stroke-miterlimit="10" stroke-width=".39832" d="M.30078.19922v63.74612h254.9845V.19922Zm0 0"/></g><use xlink:href="#g" x="69.50619" y="39.7566"/><use xlink:href="#h" x="81.80715" y="39.7566"/><use xlink:href="#i" x="93.48075" y="39.7566"/><use xlink:href="#j" x="100.20259" y="39.7566"/><use xlink:href="#k" x="111.31603" y="39.7566"/><use xlink:href="#l" x="124.78212" y="39.7566"/><use xlink:href="#m" x="141.72115" y="39.7566"/><use xlink:href="#j" x="154.64949" y="39.7566"/><use xlink:href="#n" x="173.23753" y="39.7566"/><use xlink:href="#o" x="51.3049" y="101.08176"/><use xlink:href="#p" x="63.09053" y="101.08176"/><use xlink:href="#q" x="69.96921" y="101.08176"/><use xlink:href="#r" x="81.39634" y="101.08176"/><use xlink:href="#j" x="95.04167" y="101.08176"/><use xlink:href="#m" x="113.61636" y="101.08176"/><use xlink:href="#j" x="126.5447" y="101.08176"/><use xlink:href="#s" x="145.13383" y="101.08176"/><use xlink:href="#n" x="156.29209" y="101.08176"/><use xlink:href="#t" x="173.79128" y="101.08176"/><use xlink:href="#u" x="193.10536" y="101.08176"/><g clip-path="url(#v)"><path fill="none" stroke="#000" stroke-miterlimit="10" stroke-width=".39832" d="M.30078 63.94534h701.20348"/></g><g clip-path="url(#w)"><path fill="none" stroke="#000" stroke-miterlimit="10" stroke-width=".39832" d="M.30078 127.69147h701.20348"/></g><g clip-path="url(#x)"><path fill="none" stroke="#000" stroke-miterlimit="10" stroke-width=".39832" d="M.30078.19922v127.49225h701.20348V.19922Zm0 0"/></g><g clip-path="url(#y)"><path fill="none" stroke="#000" stroke-miterlimit="10" stroke-width=".39832" d="M255.28528.19922v127.49225"/></g><use xlink:href="#z" x="268.85293" y="36.79889"/><use xlink:href="#A" x="283.99948" y="36.79889"/><use xlink:href="#z" x="465.27296" y="39.23083"/><use xlink:href="#s" x="480.41951" y="39.23083"/><use xlink:href="#t" x="651.36351" y="37.81845"/><use xlink:href="#A" x="666.51006" y="37.81845"/><g clip-path="url(#B)"><path fill="none" stroke="#000" stroke-miterlimit="10" stroke-width=".39832" d="M255.28528 63.94534v63.74613h446.21898V63.94534Zm0 0"/></g><use xlink:href="#z" x="375.11542" y="99.07863"/><g clip-path="url(#C)"><path fill="none" stroke="#000" stroke-dasharray="2.9875149148 2.9875149148" stroke-miterlimit="10" stroke-width=".39832" d="M478.39477 63.94534v63.74613"/></g><use xlink:href="#D" x="472.75768" y="102.84199"/><use xlink:href="#t" x="566.30874" y="101.6665"/></svg>