<svg xmlns="http://www.w3.org/2000/svg" xmlns:xlink="http://www.w3.org/1999/xlink" width="319.694" height="319.694" viewBox="0 0 319.694 319.694"><defs><path id="b" d="M1.60938-4.79687h10.42187v-1.10938H1.60938Zm0 0"/><path id="c" d="M.5-.1875.70313 0h7.84375l.64062-2.5-.51562-.09375C8.26563-1.57812 7.875-1.4375 7.10938-1.4375H2.28125c.29688-.98437 1.42188-2.32812 3.1875-3.59375C7.28125-6.375 8.6875-7.21875 8.6875-9.32812c0-2.64063-1.75-3.54688-3.75-3.54688C2.34375-12.875 1-11.3125 1-10.3125c0 .64063.73438.9375 1.0625.9375.34375 0 .45313-.20312.53125-.51562.3125-1.29688 1.04688-2.32813 2.21875-2.32813 1.45313 0 1.875 1.21875 1.875 2.60938 0 2.03125-1.03125 3.17187-2.67187 4.625C1.67188-2.9375.85938-1.65625.5-.1875m0 0"/><path id="d" d="M2.0625 0h6.21875v-.54687L6.6875-.6875c-.40625-.03125-.625-.17187-.625-.92187v-11.17188l-.09375-.09375-3.90625.65625v.46875l1.76563.21875c.32812.04688.4375.1875.4375.73438v9.1875c0 .75-.17188.89062-.625.92187L2.0625-.54687Zm0 0"/><path id="e" d="M.5-1.9375C.5-1.125 1.8125.21875 4.5.21875c2.73438 0 4.46875-1.39062 4.46875-3.8125 0-2.53125-2.17187-3.28125-3.21875-3.375v-.07812c1.01563-.17188 2.65625-.9375 2.65625-2.8125 0-2.09375-1.64062-3.01563-3.67187-3.01563-2.5 0-3.73438 1.45313-3.73438 2.25 0 .59375.67188.90625.9375.90625.23438 0 .375-.14062.46875-.375.42188-1.29687 1.125-2.125 2.1875-2.125 1.5 0 1.875 1.3125 1.875 2.375 0 1.14063-.40625 2.5625-2.01562 2.5625-.90625 0-1.4375-.17187-1.65625-.17187-.23438 0-.34375.17187-.34375.51562 0 .32813.10937.53125.34375.53125.21875 0 .75-.1875 1.65625-.1875 1.60937 0 2.51562 1.45313 2.51562 3.10938 0 2.25-1.10937 3.04687-2.45312 3.04687-1.25 0-2.07813-.9375-2.4375-2-.125-.35937-.29688-.54687-.5625-.54687C1.17188-2.98437.5-2.625.5-1.9375m0 0"/><path id="f" d="M.78125-6.32812c0 3.78125 1.10938 6.54687 4.23438 6.54687s4.25-2.76562 4.25-6.54687c0-3.79688-1.125-6.54688-4.25-6.54688S.78125-10.125.78125-6.32812m1.92188 0c0-3.07813.51562-5.89063 2.3125-5.89063 1.79687 0 2.32812 2.8125 2.32812 5.89063S6.8125-.4375 5.01563-.4375 2.70313-3.25 2.70313-6.32812m0 0"/><path id="i" d="M.6875-10.5c0 1.82813 1.84375 3.29688 6.04688 3.29688-.6875 1.21875-1.20313 2.5-1.20313 3.89062C5.53125-1 6.98438.25 9.625.25c2.57813 0 5.26563-1.85937 5.26563-4.26562 0-1.42188-1.1875-2.20313-2.6875-2.20313-1.65625 0-3.60938 1.85938-3.60938 3.32813 0 .45312.34375 1.29687.96875 1.29687.17188 0 .42188-.125.42188-.32812 0-.26563-.48438-.29688-.48438-.9375 0-1.03125 1.5-2.6875 2.70313-2.6875.84375 0 1.35937.32812 1.35937 1.15625 0 1.85937-1.78125 3.96875-3.9375 3.96875-1.51562 0-2.29687-.82813-2.29687-2.21875 0-1.5625 1.09375-3.40625 1.92187-4.75 4.67188-.71875 9.26563-3.01563 9.26563-5.95313 0-1.125-.89063-1.85937-2.10938-1.85937-2.76562 0-6.95312 3.5625-9.26562 7.25-1.90625-.01563-4.98438-.0625-4.98438-2.29688 0-2.0625 2.5-3.65625 4.0625-3.65625.29688 0 .45313-.17187.45313-.35937 0-.17188-.15625-.3125-.32813-.3125C3.98438-14.57812.6875-12.98437.6875-10.5m8.98438 2.28125c1.54687-2.70312 4.8125-6.3125 6.73437-6.3125.75 0 1.26563.42188 1.26563 1.125 0 2.34375-3.70313 4.5-8 5.1875m0 0"/><path id="j" d="M-.3125 2.65625c.01563.51563.64063.90625 1.4375.90625 1.54688 0 2.25-1.23437 2.85938-4l1.375-6.17187h1.84375l.15625-.60938H5.45313l.4375-1.79687c.25-.98438.5-1.35938.85937-1.35938.34375 0 .59375.28125.9375 1.03125.09375.15625.23438.29688.48438.29688.34375 0 .79687-.29688.79687-.70313 0-.64062-.8125-1.17187-1.79687-1.17187-1.84375 0-2.59375 1.32812-3.125 3.21875l-.14063.48437H2.64063l-.20313.60938h1.32813L2.03125 2.125C1.89063 2.89063 1.75 3 1.60938 3c-.15626 0-.39063-.14062-.76563-.76562C.73438 2.07813.625 1.875.40625 1.875c-.35937 0-.71875.375-.71875.78125m0 0"/><clipPath id="a"><path d="M0 0h319.38672v319.38672H0Zm0 0"/></clipPath><clipPath id="g"><path d="M159 0h2v319.38672h-2Zm0 0"/></clipPath><clipPath id="h"><path d="M.39453 20H318.9922v298.99219H.39453Zm0 0"/></clipPath></defs><g clip-path="url(#a)"><path fill="none" stroke="#000" stroke-miterlimit="10" stroke-opacity=".5" stroke-width=".39812" d="M.3945 287.13283h318.59773M.39449 223.41406h318.59774M.39449 159.6914h318.59774M.39449 95.97262h318.59774M.39449 32.25386h318.59774M32.25387 318.9922V.39448M95.97655 318.9922V.39448M159.6953 318.9922V.39448m63.71877 318.59773V.39448m63.71876 318.59773V.39448"/></g><path fill="none" stroke="#000" stroke-miterlimit="10" stroke-opacity=".5" stroke-width=".39812" d="M32.25387 207.48047v31.86328"/><g fill-opacity=".5"><use xlink:href="#b" x="20.42645" y="245.78175"/><use xlink:href="#c" x="34.05127" y="245.78175"/></g><path fill="none" stroke="#000" stroke-miterlimit="10" stroke-opacity=".5" stroke-width=".39812" d="M95.97655 207.48047v31.86328"/><g fill-opacity=".5"><use xlink:href="#b" x="84.14446" y="245.78175"/><use xlink:href="#d" x="97.76928" y="245.78175"/></g><path fill="none" stroke="#000" stroke-miterlimit="10" stroke-opacity=".5" stroke-width=".39812" d="M223.41408 207.48047v31.86328"/><use xlink:href="#d" x="218.39396" y="245.78175" fill-opacity=".5"/><path fill="none" stroke="#000" stroke-miterlimit="10" stroke-opacity=".5" stroke-width=".39812" d="M287.13284 207.48047v31.86328"/><use xlink:href="#c" x="282.11297" y="245.78175" fill-opacity=".5"/><path fill="none" stroke="#000" stroke-miterlimit="10" stroke-opacity=".5" stroke-width=".39812" d="M175.625 287.13283h-31.85938"/><g fill-opacity=".5"><use xlink:href="#b" x="125.56182" y="293.57"/><use xlink:href="#d" x="139.18664" y="293.57"/></g><path fill="none" stroke="#000" stroke-miterlimit="10" stroke-opacity=".5" stroke-width=".39812" d="M175.625 159.69139h-31.85938"/><use xlink:href="#d" x="132.3743" y="166.13298" fill-opacity=".5"/><path fill="none" stroke="#000" stroke-miterlimit="10" stroke-opacity=".5" stroke-width=".39812" d="M175.625 95.97262h-31.85938"/><use xlink:href="#c" x="132.3743" y="102.41497" fill-opacity=".5"/><path fill="none" stroke="#000" stroke-miterlimit="10" stroke-opacity=".5" stroke-width=".39812" d="M175.625 32.25386h-31.85938"/><use xlink:href="#e" x="132.3743" y="38.58607" fill-opacity=".5"/><path fill="none" stroke="#000" stroke-miterlimit="10" stroke-opacity=".5" stroke-width=".39812" d="M159.69531 207.48047v31.86328"/><use xlink:href="#f" x="132.3743" y="252.04275" fill-opacity=".5"/><path fill="none" stroke="#000" stroke-miterlimit="10" stroke-width=".79624" d="M.3945 223.41406h317.80085"/><path fill="none" stroke="#000" stroke-linecap="round" stroke-linejoin="round" stroke-miterlimit="10" stroke-width=".79624" d="M316.04687 220.30469c.46485 1.86328 1.50391 2.7461 2.54688 3.10937-1.04297.35938-2.08203 1.2422-2.54688 3.10547"/><g clip-path="url(#g)"><path fill="none" stroke="#000" stroke-miterlimit="10" stroke-width=".79624" d="M159.69531 318.99221V1.19135"/></g><path fill="none" stroke="#000" stroke-linecap="round" stroke-linejoin="round" stroke-miterlimit="10" stroke-width=".79624" d="M156.58594 3.33984c1.86328-.46484 2.7461-1.5039 3.10937-2.54687.36328 1.04297 1.24219 2.08203 3.10547 2.54687"/><g clip-path="url(#h)"><path fill="none" stroke="#007F7F" stroke-miterlimit="10" stroke-width=".79624" d="M.3945 318.99221s18.59765 7.92188 31.85937-31.85938C45.5156 247.34766 69.4531 32.25386 95.97655 32.25386c26.51953 0 100.91408 237.19537 127.43753 254.87897 26.52344 17.6797 32.77735-123.01956 63.71876-127.44144 30.94142-4.41797 159.29692 95.58206 159.29692 95.58206"/></g><use xlink:href="#i" x="66.41843" y="133.79094" fill="#007F7F"/><use xlink:href="#j" x="83.59648" y="138.71822" fill="#007F7F"/></svg>