<svg xmlns="http://www.w3.org/2000/svg" xmlns:xlink="http://www.w3.org/1999/xlink" width="392.822pt" height="511.033pt" viewBox="0 0 392.822 511.033"><defs><path id="b" d="M2.04688 0h6.23437v-.54687L6.6875-.6875c-.40625-.03125-.625-.17187-.625-.92187v-11.15625l-.09375-.10938-3.92187.67188v.46875l1.78125.21875c.32812.03125.4375.17187.4375.71875v9.1875c0 .75-.17188.89062-.625.92187l-1.59375.14063Zm0 0"/><path id="c" d="M.5-.1875.70313 0h7.84375l.64062-2.5-.53125-.09375C8.25-1.57812 7.875-1.4375 7.10938-1.4375H2.28125c.29688-.98437 1.42188-2.32812 3.17188-3.59375C7.26563-6.35937 8.6875-7.20312 8.6875-9.32812c0-2.64063-1.76562-3.54688-3.75-3.54688C2.34375-12.875 1-11.29687 1-10.3125c0 .64063.73438.95313 1.04688.95313.34375 0 .46875-.20313.54687-.53125.3125-1.28125 1.04688-2.3125 2.21875-2.3125 1.45313 0 1.875 1.20312 1.875 2.59375 0 2.03125-1.03125 3.1875-2.67187 4.64062C1.67188-2.9375.85938-1.65625.5-.1875m0 0"/><path id="d" d="M.5-1.9375C.5-1.125 1.8125.21875 4.48438.21875c2.75 0 4.48437-1.39062 4.48437-3.79687 0-2.54688-2.1875-3.29688-3.23437-3.39063v-.07812c1.03125-.15625 2.67187-.92188 2.67187-2.79688 0-2.09375-1.64062-3.03125-3.67187-3.03125C2.23438-12.875 1-11.42187 1-10.60937c0 .57812.67188.90625.9375.90625.23438 0 .375-.14063.45313-.39063.42187-1.28125 1.14062-2.10937 2.20312-2.10937 1.48438 0 1.875 1.3125 1.875 2.375 0 1.125-.40625 2.5625-2.01562 2.5625-.90625 0-1.4375-.1875-1.65625-.1875-.23438 0-.34375.1875-.34375.53125 0 .3125.10937.51562.34375.51562.21875 0 .75-.1875 1.65625-.1875 1.60937 0 2.51562 1.45313 2.51562 3.10938 0 2.25-1.10937 3.04687-2.45312 3.04687-1.25 0-2.07813-.9375-2.4375-2-.125-.35937-.3125-.54687-.5625-.54687C1.17188-2.98437.5-2.625.5-1.9375m0 0"/><path id="e" d="m.35938-3.78125.17187.39063h5.14063v1.9375c0 .64062-.1875.75-.65625.78125l-1.20313.125V0h4.98438v-.54687l-.84375-.09376c-.4375-.0625-.5625-.17187-.5625-.8125v-1.9375h1.9375v-.875h-1.9375v-8.375H6C4.23438-10.03124 2.09375-6.75.35938-3.78124m1.375-.48437c1.125-2.0625 2.5-4.25 3.9375-6.54688v6.54688Zm0 0"/><path id="f" d="M.76563-1.9375c0 .875 1.32812 2.15625 3.78125 2.15625 3.125 0 4.53125-1.89062 4.53125-4.28125 0-2.67187-1.64063-4.01562-3.90625-4.01562-1.04688 0-2.1875.46875-2.79688 1.01562l.42188-3.59375c.0625-.48437.1875-.54687.54687-.54687H8.0625l.45313-1.28125-.09375-.15625H2.09375l-.1875.17187-.375 6.32813L2-5.90625C2.78125-6.8125 3.54688-7.25 4.57813-7.25c1.20312 0 2.53125.89063 2.53125 3.39063 0 1.95312-.78125 3.42187-2.4375 3.42187-1.32813 0-2-.95312-2.375-2.04687-.09375-.28125-.28125-.45313-.54688-.45313-.375 0-.98437.375-.98437 1m0 0"/><path id="g" d="M1.60938-4.79687h10.42187v-1.10938H1.60938Zm0 0"/><path id="h" d="M.78125-6.32812c0 3.79687 1.10938 6.54687 4.23438 6.54687s4.25-2.75 4.25-6.54687c0-3.78125-1.125-6.54688-4.25-6.54688S.78125-10.10937.78125-6.32812m1.92188 0c0-3.07813.51562-5.875 2.3125-5.875 1.79687 0 2.3125 2.79687 2.3125 5.875S6.8125-.4375 5.01563-.4375c-1.79688 0-2.3125-2.8125-2.3125-5.89062m0 0"/><path id="l" d="M.6875-10.5c0 1.84375 1.84375 3.29688 6.04688 3.29688-.6875 1.23437-1.20313 2.5-1.20313 3.89062C5.53125-1 6.98438.25 9.625.25c2.5625 0 5.25-1.85937 5.25-4.25 0-1.4375-1.1875-2.21875-2.6875-2.21875-1.65625 0-3.59375 1.85938-3.59375 3.32813 0 .45312.32813 1.29687.95313 1.29687.1875 0 .4375-.125.4375-.32812 0-.26563-.5-.29688-.5-.9375 0-1.03125 1.5-2.6875 2.70312-2.6875.85938 0 1.375.32812 1.375 1.15625 0 1.85937-1.79687 3.96875-3.9375 3.96875-1.53125 0-2.3125-.82813-2.3125-2.21875 0-1.5625 1.09375-3.40625 1.92188-4.75 4.6875-.70313 9.26562-3.01563 9.26562-5.9375 0-1.125-.89062-1.85938-2.09375-1.85938-2.78125 0-6.96875 3.54688-9.26562 7.25-1.90625-.03125-5-.07812-5-2.3125 0-2.0625 2.51562-3.64062 4.07812-3.64062.29688 0 .45313-.1875.45313-.35938 0-.1875-.15625-.3125-.34375-.3125C3.98438-14.5625.6875-12.98437.6875-10.5m8.98438 2.28125c1.53125-2.70312 4.8125-6.29687 6.73437-6.29687.73438 0 1.25.42187 1.25 1.10937 0 2.35938-3.6875 4.5-7.98437 5.1875m0 0"/><path id="m" d="M-.3125 2.64063c.01563.51562.64063.90625 1.4375.90625 1.53125 0 2.23438-1.21875 2.85938-3.98438l1.375-6.17187h1.84375l.15625-.60938H5.45313L5.89063-9c.25-.98437.5-1.35937.85937-1.35937.34375 0 .59375.28125.9375 1.03125.09375.15625.21875.29687.46875.29687.34375 0 .79688-.29687.79688-.70312 0-.64063-.8125-1.17188-1.78125-1.17188-1.84375 0-2.59375 1.32813-3.125 3.20313l-.15625.48437H2.625l-.1875.60938H3.75L2.03125 2.125c-.14062.75-.28125.85938-.42187.85938-.15626 0-.39063-.14063-.76563-.75C.73438 2.07813.625 1.875.40625 1.875c-.35937 0-.71875.375-.71875.76563m0 0"/><path id="o" d="M.46875 1.4375c0 1.28125 1.375 2.10938 3.29688 2.10938 2.09375 0 3.6875-.84375 3.6875-2.46875 0-1.15625-.90625-1.9375-2.59375-2.32813-1.28125-.3125-1.79688-.48437-1.79688-.875 0-.28125.26563-.45312.59375-.54687.32813.04687.59375.04687.82813.04687C6.54688-2.625 7.75-3.71875 7.75-5.26562 7.75-5.65625 7.64063-6 7.46875-6.25l1.1875-.1875.48438-.96875-.09375-.125-2.125.57813c-.40625-.25-1.15625-.4375-1.875-.4375-2.51563 0-3.26563 1.57812-3.26563 2.70312 0 1.04688.79688 1.70313 1.28125 1.85938-.53125.1875-1.4375.54687-1.4375 1.15625 0 .51562.60938.95312 1.125 1.14062C1.75-.375.46875.21875.46875 1.4375M2 1.29688C2 .26563 2.875-.1875 3.42188-.28126c.92187.125 2.625.5 2.625 1.71875C6.04688 2.53125 5.14063 3 4.125 3 2.92188 3 2 2.34375 2 1.29688m1.375-5.70313c0-.95312.46875-2.42187 1.76563-2.42187.42187 0 1.09375.20312 1.09375 1.14062 0 1.34375-.6875 2.5-1.71875 2.5-.75 0-1.14063-.51562-1.14063-1.21875m0 0"/><clipPath id="a"><path d="M9 0h383.36328v510H9Zm0 0"/></clipPath><clipPath id="i"><path d="M374 337h18.36328v27H374Zm0 0"/></clipPath><clipPath id="j"><path d="M41 6h2v504.0664h-2Zm0 0"/></clipPath><clipPath id="k"><path d="M10.01172.39453h381.95703V448H10.01172Zm0 0"/></clipPath><clipPath id="n"><path d="M10.01172 189h381.95703v274H10.01172Zm0 0"/></clipPath></defs><g clip-path="url(#a)"><path fill="none" stroke="#000" stroke-miterlimit="10" stroke-opacity=".5" stroke-width=".39775" d="M10.01173 477.8437h381.9569m-381.9569-63.66013h381.9569m-381.9569-63.66013h381.9569M10.01173 286.8633h381.9569m-381.9569-63.66013h381.9569m-381.9569-63.66014h381.9569M10.01173 95.8829h381.9569M10.01173 32.22276h381.9569M41.83984 509.67182V.39465m63.66014 509.27717V.39465m63.66013 509.27717V.39465m63.66014 509.27717V.39465m63.66013 509.27717V.39465m63.66014 509.27717V.39465"/></g><path fill="none" stroke="#000" stroke-miterlimit="10" stroke-opacity=".5" stroke-width=".39775" d="M105.49998 334.60938v31.82812"/><use xlink:href="#b" x="100.48552" y="372.87044" fill-opacity=".5"/><path fill="none" stroke="#000" stroke-miterlimit="10" stroke-opacity=".5" stroke-width=".39775" d="M169.16011 334.60938v31.82812"/><use xlink:href="#c" x="164.14406" y="372.87044" fill-opacity=".5"/><path fill="none" stroke="#000" stroke-miterlimit="10" stroke-opacity=".5" stroke-width=".39775" d="M232.82025 334.60938v31.82812"/><use xlink:href="#d" x="227.8036" y="372.75965" fill-opacity=".5"/><path fill="none" stroke="#000" stroke-miterlimit="10" stroke-opacity=".5" stroke-width=".39775" d="M296.48038 334.60938v31.82812"/><use xlink:href="#e" x="291.46214" y="372.75965" fill-opacity=".5"/><path fill="none" stroke="#000" stroke-miterlimit="10" stroke-opacity=".5" stroke-width=".39775" d="M360.14052 334.60938v31.82812"/><use xlink:href="#f" x="355.12168" y="372.64886" fill-opacity=".5"/><path fill="none" stroke="#000" stroke-miterlimit="10" stroke-opacity=".5" stroke-width=".39775" d="M57.7539 477.8437H25.9258"/><g fill-opacity=".5"><use xlink:href="#g" x="7.73901" y="484.27364"/><use xlink:href="#c" x="21.35112" y="484.27364"/></g><path fill="none" stroke="#000" stroke-miterlimit="10" stroke-opacity=".5" stroke-width=".39775" d="M57.7539 414.18357H25.9258"/><g fill-opacity=".5"><use xlink:href="#g" x="7.73901" y="420.61509"/><use xlink:href="#b" x="21.35112" y="420.61509"/></g><path fill="none" stroke="#000" stroke-miterlimit="10" stroke-opacity=".5" stroke-width=".39775" d="M57.7539 286.8633H25.9258"/><use xlink:href="#b" x="14.54514" y="293.29701" fill-opacity=".5"/><path fill="none" stroke="#000" stroke-miterlimit="10" stroke-opacity=".5" stroke-width=".39775" d="M57.7539 223.20317H25.9258"/><use xlink:href="#c" x="14.54514" y="229.63747" fill-opacity=".5"/><path fill="none" stroke="#000" stroke-miterlimit="10" stroke-opacity=".5" stroke-width=".39775" d="M57.7539 159.54303H25.9258"/><use xlink:href="#d" x="14.54514" y="165.86814" fill-opacity=".5"/><path fill="none" stroke="#000" stroke-miterlimit="10" stroke-opacity=".5" stroke-width=".39775" d="M57.7539 95.8829H25.9258"/><use xlink:href="#e" x="14.54514" y="102.2086" fill-opacity=".5"/><path fill="none" stroke="#000" stroke-miterlimit="10" stroke-opacity=".5" stroke-width=".39775" d="M57.7539 32.22276H25.9258"/><use xlink:href="#f" x="14.54514" y="38.43926" fill-opacity=".5"/><path fill="none" stroke="#000" stroke-miterlimit="10" stroke-opacity=".5" stroke-width=".39775" d="M41.83984 334.60938v31.82812"/><use xlink:href="#h" x="14.54514" y="379.1266" fill-opacity=".5"/><path fill="none" stroke="#000" stroke-miterlimit="10" stroke-width=".7955" d="M10.01173 350.52344h375.79284"/><path d="M389.96094 350.52344c-.51172-.10547-2.7539-.70703-4.15625-1.36328v2.72265c1.40234-.65234 3.64453-1.2539 4.15625-1.35937m0 0"/><g clip-path="url(#i)"><path fill="none" stroke="#000" stroke-miterlimit="10" stroke-width=".7955" d="M389.96094 350.52344c-.51172-.10547-2.75391-.70703-4.15625-1.36328v2.72265c1.40234-.65234 3.64453-1.2539 4.15625-1.35937Zm0 0"/></g><g clip-path="url(#j)"><path fill="none" stroke="#000" stroke-miterlimit="10" stroke-width=".7955" d="M41.83984 509.67182V6.55871"/></g><path stroke="#000" stroke-miterlimit="10" stroke-width=".7955" d="M41.83984 2.40235c-.10547.51171-.70703 2.7539-1.35937 4.15624h2.72265c-.65625-1.40234-1.2578-3.64453-1.36328-4.15624Zm0 0"/><g clip-path="url(#k)"><path fill="none" stroke="#007F7F" stroke-miterlimit="10" stroke-width=".7955" d="M10.01173-570.95282S21.50782-469.7224 25.92579-424.2771s11.5 130.66793 15.91405 180.8515c4.41797 50.18749 11.5 135.41012 15.91406 180.85541 4.41797 45.4453 11.5 110.30075 15.91796 146.67574 4.41406 36.37498 11.4961 87.35153 15.91406 115.48433 4.41406 28.1328 11.5 66.55467 15.91406 87.27341 4.41797 20.71875 11.5 47.91795 15.91406 62.05076 4.41796 14.1289 11.5 31.42968 15.91796 39.80468 4.41406 8.375 11.49609 17.10546 15.91406 20.55077 4.41406 3.44531 11.49609 4.9336 15.91405 4.27734 4.41797-.65624 11.5-5.08202 15.91406-9.01171 4.41797-3.92969 11.5-12.9414 15.91406-19.3164 4.41797-6.375 11.5-18.64453 15.91796-26.63671 4.41406-7.9961 11.4961-22.1914 15.91406-30.97655 4.41797-8.78125 11.5-23.58203 15.91406-32.32421 4.41796-8.7461 11.5-22.8203 15.91405-30.69921 4.41797-7.875 11.5-19.89452 15.91797-26.07812 4.41406-6.18359 11.49609-14.8203 15.91405-18.48046 4.41407-3.66015 11.5-7.58984 15.91406-7.89843 4.41797-.3086 11.5 1.80078 15.91406 5.66796 4.41797 3.8711 11.5 13.34765 15.91796 22.22265 4.41406 8.8789 11.4961 27.04687 15.91406 41.7578 4.41406 14.71093 11.49609 42.90233 15.91406 64.27732s15.91405 89.78122 15.91405 89.78122"/></g><use xlink:href="#l" x="316.46183" y="202.78129" fill="#007F7F"/><use xlink:href="#m" x="333.62161" y="207.70173" fill="#007F7F"/><g clip-path="url(#n)"><path fill="none" stroke="#FF7F00" stroke-miterlimit="10" stroke-width=".7955" d="M10.01173 451.582s11.49609-19.78515 15.91406-27.89062c4.41796-8.10156 11.5-22.04687 15.91405-30.51561 4.41797-8.46875 11.5-22.41406 15.91406-30.51952 4.41797-8.10156 11.5-20.51562 15.91796-27.89062 4.41406-7.375 11.4961-18.61718 15.91406-25.26562 4.41406-6.64453 11.5-16.71874 15.91406-22.6367 4.41797-5.91797 11.5-14.82422 15.91406-20.01172 4.41796-5.1914 11.5-12.92968 15.91796-17.39062 4.41406-4.46094 11.49609-11.02734 15.91406-14.7578 4.41406-3.73438 11.49609-9.13282 15.91405-12.13672 4.41797-3.0039 11.5-7.23437 15.91406-9.50781 4.41797-2.27734 11.5-5.33984 15.91406-6.88281 4.41797-1.54688 11.5-3.4414 15.91796-4.25781 4.41406-.8164 11.4961-1.54297 15.91406-1.63281 4.41797-.08594 11.5.35546 15.91406.99609 4.41796.64062 11.5 2.25 15.91405 3.6211 4.41797 1.36718 11.5 4.14843 15.91797 6.24608 4.41406 2.09766 11.49609 6.04688 15.91405 8.875 4.41407 2.82422 11.5 7.9414 15.91406 11.49609 4.41797 3.55469 11.5 9.83984 15.91406 14.125 4.41797 4.28515 11.5 11.73827 15.91796 16.74999 4.41406 5.01562 11.4961 13.63671 15.91406 19.3789 4.41406 5.74219 11.49609 15.53125 15.91406 22.0039 4.41796 6.46875 15.91405 24.625 15.91405 24.625"/></g><use xlink:href="#l" x="155.23591" y="205.69877" fill="#FF7F00"/><use xlink:href="#o" x="172.39569" y="210.62145" fill="#FF7F00"/></svg>