<svg xmlns="http://www.w3.org/2000/svg" xmlns:xlink="http://www.w3.org/1999/xlink" width="289.742pt" height="71.128pt" viewBox="0 0 289.742 71.128"><defs><path id="y" d="M-.32812 0h2.54687v-.32812l-.60937-.0625c-.34375-.04688-.39063-.15625-.29688-.46875.20313-.6875.4375-1.40625.70313-2.23438h2.59375L5.39063-.875c.10937.32813.0625.45313-.3125.5l-.53125.04688V0h2.96875v-.32812C6.84375-.39062 6.71875-.4375 6.5-1.03125L4.0625-8h-.85937L1.98438-4.57812C1.64063-3.5625 1.14063-2.1875.73438-1.125c-.25.625-.34375.75-1.0625.79688Zm2.5-3.53125c.375-1.15625.78125-2.28125 1.125-3.3125h.03125l1.14062 3.3125Zm0 0"/><path id="z" d="M.375 0h2.8125v-.32812c-.82812-.0625-.85937-.09375-.85937-.6875v-2.70313c0-.29687.01562-.4375.10937-.625.25-.45312.76563-.82812 1.375-.82812.78125 0 1.21875.42187 1.21875 1.4375v2.71875c0 .59375-.03125.625-.875.6875V0h2.82813v-.32812c-.82813-.0625-.875-.09375-.875-.6875v-2.9375c0-1.17188-.64063-1.84375-1.6875-1.84375-.875 0-1.39063.40625-2.10938.875l-.15625-.875-1.71875.28125v.29687l.42188.04688c.29687.0625.375.10937.375.53125v3.625c0 .59375-.03126.625-.85938.6875Zm0 0"/><path id="A" d="M.35938-5.20312h.82812v4.01562C1.1875 0 2.0625.14063 2.46875.14063c.59375 0 1.14063-.29688 1.48438-.51563l-.09375-.23437c-.28125.10937-.53125.14062-.82813.14062-.39062 0-.75-.28125-.75-1.15625v-3.57812h1.48438v-.46875H2.28125V-7.125H1.9375l-.70312 1.45313h-.875Zm0 0"/><path id="B" d="M2.32813-6.5 2.5-6.26562l1.75-.96875c.34375-.1875.64063-.375.64063-.625 0-.23438-.28125-.5-.45313-.5-.1875 0-.39062.125-.73437.48437ZM.5625-2.79687c0 1.84375.79688 2.9375 2.67188 2.9375 1.28125 0 1.9375-.71875 2.25-1.625l-.34375-.1875C4.82813-1 4.375-.45312 3.46875-.45312c-1.4375 0-1.71875-1.375-1.70312-2.57813h3.34375c.23437 0 .45312-.0625.45312-.45312 0-.67188-.21875-2.3125-2.34375-2.3125-1.79687 0-2.65625 1.26562-2.65625 3m1.21875-.6875c0-.46875.17188-1.90625 1.375-1.90625 1.07813 0 1.20313 1.09375 1.20313 1.54687 0 .21875-.07813.35938-.40625.35938Zm0 0"/><path id="C" d="M.5625-2.78125c0 1.9375.95313 2.92188 2.6875 2.92188.8125 0 1.90625-.42188 2.21875-1.67188L5.125-1.6875C4.76563-.875 4.3125-.46875 3.46875-.46875c-1.375 0-1.70312-1.4375-1.70312-2.51562 0-1.71875.6875-2.40625 1.48437-2.40625.53125 0 .85938.375 1.09375 1 .07813.1875.14063.29687.35938.29687.23437 0 .6875-.15625.6875-.59375 0-.53125-.76563-1.10937-2.01563-1.10937-2.10937 0-2.8125 1.48437-2.8125 3.01562m0 0"/><path id="D" d="M.5625-2.71875c0 1.70313.90625 2.85938 2.42188 2.85938.625 0 1.15625-.28126 1.78125-.79688v.5625L4.875 0h1.85938v-.32812c-.8125-.0625-.85938-.09375-.85938-.6875v-7.5l-.07812-.0625-1.82813.29687V-8l.45313.04688c.28125.03125.35937.09375.35937.53125v1.90625c-.3125-.17188-.75-.28125-1.28125-.28125-.9375 0-1.65625.29687-2.14062.79687C.875-4.48437.5625-3.71875.5625-2.71875m1.20313-.14062c0-1.5.54687-2.53125 1.73437-2.53125.53125 0 .96875.23437 1.1875.71875.09375.20312.09375.375.09375.67187v2.03125c0 .26563 0 .45313-.07812.65625-.23438.59375-.73438.82813-1.32813.82813-1.0625 0-1.60937-1.04688-1.60937-2.375m0 0"/><path id="E" d="M.5625-2.79687c0 1.84375.79688 2.9375 2.67188 2.9375 1.28125 0 1.9375-.71875 2.25-1.625l-.34375-.1875C4.82813-1 4.375-.45312 3.46875-.45312c-1.4375 0-1.71875-1.375-1.70312-2.57813h3.34375c.23437 0 .45312-.0625.45312-.45312 0-.67188-.21875-2.3125-2.34375-2.3125-1.79687 0-2.65625 1.26562-2.65625 3m1.21875-.6875c0-.46875.17188-1.90625 1.375-1.90625 1.07813 0 1.20313 1.09375 1.20313 1.54687 0 .21875-.07813.35938-.40625.35938Zm0 0"/><path id="J" d="M.40625 0H3.625v-.32812c-1-.07813-1.03125-.09375-1.03125-.73438v-5.85937c0-.65625.03125-.67188 1.03125-.73438V-8H.40625v.34375c1.01563.0625 1.04688.07813 1.04688.73438v5.85937c0 .64063-.03126.65625-1.04688.73438Zm0 0"/><path id="K" d="M.375 0h2.8125v-.32812c-.82812-.0625-.85937-.09375-.85937-.6875v-2.70313c0-.29687 0-.45312.07812-.60937.21875-.46875.73438-.84375 1.375-.84375.98438 0 1.10938.71875 1.10938 1.4375v2.71875c0 .59375-.03125.625-.875.6875V0h2.82812v-.32812c-.82812-.0625-.875-.09375-.875-.6875v-2.70313c0-.29687.01563-.4375.09375-.625.17188-.46875.65625-.82812 1.3125-.82812.73438 0 1.17188.40625 1.17188 1.4375v2.71875c0 .59375-.03125.625-.875.6875V0H10.5v-.32812c-.82812-.0625-.875-.09375-.875-.6875v-2.9375C9.625-5.125 9-5.79687 7.90625-5.79687c-.95312 0-1.625.625-2.03125.875-.28125-.53125-.71875-.875-1.53125-.875-.89062 0-1.60937.57812-2.01562.875l-.10938-.875-1.78125.28125v.29687l.42188.04688c.29687.0625.375.10937.375.53125v3.625c0 .59375-.03126.625-.85938.6875Zm0 0"/><path id="L" d="M.5625-1.5c0 .85938.57813 1.64063 1.65625 1.64063.6875 0 1.35938-.45313 1.73438-.6875.15625.42187.34375.6875.75.6875.4375 0 .92187-.125 1.375-.34375L6-.48438c-.15625.04688-.42187.04688-.59375 0C5.20313-.53124 5-.73437 5-1.46874v-2.79687c0-.67188-.14062-1.53125-1.89062-1.53125-1.29688 0-2.32813.67187-2.32813 1.3125 0 .35937.42188.53125.64063.53125.25 0 .3125-.10938.375-.3125.25-.85938.71875-1.125 1.1875-1.125.45312 0 .96875.21875.96875 1.14062v.48438c-.28125.29687-1.40625.59375-2.3125.89062C.79688-2.625.5625-2.04687.5625-1.5m1.17188-.15625c0-.54687.25-.82812.89062-1.07812.46875-.17188 1.07813-.39063 1.32813-.54688v1.64063c0 .92187-.70313 1.15625-1.15625 1.15625-.71875 0-1.0625-.5-1.0625-1.17188m0 0"/><path id="M" d="M.48438 1.10938c0 1.17187 1.15625 1.6875 2.5 1.6875.6875 0 1.42187-.14063 1.96875-.46875C5.48438 2 5.875 1.45313 5.875.73438c0-1.25-1-1.6875-2.23437-1.6875h-.92188c-.84375 0-.95312-.28126-.95312-.5 0-.32813.4375-.51563.57812-.5625.21875.03125.46875.03125.59375.03125 1.09375 0 2.34375-.46875 2.34375-1.875 0-.48438-.17187-.89063-.35937-1.07813l.92187-.15625.23438-.71875-.10938-.10937L4.5-5.45312c-.3125-.21875-.96875-.34375-1.5-.34375-1.76562 0-2.39062 1.07812-2.39062 1.9375 0 1.07812.71875 1.57812 1.25 1.71875v.03125c-.625.23437-1.0625.57812-1.0625 1.03125 0 .40625.46875.82812 1.01562.89062v.03125C1.32813 0 .48438.26563.48438 1.10938m1.10937-.04688c0-.40625.10938-.6875.34375-.875.26563-.20312.64063-.28125 1.20313-.28125 1.01562 0 1.76562.26563 1.76562 1.125 0 .92188-.84375 1.35938-1.65625 1.35938-.98437 0-1.65625-.5-1.65625-1.32813m.20313-4.92187C1.79688-5 2.39063-5.39062 3-5.39062c.5625 0 1.15625.40625 1.15625 1.53125 0 .96875-.48437 1.46875-1.17187 1.46875-.64063 0-1.1875-.5-1.1875-1.46875m0 0"/><path id="U" d="M.40625 0H3.8125v-.32812C2.625-.40625 2.59375-.42187 2.59375-1.0625v-2.71875h1.60938c.98437 0 1.03125.28125 1.14062 1.01563h.34375v-2.46875h-.34375C5.23438-4.5 5.1875-4.21875 4.20313-4.21875H2.59375V-7.1875c0-.375.03125-.40625.42188-.40625h1.14062c1.34375 0 1.60938.26563 1.76563 1.4375h.34375V-8H.40625v.34375c1.01563.0625 1.04688.07813 1.04688.73438v5.85937c0 .64063-.03126.65625-1.04688.73438Zm0 0"/><path id="V" d="M.5625-2.82812c0 1.875.92188 2.96875 2.78125 2.96875 1.85938 0 2.76563-1.09375 2.76563-2.96875s-.90625-2.96875-2.76563-2.96875S.5625-4.70312.5625-2.82812m1.20313 0c0-1.59375.51562-2.5625 1.57812-2.5625s1.57813.96875 1.57813 2.5625-.51563 2.5625-1.57813 2.5625-1.57812-.96875-1.57812-2.5625m0 0"/><path id="W" d="M1.0625-7.5625c0 .42188.29688.71875.70313.71875.42187 0 .70312-.29687.70312-.71875s-.28125-.70312-.70312-.70312c-.40625 0-.70313.28125-.70313.70312M.375 0h2.8125v-.32812c-.82812-.0625-.85937-.09375-.85937-.6875v-4.71875l-.09375-.0625-1.79688.28125v.29687l.42188.04688c.29687.0625.375.10937.375.53125v3.625c0 .59375-.03126.625-.85938.6875Zm0 0"/><path id="F" d="M.8125-1.23437c0 .6875.3125 1.375 1.10938 1.375 1.23437 0 2.3125-1.4375 2.98437-2.60938h.03125l-.40625 1.3125c-.0625.26563-.10937.48438-.10937.67188 0 .39062.1875.625.625.625.875 0 1.51562-.79688 1.90625-1.67188L6.6875-1.6875c-.20312.40625-.71875 1.21875-1.04687 1.21875-.125 0-.1875-.07812-.1875-.21875 0-.10937.04687-.25.07812-.40625L6.75-5.70312h-.96875l-.04687.14062c-.20313-.125-.54688-.23437-.85938-.23437-2.75 0-4.0625 3.03125-4.0625 4.5625m1.14063-.03126c0-1.26562 1.14062-4.125 2.95312-4.125.28125 0 .53125.09375.70313.25-.21875.85938-.60938 2-1.23438 2.92188-.65625.98438-1.35937 1.75-1.92187 1.75-.375 0-.5-.34375-.5-.79687m0 0"/><path id="N" d="M-.25 2.125c.01563.39063.51563.67188 1.0625.67188 1.15625 0 1.64063-.9375 2.125-3.15625l1.07813-4.85938h1.45312l.10938-.45312h-1.5l.32812-1.29688c.21875-.875.4375-1.20312.76563-1.20312.29687 0 .51562.25.76562.8125.0625.10937.15625.1875.32813.1875.23437 0 .5625-.20313.5625-.5 0-.5-.625-.90625-1.3125-.90625-1.375 0-1.9375.96875-2.375 2.48437l-.125.42188h-1l-.14063.45312h1.04688l-1.34375 6.8125c-.14063.70313-.26563.78125-.375.78125-.125 0-.3125-.09375-.60938-.5625C.5 1.70313.4375 1.54688.28125 1.54688c-.25 0-.53125.28124-.53125.57812m0 0"/><path id="O" d="M1-3.26562c0 2.60937.59375 5.48437 3.03125 5.57812v-.34375C3.20313 1.8125 1.92188.78125 1.92188-3.26562c0-4.01563 1.21875-5.03125 2.10937-5.21875v-.34375C1.59375-8.73437 1-5.85937 1-3.26562m0 0"/><path id="P" d="M.6875 1.96875v.34375c2.45313-.09375 3.03125-2.96875 3.03125-5.57812 0-2.59375-.57812-5.46875-3.03125-5.5625v.34375c.89063.1875 2.10938 1.20312 2.10938 5.21875 0 4.04687-1.28125 5.07812-2.10938 5.23437m0 0"/><path id="G" d="M.57813-.875c0 .48438.21874.96875.78125.96875.89062 0 1.60937-.98437 2.0625-1.79687h.01562l-.25.875C3.14063-.65625 3.10938-.5 3.10938-.375q0 .46875.46875.46875c.65625 0 1.125-.5625 1.42187-1.20312l-.21875-.10938c-.15625.29688-.5.84375-.71875.84375-.09375 0-.125-.0625-.125-.15625q0-.11718.04688-.28125L4.82813-4h-.78125l-.03125.09375C3.875-4 3.64063-4.0625 3.42188-4.0625c-1.9375 0-2.84375 2.125-2.84375 3.1875m.90625-.01562c0-.89063.78125-2.85938 1.96875-2.85938.1875 0 .34375.0625.46875.15625C3.76563-3 3.48438-2.20312 3.0625-1.54687 2.625-.875 2.15625-.375 1.8125-.375c-.25 0-.32812-.23437-.32812-.51562m0 0"/><path id="H" d="M.53125-2.26562c0 1.375.82813 2.125 1.9375 2.125h1.73438v-.51563H2.46875c-.89062 0-1.26562-.57812-1.35937-1.35937H3.4375v-.53125H1.10938c.09374-.73438.42187-1.32813 1.35937-1.32813h1.73438v-.53125H2.46875c-1.48437 0-1.9375 1.125-1.9375 2.14063m0 0"/><path id="I" d="M.21875-.32812C.21875.01563.875.125 1.23438.125 1.5.125 2 .01563 2.32813-.14062c.32812.125.54687.26562.95312.26562C4.90625.125 6.25-1.70312 6.25-3.4375c0-.29687-.04687-.59375-.15625-.89062.14063-.04688.42188-.07813.42188-.23438 0-.09375-.09375-.14062-.20313-.14062-.10937 0-.25.01562-.375.04687C5.45313-5.5 4.54688-5.89062 3.54688-5.89062c-1.40625 0-3.25 1.125-3.25 2.625 0 .8125.65625 1.10937 1.28125 1.10937 1.03125 0 2.03125-1.23437 2.03125-2.10937 0-.14063-.01563-.42188-.1875-.42188-.07813 0-.20313.04688-.20313.14063 0 .0625.03125.125.03125.20312 0 .71875-.84375 1.875-1.67187 1.875-.51563 0-.71875-.3125-.71875-.67187 0-1.28125 1.53125-2.45313 2.6875-2.45313.85937 0 1.625.35938 2.03125 1.07813-.875.42187-1.51563 1.39062-2 2.1875-.35938.60937-.89063 1.34375-1.4375 1.79687C1.875-.65625 1.5-.79687 1.21875-.79687c-.5625 0-1 .15624-1 .46875m.57813 0c0-.09375.26562-.125.35937-.125.1875 0 .46875.04687.60938.10937-.09376.0625-.42188.125-.53125.125-.17188 0-.4375-.03125-.4375-.10937m1.92187-.01563c.78125-.48437 1.32813-1.14062 1.75-1.85937.39063-.64063.73438-1.32813 1.28125-1.875.0625.21875.09375.42187.09375.64062 0 1.39063-1.21875 3.21875-2.5625 3.21875-.14062 0-.40625-.04687-.5625-.125m0 0"/><path id="Q" d="M-.17187 1.45313c.01562.28124.35937.5.79687.5.84375 0 1.21875-.67188 1.5625-2.1875l.75-3.40625h1.01563l.09375-.32813H3l.23438-.98437c.14062-.54688.28125-.75.46875-.75.20312 0 .32812.15625.53125.57812.04687.07813.10937.15625.25.15625.1875 0 .4375-.15625.4375-.39062C4.92188-5.70312 4.48438-6 3.9375-6c-1.01562 0-1.42187.73438-1.71875 1.76563l-.07812.26562h-.6875l-.10938.32813h.71875l-.9375 4.8125c-.07812.40625-.15625.46875-.23437.46875-.09376 0-.21876-.07813-.42188-.40625-.0625-.09376-.125-.20313-.25-.20313-.1875 0-.39062.20313-.39062.42188m0 0"/><path id="R" d="M.70313-2.28125c0 1.75.4375 3.82813 2.0625 3.90625v-.26562c-.54688-.125-1.35938-.9375-1.35938-3.64063 0-2.6875.78125-3.51562 1.35938-3.64062v-.26563c-1.625.07813-2.0625 2.15625-2.0625 3.90625m0 0"/><path id="S" d="M.48438 1.35938V1.625C2.125 1.54688 2.57813-.53125 2.57813-2.28125S2.125-6.10937.48438-6.1875v.26563c.59375.125 1.375.95312 1.375 3.64062 0 2.70313-.8125 3.53125-1.375 3.64063m0 0"/><path id="T" d="M.4375 0h1.57813v-2.26562h.45312L3.78125 0H5.375L4.03125-2.35937C4.75-2.59375 5.17188-3.28125 5.17188-3.9375c0-.96875-.75-1.67187-1.76563-1.67187H.4375Zm.45313-.46875v-4.67187h.65625v4.67187Zm1.125-2.26562v-2.40625h1.375v2.40625Zm1.01562.46875h.60938l1 1.79687h-.60938Zm.82813-.54688v-2.28125c.5.14063.85937.65625.85937 1.15625s-.39062 1.03125-.85937 1.125m0 0"/><clipPath id="i"><path d="M12 10h14v25.16406H12Zm0 0"/></clipPath><clipPath id="j"><path d="M.4375 10H26v25.16406H.4375Zm0 0"/></clipPath><clipPath id="a"><path d="M.91016.19922h5.49609v9.28125H.91015Zm0 0"/></clipPath><clipPath id="m"><path d="M27 .17188h8.42969V16H27Zm0 0"/></clipPath><clipPath id="n"><path d="M20 .17188h15.42969V16H20Zm0 0"/></clipPath><clipPath id="b"><path d="M.125.17969h4.28125v7.23047H.125Zm0 0"/></clipPath><clipPath id="q"><path d="M30 16h5.42969v10H30Zm0 0"/></clipPath><clipPath id="r"><path d="M26 16h9.42969v10H26Zm0 0"/></clipPath><clipPath id="d"><path d="M.34766.10938h2.24609v3.40234H.34765Zm0 0"/></clipPath><clipPath id="u"><path d="M12 10h14v25.16406H12Zm0 0"/></clipPath><clipPath id="v"><path d="M27 .17188h8.42969V16H27Zm0 0"/></clipPath><clipPath id="w"><path d="M30 16h5.42969v10H30Zm0 0"/></clipPath><clipPath id="f"><path d="M0 0h36v36H0z"/></clipPath><g id="l" clip-path="url(#a)"><path fill="#75CCF4" d="M6.40625 4.83984c0 2.5625-2.07812 4.64063-4.64062 4.64063-.29297 0-.57813-.02735-.85547-.07813C3.0664 9 4.6953 7.11328 4.6953 4.83984c0-2.26953-1.6289-4.16015-3.78515-4.5625.27734-.05078.5625-.07812.85547-.07812 2.5625 0 4.64062 2.07812 4.64062 4.64062"/></g><g id="p" clip-path="url(#b)"><path fill="#75CCF4" d="M4.40625 3.79688c0 1.99218-1.61719 3.61328-3.61328 3.61328-.23047 0-.45313-.02344-.66797-.0625 1.67969-.3125 2.94922-1.78516 2.94922-3.55079C3.07422 2.02735 1.80469.5547.125.2422.33984.20313.5625.17969.79297.17969c1.9961 0 3.61328 1.6211 3.61328 3.61719"/></g><g id="t" clip-path="url(#d)"><path fill="#75CCF4" d="M2.59375 1.8125c0 .9375-.76172 1.69922-1.69922 1.69922-.1914 0-.375-.03125-.54687-.09375C1.01562 3.1914 1.5 2.55859 1.5 1.8125c0-.75-.48437-1.38281-1.15234-1.60937C.51953.14063.70313.10938.89453.10938c.9375 0 1.69922.76171 1.69922 1.70312"/></g><g id="X" clip-path="url(#f)"><g clip-path="url(#i)"><path fill="#99BAC6" d="M25.09375 21.41406v2.85157c0 .28515-.23047.51171-.51172.51171H23.25c-.10156.5547-.2461 1.09766-.4336 1.625l1.14844.66407c.1211.0703.20704.17968.2422.3125.03515.1328.01562.26953-.05079.39062l-1.42969 2.46875c-.14062.2461-.45312.32813-.69922.1875l-1.15234-.66406a10.65 10.65 0 0 1-1.1875 1.1875l.66406 1.15234c.0664.11719.08594.25782.05078.39063-.03515.1289-.12109.24218-.23828.3086l-2.47265 1.42577c-.2422.14453-.5547.0586-.69922-.1875l-.66407-1.14843c-.52734.1875-1.0703.33203-1.625.43359v1.32812c0 .28516-.23046.51172-.51171.51172h-1.42578V33.4961c5.25-.92578 9.22656-5.34375 9.22656-10.65625s-3.97657-9.72656-9.22657-10.65234v-1.67187h1.42579c.28125 0 .51172.22656.51172.51171v1.32813c.55468.10156 1.09765.2461 1.625.4336l.66406-1.14845c.14453-.24609.45703-.33203.69922-.1875l2.47265 1.42579c.11719.0664.20313.17968.23828.30859.03516.13281.01563.27344-.05078.39063l-.66406 1.15234a10.65 10.65 0 0 1 1.1875 1.1875l1.15234-.66406c.2461-.14063.5586-.0586.69922.1875l1.42969 2.47265c.0664.11719.08594.25782.05078.38672-.03515.13281-.1211.24219-.24219.3125l-1.14843.66406c.1875.52735.33203 1.07032.43359 1.625h1.33203c.28125 0 .51172.22657.51172.51172"/></g><path fill="#4C7889" d="M20.03906 22.83984c0 4.01954-3.25781 7.27344-7.27343 7.27344-.26563 0-.52735-.01172-.78516-.03906 3.64453-.39453 6.48828-3.48047 6.48828-7.23438 0-3.7539-2.84375-6.83984-6.48828-7.23046.25781-.03125.51953-.04297.78515-.04297 4.01563 0 7.27344 3.2539 7.27344 7.27343"/><g clip-path="url(#j)"><path fill="#B7D4E2" d="M12.76563 27.48047c-.29297 0-.57813-.02735-.85547-.07813C9.7539 27 8.125 25.11328 8.125 22.83984c0-2.26953 1.6289-4.16015 3.78516-4.5625.27734-.05078.5625-.07812.85547-.07812 2.5625 0 4.64062 2.07812 4.64062 4.64062s-2.07812 4.64063-4.64062 4.64063m11.8164-6.57813H23.25c-.10156-.55468-.2461-1.09765-.4336-1.625l1.14844-.66406c.1211-.07031.20704-.17969.2422-.3125.03515-.1289.01562-.26953-.05079-.38672l-1.42969-2.47265c-.14062-.2461-.45312-.32813-.69922-.1875l-1.15234.66406a10.65 10.65 0 0 0-1.1875-1.1875l.66406-1.15235c.0664-.11718.08594-.2578.05078-.39062-.03515-.1289-.12109-.24219-.23828-.3086l-2.47265-1.42577c-.2422-.14454-.5547-.0586-.69922.1875l-.66407 1.14843c-.52734-.1875-1.0703-.33203-1.625-.4336v-1.32812c0-.28515-.23046-.51172-.51171-.51172h-2.85157c-.28515 0-.51562.22657-.51562.51172v1.32813c-.55078.10156-1.09766.2461-1.625.4336l-.66406-1.14845c-.14063-.24609-.45313-.32812-.69922-.1875l-2.47266 1.42579c-.11719.0664-.20312.17968-.23828.30859-.03516.13281-.01562.27344.05469.39063l.66406 1.15234c-.42969.36328-.82422.76172-1.1914 1.1875L3.5 15.2539c-.24219-.14063-.5586-.0586-.69922.1875L1.375 17.91406c-.0664.11719-.08594.25782-.05078.38672.03516.13281.1211.24219.23828.3125l1.14844.66406c-.1875.52735-.33203 1.07032-.4336 1.625H.94922c-.28125 0-.51172.22657-.51172.51172v2.85157c0 .28515.23047.51171.51172.51171h1.32812c.10157.5547.2461 1.09766.4336 1.625l-1.14844.66407c-.11719.0703-.20312.17968-.23828.3125-.03516.1328-.01563.26953.05078.39062l1.42578 2.46875c.14063.2461.45703.32813.69922.1875l1.15234-.66406c.3672.42578.76172.82422 1.19141 1.1875l-.66406 1.15234c-.07031.11719-.08985.25782-.05469.39063.03516.1289.1211.24218.23828.3086l2.47266 1.42577c.2461.14453.5586.0586.69922-.1875l.66406-1.14843c.52734.1875 1.07422.33203 1.625.43359v1.32812c0 .28516.23047.51172.51562.51172h2.85157c.28125 0 .51172-.22656.51172-.51172v-1.32812c.55468-.10156 1.09765-.2461 1.625-.4336l.66406 1.14844c.14453.2461.45703.33203.69922.1875l2.47265-1.42578c.11719-.0664.20313-.17969.23828-.3086.03516-.1328.01563-.27343-.05078-.39062l-.66406-1.15234a10.65 10.65 0 0 0 1.1875-1.1875l1.15234.66406c.2461.14063.5586.0586.69922-.1875l1.42969-2.46875c.0664-.1211.08594-.25781.05078-.39062-.03515-.13282-.1211-.2422-.24219-.3125l-1.14843-.66407c.1875-.52734.33203-1.0703.43359-1.625h1.33203c.28125 0 .51172-.22656.51172-.51171v-2.85157c0-.28515-.23047-.51172-.51172-.51172"/></g><g mask="url(#k)"><use xlink:href="#l" transform="translate(11 18)"/></g><g clip-path="url(#m)"><path fill="#4C7889" d="M35.42969 6.1211v3.34765c0 .28516-.22657.51563-.51172.51563h-.94531c-.07813.21093-.16407.41796-.26172.625l.66797.66796c.09765.09375.15234.22657.15234.35938 0 .13672-.05469.26953-.15234.36328l-2.3711 2.3711c-.20312.19921-.52734.19921-.72656 0l-.66797-.66798c-.20703.09766-.41797.1836-.6289.25782v.94531c0 .28125-.23047.51172-.51563.51172h-1.67578v-1.17188c3.05469-.35937 5.4336-3.10937 5.4336-6.45312 0-3.33985-2.37891-6.08984-5.4336-6.45313V.17188h1.67578c.28516 0 .51563.23046.51563.51171V1.625c.21093.07813.42187.16406.6289.26172l.66797-.66797c.19922-.19922.52344-.19922.72656 0l2.3711 2.36719c.09765.09765.15234.23047.15234.36328 0 .13672-.05469.26953-.15234.36328l-.66797.66797c.09765.20312.1836.41406.26172.6289h.9453c.28516 0 .51173.22657.51173.51172"/></g><g clip-path="url(#n)"><path fill="#668FA3" d="M27.79297 11.41016c-.23047 0-.45313-.02344-.66797-.0625-1.67578-.3125-2.94922-1.78516-2.94922-3.55078 0-1.76954 1.27344-3.2422 2.94922-3.5547.21484-.03906.4375-.0625.66797-.0625 1.9961 0 3.61328 1.6211 3.61328 3.6172 0 1.99218-1.61719 3.61328-3.61328 3.61328m7.125-5.80078h-.94531c-.07813-.21485-.16407-.42579-.26172-.62891l.66797-.66797c.09765-.09375.15234-.22656.15234-.36328 0-.13281-.05469-.26563-.15234-.36328l-2.3711-2.36719c-.20312-.19922-.52734-.19922-.72656 0l-.66797.66797c-.20703-.09766-.41797-.1836-.6289-.26172V.6836c0-.28126-.23047-.51172-.51563-.51172h-3.35547c-.28515 0-.51172.23046-.51172.51171V1.625c-.21484.07813-.42578.16406-.63281.26172l-.66797-.66797c-.19922-.19922-.52344-.19922-.72265 0l-2.375 2.36719c-.09766.09765-.15235.23047-.15235.36328 0 .13672.05469.26953.15235.36328l.66796.66797c-.09765.20312-.18359.41406-.26171.6289h-.94532c-.28125 0-.51172.22657-.51172.51172v3.34766c0 .28516.23047.51563.51172.51563h.94532c.07812.21093.16406.41796.26171.625l-.66796.66796c-.09766.09375-.15235.22657-.15235.35938 0 .13672.05469.26953.15235.36328l2.375 2.3711c.19921.19921.52343.19921.72265 0l.66797-.66798a6.32 6.32 0 0 0 .63281.25782v.94531c0 .28125.22657.51172.51172.51172h3.35547c.28516 0 .51563-.23047.51563-.51172v-.94531c.21093-.07422.42187-.16016.6289-.25782l.66797.66797c.19922.19922.52344.19922.72656 0L34.37891 12c.09765-.09375.15234-.22656.15234-.36328 0-.13281-.05469-.26563-.15234-.35938l-.66797-.66797c.09765-.20703.1836-.41406.26172-.625h.9453c.28516 0 .51173-.23046.51173-.51562V6.12109c0-.28515-.22657-.51171-.51172-.51171"/></g><g mask="url(#o)"><use xlink:href="#p" transform="translate(27 4)"/></g><g clip-path="url(#q)"><path fill="#4C7889" d="M35.42969 20.8125c0 .28125-.23047.51172-.51172.51172H34.5c-.08594.60937-.32422 1.1836-.69531 1.67578l.29687.29297c.19922.20312.19922.52344 0 .72656-.09765.10156-.23047.14844-.36328.14844-.1289 0-.26172-.04688-.36328-.14844l-.29297-.29687c-.49219.37109-1.0664.60937-1.67578.6953v.41798c0 .28125-.23047.51172-.51172.51172v-1.01954c1.52344-.4414 2.63281-1.84765 2.63281-3.51562 0-1.66406-1.11328-3.07031-2.6328-3.51562v-1.02344c.28124 0 .51171.23047.51171.51172v.41796c.60938.08594 1.1836.32422 1.67578.69532l.29297-.29688c.20313-.19922.52734-.19922.72656 0 .19922.20313.19922.52735 0 .72657l-.29687.29687c.3711.49219.60937 1.0625.69531 1.67188h.41797c.28125 0 .51172.23046.51172.51562"/></g><g clip-path="url(#r)"><path fill="#668FA3" d="M30.89453 22.51172c-.1914 0-.375-.03125-.54687-.09375-.67188-.22656-1.15235-.85938-1.15235-1.60547 0-.75.48047-1.38281 1.15235-1.60937.17187-.0625.35546-.09376.54687-.09376.9375 0 1.69922.76172 1.69922 1.70313 0 .9375-.76172 1.69922-1.69922 1.69922m4.02344-2.21485H34.5c-.08594-.60937-.32422-1.17968-.69531-1.67187l.29687-.29687c.19922-.19922.19922-.52344 0-.72657-.19922-.19922-.52343-.19922-.72656 0l-.29297.29688c-.49219-.3711-1.0664-.60938-1.67578-.69532v-.41796c0-.28125-.23047-.51172-.51172-.51172-.28515 0-.51562.23047-.51562.51172v.41796c-.60938.08594-1.1797.32422-1.67188.69532l-.29687-.29688c-.19922-.19922-.52344-.19922-.72657 0-.19921.19922-.19921.52344 0 .72657l.29688.29687c-.3711.48828-.60547 1.0625-.6914 1.67188h-.41798c-.28515 0-.51562.23046-.51562.51171 0 .28516.23047.51563.51562.51563h.41797c.08594.60937.32032 1.17969.6914 1.67187l-.29296.29688c-.20312.19922-.20312.52344 0 .72656.09766.09766.23047.14844.35938.14844.1328 0 .26562-.05078.36328-.14844l.29687-.29687c.49219.37109 1.0664.60937 1.67578.6953v.41798c0 .28125.22657.51172.51172.51172.28125 0 .51172-.23047.51172-.51172v-.41797c.60938-.08594 1.1836-.32422 1.67578-.69531l.29297.29687c.10156.10156.23438.14844.36328.14844.13281 0 .26563-.04688.36328-.14844.19922-.20312.19922-.52344 0-.72656L33.8047 23c.3711-.49219.60937-1.0664.69531-1.67578h.41797c.28125 0 .51172-.23047.51172-.51172 0-.28516-.23047-.51562-.51172-.51562"/></g><g mask="url(#s)"><use xlink:href="#t" transform="translate(30 19)"/></g><path fill="#668FA3" d="M12.76563 27.48047c-.29297 0-.57813-.02735-.85547-.07813C9.7539 27 8.125 25.11328 8.125 22.83984c0-2.26953 1.6289-4.16015 3.78516-4.5625.27734-.05078.5625-.07812.85547-.07812 2.5625 0 4.64062 2.07812 4.64062 4.64062s-2.07812 4.64063-4.64062 4.64063m0-11.91406c-.26563 0-.52735.01172-.78516.04297C8.33203 16 5.48828 19.08594 5.48828 22.83984c0 3.75391 2.84375 6.83985 6.49219 7.23438.25781.02734.51953.03906.78515.03906 4.01563 0 7.27344-3.2539 7.27344-7.27344 0-4.01953-3.25781-7.27343-7.27343-7.27343"/><g clip-path="url(#u)"><path fill="#99BAC6" d="M25.09375 21.41406v2.85157c0 .28515-.23047.51171-.51172.51171H23.25c-.10156.5547-.2461 1.09766-.4336 1.625l1.14844.66407c.1211.0703.20704.17968.2422.3125.03515.1328.01562.26953-.05079.39062l-1.42969 2.46875c-.14062.2461-.45312.32813-.69922.1875l-1.15234-.66406a10.65 10.65 0 0 1-1.1875 1.1875l.66406 1.15234c.0664.11719.08594.25782.05078.39063-.03515.1289-.12109.24218-.23828.3086l-2.47265 1.42577c-.2422.14453-.5547.0586-.69922-.1875l-.66407-1.14843c-.52734.1875-1.0703.33203-1.625.43359v1.32812c0 .28516-.23046.51172-.51171.51172h-1.42578V33.4961c5.25-.92578 9.22656-5.34375 9.22656-10.65625s-3.97657-9.72656-9.22657-10.65234v-1.67187h1.42579c.28125 0 .51172.22656.51172.51171v1.32813c.55468.10156 1.09765.2461 1.625.4336l.66406-1.14845c.14453-.24609.45703-.33203.69922-.1875l2.47265 1.42579c.11719.0664.20313.17968.23828.30859.03516.13281.01563.27344-.05078.39063l-.66406 1.15234a10.65 10.65 0 0 1 1.1875 1.1875l1.15234-.66406c.2461-.14063.5586-.0586.69922.1875l1.42969 2.47265c.0664.11719.08594.25782.05078.38672-.03515.13281-.1211.24219-.24219.3125l-1.14843.66406c.1875.52735.33203 1.07032.43359 1.625h1.33203c.28125 0 .51172.22657.51172.51172"/></g><g clip-path="url(#v)"><path fill="#4C7889" d="M35.42969 6.1211v3.34765c0 .28516-.22657.51563-.51172.51563h-.94531c-.07813.21093-.16407.41796-.26172.625l.66797.66796c.09765.09375.15234.22657.15234.36328 0 .13282-.05469.26563-.15234.35938l-2.3711 2.3711c-.20312.19921-.52734.19921-.72656 0l-.66797-.66798c-.20703.09766-.41797.1836-.6289.25782v.94531c0 .28125-.23047.51172-.51563.51172h-1.67578v-1.17188c3.05469-.35937 5.4336-3.10937 5.4336-6.45312 0-3.33985-2.37891-6.08984-5.4336-6.45313V.17188h1.67578c.28516 0 .51563.23046.51563.51171V1.625c.21093.07813.42187.16406.6289.26172l.66797-.66797c.19922-.19922.52344-.19922.72656 0l2.3711 2.36719c.09765.09765.15234.23047.15234.36328 0 .13672-.05469.26953-.15234.36328l-.66797.66797c.09765.20312.1836.41406.26172.6289h.9453c.28516 0 .51173.22657.51173.51172"/></g><g clip-path="url(#w)"><path fill="#4C7889" d="M35.42969 20.8125c0 .28125-.23047.51172-.51172.51172H34.5c-.08594.60937-.32422 1.1836-.69531 1.67578l.29687.29297c.19922.20312.19922.52734 0 .72656-.09765.10156-.23047.14844-.36328.14844-.1289 0-.26172-.04688-.36328-.14844l-.29297-.29687c-.49219.37109-1.0664.60937-1.67578.6953v.41798c0 .28125-.23047.51172-.51172.51172v-1.01954c1.52344-.4414 2.63281-1.84765 2.63281-3.51171 0-1.66797-1.11328-3.07422-2.6328-3.51563v-1.02734c.28124 0 .51171.23047.51171.51172v.41796c.60938.08594 1.1836.32422 1.67578.69532l.29297-.29688c.20313-.19922.52734-.19922.72656 0 .19922.20313.19922.52735 0 .72657l-.29687.29687c.3711.49219.60937 1.0625.69531 1.67188h.41797c.28125 0 .51172.23046.51172.51562"/></g></g><mask id="k"><g filter="url(#x)"><path fill-opacity=".5" d="M-195.74324-46.64816h417.22848V55.77616h-417.22848z"/></g></mask><mask id="o"><g filter="url(#x)"><path fill-opacity=".5" d="M-195.74324-46.64816h417.22848V55.77616h-417.22848z"/></g></mask><mask id="s"><g filter="url(#x)"><path fill-opacity=".5" d="M-195.74324-46.64816h417.22848V55.77616h-417.22848z"/></g></mask><filter id="x" width="100%" height="100%" x="0%" y="0%"><feColorMatrix color-interpolation-filters="sRGB" values="0 0 0 0 1 0 0 0 0 1 0 0 0 0 1 0 0 0 1 0"/></filter></defs><g fill="#FF7F00"><use xlink:href="#y" x="5.72784" y="20.16108"/><use xlink:href="#z" x="13.06011" y="20.16108"/><use xlink:href="#A" x="20.20785" y="20.16108"/><use xlink:href="#B" x="24.18155" y="20.16108"/><use xlink:href="#C" x="30.12365" y="20.16108"/><use xlink:href="#B" x="35.8566" y="20.16108"/><use xlink:href="#D" x="41.7987" y="20.16108"/><use xlink:href="#E" x="48.71269" y="20.16108"/><use xlink:href="#z" x="54.65479" y="20.16108"/><use xlink:href="#A" x="61.80253" y="20.16108"/></g><use xlink:href="#F" x="68.37111" y="20.16108" fill="#FF7F00"/><use xlink:href="#G" x="30.42876" y="34.92385" fill="#FF7F00"/><use xlink:href="#H" x="37.7229" y="34.92385" fill="#FF7F00"/><use xlink:href="#I" x="44.19893" y="34.92385" fill="#FF7F00"/><use xlink:href="#J" x="224.28936" y="19.37275" fill="#007F7F"/><g fill="#007F7F"><use xlink:href="#K" x="228.11543" y="19.37275"/><use xlink:href="#L" x="238.78168" y="19.37275"/><use xlink:href="#M" x="244.8222" y="19.37275"/><use xlink:href="#E" x="250.82581" y="19.37275"/></g><use xlink:href="#N" x="259.36436" y="19.37275" fill="#007F7F"/><g fill="#007F7F"><use xlink:href="#O" x="266.58591" y="19.37275"/><use xlink:href="#F" x="271.31006" y="19.37275"/></g><use xlink:href="#P" x="279.03602" y="19.37275" fill="#007F7F"/><use xlink:href="#Q" x="238.47174" y="34.13551" fill="#007F7F"/><g fill="#007F7F"><use xlink:href="#R" x="243.66462" y="34.13551"/><use xlink:href="#G" x="246.92847" y="34.13551"/></g><use xlink:href="#S" x="252.55193" y="34.13551" fill="#007F7F"/><use xlink:href="#H" x="257.48646" y="34.13551" fill="#007F7F"/><use xlink:href="#T" x="263.96248" y="34.13551" fill="#007F7F"/><path fill="none" stroke="#000" stroke-miterlimit="10" stroke-width=".39367" d="M88.67969 23.3164h117.9883"/><path stroke="#000" stroke-miterlimit="10" stroke-width=".39367" d="M210.45703 23.3164c-.46484-.125-2.51172-.83593-3.78906-1.60937v3.21485c1.27734-.77344 3.32422-1.48047 3.78906-1.60547Zm0 0"/><use xlink:href="#U" x="121.73168" y="12.6756"/><use xlink:href="#V" x="128.01824" y="12.6756"/><use xlink:href="#z" x="134.68619" y="12.6756"/><use xlink:href="#C" x="141.83392" y="12.6756"/><use xlink:href="#A" x="147.56688" y="12.6756"/><use xlink:href="#W" x="151.54058" y="12.6756"/><use xlink:href="#V" x="154.89916" y="12.6756"/><use xlink:href="#z" x="161.5671" y="12.6756"/><use xlink:href="#N" x="171.31135" y="12.6756"/><use xlink:href="#X" transform="translate(132 31)"/></svg>