<svg xmlns="http://www.w3.org/2000/svg" xmlns:xlink="http://www.w3.org/1999/xlink" width="248.828pt" height="207.929pt" viewBox="0 0 248.828 207.929"><defs><path id="b" d="M.4375-3.51562C.4375-1.40625 1.04688.125 2.79688.125c1.73437 0 2.35937-1.53125 2.35937-3.64062s-.625-3.64063-2.35937-3.64063c-1.75 0-2.35938 1.53125-2.35938 3.64063m1.0625 0c0-1.71875.29688-3.26563 1.29688-3.26563.98437 0 1.28125 1.54688 1.28125 3.26563S3.78125-.25 2.79688-.25C1.79688-.25 1.5-1.79687 1.5-3.51562m0 0"/><path id="c" d="M.89063-2.67187H6.6875v-.60938H.89063Zm0 0"/><path id="d" d="M.28125-1.07812C.28125-.625 1.01563.125 2.5.125 4.01563.125 4.98438-.65625 4.98438-2c0-1.40625-1.20313-1.8125-1.79688-1.875v-.04687c.57813-.09375 1.48438-.51563 1.48438-1.5625 0-1.15625-.90625-1.67188-2.04688-1.67188-1.375 0-2.0625.79688-2.0625 1.25 0 .32813.375.5.51563.5.125 0 .20312-.07812.25-.20312.23437-.71875.625-1.17188 1.21875-1.17188.84375 0 1.04687.71875 1.04687 1.3125 0 .625-.21875 1.42188-1.125 1.42188-.5 0-.78125-.09375-.90625-.09375-.14062 0-.20312.09375-.20312.28125s.0625.29687.20312.29687c.125 0 .40625-.09375.90625-.09375.90625 0 1.40625.79688 1.40625 1.71875 0 1.25-.60937 1.6875-1.35937 1.6875-.70313 0-1.15625-.51562-1.35938-1.10937-.0625-.20313-.17187-.29688-.3125-.29688-.1875 0-.5625.20313-.5625.57813m0 0"/><path id="e" d="M.28125-.09375.39063 0H4.75l.35938-1.39062-.29688-.04688c-.21875.5625-.4375.64063-.85937.64063h-2.6875c.17187-.54688.79687-1.29688 1.76562-2 1.01563-.75 1.79688-1.21875 1.79688-2.39063 0-1.46875-.96875-1.96875-2.07813-1.96875-1.45312 0-2.1875.875-2.1875 1.42188 0 .35937.40625.53125.57813.53125.1875 0 .26562-.125.29687-.29688.17188-.71875.59375-1.28125 1.23438-1.28125.8125 0 1.04687.67188 1.04687 1.4375 0 1.125-.57812 1.76563-1.48437 2.57813C.9375-1.64062.48438-.92187.28124-.09375m0 0"/><path id="f" d="M1.14063 0h3.46875v-.29687L3.71875-.375C3.5-.40625 3.375-.48437 3.375-.89062v-6.21875l-.0625-.04688-2.17187.375v.25l.98437.125c.1875.01563.25.09375.25.40625v5.10938c0 .40625-.09375.48437-.34375.51562l-.89062.07813Zm0 0"/><path id="j" d="M.39063-5.82812C.39063-4.8125 1.40625-4 3.75-4c-.39062.67188-.67187 1.39063-.67187 2.15625 0 1.28125.79687 1.98438 2.26562 1.98438 1.4375 0 2.92188-1.03125 2.92188-2.35938 0-.79687-.65625-1.23437-1.48438-1.23437-.92187 0-2 1.03125-2 1.84375 0 .25.1875.71875.53125.71875.09375 0 .23438-.0625.23438-.17188 0-.15625-.26563-.17187-.26563-.53125 0-.57812.82813-1.48437 1.5-1.48437.46875 0 .75.1875.75.64062 0 1.03125-.98437 2.20313-2.1875 2.20313-.84375 0-1.28125-.46875-1.28125-1.23438 0-.875.60938-1.89062 1.07813-2.64062C7.73438-4.5 10.28125-5.78125 10.28125-7.40625c0-.625-.5-1.03125-1.17187-1.03125-1.53125 0-3.85938 1.96875-5.14063 4.01563-1.0625 0-2.78125-.03125-2.78125-1.28125 0-1.14063 1.40625-2.01563 2.26563-2.01563.17187 0 .25-.10937.25-.20312s-.07813-.17188-.1875-.17188c-1.29688 0-3.125.875-3.125 2.26563M5.375-4.5625c.85938-1.5 2.67188-3.51562 3.73438-3.51562.42187 0 .70312.25.70312.625 0 1.3125-2.04687 2.5-4.4375 2.89062m0 0"/><path id="k" d="M.26563.79688c0 .71875.76562 1.1875 1.82812 1.1875 1.17188 0 2.0625-.46875 2.0625-1.375 0-.65625-.51562-1.09375-1.45312-1.3125-.70313-.17188-1-.26563-1-.48438 0-.15625.15624-.25.34375-.29687.17187.01562.3125.01562.45312.01562 1.14063 0 1.8125-.60937 1.8125-1.45312 0-.21875-.0625-.42188-.15625-.5625l.67188-.09375.26562-.54688-.04687-.0625-1.1875.3125c-.23438-.14062-.65625-.23437-1.04688-.23437-1.40625 0-1.8125.875-1.8125 1.5 0 .57812.4375.9375.70313 1.03125-.29688.10937-.79688.3125-.79688.64062 0 .29688.34375.53125.625.64063C.96875-.20312.26563.125.26563.79688m.84375-.07813c0-.57812.5-.82812.79687-.875.51563.0625 1.45313.28125 1.45313.95313 0 .60937-.5.875-1.0625.875-.67188 0-1.1875-.35938-1.1875-.95313m.78125-3.17187c0-.53125.25-1.34375.96875-1.34375.23437 0 .60937.10937.60937.625 0 .75-.375 1.39062-.95312 1.39062-.42188 0-.625-.28125-.625-.67187m0 0"/><clipPath id="a"><path d="M0 .03516h248.65625V178H0Zm0 0"/></clipPath><clipPath id="g"><path d="M230 76h18.65625v26H230Zm0 0"/></clipPath><clipPath id="h"><path d="M111 .03516h26V18h-26Zm0 0"/></clipPath><clipPath id="i"><path d="M.39453.4336h247.86328v177.04296H.39453Zm0 0"/></clipPath></defs><g clip-path="url(#a)"><path fill="none" stroke="#000" stroke-miterlimit="10" stroke-opacity=".5" stroke-width=".39823" d="M.39456 159.77342h247.86322M.39456 124.36327h247.86322M.39456 88.95703h247.86322M.39456 53.54688h247.86322M.39456 18.13674h247.86322m-230.1562 159.3398V.43362m35.41015 177.04292V.43362m35.40625 177.04292V.43362m35.41014 177.04292V.43362m35.41015 177.04292V.43362m35.40624 177.04292V.43362m35.41015 177.04292V.43362"/></g><path fill="none" stroke="#000" stroke-miterlimit="10" stroke-opacity=".5" stroke-width=".39823" d="M124.32812 80.10547V97.8086"/><use xlink:href="#b" x="109.14655" y="104.86588" fill-opacity=".5"/><path fill="none" stroke="#000" stroke-miterlimit="10" stroke-opacity=".5" stroke-width=".39823" d="M18.10159 80.10547V97.8086"/><g fill-opacity=".5"><use xlink:href="#c" x="11.52803" y="101.32532"/><use xlink:href="#d" x="19.09939" y="101.32532"/></g><path fill="none" stroke="#000" stroke-miterlimit="10" stroke-opacity=".5" stroke-width=".39823" d="M53.51173 80.10547V97.8086"/><g fill-opacity=".5"><use xlink:href="#c" x="46.93656" y="101.38628"/><use xlink:href="#e" x="54.50791" y="101.38628"/></g><path fill="none" stroke="#000" stroke-miterlimit="10" stroke-opacity=".5" stroke-width=".39823" d="M88.91798 80.10547V97.8086"/><g fill-opacity=".5"><use xlink:href="#c" x="82.34508" y="101.38628"/><use xlink:href="#f" x="89.91644" y="101.38628"/></g><path fill="none" stroke="#000" stroke-miterlimit="10" stroke-opacity=".5" stroke-width=".39823" d="M159.73827 80.10547V97.8086"/><use xlink:href="#f" x="156.94751" y="101.38628" fill-opacity=".5"/><path fill="none" stroke="#000" stroke-miterlimit="10" stroke-opacity=".5" stroke-width=".39823" d="M195.14451 80.10547V97.8086"/><use xlink:href="#e" x="192.35604" y="101.38628" fill-opacity=".5"/><path fill="none" stroke="#000" stroke-miterlimit="10" stroke-opacity=".5" stroke-width=".39823" d="M230.55466 80.10547V97.8086"/><use xlink:href="#d" x="227.76556" y="101.32532" fill-opacity=".5"/><path fill="none" stroke="#000" stroke-miterlimit="10" stroke-width=".79646" d="M.39456 88.95703h241.69135"/><path d="M246.25 88.95703c-.51172-.10547-2.75781-.71094-4.16406-1.36328v2.72656c1.40625-.65625 3.65234-1.25781 4.16406-1.36328m0 0"/><g clip-path="url(#g)"><path fill="none" stroke="#000" stroke-miterlimit="10" stroke-width=".79646" d="M246.25 88.95703c-.51172-.10547-2.75781-.71094-4.16406-1.36328v2.72656c1.40625-.65625 3.65234-1.25781 4.16406-1.36328Zm0 0"/></g><path fill="none" stroke="#000" stroke-miterlimit="10" stroke-opacity=".5" stroke-width=".39823" d="M133.17969 159.77342h-17.70313"/><g fill-opacity=".5"><use xlink:href="#c" x="105.36017" y="163.35145"/><use xlink:href="#e" x="112.93153" y="163.35145"/></g><path fill="none" stroke="#000" stroke-miterlimit="10" stroke-opacity=".5" stroke-width=".39823" d="M133.17969 124.36327h-17.70313"/><g fill-opacity=".5"><use xlink:href="#c" x="105.36017" y="127.94293"/><use xlink:href="#f" x="112.93153" y="127.94293"/></g><path fill="none" stroke="#000" stroke-miterlimit="10" stroke-opacity=".5" stroke-width=".39823" d="M133.17969 53.54688h-17.70313"/><use xlink:href="#f" x="109.14655" y="57.12588" fill-opacity=".5"/><path fill="none" stroke="#000" stroke-miterlimit="10" stroke-opacity=".5" stroke-width=".39823" d="M133.17969 18.13674h-17.70313"/><use xlink:href="#e" x="109.14655" y="21.71735" fill-opacity=".5"/><path fill="none" stroke="#000" stroke-miterlimit="10" stroke-width=".79646" d="M124.32812 177.47654V6.6055"/><path d="M124.32813 2.44531c-.10547.51172-.70704 2.75782-1.36329 4.16016h2.72657c-.65625-1.40235-1.25782-3.64844-1.36329-4.16016m0 0"/><g clip-path="url(#h)"><path fill="none" stroke="#000" stroke-miterlimit="10" stroke-width=".79646" d="M124.32812 2.44531c-.10546.51172-.70703 2.75782-1.36328 4.16016h2.72657c-.65625-1.40234-1.25782-3.64844-1.36329-4.16016Zm0 0"/></g><g clip-path="url(#i)"><path fill="none" stroke="#FF7F00" stroke-miterlimit="10" stroke-width=".79646" d="M.39456 1607.11683s7.46484-260.039 10.32812-348.78117c2.86719-88.73826 7.46094-217.41401 10.32812-290.7968 2.8672-73.3828 7.46094-178.60153 10.32813-238.08589 2.86328-59.48826 7.46093-143.59371 10.32812-190.64839 2.86328-47.05468 7.46094-112.3945 10.32422-148.48043 2.86718-36.08202 7.46484-85.00389 10.32812-111.5781 2.86719-26.57421 7.46093-61.42577 10.32812-79.9531 2.86719-18.53125 7.46094-41.64843 10.32812-53.59765 2.86328-11.94531 7.46094-25.68359 10.32813-32.51171 2.86328-6.82812 7.46093-13.52734 10.32421-16.69531 2.86719-3.17187 7.46094-5.17578 10.32813-6.15234 2.86718-.97656 7.46093-.63672 10.32812-.8789 2.86719-.2461 7.46093.09765 10.32812-.87891 2.86328-.97266 7.46094-2.97657 10.32422-6.14453 2.86718-3.16797 7.46484-9.86328 10.32812-16.6875 2.86719-6.82422 7.46094-20.55078 10.32812-32.49609 2.86719-11.9414 7.46094-35.05077 10.32813-53.5742 2.86328-18.52343 7.46093-53.36327 10.32812-79.92967 2.86328-26.5664 7.46093-75.47655 10.32421-111.55076 2.8672-36.0742 7.46094-101.40232 10.32813-148.44527 2.86718-47.04296 7.46093-131.13669 10.32812-190.61324 2.86719-59.47264 7.46093-164.67574 10.32812-238.04291 2.86328-73.37108 7.46094-202.0273 10.32422-290.75384 2.86718-88.72654 10.32812-348.73039 10.32812-348.73039"/></g><use xlink:href="#j" x="79.15329" y="198.95884" fill="#FF7F00"/><use xlink:href="#k" x="88.69919" y="201.69694" fill="#FF7F00"/></svg>