<svg xmlns="http://www.w3.org/2000/svg" xmlns:xlink="http://www.w3.org/1999/xlink" width="286.466pt" height="231.136pt" viewBox="0 0 286.466 231.136"><defs><path id="b" d="M1.82813 0h5.51562v-.48437l-1.42187-.125c-.34375-.03126-.54688-.15626-.54688-.8125v-9.90625l-.09375-.07813-3.45312.57813v.42187l1.5625.1875c.28125.03125.39062.15625.39062.64063v8.15625c0 .65625-.15625.78125-.54687.8125l-1.40625.125Zm0 0"/><path id="c" d="M.45313-.15625.625 0h6.95313l.5625-2.21875-.46875-.07812c-.34375.90625-.6875 1.03125-1.375 1.03125H2.01563c.26562-.875 1.26562-2.07813 2.82812-3.20313 1.60938-1.17187 2.85938-1.92187 2.85938-3.79687 0-2.34375-1.5625-3.14063-3.32813-3.14063-2.29687 0-3.48437 1.39063-3.48437 2.26563 0 .5625.64062.84375.9375.84375.29687 0 .40625-.1875.46875-.46875.28125-1.14063.9375-2.0625 1.96875-2.0625 1.28125 0 1.65625 1.07812 1.65625 2.3125 0 1.79687-.90625 2.8125-2.375 4.10937-2.0625 1.79688-2.78125 2.9375-3.09375 4.25m0 0"/><path id="d" d="M.45313-1.71875C.45313-1 1.60938.20313 3.98438.20313c2.42187 0 3.96875-1.23438 3.96875-3.375 0-2.25-1.9375-2.92188-2.85938-3V-6.25C6-6.39062 7.45313-7.07812 7.45313-8.73437c0-1.85938-1.45313-2.67188-3.25-2.67188-2.21875 0-3.3125 1.28125-3.3125 2 0 .51563.59375.79688.82812.79688.20313 0 .32813-.125.40625-.34375.375-1.14063 1-1.875 1.95313-1.875 1.3125 0 1.65625 1.17187 1.65625 2.10937 0 1-.35938 2.26563-1.78125 2.26563-.8125 0-1.28125-.15625-1.46875-.15625-.21875 0-.3125.15625-.3125.46875 0 .28125.09375.46875.3125.46875.1875 0 .65625-.17188 1.46875-.17188 1.42187 0 2.21875 1.29688 2.21875 2.75 0 2-.96875 2.70313-2.17188 2.70313-1.10937 0-1.84375-.82813-2.15625-1.76563-.10937-.32812-.26562-.48437-.5-.48437-.3125 0-.89062.3125-.89062.92187m0 0"/><path id="e" d="M.32813-3.35937.46875-3h4.5625v1.71875c0 .5625-.17187.65625-.57812.6875L3.375-.48437V0h4.42188v-.48437l-.75-.09375c-.39063-.04688-.5-.14063-.5-.70313V-3h1.71875v-.78125H6.54688v-7.4375H5.32813c-1.57813 2.32813-3.46875 5.23438-5 7.85938m1.20312-.42188c1-1.82812 2.21875-3.76562 3.5-5.8125v5.8125Zm0 0"/><path id="f" d="M.70313-5.60937c0 3.35937.96875 5.8125 3.75 5.8125 2.76562 0 3.76562-2.45313 3.76562-5.8125s-1-5.79688-3.76562-5.79688c-2.78125 0-3.75 2.4375-3.75 5.79688m1.6875 0c0-2.73438.46875-5.21875 2.0625-5.21875C6.03125-10.82812 6.5-8.34375 6.5-5.60937S6.03125-.39062 4.45313-.39062c-1.59375 0-2.0625-2.48438-2.0625-5.21875m0 0"/><path id="i" d="M.60938-9.3125c0 1.64063 1.64062 2.92188 5.35937 2.92188-.60937 1.09375-1.0625 2.21875-1.0625 3.45312 0 2.04688 1.28125 3.15625 3.625 3.15625 2.28125 0 4.67188-1.64062 4.67188-3.76562 0-1.28125-1.0625-1.96875-2.39063-1.96875-1.46875 0-3.1875 1.64062-3.1875 2.95312 0 .40625.29688 1.15625.84375 1.15625.15625 0 .375-.125.375-.29687 0-.23438-.4375-.26563-.4375-.84375 0-.90625 1.34375-2.375 2.40625-2.375.75 0 1.21875.29687 1.21875 1.03125 0 1.64062-1.59375 3.51562-3.5 3.51562-1.34375 0-2.04687-.73437-2.04687-1.96875 0-1.39062.98437-3.01562 1.71875-4.20312 4.14062-.64063 8.20312-2.6875 8.20312-5.28125 0-.98438-.79687-1.64063-1.85937-1.64063-2.46875 0-6.17188 3.15625-8.21875 6.42188-1.6875-.01563-4.42188-.0625-4.42188-2.04688 0-1.82812 2.21875-3.23437 3.60938-3.23437.26562 0 .39062-.15625.39062-.3125s-.125-.28125-.29687-.28125c-2.07813 0-5 1.40625-5 3.60937m7.96875 2.03125C9.9375-9.6875 12.84375-12.875 14.54688-12.875c.65625 0 1.10937.375 1.10937.98438 0 2.09375-3.28125 4-7.07812 4.60937m0 0"/><path id="j" d="M-.28125 2.34375c.01563.46875.57813.8125 1.28125.8125 1.35938 0 1.98438-1.09375 2.53125-3.54687L4.75-5.85937h1.64063l.14062-.54688H4.82813l.39062-1.57812c.21875-.875.45313-1.21875.76563-1.21875s.53125.25.84375.92187c.07812.14063.1875.26563.40625.26563.3125 0 .71875-.26563.71875-.625 0-.5625-.73438-1.04688-1.59375-1.04688-1.64063 0-2.29688 1.1875-2.78125 2.85938l-.125.42187h-1.125l-.15625.54688h1.15625l-1.51563 7.75c-.125.67187-.25.76562-.375.76562-.14062 0-.35937-.125-.6875-.67187-.09375-.14063-.1875-.3125-.39062-.3125-.3125 0-.64063.32812-.64063.67187m0 0"/><clipPath id="a"><path d="M2 0h283.66797v227H2Zm0 0"/></clipPath><clipPath id="g"><path d="M267 185h18.66797v26H267Zm0 0"/></clipPath><clipPath id="h"><path d="M8 .39453h277.27344v225.92969H8Zm0 0"/></clipPath></defs><g clip-path="url(#a)"><path fill="none" stroke="#000" stroke-miterlimit="10" stroke-opacity=".5" stroke-width=".39702" d="M2.85937 198.08203h282.4141M2.85937 141.60155h282.4141M2.85937 85.11717h282.4141M2.85937 28.6367h282.4141M31.10157 226.32422V.3945m56.48047 225.92972V.3945m56.48438 225.92972V.3945m56.48048 225.92972V.3945m56.48438 225.92972V.3945"/></g><path fill="none" stroke="#000" stroke-miterlimit="10" stroke-opacity=".5" stroke-width=".39702" d="M87.58204 183.96484v28.23829"/><use xlink:href="#b" x="83.13465" y="217.91243" fill-opacity=".5"/><path fill="none" stroke="#000" stroke-miterlimit="10" stroke-opacity=".5" stroke-width=".39702" d="M144.06642 183.96484v28.23829"/><use xlink:href="#c" x="139.61652" y="217.91243" fill-opacity=".5"/><path fill="none" stroke="#000" stroke-miterlimit="10" stroke-opacity=".5" stroke-width=".39702" d="M200.5469 183.96484v28.23829"/><use xlink:href="#d" x="196.09839" y="217.8138" fill-opacity=".5"/><path fill="none" stroke="#000" stroke-miterlimit="10" stroke-opacity=".5" stroke-width=".39702" d="M257.03128 183.96484v28.23829"/><use xlink:href="#e" x="252.57926" y="217.8138" fill-opacity=".5"/><path fill="none" stroke="#000" stroke-miterlimit="10" stroke-opacity=".5" stroke-width=".39702" d="M45.22266 141.60155h-28.2422"/><use xlink:href="#b" x="6.88368" y="147.31035" fill-opacity=".5"/><path fill="none" stroke="#000" stroke-miterlimit="10" stroke-opacity=".5" stroke-width=".39702" d="M45.22266 85.11717h-28.2422"/><use xlink:href="#c" x="6.88368" y="90.82848" fill-opacity=".5"/><path fill="none" stroke="#000" stroke-miterlimit="10" stroke-opacity=".5" stroke-width=".39702" d="M45.22266 28.6367h-28.2422"/><use xlink:href="#d" x="6.88368" y="34.24798" fill-opacity=".5"/><path fill="none" stroke="#000" stroke-miterlimit="10" stroke-opacity=".5" stroke-width=".39702" d="M31.10156 183.96484v28.23829"/><use xlink:href="#f" x="6.88368" y="223.46268" fill-opacity=".5"/><path fill="none" stroke="#000" stroke-miterlimit="10" stroke-width=".79405" d="M2.85937 198.08203h276.25785"/><path d="M283.26563 198.08203c-.50782-.10547-2.7461-.70312-4.14844-1.35937v2.71875c1.40234-.65235 3.64062-1.25391 4.14844-1.35938m0 0"/><g clip-path="url(#g)"><path fill="none" stroke="#000" stroke-miterlimit="10" stroke-width=".79405" d="M283.26562 198.08203c-.5078-.10547-2.74609-.70312-4.14843-1.35937v2.71875c1.40234-.65235 3.64062-1.25391 4.14843-1.35938Zm0 0"/></g><path fill="none" stroke="#000" stroke-miterlimit="10" stroke-width=".79405" d="M31.10156 226.32422V6.54685"/><path stroke="#000" stroke-miterlimit="10" stroke-width=".79405" d="M31.10156 2.39844c-.10547.51172-.70703 2.75-1.35937 4.14843h2.71875c-.65235-1.39843-1.2539-3.63671-1.35938-4.14843Zm0 0"/><g clip-path="url(#h)"><path fill="none" stroke="#007F7F" stroke-miterlimit="10" stroke-width=".79405" d="M19.80469.3945s1.89062.8125 11.29687 28.2422c9.40235 27.42969 32.97266 161.6094 56.48048 169.44533 23.51172 7.83985 89.45704-112.96486 112.96486-112.96486 23.51172 0 44.73047 93.37501 56.48438 112.96486 11.7539 19.59375 28.2422 28.2422 28.2422 28.2422"/></g><use xlink:href="#i" x="57.36897" y="89.77342" fill="#007F7F"/><use xlink:href="#j" x="72.59405" y="94.1411" fill="#007F7F"/></svg>