<svg xmlns="http://www.w3.org/2000/svg" xmlns:xlink="http://www.w3.org/1999/xlink" width="234.866pt" height="295.601pt" viewBox="0 0 234.866 295.601"><defs><path id="b" d="M.5-4.0625C.5-1.625 1.21875.14063 3.21875.14063c2.01563 0 2.73438-1.76563 2.73438-4.20313s-.71875-4.20312-2.73438-4.20312C1.21875-8.26562.5-6.5.5-4.0625m1.23438 0c0-1.98437.32812-3.78125 1.48437-3.78125S4.70313-6.04687 4.70313-4.0625c0 1.98438-.32813 3.78125-1.48438 3.78125S1.73438-2.07812 1.73438-4.0625m0 0"/><path id="l" d="M.40625-6.0625c0 1.0625 1.0625 1.89063 3.48438 1.89063-.39063.71875-.6875 1.45312-.6875 2.25 0 1.34375.82812 2.0625 2.35937 2.0625 1.48438 0 3.04688-1.07813 3.04688-2.45313 0-.82812-.6875-1.28125-1.5625-1.28125-.95313 0-2.07813 1.07813-2.07813 1.92188 0 .26562.1875.75.5625.75.09375 0 .23438-.07813.23438-.1875 0-.15626-.28125-.17188-.28125-.54688 0-.59375.875-1.54687 1.5625-1.54687.5 0 .79687.1875.79687.67187C7.84375-1.46875 6.8125-.25 5.5625-.25c-.875 0-1.32812-.46875-1.32812-1.28125 0-.90625.625-1.96875 1.10937-2.73437 2.70313-.42188 5.35938-1.75 5.35938-3.4375 0-.65625-.51563-1.07813-1.21875-1.07813-1.60938 0-4.03125 2.04688-5.35938 4.1875-1.09375-.01562-2.89062-.03125-2.89062-1.32812 0-1.1875 1.45312-2.10938 2.35937-2.10938.17188 0 .26563-.10937.26563-.20312 0-.10938-.09375-.1875-.20313-.1875-1.35937 0-3.25.92187-3.25 2.35937M5.59375-4.75C6.48438-6.3125 8.375-8.39062 9.48438-8.39062c.42187 0 .71875.23437.71875.64062 0 1.35938-2.125 2.59375-4.60938 3m0 0"/><path id="o" d="m1.76563-1.3125.5.5L4.375-2.9375 6.5-.8125l.48438-.5L4.875-3.42187l2.10938-2.125-.48438-.5L4.375-3.9375 2.26563-6.04687l-.5.5 2.10937 2.125Zm0 0"/><path id="c" d="M1.1875 0h3.59375v-.3125l-.92187-.07812C3.625-.42187 3.5-.5 3.5-.9375V-7.375l-.04687-.0625-2.26563.39063v.26562l1.03125.125c.17188.01563.25.10938.25.42188V-.9375c0 .4375-.10937.51563-.35937.54688L1.1875-.3125Zm0 0"/><path id="d" d="M.29688-.10937.40625 0H4.9375l.375-1.4375L5-1.5c-.23437.59375-.45312.67188-.89062.67188H1.3125c.17188-.5625.82813-1.34375 1.84375-2.07813 1.04688-.76562 1.85938-1.26562 1.85938-2.48437C5.01563-6.92187 4-7.4375 2.85938-7.4375c-1.51563 0-2.28125.90625-2.28125 1.48438 0 .35937.42187.54687.60937.54687.20313 0 .26563-.125.3125-.3125.17188-.73437.60938-1.32812 1.28125-1.32812.84375 0 1.07813.6875 1.07813 1.5 0 1.17187-.59375 1.82812-1.54688 2.67187C.96875-1.70312.5-.95312.29688-.10937m0 0"/><path id="e" d="M.29688-1.125c0 .46875.75 1.25 2.29687 1.25 1.57813 0 2.59375-.79687 2.59375-2.20312 0-1.45313-1.26562-1.89063-1.875-1.95313v-.04687c.59375-.09375 1.54688-.53125 1.54688-1.60938 0-1.21875-.95313-1.75-2.125-1.75-1.4375 0-2.15625.84375-2.15625 1.29688 0 .34375.39062.53125.54687.53125.125 0 .21875-.07813.26563-.21875.23437-.75.64062-1.21875 1.26562-1.21875.85938 0 1.07813.75 1.07813 1.35937 0 .65625-.23438 1.48438-1.15625 1.48438-.53125 0-.82813-.10938-.95313-.10938-.14062 0-.20312.10938-.20312.3125 0 .1875.0625.29688.20312.29688.125 0 .42188-.10938.95313-.10938.92187 0 1.45312.84375 1.45312 1.79688C4.03125-.70312 3.39063-.25 2.60938-.25c-.71875 0-1.20313-.54687-1.40625-1.15625-.07813-.21875-.17188-.3125-.32813-.3125-.20312 0-.57812.20313-.57812.59375m0 0"/><path id="f" d="m.20313-2.1875.09375.23438h2.98437v1.10937c0 .375-.10937.4375-.375.45313l-.70312.07812V0h2.89062v-.3125l-.5-.0625c-.25-.03125-.32812-.09375-.32812-.46875v-1.10937h1.125v-.51563h-1.125V-7.3125h-.79688C2.4375-5.79687 1.20313-3.90625.20313-2.1875M1-2.46875C1.65625-3.65625 2.4375-4.92187 3.28125-6.25v3.78125Zm0 0"/><path id="g" d="M.4375-1.125c0 .51563.76563 1.25 2.1875 1.25C4.4375.125 5.25-.96875 5.25-2.34375c0-1.54687-.95312-2.32812-2.26562-2.32812-.59375 0-1.26563.26562-1.60938.59375l.25-2.07813c.03125-.28125.09375-.3125.3125-.3125h2.71875l.26563-.75-.0625-.09375H1.20313l-.09376.10938-.21874 3.65625.26562.14062c.45313-.53125.89063-.78125 1.48438-.78125.70312 0 1.46875.51563 1.46875 1.95313 0 1.125-.45313 1.98437-1.40625 1.98437-.76563 0-1.15625-.54687-1.375-1.1875-.0625-.15625-.17188-.26562-.3125-.26562-.21876 0-.57813.21874-.57813.57812m0 0"/><path id="i" d="M.9375-2.76562h6.01563v-.64063H.9375Zm0 0"/><path id="m" d="M-.1875 1.53125c.01563.29688.375.51563.84375.51563.875 0 1.28125-.70313 1.64063-2.29688l.79687-3.5625h1.0625L4.25-4.17187H3.14063l.26562-1.03125c.14063-.5625.28125-.78125.5-.78125.1875 0 .34375.15625.53125.59375.0625.09375.125.17187.28125.17187.1875 0 .45313-.17187.45313-.40625 0-.375-.46875-.6875-1.03125-.6875-1.0625 0-1.5.78125-1.8125 1.85938L2.25-4.17187h-.73437l-.10938.35937h.76563l-1 5.04688c-.07813.4375-.15626.5-.23438.5-.09375 0-.23437-.09376-.45312-.4375-.0625-.09376-.125-.21876-.25-.21876-.20313 0-.42188.21876-.42188.45313m0 0"/><clipPath id="a"><path d="M31 0h203.64063v295.20313H31Zm0 0"/></clipPath><clipPath id="h"><path d="M216 190h18.64063v26H216Zm0 0"/></clipPath><clipPath id="j"><path d="M31 6h2v289.20313h-2Zm0 0"/></clipPath><clipPath id="k"><path d="M13.4375.39453h220.8086V264H13.4375Zm0 0"/></clipPath><clipPath id="n"><path d="M13 165h221.64063v2H13Zm0 0"/></clipPath></defs><g clip-path="url(#a)"><path fill="none" stroke="#7f7f7f" stroke-dasharray=".39796202500000005 .9949350220000001" stroke-miterlimit="10" stroke-width=".39796" d="M31.83594 276.40625h202.41015M31.83594 239.60156h202.41015M31.83594 202.80078h202.41015M31.83594 166h202.41015M31.83594 129.19922h202.41015M31.83594 92.39844h202.41015M31.83594 55.59766h202.41015M31.83594 18.79688h202.41015M31.83594 294.80468V.39455M68.64062 294.8047V.39454m36.80078 294.41015V.39454m36.80078 294.41015V.39454m36.80078 294.41015V.39454m36.80078 294.41015V.39454"/></g><use xlink:href="#b" x="15.73727" y="219.74439" fill="#7f7f7f"/><path fill="none" stroke="#7f7f7f" stroke-miterlimit="10" stroke-width=".39796" d="M68.64062 193.60156v18.40235"/><use xlink:href="#c" x="65.74077" y="224.01063" fill="#7f7f7f"/><path fill="none" stroke="#7f7f7f" stroke-miterlimit="10" stroke-width=".39796" d="M105.4414 193.60156v18.40235"/><use xlink:href="#d" x="102.5411" y="224.01063" fill="#7f7f7f"/><path fill="none" stroke="#7f7f7f" stroke-miterlimit="10" stroke-width=".39796" d="M142.24218 193.60156v18.40235"/><use xlink:href="#e" x="139.34143" y="224.01063" fill="#7f7f7f"/><path fill="none" stroke="#7f7f7f" stroke-miterlimit="10" stroke-width=".39796" d="M179.04296 193.60156v18.40235"/><use xlink:href="#f" x="176.14275" y="223.8828" fill="#7f7f7f"/><path fill="none" stroke="#7f7f7f" stroke-miterlimit="10" stroke-width=".39796" d="M215.84374 193.60156v18.40235"/><use xlink:href="#g" x="212.94308" y="223.8828" fill="#7f7f7f"/><path fill="none" stroke="#000" stroke-miterlimit="10" stroke-width=".79593" d="M13.4375 202.80078h214.63671"/><path d="M232.23438 202.80078c-.51172-.10547-2.75391-.70703-4.16016-1.35937v2.72265c1.40625-.65234 3.64844-1.2539 4.16016-1.36328m0 0"/><g clip-path="url(#h)"><path fill="none" stroke="#000" stroke-miterlimit="10" stroke-width=".79593" d="M232.23437 202.80078c-.51171-.10547-2.7539-.70703-4.16015-1.35937v2.72265c1.40625-.65234 3.64844-1.2539 4.16015-1.36328Zm0 0"/></g><path fill="none" stroke="#7f7f7f" stroke-miterlimit="10" stroke-width=".39796" d="M41.03906 276.40625H22.63672"/><g fill="#7f7f7f"><use xlink:href="#i" x="4.40257" y="280.12289"/><use xlink:href="#d" x="12.2716" y="280.12289"/></g><path fill="none" stroke="#7f7f7f" stroke-miterlimit="10" stroke-width=".39796" d="M41.03906 239.60156H22.63672"/><g fill="#7f7f7f"><use xlink:href="#i" x="4.40257" y="243.32256"/><use xlink:href="#c" x="12.2716" y="243.32256"/></g><path fill="none" stroke="#7f7f7f" stroke-miterlimit="10" stroke-width=".39796" d="M41.03906 166H22.63672"/><use xlink:href="#c" x="12.27095" y="169.72091" fill="#7f7f7f"/><path fill="none" stroke="#7f7f7f" stroke-miterlimit="10" stroke-width=".39796" d="M41.03906 129.19922H22.63672"/><use xlink:href="#d" x="12.27095" y="132.92058" fill="#7f7f7f"/><path fill="none" stroke="#7f7f7f" stroke-miterlimit="10" stroke-width=".39796" d="M41.03906 92.39844H22.63672"/><use xlink:href="#e" x="12.27095" y="96.05535" fill="#7f7f7f"/><path fill="none" stroke="#7f7f7f" stroke-miterlimit="10" stroke-width=".39796" d="M41.03906 55.59766H22.63672"/><use xlink:href="#f" x="12.27095" y="59.25502" fill="#7f7f7f"/><path fill="none" stroke="#7f7f7f" stroke-miterlimit="10" stroke-width=".39796" d="M41.03906 18.79688H22.63672"/><use xlink:href="#g" x="12.27095" y="22.38978" fill="#7f7f7f"/><g clip-path="url(#j)"><path fill="none" stroke="#000" stroke-miterlimit="10" stroke-width=".79593" d="M31.83594 294.80469V6.5625"/></g><path stroke="#000" stroke-miterlimit="10" stroke-width=".79593" d="M31.83594 2.40625c-.10547.50781-.70703 2.7539-1.35938 4.15625h2.72266c-.65235-1.40234-1.2539-3.64844-1.36328-4.15625Zm0 0"/><g clip-path="url(#k)"><path fill="none" stroke="#007f7f" stroke-miterlimit="10" stroke-width=".79593" d="M13.4375-329.89452s6.64844 58.51953 9.19922 84.78906c2.55469 26.27344 6.64844 75.53906 9.19922 104.55078 2.55468 29.01172 6.64843 78.28125 9.20312 104.55078 2.55078 26.27344 6.64453 63.76562 9.19922 84.79297s6.64844 50.49609 9.19922 66.76171C61.99219 131.8125 66.08594 154.02344 68.64062 166c2.55079 11.97656 6.64453 27.70313 9.19922 35.8711 2.55078 8.16796 6.64844 18.17187 9.19922 23.01171 2.55469 4.83985 6.64844 9.89063 9.19922 11.8789 2.55469 1.9922 6.64844 2.85548 9.20312 2.47266 2.55078-.3789 6.64454-2.9375 9.19922-5.20703 2.55469-2.27343 6.64844-7.48047 9.19922-11.16797 2.55469-3.6875 6.64844-10.77734 9.19922-15.39843 2.55469-4.6211 6.64844-12.82813 9.20312-17.90625 2.55079-5.07813 6.64454-13.63281 9.19922-18.6875s6.64844-13.1914 9.19922-17.7461c2.55469-4.55468 6.64844-11.5039 9.20313-15.07812 2.55078-3.57422 6.64453-8.5664 9.19921-10.6836 2.55079-2.11327 6.64844-4.38671 9.19922-4.5625 2.5547-.17968 6.64844 1.03907 9.19922 3.27735 2.55469 2.23438 6.64844 7.71484 9.20313 12.84375 2.55078 5.13281 6.64453 15.63672 9.19921 24.14062 2.5547 8.50391 6.64844 24.80079 9.19922 37.16016 2.5547 12.35547 9.20313 51.89844 9.20313 51.89844"/></g><use xlink:href="#l" x="93.82487" y="252.61802" fill="#007f7f"/><use xlink:href="#m" x="103.74608" y="255.46378" fill="#007f7f"/><g clip-path="url(#n)"><path fill="none" stroke="#000" stroke-dasharray="2.9847950795 2.9847950795" stroke-miterlimit="10" stroke-width=".79593" d="M13.4375 166h220.8086"/></g><use xlink:href="#o" x="64.26676" y="169.02186"/><use xlink:href="#o" x="149.27702" y="169.02186"/><use xlink:href="#o" x="211.47007" y="169.02186"/></svg>