<svg xmlns="http://www.w3.org/2000/svg" xmlns:xlink="http://www.w3.org/1999/xlink" width="322.224" height="259.978" viewBox="0 0 322.224 259.978"><defs><path id="b" d="M2.04688 0h6.21875v-.54687L6.6875-.6875c-.40625-.03125-.625-.17187-.625-.92187v-11.15625l-.10937-.09375-3.90625.65625v.46875l1.78125.21875c.3125.04687.4375.1875.4375.73437v9.17188c0 .75-.1875.89062-.625.92187l-1.59375.14063Zm0 0"/><path id="c" d="M.5-.1875.70313 0h7.82812l.64063-2.5-.51563-.09375C8.25-1.5625 7.875-1.42187 7.10938-1.42187H2.28125c.29688-1 1.42188-2.34375 3.17188-3.60938 1.8125-1.32812 3.21875-2.17187 3.21875-4.28125 0-2.64062-1.75-3.54687-3.73438-3.54687-2.60937 0-3.9375 1.5625-3.9375 2.5625 0 .64062.73438.9375 1.04688.9375.34375 0 .46875-.20313.54687-.51563.29688-1.29687 1.04688-2.32812 2.21875-2.32812 1.45313 0 1.875 1.21875 1.875 2.60937 0 2.03125-1.03125 3.17188-2.6875 4.625C1.67188-2.9375.85938-1.65625.5-.1875m0 0"/><path id="d" d="M.5-1.9375C.5-1.125 1.8125.21875 4.48438.21875c2.73437 0 4.46875-1.39062 4.46875-3.79687 0-2.54688-2.17188-3.28125-3.21875-3.39063v-.07812c1.03125-.15625 2.65625-.92188 2.65625-2.79688 0-2.09375-1.625-3.01562-3.65625-3.01562-2.5 0-3.73438 1.45312-3.73438 2.25 0 .59375.67188.90625.9375.90625.23438 0 .375-.14063.45313-.375.42187-1.29688 1.125-2.125 2.20312-2.125 1.48438 0 1.85938 1.3125 1.85938 2.375 0 1.14062-.39063 2.5625-2 2.5625-.90625 0-1.4375-.1875-1.65625-.1875-.23438 0-.34375.1875-.34375.53125 0 .32812.10937.51562.34375.51562.21875 0 .75-.17187 1.65625-.17187 1.60937 0 2.51562 1.45312 2.51562 3.09375 0 2.25-1.10937 3.04687-2.45312 3.04687-1.25 0-2.07813-.9375-2.4375-2-.125-.35937-.3125-.54687-.5625-.54687C1.17188-2.98437.5-2.60937.5-1.9375m0 0"/><path id="e" d="m.35938-3.78125.15625.40625h5.15625v1.92188c0 .64062-.20313.75-.65625.78125l-1.21875.125V0h5v-.54687l-.84375-.09376c-.45313-.0625-.5625-.17187-.5625-.8125V-3.375H9.3125v-.89062H7.39063v-8.375H6c-1.78125 2.625-3.90625 5.90625-5.64062 8.85937m1.375-.48437c1.125-2.04688 2.48437-4.25 3.9375-6.54688v6.54688Zm0 0"/><path id="f" d="M.78125-6.3125c0 3.78125 1.10938 6.53125 4.23438 6.53125C8.125.21875 9.25-2.53125 9.25-6.3125c0-3.79687-1.125-6.54687-4.23437-6.54687-3.125 0-4.23438 2.75-4.23438 6.54687m1.92188 0c0-3.07812.51562-5.89062 2.3125-5.89062 1.78125 0 2.3125 2.8125 2.3125 5.89062s-.53125 5.875-2.3125 5.875c-1.79688 0-2.3125-2.79687-2.3125-5.875m0 0"/><path id="j" d="M.6875-10.48437c0 1.82812 1.84375 3.28125 6.04688 3.28125-.70313 1.23437-1.21875 2.5-1.21875 3.89062C5.51563-1 6.96875.25 9.60938.25 12.1875.25 14.875-1.60937 14.875-4c0-1.4375-1.1875-2.21875-2.6875-2.21875-1.65625 0-3.59375 1.85938-3.59375 3.32813 0 .45312.32813 1.29687.95313 1.29687.17187 0 .42187-.125.42187-.32812 0-.26563-.48437-.29688-.48437-.9375 0-1.03125 1.5-2.6875 2.70312-2.6875.84375 0 1.35938.34375 1.35938 1.17187 0 1.84375-1.78125 3.95313-3.9375 3.95313-1.51563 0-2.29688-.82813-2.29688-2.21875 0-1.5625 1.09375-3.39063 1.92188-4.73438 4.67187-.71875 9.25-3.01562 9.25-5.95312 0-1.10938-.89063-1.85938-2.09376-1.85938-2.78124 0-6.95312 3.5625-9.26562 7.25C5.23438-7.95312 2.14063-8 2.14063-10.23437c0-2.0625 2.51562-3.65625 4.07812-3.65625.28125 0 .4375-.17188.4375-.35938 0-.17187-.15625-.3125-.32812-.3125-2.34375 0-5.64063 1.59375-5.64063 4.07813m8.96875 2.28125c1.54688-2.70313 4.8125-6.3125 6.73438-6.3125.73437 0 1.25.42187 1.25 1.125 0 2.34375-3.6875 4.48437-7.98438 5.1875m0 0"/><path id="k" d="M-.3125 2.64063c.01563.51562.64063.90625 1.4375.90625 1.53125 0 2.23438-1.21875 2.85938-3.98438l1.375-6.17187h1.84375l.15625-.60938H5.45313L5.89063-9c.25-.98437.5-1.35937.85937-1.35937.34375 0 .59375.28125.9375 1.03125.09375.15625.21875.29687.46875.29687.34375 0 .79688-.29687.79688-.70312 0-.64063-.8125-1.17188-1.78125-1.17188-1.84375 0-2.59375 1.32813-3.125 3.20313l-.15625.48437H2.625l-.1875.60938H3.75L2.03125 2.125c-.14062.75-.28125.85938-.42187.85938-.15626 0-.39063-.14063-.76563-.75C.73438 2.07813.625 1.875.40625 1.875c-.35937 0-.71875.375-.71875.76563m0 0"/><clipPath id="a"><path d="M2 .30078h319.44922V256H2Zm0 0"/></clipPath><clipPath id="g"><path d="M317 219h4.44922v8H317Zm0 0"/></clipPath><clipPath id="h"><path d="M31 .30078h8V5h-8Zm0 0"/></clipPath><clipPath id="i"><path d="M10 .69531h311.05469v254.50782H10Zm0 0"/></clipPath></defs><g clip-path="url(#a)"><path fill="none" stroke="#000" stroke-miterlimit="10" stroke-opacity=".5" stroke-width=".39754" d="M2.92186 223.39062h318.13296M2.92186 159.7656h318.13296M2.92186 96.13666h318.13296M2.92186 32.51163h318.13296M34.73438 255.20313V.69522M98.3633 255.20314V.6952m63.62503 254.50793V.6952m63.62894 254.50793V.6952m63.62503 254.50793V.6952"/></g><path fill="none" stroke="#000" stroke-miterlimit="10" stroke-opacity=".5" stroke-width=".39754" d="M98.36331 207.48437v31.81251"/><use xlink:href="#b" x="93.34919" y="245.72827" fill-opacity=".5"/><path fill="none" stroke="#000" stroke-miterlimit="10" stroke-opacity=".5" stroke-width=".39754" d="M161.98834 207.48437v31.81251"/><use xlink:href="#c" x="156.97496" y="245.72827" fill-opacity=".5"/><path fill="none" stroke="#000" stroke-miterlimit="10" stroke-opacity=".5" stroke-width=".39754" d="M225.61728 207.48437v31.81251"/><use xlink:href="#d" x="220.60173" y="245.61754" fill-opacity=".5"/><path fill="none" stroke="#000" stroke-miterlimit="10" stroke-opacity=".5" stroke-width=".39754" d="M289.24231 207.48437v31.81251"/><use xlink:href="#e" x="284.22751" y="245.61754" fill-opacity=".5"/><path fill="none" stroke="#000" stroke-miterlimit="10" stroke-opacity=".5" stroke-width=".39754" d="M50.64063 159.7656H18.82812"/><use xlink:href="#b" x="7.45305" y="166.19481" fill-opacity=".5"/><path fill="none" stroke="#000" stroke-miterlimit="10" stroke-opacity=".5" stroke-width=".39754" d="M50.64063 96.13666H18.82812"/><use xlink:href="#c" x="7.45305" y="102.56903" fill-opacity=".5"/><path fill="none" stroke="#000" stroke-miterlimit="10" stroke-opacity=".5" stroke-width=".39754" d="M50.64063 32.51163H18.82812"/><use xlink:href="#d" x="7.45305" y="38.83153" fill-opacity=".5"/><path fill="none" stroke="#000" stroke-miterlimit="10" stroke-opacity=".5" stroke-width=".39754" d="M34.73438 207.48437v31.81251"/><use xlink:href="#f" x="7.45305" y="251.98021" fill-opacity=".5"/><path fill="none" stroke="#000" stroke-miterlimit="10" stroke-width=".7951" d="M2.92186 223.39062h317.34"/><g clip-path="url(#g)"><path fill="none" stroke="#000" stroke-linecap="round" stroke-linejoin="round" stroke-miterlimit="10" stroke-width=".7951" d="M318.11328 220.28906c.46484 1.85938 1.5 2.73828 2.54688 3.10156-1.04688.36329-2.08204 1.2422-2.54688 3.10547"/></g><path fill="none" stroke="#000" stroke-miterlimit="10" stroke-width=".7951" d="M34.73438 255.20314V1.49208"/><g clip-path="url(#h)"><path fill="none" stroke="#000" stroke-linecap="round" stroke-linejoin="round" stroke-miterlimit="10" stroke-width=".7951" d="M31.63281 3.63672c1.85938-.46484 2.73828-1.5 3.10157-2.54297.36328 1.04297 1.24218 2.07813 3.10156 2.54297"/></g><g clip-path="url(#i)"><path fill="none" stroke="#007F7F" stroke-miterlimit="10" stroke-width=".7951" d="M22.0078.6952s2.13282.91798 12.72658 31.81643 37.14454 182.05087 63.62893 190.879S199.1329 96.13665 225.61728 96.13665s50.38284 105.18364 63.62503 127.25396 31.81251 31.81252 31.81251 31.81252"/></g><use xlink:href="#j" x="64.32509" y="101.3809" fill="#007F7F"/><use xlink:href="#k" x="81.47603" y="106.2988" fill="#007F7F"/></svg>