<svg xmlns="http://www.w3.org/2000/svg" xmlns:xlink="http://www.w3.org/1999/xlink" width="516.405pt" height="148.068pt" viewBox="0 0 516.405 148.068"><defs><path id="h" d="M-.125-7.92187c.625.03125.76563.10937.9375.625L3.29688 0h1.5625l1.46875-4.21875c.45312-1.32812.89062-2.5 1.07812-2.98437.25-.57813.34375-.65625 1.04688-.71875V-8.375H5.59375v.45313l.6875.0625c.25.03125.28125.14062.21875.40625-.125.39062-.39062 1.40625-.76562 2.51562-.25.73438-.78125 2.51563-1.01563 3.14063h-.0625l-1.84375-5.625c-.07812-.25-.0625-.40625.21875-.4375l.59375-.0625V-8.375h-3.75Zm0 0"/><path id="i" d="M.59375-1.625c0 .90625.59375 1.76563 1.82813 1.76563.79687 0 1.34375-.40625 1.78125-.6875.15625.35937.375.6875.96875.6875.64062 0 1.40625-.20313 1.8125-.35938L6.96875-.625c-.15625.01563-.4375 0-.60937-.0625-.17188-.04687-.40625-.1875-.40625-.89062V-4.375c0-.76562-.09375-1.70312-2.28125-1.70312-1.8125 0-2.9375.70312-2.9375 1.5 0 .51562.78125.75 1.10937.75.26563 0 .40625-.1875.51563-.48438.34375-1.03125.75-1.20312 1.09375-1.20312.35937 0 .6875.20312.6875.89062v.64063c-.42188.29687-1.45313.57812-2.25.85937-.96875.32813-1.29688.8125-1.29688 1.5m1.875-.1875c0-.5625.20313-.85937.57813-1.0625.375-.20312.79687-.375 1.09375-.5v1.75c-.01563.65625-.40625.82813-.73438.82813-.5 0-.9375-.375-.9375-1.01563m0 0"/><path id="j" d="M.29688 0h3.46875v-.46875C3.0625-.5 2.98438-.54687 2.98438-1.0625v-7.82812L2.875-8.96875l-2.48437.3125v.4375l.42187.0625c.20313.04688.29688.14063.29688.64063v6.45312c0 .51563-.09376.5625-.8125.59375Zm0 0"/><path id="k" d="M.48438-2.96875C.48438-1.3125 1.21875.14063 3.5.14063c1.46875 0 2.28125-.6875 2.6875-1.76563L5.75-1.85937c-.375.6875-.89062 1.07812-1.64062 1.07812-1.23438 0-1.67188-1-1.67188-2.26562h3.20313c.45312 0 .65625-.125.65625-.5 0-1-.39063-2.53125-2.76563-2.53125-2.21875 0-3.04687 1.42187-3.04687 3.10937M2.4375-3.625c0-.875.23438-1.89062 1.04688-1.89062.73437 0 .875.92187.875 1.48437 0 .34375-.09375.40625-.375.40625Zm0 0"/><path id="l" d="m.375-5.29687.42188.0625c.20312.03125.28124.125.28124.60937v2.95313c0 1.42187.89063 1.8125 1.78126 1.8125 1.04687 0 1.6875-.54688 2.1875-.82813L5.15625 0h2.5625v-.46875C7.01563-.5 6.9375-.54687 6.9375-1.0625V-6l-.10937-.07812-2.5.34375v.4375l.4375.0625c.20312.03125.28125.125.28125.60937v2.5625c0 .20313 0 .5-.07813.6875-.125.28125-.45312.5625-.98437.5625-.65625 0-1.04688-.375-1.04688-1.3125V-6l-.09375-.07812L.375-5.73437Zm0 0"/><path id="m" d="M.39063 0H4.125v-.46875c-.95312-.04687-1.07812-.07812-1.07812-.59375V-3.75c0-.625.10937-.92187.42187-.92187.1875 0 .375.09375.65625.25.15625.125.32813.20312.5625.20312.25 0 .5-.14062.625-.3125.14063-.1875.20313-.42187.20313-.70312 0-.51563-.34375-.84375-.85938-.84375-.51562 0-.90625.32812-1.625 1.0625l-.17187-1.0625-2.40625.34375v.4375l.4375.0625c.20312.03125.29687.125.29687.60937v3.5625c0 .51563-.07812.5625-.79687.59375Zm0 0"/><path id="n" d="M.48438-2.85937c0 1.76562.9375 3 2.5 3 .45312 0 1.10937-.23438 1.78125-.75V0h2.65625v-.46875c-.71875-.03125-.8125-.07812-.8125-.59375v-7.82812l-.07813-.07813-2.5.3125v.4375l.4375.0625c.1875.04688.29688.14063.29688.64063v1.59375c-.28125-.10938-.625-.15625-1.04688-.15625-.92187 0-1.75.26562-2.3125.78125-.57812.53125-.92187 1.34375-.92187 2.4375m1.95312-.25c0-1.76563.6875-2.40625 1.375-2.40625.48438 0 .73438.23437.84375.48437.125.17188.10938.4375.10938.6875v2.5c0 .48438-.1875 1.0625-.96875 1.0625C3-.78125 2.4375-1.5625 2.4375-3.10937m0 0"/><path id="p" d="M.59375-2.73437.78125-.5625c.64063.5625 1.85938.75 2.67188.75 2.46875-.03125 3.1875-1.32812 3.1875-2.59375C6.64063-4 5.45313-4.625 4.3125-5.07812c-.8125-.34375-1.84375-.78125-1.84375-1.6875C2.46875-7.53125 3.01563-8 3.75-8c.79688 0 1.54688.54688 1.89063 1.96875h.45312v-1.98437c-.64062-.39063-1.57812-.54688-2.32812-.54688C1.6875-8.5625.70313-7.5.70313-6.07812c0 1.5 1.35937 2.15625 2.45312 2.60937 1.125.45313 1.64063 1 1.64063 1.76563C4.78125-.79687 4.20313-.375 3.40625-.375c-.9375 0-1.89062-.82812-2.35937-2.35937Zm0 0"/><path id="q" d="M.9375-7.65625c0 .57813.42188 1.0625 1.10938 1.0625s1.15625-.48437 1.15625-1.0625c0-.57812-.45313-1.0625-1.15625-1.0625-.6875 0-1.10938.48438-1.10938 1.0625M.39063 0H3.875v-.46875C3.15625-.5 3.04688-.54687 3.04688-1.0625V-6l-.0625-.07812-2.53125.34375v.4375l.4375.0625c.20312.03125.29687.125.29687.60937v3.5625c0 .51563-.07812.5625-.79687.59375Zm0 0"/><path id="r" d="M.39063 1.15625c0 1.17188 1.29687 1.76563 3.04687 1.76563.54688 0 1.4375-.10938 2.04688-.4375C6.17188 2.14063 6.625 1.5 6.625.625c0-1.45312-1.14062-1.90625-2.4375-1.90625H3.04688c-.60938 0-.82813-.1875-.82813-.40625 0-.26562.3125-.39062.48438-.4375.23437.03125.42187.01563.5625.01563 1.45312 0 2.76562-.51563 2.76562-1.95313 0-.35937-.14062-.73437-.29687-.95312l.8125-.14063.25-.90625-.10938-.125-1.5625.51563c-.40625-.23438-1.09375-.40625-1.76562-.40625-2.21875 0-2.875 1.125-2.875 2.0625 0 1 .76562 1.60937 1.51562 1.71875v.03125c-.8125.1875-1.32812.625-1.32812 1.125 0 .51562.59375 1.01562 1.14062 1.125v.03125C1.29688.125.39063.34375.39063 1.15625m1.64062-.10937c0-.34375.15625-.5625.32813-.67188.17187-.125.54687-.1875 1.09375-.1875C4.5.1875 5.125.42188 5.125 1.15625c0 .85938-.67187 1.21875-1.5 1.21875-.82812 0-1.59375-.46875-1.59375-1.32812m.39063-5.10938c0-1.01562.42187-1.45312.92187-1.45312.48438 0 .9375.4375.9375 1.45312 0 .85938-.39062 1.39063-.95312 1.39063-.51563 0-.90625-.54688-.90625-1.39063m0 0"/><path id="s" d="M.39063 0h3.3125v-.46875l-.23438-.01562c-.26562-.03125-.42187-.0625-.42187-.46875v-2.89063c0-.26562.04687-.53125.14062-.70312.15625-.3125.48438-.60938 1-.60938.625 0 .95313.39063.98438 1.10938v3.09375c0 .40625-.125.4375-.39063.46875l-.26562.01562V0h3.3125v-.46875C7.125-.5 7.01563-.54687 7.01563-1.0625v-3.14062c0-1.14063-.57813-1.875-1.84375-1.875-.71875 0-1.3125.35937-2.125.84375l-.15625-.84375-2.4375.34375v.4375l.4375.0625c.20312.03125.29687.125.29687.60937v3.5625c0 .51563-.07812.5625-.79687.59375Zm0 0"/><path id="o" d="M.39063-.46875c0 .34375.28125.60938.76562.60938.82813 0 1.29688-.82813 1.79688-1.64063l.48437-.79687h.03125l.21875.95312C3.90625-.375 4.14063.14063 4.75.14063c.89063 0 1.35938-.90625 1.71875-1.64063l-.3125-.17187c-.29687.53125-.64062 1.1875-.96875 1.1875-.23437 0-.32812-.28125-.59375-1.35938l-.39062-1.57812c.4375-.78125 1.0625-1.73438 1.40625-1.73438.35937 0 .375.1875.73437.1875.28125 0 .51563-.26562.51563-.57812 0-.375-.28125-.53125-.60938-.53125-.65625 0-1.1875.57812-1.60937 1.26562l-.53125.82813h-.03125l-.48438-2.04688-.0625-.04687-2 .60937.03125.29688.95313-.0625c.1875 0 .28125.07812.39062.59375l.42188 1.75L3-2.29687c-.51562.875-.96875 1.51562-1.26562 1.51562-.34375 0-.4375-.29687-.8125-.29687-.3125 0-.53125.3125-.53125.60937m0 0"/><path id="t" d="M.32813-.10937.45313 0h5L5.875-1.59375l-.34375-.0625c-.25.65625-.5.73438-.98437.73438H1.45313c.1875-.625.92187-1.48438 2.03125-2.29688 1.15625-.84375 2.0625-1.39062 2.0625-2.75 0-1.67187-1.125-2.26562-2.39063-2.26562C1.5-8.23437.64063-7.21875.64063-6.59375c0 .40625.46875.60938.67187.60938.21875 0 .29688-.125.34375-.34375.20313-.8125.67188-1.46875 1.42188-1.46875.92187 0 1.20312.76562 1.20312 1.65625 0 1.29687-.65625 2.03125-1.71875 2.95312C1.0625-1.875.54688-1.0625.32813-.10937m0 0"/><path id="u" d="M1.03125-3.0625H4v2.96875h.71875V-3.0625H7.6875v-.70312H4.71875V-6.75H4v2.98438H1.03125Zm0 0"/><path id="v" d="m.23438-2.42187.09375.26562H3.625v1.23438c0 .40625-.125.46875-.42187.5l-.76563.07812V0H5.625v-.34375l-.54687-.0625c-.28125-.04687-.35938-.10937-.35938-.51562v-1.23438h1.25v-.57812h-1.25v-5.34375h-.875c-1.14062 1.67187-2.5 3.76562-3.60937 5.65625m.875-.3125c.71875-1.3125 1.59375-2.71875 2.51562-4.17188v4.17188Zm0 0"/><path id="w" d="M1.03125-3.0625H7.6875v-.70312H1.03125Zm0 0"/><path id="x" d="M.32813-1.23437c0 .51562.82812 1.375 2.54687 1.375 1.75 0 2.85938-.89063 2.85938-2.4375 0-1.60938-1.39063-2.09375-2.0625-2.15625V-4.5C4.32813-4.60937 5.375-5.09375 5.375-6.29687c0-1.34375-1.04687-1.9375-2.34375-1.9375-1.60937 0-2.39062.9375-2.39062 1.45312 0 .375.42187.57813.59375.57813.15624 0 .25-.09375.29687-.25.26563-.82813.71875-1.34375 1.40625-1.34375.95313 0 1.20313.82812 1.20313 1.51562 0 .71875-.26563 1.64063-1.29688 1.64063-.57812 0-.90625-.125-1.04687-.125-.15626 0-.21876.125-.21876.34375 0 .20312.0625.32812.21876.32812.14062 0 .46875-.10937 1.04687-.10937 1.03125 0 1.60938.92187 1.60938 1.96875 0 1.45312-.70313 1.95312-1.5625 1.95312-.8125 0-1.32813-.59375-1.5625-1.28125-.07813-.23437-.1875-.34375-.35938-.34375-.21875 0-.64062.23438-.64062.67188m0 0"/><path id="y" d="M-.25 2.23438c0 .39062.53125.6875 1.09375.6875 1.21875 0 1.73438-.98438 2.23438-3.29688l1.125-5.09375h1.53125l.10937-.46875h-1.5625l.32813-1.35937c.23437-.92188.46875-1.26563.79687-1.26563.32813 0 .54688.26563.8125.84375.0625.125.15625.21875.32813.21875.25 0 .59375-.21875.59375-.53125 0-.51562-.65625-.9375-1.375-.9375-1.42188 0-2.01563 1-2.48438 2.59375l-.125.4375H2.10938l-.14063.46875h1.07813l-1.40625 7.125c-.14063.75-.26563.82813-.375.82813-.125 0-.32813-.09375-.64063-.59375C.53125 1.78125.45313 1.625.29688 1.625c-.26563 0-.54688.29688-.54688.60938m0 0"/><path id="z" d="M1.04688-3.40625c0 2.71875.60937 5.71875 3.17187 5.82813V2.0625C3.35938 1.89063 2.01563.82813 2.01563-3.40625c0-4.21875 1.28125-5.28125 2.20312-5.48437V-9.25c-2.5625.10938-3.17187 3.10938-3.17187 5.84375m0 0"/><path id="A" d="M.71875 2.0625v.35938c2.5625-.10938 3.1875-3.10938 3.1875-5.82813 0-2.73437-.625-5.73437-3.1875-5.84375v.35938C1.64063-8.6875 2.9375-7.625 2.9375-3.40625c0 4.23438-1.35937 5.29688-2.21875 5.46875m0 0"/><path id="G" d="M.1875-2.5625C.1875-1.125 1.625.125 2.96875.125c1.6875 0 2.78125-1.70312 2.98438-2.03125.23437.4375 1.40625 2.04688 3.28125 2.04688 2.23437 0 2.875-1.70313 2.875-3.125 0-1.4375-1.34375-2.59375-2.6875-2.59375-1.60938 0-2.48438 1.15625-3 1.875-.46875-.78125-1.53125-1.84375-3.20313-1.84375-2.20312 0-3.03125 1.5625-3.03125 2.98437m.76563.03125c0-1.20312.84375-2.15625 1.85937-2.15625 1.21875 0 2.23438 1.28125 2.79688 2.17188-.45313.82812-1.32813 2.09375-2.6875 2.09375-.875 0-1.96875-1-1.96875-2.10938m5.8125-.64062c.46875-.8125 1.34375-1.84375 2.70312-1.84375.89063 0 1.9375.875 1.9375 1.98437 0 1.21875-.65625 2.34375-1.82812 2.34375-1.25 0-2.23438-1.39062-2.8125-2.48437m0 0"/><path id="I" d="M.5-4.04687C.5-1.625 1.20313.14063 3.20313.14063S5.92188-1.625 5.92188-4.04687s-.71875-4.1875-2.71875-4.1875S.5-6.46875.5-4.04687m1.21875 0c0-1.96875.34375-3.75 1.48438-3.75 1.15625 0 1.48437 1.78125 1.48437 3.75S4.35938-.28125 3.20313-.28125c-1.14063 0-1.48438-1.79687-1.48438-3.76562m0 0"/><clipPath id="a"><path d="M1.32031 36H149v111H1.32031Zm0 0"/></clipPath><clipPath id="b"><path d="M148 0h366.4961v37H148Zm0 0"/></clipPath><clipPath id="c"><path d="M147 0h367.4961v38H147Zm0 0"/></clipPath><clipPath id="d"><path d="M148 36h366.4961v111H148Zm0 0"/></clipPath><clipPath id="e"><path d="M147 36h367.4961v111H147Zm0 0"/></clipPath><clipPath id="f"><path d="M1.32031 0H149v37H1.32031Zm0 0"/></clipPath><clipPath id="g"><path d="M1.32031 0H149v38H1.32031Zm0 0"/></clipPath><clipPath id="B"><path d="M1.32031 36H514.4961v2H1.32031Zm0 0"/></clipPath><clipPath id="C"><path d="M1.32031 73H514.4961v1H1.32031Zm0 0"/></clipPath><clipPath id="D"><path d="M1.32031 109H514.4961v2H1.32031Zm0 0"/></clipPath><clipPath id="E"><path d="M1.32031 146H514.4961v1H1.32031Zm0 0"/></clipPath><clipPath id="F"><path d="M1.32031 0H514.4961v147H1.32031Zm0 0"/></clipPath><clipPath id="H"><path d="M147 36h367.4961v38H147Zm0 0"/></clipPath><clipPath id="J"><path d="M147 73h367.4961v38H147Zm0 0"/></clipPath><clipPath id="K"><path d="M147 109h367.4961v38H147Zm0 0"/></clipPath><clipPath id="L"><path d="M385 109h2v38.14063h-2Zm0 0"/></clipPath></defs><g clip-path="url(#a)"><path fill="#fff" stroke="#000" stroke-miterlimit="10" stroke-width=".39601" d="M1.51562 36.82422v109.88282h146.51173V36.82422Zm0 0"/></g><g clip-path="url(#b)"><path fill="#fff" d="M148.02734 36.82422V.19922H514.3047v36.625Zm0 0"/></g><g clip-path="url(#c)"><path fill="none" stroke="#000" stroke-miterlimit="10" stroke-width=".39601" d="M148.02735 36.82422V.19922H514.3047v36.625Zm0 0"/></g><g clip-path="url(#d)"><path fill="#fff" d="M148.02734 36.82422v109.88281H514.3047V36.82422Zm0 0"/></g><g clip-path="url(#e)"><path fill="none" stroke="#000" stroke-miterlimit="10" stroke-width=".39601" d="M148.02735 36.82422v109.88282H514.3047V36.82422Zm0 0"/></g><g clip-path="url(#f)"><path fill="#fff" d="M1.51563.19922v36.625h146.51171V.19922Zm0 0"/></g><g clip-path="url(#g)"><path fill="none" stroke="#000" stroke-miterlimit="10" stroke-width=".39601" d="M1.51562.19922v36.625h146.51173V.19922Zm0 0"/></g><use xlink:href="#h" x="40.58169" y="22.9257"/><use xlink:href="#i" x="47.78887" y="22.9257"/><use xlink:href="#j" x="54.62847" y="22.9257"/><use xlink:href="#k" x="58.56682" y="22.9257"/><use xlink:href="#l" x="65.07822" y="22.9257"/><use xlink:href="#m" x="72.96805" y="22.9257"/><use xlink:href="#n" x="82.80079" y="22.9257"/><use xlink:href="#k" x="90.37555" y="22.9257"/><use xlink:href="#o" x="101.18712" y="22.9257"/><use xlink:href="#p" x="30.55163" y="58.1629"/><use xlink:href="#q" x="37.45687" y="58.1629"/><use xlink:href="#r" x="41.48711" y="58.1629"/><use xlink:href="#s" x="48.1823" y="58.1629"/><use xlink:href="#k" x="56.17715" y="58.1629"/><use xlink:href="#n" x="66.96822" y="58.1629"/><use xlink:href="#k" x="74.54298" y="58.1629"/><use xlink:href="#t" x="85.35398" y="58.1629"/><use xlink:href="#o" x="91.76345" y="58.1629"/><use xlink:href="#u" x="101.80238" y="58.1629"/><use xlink:href="#v" x="112.89668" y="58.1629"/><use xlink:href="#p" x="29.28172" y="94.79035"/><use xlink:href="#q" x="36.18696" y="94.79035"/><use xlink:href="#r" x="40.2172" y="94.79035"/><use xlink:href="#s" x="46.91239" y="94.79035"/><use xlink:href="#k" x="54.90724" y="94.79035"/><use xlink:href="#n" x="65.69832" y="94.79035"/><use xlink:href="#k" x="73.27307" y="94.79035"/><use xlink:href="#w" x="84.08407" y="94.79035"/><use xlink:href="#o" x="92.78448" y="94.79035"/><use xlink:href="#u" x="102.78479" y="94.79035"/><use xlink:href="#x" x="113.84048" y="94.79035"/><use xlink:href="#p" x="35.31733" y="131.55196"/><use xlink:href="#q" x="42.22257" y="131.55196"/><use xlink:href="#r" x="46.25281" y="131.55196"/><use xlink:href="#s" x="52.948" y="131.55196"/><use xlink:href="#k" x="60.94285" y="131.55196"/><use xlink:href="#n" x="71.73393" y="131.55196"/><use xlink:href="#k" x="79.30868" y="131.55196"/><use xlink:href="#y" x="90.11968" y="131.55196"/><use xlink:href="#z" x="97.67462" y="131.55196"/><use xlink:href="#o" x="102.61686" y="131.55196"/><use xlink:href="#A" x="110.27476" y="131.55196"/><g clip-path="url(#B)"><path fill="none" stroke="#000" stroke-miterlimit="10" stroke-width=".39601" d="M1.51562 36.82422H514.3047"/></g><g clip-path="url(#C)"><path fill="none" stroke="#000" stroke-miterlimit="10" stroke-width=".39601" d="M1.51562 73.45313H514.3047"/></g><g clip-path="url(#D)"><path fill="none" stroke="#000" stroke-miterlimit="10" stroke-width=".39601" d="M1.51562 110.08203H514.3047"/></g><g clip-path="url(#E)"><path fill="none" stroke="#000" stroke-miterlimit="10" stroke-width=".39601" d="M1.51562 146.70704H514.3047"/></g><g clip-path="url(#F)"><path fill="none" stroke="#000" stroke-miterlimit="10" stroke-width=".39601" d="M1.51562.19922v146.50782H514.3047V.19922Zm0 0"/></g><path fill="none" stroke="#000" stroke-miterlimit="10" stroke-width=".39601" d="M148.02735.19922v146.50782"/><use xlink:href="#w" x="155.80006" y="21.22739"/><use xlink:href="#G" x="164.50047" y="21.22739"/><use xlink:href="#w" x="268.62689" y="22.6236"/><use xlink:href="#t" x="277.32729" y="22.6236"/><use xlink:href="#x" x="382.837" y="22.55304"/><use xlink:href="#u" x="485.37956" y="21.8127"/><use xlink:href="#G" x="494.07996" y="21.8127"/><g clip-path="url(#H)"><path fill="none" stroke="#000" stroke-miterlimit="10" stroke-width=".39601" d="M148.02735 36.82422v36.6289H514.3047v-36.6289Zm0 0"/></g><use xlink:href="#w" x="217.01475" y="57.04494"/><path fill="none" stroke="#000" stroke-dasharray="2.9701199242 2.9701199242" stroke-miterlimit="10" stroke-width=".39601" d="M276.22266 36.82422v36.6289"/><use xlink:href="#I" x="273.06892" y="59.19043"/><use xlink:href="#u" x="326.93885" y="58.53158"/><path fill="none" stroke="#000" stroke-dasharray="2.9701199242 2.9701199242" stroke-miterlimit="10" stroke-width=".39601" d="M386.10548 36.82422v36.6289"/><use xlink:href="#u" x="436.86294" y="58.53158"/><g clip-path="url(#J)"><path fill="none" stroke="#000" stroke-miterlimit="10" stroke-width=".39601" d="M148.02735 73.45313v36.6289H514.3047v-36.6289Zm0 0"/></g><use xlink:href="#u" x="217.01475" y="95.17294"/><path fill="none" stroke="#000" stroke-dasharray="2.9701199242 2.9701199242" stroke-miterlimit="10" stroke-width=".39601" d="M276.22266 73.45313v36.6289"/><use xlink:href="#u" x="326.93885" y="95.17294"/><path fill="none" stroke="#000" stroke-dasharray="2.9701199242 2.9701199242" stroke-miterlimit="10" stroke-width=".39601" d="M386.10548 73.45313v36.6289"/><use xlink:href="#I" x="382.97215" y="95.82484"/><use xlink:href="#w" x="436.86294" y="93.6863"/><g clip-path="url(#K)"><path fill="none" stroke="#000" stroke-miterlimit="10" stroke-width=".39601" d="M148.02735 110.08203v36.625H514.3047v-36.625Zm0 0"/></g><use xlink:href="#w" x="217.01475" y="130.32766"/><path fill="none" stroke="#000" stroke-dasharray="2.9701199242 2.9701199242" stroke-miterlimit="10" stroke-width=".39601" d="M276.22266 110.08203v36.625"/><use xlink:href="#I" x="273.06892" y="132.45925"/><use xlink:href="#u" x="326.93885" y="131.81431"/><g clip-path="url(#L)"><path fill="none" stroke="#000" stroke-miterlimit="10" stroke-width="1.38605" d="M386.10548 110.33594v36.11328"/></g><path fill="none" stroke="#fff" stroke-miterlimit="10" stroke-width=".59402" d="M386.10548 110.33594v36.11328"/><use xlink:href="#w" x="436.86294" y="130.32766"/></svg>