<svg xmlns="http://www.w3.org/2000/svg" xmlns:xlink="http://www.w3.org/1999/xlink" width="397.647pt" height="344.521pt" viewBox="0 0 397.647 344.521"><defs><path id="b" d="M1.4375-4.26562h9.25V-5.25h-9.25Zm0 0"/><path id="c" d="M.45313-1.71875C.45313-1 1.60938.20313 4 .20313c2.42188 0 3.96875-1.23438 3.96875-3.39063 0-2.25-1.9375-2.92187-2.85937-3.01562v-.0625c.90625-.14063 2.35937-.82813 2.35937-2.48438 0-1.875-1.45312-2.6875-3.26562-2.6875-2.21875 0-3.3125 1.28125-3.3125 2 0 .51563.59375.8125.82812.8125.21875 0 .34375-.125.40625-.34375.375-1.14062 1.01563-1.875 1.95313-1.875 1.32812 0 1.67187 1.15625 1.67187 2.10938 0 1-.35937 2.26562-1.79687 2.26562-.79688 0-1.26563-.15625-1.46875-.15625-.20313 0-.29688.15625-.29688.46875 0 .28125.09375.46875.29688.46875s.67187-.17187 1.46875-.17187c1.4375 0 2.25 1.29687 2.25 2.76562 0 2-1 2.70313-2.1875 2.70313-1.10938 0-1.84375-.82813-2.17188-1.78125-.10937-.3125-.26562-.48438-.5-.48438-.3125 0-.89062.32813-.89062.9375m0 0"/><path id="d" d="M.45313-.15625.625 0h6.96875l.57813-2.21875-.46875-.09375C7.34375-1.39062 7-1.26562 6.32813-1.26562h-4.3125c.28125-.89063 1.28125-2.07813 2.84375-3.20313 1.60937-1.1875 2.85937-1.9375 2.85937-3.82812 0-2.34375-1.5625-3.14063-3.32812-3.14063-2.3125 0-3.5 1.39063-3.5 2.26563 0 .57812.65625.84375.9375.84375.29687 0 .40625-.17188.48437-.46875.26563-1.14063.92188-2.04688 1.96875-2.04688 1.28125 0 1.65625 1.0625 1.65625 2.29688 0 1.8125-.90625 2.82812-2.375 4.125C1.48438-2.60937.76563-1.46875.45313-.15625m0 0"/><path id="e" d="M1.82813 0h5.53125v-.48437l-1.42188-.125c-.34375-.03126-.54687-.15626-.54687-.82813v-9.92187l-.09375-.07813-3.46875.59375v.40625l1.57812.1875c.28125.04688.39063.17188.39063.65625v8.15625c0 .67188-.15625.79688-.5625.82813l-1.40625.125Zm0 0"/><path id="f" d="m.32813-3.35937.14062.34375h4.57813v1.71875c0 .57812-.17188.67187-.59375.70312l-1.0625.10938V0h4.4375v-.48437l-.75-.09375c-.40625-.04688-.5-.14063-.5-.71875v-1.71875h1.71875v-.78125H6.57813V-11.25H5.34375C3.76563-8.92187 1.85938-6 .32813-3.35937m1.21875-.4375c1-1.82813 2.21875-3.78125 3.5-5.8125v5.8125Zm0 0"/><path id="g" d="M.6875-1.71875c0 .76563 1.17188 1.92188 3.35938 1.92188 2.78125 0 4.03125-1.6875 4.03125-3.8125 0-2.375-1.46875-3.57813-3.46875-3.57813-.9375 0-1.95313.42188-2.5.90625l.375-3.1875c.0625-.4375.17187-.48437.48437-.48437h4.1875l.42188-1.15625-.09375-.14063h-5.625l-.15626.17188-.34374 5.60937.40625.21875c.70312-.79687 1.39062-1.20312 2.29687-1.20312 1.07813 0 2.26563.79687 2.26563 3.01562 0 1.73438-.70313 3.04688-2.17188 3.04688-1.1875 0-1.78125-.84375-2.10937-1.8125-.09375-.25-.25-.40625-.48438-.40625-.34375 0-.875.32812-.875.89062m0 0"/><path id="h" d="M.70313-5.625c0 3.375.98437 5.82813 3.75 5.82813C7.23438.20313 8.23438-2.25 8.23438-5.625c0-3.35937-1-5.8125-3.78125-5.8125-2.76563 0-3.75 2.45313-3.75 5.8125m1.70312 0c0-2.73437.45313-5.21875 2.04688-5.21875s2.0625 2.48438 2.0625 5.21875-.46875 5.23438-2.0625 5.23438-2.04688-2.5-2.04688-5.23438m0 0"/><path id="l" d="M.60938-9.32812c0 1.625 1.64062 2.92187 5.375 2.92187C5.375-5.3125 4.90625-4.17187 4.90625-2.9375c0 2.04688 1.29688 3.15625 3.64063 3.15625 2.29687 0 4.6875-1.65625 4.6875-3.78125 0-1.26562-1.0625-1.96875-2.39063-1.96875-1.46875 0-3.20312 1.65625-3.20312 2.96875 0 .39063.29687 1.15625.85937 1.15625.15625 0 .375-.125.375-.29687 0-.25-.4375-.26563-.4375-.84375 0-.92188 1.32813-2.39063 2.40625-2.39063.75 0 1.20313.29688 1.20313 1.03125 0 1.65625-1.57813 3.53125-3.5 3.53125C7.20313-.375 6.5-1.10937 6.5-2.34375c0-1.39062.98438-3.03125 1.71875-4.21875 4.15625-.64062 8.23438-2.6875 8.23438-5.29687 0-.98438-.79688-1.64063-1.875-1.64063-2.46875 0-6.1875 3.15625-8.23438 6.4375-1.6875-.01562-4.4375-.0625-4.4375-2.04687 0-1.82813 2.23438-3.25 3.625-3.25.25 0 .39063-.15625.39063-.3125s-.14063-.28125-.29688-.28125c-2.07812 0-5.01562 1.42187-5.01562 3.625m7.98437 2.03125c1.375-2.40625 4.28125-5.60938 5.98438-5.60938.65625 0 1.10937.375 1.10937.98438 0 2.09375-3.28125 4-7.09375 4.625m0 0"/><path id="o" d="m2.70313-2.03125.78125.78125 3.23437-3.26562L9.98438-1.25l.75-.78125L7.5-5.26562l3.23438-3.26563-.75-.75-3.26563 3.23438-3.23437-3.23438-.78125.75 3.26562 3.26563Zm0 0"/><path id="n" d="M-.28125 2.35938c.01563.45312.57813.79687 1.28125.79687 1.35938 0 2-1.07812 2.53125-3.54687L4.76563-5.875h1.64062l.14063-.54687H4.84375L5.23438-8C5.45313-8.875 5.6875-9.21875 6-9.21875s.53125.25.82813.92188c.09375.14062.20312.26562.42187.26562.3125 0 .71875-.26562.71875-.625 0-.57812-.73437-1.04687-1.59375-1.04687-1.64062 0-2.3125 1.1875-2.78125 2.85937l-.125.42188h-1.125l-.17187.54687h1.17187L1.8125 1.89063c-.125.67187-.25.76562-.375.76562-.14062 0-.35937-.125-.6875-.67187-.09375-.125-.1875-.3125-.39062-.3125-.3125 0-.64063.32812-.64063.6875m0 0"/><clipPath id="a"><path d="M.10156 0H397v341H.10156Zm0 0"/></clipPath><clipPath id="i"><path d="M.10156 311H392v2H.10156Zm0 0"/></clipPath><clipPath id="j"><path d="M379 299h18.19531v26H379Zm0 0"/></clipPath><clipPath id="k"><path d="M.4961.39453h396.30468V324H.4961Zm0 0"/></clipPath><clipPath id="m"><path d="M221 327h9v13.08203h-9Zm0 0"/></clipPath></defs><g clip-path="url(#a)"><path fill="none" stroke="#000" stroke-miterlimit="10" stroke-opacity=".5" stroke-width=".39795" d="M.49601 311.77734h396.30485M.49601 255.16014h396.30485M.49601 198.54682h396.30485M.49601 141.92962h396.30485M.49601 85.31632h396.30485M.49601 28.6991h396.30485M28.80462 340.08204V.3944m56.6133 339.68764V.3944m56.6133 339.68764V.3944m56.61722 339.68764V.3944m56.6133 339.68764V.3944m56.61721 339.68764V.3944m56.6133 339.68764V.3944"/></g><path fill="none" stroke="#000" stroke-miterlimit="10" stroke-opacity=".5" stroke-width=".39795" d="M28.80462 297.62109v28.3086"/><g fill-opacity=".5"><use xlink:href="#b" x="18.2925" y="331.55203"/><use xlink:href="#c" x="30.39821" y="331.55203"/></g><path fill="none" stroke="#000" stroke-miterlimit="10" stroke-opacity=".5" stroke-width=".39795" d="M85.41792 297.62109v28.3086"/><g fill-opacity=".5"><use xlink:href="#b" x="74.90679" y="331.65089"/><use xlink:href="#d" x="87.0125" y="331.65089"/></g><path fill="none" stroke="#000" stroke-miterlimit="10" stroke-opacity=".5" stroke-width=".39795" d="M142.03123 297.62109v28.3086"/><g fill-opacity=".5"><use xlink:href="#b" x="131.52107" y="331.65089"/><use xlink:href="#e" x="143.62679" y="331.65089"/></g><path fill="none" stroke="#000" stroke-miterlimit="10" stroke-opacity=".5" stroke-width=".39795" d="M255.26174 297.62109v28.3086"/><use xlink:href="#e" x="250.80223" y="331.65089" fill-opacity=".5"/><path fill="none" stroke="#000" stroke-miterlimit="10" stroke-opacity=".5" stroke-width=".39795" d="M311.87895 297.62109v28.3086"/><use xlink:href="#d" x="307.41652" y="331.65089" fill-opacity=".5"/><path fill="none" stroke="#000" stroke-miterlimit="10" stroke-opacity=".5" stroke-width=".39795" d="M368.49226 297.62109v28.3086"/><use xlink:href="#c" x="364.03081" y="331.55203" fill-opacity=".5"/><path fill="none" stroke="#000" stroke-miterlimit="10" stroke-opacity=".5" stroke-width=".39795" d="M212.80079 255.16013h-28.3086"/><use xlink:href="#e" x="174.37349" y="260.88329" fill-opacity=".5"/><path fill="none" stroke="#000" stroke-miterlimit="10" stroke-opacity=".5" stroke-width=".39795" d="M212.80079 198.54683h-28.3086"/><use xlink:href="#d" x="174.37349" y="204.269" fill-opacity=".5"/><path fill="none" stroke="#000" stroke-miterlimit="10" stroke-opacity=".5" stroke-width=".39795" d="M212.80079 141.92962h-28.3086"/><use xlink:href="#c" x="174.37349" y="147.55585" fill-opacity=".5"/><path fill="none" stroke="#000" stroke-miterlimit="10" stroke-opacity=".5" stroke-width=".39795" d="M212.80079 85.31631h-28.3086"/><use xlink:href="#f" x="174.37349" y="90.94156" fill-opacity=".5"/><path fill="none" stroke="#000" stroke-miterlimit="10" stroke-opacity=".5" stroke-width=".39795" d="M212.80079 28.6991h-28.3086"/><use xlink:href="#g" x="174.37349" y="34.22941" fill-opacity=".5"/><path fill="none" stroke="#000" stroke-miterlimit="10" stroke-opacity=".5" stroke-width=".39795" d="M198.64844 297.62109v28.3086"/><use xlink:href="#h" x="174.37249" y="337.21416" fill-opacity=".5"/><g clip-path="url(#i)"><path fill="none" stroke="#000" stroke-miterlimit="10" stroke-width=".7959" d="M.49601 311.77734H390.6329"/></g><path d="M394.78906 311.77734c-.50781-.10937-2.7539-.71093-4.15625-1.36328v2.72266c1.40235-.65235 3.64844-1.2539 4.15625-1.35938m0 0"/><g clip-path="url(#j)"><path fill="none" stroke="#000" stroke-miterlimit="10" stroke-width=".7959" d="M394.78906 311.77734c-.5078-.10937-2.7539-.71093-4.15625-1.36328v2.72266c1.40235-.65235 3.64844-1.2539 4.15625-1.35938Zm0 0"/></g><path fill="none" stroke="#000" stroke-miterlimit="10" stroke-width=".7959" d="M198.64844 340.08204V6.56238"/><path stroke="#000" stroke-miterlimit="10" stroke-width=".7959" d="M198.64844 2.40234c-.10547.51172-.70703 2.75782-1.36329 4.16016h2.72657c-.65625-1.40234-1.25781-3.64844-1.36328-4.16016Zm0 0"/><g clip-path="url(#k)"><path fill="none" stroke="#007F7F" stroke-miterlimit="10" stroke-width=".7959" d="M.49601-34.99233s11.9297 40.68361 16.51173 55.38674c4.58203 14.69923 11.92969 37.20314 16.51172 50.56643 4.58204 13.3672 11.9297 33.72658 16.51173 45.75392s11.9297 30.24611 16.51172 40.93752c4.58204 10.69141 11.9297 26.76564 16.51173 36.12111s11.9297 23.28516 16.51173 31.3047 11.9336 19.8086 16.51563 26.4883c4.58203 6.68359 11.92969 16.32812 16.51172 21.67578 4.58204 5.34375 11.9297 12.84766 16.51173 16.85548 4.58203 4.01172 11.9297 9.36719 16.51172 12.04297 4.58204 2.67188 11.9297 5.88672 16.51173 7.22657 4.58203 1.33593 11.9297 2.40625 16.51172 2.41015 4.58204 0 11.9297-1.07031 16.51173-2.40625s11.9297-4.55078 16.51173-7.22266c4.58203-2.67187 11.92969-8.03125 16.51172-12.03906 4.58203-4.00782 11.9297-11.50782 16.51173-16.85157 4.58203-5.34376 11.9336-14.98829 16.51563-21.67189 4.58203-6.67969 11.92969-18.46485 16.51172-26.48438 4.58204-8.01563 11.9297-21.94532 16.51173-31.3008 4.58203-9.35156 11.9297-25.42579 16.51172-36.1172 4.58204-10.69141 11.9297-28.90626 16.51173-40.9336 4.58203-12.02345 11.9297-32.38284 16.51173-45.74612 4.58203-13.36329 11.92969-35.8672 16.51172-50.56643s16.51173-55.37893 16.51173-55.37893"/></g><use xlink:href="#l" x="206.05145" y="332.71342" fill="#007F7F"/><g clip-path="url(#m)"><use xlink:href="#n" x="221.31223" y="337.09133" fill="#007F7F"/></g><use xlink:href="#o" x="22.07923" y="61.65827"/><use xlink:href="#o" x="78.69352" y="203.19349"/><use xlink:href="#o" x="135.30781" y="288.11442"/><use xlink:href="#o" x="191.9221" y="316.42107"/><use xlink:href="#o" x="248.53638" y="288.11442"/><use xlink:href="#o" x="305.15067" y="203.19349"/><use xlink:href="#o" x="361.76496" y="61.65827"/></svg>