<svg xmlns="http://www.w3.org/2000/svg" xmlns:xlink="http://www.w3.org/1999/xlink" width="284.261pt" height="227.569pt" viewBox="0 0 284.261 227.569"><defs><path id="b" d="M1.4375-4.26562h9.25v-.96875h-9.25Zm0 0"/><path id="c" d="M1.82813 0h5.53125v-.48437l-1.42188-.125c-.35937-.03126-.54687-.15626-.54687-.82813v-9.90625l-.09375-.09375-3.46875.59375v.40625l1.57812.20313c.28125.03125.39063.15625.39063.64062v8.15625c0 .67188-.17188.79688-.5625.82813l-1.40625.125Zm0 0"/><path id="d" d="M.45313-.15625.625 0h6.95313l.57812-2.21875-.46875-.09375C7.32813-1.39062 7-1.26562 6.3125-1.26562H2.01563c.28125-.875 1.28125-2.07813 2.82812-3.20313 1.60938-1.1875 2.85938-1.9375 2.85938-3.8125 0-2.34375-1.54688-3.15625-3.3125-3.15625-2.3125 0-3.5 1.40625-3.5 2.28125 0 .5625.64062.84375.9375.84375.29687 0 .40625-.1875.48437-.46875.26563-1.14062.92188-2.0625 1.96875-2.0625 1.28125 0 1.65625 1.07813 1.65625 2.3125 0 1.79688-.90625 2.82813-2.375 4.10938C1.48438-2.60937.76563-1.46875.45313-.15625m0 0"/><path id="e" d="M.45313-1.71875C.45313-1 1.60938.20313 3.98438.20313c2.4375 0 3.98437-1.23438 3.98437-3.39063 0-2.25-1.9375-2.90625-2.875-3v-.07812c.92188-.14063 2.35938-.8125 2.35938-2.48438 0-1.85937-1.4375-2.6875-3.25-2.6875-2.21875 0-3.3125 1.29688-3.3125 2.01563 0 .51562.59375.79687.82812.79687.21875 0 .34375-.125.40625-.34375.375-1.14062 1-1.875 1.95313-1.875 1.32812 0 1.67187 1.17188 1.67187 2.10938 0 1-.35937 2.28125-1.79687 2.28125-.79688 0-1.26563-.17188-1.46875-.17188-.21875 0-.29688.17188-.29688.46875 0 .28125.07813.46875.29688.46875.20312 0 .67187-.15625 1.46875-.15625 1.4375 0 2.23437 1.28125 2.23437 2.75 0 2-.98437 2.70313-2.1875 2.70313-1.10937 0-1.82812-.82813-2.15625-1.78125-.10937-.3125-.26562-.46875-.5-.46875-.3125 0-.89062.3125-.89062.92187m0 0"/><path id="f" d="M.70313-5.625c0 3.375.98437 5.82813 3.75 5.82813C7.23438.20313 8.23438-2.25 8.23438-5.625c0-3.35937-1-5.8125-3.78125-5.8125-2.76563 0-3.75 2.45313-3.75 5.8125m1.6875 0c0-2.73437.46875-5.21875 2.0625-5.21875s2.0625 2.48438 2.0625 5.21875c0 2.75-.46875 5.23438-2.0625 5.23438S2.39063-2.875 2.39063-5.625m0 0"/><path id="k" d="M.60938-9.32812c0 1.64062 1.64062 2.92187 5.375 2.92187-.625 1.09375-1.07813 2.23438-1.07813 3.46875 0 2.04688 1.29688 3.15625 3.64063 3.15625 2.28125 0 4.67187-1.65625 4.67187-3.78125 0-1.26562-1.0625-1.96875-2.39062-1.96875C9.35938-5.53125 7.625-3.875 7.625-2.5625c0 .39063.3125 1.15625.85938 1.15625.15625 0 .375-.125.375-.29687 0-.25-.4375-.26563-.4375-.84375 0-.90625 1.34375-2.375 2.40625-2.375.76562 0 1.21875.29687 1.21875 1.03125 0 1.64062-1.59375 3.51562-3.5 3.51562C7.1875-.375 6.5-1.10937 6.5-2.34375c0-1.39062.96875-3.01562 1.70313-4.21875 4.15625-.625 8.23437-2.67187 8.23437-5.28125 0-1-.79687-1.65625-1.875-1.65625-2.45312 0-6.17187 3.17188-8.21875 6.4375-1.6875-.01562-4.4375-.04687-4.4375-2.04687 0-1.82813 2.23438-3.23438 3.625-3.23438.25 0 .39063-.15625.39063-.3125s-.14063-.28125-.29688-.28125c-2.09375 0-5.01562 1.40625-5.01562 3.60938m7.98437 2.03125c1.35938-2.40625 4.26563-5.60938 5.96875-5.60938.65625 0 1.125.39063 1.125 1 0 2.09375-3.28125 4-7.09375 4.60938m0 0"/><path id="l" d="M-.28125 2.34375c.01563.46875.57813.8125 1.28125.8125 1.35938 0 1.98438-1.07812 2.53125-3.54687L4.75-5.875h1.64063l.14062-.53125h-1.6875L5.23438-8c.21875-.875.4375-1.20312.76562-1.20312.29688 0 .51563.25.82813.92187.07812.125.1875.25.42187.25.29688 0 .70313-.25.70313-.625 0-.5625-.71875-1.03125-1.57813-1.03125-1.64062 0-2.3125 1.17188-2.78125 2.84375l-.125.4375h-1.125l-.17187.53125h1.17187L1.8125 1.89063c-.125.67187-.25.76562-.375.76562-.14062 0-.35937-.125-.6875-.67187-.09375-.14063-.1875-.3125-.39062-.3125-.3125 0-.64063.32812-.64063.67187m0 0"/><clipPath id="a"><path d="M0 .08203h283.52344V227H0Zm0 0"/></clipPath><clipPath id="g"><path d="M265 129h18.52344v26H265Zm0 0"/></clipPath><clipPath id="h"><path d="M84 6h2v221.0586h-2Zm0 0"/></clipPath><clipPath id="i"><path d="M72 .08203h26V18H72Zm0 0"/></clipPath><clipPath id="j"><path d="M.39844 24H283.1289v199H.39844Zm0 0"/></clipPath></defs><g clip-path="url(#a)"><path fill="none" stroke="#000" stroke-miterlimit="10" stroke-opacity=".5" stroke-width=".39747" d="M.39844 198.39062H283.1289M.39844 141.84375H283.1289M.39844 85.29688H283.1289M.39844 28.75H283.1289M28.66797 226.66406V.47656m56.54687 226.1875V.47656m56.54688 226.1875V.47656m56.54687 226.1875V.47656m56.54688 226.1875V.47656"/></g><path fill="none" stroke="#000" stroke-miterlimit="10" stroke-opacity=".5" stroke-width=".39747" d="M28.66797 127.70703v28.27344"/><g fill-opacity=".5"><use xlink:href="#b" x="18.17076" y="161.69395"/><use xlink:href="#c" x="30.26187" y="161.69395"/></g><path fill="none" stroke="#000" stroke-miterlimit="10" stroke-opacity=".5" stroke-width=".39747" d="M141.76172 127.70703v28.27344"/><use xlink:href="#c" x="137.30804" y="161.69395" fill-opacity=".5"/><path fill="none" stroke="#000" stroke-miterlimit="10" stroke-opacity=".5" stroke-width=".39747" d="M198.3086 127.70703v28.27344"/><use xlink:href="#d" x="193.85403" y="161.69395" fill-opacity=".5"/><path fill="none" stroke="#000" stroke-miterlimit="10" stroke-opacity=".5" stroke-width=".39747" d="M254.85547 127.70703v28.27344"/><use xlink:href="#e" x="250.40003" y="161.5952" fill-opacity=".5"/><path fill="none" stroke="#000" stroke-miterlimit="10" stroke-opacity=".5" stroke-width=".39747" d="M99.35156 198.39062H71.07813"/><g fill-opacity=".5"><use xlink:href="#b" x="54.92521" y="204.10369"/><use xlink:href="#c" x="67.01632" y="204.10369"/></g><path fill="none" stroke="#000" stroke-miterlimit="10" stroke-opacity=".5" stroke-width=".39747" d="M99.35156 85.29688H71.07813"/><use xlink:href="#c" x="60.97149" y="91.0117" fill-opacity=".5"/><path fill="none" stroke="#000" stroke-miterlimit="10" stroke-opacity=".5" stroke-width=".39747" d="M99.35156 28.75H71.07813"/><use xlink:href="#d" x="60.97149" y="34.46571" fill-opacity=".5"/><path fill="none" stroke="#000" stroke-miterlimit="10" stroke-opacity=".5" stroke-width=".39747" d="M85.21484 127.70703v28.27344"/><use xlink:href="#f" x="60.97149" y="167.2505" fill-opacity=".5"/><path fill="none" stroke="#000" stroke-miterlimit="10" stroke-width=".79495" d="M.39844 141.84375h276.5703"/><path d="M281.1211 141.84375c-.50782-.10547-2.75-.70703-4.15235-1.36328v2.72266c1.40234-.65235 3.64453-1.25391 4.15234-1.35938m0 0"/><g clip-path="url(#g)"><path fill="none" stroke="#000" stroke-miterlimit="10" stroke-width=".79495" d="M281.1211 141.84375c-.50782-.10547-2.75-.70703-4.15235-1.36328v2.72265c1.40234-.65234 3.64453-1.2539 4.15234-1.35937Zm0 0"/></g><g clip-path="url(#h)"><path fill="none" stroke="#000" stroke-miterlimit="10" stroke-width=".79495" d="M85.21484 226.66406V6.63672"/></g><path d="M85.21484 2.48438c-.10546.5078-.70703 2.75-1.35937 4.15234h2.72266c-.65626-1.40235-1.25391-3.64453-1.36329-4.15235m0 0"/><g clip-path="url(#i)"><path fill="none" stroke="#000" stroke-miterlimit="10" stroke-width=".79495" d="M85.21484 2.48437c-.10546.50782-.70703 2.75-1.35937 4.15235h2.72266c-.65625-1.40234-1.25391-3.64453-1.36329-4.15235Zm0 0"/></g><g clip-path="url(#j)"><path fill="none" stroke="#007F7F" stroke-miterlimit="10" stroke-width=".79495" d="M.39844 211.09375s8.50781-3.54688 11.77734-4.98828 8.51172-3.83203 11.78125-5.41016c3.26953-1.57812 8.51172-4.19922 11.78125-5.96094 3.26953-1.7578 8.51172-4.6953 11.77735-6.72265 3.26953-2.02735 8.51171-5.40235 11.78125-7.88672s8.51171-6.30469 11.78125-10.00781c3.26953-3.70703 8.51171-9.5586 11.78124-16.69532 3.26954-7.1328 8.51172-28.3125 11.77735-34.72265 3.26953-6.41016 8.51172-8.69922 11.78125-11.48047s8.51172-6.38281 11.78125-8.5625c3.26953-2.17578 8.51172-5.26953 11.78125-7.1211 3.26953-1.85546 8.51172-4.58984 11.77734-6.23437 3.26953-1.64062 8.51172-4.1211 11.78125-5.61328 3.26953-1.49219 8.51172-3.76562 11.78125-5.14453 3.26953-1.375 8.51172-3.4961 11.78125-4.77734 3.26953-1.28516 8.51172-3.27344 11.77734-4.48047 3.26954-1.21094 8.51172-3.08985 11.78125-4.23438 3.26954-1.14453 8.51172-2.92968 11.78125-4.02343 3.26954-1.08985 8.51172-2.79297 11.78125-3.83594S232.73437 50.51172 236 49.5078c3.26953-1 8.51172-2.57421 11.78125-3.53906 3.26953-.96094 8.51172-2.48047 11.78125-3.41015 3.26953-.9297 8.51172-2.39454 11.78125-3.29688s11.77734-3.19922 11.77734-3.19922"/></g><use xlink:href="#k" x="128.31841" y="117.83697" fill="#007F7F"/><use xlink:href="#l" x="143.56278" y="122.2096" fill="#007F7F"/></svg>