<svg xmlns="http://www.w3.org/2000/svg" xmlns:xlink="http://www.w3.org/1999/xlink" width="516.405pt" height="147.829pt" viewBox="0 0 516.405 147.829"><defs><path id="f" d="M-.125-7.95312c.625.01562.76563.09375.9375.625L3.3125 0H4.875l1.48438-4.25C6.8125-5.57812 7.25-6.75 7.4375-7.23437c.25-.57813.35938-.67188 1.0625-.71875v-.45313H5.625v.45313l.6875.0625c.25.03125.28125.14062.21875.40625-.125.39062-.40625 1.40625-.76562 2.53125-.25.73437-.79688 2.51562-1.01563 3.14062h-.0625L2.82813-7.45312c-.07813-.25-.07813-.40625.21875-.4375l.59375-.0625v-.45313H-.125Zm0 0"/><path id="g" d="M.59375-1.625c0 .90625.59375 1.76563 1.84375 1.76563.79688 0 1.34375-.40625 1.78125-.70313.15625.375.39063.70313.98438.70313.64062 0 1.40625-.20313 1.8125-.35938L7-.625c-.15625.01563-.4375 0-.625-.0625-.15625-.04687-.39062-.1875-.39062-.90625v-2.8125c0-.75-.10938-1.70312-2.29688-1.70312-1.8125 0-2.95312.71875-2.95312 1.5 0 .53125.79687.76562 1.10937.76562.28125 0 .40625-.1875.53125-.48437.34375-1.04688.75-1.21875 1.09375-1.21875.35938 0 .70313.20312.70313.90625V-4c-.4375.29688-1.46875.57813-2.26563.85938-.98437.32812-1.3125.8125-1.3125 1.51562m1.89063-.20312c0-.5625.20312-.84375.57812-1.0625.375-.20313.79688-.375 1.10938-.5V-1.625c-.03125.65625-.40625.82813-.75.82813-.5 0-.9375-.375-.9375-1.03125m0 0"/><path id="h" d="M.29688 0h3.48437v-.46875C3.07813-.5 3-.5625 3-1.0625v-7.875l-.10937-.07812-2.5.32812v.4375l.42187.0625c.20313.03125.29688.14063.29688.625v6.5c0 .5-.09376.5625-.8125.59375Zm0 0"/><path id="i" d="M.48438-2.96875c0 1.65625.73437 3.10938 3.03125 3.10938C5 .14063 5.79688-.5625 6.21875-1.625l-.4375-.25C5.40625-1.17187 4.875-.79687 4.125-.79687c-1.23437 0-1.67187-.98438-1.67187-2.26563h3.21875c.45312 0 .65625-.125.65625-.51562 0-.98438-.39063-2.53125-2.78125-2.53125-2.23438 0-3.0625 1.42187-3.0625 3.14062m1.96875-.67187c0-.89063.23437-1.90625 1.04687-1.90625.75 0 .875.92187.875 1.5 0 .32812-.09375.40625-.375.40625Zm0 0"/><path id="j" d="m.375-5.3125.42188.0625c.20312.01563.28124.10938.28124.60938v2.95312c0 1.42188.90626 1.82813 1.79688 1.82813 1.0625 0 1.70313-.54688 2.20313-.82813L5.1875 0H7.75v-.46875C7.04688-.5 6.96875-.5625 6.96875-1.0625v-4.96875l-.10937-.07812-2.5.35937v.4375l.42187.0625c.20313.01563.29688.10938.29688.60938v2.57812c0 .20313-.01563.5-.09375.67188-.125.29687-.45313.57812-.98438.57812-.65625 0-1.04687-.375-1.04687-1.32812v-3.89063l-.09375-.07812L.375-5.75Zm0 0"/><path id="k" d="M.39063 0h3.75v-.46875C3.1875-.51562 3.0625-.5625 3.0625-1.0625v-2.70312c0-.64063.10938-.9375.42188-.9375.1875 0 .375.10937.65625.26562.15625.10938.32812.1875.5625.1875.25 0 .5-.125.64062-.29687.125-.1875.1875-.4375.1875-.70313 0-.51562-.32812-.85937-.84375-.85937-.51562 0-.92187.34375-1.64062 1.07812L2.875-6.10937.46875-5.75v.4375l.42188.0625c.20312.01563.3125.10938.3125.60938v3.57812c0 .5-.09376.5625-.8125.59375Zm0 0"/><path id="l" d="M.48438-2.875C.48438-1.09375 1.42188.14063 3 .14063c.45313 0 1.10938-.23438 1.78125-.75V0h2.67188v-.46875C6.73438-.5 6.64063-.5625 6.64063-1.0625v-7.875l-.07813-.07812-2.51562.32812v.4375l.4375.0625c.20312.03125.29687.14063.29687.625v1.60938c-.26562-.10938-.625-.15625-1.04687-.15625-.92188 0-1.75.28125-2.32813.79687C.82813-4.78125.48438-3.96875.48438-2.875m1.96875-.25c0-1.78125.6875-2.42187 1.39062-2.42187.46875 0 .71875.25.84375.48437.10938.1875.09375.4375.09375.70313v2.51562c0 .48438-.17187 1.04688-.96875 1.04688C3-.79687 2.45313-1.5625 2.45313-3.125m0 0"/><path id="n" d="M.59375-2.75.79688-.5625c.625.5625 1.85937.75 2.67187.75C5.95313.15625 6.67188-1.15625 6.67188-2.42187c0-1.60938-1.20313-2.21875-2.32813-2.6875-.82812-.34375-1.85937-.78125-1.85937-1.70313 0-.75.54687-1.21875 1.28125-1.21875.79687 0 1.5625.54688 1.90625 1.96875H6.125v-2c-.65625-.39062-1.59375-.54687-2.34375-.54687-2.09375 0-3.07812 1.0625-3.07812 2.5 0 1.51562 1.375 2.15625 2.46875 2.60937 1.125.46875 1.64062 1.01563 1.64062 1.79688C4.79688-.79687 4.21875-.375 3.42188-.375c-.9375 0-1.89063-.84375-2.35938-2.375Zm0 0"/><path id="o" d="M.9375-7.70312c0 .59375.42188 1.07812 1.125 1.07812.6875 0 1.15625-.48437 1.15625-1.07812 0-.5625-.45312-1.0625-1.15625-1.0625-.70312 0-1.125.5-1.125 1.0625M.39063 0h3.5v-.46875C3.17188-.5 3.0625-.5625 3.0625-1.0625v-4.96875L3-6.10937.46875-5.75v.4375l.42188.0625c.20312.01563.3125.10938.3125.60938v3.57812c0 .5-.09376.5625-.8125.59375Zm0 0"/><path id="p" d="M.39063 1.17188c0 1.17187 1.29687 1.76562 3.0625 1.76562.54687 0 1.4375-.10937 2.0625-.4375.6875-.35937 1.14062-.98437 1.14062-1.85937 0-1.46875-1.14062-1.92188-2.45312-1.92188H3.0625c-.60937 0-.82812-.1875-.82812-.40625 0-.28125.3125-.40625.48437-.45312.23438.03125.42188.01562.5625.01562 1.46875 0 2.78125-.51562 2.78125-1.96875 0-.35937-.14062-.73437-.29687-.9375l.8125-.14062.25-.92188-.10938-.125-1.57812.51563c-.40625-.23438-1.09375-.40625-1.76563-.40625-2.23437 0-2.89062 1.125-2.89062 2.07812 0 1 .76562 1.60938 1.51562 1.73438v.01562c-.79687.20313-1.32812.64063-1.32812 1.125 0 .53125.60937 1.03125 1.14062 1.14063v.03125C1.3125.125.39063.34375.39063 1.17188m1.65625-.125c0-.32813.15625-.5625.32812-.67188.17188-.10937.54688-.1875 1.09375-.1875 1.04688 0 1.6875.23438 1.6875.98438 0 .85937-.6875 1.20312-1.51562 1.20312-.82813 0-1.59375-.45312-1.59375-1.32812m.375-5.125c0-1.03125.4375-1.46875.9375-1.46875.48437 0 .9375.4375.9375 1.45312 0 .875-.375 1.42188-.95313 1.42188-.51562 0-.92187-.5625-.92187-1.40625m0 0"/><path id="q" d="M.39063 0h3.32812v-.46875l-.23437-.01562C3.21875-.51562 3.0625-.5625 3.0625-.95312v-2.90625c0-.26563.04688-.54688.14063-.70313.15625-.3125.48437-.60937 1-.60937.64062 0 .96875.39062 1 1.10937v3.10938c0 .39062-.14063.4375-.40625.46875l-.26563.01562V0H7.875v-.46875C7.15625-.5 7.0625-.5625 7.0625-1.0625v-3.17187c-.01562-1.14063-.59375-1.875-1.85937-1.875-.73438 0-1.32813.35937-2.14063.84375l-.15625-.84375L.46875-5.75v.4375l.42188.0625c.20312.01563.3125.10938.3125.60938v3.57812c0 .5-.09376.5625-.8125.59375Zm0 0"/><path id="m" d="M.39063-.48437c0 .35937.28125.625.78125.625C2 .14063 2.45313-.6875 2.96875-1.5l.48438-.79687h.03125l.21875.95312C3.9375-.375 4.15625.14063 4.78125.14063 5.67188.14063 6.125-.78125 6.5-1.51562l-.3125-.17188c-.29687.54688-.64062 1.20313-.96875 1.20313-.23437 0-.32812-.28125-.59375-1.35938L4.23438-3.4375c.4375-.78125 1.0625-1.75 1.40625-1.75C6-5.1875 6.01563-5 6.375-5c.28125 0 .51563-.25.51563-.57812 0-.375-.28125-.53125-.60938-.53125-.65625 0-1.20312.57812-1.625 1.26562l-.53125.82813h-.03125L3.60938-6.0625l-.0625-.04687-2 .60937.01562.29688.95313-.0625c.20312 0 .29687.09375.40625.60937l.42187 1.76563-.32812.57812C2.5-1.42187 2.04688-.79687 1.75-.79687c-.35937 0-.4375-.29688-.82812-.29688-.3125 0-.53125.3125-.53125.60938m0 0"/><path id="r" d="M.32813-.10937.45313 0h5.03125l.42187-1.60937-.34375-.0625c-.26562.65625-.5.75-1 .75H1.46875c.1875-.625.90625-1.5 2.03125-2.3125 1.17188-.85938 2.07813-1.39063 2.07813-2.75 0-1.70313-1.125-2.28125-2.40625-2.28125-1.67188 0-2.53125 1-2.53125 1.64062 0 .42188.46875.60938.67187.60938.23438 0 .3125-.125.35938-.34375.1875-.82813.67187-1.48438 1.42187-1.48438.9375 0 1.20313.78125 1.20313 1.67188 0 1.3125-.65625 2.04687-1.71875 2.96875-1.5 1.3125-2.01563 2.14062-2.25 3.09375m0 0"/><path id="s" d="M1.03125-3.07812h3v2.98437h.70313v-2.98437h2.98437v-.71875H4.73438v-2.98438h-.70313v2.98438h-3Zm0 0"/><path id="t" d="m.23438-2.4375.10937.26563h3.29688V-.9375c0 .42188-.125.48438-.42188.51563l-.78125.07812V0h3.21875v-.34375l-.54687-.0625C4.82813-.45312 4.75-.51562 4.75-.9375v-1.23437h1.23438V-2.75H4.75v-5.375h-.89062C2.71875-6.4375 1.34375-4.32812.23438-2.4375m.875-.3125c.73437-1.3125 1.60937-2.71875 2.53125-4.20312V-2.75Zm0 0"/><path id="u" d="M1.03125-3.07812h6.6875v-.71875h-6.6875Zm0 0"/><path id="v" d="M.32813-1.23437c0 .51562.84375 1.375 2.5625 1.375C4.64063.14063 5.75-.75 5.75-2.29687c0-1.64063-1.39062-2.10938-2.0625-2.17188v-.0625C4.34375-4.625 5.39063-5.125 5.39063-6.32812c0-1.34375-1.04688-1.9375-2.34375-1.9375-1.60938 0-2.40625.9375-2.40625 1.45312 0 .375.4375.57813.59375.57813.15624 0 .25-.09375.3125-.25.26562-.82813.71875-1.35938 1.40625-1.35938.95312 0 1.20312.84375 1.20312 1.53125 0 .71875-.26562 1.64063-1.29687 1.64063-.57813 0-.92188-.10938-1.0625-.10938-.15626 0-.21876.10938-.21876.32813 0 .20312.0625.34375.21876.34375.14062 0 .48437-.125 1.0625-.125 1.03125 0 1.60937.9375 1.60937 2 0 1.4375-.70312 1.95312-1.57812 1.95312-.79688 0-1.32813-.59375-1.5625-1.28125-.07813-.23437-.1875-.35937-.35938-.35937-.21875 0-.64062.23437-.64062.6875m0 0"/><path id="w" d="M-.26562 2.23438c.01562.40625.54687.70312 1.125.70312 1.20312 0 1.73437-.98437 2.23437-3.3125l1.125-5.125H5.75l.125-.46875H4.29688L4.625-7.32812c.23438-.92188.46875-1.28125.8125-1.28125.3125 0 .54688.28125.8125.85937.0625.10938.15625.20313.32813.20313.25 0 .60937-.21875.60937-.53125 0-.51563-.67187-.9375-1.39062-.9375-1.4375 0-2.03125 1-2.5 2.60937l-.125.4375H2.125L1.98438-5.5H3.0625L1.65625 1.67188c-.14062.75-.26562.82812-.39062.82812S.9375 2.40625.625 1.90625C.53125 1.78125.45313 1.625.29688 1.625c-.26563 0-.5625.29688-.5625.60938m0 0"/><path id="x" d="M1.04688-3.42187c0 2.73437.625 5.75 3.20312 5.85937v-.375C3.375 1.90625 2.01563.82813 2.01563-3.42187c0-4.23438 1.29687-5.3125 2.23437-5.5v-.375c-2.57812.10937-3.20312 3.125-3.20312 5.875m0 0"/><path id="y" d="M.71875 2.0625v.375c2.57813-.10937 3.20313-3.125 3.20313-5.85937 0-2.75-.625-5.76563-3.20313-5.875v.375c.9375.1875 2.23438 1.26562 2.23438 5.5 0 4.25-1.35938 5.32812-2.23438 5.48437m0 0"/><path id="F" d="M.1875-2.57812C.1875-1.125 1.625.125 2.96875.125c1.71875 0 2.79688-1.70312 3.01563-2.04687.21875.45312 1.40625 2.0625 3.29687 2.0625 2.25 0 2.89063-1.70313 2.89063-3.14063 0-1.45312-1.35938-2.60937-2.70313-2.60937-1.60937 0-2.5 1.17187-3.01562 1.89062C5.98438-4.5 4.92188-5.57812 3.23438-5.57812c-2.21875 0-3.04688 1.5625-3.04688 3m.76563.04687c0-1.21875.85937-2.17187 1.875-2.17187 1.21875 0 2.25 1.28125 2.8125 2.1875C5.17188-1.6875 4.3125-.42187 2.9375-.42187c-.875 0-1.98437-1.01563-1.98437-2.10938M6.8125-3.1875c.45313-.82812 1.34375-1.84375 2.70313-1.84375.89062 0 1.95312.875 1.95312 1.98438 0 1.21875-.67187 2.34375-1.84375 2.34375-1.25 0-2.25-1.39063-2.8125-2.48438m0 0"/><path id="H" d="M.5-4.0625C.5-1.625 1.21875.14063 3.21875.14063c2.01563 0 2.73438-1.76563 2.73438-4.20313s-.71875-4.20312-2.73438-4.20312C1.21875-8.26562.5-6.5.5-4.0625m1.23438 0c0-1.98437.32812-3.78125 1.48437-3.78125S4.70313-6.04687 4.70313-4.0625c0 1.98438-.32813 3.78125-1.48438 3.78125S1.73438-2.07812 1.73438-4.0625m0 0"/><clipPath id="a"><path d="M0 37h148v110.65625H0Zm0 0"/></clipPath><clipPath id="b"><path d="M0 36h148v111.65625H0Zm0 0"/></clipPath><clipPath id="c"><path d="M147 0h368.8086v38H147Zm0 0"/></clipPath><clipPath id="d"><path d="M147 37h368.8086v110.65625H147Zm0 0"/></clipPath><clipPath id="e"><path d="M147 36h368.8086v111.65625H147Zm0 0"/></clipPath><clipPath id="z"><path d="M0 36h515.8086v2H0Zm0 0"/></clipPath><clipPath id="A"><path d="M0 73h515.8086v2H0Zm0 0"/></clipPath><clipPath id="B"><path d="M0 110h515.8086v1H0Zm0 0"/></clipPath><clipPath id="C"><path d="M0 147h515.8086v.65625H0Zm0 0"/></clipPath><clipPath id="D"><path d="M0 0h515.8086v147.65625H0Zm0 0"/></clipPath><clipPath id="E"><path d="M147 0h1v147.65625h-1Zm0 0"/></clipPath><clipPath id="G"><path d="M147 36h368.8086v39H147Zm0 0"/></clipPath><clipPath id="I"><path d="M147 73h368.8086v38H147Zm0 0"/></clipPath><clipPath id="J"><path d="M147 110h368.8086v37.65625H147Zm0 0"/></clipPath><clipPath id="K"><path d="M276 110h1v37.65625h-1Zm0 0"/></clipPath><clipPath id="L"><path d="M386 110h1v37.65625h-1Zm0 0"/></clipPath></defs><g clip-path="url(#a)"><path fill="#fff" d="M.19922 37.01563v110.4453h147.26172V37.01564Zm0 0"/></g><g clip-path="url(#b)"><path fill="none" stroke="#000" stroke-miterlimit="10" stroke-width=".39804" d="M.19922 37.01564V147.461H147.461V37.01564Zm0 0"/></g><g clip-path="url(#c)"><path fill="#fff" stroke="#000" stroke-miterlimit="10" stroke-width=".39804" d="M147.461 37.01564V.19922h368.1564v36.81642Zm0 0"/></g><g clip-path="url(#d)"><path fill="#fff" d="M147.46094 37.01563v110.4453h368.15625V37.01564Zm0 0"/></g><g clip-path="url(#e)"><path fill="none" stroke="#000" stroke-miterlimit="10" stroke-width=".39804" d="M147.461 37.01564V147.461h368.1564V37.01564Zm0 0"/></g><path fill="#fff" stroke="#000" stroke-miterlimit="10" stroke-width=".39804" d="M.19922.19922v36.81642H147.461V.19922Zm0 0"/><use xlink:href="#f" x="39.46492" y="23.04334"/><use xlink:href="#g" x="46.70909" y="23.04334"/><use xlink:href="#h" x="53.58378" y="23.04334"/><use xlink:href="#i" x="57.54234" y="23.04334"/><use xlink:href="#j" x="64.08716" y="23.04334"/><use xlink:href="#k" x="72.01747" y="23.04334"/><use xlink:href="#l" x="81.90068" y="23.04334"/><use xlink:href="#i" x="89.51431" y="23.04334"/><use xlink:href="#m" x="100.38136" y="23.04334"/><use xlink:href="#n" x="29.38339" y="58.46137"/><use xlink:href="#o" x="36.32406" y="58.46137"/><use xlink:href="#p" x="40.37498" y="58.46137"/><use xlink:href="#q" x="47.10453" y="58.46137"/><use xlink:href="#i" x="55.14041" y="58.46137"/><use xlink:href="#l" x="65.98686" y="58.46137"/><use xlink:href="#i" x="73.60049" y="58.46137"/><use xlink:href="#r" x="84.46697" y="58.46137"/><use xlink:href="#m" x="90.90933" y="58.46137"/><use xlink:href="#s" x="100.99977" y="58.46137"/><use xlink:href="#t" x="112.15101" y="58.46137"/><use xlink:href="#n" x="28.10696" y="95.27679"/><use xlink:href="#o" x="35.04763" y="95.27679"/><use xlink:href="#p" x="39.09856" y="95.27679"/><use xlink:href="#q" x="45.82811" y="95.27679"/><use xlink:href="#i" x="53.86399" y="95.27679"/><use xlink:href="#l" x="64.71044" y="95.27679"/><use xlink:href="#i" x="72.32407" y="95.27679"/><use xlink:href="#u" x="83.19054" y="95.27679"/><use xlink:href="#m" x="91.9356" y="95.27679"/><use xlink:href="#s" x="101.98723" y="95.27679"/><use xlink:href="#v" x="113.09966" y="95.27679"/><use xlink:href="#n" x="34.17354" y="132.22705"/><use xlink:href="#o" x="41.11422" y="132.22705"/><use xlink:href="#p" x="45.16514" y="132.22705"/><use xlink:href="#q" x="51.89469" y="132.22705"/><use xlink:href="#i" x="59.93057" y="132.22705"/><use xlink:href="#l" x="70.77702" y="132.22705"/><use xlink:href="#i" x="78.39065" y="132.22705"/><use xlink:href="#w" x="89.25713" y="132.22705"/><use xlink:href="#x" x="96.85083" y="132.22705"/><use xlink:href="#m" x="101.81844" y="132.22705"/><use xlink:href="#y" x="109.51564" y="132.22705"/><g clip-path="url(#z)"><path fill="none" stroke="#000" stroke-miterlimit="10" stroke-width=".39804" d="M.19922 37.01564H515.6174"/></g><g clip-path="url(#A)"><path fill="none" stroke="#000" stroke-miterlimit="10" stroke-width=".39804" d="M.19922 73.82815H515.6174"/></g><g clip-path="url(#B)"><path fill="none" stroke="#000" stroke-miterlimit="10" stroke-width=".39804" d="M.19922 110.64458H515.6174"/></g><g clip-path="url(#C)"><path fill="none" stroke="#000" stroke-miterlimit="10" stroke-width=".39804" d="M.19922 147.461H515.6174"/></g><g clip-path="url(#D)"><path fill="none" stroke="#000" stroke-miterlimit="10" stroke-width=".39804" d="M.19922.19922V147.461H515.6174V.19922Zm0 0"/></g><g clip-path="url(#E)"><path fill="none" stroke="#000" stroke-miterlimit="10" stroke-width=".39804" d="M147.461.19922V147.461"/></g><use xlink:href="#u" x="155.27456" y="21.33632"/><use xlink:href="#F" x="164.01961" y="21.33632"/><use xlink:href="#u" x="268.68038" y="22.7397"/><use xlink:href="#r" x="277.42543" y="22.7397"/><use xlink:href="#v" x="383.47659" y="22.66878"/><use xlink:href="#s" x="486.54537" y="21.92464"/><use xlink:href="#F" x="495.29042" y="21.92464"/><g clip-path="url(#G)"><path fill="none" stroke="#000" stroke-miterlimit="10" stroke-width=".39804" d="M147.461 37.01564v36.81251h368.1564V37.01564Zm0 0"/></g><use xlink:href="#u" x="216.80339" y="57.33867"/><path fill="none" stroke="#000" stroke-dasharray="2.9853629572 2.9853629572" stroke-miterlimit="10" stroke-width=".39804" d="M276.31652 37.01564v36.81251"/><use xlink:href="#H" x="273.14522" y="59.49418"/><use xlink:href="#s" x="327.29158" y="58.83195"/><path fill="none" stroke="#000" stroke-dasharray="2.9853629572 2.9853629572" stroke-miterlimit="10" stroke-width=".39804" d="M386.76188 37.01564v36.81251"/><use xlink:href="#s" x="437.77977" y="58.83195"/><g clip-path="url(#I)"><path fill="none" stroke="#000" stroke-miterlimit="10" stroke-width=".39804" d="M147.461 73.82815v36.81643h368.1564V73.82815Zm0 0"/></g><use xlink:href="#s" x="216.80339" y="95.66134"/><path fill="none" stroke="#000" stroke-dasharray="2.9853629572 2.9853629572" stroke-miterlimit="10" stroke-width=".39804" d="M276.31652 73.82815v36.81643"/><use xlink:href="#s" x="327.29158" y="95.66134"/><path fill="none" stroke="#000" stroke-dasharray="2.9853629572 2.9853629572" stroke-miterlimit="10" stroke-width=".39804" d="M386.76188 73.82815v36.81643"/><use xlink:href="#H" x="383.61243" y="96.31659"/><use xlink:href="#u" x="437.77977" y="94.16707"/><g clip-path="url(#J)"><path fill="none" stroke="#000" stroke-miterlimit="10" stroke-width=".39804" d="M147.461 110.64458V147.461h368.1564v-36.81642Zm0 0"/></g><use xlink:href="#u" x="216.80339" y="130.99647"/><g clip-path="url(#K)"><path fill="none" stroke="#000" stroke-dasharray="2.9853629572 2.9853629572" stroke-miterlimit="10" stroke-width=".39804" d="M276.31652 110.64458V147.461"/></g><use xlink:href="#H" x="273.14522" y="133.13899"/><use xlink:href="#s" x="327.29158" y="132.49074"/><g clip-path="url(#L)"><path fill="none" stroke="#000" stroke-dasharray="2.9853629572 2.9853629572" stroke-miterlimit="10" stroke-width=".39804" d="M386.76188 110.64458V147.461"/></g><use xlink:href="#H" x="383.61243" y="133.13899"/><use xlink:href="#u" x="437.77977" y="130.99647"/></svg>