<svg xmlns="http://www.w3.org/2000/svg" xmlns:xlink="http://www.w3.org/1999/xlink" width="301.332pt" height="73.973pt" viewBox="0 0 301.332 73.973"><defs><path id="y" d="M-.34375 0h2.67188v-.34375l-.64063-.0625c-.35937-.04687-.40625-.17187-.3125-.5.21875-.71875.45313-1.46875.75-2.34375h2.71875l.8125 2.32813c.125.35937.0625.48437-.3125.51562l-.5625.0625V0h3.10938v-.34375c-.70313-.0625-.82813-.10937-1.0625-.73437l-2.5625-7.32813h-.90625L2.09375-4.8125c-.375 1.0625-.89062 2.51563-1.3125 3.625-.26562.65625-.375.79688-1.125.84375Zm2.625-3.70312c.39063-1.21875.8125-2.40625 1.1875-3.48438H3.5l1.20313 3.48438Zm0 0"/><path id="z" d="M.39063 0h2.95312v-.34375c-.85937-.0625-.90625-.09375-.90625-.71875v-2.84375c0-.3125.01563-.46875.125-.65625.25-.48437.79688-.875 1.4375-.875.82813 0 1.28125.45313 1.28125 1.51563v2.85937c0 .625-.03125.65625-.90625.71875V0h2.96875v-.34375c-.875-.0625-.92187-.09375-.92187-.71875v-3.09375c0-1.23437-.67188-1.9375-1.78125-1.9375-.90625 0-1.46875.4375-2.21875.92188l-.15625-.92188-1.8125.3125v.29688l.45312.0625c.3125.04687.40625.09375.40625.53125v3.82812c0 .625-.04687.65625-.92187.71875Zm0 0"/><path id="A" d="M.375-5.46875h.875v4.23438C1.25 0 2.17188.14063 2.59375.14063c.625 0 1.20313-.3125 1.54688-.53125l-.07813-.25c-.29687.10937-.5625.15624-.875.15624-.40625 0-.79687-.29687-.79687-1.21874v-3.76563h1.5625v-.48437h-1.5625v-1.53125h-.34375L1.3125-5.95312H.375Zm0 0"/><path id="B" d="m2.4375-6.82812.1875.25 1.82813-1.01563c.35937-.20312.6875-.40625.6875-.65625s-.29688-.53125-.46875-.53125c-.21875 0-.42188.125-.78125.5ZM.59375-2.9375c0 1.92188.82813 3.07813 2.79688 3.07813 1.35937 0 2.04687-.75 2.375-1.70313L5.40625-1.75c-.34375.70313-.8125 1.26563-1.76562 1.26563-1.51563 0-1.8125-1.4375-1.78125-2.70313h3.5c.26562 0 .48437-.0625.48437-.46875 0-.71875-.23437-2.4375-2.45312-2.4375C1.48438-6.09375.59375-4.75.59375-2.9375M1.875-3.65625c0-.5.17188-2.01562 1.45313-2.01562 1.10937 0 1.25 1.15625 1.25 1.625 0 .23437-.07813.39062-.42188.39062Zm0 0"/><path id="C" d="M.59375-2.92187c0 2.03125 1 3.0625 2.8125 3.0625.85938 0 2.01563-.4375 2.34375-1.75l-.35937-.15626c-.375.84376-.85938 1.28126-1.75 1.28126-1.4375 0-1.78125-1.51563-1.78125-2.65625 0-1.8125.71875-2.53125 1.54687-2.53125.5625 0 .90625.40625 1.15625 1.0625.07813.1875.15625.3125.39063.3125s.70312-.15625.70312-.625c0-.5625-.79687-1.17188-2.10937-1.17188-2.21875 0-2.95313 1.5625-2.95313 3.17188m0 0"/><path id="D" d="M.59375-2.85937c0 1.79687.9375 3 2.54688 3 .65625 0 1.21875-.29688 1.875-.82813v.59375L5.10938 0h1.96875v-.34375c-.85938-.0625-.90625-.09375-.90625-.71875v-7.875L6.09375-9l-1.92187.29688v.29687l.46875.04688c.3125.03125.39062.10937.39062.5625v2c-.34375-.1875-.79687-.29688-1.34375-.29688-1 0-1.75.3125-2.25.82813-.51562.54687-.84375 1.34375-.84375 2.40625M1.85938-3c0-1.57812.5625-2.67187 1.8125-2.67187.5625 0 1.03125.25 1.25.76562.10937.20313.10937.39063.10937.70313v2.14062c0 .26563 0 .46875-.07812.6875-.25.625-.78125.875-1.40625.875-1.125 0-1.6875-1.10937-1.6875-2.5m0 0"/><path id="E" d="M.59375-2.9375c0 1.92188.82813 3.07813 2.79688 3.07813 1.35937 0 2.04687-.75 2.375-1.70313L5.40625-1.75c-.34375.70313-.8125 1.26563-1.76562 1.26563-1.51563 0-1.8125-1.4375-1.78125-2.70313h3.5c.26562 0 .48437-.0625.48437-.46875 0-.71875-.23437-2.4375-2.45312-2.4375C1.48438-6.09375.59375-4.75.59375-2.9375M1.875-3.65625c0-.5.17188-2.01562 1.45313-2.01562 1.10937 0 1.25 1.15625 1.25 1.625 0 .23437-.07813.39062-.42188.39062Zm0 0"/><path id="J" d="M.42188 0H3.8125v-.34375C2.75-.42187 2.71875-.4375 2.71875-1.125v-6.15625c0-.67187.03125-.6875 1.09375-.76562v-.35938H.42188v.35938c1.07812.07812 1.10937.09375 1.10937.76562V-1.125c0 .6875-.03125.70313-1.10937.78125Zm0 0"/><path id="K" d="M.39063 0h2.95312v-.34375c-.85937-.0625-.90625-.09375-.90625-.71875v-2.84375c0-.3125 0-.46875.09375-.64062.23438-.5.76563-.89063 1.4375-.89063 1.04688 0 1.17188.76563 1.17188 1.51563v2.85937c0 .625-.03125.65625-.92188.71875V0H7.1875v-.34375c-.875-.0625-.90625-.09375-.90625-.71875v-2.84375c0-.3125.01563-.46875.09375-.65625.17188-.48437.6875-.875 1.375-.875.76563 0 1.23438.42188 1.23438 1.51563v2.85937c0 .625-.04688.65625-.92188.71875V0h2.96875v-.34375c-.85937-.0625-.90625-.09375-.90625-.71875v-3.09375c0-1.23437-.67187-1.9375-1.8125-1.9375-1 0-1.70312.65625-2.14062.92188-.29688-.5625-.75-.92188-1.60938-.92188-.9375 0-1.6875.60938-2.125.92188l-.10937-.92188-1.875.3125v.29688l.45312.0625c.3125.04687.40625.09375.40625.53125v3.82812c0 .625-.04687.65625-.92187.71875Zm0 0"/><path id="L" d="M.59375-1.57812c0 .90625.60938 1.71875 1.75 1.71875.70313 0 1.42188-.46875 1.79688-.71875.17187.45312.375.71875.8125.71875.45312 0 .96875-.125 1.4375-.35938L6.3125-.5c-.17187.03125-.45312.04688-.625 0-.21875-.0625-.42187-.28125-.42187-1.03125v-2.95312c0-.70313-.15625-1.60938-2-1.60938-1.35938 0-2.45313.70313-2.45313 1.375 0 .39063.45313.57813.6875.57813.25 0 .32813-.14063.39063-.34375.26562-.90625.76562-1.1875 1.25-1.1875.48437 0 1.01562.25 1.01562 1.21875v.5c-.3125.3125-1.48437.625-2.4375.92187-.875.28125-1.125.89063-1.125 1.45313M1.82813-1.75c0-.5625.25-.85937.9375-1.125.48437-.17187 1.125-.40625 1.39062-.57812v1.71875C4.15625-.75 3.40625-.5 2.9375-.5c-.75 0-1.10937-.53125-1.10937-1.25m0 0"/><path id="M" d="M.5 1.15625C.5 2.39063 1.73438 2.9375 3.14063 2.9375c.71875 0 1.48437-.14062 2.0625-.5.5625-.32812.96875-.90625.96875-1.65625C6.17188-.54687 5.125-1 3.82813-1h-.96875c-.875 0-1.01563-.29687-1.01563-.53125 0-.34375.46875-.53125.625-.59375.23438.03125.48438.04688.625.04688 1.14063 0 2.45313-.5 2.45313-1.98438 0-.5-.17188-.92187-.375-1.125l.96875-.15625.25-.76562-.10938-.10938-1.54687.5c-.34375-.23437-1.03125-.375-1.57813-.375-1.85937 0-2.51562 1.125-2.51562 2.03125 0 1.14063.75 1.67188 1.3125 1.8125v.03125c-.65625.25-1.10938.60938-1.10938 1.07813 0 .4375.48438.875 1.0625.95312v.01563C1.39063 0 .5.28125.5 1.15625m1.17188-.04687c0-.40625.10937-.71875.375-.92188.26562-.20312.67187-.28125 1.25-.28125 1.07812 0 1.85937.28125 1.85937 1.17188 0 .96875-.875 1.4375-1.75 1.4375-1.03125 0-1.73437-.53125-1.73437-1.40625m.21874-5.17188c0-1.20312.60938-1.60937 1.26563-1.60937.59375 0 1.21875.4375 1.21875 1.60937C4.375-3.03125 3.84375-2.5 3.14063-2.5c-.6875 0-1.25-.53125-1.25-1.5625m0 0"/><path id="U" d="M.42188 0H4v-.34375C2.75-.42187 2.71875-.4375 2.71875-1.125v-2.84375h1.70313c1.03125 0 1.07812.28125 1.1875 1.0625h.35937V-5.5h-.35937c-.10938.76563-.15625 1.0625-1.1875 1.0625H2.71875v-3.10937c0-.40625.04688-.4375.45313-.4375H4.375c1.40625 0 1.6875.28125 1.85938 1.53125h.35937v-1.95313H.42188v.35938c1.07812.07812 1.10937.09375 1.10937.76562V-1.125c0 .6875-.03125.70313-1.10937.78125Zm0 0"/><path id="V" d="M.59375-2.96875c0 1.95313.96875 3.10938 2.92188 3.10938s2.90625-1.15625 2.90625-3.10938c0-1.96875-.95313-3.125-2.90625-3.125-1.95313 0-2.92188 1.15625-2.92188 3.125m1.26563 0c0-1.6875.54687-2.70312 1.65625-2.70312 1.10937 0 1.65625 1.01562 1.65625 2.70312 0 1.67188-.54688 2.6875-1.65625 2.6875-1.10938 0-1.65625-1.01562-1.65625-2.6875m0 0"/><path id="W" d="M1.10938-7.95312c0 .45312.3125.75.75.75s.73437-.29688.73437-.75c0-.4375-.29687-.73438-.73437-.73438s-.75.29688-.75.73438M.39063 0h2.95312v-.34375c-.85937-.0625-.90625-.09375-.90625-.71875v-4.95312l-.07812-.07813-1.90625.3125v.29688l.45312.0625c.3125.04687.40625.09375.40625.53125v3.82812c0 .625-.04687.65625-.92187.71875Zm0 0"/><path id="F" d="M.85938-1.3125c0 .73438.32812 1.45313 1.15625 1.45313 1.3125 0 2.42187-1.5 3.14062-2.73438h.03125l-.42187 1.375c-.07813.28125-.125.51563-.125.70313 0 .42187.20312.65625.65625.65625.92187 0 1.60937-.82813 2.01562-1.75l-.28125-.15626C6.8125-1.34374 6.26563-.48436 5.9375-.48436c-.15625 0-.20312-.09375-.20312-.23438 0-.125.04687-.26562.07812-.4375L7.09375-6H6.07813l-.0625.15625c-.20313-.14062-.5625-.25-.89063-.25-2.89062 0-4.26562 3.1875-4.26562 4.78125m1.1875-.01562c0-1.32813 1.20312-4.34375 3.10937-4.34375.29688 0 .5625.10937.73438.26562C5.67188-4.5 5.25-3.29687 4.59375-2.32812 3.92188-1.29687 3.17188-.48437 2.57813-.48437c-.39063 0-.53125-.375-.53125-.84375m0 0"/><path id="N" d="M-.26562 2.23438c.01562.40625.54687.70312 1.125.70312 1.20312 0 1.71875-.98437 2.23437-3.3125l1.125-5.10937H5.75l.10938-.46875h-1.5625l.32812-1.375c.23438-.92188.46875-1.26563.79688-1.26563.32812 0 .54687.26563.8125.85938.07812.10937.15625.20312.34375.20312.25 0 .59375-.21875.59375-.53125 0-.51562-.65625-.9375-1.39063-.9375-1.42187 0-2.01562 1-2.48437 2.60938l-.125.4375H2.125l-.14062.46875H3.0625L1.65625 1.67188c-.14062.75-.28125.82812-.39062.82812-.125 0-.32813-.09375-.64063-.59375C.53125 1.78125.45313 1.625.29688 1.625c-.26563 0-.5625.29688-.5625.60938m0 0"/><path id="O" d="M1.04688-3.42187c0 2.73437.625 5.75 3.1875 5.84375V2.0625C3.375 1.90625 2.01563.82813 2.01563-3.42187c0-4.23438 1.29687-5.29688 2.21875-5.5v-.35938c-2.5625.10938-3.1875 3.125-3.1875 5.85938m0 0"/><path id="P" d="M.71875 2.0625v.35938C3.29688 2.32813 3.92188-.6875 3.92188-3.42187s-.625-5.75-3.20313-5.85938v.35938c.9375.20312 2.23438 1.26562 2.23438 5.5 0 4.25-1.35938 5.32812-2.23438 5.48437m0 0"/><path id="G" d="M.60938-.90625c0 .5.23437 1 .8125 1 .95312 0 1.6875-1.03125 2.17187-1.89062H3.625L3.35938-.875c-.0625.1875-.09375.34375-.09375.48438 0 .32812.15625.48437.5.48437.6875 0 1.17187-.59375 1.48437-1.25l-.21875-.125c-.17187.3125-.53125.89063-.76562.89063-.09375 0-.125-.07813-.125-.17188q0-.11718.04687-.28125l.89063-3.35937H4.25l-.03125.10937c-.14062-.10937-.40625-.17187-.625-.17187-2.03125 0-2.98437 2.23437-2.98437 3.35937M1.5625-.9375c0-.92187.8125-3 2.0625-3 .20313 0 .35938.0625.48438.17188-.14063.625-.45313 1.45312-.89063 2.14062-.45312.70313-.95312 1.23438-1.3125 1.23438-.26562 0-.34375-.25-.34375-.54688m0 0"/><path id="H" d="M.5625-2.39062c0 1.45312.85938 2.25 2.03125 2.25h1.82813v-.5625H2.59375c-.9375 0-1.32812-.59375-1.42187-1.40625H3.625v-.5625H1.17188c.09374-.78125.42187-1.40625 1.42187-1.40625h1.82813V-4.625H2.59375C1.04688-4.625.5625-3.45312.5625-2.39062m0 0"/><path id="I" d="M.23438-.34375c0 .35938.67187.46875 1.0625.46875.28124 0 .79687-.10937 1.14062-.26562.34375.125.57813.26562 1.01563.26562 1.70312 0 3.10937-1.92187 3.10937-3.73437 0-.3125-.04687-.64063-.15625-.9375.14063-.0625.4375-.07813.4375-.25 0-.09375-.09375-.15625-.20312-.15625-.125 0-.26563.01562-.39063.0625-.51562-.89063-1.46875-1.3125-2.51562-1.3125C2.25-6.20312.3125-5 .3125-3.4375c0 .85938.6875 1.17188 1.35938 1.17188 1.0625 0 2.125-1.29688 2.125-2.21875 0-.14063-.01563-.45313-.20313-.45313-.07812 0-.20312.0625-.20312.15625 0 .0625.03125.14063.03125.21875 0 .75-.89063 1.96875-1.75 1.96875-.54688 0-.76563-.32812-.76563-.70312 0-1.35938 1.60938-2.57813 2.82813-2.57813.89062 0 1.70312.375 2.125 1.125C4.9375-4.29687 4.26563-3.28125 3.75-2.45312c-.375.64062-.92187 1.42187-1.5 1.89062-.28125-.125-.67187-.26562-.96875-.26562-.59375 0-1.04687.15624-1.04687.48437m.60937-.01562c0-.07813.28125-.125.375-.125.1875 0 .48438.0625.64063.125-.10938.0625-.45313.14062-.5625.14062-.1875 0-.45313-.04687-.45313-.14062m2 0C3.6875-.875 4.25-1.5625 4.6875-2.3125c.42188-.67187.78125-1.40625 1.35938-1.96875.0625.21875.09375.45313.09375.67188 0 1.46875-1.28125 3.39062-2.6875 3.39062-.15625 0-.4375-.0625-.60938-.14062m0 0"/><path id="Q" d="M-.1875 1.53125c.01563.29688.375.51563.84375.51563.875 0 1.28125-.70313 1.64063-2.29688l.79687-3.5625h1.0625L4.25-4.17187H3.14063l.26562-1.03125c.14063-.5625.28125-.78125.5-.78125.1875 0 .34375.15625.53125.59375.0625.09375.125.17187.28125.17187.1875 0 .45313-.17187.45313-.40625 0-.375-.46875-.6875-1.03125-.6875-1.0625 0-1.5.78125-1.8125 1.85938L2.25-4.17187h-.73437l-.10938.35937h.76563l-1 5.04688c-.07813.4375-.15626.5-.23438.5-.09375 0-.23437-.09376-.45312-.4375-.0625-.09376-.125-.21876-.25-.21876-.20313 0-.42188.21876-.42188.45313m0 0"/><path id="R" d="M.73438-2.39062c0 1.82812.45312 4.01562 2.17187 4.09375v-.28126c-.57812-.125-1.42187-.98437-1.42187-3.8125 0-2.84374.8125-3.70312 1.42187-3.82812V-6.5C1.1875-6.42187.73438-4.23437.73438-2.39062m0 0"/><path id="S" d="M.51563 1.42188v.28124C2.23438 1.625 2.70313-.5625 2.70313-2.39062c0-1.84375-.46875-4.03125-2.1875-4.10938v.28125c.625.125 1.4375 1 1.4375 3.82813S1.09375 1.3125.51563 1.42188m0 0"/><path id="T" d="M.45313 0h1.65625v-2.39062h.48437L3.96875 0h1.67188L4.23438-2.48437c.75-.25 1.20312-.96875 1.20312-1.65625 0-1-.79687-1.76563-1.85937-1.76563h-3.125ZM.9375-.48437v-4.92188h.6875v4.92188ZM2.10938-2.875v-2.53125H3.5625V-2.875Zm1.07812.48438h.64063L4.875-.48437h-.64062Zm.85938-.5625v-2.40625c.53125.15625.90625.6875.90625 1.21875s-.40625 1.09375-.90625 1.1875m0 0"/><clipPath id="i"><path d="M13 11h14v26.57031H13Zm0 0"/></clipPath><clipPath id="j"><path d="M.40625 11H27v26.57031H.40625Zm0 0"/></clipPath><clipPath id="b"><path d="M.45703.75h5.77344v9.7461H.45703Zm0 0"/></clipPath><clipPath id="a"><path d="M0 0h7v11H0z"/></clipPath><clipPath id="m"><path d="M29 .8125h8.16406V17H29Zm0 0"/></clipPath><clipPath id="n"><path d="M21 .8125h16.16406V17H21Zm0 0"/></clipPath><clipPath id="e"><path d="M.4414.02344h4.4961v7.58984H.4414Zm0 0"/></clipPath><clipPath id="d"><path d="M0 0h5v8H0z"/></clipPath><clipPath id="q"><path d="M32 17h5.16406v11H32Zm0 0"/></clipPath><clipPath id="r"><path d="M27 17h10.16406v11H27Zm0 0"/></clipPath><clipPath id="g"><path d="M.82422.70703h2.35937v3.57031H.82422Zm0 0"/></clipPath><clipPath id="f"><path d="M0 0h4v5H0z"/></clipPath><clipPath id="u"><path d="M13 11h14v26.57031H13Zm0 0"/></clipPath><clipPath id="v"><path d="M29 .8125h8.16406V17H29Zm0 0"/></clipPath><clipPath id="w"><path d="M32 17h5.16406v11H32Zm0 0"/></clipPath><clipPath id="h"><path d="M0 0h38v38H0z"/></clipPath><g id="l" clip-path="url(#a)"><g clip-path="url(#b)"><path fill="#75ccf4" d="M6.23047 5.625c0 2.6914-2.1836 4.8711-4.875 4.8711-.3086 0-.60547-.02735-.89844-.08204C2.72266 9.9922 4.4336 8.00781 4.4336 5.625c0-2.38672-1.71093-4.3711-3.97656-4.79297C.75.77734 1.04687.75 1.35547.75c2.6914 0 4.875 2.17969 4.875 4.875"/></g></g><g id="p" clip-path="url(#d)"><g clip-path="url(#e)"><path fill="#75ccf4" d="M4.9375 3.82031c0 2.09375-1.70312 3.79297-3.79687 3.79297-.23829 0-.47266-.01953-.69922-.0625 1.76172-.32812 3.09765-1.875 3.09765-3.73047 0-1.85937-1.33593-3.40625-3.09765-3.73437.22656-.04297.46093-.0625.69921-.0625 2.09375 0 3.79688 1.69922 3.79688 3.79687"/></g></g><g id="t" clip-path="url(#f)"><g clip-path="url(#g)"><path fill="#75ccf4" d="M3.1836 2.49219c0 .98437-.80079 1.78515-1.78516 1.78515-.19922 0-.39453-.03515-.57422-.09765.70312-.23828 1.21094-.90235 1.21094-1.6875S1.52734 1.03906.82422.80079c.17969-.0625.375-.09376.57422-.09376.98437 0 1.78515.79688 1.78515 1.78516"/></g></g><g id="X" clip-path="url(#h)"><g clip-path="url(#i)"><path fill="#99bac6" d="M26.30469 23.125v2.9961c0 .29687-.24219.53906-.53907.53906H24.3711c-.10546.57812-.2578 1.15234-.45703 1.70703l1.20703.69531c.125.07422.21485.1914.25391.32813.03516.13671.01563.28515-.05469.41015l-1.5 2.59375c-.14843.25781-.47656.34375-.73437.19531l-1.21094-.69922a11.11 11.11 0 0 1-1.25 1.25l.69922 1.21094c.07031.125.08984.26953.05469.41016-.03907.13672-.12891.2539-.25.32422l-2.59766 1.5c-.25781.14843-.58594.0586-.73437-.19922l-.69532-1.20703q-.8379.29883-1.71093.45703v1.39453c0 .29688-.23829.53906-.53516.53906h-1.5v-1.7539c5.51562-.97266 9.6914-5.6172 9.6914-11.19141 0-5.58203-4.17578-10.22266-9.6914-11.19531v-1.7539h1.5c.29687 0 .53515.23827.53515.53905v1.39453q.87306.1582 1.71094.45704l.69532-1.20703c.14843-.25782.47656-.34766.73437-.19922l2.59766 1.5c.12109.0703.21093.1875.25.32422.03515.14062.01562.28515-.0547.41015l-.69921 1.21094c.44922.38281.86719.80078 1.25 1.2461l1.21094-.69532c.25781-.15234.58593-.0625.73437.19531l1.5 2.59375c.07032.125.08985.27344.05469.41016-.03906.13672-.1289.2539-.2539.32812l-1.20704.69532c.19922.55468.35157 1.1289.45703 1.70703h1.39454c.29687 0 .53906.24218.53906.53906"/></g><path fill="#4c7889" d="M20.9961 24.625c0 4.21875-3.42188 7.64063-7.64063 7.64063-.28125 0-.55469-.01563-.82422-.04688 3.82813-.41016 6.8164-3.65625 6.8164-7.59375 0-3.94531-2.98828-7.1875-6.8164-7.59766.26953-.03125.54297-.04687.82422-.04687 4.21875 0 7.64062 3.42187 7.64062 7.64453"/><g clip-path="url(#j)"><path fill="#b7d4e2" d="M13.35547 29.4961c-.3086 0-.60547-.02735-.89844-.08204-2.26172-.42187-3.97656-2.40625-3.97656-4.78906 0-2.38672 1.71484-4.3711 3.97656-4.79297.29297-.05469.58985-.08203.89844-.08203 2.6914 0 4.875 2.17969 4.875 4.875 0 2.6914-2.1836 4.8711-4.875 4.8711m12.41016-6.91016h-1.39454c-.10546-.57813-.2578-1.15235-.45703-1.70703l1.20703-.69532c.125-.07421.21485-.1914.25391-.32812.03516-.13672.01563-.28516-.05469-.41016l-1.5-2.59375c-.14843-.25781-.47656-.34375-.73437-.19531l-1.21094.69531c-.38281-.44531-.80078-.86328-1.25-1.2461l.69922-1.21093c.07031-.125.08984-.26953.05469-.41015-.03907-.13672-.12891-.25391-.25-.32422l-2.59766-1.5c-.25781-.14844-.58594-.0586-.73437.19922l-.69532 1.20703q-.8379-.29884-1.71093-.45703v-1.39454c0-.30078-.23829-.53906-.53516-.53906h-3c-.29688 0-.53516.23828-.53516.53906v1.39453c-.58203.10547-1.15625.25782-1.71093.45704l-.69532-1.20703c-.14843-.25782-.47656-.34766-.73437-.19922l-2.59766 1.5c-.1211.0703-.21484.1875-.25.32422-.03906.14062-.01953.28515.05469.41015l.69922 1.21094c-.44922.38281-.86719.80078-1.25 1.2461L3.625 16.65624c-.25781-.14844-.58594-.0625-.73437.19531l-1.5 2.59375c-.07032.125-.08985.27344-.0547.41016.03907.13672.12891.2539.25391.32812l1.20704.69532c-.19922.55468-.35157 1.1289-.45704 1.70703H.94531c-.29687 0-.53906.24218-.53906.53906v2.9961c0 .29687.24219.53906.53906.53906h1.39453c.10547.57812.25782 1.15234.45703 1.70703l-1.20703.69531c-.125.07422-.21484.1914-.2539.32813-.03516.13671-.01563.28515.05469.41015l1.5 2.59375c.14843.25781.47656.34375.73437.19531l1.21094-.69922a11.11 11.11 0 0 0 1.25 1.25l-.69922 1.21094c-.07422.125-.09375.26953-.05469.41016.03516.13672.1289.2539.25.32422l2.59766 1.5c.25781.14843.58593.0586.73437-.19922l.69532-1.20703c.55468.19922 1.1289.35156 1.71093.45703v1.39453c0 .29688.23828.53906.53516.53906h3c.29687 0 .53515-.24218.53515-.53906v-1.39453q.87306-.1582 1.71094-.45703l.69532 1.20703c.14843.25781.47656.34766.73437.19922l2.59766-1.5c.12109-.07032.21093-.1875.25-.32422.03515-.14063.01562-.28516-.0547-.41016l-.69921-1.21093a11.11 11.11 0 0 0 1.25-1.25l1.21094.69921c.25781.14844.58593.0625.73437-.1953l1.5-2.59376c.07032-.125.08985-.27344.05469-.41015-.03906-.13672-.1289-.25391-.2539-.32813l-1.20704-.69531c.19922-.55469.35157-1.1289.45703-1.70703h1.39454c.29687 0 .53906-.2422.53906-.53907V23.125c0-.29687-.24219-.53906-.53907-.53906"/></g><g mask="url(#k)"><use xlink:href="#l" transform="translate(12 19)"/></g><g clip-path="url(#m)"><path fill="#4c7889" d="M37.16406 7.0586v3.51953c0 .29687-.24218.53906-.53906.53906h-.99219c-.08203.22265-.17187.4414-.27343.65625l.70312.70312c.09766.10157.15625.23828.15625.3789 0 .14454-.0586.28126-.15625.38282l-2.4961 2.48828c-.21093.21094-.55078.21094-.76171 0l-.70313-.70312c-.21484.10547-.4336.19531-.66015.27343v.9922c0 .29687-.2422.53906-.53907.53906h-1.76171v-1.23047c3.21093-.37891 5.70703-3.26953 5.70703-6.77735 0-3.51172-2.4961-6.40234-5.70703-6.78125V.8125h1.76171c.29688 0 .53907.23828.53907.53516v.99218c.22656.07813.4453.17188.66015.27344l.70313-.70312c.21093-.20704.55078-.20704.76172 0l2.49609 2.48828c.09766.10156.15625.23828.15625.38281s-.0586.28125-.15625.38281l-.70312.69922c.10156.21485.1914.4336.27343.66016h.99219c.29688 0 .53906.23828.53906.53515"/></g><g clip-path="url(#n)"><path fill="#668fa3" d="M29.14063 12.61328c-.23829 0-.47266-.01953-.69922-.0625-1.76172-.32812-3.09766-1.875-3.09766-3.73047 0-1.85937 1.33594-3.40625 3.09766-3.73437.22656-.04297.46093-.0625.69921-.0625 2.09376 0 3.79688 1.69922 3.79688 3.79687 0 2.09375-1.70312 3.79297-3.79687 3.79297M36.625 6.52344h-.99219c-.08203-.22656-.17187-.44531-.27343-.66016l.70312-.69922c.09766-.10156.15625-.23828.15625-.38281s-.0586-.28125-.15625-.38281l-2.4961-2.48828c-.21093-.20704-.55078-.20704-.76171 0l-.70313.70312c-.21484-.10156-.4336-.19531-.66015-.27344v-.99218c0-.29688-.2422-.53516-.53907-.53516H27.375c-.29687 0-.53906.23828-.53906.53516v.99218c-.22266.07813-.44532.17188-.66016.27344l-.70312-.70312c-.21094-.20704-.55079-.20704-.76172 0l-2.49219 2.48828c-.10156.10156-.16016.23828-.16016.38281s.0586.28125.16016.38281l.70313.69922c-.10547.21485-.19532.4336-.27344.66016h-.9961c-.29687 0-.53906.23828-.53906.53515v3.51954c0 .29687.24219.53906.53906.53906h.9961c.07812.22265.16797.4414.27343.65625l-.70312.70312c-.10156.10157-.16016.23828-.16016.3789 0 .14454.0586.28126.16016.38282l2.49219 2.48828c.21093.21094.55078.21094.76172 0l.70312-.70312c.21485.10547.4375.19531.66016.27343v.9922c0 .29687.24218.53906.53906.53906h3.52734c.29688 0 .53907-.2422.53907-.53907v-.99218c.22656-.07813.4453-.16797.66015-.27344l.70313.70312c.21093.21094.55078.21094.76172 0l2.49609-2.48828c.09766-.10156.15625-.23828.15625-.38281 0-.14063-.0586-.27735-.15625-.3789l-.70312-.70313c.10156-.21485.1914-.4336.27343-.65625h.99219c.29688 0 .53906-.24219.53906-.53907V7.0586c0-.29687-.24218-.53515-.53906-.53515"/></g><g mask="url(#o)"><use xlink:href="#p" transform="translate(28 5)"/></g><g clip-path="url(#q)"><path fill="#4c7889" d="M37.16406 22.49219c0 .29687-.24218.53906-.53906.53906h-.4375c-.08984.64063-.33984 1.24219-.73047 1.75781l.3125.3125c.21094.20703.21094.55078 0 .75782-.10547.10546-.24219.16015-.38281.16015-.13672 0-.27344-.05469-.3789-.16015l-.3125-.3086c-.51563.39063-1.1172.63672-1.75782.72656v.44141c0 .29688-.24219.53906-.53906.53906V26.1875c1.59765-.46484 2.76953-1.94531 2.76953-3.6914 0-1.75-1.17188-3.22657-2.76953-3.69532v-1.07422c.29687 0 .53906.23828.53906.53907v.4375c.64063.08984 1.24219.33984 1.75781.73046l.3086-.3125c.21093-.21093.55468-.21093.76562 0 .20703.21094.20703.55079 0 .76172l-.3125.3125c.39063.51563.64063 1.11719.73047 1.75782h.4375c.29688 0 .53906.24218.53906.53906"/></g><g clip-path="url(#r)"><path fill="#668fa3" d="M32.39844 24.27734c-.19922 0-.39453-.03515-.57422-.09765-.70313-.23828-1.21094-.90235-1.21094-1.6875s.50781-1.45313 1.21094-1.6914c.17969-.0625.375-.09376.57422-.09376.98437 0 1.78515.79688 1.78515 1.78516 0 .98437-.80078 1.78515-1.78515 1.78515m4.22656-2.32421h-.4375c-.08984-.64063-.33984-1.2422-.73047-1.75782l.3125-.3125c.20703-.21093.20703-.55078 0-.76172-.21094-.21093-.55469-.21093-.76562 0l-.3086.3125c-.51562-.39062-1.11718-.64062-1.75781-.73046v-.4375c0-.30079-.24219-.53907-.53906-.53907-.29688 0-.53907.23828-.53907.53907v.4375c-.64062.08984-1.24218.33984-1.7578.73046l-.3125-.3125c-.21094-.21093-.55079-.21093-.76173 0-.21093.21094-.21093.55079 0 .76172l.3125.3125c-.39062.51563-.64062 1.11719-.73046 1.75782h-.4375c-.29688 0-.53907.23828-.53907.53906 0 .29687.24219.53515.53907.53515h.4375c.08984.64063.33984 1.2461.73046 1.76172l-.3125.3086c-.20703.21093-.20703.55078 0 .76171.10547.10547.2461.16016.38282.16016s.27343-.05469.3789-.16015l.3125-.3086c.51563.38672 1.11719.63672 1.75782.72656v.44141c0 .29688.24218.53906.53906.53906s.53906-.24218.53906-.53906v-.4414c.64063-.08985 1.24219-.33594 1.75781-.72657l.3125.3086c.10547.10546.24219.16015.3789.16015.14063 0 .27735-.05469.38282-.16015.21094-.20704.21094-.55079 0-.75782l-.3125-.3125c.39063-.51562.64063-1.11718.73047-1.75781h.4375c.29688 0 .53906-.24219.53906-.53906 0-.29688-.24218-.53907-.53906-.53907"/></g><g mask="url(#s)"><use xlink:href="#t" transform="translate(31 20)"/></g><path fill="#668fa3" d="M13.35547 29.4961c-.3086 0-.60547-.02735-.89844-.08204-2.26172-.42187-3.97656-2.40625-3.97656-4.78906 0-2.38672 1.71484-4.3711 3.97656-4.79297.29297-.05469.58985-.08203.89844-.08203 2.6914 0 4.875 2.17969 4.875 4.875 0 2.6914-2.1836 4.8711-4.875 4.8711m0-12.51563c-.28125 0-.55469.01562-.82422.04687-3.83203.41016-6.8164 3.65235-6.8164 7.59766 0 3.9375 2.98437 7.1836 6.8164 7.59375.26953.03125.54297.04688.82422.04688 4.21875 0 7.64062-3.42188 7.64062-7.64063 0-4.22266-3.42187-7.64453-7.64062-7.64453"/><g clip-path="url(#u)"><path fill="#99bac6" d="M26.30469 23.125v2.9961c0 .29687-.24219.53906-.53907.53906H24.3711c-.10546.57812-.2578 1.15234-.45703 1.70703l1.20703.69531c.125.07422.21485.1914.25391.32813.03516.13671.01563.28515-.05469.41015l-1.5 2.59375c-.14843.25781-.47656.34375-.73437.19531l-1.21094-.69922a11.11 11.11 0 0 1-1.25 1.25l.69922 1.21094c.07031.125.08984.26953.05469.41016-.03907.13672-.12891.2539-.25.32422l-2.59766 1.5c-.25781.14843-.58594.0586-.73437-.19922l-.69532-1.20703q-.8379.29883-1.71093.45703v1.39453c0 .29688-.23829.53906-.53516.53906h-1.5v-1.7539c5.51562-.97266 9.6914-5.6172 9.6914-11.19141 0-5.58203-4.17578-10.22266-9.6914-11.19531v-1.7539h1.5c.29687 0 .53515.23827.53515.53905v1.39453q.87306.1582 1.71094.45704l.69532-1.20703c.14843-.25782.47656-.34766.73437-.19922l2.59766 1.5c.12109.0703.21093.1875.25.32422.03515.14062.01562.28515-.0547.41015l-.69921 1.21094c.44922.38281.86719.80078 1.25 1.2461l1.21094-.69532c.25781-.15234.58593-.0625.73437.19531l1.5 2.59375c.07032.125.08985.27344.05469.41016-.03906.13672-.1289.2539-.2539.32812l-1.20704.69532c.19922.55468.35157 1.1289.45703 1.70703h1.39454c.29687 0 .53906.24218.53906.53906"/></g><g clip-path="url(#v)"><path fill="#4c7889" d="M37.16406 7.0586v3.51953c0 .29687-.24218.53906-.53906.53906h-.99219c-.08203.22265-.17187.4414-.27343.65625l.70312.70312c.09766.10157.15625.23828.15625.3789 0 .14454-.0586.28126-.15625.38282l-2.4961 2.48828c-.21093.21094-.55078.21094-.76171 0l-.70313-.70312c-.21484.10547-.4336.19531-.66015.27343v.9922c0 .29687-.2422.53906-.53907.53906h-1.76171v-1.23047c3.21093-.37891 5.70703-3.26953 5.70703-6.77735 0-3.51172-2.4961-6.40234-5.70703-6.78125V.8125h1.76171c.29688 0 .53907.23828.53907.53516v.99218c.22656.08203.4453.17188.66015.27344l.70313-.70312c.21093-.20704.55078-.20704.76172 0l2.49609 2.48828c.09766.10156.15625.23828.15625.38281s-.0586.28125-.15625.38281l-.70312.69922c.10156.21485.1914.4336.27343.66016h.99219c.29688 0 .53906.23828.53906.53515"/></g><g clip-path="url(#w)"><path fill="#4c7889" d="M37.16406 22.49219c0 .29687-.24218.53906-.53906.53906h-.4375c-.08984.64063-.33984 1.24219-.73047 1.75781l.3125.3125c.21094.21094.21094.55078 0 .76172-.10547.10547-.24219.15625-.38281.15625-.13672 0-.27344-.05078-.3789-.15625l-.3125-.3125c-.51563.39063-1.1172.64063-1.75782.72656v.44141c0 .29688-.24219.53906-.53906.53906V26.1875c1.59765-.46484 2.76953-1.9414 2.76953-3.6914s-1.17188-3.22657-2.76953-3.69141v-1.07813c.29687 0 .53906.24219.53906.53907v.4375c.64063.08984 1.24219.33984 1.75781.73046l.3086-.3125c.21093-.21093.55468-.21093.76562 0 .20703.21094.20703.55079 0 .76172l-.3125.3125c.39063.51563.64063 1.11719.73047 1.75782h.4375c.29688 0 .53906.24218.53906.53906"/></g></g><mask id="k"><g filter="url(#x)"><path fill-opacity=".5" d="M-203.29304-48.27406h433.91808V58.24706h-433.91808z"/></g></mask><mask id="o"><g filter="url(#x)"><path fill-opacity=".5" d="M-203.29304-48.27406h433.91808V58.24706h-433.91808z"/></g></mask><mask id="s"><g filter="url(#x)"><path fill-opacity=".5" d="M-203.29304-48.27406h433.91808V58.24706h-433.91808z"/></g></mask><filter id="x" width="100%" height="100%" x="0%" y="0%"><feColorMatrix color-interpolation-filters="sRGB" values="0 0 0 0 1 0 0 0 0 1 0 0 0 0 1 0 0 0 1 0"/></filter></defs><g fill="#ff7f00"><use xlink:href="#y" x="4.30745" y="21.24589"/><use xlink:href="#z" x="12.00943" y="21.24589"/><use xlink:href="#A" x="19.51757" y="21.24589"/><use xlink:href="#B" x="23.69163" y="21.24589"/><use xlink:href="#C" x="29.93333" y="21.24589"/><use xlink:href="#B" x="35.95535" y="21.24589"/><use xlink:href="#D" x="42.19705" y="21.24589"/><use xlink:href="#E" x="49.45966" y="21.24589"/><use xlink:href="#z" x="55.70137" y="21.24589"/><use xlink:href="#A" x="63.2095" y="21.24589"/></g><use xlink:href="#F" x="70.10928" y="21.24589" fill="#ff7f00"/><use xlink:href="#G" x="30.25383" y="36.75302" fill="#ff7f00"/><use xlink:href="#H" x="37.91575" y="36.75302" fill="#ff7f00"/><use xlink:href="#I" x="44.71831" y="36.75302" fill="#ff7f00"/><use xlink:href="#J" x="233.88951" y="20.41773" fill="#007f7f"/><g fill="#007f7f"><use xlink:href="#K" x="237.90849" y="20.41773"/><use xlink:href="#L" x="249.11255" y="20.41773"/><use xlink:href="#M" x="255.45764" y="20.41773"/><use xlink:href="#E" x="261.76395" y="20.41773"/></g><use xlink:href="#N" x="270.73303" y="20.41773" fill="#007f7f"/><g fill="#007f7f"><use xlink:href="#O" x="278.31871" y="20.41773"/><use xlink:href="#F" x="283.28106" y="20.41773"/></g><use xlink:href="#P" x="291.39657" y="20.41773" fill="#007f7f"/><use xlink:href="#Q" x="248.78828" y="35.92485" fill="#007f7f"/><g fill="#007f7f"><use xlink:href="#R" x="254.24299" y="35.92485"/><use xlink:href="#G" x="257.6714" y="35.92485"/></g><use xlink:href="#S" x="263.57841" y="35.92485" fill="#007f7f"/><use xlink:href="#H" x="268.76174" y="35.92485" fill="#007f7f"/><use xlink:href="#T" x="275.5643" y="35.92485" fill="#007f7f"/><path fill="none" stroke="#000" stroke-miterlimit="10" stroke-width=".39762" d="M91.4414 24.5586h124.1211"/><path stroke="#000" stroke-miterlimit="10" stroke-width=".39762" d="M219.39062 24.5586c-.46875-.125-2.53906-.84376-3.82812-1.6211v3.24219c1.28906-.77735 3.35937-1.4961 3.82812-1.6211Zm0 0"/><use xlink:href="#U" x="126.16033" y="13.38283"/><use xlink:href="#V" x="132.76387" y="13.38283"/><use xlink:href="#z" x="139.76802" y="13.38283"/><use xlink:href="#C" x="147.27615" y="13.38283"/><use xlink:href="#A" x="153.29817" y="13.38283"/><use xlink:href="#W" x="157.47223" y="13.38283"/><use xlink:href="#V" x="161.00015" y="13.38283"/><use xlink:href="#z" x="168.0043" y="13.38283"/><use xlink:href="#N" x="178.23987" y="13.38283"/><use xlink:href="#X" transform="translate(137 32)"/></svg>