<svg xmlns="http://www.w3.org/2000/svg" xmlns:xlink="http://www.w3.org/1999/xlink" width="378.652pt" height="227.768pt" viewBox="0 0 378.652 227.768"><defs><path id="b" d="M1.4375-4.26562h9.26563V-5.25H1.4375Zm0 0"/><path id="c" d="M1.82813 0h5.53125v-.48437l-1.40625-.125c-.35938-.03126-.5625-.15626-.5625-.82813v-9.92187l-.07813-.09375-3.48437.59375v.40625l1.57812.20312c.28125.03125.39063.15625.39063.64063v8.17187c0 .67188-.15625.79688-.54688.82813l-1.42187.125Zm0 0"/><path id="d" d="M.45313-.15625.625 0h6.96875l.57813-2.21875-.46875-.09375C7.34375-1.39062 7-1.26562 6.32813-1.26562H2.03125c.26563-.89063 1.26563-2.07813 2.82813-3.21875 1.60937-1.17188 2.85937-1.9375 2.85937-3.8125 0-2.34375-1.54687-3.15625-3.32812-3.15625-2.3125 0-3.5 1.40625-3.5 2.28125 0 .5625.65625.84375.9375.84375.29687 0 .40625-.1875.48437-.46875.26563-1.15625.9375-2.0625 1.96875-2.0625 1.29688 0 1.67188 1.07812 1.67188 2.3125 0 1.8125-.92188 2.82812-2.39063 4.125C1.48438-2.60937.76563-1.46875.45313-.15625m0 0"/><path id="e" d="M.70313-5.625c0 3.35938.98437 5.82813 3.76562 5.82813C7.23438.20313 8.25-2.26562 8.25-5.625c0-3.375-1.01562-5.82812-3.78125-5.82812C1.6875-11.45312.70313-9 .70313-5.625m1.70312 0c0-2.75.46875-5.23437 2.0625-5.23437S6.53125-8.375 6.53125-5.625c0 2.73438-.46875 5.23438-2.0625 5.23438s-2.0625-2.5-2.0625-5.23438m0 0"/><path id="j" d="M.32813 0H5.1875l.10938-1.67187h-.28125C4.82813-.45312 4.3125-.32812 3.32813-.32812c-.46875 0-.79688-.01563-1-.09375C2.125-.5 2.09375-.67187 2.09375-1.125v-4.48437c0-.51563.03125-.53125.90625-.59375v-.26563H.32813v.26563c.82812.0625.84375.07812.84375.59375v4.75c0 .51562-.01563.53125-.84375.59375Zm0 0"/><path id="k" d="M.45313-1.21875c0 .70313.46875 1.32813 1.34375 1.32813.54687 0 1.09375-.35938 1.39062-.5625.14063.35937.29688.5625.625.5625.34375 0 .75-.09375 1.10938-.28126l-.0625-.21874c-.125.03125-.34375.04687-.48438 0-.17187-.03125-.32812-.20313-.32812-.79688v-2.26562c0-.54688-.10938-1.25-1.53125-1.25-1.04688 0-1.89063.54687-1.89063 1.0625 0 .3125.34375.45312.53125.45312.20313 0 .25-.10937.29688-.26562.20312-.70313.59375-.92188.96875-.92188.35937 0 .78125.1875.78125.9375v.39063c-.23438.23437-1.14063.48437-1.875.71875-.6875.20312-.875.67187-.875 1.10937m.95312-.125c0-.4375.20313-.67187.71875-.85937.39063-.14063.875-.32813 1.07813-.45313v1.32813c0 .75-.57813.9375-.9375.9375-.57813 0-.85938-.40625-.85938-.95313m0 0"/><path id="l" d="M.45313-2.25c0 1.5625.76562 2.35938 2.17187 2.35938.65625 0 1.54688-.34375 1.79688-1.34375l-.26563-.125C3.85938-.70312 3.5-.375 2.8125-.375c-1.125 0-1.375-1.17187-1.375-2.04687 0-1.39063.54688-1.95313 1.1875-1.95313.4375 0 .70313.3125.89063.82813.0625.14062.125.23437.29687.23437.1875 0 .54688-.125.54688-.48437 0-.42188-.60938-.90625-1.625-.90625C1.03125-4.70312.45313-3.5.45313-2.25m0 0"/><path id="m" d="M.45313-2.29687c0 1.51562.75 2.40625 2.25 2.40625s2.25-.89063 2.25-2.40625c0-1.5-.75-2.40625-2.25-2.40625s-2.25.90625-2.25 2.40625m.98437 0c0-1.28125.40625-2.07813 1.26563-2.07813.85937 0 1.28125.79688 1.28125 2.07813C3.98438-1 3.5625-.21875 2.70313-.21875 1.84375-.21875 1.4375-1 1.4375-2.29687m0 0"/><path id="n" d="m.23438-4.23437.35937.04687c.25.04688.29688.09375.29688.42188v2.46875c0 1.07812.64062 1.40625 1.34375 1.40625.79687 0 1.4375-.53125 1.70312-.67188L4.03125 0h1.5v-.26562c-.64062-.04688-.70312-.07813-.70312-.54688v-3.82812L4.75-4.70312l-1.45312.25v.21875l.35937.04687c.23438.04688.29688.09375.29688.42188v2.10937c0 .26563-.03125.46875-.07813.5625-.21875.42188-.65625.70313-1.14062.70313-.54688 0-.95313-.34375-.95313-1.07813v-3.17187l-.0625-.0625-1.48437.25Zm0 0"/><path id="o" d="M.29688 0h2.46875v-.26562C1.9375-.3125 1.875-.34375 1.875-.8125V-3c0-.71875.32813-.96875.54688-.96875.14062 0 .3125.0625.57812.20313.0625.04687.14063.04687.1875.04687.21875 0 .42188-.23437.42188-.51562 0-.21875-.125-.46875-.5-.46875-.32813 0-.60938.20312-1.23438.75l-.10937-.75-1.42188.25v.21875l.35938.04687C.9375-4.14062 1-4.09375 1-3.76562V-.8125c0 .46875-.04687.5-.70312.54688Zm0 0"/><path id="p" d="m.1875-6.46875.35938.03125c.23437.03125.29687.07813.29687.4375V.04688l.17188.0625.375-.35938c.32812.1875.71875.35938 1.42187.35938 1.23438 0 2.32813-.59375 2.32813-2.51563 0-.5625-.125-2.29687-1.8125-2.29687-.70313 0-1.26563.46875-1.60938.67187v-2.85937l-.0625-.04688-1.46875.23438Zm1.53125 4.95313V-3c0-.25.01563-.39062.09375-.53125.23438-.45312.60938-.65625 1.14063-.65625.39062 0 1.20312.21875 1.20312 1.84375 0 1.375-.40625 2.125-1.34375 2.125-.5 0-.85937-.25-1.01562-.71875-.0625-.17187-.07813-.35937-.07813-.57812m0 0"/><path id="q" d="M.45313-2.26562c0 1.48437.64062 2.375 2.17187 2.375 1.03125 0 1.5625-.57813 1.8125-1.3125l-.28125-.15626c-.25.54688-.60937.98438-1.34375.98438-1.17187 0-1.40625-1.10937-1.375-2.07812H4.125c.20313 0 .375-.0625.375-.35938 0-.54687-.1875-1.89062-1.89062-1.89062-1.46875 0-2.15625 1.04687-2.15625 2.4375m.98437-.54688c0-.39062.14063-1.5625 1.125-1.5625.85938 0 .95313.89063.95313 1.26563 0 .17187-.04688.29687-.3125.29687Zm0 0"/><path id="r" d="M.29688 0h2.28125v-.26562C1.90625-.3125 1.875-.34375 1.875-.8125V-3c0-.25 0-.375.07813-.5.17187-.375.57812-.6875 1.10937-.6875.79688 0 .90625.57813.90625 1.15625V-.8125c0 .46875-.03125.5-.71875.54688V0h2.28125v-.26562c-.67187-.04688-.6875-.07813-.6875-.54688V-3c0-.25 0-.35937.0625-.51562.14063-.375.53125-.67188 1.0625-.67188.59375 0 .95313.32813.95313 1.15625V-.8125c0 .46875-.03125.5-.71875.54688V0H8.5v-.26562c-.67187-.04688-.70312-.07813-.70312-.54688v-2.39062c0-.95313-.51563-1.5-1.39063-1.5-.76562 0-1.3125.51562-1.65625.71875-.21875-.4375-.57812-.71875-1.23437-.71875-.71875 0-1.3125.48437-1.64063.71875l-.07812-.71875-1.45313.25v.21875l.35938.04687C.9375-4.14062 1-4.09375 1-3.76562V-.8125c0 .46875-.03125.5-.70312.54688Zm0 0"/><path id="s" d="M.29688 0h2.28125v-.26562C1.90625-.3125 1.875-.34375 1.875-.8125V-3c0-.25.01563-.35937.09375-.51562.20313-.35938.625-.67188 1.10938-.67188.64062 0 1 .34375 1 1.15625V-.8125c0 .46875-.03125.5-.71875.54688V0h2.29687v-.26562c-.67187-.04688-.70312-.07813-.70312-.54688v-2.39062c0-.95313-.53125-1.5-1.375-1.5-.70313 0-1.125.34375-1.70313.71875l-.14062-.71875-1.39063.25v.21875l.35938.04687C.9375-4.14062 1-4.09375 1-3.76562V-.8125c0 .46875-.03125.5-.70312.54688Zm0 0"/><path id="t" d="M.28125-4.20312h.6875v3.25C.96875 0 1.67188.10938 2 .10938c.48438 0 .92188-.23438 1.1875-.40625L3.125-.5c-.23437.09375-.42187.125-.67187.125-.3125 0-.60938-.23437-.60938-.9375v-2.89062h1.20313v-.39063H1.84375v-1.17187h-.26562L1-4.59375H.28125Zm0 0"/><path id="u" d="M.65625-3.98437c0 .34375.23438.59375.59375.59375.35938 0 .57813-.25.57813-.59375s-.21876-.60938-.57813-.60938-.59375.26563-.59375.60938m0 3.5c0 .34375.23438.59375.59375.59375.35938 0 .57813-.25.57813-.59375s-.21876-.59375-.57813-.59375-.59375.25-.59375.59375m0 0"/><path id="v" d="M.1875 0h2.28125v-.26562c-.67187-.04688-.70312-.07813-.70312-.54688v-6.07812l-.0625-.04688-1.46875.23438v.23437l.35937.03125c.23438.03125.29688.07813.29688.4375v5.1875c0 .46875-.03126.5-.70313.54688Zm0 0"/><path id="w" d="M.28125-4.20312H1V-.8125c0 .46875-.03125.5-.70312.54688V0h2.46875v-.26562C1.90625-.3125 1.875-.32812 1.875-.8125v-3.39062h1.15625v-.39063H1.875l-.03125-1.04687c-.03125-.875.29688-.98438.45313-.98438.1875 0 .39062.09375.625.64063.04687.09375.125.15625.26562.15625.1875 0 .45313-.15625.45313-.4375 0-.29688-.39063-.67188-1.14063-.67188-.51562 0-.95312.23438-1.1875.59375C1.09375-6.01562 1-5.53125 1-4.92187v.32812H.28125Zm0 0"/><path id="x" d="M.85938-6.125c0 .34375.23437.57813.57812.57813.32813 0 .5625-.23438.5625-.57813 0-.32812-.23437-.5625-.5625-.5625-.34375 0-.57812.23438-.57812.5625M.29688 0h2.28125v-.26562C1.90625-.3125 1.875-.34375 1.875-.8125v-3.82812l-.0625-.0625-1.46875.25v.21875l.35938.04687C.9375-4.14062 1-4.09375 1-3.76562V-.8125c0 .46875-.03125.5-.70312.54688Zm0 0"/><path id="y" d="M.4375-1.5625.53125-.34375c.34375.29688.90625.45313 1.45313.45313 1.125 0 1.76562-.59375 1.76562-1.39063 0-.8125-.51562-1.1875-1.48437-1.48437-.39063-.125-.98438-.3125-.98438-.84375 0-.48438.35938-.76563.82813-.76563.67187 0 .98437.51563 1.0625 1.09375h.26562V-4.375c-.3125-.23437-.79687-.32812-1.20312-.32812-1.01563 0-1.70313.48437-1.70313 1.375 0 .76562.64063 1.125 1.40625 1.35937.42188.125 1.01563.34375 1.01563.96875 0 .48438-.375.78125-.875.78125-.75 0-1.1875-.54687-1.375-1.34375Zm0 0"/><path id="z" d="M.45313-2.20312c0 1.39062.73437 2.3125 1.96875 2.3125.5 0 .9375-.23438 1.4375-.64063v.46875L3.9375 0h1.51563v-.26562C4.78125-.3125 4.75-.34375 4.75-.8125v-6.07812l-.0625-.04688-1.46875.23438v.23437l.35938.03125c.23437.03125.29687.07813.29687.4375v1.53125c-.26562-.14062-.60937-.23437-1.03125-.23437-.78125 0-1.34375.25-1.73437.65625-.40625.40625-.65625 1.03125-.65625 1.84375m.98437-.10938c0-1.20312.4375-2.0625 1.39063-2.0625.4375 0 .79687.20313.96875.59375.07812.15625.07812.29688.07812.54688v1.64062c0 .20313 0 .375-.0625.53125-.1875.48438-.59375.67188-1.07812.67188-.85938 0-1.29688-.84375-1.29688-1.92188m0 0"/><path id="A" d="m1.875-5.25.14063.1875 1.42187-.79687c.28125-.14063.53125-.29688.53125-.5 0-.1875-.23437-.40625-.375-.40625-.15625 0-.3125.09375-.59375.39062ZM.45313-2.26562c0 1.48437.64062 2.375 2.17187 2.375 1.03125 0 1.5625-.57813 1.8125-1.3125l-.28125-.15626c-.25.54688-.60937.98438-1.34375.98438-1.17187 0-1.40625-1.10937-1.375-2.07812H4.125c.20313 0 .375-.0625.375-.35938 0-.54687-.1875-1.89062-1.89062-1.89062-1.46875 0-2.15625 1.04687-2.15625 2.4375m.98437-.54688c0-.39062.14063-1.5625 1.125-1.5625.85938 0 .95313.89063.95313 1.26563 0 .17187-.04688.29687-.3125.29687Zm0 0"/><clipPath id="a"><path d="M58 0h228v227.53516H58Zm0 0"/></clipPath><clipPath id="f"><path d="M143 6h2v221.53516h-2Zm0 0"/></clipPath><clipPath id="g"><path d="M200 56h2v171.53516h-2Zm0 0"/></clipPath><clipPath id="h"><path d="M59.1211 45H212v181.9414H59.1211Zm0 0"/></clipPath><clipPath id="i"><path d="M189 45h96.66406v151H189Zm0 0"/></clipPath></defs><g clip-path="url(#a)"><path fill="none" stroke="#000" stroke-miterlimit="10" stroke-opacity=".5" stroke-width=".39809" d="M59.12113 198.62107H285.664M59.12113 141.98828H285.664M59.12113 85.35158H285.664M59.12113 28.7149H285.664M87.43753 226.94137V.3985m56.63669 226.54287V.3985m56.6367 226.54287V.3985m56.63669 226.54287V.3985"/></g><path fill="none" stroke="#000" stroke-miterlimit="10" stroke-opacity=".5" stroke-width=".39809" d="M87.43753 127.82813v28.3164"/><g fill-opacity=".5"><use xlink:href="#b" x="76.92449" y="161.86912"/><use xlink:href="#c" x="89.0347" y="161.86912"/></g><path fill="none" stroke="#000" stroke-miterlimit="10" stroke-opacity=".5" stroke-width=".39809" d="M200.71091 127.82813v28.3164"/><use xlink:href="#c" x="196.24995" y="161.86912" fill-opacity=".5"/><path fill="none" stroke="#000" stroke-miterlimit="10" stroke-opacity=".5" stroke-width=".39809" d="M257.3476 127.82813v28.3164"/><use xlink:href="#d" x="252.88526" y="161.86912" fill-opacity=".5"/><path fill="none" stroke="#000" stroke-miterlimit="10" stroke-opacity=".5" stroke-width=".39809" d="M158.23437 198.62107h-28.3164"/><g fill-opacity=".5"><use xlink:href="#b" x="113.73699" y="204.34486"/><use xlink:href="#c" x="125.8472" y="204.34486"/></g><path fill="none" stroke="#000" stroke-miterlimit="10" stroke-opacity=".5" stroke-width=".39809" d="M158.23437 85.35159h-28.3164"/><use xlink:href="#c" x="119.79183" y="91.07523" fill-opacity=".5"/><path fill="none" stroke="#000" stroke-miterlimit="10" stroke-opacity=".5" stroke-width=".39809" d="M158.23437 28.7149h-28.3164"/><use xlink:href="#d" x="119.79183" y="34.43992" fill-opacity=".5"/><path fill="none" stroke="#000" stroke-miterlimit="10" stroke-opacity=".5" stroke-width=".39809" d="M144.07422 127.82813v28.3164"/><use xlink:href="#e" x="119.79183" y="167.43446" fill-opacity=".5"/><path fill="none" stroke="#000" stroke-miterlimit="10" stroke-width=".7962" d="M59.12113 141.98828h220.3749"/><path stroke="#000" stroke-miterlimit="10" stroke-width=".7962" d="M283.65625 141.98828c-.51172-.10937-2.75781-.71094-4.16016-1.36328v2.72265c1.40235-.65234 3.64844-1.2539 4.16016-1.35937Zm0 0"/><g clip-path="url(#f)"><path fill="none" stroke="#000" stroke-miterlimit="10" stroke-width=".7962" d="M144.07422 226.94137V6.56647"/></g><path stroke="#000" stroke-miterlimit="10" stroke-width=".7962" d="M144.07422 2.40625c-.10547.51172-.70703 2.75781-1.36328 4.16016h2.72656c-.65625-1.40235-1.25781-3.64844-1.36328-4.16016Zm0 0"/><g clip-path="url(#g)"><path fill="none" stroke="#000" stroke-dasharray="2.9857813934 2.9857813934" stroke-miterlimit="10" stroke-width="1.19431" d="M200.71091 226.94137V57.03129"/></g><g clip-path="url(#h)"><path fill="none" stroke="#007F7F" stroke-miterlimit="10" stroke-width=".7962" d="M59.12113 411.00769s4.26172-21.03905 5.89844-28.8828 4.26171-20.14843 5.89843-27.65233c1.63672-7.5 4.26172-19.26171 5.89844-26.42186 1.64062-7.16016 4.26562-18.37109 5.90234-25.1953 1.63672-6.82031 4.26172-17.48437 5.89843-23.96484 1.63672-6.47656 4.26172-16.59765 5.89844-22.73436 1.63672-6.14062 4.26172-15.71093 5.89843-21.5078 1.63672-5.79688 4.26172-14.82031 5.89844-20.27734s4.26171-13.9375 5.89843-19.05077c1.63672-5.11719 4.26172-13.04687 5.89844-17.8203 1.64062-4.77735 4.26562-12.16016 5.90234-16.59375s4.26172-11.26952 5.89843-15.36327c1.63672-4.09375 4.26172-10.38281 5.89844-14.1328 1.63672-3.75391 4.26172-9.4961 5.89843-12.90625 1.63672-3.41016 4.26172-8.60937 5.89844-11.67969 1.63672-3.0664 4.26171-7.71874 5.89843-10.4453 1.63672-2.73047 4.26172-6.83203 5.89844-9.21875 1.64062-2.39062 4.26562-5.9453 5.90234-7.99218s4.26172-5.05469 5.89843-6.76172c1.63672-1.70703 4.26172-4.16797 5.89844-5.53125 1.63672-1.36718 4.26171-3.28125 5.89843-4.30468s4.26172-2.39063 5.89844-3.07422 4.26171-1.5039 5.89843-1.84765c1.63672-.33985 5.89844-.6172 5.89844-.6172"/></g><g clip-path="url(#i)"><path fill="none" stroke="#FF7F00" stroke-miterlimit="10" stroke-width=".7962" d="M200.71091 57.03129s2.5586.10156 3.53906.22265c.98438.1211 2.5586.41797 3.53906.66407.98438.24609 2.5586.73828 3.54297 1.10547.98047.36718 2.55469 1.05859 3.53906 1.54687.98047.49219 2.55469 1.3789 3.53906 1.99219.98047.61328 2.5586 1.69921 3.53906 2.43359.98438.73828 2.5586 2.01562 3.53906 2.875.98438.86328 2.5586 2.33984 3.53907 3.3203.98437.98048 2.55859 2.65626 3.54296 3.76173.98047 1.10546 2.55469 2.97656 3.53906 4.20312.98047 1.22656 2.55469 3.29687 3.53906 4.64453.98047 1.35156 2.5586 3.61718 3.53906 5.08984.98438 1.47265 2.5586 3.9336 3.53907 5.53125.98437 1.59375 2.55859 4.2539 3.53906 5.97265.98437 1.71875 2.55859 4.57422 3.54296 6.41406.98047 1.84375 2.55469 4.89453 3.53907 6.85937.98046 1.96484 2.55859 5.21484 3.53906 7.30078s2.55859 5.53515 3.53906 7.74218c.98437 2.21094 2.55859 5.85547 3.53906 8.1875.98437 2.33203 2.55859 6.17187 3.54296 8.6289.98047 2.45313 2.5547 6.49219 3.53907 9.07031.98046 2.57812 2.55468 6.8125 3.53906 9.51171.98046 2.70313 2.55859 7.13281 3.53906 9.95703.98437 2.82422 3.53906 10.39843 3.53906 10.39843"/></g><g fill="#007F7F"><use xlink:href="#j" x="35.06812" y="111.11182"/><use xlink:href="#k" x="40.37281" y="111.11182"/></g><g fill="#007F7F"><use xlink:href="#l" x="47.34951" y="111.11182"/><use xlink:href="#m" x="51.98738" y="111.11182"/><use xlink:href="#n" x="57.38164" y="111.11182"/><use xlink:href="#o" x="63.04461" y="111.11182"/><use xlink:href="#p" x="66.67727" y="111.11182"/><use xlink:href="#q" x="72.27058" y="111.11182"/></g><g fill="#007F7F"><use xlink:href="#r" x="79.17762" y="111.11182"/><use xlink:href="#m" x="87.80643" y="111.11182"/><use xlink:href="#s" x="93.20069" y="111.11182"/><use xlink:href="#t" x="98.9831" y="111.11182"/><use xlink:href="#q" x="102.19775" y="111.11182"/></g><use xlink:href="#u" x="109.10479" y="111.11182" fill="#007F7F"/><g fill="#007F7F"><use xlink:href="#v" x="6.65307" y="123.05366"/><use xlink:href="#k" x="9.26062" y="123.05366"/></g><g fill="#007F7F"><use xlink:href="#w" x="16.24728" y="123.05366"/><use xlink:href="#m" x="19.22308" y="123.05366"/><use xlink:href="#s" x="24.61733" y="123.05366"/><use xlink:href="#l" x="30.39974" y="123.05366"/><use xlink:href="#t" x="35.0376" y="123.05366"/><use xlink:href="#x" x="38.25226" y="123.05366"/><use xlink:href="#m" x="40.9693" y="123.05366"/><use xlink:href="#s" x="46.36355" y="123.05366"/></g><g fill="#007F7F"><use xlink:href="#q" x="54.24593" y="123.05366"/><use xlink:href="#y" x="59.05299" y="123.05366"/><use xlink:href="#t" x="63.12357" y="123.05366"/></g><g fill="#007F7F"><use xlink:href="#l" x="68.4382" y="123.05366"/><use xlink:href="#o" x="73.07607" y="123.05366"/></g><g fill="#007F7F"><use xlink:href="#m" x="76.64902" y="123.05366"/><use xlink:href="#x" x="82.04327" y="123.05366"/><use xlink:href="#y" x="84.76031" y="123.05366"/><use xlink:href="#y" x="88.83088" y="123.05366"/><use xlink:href="#k" x="92.90145" y="123.05366"/><use xlink:href="#s" x="97.78813" y="123.05366"/><use xlink:href="#t" x="103.57054" y="123.05366"/><use xlink:href="#q" x="106.7852" y="123.05366"/></g><g fill="#FF7F00"><use xlink:href="#j" x="256.31177" y="65.80197"/><use xlink:href="#k" x="261.61645" y="65.80197"/></g><g fill="#FF7F00"><use xlink:href="#l" x="268.59316" y="65.80197"/><use xlink:href="#m" x="273.23102" y="65.80197"/><use xlink:href="#n" x="278.62528" y="65.80197"/><use xlink:href="#o" x="284.28825" y="65.80197"/><use xlink:href="#p" x="287.92092" y="65.80197"/><use xlink:href="#q" x="293.51422" y="65.80197"/></g><g fill="#FF7F00"><use xlink:href="#z" x="300.42126" y="65.80197"/><use xlink:href="#q" x="306.01457" y="65.80197"/><use xlink:href="#y" x="310.82163" y="65.80197"/><use xlink:href="#l" x="314.8922" y="65.80197"/><use xlink:href="#q" x="319.53007" y="65.80197"/><use xlink:href="#s" x="324.33713" y="65.80197"/><use xlink:href="#z" x="330.11953" y="65.80197"/></g><use xlink:href="#u" x="337.81281" y="65.80197" fill="#FF7F00"/><g fill="#FF7F00"><use xlink:href="#v" x="256.31177" y="77.74581"/><use xlink:href="#k" x="258.91933" y="77.74581"/></g><g fill="#FF7F00"><use xlink:href="#w" x="265.89603" y="77.74581"/><use xlink:href="#m" x="268.87183" y="77.74581"/><use xlink:href="#s" x="274.26608" y="77.74581"/><use xlink:href="#l" x="280.04849" y="77.74581"/><use xlink:href="#t" x="284.68635" y="77.74581"/><use xlink:href="#x" x="287.90101" y="77.74581"/><use xlink:href="#m" x="290.61805" y="77.74581"/><use xlink:href="#s" x="296.0123" y="77.74581"/></g><g fill="#FF7F00"><use xlink:href="#q" x="303.89468" y="77.74581"/><use xlink:href="#y" x="308.70174" y="77.74581"/><use xlink:href="#t" x="312.77232" y="77.74581"/></g><g fill="#FF7F00"><use xlink:href="#z" x="318.08695" y="77.74581"/><use xlink:href="#A" x="323.68026" y="77.74581"/><use xlink:href="#l" x="328.48732" y="77.74581"/><use xlink:href="#o" x="333.12518" y="77.74581"/></g><g fill="#FF7F00"><use xlink:href="#m" x="336.70808" y="77.74581"/><use xlink:href="#x" x="342.10234" y="77.74581"/><use xlink:href="#y" x="344.81937" y="77.74581"/><use xlink:href="#y" x="348.88995" y="77.74581"/><use xlink:href="#k" x="352.96052" y="77.74581"/><use xlink:href="#s" x="357.8472" y="77.74581"/><use xlink:href="#t" x="363.62961" y="77.74581"/><use xlink:href="#q" x="366.84426" y="77.74581"/></g></svg>