<?xml version="1.0" encoding="UTF-8"?>
<svg xmlns="http://www.w3.org/2000/svg" xmlns:xlink="http://www.w3.org/1999/xlink" width="711pt" height="226pt" viewBox="0 0 711 226" version="1.2">
<g id="surface1">
<path style="fill-rule:nonzero;fill:rgb(7.058716%,7.843018%,7.450867%);fill-opacity:1;stroke-width:0.09375;stroke-linecap:butt;stroke-linejoin:miter;stroke:rgb(7.058716%,7.843018%,7.450867%);stroke-opacity:1;stroke-miterlimit:4;" d="M 588.050781 7.578125 C 592.539062 7.710938 596.429688 4.699219 600.828125 4.539062 C 602.351562 9.5 603.660156 14.738281 603.601562 19.988281 C 603.921875 19.019531 604.230469 18.050781 604.550781 17.078125 C 604.148438 26.871094 607.621094 36.28125 608.710938 45.941406 C 612 59.121094 613.761719 72.601562 615.878906 86 C 616.808594 89.808594 616.730469 93.78125 616.589844 97.679688 C 610.210938 100.699219 603.101562 98.800781 596.46875 100.359375 C 596.789062 90.78125 593.851562 81.449219 593.179688 71.941406 C 591.511719 63.269531 590.648438 54.488281 589.261719 45.769531 C 588.398438 42.429688 588.328125 38.980469 588.308594 35.558594 C 587.691406 35.261719 586.460938 34.660156 585.839844 34.359375 C 583.769531 41.421875 581.71875 48.671875 581.371094 56.050781 C 581.140625 55.089844 580.898438 54.128906 580.429688 53.269531 C 580.429688 55.179688 580.628906 57.128906 580.199219 59.019531 C 577.089844 72.5 574.421875 86.078125 571.480469 99.601562 C 565.398438 100.398438 559.5 98.671875 553.488281 98.351562 C 552.851562 90.441406 555.578125 82.789062 556.558594 75.019531 C 557.28125 70.691406 558.53125 66.460938 558.75 62.050781 C 560.988281 53.929688 562.421875 45.609375 564.179688 37.371094 C 564.71875 34.890625 564.441406 32.238281 565.550781 29.898438 C 566.730469 27.441406 566.300781 24.628906 566.5 21.988281 C 566.488281 16.71875 568.148438 11.648438 568.710938 6.429688 C 571.46875 6.121094 574.308594 6.070312 577 6.929688 C 580.570312 8.011719 584.371094 7.558594 588.050781 7.578125 Z M 588.050781 7.578125 "/>
<path style="fill-rule:nonzero;fill:rgb(62.35199%,76.469421%,87.841797%);fill-opacity:1;stroke-width:0.09375;stroke-linecap:butt;stroke-linejoin:miter;stroke:rgb(62.35199%,76.469421%,87.841797%);stroke-opacity:1;stroke-miterlimit:4;" d="M 473.53125 17.648438 C 478.5 16.941406 483.558594 17.308594 488.558594 17.449219 C 489.46875 18.839844 490.21875 20.421875 491.5 21.53125 C 496.628906 24.539062 503.261719 23.421875 508.160156 26.828125 C 510.769531 30.988281 511.039062 36.179688 512.21875 40.878906 C 513.851562 48.851562 515.660156 56.789062 517.238281 64.78125 C 518.609375 70.609375 520.460938 76.320312 521.550781 82.21875 C 521.929688 84.75 522.929688 87.101562 523.898438 89.460938 C 523.878906 90.890625 523.851562 92.328125 523.828125 93.761719 C 519.929688 94.359375 515.300781 96.160156 511.691406 94.410156 C 510.589844 89.609375 510.921875 84.609375 510.109375 79.761719 C 510.699219 81.578125 511.378906 83.371094 511.890625 85.21875 C 511.929688 88.109375 511.941406 91 512.171875 93.890625 C 515.949219 94.121094 519.75 93.699219 523.28125 92.25 C 520.140625 83.960938 519.140625 75.089844 516.269531 66.71875 C 515.929688 65.078125 515.578125 63.449219 515.261719 61.808594 C 513.628906 52.660156 511.71875 43.578125 509.710938 34.511719 C 508.96875 32.070312 508.761719 29.039062 506.671875 27.328125 C 501.621094 24.921875 495.449219 25.519531 490.78125 22.191406 C 488.648438 20.828125 486.78125 18.628906 484.070312 18.601562 C 480.839844 18.398438 477.488281 18.308594 474.359375 19.261719 C 472.101562 20.578125 470.578125 22.898438 468.238281 24.078125 C 464.019531 25.769531 459.160156 25.730469 455.269531 28.238281 C 452.789062 30.859375 452.601562 34.78125 451.988281 38.160156 C 451.238281 49.988281 451.691406 61.878906 451.761719 73.730469 C 450.191406 81.980469 448.878906 90.320312 448.089844 98.679688 C 451.921875 99.449219 455.859375 99.761719 459.75 99.230469 L 459.679688 99.910156 C 459.550781 100.328125 459.289062 101.171875 459.160156 101.589844 C 454.851562 100.628906 449.890625 101.53125 446.171875 98.789062 C 447.179688 92.539062 449.328125 86.46875 449.460938 80.078125 C 450.539062 69.390625 448.949219 58.640625 450.039062 47.949219 C 450.628906 42.398438 450.53125 36.699219 452.171875 31.308594 C 452.820312 29.480469 453.460938 27.210938 455.460938 26.421875 C 459.429688 24.691406 463.839844 24.398438 467.839844 22.78125 C 470.109375 21.539062 471.359375 19.039062 473.53125 17.648438 Z M 473.53125 17.648438 "/>
<path style="fill-rule:nonzero;fill:rgb(25.489807%,53.33252%,75.68512%);fill-opacity:1;stroke-width:0.09375;stroke-linecap:butt;stroke-linejoin:miter;stroke:rgb(25.489807%,53.33252%,75.68512%);stroke-opacity:1;stroke-miterlimit:4;" d="M 200.980469 21.019531 C 201.640625 19.921875 202.441406 18.5 203.949219 18.578125 C 208.578125 18.210938 213.25 18.171875 217.878906 18.648438 C 220.671875 24.441406 228.058594 24.238281 233.449219 25.550781 C 237.308594 26.160156 239.738281 29.761719 240.21875 33.429688 C 241.828125 43.320312 244.179688 53.070312 246.289062 62.851562 C 246.898438 64.480469 247.589844 66.109375 247.589844 67.890625 C 247.78125 72.769531 250.28125 77.140625 250.800781 81.96875 C 251.101562 84.519531 251.671875 87.039062 253.039062 89.25 C 253.300781 90.640625 253.53125 92.039062 253.761719 93.429688 C 249.699219 94.199219 245.550781 94.738281 241.441406 94.039062 C 242.050781 85.808594 239.390625 77.960938 237.988281 69.96875 C 237.328125 65.878906 236.511719 61.800781 235.21875 57.851562 C 232.960938 64.511719 235.011719 71.601562 236.058594 78.300781 C 236.390625 84.058594 237.25 89.78125 237.429688 95.550781 C 230.851562 98.671875 223.78125 100.851562 216.441406 100.78125 C 209.800781 103.089844 202.539062 102.859375 195.75 101.300781 C 194.96875 96.570312 194.390625 91.800781 194.171875 87.011719 C 193.050781 79.640625 193.128906 72.128906 191.761719 64.808594 C 190.75 71.828125 190.601562 78.921875 190.628906 85.988281 C 190.660156 90.679688 189.421875 95.269531 189.53125 99.96875 C 185.488281 100.839844 181.390625 99.898438 177.429688 99.078125 C 177.449219 93.628906 179.660156 88.480469 179.640625 83.011719 C 182.101562 65.78125 178.839844 48.148438 182.289062 31.019531 C 183.089844 26.109375 188.941406 25.601562 192.929688 25.460938 C 191.96875 25.101562 191.03125 24.730469 190.078125 24.371094 C 193.769531 24.410156 199.101562 25.03125 200.980469 21.019531 M 207.238281 38.398438 C 207.511719 39.800781 207.078125 41.621094 208.460938 42.539062 C 210.109375 42.851562 211.789062 42.53125 213.441406 42.398438 C 213.449219 40.519531 214.390625 37.550781 211.789062 36.988281 C 210.191406 36.039062 208.671875 37.871094 207.238281 38.398438 M 207.96875 57.929688 C 209.46875 59.699219 211.589844 60.050781 213.789062 59.808594 C 215.160156 56.890625 213.078125 53.960938 209.851562 54.378906 C 209.21875 55.558594 208.589844 56.738281 207.96875 57.929688 M 211.398438 73.289062 C 209.898438 74.160156 210 76.089844 210.378906 77.550781 C 211.019531 79.238281 213.171875 78.808594 214.578125 78.699219 C 216.53125 77.621094 215.511719 75.21875 215.511719 73.480469 C 214.148438 73.339844 212.761719 73.039062 211.398438 73.289062 Z M 211.398438 73.289062 "/>
<path style="fill-rule:nonzero;fill:rgb(32.940674%,52.548218%,69.018555%);fill-opacity:1;stroke-width:0.09375;stroke-linecap:butt;stroke-linejoin:miter;stroke:rgb(32.940674%,52.548218%,69.018555%);stroke-opacity:1;stroke-miterlimit:4;" d="M 474.359375 19.261719 C 477.488281 18.308594 480.839844 18.398438 484.070312 18.601562 C 486.78125 18.628906 488.648438 20.828125 490.78125 22.191406 C 495.449219 25.519531 501.621094 24.921875 506.671875 27.328125 C 508.761719 29.039062 508.96875 32.070312 509.710938 34.511719 C 511.71875 43.578125 513.628906 52.660156 515.261719 61.808594 C 513.140625 59.890625 510.289062 58 510.230469 54.820312 C 509.570312 47.808594 510.449219 40.320312 507.261719 33.789062 C 505.230469 29.371094 499.960938 28.761719 495.980469 27.03125 C 490.539062 25.078125 486 20.148438 479.851562 20.679688 C 474.789062 21.570312 470.898438 25.371094 466.089844 26.929688 C 463.671875 27.691406 461 27.550781 458.691406 28.648438 C 455.550781 31.050781 453.808594 34.761719 451.988281 38.160156 C 452.601562 34.78125 452.789062 30.859375 455.269531 28.238281 C 459.160156 25.730469 464.019531 25.769531 468.238281 24.078125 C 470.578125 22.898438 472.101562 20.578125 474.359375 19.261719 Z M 474.359375 19.261719 "/>
<path style="fill-rule:nonzero;fill:rgb(25.097656%,53.33252%,76.469421%);fill-opacity:1;stroke-width:0.09375;stroke-linecap:butt;stroke-linejoin:miter;stroke:rgb(25.097656%,53.33252%,76.469421%);stroke-opacity:1;stroke-miterlimit:4;" d="M 466.089844 26.929688 C 470.898438 25.371094 474.789062 21.570312 479.851562 20.679688 C 486 20.148438 490.539062 25.078125 495.980469 27.03125 C 499.960938 28.761719 505.230469 29.371094 507.261719 33.789062 C 510.449219 40.320312 509.570312 47.808594 510.230469 54.820312 C 510.289062 58 513.140625 59.890625 515.261719 61.808594 C 515.578125 63.449219 515.929688 65.078125 516.269531 66.71875 C 516.160156 72.828125 517.101562 78.871094 517.691406 84.941406 C 515.761719 85.160156 513.820312 85.238281 511.890625 85.21875 C 511.378906 83.371094 510.699219 81.578125 510.109375 79.761719 C 509.269531 76.410156 508.390625 73.070312 507.578125 69.71875 C 507.410156 65.109375 506.660156 60.378906 503.828125 56.609375 C 504.601562 62.140625 504.089844 67.769531 504.96875 73.289062 C 506.398438 80.308594 506.75 87.511719 506.710938 94.660156 C 502.160156 97.960938 496.230469 98.851562 490.851562 100.148438 C 488.210938 101.070312 486.359375 98.839844 484.558594 97.320312 C 484.289062 98.53125 484.011719 99.738281 483.738281 100.941406 C 478.261719 101.820312 472.691406 101.609375 467.199219 101.039062 C 466.378906 99.339844 465.558594 97.648438 464.859375 95.910156 C 464.441406 92.019531 464.929688 88.050781 464.101562 84.199219 C 462.621094 78.199219 463.191406 71.898438 461.558594 65.929688 C 461.519531 69.519531 461.480469 73.121094 461.058594 76.699219 C 458.578125 82.621094 459.621094 89.148438 458.171875 95.261719 C 456.75 97.558594 453.671875 96.601562 451.449219 96.679688 C 450.261719 89.019531 452.75 81.410156 451.761719 73.730469 C 451.691406 61.878906 451.238281 49.988281 451.988281 38.160156 C 453.808594 34.761719 455.550781 31.050781 458.691406 28.648438 C 461 27.550781 463.671875 27.691406 466.089844 26.929688 M 478.371094 37.410156 C 478.308594 39.109375 478.320312 40.808594 478.410156 42.5 C 479.890625 42.589844 481.371094 42.671875 482.871094 42.75 C 483.078125 41.050781 484.03125 38.910156 482.390625 37.601562 C 481.238281 36.351562 479.71875 37.089844 478.371094 37.410156 M 478.429688 59.539062 C 480.960938 60.078125 484.101562 60.160156 484.730469 56.988281 C 483.539062 55.648438 482.121094 53.828125 480.089844 54.699219 C 477.730469 55.21875 478.449219 57.800781 478.429688 59.539062 M 481.46875 73.410156 C 479.398438 74.199219 479.429688 77.761719 481.480469 78.621094 C 483.800781 80.570312 487.871094 76.789062 485.699219 74.460938 C 484.890625 72.921875 482.910156 72.761719 481.46875 73.410156 Z M 481.46875 73.410156 "/>
<path style="fill-rule:nonzero;fill:rgb(62.744141%,77.253723%,88.233948%);fill-opacity:1;stroke-width:0.09375;stroke-linecap:butt;stroke-linejoin:miter;stroke:rgb(62.744141%,77.253723%,88.233948%);stroke-opacity:1;stroke-miterlimit:4;" d="M 42.058594 29.269531 C 46.5 29.160156 50.460938 26.839844 54.78125 26.058594 C 56.839844 33.210938 59.171875 40.671875 58.640625 48.179688 C 56.730469 41.511719 56.699219 34.359375 53.769531 27.988281 C 48.511719 28.949219 43.421875 31.058594 38 30.871094 C 33.039062 30.871094 28.289062 29.089844 23.328125 29.03125 C 21.691406 34.820312 21.011719 40.808594 20.460938 46.789062 C 17.648438 67.929688 11.75 88.511719 8.789062 109.621094 C 7.980469 113.128906 7.339844 116.691406 7.460938 120.300781 C 9.601562 120.539062 11.738281 120.769531 13.871094 121.148438 C 17.238281 121.839844 20.660156 122.289062 24.101562 122.53125 C 26.140625 117.441406 26.730469 111.96875 27.859375 106.648438 C 31.199219 90.960938 34.628906 75.289062 37.828125 59.578125 C 38.058594 57.800781 39.230469 56.46875 40.859375 55.789062 C 43.191406 59.878906 42.910156 64.710938 43.738281 69.199219 C 44.78125 75.398438 45.449219 81.648438 46.238281 87.878906 C 48.101562 99.261719 49.878906 110.660156 51.160156 122.121094 C 57.058594 122.441406 63.308594 122.230469 68.761719 119.75 C 70.710938 119.039062 69.949219 116.871094 69.929688 115.308594 C 67.738281 98.039062 64.660156 80.890625 61.171875 63.839844 C 60.03125 58.949219 59.191406 53.988281 58.78125 48.980469 C 59.390625 50.121094 60.03125 51.269531 60.25 52.558594 C 62.839844 67.011719 66.058594 81.339844 68.148438 95.878906 C 69.359375 104.089844 71.859375 112.351562 70.789062 120.710938 C 64.351562 123.21875 57.160156 124.070312 50.339844 122.851562 C 47.980469 107.320312 45.761719 91.769531 43.550781 76.21875 C 42.859375 72.371094 42.191406 68.511719 42.140625 64.589844 C 42.179688 62.011719 41.449219 59.519531 40.011719 57.378906 C 38.921875 60.050781 38.140625 62.839844 37.671875 65.679688 C 33.871094 84.78125 29.761719 103.808594 25.558594 122.820312 C 19.078125 124.160156 12.359375 122.460938 6.101562 120.78125 C 7.339844 105.839844 11.171875 91.328125 13.691406 76.601562 C 16.03125 66.539062 17.96875 56.378906 19.378906 46.140625 C 20.519531 40.058594 19.960938 33.449219 23.011719 27.859375 C 24.859375 26.820312 26.941406 27.769531 28.820312 28.199219 C 33.089844 29.558594 37.628906 29.441406 42.058594 29.269531 Z M 42.058594 29.269531 "/>
<path style="fill-rule:nonzero;fill:rgb(25.097656%,53.33252%,76.077271%);fill-opacity:1;stroke-width:0.09375;stroke-linecap:butt;stroke-linejoin:miter;stroke:rgb(25.097656%,53.33252%,76.077271%);stroke-opacity:1;stroke-miterlimit:4;" d="M 38 30.871094 C 43.421875 31.058594 48.511719 28.949219 53.769531 27.988281 C 56.699219 34.359375 56.730469 41.511719 58.640625 48.179688 L 58.78125 48.980469 C 59.191406 53.988281 60.03125 58.949219 61.171875 63.839844 C 64.660156 80.890625 67.738281 98.039062 69.929688 115.308594 C 69.949219 116.871094 70.710938 119.039062 68.761719 119.75 C 63.308594 122.230469 57.058594 122.441406 51.160156 122.121094 C 49.878906 110.660156 48.101562 99.261719 46.238281 87.878906 C 45.449219 81.648438 44.78125 75.398438 43.738281 69.199219 C 42.910156 64.710938 43.191406 59.878906 40.859375 55.789062 C 39.230469 56.46875 38.058594 57.800781 37.828125 59.578125 C 34.628906 75.289062 31.199219 90.960938 27.859375 106.648438 C 26.730469 111.96875 26.140625 117.441406 24.101562 122.53125 C 20.660156 122.289062 17.238281 121.839844 13.871094 121.148438 C 10.320312 118.410156 10.019531 113.601562 8.789062 109.621094 C 11.75 88.511719 17.648438 67.929688 20.460938 46.789062 C 21.011719 40.808594 21.691406 34.820312 23.328125 29.03125 C 28.289062 29.089844 33.039062 30.871094 38 30.871094 Z M 38 30.871094 "/>
<path style="fill-rule:nonzero;fill:rgb(78.822327%,66.665649%,54.116821%);fill-opacity:1;stroke-width:0.09375;stroke-linecap:butt;stroke-linejoin:miter;stroke:rgb(78.822327%,66.665649%,54.116821%);stroke-opacity:1;stroke-miterlimit:4;" d="M 641.46875 34.53125 C 646.511719 33.378906 651.730469 32.261719 656.921875 32.769531 C 659.988281 34.648438 663.578125 35 666.921875 36.160156 C 665.160156 48.441406 666.078125 60.839844 665.609375 73.179688 C 664.019531 68.269531 664.871094 63.058594 664.730469 58 C 664.589844 50.949219 665.011719 43.898438 665.199219 36.859375 C 659.289062 34.960938 652.851562 36.828125 646.820312 35.210938 C 645.308594 35.148438 643.820312 35.21875 642.328125 35.289062 C 642.539062 39.25 643.261719 43.171875 643.308594 47.148438 C 641.109375 43.359375 641.070312 38.769531 641.46875 34.53125 Z M 641.46875 34.53125 "/>
<path style="fill-rule:nonzero;fill:rgb(95.292664%,70.979309%,64.312744%);fill-opacity:1;stroke-width:0.09375;stroke-linecap:butt;stroke-linejoin:miter;stroke:rgb(95.292664%,70.979309%,64.312744%);stroke-opacity:1;stroke-miterlimit:4;" d="M 375.789062 34.859375 C 382.898438 33.898438 390.539062 33.601562 397.078125 37.058594 C 399.109375 38.449219 398.371094 41.179688 398.089844 43.199219 C 396.378906 52.050781 396.828125 61.101562 396.878906 70.058594 C 396.710938 72.71875 398.570312 75.300781 401.210938 75.808594 C 406.121094 77.019531 411.488281 77.289062 415.828125 80.148438 C 417.941406 83.058594 420.03125 86.539062 419.539062 90.289062 C 410.339844 93.210938 401.261719 88.238281 392 88.890625 C 385.839844 89.019531 377.988281 89.820312 374.128906 83.878906 C 373.390625 81.109375 372.261719 77.429688 374.160156 74.96875 C 374.449219 78.371094 373.839844 82.730469 377.109375 84.921875 C 382.949219 89.941406 391.089844 87.171875 398.019531 88.039062 C 404.660156 88.921875 411.28125 90.519531 418.019531 89.679688 C 417.980469 89.101562 417.898438 87.929688 417.851562 87.351562 C 417.660156 87.058594 417.289062 86.480469 417.101562 86.179688 C 416.890625 85.890625 416.480469 85.289062 416.28125 85 C 415.78125 83.671875 415.46875 82.269531 414.78125 81.03125 C 410.601562 77.628906 404.851562 77.300781 399.898438 79 C 397.570312 77.410156 395.570312 75.058594 395.78125 72.050781 C 395.429688 60.941406 396.261719 49.828125 396.191406 38.71875 C 390.238281 37.011719 383.949219 38.058594 377.878906 37.101562 C 376.480469 36.960938 375.078125 36.828125 373.691406 36.71875 C 373.609375 43.109375 374.871094 49.421875 375.070312 55.800781 C 375.160156 61.949219 377.480469 68.449219 374.410156 74.25 C 374.898438 64.128906 373.648438 54.039062 372.230469 44.03125 C 372 41.761719 371.46875 39.421875 371.980469 37.140625 C 372.378906 35.371094 374.328125 35.21875 375.789062 34.859375 Z M 375.789062 34.859375 "/>
<path style="fill-rule:nonzero;fill:rgb(49.01886%,27.450562%,10.980225%);fill-opacity:1;stroke-width:0.09375;stroke-linecap:butt;stroke-linejoin:miter;stroke:rgb(49.01886%,27.450562%,10.980225%);stroke-opacity:1;stroke-miterlimit:4;" d="M 642.328125 35.289062 C 643.820312 35.21875 645.308594 35.148438 646.820312 35.210938 C 646.878906 39.679688 647.039062 44.140625 647.410156 48.601562 C 648.03125 55.460938 646.550781 62.261719 646.589844 69.109375 C 646.289062 67.03125 645.878906 64.960938 645.359375 62.929688 C 644.898438 65.289062 644.511719 67.671875 644.101562 70.050781 C 645.730469 62.390625 642.941406 54.820312 643.308594 47.148438 C 643.261719 43.171875 642.539062 39.25 642.328125 35.289062 Z M 642.328125 35.289062 "/>
<path style="fill-rule:nonzero;fill:rgb(70.587158%,45.097351%,30.587769%);fill-opacity:1;stroke-width:0.09375;stroke-linecap:butt;stroke-linejoin:miter;stroke:rgb(70.587158%,45.097351%,30.587769%);stroke-opacity:1;stroke-miterlimit:4;" d="M 646.820312 35.210938 C 652.851562 36.828125 659.289062 34.960938 665.199219 36.859375 C 660.210938 36.710938 655.210938 36.308594 650.238281 37 C 649.871094 46.660156 650.898438 56.351562 650.058594 66 C 649.820312 68.890625 648.628906 71.558594 647.609375 74.230469 C 647.078125 73.988281 646.011719 73.5 645.46875 73.261719 C 645.351562 75.691406 645.101562 78.128906 644.199219 80.410156 C 643.738281 77.53125 643.589844 74.609375 643.789062 71.710938 C 643.871094 71.289062 644.019531 70.460938 644.101562 70.050781 C 644.511719 67.671875 644.898438 65.289062 645.359375 62.929688 C 645.878906 64.960938 646.289062 67.03125 646.589844 69.109375 C 646.550781 62.261719 648.03125 55.460938 647.410156 48.601562 C 647.039062 44.140625 646.878906 39.679688 646.820312 35.210938 Z M 646.820312 35.210938 "/>
<path style="fill-rule:nonzero;fill:rgb(79.214478%,95.684814%,100%);fill-opacity:1;stroke-width:0.09375;stroke-linecap:butt;stroke-linejoin:miter;stroke:rgb(79.214478%,95.684814%,100%);stroke-opacity:1;stroke-miterlimit:4;" d="M 207.238281 38.398438 C 208.671875 37.871094 210.191406 36.039062 211.789062 36.988281 C 214.390625 37.550781 213.449219 40.519531 213.441406 42.398438 C 211.789062 42.53125 210.109375 42.851562 208.460938 42.539062 C 207.078125 41.621094 207.511719 39.800781 207.238281 38.398438 Z M 207.238281 38.398438 "/>
<path style="fill-rule:nonzero;fill:rgb(74.508667%,21.568298%,20.391846%);fill-opacity:1;stroke-width:0.09375;stroke-linecap:butt;stroke-linejoin:miter;stroke:rgb(74.508667%,21.568298%,20.391846%);stroke-opacity:1;stroke-miterlimit:4;" d="M 373.691406 36.71875 C 375.078125 36.828125 376.480469 36.960938 377.878906 37.101562 C 377.589844 48.859375 377.75 60.640625 377.851562 72.410156 C 376.511719 66.941406 376.679688 61.21875 375.070312 55.800781 C 374.871094 49.421875 373.609375 43.109375 373.691406 36.71875 Z M 373.691406 36.71875 "/>
<path style="fill-rule:nonzero;fill:rgb(98.431396%,38.822937%,34.901428%);fill-opacity:1;stroke-width:0.09375;stroke-linecap:butt;stroke-linejoin:miter;stroke:rgb(98.431396%,38.822937%,34.901428%);stroke-opacity:1;stroke-miterlimit:4;" d="M 377.878906 37.101562 C 383.949219 38.058594 390.238281 37.011719 396.191406 38.71875 C 391.089844 38.71875 385.988281 38.328125 380.910156 38.898438 C 380.210938 51.03125 383.230469 63.871094 378.488281 75.460938 C 378.328125 74.691406 378.011719 73.171875 377.851562 72.410156 C 377.75 60.640625 377.589844 48.859375 377.878906 37.101562 Z M 377.878906 37.101562 "/>
<path style="fill-rule:nonzero;fill:rgb(81.567383%,95.684814%,100%);fill-opacity:1;stroke-width:0.09375;stroke-linecap:butt;stroke-linejoin:miter;stroke:rgb(81.567383%,95.684814%,100%);stroke-opacity:1;stroke-miterlimit:4;" d="M 478.371094 37.410156 C 479.71875 37.089844 481.238281 36.351562 482.390625 37.601562 C 484.03125 38.910156 483.078125 41.050781 482.871094 42.75 C 481.371094 42.671875 479.890625 42.589844 478.410156 42.5 C 478.320312 40.808594 478.308594 39.109375 478.371094 37.410156 Z M 478.371094 37.410156 "/>
<path style="fill-rule:nonzero;fill:rgb(52.940369%,22.3526%,1.176453%);fill-opacity:1;stroke-width:0.09375;stroke-linecap:butt;stroke-linejoin:miter;stroke:rgb(52.940369%,22.3526%,1.176453%);stroke-opacity:1;stroke-miterlimit:4;" d="M 650.238281 37 C 655.210938 36.308594 660.210938 36.710938 665.199219 36.859375 C 665.011719 43.898438 664.589844 50.949219 664.730469 58 C 664.871094 63.058594 664.019531 68.269531 665.609375 73.179688 C 665.800781 73.519531 666.171875 74.210938 666.351562 74.550781 L 666.890625 75.261719 C 670.929688 80.699219 678.5 80.859375 684.5 82.71875 C 685.421875 84.078125 686.128906 85.558594 686.601562 87.140625 C 678.640625 88.730469 670.929688 85.359375 663 85.550781 C 657.539062 85.5 651.519531 86.628906 646.800781 83.140625 C 646.929688 80.160156 647.050781 77.171875 647.609375 74.230469 C 648.628906 71.558594 649.820312 68.890625 650.058594 66 C 650.898438 56.351562 649.871094 46.660156 650.238281 37 Z M 650.238281 37 "/>
<path style="fill-rule:nonzero;fill:rgb(37.646484%,37.646484%,37.646484%);fill-opacity:1;stroke-width:0.09375;stroke-linecap:butt;stroke-linejoin:miter;stroke:rgb(37.646484%,37.646484%,37.646484%);stroke-opacity:1;stroke-miterlimit:4;" d="M 287.808594 38.660156 C 295.628906 36.171875 303.730469 38.558594 311.558594 39.640625 C 311.859375 51.441406 311.210938 63.261719 311.53125 75.070312 C 311.550781 77.328125 313.578125 79.851562 316.011719 79.480469 C 319.839844 79.378906 323.648438 79.910156 327.328125 80.921875 C 331.179688 82.808594 332.179688 87.5 333.800781 91.101562 C 328.300781 94.351562 321.78125 91.351562 315.871094 91.179688 L 316.640625 90.558594 C 321.949219 90.429688 327.460938 92.109375 332.578125 90.070312 C 327.699219 83.839844 318.25 85.761719 312.851562 80.128906 C 308.050781 76.5 309.929688 70.089844 310 65.019531 C 309.988281 56.988281 310.921875 48.960938 310.148438 40.941406 C 305.5 40.359375 300.769531 40.230469 296.148438 41.160156 C 294.910156 49.410156 296.460938 57.761719 295.699219 66.058594 C 296 73.480469 291.578125 80.328125 293.128906 87.789062 C 291.890625 87.121094 290.648438 86.429688 289.421875 85.75 C 288.878906 82.5 287.71875 78.808594 289.671875 75.800781 C 289.839844 77.578125 290.058594 79.359375 290.269531 81.140625 C 291.359375 76.839844 292.800781 72.550781 292.691406 68.058594 C 292.628906 58.539062 292.78125 49.019531 292.589844 39.5 C 291.230469 39.359375 289.890625 39.21875 288.558594 38.949219 Z M 287.808594 38.660156 "/>
<path style="fill-rule:nonzero;fill:rgb(9.411621%,9.411621%,9.411621%);fill-opacity:1;stroke-width:0.09375;stroke-linecap:butt;stroke-linejoin:miter;stroke:rgb(9.411621%,9.411621%,9.411621%);stroke-opacity:1;stroke-miterlimit:4;" d="M 288.558594 38.949219 C 289.890625 39.21875 291.230469 39.359375 292.589844 39.5 C 292.78125 49.019531 292.628906 58.539062 292.691406 68.058594 C 292.800781 72.550781 291.359375 76.839844 290.269531 81.140625 C 290.058594 79.359375 289.839844 77.578125 289.671875 75.800781 C 292.308594 68.648438 288.769531 61.300781 289.371094 54 C 289.691406 48.96875 286.070312 43.648438 288.558594 38.949219 Z M 288.558594 38.949219 "/>
<path style="fill-rule:nonzero;fill:rgb(85.096741%,16.862488%,10.980225%);fill-opacity:1;stroke-width:0.09375;stroke-linecap:butt;stroke-linejoin:miter;stroke:rgb(85.096741%,16.862488%,10.980225%);stroke-opacity:1;stroke-miterlimit:4;" d="M 380.910156 38.898438 C 385.988281 38.328125 391.089844 38.71875 396.191406 38.71875 C 396.261719 49.828125 395.429688 60.941406 395.78125 72.050781 C 395.570312 75.058594 397.570312 77.410156 399.898438 79 C 404.898438 82.078125 410.71875 83.320312 416.28125 85 C 416.480469 85.289062 416.890625 85.890625 417.101562 86.179688 C 416.929688 86.78125 416.609375 87.980469 416.449219 88.578125 C 409.210938 90.21875 402.261719 86.449219 395.019531 86.871094 C 389.628906 86.738281 383.160156 88.28125 378.738281 84.320312 C 377.941406 81.441406 378.328125 78.398438 378.488281 75.460938 C 383.230469 63.871094 380.210938 51.03125 380.910156 38.898438 Z M 380.910156 38.898438 "/>
<path style="fill-rule:nonzero;fill:rgb(7.450867%,7.450867%,7.450867%);fill-opacity:1;stroke-width:0.09375;stroke-linecap:butt;stroke-linejoin:miter;stroke:rgb(7.450867%,7.450867%,7.450867%);stroke-opacity:1;stroke-miterlimit:4;" d="M 296.148438 41.160156 C 300.769531 40.230469 305.5 40.359375 310.148438 40.941406 C 310.921875 48.960938 309.988281 56.988281 310 65.019531 C 309.929688 70.089844 308.050781 76.5 312.851562 80.128906 C 318.25 85.761719 327.699219 83.839844 332.578125 90.070312 C 327.460938 92.109375 321.949219 90.429688 316.640625 90.558594 C 309.871094 89.03125 302.941406 89.878906 296.078125 89.519531 C 294.789062 89.660156 293.601562 89.019531 293.128906 87.789062 C 291.578125 80.328125 296 73.480469 295.699219 66.058594 C 296.460938 57.761719 294.910156 49.410156 296.148438 41.160156 Z M 296.148438 41.160156 "/>
<path style="fill-rule:nonzero;fill:rgb(80.783081%,59.999084%,45.881653%);fill-opacity:1;stroke-width:0.09375;stroke-linecap:butt;stroke-linejoin:miter;stroke:rgb(80.783081%,59.999084%,45.881653%);stroke-opacity:1;stroke-miterlimit:4;" d="M 104.878906 48.648438 C 108.710938 47.101562 112.980469 47.46875 117.019531 47.671875 C 120.160156 48.660156 123.179688 49.980469 126.308594 51.03125 C 122.699219 50.929688 119.261719 49.878906 115.808594 48.941406 C 113.179688 48.078125 110.238281 49.851562 109 52.148438 C 108.449219 61.421875 109.378906 70.730469 109.320312 80.019531 C 109.398438 81.628906 108.878906 83.160156 108.160156 84.570312 C 106.640625 72.859375 108.851562 61.03125 108.03125 49.28125 C 107.238281 49.121094 105.660156 48.808594 104.878906 48.648438 Z M 104.878906 48.648438 "/>
<path style="fill-rule:nonzero;fill:rgb(85.096741%,72.547913%,63.528442%);fill-opacity:1;stroke-width:0.09375;stroke-linecap:butt;stroke-linejoin:miter;stroke:rgb(85.096741%,72.547913%,63.528442%);stroke-opacity:1;stroke-miterlimit:4;" d="M 102.410156 61.808594 C 101.910156 57.398438 101 52.800781 102.550781 48.5 L 102.699219 49.699219 C 102.980469 53.050781 103.390625 56.390625 103.960938 59.710938 C 103.96875 65.441406 103.921875 71.191406 104.410156 76.910156 C 105.078125 82.980469 102.300781 88.730469 102.550781 94.78125 C 103.039062 94.488281 104.039062 93.890625 104.539062 93.589844 C 105.460938 95.769531 106.011719 98.679688 108.621094 99.449219 C 115.570312 101.789062 123.050781 100.328125 130.230469 100.980469 C 131.488281 101.320312 132.738281 101.730469 134.011719 102.089844 C 138.199219 103.539062 142.710938 103.519531 147.078125 103.078125 C 140.941406 105.621094 134.070312 103.328125 127.789062 102.351562 C 121.171875 100.820312 114.058594 103.011719 107.679688 100.28125 C 105.140625 98.988281 102.339844 97.050781 101.871094 94.019531 C 100.960938 89.308594 103.429688 84.859375 103.46875 80.199219 C 103.449219 74.050781 103.289062 67.890625 102.410156 61.808594 Z M 102.410156 61.808594 "/>
<path style="fill-rule:nonzero;fill:rgb(70.587158%,51.371765%,40.783691%);fill-opacity:1;stroke-width:0.09375;stroke-linecap:butt;stroke-linejoin:miter;stroke:rgb(70.587158%,51.371765%,40.783691%);stroke-opacity:1;stroke-miterlimit:4;" d="M 102.550781 48.5 C 103.140625 48.53125 104.300781 48.609375 104.878906 48.648438 C 105.660156 48.808594 107.238281 49.121094 108.03125 49.28125 C 108.851562 61.03125 106.640625 72.859375 108.160156 84.570312 C 108.878906 83.160156 109.398438 81.628906 109.320312 80.019531 C 109.378906 70.730469 108.449219 61.421875 109 52.148438 C 110.238281 49.851562 113.179688 48.078125 115.808594 48.941406 C 119.261719 49.878906 122.699219 50.929688 126.308594 51.03125 C 126.429688 55.101562 127.078125 59.398438 125.5 63.289062 C 125.390625 59.5 125.300781 55.710938 125.160156 51.929688 C 123.101562 51.769531 121.050781 51.609375 119 51.488281 C 116.011719 51.261719 112.980469 51.308594 110.050781 52 C 109.101562 61.96875 109.929688 72 109.550781 81.980469 C 109.269531 86.480469 105.429688 90.160156 106.121094 94.808594 C 106.429688 98.070312 110.230469 99.089844 112.960938 99.359375 C 118.730469 99.769531 124.679688 98.839844 130.230469 100.980469 C 123.050781 100.328125 115.570312 101.789062 108.621094 99.449219 C 106.011719 98.679688 105.460938 95.769531 104.539062 93.589844 C 104.039062 93.890625 103.039062 94.488281 102.550781 94.78125 C 102.300781 88.730469 105.078125 82.980469 104.410156 76.910156 C 103.921875 71.191406 103.96875 65.441406 103.960938 59.710938 C 105.019531 68.210938 104.980469 76.828125 105.621094 85.390625 C 107.960938 81.671875 107.238281 77.160156 107.320312 72.988281 C 107.171875 65.371094 107.71875 57.738281 107.109375 50.128906 C 105.640625 50.011719 104.171875 49.871094 102.699219 49.699219 Z M 102.550781 48.5 "/>
<path style="fill-rule:nonzero;fill:rgb(46.273804%,25.881958%,10.588074%);fill-opacity:1;stroke-width:0.09375;stroke-linecap:butt;stroke-linejoin:miter;stroke:rgb(46.273804%,25.881958%,10.588074%);stroke-opacity:1;stroke-miterlimit:4;" d="M 102.699219 49.699219 C 104.171875 49.871094 105.640625 50.011719 107.109375 50.128906 C 107.71875 57.738281 107.171875 65.371094 107.320312 72.988281 C 107.238281 77.160156 107.960938 81.671875 105.621094 85.390625 C 104.980469 76.828125 105.019531 68.210938 103.960938 59.710938 C 103.390625 56.390625 102.980469 53.050781 102.699219 49.699219 Z M 102.699219 49.699219 "/>
<path style="fill-rule:nonzero;fill:rgb(54.116821%,21.960449%,0.784302%);fill-opacity:1;stroke-width:0.09375;stroke-linecap:butt;stroke-linejoin:miter;stroke:rgb(54.116821%,21.960449%,0.784302%);stroke-opacity:1;stroke-miterlimit:4;" d="M 110.050781 52 C 112.980469 51.308594 116.011719 51.261719 119 51.488281 C 120.441406 53.609375 122.269531 55.640625 122.769531 58.230469 C 123.019531 60.898438 122.410156 63.539062 122.210938 66.191406 C 121.75 70.710938 123.078125 75.191406 122.570312 79.710938 C 122.441406 82.660156 121.660156 85.921875 123.371094 88.589844 C 124.539062 90.769531 126.769531 92.011719 128.921875 93.050781 C 134.640625 95.921875 142.039062 96.121094 146.050781 101.730469 C 142.039062 102.078125 138.019531 102.320312 134.011719 102.089844 C 132.738281 101.730469 131.488281 101.320312 130.230469 100.980469 C 124.679688 98.839844 118.730469 99.769531 112.960938 99.359375 C 110.230469 99.089844 106.429688 98.070312 106.121094 94.808594 C 105.429688 90.160156 109.269531 86.480469 109.550781 81.980469 C 109.929688 72 109.101562 61.96875 110.050781 52 Z M 110.050781 52 "/>
<path style="fill-rule:nonzero;fill:rgb(47.450256%,25.881958%,12.548828%);fill-opacity:1;stroke-width:0.09375;stroke-linecap:butt;stroke-linejoin:miter;stroke:rgb(47.450256%,25.881958%,12.548828%);stroke-opacity:1;stroke-miterlimit:4;" d="M 119 51.488281 C 121.050781 51.609375 123.101562 51.769531 125.160156 51.929688 C 125.300781 55.710938 125.390625 59.5 125.5 63.289062 C 125.960938 70.589844 124.269531 77.769531 124.519531 85.050781 C 124.53125 88.089844 127.488281 89.769531 128.949219 92.121094 L 128.921875 93.050781 C 126.769531 92.011719 124.539062 90.769531 123.371094 88.589844 C 121.660156 85.921875 122.441406 82.660156 122.570312 79.710938 C 123.078125 75.191406 121.75 70.710938 122.210938 66.191406 C 122.410156 63.539062 123.019531 60.898438 122.769531 58.230469 C 122.269531 55.640625 120.441406 53.609375 119 51.488281 Z M 119 51.488281 "/>
<path style="fill-rule:nonzero;fill:rgb(77.645874%,97.253418%,100%);fill-opacity:1;stroke-width:0.09375;stroke-linecap:butt;stroke-linejoin:miter;stroke:rgb(77.645874%,97.253418%,100%);stroke-opacity:1;stroke-miterlimit:4;" d="M 207.96875 57.929688 C 208.589844 56.738281 209.21875 55.558594 209.851562 54.378906 C 213.078125 53.960938 215.160156 56.890625 213.789062 59.808594 C 211.589844 60.050781 209.46875 59.699219 207.96875 57.929688 Z M 207.96875 57.929688 "/>
<path style="fill-rule:nonzero;fill:rgb(76.469421%,97.253418%,100%);fill-opacity:1;stroke-width:0.09375;stroke-linecap:butt;stroke-linejoin:miter;stroke:rgb(76.469421%,97.253418%,100%);stroke-opacity:1;stroke-miterlimit:4;" d="M 478.429688 59.539062 C 478.449219 57.800781 477.730469 55.21875 480.089844 54.699219 C 482.121094 53.828125 483.539062 55.648438 484.730469 56.988281 C 484.101562 60.160156 480.960938 60.078125 478.429688 59.539062 Z M 478.429688 59.539062 "/>
<path style="fill-rule:nonzero;fill:rgb(86.273193%,44.7052%,42.744446%);fill-opacity:1;stroke-width:0.09375;stroke-linecap:butt;stroke-linejoin:miter;stroke:rgb(86.273193%,44.7052%,42.744446%);stroke-opacity:1;stroke-miterlimit:4;" d="M 375.070312 55.800781 C 376.679688 61.21875 376.511719 66.941406 377.851562 72.410156 C 378.011719 73.171875 378.328125 74.691406 378.488281 75.460938 C 378.328125 78.398438 377.941406 81.441406 378.738281 84.320312 C 383.160156 88.28125 389.628906 86.738281 395.019531 86.871094 C 402.261719 86.449219 409.210938 90.21875 416.449219 88.578125 C 416.609375 87.980469 416.929688 86.78125 417.101562 86.179688 C 417.289062 86.480469 417.660156 87.058594 417.851562 87.351562 C 417.898438 87.929688 417.980469 89.101562 418.019531 89.679688 C 411.28125 90.519531 404.660156 88.921875 398.019531 88.039062 C 391.089844 87.171875 382.949219 89.941406 377.109375 84.921875 C 373.839844 82.730469 374.449219 78.371094 374.160156 74.96875 L 374.410156 74.25 C 377.480469 68.449219 375.160156 61.949219 375.070312 55.800781 Z M 375.070312 55.800781 "/>
<path style="fill-rule:nonzero;fill:rgb(60.391235%,83.528137%,99.215698%);fill-opacity:1;stroke-width:0.09375;stroke-linecap:butt;stroke-linejoin:miter;stroke:rgb(60.391235%,83.528137%,99.215698%);stroke-opacity:1;stroke-miterlimit:4;" d="M 503.828125 56.609375 C 506.660156 60.378906 507.410156 65.109375 507.578125 69.71875 C 504.910156 78.210938 507.871094 87.148438 507.988281 95.820312 C 500.871094 99.359375 493.101562 101.191406 485.289062 102.410156 C 478.839844 104.070312 472.128906 103.449219 465.671875 102.28125 C 465.390625 100.160156 465.078125 98.039062 464.859375 95.910156 C 465.558594 97.648438 466.378906 99.339844 467.199219 101.039062 C 472.691406 101.609375 478.261719 101.820312 483.738281 100.941406 C 484.011719 99.738281 484.289062 98.53125 484.558594 97.320312 C 486.359375 98.839844 488.210938 101.070312 490.851562 100.148438 C 496.230469 98.851562 502.160156 97.960938 506.710938 94.660156 C 506.75 87.511719 506.398438 80.308594 504.96875 73.289062 C 504.089844 67.769531 504.601562 62.140625 503.828125 56.609375 Z M 503.828125 56.609375 "/>
<path style="fill-rule:nonzero;fill:rgb(81.567383%,94.508362%,99.606323%);fill-opacity:1;stroke-width:0.09375;stroke-linecap:butt;stroke-linejoin:miter;stroke:rgb(81.567383%,94.508362%,99.606323%);stroke-opacity:1;stroke-miterlimit:4;" d="M 37.671875 65.679688 C 38.140625 62.839844 38.921875 60.050781 40.011719 57.378906 C 41.449219 59.519531 42.179688 62.011719 42.140625 64.589844 C 40.640625 64.921875 39.148438 65.289062 37.671875 65.679688 Z M 37.671875 65.679688 "/>
<path style="fill-rule:nonzero;fill:rgb(57.254028%,78.038025%,95.684814%);fill-opacity:1;stroke-width:0.09375;stroke-linecap:butt;stroke-linejoin:miter;stroke:rgb(57.254028%,78.038025%,95.684814%);stroke-opacity:1;stroke-miterlimit:4;" d="M 236.058594 78.300781 C 235.011719 71.601562 232.960938 64.511719 235.21875 57.851562 C 236.511719 61.800781 237.328125 65.878906 237.988281 69.96875 C 237.539062 69.808594 236.640625 69.480469 236.191406 69.308594 C 236.160156 72.308594 236.058594 75.300781 236.058594 78.300781 Z M 236.058594 78.300781 "/>
<path style="fill-rule:nonzero;fill:rgb(74.116516%,90.586853%,99.215698%);fill-opacity:1;stroke-width:0.09375;stroke-linecap:butt;stroke-linejoin:miter;stroke:rgb(74.116516%,90.586853%,99.215698%);stroke-opacity:1;stroke-miterlimit:4;" d="M 191.761719 64.808594 C 193.128906 72.128906 193.050781 79.640625 194.171875 87.011719 C 192.988281 86.671875 191.808594 86.328125 190.628906 85.988281 C 190.601562 78.921875 190.75 71.828125 191.761719 64.808594 Z M 191.761719 64.808594 "/>
<path style="fill-rule:nonzero;fill:rgb(89.01825%,97.647095%,99.606323%);fill-opacity:1;stroke-width:0.09375;stroke-linecap:butt;stroke-linejoin:miter;stroke:rgb(89.01825%,97.647095%,99.606323%);stroke-opacity:1;stroke-miterlimit:4;" d="M 461.558594 65.929688 C 463.191406 71.898438 462.621094 78.199219 464.101562 84.199219 C 464.929688 88.050781 464.441406 92.019531 464.859375 95.910156 C 465.078125 98.039062 465.390625 100.160156 465.671875 102.28125 C 464.578125 101.121094 463.578125 99.878906 462.679688 98.570312 C 461.679688 99.019531 460.671875 99.46875 459.679688 99.910156 L 459.75 99.230469 C 459.519531 91.691406 460.898438 84.230469 461.058594 76.699219 C 461.480469 73.121094 461.519531 69.519531 461.558594 65.929688 Z M 461.558594 65.929688 "/>
<path style="fill-rule:nonzero;fill:rgb(30.979919%,52.156067%,69.018555%);fill-opacity:1;stroke-width:0.09375;stroke-linecap:butt;stroke-linejoin:miter;stroke:rgb(30.979919%,52.156067%,69.018555%);stroke-opacity:1;stroke-miterlimit:4;" d="M 516.269531 66.71875 C 519.140625 75.089844 520.140625 83.960938 523.28125 92.25 C 519.75 93.699219 515.949219 94.121094 512.171875 93.890625 C 511.941406 91 511.929688 88.109375 511.890625 85.21875 C 513.820312 85.238281 515.761719 85.160156 517.691406 84.941406 C 517.101562 78.871094 516.160156 72.828125 516.269531 66.71875 Z M 516.269531 66.71875 "/>
<path style="fill-rule:nonzero;fill:rgb(87.449646%,98.431396%,99.606323%);fill-opacity:1;stroke-width:0.09375;stroke-linecap:butt;stroke-linejoin:miter;stroke:rgb(87.449646%,98.431396%,99.606323%);stroke-opacity:1;stroke-miterlimit:4;" d="M 236.191406 69.308594 C 236.640625 69.480469 237.539062 69.808594 237.988281 69.96875 C 239.390625 77.960938 242.050781 85.808594 241.441406 94.039062 C 245.550781 94.738281 249.699219 94.199219 253.761719 93.429688 C 253.53125 92.039062 253.300781 90.640625 253.039062 89.25 C 253.28125 88.761719 253.761719 87.769531 254 87.269531 C 255.53125 89.539062 255.289062 92.261719 254.859375 94.820312 C 249.28125 97.25 243.238281 96.039062 237.429688 95.550781 C 237.25 89.78125 236.390625 84.058594 236.058594 78.300781 C 236.058594 75.300781 236.160156 72.308594 236.191406 69.308594 Z M 236.191406 69.308594 "/>
<path style="fill-rule:nonzero;fill:rgb(90.586853%,96.469116%,98.822021%);fill-opacity:1;stroke-width:0.09375;stroke-linecap:butt;stroke-linejoin:miter;stroke:rgb(90.586853%,96.469116%,98.822021%);stroke-opacity:1;stroke-miterlimit:4;" d="M 507.988281 95.820312 C 507.871094 87.148438 504.910156 78.210938 507.578125 69.71875 C 508.390625 73.070312 509.269531 76.410156 510.109375 79.761719 C 510.921875 84.609375 510.589844 89.609375 511.691406 94.410156 C 515.300781 96.160156 519.929688 94.359375 523.828125 93.761719 C 523.851562 92.328125 523.878906 90.890625 523.898438 89.460938 C 524.140625 89.050781 524.640625 88.238281 524.878906 87.839844 C 525.039062 90.03125 526.121094 92.730469 524.660156 94.640625 C 520.691406 96.359375 516.269531 96.480469 512.019531 96.289062 C 511.148438 95.371094 510.28125 94.460938 509.421875 93.550781 C 508.941406 94.308594 508.460938 95.058594 507.988281 95.820312 Z M 507.988281 95.820312 "/>
<path style="fill-rule:nonzero;fill:rgb(71.37146%,54.116821%,43.528748%);fill-opacity:1;stroke-width:0.09375;stroke-linecap:butt;stroke-linejoin:miter;stroke:rgb(71.37146%,54.116821%,43.528748%);stroke-opacity:1;stroke-miterlimit:4;" d="M 642.78125 80.898438 C 642.921875 77.859375 641.730469 74.308594 643.789062 71.710938 C 643.589844 74.609375 643.738281 77.53125 644.199219 80.410156 C 645.101562 78.128906 645.351562 75.691406 645.46875 73.261719 C 646.011719 73.5 647.078125 73.988281 647.609375 74.230469 C 647.050781 77.171875 646.929688 80.160156 646.800781 83.140625 C 645.460938 82.378906 644.128906 81.628906 642.78125 80.898438 Z M 642.78125 80.898438 "/>
<path style="fill-rule:nonzero;fill:rgb(76.861572%,97.253418%,100%);fill-opacity:1;stroke-width:0.09375;stroke-linecap:butt;stroke-linejoin:miter;stroke:rgb(76.861572%,97.253418%,100%);stroke-opacity:1;stroke-miterlimit:4;" d="M 211.398438 73.289062 C 212.761719 73.039062 214.148438 73.339844 215.511719 73.480469 C 215.511719 75.21875 216.53125 77.621094 214.578125 78.699219 C 213.171875 78.808594 211.019531 79.238281 210.378906 77.550781 C 210 76.089844 209.898438 74.160156 211.398438 73.289062 Z M 211.398438 73.289062 "/>
<path style="fill-rule:nonzero;fill:rgb(76.469421%,97.253418%,100%);fill-opacity:1;stroke-width:0.09375;stroke-linecap:butt;stroke-linejoin:miter;stroke:rgb(76.469421%,97.253418%,100%);stroke-opacity:1;stroke-miterlimit:4;" d="M 481.46875 73.410156 C 482.910156 72.761719 484.890625 72.921875 485.699219 74.460938 C 487.871094 76.789062 483.800781 80.570312 481.480469 78.621094 C 479.429688 77.761719 479.398438 74.199219 481.46875 73.410156 Z M 481.46875 73.410156 "/>
<path style="fill-rule:nonzero;fill:rgb(35.68573%,52.156067%,65.097046%);fill-opacity:1;stroke-width:0.09375;stroke-linecap:butt;stroke-linejoin:miter;stroke:rgb(35.68573%,52.156067%,65.097046%);stroke-opacity:1;stroke-miterlimit:4;" d="M 448.089844 98.679688 C 448.878906 90.320312 450.191406 81.980469 451.761719 73.730469 C 452.75 81.410156 450.261719 89.019531 451.449219 96.679688 C 453.671875 96.601562 456.75 97.558594 458.171875 95.261719 C 459.621094 89.148438 458.578125 82.621094 461.058594 76.699219 C 460.898438 84.230469 459.519531 91.691406 459.75 99.230469 C 455.859375 99.761719 451.921875 99.449219 448.089844 98.679688 Z M 448.089844 98.679688 "/>
<path style="fill-rule:nonzero;fill:rgb(83.135986%,71.37146%,62.744141%);fill-opacity:1;stroke-width:0.09375;stroke-linecap:butt;stroke-linejoin:miter;stroke:rgb(83.135986%,71.37146%,62.744141%);stroke-opacity:1;stroke-miterlimit:4;" d="M 666.351562 74.550781 C 671.191406 74.109375 676.058594 75.128906 680.738281 76.320312 C 685.851562 77.558594 687.800781 83.210938 688.96875 87.75 C 682.558594 90.898438 675.230469 88.691406 668.640625 87.339844 C 662.609375 86.019531 656.390625 87.53125 650.351562 86.460938 C 647.261719 85.691406 643.96875 84.070312 642.78125 80.898438 C 644.128906 81.628906 645.460938 82.378906 646.800781 83.140625 C 651.519531 86.628906 657.539062 85.5 663 85.550781 C 670.929688 85.359375 678.640625 88.730469 686.601562 87.140625 C 686.128906 85.558594 685.421875 84.078125 684.5 82.71875 C 684.390625 81.628906 684.289062 80.53125 684.21875 79.441406 C 681.660156 77.941406 678.988281 76.21875 675.910156 76.300781 C 672.871094 76.289062 669.621094 76.988281 666.890625 75.261719 Z M 666.351562 74.550781 "/>
<path style="fill-rule:nonzero;fill:rgb(68.234253%,46.273804%,31.764221%);fill-opacity:1;stroke-width:0.09375;stroke-linecap:butt;stroke-linejoin:miter;stroke:rgb(68.234253%,46.273804%,31.764221%);stroke-opacity:1;stroke-miterlimit:4;" d="M 666.890625 75.261719 C 669.621094 76.988281 672.871094 76.289062 675.910156 76.300781 C 678.988281 76.21875 681.660156 77.941406 684.21875 79.441406 C 684.289062 80.53125 684.390625 81.628906 684.5 82.71875 C 678.5 80.859375 670.929688 80.699219 666.890625 75.261719 Z M 666.890625 75.261719 "/>
<path style="fill-rule:nonzero;fill:rgb(87.841797%,47.450256%,41.175842%);fill-opacity:1;stroke-width:0.09375;stroke-linecap:butt;stroke-linejoin:miter;stroke:rgb(87.841797%,47.450256%,41.175842%);stroke-opacity:1;stroke-miterlimit:4;" d="M 399.898438 79 C 404.851562 77.300781 410.601562 77.628906 414.78125 81.03125 C 415.46875 82.269531 415.78125 83.671875 416.28125 85 C 410.71875 83.320312 404.898438 82.078125 399.898438 79 Z M 399.898438 79 "/>
<path style="fill-rule:nonzero;fill:rgb(63.528442%,47.842407%,35.68573%);fill-opacity:1;stroke-width:0.09375;stroke-linecap:butt;stroke-linejoin:miter;stroke:rgb(63.528442%,47.842407%,35.68573%);stroke-opacity:1;stroke-miterlimit:4;" d="M 128.949219 92.121094 C 133.058594 89.449219 138.078125 90.960938 142.121094 92.929688 C 143.421875 93.449219 143.738281 94.871094 144.308594 96 C 145.308594 98.460938 147.378906 100.328125 148.089844 102.941406 L 147.078125 103.078125 C 142.710938 103.519531 138.199219 103.539062 134.011719 102.089844 C 138.019531 102.320312 142.039062 102.078125 146.050781 101.730469 C 142.039062 96.121094 134.640625 95.921875 128.921875 93.050781 Z M 128.949219 92.121094 "/>
<path style="fill-rule:nonzero;fill:rgb(35.68573%,50.587463%,64.704895%);fill-opacity:1;stroke-width:0.09375;stroke-linecap:butt;stroke-linejoin:miter;stroke:rgb(35.68573%,50.587463%,64.704895%);stroke-opacity:1;stroke-miterlimit:4;" d="M 7.460938 120.300781 C 7.339844 116.691406 7.980469 113.128906 8.789062 109.621094 C 10.019531 113.601562 10.320312 118.410156 13.871094 121.148438 C 11.738281 120.769531 9.601562 120.539062 7.460938 120.300781 Z M 7.460938 120.300781 "/>
<path style="fill-rule:nonzero;fill:rgb(64.312744%,78.038025%,89.4104%);fill-opacity:1;stroke-width:0.09375;stroke-linecap:butt;stroke-linejoin:miter;stroke:rgb(64.312744%,78.038025%,89.4104%);stroke-opacity:1;stroke-miterlimit:4;" d="M 384.921875 119.148438 C 393.160156 121.371094 401.421875 118.699219 409.488281 117.199219 C 412.789062 126.761719 413.640625 136.890625 415.371094 146.800781 C 418.820312 163.488281 422.300781 180.199219 424.570312 197.109375 C 425.019531 201.441406 425.859375 205.71875 426.671875 210 C 421.859375 214.191406 415.238281 213.539062 409.351562 214.378906 C 407.769531 214.539062 405.710938 215.050781 404.789062 213.308594 C 402.699219 201.230469 401.449219 189.011719 399.449219 176.921875 C 398.519531 167.519531 396.410156 158.289062 395.660156 148.878906 C 393.75 150.339844 393.320312 152.75 392.871094 154.960938 C 388.980469 173.441406 384.699219 191.839844 381.25 210.421875 C 380.960938 212.121094 380.101562 214.289062 377.96875 214.019531 C 372.328125 214.058594 366.660156 213.320312 361.230469 211.769531 C 360.558594 201.300781 363.921875 191.101562 365.761719 180.890625 C 367.609375 168.980469 371.019531 157.371094 372.53125 145.398438 C 374.359375 136.898438 374.328125 128.089844 376.78125 119.710938 C 378.480469 116.660156 382.308594 118.898438 384.921875 119.148438 M 401.511719 120.570312 C 397.53125 122.128906 393.148438 121.71875 388.980469 121.601562 C 385.289062 121.429688 381.890625 119.078125 378.140625 119.941406 C 375.578125 128.28125 375.308594 137.070312 373.769531 145.609375 C 370.421875 165.96875 365.21875 185.988281 362.25 206.421875 C 362.308594 207.730469 361.179688 209.449219 362.351562 210.480469 C 367.710938 211.828125 373.21875 212.960938 378.789062 212.820312 C 379.730469 210.25 380.519531 207.621094 381.03125 204.921875 C 384.441406 188.121094 388.039062 171.359375 391.691406 154.621094 C 392.238281 152.28125 392.640625 149.871094 393.699219 147.699219 C 394.539062 146.671875 396.320312 147.019531 396.449219 148.410156 C 397.808594 154.121094 398.070312 160.019531 399.140625 165.789062 C 400.910156 181.199219 404.109375 196.441406 405.351562 211.921875 C 411.738281 213.058594 418.398438 212.570312 424.5 210.359375 C 424.910156 206.121094 423.988281 201.941406 423.398438 197.78125 C 421.308594 182.058594 418.210938 166.5 415.070312 150.96875 C 412.671875 140.109375 411.96875 128.890625 408.699219 118.21875 C 406.25 118.839844 403.859375 119.679688 401.511719 120.570312 Z M 401.511719 120.570312 "/>
<path style="fill-rule:nonzero;fill:rgb(25.489807%,52.940369%,76.469421%);fill-opacity:1;stroke-width:0.09375;stroke-linecap:butt;stroke-linejoin:miter;stroke:rgb(25.489807%,52.940369%,76.469421%);stroke-opacity:1;stroke-miterlimit:4;" d="M 401.511719 120.570312 C 403.859375 119.679688 406.25 118.839844 408.699219 118.21875 C 411.96875 128.890625 412.671875 140.109375 415.070312 150.96875 C 418.210938 166.5 421.308594 182.058594 423.398438 197.78125 C 423.988281 201.941406 424.910156 206.121094 424.5 210.359375 C 418.398438 212.570312 411.738281 213.058594 405.351562 211.921875 C 404.109375 196.441406 400.910156 181.199219 399.140625 165.789062 C 398.070312 160.019531 397.808594 154.121094 396.449219 148.410156 C 396.320312 147.019531 394.539062 146.671875 393.699219 147.699219 C 392.640625 149.871094 392.238281 152.28125 391.691406 154.621094 C 388.039062 171.359375 384.441406 188.121094 381.03125 204.921875 C 380.519531 207.621094 379.730469 210.25 378.789062 212.820312 C 373.21875 212.960938 367.710938 211.828125 362.351562 210.480469 C 361.179688 209.449219 362.308594 207.730469 362.25 206.421875 C 365.21875 185.988281 370.421875 165.96875 373.769531 145.609375 C 375.308594 137.070312 375.578125 128.28125 378.140625 119.941406 C 381.890625 119.078125 385.289062 121.429688 388.980469 121.601562 C 393.148438 121.71875 397.53125 122.128906 401.511719 120.570312 Z M 401.511719 120.570312 "/>
<path style="fill-rule:nonzero;fill:rgb(7.058716%,7.843018%,7.450867%);fill-opacity:1;stroke-width:0.09375;stroke-linecap:butt;stroke-linejoin:miter;stroke:rgb(7.058716%,7.843018%,7.450867%);stroke-opacity:1;stroke-miterlimit:4;" d="M 208.96875 120.28125 C 211.691406 120.171875 214.359375 120.660156 217 121.289062 C 220.96875 121.839844 225 121.640625 229 121.550781 C 232.910156 121.511719 236.421875 119.441406 240.289062 119.089844 C 243.351562 126.839844 243.640625 135.320312 245.058594 143.441406 C 248.648438 161.25 252.601562 179 254.859375 197.050781 C 255.730469 202 256.761719 207 256.5 212.058594 C 250.109375 214.28125 243.429688 214.800781 236.710938 214.609375 C 235.851562 210.738281 235.550781 206.789062 235.261719 202.851562 C 234.859375 204.53125 234.589844 206.238281 234.308594 207.949219 C 235.128906 201.589844 234.128906 195.238281 232.839844 189.019531 C 232.371094 182.960938 230.949219 177.039062 230.488281 170.980469 C 230.128906 171.539062 229.789062 172.109375 229.449219 172.679688 C 230.320312 164.839844 228.261719 157.121094 227.199219 149.410156 C 226.339844 149.410156 225.488281 149.390625 224.640625 149.359375 C 221.941406 164.160156 218.339844 178.789062 215.371094 193.550781 C 214.460938 197.609375 213.171875 201.691406 213.460938 205.898438 C 213.191406 204.941406 212.910156 203.96875 212.621094 203.019531 C 212.929688 206.929688 211.828125 210.679688 211 214.460938 C 204.679688 215.128906 198.558594 213.25 192.378906 212.320312 C 192.339844 206.191406 195.140625 200.398438 194.488281 194.230469 C 194.820312 194.730469 195.148438 195.238281 195.488281 195.75 C 195.859375 187.050781 198.511719 178.621094 199.871094 170.039062 C 202.039062 163.179688 202.609375 156.019531 204.25 149.058594 C 204.261719 143.238281 206.480469 137.730469 206.480469 131.921875 C 206.5 127.910156 207.820312 124.070312 208.96875 120.28125 Z M 208.96875 120.28125 "/>
<path style="fill-rule:nonzero;fill:rgb(25.489807%,53.33252%,76.077271%);fill-opacity:1;stroke-width:0.09375;stroke-linecap:butt;stroke-linejoin:miter;stroke:rgb(25.489807%,53.33252%,76.077271%);stroke-opacity:1;stroke-miterlimit:4;" d="M 552.558594 121.628906 C 561.039062 123.921875 569.839844 122.230469 578.011719 119.558594 C 580.171875 126.480469 581.261719 133.730469 582.148438 140.910156 C 583.03125 144.851562 583.78125 148.859375 583.351562 152.910156 C 583.738281 151.960938 584.128906 151.019531 584.539062 150.070312 C 584.210938 155.421875 586.300781 160.429688 587.140625 165.628906 C 588.53125 173.351562 590.621094 181.039062 590.398438 188.941406 C 590.800781 187.96875 591.210938 187.011719 591.628906 186.050781 C 590.769531 194.78125 594.738281 203.238281 593.371094 211.980469 C 591.921875 213.328125 590.210938 214.691406 588.109375 214.578125 C 583.238281 214.5 578.269531 216.320312 573.5 214.769531 C 573.46875 212.488281 573.46875 210.21875 573.261719 207.949219 C 571.269531 197.859375 569.488281 187.601562 569.570312 177.28125 C 569.050781 178.480469 568.75 179.761719 568.410156 181.019531 C 569.03125 173.488281 566.648438 166.210938 566.238281 158.75 C 566.011719 155.441406 565.691406 152.03125 564.039062 149.078125 C 560.300781 153.5 560.398438 159.648438 559.53125 165.078125 C 557.480469 170.011719 557.421875 175.460938 555.710938 180.5 C 554.171875 188.480469 552.859375 196.53125 550.691406 204.371094 C 549.898438 207.640625 549.53125 210.988281 549.269531 214.339844 C 547.648438 215.160156 545.878906 215.691406 544.058594 215.359375 C 539.511719 214.710938 534.898438 214.589844 530.390625 213.738281 C 532.121094 193.898438 536.929688 174.488281 540.820312 155.011719 C 541.851562 147.351562 544.019531 139.800781 543.46875 132.011719 C 543.871094 133.328125 544.28125 134.648438 544.679688 135.96875 C 544.429688 131.089844 544.109375 125.800781 546.460938 121.339844 C 548.269531 119.988281 550.570312 121.449219 552.558594 121.628906 Z M 552.558594 121.628906 "/>
<path style="fill-rule:nonzero;fill:rgb(7.058716%,7.843018%,7.450867%);fill-opacity:1;stroke-width:0.09375;stroke-linecap:butt;stroke-linejoin:miter;stroke:rgb(7.058716%,7.843018%,7.450867%);stroke-opacity:1;stroke-miterlimit:4;" d="M 110.5 130.140625 C 113.441406 129.648438 113.949219 126.300781 116.019531 124.660156 C 120.980469 124.351562 125.960938 124.308594 130.921875 124.640625 C 134.191406 132.140625 143.828125 129.96875 150.011719 133.011719 C 153.328125 137.519531 153.730469 143.53125 154.601562 148.910156 C 154.898438 148.378906 155.191406 147.851562 155.488281 147.320312 C 154.769531 157.019531 160.28125 166.03125 159.460938 175.738281 C 159.828125 174.820312 160.148438 173.890625 160.5 172.96875 C 160.378906 175.480469 160.800781 177.929688 161.980469 180.160156 C 163.039062 184.578125 163.851562 189.078125 164.761719 193.539062 C 165.898438 195.28125 166.859375 197.101562 166.859375 199.261719 C 162.828125 200.648438 158.539062 200.800781 154.320312 200.640625 C 155.359375 188.679688 149.53125 177.621094 148.359375 165.890625 C 147.800781 178.039062 150.289062 190.070312 149.71875 202.230469 C 147.949219 202.808594 146.179688 203.378906 144.339844 203.660156 C 144.800781 203.910156 145.261719 204.160156 145.710938 204.421875 C 139.871094 204.710938 134.488281 207.851562 128.550781 207.578125 C 123.460938 208.960938 118.148438 208.46875 112.949219 208.421875 C 111 208.488281 109.351562 207.390625 107.699219 206.550781 C 107.558594 202.050781 107.78125 197.5 106.820312 193.078125 C 105.410156 185.621094 105.429688 178.019531 105.238281 170.460938 C 105.121094 170.46875 104.878906 170.480469 104.75 170.488281 C 104.988281 182.578125 102.71875 194.480469 102.320312 206.519531 C 98.308594 206.421875 94.191406 206.71875 90.390625 205.179688 C 90.140625 201.039062 91.679688 197.101562 91.75 192.980469 C 91.988281 194.570312 92.148438 196.171875 92.539062 197.738281 C 91.851562 191.769531 93.648438 185.960938 93.53125 180.011719 C 93.699219 164.941406 92.828125 149.71875 95.789062 134.859375 C 100.070312 131.699219 105.53125 131.46875 110.5 130.140625 M 121.570312 143.449219 C 120.820312 145.109375 120.441406 146.929688 121.46875 148.589844 C 122.839844 148.621094 124.199219 148.648438 125.570312 148.679688 C 126.410156 146.910156 126.390625 145.078125 125.53125 143.320312 C 124.210938 143.359375 122.890625 143.398438 121.570312 143.449219 M 121.320312 163.78125 C 121.320312 165.328125 122.96875 165.871094 123.949219 166.738281 C 125.199219 165.960938 126.621094 165.300781 127.371094 163.929688 C 127.300781 161.988281 125.441406 161.109375 123.960938 160.351562 C 123.019531 161.359375 120.878906 162.050781 121.320312 163.78125 M 123.660156 184.601562 C 124.53125 184.609375 126.28125 184.609375 127.160156 184.609375 C 129.988281 183.660156 128.730469 179.230469 125.960938 179.511719 C 123.089844 179.148438 122.910156 182.648438 123.660156 184.601562 Z M 123.660156 184.601562 "/>
<path style="fill-rule:nonzero;fill:rgb(7.058716%,7.843018%,7.450867%);fill-opacity:1;stroke-width:0.09375;stroke-linecap:butt;stroke-linejoin:miter;stroke:rgb(7.058716%,7.843018%,7.450867%);stroke-opacity:1;stroke-miterlimit:4;" d="M 646 129.109375 C 646.78125 127.511719 647.339844 125.609375 649 124.679688 C 653.96875 124.308594 658.980469 124.371094 663.960938 124.589844 C 667.089844 131.421875 675.539062 130.160156 681.449219 132.480469 C 684.851562 133.359375 685.070312 137.25 686.121094 140.03125 C 689.089844 156.480469 693.011719 172.738281 696.898438 189 C 697.101562 192.75 699.828125 195.761719 699.890625 199.511719 C 695.808594 200.671875 691.550781 200.761719 687.351562 200.601562 C 687.96875 193.660156 686.21875 186.910156 684.578125 180.261719 C 683.808594 175.011719 683.558594 169.171875 680.320312 164.761719 C 679.640625 171.859375 681.359375 178.878906 681.5 185.960938 C 681.609375 190.621094 683.109375 195.148438 682.910156 199.820312 C 682.878906 201.609375 680.941406 202.050781 679.640625 202.671875 C 674.910156 204.351562 670.050781 205.859375 665.050781 206.421875 C 662.808594 206.789062 661.761719 204.390625 660.371094 203.128906 C 660.058594 204.609375 659.75 206.101562 659.449219 207.589844 C 653.941406 207.71875 648.429688 207.628906 642.929688 207.660156 C 642.621094 207.660156 642 207.660156 641.691406 207.660156 C 639.789062 197.109375 639.730469 186.261719 637.5 175.800781 C 636.75 185.671875 636.128906 195.578125 636.359375 205.5 C 632.269531 207.328125 627.480469 206.480469 623.339844 205.230469 C 623.269531 198.691406 626.378906 192.589844 626.398438 186.050781 C 626.75 175.699219 626.441406 165.351562 626.609375 154.988281 C 626.410156 148.730469 627.300781 142.480469 628.691406 136.378906 C 629.730469 133.539062 633.011719 132.601562 635.648438 131.820312 C 639.140625 131.089844 642.699219 130.539062 646 129.109375 M 653.261719 145.898438 C 653.660156 146.589844 654.46875 147.96875 654.871094 148.660156 C 656.640625 148.660156 658.671875 149 659.648438 147.101562 C 659.929688 145.359375 658.921875 143.03125 656.871094 143.28125 C 655.03125 142.890625 654.171875 144.710938 653.261719 145.898438 M 655.488281 160.488281 C 653.210938 161.429688 652.398438 164.851562 654.800781 166.148438 C 656.429688 167.03125 659.46875 167.449219 660.53125 165.5 C 660.621094 163.800781 661.28125 161.460938 659.5 160.429688 C 658.191406 160.101562 656.75 159.960938 655.488281 160.488281 M 656.398438 180.851562 C 656.441406 181.761719 656.519531 183.578125 656.558594 184.488281 C 658.179688 184.53125 659.800781 184.539062 661.441406 184.53125 C 661.511719 183.570312 661.648438 181.671875 661.710938 180.71875 C 660.300781 179.398438 657.371094 178.601562 656.398438 180.851562 Z M 656.398438 180.851562 "/>
<path style="fill-rule:nonzero;fill:rgb(87.449646%,46.665955%,41.960144%);fill-opacity:1;stroke-width:0.09375;stroke-linecap:butt;stroke-linejoin:miter;stroke:rgb(87.449646%,46.665955%,41.960144%);stroke-opacity:1;stroke-miterlimit:4;" d="M 292.699219 141.730469 C 294.378906 140.660156 296.339844 140.621094 298.269531 140.761719 C 299.261719 153.148438 298.230469 165.640625 298.78125 178.058594 C 298.210938 180.980469 296.851562 183.820312 297.011719 186.851562 C 297.558594 190.128906 301.078125 191.691406 304.039062 192.078125 C 309.980469 192.738281 315.96875 191.871094 321.929688 192.320312 C 322.910156 192.800781 323.878906 193.328125 324.851562 193.878906 C 324.378906 193.949219 323.449219 194.109375 322.988281 194.179688 C 316.058594 192.800781 308.988281 193.78125 302 193.328125 C 297.570312 192.300781 293.238281 188.691406 292.660156 183.980469 C 292.828125 181.671875 293.769531 179.511719 294.238281 177.269531 C 294.621094 174.578125 294.738281 171.871094 294.890625 169.160156 C 295.671875 170.070312 296.460938 170.988281 297.261719 171.898438 C 297.328125 161.960938 297.589844 152.019531 297.160156 142.089844 C 295.671875 141.980469 294.179688 141.859375 292.699219 141.730469 Z M 292.699219 141.730469 "/>
<path style="fill-rule:nonzero;fill:rgb(70.979309%,23.136902%,19.999695%);fill-opacity:1;stroke-width:0.09375;stroke-linecap:butt;stroke-linejoin:miter;stroke:rgb(70.979309%,23.136902%,19.999695%);stroke-opacity:1;stroke-miterlimit:4;" d="M 292.699219 141.730469 C 294.179688 141.859375 295.671875 141.980469 297.160156 142.089844 C 297.589844 152.019531 297.328125 161.960938 297.261719 171.898438 C 296.460938 170.988281 295.671875 170.070312 294.890625 169.160156 C 294.738281 171.871094 294.621094 174.578125 294.238281 177.269531 C 294.679688 169.390625 294.710938 161.421875 293.171875 153.648438 C 292.308594 149.730469 292.390625 145.699219 292.699219 141.730469 Z M 292.699219 141.730469 "/>
<path style="fill-rule:nonzero;fill:rgb(72.547913%,50.195312%,34.901428%);fill-opacity:1;stroke-width:0.09375;stroke-linecap:butt;stroke-linejoin:miter;stroke:rgb(72.547913%,50.195312%,34.901428%);stroke-opacity:1;stroke-miterlimit:4;" d="M 462.890625 142.878906 C 470.589844 140.21875 479.039062 141.289062 486.679688 143.640625 C 488.199219 144.871094 487.410156 147.238281 487.5 148.960938 C 486.351562 157.261719 486.871094 165.648438 486.679688 174 C 486.769531 176.75 486.460938 180.148438 488.800781 182.121094 C 494.441406 184.089844 501.25 182.78125 506.101562 186.859375 C 508.28125 189.28125 508.878906 192.699219 508.921875 195.871094 C 503.289062 197.378906 497.539062 195.839844 491.871094 195.511719 C 489.890625 195.390625 488.179688 194.039062 486.148438 194.28125 C 479.671875 194.160156 472.199219 195.75 466.761719 191.261719 C 462.691406 188.910156 463.75 183.378906 464.730469 179.570312 C 466.960938 172.398438 464.289062 165 464.871094 157.738281 C 467.75 164.589844 466.871094 172.121094 467.449219 179.351562 C 469.71875 167.519531 468.910156 155.441406 468.621094 143.488281 C 467.03125 143.339844 465.441406 143.199219 463.859375 143.011719 L 462.890625 142.878906 M 472.25 145.25 L 471.78125 146.050781 C 471.238281 155.328125 471.988281 164.648438 471.550781 173.941406 C 471.230469 178.460938 468.199219 182.410156 468.519531 187.019531 C 468.5 188.988281 469.488281 191 471.261719 191.949219 C 476.621094 193.378906 482.199219 191.761719 487.628906 192.648438 C 492.761719 193.46875 497.828125 194.710938 503.011719 195.289062 C 504.671875 195.359375 506.890625 195.628906 507.800781 193.839844 C 506.929688 191.238281 503.820312 190.378906 501.519531 189.449219 C 496.171875 187.761719 489.75 186.699219 486.488281 181.589844 C 485.671875 172.789062 486.570312 163.859375 486.238281 155 C 485.921875 151.890625 487.011719 148.289062 485.539062 145.480469 C 481.28125 144.289062 476.519531 144.078125 472.25 145.25 Z M 472.25 145.25 "/>
<path style="fill-rule:nonzero;fill:rgb(92.155457%,93.331909%,92.939758%);fill-opacity:1;stroke-width:0.09375;stroke-linecap:butt;stroke-linejoin:miter;stroke:rgb(92.155457%,93.331909%,92.939758%);stroke-opacity:1;stroke-miterlimit:4;" d="M 121.570312 143.449219 C 122.890625 143.398438 124.210938 143.359375 125.53125 143.320312 C 126.390625 145.078125 126.410156 146.910156 125.570312 148.679688 C 124.199219 148.648438 122.839844 148.621094 121.46875 148.589844 C 120.441406 146.929688 120.820312 145.109375 121.570312 143.449219 Z M 121.570312 143.449219 "/>
<path style="fill-rule:nonzero;fill:rgb(80.783081%,21.568298%,19.999695%);fill-opacity:1;stroke-width:0.09375;stroke-linecap:butt;stroke-linejoin:miter;stroke:rgb(80.783081%,21.568298%,19.999695%);stroke-opacity:1;stroke-miterlimit:4;" d="M 299.398438 142.429688 C 304.601562 142.480469 309.808594 142.269531 314.988281 142.75 C 317.308594 143.25 316.199219 146.328125 316.390625 148 C 315.03125 156.609375 315.628906 165.328125 315.429688 174 C 315.429688 176.261719 315.308594 178.621094 316.308594 180.71875 C 316.78125 181.910156 317.28125 183.078125 317.789062 184.25 C 315.050781 183 310.230469 182.171875 311.269531 178.078125 C 312.75 168.621094 311.660156 159.070312 312.550781 149.578125 C 312.738281 147.890625 312.449219 145.878906 310.578125 145.28125 C 306.859375 144.5 303.070312 145.648438 299.359375 146.050781 C 299.371094 145.140625 299.390625 143.339844 299.398438 142.429688 Z M 299.398438 142.429688 "/>
<path style="fill-rule:nonzero;fill:rgb(50.195312%,25.881958%,6.666565%);fill-opacity:1;stroke-width:0.09375;stroke-linecap:butt;stroke-linejoin:miter;stroke:rgb(50.195312%,25.881958%,6.666565%);stroke-opacity:1;stroke-miterlimit:4;" d="M 463.859375 143.011719 C 465.441406 143.199219 467.03125 143.339844 468.621094 143.488281 C 468.910156 155.441406 469.71875 167.519531 467.449219 179.351562 C 466.871094 172.121094 467.75 164.589844 464.871094 157.738281 C 464.261719 155.039062 464.710938 152.210938 464.109375 149.5 C 463.71875 147.371094 462.960938 145.121094 463.859375 143.011719 Z M 463.859375 143.011719 "/>
<path style="fill-rule:nonzero;fill:rgb(93.72406%,94.900513%,94.508362%);fill-opacity:1;stroke-width:0.09375;stroke-linecap:butt;stroke-linejoin:miter;stroke:rgb(93.72406%,94.900513%,94.508362%);stroke-opacity:1;stroke-miterlimit:4;" d="M 653.261719 145.898438 C 654.171875 144.710938 655.03125 142.890625 656.871094 143.28125 C 658.921875 143.03125 659.929688 145.359375 659.648438 147.101562 C 658.671875 149 656.640625 148.660156 654.871094 148.660156 C 654.46875 147.96875 653.660156 146.589844 653.261719 145.898438 Z M 653.261719 145.898438 "/>
<path style="fill-rule:nonzero;fill:rgb(72.155762%,72.155762%,72.155762%);fill-opacity:1;stroke-width:0.09375;stroke-linecap:butt;stroke-linejoin:miter;stroke:rgb(72.155762%,72.155762%,72.155762%);stroke-opacity:1;stroke-miterlimit:4;" d="M 22.621094 145.621094 C 27 145.03125 31.488281 144.898438 35.898438 145.199219 C 39.300781 146.300781 42.730469 147.300781 46.238281 147.960938 C 45.808594 155.300781 45.328125 162.640625 45.578125 170 C 45.828125 174.730469 44.988281 179.53125 45.738281 184.21875 C 49.789062 187.371094 55.558594 186.46875 59.871094 189.128906 C 55.160156 188.148438 50.308594 188.539062 45.609375 187.558594 C 44.589844 185.539062 43.78125 183.371094 43.761719 181.078125 C 43.601562 170.308594 43.71875 159.539062 44.558594 148.789062 C 39.351562 147.710938 34.019531 147.449219 28.710938 147.75 C 28.308594 158.160156 28.828125 168.578125 28.488281 178.988281 C 28.261719 183.519531 24.859375 187.371094 25.46875 192.050781 C 24.949219 194.960938 27.421875 197.359375 30.199219 197.53125 C 37.339844 198.109375 44.621094 196.929688 51.628906 198.851562 L 52.128906 199.691406 C 49.070312 199.851562 46.078125 199.078125 43.039062 198.921875 C 38.710938 198.710938 34.359375 199.289062 30.050781 198.769531 C 27.03125 198.46875 24.710938 196.328125 22.320312 194.679688 C 22.441406 194.398438 22.660156 193.859375 22.769531 193.589844 C 24.171875 190.378906 24.449219 186.839844 25.710938 183.578125 C 26.761719 180.851562 27.78125 178.039062 27.550781 175.058594 C 27.300781 165.53125 27.769531 155.988281 27.28125 146.46875 C 25.351562 146.730469 23.46875 147.230469 21.628906 147.859375 C 21.578125 149.640625 21.519531 151.410156 21.519531 153.191406 C 19.730469 151 19.960938 147.03125 22.621094 145.621094 Z M 22.621094 145.621094 "/>
<path style="fill-rule:nonzero;fill:rgb(86.665344%,16.078186%,9.803772%);fill-opacity:1;stroke-width:0.09375;stroke-linecap:butt;stroke-linejoin:miter;stroke:rgb(86.665344%,16.078186%,9.803772%);stroke-opacity:1;stroke-miterlimit:4;" d="M 299.359375 146.050781 C 303.070312 145.648438 306.859375 144.5 310.578125 145.28125 C 312.449219 145.878906 312.738281 147.890625 312.550781 149.578125 C 311.660156 159.070312 312.75 168.621094 311.269531 178.078125 C 310.230469 182.171875 315.050781 183 317.789062 184.25 C 322.351562 186.039062 326.980469 187.628906 331.640625 189.160156 C 330.238281 193.460938 325.410156 192.300781 321.929688 192.320312 C 315.96875 191.871094 309.980469 192.738281 304.039062 192.078125 C 301.078125 191.691406 297.558594 190.128906 297.011719 186.851562 C 296.851562 183.820312 298.210938 180.980469 298.78125 178.058594 C 299.109375 176.738281 299.308594 175.390625 299.328125 174.039062 C 299.359375 164.710938 299.148438 155.371094 299.359375 146.050781 Z M 299.359375 146.050781 "/>
<path style="fill-rule:nonzero;fill:rgb(52.940369%,22.3526%,1.176453%);fill-opacity:1;stroke-width:0.09375;stroke-linecap:butt;stroke-linejoin:miter;stroke:rgb(52.940369%,22.3526%,1.176453%);stroke-opacity:1;stroke-miterlimit:4;" d="M 472.25 145.25 C 476.519531 144.078125 481.28125 144.289062 485.539062 145.480469 C 487.011719 148.289062 485.921875 151.890625 486.238281 155 C 486.570312 163.859375 485.671875 172.789062 486.488281 181.589844 C 489.75 186.699219 496.171875 187.761719 501.519531 189.449219 C 503.820312 190.378906 506.929688 191.238281 507.800781 193.839844 C 506.890625 195.628906 504.671875 195.359375 503.011719 195.289062 C 497.828125 194.710938 492.761719 193.46875 487.628906 192.648438 C 482.199219 191.761719 476.621094 193.378906 471.261719 191.949219 C 469.488281 191 468.5 188.988281 468.519531 187.019531 C 468.199219 182.410156 471.230469 178.460938 471.550781 173.941406 C 471.988281 164.648438 471.238281 155.328125 471.78125 146.050781 Z M 472.25 145.25 "/>
<path style="fill-rule:nonzero;fill:rgb(12.156677%,12.156677%,12.156677%);fill-opacity:1;stroke-width:0.09375;stroke-linecap:butt;stroke-linejoin:miter;stroke:rgb(12.156677%,12.156677%,12.156677%);stroke-opacity:1;stroke-miterlimit:4;" d="M 21.628906 147.859375 C 23.46875 147.230469 25.351562 146.730469 27.28125 146.46875 C 27.769531 155.988281 27.300781 165.53125 27.550781 175.058594 C 27.78125 178.039062 26.761719 180.851562 25.710938 183.578125 C 24.449219 186.839844 24.171875 190.378906 22.769531 193.589844 C 21.941406 189.710938 22.101562 185.648438 23.398438 181.890625 C 24.53125 172.269531 22.191406 162.75 21.519531 153.191406 C 21.519531 151.410156 21.578125 149.640625 21.628906 147.859375 Z M 21.628906 147.859375 "/>
<path style="fill-rule:nonzero;fill:rgb(7.450867%,7.843018%,7.450867%);fill-opacity:1;stroke-width:0.09375;stroke-linecap:butt;stroke-linejoin:miter;stroke:rgb(7.450867%,7.843018%,7.450867%);stroke-opacity:1;stroke-miterlimit:4;" d="M 28.710938 147.75 C 34.019531 147.449219 39.351562 147.710938 44.558594 148.789062 C 43.71875 159.539062 43.601562 170.308594 43.761719 181.078125 C 43.78125 183.371094 44.589844 185.539062 45.609375 187.558594 C 50.230469 192.609375 57.519531 192.691406 63.269531 195.699219 C 64.628906 196.261719 64.898438 197.808594 65.488281 198.988281 C 60.871094 199.21875 56.25 198.960938 51.628906 198.851562 C 44.621094 196.929688 37.339844 198.109375 30.199219 197.53125 C 27.421875 197.359375 24.949219 194.960938 25.46875 192.050781 C 24.859375 187.371094 28.261719 183.519531 28.488281 178.988281 C 28.828125 168.578125 28.308594 158.160156 28.710938 147.75 Z M 28.710938 147.75 "/>
<path style="fill-rule:nonzero;fill:rgb(87.449646%,97.647095%,99.606323%);fill-opacity:1;stroke-width:0.09375;stroke-linecap:butt;stroke-linejoin:miter;stroke:rgb(87.449646%,97.647095%,99.606323%);stroke-opacity:1;stroke-miterlimit:4;" d="M 559.53125 165.078125 C 560.398438 159.648438 560.300781 153.5 564.039062 149.078125 C 565.691406 152.03125 566.011719 155.441406 566.238281 158.75 C 566.199219 160.480469 566.039062 162.199219 565.910156 163.921875 C 564.71875 162.648438 563.53125 161.390625 562.359375 160.109375 C 561.53125 161.828125 560.648438 163.53125 559.53125 165.078125 Z M 559.53125 165.078125 "/>
<path style="fill-rule:nonzero;fill:rgb(45.489502%,46.273804%,45.881653%);fill-opacity:1;stroke-width:0.09375;stroke-linecap:butt;stroke-linejoin:miter;stroke:rgb(45.489502%,46.273804%,45.881653%);stroke-opacity:1;stroke-miterlimit:4;" d="M 655.488281 160.488281 C 656.75 159.960938 658.191406 160.101562 659.5 160.429688 C 661.28125 161.460938 660.621094 163.800781 660.53125 165.5 C 659.46875 167.449219 656.429688 167.03125 654.800781 166.148438 C 652.398438 164.851562 653.210938 161.429688 655.488281 160.488281 M 655.539062 161.578125 C 655.539062 162.550781 655.53125 164.488281 655.53125 165.460938 C 656.480469 165.429688 658.390625 165.359375 659.351562 165.328125 C 659.339844 164.421875 659.328125 162.609375 659.328125 161.710938 C 658.378906 161.671875 656.488281 161.609375 655.539062 161.578125 Z M 655.539062 161.578125 "/>
<path style="fill-rule:nonzero;fill:rgb(94.116211%,94.900513%,94.508362%);fill-opacity:1;stroke-width:0.09375;stroke-linecap:butt;stroke-linejoin:miter;stroke:rgb(94.116211%,94.900513%,94.508362%);stroke-opacity:1;stroke-miterlimit:4;" d="M 121.320312 163.78125 C 120.878906 162.050781 123.019531 161.359375 123.960938 160.351562 C 125.441406 161.109375 127.300781 161.988281 127.371094 163.929688 C 126.621094 165.300781 125.199219 165.960938 123.949219 166.738281 C 122.96875 165.871094 121.320312 165.328125 121.320312 163.78125 Z M 121.320312 163.78125 "/>
<path style="fill-rule:nonzero;fill:rgb(92.155457%,92.939758%,92.939758%);fill-opacity:1;stroke-width:0.09375;stroke-linecap:butt;stroke-linejoin:miter;stroke:rgb(92.155457%,92.939758%,92.939758%);stroke-opacity:1;stroke-miterlimit:4;" d="M 655.539062 161.578125 C 656.488281 161.609375 658.378906 161.671875 659.328125 161.710938 C 659.328125 162.609375 659.339844 164.421875 659.351562 165.328125 C 658.390625 165.359375 656.480469 165.429688 655.53125 165.460938 C 655.53125 164.488281 655.539062 162.550781 655.539062 161.578125 Z M 655.539062 161.578125 "/>
<path style="fill-rule:nonzero;fill:rgb(50.587463%,50.587463%,50.587463%);fill-opacity:1;stroke-width:0.09375;stroke-linecap:butt;stroke-linejoin:miter;stroke:rgb(50.587463%,50.587463%,50.587463%);stroke-opacity:1;stroke-miterlimit:4;" d="M 680.320312 164.761719 C 683.558594 169.171875 683.808594 175.011719 684.578125 180.261719 C 683.21875 178.050781 682.898438 175.441406 682.28125 172.96875 C 681.359375 182.328125 684.351562 191.488281 683.71875 200.839844 C 683.75 203.171875 680.859375 203.308594 679.269531 204.179688 C 668.179688 207.691406 656.5 210.800781 644.789062 209.160156 C 644.320312 208.78125 643.390625 208.03125 642.929688 207.660156 C 648.429688 207.628906 653.941406 207.71875 659.449219 207.589844 C 659.75 206.101562 660.058594 204.609375 660.371094 203.128906 C 661.761719 204.390625 662.808594 206.789062 665.050781 206.421875 C 670.050781 205.859375 674.910156 204.351562 679.640625 202.671875 C 680.941406 202.050781 682.878906 201.609375 682.910156 199.820312 C 683.109375 195.148438 681.609375 190.621094 681.5 185.960938 C 681.359375 178.878906 679.640625 171.859375 680.320312 164.761719 Z M 680.320312 164.761719 "/>
<path style="fill-rule:nonzero;fill:rgb(96.076965%,96.861267%,96.861267%);fill-opacity:1;stroke-width:0.09375;stroke-linecap:butt;stroke-linejoin:miter;stroke:rgb(96.076965%,96.861267%,96.861267%);stroke-opacity:1;stroke-miterlimit:4;" d="M 123.660156 184.601562 C 122.910156 182.648438 123.089844 179.148438 125.960938 179.511719 C 128.730469 179.230469 129.988281 183.660156 127.160156 184.609375 C 126.28125 184.609375 124.53125 184.609375 123.660156 184.601562 Z M 123.660156 184.601562 "/>
<path style="fill-rule:nonzero;fill:rgb(94.116211%,94.900513%,94.508362%);fill-opacity:1;stroke-width:0.09375;stroke-linecap:butt;stroke-linejoin:miter;stroke:rgb(94.116211%,94.900513%,94.508362%);stroke-opacity:1;stroke-miterlimit:4;" d="M 656.398438 180.851562 C 657.371094 178.601562 660.300781 179.398438 661.710938 180.71875 C 661.648438 181.671875 661.511719 183.570312 661.441406 184.53125 C 659.800781 184.539062 658.179688 184.53125 656.558594 184.488281 C 656.519531 183.578125 656.441406 181.761719 656.398438 180.851562 Z M 656.398438 180.851562 "/>
<path style="fill-rule:nonzero;fill:rgb(91.371155%,45.097351%,41.960144%);fill-opacity:1;stroke-width:0.09375;stroke-linecap:butt;stroke-linejoin:miter;stroke:rgb(91.371155%,45.097351%,41.960144%);stroke-opacity:1;stroke-miterlimit:4;" d="M 316.308594 180.71875 C 318.070312 181.621094 319.898438 182.589844 321.949219 182.511719 C 326.359375 182.46875 330.621094 183.75 334.660156 185.449219 C 335.25 187.21875 335.789062 189.011719 336.28125 190.820312 C 334.738281 190.238281 333.191406 189.691406 331.640625 189.160156 C 326.980469 187.628906 322.351562 186.039062 317.789062 184.25 C 317.28125 183.078125 316.78125 181.910156 316.308594 180.71875 Z M 316.308594 180.71875 "/>
<path style="fill-rule:nonzero;fill:rgb(38.430786%,39.215088%,39.215088%);fill-opacity:1;stroke-width:0.09375;stroke-linecap:butt;stroke-linejoin:miter;stroke:rgb(38.430786%,39.215088%,39.215088%);stroke-opacity:1;stroke-miterlimit:4;" d="M 45.609375 187.558594 C 50.308594 188.539062 55.160156 188.148438 59.871094 189.128906 C 61.488281 189.828125 63.738281 190.511719 63.800781 192.640625 C 64.121094 195.511719 67.789062 196.558594 67.789062 199.601562 C 62.949219 201.550781 57.601562 200.378906 52.550781 200.359375 L 52.128906 199.691406 L 51.628906 198.851562 C 56.25 198.960938 60.871094 199.21875 65.488281 198.988281 C 64.898438 197.808594 64.628906 196.261719 63.269531 195.699219 C 57.519531 192.691406 50.230469 192.609375 45.609375 187.558594 Z M 45.609375 187.558594 "/>
<path style="fill-rule:nonzero;fill:rgb(69.802856%,23.529053%,21.568298%);fill-opacity:1;stroke-width:0.09375;stroke-linecap:butt;stroke-linejoin:miter;stroke:rgb(69.802856%,23.529053%,21.568298%);stroke-opacity:1;stroke-miterlimit:4;" d="M 331.640625 189.160156 C 333.191406 189.691406 334.738281 190.238281 336.28125 190.820312 C 336.621094 190.949219 337.300781 191.21875 337.640625 191.351562 C 337.660156 192.410156 337.679688 193.480469 337.710938 194.539062 C 332.851562 195.941406 327.839844 195.058594 322.988281 194.179688 C 323.449219 194.109375 324.378906 193.949219 324.851562 193.878906 C 323.878906 193.328125 322.910156 192.800781 321.929688 192.320312 C 325.410156 192.300781 330.238281 193.460938 331.640625 189.160156 Z M 331.640625 189.160156 "/>
</g>
</svg>
