<svg xmlns="http://www.w3.org/2000/svg" xmlns:xlink="http://www.w3.org/1999/xlink" width="114.61pt" height="141.245pt" viewBox="0 0 114.61 141.245"><defs><path id="c" d="M0 0h3.67188C6.59375 0 7.1875-1.5 7.1875-2.51562c0-1.26563-.9375-1.82813-1.82812-1.98438l.01562-.03125c1.60938-.1875 2.28125-1.10937 2.28125-2.01562 0-.98438-.57812-1.82813-2.79687-1.82813h-3.0625l-.07813.35938.71875.0625c.20313.01562.29688.09375.29688.29687 0 .07813-.03125.17188-.0625.29688L1.25-1c-.09375.39063-.20312.53125-.5.57813l-.6875.07812Zm2.42188-.92187c0-.09376.01562-.1875.03125-.28126l.70312-3.09374H3.625c1.20313 0 2.26563.34375 2.26563 1.71875 0 1.07812-.65625 2.15625-2.28125 2.15625-.95313 0-1.1875-.20313-1.1875-.5M3.25-4.71875l.625-2.8125c.09375-.35937.15625-.42187.96875-.42187 1.01563 0 1.57813.51562 1.57813 1.35937 0 1.26563-1.04688 1.875-2.39063 1.875Zm0 0"/><path id="f" d="M0 0h3.3125l.07813-.34375-.71875-.0625c-.21875-.01562-.3125-.10937-.3125-.29687 0-.07813.01562-.1875.04687-.29688l.65625-2.9375h.73438c1.17187 0 1.34375.28125 1.34375 1.70313C5.14063-.76562 5.14063 0 6.40625 0h.95313l.10937-.34375C6.625-.46875 6.32813-.5 6.32813-2.0625c0-1.23437-.10938-1.76562-1.10938-2.09375 1.46875-.20312 2.48438-1.07812 2.48438-2.26562 0-.85938-.375-1.95313-2.64063-1.95313H1.79688l-.07813.35938.71875.04687c.20313.01563.29688.10938.29688.32813q0 .09375-.04688.28125L1.23438-1c-.09376.42188-.20313.54688-.5.57813L.0625-.34375Zm3.17188-4.35937L3.875-7.5c.09375-.34375.125-.45312 1.04688-.45312.78125 0 1.51562.34375 1.51562 1.40625 0 1.4375-.9375 2.1875-2.5 2.1875Zm0 0"/><path id="d" d="M.92188 0h2.84375v-.26562l-.6875-.0625c-.1875-.01563-.28125-.07813-.28125-.39063v-5L2.75-5.76562l-1.82812.3125v.21875l.73437.10937c.17188.01563.21875.07813.21875.34375v4.0625c0 .3125-.07812.375-.28125.39063l-.67187.0625Zm0 0"/><path id="e" d="M.25-.09375.34375 0H3.9375l.29688-1.20312-.25-.04688c-.20313.45313-.34375.51563-.6875.51563H1.125c.14063-.40625.59375-.98438 1.40625-1.53125C3.39063-2.84375 4-3.23437 4-4.17187c0-1.17188-.79687-1.59375-1.73437-1.59375-1.15625 0-1.8125.67187-1.8125 1.1875 0 .3125.34375.45312.53125.45312.15624 0 .23437-.09375.28124-.25.125-.60937.45313-1.07812.9375-1.07812C2.79688-5.45312 3-4.9375 3-4.3125 3-3.5 2.625-2.95312 1.82813-2.26562.75-1.34375.375-.73437.25-.09375m0 0"/><path id="g" d="M.35938-.90625c0 .35938.54687 1 1.75 1 1.4375 0 2.0625-.84375 2.0625-1.92187 0-1.07813-.65625-1.79688-1.79688-1.79688-.48437 0-.98437.21875-1.28125.45313l.1875-1.48438c.03125-.23437.07813-.26562.25-.26562h2.14063l.25-.65625-.04688-.07813H.92188l-.0625.07813-.17188 2.8125.23438.15625c.34375-.40625.6875-.59375 1.14062-.59375.54688 0 1.10938.40625 1.10938 1.48437 0 .85938-.32813 1.5-1.01563 1.5-.54687 0-.82812-.39062-1.01562-.9375-.0625-.14062-.15626-.23437-.29688-.23437-.1875 0-.48437.1875-.48437.48437m0 0"/><path id="h" d="M.23438-.90625c0 .35938.5625 1 1.84375 1 1.25 0 2.04687-.60937 2.04687-1.6875 0-1.15625-1-1.46875-1.4375-1.5v-.04687C3.14063-3.21875 3.875-3.54687 3.875-4.375c0-1-.8125-1.39062-1.71875-1.39062-1.07812 0-1.70312.60937-1.70312 1.04687 0 .28125.32812.4375.46875.4375s.20312-.07812.25-.20312c.1875-.59375.48437-.96875.9375-.96875.625 0 .78125.60937.78125 1.04687C2.89063-3.95312 2.75-3.25 2.0625-3.25c-.39062 0-.64062-.09375-.76562-.09375-.14063 0-.17188.09375-.17188.26563 0 .15625.03125.25.17188.25.125 0 .375-.07813.76562-.07813.64063 0 1.04688.53125 1.04688 1.34375 0 .96875-.45313 1.34375-1.03125 1.34375-.51563 0-.85938-.39062-1.04688-.9375-.04687-.15625-.14062-.25-.28125-.25-.1875 0-.51562.1875-.51562.5m0 0"/><clipPath id="a"><path d="M.10938 27H43v49H.10938Zm0 0"/></clipPath><clipPath id="b"><path d="M.10938 64H43v49H.10938Zm0 0"/></clipPath></defs><g clip-path="url(#a)"><path fill="none" stroke="#000" stroke-miterlimit="10" stroke-width=".39638" d="m.3086 70.2461 36.66405-36.66016"/></g><g clip-path="url(#b)"><path fill="none" stroke="#000" stroke-miterlimit="10" stroke-width=".39638" d="m.3086 70.2461 36.66405 36.66405"/></g><path fill="none" stroke="#000" stroke-miterlimit="10" stroke-width=".39638" d="m62.6289 33.58594 29.33203-18.33203"/><use xlink:href="#c" x="45.19573" y="36.35467"/><use xlink:href="#d" x="52.73184" y="39.18912"/><use xlink:href="#c" x="96.51043" y="18.02366"/><use xlink:href="#e" x="104.04784" y="20.85811"/><path fill="none" stroke="#000" stroke-miterlimit="10" stroke-width=".39638" d="m62.6289 33.58594 29.33203 18.32812"/><use xlink:href="#f" x="96.51043" y="54.68569"/><use xlink:href="#e" x="104.47198" y="57.52014"/><path fill="none" stroke="#000" stroke-miterlimit="10" stroke-width=".39638" d="m62.6289 106.91015 29.33203-18.33203"/><use xlink:href="#f" x="44.771" y="109.67774"/><use xlink:href="#d" x="52.73254" y="112.51219"/><use xlink:href="#c" x="96.51043" y="91.34772"/><use xlink:href="#e" x="104.04784" y="94.18087"/><path fill="none" stroke="#000" stroke-miterlimit="10" stroke-width=".39638" d="m62.6289 106.91015 29.33203 18.32813"/><use xlink:href="#f" x="96.51043" y="128.00875"/><use xlink:href="#e" x="104.47198" y="130.8432"/><use xlink:href="#e" x="16.3534" y="37.55177"/><path fill="none" stroke="#000" stroke-miterlimit="10" stroke-width=".70861" d="M16.35156 39.3164h4.57422"/><use xlink:href="#g" x="16.3534" y="47.26545"/><use xlink:href="#h" x="16.3534" y="98.8909"/><path fill="none" stroke="#000" stroke-miterlimit="10" stroke-width=".70861" d="M16.35156 100.65625h4.57422"/><use xlink:href="#g" x="16.3534" y="108.60457"/><use xlink:href="#e" x="71.34276" y="10.05575"/><path fill="none" stroke="#000" stroke-miterlimit="10" stroke-width=".70861" d="M71.34375 11.82031h4.57031"/><use xlink:href="#g" x="71.34276" y="19.76943"/><use xlink:href="#h" x="71.34276" y="53.06515"/><path fill="none" stroke="#000" stroke-miterlimit="10" stroke-width=".70861" d="M71.34375 54.82813h4.57031"/><use xlink:href="#g" x="71.34276" y="62.77753"/><use xlink:href="#e" x="71.34276" y="83.37881"/><path fill="none" stroke="#000" stroke-miterlimit="10" stroke-width=".70861" d="M71.34375 85.14453h4.57031"/><use xlink:href="#g" x="71.34276" y="93.09249"/><use xlink:href="#h" x="71.34276" y="126.38792"/><path fill="none" stroke="#000" stroke-miterlimit="10" stroke-width=".70861" d="M71.34375 128.15234h4.57031"/><use xlink:href="#g" x="71.34276" y="136.10159"/></svg>