<svg xmlns="http://www.w3.org/2000/svg" xmlns:xlink="http://www.w3.org/1999/xlink" width="317.02pt" height="74.099pt" viewBox="0 0 317.02 74.099"><defs><clipPath id="a"><path d="M56 0h92v73.20703H56Zm0 0"/></clipPath><clipPath id="b"><path d="M147.25 36.60547C147.25 16.49609 114.64844.1953 74.4336.1953c-40.21876 0-72.81641 16.30078-72.81641 36.41016 0 20.10547 32.59765 36.40625 72.8164 36.40625 40.21485 0 72.81641-16.30078 72.81641-36.40625m0 0"/></clipPath><clipPath id="e"><path d="M1.42188 0H153v73.20703H1.42188Zm0 0"/></clipPath><clipPath id="f"><path d="M50 0h158v73.20703H50Zm0 0"/></clipPath><path id="c" d="M-.23437 0h2.71875l.07812-.34375-.67187-.0625C1.73437-.42187 1.67187-.5 1.67187-.60937c0-.0625.03126-.15626.0625-.25.40626-.76563.78126-1.54688 1.23438-2.35938h2.70313l.29687 2.48438s-.0625.29687-.32812.32812L5-.34375 4.9375 0h2.95313l.07812-.34375-.45312-.04687c-.375-.03125-.42188-.20313-.48438-.70313L6.14063-8.3125h-.85938L3.26563-4.76562c-.60938 1.0625-1.60938 2.85937-2.0625 3.57812-.39063.625-.59375.75-.95313.79688l-.40625.04687Zm3.45312-3.67187 1.95313-3.53125.4375 3.53125Zm0 0"/><path id="d" d="M0 0h3.64063c2.90625 0 3.5-1.5 3.5-2.5 0-1.26562-.9375-1.8125-1.8125-1.98437L5.34375-4.5c1.59375-.20312 2.26563-1.10937 2.26563-2.01562 0-.96875-.57813-1.79688-2.78125-1.79688H1.78125l-.07812.34375.71875.0625c.20312.01563.29687.09375.29687.29688 0 .07812-.03125.17187-.0625.29687L1.23438-1c-.07813.40625-.20313.54688-.48438.57813l-.6875.07812Zm2.40625-.92187c0-.09376.01563-.17188.03125-.26563l.70313-3.09375h.46875c1.1875 0 2.23437.35938 2.23437 1.71875 0 1.07813-.64062 2.14063-2.26562 2.14063-.9375 0-1.17188-.1875-1.17188-.5m.8125-3.78125.64063-2.78125c.07812-.35938.14062-.42188.95312-.42188 1.01563 0 1.57813.51563 1.57813 1.35938 0 1.25-1.04688 1.84375-2.39063 1.84375Zm0 0"/><path id="g" d="M1.03125 0h.70313v-4.375c0-.96875 1.40625-1.73437 2.59375-1.73437 1.15625 0 2.60937.76562 2.60937 1.73437V0h.70313v-4.375c0-1.46875-1.59375-2.40625-3.3125-2.40625-1.73438 0-3.29688.9375-3.29688 2.40625Zm0 0"/></defs><g clip-path="url(#a)"><g clip-path="url(#b)"><path fill="#9cc" d="M201.85938 36.60547c0-20.10938-32.59766-36.41016-72.81641-36.41016-40.21484 0-72.8164 16.30078-72.8164 36.41016 0 20.10547 32.60155 36.40625 72.8164 36.40625 40.21875 0 72.8164-16.30078 72.8164-36.40625m0 0"/></g></g><use xlink:href="#c" x="33.89821" y="40.76235"/><use xlink:href="#d" x="161.51743" y="40.76235"/><g clip-path="url(#e)"><path fill="none" stroke="#000" stroke-miterlimit="10" stroke-width=".39371" d="M147.25002 36.60547c0-20.10938-32.60157-36.41017-72.81643-36.41017-40.21876 0-72.81643 16.30079-72.81643 36.41017 0 20.10547 32.59767 36.40626 72.81643 36.40626 40.21486 0 72.81643-16.30079 72.81643-36.40626Zm0 0"/></g><g clip-path="url(#f)"><path fill="none" stroke="#000" stroke-miterlimit="10" stroke-width=".39371" d="M201.85942 36.60547c0-20.10938-32.59767-36.41017-72.81643-36.41017-40.21486 0-72.81643 16.30079-72.81643 36.41017 0 20.10547 32.60157 36.40626 72.81643 36.40626 40.21876 0 72.81643-16.30079 72.81643-36.40626Zm0 0"/></g><path fill="#9cc" stroke="#000" stroke-miterlimit="10" stroke-width=".39371" d="M274.67585 45.70703V27.5h-36.40626v18.20703Zm0 0"/><use xlink:href="#c" x="279.19554" y="40.76235"/><use xlink:href="#g" x="290.64781" y="40.76235"/><use xlink:href="#d" x="302.49676" y="40.76235"/></svg>