<svg xmlns="http://www.w3.org/2000/svg" xmlns:xlink="http://www.w3.org/1999/xlink" width="110.195pt" height="135.796pt" viewBox="0 0 110.195 135.796"><defs><path id="a" d="M0 0h3.51563c2.8125 0 3.375-1.45312 3.375-2.40625 0-1.23437-.89063-1.76562-1.75-1.92187l.01562-.01563c1.54688-.1875 2.20313-1.0625 2.20313-1.95312 0-.9375-.5625-1.73438-2.70313-1.73438h-2.9375l-.07812.32813.6875.0625c.20312.01562.29687.09375.29687.28125 0 .07812-.03125.17187-.04687.29687l-1.375 6.09375C1.10937-.57812 1-.4375.71875-.40625L.0625-.32812Zm2.32813-.89062c0-.07813 0-.17188.03125-.26563L3.03125-4.125h.45313c1.15625 0 2.15625.32813 2.15625 1.65625 0 1.03125-.625 2.0625-2.1875 2.0625-.90625 0-1.125-.1875-1.125-.48437m.78125-3.64063.60937-2.70312c.09375-.34375.15625-.40625.92188-.40625.98437 0 1.53125.5 1.53125 1.3125 0 1.21875-1.01563 1.79687-2.29688 1.79687Zm0 0"/><path id="d" d="M0 0h3.17188L3.25-.32812l-.6875-.0625C2.35938-.40625 2.26563-.5 2.26563-.6875c0-.0625.01562-.17187.04687-.28125l.625-2.8125h.70313c1.125 0 1.29687.26563 1.29687 1.625C4.9375-.73437 4.9375 0 6.15625 0h.90625l.10938-.32812C6.35938-.4375 6.0625-.48437 6.0625-1.98437c0-1.17188-.09375-1.6875-1.0625-2 1.42188-.20313 2.39063-1.03125 2.39063-2.1875 0-.82813-.35938-1.85938-2.53125-1.85938h-3.125l-.09376.32813.6875.04687c.20313.01563.29688.10938.29688.3125 0 .07813-.01562.15625-.04687.28125L1.1875-.96875c-.09375.40625-.20312.53125-.48437.5625L.0625-.32812Zm3.04688-4.1875.67187-3c.09375-.34375.125-.45312 1-.45312.75 0 1.46875.34375 1.46875 1.34375 0 1.39062-.90625 2.10937-2.40625 2.10937Zm0 0"/><path id="b" d="M.89063 0h2.71875v-.25l-.65625-.0625c-.17188-.01562-.26563-.07812-.26563-.375v-4.79687l-.04687-.04688-1.75.29688v.21875l.70312.09375c.15625.01562.20313.07812.20313.32812V-.6875c0 .29688-.07813.35938-.26563.375L.89063-.25Zm0 0"/><path id="c" d="M.23438-.09375.32813 0h3.45312l.28125-1.15625-.23437-.04687c-.1875.4375-.34375.5-.67188.5H1.07813c.14062-.39063.5625-.9375 1.35937-1.46875C3.25-2.73437 3.84375-3.10937 3.84375-4c0-1.14062-.76562-1.53125-1.67187-1.53125-1.10938 0-1.73438.64063-1.73438 1.14063 0 .28125.32813.42187.5.42187.15625 0 .23438-.07812.28125-.23437.125-.57813.42188-1.03125.90625-1.03125.5625 0 .75.5.75 1.09375 0 .78125-.35937 1.29687-1.125 1.95312C.71875-1.29687.35938-.70312.23438-.09375m0 0"/><path id="e" d="M.34375-.85937c0 .34375.53125.95312 1.6875.95312C3.40625.09375 4-.73437 4-1.75c0-1.03125-.625-1.73437-1.71875-1.73437-.46875 0-.95312.21875-1.21875.45312l.17188-1.4375c.03124-.21875.0625-.25.23437-.25h2.0625l.23438-.64062-.04688-.07813H.89063l-.0625.07813-.17188 2.70312.23438.14063c.32812-.39063.65625-.5625 1.07812-.5625.53125 0 1.0625.39062 1.0625 1.42187 0 .82813-.29687 1.45313-.96875 1.45313-.51562 0-.79687-.375-.96875-.90625C1.03125-1.25.95313-1.32813.8125-1.32813c-.1875 0-.46875.17188-.46875.46876m0 0"/><path id="f" d="M.21875-.85937c0 .32812.54688.95312 1.76563.95312S3.95313-.5 3.95313-1.53125c0-1.10937-.95313-1.40625-1.375-1.45312v-.03125c.4375-.07813 1.14062-.39063 1.14062-1.1875 0-.95313-.78125-1.32813-1.64062-1.32813-1.04688 0-1.64063.57813-1.64063 1 0 .26563.3125.42188.45313.42188.125 0 .1875-.07813.23437-.20313.1875-.5625.45313-.92187.90625-.92187.59375 0 .75.57812.75 1.01562 0 .42188-.14062 1.09375-.8125 1.09375-.375 0-.60937-.09375-.73437-.09375s-.15626.10938-.15626.26563.03126.25.15626.25.35937-.09375.73437-.09375c.625 0 1.01563.51562 1.01563 1.29687 0 .9375-.4375 1.29688-.98438 1.29688-.5 0-.82812-.375-1-.90625-.0625-.15626-.14062-.23438-.26562-.23438-.1875 0-.51563.17188-.51563.48438m0 0"/></defs><path fill="none" stroke="#000" stroke-miterlimit="10" stroke-width=".39561" d="M.19922 67.79688 35.375 32.62108M.19922 67.79688 35.375 102.97267m24.6211-70.35158 28.14455-17.58985"/><use xlink:href="#a" x="43.26792" y="35.27829"/><use xlink:href="#b" x="50.50008" y="37.99842"/><use xlink:href="#a" x="92.50622" y="17.69077"/><use xlink:href="#c" x="99.73839" y="20.4109"/><path fill="none" stroke="#000" stroke-miterlimit="10" stroke-width=".39561" d="m59.9961 32.62109 28.14455 17.58594"/><use xlink:href="#d" x="92.50622" y="52.86681"/><use xlink:href="#c" x="100.14665" y="55.58693"/><path fill="none" stroke="#000" stroke-miterlimit="10" stroke-width=".39561" d="m59.9961 102.97267 28.14455-17.58595"/><use xlink:href="#d" x="42.8599" y="105.63135"/><use xlink:href="#b" x="50.50033" y="108.35148"/><use xlink:href="#a" x="92.50622" y="88.04284"/><use xlink:href="#c" x="99.73839" y="90.76297"/><path fill="none" stroke="#000" stroke-miterlimit="10" stroke-width=".39561" d="m59.9961 102.97267 28.14455 17.58984"/><use xlink:href="#d" x="92.50622" y="123.21887"/><use xlink:href="#c" x="100.14665" y="125.939"/><use xlink:href="#c" x="15.59185" y="36.42368"/><path fill="none" stroke="#000" stroke-miterlimit="10" stroke-width=".68003" d="M15.59375 38.11719h4.38672"/><use xlink:href="#e" x="15.59185" y="45.74558"/><use xlink:href="#f" x="15.59185" y="95.2827"/><path fill="none" stroke="#000" stroke-miterlimit="10" stroke-width=".68003" d="M15.59375 96.97656h4.38672"/><use xlink:href="#e" x="15.59185" y="104.6046"/><use xlink:href="#c" x="68.35664" y="10.0424"/><path fill="none" stroke="#000" stroke-miterlimit="10" stroke-width=".68003" d="M68.35547 11.73437h4.39063"/><use xlink:href="#e" x="68.35664" y="19.36306"/><use xlink:href="#f" x="68.35664" y="51.31291"/><path fill="none" stroke="#000" stroke-miterlimit="10" stroke-width=".68003" d="M68.35547 53.0039h4.39063"/><use xlink:href="#e" x="68.35664" y="60.63357"/><use xlink:href="#c" x="68.35664" y="80.39446"/><path fill="none" stroke="#000" stroke-miterlimit="10" stroke-width=".68003" d="M68.35547 82.08984h4.39063"/><use xlink:href="#e" x="68.35664" y="89.71636"/><use xlink:href="#f" x="68.35664" y="121.66497"/><path fill="none" stroke="#000" stroke-miterlimit="10" stroke-width=".68003" d="M68.35547 123.35938h4.39063"/><use xlink:href="#e" x="68.35664" y="130.98687"/></svg>