<svg xmlns="http://www.w3.org/2000/svg" xmlns:xlink="http://www.w3.org/1999/xlink" width="83.707pt" height="35.151pt" viewBox="0 0 83.707 35.151"><defs><path id="c" d="M8.67188 0v-3.625c0-.8125-.20313-1.90625-1.67188-1.90625-.73437 0-1.35937.34375-1.8125 1-.3125-.92187-1.15625-1-1.54687-1-.875 0-1.45313.5-1.78125.9375v-.875h-.875V0h.95312v-2.98437c0-.82813.32813-1.8125 1.21875-1.8125 1.14063 0 1.20313.79687 1.20313 1.26562V0h.9375v-2.98437c0-.82813.32812-1.8125 1.23437-1.8125 1.125 0 1.1875.79687 1.1875 1.26562V0Zm0 0"/><path id="d" d="M5.03125-2.65625c0-.42187-.01562-1.32812-.48437-2.0625-.5-.75-1.23438-.89062-1.67188-.89062C1.51563-5.60937.42188-4.3125.42188-2.75c0 1.60938 1.17187 2.89063 2.625 2.89063.76562 0 1.46875-.29688 1.9375-.64063l-.07813-.78125c-.76562.625-1.5625.67188-1.84375.67188-.96875 0-1.75-.85938-1.78125-2.04688Zm-.6875-.67187h-3c.1875-.92188.82813-1.53125 1.53125-1.53125.625 0 1.3125.40625 1.46875 1.53125m0 0"/><path id="e" d="m4.03125-.32812-.1875-.71875c-.3125.25-.70312.40625-1.09375.40625-.45312 0-.625-.375-.625-1.01563V-4.6875h1.71875v-.70312H2.125V-6.9375h-.84375v1.54688H.23438v.70312H1.25v3.23438c0 .73437.17188 1.59375 1.01563 1.59375s1.46875-.3125 1.76562-.46875m0 0"/><path id="f" d="M3.96875-4.71875v-.8125c-1.07812.01563-1.75.60938-2.125 1.17188v-1.10938H1V0h.90625v-2.59375c0-1.21875.875-2.09375 2.0625-2.125m0 0"/><path id="g" d="M5.42188-5.39062h-.90625C2.92188-1.53125 2.90625-.96875 2.89063-.6875H2.875C2.8125-1.5 1.82813-3.76562 1.78125-3.875L1.125-5.39062H.17188L2.53125 0l-.4375 1.09375c-.3125.70313-.53125.70313-.70312.70313-.1875 0-.57813-.04688-.9375-.1875l.0625.78125c.28124.0625.60937.09375.875.09375.4375 0 .875-.14063 1.375-1.375Zm0 0"/><path id="h" d="M4.96875 0v-3.51562c0-1.23438-.89062-2.09375-2-2.09375-.79687 0-1.34375.20312-1.90625.53125l.0625.79687c.64063-.45312 1.25-.60937 1.84375-.60937.5625 0 1.0625.48437 1.0625 1.39062v.51563c-1.82812.03125-3.375.54687-3.375 1.60937 0 .53125.32813 1.51563 1.39063 1.51563.17187 0 1.3125-.03126 2.01562-.57813V0Zm-.9375-1.60937c0 .23437 0 .54687-.42187.76562-.34375.21875-.8125.23438-.95313.23438-.57812 0-1.125-.28126-1.125-.78125 0-.85938 1.96875-.9375 2.5-.96875Zm-.26562-4.79688L2.15625-8.4375h-.95312l1.82812 2.03125Zm0 0"/><path id="j" d="M5.5625-3.96875c0-.95312-.0625-2.07812-.5625-3.0625-.5-.92187-1.34375-1.20312-1.96875-1.20312-.70312 0-1.5625.32812-2.0625 1.40625C.57813-5.9375.51563-4.9375.51563-3.96875S.5625-2.10937.92188-1.23437c.48437 1.17187 1.40625 1.5 2.10937 1.5.89063 0 1.65625-.5 2.03125-1.32813.375-.79687.5-1.59375.5-2.90625m-.95312-.14062c0 .79687 0 1.5625-.21875 2.32812-.3125 1.10938-.96875 1.3125-1.35938 1.3125-.625 0-1.125-.46875-1.35937-1.34375-.20313-.6875-.21876-1.34375-.21876-2.29687 0-.76563 0-1.5.21876-2.15625C1.73438-6.5 2.04688-7.5 3.03125-7.5c.9375 0 1.26563.92188 1.34375 1.14063.23438.6875.23438 1.5.23438 2.25m0 0"/><clipPath id="a"><path d="M1 0h81.57813v34.32031H1Zm0 0"/></clipPath><clipPath id="b"><path d="M.84375 0h81.73438v34.32031H.84374Zm0 0"/></clipPath><clipPath id="i"><path d="M55 0h27.57813v31H55Zm0 0"/></clipPath></defs><g clip-path="url(#a)"><path fill="#4C97FF" d="M3.19922.19531h3.78516c1.1953 0 2.84375.6836 3.6875 1.52735l.54687.54687c.83984.83985 2.49219 1.52344 3.6836 1.52344h7.84374c1.19141 0 2.83985-.6836 3.6836-1.52344l.54687-.54687C27.82031.8789 29.46875.1953 30.66406.1953h49.5586c1.1953 0 2.16015.96875 2.16015 2.16016v26.01562c0 1.19141-.96484 2.15625-2.16015 2.15625h-49.5586c-1.19531 0-2.84375.6836-3.6875 1.52735l-.54687.54687c-.84375.84375-2.49219 1.52735-3.6836 1.52735h-7.84375c-1.1914 0-2.84375-.6836-3.68359-1.52735l-.54687-.54687c-.84375-.84375-2.4922-1.52735-3.6875-1.52735H3.19922c-1.19531 0-2.16016-.96484-2.16016-2.15625V2.35547c0-1.1914.96485-2.16016 2.16016-2.16016m0 0"/></g><g clip-path="url(#b)"><path fill="none" stroke="#3373CC" stroke-linecap="round" stroke-miterlimit="10" stroke-width=".3891" d="M3.19922.19531h3.78516c1.19531 0 2.84375.6836 3.6875 1.52735l.54687.54687c.83985.83985 2.4922 1.52344 3.6836 1.52344h7.84375c1.1914 0 2.83985-.6836 3.6836-1.52344l.54687-.54687C27.82032.8789 29.46876.1953 30.66407.1953h49.55861c1.19532 0 2.16016.96875 2.16016 2.16016V28.3711c0 1.1914-.96484 2.15625-2.16016 2.15625h-49.5586c-1.19532 0-2.84376.6836-3.6875 1.52735l-.54688.54687c-.84375.84375-2.4922 1.52735-3.6836 1.52735h-7.84375c-1.1914 0-2.84375-.6836-3.6836-1.52735l-.54687-.54687c-.84375-.84375-2.49219-1.52735-3.6875-1.52735H3.19922c-1.19531 0-2.16016-.96484-2.16016-2.15625V2.35547c0-1.1914.96485-2.16016 2.16016-2.16016Zm0 0"/></g><g fill="#FFF"><use xlink:href="#c" x="5.09141" y="19.58985"/><use xlink:href="#d" x="14.74614" y="19.58985"/><use xlink:href="#e" x="20.14501" y="19.58985"/><use xlink:href="#e" x="24.53463" y="19.58985"/><use xlink:href="#f" x="28.92425" y="19.58985"/><use xlink:href="#d" x="33.08283" y="19.58985"/></g><use xlink:href="#g" x="42.53085" y="19.58985" fill="#FFF"/><use xlink:href="#h" x="52.18558" y="19.58985" fill="#FFF"/><path fill="#FFF" d="M70.20703 7.6836c4.35156 0 7.8789 3.53124 7.8789 7.8828 0 4.35157-3.52734 7.87891-7.8789 7.87891s-7.8789-3.52734-7.8789-7.8789c0-4.35157 3.52734-7.88282 7.8789-7.88282m0 0"/><g clip-path="url(#i)"><path fill="none" stroke="#3373CC" stroke-linecap="round" stroke-miterlimit="10" stroke-width=".48638" d="M70.20703 7.6836c4.35156 0 7.8789 3.53124 7.8789 7.8828 0 4.35157-3.52734 7.87891-7.8789 7.87891s-7.8789-3.52734-7.8789-7.8789c0-4.35157 3.52734-7.88282 7.8789-7.88282Zm0 0"/></g><use xlink:href="#j" x="67.1671" y="19.58985"/></svg>