<svg xmlns="http://www.w3.org/2000/svg" xmlns:xlink="http://www.w3.org/1999/xlink" width="256.49pt" height="58.301pt" viewBox="0 0 256.49 58.301"><defs><path id="b" d="M8.04688 0v-5.6875c0-2.01562-1.4375-3.39062-3.25-3.39062-1.26563 0-2.15625.3125-3.07813.84375l.10938 1.29687c1.03125-.71875 2.01562-.98437 2.96875-.98437.9375 0 1.71875.79687 1.71875 2.25v.84375c-2.95313.04687-5.45313.875-5.45313 2.60937 0 .84375.53125 2.4375 2.25 2.4375.26563 0 2.125-.04687 3.26563-.92187V0ZM6.51563-2.59375c0 .375 0 .85938-.67188 1.23438-.5625.35937-1.3125.375-1.53125.375-.95312 0-1.82812-.45313-1.82812-1.28125 0-1.375 3.1875-1.51563 4.03125-1.54688Zm0 0"/><path id="c" d="M3.07813 0v-13.65625H1.59375V0Zm0 0"/><path id="d" d="M8.15625-4.3125c0-.67187-.03125-2.14062-.79687-3.32812-.79688-1.21875-2-1.4375-2.71875-1.4375-2.1875 0-3.95313 2.09375-3.95313 4.625 0 2.60937 1.89063 4.67187 4.25 4.67187 1.25 0 2.35938-.46875 3.14063-1.03125l-.125-1.28125C6.71875-1.0625 5.40625-.98437 4.96875-.98437 3.39063-.98437 2.125-2.375 2.0625-4.3125Zm-1.125-1.07812H2.17188c.3125-1.5 1.35937-2.48438 2.46875-2.48438 1.03125 0 2.125.67188 2.39062 2.48438m0 0"/><path id="e" d="M6.4375-7.64062v-1.3125C4.6875-8.9375 3.60938-7.96875 3-7.0625v-1.79687H1.60938V0h1.48437v-4.21875c0-1.96875 1.42188-3.375 3.34375-3.42187m0 0"/><path id="f" d="M8.04688 0v-5.6875c0-2.01562-1.4375-3.39062-3.25-3.39062-1.26563 0-2.15625.3125-3.07813.84375l.10938 1.29687c1.03125-.71875 2.01562-.98437 2.96875-.98437.9375 0 1.71875.79687 1.71875 2.25v.84375c-2.95313.04687-5.45313.875-5.45313 2.60937 0 .84375.53125 2.4375 2.25 2.4375.26563 0 2.125-.04687 3.26563-.92187V0ZM6.51563-2.59375c0 .375 0 .85938-.67188 1.23438-.5625.35937-1.3125.375-1.53125.375-.95312 0-1.82812-.45313-1.82812-1.28125 0-1.375 3.1875-1.51563 4.03125-1.54688ZM6.10938-10.375l-2.625-3.28125H1.95313L4.90625-10.375Zm0 0"/><path id="h" d="M9.45313-4.39062c0-2.35938-1.25-4.5625-3.14063-4.5625-1.17187 0-2.3125.40625-3.21875 1.17187v-.95312H1.60938V3.8125h1.54687V-.90625C3.76563-.32812 4.625.21875 5.8125.21875c1.90625 0 3.64063-1.9375 3.64063-4.60937m-1.53125 0c0 2.03125-1.40625 3.40625-2.875 3.40625-.78125 0-1.3125-.39063-1.70313-.92188-.1875-.29687-.1875-.34375-.1875-.6875V-6.5625C3.625-7.25 4.39063-7.70312 5.23438-7.70312c1.5 0 2.6875 1.5 2.6875 3.3125m0 0"/><path id="i" d="M9.23438-4.32812c0-2.64063-1.96875-4.75-4.3125-4.75-2.42188 0-4.32813 2.17187-4.32813 4.75 0 2.59375 2 4.54687 4.3125 4.54687 2.35938 0 4.32813-1.98437 4.32813-4.54687m-1.53125-.20313c0 2.32813-1.34375 3.48438-2.79688 3.48438-1.35937 0-2.78125-1.09375-2.78125-3.48438 0-2.375 1.5-3.34375 2.78125-3.34375 1.375 0 2.79688 1.03125 2.79688 3.34375m0 0"/><path id="j" d="M7.09375-2.51562c0-1.09375-.73437-1.75-.78125-1.8125-.76562-.6875-1.29687-.8125-2.28125-.98438-1.07812-.21875-1.98437-.42187-1.98437-1.375 0-1.23437 1.42187-1.23437 1.67187-1.23437.625 0 1.67188.09375 2.79688.75L6.75-8.45312c-1.01562-.46875-1.82812-.625-2.82812-.625-.5 0-3.26563 0-3.26563 2.57812 0 .96875.5625 1.59375 1.0625 1.96875.60938.4375 1.03125.51563 2.125.73438.70313.14062 1.84375.375 1.84375 1.42187 0 1.34375-1.54687 1.34375-1.84375 1.34375-1.59375 0-2.70312-.71875-3.0625-.95312L.54688-.65625c.64062.32813 1.71875.875 3.3125.875.35937 0 1.4375 0 2.28125-.625.60937-.48437.95312-1.26562.95312-2.10937m0 0"/><path id="k" d="M3.07813 0v-8.73437H1.59375V0Zm.15625-11.14062v-1.75H1.46875v1.75Zm0 0"/><path id="l" d="m6.53125-.53125-.3125-1.15625c-.51562.40625-1.14062.64063-1.76562.64063-.73438 0-1.01563-.59375-1.01563-1.625v-4.92188h2.78125v-1.14062H3.4375v-2.5H2.09375v2.5H.375v1.14062h1.65625v5.25c0 1.1875.26563 2.5625 1.625 2.5625 1.39063 0 2.39063-.5 2.875-.75m0 0"/><path id="m" d="M8.5625 0v-5.85937c0-1.3125-.29687-3.09375-2.70312-3.09375-1.76563 0-2.73438 1.32812-2.84375 1.48437v-1.39062H1.59375V0H3.125v-4.82812c0-1.29688.5-2.92188 2-2.92188 1.89063 0 1.90625 1.39063 1.90625 2.01563V0Zm0 0"/><path id="n" d="M8.15625-4.3125c0-.67187-.03125-2.14062-.79687-3.32812-.79688-1.21875-2-1.4375-2.71875-1.4375-2.1875 0-3.95313 2.09375-3.95313 4.625 0 2.60937 1.89063 4.67187 4.25 4.67187 1.25 0 2.35938-.46875 3.14063-1.03125l-.125-1.28125C6.71875-1.0625 5.40625-.98437 4.96875-.98437 3.39063-.98437 2.125-2.375 2.0625-4.3125Zm-1.125-1.07812H2.17188c.3125-1.5 1.35937-2.48438 2.46875-2.48438 1.03125 0 2.125.67188 2.39062 2.48438m.10938-8.26563H5.60938L3-10.375h1.1875Zm0 0"/><clipPath id="a"><path d="M1.26563 0h253.45312v57.60938H1.26563Zm0 0"/></clipPath><clipPath id="g"><path d="M54 1h200.71875v52H54Zm0 0"/></clipPath></defs><g clip-path="url(#a)"><path fill="#4C97FF" stroke="#3373CC" stroke-linecap="round" stroke-miterlimit="10" stroke-width=".39378" d="M4.96094.19531h6.13282c1.92968 0 4.60156 1.10938 5.96875 2.47266l.88281.88281c1.36719 1.3672 4.03906 2.47266 5.96875 2.47266H36.6094c1.9336 0 4.60547-1.10547 5.97266-2.47266l.88281-.88281C44.82815 1.30469 47.50002.1953 49.43362.1953h201.59384c1.92969 0 3.4961 1.5664 3.4961 3.5v44.39456c0 1.92968-1.56641 3.4961-3.4961 3.4961H49.43362c-1.9336 0-4.60547 1.10546-5.96876 2.47265l-.8828.88281c-1.3672 1.36719-4.03907 2.47266-5.97267 2.47266H23.91407c-1.92969 0-4.60156-1.10547-5.96875-2.47266l-.88281-.88281c-1.36719-1.36719-4.03907-2.47266-5.96875-2.47266H4.96094c-1.92969 0-3.4961-1.5664-3.4961-3.4961V3.69532c0-1.9336 1.56641-3.5 3.4961-3.5Zm0 0"/></g><g fill="#FFF"><use xlink:href="#b" x="8.02735" y="33.35311"/><use xlink:href="#c" x="17.49786" y="33.35311"/><use xlink:href="#c" x="22.20359" y="33.35311"/><use xlink:href="#d" x="26.90931" y="33.35311"/><use xlink:href="#e" x="35.65132" y="33.35311"/></g><use xlink:href="#f" x="48.94154" y="33.35311" fill="#FFF"/><path fill="#4C97FF" d="M244.61328 12.32422H68.31641c-1.63282 0-2.95313 1.32422-2.95313 2.95312v23.1172c0 1.6289 1.32031 2.95312 2.95313 2.95312h176.29687c1.63281 0 2.95313-1.32422 2.95313-2.95313V15.27734c0-1.6289-1.32032-2.95312-2.95313-2.95312m0 0"/><g clip-path="url(#g)"><path fill="none" stroke="#3373CC" stroke-linecap="round" stroke-miterlimit="10" stroke-width=".78756" d="M244.61327 12.32422H68.31641c-1.63282 0-2.95313 1.32422-2.95313 2.95313v23.11718c0 1.6289 1.32031 2.95313 2.95313 2.95313h176.29686c1.63282 0 2.95313-1.32422 2.95313-2.95313V15.27735c0-1.62891-1.32031-2.95313-2.95313-2.95313Zm0 0"/></g><use xlink:href="#h" x="75.86205" y="33.35311" fill="#FFF"/><g fill="#FFF"><use xlink:href="#i" x="86.59267" y="33.35311"/><use xlink:href="#j" x="96.43728" y="33.35311"/><use xlink:href="#k" x="103.97825" y="33.35311"/><use xlink:href="#l" x="108.68397" y="33.35311"/><use xlink:href="#k" x="115.79178" y="33.35311"/><use xlink:href="#i" x="120.4975" y="33.35311"/><use xlink:href="#m" x="130.34211" y="33.35311"/></g><g fill="#FFF"><use xlink:href="#b" x="147.07794" y="33.35311"/><use xlink:href="#c" x="156.54845" y="33.35311"/><use xlink:href="#n" x="161.25418" y="33.35311"/><use xlink:href="#b" x="169.99619" y="33.35311"/><use xlink:href="#l" x="179.4667" y="33.35311"/><use xlink:href="#i" x="186.57451" y="33.35311"/><use xlink:href="#k" x="196.41912" y="33.35311"/><use xlink:href="#e" x="201.12484" y="33.35311"/><use xlink:href="#d" x="207.85855" y="33.35311"/></g><path fill="#FFF" stroke="#4C97FF" stroke-linecap="round" stroke-miterlimit="10" stroke-width=".78756" d="M233.07422 24.61328h7.20703c1.6289 0 2.10547 1.01563 1.0625 2.26562l-2.77734 3.33204c-1.04297 1.2539-2.73438 1.2539-3.78125 0l-2.77344-3.33204c-1.04297-1.25-.57031-2.26562 1.0625-2.26562Zm0 0"/></svg>