<svg xmlns="http://www.w3.org/2000/svg" xmlns:xlink="http://www.w3.org/1999/xlink" width="178.325pt" height="56.002pt" viewBox="0 0 178.325 56.002"><defs><path id="c" d="M8 0v-5.65625c0-2-1.42187-3.375-3.21875-3.375-1.28125 0-2.15625.3125-3.07812.84375l.125 1.29688C2.84375-7.60937 3.8125-7.875 4.78125-7.875c.92188 0 1.70313.78125 1.70313 2.23438v.84375C3.54688-4.75 1.0625-3.9375 1.0625-2.21875c0 .84375.51563 2.4375 2.23438 2.4375.26562 0 2.10937-.04687 3.25-.92187V0ZM6.48438-2.57812c0 .35937 0 .85937-.67188 1.23437C5.25-1 4.5-.98437 4.28125-.98437c-.9375 0-1.8125-.4375-1.8125-1.26563 0-1.375 3.17188-1.51562 4.01563-1.54687Zm0 0"/><path id="d" d="M3.04688 0v-13.59375H1.57813V0Zm0 0"/><path id="e" d="M8.10938-4.28125c0-.67187-.03125-2.14062-.78125-3.3125-.8125-1.21875-2-1.4375-2.70313-1.4375-2.17187 0-3.9375 2.07813-3.9375 4.60938 0 2.57812 1.875 4.64062 4.23438 4.64062 1.21875 0 2.34375-.46875 3.10937-1.01562l-.125-1.28125C6.67188-1.0625 5.39063-.98437 4.9375-.98437c-1.5625 0-2.82812-1.39063-2.875-3.29688Zm-1.125-1.07812H2.15625c.3125-1.5 1.34375-2.46875 2.46875-2.46875 1.01563 0 2.10938.65625 2.35938 2.46875m0 0"/><path id="f" d="M6.40625-7.59375v-1.3125c-1.75.01563-2.82812.98438-3.4375 1.875V-8.8125H1.60938V0h1.46875v-4.1875c0-1.95312 1.40625-3.375 3.32812-3.40625m0 0"/><path id="g" d="M8 0v-5.65625c0-2-1.42187-3.375-3.21875-3.375-1.28125 0-2.15625.3125-3.07812.84375l.125 1.29688C2.84375-7.60937 3.8125-7.875 4.78125-7.875c.92188 0 1.70313.78125 1.70313 2.23438v.84375C3.54688-4.75 1.0625-3.9375 1.0625-2.21875c0 .84375.51563 2.4375 2.23438 2.4375.26562 0 2.10937-.04687 3.25-.92187V0ZM6.48438-2.57812c0 .35937 0 .85937-.67188 1.23437C5.25-1 4.5-.98437 4.28125-.98437c-.9375 0-1.8125-.4375-1.8125-1.26563 0-1.375 3.17188-1.51562 4.01563-1.54687ZM6.0625-10.3125l-2.59375-3.28125H1.9375L4.875-10.3125Zm0 0"/><path id="h" d="M9 0 5.09375-4.48437 8.67188-8.6875H7.0625l-2.625 3.21875L1.75-8.6875H.125l3.67188 4.20313L0 0h1.60938L4.4375-3.6875 7.375 0Zm0 0"/><path id="i" d="M3.53125-7.0625v-1.625h-1.625v1.625Zm0 7.0625v-1.625h-1.625V0Zm0 0"/><path id="j" d="M8.95313-6.375c0-1.54687-.07813-3.375-.90625-4.95312-.79688-1.46875-2.15625-1.95313-3.15625-1.95313C3.73438-13.28125 2.375-12.75 1.5625-11 .92188-9.57812.82813-7.95312.82813-6.375c0 1.54688.07812 2.96875.65625 4.39063C2.26563-.09376 3.76563.4375 4.875.4375c1.42188 0 2.65625-.8125 3.29688-2.15625C8.75-3 8.95313-4.28125 8.95313-6.375m-1.53125-.25c0 1.29688 0 2.53125-.35938 3.76563-.5 1.78125-1.54687 2.09375-2.17187 2.09375-1.01563 0-1.8125-.73438-2.20313-2.15625-.3125-1.10938-.34375-2.17188-.34375-3.70313 0-1.21875 0-2.40625.34375-3.48437.10938-.35938.60938-1.96875 2.1875-1.96875 1.53125 0 2.03125 1.48437 2.17188 1.84375.375 1.09375.375 2.40625.375 3.60937m0 0"/><path id="k" d="M8.73438-8.6875H7.26563c-2.54688 6.21875-2.59375 7.125-2.60938 7.57813h-.01562C4.51563-2.42187 2.95313-6.0625 2.875-6.25L1.82813-8.6875H.28124L4.07813 0 3.375 1.76563c-.51562 1.125-.84375 1.125-1.125 1.125-.3125 0-.9375-.07813-1.53125-.3125l.125 1.28125c.42188.09375.98438.15625 1.40625.15625.6875 0 1.40625-.23438 2.21875-2.23438Zm0 0"/><clipPath id="a"><path d="M1.23047 0h175.20312v55H1.23047Zm0 0"/></clipPath><clipPath id="b"><path d="M1.23047 0h175.20312v55.01953H1.23047Zm0 0"/></clipPath><clipPath id="l"><path d="M132 1h44.4336v48H132Zm0 0"/></clipPath></defs><g clip-path="url(#a)"><path fill="#4C97FF" d="M4.90234.19531H11c1.91797 0 4.57813 1.10157 5.9336 2.45703l.8789.87891c1.35938 1.35938 4.01563 2.46094 5.9336 2.46094h12.625c1.91796 0 4.57812-1.10156 5.93359-2.46094l.8789-.8789C44.54297 1.29686 47.19922.1953 49.1172.1953h123.64453c1.92187 0 3.47656 1.5586 3.47656 3.47657v41.8828c0 1.92188-1.55469 3.47657-3.47656 3.47657H49.11719c-1.91797 0-4.57422 1.10156-5.9336 2.45703l-.8789.8789c-1.35547 1.35938-4.01563 2.45704-5.9336 2.45704h-12.625c-1.91796 0-4.57421-1.09766-5.93359-2.45703l-.8789-.8789C15.57812 50.1328 12.91796 49.03124 11 49.03124H4.90234c-1.92187 0-3.47656-1.55469-3.47656-3.47656V3.67188C1.42578 1.7539 2.98047.1953 4.90234.1953m0 0"/></g><g clip-path="url(#b)"><path fill="none" stroke="#3373CC" stroke-linecap="round" stroke-miterlimit="10" stroke-width=".39152" d="M4.90234.19531H11c1.91797 0 4.57812 1.10156 5.93359 2.45703l.8789.87891c1.35938 1.35937 4.01563 2.46094 5.9336 2.46094h12.625c1.91796 0 4.57812-1.10157 5.93359-2.46094l.8789-.8789C44.54296 1.29686 47.19921.1953 49.11718.1953h123.6445c1.92187 0 3.47656 1.5586 3.47656 3.47656v41.8828c0 1.92188-1.55469 3.47657-3.47656 3.47657H49.11718c-1.91797 0-4.57422 1.10156-5.9336 2.45703l-.8789.8789c-1.35547 1.35938-4.01563 2.45704-5.9336 2.45704h-12.625c-1.91796 0-4.5742-1.09766-5.93358-2.45703l-.87891-.87891c-1.35547-1.35547-4.01562-2.45703-5.9336-2.45703H4.90235c-1.92187 0-3.47656-1.55469-3.47656-3.47656V3.67188C1.42578 1.7539 2.98047.1953 4.90234.1953Zm0 0"/></g><g fill="#FFF"><use xlink:href="#c" x="7.95076" y="31.42007"/><use xlink:href="#d" x="17.36701" y="31.42007"/><use xlink:href="#d" x="22.04577" y="31.42007"/><use xlink:href="#e" x="26.72454" y="31.42007"/><use xlink:href="#f" x="35.41647" y="31.42007"/></g><use xlink:href="#g" x="48.63054" y="31.42007" fill="#FFF"/><g fill="#FFF"><use xlink:href="#h" x="64.56574" y="31.42007"/><use xlink:href="#i" x="73.59047" y="31.42007"/></g><path fill="#FFF" stroke="#3373CC" stroke-linecap="round" stroke-miterlimit="10" stroke-width=".78304" d="M100.80078 12.25391c7.0078 0 12.6875 5.67969 12.6875 12.6875 0 7.0039-5.6797 12.68359-12.6875 12.68359-7.0039 0-12.6836-5.67969-12.6836-12.6836 0-7.0078 5.6797-12.68749 12.6836-12.68749Zm0 0"/><use xlink:href="#j" x="95.9073" y="31.42007"/><g fill="#FFF"><use xlink:href="#k" x="120.39884" y="31.42007"/><use xlink:href="#i" x="129.42357" y="31.42007"/></g><path fill="#FFF" d="M156.63672 12.2539c7.0039 0 12.6836 5.6797 12.6836 12.6875 0 7.00391-5.6797 12.6836-12.6836 12.6836-7.00781 0-12.6875-5.67969-12.6875-12.6836 0-7.0078 5.67969-12.6875 12.6875-12.6875m0 0"/><g clip-path="url(#l)"><path fill="none" stroke="#3373CC" stroke-linecap="round" stroke-miterlimit="10" stroke-width=".78304" d="M156.63671 12.25391c7.00391 0 12.6836 5.67969 12.6836 12.6875 0 7.0039-5.67969 12.68359-12.6836 12.68359-7.0078 0-12.6875-5.67969-12.6875-12.6836 0-7.0078 5.6797-12.68749 12.6875-12.68749Zm0 0"/></g><use xlink:href="#j" x="151.74031" y="31.42007"/></svg>