<svg xmlns="http://www.w3.org/2000/svg" xmlns:xlink="http://www.w3.org/1999/xlink" width="158.728pt" height="35.151pt" viewBox="0 0 158.728 35.151"><defs><path id="b" d="m4.03125-.32812-.1875-.71875c-.3125.25-.70312.40625-1.09375.40625-.45312 0-.625-.375-.625-1.01563V-4.6875h1.71875v-.70312H2.125V-6.9375h-.84375v1.54688H.23438v.70312H1.25v3.23438c0 .73437.17188 1.59375 1.01563 1.59375s1.46875-.3125 1.76562-.46875m0 0"/><path id="c" d="M5.70313-2.67187c0-1.625-1.21875-2.9375-2.67188-2.9375-1.48437 0-2.67187 1.34375-2.67187 2.9375 0 1.60937 1.25 2.8125 2.67187 2.8125 1.45313 0 2.67188-1.23438 2.67188-2.8125m-.95313-.125c0 1.4375-.82812 2.15625-1.71875 2.15625-.84375 0-1.71875-.6875-1.71875-2.15625s.92188-2.0625 1.71875-2.0625c.84375 0 1.71875.625 1.71875 2.0625m0 0"/><path id="d" d="M5.28125 0v-5.39062h-.9375V-1.875c0 .92188-.6875 1.34375-1.46875 1.34375-.85937 0-.9375-.3125-.9375-.84375v-4.01562H.98438v4.0625c0 .875.28124 1.46875 1.28125 1.46875.65625 0 1.51562-.20313 2.10937-.71875V0Zm0 0"/><path id="e" d="M3.96875-4.71875v-.8125c-1.07812.01563-1.75.60938-2.125 1.17188v-1.10938H1V0h.90625v-2.59375c0-1.21875.875-2.09375 2.0625-2.125m0 0"/><path id="f" d="M5.28125 0v-3.625c0-.79687-.17187-1.90625-1.65625-1.90625-1.09375 0-1.6875.82813-1.76562.92188v-.85938h-.875V0h.95312v-2.98437c0-.79688.29688-1.8125 1.21875-1.8125 1.17188 0 1.1875.875 1.1875 1.26562V0Zm0 0"/><path id="g" d="M5.03125-2.65625c0-.42187-.01562-1.32812-.48437-2.0625-.5-.75-1.23438-.89062-1.67188-.89062C1.51563-5.60937.42188-4.3125.42188-2.75c0 1.60938 1.17187 2.89063 2.625 2.89063.76562 0 1.46875-.29688 1.9375-.64063l-.07813-.78125c-.76562.625-1.5625.67188-1.84375.67188-.96875 0-1.75-.85938-1.78125-2.04688Zm-.6875-.67187h-3c.1875-.92188.82813-1.53125 1.53125-1.53125.625 0 1.3125.40625 1.46875 1.53125m0 0"/><path id="h" d="M5.28125 0v-8.4375h-.92187v3.57813c-.64063-.53125-1.32813-.67188-1.76563-.67188-1.20312 0-2.15625 1.26563-2.15625 2.82813 0 1.59375.9375 2.84375 2.09375 2.84375.39063 0 1.10938-.10938 1.79688-.76563V0Zm-.95312-1.6875c0 .17188-.01563.39063-.40625.73438-.28125.25-.57813.34375-.89063.34375-.76562 0-1.64062-.5625-1.64062-2.07813 0-1.60937 1.04687-2.10937 1.76562-2.10937.54688 0 .90625.28125 1.17188.67187Zm0 0"/><path id="k" d="M5.71875-2.07812v-.73438H4.51563v-5.15625H3.42188L.34375-2.8125v.73438H3.5625V0h.95313v-2.07812ZM3.64063-2.8125H1.28125C1.92188-3.85937 3.625-6.75 3.64063-7.4375Zm0 0"/><path id="l" d="M5.45313-2.46875c0-1.51562-1.04688-2.71875-2.29688-2.71875-.48437 0-.9375.17188-1.29687.5v-2.51562H5.0625v-.76563H.98438v4.48438h.79687c.21875-.48438.65625-.96875 1.375-.96875.5625 0 1.21875.5 1.21875 1.96875 0 2.01562-1.48437 2.01562-1.59375 2.01562-.8125 0-1.54687-.48437-1.90625-1.14062l-.40625.6875c.5.6875 1.34375 1.1875 2.32813 1.1875C4.25.26563 5.45313-.9375 5.45313-2.46875m0 0"/><path id="m" d="m5.89063-4.76562-.125-.76563c-.85938 0-1.5625.23438-1.92188.39063-.25-.20313-.67187-.39063-1.15625-.39063-1.04687 0-1.9375.875-1.9375 1.98438 0 .45312.15625.89062.40625 1.20312-.35937.5-.35937.96875-.35937 1.03125 0 .3125.10937.67188.32812.92188-.64062.375-.78125.9375-.78125 1.25C.34375 1.78125 1.54688 2.5 3.03125 2.5c1.48438 0 2.6875-.71875 2.6875-1.65625 0-1.6875-2.01562-1.6875-2.5-1.6875h-1.0625c-.15625 0-.70312 0-.70312-.64062 0-.125.04687-.32813.125-.4375.25.1875.65625.35937 1.10937.35937 1.09375 0 1.9375-.90625 1.9375-1.98437 0-.59375-.26562-1.03125-.39062-1.21875l.04687.01562c.26563 0 .60938-.04687.89063-.04687.21875 0 .71875.03125.71875.03125M3.78125-3.54687c0 .95312-.57812 1.28125-1.09375 1.28125-.45312 0-1.07812-.28125-1.07812-1.28125 0-1.01563.625-1.29688 1.07812-1.29688.51563 0 1.09375.34375 1.09375 1.29688M4.875.875c0 .53125-.84375.9375-1.84375.9375-.98437 0-1.84375-.375-1.84375-.95312 0-.03126 0-.82813.95313-.82813h1.09375C3.5.03125 4.875.03125 4.875.875m0 0"/><path id="n" d="M5.03125-2.65625c0-.42187-.01562-1.32812-.48437-2.0625-.5-.75-1.23438-.89062-1.67188-.89062C1.51563-5.60937.42188-4.3125.42188-2.75c0 1.60938 1.17187 2.89063 2.625 2.89063.76562 0 1.46875-.29688 1.9375-.64063l-.07813-.78125c-.76562.625-1.5625.67188-1.84375.67188-.96875 0-1.75-.85938-1.78125-2.04688Zm-.6875-.67187h-3c.1875-.92188.82813-1.53125 1.53125-1.53125.625 0 1.3125.40625 1.46875 1.53125m.0625-5.10938h-.9375l-1.625 2.03125h.75Zm0 0"/><path id="o" d="M4.375-1.5625c0-.65625-.45312-1.07812-.46875-1.10937-.48437-.42188-.8125-.5-1.42187-.60938-.65625-.14062-1.21875-.25-1.21875-.85937 0-.75.875-.75 1.03125-.75.39062 0 1.03125.04687 1.73437.46875l.14063-.79688c-.64063-.28125-1.14063-.39062-1.75-.39062-.3125 0-2.01563 0-2.01563 1.59375 0 .59375.34375.98437.65625 1.21875.375.26562.64063.3125 1.3125.45312.4375.07813 1.14063.23438 1.14063.875 0 .84375-.96875.84375-1.14063.84375-.98437 0-1.67187-.45312-1.89062-.60937l-.14063.82812C.73438-.20312 1.39063.14063 2.375.14063c.21875 0 .89063 0 1.42188-.39063.375-.29687.57812-.78125.57812-1.3125m0 0"/><clipPath id="a"><path d="M1.73828 0h154.98438v34.32031H1.73828Zm0 0"/></clipPath><clipPath id="i"><path d="M40 0h61v34.32031H40Zm0 0"/></clipPath><clipPath id="j"><path d="M42 0h48v34.32031H42Zm0 0"/></clipPath></defs><g clip-path="url(#a)"><path fill="#FF6680" stroke="#F35" stroke-linecap="round" stroke-miterlimit="10" stroke-width=".3891" d="M4.09375.19531h3.78516c1.19531 0 2.84375.6836 3.6875 1.52735l.54688.54687c.84375.83985 2.49218 1.52344 3.68359 1.52344h7.84375c1.1914 0 2.83985-.6836 3.6836-1.52344l.54687-.54687C28.71485.8789 30.3633.1953 31.5586.1953h122.81255c1.1914 0 2.16015.96875 2.16015 2.16016V28.3711c0 1.1914-.96875 2.15625-2.16015 2.15625H31.5586c-1.1953 0-2.84375.6836-3.6875 1.52735l-.54687.54687c-.84375.84375-2.4922 1.52735-3.6836 1.52735h-7.84375c-1.1914 0-2.83984-.6836-3.6836-1.52735l-.54687-.54687c-.84375-.84375-2.49219-1.52735-3.6875-1.52735H4.09375c-1.19531 0-2.16016-.96484-2.16016-2.15625V2.35547c0-1.1914.96485-2.16016 2.16016-2.16016Zm0 0"/></g><g fill="#FFF"><use xlink:href="#b" x="5.98629" y="19.58985"/><use xlink:href="#c" x="10.37591" y="19.58985"/><use xlink:href="#d" x="16.45571" y="19.58985"/><use xlink:href="#e" x="22.74223" y="19.58985"/><use xlink:href="#f" x="26.90082" y="19.58985"/><use xlink:href="#g" x="33.18733" y="19.58985"/><use xlink:href="#e" x="38.5862" y="19.58985"/></g><g fill="#FFF"><use xlink:href="#h" x="46.79394" y="19.58985"/><use xlink:href="#g" x="53.08046" y="19.58985"/></g><g clip-path="url(#i)"><path fill="none" stroke="#FFF" stroke-linecap="round" stroke-miterlimit="10" stroke-width="1.79941" d="M70.19922 20.9375c2.9375-.51562 4.89844-3.3164 4.3789-6.2539-.51562-2.9375-3.3164-4.89845-6.2539-4.37891-.91016.16015-1.72656.53906-2.40234 1.07421"/></g><path fill="#FFF" d="m64.73438 14.69922 2.79296-2.5-1.47265-.625-1.47266-.6211Zm0 0"/><g clip-path="url(#j)"><path fill="none" stroke="#FFF" stroke-linecap="round" stroke-miterlimit="10" stroke-width="1.54604" d="m64.73438 14.69922 2.79296-2.5-1.47265-.625-1.47266-.6211Zm0 0"/></g><g fill="#FFF"><use xlink:href="#h" x="80.04627" y="19.58985"/><use xlink:href="#g" x="86.33279" y="19.58985"/></g><path fill="#FFF" stroke="#F35" stroke-linecap="round" stroke-miterlimit="10" stroke-width=".48638" d="M106.11328 7.6836h2.21094c4.35156 0 7.8789 3.53124 7.8789 7.8828 0 4.35157-3.52734 7.87891-7.8789 7.87891h-4.42187c-4.35157 0-7.87891-3.52734-7.87891-7.8789 0-4.35157 3.52734-7.88282 7.8789-7.88282Zm0 0"/><use xlink:href="#k" x="100.03474" y="19.58985"/><use xlink:href="#l" x="106.11455" y="19.58985"/><g fill="#FFF"><use xlink:href="#h" x="120.49555" y="19.58985"/><use xlink:href="#g" x="126.78207" y="19.58985"/><use xlink:href="#m" x="132.18094" y="19.58985"/><use xlink:href="#e" x="138.26074" y="19.58985"/><use xlink:href="#n" x="142.41933" y="19.58985"/><use xlink:href="#o" x="147.8182" y="19.58985"/></g></svg>