<svg xmlns="http://www.w3.org/2000/svg" xmlns:xlink="http://www.w3.org/1999/xlink" width="199.389" height="62.952" viewBox="0 0 199.389 62.952"><defs><path id="b" d="M9.14063 0v-6.45312c0-2.28125-1.64063-3.84375-3.6875-3.84375C4-10.29687 3-9.9375 1.9375-9.34375l.14063 1.48438c1.15625-.82813 2.28125-1.125 3.375-1.125 1.04687 0 1.9375.89062 1.9375 2.54687v.96875c-3.34375.04688-6.1875.98438-6.1875 2.9375C1.20313-1.5625 1.8125.25 3.75.25c.3125 0 2.42188-.04687 3.71875-1.04687V0Zm-1.75-2.95312c0 .42187 0 .98437-.75 1.40625-.65625.40625-1.5.4375-1.75.4375-1.0625 0-2.07813-.51563-2.07813-1.45313 0-1.57812 3.625-1.73437 4.57813-1.76562Zm0 0"/><path id="c" d="M9.96875-9.92187H8.29688L6.53125-5.26562C6.0625-4.04687 5.35938-2.23437 5.1875-1.1875h-.03125c-.125-.79687-.70312-2.34375-.9375-2.95312L2.0625-9.92187h-1.75L4.15625 0H6.125Zm0 0"/><path id="d" d="M9.71875 0v-6.65625c0-1.48437-.32812-3.51562-3.0625-3.51562-2.01562 0-3.10937 1.53125-3.23437 1.70312v-1.57812H1.8125V0h1.73438v-5.46875c0-1.48437.5625-3.32812 2.26562-3.32812 2.14063 0 2.17188 1.57812 2.17188 2.29687V0Zm0 0"/><path id="e" d="m9.26563-.89062-.125-1.5C8-1.5 6.79688-1.1875 5.65625-1.1875c-1.85937 0-3.10937-1.60937-3.10937-3.79687C2.54688-6.71875 3.375-8.875 5.75-8.875c1.15625 0 1.90625.1875 3.14063.98438l.26562-1.45313c-1.3125-.75-2.07812-.95312-3.4375-.95312-3.10937 0-4.92187 2.70312-4.92187 5.34375C.79688-2.1875 2.84375.25 5.625.25c1.21875 0 2.4375-.3125 3.64063-1.14062m0 0"/><path id="f" d="M9.25-4.89062c0-.76563-.01562-2.4375-.89062-3.78125-.92188-1.375-2.28125-1.625-3.09375-1.625-2.46875 0-4.48438 2.35937-4.48438 5.25C.78125-2.09375 2.92188.25 5.60938.25c1.40625 0 2.6875-.54687 3.54687-1.17187l-.125-1.45313C7.625-1.20312 6.14063-1.10937 5.625-1.10937c-1.78125 0-3.21875-1.59375-3.28125-3.78125ZM7.98438-6.125H2.45313C2.8125-7.8125 4-8.9375 5.26563-8.9375c1.17187 0 2.42187.76563 2.71875 2.8125m0 0"/><path id="g" d="M7.3125-8.67187v-1.5c-2 .03125-3.21875 1.125-3.92187 2.15625v-2.03125h-1.5625V0h1.6875v-4.78125c0-2.23437 1.59375-3.84375 3.79687-3.89062m0 0"/><path id="h" d="M9.70313 0v-15.5h-1.6875v6.5625c-1.17188-.98437-2.4375-1.23437-3.25-1.23437-2.21875 0-3.96875 2.32812-3.96875 5.21875C.79688-2.03125 2.53125.25 4.64063.25c.75 0 2.0625-.20312 3.3125-1.40625V0Zm-1.75-3.10937c0 .3125-.01563.71875-.73438 1.35937-.51562.45313-1.07812.64063-1.65625.64063-1.39062 0-3.01562-1.0625-3.01562-3.82813 0-2.95312 1.92187-3.85937 3.23437-3.85937 1.01563 0 1.6875.5 2.17188 1.21875Zm0 0"/><path id="i" d="M9.46875 0v-1.29687H6.6875v-13.85938h-.45312c-1.3125 1.375-3.17188 1.4375-4.25 1.48438v1.29687c.73437-.03125 1.8125-.07812 2.9375-.54687v11.625H2.125V0Zm0 0"/><path id="j" d="M10.21875-7.28125c0-1.76562-.09375-3.84375-1.03125-5.65625-.92187-1.67187-2.46875-2.21875-3.60937-2.21875-1.3125 0-2.875.60938-3.79688 2.59375C1.04688-10.92187.9375-9.07812.9375-7.28125c0 1.76563.09375 3.39063.76563 5.03125C2.59375-.10937 4.29688.48438 5.5625.48438c1.625 0 3.04688-.90625 3.75-2.45313.67188-1.45312.90625-2.92187.90625-5.3125m-1.75-.26562c0 1.46875 0 2.875-.40625 4.28125C7.48438-1.23437 6.29688-.875 5.57813-.875c-1.15625 0-2.0625-.84375-2.51563-2.45312-.35937-1.28125-.375-2.48438-.375-4.21875 0-1.40625 0-2.75.375-3.98438.125-.42187.6875-2.25 2.5-2.25 1.75 0 2.32813 1.6875 2.48438 2.09375.42187 1.25.42187 2.75.42187 4.14063m0 0"/><path id="k" d="M10.71875-4.98437c0-2.67188-1.40625-5.1875-3.54687-5.1875-1.34375 0-2.64063.46875-3.65625 1.34375v-1.09375h-1.6875v14.25h1.75v-5.35938C4.26563-.375 5.25.25 6.59375.25c2.17188 0 4.125-2.1875 4.125-5.23437m-1.73437 0c0 2.29687-1.59375 3.875-3.26563 3.875-.875 0-1.46875-.45313-1.92187-1.0625-.21875-.32813-.21875-.375-.21875-.78125V-7.4375c.53125-.78125 1.40625-1.29687 2.35937-1.29687 1.70313 0 3.04688 1.70312 3.04688 3.75m0 0"/><path id="l" d="M8.04688-2.85937c0-1.23438-.82813-1.98438-.875-2.0625-.875-.78125-1.46875-.90625-2.59375-1.10938-1.23438-.25-2.25-.46875-2.25-1.5625 0-1.39062 1.60937-1.39062 1.89062-1.39062.71875 0 1.90625.09375 3.17188.84375l.26562-1.4375C6.5-10.125 5.57813-10.29687 4.45313-10.29687c-.5625 0-3.71875 0-3.71875 2.92187 0 1.09375.65625 1.8125 1.20312 2.23438.70313.5 1.1875.57812 2.42188.82812.79687.15625 2.09375.42188 2.09375 1.60938 0 1.54687-1.76563 1.54687-2.09375 1.54687-1.8125 0-3.0625-.82812-3.46875-1.09375L.625-.73437C1.34375-.375 2.5625.25 4.375.25c.40625 0 1.64063 0 2.59375-.71875C7.65625-1 8.04688-1.90625 8.04688-2.85937m0 0"/><clipPath id="a"><path d="M0 .07031h198.78125v62.76172H0Zm0 0"/></clipPath></defs><g clip-path="url(#a)"><path fill="#FF6680" stroke="#F35" stroke-linecap="round" stroke-miterlimit="10" stroke-width=".39728" d="M4.16797.26953h6.96094c2.1914 0 5.22265 1.25781 6.77343 2.8086l1.00391 1c1.55078 1.55078 4.58203 2.80859 6.77344 2.80859h14.41015c2.19141 0 5.22657-1.25781 6.77735-2.8086l1-1C49.41797 1.52735 52.45312.26954 54.64453.26954h139.96875c2.19531 0 3.96875 1.77735 3.96875 3.96875v47.8125c0 2.1914-1.77344 3.96875-3.96875 3.96875H54.64453c-2.1914 0-5.22656 1.25781-6.77734 2.80469l-1 1.0039c-1.55078 1.55079-4.58594 2.8047-6.77735 2.8047H25.6797c-2.1914 0-5.22266-1.25391-6.77344-2.8047l-1.0039-1.0039c-1.55079-1.54688-4.58204-2.80469-6.77344-2.80469H4.16797c-2.1914 0-3.96875-1.77734-3.96875-3.96875V4.23828c0-2.1914 1.77734-3.96875 3.96875-3.96875Zm0 0"/></g><g fill="#FFF"><use xlink:href="#b" x="7.64757" y="35.9144"/><use xlink:href="#c" x="18.39669" y="35.9144"/><use xlink:href="#b" x="28.69887" y="35.9144"/><use xlink:href="#d" x="39.448" y="35.9144"/><use xlink:href="#e" x="51.00164" y="35.9144"/><use xlink:href="#f" x="60.92391" y="35.9144"/><use xlink:href="#g" x="70.84618" y="35.9144"/></g><g fill="#FFF"><use xlink:href="#h" x="85.93072" y="35.9144"/><use xlink:href="#f" x="97.48435" y="35.9144"/></g><path fill="#FFF" stroke="#F35" stroke-linecap="round" stroke-miterlimit="10" stroke-width=".89389" d="M133.83984 14.03516h4.0586c8 0 14.48437 6.48437 14.48437 14.48047 0 8-6.48438 14.48437-14.48438 14.48437h-8.12109c-8 0-14.48046-6.48438-14.48046-14.48437 0-7.9961 6.48046-14.48047 14.48046-14.48047Zm0 0"/><use xlink:href="#i" x="122.66386" y="35.9144"/><use xlink:href="#j" x="133.83759" y="35.9144"/><g fill="#FFF"><use xlink:href="#k" x="160.26988" y="35.9144"/><use xlink:href="#b" x="171.82351" y="35.9144"/><use xlink:href="#l" x="182.57264" y="35.9144"/></g></svg>