<svg xmlns="http://www.w3.org/2000/svg" xmlns:xlink="http://www.w3.org/1999/xlink" width="111.603pt" height="35.151pt" viewBox="0 0 111.603 35.151"><defs><path id="c" d="M4.96875 0v-3.51562c0-1.23438-.89062-2.09375-2-2.09375-.79687 0-1.34375.20312-1.90625.53125l.0625.79687c.64063-.45312 1.25-.60937 1.84375-.60937.5625 0 1.0625.48437 1.0625 1.39062v.51563c-1.82812.03125-3.375.54687-3.375 1.60937 0 .53125.32813 1.51563 1.39063 1.51563.17187 0 1.3125-.03126 2.01562-.57813V0Zm-.9375-1.60937c0 .23437 0 .54687-.42187.76562-.34375.21875-.8125.23438-.95313.23438-.57812 0-1.125-.28126-1.125-.78125 0-.85938 1.96875-.9375 2.5-.96875Zm0 0"/><path id="d" d="M1.89063 0v-8.4375H.98438V0Zm0 0"/><path id="e" d="M5.03125-2.65625c0-.42187-.01562-1.32812-.48437-2.0625-.5-.75-1.23438-.89062-1.67188-.89062C1.51563-5.60937.42188-4.3125.42188-2.75c0 1.60938 1.17187 2.89063 2.625 2.89063.76562 0 1.46875-.29688 1.9375-.64063l-.07813-.78125c-.76562.625-1.5625.67188-1.84375.67188-.96875 0-1.75-.85938-1.78125-2.04688Zm-.6875-.67187h-3c.1875-.92188.82813-1.53125 1.53125-1.53125.625 0 1.3125.40625 1.46875 1.53125m0 0"/><path id="f" d="M3.96875-4.71875v-.8125c-1.07812.01563-1.75.60938-2.125 1.17188v-1.10938H1V0h.90625v-2.59375c0-1.21875.875-2.09375 2.0625-2.125m0 0"/><path id="g" d="M4.96875 0v-3.51562c0-1.23438-.89062-2.09375-2-2.09375-.79687 0-1.34375.20312-1.90625.53125l.0625.79687c.64063-.45312 1.25-.60937 1.84375-.60937.5625 0 1.0625.48437 1.0625 1.39062v.51563c-1.82812.03125-3.375.54687-3.375 1.60937 0 .53125.32813 1.51563 1.39063 1.51563.17187 0 1.3125-.03126 2.01562-.57813V0Zm-.9375-1.60937c0 .23437 0 .54687-.42187.76562-.34375.21875-.8125.23438-.95313.23438-.57812 0-1.125-.28126-1.125-.78125 0-.85938 1.96875-.9375 2.5-.96875Zm-.26562-4.79688L2.15625-8.4375h-.95312l1.82812 2.03125Zm0 0"/><path id="h" d="m5.59375 0-2.4375-2.78125 2.23438-2.60937h-1l-1.625 2-1.6875-2h-1l2.28125 2.60937L0 0h1l1.76563-2.28125L4.57813 0Zm0 0"/><path id="i" d="M2.1875-4.39062v-1H1.17188v1ZM2.1875 0v-1.01562H1.17188V0Zm0 0"/><path id="j" d="M5.5625-3.96875c0-.95312-.0625-2.07812-.5625-3.0625-.5-.92187-1.34375-1.20312-1.96875-1.20312-.70312 0-1.5625.32812-2.0625 1.40625C.57813-5.9375.51563-4.9375.51563-3.96875S.5625-2.10937.92188-1.23437c.48437 1.17187 1.40625 1.5 2.10937 1.5.89063 0 1.65625-.5 2.03125-1.32813.375-.79687.5-1.59375.5-2.90625m-.95312-.14062c0 .79687 0 1.5625-.21875 2.32812-.3125 1.10938-.96875 1.3125-1.35938 1.3125-.625 0-1.125-.46875-1.35937-1.34375-.20313-.6875-.21876-1.34375-.21876-2.29687 0-.76563 0-1.5.21876-2.15625C1.73438-6.5 2.04688-7.5 3.03125-7.5c.9375 0 1.26563.92188 1.34375 1.14063.23438.6875.23438 1.5.23438 2.25m0 0"/><path id="k" d="M5.42188-5.39062h-.90625C2.92188-1.53125 2.90625-.96875 2.89063-.6875H2.875C2.8125-1.5 1.82813-3.76562 1.78125-3.875L1.125-5.39062H.17188L2.53125 0l-.4375 1.09375c-.3125.70313-.53125.70313-.70312.70313-.1875 0-.57813-.04688-.9375-.1875l.0625.78125c.28124.0625.60937.09375.875.09375.4375 0 .875-.14063 1.375-1.375Zm0 0"/><clipPath id="a"><path d="M1.1211 0H110v34.32031H1.1211Zm0 0"/></clipPath><clipPath id="b"><path d="M1.1211 0h108.97265v34.32031H1.12109Zm0 0"/></clipPath><clipPath id="l"><path d="M82 0h28.09375v31H82Zm0 0"/></clipPath></defs><g clip-path="url(#a)"><path fill="#4C97FF" d="M3.47656.19531h3.78516c1.19531 0 2.84375.6836 3.6875 1.52735l.54687.54687c.84375.83985 2.4922 1.52344 3.6875 1.52344h7.83985c1.1914 0 2.84375-.6836 3.6836-1.52344l.54687-.54687C28.09766.8789 29.75.1953 30.9414.1953h76.79687c1.19531 0 2.16016.96875 2.16016 2.16016v26.01562c0 1.19141-.96485 2.15625-2.16016 2.15625H30.94141c-1.19141 0-2.84375.6836-3.6875 1.52735l-.54688.54687c-.83984.84375-2.49219 1.52735-3.6836 1.52735H15.1836c-1.1953 0-2.84375-.6836-3.6875-1.52735l-.54687-.54687c-.84375-.84375-2.49219-1.52735-3.6875-1.52735H3.47656c-1.1914 0-2.16015-.96484-2.16015-2.15625V2.35547c0-1.1914.96875-2.16016 2.16015-2.16016m0 0"/></g><g clip-path="url(#b)"><path fill="none" stroke="#3373CC" stroke-linecap="round" stroke-miterlimit="10" stroke-width=".3891" d="M3.47656.19531h3.78516c1.19531 0 2.84375.6836 3.6875 1.52735l.54688.54687c.84375.83985 2.49219 1.52344 3.6875 1.52344h7.83985c1.1914 0 2.84375-.6836 3.68359-1.52344l.54688-.54687C28.09767.8789 29.75.1953 30.94142.1953h76.7969c1.19531 0 2.16016.96875 2.16016 2.16016V28.3711c0 1.1914-.96485 2.15625-2.16016 2.15625h-76.7969c-1.19141 0-2.84375.6836-3.6875 1.52735l-.54688.54687c-.83984.84375-2.49219 1.52735-3.6836 1.52735H15.1836c-1.19531 0-2.84375-.6836-3.6875-1.52735l-.54688-.54687c-.84375-.84375-2.49219-1.52735-3.6875-1.52735H3.47656c-1.1914 0-2.16015-.96484-2.16015-2.15625V2.35547c0-1.1914.96875-2.16016 2.16015-2.16016Zm0 0"/></g><g fill="#FFF"><use xlink:href="#c" x="5.36958" y="19.58985"/><use xlink:href="#d" x="11.21835" y="19.58985"/><use xlink:href="#d" x="14.1245" y="19.58985"/><use xlink:href="#e" x="17.03064" y="19.58985"/><use xlink:href="#f" x="22.42951" y="19.58985"/></g><use xlink:href="#g" x="30.63725" y="19.58985" fill="#FFF"/><g fill="#FFF"><use xlink:href="#h" x="40.53517" y="19.58985"/><use xlink:href="#i" x="46.14075" y="19.58985"/></g><path fill="#FFF" stroke="#3373CC" stroke-linecap="round" stroke-miterlimit="10" stroke-width=".48638" d="M63.04297 7.6836c4.35156 0 7.8789 3.53124 7.8789 7.8828 0 4.35157-3.52734 7.87891-7.8789 7.87891s-7.8789-3.52734-7.8789-7.8789c0-4.35157 3.52734-7.88282 7.8789-7.88282Zm0 0"/><use xlink:href="#j" x="60.00375" y="19.58985"/><g fill="#FFF"><use xlink:href="#k" x="75.2151" y="19.58985"/><use xlink:href="#i" x="80.82068" y="19.58985"/></g><path fill="#FFF" d="M97.72266 7.6836c4.35156 0 7.8789 3.53124 7.8789 7.8828 0 4.35157-3.52734 7.87891-7.8789 7.87891-4.35157 0-7.87891-3.52734-7.87891-7.8789 0-4.35157 3.52734-7.88282 7.8789-7.88282m0 0"/><g clip-path="url(#l)"><path fill="none" stroke="#3373CC" stroke-linecap="round" stroke-miterlimit="10" stroke-width=".48638" d="M97.72266 7.6836c4.35156 0 7.8789 3.53124 7.8789 7.8828 0 4.35157-3.52734 7.87891-7.8789 7.87891-4.35157 0-7.87891-3.52734-7.87891-7.8789 0-4.35157 3.52734-7.88282 7.8789-7.88282Zm0 0"/></g><use xlink:href="#j" x="94.68241" y="19.58985"/></svg>