<svg xmlns="http://www.w3.org/2000/svg" xmlns:xlink="http://www.w3.org/1999/xlink" width="160.455pt" height="36.588pt" viewBox="0 0 160.455 36.588"><defs><path id="c" d="M5.03125 0v-3.5625c0-1.25-.89062-2.10937-2.03125-2.10937-.79687 0-1.34375.1875-1.92187.53125l.0625.8125c.64062-.46875 1.26562-.625 1.85937-.625.57813 0 1.07813.5 1.07813 1.40625v.53125c-1.84375.03125-3.40625.54687-3.40625 1.625C.67188-.85937 1 .14063 2.0625.14063c.17188 0 1.32813-.03126 2.04688-.57813V0Zm-.95312-1.625c0 .23438 0 .54688-.42188.78125-.35937.21875-.82812.23438-.95312.23438-.59375 0-1.15625-.29688-1.15625-.8125 0-.85938 2-.9375 2.53125-.96875Zm0 0"/><path id="d" d="M1.92188 0v-8.54687H1V0Zm0 0"/><path id="e" d="M5.09375-2.70312c0-.40625-.01562-1.32813-.48437-2.07813-.51563-.76562-1.26563-.89062-1.70313-.89062-1.375 0-2.46875 1.29687-2.46875 2.89062 0 1.625 1.17188 2.92188 2.65625 2.92188.76563 0 1.46875-.29688 1.95313-.64063l-.07813-.8125c-.76562.64063-1.57812.70313-1.85937.70313-.98438 0-1.78125-.875-1.8125-2.09375ZM4.39063-3.375H1.35938c.1875-.9375.84375-1.54687 1.54687-1.54687.64063 0 1.32813.42187 1.48438 1.54687m0 0"/><path id="f" d="M4.03125-4.78125v-.82812c-1.09375.01562-1.78125.625-2.15625 1.1875v-1.125h-.85937V0h.92187v-2.64062c0-1.21875.875-2.10938 2.09375-2.14063m0 0"/><path id="g" d="M5.03125 0v-3.5625c0-1.25-.89062-2.10937-2.03125-2.10937-.79687 0-1.34375.1875-1.92187.53125l.0625.8125c.64062-.46875 1.26562-.625 1.85937-.625.57813 0 1.07813.5 1.07813 1.40625v.53125c-1.84375.03125-3.40625.54687-3.40625 1.625C.67188-.85937 1 .14063 2.0625.14063c.17188 0 1.32813-.03126 2.04688-.57813V0Zm-.95312-1.625c0 .23438 0 .54688-.42188.78125-.35937.21875-.82812.23438-.95312.23438-.59375 0-1.15625-.29688-1.15625-.8125 0-.85938 2-.9375 2.53125-.96875ZM3.8125-6.48437l-1.64062-2.0625h-.95313l1.84375 2.0625Zm0 0"/><path id="i" d="M5.90625-2.75c0-1.46875-.76562-2.85937-1.95312-2.85937-.73438 0-1.45313.26562-2.01563.75v-.60938h-.92187v7.85938h.95312V-.5625c.39063.35938.92188.70313 1.65625.70313 1.20313 0 2.28125-1.21875 2.28125-2.89063m-.95312 0c0 1.26563-.875 2.14063-1.79688 2.14063-.48437 0-.8125-.25-1.0625-.57813-.125-.1875-.125-.21875-.125-.4375v-2.46875c.29688-.4375.78125-.71875 1.3125-.71875.92188 0 1.67188.9375 1.67188 2.0625m0 0"/><path id="j" d="M5.78125-2.70312c0-1.65625-1.23437-2.96875-2.70312-2.96875C1.5625-5.67187.375-4.32812.375-2.70312S1.625.14063 3.0625.14063c1.48438 0 2.71875-1.25 2.71875-2.84375m-.96875-.125c0 1.45312-.82812 2.17187-1.75 2.17187-.84375 0-1.73437-.6875-1.73437-2.17187 0-1.5.9375-2.09375 1.73437-2.09375.85938 0 1.75.64062 1.75 2.09375m0 0"/><path id="k" d="M4.4375-1.57812c0-.67188-.45312-1.09375-.48437-1.125-.48438-.4375-.8125-.51563-1.42188-.625-.6875-.125-1.25-.25-1.25-.85938 0-.76562.89063-.76562 1.04688-.76562.39062 0 1.04687.04687 1.75.46875l.14062-.79688c-.64062-.29687-1.14062-.39062-1.76562-.39062-.3125 0-2.04688 0-2.04688 1.60937 0 .60938.35938 1 .67188 1.23438.375.26562.64062.3125 1.32812.45312.4375.07813 1.15625.23438 1.15625.89063 0 .84375-.98437.84375-1.15625.84375-1 0-1.6875-.45313-1.90625-.60938l-.15625.84375c.39063.20313 1.07813.54688 2.0625.54688.23438 0 .90625 0 1.4375-.40625.375-.28125.59375-.78125.59375-1.3125m0 0"/><path id="l" d="M1.92188 0v-5.46875H1V0Zm.09374-6.96875V-8.0625H.92188v1.09375Zm0 0"/><path id="m" d="m4.09375-.32812-.20312-.73438c-.3125.26563-.71875.40625-1.10938.40625-.45312 0-.625-.35937-.625-1.01562V-4.75h1.73438v-.71875H2.15625v-1.5625H1.3125v1.5625H.23438V-4.75h1.03125v3.28125c0 .75.17187 1.60938 1.03125 1.60938.85937 0 1.48437-.3125 1.79687-.46875m0 0"/><path id="n" d="M5.35938 0v-3.67187c0-.8125-.1875-1.9375-1.6875-1.9375-1.10938 0-1.71875.84375-1.78125.9375v-.875H1V0h.95313v-3.01562c0-.8125.3125-1.82813 1.25-1.82813 1.1875 0 1.1875.85938 1.1875 1.26563V0Zm0 0"/><path id="o" d="M5.09375-2.70312c0-.40625-.01562-1.32813-.48437-2.07813-.51563-.76562-1.26563-.89062-1.70313-.89062-1.375 0-2.46875 1.29687-2.46875 2.89062 0 1.625 1.17188 2.92188 2.65625 2.92188.76563 0 1.46875-.29688 1.95313-.64063l-.07813-.8125c-.76562.64063-1.57812.70313-1.85937.70313-.98438 0-1.78125-.875-1.8125-2.09375ZM4.39063-3.375H1.35938c.1875-.9375.84375-1.54687 1.54687-1.54687.64063 0 1.32813.42187 1.48438 1.54687m.07812-5.17187h-.95312L1.875-6.48437h.75Zm0 0"/><clipPath id="a"><path d="M.625 0h158.66797v36H.625Zm0 0"/></clipPath><clipPath id="b"><path d="M.625 0h158.66797v36.17969H.625Zm0 0"/></clipPath><clipPath id="h"><path d="M33 0h126.29297v33H33Zm0 0"/></clipPath></defs><g clip-path="url(#a)"><path fill="#4C97FF" d="M3.00781.19531h3.83594c1.20703 0 2.8789.69531 3.73438 1.54688l.55078.55469c.85547.85156 2.52734 1.54687 3.73437 1.54687h7.9414c1.20704 0 2.87891-.69531 3.73048-1.54687l.55468-.5547C27.94141.89064 29.61328.19532 30.82422.19532h126.08594c1.20703 0 2.1875.98047 2.1875 2.1875v27.76953c0 1.20704-.98047 2.1875-2.1875 2.1875H30.82422c-1.21094 0-2.88281.69141-3.73438 1.54688l-.55468.55078c-.85157.85547-2.52344 1.54688-3.73047 1.54688h-7.9414c-1.20704 0-2.87891-.69141-3.73438-1.54688l-.55078-.55078c-.85547-.85547-2.52735-1.54688-3.73438-1.54688H3.00781c-1.20703 0-2.1875-.98047-2.1875-2.1875V2.38281c0-1.20703.98047-2.1875 2.1875-2.1875m0 0"/></g><g clip-path="url(#b)"><path fill="none" stroke="#3373CC" stroke-linecap="round" stroke-miterlimit="10" stroke-width=".39406" d="M3.00781.19531h3.83594c1.20703 0 2.8789.69532 3.73438 1.54688l.55078.55469c.85547.85156 2.52734 1.54687 3.73437 1.54687h7.94141c1.20703 0 2.8789-.69531 3.73047-1.54687l.55469-.5547C27.9414.89064 29.61328.19532 30.82422.19532h126.08596c1.20703 0 2.1875.98047 2.1875 2.1875v27.76954c0 1.20703-.98047 2.1875-2.1875 2.1875H30.82422c-1.21094 0-2.88281.6914-3.73437 1.54687l-.5547.55078c-.85155.85547-2.52343 1.54688-3.73046 1.54688h-7.9414c-1.20704 0-2.87891-.6914-3.73438-1.54688l-.55078-.55078c-.85547-.85547-2.52735-1.54687-3.73438-1.54687H3.00781c-1.20703 0-2.1875-.98047-2.1875-2.1875V2.3828c0-1.20703.98047-2.1875 2.1875-2.1875Zm0 0"/></g><g fill="#FFF"><use xlink:href="#c" x="4.92544" y="20.93526"/><use xlink:href="#d" x="10.84878" y="20.93526"/><use xlink:href="#d" x="13.79198" y="20.93526"/><use xlink:href="#e" x="16.73517" y="20.93526"/><use xlink:href="#f" x="22.20287" y="20.93526"/></g><use xlink:href="#g" x="30.51524" y="20.93526" fill="#FFF"/><path fill="#4C97FF" d="M152.89844 7.78125H42.6328c-1.01953 0-1.84765.82813-1.84765 1.84766v14.45703c0 1.02343.82812 1.84765 1.84765 1.84765h110.26563c1.01953 0 1.84765-.82421 1.84765-1.84765V9.6289c0-1.01953-.82812-1.84766-1.84765-1.84766m0 0"/><g clip-path="url(#h)"><path fill="none" stroke="#3373CC" stroke-linecap="round" stroke-miterlimit="10" stroke-width=".49258" d="M152.89843 7.78125H42.63281c-1.01953 0-1.84765.82813-1.84765 1.84766v14.45703c0 1.02343.82812 1.84765 1.84765 1.84765h110.26562c1.01953 0 1.84766-.82422 1.84766-1.84765V9.6289c0-1.01953-.82813-1.84766-1.84766-1.84766Zm0 0"/></g><use xlink:href="#i" x="47.35392" y="20.93526" fill="#FFF"/><g fill="#FFF"><use xlink:href="#j" x="54.0654" y="20.93526"/><use xlink:href="#k" x="60.22271" y="20.93526"/><use xlink:href="#l" x="64.93922" y="20.93526"/><use xlink:href="#m" x="67.88241" y="20.93526"/><use xlink:href="#l" x="72.328" y="20.93526"/><use xlink:href="#j" x="75.27119" y="20.93526"/><use xlink:href="#n" x="81.42851" y="20.93526"/></g><g fill="#FFF"><use xlink:href="#c" x="91.89594" y="20.93526"/><use xlink:href="#d" x="97.81928" y="20.93526"/><use xlink:href="#o" x="100.76248" y="20.93526"/><use xlink:href="#c" x="106.23017" y="20.93526"/><use xlink:href="#m" x="112.15351" y="20.93526"/><use xlink:href="#j" x="116.59909" y="20.93526"/><use xlink:href="#l" x="122.75641" y="20.93526"/><use xlink:href="#f" x="125.69961" y="20.93526"/><use xlink:href="#e" x="129.91121" y="20.93526"/></g><path fill="#FFF" stroke="#4C97FF" stroke-linecap="round" stroke-miterlimit="10" stroke-width=".49258" d="M145.67969 15.46875h4.5078c1.01954 0 1.32032.63281.66407 1.41797l-1.73437 2.08203c-.65235.78516-1.71094.78516-2.36328 0l-1.73828-2.08203c-.65235-.78516-.35547-1.41797.66406-1.41797Zm0 0"/></svg>