<svg xmlns="http://www.w3.org/2000/svg" xmlns:xlink="http://www.w3.org/1999/xlink" width="137pt" height="56.002pt" viewBox="0 0 137 56.002"><defs><path id="c" d="M8 0v-5.65625c0-2-1.42187-3.375-3.21875-3.375-1.28125 0-2.15625.3125-3.07812.84375l.125 1.29688C2.84375-7.60937 3.8125-7.875 4.78125-7.875c.92188 0 1.70313.78125 1.70313 2.23438v.84375C3.54688-4.75 1.0625-3.9375 1.0625-2.21875c0 .84375.51563 2.4375 2.23438 2.4375.26562 0 2.10937-.04687 3.25-.92187V0ZM6.48438-2.57812c0 .35937 0 .85937-.67188 1.23437C5.25-1 4.5-.98437 4.28125-.98437c-.9375 0-1.8125-.4375-1.8125-1.26563 0-1.375 3.17188-1.51562 4.01563-1.54687Zm0 0"/><path id="d" d="M3.60938 1.15625V-8.6875H2.14063V1.34375c0 1.3125-1.125 1.42188-1.46875 1.42188q-.82031 0-1.45313-.60938l-.40625 1.1875c.9375.54688 1.82813.67188 2.34375.67188 1.23438 0 2.45313-1.01563 2.45313-2.85938m0-12.23437v-1.75h-1.75v1.75Zm0 0"/><path id="e" d="M9.1875-4.3125c0-2.625-1.96875-4.71875-4.29687-4.71875C2.48438-9.03125.59375-6.875.59375-4.3125.59375-1.71875 2.57813.21875 4.875.21875c2.34375 0 4.3125-1.98437 4.3125-4.53125M7.65625-4.5c0 2.3125-1.32812 3.46875-2.78125 3.46875-1.34375 0-2.76562-1.10937-2.76562-3.46875 0-2.375 1.5-3.32812 2.76562-3.32812 1.375 0 2.78125 1.01562 2.78125 3.32812m0 0"/><path id="f" d="M8.51563 0v-8.6875H6.98438v5.67188c0 1.46875-1.09375 2.15625-2.34375 2.15625-1.39063 0-1.53125-.51563-1.53125-1.35938V-8.6875H1.57813v6.54688c0 1.42187.45312 2.35937 2.07812 2.35937 1.04688 0 2.4375-.3125 3.39063-1.15625V0Zm0 0"/><path id="g" d="M6.5-.53125 6.1875-1.6875c-.51562.42188-1.14062.65625-1.76562.65625-.71875 0-1-.59375-1-1.625V-7.5625H6.1875v-1.125H3.42188v-2.48437H2.07813v2.48437H.375v1.125h1.64063v5.23438c0 1.17187.28125 2.54687 1.625 2.54687 1.375 0 2.375-.5 2.85937-.75m0 0"/><path id="h" d="M8.10938-4.28125c0-.67187-.03125-2.14062-.78125-3.3125-.8125-1.21875-2-1.4375-2.70313-1.4375-2.17187 0-3.9375 2.07813-3.9375 4.60938 0 2.57812 1.875 4.64062 4.23438 4.64062 1.21875 0 2.34375-.46875 3.10937-1.01562l-.125-1.28125C6.67188-1.0625 5.39063-.98437 4.9375-.98437c-1.5625 0-2.82812-1.39063-2.875-3.29688Zm-1.125-1.07812H2.15625c.3125-1.5 1.34375-2.46875 2.46875-2.46875 1.01563 0 2.10938.65625 2.35938 2.46875m0 0"/><path id="i" d="M6.40625-7.59375v-1.3125c-1.75.01563-2.82812.98438-3.4375 1.875V-8.8125H1.60938V0h1.46875v-4.1875c0-1.95312 1.40625-3.375 3.32812-3.40625m0 0"/><path id="j" d="M8.79688-3.96875c0-2.45312-1.6875-4.39062-3.70313-4.39062-.78125 0-1.53125.29687-2.09375.79687v-4.03125h5.14063v-1.25h-6.5625V-5.625H2.875c.32813-.78125 1.0625-1.54687 2.20313-1.54687.90625 0 1.96875.8125 1.96875 3.15625 0 3.25-2.39063 3.25-2.5625 3.25-1.3125 0-2.5-.76563-3.07813-1.8125L.76563-1.48437C1.5625-.375 2.92188.4375 4.5.4375c2.32813 0 4.29688-1.9375 4.29688-4.40625m0 0"/><path id="k" d="M8 0v-5.65625c0-2-1.42187-3.375-3.21875-3.375-1.28125 0-2.15625.3125-3.07812.84375l.125 1.29688C2.84375-7.60937 3.8125-7.875 4.78125-7.875c.92188 0 1.70313.78125 1.70313 2.23438v.84375C3.54688-4.75 1.0625-3.9375 1.0625-2.21875c0 .84375.51563 2.4375 2.23438 2.4375.26562 0 2.10937-.04687 3.25-.92187V0ZM6.48438-2.57812c0 .35937 0 .85937-.67188 1.23437C5.25-1 4.5-.98437 4.28125-.98437c-.9375 0-1.8125-.4375-1.8125-1.26563 0-1.375 3.17188-1.51562 4.01563-1.54687ZM6.0625-10.3125l-2.59375-3.28125H1.9375L4.875-10.3125Zm0 0"/><path id="l" d="M9 0 5.09375-4.48437 8.67188-8.6875H7.0625l-2.625 3.21875L1.75-8.6875H.125l3.67188 4.20313L0 0h1.60938L4.4375-3.6875 7.375 0Zm0 0"/><clipPath id="a"><path d="M1.19922 0h134.60156v55H1.19922Zm0 0"/></clipPath><clipPath id="b"><path d="M1.19922 0h134.60156v55.01953H1.19922Zm0 0"/></clipPath></defs><g clip-path="url(#a)"><path fill="#4C97FF" d="M4.8711.19531h6.09765c1.92188 0 4.57813 1.10157 5.9336 2.45703l.8789.87891c1.35938 1.35938 4.01563 2.46094 5.9375 2.46094h12.6211c1.92187 0 4.57812-1.10156 5.9375-2.46094l.875-.8789C44.51171 1.29686 47.16796.1953 49.08984.1953h83.03906c1.92187 0 3.47656 1.5586 3.47656 3.47657v41.8828c0 1.92188-1.55469 3.47657-3.47656 3.47657H49.08984c-1.92187 0-4.57812 1.10156-5.9375 2.45703l-.875.8789c-1.35937 1.35938-4.01562 2.45704-5.9375 2.45704H23.71875c-1.92187 0-4.57812-1.09766-5.9375-2.45703l-.8789-.8789c-1.35547-1.35548-4.01172-2.45704-5.9336-2.45704H4.87109c-1.91796 0-3.47656-1.55469-3.47656-3.47656V3.67188C1.39453 1.7539 2.95313.1953 4.8711.1953m0 0"/></g><g clip-path="url(#b)"><path fill="none" stroke="#3373CC" stroke-linecap="round" stroke-miterlimit="10" stroke-width=".39152" d="M4.8711.19531h6.09765c1.92187 0 4.57812 1.10156 5.9336 2.45703l.8789.87891c1.35937 1.35937 4.01562 2.46094 5.9375 2.46094h12.62109c1.92187 0 4.57812-1.10157 5.9375-2.46094l.875-.8789C44.5117 1.29686 47.16795.1953 49.08983.1953h83.03904c1.92187 0 3.47656 1.5586 3.47656 3.47656v41.8828c0 1.92188-1.55469 3.47657-3.47656 3.47657H49.08983c-1.92187 0-4.57812 1.10156-5.9375 2.45703l-.875.8789c-1.35937 1.35938-4.01562 2.45704-5.9375 2.45704H23.71876c-1.92188 0-4.57813-1.09766-5.9375-2.45703l-.8789-.87891c-1.35548-1.35547-4.01173-2.45703-5.9336-2.45703H4.87109c-1.91796 0-3.47656-1.55469-3.47656-3.47656V3.67188C1.39453 1.7539 2.95313.1953 4.8711.1953Zm0 0"/></g><g fill="#FFF"><use xlink:href="#c" x="7.92057" y="31.42007"/><use xlink:href="#d" x="17.33683" y="31.42007"/><use xlink:href="#e" x="22.56373" y="31.42007"/><use xlink:href="#f" x="32.35194" y="31.42007"/><use xlink:href="#g" x="42.47294" y="31.42007"/><use xlink:href="#h" x="49.54003" y="31.42007"/><use xlink:href="#i" x="58.23195" y="31.42007"/></g><path fill="#FFF" stroke="#3373CC" stroke-linecap="round" stroke-miterlimit="10" stroke-width=".78304" d="M84.52344 12.25391c7.0078 0 12.68359 5.67969 12.68359 12.6875 0 7.0039-5.67578 12.68359-12.6836 12.68359-7.0078 0-12.6875-5.67969-12.6875-12.6836 0-7.0078 5.6797-12.68749 12.6875-12.68749Zm0 0"/><use xlink:href="#j" x="79.62868" y="31.42007"/><use xlink:href="#k" x="104.12022" y="31.42007" fill="#FFF"/><use xlink:href="#l" x="120.05542" y="31.42007" fill="#FFF"/></svg>