<svg xmlns="http://www.w3.org/2000/svg" xmlns:xlink="http://www.w3.org/1999/xlink" width="288.501pt" height="65.539pt" viewBox="0 0 288.501 65.539"><defs><path id="c" d="M9.10938 0v-6.4375c0-2.26562-1.625-3.82812-3.67188-3.82812-1.45312 0-2.45312.35937-3.5.95312l.14063 1.46875c1.15625-.8125 2.26562-1.10937 3.35937-1.10937 1.04688 0 1.9375.89062 1.9375 2.54687v.95313c-3.34375.04687-6.17187.98437-6.17187 2.9375C1.20313-1.5625 1.79688.25 3.73438.25c.3125 0 2.40625-.04687 3.70312-1.04687V0ZM7.375-2.9375c0 .42188 0 .98438-.76562 1.40625-.64063.39063-1.48438.42188-1.73438.42188-1.0625 0-2.0625-.51563-2.0625-1.45313 0-1.5625 3.59375-1.71875 4.5625-1.75Zm0 0"/><path id="d" d="M3.46875 0v-15.45312H1.79688V0Zm0 0"/><path id="e" d="M9.21875-4.875c0-.76562-.01562-2.42187-.89062-3.76562-.90625-1.375-2.26563-1.625-3.07813-1.625-2.46875 0-4.46875 2.35937-4.46875 5.23437C.78125-2.09375 2.92188.25 5.59375.25 6.98438.25 8.26563-.29687 9.125-.90625L9-2.35937c-1.40625 1.15625-2.875 1.25-3.39062 1.25-1.78125 0-3.20313-1.57813-3.26563-3.76563ZM7.95313-6.09375h-5.5C2.8125-7.79687 3.98438-8.90625 5.25-8.90625c1.15625 0 2.40625.75 2.70313 2.8125m0 0"/><path id="f" d="M7.28125-8.64062V-10.125C5.29688-10.10937 4.07813-9.01562 3.39063-8v-2.01562h-1.5625V0H3.5v-4.76562c0-2.21875 1.59375-3.82813 3.78125-3.875m0 0"/><path id="g" d="M9.10938 0v-6.4375c0-2.26562-1.625-3.82812-3.67188-3.82812-1.45312 0-2.45312.35937-3.5.95312l.14063 1.46875c1.15625-.8125 2.26562-1.10937 3.35937-1.10937 1.04688 0 1.9375.89062 1.9375 2.54687v.95313c-3.34375.04687-6.17187.98437-6.17187 2.9375C1.20313-1.5625 1.79688.25 3.73438.25c.3125 0 2.40625-.04687 3.70312-1.04687V0ZM7.375-2.9375c0 .42188 0 .98438-.76562 1.40625-.64063.39063-1.48438.42188-1.73438.42188-1.0625 0-2.0625-.51563-2.0625-1.45313 0-1.5625 3.59375-1.71875 4.5625-1.75Zm-.46875-8.79687L3.9375-15.45312H2.20313l3.34375 3.71875Zm0 0"/><path id="i" d="M10.6875-4.96875c0-2.67187-1.40625-5.15625-3.54687-5.15625-1.32813 0-2.625.46875-3.64063 1.32813v-1.09375H1.82813V4.3125H3.5625v-5.34375C4.25-.375 5.23438.25 6.5625.25c2.17188 0 4.125-2.1875 4.125-5.21875m-1.73437 0c0 2.29688-1.57813 3.85938-3.25 3.85938-.875 0-1.46875-.45313-1.92188-1.04688-.21875-.34375-.21875-.375-.21875-.78125v-4.48437c.53125-.76563 1.40625-1.28125 2.35938-1.28125 1.6875 0 3.03125 1.6875 3.03125 3.73437m0 0"/><path id="j" d="M10.4375-4.90625c0-2.96875-2.21875-5.35937-4.875-5.35937-2.73437 0-4.89062 2.45312-4.89062 5.35937C.67188-1.95312 2.9375.25 5.54688.25 8.21875.25 10.4375-2 10.4375-4.90625M8.70313-5.125c0 2.625-1.51563 3.9375-3.15625 3.9375-1.53125 0-3.14063-1.23437-3.14063-3.9375 0-2.6875 1.6875-3.78125 3.14063-3.78125 1.5625 0 3.15625 1.15625 3.15625 3.78125m0 0"/><path id="k" d="M8.01563-2.84375c0-1.23437-.82813-1.98437-.875-2.0625-.85938-.76562-1.46875-.90625-2.57813-1.10937-1.21875-.23438-2.25-.46875-2.25-1.5625 0-1.375 1.60938-1.375 1.89063-1.375.71875 0 1.89062.09375 3.17187.84375l.26563-1.4375c-1.15625-.54688-2.07813-.71875-3.20313-.71875-.5625 0-3.70312 0-3.70312 2.92187C.73438-6.25 1.375-5.54687 1.9375-5.125c.6875.5 1.1875.57813 2.40625.82813.79688.15625 2.09375.42187 2.09375 1.60937 0 1.53125-1.76562 1.53125-2.09375 1.53125-1.8125 0-3.04687-.82812-3.45312-1.09375L.625-.73437C1.34375-.375 2.5625.25 4.35938.25c.40625 0 1.625 0 2.59375-.71875.6875-.53125 1.0625-1.42187 1.0625-2.375m0 0"/><path id="l" d="M3.46875 0v-9.89062H1.79688V0Zm.1875-12.60937v-1.96875H1.67188v1.96875Zm0 0"/><path id="m" d="m7.39063-.59375-.35938-1.32812c-.57812.46875-1.28125.73437-2 .73437-.82812 0-1.14062-.65625-1.14062-1.84375v-5.5625h3.14062v-1.29687H3.89063v-2.82813H2.35938v2.82813H.42188v1.29687h1.875v5.9375C2.29688-1.3125 2.60938.25 4.14063.25c1.5625 0 2.6875-.5625 3.25-.84375m0 0"/><path id="n" d="M9.6875 0v-6.64062c0-1.46875-.32812-3.48438-3.04687-3.48438-2.01563 0-3.09375 1.51563-3.23438 1.6875v-1.57812H1.79688V0h1.75v-5.45312c0-1.46875.54687-3.3125 2.25-3.3125 2.125 0 2.15625 1.57812 2.15625 2.28125V0Zm0 0"/><path id="o" d="M9.21875-4.875c0-.76562-.01562-2.42187-.89062-3.76562-.90625-1.375-2.26563-1.625-3.07813-1.625-2.46875 0-4.46875 2.35937-4.46875 5.23437C.78125-2.09375 2.92188.25 5.59375.25 6.98438.25 8.26563-.29687 9.125-.90625L9-2.35937c-1.40625 1.15625-2.875 1.25-3.39062 1.25-1.78125 0-3.20313-1.57813-3.26563-3.76563ZM7.95313-6.09375h-5.5C2.8125-7.79687 3.98438-8.90625 5.25-8.90625c1.15625 0 2.40625.75 2.70313 2.8125m.125-9.35937H6.34375l-2.95312 3.71875H4.75Zm0 0"/><clipPath id="a"><path d="M.76172 0h286.48437v65H.76172Zm0 0"/></clipPath><clipPath id="b"><path d="M.76172 0h286.48437v65.08203H.76172Zm0 0"/></clipPath><clipPath id="h"><path d="M60 1h227.2461v59H60Zm0 0"/></clipPath></defs><g clip-path="url(#a)"><path fill="#4C97FF" d="M4.91016.19922h6.93359c2.1836 0 5.20313 1.25 6.75 2.79297l.9961 1c1.54296 1.54297 4.5664 2.79297 6.75 2.79297H40.6914c2.18359 0 5.20703-1.25 6.75-2.79297l.99609-1c1.54688-1.54297 4.5664-2.79297 6.75-2.79297h227.91016c2.18359 0 3.95312 1.76953 3.95312 3.95312v50.19141c0 2.17969-1.76953 3.95313-3.95312 3.95313H55.1875c-2.1836 0-5.20312 1.25-6.75 2.79296l-.9961 1c-1.54296 1.54297-4.5664 2.79297-6.75 2.79297H26.33985c-2.18359 0-5.20703-1.25-6.75-2.79297l-.99609-1c-1.54687-1.54297-4.5664-2.79297-6.75-2.79297h-6.9336c-2.18359 0-3.95312-1.77343-3.95312-3.95312V4.15235c0-2.1836 1.76953-3.95313 3.95313-3.95313m0 0"/></g><g clip-path="url(#b)"><path fill="none" stroke="#3373CC" stroke-linecap="round" stroke-miterlimit="10" stroke-width=".39571" d="M4.91016.19922h6.93359c2.1836 0 5.20312 1.25 6.75 2.79297l.9961 1c1.54296 1.54296 4.5664 2.79297 6.75 2.79297H40.6914c2.1836 0 5.20703-1.25 6.75-2.79297l.9961-1c1.54687-1.54297 4.5664-2.79297 6.75-2.79297h227.9101c2.1836 0 3.95313 1.76953 3.95313 3.95312v50.1914c0 2.17969-1.76953 3.95313-3.95313 3.95313H55.1875c-2.1836 0-5.20312 1.25-6.75 2.79296l-.9961 1c-1.54296 1.54297-4.5664 2.79297-6.74999 2.79297H26.33984c-2.1836 0-5.20703-1.25-6.75-2.79297l-.9961-1c-1.54687-1.54296-4.5664-2.79296-6.75-2.79296H4.91017c-2.1836 0-3.95313-1.77344-3.95313-3.95313V4.15234c0-2.18359 1.76953-3.95312 3.95313-3.95312Zm0 0"/></g><g fill="#FFF"><use xlink:href="#c" x="8.37723" y="37.68195"/><use xlink:href="#d" x="19.08399" y="37.68195"/><use xlink:href="#d" x="24.40397" y="37.68195"/><use xlink:href="#e" x="29.72396" y="37.68195"/><use xlink:href="#f" x="39.60712" y="37.68195"/></g><use xlink:href="#g" x="54.6322" y="37.68195" fill="#FFF"/><path fill="#4C97FF" d="M275.84766 13.91016H76.53516c-1.84375 0-3.33985 1.49218-3.33985 3.33593v26.13282c0 1.84375 1.4961 3.33984 3.33985 3.33984h199.3125c1.84375 0 3.33593-1.4961 3.33593-3.33984V17.24609c0-1.84375-1.49218-3.33593-3.33593-3.33593m0 0"/><g clip-path="url(#h)"><path fill="none" stroke="#3373CC" stroke-linecap="round" stroke-miterlimit="10" stroke-width=".89036" d="M275.84765 13.91016H76.53515c-1.84374 0-3.33984 1.49219-3.33984 3.33593v26.13282c0 1.84375 1.4961 3.33984 3.33985 3.33984h199.31249c1.84375 0 3.33593-1.4961 3.33593-3.33984V17.24609c0-1.84374-1.49218-3.33593-3.33593-3.33593Zm0 0"/></g><use xlink:href="#i" x="85.06903" y="37.68195" fill="#FFF"/><g fill="#FFF"><use xlink:href="#j" x="97.20039" y="37.68195"/><use xlink:href="#k" x="108.33007" y="37.68195"/><use xlink:href="#l" x="116.85541" y="37.68195"/><use xlink:href="#m" x="122.1754" y="37.68195"/><use xlink:href="#l" x="130.21103" y="37.68195"/><use xlink:href="#j" x="135.53102" y="37.68195"/><use xlink:href="#n" x="146.6607" y="37.68195"/></g><g fill="#FFF"><use xlink:href="#c" x="165.58117" y="37.68195"/><use xlink:href="#d" x="176.28792" y="37.68195"/><use xlink:href="#o" x="181.60791" y="37.68195"/><use xlink:href="#c" x="191.49107" y="37.68195"/><use xlink:href="#m" x="202.19783" y="37.68195"/><use xlink:href="#j" x="210.23346" y="37.68195"/><use xlink:href="#l" x="221.36314" y="37.68195"/><use xlink:href="#f" x="226.68313" y="37.68195"/><use xlink:href="#e" x="234.29584" y="37.68195"/></g><path fill="#FFF" stroke="#4C97FF" stroke-linecap="round" stroke-miterlimit="10" stroke-width=".89036" d="M262.80078 27.80078h8.14844c1.84375 0 2.3789 1.14844 1.19922 2.5625l-3.13672 3.76563c-1.17969 1.41796-3.09375 1.41796-4.27344 0l-3.14062-3.76563c-1.1797-1.41406-.64063-2.5625 1.20312-2.5625Zm0 0"/></svg>