<svg xmlns="http://www.w3.org/2000/svg" xmlns:xlink="http://www.w3.org/1999/xlink" width="154.075" height="62.952" viewBox="0 0 154.075 62.952"><defs><path id="c" d="M9.10938 0v-6.4375c0-2.28125-1.625-3.82812-3.67188-3.82812-1.45312 0-2.45312.34375-3.5.95312l.14063 1.46875c1.15625-.82812 2.26562-1.10937 3.35937-1.10937 1.04688 0 1.9375.89062 1.9375 2.53125v.96875c-3.34375.03125-6.17187.96875-6.17187 2.9375C1.20313-1.5625 1.8125.25 3.75.25c.3125 0 2.40625-.04687 3.6875-1.04687V0ZM7.375-2.9375c0 .42188 0 .98438-.75 1.40625-.65625.39063-1.5.42188-1.75.42188-1.0625 0-2.0625-.51563-2.0625-1.45313 0-1.5625 3.60938-1.71875 4.5625-1.76562Zm0 0"/><path id="d" d="M4.09375 1.3125V-9.89062H2.42188V1.53125c0 1.5-1.26563 1.60938-1.67188 1.60938-.60937 0-1.15625-.21875-1.64062-.6875l-.46875 1.35937c1.0625.625 2.09375.75 2.67187.75 1.40625 0 2.78125-1.15625 2.78125-3.25m0-13.92187v-1.98438H2.10938v1.98438Zm0 0"/><path id="e" d="M10.45313-4.90625c0-2.98437-2.23438-5.35937-4.89063-5.35937-2.73437 0-4.89062 2.4375-4.89062 5.35937C.67188-1.95312 2.9375.25 5.54688.25c2.67187 0 4.90625-2.25 4.90625-5.15625M8.71875-5.125c0 2.625-1.51562 3.9375-3.17187 3.9375-1.53125 0-3.14063-1.23437-3.14063-3.9375s1.6875-3.78125 3.14063-3.78125c1.5625 0 3.17187 1.15625 3.17187 3.78125m0 0"/><path id="f" d="M9.6875 0v-9.89062H7.95313v6.45312c0 1.67188-1.25 2.45313-2.67188 2.45313-1.57812 0-1.73437-.57813-1.73437-1.53125v-7.375H1.8125v7.46875C1.8125-.82812 2.3125.25 4.17188.25c1.17187 0 2.75-.35937 3.84375-1.3125V0Zm0 0"/><path id="g" d="m7.39063-.60937-.34375-1.3125c-.57813.46875-1.29688.73437-2.01563.73437-.8125 0-1.125-.65625-1.125-1.84375v-5.5625h3.14063v-1.29687H3.90625v-2.82813H2.35938v2.82813H.42188v1.29687h1.875v5.9375C2.29688-1.3125 2.60938.25 4.14063.25c1.5625 0 2.70312-.5625 3.25-.85937m0 0"/><path id="h" d="M9.21875-4.875c0-.76562-.01562-2.4375-.89062-3.76562-.90625-1.39063-2.26563-1.625-3.0625-1.625-2.48438 0-4.48438 2.35937-4.48438 5.23437C.78125-2.09375 2.92188.25 5.59375.25 7 .25 8.26563-.29687 9.14063-.90625L9-2.35937c-1.40625 1.15625-2.875 1.25-3.39062 1.25-1.78125 0-3.20313-1.59375-3.26563-3.76563ZM7.95313-6.10937h-5.5c.35937-1.6875 1.53125-2.79688 2.8125-2.79688 1.15625 0 2.40625.75 2.6875 2.79688m0 0"/><path id="i" d="M7.28125-8.64062v-1.5C5.29688-10.10937 4.07813-9.03125 3.39063-8v-2.03125h-1.5625V0H3.5v-4.76562C3.5-7 5.10938-8.59375 7.28125-8.64062m0 0"/><path id="j" d="M10-4.51562c0-2.79688-1.90625-5-4.20312-5-.89063 0-1.73438.32812-2.39063.92187v-4.59375h5.85938v-1.42187H1.8125v8.21875h1.46875c.375-.89063 1.20313-1.76563 2.48438-1.76563 1.04687 0 2.25.92188 2.25 3.59375 0 3.6875-2.71875 3.6875-2.90625 3.6875-1.5 0-2.85938-.85937-3.5-2.0625L.875-1.6875C1.78125-.42187 3.3125.48438 5.125.48438c2.65625 0 4.875-2.20313 4.875-5m0 0"/><path id="k" d="M9.10938 0v-6.4375c0-2.28125-1.625-3.82812-3.67188-3.82812-1.45312 0-2.45312.34375-3.5.95312l.14063 1.46875c1.15625-.82812 2.26562-1.10937 3.35937-1.10937 1.04688 0 1.9375.89062 1.9375 2.53125v.96875c-3.34375.03125-6.17187.96875-6.17187 2.9375C1.20313-1.5625 1.8125.25 3.75.25c.3125 0 2.40625-.04687 3.6875-1.04687V0ZM7.375-2.9375c0 .42188 0 .98438-.75 1.40625-.65625.39063-1.5.42188-1.75.42188-1.0625 0-2.0625-.51563-2.0625-1.45313 0-1.5625 3.60938-1.71875 4.5625-1.76562Zm-.46875-8.79687L3.9375-15.46875H2.20313l3.34375 3.73438Zm0 0"/><path id="l" d="M10.25 0 5.79688-5.10937 9.875-9.89062H8.04688L5.0625-6.21875 1.98438-9.89062H.14063l4.1875 4.78125L0 0h1.82813L5.0625-4.1875 8.40625 0Zm0 0"/><clipPath id="a"><path d="M0 .16406h153V62.7422H0Zm0 0"/></clipPath><clipPath id="b"><path d="M0 .16406h153.15625V62.7422H0Zm0 0"/></clipPath></defs><g clip-path="url(#a)"><path fill="#FF6680" d="M4.15625.36328h6.9375c2.1875 0 5.21094 1.25 6.75781 2.79688l1 1c1.54297 1.54296 4.57032 2.79687 6.7539 2.79687h14.3672c2.1875 0 5.21093-1.2539 6.7578-2.79687l.9961-1C49.27344 1.61328 52.29688.36328 54.48438.36328h94.51953c2.18359 0 3.95703 1.76953 3.95703 3.95703V51.9922c0 2.1836-1.77344 3.95703-3.95703 3.95703H54.48438c-2.1875 0-5.21094 1.25-6.75782 2.79687l-.9961 1c-1.54687 1.54297-4.5703 2.79688-6.7578 2.79688h-14.3672c-2.18359 0-5.21093-1.2539-6.7539-2.79688l-1-1c-1.54687-1.54687-4.57031-2.79687-6.75781-2.79687h-6.9375c-2.1875 0-3.95703-1.77344-3.95703-3.95703V4.3203c0-2.1875 1.76953-3.95703 3.95703-3.95703m0 0"/></g><g clip-path="url(#b)"><path fill="none" stroke="#F35" stroke-linecap="round" stroke-miterlimit="10" stroke-width=".39612" d="M4.15625.36328h6.9375c2.1875 0 5.21093 1.25 6.7578 2.79688l1 1c1.54298 1.54296 4.57032 2.79687 6.75391 2.79687h14.36719c2.1875 0 5.21093-1.2539 6.7578-2.79687l.9961-1C49.27342 1.61328 52.29686.36328 54.48436.36328h94.5195c2.1836 0 3.95704 1.76953 3.95704 3.95703v47.67186c0 2.1836-1.77344 3.95703-3.95703 3.95703h-94.5195c-2.1875 0-5.21095 1.25-6.75782 2.79688l-.9961 1c-1.54687 1.54297-4.5703 2.79687-6.7578 2.79687H25.60546c-2.1836 0-5.21093-1.2539-6.7539-2.79687l-1-1c-1.54688-1.54688-4.57031-2.79688-6.75781-2.79688h-6.9375c-2.1875 0-3.95703-1.77343-3.95703-3.95703V4.32031c0-2.1875 1.76953-3.95703 3.95703-3.95703Zm0 0"/></g><g fill="#FFF"><use xlink:href="#c" x="7.62522" y="35.90143"/><use xlink:href="#d" x="18.34294" y="35.90143"/><use xlink:href="#e" x="24.29228" y="35.90143"/><use xlink:href="#f" x="35.43337" y="35.90143"/><use xlink:href="#g" x="46.95325" y="35.90143"/><use xlink:href="#h" x="54.99711" y="35.90143"/><use xlink:href="#i" x="64.89039" y="35.90143"/></g><path fill="#FFF" stroke="#F35" stroke-linecap="round" stroke-miterlimit="10" stroke-width=".89127" d="M94.8164 14.08593c7.97267 0 14.43751 6.46485 14.43751 14.44141 0 7.97266-6.46484 14.4375-14.4375 14.4375-7.97657 0-14.44141-6.46484-14.44141-14.4375 0-7.97656 6.46484-14.4414 14.4414-14.4414Zm0 0"/><use xlink:href="#j" x="89.24447" y="35.90143"/><use xlink:href="#k" x="117.12111" y="35.90143" fill="#FFF"/><use xlink:href="#l" x="135.25879" y="35.90143" fill="#FFF"/></svg>