<svg xmlns="http://www.w3.org/2000/svg" xmlns:xlink="http://www.w3.org/1999/xlink" width="177.279pt" height="56.002pt" viewBox="0 0 177.279 56.002"><defs><path id="c" d="M8 0v-5.65625c0-2-1.42187-3.375-3.21875-3.375-1.28125 0-2.15625.3125-3.07812.84375l.125 1.29688C2.84375-7.60937 3.8125-7.875 4.78125-7.875c.92188 0 1.70313.78125 1.70313 2.23438v.84375C3.54688-4.75 1.0625-3.9375 1.0625-2.21875c0 .84375.51563 2.4375 2.23438 2.4375.26562 0 2.10937-.04687 3.25-.92187V0ZM6.48438-2.57812c0 .35937 0 .85937-.67188 1.23437C5.25-1 4.5-.98437 4.28125-.98437c-.9375 0-1.8125-.4375-1.8125-1.26563 0-1.375 3.17188-1.51562 4.01563-1.54687Zm0 0"/><path id="d" d="M8.73438-8.6875H7.26563L5.71875-4.625C5.3125-3.54687 4.70313-1.95312 4.54688-1.03125h-.03125c-.10938-.71875-.625-2.0625-.8125-2.59375L1.79688-8.6875H.28124L3.64063 0h1.71875Zm0 0"/><path id="e" d="M8.51563 0v-5.82812c0-1.29688-.29688-3.07813-2.6875-3.07813-1.75 0-2.71875 1.32813-2.82813 1.48438V-8.8125H1.57813V0h1.53125v-4.79687c0-1.29688.5-2.92188 1.98437-2.92188 1.875 0 1.89063 1.39063 1.89063 2.01563V0Zm0 0"/><path id="f" d="M8.125-.78125 8-2.09375c-.98437.78125-2.04687 1.0625-3.04687 1.0625-1.625 0-2.71875-1.42187-2.71875-3.32812 0-1.53125.71875-3.40625 2.79687-3.40625 1.01563 0 1.6875.15625 2.76563.85937l.23437-1.28125c-1.15625-.65625-1.82812-.84375-3.01562-.84375-2.71875 0-4.3125 2.375-4.3125 4.6875 0 2.42188 1.78125 4.5625 4.23437 4.5625 1.04688 0 2.125-.28125 3.1875-1m0 0"/><path id="g" d="M8.10938-4.28125c0-.67187-.03125-2.14062-.78125-3.3125-.8125-1.21875-2-1.4375-2.70313-1.4375-2.17187 0-3.9375 2.07813-3.9375 4.60938 0 2.57812 1.875 4.64062 4.23438 4.64062 1.21875 0 2.34375-.46875 3.10937-1.01562l-.125-1.28125C6.67188-1.0625 5.39063-.98437 4.9375-.98437c-1.5625 0-2.82812-1.39063-2.875-3.29688Zm-1.125-1.07812H2.15625c.3125-1.5 1.34375-2.46875 2.46875-2.46875 1.01563 0 2.10938.65625 2.35938 2.46875m0 0"/><path id="h" d="M6.40625-7.59375v-1.3125c-1.75.01563-2.82812.98438-3.4375 1.875V-8.8125H1.60938V0h1.46875v-4.1875c0-1.95312 1.40625-3.375 3.32812-3.40625m0 0"/><path id="i" d="M8.5 0v-13.59375H7.03125v5.76563C5.98438-8.6875 4.89063-8.90625 4.17188-8.90625c-1.9375 0-3.46875 2.03125-3.46875 4.5625 0 2.5625 1.51562 4.5625 3.375 4.5625.64062 0 1.79687-.17187 2.89062-1.23437V0ZM6.96875-2.71875c0 .26563-.01562.625-.64062 1.1875-.45313.39063-.9375.54688-1.45313.54688-1.21875 0-2.64062-.92188-2.64062-3.34375 0-2.57813 1.6875-3.39063 2.84375-3.39063.875 0 1.46875.45313 1.89062 1.07813Zm0 0"/><path id="j" d="M8.29688 0v-1.14062h-2.4375v-12.14063h-.39063C4.3125-12.07812 2.6875-12.01562 1.75-11.98437v1.14062c.64063-.01562 1.57813-.0625 2.5625-.46875v10.17188H1.85938V0Zm0 0"/><path id="k" d="M8.95313-6.375c0-1.54687-.07813-3.375-.90625-4.95312-.79688-1.46875-2.15625-1.95313-3.15625-1.95313C3.73438-13.28125 2.375-12.75 1.5625-11 .92188-9.57812.82813-7.95312.82813-6.375c0 1.54688.07812 2.96875.65625 4.39063C2.26563-.09376 3.76563.4375 4.875.4375c1.42188 0 2.65625-.8125 3.29688-2.15625C8.75-3 8.95313-4.28125 8.95313-6.375m-1.53125-.25c0 1.29688 0 2.53125-.35938 3.76563-.5 1.78125-1.54687 2.09375-2.17187 2.09375-1.01563 0-1.8125-.73438-2.20313-2.15625-.3125-1.10938-.34375-2.17188-.34375-3.70313 0-1.21875 0-2.40625.34375-3.48437.10938-.35938.60938-1.96875 2.1875-1.96875 1.53125 0 2.03125 1.48437 2.17188 1.84375.375 1.09375.375 2.40625.375 3.60937m0 0"/><path id="l" d="M9.39063-4.35937c0-2.35938-1.21875-4.54688-3.10938-4.54688-1.17187 0-2.3125.40625-3.20312 1.17188v-.95313H1.60938V3.79688H3.125V-.90625c.60938.57813 1.46875 1.125 2.65625 1.125 1.89063 0 3.60938-1.92187 3.60938-4.57812m-1.51563 0c0 2.01562-1.39062 3.375-2.85937 3.375-.76563 0-1.29688-.39063-1.6875-.92188C3.125-2.1875 3.125-2.23437 3.125-2.57812v-3.9375c.48438-.6875 1.23438-1.14063 2.07813-1.14063 1.5 0 2.67187 1.48438 2.67187 3.29688m0 0"/><path id="m" d="M7.04688-2.5c0-1.07812-.71875-1.75-.76563-1.8125C5.51563-5 5-5.10937 4.01563-5.28125 2.9375-5.5 2.03125-5.70312 2.03125-6.65625c0-1.21875 1.42188-1.21875 1.67188-1.21875.625 0 1.65625.07813 2.78125.75l.23437-1.28125c-1.01562-.46875-1.82812-.625-2.82812-.625-.48438 0-3.25 0-3.25 2.57813C.64063-5.5 1.21875-4.875 1.70313-4.5c.60937.42188 1.03125.5 2.10937.71875.70313.14063 1.84375.375 1.84375 1.40625 0 1.35938-1.54687 1.35938-1.84375 1.35938-1.57812 0-2.67187-.73438-3.03125-.96875L.54688-.64062c.625.3125 1.70312.85937 3.29687.85937.34375 0 1.42188 0 2.26563-.625.60937-.46875.9375-1.26562.9375-2.09375m0 0"/><clipPath id="a"><path d="M1.19922 0h174.17187v55H1.19922Zm0 0"/></clipPath><clipPath id="b"><path d="M1.19922 0h174.17187v55.01953H1.19922Zm0 0"/></clipPath></defs><g clip-path="url(#a)"><path fill="#4C97FF" d="M4.8711.19531h6.09765c1.91797 0 4.57422 1.10157 5.9336 2.45703l.8789.87891c1.35547 1.35938 4.01563 2.46094 5.9336 2.46094h12.625c1.91796 0 4.57812-1.10156 5.93359-2.46094l.8789-.8789C44.50781 1.29686 47.16797.1953 49.08594.1953h122.61719c1.91796 0 3.47656 1.5586 3.47656 3.47657v41.8828c0 1.92188-1.5586 3.47657-3.47656 3.47657H49.08593c-1.91796 0-4.57812 1.10156-5.93359 2.45703l-.8789.8789c-1.35547 1.35938-4.01563 2.45704-5.9336 2.45704h-12.625c-1.91796 0-4.57812-1.09766-5.93359-2.45703l-.8789-.8789c-1.35938-1.35548-4.01563-2.45704-5.9336-2.45704H4.87109c-1.92187 0-3.47656-1.55469-3.47656-3.47656V3.67188C1.39453 1.7539 2.94922.1953 4.8711.1953m0 0"/></g><g clip-path="url(#b)"><path fill="none" stroke="#3373CC" stroke-linecap="round" stroke-miterlimit="10" stroke-width=".39152" d="M4.8711.19531h6.09765c1.91797 0 4.57422 1.10156 5.93359 2.45703l.8789.87891c1.35547 1.35937 4.01563 2.46094 5.9336 2.46094h12.625c1.91796 0 4.57812-1.10157 5.93359-2.46094l.8789-.8789C44.5078 1.29686 47.16796.1953 49.08593.1953h122.61716c1.91796 0 3.47656 1.5586 3.47656 3.47656v41.8828c0 1.92188-1.5586 3.47657-3.47656 3.47657H49.08593c-1.91797 0-4.57813 1.10156-5.9336 2.45703l-.8789.8789c-1.35547 1.35938-4.01563 2.45704-5.9336 2.45704h-12.625c-1.91796 0-4.57812-1.09766-5.93358-2.45703l-.87891-.87891c-1.35937-1.35547-4.01562-2.45703-5.9336-2.45703H4.8711c-1.92187 0-3.47656-1.55469-3.47656-3.47656V3.67188C1.39453 1.7539 2.94922.1953 4.8711.1953Zm0 0"/></g><g fill="#FFF"><use xlink:href="#c" x="7.919" y="31.42007"/><use xlink:href="#d" x="17.33526" y="31.42007"/><use xlink:href="#c" x="26.35998" y="31.42007"/><use xlink:href="#e" x="35.77624" y="31.42007"/><use xlink:href="#f" x="45.89724" y="31.42007"/><use xlink:href="#g" x="54.58917" y="31.42007"/><use xlink:href="#h" x="63.2811" y="31.42007"/></g><g fill="#FFF"><use xlink:href="#i" x="76.49518" y="31.42007"/><use xlink:href="#g" x="86.61618" y="31.42007"/></g><path fill="#FFF" stroke="#3373CC" stroke-linecap="round" stroke-miterlimit="10" stroke-width=".78304" d="M118.46093 12.25391h3.5586c7.0078 0 12.6875 5.67969 12.6875 12.6875 0 7.0039-5.6797 12.68359-12.6875 12.68359h-7.11719c-7.0039 0-12.68359-5.67969-12.68359-12.6836 0-7.0078 5.67969-12.68749 12.68359-12.68749Zm0 0"/><use xlink:href="#j" x="108.67348" y="31.42007"/><use xlink:href="#k" x="118.46169" y="31.42007"/><g fill="#FFF"><use xlink:href="#l" x="141.61641" y="31.42007"/><use xlink:href="#c" x="151.73741" y="31.42007"/><use xlink:href="#m" x="161.15367" y="31.42007"/></g></svg>