<svg xmlns="http://www.w3.org/2000/svg" xmlns:xlink="http://www.w3.org/1999/xlink" width="85.774pt" height="35.151pt" viewBox="0 0 85.774 35.151"><defs><path id="c" d="M4.96875 0v-3.51562c0-1.23438-.89062-2.09375-2-2.09375-.79687 0-1.34375.20312-1.90625.53125l.0625.79687c.64063-.45312 1.25-.60937 1.84375-.60937.5625 0 1.0625.48437 1.0625 1.39062v.51563c-1.82812.03125-3.375.54687-3.375 1.60937 0 .53125.32813 1.51563 1.39063 1.51563.17187 0 1.3125-.03126 2.01562-.57813V0Zm-.9375-1.60937c0 .23437 0 .54687-.42187.76562-.34375.21875-.8125.23438-.95313.23438-.57812 0-1.125-.28126-1.125-.78125 0-.85938 1.96875-.9375 2.5-.96875Zm0 0"/><path id="d" d="M2.23438.71875v-6.10937h-.90625V.84375c0 .8125-.70313.875-.92188.875q-.49219 0-.89062-.375l-.25.73438c.57812.34375 1.14062.40625 1.45312.40625.76563 0 1.51563-.625 1.51563-1.76563m0-7.59375v-1.09375H1.15625V-6.875Zm0 0"/><path id="e" d="M5.70313-2.67187c0-1.625-1.21875-2.9375-2.67188-2.9375-1.48437 0-2.67187 1.34375-2.67187 2.9375 0 1.60937 1.25 2.8125 2.67187 2.8125 1.45313 0 2.67188-1.23438 2.67188-2.8125m-.95313-.125c0 1.4375-.82812 2.15625-1.71875 2.15625-.84375 0-1.71875-.6875-1.71875-2.15625s.92188-2.0625 1.71875-2.0625c.84375 0 1.71875.625 1.71875 2.0625m0 0"/><path id="f" d="M5.28125 0v-5.39062h-.9375V-1.875c0 .92188-.6875 1.34375-1.46875 1.34375-.85937 0-.9375-.3125-.9375-.84375v-4.01562H.98438v4.0625c0 .875.28124 1.46875 1.28125 1.46875.65625 0 1.51562-.20313 2.10937-.71875V0Zm0 0"/><path id="g" d="m4.03125-.32812-.1875-.71875c-.3125.25-.70312.40625-1.09375.40625-.45312 0-.625-.375-.625-1.01563V-4.6875h1.71875v-.70312H2.125V-6.9375h-.84375v1.54688H.23438v.70312H1.25v3.23438c0 .73437.17188 1.59375 1.01563 1.59375s1.46875-.3125 1.76562-.46875m0 0"/><path id="h" d="M5.03125-2.65625c0-.42187-.01562-1.32812-.48437-2.0625-.5-.75-1.23438-.89062-1.67188-.89062C1.51563-5.60937.42188-4.3125.42188-2.75c0 1.60938 1.17187 2.89063 2.625 2.89063.76562 0 1.46875-.29688 1.9375-.64063l-.07813-.78125c-.76562.625-1.5625.67188-1.84375.67188-.96875 0-1.75-.85938-1.78125-2.04688Zm-.6875-.67187h-3c.1875-.92188.82813-1.53125 1.53125-1.53125.625 0 1.3125.40625 1.46875 1.53125m0 0"/><path id="i" d="M3.96875-4.71875v-.8125c-1.07812.01563-1.75.60938-2.125 1.17188v-1.10938H1V0h.90625v-2.59375c0-1.21875.875-2.09375 2.0625-2.125m0 0"/><path id="j" d="M5.45313-2.46875c0-1.51562-1.04688-2.71875-2.29688-2.71875-.48437 0-.9375.17188-1.29687.5v-2.51562H5.0625v-.76563H.98438v4.48438h.79687c.21875-.48438.65625-.96875 1.375-.96875.5625 0 1.21875.5 1.21875 1.96875 0 2.01562-1.48437 2.01562-1.59375 2.01562-.8125 0-1.54687-.48437-1.90625-1.14062l-.40625.6875c.5.6875 1.34375 1.1875 2.32813 1.1875C4.25.26563 5.45313-.9375 5.45313-2.46875m0 0"/><path id="k" d="M4.96875 0v-3.51562c0-1.23438-.89062-2.09375-2-2.09375-.79687 0-1.34375.20312-1.90625.53125l.0625.79687c.64063-.45312 1.25-.60937 1.84375-.60937.5625 0 1.0625.48437 1.0625 1.39062v.51563c-1.82812.03125-3.375.54687-3.375 1.60937 0 .53125.32813 1.51563 1.39063 1.51563.17187 0 1.3125-.03126 2.01562-.57813V0Zm-.9375-1.60937c0 .23437 0 .54687-.42187.76562-.34375.21875-.8125.23438-.95313.23438-.57812 0-1.125-.28126-1.125-.78125 0-.85938 1.96875-.9375 2.5-.96875Zm-.26562-4.79688L2.15625-8.4375h-.95312l1.82812 2.03125Zm0 0"/><path id="l" d="m5.59375 0-2.4375-2.78125 2.23438-2.60937h-1l-1.625 2-1.6875-2h-1l2.28125 2.60937L0 0h1l1.76563-2.28125L4.57813 0Zm0 0"/><clipPath id="a"><path d="M1 0h83.65234v34.32031H1Zm0 0"/></clipPath><clipPath id="b"><path d="M.90234 0h83.75v34.32031h-83.75Zm0 0"/></clipPath></defs><g clip-path="url(#a)"><path fill="#FF6680" d="M3.2539.19531h3.78907c1.1914 0 2.84375.6836 3.6875 1.52735l.54297.54687c.84375.83985 2.4961 1.52344 3.6875 1.52344h7.83984c1.1914 0 2.84375-.6836 3.6875-1.52344l.54297-.54687C27.875.8789 29.52735.1953 30.71875.1953h51.58203c1.1914 0 2.15625.96875 2.15625 2.16016v26.01562c0 1.19141-.96484 2.15625-2.15625 2.15625H30.71875c-1.1914 0-2.84375.6836-3.6875 1.52735l-.54297.54687c-.84375.84375-2.4961 1.52735-3.6875 1.52735h-7.83984c-1.1914 0-2.84375-.6836-3.6875-1.52735l-.54297-.54687c-.84375-.84375-2.4961-1.52735-3.6875-1.52735H3.2539c-1.19141 0-2.16016-.96484-2.16016-2.15625V2.35547c0-1.1914.96875-2.16016 2.16016-2.16016m0 0"/></g><g clip-path="url(#b)"><path fill="none" stroke="#F35" stroke-linecap="round" stroke-miterlimit="10" stroke-width=".3891" d="M3.2539.19531h3.78907c1.1914 0 2.84375.6836 3.6875 1.52735l.54297.54687c.84375.83985 2.4961 1.52344 3.6875 1.52344h7.83985c1.1914 0 2.84375-.6836 3.6875-1.52344l.54297-.54687C27.875.8789 29.52736.1953 30.71876.1953h51.58205c1.1914 0 2.15625.96875 2.15625 2.16016V28.3711c0 1.1914-.96484 2.15625-2.15625 2.15625H30.71876c-1.1914 0-2.84375.6836-3.6875 1.52735l-.54297.54687c-.84375.84375-2.4961 1.52735-3.6875 1.52735h-7.83985c-1.1914 0-2.84375-.6836-3.6875-1.52735l-.54297-.54687c-.84375-.84375-2.4961-1.52735-3.6875-1.52735H3.25391c-1.19141 0-2.16016-.96484-2.16016-2.15625V2.35547c0-1.1914.96875-2.16016 2.16016-2.16016Zm0 0"/></g><g fill="#FFF"><use xlink:href="#c" x="5.1485" y="19.58985"/><use xlink:href="#d" x="10.99727" y="19.58985"/><use xlink:href="#e" x="14.24388" y="19.58985"/><use xlink:href="#f" x="20.32369" y="19.58985"/><use xlink:href="#g" x="26.61021" y="19.58985"/><use xlink:href="#h" x="30.99983" y="19.58985"/><use xlink:href="#i" x="36.39869" y="19.58985"/></g><path fill="#FFF" stroke="#F35" stroke-linecap="round" stroke-miterlimit="10" stroke-width=".48638" d="M52.73047 7.6836c4.35156 0 7.8789 3.53124 7.8789 7.8828 0 4.35157-3.52734 7.87891-7.8789 7.87891s-7.88281-3.52734-7.88281-7.8789c0-4.35157 3.53125-7.88282 7.88281-7.88282Zm0 0"/><use xlink:href="#j" x="49.69018" y="19.58985"/><use xlink:href="#k" x="64.90153" y="19.58985" fill="#FFF"/><use xlink:href="#l" x="74.79946" y="19.58985" fill="#FFF"/></svg>