<svg xmlns="http://www.w3.org/2000/svg" xmlns:xlink="http://www.w3.org/1999/xlink" width="150.354" height="62.952" viewBox="0 0 150.354 62.952"><defs><path id="b" d="M15.90625 0v-6.65625c0-1.48437-.35937-3.5-3.04687-3.5-1.34375 0-2.5.625-3.32813 1.82813-.57812-1.6875-2.14062-1.82813-2.85937-1.82813-1.60938 0-2.65625.92188-3.26563 1.71875v-1.60937H1.8125V0h1.73438v-5.46875c0-1.51562.60937-3.32812 2.25-3.32812 2.07812 0 2.1875 1.45312 2.1875 2.29687V0h1.75v-5.46875c0-1.51562.59375-3.32812 2.25-3.32812 2.07812 0 2.1875 1.45312 2.1875 2.29687V0Zm0 0"/><path id="c" d="M9.23438-4.89062c0-.75-.01563-2.42188-.89063-3.76563-.90625-1.39062-2.28125-1.625-3.07812-1.625-2.48438 0-4.48438 2.35938-4.48438 5.23438C.78125-2.09375 2.92188.25 5.59375.25 7 .25 8.28125-.29687 9.14063-.92187l-.125-1.4375c-1.40625 1.15625-2.875 1.25-3.39063 1.25-1.78125 0-3.21875-1.59375-3.28125-3.78125ZM7.96875-6.10937H2.45313C2.8125-7.8125 4-8.92187 5.26563-8.92187c1.15625 0 2.40625.75 2.70312 2.8125m0 0"/><path id="d" d="m7.40625-.60937-.35937-1.3125c-.57813.46875-1.29688.73437-2 .73437-.82813 0-1.14063-.67187-1.14063-1.84375v-5.57812h3.14063v-1.29688H3.90625v-2.82812H2.35938v2.82812H.42188v1.29688h1.875v5.95312C2.29688-1.3125 2.60938.25 4.15625.25c1.5625 0 2.6875-.5625 3.25-.85937m0 0"/><path id="e" d="M7.29688-8.65625v-1.5c-1.98438.03125-3.21875 1.125-3.90625 2.14063v-2.03125h-1.5625V0H3.5v-4.78125C3.5-7 5.10938-8.60937 7.29688-8.65625m0 0"/><path id="f" d="M9.95313-9.90625H8.28125C5.375-2.8125 5.32813-1.78125 5.3125-1.26562h-.03125c-.125-1.5-1.90625-5.65625-2-5.85938L2.07813-9.90625H.3125L4.64063 0l-.79688 2.01563C3.25 3.29688 2.875 3.29688 2.5625 3.29688c-.35937 0-1.0625-.07813-1.73437-.35938l.125 1.45313c.5.10937 1.125.1875 1.60937.1875.78125 0 1.60938-.26563 2.53125-2.54688Zm0 0"/><path id="g" d="M9.125 0v-6.45312c0-2.26563-1.625-3.82813-3.6875-3.82813-1.4375 0-2.45312.35938-3.5.95313l.14063 1.46875c1.15625-.8125 2.26562-1.10938 3.35937-1.10938 1.0625 0 1.95313.89063 1.95313 2.54688v.95312c-3.35938.04688-6.1875.98438-6.1875 2.95313C1.20313-1.5625 1.8125.25 3.75.25c.3125 0 2.40625-.04687 3.70313-1.04687V0ZM7.39063-2.9375c0 .42188 0 .96875-.76563 1.39063-.64062.40625-1.5.4375-1.73437.4375-1.07813 0-2.07813-.51563-2.07813-1.45313 0-1.5625 3.60938-1.71875 4.57813-1.76562Zm-.46875-8.82812-2.96875-3.71875h-1.75l3.35937 3.71875Zm0 0"/><path id="i" d="M10.20313-7.28125c0-1.75-.09375-3.82812-1.03125-5.64062C8.25-14.59375 6.71875-15.125 5.57813-15.125c-1.3125 0-2.875.59375-3.79688 2.57813C1.04688-10.90625.9375-9.0625.9375-7.28125c0 1.76563.09375 3.40625.76563 5.03125C2.59375-.10937 4.28125.48438 5.5625.48438c1.625 0 3.03125-.90625 3.73438-2.45313.67187-1.4375.90625-2.92187.90625-5.3125m-1.75-.26562c0 1.48437 0 2.89062-.39063 4.29687C7.46875-1.23437 6.29688-.875 5.57813-.875 4.42188-.875 3.5-1.71875 3.0625-3.32812c-.35937-1.26563-.39062-2.46875-.39062-4.21875 0-1.40625 0-2.73438.39062-3.96875.125-.42188.6875-2.25 2.5-2.25 1.73438 0 2.3125 1.6875 2.46875 2.09375.42188 1.25.42188 2.75.42188 4.125m0 0"/><clipPath id="a"><path d="M0 .10938h149.71094v62.68359H0Zm0 0"/></clipPath><clipPath id="h"><path d="M100 1h49.71094v55H100Zm0 0"/></clipPath></defs><g clip-path="url(#a)"><path fill="#4C97FF" stroke="#3373CC" stroke-linecap="round" stroke-miterlimit="10" stroke-width=".39679" d="M4.16406.3086h6.94922c2.1914 0 5.21875 1.2539 6.76953 2.80468l1 1c1.54688 1.54688 4.57813 2.80078 6.76563 2.80078h14.39453c2.1875 0 5.21876-1.2539 6.76563-2.80078l1-1C49.35548 1.5625 52.38673.3086 54.57813.3086h90.97267c2.1875 0 3.96485 1.77344 3.96485 3.96485v47.75c0 2.19141-1.77735 3.96485-3.96485 3.96485H54.57813c-2.1914 0-5.22265 1.2539-6.76953 2.80469l-1 1c-1.54687 1.54687-4.57812 2.80468-6.76563 2.80468H25.64844c-2.1875 0-5.21875-1.2578-6.76562-2.80468l-1-1c-1.55079-1.55078-4.57813-2.8047-6.76954-2.8047H4.16406c-2.1914 0-3.96484-1.77343-3.96484-3.96484v-47.75c0-2.1914 1.77344-3.96485 3.96484-3.96485Zm0 0"/></g><g fill="#FFF"><use xlink:href="#b" x="7.63818" y="35.90895"/><use xlink:href="#c" x="25.3603" y="35.90895"/><use xlink:href="#d" x="35.27039" y="35.90895"/><use xlink:href="#d" x="43.32793" y="35.90895"/><use xlink:href="#e" x="51.38546" y="35.90895"/><use xlink:href="#c" x="59.01892" y="35.90895"/></g><use xlink:href="#f" x="76.36159" y="35.90895" fill="#FFF"/><use xlink:href="#g" x="94.0837" y="35.90895" fill="#FFF"/><path fill="#FFF" d="M127.16016 14.0586c7.98828 0 14.46484 6.47265 14.46484 14.46093s-6.47656 14.46485-14.46484 14.46485-14.46094-6.47657-14.46094-14.46485 6.47266-14.46094 14.46094-14.46094m0 0"/><g clip-path="url(#h)"><path fill="none" stroke="#3373CC" stroke-linecap="round" stroke-miterlimit="10" stroke-width=".89279" d="M127.16016 14.0586c7.98828 0 14.46484 6.47265 14.46484 14.46093s-6.47656 14.46485-14.46484 14.46485-14.46094-6.47657-14.46094-14.46485 6.47265-14.46093 14.46094-14.46093Zm0 0"/></g><use xlink:href="#i" x="121.58361" y="35.90895"/></svg>