<svg xmlns="http://www.w3.org/2000/svg" xmlns:xlink="http://www.w3.org/1999/xlink" width="285.391" height="62.952" viewBox="0 0 285.391 62.952"><defs><path id="b" d="m7.42188-.60937-.34375-1.3125c-.59375.46875-1.3125.73437-2.01563.73437-.82812 0-1.14062-.67187-1.14062-1.85937v-5.59375h3.15625V-9.9375H3.92188v-2.84375H2.375v2.84375H.42188v1.29688h1.875v5.98437C2.29688-1.3125 2.625.25 4.15625.25 5.73438.25 6.875-.3125 7.42188-.60937m0 0"/><path id="c" d="M10.5-4.92187c0-3-2.25-5.39063-4.90625-5.39063-2.75 0-4.92187 2.45313-4.92187 5.39063C.67188-1.96875 2.95313.25 5.57813.25 8.25.25 10.5-2.01562 10.5-4.92187m-1.75-.21875C8.75-2.5 7.23438-1.1875 5.57813-1.1875c-1.54688 0-3.15625-1.25-3.15625-3.95312 0-2.71875 1.6875-3.8125 3.15625-3.8125 1.5625 0 3.17187 1.17187 3.17187 3.8125m0 0"/><path id="d" d="M9.73438 0v-9.9375h-1.75v6.48438c0 1.6875-1.25 2.46875-2.6875 2.46875-1.57813 0-1.73438-.57813-1.73438-1.54688V-9.9375h-1.75v7.5C1.8125-.82812 2.32813.25 4.1875.25c1.1875 0 2.76563-.35937 3.875-1.32812V0Zm0 0"/><path id="e" d="M7.3125-8.6875v-1.5c-1.98437.03125-3.21875 1.125-3.90625 2.15625v-2.03125H1.82813V0h1.6875v-4.78125c0-2.25 1.60937-3.85937 3.79687-3.90625m0 0"/><path id="f" d="M9.73438 0v-6.67187c0-1.46875-.34375-3.51563-3.0625-3.51563-2.01563 0-3.10938 1.53125-3.25 1.70313v-1.57813H1.8125V0h1.75v-5.48437c0-1.46875.54688-3.32813 2.25-3.32813 2.15625 0 2.17188 1.57813 2.17188 2.29688V0Zm0 0"/><path id="g" d="M9.26563-4.90625c0-.75-.03125-2.4375-.89063-3.78125-.92187-1.375-2.28125-1.625-3.09375-1.625-2.48437 0-4.5 2.375-4.5 5.25C.78125-2.10937 2.9375.25 5.60938.25c1.42187 0 2.6875-.54687 3.5625-1.17187l-.125-1.45313C7.625-1.20312 6.15625-1.125 5.64063-1.125c-1.79688 0-3.21875-1.57812-3.29688-3.78125ZM7.98438-6.125H2.46875C2.8125-7.82812 4-8.95312 5.28125-8.95312c1.15625 0 2.42188.76562 2.70313 2.82812m0 0"/><path id="h" d="M9.70313 0v-15.53125H8.03125v6.57813c-1.1875-.98438-2.4375-1.23438-3.26562-1.23438-2.21875 0-3.95313 2.32813-3.95313 5.21875C.8125-2.03125 2.53125.25 4.65625.25c.73438 0 2.0625-.20312 3.3125-1.40625V0ZM7.96875-3.10937c0 .3125-.03125.71875-.73437 1.35937-.51563.45313-1.07813.625-1.65625.625-1.39063 0-3.03125-1.04687-3.03125-3.8125 0-2.95312 1.92187-3.875 3.25-3.875 1 0 1.67187.51563 2.17187 1.23438Zm0 0"/><path id="k" d="M10.53125-3.82812V-5.1875H8.32813v-9.48437H6.28125L.625-5.1875v1.35938h5.9375V0h1.76563v-3.82812ZM6.6875-5.1875H2.375c1.15625-1.92187 4.29688-7.23437 4.3125-8.5Zm0 0"/><path id="l" d="M10.04688-4.54687c0-2.79688-1.92188-5-4.23438-5-.89062 0-1.73437.32812-2.39062.90625V-13.25H9.3125v-1.42187h-7.5v8.25h1.48438c.375-.89063 1.20312-1.76563 2.5-1.76563 1.04687 0 2.26562.92188 2.26562 3.59375C8.0625-.875 5.32813-.875 5.125-.875c-1.5 0-2.85937-.875-3.51562-2.07812l-.73438 1.25C1.79688-.42187 3.32813.5 5.14063.5c2.67187 0 4.90625-2.21875 4.90625-5.04687m0 0"/><path id="m" d="m10.85938-8.76562-.25-1.42188c-1.5625 0-2.875.4375-3.53125.71875-.48438-.375-1.23438-.71875-2.14063-.71875-1.92187 0-3.54687 1.625-3.54687 3.65625 0 .82813.28124 1.625.73437 2.21875-.64062.90625-.64062 1.78125-.64062 1.89063 0 .59375.1875 1.23437.57812 1.70312C.89063-.01562.625 1 .625 1.59375c0 1.67188 2.21875 3.01563 4.95313 3.01563 2.75 0 4.95312-1.3125 4.95312-3.04688 0-3.10937-3.73437-3.10937-4.60937-3.10937H3.95313c-.28125 0-1.29688 0-1.29688-1.1875 0-.23438.09375-.59375.25-.79688.46875.32813 1.20313.64063 2.03125.64063 2.01563 0 3.59375-1.65625 3.59375-3.64063 0-1.07812-.5-1.90625-.75-2.23437L7.875-8.75c.5 0 1.125-.09375 1.65625-.09375.40625 0 1.32813.07813 1.32813.07813M6.95313-6.53125c0 1.75-1.04688 2.375-2.01563 2.375-.82812 0-1.98437-.51562-1.98437-2.375 0-1.85937 1.15625-2.375 1.98437-2.375.96875 0 2.01563.625 2.01563 2.375m2.01562 8.14063c0 .98437-1.54687 1.71875-3.375 1.71875-1.8125 0-3.40625-.6875-3.40625-1.73438 0-.07812 0-1.53125 1.75-1.53125h2.01563c.48437 0 3.01562 0 3.01562 1.54688m0 0"/><path id="n" d="M9.26563-4.90625c0-.75-.03125-2.4375-.89063-3.78125-.92187-1.375-2.28125-1.625-3.09375-1.625-2.48437 0-4.5 2.375-4.5 5.25C.78125-2.10937 2.9375.25 5.60938.25c1.42187 0 2.6875-.54687 3.5625-1.17187l-.125-1.45313C7.625-1.20312 6.15625-1.125 5.64063-1.125c-1.79688 0-3.21875-1.57812-3.29688-3.78125ZM7.98438-6.125H2.46875C2.8125-7.82812 4-8.95312 5.28125-8.95312c1.15625 0 2.42188.76562 2.70313 2.82812m.14062-9.40625h-1.75l-2.96875 3.73438h1.35938Zm0 0"/><path id="o" d="M8.0625-2.85937c0-1.23438-.82812-2-.875-2.0625-.875-.78125-1.48437-.92188-2.59375-1.125-1.23437-.23438-2.26562-.46875-2.26562-1.5625C2.32813-9 3.9375-9 4.23438-9c.70312 0 1.89062.09375 3.17187.85938l.26563-1.45313c-1.15625-.54687-2.07813-.71875-3.21875-.71875-.5625 0-3.71875 0-3.71875 2.92188 0 1.10937.65625 1.8125 1.21875 2.25.6875.48437 1.17187.57812 2.40625.82812.8125.15625 2.10937.42188 2.10937 1.60938 0 1.54687-1.76562 1.54687-2.10937 1.54687-1.8125 0-3.0625-.82812-3.46875-1.10937L.625-.73437C1.34375-.375 2.57813.25 4.39063.25c.39062 0 1.625 0 2.59375-.71875C7.67188-1 8.0625-1.90625 8.0625-2.85937m0 0"/><clipPath id="a"><path d="M0 .04297h284.78516v62.8164H0Zm0 0"/></clipPath><clipPath id="i"><path d="M71 .04297h110v62.8164H71Zm0 0"/></clipPath><clipPath id="j"><path d="M75 .04297h87v62.8164H75Zm0 0"/></clipPath></defs><g clip-path="url(#a)"><path fill="#FF6680" stroke="#F35" stroke-linecap="round" stroke-miterlimit="10" stroke-width=".39765" d="M4.17188.24219h6.96484c2.19532 0 5.23047 1.25781 6.78125 2.8086l1.00391 1.0039c1.55078 1.55078 4.58985 2.8086 6.78125 2.8086h14.4258c2.1914 0 5.23046-1.25782 6.78124-2.8086l1.00391-1.0039C49.46486 1.5 52.50002.24218 54.69533.24218H280.6173c2.1914 0 3.97266 1.77734 3.97266 3.97266v47.85548c0 2.1914-1.78125 3.97266-3.97266 3.97266H54.69533c-2.19531 0-5.23047 1.25781-6.78125 2.8086l-1.0039 1.0039c-1.55079 1.55078-4.58985 2.8086-6.78126 2.8086H25.70313c-2.1914 0-5.23047-1.25782-6.78125-2.8086l-1.0039-1.0039c-1.55079-1.55079-4.58594-2.8086-6.78126-2.8086H4.17188c-2.19532 0-3.97266-1.78125-3.97266-3.97266V4.21485c0-2.19532 1.77734-3.97266 3.97266-3.97266Zm0 0"/></g><g fill="#FFF"><use xlink:href="#b" x="7.65467" y="35.91852"/><use xlink:href="#c" x="15.72959" y="35.91852"/><use xlink:href="#d" x="26.91369" y="35.91852"/><use xlink:href="#e" x="38.47806" y="35.91852"/><use xlink:href="#f" x="46.12798" y="35.91852"/><use xlink:href="#g" x="57.69235" y="35.91852"/><use xlink:href="#e" x="67.62383" y="35.91852"/></g><g fill="#FFF"><use xlink:href="#h" x="82.72237" y="35.91852"/><use xlink:href="#g" x="94.28674" y="35.91852"/></g><g clip-path="url(#i)"><path fill="none" stroke="#FFF" stroke-linecap="round" stroke-miterlimit="10" stroke-width="3.31011" d="M125.78125 38.40234c5.39844-.95312 9.00781-6.10547 8.05469-11.5078-.95313-5.39845-6.10547-9.00782-11.5039-8.0547-1.67579.29688-3.1797.9961-4.4258 1.98047"/></g><path fill="#FFF" d="m115.72266 26.92188 5.14062-4.59766-2.70703-1.14453-2.71094-1.14844Zm0 0"/><g clip-path="url(#j)"><path fill="none" stroke="#FFF" stroke-linecap="round" stroke-miterlimit="10" stroke-width="2.84402" d="m115.72266 26.92188 5.14062-4.59766-2.70703-1.14453-2.71094-1.14844Zm0 0"/></g><g fill="#FFF"><use xlink:href="#h" x="143.8917" y="35.91852"/><use xlink:href="#g" x="155.45606" y="35.91852"/></g><path fill="#FFF" stroke="#F35" stroke-linecap="round" stroke-miterlimit="10" stroke-width=".89472" d="M191.84375 14.01953h4.0664c8.00391 0 14.4961 6.48828 14.4961 14.4961 0 8.0039-6.49219 14.49218-14.4961 14.49218h-8.1328c-8.00391 0-14.4922-6.48828-14.4922-14.49219 0-8.0078 6.48829-14.49609 14.4922-14.49609Zm0 0"/><use xlink:href="#k" x="180.65924" y="35.91852"/><use xlink:href="#l" x="191.84334" y="35.91852"/><g fill="#FFF"><use xlink:href="#h" x="218.30017" y="35.91852"/><use xlink:href="#g" x="229.86453" y="35.91852"/><use xlink:href="#m" x="239.79601" y="35.91852"/><use xlink:href="#e" x="250.98012" y="35.91852"/><use xlink:href="#n" x="258.63004" y="35.91852"/><use xlink:href="#o" x="268.56153" y="35.91852"/></g></svg>