<svg xmlns="http://www.w3.org/2000/svg" xmlns:xlink="http://www.w3.org/1999/xlink" width="253.726pt" height="56.002pt" viewBox="0 0 253.726 56.002"><defs><path id="c" d="M6.5-.53125 6.1875-1.6875c-.51562.42188-1.14062.65625-1.76562.65625-.71875 0-1-.59375-1-1.625V-7.5625H6.1875v-1.125H3.42188v-2.48437H2.07813v2.48437H.375v1.125h1.64063v5.23438c0 1.17187.28125 2.54687 1.625 2.54687 1.375 0 2.375-.5 2.85937-.75m0 0"/><path id="d" d="M9.1875-4.3125c0-2.625-1.96875-4.71875-4.29687-4.71875C2.48438-9.03125.59375-6.875.59375-4.3125.59375-1.71875 2.57813.21875 4.875.21875c2.34375 0 4.3125-1.98437 4.3125-4.53125M7.65625-4.5c0 2.3125-1.32812 3.46875-2.78125 3.46875-1.34375 0-2.76562-1.10937-2.76562-3.46875 0-2.375 1.5-3.32812 2.76562-3.32812 1.375 0 2.78125 1.01562 2.78125 3.32812m0 0"/><path id="e" d="M8.51563 0v-8.6875H6.98438v5.67188c0 1.46875-1.09375 2.15625-2.34375 2.15625-1.39063 0-1.53125-.51563-1.53125-1.35938V-8.6875H1.57813v6.54688c0 1.42187.45312 2.35937 2.07812 2.35937 1.04688 0 2.4375-.3125 3.39063-1.15625V0Zm0 0"/><path id="f" d="M6.40625-7.59375v-1.3125c-1.75.01563-2.82812.98438-3.4375 1.875V-8.8125H1.60938V0h1.46875v-4.1875c0-1.95312 1.40625-3.375 3.32812-3.40625m0 0"/><path id="g" d="M8.51563 0v-5.82812c0-1.29688-.29688-3.07813-2.6875-3.07813-1.75 0-2.71875 1.32813-2.82813 1.48438V-8.8125H1.57813V0h1.53125v-4.79687c0-1.29688.5-2.92188 1.98437-2.92188 1.875 0 1.89063 1.39063 1.89063 2.01563V0Zm0 0"/><path id="h" d="M8.10938-4.28125c0-.67187-.03125-2.14062-.78125-3.3125-.8125-1.21875-2-1.4375-2.70313-1.4375-2.17187 0-3.9375 2.07813-3.9375 4.60938 0 2.57812 1.875 4.64062 4.23438 4.64062 1.21875 0 2.34375-.46875 3.10937-1.01562l-.125-1.28125C6.67188-1.0625 5.39063-.98437 4.9375-.98437c-1.5625 0-2.82812-1.39063-2.875-3.29688Zm-1.125-1.07812H2.15625c.3125-1.5 1.34375-2.46875 2.46875-2.46875 1.01563 0 2.10938.65625 2.35938 2.46875m0 0"/><path id="i" d="M8.5 0v-13.59375H7.03125v5.76563C5.98438-8.6875 4.89063-8.90625 4.17188-8.90625c-1.9375 0-3.46875 2.03125-3.46875 4.5625 0 2.5625 1.51562 4.5625 3.375 4.5625.64062 0 1.79687-.17187 2.89062-1.23437V0ZM6.96875-2.71875c0 .26563-.01562.625-.64062 1.1875-.45313.39063-.9375.54688-1.45313.54688-1.21875 0-2.64062-.92188-2.64062-3.34375 0-2.57813 1.6875-3.39063 2.84375-3.39063.875 0 1.46875.45313 1.89062 1.07813Zm0 0"/><path id="l" d="M9.21875-3.34375v-1.20312h-1.9375v-8.29688H5.5L.54688-4.54687v1.20312h5.1875V0h1.54687v-3.34375ZM5.85938-4.54687H2.07813c1.01562-1.67188 3.75-6.3125 3.78125-7.4375Zm0 0"/><path id="m" d="M8.79688-3.96875c0-2.45312-1.6875-4.39062-3.70313-4.39062-.78125 0-1.53125.29687-2.09375.79687v-4.03125h5.14063v-1.25h-6.5625V-5.625H2.875c.32813-.78125 1.0625-1.54687 2.20313-1.54687.90625 0 1.96875.8125 1.96875 3.15625 0 3.25-2.39063 3.25-2.5625 3.25-1.3125 0-2.5-.76563-3.07813-1.8125L.76563-1.48437C1.5625-.375 2.92188.4375 4.5.4375c2.32813 0 4.29688-1.9375 4.29688-4.40625m0 0"/><path id="n" d="m9.5-7.67187-.21875-1.23438c-1.375 0-2.5.375-3.09375.625-.40625-.32812-1.07812-.625-1.85937-.625-1.6875 0-3.10938 1.40625-3.10938 3.1875 0 .71875.25 1.4375.64063 1.9375-.5625.8125-.5625 1.5625-.5625 1.67188 0 .5.17187 1.07812.5 1.48437-1.01563.60938-1.25 1.5-1.25 2.01563 0 1.46875 1.9375 2.64062 4.32812 2.64062 2.40625 0 4.34375-1.15625 4.34375-2.65625 0-2.71875-3.26562-2.71875-4.03125-2.71875H3.46875c-.26562 0-1.14062 0-1.14062-1.04687 0-.21875.07812-.53125.21875-.70313.40625.29688 1.0625.5625 1.78125.5625 1.76562 0 3.125-1.4375 3.125-3.1875 0-.9375-.42188-1.65625-.64063-1.95312l.07813.01562c.4375 0 .98437-.07812 1.45312-.07812.34375 0 1.15625.0625 1.15625.0625M6.09375-5.71875c0 1.53125-.92187 2.07813-1.76562 2.07813-.71875 0-1.75-.45313-1.75-2.07813s1.03125-2.07812 1.75-2.07812c.84375 0 1.76562.54687 1.76562 2.07812m1.75 7.125c0 .85938-1.34375 1.51563-2.95312 1.51563-1.57813 0-2.96875-.60938-2.96875-1.53125 0-.0625 0-1.32813 1.53125-1.32813h1.75c.4375 0 2.64062 0 2.64062 1.34375m0 0"/><path id="o" d="M8.10938-4.28125c0-.67187-.03125-2.14062-.78125-3.3125-.8125-1.21875-2-1.4375-2.70313-1.4375-2.17187 0-3.9375 2.07813-3.9375 4.60938 0 2.57812 1.875 4.64062 4.23438 4.64062 1.21875 0 2.34375-.46875 3.10937-1.01562l-.125-1.28125C6.67188-1.0625 5.39063-.98437 4.9375-.98437c-1.5625 0-2.82812-1.39063-2.875-3.29688Zm-1.125-1.07812H2.15625c.3125-1.5 1.34375-2.46875 2.46875-2.46875 1.01563 0 2.10938.65625 2.35938 2.46875m.125-8.23438H5.57813L2.96875-10.3125h1.20313Zm0 0"/><path id="p" d="M7.04688-2.5c0-1.07812-.71875-1.75-.76563-1.8125C5.51563-5 5-5.10937 4.01563-5.28125 2.9375-5.5 2.03125-5.70312 2.03125-6.65625c0-1.21875 1.42188-1.21875 1.67188-1.21875.625 0 1.65625.07813 2.78125.75l.23437-1.28125c-1.01562-.46875-1.82812-.625-2.82812-.625-.48438 0-3.25 0-3.25 2.57813C.64063-5.5 1.21875-4.875 1.70313-4.5c.60937.42188 1.03125.5 2.10937.71875.70313.14063 1.84375.375 1.84375 1.40625 0 1.35938-1.54687 1.35938-1.84375 1.35938-1.57812 0-2.67187-.73438-3.03125-.96875L.54688-.64062c.625.3125 1.70312.85937 3.29687.85937.34375 0 1.42188 0 2.26563-.625.60937-.46875.9375-1.26562.9375-2.09375m0 0"/><clipPath id="a"><path d="M2.08594 0h249.28515v55H2.08594Zm0 0"/></clipPath><clipPath id="b"><path d="M2.08594 0h249.28515v55.01953H2.08594Zm0 0"/></clipPath><clipPath id="j"><path d="M64 0h97v55.01953H64Zm0 0"/></clipPath><clipPath id="k"><path d="M67 0h77v55.01953H67Zm0 0"/></clipPath></defs><g clip-path="url(#a)"><path fill="#4C97FF" d="M5.75781.19531h6.09766c1.92187 0 4.57812 1.10157 5.9375 2.45703l.875.87891c1.35937 1.35938 4.01562 2.46094 5.9375 2.46094h12.6211c1.92187 0 4.57812-1.10156 5.9375-2.46094l.875-.8789C45.39843 1.29686 48.05468.1953 49.97656.1953h197.72265c1.92187 0 3.47656 1.5586 3.47656 3.47657v41.8828c0 1.92188-1.55469 3.47657-3.47656 3.47657H49.97656c-1.92187 0-4.57812 1.10156-5.9375 2.45703l-.875.8789c-1.35937 1.35938-4.01562 2.45704-5.9375 2.45704h-12.6211c-1.92187 0-4.57812-1.09766-5.9375-2.45703l-.875-.8789c-1.35937-1.35548-4.01562-2.45704-5.9375-2.45704H5.75782c-1.91797 0-3.47656-1.55469-3.47656-3.47656V3.67188c0-1.91797 1.5586-3.47657 3.47656-3.47657m0 0"/></g><g clip-path="url(#b)"><path fill="none" stroke="#3373CC" stroke-linecap="round" stroke-miterlimit="10" stroke-width=".39152" d="M5.75781.19531h6.09766c1.92187 0 4.57812 1.10156 5.9375 2.45703l.875.87891c1.35937 1.35937 4.01562 2.46094 5.9375 2.46094h12.62108c1.92188 0 4.57813-1.10157 5.9375-2.46094l.875-.8789C45.39843 1.29686 48.05468.1953 49.97655.1953h197.72261c1.92188 0 3.47656 1.5586 3.47656 3.47656v41.8828c0 1.92188-1.55468 3.47657-3.47656 3.47657H49.97656c-1.92188 0-4.57813 1.10156-5.9375 2.45703l-.875.8789c-1.35938 1.35938-4.01563 2.45704-5.9375 2.45704h-12.6211c-1.92187 0-4.57812-1.09766-5.9375-2.45703l-.875-.87891c-1.35937-1.35547-4.01562-2.45703-5.9375-2.45703H5.75782c-1.91797 0-3.47656-1.55469-3.47656-3.47656V3.67188c0-1.91797 1.5586-3.47657 3.47656-3.47657Zm0 0"/></g><g fill="#FFF"><use xlink:href="#c" x="8.80784" y="31.42007"/><use xlink:href="#d" x="15.87492" y="31.42007"/><use xlink:href="#e" x="25.66313" y="31.42007"/><use xlink:href="#f" x="35.78413" y="31.42007"/><use xlink:href="#g" x="42.47927" y="31.42007"/><use xlink:href="#h" x="52.60027" y="31.42007"/><use xlink:href="#f" x="61.2922" y="31.42007"/></g><g fill="#FFF"><use xlink:href="#i" x="74.50628" y="31.42007"/><use xlink:href="#h" x="84.62728" y="31.42007"/></g><g clip-path="url(#j)"><path fill="none" stroke="#FFF" stroke-linecap="round" stroke-miterlimit="10" stroke-width="2.89697" d="M112.1914 33.59375c4.72657-.83203 7.88282-5.34375 7.05079-10.07031-.83594-4.72656-5.34375-7.88281-10.07031-7.05078-1.46485.25781-2.78125.8711-3.8711 1.73047"/></g><path fill="#FFF" d="m103.38672 23.54688 4.5-4.02344-4.74219-2.00782Zm0 0"/><g clip-path="url(#k)"><path fill="none" stroke="#FFF" stroke-linecap="round" stroke-miterlimit="10" stroke-width="2.48906" d="m103.38672 23.54687 4.5-4.02343-4.74219-2.00782Zm0 0"/></g><g fill="#FFF"><use xlink:href="#i" x="128.04101" y="31.42007"/><use xlink:href="#h" x="138.16201" y="31.42007"/></g><path fill="#FFF" stroke="#3373CC" stroke-linecap="round" stroke-miterlimit="10" stroke-width=".78304" d="M170.0078 12.25391h3.5586c7.00781 0 12.6875 5.67969 12.6875 12.6875 0 7.0039-5.67969 12.68359-12.6875 12.68359h-7.11719c-7.0039 0-12.68359-5.67969-12.68359-12.6836 0-7.0078 5.6797-12.68749 12.6836-12.68749Zm0 0"/><use xlink:href="#l" x="160.21956" y="31.42007"/><use xlink:href="#m" x="170.00777" y="31.42007"/><g fill="#FFF"><use xlink:href="#i" x="193.16249" y="31.42007"/><use xlink:href="#h" x="203.2835" y="31.42007"/><use xlink:href="#n" x="211.97542" y="31.42007"/><use xlink:href="#f" x="221.76363" y="31.42007"/><use xlink:href="#o" x="228.45876" y="31.42007"/><use xlink:href="#p" x="237.15069" y="31.42007"/></g></svg>