<svg xmlns="http://www.w3.org/2000/svg" xmlns:xlink="http://www.w3.org/1999/xlink" width="138.965pt" height="141.219pt" viewBox="0 0 138.965 141.219"><defs><path id="c" d="M1.26563 0h3.82812v-.32812l-.98437-.09375c-.25-.03125-.375-.10938-.375-.5625v-6.875l-.0625-.0625-2.40625.40625v.29687l1.09375.125c.1875.03125.26562.125.26562.45313v5.65625c0 .45312-.10937.53125-.375.5625l-.98437.09375Zm0 0"/><path id="d" d="M.3125-.10937.4375 0H5.25l.40625-1.53125-.32812-.0625c-.25.625-.48438.71875-.95313.71875H1.40625c.1875-.60937.875-1.4375 1.95313-2.21875 1.10937-.82812 1.98437-1.34375 1.98437-2.64062 0-1.625-1.07812-2.1875-2.3125-2.1875C1.4375-7.92187.625-6.95312.625-6.34375c0 .39063.4375.57813.64063.57813.20312 0 .28124-.125.32812-.3125.1875-.79688.65625-1.4375 1.375-1.4375.89063 0 1.14063.75 1.14063 1.60937 0 1.25-.625 1.95313-1.64063 2.84375C1.03125-1.8125.53125-1.01562.3125-.10937m0 0"/><path id="e" d="M.3125-1.1875c0 .5.79688 1.32813 2.45313 1.32813 1.6875 0 2.75-.85938 2.75-2.34375 0-1.5625-1.34375-2.01563-1.98438-2.07813v-.0625c.625-.09375 1.64063-.5625 1.64063-1.71875 0-1.28125-1.01563-1.85937-2.26563-1.85937C1.375-7.92187.625-7.03125.625-6.53125c0 .35938.40625.5625.5625.5625s.23438-.09375.28125-.23437c.26563-.79688.70313-1.3125 1.35938-1.3125.90625 0 1.15625.8125 1.15625 1.46875 0 .6875-.25 1.57812-1.25 1.57812-.54688 0-.875-.10937-1.01563-.10937-.14062 0-.20312.10937-.20312.3125 0 .20312.0625.32812.20312.32812.14063 0 .46875-.10937 1.01563-.10937 1 0 1.54687.89062 1.54687 1.90625 0 1.39062-.67187 1.875-1.5 1.875C2-.26562 1.5-.84375 1.28125-1.5c-.07812-.21875-.1875-.32812-.35937-.32812-.20313 0-.60938.21874-.60938.64062m0 0"/><path id="f" d="m.21875-2.32812.10938.25H3.5v1.1875c0 .39062-.125.45312-.42187.48437l-.73438.07813V0h3.07813v-.32812l-.53125-.0625C4.625-.4375 4.54688-.5 4.54688-.89062v-1.1875h1.1875V-2.625h-1.1875v-5.15625H3.6875C2.60938-6.17187 1.28125-4.15625.21875-2.32812M1.0625-2.625C1.76563-3.89062 2.60938-5.23437 3.5-6.65625V-2.625Zm0 0"/><path id="g" d="M.46875-1.1875c0 .53125.8125 1.32813 2.32813 1.32813 1.92187 0 2.79687-1.17188 2.79687-2.64063 0-1.64062-1.01562-2.46875-2.40625-2.46875-.64062 0-1.35937.28125-1.71875.625l.25-2.20312c.04688-.3125.10938-.34375.34375-.34375h2.89063l.28125-.79688-.0625-.09375H1.28125l-.10937.10938L.9375-3.78125l.29688.15625c.46875-.5625.95312-.82812 1.57812-.82812.75 0 1.5625.53125 1.5625 2.07812 0 1.20313-.48437 2.10938-1.5 2.10938-.8125 0-1.23437-.59375-1.46875-1.26563-.0625-.17187-.17187-.28125-.32812-.28125-.23438 0-.60938.23438-.60938.625m0 0"/><path id="h" d="M-.32812 0h2.5625v-.32812L1.625-.39062C1.28125-.4375 1.23438-.5625 1.32813-.875c.20312-.6875.4375-1.40625.70312-2.23437h2.60938L5.42188-.875c.10937.32813.0625.45313-.29688.48438l-.54687.0625V0h3v-.32812c-.6875-.0625-.8125-.10938-1.03125-.71875l-2.45313-7h-.875L2-4.60937C1.64063-3.59375 1.15625-2.20312.75-1.14062c-.25.625-.35937.76562-1.07812.8125ZM2.1875-3.5625c.375-1.15625.78125-2.29687 1.14063-3.32812h.03125L4.51563-3.5625Zm0 0"/><path id="i" d="M.40625 0h3.60938c1.76562 0 2.90625-.625 2.90625-2.25 0-1.375-.96875-1.98437-2.10938-2.14062v-.01563c1.09375-.23437 1.73438-.90625 1.73438-1.79687 0-.65625-.23438-1.125-.70313-1.4375-.46875-.29688-1.14062-.40625-2.0625-.40625h-3.375v.32812c1.03125.07813 1.0625.09375 1.0625.75v5.89063c0 .65625-.03125.67187-1.0625.75Zm2.20313-1.29687v-2.84375h.82812c1.45313 0 2.25.71875 2.25 1.95312 0 1.40625-.95312 1.78125-1.95312 1.78125-.9375 0-1.125-.17187-1.125-.89062m0-3.25v-2.53125c0-.5.04687-.57813.95312-.57813.84375 0 1.78125.32813 1.78125 1.51563 0 1.14062-.73437 1.59375-1.95312 1.59375Zm0 0"/><path id="j" d="M.5625-3.98437c0 1.375.40625 2.46875 1.09375 3.17187.71875.71875 1.875.98438 3.17188.98438.9375 0 2.01562-.26563 2.5625-.5625l.17187-1.9375h-.34375c-.32812 1.21875-.9375 2.09375-2.45312 2.09375C2.35938-.23437 1.85938-2.59375 1.85938-4c0-1.90625.75-3.82812 2.92187-3.82812 1.1875 0 2.01563.5 2.25 1.875H7.375v-1.82813c-.51562-.25-1.40625-.45312-2.46875-.45312-1.4375 0-2.59375.42187-3.28125 1.20312C.95313-6.29687.5625-5.29687.5625-3.98437m0 0"/><path id="k" d="M.40625 0h3.64063C7.625 0 8.51563-2.09375 8.51563-4.17187c0-1.90625-.84375-3.875-4.23438-3.875h-3.875v.32812c1.03125.07813 1.0625.09375 1.0625.75v5.89063c0 .65625-.03125.67187-1.0625.75Zm2.20313-1.46875v-5.51562c0-.60938.10937-.67188 1.35937-.67188 2.46875 0 3.25 1.5625 3.25 3.53125 0 2.9375-1.4375 3.71875-3.40625 3.71875-1.01562 0-1.20312-.14062-1.20312-1.0625m0 0"/><path id="l" d="M.40625 0h6.17188l.14062-2.01562H6.375C6.09375-.59375 5.57813-.40625 4.10938-.40625c-.54688 0-.96875-.01562-1.20313-.10937-.25-.10938-.29687-.3125-.29687-.89063v-2.57812h1.625c1 0 1.04687.29687 1.14062 1.01562h.34375v-2.45312H5.375c-.09375.71875-.14062 1.01562-1.14062 1.01562h-1.625v-2.82812c0-.375.04687-.42188.42187-.42188h1.14063c1.32812 0 1.60937.29688 1.76562 1.51563h.35938v-1.90625H.40625v.32812c1.03125.07813 1.0625.09375 1.0625.75v5.89063c0 .65625-.03125.67187-1.0625.75Zm0 0"/><clipPath id="a"><path d="M15 0h123.5664v124H15Zm0 0"/></clipPath><clipPath id="b"><path d="M14 0h124.5664v124H14Zm0 0"/></clipPath></defs><g clip-path="url(#a)"><path fill="#FFF" d="M15.03516 123.53125V.19531h123.33203v123.33594Zm0 0"/></g><g fill="none" stroke-miterlimit="10" stroke-width=".39631" clip-path="url(#b)"><path stroke="#FFF" d="M15.03516 123.53125V.1953h123.33203v123.33594Zm0 0"/><path stroke="#000" d="M15.03516 123.53125h123.33203M15.03516 98.86328h123.33203M15.03516 74.19531h123.33203M15.03516 49.53125h123.33203M15.03516 24.86328h123.33203M15.03516.20703h123.33203M15.03516 123.53125V.1953m24.66797 123.33594V.1953m24.66406 123.33594V.1953m24.66797 123.33594V.1953m24.66797 123.33594V.1953m24.65625 123.33594V.1953"/></g><path fill="#00ADEF" stroke="#00ADEF" stroke-miterlimit="10" stroke-width=".39631" d="M44.63672 44.59766V29.79687H59.4375v14.80079Zm0 0"/><path fill="#EC008C" stroke="#EC008C" stroke-miterlimit="10" stroke-width=".39631" d="M108.76953 61.86328c0-4.08594-3.3125-7.39844-7.40234-7.39844-4.08594 0-7.39844 3.3125-7.39844 7.39844s3.3125 7.39844 7.39844 7.39844c4.08984 0 7.40234-3.3125 7.40234-7.39844Zm0 0"/><use xlink:href="#c" x="4.49292" y="115.15315"/><use xlink:href="#d" x="4.49292" y="90.48757"/><use xlink:href="#e" x="4.49292" y="65.75236"/><use xlink:href="#f" x="4.49292" y="41.08677"/><use xlink:href="#g" x="4.49292" y="16.35256"/><use xlink:href="#h" x="23.67782" y="135.95511"/><use xlink:href="#i" x="48.27678" y="135.95511"/><use xlink:href="#j" x="72.72556" y="136.14108"/><use xlink:href="#k" x="96.83523" y="135.95511"/><use xlink:href="#l" x="122.51023" y="135.95511"/></svg>