<svg xmlns="http://www.w3.org/2000/svg" xmlns:xlink="http://www.w3.org/1999/xlink" width="285.409" height="174.831" viewBox="0 0 285.409 174.831"><defs><path id="c" d="M.875-7.03125C.875-2.8125 2.10938.25 5.57813.25s4.71875-3.0625 4.71875-7.28125c0-4.20312-1.25-7.26562-4.71875-7.26562S.875-11.23437.875-7.03125m2.125 0c0-3.42187.57813-6.53125 2.57813-6.53125 1.98437 0 2.5625 3.10938 2.5625 6.53125S7.5625-.5 5.57813-.5C3.57813-.5 3-3.60937 3-7.03125m0 0"/><path id="d" d="M2.28125 0h6.92188v-.60937L7.42188-.76563c-.4375-.04687-.6875-.20312-.6875-1.03124V-14.1875l-.10938-.10937-4.34375.73437v.51563l1.96875.25c.35938.04687.5.20312.5.79687v10.20313c0 .82812-.20312.98437-.70312 1.03125l-1.76563.15624Zm0 0"/><path id="e" d="M.5625-.20312.78125 0h8.70313l.71875-2.78125-.57813-.10937C9.17188-1.75 8.75-1.59375 7.89063-1.59375H2.53125c.32813-1.09375 1.57813-2.59375 3.53125-4 2.01563-1.48437 3.57813-2.42187 3.57813-4.76562 0-2.9375-1.9375-3.9375-4.15625-3.9375-2.89063 0-4.35938 1.75-4.35938 2.84375 0 .71875.79688 1.04687 1.15625 1.04687.375 0 .51563-.21875.60938-.57812.32812-1.4375 1.15625-2.57813 2.45312-2.57813 1.60938 0 2.07813 1.34375 2.07813 2.89063 0 2.26562-1.14063 3.53125-2.96875 5.14062C1.85938-3.26562.96875-1.82812.5625-.20312m0 0"/><path id="f" d="M.5625-2.14062C.5625-1.25 2.01563.25 4.98438.25c3.04687 0 4.96875-1.54687 4.96875-4.23437 0-2.8125-2.40625-3.64063-3.57813-3.75v-.09375c1.14063-.1875 2.95313-1.03125 2.95313-3.10938 0-2.32812-1.8125-3.35937-4.0625-3.35937-2.78125 0-4.14063 1.60937-4.14063 2.5 0 .65625.73438 1.01562 1.01563 1.01562s.4375-.15625.51562-.42187c.46875-1.4375 1.26563-2.35938 2.4375-2.35938 1.65625 0 2.09375 1.45313 2.09375 2.64063 0 1.25-.45312 2.84375-2.25 2.84375-1 0-1.57812-.20313-1.82812-.20313-.26563 0-.375.20313-.375.57813 0 .35937.10937.59375.375.59375.25 0 .82812-.20313 1.82812-.20313 1.79688 0 2.79688 1.60938 2.79688 3.4375 0 2.51563-1.21875 3.375-2.71875 3.375-1.39063 0-2.3125-1.01562-2.71875-2.20312-.125-.40625-.32813-.60938-.625-.60938-.375 0-1.10938.40625-1.10938 1.17188m0 0"/><path id="m" d="M.67188-5.6875c0 3.46875 1.98437 6 6.17187 6 3.71875 0 5.53125-1.90625 6.6875-3.98437C14.67188-5.73437 14.875-7.875 14.875-8.70312c0-4.3125-2.60937-6.17188-6.07812-6.17188-3.35938 0-5.4375 1.85938-6.67188 3.85938C.96875-9.0625.67188-7.07812.67188-5.6875m2.21875.85938c0-1.76563.32812-3.73438 1.29687-5.78125.95313-1.98438 2.45313-3.53125 4.70313-3.53125 2.29687 0 3.78125 1.35937 3.78125 4.34375 0 1.20312-.125 2.92187-.98438 5.17187-.875 2.25-2.3125 4.20313-5.04687 4.20313-2.28125 0-3.75-1.48438-3.75-4.40625m0 0"/><path id="g" d="M1-7.26562c0 2.34375.65625 4.29687 1.79688 5.54687C3.98438-.40625 5.70313.3125 8.01563.3125c2.29687 0 4.01562-.71875 5.20312-2.03125 1.14063-1.25 1.79688-3.20312 1.79688-5.54687 0-2.35938-.65625-4.29688-1.79688-5.5625-1.1875-1.3125-2.90625-2.04688-5.20312-2.04688-2.3125 0-4.03125.73438-5.21875 2.04688C1.65625-11.5625 1-9.625 1-7.26562m2.35938 0c0-3.09375.92187-6.875 4.65625-6.875s4.65625 3.78125 4.65625 6.875c0 3.07812-.92188 6.84375-4.65625 6.84375S3.35938-4.1875 3.35938-7.26562m0 0"/><path id="h" d="M.67188 0h5.54687v-.60937c-1.875-.10938-1.98437-.15626-1.98437-1.21875V-6.75c0-1.625.70312-2.17187 1.20312-2.17187.32813 0 .6875.125 1.29688.46875.15625.07812.3125.10937.42187.10937.51563 0 .96875-.54687.96875-1.1875C8.125-10 7.82813-10.5625 7-10.5625c-.75 0-1.39062.45313-2.76562 1.67188l-.25-1.67188-3.20313.53125v.51563l.78125.125c.54688.07812.70313.17187.70313.9375v6.625c0 1.0625-.125 1.10937-1.59375 1.21875Zm0 0"/><path id="i" d="M1.92188-13.76562c0 .76562.54687 1.29687 1.29687 1.29687C3.98438-12.46875 4.5-13 4.5-13.76562c0-.75-.51562-1.26563-1.28125-1.26563-.75 0-1.29687.51563-1.29687 1.26563M.67188 0h5.125v-.60937c-1.5-.10938-1.5625-.15626-1.5625-1.21875v-8.59375l-.15625-.14063-3.29688.53125v.51563l.78125.125c.54688.07812.70313.17187.70313.9375v6.625c0 1.0625-.07813 1.10937-1.59375 1.21875Zm0 0"/><path id="j" d="M.875 2.01563c0 2.125 2.125 3.0625 4.5625 3.0625 1.25 0 2.57813-.25 3.57813-.84375.96875-.59375 1.67187-1.59375 1.67187-2.89063 0-2.28125-1.79687-3.0625-4.0625-3.0625H4.9375c-1.51562 0-1.73437-.51562-1.73437-.92187 0-.60938.79687-.9375 1.07812-1.03125.39063.04687.84375.0625 1.0625.0625 2 0 4.25-.85938 4.25-3.42188 0-.85937-.28125-1.60937-.64062-1.96875l1.67187-.26562.42188-1.3125-.17188-.1875-2.6875.85937c-.57812-.40625-1.76562-.65625-2.73437-.65625-3.21875 0-4.32813 1.96875-4.32813 3.53125 0 1.96875 1.29688 2.89063 2.25 3.14063v.04687c-1.14062.4375-1.92187 1.04688-1.92187 1.875 0 .73438.84375 1.51563 1.85937 1.64063v.03125C2.42188 0 .875.5.875 2.01563m2.01563-.09375c0-.71875.20312-1.25.64062-1.59375C4-.01562 4.70313-.15625 5.70313-.15625c1.85937 0 3.21875.46875 3.21875 2.03125 0 1.6875-1.51563 2.48438-3.01563 2.48438-1.79687 0-3.01562-.90625-3.01562-2.4375m.375-8.95313c0-2.07812 1.07812-2.79687 2.1875-2.79687 1.03125 0 2.10937.76562 2.10937 2.79687 0 1.76563-.89062 2.6875-2.125 2.6875-1.1875 0-2.17187-.92187-2.17187-2.6875m0 0"/><path id="k" d="M.67188 0h5.125v-.60937c-1.5-.10938-1.5625-.15626-1.5625-1.21875V-6.75c0-.54687.01562-.8125.20312-1.14062.4375-.82813 1.375-1.53125 2.5-1.53125 1.4375 0 2.21875.78125 2.21875 2.625v4.96875c0 1.0625-.07812 1.10937-1.59375 1.21875V0h5.14063v-.60937c-1.5-.10938-1.57813-.15626-1.57813-1.21875v-5.375c0-2.125-1.17187-3.35938-3.09375-3.35938-1.5625 0-2.53125.76563-3.82812 1.60938l-.28125-1.60938-3.14063.53125v.51563l.78125.125c.54688.07812.70313.17187.70313.9375v6.625c0 1.0625-.07813 1.10937-1.59375 1.21875Zm0 0"/><path id="l" d="M1.03125-5.07812C1.03125-1.75 2.46875.25 5.89063.25c2.32812 0 3.53125-1.29687 4.09375-2.95312l-.625-.34375C8.76563-1.8125 7.96875-.82812 6.3125-.82812c-2.625 0-3.14062-2.5-3.09375-4.70313h6.0625c.45313 0 .82813-.10937.82813-.79687 0-1.23438-.40625-4.23438-4.25-4.23438-3.28125 0-4.82813 2.32813-4.82813 5.48438m2.21875-1.25c0-.875.3125-3.5 2.5-3.5 1.95313 0 2.17188 2 2.17188 2.82812 0 .40625-.14063.67188-.71875.67188Zm0 0"/><path id="n" d="M.60938-13.9375c1.85937.125 1.89062.15625 1.89062 1.34375v7.26563c0 1.23437.20313 2.35937.5625 3.0625C4.03125-.20312 6.25.3125 8.29688.3125c2.07812 0 4.29687-.48437 5.26562-2.57812.35938-.73438.57813-1.84375.57813-3.10938v-7.21875c0-1.1875.04687-1.21875 1.875-1.34375v-.60937h-5.85938v.60937c1.85938.125 1.90625.15625 1.90625 1.34375v6.82813c0 1.98437-.34375 3.23437-.96875 4.09375-.64062.84375-1.5625 1.25-2.79687 1.25-1.20313 0-2.125-.40625-2.76563-1.25-.625-.85938-.9375-2.10938-.9375-4.09375v-6.82813c0-1.1875.0625-1.21875 1.89063-1.34375v-.60937h-5.875Zm0 0"/><path id="o" d="M.65625-9.46875h1.51563v7.32813C2.17188 0 3.76563.25 4.5.25c1.07813 0 2.07813-.54687 2.6875-.92187L7.03125-1.125c-.51562.20313-.96875.28125-1.5.28125-.71875 0-1.39062-.51562-1.39062-2.10937v-6.51563h2.70312v-.84375H4.14063v-2.64062h-.60938L2.26563-10.3125H.65625Zm0 0"/><path id="p" d="m4.23438-11.8125.3125.42188 3.17187-1.76563c.625-.34375 1.1875-.6875 1.1875-1.14062 0-.42188-.51562-.92188-.82812-.92188-.35938 0-.71875.23438-1.34375.875ZM1.03125-5.07812C1.03125-1.75 2.46875.25 5.89063.25c2.32812 0 3.53125-1.29687 4.09375-2.95312l-.625-.34375C8.76563-1.8125 7.96875-.82812 6.3125-.82812c-2.625 0-3.14062-2.5-3.09375-4.70313h6.0625c.45313 0 .82813-.10937.82813-.79687 0-1.23438-.40625-4.23438-4.25-4.23438-3.28125 0-4.82813 2.32813-4.82813 5.48438m2.21875-1.25c0-.875.3125-3.5 2.5-3.5 1.95313 0 2.17188 2 2.17188 2.82812 0 .40625-.14063.67188-.71875.67188Zm0 0"/><path id="q" d="M1.03125-4.9375C1.03125-1.82812 2.65625.25 5.4375.25c1.14063 0 2.10938-.51562 3.25-1.4375v1.03125L8.85938 0h3.40625v-.60937c-1.5-.10938-1.57813-.15626-1.57813-1.21875v-13.65625l-.15625-.10938-3.29687.51563v.53125l.79687.0625c.53125.07812.67188.1875.67188.98437v3.45313c-.57813-.3125-1.35938-.51563-2.32813-.51563-1.71875 0-3.01562.5625-3.89062 1.45313-.89063.9375-1.45313 2.32812-1.45313 4.17187m2.1875-.25c0-2.73437.98438-4.64062 3.14063-4.64062.98437 0 1.78125.45312 2.17187 1.32812.17188.35938.17188.67188.17188 1.23438v3.6875c0 .46875 0 .82812-.14063 1.1875C8.14063-1.29687 7.23438-.875 6.125-.875c-1.92187 0-2.90625-1.90625-2.90625-4.3125m0 0"/><path id="r" d="M.42188 0h5.125v-.60937c-1.5-.10938-1.5625-.15626-1.5625-1.21875v-13.65625l-.15625-.10938-3.29688.51563v.53125l.78125.0625c.54688.07812.67188.1875.67188.98437v11.67188c0 1.0625-.03126 1.10937-1.5625 1.21875Zm0 0"/><path id="s" d="M1.03125-5.14062C1.03125-1.75 2.70313.25 6.09375.25c3.375 0 5.03125-2 5.03125-5.39062 0-3.40625-1.65625-5.42188-5.03125-5.42188-3.39062 0-5.0625 2.01563-5.0625 5.42188m2.1875 0c0-2.92188.9375-4.6875 2.875-4.6875 1.92188 0 2.85938 1.76562 2.85938 4.6875C8.95313-2.23437 8.01563-.5 6.09375-.5c-1.9375 0-2.875-1.73437-2.875-4.64062m0 0"/><path id="t" d="m.53125-9.51562.8125.125c.53125.07812.67188.17187.67188.9375v5.54687C2.01563-.5 3.45313.25 5.01563.25 6.79688.25 8.25-.96875 8.85938-1.25L9.0625 0h3.375v-.60937c-1.45312-.10938-1.57812-.15626-1.57812-1.21875v-8.59375l-.17188-.14063-3.28125.53125v.51563l.8125.125c.53125.07812.67188.17187.67188.9375v4.73437c0 .59375-.07813 1.0625-.1875 1.25C8.21875-1.5 7.23438-.875 6.125-.875 4.90625-.875 4-1.65625 4-3.29687v-7.125l-.15625-.14063-3.3125.53125Zm0 0"/><clipPath id="a"><path d="M61 80h223.82031v2H61Zm0 0"/></clipPath><clipPath id="b"><path d="M281 77h3.82031v8H281Zm0 0"/></clipPath></defs><g clip-path="url(#a)"><path fill="none" stroke="#000" stroke-miterlimit="10" stroke-width=".79536" d="M61.65625 81.2539H283.629"/></g><g clip-path="url(#b)"><path fill="none" stroke="#000" stroke-linecap="round" stroke-linejoin="round" stroke-miterlimit="10" stroke-width=".79536" d="M281.48047 78.15234c.46484 1.85938 1.5039 2.7422 2.54687 3.10157-1.04297.36328-2.08203 1.24218-2.54687 3.10547"/></g><path fill="none" stroke="#000" stroke-miterlimit="10" stroke-width=".79536" d="M61.65625 65.34374v31.82424"/><use xlink:href="#c" x="56.08387" y="119.81142"/><path fill="none" stroke="#000" stroke-miterlimit="10" stroke-width=".79536" d="M125.30472 65.34374v31.82424"/><use xlink:href="#d" x="119.73207" y="119.81142"/><path fill="none" stroke="#000" stroke-miterlimit="10" stroke-width=".79536" d="M188.95318 65.34374v31.82424"/><use xlink:href="#e" x="183.37927" y="119.81142"/><path fill="none" stroke="#000" stroke-miterlimit="10" stroke-width=".79536" d="M252.60165 65.34374v31.82424"/><use xlink:href="#f" x="247.02748" y="119.81142"/><path fill="none" stroke="#007F7F" stroke-miterlimit="10" stroke-width=".39768" d="m125.30472 17.60544-50.5469 18.95704"/><path fill="none" stroke="#007F7F" stroke-linecap="round" stroke-linejoin="round" stroke-miterlimit="10" stroke-width=".39766" d="M77.34375 38.14063c-.85547-1.20704-1.88281-1.54688-2.77344-1.50782.69531-.5586 1.2461-1.48828 1.09766-2.96093"/><g fill="#007F7F"><use xlink:href="#g" x="133.20517" y="22.58475"/><use xlink:href="#h" x="149.22182" y="22.58475"/></g><g fill="#007F7F"><use xlink:href="#i" x="157.56569" y="22.58475"/><use xlink:href="#j" x="163.67259" y="22.58475"/><use xlink:href="#i" x="174.58897" y="22.58475"/><use xlink:href="#k" x="180.69587" y="22.58475"/><use xlink:href="#l" x="193.69262" y="22.58475"/></g><use xlink:href="#m" x="53.88043" y="57.12722" fill="#007F7F"/><path fill="none" stroke="#FF7F00" stroke-miterlimit="10" stroke-width=".39768" d="M62.05078 132.1758h62.8555"/><path fill="none" stroke="#FF7F00" stroke-linecap="round" stroke-linejoin="round" stroke-miterlimit="10" stroke-width=".39768" d="M63.92188 134.5586c-.37891-1.4297-1.21875-2.10547-2.07032-2.38282.85157-.28125 1.69141-.95703 2.07032-2.38672m59.11328 0c.3789 1.42969 1.21875 2.10547 2.0703 2.38672-.85155.27735-1.6914.95313-2.0703 2.38282"/><use xlink:href="#n" x="7.45556" y="162.03199" fill="#FF7F00"/><g fill="#FF7F00"><use xlink:href="#k" x="23.22614" y="162.03199"/><use xlink:href="#i" x="36.22289" y="162.03199"/><use xlink:href="#o" x="42.3298" y="162.03199"/><use xlink:href="#p" x="49.55519" y="162.03199"/></g><g fill="#FF7F00"><use xlink:href="#q" x="65.0797" y="162.03199"/><use xlink:href="#l" x="77.65143" y="162.03199"/></g><g fill="#FF7F00"><use xlink:href="#r" x="93.17594" y="162.03199"/><use xlink:href="#s" x="99.03678" y="162.03199"/><use xlink:href="#k" x="111.16111" y="162.03199"/><use xlink:href="#j" x="124.15786" y="162.03199"/><use xlink:href="#t" x="135.07424" y="162.03199"/><use xlink:href="#l" x="147.80255" y="162.03199"/><use xlink:href="#t" x="158.60708" y="162.03199"/><use xlink:href="#h" x="171.33539" y="162.03199"/></g></svg>