<svg xmlns="http://www.w3.org/2000/svg" xmlns:xlink="http://www.w3.org/1999/xlink" width="142.131pt" height="123.878pt" viewBox="0 0 142.131 123.878"><defs><path id="g" d="M1.51563-7.70312 2-7.65625c.26563.03125.35938.125.42188.54688.14062 1.07812.28125 2.21875.42187 3.39062L3.34375 0h.79688L6.5-4.01562c.75-1.28125 1.46875-2.46875 1.9375-3.1875.26563-.39063.4375-.45313 1.04688-.5l.0625-.34375h-2.5625l-.04688.34375.64063.04687c.20312.01563.25.09375.125.375-.23438.51563-.79688 1.53125-1.78125 3.21875L4.26563-1.15625H4.25L3.84375-4.25c-.14062-1.03125-.25-2.04687-.35937-3.01562-.01563-.21875 0-.35938.20312-.375l.75-.0625.04688-.34375H1.57813Zm0 0"/><path id="h" d="m1.45313-5.23437.73437.0625c.28125.03125.28125.20312.17188.5625l-.79688 3.0625c-.25.92187-.15625 1.6875.78125 1.6875 1.10938 0 2.32813-1.23438 3.03125-2.57813h.01563l-.375 1.32813c-.21875.78125-.09375 1.25.53125 1.25.84375 0 1.53125-.79688 1.9375-1.65625l-.26563-.1875c-.23437.40625-.76562 1.23437-1.07812 1.23437-.25 0-.25-.26562-.15625-.625l1.25-4.75-1.03125.14063c-.34375 1.1875-.53125 1.8125-.82813 2.51562C4.85938-2.01562 3.84375-.46875 2.89063-.46875c-.375 0-.46875-.32812-.29688-1.01562l1.125-4.29688-.0625-.0625-2.125.32813Zm0 0"/><path id="i" d="M.92188-1.76562c0 1.625 1.0625 1.90625 1.73437 1.90625.85938 0 1.89063-.375 2.67188-1.65625L5.0625-1.75c-.42187.53125-1.04687 1.3125-1.92187 1.3125-.8125 0-1.0625-.6875-1.0625-1.60937 0-.0625 0-.09375.01562-.1875 1.95313-.39063 2.8125-.85938 3.29688-1.32813.40625-.40625.5-.79687.5-1.10937 0-.625-.5-1.17188-1.45313-1.17188-1.04687 0-1.90625.53125-2.54687 1.32813-.60938.75-.96875 1.76562-.96875 2.75m1.1875-.85938C2.3125-4.03125 3.1875-5.4375 4.125-5.4375c.40625 0 .67188.28125.67188.6875 0 .8125-.71875 1.70313-2.6875 2.125m0 0"/><path id="j" d="M.84375-1.39062c0 .75.21875 1.53125 1.15625 1.53125 1.34375 0 2.375-1.42188 3.0625-2.67188h.03125l-.39062 1.375c-.23438.82813-.0625 1.3125.53125 1.29688.85937 0 1.5-.79688 1.89062-1.67188l-.26562-.17187c-.21875.42187-.73438 1.23437-1.0625 1.23437-.23438 0-.20313-.26562-.10938-.625l1.84375-7.48437-.0625-.04688-2.07812.26563-.0625.28125.70312.0625c.28125.01562.3125.10937.20313.48437l-.4375 1.85938-.03125.03125c-.21875-.10938-.57813-.20313-.96875-.20313-2.71875 0-3.95313 3.03125-3.95313 4.45313M2-1.29688C2-2.5625 3-5.4375 4.85938-5.4375c.35937 0 .67187.10938.8125.23438-.17188.89062-.5625 2-1.15625 2.96875-.5625.89062-1.32813 1.76562-1.9375 1.76562-.375 0-.57813-.3125-.57813-.82812m0 0"/><path id="k" d="M.9375-1.71875c0 1.42188.85938 1.85938 1.67188 1.85938.875 0 1.84375-.375 2.65625-1.71875l-.29688-.21876C4.57813-1.26561 3.89063-.4375 3.125-.4375c-.85937 0-1.03125-.6875-1.03125-1.51562 0-1.51563.875-3.48438 1.9375-3.48438.375 0 .64063.23438.70313.9375.03125.20313.125.34375.34375.34375.28125 0 .73437-.26562.73437-.64062 0-.59375-.625-1.04688-1.5-1.04688-2.0625 0-3.375 2.21875-3.375 4.125m0 0"/><path id="l" d="M1.0625.14063 2.07813 0c.3125-1.1875.48437-1.82812.78125-2.5625.34375-.90625 1.5-2.67187 2.51562-2.67187.35938 0 .5.32812.35938.8125l-.9375 3.3125c-.23438.76562-.0625 1.25.59375 1.25.8125 0 1.46875-.79688 1.85937-1.67188l-.28125-.17187C6.75-1.28125 6.23438-.46875 5.92188-.46875c-.23438 0-.23438-.26562-.125-.625l.92187-3.0625c.28125-.92187.14063-1.6875-.79687-1.6875-1.10938 0-2.35938 1.20313-3.09375 2.59375h-.03125l1.29687-5.32812-.0625-.04688-2.09375.26563-.0625.28125L2.53125-8c.29688.03125.34375.10938.23438.5625Zm0 0"/><path id="m" d="M2.82813-7.54687c0 .4375.29687.65625.65625.65625.45312 0 .73437-.3125.73437-.78125 0-.45313-.3125-.64063-.625-.64063-.5 0-.76562.39063-.76562.76563M1.39063-1C1.21875-.32812 1.375.14063 2 .14063c.84375 0 1.48438-.79688 1.89063-1.67188l-.29688-.17187c-.20312.42187-.70312 1.23437-1.03125 1.23437-.23437 0-.21875-.26562-.125-.625l1.28125-4.6875-.0625-.0625-2.125.32813-.07812.28125.67187.0625c.3125.03125.34375.125.25.53125Zm0 0"/><path id="n" d="M1.14063.14063 2.17188 0C2.5-1.1875 2.70313-1.8125 3-2.53125c.4375-1.01562 1.54688-2.70312 2.5-2.70312.40625 0 .5.375.375.82812L4.875-1c-.1875.65625-.03125 1.14063.59375 1.14063.875 0 1.51563-.79688 1.92188-1.67188l-.28125-.17187c-.21875.42187-.71875 1.23437-1.04688 1.23437-.23437 0-.21875-.26562-.125-.625l.92188-3.0625c.26562-.92187.125-1.6875-.82813-1.6875C4.90625-5.84375 3.70313-4.60937 3-3.25h-.03125l.75-2.53125-.0625-.0625-2.125.32813-.07812.28125.73437.0625c.28125.03125.28125.1875.17188.5625Zm0 0"/><clipPath id="a"><path d="M0 53h141.26563v18H0Zm0 0"/></clipPath><clipPath id="b"><path d="M0 53h141.26563v19H0Zm0 0"/></clipPath><clipPath id="c"><path d="M53 .3164h36V19H53Zm0 0"/></clipPath><clipPath id="d"><path d="M52 .3164h37V19H52Zm0 0"/></clipPath><clipPath id="e"><path d="M0 53h141.26563v19H0Zm0 0"/></clipPath><clipPath id="f"><path d="M52 .3164h37V19H52Zm0 0"/></clipPath></defs><g clip-path="url(#a)"><path fill="#7FD6F7" d="M.19922 70.94922V53.33984h140.875v17.60938Zm0 0"/></g><g clip-path="url(#b)"><path fill="none" stroke="#000" stroke-miterlimit="10" stroke-width=".39608" d="M.1992 70.94922V53.33985h140.875v17.60937Zm0 0"/></g><path fill="#7FFF7F" stroke="#000" stroke-miterlimit="10" stroke-width=".39608" d="M17.80858 53.33985V35.73047h105.65624v17.60938Zm0 0"/><path fill="#FFF87F" stroke="#000" stroke-miterlimit="10" stroke-width=".39608" d="M35.41795 35.73047V18.1211h70.4375v17.60937Zm0 0"/><g clip-path="url(#c)"><path fill="#FF7F7F" d="M53.02734 18.1211V.51171H88.2461v17.60937Zm0 0"/></g><g clip-path="url(#d)"><path fill="none" stroke="#000" stroke-miterlimit="10" stroke-width=".39608" d="M53.02733 18.1211V.51173h35.21874V18.1211Zm0 0"/></g><g clip-path="url(#e)"><path fill="none" stroke="#000" stroke-miterlimit="10" stroke-width=".39608" d="M.1992 70.94922h140.875M.1992 53.35157h140.875M.1992 70.94922V53.33985m17.60938 17.60937V53.33985m17.60937 17.60937V53.33985m17.60938 17.60937V53.33985M70.6367 70.94922V53.33985m17.60937 17.60937V53.33985m17.60938 17.60937V53.33985m17.60937 17.60937V53.33985m17.60937 17.60937V53.33985"/></g><path fill="none" stroke="#000" stroke-miterlimit="10" stroke-width=".39608" d="M17.80858 53.33985h105.65624M17.80858 35.73047h105.65624M17.80858 53.33985V35.73047m17.60937 17.60938V35.73047m17.60938 17.60938V35.73047M70.6367 53.33985V35.73047m17.60937 17.60938V35.73047m17.60938 17.60938V35.73047m17.60937 17.60938V35.73047M35.41795 18.1211h70.4375M53.02733 35.73047V18.1211M70.6367 35.73047V18.1211m17.60937 17.60937V18.1211m17.60938 17.60937V18.1211"/><g clip-path="url(#f)"><path fill="none" stroke="#000" stroke-miterlimit="10" stroke-width=".39608" d="M53.02733.51173h35.21874M70.6367 18.1211V.51173M88.24607 18.1211V.51173"/></g><use xlink:href="#g" x="36.96599" y="119.1671"/><use xlink:href="#h" x="43.88508" y="119.1671"/><use xlink:href="#i" x="51.0641" y="119.1671"/><use xlink:href="#j" x="58.93627" y="119.1671"/><use xlink:href="#h" x="65.75634" y="119.1671"/><use xlink:href="#k" x="75.54704" y="119.1671"/><use xlink:href="#l" x="80.67137" y="119.1671"/><use xlink:href="#m" x="87.72662" y="119.1671"/><use xlink:href="#i" x="91.40277" y="119.1671"/><use xlink:href="#n" x="96.66326" y="119.1671"/></svg>