<svg xmlns="http://www.w3.org/2000/svg" xmlns:xlink="http://www.w3.org/1999/xlink" width="222.227pt" height="225.833pt" viewBox="0 0 222.227 225.833"><defs><path id="b" d="M2.03125 0h6.125v-.53125l-1.5625-.14062c-.39062-.04688-.60937-.1875-.60937-.92188v-11L5.875-12.6875l-3.84375.65625v.45313l1.73438.21875c.32812.04687.4375.17187.4375.71875v9.04687c0 .73438-.17188.875-.60938.92188l-1.5625.14062Zm0 0"/><path id="c" d="M.5-.17187.6875 0h7.73438l.64062-2.46875-.51562-.09375c-.40625 1.01563-.78125 1.15625-1.53125 1.15625H2.25c.29688-.98437 1.40625-2.3125 3.125-3.5625 1.79688-1.3125 3.1875-2.14062 3.1875-4.21875 0-2.60937-1.73437-3.5-3.70312-3.5C2.29688-12.6875 1-11.14062 1-10.17187c0 .64062.70313.9375 1.03125.9375.32813 0 .45313-.20313.53125-.51563.29688-1.26562 1.03125-2.28125 2.1875-2.28125 1.42188 0 1.84375 1.1875 1.84375 2.5625 0 2-1.01562 3.14063-2.64062 4.5625C1.64063-2.90625.85938-1.625.5-.17187m0 0"/><path id="d" d="M.5-1.90625c0 .79688 1.28125 2.125 3.92188 2.125 2.70312 0 4.42187-1.375 4.42187-3.75 0-2.5-2.15625-3.23437-3.1875-3.34375v-.07812c1.01563-.15625 2.625-.90625 2.625-2.76563 0-2.0625-1.60937-2.96875-3.60937-2.96875C2.20313-12.6875 1-11.26562 1-10.46875c0 .57813.64063.89063.90625.89063.23438 0 .375-.14063.45313-.375.42187-1.26563 1.10937-2.07813 2.17187-2.07813C6-12.03125 6.375-10.75 6.375-9.6875c0 1.10938-.39062 2.51563-1.98437 2.51563-.89063 0-1.40625-.17188-1.625-.17188-.25 0-.34375.17188-.34375.51563 0 .3125.09375.51562.34375.51562.21875 0 .73437-.1875 1.625-.1875C5.98438-6.5 6.875-5.0625 6.875-3.4375c0 2.21875-1.09375 3-2.42187 3-1.23438 0-2.04688-.90625-2.40625-1.96875-.125-.35937-.29688-.53125-.5625-.53125C1.15625-2.9375.5-2.57812.5-1.90625m0 0"/><path id="e" d="m.35938-3.73437.15625.39062h5.07812v1.90625c0 .64063-.1875.75-.65625.78125l-1.1875.125V0h4.92188v-.53125l-.82813-.10937c-.4375-.04688-.5625-.15626-.5625-.79688v-1.90625H9.1875v-.85937H7.28125v-8.26563H5.92188c-1.75 2.57813-3.85938 5.8125-5.5625 8.73438m1.34375-.46875c1.10937-2.03125 2.46875-4.20313 3.89062-6.46875v6.46875Zm0 0"/><path id="f" d="M.75-1.90625c0 .85938 1.3125 2.125 3.73438 2.125 3.07812 0 4.46875-1.85937 4.46875-4.23437 0-2.625-1.625-3.95313-3.84375-3.95313-1.03125 0-2.17188.46875-2.76563 1L2.76563-10.5c.04687-.48437.17187-.54687.53125-.54687H7.9375l.46875-1.26563-.10937-.15625H2.0625l-.17187.17188-.375 6.23437.45312.25C2.73438-6.71875 3.5-7.15625 4.51563-7.15625c1.1875 0 2.5.875 2.5 3.34375 0 1.92188-.78125 3.375-2.40625 3.375-1.3125 0-1.96875-.9375-2.34375-2-.09375-.28125-.28125-.46875-.53125-.46875-.39063 0-.98438.39063-.98438 1m0 0"/><path id="g" d="M-.53125 0h4.10938v-.53125l-.96875-.10937c-.5625-.04688-.64063-.25-.48438-.75C2.4375-2.5 2.8125-3.65625 3.25-4.98437h4.20313l1.25 3.57812c.17187.53125.09375.73438-.5.79688l-.85938.07812V0h4.79688v-.53125C11.04688-.64062 10.84375-.6875 10.5-1.67187L6.54688-12.90625H5.15625l-1.9375 5.51563c-.57812 1.625-1.375 3.85937-2.03125 5.5625C.79688-.8125.64063-.59375-.53125-.53125Zm4.04688-5.70312c.59375-1.85938 1.25-3.6875 1.8125-5.34375H5.375l1.85938 5.34375Zm0 0"/><path id="h" d="M.65625 0H6.4375c2.84375 0 4.65625-1.01562 4.65625-3.60937 0-2.20313-1.5625-3.1875-3.375-3.42188v-.03125C9.46875-7.42187 10.5-8.51562 10.5-9.95312c0-1.03125-.39062-1.79688-1.14062-2.29688-.73438-.48437-1.8125-.65625-3.29688-.65625H.65625v.53125c1.64063.125 1.6875.14063 1.6875 1.1875v9.45313c0 1.0625-.04687 1.07812-1.6875 1.20312ZM4.1875-2.07812v-4.5625h1.32813c2.32812 0 3.59375 1.15625 3.59375 3.14062 0 2.25-1.51563 2.84375-3.125 2.84375-1.5 0-1.79688-.28125-1.79688-1.42187m0-5.20313v-4.0625c0-.79687.0625-.92187 1.51563-.92187 1.35937 0 2.85937.51562 2.85937 2.4375 0 1.82812-1.17187 2.54687-3.125 2.54687Zm0 0"/><path id="i" d="M.89063-6.375c0 2.1875.65625 3.95313 1.76562 5.0625C3.8125-.15625 5.65625.28125 7.75.28125c1.48438 0 3.21875-.42187 4.10938-.89062l.25-3.125h-.54688C11.04688-1.78125 10.0625-.375 7.625-.375c-3.85937 0-4.64062-3.78125-4.64062-6.04687 0-3.04688 1.20312-6.125 4.6875-6.125 1.90625 0 3.23437.79687 3.59375 3h.54687v-2.92188c-.82812-.40625-2.23437-.73437-3.95312-.73437-2.29688 0-4.14063.67187-5.25 1.92187C1.53125-10.09375.89063-8.48437.89063-6.375m0 0"/><path id="j" d="M.65625 0h5.8125c5.75 0 7.17188-3.35937 7.17188-6.6875 0-3.0625-1.34375-6.21875-6.79688-6.21875H.65625v.53125c1.64063.125 1.6875.14063 1.6875 1.1875v9.45313c0 1.0625-.04687 1.07812-1.6875 1.20312ZM4.1875-2.34375v-8.85937c0-.96875.15625-1.0625 2.17188-1.0625 3.95312 0 5.20312 2.5 5.20312 5.65625 0 4.70312-2.3125 5.95312-5.45312 5.95312-1.625 0-1.92188-.21875-1.92188-1.6875m0 0"/><path id="k" d="M.65625 0h9.89063l.21875-3.23437h-.5625C9.76563-.95312 8.9375-.65625 6.59375-.65625c-.875 0-1.54687-.01562-1.95312-.17187C4.25-1 4.1875-1.32812 4.1875-2.25v-4.125h2.60938c1.57812 0 1.65625.45313 1.82812 1.625h.54688v-3.92187H8.625c-.17187 1.14062-.25 1.60937-1.82812 1.60937H4.1875v-4.53125c0-.59375.07813-.67187.67188-.67187H6.6875c2.125 0 2.5625.46875 2.82813 2.42187h.57812v-3.0625H.65625v.53125c1.64063.125 1.6875.14063 1.6875 1.1875v9.45313c0 1.0625-.04687 1.07812-1.6875 1.20312Zm0 0"/><clipPath id="a"><path d="M23 .3086h198.45703V199H23Zm0 0"/></clipPath></defs><g stroke-miterlimit="10" stroke-width=".39712" clip-path="url(#a)"><path fill="#FFF" stroke="#FFF" d="M23.51953 198.24219V.50383H221.2618V198.2422Zm0 0"/><path fill="none" stroke="#000" d="M23.51953 198.24219H221.2618m-197.74226-39.5469H221.2618M23.51953 119.14842H221.2618M23.51953 79.5976H221.2618M23.51953 40.05072H221.2618M23.51953.51946H221.2618M23.51953 198.24219V.50383m39.5508 197.73836V.50383m39.54689 197.73836V.50383M142.1641 198.2422V.50383M181.711 198.2422V.50383m39.53517 197.73836V.50383"/></g><path fill="#00ADEF" stroke="#00ADEF" stroke-miterlimit="10" stroke-width=".39712" d="M70.97658 71.69136V47.96088h23.73048v23.73048Zm0 0"/><path fill="#EC008C" stroke="#EC008C" stroke-miterlimit="10" stroke-width=".39712" d="M173.80474 99.37496c0-6.55469-5.3125-11.86719-11.86719-11.86719-6.55078 0-11.86328 5.3125-11.86328 11.8672 0 6.55078 5.3125 11.86328 11.86328 11.86328 6.5547 0 11.8672-5.3125 11.8672-11.86329Zm0 0"/><use xlink:href="#b" x="6.61798" y="184.81341"/><use xlink:href="#c" x="6.61798" y="145.26597"/><use xlink:href="#d" x="6.61798" y="105.60992"/><use xlink:href="#e" x="6.61798" y="66.06248"/><use xlink:href="#f" x="6.61798" y="26.40542"/><use xlink:href="#g" x="37.37798" y="218.1644"/><use xlink:href="#h" x="76.8158" y="218.1644"/><use xlink:href="#i" x="116.01545" y="218.46237"/><use xlink:href="#j" x="154.66999" y="218.1644"/><use xlink:href="#k" x="195.8348" y="218.1644"/></svg>