<svg xmlns="http://www.w3.org/2000/svg" xmlns:xlink="http://www.w3.org/1999/xlink" width="510.634pt" height="254.778pt" viewBox="0 0 510.634 254.778"><defs><path id="d" d="m2.45313-12.40625.75.07813c.4375.0625.59375.21875.70312.90625.21875 1.70312.4375 3.5625.67188 5.4375L5.375 0h1.29688l3.78125-6.45312c1.21875-2.0625 2.35937-3.98438 3.125-5.125.42187-.64063.6875-.75 1.6875-.82813l.10937-.53125H11.25l-.10937.53125 1.04687.07813c.32813.04687.40625.17187.21875.60937-.40625.82813-1.29687 2.46875-2.875 5.1875L6.875-1.875h-.04687l-.65625-4.96875C5.95313-8.5 5.76563-10.125 5.60938-11.6875c-.03125-.35937-.01563-.57812.32812-.60937l1.1875-.10938.09375-.53125H2.54688Zm0 0"/><path id="e" d="m2.34375-8.42187 1.17188.09375c.46875.04687.45312.32812.28125.90625l-1.28125 4.9375C2.10938-1 2.26563.21875 3.76563.21875c1.78125 0 3.76562-1.96875 4.875-4.14062h.03125l-.60938 2.125C7.70313-.53125 7.92188.21875 8.92188.21875c1.34375 0 2.46875-1.28125 3.125-2.67187l-.4375-.28125C11.23438-2.09375 10.39063-.75 9.875-.75c-.40625 0-.40625-.42187-.23437-1l2-7.64062-1.67188.21875c-.53125 1.90625-.85937 2.90625-1.32812 4.03125C7.82813-3.25 6.1875-.75 4.64063-.75c-.59375 0-.73438-.54687-.45313-1.64062l1.78125-6.90625-.09375-.09375-3.40625.51562Zm0 0"/><path id="f" d="M1.5-2.84375c0 2.625 1.6875 3.0625 2.78125 3.0625 1.375 0 3.03125-.59375 4.29688-2.67187l-.4375-.375c-.67188.875-1.6875 2.125-3.07813 2.125-1.3125 0-1.71875-1.10938-1.71875-2.57813 0-.10937 0-.15625.01563-.29687 3.15625-.64063 4.53125-1.40625 5.3125-2.15625.67187-.65625.79687-1.26563.79687-1.79688 0-.98437-.79687-1.85937-2.32812-1.85937-1.6875 0-3.0625.84375-4.09375 2.125C2.04688-6.04687 1.5-4.42187 1.5-2.84375m1.90625-1.375c.3125-2.26562 1.73438-4.51562 3.21875-4.51562.65625 0 1.07813.4375 1.07813 1.09375 0 1.3125-1.14063 2.75-4.29688 3.42187m0 0"/><path id="g" d="M1.35938-2.25c0 1.21875.35937 2.46875 1.85937 2.46875 2.15625 0 3.82813-2.28125 4.92188-4.29687h.04687l-.625 2.23437c-.375 1.32813-.09375 2.07813.85938 2.0625 1.375 0 2.40625-1.28125 3.04687-2.6875l-.4375-.26562C10.6875-2.0625 9.85938-.75 9.34375-.75c-.39062 0-.34375-.42187-.1875-1.01562l2.95313-12.03125L12-13.875l-3.32812.4375L8.57813-13l1.10937.09375c.46875.04688.5.1875.34375.78125L9.3125-9.10937l-.03125.03125c-.35937-.17188-.9375-.3125-1.57812-.3125-4.35938 0-6.34375 4.875-6.34375 7.14062m1.84375.15625c0-2.03125 1.64062-6.64062 4.625-6.64062.57812 0 1.0625.17187 1.28125.375-.26563 1.4375-.89063 3.20312-1.84375 4.75C6.375-2.15625 5.14063-.75 4.14063-.75c-.59375 0-.9375-.5-.9375-1.34375m0 0"/><path id="h" d="M1.51563-2.76562c0 2.28125 1.375 2.98437 2.6875 2.98437 1.39062 0 2.96875-.59375 4.25-2.75L8-2.89062c-.64062.85937-1.73437 2.1875-2.98437 2.1875-1.375 0-1.65625-1.10938-1.65625-2.4375 0-2.4375 1.42187-5.59375 3.125-5.59375.60937 0 1.01562.375 1.14062 1.48437.03125.34375.20313.5625.53125.5625.46875 0 1.20313-.42187 1.20313-1.03125 0-.95312-1.01563-1.67187-2.40625-1.67187-3.32813 0-5.4375 3.5625-5.4375 6.625m0 0"/><path id="i" d="M1.71875.21875 3.34375 0c.5-1.90625.78125-2.95312 1.25-4.125C5.15625-5.57812 7-8.42187 8.64063-8.42187c.59375 0 .8125.53125.59375 1.3125l-1.53125 5.3125C7.34375-.5625 7.60938.21875 8.67188.21875c1.29687 0 2.35937-1.28125 3-2.6875l-.46875-.26562C10.875-2.0625 10.03125-.75 9.51563-.75c-.375 0-.35938-.42187-.17188-1.01562L10.8125-6.6875c.45313-1.46875.21875-2.70312-1.29687-2.70312-1.76563 0-3.78125 1.92187-4.98438 4.17187H4.5l2.09375-8.57812-.10937-.07813-3.35938.4375L3-13l1.07813.125c.48437.0625.54687.17188.375.90625Zm0 0"/><path id="j" d="M1.23438-2.01562c0 1.125.51562 2.23437 1.79687 2.23437 2 0 3.73438-2.3125 4.82813-4.21875h.04687l-.64062 2.125C6.875-.53125 7.0625.21875 8.07813.21875c1.42187 0 2.46875-1.28125 3.10937-2.6875l-.4375-.26562C10.40625-2.0625 9.57813-.75 9.0625-.75c-.39062 0-.34375-.42187-.1875-1.01562l1.96875-7.46875h-1.5625L9.20313-9c-.32813-.21875-.875-.39062-1.375-.39062-4.46875 0-6.59375 4.90625-6.59375 7.375m1.84375-.03125c0-2.04688 1.84375-6.6875 4.78125-6.6875.46875 0 .85937.15625 1.14062.40625-.34375 1.40625-1 3.25-2 4.75C5.95313-1.98437 4.79688-.75 3.90625-.75c-.625 0-.82812-.5625-.82812-1.29687m0 0"/><path id="k" d="M2.34375-1.60937C2.0625-.53125 2.29688.21874 3.21875.21874c1.5 0 2.6875-1.23437 3.45313-2.625L6.25-2.73437C5.8125-1.98437 4.85938-.75 4.28125-.75 3.875-.75 3.875-1.17187 4-1.65625l1.67188-6.79687H8l.21875-.71875H5.82813l.64062-2.21875-.21875-.14063-1.8125 1.4375-.23437.92188H2.67188l-.20313.71875h1.54688Zm0 0"/><path id="n" d="M4.5625-12.14062c0 .6875.46875 1.04687 1.03125 1.04687.73438 0 1.1875-.48437 1.1875-1.25 0-.73437-.48437-1.03125-1.01562-1.03125-.78125 0-1.20313.64063-1.20313 1.23438M2.25-1.60937C1.96875-.53125 2.20313.21874 3.21875.21874c1.35938 0 2.39063-1.28125 3.03125-2.6875l-.45312-.26562C5.45313-2.0625 4.64063-.75 4.125-.75c-.375 0-.35937-.42187-.20312-1.01562l2.04687-7.53125-.09375-.09375-3.40625.51562-.125.45313 1.07813.09375c.5.04687.5625.20312.40625.85937Zm0 0"/><path id="o" d="M1.82813.21875 3.48438 0c.53125-1.90625.875-2.92187 1.35937-4.07812.6875-1.60938 2.48438-4.34375 4-4.34375.65625 0 .8125.59375.60938 1.32812L7.84375-1.60937C7.54688-.5625 7.78125.21874 8.79688.21874c1.39062 0 2.45312-1.28125 3.09375-2.6875l-.46875-.26562C11.09375-2.0625 10.26563-.75 9.75-.75c-.375 0-.35937-.42187-.1875-1.01562l1.46875-4.92188c.4375-1.46875.20313-2.70312-1.34375-2.70312-1.78125 0-3.73437 1.98437-4.84375 4.17187h-.0625l1.20313-4.07812-.09375-.09375-3.42188.51562-.125.45313 1.17188.09375c.46875.04687.45312.3125.28125.90625Zm0 0"/><clipPath id="a"><path d="M.03906 0H227v227H.03906Zm0 0"/></clipPath><clipPath id="b"><path d="M.03906 0H228v227H.03906Zm0 0"/></clipPath><clipPath id="c"><path d="M.03906 0H228v227H.03906Zm0 0"/></clipPath><clipPath id="l"><path d="M283 141h227.23047v30H283Zm0 0"/></clipPath><clipPath id="m"><path d="M283 141h227.23047v30H283Zm0 0"/></clipPath></defs><g clip-path="url(#a)"><path fill="#7FD6F7" d="M.23828 226.77344V.1953h226.57813v226.57813Zm0 0"/></g><g clip-path="url(#b)"><path fill="none" stroke="#7FD6F7" stroke-miterlimit="10" stroke-width=".39815" d="M.23828 226.77344V.1954h226.57803v226.57803Zm0 0"/></g><path fill="#7FFF7F" stroke="#7FFF7F" stroke-miterlimit="10" stroke-width=".39815" d="M28.55858 198.44923V28.51571h169.93353v169.93352Zm0 0"/><path fill="#FFF87F" stroke="#FFF87F" stroke-miterlimit="10" stroke-width=".39815" d="M56.88279 170.12893V56.83991H170.1718v113.28902Zm0 0"/><path fill="#FF7F7F" stroke="#FF7F7F" stroke-miterlimit="10" stroke-width=".39815" d="M85.20309 141.80472v-56.6445h56.6445v56.6445Zm0 0"/><g clip-path="url(#c)"><path fill="none" stroke="#000" stroke-miterlimit="10" stroke-width=".39815" d="M.23828 226.77344h226.57803M.23828 198.44924h226.57803M.23828 170.12892h226.57803M.23828 141.80473h226.57803M.23828 113.48442h226.57803M.23828 85.1602h226.57803M.23828 56.83991h226.57803M.23828 28.51961h226.57803M.23828.19541h226.57803M.23828 226.77344V.1954m28.3203 226.57803V.1954M56.8828 226.77344V.1954m28.3203 226.57803V.1954m28.3242 226.57803V.1954m28.3203 226.57803V.1954m28.32421 226.57803V.1954m28.3203 226.57803V.1954m28.32421 226.57803V.1954"/></g><use xlink:href="#d" x="63.14845" y="247.68218"/><use xlink:href="#e" x="74.27698" y="247.68218"/><use xlink:href="#f" x="85.82358" y="247.68218"/><use xlink:href="#g" x="98.48503" y="247.68218"/><use xlink:href="#e" x="109.4543" y="247.68218"/><use xlink:href="#h" x="125.20147" y="247.68218"/><use xlink:href="#i" x="133.44336" y="247.68218"/><use xlink:href="#j" x="144.79088" y="247.68218"/><use xlink:href="#k" x="155.28236" y="247.68218"/><g clip-path="url(#l)"><path fill="#7FD6F7" stroke="#000" stroke-miterlimit="10" stroke-width=".39815" d="M283.46082 170.12893v-28.3242h226.57413v28.3242Zm0 0"/></g><path fill="#7FFF7F" stroke="#000" stroke-miterlimit="10" stroke-width=".39815" d="M311.78112 141.80472v-28.3203h169.93353v28.3203Zm0 0"/><path fill="#FFF87F" stroke="#000" stroke-miterlimit="10" stroke-width=".39815" d="M340.10533 113.48442v-28.3242h113.2851v28.3242Zm0 0"/><path fill="#FF7F7F" stroke="#000" stroke-miterlimit="10" stroke-width=".39815" d="M368.42563 85.16021v-28.3203h56.6445v28.3203Zm0 0"/><g clip-path="url(#m)"><path fill="none" stroke="#000" stroke-miterlimit="10" stroke-width=".39815" d="M283.46082 170.12893h226.57413m-226.57413-28.30468h226.57413m-226.57413 28.30468v-28.3242m28.3203 28.3242v-28.3242m28.3242 28.3242v-28.3242m28.3203 28.3242v-28.3242m28.32031 28.3242v-28.3242m28.3242 28.3242v-28.3242m28.3203 28.3242v-28.3242m28.32422 28.3242v-28.3242m28.3203 28.3242v-28.3242"/></g><path fill="none" stroke="#000" stroke-miterlimit="10" stroke-width=".39815" d="M311.78112 141.80472h169.93353m-169.93353-28.3203h169.93353m-169.93353 28.3203v-28.3203m28.3242 28.3203v-28.3203m28.3203 28.3203v-28.3203m28.32031 28.3203v-28.3203m28.3242 28.3203v-28.3203m28.3203 28.3203v-28.3203m28.32422 28.3203v-28.3203M340.10533 85.16021h113.2851m-84.9648 28.32421v-28.3242m28.3203 28.3242v-28.3242m28.3242 28.3242v-28.3242m28.3203 28.3242v-28.3242m-84.9648-28.32031h56.6445m-28.3242 28.3203v-28.3203m28.3242 28.3203v-28.3203"/><use xlink:href="#d" x="342.59395" y="247.68218"/><use xlink:href="#e" x="353.72249" y="247.68218"/><use xlink:href="#f" x="365.26909" y="247.68218"/><use xlink:href="#g" x="377.93053" y="247.68218"/><use xlink:href="#e" x="388.8998" y="247.68218"/><use xlink:href="#h" x="404.64698" y="247.68218"/><use xlink:href="#i" x="412.88886" y="247.68218"/><use xlink:href="#n" x="424.23639" y="247.68218"/><use xlink:href="#f" x="430.14904" y="247.68218"/><use xlink:href="#o" x="438.60991" y="247.68218"/></svg>