<svg xmlns="http://www.w3.org/2000/svg" xmlns:xlink="http://www.w3.org/1999/xlink" width="142.131pt" height="159.311pt" viewBox="0 0 142.131 159.311"><defs><path id="c" d="M1.51563-7.70312 2-7.65625c.26563.03125.35938.125.42188.54688.14062 1.07812.28125 2.21875.42187 3.39062L3.34375 0h.79688L6.5-4.01562c.75-1.28125 1.46875-2.46875 1.9375-3.1875.26563-.39063.4375-.45313 1.04688-.5l.0625-.34375h-2.5625l-.04688.34375.64063.04687c.20312.01563.25.09375.125.375-.23438.51563-.79688 1.53125-1.78125 3.21875L4.26563-1.15625H4.25L3.84375-4.25c-.14062-1.03125-.25-2.04687-.35937-3.01562-.01563-.21875 0-.35938.20312-.375l.75-.0625.04688-.34375H1.57813Zm0 0"/><path id="d" d="m1.45313-5.23437.73437.0625c.28125.03125.28125.20312.17188.5625l-.79688 3.0625c-.25.92187-.15625 1.6875.78125 1.6875 1.10938 0 2.32813-1.23438 3.03125-2.57813h.01563l-.375 1.32813c-.21875.78125-.09375 1.25.53125 1.25.84375 0 1.53125-.79688 1.9375-1.65625l-.26563-.1875c-.23437.40625-.76562 1.23437-1.07812 1.23437-.25 0-.25-.26562-.15625-.625l1.25-4.75-1.03125.14063c-.34375 1.1875-.53125 1.8125-.82813 2.51562C4.85938-2.01562 3.84375-.46875 2.89063-.46875c-.375 0-.46875-.32812-.29688-1.01562l1.125-4.29688-.0625-.0625-2.125.32813Zm0 0"/><path id="e" d="M.92188-1.76562c0 1.625 1.0625 1.90625 1.73437 1.90625.85938 0 1.89063-.375 2.67188-1.65625L5.0625-1.75c-.42187.53125-1.04687 1.3125-1.92187 1.3125-.8125 0-1.0625-.6875-1.0625-1.60937 0-.0625 0-.09375.01562-.1875 1.95313-.39063 2.8125-.85938 3.29688-1.32813.40625-.40625.5-.79687.5-1.10937 0-.625-.5-1.17188-1.45313-1.17188-1.04687 0-1.90625.53125-2.54687 1.32813-.60938.75-.96875 1.76562-.96875 2.75m1.1875-.85938C2.3125-4.03125 3.1875-5.4375 4.125-5.4375c.40625 0 .67188.28125.67188.6875 0 .8125-.71875 1.70313-2.6875 2.125m0 0"/><path id="f" d="M.84375-1.39062c0 .75.21875 1.53125 1.15625 1.53125 1.34375 0 2.375-1.42188 3.0625-2.67188h.03125l-.39062 1.375c-.23438.82813-.0625 1.3125.53125 1.29688.85937 0 1.5-.79688 1.89062-1.67188l-.26562-.17187c-.21875.42187-.73438 1.23437-1.0625 1.23437-.23438 0-.20313-.26562-.10938-.625l1.84375-7.48437-.0625-.04688-2.07812.26563-.0625.28125.70312.0625c.28125.01562.3125.10937.20313.48437l-.4375 1.85938-.03125.03125c-.21875-.10938-.57813-.20313-.96875-.20313-2.71875 0-3.95313 3.03125-3.95313 4.45313M2-1.29688C2-2.5625 3-5.4375 4.85938-5.4375c.35937 0 .67187.10938.8125.23438-.17188.89062-.5625 2-1.15625 2.96875-.5625.89062-1.32813 1.76562-1.9375 1.76562-.375 0-.57813-.3125-.57813-.82812m0 0"/><path id="g" d="M.9375-1.71875c0 1.42188.85938 1.85938 1.67188 1.85938.875 0 1.84375-.375 2.65625-1.71875l-.29688-.21876C4.57813-1.26561 3.89063-.4375 3.125-.4375c-.85937 0-1.03125-.6875-1.03125-1.51562 0-1.51563.875-3.48438 1.9375-3.48438.375 0 .64063.23438.70313.9375.03125.20313.125.34375.34375.34375.28125 0 .73437-.26562.73437-.64062 0-.59375-.625-1.04688-1.5-1.04688-2.0625 0-3.375 2.21875-3.375 4.125m0 0"/><path id="h" d="M1.0625.14063 2.07813 0c.3125-1.1875.48437-1.82812.78125-2.5625.34375-.90625 1.5-2.67187 2.51562-2.67187.35938 0 .5.32812.35938.8125l-.9375 3.3125c-.23438.76562-.0625 1.25.59375 1.25.8125 0 1.46875-.79688 1.85937-1.67188l-.28125-.17187C6.75-1.28125 6.23438-.46875 5.92188-.46875c-.23438 0-.23438-.26562-.125-.625l.92187-3.0625c.28125-.92187.14063-1.6875-.79687-1.6875-1.10938 0-2.35938 1.20313-3.09375 2.59375h-.03125l1.29687-5.32812-.0625-.04688-2.09375.26563-.0625.28125L2.53125-8c.29688.03125.34375.10938.23438.5625Zm0 0"/><path id="i" d="M.76563-1.25c0 .6875.32812 1.39063 1.10937 1.39063 1.25 0 2.32813-1.4375 3.01563-2.625h.01562l-.39062 1.32812c-.25.82813-.125 1.29688.51562 1.29688.875 0 1.53125-.79688 1.92188-1.67188l-.26563-.17187c-.21875.42187-.73437 1.23437-1.0625 1.23437-.23437 0-.20312-.26562-.10937-.625L6.75-5.73437h-.98437l-.04688.14062c-.20312-.14062-.54687-.25-.85937-.25-2.76563 0-4.09375 3.0625-4.09375 4.59375m1.15625-.03125c0-1.26562 1.14062-4.15625 2.96875-4.15625.28125 0 .53125.10938.70312.26563-.20312.85937-.625 2.01562-1.23437 2.9375-.65625 1-1.375 1.76562-1.9375 1.76562-.375 0-.5-.34375-.5-.8125m0 0"/><path id="j" d="M1.45313-1C1.28125-.32812 1.42187.14063 2 .14063 2.9375.14063 3.67188-.625 4.14063-1.5l-.25-.20312c-.28125.46875-.875 1.23437-1.23438 1.23437-.25 0-.25-.26562-.17187-.5625l1.04687-4.23437h1.4375l.14063-.4375H3.625l.39063-1.375-.125-.09375-1.125.89062-.15625.57813h-.95313l-.125.4375H2.5Zm0 0"/><clipPath id="a"><path d="M0 .14063h141.26563V142H0Zm0 0"/></clipPath><clipPath id="b"><path d="M0 .14063h141.26563V142H0Zm0 0"/></clipPath></defs><g clip-path="url(#a)"><path fill="#7FD6F7" stroke="#7FD6F7" stroke-miterlimit="10" stroke-width=".39608" d="M.19922 141.21094V.33594H141.0703v140.875Zm0 0"/></g><path fill="#7FFF7F" stroke="#7FFF7F" stroke-miterlimit="10" stroke-width=".39608" d="M17.8086 123.60156V17.94532h105.65233v105.65624Zm0 0"/><path fill="#FFF87F" stroke="#FFF87F" stroke-miterlimit="10" stroke-width=".39608" d="M35.41406 105.99219v-70.4375h70.4375v70.4375Zm0 0"/><path fill="#FF7F7F" stroke="#FF7F7F" stroke-miterlimit="10" stroke-width=".39608" d="M53.02343 88.38282V53.16407h35.21875v35.21875Zm0 0"/><g clip-path="url(#b)"><path fill="none" stroke="#000" stroke-miterlimit="10" stroke-width=".39608" d="M.19922 141.21094H141.0703M.19922 123.60156H141.0703M.19922 105.9922H141.0703M.19922 88.38282H141.0703M.19922 70.77344H141.0703M.19922 53.16407H141.0703M.19922 35.5547H141.0703M.19922 17.94532H141.0703M.19922.33595H141.0703M.19922 141.21094V.33594m17.60937 140.875V.33594m17.60547 140.875V.33594m17.60937 140.875V.33594m17.60938 140.875V.33594m17.60937 140.875V.33594m17.60937 140.875V.33594m17.60938 140.875V.33594m17.60937 140.875V.33594"/></g><use xlink:href="#c" x="39.31165" y="154.21066"/><use xlink:href="#d" x="46.23074" y="154.21066"/><use xlink:href="#e" x="53.40976" y="154.21066"/><use xlink:href="#f" x="61.28193" y="154.21066"/><use xlink:href="#d" x="68.102" y="154.21066"/><use xlink:href="#g" x="77.89269" y="154.21066"/><use xlink:href="#h" x="83.01703" y="154.21066"/><use xlink:href="#i" x="90.07227" y="154.21066"/><use xlink:href="#j" x="96.59528" y="154.21066"/></svg>