<svg xmlns="http://www.w3.org/2000/svg" xmlns:xlink="http://www.w3.org/1999/xlink" width="260.452pt" height="51.617pt" viewBox="0 0 260.452 51.617"><defs><path id="b" d="M.48438-3.875c0 2.3125.67187 4.01563 2.59375 4.01563C5 .14063 5.6875-1.5625 5.6875-3.875c0-2.32812-.6875-4.01562-2.60937-4.01562S.48438-6.20312.48438-3.875m1.17187 0c0-1.89062.32813-3.60937 1.42188-3.60937S4.5-5.76562 4.5-3.875 4.17188-.26562 3.07813-.26562 1.65625-1.98437 1.65625-3.875m0 0"/><path id="c" d="M1.26563 0h3.8125v-.32812l-.96875-.09375c-.25-.01563-.39063-.10938-.39063-.5625v-6.84375l-.0625-.0625-2.39062.40625v.28125l1.07812.14062c.20313.01563.28125.10938.28125.4375v5.64063c0 .45312-.10937.54687-.39062.5625l-.96875.09375Zm0 0"/><path id="d" d="M.3125-.10937.4375 0h4.79688l.40625-1.53125-.32813-.0625c-.25.625-.48437.71875-.95312.71875H1.39063c.1875-.60937.89062-1.4375 1.95312-2.21875 1.125-.8125 1.98438-1.32812 1.98438-2.625 0-1.625-1.07813-2.17187-2.29688-2.17187C1.4375-7.89062.625-6.9375.625-6.32812c0 .39062.4375.57812.64063.57812.20312 0 .28124-.125.32812-.3125.1875-.79687.64063-1.42187 1.35938-1.42187.89062 0 1.15625.73437 1.15625 1.59375 0 1.25-.64063 1.95312-1.65625 2.84375C1.03125-1.79687.53125-1.01562.3125-.10937m0 0"/><path id="e" d="M.3125-1.1875c0 .5.79688 1.32813 2.4375 1.32813 1.6875 0 2.75-.85938 2.75-2.34375C5.5-3.75 4.17188-4.21875 3.51563-4.28125v-.04687c.64062-.09375 1.64062-.5625 1.64062-1.71875 0-1.28125-1-1.84375-2.25-1.84375C1.375-7.89062.625-7 .625-6.51562c0 .35937.40625.5625.5625.5625.14063 0 .23438-.09375.28125-.23438.26563-.79687.6875-1.29687 1.34375-1.29687.92188 0 1.15625.79687 1.15625 1.45312 0 .6875-.25 1.5625-1.23437 1.5625-.5625 0-.875-.10937-1.01563-.10937-.15625 0-.20312.10937-.20312.32812 0 .20313.04687.3125.20312.3125.14063 0 .45313-.10937 1.01563-.10937.98437 0 1.54687.89062 1.54687 1.90625 0 1.39062-.6875 1.875-1.51562 1.875C2-.26562 1.5-.84375 1.26563-1.5c-.0625-.21875-.17188-.32812-.34375-.32812-.20313 0-.60938.21874-.60938.64062m0 0"/><path id="f" d="m.21875-2.32812.10938.25h3.15625v1.1875c0 .39062-.125.45312-.40625.48437l-.75.07813V0h3.07812v-.32812L4.875-.39062c-.26562-.04688-.34375-.10938-.34375-.5v-1.1875h1.1875V-2.625h-1.1875v-5.14062H3.6875c-1.09375 1.60937-2.40625 3.625-3.46875 5.4375M1.0625-2.625c.6875-1.25 1.53125-2.60937 2.42188-4.01562V-2.625Zm0 0"/><path id="g" d="M.46875-1.1875c0 .53125.8125 1.32813 2.32813 1.32813 1.90625 0 2.78125-1.17188 2.78125-2.64063 0-1.625-1.01563-2.45312-2.40625-2.45312-.64063 0-1.34375.28125-1.71875.60937l.26562-2.1875c.03125-.29687.10938-.34375.32813-.34375H4.9375l.29688-.78125-.0625-.10937H1.28125l-.10937.10937L.9375-3.76562l.28125.14062c.48438-.54687.95313-.82812 1.59375-.82812.73438 0 1.54688.54687 1.54688 2.07812 0 1.20313-.48438 2.10938-1.48438 2.10938-.82812 0-1.23437-.59375-1.46875-1.25-.0625-.17188-.17187-.28126-.32812-.28126-.23438 0-.60938.23438-.60938.60938m0 0"/><path id="h" d="M.5-3.57812c0 2.5.92188 3.71875 2.65625 3.71875 1.71875 0 2.64063-1.04688 2.64063-2.625 0-1.5625-.96875-2.42188-2.21875-2.42188-.90625 0-1.59375.625-1.89063 1 0-2.5625.70313-3.57812 1.76563-3.57812.53125 0 .90625.4375 1.07812 1.10937.04688.14063.125.25.29688.25.26562 0 .625-.21875.625-.53125 0-.46875-.57813-1.23437-1.96875-1.23437C1.64063-7.89062.5-6.46875.5-3.57812M1.6875-2.75c0-.70312.53125-1.5625 1.5-1.5625.73438 0 1.45313.67188 1.45313 2 0 1.21875-.46875 2.04688-1.45313 2.04688-1.01562 0-1.5-1.07813-1.5-2.48438m0 0"/><path id="i" d="M.375-3.14062c0 1.92187 1.09375 3.3125 3.40625 3.3125 2.04688 0 3.04688-1.04688 3.70313-2.20313.625-1.125.73437-2.3125.73437-2.78125 0-2.375-1.45312-3.40625-3.35937-3.40625-1.85938 0-3 1.03125-3.6875 2.14063C.53125-5 .375-3.90625.375-3.14062m1.21875.46875c0-.96875.1875-2.0625.71875-3.1875.53125-1.09375 1.35938-1.95313 2.59375-1.95313C6.1875-7.8125 7-7.0625 7-5.40625 7-4.75 6.9375-3.79687 6.45313-2.5625c-.48438 1.25-1.28125 2.32813-2.78125 2.32813-1.26563 0-2.07813-.8125-2.07813-2.4375m0 0"/><path id="j" d="M0 0h3.51563c2.8125 0 3.375-1.45312 3.375-2.40625 0-1.23437-.89063-1.76562-1.75-1.92187l.01562-.01563c1.54688-.1875 2.20313-1.0625 2.20313-1.95312 0-.9375-.5625-1.73438-2.70313-1.73438h-2.9375l-.07812.32813.6875.0625c.20312.01562.29687.09375.29687.28125 0 .07812-.03125.17187-.04687.29687l-1.375 6.09375C1.10937-.57812 1-.4375.71875-.40625L.0625-.32812Zm2.32813-.89062c0-.07813 0-.17188.03125-.26563L3.03125-4.125h.45313c1.15625 0 2.15625.32813 2.15625 1.65625 0 1.03125-.625 2.0625-2.1875 2.0625-.90625 0-1.125-.1875-1.125-.48437m.78125-3.64063.60937-2.70312c.09375-.34375.15625-.40625.92188-.40625.98437 0 1.53125.5 1.53125 1.3125 0 1.21875-1.01563 1.79687-2.29688 1.79687Zm0 0"/><path id="k" d="M.60938-3.1875c0 1.53125.75 3.35938 3.625 3.35938.82812 0 1.625-.10938 2.35937-.48438l.57813-1.84375h-.34375C6.1875-1 5.59375-.23437 4.17188-.23437c-1.35938 0-2.3125-.85938-2.3125-2.65625 0-1.04688.26562-2.34375.82812-3.26563C3.26563-7.125 4.17188-7.8125 5.42188-7.8125c1.46875 0 1.89062.6875 1.89062 1.95313h.35938l.42187-1.73438c-.67187-.42187-1.75-.625-2.5625-.625-2.1875 0-3.45312 1.03125-4.14062 2.10938C.75-5.0625.60938-3.98437.60938-3.1875m0 0"/><clipPath id="a"><path d="M241 13h18.22266v26H241Zm0 0"/></clipPath></defs><path fill="none" stroke="#000" stroke-miterlimit="10" stroke-width=".79114" d="M9.10156 25.67578h243.59385"/><path d="M256.83203 25.67578c-.50781-.10547-2.74219-.70312-4.13672-1.35547v2.70703c1.39453-.64843 3.6289-1.24609 4.13672-1.35156m0 0"/><g clip-path="url(#a)"><path fill="none" stroke="#000" stroke-miterlimit="10" stroke-width=".79114" d="M256.83203 25.67578c-.50781-.10547-2.74219-.70312-4.13672-1.35547v2.70703c1.39453-.64843 3.62891-1.24609 4.13672-1.35156Zm0 0"/></g><path fill="none" stroke="#000" stroke-miterlimit="10" stroke-width=".79114" d="M9.10156 16.8828v17.58595"/><use xlink:href="#b" x="6.02458" y="46.9804"/><path fill="none" stroke="#000" stroke-miterlimit="10" stroke-width=".39557" d="M12.6211 22.15625v7.03516m3.51562-7.03516v7.03516m3.51563-7.03516v7.03516m3.51953-7.03516v7.03516m3.51562-7.03516v7.03516m3.51954-7.03516v7.03516m3.51563-7.03516v7.03516m3.51953-7.03516v7.03516m3.51562-7.03516v7.03516"/><path fill="none" stroke="#000" stroke-miterlimit="10" stroke-width=".79114" d="M44.27345 16.8828v17.58595"/><use xlink:href="#c" x="41.1966" y="46.9804"/><path fill="none" stroke="#000" stroke-miterlimit="10" stroke-width=".39557" d="M47.79298 22.15625v7.03516m3.51563-7.03516v7.03516m3.51953-7.03516v7.03516m3.51563-7.03516v7.03516m3.51953-7.03516v7.03516m3.51563-7.03516v7.03516m3.51562-7.03516v7.03516m3.51954-7.03516v7.03516m3.51562-7.03516v7.03516"/><path fill="none" stroke="#000" stroke-miterlimit="10" stroke-width=".79114" d="M79.44925 16.8828v17.58595"/><use xlink:href="#d" x="76.36862" y="46.9804"/><path fill="none" stroke="#000" stroke-miterlimit="10" stroke-width=".39557" d="M82.96487 22.15625v7.03516m3.51563-7.03516v7.03516m3.51953-7.03516v7.03516m3.51563-7.03516v7.03516m3.51953-7.03516v7.03516m3.51563-7.03516v7.03516m3.51953-7.03516v7.03516m3.51563-7.03516v7.03516m3.51562-7.03516v7.03516"/><path fill="none" stroke="#000" stroke-miterlimit="10" stroke-width=".79114" d="M114.62113 16.8828v17.58595"/><use xlink:href="#e" x="111.54065" y="46.9804"/><path fill="none" stroke="#000" stroke-miterlimit="10" stroke-width=".39557" d="M118.13676 22.15625v7.03516m3.51954-7.03516v7.03516m3.51562-7.03516v7.03516m3.51563-7.03516v7.03516m3.51953-7.03516v7.03516m3.51562-7.03516v7.03516m3.51954-7.03516v7.03516m3.51562-7.03516v7.03516m3.51564-7.03516v7.03516"/><path fill="none" stroke="#000" stroke-miterlimit="10" stroke-width=".79114" d="M149.79302 16.8828v17.58595"/><use xlink:href="#f" x="146.71366" y="46.84441"/><path fill="none" stroke="#000" stroke-miterlimit="10" stroke-width=".39557" d="M153.30865 22.15625v7.03516m3.51953-7.03516v7.03516m3.51562-7.03516v7.03516m3.51954-7.03516v7.03516m3.51563-7.03516v7.03516m3.51563-7.03516v7.03516m3.51953-7.03516v7.03516m3.51562-7.03516v7.03516m3.51954-7.03516v7.03516"/><path fill="none" stroke="#000" stroke-miterlimit="10" stroke-width=".79114" d="M184.96491 16.8828v17.58595"/><use xlink:href="#g" x="181.88568" y="46.84441"/><path fill="none" stroke="#000" stroke-miterlimit="10" stroke-width=".39557" d="M188.48054 22.15625v7.03516m3.51953-7.03516v7.03516m3.51563-7.03516v7.03516m3.51953-7.03516v7.03516m3.51563-7.03516v7.03516m3.51953-7.03516v7.03516m3.51563-7.03516v7.03516m3.51562-7.03516v7.03516m3.51953-7.03516v7.03516"/><path fill="none" stroke="#000" stroke-miterlimit="10" stroke-width=".79114" d="M220.1368 16.8828v17.58595"/><use xlink:href="#h" x="217.05771" y="46.9804"/><path fill="none" stroke="#000" stroke-miterlimit="10" stroke-width=".39557" d="M223.65633 22.15625v7.03516m3.51563-7.03516v7.03516m3.51563-7.03516v7.03516m3.51953-7.03516v7.03516m3.51562-7.03516v7.03516m3.51954-7.03516v7.03516m3.51562-7.03516v7.03516m3.51954-7.03516v7.03516m3.51562-7.03516v7.03516"/><use xlink:href="#i" x="4.80761" y="12.34043"/><path fill="none" stroke="#000" stroke-miterlimit="10" stroke-width=".79114" d="M114.62113 18.64062v14.06641"/><use xlink:href="#j" x="110.81801" y="12.51414"/><path fill="none" stroke="#000" stroke-miterlimit="10" stroke-width=".79114" d="M223.65633 18.64062v14.06641"/><use xlink:href="#k" x="219.73385" y="12.34043"/></svg>