<svg xmlns="http://www.w3.org/2000/svg" xmlns:xlink="http://www.w3.org/1999/xlink" width="146.017pt" height="148.788pt" viewBox="0 0 146.017 148.788"><defs><path id="a" d="M1.26563 0h3.82812v-.32812l-.98437-.09375c-.25-.03125-.39063-.10938-.39063-.5625v-6.85938l-.0625-.0625L1.26563-7.5v.28125l1.07812.14063c.20313.03125.28125.10937.28125.4375v5.65625c0 .45312-.10937.53125-.39062.5625l-.96875.09375Zm0 0"/><path id="b" d="M.3125-.10937.4375 0H5.25l.39063-1.53125-.3125-.0625c-.25.625-.48438.71875-.95313.71875H1.39063c.1875-.60937.89062-1.4375 1.96875-2.21875 1.10937-.8125 1.96875-1.34375 1.96875-2.64062 0-1.60938-1.07813-2.17188-2.29688-2.17188C1.4375-7.90625.625-6.9375.625-6.34375c0 .40625.4375.59375.64063.59375.20312 0 .28124-.125.32812-.32812C1.78125-6.875 2.23438-7.5 2.95313-7.5c.89062 0 1.15625.75 1.15625 1.59375 0 1.25-.625 1.95313-1.64063 2.84375C1.03125-1.8125.53125-1.01562.3125-.10937m0 0"/><path id="c" d="M.3125-1.1875c0 .5.79688 1.32813 2.45313 1.32813C4.4375.14063 5.5-.71875 5.5-2.20312c0-1.5625-1.32812-2.01563-1.96875-2.07813v-.04687c.625-.10938 1.625-.57813 1.625-1.71875 0-1.29688-1-1.85938-2.25-1.85938C1.375-7.90625.625-7.01562.625-6.51562c0 .35937.40625.54687.5625.54687s.23438-.07812.28125-.23437C1.73438-6.98437 2.17188-7.5 2.82813-7.5c.90625 0 1.14062.8125 1.14062 1.46875 0 .6875-.25 1.5625-1.23437 1.5625-.5625 0-.875-.10937-1.01563-.10937-.14062 0-.20312.10937-.20312.32812 0 .1875.0625.3125.20312.3125.14063 0 .45313-.10937 1.01563-.10937.98437 0 1.54687.89062 1.54687 1.90625 0 1.39062-.6875 1.875-1.51562 1.875C2-.26562 1.5-.84375 1.28125-1.5c-.07812-.21875-.1875-.32812-.35937-.32812-.20313 0-.60938.21874-.60938.64062m0 0"/><path id="d" d="m.21875-2.32812.10938.25h3.15625v1.1875c0 .39062-.125.45312-.40625.48437l-.73438.07813V0h3.0625v-.32812l-.51562-.0625c-.28125-.04688-.34375-.10938-.34375-.5v-1.1875h1.1875V-2.625h-1.1875v-5.14062H3.6875c-1.09375 1.60937-2.40625 3.625-3.46875 5.4375M1.0625-2.625C1.75-3.89062 2.59375-5.23437 3.48438-6.64062V-2.625Zm0 0"/><path id="e" d="M.46875-1.1875c0 .53125.8125 1.32813 2.32813 1.32813 1.92187 0 2.78125-1.17188 2.78125-2.64063 0-1.64062-1.01563-2.46875-2.39063-2.46875-.65625 0-1.35937.29688-1.73437.625l.26562-2.20312c.03125-.29688.10938-.32813.32813-.32813h2.90625l.28125-.79687-.0625-.09375H1.28125l-.10937.10937-.23438 3.875.28125.15625c.48438-.5625.95313-.82812 1.59375-.82812.73438 0 1.5625.54687 1.5625 2.07812 0 1.20313-.48437 2.10938-1.5 2.10938-.82812 0-1.23437-.59375-1.46875-1.25-.0625-.1875-.17187-.29688-.32812-.29688-.23438 0-.60938.23438-.60938.625m0 0"/><path id="f" d="M.48438-3.89062c0 2.32812.67187 4.03125 2.59375 4.03125C5 .14063 5.6875-1.5625 5.6875-3.89062S5-7.90625 3.07813-7.90625.48438-6.21875.48438-3.89062m1.17187 0c0-1.89063.32813-3.60938 1.42188-3.60938C4.1875-7.5 4.5-5.78125 4.5-3.89062s-.3125 3.625-1.42187 3.625c-1.09375 0-1.42188-1.73438-1.42188-3.625m0 0"/></defs><path fill="#FFF" stroke="#FFF" stroke-miterlimit="10" stroke-width=".39583" d="M14.65234 131.65234V8.46484h123.18751v123.1875Zm0 0"/><path fill="none" stroke="#000" stroke-miterlimit="10" stroke-width=".39583" d="M14.65234 131.65234h123.18751m-123.1875-24.63672h123.1875M14.65235 82.3789h123.1875M14.65235 57.73828h123.1875M14.65235 33.10156h123.1875M14.65235 8.47265h123.1875m-123.1875 123.1797V8.46482m24.63671 123.18751V8.46484m24.63673 123.1875V8.46484m24.64062 123.1875V8.46484m24.63672 123.1875V8.46484m24.62891 123.1875V8.46484"/><path fill="#007F7F" stroke="#007F7F" stroke-miterlimit="10" stroke-width=".39583" d="M81.17188 40.49218V25.71093h14.78516v14.78125Zm0 0"/><path fill="#FF7F00" stroke="#FF7F00" stroke-miterlimit="10" stroke-width=".39583" d="M71.32032 107.01562c0-4.08203-3.3086-7.39062-7.39453-7.39062-4.08204 0-7.39063 3.3086-7.39063 7.39062 0 4.08204 3.3086 7.39063 7.39063 7.39063 4.08593 0 7.39453-3.3086 7.39453-7.39063Zm0 0"/><use xlink:href="#a" x="36.21023" y="143.92591"/><use xlink:href="#a" x="4.12324" y="110.96679"/><use xlink:href="#b" x="60.84737" y="143.92591"/><use xlink:href="#b" x="4.12324" y="86.32965"/><use xlink:href="#c" x="85.48352" y="143.92591"/><use xlink:href="#c" x="4.12324" y="61.62496"/><use xlink:href="#d" x="110.12066" y="143.78982"/><use xlink:href="#d" x="4.12324" y="36.98782"/><use xlink:href="#e" x="134.7578" y="143.78982"/><use xlink:href="#e" x="4.12324" y="12.28314"/><use xlink:href="#f" x="4.12324" y="143.92591"/></svg>