<svg xmlns="http://www.w3.org/2000/svg" xmlns:xlink="http://www.w3.org/1999/xlink" width="249.979pt" height="254.036pt" viewBox="0 0 249.979 254.036"><defs><path id="b" d="M2.28125 0h6.89063v-.60937L7.40625-.76563c-.4375-.03124-.6875-.1875-.6875-1.01562v-12.375l-.10937-.10937-4.32813.73437v.51563l1.96875.25c.34375.03125.48438.1875.48438.79687v10.1875c0 .82813-.20313.98438-.6875 1.01563l-1.76563.15624Zm0 0"/><path id="c" d="M.5625-.20312.78125 0h8.6875l.71875-2.76562-.59375-.10938c-.4375 1.14063-.85937 1.29688-1.71875 1.29688H2.51563c.34375-1.09375 1.59375-2.59375 3.53125-4C8.0625-7.0625 9.625-8 9.625-10.34375c0-2.92187-1.9375-3.92187-4.15625-3.92187-2.875 0-4.35937 1.73437-4.35937 2.82812 0 .71875.8125 1.0625 1.17187 1.0625.375 0 .51563-.23437.59375-.59375.34375-1.42187 1.17188-2.5625 2.46875-2.5625 1.59375 0 2.0625 1.34375 2.0625 2.875 0 2.26563-1.125 3.53125-2.96875 5.14063-2.57812 2.25-3.48437 3.6875-3.875 5.3125m0 0"/><path id="d" d="M.5625-2.14062C.5625-1.25 2.01563.25 4.98438.25 8.01563.25 9.9375-1.29687 9.9375-3.96875c0-2.8125-2.40625-3.64062-3.57812-3.75v-.09375C7.5-8 9.3125-8.84375 9.3125-10.92187c0-2.3125-1.8125-3.34375-4.0625-3.34375-2.76562 0-4.14062 1.60937-4.14062 2.5 0 .64062.75 1 1.03125 1 .26562 0 .42187-.15625.51562-.42188.46875-1.42187 1.25-2.34375 2.4375-2.34375 1.65625 0 2.07813 1.45313 2.07813 2.64063 0 1.25-.45313 2.82812-2.23438 2.82812-1 0-1.59375-.20312-1.82812-.20312-.28125 0-.39063.20312-.39063.57812 0 .35938.10938.59375.39063.59375.23437 0 .82812-.20312 1.82812-.20312 1.78125 0 2.78125 1.60937 2.78125 3.4375 0 2.5-1.21875 3.375-2.71875 3.375-1.39062 0-2.29687-1.03125-2.70312-2.21875-.125-.40625-.32813-.59375-.625-.59375-.375 0-1.10938.39062-1.10938 1.15625m0 0"/><path id="e" d="M.40625-4.20312.57813-3.75h5.71875v2.14063c0 .71875-.21875.82812-.73438.875l-1.34375.125V0H9.75v-.60937l-.9375-.10938c-.48437-.0625-.625-.17187-.625-.89062V-3.75h2.15625v-.98437H8.1875v-9.28125H6.65625C4.6875-11.125 2.32813-7.48437.40625-4.20312m1.51563-.53125c1.25-2.28125 2.76562-4.70313 4.375-7.25v7.25Zm0 0"/><path id="f" d="M.84375-2.14062C.84375-1.1875 2.32813.25 5.04688.25 8.5.25 10.0625-1.85937 10.0625-4.51562c0-2.9375-1.82812-4.4375-4.32812-4.4375-1.15625 0-2.4375.51562-3.09375 1.10937l.46875-3.96875c.0625-.53125.1875-.60937.59375-.60937H8.9375l.5-1.42188-.10937-.17187h-7l-.20313.1875-.42187 7.01562.5.26563c.875-1 1.73437-1.48438 2.85937-1.48438 1.34375 0 2.8125.96875 2.8125 3.75 0 2.15625-.85937 3.79688-2.6875 3.79688-1.48437 0-2.21875-1.0625-2.64062-2.26563-.10938-.3125-.3125-.51562-.60938-.51562-.42187 0-1.09375.4375-1.09375 1.125m0 0"/><path id="g" d="M-.60937 0h4.625v-.60937L2.92188-.71875c-.625-.0625-.71875-.28125-.53125-.84375.35937-1.25.78125-2.54687 1.26562-4.04687H8.375l1.40625 4.03125c.20313.59375.10938.8125-.5625.89062l-.95312.07813V0h5.375v-.60937C12.42188-.71875 12.1875-.78125 11.8125-1.875L7.375-14.51562H5.8125L3.60938-8.3125c-.64063 1.84375-1.53125 4.34375-2.26563 6.26563-.45312 1.125-.625 1.375-1.95312 1.4375Zm4.5625-6.40625C4.625-8.5 5.35938-10.5625 5.98438-12.42187h.0625L8.125-6.40625Zm0 0"/><path id="h" d="M.73438 0h6.5c3.1875 0 5.25-1.14062 5.25-4.0625 0-2.48437-1.76563-3.57812-3.79688-3.84375v-.04687c1.96875-.39063 3.125-1.625 3.125-3.23438 0-1.15625-.45312-2.03125-1.29687-2.59375-.82813-.53125-2.03125-.73437-3.70313-.73437H.73438v.60937c1.85937.125 1.90625.15625 1.90625 1.32813V-1.9375c0 1.17188-.04688 1.20313-1.90625 1.32813Zm3.98437-2.34375v-5.10937h1.48438c2.60937 0 4.04687 1.29687 4.04687 3.51562 0 2.53125-1.71875 3.20313-3.53125 3.20313-1.67187 0-2-.3125-2-1.60938m0-5.84375V-12.75c0-.89062.0625-1.04687 1.6875-1.04687 1.54688 0 3.21875.57812 3.21875 2.75C9.625-9 8.3125-8.1875 6.125-8.1875Zm0 0"/><path id="i" d="M1-7.17187c0 2.45312.73438 4.45312 1.98438 5.70312C4.28125-.17187 6.35938.3125 8.70313.3125c1.67187 0 3.625-.46875 4.625-1l.29687-3.51562H13c-.57812 2.1875-1.67187 3.78125-4.42187 3.78125-4.32813 0-5.23438-4.25-5.23438-6.79688 0-3.4375 1.375-6.89062 5.28125-6.89062 2.14063 0 3.64063.89062 4.03125 3.375h.625v-3.28125c-.9375-.45313-2.51562-.82813-4.4375-.82813-2.59375 0-4.67187.75-5.92187 2.15625C1.71875-11.34375 1-9.53125 1-7.17187m0 0"/><path id="j" d="M.73438 0h6.54687c6.45313 0 8.0625-3.78125 8.0625-7.53125 0-3.4375-1.51562-6.98437-7.64062-6.98437H.73438v.60937c1.85937.125 1.90625.15625 1.90625 1.32813V-1.9375c0 1.17188-.04688 1.20313-1.90625 1.32813Zm3.98437-2.64062v-9.95313c0-1.09375.17188-1.20312 2.42188-1.20312C11.59375-13.79687 13-10.98437 13-7.4375c0 5.29688-2.59375 6.70313-6.125 6.70313-1.82812 0-2.15625-.25-2.15625-1.90625m0 0"/><path id="k" d="M.73438 0h11.125l.25-3.64062h-.625c-.5 2.5625-1.4375 2.90625-4.07813 2.90625-.96875 0-1.73437-.03126-2.1875-.20313-.4375-.17187-.5-.5625-.5-1.57812v-4.65625h2.92188c1.78125 0 1.875.51562 2.04687 1.82812h.625V-9.75h-.625c-.17187 1.28125-.26562 1.79688-2.04687 1.79688H4.71875v-5.09375c0-.65625.07813-.75.75-.75h2.0625c2.375 0 2.875.53125 3.15625 2.71875h.65625v-3.4375H.73438v.60937c1.85937.125 1.90625.15625 1.90625 1.32813V-1.9375c0 1.17188-.04688 1.20313-1.90625 1.32813Zm0 0"/><clipPath id="a"><path d="M26 0h223.4961v223H26Zm0 0"/></clipPath></defs><g stroke-miterlimit="10" stroke-width=".39699" clip-path="url(#a)"><path fill="#FFF" stroke="#FFF" d="M26.91406 222.58203V.19523h222.3868v222.3868Zm0 0"/><path fill="none" stroke="#000" d="M26.91406 222.58203h222.3868m-222.3868-44.48049h222.3868m-222.3868-44.47657h222.3868M26.91407 89.14838h222.3868M26.91407 44.67181h222.3868M26.91407.21085h222.3868M26.91407 222.58203V.19523m44.47658 222.3868V.19523m44.48049 222.3868V.19523m44.47658 222.3868V.19523m44.47658 222.3868V.19523m44.46095 222.3868V.19523"/></g><path fill="#00ADEF" stroke="#00ADEF" stroke-miterlimit="10" stroke-width=".39699" d="M80.28908 80.25385V53.56634h26.6836v26.68751Zm0 0"/><path fill="#EC008C" stroke="#EC008C" stroke-miterlimit="10" stroke-width=".39699" d="M195.92975 111.38667c0-7.36719-5.97656-13.34375-13.34375-13.34375-7.3711 0-13.34376 5.97656-13.34376 13.34375 0 7.3711 5.97266 13.34376 13.34376 13.34376 7.36719 0 13.34375-5.97266 13.34375-13.34376Zm0 0"/><use xlink:href="#b" x="7.90481" y="207.47668"/><use xlink:href="#c" x="7.90481" y="163.00046"/><use xlink:href="#d" x="7.90481" y="118.4017"/><use xlink:href="#e" x="7.90481" y="73.92547"/><use xlink:href="#f" x="7.90481" y="29.32572"/><use xlink:href="#g" x="42.49853" y="244.98534"/><use xlink:href="#h" x="86.85222" y="244.98534"/><use xlink:href="#i" x="130.93793" y="245.32008"/><use xlink:href="#j" x="174.40897" y="244.98534"/><use xlink:href="#k" x="220.70528" y="244.98534"/></svg>