<svg xmlns="http://www.w3.org/2000/svg" width="223.624pt" height="223.624pt" viewBox="0 0 223.624 223.624"><defs><clipPath id="a"><path d="M0 0h223.25v223.25H0Zm0 0"/></clipPath></defs><g stroke-miterlimit="10" stroke-width=".39783" clip-path="url(#a)"><path fill="#FFF" stroke="#FFF" d="M.19922 223.05078V.19541h222.85147v222.85537Zm0 0"/><path fill="none" stroke="#000" d="M.19922 223.05078h222.85147M.19922 178.48048h222.85147M.19922 133.9102h222.85147M.19922 89.336h222.85147M.19922 44.7657h222.85147M.19922.21103h222.85147M.19922 223.05078V.19541m44.5703 222.85537V.19541M89.3398 223.05078V.19541m44.57029 222.85537V.19541m44.5703 222.85537V.19541m44.55466 222.85537V.19541"/></g><path fill="#7F007F" stroke="#7F007F" stroke-miterlimit="10" stroke-width=".39783" d="M58.1406 178.48049c0-7.38672-5.98437-13.37109-13.37109-13.37109-7.38671 0-13.37109 5.98437-13.37109 13.37109 0 7.3828 5.98438 13.37109 13.3711 13.37109 7.3867 0 13.37108-5.98828 13.37108-13.3711Zm0 0"/><path fill="none" stroke="#7F007F" stroke-miterlimit="10" stroke-width="1.19352" d="M44.76951 178.48049h89.14059v-44.5703h44.5703V97.0938"/><path fill="#7F007F" stroke="#7F007F" stroke-miterlimit="10" stroke-width="1.19352" d="M178.48047 93.14453c-.08594.48438-.58594 2.61719-1.1289 3.94922h2.26171c-.54297-1.33203-1.04297-3.46484-1.13281-3.94922Zm0 0"/></svg>