<svg xmlns="http://www.w3.org/2000/svg" xmlns:xlink="http://www.w3.org/1999/xlink" width="223.041pt" height="223.918pt" viewBox="0 0 223.041 223.918"><defs><path id="a" d="M.65625 0h9.875L10.75-3.23437h-.54687C9.76563-.95312 8.9375-.65625 6.59375-.65625c-.875 0-1.54687-.01562-1.95312-.17187C4.25-1 4.1875-1.32812 4.1875-2.25v-4.125h2.59375c1.59375 0 1.67188.46875 1.82813 1.625h.5625v-3.92187h-.5625C8.45313-7.51562 8.375-7.0625 6.78125-7.0625H4.1875v-4.53125c0-.59375.07813-.67187.67188-.67187H6.6875c2.125 0 2.5625.48437 2.8125 2.42187h.57813v-3.0625H.65625v.54688c1.64063.10937 1.6875.14062 1.6875 1.1875v9.45312c0 1.04688-.04687 1.0625-1.6875 1.1875Zm0 0"/><path id="b" d="M.65625 0h4.42188v-.53125C3.875-.64062 3.40625-.6875 3.29688-1.46875c-.10938-.60937-.125-1.32812-.125-2.32812v-7.4375h.04687C5.875-7.48437 8.51563-3.75 11.15625 0H12.375v-9.125c0-1 .04688-1.6875.14063-2.3125.125-.76562.5625-.84375 1.53125-.92187v-.54688H9.625v.54688c1.20313.09375 1.64063.15625 1.76563.92187.09375.625.14062 1.3125.14062 2.3125v6.54688l-.04687-.04688c-2.4375-3.42187-4.875-6.84375-7.28125-10.28125H.64063v.54688c1.64062.10937 1.6875.14062 1.6875 1.1875v7.375c0 1-.04688 1.71875-.14063 2.32812-.125.78125-.5625.85938-1.53125.9375Zm0 0"/><path id="c" d="M.89063-6.45312c0 2.09375.57812 3.8125 1.59375 4.92187C3.53125-.35937 5.0625.28125 7.10938.28125c2.03125 0 3.5625-.64062 4.625-1.8125 1-1.10937 1.57812-2.82812 1.57812-4.92187 0-2.07813-.57812-3.8125-1.57812-4.92188-1.0625-1.17187-2.59375-1.82812-4.625-1.82812-2.04688 0-3.57813.65625-4.625 1.82812C1.46875-10.26562.89063-8.53125.89063-6.45312m2.09375 0c0-2.73438.8125-6.09375 4.125-6.09375s4.125 3.35937 4.125 6.09375c0 2.75-.8125 6.07812-4.125 6.07812s-4.125-3.32812-4.125-6.07812m0 0"/><path id="d" d="m.9375-3.82812.17188 3C1.92188-.0625 3.5.28124 4.79688.28124c3.29687 0 4.60937-1.89062 4.60937-3.79687 0-2.20313-1.48437-3.25-3.67187-4.04688L5.125-7.78125c-1.25-.46875-2.28125-1.26562-2.28125-2.375 0-1.375.8125-2.39062 2.375-2.39062 1.60938 0 2.5.92187 2.79688 2.79687h.57812v-2.60937c-.64062-.5-1.89062-.84375-3.15625-.84375-2.28125 0-4.3125 1.15625-4.3125 3.625 0 1.95312 1.57813 2.96875 3.53125 3.67187L5-5.78125c.8125.32813 2.59375 1.15625 2.59375 2.82813 0 1.60937-1.03125 2.57812-2.6875 2.57812-1.75 0-2.90625-1.375-3.375-3.45312Zm0 0"/></defs><path fill="#FFF" stroke="#000" stroke-miterlimit="10" stroke-width=".7936" d="m146.3711 111.6289 26.00392-59.8711L112.5 77.7617 52.6289 51.7578l26.0039 59.8711-26.0039 59.87502L112.5 145.50001l59.87502 26.00391Zm0 0"/><path fill="#7FBFBF" stroke="#7FBFBF" stroke-miterlimit="10" stroke-width=".39679" d="m146.3711 111.6289 26.00392-59.8711L112.5 111.6289ZM112.5 77.76171 52.6289 51.7578 112.5 111.6289ZM78.6328 111.6289l-26.0039 59.87502L112.5 111.62891ZM112.5 145.5l59.87502 26.00392L112.5 111.62891Zm0 0"/><path fill="none" stroke="#000" stroke-miterlimit="10" stroke-width=".7936" d="m146.3711 111.6289 26.00392-59.8711L112.5 77.7617 52.6289 51.7578l26.0039 59.8711-26.0039 59.87502L112.5 145.50001l59.87502 26.00391Zm0 0"/><path fill="#FFF" stroke="#000" stroke-miterlimit="10" stroke-width=".7936" d="m197.1758 111.6289-63.71876-20.95312L112.5 26.957 91.54687 90.67578 27.8281 111.6289l63.71877 20.95703L112.5 196.30471l20.95704-63.71877Zm0 0"/><path fill="#007F7F" stroke="#007F7F" stroke-miterlimit="10" stroke-width=".39679" d="M197.1758 111.6289H112.5l20.95704-20.95312ZM112.5 26.95701v84.6719L91.54687 90.67578Zm0 0"/><path fill="#007F7F" stroke="#007F7F" stroke-miterlimit="10" stroke-width=".39679" d="M27.8281 111.6289H112.5l-20.95313 20.95704ZM112.5 196.3047v-84.6758l20.95704 20.95704Zm0 0"/><path fill="none" stroke="#000" stroke-miterlimit="10" stroke-width=".7936" d="m197.1758 111.6289-63.71876-20.95312L112.5 26.957 91.54687 90.67578 27.8281 111.6289l63.71877 20.95703L112.5 196.30471l20.95704-63.71877Zm0 0"/><path fill="none" stroke="#000" stroke-miterlimit="10" stroke-width=".39679" d="M197.1758 111.6289H27.8281m144.54692-59.8711L52.62889 171.50392M112.5 26.95701v169.3477M52.6289 51.7578l119.74612 119.74612"/><use xlink:href="#a" x="204.18507" y="118.07869"/><use xlink:href="#b" x="179.38471" y="44.74798"/><use xlink:href="#a" x="193.92741" y="44.74798"/><use xlink:href="#b" x="105.23055" y="19.94762"/><use xlink:href="#b" x="16.87046" y="44.47018"/><use xlink:href="#c" x="31.41316" y="44.47018"/><use xlink:href="#c" x="6.61257" y="118.08864"/><use xlink:href="#d" x="21.33427" y="191.70711"/><use xlink:href="#c" x="31.41298" y="191.70711"/><use xlink:href="#d" x="107.46195" y="216.50748"/><use xlink:href="#d" x="179.38471" y="191.70711"/><use xlink:href="#a" x="189.46341" y="191.70711"/></svg>