<svg xmlns="http://www.w3.org/2000/svg" xmlns:xlink="http://www.w3.org/1999/xlink" width="139.395pt" height="139.943pt" viewBox="0 0 139.395 139.943"><defs><path id="a" d="M.40625 0h6.1875l.125-2.01562H6.375C6.10938-.59375 5.57813-.40625 4.125-.40625c-.54687 0-.96875-.01562-1.21875-.10937-.25-.10938-.28125-.3125-.28125-.89063v-2.57812H4.25c.98438 0 1.03125.28125 1.14063 1.01562h.34375v-2.45312h-.34375c-.10938.71875-.15625 1-1.14063 1H2.625V-7.25c0-.375.04688-.42187.42188-.42187H4.1875c1.32813 0 1.59375.29687 1.75 1.51562h.35938V-8.0625H.40625v.32813c1.03125.07812 1.0625.09375 1.0625.75v5.90625c0 .65625-.03125.67187-1.0625.75Zm0 0"/><path id="b" d="M.40625 0h2.76563v-.32812c-.75-.0625-1.03125-.10938-1.10938-.59375C2-1.29687 1.98438-1.75 1.98438-2.375v-4.64062h.03124C3.67188-4.67187 5.32813-2.34375 6.96876 0h.76563v-5.70312c0-.625.03125-1.0625.09375-1.4375.07812-.48438.34375-.53125.95312-.59375v-.32813H6.01563v.32813c.76562.0625 1.03125.10937 1.10937.59375.0625.375.07813.8125.07813 1.4375v4.09375l-.01563-.03126C5.65625-3.78124 4.125-5.92186 2.625-8.0625H.39063v.32813c1.03125.07812 1.0625.09375 1.0625.75V-2.375c0 .625-.03126 1.07813-.09376 1.45313-.0625.48437-.34374.53125-.95312.59375Zm0 0"/><path id="c" d="M.5625-4.03125c0 1.29688.35938 2.375.98438 3.07813.65625.73437 1.60937 1.125 2.89062 1.125s2.23438-.39063 2.89063-1.125c.64062-.70313 1-1.78125 1-3.07813s-.35938-2.39062-1-3.07812C6.67188-7.84375 5.71875-8.25 4.4375-8.25s-2.23437.40625-2.89062 1.14063c-.625.6875-.98438 1.78125-.98438 3.07812m1.29688 0c0-1.71875.51562-3.8125 2.57812-3.8125 2.07813 0 2.57813 2.09375 2.57813 3.8125s-.5 3.79688-2.57813 3.79688c-2.0625 0-2.57812-2.07813-2.57812-3.79688m0 0"/><path id="d" d="m.57813-2.39062.10937 1.875c.51563.48437 1.5.6875 2.3125.6875 2.0625 0 2.875-1.17188 2.875-2.375 0-1.375-.92187-2.03125-2.29687-2.53125l-.375-.125c-.78125-.29688-1.42188-.79688-1.42188-1.5 0-.84375.5-1.48438 1.48438-1.48438 1 0 1.5625.57813 1.75 1.75H5.375v-1.64062C4.96875-8.04687 4.1875-8.25 3.40625-8.25 1.96875-8.25.70313-7.53125.70313-6c0 1.23438.98437 1.875 2.21875 2.29688l.20312.09375c.51563.20312 1.625.71875 1.625 1.76562 0 1-.64062 1.60938-1.6875 1.60938-1.09375 0-1.8125-.85938-2.10937-2.15625Zm0 0"/></defs><path fill="#FFF" stroke="#000" stroke-miterlimit="10" stroke-width=".79357" d="m91.47266 69.76172 16.25392-37.41799-37.41799 16.25392-37.41798-16.25392 16.25 37.41799-16.25 37.41798 37.41798-16.25 37.41799 16.25Zm0 0"/><path fill="#7FBFBF" stroke="#7FBFBF" stroke-miterlimit="10" stroke-width=".39678" d="m91.47266 69.76172 16.25392-37.41799-37.41799 37.41799Zm0 0"/><path fill="#7FBFBF" stroke="#7FBFBF" stroke-miterlimit="10" stroke-width=".39678" d="m70.3086 48.59765-37.418-16.25392 37.418 37.41799ZM49.14062 69.76172 32.8906 107.1797l37.41798-37.41798ZM70.3086 90.9297l37.41798 16.25-37.41799-37.41798Zm0 0"/><path fill="none" stroke="#000" stroke-miterlimit="10" stroke-width=".79357" d="m91.47266 69.76172 16.25392-37.41799-37.41799 16.25392-37.41798-16.25392 16.25 37.41799-16.25 37.41798 37.41798-16.25 37.41799 16.25Zm0 0"/><path fill="#FFF" stroke="#000" stroke-miterlimit="10" stroke-width=".79357" d="M123.22268 69.76172 83.40235 56.66796 70.30859 16.84763 57.21093 56.66796 17.3906 69.76172l39.82033 13.09766 13.09766 39.82033 13.09376-39.82033Zm0 0"/><path fill="#007F7F" stroke="#007F7F" stroke-miterlimit="10" stroke-width=".39678" d="M123.22268 69.76172H70.30859l13.09376-13.09376Zm0 0"/><path fill="#007F7F" stroke="#007F7F" stroke-miterlimit="10" stroke-width=".39678" d="M70.3086 16.84763v52.91409L57.21092 56.66796Zm-52.918 52.91409h52.918L57.21092 82.85938Zm52.918 52.91799v-52.918l13.09375 13.09767Zm0 0"/><path fill="none" stroke="#000" stroke-miterlimit="10" stroke-width=".79357" d="M123.22268 69.76172 83.40235 56.66796 70.30859 16.84763 57.21093 56.66796 17.3906 69.76172l39.82033 13.09766 13.09766 39.82033 13.09376-39.82033Zm0 0"/><path fill="none" stroke="#000" stroke-miterlimit="10" stroke-width=".39678" d="M123.22268 69.76172H17.3906m90.33598-37.41799L32.8906 107.1797m37.418-90.33207v105.83208m-37.418-90.33598 74.83598 74.83597"/><use xlink:href="#a" x="127.60417" y="73.79291"/><use xlink:href="#b" x="112.10544" y="27.96581"/><use xlink:href="#a" x="121.19426" y="27.96581"/><use xlink:href="#b" x="65.76258" y="12.46708"/><use xlink:href="#b" x="10.54224" y="27.79157"/><use xlink:href="#c" x="19.63107" y="27.79157"/><use xlink:href="#c" x="4.13306" y="73.79988"/><use xlink:href="#d" x="13.33214" y="119.8072"/><use xlink:href="#c" x="19.63107" y="119.8072"/><use xlink:href="#d" x="67.15752" y="135.30594"/><use xlink:href="#d" x="112.10544" y="119.8072"/><use xlink:href="#a" x="118.40438" y="119.8072"/></svg>