<svg xmlns="http://www.w3.org/2000/svg" width="124.412pt" height="124.412pt" viewBox="0 0 124.412 124.412"><defs><clipPath id="a"><path d="M0 0h123.82813v123.82813H0Zm0 0"/></clipPath></defs><g stroke-miterlimit="10" stroke-width=".39663" clip-path="url(#a)"><path fill="#FFF" stroke="#FFF" d="M.19922 123.6289V.19532H123.6289v123.4336Zm0 0"/><path fill="none" stroke="#000" d="M.19922 123.6289H123.6289M.1992 98.9414h123.4297M.1992 74.25782h123.4297M.1992 49.57031h123.4297M.1992 24.88281h123.4297M.1992.20703h123.4297M.1992 123.62891V.1953m24.6836 123.4336V.1953m24.6875 123.4336V.1953m24.6875 123.4336V.1953m24.6875 123.4336V.1953m24.67578 123.4336V.1953"/></g><path fill="#7F007F" stroke="#7F007F" stroke-miterlimit="10" stroke-width=".39663" d="M32.28906 98.9414c0-4.08984-3.3125-7.40624-7.40625-7.40624-4.08984 0-7.40625 3.3164-7.40625 7.40625 0 4.08984 3.3164 7.40625 7.40625 7.40625 4.09375 0 7.40625-3.31641 7.40625-7.40625Zm0 0"/><path fill="none" stroke="#7F007F" stroke-miterlimit="10" stroke-width="1.18991" d="M24.88281 98.9414h49.375V74.25782h24.6875V57.3047"/><path fill="#7F007F" stroke="#7F007F" stroke-miterlimit="10" stroke-width="1.18991" d="M98.94531 53.36328c-.08984.48438-.58984 2.61328-1.1289 3.9414h2.2539c-.53906-1.32812-1.03906-3.45702-1.125-3.9414Zm0 0"/></svg>