<svg xmlns="http://www.w3.org/2000/svg" xmlns:xlink="http://www.w3.org/1999/xlink" width="468.494" height="92.91" viewBox="0 0 468.494 92.91"><defs><path id="c" d="M.875-7.03125C.875-2.82812 2.10938.25 5.57813.25s4.71875-3.07812 4.71875-7.28125-1.25-7.28125-4.71875-7.28125S.875-11.23437.875-7.03125m2.125 0c0-3.42187.57813-6.53125 2.57813-6.53125 1.98437 0 2.57812 3.10938 2.57812 6.53125S7.5625-.5 5.57813-.5C3.57813-.5 3-3.60937 3-7.03125m0 0"/><path id="d" d="M2.28125 0h6.92188v-.60937L7.4375-.76563c-.45312-.04687-.70312-.20312-.70312-1.03124v-12.40625L6.625-14.3125l-4.34375.75v.51563L4.25-12.8125c.35938.04688.5.20313.5.8125v10.20313c0 .82812-.20312.98437-.70312 1.03125l-1.76563.15624Zm0 0"/><path id="e" d="M.5625-.20312.78125 0H9.5l.70313-2.78125-.57813-.10937C9.1875-1.75 8.75-1.59375 7.90625-1.59375h-5.375c.32813-1.09375 1.59375-2.59375 3.53125-4 2.01563-1.48437 3.59375-2.42187 3.59375-4.76562 0-2.9375-1.95312-3.95313-4.17187-3.95313-2.89063 0-4.35938 1.75-4.35938 2.84375 0 .71875.79688 1.0625 1.15625 1.0625.39063 0 .51563-.23437.60938-.59375.32812-1.42187 1.15625-2.5625 2.45312-2.5625 1.625 0 2.09375 1.34375 2.09375 2.875 0 2.26563-1.14062 3.54688-2.98437 5.15625C1.85938-3.26562.96875-1.84375.5625-.20312m0 0"/><path id="f" d="M.5625-2.15625C.5625-1.25 2.01563.25 5 .25c3.03125 0 4.96875-1.54687 4.96875-4.23437 0-2.82813-2.42187-3.65625-3.59375-3.76563v-.09375c1.14063-.17187 2.96875-1.01562 2.96875-3.10937 0-2.32813-1.82812-3.35938-4.07812-3.35938-2.78125 0-4.14063 1.60938-4.14063 2.51563 0 .64062.73438 1 1.03125 1 .26563 0 .42188-.15625.51563-.42188.46875-1.4375 1.25-2.34375 2.4375-2.34375 1.65625 0 2.07812 1.45313 2.07812 2.64063 0 1.25-.45312 2.84375-2.23437 2.84375-1.01563 0-1.59375-.20313-1.84375-.20313-.26563 0-.375.20313-.375.57813 0 .35937.10937.57812.375.57812.25 0 .82812-.20312 1.84375-.20312 1.78125 0 2.79687 1.625 2.79687 3.45312C7.75-1.35937 6.51563-.5 5.01563-.5 3.625-.5 2.70313-1.51562 2.3125-2.70312c-.14062-.40625-.34375-.60938-.64062-.60938-.375 0-1.10938.40625-1.10938 1.15625m0 0"/><path id="g" d="m.40625-4.20312.17188.4375H6.3125v2.15625c0 .71875-.21875.82812-.73437.875l-1.34375.125V0h5.54687v-.60937l-.9375-.10938c-.48437-.0625-.625-.17187-.625-.89062v-2.15625h2.14063V-4.75H8.21875v-9.3125H6.67188C4.70313-11.15625 2.32813-7.5.40625-4.20312M1.92188-4.75c1.25-2.28125 2.78125-4.71875 4.39062-7.28125V-4.75Zm0 0"/><path id="h" d="M.84375-2.15625C.84375-1.1875 2.32813.25 5.0625.25c3.46875 0 5.03125-2.10937 5.03125-4.76562 0-2.96875-1.82812-4.46875-4.34375-4.46875-1.15625 0-2.4375.51562-3.10937 1.125l.46875-3.98438c.0625-.53125.20312-.60937.60937-.60937h5.23438l.51562-1.42188-.10937-.1875H2.32813l-.20313.20313-.42187 7.03125.51562.26562c.875-1 1.71875-1.5 2.85938-1.5 1.34375 0 2.82812.98438 2.82812 3.76563C7.90625-2.125 7.03125-.5 5.1875-.5c-1.46875 0-2.20312-1.04687-2.64062-2.25-.10938-.3125-.3125-.51562-.59375-.51562-.4375 0-1.10938.42187-1.10938 1.10937m0 0"/><path id="i" d="M.92188-6.5c0 4.54688 1.65625 6.75 4.8125 6.75C8.84375.25 10.5-1.64062 10.5-4.5c0-2.84375-1.75-4.39062-4-4.39062-1.65625 0-2.89062 1.125-3.45312 1.8125.01562-4.625 1.29687-6.48438 3.20312-6.48438.95313 0 1.65625.79688 1.96875 2.01563.0625.23437.21875.4375.53125.4375.46875 0 1.125-.375 1.125-.95313 0-.85937-1.03125-2.25-3.5625-2.25-3.32812 0-5.39062 2.57813-5.39062 7.8125m2.125 1.53125c0-1.28125.96875-2.84375 2.73437-2.84375 1.3125 0 2.60938 1.20313 2.60938 3.625C8.39063-1.96875 7.54688-.5 5.78125-.5 3.9375-.5 3.04688-2.4375 3.04688-4.96875m0 0"/><path id="j" d="M.67188-5.6875c0 3.46875 2 6 6.17187 6 3.71875 0 5.53125-1.90625 6.70313-3.98437 1.14062-2.0625 1.34375-4.20313 1.34375-5.03125 0-4.32813-2.625-6.1875-6.09375-6.1875-3.35938 0-5.4375 1.85937-6.67188 3.875C.96875-9.0625.67188-7.07812.67188-5.6875m2.21875.84375c0-1.76562.32812-3.73437 1.29687-5.76562.96875-2 2.46875-3.54688 4.70313-3.54688 2.29687 0 3.78125 1.375 3.78125 4.34375 0 1.21875-.10938 2.9375-.98438 5.17188C10.8125-2.375 9.375-.42187 6.65625-.42187c-2.29687 0-3.76562-1.48438-3.76562-4.42188m0 0"/><path id="k" d="M-.40625 0h4.75l.14063-.60937L3.3125-.71875c-.26562-.01562-.375-.15625-.375-.35937 0-.10938.04688-.26563.10938-.42188.6875-1.34375 1.35937-2.70312 2.14062-4.125h4.73438l.51562 4.34375s-.10937.51563-.5625.5625L8.75-.60937 8.64063 0h5.17187l.14063-.60937-.8125-.0625c-.64063-.0625-.73438-.35938-.84375-1.23438L10.75-14.54687h-1.5l-3.54687 6.1875c-1.0625 1.89062-2.8125 5.01562-3.59375 6.28125C1.4375-.98437 1.07813-.76562.42188-.6875l-.6875.07813ZM5.625-6.42187l3.42188-6.1875.76562 6.1875Zm0 0"/><clipPath id="a"><path d="M14 46h453.98828v1H14Zm0 0"/></clipPath><clipPath id="b"><path d="M464 43h3.98828v8H464Zm0 0"/></clipPath></defs><g clip-path="url(#a)"><path fill="none" stroke="#000" stroke-miterlimit="10" stroke-width=".79615" d="M15.2461 46.51172h451.55463"/></g><g clip-path="url(#b)"><path fill="none" stroke="#000" stroke-linecap="round" stroke-linejoin="round" stroke-miterlimit="10" stroke-width=".79615" d="M464.65234 43.40234c.46485 1.8672 1.5 2.7461 2.54688 3.10938-1.04688.36328-2.08203 1.24219-2.54688 3.10547"/></g><path fill="none" stroke="#000" stroke-miterlimit="10" stroke-width=".79615" d="M15.2461 30.58203V62.4375"/><use xlink:href="#c" x="9.66856" y="85.10526"/><path fill="none" stroke="#000" stroke-miterlimit="10" stroke-width=".39807" d="M21.61328 40.14063V52.8828m6.375-12.74217V52.8828m6.36719-12.74217V52.8828m6.375-12.74217V52.8828m6.37109-12.74217V52.8828m6.37109-12.74217V52.8828m6.3711-12.74217V52.8828m6.37109-12.74217V52.8828m6.37109-12.74217V52.8828"/><path fill="none" stroke="#000" stroke-miterlimit="10" stroke-width=".79615" d="M78.95702 30.58203V62.4375"/><use xlink:href="#d" x="73.37975" y="85.10526"/><path fill="none" stroke="#000" stroke-miterlimit="10" stroke-width=".39807" d="M85.32812 40.14063V52.8828m6.37109-12.74217V52.8828m6.37109-12.74217V52.8828m6.3711-12.74217V52.8828m6.37109-12.74217V52.8828m6.37109-12.74217V52.8828m6.3711-12.74217V52.8828m6.37109-12.74217V52.8828m6.37109-12.74217V52.8828"/><path fill="none" stroke="#000" stroke-miterlimit="10" stroke-width=".79615" d="M142.66795 30.58203V62.4375"/><use xlink:href="#e" x="137.08993" y="85.10526"/><path fill="none" stroke="#000" stroke-miterlimit="10" stroke-width=".39807" d="M149.03905 40.14063V52.8828m6.37109-12.74217V52.8828m6.37109-12.74217V52.8828m6.3711-12.74217V52.8828m6.37109-12.74217V52.8828m6.37109-12.74217V52.8828m6.37109-12.74217V52.8828m6.3711-12.74217V52.8828m6.3711-12.74217V52.8828"/><path fill="none" stroke="#000" stroke-miterlimit="10" stroke-width=".79615" d="M206.37889 30.58203V62.4375"/><use xlink:href="#f" x="200.80112" y="85.10526"/><path fill="none" stroke="#000" stroke-miterlimit="10" stroke-width=".39807" d="M212.74998 40.14063V52.8828m6.37109-12.74217V52.8828m6.37109-12.74217V52.8828m6.3711-12.74217V52.8828m6.37109-12.74217V52.8828m6.37109-12.74217V52.8828m6.3711-12.74217V52.8828m6.37109-12.74217V52.8828m6.37109-12.74217V52.8828"/><path fill="none" stroke="#000" stroke-miterlimit="10" stroke-width=".79615" d="M270.08982 30.58203V62.4375"/><use xlink:href="#g" x="264.51131" y="84.85952"/><path fill="none" stroke="#000" stroke-miterlimit="10" stroke-width=".39807" d="M276.4609 40.14063V52.8828m6.3711-12.74217V52.8828m6.3711-12.74217V52.8828m6.37109-12.74217V52.8828m6.37109-12.74217V52.8828m6.37109-12.74217V52.8828m6.3711-12.74217V52.8828m6.37109-12.74217V52.8828m6.37109-12.74217V52.8828"/><path fill="none" stroke="#000" stroke-miterlimit="10" stroke-width=".79615" d="M333.80075 30.58203V62.4375"/><use xlink:href="#h" x="328.2225" y="84.85952"/><path fill="none" stroke="#000" stroke-miterlimit="10" stroke-width=".39807" d="M340.17184 40.14063V52.8828m6.37109-12.74217V52.8828m6.3711-12.74217V52.8828m6.37109-12.74217V52.8828m6.37109-12.74217V52.8828m6.37109-12.74217V52.8828m6.3711-12.74217V52.8828m6.3711-12.74217V52.8828m6.37108-12.74217V52.8828"/><path fill="none" stroke="#000" stroke-miterlimit="10" stroke-width=".79615" d="M397.51168 30.58203V62.4375"/><use xlink:href="#i" x="391.93269" y="85.10526"/><path fill="none" stroke="#000" stroke-miterlimit="10" stroke-width=".39807" d="M403.88277 40.14063V52.8828m6.37109-12.74217V52.8828m6.3711-12.74217V52.8828m6.37109-12.74217V52.8828m6.375-12.74217V52.8828m6.36719-12.74217V52.8828m6.375-12.74217V52.8828m6.36718-12.74217V52.8828m6.375-12.74217V52.8828"/><use xlink:href="#j" x="7.46294" y="22.35902"/><path fill="none" stroke="#000" stroke-miterlimit="10" stroke-width=".79615" d="M276.4609 33.76953v25.48438"/><use xlink:href="#k" x="269.23721" y="22.67169"/></svg>