<svg xmlns="http://www.w3.org/2000/svg" xmlns:xlink="http://www.w3.org/1999/xlink" width="262.832pt" height="267.82pt" viewBox="0 0 262.832 267.82"><defs><path id="a" d="M2.28125 0h6.92188v-.60937L7.4375-.76563C6.98438-.8125 6.75-.96874 6.75-1.79686v-12.40625l-.125-.10938-4.34375.73438v.51562l1.96875.25c.35938.04688.5.20313.5.79688v10.21875c0 .82812-.20312.98437-.6875 1.03125l-1.78125.15624Zm0 0"/><path id="b" d="M.5625-.20312.78125 0H9.5l.71875-2.78125-.57812-.10937C9.1875-1.75 8.76563-1.59375 7.90625-1.59375h-5.375C2.875-2.6875 4.125-4.1875 6.07813-5.60937 8.09375-7.07812 9.65625-8.01562 9.65625-10.375c0-2.9375-1.95312-3.9375-4.17187-3.9375-2.89063 0-4.35938 1.75-4.35938 2.84375 0 .71875.79688 1.04688 1.15625 1.04688.39063 0 .51563-.21875.60938-.57813.32812-1.4375 1.17187-2.57812 2.46875-2.57812 1.60937 0 2.07812 1.34375 2.07812 2.89062 0 2.26563-1.14062 3.54688-2.98437 5.15625C1.85938-3.26562.96875-1.84375.5625-.20312m0 0"/><path id="c" d="M.5625-2.15625C.5625-1.25 2.01563.25 5 .25c3.04688 0 4.96875-1.54687 4.96875-4.23437 0-2.82813-2.42187-3.65625-3.57812-3.76563v-.09375c1.14062-.17187 2.95312-1.03125 2.95312-3.10937 0-2.32813-1.8125-3.35938-4.07812-3.35938-2.78125 0-4.14063 1.60938-4.14063 2.5 0 .65625.73438 1.01563 1.03125 1.01563.26563 0 .42188-.15625.51563-.42188.46875-1.4375 1.25-2.35937 2.4375-2.35937 1.65625 0 2.07812 1.45312 2.07812 2.64062 0 1.26563-.4375 2.84375-2.23437 2.84375-1.01563 0-1.59375-.20312-1.84375-.20312-.26563 0-.375.20312-.375.59375 0 .35937.10937.57812.375.57812.25 0 .82812-.20312 1.84375-.20312C6.75-7.32812 7.75-5.71875 7.75-3.875 7.75-1.35937 6.51563-.5 5.01563-.5 3.625-.5 2.71875-1.53125 2.3125-2.71875c-.14062-.39062-.34375-.59375-.625-.59375-.39062 0-1.125.40625-1.125 1.15625m0 0"/><path id="d" d="m.40625-4.21875.17188.45313H6.3125v2.15625c0 .71875-.21875.82812-.73437.875l-1.34375.125V0h5.5625v-.60937l-.95313-.10938c-.48437-.0625-.625-.17187-.625-.89062v-2.15625H10.375V-4.75H8.21875v-9.32812H6.67188C4.70313-11.15625 2.32813-7.5.40625-4.21875M1.92188-4.75C3.1875-7.03125 4.70313-9.48437 6.3125-12.03125V-4.75Zm0 0"/><path id="e" d="M.84375-2.15625C.84375-1.1875 2.32813.25 5.0625.25c3.46875 0 5.04688-2.10937 5.04688-4.78125 0-2.95312-1.84375-4.45312-4.34375-4.45312-1.17188 0-2.45313.51562-3.125 1.125l.46875-4c.07812-.53125.20312-.59375.60937-.59375h5.25l.51563-1.4375-.125-.1875H2.32813L2.125-13.875l-.42187 7.04688.51562.26562c.875-1.01562 1.71875-1.5 2.875-1.5 1.34375 0 2.8125.98438 2.8125 3.76563C7.90625-2.125 7.03125-.5 5.20313-.5c-1.48438 0-2.21875-1.04687-2.65625-2.25-.10938-.3125-.3125-.51562-.59375-.51562-.42188 0-1.10938.42187-1.10938 1.10937m0 0"/><path id="f" d="M.875-7.03125C.875-2.82812 2.10938.25 5.57813.25s4.73437-3.07812 4.73437-7.28125c0-4.21875-1.26562-7.28125-4.73437-7.28125S.875-11.25.875-7.03125m2.125 0c0-3.4375.57813-6.54687 2.57813-6.54687s2.57812 3.10937 2.57812 6.54687C8.15625-3.60937 7.57813-.5 5.57813-.5S3-3.60937 3-7.03125m0 0"/></defs><path fill="#FFF" stroke="#FFF" stroke-miterlimit="10" stroke-width=".39823" d="M26.53906 237.69922V14.62117h223.07805v223.07805Zm0 0"/><path fill="none" stroke="#000" stroke-miterlimit="10" stroke-width=".39823" d="M26.53906 237.69922h223.07805M26.53906 193.08205h223.07805M26.53906 148.46878h223.07805M26.53906 103.85161h223.07805M26.53906 59.23835h223.07805M26.53906 14.6368h223.07805M26.53906 237.69922V14.62117m44.61717 223.07805V14.62117m44.61718 223.07805V14.62117m44.61326 223.07805V14.62117m44.61717 223.07805V14.62117m44.59764 223.07805V14.62117"/><path fill="#007F7F" stroke="#007F7F" stroke-miterlimit="10" stroke-width=".39823" d="M147.00386 72.62115V45.85163h26.76952v26.76952Zm0 0"/><path fill="#FF7F00" stroke="#FF7F00" stroke-miterlimit="10" stroke-width=".39823" d="M129.15621 193.08205c0-7.39063-5.99218-13.38281-13.3828-13.38281-7.39453 0-13.38672 5.99218-13.38672 13.3828 0 7.39454 5.99219 13.38672 13.38672 13.38672 7.39062 0 13.3828-5.99218 13.3828-13.38671Zm0 0"/><use xlink:href="#a" x="65.57725" y="259.9273"/><use xlink:href="#a" x="7.4703" y="200.24142"/><use xlink:href="#b" x="110.19226" y="259.9273"/><use xlink:href="#b" x="7.4703" y="155.62641"/><use xlink:href="#c" x="154.80828" y="259.9273"/><use xlink:href="#c" x="7.4703" y="110.88747"/><use xlink:href="#d" x="199.42329" y="259.68147"/><use xlink:href="#d" x="7.4703" y="66.27246"/><use xlink:href="#e" x="244.03831" y="259.68147"/><use xlink:href="#e" x="7.4703" y="21.53453"/><use xlink:href="#f" x="7.4703" y="259.9273"/></svg>