<svg xmlns="http://www.w3.org/2000/svg" xmlns:xlink="http://www.w3.org/1999/xlink" width="574.414pt" height="286.601pt" viewBox="0 0 574.414 286.601"><defs><path id="d" d="m2.75-13.95312.85938.09375c.48437.0625.67187.25.78125 1 .25 1.9375.48437 4.01562.76562 6.125L6.04688 0H7.5l4.25-7.25c1.375-2.32812 2.67188-4.48437 3.51563-5.78125.46875-.71875.78125-.82812 1.90625-.92187l.10937-.59375h-4.625l-.125.59375 1.17188.09375c.375.04687.46875.17187.25.67187C13.5-12.25 12.5-10.40625 10.71875-7.34375l-3 5.23438H7.6875l-.75-5.59375c-.25-1.85938-.4375-3.6875-.625-5.4375-.04687-.40625-.01562-.65625.35938-.70313l1.34375-.10937.10937-.59375H2.85938Zm0 0"/><path id="e" d="m2.64063-9.46875 1.32812.10938c.51563.04687.48438.35937.3125 1l-1.45312 5.5625C2.375-1.125 2.54688.25 4.23438.25 6.25.25 8.46875-1.96875 9.71875-4.40625h.04688L9.0625-2.01562C8.67188-.60937 8.90625.25 10.03125.25c1.51563 0 2.78125-1.4375 3.51563-3l-.5-.3125c-.42188.71875-1.35938 2.21875-1.9375 2.21875-.45313 0-.45313-.48437-.26563-1.125l2.25-8.59375-1.875.23438c-.60937 2.15625-.96875 3.28125-1.5 4.54687-.92187 2.125-2.75 4.9375-4.5 4.9375-.67187 0-.82812-.60937-.51562-1.84375l2.01562-7.76562-.10937-.10938-3.82813.57813Zm0 0"/><path id="f" d="M1.67188-3.20312C1.67188-.25 3.57813.25 4.8125.25c1.54688 0 3.40625-.67187 4.84375-3l-.5-.42187C8.39063-2.1875 7.25-.78125 5.6875-.78125c-1.48437 0-1.92187-1.25-1.92187-2.90625 0-.125 0-.1875.01562-.34375C7.32813-4.75 8.85938-5.59375 9.76563-6.45312c.73437-.73438.89062-1.42188.89062-2.01563 0-1.10937-.89062-2.09375-2.625-2.09375-1.89062 0-3.4375.95313-4.60937 2.39063-1.10938 1.35937-1.75 3.20312-1.75 4.96875M3.82813-4.75c.35937-2.54687 1.95312-5.07812 3.625-5.07812.73437 0 1.21875.48437 1.21875 1.23437 0 1.46875-1.28125 3.07813-4.84375 3.84375m0 0"/><path id="g" d="M1.51563-2.53125C1.51563-1.17187 1.92188.25 3.625.25c2.42188 0 4.29688-2.57812 5.53125-4.84375h.04688l-.6875 2.51563c-.4375 1.5-.125 2.34375.95312 2.32812 1.54688 0 2.71875-1.4375 3.42188-3.03125l-.48438-.28125c-.375.73438-1.32812 2.21875-1.90625 2.21875-.42187 0-.375-.48437-.20312-1.15625l3.3125-13.51562-.10938-.09375-3.73437.5-.10938.48437 1.25.10938c.51563.04687.5625.20312.375.875L10.48438-10.25l-.04688.04688c-.40625-.20313-1.0625-.35938-1.76562-.35938-4.90625 0-7.15625 5.48438-7.15625 8.03125m2.09375.1875c0-2.29687 1.82812-7.48437 5.1875-7.48437.65625 0 1.21875.20312 1.45312.42187-.3125 1.60938-1 3.60938-2.07812 5.35938-1 1.625-2.39063 3.20312-3.51563 3.20312-.67187 0-1.04687-.5625-1.04687-1.5m0 0"/><path id="h" d="M1.70313-3.10937C1.70313-.53125 3.25.25 4.71875.25c1.57813 0 3.34375-.67187 4.79688-3.09375L9-3.25c-.71875.96875-1.95312 2.46875-3.35937 2.46875-1.54688 0-1.85938-1.25-1.85938-2.75 0-2.73437 1.59375-6.29687 3.51563-6.29687.67187 0 1.14062.42187 1.28125 1.67187.04687.39063.21875.64063.60937.64063.5 0 1.34375-.48438 1.34375-1.17188 0-1.07812-1.15625-1.875-2.71875-1.875-3.73437 0-6.10937 4-6.10937 7.45313m0 0"/><path id="i" d="M1.92188.25 3.76563 0c.5625-2.15625.875-3.3125 1.40625-4.64062.625-1.625 2.70312-4.82813 4.54687-4.82813.67188 0 .92188.60938.67188 1.46875L8.67188-2.01562C8.26563-.625 8.54688.25 9.76563.25c1.45312 0 2.64062-1.4375 3.35937-3.03125l-.51562-.28125c-.39063.73438-1.32813 2.21875-1.90625 2.21875-.42188 0-.40625-.48437-.20313-1.15625l1.65625-5.51562c.51563-1.67188.25-3.04688-1.45312-3.04688-2 0-4.25 2.17188-5.59375 4.70313H5.0625l2.34375-9.65625-.10937-.09375-3.78125.5-.14063.48437 1.21875.14063c.53125.0625.59375.20312.42188 1.03125Zm0 0"/><path id="j" d="M1.39063-2.26562C1.39063-1 1.96875.25 3.40625.25c2.26563 0 4.20313-2.59375 5.4375-4.75h.04688l-.71875 2.39063C7.71875-.60937 7.95313.25 9.09375.25c1.59375 0 2.76563-1.4375 3.48438-3.03125l-.48438-.28125c-.39062.73438-1.32812 2.21875-1.90625 2.21875-.42187 0-.375-.48437-.20312-1.15625l2.21875-8.39062H10.4375l-.09375.26562c-.35937-.23437-.98437-.4375-1.54687-.4375-5.01563 0-7.40625 5.53125-7.40625 8.29688m2.07812-.04688c0-2.29687 2.0625-7.51562 5.375-7.51562.51563 0 .96875.17187 1.28125.46875C9.73438-7.79687 9-5.70312 7.875-4.03125 6.6875-2.23437 5.39063-.84375 4.39063-.84375c-.70313 0-.92188-.64062-.92188-1.46875m0 0"/><path id="k" d="M2.64063-1.8125C2.32813-.60937 2.57813.25 3.625.25 5.3125.25 6.65625-1.14062 7.5-2.70312l-.46875-.35938c-.5.82813-1.5625 2.21875-2.21875 2.21875-.45312 0-.45312-.48437-.3125-1.01562l1.875-7.65625H9l.25-.8125H6.5625l.71875-2.48438-.25-.15625L5-11.35937l-.28125 1.03125H3l-.21875.8125h1.73438Zm0 0"/><path id="n" d="M5.125-13.65625c0 .78125.54688 1.1875 1.17188 1.1875.82812 0 1.34375-.5625 1.34375-1.40625 0-.82812-.5625-1.17187-1.14063-1.17187-.90625 0-1.375.71875-1.375 1.39062M2.53125-1.8125C2.21875-.60937 2.48438.25 3.625.25c1.53125 0 2.6875-1.4375 3.40625-3.03125l-.51562-.28125c-.375.73438-1.29688 2.21875-1.875 2.21875-.4375 0-.40625-.48437-.23438-1.15625l2.3125-8.45312-.10937-.10938-3.82813.57813-.14062.51562 1.20312.10938c.5625.04687.64063.21875.45313.96875Zm0 0"/><path id="o" d="M2.0625.25 3.92188 0c.59375-2.15625.98437-3.29687 1.51562-4.59375.78125-1.8125 2.79688-4.875 4.5-4.875.75 0 .92188.67188.70313 1.5L8.82813-1.8125C8.48438-.625 8.75.25 9.89063.25c1.57812 0 2.76562-1.4375 3.48437-3.03125l-.51562-.28125c-.39063.73438-1.3125 2.21875-1.89063 2.21875-.42187 0-.40625-.48437-.21875-1.15625l1.65625-5.51562c.48438-1.67188.21875-3.04688-1.5-3.04688-2.01562 0-4.21875 2.23438-5.46875 4.70313H5.375l1.35938-4.59375-.10938-.10938-3.84375.57813-.14062.51562 1.32812.10938c.51563.04687.48438.34375.3125 1Zm0 0"/><clipPath id="a"><path d="M.10547 0H256v255H.10547Zm0 0"/></clipPath><clipPath id="b"><path d="M.10547 0H256v256H.10547Zm0 0"/></clipPath><clipPath id="c"><path d="M.10547 0H256v256H.10547Zm0 0"/></clipPath><clipPath id="l"><path d="M318 159h255.72266v33H318Zm0 0"/></clipPath><clipPath id="m"><path d="M318 159h255.72266v33H318Zm0 0"/></clipPath></defs><g clip-path="url(#a)"><path fill="#7FD6F7" d="M.30469 254.96094V.1953H255.0703v254.76563Zm0 0"/></g><g clip-path="url(#b)"><path fill="none" stroke="#7FD6F7" stroke-miterlimit="10" stroke-width=".39795" d="M.30469 254.96094V.19525h254.76568v254.76569Zm0 0"/></g><path fill="#7FFF7F" stroke="#7FFF7F" stroke-miterlimit="10" stroke-width=".39795" d="M32.15235 223.11718V32.04291h191.07427v191.07427Zm0 0"/><path fill="#FFF87F" stroke="#FFF87F" stroke-miterlimit="10" stroke-width=".39795" d="M63.9961 191.26952V63.88667h127.38285v127.38285Zm0 0"/><path fill="#FF7F7F" stroke="#FF7F7F" stroke-miterlimit="10" stroke-width=".39795" d="M95.84377 159.42576V95.73434h63.69142v63.69142Zm0 0"/><g clip-path="url(#c)"><path fill="none" stroke="#000" stroke-miterlimit="10" stroke-width=".39795" d="M.30469 254.96094h254.76568M.3047 223.11718h254.76568M.3047 191.26952h254.76568M.3047 159.42576h254.76568M.3047 127.57809h254.76568M.3047 95.73434h254.76568M.3047 63.88667h254.76568M.3047 32.04291h254.76568M.3047.19525h254.76568M.3047 254.96094V.19525m31.84766 254.76569V.19525m31.84376 254.76569V.19525m31.84766 254.76569V.19525m31.84376 254.76569V.19525m31.84766 254.76569V.19525m31.84376 254.76569V.19525m31.84767 254.76569V.19525m31.84375 254.76569V.19525"/></g><use xlink:href="#d" x="71.04294" y="278.47332"/><use xlink:href="#e" x="83.55603" y="278.47332"/><use xlink:href="#f" x="96.5392" y="278.47332"/><use xlink:href="#g" x="110.77592" y="278.47332"/><use xlink:href="#e" x="123.10993" y="278.47332"/><use xlink:href="#h" x="140.81629" y="278.47332"/><use xlink:href="#i" x="150.08358" y="278.47332"/><use xlink:href="#j" x="162.84291" y="278.47332"/><use xlink:href="#k" x="174.63968" y="278.47332"/><g clip-path="url(#l)"><path fill="#7FD6F7" stroke="#000" stroke-miterlimit="10" stroke-width=".39795" d="M318.7618 191.26952v-31.84376h254.76959v31.84376Zm0 0"/></g><path fill="#7FFF7F" stroke="#000" stroke-miterlimit="10" stroke-width=".39795" d="M350.60946 159.42576v-31.84767h191.07427v31.84767Zm0 0"/><path fill="#FFF87F" stroke="#000" stroke-miterlimit="10" stroke-width=".39795" d="M382.45712 127.5781V95.73433h127.38285v31.84375Zm0 0"/><path fill="#FF7F7F" stroke="#000" stroke-miterlimit="10" stroke-width=".39795" d="M414.30088 95.73434V63.88667h63.69142v31.84767Zm0 0"/><g clip-path="url(#m)"><path fill="none" stroke="#000" stroke-miterlimit="10" stroke-width=".39795" d="M318.7618 191.26952h254.76959m-254.7696-31.82423h254.7696m-254.7696 31.82423v-31.84376m31.84767 31.84376v-31.84376m31.84766 31.84376v-31.84376m31.84376 31.84376v-31.84376m31.84767 31.84376v-31.84376m31.84375 31.84376v-31.84376m31.84767 31.84376v-31.84376m31.84376 31.84376v-31.84376m31.84766 31.84376v-31.84376"/></g><path fill="none" stroke="#000" stroke-miterlimit="10" stroke-width=".39795" d="M350.60946 159.42576h191.07427m-191.07427-31.84767h191.07427m-191.07427 31.84767v-31.84767m31.84766 31.84767v-31.84767m31.84376 31.84767v-31.84767m31.84767 31.84767v-31.84767m31.84375 31.84767v-31.84767m31.84767 31.84767v-31.84767m31.84376 31.84767v-31.84767M382.45712 95.73434h127.38285m-95.53909 31.84375V95.73434m31.84767 31.84375V95.73434m31.84375 31.84375V95.73434m31.84767 31.84375V95.73434m-95.53909-31.84767h63.69142m-31.84375 31.84767V63.88667m31.84375 31.84767V63.88667"/><use xlink:href="#d" x="385.2545" y="278.47332"/><use xlink:href="#e" x="397.76759" y="278.47332"/><use xlink:href="#f" x="410.75076" y="278.47332"/><use xlink:href="#g" x="424.98748" y="278.47332"/><use xlink:href="#e" x="437.32149" y="278.47332"/><use xlink:href="#h" x="455.02785" y="278.47332"/><use xlink:href="#i" x="464.29515" y="278.47332"/><use xlink:href="#n" x="477.05447" y="278.47332"/><use xlink:href="#f" x="483.70275" y="278.47332"/><use xlink:href="#o" x="493.21628" y="278.47332"/></svg>