<svg xmlns="http://www.w3.org/2000/svg" xmlns:xlink="http://www.w3.org/1999/xlink" width="250.864pt" height="251.851pt" viewBox="0 0 250.864 251.851"><defs><path id="a" d="M.73438 0h11.15625l.25-3.65625h-.625c-.48438 2.57813-1.4375 2.92188-4.07813 2.92188-.98437 0-1.75-.03126-2.1875-.20313-.45312-.1875-.51562-.5625-.51562-1.59375V-7.1875h2.92187c1.79688 0 1.89063.51563 2.0625 1.82813h.64063v-4.4375h-.64063c-.17187 1.3125-.26562 1.8125-2.0625 1.8125H4.73438v-5.09375c0-.67188.07812-.76563.75-.76563h2.0625c2.40625 0 2.89062.53125 3.1875 2.73438h.64062v-3.45313H.73438v.60938c1.85937.125 1.90625.15625 1.90625 1.34375v10.65625c0 1.1875-.04688 1.21875-1.90625 1.34375Zm0 0"/><path id="b" d="M.73438 0h5v-.60937C4.375-.71875 3.85938-.78125 3.71875-1.65625c-.10937-.70312-.14062-1.5-.14062-2.625v-8.40625H3.625C6.625-8.45312 9.60938-4.23437 12.59375 0h1.39063v-10.3125c0-1.10937.04687-1.90625.15625-2.59375.125-.875.625-.96875 1.71875-1.04687v-.60938h-5v.60938c1.375.10937 1.875.17187 2 1.04687.10937.6875.15625 1.48438.15625 2.59375v7.40625l-.04688-.04687c-2.75-3.875-5.5-7.73438-8.21875-11.60938H.71875v.60938c1.85938.125 1.90625.15625 1.90625 1.34375v8.32812c0 1.125-.04687 1.92188-.15625 2.625-.14062.875-.625.96875-1.73437 1.04688Zm0 0"/><path id="c" d="M1.01563-7.28125c0 2.35938.64062 4.29688 1.78125 5.5625C3.98438-.40625 5.71875.3125 8.01563.3125c2.3125 0 4.03125-.71875 5.21875-2.03125 1.15625-1.26562 1.79687-3.20312 1.79687-5.5625s-.64062-4.29687-1.79687-5.5625c-1.1875-1.3125-2.90625-2.0625-5.21875-2.0625-2.29688 0-4.03125.75-5.21875 2.0625-1.14063 1.26563-1.78125 3.20313-1.78125 5.5625m2.34375 0c0-3.09375.92187-6.875 4.65625-6.875 3.75 0 4.67187 3.78125 4.67187 6.875S11.76563-.42187 8.01563-.42187c-3.73438 0-4.65625-3.76563-4.65625-6.85938m0 0"/><path id="d" d="M1.04688-4.32812 1.25-.9375c.92188.875 2.6875 1.25 4.17188 1.25 3.71875 0 5.20312-2.125 5.20312-4.28125 0-2.48437-1.6875-3.67187-4.15625-4.5625l-.6875-.25c-1.40625-.54687-2.57812-1.4375-2.57812-2.6875 0-1.54687.92187-2.6875 2.6875-2.6875 1.8125 0 2.82812 1.03125 3.15625 3.15625h.65625v-2.95312c-.71875-.5625-2.125-.95313-3.5625-.95313-2.57813 0-4.85938 1.3125-4.85938 4.07813 0 2.21875 1.76563 3.35937 3.98438 4.15625l.375.15625c.92187.35937 2.9375 1.29687 2.9375 3.17187 0 1.8125-1.15625 2.92188-3.04688 2.92188-1.96875 0-3.26562-1.54688-3.8125-3.90625Zm0 0"/></defs><path fill="#FFF" stroke="#000" stroke-miterlimit="10" stroke-width=".79654" d="m165.2422 125.52734 29.35547-67.58986-67.58595 29.35548-67.58986-29.35548 29.35547 67.58986-29.35547 67.58596 67.58986-29.35548 67.58595 29.35548Zm0 0"/><path fill="#7FBFBF" stroke="#7FBFBF" stroke-miterlimit="10" stroke-width=".39826" d="m165.2422 125.52734 29.35547-67.58986-67.58595 67.58986Zm-38.23048-38.23438L59.42186 57.93748l67.58986 67.58986Zm-38.23439 38.23438L59.42186 193.1133l67.58986-67.58596Zm38.23439 38.23048 67.58595 29.35548-67.58595-67.58596Zm0 0"/><path fill="none" stroke="#000" stroke-miterlimit="10" stroke-width=".79654" d="m165.2422 125.52734 29.35547-67.58986-67.58595 29.35548-67.58986-29.35548 29.35547 67.58986-29.35547 67.58596 67.58986-29.35548 67.58595 29.35548Zm0 0"/><path fill="#FFF" stroke="#000" stroke-miterlimit="10" stroke-width=".79654" d="m222.59378 125.52734-71.9258-23.65625-23.65626-71.92971-23.65626 71.9297-71.9297 23.65626 71.9297 23.65626 23.65626 71.9258 23.65626-71.9258Zm0 0"/><path fill="#007F7F" stroke="#007F7F" stroke-miterlimit="10" stroke-width=".39826" d="M222.59378 125.52734h-95.58206l23.65626-23.65625Zm-95.58206-95.58596v95.58596l-23.65626-23.65625Zm-95.58596 95.58596h95.58596l-23.65626 23.65626Zm95.58596 95.58206v-95.58206l23.65626 23.65626Zm0 0"/><path fill="none" stroke="#000" stroke-miterlimit="10" stroke-width=".79654" d="m222.59378 125.52734-71.9258-23.65625-23.65626-71.92971-23.65626 71.9297-71.9297 23.65626 71.9297 23.65626 23.65626 71.9258 23.65626-71.9258Zm0 0"/><path fill="none" stroke="#000" stroke-miterlimit="10" stroke-width=".39826" d="M222.59378 125.52734H31.42576m163.17191-67.58986L59.42186 193.1133m67.58986-163.17192V221.1094M59.42186 57.93748 194.59767 193.1133"/><use xlink:href="#a" x="230.50883" y="132.80743"/><use xlink:href="#b" x="202.5124" y="50.02441"/><use xlink:href="#a" x="218.93357" y="50.02441"/><use xlink:href="#b" x="118.79992" y="22.02897"/><use xlink:href="#b" x="19.04694" y="49.71059"/><use xlink:href="#c" x="35.46811" y="49.71059"/><use xlink:href="#c" x="7.47279" y="132.81842"/><use xlink:href="#d" x="24.08796" y="215.92625"/><use xlink:href="#c" x="35.46852" y="215.92625"/><use xlink:href="#d" x="121.32043" y="243.92169"/><use xlink:href="#d" x="202.5124" y="215.92625"/><use xlink:href="#a" x="213.89296" y="215.92625"/></svg>