<svg xmlns="http://www.w3.org/2000/svg" width="198.823pt" height="198.823pt" viewBox="0 0 198.823 198.823"><defs><clipPath id="a"><path d="M0 0h198.64453v198.64453H0Zm0 0"/></clipPath></defs><g stroke-miterlimit="10" stroke-width=".39815" clip-path="url(#a)"><path fill="#FFF" stroke="#FFF" d="M.19922 198.44922V.19522H198.4493v198.254Zm0 0"/><path fill="none" stroke="#000" d="M.19922 198.44922H198.4493M.1992 158.79686h198.2501M.1992 119.1484h198.2501M.1992 79.49604h198.2501M.1992 39.84758h198.2501M.1992.21085h198.2501M.1992 198.44922V.19522m39.64846 198.254V.19522m39.65237 198.254V.19522m39.64845 198.254V.19522m39.65236 198.254V.19522m39.63283 198.254V.19522"/></g><path fill="#7F007F" stroke="#7F007F" stroke-miterlimit="10" stroke-width=".39815" d="M51.74221 158.79686c0-6.57032-5.32422-11.89454-11.89454-11.89454s-11.89453 5.32422-11.89453 11.89454 5.32422 11.89453 11.89453 11.89453c6.57032 0 11.89454-5.32422 11.89454-11.89453Zm0 0"/><path fill="none" stroke="#7F007F" stroke-miterlimit="10" stroke-width="1.19447" d="M39.84767 158.79686h79.30082V119.1484h39.65236V87.26167"/><path fill="#7F007F" stroke="#7F007F" stroke-miterlimit="10" stroke-width="1.19447" d="M158.80078 83.3086c-.08984.48437-.58984 2.61718-1.13281 3.95312h2.26562c-.54687-1.33594-1.04687-3.46875-1.1328-3.95313Zm0 0"/></svg>