<?xml version="1.0" encoding="UTF-8"?><svg id="a" xmlns="http://www.w3.org/2000/svg" viewBox="0 0 405.33 405.37"><g id="b"><path d="M160,277.37c-54.4,0-70.93-145.07-74.67-266.13,0-5.87,4.27-10.67,10.13-11.2,5.87,0,10.67,4.27,11.2,10.13,5.33,169.07,31.47,245.87,53.33,245.87s48-76.8,53.33-245.87c0-5.87,5.33-10.67,11.2-10.13,5.87,0,10.67,5.33,10.13,11.2-3.73,121.07-20.27,266.13-74.67,266.13Z" fill="#5766cb" stroke-width="0"/></g><g id="c"><path d="M352,405.37c-5.87,0-10.67-4.8-10.67-10.67v-32H10.67c-5.87,0-10.67-4.8-10.67-10.67s4.8-10.67,10.67-10.67h330.67V10.71c0-5.87,4.8-10.67,10.67-10.67s10.67,4.8,10.67,10.67v330.67h32c5.87,0,10.67,4.8,10.67,10.67s-4.8,10.67-10.67,10.67h-32v32c0,5.87-4.8,10.67-10.67,10.67Z" fill="#3b4a51" stroke-width="0"/></g></svg>