<svg xmlns="http://www.w3.org/2000/svg" xmlns:xlink="http://www.w3.org/1999/xlink" width="321.06pt" height="74.114pt" viewBox="0 0 321.06 74.114"><defs><path id="g" d="M-.125-7.875c.625.03125.76563.10938.9375.625L3.28125 0h1.54688l1.45312-4.20312c.46875-1.3125.89063-2.48438 1.07813-2.95313.25-.57812.34375-.65625 1.04687-.71875v-.4375H5.5625v.4375l.6875.0625c.25.03125.28125.14063.20313.40625-.10938.39063-.39063 1.39063-.75 2.5-.25.73438-.78125 2.5-1 3.10938H4.625L2.79688-7.375c-.07813-.25-.0625-.40625.21875-.4375l.57812-.0625v-.4375H-.125Zm0 0"/><path id="h" d="M.59375-1.60937c0 .89062.57813 1.75 1.8125 1.75.79688 0 1.34375-.40625 1.76563-.6875.15625.375.375.6875.96875.6875.64062 0 1.39062-.20313 1.79687-.35938l-.01562-.39062c-.15625.01562-.42188 0-.60938-.0625-.15625-.0625-.39062-.20313-.39062-.90625v-2.76563c0-.76562-.10938-1.70312-2.26563-1.70312-1.79687 0-2.92187.70312-2.92187 1.48437 0 .53125.78125.76563 1.09375.76563.26562 0 .40625-.20313.51562-.48438.34375-1.03125.75-1.20312 1.09375-1.20312s.6875.20312.6875.89062v.64063c-.4375.29687-1.45312.57812-2.25.84375-.96875.32812-1.28125.8125-1.28125 1.5m1.85938-.1875c0-.57813.20312-.85938.57812-1.0625.375-.20313.79688-.35938 1.09375-.5v1.75c-.03125.65625-.40625.8125-.75.8125-.48437 0-.92187-.375-.92187-1m0 0"/><path id="i" d="M.29688 0H3.75v-.45312C3.04688-.5 2.96875-.54687 2.96875-1.04687v-7.79688l-.10937-.07812-2.46875.32812v.42188l.42187.07812c.1875.03125.28125.14063.28125.625v6.42188c0 .5-.09375.54687-.79687.59375Zm0 0"/><path id="j" d="M.48438-2.9375c0 1.625.73437 3.07813 3 3.07813 1.45312 0 2.25-.6875 2.67187-1.75l-.4375-.25c-.375.6875-.89062 1.07812-1.64062 1.07812-1.21875 0-1.65625-.98437-1.65625-2.25h3.1875c.4375 0 .65625-.10937.65625-.5 0-.98437-.39063-2.51562-2.75-2.51562C1.3125-6.04687.48438-4.625.48438-2.9375m1.9375-.67187c0-.875.23437-1.875 1.03125-1.875.75 0 .875.92187.875 1.48437 0 .32813-.09375.39063-.375.39063Zm0 0"/><path id="k" d="m.35938-5.26562.4375.0625c.1875.03125.26562.125.26562.60937v2.9375C1.0625-.25 1.95313.14063 2.84375.14063c1.04688 0 1.6875-.54688 2.17188-.8125L5.125 0h2.54688v-.45312C6.96875-.5 6.89063-.54687 6.89063-1.04687v-4.92188l-.10938-.07812-2.46875.35937v.42188l.42188.0625c.20312.03125.28125.125.28125.60937v2.54688c0 .20312 0 .5-.07813.67187-.125.28125-.45312.5625-.98437.5625-.65625 0-1.03125-.35937-1.03125-1.29687v-3.85938l-.09375-.07812-2.46875.35937Zm0 0"/><path id="l" d="M.39063 0h3.70312v-.45312c-.9375-.0625-1.0625-.09375-1.0625-.59375v-2.67188c0-.625.10938-.92187.40625-.92187.20313 0 .39063.09375.65625.25.15625.10937.32813.1875.5625.1875.25 0 .5-.125.625-.29688.14063-.1875.20313-.42187.20313-.70312 0-.5-.34375-.84375-.85938-.84375-.5 0-.89062.34375-1.60937 1.0625l-.17188-1.0625-2.39062.35937v.42188l.4375.0625c.1875.03125.29687.125.29687.60937v3.54688c0 .5-.09375.54687-.79687.59375Zm0 0"/><path id="m" d="M.48438-2.84375c0 1.75.92187 2.98438 2.48437 2.98438.45313 0 1.10938-.23438 1.76563-.73438V0H7.375v-.45312C6.67188-.5 6.57813-.54687 6.57813-1.04687v-7.79688L6.5-8.92187 4-8.59375v.42188l.4375.07812c.1875.03125.29688.14063.29688.625v1.57813C4.46875-6 4.10938-6.04687 3.6875-6.04687c-.90625 0-1.73437.28125-2.29687.78125-.5625.53125-.90625 1.34375-.90625 2.42187m1.9375-.23437c0-1.76563.6875-2.40625 1.375-2.40625.46875 0 .71875.23437.82812.48437.125.17188.10938.4375.10938.6875v2.48438c0 .48437-.1875 1.04687-.96875 1.04687-.79688 0-1.34375-.76562-1.34375-2.29687m0 0"/><path id="o" d="M.92188-7.60937c0 .57812.42187 1.0625 1.10937 1.0625s1.15625-.48438 1.15625-1.0625c0-.5625-.45312-1.04688-1.15625-1.04688-.6875 0-1.10937.48438-1.10937 1.04688M.39063 0h3.45312v-.45312c-.70312-.04688-.8125-.09375-.8125-.59375v-4.92188l-.0625-.07812-2.51562.35937v.42188l.4375.0625c.1875.03125.29687.125.29687.60937v3.54688c0 .5-.09375.54687-.79687.59375Zm0 0"/><path id="p" d="M.45313-5.29687h.71875v3.89062C1.17188-.3125 2 .14063 2.6875.14063c.51563 0 1.26563-.21875 1.95313-.64063l-.125-.39062C4.34375-.8125 4.09375-.75 3.82813-.75c-.46875 0-.79688-.34375-.79688-1.125v-3.42187H4.3125v-.60938H3.03125v-1.5h-.70312l-1.09375 1.5H.45313Zm0 0"/><path id="q" d="M.48438-2.9375c0 1.90625.9375 3.07813 3.17187 3.07813s3.1875-1.17188 3.1875-3.07813c0-1.92187-.95312-3.10937-3.1875-3.10937S.48438-4.85937.48438-2.9375m1.9375 0c0-1.625.35937-2.54687 1.23437-2.54687S4.875-4.5625 4.875-2.9375c0 1.60938-.34375 2.53125-1.21875 2.53125S2.42188-1.32812 2.42188-2.9375m0 0"/><path id="r" d="M.39063 0h3.28125v-.45312L3.4375-.48437c-.25-.03125-.40625-.0625-.40625-.46875V-3.8125c0-.26562.04688-.53125.14063-.70312.15625-.3125.48437-.60938.98437-.60938.625 0 .95313.39063.98438 1.10938v3.0625c0 .40625-.125.4375-.39063.46875l-.26562.03125V0h3.29687v-.45312C7.07813-.5 6.98438-.54687 6.98438-1.04687V-4.1875c-.01563-1.125-.57813-1.85937-1.84375-1.85937-.71875 0-1.3125.35937-2.10938.84375L2.875-6.04687.45313-5.6875v.42188l.4375.0625c.1875.03125.29687.125.29687.60937v3.54688c0 .5-.09375.54687-.79687.59375Zm0 0"/><path id="s" d="M.53125-2.23437.67188-.4375c.46875.42188 1.40625.57813 2.09375.57813 1.5 0 2.51562-.64063 2.51562-1.9375 0-1.04688-.67187-1.54688-1.79687-1.96875-.71875-.25-1.23438-.53125-1.23438-1.01563 0-.375.26563-.70312.78125-.70312.625 0 1.14063.5625 1.375 1.46875h.45313V-5.625c-.5-.29687-1.1875-.42187-1.82813-.42187-1.5 0-2.4375.70312-2.4375 1.90625 0 .89062.71875 1.45312 1.8125 1.84375.625.21875 1.23438.57812 1.23438 1.15625 0 .46875-.3125.73437-.84375.73437-.8125 0-1.48438-.82812-1.79688-1.82812Zm0 0"/><path id="n" d="M.39063-.46875c0 .34375.28125.60938.76562.60938.8125 0 1.28125-.8125 1.78125-1.625l.48438-.79688h.01562l.21875.95313C3.89063-.375 4.10938.14063 4.71875.14063c.89063 0 1.34375-.90625 1.70313-1.64063l-.3125-.15625c-.28125.53125-.625 1.17188-.95313 1.17188-.23437 0-.3125-.26563-.59375-1.34375l-.375-1.57813C4.625-4.17187 5.23438-5.125 5.57813-5.125c.35937 0 .375.1875.73437.1875.26563 0 .51563-.26562.51563-.57812 0-.375-.28125-.53125-.625-.53125-.64063 0-1.17188.57812-1.59375 1.26562l-.53125.8125H4.0625l-.48437-2.01562L3.5-6.04687l-1.98437.60937.03124.29688.95313-.0625c.1875 0 .28125.07812.39063.59375l.42187 1.75-.32812.5625c-.51563.89062-.96875 1.51562-1.25 1.51562-.35938 0-.4375-.29687-.82813-.29687-.3125 0-.51562.3125-.51562.60937m0 0"/><path id="t" d="M-.25 2.21875c0 .39063.53125.6875 1.09375.6875 1.20313 0 1.71875-.96875 2.21875-3.28125l1.10938-5.0625H5.6875l.125-.46875H4.25L4.57813-7.25c.23437-.92187.46875-1.26562.79687-1.26562.3125 0 .53125.28125.8125.84375.0625.125.14063.21875.32813.21875.23437 0 .59375-.21875.59375-.53125 0-.51563-.65625-.9375-1.375-.9375-1.42188 0-2.01563 1-2.46875 2.59375l-.125.42187H2.09375l-.14062.46875h1.07812L1.64063 1.65625c-.14063.73438-.26563.8125-.39063.8125S.9375 2.375.60938 1.875c-.07813-.10937-.15626-.26562-.3125-.26562-.26563 0-.54688.29687-.54688.60937m0 0"/><path id="y" d="M1.3125 0h3.95313v-.34375L4.25-.4375c-.25-.01562-.39062-.10937-.39062-.59375v-7.07812l-.07813-.0625L1.3125-7.75v.29688l1.125.14062c.20313.01563.28125.10938.28125.45313v5.82812c0 .48438-.125.57813-.40625.59375l-1 .09375Zm0 0"/><path id="z" d="M.5-4.01562C.5-1.60937 1.20313.14063 3.1875.14063c1.98438 0 2.70313-1.75 2.70313-4.15625S5.17188-8.17187 3.1875-8.17187.5-6.42187.5-4.01562m1.21875 0c0-1.95313.32813-3.73438 1.46875-3.73438 1.14063 0 1.46875 1.78125 1.46875 3.73438S4.32813-.28125 3.1875-.28125c-1.14062 0-1.46875-1.78125-1.46875-3.73437m0 0"/><path id="B" d="M.39063-3.09375c0 1.85938.53125 3.20313 2.0625 3.20313s2.07812-1.34375 2.07812-3.20313c0-1.84375-.54687-3.20312-2.07812-3.20312S.39063-4.9375.39063-3.09375m.92187 0c0-1.5.26563-2.875 1.14063-2.875s1.125 1.375 1.125 2.875c0 1.51563-.25 2.875-1.125 2.875S1.3125-1.57812 1.3125-3.09375m0 0"/><path id="C" d="m.17188-1.84375.07812.1875h2.53125v.95313c0 .3125-.10937.35937-.32812.375l-.59375.0625V0h2.4375v-.26562L3.89063-.3125c-.21875-.03125-.28125-.07812-.28125-.39062v-.95313h.95312v-.4375h-.95312V-6.1875H2.9375C2.0625-4.90625 1.03125-3.29687.17188-1.84375m.67187-.25c.54688-1 1.21875-2.0625 1.9375-3.1875v3.1875Zm0 0"/><path id="D" d="M.375-.9375c0 .42188.65625 1.04688 1.84375 1.04688C3.75.10938 4.4375-.8125 4.4375-1.98437c0-1.29688-.8125-1.96875-1.90625-1.96875-.51562 0-1.07812.23437-1.375.5l.21875-1.75c.01563-.23438.07813-.26563.26563-.26563H3.9375l.21875-.64062-.04687-.07813H1.03125l-.09375.09375L.75-3l.21875.10938c.39063-.4375.76563-.65625 1.26563-.65625.59375 0 1.23437.4375 1.23437 1.65625 0 .95312-.375 1.67187-1.1875 1.67187-.64062 0-.96875-.45312-1.15625-.98437-.04687-.14063-.14062-.23438-.26562-.23438-.1875 0-.48438.1875-.48438.5m0 0"/><clipPath id="a"><path d="M1.4336 36H130v37.23828H1.4336Zm0 0"/></clipPath><clipPath id="b"><path d="M129 0h189.69922v37H129Zm0 0"/></clipPath><clipPath id="c"><path d="M128 0h190.69922v37H128Zm0 0"/></clipPath><clipPath id="d"><path d="M129 36h189.69922v37.23828H129Zm0 0"/></clipPath><clipPath id="e"><path d="M128 36h190.69922v37.23828H128Zm0 0"/></clipPath><clipPath id="f"><path d="M1.4336 0H130v37H1.4336Zm0 0"/></clipPath><clipPath id="u"><path d="M1.4336 36h317.26562v1H1.43359Zm0 0"/></clipPath><clipPath id="v"><path d="M1.4336 72h317.26562v1.23828H1.43359Zm0 0"/></clipPath><clipPath id="w"><path d="M1.4336 0h317.26562v73.23828H1.43359Zm0 0"/></clipPath><clipPath id="x"><path d="M128 0h2v73.23828h-2Zm0 0"/></clipPath><clipPath id="A"><path d="M128 36h190.69922v37.23828H128Zm0 0"/></clipPath></defs><g clip-path="url(#a)"><path fill="#fff" stroke="#000" stroke-miterlimit="10" stroke-width=".39379" d="M1.6289 36.6211V73.043h127.48052V36.6211Zm0 0"/></g><g clip-path="url(#b)"><path fill="#fff" d="M129.10938 36.6211V.1953H318.5078v36.4258Zm0 0"/></g><g clip-path="url(#c)"><path fill="none" stroke="#000" stroke-miterlimit="10" stroke-width=".39379" d="M129.10942 36.6211V.19532h189.3985v36.4258Zm0 0"/></g><g clip-path="url(#d)"><path fill="#fff" d="M129.10938 36.6211v36.42187H318.5078V36.62109Zm0 0"/></g><g clip-path="url(#e)"><path fill="none" stroke="#000" stroke-miterlimit="10" stroke-width=".39379" d="M129.10942 36.6211V73.043h189.3985V36.6211Zm0 0"/></g><g clip-path="url(#f)"><path fill="#fff" stroke="#000" stroke-miterlimit="10" stroke-width=".39379" d="M1.6289.19531v36.4258h127.48052V.1953Zm0 0"/></g><use xlink:href="#g" x="31.36966" y="22.79846"/><use xlink:href="#h" x="38.53652" y="22.79846"/><use xlink:href="#i" x="45.33786" y="22.79846"/><use xlink:href="#j" x="49.25418" y="22.79846"/><use xlink:href="#k" x="55.72917" y="22.79846"/><use xlink:href="#l" x="63.57486" y="22.79846"/><use xlink:href="#m" x="73.35261" y="22.79846"/><use xlink:href="#j" x="80.885" y="22.79846"/><use xlink:href="#n" x="91.63481" y="22.79846"/><use xlink:href="#g" x="20.38853" y="57.83758"/><use xlink:href="#h" x="27.5554" y="57.83758"/><use xlink:href="#l" x="34.35674" y="57.83758"/><use xlink:href="#o" x="39.99624" y="57.83758"/><use xlink:href="#h" x="44.00394" y="57.83758"/><use xlink:href="#p" x="50.80528" y="57.83758"/><use xlink:href="#o" x="55.4657" y="57.83758"/><use xlink:href="#q" x="59.47341" y="57.83758"/><use xlink:href="#r" x="66.77082" y="57.83758"/><use xlink:href="#s" x="74.72095" y="57.83758"/><use xlink:href="#m" x="84.56396" y="57.83758"/><use xlink:href="#j" x="92.09635" y="57.83758"/><use xlink:href="#t" x="102.84717" y="57.83758"/><g clip-path="url(#u)"><path fill="none" stroke="#000" stroke-miterlimit="10" stroke-width=".39379" d="M1.6289 36.6211h316.87902"/></g><g clip-path="url(#v)"><path fill="none" stroke="#000" stroke-miterlimit="10" stroke-width=".39379" d="M1.6289 73.043h316.87902"/></g><g clip-path="url(#w)"><path fill="none" stroke="#000" stroke-miterlimit="10" stroke-width=".39379" d="M1.6289.19531V73.043h316.87902V.19531Zm0 0"/></g><g clip-path="url(#x)"><path fill="none" stroke="#000" stroke-miterlimit="10" stroke-width=".39379" d="M129.10942.19531V73.043"/></g><use xlink:href="#y" x="144.11523" y="22.49706"/><use xlink:href="#y" x="293.87196" y="22.4269"/><use xlink:href="#z" x="300.24557" y="22.4269"/><g clip-path="url(#A)"><path fill="none" stroke="#000" stroke-miterlimit="10" stroke-width=".39379" d="M129.10942 36.6211V73.043h189.3985V36.6211Zm0 0"/></g><path fill="#fff" d="M142.89844 69.10547h8.83984V58.76563h-8.83984Zm0 0"/><use xlink:href="#B" x="144.86625" y="67.02672"/><path fill="#fff" d="M142.89844 69.10547h8.83984V58.76563h-8.83984Zm0 0"/><use xlink:href="#B" x="144.86625" y="67.02672"/><path fill="#fff" d="M293.42188 50.78516h13.74609V40.55859h-13.7461Zm0 0"/><use xlink:href="#C" x="295.38783" y="48.70871"/><use xlink:href="#D" x="300.29062" y="48.70871"/><path fill="#fff" d="M293.42188 50.78516h13.74609V40.55859h-13.7461Zm0 0"/><use xlink:href="#C" x="295.38783" y="48.70871"/><use xlink:href="#D" x="300.29062" y="48.70871"/><path fill="none" stroke="#000" stroke-miterlimit="10" stroke-width=".39379" d="m155.69536 62.95315 131.51567-15.70313"/><path d="M289.55469 46.96875c-1-.07812-2.8086-.26172-4.08594-1 1.10547.96094 1.19922 1.74219.35156 2.9336 1.0664-1.01954 2.78125-1.6211 3.73438-1.9336m0 0"/></svg>