<svg xmlns="http://www.w3.org/2000/svg" xmlns:xlink="http://www.w3.org/1999/xlink" width="624.023pt" height="71.514pt" viewBox="0 0 624.023 71.514"><defs><path id="e" d="M-.125-7.60937c.59375.01562.73438.09375.89063.59375L3.10938 0h1.46875l1.39062-4.0625c.42188-1.26562.84375-2.39062 1.01563-2.85937.23437-.54688.32812-.64063.98437-.6875v-.4375H5.26563v.4375l.65625.0625c.23437.01562.26562.14062.20312.375-.10937.39062-.375 1.35937-.71875 2.4375-.23437.70312-.73437 2.40625-.95312 3h-.0625l-1.75-5.39063c-.0625-.25-.04688-.40625.21875-.42187l.5625-.0625v-.4375H-.125Zm0 0"/><path id="f" d="M.5625-1.5625c0 .875.54688 1.70313 1.73438 1.70313.73437 0 1.25-.40625 1.65625-.67188.15625.35938.35937.67188.92187.67188.60938 0 1.32813-.20313 1.70313-.34375v-.39063c-.15625.01563-.42188 0-.59375-.0625-.14063-.04687-.35938-.1875-.35938-.85937v-2.6875c0-.73438-.10937-1.64063-2.15625-1.64063-1.71875 0-2.78125.6875-2.78125 1.4375 0 .51563.75.73438 1.04688.73438.26562 0 .375-.1875.5-.46875.3125-1 .70312-1.17188 1.01562-1.17188.34375 0 .65625.20313.65625.875v.60938c-.40625.28125-1.375.5625-2.125.82812C.85938-2.6875.5625-2.23437.5625-1.5625M2.32813-1.75c0-.54687.20312-.8125.54687-1.01562.35938-.1875.75-.35938 1.03125-.48438v1.6875c-.01562.64063-.375.79688-.70312.79688-.45313 0-.875-.35938-.875-.98438m0 0"/><path id="g" d="M.28125 0h3.26563v-.45312c-.65625-.03125-.73438-.07813-.73438-.5625v-7.53125L2.70313-8.625.375-8.3125v.42188l.39063.0625c.1875.03125.28124.125.28124.59375v6.21875c0 .48437-.09374.53125-.76562.5625Zm0 0"/><path id="h" d="M.45313-2.84375c0 1.57813.70312 2.98438 2.84375 2.98438 1.39062 0 2.14062-.67188 2.54687-1.70313l-.42187-.23437C5.07813-1.125 4.57813-.75 3.875-.75c-1.17187 0-1.57812-.95312-1.57812-2.1875h3.03125c.40625 0 .60937-.10937.60937-.48437 0-.95313-.375-2.42188-2.60937-2.42188-2.09375 0-2.875 1.35938-2.875 3m1.84375-.64062c0-.84375.23437-1.82813.98437-1.82813.70313 0 .82813.89063.82813 1.4375 0 .32813-.09375.39063-.35938.39063Zm0 0"/><path id="i" d="m.34375-5.09375.40625.0625c.1875.03125.26563.125.26563.59375v2.82813c0 1.35937.84375 1.75 1.6875 1.75.98437 0 1.59375-.53125 2.0625-.79688L4.85938 0h2.42187v-.45312c-.67187-.03125-.75-.07813-.75-.5625v-4.75l-.09375-.07813L4.07813-5.5v.40625l.40625.0625c.1875.03125.28125.125.28125.59375v2.45313c0 .20312-.01563.48437-.09375.65625-.10938.28124-.42188.54687-.92188.54687-.625 0-.98437-.35937-.98437-1.26562v-3.71875l-.07813-.07813L.34375-5.5Zm0 0"/><path id="j" d="M.375 0h3.51563v-.45312C3-.5 2.875-.53125 2.875-1.01562v-2.57813c0-.60937.10938-.89062.39063-.89062.1875 0 .35937.09375.625.23437.14062.10938.29687.1875.53125.1875s.46875-.125.59375-.29687.1875-.40625.1875-.67188c0-.48437-.32813-.8125-.8125-.8125s-.84375.32813-1.53125 1.03125l-.15625-1.03125L.4375-5.5v.40625l.40625.0625c.1875.03125.28125.125.28125.59375v3.42188c0 .48437-.07812.53125-.75.5625Zm0 0"/><path id="k" d="M.45313-2.75c0 1.70313.89062 2.89063 2.35937 2.89063.4375 0 1.04688-.23438 1.67188-.71875V0h2.5v-.45312c-.65625-.03125-.75-.07813-.75-.5625v-7.53125L6.15625-8.625l-2.35937.3125v.42188l.40625.0625c.1875.03125.28125.125.28125.59375v1.54687c-.25-.10937-.59375-.15625-.98438-.15625-.85937 0-1.64062.26563-2.17187.75-.54688.51563-.875 1.29688-.875 2.34375m1.84375-.23437c0-1.70313.64062-2.32813 1.29687-2.32813.45313 0 .6875.23438.79688.46875.10937.17188.09375.42188.09375.67188v2.40625c0 .46875-.17188 1.01562-.90625 1.01562-.75 0-1.28125-.75-1.28125-2.23437m0 0"/><path id="m" d="M.875-7.35937c0 .54687.40625 1.01562 1.0625 1.01562.64063 0 1.07813-.46875 1.07813-1.01562 0-.54688-.42188-1.01563-1.07813-1.01563S.875-7.90625.875-7.35937M.375 0h3.28125v-.45312c-.67187-.03125-.78125-.07813-.78125-.5625v-4.75l-.0625-.07813L.4375-5.5v.40625l.40625.0625c.1875.03125.28125.125.28125.59375v3.42188c0 .48437-.07812.53125-.75.5625Zm0 0"/><path id="n" d="M.4375-5.125h.67188v3.76563c0 1.0625.78125 1.5 1.4375 1.5.48437 0 1.20312-.21875 1.85937-.625l-.125-.375c-.15625.07812-.39062.125-.65625.125-.4375 0-.75-.32813-.75-1.07813V-5.125h1.20313v-.57812H2.875v-1.46875h-.67187L1.17188-5.70312H.4375Zm0 0"/><path id="o" d="M.45313-2.84375c0 1.85938.89062 2.98438 3.01562 2.98438 2.10938 0 3.01563-1.125 3.01563-2.98438s-.90625-3-3.01563-3c-2.125 0-3.01562 1.14063-3.01562 3m1.84375 0c0-1.5625.34375-2.46875 1.17187-2.46875.82813 0 1.15625.90625 1.15625 2.46875S4.29688-.39062 3.46875-.39062c-.82812 0-1.17187-.89063-1.17187-2.45313m0 0"/><path id="p" d="M.375 0h3.10938v-.45312l-.21875-.01563C3.01563-.5 2.875-.53125 2.875-.92187V-3.6875c0-.26562.04688-.51562.125-.6875.15625-.29687.46875-.57812.95313-.57812.59375 0 .89062.375.92187 1.0625v2.96875c0 .39062-.125.42187-.375.45312l-.25.01563V0h3.14063v-.45312c-.67188-.03125-.76563-.07813-.76563-.5625v-3.03125c-.01562-1.09375-.54687-1.79688-1.75-1.79688-.6875 0-1.23437.34375-2 .8125l-.15625-.8125L.4375-5.5v.40625l.40625.0625c.1875.03125.28125.125.28125.59375v3.42188c0 .48437-.07812.53125-.75.5625Zm0 0"/><path id="q" d="M.5-2.15625.64063-.42187c.45312.40625 1.32812.5625 1.98437.5625 1.42188 0 2.39063-.625 2.39063-1.89063 0-1-.64063-1.48437-1.71875-1.89062C2.625-3.89062 2.125-4.15625 2.125-4.625c0-.35937.26563-.6875.75-.6875.59375 0 1.07813.54688 1.3125 1.42188h.42188V-5.4375c-.46875-.29687-1.125-.40625-1.73438-.40625C1.45313-5.84375.5625-5.17187.5625-4c0 .85938.6875 1.40625 1.71875 1.78125.59375.21875 1.17188.5625 1.17188 1.125 0 .4375-.29688.70313-.8125.70313-.76563 0-1.39063-.8125-1.6875-1.76563Zm0 0"/><path id="l" d="M.375-.45312c0 .32812.26563.59375.73438.59375.79687 0 1.23437-.79688 1.71875-1.57813l.46875-.76562h.03125l.21875.92187C3.76563-.35937 3.96875.14063 4.5625.14063c.85938 0 1.29688-.89063 1.65625-1.59375l-.29687-.15626c-.29688.51563-.60938 1.14063-.9375 1.14063-.21875 0-.3125-.26562-.5625-1.29687l-.375-1.53125c.42187-.73438 1.01562-1.67188 1.34375-1.67188.34375 0 .35937.1875.70312.1875.26563 0 .5-.25.5-.54687 0-.35938-.26562-.51563-.59375-.51563-.60937 0-1.14062.5625-1.54687 1.21875l-.5.78125h-.03125l-.46875-1.95312-.0625-.04688-1.92188.57813.03125.29687.90625-.0625c.1875 0 .28125.07813.39063.57813l.40625 1.6875-.3125.54687c-.5.85938-.9375 1.46875-1.21875 1.46875-.32813 0-.42188-.29687-.79688-.29687-.29687 0-.5.29687-.5.59375m0 0"/><path id="r" d="M.95313-2.07812h.53125v-.85938h7.46875c-.10938.17188-.40625.5625-.71875.85938l.23437.3125c.46875-.40625 1.5-1.10938 2.21875-1.34375v-.34375c-.73437-.23438-1.75-.9375-2.21875-1.34375l-.23437.3125c.3125.28125.59375.65625.71875.85937H1.48438v-.85937H.95313Zm0 0"/><path id="x" d="M.98438-2.9375h6.40625v-.6875H.98438Zm0 0"/><path id="y" d="M.1875-2.46875C.1875-1.07812 1.5625.125 2.84375.125c1.64063 0 2.67188-1.64062 2.875-1.95312C5.9375-1.40625 7.0625.14063 8.875.14063c2.15625 0 2.76563-1.64063 2.76563-3.01563S10.34375-5.35937 9.0625-5.35937c-1.54687 0-2.39062 1.10937-2.89062 1.79687-.45313-.75-1.46875-1.76562-3.07813-1.76562C.98438-5.32812.1875-3.84375.1875-2.46875m.73438.04688c0-1.17188.8125-2.07813 1.78125-2.07813 1.17187 0 2.14062 1.21875 2.6875 2.09375-.4375.78125-1.26563 2-2.57813 2-.84375 0-1.89062-.96875-1.89062-2.01562m5.59375-.625c.4375-.79688 1.28125-1.76563 2.59375-1.76563.84375 0 1.85937.84375 1.85937 1.89063 0 1.17187-.64062 2.25-1.76562 2.25C8-.67187 7.04688-2 6.51563-3.04687m0 0"/><path id="z" d="M.48438-3.89062c0 2.32812.67187 4.03125 2.59375 4.03125C5 .14063 5.6875-1.5625 5.6875-3.89062S5-7.90625 3.07813-7.90625.48438-6.21875.48438-3.89062m1.17187 0c0-1.89063.32813-3.60938 1.42188-3.60938C4.1875-7.5 4.5-5.78125 4.5-3.89062s-.3125 3.625-1.42187 3.625c-1.09375 0-1.42188-1.73438-1.42188-3.625m0 0"/><path id="A" d="M.98438-2.9375h2.85937v2.84375h.6875V-2.9375h2.85938v-.6875H4.53125v-2.85937h-.6875V-3.625H.98438Zm0 0"/><path id="s" d="M.89063 0h2.71875v-.25l-.65625-.0625c-.17188-.01562-.26563-.07812-.26563-.375v-4.79687l-.04687-.04688-1.75.29688v.21875l.70312.09375c.15625.01562.20313.07812.20313.32812V-.6875c0 .29688-.07813.35938-.26563.375L.89063-.25Zm0 0"/><path id="t" d="M.28125-.34375c0 .23438.20313.4375.54688.4375.54687 0 .84375-.51562 1.1875-1.0625L2.3125-1.5h.03125l.14063.60938c.14062.625.29687.98437.73437.98437.64063 0 1-.64062 1.23438-1.1875l-.21875-.125c-.1875.39063-.42188.84375-.65625.84375-.15625 0-.20313-.17187-.35938-.8125l-.29687-1.15625c.28125-.48437.65625-1.0625.89062-1.0625.23438 0 .28125.14063.53125.14063.1875 0 .35938-.20313.35938-.4375 0-.26563-.1875-.375-.42188-.375-.42187 0-.78125.34375-1.0625.78125l-.35937.5625h-.01563l-.3125-1.3125-.04687-.03125-1.42188.40625.01563.20312L1.67188-3.5c.14062 0 .21874.0625.28124.35938L2.25-1.92187l-.21875.39062c-.3125.54688-.59375.95313-.78125.95313-.25 0-.32812-.21876-.57812-.21876-.21876 0-.39063.21876-.39063.45313m0 0"/><path id="C" d="M.39063-3.10937C.39063-1.25.9375.10938 2.46875.10938S4.54688-1.25 4.54688-3.10937C4.54688-4.96875 4-6.3125 2.46875-6.3125S.39063-4.96875.39063-3.10937m.9375 0C1.32813-4.625 1.57813-6 2.46875-6c.875 0 1.125 1.375 1.125 2.89063s-.25 2.89062-1.125 2.89062c-.89062 0-1.14062-1.375-1.14062-2.89062m0 0"/><path id="E" d="M.79688-2.35937h5.10937v-.53125H.79688Zm0 0"/><path id="F" d="M.14063-1.96875C.14063-.85937 1.25.09375 2.28125.09375c1.29688 0 2.125-1.29687 2.28125-1.5625C4.75-1.125 5.64063.10938 7.09375.10938c1.71875 0 2.21875-1.3125 2.21875-2.40625 0-1.10938-1.04687-1.98438-2.07812-1.98438-1.23438 0-1.90625.89063-2.29688 1.4375-.375-.59375-1.17187-1.42187-2.46875-1.42187-1.6875 0-2.32812 1.20312-2.32812 2.29687m.59375.03125c0-.9375.65625-1.65625 1.4375-1.65625.92187 0 1.70312.96875 2.14062 1.67188-.35937.625-1.01562 1.59375-2.0625 1.59375-.67187 0-1.51562-.76563-1.51562-1.60938m4.46875-.5c.35937-.625 1.03125-1.40625 2.07812-1.40625.67188 0 1.48438.67188 1.48438 1.51563 0 .9375-.5 1.79687-1.40625 1.79687-.95313 0-1.71875-1.07812-2.15625-1.90625m0 0"/><path id="G" d="M.79688-2.35937h2.28125V-.0625H3.625v-2.29687h2.28125v-.53125H3.625V-5.1875h-.54687v2.29688H.79688Zm0 0"/><clipPath id="a"><path d="M1.6211 35H178v36H1.6211Zm0 0"/></clipPath><clipPath id="b"><path d="M177 0h444.4336v36H177Zm0 0"/></clipPath><clipPath id="c"><path d="M177 35h444.4336v36H177Zm0 0"/></clipPath><clipPath id="d"><path d="M1.6211 0H178v36H1.6211Zm0 0"/></clipPath><clipPath id="u"><path d="M1.6211 35h619.8125v1H1.6211Zm0 0"/></clipPath><clipPath id="v"><path d="M1.6211 70h619.8125v1H1.6211Zm0 0"/></clipPath><clipPath id="w"><path d="M1.6211 0h619.8125v71H1.6211Zm0 0"/></clipPath><clipPath id="B"><path d="M177 35h444.4336v36H177Zm0 0"/></clipPath><clipPath id="D"><path d="M398 34h3v37.03125h-3Zm0 0"/></clipPath></defs><g clip-path="url(#a)"><path fill="#FFF" stroke="#000" stroke-miterlimit="10" stroke-width=".39581" d="M1.82031 35.39063v35.1953h175.96875v-35.1953Zm0 0"/></g><g clip-path="url(#b)"><path fill="#FFF" stroke="#000" stroke-miterlimit="10" stroke-width=".39581" d="M177.78906 35.39063V.19922H621.2422v35.1914Zm0 0"/></g><g clip-path="url(#c)"><path fill="#FFF" stroke="#000" stroke-miterlimit="10" stroke-width=".39581" d="M177.78906 35.39063v35.1953H621.2422v-35.1953Zm0 0"/></g><g clip-path="url(#d)"><path fill="#FFF" stroke="#000" stroke-miterlimit="10" stroke-width=".39581" d="M1.82031.19922v35.1914h175.96875V.19923Zm0 0"/></g><use xlink:href="#e" x="57.62751" y="22.03724"/><use xlink:href="#f" x="64.41822" y="22.03724"/><use xlink:href="#g" x="70.8626" y="22.03724"/><use xlink:href="#h" x="74.57337" y="22.03724"/><use xlink:href="#i" x="80.70851" y="22.03724"/><use xlink:href="#j" x="88.14243" y="22.03724"/><use xlink:href="#k" x="97.49357" y="22.03724"/><use xlink:href="#h" x="104.63062" y="22.03724"/><use xlink:href="#l" x="114.8921" y="22.03724"/><use xlink:href="#e" x="33.06568" y="56.01731"/><use xlink:href="#f" x="39.85639" y="56.01731"/><use xlink:href="#j" x="46.30077" y="56.01731"/><use xlink:href="#m" x="51.64428" y="56.01731"/><use xlink:href="#f" x="55.44164" y="56.01731"/><use xlink:href="#n" x="61.88601" y="56.01731"/><use xlink:href="#m" x="66.30183" y="56.01731"/><use xlink:href="#o" x="70.09919" y="56.01731"/><use xlink:href="#p" x="77.01359" y="56.01731"/><use xlink:href="#q" x="84.54646" y="56.01731"/><use xlink:href="#k" x="93.95945" y="56.01731"/><use xlink:href="#h" x="101.0965" y="56.01731"/><use xlink:href="#l" x="111.35737" y="56.01731"/><use xlink:href="#r" x="122.79892" y="56.01731"/><use xlink:href="#s" x="140.3342" y="51.04486"/><path fill="none" stroke="#000" stroke-miterlimit="10" stroke-width=".68037" d="M140 52.73828h5.0586"/><use xlink:href="#t" x="140.00146" y="60.37023"/><g clip-path="url(#u)"><path fill="none" stroke="#000" stroke-miterlimit="10" stroke-width=".39581" d="M1.82031 35.39063H621.2422"/></g><g clip-path="url(#v)"><path fill="none" stroke="#000" stroke-miterlimit="10" stroke-width=".39581" d="M1.82031 70.58594H621.2422"/></g><g clip-path="url(#w)"><path fill="none" stroke="#000" stroke-miterlimit="10" stroke-width=".39581" d="M1.82031.19922v70.38672H621.2422V.19922Zm0 0"/></g><path fill="none" stroke="#000" stroke-miterlimit="10" stroke-width=".39581" d="M177.78906.19922v70.38672"/><use xlink:href="#x" x="185.27379" y="20.40533"/><use xlink:href="#y" x="193.6354" y="20.40533"/><use xlink:href="#z" x="396.4298" y="21.67867"/><use xlink:href="#A" x="593.52338" y="20.96751"/><use xlink:href="#y" x="601.88499" y="20.96751"/><g clip-path="url(#B)"><path fill="none" stroke="#000" stroke-miterlimit="10" stroke-width=".39581" d="M177.78906 35.39063v35.1953H621.2422v-35.1953Zm0 0"/></g><path fill="#FFF" d="M190.94531 49.74219h8.88672V39.35156h-8.88672Zm0 0"/><use xlink:href="#C" x="192.92182" y="47.65216"/><path fill="#FFF" d="M190.94531 49.74219h8.88672V39.35156h-8.88672Zm0 0"/><use xlink:href="#C" x="192.92182" y="47.65216"/><g clip-path="url(#D)"><path fill="none" stroke="#000" stroke-miterlimit="10" stroke-width="1.38537" d="M399.51563 35.64063v34.69921"/></g><path fill="none" stroke="#FFF" stroke-miterlimit="10" stroke-width=".59373" d="M399.51563 35.64063v34.69921"/><path fill="#FFF" d="M376 67.20703h20.13672v-8.35156H376Zm0 0"/><use xlink:href="#E" x="377.97423" y="65.11946"/><use xlink:href="#F" x="384.66351" y="65.11946"/><path fill="#FFF" d="M402.89453 48.02344h20.13672v-9.2539h-20.13672Zm0 0"/><use xlink:href="#G" x="404.86846" y="45.93483"/><use xlink:href="#F" x="411.55774" y="45.93483"/><path fill="none" stroke="#000" stroke-miterlimit="10" stroke-width=".39581" d="M203.78125 45.35938 369.6875 61.4453"/><path d="M372.05078 61.67578c-.96484-.29297-2.69922-.85937-3.79297-1.85937.8789 1.17578.80078 1.96484-.28906 2.95312 1.26953-.77344 3.07813-.99219 4.08203-1.09375m0 0"/><path fill="#FFF" d="M599.19922 66.6289h8.88672V56.23829h-8.88672Zm0 0"/><use xlink:href="#C" x="601.1724" y="64.5394"/><path fill="#FFF" d="M599.19922 66.6289h8.88672V56.23829h-8.88672Zm0 0"/><use xlink:href="#C" x="601.1724" y="64.5394"/><path fill="none" stroke="#000" stroke-miterlimit="10" stroke-width=".39581" d="m426.98438 44.71875 165.90625 15.69922"/><path d="M595.2539 60.64063c-.96484-.28907-2.70312-.85157-3.80078-1.85157.88282 1.17578.8086 1.96485-.27734 2.95703 1.26563-.77734 3.07422-1.0039 4.07813-1.10547m0 0"/></svg>