<svg xmlns="http://www.w3.org/2000/svg" xmlns:xlink="http://www.w3.org/1999/xlink" width="308.667pt" height="71.265pt" viewBox="0 0 308.667 71.265"><defs><path id="e" d="M-.125-7.57812c.59375.01562.73438.09375.89063.59375L3.09375 0H4.5625l1.375-4.04687c.4375-1.26563.84375-2.39063 1.01563-2.84375.23437-.5625.32812-.64063.98437-.6875v-.4375H5.25v.4375l.65625.0625c.23438.01562.26563.125.20313.375-.125.39062-.375 1.34375-.71875 2.42187-.23438.70313-.75 2.40625-.95313 3H4.375l-1.73437-5.375c-.07813-.25-.0625-.40625.20312-.42187l.5625-.0625v-.4375H-.125Zm0 0"/><path id="f" d="M.5625-1.54687c0 .85937.54688 1.6875 1.71875 1.6875.73438 0 1.25-.40625 1.65625-.67188.15625.35938.35938.67188.92188.67188.60937 0 1.3125-.20313 1.70312-.34375l-.01562-.39063c-.15625.01563-.40625 0-.57813-.0625-.15625-.04687-.375-.1875-.375-.85937V-4.1875c0-.73437-.09375-1.625-2.14062-1.625C1.75-5.8125.6875-5.14062.6875-4.39062c0 .5.75.73437 1.03125.73437.26563 0 .39063-.1875.5-.46875.32813-.98437.70313-1.15625 1.03125-1.15625.32813 0 .64063.1875.64063.85938v.60937C3.48438-3.53125 2.53125-3.25 1.78125-3 .85938-2.67187.5625-2.21875.5625-1.54687m1.75-.1875c0-.54688.20313-.8125.54688-1.01563.35937-.20312.75-.35937 1.03125-.48437v1.6875c-.01563.625-.375.78125-.70313.78125-.45312 0-.875-.35938-.875-.96875m0 0"/><path id="g" d="M.28125 0h3.25v-.4375c-.65625-.04687-.73437-.09375-.73437-.57812v-7.5l-.09375-.07813-2.32813.3125v.42188l.39063.0625c.1875.03125.26562.125.26562.59375v6.1875c0 .48437-.07812.53125-.75.57812Zm0 0"/><path id="h" d="M.45313-2.82812c0 1.57812.6875 2.96875 2.84375 2.96875 1.375 0 2.125-.67188 2.51562-1.6875l-.40625-.23438C5.04688-1.125 4.5625-.75 3.85938-.75c-1.15625 0-1.5625-.95312-1.5625-2.17187h3c.42187 0 .625-.10938.625-.48438 0-.95312-.375-2.40625-2.60938-2.40625-2.07812 0-2.85937 1.34375-2.85937 2.98438m1.84375-.64063c0-.84375.21875-1.8125.96875-1.8125.70312 0 .82812.875.82812 1.42188 0 .32812-.09375.39062-.35937.39062Zm0 0"/><path id="i" d="M.34375-5.0625.75-5c.1875.01563.26563.10938.26563.57813v2.8125c0 1.35937.82812 1.75 1.67187 1.75.98438 0 1.59375-.53125 2.0625-.79688L4.84375 0H7.25v-.4375c-.67187-.04687-.73437-.09375-.73437-.57812V-5.75l-.10938-.0625-2.34375.32813v.42187L4.46875-5c.1875.01563.28125.10938.28125.57813v2.45312c0 .1875-.01562.48438-.09375.65625-.10937.26563-.42187.53125-.92187.53125-.60938 0-.96875-.35937-.96875-1.25V-5.75l-.09375-.0625-2.32813.32813Zm0 0"/><path id="j" d="M.375 0h3.5v-.4375C2.98438-.5 2.85938-.53125 2.85938-1.01562v-2.57813c0-.59375.10937-.875.39062-.875.1875 0 .35938.09375.625.23438.14063.10937.29688.1875.53125.1875S4.875-4.17187 5-4.34375C5.10938-4.51562 5.17188-4.75 5.17188-5c0-.5-.3125-.8125-.79688-.8125-.48437 0-.84375.3125-1.53125 1.01563L2.6875-5.8125l-2.25.32813v.42187L.84375-5c.17188.01563.28125.10938.28125.57813v3.40625c0 .48437-.09375.53125-.75.57812Zm0 0"/><path id="k" d="M.45313-2.73437c0 1.6875.875 2.875 2.34375 2.875.4375 0 1.04687-.23438 1.67187-.71875V0h2.5v-.4375c-.67187-.04687-.75-.09375-.75-.57812v-7.5l-.07812-.07813-2.35938.3125v.42188l.40625.0625c.1875.03125.28125.125.28125.59375v1.53125c-.25-.10938-.57812-.14063-.98437-.14063-.85938 0-1.64063.25-2.17188.75S.45313-3.78125.45313-2.73437m1.84375-.23438c0-1.70312.64062-2.3125 1.29687-2.3125.4375 0 .67188.23438.78125.46875.10938.17188.09375.40625.09375.65625v2.39063c0 .46875-.17187 1.01562-.90625 1.01562-.75 0-1.26562-.73437-1.26562-2.21875m0 0"/><path id="m" d="M.875-7.32812c0 .54687.39063 1.01562 1.04688 1.01562.64062 0 1.09375-.46875 1.09375-1.01562 0-.54688-.42188-1.01563-1.09375-1.01563C1.26563-8.34375.875-7.875.875-7.32812M.375 0h3.26563v-.4375c-.67188-.04687-.78125-.09375-.78125-.57812V-5.75l-.0625-.0625-2.35938.32813v.42187L.84375-5c.17188.01563.28125.10938.28125.57813v3.40625c0 .48437-.09375.53125-.75.57812Zm0 0"/><path id="n" d="M.4375-5.10937h.67188v3.75c0 1.0625.78125 1.5 1.4375 1.5.46875 0 1.1875-.21875 1.84375-.625l-.125-.35938c-.15625.0625-.39063.10938-.65625.10938-.4375 0-.75-.32813-.75-1.0625v-3.3125H4.0625v-.57813H2.85938v-1.45312H2.1875L1.17188-5.6875H.4375Zm0 0"/><path id="o" d="M.45313-2.82812c0 1.84375.89062 2.96875 3 2.96875s3-1.125 3-2.96875c0-1.85938-.89063-2.98438-3-2.98438s-3 1.125-3 2.98438m1.84375 0c0-1.5625.32812-2.45313 1.15625-2.45313.82812 0 1.15625.89063 1.15625 2.45313 0 1.54687-.32813 2.4375-1.15625 2.4375-.82813 0-1.15625-.89063-1.15625-2.4375m0 0"/><path id="p" d="M.375 0h3.09375v-.4375L3.25-.46875c-.23437-.03125-.39062-.0625-.39062-.4375v-2.76562c0-.26563.04687-.51563.14062-.6875.14063-.28125.45313-.57813.9375-.57813.59375 0 .89063.375.92188 1.0625v2.96875c0 .375-.125.40625-.375.4375l-.25.03125V0h3.125v-.4375c-.67188-.04687-.76563-.09375-.76563-.57812v-3.01563C6.57813-5.10937 6.04688-5.8125 4.85938-5.8125c-.6875 0-1.23438.34375-2 .79688l-.14063-.79688-2.28125.32813v.42187L.84375-5c.17188.01563.28125.10938.28125.57813v3.40625c0 .48437-.09375.53125-.75.57812Zm0 0"/><path id="q" d="M.5-2.14062.64063-.42187c.4375.40625 1.3125.5625 1.96875.5625C4.03125.14063 5-.48437 5-1.73437c0-1-.64062-1.48438-1.70312-1.89063-.6875-.25-1.17188-.51562-1.17188-.98437 0-.35938.25-.67188.73438-.67188.59375 0 1.07812.53125 1.3125 1.40625h.42187v-1.53125c-.46875-.29687-1.125-.40625-1.73437-.40625-1.42188 0-2.29688.65625-2.29688 1.82813 0 .85937.6875 1.39062 1.70313 1.78125C2.85938-2 3.4375-1.65625 3.4375-1.09375c0 .4375-.29687.70313-.79687.70313-.76563 0-1.39063-.8125-1.6875-1.75Zm0 0"/><path id="l" d="M.375-.45312c0 .32812.26563.59375.73438.59375.79687 0 1.23437-.79688 1.71875-1.57813l.46875-.75h.01562l.21875.90625C3.75-.35937 3.95313.14063 4.54688.14063c.85937 0 1.29687-.875 1.64062-1.57813l-.29687-.17187c-.28125.53125-.60938 1.14062-.92188 1.14062-.21875 0-.3125-.26562-.5625-1.29687l-.375-1.51563C4.45313-4.01562 5.04688-4.9375 5.375-4.9375c.34375 0 .35938.17188.70313.17188.26562 0 .5-.23438.5-.54688 0-.35937-.28125-.5-.59375-.5-.625 0-1.14063.54688-1.54688 1.20313l-.5.78125h-.03125l-.46875-1.9375-.0625-.04688-1.90625.57813.01563.28125.92187-.0625c.1875 0 .26563.07812.375.57812l.40625 1.67188-.3125.5625C2.375-1.35937 1.95313-.75 1.67188-.75 1.32813-.75 1.25-1.03125.875-1.03125c-.29687 0-.5.29688-.5.57813m0 0"/><path id="r" d="M-.25 2.125c.01563.39063.51563.67188 1.0625.67188 1.15625 0 1.65625-.9375 2.14063-3.15625l1.0625-4.875h1.46875l.10937-.45313h-1.5l.3125-1.29687c.23438-.875.45313-1.21875.76563-1.21875s.53125.26562.78125.8125c.0625.10937.15625.20312.32812.20312.23438 0 .5625-.20312.5625-.5 0-.5-.625-.90625-1.32812-.90625-1.35938 0-1.92188.96875-2.375 2.48438l-.125.42187h-1l-.125.45313h1.03125L1.57813 1.59375c-.14063.71875-.26563.78125-.375.78125-.125 0-.29688-.07812-.60938-.5625C.5 1.70313.4375 1.54688.28125 1.54688c-.25 0-.53125.29687-.53125.57812m0 0"/><path id="w" d="M1.25 0h3.8125v-.32812l-.96875-.09375c-.25-.01563-.39062-.10938-.39062-.5625V-7.8125l-.04688-.0625L1.25-7.46875v.28125l1.09375.14063c.20313.01562.26563.10937.26563.4375v5.625c0 .45312-.10938.54687-.375.5625L1.25-.32812Zm0 0"/><path id="x" d="M.48438-3.875c0 2.32813.67187 4.01563 2.57812 4.01563 1.92188 0 2.60938-1.6875 2.60938-4.01563 0-2.3125-.6875-4-2.60938-4-1.90625 0-2.57812 1.6875-2.57812 4m1.17187 0c0-1.875.3125-3.59375 1.40625-3.59375 1.10938 0 1.42188 1.71875 1.42188 3.59375 0 1.89063-.3125 3.60938-1.42188 3.60938-1.09375 0-1.40625-1.71875-1.40625-3.60938m0 0"/><path id="z" d="M.39063-3.09375C.39063-1.25.92188.10938 2.45313.10938S4.53125-1.25 4.53125-3.09375c0-1.85937-.54687-3.20312-2.07812-3.20312S.39063-4.95312.39063-3.09375m.9375 0c0-1.51562.25-2.875 1.125-2.875s1.14062 1.35938 1.14062 2.875c0 1.5-.26562 2.875-1.14062 2.875s-1.125-1.375-1.125-2.875m0 0"/><path id="A" d="M.17188-1.85937.25-1.65625h2.53125v.95313c0 .3125-.09375.35937-.32812.375l-.59375.0625V0H4.3125v-.26562L3.89063-.3125C3.67188-.34375 3.625-.39062 3.625-.70312v-.95313h.9375v-.4375H3.625V-6.1875h-.6875C2.07813-4.90625 1.03125-3.29687.17188-1.85937m.67187-.23438c.5625-1 1.23438-2.07812 1.9375-3.20312v3.20312Zm0 0"/><path id="B" d="M.375-.95312c0 .4375.65625 1.0625 1.85938 1.0625 1.51562 0 2.21875-.92188 2.21875-2.09375 0-1.3125-.8125-1.96875-1.92188-1.96875-.51562 0-1.07812.21875-1.375.5L1.375-5.21875c.03125-.23437.07813-.26562.26563-.26562H3.9375l.23438-.625L4.125-6.1875H1.03125l-.09375.07813L.75-3l.21875.10938c.39063-.4375.76563-.65625 1.26563-.65625.59375 0 1.25.4375 1.25 1.65625 0 .95312-.39063 1.67187-1.20313 1.67187-.64062 0-.96875-.46875-1.15625-1-.04687-.125-.14062-.21875-.26562-.21875-.1875 0-.48438.1875-.48438.48438m0 0"/><clipPath id="a"><path d="M1.41016 35H125v35.53906H1.41016Zm0 0"/></clipPath><clipPath id="b"><path d="M124 0h182.92578v36H124Zm0 0"/></clipPath><clipPath id="c"><path d="M124 35h182.92578v35.53906H124Zm0 0"/></clipPath><clipPath id="d"><path d="M1.41016 0H125v36H1.41016Zm0 0"/></clipPath><clipPath id="s"><path d="M1.41016 35h305.51562v1H1.41016Zm0 0"/></clipPath><clipPath id="t"><path d="M1.41016 70h305.51562v.53906H1.41016Zm0 0"/></clipPath><clipPath id="u"><path d="M1.41016 0h305.51562v70.53906H1.41016Zm0 0"/></clipPath><clipPath id="v"><path d="M124 0h1v70.53906h-1Zm0 0"/></clipPath><clipPath id="y"><path d="M124 35h182.92578v35.53906H124Zm0 0"/></clipPath></defs><g clip-path="url(#a)"><path fill="#FFF" stroke="#000" stroke-miterlimit="10" stroke-width=".39443" d="M1.60937 35.26954v35.07033h122.75005V35.26954Zm0 0"/></g><g clip-path="url(#b)"><path fill="#FFF" stroke="#000" stroke-miterlimit="10" stroke-width=".39443" d="M124.35942 35.26954V.19531h182.37506v35.07423Zm0 0"/></g><g clip-path="url(#c)"><path fill="#FFF" stroke="#000" stroke-miterlimit="10" stroke-width=".39443" d="M124.35942 35.26954v35.07033h182.37506V35.26954Zm0 0"/></g><g clip-path="url(#d)"><path fill="#FFF" stroke="#000" stroke-miterlimit="10" stroke-width=".39443" d="M1.60937.19531v35.07423h122.75005V.19531Zm0 0"/></g><use xlink:href="#e" x="30.9186" y="21.96051"/><use xlink:href="#f" x="37.68567" y="21.96051"/><use xlink:href="#g" x="44.10761" y="21.96051"/><use xlink:href="#h" x="47.80546" y="21.96051"/><use xlink:href="#i" x="53.91924" y="21.96051"/><use xlink:href="#j" x="61.32727" y="21.96051"/><use xlink:href="#k" x="70.64586" y="21.96051"/><use xlink:href="#h" x="77.75806" y="21.96051"/><use xlink:href="#l" x="87.98381" y="21.96051"/><use xlink:href="#e" x="20.55301" y="55.70152"/><use xlink:href="#f" x="27.32008" y="55.70152"/><use xlink:href="#j" x="33.74202" y="55.70152"/><use xlink:href="#m" x="39.06692" y="55.70152"/><use xlink:href="#f" x="42.85106" y="55.70152"/><use xlink:href="#n" x="49.27299" y="55.70152"/><use xlink:href="#m" x="53.67344" y="55.70152"/><use xlink:href="#o" x="57.45757" y="55.70152"/><use xlink:href="#p" x="64.3479" y="55.70152"/><use xlink:href="#q" x="71.85454" y="55.70152"/><use xlink:href="#k" x="81.23476" y="55.70152"/><use xlink:href="#h" x="88.34696" y="55.70152"/><use xlink:href="#r" x="98.5721" y="55.70152"/><g clip-path="url(#s)"><path fill="none" stroke="#000" stroke-miterlimit="10" stroke-width=".39443" d="M1.60937 35.26954h305.1251"/></g><g clip-path="url(#t)"><path fill="none" stroke="#000" stroke-miterlimit="10" stroke-width=".39443" d="M1.60937 70.33987h305.1251"/></g><g clip-path="url(#u)"><path fill="none" stroke="#000" stroke-miterlimit="10" stroke-width=".39443" d="M1.60937.19531v70.14456h305.1251V.1953Zm0 0"/></g><g clip-path="url(#v)"><path fill="none" stroke="#000" stroke-miterlimit="10" stroke-width=".39443" d="M124.35942.19531v70.14456"/></g><use xlink:href="#w" x="138.82445" y="21.67149"/><use xlink:href="#w" x="283.05492" y="21.60319"/><use xlink:href="#x" x="289.19335" y="21.60319"/><g clip-path="url(#y)"><path fill="none" stroke="#000" stroke-miterlimit="10" stroke-width=".39443" d="M124.35942 35.26954v35.07033h182.37506V35.26954Zm0 0"/></g><path fill="#FFF" d="M137.46875 66.39453h8.85547V56.04297h-8.85547Zm0 0"/><use xlink:href="#z" x="139.43813" y="64.31567"/><path fill="#FFF" d="M137.46875 66.39453h8.85547V56.04297h-8.85547Zm0 0"/><use xlink:href="#z" x="139.43813" y="64.31567"/><path fill="#FFF" d="M282.3125 49.45703h13.76953V39.21484H282.3125Zm0 0"/><use xlink:href="#A" x="284.28325" y="47.37836"/><use xlink:href="#B" x="289.19399" y="47.37836"/><path fill="#FFF" d="M282.3125 49.45703h13.76953V39.21484H282.3125Zm0 0"/><use xlink:href="#A" x="284.28325" y="47.37836"/><use xlink:href="#B" x="289.19399" y="47.37836"/><path fill="none" stroke="#000" stroke-miterlimit="10" stroke-width=".39443" d="m150.25396 60.26174 125.77738-14.41797"/><path d="M278.38281 45.57422c-1-.08203-2.8086-.27344-4.08594-1.01953 1.10157.96484 1.19141 1.75.33594 2.9375 1.07422-1.01563 2.79297-1.60938 3.75-1.91797m0 0"/></svg>