<svg xmlns="http://www.w3.org/2000/svg" xmlns:xlink="http://www.w3.org/1999/xlink" width="236.657pt" height="142.728pt" viewBox="0 0 236.657 142.728"><defs><path id="b" d="M.4375-3.51562C.4375-1.40625 1.04688.125 2.78125.125c1.73438 0 2.35938-1.53125 2.35938-3.64062 0-2.09375-.625-3.64063-2.35938-3.64063S.4375-5.60937.4375-3.51562m1.0625 0c0-1.70313.29688-3.26563 1.28125-3.26563 1 0 1.29688 1.5625 1.29688 3.26563C4.07813-1.79687 3.78125-.25 2.78125-.25 1.79688-.25 1.5-1.79687 1.5-3.51562m0 0"/><path id="c" d="M.89063-2.65625h5.78125v-.625H.89063Zm0 0"/><path id="d" d="M1.14063 0h3.45312v-.29687l-.875-.07813C3.48438-.40625 3.375-.48437 3.375-.89062v-6.20313l-.0625-.0625-2.17187.375v.26563l.98437.10937c.17188.03125.25.10938.25.40625v5.10938c0 .40625-.10937.48437-.34375.51562l-.89062.07813Zm0 0"/><path id="e" d="M.28125-.09375.39063 0H4.75l.34375-1.39062-.28125-.04688c-.21875.5625-.4375.64063-.85937.64063h-2.6875c.17187-.54688.79687-1.29688 1.76562-2 1-.73438 1.79688-1.20313 1.79688-2.39063 0-1.45312-.98438-1.96875-2.09375-1.96875-1.4375 0-2.17188.875-2.17188 1.42188 0 .35937.40625.53125.57813.53125.1875 0 .26562-.10938.29687-.29688.17188-.70312.59375-1.28125 1.23438-1.28125.8125 0 1.04687.67188 1.04687 1.4375 0 1.14063-.57812 1.78125-1.5 2.57813C.92188-1.64062.48438-.92187.28125-.09375m0 0"/><path id="j" d="M.20313 0h3.03125l.07812-1.04687h-.17187c-.125.76562-.4375.84375-1.0625.84375-.28125 0-.5-.01563-.625-.0625-.125-.04688-.14063-.15625-.14063-.4375V-3.5c0-.32812.01563-.34375.5625-.375v-.17187H.20313v.17187c.51562.03125.53125.04688.53125.375v2.95313c0 .32812-.01563.34375-.53125.375Zm0 0"/><path id="k" d="M.28125-.76562c0 .4375.29688.82812.84375.82812.34375 0 .6875-.21875.875-.34375.07813.21875.17188.34375.375.34375.21875 0 .46875-.0625.70313-.17187L3.03125-.25c-.07812.03125-.20312.03125-.29687 0-.10938-.01562-.20313-.125-.20313-.48437v-1.42188c0-.34375-.07812-.78125-.95312-.78125-.65625 0-1.1875.34375-1.1875.67188 0 .1875.21875.26562.32812.26562.125 0 .15625-.0625.1875-.15625.125-.4375.375-.57812.60938-.57812.21874 0 .48437.125.48437.59375v.23437c-.14062.15625-.71875.29688-1.17187.45313-.42188.125-.54688.42187-.54688.6875M.875-.84375c0-.26562.125-.40625.45313-.53125.23437-.09375.54687-.20312.67187-.28125v.82813C2-.35937 1.64063-.25 1.40625-.25 1.04688-.25.875-.5.875-.84375m0 0"/><path id="l" d="M.28125-1.40625C.28125-.42187.76563.0625 1.64063.0625c.40625 0 .96875-.20312 1.125-.82812l-.17188-.09376c-.1875.42188-.40625.625-.84375.625-.6875 0-.85937-.73437-.85937-1.28124 0-.85938.34375-1.21875.75-1.21875.26562 0 .4375.20312.54687.51562.04688.09375.07813.14063.1875.14063.125 0 .34375-.0625.34375-.29688 0-.26562-.375-.5625-1.01562-.5625-1.0625 0-1.42188.75-1.42188 1.53125m0 0"/><path id="m" d="M.28125-1.4375c0 .95313.46875 1.5 1.40625 1.5s1.40625-.54687 1.40625-1.5c0-.9375-.46875-1.5-1.40625-1.5s-1.40625.5625-1.40625 1.5m.60938 0c0-.79687.26562-1.29687.79687-1.29687s.79688.5.79688 1.29687c0 .8125-.26563 1.29688-.79688 1.29688S.89063-.625.89063-1.4375m0 0"/><path id="n" d="m.15625-2.64062.21875.03125c.14063.01562.1875.04687.1875.26562V-.8125c0 .67188.39063.875.82813.875.5 0 .90625-.32812 1.07812-.40625L2.51563 0h.9375v-.17187c-.40625-.03126-.4375-.04688-.4375-.34375v-2.375l-.04688-.04688-.90625.15625v.14063l.21875.03125c.15625.01562.1875.04687.1875.26562v1.3125c0 .15625-.01562.29688-.04687.34375-.14063.26563-.40625.4375-.71875.4375-.34375 0-.59375-.20312-.59375-.67187v-1.96875L1.0625-2.9375l-.90625.15625Zm0 0"/><path id="o" d="M.1875 0h1.54688v-.17187c-.53125-.03126-.5625-.04688-.5625-.34375V-1.875c0-.45312.20312-.60937.34375-.60937.09374 0 .1875.04687.35937.14062.04688.01563.07813.03125.10938.03125.15624 0 .26562-.15625.26562-.34375 0-.125-.07812-.28125-.29687-.28125s-.39063.125-.78125.46875l-.0625-.46875-.89063.15625v.14063l.21875.03125c.14063.01562.1875.04687.1875.26562v1.82813c0 .29687-.03125.3125-.4375.34375Zm0 0"/><path id="p" d="m.125-4.04687.21875.01562c.14063.03125.1875.0625.1875.28125V.03125L.64063.0625l.21874-.21875c.20313.125.45313.21875.89063.21875.78125 0 1.45313-.375 1.45313-1.5625 0-.35937-.0625-1.4375-1.125-1.4375-.4375 0-.78125.28125-1 .42188v-1.78125l-.04688-.03125L.125-4.1875Zm.95313 3.09375V-1.875c0-.15625 0-.23437.04687-.32812.15625-.28125.39063-.42188.71875-.42188.25 0 .75.14063.75 1.15625 0 .85938-.25 1.32813-.82812 1.32813-.3125 0-.54688-.15625-.64063-.4375-.04687-.10938-.04687-.23438-.04687-.375m0 0"/><path id="q" d="M.28125-1.40625C.28125-.48437.6875.0625 1.64063.0625c.64062 0 .98437-.35937 1.14062-.8125l-.1875-.09375C2.4375-.5 2.21875-.23437 1.75-.23437c-.71875 0-.85937-.6875-.85937-1.29688h1.6875c.125 0 .23437-.03125.23437-.23437 0-.34375-.10937-1.17188-1.1875-1.17188-.90625 0-1.34375.65625-1.34375 1.53125m.625-.35937c0-.23438.07813-.96875.6875-.96875.54688 0 .60938.5625.60938.78125 0 .125-.03125.1875-.20313.1875Zm0 0"/><path id="r" d="M.1875 0h1.42188v-.17187c-.42188-.03126-.4375-.04688-.4375-.34375V-1.875c0-.15625 0-.23437.04687-.3125.10938-.23437.35938-.4375.6875-.4375.5 0 .5625.375.5625.73438v1.375c0 .29687-.01562.3125-.4375.34375V0h1.42188v-.17187c-.40625-.03126-.4375-.04688-.4375-.34375V-1.875c0-.15625.01562-.23437.04687-.3125.09375-.25.34375-.4375.67188-.4375.35937 0 .59375.21875.59375.73438v1.375c0 .29687-.03125.3125-.45313.34375V0h1.4375v-.17187c-.42187-.03126-.4375-.04688-.4375-.34375V-2c0-.59375-.32812-.9375-.875-.9375-.48437 0-.82812.3125-1.03125.45313-.14062-.28125-.35937-.45313-.78125-.45313-.4375 0-.8125.29688-1.01562.45313L1.125-2.9375l-.90625.15625v.14063l.21875.03125c.14063.01562.1875.04687.1875.26562v1.82813c0 .29687-.01562.3125-.4375.34375Zm0 0"/><path id="s" d="M.1875 0h1.42188v-.17187c-.42188-.03126-.4375-.04688-.4375-.34375V-1.875c0-.15625.01562-.23437.0625-.3125.125-.23437.375-.4375.6875-.4375.40625 0 .625.21875.625.73438v1.375c0 .29687-.01563.3125-.4375.34375V0h1.42187v-.17187c-.42187-.03126-.4375-.04688-.4375-.34375V-2c0-.59375-.32812-.9375-.85937-.9375-.4375 0-.70313.21875-1.0625.45313l-.07813-.45313-.875.15625v.14063l.21875.03125c.14063.01562.1875.04687.1875.26562v1.82813c0 .29687-.01562.3125-.4375.34375Zm0 0"/><path id="t" d="M.1875-2.625h.42188v2.03125c0 .59375.4375.65625.64062.65625.29688 0 .57813-.14062.75-.25l-.04687-.125c-.14063.0625-.26563.07813-.42188.07813-.1875 0-.375-.14063-.375-.59375V-2.625h.75v-.23437h-.75v-.73438H.98438L.625-2.85937H.1875Zm0 0"/><path id="u" d="M.40625-2.48437c0 .20312.14063.375.375.375.21875 0 .35938-.17188.35938-.375 0-.21875-.14063-.375-.35938-.375-.23437 0-.375.15625-.375.375m0 2.1875c0 .20312.14063.35937.375.35937.21875 0 .35938-.15625.35938-.35937 0-.21875-.14063-.375-.35938-.375-.23437 0-.375.15624-.375.375m0 0"/><path id="v" d="M.125 0h1.42188v-.17187c-.42188-.03126-.4375-.04688-.4375-.34375v-3.78125l-.04688-.03125-.90625.14062v.14063l.20313.01562c.15625.03125.1875.0625.1875.28125v3.23438c0 .29687 0 .3125-.42188.34375Zm0 0"/><path id="w" d="M.17188-2.625H.625v2.10938c0 .29687-.01562.3125-.4375.34375V0h1.54688v-.17187C1.1875-.1875 1.17188-.20313 1.17188-.5v-2.125h.71875v-.23437h-.71875l-.01563-.65625c-.03125-.5625.1875-.625.28125-.625.10938 0 .23438.0625.39063.40625.03124.04687.07812.09375.15624.09375.125 0 .29688-.09375.29688-.26563 0-.20312-.25-.42187-.71875-.42187-.32812 0-.59375.14062-.73437.35937C.6875-3.76562.625-3.45312.625-3.07812v.21875H.17188Zm0 0"/><path id="x" d="M.53125-3.82812c0 .21875.15625.35937.35938.35937.21874 0 .35937-.14062.35937-.35937 0-.20313-.14062-.34375-.35937-.34375-.20313 0-.35938.14062-.35938.34375M.1875 0h1.42188v-.17187c-.42188-.03126-.4375-.04688-.4375-.34375v-2.375L1.125-2.9375l-.90625.15625v.14063l.21875.03125c.14063.01562.1875.04687.1875.26562v1.82813c0 .29687-.01562.3125-.4375.34375Zm0 0"/><path id="y" d="m.28125-.96875.04688.75C.54688-.03125.90625.0625 1.25.0625c.6875 0 1.09375-.35937 1.09375-.85937 0-.51563-.32812-.75-.92187-.9375-.25-.0625-.625-.1875-.625-.51563 0-.3125.23437-.48437.51562-.48437.42188 0 .625.32812.67188.6875h.15624v-.6875c-.1875-.14063-.48437-.20313-.75-.20313-.625 0-1.0625.29688-1.0625.85938 0 .48437.40626.70312.89063.84375.25.07812.625.21874.625.60937 0 .29688-.23437.48438-.54687.48438-.46875 0-.73438-.34375-.85938-.82813Zm0 0"/><path id="z" d="M.28125-1.375c0 .85938.45313 1.4375 1.23438 1.4375.3125 0 .57812-.14062.89062-.39062v.28125L2.46875 0h.9375v-.17187c-.42187-.03126-.4375-.04688-.4375-.34375v-3.78125l-.04687-.03125-.90625.14062v.14063l.21875.01562c.14062.03125.1875.0625.1875.28125v.95313c-.17188-.07813-.375-.14063-.65625-.14063-.46875 0-.82813.15625-1.07813.40625-.25.26563-.40625.64063-.40625 1.15625m.60938-.0625c0-.76562.28124-1.29687.875-1.29687.28124 0 .5.125.60937.375.04688.09375.04688.1875.04688.34375V-1c0 .14063 0 .23438-.04688.32813-.10937.3125-.35937.42187-.67187.42187-.53125 0-.8125-.51562-.8125-1.1875m0 0"/><path id="A" d="m1.17188-3.28125.09374.10938.875-.48438c.17188-.09375.32813-.1875.32813-.3125s-.14062-.26562-.21875-.26562c-.10937 0-.20312.0625-.375.25Zm-.89063 1.875C.28125-.48437.6875.0625 1.64063.0625c.64062 0 .98437-.35937 1.14062-.8125l-.1875-.09375C2.4375-.5 2.21875-.23437 1.75-.23437c-.71875 0-.85937-.6875-.85937-1.29688h1.6875c.125 0 .23437-.03125.23437-.23437 0-.34375-.10937-1.17188-1.1875-1.17188-.90625 0-1.34375.65625-1.34375 1.53125m.625-.35937c0-.23438.07813-.96875.6875-.96875.54688 0 .60938.5625.60938.78125 0 .125-.03125.1875-.20313.1875Zm0 0"/><clipPath id="a"><path d="M36 0h143v142.45703H36Zm0 0"/></clipPath><clipPath id="f"><path d="M89 6h2v136.45703h-2Zm0 0"/></clipPath><clipPath id="g"><path d="M124 35h2v107.45703h-2Zm0 0"/></clipPath><clipPath id="h"><path d="M36.96094 24H125.375v117.85938H36.96094Zm0 0"/></clipPath><clipPath id="i"><path d="M125.375 24h53.05078v103H125.375Zm0 0"/></clipPath></defs><g clip-path="url(#a)"><path fill="none" stroke="#000" stroke-miterlimit="10" stroke-opacity=".5" stroke-width=".39774" d="M36.96093 124.1797H178.4258M36.96093 88.8125H178.4258M36.96093 53.4453H178.4258M36.96093 18.07813H178.4258M54.64453 141.85938V.39843M90.0078 141.85938V.39843m35.3672 141.46095V.39843m35.36718 141.46095V.39843"/></g><path fill="none" stroke="#000" stroke-miterlimit="10" stroke-opacity=".5" stroke-width=".39774" d="M90.00781 79.96875v17.6836"/><use xlink:href="#b" x="74.84637" y="104.70247" fill-opacity=".5"/><path fill="none" stroke="#000" stroke-miterlimit="10" stroke-opacity=".5" stroke-width=".39774" d="M54.64453 79.96875v17.6836"/><g fill-opacity=".5"><use xlink:href="#c" x="48.07738" y="101.22709"/><use xlink:href="#d" x="55.63956" y="101.22709"/></g><path fill="none" stroke="#000" stroke-miterlimit="10" stroke-opacity=".5" stroke-width=".39774" d="M125.375 79.96875v17.6836"/><use xlink:href="#d" x="122.58938" y="101.22709" fill-opacity=".5"/><path fill="none" stroke="#000" stroke-miterlimit="10" stroke-opacity=".5" stroke-width=".39774" d="M160.7422 79.96875v17.6836"/><use xlink:href="#e" x="157.95498" y="101.22709" fill-opacity=".5"/><path fill="none" stroke="#000" stroke-miterlimit="10" stroke-width=".7955" d="M36.96093 88.8125h135.2969"/><path stroke="#000" stroke-miterlimit="10" stroke-width=".7955" d="M176.41797 88.8125c-.51172-.10547-2.75781-.70703-4.16016-1.36328v2.72266c1.40235-.65235 3.64844-1.25391 4.16016-1.35938Zm0 0"/><path fill="none" stroke="#000" stroke-miterlimit="10" stroke-opacity=".5" stroke-width=".39774" d="M98.85156 124.1797h-17.6836"/><g fill-opacity=".5"><use xlink:href="#c" x="71.06457" y="127.75154"/><use xlink:href="#d" x="78.62675" y="127.75154"/></g><path fill="none" stroke="#000" stroke-miterlimit="10" stroke-opacity=".5" stroke-width=".39774" d="M98.85156 53.4453h-17.6836"/><use xlink:href="#d" x="74.84637" y="57.02034" fill-opacity=".5"/><path fill="none" stroke="#000" stroke-miterlimit="10" stroke-opacity=".5" stroke-width=".39774" d="M98.85156 18.07812h-17.6836"/><use xlink:href="#e" x="74.84637" y="21.65473" fill-opacity=".5"/><g clip-path="url(#f)"><path fill="none" stroke="#000" stroke-miterlimit="10" stroke-width=".7955" d="M90.00781 141.85938V6.56249"/></g><path stroke="#000" stroke-miterlimit="10" stroke-width=".7955" d="M90.00781 2.40625c-.10547.50781-.70703 2.7539-1.35937 4.15625h2.72265c-.65625-1.40234-1.2539-3.64844-1.36328-4.15625Zm0 0"/><g clip-path="url(#g)"><path fill="none" stroke="#000" stroke-dasharray="2.983151223 2.983151223" stroke-miterlimit="10" stroke-width="1.19326" d="M125.375 141.85938V35.76171"/></g><g clip-path="url(#h)"><path fill="none" stroke="#007F7F" stroke-miterlimit="10" stroke-width=".7955" d="M36.96093 256.8008s2.66016-13.13672 3.6836-18.03516c1.02343-4.89844 2.66015-12.58203 3.68359-17.26563 1.02344-4.6875 2.66016-12.02734 3.6836-16.5 1.02343-4.47266 2.66015-11.47266 3.68359-15.73438 1.02344-4.2578 2.66016-10.91797 3.6836-14.96484 1.02343-4.04297 2.66015-10.36328 3.68359-14.19532 1.02343-3.83593 2.66015-9.8125 3.6836-13.42968 1.02343-3.6211 2.66015-9.25782 3.68359-12.66407 1.02343-3.40625 2.66015-8.70312 3.68359-11.89453 1.02344-3.19531 2.66016-8.14844 3.6836-11.1289 1.02343-2.98438 2.66015-7.59376 3.68359-10.36329 1.02344-2.76562 2.66015-7.03516 3.6836-9.59375 1.02343-2.55469 2.66015-6.48047 3.68359-8.82422 1.02343-2.34375 2.66015-5.92969 3.68359-8.0586 1.02344-2.1289 2.66016-5.375 3.6836-7.29296 1.02343-1.91797 2.66015-4.82032 3.68359-6.52344s2.66015-4.26563 3.6836-5.75782c1.02343-1.49218 2.66015-3.71093 3.68359-4.98828 1.02343-1.27734 2.66015-3.15625 3.68359-4.22265s2.66016-2.60157 3.6836-3.45703c1.02343-.85157 2.66015-2.04688 3.68359-2.6875 1.02344-.63672 2.66015-1.4922 3.6836-1.91797 1.02343-.42579 2.66015-.94141 3.68359-1.15235 1.02343-.21484 3.68359-.38672 3.68359-.38672"/></g><g clip-path="url(#i)"><path fill="none" stroke="#FF7F00" stroke-miterlimit="10" stroke-width=".7955" d="M125.375 35.76171s1.59766.0625 2.21094.14063c.61328.07422 1.59766.25781 2.21094.41406.61328.15234 1.59765.46094 2.21094.6914.61328.22657 1.59765.66016 2.21093.96485.61329.3086 1.59375.85938 2.20704 1.24219.61328.38672 1.59765 1.0625 2.21093 1.51953.61329.46094 1.59766 1.26172 2.21094 1.79688.61328.53906 1.59766 1.46093 2.21094 2.07421s1.59765 1.65625 2.21094 2.34766 1.59765 1.85938 2.21093 2.625c.61329.76563 1.59766 2.0586 2.21094 2.90234.61328.83985 1.59375 2.25391 2.20703 3.17579.61328.91797 1.59766 2.45703 2.21094 3.45312s1.59766 2.65625 2.21094 3.73047 1.59765 2.85547 2.21094 4.00781c.61328 1.14844 1.59765 3.0547 2.21093 4.28125.61329 1.22657 1.59766 3.25391 2.21094 4.5586s1.59766 3.45703 2.21094 4.83594 1.59375 3.65234 2.20703 5.10937 1.59766 3.85547 2.21094 5.39063c.61328 1.53125 1.59766 4.05078 2.21094 5.66406.61328 1.60938 1.59765 4.2539 2.21093 5.9375.61329 1.6875 1.59766 4.45313 2.21094 6.21875.61328 1.76172 2.21094 6.49219 2.21094 6.49219"/></g><g fill="#007F7F"><use xlink:href="#j" x="21.93944" y="69.53099"/><use xlink:href="#k" x="25.25193" y="69.53099"/></g><g fill="#007F7F"><use xlink:href="#l" x="29.61473" y="69.53099"/><use xlink:href="#m" x="32.51083" y="69.53099"/><use xlink:href="#n" x="35.87925" y="69.53099"/><use xlink:href="#o" x="39.41548" y="69.53099"/><use xlink:href="#p" x="41.68388" y="69.53099"/><use xlink:href="#q" x="45.1766" y="69.53099"/></g><g fill="#007F7F"><use xlink:href="#r" x="49.48968" y="69.53099"/><use xlink:href="#m" x="54.87791" y="69.53099"/><use xlink:href="#s" x="58.24634" y="69.53099"/><use xlink:href="#t" x="61.85714" y="69.53099"/><use xlink:href="#q" x="63.86452" y="69.53099"/></g><use xlink:href="#u" x="68.1776" y="69.53099" fill="#007F7F"/><g fill="#007F7F"><use xlink:href="#v" x="4.197" y="76.98928"/><use xlink:href="#k" x="5.82528" y="76.98928"/></g><g fill="#007F7F"><use xlink:href="#w" x="10.18186" y="76.98928"/><use xlink:href="#m" x="12.04009" y="76.98928"/><use xlink:href="#s" x="15.40851" y="76.98928"/><use xlink:href="#l" x="19.01932" y="76.98928"/><use xlink:href="#t" x="21.91542" y="76.98928"/><use xlink:href="#x" x="23.9228" y="76.98928"/><use xlink:href="#m" x="25.61944" y="76.98928"/><use xlink:href="#s" x="28.98786" y="76.98928"/></g><g fill="#007F7F"><use xlink:href="#q" x="33.90999" y="76.98928"/><use xlink:href="#y" x="36.91174" y="76.98928"/><use xlink:href="#t" x="39.4536" y="76.98928"/></g><g fill="#007F7F"><use xlink:href="#l" x="42.77231" y="76.98928"/><use xlink:href="#o" x="45.6684" y="76.98928"/></g><g fill="#007F7F"><use xlink:href="#m" x="47.90574" y="76.98928"/><use xlink:href="#x" x="51.27416" y="76.98928"/><use xlink:href="#y" x="52.9708" y="76.98928"/><use xlink:href="#y" x="55.51266" y="76.98928"/><use xlink:href="#k" x="58.05451" y="76.98928"/><use xlink:href="#s" x="61.10598" y="76.98928"/><use xlink:href="#t" x="64.71679" y="76.98928"/><use xlink:href="#q" x="66.72417" y="76.98928"/></g><g fill="#FF7F00"><use xlink:href="#j" x="160.09491" y="41.23916"/><use xlink:href="#k" x="163.4074" y="41.23916"/></g><g fill="#FF7F00"><use xlink:href="#l" x="167.77019" y="41.23916"/><use xlink:href="#m" x="170.66629" y="41.23916"/><use xlink:href="#n" x="174.03472" y="41.23916"/><use xlink:href="#o" x="177.57094" y="41.23916"/><use xlink:href="#p" x="179.83934" y="41.23916"/><use xlink:href="#q" x="183.33207" y="41.23916"/></g><g fill="#FF7F00"><use xlink:href="#z" x="187.64514" y="41.23916"/><use xlink:href="#q" x="191.13786" y="41.23916"/><use xlink:href="#y" x="194.13961" y="41.23916"/><use xlink:href="#l" x="196.68147" y="41.23916"/><use xlink:href="#q" x="199.57757" y="41.23916"/><use xlink:href="#s" x="202.57932" y="41.23916"/><use xlink:href="#z" x="206.19012" y="41.23916"/></g><use xlink:href="#u" x="210.99417" y="41.23916" fill="#FF7F00"/><g fill="#FF7F00"><use xlink:href="#v" x="160.09491" y="48.6962"/><use xlink:href="#k" x="161.72318" y="48.6962"/></g><g fill="#FF7F00"><use xlink:href="#w" x="166.08598" y="48.6962"/><use xlink:href="#m" x="167.94421" y="48.6962"/><use xlink:href="#s" x="171.31263" y="48.6962"/><use xlink:href="#l" x="174.92343" y="48.6962"/><use xlink:href="#t" x="177.81953" y="48.6962"/><use xlink:href="#x" x="179.82692" y="48.6962"/><use xlink:href="#m" x="181.52356" y="48.6962"/><use xlink:href="#s" x="184.89198" y="48.6962"/></g><g fill="#FF7F00"><use xlink:href="#q" x="189.81411" y="48.6962"/><use xlink:href="#y" x="192.81586" y="48.6962"/><use xlink:href="#t" x="195.35772" y="48.6962"/></g><g fill="#FF7F00"><use xlink:href="#z" x="198.67642" y="48.6962"/><use xlink:href="#A" x="202.16914" y="48.6962"/><use xlink:href="#l" x="205.1709" y="48.6962"/><use xlink:href="#o" x="208.06699" y="48.6962"/></g><g fill="#FF7F00"><use xlink:href="#m" x="210.29811" y="48.6962"/><use xlink:href="#x" x="213.66654" y="48.6962"/><use xlink:href="#y" x="215.36318" y="48.6962"/><use xlink:href="#y" x="217.90503" y="48.6962"/><use xlink:href="#k" x="220.44689" y="48.6962"/><use xlink:href="#s" x="223.49836" y="48.6962"/><use xlink:href="#t" x="227.10916" y="48.6962"/><use xlink:href="#q" x="229.11654" y="48.6962"/></g></svg>