<svg xmlns="http://www.w3.org/2000/svg" xmlns:xlink="http://www.w3.org/1999/xlink" width="439.77pt" height="71.265pt" viewBox="0 0 439.77 71.265"><defs><path id="g" d="M-.125-7.57812c.59375.01562.73438.09375.89063.59375L3.09375 0H4.5625l1.375-4.04687c.4375-1.26563.84375-2.39063 1.01563-2.84375.23437-.5625.32812-.64063.98437-.6875v-.4375H5.25v.4375l.65625.0625c.23438.01562.26563.125.20313.375-.125.39062-.375 1.34375-.71875 2.42187-.23438.70313-.75 2.40625-.95313 3H4.375l-1.73437-5.375c-.07813-.25-.0625-.40625.20312-.42187l.5625-.0625v-.4375H-.125Zm0 0"/><path id="h" d="M.5625-1.54687c0 .85937.54688 1.6875 1.71875 1.6875.73438 0 1.25-.40625 1.65625-.67188.15625.35938.35938.67188.92188.67188.60937 0 1.3125-.20313 1.70312-.34375l-.01562-.39063c-.15625.01563-.40625 0-.57813-.0625-.15625-.04687-.375-.1875-.375-.85937V-4.1875c0-.73437-.09375-1.625-2.14062-1.625C1.75-5.8125.6875-5.14062.6875-4.39062c0 .5.75.73437 1.03125.73437.26563 0 .39063-.1875.5-.46875.32813-.98437.70313-1.15625 1.03125-1.15625.32813 0 .64063.1875.64063.85938v.60937C3.48438-3.53125 2.53125-3.25 1.78125-3 .85938-2.67187.5625-2.21875.5625-1.54687m1.75-.1875c0-.54688.20313-.8125.54688-1.01563.35937-.20312.75-.35937 1.03125-.48437v1.6875c-.01563.625-.375.78125-.70313.78125-.45312 0-.875-.35938-.875-.96875m0 0"/><path id="i" d="M.28125 0h3.25v-.4375c-.65625-.04687-.73437-.09375-.73437-.57812v-7.5l-.09375-.07813-2.32813.3125v.42188l.39063.0625c.1875.03125.26562.125.26562.59375v6.1875c0 .48437-.07812.53125-.75.57812Zm0 0"/><path id="j" d="M.45313-2.82812c0 1.57812.6875 2.96875 2.84375 2.96875 1.375 0 2.125-.67188 2.51562-1.6875l-.40625-.23438C5.04688-1.125 4.5625-.75 3.85938-.75c-1.15625 0-1.5625-.95312-1.5625-2.17187h3c.42187 0 .625-.10938.625-.48438 0-.95312-.375-2.40625-2.60938-2.40625-2.07812 0-2.85937 1.34375-2.85937 2.98438m1.84375-.64063c0-.84375.21875-1.8125.96875-1.8125.70312 0 .82812.875.82812 1.42188 0 .32812-.09375.39062-.35937.39062Zm0 0"/><path id="k" d="M.34375-5.0625.75-5c.1875.01563.26563.10938.26563.57813v2.8125c0 1.35937.82812 1.75 1.67187 1.75.98438 0 1.59375-.53125 2.0625-.79688L4.84375 0H7.25v-.4375c-.67187-.04687-.73437-.09375-.73437-.57812V-5.75l-.10938-.0625-2.34375.32813v.42187L4.46875-5c.1875.01563.28125.10938.28125.57813v2.45312c0 .1875-.01562.48438-.09375.65625-.10937.26563-.42187.53125-.92187.53125-.60938 0-.96875-.35937-.96875-1.25V-5.75l-.09375-.0625-2.32813.32813Zm0 0"/><path id="l" d="M.375 0h3.5v-.4375C2.98438-.5 2.85938-.53125 2.85938-1.01562v-2.57813c0-.59375.10937-.875.39062-.875.1875 0 .35938.09375.625.23438.14063.10937.29688.1875.53125.1875S4.875-4.17187 5-4.34375C5.10938-4.51562 5.17188-4.75 5.17188-5c0-.5-.3125-.8125-.79688-.8125-.48437 0-.84375.3125-1.53125 1.01563L2.6875-5.8125l-2.25.32813v.42187L.84375-5c.17188.01563.28125.10938.28125.57813v3.40625c0 .48437-.09375.53125-.75.57812Zm0 0"/><path id="m" d="M.45313-2.73437c0 1.6875.875 2.875 2.34375 2.875.4375 0 1.04687-.23438 1.67187-.71875V0h2.5v-.4375c-.67187-.04687-.75-.09375-.75-.57812v-7.5l-.07812-.07813-2.35938.3125v.42188l.40625.0625c.1875.03125.28125.125.28125.59375v1.53125c-.25-.10938-.57812-.14063-.98437-.14063-.85938 0-1.64063.25-2.17188.75S.45313-3.78125.45313-2.73437m1.84375-.23438c0-1.70312.64062-2.3125 1.29687-2.3125.4375 0 .67188.23438.78125.46875.10938.17188.09375.40625.09375.65625v2.39063c0 .46875-.17187 1.01562-.90625 1.01562-.75 0-1.26562-.73437-1.26562-2.21875m0 0"/><path id="o" d="M.875-7.32812c0 .54687.39063 1.01562 1.04688 1.01562.64062 0 1.09375-.46875 1.09375-1.01562 0-.54688-.42188-1.01563-1.09375-1.01563C1.26563-8.34375.875-7.875.875-7.32812M.375 0h3.26563v-.4375c-.67188-.04687-.78125-.09375-.78125-.57812V-5.75l-.0625-.0625-2.35938.32813v.42187L.84375-5c.17188.01563.28125.10938.28125.57813v3.40625c0 .48437-.09375.53125-.75.57812Zm0 0"/><path id="p" d="M.4375-5.10937h.67188v3.75c0 1.0625.78125 1.5 1.4375 1.5.46875 0 1.1875-.21875 1.84375-.625l-.125-.35938c-.15625.0625-.39063.10938-.65625.10938-.4375 0-.75-.32813-.75-1.0625v-3.3125H4.0625v-.57813H2.85938v-1.45312H2.1875L1.17188-5.6875H.4375Zm0 0"/><path id="q" d="M.45313-2.82812c0 1.84375.89062 2.96875 3 2.96875s3-1.125 3-2.96875c0-1.85938-.89063-2.98438-3-2.98438s-3 1.125-3 2.98438m1.84375 0c0-1.5625.32812-2.45313 1.15625-2.45313.82812 0 1.15625.89063 1.15625 2.45313 0 1.54687-.32813 2.4375-1.15625 2.4375-.82813 0-1.15625-.89063-1.15625-2.4375m0 0"/><path id="r" d="M.375 0h3.09375v-.4375L3.25-.46875c-.23437-.03125-.39062-.0625-.39062-.4375v-2.76562c0-.26563.04687-.51563.14062-.6875.14063-.28125.45313-.57813.9375-.57813.59375 0 .89063.375.92188 1.0625v2.96875c0 .375-.125.40625-.375.4375l-.25.03125V0h3.125v-.4375c-.67188-.04687-.76563-.09375-.76563-.57812v-3.01563C6.57813-5.10937 6.04688-5.8125 4.85938-5.8125c-.6875 0-1.23438.34375-2 .79688l-.14063-.79688-2.28125.32813v.42187L.84375-5c.17188.01563.28125.10938.28125.57813v3.40625c0 .48437-.09375.53125-.75.57812Zm0 0"/><path id="s" d="M.5-2.14062.64063-.42187c.4375.40625 1.3125.5625 1.96875.5625C4.03125.14063 5-.48437 5-1.73437c0-1-.64062-1.48438-1.70312-1.89063-.6875-.25-1.17188-.51562-1.17188-.98437 0-.35938.25-.67188.73438-.67188.59375 0 1.07812.53125 1.3125 1.40625h.42187v-1.53125c-.46875-.29687-1.125-.40625-1.73437-.40625-1.42188 0-2.29688.65625-2.29688 1.82813 0 .85937.6875 1.39062 1.70313 1.78125C2.85938-2 3.4375-1.65625 3.4375-1.09375c0 .4375-.29687.70313-.79687.70313-.76563 0-1.39063-.8125-1.6875-1.75Zm0 0"/><path id="n" d="M.375-.45312c0 .32812.26563.59375.73438.59375.79687 0 1.23437-.79688 1.71875-1.57813l.46875-.75h.01562l.21875.90625C3.75-.35937 3.95313.14063 4.54688.14063c.85937 0 1.29687-.875 1.64062-1.57813l-.29687-.17187c-.28125.53125-.60938 1.14062-.92188 1.14062-.21875 0-.3125-.26562-.5625-1.29687l-.375-1.51563C4.45313-4.01562 5.04688-4.9375 5.375-4.9375c.34375 0 .35938.17188.70313.17188.26562 0 .5-.23438.5-.54688 0-.35937-.28125-.5-.59375-.5-.625 0-1.14063.54688-1.54688 1.20313l-.5.78125h-.03125l-.46875-1.9375-.0625-.04688-1.90625.57813.01563.28125.92187-.0625c.1875 0 .26563.07812.375.57812l.40625 1.67188-.3125.5625C2.375-1.35937 1.95313-.75 1.67188-.75 1.32813-.75 1.25-1.03125.875-1.03125c-.29687 0-.5.29688-.5.57813m0 0"/><path id="t" d="M-.25 2.125c.01563.39063.51563.67188 1.0625.67188 1.15625 0 1.65625-.9375 2.14063-3.15625l1.0625-4.875h1.46875l.10937-.45313h-1.5l.3125-1.29687c.23438-.875.45313-1.21875.76563-1.21875s.53125.26562.78125.8125c.0625.10937.15625.20312.32812.20312.23438 0 .5625-.20312.5625-.5 0-.5-.625-.90625-1.32812-.90625-1.35938 0-1.92188.96875-2.375 2.48438l-.125.42187h-1l-.125.45313h1.03125L1.57813 1.59375c-.14063.71875-.26563.78125-.375.78125-.125 0-.29688-.07812-.60938-.5625C.5 1.70313.4375 1.54688.28125 1.54688c-.25 0-.53125.29687-.53125.57812m0 0"/><path id="y" d="M.98438-2.9375h6.375v-.67187h-6.375Zm0 0"/><path id="z" d="M.3125-.10937.4375 0h4.79688L5.625-1.53125l-.32812-.0625c-.25.625-.48438.71875-.9375.71875H1.39063c.1875-.60937.875-1.4375 1.95312-2.20312 1.10938-.8125 1.96875-1.32813 1.96875-2.625 0-1.625-1.07812-2.17188-2.29687-2.17188-1.57813 0-2.40625.95313-2.40625 1.5625 0 .39063.45312.57813.64062.57813.21875 0 .29688-.125.34375-.3125.1875-.79688.64063-1.42188 1.35938-1.42188.875 0 1.14062.73438 1.14062 1.59375 0 1.23438-.625 1.9375-1.64062 2.82813C1.01563-1.79687.53125-1.01562.3125-.10937m0 0"/><path id="A" d="M1.25 0h3.8125v-.32812l-.96875-.09375c-.25-.01563-.39062-.10938-.39062-.5625V-7.8125l-.04688-.0625L1.25-7.46875v.28125l1.09375.14063c.20313.01562.26563.10937.26563.4375v5.625c0 .45312-.10938.54687-.375.5625L1.25-.32812Zm0 0"/><path id="C" d="M.78125-2.34375h5.10938v-.54687H.78125Zm0 0"/><path id="D" d="M1 0h3.04688v-.26562l-.78125-.0625c-.1875-.03125-.29688-.09375-.29688-.45313V-6.25l-.04687-.04687L1-5.96875V-5.75l.875.10938c.15625.01562.21875.09375.21875.35937v4.5c0 .35938-.09375.42188-.3125.45313L1-.26562Zm0 0"/><path id="E" d="M.25-.09375.34375 0H4.1875L4.5-1.21875l-.26562-.04687c-.1875.5-.375.5625-.75.5625h-2.375c.15624-.48438.70312-1.14063 1.5625-1.76563C3.5625-3.10937 4.25-3.53125 4.25-4.5625c0-1.29687-.85937-1.73437-1.82812-1.73437C1.14063-6.29687.5-5.53125.5-5.04687c0 .3125.34375.46875.5.46875.17188 0 .23438-.10938.26563-.26563.15624-.625.51562-1.125 1.09375-1.125.70312 0 .90625.57813.90625 1.26563 0 1-.5 1.5625-1.29688 2.26562C.8125-1.4375.42188-.8125.25-.09375m0 0"/><clipPath id="a"><path d="M2.1289 35H161v35.53906H2.1289Zm0 0"/></clipPath><clipPath id="b"><path d="M160 0h277.41016v36H160Zm0 0"/></clipPath><clipPath id="c"><path d="M159 0h278.41016v36H159Zm0 0"/></clipPath><clipPath id="d"><path d="M160 35h277.41016v35.53906H160Zm0 0"/></clipPath><clipPath id="e"><path d="M159 35h278.41016v35.53906H159Zm0 0"/></clipPath><clipPath id="f"><path d="M2.1289 0H161v36H2.1289Zm0 0"/></clipPath><clipPath id="u"><path d="M2.1289 35h435.28126v1H2.1289Zm0 0"/></clipPath><clipPath id="v"><path d="M2.1289 70h435.28126v.53906H2.1289Zm0 0"/></clipPath><clipPath id="w"><path d="M2.1289 0h435.28126v70.53906H2.1289Zm0 0"/></clipPath><clipPath id="x"><path d="M159 0h2v70.53906h-2Zm0 0"/></clipPath><clipPath id="B"><path d="M159 35h278.41016v35.53906H159Zm0 0"/></clipPath></defs><g clip-path="url(#a)"><path fill="#FFF" stroke="#000" stroke-miterlimit="10" stroke-width=".39443" d="M2.32813 35.26954v35.07033H160.1524V35.26954Zm0 0"/></g><g clip-path="url(#b)"><path fill="#FFF" d="M160.15234 35.26953V.19531h277.06641v35.07422Zm0 0"/></g><g clip-path="url(#c)"><path fill="none" stroke="#000" stroke-miterlimit="10" stroke-width=".39443" d="M160.1524 35.26954V.19531h277.0665v35.07423Zm0 0"/></g><g clip-path="url(#d)"><path fill="#FFF" d="M160.15234 35.26953v35.07031h277.06641v-35.0703Zm0 0"/></g><g clip-path="url(#e)"><path fill="none" stroke="#000" stroke-miterlimit="10" stroke-width=".39443" d="M160.1524 35.26954v35.07033h277.0665V35.26954Zm0 0"/></g><g clip-path="url(#f)"><path fill="#FFF" stroke="#000" stroke-miterlimit="10" stroke-width=".39443" d="M2.32813.19531v35.07423H160.1524V.19531Zm0 0"/></g><use xlink:href="#g" x="49.17538" y="21.96051"/><use xlink:href="#h" x="55.94245" y="21.96051"/><use xlink:href="#i" x="62.36439" y="21.96051"/><use xlink:href="#j" x="66.06224" y="21.96051"/><use xlink:href="#k" x="72.17602" y="21.96051"/><use xlink:href="#l" x="79.58405" y="21.96051"/><use xlink:href="#m" x="88.90264" y="21.96051"/><use xlink:href="#j" x="96.01484" y="21.96051"/><use xlink:href="#n" x="106.24058" y="21.96051"/><use xlink:href="#g" x="38.80855" y="55.70152"/><use xlink:href="#h" x="45.57562" y="55.70152"/><use xlink:href="#l" x="51.99756" y="55.70152"/><use xlink:href="#o" x="57.32247" y="55.70152"/><use xlink:href="#h" x="61.1066" y="55.70152"/><use xlink:href="#p" x="67.52854" y="55.70152"/><use xlink:href="#o" x="71.92898" y="55.70152"/><use xlink:href="#q" x="75.71311" y="55.70152"/><use xlink:href="#r" x="82.60344" y="55.70152"/><use xlink:href="#s" x="90.11008" y="55.70152"/><use xlink:href="#m" x="99.4903" y="55.70152"/><use xlink:href="#j" x="106.6025" y="55.70152"/><use xlink:href="#t" x="116.82764" y="55.70152"/><g clip-path="url(#u)"><path fill="none" stroke="#000" stroke-miterlimit="10" stroke-width=".39443" d="M2.32813 35.26954H437.2189"/></g><g clip-path="url(#v)"><path fill="none" stroke="#000" stroke-miterlimit="10" stroke-width=".39443" d="M2.32813 70.33987H437.2189"/></g><g clip-path="url(#w)"><path fill="none" stroke="#000" stroke-miterlimit="10" stroke-width=".39443" d="M2.32813.19531v70.14456H437.2189V.1953Zm0 0"/></g><g clip-path="url(#x)"><path fill="none" stroke="#000" stroke-miterlimit="10" stroke-width=".39443" d="M160.1524.19531v70.14456"/></g><use xlink:href="#y" x="170.44986" y="21.67149"/><use xlink:href="#z" x="178.78235" y="21.67149"/><use xlink:href="#y" x="251.11392" y="21.67149"/><use xlink:href="#A" x="259.44641" y="21.67149"/><use xlink:href="#A" x="335.94401" y="21.67149"/><use xlink:href="#z" x="416.60807" y="21.67149"/><g clip-path="url(#B)"><path fill="none" stroke="#000" stroke-miterlimit="10" stroke-width=".39443" d="M160.1524 35.26954v35.07033h277.0665V35.26954Zm0 0"/></g><path fill="#FFF" d="M169.92578 66.39453h15.52344V56.15234h-15.52344Zm0 0"/><use xlink:href="#C" x="171.89693" y="64.42356"/><use xlink:href="#D" x="178.56293" y="64.42356"/><path fill="#FFF" d="M169.92578 66.39453h15.52344V56.15234h-15.52344Zm0 0"/><use xlink:href="#C" x="171.89693" y="64.42356"/><use xlink:href="#D" x="178.56293" y="64.42356"/><path fill="#FFF" d="M253.92578 49.45703h8.85547V39.21484h-8.85547Zm0 0"/><use xlink:href="#E" x="255.89461" y="47.48624"/><path fill="#FFF" d="M253.92578 49.45703h8.85547V39.21484h-8.85547Zm0 0"/><use xlink:href="#E" x="255.89461" y="47.48624"/><path fill="none" stroke="#000" stroke-miterlimit="10" stroke-width=".39443" d="m189.35163 58.82424 58.35548-12.25391"/><path d="M250.02344 46.08594c-1.0039.00781-2.82422-.01172-4.16406-.63672 1.1875.85937 1.35156 1.6289.60937 2.89453.97656-1.11328 2.6289-1.86328 3.55469-2.25781m0 0"/><path fill="#FFF" d="M331.25781 66.39453h15.51953V56.15234h-15.51953Zm0 0"/><use xlink:href="#C" x="333.22604" y="64.42356"/><use xlink:href="#D" x="339.89204" y="64.42356"/><path fill="#FFF" d="M331.25781 66.39453h15.51953V56.15234h-15.51953Zm0 0"/><use xlink:href="#C" x="333.22604" y="64.42356"/><use xlink:href="#D" x="339.89204" y="64.42356"/><path fill="none" stroke="#000" stroke-miterlimit="10" stroke-width=".39443" d="m266.68368 46.08595 58.3555 12.25391"/><path d="M327.35547 58.82422c-.92188-.39453-2.57813-1.14453-3.55469-2.25781.74219 1.26562.57813 2.03515-.60937 2.89453 1.34375-.625 3.16015-.64453 4.16406-.63672m0 0"/><path fill="#FFF" d="M415.25781 49.45703h8.85547V39.21484h-8.85547Zm0 0"/><use xlink:href="#D" x="417.22372" y="47.48624"/><path fill="#FFF" d="M415.25781 49.45703h8.85547V39.21484h-8.85547Zm0 0"/><use xlink:href="#D" x="417.22372" y="47.48624"/><path fill="none" stroke="#000" stroke-miterlimit="10" stroke-width=".39443" d="m350.68371 58.82424 58.35549-12.25391"/><path d="M411.35547 46.08594c-1.0039.00781-2.82422-.01172-4.16406-.63672 1.1875.85937 1.35156 1.6289.60937 2.89453.97266-1.11328 2.6289-1.86328 3.55469-2.25781m0 0"/></svg>