<svg xmlns="http://www.w3.org/2000/svg" xmlns:xlink="http://www.w3.org/1999/xlink" width="998.194pt" height="113.784pt" viewBox="0 0 998.194 113.784"><defs><path id="e" d="M-.20312-12.23437c.95312.04687 1.17187.15625 1.4375.95312L5 0h2.35938l2.23437-6.53125c.6875-2.04687 1.34375-3.85937 1.625-4.59375.375-.89062.53125-1.03125 1.59375-1.10937v-.6875H8.46875v.6875l1.0625.09375c.375.04687.40625.21875.3125.625C9.67188-10.90625 9.25-9.34375 8.6875-7.625 8.3125-6.48437 7.5-3.73437 7.15625-2.78125H7.0625L4.25-11.45312c-.10937-.40625-.09375-.64063.34375-.6875l.89063-.09375v-.6875h-5.6875Zm0 0"/><path id="f" d="M.89063-2.5c0 1.39063.90625 2.71875 2.79687 2.71875 1.1875 0 2.01563-.64062 2.67188-1.07812.25.57812.57812 1.07812 1.48437 1.07812.96875 0 2.125-.3125 2.73438-.5625l-.01563-.60937c-.23437.01562-.65625 0-.9375-.09376-.23437-.09374-.59375-.3125-.59375-1.40624v-4.3125c0-1.17188-.15625-2.625-3.46875-2.625-2.73437 0-4.45312 1.09375-4.45312 2.3125 0 .8125 1.20312 1.17187 1.67187 1.17187.42188 0 .625-.29687.79688-.75.51562-1.59375 1.14062-1.875 1.65625-1.875.53125 0 1.04687.3125 1.04687 1.39063v1C5.625-5.6875 4.07813-5.25 2.85938-4.82812 1.39063-4.3125.89063-3.57812.89063-2.5m2.84375-.29687c0-.89063.32812-1.32813.875-1.64063.57812-.3125 1.21875-.57812 1.67187-.78125V-2.5c-.03125 1.01563-.60937 1.26563-1.125 1.26563-.73437 0-1.42187-.57813-1.42187-1.5625m0 0"/><path id="g" d="M.45313 0h5.25v-.71875c-1.0625-.0625-1.1875-.14062-1.1875-.90625V-13.75l-.15625-.10937-3.76563.5v.67187l.64063.09375c.29687.0625.4375.21875.4375.98438V-1.625c0 .76563-.14063.84375-1.21875.90625Zm0 0"/><path id="h" d="M.73438-4.57812c0 2.54687 1.10937 4.79687 4.57812 4.79687C7.53125.21875 8.75-.85937 9.39063-2.5l-.67188-.39062c-.5625 1.07812-1.35937 1.67187-2.5 1.67187-1.85937 0-2.51562-1.53125-2.51562-3.5h4.84375c.6875 0 1-.17187 1-.76562 0-1.53125-.59375-3.90625-4.20313-3.90625-3.35937 0-4.60937 2.1875-4.60937 4.8125m2.96875-1.03125c0-1.35938.35937-2.92188 1.5625-2.92188 1.14062 0 1.34375 1.4375 1.34375 2.3125 0 .51563-.14063.60938-.57813.60938Zm0 0"/><path id="i" d="m.5625-8.17187.65625.09375c.29688.04687.40625.1875.40625.9375v4.5625c0 2.1875 1.35938 2.79687 2.71875 2.79687 1.57813 0 2.5625-.85937 3.3125-1.26562L7.8125 0h3.89063v-.71875C10.625-.78125 10.5-.85937 10.5-1.625v-7.64062l-.15625-.125-3.78125.54687v.67188l.65625.09375c.29688.04687.4375.1875.4375.9375v3.95312c0 .32813-.01562.78125-.14062 1.0625-.17188.4375-.67188.875-1.48438.875-1 0-1.57812-.57812-1.57812-2.03125v-5.98437l-.14063-.125-3.75.54687Zm0 0"/><path id="j" d="M.59375 0H6.25v-.71875C4.8125-.79687 4.60938-.85937 4.60938-1.625v-4.15625c0-.98437.1875-1.4375.64062-1.4375.29688 0 .57813.15625 1 .39063.23438.1875.5.29687.84375.29687.39063 0 .76563-.1875.96875-.46875.1875-.28125.29688-.65625.29688-1.07812 0-.79688-.51563-1.3125-1.29688-1.3125s-1.375.51562-2.46875 1.65625l-.25-1.65625-3.64062.54687v.67188l.65625.09375c.29687.04687.45312.1875.45312.9375V-1.625c0 .76563-.14062.84375-1.21875.90625Zm0 0"/><path id="k" d="M.73438-4.42187c0 2.73437 1.40625 4.64062 3.78125 4.64062.70312 0 1.6875-.35937 2.70312-1.15625V0h4.01563v-.71875c-1.0625-.0625-1.20313-.14062-1.20313-.90625V-13.75l-.125-.10937-3.79687.5v.67187l.65625.09375c.29687.0625.45312.21875.45312.98438v2.45312c-.42187-.17187-.95312-.23437-1.59375-.23437-1.39062 0-2.64062.42187-3.5 1.21875-.875.8125-1.39062 2.0625-1.39062 3.75m2.96875-.375c0-2.73438 1.03125-3.73438 2.07812-3.73438.71875 0 1.09375.375 1.28125.75.17188.28125.15625.6875.15625 1.07813v3.85937c0 .75-.28125 1.625-1.46875 1.625-1.21875 0-2.04687-1.1875-2.04687-3.57812m0 0"/><path id="m" d="M1.40625-11.82812c0 .89062.64063 1.64062 1.70313 1.64062 1.03125 0 1.75-.75 1.75-1.64062 0-.875-.6875-1.64063-1.75-1.64063s-1.70313.76563-1.70313 1.64063M.59375 0H5.875v-.71875C4.79688-.78125 4.60938-.85937 4.60938-1.625v-7.64062l-.09375-.125-3.8125.54687v.67188l.65625.09375c.29687.04687.45312.1875.45312.9375V-1.625c0 .76563-.14062.84375-1.21875.90625Zm0 0"/><path id="n" d="M.70313-8.23437h1.09375v6.04687c0 1.70313 1.25 2.40625 2.29687 2.40625.78125 0 1.9375-.34375 2.98438-1L6.875-1.375c-.25.125-.625.20313-1.04687.20313-.71875 0-1.21875-.53125-1.21875-1.73438v-5.32812H6.5625v-.9375H4.60938v-2.34375h-1.0625L1.89063-9.17187H.70313Zm0 0"/><path id="o" d="M.73438-4.57812c0 2.98437 1.4375 4.79687 4.82812 4.79687 3.40625 0 4.85938-1.8125 4.85938-4.79687s-1.45313-4.8125-4.85938-4.8125c-3.39062 0-4.82812 1.82812-4.82812 4.8125m2.96875 0c0-2.5.53125-3.95313 1.85937-3.95313 1.34375 0 1.875 1.45313 1.875 3.95313 0 2.51562-.53125 3.9375-1.875 3.9375-1.32812 0-1.85937-1.42188-1.85937-3.9375m0 0"/><path id="p" d="M.59375 0h5.01563v-.71875L5.25-.75c-.39062-.04687-.64062-.10937-.64062-.71875v-4.45312c0-.42188.07812-.84375.21875-1.09375.25-.48438.73437-.9375 1.51562-.9375.95313 0 1.45313.59375 1.5 1.70312v4.78125c0 .60938-.20312.67188-.60937.71875l-.39063.03125V0H11.875v-.71875c-1.07812-.0625-1.23437-.14062-1.23437-.90625V-6.5c-.01563-1.75-.875-2.89062-2.79688-2.89062-1.09375 0-2 .5625-3.23437 1.29687L4.375-9.39062l-3.67187.54687v.67188l.65625.09375c.29687.04687.45312.1875.45312.9375V-1.625c0 .76563-.14062.84375-1.21875.90625Zm0 0"/><path id="q" d="m.8125-3.46875.21875 2.79688c.71875.65625 2.125.89062 3.1875.89062 2.28125 0 3.84375-1 3.84375-3.01562 0-1.625-1.04687-2.39063-2.75-3.04688C4.21875-6.25 3.42188-6.6875 3.42188-7.4375c0-.57812.42187-1.09375 1.1875-1.09375.95312 0 1.75.875 2.10937 2.28125h.70313v-2.48437c-.78125-.46875-1.82813-.65625-2.8125-.65625-2.28125 0-3.6875 1.07812-3.6875 2.96875 0 1.375 1.09375 2.25 2.73437 2.85937.95313.34375 1.89063.89063 1.89063 1.79688 0 .71875-.46875 1.125-1.29688 1.125-1.23437 0-2.23437-1.28125-2.71875-2.82813Zm0 0"/><path id="l" d="M.59375-.73437c0 .53125.4375.95312 1.20313.95312 1.26562 0 1.98437-1.26562 2.76562-2.53125l.75-1.23437h.03125L5.6875-2.0625C6.04688-.57812 6.39063.21875 7.34375.21875c1.375 0 2.07813-1.40625 2.64063-2.54687l-.48438-.25C9.04688-1.75 8.53125-.75 8.01563-.75c-.35938 0-.5-.42187-.92188-2.09375L6.5-5.29687c.6875-1.1875 1.64063-2.67188 2.17188-2.67188.5625 0 .57812.29688 1.14062.29688.40625 0 .79688-.40625.79688-.90625 0-.57813-.4375-.8125-.96875-.8125-.98438 0-1.82813.89062-2.48438 1.95312l-.8125 1.26563H6.3125L5.54688-9.3125l-.09375-.07812-3.09375.9375L2.40625-8 3.875-8.09375c.29688 0 .4375.14063.625.9375l.65625 2.70313-.51562.89062c-.79688 1.375-1.5 2.34375-1.95313 2.34375-.54687 0-.67187-.45312-1.28125-.45312-.46875 0-.8125.48437-.8125.9375m0 0"/><path id="r" d="M1.53125-3.34375h.85938v-1.39062H14.375c-.15625.28125-.625.92187-1.125 1.39062l.35938.5c.75-.64062 2.40625-1.76562 3.5625-2.15625v-.54687c-1.1875-.375-2.8125-1.51563-3.5625-2.15625l-.35938.5c.5.4375.95313 1.0625 1.125 1.375H2.39063v-1.375h-.85938Zm0 0"/><path id="s" d="m2.3125-5.98437.25.35937c.29688-.125.84375-.21875 1.03125-.21875.09375.17188 4.21875 9.82813 4.21875 9.82813h.73438L18.9375-17.75c.09375-.1875.14063-.26562.14063-.32812 0-.20313-.10938-.71876-.375-.71876-.14063 0-.29688.26563-.42188.5L8.75 1.6875 4.90625-7.28125c-.07812-.15625-.09375-.28125-.23437-.28125-.0625 0-.07813.03125-.25.15625Zm0 0"/><path id="x" d="M.78125-6.25C.78125-2.5 1.875.21875 4.95313.21875S9.15625-2.5 9.15625-6.25c0-3.73437-1.125-6.45312-4.20312-6.45312S.78125-9.98437.78125-6.25m1.89063 0c0-3.03125.51562-5.79687 2.28125-5.79687 1.76562 0 2.28125 2.76562 2.28125 5.79687 0 3.04688-.51563 5.8125-2.28125 5.8125-1.76563 0-2.28125-2.76562-2.28125-5.8125m0 0"/><path id="y" d="M1.59375-4.73437H6.1875v4.59375h1.09375v-4.59375H11.875v-1.09375H7.28125v-4.59375H6.1875v4.59375H1.59375Zm0 0"/><path id="z" d="M.29688-3.95312C.29688-1.73437 2.5.20313 4.57813.20313c2.625 0 4.29687-2.625 4.60937-3.14063.35938.67188 2.17188 3.15625 5.07813 3.15625 3.45312 0 4.45312-2.625 4.45312-4.82812 0-2.23438-2.09375-4-4.15625-4-2.48437 0-3.84375 1.78125-4.64062 2.875-.73438-1.1875-2.35938-2.84375-4.95313-2.84375-3.39062 0-4.67187 2.40625-4.67187 4.625m1.17187.04687c0-1.85937 1.3125-3.32812 2.89063-3.32812 1.85937 0 3.4375 1.96875 4.3125 3.35937C7.95313-2.60937 6.625-.65625 4.51563-.65625c-1.35938 0-3.04688-1.54687-3.04688-3.25m9-.98437c.70313-1.28125 2.0625-2.84375 4.17188-2.84375 1.34375 0 2.98437 1.34375 2.98437 3.04687 0 1.89063-1.01562 3.60938-2.82812 3.60938-1.92188 0-3.45313-2.14063-4.32813-3.8125m0 0"/><path id="B" d="M.39063-3.125C.39063-1.25.9375.10938 2.46875.10938 4.01563.10938 4.57813-1.25 4.57813-3.125c0-1.85937-.5625-3.21875-2.10938-3.21875C.9375-6.34375.39063-4.98437.39063-3.125m.9375 0c0-1.51562.26562-2.89062 1.14062-2.89062.89063 0 1.15625 1.375 1.15625 2.89062 0 1.53125-.26562 2.90625-1.15625 2.90625-.875 0-1.14062-1.375-1.14062-2.90625m0 0"/><path id="C" d="M.79688-2.35937h2.29687V-.0625h.54688v-2.29687H5.9375v-.54688H3.64063v-2.29687h-.54688v2.29687H.79688Zm0 0"/><path id="D" d="M.15625-1.98437c0 1.125 1.09375 2.07812 2.125 2.07812 1.3125 0 2.15625-1.3125 2.3125-1.5625C4.76563-1.14062 5.67188.10938 7.125.10938c1.73438 0 2.21875-1.3125 2.21875-2.42188S8.3125-4.29687 7.28125-4.29687c-1.25 0-1.92187.89062-2.32812 1.4375-.35938-.59375-1.17188-1.42188-2.46875-1.42188-1.70313 0-2.32813 1.20313-2.32813 2.29688m.57813.03124c0-.92187.65625-1.67187 1.4375-1.67187.9375 0 1.71875.98438 2.15625 1.6875C3.96875-1.29687 3.3125-.32812 2.25-.32812c-.67187 0-1.51562-.78125-1.51562-1.625m4.5-.48437c.34375-.64062 1.03125-1.42187 2.07812-1.42187.67188 0 1.48438.67187 1.48438 1.51562 0 .9375-.5 1.8125-1.40625 1.8125-.96875 0-1.71875-1.07812-2.15625-1.90625m0 0"/><clipPath id="a"><path d="M.54297 56H284v57.57031H.54297Zm0 0"/></clipPath><clipPath id="b"><path d="M283 0h713.84766v57H283Zm0 0"/></clipPath><clipPath id="c"><path d="M283 56h713.84766v57.57031H283Zm0 0"/></clipPath><clipPath id="d"><path d="M.54297 0H284v57H.54297Zm0 0"/></clipPath><clipPath id="t"><path d="M.54297 56h996.30469v1H.54296Zm0 0"/></clipPath><clipPath id="u"><path d="M.54297 113h996.30469v.57031H.54296Zm0 0"/></clipPath><clipPath id="v"><path d="M.54297 0h996.30469v113.57031H.54296Zm0 0"/></clipPath><clipPath id="w"><path d="M283 0h1v113.57031h-1Zm0 0"/></clipPath><clipPath id="A"><path d="M283 56h713.84766v57.57031H283Zm0 0"/></clipPath></defs><g clip-path="url(#a)"><path fill="#FFF" stroke="#000" stroke-miterlimit="10" stroke-width=".39775" d="M.74219 56.78514v56.58592H283.6718V56.78514Zm0 0"/></g><g clip-path="url(#b)"><path fill="#FFF" stroke="#000" stroke-miterlimit="10" stroke-width=".39775" d="M283.6718 56.78514V.19922h712.9881v56.58592Zm0 0"/></g><g clip-path="url(#c)"><path fill="#FFF" stroke="#000" stroke-miterlimit="10" stroke-width=".39775" d="M283.6718 56.78514v56.58592h712.9881V56.78514Zm0 0"/></g><g clip-path="url(#d)"><path fill="#FFF" stroke="#000" stroke-miterlimit="10" stroke-width=".39775" d="M.74219.19922v56.58592H283.6718V.19922Zm0 0"/></g><use xlink:href="#e" x="90.47271" y="35.31296"/><use xlink:href="#f" x="101.39096" y="35.31296"/><use xlink:href="#g" x="111.75236" y="35.31296"/><use xlink:href="#h" x="117.71862" y="35.31296"/><use xlink:href="#i" x="127.58283" y="35.31296"/><use xlink:href="#j" x="139.53523" y="35.31296"/><use xlink:href="#k" x="154.5702" y="35.31296"/><use xlink:href="#h" x="166.04531" y="35.31296"/><use xlink:href="#l" x="182.54392" y="35.31296"/><use xlink:href="#e" x="42.94493" y="91.44042"/><use xlink:href="#f" x="53.86318" y="91.44042"/><use xlink:href="#j" x="64.22458" y="91.44042"/><use xlink:href="#m" x="72.81599" y="91.44042"/><use xlink:href="#f" x="78.92146" y="91.44042"/><use xlink:href="#n" x="89.28287" y="91.44042"/><use xlink:href="#m" x="96.38271" y="91.44042"/><use xlink:href="#o" x="102.48818" y="91.44042"/><use xlink:href="#p" x="113.60531" y="91.44042"/><use xlink:href="#q" x="125.71682" y="91.44042"/><use xlink:href="#k" x="140.85122" y="91.44042"/><use xlink:href="#h" x="152.32633" y="91.44042"/><use xlink:href="#l" x="168.82596" y="91.44042"/><use xlink:href="#r" x="186.66508" y="91.44042"/><use xlink:href="#s" x="211.37519" y="93.0314"/><path fill="none" stroke="#000" stroke-miterlimit="10" stroke-width="1.09392" d="M230.07031 74.78516h11.39454"/><use xlink:href="#l" x="230.0697" y="91.44042"/><g clip-path="url(#t)"><path fill="none" stroke="#000" stroke-miterlimit="10" stroke-width=".39775" d="M.74219 56.78514h995.9177"/></g><g clip-path="url(#u)"><path fill="none" stroke="#000" stroke-miterlimit="10" stroke-width=".39775" d="M.74219 113.37106h995.9177"/></g><g clip-path="url(#v)"><path fill="none" stroke="#000" stroke-miterlimit="10" stroke-width=".39775" d="M.74219.19922v113.17184h995.9177V.19922Zm0 0"/></g><g clip-path="url(#w)"><path fill="none" stroke="#000" stroke-miterlimit="10" stroke-width=".39775" d="M283.6718.19922v113.17184"/></g><use xlink:href="#x" x="307.01064" y="34.73606"/><use xlink:href="#y" x="952.09606" y="33.59223"/><use xlink:href="#z" x="965.54003" y="33.59223"/><g clip-path="url(#A)"><path fill="none" stroke="#000" stroke-miterlimit="10" stroke-width=".39775" d="M283.6718 56.78514v56.58592h712.9881V56.78514Zm0 0"/></g><path fill="#FFF" d="M307.5 109.39453h8.92969v-10.4414H307.5Zm0 0"/><use xlink:href="#B" x="309.48595" y="107.29432"/><path fill="#FFF" d="M307.5 109.39453h8.92969v-10.4414H307.5Zm0 0"/><use xlink:href="#B" x="309.48595" y="107.29432"/><path fill="#FFF" d="M958.25 70.0586h20.23438v-9.29688H958.25Zm0 0"/><use xlink:href="#C" x="960.22562" y="67.96099"/><use xlink:href="#D" x="966.94761" y="67.96099"/><path fill="#FFF" d="M958.25 70.0586h20.23438v-9.29688H958.25Zm0 0"/><use xlink:href="#C" x="960.22562" y="67.96099"/><use xlink:href="#D" x="966.94761" y="67.96099"/><path fill="none" stroke="#000" stroke-miterlimit="10" stroke-width=".39775" d="m320.40617 103.67575 631.4842-37.29296"/><path d="M954.27344 66.24219c-1.0039-.14063-2.8125-.4336-4.0586-1.2539 1.0586 1.03124 1.10547 1.82421.17579 2.97655 1.14062-.96484 2.90234-1.46484 3.8828-1.72265m0 0"/></svg>