<svg xmlns="http://www.w3.org/2000/svg" xmlns:xlink="http://www.w3.org/1999/xlink" width="284.261pt" height="227.569pt" viewBox="0 0 284.261 227.569"><defs><path id="b" d="M1.4375-4.26562h9.25v-.96875h-9.25Zm0 0"/><path id="c" d="M.45313-.15625.625 0h6.95313l.57812-2.21875-.46875-.09375C7.32813-1.39062 7-1.26562 6.3125-1.26562H2.01563c.28125-.875 1.28125-2.07813 2.82812-3.20313 1.60938-1.1875 2.85938-1.9375 2.85938-3.8125 0-2.34375-1.54688-3.15625-3.3125-3.15625-2.3125 0-3.5 1.40625-3.5 2.28125 0 .5625.64062.84375.9375.84375.29687 0 .40625-.1875.48437-.46875.26563-1.14062.92188-2.0625 1.96875-2.0625 1.28125 0 1.65625 1.07813 1.65625 2.3125 0 1.79688-.90625 2.82813-2.375 4.10938C1.48438-2.60937.76563-1.46875.45313-.15625m0 0"/><path id="d" d="M1.82813 0h5.53125v-.48437l-1.42188-.125c-.35937-.03126-.54687-.15626-.54687-.82813v-9.90625l-.09375-.09375-3.46875.59375v.40625l1.57812.20313c.28125.03125.39063.15625.39063.64062v8.15625c0 .67188-.17188.79688-.5625.82813l-1.40625.125Zm0 0"/><path id="e" d="M.70313-5.625c0 3.375.98437 5.82813 3.75 5.82813C7.23438.20313 8.23438-2.25 8.23438-5.625c0-3.35937-1-5.8125-3.78125-5.8125-2.76563 0-3.75 2.45313-3.75 5.8125m1.6875 0c0-2.73437.46875-5.21875 2.0625-5.21875s2.0625 2.48438 2.0625 5.21875c0 2.75-.46875 5.23438-2.0625 5.23438S2.39063-2.875 2.39063-5.625m0 0"/><path id="j" d="M.60938-9.32812c0 1.64062 1.64062 2.92187 5.375 2.92187-.625 1.09375-1.07813 2.23438-1.07813 3.46875 0 2.04688 1.29688 3.15625 3.64063 3.15625 2.28125 0 4.67187-1.65625 4.67187-3.78125 0-1.26562-1.0625-1.96875-2.39062-1.96875C9.35938-5.53125 7.625-3.875 7.625-2.5625c0 .39063.3125 1.15625.85938 1.15625.15625 0 .375-.125.375-.29687 0-.25-.4375-.26563-.4375-.84375 0-.90625 1.34375-2.375 2.40625-2.375.76562 0 1.21875.29687 1.21875 1.03125 0 1.64062-1.59375 3.51562-3.5 3.51562C7.1875-.375 6.5-1.10937 6.5-2.34375c0-1.39062.96875-3.01562 1.70313-4.21875 4.15625-.625 8.23437-2.67187 8.23437-5.28125 0-1-.79687-1.65625-1.875-1.65625-2.45312 0-6.17187 3.17188-8.21875 6.4375-1.6875-.01562-4.4375-.04687-4.4375-2.04687 0-1.82813 2.23438-3.23438 3.625-3.23438.25 0 .39063-.15625.39063-.3125s-.14063-.28125-.29688-.28125c-2.09375 0-5.01562 1.40625-5.01562 3.60938m7.98437 2.03125c1.35938-2.40625 4.26563-5.60938 5.96875-5.60938.65625 0 1.125.39063 1.125 1 0 2.09375-3.28125 4-7.09375 4.60938m0 0"/><path id="k" d="M-.28125 2.34375c.01563.46875.57813.8125 1.28125.8125 1.35938 0 1.98438-1.07812 2.53125-3.54687L4.75-5.875h1.64063l.14062-.53125h-1.6875L5.23438-8c.21875-.875.4375-1.20312.76562-1.20312.29688 0 .51563.25.82813.92187.07812.125.1875.25.42187.25.29688 0 .70313-.25.70313-.625 0-.5625-.71875-1.03125-1.57813-1.03125-1.64062 0-2.3125 1.17188-2.78125 2.84375l-.125.4375h-1.125l-.17187.53125h1.17187L1.8125 1.89063c-.125.67187-.25.76562-.375.76562-.14062 0-.35937-.125-.6875-.67187-.09375-.14063-.1875-.3125-.39062-.3125-.3125 0-.64063.32812-.64063.67187m0 0"/><clipPath id="a"><path d="M0 .08203h283.52344V227H0Zm0 0"/></clipPath><clipPath id="f"><path d="M265 129h18.52344v26H265Zm0 0"/></clipPath><clipPath id="g"><path d="M141 6h2v221.0586h-2Zm0 0"/></clipPath><clipPath id="h"><path d="M129 .08203h26V18h-26Zm0 0"/></clipPath><clipPath id="i"><path d="M.39453 17h282.73438v209.66406H.39453Zm0 0"/></clipPath></defs><g clip-path="url(#a)"><path fill="none" stroke="#000" stroke-miterlimit="10" stroke-opacity=".5" stroke-width=".39747" d="M.39453 198.39062H283.1289M.39453 141.84375H283.1289M.39453 85.29688H283.1289M.39453 28.75H283.1289M28.66797 226.66406V.47656m56.54688 226.1875V.47656m56.54687 226.1875V.47656m56.54687 226.1875V.47656m56.54688 226.1875V.47656"/></g><path fill="none" stroke="#000" stroke-miterlimit="10" stroke-opacity=".5" stroke-width=".39747" d="M28.66797 127.70703v28.27344"/><g fill-opacity=".5"><use xlink:href="#b" x="18.17076" y="161.69395"/><use xlink:href="#c" x="30.26187" y="161.69395"/></g><path fill="none" stroke="#000" stroke-miterlimit="10" stroke-opacity=".5" stroke-width=".39747" d="M85.21485 127.70703v28.27344"/><g fill-opacity=".5"><use xlink:href="#b" x="74.71676" y="161.69395"/><use xlink:href="#d" x="86.80787" y="161.69395"/></g><path fill="none" stroke="#000" stroke-miterlimit="10" stroke-opacity=".5" stroke-width=".39747" d="M198.3086 127.70703v28.27344"/><use xlink:href="#d" x="193.85403" y="161.69395" fill-opacity=".5"/><path fill="none" stroke="#000" stroke-miterlimit="10" stroke-opacity=".5" stroke-width=".39747" d="M254.85547 127.70703v28.27344"/><use xlink:href="#c" x="250.40003" y="161.69395" fill-opacity=".5"/><path fill="none" stroke="#000" stroke-miterlimit="10" stroke-opacity=".5" stroke-width=".39747" d="M155.89844 198.39062H127.625"/><g fill-opacity=".5"><use xlink:href="#b" x="111.47121" y="204.10369"/><use xlink:href="#d" x="123.56232" y="204.10369"/></g><path fill="none" stroke="#000" stroke-miterlimit="10" stroke-opacity=".5" stroke-width=".39747" d="M155.89844 85.29688H127.625"/><use xlink:href="#d" x="117.51749" y="91.0117" fill-opacity=".5"/><path fill="none" stroke="#000" stroke-miterlimit="10" stroke-opacity=".5" stroke-width=".39747" d="M155.89844 28.75H127.625"/><use xlink:href="#c" x="117.51749" y="34.46571" fill-opacity=".5"/><path fill="none" stroke="#000" stroke-miterlimit="10" stroke-opacity=".5" stroke-width=".39747" d="M141.76172 127.70703v28.27344"/><use xlink:href="#e" x="117.51749" y="167.2505" fill-opacity=".5"/><path fill="none" stroke="#000" stroke-miterlimit="10" stroke-width=".79495" d="M.39453 141.84375h276.57422"/><path d="M281.1211 141.84375c-.50782-.10547-2.75-.70703-4.15235-1.36328v2.72266c1.40234-.65235 3.64453-1.25391 4.15234-1.35938m0 0"/><g clip-path="url(#f)"><path fill="none" stroke="#000" stroke-miterlimit="10" stroke-width=".79495" d="M281.1211 141.84375c-.50782-.10547-2.75-.70703-4.15235-1.36328v2.72265c1.40234-.65234 3.64453-1.2539 4.15234-1.35937Zm0 0"/></g><g clip-path="url(#g)"><path fill="none" stroke="#000" stroke-miterlimit="10" stroke-width=".79495" d="M141.76172 226.66406V6.63672"/></g><path d="M141.76172 2.48438c-.10547.5078-.70703 2.75-1.35938 4.15234h2.72266c-.65625-1.40235-1.25781-3.64453-1.36328-4.15235m0 0"/><g clip-path="url(#h)"><path fill="none" stroke="#000" stroke-miterlimit="10" stroke-width=".79495" d="M141.76172 2.48437c-.10547.50782-.70703 2.75-1.35938 4.15235h2.72266c-.65625-1.40234-1.25781-3.64453-1.36328-4.15235Zm0 0"/></g><g clip-path="url(#i)"><path fill="none" stroke="#007F7F" stroke-miterlimit="10" stroke-width=".79495" d="M.39453 226.66406s16.50782-.8164 28.27344-28.27344C40.4375 170.9297 61.6797 28.75 85.21485 28.75c23.53906 0 89.55859 161.79297 113.09374 169.64062 23.53907 7.84375 29.08594-109.17187 56.54688-113.09374 27.46093-3.92188 141.36718 84.8203 141.36718 84.8203"/></g><use xlink:href="#j" x="22.20029" y="82.5118" fill="#007F7F"/><use xlink:href="#k" x="37.44465" y="86.88443" fill="#007F7F"/></svg>