<svg xmlns="http://www.w3.org/2000/svg" xmlns:xlink="http://www.w3.org/1999/xlink" width="998.194pt" height="113.884pt" viewBox="0 0 998.194 113.884"><defs><path id="g" d="M-.20312-12.25c.95312.04688 1.17187.17188 1.4375.96875L5 0h2.35938l2.23437-6.53125c.70313-2.04687 1.35938-3.85937 1.64063-4.59375.375-.89062.53125-1.03125 1.57812-1.125v-.6875H8.48438v.6875l1.04687.10938c.375.03125.42188.21875.32813.60937-.1875.625-.60938 2.17188-1.15625 3.90625C8.32813-6.48437 7.5-3.75 7.17188-2.78125H7.0625l-2.79687-8.6875c-.125-.39062-.10938-.64062.32812-.67187L5.5-12.25v-.6875H-.20312Zm0 0"/><path id="h" d="M.89063-2.51562c0 1.40625.90625 2.73437 2.79687 2.73437 1.1875 0 2.03125-.64062 2.6875-1.07812.23438.57812.57813 1.07812 1.46875 1.07812.96875 0 2.125-.3125 2.75-.5625l-.03125-.60937c-.23437.01562-.65625 0-.92187-.10938-.25-.07812-.60938-.29687-.60938-1.39062v-4.3125c0-1.17188-.15625-2.625-3.45312-2.625-2.75 0-4.46875 1.09375-4.46875 2.29687 0 .82813 1.20312 1.1875 1.67187 1.1875.42188 0 .625-.29687.79688-.76562.51562-1.59375 1.14062-1.875 1.65625-1.875.53125 0 1.0625.32812 1.0625 1.40625v.98437c-.65625.46875-2.21875.90625-3.4375 1.3125C1.39063-4.3125.89063-3.57812.89063-2.51562M3.75-2.8125c0-.875.3125-1.3125.875-1.625.57813-.3125 1.20313-.57812 1.67188-.78125v2.70313C6.25-1.5 5.67188-1.23437 5.15625-1.23437 4.42188-1.23437 3.75-1.8125 3.75-2.8125m0 0"/><path id="i" d="M.45313 0h5.26562v-.71875C4.64063-.78125 4.51563-.85937 4.51563-1.625V-13.75l-.15625-.125-3.76563.5v.67188l.64063.10937c.29687.04688.4375.21875.4375.96875v10c0 .76563-.14063.84375-1.21875.90625Zm0 0"/><path id="j" d="M.73438-4.57812c0 2.54687 1.10937 4.79687 4.57812 4.79687 2.23438 0 3.45313-1.07812 4.07813-2.73437l-.67188-.375c-.5625 1.07812-1.35937 1.67187-2.48437 1.67187-1.875 0-2.53125-1.53125-2.53125-3.5H8.5625c.67188 0 1-.17187 1-.78125 0-1.53125-.60937-3.89062-4.20312-3.89062-3.375 0-4.625 2.1875-4.625 4.8125m2.96875-1.03125c0-1.35938.35937-2.9375 1.57812-2.9375 1.125 0 1.32813 1.4375 1.32813 2.3125 0 .51562-.14063.625-.57813.625Zm0 0"/><path id="k" d="m.5625-8.1875.65625.10938c.29688.03125.40625.17187.40625.9375v4.54687c0 2.20313 1.35938 2.8125 2.71875 2.8125 1.59375 0 2.5625-.85937 3.3125-1.28125L7.82813 0h3.875v-.71875c-1.07813-.0625-1.1875-.14062-1.1875-.90625v-7.65625l-.17188-.10937-3.78125.53125v.67187l.65625.10938c.3125.03125.4375.17187.4375.9375v3.95312c0 .32813-.01562.78125-.125 1.0625-.1875.4375-.6875.875-1.5.875-1 0-1.57812-.57812-1.57812-2.03125v-6l-.14063-.10937-3.75.53125Zm0 0"/><path id="l" d="M.59375 0H6.25v-.71875C4.8125-.79687 4.625-.85937 4.625-1.625v-4.17187c0-.96875.17188-1.42188.625-1.42188.29688 0 .57813.15625 1 .39063.23438.17187.5.29687.85938.29687.375 0 .75-.20312.95312-.46875.20313-.28125.29688-.65625.29688-1.07812 0-.79688-.51563-1.3125-1.29688-1.3125-.76562 0-1.375.51562-2.46875 1.64062l-.25-1.64062-3.64062.53125v.67187l.65625.10938c.29687.03125.45312.17187.45312.9375V-1.625c0 .76563-.14062.84375-1.21875.90625Zm0 0"/><path id="m" d="M.73438-4.42187c0 2.73437 1.42187 4.64062 3.78125 4.64062.70312 0 1.6875-.35937 2.70312-1.15625V0H11.25v-.71875c-1.07812-.0625-1.21875-.14062-1.21875-.90625V-13.75l-.125-.125-3.79687.5v.67188l.65625.10937c.29687.04688.45312.21875.45312.96875v2.46875c-.40625-.1875-.95312-.23437-1.57812-.23437-1.40625 0-2.65625.40625-3.51563 1.20312C1.25-7.35937.73438-6.10937.73438-4.42187m2.96875-.375c0-2.75 1.03125-3.75 2.09375-3.75.71875 0 1.09375.39062 1.26562.76562.1875.28125.15625.67188.15625 1.07813v3.85937c0 .75-.26562 1.625-1.46875 1.625-1.21875 0-2.04687-1.1875-2.04687-3.57812m0 0"/><path id="o" d="M1.40625-11.84375c0 .89063.64063 1.65625 1.70313 1.65625 1.03125 0 1.75-.76562 1.75-1.65625 0-.875-.67188-1.625-1.75-1.625-1.0625 0-1.70313.75-1.70313 1.625M.59375 0H5.875v-.71875c-1.07812-.0625-1.25-.14062-1.25-.90625v-7.65625l-.10937-.10937-3.8125.53125v.67187l.65625.10938c.29687.03125.45312.17187.45312.9375V-1.625c0 .76563-.14062.84375-1.21875.90625Zm0 0"/><path id="p" d="M.70313-8.23437h1.09375v6.04687c0 1.70313 1.25 2.40625 2.29687 2.40625.78125 0 1.9375-.34375 3-1L6.89063-1.375c-.26563.125-.64063.20313-1.0625.20313-.71875 0-1.20313-.54688-1.20313-1.73438v-5.32812h1.9375v-.9375H4.625v-2.35938H3.54688L1.89063-9.17187H.70313Zm0 0"/><path id="q" d="M.73438-4.57812c0 2.98437 1.4375 4.79687 4.84375 4.79687s4.85937-1.8125 4.85937-4.79687-1.45312-4.8125-4.85937-4.8125S.73438-7.5625.73438-4.57812m2.96875 0c0-2.51563.53125-3.96875 1.875-3.96875 1.32812 0 1.85937 1.45312 1.85937 3.96875s-.53125 3.9375-1.85937 3.9375c-1.34375 0-1.875-1.42188-1.875-3.9375m0 0"/><path id="r" d="M.59375 0h5.01563v-.71875L5.25-.75c-.39062-.04687-.625-.10937-.625-.71875V-5.9375c0-.40625.07813-.82812.21875-1.09375.23438-.46875.73438-.9375 1.5-.9375.96875 0 1.45313.60938 1.5 1.71875v4.78125c0 .60938-.20312.67188-.59375.71875l-.40625.03125V0h5.04688v-.71875c-1.07813-.0625-1.23438-.14062-1.23438-.90625v-4.89062c-.03125-1.75-.875-2.875-2.8125-2.875-1.09375 0-1.98437.54687-3.21875 1.28125l-.25-1.28125-3.67187.53125v.67187l.65625.10938c.29687.03125.45312.17187.45312.9375V-1.625c0 .76563-.14062.84375-1.21875.90625Zm0 0"/><path id="s" d="m.8125-3.46875.21875 2.79688c.71875.65625 2.14063.89062 3.1875.89062 2.29688 0 3.84375-1 3.84375-3.03125 0-1.60937-1.03125-2.39062-2.75-3.04687C4.21875-6.25 3.42188-6.6875 3.42188-7.4375c0-.57812.42187-1.10937 1.20312-1.10937.95313 0 1.75.89062 2.10938 2.29687h.6875v-2.48437c-.76563-.48438-1.82813-.65625-2.79688-.65625-2.29687 0-3.70312 1.0625-3.70312 2.95312 0 1.375 1.09375 2.25 2.73437 2.875.96875.34375 1.89063.89063 1.89063 1.79688 0 .70312-.46875 1.125-1.28125 1.125-1.23438 0-2.25-1.29688-2.73438-2.82813Zm0 0"/><path id="n" d="M.59375-.73437c0 .53125.4375.95312 1.20313.95312 1.26562 0 1.98437-1.28125 2.76562-2.53125l.75-1.23437h.04688L5.6875-2.0625C6.04688-.57812 6.39063.21875 7.34375.21875 8.71875.21875 9.4375-1.1875 10-2.32812l-.48437-.26563C9.0625-1.75 8.54688-.75 8.01563-.75c-.35938 0-.48438-.42187-.90625-2.09375l-.59375-2.45312c.67187-1.1875 1.625-2.6875 2.15625-2.6875.5625 0 .57812.29687 1.14062.29687.42188 0 .79688-.39062.79688-.89062 0-.57813-.4375-.8125-.95313-.8125-1 0-1.82812.89062-2.48437 1.95312l-.82813 1.26563H6.3125L5.54688-9.3125l-.09375-.07812-3.07813.9375L2.40625-8 3.875-8.10937c.3125 0 .4375.14062.625.9375l.65625 2.71875-.51562.89062c-.79688 1.375-1.5 2.34375-1.95313 2.34375-.53125 0-.67187-.45312-1.28125-.45312-.46875 0-.8125.48437-.8125.9375m0 0"/><path id="t" d="M1.53125-3.34375h.85938v-1.39062h12c-.15625.28125-.64063.90625-1.14063 1.39062l.35938.5C14.375-3.48437 16.03124-4.625 17.17188-5v-.54687C16-5.9375 14.375-7.0625 13.60938-7.70312l-.35938.5c.5.4375.96875 1.04687 1.14063 1.375h-12v-1.375h-.85938Zm0 0"/><path id="A" d="M1.59375-4.73437h10.29688v-1.09375H1.59375Zm0 0"/><path id="B" d="M.29688-3.96875c0 2.23438 2.21875 4.17188 4.28125 4.17188 2.625 0 4.29687-2.625 4.625-3.15625.35937.6875 2.15625 3.17187 5.0625 3.17187 3.46875 0 4.46875-2.625 4.46875-4.84375s-2.09376-4-4.15626-4c-2.5 0-3.84374 1.79688-4.64062 2.89063-.73437-1.1875-2.375-2.84375-4.95312-2.84375-3.40625 0-4.6875 2.40625-4.6875 4.60937m1.17187.0625c0-1.85937 1.3125-3.34375 2.89063-3.34375 1.875 0 3.4375 1.96875 4.3125 3.375C7.96875-2.60937 6.625-.65625 4.51563-.65625c-1.34375 0-3.04688-1.54687-3.04688-3.25m9-.98437C11.1875-6.17187 12.54688-7.75 14.65625-7.75c1.34375 0 2.98438 1.35938 2.98438 3.04688 0 1.89062-1.01563 3.625-2.82813 3.625-1.9375 0-3.46875-2.14063-4.34375-3.8125m0 0"/><path id="C" d="M.78125-6.25C.78125-2.51562 1.875.21875 4.95313.21875c3.09375 0 4.20312-2.73437 4.20312-6.46875 0-3.75-1.10937-6.46875-4.20312-6.46875C1.875-12.71875.78125-10 .78125-6.25m1.89063 0c0-3.04687.51562-5.8125 2.28125-5.8125C6.73438-12.0625 7.25-9.29687 7.25-6.25S6.73438-.4375 4.95313-.4375c-1.76563 0-2.28125-2.76562-2.28125-5.8125m0 0"/><path id="D" d="M1.59375-4.73437H6.1875v4.59375h1.09375v-4.59375h4.60938v-1.09375H7.28125v-4.60938H6.1875v4.60938H1.59375Zm0 0"/><path id="u" d="M1.42188 0H5.8125v-.40625L4.76563-.5c-.29688-.03125-.4375-.125-.4375-.60937v-7.73438L4.25-8.90625l-2.8125.46875v.35938l1.125.14062c.25.04688.34375.14063.34375.54688v6.28125c0 .48437-.125.57812-.4375.60937l-1.04687.09375Zm0 0"/><path id="v" d="M.45313-.5625c0 .39063.32812.71875.89062.71875.875 0 1.35938-.84375 1.89063-1.71875l.5-.85937h.03125l.23437 1c.23438 1 .48438 1.57812 1.1875 1.57812C6.21875.15625 6.78125-.875 7.17188-1.75l-.34375-.20312c-.3125.625-.70313 1.34375-1.0625 1.34375-.25 0-.34375-.28126-.59375-1.29688l-.46875-1.85937c.45312-.78125 1.0625-1.71875 1.42187-1.71875.39063 0 .46875.21875.85938.21875.3125 0 .59375-.3125.59375-.70313 0-.42187-.3125-.60937-.6875-.60937-.67188 0-1.25.5625-1.70313 1.28125l-.59375.90625h-.01562l-.51563-2.125L4-6.57812l-2.29687.65625.03124.34375.95313-.0625c.23438 0 .34375.09375.46875.59375L3.625-3.09375l-.35937.64063C2.76563-1.57812 2.3125-.9375 2-.9375c-.39062 0-.51562-.34375-.92187-.34375-.35938 0-.625.35938-.625.71875m0 0"/><path id="F" d="M.39063-3.125C.39063-1.25.9375.10938 2.48438.10938 4.01563.10938 4.57813-1.25 4.57813-3.125s-.5625-3.23437-2.09375-3.23437C.9375-6.35937.39063-5 .39063-3.125m.9375 0c0-1.51562.26562-2.90625 1.15625-2.90625.875 0 1.14062 1.39063 1.14062 2.90625 0 1.51563-.26562 2.90625-1.14062 2.90625-.89063 0-1.15625-1.39062-1.15625-2.90625m0 0"/><path id="H" d="M.79688-2.375H5.9375v-.54687H.79688Zm0 0"/><path id="I" d="M.15625-1.98437C.15625-.85937 1.25.09375 2.29688.09375c1.3125 0 2.14062-1.3125 2.29687-1.5625.1875.32813 1.09375 1.57813 2.54688 1.57813 1.73437 0 2.21875-1.3125 2.21875-2.42188s-1.03125-2-2.07813-2c-1.23437 0-1.92187.90625-2.3125 1.45313-.375-.60938-1.1875-1.4375-2.48437-1.4375-1.70313 0-2.32813 1.21875-2.32813 2.3125m.57813.03124c0-.9375.65625-1.67187 1.45312-1.67187.92188 0 1.71875.98438 2.15625 1.6875-.35937.64063-1.03125 1.60938-2.07812 1.60938-.6875 0-1.53125-.78125-1.53125-1.625m4.5-.5c.35937-.625 1.03125-1.42187 2.09375-1.42187.67187 0 1.48437.6875 1.48437 1.53125 0 .9375-.5 1.8125-1.40625 1.8125-.96875 0-1.73437-1.07812-2.17187-1.92187m0 0"/><path id="J" d="M.79688-2.375h2.29687v2.3125h.54688V-2.375H5.9375v-.54687H3.64063v-2.29688h-.54688v2.29688H.79688Zm0 0"/><clipPath id="a"><path d="M.10547 56H284v57.76953H.10547Zm0 0"/></clipPath><clipPath id="b"><path d="M283 0h714.28516v57H283Zm0 0"/></clipPath><clipPath id="c"><path d="M283 0h714.28516v58H283Zm0 0"/></clipPath><clipPath id="d"><path d="M283 56h714.28516v57.76953H283Zm0 0"/></clipPath><clipPath id="e"><path d="M.10547 0H284v57H.10547Zm0 0"/></clipPath><clipPath id="f"><path d="M.10547 0H284v58H.10547Zm0 0"/></clipPath><clipPath id="w"><path d="M.10547 56h997.17969v2H.10546Zm0 0"/></clipPath><clipPath id="x"><path d="M.10547 113h997.17969v.76953H.10546Zm0 0"/></clipPath><clipPath id="y"><path d="M.10547 0h997.17969v113.76953H.10546Zm0 0"/></clipPath><clipPath id="z"><path d="M283 0h1v113.76953h-1Zm0 0"/></clipPath><clipPath id="E"><path d="M283 56h714.28516v57.76953H283Zm0 0"/></clipPath><clipPath id="G"><path d="M639 56h2v57.76953h-2Zm0 0"/></clipPath></defs><g clip-path="url(#a)"><path fill="#FFF" stroke="#000" stroke-miterlimit="10" stroke-width=".39809" d="M.30469 56.83591v56.63279h283.17956V56.8359Zm0 0"/></g><g clip-path="url(#b)"><path fill="#FFF" d="M283.48438 56.83594V.19922h713.61328v56.63672Zm0 0"/></g><g clip-path="url(#c)"><path fill="none" stroke="#000" stroke-miterlimit="10" stroke-width=".39809" d="M283.48425 56.83591V.19921H997.0972v56.6367Zm0 0"/></g><g clip-path="url(#d)"><path fill="#FFF" stroke="#000" stroke-miterlimit="10" stroke-width=".39809" d="M283.48425 56.83591v56.63279H997.0972V56.8359Zm0 0"/></g><g clip-path="url(#e)"><path fill="#FFF" d="M.30469.19922v56.63672h283.17969V.19922Zm0 0"/></g><g clip-path="url(#f)"><path fill="none" stroke="#000" stroke-miterlimit="10" stroke-width=".39809" d="M.30469.19922v56.6367h283.17956V.19921Zm0 0"/></g><use xlink:href="#g" x="90.11358" y="35.344"/><use xlink:href="#h" x="101.04143" y="35.344"/><use xlink:href="#i" x="111.41194" y="35.344"/><use xlink:href="#j" x="117.38344" y="35.344"/><use xlink:href="#k" x="127.25632" y="35.344"/><use xlink:href="#l" x="139.21923" y="35.344"/><use xlink:href="#m" x="154.26741" y="35.344"/><use xlink:href="#j" x="165.7526" y="35.344"/><use xlink:href="#n" x="182.26572" y="35.344"/><use xlink:href="#g" x="50.58584" y="90.0243"/><use xlink:href="#h" x="61.51369" y="90.0243"/><use xlink:href="#l" x="71.8842" y="90.0243"/><use xlink:href="#o" x="80.48316" y="90.0243"/><use xlink:href="#h" x="86.594" y="90.0243"/><use xlink:href="#p" x="96.96451" y="90.0243"/><use xlink:href="#o" x="104.07059" y="90.0243"/><use xlink:href="#q" x="110.18143" y="90.0243"/><use xlink:href="#r" x="121.30833" y="90.0243"/><use xlink:href="#s" x="133.43048" y="90.0243"/><use xlink:href="#m" x="148.57818" y="90.0243"/><use xlink:href="#j" x="160.06337" y="90.0243"/><use xlink:href="#n" x="176.57751" y="90.0243"/><use xlink:href="#t" x="194.98964" y="90.0243"/><use xlink:href="#u" x="223.20801" y="82.02245"/><path fill="none" stroke="#000" stroke-miterlimit="10" stroke-width="1.09488" d="M222.67188 84.75h8.13671"/><use xlink:href="#v" x="222.67056" y="97.03117"/><g clip-path="url(#w)"><path fill="none" stroke="#000" stroke-miterlimit="10" stroke-width=".39809" d="M.30469 56.83591H997.0972"/></g><g clip-path="url(#x)"><path fill="none" stroke="#000" stroke-miterlimit="10" stroke-width=".39809" d="M.30469 113.4687H997.0972"/></g><g clip-path="url(#y)"><path fill="none" stroke="#000" stroke-miterlimit="10" stroke-width=".39809" d="M.30469.19922V113.4687H997.0972V.19922Zm0 0"/></g><g clip-path="url(#z)"><path fill="none" stroke="#000" stroke-miterlimit="10" stroke-width=".39809" d="M283.48425.19922V113.4687"/></g><use xlink:href="#A" x="295.52535" y="32.71668"/><use xlink:href="#B" x="308.98114" y="32.71668"/><use xlink:href="#C" x="635.32624" y="34.76659"/><use xlink:href="#D" x="952.49418" y="33.62275"/><use xlink:href="#B" x="965.94996" y="33.62275"/><g clip-path="url(#E)"><path fill="none" stroke="#000" stroke-miterlimit="10" stroke-width=".39809" d="M283.48425 56.83591v56.63279H997.0972V56.8359Zm0 0"/></g><path fill="#FFF" d="M307.33203 71.26563h8.9375V60.8164h-8.9375Zm0 0"/><use xlink:href="#F" x="309.3193" y="69.16555"/><path fill="#FFF" d="M307.33203 71.26563h8.9375V60.8164h-8.9375Zm0 0"/><use xlink:href="#F" x="309.3193" y="69.16555"/><g fill="none" stroke-miterlimit="10" clip-path="url(#G)"><path stroke="#000" stroke-width="1.39336" d="M640.28877 57.23435v55.83982"/><path stroke="#FFF" stroke-width=".59715" d="M640.28877 57.23435v55.83982"/></g><path fill="#FFF" d="M616.63672 110.07422h20.2539v-8.40234h-20.2539Zm0 0"/><use xlink:href="#H" x="618.62126" y="107.97202"/><use xlink:href="#I" x="625.34915" y="107.97202"/><path fill="#FFF" d="M643.6875 69.53906h20.2539v-9.30469h-20.2539Zm0 0"/><use xlink:href="#J" x="645.6707" y="67.43831"/><use xlink:href="#I" x="652.3986" y="67.43831"/><path fill="none" stroke="#000" stroke-miterlimit="10" stroke-width=".39809" d="m320.23423 67.10544 290.07018 36.68748"/><path d="M612.67188 104.08984c-.96094-.3203-2.6875-.9414-3.76172-1.98046.85156 1.21093.75 2.0039-.375 2.96484 1.29687-.73828 3.125-.91016 4.13671-.98438m0 0"/><path fill="#FFF" d="M964.3086 109.48828h8.9375V99.03906h-8.9375Zm0 0"/><use xlink:href="#F" x="966.28813" y="107.38862"/><path fill="#FFF" d="M964.3086 109.48828h8.9375V99.03906h-8.9375Zm0 0"/><use xlink:href="#F" x="966.28813" y="107.38862"/><path fill="none" stroke="#000" stroke-miterlimit="10" stroke-width=".39809" d="m667.90595 66.6445 290.06627 36.26952"/><path d="M960.34375 103.21094c-.96094-.32031-2.6914-.9375-3.76562-1.97656.85156 1.21093.7539 2-.3672 2.96484 1.29298-.74219 3.1211-.91406 4.13282-.98828m0 0"/></svg>