<?xml version="1.0" encoding="UTF-8"?>
<svg xmlns="http://www.w3.org/2000/svg" xmlns:xlink="http://www.w3.org/1999/xlink" width="512pt" height="512pt" viewBox="0 0 512 512" version="1.2">
<g id="surface1">
<path style=" stroke:none;fill-rule:nonzero;fill:rgb(0%,0%,0%);fill-opacity:1;" d="M 240.550781 5.53125 C 249.640625 0 261.710938 -0.0585938 270.929688 5.191406 C 346.570312 48.859375 422.21875 92.519531 497.859375 136.210938 C 505.761719 140.46875 510.929688 148.761719 512 157.601562 L 512 163.011719 C 510.902344 169.691406 507.859375 176.191406 502.609375 180.609375 C 496.070312 186.390625 486.761719 188.371094 478.308594 186.539062 C 478.28125 213.980469 478.300781 241.417969 478.300781 268.859375 C 485.890625 268.980469 493.488281 268.660156 501.070312 269.011719 C 506.652344 269.351562 511.078125 274.089844 512 279.449219 L 512 310.058594 C 511.011719 315.121094 507.019531 319.652344 501.761719 320.300781 C 495.917969 320.828125 490.039062 320.378906 484.191406 320.550781 C 484.109375 327.71875 484.351562 334.890625 484.089844 342.058594 C 483.890625 347.46875 479.417969 352.320312 474.058594 353 C 470.449219 353.390625 466.820312 353.152344 463.199219 353.199219 C 463.191406 377.589844 463.191406 401.988281 463.191406 426.390625 C 467.441406 426.570312 471.808594 425.890625 475.96875 427 C 480.628906 428.488281 484.089844 433.089844 484.128906 438 C 484.308594 445.011719 484.121094 452.039062 484.199219 459.050781 C 490.078125 459.21875 495.988281 458.761719 501.859375 459.300781 C 507.101562 459.941406 511 464.519531 512 469.519531 L 512 499.679688 C 511.441406 503.46875 509.378906 507.109375 505.980469 509.019531 C 502.070312 511.351562 497.339844 510.621094 493.011719 510.738281 C 422.011719 510.738281 351.011719 510.710938 280.011719 510.75 C 276.679688 510.628906 272.800781 511.300781 270.078125 508.878906 C 268.320312 507.511719 267.730469 505.269531 267.300781 503.199219 C 267.628906 499.261719 270.820312 495.539062 274.988281 495.761719 C 348.988281 495.699219 422.988281 495.738281 496.988281 495.738281 C 497.011719 488.511719 497 481.289062 496.988281 474.058594 C 336.339844 474.070312 175.679688 474.058594 15.03125 474.070312 C 15.019531 481.289062 15.019531 488.511719 15.03125 495.738281 C 90.050781 495.738281 165.058594 495.71875 240.078125 495.75 C 244.328125 495.429688 247.691406 499.160156 248.019531 503.199219 C 247.679688 507.300781 244.269531 510.949219 239.988281 510.699219 C 164.320312 510.769531 88.640625 510.730469 12.960938 510.71875 C 6.539062 511.128906 0.648438 506.058594 0 499.679688 L 0 469.738281 C 0.878906 464.339844 5.328125 459.570312 10.929688 459.199219 C 16.550781 458.859375 22.191406 459.167969 27.828125 459.050781 C 27.898438 452.050781 27.71875 445.039062 27.890625 438.03125 C 27.890625 432.378906 32.519531 427.140625 38.160156 426.550781 C 41.699219 426.230469 45.261719 426.441406 48.808594 426.390625 C 48.800781 401.988281 48.820312 377.589844 48.800781 353.199219 C 44.160156 352.980469 39.238281 353.929688 34.820312 352.109375 C 30.578125 350.191406 27.738281 345.679688 27.859375 341.019531 C 27.769531 334.210938 27.839844 327.402344 27.859375 320.589844 C 22.050781 320.351562 16.21875 320.828125 10.429688 320.328125 C 5.140625 319.75 1.140625 315.25 0 310.238281 L 0 279.601562 C 0.839844 274.160156 5.339844 269.320312 10.988281 269 C 18.558594 268.660156 26.148438 268.980469 33.730469 268.859375 C 33.710938 241.410156 33.75 213.96875 33.710938 186.53125 C 25.488281 188.308594 16.460938 186.53125 9.949219 181.070312 C 4.441406 176.699219 1.191406 170.058594 0 163.21875 L 0 157.640625 C 1 149.019531 5.941406 140.851562 13.578125 136.570312 C 89.230469 92.890625 164.890625 49.210938 240.550781 5.53125 M 252.519531 16.660156 C 251.300781 16.929688 250.128906 17.378906 249.03125 17.960938 C 173.140625 61.769531 97.261719 105.589844 21.359375 149.390625 C 18.199219 151.160156 15.828125 154.308594 15.21875 157.910156 C 14.160156 163.199219 17.160156 168.949219 22.109375 171.089844 C 25.917969 172.917969 30.53125 172.390625 34.050781 170.160156 C 106.601562 128.28125 179.148438 86.417969 251.667969 44.511719 C 254.511719 42.578125 258.269531 42.96875 261.011719 44.878906 C 332.46875 86.121094 403.917969 127.371094 475.359375 168.648438 C 478.058594 170.21875 480.800781 172.039062 484.03125 172.191406 C 489.238281 172.589844 494.460938 169.25 496.199219 164.308594 C 498.351562 158.820312 495.800781 152.128906 490.609375 149.371094 C 415.230469 105.769531 339.761719 62.28125 264.351562 18.710938 C 260.871094 16.480469 256.550781 15.800781 252.519531 16.660156 M 48.75 179.070312 C 48.71875 209 48.710938 238.941406 48.730469 268.878906 C 112.488281 268.890625 176.25 268.851562 240 268.902344 C 244.199219 268.609375 247.648438 272.21875 247.980469 276.261719 C 254.011719 276.21875 260.050781 276.210938 266.089844 276.28125 C 266.402344 272.230469 269.839844 268.601562 274.050781 268.902344 C 337.128906 268.851562 400.210938 268.902344 463.300781 268.878906 C 463.300781 238.910156 463.320312 208.941406 463.269531 178.96875 C 394.128906 139.179688 325.109375 99.167969 255.988281 59.351562 C 186.949219 99.328125 117.800781 139.121094 48.75 179.070312 M 247.988281 276.53125 C 247.640625 280.511719 244.28125 284.089844 240.140625 283.851562 C 165.101562 283.890625 90.070312 283.851562 15.03125 283.871094 C 15.03125 291.089844 15 298.320312 15.050781 305.550781 C 175.710938 305.46875 336.371094 305.628906 497.03125 305.46875 C 496.960938 298.269531 497.019531 291.070312 497 283.871094 C 422.628906 283.851562 348.261719 283.890625 273.890625 283.851562 C 269.761719 284.078125 266.429688 280.5 266.078125 276.539062 C 260.050781 276.449219 254.011719 276.449219 247.988281 276.53125 M 42.839844 320.570312 C 42.859375 326.441406 42.820312 332.320312 42.828125 338.199219 C 73.820312 338.210938 104.820312 338.199219 135.808594 338.199219 C 135.839844 332.320312 135.691406 326.429688 135.761719 320.550781 C 104.789062 320.578125 73.808594 320.550781 42.839844 320.570312 M 150.800781 320.539062 C 150.761719 327.390625 150.851562 334.230469 150.769531 341.078125 C 150.871094 345.96875 147.699219 350.710938 143.101562 352.402344 C 138.839844 353.828125 134.238281 352.96875 129.828125 353.199219 C 129.808594 377.601562 129.820312 401.988281 129.820312 426.390625 C 133.25 426.449219 136.679688 426.269531 140.101562 426.5 C 145.878906 426.917969 150.710938 432.210938 150.75 437.980469 C 150.878906 445 150.75 452.03125 150.800781 459.058594 C 165.378906 459.011719 179.960938 459.191406 194.53125 458.96875 C 194.5 452.011719 194.441406 445.058594 194.539062 438.101562 C 194.558594 433.371094 197.71875 428.871094 202.140625 427.210938 C 206.417969 425.71875 211.050781 426.652344 215.480469 426.402344 C 215.53125 402.011719 215.480469 377.609375 215.511719 353.210938 C 211.988281 353.128906 208.460938 353.359375 204.949219 353.058594 C 199.429688 352.488281 194.761719 347.519531 194.570312 341.96875 C 194.371094 334.828125 194.578125 327.679688 194.480469 320.53125 C 179.917969 320.539062 165.359375 320.519531 150.800781 320.539062 M 209.53125 320.558594 C 209.558594 326.441406 209.46875 332.320312 209.5 338.199219 C 240.5 338.210938 271.5 338.199219 302.5 338.199219 C 302.53125 332.320312 302.429688 326.441406 302.46875 320.558594 L 209.53125 320.558594 M 317.417969 341.949219 C 317.25 346.902344 313.578125 351.378906 308.839844 352.710938 C 304.789062 353.609375 300.601562 353.039062 296.488281 353.210938 C 296.511719 377.609375 296.46875 402.011719 296.511719 426.402344 C 299.960938 426.449219 303.417969 426.261719 306.878906 426.5 C 312.628906 427 317.441406 432.269531 317.449219 438.039062 C 317.660156 445.070312 317.300781 452.101562 317.621094 459.121094 C 332.140625 458.988281 346.667969 459.109375 361.191406 459.058594 C 361.25 452.019531 361.109375 444.980469 361.25 437.949219 C 361.308594 433.199219 364.570312 428.730469 369.03125 427.128906 C 373.269531 425.769531 377.820312 426.640625 382.199219 426.402344 C 382.199219 402 382.21875 377.601562 382.191406 353.199219 C 378.789062 353.152344 375.378906 353.328125 371.988281 353.089844 C 366.371094 352.699219 361.539062 347.730469 361.28125 342.109375 C 361.070312 334.917969 361.269531 327.730469 361.199219 320.539062 C 346.628906 320.519531 332.070312 320.539062 317.511719 320.53125 C 317.417969 327.667969 317.621094 334.808594 317.417969 341.949219 M 376.238281 320.558594 C 376.308594 326.429688 376.160156 332.308594 376.191406 338.199219 C 407.191406 338.210938 438.191406 338.199219 469.191406 338.199219 C 469.210938 332.320312 469.167969 326.441406 469.179688 320.570312 C 438.199219 320.550781 407.21875 320.570312 376.238281 320.558594 M 63.820312 353.199219 C 63.800781 358.75 63.808594 364.300781 63.808594 369.851562 C 63.808594 388.699219 63.800781 407.550781 63.808594 426.402344 C 80.820312 426.402344 97.820312 426.410156 114.828125 426.390625 C 114.820312 407.550781 114.820312 388.71875 114.828125 369.878906 C 114.820312 364.320312 114.828125 358.761719 114.820312 353.199219 L 63.820312 353.199219 M 230.511719 353.191406 C 230.488281 358.730469 230.511719 364.269531 230.5 369.820312 C 230.5 388.679688 230.488281 407.539062 230.511719 426.402344 L 281.488281 426.402344 C 281.5 407.53125 281.488281 388.660156 281.488281 369.789062 C 281.488281 364.261719 281.511719 358.730469 281.480469 353.199219 C 264.488281 353.199219 247.5 353.210938 230.511719 353.191406 M 397.210938 353.199219 C 397.199219 358.75 397.210938 364.308594 397.199219 369.859375 C 397.199219 388.710938 397.210938 407.550781 397.199219 426.390625 C 414.199219 426.410156 431.191406 426.402344 448.191406 426.390625 L 448.191406 369.828125 C 448.191406 364.289062 448.199219 358.738281 448.179688 353.199219 L 397.210938 353.199219 M 42.851562 441.390625 C 42.808594 447.28125 42.828125 453.167969 42.828125 459.070312 L 135.800781 459.070312 C 135.800781 453.167969 135.808594 447.28125 135.800781 441.390625 C 104.820312 441.390625 73.828125 441.402344 42.851562 441.390625 M 209.488281 441.410156 C 209.5 447.289062 209.488281 453.179688 209.5 459.058594 C 240.5 459.070312 271.5 459.070312 302.5 459.058594 C 302.511719 453.179688 302.5 447.289062 302.511719 441.410156 C 271.5 441.378906 240.5 441.378906 209.488281 441.410156 M 376.199219 441.390625 C 376.179688 447.28125 376.191406 453.167969 376.191406 459.070312 C 407.191406 459.070312 438.191406 459.070312 469.191406 459.058594 C 469.210938 453.191406 469.160156 447.320312 469.230469 441.449219 C 438.21875 441.308594 407.210938 441.429688 376.199219 441.390625 "/>
<path style="fill:none;stroke-width:0.094;stroke-linecap:butt;stroke-linejoin:miter;stroke:rgb(0%,0%,0%);stroke-opacity:1;stroke-miterlimit:10;" d="M 0.00098125 -0.00145 C 9.090825 5.5298 21.161138 5.588394 30.379888 0.338394 C 106.020513 -43.329575 181.66895 -86.989731 257.309575 -130.681137 C 265.211919 -134.93895 270.379887 -143.231919 271.4502 -152.071762 L 271.4502 -157.481919 C 270.352544 -164.161606 267.309575 -170.661606 262.059575 -175.079575 C 255.520513 -180.860825 246.211919 -182.841294 237.758794 -181.009262 C 237.73145 -208.450669 237.750981 -235.888169 237.750981 -263.329575 C 245.340825 -263.450669 252.938481 -263.130356 260.520512 -263.481919 C 266.102544 -263.821762 270.528325 -268.560044 271.4502 -273.919419 L 271.4502 -304.528794 C 270.461919 -309.591294 266.469731 -314.122544 261.211919 -314.770981 C 255.368169 -315.298325 249.489263 -314.849106 243.641606 -315.020981 C 243.559575 -322.18895 243.801763 -329.360825 243.540044 -336.528794 C 243.340825 -341.93895 238.868169 -346.790512 233.508794 -347.4702 C 229.899419 -347.860825 226.270513 -347.622544 222.649419 -347.669419 C 222.641606 -372.060044 222.641606 -396.458481 222.641606 -420.860825 C 226.891606 -421.040512 231.258794 -420.360825 235.41895 -421.4702 C 240.079106 -422.958481 243.540044 -427.560044 243.579106 -432.4702 C 243.758794 -439.481919 243.571294 -446.509262 243.649419 -453.520981 C 249.528325 -453.68895 255.438481 -453.231919 261.309575 -453.770981 C 266.551762 -454.411606 270.4502 -458.989731 271.4502 -463.989731 L 271.4502 -494.149887 C 270.891606 -497.93895 268.829106 -501.579575 265.430669 -503.489731 C 261.520512 -505.821762 256.790044 -505.091294 252.461919 -505.208481 C 181.461919 -505.208481 110.461919 -505.181137 39.461919 -505.2202 C 36.129888 -505.099106 32.250981 -505.770981 29.528325 -503.349106 C 27.770513 -501.981919 27.180669 -499.739731 26.750981 -497.669419 C 27.079106 -493.731919 30.270513 -490.009262 34.438481 -490.231919 C 108.438481 -490.169419 182.438481 -490.208481 256.438481 -490.208481 C 256.461919 -482.981919 256.4502 -475.759262 256.438481 -468.528794 C 95.790044 -468.540512 -64.870112 -468.528794 -225.51855 -468.540512 C -225.530269 -475.759262 -225.530269 -482.981919 -225.51855 -490.208481 C -150.499019 -490.208481 -75.491206 -490.18895 -0.471675 -490.2202 C 3.778325 -489.899887 7.141606 -493.630356 7.469731 -497.669419 C 7.129888 -501.770981 3.719731 -505.419419 -0.561519 -505.169419 C -76.229487 -505.239731 -151.909175 -505.200669 -227.588862 -505.18895 C -234.010737 -505.599106 -239.901362 -500.528794 -240.5498 -494.149887 L -240.5498 -464.208481 C -239.670894 -458.810044 -235.221675 -454.040512 -229.620112 -453.669419 C -223.999019 -453.329575 -218.358394 -453.638169 -212.721675 -453.520981 C -212.651362 -446.520981 -212.83105 -439.509262 -212.659175 -432.50145 C -212.659175 -426.849106 -208.030269 -421.610825 -202.389644 -421.020981 C -198.850581 -420.700669 -195.288081 -420.911606 -191.741206 -420.860825 C -191.749019 -396.458481 -191.729487 -372.060044 -191.749019 -347.669419 C -196.389644 -347.450669 -201.311519 -348.399887 -205.729487 -346.579575 C -209.971675 -344.661606 -212.811519 -340.149887 -212.690425 -335.489731 C -212.780269 -328.681137 -212.709956 -321.872544 -212.690425 -315.060044 C -218.499019 -314.821762 -224.33105 -315.298325 -230.120112 -314.798325 C -235.409175 -314.2202 -239.409175 -309.7202 -240.5498 -304.708481 L -240.5498 -274.071762 C -239.709956 -268.630356 -235.209956 -263.790512 -229.561519 -263.4702 C -221.991206 -263.130356 -214.401362 -263.450669 -206.819331 -263.329575 C -206.838862 -235.880356 -206.7998 -208.43895 -206.838862 -181.00145 C -215.061519 -182.778794 -224.088862 -181.00145 -230.600581 -175.540512 C -236.108394 -171.169419 -239.358394 -164.528794 -240.5498 -157.68895 L -240.5498 -152.110825 C -239.5498 -143.489731 -234.608394 -135.321762 -226.971675 -131.040512 C -151.319331 -87.360825 -75.659175 -43.681137 0.00098125 -0.00145 M 11.969731 -11.130356 C 10.750981 -11.399887 9.579106 -11.849106 8.48145 -12.431137 C -67.409175 -56.239731 -143.288081 -100.060044 -219.190425 -143.860825 C -222.350581 -145.630356 -224.721675 -148.778794 -225.33105 -152.380356 C -226.389644 -157.669419 -223.389644 -163.419419 -218.440425 -165.560044 C -214.631831 -167.388169 -210.01855 -166.860825 -206.499019 -164.630356 C -133.948237 -122.75145 -61.401362 -80.888169 11.118169 -38.981919 C 13.961919 -37.048325 17.719731 -37.43895 20.461919 -39.349106 C 91.91895 -80.591294 163.368169 -121.841294 234.809575 -163.118637 C 237.508794 -164.68895 240.250981 -166.509262 243.48145 -166.661606 C 248.688481 -167.060044 253.911138 -163.7202 255.649419 -158.778794 C 257.801762 -153.290512 255.250981 -146.599106 250.059575 -143.841294 C 174.680669 -100.239731 99.211919 -56.75145 23.801763 -13.181137 C 20.321294 -10.950669 16.000981 -10.270981 11.969731 -11.130356 M -191.7998 -173.540512 C -191.83105 -203.4702 -191.838862 -233.411606 -191.819331 -263.349106 C -128.061519 -263.360825 -64.2998 -263.321762 -0.5498 -263.372544 C 3.649419 -263.079575 7.098638 -266.68895 7.430669 -270.731919 C 13.461919 -270.68895 19.500981 -270.681137 25.540044 -270.75145 C 25.852544 -266.700669 29.290044 -263.071762 33.500981 -263.372544 C 96.579106 -263.321762 159.661138 -263.372544 222.750981 -263.349106 C 222.750981 -233.380356 222.770513 -203.411606 222.719731 -173.43895 C 153.579106 -133.649887 84.559575 -93.638169 15.438481 -53.821762 C -53.600581 -93.798325 -122.749019 -133.591294 -191.7998 -173.540512 M 7.438481 -271.00145 C 7.090825 -274.981919 3.73145 -278.560044 -0.409175 -278.321762 C -75.448237 -278.360825 -150.479487 -278.321762 -225.51855 -278.341294 C -225.51855 -285.560044 -225.5498 -292.790512 -225.499019 -300.020981 C -64.838862 -299.93895 95.821294 -300.099106 256.48145 -299.93895 C 256.411137 -292.739731 256.469731 -285.540512 256.4502 -278.341294 C 182.079106 -278.321762 107.711919 -278.360825 33.340825 -278.321762 C 29.211919 -278.548325 25.879888 -274.9702 25.528325 -271.009262 C 19.500981 -270.919419 13.461919 -270.919419 7.438481 -271.00145 M -197.709956 -315.040512 C -197.690425 -320.911606 -197.729487 -326.790512 -197.721675 -332.669419 C -166.729487 -332.681137 -135.729487 -332.669419 -104.741206 -332.669419 C -104.709956 -326.790512 -104.858394 -320.899887 -104.788081 -315.020981 C -135.760737 -315.048325 -166.741206 -315.020981 -197.709956 -315.040512 M -89.749019 -315.009262 C -89.788081 -321.860825 -89.698237 -328.700669 -89.780269 -335.548325 C -89.678706 -340.43895 -92.850581 -345.181137 -97.448237 -346.872544 C -101.709956 -348.298325 -106.311519 -347.43895 -110.721675 -347.669419 C -110.741206 -372.071762 -110.729487 -396.458481 -110.729487 -420.860825 C -107.2998 -420.919419 -103.870112 -420.739731 -100.448237 -420.9702 C -94.670894 -421.388169 -89.838862 -426.681137 -89.7998 -432.450669 C -89.670894 -439.4702 -89.7998 -446.50145 -89.749019 -453.528794 C -75.170894 -453.481919 -60.588862 -453.661606 -46.01855 -453.43895 C -46.0498 -446.481919 -46.108394 -439.528794 -46.010737 -432.571762 C -45.991206 -427.841294 -42.83105 -423.341294 -38.409175 -421.681137 C -34.131831 -420.18895 -29.499019 -421.122544 -25.069331 -420.872544 C -25.01855 -396.481919 -25.069331 -372.079575 -25.038081 -347.681137 C -28.561519 -347.599106 -32.088862 -347.829575 -35.600581 -347.528794 C -41.120112 -346.958481 -45.788081 -341.989731 -45.979487 -336.43895 C -46.178706 -329.298325 -45.971675 -322.149887 -46.069331 -315.00145 C -60.631831 -315.009262 -75.190425 -314.989731 -89.749019 -315.009262 M -31.01855 -315.028794 C -30.991206 -320.911606 -31.08105 -326.790512 -31.0498 -332.669419 C -0.0498 -332.681137 30.9502 -332.669419 61.9502 -332.669419 C 61.98145 -326.790512 61.879888 -320.911606 61.91895 -315.028794 L -31.01855 -315.028794 M 76.868169 -336.419419 C 76.7002 -341.372544 73.028325 -345.849106 68.290044 -347.181137 C 64.239263 -348.079575 60.051763 -347.509262 55.938481 -347.681137 C 55.961919 -372.079575 55.91895 -396.481919 55.961919 -420.872544 C 59.411138 -420.919419 62.868169 -420.731919 66.329106 -420.9702 C 72.079106 -421.4702 76.891606 -426.739731 76.899419 -432.509262 C 77.110356 -439.540512 76.750981 -446.571762 77.071294 -453.591294 C 91.590825 -453.458481 106.118169 -453.579575 120.641606 -453.528794 C 120.7002 -446.489731 120.559575 -439.450669 120.7002 -432.419419 C 120.758794 -427.669419 124.020513 -423.200669 128.48145 -421.599106 C 132.719731 -420.239731 137.270513 -421.110825 141.649419 -420.872544 C 141.649419 -396.4702 141.66895 -372.071762 141.641606 -347.669419 C 138.239263 -347.622544 134.829106 -347.798325 131.438481 -347.560044 C 125.821294 -347.169419 120.989263 -342.200669 120.73145 -336.579575 C 120.520513 -329.388169 120.719731 -322.200669 120.649419 -315.009262 C 106.079106 -314.989731 91.520513 -315.009262 76.961919 -315.00145 C 76.868169 -322.138169 77.071294 -329.278794 76.868169 -336.419419 M 135.688481 -315.028794 C 135.758794 -320.899887 135.610356 -326.778794 135.641606 -332.669419 C 166.641606 -332.681137 197.641606 -332.669419 228.641606 -332.669419 C 228.661138 -326.790512 228.618169 -320.911606 228.629888 -315.040512 C 197.649419 -315.020981 166.66895 -315.040512 135.688481 -315.028794 M -176.729487 -347.669419 C -176.749019 -353.2202 -176.741206 -358.770981 -176.741206 -364.321762 C -176.741206 -383.169419 -176.749019 -402.020981 -176.741206 -420.872544 C -159.729487 -420.872544 -142.729487 -420.880356 -125.721675 -420.860825 C -125.729487 -402.020981 -125.729487 -383.18895 -125.721675 -364.349106 C -125.729487 -358.790512 -125.721675 -353.231919 -125.729487 -347.669419 L -176.729487 -347.669419 M -10.038081 -347.661606 C -10.061519 -353.200669 -10.038081 -358.739731 -10.0498 -364.290512 C -10.0498 -383.149887 -10.061519 -402.009262 -10.038081 -420.872544 L 40.938481 -420.872544 C 40.9502 -402.00145 40.938481 -383.130356 40.938481 -364.259262 C 40.938481 -358.731919 40.961919 -353.200669 40.930669 -347.669419 C 23.938481 -347.669419 6.9502 -347.681137 -10.038081 -347.661606 M 156.661138 -347.669419 C 156.649419 -353.2202 156.661138 -358.778794 156.649419 -364.329575 C 156.649419 -383.181137 156.661138 -402.020981 156.649419 -420.860825 C 173.649419 -420.880356 190.641606 -420.872544 207.641606 -420.860825 L 207.641606 -364.298325 C 207.641606 -358.759262 207.649419 -353.208481 207.629888 -347.669419 L 156.661138 -347.669419 M -197.698237 -435.860825 C -197.741206 -441.75145 -197.721675 -447.638169 -197.721675 -453.540512 L -104.749019 -453.540512 C -104.749019 -447.638169 -104.741206 -441.75145 -104.749019 -435.860825 C -135.729487 -435.860825 -166.721675 -435.872544 -197.698237 -435.860825 M -31.061519 -435.880356 C -31.0498 -441.759262 -31.061519 -447.649887 -31.0498 -453.528794 C -0.0498 -453.540512 30.9502 -453.540512 61.9502 -453.528794 C 61.961919 -447.649887 61.9502 -441.759262 61.961919 -435.880356 C 30.9502 -435.849106 -0.0498 -435.849106 -31.061519 -435.880356 M 135.649419 -435.860825 C 135.629888 -441.75145 135.641606 -447.638169 135.641606 -453.540512 C 166.641606 -453.540512 197.641606 -453.540512 228.641606 -453.528794 C 228.661138 -447.661606 228.610356 -441.790512 228.680669 -435.919419 C 197.66895 -435.778794 166.661138 -435.899887 135.649419 -435.860825 Z M 135.649419 -435.860825 " transform="matrix(1,0,0,-1,240.5498,5.5298)"/>
<path style=" stroke:none;fill-rule:nonzero;fill:rgb(62.399292%,83.099365%,99.598694%);fill-opacity:1;" d="M 252.519531 16.660156 C 256.550781 15.800781 260.871094 16.480469 264.351562 18.710938 C 339.761719 62.28125 415.230469 105.769531 490.609375 149.371094 C 495.800781 152.128906 498.351562 158.820312 496.199219 164.308594 C 494.460938 169.25 489.238281 172.589844 484.03125 172.191406 C 480.800781 172.039062 478.058594 170.21875 475.359375 168.648438 C 403.921875 127.371094 332.46875 86.121094 261.011719 44.878906 C 258.269531 42.96875 254.511719 42.582031 251.671875 44.511719 C 179.148438 86.421875 106.601562 128.28125 34.050781 170.160156 C 30.53125 172.390625 25.921875 172.921875 22.109375 171.089844 C 17.160156 168.949219 14.160156 163.199219 15.21875 157.910156 C 15.828125 154.308594 18.199219 151.160156 21.359375 149.390625 C 97.261719 105.589844 173.140625 61.769531 249.03125 17.960938 C 250.128906 17.378906 251.300781 16.929688 252.519531 16.660156 "/>
<path style="fill:none;stroke-width:0.094;stroke-linecap:butt;stroke-linejoin:miter;stroke:rgb(62.399292%,83.099365%,99.598694%);stroke-opacity:1;stroke-miterlimit:10;" d="M -0.00046875 0.00004375 C 4.030781 0.859419 8.351094 0.179731 11.831562 -2.050738 C 87.241719 -45.62105 162.710469 -89.109331 238.089375 -132.710894 C 243.280781 -135.468706 245.831562 -142.160113 243.679219 -147.648394 C 241.940937 -152.5898 236.718281 -155.929644 231.51125 -155.531206 C 228.280781 -155.378863 225.538594 -153.55855 222.839375 -151.988238 C 151.401875 -110.710894 79.94875 -69.460894 8.491719 -28.218706 C 5.749531 -26.30855 1.991719 -25.921831 -0.848125 -27.851519 C -73.371563 -69.761675 -145.918438 -111.62105 -218.469219 -153.499956 C -221.98875 -155.730425 -226.598125 -156.261675 -230.410625 -154.429644 C -235.359844 -152.289019 -238.359844 -146.539019 -237.30125 -141.249956 C -236.691875 -137.648394 -234.320781 -134.499956 -231.160625 -132.730425 C -155.258281 -88.929644 -79.379375 -45.109331 -3.48875 -1.300738 C -2.391094 -0.718706 -1.219219 -0.269488 -0.00046875 0.00004375 Z M -0.00046875 0.00004375 " transform="matrix(1,0,0,-1,252.52,16.6602)"/>
<path style="fill:none;stroke-width:0.094;stroke-linecap:butt;stroke-linejoin:miter;stroke:rgb(91.398621%,90.59906%,91.398621%);stroke-opacity:1;stroke-miterlimit:10;" d="M 0 -0.0005125 C 69.050781 39.948706 138.199219 79.741675 207.238281 119.718238 C 276.359375 79.901831 345.378906 39.890113 414.519531 0.10105 C 414.570312 -29.871606 414.550781 -59.840356 414.550781 -89.809106 C 351.460938 -89.832544 288.378906 -89.781762 225.300781 -89.832544 C 221.089844 -89.531762 217.648438 -93.160669 217.339844 -97.21145 C 211.300781 -97.141137 205.261719 -97.14895 199.230469 -97.191919 C 198.898438 -93.14895 195.449219 -89.539575 191.25 -89.832544 C 127.5 -89.781762 63.738281 -89.820825 -0.0195312 -89.809106 C -0.0390625 -59.871606 -0.03125 -29.9302 0 -0.0005125 M 199.761719 90.358863 C 193.25 88.499488 187.371094 84.511206 183.289062 79.10105 C 174.300781 67.741675 174.871094 50.179175 184.601562 39.440894 C 194.179688 27.940894 212.328125 25.140113 224.898438 33.300269 C 238.078125 41.108863 243.671875 59.140113 237.050781 72.991675 C 231.089844 86.921363 214.28125 94.808081 199.761719 90.358863 M 74.761719 -1.871606 C 74.71875 -20.910669 74.75 -39.96145 74.738281 -59.008325 C 74.570312 -61.738794 75.738281 -64.570825 78.101562 -66.070825 C 80.769531 -67.910669 84.160156 -67.191919 87.199219 -67.328637 C 93.851562 -67.129419 100.578125 -67.781762 107.179688 -66.699731 C 116.480469 -64.71145 123.988281 -56.469262 125.070312 -47.008325 C 126.171875 -39.21145 122.789062 -31.219262 116.839844 -26.168481 C 119.878906 -21.020044 120.980469 -14.629419 119.101562 -8.879419 C 116.761719 -0.941919 109.300781 5.151831 101.039062 5.780738 C 94.761719 5.968238 88.480469 5.85105 82.199219 5.85105 C 78.101562 5.979956 74.519531 2.210425 74.761719 -1.871606 M 160.578125 -0.500512 C 153.449219 -19.270044 146.28125 -38.031762 139.148438 -56.789575 C 137.890625 -59.64895 138.558594 -63.191919 140.890625 -65.309106 C 144.050781 -68.46145 149.910156 -67.770044 152.230469 -63.949731 C 154.039062 -60.480981 155.109375 -56.6802 156.589844 -53.070825 C 164.859375 -53.020044 173.128906 -53.059106 181.398438 -53.051294 C 183.800781 -57.699731 183.910156 -64.570825 189.351562 -66.859887 C 195.03125 -69.340356 201.488281 -62.871606 198.960938 -57.199731 C 191.800781 -38.070825 184.570312 -18.969262 177.339844 0.120581 C 176.039062 3.8198 172.101562 6.300269 168.210938 5.839331 C 164.648438 5.550269 161.609375 2.870581 160.578125 -0.500512 M 220.699219 5.519019 C 217.410156 4.729956 214.949219 1.491675 215.121094 -1.910669 C 215.070312 -20.918481 215.109375 -39.941919 215.101562 -58.96145 C 214.710938 -62.781762 217.441406 -66.660669 221.308594 -67.21145 C 225.621094 -68.121606 230.101562 -64.4302 230.039062 -60.031762 C 230.160156 -48.621606 230.03125 -37.21145 230.101562 -25.801294 C 238.609375 -38.059106 247.058594 -50.371606 255.558594 -62.629419 C 257.46875 -65.668481 261.320312 -67.469262 264.839844 -66.379419 C 268.488281 -65.410669 270.929688 -61.699731 270.859375 -58.000512 C 270.78125 -39.969262 270.488281 -21.9302 270.378906 -3.89895 C 270.621094 -0.660669 269.828125 3.019019 266.789062 4.749488 C 262.398438 7.761206 255.671875 4.448706 255.429688 -0.879419 C 255.328125 -12.719262 255.660156 -24.578637 255.691406 -36.4302 C 246.800781 -23.609887 237.960938 -10.770044 229.089844 2.050269 C 227.398438 4.85105 223.890625 6.448706 220.699219 5.519019 M 292.71875 -0.910669 C 292.648438 -20.281762 292.710938 -39.64895 292.691406 -59.031762 C 292.378906 -62.570825 294.691406 -66.1802 298.199219 -67.051294 C 302.351562 -68.359887 307.148438 -65.199731 307.558594 -60.859887 C 307.851562 -55.539575 307.589844 -50.199731 307.679688 -44.871606 C 314.800781 -51.641137 321.769531 -58.578637 328.921875 -65.320825 C 331.710938 -68.070825 336.660156 -67.949731 339.328125 -65.090356 C 342.300781 -62.230981 342.101562 -57.000512 339.019531 -54.301294 C 330.410156 -45.859887 321.621094 -37.598169 313.039062 -29.121606 C 320.96875 -21.910669 328.839844 -14.641137 336.71875 -7.371606 C 339.210938 -5.250512 340.128906 -1.508325 338.710938 1.468238 C 336.941406 5.761206 330.859375 7.308081 327.320312 4.249488 C 320.691406 -1.629419 314.261719 -7.750512 307.691406 -13.699731 C 307.589844 -9.109887 307.839844 -4.508325 307.570312 0.0815188 C 307.210938 4.011206 303.25 7.089331 299.351562 6.550269 C 295.648438 6.229956 292.621094 2.800269 292.71875 -0.910669 Z M 292.71875 -0.910669 " transform="matrix(1,0,0,-1,48.75,179.0698)"/>
<path style=" stroke:none;fill-rule:nonzero;fill:rgb(0%,0%,0%);fill-opacity:1;" d="M 248.511719 88.710938 C 263.03125 84.261719 279.839844 92.148438 285.800781 106.078125 C 292.417969 119.929688 286.828125 137.960938 273.652344 145.769531 C 261.078125 153.929688 242.929688 151.128906 233.351562 139.628906 C 223.621094 128.890625 223.050781 111.328125 232.039062 99.96875 C 236.121094 94.558594 242 90.570312 248.511719 88.710938 M 240.601562 117.25 C 239.539062 126.609375 247.519531 135.71875 257 135.5 C 266.199219 135.800781 274.128906 127.328125 273.667969 118.21875 C 273.269531 109.320312 264.980469 101.699219 256.019531 102.539062 C 248.160156 102.871094 241.488281 109.53125 240.601562 117.25 "/>
<path style="fill:none;stroke-width:0.094;stroke-linecap:butt;stroke-linejoin:miter;stroke:rgb(0%,0%,0%);stroke-opacity:1;stroke-miterlimit:10;" d="M 0.00191875 -0.0009375 C 14.52145 4.448281 31.330044 -3.438437 37.290981 -17.368125 C 43.908169 -31.219687 38.318325 -49.250937 25.142544 -57.059531 C 12.568325 -65.219687 -5.580112 -62.418906 -15.158237 -50.918906 C -24.888706 -40.180625 -25.459019 -22.618125 -16.470737 -11.25875 C -12.388706 -5.848594 -6.5098 -1.860312 0.00191875 -0.0009375 M -7.908237 -28.54 C -8.970737 -37.899375 -0.990269 -47.00875 8.4902 -46.79 C 17.689419 -47.090781 25.619106 -38.618125 25.158169 -29.50875 C 24.759731 -20.610312 16.470669 -12.989219 7.509731 -13.829062 C -0.349644 -14.161094 -7.021519 -20.82125 -7.908237 -28.54 Z M -7.908237 -28.54 " transform="matrix(1,0,0,-1,248.5098,88.71)"/>
<path style=" stroke:none;fill-rule:nonzero;fill:rgb(100%,76.098633%,41.19873%);fill-opacity:1;" d="M 240.601562 117.25 C 241.488281 109.53125 248.160156 102.871094 256.019531 102.539062 C 264.980469 101.699219 273.269531 109.320312 273.671875 118.21875 C 268.730469 114.828125 263.179688 111.789062 257.011719 111.828125 C 251.03125 111.511719 245.671875 114.488281 240.601562 117.25 "/>
<path style="fill:none;stroke-width:0.094;stroke-linecap:butt;stroke-linejoin:miter;stroke:rgb(100%,76.098633%,41.19873%);stroke-opacity:1;stroke-miterlimit:10;" d="M 0.0014625 0 C 0.888181 7.71875 7.560056 14.378906 15.419431 14.710938 C 24.380369 15.550781 32.669431 7.929688 33.071775 -0.96875 C 28.130369 2.421875 22.579588 5.460938 16.411619 5.421875 C 10.43115 5.738281 5.071775 2.761719 0.0014625 0 Z M 0.0014625 0 " transform="matrix(1,0,0,-1,240.6001,117.25)"/>
<path style=" stroke:none;fill-rule:nonzero;fill:rgb(100%,87.799072%,48.999023%);fill-opacity:1;" d="M 240.601562 117.25 C 245.671875 114.488281 251.03125 111.511719 257.011719 111.828125 C 263.179688 111.789062 268.730469 114.828125 273.671875 118.21875 C 274.128906 127.328125 266.199219 135.800781 257 135.5 C 247.519531 135.71875 239.539062 126.609375 240.601562 117.25 "/>
<path style="fill:none;stroke-width:0.094;stroke-linecap:butt;stroke-linejoin:miter;stroke:rgb(100%,87.799072%,48.999023%);stroke-opacity:1;stroke-miterlimit:10;" d="M 0.0014625 0 C 5.071775 2.761719 10.43115 5.738281 16.411619 5.421875 C 22.579588 5.460938 28.130369 2.421875 33.071775 -0.96875 C 33.528806 -10.078125 25.599119 -18.550781 16.3999 -18.25 C 6.919431 -18.46875 -1.061037 -9.359375 0.0014625 0 Z M 0.0014625 0 " transform="matrix(1,0,0,-1,240.6001,117.25)"/>
<path style=" stroke:none;fill-rule:nonzero;fill:rgb(0%,0%,0%);fill-opacity:1;" d="M 123.511719 180.941406 C 123.269531 176.859375 126.851562 173.089844 130.949219 173.21875 C 137.230469 173.21875 143.511719 173.101562 149.789062 173.289062 C 158.050781 173.917969 165.511719 180.011719 167.851562 187.949219 C 169.730469 193.699219 168.628906 200.089844 165.589844 205.238281 C 171.539062 210.289062 174.917969 218.28125 173.820312 226.078125 C 172.738281 235.539062 165.230469 243.78125 155.929688 245.769531 C 149.328125 246.851562 142.601562 246.199219 135.949219 246.398438 C 132.910156 246.261719 129.519531 246.980469 126.851562 245.140625 C 124.488281 243.640625 123.320312 240.808594 123.488281 238.078125 C 123.5 219.03125 123.46875 199.980469 123.511719 180.941406 M 138.46875 188.199219 C 138.46875 192.121094 138.488281 196.039062 138.449219 199.960938 C 142.449219 199.761719 146.660156 200.648438 150.519531 199.359375 C 155.230469 197.320312 154.589844 189.660156 149.601562 188.429688 C 145.929688 187.890625 142.179688 188.308594 138.46875 188.199219 M 138.480469 215 C 138.46875 220.46875 138.46875 225.929688 138.480469 231.398438 C 142.96875 231.371094 147.46875 231.488281 151.960938 231.230469 C 156.351562 230.800781 159.699219 226.25 158.929688 221.917969 C 158.390625 218.128906 154.890625 215 151.03125 215.03125 C 146.851562 214.917969 142.660156 215.039062 138.480469 215 "/>
<path style="fill:none;stroke-width:0.094;stroke-linecap:butt;stroke-linejoin:miter;stroke:rgb(0%,0%,0%);stroke-opacity:1;stroke-miterlimit:10;" d="M 0.00191875 -0.00150625 C -0.240269 4.080525 3.341763 7.850056 7.439419 7.72115 C 13.720669 7.72115 20.001919 7.838338 26.279263 7.650838 C 34.540981 7.021931 42.001919 0.928181 44.341763 -7.009319 C 46.220669 -12.759319 45.119106 -19.149944 42.080044 -24.298381 C 48.029263 -29.349162 51.408169 -37.34135 50.310513 -45.138225 C 49.228481 -54.599162 41.720669 -62.84135 32.419888 -64.829631 C 25.818325 -65.911662 19.091763 -65.259319 12.439419 -65.458537 C 9.400356 -65.321819 6.009731 -66.040569 3.341763 -64.200725 C 0.978481 -62.700725 -0.189487 -59.868694 -0.0215187 -57.138225 C -0.0098 -38.09135 -0.04105 -19.040569 0.00191875 -0.00150625 M 14.95895 -7.259319 C 14.95895 -11.181194 14.978481 -15.099162 14.939419 -19.021037 C 18.939419 -18.821819 23.150356 -19.708537 27.009731 -18.419475 C 31.720669 -16.380412 31.080044 -8.720256 26.091763 -7.489787 C 22.419888 -6.950725 18.669888 -7.368694 14.95895 -7.259319 M 14.970669 -34.0601 C 14.95895 -39.52885 14.95895 -44.989787 14.970669 -50.458537 C 19.45895 -50.431194 23.95895 -50.548381 28.451138 -50.290569 C 32.841763 -49.860881 36.189419 -45.3101 35.419888 -40.978069 C 34.880825 -37.189006 31.380825 -34.0601 27.52145 -34.09135 C 23.341763 -33.978069 19.150356 -34.099162 14.970669 -34.0601 Z M 14.970669 -34.0601 " transform="matrix(1,0,0,-1,123.5098,180.9399)"/>
<path style=" stroke:none;fill-rule:nonzero;fill:rgb(0%,0%,0%);fill-opacity:1;" d="M 209.332031 179.570312 C 210.359375 176.199219 213.398438 173.519531 216.960938 173.230469 C 220.851562 172.769531 224.789062 175.25 226.089844 178.949219 C 233.320312 198.039062 240.550781 217.140625 247.710938 236.269531 C 250.238281 241.941406 243.78125 248.410156 238.101562 245.929688 C 232.660156 243.640625 232.550781 236.769531 230.148438 232.121094 C 221.878906 232.128906 213.609375 232.089844 205.339844 232.140625 C 203.859375 235.75 202.789062 239.550781 200.980469 243.019531 C 198.660156 246.839844 192.800781 247.53125 189.640625 244.378906 C 187.308594 242.261719 186.640625 238.71875 187.898438 235.859375 C 195.03125 217.101562 202.199219 198.339844 209.332031 179.570312 M 217.699219 199.738281 C 215.46875 205.53125 213.25 211.320312 211.101562 217.128906 C 215.558594 217.128906 220.019531 217.140625 224.488281 217.128906 C 222.179688 211.351562 220.351562 205.371094 217.699219 199.738281 "/>
<path style="fill:none;stroke-width:0.094;stroke-linecap:butt;stroke-linejoin:miter;stroke:rgb(0%,0%,0%);stroke-opacity:1;stroke-miterlimit:10;" d="M 0.00193125 -0.0005125 C 1.029275 3.370581 4.068337 6.050269 7.630837 6.339331 C 11.521462 6.800269 15.458962 4.3198 16.759744 0.620581 C 23.990212 -18.469262 31.220681 -37.570825 38.380837 -56.699731 C 40.908181 -62.371606 34.45115 -68.840356 28.771462 -66.359887 C 23.330056 -64.070825 23.220681 -57.199731 20.818337 -52.551294 C 12.548806 -52.559106 4.279275 -52.520044 -3.990256 -52.570825 C -5.470725 -56.1802 -6.541038 -59.980981 -8.349631 -63.449731 C -10.669944 -67.270044 -16.529319 -67.96145 -19.689475 -64.809106 C -22.021506 -62.691919 -22.689475 -59.14895 -21.431663 -56.289575 C -14.29885 -37.531762 -7.130881 -18.770044 0.00193125 -0.0005125 M 8.369119 -20.168481 C 6.13865 -25.96145 3.9199 -31.750512 1.771462 -37.559106 C 6.228494 -37.559106 10.689431 -37.570825 15.158181 -37.559106 C 12.849587 -31.781762 11.021462 -25.801294 8.369119 -20.168481 Z M 8.369119 -20.168481 " transform="matrix(1,0,0,-1,209.3301,179.5698)"/>
<path style=" stroke:none;fill-rule:nonzero;fill:rgb(0%,0%,0%);fill-opacity:1;" d="M 269.449219 173.550781 C 272.640625 172.621094 276.148438 174.21875 277.839844 177.019531 C 286.710938 189.839844 295.550781 202.679688 304.441406 215.5 C 304.410156 203.648438 304.082031 191.789062 304.179688 179.949219 C 304.421875 174.621094 311.148438 171.308594 315.539062 174.320312 C 318.582031 176.050781 319.371094 179.730469 319.128906 182.96875 C 319.238281 201 319.53125 219.039062 319.609375 237.070312 C 319.679688 240.769531 317.238281 244.480469 313.589844 245.449219 C 310.070312 246.539062 306.21875 244.738281 304.308594 241.699219 C 295.808594 229.441406 287.359375 217.128906 278.847656 204.871094 C 278.78125 216.28125 278.910156 227.691406 278.789062 239.101562 C 278.847656 243.5 274.371094 247.191406 270.058594 246.28125 C 266.191406 245.730469 263.460938 241.851562 263.847656 238.03125 C 263.859375 219.011719 263.820312 199.988281 263.871094 180.980469 C 263.699219 177.578125 266.160156 174.339844 269.449219 173.550781 "/>
<path style="fill:none;stroke-width:0.094;stroke-linecap:butt;stroke-linejoin:miter;stroke:rgb(0%,0%,0%);stroke-opacity:1;stroke-miterlimit:10;" d="M -0.00098125 -0.00098125 C 3.190425 0.928706 6.698238 -0.66895 8.389644 -3.469731 C 17.260738 -16.290044 26.100581 -29.129887 34.991206 -41.9502 C 34.959956 -30.098637 34.631831 -18.239262 34.729488 -6.399419 C 34.971675 -1.071294 41.698238 2.241206 46.088863 -0.770512 C 49.131831 -2.500981 49.920894 -6.180669 49.678706 -9.41895 C 49.788081 -27.4502 50.08105 -45.489262 50.159175 -63.520512 C 50.229488 -67.219731 47.788081 -70.930669 44.139644 -71.899419 C 40.620113 -72.989262 36.76855 -71.188481 34.858394 -68.149419 C 26.358394 -55.891606 17.909175 -43.579106 9.397456 -31.321294 C 9.33105 -42.73145 9.459956 -54.141606 9.338863 -65.551762 C 9.397456 -69.9502 4.920894 -73.641606 0.608394 -72.73145 C -3.258794 -72.180669 -5.989262 -68.301762 -5.602544 -64.48145 C -5.590825 -45.461919 -5.629887 -26.438481 -5.579106 -7.430669 C -5.750981 -4.028325 -3.290044 -0.790044 -0.00098125 -0.00098125 Z M -0.00098125 -0.00098125 " transform="matrix(1,0,0,-1,269.4502,173.5498)"/>
<path style=" stroke:none;fill-rule:nonzero;fill:rgb(0%,0%,0%);fill-opacity:1;" d="M 341.46875 179.980469 C 341.371094 176.269531 344.402344 172.839844 348.101562 172.519531 C 352 171.980469 355.960938 175.058594 356.320312 178.988281 C 356.589844 183.578125 356.339844 188.179688 356.441406 192.769531 C 363.007812 186.820312 369.441406 180.699219 376.070312 174.820312 C 379.609375 171.761719 385.691406 173.308594 387.460938 177.601562 C 388.878906 180.578125 387.960938 184.320312 385.46875 186.441406 C 377.589844 193.710938 369.71875 200.980469 361.789062 208.191406 C 370.371094 216.671875 379.160156 224.929688 387.769531 233.371094 C 390.851562 236.070312 391.050781 241.300781 388.078125 244.160156 C 385.410156 247.019531 380.460938 247.140625 377.667969 244.390625 C 370.519531 237.648438 363.550781 230.710938 356.429688 223.941406 C 356.339844 229.269531 356.601562 234.609375 356.308594 239.929688 C 355.902344 244.269531 351.101562 247.429688 346.949219 246.121094 C 343.441406 245.25 341.128906 241.640625 341.441406 238.101562 C 341.460938 218.71875 341.402344 199.351562 341.46875 179.980469 "/>
<path style="fill:none;stroke-width:0.094;stroke-linecap:butt;stroke-linejoin:miter;stroke:rgb(0%,0%,0%);stroke-opacity:1;stroke-miterlimit:10;" d="M -0.00095 -0.00046875 C -0.0986062 3.710469 2.932644 7.140156 6.631863 7.460469 C 10.5303 7.999531 14.491238 4.921406 14.850613 0.991719 C 15.120144 -3.598125 14.870144 -8.199687 14.971706 -12.789531 C 21.538113 -6.840312 27.971706 -0.719219 34.600613 5.159688 C 38.139675 8.218281 44.221706 6.671406 45.991238 2.378438 C 47.409206 -0.598125 46.491238 -4.340312 43.99905 -6.461406 C 36.120144 -13.730937 28.24905 -21.000469 20.319363 -28.211406 C 28.901394 -36.691875 37.690456 -44.949687 46.299831 -53.391094 C 49.381863 -56.090312 49.581081 -61.320781 46.608425 -64.180156 C 43.940456 -67.039531 38.991238 -67.160625 36.198269 -64.410625 C 29.049831 -57.668437 22.081081 -50.730937 14.959988 -43.961406 C 14.870144 -49.289531 15.131863 -54.629375 14.838894 -59.949687 C 14.432644 -64.289531 9.631863 -67.449687 5.479519 -66.141094 C 1.971706 -65.27 -0.340794 -61.660625 -0.0282937 -58.121562 C -0.0087625 -38.73875 -0.0673562 -19.371562 -0.00095 -0.00046875 Z M -0.00095 -0.00046875 " transform="matrix(1,0,0,-1,341.4697,179.98)"/>
<path style=" stroke:none;fill-rule:nonzero;fill:rgb(91.398621%,90.59906%,91.398621%);fill-opacity:1;" d="M 138.46875 188.199219 C 142.179688 188.308594 145.929688 187.890625 149.601562 188.429688 C 154.589844 189.660156 155.230469 197.320312 150.519531 199.359375 C 146.660156 200.648438 142.449219 199.761719 138.449219 199.960938 C 138.488281 196.039062 138.46875 192.121094 138.46875 188.199219 "/>
<path style="fill:none;stroke-width:0.094;stroke-linecap:butt;stroke-linejoin:miter;stroke:rgb(91.398621%,90.59906%,91.398621%);stroke-opacity:1;stroke-miterlimit:10;" d="M -0.00145 0.00098125 C 3.709487 -0.108394 7.459487 0.309575 11.131362 -0.229488 C 16.119644 -1.459956 16.760269 -9.120113 12.049331 -11.159175 C 8.189956 -12.448238 3.979019 -11.561519 -0.0209813 -11.760738 C 0.0180812 -7.838863 -0.00145 -3.920894 -0.00145 0.00098125 Z M -0.00145 0.00098125 " transform="matrix(1,0,0,-1,138.4702,188.2002)"/>
<path style=" stroke:none;fill-rule:nonzero;fill:rgb(91.398621%,90.59906%,91.398621%);fill-opacity:1;" d="M 217.699219 199.738281 C 220.351562 205.371094 222.179688 211.351562 224.488281 217.128906 C 220.019531 217.140625 215.558594 217.128906 211.101562 217.128906 C 213.25 211.320312 215.46875 205.53125 217.699219 199.738281 "/>
<path style="fill:none;stroke-width:0.094;stroke-linecap:butt;stroke-linejoin:miter;stroke:rgb(91.398621%,90.59906%,91.398621%);stroke-opacity:1;stroke-miterlimit:10;" d="M -0.00098125 0.00191875 C 2.651363 -5.630894 4.479488 -11.611363 6.788081 -17.388706 C 2.319331 -17.400425 -2.141606 -17.388706 -6.598637 -17.388706 C -4.4502 -11.580113 -2.23145 -5.79105 -0.00098125 0.00191875 Z M -0.00098125 0.00191875 " transform="matrix(1,0,0,-1,217.7002,199.7402)"/>
<path style=" stroke:none;fill-rule:nonzero;fill:rgb(91.398621%,90.59906%,91.398621%);fill-opacity:1;" d="M 138.480469 215 C 142.660156 215.039062 146.851562 214.921875 151.03125 215.03125 C 154.890625 215 158.390625 218.128906 158.929688 221.921875 C 159.699219 226.25 156.351562 230.800781 151.960938 231.230469 C 147.46875 231.488281 142.96875 231.371094 138.480469 231.398438 C 138.46875 225.929688 138.46875 220.46875 138.480469 215 "/>
<path style="fill:none;stroke-width:0.094;stroke-linecap:butt;stroke-linejoin:miter;stroke:rgb(91.398621%,90.59906%,91.398621%);stroke-opacity:1;stroke-miterlimit:10;" d="M 0.00046875 0 C 4.180156 -0.0390625 8.371562 0.078125 12.55125 -0.03125 C 16.410625 0 19.910625 -3.128906 20.449687 -6.921875 C 21.219219 -11.25 17.871562 -15.800781 13.480937 -16.230469 C 8.98875 -16.488281 4.48875 -16.371094 0.00046875 -16.398438 C -0.01125 -10.929688 -0.01125 -5.46875 0.00046875 0 Z M 0.00046875 0 " transform="matrix(1,0,0,-1,138.48,215)"/>
<path style=" stroke:none;fill-rule:nonzero;fill:rgb(62.399292%,83.099365%,99.598694%);fill-opacity:1;" d="M 247.988281 276.53125 C 254.011719 276.449219 260.050781 276.449219 266.082031 276.539062 C 266.429688 280.5 269.761719 284.082031 273.890625 283.847656 C 348.261719 283.890625 422.628906 283.847656 497 283.871094 C 497.019531 291.070312 496.960938 298.269531 497.03125 305.46875 C 336.371094 305.628906 175.710938 305.46875 15.050781 305.550781 C 15 298.320312 15.03125 291.089844 15.03125 283.871094 C 90.070312 283.847656 165.101562 283.890625 240.140625 283.847656 C 244.28125 284.089844 247.640625 280.507812 247.988281 276.53125 "/>
<path style="fill:none;stroke-width:0.094;stroke-linecap:butt;stroke-linejoin:miter;stroke:rgb(62.399292%,83.099365%,99.598694%);stroke-opacity:1;stroke-miterlimit:10;" d="M -0.00191875 -0.00095 C 6.021519 0.0810813 12.060581 0.0810813 18.091831 -0.0087625 C 18.439487 -3.9697 21.771519 -7.551731 25.900425 -7.317356 C 100.271519 -7.360325 174.638706 -7.317356 249.0098 -7.340794 C 249.029331 -14.540012 248.970737 -21.739231 249.04105 -28.93845 C 88.380894 -29.098606 -72.279263 -28.93845 -232.939419 -29.020481 C -232.9902 -21.790012 -232.95895 -14.559544 -232.95895 -7.340794 C -157.919888 -7.317356 -82.888638 -7.360325 -7.849575 -7.317356 C -3.70895 -7.559544 -0.349575 -3.977512 -0.00191875 -0.00095 Z M -0.00191875 -0.00095 " transform="matrix(1,0,0,-1,247.9902,276.5303)"/>
<path style=" stroke:none;fill-rule:nonzero;fill:rgb(91.398621%,90.59906%,91.398621%);fill-opacity:1;" d="M 42.839844 320.570312 C 73.808594 320.550781 104.789062 320.582031 135.761719 320.550781 C 135.691406 326.429688 135.839844 332.320312 135.808594 338.199219 C 104.820312 338.199219 73.820312 338.210938 42.828125 338.199219 C 42.820312 332.320312 42.859375 326.441406 42.839844 320.570312 "/>
<path style="fill:none;stroke-width:0.094;stroke-linecap:butt;stroke-linejoin:miter;stroke:rgb(91.398621%,90.59906%,91.398621%);stroke-opacity:1;stroke-miterlimit:10;" d="M 0.00004375 -0.0000125 C 30.968794 0.0195187 61.949263 -0.0117313 92.921919 0.0195187 C 92.851606 -5.859388 93.000044 -11.750013 92.968794 -17.628919 C 61.980513 -17.628919 30.980513 -17.640638 -0.011675 -17.628919 C -0.0194875 -11.750013 0.019575 -5.871106 0.00004375 -0.0000125 Z M 0.00004375 -0.0000125 " transform="matrix(1,0,0,-1,42.8398,320.5703)"/>
<path style="fill:none;stroke-width:0.094;stroke-linecap:butt;stroke-linejoin:miter;stroke:rgb(71.398926%,69.398499%,71.798706%);stroke-opacity:1;stroke-miterlimit:10;" d="M 0.00098125 0.0009375 C 14.559575 0.0204687 29.118169 0.0009375 43.680669 0.00875 C 43.778325 -7.139688 43.571294 -14.288125 43.770513 -21.42875 C 43.961919 -26.979531 48.629888 -31.948281 54.149419 -32.518594 C 57.661138 -32.819375 61.188481 -32.588906 64.711919 -32.670938 C 64.680669 -57.069375 64.73145 -81.471719 64.680669 -105.858438 C 60.250981 -106.108438 55.618169 -105.17875 51.340825 -106.670938 C 46.91895 -108.331094 43.758794 -112.831094 43.739263 -117.561563 C 43.641606 -124.518594 43.7002 -131.471719 43.73145 -138.42875 C 29.161138 -138.651406 14.579106 -138.471719 0.00098125 -138.518594 C -0.0498 -131.49125 0.0791063 -124.46 -0.0498 -117.440469 C -0.0888625 -111.670938 -4.920894 -106.381875 -10.698237 -105.96 C -14.120112 -105.729531 -17.5498 -105.909219 -20.979487 -105.850625 C -20.979487 -81.448281 -20.991206 -57.061563 -20.971675 -32.659219 C -16.561519 -32.42875 -11.959956 -33.288125 -7.698237 -31.858438 C -3.100581 -30.170938 0.0712938 -25.42875 -0.0302687 -20.538125 C 0.0517625 -13.690469 -0.0380812 -6.850625 0.00098125 0.0009375 Z M 0.00098125 0.0009375 " transform="matrix(1,0,0,-1,150.7998,320.54)"/>
<path style=" stroke:none;fill-rule:nonzero;fill:rgb(91.398621%,90.59906%,91.398621%);fill-opacity:1;" d="M 209.53125 320.558594 L 302.46875 320.558594 C 302.429688 326.441406 302.53125 332.320312 302.5 338.199219 C 271.5 338.199219 240.5 338.210938 209.5 338.199219 C 209.46875 332.320312 209.558594 326.441406 209.53125 320.558594 "/>
<path style="fill:none;stroke-width:0.094;stroke-linecap:butt;stroke-linejoin:miter;stroke:rgb(91.398621%,90.59906%,91.398621%);stroke-opacity:1;stroke-miterlimit:10;" d="M 0.00145 0.00100625 L 92.93895 0.00100625 C 92.899888 -5.881806 93.00145 -11.760713 92.9702 -17.639619 C 61.9702 -17.639619 30.9702 -17.651338 -0.0298 -17.639619 C -0.06105 -11.760713 0.0287938 -5.881806 0.00145 0.00100625 Z M 0.00145 0.00100625 " transform="matrix(1,0,0,-1,209.5298,320.5596)"/>
<path style="fill:none;stroke-width:0.094;stroke-linecap:butt;stroke-linejoin:miter;stroke:rgb(71.398926%,69.398499%,71.798706%);stroke-opacity:1;stroke-miterlimit:10;" d="M -0.00193125 0.00098125 C 0.201194 7.141606 -0.00193125 14.278325 0.0918188 21.41895 C 14.650413 21.411137 29.209006 21.430669 43.779319 21.411137 C 43.849631 14.219731 43.650413 7.028325 43.86135 -0.159175 C 44.119163 -5.780269 48.951194 -10.749019 54.568381 -11.139644 C 57.959006 -11.381831 61.369163 -11.198238 64.771506 -11.249019 C 64.79885 -35.647456 64.779319 -60.0498 64.779319 -84.448238 C 60.400413 -84.690425 55.849631 -83.819331 51.61135 -85.178706 C 47.150413 -86.780269 43.888694 -91.249019 43.8301 -95.999019 C 43.689475 -103.030269 43.8301 -110.069331 43.771506 -117.108394 C 29.248069 -117.159175 14.720725 -117.038081 0.201194 -117.170894 C -0.119119 -110.147456 0.240256 -103.120113 0.0293188 -96.088863 C 0.0215063 -90.319331 -4.790994 -85.0498 -10.540994 -84.5498 C -14.001931 -84.311519 -17.458962 -84.499019 -20.908181 -84.448238 C -20.95115 -60.061519 -20.908181 -35.659175 -20.931619 -11.260738 C -16.818337 -11.088863 -12.630837 -11.659175 -8.580056 -10.760738 C -3.841775 -9.428706 -0.1699 -4.948238 -0.00193125 0.00098125 Z M -0.00193125 0.00098125 " transform="matrix(1,0,0,-1,317.4199,341.9502)"/>
<path style=" stroke:none;fill-rule:nonzero;fill:rgb(91.398621%,90.59906%,91.398621%);fill-opacity:1;" d="M 376.238281 320.558594 C 407.21875 320.570312 438.199219 320.550781 469.179688 320.570312 C 469.171875 326.441406 469.210938 332.320312 469.191406 338.199219 C 438.191406 338.199219 407.191406 338.210938 376.191406 338.199219 C 376.160156 332.308594 376.308594 326.429688 376.238281 320.558594 "/>
<path style="fill:none;stroke-width:0.094;stroke-linecap:butt;stroke-linejoin:miter;stroke:rgb(91.398621%,90.59906%,91.398621%);stroke-opacity:1;stroke-miterlimit:10;" d="M -0.00191875 0.00100625 C 30.97855 -0.0107125 61.959019 0.00881875 92.939487 -0.0107125 C 92.931675 -5.881806 92.970737 -11.760713 92.951206 -17.639619 C 61.951206 -17.639619 30.951206 -17.651338 -0.0487938 -17.639619 C -0.0800438 -11.748994 0.0683937 -5.870088 -0.00191875 0.00100625 Z M -0.00191875 0.00100625 " transform="matrix(1,0,0,-1,376.2402,320.5596)"/>
<path style=" stroke:none;fill-rule:nonzero;fill:rgb(100%,76.098633%,41.19873%);fill-opacity:1;" d="M 63.820312 353.199219 L 114.820312 353.199219 C 114.828125 358.761719 114.820312 364.320312 114.828125 369.878906 C 97.820312 369.679688 80.808594 369.671875 63.808594 369.847656 C 63.808594 364.300781 63.800781 358.75 63.820312 353.199219 "/>
<path style="fill:none;stroke-width:0.094;stroke-linecap:butt;stroke-linejoin:miter;stroke:rgb(100%,76.098633%,41.19873%);stroke-opacity:1;stroke-miterlimit:10;" d="M 0.0005125 0.00098125 L 51.000513 0.00098125 C 51.008325 -5.561519 51.000513 -11.120113 51.008325 -16.678706 C 34.000513 -16.479488 16.988794 -16.471675 -0.0112062 -16.647456 C -0.0112062 -11.100581 -0.0190187 -5.5498 0.0005125 0.00098125 Z M 0.0005125 0.00098125 " transform="matrix(1,0,0,-1,63.8198,353.2002)"/>
<path style=" stroke:none;fill-rule:nonzero;fill:rgb(100%,76.098633%,41.19873%);fill-opacity:1;" d="M 230.511719 353.191406 C 247.5 353.210938 264.488281 353.199219 281.480469 353.199219 C 281.511719 358.730469 281.488281 364.257812 281.488281 369.789062 C 264.5 369.71875 247.5 369.710938 230.5 369.820312 C 230.511719 364.269531 230.488281 358.730469 230.511719 353.191406 "/>
<path style="fill:none;stroke-width:0.094;stroke-linecap:butt;stroke-linejoin:miter;stroke:rgb(100%,76.098633%,41.19873%);stroke-opacity:1;stroke-miterlimit:10;" d="M 0.00191875 -0.00100625 C 16.9902 -0.0205375 33.978481 -0.00881875 50.970669 -0.00881875 C 51.001919 -5.540069 50.978481 -11.067412 50.978481 -16.598662 C 33.9902 -16.52835 16.9902 -16.520537 -0.0098 -16.629912 C 0.00191875 -11.079131 -0.0215187 -5.540069 0.00191875 -0.00100625 Z M 0.00191875 -0.00100625 " transform="matrix(1,0,0,-1,230.5098,353.1904)"/>
<path style=" stroke:none;fill-rule:nonzero;fill:rgb(100%,76.098633%,41.19873%);fill-opacity:1;" d="M 397.210938 353.199219 L 448.179688 353.199219 C 448.199219 358.738281 448.191406 364.289062 448.191406 369.832031 C 431.199219 369.710938 414.199219 369.691406 397.199219 369.859375 C 397.210938 364.308594 397.199219 358.75 397.210938 353.199219 "/>
<path style="fill:none;stroke-width:0.094;stroke-linecap:butt;stroke-linejoin:miter;stroke:rgb(100%,76.098633%,41.19873%);stroke-opacity:1;stroke-miterlimit:10;" d="M 0.0009375 0.00098125 L 50.969688 0.00098125 C 50.989219 -5.538081 50.981406 -11.088863 50.981406 -16.631831 C 33.989219 -16.510738 16.989219 -16.491206 -0.0107812 -16.659175 C 0.0009375 -11.108394 -0.0107812 -5.5498 0.0009375 0.00098125 Z M 0.0009375 0.00098125 " transform="matrix(1,0,0,-1,397.21,353.2002)"/>
<path style=" stroke:none;fill-rule:nonzero;fill:rgb(100%,87.799072%,48.999023%);fill-opacity:1;" d="M 63.808594 369.847656 C 80.808594 369.667969 97.820312 369.679688 114.832031 369.878906 C 114.820312 388.71875 114.820312 407.550781 114.832031 426.390625 C 97.820312 426.410156 80.820312 426.402344 63.808594 426.402344 C 63.800781 407.550781 63.808594 388.699219 63.808594 369.847656 "/>
<path style="fill:none;stroke-width:0.094;stroke-linecap:butt;stroke-linejoin:miter;stroke:rgb(100%,87.799072%,48.999023%);stroke-opacity:1;stroke-miterlimit:10;" d="M -0.00150625 0.00194375 C 16.998494 0.181631 34.010213 0.169913 51.021931 -0.0293062 C 51.010213 -18.86915 51.010213 -37.701181 51.021931 -56.541025 C 34.010213 -56.560556 17.010213 -56.552744 -0.00150625 -56.552744 C -0.00931875 -37.701181 -0.00150625 -18.849619 -0.00150625 0.00194375 Z M -0.00150625 0.00194375 " transform="matrix(1,0,0,-1,63.8101,369.8496)"/>
<path style=" stroke:none;fill-rule:nonzero;fill:rgb(100%,87.799072%,48.999023%);fill-opacity:1;" d="M 230.5 369.820312 C 247.5 369.710938 264.5 369.71875 281.488281 369.789062 C 281.488281 388.660156 281.5 407.53125 281.488281 426.398438 L 230.511719 426.398438 C 230.488281 407.539062 230.5 388.679688 230.5 369.820312 "/>
<path style="fill:none;stroke-width:0.094;stroke-linecap:butt;stroke-linejoin:miter;stroke:rgb(100%,87.799072%,48.999023%);stroke-opacity:1;stroke-miterlimit:10;" d="M 0 -0.0000125 C 17 0.109363 34 0.10155 50.988281 0.0312375 C 50.988281 -18.839856 51 -37.71095 50.988281 -56.578137 L 0.0117188 -56.578137 C -0.0117188 -37.718762 0 -18.859387 0 -0.0000125 Z M 0 -0.0000125 " transform="matrix(1,0,0,-1,230.5,369.8203)"/>
<path style=" stroke:none;fill-rule:nonzero;fill:rgb(100%,87.799072%,48.999023%);fill-opacity:1;" d="M 397.199219 369.859375 C 414.199219 369.691406 431.199219 369.710938 448.191406 369.832031 L 448.191406 426.390625 C 431.191406 426.402344 414.199219 426.410156 397.199219 426.390625 C 397.210938 407.550781 397.199219 388.710938 397.199219 369.859375 "/>
<path style="fill:none;stroke-width:0.094;stroke-linecap:butt;stroke-linejoin:miter;stroke:rgb(100%,87.799072%,48.999023%);stroke-opacity:1;stroke-miterlimit:10;" d="M -0.00098125 0.001025 C 16.999019 0.168994 33.999019 0.149463 50.991206 0.0283688 L 50.991206 -56.530225 C 33.991206 -56.541944 16.999019 -56.549756 -0.00098125 -56.530225 C 0.0107375 -37.690381 -0.00098125 -18.850537 -0.00098125 0.001025 Z M -0.00098125 0.001025 " transform="matrix(1,0,0,-1,397.2002,369.8604)"/>
<path style=" stroke:none;fill-rule:nonzero;fill:rgb(91.398621%,90.59906%,91.398621%);fill-opacity:1;" d="M 42.851562 441.390625 C 73.832031 441.402344 104.820312 441.390625 135.800781 441.390625 C 135.808594 447.28125 135.800781 453.167969 135.800781 459.070312 L 42.832031 459.070312 C 42.832031 453.167969 42.808594 447.28125 42.851562 441.390625 "/>
<path style="fill:none;stroke-width:0.094;stroke-linecap:butt;stroke-linejoin:miter;stroke:rgb(91.398621%,90.59906%,91.398621%);stroke-opacity:1;stroke-miterlimit:10;" d="M 0.0014625 -0.001025 C 30.981931 -0.0127438 61.970213 -0.001025 92.950681 -0.001025 C 92.958494 -5.89165 92.950681 -11.778369 92.950681 -17.680713 L -0.0180687 -17.680713 C -0.0180687 -11.778369 -0.0415062 -5.89165 0.0014625 -0.001025 Z M 0.0014625 -0.001025 " transform="matrix(1,0,0,-1,42.8501,441.3896)"/>
<path style=" stroke:none;fill-rule:nonzero;fill:rgb(91.398621%,90.59906%,91.398621%);fill-opacity:1;" d="M 209.488281 441.410156 C 240.5 441.378906 271.5 441.378906 302.511719 441.410156 C 302.5 447.289062 302.511719 453.179688 302.5 459.058594 C 271.5 459.070312 240.5 459.070312 209.5 459.058594 C 209.488281 453.179688 209.5 447.289062 209.488281 441.410156 "/>
<path style="fill:none;stroke-width:0.094;stroke-linecap:butt;stroke-linejoin:miter;stroke:rgb(91.398621%,90.59906%,91.398621%);stroke-opacity:1;stroke-miterlimit:10;" d="M -0.00191875 0.00004375 C 31.0098 0.0312938 62.0098 0.0312938 93.021519 0.00004375 C 93.0098 -5.878862 93.021519 -11.769487 93.0098 -17.648394 C 62.0098 -17.660112 31.0098 -17.660112 0.0098 -17.648394 C -0.00191875 -11.769487 0.0098 -5.878862 -0.00191875 0.00004375 Z M -0.00191875 0.00004375 " transform="matrix(1,0,0,-1,209.4902,441.4102)"/>
<path style=" stroke:none;fill-rule:nonzero;fill:rgb(91.398621%,90.59906%,91.398621%);fill-opacity:1;" d="M 376.199219 441.390625 C 407.210938 441.429688 438.21875 441.308594 469.230469 441.449219 C 469.160156 447.320312 469.210938 453.191406 469.191406 459.058594 C 438.191406 459.070312 407.191406 459.070312 376.191406 459.070312 C 376.191406 453.167969 376.179688 447.28125 376.199219 441.390625 "/>
<path style="fill:none;stroke-width:0.094;stroke-linecap:butt;stroke-linejoin:miter;stroke:rgb(91.398621%,90.59906%,91.398621%);stroke-opacity:1;stroke-miterlimit:10;" d="M -0.00098125 -0.001025 C 31.010738 -0.0400875 62.01855 0.0810062 93.030269 -0.0596188 C 92.959956 -5.930713 93.010738 -11.801806 92.991206 -17.668994 C 61.991206 -17.680713 30.991206 -17.680713 -0.00879375 -17.680713 C -0.00879375 -11.778369 -0.0205125 -5.89165 -0.00098125 -0.001025 Z M -0.00098125 -0.001025 " transform="matrix(1,0,0,-1,376.2002,441.3896)"/>
<path style=" stroke:none;fill-rule:nonzero;fill:rgb(62.399292%,83.099365%,99.598694%);fill-opacity:1;" d="M 15.03125 474.070312 C 175.679688 474.058594 336.339844 474.070312 496.988281 474.058594 C 497 481.289062 497.011719 488.507812 496.988281 495.742188 C 422.988281 495.742188 348.988281 495.699219 274.988281 495.757812 C 270.820312 495.539062 267.628906 499.257812 267.300781 503.199219 L 248.019531 503.199219 C 247.691406 499.160156 244.328125 495.429688 240.078125 495.75 C 165.058594 495.71875 90.050781 495.742188 15.03125 495.742188 C 15.019531 488.507812 15.019531 481.289062 15.03125 474.070312 "/>
<path style="fill:none;stroke-width:0.094;stroke-linecap:butt;stroke-linejoin:miter;stroke:rgb(62.399292%,83.099365%,99.598694%);stroke-opacity:1;stroke-miterlimit:10;" d="M 0.00145 -0.0000125 C 160.649888 0.0117062 321.310044 -0.0000125 481.958481 0.0117062 C 481.9702 -7.218763 481.981919 -14.437513 481.958481 -21.671888 C 407.958481 -21.671888 333.958481 -21.628919 259.958481 -21.687513 C 255.790513 -21.468763 252.599106 -25.187513 252.270981 -29.128919 L 232.989731 -29.128919 C 232.661606 -25.089856 229.298325 -21.359388 225.048325 -21.6797 C 150.028794 -21.64845 75.020981 -21.671888 0.00145 -21.671888 C -0.0102687 -14.437513 -0.0102687 -7.218763 0.00145 -0.0000125 Z M 0.00145 -0.0000125 " transform="matrix(1,0,0,-1,15.0298,474.0703)"/>
<path style=" stroke:none;fill-rule:nonzero;fill:rgb(0%,0%,0%);fill-opacity:1;" d="M 278.351562 283.785156 L 240 283.785156 L 240 268.898438 L 278.351562 268.898438 Z M 278.351562 283.785156 "/>
<path style=" stroke:none;fill-rule:nonzero;fill:rgb(0%,0%,0%);fill-opacity:1;" d="M 276.96875 510.644531 L 238.617188 510.644531 L 238.617188 495.757812 L 276.96875 495.757812 Z M 276.96875 510.644531 "/>
</g>
</svg>
