<svg xmlns="http://www.w3.org/2000/svg" xmlns:xlink="http://www.w3.org/1999/xlink" width="298.931pt" height="184.18pt" viewBox="0 0 298.931 184.18"><defs><path id="a" d="M0 0h6.42188c4.20312 0 6.625-1.51562 8.14062-3.79687 1.21875-1.79688 1.40625-3.5625 1.40625-4.8125 0-1.70313-.59375-3.39063-1.79687-4.40625C12.9375-14.03125 11.0625-14.5 8.75-14.5H3.09375l-.125.59375 1.25.09375c.35938.01563.48438.20313.48438.53125 0 .14063-.01563.3125-.0625.51563l-2.5 11.03125c-.15625.6875-.32813.95312-.84375 1l-1.1875.125Zm4.15625-1.54687c0-.07813 0-.17188.01563-.26563L6.6875-13.01562c.1875-.70313.46875-.78125 2.29688-.78125 4.375.09375 4.73437 3.04687 4.73437 4.71875 0 1.79687-.42187 3.5-1.35937 5.0625C11.15625-2.04687 9.375-.73437 5.89063-.73437c-1.03125 0-1.73438-.14063-1.73438-.8125m0 0"/><path id="b" d="M.21875 0h10.9375l1.07813-3.6875h-.625C10.53125-1.09375 9.59375-.73437 7-.73437c-2.46875 0-2.60937-.3125-2.60937-.875 0-.21876.07812-.53125.15625-.95313L5.625-7.15625h2.73438c1.5625 0 1.85937.3125 1.85937 1.21875 0 .1875 0 .35938-.01562.57813h.625l.96875-4.375h-.64063C10.625-8.28125 10.39063-7.9375 8.54688-7.9375h-2.75l1.1875-5.23437c.10937-.5.25-.625.60937-.625h2.51563c2.04687 0 2.46875.54687 2.46875 1.6875 0 .5-.0625 1.09375-.0625 1.09375h.625L13.92188-14.5H3.32813l-.15625.59375 1.26562.09375c.35938.01563.51563.17188.51563.51563 0 .125-.01563.28125-.0625.48437l-2.5 11.07813c-.1875.70312-.35938.95312-.875 1l-1.1875.125Zm0 0"/><path id="c" d="M.21875 0H6.3125l.14063-.60937-1.59375-.10938c-.375-.01562-.53125-.20312-.53125-.51562 0-.125.01562-.26563.0625-.4375L5.5625-6.84375h2.78125c1.54688 0 1.82813.28125 1.82813 1.17188 0 .1875 0 .39062-.01563.60937h.625l.98438-4.39062h-.625C10.59375-7.98437 10.35938-7.65625 8.5-7.65625H5.73438l1.25-5.48437c.14062-.53125.25-.65625.625-.65625h2.5625c2.0625 0 2.45312.54687 2.45312 1.65625 0 .53125-.0625 1.09375-.0625 1.09375h.64063L13.98438-14.5H3.32813l-.14063.59375 1.25.10938c.35938.03125.51563.20312.51563.54687 0 .10938-.01563.26563-.0625.42188l-2.5 11.15625c-.15625.625-.35938.90625-.875.95312l-1.1875.10938Zm0 0"/><path id="d" d="M.3125-1.15625C.3125-.71875.95313.125 2.625.125c1.59375 0 2.57813-.75 2.57813-2.09375 0-1.4375-1.26563-1.79687-1.76563-1.85937V-3.875c.5625-.10937 1.46875-.5 1.46875-1.53125 0-1.28125-1.07812-1.71875-2.1875-1.71875-1.3125 0-2.15625.70313-2.15625 1.3125 0 .375.45313.5625.65625.5625.17188 0 .28125-.09375.32813-.26562.23437-.75.57812-1.20313 1.125-1.20313.73437 0 .90625.76563.90625 1.28125 0 .51563-.14063 1.40625-.98438 1.40625-.45312 0-.78125-.125-.95312-.125-.17188 0-.23438.125-.23438.35938 0 .20312.0625.34375.23438.34375.17187 0 .48437-.10938.95312-.10938.73438 0 1.25.54688 1.25 1.625 0 1.17188-.51562 1.64063-1.20312 1.64063-.59375 0-1-.4375-1.25-1.20313-.0625-.20312-.1875-.3125-.375-.3125-.28126 0-.70313.23438-.70313.65625m0 0"/><path id="g" d="m.21875-2.10937.15625.25h2.76563v1.0625c0 .3125-.125.375-.32813.39062l-.6875.0625V0h2.96875v-.34375l-.48437-.04687c-.21875-.03125-.28125-.09375-.28125-.40625v-1.0625H5.375v-.57813H4.32813V-7h-1C2.28125-5.46875 1.17188-3.71875.21875-2.10937m.92188-.32813c.5625-1.0625 1.26562-2.21875 2-3.40625v3.40625Zm0 0"/><path id="h" d="M.46875-1.15625c0 .4375.625 1.28125 2.20313 1.28125C4.5.125 5.25-.95312 5.25-2.25 5.25-3.48437 4.53125-4.5 3-4.5c-.64062 0-1.23437.28125-1.60937.57813l.21874-1.71875c.04688-.3125.09376-.34375.32813-.34375H4.625l.32813-.90625L4.89063-7H1.15625l-.09375.09375-.21875 3.48438.34375.21875c.42188-.5.82813-.73438 1.375-.73438.6875 0 1.32813.51563 1.32813 1.8125 0 1.07813-.35938 1.82813-1.15625 1.82813-.60938 0-.95313-.4375-1.21875-1.1875-.0625-.1875-.1875-.3125-.40625-.3125-.26563 0-.64063.25-.64063.64062m0 0"/><path id="e" d="M.51563-2.51562C.51563-.76562 1.375.125 2.9375.125c.75 0 1.73438-.375 2.03125-1.51562l-.3125-.14063c-.32812.73438-.73437 1.10938-1.51562 1.10938-1.25 0-1.53125-1.3125-1.53125-2.29688 0-1.54687.60937-2.17187 1.32812-2.17187.48438 0 .78125.34375 1 .90625.0625.17187.14063.26562.32813.26562.21875 0 .625-.125.625-.53125 0-.48437-.70313-1.01562-1.82813-1.01562-1.90625 0-2.54687 1.34375-2.54687 2.75m0 0"/><path id="f" d="M.32813 0h2.5625v-.29687c-.75-.0625-.78125-.07813-.78125-.625V-3.375c0-.26562 0-.40625.07812-.54687.20313-.42188.65625-.78125 1.23438-.78125.90625 0 1.01562.67187 1.01562 1.3125v2.46875c0 .54687-.03125.5625-.79687.625V0h2.5625v-.29687c-.75-.0625-.78125-.07813-.78125-.625V-3.375c0-.26562.01562-.39062.07812-.5625.15625-.42187.60938-.76562 1.1875-.76562.67188 0 1.0625.375 1.0625 1.3125v2.46875c0 .54687-.03125.5625-.78125.625V0h2.5625v-.29687c-.75-.0625-.79687-.07813-.79687-.625v-2.67188c0-1.0625-.5625-1.67187-1.5625-1.67187-.85938 0-1.46875.5625-1.84375.79687-.25-.48437-.65625-.79687-1.39063-.79687-.79687 0-1.45312.53125-1.82812.79687l-.09375-.79687L.39063-5v.26563l.39062.04687c.26563.04688.34375.09375.34375.46875v3.29688c0 .54687-.03125.5625-.79687.625Zm0 0"/></defs><path fill="none" stroke="red" stroke-miterlimit="10" stroke-width=".39673" d="m101.54297 153.53516 8.25-4.76172-4.76172-8.2461-8.25 4.76172 4.76172 8.2461"/><path fill="#99F" d="m30.11719 29.82031 15.875 27.4961c8.65234-4.9961 14.44922-13.78125 15.64453-23.69922Zm0 0"/><path fill="none" stroke="#000" stroke-miterlimit="10" stroke-width=".39673" d="M45.99216 57.31636c8.65235-4.9961 14.44923-13.78125 15.64454-23.69922"/><path fill="none" stroke="#000" stroke-miterlimit="10" stroke-width=".39673" d="m266.48835 58.30465-164.94538 95.2305-71.4219-123.70708Zm0 0"/><use xlink:href="#a" x="274.3714" y="65.55812"/><use xlink:href="#b" x="79.51095" y="175.92575"/><use xlink:href="#c" x="8.06603" y="21.9443"/><use xlink:href="#d" x="34.97324" y="95.18522"/><use xlink:href="#e" x="43.07542" y="95.18522"/><use xlink:href="#f" x="48.27518" y="95.18522"/><use xlink:href="#g" x="191.89958" y="120.81212"/><use xlink:href="#e" x="200.00175" y="120.81212"/><use xlink:href="#f" x="205.20152" y="120.81212"/><use xlink:href="#h" x="156.18857" y="36.05946"/><use xlink:href="#e" x="164.28851" y="36.05946"/><use xlink:href="#f" x="169.48827" y="36.05946"/></svg>