<svg xmlns="http://www.w3.org/2000/svg" xmlns:xlink="http://www.w3.org/1999/xlink" width="233.049pt" height="140.635pt" viewBox="0 0 233.049 140.635"><defs><path id="a" d="M.28125-.125.39063 0h4.03125l.35937-1.40625-.29687-.04687c-.23438.48437-.39063.5625-.78125.5625H1.34375C1.48438-1.3125 1.92188-1.92187 2.875-2.5 3.84375-3.125 4.5-3.57812 4.5-4.57812c0-1.3125-.89062-1.76563-1.95312-1.76563C1.29688-6.34375.5-5.64062.5-5.01562c0 .35937.40625.53125.64063.53125.17187 0 .28124-.09375.32812-.29688.15625-.6875.48438-1.1875 1.01563-1.1875.59375 0 .8125.53125.8125 1.20313 0 .8125-.34375 1.45312-1.25 2.21875C.82813-1.5.39063-.79687.28124-.125m0 0"/><path id="b" d="M.42188-1.01562c0 .375.54687 1.125 1.95312 1.125C4.01563.10938 4.65625-.84375 4.65625-2c0-1.10937-.625-2-1.98437-2-.5625 0-1.10938.25-1.4375.51563l.1875-1.53125c.04687-.28125.09374-.3125.29687-.3125H4.125l.28125-.79688-.0625-.10937H1.01563l-.07813.09375L.75-3.04687l.29688.20312c.375-.45312.75-.65625 1.21875-.65625.625 0 1.20312.45313 1.20312 1.60938 0 .95312-.32812 1.625-1.03125 1.625-.54687 0-.85937-.39063-1.09375-1.04688-.04687-.17187-.15625-.28125-.35937-.28125-.23438 0-.5625.21875-.5625.57813m0 0"/><path id="c" d="M.34375-5.04687c0 .70312.57813 1.28125 1.28125 1.28125.70313 0 1.29688-.57813 1.29688-1.28125 0-.70313-.59375-1.29688-1.29688-1.29688-.70312 0-1.28125.59375-1.28125 1.29688m.53125 0c0-.48438.35938-.84375.75-.84375.40625 0 .78125.35937.78125.84375s-.375.82812-.78125.82812-.75-.34375-.75-.82812m0 0"/><path id="g" d="M.28125-1.01562c0 .375.5625 1.125 2.04688 1.125C3.75.10938 4.64063-.5625 4.64063-1.75c0-1.28125-1.14063-1.60937-1.57813-1.65625v-.03125c.5-.10937 1.29688-.45312 1.29688-1.35937 0-1.15625-.95313-1.54688-1.9375-1.54688C1.25-6.34375.5-5.70312.5-5.17187c0 .34375.40625.51562.57813.51562.15624 0 .25-.09375.29687-.25.21875-.67187.51563-1.0625 1-1.0625.65625 0 .8125.67188.8125 1.14063 0 .45312-.125 1.25-.875 1.25-.40625 0-.6875-.10938-.85937-.10938-.15626 0-.20313.10938-.20313.29688 0 .20312.04688.32812.20313.32812.17187 0 .4375-.10937.85937-.10937.64063 0 1.09375.5 1.09375 1.45312 0 1.03125-.4375 1.45313-1.0625 1.45313-.51562 0-.89062-.39063-1.10937-1.0625q-.07032-.28126-.32813-.28126c-.25 0-.625.20313-.625.59376m0 0"/><path id="d" d="M-1.54687 1.70313v.48437c.20312.01563.42187.03125.60937.03125.85938 0 2.125-.21875 2.875-.73437C2.8125.875 3.46875-.15626 3.90625-2.03125l2.1875-9.375c.14063-.57812.29688-.84375.76563-.875l1.03125-.07812.14062-.54688H2.89063l-.10938.54688 1.09375.07812c.32813.01563.48438.17188.48438.5q0 .14063-.04688.375L2.26563-2.67187C1.84375-.9375 1.34375.23438.78125.78125c-.64062.5625-1.39062.82813-2.32812.92188m0 0"/><path id="e" d="M0 0h5.09375l.125-.53125-1.10937-.07812c-.3125-.03126-.45313-.20313-.45313-.5 0-.125.01563-.28126.04688-.4375L4.875-6.73437h.04688c.85937 1.75 1.76562 3.625 2.89062 5.17187C8.71875-.35937 9.53125.04688 10.95313.07813l.90625.01562L12-.45312c-1.0625-.10938-1.5-.59375-2.17187-1.4375-1.25-1.5625-2.53125-3.82813-3.29688-5.46875 1.6875-1.40625 3.23438-2.70313 4.9375-3.89063 1.07813-.75 1.51563-1.01562 3.01563-1.10937l.07812-.54688H9.92188l-.07813.54688.71875.0625c.1875.01562.25.09375.25.21875 0 .09375-.09375.23437-.28125.39062L5.01563-6.95312H4.9375l1-4.39063c.14063-.57812.3125-.90625.79688-.9375l1.03125-.07812.10937-.54688H2.78125l-.14062.54688 1.10937.07812c.3125.01563.45313.21875.45313.51563 0 .125-.01563.25-.0625.42187L1.90625-1.54687c-.14062.59375-.3125.85937-.78125.89062l-1.03125.125Zm0 0"/><path id="f" d="M.39063 0H9.9375l.95313-3.28125h-.54688c-.95312 2.3125-1.8125 2.625-3.92187 2.625-1.89063 0-2.3125-.17187-2.3125-.76562 0-.20313.0625-.48438.14062-.85938l2.07813-9.0625c.15625-.625.3125-.90625.79687-.9375l1.10938-.07812.14062-.54688H3.17188l-.14063.54688 1.10938.07812c.32812.01563.46875.17188.46875.5 0 .10938-.03125.25-.0625.4375l-2.25 9.79688c-.15625.65625-.3125.85937-.76563.89062L.5-.53125Zm0 0"/><path id="h" d="M.45313-2.25c0 1.5625.76562 2.35938 2.17187 2.35938.65625 0 1.53125-.34375 1.79688-1.34375l-.28125-.125c-.29688.65625-.65625.98437-1.34375.98437-1.10938 0-1.375-1.15625-1.375-2.03125 0-1.39062.54687-1.95312 1.20312-1.95312.42188 0 .6875.3125.875.8125.0625.15625.125.25.29688.25.1875 0 .54687-.125.54687-.48438 0-.42187-.60937-.90625-1.625-.90625C1.01563-4.6875.45313-3.48437.45313-2.25m0 0"/><path id="i" d="M.29688 0H2.5625v-.26562C1.90625-.3125 1.875-.34375 1.875-.8125V-3c0-.23437 0-.35937.0625-.5.1875-.375.59375-.67187 1.10938-.67187.79687 0 .90625.57812.90625 1.15625V-.8125c0 .46875-.03125.5-.70313.54688V0h2.26563v-.26562c-.65625-.04688-.6875-.07813-.6875-.54688V-3c0-.23437 0-.35937.0625-.5.14062-.375.53125-.67187 1.0625-.67187.57812 0 .9375.32812.9375 1.15625V-.8125c0 .46875-.03125.5-.70313.54688V0h2.28125v-.26562C7.8125-.3125 7.76563-.34375 7.76563-.8125v-2.375c0-.95312-.5-1.5-1.39063-1.5-.76562 0-1.3125.51563-1.625.71875-.23437-.4375-.59375-.71875-1.25-.71875-.71875 0-1.29687.48438-1.625.71875l-.09375-.71875-1.4375.25v.21875l.34375.04688C.9375-4.125 1-4.09375 1-3.75v2.9375c0 .46875-.03125.5-.70312.54688Zm0 0"/></defs><path fill="none" stroke="red" stroke-miterlimit="10" stroke-width=".39688" d="m167.76172 113.54297-9.78125-5.64453 5.64453-9.78125 9.78125 5.64843-5.64453 9.77735"/><path fill="#99F" d="m21.0625 28.84766 14.67188 8.47265c1.23828-2.14453 1.98828-4.53515 2.20312-7Zm0 0"/><path fill="none" stroke="#000" stroke-miterlimit="10" stroke-width=".39688" d="M35.73436 37.3203c1.23828-2.14453 1.98828-4.53515 2.20313-7"/><use xlink:href="#a" x="43.39791" y="41.12961"/><use xlink:href="#b" x="48.50781" y="41.12961"/><use xlink:href="#c" x="53.61772" y="41.12961"/><path fill="none" stroke="#000" stroke-miterlimit="10" stroke-width=".39688" d="m21.06248 28.84765 146.69924 84.69532 39.52344-68.45704Zm0 0"/><use xlink:href="#d" x="6.61401" y="19.61739"/><use xlink:href="#e" x="174.77181" y="133.45386"/><use xlink:href="#f" x="214.29553" y="38.07607"/><use xlink:href="#g" x="66.97271" y="84.54843"/><use xlink:href="#h" x="74.17731" y="84.54843"/><use xlink:href="#i" x="78.80103" y="84.54843"/></svg>