<svg xmlns="http://www.w3.org/2000/svg" xmlns:xlink="http://www.w3.org/1999/xlink" width="135.969pt" height="124.57pt" viewBox="0 0 135.969 124.57"><defs><path id="a" d="M.17188-3.59375c0 .23438.21875.3125.32812.3125.09375 0 .17188-.04687.1875-.14062.09375-.45313.25-.65625.5-.65625.28125 0 .39063.26562.39063.60937 0 .39063-.26563.76563-.54688.96875-.35937.28125-.48437.4375-.48437.70313 0 .39062.3125.59375.64062.59375.1875 0 .42188-.03126.59375-.17188L1.73438-1.5c-.04688.01563-.10938.03125-.1875.03125-.125 0-.40625-.10937-.40625-.45312 0-.26563.15624-.48438.45312-.6875.20313-.15625.57813-.375.57813-.85938 0-.54687-.40625-.82812-.95313-.82812-.79687 0-1.04687.51562-1.04687.70312M.78125-.29687c0 .21875.15625.375.375.375s.375-.15625.375-.375c0-.23438-.15625-.39063-.375-.39063s-.375.15625-.375.39063m0 0"/><path id="h" d="M.29688-1.45312c0 1.01562.5 1.53125 1.40625 1.53125.42187 0 1-.21875 1.17187-.875l-.1875-.09376C2.5-.45312 2.26563-.25 1.8125-.25 1.09375-.25.92188-1 .92188-1.5625c0-.90625.35937-1.26562.78125-1.26562.28124 0 .45312.1875.57812.53125.03125.09375.07813.14062.1875.14062.125 0 .35938-.0625.35938-.29687 0-.28125-.40625-.59375-1.0625-.59375-1.09375 0-1.46875.78125-1.46875 1.59375m0 0"/><path id="i" d="M.1875 0h1.48438v-.17187c-.4375-.03126-.45313-.04688-.45313-.35938v-1.42187c0-.15626 0-.23438.04688-.3125.10937-.25.375-.45313.71875-.45313.51562 0 .57812.375.57812.75v1.4375c0 .3125-.01562.32813-.45312.35938V0h1.48437v-.17187c-.4375-.03126-.45312-.04688-.45312-.35938v-1.42187c0-.15626 0-.23438.04687-.32813.07813-.23437.34375-.4375.6875-.4375.375 0 .60938.21875.60938.75v1.4375c0 .3125-.01563.32813-.45313.35938V0h1.48438v-.17187c-.4375-.03126-.46875-.04688-.46875-.35938v-1.54687c0-.60938-.32813-.96875-.89063-.96875-.5 0-.85937.32812-1.07812.46875-.14063-.28125-.375-.46875-.79688-.46875-.46875 0-.84375.3125-1.0625.46875l-.0625-.46875-.9375.15625V-2.75l.23438.04688c.15625.01562.20312.04687.20312.26562v1.90625c0 .3125-.03125.32813-.46875.35938Zm0 0"/><path id="b" d="M0 0h3.45313l.0625-.34375-.84375-.07812C2.46875-.4375 2.375-.53125 2.375-.71875c0-.07812.01563-.17187.03125-.28125l.54688-2.39062h.90625c1.03125 0 1.98437-.14063 2.6875-.57813.76562-.46875 1.21875-1.29687 1.21875-2.20312C7.76563-7 7.375-7.625 6.78125-7.96875c-.5625-.3125-1.32812-.42187-2.14062-.42187H1.8125l-.09375.34375.71875.0625c.20313.01562.29688.10937.29688.3125 0 .07812-.01563.17187-.03125.29687L1.23438-1c-.09376.40625-.20313.54688-.5.57813L.0625-.34375Zm3.125-4.07812c0-.07813.01563-.15625.03125-.26563l.73438-3.20312c.07812-.3125.15625-.42188.78125-.42188 1.20312 0 1.8125.5625 1.8125 1.59375 0 1.73438-.95313 2.5625-2.59375 2.5625-.625 0-.76563-.07812-.76563-.26562m0 0"/><path id="c" d="M.78125-3.28125c0 1.8125.9375 3.17188 2.875 3.40625.5625 1.0625 1.79688 2.34375 3.3125 2.34375.3125 0 .70313-.07812.90625-.20312l-.04687-.20313c-1.15625-.01562-2.0625-.90625-2.75-1.9375 2.45312-.34375 3.89062-2.78125 3.89062-5.14062 0-2.5-1.51562-3.5625-3.51562-3.5625-3.10938 0-4.67188 2.875-4.67188 5.29687m1.26563.5c0-2.17187 1.04687-5.375 3.46875-5.375 1.32812 0 2.17187.78125 2.17187 2.5C7.6875-2.70312 6.3125-.25 4.21875-.25c-1.3125 0-2.17187-.84375-2.17187-2.53125m0 0"/><path id="d" d="M0 0h3.3125l.07813-.34375-.71875-.0625c-.20313-.01562-.3125-.10937-.3125-.29687 0-.07813.03125-.1875.04687-.29688l.67188-2.95312h.73437c1.17188 0 1.34375.28125 1.34375 1.70312 0 1.46875 0 2.25 1.26563 2.25H7.375l.10938-.34375C6.64063-.46875 6.34375-.5 6.34375-2.0625c0-1.23437-.10937-1.76562-1.10937-2.10937C6.71875-4.375 7.71875-5.23437 7.71875-6.4375c0-.875-.375-1.95312-2.64062-1.95312H1.8125l-.09375.34375.71875.0625c.20313.01562.29688.10937.29688.3125 0 .07812-.01563.17187-.03125.29687L1.23438-1c-.09376.42188-.20313.54688-.5.57813L.0625-.34375Zm3.17188-4.375.71875-3.14062c.07812-.34375.125-.45313 1.04687-.45313.78125 0 1.51563.34375 1.51563 1.40625 0 1.4375-.9375 2.1875-2.5 2.1875Zm0 0"/><path id="e" d="M.1875-.67187c0 .25.35938.75 1.32813.75.92187 0 1.5-.4375 1.5-1.21875 0-.82813-.73438-1.04688-1.03125-1.07813v-.01562c.32812-.0625.85937-.29688.85937-.89063 0-.75-.625-1-1.26562-1-.76563 0-1.25.42188-1.25.76563 0 .21875.26562.32812.375.32812s.15624-.0625.1875-.15625c.14062-.4375.34375-.70312.65625-.70312.42187 0 .53125.4375.53125.75 0 .29687-.09375.8125-.57813.8125-.26562 0-.45312-.07813-.54687-.07813-.10938 0-.14063.07813-.14063.20313S.84375-2 .95313-2c.09374 0 .28124-.0625.54687-.0625.42188 0 .71875.3125.71875.95313 0 .67187-.29687.9375-.6875.9375-.34375 0-.57812-.25-.71875-.6875-.04687-.125-.10937-.1875-.21875-.1875-.17187 0-.40625.14062-.40625.375m0 0"/><path id="f" d="m.3125.76563.15625.125c.29688-.28126.8125-.71875.8125-1.20313 0-.3125-.17187-.57812-.46875-.57812-.23437 0-.35937.1875-.35937.32812 0 .23438.17187.34375.17187.59375C.625.29688.5.54688.3125.76563m0 0"/><path id="g" d="M.21875-2.73437c0 .84375.51563 1.26562 1.17188 1.26562.4375 0 .78125-.28125.96875-.51562 0 .95312-.23438 1.8125-.79688 1.8125-.26562 0-.46875-.23438-.5625-.60938C.96875-.85937.92188-.9375.79688-.9375c-.14063 0-.39063.10938-.39063.3125 0 .28125.32813.70313 1.09375.70313 1.04688 0 1.625-.79688 1.625-2.21875 0-1.26563-.45312-1.98438-1.45312-1.98438-.98438 0-1.45313.60938-1.45313 1.39063m.75-.125c0-.59375.20313-1.03125.67188-1.03125.5 0 .71875.5625.71875 1.26562 0 .35938-.25.76563-.6875.76563-.375 0-.70313-.3125-.70313-1m0 0"/></defs><path fill="none" stroke="red" stroke-miterlimit="10" stroke-width=".39713" d="m79.78125 101.71875 2.51172-6.90234 6.90234 2.51171"/><path fill="#66b2b2" d="M17.64844 79.10547 28.0039 82.875c1.14843-3.16016.79296-6.67187-.96875-9.53516Zm0 0"/><path fill="none" stroke="#000" stroke-miterlimit="10" stroke-width=".39713" d="M28.0039 82.875c1.14844-3.16016.79298-6.67187-.96874-9.53516"/><use xlink:href="#a" x="32.91356" y="79.5514"/><path fill="none" stroke="#000" stroke-miterlimit="10" stroke-width=".39713" d="m17.64844 79.10547 69.03515 25.125L118.33984 17.25Zm0 0"/><use xlink:href="#b" x="4.52057" y="92.05524"/><use xlink:href="#c" x="91.24222" y="117.37484"/><use xlink:href="#d" x="122.89994" y="12.69119"/><use xlink:href="#e" x="44.41586" y="42.72851"/><use xlink:href="#f" x="47.73938" y="42.72851"/><use xlink:href="#g" x="50.14651" y="42.72851"/><use xlink:href="#h" x="54.8332" y="42.72851"/><use xlink:href="#i" x="57.8405" y="42.72851"/><use xlink:href="#e" x="45.52204" y="100.35259"/><use xlink:href="#h" x="50.20796" y="100.35259"/><use xlink:href="#i" x="53.21527" y="100.35259"/></svg>