<svg xmlns="http://www.w3.org/2000/svg" xmlns:xlink="http://www.w3.org/1999/xlink" width="359.946" height="443.208" viewBox="0 0 359.946 443.208"><defs><path id="a" d="M-.04687-6.29687.04688-6 9.9375-7.34375 19.82813-6l.07812-.29687L9.9375-8.14062Zm0 0"/><path id="b" d="M-.21875 0h2.42188l.0625-.34375-.57813-.04687c-.125-.01563-.20312-.07813-.20312-.1875 0-.04688.03124-.125.07812-.20313.3125-.625.625-1.26562.98438-1.92187h2.25L5.01563-.6875s-.03125.28125-.26563.29688l-.54687.04687L4.10938 0h2.84375l.07812-.34375L6.625-.375c-.32812-.03125-.34375-.29687-.39062-.67187l-.71875-6.21875h-.96875L2.75-4.10937c-.57812 1.01562-1.45312 2.5625-1.79687 3.125C.67187-.53125.5-.42187.17188-.39062l-.3125.04687Zm3-3.15625 1.64063-2.95312L4.75-3.15625Zm0 0"/><path id="c" d="M.09375 0h3.3125c2.375 0 3.1875-.96875 3.1875-2.125C6.59375-3.23437 5.75-3.73437 5-3.875v-.01562c1.39063-.15625 2-.9375 2-1.76563 0-.875-.51562-1.60937-2.5625-1.60937H1.65625l-.07812.34375.57812.04687c.1875.01563.26563.07813.26563.25 0 .07813-.03125.1875-.04688.29688L1.15625-.9375c-.07812.35938-.17187.5-.45312.53125l-.53125.0625Zm2.35938-.84375c0-.07812.01562-.15625.03125-.25l.5625-2.59375h.4375c.96875 0 1.70312.39063 1.70312 1.42188 0 .95312-.5625 1.84375-1.89062 1.84375-.67188 0-.84375-.15625-.84375-.42188m.70312-3.26562.53125-2.375c.07813-.3125.125-.375.71875-.375.78125 0 1.26563.375 1.26563 1.125 0 1.03125-.76563 1.625-1.9375 1.625Zm0 0"/><path id="d" d="M.70313-2.89062c0 1.20312.53125 3.04687 3.32812 3.04687.75 0 1.53125-.09375 2.20313-.4375l.54687-1.82812h-.35937C5.79688-1.04687 5.25-.26562 4-.26562 2.90625-.26562 2.125-1 2.125-2.54687c0-.96875.25-2.14063.75-3.01563.5-.84375 1.26563-1.45312 2.34375-1.45312 1.28125 0 1.60938.76562 1.60938 1.82812h.35937l.39063-1.71875c-.60938-.375-1.65625-.53125-2.3125-.53125-2.01563 0-3.17188.85938-3.84375 1.90625C.84375-4.625.70313-3.60937.70313-2.89062m0 0"/><path id="e" d="M-.40625 0h4.75l.125-.60937L3.3125-.71875c-.26562-.01562-.375-.15625-.375-.35937 0-.10938.03125-.26563.10938-.42188.6875-1.34375 1.35937-2.70312 2.14062-4.10937h4.71875l.51563 4.32812s-.10938.51563-.54688.5625L8.75-.60937 8.64063 0h5.17187l.125-.60937-.79687-.0625c-.65625-.0625-.75-.35938-.85938-1.23438l-1.54687-12.64062h-1.5L5.70313-8.34375c-1.07813 1.875-2.8125 5.01563-3.59375 6.26563C1.4375-.98437 1.07813-.76562.42188-.6875l-.6875.07813Zm6.01563-6.42187 3.4375-6.17188.75 6.17188Zm0 0"/><path id="f" d="M0 0h6.375c5.07813 0 6.10938-2.625 6.10938-4.35937 0-2.21875-1.625-3.1875-3.17188-3.46875l.01563-.04688c2.79687-.34375 3.98437-1.92187 3.98437-3.51562 0-1.70313-1-3.15625-4.875-3.15625H3.10938l-.14063.60937 1.26563.10938c.35937.01562.51562.17187.51562.51562 0 .14063-.04687.3125-.09375.51563L2.17188-1.75c-.15625.70313-.35938.9375-.875 1.01563l-1.1875.125Zm4.20313-1.60937c0-.15626.03125-.3125.07812-.46875l1.20313-5.39063h.82812c2.07813 0 3.90625.59375 3.90625 3 0 1.875-1.14062 3.73438-3.95312 3.73438-1.65625 0-2.0625-.34375-2.0625-.875m1.4375-6.60938 1.09375-4.875c.15625-.625.26562-.73437 1.67187-.73437 1.78125 0 2.76563.89062 2.76563 2.375 0 2.1875-1.84375 3.23437-4.17188 3.23437Zm0 0"/><path id="g" d="M1.09375-5.76562C1.09375-3 2.46875.3125 7.67188.3125c1.5 0 2.9375-.20312 4.28125-.875l1.03125-3.35937h-.64063c-1.15625 2.10937-2.20312 3.5-4.79687 3.5-2.45313 0-4.1875-1.5625-4.1875-4.8125 0-1.90625.48437-4.23438 1.5-5.90625 1.04687-1.76563 2.70312-3 4.96875-3 2.65625 0 3.42187 1.23437 3.42187 3.53125h.64063l.76562-3.15625C13.45313-14.51562 11.48438-14.875 10-14.875c-3.95312 0-6.23437 1.85938-7.46875 3.82813-1.17187 1.875-1.4375 3.8125-1.4375 5.28125m0 0"/><path id="h" d="M.5-3.59375c0 1.23438.375 2.23438 1 2.85938.64063.64062 1.6875.89062 2.85938.89062.84375 0 1.8125-.23437 2.3125-.5l.15625-1.76562h-.3125C6.21875-1 5.67188-.21876 4.29688-.21876c-2.17188 0-2.625-2.125-2.625-3.39062 0-1.73438.6875-3.46875 2.64062-3.46875 1.07813 0 1.82813.45312 2.03125 1.70312h.3125v-1.65625C6.1875-7.25 5.39063-7.4375 4.4375-7.4375c-1.3125 0-2.34375.375-2.96875 1.07813C.85938-5.6875.5-4.78125.5-3.59375m0 0"/><path id="i" d="m1.4375-5.90625.20313.21875L2.71875-6.5c.10938-.09375.23438-.15625.32813-.15625.07812 0 .20312.0625.32812.15625l1.07813.8125.1875-.21875L3.42188-7.3125c-.125-.125-.25-.26562-.375-.26562s-.25.125-.39063.26562ZM.51563-2.57812C.51563-.875 1.35938.125 3.04688.125s2.51562-1 2.51562-2.70312-.82812-2.70313-2.51562-2.70313-2.53125 1-2.53125 2.70313m1.09375 0c0-1.45313.46875-2.32813 1.4375-2.32813.95312 0 1.42187.875 1.42187 2.32813S4-.25 3.04688-.25c-.96875 0-1.4375-.875-1.4375-2.32812m0 0"/><path id="j" d="M.32813-4.73437h.75v3.65625C1.07813 0 1.875.125 2.25.125c.53125 0 1.04688-.26562 1.34375-.45312L3.51563-.5625c-.26563.10938-.48438.14063-.75.14063-.35938 0-.70313-.26563-.70313-1.0625v-3.25h1.35938v-.42188H2.0625v-1.32812h-.29687L1.125-5.15625H.32813Zm0 0"/><path id="k" d="m2.10938-5.90625.15625.21875 1.59375-.89062c.3125-.17188.59375-.34375.59375-.57813 0-.20312-.25-.45312-.42188-.45312S3.6875-7.5 3.375-7.17187ZM.51563-2.54687C.51563-.875 1.23438.125 2.9375.125c1.17188 0 1.76563-.65625 2.04688-1.48437l-.3125-.15626c-.28125.60938-.6875 1.10938-1.51563 1.10938-1.3125 0-1.5625-1.26562-1.54687-2.35937h3.03125c.21875 0 .42187-.04688.42187-.40625 0-.60938-.20312-2.10938-2.125-2.10938-1.65625 0-2.42187 1.17188-2.42187 2.73438m1.10937-.625c0-.4375.15625-1.73438 1.25-1.73438.96875 0 1.07813.98438 1.07813 1.40625 0 .20313-.0625.32813-.34375.32813Zm0 0"/><path id="l" d="M.51563-1.35937C.51563-.57812 1.04688.125 2.03125.125 2.64063.125 3.25-.28125 3.59375-.5c.14063.39063.32813.625.6875.625.39063 0 .84375-.10937 1.25-.3125l-.07812-.25c-.14063.03125-.375.04688-.53125 0-.1875-.04687-.375-.23437-.375-.89062V-3.875c0-.625-.125-1.40625-1.71875-1.40625-1.1875 0-2.125.60938-2.125 1.20313 0 .32812.39062.48437.59375.48437.21874 0 .28124-.10937.34375-.28125.23437-.79687.65625-1.03125 1.07812-1.03125.40625 0 .89063.20313.89063 1.04688v.4375c-.28125.26562-1.29688.53125-2.125.79687-.75.23438-.96875.76563-.96875 1.26563m1.0625-.15626c0-.48437.21874-.75.8125-.96874.42187-.15625.98437-.35938 1.21875-.5V-1.5c0 .84375-.65625 1.0625-1.0625 1.0625-.65625 0-.96875-.45312-.96875-1.07812m0 0"/><path id="m" d="M.51563-2.46875C.51563-.92187 1.32813.125 2.71875.125c.57813 0 1.04688-.26562 1.625-.71875v.51563L4.4375 0H6.125v-.29687c-.75-.0625-.78125-.07813-.78125-.625v-6.8125l-.07812-.0625-1.65625.25v.28125l.40625.03125c.26562.03125.34375.07812.34375.48437v1.73438c-.29688-.17188-.6875-.26563-1.17188-.26563-.85937 0-1.51562.28125-1.95312.73438-.4375.46875-.71875 1.15625-.71875 2.07812m1.09375-.125c0-1.35937.5-2.3125 1.5625-2.3125.5 0 .90625.21875 1.09375.65625.09375.17188.09375.32813.09375.60938v1.84375c0 .23437 0 .42187-.07813.59375-.20312.54687-.67187.76562-1.21875.76562-.95312 0-1.45312-.95312-1.45312-2.15625m0 0"/><path id="n" d="M.96875-6.875c0 .375.26563.64063.64063.64063S2.25-6.5 2.25-6.875c0-.39062-.26562-.64062-.64062-.64062s-.64063.25-.64063.64062m-1.3125 9.17188.01563.25c.1875 0 .48437-.03125.78125-.09375 1.32812-.29688 1.65625-1.21875 1.65625-2.53125v-5.14063l-.07813-.0625L.375-5.01562V-4.75l.40625.04688c.26563.04687.34375.10937.34375.46875V-.375c0 .75-.0625 1.48438-.28125 1.92188-.1875.35937-.54687.59375-1.1875.75m0 0"/><path id="o" d="M.51563-2.53125C.51563-.76562 1.375.125 2.95313.125c.73437 0 1.73437-.375 2.03125-1.51562l-.3125-.14063c-.32813.73438-.75 1.10938-1.51563 1.10938-1.25 0-1.54687-1.3125-1.54687-2.29688 0-1.5625.60937-2.1875 1.34375-2.1875.48437 0 .78125.34375 1 .90625.0625.17188.125.28125.32812.28125.21875 0 .625-.14062.625-.54687 0-.48438-.70312-1.01563-1.84375-1.01563-1.90625 0-2.54687 1.35938-2.54687 2.75m0 0"/><path id="p" d="M.51563-2.54687C.51563-.875 1.23438.125 2.9375.125c1.17188 0 1.76563-.65625 2.04688-1.48437l-.3125-.15626c-.28125.60938-.6875 1.10938-1.51563 1.10938-1.3125 0-1.5625-1.26562-1.54687-2.35937h3.03125c.21875 0 .42187-.04688.42187-.40625 0-.60938-.20312-2.10938-2.125-2.10938-1.65625 0-2.42187 1.17188-2.42187 2.73438m1.10937-.625c0-.4375.15625-1.73438 1.25-1.73438.96875 0 1.07813.98438 1.07813 1.40625 0 .20313-.0625.32813-.34375.32813Zm0 0"/><path id="q" d="M.32813 0h2.5625v-.29687c-.75-.0625-.78125-.07813-.78125-.625V-3.375c0-.26562.01562-.40625.10937-.57812.21875-.40625.6875-.75 1.25-.75.71875 0 1.10938.39062 1.10938 1.29687v2.48438c0 .54687-.03125.5625-.79688.625V0h2.57813v-.29687c-.75-.0625-.79688-.07813-.79688-.625v-2.6875c0-1.0625-.57812-1.67188-1.54687-1.67188-.78125 0-1.26563.375-1.90625.8125l-.15625-.8125-1.5625.26563V-4.75l.39062.04688c.26563.04687.34375.09375.34375.46875v3.3125c0 .54687-.03125.5625-.79687.625Zm0 0"/><path id="r" d="M1.15625-7.15625c0 .23438.28125.40625.59375.57813l1.59375.89062L3.5-5.90625 2.25-7.17187c-.3125-.32813-.5-.4375-.67187-.4375-.15626 0-.42188.25-.42188.45312M.51563-1.35937C.51563-.57812 1.04688.125 2.03125.125 2.64063.125 3.25-.28125 3.59375-.5c.14063.39063.32813.625.6875.625.39063 0 .84375-.10937 1.25-.3125l-.07812-.25c-.14063.03125-.375.04688-.53125 0-.1875-.04687-.375-.23437-.375-.89062V-3.875c0-.625-.125-1.40625-1.71875-1.40625-1.1875 0-2.125.60938-2.125 1.20313 0 .32812.39062.48437.59375.48437.21874 0 .28124-.10937.34375-.28125.23437-.79687.65625-1.03125 1.07812-1.03125.40625 0 .89063.20313.89063 1.04688v.4375c-.28125.26562-1.29688.53125-2.125.79687-.75.23438-.96875.76563-.96875 1.26563m1.0625-.15626c0-.48437.21874-.75.8125-.96874.42187-.15625.98437-.35938 1.21875-.5V-1.5c0 .84375-.65625 1.0625-1.0625 1.0625-.65625 0-.96875-.45312-.96875-1.07812m0 0"/><path id="s" d="M.375 0h2.92188v-.29687c-.90625-.07813-.9375-.07813-.9375-.67188v-2.625h3.6875v2.625c0 .59375-.03125.59375-.95313.67188V0h2.92188v-.29687c-.90625-.07813-.9375-.07813-.9375-.67188v-5.32812c0-.59375.03125-.60938.9375-.67188v-.29687H5.09375v.29687c.92188.0625.95313.07813.95313.67188v2.3125h-3.6875v-2.3125c0-.59375.03125-.60938.9375-.67188v-.29687H.375v.29687c.92188.0625.9375.07813.9375.67188v5.32812c0 .59375-.01562.59375-.9375.67188Zm0 0"/><path id="t" d="M-.0625-4.84375c.51563.01563.625.09375.8125.54688C1.28125-3.03125 2.14063-.8125 2.39063-.07812c.07812.17187.09375.32812.09375.51562 0 .25-.09375.5625-.26563.89063-.15625.34375-.34375.45312-.45312.45312-.09376 0-.20313-.03125-.39063-.21875-.09375-.09375-.1875-.15625-.3125-.15625-.20312 0-.45312.29688-.45312.59375 0 .26563.28124.54688.71875.54688.42187 0 .96875-.125 1.5-1.6875C3.48438-1 4.45313-3.5625 4.78125-4.3125c.1875-.42187.23438-.5.76563-.53125v-.3125H3.53125v.3125l.54688.04688c.1875.01562.20312.14062.15625.35937-.15625.625-.70313 2.21875-1.17188 3.46875h-.01562C2.5625-2.23437 2.14063-3.375 1.75-4.46875c-.07812-.20312-.09375-.3125.15625-.34375l.45313-.03125v-.3125H-.0625Zm0 0"/><path id="u" d="M.26563 2.10938v.3125h2.71875v-.3125c-.875-.04688-.95313-.07813-.95313-.60938V-.10937C2.26563.01563 2.76563.125 3.25.125c1.42188 0 2.625-.65625 2.625-2.82812 0-.75-.14062-2.57813-2.04687-2.57813-.78125 0-1.375.51563-1.79688.78125l-.125-.78125-1.59375.26563V-4.75l.40625.04688c.26563.04687.32813.09375.32813.46875V1.5c0 .53125-.04688.5625-.78125.60938m1.76562-3.76563V-3.375c0-.26562.0625-.40625.15625-.59375.23438-.48437.67188-.73437 1.23438-.73437.42187 0 1.35937.26562 1.35937 2.07812 0 1.54688-.48437 2.375-1.53125 2.375-.54687 0-.96875-.28125-1.14062-.75-.0625-.20312-.07813-.40625-.07813-.65625m0 0"/><path id="v" d="M.51563-2.57812C.51563-.875 1.35938.125 3.04688.125s2.51562-1 2.51562-2.70312-.82812-2.70313-2.51562-2.70313-2.53125 1-2.53125 2.70313m1.09375 0c0-1.45313.46875-2.32813 1.4375-2.32813.95312 0 1.42187.875 1.42187 2.32813S4-.25 3.04688-.25c-.96875 0-1.4375-.875-1.4375-2.32812m0 0"/><path id="w" d="m.26563-4.75.40625.04688C.9375-4.65625 1-4.60937 1-4.23437v2.78125C1-.25 1.71875.125 2.5.125c.90625 0 1.625-.60937 1.9375-.75L4.53125 0h1.6875v-.29687C5.5-.35937 5.42188-.375 5.42188-.92187v-4.29688l-.07813-.0625-1.64062.26563V-4.75l.40625.04688c.26562.04687.32812.09375.32812.46875v2.375c0 .29687-.03125.53125-.07812.625-.25.48437-.75.79687-1.29688.79687C2.45313-.4375 2-.82812 2-1.64062v-3.57813l-.07812-.0625-1.65625.26563Zm0 0"/><path id="x" d="M.5-1.75.60938-.375c.375.32813 1.01562.5 1.625.5 1.25 0 1.96875-.65625 1.96875-1.5625 0-.92187-.5625-1.34375-1.65625-1.67187C2.10938-3.25 1.4375-3.46875 1.4375-4.0625c0-.54687.40625-.84375.9375-.84375.75 0 1.10938.57813 1.1875 1.21875h.29688v-1.23437C3.51563-5.1875 2.96875-5.28125 2.5-5.28125 1.35938-5.28125.59375-4.75.59375-3.75c0 .875.71875 1.26563 1.59375 1.53125.46875.15625 1.125.39063 1.125 1.09375 0 .54688-.42187.875-.96875.875C1.48438-.25 1-.85937.79688-1.75Zm0 0"/></defs><path fill="none" stroke="red" stroke-miterlimit="10" stroke-width=".39779" d="M107.66797 412.51172v-12.73437h12.73046v12.73437h-12.73046"/><path fill="#99F" d="m330.47656 412.51172-16.03906-27.4961c-9.77734 5.70313-15.79297 16.17579-15.79297 27.4961Zm0 0"/><path fill="none" stroke="#000" stroke-miterlimit="10" stroke-width=".39779" d="M314.43745 385.01563c-9.77734 5.70312-15.79296 16.17578-15.79296 27.49609"/><use xlink:href="#a" x="276.36201" y="389.98885"/><use xlink:href="#b" x="275.1649" y="392.27302"/><use xlink:href="#c" x="282.82866" y="392.27302"/><use xlink:href="#d" x="290.30223" y="392.27302"/><path fill="none" stroke="#007F7F" stroke-miterlimit="10" stroke-width=".39779" d="M107.66797 412.51172H330.4765"/><path fill="none" stroke="#FF7F00" stroke-miterlimit="10" stroke-width=".39779" d="M330.47651 412.51172 107.66797 30.55086"/><path fill="none" stroke="#BF0040" stroke-miterlimit="10" stroke-width=".39779" d="M107.66797 30.55086v381.96086"/><use xlink:href="#e" x="85.32913" y="434.95974"/><use xlink:href="#f" x="338.37893" y="434.95974"/><use xlink:href="#g" x="85.57568" y="22.33808"/><g fill="#007F7F"><use xlink:href="#h" x="170.03376" y="430.83112"/><use xlink:href="#i" x="177.21644" y="430.83112"/><use xlink:href="#j" x="183.28033" y="430.83112"/><use xlink:href="#k" x="186.89404" y="430.83112"/></g><g fill="#007F7F"><use xlink:href="#l" x="194.64731" y="430.83112"/><use xlink:href="#m" x="200.14061" y="430.83112"/><use xlink:href="#n" x="206.42825" y="430.83112"/><use xlink:href="#l" x="209.37069" y="430.83112"/><use xlink:href="#o" x="214.86399" y="430.83112"/><use xlink:href="#p" x="220.07758" y="430.83112"/><use xlink:href="#q" x="225.48138" y="430.83112"/><use xlink:href="#j" x="231.98159" y="430.83112"/></g><use xlink:href="#r" x="237.95597" y="430.83112" fill="#007F7F"/><use xlink:href="#a" x="247.01719" y="428.54919" fill="#007F7F"/><use xlink:href="#b" x="245.82008" y="430.83112" fill="#007F7F"/><use xlink:href="#c" x="253.48385" y="430.83112" fill="#007F7F"/><use xlink:href="#d" x="260.95742" y="430.83112" fill="#007F7F"/><use xlink:href="#s" x="226.97601" y="211.08779" fill="#FF7F00"/><g fill="#FF7F00"><use xlink:href="#t" x="235.10967" y="211.08779"/><use xlink:href="#u" x="240.42396" y="211.08779"/><use xlink:href="#v" x="246.81229" y="211.08779"/><use xlink:href="#j" x="252.87617" y="211.08779"/><use xlink:href="#k" x="256.48989" y="211.08779"/><use xlink:href="#q" x="261.89368" y="211.08779"/><use xlink:href="#w" x="268.3939" y="211.08779"/><use xlink:href="#x" x="274.75986" y="211.08779"/><use xlink:href="#p" x="279.33574" y="211.08779"/></g><g fill="#BF0040"><use xlink:href="#h" x="7.75175" y="225.53298"/><use xlink:href="#i" x="14.93444" y="225.53298"/><use xlink:href="#j" x="20.99832" y="225.53298"/><use xlink:href="#k" x="24.61204" y="225.53298"/></g><g fill="#BF0040"><use xlink:href="#v" x="32.37649" y="225.53298"/><use xlink:href="#u" x="38.44038" y="225.53298"/><use xlink:href="#u" x="44.82871" y="225.53298"/><use xlink:href="#v" x="51.21705" y="225.53298"/><use xlink:href="#x" x="57.28093" y="225.53298"/><use xlink:href="#k" x="61.85681" y="225.53298"/></g><use xlink:href="#r" x="69.62127" y="225.53298" fill="#BF0040"/><use xlink:href="#a" x="78.67327" y="223.25106" fill="#BF0040"/><use xlink:href="#b" x="77.47616" y="225.53298" fill="#BF0040"/><use xlink:href="#c" x="85.12874" y="225.53298" fill="#BF0040"/><use xlink:href="#d" x="92.6023" y="225.53298" fill="#BF0040"/></svg>