<svg xmlns="http://www.w3.org/2000/svg" xmlns:xlink="http://www.w3.org/1999/xlink" width="93.573pt" height="130.827pt" viewBox="0 0 93.573 130.827"><defs><path id="a" d="M.23438-1.92187c0 1.28125.45312 2 1.46875 2 .98437 0 1.45312-.60938 1.45312-1.39063 0-.84375-.53125-1.26562-1.1875-1.26562-.4375 0-.78125.28125-.96875.5 0-.9375.25-1.8125.8125-1.8125.26563 0 .45313.25.54688.625.03125.07812.09375.15625.20312.15625.14063 0 .39063-.10938.39063-.32813 0-.26562-.32813-.6875-1.09375-.6875-1 0-1.625.73438-1.625 2.20313m.76562.5c0-.35938.25-.76563.70313-.76563.35937 0 .6875.29688.6875 1 0 .59375-.20313 1.01563-.67188 1.01563-.48437 0-.71875-.5625-.71875-1.25m0 0"/><path id="b" d="M.23438-2.03125c0 1.17188.375 2.10938 1.4375 2.10938 1.04687 0 1.42187-.9375 1.42187-2.10938 0-1.15625-.375-2.09375-1.42187-2.09375-1.0625 0-1.4375.9375-1.4375 2.09375m.76562 0c0-.84375.125-1.85937.67188-1.85937.53125 0 .65625 1.01562.65625 1.85937 0 .85938-.125 1.85938-.65625 1.85938-.54688 0-.67188-1-.67188-1.85938m0 0"/><path id="c" d="M.21875-3.28125c0 .45313.375.82813.84375.82813.45313 0 .84375-.375.84375-.82813 0-.45312-.39062-.84375-.84375-.84375-.46875 0-.84375.39063-.84375.84375m.34375 0c0-.3125.23438-.54687.5-.54687.26563 0 .5.23437.5.54687s-.25.53125-.5.53125c-.26562 0-.5-.21875-.5-.53125m0 0"/><path id="g" d="M.65625 0h2.0625v-.20312l-.45312-.03126C2.125-.25 2.0625-.29687 2.0625-.51561v-3.5625L2.01563-4.125l-1.34375.21875v.17188l.48437.07812c.125.01563.17188.0625.17188.26563v2.875c0 .21874-.0625.26562-.20313.28124l-.46875.03126Zm0 0"/><path id="h" d="m.3125.76563.15625.125c.29688-.28126.8125-.71875.8125-1.20313 0-.3125-.17187-.57812-.46875-.57812-.23437 0-.35937.1875-.35937.32812 0 .23438.17187.34375.17187.59375C.625.29688.5.54688.3125.76563m0 0"/><path id="i" d="M.26563-.67187c0 .25.35937.75 1.28125.75 1.0625 0 1.48437-.625 1.48437-1.375 0-.71875-.40625-1.29688-1.29687-1.29688-.35938 0-.71875.15625-.92188.32813l.10938-1c.03124-.1875.0625-.20313.20312-.20313h1.54688l.1875-.51562-.03125-.0625H.67188L.60938-4l-.125 2.01563.20312.125c.23438-.28126.48438-.42188.79688-.42188.39062 0 .76562.29688.76562 1.0625 0 .60938-.20312 1.04688-.67187 1.04688-.35938 0-.54688-.25-.70313-.6875-.03125-.10938-.10937-.17188-.23437-.17188-.15626 0-.375.14063-.375.35938m0 0"/><path id="d" d="M.51563-3.45312c0 1.20312.40625 2.20312 1.03125 2.75C2.25-.09376 3.25.1875 4.375.1875c.89063 0 1.85938-.21875 2.5625-.46875l.57813-2.45312c.10937-.40625.17187-.57813.375-.60938l.53125-.04687L8.5-3.73437H5.29688l-.0625.34375.90625.07812c.15625.01563.23437.09375.23437.28125 0 .07813 0 .17188-.03125.29688l-.4375 1.82812c-.09375.35938-.25.65625-1.51562.65625-1.46875 0-2.53125-.96875-2.53125-3.10937 0-1.9375.9375-4.78125 3.84375-4.78125 1.57812 0 1.84375.92187 1.92187 2.0625h.35938l.45312-1.89063c-.73437-.39062-1.70312-.60937-2.73437-.60937-1.84375 0-3.1875.67187-4.04688 1.76562C.85938-5.79687.51563-4.53125.51563-3.45312m0 0"/><path id="e" d="M0 0h3.3125l.07813-.34375-.71875-.0625c-.20313 0-.29688-.10937-.29688-.29687 0-.09376.01563-.1875.03125-.29688l.70313-3.14062h4.04687L6.4375-1c-.09375.40625-.21875.54688-.51562.57813l-.65625.07812L5.1875 0H8.5l.07813-.34375-.70313-.0625c-.21875 0-.3125-.10937-.3125-.3125q0-.11718.04688-.28125L9.0625-7.375c.10938-.39062.1875-.57812.5-.60937l.67188-.04688.07812-.34375H7l-.09375.34375.71875.04688c.21875.01562.29688.14062.29688.34375 0 .07812 0 .17187-.03125.26562l-.625 2.78125H3.21875L3.85938-7.375c.09375-.39062.20312-.57812.51562-.60937l.67188-.04688L5.125-8.375H1.79688l-.07813.34375.71875.04688c.20313.01562.29688.14062.29688.34375 0 .07812-.01563.17187-.04688.26562L1.23438-1c-.09376.40625-.20313.54688-.5.57813L.0625-.34375Zm0 0"/><path id="f" d="M.25 0h3.32813l.0625-.34375-.71875-.0625c-.20313 0-.29688-.125-.29688-.3125 0-.07812.01563-.1875.04688-.28125l1.4375-6.375c.09375-.375.20312-.57812.51562-.60937l.67188-.04688L5.375-8.375H2.0625l-.09375.34375.71875.04688c.21875.01562.29688.14062.29688.34375 0 .07812 0 .17187-.03125.26562L1.5-1c-.09375.375-.21875.54688-.5.57813l-.67187.07812Zm0 0"/><path id="j" d="M.29688-1.45312c0 1.01562.5 1.53125 1.40625 1.53125.42187 0 1-.21875 1.17187-.875l-.1875-.09376C2.5-.45312 2.26563-.25 1.8125-.25 1.09375-.25.92188-1 .92188-1.5625c0-.90625.35937-1.26562.78125-1.26562.28124 0 .45312.1875.57812.53125.03125.09375.07813.14062.1875.14062.125 0 .35938-.0625.35938-.29687 0-.28125-.40625-.59375-1.0625-.59375-1.09375 0-1.46875.78125-1.46875 1.59375m0 0"/><path id="k" d="M.1875 0h1.48438v-.17187c-.4375-.03126-.45313-.04688-.45313-.35938v-1.42187c0-.15626 0-.23438.04688-.3125.10937-.25.375-.45313.71875-.45313.51562 0 .57812.375.57812.75v1.4375c0 .3125-.01562.32813-.45312.35938V0h1.48437v-.17187c-.4375-.03126-.45312-.04688-.45312-.35938v-1.42187c0-.15626 0-.23438.04687-.32813.07813-.23437.34375-.4375.6875-.4375.375 0 .60938.21875.60938.75v1.4375c0 .3125-.01563.32813-.45313.35938V0h1.48438v-.17187c-.4375-.03126-.46875-.04688-.46875-.35938v-1.54687c0-.60938-.32813-.96875-.89063-.96875-.5 0-.85937.32812-1.07812.46875-.14063-.28125-.375-.46875-.79688-.46875-.46875 0-.84375.3125-1.0625.46875l-.0625-.46875-.9375.15625V-2.75l.23438.04688c.15625.01562.20312.04687.20312.26562v1.90625c0 .3125-.03125.32813-.46875.35938Zm0 0"/></defs><path fill="none" stroke="red" stroke-miterlimit="10" stroke-width=".39669" d="M65.84766 112.83984V105.5h7.33593"/><path fill="#66b2b2" d="M18.14844 112.83984h11.0039c0-3.93359-2.10156-7.5703-5.5078-9.53515Zm0 0"/><path fill="none" stroke="#000" stroke-miterlimit="10" stroke-width=".39669" d="M29.15236 112.83984c0-3.93359-2.10156-7.5703-5.5078-9.53515"/><use xlink:href="#a" x="31.87057" y="104.40457"/><use xlink:href="#b" x="35.19041" y="104.40457"/><use xlink:href="#c" x="38.51025" y="104.40457"/><path fill="none" stroke="#000" stroke-miterlimit="10" stroke-width=".39669" d="M18.14846 112.83984H73.1836v-95.3984Zm0 0"/><use xlink:href="#d" x="4.29739" y="125.96618"/><use xlink:href="#e" x="77.73726" y="125.77306"/><use xlink:href="#f" x="77.73726" y="12.88819"/><use xlink:href="#g" x="36.16596" y="121.51151"/><use xlink:href="#h" x="39.48581" y="121.51151"/><use xlink:href="#i" x="41.89028" y="121.51151"/><use xlink:href="#j" x="46.57178" y="121.51151"/><use xlink:href="#k" x="49.57576" y="121.51151"/></svg>