<svg xmlns="http://www.w3.org/2000/svg" xmlns:xlink="http://www.w3.org/1999/xlink" width="262.157" height="158.204" viewBox="0 0 262.157 158.204"><defs><path id="a" d="M.32813-.14062.45313 0h4.51562L5.375-1.57812l-.32812-.0625C4.78125-1.07812 4.59375-1 4.17188-1H1.5c.17188-.46875.67188-1.15625 1.71875-1.8125C4.32813-3.51562 5.0625-4.01562 5.0625-5.15625c0-1.45312-1-1.96875-2.20312-1.96875-1.40625 0-2.29688.78125-2.29688 1.48438 0 .40625.46875.59375.71875.59375.20313 0 .3125-.10938.375-.32813.15625-.76562.54688-1.34375 1.14063-1.34375.67187 0 .90625.60938.90625 1.35938 0 .92187-.375 1.64062-1.40625 2.5C.92188-1.6875.45313-.90625.32813-.14062m0 0"/><path id="b" d="M.46875-1.15625c0 .4375.625 1.28125 2.20313 1.28125C4.5.125 5.25-.95312 5.25-2.25 5.25-3.48437 4.53125-4.5 3-4.5c-.64062 0-1.23437.28125-1.60937.57813l.21874-1.71875c.04688-.3125.09376-.34375.32813-.34375H4.625l.32813-.90625L4.89063-7H1.15625l-.09375.09375-.21875 3.48438.34375.21875c.42188-.5.82813-.73438 1.375-.73438.6875 0 1.32813.51563 1.32813 1.8125 0 1.07813-.35938 1.82813-1.15625 1.82813-.60938 0-.95313-.4375-1.21875-1.1875-.0625-.1875-.1875-.3125-.40625-.3125-.26563 0-.64063.25-.64063.64062m0 0"/><path id="c" d="M.39063-5.67187c0 .78125.64062 1.4375 1.4375 1.4375.78125 0 1.46875-.65625 1.46875-1.4375S2.60938-7.125 1.82813-7.125c-.79688 0-1.4375.67188-1.4375 1.45313m.59375 0c0-.54688.40625-.95313.84375-.95313.45312 0 .875.40625.875.95313 0 .54687-.42188.9375-.875.9375S.98438-5.125.98438-5.67187m0 0"/><path id="g" d="M.3125-1.15625C.3125-.71875.95313.125 2.625.125c1.59375 0 2.57813-.75 2.57813-2.09375 0-1.4375-1.26563-1.79687-1.76563-1.85937V-3.875c.5625-.10937 1.46875-.5 1.46875-1.53125 0-1.28125-1.07812-1.71875-2.1875-1.71875-1.3125 0-2.15625.70313-2.15625 1.3125 0 .375.45313.5625.65625.5625.17188 0 .28125-.09375.32813-.26562.23437-.75.57812-1.20313 1.125-1.20313.73437 0 .90625.76563.90625 1.28125 0 .51563-.14063 1.40625-.98438 1.40625-.45312 0-.78125-.125-.95312-.125-.17188 0-.23438.125-.23438.35938 0 .20312.0625.34375.23438.34375.17187 0 .48437-.10938.95312-.10938.73438 0 1.25.54688 1.25 1.625 0 1.17188-.51562 1.64063-1.20312 1.64063-.59375 0-1-.4375-1.25-1.20313-.0625-.20312-.1875-.3125-.375-.3125-.28126 0-.70313.23438-.70313.65625m0 0"/><path id="d" d="M-1.73437 1.92188v.53125c.21874.01562.46875.04687.6875.04687.95312 0 2.39062-.25 3.23437-.82812.98438-.6875 1.71875-1.84375 2.20313-3.95313l2.45312-10.54687c.15625-.64063.32813-.92188.875-.96875l1.15625-.09375.15625-.60938H3.25l-.125.60938 1.21875.09375c.39063.01562.5625.20312.5625.54687 0 .10938-.01562.25-.0625.42188l-2.29687 9.8125C2.07813-1.04687 1.51563.26563.875.875c-.71875.64063-1.5625.9375-2.60937 1.04688m0 0"/><path id="e" d="M0 0h5.73438l.125-.60937-1.25-.07813c-.34375-.03125-.5-.23437-.5-.5625 0-.125.01562-.3125.0625-.48437l1.3125-5.82813h.04687c.95313 1.96875 1.98438 4.0625 3.25 5.79688 1 1.35937 1.92188 1.8125 3.53125 1.85937l1.01563.01563.15625-.625C12.28125-.625 11.79688-1.1875 11.03125-2.125 9.625-3.875 8.20313-6.42187 7.32813-8.26562c1.90625-1.59375 3.64062-3.03125 5.5625-4.375 1.20312-.84375 1.6875-1.14063 3.39062-1.25l.07813-.60938h-5.20313l-.09375.60938.79688.0625c.21875.03125.29687.10937.29687.25 0 .10937-.10937.26562-.3125.4375L5.64063-7.79687h-.09375l1.125-4.95313c.15625-.65625.35937-1 .89062-1.04687l1.15625-.09375.14063-.60938H3.125l-.15625.60938 1.25.09375c.35938.01562.51563.23437.51563.57812 0 .125-.03125.28125-.07813.46875L2.14063-1.73437c-.15625.67187-.35938.95312-.875 1l-1.15625.125Zm0 0"/><path id="f" d="M.45313 0h10.71875l1.0625-3.67187h-.625c-1.0625 2.57812-2.01563 2.9375-4.39063 2.9375-2.14062 0-2.60937-.20313-2.60937-.875 0-.21876.07812-.53125.15625-.95313L7.10938-12.75c.1875-.6875.35937-1 .89062-1.04687l1.25-.09375.15625-.60938H3.5625l-.15625.60938 1.25.09375c.35938.01562.51563.20312.51563.54687 0 .14063-.01563.29688-.0625.5L2.59375-1.73437c-.1875.73437-.35937.95312-.875 1l-1.15625.125Zm0 0"/><path id="h" d="M.51563-2.51562C.51563-.76562 1.375.125 2.9375.125c.75 0 1.73438-.375 2.03125-1.51562l-.3125-.14063c-.32812.73438-.73437 1.10938-1.51562 1.10938-1.25 0-1.53125-1.3125-1.53125-2.29688 0-1.54687.60937-2.17187 1.32812-2.17187.48438 0 .78125.34375 1 .90625.0625.17187.14063.26562.32813.26562.21875 0 .625-.125.625-.53125 0-.48437-.70313-1.01562-1.82813-1.01562-1.90625 0-2.54687 1.34375-2.54687 2.75m0 0"/><path id="i" d="M.32813 0h2.5625v-.29687c-.75-.0625-.78125-.07813-.78125-.625V-3.375c0-.26562 0-.40625.07812-.54687.20313-.42188.65625-.78125 1.23438-.78125.90625 0 1.01562.67187 1.01562 1.3125v2.46875c0 .54687-.03125.5625-.79687.625V0h2.5625v-.29687c-.75-.0625-.78125-.07813-.78125-.625V-3.375c0-.26562.01562-.39062.07812-.5625.15625-.42187.60938-.76562 1.1875-.76562.67188 0 1.0625.375 1.0625 1.3125v2.46875c0 .54687-.03125.5625-.78125.625V0h2.5625v-.29687c-.75-.0625-.79687-.07813-.79687-.625v-2.67188c0-1.0625-.5625-1.67187-1.5625-1.67187-.85938 0-1.46875.5625-1.84375.79687-.25-.48437-.65625-.79687-1.39063-.79687-.79687 0-1.45312.53125-1.82812.79687l-.09375-.79687L.39063-5v.26563l.39062.04687c.26563.04688.34375.09375.34375.46875v3.29688c0 .54687-.03125.5625-.79687.625Zm0 0"/></defs><path fill="none" stroke="red" stroke-miterlimit="10" stroke-width=".3965" d="m188.76953 127.48828-10.98828-6.34375 6.34375-10.9922 10.99219 6.34376-6.34766 10.9922"/><path fill="#99F" d="m23.91016 32.3086 16.48828 9.51953c1.39062-2.41016 2.23828-5.09766 2.48047-7.8672Zm0 0"/><path fill="none" stroke="#000" stroke-miterlimit="10" stroke-width=".3965" d="M40.3984 41.8281c1.39062-2.41016 2.23828-5.09766 2.48046-7.86719"/><use xlink:href="#a" x="49.01341" y="46.11"/><use xlink:href="#b" x="54.75662" y="46.11"/><use xlink:href="#c" x="60.49982" y="46.11"/><path fill="none" stroke="#000" stroke-miterlimit="10" stroke-width=".3965" d="m23.9101 32.30857 164.85943 95.17971 44.41798-76.93362Zm0 0"/><use xlink:href="#d" x="7.67042" y="21.93165"/><use xlink:href="#e" x="196.65157" y="149.86695"/><use xlink:href="#f" x="241.06909" y="42.67627"/><use xlink:href="#g" x="75.50114" y="94.90548"/><use xlink:href="#h" x="83.59864" y="94.90548"/><use xlink:href="#i" x="88.79541" y="94.90548"/></svg>