<svg xmlns="http://www.w3.org/2000/svg" xmlns:xlink="http://www.w3.org/1999/xlink" width="135.011pt" height="124.57pt" viewBox="0 0 135.011 124.57"><defs><path id="a" d="M.17188-3.57812c0 .23437.21875.3125.32812.3125.07813 0 .17188-.04688.1875-.14063.07813-.45312.25-.65625.5-.65625.26563 0 .375.26563.375.60938 0 .39062-.26562.75-.53125.96875-.35937.26562-.48437.42187-.48437.70312 0 .375.3125.57813.64062.57813.1875 0 .42188-.03126.57813-.17188l-.04688-.10937c-.04687 0-.10937.01562-.17187.01562-.14063 0-.42188-.10937-.42188-.4375 0-.26562.15625-.48437.46875-.6875.20313-.15625.57813-.375.57813-.85937 0-.54688-.40625-.8125-.95313-.8125-.79687 0-1.04687.5-1.04687.6875M.76563-.29687c0 .21875.17187.375.39062.375s.35938-.15625.35938-.375c0-.23438-.14063-.39063-.35938-.39063s-.39062.15625-.39062.39063m0 0"/><path id="h" d="M.29688-1.45312c0 1.01562.5 1.53125 1.40625 1.53125.42187 0 .98437-.21875 1.15625-.875L2.67188-.875c-.1875.42188-.42188.625-.85938.625-.71875 0-.89062-.75-.89062-1.3125 0-.89062.35937-1.25.78125-1.25.26562 0 .4375.1875.5625.51563.04687.09375.07812.15625.1875.15625.125 0 .35937-.07813.35937-.3125 0-.26563-.39062-.57813-1.04687-.57813-1.10938 0-1.46875.78125-1.46875 1.57813m0 0"/><path id="i" d="M.1875 0h1.46875v-.17187c-.42187-.03126-.4375-.04688-.4375-.35938V-1.9375c0-.15625 0-.23437.04688-.32812.10937-.23438.375-.4375.70312-.4375.51563 0 .59375.375.59375.75v1.42187c0 .3125-.03125.32813-.46875.35938V0h1.48438v-.17187C3.14063-.20313 3.125-.21875 3.125-.53125V-1.9375c0-.15625 0-.23437.04688-.32812.07812-.25.34375-.4375.6875-.4375.375 0 .60937.21875.60937.75v1.42187c0 .3125-.03125.32813-.46875.35938V0h1.48438v-.17187c-.4375-.03126-.45313-.04688-.45313-.35938V-2.0625c0-.60937-.32812-.96875-.90625-.96875-.48437 0-.84375.32813-1.0625.46875-.14062-.28125-.375-.46875-.79687-.46875-.46875 0-.84375.3125-1.04688.46875l-.0625-.46875-.9375.15625v.14063l.23438.03125c.15625.03125.20312.0625.20312.28125v1.89062c0 .3125-.03125.32813-.46875.35938Zm0 0"/><path id="b" d="M0 0h3.4375L3.5-.34375l-.84375-.07812c-.20312-.01563-.29687-.10938-.29687-.29688q0-.11718.04687-.28125l.53125-2.375h.90625c1.03125 0 1.98438-.15625 2.67188-.57812.78125-.46875 1.21875-1.29688 1.21875-2.1875 0-.82813-.375-1.45313-.96875-1.79688-.5625-.3125-1.34375-.42187-2.14063-.42187H1.79688l-.09376.34375.73438.0625c.20313 0 .28125.10937.28125.3125 0 .07812 0 .17187-.03125.28125L1.23438-1c-.10938.40625-.20313.54688-.5.57813L.0625-.34375Zm3.10938-4.0625c0-.07812.01562-.15625.04687-.26562l.73438-3.1875c.0625-.3125.14062-.4375.76562-.4375 1.1875 0 1.8125.57812 1.8125 1.59375C6.46875-4.625 5.5-3.8125 3.875-3.8125c-.625 0-.76562-.0625-.76562-.25m0 0"/><path id="c" d="M.76563-3.26562c0 1.79687.9375 3.15625 2.875 3.39062.5625 1.0625 1.78125 2.32813 3.29687 2.32813.3125 0 .70313-.07813.90625-.1875L7.8125 2.0625C6.64063 2.04688 5.75 1.14063 5.04688.125 7.51563-.21875 8.9375-2.65625 8.9375-5c0-2.48437-1.5-3.54687-3.5-3.54687-3.10937 0-4.67187 2.85937-4.67187 5.28125m1.28125.48437c0-2.15625 1.04687-5.34375 3.4375-5.34375 1.32812 0 2.1875.78125 2.1875 2.5 0 2.9375-1.39063 5.375-3.46875 5.375-1.3125 0-2.15625-.84375-2.15625-2.53125m0 0"/><path id="d" d="M0 0h3.3125l.0625-.34375-.71875-.0625c-.20312-.01562-.29687-.10937-.29687-.29687 0-.07813.01562-.1875.04687-.29688l.65625-2.9375h.73438c1.17187 0 1.32812.28125 1.32812 1.70313C5.125-.76562 5.125 0 6.40625 0h.9375l.10938-.34375C6.60938-.46875 6.3125-.5 6.3125-2.0625c0-1.23437-.09375-1.75-1.10937-2.09375C6.6875-4.35937 7.6875-5.21875 7.6875-6.42187c0-.85938-.375-1.9375-2.64062-1.9375h-3.25l-.09376.34375.73438.0625c.20313 0 .28125.10937.28125.3125 0 .07812 0 .17187-.03125.28125L1.23438-1c-.10938.42188-.20313.54688-.5.57813L.0625-.34375Zm3.15625-4.35937.71875-3.125c.07813-.34375.125-.46875 1.03125-.46875.79688 0 1.51563.35937 1.51563 1.40625 0 1.4375-.9375 2.1875-2.48438 2.1875Zm0 0"/><path id="e" d="M.1875-.65625c0 .23438.35938.73438 1.32813.73438C2.42188.07813 3-.35937 3-1.125c0-.84375-.73437-1.04687-1.01562-1.07812v-.03125c.32812-.0625.84375-.28125.84375-.875 0-.75-.625-1-1.26563-1-.75 0-1.23437.42187-1.23437.76562 0 .21875.25.32813.375.32813.09374 0 .15624-.0625.1875-.15625.14062-.4375.34375-.6875.65625-.6875.42187 0 .51562.4375.51562.73437 0 .29688-.07812.8125-.5625.8125-.26562 0-.45312-.07812-.5625-.07812-.09375 0-.125.07812-.125.20312s.03125.20313.125.20313c.10938 0 .29688-.07813.5625-.07813.40625 0 .70313.32813.70313.95313 0 .67187-.28125.9375-.6875.9375-.32813 0-.57813-.25-.71875-.6875-.03126-.10938-.10938-.1875-.21876-.1875-.15624 0-.39062.14062-.39062.39062m0 0"/><path id="f" d="m.3125.75.15625.14063c.29688-.28126.8125-.71875.8125-1.20313 0-.3125-.17187-.57812-.46875-.57812-.23437 0-.35937.1875-.35937.34375 0 .21874.17187.32812.17187.57812S.5.54688.3125.75m0 0"/><path id="g" d="M.21875-2.71875c0 .82813.51563 1.25 1.15625 1.25.45313 0 .78125-.26562.96875-.5 0 .9375-.23437 1.79688-.79687 1.79688-.26563 0-.45313-.23438-.54688-.60938C.96875-.85937.90625-.9375.79688-.9375c-.14063 0-.39063.10938-.39063.32813 0 .26562.32813.6875 1.09375.6875 1.03125 0 1.60938-.79688 1.60938-2.20313 0-1.26562-.4375-1.98437-1.45313-1.98437-.96875 0-1.4375.60937-1.4375 1.39062m.75-.125c0-.59375.20313-1.01562.67188-1.01562.48437 0 .70312.54687.70312 1.25 0 .35937-.23437.75-.6875.75-.35937 0-.6875-.29688-.6875-.98438m0 0"/></defs><path fill="none" stroke="red" stroke-miterlimit="10" stroke-width=".3956" d="m78.45703 101.5664 2.5039-6.875 6.875 2.50391"/><path fill="#66b2b2" d="m16.5664 79.03906 10.3125 3.7539c1.14454-3.14452.79297-6.64452-.96093-9.49608Zm0 0"/><path fill="none" stroke="#000" stroke-miterlimit="10" stroke-width=".3956" d="M26.8789 82.79297c1.14453-3.14453.79297-6.64453-.96094-9.4961"/><use xlink:href="#a" x="31.77226" y="79.485"/><path fill="none" stroke="#000" stroke-miterlimit="10" stroke-width=".3956" d="m16.5664 79.03906 68.76563 25.03125 31.53907-86.64844Zm0 0"/><use xlink:href="#b" x="4.28561" y="91.94076"/><use xlink:href="#c" x="89.87662" y="117.163"/><use xlink:href="#d" x="121.41261" y="12.88189"/><use xlink:href="#e" x="43.23032" y="42.80371"/><use xlink:href="#f" x="46.54107" y="42.80371"/><use xlink:href="#g" x="48.93894" y="42.80371"/><use xlink:href="#h" x="53.60761" y="42.80371"/><use xlink:href="#i" x="56.60335" y="42.80371"/><use xlink:href="#e" x="44.33225" y="100.20622"/><use xlink:href="#h" x="49.00016" y="100.20622"/><use xlink:href="#i" x="51.9959" y="100.20622"/></svg>