<svg xmlns="http://www.w3.org/2000/svg" xmlns:xlink="http://www.w3.org/1999/xlink" width="80.782pt" height="146.027pt" viewBox="0 0 80.782 146.027"><defs><path id="a" d="M.17188-3.4375c0 .21875.20312.28125.29687.28125s.17188-.03125.1875-.125c.09375-.4375.25-.625.48438-.625.26562 0 .375.25.375.57813 0 .375-.26563.73437-.51563.92187-.34375.26563-.46875.42188-.46875.6875 0 .35938.29688.5625.60938.5625.1875 0 .40625-.03125.5625-.15625l-.04688-.125c-.04687.01563-.10937.03125-.17187.03125-.125 0-.39063-.10937-.39063-.4375 0-.25.14063-.45312.4375-.65625.1875-.14062.54688-.35937.54688-.82812 0-.53125-.375-.78125-.90625-.78125-.76563 0-1 .48437-1 .67187M.75-.29687c0 .21875.14063.35937.35938.35937.20312 0 .35937-.14062.35937-.35937 0-.20313-.15625-.35938-.35937-.35938C.89062-.65625.75-.5.75-.29687m0 0"/><path id="g" d="M.28125-1.39062C.28125-.42187.76563.0625 1.64063.0625c.40625 0 .95312-.20312 1.10937-.82812l-.17187-.07813c-.17188.40625-.40625.60938-.82813.60938-.70312 0-.85937-.71875-.85937-1.26563 0-.875.34375-1.21875.75-1.21875.26562 0 .42187.1875.54687.51563.03125.09375.07813.14062.1875.14062.10938 0 .32813-.07812.32813-.29687 0-.26563-.375-.5625-1-.5625-1.0625 0-1.42188.75-1.42188 1.53125m0 0"/><path id="h" d="M.1875 0h1.42188v-.17187C1.1875-.20313 1.17188-.20313 1.17188-.5v-1.375c0-.14062 0-.21875.04687-.29687.10938-.23438.35938-.4375.6875-.4375.5 0 .5625.375.5625.73437V-.5c0 .29688-.03125.29688-.45312.32813V0H3.4375v-.17187C3.03125-.20313 3-.20313 3-.5v-1.375c0-.14062.01563-.21875.04688-.3125.09375-.23437.34375-.42187.67187-.42187.35938 0 .57813.20312.57813.73437V-.5c0 .29688-.01563.29688-.4375.32813V0h1.42187v-.17187C4.875-.20313 4.84375-.20313 4.84375-.5V-2c0-.57812-.3125-.92187-.85937-.92187-.48438 0-.82813.3125-1.03125.45312-.14063-.28125-.35938-.45312-.76563-.45312-.45312 0-.8125.29687-1.01562.45312l-.0625-.45312-.89063.15625v.14062l.21875.03125c.14063.01563.1875.04688.1875.25V-.5c0 .29688-.01562.29688-.4375.32813Zm0 0"/><path id="b" d="M0 0h2.75l.0625-.32812L2.34375-.375C2-.39062 1.8125-.48437 1.8125-.73437c0-.60938.125-.96875.25-1.57813L3.125-7.04687h.03125L4.54688-.14062H4.875l4.53125-6.90625h.03125L8-.96875c-.09375.40625-.20312.53125-.48437.5625L6.875-.32812 6.8125 0h3.15625l.0625-.32812-.67187-.07813c-.21875-.01562-.29688-.10937-.29688-.29687 0-.07813.01563-.15626.03125-.26563L10.5-7.07812c.09375-.39063.1875-.5625.48438-.57813l.64062-.04687.07813-.34375H9.4375c-.625 1.0625-1.3125 2.10937-2.03125 3.1875L5.35938-1.71875h-.03125l-.65625-3.23437C4.4375-6 4.1875-7 4-8.04687H1.75l-.07812.34375.67187.0625c.20313 0 .29688.10937.29688.29687 0 .07813 0 .17188-.03125.26563L1.51563-2.3125C1.375-1.70312 1.23437-1.25 1.09375-.85937.96875-.5.75-.40625.42188-.375L.0625-.32812Zm0 0"/><path id="c" d="M0 0h2.75l.0625-.32812L2.34375-.375C2-.39062 1.8125-.46875 1.8125-.71875c0-.625.125-.98437.25-1.59375l1.09375-4.76562h.03125A710 710 0 0 1 6.42188 0h.75l1.3125-5.73437c.125-.60938.26562-1.0625.40625-1.4375.125-.375.34375-.46875.6875-.5l.35937-.03125L10-8.04687H7.25l-.0625.34375.45313.04687C8-7.625 8.1875-7.51562 8.1875-7.25c0 .42188-.125.90625-.25 1.51563l-.95312 4.21875H6.9375c-1.01562-2.1875-2-4.34375-2.98437-6.53125H1.75l-.07812.34375.67187.0625c.20313 0 .29688.10937.29688.29687 0 .07813 0 .17188-.03125.26563L1.51563-2.3125C1.375-1.70312 1.23437-1.25 1.09375-.85937.96875-.5.76563-.40625.42188-.375L.0625-.32812Zm0 0"/><path id="d" d="M.375-3.14062c0 1.92187 1.09375 3.3125 3.40625 3.3125 2.0625 0 3.0625-1.04688 3.70313-2.20313.64062-1.14062.75-2.32812.75-2.78125 0-2.39062-1.45313-3.42187-3.375-3.42187-1.85938 0-3 1.03125-3.6875 2.14062C.53125-5.01562.375-3.90625.375-3.14062m1.21875.46875c0-.98438.1875-2.0625.71875-3.1875.53125-1.10938 1.35938-1.96875 2.59375-1.96875C6.1875-7.82812 7-7.0625 7-5.42187c0 .67187-.0625 1.625-.54687 2.85937-.46875 1.25-1.26563 2.32813-2.78125 2.32813-1.26563 0-2.07813-.8125-2.07813-2.4375m0 0"/><path id="e" d="M.625 0h1.98438v-.1875l-.4375-.04687c-.14063 0-.20313-.04688-.20313-.26563v-3.42187l-.03125-.03125L.64063-3.75v.17188l.46875.0625c.125.03125.17187.07812.17187.26562V-.5c0 .21875-.0625.26563-.20312.26563L.625-.1875Zm0 0"/><path id="f" d="M.17188-.07812.25 0h2.51563l.21875-.875-.1875-.03125c-.14063.3125-.25.34375-.48438.34375H.82813c.09374-.25.375-.625.95312-1 .625-.39062 1.03125-.67187 1.03125-1.29687 0-.8125-.5625-1.09375-1.23437-1.09375-.78125 0-1.26563.4375-1.26563.82812 0 .21875.25.32813.40625.32813.10938 0 .17188-.0625.20313-.1875.09374-.42188.29687-.73438.625-.73438.375 0 .5.32813.5.75 0 .5-.20313.90625-.76563 1.39063C.51563-.9375.25-.5.17188-.07812m0 0"/><path id="i" d="M.26563-.64062c0 .23437.34375.70312 1.21875.70312C2.5.0625 2.90625-.53125 2.90625-1.25c0-.6875-.39062-1.25-1.23437-1.25-.35938 0-.6875.15625-.90625.32813l.125-.95313c.03124-.17187.04687-.20312.1875-.20312H2.5625l.1875-.5-.04687-.0625H.64063l-.04688.0625-.125 1.92187.1875.125c.23438-.26562.46875-.40625.76563-.40625.375 0 .73437.28125.73437 1.01563 0 .59375-.1875 1.01562-.64062 1.01562-.34375 0-.53125-.25-.67188-.67187C.79688-.92188.73438-1 .625-1c-.15625 0-.35937.14063-.35937.35938m0 0"/></defs><path fill="none" stroke="red" stroke-miterlimit="10" stroke-width=".39586" d="m19.98437 24.53516 6.9336-1.22266 1.22266 6.9336-6.9336 1.21874-1.22266-6.92968"/><path fill="#99F" d="m38.32031 128.52734 2.3086-10.30468c-1.35938-.3047-2.76953-.33594-4.14063-.09375Zm0 0"/><path fill="none" stroke="#000" stroke-miterlimit="10" stroke-width=".39586" d="M40.6289 118.22266c-1.35937-.30469-2.76953-.33594-4.14062-.09375"/><use xlink:href="#a" x="37.95275" y="111.54675"/><path fill="none" stroke="#000" stroke-miterlimit="10" stroke-width=".39586" d="m19.98437 24.53516 18.33594 103.99219 24.9961-111.63282Zm0 0"/><use xlink:href="#b" x="4.2826" y="20.16265"/><use xlink:href="#c" x="33.50886" y="140.93692"/><use xlink:href="#d" x="67.68514" y="12.34971"/><use xlink:href="#e" x="8.86109" y="78.47114"/><use xlink:href="#f" x="12.04659" y="78.47114"/><use xlink:href="#g" x="16.5362" y="78.47114"/><use xlink:href="#h" x="19.41861" y="78.47114"/><use xlink:href="#i" x="35.28204" y="16.27456"/><use xlink:href="#g" x="39.77212" y="16.27456"/><use xlink:href="#h" x="42.65454" y="16.27456"/></svg>