<svg xmlns="http://www.w3.org/2000/svg" xmlns:xlink="http://www.w3.org/1999/xlink" width="141.272pt" height="201.244pt" viewBox="0 0 141.272 201.244"><defs><path id="a" d="M.35938-2.9375c0 1.95313.70312 3.04688 2.25 3.04688 1.51562 0 2.21875-.9375 2.21875-2.125 0-1.29688-.8125-1.95313-1.79688-1.95313-.6875 0-1.20312.4375-1.5.78125.01563-1.45312.375-2.78125 1.25-2.78125.40625 0 .70313.375.84375.95313.04688.125.14063.23437.3125.23437.21875 0 .59375-.17187.59375-.48437 0-.42188-.51562-1.0625-1.67187-1.0625-1.54688 0-2.5 1.125-2.5 3.39062m1.17187.75c0-.5625.375-1.17187 1.07813-1.17187.54687 0 1.0625.46875 1.0625 1.53125C3.67188-.90625 3.375-.25 2.64063-.25c-.75 0-1.10938-.875-1.10938-1.9375m0 0"/><path id="b" d="M.35938-3.10937C.35938-1.3125.9375.10938 2.5625.10938S4.75-1.3125 4.75-3.10937c0-1.79688-.5625-3.21875-2.1875-3.21875S.35938-4.90625.35938-3.10937m1.1875 0c0-1.3125.17187-2.85938 1.01562-2.85938.82813 0 1 1.54688 1 2.85938S3.39063-.25 2.5625-.25c-.84375 0-1.01562-1.54687-1.01562-2.85937m0 0"/><path id="c" d="M.34375-5.04687c0 .70312.57813 1.28125 1.28125 1.28125.6875 0 1.29688-.57813 1.29688-1.28125 0-.6875-.60938-1.28125-1.29688-1.28125-.70312 0-1.28125.59375-1.28125 1.28125m.53125 0c0-.46875.35938-.84375.75-.84375.40625 0 .76563.375.76563.84375 0 .48437-.375.84375-.76563.84375-.40625 0-.75-.35938-.75-.84375m0 0"/><path id="g" d="M1.01563 0H4.1875v-.3125l-.71875-.04687c-.20312-.03125-.3125-.09375-.3125-.4375v-5.46875l-.0625-.0625L1.03125-6v.28125l.73438.10938c.20312.01562.28124.09375.28124.40625v4.40625c0 .34375-.10937.40625-.32812.4375l-.70312.04687Zm0 0"/><path id="h" d="m.46875 1.17188.25.1875C1.17188.9375 1.96875.25 1.96875-.46875c0-.5-.26562-.89062-.70312-.89062-.39063 0-.5625.26562-.5625.5 0 .34375.26562.51562.26562.92187 0 .39063-.20312.78125-.5 1.10938m0 0"/><path id="i" d="M.42188-1.01562c0 .375.54687 1.125 1.95312 1.125C4 .10938 4.65625-.84375 4.65625-2c0-1.09375-.64062-2-1.98437-2-.57813 0-1.10938.25-1.4375.51563l.1875-1.53125c.04687-.28125.07812-.29688.29687-.29688h2.39063l.28125-.8125-.04688-.09375H1.01563L.9375-6.125.75-3.04687l.29688.20312c.375-.4375.75-.65625 1.21875-.65625.60937 0 1.1875.45313 1.1875 1.625 0 .9375-.3125 1.625-1.03125 1.625-.54688 0-.84375-.40625-1.07813-1.0625-.0625-.17187-.17187-.28125-.35937-.28125-.23438 0-.5625.23438-.5625.57813m0 0"/><path id="d" d="M.79688-5.3125c0 1.85938.60937 3.39063 1.57812 4.21875C3.46875-.14062 5 .28125 6.71875.28125c1.375 0 2.875-.32812 3.95313-.71875l.89062-3.76562c.15625-.64063.25-.89063.57813-.9375l.8125-.07813.10937-.53125H8.15625l-.10937.53125 1.39062.125c.26563.01563.375.14063.375.4375 0 .10938-.01562.25-.0625.45313l-.67187 2.8125C8.9375-.85937 8.70313-.375 6.76563-.375 4.5-.375 2.85938-1.89062 2.85938-5.17187c0-2.98438 1.4375-7.35938 5.90625-7.35938 2.4375 0 2.85937 1.42188 2.96875 3.1875h.5625l.67187-2.90625c-1.125-.625-2.625-.9375-4.1875-.9375-2.85937 0-4.92187 1.03125-6.21875 2.70313C1.32813-8.92187.79688-6.95312.79688-5.3125m0 0"/><path id="e" d="M0 0h5.09375l.125-.53125-1.10937-.07812c-.32813-.03126-.46875-.1875-.46875-.48438 0-.14062.03125-.28125.0625-.45312l1.07812-4.8125H11l-1.09375 4.8125C9.75-.90625 9.57813-.6875 9.125-.65625l-1.03125.125L7.98438 0h5.10937l.10938-.53125-1.09375-.07812c-.32813-.03126-.46875-.1875-.46875-.5 0-.125.01562-.26563.0625-.4375l2.23437-9.79688c.15625-.60937.29688-.89062.78125-.9375l1.03125-.07812.10938-.53125h-5.09375l-.14063.53125 1.10938.07812c.32812.03125.45312.20313.45312.51563q0 .1875-.04687.42187L11.1875-7.0625H4.95313l.96875-4.28125c.17187-.60937.32812-.89062.79687-.9375L7.75-12.35937l.125-.53125H2.78125l-.14062.53125 1.10937.07812c.3125.03125.45313.20313.45313.51563 0 .125-.01563.26562-.0625.42187L1.90625-1.54687c-.15625.64062-.3125.85937-.78125.89062l-1.03125.125Zm0 0"/><path id="f" d="M.39063 0H5.5l.10938-.53125L4.5-.60937c-.3125-.03126-.45312-.20313-.45312-.5 0-.125.01562-.28126.0625-.4375l2.21875-9.79688c.14062-.57812.3125-.89062.79687-.9375l1.03125-.07812.10938-.53125H3.17188l-.14063.53125 1.10938.07812c.32812.03125.45312.21875.45312.51563q0 .1875-.04687.42187l-2.25 9.79688c-.14063.59375-.3125.85937-.76563.89062L.5-.53125Zm0 0"/><path id="j" d="M.45313-2.23437c0 1.54687.76562 2.34375 2.15625 2.34375.65625 0 1.54687-.34375 1.79687-1.34375l-.28125-.125c-.28125.65625-.64062.98437-1.32812.98437-1.10938 0-1.375-1.15625-1.375-2.03125 0-1.39062.54687-1.9375 1.1875-1.9375.4375 0 .70312.29688.89062.8125.0625.14063.10938.23438.29688.23438s.54687-.125.54687-.48438c0-.42187-.625-.89062-1.625-.89062-1.70312 0-2.26562 1.1875-2.26562 2.4375m0 0"/><path id="k" d="M.29688 0H2.5625v-.26562C1.90625-.3125 1.875-.34375 1.875-.8125v-2.17187c0-.25 0-.375.0625-.5.1875-.375.59375-.6875 1.10938-.6875.79687 0 .89062.57812.89062 1.15625V-.8125c0 .46875-.03125.5-.70312.54688V0h2.28125v-.26562C4.84375-.3125 4.8125-.34375 4.8125-.8125v-2.17187c0-.25.01563-.35938.07813-.51563.125-.375.53125-.67187 1.04687-.67187.59375 0 .95313.32812.95313 1.15625V-.8125c0 .46875-.03125.5-.70313.54688V0h2.26563v-.26562C7.79688-.3125 7.75-.34375 7.75-.8125v-2.375c0-.9375-.5-1.48437-1.375-1.48437-.76562 0-1.3125.5-1.64062.70312C4.5-4.39062 4.15625-4.67187 3.5-4.67187c-.71875 0-1.29687.46875-1.625.70312l-.09375-.70312-1.4375.23437v.23438l.34375.04687C.9375-4.125 1-4.07812 1-3.75v2.9375c0 .46875-.03125.5-.70312.54688Zm0 0"/></defs><path fill="none" stroke="red" stroke-miterlimit="10" stroke-width=".39646" d="M111.67187 173.28125h-11.27734V162h11.27734v11.28125"/><path fill="#99F" d="M27.07031 173.28125h16.91797c0-6.04687-3.22656-11.63281-8.46484-14.65625Zm0 0"/><path fill="none" stroke="#000" stroke-miterlimit="10" stroke-width=".39646" d="M43.9883 173.28125c0-6.04687-3.22656-11.63281-8.46484-14.65625"/><use xlink:href="#a" x="46.70432" y="161.16103"/><use xlink:href="#b" x="51.80878" y="161.16103"/><use xlink:href="#c" x="56.91324" y="161.16103"/><path fill="none" stroke="#000" stroke-miterlimit="10" stroke-width=".39646" d="M27.07033 173.28125h84.60154V26.63285Zm0 0"/><use xlink:href="#d" x="6.60695" y="193.46755"/><use xlink:href="#e" x="118.67743" y="193.17008"/><use xlink:href="#f" x="118.67743" y="19.63235"/><use xlink:href="#g" x="54.76678" y="186.61884"/><use xlink:href="#h" x="59.87123" y="186.61884"/><use xlink:href="#i" x="63.56825" y="186.61884"/><use xlink:href="#j" x="70.76434" y="186.61884"/><use xlink:href="#k" x="75.38313" y="186.61884"/></svg>