<svg xmlns="http://www.w3.org/2000/svg" xmlns:xlink="http://www.w3.org/1999/xlink" width="208.008pt" height="256.143pt" viewBox="0 0 208.008 256.143"><defs><path id="a" d="m-.03125-3.625.0625.17188 5.6875-.76563 5.6875.76563.04688-.17188-5.73438-1.0625Zm0 0"/><path id="b" d="M-.125 0h1.39063l.04687-.20312-.34375-.01563C.89063-.23437.85938-.26562.85938-.32812c0-.03125.01562-.07813.03124-.125.1875-.35938.35938-.71875.57813-1.10938h1.29688l.125 1.17188s-.03125.15625-.15625.17187l-.3125.01563L2.375 0H4l.04688-.20312-.23438-.01563c-.1875-.01562-.20312-.17187-.23437-.375L3.17188-4.1875h-.5625L1.57813-2.375C1.25-1.78125.75-.89062.54688-.5625c-.15626.26563-.25.3125-.4375.34375l-.1875.01563Zm1.73438-1.8125.9375-1.70312.1875 1.70312Zm0 0"/><path id="c" d="M.0625 0h1.90625c1.35938 0 1.82813-.5625 1.82813-1.21875 0-.64062-.48438-.9375-.92188-1.01562.79688-.09375 1.15625-.54688 1.15625-1.01563 0-.51562-.29687-.9375-1.46875-.9375H.95313l-.04688.20313.34375.03125q.14063 0 .14063.14062c0 .04688-.01563.10938-.03126.17188L.67188-.54687C.625-.32813.5625-.25.40626-.23437l-.3125.03124Zm1.34375-.48437c0-.04688.01563-.09375.01563-.14063l.32812-1.5H2c.5625 0 .98438.21875.98438.8125C2.98438-.75 2.65625-.25 1.89063-.25c-.39063 0-.48438-.07812-.48438-.23437m.40625-1.875.3125-1.375c.03125-.17188.0625-.21875.40625-.21875.45313 0 .73438.21875.73438.65625 0 .59375-.45313.9375-1.10938.9375Zm0 0"/><path id="d" d="M.40625-1.65625c0 .6875.29688 1.75 1.92188 1.75.42187 0 .875-.0625 1.25-.25l.32812-1.0625H3.6875c-.35937.625-.67187 1.0625-1.39062 1.0625-.625 0-1.07813-.42187-1.07813-1.3125 0-.54687.14063-1.23437.4375-1.73437C1.9375-3.6875 2.375-4.03125 3-4.03125c.73438 0 .9375.4375.9375 1.04688h.20313l.21875-.98438c-.34375-.21875-.95313-.3125-1.32813-.3125-1.15625 0-1.82812.5-2.21875 1.09375-.32812.51563-.40625 1.10938-.40625 1.53125m0 0"/><path id="e" d="M-.23437 0H2.5l.07813-.34375-.67188-.0625C1.75-.42187 1.6875-.5 1.6875-.625c0-.0625.03125-.14062.0625-.23437.40625-.78125.79688-1.5625 1.23438-2.375h2.71875L6-.73437s-.0625.29687-.3125.32812l-.64062.0625L4.96875 0h2.98438l.07812-.34375-.46875-.04687c-.375-.03125-.42187-.20313-.48437-.70313L6.1875-8.375h-.85937L3.28125-4.8125c-.60937 1.09375-1.625 2.89063-2.0625 3.60938C.82813-.5625.625-.4375.25-.40625l-.40625.0625Zm3.46875-3.70312L5.20313-7.25l.4375 3.54688Zm0 0"/><path id="f" d="M0 0h3.67188C6.59375 0 7.1875-1.51562 7.1875-2.51562c0-1.28125-.9375-1.82813-1.82812-2l.01562-.01563c1.60938-.20312 2.29688-1.10937 2.29688-2.03125 0-.98437-.57813-1.8125-2.8125-1.8125h-3.0625l-.07813.34375.71875.0625c.20313.01563.29688.10938.29688.29688 0 .07812-.03125.1875-.04688.29687L1.25-1c-.09375.39063-.20312.53125-.5.57813l-.6875.07812Zm2.42188-.92187q0-.14063.04687-.28126l.6875-3.10937h.48438c1.1875 0 2.25.35938 2.25 1.73438 0 1.07812-.65625 2.15625-2.28125 2.15625-.95313 0-1.1875-.20313-1.1875-.5M3.25-4.73437l.625-2.8125c.09375-.35938.15625-.42188.96875-.42188 1.01563 0 1.59375.51563 1.59375 1.375 0 1.25-1.0625 1.85938-2.40625 1.85938Zm0 0"/><path id="g" d="M.625-3.32812C.625-1.73437 1.42188.1875 4.42188.1875c.85937 0 1.6875-.125 2.46875-.51562L7.46875-2.25h-.35937c-.67188 1.20313-1.26563 2-2.76563 2-1.40625 0-2.40625-.89062-2.40625-2.76562 0-1.09375.28125-2.4375.85938-3.40625.60937-1.01563 1.5625-1.71875 2.85937-1.71875 1.53125 0 1.96875.70312 1.96875 2.03125H8l.4375-1.8125c-.6875-.4375-1.82812-.65625-2.67187-.65625-2.28125 0-3.59375 1.07812-4.3125 2.20312C.78125-5.28125.625-4.15625.625-3.32812m0 0"/><path id="h" d="M.29688-2.0625c0 .70313.20312 1.28125.5625 1.64063.375.375.96875.51562 1.65625.51562.48437 0 1.03125-.14062 1.32812-.29687l.07813-1H3.75C3.57813-.57812 3.26563-.125 2.46875-.125c-1.25 0-1.5-1.21875-1.5-1.95312 0-1 .39063-1.98438 1.51563-1.98438.625 0 1.04687.25 1.17187.96875h.17188v-.95312c-.26563-.125-.71875-.23438-1.28125-.23438-.75 0-1.34375.21875-1.70313.625C.5-3.26562.29688-2.75.29688-2.0625m0 0"/><path id="i" d="m.82813-3.40625.10937.125.625-.45312c.0625-.0625.14063-.09375.1875-.09375.04688 0 .125.03125.1875.09375l.625.45312.10938-.125-.70313-.79687c-.0625-.07813-.14062-.15625-.21875-.15625-.0625 0-.14062.07812-.21875.15625ZM.29688-1.48437C.29688-.5.78125.07813 1.75.07813S3.20313-.5 3.20313-1.48437c0-.96875-.48438-1.54688-1.45313-1.54688S.29688-2.45312.29688-1.48437m.625 0c0-.82813.28124-1.34375.82812-1.34375s.82813.51562.82813 1.34375c0 .84375-.28125 1.34375-.82813 1.34375-.54687 0-.82812-.5-.82812-1.34375m0 0"/><path id="j" d="M.1875-2.71875H.625V-.625c0 .625.45313.70313.67188.70313.3125 0 .59375-.15625.76562-.26563l-.04687-.14062C1.875-.26562 1.75-.25 1.59375-.25c-.20312 0-.40625-.14062-.40625-.59375v-1.875h.78125v-.25H1.1875v-.76562h-.17187l-.35938.76562H.1875Zm0 0"/><path id="k" d="m1.21875-3.40625.09375.125.90625-.5c.1875-.09375.34375-.20312.34375-.32812S2.42188-4.375 2.32813-4.375c-.10938 0-.20313.0625-.39063.25Zm-.92187 1.9375C.29688-.5.70313.07813 1.6875.07813c.67188 0 1.01563-.375 1.1875-.85938L2.6875-.875c-.15625.35938-.39062.64063-.875.64063-.75 0-.89062-.71875-.89062-1.35938h1.75c.125 0 .23437-.03125.23437-.23437 0-.34375-.10937-1.20313-1.21875-1.20313-.95312 0-1.39062.65625-1.39062 1.5625m.64062-.35937c0-.25.09375-1 .71875-1 .5625 0 .625.57812.625.8125 0 .10937-.04687.1875-.20312.1875Zm0 0"/><path id="l" d="M.29688-.78125c0 .45313.29687.85938.875.85938.34375 0 .70312-.23438.89062-.375.09375.23437.1875.375.40625.375S2.95313 0 3.1875-.10937L3.14063-.25c-.07813.01563-.21875.03125-.3125 0C2.71875-.28125 2.625-.39062 2.625-.76562v-1.46875c0-.35938-.07812-.79688-1-.79688-.67187 0-1.21875.34375-1.21875.6875 0 .1875.21875.28125.34375.28125s.15625-.0625.1875-.17187c.14063-.45313.375-.59375.625-.59375.23438 0 .51563.125.51563.60937v.25c-.15625.15625-.75.3125-1.21875.46875-.4375.125-.5625.4375-.5625.71875M.90625-.875c0-.28125.125-.42187.46875-.54687.25-.09376.5625-.21876.70313-.29688v.85938c0 .48437-.375.60937-.60938.60937-.375 0-.5625-.26562-.5625-.625m0 0"/><path id="m" d="M.29688-1.42187c0 .89062.46875 1.5 1.26562 1.5.32813 0 .60938-.15625.9375-.42188v.29688L2.54688 0h.98437v-.17187c-.4375-.03126-.45312-.04688-.45312-.35938v-3.92187l-.04688-.03125-.95312.14062v.15625l.23437.01563c.15625.03125.1875.0625.1875.29687v.98438c-.15625-.09375-.39062-.14063-.67187-.14063-.48438 0-.85938.15625-1.10938.40625-.26562.28125-.42187.67188-.42187 1.20313M.92188-1.5c0-.78125.28124-1.32812.90625-1.32812.28124 0 .51562.125.625.375C2.5-2.34375 2.5-2.25 2.5-2.09375v1.0625c0 .14063 0 .23438-.03125.34375-.125.3125-.39062.4375-.70312.4375-.5625 0-.84375-.54687-.84375-1.25m0 0"/><path id="n" d="M.54688-3.95312c0 .21875.15624.375.375.375.21874 0 .375-.15625.375-.375s-.15626-.375-.375-.375c-.21876 0-.375.15625-.375.375m-.75 5.26562.01562.15625c.10938 0 .28125-.01562.4375-.0625.78125-.15625.95313-.6875.95313-1.45312V-3l-.03126-.03125-.95312.14063v.15625l.23438.03125c.15625.03125.1875.0625.1875.26562v2.21875c0 .4375-.03126.85938-.15626 1.10938-.10937.20312-.3125.34375-.6875.42187m0 0"/><path id="o" d="M.29688-1.45312c0 1.01562.5 1.53125 1.40625 1.53125.42187 0 1-.21875 1.15625-.875L2.6875-.875c-.1875.42188-.42187.625-.875.625-.71875 0-.89062-.75-.89062-1.3125 0-.90625.35937-1.26562.78125-1.26562.26562 0 .45312.20312.5625.53125.04687.09375.07812.15625.20312.15625s.34375-.07813.34375-.3125c0-.28125-.39062-.57813-1.04687-.57813-1.10938 0-1.46875.76563-1.46875 1.57813m0 0"/><path id="p" d="M.29688-1.46875C.29688-.5.70313.07813 1.6875.07813c.67188 0 1.01563-.375 1.1875-.85938L2.6875-.875c-.15625.35938-.39062.64063-.875.64063-.75 0-.89062-.71875-.89062-1.35938h1.75c.125 0 .23437-.03125.23437-.23437 0-.34375-.10937-1.20313-1.21875-1.20313-.95312 0-1.39062.65625-1.39062 1.5625m.64062-.35937c0-.25.09375-1 .71875-1 .5625 0 .625.57812.625.8125 0 .10937-.04687.1875-.20312.1875Zm0 0"/><path id="q" d="M.1875 0h1.48438v-.17187c-.4375-.03126-.45313-.04688-.45313-.35938V-1.9375c0-.15625 0-.23437.0625-.32812.125-.25.39063-.4375.71875-.4375.40625 0 .64063.21875.64063.75v1.42187c0 .3125-.03125.32813-.46875.35938V0h1.48437v-.17187c-.4375-.03126-.45312-.04688-.45312-.35938v-1.54687c0-.60938-.34375-.95313-.89063-.95313-.45312 0-.73437.21875-1.10937.45313L1.125-3.03125l-.90625.14063v.15625l.23438.03125c.15625.03125.20312.04687.20312.26562v1.90625c0 .3125-.03125.32813-.46875.35938Zm0 0"/><path id="r" d="M.67188-4.10937c0 .125.15624.23437.34375.32812l.90625.5.09374-.125-.71875-.71875c-.1875-.1875-.28124-.25-.39062-.25-.09375 0-.23437.14063-.23437.26563m-.375 3.32812c0 .45313.29687.85938.875.85938.34375 0 .70312-.23438.89062-.375.09375.23437.1875.375.40625.375S2.95313 0 3.1875-.10937L3.14063-.25c-.07813.01563-.21875.03125-.3125 0C2.71875-.28125 2.625-.39062 2.625-.76562v-1.46875c0-.35938-.07812-.79688-1-.79688-.67187 0-1.21875.34375-1.21875.6875 0 .1875.21875.28125.34375.28125s.15625-.0625.1875-.17187c.14063-.45313.375-.59375.625-.59375.23438 0 .51563.125.51563.60937v.25c-.15625.15625-.75.3125-1.21875.46875-.4375.125-.5625.4375-.5625.71875M.90625-.875c0-.28125.125-.42187.46875-.54687.25-.09376.5625-.21876.70313-.29688v.85938c0 .48437-.375.60937-.60938.60937-.375 0-.5625-.26562-.5625-.625m0 0"/><path id="s" d="M.21875 0h1.6875v-.17187C1.375-.21875 1.35938-.21875 1.35938-.5625v-1.5h2.10937v1.5c0 .34375 0 .34375-.54687.39063V0h1.6875v-.17187c-.51563-.04688-.53125-.04688-.53125-.39063V-3.625c0-.34375.01562-.34375.53125-.39062v-.17188h-1.6875v.17188c.54687.04687.54687.04687.54687.39062v1.32813H1.35938V-3.625c0-.34375.01562-.34375.54687-.39062v-.17188H.21875v.17188c.53125.04687.54688.04687.54688.39062v3.0625c0 .34375-.01563.34375-.54688.39063Zm0 0"/><path id="t" d="M-.03125-2.78125c.28125 0 .35938.04688.46875.3125.29688.71875.79688 2 .9375 2.42188.04688.10937.04688.1875.04688.29687 0 .14063-.04688.32813-.14063.51563-.09375.20312-.20312.26562-.26562.26562S.90625 1 .79687.89063C.73438.84375.6875.8125.60938.8125.5.8125.34376.98438.34376 1.15625c0 .14063.17188.3125.42188.3125S1.3125 1.39063 1.625.5C2-.57812 2.5625-2.04687 2.75-2.48437c.10938-.23438.14063-.28125.4375-.29688v-.1875H2.03125v.1875l.3125.01563c.10938.01562.125.09375.09375.20312-.09375.375-.40625 1.28125-.67187 2.01563H1.75C1.46875-1.28125 1.23438-1.9375 1-2.57812c-.03125-.10938-.04687-.17188.09375-.1875l.26563-.01563v-.1875H-.03126Zm0 0"/><path id="u" d="M.15625 1.21875v.17188h1.5625v-.17188c-.51562-.03125-.54687-.04687-.54687-.35937V-.0625c.125.0625.42187.14063.6875.14063.82812 0 1.51562-.375 1.51562-1.625 0-.4375-.07812-1.48438-1.17187-1.48438-.45313 0-.79688.28125-1.03125.4375l-.07813-.4375-.90625.14063v.15625l.21875.03125c.15625.03125.20313.04687.20313.26562V.85938c0 .3125-.03126.32812-.45313.35937M1.17188-.95312v-.98438c0-.15625.03124-.23437.07812-.34375.14063-.28125.39063-.42187.71875-.42187.25 0 .78125.14062.78125 1.1875 0 .89062-.28125 1.375-.89062 1.375-.3125 0-.54688-.15625-.64063-.4375-.04687-.10938-.04687-.23438-.04687-.375m0 0"/><path id="v" d="M.29688-1.48437C.29688-.5.78125.07813 1.75.07813S3.20313-.5 3.20313-1.48437c0-.96875-.48438-1.54688-1.45313-1.54688S.29688-2.45312.29688-1.48437m.625 0c0-.82813.28124-1.34375.82812-1.34375s.82813.51562.82813 1.34375c0 .84375-.28125 1.34375-.82813 1.34375-.54687 0-.82812-.5-.82812-1.34375m0 0"/><path id="w" d="m.15625-2.73437.23438.03125c.15625.03125.1875.04687.1875.26562v1.59375c0 .70313.40625.92188.85937.92188.51563 0 .9375-.35938 1.10938-.4375L2.60938 0h.96875v-.17187C3.15625-.20313 3.125-.21875 3.125-.53125V-3l-.04687-.03125-.95313.14063v.15625l.23438.03125c.15625.03125.20312.04687.20312.26562v1.375c0 .15625-.03125.29688-.0625.35938C2.35938-.4375 2.07813-.25 1.76563-.25c-.35938 0-.60938-.21875-.60938-.70312V-3l-.04687-.03125-.95313.14063Zm0 0"/><path id="x" d="m.28125-1.01562.0625.79687c.21875.1875.59375.29688.9375.29688.73438 0 1.14063-.39063 1.14063-.90625 0-.53125-.32813-.76563-.95313-.96875-.25-.0625-.64062-.20313-.64062-.54688 0-.3125.23437-.48437.53125-.48437.4375 0 .64062.34375.6875.70312h.17187v-.70312c-.20312-.15625-.5-.20313-.78125-.20313-.65625 0-1.09375.29688-1.09375.875 0 .5.40625.73438.90625.875.28125.09375.65625.21875.65625.64063 0 .3125-.23437.5-.5625.5-.48437 0-.76562-.35938-.89062-.875Zm0 0"/></defs><path fill="none" stroke="red" stroke-miterlimit="10" stroke-width=".39661" d="M61.85547 230.54297h7.33203v7.33594"/><path fill="#66b2b2" d="m190.2461 237.8789-5.54298-9.5039c-3.3828 1.97266-5.46093 5.59375-5.46093 9.5039Zm0 0"/><path fill="none" stroke="#000" stroke-miterlimit="10" stroke-width=".39661" d="M184.70318 228.375c-3.38282 1.97265-5.46094 5.59375-5.46094 9.5039"/><use xlink:href="#a" x="159.70725" y="225.27185"/><use xlink:href="#b" x="159.01764" y="226.58767"/><use xlink:href="#c" x="163.43245" y="226.58767"/><use xlink:href="#d" x="167.7377" y="226.58767"/><path fill="none" stroke="#007f7f" stroke-miterlimit="10" stroke-width=".39661" d="M61.85547 237.8789h128.39068"/><path fill="none" stroke="#ff7f00" stroke-miterlimit="10" stroke-width=".39661" d="M190.24615 237.8789 61.85547 17.78117"/><path fill="none" stroke="#bf0040" stroke-miterlimit="10" stroke-width=".39661" d="M61.85547 17.78116V237.8789"/><use xlink:href="#e" x="48.98539" y="250.81214"/><use xlink:href="#f" x="194.797" y="250.81214"/><use xlink:href="#g" x="49.12771" y="13.04905"/><g fill="#007f7f"><use xlink:href="#h" x="97.79959" y="248.43448"/><use xlink:href="#i" x="101.93727" y="248.43448"/><use xlink:href="#j" x="105.43045" y="248.43448"/><use xlink:href="#k" x="107.51217" y="248.43448"/></g><g fill="#007f7f"><use xlink:href="#l" x="111.98499" y="248.43448"/><use xlink:href="#m" x="115.14947" y="248.43448"/><use xlink:href="#n" x="118.77155" y="248.43448"/><use xlink:href="#l" x="120.46658" y="248.43448"/><use xlink:href="#o" x="123.63107" y="248.43448"/><use xlink:href="#p" x="126.63443" y="248.43448"/><use xlink:href="#q" x="129.74735" y="248.43448"/><use xlink:href="#j" x="133.49189" y="248.43448"/></g><use xlink:href="#r" x="136.9335" y="248.43448" fill="#007f7f"/><use xlink:href="#a" x="142.14819" y="247.11995" fill="#007f7f"/><use xlink:href="#b" x="141.45858" y="248.43448" fill="#007f7f"/><use xlink:href="#c" x="145.87339" y="248.43448" fill="#007f7f"/><use xlink:href="#d" x="150.17864" y="248.43448" fill="#007f7f"/><use xlink:href="#s" x="130.60215" y="121.81534" fill="#ff7f00"/><g fill="#ff7f00"><use xlink:href="#t" x="135.2941" y="121.81534"/><use xlink:href="#u" x="138.35546" y="121.81534"/><use xlink:href="#v" x="142.03555" y="121.81534"/><use xlink:href="#j" x="145.52873" y="121.81534"/><use xlink:href="#k" x="147.61045" y="121.81534"/><use xlink:href="#q" x="150.72338" y="121.81534"/><use xlink:href="#w" x="154.46791" y="121.81534"/><use xlink:href="#x" x="158.13511" y="121.81534"/><use xlink:href="#p" x="160.7711" y="121.81534"/></g><g fill="#bf0040"><use xlink:href="#h" x="4.29651" y="130.13566"/><use xlink:href="#i" x="8.43419" y="130.13566"/><use xlink:href="#j" x="11.92737" y="130.13566"/><use xlink:href="#k" x="14.00909" y="130.13566"/></g><g fill="#bf0040"><use xlink:href="#v" x="18.47546" y="130.13566"/><use xlink:href="#u" x="21.96864" y="130.13566"/><use xlink:href="#u" x="25.64873" y="130.13566"/><use xlink:href="#v" x="29.32881" y="130.13566"/><use xlink:href="#x" x="32.82199" y="130.13566"/><use xlink:href="#k" x="35.45799" y="130.13566"/></g><use xlink:href="#r" x="39.9308" y="130.13566" fill="#bf0040"/><use xlink:href="#a" x="45.15048" y="128.82112" fill="#bf0040"/><use xlink:href="#b" x="44.46086" y="130.13566" fill="#bf0040"/><use xlink:href="#c" x="48.87568" y="130.13566" fill="#bf0040"/><use xlink:href="#d" x="53.18092" y="130.13566" fill="#bf0040"/></svg>