<svg xmlns="http://www.w3.org/2000/svg" xmlns:xlink="http://www.w3.org/1999/xlink" width="85.757pt" height="151.891pt" viewBox="0 0 85.757 151.891"><defs><path id="a" d="M.17188-3.59375c0 .23438.21875.3125.32812.3125.09375 0 .17188-.04687.1875-.14062.09375-.45313.25-.65625.5-.65625.28125 0 .39063.26562.39063.60937 0 .39063-.26563.76563-.54688.96875-.35937.28125-.48437.4375-.48437.70313 0 .39062.3125.59375.64062.59375.1875 0 .42188-.03126.59375-.17188L1.73438-1.5c-.04688.01563-.10938.03125-.1875.03125-.125 0-.40625-.10937-.40625-.45312 0-.26563.15624-.48438.45312-.6875.20313-.15625.57813-.375.57813-.85938 0-.54687-.40625-.82812-.95313-.82812-.79687 0-1.04687.51562-1.04687.70312M.78125-.29687c0 .21875.15625.375.375.375s.375-.15625.375-.375c0-.23438-.15625-.39063-.375-.39063s-.375.15625-.375.39063m0 0"/><path id="g" d="M.29688-1.45312c0 1.01562.5 1.53125 1.40625 1.53125.42187 0 1-.21875 1.17187-.875l-.1875-.09376C2.5-.45312 2.26563-.25 1.8125-.25 1.09375-.25.92188-1 .92188-1.5625c0-.90625.35937-1.26562.78125-1.26562.28124 0 .45312.1875.57812.53125.03125.09375.07813.14062.1875.14062.125 0 .35938-.0625.35938-.29687 0-.28125-.40625-.59375-1.0625-.59375-1.09375 0-1.46875.78125-1.46875 1.59375m0 0"/><path id="h" d="M.1875 0h1.48438v-.17187c-.4375-.03126-.45313-.04688-.45313-.35938v-1.42187c0-.15626 0-.23438.04688-.3125.10937-.25.375-.45313.71875-.45313.51562 0 .57812.375.57812.75v1.4375c0 .3125-.01562.32813-.45312.35938V0h1.48437v-.17187c-.4375-.03126-.45312-.04688-.45312-.35938v-1.42187c0-.15626 0-.23438.04687-.32813.07813-.23437.34375-.4375.6875-.4375.375 0 .60938.21875.60938.75v1.4375c0 .3125-.01563.32813-.45313.35938V0h1.48438v-.17187c-.4375-.03126-.46875-.04688-.46875-.35938v-1.54687c0-.60938-.32813-.96875-.89063-.96875-.5 0-.85937.32812-1.07812.46875-.14063-.28125-.375-.46875-.79688-.46875-.46875 0-.84375.3125-1.0625.46875l-.0625-.46875-.9375.15625V-2.75l.23438.04688c.15625.01562.20312.04687.20312.26562v1.90625c0 .3125-.03125.32813-.46875.35938Zm0 0"/><path id="b" d="M0 0h2.875l.0625-.34375-.48437-.04687c-.35938-.01563-.54688-.10938-.54688-.375 0-.64063.10938-1 .25-1.65625l1.10938-4.9375h.03125L4.75-.14062h.34375l4.73438-7.21875h.01562L8.35938-1.01562c-.10938.42187-.21875.5625-.51563.59375l-.65625.07812L7.10938 0h3.3125l.0625-.34375-.71875-.07812c-.21875-.01563-.3125-.125-.3125-.3125q0-.1172.04687-.28126l1.45313-6.375c.10937-.42187.20312-.57812.51562-.60937l.67188-.04687.07812-.35938h-2.375c-.64062 1.125-1.35937 2.20313-2.10937 3.32813L5.59375-1.79687H5.5625l-.6875-3.375c-.25-1.09375-.5-2.14063-.70312-3.23438H1.82813L1.75-8.04687l.70313.0625c.20312.01562.3125.10937.3125.32812 0 .07813-.01563.15625-.04688.26563L1.57813-2.42187c-.14063.65625-.28126 1.10937-.42188 1.51562-.14062.39063-.375.48438-.71875.51563l-.375.04687Zm0 0"/><path id="c" d="M0 0h2.875l.0625-.34375-.48437-.04687C2.09375-.40625 1.90625-.48437 1.90625-.75c0-.64062.10938-1.01562.25-1.67187l1.14063-4.96875h.03125C4.46875-4.92187 5.59375-2.46875 6.70313 0H7.5l1.34375-5.98437C9-6.625 9.14063-7.09375 9.28125-7.5c.14063-.375.35938-.46875.71875-.51562l.375-.03125.0625-.35938H7.57813L7.5-8.04687 7.98438-8c.35937.04688.5625.15625.5625.42188 0 .4375-.125.95312-.26563 1.59375l-1 4.39062h-.04687C6.1875-3.85937 5.15625-6.125 4.14063-8.40625h-2.3125L1.75-8.04687l.70313.0625c.20312.01562.3125.10937.3125.32812 0 .07813-.01563.15625-.04688.26563L1.57813-2.42187c-.14063.65625-.28126 1.10937-.42188 1.51562-.14062.39063-.35937.48438-.71875.51563l-.375.04687Zm0 0"/><path id="d" d="M.39063-3.28125c0 2 1.14062 3.46875 3.5625 3.46875 2.14062 0 3.1875-1.10937 3.85937-2.3125.67188-1.1875.78125-2.42187.78125-2.90625 0-2.48437-1.51562-3.5625-3.51562-3.5625-1.9375 0-3.14063 1.07813-3.84375 2.23438C.5625-5.23437.39063-4.07812.39063-3.28125m1.28125.48438c0-1.01563.1875-2.15625.75-3.32813.54687-1.15625 1.42187-2.04687 2.70312-2.04687 1.32813 0 2.1875.79687 2.1875 2.51562 0 .6875-.0625 1.6875-.5625 2.98438C6.23438-1.375 5.42188-.25 3.84375-.25c-1.32812 0-2.17187-.84375-2.17187-2.54687m0 0"/><path id="e" d="M.65625 0h2.0625v-.20312l-.45312-.03126C2.125-.25 2.0625-.29687 2.0625-.51561v-3.5625L2.01563-4.125l-1.34375.21875v.17188l.48437.07812c.125.01563.17188.0625.17188.26563v2.875c0 .21874-.0625.26562-.20313.28124l-.46875.03126Zm0 0"/><path id="f" d="M.1875-.07812.26563 0H2.875l.23438-.92187-.1875-.03126c-.15625.32813-.26563.375-.51563.375H.875C.96875-.85936 1.25-1.25 1.85938-1.625c.64062-.40625 1.0625-.70312 1.0625-1.35937 0-.84375-.57813-1.14063-1.26563-1.14063-.8125 0-1.32812.45313-1.32812.85938 0 .23437.26562.34375.40625.34375.125 0 .1875-.0625.21874-.1875.09376-.45313.3125-.78125.65626-.78125.39062 0 .53125.35937.53125.78125 0 .54687-.21875.95312-.8125 1.45312C.53125-.96875.26563-.51562.1875-.07812m0 0"/><path id="i" d="M.26563-.67187c0 .25.35937.75 1.28125.75 1.0625 0 1.48437-.625 1.48437-1.375 0-.71875-.40625-1.29688-1.29687-1.29688-.35938 0-.71875.15625-.92188.32813l.10938-1c.03124-.1875.0625-.20313.20312-.20313h1.54688l.1875-.51562-.03125-.0625H.67188L.60938-4l-.125 2.01563.20312.125c.23438-.28126.48438-.42188.79688-.42188.39062 0 .76562.29688.76562 1.0625 0 .60938-.20312 1.04688-.67187 1.04688-.35938 0-.54688-.25-.70313-.6875-.03125-.10938-.10937-.17188-.23437-.17188-.15626 0-.375.14063-.375.35938m0 0"/></defs><path fill="none" stroke="red" stroke-miterlimit="10" stroke-width=".39737" d="m29.1211 24.5 1.27733 7.23437-7.23827 1.27735"/><path fill="#66b2b2" d="m41.03125 134.36328 2.41016-10.75781c-1.42188-.32031-2.89063-.35156-4.32422-.10156Zm0 0"/><path fill="none" stroke="#000" stroke-miterlimit="10" stroke-width=".39737" d="M43.4414 123.60543c-1.42188-.32032-2.89063-.35156-4.32422-.10157"/><use xlink:href="#a" x="40.231" y="119.94084"/><path fill="none" stroke="#000" stroke-miterlimit="10" stroke-width=".39737" d="m21.88672 25.77344 19.14452 108.5898L67.1289 17.79688Zm0 0"/><use xlink:href="#b" x="4.3048" y="21.21159"/><use xlink:href="#c" x="35.41365" y="147.31726"/><use xlink:href="#d" x="71.69186" y="13.05371"/><use xlink:href="#e" x="10.27389" y="82.09507"/><use xlink:href="#f" x="13.59946" y="82.09507"/><use xlink:href="#g" x="18.28778" y="82.09507"/><use xlink:href="#h" x="21.29694" y="82.09507"/><use xlink:href="#i" x="37.85972" y="17.1521"/><use xlink:href="#g" x="42.54724" y="17.1521"/><use xlink:href="#h" x="45.5564" y="17.1521"/></svg>