<svg xmlns="http://www.w3.org/2000/svg" xmlns:xlink="http://www.w3.org/1999/xlink" width="265.729pt" height="163.722pt" viewBox="0 0 265.729 163.722"><defs><path id="a" d="M0 0h5.73438c3.73437 0 5.90625-1.35937 7.25-3.375 1.07812-1.625 1.25-3.1875 1.25-4.29687 0-1.51563-.53125-3.03125-1.60938-3.92188-1.09375-.92187-2.76562-1.32812-4.82812-1.32812H2.76563l-.125.53125 1.125.07812c.3125.01563.4375.17188.4375.48438 0 .10937-.03125.26562-.0625.45312L1.90625-1.54687c-.14062.60937-.29687.84375-.75.89062l-1.0625.125Zm3.70313-1.375c0-.07812 0-.15625.01562-.23437l2.25-9.98438c.15625-.64062.42188-.70312 2.04688-.70312 3.90625.07812 4.21875 2.70312 4.21875 4.20312 0 1.60938-.375 3.125-1.21875 4.51563C9.9375-1.82812 8.35938-.65625 5.25-.65625c-.90625 0-1.54687-.125-1.54687-.71875m0 0"/><path id="b" d="M.20313 0H9.9375l.96875-3.28125h-.5625C9.39063-.96875 8.54688-.65625 6.25-.65625c-2.21875 0-2.32812-.28125-2.32812-.78125 0-.1875.0625-.46875.14062-.84375l.95313-4.10937h2.4375c1.39062 0 1.65625.28125 1.65625 1.09375 0 .17187 0 .32812-.01563.51562h.54688l.875-3.89062H9.9375C9.46875-7.375 9.26563-7.07812 7.625-7.07812H5.17188l1.04687-4.65625c.10938-.45313.21875-.5625.54688-.5625h2.25c1.82812 0 2.20312.48437 2.20312 1.5 0 .45312-.0625.96875-.0625.96875h.5625l.6875-3.09375h-9.4375l-.14062.53125 1.125.07812c.32812.01563.46875.15625.46875.45313 0 .125-.03125.26562-.0625.4375L2.125-1.54687c-.15625.625-.3125.84375-.76562.89062l-1.0625.125Zm0 0"/><path id="c" d="M.20313 0H5.625l.125-.53125-1.40625-.10937C4-.65625 3.85938-.8125 3.85938-1.09375c0-.125.01562-.23437.0625-.39062l1.03125-4.625H7.4375c1.375 0 1.625.26562 1.625 1.0625 0 .15625 0 .32812-.01562.53125h.5625l.875-3.92188h-.5625c-.46875 1.3125-.6875 1.60938-2.34375 1.60938H5.10938l1.10937-4.89063c.125-.46875.21875-.57812.5625-.57812H9.0625c1.84375 0 2.20313.48437 2.20313 1.46875 0 .48437-.0625.98437-.0625.98437h.57812l.6875-3.07812h-9.5l-.125.53125 1.10938.09375c.32812.03125.46875.1875.46875.48437 0 .09375-.03125.23438-.0625.375L2.125-1.48437c-.14062.54687-.3125.8125-.76562.84375l-1.0625.10937Zm0 0"/><path id="d" d="M.28125-1.03125c0 .39063.5625 1.14063 2.0625 1.14063 1.42188 0 2.29688-.67188 2.29688-1.85938 0-1.29687-1.125-1.60937-1.57813-1.65625v-.04687c.51563-.09375 1.3125-.45313 1.3125-1.35938 0-1.15625-.96875-1.54687-1.95312-1.54687C1.25-6.35937.5-5.71875.5-5.1875c0 .34375.40625.51563.57813.51563.17187 0 .25-.09375.3125-.25.20312-.67188.51562-1.0625 1-1.0625.65625 0 .79687.67187.79687 1.14062 0 .45313-.125 1.25-.875 1.25-.40625 0-.6875-.10937-.84375-.10937-.17187 0-.21875.10937-.21875.3125 0 .1875.04688.3125.21875.3125.15625 0 .4375-.10938.84375-.10938.65625 0 1.10938.5 1.10938 1.46875 0 1.03125-.45313 1.45313-1.0625 1.45313-.53125 0-.89063-.39063-1.10938-1.0625-.0625-.1875-.17187-.28126-.34375-.28126-.25 0-.625.20313-.625.57813m0 0"/><path id="g" d="m.20313-1.875.125.21875h2.46875v.95313c0 .26562-.09375.32812-.28125.34375l-.60938.04687V0h2.64063v-.3125l-.4375-.03125c-.1875-.03125-.25-.09375-.25-.35937v-.95313h.9375v-.53125h-.9375V-6.25h-.89063C2.03125-4.875 1.04688-3.32812.20313-1.875m.8125-.3125c.5-.9375 1.125-1.96875 1.78125-3.03125v3.03125Zm0 0"/><path id="h" d="M.42188-1.03125c0 .39063.54687 1.14063 1.96875 1.14063 1.625 0 2.28125-.95313 2.28125-2.125 0-1.09375-.625-2-2-2-.5625 0-1.09375.25-1.42188.51562l.1875-1.53125c.03125-.28125.07813-.3125.29688-.3125H4.125l.29688-.8125-.0625-.09375H1.03125l-.07812.09375L.75-3.0625l.3125.20313c.375-.4375.73438-.65625 1.21875-.65625.60938 0 1.1875.45312 1.1875 1.625 0 .95312-.3125 1.625-1.03125 1.625-.54687 0-.85937-.39063-1.07812-1.0625C1.29688-1.5 1.1875-1.60938 1-1.60938c-.25 0-.57812.23438-.57812.57813m0 0"/><path id="e" d="M.45313-2.25c0 1.5625.76562 2.35938 2.17187 2.35938.65625 0 1.54688-.34375 1.79688-1.34375l-.26563-.125C3.85938-.70312 3.5-.375 2.8125-.375c-1.125 0-1.375-1.17187-1.375-2.04687 0-1.39063.54688-1.95313 1.1875-1.95313.4375 0 .70313.3125.89063.82813.0625.14062.125.23437.29687.23437.1875 0 .54688-.125.54688-.48437 0-.42188-.60938-.90625-1.625-.90625C1.03125-4.70312.45313-3.5.45313-2.25m0 0"/><path id="f" d="M.29688 0h2.28125v-.26562C1.90625-.3125 1.875-.34375 1.875-.8125V-3c0-.25 0-.375.07813-.5.17187-.375.57812-.6875 1.10937-.6875.79688 0 .90625.57813.90625 1.15625V-.8125c0 .46875-.03125.5-.71875.54688V0h2.28125v-.26562c-.67187-.04688-.6875-.07813-.6875-.54688V-3c0-.25 0-.35937.0625-.51562.14063-.375.53125-.67188 1.0625-.67188.59375 0 .95313.32813.95313 1.15625V-.8125c0 .46875-.03125.5-.71875.54688V0H8.5v-.26562c-.67187-.04688-.70312-.07813-.70312-.54688v-2.39062c0-.95313-.51563-1.5-1.39063-1.5-.76562 0-1.3125.51562-1.65625.71875-.21875-.4375-.57812-.71875-1.23437-.71875-.71875 0-1.3125.48437-1.64063.71875l-.07812-.71875-1.45313.25v.21875l.35938.04687C.9375-4.14062 1-4.09375 1-3.76562V-.8125c0 .46875-.03125.5-.70312.54688Zm0 0"/></defs><path fill="none" stroke="red" stroke-miterlimit="10" stroke-width=".39782" d="m90.04297 136.85938 7.35156-4.2461-4.24219-7.35156-7.35547 4.24219 4.2461 7.35547"/><path fill="#99F" d="m26.3711 26.57422 14.14843 24.50781c7.71094-4.45312 12.88281-12.28125 13.94531-21.125Zm0 0"/><path fill="none" stroke="#000" stroke-miterlimit="10" stroke-width=".39782" d="M40.51953 51.08202c7.71093-4.45312 12.88281-12.28125 13.94531-21.125"/><path fill="none" stroke="#000" stroke-miterlimit="10" stroke-width=".39782" d="M237.07424 51.96874 90.04297 136.85938 26.3789 26.58592Zm0 0"/><use xlink:href="#a" x="244.09763" y="58.43578"/><use xlink:href="#b" x="70.40456" y="156.81473"/><use xlink:href="#c" x="6.71969" y="19.55979"/><use xlink:href="#d" x="30.70497" y="84.84493"/><use xlink:href="#e" x="37.92471" y="84.84493"/><use xlink:href="#f" x="42.55943" y="84.84493"/><use xlink:href="#g" x="170.58445" y="107.68815"/><use xlink:href="#e" x="177.80419" y="107.68815"/><use xlink:href="#f" x="182.43891" y="107.68815"/><use xlink:href="#h" x="138.7525" y="32.14242"/><use xlink:href="#e" x="145.97224" y="32.14242"/><use xlink:href="#f" x="150.60696" y="32.14242"/></svg>