<svg xmlns="http://www.w3.org/2000/svg" xmlns:xlink="http://www.w3.org/1999/xlink" width="207.68pt" height="191.62pt" viewBox="0 0 207.68 191.62"><defs><path id="a" d="M.26563-5.53125c0 .35938.34375.46875.5.46875.14062 0 .26562-.0625.29687-.21875.125-.6875.39063-1 .76563-1 .42187 0 .59375.39063.59375.9375 0 .59375-.40625 1.17188-.82813 1.48438-.54687.4375-.75.67187-.75 1.09375 0 .59375.48438.90625 1 .90625.28125 0 .64063-.04688.89063-.25l-.07813-.20313c-.0625.03125-.15625.04688-.26562.04688-.20313 0-.64063-.17188-.64063-.6875 0-.40625.23438-.75.70313-1.07813.3125-.21875.89062-.5625.89062-1.3125 0-.84375-.625-1.26562-1.46875-1.26562-1.23437 0-1.60937.78125-1.60937 1.07812m.92187 5.0625c0 .34375.25.57813.59375.57813.32813 0 .57813-.23438.57813-.57813s-.25-.57812-.57813-.57812c-.34375 0-.59375.23437-.59375.57812m0 0"/><path id="h" d="M.45313-2.25c0 1.5625.76562 2.35938 2.17187 2.35938.65625 0 1.53125-.34375 1.79688-1.34375l-.28125-.125c-.28125.65625-.65625.98437-1.34375.98437-1.10938 0-1.35938-1.17187-1.35938-2.04687 0-1.39063.54688-1.9375 1.1875-1.9375.42188 0 .6875.3125.89063.8125.04687.14062.10937.23437.29687.23437s.54688-.10937.54688-.46875c0-.4375-.625-.90625-1.64063-.90625-1.6875 0-2.26562 1.20313-2.26562 2.4375m0 0"/><path id="i" d="M.29688 0h2.28125v-.26562C1.90625-.3125 1.875-.34375 1.875-.8125V-3c0-.23437 0-.375.07813-.5.17187-.375.57812-.6875 1.09375-.6875.8125 0 .90625.59375.90625 1.17188V-.8125c0 .46875-.03125.5-.70313.54688V0h2.28125v-.26562c-.67187-.04688-.70312-.07813-.70312-.54688V-3c0-.23437.01562-.35937.07812-.51562.125-.375.53125-.67188 1.0625-.67188.57813 0 .9375.32813.9375 1.17188V-.8125c0 .46875-.03125.5-.70312.54688V0h2.28125v-.26562c-.65625-.04688-.70313-.07813-.70313-.54688v-2.39062c0-.9375-.5-1.48438-1.39062-1.48438-.76563 0-1.3125.5-1.64063.71875-.23437-.4375-.59375-.71875-1.23437-.71875-.71875 0-1.3125.46875-1.64063.71875l-.09375-.71875-1.4375.23438v.23437l.35938.04688C.9375-4.14062 1-4.09375 1-3.75v2.9375c0 .46875-.03125.5-.70312.54688Zm0 0"/><path id="b" d="M0 0h5.3125l.09375-.53125-1.28125-.125c-.32812-.01562-.46875-.15625-.46875-.45312 0-.125.03125-.26563.0625-.4375l.84375-3.6875h1.39063c1.57812 0 3.0625-.21875 4.125-.875 1.20312-.73438 1.89062-2 1.89062-3.39063 0-1.28125-.59375-2.25-1.5-2.76562-.875-.5-2.07812-.65625-3.3125-.65625h-4.375l-.14062.53125 1.125.07812c.3125.01563.45312.17188.45312.5 0 .10938-.01562.25-.0625.4375l-2.25 9.82813c-.15625.625-.3125.84375-.76562.89062l-1.04688.125Zm4.8125-6.28125c0-.125.01563-.25.0625-.40625L6-11.64062c.125-.46875.25-.65625 1.20313-.65625 1.84375 0 2.79687.875 2.79687 2.46875 0 2.67187-1.48437 3.9375-4.01562 3.9375-.95313 0-1.17188-.09375-1.17188-.39063m0 0"/><path id="c" d="M1.1875-5.04687c0 2.78125 1.45313 4.875 4.4375 5.25.875 1.625 2.76563 3.59375 5.10938 3.59375.48437 0 1.07812-.10938 1.40625-.29688l-.0625-.3125C10.28125 3.15625 8.89063 1.76563 7.8125.20313c3.79688-.54688 6.01563-4.29688 6.01563-7.9375 0-3.84375-2.32813-5.5-5.42188-5.5-4.8125 0-7.21875 4.4375-7.21875 8.1875m1.96875.75c0-3.34375 1.625-8.28125 5.34375-8.28125 2.04688 0 3.35938 1.21875 3.35938 3.85937C11.85938-4.15625 9.71875-.375 6.5-.375c-2.03125 0-3.34375-1.3125-3.34375-3.92187m0 0"/><path id="d" d="M0 0h5.10938l.125-.53125L4.125-.64062c-.32812-.01563-.48437-.15626-.48437-.45313 0-.125.04687-.28125.07812-.45312l1.01563-4.54688H5.875c1.79688 0 2.0625.4375 2.0625 2.625C7.9375-1.1875 7.9375 0 9.90625 0h1.45313l.17187-.53125c-1.3125-.1875-1.76562-.25-1.76562-2.65625 0-1.90625-.15625-2.71875-1.70313-3.23437 2.28125-.32813 3.82813-1.65625 3.82813-3.5 0-1.34375-.57813-3-4.07813-3H2.78125l-.14062.53125 1.125.07812c.3125.01563.45312.17188.45312.5 0 .10938-.01562.25-.0625.4375l-2.25 9.82813c-.15625.65625-.3125.84375-.76562.89062l-1.04688.125Zm4.89063-6.75 1.09375-4.82812c.14062-.53125.20312-.71875 1.60937-.71875 1.21875 0 2.34375.54687 2.34375 2.17187 0 2.23438-1.4375 3.375-3.84375 3.375Zm0 0"/><path id="e" d="M.28125-1.03125c0 .39063.5625 1.14063 2.04688 1.14063C3.75.10938 4.64063-.5625 4.64063-1.75c0-1.29687-1.125-1.60937-1.57813-1.65625v-.04687c.5-.09375 1.3125-.4375 1.3125-1.35938 0-1.15625-.96875-1.53125-1.95312-1.53125C1.25-6.34375.5-5.71875.5-5.17187c0 .32812.40625.5.57813.5.17187 0 .25-.09375.29687-.25.21875-.65625.51563-1.0625 1.01563-1.0625.65625 0 .79687.67187.79687 1.14062s-.125 1.25-.875 1.25c-.40625 0-.6875-.10937-.85937-.10937-.15626 0-.20313.10937-.20313.3125 0 .1875.04688.3125.20313.3125.17187 0 .4375-.10938.85937-.10938.65625 0 1.10938.5 1.10938 1.46875 0 1.03125-.45313 1.45313-1.0625 1.45313-.53125 0-.90625-.39063-1.10938-1.0625-.0625-.1875-.17187-.28126-.34375-.28126-.25 0-.625.20313-.625.57813m0 0"/><path id="f" d="m.48438 1.17188.23437.20312C1.1875.9375 1.98438.26563 1.98438-.48437c0-.48438-.28126-.89063-.71875-.89063-.375 0-.5625.28125-.5625.51563 0 .34375.26562.51562.26562.92187 0 .39063-.1875.78125-.48437 1.10938m0 0"/><path id="g" d="M.34375-4.21875c0 1.29688.79688 1.95313 1.79688 1.95313.6875 0 1.20312-.42188 1.5-.78125-.01563 1.45312-.375 2.78125-1.25 2.78125-.40625 0-.70313-.35938-.84375-.9375-.04688-.125-.14063-.23438-.3125-.23438-.21876 0-.59375.17188-.59375.48438 0 .42187.5 1.0625 1.67187 1.0625 1.60938 0 2.5-1.21875 2.5-3.40625 0-1.95313-.6875-3.04688-2.25-3.04688-1.51562 0-2.21875.92188-2.21875 2.125M1.5-4.40625c0-.92187.3125-1.57812 1.03125-1.57812.76563 0 1.10938.85937 1.10938 1.9375 0 .5625-.375 1.17187-1.07813 1.17187C2-2.875 1.5-3.34375 1.5-4.40625m0 0"/></defs><path fill="none" stroke="red" stroke-miterlimit="10" stroke-width=".39771" d="m132.00781 160.5664-10.63281-3.87109 3.8711-10.63281 10.6328 3.86719-3.87109 10.63672"/><path fill="#99F" d="m25.66797 121.85938 15.95312 5.80468c1.76953-4.86328 1.22266-10.27734-1.48828-14.6875Zm0 0"/><path fill="none" stroke="#000" stroke-miterlimit="10" stroke-width=".39771" d="M41.62108 127.66406c1.76953-4.86329 1.22266-10.27735-1.48828-14.6875"/><use xlink:href="#a" x="54.25333" y="122.03499"/><path fill="none" stroke="#000" stroke-miterlimit="10" stroke-width=".39771" d="m25.66795 121.85937 106.33986 38.70704 48.76954-133.9883Zm0 0"/><use xlink:href="#b" x="6.67369" y="141.81177"/><use xlink:href="#c" x="139.03321" y="180.81443"/><use xlink:href="#d" x="187.8005" y="19.55422"/><use xlink:href="#e" x="66.89427" y="65.82247"/><use xlink:href="#f" x="72.01487" y="65.82247"/><use xlink:href="#g" x="75.72358" y="65.82247"/><use xlink:href="#h" x="82.94444" y="65.82247"/><use xlink:href="#i" x="87.57784" y="65.82247"/><use xlink:href="#e" x="68.60288" y="154.59243"/><use xlink:href="#h" x="75.82256" y="154.59243"/><use xlink:href="#i" x="80.45596" y="154.59243"/></svg>