<svg xmlns="http://www.w3.org/2000/svg" xmlns:xlink="http://www.w3.org/1999/xlink" width="84.022pt" height="151.891pt" viewBox="0 0 84.022 151.891"><defs><path id="a" d="M.17188-3.5625c0 .21875.21875.29688.32812.29688.07813 0 .17188-.03125.1875-.14063.07813-.4375.25-.64062.48438-.64062.28124 0 .39062.25.39062.60937 0 .375-.26562.75-.53125.95313-.35937.28125-.48437.4375-.48437.70312 0 .375.3125.57813.64062.57813.1875 0 .42188-.03126.57813-.15626l-.04688-.125c-.04687.01563-.10937.03126-.1875.03126-.125 0-.40625-.10938-.40625-.45313 0-.26562.15625-.48437.45313-.6875.20312-.14062.57812-.375.57812-.84375 0-.54687-.40625-.82812-.95312-.82812-.78125 0-1.03125.5-1.03125.70312M.76563-.29687c0 .21875.15624.375.375.375.21874 0 .375-.15625.375-.375 0-.23438-.15626-.375-.375-.375-.21876 0-.375.14062-.375.375m0 0"/><path id="g" d="M.29688-1.45312C.29688-.4375.78125.07813 1.6875.07813c.42188 0 1-.21875 1.15625-.875L2.67188-.875c-.1875.42188-.42188.625-.85938.625-.71875 0-.89062-.75-.89062-1.3125 0-.89062.35937-1.25.76562-1.25.28125 0 .45313.20313.57813.53125.03125.09375.07812.14063.1875.14063.125 0 .35937-.0625.35937-.29688 0-.28125-.40625-.59375-1.0625-.59375-1.09375 0-1.45312.78125-1.45312 1.57813m0 0"/><path id="h" d="M.1875 0h1.46875v-.17187c-.42187-.03126-.45312-.04688-.45312-.35938V-1.9375c0-.15625 0-.23437.04687-.3125.125-.25.39063-.45312.71875-.45312.51563 0 .57813.39062.57813.75v1.42187c0 .3125-.01563.32813-.45313.35938V0H3.5625v-.17187c-.4375-.03126-.45312-.04688-.45312-.35938V-1.9375c0-.15625.01562-.23437.04687-.32812.09375-.23438.34375-.4375.6875-.4375.375 0 .60938.21875.60938.75v1.42187c0 .3125-.01563.32813-.45313.35938V0h1.46875v-.17187c-.42187-.03126-.45312-.04688-.45312-.35938V-2.0625c0-.60937-.32813-.96875-.89063-.96875-.5 0-.84375.32813-1.0625.46875-.14062-.28125-.375-.46875-.79687-.46875-.46875 0-.84375.3125-1.0625.46875l-.04688-.46875-.9375.15625v.15625l.23438.03125c.15625.01563.1875.04688.1875.26563v1.89062c0 .3125-.01563.32813-.45313.35938Zm0 0"/><path id="b" d="M0 0h2.84375l.0625-.34375-.46875-.04687C2.07813-.40625 1.875-.5 1.875-.75c0-.64062.125-1 .26563-1.64062l1.09375-4.90625h.03125l1.4375 7.15625h.34375l4.67187-7.15625H9.75L8.28125-1c-.10937.40625-.21875.54688-.51562.57813l-.65625.07812L7.03125 0h3.28125l.0625-.34375-.70312-.07812C9.45313-.4375 9.375-.53125 9.375-.73437c0-.07813 0-.15626.03125-.26563l1.45313-6.3125c.09375-.42187.1875-.57812.48437-.60937l.67188-.04688.09375-.34375H9.75c-.64062 1.09375-1.35937 2.17188-2.07812 3.28125l-2.125 3.25H5.5L4.82813-5.125c-.25-1.07812-.48438-2.125-.6875-3.1875H1.79688l-.0625.34375.70312.0625c.20313.01563.29688.10938.29688.3125 0 .07813-.01563.17188-.03125.28125L1.5625-2.39062c-.14062.64062-.28125 1.09375-.42187 1.5-.14063.375-.35938.46875-.70313.5l-.375.04687Zm0 0"/><path id="c" d="M0 0h2.84375l.0625-.34375-.46875-.04687C2.07813-.40625 1.875-.48437 1.875-.75c0-.625.125-1 .26563-1.64062l1.125-4.92188h.03125c1.125 2.4375 2.25 4.875 3.34375 7.3125h.78125l1.34375-5.92187c.14062-.64063.28125-1.10938.42187-1.5.14063-.39063.35938-.46875.71875-.51563l.375-.03125.0625-.34375H7.5l-.0625.34375.46875.04688c.35938.03125.5625.15625.5625.42187 0 .4375-.125.9375-.26562 1.57813l-.98438 4.34375h-.04687C6.125-3.82812 5.10938-6.0625 4.09375-8.3125H1.79688l-.0625.34375.70312.0625c.20313.01563.29688.10938.29688.3125 0 .07813-.01563.17188-.03125.28125L1.5625-2.39062c-.14062.64062-.28125 1.09375-.42187 1.5-.14063.375-.34375.46875-.70313.5l-.375.04687Zm0 0"/><path id="d" d="M.39063-3.25c0 1.98438 1.125 3.42188 3.53125 3.42188 2.125 0 3.15625-1.07813 3.8125-2.26563S8.51563-4.5 8.51563-4.98437c0-2.46875-1.5-3.53125-3.48438-3.53125-1.92187 0-3.10937 1.0625-3.8125 2.21875C.54688-5.1875.39063-4.04687.39063-3.25m1.26562.48438c0-1.01563.1875-2.14063.73438-3.29688.54687-1.14062 1.40625-2.03125 2.6875-2.03125 1.32812 0 2.17187.78125 2.17187 2.48438 0 .70312-.07812 1.6875-.5625 2.95312C6.1875-1.35937 5.35938-.25 3.79688-.25 2.5-.25 1.65625-1.09375 1.65625-2.76562m0 0"/><path id="e" d="M.65625 0h2.04688v-.20312L2.25-.23438c-.14062-.01562-.20312-.0625-.20312-.28124V-4.0625L2-4.09375.67188-3.875v.17188l.46875.07812c.14062.01563.17187.0625.17187.25v2.85938c0 .21874-.0625.26562-.20312.28124l-.45313.03126Zm0 0"/><path id="f" d="M.1875-.07812.25 0h2.60938l.23437-.90625-.20312-.03125c-.14063.3125-.25.35938-.5.35938H.85938c.10937-.26563.39062-.65625.98437-1.03125.64063-.40625 1.0625-.70313 1.0625-1.34375 0-.84375-.57812-1.14063-1.26562-1.14063-.8125 0-1.3125.45313-1.3125.85938 0 .23437.26562.34375.40625.34375.125 0 .1875-.0625.21874-.20313.09376-.4375.3125-.76562.65626-.76562.39062 0 .51562.34375.51562.78125 0 .53125-.21875.9375-.8125 1.4375C.53125-.96875.25-.51562.1875-.07812m0 0"/><path id="i" d="M.26563-.65625c0 .23438.35937.73438 1.26562.73438 1.0625 0 1.48438-.625 1.48438-1.375 0-.70313-.42188-1.28125-1.29688-1.28125-.35937 0-.70312.15625-.92187.32812l.125-.98437c.03124-.1875.04687-.20313.1875-.20313h1.54687l.1875-.51562-.03125-.0625H.65625l-.04687.04687-.125 2 .1875.125c.25-.28125.48437-.42187.79687-.42187.39063 0 .76563.29687.76563 1.04687 0 .60938-.20313 1.04688-.67188 1.04688-.34375 0-.54687-.25-.6875-.6875-.04687-.10938-.10937-.17188-.23437-.17188-.15626 0-.375.14063-.375.375m0 0"/></defs><path fill="none" stroke="red" stroke-miterlimit="10" stroke-width=".39391" d="m27.6914 24.94531 1.26563 7.17578-7.17578 1.26563"/><path fill="#66b2b2" d="m39.4961 133.85156 2.38671-10.66015c-1.40625-.31641-2.86328-.35157-4.28515-.10157Zm0 0"/><path fill="none" stroke="#000" stroke-miterlimit="10" stroke-width=".39391" d="M41.88281 123.1914c-1.40625-.31641-2.86328-.35157-4.28516-.10157"/><use xlink:href="#a" x="38.70251" y="119.55786"/><path fill="none" stroke="#000" stroke-miterlimit="10" stroke-width=".39391" d="m20.51563 26.21094 18.98046 107.6406L65.3672 18.3047Zm0 0"/><use xlink:href="#b" x="4.26733" y="21.68805"/><use xlink:href="#c" x="34.51624" y="146.69598"/><use xlink:href="#d" x="69.89049" y="13.60118"/><use xlink:href="#e" x="9.00716" y="82.04154"/><use xlink:href="#f" x="12.30378" y="82.04154"/><use xlink:href="#g" x="16.95129" y="82.04154"/><use xlink:href="#h" x="19.93425" y="82.04154"/><use xlink:href="#i" x="36.35187" y="17.66389"/><use xlink:href="#g" x="40.99987" y="17.66389"/><use xlink:href="#h" x="43.98283" y="17.66389"/></svg>