<svg xmlns="http://www.w3.org/2000/svg" xmlns:xlink="http://www.w3.org/1999/xlink" width="209.096pt" height="256.143pt" viewBox="0 0 209.096 256.143"><defs><path id="a" d="m-.03125-3.64062.0625.1875 5.70313-.78125 5.70312.78125.04688-.1875-5.75-1.04688Zm0 0"/><path id="b" d="M-.125 0h1.39063l.04687-.20312-.34375-.01563C.89063-.23437.85938-.26562.85938-.32812c0-.03125.01562-.07813.03124-.125.1875-.35938.375-.73438.57813-1.10938h1.29688l.125 1.17188s-.01563.15625-.15625.17187l-.3125.01563L2.375 0h1.64063l.04687-.20312-.25-.01563c-.17187-.01562-.1875-.17187-.21875-.375L3.1875-4.1875H2.625L1.59375-2.375C1.25-1.78125.75-.89062.54688-.5625c-.15626.26563-.25.3125-.4375.34375l-.1875.01563Zm1.73438-1.8125.9375-1.70312.1875 1.70312Zm0 0"/><path id="c" d="M.0625 0h1.90625c1.375 0 1.82813-.5625 1.82813-1.21875 0-.64062-.48438-.9375-.90625-1.01562V-2.25c.79687-.09375 1.15625-.53125 1.15625-1.01562 0-.5-.3125-.92188-1.48438-.92188H.95313L.90625-4l.34375.03125c.09375.01563.14063.04688.14063.15625 0 .03125-.01563.09375-.01563.15625L.67188-.54687C.625-.32813.5625-.25.40625-.23437l-.3125.03124Zm1.34375-.48437c0-.04688.01563-.09375.03125-.14063l.32813-1.5H2c.5625 0 .98438.21875.98438.8125 0 .5625-.3125 1.0625-1.09375 1.0625-.375 0-.48438-.07812-.48438-.23437M1.8125-2.375l.3125-1.35937c.04688-.1875.07813-.21875.42188-.21875.45312 0 .71875.21875.71875.65625 0 .59375-.4375.92187-1.10938.92187Zm0 0"/><path id="d" d="M.40625-1.67187c0 .70312.29688 1.76562 1.92188 1.76562.42187 0 .875-.0625 1.26562-.25l.3125-1.0625h-.20312c-.35938.625-.67188 1.0625-1.39063 1.0625-.64062 0-1.09375-.42187-1.09375-1.3125 0-.5625.15625-1.23437.4375-1.73437.29688-.5.73438-.84375 1.34375-.84375.75 0 .9375.4375.9375 1.04687h.21875l.21875-.98437c-.35937-.21875-.95312-.3125-1.34375-.3125-1.15625 0-1.82812.5-2.21875 1.10937-.32812.51563-.40625 1.10938-.40625 1.51563m0 0"/><path id="e" d="M-.23437 0H2.5l.07813-.34375-.67188-.0625C1.75-.42187 1.6875-.5 1.6875-.625c0-.0625.03125-.14062.0625-.23437.40625-.78125.79688-1.5625 1.23438-2.375h2.71875L6-.73437s-.0625.29687-.3125.32812l-.64062.0625L4.96875 0h2.98438l.07812-.34375-.46875-.04687c-.375-.03125-.42187-.20313-.48437-.70313L6.1875-8.375h-.85937L3.28125-4.8125c-.60937 1.09375-1.625 2.89063-2.0625 3.60938C.82813-.5625.625-.4375.25-.40625l-.40625.0625Zm3.46875-3.70312L5.20313-7.25l.4375 3.54688Zm0 0"/><path id="f" d="M0 0h3.67188C6.59375 0 7.1875-1.51562 7.1875-2.51562c0-1.28125-.9375-1.82813-1.82812-2l.01562-.01563c1.60938-.20312 2.29688-1.10937 2.29688-2.03125 0-.98437-.57813-1.8125-2.8125-1.8125h-3.0625l-.07813.34375.71875.0625c.20313.01563.29688.10938.29688.29688 0 .07812-.03125.1875-.04688.29687L1.25-1c-.09375.39063-.20312.53125-.5.57813l-.6875.07812Zm2.42188-.92187q0-.14063.04687-.28126l.6875-3.10937h.48438c1.1875 0 2.25.35938 2.25 1.73438 0 1.07812-.65625 2.15625-2.28125 2.15625-.95313 0-1.1875-.20313-1.1875-.5M3.25-4.73437l.625-2.8125c.09375-.35938.15625-.42188.96875-.42188 1.01563 0 1.59375.51563 1.59375 1.375 0 1.25-1.0625 1.85938-2.40625 1.85938Zm0 0"/><path id="g" d="M.625-3.32812C.625-1.73437 1.42188.1875 4.42188.1875c.85937 0 1.6875-.125 2.46875-.51562L7.46875-2.25h-.35937c-.67188 1.20313-1.26563 2-2.76563 2-1.40625 0-2.40625-.89062-2.40625-2.76562 0-1.09375.28125-2.4375.85938-3.40625.60937-1.01563 1.5625-1.71875 2.85937-1.71875 1.53125 0 1.96875.70312 1.96875 2.03125H8l.4375-1.8125c-.6875-.4375-1.82812-.65625-2.67187-.65625-2.28125 0-3.59375 1.07812-4.3125 2.20312C.78125-5.28125.625-4.15625.625-3.32812m0 0"/><path id="h" d="M.29688-2.07812c0 .71875.20312 1.29687.5625 1.65625.375.375.98437.51562 1.65625.51562.48437 0 1.04687-.14062 1.34375-.29687l.07812-1.01563H3.75C3.59375-.57812 3.26563-.125 2.48438-.125 1.21875-.125.96875-1.34375.96875-2.07812c0-1 .39063-2 1.51563-2 .625 0 1.0625.26562 1.17187.96875h.1875v-.9375c-.28125-.14063-.73437-.25-1.28125-.25-.75 0-1.35937.21875-1.71875.625C.5-3.28125.29688-2.75.29688-2.07812m0 0"/><path id="i" d="m.82813-3.40625.10937.125.625-.46875c.0625-.04687.14063-.09375.1875-.09375.0625 0 .125.04688.1875.09375l.625.46875.10938-.125-.70313-.8125C1.90625-4.29687 1.82813-4.375 1.75-4.375c-.0625 0-.14062.07813-.21875.15625ZM.29688-1.48437C.29688-.5.78125.07813 1.75.07813c.98438 0 1.45313-.57813 1.45313-1.5625 0-.98438-.46875-1.5625-1.45313-1.5625-.96875 0-1.45312.57812-1.45312 1.5625m.625 0c0-.84375.28124-1.34375.82812-1.34375.5625 0 .82813.5.82813 1.34375S2.3125-.14062 1.75-.14062c-.54687 0-.82812-.5-.82812-1.34375m0 0"/><path id="j" d="M.1875-2.73437H.625V-.625c0 .625.45313.70313.67188.70313.3125 0 .59375-.15625.78125-.26563l-.04688-.14062C1.875-.26562 1.75-.25 1.59375-.25c-.20312 0-.40625-.14062-.40625-.60937v-1.875h.78125v-.23438H1.1875v-.76562h-.17187l-.35938.76562H.1875Zm0 0"/><path id="k" d="m1.21875-3.40625.09375.125.90625-.51562C2.40625-3.89062 2.5625-4 2.5625-4.125s-.14062-.26562-.23437-.26562c-.10938 0-.20313.0625-.39063.25Zm-.92187 1.9375C.29688-.5.70313.07813 1.70313.07813c.67187 0 1.01562-.375 1.17187-.85938L2.70313-.875c-.17188.35938-.40625.64063-.89063.64063-.75 0-.89062-.73438-.89062-1.35938h1.75c.14062 0 .25-.03125.25-.23437 0-.35938-.125-1.21875-1.23438-1.21875-.95312 0-1.39062.67187-1.39062 1.57812m.64062-.35937c0-.25.09375-1 .71875-1 .5625 0 .625.5625.625.8125 0 .10937-.03125.1875-.20312.1875Zm0 0"/><path id="l" d="M.29688-.78125c0 .45313.29687.85938.875.85938.34375 0 .70312-.23438.90625-.375.07812.23437.1875.375.39062.375.23438 0 .48438-.07813.71875-.1875L3.15625-.25c-.09375.01563-.23437.03125-.3125 0C2.73438-.28125 2.625-.39062 2.625-.76562v-1.46875c0-.35938-.07812-.8125-1-.8125-.67187 0-1.21875.35937-1.21875.6875 0 .20312.21875.28125.34375.28125s.15625-.0625.1875-.15625c.14063-.45313.39063-.59375.625-.59375.25 0 .51563.125.51563.60937v.25c-.15625.15625-.75.29688-1.21875.45313-.4375.14062-.5625.4375-.5625.73437M.90625-.875c0-.28125.125-.42187.46875-.5625.25-.07812.5625-.20312.70313-.28125v.85938c0 .48437-.375.60937-.60938.60937-.375 0-.5625-.26562-.5625-.625m0 0"/><path id="m" d="M.29688-1.42187c0 .89062.46875 1.5 1.26562 1.5.32813 0 .60938-.15625.9375-.42188v.29688L2.5625 0h.96875v-.17187c-.42187-.03126-.45312-.04688-.45312-.35938v-3.9375L3.04688-4.5l-.96875.15625v.15625l.23437.01563c.15625.01562.20313.04687.20313.28125v1c-.17188-.09375-.40625-.15625-.67188-.15625-.5 0-.875.15625-1.125.42187-.26562.26563-.42187.67188-.42187 1.20313M.92188-1.5c0-.78125.29687-1.32812.90625-1.32812.28124 0 .51562.125.625.375.0625.10937.0625.1875.0625.35937v1.0625c0 .14063 0 .23438-.04688.34375-.125.3125-.39062.4375-.70312.4375-.54688 0-.84375-.54687-.84375-1.25m0 0"/><path id="n" d="M.5625-3.96875c0 .21875.14063.375.35938.375.23437 0 .375-.15625.375-.375s-.14063-.375-.375-.375c-.21876 0-.35938.15625-.35938.375m-.76562 5.29688.01562.14062c.10938 0 .28125-.01562.45313-.0625.76562-.15625.95312-.6875.95312-1.45312V-3l-.04687-.04687-.95313.15625V-2.75l.23438.04688c.15625.01562.1875.0625.1875.26562v2.21875c0 .4375-.03126.85938-.15626 1.10938-.10937.21874-.3125.34375-.6875.4375m0 0"/><path id="o" d="M.29688-1.45312c0 1.01562.5 1.53125 1.40625 1.53125.42187 0 1-.21875 1.17187-.875l-.1875-.09376C2.5-.45312 2.26563-.25 1.8125-.25 1.09375-.25.92188-1 .92188-1.5625c0-.90625.35937-1.26562.78125-1.26562.28124 0 .45312.1875.57812.53125.03125.09375.07813.14062.1875.14062.125 0 .35938-.0625.35938-.29687 0-.28125-.40625-.59375-1.0625-.59375-1.09375 0-1.46875.78125-1.46875 1.59375m0 0"/><path id="p" d="M.29688-1.46875C.29688-.5.70313.07813 1.70313.07813c.67187 0 1.01562-.375 1.17187-.85938L2.70313-.875c-.17188.35938-.40625.64063-.89063.64063-.75 0-.89062-.73438-.89062-1.35938h1.75c.14062 0 .25-.03125.25-.23437 0-.35938-.125-1.21875-1.23438-1.21875-.95312 0-1.39062.67187-1.39062 1.57812m.64062-.35937c0-.25.09375-1 .71875-1 .5625 0 .625.5625.625.8125 0 .10937-.03125.1875-.20312.1875Zm0 0"/><path id="q" d="M.1875 0h1.48438v-.17187c-.4375-.03126-.45313-.04688-.45313-.35938v-1.42187c0-.15626 0-.23438.0625-.32813.125-.23437.39063-.4375.71875-.4375.40625 0 .64063.23438.64063.75v1.4375c0 .3125-.01563.32813-.45313.35938V0h1.48438v-.17187c-.4375-.03126-.46875-.04688-.46875-.35938v-1.54687c0-.60938-.32813-.96875-.89063-.96875-.45312 0-.71875.21875-1.09375.46875L1.125-3.04687l-.90625.15625V-2.75l.23438.04688c.15625.01562.20312.04687.20312.26562v1.90625c0 .3125-.03125.32813-.46875.35938Zm0 0"/><path id="r" d="M.67188-4.125c0 .125.15624.23438.34375.32813l.90625.51562.09374-.125-.71875-.73437c-.1875-.1875-.28124-.25-.39062-.25-.09375 0-.23437.14062-.23437.26562m-.375 3.34375c0 .45313.29687.85938.875.85938.34375 0 .70312-.23438.90625-.375.07812.23437.1875.375.39062.375.23438 0 .48438-.07813.71875-.1875L3.15625-.25c-.09375.01563-.23437.03125-.3125 0C2.73438-.28125 2.625-.39062 2.625-.76562v-1.46875c0-.35938-.07812-.8125-1-.8125-.67187 0-1.21875.35937-1.21875.6875 0 .20312.21875.28125.34375.28125s.15625-.0625.1875-.15625c.14063-.45313.39063-.59375.625-.59375.25 0 .51563.125.51563.60937v.25c-.15625.15625-.75.29688-1.21875.45313-.4375.14062-.5625.4375-.5625.73437M.90625-.875c0-.28125.125-.42187.46875-.5625.25-.07812.5625-.20312.70313-.28125v.85938c0 .48437-.375.60937-.60938.60937-.375 0-.5625-.26562-.5625-.625m0 0"/><path id="s" d="M.21875 0h1.6875v-.17187C1.375-.21875 1.35938-.21875 1.35938-.5625v-1.51562h2.125V-.5625c0 .34375-.01563.34375-.54688.39063V0H4.625v-.17187c-.53125-.04688-.54687-.04688-.54687-.39063v-3.07812c0-.32813.01562-.34375.54687-.375v-.17188H2.9375v.17188c.53125.03125.54688.04687.54688.375v1.34375h-2.125v-1.34375c0-.32813.01562-.34375.54687-.375v-.17188H.21875v.17188c.53125.03125.54688.04687.54688.375V-.5625c0 .34375-.01563.34375-.54688.39063Zm0 0"/><path id="t" d="M-.03125-2.79687c.29688.01562.35938.04687.46875.3125.29688.73437.79688 2.01562.9375 2.4375.04688.10937.0625.1875.0625.29687 0 .14063-.0625.32813-.15625.51563-.09375.20312-.20312.26562-.26562.26562C.96875 1.03125.90625 1 .79687.89063.73438.84375.6875.8125.60938.8125.5.8125.34376.98438.34376 1.15625c0 .14063.17188.3125.42188.3125S1.32813 1.39063 1.625.5C2-.57812 2.5625-2.0625 2.75-2.48437c.10938-.25.14063-.29688.45313-.3125v-.17188H2.04688v.17188l.3125.03125c.09375.01562.10937.07812.07812.20312-.09375.35938-.40625 1.28125-.67187 2H1.75c-.26562-.73437-.51562-1.375-.75-2.01562-.03125-.10938-.04687-.1875.09375-.20313l.26563-.01562v-.17188H-.03126Zm0 0"/><path id="u" d="M.15625 1.21875v.17188h1.5625v-.17188c-.5-.03125-.54687-.04687-.54687-.35937V-.0625c.125.0625.42187.14063.70312.14063.8125 0 1.51563-.375 1.51563-1.64063 0-.42187-.07813-1.48437-1.1875-1.48437-.4375 0-.79688.29687-1.03125.45312l-.07813-.45312-.90625.15625V-2.75l.21875.04688c.15625.01562.20313.04687.20313.26562V.85938c0 .3125-.03126.32812-.45313.35937M1.17188-.95312v-1c0-.15626.03124-.23438.09374-.34375.14063-.26563.39063-.42188.70313-.42188.25 0 .79688.15625.79688 1.20313 0 .89062-.28125 1.375-.89063 1.375-.3125 0-.5625-.15625-.65625-.4375q-.04687-.16407-.04687-.375m0 0"/><path id="v" d="M.29688-1.48437C.29688-.5.78125.07813 1.75.07813c.98438 0 1.45313-.57813 1.45313-1.5625 0-.98438-.46875-1.5625-1.45313-1.5625-.96875 0-1.45312.57812-1.45312 1.5625m.625 0c0-.84375.28124-1.34375.82812-1.34375.5625 0 .82813.5.82813 1.34375S2.3125-.14062 1.75-.14062c-.54687 0-.82812-.5-.82812-1.34375m0 0"/><path id="w" d="m.15625-2.75.23438.04688c.15625.01562.1875.04687.1875.26562v1.59375c0 .70313.42187.92188.875.92188.51562 0 .92187-.35938 1.10937-.4375L2.60938 0h.98437v-.17187C3.17188-.20313 3.125-.21875 3.125-.53125V-3l-.04687-.04687-.9375.15625V-2.75l.23437.04688c.14063.01562.1875.04687.1875.26562v1.35938c0 .17187-.01562.3125-.04687.375-.14063.26562-.4375.45312-.75.45312-.35938 0-.60938-.23437-.60938-.70312V-3l-.04687-.04687-.95313.15625Zm0 0"/><path id="x" d="m.28125-1.01562.0625.79687c.21875.1875.59375.29688.95313.29688.71875 0 1.125-.39063 1.125-.90625 0-.53125-.32813-.76563-.95313-.96875C1.21875-1.875.82813-2 .82813-2.34375c0-.3125.23437-.48437.54687-.48437.42188 0 .625.32812.67188.70312h.17187v-.71875c-.1875-.14062-.5-.20312-.76562-.20312-.67188 0-1.10938.3125-1.10938.89062 0 .5.40625.71875.92188.875.26562.09375.64062.21875.64062.64063 0 .3125-.23437.5-.5625.5-.48437 0-.76562-.35938-.89062-.875Zm0 0"/></defs><path fill="none" stroke="red" stroke-miterlimit="10" stroke-width=".39678" d="M62.42188 230.58985h7.33984v7.33984"/><path fill="#66b2b2" d="m190.8711 237.92969-5.54688-9.50781c-3.3789 1.97265-5.46094 5.59375-5.46094 9.5078Zm0 0"/><path fill="none" stroke="#000" stroke-miterlimit="10" stroke-width=".39678" d="M185.32419 228.42188c-3.3789 1.97265-5.46094 5.59375-5.46094 9.5078"/><use xlink:href="#a" x="160.31948" y="225.31498"/><use xlink:href="#b" x="159.35903" y="226.63139"/><use xlink:href="#c" x="163.7758" y="226.63139"/><use xlink:href="#d" x="168.08296" y="226.63139"/><path fill="none" stroke="#007f7f" stroke-miterlimit="10" stroke-width=".39678" d="M62.42188 237.92969h128.44918"/><path fill="none" stroke="#ff7f00" stroke-miterlimit="10" stroke-width=".39678" d="M190.87106 237.92969 62.42188 17.73052"/><path fill="none" stroke="#bf0040" stroke-miterlimit="10" stroke-width=".39678" d="M62.42188 17.73052V237.9297"/><use xlink:href="#e" x="49.03301" y="250.86661"/><use xlink:href="#f" x="195.4251" y="250.86661"/><use xlink:href="#g" x="48.60785" y="12.99801"/><g fill="#007f7f"><use xlink:href="#h" x="98.11382" y="248.4879"/><use xlink:href="#i" x="102.25333" y="248.4879"/><use xlink:href="#j" x="105.74806" y="248.4879"/><use xlink:href="#k" x="107.83071" y="248.4879"/></g><g fill="#007f7f"><use xlink:href="#l" x="112.30551" y="248.4879"/><use xlink:href="#m" x="115.4714" y="248.4879"/><use xlink:href="#n" x="119.09509" y="248.4879"/><use xlink:href="#l" x="120.79087" y="248.4879"/><use xlink:href="#o" x="123.95676" y="248.4879"/><use xlink:href="#p" x="126.96145" y="248.4879"/><use xlink:href="#q" x="130.07576" y="248.4879"/><use xlink:href="#j" x="133.82195" y="248.4879"/></g><use xlink:href="#r" x="137.2651" y="248.4879" fill="#007f7f"/><use xlink:href="#a" x="142.75263" y="247.17278" fill="#007f7f"/><use xlink:href="#b" x="141.79218" y="248.4879" fill="#007f7f"/><use xlink:href="#c" x="146.20895" y="248.4879" fill="#007f7f"/><use xlink:href="#d" x="150.51611" y="248.4879" fill="#007f7f"/><use xlink:href="#s" x="131.20177" y="121.81256" fill="#ff7f00"/><g fill="#ff7f00"><use xlink:href="#t" x="135.89579" y="121.81256"/><use xlink:href="#u" x="138.95852" y="121.81256"/><use xlink:href="#v" x="142.64023" y="121.81256"/><use xlink:href="#j" x="146.13496" y="121.81256"/><use xlink:href="#k" x="148.21761" y="121.81256"/><use xlink:href="#q" x="151.33192" y="121.81256"/><use xlink:href="#w" x="155.07812" y="121.81256"/><use xlink:href="#x" x="158.74694" y="121.81256"/><use xlink:href="#p" x="161.3841" y="121.81256"/></g><g fill="#bf0040"><use xlink:href="#h" x="4.29842" y="130.13657"/><use xlink:href="#i" x="8.43793" y="130.13657"/><use xlink:href="#j" x="11.93266" y="130.13657"/><use xlink:href="#k" x="14.01531" y="130.13657"/></g><g fill="#bf0040"><use xlink:href="#v" x="18.48366" y="130.13657"/><use xlink:href="#u" x="21.97839" y="130.13657"/><use xlink:href="#u" x="25.66011" y="130.13657"/><use xlink:href="#v" x="29.34183" y="130.13657"/><use xlink:href="#x" x="32.83655" y="130.13657"/><use xlink:href="#k" x="35.47372" y="130.13657"/></g><use xlink:href="#r" x="39.94852" y="130.13657" fill="#bf0040"/><use xlink:href="#a" x="45.44104" y="128.82146" fill="#bf0040"/><use xlink:href="#b" x="44.48059" y="130.13657" fill="#bf0040"/><use xlink:href="#c" x="48.89736" y="130.13657" fill="#bf0040"/><use xlink:href="#d" x="53.20452" y="130.13657" fill="#bf0040"/></svg>