<svg xmlns="http://www.w3.org/2000/svg" xmlns:xlink="http://www.w3.org/1999/xlink" width="319.973pt" height="393.999pt" viewBox="0 0 319.973 393.999"><defs><path id="a" d="m-.04687-5.60937.09375.26562 8.8125-1.20312 8.8125 1.20312.07812-.26562L8.85938-7.25Zm0 0"/><path id="b" d="M-.1875 0h2.15625l.0625-.3125L1.5-.34375c-.10937-.01562-.17187-.07812-.17187-.17187 0-.04688.03124-.10938.0625-.1875.28124-.54688.54687-1.125.875-1.70313h2.01562l.1875 1.79688s-.03125.23437-.23437.26562l-.5.03125L3.67188 0h2.53125l.0625-.3125-.35938-.03125c-.29687-.03125-.3125-.25-.35937-.57812l-.625-5.5625h-.875l-1.59375 2.8125C1.9375-2.76562 1.15625-1.375.84375-.875c-.25.40625-.39062.5-.6875.53125L-.125-.3125Zm2.67188-2.8125 1.45312-2.625.29688 2.625Zm0 0"/><path id="c" d="M.09375 0h2.95313C5.15625 0 5.875-.875 5.875-1.89062c0-.98438-.75-1.4375-1.42187-1.5625v-.01563c1.23437-.14062 1.78125-.82812 1.78125-1.5625 0-.79687-.46875-1.45312-2.28125-1.45312H1.46875l-.0625.3125.51563.04687c.15624.01563.23437.07813.23437.21875 0 .07813-.01562.17188-.04687.26563L1.03125-.84375C.96875-.51562.875-.39062.625-.35937L.15625-.3125ZM2.1875-.75c0-.07812 0-.14062.03125-.23437l.5-2.29688h.375c.875 0 1.51563.34375 1.51563 1.25 0 .85938-.5 1.65625-1.67188 1.65625-.60937 0-.75-.14062-.75-.375m.625-2.90625.46875-2.10937c.0625-.28125.125-.34375.64063-.34375.70312 0 1.125.34375 1.125 1 0 .92187-.6875 1.45312-1.71875 1.45312Zm0 0"/><path id="d" d="M.625-2.57812C.625-1.5 1.09375.14063 3.59375.14063 4.25.14063 4.95313.04688 5.54688-.25l.5-1.64062h-.32813C5.15625-.92187 4.67188-.23437 3.5625-.23437c-.96875 0-1.67187-.65625-1.67187-2.03125 0-.85938.21874-1.90625.67187-2.6875C3.01563-5.71875 3.6875-6.25 4.64063-6.25c1.15625 0 1.45312.67188 1.45312 1.625h.3125l.35938-1.53125C6.20313-6.48437 5.28125-6.625 4.6875-6.625c-1.78125 0-2.82812.76563-3.42187 1.70313C.75-4.125.625-3.21875.625-2.57812m0 0"/><path id="e" d="M-.35937 0h4.21875l.125-.53125-1.03125-.10937c-.25-.01563-.34375-.14063-.34375-.3125 0-.10938.04687-.23438.09375-.375C3.32813-2.53125 3.92188-3.75 4.625-5h4.20313l.45312 3.85938s-.09375.46875-.5.5l-.98437.10937L7.6875 0h4.60938l.10937-.53125-.71875-.0625c-.57812-.0625-.65625-.32812-.75-1.09375l-1.375-11.26562H8.23438L5.07813-7.4375C4.125-5.75 2.5625-2.96875 1.875-1.85937 1.28125-.875.95313-.67187.375-.625l-.60937.09375ZM5-5.71875l3.04688-5.5.67187 5.5Zm0 0"/><path id="f" d="M0 0h5.67188c4.53125 0 5.4375-2.32812 5.4375-3.89062 0-1.96875-1.45313-2.82813-2.82813-3.07813l.03125-.04687c2.48438-.29688 3.54688-1.70313 3.54688-3.125 0-1.51563-.90625-2.8125-4.34375-2.8125h-4.75l-.10938.54687 1.10938.09375c.3125.01563.45312.15625.45312.45313 0 .125-.03125.28125-.07812.46875L1.9375-1.54687c-.14062.60937-.32812.82812-.78125.89062l-1.0625.125Zm3.75-1.4375c0-.14062.01563-.28125.0625-.42187L4.875-6.65625h.75c1.84375 0 3.48438.54688 3.48438 2.67188 0 1.67187-1.01563 3.32812-3.53125 3.32812C4.10938-.65625 3.75-.95312 3.75-1.4375m1.26563-5.875L6-11.65625c.14063-.5625.23438-.65625 1.48438-.65625 1.57812 0 2.45312.79688 2.45312 2.10938 0 1.95312-1.625 2.89062-3.70312 2.89062Zm0 0"/><path id="g" d="M.96875-5.14062c0 2.46875 1.21875 5.42187 5.85938 5.42187 1.34375 0 2.60937-.1875 3.8125-.78125l.90625-2.98437H11C9.95313-1.60937 9.03125-.375 6.71875-.375c-2.17187 0-3.73437-1.39062-3.73437-4.28125 0-1.70312.4375-3.76562 1.34375-5.26562C5.26563-11.5 6.73438-12.59375 8.75-12.59375c2.35938 0 3.04688 1.09375 3.04688 3.15625h.57812l.67188-2.8125c-1.07813-.67187-2.82813-1-4.14063-1-3.53125 0-5.5625 1.65625-6.65625 3.40625C1.21875-8.17187.96875-6.4375.96875-5.14062m0 0"/><path id="h" d="M.45313-3.20312c0 1.09375.32812 1.98437.875 2.54687.57812.57813 1.51562.79688 2.5625.79688.75 0 1.60937-.20313 2.0625-.45313l.125-1.5625h-.28125c-.25.98438-.75 1.6875-1.96875 1.6875C1.89063-.1875 1.5-2.07812 1.5-3.21875c0-1.53125.60938-3.07812 2.34375-3.07812.96875 0 1.625.39062 1.8125 1.5h.28125v-1.46875c-.42187-.1875-1.125-.35938-1.98437-.35938-1.15625 0-2.09375.32813-2.64063.96875C.76563-5.0625.45313-4.25.45313-3.20312m0 0"/><path id="i" d="m1.28125-5.26562.17188.1875.96875-.71875c.09375-.07813.20312-.14063.29687-.14063.07813 0 .1875.0625.28125.14063l.96875.71875.17188-.1875-1.09375-1.25C2.9375-6.625 2.82813-6.75 2.71875-6.75S2.5-6.64062 2.375-6.51562ZM.45313-2.29687c0 1.51562.75 2.40625 2.26562 2.40625 1.5 0 2.23438-.89063 2.23438-2.40625 0-1.51563-.73438-2.40625-2.23438-2.40625-1.51562 0-2.26562.89062-2.26562 2.40625m.98437 0c0-1.29688.42188-2.07813 1.28125-2.07813.84375 0 1.26563.78125 1.26563 2.07813S3.5625-.21875 2.71875-.21875C1.85938-.21875 1.4375-1 1.4375-2.29687m0 0"/><path id="j" d="M.29688-4.21875h.67187v3.26563C.96875 0 1.67188.10938 2 .10938c.48438 0 .9375-.23438 1.20313-.40625L3.125-.5c-.21875.09375-.42187.125-.65625.125-.32812 0-.625-.23437-.625-.9375v-2.90625h1.20313v-.375H1.84375v-1.17187h-.26562L1-4.59375H.29688Zm0 0"/><path id="k" d="m1.89063-5.26562.14062.1875 1.40625-.78125c.28125-.15625.53125-.3125.53125-.51563 0-.1875-.23437-.40625-.375-.40625-.15625 0-.3125.10938-.59375.39063Zm-1.4375 3c0 1.48437.64062 2.375 2.17187 2.375 1.03125 0 1.57813-.57813 1.82813-1.3125l-.28125-.15626c-.26563.54688-.625.98438-1.35938.98438-1.17187 0-1.39062-1.10937-1.375-2.09375h2.70313c.20312 0 .35937-.04687.35937-.35937 0-.54688-.17187-1.875-1.89062-1.875-1.46875 0-2.15625 1.03125-2.15625 2.4375m1-.5625c0-.375.125-1.54688 1.10937-1.54688.85938 0 .96875.89063.96875 1.25 0 .1875-.0625.29688-.32812.29688Zm0 0"/><path id="l" d="M.45313-1.21875c0 .70313.46875 1.32813 1.34375 1.32813.5625 0 1.10937-.35938 1.40625-.5625.125.35937.28125.5625.60937.5625.35938 0 .75-.09375 1.10938-.28126l-.0625-.21874c-.125.03125-.32813.04687-.46875 0-.17188-.03125-.32813-.20313-.32813-.79688v-2.26562c0-.54688-.125-1.25-1.54687-1.25-1.04688 0-1.89063.54687-1.89063 1.0625 0 .29687.35938.4375.53125.4375.20313 0 .25-.09375.29688-.25.21874-.70313.59375-.92188.96875-.92188s.78125.1875.78125.9375v.39063c-.23438.23437-1.14063.46875-1.875.71875-.6875.20312-.875.67187-.875 1.10937m.95312-.125c0-.4375.20313-.67187.73438-.875.375-.14062.85937-.3125 1.0625-.4375v1.32813c0 .75-.57813.9375-.9375.9375-.57813 0-.85938-.40625-.85938-.95313m0 0"/><path id="m" d="M.45313-2.20312c0 1.39062.73437 2.3125 1.96875 2.3125.51562 0 .9375-.23438 1.45312-.64063v.46875L3.95313 0h1.51562v-.26562c-.67187-.04688-.70312-.07813-.70312-.54688v-6.07812l-.07813-.0625-1.46875.23437v.23438l.35938.03125c.23437.03125.29687.07812.29687.4375v1.54687c-.25-.14062-.60937-.23437-1.03125-.23437-.76562 0-1.34375.25-1.73437.64062-.40625.42188-.65625 1.04688-.65625 1.85938m.98437-.10938c0-1.21875.4375-2.0625 1.39063-2.0625.4375 0 .79687.20313.96875.59375.07812.15625.07812.29688.07812.54688v1.64062c0 .20313 0 .375-.0625.53125-.1875.48438-.59375.67188-1.07812.67188-.85938 0-1.29688-.84375-1.29688-1.92188m0 0"/><path id="n" d="M.85938-6.125c0 .32813.23437.57813.57812.57813S2-5.79687 2-6.125c0-.34375-.21875-.57812-.5625-.57812s-.57812.23437-.57812.57812M-.3125 2.04688l.01563.21875c.17187 0 .4375-.01563.70312-.07813C1.57813 1.92188 1.875 1.10938 1.875-.0625v-4.57812l-.07812-.0625-1.45313.23437v.23438l.35938.04687C.9375-4.14062 1-4.09375 1-3.76562v3.42187C1 .34375.95313.98438.75 1.375c-.17187.32813-.48437.53125-1.0625.67188m0 0"/><path id="o" d="M.45313-2.25c0 1.5625.76562 2.35938 2.17187 2.35938.67188 0 1.54688-.34375 1.8125-1.34375l-.28125-.125C3.875-.70312 3.5-.375 2.8125-.375c-1.125 0-1.375-1.17187-1.375-2.04687 0-1.39063.54688-1.95313 1.1875-1.95313.4375 0 .70313.3125.89063.8125.0625.15625.125.25.29687.25.1875 0 .54688-.125.54688-.48437 0-.4375-.60938-.90625-1.625-.90625C1.03125-4.70312.45313-3.5.45313-2.25m0 0"/><path id="p" d="M.45313-2.26562c0 1.48437.64062 2.375 2.17187 2.375 1.03125 0 1.57813-.57813 1.82813-1.3125l-.28125-.15626c-.26563.54688-.625.98438-1.35938.98438-1.17187 0-1.39062-1.10937-1.375-2.09375h2.70313c.20312 0 .35937-.04687.35937-.35937 0-.54688-.17187-1.875-1.89062-1.875-1.46875 0-2.15625 1.03125-2.15625 2.4375m1-.5625c0-.375.125-1.54688 1.10937-1.54688.85938 0 .96875.89063.96875 1.25 0 .1875-.0625.29688-.32812.29688Zm0 0"/><path id="q" d="M.29688 0h2.28125v-.26562c-.67188-.04688-.6875-.07813-.6875-.54688v-2.20312c0-.23438 0-.35938.07812-.5.20313-.375.625-.6875 1.125-.6875.64063 0 .98438.35937.98438 1.17187V-.8125c0 .46875-.03125.5-.70313.54688V0h2.28125v-.26562C5-.3125 4.95313-.34375 4.95313-.8125v-2.39062c0-.95313-.51563-1.5-1.375-1.5-.70313 0-1.125.34375-1.70313.71875l-.125-.71875-1.40625.23437v.23438l.35938.04687C.9375-4.14062 1-4.10937 1-3.76562V-.8125c0 .46875-.01562.5-.70312.54688Zm0 0"/><path id="r" d="M1.03125-6.375c0 .20313.25.35938.53125.51563l1.42188.78125.14062-.1875L2-6.39062c-.28125-.28125-.4375-.39063-.59375-.39063-.14062 0-.375.21875-.375.40625M.45313-1.21875c0 .70313.46875 1.32813 1.34375 1.32813.5625 0 1.10937-.35938 1.40625-.5625.125.35937.28125.5625.60937.5625.35938 0 .75-.09375 1.10938-.28126l-.0625-.21874c-.125.03125-.32813.04687-.46875 0-.17188-.03125-.32813-.20313-.32813-.79688v-2.26562c0-.54688-.125-1.25-1.54687-1.25-1.04688 0-1.89063.54687-1.89063 1.0625 0 .29687.35938.4375.53125.4375.20313 0 .25-.09375.29688-.25.21874-.70313.59375-.92188.96875-.92188s.78125.1875.78125.9375v.39063c-.23438.23437-1.14063.46875-1.875.71875-.6875.20312-.875.67187-.875 1.10937m.95312-.125c0-.4375.20313-.67187.73438-.875.375-.14062.85937-.3125 1.0625-.4375v1.32813c0 .75-.57813.9375-.9375.9375-.57813 0-.85938-.40625-.85938-.95313m0 0"/><path id="s" d="M.32813 0H2.9375v-.26562c-.8125-.0625-.82812-.07813-.82812-.60938v-2.32812h3.28125V-.875c0 .53125-.03125.54688-.85938.60938V0h2.60938v-.26562c-.8125-.0625-.82813-.07813-.82813-.60938v-4.73437c0-.53125.01563-.54688.82813-.59375v-.28125H4.53125v.28125c.82813.04687.85938.0625.85938.59375v2.0625H2.10938v-2.0625c0-.53125.01562-.54688.82812-.59375v-.28125H.32813v.28125c.82812.04687.84375.0625.84375.59375V-.875c0 .53125-.01563.54688-.84375.60938Zm0 0"/><path id="t" d="M-.04687-4.3125c.45312.01563.54687.07813.71875.48438.46875 1.125 1.23437 3.10937 1.46875 3.76562.04687.15625.07812.29688.07812.45313 0 .21875-.09375.5-.23437.79687-.14063.3125-.3125.39063-.40625.39063s-.1875-.01563-.35938-.1875C1.14063 1.3125 1.0625 1.25.95313 1.25c-.1875 0-.42188.26563-.42188.53125 0 .23438.26563.48438.65625.48438.375 0 .85938-.10938 1.32813-1.5C3.09375-.89062 3.96875-3.1875 4.25-3.84375c.17188-.375.21875-.4375.6875-.46875v-.28125H3.15625v.28125l.48438.03125c.15625.03125.17187.14063.125.32813-.14063.54687-.625 1.96875-1.03125 3.09375h-.01563C2.28125-2 1.90625-3 1.5625-3.98437c-.0625-.17188-.09375-.28125.125-.29688l.42188-.03125v-.28125H-.04687Zm0 0"/><path id="u" d="M.23438 1.89063v.26562h2.42187v-.26562c-.78125-.0625-.84375-.07813-.84375-.5625V-.09376c.20313.10938.65625.20313 1.07813.20313 1.26562 0 2.34375-.57813 2.34375-2.51563 0-.67187-.125-2.29687-1.82813-2.29687-.6875 0-1.21875.45312-1.59375.70312l-.125-.70312-1.40625.23437v.23438l.35938.04687c.23437.04688.29687.07813.29687.42188v5.09375c0 .48437-.04687.5-.70312.5625M1.8125-1.46875v-1.54687c0-.23438.04688-.35938.125-.51563.21875-.4375.60938-.67187 1.10938-.67187.375 0 1.21875.25 1.21875 1.85937 0 1.375-.4375 2.125-1.375 2.125-.48438 0-.85938-.25-1-.67187-.0625-.17188-.07813-.35938-.07813-.57813m0 0"/><path id="v" d="M.45313-2.29687c0 1.51562.75 2.40625 2.26562 2.40625 1.5 0 2.23438-.89063 2.23438-2.40625 0-1.51563-.73438-2.40625-2.23438-2.40625-1.51562 0-2.26562.89062-2.26562 2.40625m.98437 0c0-1.29688.42188-2.07813 1.28125-2.07813.84375 0 1.26563.78125 1.26563 2.07813S3.5625-.21875 2.71875-.21875C1.85938-.21875 1.4375-1 1.4375-2.29687m0 0"/><path id="w" d="m.23438-4.23437.35937.04687c.25.04688.29688.07813.29688.42188v2.46875c0 1.07812.64062 1.40625 1.34375 1.40625.79687 0 1.4375-.53125 1.71875-.67188L4.03125 0h1.51563v-.26562c-.65625-.04688-.71875-.07813-.71875-.54688v-3.82812l-.0625-.0625-1.46875.23437v.23438l.35937.04687c.23438.04688.29688.07813.29688.42188v2.10937c0 .26563-.03125.46875-.07813.5625-.21875.42188-.65625.70313-1.14062.70313-.54688 0-.95313-.34375-.95313-1.07813v-3.17187l-.0625-.0625-1.48437.23437Zm0 0"/><path id="x" d="M.4375-1.5625.53125-.34375C.875-.04687 1.45313.10938 2 .10938c1.10938 0 1.75-.59375 1.75-1.39063 0-.82812-.51562-1.1875-1.48437-1.48437-.375-.125-.98438-.32813-.98438-.85938 0-.48437.35938-.75.82813-.75.67187 0 .98437.51563 1.0625 1.07813h.26562v-1.09375c-.3125-.21875-.78125-.3125-1.20312-.3125-1.01563 0-1.70313.46875-1.70313 1.35937 0 .78125.64063 1.125 1.40625 1.375.42188.125 1.01563.32813 1.01563.96875 0 .48438-.375.78125-.875.78125-.75 0-1.1875-.54687-1.375-1.34375Zm0 0"/></defs><path fill="none" stroke="red" stroke-miterlimit="10" stroke-width=".39847" d="M95.60547 367.35156v-11.33594h11.33594v11.33594H95.60547"/><path fill="#99F" d="m294.01563 367.35156-14.28125-24.48047c-8.70704 5.07813-14.0625 14.40235-14.0625 24.48047Zm0 0"/><path fill="none" stroke="#000" stroke-miterlimit="10" stroke-width=".39847" d="M279.73444 342.87108c-8.70703 5.07813-14.0625 14.40235-14.0625 24.48048"/><use xlink:href="#a" x="245.83326" y="347.30082"/><use xlink:href="#b" x="244.76735" y="349.33265"/><use xlink:href="#c" x="251.58122" y="349.33265"/><use xlink:href="#d" x="258.2357" y="349.33265"/><path fill="none" stroke="#007F7F" stroke-miterlimit="10" stroke-width=".39847" d="M95.60547 367.35156H294.0157"/><path fill="none" stroke="#FF7F00" stroke-miterlimit="10" stroke-width=".39847" d="M294.0157 367.35156 95.60547 27.21862"/><path fill="none" stroke="#BF0040" stroke-miterlimit="10" stroke-width=".39847" d="M95.60547 27.21862v340.13294"/><use xlink:href="#e" x="75.71561" y="387.34144"/><use xlink:href="#f" x="301.0526" y="387.34144"/><use xlink:href="#g" x="75.93459" y="19.90544"/><g fill="#007F7F"><use xlink:href="#h" x="151.14725" y="383.66575"/><use xlink:href="#i" x="157.54272" y="383.66575"/><use xlink:href="#j" x="162.94202" y="383.66575"/><use xlink:href="#k" x="166.15968" y="383.66575"/></g><g fill="#007F7F"><use xlink:href="#l" x="173.06321" y="383.66575"/><use xlink:href="#m" x="177.95445" y="383.66575"/><use xlink:href="#n" x="183.55298" y="383.66575"/><use xlink:href="#l" x="186.17293" y="383.66575"/><use xlink:href="#o" x="191.06418" y="383.66575"/><use xlink:href="#p" x="195.70638" y="383.66575"/><use xlink:href="#q" x="200.51792" y="383.66575"/><use xlink:href="#j" x="206.30573" y="383.66575"/></g><use xlink:href="#r" x="211.62533" y="383.66575" fill="#007F7F"/><use xlink:href="#a" x="219.69346" y="381.63392" fill="#007F7F"/><use xlink:href="#b" x="218.62755" y="383.66575" fill="#007F7F"/><use xlink:href="#c" x="225.45138" y="383.66575" fill="#007F7F"/><use xlink:href="#d" x="232.10587" y="383.66575" fill="#007F7F"/><use xlink:href="#s" x="201.84797" y="187.98726" fill="#FF7F00"/><g fill="#FF7F00"><use xlink:href="#t" x="209.10016" y="187.98726"/><use xlink:href="#u" x="213.83201" y="187.98726"/><use xlink:href="#v" x="219.5202" y="187.98726"/><use xlink:href="#j" x="224.9195" y="187.98726"/><use xlink:href="#k" x="228.13716" y="187.98726"/><use xlink:href="#q" x="232.9487" y="187.98726"/><use xlink:href="#w" x="238.73651" y="187.98726"/><use xlink:href="#x" x="244.40478" y="187.98726"/><use xlink:href="#p" x="248.47915" y="187.98726"/></g><g fill="#BF0040"><use xlink:href="#h" x="6.64044" y="200.84918"/><use xlink:href="#i" x="13.03591" y="200.84918"/><use xlink:href="#j" x="18.43521" y="200.84918"/><use xlink:href="#k" x="21.65287" y="200.84918"/></g><g fill="#BF0040"><use xlink:href="#v" x="28.56636" y="200.84918"/><use xlink:href="#u" x="33.96565" y="200.84918"/><use xlink:href="#u" x="39.65384" y="200.84918"/><use xlink:href="#v" x="45.34203" y="200.84918"/><use xlink:href="#x" x="50.74133" y="200.84918"/><use xlink:href="#k" x="54.8157" y="200.84918"/></g><use xlink:href="#r" x="61.72919" y="200.84918" fill="#BF0040"/><use xlink:href="#a" x="69.78911" y="198.81735" fill="#BF0040"/><use xlink:href="#b" x="68.7232" y="200.84918" fill="#BF0040"/><use xlink:href="#c" x="75.53707" y="200.84918" fill="#BF0040"/><use xlink:href="#d" x="82.19155" y="200.84918" fill="#BF0040"/></svg>