<svg xmlns="http://www.w3.org/2000/svg" xmlns:xlink="http://www.w3.org/1999/xlink" width="129.251pt" height="233.644pt" viewBox="0 0 129.251 233.644"><defs><path id="a" d="M.26563-5.51562c0 .35937.34375.46875.5.46875.14062 0 .26562-.0625.29687-.21875.125-.6875.39063-1 .76563-1 .42187 0 .59375.40625.59375.95312 0 .57813-.40625 1.15625-.82813 1.46875-.54687.42188-.75.67188-.75 1.09375 0 .57813.48438.89063.98438.89063.29687 0 .65625-.04688.89062-.25l-.0625-.1875c-.07812.01562-.17187.03125-.28125.03125-.20312 0-.625-.15625-.625-.67188 0-.40625.23438-.75.70313-1.07812.3125-.21875.89062-.57813.89062-1.29688 0-.85937-.625-1.28125-1.46875-1.28125-1.23437 0-1.60937.78125-1.60937 1.07813M1.1875-.46875c0 .34375.25.57813.57813.57813.34375 0 .57812-.23438.57812-.57813s-.23437-.57812-.57812-.57812c-.32813 0-.57813.23437-.57813.57812m0 0"/><path id="g" d="M.45313-2.23437c0 1.54687.76562 2.34375 2.15625 2.34375.65625 0 1.54687-.34375 1.79687-1.34375l-.28125-.125c-.28125.65625-.64062.98437-1.32812.98437-1.10938 0-1.375-1.15625-1.375-2.03125 0-1.39062.54687-1.9375 1.1875-1.9375.4375 0 .70312.29688.89062.8125.0625.14063.10938.23438.29688.23438s.54687-.125.54687-.48438c0-.42187-.625-.89062-1.625-.89062-1.70312 0-2.26562 1.1875-2.26562 2.4375m0 0"/><path id="h" d="M.29688 0H2.5625v-.26562C1.90625-.3125 1.875-.34375 1.875-.8125v-2.17187c0-.25 0-.375.0625-.5.1875-.375.59375-.6875 1.10938-.6875.79687 0 .89062.57812.89062 1.15625V-.8125c0 .46875-.03125.5-.70312.54688V0h2.28125v-.26562C4.84375-.3125 4.8125-.34375 4.8125-.8125v-2.17187c0-.25.01563-.35938.07813-.51563.125-.375.53125-.67187 1.04687-.67187.59375 0 .95313.32812.95313 1.15625V-.8125c0 .46875-.03125.5-.70313.54688V0h2.26563v-.26562C7.79688-.3125 7.75-.34375 7.75-.8125v-2.375c0-.9375-.5-1.48437-1.375-1.48437-.76562 0-1.3125.5-1.64062.70312C4.5-4.39062 4.15625-4.67187 3.5-4.67187c-.71875 0-1.29687.46875-1.625.70312l-.09375-.70312-1.4375.23437v.23438l.34375.04687C.9375-4.125 1-4.07812 1-3.75v2.9375c0 .46875-.03125.5-.70312.54688Zm0 0"/><path id="b" d="M0 0h4.39063L4.5-.53125l-.73437-.0625c-.5625-.04687-.85938-.17187-.85938-.57812 0-.98438.1875-1.54688.40625-2.53125l1.70313-7.59375h.03125l2.25 11.07812h.51562l7.25-11.07812h.03125l-2.28125 9.75c-.15625.64062-.32812.85937-.78125.89062l-1.01562.125-.125.53125h5.07812l.09375-.53125-1.07812-.125C14.64063-.67187 14.5-.82812 14.5-1.125c0-.125.01563-.26562.0625-.42187l2.23438-9.78125c.15624-.64063.29687-.89063.78124-.9375l1.03126-.07813.14062-.53125h-3.65625C14.10938-11.17187 13-9.51562 11.875-7.78125L8.57813-2.75h-.0625L7.46875-7.92187c-.375-1.6875-.75-3.29688-1.0625-4.95313H2.79688l-.125.53125 1.09375.09375c.3125.03125.46875.1875.46875.5q0 .1875-.04688.42188l-1.76562 7.625c-.21875.98437-.4375 1.70312-.65625 2.3125-.21876.59375-.5625.73437-1.09375.79687l-.57813.0625Zm0 0"/><path id="c" d="M0 0h4.39063L4.5-.53125l-.73437-.0625c-.5625-.04687-.85938-.15625-.85938-.5625 0-.98437.1875-1.5625.40625-2.54687l1.73438-7.625h.0625C6.85938-7.54687 8.57813-3.78125 10.28125 0h1.20313l2.09375-9.17187c.21875-.98438.42187-1.70313.64062-2.3125.21875-.59375.5625-.73438 1.10938-.79688l.57812-.0625.10938-.53125h-4.40626l-.09375.53125.73438.07813c.54688.0625.85938.23437.85938.65625 0 .67187-.1875 1.45312-.40625 2.4375L11.17188-2.4375h-.07813c-1.60937-3.48437-3.1875-6.95312-4.75-10.4375H2.79688l-.125.53125 1.09375.09375c.3125.03125.46875.1875.46875.5q0 .1875-.04688.42188l-1.76562 7.625c-.21875.98437-.4375 1.70312-.65625 2.3125-.21876.59375-.53125.73437-1.09375.79687l-.57813.0625Zm0 0"/><path id="d" d="M.59375-5.03125c0 3.0625 1.76563 5.3125 5.46875 5.3125 3.28125 0 4.89063-1.6875 5.92188-3.53125C13-5.07812 13.17188-6.96875 13.17188-7.70312c0-3.82813-2.3125-5.46875-5.39063-5.46875-2.96875 0-4.8125 1.64062-5.90625 3.42187C.85938-8.03125.59375-6.26562.59375-5.03125m1.96875.75c0-1.5625.29688-3.3125 1.14063-5.10937.85937-1.76563 2.1875-3.125 4.15625-3.125 2.04687 0 3.35937 1.20312 3.35937 3.84375 0 1.0625-.10937 2.59375-.875 4.57812-.78125 2-2.04687 3.71875-4.45312 3.71875-2.03125 0-3.32813-1.3125-3.32813-3.90625m0 0"/><path id="e" d="M1.01563 0H4.1875v-.3125l-.71875-.04687c-.20312-.03125-.3125-.09375-.3125-.4375v-5.46875l-.0625-.0625L1.03125-6v.28125l.73438.10938c.20312.01562.28124.09375.28124.40625v4.40625c0 .34375-.10937.40625-.32812.4375l-.70312.04687Zm0 0"/><path id="f" d="M.28125-.125.39063 0h4.03125l.35937-1.40625-.29687-.04687c-.23438.5-.40625.5625-.78125.5625H1.34375C1.48438-1.3125 1.92188-1.90625 2.85938-2.5 3.84375-3.125 4.5-3.5625 4.5-4.57812c0-1.29688-.89062-1.75-1.96875-1.75C1.28125-6.32812.5-5.64062.5-5c0 .35938.40625.51563.64063.51563.17187 0 .28124-.09375.32812-.29688.14063-.67187.48438-1.1875 1.01563-1.1875.59375 0 .79687.54688.79687 1.20313 0 .82812-.32812 1.45312-1.23437 2.23437C.82813-1.5.39063-.79687.28124-.125m0 0"/><path id="i" d="M.42188-1.01562c0 .375.54687 1.125 1.95312 1.125C4 .10938 4.65625-.84375 4.65625-2c0-1.09375-.64062-2-1.98437-2-.57813 0-1.10938.25-1.4375.51563l.1875-1.53125c.04687-.28125.07812-.29688.29687-.29688h2.39063l.28125-.8125-.04688-.09375H1.01563L.9375-6.125.75-3.04687l.29688.20312c.375-.4375.75-.65625 1.21875-.65625.60937 0 1.1875.45313 1.1875 1.625 0 .9375-.3125 1.625-1.03125 1.625-.54688 0-.84375-.40625-1.07813-1.0625-.0625-.17187-.17187-.28125-.35937-.28125-.23438 0-.5625.23438-.5625.57813m0 0"/></defs><path fill="none" stroke="red" stroke-miterlimit="10" stroke-width=".3962" d="m31.7461 39.78516 11.10546-1.95703 1.95703 11.10155-11.10547 1.95703-1.95703-11.10155"/><path fill="#99F" d="m61.11328 206.3164 3.6914-16.5c-2.17577-.48827-4.42968-.53906-6.6289-.15234Zm0 0"/><path fill="none" stroke="#000" stroke-miterlimit="10" stroke-width=".3962" d="M64.80467 189.81634c-2.17578-.48828-4.42968-.53907-6.6289-.15235"/><use xlink:href="#a" x="59.99931" y="179.12595"/><path fill="none" stroke="#000" stroke-miterlimit="10" stroke-width=".3962" d="m31.7461 39.78516 29.36717 166.53117 40.02342-178.76554Zm0 0"/><use xlink:href="#b" x="6.60274" y="32.78499"/><use xlink:href="#c" x="53.40552" y="226.19121"/><use xlink:href="#d" x="108.13536" y="20.27349"/><use xlink:href="#e" x="13.93425" y="126.15989"/><use xlink:href="#f" x="19.03545" y="126.15989"/><use xlink:href="#g" x="26.22702" y="126.15989"/><use xlink:href="#h" x="30.84286" y="126.15989"/><use xlink:href="#i" x="56.24506" y="26.55907"/><use xlink:href="#g" x="63.4354" y="26.55907"/><use xlink:href="#h" x="68.05124" y="26.55907"/></svg>