<svg xmlns="http://www.w3.org/2000/svg" xmlns:xlink="http://www.w3.org/1999/xlink" width="91.838pt" height="130.827pt" viewBox="0 0 91.838 130.827"><defs><path id="a" d="M.23438-1.92187c0 1.28125.45312 2 1.46875 2 .98437 0 1.45312-.60938 1.45312-1.39063 0-.84375-.53125-1.28125-1.17187-1.28125-.45313 0-.78125.28125-.98438.51563.01563-.95313.25-1.8125.8125-1.8125.26563 0 .45313.23437.5625.60937.01563.07813.07813.15625.20313.15625.14062 0 .39062-.10937.39062-.3125 0-.28125-.34375-.70312-1.10937-.70312-1 0-1.625.75-1.625 2.21875m.76562.5c0-.375.25-.76563.70313-.76563.35937 0 .6875.29688.6875.98438 0 .60937-.1875 1.03125-.65625 1.03125-.5 0-.73438-.5625-.73438-1.25m0 0"/><path id="b" d="M.23438-2.03125c0 1.17188.375 2.10938 1.4375 2.10938s1.42187-.9375 1.42187-2.10938-.35937-2.10937-1.42187-2.10937-1.4375.9375-1.4375 2.10937m.78125 0c0-.85937.10937-1.85937.65625-1.85937.54687 0 .65625 1 .65625 1.85937 0 .85938-.10938 1.85938-.65625 1.85938-.54688 0-.65625-1-.65625-1.85938m0 0"/><path id="c" d="M.21875-3.29687c0 .46875.39063.84375.84375.84375s.84375-.375.84375-.84375c0-.45313-.39062-.84375-.84375-.84375S.21875-3.75.21875-3.29687m.34375 0c0-.3125.23438-.54688.5-.54688.26563 0 .5.23438.5.54688 0 .32812-.25.54687-.5.54687-.26562 0-.5-.21875-.5-.54687m0 0"/><path id="g" d="M.65625 0h2.07813v-.20312l-.46875-.03126C2.125-.25 2.0625-.29687 2.0625-.51561v-3.57813l-.04687-.04687-1.34375.23437v.17188l.48437.0625c.125.03125.17188.07812.17188.26562v2.89063c0 .21874-.0625.26562-.20313.28124l-.46875.03126Zm0 0"/><path id="h" d="m.3125.76563.15625.125c.29688-.28126.8125-.71875.8125-1.20313 0-.32812-.17187-.57812-.45312-.57812-.25 0-.375.17187-.375.32812 0 .21875.1875.34375.1875.59375C.64063.29688.5.54688.3125.76563m0 0"/><path id="i" d="M.26563-.67187c0 .25.375.75 1.28125.75 1.0625 0 1.5-.625 1.5-1.39063 0-.71875-.42188-1.29687-1.3125-1.29687-.35938 0-.71875.17187-.92188.34375l.125-1c.01563-.1875.04688-.20313.1875-.20313h1.5625L2.875-4l-.04687-.0625H.67188L.60938-4l-.125 2.01563.20312.125c.25-.28126.48438-.42188.79688-.42188.39062 0 .76562.29688.76562 1.04688 0 .625-.20312 1.0625-.67187 1.0625-.34375 0-.54688-.25-.70313-.6875-.03125-.10938-.10937-.1875-.23437-.1875-.15626 0-.375.15624-.375.375m0 0"/><path id="d" d="M.51563-3.46875C.51563-2.25.92188-1.25 1.54688-.70312 2.26563-.09376 3.25.1875 4.375.1875c.89063 0 1.875-.21875 2.57813-.46875l.57812-2.45312c.10938-.42188.17188-.59375.375-.60938l.53125-.04687.07813-.35938H5.3125l-.0625.35938.90625.0625c.15625.01562.23438.09375.23438.29687 0 .07813 0 .15625-.03125.29688l-.4375 1.82812c-.09375.34375-.25.65625-1.51563.65625-1.46875 0-2.54687-.98437-2.54687-3.125 0-1.9375.9375-4.79687 3.85937-4.79687 1.57813 0 1.85938.9375 1.9375 2.07812h.35938l.4375-1.89062c-.73438-.40625-1.70313-.60938-2.73438-.60938-1.85937 0-3.20312.67188-4.04687 1.76563C.85938-5.8125.51563-4.53125.51563-3.46875m0 0"/><path id="e" d="M0 0h3.32813l.0625-.34375-.71875-.0625c-.20313 0-.29688-.10937-.29688-.29687 0-.09376.01563-.1875.04688-.3125l.6875-3.125h4.0625l-.71875 3.125c-.09375.42187-.21875.5625-.51563.59375l-.67187.07812L5.20313 0h3.32812l.07813-.34375-.71875-.0625c-.21875 0-.3125-.10937-.3125-.3125 0-.07812.01562-.17187.04687-.29687l1.45313-6.375c.10937-.40625.20312-.57813.51562-.60938l.67188-.04687.07812-.35938H7.01563l-.09375.35938L7.65625-8c.20313.01563.29688.125.29688.34375 0 .07813-.01563.15625-.04688.26563l-.625 2.79687H3.23438l.625-2.79687c.10937-.40625.21875-.57813.51562-.60938l.67188-.04687.07812-.35938H1.8125l-.09375.35938L2.4375-8c.21875.01563.29688.125.29688.34375 0 .07813-.01563.15625-.03125.26563l-1.46875 6.375c-.09376.42187-.20313.5625-.5.59375L.0625-.34375Zm0 0"/><path id="f" d="M.26563 0h3.3125l.07812-.34375-.71875-.0625c-.21875 0-.29687-.125-.29687-.3125 0-.07812.01562-.1875.03125-.29687l1.45312-6.375c.09375-.375.20313-.57813.51563-.60938l.67187-.04687.07813-.35938H2.0625l-.07812.35938L2.70313-8C2.90625-7.98437 3-7.85937 3-7.65625c0 .07813-.01562.15625-.04687.26563L1.5-1.01562c-.09375.39062-.20312.5625-.5.59375l-.67187.07812Zm0 0"/><path id="j" d="M.29688-1.46875c0 1.01563.5 1.54688 1.40625 1.54688.4375 0 1-.23438 1.17187-.875l-.17187-.09376c-.1875.4375-.4375.64063-.875.64063C1.09375-.25.9375-1 .9375-1.57812c0-.90625.34375-1.26563.76563-1.26563.28124 0 .45312.20313.57812.53125.04688.09375.07813.15625.20313.15625.10937 0 .34375-.07812.34375-.3125 0-.28125-.39063-.57812-1.0625-.57812-1.09375 0-1.46875.78125-1.46875 1.57812m0 0"/><path id="k" d="M.1875 0h1.48438v-.17187c-.4375-.03126-.45313-.04688-.45313-.35938v-1.42187c0-.15626 0-.23438.04688-.32813.125-.23437.39062-.4375.71875-.4375.53125 0 .59375.375.59375.75v1.4375c0 .3125-.01563.32813-.46875.35938V0h1.48437v-.17187c-.4375-.03126-.45312-.04688-.45312-.35938v-1.42187c0-.15626.01562-.23438.04687-.32813.09375-.25.34375-.4375.6875-.4375.39063 0 .625.20313.625.75v1.4375c0 .3125-.03125.32813-.46875.35938V0h1.5v-.17187c-.4375-.03126-.46875-.04688-.46875-.35938v-1.54687c0-.625-.32812-.96875-.90625-.96875-.5 0-.84375.32812-1.0625.45312-.15625-.28125-.39062-.45312-.8125-.45312-.46875 0-.84375.29687-1.0625.45312l-.04687-.45312-.95313.15625V-2.75l.23438.03125c.15625.03125.20312.04688.20312.28125v1.90625c0 .3125-.01562.32813-.46875.35938Zm0 0"/></defs><path fill="none" stroke="red" stroke-miterlimit="10" stroke-width=".3978" d="M65.48828 112.96875v-7.35547h7.35547"/><path fill="#66b2b2" d="M17.65625 112.96875h11.03516c0-3.9414-2.10547-7.58594-5.52344-9.5586Zm0 0"/><path fill="none" stroke="#000" stroke-miterlimit="10" stroke-width=".3978" d="M28.69141 112.96875c0-3.9414-2.10547-7.58594-5.52344-9.5586"/><use xlink:href="#a" x="31.41658" y="104.51353"/><use xlink:href="#b" x="34.7457" y="104.51353"/><use xlink:href="#c" x="38.07482" y="104.51353"/><path fill="none" stroke="#000" stroke-miterlimit="10" stroke-width=".3978" d="M17.65626 112.96875h55.18749V17.30861Zm0 0"/><use xlink:href="#d" x="4.3094" y="126.13539"/><use xlink:href="#e" x="77.41245" y="125.94173"/><use xlink:href="#f" x="77.41245" y="12.74141"/><use xlink:href="#g" x="35.72398" y="121.66827"/><use xlink:href="#h" x="39.05311" y="121.66827"/><use xlink:href="#i" x="41.46429" y="121.66827"/><use xlink:href="#j" x="46.15888" y="121.66827"/><use xlink:href="#k" x="49.17125" y="121.66827"/></svg>