<svg xmlns="http://www.w3.org/2000/svg" xmlns:xlink="http://www.w3.org/1999/xlink" width="233.62pt" height="215.556pt" viewBox="0 0 233.62 215.556"><defs><path id="a" d="M.29688-6.21875c0 .39063.39062.53125.5625.53125.15624 0 .29687-.07812.34375-.25.14062-.78125.4375-1.14062.85937-1.14062.48438 0 .67188.45312.67188 1.07812 0 .65625-.46875 1.29688-.9375 1.65625-.625.48438-.84375.76563-.84375 1.23438 0 .65625.54687 1.01562 1.10937 1.01562.32813 0 .73438-.04687 1.01563-.29687L3-2.59375c-.07812.01563-.1875.04688-.3125.04688-.21875 0-.71875-.1875-.71875-.78125 0-.45313.26563-.82813.79688-1.20313.35937-.25 1-.65625 1-1.46875 0-.96875-.70313-1.4375-1.65625-1.4375-1.375 0-1.8125.875-1.8125 1.21875m1.04687 5.6875C1.34375-.14062 1.625.125 2 .125c.39063 0 .65625-.26562.65625-.65625S2.39063-1.1875 2-1.1875c-.375 0-.65625.26563-.65625.65625m0 0"/><path id="h" d="M.51563-2.53125C.51563-.76562 1.375.125 2.95313.125c.73437 0 1.73437-.375 2.03125-1.51562l-.3125-.14063c-.32813.73438-.75 1.10938-1.51563 1.10938-1.25 0-1.54687-1.3125-1.54687-2.29688 0-1.5625.60937-2.1875 1.34375-2.1875.48437 0 .78125.34375 1 .90625.0625.17188.125.28125.32812.28125.21875 0 .625-.14062.625-.54687 0-.48438-.70312-1.01563-1.84375-1.01563-1.90625 0-2.54687 1.35938-2.54687 2.75m0 0"/><path id="i" d="M.32813 0h2.5625v-.29687c-.75-.0625-.78125-.07813-.78125-.625V-3.375c0-.26562 0-.42187.07812-.5625.20313-.42187.67188-.76562 1.25-.76562.90625 0 1.01563.65625 1.01563 1.29687v2.48438c0 .54687-.03125.5625-.79688.625V0h2.5625v-.29687c-.75-.0625-.78125-.07813-.78125-.625V-3.375c0-.26562.01563-.40625.07813-.57812.15625-.42188.60937-.75 1.20312-.75.65625 0 1.0625.35937 1.0625 1.29687v2.48438c0 .54687-.04687.5625-.79687.625V0h2.5625v-.29687c-.75-.0625-.78125-.07813-.78125-.625v-2.6875c0-1.0625-.57813-1.67188-1.57813-1.67188-.85937 0-1.46875.57813-1.84375.8125-.25-.5-.65625-.8125-1.39062-.8125-.8125 0-1.46875.53125-1.84375.8125l-.09375-.8125-1.625.26563V-4.75l.39062.04688c.26563.04687.34375.09375.34375.46875v3.3125c0 .54687-.03125.5625-.79687.625Zm0 0"/><path id="b" d="M0 0h5.96875l.125-.60937-1.46875-.125c-.34375-.03126-.51562-.1875-.51562-.51563 0-.14062.03125-.29687.07812-.5l.9375-4.14062h1.5625c1.79688 0 3.45313-.23438 4.65625-.98438 1.34375-.82812 2.125-2.25 2.125-3.8125 0-1.4375-.67187-2.53125-1.70312-3.125-.98438-.54687-2.32813-.73437-3.70313-.73437H3.125l-.15625.60937 1.26563.09375c.35937.01563.51562.1875.51562.54688 0 .14062-.03125.29687-.07812.5L2.14063-1.75c-.17188.71875-.34375.96875-.85938 1.01563l-1.17187.125Zm5.42188-7.07812c0-.125.01562-.26563.0625-.4375L6.75-13.09375c.14063-.53125.28125-.73437 1.34375-.73437 2.09375 0 3.15625.98437 3.15625 2.78125C11.25-8.0625 9.57813-6.625 6.73438-6.625c-1.07813 0-1.3125-.10937-1.3125-.45312m0 0"/><path id="c" d="M1.34375-5.6875c0 3.14063 1.625 5.48438 4.98438 5.90625.98437 1.84375 3.10937 4.0625 5.75 4.0625.54687 0 1.21875-.14062 1.57812-.34375l-.07812-.35937C11.5625 3.5625 10 1.98438 8.79688.21875c4.26562-.59375 6.75-4.82812 6.75-8.92187 0-4.3125-2.60938-6.17188-6.07813-6.17188-5.42187 0-8.125 4.98438-8.125 9.1875m2.21875.85938c0-3.76563 1.8125-9.3125 5.98438-9.3125 2.3125 0 3.78125 1.35937 3.78125 4.34375 0 5.125-2.39063 9.375-6.01563 9.375-2.28125 0-3.75-1.48438-3.75-4.40625m0 0"/><path id="d" d="M0 0h5.75l.14063-.60937L4.625-.71875c-.34375-.01562-.53125-.17187-.53125-.51562 0-.125.04688-.3125.09375-.51563l1.14063-5.09375h1.26562c2.04688 0 2.32813.48438 2.32813 2.95313 0 2.54687 0 3.89062 2.21875 3.89062h1.64062l.20313-.60937c-1.48438-.20313-2-.26563-2-2.96875 0-2.15625-.17188-3.0625-1.92188-3.65625 2.57813-.34375 4.3125-1.84375 4.3125-3.9375 0-1.5-.64062-3.375-4.57812-3.375H3.125l-.15625.60937 1.26563.09375c.35937.01563.51562.1875.51562.54688 0 .14062-.03125.29687-.07812.5L2.14063-1.75c-.17188.75-.34375.96875-.85938 1.01563l-1.17187.125Zm5.5-7.57812 1.23438-5.4375c.15625-.60938.21875-.8125 1.8125-.8125 1.35937 0 2.64062.60937 2.64062 2.4375 0 2.5-1.64062 3.8125-4.34375 3.8125Zm0 0"/><path id="e" d="M.3125-1.15625C.3125-.73437.95313.125 2.625.125c1.60938 0 2.59375-.75 2.59375-2.09375 0-1.45312-1.26562-1.8125-1.76562-1.875V-3.875c.5625-.125 1.46875-.51562 1.46875-1.54687 0-1.29688-1.07813-1.73438-2.1875-1.73438-1.32813 0-2.17188.71875-2.17188 1.32813 0 .375.45313.5625.65625.5625.1875 0 .28125-.09375.34375-.26563.23438-.75.57813-1.20312 1.125-1.20312.73438 0 .90625.76562.90625 1.28125 0 .51562-.14062 1.42187-.98437 1.42187-.46875 0-.78125-.125-.96875-.125-.17188 0-.23438.125-.23438.34375 0 .20313.0625.35938.23438.35938.1875 0 .5-.125.96875-.125.71875 0 1.23437.5625 1.23437 1.64062 0 1.17188-.5 1.64063-1.1875 1.64063-.59375 0-1.01562-.4375-1.25-1.20313-.07812-.20312-.20312-.3125-.39062-.3125-.28126 0-.70313.23438-.70313.65625m0 0"/><path id="f" d="m.53125 1.3125.28125.23438c.51563-.5 1.40625-1.25 1.40625-2.07813 0-.5625-.29687-1.01562-.79687-1.01562-.42188 0-.625.3125-.625.57812 0 .39063.29687.59375.29687 1.03125S.875.95313.53125 1.3125m0 0"/><path id="g" d="M.375-4.75c0 1.45313.90625 2.20313 2.03125 2.20313.76563 0 1.35938-.48438 1.6875-.89063C4.07813-1.79687 3.6875-.29687 2.70313-.29687c-.46875 0-.79688-.40625-.96875-1.0625C1.6875-1.5 1.59375-1.625 1.39063-1.625c-.25 0-.67188.1875-.67188.54688 0 .46875.5625 1.20312 1.89063 1.20312 1.8125 0 2.8125-1.375 2.8125-3.82812 0-2.20313-.78125-3.45313-2.53125-3.45313C1.1875-7.15625.375-6.09375.375-4.75m1.3125-.20312c0-1.04688.34375-1.78125 1.17188-1.78125.84375 0 1.23437.96875 1.23437 2.1875 0 .625-.42187 1.3125-1.20312 1.3125-.625 0-1.20313-.53125-1.20313-1.71875m0 0"/></defs><path fill="none" stroke="red" stroke-miterlimit="10" stroke-width=".39768" d="m148.48438 180.60547-11.96094-4.35156 4.35156-11.96484 11.96094 4.35547-4.35156 11.96093"/><path fill="#99F" d="m28.875 137.07031 17.9414 6.53125c1.9922-5.47265 1.375-11.5625-1.67187-16.52344Zm0 0"/><path fill="none" stroke="#000" stroke-miterlimit="10" stroke-width=".39768" d="M46.81645 143.60158c1.99219-5.47265 1.375-11.5625-1.67187-16.52343"/><use xlink:href="#a" x="61.0289" y="137.26826"/><path fill="none" stroke="#000" stroke-miterlimit="10" stroke-width=".39768" d="m28.87505 137.07033 119.60933 43.53514L203.3359 29.8985Zm0 0"/><use xlink:href="#b" x="7.50614" y="159.51543"/><use xlink:href="#c" x="156.38748" y="203.38407"/><use xlink:href="#d" x="211.2395" y="21.99569"/><use xlink:href="#e" x="75.23963" y="74.0385"/><use xlink:href="#f" x="80.99987" y="74.0385"/><use xlink:href="#g" x="85.17185" y="74.0385"/><use xlink:href="#h" x="93.29244" y="74.0385"/><use xlink:href="#i" x="98.50462" y="74.0385"/><use xlink:href="#e" x="77.16466" y="173.88883"/><use xlink:href="#h" x="85.28618" y="173.88883"/><use xlink:href="#i" x="90.49836" y="173.88883"/></svg>