<svg xmlns="http://www.w3.org/2000/svg" xmlns:xlink="http://www.w3.org/1999/xlink" width="469.627pt" height="587.67pt" viewBox="0 0 469.627 587.67"><defs><path id="a" d="M.5625-.20312.78125 0H9.5l.70313-2.78125-.57813-.10937C9.1875-1.75 8.75-1.59375 7.90625-1.59375h-5.375c.32813-1.09375 1.59375-2.59375 3.53125-4 2.01563-1.48437 3.59375-2.42187 3.59375-4.76562 0-2.9375-1.95312-3.95313-4.17187-3.95313-2.89063 0-4.35938 1.75-4.35938 2.84375 0 .71875.79688 1.0625 1.15625 1.0625.39063 0 .51563-.23437.60938-.59375.32812-1.42187 1.15625-2.5625 2.45312-2.5625 1.625 0 2.09375 1.34375 2.09375 2.875 0 2.26563-1.14062 3.54688-2.98437 5.15625C1.85938-3.26562.96875-1.84375.5625-.20312m0 0"/><path id="c" d="M.875-7.03125C.875-2.82812 2.10938.25 5.57813.25s4.71875-3.07812 4.71875-7.28125-1.25-7.28125-4.71875-7.28125S.875-11.23437.875-7.03125m2.125 0c0-3.42187.57813-6.53125 2.57813-6.53125 1.98437 0 2.57812 3.10938 2.57812 6.53125S7.5625-.5 5.57813-.5C3.57813-.5 3-3.60937 3-7.03125m0 0"/><path id="d" d="M2.28125 0h6.92188v-.60937L7.4375-.76563c-.45312-.04687-.70312-.20312-.70312-1.03124v-12.40625L6.625-14.3125l-4.34375.75v.51563L4.25-12.8125c.35938.04688.5.20313.5.8125v10.20313c0 .40625-.04687.65625-.1875.8125-.10937.15624-.28125.20312-.51562.21874l-1.76563.15626Zm0 0"/><path id="e" d="M.875-3.82812C.875-1.70312 2.17188.25 5.57813.25s4.70312-1.95312 4.70312-4.07812c0-2.15625-1.34375-3.375-2.78125-3.71875v-.04688C8.78125-7.92187 9.8125-9 9.8125-10.71875c0-2.29687-1.8125-3.59375-4.23437-3.59375s-4.23438 1.29688-4.23438 3.59375c0 1.71875 1.07813 2.79688 2.32813 3.125v.04688C2.26563-7.20312.875-5.98437.875-3.82812m2.10938.0625c0-1.92188.90625-3.35938 2.59375-3.35938 1.67187 0 2.59375 1.4375 2.59375 3.35938C8.17188-1.90625 7.34375-.5 5.57813-.5 3.8125-.5 2.98438-1.90625 2.98438-3.76562m.39062-7c0-1.60938.76563-2.79688 2.20313-2.79688s2.1875 1.1875 2.1875 2.79688c0 1.42187-.67188 2.89062-2.1875 2.89062-1.53125 0-2.20313-1.46875-2.20313-2.89062m0 0"/><path id="f" d="M.5625-2.15625C.5625-1.25 2.01563.25 5 .25c3.03125 0 4.96875-1.54687 4.96875-4.23437 0-2.82813-2.42187-3.65625-3.59375-3.76563v-.09375c1.14063-.17187 2.96875-1.01562 2.96875-3.10937 0-2.32813-1.82812-3.35938-4.07812-3.35938-2.78125 0-4.14063 1.60938-4.14063 2.51563 0 .64062.73438 1 1.03125 1 .26563 0 .42188-.15625.51563-.42188.46875-1.4375 1.25-2.34375 2.4375-2.34375 1.65625 0 2.07812 1.45313 2.07812 2.64063 0 1.25-.45312 2.84375-2.23437 2.84375-1.01563 0-1.59375-.20313-1.84375-.20313-.26563 0-.375.20313-.375.57813 0 .35937.10937.57812.375.57812.25 0 .82812-.20312 1.84375-.20312 1.78125 0 2.79687 1.625 2.79687 3.45312C7.75-1.35937 6.51563-.5 5.01563-.5 3.625-.5 2.70313-1.51562 2.3125-2.70312c-.14062-.40625-.34375-.60938-.64062-.60938-.375 0-1.10938.40625-1.10938 1.15625m0 0"/><path id="g" d="m1.07813 2.57813.40625.40625C2.53125 2 4.04688.57813 4.04688-1.07812c0-1.10938-.59375-1.90625-1.40625-1.90625-.64063 0-1.04688.51562-1.04688 1.0625 0 .75.6875 1.15625.6875 2.0625 0 .85937-.53125 1.70312-1.20312 2.4375m0 0"/><path id="h" d="M.92188-6.5c0 4.54688 1.65625 6.75 4.8125 6.75C8.84375.25 10.5-1.64062 10.5-4.5c0-2.84375-1.75-4.39062-4-4.39062-1.65625 0-2.89062 1.125-3.45312 1.8125H3c.01563-4.625 1.34375-6.48438 3.25-6.48438.95313 0 1.65625.79688 1.96875 2.01563.0625.23437.21875.4375.53125.4375.46875 0 1.125-.375 1.125-.95313 0-.85937-1.03125-2.25-3.5625-2.25-3.32812 0-5.39062 2.57813-5.39062 7.8125m2.125 1.53125c0-1.28125.96875-2.84375 2.73437-2.84375 1.3125 0 2.60938 1.20313 2.60938 3.625C8.39063-1.96875 7.54688-.5 5.78125-.5 3.9375-.5 3.04688-2.4375 3.04688-4.96875m0 0"/><path id="b" d="M1.79688-5.32812H13.375V-6.5625H1.79688Zm0 0"/></defs><path fill="none" stroke="#000" stroke-miterlimit="10" stroke-width=".89479" d="M28.11719 18.28516v-10.75m0 0h20.65234m-.0039 10.75v-10.75"/><use xlink:href="#a" x="32.8654" y="34.4123"/><use xlink:href="#b" x="7.46507" y="61.2897"/><path fill="none" stroke="#000" stroke-miterlimit="10" stroke-width=".89479" d="M28.11719 68.00781h20.65234"/><use xlink:href="#c" x="32.8654" y="61.2897"/><use xlink:href="#a" x="32.8654" y="88.1671"/><use xlink:href="#c" x="53.51649" y="88.1671"/><use xlink:href="#b" x="7.46507" y="115.0445"/><path fill="none" stroke="#000" stroke-miterlimit="10" stroke-width=".89479" d="M28.11719 121.76563h41.30077"/><use xlink:href="#d" x="32.8654" y="115.0445"/><use xlink:href="#e" x="53.51649" y="115.0445"/><use xlink:href="#a" x="53.51525" y="141.92191"/><use xlink:href="#c" x="74.16634" y="141.92191"/><use xlink:href="#b" x="28.11717" y="168.80156"/><path fill="none" stroke="#000" stroke-miterlimit="10" stroke-width=".89479" d="M48.76563 175.51953H90.0703"/><use xlink:href="#d" x="53.51525" y="168.80156"/><use xlink:href="#e" x="74.16634" y="168.80156"/><use xlink:href="#a" x="74.16734" y="195.67896"/><use xlink:href="#c" x="94.81844" y="195.67896"/><use xlink:href="#b" x="48.76702" y="222.55636"/><path fill="none" stroke="#000" stroke-miterlimit="10" stroke-width=".89479" d="M69.41797 229.27734h41.30468"/><use xlink:href="#d" x="74.16734" y="222.55636"/><use xlink:href="#e" x="94.81844" y="222.55636"/><use xlink:href="#a" x="94.81719" y="249.43377"/><use xlink:href="#c" x="115.46829" y="249.43377"/><use xlink:href="#b" x="69.41911" y="276.31117"/><path fill="none" stroke="#000" stroke-miterlimit="10" stroke-width=".89479" d="M90.07031 283.03125h41.30078"/><use xlink:href="#d" x="94.81719" y="276.31117"/><use xlink:href="#e" x="115.46829" y="276.31117"/><use xlink:href="#a" x="115.46929" y="303.18857"/><use xlink:href="#c" x="136.12038" y="303.18857"/><use xlink:href="#b" x="90.06896" y="330.06822"/><path fill="none" stroke="#000" stroke-miterlimit="10" stroke-width=".89479" d="M110.72266 336.78516h41.30077"/><use xlink:href="#d" x="115.46929" y="330.06822"/><use xlink:href="#e" x="136.12038" y="330.06822"/><use xlink:href="#a" x="136.12139" y="356.94563"/><use xlink:href="#c" x="156.77248" y="356.94563"/><use xlink:href="#b" x="110.72106" y="383.82303"/><path fill="none" stroke="#000" stroke-miterlimit="10" stroke-width=".89479" d="M131.3711 390.54297h41.30077"/><use xlink:href="#d" x="136.12139" y="383.82303"/><use xlink:href="#e" x="156.77248" y="383.82303"/><use xlink:href="#a" x="156.77123" y="410.70043"/><use xlink:href="#c" x="177.42233" y="410.70043"/><use xlink:href="#b" x="131.37091" y="437.57783"/><path fill="none" stroke="#000" stroke-miterlimit="10" stroke-width=".89479" d="M152.02344 444.29687h41.30077"/><use xlink:href="#d" x="156.77123" y="437.57783"/><use xlink:href="#e" x="177.42233" y="437.57783"/><use xlink:href="#a" x="177.42333" y="464.45524"/><use xlink:href="#c" x="198.07443" y="464.45524"/><use xlink:href="#b" x="152.02301" y="491.33489"/><path fill="none" stroke="#000" stroke-miterlimit="10" stroke-width=".89479" d="M172.67578 498.05078h41.30077"/><use xlink:href="#d" x="177.42333" y="491.33489"/><use xlink:href="#e" x="198.07443" y="491.33489"/><use xlink:href="#a" x="198.07318" y="518.21229"/><use xlink:href="#c" x="218.72428" y="518.21229"/><use xlink:href="#b" x="172.6751" y="545.08969"/><path fill="none" stroke="#000" stroke-miterlimit="10" stroke-width=".89479" d="M193.32422 551.8086h41.30077"/><use xlink:href="#d" x="198.07318" y="545.08969"/><use xlink:href="#e" x="218.72428" y="545.08969"/><use xlink:href="#a" x="218.72528" y="571.96709"/><path fill="none" stroke="#000" stroke-miterlimit="10" stroke-width=".89479" d="M244.95313 579.80469V7.53134m0 25.76163h216.8359"/><use xlink:href="#f" x="260.02722" y="26.57277"/><use xlink:href="#c" x="260.02722" y="53.45018"/><use xlink:href="#g" x="273.13014" y="53.45018"/><use xlink:href="#h" x="280.67832" y="53.45018"/><use xlink:href="#h" x="301.32941" y="53.45018"/><use xlink:href="#h" x="321.98051" y="53.45018"/><use xlink:href="#h" x="342.6316" y="53.45018"/><use xlink:href="#h" x="363.2827" y="53.45018"/><use xlink:href="#h" x="383.93379" y="53.45018"/><use xlink:href="#h" x="404.58489" y="53.45018"/><use xlink:href="#h" x="425.23598" y="53.45018"/><use xlink:href="#h" x="445.88707" y="53.45018"/></svg>