<svg xmlns="http://www.w3.org/2000/svg" xmlns:xlink="http://www.w3.org/1999/xlink" width="88.675pt" height="87.38pt" viewBox="0 0 88.675 87.38"><defs><path id="a" d="M.3125-.10937.4375 0h4.79688l.40625-1.53125-.32813-.0625c-.25.625-.48437.71875-.95312.71875H1.39063c.1875-.60937.89062-1.4375 1.95312-2.21875 1.125-.8125 1.98438-1.32812 1.98438-2.625 0-1.625-1.07813-2.17187-2.29688-2.17187C1.4375-7.89062.625-6.9375.625-6.32812c0 .39062.4375.57812.64063.57812.20312 0 .28124-.125.32812-.3125.1875-.79687.64063-1.42187 1.35938-1.42187.89062 0 1.15625.73437 1.15625 1.59375 0 1.25-.64063 1.95312-1.65625 2.84375C1.03125-1.79687.53125-1.01562.3125-.10937m0 0"/><path id="b" d="M.5-3.57812c0 2.5.92188 3.71875 2.65625 3.71875 1.71875 0 2.64063-1.04688 2.64063-2.625 0-1.5625-.96875-2.42188-2.21875-2.42188-.90625 0-1.59375.625-1.89063 1h-.03125c.01563-2.5625.73438-3.57812 1.79688-3.57812.53125 0 .90625.4375 1.07812 1.10937.04688.14063.125.25.29688.25.26562 0 .625-.21875.625-.53125 0-.46875-.57813-1.23437-1.96875-1.23437C1.64063-7.89062.5-6.46875.5-3.57812M1.6875-2.75c0-.70312.53125-1.5625 1.5-1.5625.73438 0 1.45313.67188 1.45313 2 0 1.21875-.46875 2.04688-1.45313 2.04688-1.01562 0-1.5-1.07813-1.5-2.48438m0 0"/><path id="d" d="M.46875-1.1875c0 .53125.8125 1.32813 2.32813 1.32813 1.90625 0 2.78125-1.17188 2.78125-2.64063 0-1.625-1.01563-2.45312-2.40625-2.45312-.64063 0-1.32813.26562-1.70313.60937l-.01562-.01562.26562-2.17188c.03125-.29687.10938-.34375.32813-.34375H4.9375l.29688-.78125-.0625-.10937H1.28125l-.10937.10937L.9375-3.76562l.28125.14062c.48438-.54687.95313-.82812 1.59375-.82812.73438 0 1.54688.54687 1.54688 2.07812 0 1.20313-.48438 2.10938-1.48438 2.10938-.82812 0-1.23437-.59375-1.46875-1.25-.0625-.17188-.17187-.28126-.32812-.28126-.23438 0-.60938.23438-.60938.60938m0 0"/><path id="e" d="M1.26563 0h3.8125v-.32812l-.96875-.09375c-.25-.01563-.39063-.10938-.39063-.5625v-6.84375l-.0625-.0625-2.39062.40625v.28125l1.07812.14062c.20313.01563.28125.10938.28125.4375v5.64063c0 .21874-.03125.35937-.10937.4375-.0625.09374-.15625.10937-.28125.125l-.96875.09375Zm0 0"/><path id="f" d="M.48438-3.875c0 2.3125.67187 4.01563 2.59375 4.01563C5 .14063 5.6875-1.5625 5.6875-3.875c0-2.32812-.6875-4.01562-2.60937-4.01562S.48438-6.20312.48438-3.875m1.17187 0c0-1.89062.32813-3.60937 1.42188-3.60937S4.5-5.76562 4.5-3.875 4.17188-.26562 3.07813-.26562 1.65625-1.98437 1.65625-3.875m0 0"/><path id="g" d="m.59375 1.42188.21875.21874c.57813-.54687 1.42188-1.3125 1.42188-2.23437 0-.625-.32813-1.04687-.78125-1.04687-.35938 0-.57813.28124-.57813.57812 0 .42188.39063.64063.39063 1.14063 0 .48437-.29688.9375-.67188 1.34375m0 0"/><path id="c" d="M.98438-2.9375H7.375v-.6875H.98438Zm0 0"/></defs><path fill="none" stroke="#000" stroke-miterlimit="10" stroke-width=".49399" d="M15.67187 10.0586V4.1211m0 0h22.80469m0 5.9375V4.1211"/><use xlink:href="#a" x="18.29454" y="18.96022"/><use xlink:href="#b" x="29.69558" y="18.96022"/><use xlink:href="#c" x="4.27278" y="33.79868"/><path fill="none" stroke="#000" stroke-miterlimit="10" stroke-width=".49399" d="M15.67187 37.50781h22.80469"/><use xlink:href="#a" x="18.29454" y="33.79868"/><use xlink:href="#d" x="29.69558" y="33.79868"/><use xlink:href="#e" x="29.69614" y="48.63715"/><use xlink:href="#f" x="41.09718" y="48.63715"/><use xlink:href="#c" x="15.67314" y="63.47561"/><path fill="none" stroke="#000" stroke-miterlimit="10" stroke-width=".49399" d="M27.07422 67.1836H49.875"/><use xlink:href="#e" x="29.69614" y="63.47561"/><use xlink:href="#f" x="41.09718" y="63.47561"/><use xlink:href="#f" x="41.0965" y="78.31532"/><path fill="none" stroke="#000" stroke-miterlimit="10" stroke-width=".49399" d="M55.57812 82.64453V4.12111m0 14.22264h28.5039"/><use xlink:href="#d" x="63.8997" y="14.63218"/><use xlink:href="#d" x="63.8997" y="29.47064"/><use xlink:href="#g" x="71.13355" y="29.47064"/><use xlink:href="#a" x="75.30075" y="29.47064"/></svg>