<svg xmlns="http://www.w3.org/2000/svg" xmlns:xlink="http://www.w3.org/1999/xlink" width="53.955pt" height="31.664pt" viewBox="0 0 53.955 31.664"><defs><path id="a" d="M.8125-1.25c0 .6875.32813 1.39063 1.10938 1.39063 1.25 0 2.3125-1.4375 3-2.625h.01562l-.39062 1.32812c-.07813.25-.125.48438-.125.65625 0 .40625.20312.64063.625.64063.89062 0 1.53125-.79688 1.9375-1.67188l-.28125-.15625C6.5-1.28125 5.98438-.46875 5.65625-.46875c-.14062 0-.1875-.09375-.1875-.21875 0-.10937.04688-.25.07813-.40625l1.21875-4.625h-.96875L5.75-5.57812c-.20312-.125-.54687-.23438-.85937-.23438C2.125-5.8125.8125-2.78125.8125-1.25m1.14063-.01562c0-1.28125 1.14062-4.14063 2.96875-4.14063.28125 0 .53125.09375.70312.25-.21875.85938-.625 2.01563-1.23437 2.9375-.65625.98438-1.375 1.75-1.92188 1.75-.39062 0-.51562-.34375-.51562-.79687m0 0"/><path id="b" d="M1.01563 0h.42187l.34375-.67187C2-.20312 2.57813.14063 3.25.14063c1.34375 0 2.32813-.90625 2.90625-1.92188.57813-1.03125.76563-2.04687.76563-2.57812 0-.85938-.375-1.45313-1.23438-1.45313-.875 0-2.03125.79688-2.92187 2.39063h-.03125l1.28125-5.125-.04688-.04688-2.0625.26563-.07812.28125.65625.07812c.1875.01563.28125.04688.28125.23438 0 .07812-.01563.17187-.04688.32812ZM2.4375-1.25c0-.5625.25-1.35937.625-2.04687.51563-.92188 1.39063-1.92188 2.10938-1.92188.42187 0 .60937.29688.60937.96875 0 .82813-.6875 3.98438-2.39062 3.98438-.59375 0-.95313-.40625-.95313-.98438m0 0"/><path id="c" d="M.98438-1.71875c0 1.42188.85937 1.85938 1.67187 1.85938.85938 0 1.82813-.375 2.625-1.70313L5-1.78125C4.60938-1.25 3.9375-.4375 3.15625-.4375 2.3125-.4375 2.125-1.125 2.125-1.95312c0-1.5.89063-3.45313 1.9375-3.45313.375 0 .64063.23438.70313.92188.03125.20312.125.34375.34375.34375.28125 0 .73437-.26563.73437-.64063 0-.59375-.625-1.03125-1.48437-1.03125-2.0625 0-3.375 2.20313-3.375 4.09375m0 0"/><path id="d" d="M.85938-1.39062c0 .75.21874 1.53125 1.15625 1.53125 1.34375 0 2.375-1.42188 3.04687-2.67188h.03125l-.39062 1.39063q-.09375.35156-.09375.60937c0 .4375.20312.67188.60937.67188.90625 0 1.51563-.79688 1.90625-1.67188l-.26562-.15625C6.64063-1.28125 6.125-.46875 5.8125-.46875c-.14062 0-.1875-.09375-.1875-.21875 0-.10937.03125-.25.07813-.40625l1.8125-7.45312-.0625-.04688-2.04688.26563-.0625.28125.6875.0625c.1875.01562.25.0625.25.1875 0 .0625 0 .17187-.04687.28125l-.4375 1.875-.03125.01562c-.21875-.10937-.57813-.1875-.96875-.1875-2.70313 0-3.9375 3.01563-3.9375 4.42188m1.15625.09374c0-1.25 1-4.10937 2.85937-4.10937.35938 0 .65625.10938.79688.23438-.17188.875-.5625 1.98437-1.14063 2.9375-.5625.90625-1.32812 1.76562-1.9375 1.76562-.375 0-.57812-.3125-.57812-.82812m0 0"/></defs><use xlink:href="#a" x="5.84648" y="9.92295"/><path fill="none" stroke="#000" stroke-miterlimit="10" stroke-width=".6778" d="M5.84766 15.1836h7.21875"/><use xlink:href="#b" x="5.8774" y="27.0883"/><use xlink:href="#c" x="41.20008" y="9.92295"/><path fill="none" stroke="#000" stroke-miterlimit="10" stroke-width=".6778" d="M40.67188 15.1836h7.39453"/><use xlink:href="#d" x="40.6707" y="27.0883"/><path fill="none" stroke="#007F7F" stroke-miterlimit="10" stroke-width=".39432" d="m20.21094 11.16797 13.49218 8.9961"/><path fill="#007F7F" stroke="#007F7F" stroke-miterlimit="10" stroke-width=".3943" d="M17.05078 9.0625c.3164.36328 1.6289 2.08984 2.26563 3.44531l1.78515-2.67578c-1.49219-.07031-3.59375-.61719-4.05078-.76953Zm19.8125 13.20703c-.32031-.36328-1.63281-2.08984-2.26953-3.44531L32.80859 21.5c1.4961.07031 3.59375.61328 4.0547.76953Zm0 0"/><path fill="none" stroke="#007F7F" stroke-miterlimit="10" stroke-width=".39432" d="m20.21094 20.16406 13.49218-8.9961"/><path fill="#007F7F" stroke="#007F7F" stroke-miterlimit="10" stroke-width=".3943" d="M17.05078 22.26953c.45703-.15625 2.5586-.69922 4.05078-.76953l-1.78515-2.67578c-.63672 1.35547-1.94922 3.08203-2.26563 3.44531ZM36.86328 9.0625c-.46094.15234-2.5586.69922-4.05469.76953l1.78516 2.67578c.63672-1.35547 1.94922-3.08203 2.26953-3.44531Zm0 0"/></svg>