<svg xmlns="http://www.w3.org/2000/svg" xmlns:xlink="http://www.w3.org/1999/xlink" width="92.222pt" height="90.875pt" viewBox="0 0 92.222 90.875"><defs><path id="a" d="M.32813-.10937.45313 0h5l.40625-1.59375-.34375-.0625c-.25.65625-.5.75-.98438.75H1.45313c.1875-.64062.90625-1.5 2.03125-2.3125 1.15625-.84375 2.04687-1.375 2.04687-2.73437 0-1.67188-1.10937-2.25-2.39062-2.25-1.65625 0-2.5 1-2.5 1.625 0 .40625.46875.60937.67187.60937.21875 0 .29688-.125.34375-.34375.1875-.8125.67188-1.46875 1.40625-1.46875.9375 0 1.20313.76563 1.20313 1.65625 0 1.29688-.65625 2.03125-1.70313 2.95313C1.0625-1.875.54688-1.04687.32813-.10937m0 0"/><path id="b" d="M.53125-3.71875c0 2.59375.95313 3.85938 2.75 3.85938 1.79688 0 2.75-1.07813 2.75-2.71875 0-1.64063-1.01562-2.51563-2.3125-2.51563-.9375 0-1.65625.64063-1.96875 1.03125h-.03125c.01563-2.65625.76563-3.71875 1.85938-3.71875.5625 0 .95312.45313 1.14062 1.15625.03125.14063.125.25.29688.25.28125 0 .65625-.21875.65625-.54687 0-.48438-.59375-1.28125-2.04688-1.28125-1.92187 0-3.09375 1.46875-3.09375 4.48437m1.21875.875c0-.73437.54688-1.64062 1.5625-1.64062.76563 0 1.5.70312 1.5 2.07812 0 1.28125-.48437 2.125-1.5 2.125-1.04687 0-1.5625-1.125-1.5625-2.5625m0 0"/><path id="d" d="M.48438-1.23437c0 .54687.84375 1.375 2.42187 1.375 1.98438 0 2.89063-1.20313 2.89063-2.73438 0-1.70312-1.0625-2.5625-2.5-2.5625-.65625 0-1.39063.28125-1.76563.64063l-.01562-.01563.26562-2.26562c.04688-.3125.125-.34375.34375-.34375h3.01563l.29687-.82813-.0625-.09375H1.32813l-.10938.10938-.25 4.03125.29688.15625c.5-.57813 1-.85938 1.65625-.85938.76562 0 1.60937.5625 1.60937 2.15625 0 1.25-.5 2.1875-1.54687 2.1875-.85938 0-1.28125-.60937-1.51563-1.29687-.0625-.1875-.1875-.29688-.34375-.29688-.25 0-.64062.25-.64062.64063m0 0"/><path id="e" d="M1.3125 0h3.96875v-.34375L4.26563-.4375C4-.46875 3.85938-.54687 3.85938-1.03125v-7.10937l-.0625-.0625-2.48438.42187v.29688l1.125.14062c.20313.01563.28125.10938.28125.45313v5.85937c0 .23438-.01562.375-.09375.46875-.0625.09375-.17187.10938-.29687.125L1.3125-.34375Zm0 0"/><path id="f" d="M.5-4.03125C.5-1.625 1.20313.14063 3.20313.14063c1.98437 0 2.70312-1.76563 2.70312-4.17188 0-2.42187-.71875-4.17187-2.70312-4.17187-2 0-2.70313 1.75-2.70313 4.17187m1.21875 0c0-1.96875.34375-3.75 1.48438-3.75 1.14062 0 1.46875 1.78125 1.46875 3.75s-.32813 3.75-1.46875 3.75c-1.14063 0-1.48438-1.78125-1.48438-3.75m0 0"/><path id="g" d="m.60938 1.48438.23437.21874c.60938-.5625 1.48438-1.375 1.48438-2.3125 0-.65624-.34375-1.09374-.8125-1.09374-.375 0-.60938.29687-.60938.59375 0 .4375.40625.67187.40625 1.1875 0 .5-.3125.96875-.70312 1.40625m0 0"/><path id="c" d="M1.03125-3.0625h6.64063v-.70312H1.03125Zm0 0"/></defs><path fill="none" stroke="#000" stroke-miterlimit="10" stroke-width=".51307" d="M16.1211 10.76172V4.59765m0 .00001h23.6836m-.00001 6.16406V4.59765"/><use xlink:href="#a" x="18.84413" y="20.011"/><use xlink:href="#b" x="30.68545" y="20.011"/><use xlink:href="#c" x="4.28089" y="35.42249"/><path fill="none" stroke="#000" stroke-miterlimit="10" stroke-width=".51307" d="M16.1211 39.27344h23.6836"/><use xlink:href="#a" x="18.84413" y="35.42249"/><use xlink:href="#d" x="30.68545" y="35.42249"/><use xlink:href="#e" x="30.68603" y="50.83397"/><use xlink:href="#f" x="42.52735" y="50.83397"/><use xlink:href="#c" x="16.1215" y="66.24546"/><path fill="none" stroke="#000" stroke-miterlimit="10" stroke-width=".51307" d="M27.96484 70.09766h23.6797"/><use xlink:href="#e" x="30.68603" y="66.24546"/><use xlink:href="#f" x="42.52735" y="66.24546"/><use xlink:href="#f" x="42.52664" y="81.65695"/><path fill="none" stroke="#000" stroke-miterlimit="10" stroke-width=".51307" d="M57.5664 86.15234V4.59764m0 14.76955h29.60548"/><use xlink:href="#d" x="66.21044" y="15.51582"/><use xlink:href="#d" x="66.21044" y="30.92731"/><use xlink:href="#g" x="73.72364" y="30.92731"/><use xlink:href="#a" x="78.05176" y="30.92731"/></svg>