<svg xmlns="http://www.w3.org/2000/svg" xmlns:xlink="http://www.w3.org/1999/xlink" width="86.328pt" height="50.662pt" viewBox="0 0 86.328 50.662"><defs><path id="a" d="M1.29688-2c0 1.10938.51562 2.21875 1.78125 2.21875 2 0 3.71875-2.29687 4.8125-4.1875h.03125l-.625 2.10938c-.125.42187-.20313.76562-.20313 1.0625 0 .65625.3125 1.01562 1.01563 1.01562 1.39062 0 2.45312-1.26562 3.07812-2.67187l-.4375-.25C10.42188-2.0625 9.59375-.75 9.07813-.75c-.21875 0-.29688-.14062-.29688-.35937 0-.17188.04688-.39063.10938-.65625l1.95312-7.40625H9.29688l-.09375.23437c-.3125-.21875-.85938-.39062-1.35938-.39062-4.42187 0-6.54687 4.875-6.54687 7.32812m1.84375-.03125c0-2.04687 1.82812-6.64062 4.75-6.64062.45312 0 .84375.15625 1.125.40625C8.67188-6.875 8.03125-5.04687 7.03125-3.5625 5.98438-1.96875 4.84375-.75 3.95313-.75c-.60938 0-.8125-.54687-.8125-1.28125m0 0"/><path id="b" d="M1.625 0h.67188l.5625-1.09375C3.20313-.3125 4.125.21875 5.20313.21875c2.17187 0 3.75-1.4375 4.65625-3.07812.9375-1.64063 1.23437-3.28125 1.23437-4.125 0-1.375-.59375-2.34375-1.98437-2.34375-1.40625 0-3.26563 1.28125-4.6875 3.82812h-.03125l2.04687-8.20312-.07812-.07813-3.3125.4375-.125.4375 1.04687.125c.32813.03125.45313.09375.45313.375 0 .125-.01563.29688-.07813.53125Zm2.28125-2.01562c0-.89063.40625-2.17188 1-3.26563.82813-1.48437 2.23438-3.07812 3.375-3.07812.6875 0 .98438.46875.98438 1.54687 0 1.34375-1.10938 6.375-3.82813 6.375-.95312 0-1.53125-.65625-1.53125-1.57812m0 0"/><path id="c" d="M1.57813-2.75C1.57813-.46875 2.9375.21875 4.25.21875c1.39063 0 2.9375-.59375 4.23438-2.73437l-.45313-.34375C7.39063-2.01562 6.3125-.6875 5.0625-.6875c-1.35937 0-1.64062-1.10937-1.64062-2.4375 0-2.40625 1.40625-5.54687 3.09375-5.54687.59375 0 1.01562.375 1.14062 1.48437.03125.32813.1875.54688.53125.54688.45313 0 1.1875-.42188 1.1875-1.03125 0-.95313-1.01562-1.65625-2.39062-1.65625-3.3125 0-5.40625 3.53125-5.40625 6.57812m0 0"/><path id="d" d="M1.39063-2.23437c0 1.20312.34375 2.45312 1.84375 2.45312C5.375.21875 7.03125-2.0625 8.125-4.04687h.03125l-.60937 2.20312c-.09375.375-.15625.71875-.15625 1 0 .6875.3125 1.0625.96875 1.0625 1.46875 0 2.4375-1.26562 3.0625-2.67187l-.4375-.25C10.65625-2.0625 9.82813-.75 9.3125-.75c-.21875 0-.29687-.14062-.29687-.35937 0-.17188.0625-.39063.10937-.65625l2.9375-11.9375-.10937-.07813-3.29688.4375-.09375.4375 1.10938.09375c.29687.03125.40625.10938.40625.32813 0 .09375-.01563.25-.07813.45312l-.70312 2.98438-.04688.03125c-.35937-.17188-.92187-.3125-1.5625-.3125-4.32812 0-6.29687 4.84375-6.29687 7.09375m1.82812.15625c0-2.01563 1.625-6.59375 4.59375-6.59375.5625 0 1.0625.17187 1.28125.375C8.8125-6.875 8.20313-5.125 7.25-3.57812 6.35938-2.14062 5.14063-.75 4.15625-.75c-.59375 0-.9375-.5-.9375-1.32812m0 0"/></defs><use xlink:href="#a" x="8.96323" y="15.95002"/><path fill="none" stroke="#000" stroke-miterlimit="10" stroke-width="1.08753" d="M8.96484 24.39062h11.58594"/><use xlink:href="#b" x="9.01086" y="43.49163"/><use xlink:href="#c" x="65.68569" y="15.95002"/><path fill="none" stroke="#000" stroke-miterlimit="10" stroke-width="1.08753" d="M64.83594 24.39062h11.86328"/><use xlink:href="#d" x="64.8363" y="43.49163"/><path fill="none" stroke="#007F7F" stroke-miterlimit="10" stroke-width=".39542" d="m29.73828 16.4336 26.1875 17.45703"/><path fill="#007F7F" stroke="#007F7F" stroke-miterlimit="10" stroke-width=".3954" d="M26.5664 14.32031c.32032.36719 1.63672 2.09766 2.27735 3.45703l1.78906-2.68359c-1.5-.07031-3.60547-.61719-4.0664-.77344ZM59.09375 36.0039c-.32031-.36327-1.63672-2.09765-2.27344-3.45312l-1.79297 2.6836c1.5.0664 3.60547.61718 4.0664.76953Zm0 0"/><path fill="none" stroke="#007F7F" stroke-miterlimit="10" stroke-width=".39542" d="m29.73828 33.89063 26.1875-17.45704"/><path fill="#007F7F" stroke="#007F7F" stroke-miterlimit="10" stroke-width=".3954" d="M26.5664 36.0039c.46095-.15234 2.56641-.70312 4.06641-.76953l-1.78906-2.68359c-.64063 1.35547-1.95703 3.08985-2.27734 3.45313Zm32.52735-21.68359c-.46094.15625-2.5664.70313-4.0664.77344l1.79296 2.6836c.63672-1.35938 1.95313-3.08985 2.27344-3.45704Zm0 0"/></svg>