<svg xmlns="http://www.w3.org/2000/svg" xmlns:xlink="http://www.w3.org/1999/xlink" width="159.615pt" height="157.284pt" viewBox="0 0 159.615 157.284"><defs><path id="a" d="M.5625-.20312.78125 0h8.67188l.71875-2.76562-.57813-.10938c-.45312 1.14063-.875 1.29688-1.71875 1.29688H2.51563c.34375-1.09375 1.59375-2.59375 3.53125-4 2.01562-1.46875 3.5625-2.40625 3.5625-4.75 0-2.92188-1.9375-3.92188-4.14063-3.92188-2.875 0-4.35937 1.73438-4.35937 2.82813 0 .71875.8125 1.04687 1.17187 1.04687.375 0 .5-.21875.59375-.57812.34375-1.4375 1.15625-2.5625 2.45313-2.5625 1.60937 0 2.07812 1.32812 2.07812 2.875 0 2.25-1.14062 3.51562-2.96875 5.125C1.85938-3.25.95313-1.82812.5625-.20312m0 0"/><path id="b" d="M.92188-6.46875C.92188-1.9375 2.5625.25 5.71875.25c3.09375 0 4.75-1.875 4.75-4.73437 0-2.82813-1.75-4.375-4-4.375-1.65625 0-2.875 1.10937-3.4375 1.8125h-.04687c.03125-4.625 1.34375-6.46875 3.23437-6.46875.96875 0 1.65625.79687 1.96875 2 .0625.25.21875.45312.53125.45312.46875 0 1.125-.39062 1.125-.96875 0-.84375-1.03125-2.21875-3.54687-2.21875-3.32813 0-5.375 2.5625-5.375 7.78125m2.10937 1.51563C3.03125-6.21875 4-7.78125 5.75-7.78125c1.32813 0 2.60938 1.20313 2.60938 3.60938 0 2.20312-.84375 3.6875-2.60938 3.6875-1.82812 0-2.71875-1.95313-2.71875-4.46875m0 0"/><path id="d" d="M.84375-2.14062C.84375-1.1875 2.32813.25 5.04688.25 8.5.25 10.0625-1.85937 10.0625-4.5c0-2.95312-1.82812-4.45312-4.32812-4.45312-1.15625 0-2.40625.5-3.07813 1.09375L2.64063-7.875l.45312-3.92187c.07813-.54688.20313-.60938.60938-.60938h5.21875l.51562-1.42187-.10937-.1875h-7l-.20313.20312-.42187 7 .5.28125c.875-1.01562 1.71875-1.5 2.85937-1.5 1.34375 0 2.8125.98438 2.8125 3.75C7.875-2.125 7-.48437 5.17188-.48437c-1.46875 0-2.20313-1.0625-2.625-2.26563-.10938-.3125-.3125-.5-.60938-.5-.42187 0-1.09375.42188-1.09375 1.10938m0 0"/><path id="e" d="M2.28125 0h6.89063v-.60937L7.40625-.76563c-.4375-.03124-.6875-.1875-.6875-1.01562v-12.35937L6.60938-14.25l-4.32813.73438v.5l1.95313.25c.35937.04687.5.20312.5.8125v10.17187c0 .39063-.04688.64063-.1875.79688-.10938.15624-.28125.20312-.51563.21874l-1.75.15626Zm0 0"/><path id="f" d="M.875-7C.875-2.8125 2.09375.25 5.5625.25c3.45313 0 4.70313-3.0625 4.70313-7.25 0-4.20312-1.25-7.25-4.70313-7.25C2.09375-14.25.875-11.20312.875-7m2.10938 0c0-3.42187.57812-6.51562 2.57812-6.51562 1.98438 0 2.5625 3.09375 2.5625 6.51562 0 3.40625-.57812 6.51563-2.5625 6.51563-2 0-2.57812-3.10938-2.57812-6.51563m0 0"/><path id="g" d="m1.07813 2.5625.39062.40625c1.04688-.98437 2.5625-2.39062 2.5625-4.04687 0-1.10938-.59375-1.89063-1.39062-1.89063-.65625 0-1.0625.51563-1.0625 1.04688 0 .76562.70312 1.15625.70312 2.0625 0 .85937-.54687 1.6875-1.20312 2.42187m0 0"/><path id="c" d="M1.78125-5.3125h11.54688v-1.21875H1.78125Zm0 0"/></defs><path fill="none" stroke="#000" stroke-miterlimit="10" stroke-width=".89144" d="M28.1836 18.14844V7.4375m0 0h41.14453m0 10.71094V7.4375"/><use xlink:href="#a" x="32.91248" y="34.214"/><use xlink:href="#b" x="53.48632" y="34.214"/><use xlink:href="#c" x="7.60718" y="60.99309"/><path fill="none" stroke="#000" stroke-miterlimit="10" stroke-width=".89144" d="M28.1836 67.6875h41.14453"/><use xlink:href="#a" x="32.91248" y="60.99309"/><use xlink:href="#d" x="53.48632" y="60.99309"/><use xlink:href="#e" x="53.48508" y="87.76995"/><use xlink:href="#f" x="74.05892" y="87.76995"/><use xlink:href="#c" x="28.18201" y="114.5468"/><path fill="none" stroke="#000" stroke-miterlimit="10" stroke-width=".89144" d="M48.7539 121.24219h41.14845"/><use xlink:href="#e" x="53.48508" y="114.5468"/><use xlink:href="#f" x="74.05892" y="114.5468"/><use xlink:href="#f" x="74.05992" y="141.32366"/><path fill="none" stroke="#000" stroke-miterlimit="10" stroke-width=".89144" d="M100.1914 149.13281V7.4375m0 25.66016h51.4336"/><use xlink:href="#d" x="115.20735" y="26.4038"/><use xlink:href="#d" x="115.20735" y="53.1829"/><use xlink:href="#g" x="128.26125" y="53.1829"/><use xlink:href="#a" x="135.78119" y="53.1829"/></svg>