<svg xmlns="http://www.w3.org/2000/svg" xmlns:xlink="http://www.w3.org/1999/xlink" width="56.113pt" height="32.93pt" viewBox="0 0 56.113 32.93"><defs><path id="a" d="M.84375-1.28125c0 .70313.32813 1.42188 1.14063 1.42188 1.29687 0 2.40625-1.48438 3.10937-2.70313h.01563l-.40625 1.35938c-.07813.26562-.125.5-.125.6875 0 .42187.20312.65625.65625.65625.89062 0 1.57812-.8125 1.98437-1.71875L6.9375-1.75c-.21875.42188-.75 1.26563-1.07812 1.26563-.14063 0-.20313-.09375-.20313-.23438 0-.10937.04688-.25.07813-.42187L7-5.92187H6l-.0625.15625c-.20312-.14063-.5625-.25-.875-.25-2.85937 0-4.21875 3.14062-4.21875 4.73437m1.1875-.03125c0-1.3125 1.17188-4.28125 3.0625-4.28125.28125 0 .54688.09375.71875.26563-.21875.89062-.64062 2.07812-1.28125 3.03125C3.85938-1.28125 3.125-.48437 2.54688-.48437c-.39063 0-.51563-.35938-.51563-.82813m0 0"/><path id="b" d="M1.04688 0h.4375l.35937-.70312c.21875.5.82813.84375 1.51563.84375 1.39062 0 2.42187-.9375 3-1.98438.60937-1.0625.79687-2.125.79687-2.65625 0-.89062-.39062-1.51562-1.28125-1.51562-.90625 0-2.09375.82812-3.01562 2.46875h-.03125l1.32812-5.28125-.04687-.0625-2.14063.28125-.07812.28125.67187.07812c.20313.03125.29688.0625.29688.25 0 .07813-.01563.1875-.04688.34375Zm1.48437-1.29687c0-.57813.25-1.40625.625-2.10938.54688-.95312 1.45313-1.98437 2.1875-1.98437.4375 0 .64063.29687.64063.98437 0 .875-.71875 4.125-2.48438 4.125-.60937 0-.96875-.42187-.96875-1.01562m0 0"/><path id="c" d="M1.01563-1.76562c0 1.45312.89062 1.90625 1.71875 1.90625.90625 0 1.90625-.39063 2.73437-1.76563l-.29687-.21875C4.76563-1.29687 4.0625-.45312 3.26563-.45312c-.875 0-1.0625-.70313-1.0625-1.5625 0-1.54688.90625-3.57813 2-3.57813.39062 0 .65625.23438.73437.95313.01563.21875.125.35937.34375.35937.29688 0 .76563-.26562.76563-.67187 0-.60938-.65625-1.0625-1.54688-1.0625-2.125 0-3.48437 2.28125-3.48437 4.25m0 0"/><path id="d" d="M.89063-1.4375c0 .78125.23437 1.57813 1.20312 1.57813 1.375 0 2.4375-1.46875 3.14063-2.75h.03125L4.875-1.1875c-.0625.25-.10937.45313-.10937.64063 0 .4375.20312.6875.625.6875.95312 0 1.57812-.8125 1.98437-1.71875L7.09375-1.75C6.875-1.32812 6.34375-.48437 6-.48437c-.14062 0-.1875-.09375-.1875-.23438 0-.10937.04688-.25.07813-.42187l1.89062-7.6875-.0625-.0625-2.14062.28125-.0625.28125.71875.0625c.1875.01562.26562.0625.26562.20312 0 .0625-.01562.17188-.04687.29688L6-5.84375l-.03125.03125c-.23437-.10937-.59375-.20312-1.01562-.20312-2.78125 0-4.0625 3.125-4.0625 4.57812m1.1875.09375c0-1.29687 1.04687-4.25 2.95312-4.25.375 0 .6875.10938.82813.23438-.17188.92187-.5625 2.0625-1.1875 3.04687-.5625.9375-1.35938 1.82813-2 1.82813-.375 0-.59375-.3125-.59375-.85938m0 0"/></defs><use xlink:href="#a" x="5.77915" y="10.48926"/><path fill="none" stroke="#000" stroke-miterlimit="10" stroke-width=".70131" d="M5.77734 15.9336H13.25"/><use xlink:href="#b" x="5.81114" y="28.24991"/><use xlink:href="#c" x="42.35882" y="10.48926"/><path fill="none" stroke="#000" stroke-miterlimit="10" stroke-width=".70131" d="M41.8125 15.9336h7.64844"/><use xlink:href="#d" x="41.81108" y="28.24991"/><path fill="none" stroke="#007f7f" stroke-miterlimit="10" stroke-width=".3923" d="M20.49218 11.67578 34.75 21.1836"/><path fill="#007f7f" stroke="#007f7f" stroke-miterlimit="10" stroke-width=".39228" d="M17.34765 9.58203c.31641.35938 1.6211 2.08203 2.25391 3.42578l1.77735-2.66015c-1.48829-.07032-3.57813-.61329-4.03126-.76563Zm20.54688 13.69922c-.3164-.36328-1.6211-2.08203-2.25781-3.42969l-1.77344 2.66407c1.48438.0664 3.57422.60937 4.03125.76562Zm0 0"/><path fill="none" stroke="#007f7f" stroke-miterlimit="10" stroke-width=".3923" d="M20.49218 21.1836 34.75 11.67578"/><path fill="#007f7f" stroke="#007f7f" stroke-miterlimit="10" stroke-width=".39228" d="M17.34765 23.28125c.45313-.15625 2.54297-.69922 4.03126-.76562l-1.77735-2.66407c-.63281 1.34766-1.9375 3.06641-2.2539 3.4297ZM37.89453 9.58203c-.45703.15234-2.54687.69531-4.03125.76562l1.77344 2.66016c.63672-1.34375 1.9414-3.0664 2.25781-3.42578Zm0 0"/></svg>