<svg xmlns="http://www.w3.org/2000/svg" width="252.205pt" height="136.365pt" viewBox="0 0 252.205 136.365"><defs><clipPath id="a"><path d="M.1875 0H103v102H.1875Zm0 0"/></clipPath><clipPath id="b"><path d="M147 14h104.22656v116H147Zm0 0"/></clipPath><clipPath id="c"><path d="M83 18h129v117.73438H83Zm0 0"/></clipPath></defs><path fill="none" stroke="#000" stroke-miterlimit="10" stroke-width=".39665" d="m25.25 81.20703 13.42578-50.10547 40.9375-2.45703Zm0 0"/><g clip-path="url(#a)"><path fill="none" stroke="red" stroke-miterlimit="10" stroke-width=".79332" d="M85.29297 27.48437C73.64453 7.3086 47.84766.39453 27.67187 12.04297s-27.08593 37.4453-15.4375 57.6211c11.64844 20.17577 37.44532 27.08984 57.6211 15.4414s27.08594-37.44532 15.4375-57.6211Zm0 0"/></g><path fill="none" stroke="#000" stroke-miterlimit="10" stroke-width=".39665" d="m171.96876 99.54688 55.01953-55.01954 18.33984 36.6797Zm0 0"/><g clip-path="url(#b)"><path fill="none" stroke="#000" stroke-miterlimit="10" stroke-width=".79332" d="M250.83204 72.03906c0-25.32422-20.52734-45.85156-45.85156-45.85156-25.32032 0-45.84766 20.52734-45.84766 45.85156 0 25.32032 20.52734 45.84766 45.84766 45.84766 25.32422 0 45.85156-20.52734 45.85156-45.84766Zm0 0"/></g><path fill="none" stroke="#000" stroke-miterlimit="10" stroke-width=".39665" d="m97.5039 93.27734-31.28124-5.51562 10.86328 29.84766Zm0 0"/><path fill="none" stroke="#0f0" stroke-miterlimit="10" stroke-width=".79332" d="M102.27735 99.54688c0-12.15235-9.85157-22.00782-22.00782-22.00782-12.15234 0-22.00781 9.85547-22.00781 22.00782 0 12.15625 9.85547 22.0078 22.00781 22.0078 12.15625 0 22.00782-9.85155 22.00782-22.0078Zm0 0"/><path fill="none" stroke="#000" stroke-miterlimit="10" stroke-width=".39665" d="m116.94922 99.54688 36.6797-63.53126 10.96874 91.04297Zm0 0"/><g clip-path="url(#c)"><path fill="none" stroke="#00f" stroke-miterlimit="10" stroke-width=".79332" d="M193.56641 109.89844c14.6875-25.4375 5.96875-57.96485-19.46875-72.65235s-57.96484-5.97265-72.65234 19.46875c-14.6875 25.4375-5.97266 57.96485 19.46875 72.65235 25.4375 14.6875 57.96484 5.96875 72.65234-19.46875Zm0 0"/></g></svg>