<svg xmlns="http://www.w3.org/2000/svg" xmlns:xlink="http://www.w3.org/1999/xlink" width="187.608pt" height="163.623pt" viewBox="0 0 187.608 163.623"><defs><path id="a" d="m1.75-1.3125.51563.5L4.375-2.9375l2.10938 2.125.5-.5L4.875-3.42187l2.10938-2.125-.5-.48438L4.375-3.92187 2.26563-6.03125 1.75-5.54687l2.125 2.125Zm0 0"/><path id="b" d="M.90625-8.04687 1.4375-8c.26563.03125.3125.15625.34375.51563L2.32813 0h.84375L6.5-6.6875h.0625L7.20313 0h.82812l2.125-4.34375c.6875-1.375 1.3125-2.60937 1.53125-2.98437.32813-.57813.42188-.64063 1.17188-.71875l.04687-.35938H10.1875l-.0625.35938.79688.07812c.10937.01563.17187.07813.17187.15625 0 .20313-.70312 1.73438-1.4375 3.28125L8.1875-1.48437h-.04687l-.625-6.70313h-.84375L3.39063-1.48437h-.0625L2.92188-7.6875c0-.20312.09375-.28125.25-.29687l.79687-.0625.07813-.35938H.96875Zm0 0"/><path id="c" d="M.125 0h6.32813l.625-2.125h-.35938C6.09375-.64062 5.5625-.42187 4.0625-.42187c-1.4375 0-1.51562-.1875-1.51562-.51563 0-.125.03125-.29687.09375-.54687L3.25-4.14062h1.59375c.90625 0 1.07813.17187 1.07813.70312 0 .10938 0 .20313-.01563.34375h.35938l.5625-2.54687h-.375c-.29688.84375-.4375 1.04687-1.5 1.04687H3.35938l.6875-3.03125c.0625-.29687.14062-.35937.34375-.35937h1.46875c1.1875 0 1.42187.3125 1.42187.96875 0 .29687-.03125.625-.03125.625h.35938l.45312-2.01563H1.92188l-.09376.35938.75.04687c.20313.01563.29688.10938.29688.29688q0 .11718-.04687.28125L1.375-1.01562c-.09375.42187-.20312.5625-.5.59375l-.6875.07812Zm0 0"/><path id="d" d="M0 0h3.6875c2.92188 0 3.51563-1.51562 3.51563-2.51562 0-1.28125-.9375-1.84375-1.82813-2l.01563-.03125C7-4.75 7.6875-5.65625 7.6875-6.57812c0-.98438-.57812-1.82813-2.8125-1.82813H1.79688l-.07813.35938.71875.0625c.21875.01562.29688.10937.29688.29687 0 .07813-.01563.1875-.04688.29688L1.25-1.01562c-.09375.40625-.20312.54687-.5.59375l-.6875.07812Zm2.42188-.9375c0-.07812.01562-.17187.04687-.26562l.70313-3.10938h.46875c1.20312 0 2.26562.34375 2.26562 1.73438C5.90625-1.5 5.25-.42187 3.625-.42187c-.96875 0-1.20312-.20313-1.20312-.51563M3.25-4.75l.64063-2.8125c.09375-.35937.15625-.42187.96875-.42187 1.01562 0 1.59375.51562 1.59375 1.375 0 1.26562-1.0625 1.85937-2.40625 1.85937Zm0 0"/></defs><path fill="none" stroke="#000" stroke-miterlimit="10" stroke-width=".39758" d="M22.34375 145.97656h147.06637L16.09375 17.293Zm0 0"/><use xlink:href="#a" x="17.97571" y="148.99271"/><use xlink:href="#b" x="4.32716" y="158.93979"/><use xlink:href="#a" x="165.0678" y="148.99271"/><use xlink:href="#c" x="174.00022" y="158.93979"/><use xlink:href="#a" x="11.72512" y="20.28825"/><use xlink:href="#d" x="11.84783" y="12.70572"/></svg>