<svg xmlns="http://www.w3.org/2000/svg" xmlns:xlink="http://www.w3.org/1999/xlink" width="436.914pt" height="219.091pt" viewBox="0 0 436.914 219.091"><defs><path id="a" d="M.25 0h6.20313l.625-2.125h-.35938c-.625 1.5-1.17187 1.70313-2.54687 1.70313-1.23438 0-1.5-.125-1.5-.5 0-.14063.03125-.3125.09375-.5625L4.10938-7.375c.10937-.39062.20312-.57812.51562-.60937l.71875-.04688.09375-.34375h-3.375l-.09375.34375.71875.04688c.21875.01562.29688.125.29688.32812 0 .07813 0 .17188-.03125.28125L1.5-1c-.10937.42188-.21875.54688-.5.57813l-.67187.07812Zm0 0"/><path id="b" d="M1-2.07812C1-.4375 2.1875.1875 3.9375.1875c1.65625 0 3.17188-.35937 3.82813-3.17187L8.79688-7.375c.10937-.40625.21875-.57812.51562-.60937l.67188-.04688.07812-.34375H6.75l-.07812.34375.70312.04688c.20313.01562.3125.125.3125.34375 0 .07812-.01562.17187-.04687.26562l-.96875 4.23438C6.29688-1.53125 5.70313-.25 4.01563-.25 2.9375-.25 2.1875-.70312 2.1875-2.04687c0-.34375.0625-.75.15625-1.21875L3.3125-7.375c.10938-.40625.1875-.57812.5-.60937l.67188-.04688.07812-.34375H1.25l-.09375.34375.71875.04688c.21875.01562.29688.125.29688.32812 0 .07813 0 .17188-.03125.28125L1.125-3.10937C1.03125-2.71875 1-2.39062 1-2.07812m0 0"/><path id="c" d="M0 0h2.85938l.0625-.34375-.46875-.04687c-.35938-.01563-.5625-.09375-.5625-.35938 0-.64062.125-1.01562.26562-1.65625l1.125-4.96875h.04688c1.125 2.46875 2.25 4.90625 3.35937 7.375h.78125l1.35938-5.96875c.14062-.64062.28125-1.10937.42187-1.5.14063-.39062.35938-.48437.73438-.51562l.35937-.04688.07813-.34375h-2.875l-.0625.34375.48437.04688c.35938.04687.5625.15625.5625.4375 0 .4375-.125.9375-.26562 1.57812l-1 4.39063h-.04688C6.17188-3.85937 5.14063-6.10937 4.125-8.375H1.8125l-.07812.34375.71875.0625c.20312.01563.3125.125.3125.32813 0 .07812-.01563.17187-.04688.26562L1.57813-2.40625c-.14063.64063-.29688 1.10938-.4375 1.5C1-.51562.79688-.42187.4375-.39062l-.375.04687Zm0 0"/><path id="d" d="M.125 0h6.3125l.625-2.125h-.35937c-.625 1.5-1.15625 1.70313-2.65625 1.70313-1.4375 0-1.5-.1875-1.5-.5 0-.14063.03125-.3125.07812-.5625l.625-2.65625h1.57813c.90625 0 1.07812.1875 1.07812.71875 0 .09375 0 .20312-.01562.32812H6.25L6.8125-5.625h-.375c-.29687.84375-.4375 1.03125-1.5 1.03125H3.34375l.6875-3.01562c.0625-.29688.14063-.35938.34375-.35938h1.46875c1.1875 0 1.42188.3125 1.42188.96875 0 .29688-.03125.625-.03125.625h.35937l.45313-2h-6.125l-.09376.34375.73438.04688c.20313.01562.29688.10937.29688.29687 0 .07813-.01563.17188-.03125.28125L1.375-1c-.09375.40625-.20312.54688-.5.57813l-.6875.07812Zm0 0"/></defs><path fill="none" stroke="#000" stroke-miterlimit="10" stroke-width=".39685" d="M419.80075 109.1836 219.79297 17.43751 19.78519 109.18359l200.00778 91.74608Zm0 0"/><use xlink:href="#a" x="424.39457" y="113.37461"/><use xlink:href="#b" x="214.93163" y="12.68238"/><use xlink:href="#c" x="5.15897" y="113.37461"/><use xlink:href="#d" x="215.70542" y="213.88659"/><path fill="none" stroke="red" stroke-miterlimit="10" stroke-width=".39685" d="m321.26951 60.71095-2.92968 5.20312M118.78127 60.4961l2.03125 5.61719m-2.4961 91.54295 2.9336-5.20703m199.55856 5.41797-2.03125-5.61719"/></svg>