<svg xmlns="http://www.w3.org/2000/svg" xmlns:xlink="http://www.w3.org/1999/xlink" width="98.004pt" height="54.803pt" viewBox="0 0 98.004 54.803"><defs><path id="a" d="M1.04688-3.40625c0 2.71875.60937 5.71875 3.15625 5.8125v-.35937C3.34375 1.89063 2 .82813 2-3.40625c0-4.1875 1.28125-5.25 2.20313-5.4375v-.35937C1.65625-9.10937 1.04688-6.125 1.04688-3.40625m0 0"/><path id="b" d="M.89063-1.45312c0 .78125.23437 1.59375 1.21875 1.59375 1.375 0 2.45312-1.46875 3.15625-2.76563h.03125l-.39063 1.4375c-.0625.23438-.10937.45313-.10937.64063 0 .4375.20312.6875.625.6875.95312 0 1.57812-.82813 2-1.73438L7.125-1.75c-.20312.42188-.75 1.26563-1.07812 1.26563-.14063 0-.20313-.09375-.20313-.23438 0-.10937.04688-.25.07813-.42187l1.90625-7.75-.0625-.04688-2.14063.28125-.07812.28125.71875.0625c.20312.01563.28125.0625.28125.20313 0 .0625-.01563.17187-.0625.29687L6.03125-5.875 6-5.84375c-.23437-.125-.59375-.21875-1.01562-.21875-2.79688 0-4.09375 3.15625-4.09375 4.60938m1.20312.10937c0-1.3125 1.04688-4.28125 2.96875-4.28125.375 0 .70313.10938.84375.23438-.1875.92187-.57812 2.0625-1.20312 3.0625-.57813.9375-1.375 1.84375-2.01563 1.84375-.375 0-.59375-.32813-.59375-.85938m0 0"/><path id="d" d="M.71875 2.04688v.35937C3.26563 2.3125 3.89063-.6875 3.89063-3.40625s-.625-5.70312-3.17188-5.79687v.35937c.92188.1875 2.20313 1.25 2.20313 5.4375 0 4.23438-1.34375 5.29688-2.20313 5.45313m0 0"/><path id="c" d="M.92188 0h2.8125v-.26562l-.67188-.0625c-.1875-.01563-.26562-.07813-.26562-.39063V-5.6875l-.0625-.04687-1.8125.3125v.21875l.73437.09375c.15625.03125.20313.09375.20313.35937v4.03125c0 .3125-.07813.375-.26563.39063l-.67187.0625Zm0 0"/><path id="e" d="M.23438-.09375.34375 0h3.5625l.3125-1.20312-.25-.04688c-.20312.45313-.35937.51563-.6875.51563H1.125c.125-.40625.57813-.96875 1.39063-1.51563.85937-.57812 1.46875-.96875 1.46875-1.89062 0-1.17188-.79688-1.59375-1.73438-1.59375-1.14062 0-1.79687.67187-1.79687 1.17187 0 .3125.34375.45313.53125.45313.15624 0 .23437-.09375.26562-.25.14063-.59375.45313-1.0625.95313-1.0625.59375 0 .78125.51562.78125 1.125 0 .8125-.375 1.35937-1.15625 2.03125C.75-1.34375.375-.71875.23438-.09375m0 0"/><clipPath id="f"><path d="M14 .17969h83.01953V51H14Zm0 0"/></clipPath></defs><use xlink:href="#a" x="4.27357" y="26.2502"/><use xlink:href="#b" x="9.19688" y="26.2502"/><use xlink:href="#c" x="15.99227" y="29.07113"/><use xlink:href="#d" x="21.31112" y="26.2502"/><use xlink:href="#a" x="35.29431" y="47.33591"/><use xlink:href="#b" x="40.21762" y="47.33591"/><use xlink:href="#e" x="47.01301" y="50.15684"/><use xlink:href="#d" x="52.33186" y="47.33591"/><g clip-path="url(#f)"><path fill="none" stroke="#000" stroke-miterlimit="10" stroke-width="1.1835" d="M30.76563 33.60156 96.42576.76954"/></g></svg>