<svg xmlns="http://www.w3.org/2000/svg" xmlns:xlink="http://www.w3.org/1999/xlink" width="130.771pt" height="70.987pt" viewBox="0 0 130.771 70.987"><defs><path id="a" d="M1.04688-3.42187c0 2.73437.625 5.75 3.1875 5.84375V2.0625C3.375 1.90625 2.01563.82813 2.01563-3.42187c0-4.23438 1.29687-5.29688 2.21875-5.5v-.35938c-2.5625.10938-3.1875 3.125-3.1875 5.85938m0 0"/><path id="b" d="M.90625-1.45312c0 .78125.23438 1.59375 1.21875 1.59375 1.39063 0 2.46875-1.48438 3.1875-2.79688h.03125L4.9375-1.20312c-.0625.25-.10937.46875-.10937.64062 0 .45313.21875.70313.64062.70313.95313 0 1.59375-.82813 2-1.75l-.28125-.15626c-.21875.42188-.76562 1.28126-1.09375 1.28126-.15625 0-.20312-.09375-.20312-.23438 0-.125.04687-.26562.07812-.4375L7.875-8.95312 7.8125-9l-2.15625.28125-.0625.28125.71875.0625c.20313.01563.28125.0625.28125.20313 0 .0625-.01562.17187-.0625.29687l-.45312 1.95313-.03125.03125c-.23438-.125-.60938-.20313-1.01563-.20313-2.82812 0-4.125 3.15625-4.125 4.64063m1.20313.09374c0-1.3125 1.0625-4.3125 3-4.3125.375 0 .6875.10938.82812.25C5.76563-4.5 5.35938-3.34374 4.75-2.34375c-.59375.95313-1.39062 1.85938-2.03125 1.85938-.39062 0-.60937-.32813-.60937-.875m0 0"/><path id="d" d="M.71875 2.0625v.35938C3.29688 2.32813 3.92188-.6875 3.92188-3.42187s-.625-5.75-3.20313-5.85938v.35938c.9375.20312 2.23438 1.26562 2.23438 5.5 0 4.25-1.35938 5.32812-2.23438 5.48437m0 0"/><path id="c" d="M.92188 0h2.84375v-.26562l-.67188-.0625c-.1875-.01563-.28125-.07813-.28125-.39063v-5.01562l-.04687-.04688-1.82813.3125V-5.25l.73438.10938c.15624.01562.20312.07812.20312.34375v4.07812c0 .3125-.07812.375-.28125.39063l-.67187.0625Zm0 0"/><path id="e" d="M.25-.09375.34375 0H3.9375L4.25-1.21875 4-1.25c-.20312.4375-.35937.51563-.70312.51563H1.125c.14063-.42188.59375-.98438 1.42188-1.53125.85937-.57813 1.46875-.98438 1.46875-1.90625 0-1.1875-.79688-1.60938-1.75-1.60938-1.15625 0-1.8125.67188-1.8125 1.1875 0 .3125.35937.45313.53125.45313s.25-.09375.28124-.25c.14063-.60938.45313-1.07813.95313-1.07813.59375 0 .78125.51563.78125 1.14063 0 .8125-.375 1.35937-1.15625 2.04687C.75-1.34375.375-.73437.25-.09375m0 0"/><path id="f" d="M.23438-.90625c0 .35938.5625 1 1.84375 1 1.26562 0 2.0625-.60937 2.0625-1.6875 0-1.17187-1.01563-1.46875-1.4375-1.51562v-.03125c.45312-.09375 1.1875-.42188 1.1875-1.25 0-1-.8125-1.39063-1.71875-1.39063-1.09375 0-1.71875.60938-1.71875 1.04688 0 .28125.32812.4375.48437.4375.125 0 .1875-.07813.23438-.20313.1875-.60937.48437-.96875.9375-.96875.64062 0 .79687.60938.79687 1.04688 0 .45312-.14062 1.15625-.84375 1.15625-.39062 0-.64062-.09375-.76562-.09375S1.125-3.25 1.125-3.09375s.04688.26563.17188.26563.375-.09375.76562-.09375c.65625 0 1.0625.54687 1.0625 1.35937 0 .96875-.45312 1.34375-1.03125 1.34375-.51562 0-.875-.39062-1.04687-.9375-.0625-.17187-.15626-.25-.28126-.25-.20312 0-.53124.17188-.53124.5m0 0"/><clipPath id="g"><path d="M25 .05469h78V39H25Zm0 0"/></clipPath><clipPath id="h"><path d="M58 11h72.54297v45H58Zm0 0"/></clipPath><clipPath id="i"><path d="M32 .05469h78V43H32Zm0 0"/></clipPath></defs><use xlink:href="#a" x="4.30945" y="25.94921"/><use xlink:href="#b" x="9.27411" y="25.94921"/><use xlink:href="#c" x="16.12656" y="28.79383"/><use xlink:href="#d" x="21.49007" y="25.94921"/><use xlink:href="#a" x="68.6967" y="63.76499"/><use xlink:href="#b" x="73.66136" y="63.76499"/><use xlink:href="#e" x="80.51381" y="66.60961"/><use xlink:href="#d" x="85.87861" y="63.76499"/><g fill="red"><use xlink:href="#a" x="101.80373" y="17.41516"/><use xlink:href="#b" x="106.76838" y="17.41516"/></g><use xlink:href="#f" x="113.62083" y="20.25978" fill="red"/><use xlink:href="#d" x="118.98564" y="17.41516" fill="red"/><g clip-path="url(#g)"><path fill="none" stroke="#000" stroke-miterlimit="10" stroke-width=".3978" d="M31.02344 33.35938 97.23829.2539"/></g><g clip-path="url(#h)"><path fill="none" stroke="#000" stroke-miterlimit="10" stroke-width=".3978" d="m64.12891 49.91406 66.21485-33.10547"/></g><g clip-path="url(#i)"><path fill="none" stroke="red" stroke-miterlimit="10" stroke-width=".3978" d="M37.64453 36.67188 103.85938 3.5664"/></g></svg>