<svg xmlns="http://www.w3.org/2000/svg" xmlns:xlink="http://www.w3.org/1999/xlink" width="201.641pt" height="69.957pt" viewBox="0 0 201.641 69.957"><defs><clipPath id="b"><path d="M76 53h13v16.875H76Zm0 0"/></clipPath><path id="a" d="m1.75-1.3125.51563.5L4.375-2.9375l2.10938 2.125.5-.5L4.875-3.42187l2.10938-2.125-.5-.48438L4.375-3.92187 2.26563-6.03125 1.75-5.54687l2.125 2.125Zm0 0"/></defs><use xlink:href="#a" x="41.09384" y="65.56405"/><use xlink:href="#a" x="114.67783" y="65.56405"/><use xlink:href="#a" x="114.67783" y="28.77255"/><use xlink:href="#a" x="41.09384" y="28.77255"/><use xlink:href="#a" x="59.48609" y="47.17179"/><use xlink:href="#a" x="188.23387" y="10.38728"/><use xlink:href="#a" x="151.44936" y="28.77954"/><use xlink:href="#a" x="4.30933" y="65.56405"/><path fill="none" stroke="red" stroke-miterlimit="10" stroke-width=".39779" d="M111.69142 62.54687V55.1875h7.35938m0-22.07813h-7.35938V25.7539m-58.87111 0v7.35547h-7.35547m0 22.07813h7.35547v7.35937"/><path fill="none" stroke="#000" stroke-miterlimit="10" stroke-width=".39779" d="M45.46484 62.54687h73.58596V25.7539H45.46484Zm0 0"/><g clip-path="url(#b)"><path fill="none" stroke="red" stroke-miterlimit="10" stroke-width=".39779" d="m82 65.52734.4961-5.96484"/></g><path fill="none" stroke="red" stroke-miterlimit="10" stroke-width=".39779" d="M82.4961 22.77733 82 28.74218m40.01955 16.65235-5.96875-.4961m5.96875-1.49218-5.96875-.4961m-67.60158 2.48438-5.96875-.4961m5.96875-1.49218-5.96875-.4961"/></svg>