<svg xmlns="http://www.w3.org/2000/svg" xmlns:xlink="http://www.w3.org/1999/xlink" width="184.651pt" height="164.046pt" viewBox="0 0 184.651 164.046"><defs><path id="a" d="m1.75-1.3125.5.5 2.10938-2.10937L6.46875-.8125l.48438-.5-2.09375-2.09375 2.09375-2.10937-.48438-.5-2.10937 2.10937L2.25-6.01562l-.5.5 2.10938 2.10937Zm0 0"/><path id="b" d="M-.23437 0H2.5l.07813-.34375-.67188-.0625C1.75-.42187 1.6875-.5 1.6875-.625c0-.0625.03125-.14062.0625-.23437.40625-.78125.78125-1.5625 1.23438-2.375h2.71875L6-.73437s-.0625.29687-.32812.32812l-.64063.0625L4.96875 0H7.9375l.07813-.34375-.45313-.04687c-.375-.03125-.4375-.20313-.5-.70313L6.1875-8.375h-.875L3.28125-4.79687c-.60937 1.07812-1.625 2.875-2.07812 3.59375C.82813-.5625.625-.4375.25-.40625l-.40625.0625Zm3.46875-3.6875L5.20313-7.25l.4375 3.5625Zm0 0"/><path id="c" d="M0 0h3.67188C6.59375 0 7.1875-1.5 7.1875-2.51562c0-1.26563-.9375-1.82813-1.82812-1.98438l.01562-.03125c1.60938-.1875 2.28125-1.10937 2.28125-2.01562 0-.98438-.57812-1.82813-2.79687-1.82813h-3.0625l-.07813.35938.71875.0625c.20313.01562.29688.09375.29688.29687 0 .07813-.03125.17188-.0625.29688L1.25-1c-.09375.39063-.20312.53125-.5.57813l-.6875.07812Zm2.42188-.92187c0-.09376.01562-.1875.03125-.28126l.70312-3.09374H3.625c1.20313 0 2.26563.34375 2.26563 1.71875 0 1.07812-.65625 2.15625-2.28125 2.15625-.95313 0-1.1875-.20313-1.1875-.5M3.25-4.71875l.625-2.8125c.09375-.35937.15625-.42187.96875-.42187 1.01563 0 1.57813.51562 1.57813 1.35937 0 1.26563-1.04688 1.875-2.39063 1.875Zm0 0"/><path id="d" d="M.25 0h3.3125l.07813-.34375-.71875-.0625c-.20313 0-.29688-.125-.29688-.3125 0-.07812.01563-.1875.04688-.28125l1.4375-6.35937c.09375-.375.20312-.57813.51562-.60938l.67188-.04687L5.375-8.375H2.0625l-.09375.35938.71875.04687c.20313.01563.29688.14063.29688.32813 0 .07812-.01563.17187-.03125.28125L1.5-1c-.09375.375-.21875.54688-.51562.57813l-.65625.07812Zm0 0"/><clipPath id="e"><path d="M.35938 50H183.9453v59H.35938Zm0 0"/></clipPath><clipPath id="f"><path d="M65 0h53v163.09766H65Zm0 0"/></clipPath></defs><use xlink:href="#a" x="14.52495" y="64.03461"/><use xlink:href="#b" x="23.42618" y="56.47855"/><use xlink:href="#a" x="161.10253" y="100.67851"/><use xlink:href="#c" x="170.00476" y="93.12245"/><use xlink:href="#a" x="87.81374" y="82.35706"/><use xlink:href="#d" x="96.71497" y="74.801"/><path fill="none" stroke="red" stroke-miterlimit="10" stroke-width=".3962" d="m85.05858 77.57422 1.77735-7.10938 7.10937 1.77735"/><g clip-path="url(#e)"><path fill="none" stroke="#000" stroke-miterlimit="10" stroke-width=".3962" d="m.5586 56.26563 183.18746 46.16405"/></g><g clip-path="url(#f)"><path fill="none" stroke="#000" stroke-miterlimit="10" stroke-width=".3962" d="m111.9531.19923-40.67577 162.7031"/></g></svg>