<svg xmlns="http://www.w3.org/2000/svg" width="116.927pt" height="43.226pt" viewBox="0 0 116.927 43.226"><defs><clipPath id="a"><path d="M.99219 15H13v13H.99219Zm0 0"/></clipPath><clipPath id="b"><path d="M104 15h11.86328v13H104Zm0 0"/></clipPath><clipPath id="c"><path d="M51 30h13v12.46484H51Zm0 0"/></clipPath><clipPath id="d"><path d="M53 30h13v12.46484H53Zm0 0"/></clipPath></defs><path fill="none" stroke="red" stroke-miterlimit="10" stroke-width=".39149" d="M4.125 32.09375h7.23828v7.23828m94.14842 0v-7.23828h7.2422m0-21.73047h-7.2422V3.125m-94.14842 0v7.23828H4.125"/><path fill="none" stroke="#000" stroke-miterlimit="10" stroke-width=".39149" d="M4.125 3.125v36.20703h108.6289V3.125Zm0 0"/><g clip-path="url(#a)"><path fill="none" stroke="red" stroke-miterlimit="10" stroke-width=".39149" d="m1.1875 20.98828 5.875.48828"/></g><g clip-path="url(#b)"><path fill="none" stroke="red" stroke-miterlimit="10" stroke-width=".39149" d="m115.66796 21.47656-5.8711-.48828"/></g><g clip-path="url(#c)"><path fill="none" stroke="red" stroke-miterlimit="10" stroke-width=".39149" d="m57.20312 42.26953.49219-5.8711"/></g><g clip-path="url(#d)"><path fill="none" stroke="red" stroke-miterlimit="10" stroke-width=".39149" d="m59.16406 42.26953.48828-5.8711"/></g><path fill="none" stroke="red" stroke-miterlimit="10" stroke-width=".39149" d="m57.20312 6.0664.49219-5.87108m1.46875 5.87108.48828-5.87108"/></svg>