<svg xmlns="http://www.w3.org/2000/svg" xmlns:xlink="http://www.w3.org/1999/xlink" width="182.687pt" height="108.337pt" viewBox="0 0 182.687 108.337"><defs><path id="a" d="M0 0h2.85938l.0625-.34375-.46875-.04687c-.375-.01563-.5625-.10938-.5625-.375 0-.64063.125-1 .26562-1.64063L3.25-7.34375h.03125L4.73438-.14062h.34375l4.70312-7.20313h.03125L8.32813-1c-.09375.40625-.21875.54688-.51563.57813l-.65625.07812L7.07813 0H10.375l.0625-.34375-.70312-.07812c-.21875-.01563-.3125-.125-.3125-.3125 0-.07813.01562-.17188.04687-.26563l1.45313-6.35937c.09375-.42188.1875-.57813.5-.60938l.67187-.04687.09375-.35938h-2.375c-.64062 1.10938-1.35937 2.1875-2.09375 3.3125L5.57813-1.79687h-.04688l-.67187-3.35938c-.25-1.09375-.5-2.125-.70313-3.21875H1.8125l-.07812.35938.71875.0625c.20312.01562.29687.10937.29687.3125 0 .07812 0 .17187-.03125.28125L1.57813-2.40625c-.15626.64063-.29688 1.10938-.4375 1.5C1-.51562.78125-.42187.4375-.39062l-.375.04687Zm0 0"/><path id="b" d="M-.23437 0H2.5l.07813-.34375-.67188-.0625C1.75-.42187 1.6875-.5 1.6875-.625c0-.0625.03125-.14062.0625-.23437.40625-.78125.78125-1.5625 1.23438-2.375h2.71875L6-.73437s-.0625.29687-.32812.32812l-.64063.0625L4.96875 0H7.9375l.07813-.34375-.45313-.04687c-.375-.03125-.4375-.20313-.5-.70313L6.1875-8.375h-.875L3.28125-4.79687c-.60937 1.07812-1.625 2.875-2.07812 3.59375C.82813-.5625.625-.4375.25-.40625l-.40625.0625Zm3.46875-3.6875L5.20313-7.25l.4375 3.5625Zm0 0"/><path id="c" d="M0 0h3.3125l.07813-.34375-.71875-.0625c-.21875-.01562-.3125-.10937-.3125-.29687 0-.07813.01562-.1875.04687-.29688l.65625-2.9375h.73438c1.17187 0 1.34375.28125 1.34375 1.70313C5.14063-.76562 5.14063 0 6.40625 0h.95313l.10937-.34375C6.625-.46875 6.32813-.5 6.32813-2.0625c0-1.23437-.10938-1.76562-1.10938-2.09375 1.46875-.20312 2.48438-1.07812 2.48438-2.26562 0-.85938-.375-1.95313-2.64063-1.95313H1.79688l-.07813.35938.71875.04687c.20313.01563.29688.10938.29688.32813q0 .09375-.04688.28125L1.23438-1c-.09376.42188-.20313.54688-.5.57813L.0625-.34375Zm3.17188-4.35937L3.875-7.5c.09375-.34375.125-.45312 1.04688-.45312.78125 0 1.51562.34375 1.51562 1.40625 0 1.4375-.9375 2.1875-2.5 2.1875Zm0 0"/><path id="d" d="M0 0h3.3125l.07813-.34375-.71875-.0625c-.21875 0-.29688-.125-.29688-.3125 0-.07812 0-.1875.03125-.28125l.76563-3.35937h.01562c.5625 1.125 1.15625 2.34375 1.89063 3.34375C5.65625-.23437 6.1875.03124 7.10938.04688l.59375.01562.09375-.35937C7.09375-.35937 6.8125-.6875 6.375-1.21875c-.8125-1.01562-1.64062-2.48437-2.14062-3.5625 1.09375-.90625 2.09375-1.75 3.20312-2.51562.70313-.5.98438-.65625 1.96875-.71875l.04688-.35938H6.4375l-.04687.35938.45312.03125c.14063.01562.17188.0625.17188.14062 0 .0625-.0625.15625-.17188.26563L3.25-4.5h-.04687l.64062-2.85937c.09375-.375.21875-.57813.51563-.60938l.67187-.04687.07813-.35938h-3.3125l-.07813.35938.71875.04687c.20313.01563.29688.14063.29688.32813q0 .11718-.04688.28125L1.23438-1c-.09376.375-.20313.54688-.5.57813L.0625-.34375Zm0 0"/></defs><use xlink:href="#a" x="84.91285" y="12.65754"/><use xlink:href="#b" x="4.6908" y="58.02291"/><use xlink:href="#c" x="86.6373" y="103.38729"/><use xlink:href="#d" x="168.62257" y="57.99011"/><path fill="none" stroke="#000" stroke-miterlimit="10" stroke-width=".39608" d="m90.8086 17.20705-73.2695 36.6328m0-.00001 73.2695 36.6328m0 0 73.26559-36.6328m0 0-73.2656-36.6328"/><path fill="none" stroke="#007f7f" stroke-dasharray="2.9706579136 2.9706579136" stroke-miterlimit="10" stroke-width=".39608" d="M90.8086 17.20705v73.26559m-73.2695-36.6328h146.53509"/><path fill="none" stroke="red" stroke-miterlimit="10" stroke-width=".39608" d="m53.07424 32.75782 2.21484 5.53516M52.62892 74.6992l3.10156-5.09374m72.80857 5.31641-2.21485-5.53516m2.66016-36.40623-3.09766 5.09375"/></svg>