<svg xmlns="http://www.w3.org/2000/svg" xmlns:xlink="http://www.w3.org/1999/xlink" width="217.816pt" height="176.544pt" viewBox="0 0 217.816 176.544"><defs><path id="a" d="m1.75-1.3125.51563.5L4.375-2.9375l2.10938 2.125.5-.5L4.875-3.42187l2.10938-2.125-.5-.48438L4.375-3.92187 2.26563-6.03125 1.75-5.54687l2.125 2.125Zm0 0"/><path id="b" d="M-.23437 0H2.5l.07813-.34375-.67188-.0625C1.75-.42187 1.6875-.5 1.6875-.625c0-.0625.03125-.15625.0625-.23437.40625-.78125.79688-1.5625 1.25-2.39063h2.71875l.29688 2.51563s-.0625.29687-.3125.32812l-.65625.0625L4.98438 0h2.98437l.07813-.34375-.46875-.04687c-.375-.03125-.42188-.20313-.48438-.70313l-.89062-7.3125h-.85938L3.29688-4.8125c-.625 1.07813-1.625 2.89063-2.07813 3.60938C.82813-.5625.625-.4375.25-.40625l-.40625.0625ZM3.25-3.70312l1.96875-3.57813.4375 3.57813Zm0 0"/><path id="c" d="M0 0h3.6875c2.92188 0 3.51563-1.51562 3.51563-2.51562 0-1.28125-.9375-1.84375-1.82813-2l.01563-.03125C7-4.75 7.6875-5.65625 7.6875-6.57812c0-.98438-.57812-1.82813-2.8125-1.82813H1.79688l-.07813.35938.71875.0625c.21875.01562.29688.10937.29688.29687 0 .07813-.01563.1875-.04688.29688L1.25-1.01562c-.09375.40625-.20312.54687-.5.59375l-.6875.07812Zm2.42188-.9375c0-.07812.01562-.17187.04687-.26562l.70313-3.10938h.46875c1.20312 0 2.26562.34375 2.26562 1.73438C5.90625-1.5 5.25-.42187 3.625-.42187c-.96875 0-1.20312-.20313-1.20312-.51563M3.25-4.75l.64063-2.8125c.09375-.35937.15625-.42187.96875-.42187 1.01562 0 1.59375.51562 1.59375 1.375 0 1.26562-1.0625 1.85937-2.40625 1.85937Zm0 0"/><path id="d" d="M.26563 0h3.3125l.07812-.34375-.71875-.0625c-.21875 0-.29687-.125-.29687-.3125 0-.07812.01562-.1875.03125-.29687l1.45312-6.375c.09375-.375.20313-.57813.51563-.60938l.67187-.04687.07813-.35938H2.0625l-.07812.35938L2.70313-8C2.90625-7.98437 3-7.85937 3-7.65625c0 .07813-.01562.15625-.04687.26563L1.5-1.01562c-.09375.39062-.20312.5625-.5.59375l-.67187.07812Zm0 0"/><clipPath id="e"><path d="M.1875 35H190v104H.1875Zm0 0"/></clipPath><clipPath id="f"><path d="M.1875 0h217.25781v176.08984H.1875Zm0 0"/></clipPath></defs><use xlink:href="#a" x="14.39911" y="126.71371"/><use xlink:href="#b" x="5.86914" y="119.13329"/><use xlink:href="#a" x="161.44929" y="53.18862"/><use xlink:href="#c" x="170.38022" y="63.13293"/><use xlink:href="#a" x="98.95371" y="84.43691"/><use xlink:href="#d" x="107.88365" y="76.85649"/><g clip-path="url(#e)"><path fill="none" stroke="#000" stroke-miterlimit="10" stroke-width=".39747" d="m.38671 132.88672 183.7813-91.89065"/></g><g clip-path="url(#f)"><path fill="none" stroke="#000" stroke-miterlimit="10" stroke-width=".39747" d="m4.79687.19919 212.44928 175.69145"/></g></svg>