<svg xmlns="http://www.w3.org/2000/svg" xmlns:xlink="http://www.w3.org/1999/xlink" width="130.771pt" height="54.405pt" viewBox="0 0 130.771 54.405"><defs><path id="a" d="M1.03125-3.39062c0 2.71875.625 5.70312 3.17188 5.79687v-.35937C3.34375 1.89063 2 .8125 2-3.39062c0-4.1875 1.28125-5.26563 2.20313-5.45313v-.35937c-2.54688.10937-3.17188 3.09375-3.17188 5.8125m0 0"/><path id="b" d="M.89063-1.45312c0 .78125.23437 1.59375 1.20312 1.59375 1.39063 0 2.46875-1.46875 3.17188-2.76563h.03125l-.40625 1.4375c-.0625.23438-.09375.45313-.09375.64063 0 .4375.20312.6875.625.6875C6.375.14063 7-.67187 7.40625-1.59375L7.125-1.75c-.21875.42188-.75 1.26563-1.09375 1.26563-.14062 0-.1875-.09375-.1875-.23438 0-.10937.03125-.25.07813-.42187L7.8125-8.875 7.75-8.9375l-2.14062.28125-.0625.29688.71875.0625c.1875 0 .26562.0625.26562.20312 0 .0625-.01562.15625-.04687.29688L6.01563-5.875 6-5.84375c-.23437-.10937-.60937-.20312-1.01562-.20312-2.8125 0-4.09375 3.14062-4.09375 4.59375m1.20312.10937c0-1.3125 1.04688-4.28125 2.96875-4.28125.375 0 .6875.10938.82813.25-.17188.92188-.57813 2.0625-1.1875 3.0625-.57813.92188-1.375 1.82813-2.01563 1.82813-.375 0-.59375-.32813-.59375-.85938m0 0"/><path id="d" d="M.71875 2.04688v.35937C3.26563 2.3125 3.875-.67187 3.875-3.39062S3.26563-9.09375.71875-9.20312v.35937c.92188.1875 2.20313 1.26563 2.20313 5.45313 0 4.20312-1.34375 5.28125-2.20313 5.4375m0 0"/><path id="c" d="M.92188 0h2.8125v-.26562l-.67188-.0625c-.1875-.01563-.26562-.07813-.26562-.39063V-5.6875l-.0625-.04687-1.8125.3125v.21875l.73437.09375c.15625.03125.20313.09375.20313.35937v4.03125c0 .3125-.07813.375-.26563.39063l-.67187.0625Zm0 0"/><path id="e" d="M.23438-.09375.34375 0h3.5625l.3125-1.20312-.25-.04688c-.20312.45313-.35937.51563-.6875.51563H1.125c.125-.40625.57813-.96875 1.39063-1.51563.85937-.57812 1.46875-.96875 1.46875-1.89062 0-1.17188-.79688-1.59375-1.73438-1.59375-1.14062 0-1.79687.67187-1.79687 1.17187 0 .3125.34375.45313.53125.45313.15624 0 .23437-.09375.26562-.25.14063-.59375.45313-1.0625.95313-1.0625.59375 0 .78125.51562.78125 1.125 0 .8125-.375 1.35937-1.15625 2.03125C.75-1.34375.375-.71875.23438-.09375m0 0"/><clipPath id="f"><path d="M58 0h71.94922v39H58Zm0 0"/></clipPath></defs><use xlink:href="#a" x="4.86439" y="25.65839"/><use xlink:href="#b" x="9.78394" y="25.65839"/><use xlink:href="#c" x="16.57412" y="28.47716"/><use xlink:href="#d" x="21.8889" y="25.65839"/><use xlink:href="#a" x="68.66662" y="46.72796"/><use xlink:href="#b" x="73.58616" y="46.72796"/><use xlink:href="#e" x="80.37635" y="49.54673"/><use xlink:href="#d" x="85.69241" y="46.72796"/><path fill="none" stroke="#000" stroke-miterlimit="10" stroke-width=".39419" d="M31.33594 33.0039 96.94923.1953"/><g clip-path="url(#f)"><path fill="none" stroke="#000" stroke-miterlimit="10" stroke-width=".39419" d="M64.14063 33.0039 129.75393.1953"/></g></svg>