<svg xmlns="http://www.w3.org/2000/svg" xmlns:xlink="http://www.w3.org/1999/xlink" width="165.355pt" height="112.568pt" viewBox="0 0 165.355 112.568"><defs><path id="a" d="M1.04688-3.42187c0 2.73437.625 5.75 3.1875 5.84375V2.0625C3.375 1.89063 2.01563.82813 2.01563-3.42187c0-4.21875 1.28125-5.29688 2.21875-5.48438v-.35937c-2.5625.10937-3.1875 3.10937-3.1875 5.84375m0 0"/><path id="b" d="M.90625-1.45312c0 .78125.23438 1.59375 1.20313 1.59375 1.40625 0 2.48437-1.48438 3.1875-2.78125h.03125l-.39063 1.4375c-.07812.25-.10937.46875-.10937.64062 0 .45313.20312.70313.625.70313.96875 0 1.59375-.82813 2-1.73438l-.28125-.17187c-.21875.42187-.75 1.28125-1.09375 1.28125-.14063 0-.1875-.09375-.1875-.23438 0-.125.03125-.26562.07812-.4375L7.875-8.9375 7.8125-9l-2.15625.28125-.0625.29688.71875.0625c.1875.01562.26563.0625.26563.20312 0 .0625-.01563.17188-.04688.29688L6.0625-5.90625l-.01562.01563C5.8125-6 5.4375-6.09375 5.01563-6.09375 2.1875-6.09375.90625-2.9375.90625-1.45312m1.20313.09374c0-1.3125 1.04687-4.3125 2.98437-4.3125.375 0 .70313.125.84375.25-.1875.9375-.57812 2.07813-1.20312 3.07813-.57813.95313-1.375 1.85938-2.03125 1.85938-.375 0-.59375-.32813-.59375-.875m0 0"/><path id="d" d="M.71875 2.0625v.35938c2.57813-.09375 3.1875-3.10938 3.1875-5.84375S3.29688-9.15625.71875-9.26562v.35937c.9375.1875 2.21875 1.26563 2.21875 5.48438 0 4.25-1.34375 5.3125-2.21875 5.48437m0 0"/><path id="c" d="m.17188-1.70312.09375.1875h2.28125v.85937c0 .28125-.09375.32813-.28125.34375l-.54688.04688V0h2.32813v-.26562L3.65625-.3125c-.17187-.01562-.25-.0625-.25-.34375v-.85937h.875v-.4375h-.875v-3.71875H2.6875C1.875-4.46875.95313-3.03125.17188-1.70312m.6875-.25c.48437-.875 1.0625-1.84375 1.6875-2.82813v2.82813Zm0 0"/><path id="e" d="M.92188 0h2.84375v-.26562l-.67188-.0625c-.1875-.01563-.28125-.07813-.28125-.39063v-5L2.75-5.76562l-1.8125.29687v.23438l.71875.09375c.17188.03125.21875.09375.21875.35937v4.0625c0 .3125-.07812.375-.28125.39063l-.67187.0625Zm0 0"/><path id="f" d="M.25-.09375.34375 0H3.9375L4.25-1.20312 3.98438-1.25c-.1875.45313-.34375.51563-.6875.51563H1.125c.14063-.40625.59375-.98438 1.40625-1.53125.85938-.57813 1.48438-.98438 1.48438-1.90625 0-1.1875-.8125-1.59375-1.75-1.59375-1.15625 0-1.8125.65625-1.8125 1.17187 0 .3125.34375.45313.53125.45313.15624 0 .25-.09375.28124-.25.14063-.59375.45313-1.0625.95313-1.0625.59375 0 .78125.51562.78125 1.125C3-3.5 2.625-2.96875 1.82813-2.28125.75-1.34375.375-.73437.25-.09375m0 0"/><path id="g" d="M.23438-.90625c0 .35938.5625 1 1.84375 1 1.26562 0 2.04687-.60937 2.04687-1.6875 0-1.15625-1-1.46875-1.4375-1.51562v-.03125c.46875-.07813 1.20313-.42188 1.20313-1.25 0-.98438-.8125-1.375-1.71875-1.375-1.09375 0-1.71875.59375-1.71875 1.03125 0 .29687.32812.4375.48437.4375.125 0 .1875-.07813.23438-.20313.1875-.59375.48437-.95312.9375-.95312.64062 0 .79687.59375.79687 1.04687 0 .45313-.15625 1.14063-.84375 1.14063-.39062 0-.64062-.07813-.76562-.07813s-.17188.09375-.17188.25c0 .17188.04688.26563.17188.26563s.375-.09375.76562-.09375c.64063 0 1.04688.54687 1.04688 1.35937 0 .96875-.4375 1.34375-1.01563 1.34375-.51562 0-.875-.39062-1.0625-.9375-.04687-.15625-.14062-.25-.26562-.25-.20313 0-.53125.17188-.53125.5m0 0"/></defs><use xlink:href="#a" x="4.30023" y="97.60382"/><use xlink:href="#b" x="9.25425" y="97.60382"/><use xlink:href="#c" x="16.09203" y="100.44235"/><use xlink:href="#d" x="21.44405" y="97.60382"/><use xlink:href="#a" x="93.33593" y="13.56663"/><use xlink:href="#b" x="98.28995" y="13.56663"/><use xlink:href="#e" x="105.12773" y="16.40386"/><use xlink:href="#d" x="110.47975" y="13.56663"/><use xlink:href="#a" x="138.31448" y="31.51761"/><use xlink:href="#b" x="143.2685" y="31.51761"/><use xlink:href="#f" x="150.10628" y="34.35613"/><use xlink:href="#d" x="155.4583" y="31.51761"/><use xlink:href="#a" x="138.31448" y="104.89638"/><use xlink:href="#b" x="143.2685" y="104.89638"/><use xlink:href="#g" x="150.10628" y="107.73491"/><use xlink:href="#d" x="155.4583" y="104.89638"/><path fill="none" stroke="#000" stroke-miterlimit="10" stroke-width=".39695" d="M30.95703 94.39063V20.96097m-7.34374 7.34375h110.14447m-29.37107-7.34375v88.11715m29.37107-7.34375H60.32811"/></svg>