<svg xmlns="http://www.w3.org/2000/svg" width="61.652pt" height="61.652pt" viewBox="0 0 61.652 61.652"><defs><clipPath id="a"><path d="M49 24h12.30469v13H49Zm0 0"/></clipPath><clipPath id="b"><path d="M24 49h13v12.30469H24Zm0 0"/></clipPath></defs><path fill="none" stroke="red" stroke-miterlimit="10" stroke-width=".39626" d="M3.17187 50.8086H10.5v7.32812m40.3164 0v-7.32813h7.33203m0-40.3203H50.8164V3.16016m-40.3164 0v7.32813H3.17187"/><path fill="none" stroke="#000" stroke-miterlimit="10" stroke-width=".39626" d="M3.17187 3.16016v54.97656m0 0h54.97656m0 0V3.16016m0 0H3.17187"/><path fill="none" stroke="red" stroke-miterlimit="10" stroke-width=".39626" d="m.19922 30.40625 5.9414.4961"/><g clip-path="url(#a)"><path fill="none" stroke="red" stroke-miterlimit="10" stroke-width=".39626" d="m61.10937 30.90235-5.94531-.4961"/></g><g clip-path="url(#b)"><path fill="none" stroke="red" stroke-miterlimit="10" stroke-width=".39626" d="m30.40625 61.10937.4961-5.9453"/></g><path fill="none" stroke="red" stroke-miterlimit="10" stroke-width=".39626" d="m30.40625 6.14063.4961-5.9414"/></svg>