<svg xmlns="http://www.w3.org/2000/svg" xmlns:xlink="http://www.w3.org/1999/xlink" width="138.143pt" height="137.61pt" viewBox="0 0 138.143 137.61"><defs><path id="c" d="M8.01563-8.1875c.36328 0 .71093.04688 1.04687.14063.34375.09375.66406.25.96875.46875.3125.21875.55469.53125.73438.9375.17578.40625.26562.89843.26562 1.46875 0 .875-.10937 1.74218-.32812 2.59375-.21875.84375-.5 1.55859-.84375 2.14062C9.52343.13281 9.16016.59766 8.76563.95313 8.3789 1.3164 8.01953 1.5 7.6875 1.5c-.35547 0-.67187-.0586-.95312-.17187-.28125-.10547-.52344-.15626-.71875-.15626-.1875 0-.42188.05079-.70313.15626-.28125.11328-.60156.17187-.95312.17187-.33594 0-.69922-.1836-1.09375-.54687C2.8789.59766 2.51563.1328 2.17188-.4375c-.33594-.58203-.60938-1.29687-.82813-2.14062-.21875-.85157-.32812-1.71875-.32812-2.59375 0-.57032.08593-1.0625.26562-1.46875.17578-.40625.41406-.71875.71875-.9375.3125-.21875.63281-.375.96875-.46875.34375-.09375.69531-.14063 1.0625-.14063.32031 0 .64844.0586.98438.17188.34375.10546.67578.15625 1 .15625.33203 0 .66406-.05079 1-.15625.34375-.11329.67578-.17188 1-.17188m0 0"/><path id="d" d="M6.35938-8.1875q.0117-.04687.04687-.09375l.1875-.1875c.09375-.09375.1875-.17578.28125-.25.10156-.08203.23828-.17578.40625-.28125.16406-.10156.32813-.1914.48438-.26562.16406-.08204.35937-.14454.57812-.1875.22656-.05079.45703-.07813.6875-.07813.39453 0 .75781.0586 1.09375.17188.34375.10546.58203.21484.71875.32812l.1875.15625c-.03125.03125-.07812.07422-.14062.125q-.09375.06446-.375.23438c-.1875.10546-.375.20312-.5625.29687-.1797.09375-.38672.17969-.625.25-.23047.07422-.4375.10938-.625.10938-.29297 0-.63672-.02344-1.03125-.07813q-.59766-.07617-.9375-.1875Zm0 0"/><path id="e" d="M6.26563-7.29687c-.0625.0625-.14844.09375-.25.09375q-.14063 0-.23438-.09375t-.09375-.23438c0-1.20703.36719-2.17969 1.10938-2.92187q.23438-.23437.46875 0c.15625.15625.15625.3203 0 .48437-.60547.60547-.90625 1.41797-.90625 2.4375q0 .14063-.09375.23438m0 0"/><path id="f" d="M.28125-.10937.39063 0h4.09375l.35937-1.375-.29687-.0625c-.21875.51563-.39063.59375-.78125.59375H1.28125c.15625-.46875.67188-1.10937 1.60938-1.73437C3.875-3.25 4.57813-3.70312 4.57813-4.75c0-1.35937-.92188-1.82812-2-1.82812-1.3125 0-2.0625.76562-2.0625 1.34375 0 .35937.40625.51562.60937.51562.1875 0 .28125-.09375.3125-.28125.15625-.6875.51563-1.21875 1.07813-1.21875.6875 0 .90625.59375.90625 1.28125C3.42188-4 3-3.375 2.09375-2.59375.85938-1.53125.42188-.82812.28125-.10937m0 0"/><path id="g" d="M.40625-3.03125c0 2.0625.71875 3.14063 2.26563 3.14063 1.51562 0 2.26562-.90625 2.26562-2.1875 0-1.3125-.82812-2.03125-1.85937-2.03125-.73438 0-1.28125.46875-1.5625.82812.01562-1.79687.48437-2.9375 1.375-2.9375.42187 0 .71875.375.875.95313.04687.125.14062.23437.29687.23437.23438 0 .57813-.17187.57813-.48437 0-.40625-.5-1.0625-1.70313-1.0625-1.5625 0-2.53125 1.1875-2.53125 3.54687m1.10938.75c0-.57812.40625-1.26562 1.17187-1.26562.59375 0 1.14063.53125 1.14063 1.625 0 1-.34375 1.67187-1.125 1.67187-.79688 0-1.1875-.90625-1.1875-2.03125m0 0"/><path id="h" d="M.39063-3.23437c0 1.89062.57812 3.34375 2.21875 3.34375 1.65625 0 2.23437-1.45313 2.23437-3.34375 0-1.89063-.57812-3.34375-2.23437-3.34375C.96875-6.57812.39063-5.125.39063-3.23437m1.10937 0c0-1.46875.23438-2.98438 1.10938-2.98438.89062 0 1.125 1.51563 1.125 2.98438S3.5-.25 2.60938-.25C1.73438-.25 1.5-1.76562 1.5-3.23437m0 0"/><path id="j" d="M.375-1.78125c0 1.09375.75 1.89063 2.23438 1.89063 1.51562 0 2.23437-.79688 2.23437-1.89063 0-.95312-.57812-1.53125-1.26562-1.70312.57812-.15625 1.04687-.65625 1.04687-1.42188 0-1.07812-.82812-1.67187-2.01562-1.67187-1.17188 0-2.01563.60937-2.01563 1.67187 0 .76563.51563 1.26563 1.07813 1.42188C.98438-3.3125.375-2.73437.375-1.78125M1.5-1.75c0-.85937.39063-1.5 1.10938-1.5.73437 0 1.125.64063 1.125 1.5 0 .85938-.35938 1.5-1.125 1.5C1.85938-.25 1.5-.89062 1.5-1.75m.17188-3.1875c0-.73437.32812-1.28125.9375-1.28125.625 0 .95312.54688.95312 1.28125 0 .67188-.29687 1.29688-.95312 1.29688-.625 0-.9375-.625-.9375-1.29688m0 0"/><path id="i" d="M.40625.92188c0 .98437.96875 1.42187 2.09375 1.42187.57813 0 1.1875-.125 1.65625-.39062.4375-.28126.76563-.73438.76563-1.32813 0-1.0625-.82813-1.42187-1.875-1.42187h-.76563c-.70312 0-.8125-.23438-.8125-.42188 0-.28125.375-.42187.5-.46875.1875.01563.39063.03125.5.03125.90625 0 1.95313-.40625 1.95313-1.57812 0-.40625-.14063-.73438-.29688-.90625l.76563-.125.20312-.60938L5-4.95312l-1.23437.39062c-.26563-.1875-.8125-.29687-1.25-.29687-1.48438 0-2 .90625-2 1.625 0 .90625.59375 1.32812 1.04687 1.4375v.03124c-.53125.20313-.89062.48438-.89062.85938 0 .34375.39062.70313.85937.75v.01563C1.10938 0 .40625.21875.40625.92188m.92188-.03126c0-.32812.09374-.57812.29687-.73437.21875-.17187.53125-.23437 1-.23437.85938 0 1.48438.21875 1.48438.9375 0 .78125-.70313 1.15625-1.39063 1.15625-.82812 0-1.39062-.4375-1.39062-1.125M1.5-3.23437c0-.95312.5-1.28125 1.01563-1.28125.46875 0 .96875.34375.96875 1.28125C3.48438-2.42187 3.0625-2 2.5-2c-.54687 0-1-.42187-1-1.23437m0 0"/><clipPath id="a"><path d="M0 0h129v129H0z"/></clipPath><g id="b" clip-path="url(#a)"><path fill="#009688" d="M100.1836 51.9961H29.63671c-2.33594 0-2.33594-3.50782 0-3.50782h70.54687c2.33594 0 2.33594 3.50781 0 3.50781m0 0"/><path fill="#ffd92e" d="M60.90625 58.32031h8.01172V68.4961h-8.01172Zm0 0"/><path fill="#4d5e80" d="M47.88672 91.47266h34.04687v7.1875H47.88672Zm0 0"/><path fill="#ffd92e" d="m34.64453 41.23438-2.0039 12.67187H26.6328l-2-12.67187Zm70.54687 0-2.0039 12.67187h-6.00781l-2.0039-12.67187Zm0 0"/><path fill="#009688" d="M86.9414 91.47266H42.8789l3.4297-19.66016c.33203-1.91797 2-3.3164 3.9453-3.3164h29.3125c1.94922 0 3.61329 1.39843 3.94922 3.3164Zm0 0"/><path fill="#e6f8fc" d="M73.92188 50.2461c0 4.97656-4.03516 9.01171-9.01172 9.01171s-9.01172-4.03515-9.01172-9.01172c0-4.97656 4.03515-9.01172 9.01172-9.01172 4.97656 0 9.01171 4.03516 9.01171 9.01172m0 0"/><path fill="#4d5e80" d="M7.83203 30.5664h43.61328v6.66016c0 2.21485-1.79297 4.00782-4.00781 4.00782H11.83594c-2.21094 0-4.0039-1.79297-4.0039-4.00782Zm70.54687 0h43.61329v6.66016c0 2.21485-1.79297 4.00782-4.00781 4.00782H82.3828c-2.21094 0-4.0039-1.79297-4.0039-4.00782Zm0 0"/><path fill="#b1d1f0" d="M64.91016 51.9961c-1.5586 0-2.33985-1.88672-1.23829-2.9922l2.38672-2.38671c1.65235-1.65235 4.12891.82812 2.47657 2.48047l-2.38672 2.3828c-.32813.33204-.77344.51563-1.23828.51563m0 0"/></g></defs><use xlink:href="#b" transform="translate(4 4)"/><use xlink:href="#c" x="4.29038" y="33.25912" fill="#dd2e44"/><use xlink:href="#d" x="4.29038" y="33.25912" fill="#77b255"/><use xlink:href="#e" x="4.29038" y="33.25912" fill="#662113"/><use xlink:href="#c" x="15.27722" y="33.25912" fill="#dd2e44"/><use xlink:href="#d" x="15.27722" y="33.25912" fill="#77b255"/><use xlink:href="#e" x="15.27722" y="33.25912" fill="#662113"/><use xlink:href="#c" x="26.26406" y="33.25912" fill="#dd2e44"/><use xlink:href="#d" x="26.26406" y="33.25912" fill="#77b255"/><use xlink:href="#e" x="26.26406" y="33.25912" fill="#662113"/><use xlink:href="#f" x="42.83228" y="32.42768"/><use xlink:href="#g" x="48.05299" y="32.42768"/><use xlink:href="#h" x="53.2737" y="32.42768"/><use xlink:href="#i" x="60.66684" y="32.42768"/><use xlink:href="#g" x="94.1042" y="32.42768"/><use xlink:href="#j" x="99.32492" y="32.42768"/><use xlink:href="#h" x="104.54563" y="32.42768"/><use xlink:href="#i" x="111.94006" y="32.42768"/></svg>