<svg xmlns="http://www.w3.org/2000/svg" xmlns:xlink="http://www.w3.org/1999/xlink" width="623.406pt" height="186.892pt" viewBox="0 0 623.406 186.892"><defs><path id="a" d="M.53125-3.73437c0 1.28125.375 2.3125 1.03125 2.96875.67188.67187 1.75.92187 2.98438.92187.85937 0 1.875-.23437 2.40625-.51562l.14062-1.82813h-.3125c-.3125 1.14063-.875 1.96875-2.3125 1.96875-2.25 0-2.71875-2.21875-2.71875-3.54687 0-1.78125.70313-3.59375 2.75-3.59375 1.10938 0 1.89063.46875 2.09375 1.76562h.32813V-7.3125c-.48438-.23437-1.3125-.42187-2.3125-.42187-1.34375 0-2.4375.39062-3.07813 1.125-.64062.70312-1 1.64062-1 2.875m0 0"/><path id="b" d="M.53125-1.42187c0 .8125.54688 1.54687 1.57813 1.54687.64062 0 1.28125-.42187 1.625-.65625.15625.42188.34375.65625.71875.65625.40625 0 .875-.10937 1.29687-.32812l-.0625-.25c-.15625.03125-.40625.04687-.5625 0-.20312-.04688-.39062-.25-.39062-.9375v-2.65625c0-.625-.14063-1.45313-1.79688-1.45313-1.21875 0-2.20312.64063-2.20312 1.25 0 .34375.40625.51563.60937.51563.23438 0 .29688-.125.35938-.3125.23437-.8125.6875-1.0625 1.125-1.0625S3.75-4.89062 3.75-4.01562v.45312c-.28125.28125-1.34375.5625-2.20312.84375C.75-2.48437.53125-1.9375.53125-1.42187m1.10938-.15626c0-.5.23437-.76562.84375-1C2.9375-2.75 3.5-2.95312 3.75-3.10937v1.54688c0 .89063-.67187 1.10938-1.10937 1.10938-.67188 0-1-.48438-1-1.125m0 0"/><path id="c" d="M.34375 0h2.89063v-.3125C2.26563-.375 2.20313-.39062 2.20313-.95312v-2.5625c0-.84375.375-1.125.625-1.125.17187 0 .35937.0625.67187.23437.07813.04688.17188.0625.21875.0625.28125 0 .5-.28125.5-.60937 0-.25-.14062-.54688-.57812-.54688-.39063 0-.71875.23438-1.4375.875l-.125-.875-1.67188.28125v.26563l.40625.0625c.28125.04687.35938.09375.35938.48437v3.45313c0 .5625-.04688.57812-.82813.64062Zm0 0"/><path id="d" d="m2.20313-6.14062.15625.21875 1.65625-.92188c.32812-.17187.625-.35937.625-.59375 0-.21875-.28125-.48437-.4375-.48437-.1875 0-.375.125-.70313.45312Zm-1.67188 3.5c0 1.73437.75 2.76562 2.53125 2.76562 1.20313 0 1.84375-.67187 2.125-1.53125l-.32812-.17187C4.5625-.9375 4.14063-.4375 3.28125-.4375c-1.35937 0-1.625-1.29687-1.60937-2.4375h3.15625c.23437 0 .4375-.0625.4375-.42187C5.26563-3.9375 5.04688-5.5 3.04688-5.5 1.34375-5.5.53125-4.28125.53125-2.64062m1.15625-.65625c0-.45313.15625-1.8125 1.29688-1.8125C4-5.10937 4.125-4.07812 4.125-3.64062c0 .20312-.07812.34375-.375.34375Zm0 0"/><path id="e" d="M.53125-2.57812c0 1.625.85938 2.70312 2.29688 2.70312.59375 0 1.09375-.26562 1.6875-.73437v.53125L4.60938 0H6.375v-.3125c-.78125-.0625-.8125-.07812-.8125-.64062V-8.0625l-.07812-.04687-1.71875.26562v.28125l.40625.03125c.28125.03125.35937.09375.35937.51563v1.78125C4.21875-5.39062 3.8125-5.5 3.3125-5.5c-.89062 0-1.5625.29688-2.01562.76563C.82813-4.25.53125-3.53125.53125-2.57812m1.14063-.125c0-1.42188.51562-2.40625 1.64062-2.40625.5 0 .92188.23437 1.125.6875.09375.1875.09375.34375.09375.64062v1.92188c0 .23437 0 .42187-.07812.60937-.21875.57813-.6875.79688-1.26563.79688-1 0-1.51562-.98438-1.51562-2.25m0 0"/><path id="f" d="M.53125-2.64062c0 1.73437.75 2.76562 2.53125 2.76562 1.20313 0 1.84375-.67187 2.125-1.53125l-.32812-.17187C4.5625-.9375 4.14063-.4375 3.28125-.4375c-1.35937 0-1.625-1.29687-1.60937-2.4375h3.15625c.23437 0 .4375-.0625.4375-.42187C5.26563-3.9375 5.04688-5.5 3.04688-5.5 1.34375-5.5.53125-4.28125.53125-2.64062m1.15625-.65625c0-.45313.15625-1.8125 1.29688-1.8125C4-5.10937 4.125-4.07812 4.125-3.64062c0 .20312-.07812.34375-.375.34375Zm0 0"/><path id="g" d="M.34375-4.92187H1.125V-1.125c0 1.125.82813 1.25 1.21875 1.25.5625 0 1.07813-.28125 1.39063-.46875l-.07813-.23437c-.26562.09374-.5.14062-.78125.14062-.375 0-.71875-.26562-.71875-1.09375v-3.39062H3.5625v-.4375H2.15625v-1.375h-.3125l-.67187 1.375H.34375Zm0 0"/><path id="h" d="M1-7.15625c0 .39063.28125.67188.67188.67188.40625 0 .67187-.28125.67187-.67188 0-.40625-.26562-.67187-.67187-.67187-.39063 0-.67188.26562-.67188.67187M.34375 0h2.67188v-.3125c-.78125-.0625-.8125-.07812-.8125-.64062v-4.46875L2.125-5.5l-1.71875.28125v.26563l.40625.0625c.28125.04687.35938.09375.35938.48437v3.45313c0 .5625-.03126.57812-.82813.64062Zm0 0"/><path id="i" d="M.21875 0h2.67188v-.3125c-.78125-.0625-.8125-.07812-.8125-.64062V-8.0625l-.09375-.04687-1.70313.26562v.28125l.40625.03125c.28125.03125.34375.09375.34375.51563v6.0625c0 .5625-.01562.57812-.8125.64062Zm0 0"/><path id="j" d="M1.1875 0h3.59375v-.3125l-.92187-.07812C3.625-.42187 3.5-.5 3.5-.9375V-7.375l-.04687-.0625-2.26563.39063v.26562l1.03125.125c.17188.01563.25.10938.25.42188V-.9375c0 .21875-.03125.34375-.09375.42188s-.15625.10937-.26562.125L1.1875-.3125Zm0 0"/><path id="k" d="M.29688-.10937.40625 0H4.9375l.375-1.4375L5-1.5c-.23437.59375-.45312.67188-.89062.67188H1.3125c.17188-.5625.82813-1.34375 1.84375-2.07813 1.04688-.76562 1.85938-1.26562 1.85938-2.48437C5.01563-6.92187 4-7.4375 2.85938-7.4375c-1.51563 0-2.28125.90625-2.28125 1.48438 0 .35937.42187.54687.60937.54687.20313 0 .26563-.125.3125-.3125.17188-.73437.60938-1.32812 1.28125-1.32812.84375 0 1.07813.6875 1.07813 1.5 0 1.17187-.59375 1.82812-1.54688 2.67187C.96875-1.70312.5-.95312.29688-.10937m0 0"/><path id="l" d="M.29688-1.125c0 .46875.75 1.25 2.29687 1.25 1.57813 0 2.59375-.79687 2.59375-2.20312 0-1.45313-1.26562-1.89063-1.875-1.95313v-.04687c.59375-.09375 1.54688-.53125 1.54688-1.60938 0-1.21875-.95313-1.75-2.125-1.75-1.4375 0-2.15625.84375-2.15625 1.29688 0 .34375.39062.53125.54687.53125.125 0 .21875-.07813.26563-.21875.23437-.75.64062-1.21875 1.26562-1.21875.85938 0 1.07813.75 1.07813 1.35937 0 .65625-.23438 1.48438-1.15625 1.48438-.53125 0-.82813-.10938-.95313-.10938-.14062 0-.20312.10938-.20312.3125 0 .1875.0625.29688.20312.29688.125 0 .42188-.10938.95313-.10938.92187 0 1.45312.84375 1.45312 1.79688C4.03125-.70312 3.39063-.25 2.60938-.25c-.71875 0-1.20313-.54687-1.40625-1.15625-.07813-.21875-.17188-.3125-.32813-.3125-.20312 0-.57812.20313-.57812.59375m0 0"/><path id="w" d="M.45313-5.78125H.75L.84375-6c.14063-.3125.29688-.46875.78125-.46875h2.96875c-.10937.39063-.32812 1.01563-1.20312 2.29688-.95313 1.34375-1.5625 2.5625-1.5625 3.85937 0 .35938.25.4375.59375.4375.3125 0 .54687-.09375.53125-.40625-.04688-1.4375.23437-2.625.8125-3.625C4.46875-5.14062 5.04688-5.8125 5.4375-7.1875l-.09375-.125H.79688Zm0 0"/><clipPath id="m"><path d="M456 .03516h166.8125V166H456Zm0 0"/></clipPath><clipPath id="n"><path d="M456 .03516h166.8125V167H456Zm0 0"/></clipPath><clipPath id="o"><path d="M456 .03516h20V166h-20Zm0 0"/></clipPath><clipPath id="p"><path d="M456 .03516h20V167h-20Zm0 0"/></clipPath><clipPath id="q"><path d="M456 147h166.8125v19H456Zm0 0"/></clipPath><clipPath id="r"><path d="M456 147h166.8125v20H456Zm0 0"/></clipPath><clipPath id="s"><path d="M604 .03516h18.8125V166H604Zm0 0"/></clipPath><clipPath id="t"><path d="M604 .03516h18.8125V167H604Zm0 0"/></clipPath><clipPath id="u"><path d="M456 .03516h166.8125V19H456Zm0 0"/></clipPath><clipPath id="v"><path d="M456 .03516h166.8125V167H456Zm0 0"/></clipPath></defs><path fill="#fff" stroke="#000" stroke-miterlimit="10" stroke-width=".39812" d="M15.16016 165.90234V110.6797H70.3828v55.22265Zm0 0"/><path fill="#399" stroke="#000" stroke-miterlimit="10" stroke-width=".39812" d="M15.16016 165.90234V110.6797H33.5664v55.22265Zm0 0"/><path fill="#399" stroke="#000" stroke-miterlimit="10" stroke-width=".39812" d="M15.16016 165.90234V147.4961H70.3828v18.40625Zm0 0"/><path fill="#399" stroke="#000" stroke-miterlimit="10" stroke-width=".39812" d="M51.97656 165.90234V110.6797h18.40625v55.22265Zm0 0"/><path fill="#399" stroke="#000" stroke-miterlimit="10" stroke-width=".39812" d="M15.16016 129.08985v-18.41016H70.3828v18.41016Zm0 0"/><path fill="none" stroke="#000" stroke-miterlimit="10" stroke-width=".39812" d="M15.16016 165.90234H70.3828M15.16016 147.4961H70.3828m-55.22265-18.40624H70.3828M15.16015 110.6797H70.3828m-55.22265 55.22265V110.6797m18.40624 55.22265V110.6797m18.41016 55.22265V110.6797m18.40625 55.22265V110.6797"/><use xlink:href="#a" x="4.31289" y="182.27336"/><use xlink:href="#b" x="11.66101" y="182.27336"/><use xlink:href="#c" x="17.3788" y="182.27336"/><use xlink:href="#c" x="21.6293" y="182.27336"/><use xlink:href="#d" x="25.8798" y="182.27336"/><use xlink:href="#e" x="33.96157" y="182.27336"/><use xlink:href="#f" x="40.50617" y="182.27336"/><use xlink:href="#g" x="48.58793" y="182.27336"/><use xlink:href="#b" x="52.34933" y="182.27336"/><use xlink:href="#h" x="58.06712" y="182.27336"/><use xlink:href="#i" x="61.24626" y="182.27336"/><use xlink:href="#i" x="64.29731" y="182.27336"/><use xlink:href="#f" x="67.34835" y="182.27336"/><use xlink:href="#j" x="75.43012" y="182.27336"/><path fill="#fff" stroke="#000" stroke-miterlimit="10" stroke-width=".39812" d="M144.01562 165.90234v-73.6289h73.6328v73.6289Zm0 0"/><path fill="#399" stroke="#000" stroke-miterlimit="10" stroke-width=".39812" d="M144.01562 165.90234v-73.6289h18.40624v73.6289Zm0 0"/><path fill="#399" stroke="#000" stroke-miterlimit="10" stroke-width=".39812" d="M144.01562 165.90234V147.4961h73.6328v18.40625Zm0 0"/><path fill="#399" stroke="#000" stroke-miterlimit="10" stroke-width=".39812" d="M199.23827 165.90234v-73.6289h18.41015v73.6289Zm0 0"/><path fill="#399" stroke="#000" stroke-miterlimit="10" stroke-width=".39812" d="M144.01562 110.6797V92.27343h73.6328v18.40625Zm0 0"/><path fill="none" stroke="#000" stroke-miterlimit="10" stroke-width=".39812" d="M144.01562 165.90234h73.6328m-73.6328-18.40625h73.6328m-73.6328-18.40624h73.6328m-73.6328-18.41016h73.6328m-73.6328-18.40625h73.6328m-73.6328 73.6289v-73.6289m18.40624 73.6289v-73.6289m18.41016 73.6289v-73.6289m18.40625 73.6289v-73.6289m18.41015 73.6289v-73.6289"/><use xlink:href="#a" x="142.37034" y="182.27336"/><use xlink:href="#b" x="149.71847" y="182.27336"/><use xlink:href="#c" x="155.43626" y="182.27336"/><use xlink:href="#c" x="159.68676" y="182.27336"/><use xlink:href="#d" x="163.93725" y="182.27336"/><use xlink:href="#e" x="172.01902" y="182.27336"/><use xlink:href="#f" x="178.56362" y="182.27336"/><use xlink:href="#g" x="186.64539" y="182.27336"/><use xlink:href="#b" x="190.40679" y="182.27336"/><use xlink:href="#h" x="196.12458" y="182.27336"/><use xlink:href="#i" x="199.30372" y="182.27336"/><use xlink:href="#i" x="202.35476" y="182.27336"/><use xlink:href="#f" x="205.4058" y="182.27336"/><use xlink:href="#k" x="213.48757" y="182.27336"/><path fill="#fff" stroke="#000" stroke-miterlimit="10" stroke-width=".39812" d="M291.27732 165.90234V73.8633h92.03906v92.03905Zm0 0"/><path fill="#399" stroke="#000" stroke-miterlimit="10" stroke-width=".39812" d="M291.27732 165.90234V73.8633h18.41016v92.03905Zm0 0"/><path fill="#399" stroke="#000" stroke-miterlimit="10" stroke-width=".39812" d="M291.27732 165.90234V147.4961h92.03906v18.40625Zm0 0"/><path fill="#399" stroke="#000" stroke-miterlimit="10" stroke-width=".39812" d="M364.91013 165.90234V73.8633h18.40625v92.03905Zm0 0"/><path fill="#399" stroke="#000" stroke-miterlimit="10" stroke-width=".39812" d="M291.27732 92.27344V73.8633h92.03906v18.41015Zm0 0"/><path fill="none" stroke="#000" stroke-miterlimit="10" stroke-width=".39812" d="M291.27732 165.90234h92.03906m-92.03906-18.40625h92.03906m-92.03906-18.40624h92.03906m-92.03906-18.41016h92.03906m-92.03906-18.40625h92.03906M291.27732 73.8633h92.03906m-92.03906 92.03905V73.8633m18.41016 92.03905V73.8633m18.40625 92.03905V73.8633m18.41015 92.03905V73.8633m18.40625 92.03905V73.8633m18.40625 92.03905V73.8633"/><use xlink:href="#a" x="298.83526" y="182.27336"/><use xlink:href="#b" x="306.18338" y="182.27336"/><use xlink:href="#c" x="311.90117" y="182.27336"/><use xlink:href="#c" x="316.15167" y="182.27336"/><use xlink:href="#d" x="320.40217" y="182.27336"/><use xlink:href="#e" x="328.48393" y="182.27336"/><use xlink:href="#f" x="335.02854" y="182.27336"/><use xlink:href="#g" x="343.1103" y="182.27336"/><use xlink:href="#b" x="346.8717" y="182.27336"/><use xlink:href="#h" x="352.58949" y="182.27336"/><use xlink:href="#i" x="355.76863" y="182.27336"/><use xlink:href="#i" x="358.81968" y="182.27336"/><use xlink:href="#f" x="361.87072" y="182.27336"/><use xlink:href="#l" x="369.95249" y="182.27336"/><g clip-path="url(#m)"><path fill="#fff" d="M456.94922 165.90234V.23437h165.67187v165.66797Zm0 0"/></g><g clip-path="url(#n)"><path fill="none" stroke="#000" stroke-miterlimit="10" stroke-width=".39812" d="M456.94919 165.90234V.2344h165.67186v165.66795Zm0 0"/></g><g clip-path="url(#o)"><path fill="#399" d="M456.94922 165.90234V.23437h18.41015v165.66797Zm0 0"/></g><g clip-path="url(#p)"><path fill="none" stroke="#000" stroke-miterlimit="10" stroke-width=".39812" d="M456.94919 165.90234V.2344h18.41015v165.66795Zm0 0"/></g><g clip-path="url(#q)"><path fill="#399" d="M456.94922 165.90234V147.4961h165.67187v18.40625Zm0 0"/></g><g clip-path="url(#r)"><path fill="none" stroke="#000" stroke-miterlimit="10" stroke-width=".39812" d="M456.94919 165.90234V147.4961h165.67186v18.40625Zm0 0"/></g><g clip-path="url(#s)"><path fill="#399" d="M604.21484 165.90234V.23437h18.40625v165.66797Zm0 0"/></g><g clip-path="url(#t)"><path fill="none" stroke="#000" stroke-miterlimit="10" stroke-width=".39812" d="M604.2148 165.90234V.2344h18.40625v165.66795Zm0 0"/></g><g clip-path="url(#u)"><path fill="#399" stroke="#000" stroke-miterlimit="10" stroke-width=".39812" d="M456.94919 18.64064V.23439h165.67186v18.40625Zm0 0"/></g><g clip-path="url(#v)"><path fill="none" stroke="#000" stroke-miterlimit="10" stroke-width=".39812" d="M456.94919 165.90234h165.67186M456.94919 147.4961h165.67186m-165.67186-18.40624h165.67186M456.94919 110.6797h165.67186M456.94919 92.27344h165.67186M456.94919 73.8633h165.67186M456.94919 55.45704h165.67186M456.94919 37.04688h165.67186M456.94919 18.64064h165.67186M456.94919.23439h165.67186M456.94919 165.90234V.2344m18.41015 165.66795V.2344m18.40625 165.66795V.2344m18.40625 165.66795V.2344m18.41015 165.66795V.2344m18.40625 165.66795V.2344m18.41016 165.66795V.2344m18.40624 165.66795V.2344m18.41016 165.66795V.2344m18.40625 165.66795V.2344"/></g><use xlink:href="#a" x="501.32033" y="182.27336"/><use xlink:href="#b" x="508.66845" y="182.27336"/><use xlink:href="#c" x="514.38624" y="182.27336"/><use xlink:href="#c" x="518.63674" y="182.27336"/><use xlink:href="#d" x="522.88723" y="182.27336"/><use xlink:href="#e" x="530.969" y="182.27336"/><use xlink:href="#f" x="537.5136" y="182.27336"/><use xlink:href="#g" x="545.59537" y="182.27336"/><use xlink:href="#b" x="549.35677" y="182.27336"/><use xlink:href="#h" x="555.07456" y="182.27336"/><use xlink:href="#i" x="558.2537" y="182.27336"/><use xlink:href="#i" x="561.30474" y="182.27336"/><use xlink:href="#f" x="564.35578" y="182.27336"/><use xlink:href="#w" x="572.43755" y="182.27336"/></svg>