<svg xmlns="http://www.w3.org/2000/svg" xmlns:xlink="http://www.w3.org/1999/xlink" width="265.382pt" height="81.47pt" viewBox="0 0 265.382 81.47"><defs><path id="a" d="M.42188 0h3.5625v-.34375C2.75-.42187 2.71875-.4375 2.71875-1.125v-2.3125h.6875c.54688 0 1.09375-.04687 1.53125-.15625.9375-.25 2.01563-.89062 2.01563-2.40625 0-.90625-.40625-1.5625-.95313-1.89062C5.42188-8.25 4.64063-8.375 3.79688-8.375h-3.375v.35938C1.5-7.9375 1.51563-7.9375 1.51563-7.25v6.125c0 .6875-.01563.70313-1.09375.78125Zm2.29687-4.34375V-7.5c0-.34375.125-.45312.90625-.45312 1.25 0 2.01563.71875 2.01563 2.03125 0 1.51562-1 2.0625-2.03125 2.0625-.71875 0-.89063-.03125-.89063-.48438m0 0"/><path id="b" d="M.39063 0h3.1875v-.34375C2.5-.40625 2.4375-.4375 2.4375-1.0625v-2.82812c0-.92188.40625-1.25.6875-1.25.20313 0 .40625.07812.75.28125.09375.04687.1875.0625.25.0625.29688 0 .54688-.3125.54688-.6875 0-.26563-.17188-.59375-.64063-.59375-.4375 0-.79687.26562-1.59375.96875l-.14062-.96875-1.84375.3125v.29687l.45312.0625c.29688.04688.39063.10938.39063.54688v3.79687c0 .625-.0625.65625-.90625.71875Zm0 0"/><path id="c" d="M1.10938-7.92187c0 .4375.3125.75.75.75s.73437-.3125.73437-.75-.29687-.73438-.73437-.73438-.75.29688-.75.73438M.39063 0h2.9375v-.34375c-.85938-.0625-.89063-.09375-.89063-.71875V-6l-.09375-.07812-1.89062.3125v.29687l.45312.0625c.29688.04688.39063.10938.39063.54688v3.79687c0 .625-.03126.65625-.90625.71875Zm0 0"/><path id="d" d="M.39063 0h2.9375v-.34375c-.85938-.0625-.89063-.09375-.89063-.71875v-2.82812c0-.3125 0-.46875.09375-.64063.21875-.48437.75-.89062 1.42188-.89062C5-5.42187 5.125-4.65625 5.125-3.90625v2.84375c0 .625-.04687.65625-.92187.71875V0h2.95312v-.34375C6.29688-.40625 6.25-.4375 6.25-1.0625v-2.82812c0-.3125.01563-.46875.09375-.65625.1875-.48438.70313-.875 1.375-.875.76563 0 1.23438.42187 1.23438 1.51562v2.84375c0 .625-.04688.65625-.92188.71875V0H11v-.34375c-.875-.0625-.92187-.09375-.92187-.71875v-3.07812c0-1.23438-.65625-1.9375-1.79688-1.9375-1 0-1.70312.65625-2.125.92187-.29687-.5625-.76562-.92187-1.60937-.92187-.92188 0-1.6875.625-2.10938.92187l-.125-.92187-1.85937.3125v.29687l.45312.0625c.29688.04688.39063.10938.39063.54688v3.79687c0 .625-.03126.65625-.90625.71875Zm0 0"/><path id="e" d="M.59375-2.92187C.59375-1 1.42188.14063 3.39063.14063c1.32812 0 2.03125-.75 2.35937-1.70313L5.375-1.75c-.32812.70313-.79687 1.28125-1.75 1.28125-1.5 0-1.79687-1.45312-1.76562-2.71875h3.48437c.25 0 .46875-.0625.46875-.45312 0-.71875-.21875-2.4375-2.4375-2.4375-1.89062 0-2.78125 1.34375-2.78125 3.15625m1.26563-.71875c0-.5.1875-2.01563 1.45312-2.01563 1.10938 0 1.25 1.15625 1.25 1.625 0 .23438-.07812.39063-.42187.39063Zm0 0"/><path id="f" d="M.59375-2.84375c0 1.78125.9375 2.98438 2.53125 2.98438.65625 0 1.21875-.29688 1.875-.82813v.59375L5.09375 0H7.0625v-.34375c-.875-.0625-.90625-.09375-.90625-.71875v-7.84375l-.09375-.0625-1.90625.29688v.29687l.46875.04688c.3125.03125.39063.09375.39063.5625v1.98437c-.34375-.1875-.79688-.29687-1.34375-.29687-1 0-1.73438.32812-2.25.84375-.5.53125-.82813 1.32812-.82813 2.39062m1.26563-.14062c0-1.57813.5625-2.67188 1.79687-2.67188.5625 0 1.03125.26563 1.25.76563.10938.20312.10938.39062.10938.70312v2.125c0 .26563 0 .48438-.07813.6875-.25.625-.78125.875-1.40625.875-1.10937 0-1.67187-1.09375-1.67187-2.48437m0 0"/><path id="g" d="m.875-5.90625.20313.1875c.60937-.54687 1.4375-1.35937 1.4375-2.21875 0-.65625-.40625-1.03125-.79688-1.03125-.35937 0-.57812.25-.57812.57813 0 .4375.39062.67187.39062 1.125 0 .46875-.28125.92187-.65625 1.35937m0 0"/><path id="h" d="M.59375-2.96875C.59375-1 1.5625.14063 3.5.14063 5.45313.14063 6.40625-1 6.40625-2.96875c0-1.95312-.95312-3.10937-2.90625-3.10937-1.9375 0-2.90625 1.15625-2.90625 3.10937m1.26563 0c0-1.67187.53125-2.6875 1.64062-2.6875 1.10938 0 1.65625 1.01563 1.65625 2.6875 0 1.6875-.54687 2.6875-1.65625 2.6875-1.10937 0-1.64062-1-1.64062-2.6875m0 0"/><path id="i" d="M.59375-1.57812c0 .90625.60938 1.71875 1.73438 1.71875.70312 0 1.42187-.46875 1.8125-.71875.15625.45312.35937.71875.79687.71875s.95313-.125 1.42188-.35938L6.28125-.5c-.17187.03125-.4375.04688-.60937 0-.21875-.04687-.4375-.26562-.4375-1.03125v-2.9375c0-.70312-.15625-1.60937-1.98438-1.60937-1.35937 0-2.4375.70312-2.4375 1.375 0 .39062.45313.5625.6875.5625.25 0 .3125-.125.375-.32813.28125-.90625.76563-1.1875 1.25-1.1875.48438 0 1.01563.25 1.01563 1.21875v.5c-.29688.3125-1.46875.60938-2.42188.92188-.875.26562-1.125.875-1.125 1.4375m1.21875-.15626c0-.5625.26563-.85937.9375-1.125.5-.17187 1.125-.40625 1.39063-.57812v1.71875C4.14063-.75 3.40625-.5 2.92188-.5c-.75 0-1.10938-.53125-1.10938-1.23437m0 0"/><path id="j" d="M.5 1.15625C.5 2.375 1.71875 2.92188 3.125 2.92188c.71875 0 1.48438-.14063 2.0625-.48438.5625-.34375.96875-.92187.96875-1.67187 0-1.3125-1.04687-1.75-2.34375-1.75h-.96875c-.875 0-1-.29688-1-.53125 0-.34375.45313-.54688.60938-.59375.23437.03125.5.03125.625.03125 1.14062 0 2.4375-.5 2.4375-1.96875 0-.5-.15625-.92188-.35938-1.125l.95313-.15625.25-.76563L6.25-6.1875l-1.53125.48438c-.34375-.23438-1.03125-.375-1.57812-.375-1.85938 0-2.5 1.14062-2.5 2.03125 0 1.14062.75 1.67187 1.29687 1.8125v.01562c-.65625.26563-1.09375.60938-1.09375 1.07813 0 .4375.48438.89062 1.0625.95312v.01563C1.39063 0 .5.28125.5 1.15625m1.15625-.04687c0-.42188.125-.71875.375-.92188.26563-.20312.67188-.28125 1.25-.28125 1.07813 0 1.85938.28125 1.85938 1.17188 0 .96875-.875 1.4375-1.73438 1.4375-1.03125 0-1.75-.53125-1.75-1.40625M1.875-4.04687c0-1.1875.625-1.60938 1.26563-1.60938.59375 0 1.21875.4375 1.21875 1.60938C4.35938-3.03125 3.84375-2.5 3.125-2.5c-.67187 0-1.25-.53125-1.25-1.54687m0 0"/><path id="k" d="M.39063 0h2.9375v-.34375c-.85938-.0625-.89063-.09375-.89063-.71875v-2.82812c0-.3125.01563-.46875.10938-.65625.26562-.46875.79687-.875 1.4375-.875.82812 0 1.28125.45312 1.28125 1.51562v2.84375c0 .625-.03125.65625-.90625.71875V0H7.3125v-.34375c-.85937-.0625-.90625-.09375-.90625-.71875v-3.07812c0-1.23438-.67187-1.9375-1.78125-1.9375-.90625 0-1.45312.4375-2.20312.92187L2.25-6.07812l-1.79687.3125v.29687l.45312.0625c.29688.04688.39063.10938.39063.54688v3.79687c0 .625-.03126.65625-.90625.71875Zm0 0"/><path id="l" d="M.375-5.45312h.875v4.21875C1.25 0 2.15625.14063 2.59375.14063c.60938 0 1.1875-.3125 1.54688-.53125l-.09375-.25c-.29688.10937-.5625.15624-.85938.15624-.42187 0-.8125-.29687-.8125-1.21874v-3.75h1.5625v-.48438H2.375v-1.51562h-.34375L1.29688-5.9375H.375Zm0 0"/><path id="m" d="m.25-8.375.45313.04688c.3125.03125.39062.09375.39062.5625v7.8125l.21875.09375.48438-.46875c.42187.25.9375.46875 1.82812.46875 1.60938 0 3.01563-.76563 3.01563-3.25 0-.73438-.15625-2.96875-2.32813-2.96875-.90625 0-1.64062.59375-2.07812.85937v-3.6875l-.09375-.0625L.25-8.67187Zm1.98438 6.40625v-1.92187c0-.3125 0-.48438.10937-.6875.29688-.57813.79688-.84375 1.48438-.84375.5 0 1.54687.28125 1.54687 2.39062 0 1.78125-.53125 2.75-1.73437 2.75-.64063 0-1.10938-.32812-1.32813-.92187-.07812-.21876-.07812-.46875-.07812-.76563m0 0"/><path id="n" d="M.23438-.1875.32813 0h5.14062l.125-1.85937h-.375c-.20312 1.14062-.60937 1.4375-1.95312 1.4375H1.71875C2.9375-2.20312 4.20313-3.98437 5.48438-5.75L5.375-5.9375H.73438v1.79688h.375c.15624-1.09375.40625-1.375 1.71875-1.375h1.21875c-1.25 1.78125-2.51563 3.5625-3.8125 5.32812m0 0"/><path id="y" d="M.03125-3.39062h.8125C1.01563-.51562 2.60938.14063 3.92188.14063 4.64063.14063 5.25-.0625 5.875-.3125l.15625-1.82812h-.35937C5.32813-.82812 4.89063-.28126 3.89063-.28126c-1.21875 0-1.70313-1.70312-1.8125-3.10937h2.45312l.10938-.42188H2.0625V-4c0-.20312 0-.40625.01563-.59375h2.71875l.10937-.42187H2.10938C2.25-6.5625 2.75-7.79687 3.76563-7.79687c.75 0 1.42187.1875 1.70312 1.54687h.35938v-1.64062c-.53125-.26563-1.42188-.34375-2-.34375-1.85938 0-2.6875 1.5-2.92188 3.21875H.125l-.09375.42187h.8125c0 .20313-.01562.42188-.01562.625v.15625H.125Zm0 0"/><path id="o" d="M.6875-2.10937h4.71875v-.54688H.6875Zm0 0"/><path id="p" d="M.32813-1.5625c0 .95313.65625 1.65625 1.95312 1.65625 1.3125 0 1.95313-.70312 1.95313-1.65625 0-.82812-.51563-1.32812-1.10938-1.48437.5-.125.92188-.57813.92188-1.25 0-.9375-.73438-1.45313-1.76563-1.45313-1.01562 0-1.76562.53125-1.76562 1.45313 0 .67187.45312 1.125.9375 1.25-.59375.15625-1.125.65625-1.125 1.48437m.98437.03125c0-.75.32813-1.3125.96875-1.3125.64063 0 .98438.5625.98438 1.3125s-.3125 1.3125-.98438 1.3125c-.65625 0-.96875-.5625-.96875-1.3125m.14063-2.78125c0-.64062.29687-1.125.82812-1.125.54688 0 .82813.48438.82813 1.125 0 .57813-.25 1.14063-.82813 1.14063-.54687 0-.82812-.5625-.82812-1.14063m0 0"/><path id="q" d="M.34375-2.82812c0 1.65625.5 2.92187 1.9375 2.92187s1.95313-1.26562 1.95313-2.92187S3.71875-5.75 2.28125-5.75.34375-4.48437.34375-2.82812m.96875 0c0-1.28125.20313-2.60938.96875-2.60938.78125 0 .98438 1.32813.98438 2.60938S3.0625-.21875 2.28125-.21875c-.76562 0-.96875-1.32812-.96875-2.60937m0 0"/><path id="s" d="M.71875-2.10937h2.04688V-.0625h.5625v-2.04687H5.375v-.5625H3.32813v-2.04688h-.5625v2.04688H.71875Zm0 0"/><path id="t" d="m.34375-4.40625.25.01563.07813-.15625c.10937-.23438.21874-.35938.59375-.35938h2.26562c-.07812.29688-.25.82813-.9375 1.76563-.71875.98437-1.20312 1.92187-1.20312 2.84375 0 .32812.23437.39062.53125.39062.25 0 .45312-.04687.45312-.375.01563-1.23437.21875-2.04687.625-2.73437.60938-1 1.03125-1.54688 1.28125-2.54688l-.07812-.09375H.625Zm0 0"/><path id="r" d="M.03125-2.35937h.54688c.14062 2 1.25 2.45312 2.17187 2.45312.48438 0 .92188-.14062 1.35938-.3125L4.21875-1.5h-.26562c-.23438.92188-.53125 1.29688-1.23438 1.29688-.84375 0-1.1875-1.1875-1.26562-2.15625h1.71875l.0625-.29688H1.4375v-.14062c0-.14063 0-.28125.01563-.42188h1.90625l.0625-.29687H1.46875c.10938-1.07813.45313-1.9375 1.15625-1.9375.53125 0 1 .14062 1.20313 1.07812h.25v-1.14062c-.375-.1875-1-.23438-1.40625-.23438C1.375-5.75.79688-4.70312.625-3.51562H.09375l-.0625.29687h.5625c-.01562.15625-.01562.29688-.01562.45313v.10937H.09375Zm0 0"/><path id="v" d="M.32813-1.23437c0 .51562.82812 1.375 2.54687 1.375 1.75 0 2.85938-.89063 2.85938-2.4375 0-1.60938-1.39063-2.09375-2.0625-2.15625V-4.5C4.32813-4.60937 5.375-5.09375 5.375-6.29687c0-1.34375-1.04687-1.9375-2.34375-1.9375-1.60937 0-2.39062.9375-2.39062 1.45312 0 .375.42187.57813.59375.57813.15624 0 .25-.09375.29687-.25.26563-.82813.71875-1.34375 1.40625-1.34375.95313 0 1.20313.82812 1.20313 1.51562 0 .71875-.26563 1.64063-1.29688 1.64063-.57812 0-.90625-.125-1.04687-.125-.15626 0-.21876.125-.21876.34375 0 .20312.0625.32812.21876.32812.14062 0 .46875-.10937 1.04687-.10937 1.03125 0 1.60938.92187 1.60938 1.96875 0 1.45312-.70313 1.95312-1.5625 1.95312-.8125 0-1.32813-.59375-1.5625-1.28125-.07813-.23437-.1875-.34375-.35938-.34375-.21875 0-.64062.23438-.64062.67188m0 0"/><path id="w" d="M.32813-.10937.45313 0h5L5.875-1.59375l-.34375-.0625c-.25.65625-.5.73438-.98437.73438H1.45313c.1875-.625.92187-1.48438 2.03125-2.29688 1.15625-.84375 2.0625-1.39062 2.0625-2.75 0-1.67187-1.125-2.26562-2.39063-2.26562C1.5-8.23437.64063-7.21875.64063-6.59375c0 .40625.46875.60938.67187.60938.21875 0 .29688-.125.34375-.34375.20313-.8125.67188-1.46875 1.42188-1.46875.92187 0 1.20312.76562 1.20312 1.65625 0 1.29687-.65625 2.03125-1.71875 2.95312C1.0625-1.875.54688-1.0625.32813-.10937m0 0"/><path id="x" d="M.5-4.04687C.5-1.625 1.20313.14063 3.20313.14063S5.92188-1.625 5.92188-4.04687s-.71875-4.1875-2.71875-4.1875S.5-6.46875.5-4.04687m1.21875 0c0-1.96875.34375-3.75 1.48438-3.75 1.15625 0 1.48437 1.78125 1.48437 3.75S4.35938-.28125 3.20313-.28125c-1.14063 0-1.48438-1.79687-1.48438-3.76562m0 0"/><clipPath id="u"><path d="M196 0h22v80.94531h-22Zm0 0"/></clipPath></defs><use xlink:href="#a" x="38.12817" y="15.59554"/><use xlink:href="#b" x="45.24403" y="15.59554"/><use xlink:href="#c" x="50.04369" y="15.59554"/><use xlink:href="#d" x="53.55657" y="15.59554"/><use xlink:href="#e" x="64.71289" y="15.59554"/><use xlink:href="#f" x="73.64309" y="15.59554"/><use xlink:href="#g" x="80.57879" y="15.59554"/><use xlink:href="#h" x="83.08799" y="15.59554"/><use xlink:href="#b" x="90.0623" y="15.59554"/><use xlink:href="#a" x="14.6062" y="43.49604"/><use xlink:href="#b" x="21.72205" y="43.49604"/><use xlink:href="#c" x="26.52171" y="43.49604"/><use xlink:href="#d" x="30.03459" y="43.49604"/><use xlink:href="#e" x="41.19091" y="43.49604"/><use xlink:href="#f" x="50.12111" y="43.49604"/><use xlink:href="#g" x="57.05681" y="43.49604"/><use xlink:href="#i" x="59.69469" y="43.49604"/><use xlink:href="#b" x="66.01274" y="43.49604"/><use xlink:href="#j" x="70.63226" y="43.49604"/><use xlink:href="#e" x="76.9117" y="43.49604"/><use xlink:href="#k" x="83.12681" y="43.49604"/><use xlink:href="#l" x="90.60296" y="43.49604"/><use xlink:href="#a" x="4.83973" y="74.17545"/><use xlink:href="#b" x="11.95558" y="74.17545"/><use xlink:href="#c" x="16.75524" y="74.17545"/><use xlink:href="#d" x="20.26813" y="74.17545"/><use xlink:href="#e" x="31.42444" y="74.17545"/><use xlink:href="#f" x="40.35464" y="74.17545"/><use xlink:href="#e" x="47.5863" y="74.17545"/><use xlink:href="#m" x="56.5165" y="74.17545"/><use xlink:href="#b" x="63.74816" y="74.17545"/><use xlink:href="#h" x="68.36767" y="74.17545"/><use xlink:href="#k" x="75.34198" y="74.17545"/><use xlink:href="#n" x="82.81812" y="74.17545"/><use xlink:href="#e" x="88.54426" y="74.17545"/><path fill="#f2f9f9" stroke="#007f7f" stroke-miterlimit="10" stroke-width=".39593" d="M110.28906 77.08203v-12.8672h36.6133v12.8672Zm0-29.28907v-12.8672h36.6133v12.8672Zm0-29.28908V5.63668h36.6133v12.8672Zm0 0"/><path fill="none" stroke="#000" stroke-miterlimit="10" stroke-width=".39593" d="M146.90236 77.08203v-12.8672h29.28907v12.8672Zm0-58.57815V5.63668h29.28907v12.8672Zm0 0"/><use xlink:href="#o" x="150.74157" y="72.58977"/><use xlink:href="#p" x="156.83058" y="72.58977"/><use xlink:href="#q" x="161.39734" y="72.58977"/><use xlink:href="#r" x="167.86428" y="72.58977"/><use xlink:href="#s" x="150.74157" y="14.00986"/><use xlink:href="#t" x="156.83058" y="14.00986"/><use xlink:href="#q" x="161.39734" y="14.00986"/><use xlink:href="#r" x="167.86428" y="14.00986"/><g clip-path="url(#u)"><path fill="none" stroke="#000" stroke-miterlimit="10" stroke-width=".39593" d="M201.82035 80.7461c2.96875-1.48438 4.94922-4.94923 4.94922-9.89845V50.37108c0-4.94922 1.98047-8.41406 4.94922-9.89844-2.96875-1.48828-4.94922-4.94922-4.94922-9.89844V10.09372c0-4.94922-1.98047-8.41406-4.94922-9.89844"/></g><use xlink:href="#v" x="231.58068" y="44.51243"/><use xlink:href="#w" x="237.9888" y="44.51243"/><use xlink:href="#x" x="244.39693" y="44.51243"/><use xlink:href="#y" x="253.51975" y="44.51243"/></svg>