<svg xmlns="http://www.w3.org/2000/svg" xmlns:xlink="http://www.w3.org/1999/xlink" width="216.798pt" height="76.013pt" viewBox="0 0 216.798 76.013"><defs><path id="c" d="M.71875-2.09375H2.75V-.0625h.5625v-2.03125h2.03125v-.5625H3.3125V-4.6875H2.75v2.03125H.71875Zm0 0"/><path id="d" d="m.34375-4.375.25.01563.07813-.17188c.10937-.21875.21874-.35937.59375-.35937h2.25c-.07813.29687-.25.82812-.9375 1.76562-.71875.98438-1.1875 1.90625-1.1875 2.82813 0 .32812.23437.39062.51562.39062.25 0 .45313-.04687.45313-.375C2.375-1.5 2.57813-2.3125 2.98438-3c.60937-1 1.03125-1.54687 1.28125-2.53125L4.1875-5.625H.625Zm0 0"/><path id="e" d="M.34375-2.8125c0 1.65625.5 2.90625 1.9375 2.90625 1.42188 0 1.92188-1.25 1.92188-2.90625 0-1.64062-.5-2.90625-1.92188-2.90625-1.4375 0-1.9375 1.26563-1.9375 2.90625m.96875 0c0-1.26562.1875-2.59375.96875-2.59375.76563 0 .95313 1.32813.95313 2.59375 0 1.26563-.1875 2.59375-.95313 2.59375-.78125 0-.96875-1.32812-.96875-2.59375m0 0"/><path id="g" d="M.6875-2.09375H5.375v-.5625H.6875Zm0 0"/><path id="h" d="M.32813-1.54687c0 .95312.64062 1.64062 1.95312 1.64062 1.29688 0 1.9375-.6875 1.9375-1.64062 0-.82813-.51562-1.32813-1.10937-1.48438.5-.125.90625-.5625.90625-1.23437 0-.9375-.71875-1.45313-1.73438-1.45313-1.03125 0-1.76562.53125-1.76562 1.45313 0 .67187.4375 1.10937.9375 1.23437-.59375.15625-1.125.65625-1.125 1.48438m.96875.03124c0-.76562.34375-1.3125.98437-1.3125.625 0 .96875.54688.96875 1.3125 0 .73438-.3125 1.29688-.96875 1.29688-.67187 0-.98437-.5625-.98437-1.29687m.15624-2.78124c0-.64063.28126-1.10938.82813-1.10938.53125 0 .8125.46875.8125 1.10938 0 .57812-.25 1.14062-.8125 1.14062s-.82812-.5625-.82812-1.14062m0 0"/><path id="f" d="M.03125-2.35937h.54688c.125 2 1.23437 2.45312 2.15625 2.45312.48437 0 .92187-.14062 1.34375-.3125l.10937-1.26562h-.25c-.23437.90625-.53125 1.28125-1.23437 1.28125-.84375 0-1.1875-1.17188-1.25-2.15625h1.70312l.0625-.29688H1.4375v-.54687h1.90625l.0625-.28125h-1.9375c.09375-1.07813.45313-1.9375 1.14063-1.9375.53125 0 1 .125 1.20312 1.07812h.25v-1.14062c-.375-.1875-1-.23438-1.40625-.23438C1.375-5.71875.78125-4.6875.625-3.48437H.09375l-.0625.28125h.5625c-.01562.15625-.01562.29687-.01562.45312v.09375H.09375Zm0 0"/><path id="i" d="M.51563-1.32812h5.8125v-.70313H.51563Zm0-2.64063h5.8125v-.70312H.51563Zm0 0"/><path id="m" d="M.03125-3.35937h.79688c.1875 2.84375 1.76562 3.5 3.0625 3.5.70312 0 1.32812-.20313 1.9375-.45313l.15625-1.8125H5.625C5.29688-.8125 4.85938-.28125 3.85938-.28125c-1.20313 0-1.6875-1.6875-1.78125-3.07812H4.5l.09375-.42188H2.04688v-.1875c0-.20312 0-.40625.01562-.59375h2.70313l.10937-.42187H2.09375C2.23438-6.51562 2.73438-7.75 3.73438-7.75c.75 0 1.42187.20313 1.70312 1.53125h.35938v-1.60937c-.54688-.26563-1.42188-.34375-2-.34375-1.84375 0-2.67188 1.48437-2.90625 3.1875H.125l-.09375.42187h.8125c-.01562.20313-.03125.42188-.03125.625v.15625H.125Zm0 0"/><path id="j" d="M.3125-1.23437c0 .51562.84375 1.375 2.53125 1.375 1.75 0 2.84375-.875 2.84375-2.42188 0-1.60937-1.375-2.07812-2.04687-2.14062v-.04688c.65625-.10937 1.6875-.59375 1.6875-1.78125 0-1.32812-1.03125-1.92187-2.32813-1.92187-1.57812 0-2.35937.92187-2.35937 1.4375 0 .375.42187.57812.59375.57812.14062 0 .23437-.09375.28124-.25.28126-.8125.71876-1.34375 1.40626-1.34375.9375 0 1.1875.82813 1.1875 1.51563 0 .71875-.26563 1.625-1.28125 1.625-.57813 0-.90625-.125-1.04688-.125-.15625 0-.21875.125-.21875.34375 0 .20312.0625.32812.21875.32812.14063 0 .46875-.10937 1.04688-.10937 1.01562 0 1.59375.90625 1.59375 1.95312 0 1.4375-.70313 1.9375-1.5625 1.9375-.78125 0-1.3125-.59375-1.54688-1.26562-.07812-.23438-.1875-.34375-.35937-.34375-.21876 0-.64063.23437-.64063.65625m0 0"/><path id="k" d="M.3125-.10937.45313 0h4.96875l.40625-1.57812L5.5-1.65625c-.26562.65625-.5.75-.98437.75H1.4375c.20313-.625.92188-1.48437 2.03125-2.28125 1.14063-.84375 2.04688-1.39062 2.04688-2.73437 0-1.67188-1.125-2.25-2.39063-2.25-1.64062 0-2.48437 1-2.48437 1.625 0 .40625.45312.60937.65625.60937.21874 0 .29687-.14062.35937-.34375C1.84375-7.09375 2.3125-7.75 3.0625-7.75c.90625 0 1.1875.76563 1.1875 1.65625 0 1.28125-.65625 2.01563-1.70312 2.9375C1.0625-1.85937.54688-1.04687.3125-.10937m0 0"/><path id="l" d="M.5-4.01562C.5-1.60937 1.20313.14063 3.1875.14063c1.96875 0 2.6875-1.75 2.6875-4.15625s-.71875-4.15625-2.6875-4.15625C1.20313-8.17187.5-6.42187.5-4.01562m1.21875 0c0-1.95313.32813-3.73438 1.46875-3.73438 1.125 0 1.46875 1.78125 1.46875 3.73438S4.3125-.28125 3.1875-.28125c-1.14062 0-1.46875-1.78125-1.46875-3.73437m0 0"/><path id="n" d="M1.29688 0H5.25v-.34375l-1-.09375c-.26562-.01562-.40625-.10937-.40625-.57812v-7.09375l-.0625-.0625L1.29688-7.75v.29688l1.125.14062c.21875.03125.28125.10938.28125.46875v5.82813c0 .46875-.10938.5625-.39063.57812l-1.01562.09375Zm0 0"/><clipPath id="a"><path d="M1.28906 2H38v14H1.28906Zm0 0"/></clipPath><clipPath id="b"><path d="M1.28906 2H39v14H1.28906Zm0 0"/></clipPath></defs><g clip-path="url(#a)"><path fill="#f2f9f9" d="M1.48438 15.6914V2.90626h36.3789v12.78516Zm0 0"/></g><g clip-path="url(#b)"><path fill="none" stroke="#007f7f" stroke-miterlimit="10" stroke-width=".39339" d="M1.48438 15.6914V2.90626h36.3789V15.6914Zm0 0"/></g><path fill="#f2f9f9" stroke="#007f7f" stroke-miterlimit="10" stroke-width=".39339" d="M37.86329 15.6914V2.90626H74.2422V15.6914Zm36.37891 0V2.90626h36.37891V15.6914Zm0 0"/><path fill="none" stroke="#000" stroke-miterlimit="10" stroke-width=".39339" d="M110.62111 15.6914V2.90626h29.10548V15.6914Zm29.10548 0V2.90626h29.10157V15.6914Zm0 0"/><use xlink:href="#c" x="114.4366" y="11.22722"/><use xlink:href="#d" x="120.48667" y="11.22722"/><use xlink:href="#e" x="125.02421" y="11.22722"/><use xlink:href="#f" x="131.44979" y="11.22722"/><use xlink:href="#g" x="143.53872" y="11.22722"/><use xlink:href="#h" x="149.58879" y="11.22722"/><use xlink:href="#e" x="154.12633" y="11.22722"/><use xlink:href="#f" x="160.5532" y="11.22722"/><use xlink:href="#i" x="173.34273" y="12.43158"/><use xlink:href="#j" x="182.88049" y="12.43158"/><use xlink:href="#k" x="189.24762" y="12.43158"/><use xlink:href="#l" x="195.61476" y="12.43158"/><use xlink:href="#m" x="204.68052" y="12.43158"/><path fill="#f2f9f9" stroke="#007f7f" stroke-miterlimit="10" stroke-width=".39339" d="M59.69142 44.79688V32.00782h36.37891v12.78906Zm36.37891 0V32.00782h36.37891v12.78906Zm36.37891 0V32.00782h36.37892v12.78906Zm0 0"/><use xlink:href="#i" x="173.34273" y="41.5337"/><use xlink:href="#j" x="182.88049" y="41.5337"/><use xlink:href="#j" x="189.24762" y="41.5337"/><use xlink:href="#l" x="195.61476" y="41.5337"/><use xlink:href="#m" x="204.68052" y="41.5337"/><path fill="#f2f9f9" stroke="#007f7f" stroke-miterlimit="10" stroke-width=".39339" d="M132.44924 73.89845V61.11329h36.37892v12.78516Zm0 0"/><use xlink:href="#i" x="173.34273" y="70.63681"/><use xlink:href="#n" x="182.88049" y="70.63681"/><use xlink:href="#n" x="189.24762" y="70.63681"/><use xlink:href="#l" x="195.61476" y="70.63681"/><use xlink:href="#m" x="204.68052" y="70.63681"/></svg>