<svg xmlns="http://www.w3.org/2000/svg" xmlns:xlink="http://www.w3.org/1999/xlink" width="674.705pt" height="92.447pt" viewBox="0 0 674.705 92.447"><defs><path id="b" d="m2.53125-8.32812.10938.25L4.5-8.70312c.48438-.14063.64063-.21875.67188-.4375.01562-.21875-.20313-.53125-.35938-.5625-.17187-.03125-.32812.03125-.70312.29687ZM.375 0h5.78125l.125-1.89062h-.32812C5.70313-.5625 5.21875-.375 3.84375-.375c-.5 0-.90625-.01562-1.125-.10937-.23437-.09375-.26562-.29688-.26562-.82813v-2.40625h1.51562c.92188 0 .96875.26563 1.0625.95313h.32813V-5.0625h-.32813c-.09375.67188-.14062.9375-1.0625.9375H2.45313v-2.64062c0-.35938.04687-.40625.39062-.40625h1.0625c1.23438 0 1.5.28125 1.64063 1.42187h.34375v-1.78125H.375v.3125c.96875.0625 1 .07813 1 .6875v5.51563c0 .625-.03125.64062-1 .70312Zm0 0"/><path id="c" d="M.34375-4.90625H1.125v3.79688C1.125 0 1.95313.125 2.32813.125c.5625 0 1.07812-.28125 1.39062-.46875l-.07812-.23437c-.26563.10937-.5.14062-.78125.14062-.35938 0-.71875-.26562-.71875-1.09375v-3.375h1.40625v-.4375H2.14063v-1.375h-.3125l-.65625 1.375H.34375Zm0 0"/><path id="d" d="M.53125-1.42187c0 .8125.54688 1.54687 1.5625 1.54687.64063 0 1.28125-.42187 1.625-.64062C3.875-.10937 4.0625.125 4.4375.125c.40625 0 .875-.10937 1.29688-.32812l-.07813-.25c-.15625.03125-.39062.04687-.5625 0-.1875-.04688-.375-.25-.375-.92188v-2.64062c0-.64063-.14062-1.45313-1.78125-1.45313-1.23437 0-2.20312.64063-2.20312 1.23438 0 .34375.40625.51562.60937.51562.23438 0 .29688-.125.34375-.29687.25-.8125.6875-1.07813 1.125-1.07813S3.73438-4.875 3.73438-4v.45313c-.28125.28125-1.32813.5625-2.1875.82812-.79688.25-1.01563.79688-1.01563 1.29688m1.10938-.14063c0-.51562.21874-.78125.84375-1.01562.4375-.15625 1-.35938 1.25-.51563v1.54688c0 .875-.67188 1.09375-1.10938 1.09375-.67187 0-.98437-.46875-.98437-1.10938m0 0"/><path id="e" d="M.28125 2.1875V2.5h2.8125v-.3125c-.92187-.04687-.98437-.07812-.98437-.64062V-.10937c.23437.125.75.23437 1.25.23437 1.46875 0 2.73437-.67187 2.73437-2.92187 0-.78125-.14062-2.67188-2.125-2.67188-.79687 0-1.4375.53125-1.85937.8125l-.14063-.8125-1.64062.28125v.26563l.40625.04687c.28124.04688.35937.09375.35937.5v5.92188c0 .5625-.04687.59375-.8125.64062m1.82813-3.90625V-3.5c0-.28125.0625-.42187.15625-.60937.25-.5.70312-.76563 1.28125-.76563.4375 0 1.42187.26563 1.42187 2.15625C4.96875-1.125 4.45313-.25 3.35938-.25c-.5625 0-1-.29687-1.17188-.79687-.0625-.1875-.07812-.40625-.07812-.67188m0 0"/><path id="f" d="M.53125-2.625c0 1.71875.75 2.75 2.51563 2.75C4.25.125 4.875-.54687 5.17188-1.40625l-.32813-.17187C4.54688-.9375 4.125-.42187 3.26563-.42187c-1.35938 0-1.625-1.3125-1.59375-2.4375H4.8125c.23438 0 .42188-.0625.42188-.42188 0-.64062-.20313-2.1875-2.20313-2.1875-1.70312 0-2.5 1.20313-2.5 2.84375m1.15625-.65625c0-.45312.15625-1.8125 1.29688-1.8125 1 0 1.125 1.03125 1.125 1.46875 0 .20313-.07813.34375-.375.34375Zm0 0"/><path id="g" d="M1.1875 0h3.57813v-.3125l-.92188-.07812C3.625-.42187 3.48438-.5 3.48438-.92187v-6.42188l-.04688-.0625-2.25.375v.26563l1.01563.14062c.1875.01563.25.09375.25.40625v5.29688c0 .42187-.09375.5-.35938.53125L1.1875-.3125Zm0 0"/><path id="h" d="M.29688-.10937.42188 0h4.5l.375-1.4375L5-1.5c-.23437.59375-.45312.67188-.89062.67188H1.32813c.17187-.5625.8125-1.34375 1.82812-2.07813 1.04688-.75 1.85938-1.25 1.85938-2.46875 0-1.51562-1.01563-2.03125-2.15625-2.03125-1.5 0-2.26563.90625-2.26563 1.46875 0 .375.42188.54688.59375.54688.20313 0 .26563-.10938.3125-.29688.1875-.75.60938-1.34375 1.28125-1.34375.84375 0 1.07813.70313 1.07813 1.5 0 1.17188-.59375 1.82813-1.54688 2.67188C.96875-1.6875.51563-.95312.29688-.10937m0 0"/><path id="i" d="M.29688-1.10937C.29688-.65625 1.0625.125 2.59375.125c1.57813 0 2.57813-.79687 2.57813-2.1875 0-1.46875-1.25-1.89062-1.85938-1.95312v-.04688c.59375-.09375 1.53125-.53125 1.53125-1.60937 0-1.20313-.9375-1.73438-2.10937-1.73438-1.4375 0-2.14063.82813-2.14063 1.29688 0 .32812.375.51562.53125.51562.14063 0 .21875-.07812.26563-.21875.25-.73437.65625-1.21875 1.26562-1.21875.85938 0 1.07813.76563 1.07813 1.375 0 .64063-.23438 1.46875-1.15625 1.46875-.53125 0-.82813-.10937-.95313-.10937-.14062 0-.20312.10937-.20312.3125 0 .1875.0625.29687.20312.29687.125 0 .42188-.10937.95313-.10937.92187 0 1.4375.84375 1.4375 1.79687 0 1.29688-.625 1.75-1.40625 1.75-.71875 0-1.1875-.53125-1.40625-1.15625-.0625-.20312-.17188-.3125-.32813-.3125-.1875 0-.57812.21875-.57812.60938m0 0"/><path id="j" d="m.21875-2.17187.09375.21875h2.96875v1.125c0 .35937-.10937.42187-.375.45312l-.70312.0625V0h2.875v-.3125L4.59375-.375c-.25-.03125-.32812-.09375-.32812-.45312v-1.125H5.375v-.5H4.26563v-4.82813h-.79688c-1.01562 1.5-2.25 3.39063-3.25 5.10938m.79688-.28125c.64062-1.1875 1.4375-2.45313 2.26562-3.76563v3.76563Zm0 0"/><path id="l" d="M.45313-1.10937c0 .5.76562 1.23437 2.17187 1.23437 1.79688 0 2.60938-1.09375 2.60938-2.46875 0-1.53125-.9375-2.3125-2.25-2.3125-.59375 0-1.25.28125-1.60938.59375l.25-2.07812c.03125-.26563.10938-.3125.3125-.3125h2.71875l.26563-.73438-.0625-.09375H1.21875l-.10937.10938-.21876 3.64062.26563.14063c.45313-.53125.89063-.78125 1.48438-.78125.70312 0 1.46875.51562 1.46875 1.95312 0 1.125-.45313 1.96875-1.40625 1.96875-.76563 0-1.15625-.54687-1.375-1.17187-.04688-.17188-.15626-.26563-.3125-.26563-.21876 0-.5625.21875-.5625.57813m0 0"/><clipPath id="a"><path d="M1.85938 0H87v74H1.85938Zm0 0"/></clipPath><clipPath id="k"><path d="M587 0h85.55078v74H587Zm0 0"/></clipPath></defs><g clip-path="url(#a)"><path fill="#399" d="M44.15625 0 1.85938 73.26172h84.59375Zm0 0"/></g><use xlink:href="#b" x="25.91744" y="85.10393"/><use xlink:href="#c" x="32.51044" y="85.10393"/><use xlink:href="#d" x="36.25303" y="85.10393"/><use xlink:href="#e" x="41.94224" y="85.10393"/><use xlink:href="#f" x="48.55841" y="85.10393"/><use xlink:href="#g" x="56.59981" y="85.10393"/><path fill="#399" d="m190.6836 0-42.29688 73.26172h84.59375Zm0 0"/><path fill="#fff" d="m190.6836 73.26563 21.14843-36.63282h-42.29687Zm0 0"/><use xlink:href="#b" x="172.44296" y="85.10393"/><use xlink:href="#c" x="179.03595" y="85.10393"/><use xlink:href="#d" x="182.77855" y="85.10393"/><use xlink:href="#e" x="188.46775" y="85.10393"/><use xlink:href="#f" x="195.08392" y="85.10393"/><use xlink:href="#h" x="203.12532" y="85.10393"/><path fill="#399" d="m337.21094 0-42.29688 73.26172h84.59375Zm0 0"/><path fill="#fff" d="m337.21094 73.26563 21.14844-36.63282H316.0625Zm0 0"/><path fill="#fff" d="m358.35938 73.26563 10.57421-18.31641h-21.14843Zm-42.30078 0 10.57421-18.31641h-21.14844Zm21.15234-36.63673 10.57422-18.3164h-21.14844Zm0 0"/><use xlink:href="#b" x="318.96748" y="85.10393"/><use xlink:href="#c" x="325.56047" y="85.10393"/><use xlink:href="#d" x="329.30306" y="85.10393"/><use xlink:href="#e" x="334.99227" y="85.10393"/><use xlink:href="#f" x="341.60844" y="85.10393"/><use xlink:href="#i" x="349.64984" y="85.10393"/><path fill="#399" d="m483.73828 0-42.29687 73.26172h84.59375Zm0 0"/><path fill="#fff" d="m483.73828 73.26563 21.14844-36.63282h-42.29688Zm21.14844 0 10.57422-18.31641H494.3125Zm-42.30078 0 10.57422-18.31641h-21.14844Zm21.15234-36.63673 10.57422-18.3164h-21.14844Zm31.72656 36.64063 5.28907-9.16016h-10.57422Zm0 0"/><path fill="#fff" d="m494.3164 73.26953 5.28516-9.16016h-10.57031Zm10.57423-18.32031 5.28906-9.15625h-10.57422Zm-31.73438 18.32031 5.28906-9.16016H467.8711Zm-21.14844 0 5.28516-9.16016h-10.57031Zm10.57422-18.32031 5.28906-9.15625h-10.57421ZM494.3125 36.625l5.28516-9.16016h-10.57422Zm-21.15234 0 5.28906-9.16016H467.875Zm10.57812-18.32031 5.28516-9.15625h-10.57422Zm0 0"/><use xlink:href="#b" x="465.49299" y="85.10393"/><use xlink:href="#c" x="472.08598" y="85.10393"/><use xlink:href="#d" x="475.82858" y="85.10393"/><use xlink:href="#e" x="481.51779" y="85.10393"/><use xlink:href="#f" x="488.13395" y="85.10393"/><use xlink:href="#j" x="496.17535" y="85.10393"/><g clip-path="url(#k)"><path fill="#399" d="m630.26563 0-42.29688 73.26172h84.59375Zm0 0"/></g><path fill="#fff" d="m630.26563 73.26563 21.14843-36.63282H609.1172Zm0 0"/><path fill="#fff" d="m651.41406 73.26563 10.57422-18.31641h-21.14844Zm-42.30078 0 10.57422-18.31641h-21.14844Zm21.15235-36.63673 10.57421-18.3164h-21.14843Zm31.72656 36.64063 5.28906-9.16016h-10.57422Zm0 0"/><path fill="#fff" d="m640.84375 73.26953 5.28516-9.16016h-10.57422Zm10.57422-18.32031 5.28906-9.15625h-10.57422ZM619.6836 73.26953l5.28906-9.16016h-10.57422Zm-21.14844 0 5.28515-9.16016H593.25Zm10.57422-18.32031 5.28906-9.15625h-10.57422ZM640.83984 36.625l5.28516-9.16016h-10.57422Zm-21.15234 0 5.28906-9.16016h-10.57422Zm10.57813-18.32031 5.28515-9.15625h-10.57422Zm37.02343 54.96875 2.64063-4.57813h-5.28516Zm-10.57812 0 2.64453-4.57813h-5.28516ZM662 64.11328l2.64453-4.57812h-5.28906Zm-37.03125 9.16016 2.64453-4.57813h-5.28516Zm-10.57422 0 2.64453-4.57813h-5.28515Zm0 0"/><path fill="#fff" d="m619.6836 64.11328 2.64453-4.57812h-5.28907Zm26.4453-27.49218 2.64454-4.57813h-5.28907Zm-10.57421 0 2.64453-4.57813h-5.28906Zm5.28515-9.16016 2.64454-4.57813h-5.28516Zm5.29297 45.8125 2.64453-4.57813h-5.28906Zm-10.57421 0 2.64453-4.57813h-5.28907Zm5.28515-9.16016 2.64453-4.57812h-5.28516Zm-37.02735 9.16016 2.64454-4.57813h-5.28907Zm-10.57421 0 2.64453-4.57813h-5.28906Zm5.28515-9.16016 2.64454-4.57812h-5.28516Zm26.44922-27.49218 2.64063-4.57813h-5.28516Zm-10.57812 0 2.64453-4.57813h-5.28516Zm5.28906-9.16016 2.64453-4.57813h-5.28906Zm37.02344 27.48828 2.64453-4.57813h-5.28906Zm-10.57422 0 2.64062-4.57813h-5.28515Zm5.28516-9.15625 2.64453-4.58203h-5.28907Zm-37.02735 9.15625 2.64063-4.57813H611.75Zm-10.57422 0 2.64063-4.57813h-5.28516Zm5.28516-9.15625 2.64453-4.58203h-5.28906Zm26.44531-27.49219 2.64453-4.58203h-5.28515Zm-10.57422 0 2.64453-4.58203h-5.28906Zm5.28907-9.16015 2.64062-4.57813h-5.28516Zm0 0"/><use xlink:href="#b" x="612.0185" y="85.10393"/><use xlink:href="#c" x="618.61149" y="85.10393"/><use xlink:href="#d" x="622.35409" y="85.10393"/><use xlink:href="#e" x="628.0433" y="85.10393"/><use xlink:href="#f" x="634.65947" y="85.10393"/><use xlink:href="#l" x="642.70087" y="85.10393"/></svg>