<svg xmlns="http://www.w3.org/2000/svg" xmlns:xlink="http://www.w3.org/1999/xlink" width="521.536pt" height="128.03pt" viewBox="0 0 521.536 128.03"><defs><path id="y" d="M-.59375 0H4v-.59375l-1.07812-.125C2.29688-.78125 2.20313-1 2.375-1.5625c.35938-1.23437.78125-2.53125 1.28125-4.01562h4.6875l1.40625 4c.20313.59375.10938.82812-.5625.89062l-.95312.09375V0h5.35937v-.59375c-1.21875-.125-1.4375-.1875-1.82812-1.28125L7.34375-14.46875h-1.5625l-2.17187 6.1875C2.95313-6.45312 2.0625-3.95312 1.32813-2.04687.89063-.90625.71875-.67187-.59375-.59375ZM3.9375-6.39062c.67188-2.09375 1.40625-4.14063 2.03125-5.98438h.0625l2.0625 5.98438Zm0 0"/><path id="z" d="M.67188 0h5.09375v-.59375c-1.5-.125-1.5625-.15625-1.5625-1.23437v-4.89063c0-.53125.03125-.79687.20312-1.14062.4375-.8125 1.375-1.51563 2.48438-1.51563 1.4375 0 2.20312.78125 2.20312 2.60938v4.9375c0 1.07812-.0625 1.10937-1.57812 1.23437V0h5.125v-.59375c-1.5-.125-1.57813-.15625-1.57813-1.23437v-5.34375c0-2.10938-1.15625-3.32813-3.07812-3.32813-1.54688 0-2.51563.75-3.79688 1.59375L3.89063-10.5l-3.10938.53125v.51563l.78125.10937c.53125.09375.6875.17188.6875.9375v6.57813C2.25-.75 2.1875-.71875.67188-.59375Zm0 0"/><path id="A" d="M.64063-9.40625h1.51562v7.26563C2.15625 0 3.73438.25 4.46875.25c1.07813 0 2.07813-.54687 2.67188-.92187l-.15625-.4375c-.51563.20312-.95313.26562-1.48438.26562-.71875 0-1.39062-.51562-1.39062-2.09375v-6.46875H6.8125V-10.25H4.10938v-2.625h-.59375L2.25-10.25H.64063Zm0 0"/><path id="B" d="m4.20313-11.75.3125.42188 3.15625-1.75c.625-.34375 1.1875-.6875 1.1875-1.14063 0-.42187-.51563-.90625-.82813-.90625-.35937 0-.71875.21875-1.32812.85938ZM1.03125-5.04687C1.03125-1.73437 2.45313.25 5.85938.25c2.3125 0 3.51562-1.29687 4.0625-2.9375l-.625-.34375c-.57813 1.23438-1.375 2.20313-3.01563 2.20313-2.60937 0-3.125-2.48438-3.07812-4.67188h6.03125c.4375 0 .82812-.10937.82812-.79687 0-1.21875-.40625-4.20313-4.23437-4.20313-3.26563 0-4.79688 2.3125-4.79688 5.45313m2.1875-1.25c0-.875.3125-3.46875 2.5-3.46875 1.9375 0 2.15625 1.98437 2.15625 2.79687 0 .40625-.125.67188-.70312.67188Zm0 0"/><path id="C" d="M1.03125-5.03125C1.03125-1.53125 2.73438.25 5.875.25c1.46875 0 3.45313-.76562 4.03125-3.01562l-.625-.28125c-.64062 1.46875-1.46875 2.20312-3 2.20312-2.5 0-3.07812-2.60937-3.07812-4.5625 0-3.10937 1.21875-4.35937 2.67187-4.35937.95313 0 1.5625.6875 1.98438 1.82812.125.32813.26562.53125.65625.53125.42187 0 1.23437-.26562 1.23437-1.07812C9.75-9.4375 8.35938-10.5 6.09375-10.5c-3.79687 0-5.0625 2.6875-5.0625 5.46875m0 0"/><path id="D" d="M1.03125-4.92187C1.03125-1.82812 2.64063.25 5.40625.25 6.54688.25 7.5-.26562 8.64063-1.17187v1.01562L8.8125 0h3.375v-.59375c-1.48437-.125-1.54687-.15625-1.54687-1.23437v-13.5625l-.15625-.125L7.1875-15v.53125l.79688.07813c.53125.0625.67187.17187.67187.96875v3.4375c-.57812-.3125-1.35937-.51563-2.3125-.51563-1.71875 0-3 .54688-3.875 1.4375-.89062.9375-1.4375 2.32813-1.4375 4.14063m2.17188-.23438c0-2.71875.98437-4.60937 3.10937-4.60937.98438 0 1.78125.4375 2.17188 1.3125.17187.35937.17187.67187.17187 1.21875v3.67187c0 .46875 0 .82813-.14062 1.1875-.42188 1.07813-1.32813 1.5-2.42188 1.5-1.90625 0-2.89062-1.89062-2.89062-4.28125m0 0"/><path id="E" d="M1.03125-5.04687C1.03125-1.73437 2.45313.25 5.85938.25c2.3125 0 3.51562-1.29687 4.0625-2.9375l-.625-.34375c-.57813 1.23438-1.375 2.20313-3.01563 2.20313-2.60937 0-3.125-2.48438-3.07812-4.67188h6.03125c.4375 0 .82812-.10937.82812-.79687 0-1.21875-.40625-4.20313-4.23437-4.20313-3.26563 0-4.79688 2.3125-4.79688 5.45313m2.1875-1.25c0-.875.3125-3.46875 2.5-3.46875 1.9375 0 2.15625 1.98437 2.15625 2.79687 0 .40625-.125.67188-.70312.67188Zm0 0"/><path id="J" d="M.73438 0H6.5625v-.59375C4.73438-.73437 4.6875-.75 4.6875-1.9375v-10.59375c0-1.17187.04688-1.20312 1.875-1.32812v-.60938H.73438v.60938c1.84375.125 1.89062.15625 1.89062 1.32812V-1.9375C2.625-.75 2.57813-.73437.73438-.59375Zm0 0"/><path id="K" d="M.67188 0h5.09375v-.59375c-1.5-.125-1.5625-.15625-1.5625-1.23437v-4.89063c0-.53125 0-.82812.15625-1.10937.40625-.84375 1.3125-1.54688 2.46875-1.54688 1.8125 0 2.03125 1.32813 2.03125 2.60938v4.9375c0 1.07812-.07813 1.10937-1.57813 1.23437V0H12.375v-.59375c-1.5-.125-1.5625-.15625-1.5625-1.23437v-4.89063c0-.53125.01563-.79687.15625-1.14062.3125-.84375 1.20313-1.51563 2.375-1.51563 1.3125 0 2.125.73438 2.125 2.60938v4.9375c0 1.07812-.07812 1.10937-1.57812 1.23437V0H19v-.59375c-1.48437-.125-1.57812-.15625-1.57812-1.23437v-5.34375c0-2.10938-1.14063-3.32813-3.10938-3.32813-1.71875 0-2.9375 1.125-3.67187 1.59375C10.125-9.875 9.32813-10.5 7.85938-10.5 6.25-10.5 4.9375-9.4375 4.20313-8.90625L4-10.5l-3.21875.53125v.51563l.78125.10937c.53125.09375.6875.17188.6875.9375v6.57813C2.25-.75 2.1875-.71875.67188-.59375Zm0 0"/><path id="L" d="M1.03125-2.71875c0 1.5625 1.03125 2.96875 3 2.96875C5.25.25 6.46875-.5625 7.14063-1c.29687.78125.64062 1.25 1.375 1.25.78125 0 1.67187-.23437 2.46875-.625l-.125-.5c-.29688.07813-.76563.09375-1.0625 0-.39063-.07812-.73438-.45312-.73438-1.76562v-5.07813C9.0625-8.9375 8.78125-10.5 5.625-10.5c-2.35937 0-4.21875 1.21875-4.21875 2.375 0 .67188.78125.98438 1.17188.98438.45312 0 .5625-.21875.67187-.57813.46875-1.5625 1.3125-2.04687 2.15625-2.04687.82813 0 1.76563.42187 1.76563 2.09375v.85937c-.54688.53125-2.5625 1.07813-4.21875 1.60938-1.5.46875-1.92188 1.51562-1.92188 2.48437M3.14063-3c0-.98437.4375-1.5 1.625-1.9375.84375-.3125 1.9375-.71875 2.40625-1v2.95313c0 1.6875-1.29688 2.10937-2.125 2.10937-1.28125 0-1.90625-.90625-1.90625-2.125m0 0"/><path id="M" d="M.875 2c0 2.10938 2.10938 3.04688 4.53125 3.04688 1.25 0 2.5625-.23438 3.5625-.84375.95313-.57813 1.67188-1.57813 1.67188-2.875 0-2.26563-1.8125-3.04688-4.04688-3.04688H4.92188c-1.51563 0-1.73438-.5-1.73438-.90625 0-.59375.79688-.9375 1.0625-1.03125.40625.04688.84375.07813 1.0625.07813 1.98438 0 4.23438-.875 4.23438-3.40625 0-.875-.29688-1.60938-.64063-1.95313l1.65625-.28125.42188-1.3125-.17188-.17187-2.67187.84375C7.5625-10.25 6.39063-10.5 5.42188-10.5c-3.20313 0-4.3125 1.95313-4.3125 3.51563 0 1.95312 1.29687 2.875 2.25 3.10937v.04688c-1.14063.45312-1.90625 1.04687-1.90625 1.875 0 .73437.84375 1.51562 1.84375 1.625v.03125C2.40625 0 .875.48438.875 2m2-.09375c0-.70312.20313-1.23437.64063-1.57812.46875-.34375 1.15625-.48438 2.15625-.48438C7.51563-.15625 8.875.3125 8.875 1.875c0 1.65625-1.51562 2.46875-3 2.46875-1.78125 0-3-.92187-3-2.4375m.375-8.89062c0-2.07813 1.0625-2.78125 2.17188-2.78125 1.03125 0 2.09375.75 2.09375 2.78125 0 1.75-.89063 2.67187-2.10938 2.67187-1.17187 0-2.15625-.92187-2.15625-2.67187m0 0"/><path id="U" d="M.73438 0h6.15625v-.59375C4.73438-.73437 4.6875-.75 4.6875-1.9375v-4.89062h2.92188c1.78125 0 1.875.48437 2.04687 1.82812h.625v-4.48437h-.625C9.48438-8.14062 9.39063-7.625 7.60938-7.625H4.6875V-13c0-.6875.07813-.75.76563-.75h2.0625c2.4375 0 2.92187.48438 3.20312 2.625h.625v-3.34375H.73438v.60938c1.84375.125 1.89062.15625 1.89062 1.32812V-1.9375C2.625-.75 2.57813-.73437.73438-.59375Zm0 0"/><path id="V" d="M1.03125-5.125C1.03125-1.73437 2.6875.25 6.04688.25s5.01562-1.98437 5.01562-5.375c0-3.375-1.65625-5.375-5.01562-5.375s-5.01563 2-5.01563 5.375m2.17188 0c0-2.89062.9375-4.64062 2.84375-4.64062 1.92187 0 2.85937 1.75 2.85937 4.64062 0 2.90625-.9375 4.64063-2.85937 4.64063-1.90625 0-2.84375-1.73438-2.84375-4.64063m0 0"/><path id="W" d="M1.90625-13.6875c0 .76563.54688 1.29688 1.29688 1.29688s1.26562-.53125 1.26562-1.29688c0-.75-.51562-1.26562-1.26562-1.26562s-1.29688.51562-1.29688 1.26562M.67188 0h5.09375v-.59375c-1.5-.125-1.5625-.15625-1.5625-1.23437V-10.375l-.15625-.125-3.26563.53125v.51563l.78125.10937c.53125.09375.6875.17188.6875.9375v6.57813C2.25-.75 2.1875-.71875.67188-.59375Zm0 0"/><path id="F" d="M1.46875-2.25c0 1.25.57813 2.5 2 2.5 2.25 0 4.1875-2.59375 5.40625-4.71875h.04688l-.71875 2.375c-.125.46875-.21875.875-.21875 1.20313C7.98438-.15626 8.34375.25 9.125.25c1.57813 0 2.75-1.42187 3.46875-3.01562l-.48437-.28125c-.39063.73437-1.3125 2.20312-1.89063 2.20312-.25 0-.34375-.15625-.34375-.40625 0-.20312.07813-.4375.14063-.73437l2.20312-8.34375h-1.76562l-.07813.26562c-.35937-.23437-.98437-.4375-1.54687-.4375-4.98438 0-7.35938 5.5-7.35938 8.25m2.0625-.04687c0-2.28125 2.04688-7.46875 5.34375-7.46875.51563 0 .95313.17187 1.26563.46875C9.76563-7.75 9.03125-5.67187 7.92188-4 6.73438-2.21875 5.45313-.84375 4.45313-.84375c-.6875 0-.92188-.625-.92188-1.45312m0 0"/><path id="N" d="M-.4375 3.84375c.01563.6875.92188 1.20313 1.90625 1.20313 2.09375 0 2.98438-1.6875 3.84375-5.6875L7.25-9.45312h2.65625l.1875-.79688H7.39063l.57812-2.35937c.39063-1.59375.79688-2.1875 1.375-2.1875.5625 0 .9375.46875 1.40625 1.46875.10938.20312.26563.35937.57813.35937.42187 0 1.01562-.375 1.01562-.92187 0-.89063-1.125-1.625-2.375-1.625-2.46875 0-3.5 1.75-4.29687 4.5l-.21875.76562H3.65625l-.25.79688h1.85938L2.84375 2.875C2.60938 4.15625 2.375 4.29688 2.1875 4.29688c-.23437 0-.5625-.15625-1.125-1.03125-.15625-.1875-.28125-.46875-.54687-.46875-.46875 0-.95313.51562-.95313 1.04687m0 0"/><path id="O" d="M1.79688-5.89062c0 4.71875 1.07812 9.89062 5.5 10.07812v-.625C5.8125 3.26563 3.46875 1.42188 3.46875-5.89062c0-7.28125 2.23438-9.125 3.82813-9.46875v-.60938c-4.42188.17188-5.5 5.35938-5.5 10.07813m0 0"/><path id="P" d="M1.25 3.5625v.625C5.67188 4 6.73438-1.17187 6.73438-5.89062S5.67188-15.79687 1.25-15.96875v.60938c1.59375.34375 3.82813 2.1875 3.82813 9.46875 0 7.3125-2.34375 9.15625-3.82813 9.45312m0 0"/><path id="G" d="M1.04688-1.57812c0 .875.40625 1.75 1.42187 1.75 1.60938 0 2.89063-1.79688 3.73438-3.25h.03125l-.45313 1.5625c-.09375.32812-.15625.60937-.15625.84375 0 .5625.28125.84375.85938.84375C7.67188.17188 8.5-.85937 9.03125-2l-.375-.21875C8.35938-1.67187 7.75-.6875 7.35938-.6875c-.17188 0-.21875-.10937-.21875-.28125 0-.125.03125-.3125.07812-.5l1.51563-5.76562H7.32813l-.0625.17187c-.25-.17187-.6875-.29687-1.07813-.29687-3.5 0-5.14062 3.85937-5.14062 5.78125M2.6875-1.625c0-1.57812 1.40625-5.17187 3.5625-5.17187.34375 0 .625.10937.84375.29687-.26562 1.07813-.78125 2.53125-1.54687 3.70313C4.75-1.59375 3.90625-.6875 3.26563-.6875c-.45313 0-.57813-.40625-.57813-.9375m0 0"/><path id="H" d="M.96875-4.10937c0 2.5 1.48438 3.85937 3.5 3.85937h3.14063v-.95312H4.46875c-1.625 0-2.28125-1.04688-2.45312-2.4375h4.21875v-.96875H2.01563C2.1875-5.95312 2.75-7.01562 4.46875-7.01562h3.14063v-.95313H4.46875c-2.67187 0-3.5 2.03125-3.5 3.85938m0 0"/><path id="I" d="M.40625-.59375c0 .625 1.17188.8125 1.84375.8125.46875 0 1.35938-.1875 1.95313-.46875.59375.23438 1 .46875 1.75.46875 2.92187 0 5.35937-3.29687 5.35937-6.4375 0-.54687-.09375-1.09375-.28125-1.60937.25-.09375.75-.125.75-.42188 0-.17187-.15625-.26562-.34375-.26562-.21875 0-.45312.03125-.6875.09375-.875-1.53125-2.53125-2.25-4.32812-2.25-2.5625 0-5.89063 2.0625-5.89063 4.75 0 1.48437 1.20313 2.01562 2.32813 2.01562 1.85937 0 3.6875-2.21875 3.6875-3.8125 0-.25-.03125-.76562-.34375-.76562-.15625 0-.375.09375-.375.25 0 .125.0625.25.0625.375 0 1.29687-1.53125 3.39062-3.03125 3.39062-.92188 0-1.29688-.5625-1.29688-1.20312 0-2.32813 2.76563-4.4375 4.85938-4.4375 1.53125 0 2.9375.64062 3.67187 1.9375-1.59375.76562-2.75 2.51562-3.625 3.95312C5.8125-3.10937 4.875-1.78125 3.875-.96875c-.48437-.21875-1.15625-.46875-1.65625-.46875-1.03125 0-1.8125.28125-1.8125.84375m1.04688-.01562c0-.15626.48437-.21876.64062-.21876.34375 0 .82813.09376 1.09375.20313-.17187.125-.75.23438-.9375.23438-.32812 0-.79687-.0625-.79687-.21875M4.90625-.625c1.4375-.875 2.42188-2.04687 3.17188-3.34375.70312-1.17187 1.32812-2.4375 2.32812-3.40625.10938.375.15625.76563.15625 1.15625 0 2.53125-2.20312 5.82813-4.60937 5.82813-.28125 0-.75-.09375-1.04688-.23438m0 0"/><path id="Q" d="M-.3125 2.625c.01563.51563.64063.90625 1.4375.90625 1.51563 0 2.21875-1.20312 2.82813-3.96875l1.375-6.14062h1.84375l.15625-.60938H5.42188l.4375-1.76562c.25-.98438.5-1.35938.85937-1.35938.34375 0 .59375.28125.9375 1.03125.09375.15625.20313.29688.45313.29688.34375 0 .79687-.29688.79687-.70313 0-.64062-.8125-1.17187-1.76562-1.17187-1.84375 0-2.59375 1.32812-3.125 3.1875L3.875-7.1875H2.60938l-.17188.60938h1.29688L2.03125 2.125c-.14062.73438-.28125.84375-.42187.84375-.15626 0-.39063-.14062-.76563-.73437C.73438 2.07813.625 1.875.40625 1.875c-.35937 0-.71875.375-.71875.75m0 0"/><path id="R" d="M1.26563-4.125c0 3.15625.79687 6.92188 3.75 7.04688v-.46875C4 2.25 2.5625.76563 2.5625-4.125c0-4.875 1.39063-6.35937 2.45313-6.57812v-.48438c-2.95313.125-3.75 3.89063-3.75 7.0625m0 0"/><path id="S" d="M.89063 2.45313v.46875c2.95312-.125 3.76562-3.89063 3.76562-7.04688 0-3.17187-.8125-6.9375-3.76562-7.0625v.48438c1.07812.21875 2.46875 1.71875 2.46875 6.57812 0 4.89063-1.46875 6.39063-2.46875 6.57813m0 0"/><path id="T" d="M.78125 0h2.85938v-4.10937h.82812L6.84375 0h2.875L7.29688-4.26562c1.28125-.4375 2.0625-1.67188 2.0625-2.875 0-1.71875-1.375-3.01563-3.20313-3.01563h-5.375ZM1.625-.84375V-9.3125h1.17188v8.46875Zm2.01563-4.10937V-9.3125h2.5v4.35938Zm1.84375.84375h1.10937L8.39063-.84375H7.29688Zm1.5-.96875v-4.14063c.89062.26563 1.54687 1.1875 1.54687 2.07813 0 .92187-.71875 1.89062-1.54687 2.0625m0 0"/><clipPath id="i"><path d="M22 19h23v44.65234H22Zm0 0"/></clipPath><clipPath id="j"><path d="M.28125 19H45v44.65234H.28125Zm0 0"/></clipPath><clipPath id="a"><path d="M.03125.96875h9.9375v16.78516H.03125Zm0 0"/></clipPath><clipPath id="m"><path d="M49 .36719h14.5664V28H49Zm0 0"/></clipPath><clipPath id="n"><path d="M35 .36719h28.5664V28H35Zm0 0"/></clipPath><clipPath id="b"><path d="M.54688.6211h7.73828v13.0703H.54688Zm0 0"/></clipPath><clipPath id="q"><path d="M55 29h8.5664v17H55Zm0 0"/></clipPath><clipPath id="r"><path d="M47 29h16.5664v17H47Zm0 0"/></clipPath><clipPath id="d"><path d="M.3711.61719h4.0625v6.14844H.3711Zm0 0"/></clipPath><clipPath id="u"><path d="M22 19h23v44.65234H22Zm0 0"/></clipPath><clipPath id="v"><path d="M49 .36719h14.5664V28H49Zm0 0"/></clipPath><clipPath id="w"><path d="M55 29h8.5664v17H55Zm0 0"/></clipPath><clipPath id="f"><path d="M0 0h64v64H0z"/></clipPath><g id="l" clip-path="url(#a)"><path fill="#75CCF4" d="M9.96875 9.36328c0 4.63672-3.75781 8.39063-8.39453 8.39063-.52734 0-1.04297-.04688-1.54297-.14063 3.89453-.72656 6.84766-4.14453 6.84766-8.25s-2.95313-7.52344-6.84766-8.25c.5-.09375 1.01563-.14453 1.54297-.14453 4.63672 0 8.39453 3.75781 8.39453 8.39453"/></g><g id="p" clip-path="url(#b)"><path fill="#75CCF4" d="M8.28516 7.15625c0 3.60938-2.92578 6.53516-6.53516 6.53516a6.44 6.44 0 0 1-1.20312-.11328c3.03515-.5625 5.33203-3.22266 5.33203-6.42188S3.58203 1.29688.54688.73047C.9375.65625 1.33984.62109 1.75.62109c3.60938 0 6.53516 2.92579 6.53516 6.53516"/></g><g id="t" clip-path="url(#d)"><path fill="#75CCF4" d="M4.4336 3.6914c0 1.69923-1.37891 3.07423-3.07422 3.07423-.34766 0-.6797-.0547-.98829-.16407 1.21094-.41015 2.08594-1.5586 2.08594-2.91015 0-1.35157-.875-2.5-2.08594-2.90625.3086-.10938.64063-.16797.98829-.16797 1.6953 0 3.07421 1.3789 3.07421 3.07422"/></g><g id="X" clip-path="url(#f)"><g clip-path="url(#i)"><path fill="#99BAC6" d="M44.8711 38.78516v5.15625c0 .51172-.41797.92578-.9297.92578h-2.40234c-.1836 1-.44531 1.98437-.78515 2.9414l2.07812 1.19922c.21484.1211.36719.32422.4336.5625.0625.23828.02734.49219-.09376.70313l-2.57812 4.46875c-.25781.4414-.82422.59375-1.26562.33984l-2.08594-1.20312c-.65625.76953-1.3789 1.48828-2.14844 2.14843l1.20313 2.08203c.12109.21485.15624.46876.08984.70704-.0625.23437-.21875.4375-.42969.55859l-4.46875 2.58203c-.44531.2539-1.00781.10156-1.26562-.33984l-1.19922-2.07813c-.95703.33985-1.9414.60157-2.9414.78516v2.40234c0 .51172-.41407.92578-.92579.92578h-2.58203v-3.02343c9.49219-1.67188 16.6875-9.66407 16.6875-19.26563 0-9.60547-7.19531-17.59375-16.6875-19.26562v-3.02344h2.58203c.51172 0 .92578.41406.92578.92578v2.40234c1 .1836 1.98438.44532 2.9414.78516l1.19923-2.07812c.2578-.44532.8203-.59766 1.26562-.33985l4.46875 2.57813c.21094.12109.36719.32421.42969.5625.0664.23828.03125.49218-.08984.70312l-1.20313 2.08594c.76953.65625 1.49219 1.375 2.14844 2.14844l2.08593-1.20313c.44141-.25781 1.00782-.10156 1.26563.33985l2.57813 4.46874c.12109.21094.15624.46485.09374.70313-.0664.23438-.21874.4375-.43359.5625l-2.07812 1.19922c.33984.95703.60156 1.9375.78515 2.9375h2.40235c.51172 0 .92968.41797.92968.92969"/></g><path fill="#4C7889" d="M35.73047 41.36328c0 7.26563-5.89063 13.15625-13.15625 13.15625-.48047 0-.95313-.02734-1.42188-.07812 6.59766-.70703 11.73829-6.29297 11.73829-13.07813S27.75 28.99218 21.15234 28.28516c.46875-.05079.94141-.07813 1.42188-.07813 7.26562 0 13.15625 5.89063 13.15625 13.15625"/><g clip-path="url(#j)"><path fill="#B7D4E2" d="M22.57422 49.7539c-.52735 0-1.04297-.04687-1.54297-.14062-3.89844-.72656-6.84766-4.14453-6.84766-8.25s2.94922-7.52344 6.84766-8.25c.5-.09375 1.01563-.14453 1.54297-.14453 4.63672 0 8.39453 3.75781 8.39453 8.39453s-3.75781 8.39063-8.39453 8.39063M43.9414 37.85547h-2.40235c-.1836-.9961-.44531-1.98047-.78515-2.9375l2.07812-1.19922c.21484-.125.36719-.32812.4336-.5625.0625-.23828.02734-.49219-.09376-.70312l-2.57812-4.46876c-.25781-.4414-.82422-.59374-1.26562-.33984l-2.08594 1.20313c-.65625-.77344-1.3789-1.4922-2.14844-2.14844l1.20313-2.08594c.12109-.21094.15624-.46484.08984-.70312-.0625-.23829-.21875-.44141-.42969-.5625l-4.46875-2.57813c-.44531-.25781-1.00781-.10547-1.26562.33985l-1.19922 2.07812c-.95703-.33984-1.9414-.60156-2.9414-.78516V20c0-.51172-.41407-.92578-.92579-.92578h-5.16016c-.51171 0-.92578.41406-.92578.92578v2.40234c-1 .1836-1.98437.44532-2.9414.78516l-1.19922-2.07812c-.25782-.44532-.82422-.59376-1.26563-.33985L9.1953 23.34766c-.21484.12109-.3711.32421-.4336.5625-.0625.23828-.03124.49218.09376.70312l1.20312 2.08594c-.77343.65625-1.49218 1.375-2.15234 2.14844l-2.08203-1.20313c-.4414-.2539-1.01172-.10156-1.26563.33985l-2.58203 4.46874c-.1211.21094-.15234.46485-.08984.70313.0625.23438.21875.4375.42969.5625l2.07812 1.19922c-.33594.95703-.60156 1.9414-.78515 2.9375H1.20702c-.51172 0-.92578.41797-.92578.92969v5.15625c0 .51172.41406.92578.92578.92578h2.40235c.18359 1 .44921 1.98437.78515 2.9414L2.3164 49.00781c-.21094.1211-.3672.32422-.4297.5625s-.03124.49219.08985.70313l2.58203 4.46875c.25391.4414.82422.59375 1.26563.33984l2.08203-1.20312c.66016.76953 1.3789 1.48828 2.15234 2.14843l-1.20312 2.08203c-.125.21485-.15625.46876-.09375.70704.0625.23437.21875.4375.4336.55859l4.46874 2.58203c.4414.2539 1.00782.10156 1.26563-.33984l1.19922-2.07813c.95703.33985 1.9414.60157 2.9414.78516v2.40234c0 .51172.41407.92578.92578.92578h5.16016c.51172 0 .92578-.41406.92578-.92578v-2.40234c1-.1836 1.98438-.44531 2.9414-.78516l1.19923 2.07813c.2578.4414.8203.59375 1.26562.33984l4.46875-2.58203c.21094-.1211.36719-.32422.42969-.5586.0664-.23828.03125-.49218-.08984-.70703l-1.20313-2.08203c.76953-.66015 1.49219-1.3789 2.14844-2.14843l2.08593 1.20312c.44141.2539 1.00782.10156 1.26563-.33984l2.57813-4.46875c.12109-.21094.15624-.46485.09374-.70313-.0664-.23828-.21874-.4414-.43359-.5625l-2.07812-1.19922c.33984-.95703.60156-1.9414.78515-2.9414h2.40235c.51172 0 .92968-.41407.92968-.92578v-5.15625c0-.51172-.41797-.9297-.92968-.9297"/></g><g mask="url(#k)"><use xlink:href="#l" transform="translate(21 32)"/></g><g clip-path="url(#m)"><path fill="#4C7889" d="M63.5664 11.1289v6.0547c0 .51171-.41796.92968-.92968.92968h-1.71094c-.13672.38281-.29297.76172-.46875 1.13281l1.20703 1.20313c.17578.17578.27344.41015.27344.65625s-.09766.48437-.27344.65625l-4.29297 4.28515c-.36328.35938-.94922.35938-1.30859 0l-1.21094-1.20703c-.3711.17579-.7539.33204-1.14062.46875v1.70704c0 .51171-.41407.92578-.92578.92578H49.75v-2.1172c5.52734-.65234 9.82813-5.6289 9.82813-11.66796 0-6.04297-4.30079-11.01953-9.82813-11.67187V.36718h3.03516c.51172 0 .92578.41798.92578.9297V3c.38672.14063.76953.29688 1.14062.47266l1.21094-1.20703c.35938-.36329.94531-.36329 1.3086 0l4.29296 4.28125c.17578.17578.27344.41015.27344.65625s-.09766.48437-.27344.65625L60.45703 9.0664c.17578.37109.33203.75.46875 1.1328h1.71094c.51172 0 .92969.41407.92969.9297"/></g><g clip-path="url(#n)"><path fill="#668FA3" d="M49.75 20.6914a6.44 6.44 0 0 1-1.20312-.11328c-3.03516-.5625-5.33204-3.22265-5.33204-6.42187s2.29688-5.85937 5.33203-6.42578c.39063-.07422.79297-.10938 1.20313-.10938 3.60938 0 6.53516 2.92579 6.53516 6.53516s-2.92578 6.53516-6.53516 6.53516m12.88672-10.4922h-1.71094c-.13672-.3828-.29297-.76171-.46875-1.1328l1.20703-1.20703c.17578-.17188.27344-.41016.27344-.65625 0-.2461-.09766-.48047-.27344-.65625L57.3711 2.26563c-.36328-.36329-.94922-.36329-1.30859 0l-1.21094 1.20703c-.3711-.17578-.7539-.33203-1.14062-.47266V1.29688c0-.51172-.41407-.9297-.92578-.9297h-6.07032c-.51172 0-.92968.41798-.92968.9297V3c-.38672.14063-.76563.29688-1.13672.47266L43.4375 2.26563c-.36328-.36329-.94922-.36329-1.3125 0l-4.29297 4.28125c-.17187.17578-.26953.41015-.26953.65625s.09766.48437.26953.65625l1.21094 1.20703c-.17578.37109-.33203.75-.47266 1.1328h-1.71093c-.51172 0-.92579.41407-.92579.9297v6.05468c0 .51172.41407.9297.92578.9297h1.71094c.14063.3828.29688.76171.47266 1.1328l-1.21094 1.20313c-.17187.17578-.26953.41015-.26953.65625s.09766.48437.26953.65625l4.29297 4.28515c.36328.35938.94922.35938 1.3125 0l1.21094-1.20703q.55664.26368 1.13672.46875v1.70704c0 .51171.41797.92578.92968.92578h6.07032c.51172 0 .92578-.41407.92578-.92579V25.3086c.38672-.13671.76953-.29296 1.14062-.46875l1.21094 1.20704c.35938.35937.94531.35937 1.3086 0l4.29296-4.28516c.17578-.17188.27344-.41016.27344-.65625 0-.2461-.09766-.48047-.27344-.65625l-1.20703-1.20313c.17578-.37109.33203-.75.46875-1.1328h1.71094c.51172 0 .92969-.41798.92969-.9297v-6.05468c0-.51563-.41797-.9297-.9297-.9297"/></g><g mask="url(#o)"><use xlink:href="#p" transform="translate(48 7)"/></g><g clip-path="url(#q)"><path fill="#4C7889" d="M63.5625 37.69531c0 .51172-.41406.92578-.92578.92578h-.75781c-.15235 1.10157-.58203 2.14063-1.25391 3.02735l.53516.53515c.36328.36328.36328.94922 0 1.3125-.1797.1797-.41797.26953-.65235.26953-.23828 0-.47656-.08984-.66015-.26953l-.53516-.53515c-.88672.66797-1.92187 1.09765-3.02734 1.2539l.0039.75391c0 .51172-.41797.92969-.92968.92969v-1.84375c2.7539-.80078 4.76562-3.34375 4.76562-6.35547s-2.01562-5.55469-4.76562-6.35547v-1.85547c.51171 0 .92578.41406.92578.92578v.75782c1.10156.15624 2.14062.58203 3.02734 1.2539l.53516-.53516c.36328-.35937.94922-.35937 1.3125 0 .36328.36329.36328.94922 0 1.3125l-.53516.53516c.67188.89063 1.10156 1.92578 1.2539 3.02734h.75782c.51172 0 .92578.41797.92578.9297"/></g><g clip-path="url(#r)"><path fill="#668FA3" d="M55.35938 40.76563c-.34766 0-.6797-.0547-.98829-.16407-1.21093-.41015-2.08593-1.5586-2.08593-2.91015 0-1.35157.875-2.5 2.08593-2.90625.3086-.10938.64063-.16797.98828-.16797 1.69532 0 3.07422 1.3789 3.07422 3.07422 0 1.69922-1.3789 3.07422-3.07422 3.07422m7.27735-4h-.75781c-.15235-1.10157-.58203-2.13672-1.25391-3.02735l.53516-.53516c.36328-.36328.36328-.94921 0-1.3125-.36328-.35937-.94922-.35937-1.3125 0l-.53516.53516c-.88672-.67187-1.92578-1.09766-3.02734-1.2539v-.75782c0-.51172-.41407-.92578-.92578-.92578s-.9297.41406-.9297.92578v.75782c-1.10155.15624-2.13671.58203-3.02734 1.2539l-.53515-.53516c-.35938-.36328-.94922-.36328-1.3086 0-.36328.36329-.36328.94922 0 1.3125l.53516.53516c-.67187.88672-1.10156 1.92188-1.2539 3.02734h-.75782c-.51172 0-.92578.41407-.92578.92579s.41406.92578.92578.92578h.75781c.15235 1.10547.58203 2.14062 1.25391 3.03125l-.53516.53515c-.36328.36328-.36328.94922 0 1.3086.1797.1836.41797.27343.65625.27343s.47266-.08984.65235-.27343l.53515-.53516c.89063.67188 1.9297 1.10156 3.03125 1.25781v.75391c0 .51172.41407.92969.92578.92969s.9297-.41797.9297-.92969l-.00391-.7539c1.10547-.15626 2.14062-.58594 3.02734-1.25391l.53516.53515c.18359.1797.42187.26953.66015.26953.23438 0 .47266-.08984.65235-.26953.36328-.36328.36328-.94922 0-1.3125l-.53516-.53515c.67188-.88672 1.10156-1.92578 1.2539-3.02735h.75782c.51172 0 .92578-.41406.92578-.92578s-.41406-.92968-.92578-.92968"/></g><g mask="url(#s)"><use xlink:href="#t" transform="translate(54 34)"/></g><path fill="#668FA3" d="M22.57422 49.7539c-.52735 0-1.04297-.04687-1.54297-.14062-3.89844-.72656-6.84766-4.14453-6.84766-8.25s2.94922-7.52344 6.84766-8.25c.5-.09375 1.01563-.14453 1.54297-.14453 4.63672 0 8.39453 3.75781 8.39453 8.39453s-3.75781 8.39063-8.39453 8.39063m0-21.54688c-.48047 0-.95313.02735-1.42188.07813-6.59375.70703-11.73437 6.29296-11.73437 13.07812s5.14062 12.3711 11.73437 13.07813c.46875.05078.94141.07812 1.42188.07812 7.26562 0 13.15625-5.89062 13.15625-13.15625s-5.89063-13.15625-13.15625-13.15625"/><g clip-path="url(#u)"><path fill="#99BAC6" d="M44.8711 38.78516v5.15625c0 .51172-.41797.92578-.9297.92578h-2.40234c-.1836 1-.44531 1.98437-.78515 2.9414l2.07812 1.19922c.21484.1211.36719.32422.4336.5625.0625.23828.02734.49219-.09376.70313l-2.57812 4.46875c-.25781.4414-.82422.59375-1.26562.33984l-2.08594-1.20312c-.65625.76953-1.3789 1.48828-2.14844 2.14843l1.20313 2.08203c.12109.21485.15624.46876.08984.70704-.0625.23437-.21875.4375-.42969.55859l-4.46875 2.58203c-.44531.2539-1.00781.10156-1.26562-.33984l-1.19922-2.07813c-.95703.33985-1.9414.60157-2.9414.78516v2.40234c0 .51172-.41407.92578-.92579.92578h-2.58203v-3.02343c9.49219-1.67188 16.6875-9.66407 16.6875-19.26563 0-9.60547-7.19531-17.59375-16.6875-19.26562v-3.02344h2.58203c.51172 0 .92578.41406.92578.92578v2.40234c1 .1836 1.98438.44532 2.9414.78516l1.19923-2.07812c.2578-.44532.8203-.59766 1.26562-.33985l4.46875 2.57813c.21094.12109.36719.32421.42969.5625.0664.23828.03125.49218-.08984.70312l-1.20313 2.08594c.76953.65625 1.49219 1.375 2.14844 2.14844l2.08593-1.20313c.44141-.25781 1.00782-.10156 1.26563.33985l2.57813 4.46874c.12109.21094.15624.46485.09374.70313-.0664.23438-.21874.4375-.43359.5625l-2.07812 1.19922c.33984.95703.60156 1.9375.78515 2.9375h2.40235c.51172 0 .92968.41797.92968.92969"/></g><g clip-path="url(#v)"><path fill="#4C7889" d="M63.5664 11.1289v6.0547c0 .51171-.41796.92968-.92968.92968h-1.71094c-.13672.38281-.29297.76172-.46875 1.13281l1.20703 1.20313c.17578.17578.27344.41015.27344.65625s-.09766.48437-.27344.65625l-4.29297 4.28515c-.36328.35938-.94922.35938-1.30859 0l-1.21094-1.20703c-.3711.17579-.7539.33204-1.14062.46875v1.70704c0 .51171-.41407.92578-.92578.92578H49.75v-2.1172c5.52734-.65234 9.82813-5.6289 9.82813-11.66796 0-6.04297-4.30079-11.01953-9.82813-11.67187V.36718h3.03516c.51172 0 .92578.41798.92578.9297V3c.38672.14063.76953.29688 1.14062.47266l1.21094-1.20703c.35938-.36329.94531-.36329 1.3086 0l4.29296 4.28125c.17578.17578.27344.41015.27344.65625s-.09766.48437-.27344.65625L60.45703 9.0664c.17578.37109.33203.75.46875 1.1328h1.71094c.51172 0 .92969.41407.92969.9297"/></g><g clip-path="url(#w)"><path fill="#4C7889" d="M63.5625 37.69531c0 .51172-.41406.92578-.92578.92578h-.75781c-.15235 1.10157-.58203 2.14063-1.25391 3.02735l.53516.53515c.36328.36328.36328.94922 0 1.3125-.1797.1797-.41797.26953-.65235.26953-.23828 0-.47656-.08984-.66015-.26953l-.53516-.53515c-.88672.67187-1.92187 1.09765-3.02734 1.2539l.0039.75782c0 .51172-.41797.92578-.92968.92578v-1.84375c2.7539-.80078 4.76562-3.34375 4.76562-6.35547s-2.01562-5.55469-4.76562-6.35547v-1.85547c.51171 0 .92578.41406.92578.92578v.75782c1.10156.15624 2.14062.58593 3.02734 1.2539l.53516-.53516c.36328-.35937.94922-.35937 1.3125 0 .36328.36329.36328.94922 0 1.3125l-.53516.53516c.67188.89063 1.10156 1.92578 1.2539 3.02734h.75782c.51172 0 .92578.41797.92578.9297"/></g></g><mask id="k"><g filter="url(#x)"><path fill-opacity=".5" d="M-352.73792-84.1666h751.01184v184.3632h-751.01184z"/></g></mask><mask id="o"><g filter="url(#x)"><path fill-opacity=".5" d="M-352.73792-84.1666h751.01184v184.3632h-751.01184z"/></g></mask><mask id="s"><g filter="url(#x)"><path fill-opacity=".5" d="M-352.73792-84.1666h751.01184v184.3632h-751.01184z"/></g></mask><filter id="x" width="100%" height="100%" x="0%" y="0%"><feColorMatrix color-interpolation-filters="sRGB" values="0 0 0 0 1 0 0 0 0 1 0 0 0 0 1 0 0 0 1 0"/></filter></defs><g fill="#FF7F00"><use xlink:href="#y" x="9.14538" y="36.45803"/><use xlink:href="#z" x="22.40482" y="36.45803"/><use xlink:href="#A" x="35.33055" y="36.45803"/><use xlink:href="#B" x="42.51646" y="36.45803"/><use xlink:href="#C" x="53.26195" y="36.45803"/><use xlink:href="#B" x="63.62923" y="36.45803"/><use xlink:href="#D" x="74.37472" y="36.45803"/><use xlink:href="#E" x="86.87775" y="36.45803"/><use xlink:href="#z" x="97.62323" y="36.45803"/><use xlink:href="#A" x="110.54897" y="36.45803"/></g><use xlink:href="#F" x="122.4296" y="36.45803" fill="#FF7F00"/><use xlink:href="#G" x="53.81371" y="63.15452" fill="#FF7F00"/><use xlink:href="#H" x="67.00419" y="63.15452" fill="#FF7F00"/><use xlink:href="#I" x="78.71521" y="63.15452" fill="#FF7F00"/><use xlink:href="#J" x="404.3859" y="35.03283" fill="#007F7F"/><g fill="#007F7F"><use xlink:href="#K" x="411.30484" y="35.03283"/><use xlink:href="#L" x="430.59332" y="35.03283"/><use xlink:href="#M" x="441.51679" y="35.03283"/><use xlink:href="#E" x="452.37351" y="35.03283"/></g><use xlink:href="#N" x="467.81211" y="35.03283" fill="#007F7F"/><g fill="#007F7F"><use xlink:href="#O" x="480.87133" y="35.03283"/><use xlink:href="#F" x="489.41432" y="35.03283"/></g><use xlink:href="#P" x="503.38568" y="35.03283" fill="#007F7F"/><use xlink:href="#Q" x="430.03284" y="61.72932" fill="#007F7F"/><g fill="#007F7F"><use xlink:href="#R" x="439.42347" y="61.72932"/><use xlink:href="#G" x="445.3257" y="61.72932"/></g><use xlink:href="#S" x="455.49498" y="61.72932" fill="#007F7F"/><use xlink:href="#H" x="464.41841" y="61.72932" fill="#007F7F"/><use xlink:href="#T" x="476.12944" y="61.72932" fill="#007F7F"/><path fill="none" stroke="#000" stroke-miterlimit="10" stroke-width=".3955" d="M159.15235 42.16406h217.00399"/><path stroke="#000" stroke-miterlimit="10" stroke-width=".3955" d="M379.96485 42.16406c-.46876-.1289-2.52344-.83984-3.8086-1.61328v3.22656c1.28516-.77734 3.33984-1.48828 3.8086-1.61328Zm0 0"/><use xlink:href="#U" x="218.92403" y="22.92134"/><use xlink:href="#V" x="230.29244" y="22.92134"/><use xlink:href="#z" x="242.35052" y="22.92134"/><use xlink:href="#C" x="255.27625" y="22.92134"/><use xlink:href="#A" x="265.64353" y="22.92134"/><use xlink:href="#W" x="272.82944" y="22.92134"/><use xlink:href="#V" x="278.90298" y="22.92134"/><use xlink:href="#z" x="290.96106" y="22.92134"/><use xlink:href="#N" x="308.58001" y="22.92134"/><use xlink:href="#X" transform="translate(238 56)"/></svg>