<svg xmlns="http://www.w3.org/2000/svg" xmlns:xlink="http://www.w3.org/1999/xlink" width="349.22pt" height="454.34pt" viewBox="0 0 349.22 454.34"><defs><path id="b" d="M1.82813 0h5.53125v-.48437l-1.42188-.125c-.35937-.03126-.54687-.15626-.54687-.82813v-9.90625l-.09375-.09375-3.46875.59375v.40625l1.57812.20313c.28125.03125.39063.15625.39063.64062v8.15625c0 .67188-.17188.79688-.5625.82813l-1.40625.125Zm0 0"/><path id="c" d="M.45313-.15625.625 0h6.95313l.57812-2.21875-.46875-.09375C7.32813-1.39062 7-1.26562 6.3125-1.26562H2.01563c.28125-.875 1.28125-2.07813 2.82812-3.20313 1.60938-1.1875 2.85938-1.9375 2.85938-3.8125 0-2.34375-1.54688-3.15625-3.3125-3.15625-2.3125 0-3.5 1.40625-3.5 2.28125 0 .5625.64062.84375.9375.84375.29687 0 .40625-.1875.48437-.46875.26563-1.14062.92188-2.0625 1.96875-2.0625 1.28125 0 1.65625 1.07813 1.65625 2.3125 0 1.79688-.90625 2.82813-2.375 4.10938C1.48438-2.60937.76563-1.46875.45313-.15625m0 0"/><path id="d" d="M.45313-1.71875C.45313-1 1.60938.20313 3.98438.20313c2.4375 0 3.98437-1.23438 3.98437-3.39063 0-2.25-1.9375-2.90625-2.875-3v-.07812c.92188-.14063 2.35938-.8125 2.35938-2.48438 0-1.85937-1.4375-2.6875-3.25-2.6875-2.21875 0-3.3125 1.29688-3.3125 2.01563 0 .51562.59375.79687.82812.79687.21875 0 .34375-.125.40625-.34375.375-1.14062 1-1.875 1.95313-1.875 1.32812 0 1.67187 1.17188 1.67187 2.10938 0 1-.35937 2.28125-1.79687 2.28125-.79688 0-1.26563-.17188-1.46875-.17188-.21875 0-.29688.17188-.29688.46875 0 .28125.07813.46875.29688.46875.20312 0 .67187-.15625 1.46875-.15625 1.4375 0 2.23437 1.28125 2.23437 2.75 0 2-.98437 2.70313-2.1875 2.70313-1.10937 0-1.82812-.82813-2.15625-1.78125-.10937-.3125-.26562-.46875-.5-.46875-.3125 0-.89062.3125-.89062.92187m0 0"/><path id="e" d="M.32813-3.35937.46875-3h4.57813v1.71875c0 .5625-.1875.65625-.59375.6875L3.375-.48437V0h4.4375v-.48437l-.75-.09375c-.39062-.04688-.5-.14063-.5-.70313V-3h1.71875v-.79687H6.5625v-7.4375H5.32813C3.75-8.90625 1.85938-6 .32813-3.35937m1.20312-.4375C2.54688-5.625 3.75-7.5625 5.04688-9.60937v5.8125Zm0 0"/><path id="f" d="M.6875-1.71875c0 .76563 1.17188 1.92188 3.35938 1.92188 2.76562 0 4.01562-1.6875 4.01562-3.8125 0-2.35938-1.45312-3.5625-3.46875-3.5625-.92187 0-1.95312.40625-2.48437.89062l.375-3.1875c.0625-.42187.15625-.48437.48437-.48437h4.1875l.40625-1.14063-.07812-.14062h-5.625l-.15626.15625-.34374 5.625.40625.21875c.70312-.8125 1.39062-1.20313 2.29687-1.20313 1.07813 0 2.25.78125 2.25 3 0 1.73438-.6875 3.04688-2.15625 3.04688-1.1875 0-1.78125-.84375-2.10937-1.8125-.09375-.25-.25-.40625-.48438-.40625-.34375 0-.875.34375-.875.89062m0 0"/><path id="g" d="M1.4375-4.26562h9.25v-.96875h-9.25Zm0 0"/><path id="h" d="M.70313-5.625c0 3.375.98437 5.82813 3.75 5.82813C7.23438.20313 8.23438-2.25 8.23438-5.625c0-3.35937-1-5.8125-3.78125-5.8125-2.76563 0-3.75 2.45313-3.75 5.8125m1.6875 0c0-2.73437.46875-5.21875 2.0625-5.21875s2.0625 2.48438 2.0625 5.21875c0 2.75-.46875 5.23438-2.0625 5.23438S2.39063-2.875 2.39063-5.625m0 0"/><path id="m" d="M.60938-9.32812c0 1.64062 1.64062 2.92187 5.375 2.92187-.625 1.09375-1.07813 2.23438-1.07813 3.46875 0 2.04688 1.29688 3.15625 3.64063 3.15625 2.28125 0 4.67187-1.65625 4.67187-3.78125 0-1.26562-1.0625-1.96875-2.39062-1.96875C9.35938-5.53125 7.625-3.875 7.625-2.5625c0 .39063.3125 1.15625.85938 1.15625.15625 0 .375-.125.375-.29687 0-.25-.4375-.26563-.4375-.84375 0-.90625 1.34375-2.375 2.40625-2.375.76562 0 1.21875.29687 1.21875 1.03125 0 1.64062-1.59375 3.51562-3.5 3.51562C7.1875-.375 6.5-1.10937 6.5-2.34375c0-1.39062.96875-3.01562 1.70313-4.21875 4.15625-.625 8.23437-2.67187 8.23437-5.28125 0-1-.79687-1.65625-1.875-1.65625-2.45312 0-6.17187 3.17188-8.21875 6.4375-1.6875-.01562-4.4375-.04687-4.4375-2.04687 0-1.82813 2.23438-3.23438 3.625-3.23438.25 0 .39063-.15625.39063-.3125s-.14063-.28125-.29688-.28125c-2.09375 0-5.01562 1.40625-5.01562 3.60938m7.98437 2.03125c1.35938-2.40625 4.26563-5.60938 5.96875-5.60938.65625 0 1.125.39063 1.125 1 0 2.09375-3.28125 4-7.09375 4.60938m0 0"/><path id="n" d="M-.28125 2.35938c.01563.45312.57813.79687 1.28125.79687 1.35938 0 2-1.07812 2.53125-3.54687L4.76563-5.875h1.64062l.14063-.54687H4.84375L5.23438-8C5.45313-8.875 5.6875-9.21875 6-9.21875s.53125.25.82813.92188c.09375.14062.20312.26562.42187.26562.3125 0 .71875-.26562.71875-.625 0-.57812-.73437-1.04687-1.59375-1.04687-1.64062 0-2.3125 1.1875-2.78125 2.85937l-.125.42188h-1.125l-.17187.54687h1.17187L1.8125 1.89063c-.125.67187-.25.76562-.375.76562-.14062 0-.35937-.125-.6875-.67187-.09375-.125-.1875-.3125-.39062-.3125-.3125 0-.64063.32812-.64063.6875m0 0"/><path id="p" d="M.42188 1.28125c0 1.14063 1.21875 1.875 2.9375 1.875 1.84375 0 3.26562-.75 3.26562-2.20312 0-1.01563-.8125-1.71875-2.3125-2.0625-1.125-.28126-1.57812-.4375-1.57812-.78125 0-.25.23437-.40625.51562-.48438.28125.03125.51563.03125.73438.03125 1.82812 0 2.90625-.96875 2.90625-2.32812 0-.35938-.09375-.65625-.25-.89063l1.0625-.15625.42187-.85937-.07812-.125-1.89063.51562c-.35937-.21875-1.03125-.39062-1.67187-.39062-2.23438 0-2.89063 1.40625-2.89063 2.42187 0 .90625.70313 1.5 1.14063 1.64063-.48438.15625-1.28125.48437-1.28125 1.03125 0 .45312.53125.84375 1 1.01562C1.5625-.32812.42188.1875.42188 1.28125m1.35937-.125c0-.92187.78125-1.32812 1.26563-1.40625.8125.10938 2.32812.4375 2.32812 1.53125 0 .96875-.8125 1.39063-1.71875 1.39063-1.04687 0-1.875-.57813-1.875-1.51563M3-3.90625c0-.85937.42188-2.15625 1.5625-2.15625.375 0 .98438.17188.98438 1.01563 0 1.1875-.625 2.20312-1.53125 2.20312C3.35938-2.84375 3-3.29687 3-3.90625m0 0"/><clipPath id="a"><path d="M8 .17578h340.4414v453.32813H8Zm0 0"/></clipPath><clipPath id="i"><path d="M330 299h18.4414v26H330Zm0 0"/></clipPath><clipPath id="j"><path d="M36 6h2v447.5039h-2Zm0 0"/></clipPath><clipPath id="k"><path d="M24 .17578h26V18H24Zm0 0"/></clipPath><clipPath id="l"><path d="M36.92578 28.85547h282.83984V399H36.92579Zm0 0"/></clipPath><clipPath id="o"><path d="M36.92578 166h282.83984v247H36.92579Zm0 0"/></clipPath></defs><g clip-path="url(#a)"><path fill="none" stroke="#000" stroke-miterlimit="10" stroke-opacity=".5" stroke-width=".39761" d="M8.64454 424.82417h339.4022M8.64454 368.25779h339.4022M8.64454 311.6914h339.4022M8.64454 255.1211h339.4022M8.64454 198.55475h339.4022m-339.4022-56.5664h339.4022M8.64454 85.42197h339.4022M8.64454 28.8556h339.4022M36.92578 453.10931V.57045M93.49607 453.1093V.57045m56.56638 452.53886V.57045m56.56638 452.53886V.57045m56.56639 452.53886V.57045M319.7655 453.1093V.57045"/></g><path fill="none" stroke="#000" stroke-miterlimit="10" stroke-opacity=".5" stroke-width=".39761" d="M93.49607 297.54688v28.28515"/><use xlink:href="#b" x="89.03913" y="331.54886" fill-opacity=".5"/><path fill="none" stroke="#000" stroke-miterlimit="10" stroke-opacity=".5" stroke-width=".39761" d="M150.06245 297.54688v28.28515"/><use xlink:href="#c" x="145.60578" y="331.54886" fill-opacity=".5"/><path fill="none" stroke="#000" stroke-miterlimit="10" stroke-opacity=".5" stroke-width=".39761" d="M206.62883 297.54688v28.28515"/><use xlink:href="#d" x="202.17244" y="331.45009" fill-opacity=".5"/><path fill="none" stroke="#000" stroke-miterlimit="10" stroke-opacity=".5" stroke-width=".39761" d="M263.19522 297.54688v28.28515"/><use xlink:href="#e" x="258.73909" y="331.45009" fill-opacity=".5"/><path fill="none" stroke="#000" stroke-miterlimit="10" stroke-opacity=".5" stroke-width=".39761" d="M319.7655 297.54688v28.28515"/><use xlink:href="#f" x="315.30575" y="331.3523" fill-opacity=".5"/><path fill="none" stroke="#000" stroke-miterlimit="10" stroke-opacity=".5" stroke-width=".39761" d="M51.0703 424.82417H22.78517"/><g fill-opacity=".5"><use xlink:href="#g" x="6.6262" y="430.54076"/><use xlink:href="#c" x="18.72173" y="430.54076"/></g><path fill="none" stroke="#000" stroke-miterlimit="10" stroke-opacity=".5" stroke-width=".39761" d="M51.0703 368.25779H22.78517"/><g fill-opacity=".5"><use xlink:href="#g" x="6.6262" y="373.97411"/><use xlink:href="#b" x="18.72173" y="373.97411"/></g><path fill="none" stroke="#000" stroke-miterlimit="10" stroke-opacity=".5" stroke-width=".39761" d="M51.0703 255.12112H22.78517"/><use xlink:href="#b" x="12.67369" y="260.8408" fill-opacity=".5"/><path fill="none" stroke="#000" stroke-miterlimit="10" stroke-opacity=".5" stroke-width=".39761" d="M51.0703 198.55474H22.78517"/><use xlink:href="#c" x="12.67369" y="204.27414" fill-opacity=".5"/><path fill="none" stroke="#000" stroke-miterlimit="10" stroke-opacity=".5" stroke-width=".39761" d="M51.0703 141.98835H22.78517"/><use xlink:href="#d" x="12.67369" y="147.6097" fill-opacity=".5"/><path fill="none" stroke="#000" stroke-miterlimit="10" stroke-opacity=".5" stroke-width=".39761" d="M51.0703 85.42197H22.78517"/><use xlink:href="#e" x="12.67369" y="91.04305" fill-opacity=".5"/><path fill="none" stroke="#000" stroke-miterlimit="10" stroke-opacity=".5" stroke-width=".39761" d="M51.0703 28.8556H22.78517"/><use xlink:href="#f" x="12.67369" y="34.37761" fill-opacity=".5"/><path fill="none" stroke="#000" stroke-miterlimit="10" stroke-opacity=".5" stroke-width=".39761" d="M36.92578 297.54688v28.28515"/><use xlink:href="#h" x="12.67369" y="337.10745" fill-opacity=".5"/><path fill="none" stroke="#000" stroke-miterlimit="10" stroke-width=".79523" d="M8.64454 311.6914h333.23814"/><path d="M346.03906 311.6914c-.51172-.10546-2.7539-.70702-4.15625-1.36327v2.72265c1.40235-.65234 3.64453-1.2539 4.15625-1.35937m0 0"/><g clip-path="url(#i)"><path fill="none" stroke="#000" stroke-miterlimit="10" stroke-width=".79523" d="M346.03906 311.6914c-.51172-.10546-2.7539-.70702-4.15625-1.36327v2.72265c1.40235-.65234 3.64453-1.2539 4.15625-1.35937Zm0 0"/></g><g clip-path="url(#j)"><path fill="none" stroke="#000" stroke-miterlimit="10" stroke-width=".79523" d="M36.92578 453.10931V6.73451"/></g><path d="M36.92578 2.57813c-.10547.51171-.70703 2.7539-1.35937 4.15625h2.72265c-.65625-1.40235-1.2539-3.64454-1.36328-4.15625m0 0"/><g clip-path="url(#k)"><path fill="none" stroke="#000" stroke-miterlimit="10" stroke-width=".79523" d="M36.92578 2.57813c-.10547.51172-.70703 2.7539-1.35937 4.15625h2.72265c-.65625-1.40235-1.2539-3.64453-1.36328-4.15625Zm0 0"/></g><g clip-path="url(#l)"><path fill="none" stroke="#007F7F" stroke-miterlimit="10" stroke-width=".79523" d="M8.64454-507.12074s10.21875 89.95308 14.14062 130.33588c3.92578 40.37889 10.21875 116.10932 14.14062 160.70306 3.92578 44.59373 10.21875 120.32416 14.14453 160.70305 3.92187 40.3828 10.21484 98.01168 14.14062 130.33588 3.92578 32.3203 10.21874 77.61716 14.14061 102.61715 3.92578 24.99608 10.21875 59.1406 14.14453 77.54684 3.92187 18.41015 10.21484 42.58201 14.14062 55.1367 3.92578 12.55858 10.21874 27.93357 14.14062 35.37498 3.92578 7.4414 10.21874 15.19921 14.14452 18.2578 3.92188 3.0625 10.21484 4.38672 14.14062 3.80078 3.92578-.58203 10.21875-4.51562 14.14062-8.0078 3.92578-3.4922 10.21875-11.4961 14.14062-17.16406 3.92578-5.66406 10.21875-16.5664 14.14452-23.66796 3.92188-7.10547 10.21484-19.71874 14.14062-27.52343 3.92578-7.80468 10.21875-20.95702 14.14062-28.72655 3.92578-7.76952 10.21875-20.27733 14.14453-27.27733 3.92187-7 10.21484-17.67968 14.14062-23.17186 3.92578-5.4961 10.21874-13.17187 14.14062-16.42187 3.92578-3.2539 10.21874-6.7461 14.14452-7.01953 3.92187-.27344 10.21484 1.60156 14.14062 5.03906s10.21875 11.85937 14.14062 19.74609c3.92578 7.88671 10.21874 24.03124 14.14452 37.10545 3.92188 13.0703 10.21484 38.12108 14.14062 57.11326 3.92188 18.99608 14.14062 79.7773 14.14062 79.7773"/></g><use xlink:href="#m" x="280.95348" y="180.40944" fill="#007F7F"/><use xlink:href="#n" x="296.20142" y="184.78367" fill="#007F7F"/><g clip-path="url(#o)"><path fill="none" stroke="#FF7F00" stroke-miterlimit="10" stroke-width=".79523" d="M8.64454 401.49215S18.8633 383.91013 22.78516 376.707c3.92578-7.19921 10.21875-19.59374 14.14062-27.11717 3.92578-7.52344 10.21875-19.91796 14.14453-27.11718 3.92187-7.20312 10.21484-18.23046 14.14062-24.78514 3.92578-6.55078 10.21874-16.54297 14.14061-22.44921 3.92578-5.90625 10.21875-14.85547 14.14453-20.11718 3.92187-5.25781 10.21484-13.17187 14.14062-17.78124 3.92578-4.61328 10.21874-11.48828 14.14062-15.44922 3.92578-3.96484 10.21874-9.80077 14.14452-13.11718 3.92188-3.3164 10.21484-8.11328 14.14062-10.78124 3.92578-2.67188 10.21875-6.42969 14.14062-8.45312 3.92578-2.01954 10.21875-4.74219 14.14062-6.11328 3.92578-1.375 10.21875-3.0586 14.14452-3.78516 3.92188-.72656 10.21484-1.3711 14.14062-1.44922s10.21875.31641 14.14062.88282c3.92578.5703 10.21875 2.0039 14.14453 3.21874 3.92187 1.21485 10.21484 3.6875 14.14062 5.55078s10.21874 5.375 14.14062 7.88672c3.92578 2.51172 10.21874 7.05468 14.14452 10.21484 3.92187 3.16015 10.21484 8.74609 14.14062 12.55077 3.92578 3.8086 10.21875 10.4336 14.14062 14.88672 3.92578 4.45312 10.21874 12.11718 14.14452 17.21874 3.92188 5.10156 10.21484 13.80077 14.14062 19.55077 3.92188 5.7461 14.14062 21.8828 14.14062 21.8828"/></g><use xlink:href="#m" x="137.68946" y="183.00265" fill="#FF7F00"/><use xlink:href="#p" x="152.9394" y="187.37488" fill="#FF7F00"/></svg>