<svg xmlns="http://www.w3.org/2000/svg" xmlns:xlink="http://www.w3.org/1999/xlink" width="397.647pt" height="344.521pt" viewBox="0 0 397.647 344.521"><defs><path id="b" d="M1.4375-4.26562h9.25V-5.25h-9.25Zm0 0"/><path id="c" d="M.45313-1.71875C.45313-1 1.60938.20313 4 .20313c2.42188 0 3.96875-1.23438 3.96875-3.39063 0-2.25-1.9375-2.92187-2.85937-3.01562v-.0625c.90625-.14063 2.35937-.82813 2.35937-2.48438 0-1.875-1.45312-2.6875-3.26562-2.6875-2.21875 0-3.3125 1.28125-3.3125 2 0 .51563.59375.8125.82812.8125.21875 0 .34375-.125.40625-.34375.375-1.14062 1.01563-1.875 1.95313-1.875 1.32812 0 1.67187 1.15625 1.67187 2.10938 0 1-.35937 2.26562-1.79687 2.26562-.79688 0-1.26563-.15625-1.46875-.15625-.20313 0-.29688.15625-.29688.46875 0 .28125.09375.46875.29688.46875s.67187-.17187 1.46875-.17187c1.4375 0 2.25 1.29687 2.25 2.76562 0 2-1 2.70313-2.1875 2.70313-1.10938 0-1.84375-.82813-2.17188-1.78125-.10937-.3125-.26562-.48438-.5-.48438-.3125 0-.89062.32813-.89062.9375m0 0"/><path id="d" d="M.45313-.15625.625 0h6.96875l.57813-2.21875-.46875-.09375C7.34375-1.39062 7-1.26562 6.32813-1.26562h-4.3125c.28125-.89063 1.28125-2.07813 2.84375-3.20313 1.60937-1.1875 2.85937-1.9375 2.85937-3.82812 0-2.34375-1.5625-3.14063-3.32812-3.14063-2.3125 0-3.5 1.39063-3.5 2.26563 0 .57812.65625.84375.9375.84375.29687 0 .40625-.17188.48437-.46875.26563-1.14063.92188-2.04688 1.96875-2.04688 1.28125 0 1.65625 1.0625 1.65625 2.29688 0 1.8125-.90625 2.82812-2.375 4.125C1.48438-2.60937.76563-1.46875.45313-.15625m0 0"/><path id="e" d="M1.82813 0h5.53125v-.48437l-1.42188-.125c-.34375-.03126-.54687-.15626-.54687-.82813v-9.92187l-.09375-.07813-3.46875.59375v.40625l1.57812.1875c.28125.04688.39063.17188.39063.65625v8.15625c0 .67188-.15625.79688-.5625.82813l-1.40625.125Zm0 0"/><path id="f" d="m.32813-3.35937.14062.34375h4.57813v1.71875c0 .57812-.17188.67187-.59375.70312l-1.0625.10938V0h4.4375v-.48437l-.75-.09375c-.40625-.04688-.5-.14063-.5-.71875v-1.71875h1.71875v-.78125H6.57813V-11.25H5.34375C3.76563-8.92187 1.85938-6 .32813-3.35937m1.21875-.4375c1-1.82813 2.21875-3.78125 3.5-5.8125v5.8125Zm0 0"/><path id="g" d="M.6875-1.71875c0 .76563 1.17188 1.92188 3.35938 1.92188 2.78125 0 4.03125-1.6875 4.03125-3.8125 0-2.375-1.46875-3.57813-3.46875-3.57813-.9375 0-1.95313.42188-2.5.90625l.375-3.1875c.0625-.4375.17187-.48437.48437-.48437h4.1875l.42188-1.15625-.09375-.14063h-5.625l-.15626.17188-.34374 5.60937.40625.21875c.70312-.79687 1.39062-1.20312 2.29687-1.20312 1.07813 0 2.26563.79687 2.26563 3.01562 0 1.73438-.70313 3.04688-2.17188 3.04688-1.1875 0-1.78125-.84375-2.10937-1.8125-.09375-.25-.25-.40625-.48438-.40625-.34375 0-.875.32812-.875.89062m0 0"/><path id="h" d="M.70313-5.625c0 3.375.98437 5.82813 3.75 5.82813C7.23438.20313 8.23438-2.25 8.23438-5.625c0-3.35937-1-5.8125-3.78125-5.8125-2.76563 0-3.75 2.45313-3.75 5.8125m1.70312 0c0-2.73437.45313-5.21875 2.04688-5.21875s2.0625 2.48438 2.0625 5.21875-.46875 5.23438-2.0625 5.23438-2.04688-2.5-2.04688-5.23438m0 0"/><clipPath id="a"><path d="M.10156 0H397v341H.10156Zm0 0"/></clipPath><clipPath id="i"><path d="M.10156 311H392v2H.10156Zm0 0"/></clipPath><clipPath id="j"><path d="M379 299h18.19531v26H379Zm0 0"/></clipPath></defs><g clip-path="url(#a)"><path fill="none" stroke="#000" stroke-miterlimit="10" stroke-opacity=".5" stroke-width=".39795" d="M.49601 311.77734h396.30485M.49601 255.16014h396.30485M.49601 198.54682h396.30485M.49601 141.92962h396.30485M.49601 85.31632h396.30485M.49601 28.6991h396.30485M28.80462 340.08204V.3944m56.6133 339.68764V.3944m56.6133 339.68764V.3944m56.61722 339.68764V.3944m56.6133 339.68764V.3944m56.61721 339.68764V.3944m56.6133 339.68764V.3944"/></g><path fill="none" stroke="#000" stroke-miterlimit="10" stroke-opacity=".5" stroke-width=".39795" d="M28.80462 297.62109v28.3086"/><g fill-opacity=".5"><use xlink:href="#b" x="18.2925" y="331.55203"/><use xlink:href="#c" x="30.39821" y="331.55203"/></g><path fill="none" stroke="#000" stroke-miterlimit="10" stroke-opacity=".5" stroke-width=".39795" d="M85.41792 297.62109v28.3086"/><g fill-opacity=".5"><use xlink:href="#b" x="74.90679" y="331.65089"/><use xlink:href="#d" x="87.0125" y="331.65089"/></g><path fill="none" stroke="#000" stroke-miterlimit="10" stroke-opacity=".5" stroke-width=".39795" d="M142.03123 297.62109v28.3086"/><g fill-opacity=".5"><use xlink:href="#b" x="131.52107" y="331.65089"/><use xlink:href="#e" x="143.62679" y="331.65089"/></g><path fill="none" stroke="#000" stroke-miterlimit="10" stroke-opacity=".5" stroke-width=".39795" d="M255.26174 297.62109v28.3086"/><use xlink:href="#e" x="250.80223" y="331.65089" fill-opacity=".5"/><path fill="none" stroke="#000" stroke-miterlimit="10" stroke-opacity=".5" stroke-width=".39795" d="M311.87895 297.62109v28.3086"/><use xlink:href="#d" x="307.41652" y="331.65089" fill-opacity=".5"/><path fill="none" stroke="#000" stroke-miterlimit="10" stroke-opacity=".5" stroke-width=".39795" d="M368.49226 297.62109v28.3086"/><use xlink:href="#c" x="364.03081" y="331.55203" fill-opacity=".5"/><path fill="none" stroke="#000" stroke-miterlimit="10" stroke-opacity=".5" stroke-width=".39795" d="M212.80079 255.16013h-28.3086"/><use xlink:href="#e" x="174.37349" y="260.88329" fill-opacity=".5"/><path fill="none" stroke="#000" stroke-miterlimit="10" stroke-opacity=".5" stroke-width=".39795" d="M212.80079 198.54683h-28.3086"/><use xlink:href="#d" x="174.37349" y="204.269" fill-opacity=".5"/><path fill="none" stroke="#000" stroke-miterlimit="10" stroke-opacity=".5" stroke-width=".39795" d="M212.80079 141.92962h-28.3086"/><use xlink:href="#c" x="174.37349" y="147.55585" fill-opacity=".5"/><path fill="none" stroke="#000" stroke-miterlimit="10" stroke-opacity=".5" stroke-width=".39795" d="M212.80079 85.31631h-28.3086"/><use xlink:href="#f" x="174.37349" y="90.94156" fill-opacity=".5"/><path fill="none" stroke="#000" stroke-miterlimit="10" stroke-opacity=".5" stroke-width=".39795" d="M212.80079 28.6991h-28.3086"/><use xlink:href="#g" x="174.37349" y="34.22941" fill-opacity=".5"/><path fill="none" stroke="#000" stroke-miterlimit="10" stroke-opacity=".5" stroke-width=".39795" d="M198.64844 297.62109v28.3086"/><use xlink:href="#h" x="174.37249" y="337.21416" fill-opacity=".5"/><g clip-path="url(#i)"><path fill="none" stroke="#000" stroke-miterlimit="10" stroke-width=".7959" d="M.49601 311.77734H390.6329"/></g><path d="M394.78906 311.77734c-.50781-.10937-2.7539-.71093-4.15625-1.36328v2.72266c1.40235-.65235 3.64844-1.2539 4.15625-1.35938m0 0"/><g clip-path="url(#j)"><path fill="none" stroke="#000" stroke-miterlimit="10" stroke-width=".7959" d="M394.78906 311.77734c-.5078-.10937-2.7539-.71093-4.15625-1.36328v2.72266c1.40235-.65235 3.64844-1.2539 4.15625-1.35938Zm0 0"/></g><path fill="none" stroke="#000" stroke-miterlimit="10" stroke-width=".7959" d="M198.64844 340.08204V6.56238"/><path stroke="#000" stroke-miterlimit="10" stroke-width=".7959" d="M198.64844 2.40234c-.10547.51172-.70703 2.75782-1.36329 4.16016h2.72657c-.65625-1.40234-1.25781-3.64844-1.36328-4.16016Zm0 0"/></svg>