<svg xmlns="http://www.w3.org/2000/svg" xmlns:xlink="http://www.w3.org/1999/xlink" width="234.889pt" height="295.601pt" viewBox="0 0 234.889 295.601"><defs><path id="b" d="M.5-4.0625C.5-1.625 1.23438.14063 3.23438.14063S5.95313-1.625 5.95313-4.0625s-.71875-4.20312-2.71875-4.20312S.5-6.5.5-4.0625m1.23438 0c0-1.98437.34375-3.78125 1.5-3.78125S4.70313-6.04687 4.70313-4.0625c0 1.98438-.3125 3.78125-1.46875 3.78125s-1.5-1.79687-1.5-3.78125m0 0"/><path id="l" d="M.40625-6.0625c0 1.0625 1.0625 1.89063 3.48438 1.89063-.39063.71875-.6875 1.45312-.6875 2.25 0 1.34375.82812 2.0625 2.35937 2.0625 1.48438 0 3.04688-1.07813 3.04688-2.45313 0-.82812-.6875-1.28125-1.5625-1.28125-.95313 0-2.07813 1.07813-2.07813 1.92188 0 .26562.1875.75.5625.75.09375 0 .23438-.07813.23438-.1875 0-.15626-.28125-.17188-.28125-.54688 0-.59375.875-1.54687 1.5625-1.54687.5 0 .79687.1875.79687.67187C7.84375-1.46875 6.8125-.25 5.5625-.25c-.875 0-1.32812-.46875-1.32812-1.28125 0-.90625.625-1.96875 1.10937-2.73437 2.70313-.42188 5.35938-1.75 5.35938-3.4375 0-.65625-.51563-1.07813-1.21875-1.07813-1.60938 0-4.03125 2.04688-5.35938 4.1875-1.09375-.01562-2.89062-.03125-2.89062-1.32812 0-1.1875 1.45312-2.10938 2.35937-2.10938.17188 0 .26563-.10937.26563-.20312 0-.10938-.09375-.1875-.20313-.1875-1.35937 0-3.25.92187-3.25 2.35937M5.59375-4.75C6.48438-6.3125 8.375-8.39062 9.48438-8.39062c.42187 0 .71875.23437.71875.64062 0 1.35938-2.125 2.59375-4.60938 3m0 0"/><path id="c" d="M1.1875 0h3.59375v-.3125l-.92187-.07812C3.625-.42187 3.5-.5 3.5-.9375V-7.375l-.04687-.0625-2.26563.39063v.26562l1.03125.125c.17188.01563.25.10938.25.42188V-.9375c0 .4375-.10937.51563-.35937.54688L1.1875-.3125Zm0 0"/><path id="d" d="M.29688-.10937.42188 0h4.53125l.35937-1.4375L5.01563-1.5c-.23438.59375-.45313.67188-.89063.67188H1.32813c.17187-.5625.82812-1.34375 1.84375-2.07813 1.04687-.76562 1.85937-1.26562 1.85937-2.48437 0-1.53125-1.01562-2.04688-2.17187-2.04688-1.5 0-2.26563.90625-2.26563 1.48438 0 .35937.42188.54687.60938.54687s.26562-.125.3125-.3125c.17187-.73437.60937-1.32812 1.28125-1.32812.82812 0 1.07812.6875 1.07812 1.5 0 1.17187-.59375 1.82812-1.54687 2.67187C.98438-1.70312.51563-.95312.29688-.10937m0 0"/><path id="e" d="M.29688-1.125c0 .46875.76562 1.25 2.3125 1.25C4.1875.125 5.1875-.67187 5.1875-2.07812c0-1.45313-1.25-1.89063-1.85937-1.95313v-.04687c.59375-.09375 1.53125-.53125 1.53125-1.60938 0-1.21875-.9375-1.75-2.10938-1.75-1.45312 0-2.15625.84375-2.15625 1.29688 0 .34375.39063.53125.53125.53125s.21875-.07813.26563-.21875c.25-.75.65625-1.21875 1.28125-1.21875.85937 0 1.07812.75 1.07812 1.35937 0 .65625-.23437 1.48438-1.17187 1.48438-.51563 0-.82813-.10938-.95313-.10938-.14062 0-.1875.10938-.1875.3125 0 .1875.04688.29688.1875.29688.125 0 .4375-.10938.95313-.10938.9375 0 1.46875.84375 1.46875 1.79688C4.04688-.70312 3.40625-.25 2.625-.25c-.73437 0-1.20312-.54687-1.42187-1.15625-.0625-.21875-.17188-.3125-.3125-.3125-.20313 0-.59375.20313-.59375.59375m0 0"/><path id="f" d="m.21875-2.1875.09375.23438h2.98438v1.10937c0 .375-.125.4375-.39063.45313l-.6875.07812V0h2.875v-.3125L4.60938-.375c-.25-.03125-.32813-.09375-.32813-.46875v-1.10937h1.125v-.51563h-1.125V-7.3125h-.79687C2.45313-5.79687 1.21875-3.90625.21875-2.1875m.79688-.28125c.65625-1.1875 1.4375-2.45312 2.28125-3.78125v3.78125Zm0 0"/><path id="g" d="M.45313-1.125c0 .51563.76562 1.25 2.1875 1.25 1.8125 0 2.625-1.09375 2.625-2.46875 0-1.54687-.95313-2.32812-2.26563-2.32812-.60937 0-1.26562.26562-1.60937.59375L1.625-6.15625c.04688-.28125.10938-.3125.3125-.3125h2.73438l.26562-.75-.0625-.09375H1.21875l-.09375.10938-.23437 3.65625.26562.14062c.46875-.53125.90625-.78125 1.5-.78125.70313 0 1.46875.51563 1.46875 1.95313C4.125-1.10937 3.67188-.25 2.71875-.25c-.78125 0-1.15625-.54687-1.375-1.1875-.0625-.15625-.17187-.26562-.3125-.26562-.23437 0-.57812.21874-.57812.57812m0 0"/><path id="i" d="M.9375-2.76562h6.01563v-.64063H.9375Zm0 0"/><path id="m" d="M-.1875 1.53125c.01563.29688.375.51563.84375.51563.875 0 1.28125-.70313 1.64063-2.29688l.79687-3.5625h1.0625L4.25-4.17187H3.14063l.26562-1.03125c.14063-.5625.28125-.78125.5-.78125.1875 0 .34375.15625.53125.59375.0625.09375.125.17187.28125.17187.1875 0 .45313-.17187.45313-.40625 0-.375-.46875-.6875-1.03125-.6875-1.0625 0-1.5.78125-1.8125 1.85938L2.25-4.17187h-.73437l-.10938.35937h.76563l-1 5.04688c-.07813.4375-.15626.5-.23438.5-.09375 0-.23437-.09376-.45312-.4375-.0625-.09376-.125-.21876-.25-.21876-.20313 0-.42188.21876-.42188.45313m0 0"/><path id="o" d="M.26563.82813c0 .75.79687 1.21875 1.92187 1.21875 1.20313 0 2.125-.48438 2.125-1.42188 0-.67187-.53125-1.125-1.51562-1.34375C2.07813-.90625 1.76563-1 1.76563-1.23437c0-.15626.15624-.26563.34375-.3125.1875.03124.34375.03124.48437.03124 1.1875 0 1.89063-.64062 1.89063-1.53124 0-.21875-.0625-.42188-.17188-.5625L5-3.71875l.28125-.5625-.04687-.0625L4-4.01562c-.23437-.14063-.67187-.25-1.09375-.25-1.4375 0-1.875.90625-1.875 1.5625 0 .59375.46875.96875.73438 1.0625-.29688.10937-.82813.3125-.82813.67187 0 .29688.35938.54688.65625.65625C1.01563-.21875.26563.125.26563.82813M1.15625.75c0-.59375.51563-.85937.82813-.90625.51562.0625 1.5.28125 1.5.98438 0 .64062-.51563.90625-1.10938.90625-.6875 0-1.21875-.375-1.21875-.98438m.79688-3.29687c0-.54688.26562-1.39063 1.01562-1.39063.25 0 .625.10938.625.65625 0 .78125-.39062 1.4375-.98437 1.4375-.42188 0-.65625-.29687-.65625-.70312m0 0"/><clipPath id="a"><path d="M31 0h203.67578v295.20313H31Zm0 0"/></clipPath><clipPath id="h"><path d="M216 190h18.67578v26H216Zm0 0"/></clipPath><clipPath id="j"><path d="M31 6h2v289.20313h-2Zm0 0"/></clipPath><clipPath id="k"><path d="M13.47266.39453h220.80859V264H13.47265Zm0 0"/></clipPath><clipPath id="n"><path d="M13.47266 104h220.80859v169H13.47265Zm0 0"/></clipPath></defs><g clip-path="url(#a)"><path fill="none" stroke="#7f7f7f" stroke-dasharray=".39796202500000005 .9949350220000001" stroke-miterlimit="10" stroke-width=".39796" d="M31.8711 276.40625h202.41014M31.8711 239.60156h202.41015M31.8711 202.80078h202.41015M31.8711 166h202.41015M31.8711 129.19922h202.41015M31.8711 92.39844h202.41015M31.8711 55.59766h202.41015M31.8711 18.79688h202.41015M31.8711 294.80468V.39455M68.6758 294.8047V.39454m36.80077 294.41015V.39454m36.80078 294.41015V.39454m36.80078 294.41015V.39454m36.80078 294.41015V.39454"/></g><use xlink:href="#b" x="15.75876" y="219.74439" fill="#7f7f7f"/><path fill="none" stroke="#7f7f7f" stroke-miterlimit="10" stroke-width=".39796" d="M68.67578 193.60156v18.40235"/><use xlink:href="#c" x="65.76326" y="224.01063" fill="#7f7f7f"/><path fill="none" stroke="#7f7f7f" stroke-miterlimit="10" stroke-width=".39796" d="M105.47656 193.60156v18.40235"/><use xlink:href="#d" x="102.56458" y="224.01063" fill="#7f7f7f"/><path fill="none" stroke="#7f7f7f" stroke-miterlimit="10" stroke-width=".39796" d="M142.27734 193.60156v18.40235"/><use xlink:href="#e" x="139.36491" y="224.01063" fill="#7f7f7f"/><path fill="none" stroke="#7f7f7f" stroke-miterlimit="10" stroke-width=".39796" d="M179.07812 193.60156v18.40235"/><use xlink:href="#f" x="176.16624" y="223.8828" fill="#7f7f7f"/><path fill="none" stroke="#7f7f7f" stroke-miterlimit="10" stroke-width=".39796" d="M215.8789 193.60156v18.40235"/><use xlink:href="#g" x="212.96657" y="223.8828" fill="#7f7f7f"/><path fill="none" stroke="#000" stroke-miterlimit="10" stroke-width=".79593" d="M13.47266 202.80078h214.64062"/><path d="M232.26953 202.80078c-.51172-.10547-2.7539-.70703-4.15625-1.35937v2.72265c1.40234-.65234 3.64453-1.2539 4.15625-1.36328m0 0"/><g clip-path="url(#h)"><path fill="none" stroke="#000" stroke-miterlimit="10" stroke-width=".79593" d="M232.26953 202.80078c-.51172-.10547-2.7539-.70703-4.15625-1.35937v2.72265c1.40235-.65234 3.64453-1.2539 4.15625-1.36328Zm0 0"/></g><path fill="none" stroke="#7f7f7f" stroke-miterlimit="10" stroke-width=".39796" d="M41.07422 276.40625H22.67188"/><g fill="#7f7f7f"><use xlink:href="#i" x="4.41407" y="280.12289"/><use xlink:href="#d" x="12.2831" y="280.12289"/></g><path fill="none" stroke="#7f7f7f" stroke-miterlimit="10" stroke-width=".39796" d="M41.07422 239.60156H22.67188"/><g fill="#7f7f7f"><use xlink:href="#i" x="4.41407" y="243.32256"/><use xlink:href="#c" x="12.2831" y="243.32256"/></g><path fill="none" stroke="#7f7f7f" stroke-miterlimit="10" stroke-width=".39796" d="M41.07422 166H22.67188"/><use xlink:href="#c" x="12.28245" y="169.72091" fill="#7f7f7f"/><path fill="none" stroke="#7f7f7f" stroke-miterlimit="10" stroke-width=".39796" d="M41.07422 129.19922H22.67188"/><use xlink:href="#d" x="12.28245" y="132.92058" fill="#7f7f7f"/><path fill="none" stroke="#7f7f7f" stroke-miterlimit="10" stroke-width=".39796" d="M41.07422 92.39844H22.67188"/><use xlink:href="#e" x="12.28245" y="96.05535" fill="#7f7f7f"/><path fill="none" stroke="#7f7f7f" stroke-miterlimit="10" stroke-width=".39796" d="M41.07422 55.59766H22.67188"/><use xlink:href="#f" x="12.28245" y="59.25502" fill="#7f7f7f"/><path fill="none" stroke="#7f7f7f" stroke-miterlimit="10" stroke-width=".39796" d="M41.07422 18.79688H22.67188"/><use xlink:href="#g" x="12.28245" y="22.38978" fill="#7f7f7f"/><g clip-path="url(#j)"><path fill="none" stroke="#000" stroke-miterlimit="10" stroke-width=".79593" d="M31.8711 294.80469V6.5625"/></g><path stroke="#000" stroke-miterlimit="10" stroke-width=".79593" d="M31.8711 2.40625c-.10548.50781-.70704 2.7539-1.35938 4.15625h2.72266c-.65235-1.40234-1.25391-3.64844-1.36329-4.15625Zm0 0"/><g clip-path="url(#k)"><path fill="none" stroke="#007f7f" stroke-miterlimit="10" stroke-width=".79593" d="M13.47266-329.89452s6.64843 58.51953 9.19922 84.78906c2.55468 26.27344 6.64843 75.53906 9.19921 104.55078 2.5547 29.01172 6.64844 78.28125 9.20313 104.55078 2.55078 26.27344 6.64453 63.76562 9.19922 84.79297 2.55468 21.02734 6.64843 50.49609 9.19922 66.76171C62.02734 131.8125 66.12109 154.02344 68.67578 166c2.55078 11.97656 6.64453 27.70313 9.19922 35.8711 2.55078 8.16796 6.64844 18.17187 9.19922 23.01171 2.55468 4.83985 6.64844 9.89063 9.19922 11.8789 2.55468 1.9922 6.64843 2.85548 9.20312 2.47266 2.55078-.3789 6.64453-2.9375 9.19922-5.20703 2.55469-2.27343 6.64844-7.48047 9.19922-11.16797 2.55469-3.6875 6.64843-10.77734 9.20312-15.39843 2.55078-4.6211 6.64453-12.82813 9.19922-17.90625 2.55078-5.07813 6.64844-13.63281 9.19922-18.6875 2.55469-5.05469 6.64844-13.1914 9.19922-17.7461 2.55469-4.55468 6.64844-11.5039 9.20312-15.07812 2.55078-3.57422 6.64453-8.5664 9.19922-10.6836 2.55469-2.11327 6.64844-4.38671 9.19922-4.5625 2.55469-.17968 6.64844 1.03907 9.20312 3.27735 2.55079 2.23438 6.64454 7.71484 9.19922 12.84375 2.55078 5.13281 6.64844 15.63672 9.19922 24.14062 2.55469 8.50391 6.64844 24.80079 9.19922 37.16016 2.55469 12.35547 9.20312 51.89844 9.20312 51.89844"/></g><use xlink:href="#l" x="93.71453" y="252.61802" fill="#007f7f"/><use xlink:href="#m" x="103.63574" y="255.46378" fill="#007f7f"/><g clip-path="url(#n)"><path fill="none" stroke="#ff7f00" stroke-miterlimit="10" stroke-width=".79593" d="M13.47266 261.22266s6.64843-11.4375 9.19922-16.1211c2.55468-4.6836 6.64843-12.7461 9.19921-17.64062 2.5547-4.89844 6.64844-12.96094 9.20313-17.64453 2.55078-4.6836 6.64453-11.85938 9.19922-16.1211 2.55468-4.26562 6.64843-10.76562 9.19922-14.60547 2.55468-3.84375 6.64843-9.66796 9.20312-13.08984 2.55078-3.42187 6.64453-8.57031 9.19922-11.57031 2.55078-2.9961 6.64844-7.47266 9.19922-10.05078 2.55468-2.57813 6.64844-6.375 9.19922-8.53125 2.55468-2.15625 6.64843-5.28125 9.20312-7.01563 2.55078-1.73437 6.64453-4.18359 9.19922-5.4961 2.55469-1.3164 6.64844-3.08593 9.19922-3.98046 2.55469-.89453 6.64843-1.98828 9.20312-2.46094 2.55078-.47265 6.64453-.89062 9.19922-.9414 2.55078-.05078 6.64844.20312 9.19922.57422 2.55469.37109 6.64844 1.30078 9.19922 2.09375 2.55469.78906 6.64844 2.39843 9.20312 3.60937 2.55078 1.21484 6.64453 3.4961 9.19922 5.1289 2.55469 1.63673 6.64844 4.59376 9.19922 6.64844 2.55469 2.0547 6.64844 5.6875 9.20312 8.16407 2.55079 2.47656 6.64454 6.78906 9.19922 9.68359 2.55078 2.89844 6.64844 7.88281 9.19922 11.20312 2.55469 3.32032 6.64844 8.98047 9.19922 12.71875 2.55469 3.7422 9.20312 14.23829 9.20312 14.23829"/></g><use xlink:href="#l" x="104.56089" y="114.84398" fill="#ff7f00"/><use xlink:href="#o" x="114.4821" y="117.68974" fill="#ff7f00"/></svg>