<svg xmlns="http://www.w3.org/2000/svg" xmlns:xlink="http://www.w3.org/1999/xlink" width="301.876pt" height="73.973pt" viewBox="0 0 301.876 73.973"><defs><path id="y" d="M-.34375 0h2.67188v-.34375l-.625-.07812c-.375-.03125-.42188-.15625-.3125-.48438.20312-.71875.45312-1.48437.73437-2.34375h2.73438l.8125 2.32813c.125.35937.0625.48437-.32813.51562l-.54687.0625V0h3.125v-.34375c-.71875-.07812-.84375-.10937-1.0625-.75L4.28125-8.42187H3.375L2.09375-4.8125c-.375 1.0625-.89062 2.5-1.3125 3.625-.26562.65625-.35937.79688-1.125.84375Zm2.64063-3.71875c.39062-1.21875.8125-2.40625 1.17187-3.48437h.04688l1.20312 3.48437Zm0 0"/><path id="z" d="M.39063 0h2.96875v-.34375c-.875-.07812-.90625-.09375-.90625-.71875v-2.84375c0-.3125.01562-.46875.10937-.67187.26563-.46875.8125-.875 1.45313-.875.82812 0 1.28125.45312 1.28125 1.51562v2.875c0 .625-.03125.64063-.92188.71875V0h2.98438v-.34375c-.875-.07812-.92188-.09375-.92188-.71875v-3.10937c0-1.23438-.67187-1.9375-1.78125-1.9375-.90625 0-1.46875.4375-2.21875.92187l-.17187-.92187-1.8125.3125V-5.5l.45312.0625c.3125.04688.40625.09375.40625.54688v3.82812c0 .625-.04687.64063-.92187.71875Zm0 0"/><path id="A" d="M.375-5.48437h.875V-1.25C1.25 0 2.17188.14063 2.60938.14063c.60937 0 1.20312-.3125 1.54687-.53125l-.09375-.25C3.76563-.53125 3.51563-.5 3.20313-.5c-.42188 0-.8125-.29687-.8125-1.20312v-3.78125h1.57812v-.48438H2.39063V-7.5h-.34375L1.3125-5.96875H.375Zm0 0"/><path id="B" d="m2.45313-6.84375.17187.25 1.84375-1.01562c.35938-.20313.6875-.40625.6875-.67188 0-.23437-.29687-.53125-.48437-.53125-.20313 0-.40625.14063-.76563.51563ZM.59375-2.9375c0 1.92188.82813 3.07813 2.8125 3.07813 1.34375 0 2.04688-.75 2.375-1.70313l-.35937-.20312c-.34375.71875-.8125 1.28125-1.76563 1.28125-1.51562 0-1.8125-1.45313-1.79687-2.71875H5.375c.26563 0 .48438-.0625.48438-.46875 0-.70313-.23438-2.4375-2.46875-2.4375-1.90625 0-2.79688 1.34375-2.79688 3.17187M1.875-3.67187c0-.5.1875-2.01563 1.45313-2.01563 1.125 0 1.25 1.15625 1.25 1.64063 0 .21875-.07813.375-.40625.375Zm0 0"/><path id="C" d="M.59375-2.92187c0 2.03125 1 3.0625 2.82813 3.0625.85937 0 2-.4375 2.34375-1.75l-.35938-.17188C5.03125-.92187 4.54688-.5 3.65625-.5 2.20313-.5 1.85938-2 1.85938-3.14062c0-1.82813.71875-2.54688 1.5625-2.54688.5625 0 .90625.40625 1.15625 1.0625.07812.1875.15625.3125.39062.3125s.70313-.15625.70313-.625c0-.54687-.79688-1.17187-2.125-1.17187-2.21875 0-2.95313 1.5625-2.95313 3.1875m0 0"/><path id="D" d="M.59375-2.85937c0 1.79687.95313 3 2.54688 3 .67187 0 1.21875-.29688 1.89062-.82813v.59375L5.125 0h1.96875v-.34375C6.23438-.42187 6.1875-.4375 6.1875-1.0625v-7.90625l-.09375-.0625-1.90625.29688v.3125l.46875.04687c.3125.03125.375.09375.375.5625v2C4.70313-6 4.25-6.10937 3.6875-6.10937c-1 0-1.75.3125-2.25.84375-.51562.53125-.84375 1.34375-.84375 2.40625M1.85938-3c0-1.57812.57812-2.6875 1.8125-2.6875.57812 0 1.04687.26563 1.26562.76563.09375.20312.09375.39062.09375.71875v2.125c0 .28125 0 .48437-.0625.6875C4.71875-.75 4.1875-.5 3.54688-.5 2.4375-.5 1.85938-1.60937 1.85938-3m0 0"/><path id="E" d="M.59375-2.9375c0 1.92188.82813 3.07813 2.8125 3.07813 1.34375 0 2.04688-.75 2.375-1.70313l-.35937-.20312c-.34375.71875-.8125 1.28125-1.76563 1.28125-1.51562 0-1.8125-1.45313-1.79687-2.71875H5.375c.26563 0 .48438-.0625.48438-.46875 0-.70313-.23438-2.4375-2.46875-2.4375-1.90625 0-2.79688 1.34375-2.79688 3.17187M1.875-3.67187c0-.5.1875-2.01563 1.45313-2.01563 1.125 0 1.25 1.15625 1.25 1.64063 0 .21875-.07813.375-.40625.375Zm0 0"/><path id="J" d="M.42188 0h3.40625v-.34375C2.76563-.42187 2.73438-.4375 2.73438-1.125v-6.17187c0-.6875.03125-.6875 1.09375-.76563v-.35937H.42188v.35937c1.07812.07813 1.10937.07813 1.10937.76563V-1.125c0 .6875-.03125.70313-1.10937.78125Zm0 0"/><path id="K" d="M.39063 0h2.96875v-.34375c-.875-.07812-.90625-.09375-.90625-.71875v-2.84375c0-.3125 0-.48437.07812-.65625.23438-.48437.76563-.89062 1.45313-.89062 1.04687 0 1.17187.76562 1.17187 1.51562v2.875c0 .625-.04687.64063-.92187.71875V0h2.96875v-.34375c-.875-.07812-.90625-.09375-.90625-.71875v-2.84375c0-.3125.01562-.46875.09375-.67187.17187-.48438.6875-.875 1.375-.875C8.53125-5.45312 9-5.03125 9-3.9375v2.875c0 .625-.03125.64063-.92187.71875V0h2.98437v-.34375c-.875-.07812-.92187-.09375-.92187-.71875v-3.10937c0-1.23438-.65625-1.9375-1.8125-1.9375-1 0-1.70313.65625-2.14063.92187-.29687-.5625-.76562-.92187-1.60937-.92187-.9375 0-1.70313.625-2.125.92187l-.125-.92187-1.875.3125V-5.5l.45312.0625c.3125.04688.40625.09375.40625.54688v3.82812c0 .625-.04687.64063-.92187.71875Zm0 0"/><path id="L" d="M.59375-1.57812c0 .90625.60938 1.71875 1.75 1.71875.71875 0 1.42188-.46875 1.8125-.71875.17188.45312.375.71875.8125.71875.45313 0 .96875-.125 1.4375-.35938L6.32813-.5c-.17188.03125-.45313.04688-.625 0-.21875-.0625-.4375-.28125-.4375-1.04687V-4.5c0-.70312-.15625-1.60937-1.98438-1.60937-1.375 0-2.46875.70312-2.46875 1.375 0 .39062.45313.57812.6875.57812.26563 0 .32813-.125.39063-.34375.26562-.90625.76562-1.1875 1.25-1.1875.48437 0 1.03125.25 1.03125 1.21875v.5c-.3125.3125-1.48438.625-2.45313.9375-.875.26563-1.125.875-1.125 1.45313M1.82813-1.75c0-.5625.25-.85937.9375-1.125.5-.1875 1.14062-.42187 1.40625-.57812v1.71875C4.17188-.75 3.42188-.5 2.9375-.5c-.75 0-1.10937-.53125-1.10937-1.25m0 0"/><path id="M" d="M.5 1.17188C.5 2.39063 1.73438 2.9375 3.14063 2.9375c.73437 0 1.5-.14062 2.07812-.48437.5625-.34375.96875-.92188.96875-1.67188C6.1875-.54687 5.14063-1 3.82813-1h-.96875c-.875 0-1-.29687-1-.53125 0-.34375.45312-.54687.60937-.59375.23438.03125.5.04688.625.04688 1.15625 0 2.46875-.51563 2.46875-1.98438 0-.51562-.17187-.9375-.375-1.14062l.96875-.15625.25-.76563-.10937-.10937-1.5625.5c-.32813-.23438-1.01563-.375-1.57813-.375-1.85937 0-2.51562 1.14062-2.51562 2.04687 0 1.14063.76562 1.67188 1.3125 1.8125v.01563C1.29688-1.96875.84375-1.625.84375-1.14062c0 .42187.48438.875 1.07813.95312v.01563C1.40625 0 .5.28125.5 1.17188m1.17188-.0625c0-.40625.10937-.71875.375-.92188.26562-.20312.67187-.28125 1.25-.28125 1.07812 0 1.875.28125 1.875 1.1875 0 .96875-.89063 1.4375-1.75 1.4375-1.03125 0-1.75-.53125-1.75-1.42187m.21874-5.17188c0-1.20312.625-1.625 1.26563-1.625.59375 0 1.21875.4375 1.21875 1.625 0 1.01563-.51562 1.54688-1.23437 1.54688-.67188 0-1.25-.53125-1.25-1.54688m0 0"/><path id="U" d="M.42188 0h3.59375v-.34375c-1.25-.07812-1.28125-.09375-1.28125-.78125v-2.85937H4.4375c1.03125 0 1.07813.29687 1.1875 1.0625h.35938v-2.59375H5.625c-.10937.78125-.15625 1.07812-1.1875 1.07812H2.73438v-3.125c0-.40625.03125-.4375.4375-.4375H4.375c1.42188 0 1.70313.28125 1.875 1.53125h.35938v-1.95312H.42188v.35937c1.07812.07813 1.10937.07813 1.10937.76563V-1.125c0 .6875-.03125.70313-1.10937.78125Zm0 0"/><path id="V" d="M.59375-2.98437c0 1.96875.96875 3.125 2.92188 3.125 1.96875 0 2.92187-1.15625 2.92187-3.125s-.95312-3.125-2.92187-3.125c-1.95313 0-2.92188 1.15625-2.92188 3.125m1.26563 0c0-1.67188.54687-2.70313 1.65625-2.70313 1.125 0 1.67187 1.03125 1.67187 2.70313 0 1.6875-.54687 2.70312-1.67187 2.70312-1.10938 0-1.65625-1.01562-1.65625-2.70312m0 0"/><path id="W" d="M1.10938-7.96875c0 .4375.3125.75.75.75.45312 0 .75-.3125.75-.75s-.29688-.73437-.75-.73437c-.4375 0-.75.29687-.75.73437M.39063 0h2.96875v-.34375c-.875-.07812-.90625-.09375-.90625-.71875v-4.96875l-.09375-.07812-1.90625.3125V-5.5l.45312.0625c.3125.04688.40625.09375.40625.54688v3.82812c0 .625-.04687.64063-.92187.71875Zm0 0"/><path id="F" d="M.85938-1.3125c0 .73438.32812 1.45313 1.15625 1.45313 1.3125 0 2.4375-1.5 3.15625-2.75h.01562l-.40625 1.39062c-.07812.26563-.125.5-.125.70313 0 .42187.20313.65625.65625.65625.92188 0 1.60938-.82813 2.01563-1.75l-.28125-.17188C6.82813-1.34375 6.28125-.5 5.95313-.5 5.79688-.5 5.75-.57812 5.75-.71875c0-.125.04688-.26562.07813-.4375l1.28125-4.85937H6.09375l-.0625.15625c-.20312-.14063-.5625-.25-.89062-.25-2.90625 0-4.28125 3.1875-4.28125 4.79687m1.20312-.01562c0-1.34375 1.1875-4.35938 3.10938-4.35938.29687 0 .54687.10938.73437.26563-.21875.92187-.64062 2.125-1.29687 3.09375C3.92188-1.29687 3.17188-.5 2.59375-.5c-.40625 0-.53125-.35937-.53125-.82812m0 0"/><path id="N" d="M-.26562 2.23438c.01562.40625.54687.70312 1.125.70312 1.21875 0 1.73437-.98437 2.23437-3.3125l1.125-5.125h1.54688l.10937-.46875H4.29688l.34375-1.375c.23437-.92187.46875-1.26562.79687-1.26562.32813 0 .54688.26562.8125.84375.07813.125.15625.21875.34375.21875.25 0 .59375-.21875.59375-.53125 0-.51563-.65625-.95313-1.39062-.95313-1.4375 0-2.03125 1.01563-2.5 2.625l-.125.4375H2.125L1.98438-5.5H3.0625L1.65625 1.67188c-.14062.75-.26562.82812-.39062.82812S.95313 2.40625.625 1.90625C.53125 1.78125.45313 1.625.29688 1.625c-.26563 0-.5625.3125-.5625.60938m0 0"/><path id="O" d="M1.04688-3.4375c0 2.75.625 5.76563 3.20312 5.875v-.35937c-.875-.17188-2.23437-1.25-2.23437-5.51563 0-4.23437 1.29687-5.3125 2.23437-5.5v-.35937c-2.57812.09375-3.20312 3.125-3.20312 5.85937m0 0"/><path id="P" d="M.71875 2.07813v.35937c2.57813-.10937 3.20313-3.125 3.20313-5.875 0-2.73437-.625-5.76562-3.20313-5.85937v.35937c.9375.1875 2.23438 1.26563 2.23438 5.5 0 4.26563-1.35938 5.34375-2.23438 5.51563m0 0"/><path id="G" d="M.60938-.92187c0 .51562.23437 1.01562.82812 1.01562.9375 0 1.6875-1.03125 2.17188-1.89062H3.625L3.35938-.875c-.04688.1875-.09375.34375-.09375.48438 0 .32812.17187.48437.5.48437.6875 0 1.1875-.59375 1.48437-1.25l-.21875-.125c-.17187.3125-.53125.875-.75.875-.10937 0-.125-.0625-.125-.15625 0-.07812.01563-.1875.04688-.29687l.875-3.34375h-.8125l-.04688.09375c-.14062-.09375-.39062-.17188-.625-.17188-2.03125 0-2.98437 2.23438-2.98437 3.35938M1.5625-.9375c0-.92187.82813-3.01562 2.07813-3.01562.1875 0 .35937.0625.48437.17187-.15625.625-.45312 1.46875-.90625 2.15625-.45312.70313-.9375 1.21875-1.3125 1.21875-.26562 0-.34375-.23437-.34375-.53125m0 0"/><path id="H" d="M.5625-2.39062c0 1.45312.85938 2.25 2.03125 2.25h1.82813v-.5625H2.59375c-.9375 0-1.32812-.60938-1.42187-1.42188H3.625v-.5625H1.17188c.09374-.78125.4375-1.39062 1.42187-1.39062h1.82813v-.5625H2.59375c-1.54687 0-2.03125 1.1875-2.03125 2.25m0 0"/><path id="I" d="M.23438-.34375c0 .35938.6875.46875 1.07812.46875.28125 0 .79688-.10937 1.14063-.26562.34375.125.57812.26562 1.01562.26562 1.70313 0 3.10938-1.92187 3.10938-3.73437 0-.32813-.04688-.64063-.15625-.95313.14062-.04687.42187-.0625.42187-.23437 0-.10938-.07812-.15625-.1875-.15625-.125 0-.26562.01562-.40625.04687-.5-.89062-1.46875-1.29687-2.51562-1.29687C2.25-6.20312.3125-5.01562.3125-3.4375c0 .85938.6875 1.15625 1.35938 1.15625 1.07812 0 2.14062-1.28125 2.14062-2.20312 0-.15625-.03125-.45313-.20312-.45313-.09375 0-.21875.04688-.21875.14063 0 .07812.03125.14062.03125.21875 0 .76562-.89063 1.98437-1.75 1.98437-.54688 0-.76563-.32812-.76563-.70312 0-1.35938 1.60938-2.57813 2.82813-2.57813.89062 0 1.71875.35938 2.14062 1.10938-.92187.45312-1.60937 1.46875-2.10937 2.3125C3.375-1.8125 2.84375-1.03125 2.25-.5625c-.28125-.125-.65625-.26562-.96875-.26562-.59375 0-1.04687.15624-1.04687.48437m.60937-.01562c0-.07813.28125-.125.375-.125.1875 0 .48438.0625.64063.125-.09376.0625-.45313.125-.54688.125-.20312 0-.46875-.03126-.46875-.125m2.01563 0C3.6875-.875 4.26563-1.5625 4.70313-2.3125c.40625-.67187.76562-1.40625 1.34375-1.96875.07812.21875.09375.4375.09375.67188 0 1.46875-1.28125 3.375-2.67188 3.375-.17187 0-.4375-.04688-.60937-.125m0 0"/><path id="Q" d="M-.1875 1.53125c.01563.29688.375.53125.84375.53125.89063 0 1.29688-.71875 1.64063-2.3125l.79687-3.57812h1.07813l.09375-.34375H3.15625l.25-1.04688c.14063-.5625.29688-.78125.5-.78125s.34375.15625.54688.59375c.04687.09375.125.17188.26562.17188.20313 0 .46875-.17188.46875-.40625 0-.375-.46875-.67188-1.03125-.67188-1.07812 0-1.51562.76563-1.8125 1.85938L2.25-4.17187h-.73437l-.10938.34375h.76563l-1 5.0625c-.07813.4375-.15626.5-.23438.5-.09375 0-.23437-.07813-.45312-.4375-.0625-.09376-.125-.20313-.25-.20313-.20313 0-.42188.21875-.42188.4375m0 0"/><path id="R" d="M.73438-2.40625c0 1.84375.46875 4.03125 2.1875 4.10938v-.28126c-.59375-.10937-1.4375-.98437-1.4375-3.82812 0-2.82812.8125-3.6875 1.4375-3.8125V-6.5C1.20313-6.4375.73438-4.23437.73438-2.40625m0 0"/><path id="S" d="M.51563 1.42188v.28124C2.23438 1.625 2.70313-.5625 2.70313-2.40625c0-1.82812-.46875-4.03125-2.1875-4.09375v.28125c.625.125 1.4375.98438 1.4375 3.8125 0 2.84375-.85938 3.71875-1.4375 3.82813m0 0"/><path id="T" d="M.45313 0H2.125v-2.39062h.46875L3.98438 0h1.67187L4.23438-2.48437c.76562-.25 1.21875-.96875 1.21875-1.67188 0-1-.79688-1.75-1.875-1.75h-3.125ZM.9375-.48437v-4.9375h.6875v4.9375ZM2.125-2.875v-2.54687h1.45313V-2.875Zm1.0625.48438h.64063l1.0625 1.90625h-.65625Zm.875-.5625v-2.40625c.51563.14062.90625.6875.90625 1.20312 0 .54688-.42187 1.10938-.90625 1.20313m0 0"/><clipPath id="i"><path d="M13 11h14v26.6289H13Zm0 0"/></clipPath><clipPath id="j"><path d="M.19531 11H27v26.6289H.19531Zm0 0"/></clipPath><clipPath id="b"><path d="M.26953.77344H6.0547v9.76953H.26953Zm0 0"/></clipPath><clipPath id="a"><path d="M0 0h7v11H0z"/></clipPath><clipPath id="m"><path d="M28 .80469h9.02344V17H28Zm0 0"/></clipPath><clipPath id="n"><path d="M20 .80469h17.02344V17H20Zm0 0"/></clipPath><clipPath id="e"><path d="M.28125.02344h4.5039V7.6289H.28126Zm0 0"/></clipPath><clipPath id="d"><path d="M0 0h5v8H0z"/></clipPath><clipPath id="q"><path d="M32 17h5.02344v11H32Zm0 0"/></clipPath><clipPath id="r"><path d="M27 17h10.02344v11H27Zm0 0"/></clipPath><clipPath id="g"><path d="M.67188.73438h2.36328V4.3125H.67188Zm0 0"/></clipPath><clipPath id="f"><path d="M0 0h4v5H0z"/></clipPath><clipPath id="u"><path d="M13 11h14v26.6289H13Zm0 0"/></clipPath><clipPath id="v"><path d="M28 .80469h9.02344V17H28Zm0 0"/></clipPath><clipPath id="w"><path d="M32 17h5.02344v11H32Zm0 0"/></clipPath><clipPath id="h"><path d="M0 0h38v38H0z"/></clipPath><g id="l" clip-path="url(#a)"><g clip-path="url(#b)"><path fill="#75ccf4" d="M6.05469 5.66016c0 2.6953-2.1875 4.8828-4.88672 4.8828-.30469 0-.60547-.03124-.89844-.08593 2.26953-.41797 3.98438-2.41015 3.98438-4.79687 0-2.39063-1.71485-4.37891-3.98438-4.80079C.5625.8047.86328.77345 1.16797.77345c2.69922 0 4.88672 2.1875 4.88672 4.88672"/></g></g><g id="p" clip-path="url(#d)"><g clip-path="url(#e)"><path fill="#75ccf4" d="M4.78516 3.82813c0 2.09765-1.70313 3.80078-3.8047 3.80078-.23827 0-.47265-.02344-.69921-.06641 1.76563-.32812 3.10547-1.875 3.10547-3.73437 0-1.86329-1.33984-3.41016-3.10547-3.7422.22656-.03906.46094-.0625.69922-.0625 2.10156 0 3.80469 1.70313 3.80469 3.8047"/></g></g><g id="t" clip-path="url(#f)"><g clip-path="url(#g)"><path fill="#75ccf4" d="M3.03516 2.52344c0 .98828-.80078 1.78906-1.78907 1.78906-.19921 0-.39453-.03516-.57421-.09766.70703-.23828 1.21484-.90625 1.21484-1.6914 0-.78906-.50781-1.45703-1.21484-1.69531.17968-.0625.375-.09376.57421-.09376.98829 0 1.78907.80079 1.78907 1.78907"/></g></g><g id="X" clip-path="url(#h)"><g clip-path="url(#i)"><path fill="#99bac6" d="M26.14453 23.15625v3.0039c0 .29688-.24219.53907-.54297.53907h-1.39453c-.10937.58203-.26172 1.15234-.46094 1.71094l1.21094.6953c.125.07423.21485.19141.2539.32813.03516.14063.01563.28516-.05468.41016l-1.5039 2.59766c-.14844.26172-.47657.34765-.73438.19922l-1.21485-.69922a11.11 11.11 0 0 1-1.25 1.25l.69922 1.21093c.07422.125.09375.27344.0547.41016-.03516.14063-.12891.25781-.25.32813l-2.60157 1.5c-.25781.15234-.58594.0625-.73438-.19532l-.69921-1.21093q-.8379.29882-1.71094.45703v1.39843c0 .29688-.24219.53907-.53907.53907h-1.5039v-1.75782c5.52734-.97656 9.71094-5.625 9.71094-11.21093 0-5.58985-4.1836-10.23829-9.71094-11.21485V11.6875h1.5039c.29688 0 .53907.24219.53907.53906V13.625q.87305.1582 1.71093.45703l.69922-1.21094c.14844-.2578.47657-.34765.73438-.1953l2.60156 1.5c.1211.0703.21485.1875.25.32812.03906.13672.01953.28515-.05469.41015l-.69921 1.21094a11.11 11.11 0 0 1 1.25 1.25l1.21484-.69922c.25781-.14844.58594-.0586.73437.19922l1.50391 2.59766c.07031.125.08984.26953.05469.41015-.03907.13672-.1289.2539-.2539.32813l-1.21095.69531c.19922.5586.35157 1.1289.46094 1.71094h1.39453c.30078 0 .54297.24218.54297.53906"/></g><path fill="#4c7889" d="M20.82422 24.66016c0 4.22656-3.42578 7.65234-7.65625 7.65234-.27735 0-.55469-.01562-.82422-.04297 3.83594-.41406 6.82813-3.66406 6.82813-7.60937 0-3.94922-2.9922-7.19922-6.82813-7.61329.26953-.02734.54688-.04296.82422-.04296 4.23047 0 7.65625 3.42578 7.65625 7.65625"/><g clip-path="url(#j)"><path fill="#b7d4e2" d="M13.16797 29.54297c-.30469 0-.60547-.03125-.89844-.08594-2.26562-.41797-3.98437-2.41015-3.98437-4.79687 0-2.39063 1.71875-4.37891 3.98437-4.80079.29297-.05468.59375-.08593.89844-.08593 2.69922 0 4.88672 2.1875 4.88672 4.88672 0 2.6953-2.1875 4.8828-4.88672 4.8828m12.4336-6.92577h-1.39454c-.10937-.58203-.26172-1.15235-.46094-1.71094l1.21094-.69531c.125-.07422.21485-.1914.2539-.32813.03516-.14062.01563-.28515-.05468-.41015l-1.5039-2.59766c-.14844-.25781-.47657-.34766-.73438-.19922l-1.21485.69922a11.11 11.11 0 0 0-1.25-1.25l.69922-1.21094c.07422-.125.09375-.27343.0547-.41015-.03516-.14063-.12891-.25782-.25-.32813l-2.60157-1.5c-.25781-.14844-.58594-.0625-.73438.19531l-.69921 1.21094q-.8379-.29883-1.71094-.45703v-1.39844c0-.29687-.24219-.53906-.53907-.53906h-3.0039c-.29688 0-.53906.24219-.53906.53906V13.625c-.58203.10547-1.15625.25781-1.71094.45703l-.69922-1.21094c-.14844-.2578-.47656-.34375-.73437-.1953l-2.60157 1.5c-.125.0703-.21484.1875-.25.32812-.03906.13672-.01953.28515.05469.41015l.69922 1.21094c-.44922.38281-.8711.80078-1.2539 1.25l-1.21094-.69922c-.25782-.14844-.58985-.0586-.73829.19922l-1.5 2.59766c-.0703.125-.08984.26953-.05468.41015.03906.13672.1289.2539.2539.32813l1.20703.69531a11.75 11.75 0 0 0-.45703 1.71094H.73438c-.29688 0-.53907.24218-.53907.53906v3.0039c0 .29688.24219.53907.53906.53907h1.39844a11.75 11.75 0 0 0 .45703 1.71094l-1.20703.6953c-.125.07423-.21484.19141-.2539.32813-.03516.14063-.01563.28516.05468.41016l1.5 2.59766c.14844.26172.48047.34765.73828.19922l1.21094-.69922c.38281.44921.80469.86718 1.2539 1.25l-.69921 1.21484c-.07422.1211-.09375.26953-.05469.40625.03516.14063.125.25781.25.32813l2.60157 1.5c.2578.15234.58593.0625.73437-.19532l.69922-1.21093c.55469.19921 1.1289.35156 1.71094.45703v1.39843c0 .29688.24218.53907.53906.53907h3.0039c.29688 0 .53907-.2422.53907-.53907v-1.39843q.87305-.15821 1.71093-.45703l.69922 1.21093c.14844.25782.47657.34766.73438.19532l2.60156-1.5c.1211-.07032.21485-.1875.25-.32813.03906-.13672.01953-.28516-.05469-.41016l-.69921-1.21093a11.11 11.11 0 0 0 1.25-1.25l1.21484.69921c.25781.14844.58594.0625.73437-.19921l1.50391-2.59766c.07031-.125.08984-.26953.05469-.41016-.03907-.13671-.1289-.2539-.2539-.32812l-1.21095-.69531c.19922-.5586.35157-1.12891.46094-1.71094h1.39453c.30078 0 .54297-.24219.54297-.53906v-3.00391c0-.29687-.24219-.53906-.54297-.53906"/></g><g mask="url(#k)"><use xlink:href="#l" transform="translate(12 19)"/></g><g clip-path="url(#m)"><path fill="#4c7889" d="M37.02344 7.0625v3.52734c0 .29688-.24219.53907-.53907.53907h-.99609c-.08203.22265-.17187.4414-.27734.66015l.70312.69922c.10157.10156.16016.23828.16016.38281s-.0586.28125-.16016.38282l-2.4961 2.49218c-.21093.21094-.55077.21094-.76171 0l-.70703-.70312c-.21485.10156-.4375.19531-.66016.27344v.99218c0 .29688-.24218.53907-.53906.53907h-1.76953v-1.23047c3.21875-.3789 5.71875-3.27735 5.71875-6.79297s-2.5-6.41016-5.71875-6.78906V.80469H30.75c.29688 0 .53906.24219.53906.53906v.99219c.22266.07812.44532.17187.66016.27344l.70703-.70313c.21094-.21094.55078-.21094.76172 0l2.4961 2.49219c.10155.10156.16015.23828.16015.38281s-.0586.28125-.16016.38281l-.70312.69922c.10547.21485.19531.4375.27734.66016h.9961c.29687 0 .53906.24219.53906.53906"/></g><g clip-path="url(#n)"><path fill="#668fa3" d="M28.98047 12.6289c-.23828 0-.47266-.02343-.69922-.0664-1.76562-.32812-3.10156-1.875-3.10156-3.73437 0-1.86329 1.33593-3.41016 3.10156-3.7422.22656-.03906.46094-.0625.69922-.0625 2.10156 0 3.80469 1.70313 3.80469 3.8047 0 2.09765-1.70313 3.80078-3.8047 3.80078m7.50391-6.10547h-.99609c-.08203-.22266-.17187-.44531-.27734-.66016l.70312-.69922c.10157-.10156.16016-.23828.16016-.38281s-.0586-.28125-.16016-.38281l-2.4961-2.49219c-.21093-.21094-.55077-.21094-.76171 0l-.70703.70313c-.21485-.10157-.4375-.19532-.66016-.27344v-.99219c0-.29687-.24218-.53906-.53906-.53906h-3.53516c-.29687 0-.53906.24219-.53906.53906v.99219c-.22265.07812-.44531.17187-.66015.27344l-.70704-.70313c-.21093-.21094-.55078-.21094-.76171 0l-2.5 2.49219c-.09766.10156-.15626.23828-.15626.38281s.0586.28125.15626.38281l.70703.69922c-.10547.21485-.19532.4375-.27735.66016h-.9961c-.29687 0-.53905.24219-.53905.53906v3.52734c0 .29688.24218.53907.53906.53907h.9961c.08202.22265.17187.4414.27734.66015l-.70704.69922c-.09765.10156-.15624.23828-.15624.38281s.05859.28125.15624.38282l2.5 2.49218c.21094.21094.55079.21094.76172 0l.70704-.70312c.21484.10156.4375.19531.66015.27344v.99218c0 .29688.24219.53907.53906.53907H30.75c.29688 0 .53906-.2422.53906-.53907v-.99218c.22266-.07813.44532-.17188.66016-.27344l.70703.70312c.21094.21094.55078.21094.76172 0l2.4961-2.49218c.10155-.10157.16015-.23828.16015-.38282 0-.14453-.0586-.28125-.16016-.3828l-.70312-.69923c.10547-.21875.19531-.4375.27734-.66015h.9961c.29687 0 .53906-.2422.53906-.53907V7.0625c0-.29687-.24219-.53906-.53907-.53906"/></g><g mask="url(#o)"><use xlink:href="#p" transform="translate(28 5)"/></g><g clip-path="url(#q)"><path fill="#4c7889" d="M37.01953 22.52344c0 .29687-.23828.53906-.53906.53906h-.4375c-.08984.64063-.33984 1.2461-.73047 1.76172l.3125.3125c.20703.21094.20703.55078 0 .76172-.10547.10547-.2461.16015-.38281.16015-.13672 0-.27735-.05468-.38282-.16015l-.3125-.3125c-.51562.39062-1.11718.64062-1.76171.73047v.4414c0 .29688-.23828.53907-.53907.53907v-1.07032c1.60157-.46875 2.77344-1.94922 2.77344-3.69922 0-1.7539-1.17187-3.23437-2.77344-3.69921v-1.08204c.29688 0 .53907.2422.53907.54297v.4375c.64062.08985 1.24609.33985 1.76172.73047l.3125-.3086c.21093-.21093.55078-.21093.76171 0 .21094.21094.21094.55079 0 .76173l-.30859.3125c.39063.51562.64063 1.11718.73047 1.76171h.4375c.30078 0 .53906.2422.53906.53907"/></g><g clip-path="url(#r)"><path fill="#668fa3" d="M32.2461 24.3125c-.19922 0-.39454-.03516-.57422-.09766-.70704-.23828-1.21485-.90625-1.21485-1.6914 0-.78907.50781-1.45703 1.21485-1.69532.17968-.0625.375-.09374.57421-.09374.98828 0 1.78907.80078 1.78907 1.78906s-.80078 1.78906-1.78907 1.78906m4.23438-2.32812h-.4375c-.08984-.64454-.33984-1.2461-.73047-1.76172l.3086-.3125c.21093-.21094.21093-.55079 0-.76172-.21094-.21094-.55079-.21094-.76172 0l-.3125.3086c-.51563-.39063-1.1211-.64063-1.76172-.73048v-.4375c0-.30078-.2422-.53906-.53907-.53906s-.53906.23828-.53906.53906v.4375c-.64062.08985-1.2461.33985-1.76172.73047l-.3125-.3125c-.21093-.20703-.55078-.20703-.76172 0-.21093.21094-.21093.55469 0 .76563l.3125.3125c-.39062.51562-.64062 1.11718-.73046 1.76171h-.44141c-.29688 0-.53906.23829-.53906.53907 0 .29687.24218.53906.53906.53906h.4414c.08985.64063.33985 1.2461.73047 1.76172l-.3125.3125c-.21093.21094-.21093.55078 0 .76172.10547.10547.2422.15625.38282.15625.13671 0 .27343-.05078.3789-.15625l.3125-.3125c.51563.39062 1.1211.64062 1.76172.73047v.4414c0 .29688.24219.53907.53906.53907.30078 0 .53907-.2422.53907-.53907v-.4414c.64453-.08985 1.24609-.33985 1.76172-.73047l.3125.3125c.10546.10547.24609.16015.3828.16015.13673 0 .27735-.05468.38282-.16015.20703-.21094.20703-.55078-.0039-.76172l-.3086-.3125c.39063-.51563.64063-1.1211.73047-1.76172h.4375c.30078 0 .53906-.24219.53906-.53906 0-.29688-.23828-.53907-.53906-.53907"/></g><g mask="url(#s)"><use xlink:href="#t" transform="translate(31 20)"/></g><path fill="#668fa3" d="M13.16797 29.54297c-.30469 0-.60547-.03125-.89844-.08594-2.26562-.41797-3.98437-2.41015-3.98437-4.79687 0-2.39063 1.71875-4.37891 3.98437-4.80079.29297-.05468.59375-.08593.89844-.08593 2.69922 0 4.88672 2.1875 4.88672 4.88672 0 2.6953-2.1875 4.8828-4.88672 4.8828m0-12.53905c-.27735 0-.55469.01562-.82422.04296-3.83984.41407-6.82812 3.66407-6.82812 7.61329 0 3.9453 2.98828 7.1953 6.82812 7.60937.26953.02734.54688.04297.82422.04297 4.23047 0 7.65625-3.42578 7.65625-7.65234 0-4.23047-3.42578-7.65625-7.65625-7.65625"/><g clip-path="url(#u)"><path fill="#99bac6" d="M26.14453 23.15625v3.0039c0 .29688-.24219.53907-.54297.53907h-1.39453c-.10937.58203-.26172 1.15234-.46094 1.71094l1.21094.6953c.125.07423.21485.19141.2539.32813.03516.14063.01563.28516-.05468.41016l-1.5039 2.59766c-.14844.26172-.47657.34765-.73438.19922l-1.21485-.69922a11.11 11.11 0 0 1-1.25 1.25l.69922 1.21093c.07422.125.09375.27344.0547.41016-.03516.14063-.12891.25781-.25.32813l-2.60157 1.5c-.25781.15234-.58594.0625-.73438-.19532l-.69921-1.21093q-.8379.29882-1.71094.45703v1.39843c0 .29688-.24219.53907-.53907.53907h-1.5039v-1.75782c5.52734-.97656 9.71094-5.625 9.71094-11.21093 0-5.58985-4.1836-10.23829-9.71094-11.21485V11.6875h1.5039c.29688 0 .53907.24219.53907.53906V13.625q.87305.1582 1.71093.45703l.69922-1.21094c.14844-.2578.47657-.34765.73438-.1953l2.60156 1.5c.1211.0703.21485.1875.25.32812.03906.13672.01953.28515-.05469.41015l-.69921 1.21094a11.11 11.11 0 0 1 1.25 1.25l1.21484-.69922c.25781-.14844.58594-.0586.73437.19922l1.50391 2.59766c.07031.125.08984.26953.05469.41015-.03907.13672-.1289.2539-.2539.32813l-1.21095.69531c.19922.5586.35157 1.1289.46094 1.71094h1.39453c.30078 0 .54297.24218.54297.53906"/></g><g clip-path="url(#v)"><path fill="#4c7889" d="M37.02344 7.0625v3.52734c0 .29688-.24219.53907-.53907.53907h-.99609c-.08203.22265-.17187.4414-.27734.66015l.70312.69922c.10157.10156.16016.23828.16016.38281s-.0586.28125-.16016.38282l-2.4961 2.49218c-.21093.21094-.55077.21094-.76171 0l-.70703-.70312c-.21485.10156-.4375.19531-.66016.27344v.99218c0 .29688-.24218.53907-.53906.53907h-1.76953v-1.23047c3.21875-.3789 5.71875-3.27735 5.71875-6.79297s-2.5-6.41016-5.71875-6.78906V.80469H30.75c.29688 0 .53906.24219.53906.53906v.99219c.22266.07812.44532.17187.66016.27344l.70703-.70313c.21094-.21094.55078-.21094.76172 0l2.4961 2.49219c.10155.10156.16015.23828.16015.38281s-.0586.28125-.16016.38281l-.70312.69922c.10547.21485.19531.4375.27734.66016h.9961c.29687 0 .53906.24219.53906.53906"/></g><g clip-path="url(#w)"><path fill="#4c7889" d="M37.01953 22.52344c0 .29687-.23828.53906-.53906.53906h-.4375c-.08984.64063-.33984 1.2461-.73047 1.76172l.3125.3125c.20703.21094.20703.55078 0 .76172-.10547.10547-.2461.16015-.38281.16015-.13672 0-.27735-.05468-.38282-.16015l-.3125-.3125c-.51562.39062-1.11718.64062-1.76171.73047v.4414c0 .29688-.23828.53907-.53907.53907v-1.07032c1.60157-.46875 2.77344-1.94922 2.77344-3.69922 0-1.7539-1.17187-3.23437-2.77344-3.69921V17.75c.29688 0 .53907.24219.53907.53906v.4375c.64062.09375 1.24609.33985 1.76172.73047l.3125-.3086c.21093-.21093.55078-.21093.76171 0 .21094.21094.21094.55079 0 .76173l-.30859.3125c.39063.51562.64063 1.12109.73047 1.76171h.4375c.30078 0 .53906.2422.53906.53907"/></g></g><mask id="k"><g filter="url(#x)"><path fill-opacity=".5" d="M-204.41272-48.27406h434.70144V58.24706h-434.70144z"/></g></mask><mask id="o"><g filter="url(#x)"><path fill-opacity=".5" d="M-204.41272-48.27406h434.70144V58.24706h-434.70144z"/></g></mask><mask id="s"><g filter="url(#x)"><path fill-opacity=".5" d="M-204.41272-48.27406h434.70144V58.24706h-434.70144z"/></g></mask><filter id="x" width="100%" height="100%" x="0%" y="0%"><feColorMatrix color-interpolation-filters="sRGB" values="0 0 0 0 1 0 0 0 0 1 0 0 0 0 1 0 0 0 1 0"/></filter></defs><g fill="#ff7f00"><use xlink:href="#y" x="4.31523" y="21.21748"/><use xlink:href="#z" x="12.03111" y="21.21748"/><use xlink:href="#A" x="19.5528" y="21.21748"/><use xlink:href="#B" x="23.7344" y="21.21748"/><use xlink:href="#C" x="29.98737" y="21.21748"/><use xlink:href="#B" x="36.02026" y="21.21748"/><use xlink:href="#D" x="42.27323" y="21.21748"/><use xlink:href="#E" x="49.54895" y="21.21748"/><use xlink:href="#z" x="55.80192" y="21.21748"/><use xlink:href="#A" x="63.32362" y="21.21748"/></g><use xlink:href="#F" x="70.23585" y="21.21748" fill="#ff7f00"/><use xlink:href="#G" x="30.44359" y="36.7526" fill="#ff7f00"/><use xlink:href="#H" x="38.11935" y="36.7526" fill="#ff7f00"/><use xlink:href="#I" x="44.93418" y="36.7526" fill="#ff7f00"/><use xlink:href="#J" x="234.85553" y="20.38782" fill="#007f7f"/><g fill="#007f7f"><use xlink:href="#K" x="238.88177" y="20.38782"/><use xlink:href="#L" x="250.10605" y="20.38782"/><use xlink:href="#M" x="256.46259" y="20.38782"/><use xlink:href="#E" x="262.7803" y="20.38782"/></g><use xlink:href="#N" x="271.76557" y="20.38782" fill="#007f7f"/><g fill="#007f7f"><use xlink:href="#O" x="279.36494" y="20.38782"/><use xlink:href="#F" x="284.33625" y="20.38782"/></g><use xlink:href="#P" x="292.46641" y="20.38782" fill="#007f7f"/><use xlink:href="#Q" x="249.7812" y="35.92294" fill="#007f7f"/><g fill="#007f7f"><use xlink:href="#R" x="255.23669" y="35.92294"/><use xlink:href="#G" x="258.6713" y="35.92294"/></g><use xlink:href="#S" x="264.58897" y="35.92294" fill="#007f7f"/><use xlink:href="#H" x="269.79072" y="35.92294" fill="#007f7f"/><use xlink:href="#T" x="276.60555" y="35.92294" fill="#007f7f"/><path fill="none" stroke="#000" stroke-miterlimit="10" stroke-width=".39834" d="M92.14843 24.53516h124.34761"/><path stroke="#000" stroke-miterlimit="10" stroke-width=".39834" d="M220.33203 24.53516c-.47266-.125-2.54297-.84375-3.83594-1.625v3.25c1.29297-.77735 3.36328-1.4961 3.83594-1.625Zm0 0"/><use xlink:href="#U" x="126.72495" y="13.34021"/><use xlink:href="#V" x="133.34041" y="13.34021"/><use xlink:href="#z" x="140.3572" y="13.34021"/><use xlink:href="#C" x="147.8789" y="13.34021"/><use xlink:href="#A" x="153.91179" y="13.34021"/><use xlink:href="#W" x="158.09338" y="13.34021"/><use xlink:href="#V" x="161.62767" y="13.34021"/><use xlink:href="#z" x="168.64446" y="13.34021"/><use xlink:href="#N" x="178.89852" y="13.34021"/><use xlink:href="#X" transform="translate(138 32)"/></svg>