<svg xmlns="http://www.w3.org/2000/svg" xmlns:xlink="http://www.w3.org/1999/xlink" width="319.694pt" height="255.915pt" viewBox="0 0 319.694 255.915"><defs><path id="b" d="M1.60938-4.79687h10.42187v-1.10938H1.60938Zm0 0"/><path id="c" d="M2.0625 0h6.21875v-.54687L6.6875-.6875c-.40625-.03125-.625-.17187-.625-.92187v-11.17188l-.09375-.09375-3.90625.65625v.46875l1.76563.21875c.32812.04688.4375.1875.4375.73438v9.1875c0 .75-.17188.89062-.625.92187L2.0625-.54687Zm0 0"/><path id="d" d="M.5-.1875.70313 0h7.84375l.64062-2.5-.51562-.09375C8.26563-1.57812 7.875-1.4375 7.10938-1.4375H2.28125c.29688-.98437 1.42188-2.32812 3.1875-3.59375C7.28125-6.375 8.6875-7.21875 8.6875-9.32812c0-2.64063-1.75-3.54688-3.75-3.54688C2.34375-12.875 1-11.3125 1-10.3125c0 .64063.73438.9375 1.0625.9375.34375 0 .45313-.20312.53125-.51562.3125-1.29688 1.04688-2.32813 2.21875-2.32813 1.45313 0 1.875 1.21875 1.875 2.60938 0 2.03125-1.03125 3.17187-2.67187 4.625C1.67188-2.9375.85938-1.65625.5-.1875m0 0"/><path id="e" d="M.5-1.9375C.5-1.125 1.8125.21875 4.5.21875c2.73438 0 4.46875-1.39062 4.46875-3.8125 0-2.53125-2.17187-3.28125-3.21875-3.375v-.07812c1.01563-.17188 2.65625-.9375 2.65625-2.8125 0-2.09375-1.64062-3.01563-3.67187-3.01563-2.5 0-3.73438 1.45313-3.73438 2.25 0 .59375.67188.90625.9375.90625.23438 0 .375-.14062.46875-.375.42188-1.29687 1.125-2.125 2.1875-2.125 1.5 0 1.875 1.3125 1.875 2.375 0 1.14063-.40625 2.5625-2.01562 2.5625-.90625 0-1.4375-.17187-1.65625-.17187-.23438 0-.34375.17187-.34375.51562 0 .32813.10937.53125.34375.53125.21875 0 .75-.1875 1.65625-.1875 1.60937 0 2.51562 1.45313 2.51562 3.10938 0 2.25-1.10937 3.04687-2.45312 3.04687-1.25 0-2.07813-.9375-2.4375-2-.125-.35937-.29688-.54687-.5625-.54687C1.17188-2.98437.5-2.625.5-1.9375m0 0"/><path id="f" d="M.78125-6.32812c0 3.78125 1.10938 6.54687 4.23438 6.54687s4.25-2.76562 4.25-6.54687c0-3.79688-1.125-6.54688-4.25-6.54688S.78125-10.125.78125-6.32812m1.92188 0c0-3.07813.51562-5.89063 2.3125-5.89063 1.79687 0 2.32812 2.8125 2.32812 5.89063S6.8125-.4375 5.01563-.4375 2.70313-3.25 2.70313-6.32812m0 0"/><path id="k" d="M.6875-10.5c0 1.82813 1.84375 3.29688 6.04688 3.29688-.6875 1.21875-1.20313 2.5-1.20313 3.89062C5.53125-1 6.98438.25 9.625.25c2.57813 0 5.26563-1.85937 5.26563-4.26562 0-1.42188-1.1875-2.20313-2.6875-2.20313-1.65625 0-3.60938 1.85938-3.60938 3.32813 0 .45312.34375 1.29687.96875 1.29687.17188 0 .42188-.125.42188-.32812 0-.26563-.48438-.29688-.48438-.9375 0-1.03125 1.5-2.6875 2.70313-2.6875.84375 0 1.35937.32812 1.35937 1.15625 0 1.85937-1.78125 3.96875-3.9375 3.96875-1.51562 0-2.29687-.82813-2.29687-2.21875 0-1.5625 1.09375-3.40625 1.92187-4.75 4.67188-.71875 9.26563-3.01563 9.26563-5.95313 0-1.125-.89063-1.85937-2.10938-1.85937-2.76562 0-6.95312 3.5625-9.26562 7.25-1.90625-.01563-4.98438-.0625-4.98438-2.29688 0-2.0625 2.5-3.65625 4.0625-3.65625.29688 0 .45313-.17187.45313-.35937 0-.17188-.15625-.3125-.32813-.3125C3.98438-14.57812.6875-12.98437.6875-10.5m8.98438 2.28125c1.54687-2.70312 4.8125-6.3125 6.73437-6.3125.75 0 1.26563.42188 1.26563 1.125 0 2.34375-3.70313 4.5-8 5.1875m0 0"/><path id="l" d="M-.3125 2.65625c.01563.51563.64063.90625 1.4375.90625 1.54688 0 2.25-1.23437 2.85938-4l1.375-6.17187h1.84375l.15625-.60938H5.45313l.4375-1.79687c.25-.98438.5-1.35938.85937-1.35938.34375 0 .59375.28125.9375 1.03125.09375.15625.23438.29688.48438.29688.34375 0 .79687-.29688.79687-.70313 0-.64062-.8125-1.17187-1.79687-1.17187-1.84375 0-2.59375 1.32812-3.125 3.21875l-.14063.48437H2.64063l-.20313.60938h1.32813L2.03125 2.125C1.89063 2.89063 1.75 3 1.60938 3c-.15626 0-.39063-.14062-.76563-.76562C.73438 2.07813.625 1.875.40625 1.875c-.35937 0-.71875.375-.71875.78125m0 0"/><clipPath id="a"><path d="M0 .07813h319.38672V255.75H0Zm0 0"/></clipPath><clipPath id="g"><path d="M301 147h18.38672v26H301Zm0 0"/></clipPath><clipPath id="h"><path d="M95 6h2v249.75h-2Zm0 0"/></clipPath><clipPath id="i"><path d="M83 .07813h26V18H83Zm0 0"/></clipPath><clipPath id="j"><path d="M.39844 29h318.59375v221H.39844Zm0 0"/></clipPath></defs><g clip-path="url(#a)"><path fill="none" stroke="#000" stroke-miterlimit="10" stroke-opacity=".5" stroke-width=".39812" d="M.39841 223.4922h318.59383M.39841 159.77344h318.59383M.39841 96.05467h318.59383M.39841 32.33591h318.59383M32.2578 255.35159V.47652M95.97656 255.3516V.47652m63.71877 254.87507V.47652m63.71876 254.87507V.47652m63.71877 254.87507V.47652"/></g><path fill="none" stroke="#000" stroke-miterlimit="10" stroke-opacity=".5" stroke-width=".39812" d="M32.2578 143.84375v31.85938"/><g fill-opacity=".5"><use xlink:href="#b" x="20.42645" y="182.14363"/><use xlink:href="#c" x="34.05127" y="182.14363"/></g><path fill="none" stroke="#000" stroke-miterlimit="10" stroke-opacity=".5" stroke-width=".39812" d="M159.69533 143.84375v31.85938"/><use xlink:href="#c" x="154.67595" y="182.14363" fill-opacity=".5"/><path fill="none" stroke="#000" stroke-miterlimit="10" stroke-opacity=".5" stroke-width=".39812" d="M223.4141 143.84375v31.85938"/><use xlink:href="#d" x="218.39396" y="182.14363" fill-opacity=".5"/><path fill="none" stroke="#000" stroke-miterlimit="10" stroke-opacity=".5" stroke-width=".39812" d="M287.13286 143.84375v31.85938"/><use xlink:href="#e" x="282.11297" y="182.03274" fill-opacity=".5"/><path fill="none" stroke="#000" stroke-miterlimit="10" stroke-opacity=".5" stroke-width=".39812" d="M111.90625 223.4922H80.04687"/><g fill-opacity=".5"><use xlink:href="#b" x="61.84281" y="229.93189"/><use xlink:href="#c" x="75.46763" y="229.93189"/></g><path fill="none" stroke="#000" stroke-miterlimit="10" stroke-opacity=".5" stroke-width=".39812" d="M111.90625 96.05467H80.04687"/><use xlink:href="#c" x="68.65529" y="102.49487" fill-opacity=".5"/><path fill="none" stroke="#000" stroke-miterlimit="10" stroke-opacity=".5" stroke-width=".39812" d="M111.90625 32.3359H80.04687"/><use xlink:href="#d" x="68.65529" y="38.77686" fill-opacity=".5"/><path fill="none" stroke="#000" stroke-miterlimit="10" stroke-opacity=".5" stroke-width=".39812" d="M95.97656 143.84375v31.85938"/><use xlink:href="#f" x="68.65529" y="188.40464" fill-opacity=".5"/><path fill="none" stroke="#000" stroke-miterlimit="10" stroke-width=".79624" d="M.39841 159.77344h312.42586"/><path d="M316.98438 159.77344c-.51172-.10547-2.75782-.70703-4.16016-1.36328v2.72656c1.40234-.65625 3.64844-1.25781 4.16015-1.36328m0 0"/><g clip-path="url(#g)"><path fill="none" stroke="#000" stroke-miterlimit="10" stroke-width=".79624" d="M316.98438 159.77344c-.51172-.10547-2.75782-.70703-4.16016-1.36328v2.72656c1.40234-.65625 3.64844-1.25781 4.16016-1.36328Zm0 0"/></g><g clip-path="url(#h)"><path fill="none" stroke="#000" stroke-miterlimit="10" stroke-width=".79624" d="M95.97656 255.35159V6.64839"/></g><path d="M95.97656 2.48438c-.10547.51171-.70703 2.7578-1.36328 4.16406h2.72656c-.65625-1.40625-1.2578-3.65235-1.36328-4.16406m0 0"/><g clip-path="url(#i)"><path fill="none" stroke="#000" stroke-miterlimit="10" stroke-width=".79624" d="M95.97656 2.48437c-.10547.51172-.70703 2.75782-1.36328 4.16407h2.72656c-.65625-1.40625-1.2578-3.65235-1.36328-4.16407Zm0 0"/></g><g clip-path="url(#j)"><path fill="none" stroke="#007F7F" stroke-miterlimit="10" stroke-width=".79624" d="M.39841 237.80861s9.58985-3.9961 13.27344-5.6211 9.58985-4.3164 13.27345-6.09374c3.68359-1.77735 9.59375-4.73438 13.27734-6.71876 3.6836-1.98046 9.58985-5.28906 13.27344-7.57422 3.6836-2.28515 9.58985-6.08984 13.27344-8.88672 3.6836-2.80078 9.58985-7.10547 13.27344-11.28125 3.6836-4.17188 9.59376-10.76953 13.27735-18.8086s9.58985-31.90626 13.27344-39.12891c3.6836-7.22657 9.58985-9.8047 13.27344-12.9375 3.6836-3.13282 9.58985-7.19532 13.27344-9.64454 3.6836-2.45313 9.59376-5.9414 13.27735-8.03125 3.6836-2.08594 9.58985-5.16797 13.27344-7.01954s9.58985-4.64453 13.27344-6.32812 9.59375-4.2461 13.27735-5.79688 9.58985-3.9375 13.27344-5.38281c3.6836-1.44922 9.58985-3.6875 13.27344-5.05079 3.6836-1.36328 9.58985-3.48047 13.27344-4.76953 3.6836-1.29297 9.59375-3.30469 13.27735-4.53125 3.6836-1.23047 9.58985-3.15234 13.27344-4.32813s9.58985-3.01953 13.27344-4.14843 9.59375-2.89844 13.27735-3.98438 9.58984-2.79688 13.27344-3.84766c3.6836-1.04687 9.58985-2.69922 13.27344-3.71094 3.6836-1.01562 13.27344-3.60547 13.27344-3.60547"/></g><use xlink:href="#k" x="144.54565" y="132.72394" fill="#007F7F"/><use xlink:href="#l" x="161.72146" y="137.65122" fill="#007F7F"/></svg>