<svg xmlns="http://www.w3.org/2000/svg" xmlns:xlink="http://www.w3.org/1999/xlink" width="258.75pt" height="185.049pt" viewBox="0 0 258.75 185.049"><defs><path id="b" d="M.5-4.04687C.5-1.625 1.21875.14063 3.21875.14063S5.92188-1.625 5.92188-4.04687s-.70313-4.1875-2.70313-4.1875S.5-6.46875.5-4.04687m1.23438 0c0-1.96875.34375-3.76563 1.48437-3.76563 1.15625 0 1.46875 1.79688 1.46875 3.76563S4.375-.28125 3.21875-.28125c-1.14062 0-1.48437-1.79687-1.48437-3.76562m0 0"/><path id="c" d="M.92188-2.76562h6v-.625h-6Zm0 0"/><path id="d" d="M.29688-1.10937C.29688-.65625 1.0625.125 2.59375.125c1.57813 0 2.57813-.79687 2.57813-2.1875 0-1.46875-1.25-1.89062-1.85938-1.95312v-.04688c.59375-.09375 1.53125-.53125 1.53125-1.60937 0-1.20313-.9375-1.73438-2.10937-1.73438-1.4375 0-2.14063.82813-2.14063 1.29688 0 .32812.375.51562.53125.51562.14063 0 .21875-.07812.26563-.21875.25-.73437.65625-1.21875 1.26562-1.21875.85938 0 1.07813.76563 1.07813 1.375 0 .64063-.23438 1.46875-1.15625 1.46875-.53125 0-.82813-.10937-.95313-.10937-.14062 0-.20312.10937-.20312.3125 0 .1875.0625.29687.20312.29687.125 0 .42188-.10937.95313-.10937.92187 0 1.4375.84375 1.4375 1.79687 0 1.29688-.625 1.75-1.40625 1.75-.71875 0-1.1875-.53125-1.40625-1.15625-.0625-.20312-.17188-.3125-.32813-.3125-.1875 0-.57812.21875-.57812.60938m0 0"/><path id="e" d="M.29688-.10937.42188 0h4.5l.375-1.4375L5-1.5c-.23437.59375-.45312.67188-.89062.67188H1.32813c.17187-.5625.8125-1.34375 1.82812-2.07813 1.04688-.75 1.85938-1.25 1.85938-2.46875 0-1.51562-1.01563-2.03125-2.15625-2.03125-1.5 0-2.26563.90625-2.26563 1.46875 0 .375.42188.54688.59375.54688.20313 0 .26563-.10938.3125-.29688.1875-.75.60938-1.34375 1.28125-1.34375.84375 0 1.07813.70313 1.07813 1.5 0 1.17188-.59375 1.82813-1.54688 2.67188C.96875-1.6875.51563-.95312.29688-.10937m0 0"/><path id="f" d="M1.1875 0h3.57813v-.3125l-.92188-.07812C3.625-.42187 3.48438-.5 3.48438-.92187v-6.42188l-.04688-.0625-2.25.375v.26563l1.01563.14062c.1875.01563.25.09375.25.40625v5.29688c0 .42187-.09375.5-.35938.53125L1.1875-.3125Zm0 0"/><clipPath id="a"><path d="M.53906 0h257.42578v184H.53906Zm0 0"/></clipPath><clipPath id="g"><path d="M.53906 91H252v2H.53906Zm0 0"/></clipPath><clipPath id="h"><path d="M240 79h17.96484v26H240Zm0 0"/></clipPath><clipPath id="i"><path d="M128 6h2v178.10156h-2Zm0 0"/></clipPath></defs><g clip-path="url(#a)"><path fill="none" stroke="#7f7f7f" stroke-dasharray=".396463665 .9911890092000001" stroke-miterlimit="10" stroke-width=".39646" d="M.9336 165.375h256.6367M.9336 128.71483h256.6367M.9336 92.05078h256.6367M.9336 55.38672h256.6367M.9336 18.72657h256.6367M19.26173 183.70702V.39454m36.66406 183.31248V.39454m36.66406 183.31248V.39454M129.25 183.70702V.39454m36.66406 183.31248V.39454m36.66015 183.31248V.39454m36.66406 183.31248V.39454"/></g><use xlink:href="#b" x="113.19714" y="108.92919" fill="#7f7f7f"/><path fill="none" stroke="#7f7f7f" stroke-miterlimit="10" stroke-width=".39646" d="M19.26173 82.88672v18.32812"/><g fill="#7f7f7f"><use xlink:href="#c" x="12.44592" y="113.17935"/><use xlink:href="#d" x="20.28529" y="113.17935"/></g><path fill="none" stroke="#7f7f7f" stroke-miterlimit="10" stroke-width=".39646" d="M55.92579 82.88672v18.32812"/><g fill="#7f7f7f"><use xlink:href="#c" x="49.10751" y="113.17935"/><use xlink:href="#e" x="56.94688" y="113.17935"/></g><path fill="none" stroke="#7f7f7f" stroke-miterlimit="10" stroke-width=".39646" d="M92.58985 82.88672v18.32812"/><g fill="#7f7f7f"><use xlink:href="#c" x="85.77009" y="113.17935"/><use xlink:href="#f" x="93.60946" y="113.17935"/></g><path fill="none" stroke="#7f7f7f" stroke-miterlimit="10" stroke-width=".39646" d="M165.91406 82.88672v18.32812"/><use xlink:href="#f" x="163.01313" y="113.17935" fill="#7f7f7f"/><path fill="none" stroke="#7f7f7f" stroke-miterlimit="10" stroke-width=".39646" d="M202.57421 82.88672v18.32812"/><use xlink:href="#e" x="199.67571" y="113.17935" fill="#7f7f7f"/><path fill="none" stroke="#7f7f7f" stroke-miterlimit="10" stroke-width=".39646" d="M239.23827 82.88672v18.32812"/><use xlink:href="#d" x="236.3373" y="113.17935" fill="#7f7f7f"/><g clip-path="url(#g)"><path fill="none" stroke="#000" stroke-miterlimit="10" stroke-width=".79294" d="M.9336 92.05078h250.49217"/></g><path d="M255.5664 92.05078c-.5078-.10547-2.74609-.70312-4.14062-1.35547v2.71094c1.39453-.64844 3.63281-1.25 4.14063-1.35547m0 0"/><g clip-path="url(#h)"><path fill="none" stroke="#000" stroke-miterlimit="10" stroke-width=".79294" d="M255.5664 92.05078c-.5078-.10547-2.74609-.70312-4.14062-1.35547v2.71094c1.39453-.64844 3.63281-1.25 4.14063-1.35547Zm0 0"/></g><path fill="none" stroke="#7f7f7f" stroke-miterlimit="10" stroke-width=".39646" d="M138.41797 165.375h-18.33203"/><g fill="#7f7f7f"><use xlink:href="#c" x="101.89522" y="169.08007"/><use xlink:href="#e" x="109.73459" y="169.08007"/></g><path fill="none" stroke="#7f7f7f" stroke-miterlimit="10" stroke-width=".39646" d="M138.41797 128.71484h-18.33203"/><g fill="#7f7f7f"><use xlink:href="#c" x="101.89522" y="132.41848"/><use xlink:href="#f" x="109.73459" y="132.41848"/></g><path fill="none" stroke="#7f7f7f" stroke-miterlimit="10" stroke-width=".39646" d="M138.41797 55.38672h-18.33203"/><use xlink:href="#f" x="109.73493" y="59.0943" fill="#7f7f7f"/><path fill="none" stroke="#7f7f7f" stroke-miterlimit="10" stroke-width=".39646" d="M138.41797 18.72657h-18.33203"/><use xlink:href="#e" x="109.73493" y="22.43271" fill="#7f7f7f"/><g clip-path="url(#i)"><path fill="none" stroke="#000" stroke-miterlimit="10" stroke-width=".79294" d="M129.25 183.70702V6.53907"/></g><path stroke="#000" stroke-miterlimit="10" stroke-width=".79294" d="M129.25 2.39844c-.10547.50781-.70313 2.74219-1.35547 4.14062h2.71485c-.65235-1.39843-1.25391-3.6328-1.35938-4.14062Zm0 0"/></svg>