<svg xmlns="http://www.w3.org/2000/svg" xmlns:xlink="http://www.w3.org/1999/xlink" width="218.412pt" height="284.261pt" viewBox="0 0 218.412 284.261"><defs><path id="b" d="M.4375-3.51562C.4375-1.40625 1.04688.125 2.78125.125c1.73438 0 2.35938-1.53125 2.35938-3.64062 0-2.09375-.625-3.625-2.35938-3.625S.4375-5.60937.4375-3.51562m1.0625 0c0-1.70313.28125-3.25 1.28125-3.25s1.28125 1.54687 1.28125 3.25C4.0625-1.79687 3.78125-.25 2.78125-.25S1.5-1.79687 1.5-3.51562m0 0"/><path id="c" d="M1.14063 0h3.45312v-.29687L3.70313-.375c-.21875-.03125-.34375-.10937-.34375-.51562v-6.1875l-.04688-.0625-2.17187.375v.25l.98437.125c.17188.01562.25.09375.25.40625v5.09375c0 .40625-.10937.48437-.35937.51562l-.875.07813Zm0 0"/><path id="d" d="M.28125-.09375.39063 0h4.34375l.35937-1.39062-.29687-.04688c-.21875.5625-.42188.64063-.85938.64063H1.26563c.17187-.54688.79687-1.29688 1.76562-2 1-.73438 1.78125-1.20313 1.78125-2.375 0-1.46875-.96875-1.96875-2.07812-1.96875-1.4375 0-2.17188.875-2.17188 1.42187 0 .35938.39063.53125.57813.53125s.25-.125.29687-.29687c.17188-.71875.57813-1.28125 1.23438-1.28125.79687 0 1.03125.67187 1.03125 1.4375 0 1.125-.5625 1.76562-1.48438 2.5625C.92188-1.625.48438-.92187.28125-.09375m0 0"/><path id="e" d="M.28125-1.07812C.28125-.625 1 .125 2.48438.125c1.53125 0 2.48437-.76562 2.48437-2.10937 0-1.40625-1.20312-1.82813-1.78125-1.875v-.04688C3.75-4 4.65625-4.42187 4.65625-5.46875c0-1.15625-.90625-1.67187-2.03125-1.67187-1.39062 0-2.0625.8125-2.0625 1.25 0 .32812.35938.5.51563.5.125 0 .20312-.07813.25-.20313.23437-.71875.625-1.17187 1.21875-1.17187.82812 0 1.04687.71875 1.04687 1.3125 0 .625-.23437 1.42187-1.125 1.42187-.5 0-.79687-.10937-.92187-.10937s-.1875.10937-.1875.29687c0 .17188.0625.29688.1875.29688s.42187-.10938.92187-.10938c.89063 0 1.39063.8125 1.39063 1.71875C3.85938-.6875 3.25-.25 2.5-.25c-.6875 0-1.14062-.51562-1.34375-1.10937-.07812-.1875-.17187-.29688-.3125-.29688-.20312 0-.5625.20313-.5625.57813m0 0"/><path id="f" d="m.20313-2.09375.09375.21875h2.85937v1.07813c0 .34375-.125.40625-.375.42187l-.67187.07813V0H4.875v-.29687l-.46875-.0625c-.23437-.03125-.3125-.09375-.3125-.4375V-1.875h1.07813v-.5H4.09375v-4.64062h-.76562C2.34375-5.5625 1.15625-3.75.20313-2.09375m.75-.28125C1.59375-3.51562 2.34375-4.71875 3.15625-6v3.625Zm0 0"/><path id="g" d="M.42188-1.07812C.42188-.59375 1.15625.125 2.53125.125c1.71875 0 2.5-1.04687 2.5-2.375 0-1.48437-.90625-2.23437-2.15625-2.23437-.57812 0-1.21875.26562-1.5625.5625l.23438-1.98438c.04687-.26562.10937-.3125.3125-.3125h2.60937l.25-.70312-.04687-.09375H1.15625l-.09375.09375-.21875 3.51562.26563.14063c.4375-.51563.85937-.75 1.42187-.75.67188 0 1.40625.48437 1.40625 1.875C3.9375-1.0625 3.51563-.25 2.59375-.25c-.73437 0-1.10937-.51562-1.3125-1.125-.0625-.15625-.17187-.25-.3125-.25-.20312 0-.54687.20313-.54687.54688m0 0"/><path id="i" d="M.89063-2.65625h5.78125v-.60937H.89063Zm0 0"/><path id="m" d="M.39063-5.82812C.39063-4.8125 1.40625-4 3.73438-4c-.375.6875-.67188 1.39063-.67188 2.15625 0 1.28125.8125 1.98438 2.28125 1.98438 1.42188 0 2.92188-1.03125 2.92188-2.35938 0-.79687-.65625-1.23437-1.5-1.23437-.92188 0-2 1.03125-2 1.84375 0 .25.1875.73437.53125.73437.10937 0 .25-.07812.25-.1875 0-.15625-.28125-.17187-.28125-.53125 0-.5625.82812-1.48437 1.5-1.48437.46875 0 .76562.1875.76562.64062 0 1.03125-1 2.20313-2.1875 2.20313-.84375 0-1.28125-.46875-1.28125-1.23438 0-.85937.60938-1.89062 1.0625-2.625 2.59375-.40625 5.14063-1.6875 5.14063-3.3125 0-.625-.48438-1.03125-1.15625-1.03125-1.54688 0-3.875 1.98438-5.14063 4.03125-1.0625-.01562-2.78125-.04687-2.78125-1.28125 0-1.14062 1.39063-2.03125 2.26563-2.03125.15625 0 .25-.09375.25-.1875 0-.10937-.09375-.1875-.1875-.1875-1.29688 0-3.125.89063-3.125 2.26563M5.35938-4.5625c.85937-1.5 2.67187-3.5 3.75-3.5.40625 0 .6875.23438.6875.625 0 1.29688-2.04688 2.5-4.4375 2.875m0 0"/><path id="n" d="M.26563.79688c0 .71875.76562 1.17187 1.82812 1.17187 1.15625 0 2.04688-.46875 2.04688-1.375 0-.64062-.51563-1.07812-1.45313-1.28125-.70312-.1875-.98437-.28125-.98437-.5 0-.15625.14062-.25.32812-.29687.17188.03124.32813.03124.45313.03124 1.14062 0 1.8125-.60937 1.8125-1.46874 0-.21875-.0625-.40625-.15625-.54688l.65625-.10937.28125-.53125-.0625-.0625-1.17188.3125C3.60938-4 3.20313-4.09375 2.79688-4.09375c-1.39063 0-1.8125.875-1.8125 1.5 0 .5625.45312.9375.71875 1.01563-.29688.10937-.79688.3125-.79688.65625 0 .28124.34375.51562.625.625C.96875-.20312.26563.125.26563.79688m.84375-.07813c0-.57812.48437-.82812.79687-.875.5.0625 1.45313.28125 1.45313.95313 0 .60937-.51563.875-1.07813.875-.65625 0-1.17187-.375-1.17187-.95313M1.875-2.4375c0-.53125.26563-1.34375.96875-1.34375.23438 0 .60938.10938.60938.625 0 .75-.375 1.39063-.95313 1.39063-.40625 0-.625-.29688-.625-.67188m0 0"/><clipPath id="a"><path d="M5 .01172h212.82422v283.5H5Zm0 0"/></clipPath><clipPath id="h"><path d="M200 182h17.82422v26H200Zm0 0"/></clipPath><clipPath id="j"><path d="M22 6h2v277.51172h-2Zm0 0"/></clipPath><clipPath id="k"><path d="M10 .01172h26V18H10Zm0 0"/></clipPath><clipPath id="l"><path d="M5.39844 100h212.03125v163H5.39844Zm0 0"/></clipPath><clipPath id="o"><path d="M5 88h212.82422v2H5Zm0 0"/></clipPath></defs><g clip-path="url(#a)"><path fill="none" stroke="#000" stroke-miterlimit="10" stroke-opacity=".5" stroke-width=".39743" d="M5.39844 265.4453h212.03123M5.39844 230.10548h212.03123M5.39844 194.76953h212.03123M5.39844 159.4297h212.03123M5.39844 124.09375h212.03123M5.39844 88.75391h212.03123M5.39844 53.41407h212.03123M5.39844 18.07814h212.03123M23.07031 283.11327V.40627m35.33594 282.707V.40627m35.33984 282.707V.40627m35.33984 282.707V.40627m35.33594 282.707V.40627m35.33984 282.707V.40627"/></g><path fill="none" stroke="#000" stroke-miterlimit="10" stroke-opacity=".5" stroke-width=".39743" d="M23.07031 185.9336v17.66796"/><use xlink:href="#b" x="7.91768" y="210.64704" fill-opacity=".5"/><path fill="none" stroke="#000" stroke-miterlimit="10" stroke-opacity=".5" stroke-width=".39743" d="M58.40625 185.9336v17.66796"/><use xlink:href="#c" x="55.62425" y="207.17439" fill-opacity=".5"/><path fill="none" stroke="#000" stroke-miterlimit="10" stroke-opacity=".5" stroke-width=".39743" d="M93.74609 185.9336v17.66796"/><use xlink:href="#d" x="90.96211" y="207.17439" fill-opacity=".5"/><path fill="none" stroke="#000" stroke-miterlimit="10" stroke-opacity=".5" stroke-width=".39743" d="M129.08593 185.9336v17.66796"/><use xlink:href="#e" x="126.29998" y="207.11256" fill-opacity=".5"/><path fill="none" stroke="#000" stroke-miterlimit="10" stroke-opacity=".5" stroke-width=".39743" d="M164.42187 185.9336v17.66796"/><use xlink:href="#f" x="161.63784" y="207.11256" fill-opacity=".5"/><path fill="none" stroke="#000" stroke-miterlimit="10" stroke-opacity=".5" stroke-width=".39743" d="M199.7617 185.9336v17.66796"/><use xlink:href="#g" x="196.97571" y="207.05172" fill-opacity=".5"/><path fill="none" stroke="#000" stroke-miterlimit="10" stroke-width=".79487" d="M5.39844 194.76953h205.87108"/><path d="M215.42188 194.76953c-.50782-.10547-2.75-.70703-4.15235-1.35937v2.71875c1.40234-.65235 3.64453-1.25391 4.15234-1.35938m0 0"/><g clip-path="url(#h)"><path fill="none" stroke="#000" stroke-miterlimit="10" stroke-width=".79487" d="M215.42187 194.76953c-.5078-.10547-2.75-.70703-4.15234-1.35937v2.71875c1.40234-.65235 3.64453-1.25391 4.15234-1.35938Zm0 0"/></g><path fill="none" stroke="#000" stroke-miterlimit="10" stroke-opacity=".5" stroke-width=".39743" d="M31.90234 265.4453H14.23438"/><g fill-opacity=".5"><use xlink:href="#i" x="4.13985" y="269.0159"/><use xlink:href="#d" x="11.6961" y="269.0159"/></g><path fill="none" stroke="#000" stroke-miterlimit="10" stroke-opacity=".5" stroke-width=".39743" d="M31.90234 230.10547H14.23438"/><g fill-opacity=".5"><use xlink:href="#i" x="4.13985" y="233.67804"/><use xlink:href="#c" x="11.6961" y="233.67804"/></g><path fill="none" stroke="#000" stroke-miterlimit="10" stroke-opacity=".5" stroke-width=".39743" d="M31.90234 159.42969H14.23438"/><use xlink:href="#c" x="7.91768" y="163.00231" fill-opacity=".5"/><path fill="none" stroke="#000" stroke-miterlimit="10" stroke-opacity=".5" stroke-width=".39743" d="M31.90234 124.09375H14.23438"/><use xlink:href="#d" x="7.91768" y="127.66445" fill-opacity=".5"/><path fill="none" stroke="#000" stroke-miterlimit="10" stroke-opacity=".5" stroke-width=".39743" d="M31.90234 88.75391H14.23438"/><use xlink:href="#e" x="7.91768" y="92.26475" fill-opacity=".5"/><path fill="none" stroke="#000" stroke-miterlimit="10" stroke-opacity=".5" stroke-width=".39743" d="M31.90234 53.41407H14.23438"/><use xlink:href="#f" x="7.91768" y="56.92688" fill-opacity=".5"/><path fill="none" stroke="#000" stroke-miterlimit="10" stroke-opacity=".5" stroke-width=".39743" d="M31.90234 18.07814H14.23438"/><use xlink:href="#g" x="7.91768" y="21.52718" fill-opacity=".5"/><g clip-path="url(#j)"><path fill="none" stroke="#000" stroke-miterlimit="10" stroke-width=".79487" d="M23.07031 283.11327V6.56642"/></g><path d="M23.07031 2.41406c-.10547.51172-.70703 2.7539-1.36328 4.15235h2.72266c-.65235-1.39844-1.2539-3.64063-1.35938-4.15235m0 0"/><g clip-path="url(#k)"><path fill="none" stroke="#000" stroke-miterlimit="10" stroke-width=".79487" d="M23.07031 2.41406c-.10547.51172-.70703 2.7539-1.36328 4.15235h2.72266c-.65235-1.39844-1.2539-3.64063-1.35938-4.15235Zm0 0"/></g><g clip-path="url(#l)"><path fill="none" stroke="#FF7F00" stroke-miterlimit="10" stroke-width=".79487" d="M5.39844 250.86718s6.38281-10.98046 8.83594-15.48046c2.45312-4.5 6.3828-12.2422 8.83593-16.94141 2.44922-4.69922 6.38282-12.4414 8.83203-16.9414 2.45313-4.4961 6.38282-11.38672 8.83594-15.48047s6.38281-10.33594 8.83594-14.02734c2.44922-3.6875 6.38281-9.28125 8.83203-12.56641 2.45312-3.28516 6.38281-8.22656 8.83593-11.10938 2.45313-2.8789 6.38282-7.17578 8.83594-9.65234 2.44922-2.47656 6.38281-6.1211 8.83203-8.1914 2.45313-2.07422 6.38281-5.07032 8.83594-6.73828 2.44922-1.66797 6.38281-4.01563 8.83594-5.27735 2.44921-1.26172 6.3828-2.96484 8.83203-3.82031 2.45312-.85938 6.3828-1.91016 8.83593-2.36328 2.44922-.45313 6.38282-.85938 8.83594-.90625 2.44922-.05078 6.38281.19531 8.83203.55078 2.45313.35547 6.38281 1.25 8.83594 2.01172 2.44922.75781 6.38281 2.30078 8.83203 3.46484 2.45312 1.16797 6.38672 3.35938 8.83594 4.92578 2.45312 1.57032 6.3828 4.41016 8.83593 6.38282 2.44922 1.97656 6.38281 5.46484 8.83203 7.84375 2.45313 2.3789 6.38282 6.51562 8.83594 9.29687 2.45312 2.78516 6.38281 7.57031 8.83594 10.75781 2.44922 3.1875 6.3828 8.6211 8.83203 12.21484 2.45312 3.58985 8.83593 13.66797 8.83593 13.66797"/></g><use xlink:href="#m" x="93.05049" y="110.30618" fill="#FF7F00"/><use xlink:href="#n" x="102.57734" y="113.03882" fill="#FF7F00"/><g clip-path="url(#o)"><path fill="none" stroke="#000" stroke-dasharray="2.9807900473 2.9807900473" stroke-miterlimit="10" stroke-width=".79487" d="M5.39844 88.75391h212.03123"/></g></svg>