<svg xmlns="http://www.w3.org/2000/svg" xmlns:xlink="http://www.w3.org/1999/xlink" width="447.253pt" height="319.694pt" viewBox="0 0 447.253 319.694"><defs><path id="b" d="M1.60938-4.79687h10.42187v-1.10938H1.60938Zm0 0"/><path id="c" d="M.5-1.9375C.5-1.125 1.8125.21875 4.48438.21875c2.75 0 4.48437-1.39062 4.48437-3.79687 0-2.54688-2.1875-3.29688-3.23437-3.39063v-.07812c1.03125-.15625 2.67187-.92188 2.67187-2.79688 0-2.09375-1.64062-3.03125-3.67187-3.03125C2.23438-12.875 1-11.42187 1-10.60937c0 .57812.67188.90625.9375.90625.23438 0 .375-.14063.45313-.39063.42187-1.28125 1.14062-2.10937 2.20312-2.10937 1.48438 0 1.875 1.3125 1.875 2.375 0 1.125-.40625 2.5625-2.01562 2.5625-.90625 0-1.4375-.1875-1.65625-.1875-.23438 0-.34375.1875-.34375.53125 0 .3125.10937.51562.34375.51562.21875 0 .75-.1875 1.65625-.1875 1.60937 0 2.51562 1.45313 2.51562 3.10938 0 2.25-1.10937 3.04687-2.45312 3.04687-1.25 0-2.07813-.9375-2.4375-2-.125-.35937-.3125-.54687-.5625-.54687C1.17188-2.98437.5-2.625.5-1.9375m0 0"/><path id="d" d="M.5-.1875.70313 0h7.84375l.64062-2.5-.53125-.09375C8.25-1.57812 7.875-1.4375 7.10938-1.4375H2.28125c.29688-.98437 1.42188-2.32812 3.17188-3.59375C7.26563-6.35937 8.6875-7.20312 8.6875-9.32812c0-2.64063-1.76562-3.54688-3.75-3.54688C2.34375-12.875 1-11.29687 1-10.3125c0 .64063.73438.95313 1.04688.95313.34375 0 .46875-.20313.54687-.53125.3125-1.28125 1.04688-2.3125 2.21875-2.3125 1.45313 0 1.875 1.20312 1.875 2.59375 0 2.03125-1.03125 3.1875-2.67187 4.64062C1.67188-2.9375.85938-1.65625.5-.1875m0 0"/><path id="e" d="M2.04688 0h6.23437v-.54687L6.6875-.6875c-.40625-.03125-.625-.17187-.625-.92187v-11.15625l-.09375-.10938-3.92187.67188v.46875l1.78125.21875c.32812.03125.4375.17187.4375.71875v9.1875c0 .75-.17188.89062-.625.92187l-1.59375.14063Zm0 0"/><path id="f" d="M.78125-6.32812c0 3.79687 1.10938 6.54687 4.23438 6.54687s4.25-2.75 4.25-6.54687c0-3.78125-1.125-6.54688-4.25-6.54688S.78125-10.10937.78125-6.32812m1.92188 0c0-3.07813.51562-5.875 2.3125-5.875 1.79687 0 2.3125 2.79687 2.3125 5.875S6.8125-.4375 5.01563-.4375c-1.79688 0-2.3125-2.8125-2.3125-5.89062m0 0"/><clipPath id="a"><path d="M0 .11328h446.50781v319.16016H0Zm0 0"/></clipPath><clipPath id="g"><path d="M428 147h18.50781v26H428Zm0 0"/></clipPath><clipPath id="h"><path d="M222 6h2v313.27344h-2Zm0 0"/></clipPath><clipPath id="i"><path d="M210 .11328h26V18h-26Zm0 0"/></clipPath></defs><g clip-path="url(#a)"><path fill="none" stroke="#000" stroke-miterlimit="10" stroke-opacity=".5" stroke-width=".39783" d="M.39444 287.04302h445.71893M.39444 223.36722h445.71893M.39444 159.69531h445.71893M.39444 96.0195h445.71893M.39444 32.3476h445.71893M32.2304 318.87896V.50775m63.6758 318.37122V.50775m63.6758 318.37122V.50775m63.6719 318.37122V.50775m63.67581 318.37122V.50775m63.6719 318.37122V.50775m63.67581 318.37122V.50775"/></g><path fill="none" stroke="#000" stroke-miterlimit="10" stroke-opacity=".5" stroke-width=".39783" d="M32.23039 143.77734v31.83595"/><g fill-opacity=".5"><use xlink:href="#b" x="20.41191" y="181.93611"/><use xlink:href="#c" x="34.02703" y="181.93611"/></g><path fill="none" stroke="#000" stroke-miterlimit="10" stroke-opacity=".5" stroke-width=".39783" d="M95.9062 143.77734v31.83595"/><g fill-opacity=".5"><use xlink:href="#b" x="84.08456" y="182.04692"/><use xlink:href="#d" x="97.69969" y="182.04692"/></g><path fill="none" stroke="#000" stroke-miterlimit="10" stroke-opacity=".5" stroke-width=".39783" d="M159.582 143.77734v31.83595"/><g fill-opacity=".5"><use xlink:href="#b" x="147.75822" y="182.04692"/><use xlink:href="#e" x="161.37334" y="182.04692"/></g><path fill="none" stroke="#000" stroke-miterlimit="10" stroke-opacity=".5" stroke-width=".39783" d="M286.92971 143.77734v31.83595"/><use xlink:href="#e" x="281.91215" y="182.04692" fill-opacity=".5"/><path fill="none" stroke="#000" stroke-miterlimit="10" stroke-opacity=".5" stroke-width=".39783" d="M350.60162 143.77734v31.83595"/><use xlink:href="#d" x="345.58481" y="182.04692" fill-opacity=".5"/><path fill="none" stroke="#000" stroke-miterlimit="10" stroke-opacity=".5" stroke-width=".39783" d="M414.27742 143.77734v31.83595"/><use xlink:href="#c" x="409.25846" y="181.93611" fill-opacity=".5"/><path fill="none" stroke="#000" stroke-miterlimit="10" stroke-opacity=".5" stroke-width=".39783" d="M239.17188 287.04302h-31.83595"/><g fill-opacity=".5"><use xlink:href="#b" x="189.14509" y="293.47481"/><use xlink:href="#d" x="202.76021" y="293.47481"/></g><path fill="none" stroke="#000" stroke-miterlimit="10" stroke-opacity=".5" stroke-width=".39783" d="M239.17188 223.36721h-31.83595"/><g fill-opacity=".5"><use xlink:href="#b" x="189.14509" y="229.80216"/><use xlink:href="#e" x="202.76021" y="229.80216"/></g><path fill="none" stroke="#000" stroke-miterlimit="10" stroke-opacity=".5" stroke-width=".39783" d="M239.17188 96.0195h-31.83595"/><use xlink:href="#e" x="195.95272" y="102.45585" fill-opacity=".5"/><path fill="none" stroke="#000" stroke-miterlimit="10" stroke-opacity=".5" stroke-width=".39783" d="M239.17188 32.3476h-31.83595"/><use xlink:href="#d" x="195.95272" y="38.7822" fill-opacity=".5"/><path fill="none" stroke="#000" stroke-miterlimit="10" stroke-opacity=".5" stroke-width=".39783" d="M223.2539 143.77734v31.83595"/><use xlink:href="#f" x="195.95272" y="188.30447" fill-opacity=".5"/><path fill="none" stroke="#000" stroke-miterlimit="10" stroke-width=".79568" d="M.39444 159.69531H439.9454"/><path d="M444.10547 159.69531c-.51172-.10547-2.75781-.70703-4.16016-1.36328v2.72266c1.40235-.65235 3.64844-1.2539 4.16016-1.35938m0 0"/><g clip-path="url(#g)"><path fill="none" stroke="#000" stroke-miterlimit="10" stroke-width=".79568" d="M444.10547 159.69531c-.51172-.10547-2.75781-.70703-4.16016-1.36328v2.72266c1.40235-.65235 3.64844-1.2539 4.16016-1.35938Zm0 0"/></g><g clip-path="url(#h)"><path fill="none" stroke="#000" stroke-miterlimit="10" stroke-width=".79568" d="M223.2539 318.87897V6.67572"/></g><path d="M223.2539 2.51953c-.10546.50781-.70702 2.7539-1.36327 4.15625h2.72656c-.65625-1.40234-1.25781-3.64844-1.36328-4.15625m0 0"/><g clip-path="url(#i)"><path fill="none" stroke="#000" stroke-miterlimit="10" stroke-width=".79568" d="M223.2539 2.51953c-.10546.50781-.70703 2.7539-1.36328 4.15625h2.72657c-.65625-1.40234-1.25781-3.64844-1.36328-4.15625Zm0 0"/></g></svg>