<svg xmlns="http://www.w3.org/2000/svg" xmlns:xlink="http://www.w3.org/1999/xlink" width="248.828pt" height="177.962pt" viewBox="0 0 248.828 177.962"><defs><path id="b" d="M.4375-3.51562C.4375-1.40625 1.04688.125 2.79688.125c1.73437 0 2.35937-1.53125 2.35937-3.64062s-.625-3.64063-2.35937-3.64063c-1.75 0-2.35938 1.53125-2.35938 3.64063m1.0625 0c0-1.71875.29688-3.26563 1.29688-3.26563.98437 0 1.28125 1.54688 1.28125 3.26563S3.78125-.25 2.79688-.25C1.79688-.25 1.5-1.79687 1.5-3.51562m0 0"/><path id="c" d="M.89063-2.67187H6.6875v-.60938H.89063Zm0 0"/><path id="d" d="M.28125-1.07812C.28125-.625 1.01563.125 2.5.125 4.01563.125 4.98438-.65625 4.98438-2c0-1.40625-1.20313-1.8125-1.79688-1.875v-.04687c.57813-.09375 1.48438-.51563 1.48438-1.5625 0-1.15625-.90625-1.67188-2.04688-1.67188-1.375 0-2.0625.79688-2.0625 1.25 0 .32813.375.5.51563.5.125 0 .20312-.07812.25-.20312.23437-.71875.625-1.17188 1.21875-1.17188.84375 0 1.04687.71875 1.04687 1.3125 0 .625-.21875 1.42188-1.125 1.42188-.5 0-.78125-.09375-.90625-.09375-.14062 0-.20312.09375-.20312.28125s.0625.29687.20312.29687c.125 0 .40625-.09375.90625-.09375.90625 0 1.40625.79688 1.40625 1.71875 0 1.25-.60937 1.6875-1.35937 1.6875-.70313 0-1.15625-.51562-1.35938-1.10937-.0625-.20313-.17187-.29688-.3125-.29688-.1875 0-.5625.20313-.5625.57813m0 0"/><path id="e" d="M.28125-.09375.39063 0H4.75l.35938-1.39062-.29688-.04688c-.21875.5625-.4375.64063-.85937.64063h-2.6875c.17187-.54688.79687-1.29688 1.76562-2 1.01563-.75 1.79688-1.21875 1.79688-2.39063 0-1.46875-.96875-1.96875-2.07813-1.96875-1.45312 0-2.1875.875-2.1875 1.42188 0 .35937.40625.53125.57813.53125.1875 0 .26562-.125.29687-.29688.17188-.71875.59375-1.28125 1.23438-1.28125.8125 0 1.04687.67188 1.04687 1.4375 0 1.125-.57812 1.76563-1.48437 2.57813C.9375-1.64062.48438-.92187.28124-.09375m0 0"/><path id="f" d="M1.14063 0h3.46875v-.29687L3.71875-.375C3.5-.40625 3.375-.48437 3.375-.89062v-6.21875l-.0625-.04688-2.17187.375v.25l.98437.125c.1875.01563.25.09375.25.40625v5.10938c0 .40625-.09375.48437-.34375.51562l-.89062.07813Zm0 0"/><path id="k" d="M.39063-5.82812C.39063-4.8125 1.40625-4 3.75-4c-.39062.67188-.67187 1.39063-.67187 2.15625 0 1.28125.79687 1.98438 2.26562 1.98438 1.4375 0 2.92188-1.03125 2.92188-2.35938 0-.79687-.65625-1.23437-1.48438-1.23437-.92187 0-2 1.03125-2 1.84375 0 .25.1875.71875.53125.71875.09375 0 .23438-.0625.23438-.17188 0-.15625-.26563-.17187-.26563-.53125 0-.57812.82813-1.48437 1.5-1.48437.46875 0 .75.1875.75.64062 0 1.03125-.98437 2.20313-2.1875 2.20313-.84375 0-1.28125-.46875-1.28125-1.23438 0-.875.60938-1.89062 1.07813-2.64062C7.73438-4.5 10.28125-5.78125 10.28125-7.40625c0-.625-.5-1.03125-1.17187-1.03125-1.53125 0-3.85938 1.96875-5.14063 4.01563-1.0625 0-2.78125-.03125-2.78125-1.28125 0-1.14063 1.40625-2.01563 2.26563-2.01563.17187 0 .25-.10937.25-.20312s-.07813-.17188-.1875-.17188c-1.29688 0-3.125.875-3.125 2.26563M5.375-4.5625c.85938-1.5 2.67188-3.51562 3.73438-3.51562.42187 0 .70312.25.70312.625 0 1.3125-2.04687 2.5-4.4375 2.89062m0 0"/><path id="l" d="M-.17187 1.46875c0 .29688.35937.51563.79687.51563.85938 0 1.25-.6875 1.59375-2.23438l.76563-3.42187h1.03125l.07812-.34375h-1.0625l.25-1c.14063-.54688.28125-.75.46875-.75.20313 0 .34375.15625.53125.5625.04688.09375.125.17187.26563.17187.1875 0 .4375-.17187.4375-.39062 0-.35938-.45313-.65625-.98438-.65625-1.03125 0-1.45312.75-1.75 1.78125l-.07812.28125h-.70313l-.10937.34375h.73437L1.14063 1.1875c-.07813.42188-.17188.48438-.25.48438-.07813 0-.20313-.07813-.42188-.42188-.0625-.09375-.125-.20312-.23437-.20312-.20313 0-.40625.20312-.40625.42187m0 0"/><clipPath id="a"><path d="M0 .04297h248.65625V177.8828H0Zm0 0"/></clipPath><clipPath id="g"><path d="M230 76h18.65625v26H230Zm0 0"/></clipPath><clipPath id="h"><path d="M123 6h2v171.88281h-2Zm0 0"/></clipPath><clipPath id="i"><path d="M111 .04297h26V18h-26Zm0 0"/></clipPath><clipPath id="j"><path d="M.39453.4375h247.86328V101H.39453Zm0 0"/></clipPath></defs><g clip-path="url(#a)"><path fill="none" stroke="#000" stroke-miterlimit="10" stroke-opacity=".5" stroke-width=".39823" d="M.39456 159.78123h247.86322M.39456 124.3711h247.86322M.39456 88.96094h247.86322M.39456 53.5547h247.86322M.39456 18.14455h247.86322m-230.1562 159.3398V.43752m35.41015 177.04683V.43752m35.40625 177.04683V.43752m35.41014 177.04683V.43752m35.41015 177.04683V.43752m35.40624 177.04683V.43752m35.41015 177.04683V.43752"/></g><path fill="none" stroke="#000" stroke-miterlimit="10" stroke-opacity=".5" stroke-width=".39823" d="M124.32812 80.10938V97.8125"/><use xlink:href="#b" x="109.14655" y="104.87202" fill-opacity=".5"/><path fill="none" stroke="#000" stroke-miterlimit="10" stroke-opacity=".5" stroke-width=".39823" d="M18.10159 80.10938V97.8125"/><g fill-opacity=".5"><use xlink:href="#c" x="11.52803" y="101.33046"/><use xlink:href="#d" x="19.09939" y="101.33046"/></g><path fill="none" stroke="#000" stroke-miterlimit="10" stroke-opacity=".5" stroke-width=".39823" d="M53.51173 80.10938V97.8125"/><g fill-opacity=".5"><use xlink:href="#c" x="46.93656" y="101.39242"/><use xlink:href="#e" x="54.50791" y="101.39242"/></g><path fill="none" stroke="#000" stroke-miterlimit="10" stroke-opacity=".5" stroke-width=".39823" d="M88.91798 80.10938V97.8125"/><g fill-opacity=".5"><use xlink:href="#c" x="82.34508" y="101.39242"/><use xlink:href="#f" x="89.91644" y="101.39242"/></g><path fill="none" stroke="#000" stroke-miterlimit="10" stroke-opacity=".5" stroke-width=".39823" d="M159.73827 80.10938V97.8125"/><use xlink:href="#f" x="156.94751" y="101.39242" fill-opacity=".5"/><path fill="none" stroke="#000" stroke-miterlimit="10" stroke-opacity=".5" stroke-width=".39823" d="M195.14451 80.10938V97.8125"/><use xlink:href="#e" x="192.35604" y="101.39242" fill-opacity=".5"/><path fill="none" stroke="#000" stroke-miterlimit="10" stroke-opacity=".5" stroke-width=".39823" d="M230.55466 80.10938V97.8125"/><use xlink:href="#d" x="227.76556" y="101.33046" fill-opacity=".5"/><path fill="none" stroke="#000" stroke-miterlimit="10" stroke-width=".79646" d="M.39456 88.96094h241.69135"/><path d="M246.25 88.96094c-.51172-.10547-2.75781-.70703-4.16406-1.36328v2.72656c1.40625-.65234 3.65234-1.25781 4.16406-1.36328m0 0"/><g clip-path="url(#g)"><path fill="none" stroke="#000" stroke-miterlimit="10" stroke-width=".79646" d="M246.25 88.96094c-.51172-.10547-2.75781-.70703-4.16406-1.36328v2.72656c1.40625-.65234 3.65234-1.25781 4.16406-1.36328Zm0 0"/></g><path fill="none" stroke="#000" stroke-miterlimit="10" stroke-opacity=".5" stroke-width=".39823" d="M133.17969 159.78123h-17.70313"/><g fill-opacity=".5"><use xlink:href="#c" x="105.36017" y="163.35759"/><use xlink:href="#e" x="112.93153" y="163.35759"/></g><path fill="none" stroke="#000" stroke-miterlimit="10" stroke-opacity=".5" stroke-width=".39823" d="M133.17969 124.37109h-17.70313"/><g fill-opacity=".5"><use xlink:href="#c" x="105.36017" y="127.94906"/><use xlink:href="#f" x="112.93153" y="127.94906"/></g><path fill="none" stroke="#000" stroke-miterlimit="10" stroke-opacity=".5" stroke-width=".39823" d="M133.17969 53.5547h-17.70313"/><use xlink:href="#f" x="109.14655" y="57.13202" fill-opacity=".5"/><path fill="none" stroke="#000" stroke-miterlimit="10" stroke-opacity=".5" stroke-width=".39823" d="M133.17969 18.14455h-17.70313"/><use xlink:href="#e" x="109.14655" y="21.72349" fill-opacity=".5"/><g clip-path="url(#h)"><path fill="none" stroke="#000" stroke-miterlimit="10" stroke-width=".79646" d="M124.32812 177.48435V6.6133"/></g><path d="M124.32813 2.44922c-.10547.51172-.70704 2.75781-1.36329 4.16406h2.72657c-.65625-1.40625-1.25782-3.65234-1.36329-4.16406m0 0"/><g clip-path="url(#i)"><path fill="none" stroke="#000" stroke-miterlimit="10" stroke-width=".79646" d="M124.32812 2.44922c-.10546.51172-.70703 2.75781-1.36328 4.16406h2.72657c-.65625-1.40625-1.25782-3.65234-1.36329-4.16406Zm0 0"/></g><g clip-path="url(#j)"><path fill="none" stroke="#007F7F" stroke-miterlimit="10" stroke-width=".79646" d="M.39456-344.79677s7.46484 50.8867 10.32812 69.27732c2.86719 18.39063 7.46094 46.53906 10.32812 63.2539 2.8672 16.71874 7.46094 42.18749 10.32813 57.23045 2.86328 15.04687 7.46093 37.83593 10.32812 51.20702 2.86328 13.375 7.46094 33.48046 10.32422 45.18358 2.86718 11.70313 7.46484 29.1289 10.32812 39.16015 2.86719 10.02734 7.46093 24.77343 10.32812 33.1328s7.46094 20.42578 10.32812 27.11328c2.86328 6.6836 7.46094 16.0703 10.32813 21.08593 2.86328 5.01563 7.46093 11.71875 10.32421 15.0625 2.86719 3.34375 7.46094 7.36718 10.32813 9.03906 2.86718 1.67187 7.46093 3.01172 10.32812 3.01172s7.46093-1.33594 10.32812-3.00781c2.86328-1.67188 7.46094-5.6914 10.32422-9.03516 2.86718-3.33984 7.46484-10.04297 10.32812-15.05468 2.86719-5.01563 7.46094-14.39844 10.32812-21.08203 2.86719-6.6875 7.46094-18.75 10.32813-27.10546 2.86328-8.35937 7.46093-23.10156 10.32812-33.1328 2.86328-10.02735 7.46093-27.44922 10.32421-39.15234 2.8672-11.69922 7.46094-31.80468 10.32813-45.17577 2.86718-13.375 7.46093-36.16015 10.32812-51.20311s7.46093-40.51171 10.32812-57.22655c2.86328-16.71484 7.46094-44.86327 10.32422-63.24999 2.86718-18.38671 10.32812-69.27342 10.32812-69.27342"/></g><use xlink:href="#k" x="79.15329" y="32.4101" fill="#007F7F"/><use xlink:href="#l" x="88.69919" y="35.14821" fill="#007F7F"/></svg>