<svg xmlns="http://www.w3.org/2000/svg" xmlns:xlink="http://www.w3.org/1999/xlink" width="185.049pt" height="148.199pt" viewBox="0 0 185.049 148.199"><defs><path id="b" d="M.5-4.04687C.5-1.625 1.21875.14063 3.21875.14063S5.92188-1.625 5.92188-4.04687s-.70313-4.1875-2.70313-4.1875S.5-6.46875.5-4.04687m1.21875 0c0-1.96875.35938-3.75 1.5-3.75 1.14063 0 1.46875 1.78125 1.46875 3.75S4.35938-.28125 3.21875-.28125c-1.14062 0-1.5-1.79687-1.5-3.76562m0 0"/><path id="k" d="M.40625-6.03125c0 1.04688 1.04688 1.89063 3.46875 1.89063-.40625.70312-.6875 1.4375-.6875 2.23437 0 1.32813.82813 2.04688 2.34375 2.04688 1.48438 0 3.03125-1.0625 3.03125-2.4375 0-.82813-.6875-1.28125-1.54687-1.28125-.95313 0-2.07813 1.0625-2.07813 1.92187 0 .25.20313.73438.5625.73438.09375 0 .25-.0625.25-.1875 0-.15626-.29687-.17188-.29687-.53125 0-.59375.875-1.54688 1.5625-1.54688.48437 0 .78125.1875.78125.65625C7.79688-1.45312 6.76563-.25 5.53125-.25c-.875 0-1.32812-.46875-1.32812-1.26562 0-.90625.64062-1.95313 1.10937-2.73438 2.70313-.40625 5.32813-1.73437 5.32813-3.42187 0-.64063-.51563-1.0625-1.20313-1.0625-1.59375 0-4 2.04687-5.32812 4.15625-1.09375 0-2.875-.03125-2.875-1.3125C1.23438-7.07812 2.67188-8 3.57813-8c.17187 0 .26562-.09375.26562-.20312 0-.09375-.09375-.17188-.20312-.17188-1.34375 0-3.23438.90625-3.23438 2.34375m5.15625 1.3125c.89063-1.5625 2.76563-3.64062 3.875-3.64062.42188 0 .71875.25.71875.64062 0 1.35938-2.125 2.59375-4.59375 3m0 0"/><path id="c" d="M.92188-2.76562h6v-.625h-6Zm0 0"/><path id="d" d="M1.1875 0h3.57813v-.3125l-.92188-.07812C3.625-.42187 3.48438-.5 3.48438-.92187v-6.42188l-.04688-.0625-2.25.375v.26563l1.01563.14062c.1875.01563.25.09375.25.40625v5.29688c0 .42187-.09375.5-.35938.53125L1.1875-.3125Zm0 0"/><path id="e" d="M.29688-.10937.42188 0h4.5l.375-1.4375L5-1.5c-.23437.59375-.45312.67188-.89062.67188H1.32813c.17187-.5625.8125-1.34375 1.82812-2.07813 1.04688-.75 1.85938-1.25 1.85938-2.46875 0-1.51562-1.01563-2.03125-2.15625-2.03125-1.5 0-2.26563.90625-2.26563 1.46875 0 .375.42188.54688.59375.54688.20313 0 .26563-.10938.3125-.29688.1875-.75.60938-1.34375 1.28125-1.34375.84375 0 1.07813.70313 1.07813 1.5 0 1.17188-.59375 1.82813-1.54688 2.67188C.96875-1.6875.51563-.95312.29688-.10937m0 0"/><path id="f" d="M.29688-1.10937C.29688-.65625 1.0625.125 2.59375.125c1.57813 0 2.57813-.79687 2.57813-2.1875 0-1.46875-1.25-1.89062-1.85938-1.95312v-.04688c.59375-.09375 1.53125-.53125 1.53125-1.60937 0-1.20313-.9375-1.73438-2.10937-1.73438-1.4375 0-2.14063.82813-2.14063 1.29688 0 .32812.375.51562.53125.51562.14063 0 .21875-.07812.26563-.21875.25-.73437.65625-1.21875 1.26562-1.21875.85938 0 1.07813.76563 1.07813 1.375 0 .64063-.23438 1.46875-1.15625 1.46875-.53125 0-.82813-.10937-.95313-.10937-.14062 0-.20312.10937-.20312.3125 0 .1875.0625.29687.20312.29687.125 0 .42188-.10937.95313-.10937.92187 0 1.4375.84375 1.4375 1.79687 0 1.29688-.625 1.75-1.40625 1.75-.71875 0-1.1875-.53125-1.40625-1.15625-.0625-.20312-.17188-.3125-.32813-.3125-.1875 0-.57812.21875-.57812.60938m0 0"/><path id="l" d="M-.1875 1.53125c.01563.29688.375.51563.84375.51563.875 0 1.28125-.70313 1.64063-2.29688l.78125-3.54687h1.0625l.09375-.35938H3.14063l.25-1.03125c.14062-.5625.28125-.78125.5-.78125.1875 0 .34375.15625.53125.59375.0625.09375.125.17188.28125.17188.1875 0 .45312-.17188.45312-.40625 0-.375-.46875-.67188-1.03125-.67188-1.0625 0-1.5.76563-1.79687 1.84375L2.25-4.15625h-.73437l-.10938.35938h.75l-.98437 5.01562c-.07813.4375-.15626.5-.25.5-.07813 0-.21876-.07812-.4375-.42187-.0625-.09376-.125-.21876-.25-.21876-.20313 0-.42188.21876-.42188.45313m0 0"/><clipPath id="a"><path d="M.02344 0H184v147.40234H.02344Zm0 0"/></clipPath><clipPath id="g"><path d="M.02344 91H178v2H.02344Zm0 0"/></clipPath><clipPath id="h"><path d="M166 79h18.07813v26H166Zm0 0"/></clipPath><clipPath id="i"><path d="M55 6h1v141.40234h-1Zm0 0"/></clipPath><clipPath id="j"><path d="M.42188 12h183.26171v135.00781H.42188Zm0 0"/></clipPath></defs><g clip-path="url(#a)"><path fill="none" stroke="#7f7f7f" stroke-dasharray=".39635607 .9909200136" stroke-miterlimit="10" stroke-width=".39636" d="M.42188 128.67968h183.2617M.42187 92.02734h183.2617M.42187 55.37501h183.2617M.42187 18.72267h183.2617M18.7461 147.0078V.39455M55.39844 147.0078V.39455M92.05078 147.0078V.39455M128.7031 147.0078V.39455m36.65625 146.61325V.39455"/></g><use xlink:href="#b" x="39.3499" y="108.90041" fill="#7f7f7f"/><path fill="none" stroke="#7f7f7f" stroke-miterlimit="10" stroke-width=".39636" d="M18.7461 82.86328v18.32813"/><g fill="#7f7f7f"><use xlink:href="#c" x="11.9301" y="113.15043"/><use xlink:href="#d" x="19.7674" y="113.15043"/></g><path fill="none" stroke="#7f7f7f" stroke-miterlimit="10" stroke-width=".39636" d="M92.05078 82.86328v18.32813"/><use xlink:href="#d" x="89.15372" y="113.15043" fill="#7f7f7f"/><path fill="none" stroke="#7f7f7f" stroke-miterlimit="10" stroke-width=".39636" d="M128.70311 82.86328v18.32813"/><use xlink:href="#e" x="125.80562" y="113.15043" fill="#7f7f7f"/><path fill="none" stroke="#7f7f7f" stroke-miterlimit="10" stroke-width=".39636" d="M165.35936 82.86328v18.32813"/><use xlink:href="#f" x="162.45752" y="113.15043" fill="#7f7f7f"/><g clip-path="url(#g)"><path fill="none" stroke="#000" stroke-miterlimit="10" stroke-width=".79272" d="M.42188 92.02734h177.11716"/></g><path d="M181.6836 92.02734c-.51173-.10546-2.7461-.70312-4.14454-1.35546v2.71093c1.39844-.64844 3.63281-1.25 4.14453-1.35547m0 0"/><g clip-path="url(#h)"><path fill="none" stroke="#000" stroke-miterlimit="10" stroke-width=".79272" d="M181.6836 92.02734c-.51173-.10546-2.7461-.70312-4.14454-1.35546v2.71093c1.39844-.64843 3.63281-1.25 4.14453-1.35547Zm0 0"/></g><path fill="none" stroke="#7f7f7f" stroke-miterlimit="10" stroke-width=".39636" d="M64.5625 128.67968H46.23438"/><g fill="#7f7f7f"><use xlink:href="#c" x="28.05097" y="132.38348"/><use xlink:href="#d" x="35.88827" y="132.38348"/></g><path fill="none" stroke="#7f7f7f" stroke-miterlimit="10" stroke-width=".39636" d="M64.5625 55.375H46.23438"/><use xlink:href="#d" x="35.88861" y="59.07968" fill="#7f7f7f"/><path fill="none" stroke="#7f7f7f" stroke-miterlimit="10" stroke-width=".39636" d="M64.5625 18.72267H46.23438"/><use xlink:href="#e" x="35.88861" y="22.42679" fill="#7f7f7f"/><g clip-path="url(#i)"><path fill="none" stroke="#000" stroke-miterlimit="10" stroke-width=".79272" d="M55.39844 147.0078V6.53908"/></g><path stroke="#000" stroke-miterlimit="10" stroke-width=".79272" d="M55.39844 2.39844c-.10547.50781-.70313 2.74219-1.35547 4.14062h2.71484c-.65234-1.39843-1.2539-3.6328-1.35937-4.14062Zm0 0"/><g clip-path="url(#j)"><path fill="none" stroke="#007f7f" stroke-miterlimit="10" stroke-width=".79272" d="M.42188 136.91406s5.51563-2.29688 7.63282-3.23047c2.12109-.9375 5.51953-2.48438 7.63671-3.50781 2.11719-1.01954 5.51563-2.71485 7.63672-3.85547 2.11719-1.14063 5.51562-3.04297 7.63672-4.35938 2.11719-1.3125 5.51562-3.5039 7.6328-5.11328 2.1211-1.60937 5.51954-4.08593 7.63673-6.48828 2.1211-2.40234 5.51562-6.19922 7.63671-10.82421 2.1172-4.625 5.51563-18.35547 7.63672-22.51172 2.11719-4.15625 5.51563-5.64062 7.63281-7.44531 2.1211-1.80078 5.51953-4.13672 7.63672-5.55078 2.1211-1.41016 5.51953-3.41406 7.63672-4.61719s5.51562-2.97656 7.63672-4.03906c2.11718-1.0664 5.51562-2.66406 7.63671-3.63281 2.11719-.96484 5.51563-2.4414 7.63281-3.33203 2.1211-.89453 5.51953-2.26563 7.63672-3.09766 2.11719-.83594 5.51563-2.1211 7.63672-2.90625 2.11719-.78125 5.51562-2 7.63672-2.74218 2.11718-.7422 5.51562-1.90235 7.6328-2.60938 2.1211-.70703 5.51954-1.8086 7.63673-2.48828 2.12109-.67578 5.51562-1.73437 7.63671-2.38672 2.11719-.64844 5.51563-1.66797 7.63672-2.29297 2.11719-.625 5.51562-1.60547 7.63281-2.21093 2.1211-.60157 5.51953-1.55078 7.63672-2.13672 2.1211-.58203 7.63672-2.07031 7.63672-2.07031"/></g><use xlink:href="#k" x="59.95056" y="105.13774" fill="#007f7f"/><use xlink:href="#l" x="69.83175" y="107.97073" fill="#007f7f"/></svg>