<svg xmlns="http://www.w3.org/2000/svg" xmlns:xlink="http://www.w3.org/1999/xlink" width="177.962pt" height="142.529pt" viewBox="0 0 177.962 142.529"><defs><path id="b" d="M.4375-3.51562C.4375-1.40625 1.04688.125 2.78125.125c1.73438 0 2.35938-1.53125 2.35938-3.64062 0-2.09375-.625-3.625-2.35938-3.625S.4375-5.60937.4375-3.51562m1.0625 0c0-1.70313.28125-3.25 1.28125-3.25s1.28125 1.54687 1.28125 3.25C4.0625-1.79687 3.78125-.25 2.78125-.25S1.5-1.79687 1.5-3.51562m0 0"/><path id="c" d="M.89063-2.65625h5.78125v-.60937H.89063Zm0 0"/><path id="d" d="M1.14063 0h3.45312v-.29687L3.70313-.375c-.21875-.03125-.34375-.10937-.34375-.51562v-6.1875l-.04688-.0625-2.17187.375v.25l.98437.125c.17188.01562.25.09375.25.40625v5.09375c0 .40625-.10937.48437-.35937.51562l-.875.07813Zm0 0"/><path id="e" d="M.28125-.09375.39063 0h4.34375l.35937-1.39062-.29687-.04688c-.21875.5625-.42188.64063-.85938.64063H1.26563c.17187-.54688.79687-1.29688 1.76562-2 1-.73438 1.78125-1.20313 1.78125-2.375 0-1.46875-.96875-1.96875-2.07812-1.96875-1.4375 0-2.17188.875-2.17188 1.42187 0 .35938.39063.53125.57813.53125s.25-.125.29687-.29687c.17188-.71875.57813-1.28125 1.23438-1.28125.79687 0 1.03125.67187 1.03125 1.4375 0 1.125-.5625 1.76562-1.48438 2.5625C.92188-1.625.48438-.92187.28125-.09375m0 0"/><path id="f" d="M.28125-1.07812C.28125-.625 1 .125 2.48438.125c1.53125 0 2.48437-.76562 2.48437-2.10937 0-1.40625-1.20312-1.82813-1.78125-1.875v-.04688C3.75-4 4.65625-4.42187 4.65625-5.46875c0-1.15625-.90625-1.67187-2.03125-1.67187-1.39062 0-2.0625.8125-2.0625 1.25 0 .32812.35938.5.51563.5.125 0 .20312-.07813.25-.20313.23437-.71875.625-1.17187 1.21875-1.17187.82812 0 1.04687.71875 1.04687 1.3125 0 .625-.23437 1.42187-1.125 1.42187-.5 0-.79687-.10937-.92187-.10937s-.1875.10937-.1875.29687c0 .17188.0625.29688.1875.29688s.42187-.10938.92187-.10938c.89063 0 1.39063.8125 1.39063 1.71875C3.85938-.6875 3.25-.25 2.5-.25c-.6875 0-1.14062-.51562-1.34375-1.10937-.07812-.1875-.17187-.29688-.3125-.29688-.20312 0-.5625.20313-.5625.57813m0 0"/><path id="k" d="M.39063-5.8125C.39063-4.79687 1.40625-4 3.73438-4c-.39063.6875-.67188 1.39063-.67188 2.15625 0 1.28125.8125 1.98438 2.26563 1.98438C6.76563.14063 8.25-.89062 8.25-2.21875c0-.79687-.65625-1.23437-1.48437-1.23437-.92188 0-2 1.03125-2 1.85937 0 .23438.1875.71875.53125.71875.09375 0 .23437-.07812.23437-.1875 0-.15625-.26562-.17187-.26562-.53125 0-.5625.82812-1.48437 1.5-1.48437.46875 0 .75.1875.75.64062 0 1.03125-.98438 2.20313-2.1875 2.20313-.84375 0-1.26563-.45313-1.26563-1.23438 0-.85937.60938-1.875 1.0625-2.625 2.59375-.39062 5.14063-1.67187 5.14063-3.29687 0-.625-.5-1.03125-1.17188-1.03125-1.53125 0-3.85937 1.96875-5.14062 4.01562C2.90625-4.42187 1.1875-4.4375 1.1875-5.6875c0-1.14062 1.39063-2.01562 2.26563-2.01562.15625 0 .25-.09375.25-.20313 0-.09375-.09375-.17187-.1875-.17187-1.3125 0-3.125.875-3.125 2.26562m4.96875 1.26563c.85937-1.5 2.67187-3.5 3.73437-3.5.40625 0 .6875.23437.6875.60937 0 1.3125-2.04687 2.5-4.42187 2.89063m0 0"/><path id="l" d="M-.17187 1.46875c0 .28125.35937.5.79687.5.85938 0 1.25-.67187 1.57813-2.21875l.76562-3.42187H4L4.07813-4h-1.0625l.25-1c.14062-.54687.28125-.75.48437-.75.1875 0 .32813.15625.51563.57813.04687.07812.125.15625.26562.15625.1875 0 .4375-.15625.4375-.39063 0-.35937-.45312-.65625-.98437-.65625-1.03125 0-1.45313.75-1.75 1.78125L2.15625-4h-.70312l-.09376.32813h.71876L1.125 1.1875c-.07812.40625-.15625.46875-.23437.46875-.07813 0-.21876-.07812-.42188-.40625-.0625-.09375-.125-.20312-.25-.20312-.1875 0-.39062.20312-.39062.42187m0 0"/><clipPath id="a"><path d="M.27344 0h177.375v142H.27344Zm0 0"/></clipPath><clipPath id="g"><path d="M.27344 88H172v2H.27344Zm0 0"/></clipPath><clipPath id="h"><path d="M159 76h18.64844v26H159Zm0 0"/></clipPath><clipPath id="i"><path d="M53 6h2v136.0586h-2Zm0 0"/></clipPath><clipPath id="j"><path d="M.67188 11H177.2539v130.66406H.67188Zm0 0"/></clipPath></defs><g clip-path="url(#a)"><path fill="none" stroke="#000" stroke-miterlimit="10" stroke-opacity=".5" stroke-width=".39719" d="M.67189 124.0039h176.58198M.67189 88.6875h176.58198M.67189 53.3711h176.58198M.67189 18.0547h176.58198M18.32813 141.66406V.39455m35.3164 141.2695V.39455m35.3164 141.2695V.39455m35.3203 141.2695V.39455m35.3164 141.2695V.39455"/></g><path fill="none" stroke="#000" stroke-miterlimit="10" stroke-opacity=".5" stroke-width=".39719" d="M53.64453 79.85938v17.65624"/><use xlink:href="#b" x="38.50281" y="104.55648" fill-opacity=".5"/><path fill="none" stroke="#000" stroke-miterlimit="10" stroke-opacity=".5" stroke-width=".39719" d="M18.32813 79.85938v17.65624"/><g fill-opacity=".5"><use xlink:href="#c" x="11.77214" y="101.08595"/><use xlink:href="#d" x="19.32378" y="101.08595"/></g><path fill="none" stroke="#000" stroke-miterlimit="10" stroke-opacity=".5" stroke-width=".39719" d="M88.96093 79.85938v17.65624"/><use xlink:href="#d" x="86.18026" y="101.08595" fill-opacity=".5"/><path fill="none" stroke="#000" stroke-miterlimit="10" stroke-opacity=".5" stroke-width=".39719" d="M124.28123 79.85938v17.65624"/><use xlink:href="#e" x="121.49655" y="101.08595" fill-opacity=".5"/><path fill="none" stroke="#000" stroke-miterlimit="10" stroke-opacity=".5" stroke-width=".39719" d="M159.59762 79.85938v17.65624"/><use xlink:href="#f" x="156.81284" y="101.02416" fill-opacity=".5"/><g clip-path="url(#g)"><path fill="none" stroke="#000" stroke-miterlimit="10" stroke-width=".79439" d="M.67189 88.6875h170.42573"/></g><path d="M175.25 88.6875c-.51172-.10547-2.75-.70703-4.15234-1.35937v2.71874c1.40234-.65234 3.64062-1.2539 4.15234-1.35937m0 0"/><g clip-path="url(#h)"><path fill="none" stroke="#000" stroke-miterlimit="10" stroke-width=".79439" d="M175.25 88.6875c-.51172-.10547-2.75-.70703-4.15234-1.35937v2.71874c1.40234-.65234 3.64062-1.2539 4.15234-1.35937Zm0 0"/></g><path fill="none" stroke="#000" stroke-miterlimit="10" stroke-opacity=".5" stroke-width=".39719" d="M62.47656 124.0039H44.8164"/><g fill-opacity=".5"><use xlink:href="#c" x="34.72729" y="127.57342"/><use xlink:href="#d" x="42.27892" y="127.57342"/></g><path fill="none" stroke="#000" stroke-miterlimit="10" stroke-opacity=".5" stroke-width=".39719" d="M62.47656 53.3711H44.8164"/><use xlink:href="#d" x="38.50381" y="56.94083" fill-opacity=".5"/><path fill="none" stroke="#000" stroke-miterlimit="10" stroke-opacity=".5" stroke-width=".39719" d="M62.47656 18.0547H44.8164"/><use xlink:href="#e" x="38.50381" y="21.62454" fill-opacity=".5"/><g clip-path="url(#i)"><path fill="none" stroke="#000" stroke-miterlimit="10" stroke-width=".79439" d="M53.64453 141.66405V6.5508"/></g><path stroke="#000" stroke-miterlimit="10" stroke-width=".79439" d="M53.64453 2.40235c-.10547.5078-.70703 2.75-1.35937 4.14843h2.71875c-.65235-1.39844-1.25391-3.64062-1.35938-4.14843Zm0 0"/><g clip-path="url(#j)"><path fill="none" stroke="#007F7F" stroke-miterlimit="10" stroke-width=".79439" d="M.67189 131.9414s5.3164-2.21485 7.35547-3.1172c2.04296-.90234 5.3164-2.39452 7.35937-3.3789 2.03906-.98437 5.3164-2.625 7.35547-3.72265 2.04296-1.09766 5.3164-2.9336 7.35937-4.19922 2.03906-1.26563 5.3164-3.375 7.35547-4.92578 2.04296-1.55078 5.3164-3.9375 7.35937-6.25 2.03906-2.3164 5.3164-5.97265 7.35547-10.42578 2.04296-4.45703 5.3164-17.68359 7.35937-21.6875 2.03906-4.0039 5.3164-5.43358 7.35546-7.17186 2.04297-1.73438 5.3164-3.98828 7.35938-5.34766 2.03906-1.35937 5.3164-3.28906 7.35546-4.44922 2.04297-1.15624 5.3164-2.86328 7.35938-3.89062 2.04296-1.02734 5.3164-2.57422 7.35546-3.50781 2.04297-.9336 5.3164-2.35156 7.35938-3.21094 2.04296-.85937 5.3164-2.1836 7.35546-2.98437 2.04297-.80469 5.3164-2.04297 7.35938-2.80078 2.04296-.7539 5.3164-1.92578 7.35546-2.64453 2.04297-.71485 5.3164-1.82813 7.35937-2.51172 2.04297-.67969 5.31641-1.7461 7.35547-2.39453 2.04297-.65234 5.3164-1.67578 7.35937-2.30078s5.3164-1.60547 7.35938-2.21094c2.03906-.60156 5.3125-1.54687 7.35546-2.1289 2.04297-.58204 5.3164-1.4961 7.35938-2.0586 2.03906-.5625 7.35546-2 7.35546-2"/></g><use xlink:href="#k" x="58.03128" y="101.32018" fill="#007F7F"/><use xlink:href="#l" x="67.55231" y="104.05115" fill="#007F7F"/></svg>