<?xml version="1.0" encoding="UTF-8" ?>
<!DOCTYPE svg PUBLIC "-//W3C//DTD SVG 1.1//EN" "http://www.w3.org/Graphics/SVG/1.1/DTD/svg11.dtd">
<svg width="512pt" height="512pt" viewBox="0 0 512 512" version="1.1" xmlns="http://www.w3.org/2000/svg">
<g id="#756e78ff">
<path fill="#756e78" opacity="1.00" d=" M 79.37 0.00 L 82.02 0.00 C 84.08 0.76 85.96 1.91 87.69 3.26 C 95.84 9.47 104.10 15.53 112.27 21.72 C 115.25 23.72 116.70 27.79 115.12 31.12 C 113.48 35.14 108.02 36.95 104.40 34.45 C 98.87 30.68 93.71 26.39 88.26 22.50 C 88.25 95.78 88.24 169.05 88.26 242.33 C 133.37 247.02 179.43 249.04 224.17 240.18 C 258.97 233.33 292.54 218.01 318.50 193.53 C 352.58 161.82 374.01 119.26 390.32 76.28 C 391.44 72.64 395.27 70.02 399.09 70.94 C 403.45 71.68 406.30 76.75 404.58 80.86 C 388.45 124.00 367.00 166.25 334.31 199.29 C 326.71 206.72 318.66 213.70 310.02 219.90 C 281.55 240.51 247.49 252.30 212.92 257.40 C 196.71 259.84 180.33 260.99 163.95 261.26 C 138.67 261.59 113.39 260.08 88.26 257.38 C 88.24 311.46 88.25 365.53 88.26 419.60 C 113.49 419.60 138.72 419.60 163.95 419.60 C 212.65 419.61 261.34 419.60 310.04 419.61 C 318.13 419.60 326.23 419.61 334.32 419.60 C 386.07 419.59 437.81 419.61 489.56 419.59 C 485.80 414.58 481.99 409.60 478.27 404.55 C 476.64 402.46 475.82 399.60 476.83 397.05 C 478.03 393.40 482.30 391.19 485.98 392.36 C 488.33 392.95 489.85 394.99 491.25 396.82 C 497.34 405.05 503.51 413.22 509.66 421.41 C 510.77 422.87 511.57 424.55 512.00 426.34 L 512.00 428.20 C 510.92 431.70 508.33 434.38 506.23 437.29 C 501.25 443.97 496.23 450.61 491.28 457.30 C 489.45 460.05 486.54 462.61 482.98 462.03 C 477.71 461.62 474.46 454.86 477.65 450.56 C 481.44 445.13 485.60 439.97 489.50 434.61 C 355.76 434.58 222.02 434.62 88.27 434.59 C 88.20 457.73 88.31 480.87 88.22 504.01 C 88.52 507.79 85.72 510.91 82.26 512.00 L 79.68 512.00 C 75.97 511.28 73.01 507.95 73.27 504.09 C 73.22 480.93 73.28 457.77 73.25 434.61 C 51.53 434.57 29.82 434.63 8.10 434.58 C 4.27 434.83 0.95 432.08 0.00 428.44 L 0.00 426.22 C 0.58 422.37 4.02 419.27 7.99 419.61 C 29.74 419.57 51.50 419.63 73.25 419.59 C 73.24 287.22 73.27 154.86 73.24 22.50 C 68.50 26.01 63.80 29.58 59.08 33.12 C 57.08 34.63 54.66 36.05 52.05 35.50 C 48.10 34.97 45.13 30.91 45.82 26.99 C 46.06 24.67 47.69 22.87 49.49 21.55 C 57.88 15.25 66.31 9.01 74.67 2.66 C 76.10 1.57 77.69 0.67 79.37 0.00 Z" />
</g>
<g id="#ecbe6bff">
<path fill="#ecbe6b" opacity="1.00" d=" M 26.31 61.33 C 30.56 54.62 39.74 52.79 46.97 54.95 C 52.10 56.59 53.51 64.01 49.42 67.46 C 46.69 70.27 42.63 69.02 39.21 69.26 C 38.09 73.32 39.02 77.86 38.72 82.11 C 42.08 82.19 46.07 81.57 48.63 84.29 C 51.92 87.34 51.44 93.25 47.70 95.73 C 45.12 97.63 41.72 97.02 38.73 97.15 C 38.69 112.42 38.78 127.70 38.68 142.97 C 38.76 146.99 35.08 150.54 31.06 150.34 C 27.18 150.36 23.69 146.90 23.77 142.99 C 23.68 127.75 23.72 112.51 23.75 97.26 C 19.40 97.62 14.65 94.76 14.55 90.05 C 14.07 84.99 19.10 81.54 23.76 81.95 C 24.05 75.09 22.43 67.48 26.31 61.33 Z" />
</g>
<g id="#dd636eff">
<path fill="#dd636e" opacity="1.00" d=" M 310.02 219.90 C 318.66 213.70 326.71 206.72 334.31 199.29 C 334.34 272.73 334.33 346.16 334.32 419.60 C 326.23 419.61 318.13 419.60 310.04 419.61 C 310.11 353.04 310.19 286.47 310.02 219.90 Z" />
</g>
<g id="#e28086ff">
<path fill="#e28086" opacity="1.00" d=" M 212.92 257.40 C 247.49 252.30 281.55 240.51 310.02 219.90 C 310.19 286.47 310.11 353.04 310.04 419.61 C 261.34 419.60 212.65 419.61 163.95 419.60 C 163.95 366.82 163.95 314.04 163.95 261.26 C 180.33 260.99 196.71 259.84 212.92 257.40 Z" />
<path fill="#e28086" opacity="1.00" d=" M 314.24 442.17 C 318.46 441.19 323.06 444.60 323.15 448.97 C 323.40 453.46 323.18 457.95 323.23 462.45 C 330.66 459.26 339.53 459.29 346.63 463.34 C 356.06 468.36 361.62 479.61 359.76 490.14 C 358.10 501.92 347.45 511.41 335.60 512.00 L 333.38 512.00 C 329.41 511.83 325.58 510.64 321.97 509.05 C 320.36 510.28 318.70 511.50 316.71 512.00 L 314.76 512.00 C 310.98 511.36 307.98 507.93 308.26 504.04 C 308.23 486.00 308.23 467.96 308.26 449.93 C 308.05 446.32 310.65 442.82 314.24 442.17 M 331.40 475.51 C 328.10 476.42 325.21 478.88 324.01 482.11 C 321.60 487.77 325.11 494.85 331.00 496.50 C 337.35 498.67 344.69 493.66 345.04 486.99 C 345.93 479.78 338.36 473.37 331.40 475.51 Z" />
</g>
<g id="#8993daff">
<path fill="#8993da" opacity="1.00" d=" M 173.52 463.73 C 175.06 462.09 176.56 460.09 178.95 459.76 C 183.31 458.72 187.97 462.40 187.89 466.90 C 188.02 479.31 187.95 491.73 187.93 504.15 C 188.16 507.97 185.20 511.26 181.55 512.00 L 179.50 512.00 C 176.98 511.56 175.13 509.76 173.52 507.91 C 165.81 511.01 156.57 510.24 149.86 505.20 C 142.90 500.23 139.01 491.37 140.14 482.89 C 141.10 474.16 147.33 466.33 155.57 463.32 C 161.33 461.07 167.82 461.50 173.52 463.73 M 161.14 477.26 C 157.11 478.52 154.35 482.88 155.06 487.07 C 155.61 491.78 160.41 495.44 165.11 494.71 C 170.17 494.18 174.01 488.77 172.71 483.80 C 171.72 478.79 165.96 475.52 161.14 477.26 Z" />
</g>
</svg>
