<svg xmlns="http://www.w3.org/2000/svg" xmlns:xlink="http://www.w3.org/1999/xlink" width="397.647pt" height="397.647pt" viewBox="0 0 397.647 397.647"><defs><path id="b" d="M1.4375-4.26562h9.26563V-5.25H1.4375Zm0 0"/><path id="c" d="M.45313-1.71875C.45313-1 1.60938.20313 4 .20313c2.4375 0 3.96875-1.25 3.96875-3.39063 0-2.26562-1.92187-2.92187-2.85937-3.01562v-.0625c.90625-.15625 2.35937-.82813 2.35937-2.5 0-1.85938-1.45312-2.6875-3.25-2.6875-2.23437 0-3.32812 1.29687-3.32812 2.01562 0 .51563.59375.79688.82812.79688.21875 0 .34375-.125.40625-.34375.39063-1.14063 1.01563-1.875 1.96875-1.875C5.40625-10.85937 5.75-9.70312 5.75-8.75c0 1-.35937 2.28125-1.79687 2.28125-.79688 0-1.26563-.15625-1.46875-.15625-.20313 0-.29688.15625-.29688.45313s.09375.46875.29688.46875.67187-.15625 1.46875-.15625c1.4375 0 2.25 1.29687 2.25 2.76562 0 2-.98438 2.70313-2.1875 2.70313-1.10938 0-1.84375-.82813-2.17188-1.78125-.10937-.3125-.26562-.48438-.5-.48438-.29687 0-.89062.32813-.89062.9375m0 0"/><path id="d" d="M.45313-.15625.625 0h6.96875l.57813-2.21875-.46875-.09375C7.34375-1.39062 7-1.26562 6.32813-1.26562H2.03125c.26563-.89063 1.26563-2.07813 2.82813-3.21875 1.60937-1.17188 2.85937-1.9375 2.85937-3.8125 0-2.34375-1.54687-3.15625-3.32812-3.15625-2.3125 0-3.5 1.40625-3.5 2.28125 0 .5625.65625.84375.9375.84375.29687 0 .40625-.1875.48437-.46875.26563-1.15625.9375-2.0625 1.96875-2.0625 1.29688 0 1.67188 1.07812 1.67188 2.3125 0 1.8125-.92188 2.82812-2.39063 4.125C1.48438-2.60937.76563-1.46875.45313-.15625m0 0"/><path id="e" d="M1.82813 0h5.53125v-.48437l-1.40625-.125c-.35938-.03126-.5625-.15626-.5625-.82813v-9.92187l-.07813-.09375-3.48437.59375v.40625l1.57812.20312c.28125.03125.39063.15625.39063.64063v8.17187c0 .67188-.15625.79688-.54688.82813l-1.42187.125Zm0 0"/><path id="f" d="M.70313-5.625c0 3.35938.98437 5.82813 3.76562 5.82813C7.23438.20313 8.25-2.26562 8.25-5.625c0-3.375-1.01562-5.82812-3.78125-5.82812C1.6875-11.45312.70313-9 .70313-5.625m1.70312 0c0-2.75.46875-5.23437 2.0625-5.23437S6.53125-8.375 6.53125-5.625c0 2.73438-.46875 5.23438-2.0625 5.23438s-2.0625-2.5-2.0625-5.23438m0 0"/><clipPath id="a"><path d="M0 0h397.29297v397.29297H0Zm0 0"/></clipPath><clipPath id="g"><path d="M379 186h18.29297v26H379Zm0 0"/></clipPath><clipPath id="h"><path d="M198 6h2v391.29297h-2Zm0 0"/></clipPath></defs><g clip-path="url(#a)"><path fill="none" stroke="#000" stroke-miterlimit="10" stroke-opacity=".5" stroke-width=".39815" d="M.39454 368.57811h396.50388M.39454 311.9336h396.50388M.39454 255.28906h396.50388M.39454 198.64844h396.50388M.39454 142.0039h396.50388M.39454 85.35938h396.50388M.39454 28.71486h396.50388M28.71876 396.89842V.39454m56.64062 396.50388V.39454m56.64453 396.50388V.39454m56.64453 396.50388V.39454m56.64062 396.50388V.39454m56.64453 396.50388V.39454m56.64452 396.50388V.39454"/></g><path fill="none" stroke="#000" stroke-miterlimit="10" stroke-opacity=".5" stroke-width=".39815" d="M28.71876 184.48438v28.32421"/><g fill-opacity=".5"><use xlink:href="#b" x="18.20184" y="218.43309"/><use xlink:href="#c" x="30.31364" y="218.43309"/></g><path fill="none" stroke="#000" stroke-miterlimit="10" stroke-opacity=".5" stroke-width=".39815" d="M85.35938 184.48438v28.32421"/><g fill-opacity=".5"><use xlink:href="#b" x="74.84456" y="218.532"/><use xlink:href="#d" x="86.95635" y="218.532"/></g><path fill="none" stroke="#000" stroke-miterlimit="10" stroke-opacity=".5" stroke-width=".39815" d="M142.00391 184.48438v28.32421"/><g fill-opacity=".5"><use xlink:href="#b" x="131.48728" y="218.532"/><use xlink:href="#e" x="143.59907" y="218.532"/></g><path fill="none" stroke="#000" stroke-miterlimit="10" stroke-opacity=".5" stroke-width=".39815" d="M255.28906 184.48438v28.32421"/><use xlink:href="#e" x="250.82833" y="218.532" fill-opacity=".5"/><path fill="none" stroke="#000" stroke-miterlimit="10" stroke-opacity=".5" stroke-width=".39815" d="M311.93359 184.48438v28.32421"/><use xlink:href="#d" x="307.47105" y="218.532" fill-opacity=".5"/><path fill="none" stroke="#000" stroke-miterlimit="10" stroke-opacity=".5" stroke-width=".39815" d="M368.57811 184.48438v28.32421"/><use xlink:href="#c" x="364.11377" y="218.43309" fill-opacity=".5"/><path fill="none" stroke="#000" stroke-miterlimit="10" stroke-opacity=".5" stroke-width=".39815" d="M212.8086 368.57811h-28.32032"/><g fill-opacity=".5"><use xlink:href="#b" x="168.30459" y="374.20081"/><use xlink:href="#c" x="180.41639" y="374.20081"/></g><path fill="none" stroke="#000" stroke-miterlimit="10" stroke-opacity=".5" stroke-width=".39815" d="M212.8086 311.93359h-28.32032"/><g fill-opacity=".5"><use xlink:href="#b" x="168.30459" y="317.65701"/><use xlink:href="#d" x="180.41639" y="317.65701"/></g><path fill="none" stroke="#000" stroke-miterlimit="10" stroke-opacity=".5" stroke-width=".39815" d="M212.8086 255.28906h-28.32032"/><g fill-opacity=".5"><use xlink:href="#b" x="168.30459" y="261.01429"/><use xlink:href="#e" x="180.41639" y="261.01429"/></g><path fill="none" stroke="#000" stroke-miterlimit="10" stroke-opacity=".5" stroke-width=".39815" d="M212.8086 142.00391h-28.32032"/><use xlink:href="#e" x="174.36122" y="147.72886" fill-opacity=".5"/><path fill="none" stroke="#000" stroke-miterlimit="10" stroke-opacity=".5" stroke-width=".39815" d="M212.8086 85.35938h-28.32032"/><use xlink:href="#d" x="174.36122" y="91.08614" fill-opacity=".5"/><path fill="none" stroke="#000" stroke-miterlimit="10" stroke-opacity=".5" stroke-width=".39815" d="M212.8086 28.71486h-28.32032"/><use xlink:href="#c" x="174.36122" y="34.34551" fill-opacity=".5"/><path fill="none" stroke="#000" stroke-miterlimit="10" stroke-opacity=".5" stroke-width=".39815" d="M198.64844 184.48438v28.32421"/><use xlink:href="#f" x="174.36022" y="224.09806" fill-opacity=".5"/><path fill="none" stroke="#000" stroke-miterlimit="10" stroke-width=".7963" d="M.39454 198.64844h390.33201"/><path d="M394.88672 198.64844c-.50781-.10938-2.7539-.71094-4.16016-1.36328v2.72265c1.40625-.65234 3.65235-1.2539 4.16016-1.35937m0 0"/><g clip-path="url(#g)"><path fill="none" stroke="#000" stroke-miterlimit="10" stroke-width=".7963" d="M394.88672 198.64844c-.50781-.10938-2.7539-.71094-4.16016-1.36328v2.72265c1.40625-.65234 3.65235-1.2539 4.16016-1.35937Zm0 0"/></g><g clip-path="url(#h)"><path fill="none" stroke="#000" stroke-miterlimit="10" stroke-width=".7963" d="M198.64844 396.89842V6.56642"/></g><path stroke="#000" stroke-miterlimit="10" stroke-width=".7963" d="M198.64844 2.40625c-.10547.51172-.70703 2.75781-1.36328 4.16016h2.72656c-.65625-1.40235-1.25781-3.64844-1.36328-4.16016Zm0 0"/></svg>