<svg xmlns="http://www.w3.org/2000/svg" xmlns:xlink="http://www.w3.org/1999/xlink" width="261.35pt" height="248.828pt" viewBox="0 0 261.35 248.828"><defs><path id="b" d="M.4375-3.51562C.4375-1.40625 1.04688.125 2.78125.125c1.73438 0 2.35938-1.53125 2.35938-3.64062 0-2.09375-.625-3.64063-2.35938-3.64063S.4375-5.60937.4375-3.51562m1.0625 0c0-1.70313.29688-3.26563 1.28125-3.26563 1 0 1.29688 1.5625 1.29688 3.26563C4.07813-1.79687 3.78125-.25 2.78125-.25 1.79688-.25 1.5-1.79687 1.5-3.51562m0 0"/><path id="c" d="M.89063-2.65625h5.78125v-.625H.89063Zm0 0"/><path id="d" d="M.28125-1.07812C.28125-.625 1 .125 2.5.125c1.51563 0 2.48438-.78125 2.48438-2.10937 0-1.42188-1.21875-1.82813-1.79688-1.89063v-.04687C3.76563-4 4.67188-4.4375 4.67188-5.46875c0-1.17187-.90625-1.6875-2.04688-1.6875-1.39062 0-2.0625.8125-2.0625 1.26563 0 .3125.35938.5.51563.5.125 0 .20312-.07813.25-.21875.23437-.71875.625-1.17188 1.21875-1.17188.82812 0 1.04687.73438 1.04687 1.32813 0 .625-.21875 1.42187-1.125 1.42187-.5 0-.79687-.10937-.90625-.10937-.14062 0-.20312.10937-.20312.29687 0 .17188.0625.28125.20312.28125.10938 0 .40625-.09375.90625-.09375.90625 0 1.40625.79688 1.40625 1.71875C3.875-.6875 3.25-.25 2.5-.25c-.6875 0-1.14062-.51562-1.34375-1.10937-.07812-.20313-.17187-.29688-.3125-.29688-.1875 0-.5625.20313-.5625.57813m0 0"/><path id="e" d="M.28125-.09375.39063 0H4.75l.34375-1.39062-.28125-.04688c-.21875.5625-.4375.64063-.85937.64063h-2.6875c.17187-.54688.79687-1.29688 1.76562-2 1-.73438 1.79688-1.20313 1.79688-2.39063 0-1.45312-.98438-1.96875-2.09375-1.96875-1.4375 0-2.17188.875-2.17188 1.42188 0 .35937.40625.53125.57813.53125.1875 0 .26562-.10938.29687-.29688.17188-.70312.59375-1.28125 1.23438-1.28125.8125 0 1.04687.67188 1.04687 1.4375 0 1.14063-.57812 1.78125-1.5 2.57813C.92188-1.64062.48438-.92187.28125-.09375m0 0"/><path id="f" d="M1.14063 0h3.45312v-.29687l-.875-.07813C3.48438-.40625 3.375-.48437 3.375-.89062v-6.20313l-.0625-.0625-2.17187.375v.26563l.98437.10937c.17188.03125.25.10938.25.40625v5.10938c0 .40625-.10937.48437-.34375.51562l-.89062.07813Zm0 0"/><path id="k" d="M0 2.1875c0 .3125.34375.625.85938.625.98437 0 1.40625-.71875 2.4375-2.5.25-.40625.95312-1.625 1.67187-2.82812C5.64063-3.60937 6.375-4.73437 6.375-5.20312c0-.40625-.125-.65625-.21875-.65625-.21875 0-.60937.09375-.92187.29687 0 0-.03125 1.1875-.14063 1.59375-.1875.67188-.875 1.9375-1.64062 3.26563h-.03125c-.09375-1.79688-.3125-4.25-.48438-5.10938l-.07812-.04687-1.96875.5625L.9375-5l.79688-.03125c.23437 0 .29687.20313.39062.79688.125.90625.39063 3.15625.39063 4.07812 0 .35938-.01563.82813-.28125 1.45313-.20313.48437-.5.82812-.75.82812-.42188 0-.46875-.64062-.89063-.64062C.29688 1.48438 0 1.84375 0 2.1875m0 0"/><path id="l" d="M1-1.67187h6.42188v-.67188H1Zm0-2.5625h6.42188v-.6875H1Zm0 0"/><path id="m" d="M.89063 0H3.625v-.25l-.65625-.0625c-.17187-.01562-.26562-.07812-.26562-.39062v-4.8125l-.04688-.04688-1.76562.29688v.21875l.70312.09375c.17188.03125.21875.09375.21875.34375v3.90625c0 .3125-.07812.375-.26562.39062L.89063-.25Zm0 0"/><path id="n" d="M.28125-.34375c0 .23438.20313.4375.54688.4375.5625 0 .85937-.51562 1.1875-1.0625l.3125-.54687h.01562l.15625.625c.14063.625.29688.98437.73438.98437.64062 0 1-.64062 1.25-1.1875l-.21875-.125c-.20313.39063-.4375.82813-.65625.82813-.15625 0-.21875-.17188-.375-.79688L2.9375-2.34375c.28125-.5.67188-1.07812.89063-1.07812.25 0 .28125.125.53125.125.1875 0 .375-.1875.375-.42188 0-.28125-.20313-.39062-.4375-.39062-.42188 0-.76563.34375-1.0625.79687l-.35938.57813h-.01562l-.3125-1.34375L2.5-4.10937l-1.4375.40625.01563.21875.60937-.04688c.14063 0 .20313.0625.28125.375l.29688 1.21875-.23438.40625c-.3125.54688-.59375.95313-.78125.95313-.23437 0-.3125-.21876-.57812-.21876-.21876 0-.39063.21876-.39063.45313m0 0"/><clipPath id="a"><path d="M12 .22266h248.70313v248.21093H12Zm0 0"/></clipPath><clipPath id="g"><path d="M242 111h18.70313v26H242Zm0 0"/></clipPath><clipPath id="h"><path d="M136 6h1v242.4336h-1Zm0 0"/></clipPath><clipPath id="i"><path d="M123 .22266h27V19h-27Zm0 0"/></clipPath><clipPath id="j"><path d="M12.88672 123h120.17187v125.03906H12.88672Zm0 0"/></clipPath><clipPath id="o"><path d="M140.1289.61719h120.1758V126H140.1289Zm0 0"/></clipPath></defs><g clip-path="url(#a)"><path fill="none" stroke="#000" stroke-miterlimit="10" stroke-opacity=".5" stroke-width=".39751" d="M12.88673 230.36327h247.41795M12.88673 195.01952h247.41795M12.88673 159.67187h247.41795M12.88673 124.32812h247.41795M12.88673 88.98438h247.41795M12.88673 53.63672h247.41795M12.88673 18.29298h247.41795M30.5586 248.03905V.6172m35.34375 247.42185V.6172M101.25 248.03905V.6172m35.34375 247.42185V.6172m35.34765 247.42185V.6172m35.34375 247.42185V.6172m35.34765 247.42185V.6172"/></g><path fill="none" stroke="#000" stroke-miterlimit="10" stroke-opacity=".5" stroke-width=".39751" d="M136.59375 115.49219v17.67187"/><use xlink:href="#b" x="121.44097" y="140.20971" fill-opacity=".5"/><path fill="none" stroke="#000" stroke-miterlimit="10" stroke-opacity=".5" stroke-width=".39751" d="M30.5586 115.49219v17.67187"/><g fill-opacity=".5"><use xlink:href="#c" x="23.99732" y="136.67451"/><use xlink:href="#d" x="31.55511" y="136.67451"/></g><path fill="none" stroke="#000" stroke-miterlimit="10" stroke-opacity=".5" stroke-width=".39751" d="M65.90235 115.49219v17.67187"/><g fill-opacity=".5"><use xlink:href="#c" x="59.34241" y="136.73635"/><use xlink:href="#e" x="66.9002" y="136.73635"/></g><path fill="none" stroke="#000" stroke-miterlimit="10" stroke-opacity=".5" stroke-width=".39751" d="M101.25 115.49219v17.67187"/><g fill-opacity=".5"><use xlink:href="#c" x="94.6875" y="136.73635"/><use xlink:href="#f" x="102.2453" y="136.73635"/></g><path fill="none" stroke="#000" stroke-miterlimit="10" stroke-opacity=".5" stroke-width=".39751" d="M171.9414 115.49219v17.67187"/><use xlink:href="#f" x="169.15729" y="136.73635" fill-opacity=".5"/><path fill="none" stroke="#000" stroke-miterlimit="10" stroke-opacity=".5" stroke-width=".39751" d="M207.28515 115.49219v17.67187"/><use xlink:href="#e" x="204.50239" y="136.73635" fill-opacity=".5"/><path fill="none" stroke="#000" stroke-miterlimit="10" stroke-opacity=".5" stroke-width=".39751" d="M242.6328 115.49219v17.67187"/><use xlink:href="#d" x="239.84748" y="136.67451" fill-opacity=".5"/><path fill="none" stroke="#000" stroke-miterlimit="10" stroke-width=".79503" d="M12.88673 124.32812h241.2578"/><path d="M258.29688 124.32813c-.50782-.10547-2.75391-.70704-4.15235-1.35938v2.71875c1.39844-.65234 3.64453-1.2539 4.15234-1.35937m0 0"/><g clip-path="url(#g)"><path fill="none" stroke="#000" stroke-miterlimit="10" stroke-width=".79503" d="M258.29688 124.32812c-.50782-.10546-2.75391-.70703-4.15235-1.35937v2.71875c1.39844-.65234 3.64453-1.2539 4.15235-1.35938Zm0 0"/></g><path fill="none" stroke="#000" stroke-miterlimit="10" stroke-opacity=".5" stroke-width=".39751" d="M145.4336 230.36327h-17.6758"/><g fill-opacity=".5"><use xlink:href="#c" x="117.66236" y="233.87376"/><use xlink:href="#d" x="125.22016" y="233.87376"/></g><path fill="none" stroke="#000" stroke-miterlimit="10" stroke-opacity=".5" stroke-width=".39751" d="M145.4336 195.01952h-17.6758"/><g fill-opacity=".5"><use xlink:href="#c" x="117.66236" y="198.59052"/><use xlink:href="#e" x="125.22016" y="198.59052"/></g><path fill="none" stroke="#000" stroke-miterlimit="10" stroke-opacity=".5" stroke-width=".39751" d="M145.4336 159.67187h-17.6758"/><g fill-opacity=".5"><use xlink:href="#c" x="117.66236" y="163.24542"/><use xlink:href="#f" x="125.22016" y="163.24542"/></g><path fill="none" stroke="#000" stroke-miterlimit="10" stroke-opacity=".5" stroke-width=".39751" d="M145.4336 88.98438h-17.6758"/><use xlink:href="#f" x="121.44097" y="92.55523" fill-opacity=".5"/><path fill="none" stroke="#000" stroke-miterlimit="10" stroke-opacity=".5" stroke-width=".39751" d="M145.4336 53.63672h-17.6758"/><use xlink:href="#e" x="121.44097" y="57.21014" fill-opacity=".5"/><path fill="none" stroke="#000" stroke-miterlimit="10" stroke-opacity=".5" stroke-width=".39751" d="M145.4336 18.29298h-17.6758"/><use xlink:href="#d" x="121.44097" y="21.8032" fill-opacity=".5"/><g clip-path="url(#h)"><path fill="none" stroke="#000" stroke-miterlimit="10" stroke-width=".79503" d="M136.59375 248.03905V6.78125"/></g><path d="M136.59375 2.625c-.10547.51172-.70703 2.7539-1.35937 4.15625h2.72265c-.65625-1.40234-1.2539-3.64453-1.36328-4.15625m0 0"/><g clip-path="url(#i)"><path fill="none" stroke="#000" stroke-miterlimit="10" stroke-width=".79503" d="M136.59375 2.625c-.10547.51172-.70703 2.7539-1.35937 4.15625h2.72265c-.65625-1.40234-1.2539-3.64453-1.36328-4.15625Zm0 0"/></g><g clip-path="url(#j)"><path fill="none" stroke="#FF7F00" stroke-miterlimit="10" stroke-width=".79503" d="M12.88673 134.42578s3.61719.30078 5.00781.42578c1.38672.1211 3.61719.32813 5.0039.46094 1.39063.13672 3.6211.36328 5.00782.51172 1.39062.14453 3.61719.39062 5.00781.55468 1.39063.16016 3.61719.4297 5.00781.60938s3.6172.47656 5.00782.67578c1.38671.19922 3.61718.53125 5.0078.7539 1.38673.22266 3.6172.59376 5.00391.84376 1.39063.25 3.6211.66797 5.00782.94922 1.39062.28125 3.61718.7578 5.0078 1.07812 1.39063.32422 3.6172.8711 5.00782 1.24219 1.39062.3711 3.61719 1 5.00781 1.42969 1.38672.43359 3.61719 1.16796 5.00781 1.67578 1.38672.51172 3.6172 1.38672 5.0039 1.99609 1.39063.60937 3.6172 1.65625 5.00782 2.39844 1.39063.74219 3.61719 2.02734 5.00781 2.95312s3.6172 2.53125 5.00782 3.71485c1.39062 1.1875 3.61718 3.2578 5.0078 4.83203 1.38673 1.57422 3.6172 4.3203 5.00782 6.51562 1.38672 2.19531 3.61719 6.01953 5.0039 9.29297 1.39063 3.27344 3.6172 8.86719 5.00782 14.30078 1.39062 5.4336 3.61719 13.92578 5.00781 24.8711 1.39063 10.9453 3.61719 17.8164 5.00781 54.01561 1.39063 36.20312 5.00781 206.90233 5.00781 206.90233"/></g><use xlink:href="#k" x="4.1407" y="151.80089" fill="#FF7F00"/><use xlink:href="#l" x="13.64384" y="151.80089" fill="#FF7F00"/><use xlink:href="#m" x="26.29934" y="146.80706" fill="#FF7F00"/><path fill="none" stroke="#FF7F00" stroke-miterlimit="10" stroke-width=".6833" d="M25.96484 148.50781h5.07813"/><use xlink:href="#n" x="25.96517" y="156.17251" fill="#FF7F00"/><g clip-path="url(#o)"><path fill="none" stroke="#FF7F00" stroke-miterlimit="10" stroke-width=".79503" d="M140.1289-229.12888s3.6172 170.95702 5.00782 207.20311c1.39062 36.25 3.61719 43.09765 5.00781 54.04687 1.39062 10.95313 3.61719 19.44922 5.00781 24.88281 1.38672 5.4375 3.61719 11.03125 5.00781 14.30469 1.38672 3.27344 3.6172 7.09765 5.00391 9.29297 1.39062 2.1953 3.6211 4.94921 5.00781 6.52343 1.39063 1.57422 3.61719 3.64063 5.00781 4.82813 1.39063 1.1836 3.6172 2.78906 5.00782 3.71484s3.61718 2.21484 5.0078 2.95703c1.38673.74219 3.6172 1.78906 5.00782 2.39844 1.38672.60937 3.61719 1.48437 5.0039 1.99219 1.39063.5078 3.6211 1.24609 5.00782 1.67968 1.39062.4297 3.61719 1.0586 5.00781 1.4297 1.39063.37108 3.61719.91405 5.00781 1.23827 1.39063.32032 3.61719.79688 5.00781 1.08203 1.38672.28125 3.6172.69922 5.00782.94922 1.38672.25 3.61718.625 5.0039.84375 1.39063.22266 3.6211.55469 5.00782.7539 1.39062.19923 3.61718.4961 5.0078.67579 1.39063.17969 3.6172.44922 5.00782.60937 1.39062.16407 3.61719.41016 5.00781.5586 1.38672.14453 3.61719.3711 5.00781.50781 1.38672.13281 3.6172.33984 5.0039.46094 1.39063.125 5.00782.42578 5.00782.42578"/></g></svg>