<svg xmlns="http://www.w3.org/2000/svg" xmlns:xlink="http://www.w3.org/1999/xlink" width="258.75pt" height="258.75pt" viewBox="0 0 258.75 258.75"><defs><path id="b" d="M.5-4.0625C.5-1.625 1.21875.14063 3.21875.14063c2.01563 0 2.73438-1.76563 2.73438-4.20313s-.71875-4.20312-2.73438-4.20312C1.21875-8.26562.5-6.5.5-4.0625m1.23438 0c0-1.98437.32812-3.78125 1.48437-3.78125S4.70313-6.04687 4.70313-4.0625c0 1.98438-.32813 3.78125-1.48438 3.78125S1.73438-2.07812 1.73438-4.0625m0 0"/><path id="j" d="M.40625-6.0625c0 1.0625 1.0625 1.89063 3.48438 1.89063-.39063.71875-.6875 1.45312-.6875 2.25 0 1.34375.82812 2.0625 2.35937 2.0625 1.48438 0 3.04688-1.07813 3.04688-2.45313 0-.82812-.6875-1.28125-1.5625-1.28125-.95313 0-2.07813 1.07813-2.07813 1.92188 0 .26562.1875.75.5625.75.09375 0 .23438-.07813.23438-.1875 0-.15626-.28125-.17188-.28125-.54688 0-.59375.875-1.54687 1.5625-1.54687.5 0 .79687.1875.79687.67187C7.84375-1.46875 6.8125-.25 5.5625-.25c-.875 0-1.32812-.46875-1.32812-1.28125 0-.90625.625-1.96875 1.10937-2.73437 2.70313-.42188 5.35938-1.75 5.35938-3.4375 0-.65625-.51563-1.07813-1.21875-1.07813-1.60938 0-4.03125 2.04688-5.35938 4.1875-1.09375-.01562-2.89062-.03125-2.89062-1.32812 0-1.1875 1.45312-2.10938 2.35937-2.10938.17188 0 .26563-.10937.26563-.20312 0-.10938-.09375-.1875-.20313-.1875-1.35937 0-3.25.92187-3.25 2.35937M5.59375-4.75C6.48438-6.3125 8.375-8.39062 9.48438-8.39062c.42187 0 .71875.23437.71875.64062 0 1.35938-2.125 2.59375-4.60938 3m0 0"/><path id="n" d="m1.76563-1.3125.5.5L4.375-2.9375 6.5-.8125l.48438-.5L4.875-3.42187l2.10938-2.125-.48438-.5L4.375-3.9375 2.26563-6.04687l-.5.5 2.10937 2.125Zm0 0"/><path id="c" d="M.9375-2.76562h6.01563v-.64063H.9375Zm0 0"/><path id="d" d="M.29688-1.125c0 .46875.75 1.25 2.29687 1.25 1.57813 0 2.59375-.79687 2.59375-2.20312 0-1.45313-1.26562-1.89063-1.875-1.95313v-.04687c.59375-.09375 1.54688-.53125 1.54688-1.60938 0-1.21875-.95313-1.75-2.125-1.75-1.4375 0-2.15625.84375-2.15625 1.29688 0 .34375.39062.53125.54687.53125.125 0 .21875-.07813.26563-.21875.23437-.75.64062-1.21875 1.26562-1.21875.85938 0 1.07813.75 1.07813 1.35937 0 .65625-.23438 1.48438-1.15625 1.48438-.53125 0-.82813-.10938-.95313-.10938-.14062 0-.20312.10938-.20312.3125 0 .1875.0625.29688.20312.29688.125 0 .42188-.10938.95313-.10938.92187 0 1.45312.84375 1.45312 1.79688C4.03125-.70312 3.39063-.25 2.60938-.25c-.71875 0-1.20313-.54687-1.40625-1.15625-.07813-.21875-.17188-.3125-.32813-.3125-.20312 0-.57812.20313-.57812.59375m0 0"/><path id="e" d="M.29688-.10937.40625 0H4.9375l.375-1.4375L5-1.5c-.23437.59375-.45312.67188-.89062.67188H1.3125c.17188-.5625.82813-1.34375 1.84375-2.07813 1.04688-.76562 1.85938-1.26562 1.85938-2.48437C5.01563-6.92187 4-7.4375 2.85938-7.4375c-1.51563 0-2.28125.90625-2.28125 1.48438 0 .35937.42187.54687.60937.54687.20313 0 .26563-.125.3125-.3125.17188-.73437.60938-1.32812 1.28125-1.32812.84375 0 1.07813.6875 1.07813 1.5 0 1.17187-.59375 1.82812-1.54688 2.67187C.96875-1.70312.5-.95312.29688-.10937m0 0"/><path id="f" d="M1.1875 0h3.59375v-.3125l-.92187-.07812C3.625-.42187 3.5-.5 3.5-.9375V-7.375l-.04687-.0625-2.26563.39063v.26562l1.03125.125c.17188.01563.25.10938.25.42188V-.9375c0 .4375-.10937.51563-.35937.54688L1.1875-.3125Zm0 0"/><path id="k" d="M.25-.09375.34375 0h3.60938l.3125-1.21875L4-1.26562C3.8125-.8125 3.65625-.75 3.3125-.75H1.14063c.125-.40625.57812-.96875 1.40625-1.53125.85937-.57812 1.48437-.96875 1.48437-1.90625 0-1.1875-.8125-1.60937-1.75-1.60937-1.17187 0-1.82812.67187-1.82812 1.1875 0 .3125.35937.45312.53125.45312s.25-.07812.28124-.25c.14063-.59375.45313-1.0625.95313-1.0625.59375 0 .79688.51563.79688 1.125 0 .82813-.375 1.375-1.17188 2.0625C.75-1.34375.375-.73437.25-.09375m0 0"/><path id="m" d="m.17188-1.71875.09375.20313H2.5625v.85937c0 .28125-.10937.32813-.29687.34375l-.54688.04688V0H4.0625v-.26562L3.67188-.3125c-.1875-.01562-.25-.0625-.25-.34375v-.85937h.875v-.4375h-.875V-5.6875h-.71875C1.875-4.48437.95313-3.03125.17188-1.71875m.6875-.23437C1.34375-2.84375 1.9375-3.8125 2.5625-4.79687v2.84375Zm0 0"/><clipPath id="a"><path d="M0 0h258.5v258.5H0Zm0 0"/></clipPath><clipPath id="g"><path d="M240 116h18.5v26H240Zm0 0"/></clipPath><clipPath id="h"><path d="M128 6h2v252.5h-2Zm0 0"/></clipPath><clipPath id="i"><path d="M129.25 49h128.85547v92H129.25Zm0 0"/></clipPath><clipPath id="l"><path d="M.39453.39453h257.71094v257.71094H.39453Zm0 0"/></clipPath></defs><g clip-path="url(#a)"><path fill="none" stroke="#7f7f7f" stroke-dasharray=".39811744000000004 .9953235712000001" stroke-miterlimit="10" stroke-width=".39812" d="M.3945 239.69534h257.711M.3945 202.87893h257.711M.3945 166.06642h257.711M.3945 129.25h257.711M.3945 92.43359h257.711M.3945 55.62108h257.711M.3945 18.80466h257.711M18.80466 258.1055V.3945m36.81642 257.711V.3945m36.8125 257.711V.3945M129.25 258.1055V.3945m36.81642 257.711V.3945m36.8125 257.711V.3945m36.81642 257.711V.3945"/></g><use xlink:href="#b" x="113.14268" y="146.19875" fill="#7f7f7f"/><path fill="none" stroke="#7f7f7f" stroke-miterlimit="10" stroke-width=".39812" d="M18.80466 120.04687v18.40626"/><g fill="#7f7f7f"><use xlink:href="#c" x="11.96944" y="150.46662"/><use xlink:href="#d" x="19.84148" y="150.46662"/></g><path fill="none" stroke="#7f7f7f" stroke-miterlimit="10" stroke-width=".39812" d="M55.62108 120.04687v18.40626"/><g fill="#7f7f7f"><use xlink:href="#c" x="48.78487" y="150.46662"/><use xlink:href="#e" x="56.65691" y="150.46662"/></g><path fill="none" stroke="#7f7f7f" stroke-miterlimit="10" stroke-width=".39812" d="M92.43359 120.04687v18.40626"/><g fill="#7f7f7f"><use xlink:href="#c" x="85.59929" y="150.46662"/><use xlink:href="#f" x="93.47134" y="150.46662"/></g><path fill="none" stroke="#7f7f7f" stroke-miterlimit="10" stroke-width=".39812" d="M166.06642 120.04687v18.40626"/><use xlink:href="#f" x="163.16535" y="150.46662" fill="#7f7f7f"/><path fill="none" stroke="#7f7f7f" stroke-miterlimit="10" stroke-width=".39812" d="M202.87893 120.04687v18.40626"/><use xlink:href="#e" x="199.98078" y="150.46662" fill="#7f7f7f"/><path fill="none" stroke="#7f7f7f" stroke-miterlimit="10" stroke-width=".39812" d="M239.69534 120.04687v18.40626"/><use xlink:href="#d" x="236.79521" y="150.46662" fill="#7f7f7f"/><path fill="none" stroke="#000" stroke-miterlimit="10" stroke-width=".79624" d="M.3945 129.25h251.53913"/><path d="M256.09375 129.25c-.51172-.10547-2.75781-.70703-4.16016-1.36328v2.72656c1.40235-.65625 3.64844-1.25781 4.16016-1.36328m0 0"/><g clip-path="url(#g)"><path fill="none" stroke="#000" stroke-miterlimit="10" stroke-width=".79624" d="M256.09375 129.25c-.51172-.10547-2.75781-.70703-4.16016-1.36328v2.72656c1.40235-.65625 3.64844-1.25781 4.16016-1.36328Zm0 0"/></g><path fill="none" stroke="#7f7f7f" stroke-miterlimit="10" stroke-width=".39812" d="M138.45313 239.69534h-18.40626"/><g fill="#7f7f7f"><use xlink:href="#c" x="101.80364" y="243.35088"/><use xlink:href="#d" x="109.67569" y="243.35088"/></g><path fill="none" stroke="#7f7f7f" stroke-miterlimit="10" stroke-width=".39812" d="M138.45313 202.87893h-18.40626"/><g fill="#7f7f7f"><use xlink:href="#c" x="101.80364" y="206.60039"/><use xlink:href="#e" x="109.67569" y="206.60039"/></g><path fill="none" stroke="#7f7f7f" stroke-miterlimit="10" stroke-width=".39812" d="M138.45313 166.06642h-18.40626"/><g fill="#7f7f7f"><use xlink:href="#c" x="101.80364" y="169.78596"/><use xlink:href="#f" x="109.67569" y="169.78596"/></g><path fill="none" stroke="#7f7f7f" stroke-miterlimit="10" stroke-width=".39812" d="M138.45313 92.43359h-18.40626"/><use xlink:href="#f" x="109.67603" y="96.1561" fill="#7f7f7f"/><path fill="none" stroke="#7f7f7f" stroke-miterlimit="10" stroke-width=".39812" d="M138.45313 55.62108h-18.40626"/><use xlink:href="#e" x="109.67603" y="59.34067" fill="#7f7f7f"/><path fill="none" stroke="#7f7f7f" stroke-miterlimit="10" stroke-width=".39812" d="M138.45313 18.80466h-18.40626"/><use xlink:href="#d" x="109.67603" y="22.4623" fill="#7f7f7f"/><g clip-path="url(#h)"><path fill="none" stroke="#000" stroke-miterlimit="10" stroke-width=".79624" d="M129.25 258.1055V6.56638"/></g><path stroke="#000" stroke-miterlimit="10" stroke-width=".79624" d="M129.25 2.40625c-.10547.51172-.70703 2.75781-1.36328 4.16016h2.72656c-.65625-1.40235-1.25781-3.64844-1.36328-4.16016Zm0 0"/><g clip-path="url(#i)"><path fill="none" stroke="#ff7f00" stroke-miterlimit="10" stroke-width=".79624" d="M129.25 129.25s3.8789-11.30078 5.36719-14.0586c1.49219-2.75781 3.8789-4.39453 5.3711-5.82422 1.48828-1.42578 3.8789-3.32422 5.36718-4.46875 1.4922-1.14062 3.87891-2.78125 5.3711-3.76562 1.48828-.98438 3.8789-2.44141 5.36719-3.32032 1.48828-.875 3.8789-2.19922 5.36719-3 1.49218-.79687 3.8789-2.01953 5.3711-2.75781 1.48827-.73828 3.8789-1.8789 5.36718-2.57031 1.49219-.6875 3.8789-1.75782 5.3711-2.41016 1.48828-.65235 3.8789-1.66406 5.36718-2.28125s3.87891-1.58203 5.3672-2.17188c1.49218-.58594 3.8789-1.50781 5.37109-2.07031 1.48828-.5664 3.8789-1.44922 5.36719-1.99219 1.49218-.53906 3.8789-1.39062 5.3711-1.91016 1.48827-.52343 3.8789-1.34375 5.36718-1.84765s3.8789-1.29688 5.36719-1.78516c1.49219-.48828 3.8789-1.25781 5.3711-1.73047 1.48828-.47265 3.8789-1.22265 5.36718-1.67969 1.48829-.46093 3.87891-1.1875 5.3672-1.63672 1.49218-.44921 3.8789-1.15625 5.37109-1.58984 1.48828-.4375 3.8789-1.1289 5.36719-1.55469 1.49218-.42578 3.8789-1.10156 5.3711-1.51562 1.48827-.41797 3.8789-1.07422 5.36718-1.48047 1.48828-.41016 5.36719-1.45313 5.36719-1.45313"/></g><use xlink:href="#j" x="224.01756" y="84.98289" fill="#ff7f00"/><use xlink:href="#k" x="233.94127" y="87.82844" fill="#ff7f00"/><g clip-path="url(#l)"><path fill="none" stroke="#00adef" stroke-miterlimit="10" stroke-width=".79624" d="m.3945 258.1055 10.73828-10.73828 10.73829-10.73829 10.73828-10.73828 10.73828-10.73828 10.73438-10.73438L64.8203 193.6797l10.73828-10.73828 10.73828-10.73828c2.98047-2.97657 7.75782-7.75782 10.73829-10.73438 2.97656-2.98047 7.75781-7.75782 10.73438-10.73829l10.73828-10.73828 10.73828-10.73828 10.73829-10.73829 10.73438-10.73438 10.73828-10.73828 10.73828-10.73828 10.73829-10.73829 10.73828-10.73828 10.73438-10.73438 10.73828-10.73828 10.73829-10.73829 10.73828-10.73828c2.97656-2.97656 7.75782-7.75782 10.73829-10.73438C250.33597 8.16403 258.09378.40622 258.09378.40622"/></g><use xlink:href="#j" x="32.07401" y="199.14459" fill="#00adef"/><use xlink:href="#m" x="41.99902" y="201.99014" fill="#00adef"/><use xlink:href="#n" x="124.87735" y="132.2712"/><use xlink:href="#n" x="161.69178" y="95.45677"/></svg>