<svg xmlns="http://www.w3.org/2000/svg" xmlns:xlink="http://www.w3.org/1999/xlink" width="183.643pt" height="144.609pt" viewBox="0 0 183.643 144.609"><defs><path id="b" d="M.4375-3.51562C.4375-1.40625 1.04688.125 2.78125.125c1.73438 0 2.35938-1.53125 2.35938-3.64062 0-2.09375-.625-3.625-2.35938-3.625S.4375-5.60937.4375-3.51562m1.0625 0c0-1.70313.28125-3.25 1.28125-3.25s1.28125 1.54687 1.28125 3.25C4.0625-1.79687 3.78125-.25 2.78125-.25S1.5-1.79687 1.5-3.51562m0 0"/><path id="c" d="M.89063-2.65625h5.78125v-.60937H.89063Zm0 0"/><path id="d" d="M.28125-.09375.39063 0h4.34375l.35937-1.39062-.29687-.04688c-.21875.5625-.42188.64063-.85938.64063H1.26563c.17187-.54688.79687-1.29688 1.76562-2 1-.73438 1.78125-1.20313 1.78125-2.375 0-1.46875-.96875-1.96875-2.07812-1.96875-1.4375 0-2.17188.875-2.17188 1.42187 0 .35938.39063.53125.57813.53125s.25-.125.29687-.29687c.17188-.71875.57813-1.28125 1.23438-1.28125.79687 0 1.03125.67187 1.03125 1.4375 0 1.125-.5625 1.76562-1.48438 2.5625C.92188-1.625.48438-.92187.28125-.09375m0 0"/><path id="e" d="M1.14063 0h3.45312v-.29687L3.70313-.375c-.21875-.03125-.34375-.10937-.34375-.51562v-6.1875l-.04688-.0625-2.17187.375v.25l.98437.125c.17188.01562.25.09375.25.40625v5.09375c0 .40625-.10937.48437-.35937.51562l-.875.07813Zm0 0"/><path id="h" d="M.28125-1.07812C.28125-.625 1 .125 2.48438.125c1.53125 0 2.48437-.76562 2.48437-2.10937 0-1.40625-1.20312-1.82813-1.78125-1.875v-.04688C3.75-4 4.65625-4.42187 4.65625-5.46875c0-1.15625-.90625-1.67187-2.03125-1.67187-1.39062 0-2.0625.8125-2.0625 1.25 0 .32812.35938.5.51563.5.125 0 .20312-.07813.25-.20313.23437-.71875.625-1.17187 1.21875-1.17187.82812 0 1.04687.71875 1.04687 1.3125 0 .625-.23437 1.42187-1.125 1.42187-.5 0-.79687-.10937-.92187-.10937s-.1875.10937-.1875.29687c0 .17188.0625.29688.1875.29688s.42187-.10938.92187-.10938c.89063 0 1.39063.8125 1.39063 1.71875C3.85938-.6875 3.25-.25 2.5-.25c-.6875 0-1.14062-.51562-1.34375-1.10937-.07812-.1875-.17187-.29688-.3125-.29688-.20312 0-.5625.20313-.5625.57813m0 0"/><path id="j" d="M0 2.1875c0 .3125.34375.625.85938.625.98437 0 1.40625-.71875 2.4375-2.5.25-.40625.95312-1.625 1.67187-2.82812C5.64063-3.60937 6.375-4.73437 6.375-5.20312c0-.40625-.125-.65625-.21875-.65625-.21875 0-.60937.09375-.92187.29687 0 0-.03125 1.1875-.14063 1.59375-.1875.67188-.875 1.9375-1.64062 3.26563h-.03125c-.09375-1.79688-.3125-4.25-.48438-5.10938l-.07812-.04687-1.96875.5625L.9375-5l.79688-.03125c.23437 0 .29687.20313.39062.79688.125.90625.39063 3.15625.39063 4.07812 0 .35938-.01563.82813-.28125 1.45313-.20313.48437-.5.82812-.75.82812-.42188 0-.46875-.64062-.89063-.64062C.29688 1.48438 0 1.84375 0 2.1875m0 0"/><path id="k" d="M1-1.67187h6.42188v-.67188H1Zm0-2.5625h6.42188v-.6875H1Zm0 0"/><path id="l" d="M.375-.45312c0 .32812.26563.59375.75.59375.78125 0 1.23438-.79688 1.71875-1.57813l.46875-.78125h.03125l.20313.92188c.23437.9375.4375 1.4375 1.03125 1.4375.85937 0 1.3125-.89063 1.65625-1.59375l-.29688-.15626C5.65625-1.09374 5.32813-.46874 5-.46874c-.21875 0-.29687-.26562-.5625-1.3125l-.375-1.51562c.42188-.75 1.01563-1.6875 1.35938-1.6875s.35937.1875.70312.1875c.26563 0 .5-.25.5-.5625 0-.35938-.28125-.5-.59375-.5-.625 0-1.15625.5625-1.5625 1.21875l-.5.79687H3.9375L3.46875-5.8125l-.0625-.04687-1.92187.57812L1.5-5l.92188-.0625c.1875 0 .28125.09375.39062.59375l.40625 1.6875-.32812.5625C2.39063-1.35937 1.96875-.75 1.67188-.75 1.34375-.75 1.25-1.04687.875-1.04687c-.29687 0-.5.29687-.5.59375m0 0"/><path id="m" d="M.23438-.09375.32813 0h3.45312l.29688-1.17187-.23438-.03126c-.1875.4375-.34375.48438-.67187.48438H1.07813c.14062-.39062.57812-.9375 1.35937-1.46875.82813-.54687 1.42188-.9375 1.42188-1.82812 0-1.14063-.78125-1.53125-1.67188-1.53125-1.125 0-1.75.64062-1.75 1.14062 0 .28125.32813.42188.51563.42188.15624 0 .23437-.07813.26562-.23438.125-.57812.4375-1.03125.90625-1.03125.57813 0 .76563.5.76563 1.09375 0 .78125-.35938 1.3125-1.125 1.96875C.71875-1.29687.35938-.70312.23438-.09375m0 0"/><clipPath id="a"><path d="M.07031 0H178v142H.07031Zm0 0"/></clipPath><clipPath id="f"><path d="M.07031 123H172v2H.07031Zm0 0"/></clipPath><clipPath id="g"><path d="M159 111h24.21875v26H159Zm0 0"/></clipPath><clipPath id="i"><path d="M.46484.39453h176.69141V136H.46485Zm0 0"/></clipPath></defs><g clip-path="url(#a)"><path fill="none" stroke="#000" stroke-miterlimit="10" stroke-opacity=".5" stroke-width=".39742" d="M.46488 124.07812h176.69133M.46488 88.7422h176.69133M.46488 53.40238h176.69133M.46488 18.06645h176.69133M18.13284 141.7461V.39459m35.33983 141.3515V.39459m35.33983 141.3515V.39459m35.33592 141.3515V.39459m35.33983 141.3515V.39459"/></g><path fill="none" stroke="#000" stroke-miterlimit="10" stroke-opacity=".5" stroke-width=".39742" d="M88.8125 115.2422v17.67186"/><use xlink:href="#b" x="73.65961" y="139.95658" fill-opacity=".5"/><path fill="none" stroke="#000" stroke-miterlimit="10" stroke-opacity=".5" stroke-width=".39742" d="M18.13284 115.2422v17.67186"/><g fill-opacity=".5"><use xlink:href="#c" x="11.57447" y="136.48397"/><use xlink:href="#d" x="19.13064" y="136.48397"/></g><path fill="none" stroke="#000" stroke-miterlimit="10" stroke-opacity=".5" stroke-width=".39742" d="M53.47267 115.2422v17.67186"/><g fill-opacity=".5"><use xlink:href="#c" x="46.91193" y="136.48397"/><use xlink:href="#e" x="54.46809" y="136.48397"/></g><path fill="none" stroke="#000" stroke-miterlimit="10" stroke-opacity=".5" stroke-width=".39742" d="M124.14842 115.2422v17.67186"/><use xlink:href="#e" x="121.36462" y="136.48397" fill-opacity=".5"/><path fill="none" stroke="#000" stroke-miterlimit="10" stroke-opacity=".5" stroke-width=".39742" d="M159.48825 115.2422v17.67186"/><use xlink:href="#d" x="156.70207" y="136.48397" fill-opacity=".5"/><g clip-path="url(#f)"><path fill="none" stroke="#000" stroke-miterlimit="10" stroke-width=".79486" d="M.46488 124.07812h170.53118"/></g><path d="M175.14844 124.07813c-.51172-.10547-2.7539-.70704-4.15235-1.35938v2.71875c1.39844-.65234 3.64063-1.2539 4.15235-1.35937m0 0"/><g clip-path="url(#g)"><path fill="none" stroke="#000" stroke-miterlimit="10" stroke-width=".79486" d="M175.14844 124.07812c-.51172-.10546-2.7539-.70703-4.15235-1.35937v2.71875c1.39844-.65234 3.64063-1.2539 4.15235-1.35938Zm0 0"/></g><path fill="none" stroke="#000" stroke-miterlimit="10" stroke-opacity=".5" stroke-width=".39742" d="M97.64453 88.7422H79.97657"/><use xlink:href="#e" x="73.65961" y="92.3124" fill-opacity=".5"/><path fill="none" stroke="#000" stroke-miterlimit="10" stroke-opacity=".5" stroke-width=".39742" d="M97.64453 53.40238H79.97657"/><use xlink:href="#d" x="73.65961" y="56.97495" fill-opacity=".5"/><path fill="none" stroke="#000" stroke-miterlimit="10" stroke-opacity=".5" stroke-width=".39742" d="M97.64453 18.06645H79.97657"/><use xlink:href="#h" x="73.65961" y="21.57566" fill-opacity=".5"/><path fill="none" stroke="#000" stroke-miterlimit="10" stroke-width=".79486" d="M88.8125 141.74609V6.55474"/><path stroke="#000" stroke-miterlimit="10" stroke-width=".79486" d="M88.8125 2.40235c-.10938.51171-.70703 2.7539-1.36328 4.15234h2.72265c-.65625-1.39844-1.2539-3.64063-1.35937-4.15234Zm0 0"/><g clip-path="url(#i)"><path fill="none" stroke="#007F7F" stroke-miterlimit="10" stroke-width=".79486" d="M.46488-96.78506S5.7852-70.871 7.82816-61.50773s5.32031 23.6953 7.36328 32.20702S20.50784-7.82025 22.55081-.1562c2.04297 7.66015 5.32031 19.2617 7.36328 26.0703 2.04297 6.8125 5.3164 17.05077 7.35937 23.0078s5.32031 14.83202 7.36328 19.93749c2.04297 5.10937 5.3203 12.61718 7.36328 16.87109 2.04296 4.2578 5.3164 10.40234 7.35937 13.80468 2.04297 3.40625 5.3203 8.18359 7.36328 10.73827 2.04296 2.55469 5.3203 5.96484 7.36327 7.66797 2.04297 1.70312 5.3164 3.75 7.35938 4.60156 2.04296.85156 5.3203 1.53515 7.36327 1.53515s5.32031-.67968 7.36328-1.53125c2.04297-.85156 5.3164-2.89843 7.35937-4.60156 2.04297-1.70312 5.32031-5.11327 7.36328-7.66796 2.04297-2.55078 5.32031-7.32812 7.36328-10.73437 2.04297-3.40234 5.3164-9.54687 7.35937-13.80078 2.04297-4.2578 5.32031-11.76562 7.36328-16.87108 2.04297-5.10547 5.3203-13.98046 7.35937-19.9375 2.04297-5.95702 5.32031-16.1953 7.36328-23.00389s5.3203-18.41015 7.36328-26.0703c2.04296-7.66015 5.3164-20.6289 7.35937-29.14061 2.04297-8.51172 5.3203-22.84374 7.36328-32.20702 2.04296-9.36328 7.36327-35.27342 7.36327-35.27342"/></g><use xlink:href="#j" x="146.20545" y="59.47818" fill="#007F7F"/><use xlink:href="#k" x="155.70654" y="59.47818" fill="#007F7F"/><use xlink:href="#l" x="166.52411" y="59.47818" fill="#007F7F"/><use xlink:href="#m" x="173.92426" y="54.51036" fill="#007F7F"/></svg>