<svg xmlns="http://www.w3.org/2000/svg" xmlns:xlink="http://www.w3.org/1999/xlink" width="271.788pt" height="258.75pt" viewBox="0 0 271.788 258.75"><defs><path id="b" d="M.5-4.0625C.5-1.625 1.21875.14063 3.21875.14063c2.01563 0 2.73438-1.76563 2.73438-4.20313s-.71875-4.20312-2.73438-4.20312C1.21875-8.26562.5-6.5.5-4.0625m1.23438 0c0-1.98437.32812-3.78125 1.48437-3.78125S4.70313-6.04687 4.70313-4.0625c0 1.98438-.32813 3.78125-1.48438 3.78125S1.73438-2.07812 1.73438-4.0625m0 0"/><path id="j" d="M0 2.28125c0 .3125.35938.65625.89063.65625 1.03125 0 1.48437-.76562 2.54687-2.60937.25-.42188.98438-1.70313 1.73438-2.9375C5.875-3.75 6.64063-4.92187 6.64063-5.42187c0-.42188-.14063-.6875-.21875-.6875-.23438 0-.65625.10937-.96875.3125 0 0-.03125 1.25-.15625 1.67187-.1875.6875-.89063 2-1.70313 3.39063H3.5625c-.09375-1.85938-.32812-4.42188-.5-5.32813l-.09375-.04687-2.03125.57812.03125.3125.84375-.01562c.25 0 .29688.20312.40625.82812.125.9375.39063 3.28125.39063 4.25 0 .35938-.01563.85938-.28125 1.5-.21875.5-.53125.875-.78125.875-.4375 0-.48438-.67187-.92188-.67187-.3125 0-.625.375-.625.73437m0 0"/><path id="k" d="M1.03125-1.73437h6.6875v-.70313h-6.6875Zm0-2.67188h6.6875V-5.125h-6.6875Zm0 0"/><path id="c" d="M.9375-2.76562h6.01563v-.64063H.9375Zm0 0"/><path id="d" d="M.29688-1.125c0 .46875.75 1.25 2.29687 1.25 1.57813 0 2.59375-.79687 2.59375-2.20312 0-1.45313-1.26562-1.89063-1.875-1.95313v-.04687c.59375-.09375 1.54688-.53125 1.54688-1.60938 0-1.21875-.95313-1.75-2.125-1.75-1.4375 0-2.15625.84375-2.15625 1.29688 0 .34375.39062.53125.54687.53125.125 0 .21875-.07813.26563-.21875.23437-.75.64062-1.21875 1.26562-1.21875.85938 0 1.07813.75 1.07813 1.35937 0 .65625-.23438 1.48438-1.15625 1.48438-.53125 0-.82813-.10938-.95313-.10938-.14062 0-.20312.10938-.20312.3125 0 .1875.0625.29688.20312.29688.125 0 .42188-.10938.95313-.10938.92187 0 1.45312.84375 1.45312 1.79688C4.03125-.70312 3.39063-.25 2.60938-.25c-.71875 0-1.20313-.54687-1.40625-1.15625-.07813-.21875-.17188-.3125-.32813-.3125-.20312 0-.57812.20313-.57812.59375m0 0"/><path id="e" d="M.29688-.10937.40625 0H4.9375l.375-1.4375L5-1.5c-.23437.59375-.45312.67188-.89062.67188H1.3125c.17188-.5625.82813-1.34375 1.84375-2.07813 1.04688-.76562 1.85938-1.26562 1.85938-2.48437C5.01563-6.92187 4-7.4375 2.85938-7.4375c-1.51563 0-2.28125.90625-2.28125 1.48438 0 .35937.42187.54687.60937.54687.20313 0 .26563-.125.3125-.3125.17188-.73437.60938-1.32812 1.28125-1.32812.84375 0 1.07813.6875 1.07813 1.5 0 1.17187-.59375 1.82812-1.54688 2.67187C.96875-1.70312.5-.95312.29688-.10937m0 0"/><path id="f" d="M1.1875 0h3.59375v-.3125l-.92187-.07812C3.625-.42187 3.5-.5 3.5-.9375V-7.375l-.04687-.0625-2.26563.39063v.26562l1.03125.125c.17188.01563.25.10938.25.42188V-.9375c0 .4375-.10937.51563-.35937.54688L1.1875-.3125Zm0 0"/><path id="l" d="M.92188 0h2.85937v-.26562l-.6875-.0625c-.1875-.01563-.28125-.07813-.28125-.39063V-5.75l-.04687-.04687-1.82813.3125V-5.25l.73438.09375c.15624.03125.21874.09375.21874.35938v4.07812c0 .3125-.09374.375-.28124.39063l-.6875.0625Zm0 0"/><path id="m" d="M.29688-.35937c0 .25.20312.45312.57812.45312.5625 0 .89063-.53125 1.23438-1.10937l.3125-.5625h.03125l.14062.65625C2.75-.26562 2.92188.09374 3.375.09374c.67188 0 1.03125-.67187 1.29688-1.23437l-.23438-.125c-.20312.40625-.45312.85937-.6875.85937-.15625 0-.21875-.17187-.39062-.82812L3.0625-2.45312c.29688-.5.6875-1.125.92188-1.125.25 0 .29687.15625.5625.15625.1875 0 .39062-.20313.39062-.45313 0-.28125-.21875-.40625-.45312-.40625-.4375 0-.8125.35938-1.10938.84375l-.39062.57813h-.01563l-.32812-1.375-.04688-.04688-1.48437.42188.01562.23437.625-.04687c.15625 0 .21875.0625.29688.39062l.3125 1.26563-.23438.42187c-.32812.5625-.625.98438-.8125.98438-.26562 0-.34375-.21876-.60937-.21876-.23438 0-.40625.23438-.40625.46876m0 0"/><clipPath id="a"><path d="M13 0h258.55078v258.5H13Zm0 0"/></clipPath><clipPath id="g"><path d="M253 116h18.55078v26H253Zm0 0"/></clipPath><clipPath id="h"><path d="M141 6h2v252.5h-2Zm0 0"/></clipPath><clipPath id="i"><path d="M13.44531 128H138.6172v130.10547H13.4453Zm0 0"/></clipPath><clipPath id="n"><path d="M145.98438.39453h125.17187V130H145.98438Zm0 0"/></clipPath></defs><g clip-path="url(#a)"><path fill="none" stroke="#7f7f7f" stroke-dasharray=".39811744000000004 .9953235712000001" stroke-miterlimit="10" stroke-width=".39812" d="M13.44528 239.69534h257.711m-257.711-36.81641h257.711m-257.711-36.81251h257.711M13.44528 129.25h257.711m-257.711-36.81641h257.711m-257.711-36.81251h257.711m-257.711-36.81642h257.711M31.85544 258.1055V.3945m36.81642 257.711V.3945m36.8125 257.711V.3945m36.81642 257.711V.3945m36.81642 257.711V.3945m36.8125 257.711V.3945m36.81642 257.711V.3945"/></g><use xlink:href="#b" x="126.19337" y="146.19875" fill="#7f7f7f"/><path fill="none" stroke="#7f7f7f" stroke-miterlimit="10" stroke-width=".39812" d="M31.85544 120.04687v18.40626"/><g fill="#7f7f7f"><use xlink:href="#c" x="25.02112" y="150.46662"/><use xlink:href="#d" x="32.89317" y="150.46662"/></g><path fill="none" stroke="#7f7f7f" stroke-miterlimit="10" stroke-width=".39812" d="M68.67186 120.04687v18.40626"/><g fill="#7f7f7f"><use xlink:href="#c" x="61.83555" y="150.46662"/><use xlink:href="#e" x="69.7076" y="150.46662"/></g><path fill="none" stroke="#7f7f7f" stroke-miterlimit="10" stroke-width=".39812" d="M105.48437 120.04687v18.40626"/><g fill="#7f7f7f"><use xlink:href="#c" x="98.65098" y="150.46662"/><use xlink:href="#f" x="106.52303" y="150.46662"/></g><path fill="none" stroke="#7f7f7f" stroke-miterlimit="10" stroke-width=".39812" d="M179.1172 120.04687v18.40626"/><use xlink:href="#f" x="176.21604" y="150.46662" fill="#7f7f7f"/><path fill="none" stroke="#7f7f7f" stroke-miterlimit="10" stroke-width=".39812" d="M215.9297 120.04687v18.40626"/><use xlink:href="#e" x="213.03147" y="150.46662" fill="#7f7f7f"/><path fill="none" stroke="#7f7f7f" stroke-miterlimit="10" stroke-width=".39812" d="M252.74612 120.04687v18.40626"/><use xlink:href="#d" x="249.8459" y="150.46662" fill="#7f7f7f"/><path fill="none" stroke="#000" stroke-miterlimit="10" stroke-width=".79624" d="M13.44528 129.25h251.53913"/><path d="M269.14453 129.25c-.51172-.10547-2.75781-.70703-4.16015-1.36328v2.72656c1.40234-.65625 3.64843-1.25781 4.16015-1.36328m0 0"/><g clip-path="url(#g)"><path fill="none" stroke="#000" stroke-miterlimit="10" stroke-width=".79624" d="M269.14453 129.25c-.51172-.10547-2.75781-.70703-4.16015-1.36328v2.72656c1.40234-.65625 3.64843-1.25781 4.16015-1.36328Zm0 0"/></g><path fill="none" stroke="#7f7f7f" stroke-miterlimit="10" stroke-width=".39812" d="M151.5039 239.69534h-18.40625"/><g fill="#7f7f7f"><use xlink:href="#c" x="114.85433" y="243.35088"/><use xlink:href="#d" x="122.72638" y="243.35088"/></g><path fill="none" stroke="#7f7f7f" stroke-miterlimit="10" stroke-width=".39812" d="M151.5039 202.87893h-18.40625"/><g fill="#7f7f7f"><use xlink:href="#c" x="114.85433" y="206.60039"/><use xlink:href="#e" x="122.72638" y="206.60039"/></g><path fill="none" stroke="#7f7f7f" stroke-miterlimit="10" stroke-width=".39812" d="M151.5039 166.06642h-18.40625"/><g fill="#7f7f7f"><use xlink:href="#c" x="114.85433" y="169.78596"/><use xlink:href="#f" x="122.72638" y="169.78596"/></g><path fill="none" stroke="#7f7f7f" stroke-miterlimit="10" stroke-width=".39812" d="M151.5039 92.43359h-18.40625"/><use xlink:href="#f" x="122.72672" y="96.1561" fill="#7f7f7f"/><path fill="none" stroke="#7f7f7f" stroke-miterlimit="10" stroke-width=".39812" d="M151.5039 55.62108h-18.40625"/><use xlink:href="#e" x="122.72672" y="59.34067" fill="#7f7f7f"/><path fill="none" stroke="#7f7f7f" stroke-miterlimit="10" stroke-width=".39812" d="M151.5039 18.80466h-18.40625"/><use xlink:href="#d" x="122.72672" y="22.4623" fill="#7f7f7f"/><g clip-path="url(#h)"><path fill="none" stroke="#000" stroke-miterlimit="10" stroke-width=".79624" d="M142.30078 258.1055V6.56638"/></g><path stroke="#000" stroke-miterlimit="10" stroke-width=".79624" d="M142.30078 2.40625c-.10547.51172-.70703 2.75781-1.36328 4.16016h2.72656c-.65625-1.40235-1.25781-3.64844-1.36328-4.16016Zm0 0"/><g clip-path="url(#i)"><path fill="none" stroke="#ff7f00" stroke-miterlimit="10" stroke-width=".79624" d="M13.44528 139.76953s3.76953.31641 5.21875.44141c1.44531.1289 3.76563.34375 5.21485.48438 1.4453.14062 3.76562.375 5.21484.53125 1.44531.15234 3.76563.40625 5.21485.57812 1.44531.16797 3.76953.44922 5.21484.63672 1.44922.1836 3.76953.4961 5.21485.70312 1.44922.20704 3.76953.55079 5.21484.78126 1.44922.23437 3.76953.62109 5.21875.8828 1.44532.25782 3.76563.69532 5.21485.98829 1.44531.29297 3.76562.78906 5.21484 1.125 1.44532.33594 3.76563.90625 5.21485 1.29297 1.44531.38672 3.76953 1.04297 5.21484 1.49219 1.44922.44922 3.76954 1.21484 5.21485 1.7461 1.44922.52734 3.76953 1.4414 5.21484 2.07421 1.44922.63672 3.76954 1.72656 5.21485 2.5 1.44922.77344 3.76953 2.11328 5.21875 3.07422 1.44531.96484 3.76563 2.64063 5.21485 3.875 1.4453 1.23438 3.76562 3.38281 5.21484 5.02344 1.44531 1.63672 3.76563 4.5039 5.21484 6.78906 1.44532 2.28516 3.76954 6.26954 5.21485 9.6797 1.44922 3.41015 3.76953 9.23828 5.21485 14.90234 1.44921 5.66016 3.76953 14.50391 5.21484 25.90235 1.44922 11.39844 3.76953 18.55079 5.21485 56.25783 1.44921 37.70704 5.21875 215.51177 5.21875 215.51177"/></g><use xlink:href="#j" x="4.33811" y="157.86747" fill="#ff7f00"/><use xlink:href="#k" x="14.23639" y="157.86747" fill="#ff7f00"/><use xlink:href="#l" x="27.41811" y="152.666" fill="#ff7f00"/><path fill="none" stroke="#ff7f00" stroke-miterlimit="10" stroke-width=".71172" d="M27.07031 154.4375h5.28906"/><use xlink:href="#m" x="27.07004" y="162.42217" fill="#ff7f00"/><g clip-path="url(#n)"><path fill="none" stroke="#ff7f00" stroke-miterlimit="10" stroke-width=".79624" d="M145.98438-238.90244S149.75-60.83989 151.19922-23.08598c1.44531 37.75392 3.76563 44.88283 5.21485 56.28908 1.4453 11.40625 3.76562 20.25391 5.21484 25.91798 1.44531 5.66406 3.76953 11.49219 5.21485 14.90234 1.44922 3.41016 3.76953 7.39454 5.21484 9.6797 1.44922 2.28515 3.76953 5.15624 5.21485 6.79296 1.44922 1.64063 3.76953 3.78907 5.21484 5.02344 1.44922 1.23438 3.76953 2.91016 5.21875 3.875 1.44532.96485 3.76563 2.3047 5.21485 3.07813 1.44531.77344 3.76562 1.86328 5.21484 2.5 1.44532.63281 3.76563 1.54297 5.21485 2.07422 1.44531.52734 3.76953 1.29688 5.21484 1.7461 1.44922.44921 3.76953 1.10546 5.21485 1.49218 1.44922.38672 3.76953.95313 5.21484 1.28906 1.44922.33594 3.76954.83204 5.21875 1.12891 1.44532.29297 3.76563.73047 5.21485.98828 1.44531.26172 3.76563.64844 5.21484.88281 1.44532.23047 3.76563.57422 5.21485.78126 1.44531.20703 3.76953.51953 5.21484.70312 1.44922.1875 3.76954.46875 5.21485.63672 1.44922.17188 3.76953.42578 5.21484.57812 1.44922.15625 3.76954.39063 5.21485.53125 1.44922.14063 3.76953.35547 5.21875.48438 1.44531.1289 5.21485.4414 5.21485.4414"/></g></svg>