<svg xmlns="http://www.w3.org/2000/svg" xmlns:xlink="http://www.w3.org/1999/xlink" width="190.973pt" height="154.928pt" viewBox="0 0 190.973 154.928"><defs><path id="b" d="M.5-4.0625C.5-1.625 1.21875.14063 3.21875.14063c2.01563 0 2.73438-1.76563 2.73438-4.20313s-.71875-4.21875-2.73438-4.21875C1.21875-8.28125.5-6.5.5-4.0625m1.23438 0c0-1.98437.34375-3.78125 1.48437-3.78125 1.15625 0 1.5 1.79688 1.5 3.78125 0 1.98438-.34375 3.78125-1.5 3.78125-1.14062 0-1.48437-1.79687-1.48437-3.78125m0 0"/><path id="j" d="M0 2.28125c0 .32813.35938.65625.89063.65625 1.04687 0 1.48437-.76562 2.5625-2.60937.23437-.42188.98437-1.70313 1.73437-2.9375C5.875-3.75 6.64063-4.9375 6.64063-5.42187c0-.4375-.125-.6875-.21875-.6875-.23438 0-.64063.09375-.95313.3125 0 0-.04687 1.23437-.15625 1.67187-.20312.67188-.90625 2-1.71875 3.39063H3.5625c-.09375-1.875-.32812-4.4375-.5-5.32813l-.07812-.04687-2.04688.57812.03125.3125L1.8125-5.25c.25 0 .29688.21875.40625.82813.125.95312.39063 3.29687.39063 4.26562 0 .35938 0 .85938-.28125 1.5-.21875.51563-.53125.875-.78125.875-.4375 0-.48438-.67187-.92188-.67187-.3125 0-.625.39062-.625.73437m0 0"/><path id="k" d="M1.03125-1.73437h6.70313v-.71875H1.03125Zm0-2.6875h6.70313V-5.125H1.03125Zm0 0"/><path id="l" d="M.39063-.48437c0 .35937.28125.625.78125.625C2 .14063 2.46875-.6875 2.96875-1.5l.48438-.8125h.03125l.21875.96875C3.9375-.375 4.15625.14063 4.78125.14063c.89063 0 1.35938-.92188 1.71875-1.65625l-.3125-.17188C5.89063-1.14062 5.5625-.5 5.21875-.5c-.23437 0-.32812-.26562-.59375-1.35937l-.39062-1.59375c.4375-.76563 1.0625-1.73438 1.40625-1.73438.375 0 .375.1875.75.1875.26562 0 .51562-.26562.51562-.57812 0-.375-.28125-.53125-.625-.53125-.64062 0-1.1875.57812-1.625 1.26562l-.53125.82813h-.01562l-.5-2.04688-.0625-.04687-2 .60937.01562.29688.96875-.0625c.1875 0 .28125.07812.39063.60937l.4375 1.75-.34375.59375C2.5-1.42187 2.04688-.79687 1.75-.79687c-.34375 0-.4375-.29688-.82812-.29688-.3125 0-.53125.3125-.53125.60938m0 0"/><path id="c" d="M.9375-2.78125h6.01563v-.64062H.9375Zm0 0"/><path id="d" d="M.29688-.10937.40625 0H4.9375l.375-1.45312L5.01563-1.5c-.23438.59375-.45313.67188-.90625.67188H1.3125c.17188-.57813.82813-1.35938 1.84375-2.09375 1.04688-.76563 1.875-1.25 1.875-2.46875 0-1.53125-1.01562-2.0625-2.17187-2.0625-1.5 0-2.28125.90625-2.28125 1.48437 0 .375.42187.54688.60937.54688.20313 0 .26563-.10938.3125-.29688.17188-.75.60938-1.34375 1.28125-1.34375.84375 0 1.09375.70313 1.09375 1.5 0 1.1875-.59375 1.84375-1.5625 2.6875C.96875-1.70312.5-.95312.29688-.10937m0 0"/><path id="e" d="M1.1875 0h3.60938v-.3125L3.875-.39062C3.64063-.42187 3.51563-.5 3.51563-.9375v-6.45312l-.0625-.0625-2.26563.39062v.26563l1.03125.125c.1875.03125.25.10937.25.42187v5.3125c0 .4375-.10937.51563-.35937.54688L1.1875-.3125Zm0 0"/><path id="h" d="M.29688-1.125c0 .46875.75 1.25 2.29687 1.25C4.1875.125 5.1875-.67187 5.1875-2.07812c0-1.46875-1.26562-1.89063-1.85937-1.95313v-.04687c.59375-.09375 1.53125-.53125 1.53125-1.625 0-1.20313-.9375-1.75-2.125-1.75-1.4375 0-2.15625.84375-2.15625 1.3125 0 .32812.39062.51562.54687.51562.14063 0 .21875-.07812.26563-.21875.23437-.73437.65625-1.21875 1.26562-1.21875.85938 0 1.07813.75 1.07813 1.375 0 .65625-.21875 1.48438-1.15625 1.48438-.53125 0-.82813-.10938-.95313-.10938-.14062 0-.20312.10938-.20312.29688s.0625.3125.20312.3125c.125 0 .42188-.10938.95313-.10938.9375 0 1.45312.84375 1.45312 1.79688C4.03125-.71875 3.39063-.25 2.60938-.25c-.71875 0-1.20313-.54687-1.40625-1.15625-.07813-.21875-.17188-.3125-.32813-.3125-.20312 0-.57812.20313-.57812.59375m0 0"/><path id="m" d="M.25-.09375.34375 0h3.60938l.3125-1.21875L4-1.26562C3.8125-.8125 3.65625-.75 3.3125-.75H1.14063c.125-.40625.57812-.96875 1.40625-1.53125.85937-.57812 1.48437-.96875 1.48437-1.90625 0-1.1875-.8125-1.60937-1.75-1.60937-1.17187 0-1.82812.67187-1.82812 1.1875 0 .3125.35937.45312.53125.45312s.25-.07812.28124-.25c.14063-.59375.45313-1.0625.95313-1.0625.59375 0 .79688.51563.79688 1.125 0 .82813-.375 1.375-1.17188 2.0625C.75-1.34375.375-.73437.25-.09375m0 0"/><clipPath id="a"><path d="M.03125 0H185v130H.03125Zm0 0"/></clipPath><clipPath id="f"><path d="M.03125 128H179v2H.03125Zm0 0"/></clipPath><clipPath id="g"><path d="M167 116h23.91406v26H167Zm0 0"/></clipPath><clipPath id="i"><path d="M.42969.39844h184.16797V141H.42969Zm0 0"/></clipPath></defs><g clip-path="url(#a)"><path fill="none" stroke="#7f7f7f" stroke-dasharray=".39831270500000004 .9958117484000001" stroke-miterlimit="10" stroke-width=".39831" d="M.42973 129.3164h184.16788M.42973 92.4805h184.16788M.42973 55.64847h184.16788M.42973 18.81255h184.16788M18.8438 129.31641V.3985m36.8359 128.9179V.3985m36.832 128.9179V.3985m36.83593 128.9179V.3985m36.83201 128.9179V.3985"/></g><use xlink:href="#b" x="76.39737" y="146.27102" fill="#7f7f7f"/><path fill="none" stroke="#7f7f7f" stroke-miterlimit="10" stroke-width=".39831" d="M18.84379 120.10547v18.41796"/><g fill="#7f7f7f"><use xlink:href="#c" x="12.0063" y="150.54104"/><use xlink:href="#d" x="19.88229" y="150.54104"/></g><path fill="none" stroke="#7f7f7f" stroke-miterlimit="10" stroke-width=".39831" d="M55.6797 120.10547v18.41796"/><g fill="#7f7f7f"><use xlink:href="#c" x="48.84018" y="150.54104"/><use xlink:href="#e" x="56.71617" y="150.54104"/></g><path fill="none" stroke="#7f7f7f" stroke-miterlimit="10" stroke-width=".39831" d="M129.34764 120.10547v18.41796"/><use xlink:href="#e" x="126.44511" y="150.54104" fill="#7f7f7f"/><path fill="none" stroke="#7f7f7f" stroke-miterlimit="10" stroke-width=".39831" d="M166.17965 120.10547v18.41796"/><use xlink:href="#d" x="163.278" y="150.54104" fill="#7f7f7f"/><g clip-path="url(#f)"><path fill="none" stroke="#000" stroke-miterlimit="10" stroke-width=".79664" d="M.42973 129.3164h177.9921"/></g><path d="M182.58594 129.3164c-.51172-.10937-2.75781-.71093-4.16406-1.36327v2.72656c1.40625-.65625 3.65234-1.25781 4.16406-1.36328m0 0"/><g clip-path="url(#g)"><path fill="none" stroke="#000" stroke-miterlimit="10" stroke-width=".79664" d="M182.58594 129.3164c-.51172-.10937-2.75782-.71093-4.16406-1.36327v2.72656c1.40624-.65625 3.65234-1.25782 4.16406-1.36328Zm0 0"/></g><path fill="none" stroke="#7f7f7f" stroke-miterlimit="10" stroke-width=".39831" d="M101.72265 92.48049H83.3047"/><use xlink:href="#e" x="72.92798" y="96.20329" fill="#7f7f7f"/><path fill="none" stroke="#7f7f7f" stroke-miterlimit="10" stroke-width=".39831" d="M101.72265 55.64847H83.3047"/><use xlink:href="#d" x="72.92798" y="59.37041" fill="#7f7f7f"/><path fill="none" stroke="#7f7f7f" stroke-miterlimit="10" stroke-width=".39831" d="M101.72265 18.81255H83.3047"/><use xlink:href="#h" x="72.92798" y="22.47256" fill="#7f7f7f"/><path fill="none" stroke="#000" stroke-miterlimit="10" stroke-width=".79664" d="M92.51172 147.73046V6.57037"/><path stroke="#000" stroke-miterlimit="10" stroke-width=".79664" d="M92.51172 2.40625c-.10547.51172-.70703 2.76172-1.36328 4.16406H93.875c-.65234-1.40234-1.25781-3.65234-1.36328-4.16406Zm0 0"/><g clip-path="url(#i)"><path fill="none" stroke="#007f7f" stroke-miterlimit="10" stroke-width=".79664" d="M.42973-100.89442s5.54297 27.0078 7.67187 36.7656c2.1289 9.76172 5.54297 24.69921 7.67578 33.57421 2.1289 8.87109 5.54297 22.39061 7.67187 30.37498s5.54297 20.07812 7.67187 27.17577S36.668 44.76567 38.7969 50.9766s5.54297 15.46093 7.67187 20.78124c2.1289 5.32422 5.54297 13.15234 7.67578 17.58593 2.1289 4.4375 5.54297 10.83984 7.67187 14.39062 2.1289 3.54687 5.54297 8.52734 7.67187 11.1914 2.13281 2.66015 5.54687 6.21874 7.67578 7.99218 2.1289 1.77734 5.54297 3.91016 7.67187 4.79687s5.54687 1.60157 7.67578 1.60157 5.54296-.71094 7.67187-1.59766c2.1289-.88672 5.54297-3.02344 7.67578-4.79687 2.1289-1.77344 5.54296-5.32812 7.67187-7.99219 2.1289-2.66015 5.54296-7.64062 7.67187-11.18749 2.13281-3.55078 5.54687-9.95312 7.67578-14.38671 2.1289-4.4375 5.54296-12.26171 7.67187-17.58593 2.1289-5.32031 5.54687-14.5703 7.67578-20.78124 2.1289-6.20703 5.54296-16.8789 7.67187-23.97655 2.1289-7.09765 5.54296-19.1914 7.67578-27.17577 2.1289-7.98437 5.54296-21.49999 7.67187-30.37108 2.1289-8.875 5.54296-23.81249 7.67187-33.5703 2.1289-9.7617 7.67578-36.7695 7.67578-36.7695"/></g><use xlink:href="#j" x="152.33708" y="61.9802" fill="#007f7f"/><use xlink:href="#k" x="162.24032" y="61.9802" fill="#007f7f"/><use xlink:href="#l" x="173.51578" y="61.9802" fill="#007f7f"/><use xlink:href="#m" x="181.22915" y="56.8021" fill="#007f7f"/></svg>