<svg xmlns="http://www.w3.org/2000/svg" xmlns:xlink="http://www.w3.org/1999/xlink" width="186.149pt" height="144.609pt" viewBox="0 0 186.149 144.609"><defs><path id="b" d="M.4375-3.5c0 2.09375.60938 3.625 2.34375 3.625C4.5.125 5.125-1.40625 5.125-3.5S4.5-7.125 2.78125-7.125C1.04688-7.125.4375-5.59375.4375-3.5M1.5-3.5c0-1.70312.28125-3.26562 1.28125-3.26562.98438 0 1.28125 1.5625 1.28125 3.26562S3.76563-.25 2.78125-.25C1.78125-.25 1.5-1.79687 1.5-3.5m0 0"/><path id="c" d="M.89063-2.65625h5.76562v-.60937H.89063Zm0 0"/><path id="d" d="M.28125-.09375.39063 0h4.34375l.35937-1.39062-.29687-.04688c-.21875.5625-.4375.64063-.85938.64063H1.26563c.15624-.54688.78125-1.29688 1.75-2C4.03125-3.53125 4.8125-4 4.8125-5.17187c0-1.45313-.96875-1.95313-2.07812-1.95313-1.4375 0-2.17188.85938-2.17188 1.40625 0 .35938.39063.53125.57813.53125s.25-.10937.29687-.29687c.17188-.70313.57813-1.28125 1.23438-1.28125.79687 0 1.03125.67187 1.03125 1.4375 0 1.14062-.5625 1.76562-1.48438 2.57812C.92188-1.625.48438-.92187.28125-.09375m0 0"/><path id="e" d="M1.14063 0h3.4375v-.29687l-.875-.07813c-.21875-.03125-.34375-.10937-.34375-.51562v-6.1875l-.0625-.04688-2.15625.35938V-6.5l.98437.125c.17188.01563.23438.09375.23438.39063v5.09375c0 .40625-.09375.48437-.34375.51562l-.875.07813Zm0 0"/><path id="g" d="M.28125-1.07812C.28125-.625 1 .125 2.48438.125 4 .125 4.96875-.64062 4.96875-1.98437c0-1.40625-1.20312-1.8125-1.79687-1.875v-.04688C3.75-4 4.65625-4.42187 4.65625-5.45312 4.65625-6.60937 3.75-7.125 2.625-7.125c-1.39062 0-2.0625.79688-2.0625 1.25 0 .3125.35938.5.51563.5.125 0 .20312-.07812.25-.21875.23437-.70312.625-1.17187 1.21875-1.17187.82812 0 1.03125.73437 1.03125 1.32812 0 .625-.21875 1.40625-1.10938 1.40625-.5 0-.79687-.09375-.92187-.09375q-.1875 0-.1875.28125c0 .1875.0625.29688.1875.29688s.42187-.09375.92187-.09375c.89063 0 1.39063.79687 1.39063 1.70312C3.85938-.6875 3.25-.25 2.5-.25c-.6875 0-1.15625-.51562-1.34375-1.09375-.07812-.20312-.17187-.3125-.3125-.3125-.20312 0-.5625.20313-.5625.57813m0 0"/><path id="j" d="M0 2.1875c0 .29688.34375.625.85938.625.98437 0 1.40625-.73437 2.4375-2.5.23437-.40625.9375-1.625 1.65625-2.8125.67187-1.09375 1.40625-2.21875 1.40625-2.6875 0-.40625-.125-.65625-.21875-.65625-.21875 0-.60938.09375-.90625.29688 0 0-.04688 1.1875-.15625 1.59375-.1875.65625-.85938 1.92187-1.64063 3.25h-.03125c-.07812-1.78125-.3125-4.23438-.46875-5.09375l-.09375-.04688-1.95312.54688L.92187-5l.8125-.01562c.23438 0 .28126.20312.39063.79687.125.89063.375 3.14063.375 4.0625 0 .35938-.01562.82813-.26562 1.4375-.21875.48438-.51563.84375-.75.84375-.42188 0-.46875-.65625-.89063-.65625-.29687 0-.59375.375-.59375.71875m0 0"/><path id="k" d="M.98438-1.65625h6.40625v-.6875H.98438Zm0-2.5625h6.40625v-.6875H.98438Zm0 0"/><path id="l" d="M.375-.45312c0 .32812.26563.59375.73438.59375.79687 0 1.25-.79688 1.73437-1.57813l.46875-.76562h.01563l.21875.92187c.21875.92188.4375 1.42188 1.03125 1.42188.84375 0 1.29687-.89063 1.64062-1.59375l-.29687-.15626C5.64063-1.09374 5.3125-.46874 5-.46874c-.23437 0-.3125-.26562-.57812-1.29687l-.375-1.53125c.42187-.75 1.01562-1.67188 1.35937-1.67188s.35938.1875.70313.1875c.26562 0 .5-.25.5-.5625 0-.35937-.28125-.5-.59375-.5-.625 0-1.14063.54688-1.5625 1.20313l-.5.79687h-.03125l-.46875-1.95312-.0625-.04688-1.92188.57813.03125.28125.92188-.0625c.1875 0 .26562.09375.375.59375l.40625 1.67187-.3125.5625c-.5.85938-.9375 1.46875-1.21875 1.46875-.32813 0-.42188-.29687-.79688-.29687-.29687 0-.5.29687-.5.59375m0 0"/><path id="n" d="M1.26563 0h3.82812v-.32812l-.98437-.09375c-.25-.03125-.375-.10938-.375-.5625v-6.875l-.0625-.0625-2.40625.40625v.29687l1.09375.125c.1875.03125.26562.125.26562.45313v5.65625c0 .45312-.10937.53125-.375.5625l-.98437.09375Zm0 0"/><path id="o" d="m1.6875-1.26562.48438.48437L4.1875-2.8125 6.21875-.78125l.46875-.48437-2.01562-2.01563L6.6875-5.3125l-.46875-.46875L4.1875-3.76562 2.17188-5.78125l-.48438.46875 2.03125 2.03125Zm0 0"/><path id="m" d="M.23438-.09375.32813 0h3.45312l.29688-1.15625-.25-.04687c-.1875.4375-.32813.48437-.65625.48437H1.07813c.14062-.375.5625-.92187 1.35937-1.45312.82813-.5625 1.40625-.9375 1.40625-1.82813 0-1.14062-.76562-1.54687-1.67187-1.54687-1.10938 0-1.73438.64062-1.73438 1.14062 0 .29688.32813.4375.5.4375.15625 0 .23438-.09375.28125-.25.125-.5625.42188-1.01562.90625-1.01562.57813 0 .75.48437.75 1.07812 0 .79688-.34375 1.3125-1.10937 1.96875C.71875-1.29687.35938-.70312.23438-.09375m0 0"/><clipPath id="a"><path d="M0 .13281h177V142H0Zm0 0"/></clipPath><clipPath id="f"><path d="M159 111h26.30078v26H159Zm0 0"/></clipPath><clipPath id="h"><path d="M76 .13281h26V18H76Zm0 0"/></clipPath><clipPath id="i"><path d="M.39453.53125h176.36328V136H.39453Zm0 0"/></clipPath></defs><g clip-path="url(#a)"><path fill="none" stroke="#000" stroke-miterlimit="10" stroke-opacity=".5" stroke-width=".39669" d="M.39455 123.98047H176.7578M.39455 88.71094H176.7578M.39455 53.43751H176.7578M.39455 18.16408H176.7578M18.03126 141.61718V.53128m35.27343 141.0859V.53128m35.26953 141.0859V.53128m35.27343 141.0859V.53128m35.27343 141.0859V.53128"/></g><path fill="none" stroke="#000" stroke-miterlimit="10" stroke-opacity=".5" stroke-width=".39669" d="M88.57422 115.16407v17.6367"/><use xlink:href="#b" x="73.4532" y="139.8308" fill-opacity=".5"/><path fill="none" stroke="#000" stroke-miterlimit="10" stroke-opacity=".5" stroke-width=".39669" d="M18.03126 115.16407v17.6367"/><g fill-opacity=".5"><use xlink:href="#c" x="11.4835" y="136.36464"/><use xlink:href="#d" x="19.02561" y="136.36464"/></g><path fill="none" stroke="#000" stroke-miterlimit="10" stroke-opacity=".5" stroke-width=".39669" d="M53.3047 115.16407v17.6367"/><g fill-opacity=".5"><use xlink:href="#c" x="46.75525" y="136.36464"/><use xlink:href="#e" x="54.29736" y="136.36464"/></g><path fill="none" stroke="#000" stroke-miterlimit="10" stroke-opacity=".5" stroke-width=".39669" d="M123.84765 115.16407v17.6367"/><use xlink:href="#e" x="121.06952" y="136.36464" fill-opacity=".5"/><path fill="none" stroke="#000" stroke-miterlimit="10" stroke-opacity=".5" stroke-width=".39669" d="M159.12108 115.16407v17.6367"/><use xlink:href="#d" x="156.34127" y="136.36464" fill-opacity=".5"/><path fill="none" stroke="#000" stroke-miterlimit="10" stroke-width=".79338" d="M.39455 123.98047h170.2148"/><path d="M174.7539 123.98047c-.5078-.10547-2.74609-.70313-4.14452-1.35547v2.71484c1.39843-.65234 3.63671-1.25 4.14453-1.35937m0 0"/><g clip-path="url(#f)"><path fill="none" stroke="#000" stroke-miterlimit="10" stroke-width=".79338" d="M174.7539 123.98047c-.5078-.10547-2.74609-.70313-4.14452-1.35547v2.71484c1.39843-.65234 3.63671-1.25 4.14453-1.35937Zm0 0"/></g><path fill="none" stroke="#000" stroke-miterlimit="10" stroke-opacity=".5" stroke-width=".39669" d="M97.39453 88.71094H79.75781"/><use xlink:href="#e" x="73.4532" y="92.2752" fill-opacity=".5"/><path fill="none" stroke="#000" stroke-miterlimit="10" stroke-opacity=".5" stroke-width=".39669" d="M97.39453 53.43751H79.75781"/><use xlink:href="#d" x="73.4532" y="57.00345" fill-opacity=".5"/><path fill="none" stroke="#000" stroke-miterlimit="10" stroke-opacity=".5" stroke-width=".39669" d="M97.39453 18.16408H79.75781"/><use xlink:href="#g" x="73.4532" y="21.66998" fill-opacity=".5"/><path fill="none" stroke="#000" stroke-miterlimit="10" stroke-width=".79338" d="M88.57422 141.61718V6.67971"/><path d="M88.57422 2.53125c-.10547.51172-.70313 2.75-1.35547 4.14844h2.71484c-.65234-1.39844-1.25-3.63672-1.35937-4.14844m0 0"/><g clip-path="url(#h)"><path fill="none" stroke="#000" stroke-miterlimit="10" stroke-width=".79338" d="M88.57422 2.53125c-.10547.51172-.70313 2.75-1.35547 4.14844h2.71484c-.65234-1.39844-1.25-3.63672-1.35937-4.14844Zm0 0"/></g><g clip-path="url(#i)"><path fill="none" stroke="#007F7F" stroke-miterlimit="10" stroke-width=".79338" d="M.39455-96.4687s5.3086 25.86327 7.34765 35.21092c2.03907 9.34375 5.3125 23.65234 7.35156 32.14844 2.03907 8.49609 5.3086 21.4375 7.34766 29.08593s5.3086 19.22656 7.34765 26.02343c2.03907 6.80078 5.3086 17.01953 7.34766 22.96484 2.03906 5.94922 5.3086 14.80468 7.34765 19.90234 2.03907 5.09765 5.3086 12.59375 7.34766 16.83984 2.03906 4.25 5.3086 10.3789 7.34765 13.77734 2.03907 3.39844 5.3086 8.16797 7.35156 10.71875 2.03907 2.54687 5.3086 5.95312 7.34766 7.65234 2.03906 1.70313 5.3086 3.7461 7.34765 4.59375 2.03907.85156 5.3086 1.53125 7.34766 1.53125 2.03906.0039 5.3086-.67969 7.34765-1.52734 2.03907-.85157 5.3086-2.89453 7.34766-4.59375 2.03906-1.69532 5.30859-5.10157 7.34765-7.65235 2.03907-2.54687 5.3086-7.3164 7.34766-10.71484 2.03906-3.39843 5.3125-9.52734 7.35156-13.77734 2.03906-4.2461 5.3086-11.73828 7.34765-16.83593 2.03907-5.09766 5.3086-13.95312 7.34766-19.90234 2.03906-5.94531 5.3086-16.16406 7.34765-22.96094 2.03906-6.79687 5.3086-18.375 7.34766-26.02343 2.03906-7.64453 5.30859-20.58984 7.34765-29.08593s5.3086-22.80078 7.34766-32.14452c2.03906-9.34766 7.35156-35.21093 7.35156-35.21093"/></g><use xlink:href="#j" x="104.29321" y="48.46349" fill="#007F7F"/><use xlink:href="#k" x="113.77663" y="48.46349" fill="#007F7F"/><use xlink:href="#l" x="124.57409" y="48.46349" fill="#007F7F"/><use xlink:href="#m" x="131.96172" y="43.50491" fill="#007F7F"/><path fill="none" stroke="#FF7F00" stroke-dasharray="2.9752308235 2.9752308235" stroke-miterlimit="10" stroke-width=".79338" d="M.39455 88.71094H176.7578"/><use xlink:href="#j" x="154.70475" y="101.25913" fill="#FF7F00"/><use xlink:href="#k" x="164.18817" y="101.25913" fill="#FF7F00"/><use xlink:href="#n" x="174.98563" y="101.25913" fill="#FF7F00"/><use xlink:href="#o" x="49.11447" y="91.60526"/><use xlink:href="#o" x="119.65797" y="91.60526"/></svg>