<svg xmlns="http://www.w3.org/2000/svg" xmlns:xlink="http://www.w3.org/1999/xlink" width="248.828pt" height="248.828pt" viewBox="0 0 248.828 248.828"><defs><path id="b" d="M.4375-3.51562C.4375-1.40625 1.04688.125 2.79688.125c1.73437 0 2.35937-1.53125 2.35937-3.64062s-.625-3.64063-2.35937-3.64063c-1.75 0-2.35938 1.53125-2.35938 3.64063m1.0625 0c0-1.71875.29688-3.26563 1.29688-3.26563.98437 0 1.28125 1.54688 1.28125 3.26563S3.78125-.25 2.79688-.25C1.79688-.25 1.5-1.79687 1.5-3.51562m0 0"/><path id="c" d="M.89063-2.67187H6.6875v-.60938H.89063Zm0 0"/><path id="d" d="M.28125-1.07812C.28125-.625 1.01563.125 2.5.125 4.01563.125 4.98438-.65625 4.98438-2c0-1.40625-1.20313-1.8125-1.79688-1.875v-.04687c.57813-.09375 1.48438-.51563 1.48438-1.5625 0-1.15625-.90625-1.67188-2.04688-1.67188-1.375 0-2.0625.79688-2.0625 1.25 0 .32813.375.5.51563.5.125 0 .20312-.07812.25-.20312.23437-.71875.625-1.17188 1.21875-1.17188.84375 0 1.04687.71875 1.04687 1.3125 0 .625-.21875 1.42188-1.125 1.42188-.5 0-.78125-.09375-.90625-.09375-.14062 0-.20312.09375-.20312.28125s.0625.29687.20312.29687c.125 0 .40625-.09375.90625-.09375.90625 0 1.40625.79688 1.40625 1.71875 0 1.25-.60937 1.6875-1.35937 1.6875-.70313 0-1.15625-.51562-1.35938-1.10937-.0625-.20313-.17187-.29688-.3125-.29688-.1875 0-.5625.20313-.5625.57813m0 0"/><path id="e" d="M.28125-.09375.39063 0H4.75l.35938-1.39062-.29688-.04688c-.21875.5625-.4375.64063-.85937.64063h-2.6875c.17187-.54688.79687-1.29688 1.76562-2 1.01563-.75 1.79688-1.21875 1.79688-2.39063 0-1.46875-.96875-1.96875-2.07813-1.96875-1.45312 0-2.1875.875-2.1875 1.42188 0 .35937.40625.53125.57813.53125.1875 0 .26562-.125.29687-.29688.17188-.71875.59375-1.28125 1.23438-1.28125.8125 0 1.04687.67188 1.04687 1.4375 0 1.125-.57812 1.76563-1.48437 2.57813C.9375-1.64062.48438-.92187.28124-.09375m0 0"/><path id="f" d="M1.14063 0h3.46875v-.29687L3.71875-.375C3.5-.40625 3.375-.48437 3.375-.89062v-6.21875l-.0625-.04688-2.17187.375v.25l.98437.125c.1875.01563.25.09375.25.40625v5.10938c0 .40625-.09375.48437-.34375.51562l-.89062.07813Zm0 0"/><path id="j" d="M.39063-5.82812C.39063-4.8125 1.40625-4 3.75-4c-.39062.67188-.67187 1.39063-.67187 2.15625 0 1.28125.79687 1.98438 2.26562 1.98438 1.4375 0 2.92188-1.03125 2.92188-2.35938 0-.79687-.65625-1.23437-1.48438-1.23437-.92187 0-2 1.03125-2 1.84375 0 .25.1875.71875.53125.71875.09375 0 .23438-.0625.23438-.17188 0-.15625-.26563-.17187-.26563-.53125 0-.57812.82813-1.48437 1.5-1.48437.46875 0 .75.1875.75.64062 0 1.03125-.98437 2.20313-2.1875 2.20313-.84375 0-1.28125-.46875-1.28125-1.23438 0-.875.60938-1.89062 1.07813-2.64062C7.73438-4.5 10.28125-5.78125 10.28125-7.40625c0-.625-.5-1.03125-1.17187-1.03125-1.53125 0-3.85938 1.96875-5.14063 4.01563-1.0625 0-2.78125-.03125-2.78125-1.28125 0-1.14063 1.40625-2.01563 2.26563-2.01563.17187 0 .25-.10937.25-.20312s-.07813-.17188-.1875-.17188c-1.29688 0-3.125.875-3.125 2.26563M5.375-4.5625c.85938-1.5 2.67188-3.51562 3.73438-3.51562.42187 0 .70312.25.70312.625 0 1.3125-2.04687 2.5-4.4375 2.89062m0 0"/><path id="n" d="m1.6875-1.26562.48438.48437 2.03125-2.04687L6.25-.78125l.46875-.48437L4.6875-3.29687l2.03125-2.03125L6.25-5.8125 4.20313-3.78125 2.17188-5.8125l-.48438.48438 2.04688 2.03125Zm0 0"/><path id="k" d="M.23438-.09375.32813 0h3.46875l.29687-1.17187-.23437-.04688c-.20313.4375-.34375.5-.67188.5H1.09375c.125-.39062.5625-.9375 1.35938-1.46875C3.28125-2.75 3.875-3.125 3.875-4.03125c0-1.14062-.78125-1.54687-1.6875-1.54687-1.10937 0-1.75.65625-1.75 1.15625C.4375-4.125.78125-4 .95313-4c.15624 0 .23437-.07812.26562-.23437.125-.57813.4375-1.03125.92188-1.03125.57812 0 .75.5.75 1.09375 0 .78125-.35938 1.3125-1.125 1.96875C.71875-1.29687.35938-.70312.23438-.09375m0 0"/><path id="m" d="m.17188-1.64062.09375.1875h2.1875V-.625c0 .26563-.09375.29688-.28125.3125L1.65625-.25V0h2.25v-.25l-.375-.04687c-.17187-.03125-.23437-.0625-.23437-.32813v-.82812H4.125v-.4375h-.82812v-3.57813h-.70313C1.8125-4.3125.92188-2.92187.17188-1.64062m.65625-.25c.46875-.84375 1.03125-1.76563 1.625-2.73438v2.73438Zm0 0"/><clipPath id="a"><path d="M0 0h248.65625v248.65625H0Zm0 0"/></clipPath><clipPath id="g"><path d="M230 111h18.65625v26H230Zm0 0"/></clipPath><clipPath id="h"><path d="M123 6h2v242.65625h-2Zm0 0"/></clipPath><clipPath id="i"><path d="M124.32813 46H248.2578v90H124.32813Zm0 0"/></clipPath><clipPath id="l"><path d="M.39453.39453h247.86328v247.86328H.39453Zm0 0"/></clipPath></defs><g clip-path="url(#a)"><path fill="none" stroke="#000" stroke-miterlimit="10" stroke-opacity=".5" stroke-width=".39823" d="M.39456 230.55466h247.86322M.39456 195.14451h247.86322M.39456 159.73827h247.86322M.39456 124.32812h247.86322M.39456 88.91798h247.86322M.39456 53.51173h247.86322M.39456 18.1016h247.86322M18.10158 248.2578V.39455m35.41015 247.86322V.39456m35.40625 247.86322V.39456m35.41014 247.86322V.39456m35.41015 247.86322V.39456m35.40624 247.86322V.39456m35.41015 247.86322V.39456"/></g><path fill="none" stroke="#000" stroke-miterlimit="10" stroke-opacity=".5" stroke-width=".39823" d="M124.32812 115.47656v17.70313"/><use xlink:href="#b" x="109.14655" y="140.23806" fill-opacity=".5"/><path fill="none" stroke="#000" stroke-miterlimit="10" stroke-opacity=".5" stroke-width=".39823" d="M18.10159 115.47656v17.70313"/><g fill-opacity=".5"><use xlink:href="#c" x="11.52803" y="136.69651"/><use xlink:href="#d" x="19.09939" y="136.69651"/></g><path fill="none" stroke="#000" stroke-miterlimit="10" stroke-opacity=".5" stroke-width=".39823" d="M53.51173 115.47656v17.70313"/><g fill-opacity=".5"><use xlink:href="#c" x="46.93656" y="136.75847"/><use xlink:href="#e" x="54.50791" y="136.75847"/></g><path fill="none" stroke="#000" stroke-miterlimit="10" stroke-opacity=".5" stroke-width=".39823" d="M88.91798 115.47656v17.70313"/><g fill-opacity=".5"><use xlink:href="#c" x="82.34508" y="136.75847"/><use xlink:href="#f" x="89.91644" y="136.75847"/></g><path fill="none" stroke="#000" stroke-miterlimit="10" stroke-opacity=".5" stroke-width=".39823" d="M159.73827 115.47656v17.70313"/><use xlink:href="#f" x="156.94751" y="136.75847" fill-opacity=".5"/><path fill="none" stroke="#000" stroke-miterlimit="10" stroke-opacity=".5" stroke-width=".39823" d="M195.14451 115.47656v17.70313"/><use xlink:href="#e" x="192.35604" y="136.75847" fill-opacity=".5"/><path fill="none" stroke="#000" stroke-miterlimit="10" stroke-opacity=".5" stroke-width=".39823" d="M230.55466 115.47656v17.70313"/><use xlink:href="#d" x="227.76556" y="136.69651" fill-opacity=".5"/><path fill="none" stroke="#000" stroke-miterlimit="10" stroke-width=".79646" d="M.39456 124.32812h241.69135"/><path d="M246.25 124.32813c-.51172-.10547-2.75781-.70704-4.16406-1.36329v2.72657c1.40625-.65625 3.65234-1.25782 4.16406-1.36329m0 0"/><g clip-path="url(#g)"><path fill="none" stroke="#000" stroke-miterlimit="10" stroke-width=".79646" d="M246.25 124.32812c-.51172-.10546-2.75781-.70703-4.16406-1.36328v2.72657c1.40625-.65625 3.65234-1.25782 4.16406-1.36329Zm0 0"/></g><path fill="none" stroke="#000" stroke-miterlimit="10" stroke-opacity=".5" stroke-width=".39823" d="M133.17969 230.55466h-17.70313"/><g fill-opacity=".5"><use xlink:href="#c" x="105.36017" y="234.0702"/><use xlink:href="#d" x="112.93153" y="234.0702"/></g><path fill="none" stroke="#000" stroke-miterlimit="10" stroke-opacity=".5" stroke-width=".39823" d="M133.17969 195.14451h-17.70313"/><g fill-opacity=".5"><use xlink:href="#c" x="105.36017" y="198.72363"/><use xlink:href="#e" x="112.93153" y="198.72363"/></g><path fill="none" stroke="#000" stroke-miterlimit="10" stroke-opacity=".5" stroke-width=".39823" d="M133.17969 159.73827h-17.70313"/><g fill-opacity=".5"><use xlink:href="#c" x="105.36017" y="163.31511"/><use xlink:href="#f" x="112.93153" y="163.31511"/></g><path fill="none" stroke="#000" stroke-miterlimit="10" stroke-opacity=".5" stroke-width=".39823" d="M133.17969 88.91798h-17.70313"/><use xlink:href="#f" x="109.14655" y="92.49806" fill-opacity=".5"/><path fill="none" stroke="#000" stroke-miterlimit="10" stroke-opacity=".5" stroke-width=".39823" d="M133.17969 53.51173h-17.70313"/><use xlink:href="#e" x="109.14655" y="57.08954" fill-opacity=".5"/><path fill="none" stroke="#000" stroke-miterlimit="10" stroke-opacity=".5" stroke-width=".39823" d="M133.17969 18.10159h-17.70313"/><use xlink:href="#d" x="109.14655" y="21.61906" fill-opacity=".5"/><g clip-path="url(#h)"><path fill="none" stroke="#000" stroke-miterlimit="10" stroke-width=".79646" d="M124.32812 248.25778V6.57034"/></g><path stroke="#000" stroke-miterlimit="10" stroke-width=".79646" d="M124.32812 2.40625c-.10546.51172-.70703 2.75781-1.36328 4.16406h2.72657c-.65625-1.40625-1.25782-3.65234-1.36329-4.16406Zm0 0"/><g clip-path="url(#i)"><path fill="none" stroke="#FF7F00" stroke-miterlimit="10" stroke-width=".79646" d="M124.32812 124.32812s3.73047-10.86718 5.16407-13.52343c1.43359-2.65234 3.73046-4.22656 5.16406-5.59765 1.4336-1.375 3.73046-3.19922 5.16406-4.30079 1.42969-1.09765 3.73047-2.67578 5.16406-3.62109 1.42969-.94531 3.73047-2.34765 5.16015-3.1914 1.4336-.84375 3.73438-2.1172 5.16407-2.88672 1.43359-.76953 3.73046-1.94531 5.16406-2.65625 1.4336-.70703 3.73047-1.80469 5.16406-2.46875s3.73047-1.6914 5.16406-2.32031c1.4336-.625 3.73047-1.59766 5.16406-2.19531 1.4336-.59375 3.73047-1.51953 5.16406-2.08594s3.73047-1.44922 5.16406-1.99219c1.4297-.54297 3.73047-1.39453 5.16406-1.91406 1.4297-.51953 3.73047-1.33984 5.16016-1.83984 1.4336-.5 3.73437-1.29297 5.16406-1.77735 1.4336-.48437 3.73047-1.24609 5.16406-1.71484s3.73047-1.21094 5.16406-1.66406c1.4336-.45703 3.73047-1.17578 5.16407-1.61719s3.73046-1.14062 5.16406-1.57422c1.43359-.42969 3.73046-1.10937 5.16406-1.53125 1.4336-.41797 3.73047-1.08203 5.16406-1.49218 1.4336-.41016 3.73047-1.0586 5.16406-1.45704 1.42969-.40234 3.73047-1.03515 5.16015-1.42578 1.4336-.39062 5.16407-1.39453 5.16407-1.39453"/></g><use xlink:href="#j" x="215.47505" y="81.75149" fill="#FF7F00"/><use xlink:href="#k" x="225.02096" y="84.4896" fill="#FF7F00"/><g clip-path="url(#l)"><path fill="none" stroke="#00ADEF" stroke-miterlimit="10" stroke-width=".79646" d="M.39456 248.25778s7.46484-7.46093 10.32812-10.32421l10.32812-10.32813c2.8672-2.86718 7.46094-7.46093 10.32813-10.32812 2.86328-2.86719 7.46093-7.46093 10.32812-10.32812l10.32422-10.32422 10.32812-10.32812 10.32812-10.32812 10.32812-10.32812 10.32813-10.32813 10.32421-10.32421 10.32813-10.32813 20.65624-20.65624 10.32422-10.32422 10.32812-10.32812 10.32812-10.32812 10.32813-10.32813 10.32812-10.32812 10.32421-10.3242c2.8672-2.8672 7.46094-7.46485 10.32813-10.32813l10.32812-10.32812 10.32812-10.32812c2.86328-2.86328 7.46094-7.46094 10.32422-10.32812C240.78903 7.86722 248.24997.40628 248.24997.40628"/></g><use xlink:href="#j" x="30.86466" y="191.55259" fill="#00ADEF"/><use xlink:href="#m" x="40.40932" y="194.28945" fill="#00ADEF"/><use xlink:href="#n" x="120.12197" y="127.23405"/><use xlink:href="#n" x="155.53049" y="91.82553"/></svg>