<svg xmlns="http://www.w3.org/2000/svg" xmlns:xlink="http://www.w3.org/1999/xlink" width="397.647pt" height="397.647pt" viewBox="0 0 397.647 397.647"><defs><path id="b" d="M1.4375-4.26562h9.26563V-5.25H1.4375Zm0 0"/><path id="c" d="M.45313-1.71875C.45313-1 1.60938.20313 4 .20313c2.4375 0 3.96875-1.25 3.96875-3.39063 0-2.26562-1.92187-2.92187-2.85937-3.01562v-.0625c.90625-.15625 2.35937-.82813 2.35937-2.5 0-1.85938-1.45312-2.6875-3.25-2.6875-2.23437 0-3.32812 1.29687-3.32812 2.01562 0 .51563.59375.79688.82812.79688.21875 0 .34375-.125.40625-.34375.39063-1.14063 1.01563-1.875 1.96875-1.875C5.40625-10.85937 5.75-9.70312 5.75-8.75c0 1-.35937 2.28125-1.79687 2.28125-.79688 0-1.26563-.15625-1.46875-.15625-.20313 0-.29688.15625-.29688.45313s.09375.46875.29688.46875.67187-.15625 1.46875-.15625c1.4375 0 2.25 1.29687 2.25 2.76562 0 2-.98438 2.70313-2.1875 2.70313-1.10938 0-1.84375-.82813-2.17188-1.78125-.10937-.3125-.26562-.48438-.5-.48438-.29687 0-.89062.32813-.89062.9375m0 0"/><path id="d" d="M.45313-.15625.625 0h6.96875l.57813-2.21875-.46875-.09375C7.34375-1.39062 7-1.26562 6.32813-1.26562H2.03125c.26563-.89063 1.26563-2.07813 2.82813-3.21875 1.60937-1.17188 2.85937-1.9375 2.85937-3.8125 0-2.34375-1.54687-3.15625-3.32812-3.15625-2.3125 0-3.5 1.40625-3.5 2.28125 0 .5625.65625.84375.9375.84375.29687 0 .40625-.1875.48437-.46875.26563-1.15625.9375-2.0625 1.96875-2.0625 1.29688 0 1.67188 1.07812 1.67188 2.3125 0 1.8125-.92188 2.82812-2.39063 4.125C1.48438-2.60937.76563-1.46875.45313-.15625m0 0"/><path id="e" d="M1.82813 0h5.53125v-.48437l-1.40625-.125c-.35938-.03126-.5625-.15626-.5625-.82813v-9.92187l-.07813-.09375-3.48437.59375v.40625l1.57812.20312c.28125.03125.39063.15625.39063.64063v8.17187c0 .67188-.15625.79688-.54688.82813l-1.42187.125Zm0 0"/><path id="f" d="M.70313-5.625c0 3.35938.98437 5.82813 3.76562 5.82813C7.23438.20313 8.25-2.26562 8.25-5.625c0-3.375-1.01562-5.82812-3.78125-5.82812C1.6875-11.45312.70313-9 .70313-5.625m1.70312 0c0-2.75.46875-5.23437 2.0625-5.23437S6.53125-8.375 6.53125-5.625c0 2.73438-.46875 5.23438-2.0625 5.23438s-2.0625-2.5-2.0625-5.23438m0 0"/><path id="j" d="M.60938-9.34375c0 1.64063 1.64062 2.9375 5.375 2.9375C5.375-5.3125 4.92188-4.1875 4.92188-2.95312c0 2.0625 1.28125 3.17187 3.64062 3.17187 2.28125 0 4.67188-1.65625 4.67188-3.78125 0-1.28125-1.04688-1.96875-2.39063-1.96875-1.46875 0-3.20312 1.65625-3.20312 2.96875 0 .39063.29687 1.15625.85937 1.15625.15625 0 .375-.125.375-.3125 0-.23437-.4375-.25-.4375-.82812 0-.92188 1.34375-2.39063 2.40625-2.39063.76563 0 1.21875.29688 1.21875 1.03125 0 1.65625-1.59375 3.53125-3.5 3.53125-1.35937 0-2.04687-.73437-2.04687-1.96875 0-1.40625.96875-3.03125 1.70312-4.21875 4.15625-.64062 8.25-2.6875 8.25-5.29687 0-1-.79687-1.65625-1.875-1.65625-2.46875 0-6.1875 3.17187-8.25 6.45312-1.6875-.03125-4.4375-.0625-4.4375-2.04687 0-1.84375 2.23438-3.25 3.625-3.25.26563 0 .40625-.15625.40625-.32813 0-.15625-.14062-.26562-.29687-.26562-2.09375 0-5.03125 1.40625-5.03125 3.60937M8.59375-7.3125c1.375-2.40625 4.28125-5.60937 6-5.60937.65625 0 1.10938.375 1.10938 1 0 2.09375-3.28125 4-7.10938 4.60937m0 0"/><path id="n" d="m2.70313-2.03125.78125.78125 3.25-3.26562L10-1.25l.75-.78125-3.25-3.25 3.25-3.26562-.75-.75-3.26562 3.25-3.25-3.25-.78125.75 3.26562 3.26562Zm0 0"/><path id="k" d="M.375-.15625.53125 0h5.54688l.46875-1.875-.39063-.0625c-.29687.70313-.54687.79688-1.0625.79688H1.73438c.21874-.625.90625-1.5 2.1875-2.35938C5.23438-4.39062 6.1875-5 6.1875-6.4375c0-1.82812-1.23437-2.46875-2.6875-2.46875-1.78125 0-2.79687 1.03125-2.79687 1.82813 0 .46875.53125.6875.8125.6875.25 0 .375-.125.4375-.39063.20312-.90625.6875-1.64062 1.46875-1.64062.90625 0 1.20312.79687 1.20312 1.75 0 1.26562-.5625 2.09375-1.79687 3.15625C1.15625-2.07812.57813-1.125.375-.15625m0 0"/><path id="m" d="m.26563-2.64062.15625.3125H3.9375V-1c0 .42188-.15625.48438-.45312.51563l-.84375.07812V0H6.25v-.40625l-.60937-.0625c-.28125-.04687-.375-.10937-.375-.53125v-1.32812h1.34375v-.6875H5.26563V-8.75H4.15625C2.89063-6.89062 1.46875-4.67187.26563-2.64062m1.0625-.375C2.0625-4.375 2.96875-5.85937 3.9375-7.39062v4.375Zm0 0"/><clipPath id="a"><path d="M0 0h397.29297v397.29297H0Zm0 0"/></clipPath><clipPath id="g"><path d="M379 186h18.29297v26H379Zm0 0"/></clipPath><clipPath id="h"><path d="M198 6h2v391.29297h-2Zm0 0"/></clipPath><clipPath id="i"><path d="M187 81h209.89844v129H187Zm0 0"/></clipPath><clipPath id="l"><path d="M.39453.39453h396.5039v396.5039H.39454Zm0 0"/></clipPath></defs><g clip-path="url(#a)"><path fill="none" stroke="#000" stroke-miterlimit="10" stroke-opacity=".5" stroke-width=".39815" d="M.39454 368.57811h396.50388M.39454 311.9336h396.50388M.39454 255.28906h396.50388M.39454 198.64844h396.50388M.39454 142.0039h396.50388M.39454 85.35938h396.50388M.39454 28.71486h396.50388M28.71876 396.89842V.39454m56.64062 396.50388V.39454m56.64453 396.50388V.39454m56.64453 396.50388V.39454m56.64062 396.50388V.39454m56.64453 396.50388V.39454m56.64452 396.50388V.39454"/></g><path fill="none" stroke="#000" stroke-miterlimit="10" stroke-opacity=".5" stroke-width=".39815" d="M28.71876 184.48438v28.32421"/><g fill-opacity=".5"><use xlink:href="#b" x="18.20184" y="218.43309"/><use xlink:href="#c" x="30.31364" y="218.43309"/></g><path fill="none" stroke="#000" stroke-miterlimit="10" stroke-opacity=".5" stroke-width=".39815" d="M85.35938 184.48438v28.32421"/><g fill-opacity=".5"><use xlink:href="#b" x="74.84456" y="218.532"/><use xlink:href="#d" x="86.95635" y="218.532"/></g><path fill="none" stroke="#000" stroke-miterlimit="10" stroke-opacity=".5" stroke-width=".39815" d="M142.00391 184.48438v28.32421"/><g fill-opacity=".5"><use xlink:href="#b" x="131.48728" y="218.532"/><use xlink:href="#e" x="143.59907" y="218.532"/></g><path fill="none" stroke="#000" stroke-miterlimit="10" stroke-opacity=".5" stroke-width=".39815" d="M255.28906 184.48438v28.32421"/><use xlink:href="#e" x="250.82833" y="218.532" fill-opacity=".5"/><path fill="none" stroke="#000" stroke-miterlimit="10" stroke-opacity=".5" stroke-width=".39815" d="M311.93359 184.48438v28.32421"/><use xlink:href="#d" x="307.47105" y="218.532" fill-opacity=".5"/><path fill="none" stroke="#000" stroke-miterlimit="10" stroke-opacity=".5" stroke-width=".39815" d="M368.57811 184.48438v28.32421"/><use xlink:href="#c" x="364.11377" y="218.43309" fill-opacity=".5"/><path fill="none" stroke="#000" stroke-miterlimit="10" stroke-opacity=".5" stroke-width=".39815" d="M212.8086 368.57811h-28.32032"/><g fill-opacity=".5"><use xlink:href="#b" x="168.30459" y="374.20081"/><use xlink:href="#c" x="180.41639" y="374.20081"/></g><path fill="none" stroke="#000" stroke-miterlimit="10" stroke-opacity=".5" stroke-width=".39815" d="M212.8086 311.93359h-28.32032"/><g fill-opacity=".5"><use xlink:href="#b" x="168.30459" y="317.65701"/><use xlink:href="#d" x="180.41639" y="317.65701"/></g><path fill="none" stroke="#000" stroke-miterlimit="10" stroke-opacity=".5" stroke-width=".39815" d="M212.8086 255.28906h-28.32032"/><g fill-opacity=".5"><use xlink:href="#b" x="168.30459" y="261.01429"/><use xlink:href="#e" x="180.41639" y="261.01429"/></g><path fill="none" stroke="#000" stroke-miterlimit="10" stroke-opacity=".5" stroke-width=".39815" d="M212.8086 142.00391h-28.32032"/><use xlink:href="#e" x="174.36122" y="147.72886" fill-opacity=".5"/><path fill="none" stroke="#000" stroke-miterlimit="10" stroke-opacity=".5" stroke-width=".39815" d="M212.8086 85.35938h-28.32032"/><use xlink:href="#d" x="174.36122" y="91.08614" fill-opacity=".5"/><path fill="none" stroke="#000" stroke-miterlimit="10" stroke-opacity=".5" stroke-width=".39815" d="M212.8086 28.71486h-28.32032"/><use xlink:href="#c" x="174.36122" y="34.34551" fill-opacity=".5"/><path fill="none" stroke="#000" stroke-miterlimit="10" stroke-opacity=".5" stroke-width=".39815" d="M198.64844 184.48438v28.32421"/><use xlink:href="#f" x="174.36022" y="224.09806" fill-opacity=".5"/><path fill="none" stroke="#000" stroke-miterlimit="10" stroke-width=".7963" d="M.39454 198.64844h390.33201"/><path d="M394.88672 198.64844c-.50781-.10938-2.7539-.71094-4.16016-1.36328v2.72265c1.40625-.65234 3.65235-1.2539 4.16016-1.35937m0 0"/><g clip-path="url(#g)"><path fill="none" stroke="#000" stroke-miterlimit="10" stroke-width=".7963" d="M394.88672 198.64844c-.50781-.10938-2.7539-.71094-4.16016-1.36328v2.72265c1.40625-.65234 3.65235-1.2539 4.16016-1.35937Zm0 0"/></g><g clip-path="url(#h)"><path fill="none" stroke="#000" stroke-miterlimit="10" stroke-width=".7963" d="M198.64844 396.89842V6.56642"/></g><path stroke="#000" stroke-miterlimit="10" stroke-width=".7963" d="M198.64844 2.40625c-.10547.51172-.70703 2.75781-1.36328 4.16016h2.72656c-.65625-1.40235-1.25781-3.64844-1.36328-4.16016Zm0 0"/><g clip-path="url(#i)"><path fill="none" stroke="#FF7F00" stroke-miterlimit="10" stroke-width=".7963" d="m198.64844 198.64844 8.2578-21.63281 8.26173-8.96094 8.26172-6.875 8.2578-5.79297 8.26173-5.10937 8.2578-4.61328 8.26173-4.2461 8.26171-3.95312 8.25782-3.71094 8.26171-3.50781 8.26172-3.33985 8.25781-3.1914 8.26172-3.0586 8.25782-2.9453 8.26171-2.83985 8.26172-2.7461 8.25781-2.66406 8.26172-2.58593 8.25781-2.51563 8.26172-2.44922 8.26172-2.38672 8.25781-2.33203 8.26172-2.28125 8.25781-2.23047"/></g><use xlink:href="#j" x="367.10811" y="118.56275" fill="#FF7F00"/><use xlink:href="#k" x="382.37656" y="122.94286" fill="#FF7F00"/><g clip-path="url(#l)"><path fill="none" stroke="#00ADEF" stroke-miterlimit="10" stroke-width=".7963" d="m.39454 396.89842 16.52344-16.51953 16.51953-16.51953 16.51953-16.52343 33.03906-33.03906 16.52344-16.51953 16.51953-16.52344 33.03906-33.03906 16.52343-16.51953 16.51954-16.51953 16.51952-16.52344 33.03907-33.03906 16.52343-16.51953 16.51953-16.52343 33.03906-33.03906 16.52344-16.51953 16.51953-16.51953 16.51953-16.52344 33.03906-33.03906L396.8867.41017"/></g><use xlink:href="#j" x="364.65828" y="61.01584" fill="#00ADEF"/><use xlink:href="#m" x="379.92673" y="65.39595" fill="#00ADEF"/><path fill="none" stroke="#FF7F00" stroke-miterlimit="10" stroke-width="1.59262" d="m198.64844 198.64844 2.35937-11.5625 2.35938-4.78906 2.35937-3.67578 2.35938-3.09766 2.35937-2.72656 2.35938-2.46875 2.35937-2.26953 2.35938-2.10938 2.35937-1.98437 2.35938-1.875 2.35937-1.78516 2.35938-1.70703 2.35937-1.63281 2.35938-1.57422 2.36328-1.51953 2.35937-1.46875 2.35938-1.42188 2.35937-1.38281 2.35938-1.34375 2.35937-1.3086 2.35938-1.27734 2.35937-1.2461 2.35938-1.21874 2.35937-1.1914"/><use xlink:href="#n" x="191.91863" y="203.29553"/><use xlink:href="#n" x="248.56135" y="146.65281"/></svg>