<svg xmlns="http://www.w3.org/2000/svg" xmlns:xlink="http://www.w3.org/1999/xlink" width="397.647pt" height="397.647pt" viewBox="0 0 397.647 397.647"><defs><path id="b" d="M1.4375-4.26562h9.26563V-5.25H1.4375Zm0 0"/><path id="c" d="M.45313-1.71875C.45313-1 1.60938.20313 4 .20313c2.4375 0 3.96875-1.25 3.96875-3.39063 0-2.26562-1.92187-2.92187-2.85937-3.01562v-.0625c.90625-.15625 2.35937-.82813 2.35937-2.5 0-1.85938-1.45312-2.6875-3.25-2.6875-2.23437 0-3.32812 1.29687-3.32812 2.01562 0 .51563.59375.79688.82812.79688.21875 0 .34375-.125.40625-.34375.39063-1.14063 1.01563-1.875 1.96875-1.875C5.40625-10.85937 5.75-9.70312 5.75-8.75c0 1-.35937 2.28125-1.79687 2.28125-.79688 0-1.26563-.15625-1.46875-.15625-.20313 0-.29688.15625-.29688.45313s.09375.46875.29688.46875.67187-.15625 1.46875-.15625c1.4375 0 2.25 1.29687 2.25 2.76562 0 2-.98438 2.70313-2.1875 2.70313-1.10938 0-1.84375-.82813-2.17188-1.78125-.10937-.3125-.26562-.48438-.5-.48438-.29687 0-.89062.32813-.89062.9375m0 0"/><path id="d" d="M.45313-.15625.625 0h6.96875l.57813-2.21875-.46875-.09375C7.34375-1.39062 7-1.26562 6.32813-1.26562H2.03125c.26563-.89063 1.26563-2.07813 2.82813-3.21875 1.60937-1.17188 2.85937-1.9375 2.85937-3.8125 0-2.34375-1.54687-3.15625-3.32812-3.15625-2.3125 0-3.5 1.40625-3.5 2.28125 0 .5625.65625.84375.9375.84375.29687 0 .40625-.1875.48437-.46875.26563-1.15625.9375-2.0625 1.96875-2.0625 1.29688 0 1.67188 1.07812 1.67188 2.3125 0 1.8125-.92188 2.82812-2.39063 4.125C1.48438-2.60937.76563-1.46875.45313-.15625m0 0"/><path id="e" d="M1.82813 0h5.53125v-.48437l-1.40625-.125c-.35938-.03126-.5625-.15626-.5625-.82813v-9.92187l-.07813-.09375-3.48437.59375v.40625l1.57812.20312c.28125.03125.39063.15625.39063.64063v8.17187c0 .67188-.15625.79688-.54688.82813l-1.42187.125Zm0 0"/><path id="f" d="M.70313-5.625c0 3.35938.98437 5.82813 3.76562 5.82813C7.23438.20313 8.25-2.26562 8.25-5.625c0-3.375-1.01562-5.82812-3.78125-5.82812C1.6875-11.45312.70313-9 .70313-5.625m1.70312 0c0-2.75.46875-5.23437 2.0625-5.23437S6.53125-8.375 6.53125-5.625c0 2.73438-.46875 5.23438-2.0625 5.23438s-2.0625-2.5-2.0625-5.23438m0 0"/><path id="j" d="M.60938-9.34375c0 1.64063 1.64062 2.9375 5.375 2.9375C5.375-5.3125 4.92188-4.1875 4.92188-2.95312c0 2.0625 1.28125 3.17187 3.64062 3.17187 2.28125 0 4.67188-1.65625 4.67188-3.78125 0-1.28125-1.04688-1.96875-2.39063-1.96875-1.46875 0-3.20312 1.65625-3.20312 2.96875 0 .39063.29687 1.15625.85937 1.15625.15625 0 .375-.125.375-.3125 0-.23437-.4375-.25-.4375-.82812 0-.92188 1.34375-2.39063 2.40625-2.39063.76563 0 1.21875.29688 1.21875 1.03125 0 1.65625-1.59375 3.53125-3.5 3.53125-1.35937 0-2.04687-.73437-2.04687-1.96875 0-1.40625.96875-3.03125 1.70312-4.21875 4.15625-.64062 8.25-2.6875 8.25-5.29687 0-1-.79687-1.65625-1.875-1.65625-2.46875 0-6.1875 3.17187-8.25 6.45312-1.6875-.03125-4.4375-.0625-4.4375-2.04687 0-1.84375 2.23438-3.25 3.625-3.25.26563 0 .40625-.15625.40625-.32813 0-.15625-.14062-.26562-.29687-.26562-2.09375 0-5.03125 1.40625-5.03125 3.60937M8.59375-7.3125c1.375-2.40625 4.28125-5.60937 6-5.60937.65625 0 1.10938.375 1.10938 1 0 2.09375-3.28125 4-7.10938 4.60937m0 0"/><path id="o" d="m2.70313-2.03125.78125.78125 3.25-3.26562L10-1.25l.75-.78125-3.25-3.25 3.25-3.26562-.75-.75-3.26562 3.25-3.25-3.25-.78125.75 3.26562 3.26562Zm0 0"/><path id="k" d="M1.42188 0H5.8125v-.40625L4.76563-.5c-.29688-.03125-.4375-.125-.4375-.60937v-7.73438L4.25-8.90625l-2.8125.46875v.35938l1.125.14062c.25.04688.34375.14063.34375.54688v6.28125c0 .48437-.125.57812-.4375.60937l-1.04687.09375Zm0 0"/><path id="m" d="M.35938-1.39062c0 .54687.85937 1.54687 2.84375 1.54687 1.95312 0 3.17187-.95312 3.17187-2.625 0-1.78125-1.54687-2.25-2.21875-2.32812v-.04688C4.85938-4.96875 6-5.48437 6-6.78125c0-1.53125-1.26562-2.125-2.65625-2.125-1.67187 0-2.64062.9375-2.64062 1.60938 0 .4375.51562.67187.73437.67187.1875 0 .29688-.125.375-.3125.29688-.92187.73438-1.48437 1.45313-1.48437.96875 0 1.20312.92187 1.20312 1.625 0 .6875-.21875 1.76562-1.29687 1.76562-.59375 0-.98438-.14062-1.17188-.14062-.20312 0-.26562.15625-.26562.40625s.0625.40625.26562.40625c.1875 0 .57813-.14063 1.17188-.14063 1.01562 0 1.64062.82813 1.64062 2.09375 0 1.5-.70312 2.07813-1.59375 2.07813-.79687 0-1.34375-.60938-1.60937-1.45313-.09376-.25-.23438-.39062-.4375-.39062-.29688 0-.8125.28125-.8125.78125m0 0"/><clipPath id="a"><path d="M0 0h397.29297v397.29297H0Zm0 0"/></clipPath><clipPath id="g"><path d="M379 186h18.29297v26H379Zm0 0"/></clipPath><clipPath id="h"><path d="M198 6h2v391.29297h-2Zm0 0"/></clipPath><clipPath id="i"><path d="M.39453.39453h396.5039V210H.39454Zm0 0"/></clipPath><clipPath id="l"><path d="M.39453.39453h396.5039v396.5039H.39454Zm0 0"/></clipPath><clipPath id="n"><path d="M232 .39453h164.89844V165H232Zm0 0"/></clipPath></defs><g clip-path="url(#a)"><path fill="none" stroke="#000" stroke-miterlimit="10" stroke-opacity=".5" stroke-width=".39815" d="M.39454 368.57811h396.50388M.39454 311.9336h396.50388M.39454 255.28906h396.50388M.39454 198.64844h396.50388M.39454 142.0039h396.50388M.39454 85.35938h396.50388M.39454 28.71486h396.50388M28.71876 396.89842V.39454m56.64062 396.50388V.39454m56.64453 396.50388V.39454m56.64453 396.50388V.39454m56.64062 396.50388V.39454m56.64453 396.50388V.39454m56.64452 396.50388V.39454"/></g><path fill="none" stroke="#000" stroke-miterlimit="10" stroke-opacity=".5" stroke-width=".39815" d="M28.71876 184.48438v28.32421"/><g fill-opacity=".5"><use xlink:href="#b" x="18.20184" y="218.43309"/><use xlink:href="#c" x="30.31364" y="218.43309"/></g><path fill="none" stroke="#000" stroke-miterlimit="10" stroke-opacity=".5" stroke-width=".39815" d="M85.35938 184.48438v28.32421"/><g fill-opacity=".5"><use xlink:href="#b" x="74.84456" y="218.532"/><use xlink:href="#d" x="86.95635" y="218.532"/></g><path fill="none" stroke="#000" stroke-miterlimit="10" stroke-opacity=".5" stroke-width=".39815" d="M142.00391 184.48438v28.32421"/><g fill-opacity=".5"><use xlink:href="#b" x="131.48728" y="218.532"/><use xlink:href="#e" x="143.59907" y="218.532"/></g><path fill="none" stroke="#000" stroke-miterlimit="10" stroke-opacity=".5" stroke-width=".39815" d="M255.28906 184.48438v28.32421"/><use xlink:href="#e" x="250.82833" y="218.532" fill-opacity=".5"/><path fill="none" stroke="#000" stroke-miterlimit="10" stroke-opacity=".5" stroke-width=".39815" d="M311.93359 184.48438v28.32421"/><use xlink:href="#d" x="307.47105" y="218.532" fill-opacity=".5"/><path fill="none" stroke="#000" stroke-miterlimit="10" stroke-opacity=".5" stroke-width=".39815" d="M368.57811 184.48438v28.32421"/><use xlink:href="#c" x="364.11377" y="218.43309" fill-opacity=".5"/><path fill="none" stroke="#000" stroke-miterlimit="10" stroke-opacity=".5" stroke-width=".39815" d="M212.8086 368.57811h-28.32032"/><g fill-opacity=".5"><use xlink:href="#b" x="168.30459" y="374.20081"/><use xlink:href="#c" x="180.41639" y="374.20081"/></g><path fill="none" stroke="#000" stroke-miterlimit="10" stroke-opacity=".5" stroke-width=".39815" d="M212.8086 311.93359h-28.32032"/><g fill-opacity=".5"><use xlink:href="#b" x="168.30459" y="317.65701"/><use xlink:href="#d" x="180.41639" y="317.65701"/></g><path fill="none" stroke="#000" stroke-miterlimit="10" stroke-opacity=".5" stroke-width=".39815" d="M212.8086 255.28906h-28.32032"/><g fill-opacity=".5"><use xlink:href="#b" x="168.30459" y="261.01429"/><use xlink:href="#e" x="180.41639" y="261.01429"/></g><path fill="none" stroke="#000" stroke-miterlimit="10" stroke-opacity=".5" stroke-width=".39815" d="M212.8086 142.00391h-28.32032"/><use xlink:href="#e" x="174.36122" y="147.72886" fill-opacity=".5"/><path fill="none" stroke="#000" stroke-miterlimit="10" stroke-opacity=".5" stroke-width=".39815" d="M212.8086 85.35938h-28.32032"/><use xlink:href="#d" x="174.36122" y="91.08614" fill-opacity=".5"/><path fill="none" stroke="#000" stroke-miterlimit="10" stroke-opacity=".5" stroke-width=".39815" d="M212.8086 28.71486h-28.32032"/><use xlink:href="#c" x="174.36122" y="34.34551" fill-opacity=".5"/><path fill="none" stroke="#000" stroke-miterlimit="10" stroke-opacity=".5" stroke-width=".39815" d="M198.64844 184.48438v28.32421"/><use xlink:href="#f" x="174.36022" y="224.09806" fill-opacity=".5"/><path fill="none" stroke="#000" stroke-miterlimit="10" stroke-width=".7963" d="M.39454 198.64844h390.33201"/><path d="M394.88672 198.64844c-.50781-.10938-2.7539-.71094-4.16016-1.36328v2.72265c1.40625-.65234 3.65235-1.2539 4.16016-1.35937m0 0"/><g clip-path="url(#g)"><path fill="none" stroke="#000" stroke-miterlimit="10" stroke-width=".7963" d="M394.88672 198.64844c-.50781-.10938-2.7539-.71094-4.16016-1.36328v2.72265c1.40625-.65234 3.65235-1.2539 4.16016-1.35937Zm0 0"/></g><g clip-path="url(#h)"><path fill="none" stroke="#000" stroke-miterlimit="10" stroke-width=".7963" d="M198.64844 396.89842V6.56642"/></g><path stroke="#000" stroke-miterlimit="10" stroke-width=".7963" d="M198.64844 2.40625c-.10547.51172-.70703 2.75781-1.36328 4.16016h2.72656c-.65625-1.40235-1.25781-3.64844-1.36328-4.16016Zm0 0"/><g clip-path="url(#i)"><path fill="none" stroke="#007F7F" stroke-miterlimit="10" stroke-width=".7963" d="M.39454-495.23433s11.9375 81.41015 16.52344 110.82421c4.58203 29.41797 11.9336 74.44531 16.51953 101.1875 4.58203 26.74218 11.9336 67.48437 16.51953 91.55077 4.58594 24.07031 11.9375 60.52343 16.51953 81.91796 4.58594 21.39453 11.9375 53.5586 16.51953 72.27734C87.58204-18.7578 94.9336 9.1172 99.51954 25.16407c4.58203 16.04688 11.93359 39.63281 16.51953 53.0039 4.58593 13.375 11.9375 32.67188 16.51953 43.3711 4.58593 10.6953 11.9375 25.70703 16.51953 33.73046 4.58593 8.02344 11.9375 18.7461 16.52343 24.09766 4.58204 5.34765 11.9336 11.78125 16.51954 14.45703 4.58203 2.67578 11.93359 4.82031 16.51952 4.82422 4.58594 0 11.9375-2.14453 16.51954-4.8164 4.58593-2.67188 11.9375-9.10157 16.51953-14.44923 4.58593-5.34765 11.9375-16.0664 16.52343-24.08984 4.58203-8.01953 11.9336-23.02734 16.51953-33.72265 4.58594-10.69531 11.9375-29.99219 16.51953-43.35937 4.58594-13.3711 11.9375-36.95313 16.51953-53 4.58594-16.04297 11.9375-43.91406 16.52344-62.6328 4.58203-18.71485 11.9336-50.875 16.51953-72.26954 4.58203-21.39062 11.9336-57.83984 16.51953-81.90624 4.58594-24.0664 11.9375-64.80468 16.51953-91.54296 4.58594-26.73828 11.9375-71.76562 16.51953-101.17968 4.58594-29.41406 16.52344-110.8164 16.52344-110.8164"/></g><use xlink:href="#j" x="308.75991" y="16.97493" fill="#007F7F"/><use xlink:href="#k" x="324.02835" y="21.35504" fill="#007F7F"/><g clip-path="url(#l)"><path fill="none" stroke="#EC008C" stroke-miterlimit="10" stroke-width=".7963" d="M.39454 2627.23031s11.9375-415.98435 16.52344-557.94137c4.58203-141.95702 11.9336-347.79685 16.51953-465.18747 4.58203-117.38671 11.9336-285.7031 16.51953-380.86326 4.58594-95.15624 11.9375-229.7031 16.51953-304.97654 4.58594-75.26952 11.9375-179.79686 16.51953-237.5156 4.58594-57.72266 11.9375-135.98437 16.52344-178.49609 4.58203-42.51172 11.93359-98.2578 16.51953-127.89843 4.58593-29.64453 11.9375-66.6289 16.51953-85.73827 4.58593-19.11328 11.9375-41.08594 16.51953-52.00781 4.58593-10.92188 11.9375-21.63672 16.52343-26.71094 4.58204-5.07031 11.9336-8.28125 16.51954-9.83984 4.58203-1.5625 11.93359-1.01953 16.51952-1.40625 4.58594-.39063 11.9375.15234 16.51954-1.40625 4.58593-1.5586 11.9375-4.76172 16.51953-9.82813 4.58593-5.0703 11.9375-15.77734 16.52343-26.6914 4.58203-10.91797 11.9336-32.8789 16.51953-51.98437 4.58594-19.10547 11.9375-56.07422 16.51953-85.70703 4.58594-29.6328 11.9375-85.36327 16.51953-127.86327 4.58594-42.5 11.9375-120.73827 16.52344-178.4453 4.58203-57.70703 11.9336-162.21093 16.51953-237.46483 4.58203-75.2578 11.9336-209.77733 16.51953-304.91795 4.58594-95.14062 11.9375-263.42967 16.51953-380.79685 4.58594-117.37109 11.9375-323.17967 16.51953-465.11325 4.58594-141.93359 16.52344-557.85934 16.52344-557.85934"/></g><use xlink:href="#j" x="251.38084" y="20.271" fill="#EC008C"/><use xlink:href="#m" x="266.65129" y="24.65112" fill="#EC008C"/><g clip-path="url(#n)"><path fill="none" stroke="#EC008C" stroke-miterlimit="10" stroke-width="1.59262" d="M255.28906 142.00391s4.26562-13.60156 5.90234-19.60547c1.63672-6.0039 4.26172-16.48828 5.89844-23.67968 1.63672-7.1875 4.26172-19.65235 5.90234-28.13281 1.63672-8.47657 4.26172-23.09766 5.89844-32.97266 1.63672-9.8711 4.26172-26.8164 5.89844-38.1914 1.63672-11.3789 4.26172-30.82031 5.90234-43.80469 1.63672-12.98828 4.26172-35.08984 5.89844-49.79296 1.63672-14.70313 4.26172-39.64453 5.89843-56.16797 1.63672-16.52343 4.26172-44.47265 5.90235-62.92577 1.63672-18.45313 4.26172-49.58594 5.89844-70.07422s4.26171-54.96484 5.89843-77.59765c1.63672-22.6289 4.26172-60.6289 5.90235-85.5078 1.63671-24.88282 4.26171-66.57031 5.89843-93.80469s4.26172-72.78906 5.89844-102.48437 4.26562-79.28124 5.90234-111.54686c1.63672-32.26563 4.26172-86.05469 5.89844-120.99609 1.63672-34.9375 4.26172-93.10156 5.89844-130.82421s4.26562-100.43359 5.90234-141.04296 4.26172-108.03515 5.89844-151.64061c1.63672-43.60156 4.26172-115.91797 5.89844-162.62109 1.63671-46.70703 4.26562-124.08202 5.90234-173.99608 1.63672-49.91015 4.26172-132.51562 5.89844-185.74218s4.26171-141.23045 5.89843-197.87889c1.63672-56.64843 5.90235-210.40233 5.90235-210.40233"/></g><use xlink:href="#o" x="248.56135" y="146.65281"/></svg>