<svg xmlns="http://www.w3.org/2000/svg" xmlns:xlink="http://www.w3.org/1999/xlink" width="258.75pt" height="258.75pt" viewBox="0 0 258.75 258.75"><defs><path id="b" d="M.5-4.0625C.5-1.625 1.21875.14063 3.21875.14063c2.01563 0 2.73438-1.76563 2.73438-4.20313s-.71875-4.20312-2.73438-4.20312C1.21875-8.26562.5-6.5.5-4.0625m1.23438 0c0-1.98437.32812-3.78125 1.48437-3.78125S4.70313-6.04687 4.70313-4.0625c0 1.98438-.32813 3.78125-1.48438 3.78125S1.73438-2.07812 1.73438-4.0625m0 0"/><path id="j" d="M.40625-6.0625c0 1.0625 1.0625 1.89063 3.48438 1.89063-.39063.71875-.6875 1.45312-.6875 2.25 0 1.34375.82812 2.0625 2.35937 2.0625 1.48438 0 3.04688-1.07813 3.04688-2.45313 0-.82812-.6875-1.28125-1.5625-1.28125-.95313 0-2.07813 1.07813-2.07813 1.92188 0 .26562.1875.75.5625.75.09375 0 .23438-.07813.23438-.1875 0-.15626-.28125-.17188-.28125-.54688 0-.59375.875-1.54687 1.5625-1.54687.5 0 .79687.1875.79687.67187C7.84375-1.46875 6.8125-.25 5.5625-.25c-.875 0-1.32812-.46875-1.32812-1.28125 0-.90625.625-1.96875 1.10937-2.73437 2.70313-.42188 5.35938-1.75 5.35938-3.4375 0-.65625-.51563-1.07813-1.21875-1.07813-1.60938 0-4.03125 2.04688-5.35938 4.1875-1.09375-.01562-2.89062-.03125-2.89062-1.32812 0-1.1875 1.45312-2.10938 2.35937-2.10938.17188 0 .26563-.10937.26563-.20312 0-.10938-.09375-.1875-.20313-.1875-1.35937 0-3.25.92187-3.25 2.35937M5.59375-4.75C6.48438-6.3125 8.375-8.39062 9.48438-8.39062c.42187 0 .71875.23437.71875.64062 0 1.35938-2.125 2.59375-4.60938 3m0 0"/><path id="n" d="m1.76563-1.3125.5.5L4.375-2.9375 6.5-.8125l.48438-.5L4.875-3.42187l2.10938-2.125-.48438-.5L4.375-3.9375 2.26563-6.04687l-.5.5 2.10937 2.125Zm0 0"/><path id="c" d="M.9375-2.76562h6.01563v-.64063H.9375Zm0 0"/><path id="d" d="M.29688-1.125c0 .46875.75 1.25 2.29687 1.25 1.57813 0 2.59375-.79687 2.59375-2.20312 0-1.45313-1.26562-1.89063-1.875-1.95313v-.04687c.59375-.09375 1.54688-.53125 1.54688-1.60938 0-1.21875-.95313-1.75-2.125-1.75-1.4375 0-2.15625.84375-2.15625 1.29688 0 .34375.39062.53125.54687.53125.125 0 .21875-.07813.26563-.21875.23437-.75.64062-1.21875 1.26562-1.21875.85938 0 1.07813.75 1.07813 1.35937 0 .65625-.23438 1.48438-1.15625 1.48438-.53125 0-.82813-.10938-.95313-.10938-.14062 0-.20312.10938-.20312.3125 0 .1875.0625.29688.20312.29688.125 0 .42188-.10938.95313-.10938.92187 0 1.45312.84375 1.45312 1.79688C4.03125-.70312 3.39063-.25 2.60938-.25c-.71875 0-1.20313-.54687-1.40625-1.15625-.07813-.21875-.17188-.3125-.32813-.3125-.20312 0-.57812.20313-.57812.59375m0 0"/><path id="e" d="M.29688-.10937.40625 0H4.9375l.375-1.4375L5-1.5c-.23437.59375-.45312.67188-.89062.67188H1.3125c.17188-.5625.82813-1.34375 1.84375-2.07813 1.04688-.76562 1.85938-1.26562 1.85938-2.48437C5.01563-6.92187 4-7.4375 2.85938-7.4375c-1.51563 0-2.28125.90625-2.28125 1.48438 0 .35937.42187.54687.60937.54687.20313 0 .26563-.125.3125-.3125.17188-.73437.60938-1.32812 1.28125-1.32812.84375 0 1.07813.6875 1.07813 1.5 0 1.17187-.59375 1.82812-1.54688 2.67187C.96875-1.70312.5-.95312.29688-.10937m0 0"/><path id="f" d="M1.1875 0h3.59375v-.3125l-.92187-.07812C3.625-.42187 3.5-.5 3.5-.9375V-7.375l-.04687-.0625-2.26563.39063v.26562l1.03125.125c.17188.01563.25.10938.25.42188V-.9375c0 .4375-.10937.51563-.35937.54688L1.1875-.3125Zm0 0"/><path id="k" d="M.92188 0h2.85937v-.26562l-.6875-.0625c-.1875-.01563-.28125-.07813-.28125-.39063V-5.75l-.04687-.04687-1.82813.3125V-5.25l.73438.09375c.15624.03125.21874.09375.21874.35938v4.07812c0 .3125-.09374.375-.28124.39063l-.6875.0625Zm0 0"/><path id="m" d="m.17188-1.71875.09375.20313H2.5625v.85937c0 .28125-.10937.32813-.29687.34375l-.54688.04688V0H4.0625v-.26562L3.67188-.3125c-.1875-.01562-.25-.0625-.25-.34375v-.85937h.875v-.4375h-.875V-5.6875h-.71875C1.875-4.48437.95313-3.03125.17188-1.71875m.6875-.23437C1.34375-2.84375 1.9375-3.8125 2.5625-4.79687v2.84375Zm0 0"/><clipPath id="a"><path d="M0 0h258.5v258.5H0Zm0 0"/></clipPath><clipPath id="g"><path d="M240 116h18.5v26H240Zm0 0"/></clipPath><clipPath id="h"><path d="M128 6h2v252.5h-2Zm0 0"/></clipPath><clipPath id="i"><path d="M.39453.39453h257.71094V141H.39453Zm0 0"/></clipPath><clipPath id="l"><path d="M.39453.39453h257.71094v257.71094H.39453Zm0 0"/></clipPath></defs><g clip-path="url(#a)"><path fill="none" stroke="#7f7f7f" stroke-dasharray=".39811744000000004 .9953235712000001" stroke-miterlimit="10" stroke-width=".39812" d="M.3945 239.69534h257.711M.3945 202.87893h257.711M.3945 166.06642h257.711M.3945 129.25h257.711M.3945 92.43359h257.711M.3945 55.62108h257.711M.3945 18.80466h257.711M18.80466 258.1055V.3945m36.81642 257.711V.3945m36.8125 257.711V.3945M129.25 258.1055V.3945m36.81642 257.711V.3945m36.8125 257.711V.3945m36.81642 257.711V.3945"/></g><use xlink:href="#b" x="113.14268" y="146.19875" fill="#7f7f7f"/><path fill="none" stroke="#7f7f7f" stroke-miterlimit="10" stroke-width=".39812" d="M18.80466 120.04687v18.40626"/><g fill="#7f7f7f"><use xlink:href="#c" x="11.96944" y="150.46662"/><use xlink:href="#d" x="19.84148" y="150.46662"/></g><path fill="none" stroke="#7f7f7f" stroke-miterlimit="10" stroke-width=".39812" d="M55.62108 120.04687v18.40626"/><g fill="#7f7f7f"><use xlink:href="#c" x="48.78487" y="150.46662"/><use xlink:href="#e" x="56.65691" y="150.46662"/></g><path fill="none" stroke="#7f7f7f" stroke-miterlimit="10" stroke-width=".39812" d="M92.43359 120.04687v18.40626"/><g fill="#7f7f7f"><use xlink:href="#c" x="85.59929" y="150.46662"/><use xlink:href="#f" x="93.47134" y="150.46662"/></g><path fill="none" stroke="#7f7f7f" stroke-miterlimit="10" stroke-width=".39812" d="M166.06642 120.04687v18.40626"/><use xlink:href="#f" x="163.16535" y="150.46662" fill="#7f7f7f"/><path fill="none" stroke="#7f7f7f" stroke-miterlimit="10" stroke-width=".39812" d="M202.87893 120.04687v18.40626"/><use xlink:href="#e" x="199.98078" y="150.46662" fill="#7f7f7f"/><path fill="none" stroke="#7f7f7f" stroke-miterlimit="10" stroke-width=".39812" d="M239.69534 120.04687v18.40626"/><use xlink:href="#d" x="236.79521" y="150.46662" fill="#7f7f7f"/><path fill="none" stroke="#000" stroke-miterlimit="10" stroke-width=".79624" d="M.3945 129.25h251.53913"/><path d="M256.09375 129.25c-.51172-.10547-2.75781-.70703-4.16016-1.36328v2.72656c1.40235-.65625 3.64844-1.25781 4.16016-1.36328m0 0"/><g clip-path="url(#g)"><path fill="none" stroke="#000" stroke-miterlimit="10" stroke-width=".79624" d="M256.09375 129.25c-.51172-.10547-2.75781-.70703-4.16016-1.36328v2.72656c1.40235-.65625 3.64844-1.25781 4.16016-1.36328Zm0 0"/></g><path fill="none" stroke="#7f7f7f" stroke-miterlimit="10" stroke-width=".39812" d="M138.45313 239.69534h-18.40626"/><g fill="#7f7f7f"><use xlink:href="#c" x="101.80364" y="243.35088"/><use xlink:href="#d" x="109.67569" y="243.35088"/></g><path fill="none" stroke="#7f7f7f" stroke-miterlimit="10" stroke-width=".39812" d="M138.45313 202.87893h-18.40626"/><g fill="#7f7f7f"><use xlink:href="#c" x="101.80364" y="206.60039"/><use xlink:href="#e" x="109.67569" y="206.60039"/></g><path fill="none" stroke="#7f7f7f" stroke-miterlimit="10" stroke-width=".39812" d="M138.45313 166.06642h-18.40626"/><g fill="#7f7f7f"><use xlink:href="#c" x="101.80364" y="169.78596"/><use xlink:href="#f" x="109.67569" y="169.78596"/></g><path fill="none" stroke="#7f7f7f" stroke-miterlimit="10" stroke-width=".39812" d="M138.45313 92.43359h-18.40626"/><use xlink:href="#f" x="109.67603" y="96.1561" fill="#7f7f7f"/><path fill="none" stroke="#7f7f7f" stroke-miterlimit="10" stroke-width=".39812" d="M138.45313 55.62108h-18.40626"/><use xlink:href="#e" x="109.67603" y="59.34067" fill="#7f7f7f"/><path fill="none" stroke="#7f7f7f" stroke-miterlimit="10" stroke-width=".39812" d="M138.45313 18.80466h-18.40626"/><use xlink:href="#d" x="109.67603" y="22.4623" fill="#7f7f7f"/><g clip-path="url(#h)"><path fill="none" stroke="#000" stroke-miterlimit="10" stroke-width=".79624" d="M129.25 258.1055V6.56638"/></g><path stroke="#000" stroke-miterlimit="10" stroke-width=".79624" d="M129.25 2.40625c-.10547.51172-.70703 2.75781-1.36328 4.16016h2.72656c-.65625-1.40235-1.25781-3.64844-1.36328-4.16016Zm0 0"/><g clip-path="url(#i)"><path fill="none" stroke="#007f7f" stroke-miterlimit="10" stroke-width=".79624" d="M.3945-321.7384s7.75781 52.91018 10.73828 72.03127c2.98047 19.1172 7.75782 48.38673 10.73829 65.76565 2.98047 17.38281 7.75781 43.86329 10.73828 59.50392 2.98047 15.64453 7.75782 39.33594 10.73828 53.2422 2.97657 13.90625 7.75782 34.8086 10.73438 46.97657 2.98047 12.16797 7.75782 30.28517 10.73829 40.71486s7.75781 25.75781 10.73828 34.44922 7.75781 21.23438 10.73828 28.18751 7.75782 16.71094 10.73829 21.92579c2.97656 5.21484 7.75781 12.1836 10.73438 15.66016 2.98047 3.47656 7.75781 7.66016 10.73828 9.39844s7.75781 3.13281 10.73828 3.13281 7.75782-1.39062 10.73829-3.1289c2.97656-1.73829 7.75781-5.91798 10.73438-9.39063 2.98046-3.47657 7.75781-10.44532 10.73828-15.65626 2.98047-5.21484 7.75781-14.96875 10.73828-21.91797 2.98047-6.95313 7.75782-19.4961 10.73829-28.1836 2.98047-8.69141 7.75781-24.01954 10.73828-34.44532 2.97656-10.4297 7.75782-28.54298 10.73438-40.71095 2.98047-12.16407 7.75781-33.06642 10.73828-46.96876 2.98047-13.90626 7.75782-37.59376 10.73829-53.2383 2.98047-15.64063 7.75781-42.1172 10.73828-59.4961 2.97656-17.37892 7.75782-46.64455 10.73829-65.76174 2.97656-19.1211 10.73437-72.02736 10.73437-72.02736"/></g><use xlink:href="#j" x="82.2815" y="70.45193" fill="#007f7f"/><use xlink:href="#k" x="92.20521" y="73.29878" fill="#007f7f"/><g clip-path="url(#l)"><path fill="none" stroke="#00adef" stroke-miterlimit="10" stroke-width=".79624" d="m.3945 258.1055 10.73828-10.73828 10.73829-10.73829 10.73828-10.73828 10.73828-10.73828 10.73438-10.73438L64.8203 193.6797l10.73828-10.73828 10.73828-10.73828c2.98047-2.97657 7.75782-7.75782 10.73829-10.73438 2.97656-2.98047 7.75781-7.75782 10.73438-10.73829l10.73828-10.73828 10.73828-10.73828 10.73829-10.73829 10.73438-10.73438 10.73828-10.73828 10.73828-10.73828 10.73829-10.73829 10.73828-10.73828 10.73438-10.73438 10.73828-10.73828 10.73829-10.73829 10.73828-10.73828c2.97656-2.97656 7.75782-7.75782 10.73829-10.73438C250.33597 8.16403 258.09378.40622 258.09378.40622"/></g><use xlink:href="#j" x="57.84611" y="173.37249" fill="#00adef"/><use xlink:href="#m" x="67.77112" y="176.21804" fill="#00adef"/><use xlink:href="#n" x="124.87735" y="132.2712"/><use xlink:href="#n" x="161.69178" y="95.45677"/></svg>