<svg id="Capa_1" enable-background="new 0 0 512.556 512.556" height="512" viewBox="0 0 512.556 512.556" width="512" xmlns="http://www.w3.org/2000/svg"><g><path d="m464.278 480s-62.4-60-83.2-120c-25.541-73.674-36.546-200-124.8-200-88.278 0-99.302 126.449-124.8 200-20.8 60-83.2 120-83.2 120l208 16z" fill="#e28086"/><path d="m381.078 360c-24.272-70.013-35.417-187.575-112.205-199.086 40.98 39.26 51.944 123.522 70.997 178.482 9.446 27.247 27.47 54.494 44.334 76.122 13.915 17.846 1.211 43.878-21.418 43.878h-295.033c-11.356 12.797-19.475 20.604-19.475 20.604l208 16 208-16s-62.4-60-83.2-120z" fill="#dd636e"/><g><g><path d="m256.278 495.008c-4.142 0-7.5-3.357-7.5-7.5v-303.224c0-4.143 3.358-7.5 7.5-7.5s7.5 3.357 7.5 7.5v303.225c0 4.142-3.358 7.499-7.5 7.499z" fill="#e2a2ac"/></g></g><path d="m501.976 512.556h-491.396c-5.69 0-10.302-4.612-10.302-10.302v-11.953c0-5.689 4.612-10.301 10.302-10.301h491.396c5.69 0 10.302 4.612 10.302 10.302v11.953c0 5.689-4.612 10.301-10.302 10.301z" fill="#707dd3"/><circle cx="256.278" cy="100" fill="#707dd3" r="100"/><path d="m286.186 4.55c26.739 17.949 44.337 48.463 44.337 83.088 0 55.228-44.772 100-100 100-10.418 0-20.464-1.594-29.908-4.55 15.912 10.681 35.06 16.912 55.663 16.912 55.228 0 100-44.772 100-100 0-44.81-29.473-82.736-70.092-95.45z" fill="#5766cb"/><g fill="#f0f7ff"><path d="m307.373 137.42c-2.652-3.183-7.383-3.609-10.563-.96l-6.538 5.45c-1.896 1.58-4.373 2.214-6.797 1.742-2.423-.474-4.479-1.995-5.64-4.173l-13.627-25.551 19.82-26.428h12.25c4.143 0 7.5-3.357 7.5-7.5s-3.357-7.5-7.5-7.5h-13.425c-3.961 0-7.745 1.892-10.121 5.06l-16.318 21.758-10.73-20.12c-2.203-4.132-6.48-6.698-11.163-6.698h-18.243c-4.142 0-7.5 3.357-7.5 7.5s3.358 7.5 7.5 7.5h16.833l13.368 25.064-23.284 31.046h-6.917c-4.142 0-7.5 3.357-7.5 7.5s3.358 7.5 7.5 7.5h8.091c3.961 0 7.745-1.892 10.121-5.06l19.782-26.376 10.327 19.363c3.295 6.179 9.126 10.492 15.998 11.835 1.492.292 2.991.436 4.479.436 5.365-.001 10.587-1.866 14.799-5.375l6.539-5.45c3.181-2.652 3.61-7.381.959-10.563z"/><path d="m216.278 55.5h80c4.143 0 7.5-3.357 7.5-7.5s-3.357-7.5-7.5-7.5h-80c-4.142 0-7.5 3.357-7.5 7.5s3.358 7.5 7.5 7.5z"/></g></g></svg>
