<svg xmlns="http://www.w3.org/2000/svg" xmlns:xlink="http://www.w3.org/1999/xlink" width="1146.006" height="1090.974" viewBox="0 0 1146.006 1090.974"><defs><path id="a" d="m1.26563-.45312.5.45312h19.59374l1.625-6.25-1.3125-.25c-1.01562 2.5625-1.96874 2.92188-3.89062 2.92188H5.6875c.76563-2.46875 3.57813-5.84375 7.96875-9.01563 4.53125-3.32812 8.0625-5.45312 8.0625-10.73437 0-6.60938-4.39062-8.875-9.375-8.875-6.5 0-9.82812 3.9375-9.82812 6.40624 0 1.60938 1.8125 2.35938 2.625 2.35938.85937 0 1.15625-.5 1.35937-1.29687.75-3.23438 2.625-5.79688 5.54688-5.79688 3.625 0 4.6875 3.01563 4.6875 6.5 0 5.07813-2.57813 7.95313-6.70313 11.57813-5.84375 5.09375-7.85937 8.32812-8.76562 12m0 0"/><path id="b" d="M2.0625-14.60937C2.0625-4.39062 5.79688.54688 12.90625.54688c7 0 10.73438-4.21875 10.73438-10.67188 0-6.40625-3.9375-9.875-9.03126-9.875-3.71874 0-6.5 2.51563-7.75 4.07813H6.75c.04688-10.4375 3.03125-14.60938 7.3125-14.60938 2.15625 0 3.71875 1.8125 4.4375 4.53125.14063.54688.5 1 1.20313 1 1.0625 0 2.51562-.84375 2.51562-2.15625 0-1.92187-2.3125-5.04687-8.01562-5.04687-7.5 0-12.14063 5.79687-12.14063 17.59374m4.79688 3.42187c0-2.875 2.15625-6.40625 6.14062-6.40625 2.96875 0 5.89063 2.73438 5.89063 8.17188 0 4.98437-1.90626 8.3125-5.89063 8.3125-4.125 0-6.14062-4.39063-6.14062-10.07813m0 0"/><path id="c" d="M5.14063 0h15.5625v-1.35937l-3.96876-.35938c-1.01562-.09375-1.5625-.45312-1.5625-2.3125v-27.92187l-.25-.25-9.78124 1.67187v1.15625l4.4375.54688c.79687.10937 1.10937.45312 1.10937 1.8125v22.98437c0 .90625-.10937 1.46875-.40625 1.8125-.25.35938-.65625.45313-1.15625.5l-3.98437.35938Zm0 0"/><path id="d" d="M1.96875-15.82812c0 9.48437 2.76563 16.375 10.57813 16.375s10.64062-6.89063 10.64062-16.375c0-9.46875-2.82812-16.375-10.64062-16.375s-10.57813 6.90624-10.57813 16.375m4.78125 0c0-7.70313 1.3125-14.70313 5.79688-14.70313s5.79687 7 5.79687 14.70313c0 7.71875-1.3125 14.71875-5.79687 14.71875S6.75-8.10937 6.75-15.82812m0 0"/><path id="e" d="M1.96875-15.82812c0 9.48437 2.76563 16.375 10.57813 16.375s10.64062-6.89063 10.64062-16.375c0-9.46875-2.82812-16.375-10.64062-16.375s-10.57813 6.90624-10.57813 16.375m4.78125 0c0-7.70313 1.3125-14.70313 5.79688-14.70313s5.79687 7 5.79687 14.70313c0 7.71875-1.3125 14.71875-5.79687 14.71875S6.75-8.10937 6.75-15.82812m0 0"/><path id="f" d="M5.14063 0h15.5625v-1.35937l-3.96876-.35938c-1.01562-.09375-1.5625-.45312-1.5625-2.3125v-27.92187l-.25-.25-9.78124 1.67187v1.15625l4.4375.54688c.79687.10937 1.10937.45312 1.10937 1.8125v22.98437c0 1.85938-.45312 2.21875-1.5625 2.3125l-3.98437.35938Zm0 0"/><path id="g" d="m1.26563-.45312.5.45312h19.59374l1.625-6.25-1.3125-.25c-1.01562 2.5625-1.96874 2.92188-3.89062 2.92188H5.6875c.76563-2.46875 3.57813-5.84375 7.96875-9.01563 4.53125-3.32812 8.0625-5.45312 8.0625-10.73437 0-6.60938-4.39062-8.875-9.375-8.875-6.5 0-9.82812 3.9375-9.82812 6.40624 0 1.60938 1.8125 2.35938 2.625 2.35938.85937 0 1.15625-.5 1.35937-1.29687.75-3.23438 2.625-5.79688 5.54688-5.79688 3.625 0 4.6875 3.01563 4.6875 6.5 0 5.07813-2.57813 7.95313-6.70313 11.57813-5.84375 5.09375-7.85937 8.32812-8.76562 12m0 0"/><path id="h" d="M1.26563-4.84375c0 2.01563 3.26562 5.39063 9.96875 5.39063 6.85937 0 11.1875-3.46875 11.1875-9.51563 0-6.34375-5.4375-8.21875-8.0625-8.46875v-.20312c2.57812-.40626 6.65625-2.3125 6.65625-7 0-5.23438-4.07813-7.5625-9.17188-7.5625-6.25 0-9.32812 3.625-9.32812 5.64062 0 1.46875 1.67187 2.28125 2.32812 2.28125.59375 0 .95313-.35937 1.15625-.96875 1.0625-3.21875 2.8125-5.28125 5.48438-5.28125 3.73437 0 4.6875 3.26563 4.6875 5.9375 0 2.82813-1 6.40625-5.03126 6.40625-2.26562 0-3.57812-.45312-4.14062-.45312-.59375 0-.85937.45312-.85937 1.3125 0 .79687.26562 1.29687.85937 1.29687.5625 0 1.875-.45312 4.14063-.45312 4.03125 0 6.29687 3.64062 6.29687 7.76562 0 5.64063-2.78125 7.60938-6.15625 7.60938-3.125 0-5.1875-2.3125-6.09375-4.98438C4.89063-7 4.4375-7.45312 3.78125-7.45312c-.85937 0-2.51562.90625-2.51562 2.60937m0 0"/><path id="j" d="m7.03125-31.48437.54688.90624 4.57812-2.57812c.54688-.3125 1.04688-.59375 1.40625-.59375.35938 0 .85938.28125 1.40625.59375l4.57813 2.57813.54687-.90626-4.9375-4.84374c-.54687-.5-1.09375-1-1.59375-1s-1 .45312-1.59375 1ZM-1.21875 0h9.39063v-1.21875L5.9375-1.45312c-1.26562-.14063-1.45312-.59375-1.07812-1.71875.71875-2.54688 1.57812-5.17188 2.57812-8.21875h9.57813L19.875-3.21875c.40625 1.21875.21875 1.67188-1.14062 1.8125l-1.95313.1875V0h10.9375v-1.21875c-2.5-.23437-2.95312-.375-3.71875-2.59375l-9.03125-25.67187h-3.17187L7.34375-16.875c-1.3125 3.71875-3.125 8.79688-4.625 12.70313-.90625 2.3125-1.26562 2.8125-3.9375 2.95312Zm9.25-13.01562c1.35938-4.26563 2.85938-8.4375 4.125-12.20313h.14063l4.21875 12.20313Zm0 0"/><path id="k" d="M1.76563 4.07813c0 4.3125 4.3125 6.21875 9.25 6.21875 2.54687 0 5.21875-.5 7.26562-1.71875 1.95313-1.1875 3.40625-3.21875 3.40625-5.85938C21.6875-1.90625 18-3.5 13.42188-3.5h-3.39063c-3.09375 0-3.54687-1.03125-3.54687-1.85937 0-1.21875 1.64062-1.89063 2.17187-2.07813.82813.09375 1.73438.14063 2.1875.14063 4.03125 0 8.60938-1.78125 8.60938-6.95313 0-1.76562-.57813-3.26562-1.3125-3.98437l3.40624-.54688.85938-2.67187-.35937-.35938-5.45313 1.71875c-1.17187-.8125-3.57812-1.3125-5.53125-1.3125-6.53125 0-8.79687 3.98438-8.79687 7.15625 0 4 2.64062 5.85938 4.57812 6.35938v.09375c-2.3125.90625-3.89062 2.125-3.89062 3.8125C2.95313-2.5 4.67188-.90625 6.71875-.6875v.09375C4.90625 0 1.76563 1 1.76563 4.07813m4.07812-.17188c0-1.45312.42188-2.54687 1.32813-3.21875.95312-.73437 2.35937-1 4.39062-1 3.76563 0 6.53125.95313 6.53125 4.125 0 3.40625-3.07812 5.03125-6.125 5.03125-3.625 0-6.125-1.85937-6.125-4.9375M6.625-14.25c0-4.21875 2.17188-5.65625 4.4375-5.65625 2.09375 0 4.26563 1.53125 4.26563 5.65625 0 3.59375-1.8125 5.45313-4.3125 5.45313C8.625-8.79687 6.625-10.65625 6.625-14.25m0 0"/><path id="l" d="M2.09375-10.29687C2.09375-3.53125 4.98438.5 11.92188.5c4.71875 0 7.17187-2.625 8.3125-5.98437l-1.28126-.6875c-1.17187 2.5-2.8125 4.5-6.15624 4.5-5.3125 0-6.35938-5.09375-6.26563-9.53125h12.29688c.90624 0 1.67187-.23438 1.67187-1.64063 0-2.48437-.8125-8.5625-8.60937-8.5625-6.67188 0-9.79688 4.71875-9.79688 11.10938m4.48438-2.54688c0-1.76562.64062-7.0625 5.07812-7.0625 3.95313 0 4.40625 4.03125 4.40625 5.70313 0 .82812-.28125 1.35937-1.45312 1.35937Zm0 0"/><path id="m" d="M2.57813-12.65625c0 9.60938 2.35937 20.82813 11.39062 21.1875V7.25c-3.03125-.57812-7.79687-4.98437-7.79687-19.90625 0-14.82812 4.53125-19.23437 7.79687-19.90625v-1.28125c-9.03125.375-11.39062 11.57813-11.39062 21.1875m0 0"/><path id="n" d="M1.35938 0H11.75v-1.21875c-3.04687-.23437-3.17187-.32812-3.17187-2.5v-9.98437c0-1.07813.04687-1.625.40625-2.3125.90625-1.67188 2.8125-3.07813 5.07812-3.07813 2.90625 0 4.48438 1.57813 4.48438 5.29688v10.07812c0 2.17188-.125 2.26563-3.21876 2.5V0h10.4375v-1.21875c-3.04687-.23437-3.21874-.32812-3.21874-2.5v-10.89062c0-4.3125-2.35938-6.79688-6.26563-6.79688-3.17187 0-5.125 1.53125-7.75 3.26563l-.59375-3.26563-6.34375 1.07813v1.04687l1.57813.23438c1.09375.17187 1.40625.35937 1.40625 1.90624v13.42188c0 2.17188-.14063 2.26563-3.21875 2.5Zm0 0"/><path id="o" d="M2.09375-5.53125C2.09375-2.35937 4.21875.5 8.20313.5c2.5 0 5-1.64062 6.35937-2.54687C15.15625-.45312 15.875.5 17.375.5c1.57813 0 3.40625-.45312 5.03125-1.26562l-.26562-1c-.59376.125-1.54688.17187-2.1875 0-.76563-.1875-1.48438-.95313-1.48438-3.625v-10.34375c0-2.5-.54687-5.67188-7-5.67188-4.79687 0-8.60937 2.48438-8.60937 4.84375 0 1.35938 1.57812 2 2.40625 2 .90625 0 1.125-.45312 1.35937-1.17187.95313-3.1875 2.67188-4.17188 4.39063-4.17188 1.6875 0 3.59375.85938 3.59375 4.25v1.78125c-1.09375 1.07813-5.21875 2.17188-8.57813 3.26563-3.07812.95312-3.9375 3.07812-3.9375 5.07812M6.39063-6.125c0-2 .90625-3.03125 3.3125-3.9375 1.73437-.64062 3.95312-1.45312 4.90625-2.04687v6.03125c0 3.45312-2.64063 4.3125-4.3125 4.3125-2.625 0-3.90625-1.85938-3.90625-4.35938m0 0"/><path id="p" d="m8.57813-23.95312.625.85937 6.45312-3.57812c1.26563-.6875 2.39063-1.40626 2.39063-2.3125 0-.85938-1.03126-1.85938-1.67188-1.85938-.71875 0-1.45312.45313-2.71875 1.76563ZM2.09375-10.29688C2.09375-3.53124 4.98438.5 11.92188.5c4.71875 0 7.17187-2.625 8.3125-5.98437l-1.28126-.6875c-1.17187 2.5-2.8125 4.5-6.15624 4.5-5.3125 0-6.35938-5.09375-6.26563-9.53125h12.29688c.90624 0 1.67187-.23438 1.67187-1.64063 0-2.48437-.8125-8.5625-8.60937-8.5625-6.67188 0-9.79688 4.71875-9.79688 11.10938m4.48438-2.54687c0-1.76562.64062-7.0625 5.07812-7.0625 3.95313 0 4.40625 4.03125 4.40625 5.70313 0 .82812-.28125 1.35937-1.45312 1.35937Zm0 0"/><path id="q" d="m2-7.125.45313 5.57813C3.98438-.1875 6.57813.5 9.07813.5c5.07812 0 7.98437-2.67187 7.98437-6.3125 0-3.76562-2.32812-5.4375-6.71875-6.79687-1.76562-.54688-4.53125-1.45313-4.53125-3.85938 0-2.21875 1.67188-3.4375 3.79688-3.4375 3.04687 0 4.5 2.35938 4.8125 4.9375h1.23437v-4.98437C14.25-21 12.0625-21.40625 10.15625-21.40625c-4.625 0-7.75 2.17188-7.75 6.20313 0 3.54687 2.90625 5.14062 6.4375 6.21875 1.90625.59375 4.57813 1.54687 4.57813 4.45312C13.42188-2.35937 11.75-1 9.48438-1 6.03125-1 4.07813-3.5 3.21875-7.125Zm0 0"/><path id="r" d="M13.10938-12.65625c0-9.60937-2.35938-20.8125-11.39063-21.1875v1.28125c3.26563.67188 7.8125 5.07813 7.8125 19.90625 0 14.92188-4.76562 19.32813-7.8125 19.90625v1.28125C10.75 8.17188 13.10938-3.04687 13.10938-12.65625m0 0"/><path id="s" d="M0-1.5v-10.10937h-1.21875c-.23437 2.76562-.375 3.8125-2.14062 4.07812-1.40625.23438-3.03125.28125-5.29688.28125h-17.01562v-.09375C-17.09376-13.42187-8.57813-19.45312 0-25.48437v-2.8125h-20.85937c-2.28126 0-3.85938-.09376-5.26563-.32813-1.76562-.26562-1.95312-1.26562-2.14062-3.48437h-1.21876V-22h1.21876c.23437-2.76562.375-3.76562 2.14062-4.03125 1.40625-.23437 2.98438-.32812 5.26563-.32812h14.96874l-.09375.09374c-7.84374 5.57813-15.65624 11.15626-23.5 16.65626v8.15625h1.21876c.28124-3.76563.32812-3.85938 2.73437-3.85938h16.875c2.26563 0 3.89063.09375 5.29688.32813C-1.59375-4.71875-1.40625-3.71875-1.21875-1.5Zm0 0"/><path id="t" d="M-10.4375-2.09375C-3.53125-2.09375.5-5.48437.5-12.34375c0-6.84375-4.03125-10.20312-10.9375-10.20312-6.89062 0-10.96875 3.35937-10.96875 10.20312 0 6.85938 4.07813 10.25 10.96875 10.25m0-4.4375c-5.89062 0-9.46875-1.90625-9.46875-5.8125 0-3.89062 3.57813-5.79687 9.46875-5.79687 5.90625 0 9.4375 1.90624 9.4375 5.79687 0 3.90625-3.53125 5.8125-9.4375 5.8125m0 0"/><path id="u" d="M0-1.35937V-11.75h-1.21875c-.23437 3.04688-.32812 3.17188-2.5 3.17188h-9.98437c-1.07813 0-1.67188 0-2.26563-.3125-1.71875-.8125-3.125-2.67188-3.125-5.03125 0-3.67188 2.67188-4.125 5.29688-4.125h10.07812c2.17188 0 2.26563.125 2.5 3.21874H0v-10.39062h-1.21875c-.23437 3.03125-.32812 3.17188-2.5 3.17188h-9.98437c-1.07813 0-1.625-.04688-2.3125-.3125-1.71876-.64063-3.07813-2.45313-3.07813-4.85938 0-2.67187 1.5-4.3125 5.29688-4.3125h10.07812c2.17188 0 2.26563.14063 2.5 3.23438H0v-10.4375h-1.21875c-.23437 3.03124-.32812 3.21874-2.5 3.21874h-10.89062c-4.3125 0-6.79688 2.3125-6.79688 6.34376 0 3.5 2.3125 6 3.26563 7.48437-2 1.04688-3.26563 2.6875-3.26563 5.67188 0 3.26562 2.17188 5.95312 3.26563 7.4375l-3.26563.40625 1.07813 6.57812h1.04687l.23438-1.57812c.17187-1.09375.35937-1.40625 1.90624-1.40625h13.42188c2.17188 0 2.26563.14062 2.5 3.21875Zm0 0"/><path id="v" d="M-29.48437-.85937-29.34375-2.5c.125-1.07812.35938-1.35937 1.98438-1.35937H.1875L.5-4.625l-1.64062-1.6875C-.26562-7.79687.5-9.60937.5-12.79687c0-5.67188-2.71875-10.60938-11.4375-10.60938-2.625 0-10.46875.54688-10.46875 8.20313 0 3.23437 2.07813 5.76562 3.03125 7.35937h-13.01562l-.21876.3125 1.03126 6.67188ZM-6.9375-7.84375h-6.76562c-1.07813 0-1.71875-.04687-2.40625-.40625-2.03126-1.04687-2.98438-2.8125-2.98438-5.21875 0-1.76562 1-5.48437 8.4375-5.48437 6.25 0 9.65625 1.89062 9.65625 6.10937 0 2.28125-1.125 3.90625-3.26562 4.67188-.76563.28125-1.625.32812-2.67188.32812m0 0"/><path id="w" d="M0-1.35937v-11.25h-1.21875c-.23437 3.8125-.32812 4.03125-2.5 4.03125h-9.98437c-3.26563 0-4.39063-1.45313-4.39063-2.4375 0-.6875.26563-1.40625.95313-2.64063.17187-.3125.21874-.625.21874-.85937 0-1.04688-1.07812-1.95313-2.40624-1.95313-.95313 0-2.07813.59375-2.07813 2.26563 0 1.54687.90625 2.8125 3.40625 5.625l-3.40625.5 1.07813 6.48437h1.04687l.23438-1.57812c.17187-1.09375.35937-1.40625 1.90624-1.40625h13.42188c2.17188 0 2.26563.21875 2.5 3.21875Zm0 0"/><path id="x" d="M-10.29687-2.09375C-3.53125-2.09375.5-4.98437.5-11.92187c0-4.71875-2.625-7.17188-5.98437-8.3125l-.6875 1.28124c2.5 1.17188 4.5 2.8125 4.5 6.15626 0 5.3125-5.09375 6.35937-9.53125 6.26562v-12.29687c0-.90626-.23438-1.67188-1.64063-1.67188-2.48437 0-8.5625.8125-8.5625 8.60938 0 6.67187 4.71875 9.79687 11.10938 9.79687m-2.54688-4.48437c-1.76562 0-7.0625-.64063-7.0625-5.07813 0-3.95312 4.03125-4.40625 5.70313-4.40625.82812 0 1.35937.28125 1.35937 1.45313Zm0 0"/><path id="y" d="M-10.03125-2.09375C-3.71875-2.09375.5-5.39062.5-11.01562c0-2.3125-1.04687-4.26563-2.90625-6.57813H-.3125l.3125-.375v-6.89062h-1.21875c-.23437 3.04687-.32812 3.17187-2.5 3.17187h-27.67187l-.21876.32813 1.03126 6.70312h1.09374l.14063-1.625c.125-1.09375.35938-1.35937 1.98438-1.35937h7C-21-16.46876-21.40625-14.875-21.40625-12.92188c0 3.48438 1.125 6.125 2.9375 7.89063 1.90625 1.8125 4.71875 2.9375 8.4375 2.9375m-.48437-4.4375c-5.54688 0-9.39063-2-9.39063-6.34375 0-2 .90625-3.64062 2.67188-4.40625.71874-.35937 1.35937-.35937 2.5-.35937H-7.25c.9375 0 1.67188 0 2.39063.26562 2.23437.85938 3.09375 2.71875 3.09375 4.95313 0 3.89062-3.85938 5.89062-8.75 5.89062m0 0"/><path id="z" d="M-10.25-2.09375c7.125 0 10.75-3.48437 10.75-9.875 0-3-1.54687-7.03125-6.125-8.21875l-.59375 1.26563c3 1.32812 4.5 3 4.5 6.125 0 5.07812-5.3125 6.26562-9.29687 6.26562-6.35938 0-8.89063-2.5-8.89063-5.4375 0-1.95312 1.40625-3.1875 3.71875-4.04687.67188-.26563 1.07813-.54688 1.07813-1.35938 0-.85937-.54688-2.5-2.17188-2.5-1.95312 0-4.125 2.8125-4.125 7.45313 0 7.75 5.48438 10.32812 11.15625 10.32812m0 0"/><path id="A" d="m-19.28125-1.09375.23438-1.625c.17187-1.09375.35937-1.35937 1.90624-1.35937h11.25C-1-4.07812.5-6.98437.5-10.15625c0-3.64062-2.45312-6.57812-3.04687-7.8125L0-18.375v-6.84375h-1.21875C-1.45312-22.26562-1.54687-22-3.71875-22h-17.42187l-.26563.3125 1.07813 6.67188h1.04687l.23438-1.625C-18.875-17.73438-18.6875-18-17.14063-18h9.60938c1.1875 0 2.14063.125 2.54688.35938 1.9375 1 3.21875 2.98437 3.21875 5.21874 0 2.48438-1.59375 4.29688-4.90625 4.29688h-14.46875l-.26563.32813 1.07813 6.70312Zm0 0"/><path id="B" d="m-7.125-2 5.57813-.45312C-.1875-3.98437.5-6.57812.5-9.07812c0-5.07813-2.67187-7.98438-6.3125-7.98438-3.76562 0-5.4375 2.32813-6.79687 6.71875-.54688 1.76563-1.45313 4.53125-3.85938 4.53125-2.21875 0-3.4375-1.67187-3.4375-3.79687 0-3.04688 2.35938-4.5 4.9375-4.8125v-1.23438h-4.98437c-1.04688 1.40625-1.45313 3.59375-1.45313 5.5 0 4.625 2.17188 7.75 6.20313 7.75 3.54687 0 5.14062-2.90625 6.21875-6.4375.59375-1.90625 1.54687-4.57812 4.45312-4.57812C-2.35937-13.42187-1-11.75-1-9.48437c0 3.45312-2.5 5.40625-6.125 6.26562Zm0 0"/><path id="C" d="M-27.89062-3.90625c1.53124 0 2.625-1.07812 2.625-2.625 0-1.54687-1.09376-2.59375-2.625-2.59375-1.54688 0-2.59376 1.04688-2.59376 2.59375 0 1.54688 1.04688 2.625 2.59376 2.625M0-1.35937V-11.75h-1.21875c-.23437 3.04688-.32812 3.17188-2.5 3.17188h-17.42187l-.26563.32812 1.07813 6.65625h1.04687l.23438-1.57812c.17187-1.09375.35937-1.40625 1.90624-1.40625h13.42188c2.17188 0 2.26563.14062 2.5 3.21875Zm0 0"/><path id="D" d="M0-1.35937V-11.75h-1.21875c-.23437 3.04688-.32812 3.17188-2.5 3.17188h-9.98437c-1.07813 0-1.625-.04688-2.3125-.40625-1.67188-.90625-3.07813-2.8125-3.07813-5.07813 0-2.90625 1.57813-4.48437 5.29688-4.48437h10.07812c2.17188 0 2.26563.125 2.5 3.21874H0v-10.4375h-1.21875c-.23437 3.04688-.32812 3.21876-2.5 3.21876h-10.89062c-4.3125 0-6.79688 2.35937-6.79688 6.26562 0 3.17188 1.53125 5.125 3.26563 7.75l-3.26563.59375 1.07813 6.34375h1.04687l.23438-1.57812c.17187-1.09375.35937-1.40625 1.90624-1.40625h13.42188c2.17188 0 2.26563.14062 2.5 3.21875Zm0 0"/><path id="E" d="M.64063-3.90625v-2.85937l-30.79688-8.96875v2.85937Zm0 0"/><clipPath id="i"><path d="M280.16016 377.10938h680.30859v555.5703h-680.3086Zm0 0"/></clipPath></defs><path fill="#FFF" d="M280.16016 932.67969h680.30859V377.10937h-680.3086Zm0 0"/><path fill="none" stroke="#7F7F7F" stroke-miterlimit="10" stroke-width=".44792" d="M336.85547 954.1836v-21.50391m283.45701 21.5039v-21.5039m283.46092 21.5039v-21.5039M336.85547 355.6055v21.5039m283.45701-21.5039v21.5039m283.46092-21.5039v21.5039M280.16016 932.67969h21.5039m-21.5039-185.1914h21.5039m-21.5039-185.18749h21.5039m-21.5039-185.1914h21.5039m658.80465 555.5703h-21.5039m21.5039-185.1914h-21.5039m21.5039-185.18749h-21.5039m21.5039-185.1914h-21.5039"/><path fill="none" stroke="#000" stroke-miterlimit="10" stroke-width=".89585" d="M280.16016 932.67969V377.1094h680.30855v555.57028Zm0 0"/><use xlink:href="#a" x="324.30596" y="1004.18789"/><use xlink:href="#b" x="607.7626" y="1004.18789"/><use xlink:href="#c" x="878.67063" y="1004.18789"/><use xlink:href="#d" x="903.76592" y="1004.18789"/><use xlink:href="#e" x="237.26146" y="948.50369"/><use xlink:href="#f" x="237.26146" y="763.59257"/><use xlink:href="#g" x="237.26146" y="578.40495"/><use xlink:href="#h" x="237.26146" y="392.94081"/><g clip-path="url(#i)"><path fill="#7FBFBF" stroke="#007F7F" stroke-miterlimit="10" stroke-width=".89585" d="M412.4453 377.1094H261.26564v555.5703h151.17968Zm283.45703 370.3789H544.72655v185.1914h151.17577Zm283.46092-185.1875H828.18357v370.3789h151.17968Zm0 0"/></g><use xlink:href="#j" x="821.04186" y="1063.39703"/><use xlink:href="#k" x="848.07223" y="1063.39703"/><use xlink:href="#l" x="870.20447" y="1063.39703"/><use xlink:href="#m" x="901.67943" y="1063.39703"/><use xlink:href="#l" x="917.37155" y="1063.39703"/><use xlink:href="#n" x="939.27703" y="1063.39703"/><use xlink:href="#o" x="975.19658" y="1063.39703"/><use xlink:href="#n" x="997.46488" y="1063.39703"/><use xlink:href="#n" x="1023.81495" y="1063.39703"/><use xlink:href="#p" x="1050.16502" y="1063.39703"/><use xlink:href="#l" x="1072.0705" y="1063.39703"/><use xlink:href="#q" x="1093.97598" y="1063.39703"/><use xlink:href="#r" x="1112.52534" y="1063.39703"/><use xlink:href="#s" x="48.40726" y="598.09112"/><use xlink:href="#t" x="48.40726" y="566.11729"/><use xlink:href="#u" x="48.40726" y="541.53598"/><use xlink:href="#v" x="48.40726" y="502.21496"/><use xlink:href="#w" x="48.40726" y="476.7266"/><use xlink:href="#x" x="48.40726" y="461.03447"/><use xlink:href="#y" x="48.40726" y="429.55952"/><use xlink:href="#x" x="48.40726" y="404.07115"/><use xlink:href="#z" x="48.40726" y="372.5962"/><use xlink:href="#t" x="48.40726" y="351.46172"/><use xlink:href="#A" x="48.40726" y="326.88041"/><use xlink:href="#B" x="48.40726" y="301.07458"/><use xlink:href="#C" x="48.40726" y="282.52522"/><use xlink:href="#D" x="48.40726" y="270.14386"/><use xlink:href="#B" x="48.40726" y="243.79379"/><use xlink:href="#E" x="48.40726" y="215.67495"/><use xlink:href="#z" x="48.40726" y="186.513"/><use xlink:href="#t" x="48.40726" y="165.37852"/><use xlink:href="#A" x="48.40726" y="140.79721"/><use xlink:href="#B" x="48.40726" y="114.99138"/><use xlink:href="#C" x="48.40726" y="96.44202"/><use xlink:href="#D" x="48.40726" y="84.06066"/><use xlink:href="#x" x="48.40726" y="57.71059"/><use xlink:href="#B" x="48.40726" y="35.80511"/></svg>