<svg xmlns="http://www.w3.org/2000/svg" xmlns:xlink="http://www.w3.org/1999/xlink" width="223.313pt" height="162.114pt" viewBox="0 0 223.313 162.114"><defs><path id="a" d="M.3125-.10937.4375 0H5.25l.40625-1.53125-.32812-.0625c-.25.625-.48438.71875-.95313.71875H1.40625c.1875-.60937.875-1.4375 1.95313-2.21875 1.10937-.82812 1.98437-1.34375 1.98437-2.64062 0-1.625-1.07812-2.1875-2.3125-2.1875C1.4375-7.92187.625-6.95312.625-6.34375c0 .39063.4375.57813.64063.57813.20312 0 .28124-.125.32812-.3125.1875-.79688.65625-1.4375 1.375-1.4375.89063 0 1.14063.75 1.14063 1.60937 0 1.25-.625 1.95313-1.64063 2.84375C1.03125-1.8125.53125-1.01562.3125-.10937m0 0"/><path id="b" d="M.51563-3.59375c0 2.51563.90625 3.73438 2.65625 3.73438 1.71875 0 2.64062-1.04688 2.64062-2.625 0-1.57813-.96875-2.4375-2.21875-2.4375-.92187 0-1.59375.625-1.90625 1 .01563-2.5625.71875-3.59375 1.76563-3.59375.53125 0 .92187.45312 1.09375 1.125.03125.14062.125.25.29687.25.26563 0 .625-.21875.625-.53125 0-.48438-.57812-1.25-1.96875-1.25C1.64063-7.92187.51563-6.5.51563-3.59375M1.6875-2.75c0-.70312.53125-1.57812 1.51563-1.57812.71875 0 1.4375.67187 1.4375 2.01562 0 1.21875-.46875 2.04688-1.4375 2.04688C2.1875-.26562 1.6875-1.34375 1.6875-2.75m0 0"/><path id="c" d="M1.26563 0h3.82812v-.32812l-.98437-.09375c-.25-.03125-.375-.10938-.375-.5625v-6.875l-.0625-.0625-2.40625.40625v.29687l1.09375.125c.1875.03125.26562.125.26562.45313v5.65625c0 .45312-.10937.53125-.375.5625l-.98437.09375Zm0 0"/><path id="d" d="M.48438-3.89062c0 2.32812.6875 4.03125 2.59375 4.03125 1.92187 0 2.625-1.70313 2.625-4.03125S5-7.92187 3.07813-7.92187c-1.90625 0-2.59375 1.70312-2.59375 4.03125m1.17187 0c0-1.89063.32813-3.625 1.42188-3.625 1.10937 0 1.4375 1.73437 1.4375 3.625 0 1.89062-.32813 3.625-1.4375 3.625-1.09375 0-1.42188-1.73438-1.42188-3.625m0 0"/><path id="e" d="M1.26563 0h3.82812v-.32812l-.98437-.09375c-.25-.03125-.375-.10938-.375-.5625v-6.875l-.0625-.0625-2.40625.40625v.29687l1.09375.125c.1875.03125.26562.125.26562.45313v5.65625c0 .21874-.01562.35937-.09375.4375-.0625.09374-.17187.10937-.28125.125l-.98437.09375Zm0 0"/><path id="f" d="M.3125-.10937.4375 0H5.25l.40625-1.53125-.32812-.0625c-.25.625-.48438.71875-.95313.71875H1.40625c.1875-.60937.875-1.4375 1.95313-2.21875 1.10937-.82812 1.98437-1.34375 1.98437-2.64062 0-1.625-1.07812-2.1875-2.3125-2.1875C1.4375-7.92187.625-6.95312.625-6.34375c0 .39063.4375.57813.64063.57813.20312 0 .28124-.125.32812-.3125.1875-.79688.65625-1.4375 1.375-1.4375.89063 0 1.14063.75 1.14063 1.60937 0 1.25-.625 1.95313-1.64063 2.84375C1.03125-1.8125.53125-1.01562.3125-.10937m0 0"/><path id="g" d="M.3125-1.1875c0 .5.79688 1.32813 2.45313 1.32813 1.6875 0 2.75-.85938 2.75-2.34375 0-1.5625-1.34375-2.01563-1.98438-2.07813v-.0625c.625-.09375 1.64063-.5625 1.64063-1.71875 0-1.28125-1.01563-1.85937-2.26563-1.85937C1.375-7.92187.625-7.03125.625-6.53125c0 .35938.40625.5625.5625.5625s.23438-.09375.28125-.23437c.26563-.79688.70313-1.3125 1.35938-1.3125.90625 0 1.15625.8125 1.15625 1.46875 0 .6875-.25 1.57812-1.25 1.57812-.54688 0-.875-.10937-1.01563-.10937-.14062 0-.20312.10937-.20312.3125 0 .20312.0625.32812.20312.32812.14063 0 .46875-.10937 1.01563-.10937 1 0 1.54687.89062 1.54687 1.90625 0 1.39062-.67187 1.875-1.5 1.875C2-.26562 1.5-.84375 1.28125-1.5c-.07812-.21875-.1875-.32812-.35937-.32812-.20313 0-.60938.21874-.60938.64062m0 0"/><path id="h" d="m.95313-4.29687.07812.125.625-.34375c.07813-.04688.14063-.09375.1875-.09375.0625 0 .125.04687.20313.09375l.625.34375.0625-.125-.67188-.65625c-.0625-.07813-.14062-.14063-.21875-.14063-.0625 0-.125.0625-.20312.14063ZM-.17187 0h1.28125v-.17187L.8125-.20313C.64063-.21874.60938-.28124.65625-.4375c.10938-.34375.21875-.70312.35938-1.10937H2.3125L2.70313-.4375c.0625.17188.03125.23438-.14063.25l-.26562.01563V0h1.48437v-.17187C3.4375-.20313 3.375-.21875 3.26563-.51562l-1.21875-3.5h-.4375L1-2.29687c-.17187.5-.42187 1.20312-.625 1.73437-.125.3125-.17187.375-.54687.39063Zm1.26562-1.78125c.1875-.57812.39063-1.14062.5625-1.65625h.01563L2.25-1.78125Zm0 0"/><path id="i" d="M.23438.5625c0 .57813.59375.84375 1.26562.84375.34375 0 .71875-.0625 1-.23437.26563-.15626.45313-.4375.45313-.79688 0-.64062-.5-.84375-1.125-.84375H1.375c-.42187 0-.48437-.15625-.48437-.26562 0-.15626.21874-.25.29687-.28126C1.29688-1 1.42188-1 1.48438-1c.54687 0 1.17187-.23437 1.17187-.9375 0-.25-.07812-.45312-.1875-.54687l.46875-.07813.125-.35937L3-2.96875l-.73437.23438c-.15625-.125-.48438-.1875-.75-.1875C.625-2.92187.3125-2.375.3125-1.9375c0 .54688.35938.79688.625.85938v.01562c-.3125.125-.53125.29688-.53125.51563 0 .20312.23438.42187.51563.45312v.01563C.67188 0 .23438.14063.23438.5625m.5625-.03125c0-.20312.0625-.34375.1875-.4375s.3125-.14062.59375-.14062c.51562 0 .89062.14062.89062.5625 0 .46875-.42187.6875-.82812.6875-.5 0-.84375-.25-.84375-.67188M.90625-1.9375c0-.57812.29688-.78125.60938-.78125.28124 0 .57812.21875.57812.78125 0 .48438-.25.73438-.59375.73438-.32812 0-.59375-.25-.59375-.73438m0 0"/><path id="j" d="M.28125-1.40625C.28125-.48437.6875.0625 1.625.0625c.64063 0 .98438-.35937 1.14063-.8125l-.17188-.09375C2.42188-.5 2.20313-.23437 1.75-.23437c-.73437 0-.875-.6875-.85937-1.29688H2.5625c.125 0 .23438-.03125.23438-.21875 0-.34375-.10938-1.17187-1.17188-1.17187-.90625 0-1.34375.64062-1.34375 1.51562M.89063-1.75c0-.25.09374-.96875.70312-.96875.53125 0 .59375.54688.59375.78125 0 .10938-.03125.1875-.1875.1875Zm0 0"/><path id="k" d="M.35938-1.71875c0 1.29688.3125 2.82813 1.54687 2.875V.98438C1.48438.90625.84375.3125.84375-1.71875s.60938-2.625 1.0625-2.71875v-.17187C.67188-4.5625.35938-3.03125.35938-1.71875m0 0"/><path id="l" d="M.1875 0h1.42188v-.17187C1.1875-.20313 1.17188-.20313 1.17188-.5v-1.375c0-.14062 0-.21875.04687-.3125.125-.21875.39063-.42187.70313-.42187.39062 0 .60937.21875.60937.73437V-.5c0 .29688-.01562.29688-.4375.32813V0h1.42188v-.17187c-.42188-.03126-.4375-.03126-.4375-.32813V-2c0-.57812-.32813-.92187-.85938-.92187-.4375 0-.70312.21875-1.0625.45312l-.07812-.45312-.85938.15625v.14062l.21875.03125c.14063.01563.1875.04688.1875.25V-.5c0 .29688-.01562.29688-.4375.32813Zm0 0"/><path id="m" d="M.28125-.75c0 .42188.29688.8125.84375.8125.32813 0 .67188-.21875.85938-.34375.07812.21875.1875.34375.39062.34375.21875 0 .45313-.0625.6875-.17187l-.04687-.125c-.07813.01562-.20313.01562-.29688 0-.09375-.03126-.20312-.14063-.20312-.5v-1.40625c0-.34375-.07813-.78125-.95313-.78125-.65625 0-1.17187.34375-1.17187.65625 0 .1875.21875.28125.32812.28125.125 0 .15625-.0625.1875-.15626.125-.4375.35938-.57812.59375-.57812s.5.125.5.57813v.25c-.15625.14062-.71875.29687-1.17187.4375C.40625-1.3125.28124-1.03125.28124-.75M.875-.82812c0-.28126.125-.42188.45313-.54688.23437-.07812.53125-.20312.67187-.28125v.82813c0 .46875-.35937.59375-.59375.59375C1.04688-.23437.875-.5.875-.82812m0 0"/><path id="n" d="m1.17188-3.26562.07812.10937.89063-.48437c.17187-.09375.32812-.1875.32812-.3125s-.15625-.25-.23437-.25c-.09375 0-.20313.0625-.375.23437ZM.28124-1.40625C.28125-.48437.6875.0625 1.625.0625c.64063 0 .98438-.35937 1.14063-.8125l-.17188-.09375C2.42188-.5 2.20313-.23437 1.75-.23437c-.73437 0-.875-.6875-.85937-1.29688H2.5625c.125 0 .23438-.03125.23438-.21875 0-.34375-.10938-1.17187-1.17188-1.17187-.90625 0-1.34375.64062-1.34375 1.51562M.89063-1.75c0-.25.09374-.96875.70312-.96875.53125 0 .59375.54688.59375.78125 0 .10938-.03125.1875-.1875.1875Zm0 0"/><path id="o" d="M1.78125-1.71875c0-1.3125-.3125-2.84375-1.54687-2.89062v.17187c.45312.09375 1.0625.6875 1.0625 2.71875S.65625.90625.23438.98438v.17187c1.23437-.04687 1.54687-1.57812 1.54687-2.875m0 0"/><path id="p" d="M.20313 0h1.375v-.17187c-.375-.03126-.51563-.04688-.54688-.28126C1-.65624.98438-.875.98438-1.1875V-3.5H1C1.82813-2.32812 2.65625-1.17187 3.48438 0h.375v-2.84375c0-.3125.01562-.53125.04687-.71875.03125-.25.17188-.26562.46875-.29687v-.15625H3v.15625c.375.03125.51563.04687.54688.29687.03125.1875.04687.40625.04687.71875v2.04688L3.57813-.8125c-.75-1.07812-1.51563-2.14062-2.26563-3.20312H.20313v.15625c.51562.04687.51562.04687.51562.375v2.29687c0 .3125 0 .53125-.03125.73438C.64063-.21875.5-.1875.20313-.17187Zm0 0"/><path id="q" d="M.28125-1.42187C.28125-.48437.75.0625 1.6875.0625s1.39063-.54687 1.39063-1.48437-.45313-1.5-1.39063-1.5-1.40625.5625-1.40625 1.5m.60938 0c0-.8125.26562-1.29688.79687-1.29688s.78125.48438.78125 1.29688c0 .79687-.25 1.28125-.78125 1.28125S.89063-.625.89063-1.42187m0 0"/><path id="r" d="M.1875 0h1.42188v-.17187C1.1875-.20313 1.17188-.20313 1.17188-.5v-1.375c0-.14062 0-.21875.04687-.29687.10938-.23438.35938-.4375.6875-.4375.5 0 .5625.375.5625.73437V-.5c0 .29688-.03125.29688-.45312.32813V0H3.4375v-.17187C3.03125-.20313 3-.20313 3-.5v-1.375c0-.14062.01563-.21875.04688-.3125.09375-.23437.34375-.42187.67187-.42187.35938 0 .57813.20312.57813.73437V-.5c0 .29688-.01563.29688-.4375.32813V0h1.42187v-.17187C4.875-.20313 4.84375-.20313 4.84375-.5V-2c0-.57812-.3125-.92187-.85937-.92187-.48438 0-.82813.3125-1.03125.45312-.14063-.28125-.35938-.45312-.76563-.45312-.45312 0-.8125.29687-1.01562.45312l-.0625-.45312-.89063.15625v.14062l.21875.03125c.14063.01563.1875.04688.1875.25V-.5c0 .29688-.01562.29688-.4375.32813Zm0 0"/><path id="s" d="M.125-4.01562.34375-4c.14063.01563.1875.04688.1875.26563V.03125L.625.0625l.23438-.21875c.20312.125.45312.21875.89062.21875.76563 0 1.4375-.35937 1.4375-1.54687 0-.35938-.0625-1.4375-1.10937-1.4375-.4375 0-.79688.28125-1 .42187v-1.78125l-.04688-.03125-.90625.14063Zm.95313 3.0625V-1.875c0-.14062 0-.23437.04687-.32812.14063-.26563.39063-.40625.71875-.40625.23438 0 .75.14062.75 1.15625 0 .85937-.26562 1.3125-.84375 1.3125-.3125 0-.53125-.15625-.64062-.4375-.03126-.10938-.03126-.21876-.03126-.375m0 0"/><path id="t" d="M.1875 0h1.53125v-.17187C1.20313-.20313 1.17188-.20313 1.17188-.5v-1.375c0-.4375.20312-.59375.32812-.59375.09375 0 .20313.03125.35938.125.04687.03125.09374.03125.125.03125.14062 0 .26562-.14062.26562-.32812 0-.125-.07812-.28125-.3125-.28125-.21875 0-.39062.125-.76562.46875l-.07813-.46875-.875.15625v.14062l.21875.03125c.14063.01563.1875.04688.1875.25V-.5c0 .29688-.03125.29688-.4375.32813Zm0 0"/><path id="u" d="M.28125-1.375C.28125-.5.73438.0625 1.5.0625c.3125 0 .57813-.14062.90625-.39062v.28125L2.45313 0h.9375v-.17187c-.42188-.03126-.4375-.03126-.4375-.32813v-3.78125l-.03125-.03125L2-4.17187v.15625L2.21875-4c.15625.01563.1875.04688.1875.26563v.95312c-.15625-.07812-.375-.14062-.64062-.14062-.48438 0-.84375.15625-1.07813.40625-.25.25-.40625.64062-.40625 1.14062m.60938-.0625c0-.75.26562-1.28125.85937-1.28125.28125 0 .5.125.60938.375.04687.09375.04687.17188.04687.32813v1.03125c0 .125 0 .21874-.03125.32812-.125.29688-.375.42188-.67187.42188-.54688 0-.8125-.53125-.8125-1.20313m0 0"/><path id="v" d="M.28125-1.39062C.28125-.42187.76563.0625 1.64063.0625c.40625 0 .95312-.20312 1.10937-.82812l-.17187-.07813c-.17188.40625-.40625.60938-.82813.60938-.70312 0-.85937-.71875-.85937-1.26563 0-.875.34375-1.21875.75-1.21875.26562 0 .42187.1875.54687.51563.03125.09375.07813.14062.1875.14062.10938 0 .32813-.07812.32813-.29687 0-.26563-.375-.5625-1-.5625-1.0625 0-1.42188.75-1.42188 1.53125m0 0"/><path id="w" d="m.15625-2.625.21875.03125c.14063.01563.1875.04688.1875.25v1.54688c0 .65625.39063.85937.82813.85937.48437 0 .89062-.32812 1.0625-.40625L2.5 0h.9375v-.17187C3.03125-.20313 3-.20313 3-.5v-2.39062l-.04687-.03125-.90625.15625v.14062l.21875.03125c.15625.01563.1875.04688.1875.25v1.3125c0 .17188-.01563.29688-.04688.34375-.14062.26563-.40625.45313-.70312.45313-.34375 0-.59375-.21875-.59375-.67188v-1.98437l-.04688-.03125-.90625.15625Zm0 0"/><path id="x" d="m.26563-.96875.0625.76563c.21875.17187.5625.26562.90625.26562.70312 0 1.09375-.35937 1.09375-.85937 0-.51563-.3125-.73438-.92188-.92188C1.17188-1.79687.79688-1.92187.79688-2.25c0-.29687.21874-.46875.51562-.46875.40625 0 .60938.32813.65625.67188h.17188v-.67188c-.20313-.14062-.5-.20312-.75-.20312-.64063 0-1.0625.29687-1.0625.84375 0 .48437.39062.70312.875.85937.26562.07813.625.20313.625.59375 0 .29688-.21876.48438-.53125.48438-.46875 0-.73438-.32813-.85938-.82813Zm0 0"/><path id="y" d="M.53125-3.8125c0 .21875.15625.35938.35938.35938S1.25-3.59375 1.25-3.8125c0-.20312-.15625-.34375-.35937-.34375s-.35938.14063-.35938.34375M.1875 0h1.42188v-.17187C1.1875-.20313 1.17188-.20313 1.17188-.5v-2.39062L1.125-2.92187l-.90625.15625v.14062l.21875.03125c.14063.01563.1875.04688.1875.25V-.5c0 .29688-.01562.29688-.4375.32813Zm0 0"/></defs><path fill="none" stroke="#000" stroke-miterlimit="10" stroke-width=".39633" d="M33.48828 137.6289h140.96088m-140.96088 0V18.8438"/><path stroke="#000" stroke-miterlimit="10" stroke-width=".39633" d="M33.48828 15.02735c-.1289.46874-.83984 2.52734-1.61719 3.8164h3.23438c-.77734-1.28906-1.49219-3.34766-1.61719-3.8164Zm0 0"/><path fill="none" stroke="#000" stroke-miterlimit="10" stroke-opacity=".5" stroke-width=".39633" d="M68.72655 130.58203v14.09765m35.24217-14.09765v14.09765m35.24218-14.09765v14.09765"/><use xlink:href="#a" x="65.64397" y="156.96812"/><use xlink:href="#b" x="100.88437" y="156.96812"/><use xlink:href="#c" x="133.04162" y="156.96812"/><use xlink:href="#d" x="139.20966" y="156.96812"/><path fill="none" stroke="#000" stroke-miterlimit="10" stroke-opacity=".5" stroke-width=".39633" d="M40.53515 102.39064H26.4375"/><use xlink:href="#e" x="15.89486" y="106.34678"/><path fill="none" stroke="#000" stroke-miterlimit="10" stroke-opacity=".5" stroke-width=".39633" d="M40.53515 67.14847H26.4375"/><use xlink:href="#f" x="15.89486" y="71.10638"/><path fill="none" stroke="#000" stroke-miterlimit="10" stroke-opacity=".5" stroke-width=".39633" d="M40.53515 31.9063H26.4375"/><use xlink:href="#g" x="15.89486" y="35.79736"/><use xlink:href="#h" x="178.8254" y="139.47573"/><use xlink:href="#i" x="182.51631" y="139.47573"/><use xlink:href="#j" x="185.5384" y="139.47573"/><use xlink:href="#k" x="189.83621" y="139.47573"/><use xlink:href="#j" x="191.97892" y="139.47573"/><use xlink:href="#l" x="194.97004" y="139.47573"/><use xlink:href="#m" x="199.87474" y="139.47573"/><use xlink:href="#l" x="202.91541" y="139.47573"/><use xlink:href="#l" x="206.51343" y="139.47573"/><use xlink:href="#n" x="210.11145" y="139.47573"/><use xlink:href="#j" x="213.10258" y="139.47573"/><use xlink:href="#o" x="216.0937" y="139.47573"/><use xlink:href="#p" x="4.39372" y="8.74819"/><use xlink:href="#q" x="8.75965" y="8.74819"/><use xlink:href="#r" x="12.11615" y="8.74819"/><use xlink:href="#s" x="17.48531" y="8.74819"/><use xlink:href="#t" x="20.96567" y="8.74819"/><use xlink:href="#j" x="23.10838" y="8.74819"/><use xlink:href="#u" x="27.39999" y="8.74819"/><use xlink:href="#j" x="30.88035" y="8.74819"/><use xlink:href="#v" x="35.17815" y="8.74819"/><use xlink:href="#q" x="38.064" y="8.74819"/><use xlink:href="#w" x="41.4205" y="8.74819"/><use xlink:href="#x" x="44.94421" y="8.74819"/><use xlink:href="#y" x="47.47706" y="8.74819"/><use xlink:href="#l" x="49.1677" y="8.74819"/><use xlink:href="#k" x="52.76572" y="8.74819"/><use xlink:href="#j" x="54.90843" y="8.74819"/><use xlink:href="#x" x="57.89955" y="8.74819"/><use xlink:href="#o" x="60.43241" y="8.74819"/><path fill="#7FBFBF" stroke="#000" stroke-miterlimit="10" stroke-width=".39633" d="M51.10546 137.6289V31.9063h35.24217v105.7226Zm0 0"/><path fill="#F57FC5" stroke="#000" stroke-miterlimit="10" stroke-width=".39633" d="M86.34763 137.6289v-35.23826h35.24218v35.23827Zm0 0"/><path fill="#7FD6F7" stroke="#000" stroke-miterlimit="10" stroke-width=".39633" d="M121.5898 137.6289V67.14848h35.24218v70.48044Zm0 0"/></svg>