<svg xmlns="http://www.w3.org/2000/svg" xmlns:xlink="http://www.w3.org/1999/xlink" width="201.43pt" height="130.303pt" viewBox="0 0 201.43 130.303"><defs><path id="a" d="M.5-4.04687C.5-1.625 1.20313.14063 3.20313.14063S5.92188-1.625 5.92188-4.04687s-.71875-4.1875-2.71875-4.1875S.5-6.46875.5-4.04687m1.21875 0c0-1.96875.34375-3.75 1.48438-3.75 1.15625 0 1.48437 1.78125 1.48437 3.75S4.35938-.28125 3.20313-.28125c-1.14063 0-1.48438-1.79687-1.48438-3.76562m0 0"/><path id="b" d="M.48438-1.23437c0 .54687.85937 1.375 2.42187 1.375 2 0 2.90625-1.20313 2.90625-2.73438 0-1.70312-1.0625-2.5625-2.5-2.5625-.67187 0-1.40625.29688-1.79687.64063l.28124-2.29688c.03126-.3125.10938-.34375.34376-.34375h3.01562l.29688-.82812-.07813-.09375H1.34375l-.125.10937-.23437 4.04688.29687.15625c.5-.59375.98438-.875 1.64063-.875.76562 0 1.625.57812 1.625 2.17187 0 1.25-.5 2.1875-1.5625 2.1875-.84375 0-1.26563-.60937-1.51563-1.29687-.0625-.1875-.1875-.29688-.34375-.29688-.25 0-.64062.23438-.64062.64063m0 0"/><path id="c" d="M1.3125 0h3.98438v-.34375L4.28125-.4375C4.01563-.46875 3.875-.54687 3.875-1.03125v-7.125l-.0625-.07812-2.5.4375V-7.5l1.14063.14063c.20312.01562.28125.10937.28125.45312v5.875c0 .48438-.125.5625-.40625.59375L1.3125-.34375Zm0 0"/><path id="d" d="M.32813-.10937.45313 0h5L5.875-1.59375l-.34375-.0625c-.25.65625-.5.73438-.98437.73438H1.45313c.1875-.625.92187-1.48438 2.03125-2.29688 1.15625-.84375 2.0625-1.39062 2.0625-2.75 0-1.67187-1.125-2.26562-2.39063-2.26562C1.5-8.23437.64063-7.21875.64063-6.59375c0 .40625.46875.60938.67187.60938.21875 0 .29688-.125.34375-.34375.20313-.8125.67188-1.46875 1.42188-1.46875.92187 0 1.20312.76562 1.20312 1.65625 0 1.29687-.65625 2.03125-1.71875 2.95312C1.0625-1.875.54688-1.0625.32813-.10937m0 0"/><path id="e" d="M.48438-1.23437c0 .54687.85937 1.375 2.42187 1.375 2 0 2.90625-1.20313 2.90625-2.73438 0-1.70312-1.0625-2.5625-2.5-2.5625-.67187 0-1.39062.28125-1.78125.625l-.01562-.01562.28124-2.26563c.03126-.3125.10938-.34375.34376-.34375h3.01562l.29688-.82812-.07813-.09375H1.34375l-.125.10937-.23437 4.04688.29687.15625c.5-.59375.98438-.875 1.64063-.875.76562 0 1.625.57812 1.625 2.17187 0 1.25-.5 2.1875-1.5625 2.1875-.84375 0-1.26563-.60937-1.51563-1.29687-.0625-.1875-.1875-.29688-.34375-.29688-.25 0-.64062.23438-.64062.64063m0 0"/><path id="f" d="M1.3125 0h3.98438v-.34375L4.28125-.4375C4.01563-.46875 3.875-.54687 3.875-1.03125v-7.125l-.0625-.07812-2.5.4375V-7.5l1.14063.14063c.20312.01562.28125.10937.28125.45312v5.875c0 .23438-.03125.375-.10938.46875-.0625.09375-.17187.10938-.29687.125L1.3125-.34375Zm0 0"/><path id="g" d="M.5-4.04687C.5-1.625 1.20313.14063 3.20313.14063S5.92188-1.625 5.92188-4.04687s-.71875-4.1875-2.71875-4.1875S.5-6.46875.5-4.04687m1.21875 0c0-1.96875.34375-3.75 1.48438-3.75 1.15625 0 1.48437 1.78125 1.48437 3.75S4.35938-.28125 3.20313-.28125c-1.14063 0-1.48438-1.79687-1.48438-3.76562m0 0"/><path id="h" d="M.21875 0h1.42188v-.17187C1.25-.20313 1.10938-.21875 1.0625-.46875c-.03125-.20312-.03125-.4375-.03125-.76562v-2.40625h.01563C1.90625-2.42187 2.76563-1.21875 3.625 0h.39063v-2.96875c0-.3125.01562-.54687.04687-.73437.03125-.25.1875-.28125.5-.3125v-.17188H3.125v.17188c.39063.03125.53125.0625.5625.3125.04688.1875.04688.42187.04688.73437v2.125c-.79688-1.125-1.59375-2.23437-2.375-3.34375H.20313v.17188C.73438-3.96875.75-3.96875.75-3.625v2.39063c0 .32812-.01562.5625-.04687.76562-.03126.25-.17188.26563-.48438.29688Zm0 0"/><path id="i" d="M.29688-1.48437C.29688-.5.78125.07813 1.75.07813S3.20313-.5 3.20313-1.48437c0-.96875-.48438-1.54688-1.45313-1.54688S.29688-2.45312.29688-1.48437m.625 0c0-.82813.28124-1.34375.82812-1.34375s.82813.51562.82813 1.34375c0 .84375-.28125 1.34375-.82813 1.34375-.54687 0-.82812-.5-.82812-1.34375m0 0"/><path id="j" d="M.1875-2.71875H.625V-.625c0 .625.45313.70313.67188.70313.3125 0 .59375-.15625.76562-.26563l-.04687-.14062C1.875-.26562 1.75-.25 1.59375-.25c-.20312 0-.40625-.14062-.40625-.59375v-1.875h.78125v-.25H1.1875v-.76562h-.17187l-.35938.76562H.1875Zm0 0"/><path id="k" d="M.29688-1.46875C.29688-.5.70313.07813 1.6875.07813c.67188 0 1.01563-.375 1.1875-.85938L2.6875-.875c-.15625.35938-.39062.64063-.875.64063-.75 0-.89062-.71875-.89062-1.35938h1.75c.125 0 .23437-.03125.23437-.23437 0-.34375-.10937-1.20313-1.21875-1.20313-.95312 0-1.39062.65625-1.39062 1.5625m.64062-.35937c0-.25.09375-1 .71875-1 .5625 0 .625.57812.625.8125 0 .10937-.04687.1875-.20312.1875Zm0 0"/><path id="l" d="m.28125-1.01562.0625.79687c.21875.1875.59375.29688.9375.29688.73438 0 1.14063-.39063 1.14063-.90625 0-.53125-.32813-.76563-.95313-.96875-.25-.0625-.64062-.20313-.64062-.54688 0-.3125.23437-.48437.53125-.48437.4375 0 .64062.34375.6875.70312h.17187v-.70312c-.20312-.15625-.5-.20313-.78125-.20313-.65625 0-1.09375.29688-1.09375.875 0 .5.40625.73438.90625.875.28125.09375.65625.21875.65625.64063 0 .3125-.23437.5-.5625.5-.48437 0-.76562-.35938-.89062-.875Zm0 0"/><path id="m" d="M.21875 0h3.20313l.0625-1.04687H3.3125c-.14062.73437-.42187.82812-1.17187.82812-.28125 0-.5 0-.64063-.04687-.125-.0625-.14062-.17188-.14062-.46875V-2.0625h.84375c.51562 0 .54687.14063.59375.53125h.17187V-2.8125h-.17187c-.04688.375-.07813.51563-.59375.51563h-.84375v-1.46875c0-.1875.03124-.21875.21874-.21875h.59376c.6875 0 .82812.15625.90625.79687h.1875v-1H.21875v.17188c.53125.04687.54688.04687.54688.39062v3.0625c0 .34375-.01563.34375-.54688.39063Zm0 0"/><path id="n" d="M.1875-2.71875h.46875v2.1875c0 .3125-.03125.32813-.46875.35938V0h1.54688v-.17187C1.25-.20313 1.21875-.21875 1.21875-.51562v-2.20313h1.35938v2.1875c0 .3125-.01563.32813-.45313.35938V0h1.59375v-.17187c-.54687-.03126-.57812-.04688-.57812-.34375v-2.20313H3.875v-.25h-.73437L3.125-3.64062c-.01562-.57813.1875-.64063.28125-.64063.14063 0 .26563.0625.42188.40625.03125.0625.0625.10938.15625.10938.125 0 .29687-.10938.29687-.28125 0-.20313-.25-.4375-.73437-.4375-.3125 0-.57813.125-.73438.32812-.21875-.125-.57812-.23437-.89062-.23437-.32813 0-.78125.14062-.9375.375-.14063.21875-.32813.48437-.32813.89062v.15625H.1875Zm2.48438-.96875c-.03125.14063-.04688.3125-.04688.5v.21875H1.26563v-.29687c0-.6875.3125-.90625.57812-.90625.3125 0 .48438.10937.71875.39062.03125.04688.04688.07813.10938.09375m0 0"/><path id="o" d="M.29688-1.45312c0 1.01562.5 1.53125 1.40625 1.53125.42187 0 1-.21875 1.15625-.875L2.6875-.875c-.1875.42188-.42187.625-.875.625-.71875 0-.89062-.75-.89062-1.3125 0-.90625.35937-1.26562.78125-1.26562.26562 0 .45312.20312.5625.53125.04687.09375.07812.15625.20312.15625s.34375-.07813.34375-.3125c0-.28125-.39062-.57813-1.04687-.57813-1.10938 0-1.46875.76563-1.46875 1.57813m0 0"/><path id="p" d="M.54688-3.95312c0 .21875.15624.375.375.375.21874 0 .375-.15625.375-.375s-.15626-.375-.375-.375c-.21876 0-.375.15625-.375.375M.1875 0h1.48438v-.17187c-.4375-.03126-.45313-.04688-.45313-.35938V-3l-.04687-.03125-.95313.14063v.15625l.23438.03125c.15625.03125.20312.04687.20312.26562v1.90625c0 .3125-.03125.32813-.46875.35938Zm0 0"/><path id="q" d="M.1875-2.71875h.46875v2.1875c0 .3125-.03125.32813-.46875.35938V0h1.60938v-.17187c-.5625-.03126-.57813-.04688-.57813-.34375v-2.20313h.73438v-.25h-.73438l-.03125-.67187c-.01562-.57813.20313-.64063.29688-.64063.125 0 .25.0625.40625.40625.03124.0625.07812.10938.17187.10938.125 0 .29688-.10938.29688-.28125 0-.20313-.26563-.4375-.75-.4375-.32813 0-.60938.14062-.76563.375-.14062.21875-.1875.53125-.1875.92187v.21875H.1875Zm0 0"/></defs><path fill="none" stroke="#000" stroke-miterlimit="10" stroke-width=".39638" d="M29.26172 105.0586h146.61713m-146.61713 0V17.9805"/><path stroke="#000" stroke-miterlimit="10" stroke-width=".39638" d="M29.26172 14.16406c-.1289.46875-.83984 2.52735-1.61719 3.8164h3.23438c-.77735-1.28905-1.4922-3.34765-1.6172-3.8164Zm0 0"/><path fill="none" stroke="#000" stroke-miterlimit="10" stroke-opacity=".5" stroke-width=".39638" d="M65.92186 97.72657v14.66405m36.66404-14.66405v14.66405m36.66015-14.66405v14.66405m36.66405-14.66405v14.66405"/><use xlink:href="#a" x="18.29388" y="125.17244"/><use xlink:href="#b" x="62.72123" y="125.03219"/><use xlink:href="#c" x="96.18225" y="125.17443"/><use xlink:href="#a" x="102.59774" y="125.17443"/><use xlink:href="#c" x="132.8511" y="125.17443"/><use xlink:href="#b" x="139.2666" y="125.17443"/><use xlink:href="#d" x="169.49111" y="125.17244"/><use xlink:href="#a" x="175.90661" y="125.17244"/><path fill="none" stroke="#000" stroke-miterlimit="10" stroke-opacity=".5" stroke-width=".39638" d="M36.58984 68.40236H21.9297"/><use xlink:href="#e" x="10.96209" y="72.37188"/><path fill="none" stroke="#000" stroke-miterlimit="10" stroke-opacity=".5" stroke-width=".39638" d="M36.58984 31.75003H21.9297"/><use xlink:href="#f" x="4.54641" y="35.78061"/><use xlink:href="#g" x="10.96191" y="35.78061"/><use xlink:href="#h" x="180.45845" y="107.11702"/><use xlink:href="#i" x="184.99954" y="107.11702"/><use xlink:href="#j" x="188.4907" y="107.11702"/><use xlink:href="#k" x="190.57123" y="107.11702"/><use xlink:href="#l" x="193.68236" y="107.11702"/><use xlink:href="#m" x="19.5989" y="8.78302"/><use xlink:href="#n" x="23.19312" y="8.78302"/><use xlink:href="#k" x="27.04499" y="8.78302"/><use xlink:href="#o" x="30.15612" y="8.78302"/><use xlink:href="#j" x="33.15775" y="8.78302"/><use xlink:href="#p" x="35.23828" y="8.78302"/><use xlink:href="#q" x="36.99674" y="8.78302"/><path fill="#7fbfbf" stroke="#000" stroke-miterlimit="10" stroke-width=".39638" d="M29.26172 105.0586v-7.33203h36.66014v7.33202Zm36.66014 0V53.7422h36.66405v51.3164Zm0 0"/><path fill="#7fbfbf" stroke="#000" stroke-miterlimit="10" stroke-width=".39638" d="M102.5859 105.0586V39.08205h36.66015v65.97653Zm36.66015 0V46.41017h36.66405v58.64841Zm0 0"/></svg>