<svg xmlns="http://www.w3.org/2000/svg" xmlns:xlink="http://www.w3.org/1999/xlink" width="309.845pt" height="200.437pt" viewBox="0 0 309.845 200.437"><defs><path id="a" d="M.78125-6.23437C.78125-2.5 1.875.21875 4.95313.21875S9.14063-2.5 9.14063-6.23437c0-3.75-1.10938-6.46875-4.1875-6.46875S.78125-9.98437.78125-6.23437m1.875 0c0-3.04688.53125-5.8125 2.29688-5.8125s2.28125 2.76562 2.28125 5.8125c0 3.03125-.51563 5.79687-2.28125 5.79687-1.76563 0-2.29688-2.76562-2.29688-5.79687m0 0"/><path id="b" d="M.75-1.90625c0 .85938 1.3125 2.125 3.73438 2.125 3.09375 0 4.48437-1.875 4.48437-4.23437 0-2.625-1.64062-3.95313-3.85937-3.95313-1.03125 0-2.17188.45313-2.76563 1l.42188-3.54687c.0625-.46875.17187-.53125.53125-.53125h4.65625l.45312-1.28125-.09375-.15625h-6.25l-.17187.1875-.375 6.23437.45312.23438C2.75-6.71875 3.5-7.15625 4.51563-7.15625c1.1875 0 2.5.875 2.5 3.34375 0 1.92188-.78125 3.375-2.40625 3.375-1.3125 0-1.96875-.9375-2.34375-2-.09375-.28125-.28125-.46875-.53125-.46875-.39063 0-.98438.375-.98438 1m0 0"/><path id="c" d="M2.03125 0h6.14063v-.53125L6.59375-.67187c-.39062-.04688-.60937-.1875-.60937-.92188v-11l-.09375-.10937-3.85938.65625v.45312l1.75.21875c.3125.04688.4375.1875.4375.71875v9.0625c0 .73438-.1875.875-.625.92188l-1.5625.14062Zm0 0"/><path id="d" d="M.5-.17187.70313 0h7.71875l.64062-2.46875-.51562-.09375c-.39063 1.01563-.78125 1.15625-1.53125 1.15625H2.25c.29688-.98437 1.40625-2.3125 3.14063-3.5625C7.17188-6.28125 8.5625-7.10937 8.5625-9.20312c0-2.60938-1.71875-3.5-3.6875-3.5-2.5625 0-3.875 1.54687-3.875 2.53125 0 .625.70313.9375 1.03125.9375.32813 0 .45313-.20313.53125-.53125.29688-1.26563 1.03125-2.28125 2.1875-2.28125 1.4375 0 1.84375 1.1875 1.84375 2.5625 0 2.01562-1.01562 3.14062-2.64062 4.57812C1.65625-2.90625.85938-1.625.5-.17187m0 0"/><path id="e" d="M.75-1.90625c0 .85938 1.3125 2.125 3.73438 2.125 3.09375 0 4.48437-1.875 4.48437-4.23437 0-2.625-1.64062-3.95313-3.85937-3.95313-1.03125 0-2.14063.4375-2.75.96875l-.01563-.01562.42188-3.5c.0625-.46875.17187-.53125.53125-.53125h4.65625l.45312-1.28125-.09375-.15625h-6.25l-.17187.1875-.375 6.23437.45312.23438C2.75-6.71875 3.5-7.15625 4.51563-7.15625c1.1875 0 2.5.875 2.5 3.34375 0 1.92188-.78125 3.375-2.40625 3.375-1.3125 0-1.96875-.9375-2.34375-2-.09375-.28125-.28125-.46875-.53125-.46875-.39063 0-.98438.375-.98438 1m0 0"/><path id="f" d="M2.03125 0h6.14063v-.53125L6.59375-.67187c-.39062-.04688-.60937-.1875-.60937-.92188v-11l-.09375-.10937-3.85938.65625v.45312l1.75.21875c.3125.04688.4375.1875.4375.71875v9.0625c0 .35938-.04687.57813-.17187.71875-.09375.14063-.25.17188-.45313.20313l-1.5625.14062Zm0 0"/><path id="g" d="M.78125-6.23437C.78125-2.5 1.875.21875 4.95313.21875S9.14063-2.5 9.14063-6.23437c0-3.75-1.10938-6.46875-4.1875-6.46875S.78125-9.98437.78125-6.23437m1.875 0c0-3.04688.53125-5.8125 2.29688-5.8125s2.28125 2.76562 2.28125 5.8125c0 3.03125-.51563 5.79687-2.28125 5.79687-1.76563 0-2.29688-2.76562-2.29688-5.79687m0 0"/><path id="h" d="M.32813 0h2.21875v-.26562c-.60938-.04688-.84375-.07813-.89063-.46875-.0625-.3125-.0625-.67188-.0625-1.15625V-5.625h.01563C2.9375-3.75 4.26563-1.875 5.57813 0h.625v-4.57812c0-.48438.01562-.84375.0625-1.14063.0625-.39062.28125-.4375.76562-.46875v-.26562H4.8125v.26562c.60938.04688.82813.07813.89063.46875.04687.29688.07812.65625.07812 1.14063v3.28125L5.75-1.3125C4.53125-3.03125 3.3125-4.73437 2.10938-6.45312H.3125v.26562c.82813.0625.84375.0625.84375.59375v3.70313c0 .48437-.01562.84375-.0625 1.15625-.0625.39062-.28125.42187-.76562.46875Zm0 0"/><path id="i" d="M.45313-2.28125c0 1.5.75 2.39063 2.25 2.39063S4.9375-.78125 4.9375-2.28125c0-1.51562-.73437-2.40625-2.23437-2.40625s-2.25.89063-2.25 2.40625m.98437 0c0-1.29687.40625-2.07812 1.26563-2.07812.85937 0 1.26562.78125 1.26562 2.07812 0 1.28125-.40625 2.0625-1.26562 2.0625-.85938 0-1.26563-.78125-1.26563-2.0625m0 0"/><path id="j" d="M.28125-4.20312h.6875v3.25C.96875 0 1.67188.10938 2 .10938c.46875 0 .92188-.23438 1.1875-.40625L3.125-.5c-.23437.09375-.4375.125-.67187.125-.3125 0-.60938-.23437-.60938-.9375v-2.89062h1.20313v-.375H1.84375V-5.75H1.5625L1-4.57812H.28125Zm0 0"/><path id="k" d="M.45313-2.25c0 1.46875.64062 2.35938 2.15625 2.35938 1.03125 0 1.57812-.57813 1.82812-1.3125l-.28125-.14063c-.26562.53125-.625.96875-1.35937.96875-1.15625 0-1.39063-1.10937-1.35938-2.07812H4.125c.20313 0 .35938-.04688.35938-.35938 0-.54687-.17188-1.875-1.875-1.875C1.14063-4.6875.45313-3.65625.45313-2.25m.98437-.5625c0-.39062.14063-1.54687 1.10938-1.54687.875 0 .96875.875.96875 1.25 0 .17187-.0625.29687-.3125.29687Zm0 0"/><path id="l" d="M.4375-1.5625.53125-.34375c.34375.29688.90625.45313 1.45313.45313 1.10937 0 1.75-.59375 1.75-1.375 0-.82813-.5-1.20313-1.46875-1.5-.39063-.10938-1-.3125-1-.84375 0-.48438.375-.75.84375-.75.65625 0 .98437.51562 1.04687 1.07812h.26563V-4.375c-.29688-.21875-.78125-.3125-1.20313-.3125-1 0-1.6875.46875-1.6875 1.35938 0 .78125.625 1.125 1.40625 1.35937.42188.125 1 .34375 1 .96875 0 .48438-.35937.78125-.85937.78125-.75 0-1.1875-.54687-1.375-1.34375Zm0 0"/><path id="m" d="M.32813 0h4.95312l.10938-1.625h-.28125C4.89063-.48437 4.46875-.32812 3.29688-.32812c-.4375 0-.76563-.01563-.96875-.09375C2.125-.5 2.09375-.67187 2.09375-1.125v-2.0625h1.3125c.78125 0 .82813.21875.90625.8125h.28125v-1.96875H4.3125c-.07812.57813-.125.8125-.90625.8125h-1.3125v-2.26562c0-.3125.04688-.34375.34375-.34375h.90625c1.0625 0 1.28125.23437 1.42188 1.21875h.28125v-1.53125H.32813v.26562c.82812.0625.84375.0625.84375.59375v4.73438c0 .51562-.01563.53125-.84375.59375Zm0 0"/><path id="n" d="M.28125-4.20312H1V-.8125c0 .46875-.03125.5-.70312.54688V0h2.375v-.26562c-.75-.04688-.79688-.0625-.79688-.54688v-3.39062h2.09375V-.8125c0 .46875-.01562.5-.6875.54688V0H5.75v-.26562c-.85937-.04688-.89062-.0625-.89062-.54688v-3.39062H6v-.375H4.85938L4.8125-5.625c-.01562-.89062.3125-.98437.45313-.98437.20312 0 .40625.09375.64062.64062.04688.07813.10938.15625.25.15625.1875 0 .46875-.15625.46875-.4375 0-.3125-.40625-.67187-1.15625-.67187-.46875 0-.89062.1875-1.14062.51562-.3125-.21875-.875-.375-1.35938-.375-.5 0-1.20312.21875-1.4375.57813C1.3125-5.875 1-5.45312 1-4.82812v.25H.28125ZM4.10938-5.6875c-.04688.21875-.0625.48438-.0625.78125v.32813H1.95313v-.45313c0-1.0625.46875-1.42187.90625-1.42187.46875 0 .73437.17187 1.07812.625.0625.04687.09375.10937.17188.14062m0 0"/><path id="o" d="M.45313-2.25c0 1.5625.76562 2.35938 2.17187 2.35938.65625 0 1.53125-.34375 1.79688-1.34375l-.28125-.125c-.28125.65625-.65625.98437-1.34375.98437-1.10938 0-1.35938-1.17187-1.35938-2.04687 0-1.39063.54688-1.9375 1.1875-1.9375.42188 0 .6875.3125.89063.8125.04687.14062.10937.23437.29687.23437s.54688-.10937.54688-.46875c0-.4375-.625-.90625-1.64063-.90625-1.6875 0-2.26562 1.20313-2.26562 2.4375m0 0"/><path id="p" d="M.85938-6.10937c0 .32812.23437.57812.57812.57812.32813 0 .5625-.25.5625-.57812 0-.34375-.23437-.5625-.5625-.5625-.34375 0-.57812.21875-.57812.5625M.29688 0h2.28125v-.26562C1.90625-.3125 1.875-.34375 1.875-.8125V-4.625l-.0625-.0625-1.46875.23438v.23437l.35938.04688C.9375-4.14062 1-4.09375 1-3.75v2.9375c0 .46875-.03125.5-.70312.54688Zm0 0"/><path id="q" d="M.28125-4.20312H1V-.8125c0 .46875-.03125.5-.70312.54688V0h2.46875v-.26562C1.90625-.3125 1.875-.32812 1.875-.8125v-3.39062h1.14063v-.375H1.875L1.84375-5.625c-.03125-.89062.29688-.98437.4375-.98437.20313 0 .40625.09375.64063.64062.04687.07813.125.15625.26562.15625.1875 0 .45313-.15625.45313-.4375 0-.3125-.40625-.67187-1.14063-.67187-.51562 0-.95312.21875-1.1875.57812C1.09375-6.01562 1-5.53125 1-4.90625v.32813H.28125Zm0 0"/></defs><path fill="none" stroke="#000" stroke-miterlimit="10" stroke-width=".39738" d="M45.09766 162.01172h226.13671m-226.13671 0V25.2461"/><path stroke="#000" stroke-miterlimit="10" stroke-width=".39738" d="M45.09766 21.41797c-.12891.46875-.84375 2.53516-1.625 3.82812h3.2461c-.78126-1.29296-1.4961-3.35937-1.6211-3.82812Zm0 0"/><path fill="none" stroke="#000" stroke-miterlimit="10" stroke-opacity=".5" stroke-width=".39738" d="M101.6289 150.70703v22.61328m56.53516-22.61328v22.61328m56.53516-22.61328v22.61328m56.53515-22.61328v22.61328"/><use xlink:href="#a" x="28.1805" y="193.03479"/><use xlink:href="#b" x="96.68209" y="192.81641"/><use xlink:href="#c" x="148.26919" y="193.03479"/><use xlink:href="#a" x="158.16418" y="193.03479"/><use xlink:href="#c" x="204.80239" y="193.03479"/><use xlink:href="#b" x="214.69739" y="193.03479"/><use xlink:href="#d" x="261.3366" y="193.03479"/><use xlink:href="#a" x="271.23159" y="193.03479"/><path fill="none" stroke="#000" stroke-miterlimit="10" stroke-opacity=".5" stroke-width=".39738" d="M56.40234 105.47656H33.78906"/><use xlink:href="#e" x="16.87426" y="111.60751"/><path fill="none" stroke="#000" stroke-miterlimit="10" stroke-opacity=".5" stroke-width=".39738" d="M56.40234 48.9414H33.78906"/><use xlink:href="#f" x="6.97905" y="55.182"/><use xlink:href="#g" x="16.87405" y="55.182"/><use xlink:href="#h" x="278.25208" y="165.18601"/><use xlink:href="#i" x="285.25607" y="165.18601"/><use xlink:href="#j" x="290.6407" y="165.18601"/><use xlink:href="#k" x="293.84962" y="165.18601"/><use xlink:href="#l" x="298.64809" y="165.18601"/><use xlink:href="#m" x="30.19385" y="13.54695"/><use xlink:href="#n" x="35.73743" y="13.54695"/><use xlink:href="#k" x="41.6784" y="13.54695"/><use xlink:href="#o" x="46.47688" y="13.54695"/><use xlink:href="#j" x="51.10646" y="13.54695"/><use xlink:href="#p" x="54.31538" y="13.54695"/><use xlink:href="#q" x="57.02756" y="13.54695"/><path fill="#7FBFBF" stroke="#000" stroke-miterlimit="10" stroke-width=".39738" d="M45.09766 162.01172v-11.30469h56.53125v11.30469Zm0 0"/><path fill="#7FBFBF" stroke="#000" stroke-miterlimit="10" stroke-width=".39738" d="M101.6289 162.01172V82.86328h56.53516v79.14844Zm56.53516 0V60.25h56.53516v101.76172Zm56.53516 0V71.55859h56.53515v90.45313Zm0 0"/></svg>