<svg xmlns="http://www.w3.org/2000/svg" xmlns:xlink="http://www.w3.org/1999/xlink" width="1048.095" height="850.753" viewBox="0 0 1048.095 850.753"><defs><path id="a" d="M1.96875-15.82812c0 9.48437 2.76563 16.375 10.57813 16.375s10.64062-6.89063 10.64062-16.375c0-9.46875-2.82812-16.375-10.64062-16.375s-10.57813 6.90624-10.57813 16.375m4.78125 0c0-7.70313 1.3125-14.70313 5.79688-14.70313s5.79687 7 5.79687 14.70313c0 7.71875-1.3125 14.71875-5.79687 14.71875S6.75-8.10937 6.75-15.82812m0 0"/><path id="b" d="M1.92188-4.84375c0 2.17188 3.3125 5.39063 9.46875 5.39063 7.8125 0 11.32812-4.73438 11.32812-10.71875 0-6.65625-4.125-10.03125-9.76562-10.03125-2.625 0-5.4375 1.10937-6.95313 2.46874l-.04687-.04687L7-26.65625c.15625-1.20312.45313-1.35937 1.35938-1.35937h11.79687L21.3125-31.25l-.25-.39062H5.23438l-.45313.45312-.95312 15.8125 1.15625.60938c1.96875-2.26563 3.89062-3.375 6.45312-3.375 3.03125 0 6.34375 2.21874 6.34375 8.46874 0 4.89063-1.95312 8.5625-6.09375 8.5625-3.32812 0-4.98437-2.375-5.9375-5.09374-.25-.70313-.70312-1.15625-1.35937-1.15625-.96875 0-2.46875.95312-2.46875 2.51562m0 0"/><path id="c" d="M5.14063 0h15.5625v-1.35937l-3.96876-.35938c-1.01562-.09375-1.5625-.45312-1.5625-2.3125v-27.92187l-.25-.25-9.78124 1.67187v1.15625l4.4375.54688c.79687.10937 1.10937.45312 1.10937 1.8125v22.98437c0 .90625-.10937 1.46875-.40625 1.8125-.25.35938-.65625.45313-1.15625.5l-3.98437.35938Zm0 0"/><path id="d" d="m1.26563-.45312.5.45312h19.59374l1.625-6.25-1.3125-.25c-1.01562 2.5625-1.96874 2.92188-3.89062 2.92188H5.6875c.76563-2.46875 3.57813-5.84375 7.96875-9.01563 4.53125-3.32812 8.0625-5.45312 8.0625-10.73437 0-6.60938-4.39062-8.875-9.375-8.875-6.5 0-9.82812 3.9375-9.82812 6.40624 0 1.60938 1.8125 2.35938 2.625 2.35938.85937 0 1.15625-.5 1.35937-1.29687.75-3.23438 2.625-5.79688 5.54688-5.79688 3.625 0 4.6875 3.01563 4.6875 6.5 0 5.07813-2.57813 7.95313-6.70313 11.57813-5.84375 5.09375-7.85937 8.32812-8.76562 12m0 0"/><path id="e" d="M1.96875-15.82812c0 9.48437 2.76563 16.375 10.57813 16.375s10.64062-6.89063 10.64062-16.375c0-9.46875-2.82812-16.375-10.64062-16.375s-10.57813 6.90624-10.57813 16.375m4.78125 0c0-7.70313 1.3125-14.70313 5.79688-14.70313s5.79687 7 5.79687 14.70313c0 7.71875-1.3125 14.71875-5.79687 14.71875S6.75-8.10937 6.75-15.82812m0 0"/><path id="f" d="M1.92188-4.84375c0 2.17188 3.3125 5.39063 9.46875 5.39063 7.8125 0 11.32812-4.73438 11.32812-10.71875 0-6.65625-4.125-10.03125-9.76562-10.03125-2.625 0-5.5 1.15624-7 2.51562L7-26.65625c.15625-1.20312.45313-1.35937 1.35938-1.35937h11.79687L21.3125-31.25l-.25-.39062H5.23438l-.45313.45312-.95312 15.8125 1.15625.60938c1.96875-2.26563 3.89062-3.375 6.45312-3.375 3.03125 0 6.34375 2.21874 6.34375 8.46874 0 4.89063-1.95312 8.5625-6.09375 8.5625-3.32812 0-4.98437-2.375-5.9375-5.09374-.25-.70313-.70312-1.15625-1.35937-1.15625-.96875 0-2.46875.95312-2.46875 2.51562m0 0"/><path id="g" d="M5.14063 0h15.5625v-1.35937l-3.96876-.35938c-1.01562-.09375-1.5625-.45312-1.5625-2.3125v-27.92187l-.25-.25-9.78124 1.67187v1.15625l4.4375.54688c.79687.10937 1.10937.45312 1.10937 1.8125v22.98437c0 1.85938-.45312 2.21875-1.5625 2.3125l-3.98437.35938Zm0 0"/><path id="j" d="M1.5 0h10.10938v-1.21875c-2.76563-.23437-3.8125-.375-4.07813-2.14062C7.29688-4.76562 7.25-6.39062 7.25-8.65625v-17.01562h.09375C13.42188-17.09376 19.45313-8.57813 25.48438 0h2.8125v-20.85937c0-2.28126.09374-3.85938.32812-5.26563.26563-1.76562 1.26563-1.95312 3.48438-2.14062v-1.21876H22v1.21876c2.76563.23437 3.76563.375 4.03125 2.14062.23438 1.40625.32813 2.98438.32813 5.26563v14.96874l-.09376-.09375c-5.57812-7.84374-11.15624-15.65624-16.65624-23.5H1.45313v1.21876c3.76562.28124 3.85937.32812 3.85937 2.73437v16.875c0 2.26563-.09375 3.89063-.32812 5.29688C4.71875-1.59375 3.71875-1.40625 1.5-1.21875Zm0 0"/><path id="k" d="M2.09375-10.4375C2.09375-3.53125 5.48438.5 12.34375.5c6.84375 0 10.20313-4.03125 10.20313-10.9375 0-6.89062-3.35938-10.96875-10.20313-10.96875-6.85937 0-10.25 4.07813-10.25 10.96875m4.4375 0c0-5.89062 1.90625-9.46875 5.8125-9.46875 3.89063 0 5.79688 3.57813 5.79688 9.46875C18.14063-4.53125 16.23437-1 12.34375-1c-3.90625 0-5.8125-3.53125-5.8125-9.4375m0 0"/><path id="l" d="M1.3125-19.1875h3.09375v14.82813C4.40625 0 7.625.5 9.125.5c2.17188 0 4.20313-1.09375 5.4375-1.85937l-.3125-.90625c-1.04687.40625-1.95312.54687-3.04687.54687-1.45313 0-2.8125-1.04687-2.8125-4.26562V-19.1875H13.875v-1.71875H8.39063v-5.35937H7.17188l-2.59375 5.35937H1.3125Zm0 0"/><path id="m" d="M2.09375-10.29687C2.09375-3.53125 4.98438.5 11.92188.5c4.71875 0 7.17187-2.625 8.3125-5.98437l-1.28126-.6875c-1.17187 2.5-2.8125 4.5-6.15624 4.5-5.3125 0-6.35938-5.09375-6.26563-9.53125h12.29688c.90624 0 1.67187-.23438 1.67187-1.64063 0-2.48437-.8125-8.5625-8.60937-8.5625-6.67188 0-9.79688 4.71875-9.79688 11.10938m4.48438-2.54688c0-1.76562.64062-7.0625 5.07812-7.0625 3.95313 0 4.40625 4.03125 4.40625 5.70313 0 .82812-.28125 1.35937-1.45312 1.35937Zm0 0"/><path id="n" d="m2-7.125.45313 5.57813C3.98438-.1875 6.57813.5 9.07813.5c5.07812 0 7.98437-2.67187 7.98437-6.3125 0-3.76562-2.32812-5.4375-6.71875-6.79687-1.76562-.54688-4.53125-1.45313-4.53125-3.85938 0-2.21875 1.67188-3.4375 3.79688-3.4375 3.04687 0 4.5 2.35938 4.8125 4.9375h1.23437v-4.98437C14.25-21 12.0625-21.40625 10.15625-21.40625c-4.625 0-7.75 2.17188-7.75 6.20313 0 3.54687 2.90625 5.14062 6.4375 6.21875 1.90625.59375 4.57813 1.54687 4.57813 4.45312C13.42188-2.35937 11.75-1 9.48438-1 6.03125-1 4.07813-3.5 3.21875-7.125Zm0 0"/><path id="o" d="M0-1.5v-22.57812l-7.39062-.5v1.26562c5.21875 1 5.89062 2.90625 5.89062 8.25 0 2-.04687 3.54688-.40625 4.45313S-3.04687-9.57812-5.125-9.57812h-9.4375v-5.9375c0-3.625 1.04688-3.8125 3.71875-4.17188v-1.26562h-8.98437v1.26562c2.64062.35938 3.6875.54688 3.6875 4.17188v5.9375h-10.34376c-1.35937 0-1.54687-.17188-1.54687-1.53125v-4.17188c0-4.85937 1.09375-5.85937 5.53125-6.45312v-1.3125h-6.98437V-1.5h1.21874c.28126-3.76562.32813-3.85937 2.73438-3.85937h21.57813c2.40625 0 2.45312.09375 2.73437 3.85937Zm0 0"/><path id="p" d="M-19.1875-1.26562v-3.3125h15.46875c2.17188 0 2.26563.14062 2.5 3.21875H0v-10.84375h-1.21875c-.1875 3.45312-.28125 3.625-2.45312 3.625H-19.1875v-9.5625h15.46875c2.17188 0 2.26563.09374 2.5 3.17187H0v-11.25h-1.21875C-1.40625-22.3125-1.5-22.1875-3.67187-22.1875H-19.1875v-5.17187h-1.71875v5.17187L-25.67187-22c-4.03126.14063-4.48438-1.35937-4.48438-2.04687 0-.90626.40625-1.8125 2.89063-2.89063.40624-.23437.73437-.5.73437-1.14062 0-.85938-.73437-2.125-2-2.125-1.40625 0-3.07812 1.8125-3.07812 5.20312 0 2.1875.90624 4.14063 2.35937 5.21875-.95312 1.45313-1.73437 4-1.73437 6.21875 0 2.3125 1.04687 5.48438 2.6875 6.57813 1.48437 1 3.4375 2.40625 6.25 2.40625h1.14062v3.3125Zm-6.79687-17.51563c1.03124.23438 2.21874.3125 3.57812.3125h1.5v9.57813H-23c-4.8125 0-6.4375-2.17188-6.4375-4.125 0-2.1875.76563-3.40625 2.8125-4.98438.26563-.23437.54688-.42187.64063-.78125m0 0"/><path id="q" d="M-10.29687-2.09375C-3.53125-2.09375.5-4.98437.5-11.92187c0-4.71875-2.625-7.17188-5.98437-8.3125l-.6875 1.28124c2.5 1.17188 4.5 2.8125 4.5 6.15626 0 5.3125-5.09375 6.35937-9.53125 6.26562v-12.29687c0-.90626-.23438-1.67188-1.64063-1.67188-2.48437 0-8.5625.8125-8.5625 8.60938 0 6.67187 4.71875 9.79687 11.10938 9.79687m-2.54688-4.48437c-1.76562 0-7.0625-.64063-7.0625-5.07813 0-3.95312 4.03125-4.40625 5.70313-4.40625.82812 0 1.35937.28125 1.35937 1.45313Zm0 0"/><path id="r" d="M-10.25-2.09375c7.125 0 10.75-3.48437 10.75-9.875 0-3-1.54687-7.03125-6.125-8.21875l-.59375 1.26563c3 1.32812 4.5 3 4.5 6.125 0 5.07812-5.3125 6.26562-9.29687 6.26562-6.35938 0-8.89063-2.5-8.89063-5.4375 0-1.95312 1.40625-3.1875 3.71875-4.04687.67188-.26563 1.07813-.54688 1.07813-1.35938 0-.85937-.54688-2.5-2.17188-2.5-1.95312 0-4.125 2.8125-4.125 7.45313 0 7.75 5.48438 10.32812 11.15625 10.32812m0 0"/><path id="s" d="M-19.1875-1.3125v-3.09375h14.82813C0-4.40625.5-7.625.5-9.125c0-2.17187-1.09375-4.20312-1.85937-5.4375l-.90625.3125c.40625 1.04688.54687 1.95313.54687 3.04688 0 1.45312-1.04687 2.8125-4.26562 2.8125H-19.1875V-13.875h-1.71875v5.48438h-5.35937v1.21875l5.35937 2.59375v3.26562Zm0 0"/><path id="t" d="M-27.89062-3.90625c1.53124 0 2.625-1.07812 2.625-2.625 0-1.54687-1.09376-2.59375-2.625-2.59375-1.54688 0-2.59376 1.04688-2.59376 2.59375 0 1.54688 1.04688 2.625 2.59376 2.625M0-1.35937V-11.75h-1.21875c-.23437 3.04688-.32812 3.17188-2.5 3.17188h-17.42187l-.26563.32812 1.07813 6.65625h1.04687l.23438-1.57812c.17187-1.09375.35937-1.40625 1.90624-1.40625h13.42188c2.17188 0 2.26563.14062 2.5 3.21875Zm0 0"/><path id="u" d="M-19.1875-1.26562v-3.3125h15.46875c2.17188 0 2.26563.14062 2.5 3.21875H0v-11.25h-1.21875C-1.40625-8.70312-1.5-8.57812-3.67187-8.57812H-19.1875v-5.21875h-1.71875v5.21875l-4.76562.1875C-29.70313-8.25-30.15625-9.75-30.15625-10.4375c0-.90625.40625-1.8125 2.89063-2.89062.40624-.23438.73437-.54688.73437-1.1875 0-.85938-.73437-2.07813-2-2.07813-1.40625 0-3.07812 1.8125-3.07812 5.20313 0 2.35937 1.03124 4.3125 2.67187 5.40625 1.5 1 3.71875 1.40625 6.53125 1.40625h1.5v3.3125Zm0 0"/><clipPath id="h"><path d="M280.08984 210h680.3125v500.09766h-680.3125Zm0 0"/></clipPath><clipPath id="i"><path d="M280.08984 209h680.3125v501.09766h-680.3125Zm0 0"/></clipPath></defs><path fill="#FFF" d="M280.08984 710.09766h680.3125V154.5078h-680.3125Zm0 0"/><path fill="none" stroke="#7F7F7F" stroke-miterlimit="10" stroke-width=".44793" d="M336.78516 731.60156v-21.5039m188.97657 21.5039v-21.5039m188.97267 21.5039v-21.5039m188.97267 21.5039v-21.5039M336.78516 133.00387v21.5039m188.97657-21.5039v21.5039m188.97267-21.5039v21.5039m188.97267-21.5039v21.5039M280.08984 710.09766h21.50781m-21.5078-277.7969h21.5078m-21.5078-277.79298h21.5078m658.80473 555.58988h-21.5039m21.5039-277.7969h-21.5039m21.5039-277.79298h-21.5039"/><path fill="none" stroke="#000" stroke-miterlimit="10" stroke-width=".89585" d="M280.08984 710.09766V154.50778h680.31254v555.58988Zm0 0"/><use xlink:href="#a" x="236.10238" y="781.60466"/><use xlink:href="#b" x="412.37483" y="781.60466"/><use xlink:href="#c" x="588.84811" y="781.60466"/><use xlink:href="#a" x="613.9435" y="781.60466"/><use xlink:href="#c" x="777.81994" y="781.60466"/><use xlink:href="#b" x="802.91533" y="781.60466"/><use xlink:href="#d" x="966.79177" y="781.60466"/><use xlink:href="#a" x="991.88716" y="781.60466"/><use xlink:href="#e" x="237.19494" y="725.92024"/><use xlink:href="#f" x="237.19494" y="447.85334"/><use xlink:href="#g" x="212.09986" y="170.33947"/><use xlink:href="#e" x="237.19525" y="170.33947"/><g clip-path="url(#h)"><path fill="#7FBFBF" d="M431.27344 654.53906H242.30078v55.5586h188.97266ZM620.24609 321.1836H431.27344v388.91407h188.97265Zm188.97266-111.11718H620.24609v500.03125h188.97266ZM998.19531 265.625H809.21875v444.47266h188.97656Zm0 0"/></g><g clip-path="url(#i)"><path fill="none" stroke="#007F7F" stroke-miterlimit="10" stroke-width=".89585" d="M431.27344 654.53906H242.30078v55.5586h188.97266Zm188.97267-333.35549H431.27344v388.91409h188.97267Zm188.97267-111.1172H620.2461v500.03129h188.97267Zm188.97657 55.5586H809.21878v444.47269h188.97657Zm0 0"/></g><use xlink:href="#j" x="918.7367" y="832.96831"/><use xlink:href="#k" x="950.71066" y="832.96831"/><use xlink:href="#l" x="975.29206" y="832.96831"/><use xlink:href="#m" x="989.94112" y="832.96831"/><use xlink:href="#n" x="1011.84669" y="832.96831"/><use xlink:href="#o" x="48.40745" y="153.0991"/><use xlink:href="#p" x="48.40745" y="127.79205"/><use xlink:href="#q" x="48.40745" y="100.67088"/><use xlink:href="#r" x="48.40745" y="78.76531"/><use xlink:href="#s" x="48.40745" y="57.63075"/><use xlink:href="#t" x="48.40745" y="42.98169"/><use xlink:href="#u" x="48.40745" y="30.60028"/></svg>