<svg xmlns="http://www.w3.org/2000/svg" xmlns:xlink="http://www.w3.org/1999/xlink" width="193.653pt" height="125.273pt" viewBox="0 0 193.653 125.273"><defs><path id="a" d="M.48438-3.89062c0 2.32812.67187 4.03125 2.59375 4.03125C5 .14063 5.6875-1.5625 5.6875-3.89062S5-7.90625 3.07813-7.90625.48438-6.21875.48438-3.89062m1.17187 0c0-1.89063.32813-3.60938 1.42188-3.60938C4.1875-7.5 4.5-5.78125 4.5-3.89062s-.3125 3.625-1.42187 3.625c-1.09375 0-1.42188-1.73438-1.42188-3.625m0 0"/><path id="b" d="M.46875-1.1875c0 .53125.8125 1.32813 2.32813 1.32813 1.92187 0 2.78125-1.17188 2.78125-2.64063 0-1.64062-1.01563-2.46875-2.39063-2.46875-.65625 0-1.35937.29688-1.73437.625l.26562-2.20312c.03125-.29688.10938-.32813.32813-.32813h2.90625l.28125-.79687-.0625-.09375H1.28125l-.10937.10937-.23438 3.875.28125.15625c.48438-.5625.95313-.82812 1.59375-.82812.73438 0 1.5625.54687 1.5625 2.07812 0 1.20313-.48437 2.10938-1.5 2.10938-.82812 0-1.23437-.59375-1.46875-1.25-.0625-.1875-.17187-.29688-.32812-.29688-.23438 0-.60938.23438-.60938.625m0 0"/><path id="c" d="M1.26563 0h3.82812v-.32812l-.98437-.09375c-.25-.03125-.39063-.10938-.39063-.5625v-6.85938l-.0625-.0625L1.26563-7.5v.28125l1.07812.14063c.20313.03125.28125.10937.28125.4375v5.65625c0 .45312-.10937.53125-.39062.5625l-.96875.09375Zm0 0"/><path id="d" d="M.3125-.10937.4375 0H5.25l.39063-1.53125-.3125-.0625c-.25.625-.48438.71875-.95313.71875H1.39063c.1875-.60937.89062-1.4375 1.96875-2.21875 1.10937-.8125 1.96875-1.34375 1.96875-2.64062 0-1.60938-1.07813-2.17188-2.29688-2.17188C1.4375-7.90625.625-6.9375.625-6.34375c0 .40625.4375.59375.64063.59375.20312 0 .28124-.125.32812-.32812C1.78125-6.875 2.23438-7.5 2.95313-7.5c.89062 0 1.15625.75 1.15625 1.59375 0 1.25-.625 1.95313-1.64063 2.84375C1.03125-1.8125.53125-1.01562.3125-.10937m0 0"/><path id="e" d="M.46875-1.1875c0 .53125.8125 1.32813 2.32813 1.32813 1.92187 0 2.78125-1.17188 2.78125-2.64063 0-1.64062-1.01563-2.46875-2.39063-2.46875-.65625 0-1.34375.28125-1.71875.60938L1.45313-4.375l.26562-2.17187c.03125-.29688.10938-.32813.32813-.32813h2.90625l.28125-.79687-.0625-.09375H1.28125l-.10937.10937-.23438 3.875.28125.15625c.48438-.5625.95313-.82812 1.59375-.82812.73438 0 1.5625.54687 1.5625 2.07812 0 1.20313-.48437 2.10938-1.5 2.10938-.82812 0-1.23437-.59375-1.46875-1.25-.0625-.1875-.17187-.29688-.32812-.29688-.23438 0-.60938.23438-.60938.625m0 0"/><path id="f" d="M1.26563 0h3.82812v-.32812l-.98437-.09375c-.25-.03125-.39063-.10938-.39063-.5625v-6.85938l-.0625-.0625L1.26563-7.5v.28125l1.07812.14063c.20313.03125.28125.10937.28125.4375v5.65625c0 .21874-.03125.35937-.09375.4375-.0625.09374-.17187.10937-.29687.125l-.96875.09375Zm0 0"/><path id="g" d="M.48438-3.89062c0 2.32812.67187 4.03125 2.59375 4.03125C5 .14063 5.6875-1.5625 5.6875-3.89062S5-7.90625 3.07813-7.90625.48438-6.21875.48438-3.89062m1.17187 0c0-1.89063.32813-3.60938 1.42188-3.60938C4.1875-7.5 4.5-5.78125 4.5-3.89062s-.3125 3.625-1.42187 3.625c-1.09375 0-1.42188-1.73438-1.42188-3.625m0 0"/><path id="h" d="M.20313 0h1.375v-.17187c-.375-.03126-.51563-.04688-.54688-.28126C1-.65624.98438-.875.98438-1.1875V-3.5H1C1.82813-2.32812 2.65625-1.17187 3.48438 0h.375v-2.84375c0-.3125.01562-.53125.04687-.71875.03125-.25.17188-.26562.46875-.29687v-.15625H3v.15625c.375.03125.51563.04687.54688.29687.03125.1875.04687.40625.04687.71875v2.04688L3.57813-.8125c-.75-1.07812-1.51563-2.14062-2.26563-3.20312H.20313v.15625c.51562.04687.51562.04687.51562.375v2.29687c0 .3125 0 .53125-.03125.73438C.64063-.21875.5-.1875.20313-.17187Zm0 0"/><path id="i" d="M.28125-1.42187C.28125-.48437.75.0625 1.6875.0625s1.39063-.54687 1.39063-1.48437-.45313-1.5-1.39063-1.5-1.40625.5625-1.40625 1.5m.60938 0c0-.8125.26562-1.29688.79687-1.29688s.78125.48438.78125 1.29688c0 .79687-.25 1.28125-.78125 1.28125S.89063-.625.89063-1.42187m0 0"/><path id="j" d="M.17188-2.625h.42187v2.03125C.59375 0 1.04688.0625 1.25.0625c.29688 0 .5625-.14062.73438-.25l-.04688-.125c-.14062.0625-.26562.07813-.40625.07813-.20312 0-.39062-.14063-.39062-.57813V-2.625h.75v-.23437h-.75v-.71875H.98437L.625-2.85937H.17188Zm0 0"/><path id="k" d="M.28125-1.40625C.28125-.48437.6875.0625 1.625.0625c.64063 0 .98438-.35937 1.14063-.8125l-.17188-.09375C2.42188-.5 2.20313-.23437 1.75-.23437c-.73437 0-.875-.6875-.85937-1.29688H2.5625c.125 0 .23438-.03125.23438-.21875 0-.34375-.10938-1.17187-1.17188-1.17187-.90625 0-1.34375.64062-1.34375 1.51562M.89063-1.75c0-.25.09374-.96875.70312-.96875.53125 0 .59375.54688.59375.78125 0 .10938-.03125.1875-.1875.1875Zm0 0"/><path id="l" d="m.26563-.96875.0625.76563c.21875.17187.5625.26562.90625.26562.70312 0 1.09375-.35937 1.09375-.85937 0-.51563-.3125-.73438-.92188-.92188C1.17188-1.79687.79688-1.92187.79688-2.25c0-.29687.21874-.46875.51562-.46875.40625 0 .60938.32813.65625.67188h.17188v-.67188c-.20313-.14062-.5-.20312-.75-.20312-.64063 0-1.0625.29687-1.0625.84375 0 .48437.39062.70312.875.85937.26562.07813.625.20313.625.59375 0 .29688-.21876.48438-.53125.48438-.46875 0-.73438-.32813-.85938-.82813Zm0 0"/><path id="m" d="M.20313 0h3.07812l.07813-1.01562H3.1875c-.14062.71875-.40625.8125-1.14062.8125-.26563 0-.46875 0-.59375-.0625-.125-.04688-.14063-.15625-.14063-.4375v-1.28125h.79688c.5 0 .53125.14062.57812.5h.17188v-1.21875H2.6875c-.04687.35937-.07812.5-.57812.5H1.3125v-1.40625c0-.1875.01563-.21875.20313-.21875h.5625c.67187 0 .8125.15625.89062.76562h.17188v-.95312H.20313v.15625c.51562.04687.53125.04687.53125.375v2.95312c0 .32813-.01563.32813-.53125.35938Zm0 0"/><path id="n" d="M.17188-2.625H.625V-.5c0 .29688-.01562.29688-.4375.32813V0h1.48438v-.17187c-.48438-.01563-.5-.03126-.5-.32813v-2.125h1.29687V-.5c0 .29688 0 .29688-.42187.32813V0h1.53125v-.17187C3.04688-.1875 3.03125-.20313 3.03125-.5v-2.125h.70313v-.23437h-.70313L3-3.5c-.01562-.54687.1875-.60937.28125-.60937.125 0 .25.04687.39063.39062.03125.0625.07812.09375.15625.09375.125 0 .29687-.09375.29687-.26562 0-.1875-.25-.42188-.71875-.42188-.29687 0-.5625.125-.70312.32813-.20313-.14063-.54688-.23438-.85938-.23438s-.75.14063-.89062.35938C.8125-3.65625.625-3.39062.625-3v.14063H.17188Zm2.39062-.92187c-.03125.14062-.04687.29687-.04687.48437v.20313H1.21875v-.28125c0-.65625.29688-.875.5625-.875.29688 0 .45313.10937.67188.39062.03125.03125.0625.0625.10937.07813m0 0"/><path id="o" d="M.28125-1.39062C.28125-.42187.76563.0625 1.64063.0625c.40625 0 .95312-.20312 1.10937-.82812l-.17187-.07813c-.17188.40625-.40625.60938-.82813.60938-.70312 0-.85937-.71875-.85937-1.26563 0-.875.34375-1.21875.75-1.21875.26562 0 .42187.1875.54687.51563.03125.09375.07813.14062.1875.14062.10938 0 .32813-.07812.32813-.29687 0-.26563-.375-.5625-1-.5625-1.0625 0-1.42188.75-1.42188 1.53125m0 0"/><path id="p" d="M.53125-3.8125c0 .21875.15625.35938.35938.35938S1.25-3.59375 1.25-3.8125c0-.20312-.15625-.34375-.35937-.34375s-.35938.14063-.35938.34375M.1875 0h1.42188v-.17187C1.1875-.20313 1.17188-.20313 1.17188-.5v-2.39062L1.125-2.92187l-.90625.15625v.14062l.21875.03125c.14063.01563.1875.04688.1875.25V-.5c0 .29688-.01562.29688-.4375.32813Zm0 0"/><path id="q" d="M.17188-2.625H.625V-.5c0 .29688-.01562.29688-.4375.32813V0h1.53125v-.17187C1.1875-.1875 1.17188-.20313 1.17188-.5v-2.125H1.875v-.23437h-.70312L1.14062-3.5c-.01562-.54687.1875-.60937.28126-.60937.125 0 .25.04687.39062.39062.03125.0625.07813.09375.17188.09375.10937 0 .28124-.09375.28124-.26562 0-.1875-.25-.42188-.71875-.42188-.3125 0-.57812.14063-.73437.35938C.6875-3.75.625-3.4375.625-3.0625v.20313H.17188Zm0 0"/></defs><path fill="none" stroke="#000" stroke-miterlimit="10" stroke-width=".3962" d="M28.26562 100.95703h140.91405m-140.91405 0V17.43751"/><path stroke="#000" stroke-miterlimit="10" stroke-width=".3962" d="M28.26562 13.6211c-.1289.46875-.83984 2.53124-1.61718 3.8164h3.23437c-.77734-1.28516-1.49219-3.34765-1.61719-3.8164Zm0 0"/><path fill="none" stroke="#000" stroke-miterlimit="10" stroke-opacity=".5" stroke-width=".3962" d="M63.49218 93.91016V108m35.23046-14.08984V108m35.23046-14.08984V108m35.22657-14.08984V108"/><use xlink:href="#a" x="17.72455" y="120.28694"/><use xlink:href="#b" x="60.41083" y="120.15073"/><use xlink:href="#c" x="92.55628" y="120.28694"/><use xlink:href="#a" x="98.72224" y="120.28694"/><use xlink:href="#c" x="127.78583" y="120.28694"/><use xlink:href="#b" x="133.95179" y="120.28694"/><use xlink:href="#d" x="163.0134" y="120.28694"/><use xlink:href="#a" x="169.17936" y="120.28694"/><path fill="none" stroke="#000" stroke-miterlimit="10" stroke-opacity=".5" stroke-width=".3962" d="M35.3086 65.72657H21.21874"/><use xlink:href="#e" x="10.67844" y="69.5464"/><path fill="none" stroke="#000" stroke-miterlimit="10" stroke-opacity=".5" stroke-width=".3962" d="M35.3086 30.4961H21.21874"/><use xlink:href="#f" x="4.51322" y="34.38545"/><use xlink:href="#g" x="10.67918" y="34.38545"/><use xlink:href="#h" x="173.55422" y="102.93364"/><use xlink:href="#i" x="177.91868" y="102.93364"/><use xlink:href="#j" x="181.27406" y="102.93364"/><use xlink:href="#k" x="183.27366" y="102.93364"/><use xlink:href="#l" x="186.26378" y="102.93364"/><use xlink:href="#m" x="18.97828" y="8.44101"/><use xlink:href="#n" x="22.43889" y="8.44101"/><use xlink:href="#k" x="26.14094" y="8.44101"/><use xlink:href="#o" x="29.13106" y="8.44101"/><use xlink:href="#j" x="32.01594" y="8.44101"/><use xlink:href="#p" x="34.01555" y="8.44101"/><use xlink:href="#q" x="35.70561" y="8.44101"/><path fill="#7FBFBF" stroke="#000" stroke-miterlimit="10" stroke-width=".3962" d="M28.26562 100.95703v-7.04687h35.22656v7.04687Zm35.22656 0v-49.3242h35.23046v49.3242Zm35.23046 0V37.54298h35.23047v63.41405Zm0 0"/><path fill="#7FBFBF" stroke="#000" stroke-miterlimit="10" stroke-width=".3962" d="M133.9531 100.95703V44.58985h35.22657v56.36718Zm0 0"/></svg>