<svg xmlns="http://www.w3.org/2000/svg" xmlns:xlink="http://www.w3.org/1999/xlink" width="331.914pt" height="124.345pt" viewBox="0 0 331.914 124.345"><defs><path id="a" d="M-.40625 0h4.73438l.125-.60937-1.15625-.10938c-.26563-.01562-.375-.15625-.375-.34375 0-.125.04687-.28125.10937-.4375.6875-1.32812 1.35938-2.6875 2.14063-4.09375H9.875l.51563 4.32813s-.10938.5-.5625.54687l-1.10938.10938L8.60938 0H13.75l.14063-.60937-.79688-.0625c-.65625-.0625-.73437-.35938-.85937-1.21875L10.70313-14.5h-1.5L5.6875-8.3125C4.60938-6.4375 2.875-3.32812 2.09375-2.07812 1.42188-.98437 1.0625-.76562.42188-.6875l-.6875.07813Zm6-6.40625 3.42188-6.14062.75 6.14062Zm0 0"/><path id="b" d="M0 0h6.35938c5.0625 0 6.07812-2.60937 6.07812-4.34375 0-2.21875-1.625-3.17187-3.15625-3.45312l.01563-.04688c2.78125-.34375 3.96875-1.92187 3.96875-3.5 0-1.70312-1-3.15625-4.85938-3.15625h-5.3125l-.125.60938 1.25.10937c.35938.03125.51563.1875.51563.51563 0 .125-.04688.3125-.09375.51562L2.15625-1.73437c-.15625.6875-.34375.9375-.85937 1l-1.1875.125Zm4.1875-1.60937c0-.15626.03125-.3125.07813-.46875l1.20312-5.375h.8125c2.07813 0 3.90625.60937 3.90625 3 0 1.85937-1.14062 3.71875-3.9375 3.71875-1.65625 0-2.0625-.32813-2.0625-.875M5.625-8.1875l1.09375-4.85937c.15625-.625.26563-.73438 1.67188-.73438 1.75 0 2.73437.89063 2.73437 2.35938 0 2.1875-1.82812 3.23437-4.14062 3.23437Zm0 0"/><path id="c" d="M1.09375-5.75c0 2.76563 1.35938 6.0625 6.54688 6.0625 1.5 0 2.92187-.20312 4.26562-.875l1.03125-3.34375h-.625C11.15625-1.8125 10.09375-.42187 7.51563-.42187c-2.4375 0-4.17188-1.5625-4.17188-4.79688 0-1.89062.48438-4.21875 1.5-5.89062 1.04688-1.75 2.6875-2.98438 4.9375-2.98438 2.65625 0 3.42188 1.23438 3.42188 3.53125h.64062l.76563-3.15625c-1.20313-.75-3.17188-1.10937-4.64063-1.10937-3.95312 0-6.21875 1.84375-7.45312 3.8125-1.15625 1.875-1.42188 3.8125-1.42188 5.26562m0 0"/><path id="d" d="M.45313 0h5.71875l.14062-.60937-1.25-.07813c-.35937-.03125-.51562-.23437-.51562-.5625 0-.125.03125-.3125.0625-.48437l2.5-11.01563c.15625-.65625.35937-1 .89062-1.04687l1.15625-.09375.14063-.60938H3.5625l-.15625.60938 1.25.09375c.35938.01562.51563.23437.51563.57812 0 .125-.01563.28125-.0625.46875L2.59375-1.73437c-.15625.67187-.35937.95312-.875 1l-1.15625.125Zm0 0"/><path id="e" d="M1.8125-5.90625c0 4.71875 1.0625 9.92188 5.5 10.09375v-.625c-1.5-.28125-3.82812-2.14062-3.82812-9.46875 0-7.29687 2.21875-9.14062 3.82812-9.48437v-.625c-4.4375.1875-5.5 5.375-5.5 10.10937m0 0"/><path id="f" d="M2 .25 3.82813 0c.5625-2.14062.875-3.29687 1.40625-4.60937C5.85938-6.25 7.9375-9.4375 9.76563-9.4375c.48437 0 .76562.34375.76562.875q0 .25781-.09375.60938L8.71875-2c-.10937.375-.17187.73438-.17187 1.01563C8.54688-.20312 8.9375.25 9.8125.25c1.45313 0 2.625-1.4375 3.34375-3.01562l-.51562-.28125c-.375.73437-1.3125 2.20312-1.89063 2.20312-.25 0-.34375-.15625-.34375-.40625 0-.20312.04688-.4375.14063-.73437l1.65625-5.5c.15625-.5.21875-.9375.21875-1.375 0-.96875-.46875-1.67188-1.67188-1.67188-1.98437 0-4.23437 2.17188-5.57812 4.6875H5.125l2.34375-9.60937-.10937-.09375-3.76563.5-.14062.48437 1.20312.14063c.35938.04687.51563.10937.51563.42187 0 .15625-.01563.32813-.09375.59375Zm0 0"/><path id="g" d="M1.25 3.5625v.625c4.4375-.17187 5.5-5.375 5.5-10.09375 0-4.73437-1.0625-9.92187-5.5-10.10937v.625c1.60938.34375 3.82813 2.1875 3.82813 9.48437 0 7.32813-2.32813 9.1875-3.82813 9.46875m0 0"/></defs><use xlink:href="#a" x="25.54066" y="21.9265"/><use xlink:href="#b" x="89.64797" y="115.61499"/><use xlink:href="#c" x="309.43223" y="115.94923"/><use xlink:href="#d" x="31.29335" y="115.61499"/><use xlink:href="#e" x="8.25869" y="67.43279"/><use xlink:href="#f" x="16.82131" y="67.43279"/><use xlink:href="#g" x="31.35992" y="67.43279"/><path fill="none" stroke="red" stroke-miterlimit="10" stroke-width=".39641" d="M47.80078 93.24219h12.6875v-12.6875h-12.6875v12.6875"/><path fill="none" stroke="#000" stroke-miterlimit="10" stroke-width=".39641" d="m47.80078 29.80469 63.4375 63.4375H301.5586Zm0 0v63.4375"/><path fill="none" stroke="#000" stroke-dasharray="2.9731685308 2.9731685308" stroke-miterlimit="10" stroke-width=".39641" d="M47.80078 93.24219h63.4375"/></svg>