<svg xmlns="http://www.w3.org/2000/svg" xmlns:xlink="http://www.w3.org/1999/xlink" width="336.31pt" height="94.63pt" viewBox="0 0 336.31 94.63"><defs><path id="a" d="m2.70313-2.03125.76562.78125L6.70313-4.5l3.26562 3.25.75-.78125-3.23437-3.23437 3.23437-3.25-.75-.75-3.26562 3.23437-3.23438-3.23437-.76562.75 3.25 3.25Zm0 0"/><path id="b" d="M-.35937 0h4.20312l.125-.53125L2.9375-.64062c-.23437-.01563-.34375-.14063-.34375-.3125 0-.09376.04688-.23438.10938-.375.60937-1.1875 1.20312-2.40625 1.90625-3.65625h4.1875L9.25-1.125s-.10937.45313-.5.48438l-.98437.10937L7.65625 0H12.25l.10938-.53125-.71875-.0625c-.5625-.0625-.64063-.3125-.75-1.09375L9.53125-12.90625H8.20313l-3.14063 5.5c-.95312 1.67188-2.5 4.45313-3.20312 5.5625C1.26563-.875.95313-.67187.375-.60937l-.60937.07812Zm5.34375-5.6875 3.03125-5.48437.67187 5.48437Zm0 0"/><path id="c" d="M.96875-5.125C.96875-2.65625 2.1875.28125 6.8125.28125c1.32813 0 2.59375-.1875 3.78125-.78125l.92188-2.96875h-.5625C9.92188-1.60937 8.98438-.375 6.6875-.375c-2.15625 0-3.70312-1.39062-3.70312-4.26562 0-1.6875.42187-3.75 1.32812-5.23438.92188-1.57812 2.39063-2.67187 4.40625-2.67187 2.35938 0 3.03125 1.09375 3.03125 3.14062h.57813L13-12.20312c-1.07812-.67188-2.8125-1-4.125-1-3.51562 0-5.54687 1.65625-6.625 3.40625C1.20313-8.14062.96875-6.40625.96875-5.125m0 0"/></defs><path fill="none" stroke="#000" stroke-miterlimit="10" stroke-width=".39695" d="m125.00388 11.25001-98.2656 55.90624H309.1054L179.2148 11.81251"/><use xlink:href="#a" x="118.29395" y="15.8839"/><use xlink:href="#a" x="20.03215" y="71.79229"/><use xlink:href="#a" x="302.39214" y="71.79229"/><use xlink:href="#a" x="172.50599" y="16.44968"/><use xlink:href="#b" x="6.9264" y="87.07056"/><use xlink:href="#c" x="316.11249" y="87.36839"/></svg>