<svg xmlns="http://www.w3.org/2000/svg" xmlns:xlink="http://www.w3.org/1999/xlink" width="165.666pt" height="113.024pt" viewBox="0 0 165.666 113.024"><defs><path id="a" d="M-.23437 0h2.71875l.07812-.34375-.65625-.0625C1.75-.42187 1.6875-.5 1.6875-.60937c0-.07813.01563-.15626.0625-.25.39063-.76563.78125-1.5625 1.23438-2.35938H5.6875l.29688 2.48438s-.0625.29687-.3125.32812l-.65625.0625L4.95313 0h2.96875L8-.34375l-.45312-.04687c-.375-.03125-.4375-.20313-.5-.70313l-.875-7.25h-.875L3.28125-4.79687c-.625 1.07812-1.625 2.89062-2.07812 3.60937-.375.625-.59375.75-.95313.79688l-.40625.04687Zm3.45312-3.6875L5.1875-7.23437 5.625-3.6875Zm0 0"/><path id="b" d="M0 0h3.65625c2.92188 0 3.51563-1.5 3.51563-2.5 0-1.28125-.9375-1.82812-1.82813-2l.01563-.01562C6.96875-4.71875 7.64063-5.625 7.64063-6.53125c0-.98437-.57813-1.8125-2.79688-1.8125h-3.0625L1.70313-8l.71875.0625c.21875.01563.29687.10938.29687.29688 0 .07812-.01562.17187-.04687.29687L1.25-1c-.09375.39063-.20312.53125-.5.57813l-.6875.07812Zm2.42188-.92187c0-.09376 0-.1875.03125-.26563l.6875-3.10937H3.625c1.1875 0 2.25.35937 2.25 1.73437 0 1.07813-.65625 2.14063-2.28125 2.14063-.95312 0-1.17187-.1875-1.17187-.5m.8125-3.79688.625-2.79687c.09375-.35938.15625-.42188.96875-.42188 1.01562 0 1.57812.51563 1.57812 1.35938 0 1.26562-1.04687 1.85937-2.39062 1.85937Zm0 0"/><path id="c" d="M.625-3.3125c0 1.59375.78125 3.5 3.78125 3.5.85938 0 1.6875-.125 2.45313-.51562L7.45313-2.25h-.35938c-.67187 1.20313-1.28125 2-2.76562 2-1.40625 0-2.40625-.89062-2.40625-2.75 0-1.09375.28124-2.4375.85937-3.39062C3.39063-7.40625 4.34375-8.125 5.64063-8.125c1.53125 0 1.96875.71875 1.96875 2.03125h.35937l.4375-1.8125c-.6875-.42187-1.8125-.64062-2.67187-.64062-2.26563 0-3.57813 1.07812-4.28125 2.20312C.78125-5.26562.625-4.15625.625-3.3125m0 0"/><path id="d" d="M.375-.125c0 .04688.09375.125.21875.125.07813 0 .20313-.01562.21875-.07812L2.32813-3.9375c.04687-.125.0625-.1875.0625-.23437 0-.17188-.28125-.25-.54688-.25-.25 0-.65625.09375-.67187.26562Zm0 0"/></defs><path fill="#66b2b2" d="M17.64063 94.89453h10.96093c0-3.89844-2.07031-7.5039-5.4375-9.46875Zm0 0"/><path fill="none" stroke="#000" stroke-miterlimit="10" stroke-width=".39509" d="M28.60157 94.89453c0-3.89844-2.07032-7.5039-5.4375-9.46875"/><path fill="none" stroke="red" stroke-miterlimit="10" stroke-width=".39509" d="m29.83985 88.17187-5.38672 2.52344"/><path fill="#66cef5" d="m72.45703 94.89453-2.66016-10.63281c-4.8789 1.21875-8.30078 5.60156-8.30078 10.63281Zm0 0"/><path fill="none" stroke="#000" stroke-miterlimit="10" stroke-width=".39509" d="M69.7969 84.26171c-4.87891 1.21875-8.30079 5.60157-8.30079 10.63282"/><path fill="none" stroke="red" stroke-miterlimit="10" stroke-width=".39509" d="m62.23049 85.35156 4.36719 4.03516m-5.58204-2.48047 4.3672 4.03906"/><path fill="#ffb266" d="m56.01172 29.11719-5.52344 9.46875c2.46875 1.4375 5.40625 1.85937 8.17969 1.16406Zm0 0"/><path fill="none" stroke="#000" stroke-miterlimit="10" stroke-width=".39509" d="M50.4883 38.58591c2.46875 1.4375 5.40625 1.85938 8.17969 1.16407"/><path fill="none" stroke="red" stroke-miterlimit="10" stroke-width=".39509" d="m51.83986 42.60154 1.32422-5.79688m.6289 6.07422 1.32813-5.79687m.62891 6.07813 1.32422-5.79688"/><path fill="none" stroke="#000" stroke-miterlimit="10" stroke-width=".39509" d="M17.64063 94.89453h54.81642L56.01173 29.11716Zm0 0"/><use xlink:href="#a" x="4.82364" y="107.77632"/><use xlink:href="#b" x="76.99144" y="107.77632"/><use xlink:href="#c" x="51.94076" y="24.40228"/><path fill="#66b2b2" d="m112.63281 69.32031 9.49219-5.48047c-1.94922-3.375-5.54297-5.46484-9.4414-5.48047Zm0 0"/><path fill="none" stroke="#000" stroke-miterlimit="10" stroke-width=".39509" d="M122.12504 63.83983c-1.94922-3.375-5.54297-5.46484-9.4414-5.48047"/><path fill="none" stroke="red" stroke-miterlimit="10" stroke-width=".39509" d="m119.83598 57.40233-3.40235 4.875"/><path fill="#66cef5" d="m144.28125 51.04688-7.6211-7.87891c-3.61327 3.4961-4.38671 9.0039-1.87109 13.35937Zm0 0"/><path fill="none" stroke="#000" stroke-miterlimit="10" stroke-width=".39509" d="M136.6602 43.16795c-3.61328 3.4961-4.38672 9.0039-1.87109 13.35938"/><path fill="none" stroke="red" stroke-miterlimit="10" stroke-width=".39509" d="m130.6563 47.89451 5.80078 1.3125m-6.07422.64063 5.80078 1.3125"/><path fill="#ffb266" d="m112.86328 18.55469-.05078 10.96094c2.85938.01171 5.61328-1.09376 7.66797-3.08204Zm0 0"/><path fill="none" stroke="#000" stroke-miterlimit="10" stroke-width=".39509" d="M112.81254 29.5156c2.85938.01172 5.61328-1.09375 7.66797-3.08203"/><path fill="none" stroke="red" stroke-miterlimit="10" stroke-width=".39509" d="m115.98832 32.31247-1.75-5.6836m3.58203 4.94533-1.75-5.6836m3.58595 4.94922-1.75392-5.6836"/><path fill="none" stroke="#000" stroke-miterlimit="10" stroke-width=".39509" d="m112.63285 69.3203 31.64845-18.27344-31.41798-32.4922Zm0 0"/><use xlink:href="#a" x="96.04094" y="83.41469"/><use xlink:href="#d" x="104.8362" y="78.27854"/><use xlink:href="#b" x="148.81522" y="65.14346"/><use xlink:href="#d" x="157.25217" y="60.00732"/><use xlink:href="#c" x="106.62059" y="13.8385"/><use xlink:href="#d" x="115.83988" y="8.70235"/></svg>