<svg xmlns="http://www.w3.org/2000/svg" xmlns:xlink="http://www.w3.org/1999/xlink" width="174.388pt" height="69.084pt" viewBox="0 0 174.388 69.084"><defs><path id="a" d="M-.21875 0h2.60938l.0625-.32812-.64063-.0625c-.14062-.01563-.20312-.09375-.20312-.20313 0-.0625.03124-.14062.0625-.23437.375-.73438.75-1.48438 1.1875-2.26563h2.59375l.28125 2.39063s-.0625.28124-.3125.3125l-.60938.0625L4.75 0h2.84375l.0625-.32812-.4375-.04688C6.85938-.40625 6.8125-.5625 6.75-1.04687L5.90625-8h-.82812l-1.9375 3.40625c-.59375 1.04688-1.54688 2.76563-1.98438 3.45313-.375.59375-.5625.71875-.92187.76562l-.375.04688Zm3.3125-3.53125 1.875-3.39062.42188 3.39062Zm0 0"/><path id="b" d="M0 0h3.5c2.79688 0 3.35938-1.4375 3.35938-2.39062 0-1.21875-.89063-1.75-1.75-1.90625l.01562-.03125c1.54688-.1875 2.1875-1.0625 2.1875-1.9375C7.3125-7.1875 6.76563-8 4.64063-8h-2.9375l-.0625.34375.6875.0625q.28125 0 .28125.28125c0 .0625-.03125.17188-.04688.28125L1.1875-.95312C1.10938-.57812 1-.4375.71875-.40625L.0625-.32812Zm2.3125-.89062c0-.07813.01563-.17188.03125-.25l.67188-2.96875h.45312c1.14063 0 2.15625.32812 2.15625 1.65625C5.625-1.42187 5-.40625 3.4375-.40625c-.90625 0-1.125-.1875-1.125-.48437m.78125-3.625.60938-2.67188c.07812-.34375.14062-.40625.92187-.40625.96875 0 1.51563.48438 1.51563 1.29688 0 1.20312-1.01563 1.78125-2.29688 1.78125Zm0 0"/><path id="c" d="M.60938-3.17187c0 1.53125.75 3.34375 3.60937 3.34375.82813 0 1.60938-.10938 2.34375-.48438l.5625-1.84375h-.34375C6.15625-1 5.57813-.23437 4.14063-.23437c-1.34375 0-2.29688-.85938-2.29688-2.64063 0-1.04687.26563-2.32812.82813-3.25.57812-.96875 1.48437-1.64062 2.71875-1.64062 1.46875 0 1.89062.67187 1.89062 1.9375h.35938l.40625-1.73438C7.39063-7.98437 6.3125-8.17187 5.5-8.17187c-2.1875 0-3.4375 1.01562-4.10937 2.09375C.75-5.04687.60938-3.96875.60938-3.17187m0 0"/><path id="d" d="M.25 0h3.15625l.07813-.32812-.6875-.04688c-.20313-.01562-.28125-.125-.28125-.3125 0-.07812 0-.17187.03125-.26562l1.375-6.07813c.09375-.35937.20312-.5625.5-.57812l.625-.04688L5.125-8H1.96875l-.09375.34375.6875.04688c.20313.01562.29688.14062.29688.3125 0 .07812-.01563.17187-.04688.26562L1.42188-.95312c-.07813.35937-.1875.51562-.46875.54687L.3125-.32812Zm0 0"/><path id="e" d="M1-3.26562c0 2.60937.59375 5.48437 3.03125 5.57812v-.34375C3.20313 1.8125 1.92188.78125 1.92188-3.26562c0-4.01563 1.21875-5.03125 2.10937-5.21875v-.34375C1.59375-8.73437 1-5.85937 1-3.26562m0 0"/><path id="f" d="m1.10938.14063 1-.14063c.3125-1.1875.48437-1.8125.78125-2.54687.34375-.89063 1.48437-2.65625 2.5-2.65625.26562 0 .40625.1875.40625.48437 0 .09375 0 .20313-.04688.32813l-.9375 3.28125c-.0625.21874-.10937.40625-.10937.5625 0 .4375.23437.6875.70312.6875.79688 0 1.45313-.79688 1.84375-1.67188l-.28125-.15625C6.76563-1.28125 6.25-.46875 5.92188-.46875c-.125 0-.17188-.07812-.17188-.21875 0-.10937.01563-.25.0625-.40625L6.71875-4.125c.09375-.28125.125-.51562.125-.75 0-.54687-.25-.92187-.92187-.92187-1.09375 0-2.32813 1.1875-3.0625 2.57812h-.03125L4.125-8.51562l-.0625-.0625-2.07812.28125-.07813.26562.65625.07813c.20313.01562.29688.0625.29688.23437 0 .07813-.01563.1875-.0625.32813Zm0 0"/><path id="g" d="M.6875 1.96875v.34375c2.45313-.09375 3.03125-2.96875 3.03125-5.57812 0-2.59375-.57812-5.46875-3.03125-5.5625v.34375c.89063.1875 2.10938 1.20312 2.10938 5.21875 0 4.04687-1.28125 5.07812-2.10938 5.23437m0 0"/></defs><use xlink:href="#a" x="47.84178" y="12.08477"/><use xlink:href="#b" x="4.93568" y="63.72703"/><use xlink:href="#c" x="161.05664" y="63.91158"/><use xlink:href="#d" x="49.42775" y="63.72703"/><use xlink:href="#e" x="56.14765" y="37.16818"/><use xlink:href="#f" x="60.86714" y="37.16818"/><use xlink:href="#g" x="68.88044" y="37.16818"/><path fill="none" stroke="red" stroke-miterlimit="10" stroke-width=".39328" d="M51.80468 51.39844h-6.99219v-6.9961h6.99219v6.9961"/><path fill="none" stroke="#000" stroke-miterlimit="10" stroke-width=".39328" d="M51.80468 16.4258 16.83594 51.39843H156.7148Zm0 0v34.97264"/></svg>