<svg xmlns="http://www.w3.org/2000/svg" xmlns:xlink="http://www.w3.org/1999/xlink" width="159.289pt" height="108.667pt" viewBox="0 0 159.289 108.667"><defs><path id="a" d="M-.21875 0h2.625l.07813-.32812-.65625-.0625C1.6875-.40625 1.625-.48437 1.625-.59375c0-.0625.01563-.15625.0625-.23437.375-.75.75-1.5 1.1875-2.28125h2.60938l.29687 2.40625s-.0625.28124-.3125.3125l-.625.0625L4.78125 0h2.85938l.07812-.32812L7.26563-.375c-.35938-.03125-.40625-.1875-.46875-.67187l-.84375-7H5.125L3.15625-4.625c-.59375 1.04688-1.5625 2.78125-1.98437 3.46875-.375.60938-.57813.73438-.9375.76563l-.39063.0625Zm3.32813-3.5625L5-6.96875l.42188 3.40625Zm0 0"/><path id="b" d="M0 0h3.53125c2.8125 0 3.375-1.45312 3.375-2.42187 0-1.21875-.89062-1.75-1.75-1.92188l.01563-.01562C6.71875-4.54687 7.375-5.42187 7.375-6.3125c0-.9375-.5625-1.73437-2.70312-1.73437H1.71875l-.07812.32812.70312.0625c.20313.01563.28125.09375.28125.28125q0 .1172-.04687.28125l-1.375 6.125C1.10937-.57812 1-.45312.71875-.40625L.0625-.32812Zm2.32813-.89062c0-.09376.01562-.17188.03125-.26563l.67187-2.98437H3.5c1.14063 0 2.15625.34375 2.15625 1.65625 0 1.04687-.625 2.07812-2.1875 2.07812-.92187 0-1.14062-.1875-1.14062-.48437M3.125-4.54687 3.73438-7.25c.07812-.34375.14062-.40625.92187-.40625.98438 0 1.53125.5 1.53125 1.3125 0 1.21875-1.01562 1.79688-2.3125 1.79688Zm0 0"/><path id="c" d="M.60938-3.20312c0 1.54687.75 3.375 3.64062 3.375.82813 0 1.625-.10938 2.35938-.48438l.57812-1.85937h-.34375C6.1875-1 5.60938-.23437 4.17188-.23437c-1.34375 0-2.3125-.875-2.3125-2.67188 0-1.04687.26562-2.32812.82812-3.26562.57813-.98438 1.5-1.65625 2.75-1.65625 1.46875 0 1.89063.67187 1.89063 1.95312h.35937l.42188-1.75c-.65625-.42187-1.75-.60937-2.57813-.60937-2.1875 0-3.45312 1.01562-4.125 2.10937C.75-5.07812.60938-4 .60938-3.20312m0 0"/><path id="d" d="M.35938-.125c0 .04688.09375.125.21875.125.0625 0 .1875-.01562.21874-.0625L2.25-3.79687c.04688-.125.0625-.1875.0625-.23438 0-.17187-.28125-.23437-.53125-.23437-.23437 0-.625.09375-.65625.25Zm0 0"/></defs><path fill="#66B2B2" d="M16.50781 91.6875h15.875c0-5.64453-3-10.86719-7.875-13.71094Zm0 0"/><path fill="none" stroke="#000" stroke-miterlimit="10" stroke-width=".39673" d="M32.3828 91.6875c0-5.64453-3-10.86718-7.87499-13.71093"/><path fill="none" stroke="#000" stroke-miterlimit="10" stroke-width=".39673" d="M32.3828 91.6875c0-5.64453-3-10.86718-7.87499-13.71093m2.32812 7.78124 6.8789-3.94921"/><path fill="#66CEF5" d="m69.42188 91.6875-3.84766-15.39844c-7.0664 1.76563-12.02344 8.11719-12.02344 15.39844Zm0 0"/><path fill="none" stroke="#000" stroke-miterlimit="10" stroke-width=".39673" d="M65.5742 76.28907c-7.0664 1.76562-12.02343 8.11718-12.02343 15.39843"/><path fill="none" stroke="#000" stroke-miterlimit="10" stroke-width=".39673" d="M65.5703 76.28907c-7.0664 1.76562-12.02343 8.11718-12.02343 15.39843m5.99999-6.69922-6.2539-4.8828m7.23047 3.6289-6.2539-4.88281"/><path fill="#FFB266" d="m53.55078 28.1914-8 13.71094c3.57813 2.08594 7.83203 2.69532 11.84766 1.69141Zm0 0"/><path fill="none" stroke="#000" stroke-miterlimit="10" stroke-width=".39673" d="M45.55077 41.90236c3.57813 2.08593 7.83203 2.6953 11.84766 1.6914"/><path fill="none" stroke="#000" stroke-miterlimit="10" stroke-width=".39673" d="M45.54687 41.90626c3.57812 2.08594 7.83203 2.69531 11.84765 1.6914m-5.52734-3.61327-1.1211 7.85547m-.05859-8.02344-1.1211 7.85547m3.47657-7.51953-1.11719 7.85546"/><path fill="none" stroke="#000" stroke-miterlimit="10" stroke-width=".39673" d="M16.50781 91.6875h52.91015l-15.8711-63.49217Zm0 0"/><use xlink:href="#a" x="4.13255" y="104.12724"/><use xlink:href="#b" x="73.79859" y="104.12724"/><use xlink:href="#c" x="49.61554" y="23.64349"/><path fill="#66B2B2" d="m108.22656 66.9961 9.16406-5.29297c-1.8789-3.25782-5.35156-5.27344-9.11718-5.28907Zm0 0"/><path fill="none" stroke="#000" stroke-miterlimit="10" stroke-width=".39673" d="M117.3906 61.70313c-1.8789-3.2578-5.35156-5.27343-9.11719-5.28906"/><path fill="none" stroke="#000" stroke-miterlimit="10" stroke-width=".39673" d="M117.3906 61.70313c-1.8789-3.2578-5.35156-5.27343-9.11719-5.28906m3.27344 4.85938 3.98438-6.85938"/><path fill="#66CEF5" d="M138.77734 49.35938 131.42187 41.75c-3.49218 3.375-4.23828 8.69531-1.80859 12.89844Zm0 0"/><path fill="none" stroke="#000" stroke-miterlimit="10" stroke-width=".39673" d="M131.42185 41.75001c-3.49219 3.375-4.23828 8.69531-1.8086 12.89844"/><path fill="none" stroke="#000" stroke-miterlimit="10" stroke-width=".39673" d="M131.42185 41.75001c-3.49219 3.375-4.23828 8.69531-1.8086 12.89844m2.50391-5.42578-7.85937-1.10157m8.07812-.46874-7.85547-1.10157"/><path fill="#FFB266" d="m108.44531 17.98828-.04687 10.58203c2.76172.01172 5.41797-1.05468 7.40625-2.97265Zm0 0"/><path fill="none" stroke="#000" stroke-miterlimit="10" stroke-width=".39673" d="M108.39841 28.57033c2.76172.01172 5.41797-1.05469 7.40625-2.97266"/><path fill="none" stroke="#000" stroke-miterlimit="10" stroke-width=".39673" d="M108.39841 28.57033c2.76172.01562 5.41797-1.05469 7.40235-2.97266m-4.88672-1.46875 2.95312 7.36328m-4.05859-6.92187 2.95703 7.36328m-.75-8.25 2.95703 7.36328"/><path fill="none" stroke="#000" stroke-miterlimit="10" stroke-width=".39673" d="m108.22654 66.9961 30.55077-17.63671L108.4453 17.9883Zm0 0"/><use xlink:href="#a" x="92.20543" y="80.60523"/><use xlink:href="#d" x="100.69753" y="75.64612"/><use xlink:href="#b" x="143.15501" y="62.96796"/><use xlink:href="#d" x="151.30115" y="58.00885"/><use xlink:href="#c" x="102.42084" y="13.43704"/><use xlink:href="#d" x="111.32235" y="8.47793"/></svg>