<svg xmlns="http://www.w3.org/2000/svg" xmlns:xlink="http://www.w3.org/1999/xlink" width="211.726pt" height="82.362pt" viewBox="0 0 211.726 82.362"><defs><path id="a" d="m1.6875-1.26562.46875.48437L4.17188-2.8125 6.20313-.78125l.46875-.48437-2.01563-2.01563 2.01563-2.01562-.46875-.46875L4.17188-3.75 2.15625-5.76562l-.46875.46875 2.01563 2.01562Zm0 0"/><path id="b" d="M.95313-1.98437c0 1.5625 1.14062 2.15625 2.82812 2.15625 1.57813 0 3.03125-.32813 3.67188-3.04688l.98437-4.1875c.10938-.40625.20313-.5625.5-.59375l.64063-.04687.07812-.32813h-3.1875l-.07812.32813.67187.04687c.20313.01563.29688.10938.29688.32813 0 .07812 0 .15625-.03125.26562l-.9375 4.04688C6.03125-1.46875 5.46875-.23437 3.84375-.23437c-1.03125 0-1.75-.45313-1.75-1.73438 0-.3125.0625-.71875.15625-1.15625l.92188-3.9375c.10937-.40625.1875-.5625.48437-.59375l.64063-.04687.07812-.32813H1.20313l-.09376.32813.6875.04687c.20313.01563.29688.10938.29688.3125 0 .07813-.01562.15625-.04687.28125l-.96875 4.07813c-.09376.375-.125.70312-.125 1m0 0"/><path id="c" d="M0 0h3.17188L3.25-.32812l-.6875-.0625C2.35938-.40625 2.26563-.5 2.26563-.6875c0-.0625.01562-.17187.04687-.28125l.625-2.8125h.70313c1.125 0 1.29687.26563 1.29687 1.625C4.9375-.73437 4.9375 0 6.15625 0h.90625l.10938-.32812C6.35938-.4375 6.0625-.48437 6.0625-1.98437c0-1.17188-.09375-1.6875-1.0625-2 1.42188-.20313 2.39063-1.03125 2.39063-2.1875 0-.82813-.35938-1.85938-2.53125-1.85938h-3.125l-.09376.32813.6875.04687c.20313.01563.29688.10938.29688.3125 0 .07813-.01562.15625-.04687.28125L1.1875-.96875c-.09375.40625-.20312.53125-.48437.5625L.0625-.32812Zm3.04688-4.1875.67187-3c.09375-.34375.125-.45312 1-.45312.75 0 1.46875.34375 1.46875 1.34375 0 1.39062-.90625 2.10937-2.40625 2.10937Zm0 0"/><path id="d" d="M.25 0h5.9375l.59375-2.04687H6.4375C5.84375-.60937 5.3125-.40625 4-.40625c-1.1875 0-1.4375-.10937-1.4375-.48437 0-.125.03125-.29688.07813-.53125L3.9375-7.0625c.10938-.39062.20313-.5625.5-.59375l.6875-.04687.09375-.32813H1.98438l-.09376.32813.6875.04687c.20313.01563.29688.10938.29688.3125 0 .07813-.01562.15625-.04687.28125L1.4375-.96875c-.10937.40625-.20312.53125-.48437.5625L.3125-.32812Zm0 0"/></defs><path fill="none" stroke="#000" stroke-miterlimit="10" stroke-width=".39544" d="M18.48047 65.03906H194.2851l-71.72654-48.52342Zm0 0"/><use xlink:href="#a" x="14.30325" y="67.92384"/><use xlink:href="#b" x="4.79689" y="77.43715"/><use xlink:href="#a" x="190.10742" y="67.92384"/><use xlink:href="#c" x="198.65024" y="77.43715"/><use xlink:href="#a" x="118.37905" y="19.4027"/><use xlink:href="#d" x="119.07168" y="12.15088"/></svg>