<svg xmlns="http://www.w3.org/2000/svg" xmlns:xlink="http://www.w3.org/1999/xlink" width="344.567pt" height="167.992pt" viewBox="0 0 344.567 167.992"><defs><path id="a" d="M.28125-.125.39063 0H4.4375l.35938-1.40625L4.5-1.46875c-.23437.5-.40625.57813-.78125.57813h-2.375C1.5-1.3125 1.9375-1.92187 2.875-2.51562c.98438-.625 1.64063-1.0625 1.64063-2.07813 0-1.3125-.89063-1.76562-1.96875-1.76562C1.29688-6.35937.5-5.65625.5-5.03125c0 .35938.42188.53125.64063.53125.1875 0 .28124-.09375.32812-.29687.15625-.6875.48438-1.1875 1.01563-1.1875.60937 0 .8125.53125.8125 1.20312 0 .8125-.32813 1.45313-1.25 2.23438C.82813-1.5.39063-.8125.28124-.125m0 0"/><path id="b" d="m.48438 1.17188.23437.20312C1.1875.9375 1.98438.26563 1.98438-.48437c0-.48438-.26563-.89063-.71875-.89063-.375 0-.5625.28125-.5625.51563 0 .34375.26562.51562.26562.92187 0 .39063-.1875.78125-.48437 1.10938m0 0"/><path id="c" d="M1.01563 0h3.1875v-.3125L3.48438-.375c-.20313-.01562-.3125-.07812-.3125-.42187v-5.5l-.0625-.0625-2.07813.34375V-5.75l.75.10938c.20313.03125.26563.10937.26563.40625v4.4375c0 .34375-.09375.40625-.3125.42187l-.71875.0625Zm0 0"/><path id="f" d="m.20313-1.875.125.21875h2.46875v.95313c0 .26562-.09375.32812-.28125.34375l-.60938.04687V0h2.64063v-.3125l-.4375-.03125c-.1875-.03125-.25-.09375-.25-.35937v-.95313h.9375v-.53125h-.9375V-6.25h-.89063C2.03125-4.875 1.04688-3.32812.20313-1.875m.8125-.3125c.5-.9375 1.125-1.96875 1.78125-3.03125v3.03125Zm0 0"/><path id="g" d="M.42188-1.03125c0 .39063.54687 1.14063 1.96875 1.14063 1.625 0 2.28125-.95313 2.28125-2.125 0-1.09375-.625-2-2-2-.5625 0-1.09375.25-1.42188.51562l.1875-1.53125c.03125-.28125.07813-.3125.29688-.3125H4.125l.29688-.8125-.0625-.09375H1.03125l-.07812.09375L.75-3.0625l.3125.20313c.375-.4375.73438-.65625 1.21875-.65625.60938 0 1.1875.45312 1.1875 1.625 0 .95312-.3125 1.625-1.03125 1.625-.54687 0-.85937-.39063-1.07812-1.0625C1.29688-1.5 1.1875-1.60938 1-1.60938c-.25 0-.57812.23438-.57812.57813m0 0"/><path id="k" d="M.375-2.95312C.375-1 1.0625.10938 2.625.10938c1.51563 0 2.23438-.9375 2.23438-2.14063 0-1.29687-.8125-1.95312-1.8125-1.95312-.6875 0-1.20313.4375-1.5.79687 0-1.46875.375-2.79687 1.25-2.79687.40625 0 .70312.35937.84375.9375.04687.125.14062.23437.32812.23437.21875 0 .59375-.15625.59375-.48437 0-.42188-.51562-1.0625-1.70312-1.0625C1.32813-6.35937.375-5.21875.375-2.95312m1.17188.75c0-.54688.375-1.17188 1.07812-1.17188.54688 0 1.0625.46875 1.0625 1.53125 0 .92188-.29687 1.57813-1.03125 1.57813-.75 0-1.10937-.85938-1.10937-1.9375m0 0"/><path id="l" d="M.28125-1.03125c0 .39063.5625 1.14063 2.0625 1.14063 1.42188 0 2.29688-.67188 2.29688-1.85938 0-1.29687-1.125-1.60937-1.57813-1.65625v-.04687c.51563-.09375 1.3125-.45313 1.3125-1.35938 0-1.15625-.96875-1.54687-1.95312-1.54687C1.25-6.35937.5-5.71875.5-5.1875c0 .34375.40625.51563.57813.51563.17187 0 .25-.09375.3125-.25.20312-.67188.51562-1.0625 1-1.0625.65625 0 .79687.67187.79687 1.14062 0 .45313-.125 1.25-.875 1.25-.40625 0-.6875-.10937-.84375-.10937-.17187 0-.21875.10937-.21875.3125 0 .1875.04688.3125.21875.3125.15625 0 .4375-.10938.84375-.10938.65625 0 1.10938.5 1.10938 1.46875 0 1.03125-.45313 1.45313-1.0625 1.45313-.53125 0-.89063-.39063-1.10938-1.0625-.0625-.1875-.17187-.28126-.34375-.28126-.25 0-.625.20313-.625.57813m0 0"/><path id="m" d="m.375-4.8125.29688.03125.07812-.1875c.125-.23437.25-.375.65625-.375h2.5c-.09375.32813-.29687.9375-1.0625 1.95313C2.0625-2.34375 1.51563-1.34375 1.51563-.375c0 .42188.3125.48438.64062.48438.29688 0 .57813-.0625.57813-.45313 0-1.3125.21875-2.25.67187-2.98437C4.125-4.48437 4.5625-5.09375 4.8125-6.15625L4.70313-6.25H.71875Zm0 0"/><path id="d" d="M.45313-2.25c0 1.5625.76562 2.35938 2.17187 2.35938.65625 0 1.54688-.34375 1.79688-1.34375l-.26563-.125C3.85938-.70312 3.5-.375 2.8125-.375c-1.125 0-1.375-1.17187-1.375-2.04687 0-1.39063.54688-1.95313 1.1875-1.95313.4375 0 .70313.3125.89063.82813.0625.14062.125.23437.29687.23437.1875 0 .54688-.125.54688-.48437 0-.42188-.60938-.90625-1.625-.90625C1.03125-4.70312.45313-3.5.45313-2.25m0 0"/><path id="e" d="M.29688 0h2.28125v-.26562C1.90625-.3125 1.875-.34375 1.875-.8125V-3c0-.25 0-.375.07813-.5.17187-.375.57812-.6875 1.10937-.6875.79688 0 .90625.57813.90625 1.15625V-.8125c0 .46875-.03125.5-.71875.54688V0h2.28125v-.26562c-.67187-.04688-.6875-.07813-.6875-.54688V-3c0-.25 0-.35937.0625-.51562.14063-.375.53125-.67188 1.0625-.67188.59375 0 .95313.32813.95313 1.15625V-.8125c0 .46875-.03125.5-.71875.54688V0H8.5v-.26562c-.67187-.04688-.70312-.07813-.70312-.54688v-2.39062c0-.95313-.51563-1.5-1.39063-1.5-.76562 0-1.3125.51562-1.65625.71875-.21875-.4375-.57812-.71875-1.23437-.71875-.71875 0-1.3125.48437-1.64063.71875l-.07812-.71875-1.45313.25v.21875l.35938.04687C.9375-4.14062 1-4.09375 1-3.76562V-.8125c0 .46875-.03125.5-.70312.54688Zm0 0"/><path id="h" d="M.39063 0h9.57812l.95313-3.28125H10.375c-.95312 2.3125-1.8125 2.625-3.92187 2.625-1.92188 0-2.32813-.1875-2.32813-.78125 0-.1875.0625-.46875.14063-.85937l2.07812-9.09375c.17188-.60938.32813-.89063.79688-.9375l1.125-.07813.14062-.53125H3.1875l-.14062.53125 1.10937.07813c.32813.03125.46875.1875.46875.5 0 .125-.03125.26562-.0625.4375l-2.25 9.84375c-.15625.65625-.32812.84375-.78125.89062L.5-.53125Zm0 0"/><path id="i" d="M.96875-5.14062c0 2.46875 1.21875 5.42187 5.85938 5.42187C8.15625.28125 9.4375.09375 10.625-.5l.92188-2.98437h-.5625C9.95313-1.60937 9.01563-.375 6.70313-.375c-2.17188 0-3.71875-1.39062-3.71875-4.28125 0-1.6875.4375-3.76562 1.32812-5.25.9375-1.57812 2.42188-2.67187 4.42188-2.67187 2.375 0 3.04687 1.09375 3.04687 3.14062h.57813l.67187-2.8125c-1.0625-.67187-2.8125-.98437-4.14062-.98437-3.51563 0-5.54688 1.65625-6.64063 3.40625C1.21875-8.15625.96875-6.4375.96875-5.14062m0 0"/><path id="j" d="M-.35937 0h4.21875l.125-.53125-1.03125-.10937c-.25-.01563-.34375-.14063-.34375-.3125q0-.16407.09375-.375C3.32813-2.53125 3.92188-3.75 4.625-5h4.1875l.46875 3.85938s-.10937.46875-.5.5l-1 .10937L7.6875 0h4.59375l.125-.53125-.71875-.0625c-.57812-.0625-.65625-.32812-.76562-1.09375l-1.35938-11.25H8.21875L5.07813-7.42187C4.125-5.75 2.5625-2.96875 1.875-1.84375 1.28125-.875.95313-.67187.375-.60937l-.60937.07812ZM5-5.71875l3.04688-5.48437.67187 5.48437Zm0 0"/><path id="n" d="M0 0h5.67188c4.51562 0 5.4375-2.32812 5.4375-3.875 0-1.98437-1.45313-2.82812-2.82813-3.09375L8.29688-7c2.5-.3125 3.54687-1.71875 3.54687-3.125 0-1.51562-.89062-2.8125-4.34375-2.8125H2.76563l-.125.53125 1.125.10938c.3125.01562.45312.15625.45312.45312 0 .125-.03125.28125-.07812.45313L1.9375-1.54687c-.14062.60937-.32812.82812-.78125.89062l-1.0625.125Zm3.75-1.4375c0-.14062.01563-.28125.04688-.40625L4.875-6.65625h.73438c1.85937 0 3.48437.54688 3.48437 2.67188 0 1.67187-1.01562 3.32812-3.51562 3.32812C4.09375-.65625 3.75-.95312 3.75-1.4375m1.26563-5.875.96875-4.32812c.14062-.5625.25-.65625 1.5-.65625 1.57812 0 2.45312.79687 2.45312 2.10937 0 1.95313-1.64062 2.875-3.70312 2.875Zm0 0"/><path id="o" d="M1.39063-9.82812h.5625c.59375-1.92188 1.26562-2.46875 3.10937-2.46875h1.28125L3.92188-1.51562c-.14063.57812-.34375.85937-.89063.90625l-1.23437.07812L1.67188 0h5.75l.14062-.53125-1.375-.07812c-.375-.03126-.53125-.1875-.53125-.5 0-.125.01563-.25.0625-.40625l2.42188-10.78125H9.3125c1.8125 0 2.1875.46875 2.1875 1.48437 0 .28125-.01562.59375-.04687.98438h.5625l.70312-3.10938h-10.625Zm0 0"/><path id="p" d="M1.53125-3.20312c0 2.53125 1.85938 3.48437 4.5625 3.48437 2.54688 0 4.875-.54687 5.90625-4.90625l1.59375-6.76562c.15625-.625.32813-.89063.79688-.9375l1.03125-.07813.125-.53125H10.4375l-.14062.53125 1.09375.07813c.3125.03125.46875.1875.46875.53125 0 .10937-.01563.25-.0625.40625l-1.5 6.53125C9.71875-2.375 8.79688-.375 6.1875-.375c-1.65625 0-2.79687-.71875-2.79687-2.79687 0-.51563.07812-1.14063.23437-1.85938l1.48438-6.35937c.17187-.625.3125-.89063.78125-.9375l1.03125-.07813.125-.53125H1.9375l-.14062.53125 1.10937.07813c.3125.03125.45313.1875.45313.5 0 .125-.01563.26562-.0625.4375l-1.5625 6.59375c-.14063.59375-.20313 1.10937-.20313 1.59375m0 0"/></defs><path fill="none" stroke="#000" stroke-miterlimit="10" stroke-width=".398" d="M33 140.70703h50.95704l-30.98048-37.91406Zm0 0"/><use xlink:href="#a" x="6.63267" y="124.24342"/><use xlink:href="#b" x="11.75699" y="124.24342"/><use xlink:href="#c" x="15.46839" y="124.24342"/><use xlink:href="#d" x="22.69248" y="124.24342"/><use xlink:href="#e" x="27.32925" y="124.24342"/><use xlink:href="#a" x="75.49613" y="124.24342"/><use xlink:href="#b" x="80.62045" y="124.24342"/><use xlink:href="#f" x="84.33185" y="124.24342"/><use xlink:href="#d" x="91.55794" y="124.24342"/><use xlink:href="#e" x="96.19471" y="124.24342"/><use xlink:href="#a" x="43.81594" y="154.09591"/><use xlink:href="#b" x="48.94026" y="154.09591"/><use xlink:href="#g" x="52.65166" y="154.09591"/><use xlink:href="#d" x="59.87776" y="154.09591"/><use xlink:href="#e" x="64.51452" y="154.09591"/><use xlink:href="#h" x="14.74547" y="160.67264"/><use xlink:href="#i" x="90.98666" y="160.97127"/><use xlink:href="#j" x="46.55749" y="95.76521"/><path fill="none" stroke="#000" stroke-miterlimit="10" stroke-width=".398" d="M165.4922 140.70703h152.86329L225.41408 26.97655Zm0 0"/><use xlink:href="#k" x="159.09707" y="86.33506"/><use xlink:href="#b" x="164.22139" y="86.33506"/><use xlink:href="#l" x="167.93279" y="86.33506"/><use xlink:href="#d" x="175.15889" y="86.33506"/><use xlink:href="#e" x="179.79565" y="86.33506"/><use xlink:href="#m" x="278.9135" y="86.33506"/><use xlink:href="#b" x="284.03782" y="86.33506"/><use xlink:href="#a" x="287.74922" y="86.33506"/><use xlink:href="#d" x="294.97332" y="86.33506"/><use xlink:href="#e" x="299.61009" y="86.33506"/><use xlink:href="#m" x="227.26041" y="153.98605"/><use xlink:href="#b" x="232.38473" y="153.98605"/><use xlink:href="#g" x="236.09613" y="153.98605"/><use xlink:href="#d" x="243.32023" y="153.98605"/><use xlink:href="#e" x="247.957" y="153.98605"/><use xlink:href="#n" x="146.22225" y="160.67264"/><use xlink:href="#o" x="325.38311" y="160.67264"/><use xlink:href="#p" x="217.91016" y="19.66983"/></svg>