<svg xmlns="http://www.w3.org/2000/svg" xmlns:xlink="http://www.w3.org/1999/xlink" width="215.361pt" height="104.999pt" viewBox="0 0 215.361 104.999"><defs><path id="a" d="M.1875-.07812.25 0h2.51563l.21875-.875-.1875-.03125c-.14063.29688-.23438.34375-.48438.34375H.84375c.09375-.25.35938-.64062.95313-1 .60937-.39062 1.01562-.67187 1.01562-1.29687 0-.8125-.54687-1.10938-1.21875-1.10938-.78125 0-1.28125.4375-1.28125.84375 0 .21875.26563.32813.40625.32813.10938 0 .17188-.0625.20313-.1875.09374-.4375.29687-.75.625-.75.375 0 .51562.32812.51562.75 0 .51562-.21875.90625-.78125 1.39062C.51563-.9375.25-.5.1875-.07812m0 0"/><path id="b" d="m.29688.73438.15625.125c.28125-.28126.78125-.70313.78125-1.15625 0-.3125-.17188-.5625-.45313-.5625-.23437 0-.34375.17187-.34375.32812 0 .20313.17188.32813.17188.5625 0 .25-.125.5-.3125.70313m0 0"/><path id="c" d="M.625 0h2v-.1875l-.45312-.04687c-.125 0-.1875-.04688-.1875-.26563v-3.42187l-.04688-.04688L.64063-3.75v.17188l.46875.0625c.125.01562.17187.0625.17187.25V-.5c0 .21875-.0625.26563-.20312.26563L.625-.1875Zm0 0"/><path id="f" d="m.125-1.17187.07813.14062H1.75v.59375c0 .17188-.0625.20313-.1875.21875l-.375.03125V0h1.64063v-.1875L2.5625-.21875c-.125-.01562-.15625-.04687-.15625-.21875v-.59375h.57813v-.32812h-.57813v-2.53125h-.5625C1.26563-3.04687.65625-2.07812.125-1.17187m.5-.1875C.95313-1.95312 1.32813-2.59375 1.75-3.25v1.89063Zm0 0"/><path id="g" d="M.26563-.64062c0 .23437.34375.70312 1.21875.70312C2.5.0625 2.92188-.53125 2.92188-1.25c0-.6875-.40625-1.25-1.25-1.25-.35938 0-.6875.15625-.89063.32813l.10938-.96875c.03124-.17188.04687-.1875.1875-.1875h1.5l.17187-.5-.03125-.0625H.64063l-.04688.04687-.125 1.9375.1875.125c.23438-.28125.46875-.40625.76563-.40625.39062 0 .75.28125.75 1.01563 0 .59375-.20313 1.01562-.65625 1.01562-.34375 0-.53125-.25-.67188-.67187C.8125-.9375.73438-1 .625-1c-.15625 0-.35937.14063-.35937.35938m0 0"/><path id="k" d="M.23438-1.84375C.23438-.625.65625.0625 1.64063.0625c.9375 0 1.39062-.57812 1.39062-1.32812 0-.8125-.51562-1.21875-1.14062-1.21875-.42188 0-.75.26562-.92188.5 0-.92188.23438-1.75.78125-1.75.25 0 .42188.23437.51563.59375C2.29688-3.0625 2.35938-3 2.46875-3c.14063 0 .375-.10937.375-.29687 0-.26563-.32812-.67188-1.0625-.67188-.95312 0-1.54687.71875-1.54687 2.125m.73437.46875c0-.34375.23438-.73437.65625-.73437.35938 0 .67188.29687.67188.96875 0 .5625-.1875.98437-.64063.98437-.46875 0-.6875-.54687-.6875-1.21875m0 0"/><path id="l" d="M.17188-.64062c0 .23437.35937.70312 1.28125.70312.89062 0 1.4375-.40625 1.4375-1.15625 0-.79687-.70313-1-.98438-1.03125v-.03125c.32813-.0625.82813-.28125.82813-.84375 0-.71875-.60938-.96875-1.21875-.96875-.73438 0-1.20313.40625-1.20313.73438 0 .21875.25.3125.35938.3125s.15624-.04688.1875-.15625c.14062-.40625.32812-.65625.625-.65625.40625 0 .5.42187.5.71875 0 .28125-.07813.78125-.53125.78125-.26563 0-.4375-.07813-.54688-.07813-.09375 0-.125.07813-.125.20313 0 .10937.03125.1875.125.1875.10938 0 .28125-.0625.54688-.0625.39062 0 .6875.3125.6875.90625 0 .65625-.28125.92187-.67188.92187-.32812 0-.5625-.25-.6875-.67187C.73438-.9375.67188-1 .5625-1c-.15625 0-.39062.125-.39062.35938m0 0"/><path id="m" d="m.23438-3 .1875.01563.04687-.10938C.54688-3.25.625-3.32812.875-3.32812h1.5625c-.0625.20312-.1875.59375-.65625 1.21875-.5.65625-.82812 1.26562-.82812 1.875 0 .26562.1875.29687.39062.29687.1875 0 .35938-.03125.35938-.28125 0-.8125.14062-1.40625.42187-1.85937.45313-.71875.71875-1.09375.875-1.75l-.0625-.0625H.45313Zm0 0"/><path id="d" d="M.28125-1.40625C.28125-.42187.76563.0625 1.64063.0625c.40625 0 .95312-.20312 1.125-.82812l-.17188-.07813c-.1875.40625-.42187.60938-.84375.60938-.70312 0-.85937-.73438-.85937-1.26563 0-.875.34375-1.21875.75-1.21875.26562 0 .4375.1875.54687.5.04688.09375.07813.15625.1875.15625.125 0 .34375-.07812.34375-.29687 0-.26563-.39062-.5625-1.01562-.5625-1.0625 0-1.42188.75-1.42188 1.51562m0 0"/><path id="e" d="M.1875 0h1.42188v-.17187c-.42188-.03126-.4375-.03126-.4375-.34375V-1.875c0-.14062 0-.23437.04687-.3125.10938-.23437.35938-.42187.6875-.42187.5 0 .5625.35937.5625.71875v1.375c0 .3125-.01562.3125-.4375.34375V0h1.42188v-.17187c-.42188-.03126-.4375-.03126-.4375-.34375V-1.875c0-.14062 0-.21875.04687-.3125.07813-.23437.32813-.42187.65625-.42187.375 0 .59375.20312.59375.71875v1.375c0 .3125-.01562.3125-.4375.34375V0h1.42188v-.17187c-.42188-.03126-.4375-.03126-.4375-.34375V-2c0-.59375-.3125-.92187-.875-.92187-.46875 0-.8125.3125-1.01563.4375-.14062-.26563-.375-.4375-.78125-.4375-.4375 0-.8125.29687-1.01562.4375l-.0625-.4375-.89063.14062v.14063l.21875.03125c.14063.03125.1875.04687.1875.26562v1.82813c0 .3125-.01562.3125-.4375.34375Zm0 0"/><path id="h" d="M.25 0h5.96875l.59375-2.04687h-.34375C5.875-.60937 5.34375-.40625 4.03125-.40625c-1.20312 0-1.45312-.10937-1.45312-.48437 0-.125.03125-.29688.07812-.53125l1.3125-5.6875c.09375-.375.1875-.5625.48438-.57813l.70312-.04687.07813-.34375h-3.25l-.07813.34375.6875.04687c.20313.01563.28125.10938.28125.3125 0 .07813 0 .15625-.03125.26563L1.4375-.96875c-.09375.40625-.20312.53125-.48437.5625L.3125-.32812Zm0 0"/><path id="i" d="M.60938-3.20312c0 1.53125.75 3.375 3.65625 3.375.82812 0 1.625-.10938 2.375-.48438l.5625-1.85937h-.34375C6.20313-1 5.625-.23437 4.1875-.23437c-1.35937 0-2.32812-.875-2.32812-2.67188 0-1.0625.28124-2.34375.84375-3.28125.57812-.98437 1.5-1.65625 2.75-1.65625 1.48437 0 1.90625.67188 1.90625 1.95313h.35937l.42188-1.75c-.67188-.42188-1.76563-.625-2.59375-.625-2.1875 0-3.45313 1.03125-4.14063 2.125C.75-5.09375.60938-4.01562.60938-3.20312m0 0"/><path id="j" d="M-.21875 0h2.625l.07813-.32812-.64063-.0625C1.6875-.40625 1.625-.48437 1.625-.59375c0-.0625.03125-.15625.0625-.23437.39063-.75.76563-1.5 1.1875-2.29688H5.5l.28125 2.42188s-.0625.28124-.29687.3125l-.625.0625L4.79688 0h2.875l.0625-.32812-.4375-.04688C6.9375-.40625 6.875-.57812 6.8125-1.0625l-.84375-7.01562H5.125l-1.95312 3.4375c-.59375 1.04687-1.5625 2.79687-2 3.48437-.375.60938-.57813.73438-.9375.76563l-.39063.0625ZM3.125-3.5625 5.01563-7l.42187 3.4375Zm0 0"/><path id="n" d="M0 0h3.54688C6.35938 0 6.9375-1.45312 6.9375-2.42187c0-1.23438-.90625-1.76563-1.76562-1.92188L5.1875-4.375c1.54688-.1875 2.20313-1.0625 2.20313-1.95312 0-.9375-.5625-1.75-2.70313-1.75H1.73438l-.07813.34375.6875.0625c.20313 0 .29688.09375.29688.28125 0 .07812-.03125.17187-.0625.28125l-1.375 6.14062C1.125-.57812 1-.45312.71875-.40625L.0625-.32812Zm2.32813-.89062c0-.09376.01562-.17188.04687-.26563l.67188-3H3.5c1.15625 0 2.17188.34375 2.17188 1.67188 0 1.04687-.625 2.07812-2.1875 2.07812-.92188 0-1.15625-.1875-1.15625-.48437M3.125-4.5625l.60938-2.70312c.09375-.34375.15625-.40625.9375-.40625.98437 0 1.53125.48437 1.53125 1.3125 0 1.21875-1.01563 1.79687-2.3125 1.79687Zm0 0"/><path id="o" d="M.875-6.14062h.34375c.375-1.1875.79688-1.53125 1.9375-1.53125h.8125L2.45313-.9375c-.09375.35938-.21875.53125-.5625.54688l-.76563.0625L1.04688 0h3.59375l.07812-.32812-.85937-.0625c-.23438 0-.32813-.10938-.32813-.3125 0-.0625.01563-.14063.03125-.23438l1.51563-6.73437h.73437c1.125 0 1.375.29687 1.375.92187q0 .25781-.04687.60938H7.5l.4375-1.9375H1.29688Zm0 0"/><path id="p" d="M.95313-2c0 1.57813 1.15625 2.17188 2.84375 2.17188 1.59375 0 3.04687-.32813 3.6875-3.04688l1-4.23437c.09375-.39063.20312-.5625.5-.57813l.64062-.04687.07813-.34375h-3.1875l-.09375.34375.6875.04687c.1875.01563.29687.10938.29687.32813 0 .0625-.01562.15625-.04687.25l-.9375 4.07812c-.35938 1.54688-.9375 2.79688-2.5625 2.79688-1.03125 0-1.75-.45313-1.75-1.73438 0-.32812.04687-.73437.15625-1.17187l.92187-3.96875c.10938-.39063.1875-.5625.48438-.57813l.65625-.04687.0625-.34375h-3.1875l-.07813.34375.6875.04687c.20313.01563.28125.10938.28125.3125 0 .07813 0 .15625-.03125.26563L1.07813-3c-.07813.375-.125.70313-.125 1m0 0"/></defs><path fill="none" stroke="#000" stroke-miterlimit="10" stroke-width=".39732" d="M20.58984 87.88672h31.79689L33.05469 64.23046Zm0 0"/><use xlink:href="#a" x="4.13872" y="77.61498"/><use xlink:href="#b" x="7.33596" y="77.61498"/><use xlink:href="#c" x="9.65163" y="77.61498"/><use xlink:href="#d" x="14.15899" y="77.61498"/><use xlink:href="#e" x="17.05202" y="77.61498"/><use xlink:href="#a" x="47.10523" y="77.61498"/><use xlink:href="#b" x="50.30247" y="77.61498"/><use xlink:href="#f" x="52.61814" y="77.61498"/><use xlink:href="#d" x="57.12675" y="77.61498"/><use xlink:href="#e" x="60.01978" y="77.61498"/><use xlink:href="#a" x="27.33888" y="96.24071"/><use xlink:href="#b" x="30.53612" y="96.24071"/><use xlink:href="#g" x="32.85179" y="96.24071"/><use xlink:href="#d" x="37.35915" y="96.24071"/><use xlink:href="#e" x="40.25219" y="96.24071"/><use xlink:href="#h" x="9.1997" y="100.34454"/><use xlink:href="#i" x="56.77056" y="100.53099"/><use xlink:href="#j" x="29.04881" y="59.8457"/><path fill="none" stroke="#000" stroke-miterlimit="10" stroke-width=".39732" d="M103.25784 87.88672h95.38284l-57.9922-70.96487Zm0 0"/><use xlink:href="#k" x="99.26846" y="53.96116"/><use xlink:href="#b" x="102.4657" y="53.96116"/><use xlink:href="#l" x="104.78137" y="53.96116"/><use xlink:href="#d" x="109.28873" y="53.96116"/><use xlink:href="#e" x="112.18176" y="53.96116"/><use xlink:href="#m" x="174.02764" y="53.96116"/><use xlink:href="#b" x="177.22488" y="53.96116"/><use xlink:href="#a" x="179.54055" y="53.96116"/><use xlink:href="#d" x="184.04916" y="53.96116"/><use xlink:href="#e" x="186.94219" y="53.96116"/><use xlink:href="#m" x="141.79827" y="96.17292"/><use xlink:href="#b" x="144.99551" y="96.17292"/><use xlink:href="#g" x="147.31118" y="96.17292"/><use xlink:href="#d" x="151.81978" y="96.17292"/><use xlink:href="#e" x="154.71282" y="96.17292"/><use xlink:href="#n" x="91.2333" y="100.34454"/><use xlink:href="#o" x="203.02361" y="100.34454"/><use xlink:href="#p" x="135.96458" y="12.36359"/></svg>