<svg xmlns="http://www.w3.org/2000/svg" xmlns:xlink="http://www.w3.org/1999/xlink" width="223.99pt" height="109.212pt" viewBox="0 0 223.99 109.212"><defs><path id="a" d="M.1875-.07812.25 0h2.60938l.23437-.90625-.1875-.03125c-.15625.3125-.26562.35938-.5.35938H.85938c.10937-.26563.39062-.65625 1-1.04688.625-.39062 1.0625-.6875 1.0625-1.34375 0-.84375-.57813-1.14062-1.28125-1.14062-.8125 0-1.3125.45312-1.3125.85937 0 .23438.26562.34375.40625.34375.125 0 .1875-.0625.21874-.1875.09376-.4375.3125-.76562.65626-.76562.39062 0 .51562.34375.51562.76562 0 .53125-.21875.95313-.79687 1.45313C.53125-.96875.25-.51562.1875-.07812m0 0"/><path id="b" d="m.3125.75.15625.14063c.29688-.28126.8125-.71875.8125-1.20313 0-.3125-.17187-.57812-.46875-.57812-.23437 0-.35937.1875-.35937.34375 0 .21874.17187.32812.17187.57812S.5.54688.3125.75m0 0"/><path id="c" d="M.65625 0h2.04688v-.20312L2.25-.23438c-.14062-.01562-.20312-.0625-.20312-.28124V-4.0625L2-4.10937l-1.32812.21875v.17187l.48437.07813c.125.01562.17188.0625.17188.26562v2.85938c0 .21874-.0625.26562-.20313.28124l-.46875.03126Zm0 0"/><path id="f" d="m.125-1.21875.09375.15625h1.57813v.60938c0 .17187-.0625.20312-.17188.21875l-.39062.03124V0H2.9375v-.20312l-.28125-.01563c-.125-.03125-.17187-.0625-.17187-.23437v-.60938h.60937v-.34375h-.60937v-2.625h-.57813C1.3125-3.14062.67188-2.14062.125-1.21875m.53125-.1875c.32813-.60937.71875-1.26562 1.14063-1.95312v1.95312Zm0 0"/><path id="g" d="M.26563-.65625c0 .23438.35937.73438 1.28125.73438 1.04687 0 1.46875-.625 1.46875-1.375 0-.71875-.40625-1.29688-1.28125-1.29688-.375 0-.71875.17188-.9375.34375l.125-1c.03124-.17187.04687-.20312.20312-.20312h1.54688l.17187-.51563-.03125-.0625H.65625l-.04687.0625-.125 2 .20312.125c.23438-.28125.46875-.42187.78125-.42187.40625 0 .76563.29687.76563 1.04687 0 .60938-.20313 1.04688-.65625 1.04688-.35938 0-.5625-.25-.70313-.6875-.04687-.10938-.10937-.17188-.23437-.17188-.15626 0-.375.14063-.375.375m0 0"/><path id="k" d="M.23438-1.90625C.23438-.64062.6875.07813 1.70313.07813c.96875 0 1.4375-.60938 1.4375-1.39063 0-.82812-.53125-1.25-1.17188-1.25-.45312 0-.78125.26563-.96875.5 0-.9375.23438-1.79687.79688-1.79687.26562 0 .45312.23437.54687.60937.03125.07813.09375.14063.21875.14063.14063 0 .375-.09375.375-.3125 0-.26563-.32812-.6875-1.09375-.6875-.98437 0-1.60937.73437-1.60937 2.20312M1-1.42187c0-.35938.23438-.75.6875-.75.35938 0 .6875.29687.6875.98437 0 .59375-.1875 1.01563-.65625 1.01563C1.23438-.17187 1-.71875 1-1.42187m0 0"/><path id="l" d="M.1875-.65625c0 .23438.35938.73438 1.32813.73438C2.42188.07813 3-.35937 3-1.125c0-.84375-.73437-1.04687-1.01562-1.07812v-.03125c.32812-.0625.84375-.28125.84375-.875 0-.75-.625-1-1.26563-1-.75 0-1.23437.42187-1.23437.76562 0 .21875.25.32813.375.32813.09374 0 .15624-.0625.1875-.15625.14062-.4375.34375-.6875.65625-.6875.42187 0 .51562.4375.51562.73437 0 .29688-.07812.8125-.5625.8125-.26562 0-.45312-.07812-.5625-.07812-.09375 0-.125.07812-.125.20312s.03125.20313.125.20313c.10938 0 .29688-.07813.5625-.07813.40625 0 .70313.32813.70313.95313 0 .67187-.28125.9375-.6875.9375-.32813 0-.57813-.25-.71875-.6875-.03126-.10938-.10938-.1875-.21876-.1875-.15624 0-.39062.14062-.39062.39062m0 0"/><path id="m" d="m.25-3.10937.1875.03125.04688-.125c.07812-.15625.15625-.25.42187-.25h1.60938c-.0625.21875-.1875.60937-.67188 1.26562C1.32813-1.51562.98438-.85937.98438-.25c0 .28125.1875.32813.40625.32813.1875 0 .375-.04688.375-.29688 0-.84375.14062-1.45312.4375-1.92187.46875-.75.73437-1.14063.90625-1.82813l-.07813-.0625H.46875Zm0 0"/><path id="d" d="M.29688-1.45312c0 1.01562.5 1.53125 1.40625 1.53125.42187 0 .98437-.21875 1.15625-.875L2.67188-.875c-.1875.42188-.42188.625-.85938.625-.71875 0-.89062-.75-.89062-1.3125 0-.89062.35937-1.25.78125-1.25.26562 0 .4375.1875.5625.51563.04687.09375.07812.15625.1875.15625.125 0 .35937-.07813.35937-.3125 0-.26563-.39062-.57813-1.04687-.57813-1.10938 0-1.46875.78125-1.46875 1.57813m0 0"/><path id="e" d="M.1875 0h1.46875v-.17187c-.42187-.03126-.4375-.04688-.4375-.35938V-1.9375c0-.15625 0-.23437.04688-.32812.10937-.23438.375-.4375.70312-.4375.51563 0 .59375.375.59375.75v1.42187c0 .3125-.03125.32813-.46875.35938V0h1.48438v-.17187C3.14063-.20313 3.125-.21875 3.125-.53125V-1.9375c0-.15625 0-.23437.04688-.32812.07812-.25.34375-.4375.6875-.4375.375 0 .60937.21875.60937.75v1.42187c0 .3125-.03125.32813-.46875.35938V0h1.48438v-.17187c-.4375-.03126-.45313-.04688-.45313-.35938V-2.0625c0-.60937-.32812-.96875-.90625-.96875-.48437 0-.84375.32813-1.0625.46875-.14062-.28125-.375-.46875-.79687-.46875-.46875 0-.84375.3125-1.04688.46875l-.0625-.46875-.9375.15625v.14063l.23438.03125c.15625.03125.20312.0625.20312.28125v1.89062c0 .3125-.03125.32813-.46875.35938Zm0 0"/><path id="h" d="M.25 0h6.1875l.625-2.125h-.35937c-.625 1.5-1.17188 1.70313-2.53125 1.70313-1.23438 0-1.51563-.125-1.51563-.5 0-.125.04688-.3125.09375-.5625l1.35938-5.875c.09375-.39063.20312-.57813.5-.59375l.73437-.0625.07813-.34375H2.0625l-.09375.34375.71875.0625c.20313 0 .29688.10937.29688.3125q0 .11718-.04688.28125L1.48438-1c-.09376.42188-.20313.54688-.5.57813l-.65625.07812Zm0 0"/><path id="i" d="M.625-3.3125c0 1.59375.79688 3.5 3.78125 3.5.85938 0 1.6875-.125 2.45313-.51562L7.45313-2.25h-.35938c-.67187 1.20313-1.26562 2-2.76562 2-1.39063 0-2.40625-.89062-2.40625-2.76562 0-1.09375.29687-2.42188.875-3.39063C3.39063-7.42187 4.34375-8.125 5.64063-8.125c1.53125 0 1.96875.70313 1.96875 2.03125h.375l.4375-1.8125c-.6875-.4375-1.82813-.64062-2.67188-.64062-2.28125 0-3.59375 1.0625-4.29687 2.1875C.78125-5.26562.625-4.15625.625-3.3125m0 0"/><path id="j" d="M-.23437 0H2.5l.07813-.34375-.67188-.0625C1.75-.42187 1.6875-.5 1.6875-.625c0-.0625.01563-.14062.0625-.23437.39063-.78125.78125-1.5625 1.23438-2.375h2.71875L6-.73437s-.07812.29687-.32812.32812l-.64063.0625L4.96875 0H7.9375l.07813-.34375-.46875-.04687c-.375-.03125-.42188-.20313-.48438-.70313l-.89062-7.26562H5.3125l-2.03125 3.5625c-.625 1.07812-1.625 2.875-2.07812 3.59375C.82813-.5625.625-.4375.25-.40625l-.40625.0625Zm3.46875-3.6875L5.1875-7.23437 5.625-3.6875Zm0 0"/><path id="n" d="M0 0h3.67188c2.90625 0 3.5-1.5 3.5-2.5 0-1.28125-.9375-1.82812-1.82813-2l.01563-.03125c1.60937-.1875 2.29687-1.09375 2.29687-2.01562 0-.96875-.57812-1.8125-2.8125-1.8125h-3.0625l-.07812.34375.73437.0625c.20313.01562.28125.10937.28125.29687 0 .07813-.01562.1875-.04687.29688L1.25-1c-.09375.39063-.20312.53125-.5.57813l-.6875.07812Zm2.42188-.92187c0-.09376.01562-.1875.03125-.28126l.70312-3.09374H3.625c1.20313 0 2.25.34375 2.25 1.71875 0 1.09375-.65625 2.15625-2.28125 2.15625-.9375 0-1.17187-.20313-1.17187-.5m.8125-3.79688L3.875-7.51562c.07813-.35938.15625-.4375.95313-.4375 1.01562 0 1.59375.51562 1.59375 1.375 0 1.25-1.0625 1.85937-2.39063 1.85937Zm0 0"/><path id="o" d="M.90625-6.35937h.35938c.375-1.23438.8125-1.59375 2-1.59375h.84375L2.53125-.98437c-.09375.375-.21875.5625-.57812.57812l-.79688.0625L1.07813 0h3.71875l.09375-.34375L4-.40625c-.25 0-.34375-.10937-.34375-.3125 0-.07812.01563-.15625.03125-.26562l1.57813-6.96875h.75c1.17187 0 1.42187.3125 1.42187.96875 0 .1875-.01562.39062-.04687.625h.375l.45312-2h-6.875Zm0 0"/><path id="p" d="M.98438-2.07812C.98438-.4375 2.1875.1875 3.9375.1875c1.64063 0 3.14063-.35937 3.8125-3.17187l1.03125-4.375c.10938-.40625.20313-.57813.51563-.59375l.67187-.0625.07813-.34375h-3.3125l-.09375.34375.71875.0625c.20312 0 .3125.10937.3125.32812 0 .07813-.01563.17188-.04688.26563l-.98437 4.21875C6.28125-1.53125 5.6875-.25 4-.25c-1.0625 0-1.8125-.45312-1.8125-1.79687 0-.32813.04688-.75.15625-1.20313l.96875-4.10937c.09375-.40625.1875-.57813.5-.59375l.65625-.0625.07813-.34375H1.25l-.09375.34375.71875.0625c.20313 0 .29688.10937.29688.3125 0 .07812-.01563.17187-.03125.28125L1.125-3.09375c-.09375.375-.14062.71875-.14062 1.01563m0 0"/></defs><path fill="none" stroke="#000" stroke-miterlimit="10" stroke-width=".39565" d="M22.1211 90.8711h32.92576L35.02734 66.375Zm0 0"/><use xlink:href="#a" x="5.0834" y="80.2321"/><use xlink:href="#b" x="8.39451" y="80.2321"/><use xlink:href="#c" x="10.79264" y="80.2321"/><use xlink:href="#d" x="15.46053" y="80.2321"/><use xlink:href="#e" x="18.45659" y="80.2321"/><use xlink:href="#a" x="49.57935" y="80.2321"/><use xlink:href="#b" x="52.89045" y="80.2321"/><use xlink:href="#f" x="55.28859" y="80.2321"/><use xlink:href="#d" x="59.95777" y="80.2321"/><use xlink:href="#e" x="62.95383" y="80.2321"/><use xlink:href="#a" x="29.10905" y="99.52092"/><use xlink:href="#b" x="32.42015" y="99.52092"/><use xlink:href="#g" x="34.81829" y="99.52092"/><use xlink:href="#d" x="39.48747" y="99.52092"/><use xlink:href="#e" x="42.48353" y="99.52092"/><use xlink:href="#h" x="10.32558" y="103.77126"/><use xlink:href="#i" x="59.58913" y="103.96387"/><use xlink:href="#j" x="30.88027" y="61.83087"/><path fill="none" stroke="#000" stroke-miterlimit="10" stroke-width=".39565" d="M107.73044 90.8711h98.79684l-60.0703-73.50389Zm0 0"/><use xlink:href="#k" x="103.60156" y="55.7289"/><use xlink:href="#b" x="106.91266" y="55.7289"/><use xlink:href="#l" x="109.3108" y="55.7289"/><use xlink:href="#d" x="113.97998" y="55.7289"/><use xlink:href="#e" x="116.97604" y="55.7289"/><use xlink:href="#m" x="181.03287" y="55.7289"/><use xlink:href="#b" x="184.34397" y="55.7289"/><use xlink:href="#a" x="186.74211" y="55.7289"/><use xlink:href="#d" x="191.41" y="55.7289"/><use xlink:href="#e" x="194.40606" y="55.7289"/><use xlink:href="#m" x="147.65272" y="99.45043"/><use xlink:href="#b" x="150.96382" y="99.45043"/><use xlink:href="#g" x="153.36196" y="99.45043"/><use xlink:href="#d" x="158.02984" y="99.45043"/><use xlink:href="#e" x="161.02591" y="99.45043"/><use xlink:href="#n" x="95.27762" y="103.77126"/><use xlink:href="#o" x="211.06617" y="103.77126"/><use xlink:href="#p" x="141.60833" y="12.64377"/></svg>