<svg xmlns="http://www.w3.org/2000/svg" xmlns:xlink="http://www.w3.org/1999/xlink" width="178.522pt" height="84.668pt" viewBox="0 0 178.522 84.668"><defs><path id="a" d="m1.6875-1.26562.48438.48437L4.1875-2.8125 6.23438-.78125l.46875-.48437-2.03125-2.01563 2.03125-2.04687-.46875-.46875L4.1875-3.76562 2.17188-5.79687l-.48438.46875 2.03125 2.04687Zm0 0"/><path id="b" d="M-.375 0h2.90625l.07813-.32812-.67188-.07813C1.73438-.4375 1.71875-.5 1.71875-.57812c0-.17188 1.4375-2.04688 2.21875-2.98438h.04688c.39062.9375 1.21875 2.75 1.21875 2.95313 0 .10937-.07813.20312-.25.21874l-.60938.0625L4.28125 0H7.4375L7.5-.32812c-.76562-.0625-.96875-.10938-1.20312-.60938-.28125-.59375-1.03125-2.28125-1.5625-3.53125.78125-.95312 2.04687-2.32812 2.70312-2.92187.25-.23438.48438-.28125 1.10938-.34375L8.625-8.0625H5.9375l-.0625.32813.40625.04687c.23438.01563.28125.04688.28125.1875 0 .15625-1.29687 1.71875-2.01562 2.54688h-.03125c-.32813-.75-1-2.35938-1-2.53125 0-.125.0625-.1875.25-.1875l.59375-.0625.0625-.32813H1.40625l-.07812.32813c.6875.0625.90625.09375 1.09375.5.34375.76562.85937 2.09375 1.32812 3.17187C2.84375-2.98437 1.67188-1.57812 1-.85937c-.375.40625-.57812.45312-1.29687.53125Zm0 0"/><path id="c" d="M0 0h2.75l.0625-.32812L2.35938-.375c-.34375-.01562-.53125-.10937-.53125-.35937 0-.625.10937-.96875.25-1.57813l1.0625-4.76562h.01562L4.5625-.14062h.32813l4.53125-6.9375h.03125L8.03125-.96875c-.10937.39063-.21875.53125-.5.5625l-.64062.07813L6.82813 0H10l.0625-.32812-.6875-.07813c-.20312-.01562-.29687-.10937-.29687-.29687 0-.07813.01562-.17188.04687-.26563l1.39063-6.125c.10937-.40625.1875-.5625.48437-.57812l.65625-.0625.07813-.32813H9.45313C8.82813-7 8.14063-5.95312 7.4375-4.875L5.375-1.71875h-.04687l-.65625-3.25C4.4375-6.01562 4.20313-7.01562 4-8.0625H1.75l-.07812.32813.6875.0625c.20312.01562.29687.10937.29687.3125 0 .07812-.01562.15625-.03125.26562L1.51563-2.3125C1.375-1.70312 1.23437-1.25 1.10938-.875.96875-.5.75-.40625.42188-.375L.0625-.32812Zm0 0"/><path id="d" d="M.25 0h5.96875l.59375-2.04687h-.34375C5.875-.60937 5.32813-.40625 4.01563-.40625c-1.1875 0-1.45313-.10937-1.45313-.48437 0-.125.04688-.29688.09375-.53125l1.29688-5.67188c.10937-.39062.20312-.5625.5-.57812l.70312-.0625.07813-.32813h-3.25l-.09376.32813.70313.0625c.20313 0 .28125.10937.28125.29687 0 .07813-.01562.17188-.03125.28125L1.4375-.96875c-.09375.40625-.20312.53125-.48437.5625L.3125-.32812Zm0 0"/></defs><path fill="none" stroke="#000" stroke-miterlimit="10" stroke-width=".39694" d="M16.875 67.75781h141.18358L65.58593 16.57813Zm0 0"/><use xlink:href="#a" x="12.68427" y="70.65395"/><use xlink:href="#b" x="4.24536" y="80.20251"/><use xlink:href="#a" x="153.86268" y="70.65395"/><use xlink:href="#c" x="162.43806" y="80.20251"/><use xlink:href="#a" x="61.39128" y="19.47663"/><use xlink:href="#d" x="62.08556" y="12.19717"/></svg>