<svg xmlns="http://www.w3.org/2000/svg" xmlns:xlink="http://www.w3.org/1999/xlink" width="254.841pt" height="174.349pt" viewBox="0 0 254.841 174.349"><defs><path id="a" d="M-.35937 0h4.20312l.125-.53125L2.9375-.64062c-.23437-.01563-.34375-.14063-.34375-.3125 0-.09376.04688-.23438.10938-.375.60937-1.1875 1.20312-2.40625 1.90625-3.65625h4.1875L9.25-1.125s-.10937.45313-.5.48438l-.98437.10937L7.65625 0H12.25l.10938-.53125-.71875-.0625c-.5625-.0625-.64063-.3125-.75-1.09375L9.53125-12.90625H8.20313l-3.14063 5.5c-.95312 1.67188-2.5 4.45313-3.20312 5.5625C1.26563-.875.95313-.67187.375-.60937l-.60937.07812Zm5.34375-5.6875 3.03125-5.48437.67187 5.48437Zm0 0"/><path id="b" d="M0 0h5.65625c4.5 0 5.42188-2.32812 5.42188-3.875 0-1.95312-1.45313-2.8125-2.82813-3.07812l.03125-.03125C10.75-7.28125 11.8125-8.6875 11.8125-10.09375c0-1.51562-.89062-2.8125-4.32812-2.8125H2.76563l-.125.54688 1.10937.09375c.3125.01562.45313.15625.45313.45312 0 .125-.03125.28125-.07813.46875L1.92188-1.54687c-.14063.60937-.3125.82812-.76563.89062l-1.0625.125Zm3.73438-1.42187c0-.14063.01562-.28126.0625-.42188L4.85938-6.625h.73437c1.84375 0 3.46875.53125 3.46875 2.65625 0 1.67188-1 3.3125-3.5 3.3125-1.46875 0-1.82812-.29687-1.82812-.76562M5-7.28125l.96875-4.32812c.14063-.5625.25-.65625 1.5-.65625 1.5625 0 2.4375.79687 2.4375 2.10937 0 1.9375-1.625 2.875-3.6875 2.875Zm0 0"/><path id="c" d="M.96875-5.125C.96875-2.65625 2.1875.28125 6.8125.28125c1.32813 0 2.59375-.1875 3.78125-.78125l.92188-2.96875h-.5625C9.92188-1.60937 8.98438-.375 6.6875-.375c-2.15625 0-3.70312-1.39062-3.70312-4.26562 0-1.6875.42187-3.75 1.32812-5.23438.92188-1.57812 2.39063-2.67187 4.40625-2.67187 2.35938 0 3.03125 1.09375 3.03125 3.14062h.57813L13-12.20312c-1.07812-.67188-2.8125-1-4.125-1-3.51562 0-5.54687 1.65625-6.625 3.40625C1.20313-8.14062.96875-6.40625.96875-5.125m0 0"/><path id="d" d="M.57813-.70312c0 .0625.15624.1875.34375.1875.10937 0 .3125-.03126.34375-.10938l2.32812-5.96875c.09375-.20312.09375-.3125.09375-.35937 0-.28125-.42187-.39063-.82812-.39063-.39063 0-1.01563.14063-1.04688.39063Zm0 0"/></defs><path fill="#66B2B2" d="M26.82813 147.16797h25.41796c0-9.03906-4.80468-17.39844-12.61328-21.95313Zm0 0"/><path fill="none" stroke="#000" stroke-miterlimit="10" stroke-width=".39702" d="M52.2461 147.16797c0-9.03906-4.8047-17.39844-12.61329-21.95313"/><path fill="none" stroke="#000" stroke-miterlimit="10" stroke-width=".39702" d="M52.2461 147.16797c0-9.03906-4.8047-17.40234-12.61329-21.95313m5.79297 11.27344 6.88281-3.95703"/><path fill="#66CEF5" d="m111.55078 147.16797-6.16406-24.66016c-11.3125 2.82813-19.25 12.9961-19.25 24.66016Zm0 0"/><path fill="none" stroke="#000" stroke-miterlimit="10" stroke-width=".39702" d="M105.38672 122.50781c-11.3125 2.82813-19.25 12.9961-19.25 24.66016"/><path fill="none" stroke="#000" stroke-miterlimit="10" stroke-width=".39702" d="M105.38672 122.51172c-11.3125 2.82812-19.2539 12.9961-19.2539 24.65625m8.02734-12.57031-6.25782-4.88672m7.23438 3.63281-6.25781-4.88672"/><path fill="#FFB266" d="M86.13281 45.5 73.32812 67.45313c5.72657 3.33984 12.53907 4.3125 18.96876 2.70312Zm0 0"/><path fill="none" stroke="#000" stroke-miterlimit="10" stroke-width=".39702" d="M73.32813 67.45313c5.72656 3.33984 12.53906 4.3125 18.96874 2.70312"/><path fill="none" stroke="#000" stroke-miterlimit="10" stroke-width=".39702" d="M73.32813 67.45313c5.72656 3.33984 12.53515 4.3125 18.96874 2.70312m-9.1875-3.42578-1.12109 7.85937m-.0586-8.02734-1.12109 7.85938m3.48047-7.52344-1.1211 7.85937"/><path fill="none" stroke="#000" stroke-miterlimit="10" stroke-width=".39702" d="M26.82813 147.16797h84.72265L86.13281 45.5Zm0 0"/><use xlink:href="#a" x="7.0111" y="167.08413"/><use xlink:href="#b" x="118.56357" y="167.08413"/><use xlink:href="#c" x="79.84016" y="38.21033"/><path fill="#66B2B2" d="m173.6836 107.6289 14.67577-8.47265c-3.01562-5.21875-8.57421-8.44531-14.60156-8.46875Zm0 0"/><path fill="none" stroke="#000" stroke-miterlimit="10" stroke-width=".39702" d="M188.35937 99.15625c-3.01562-5.21875-8.57421-8.44531-14.60156-8.46875"/><path fill="none" stroke="#000" stroke-miterlimit="10" stroke-width=".39702" d="M188.35937 99.15625c-3.01562-5.21875-8.57421-8.44531-14.60156-8.46875m6.4375 5.72266 3.98828-6.8672"/><path fill="#66CEF5" d="M222.59766 79.38672 210.8203 67.20703c-5.58984 5.40234-6.78125 13.92188-2.89453 20.65234Zm0 0"/><path fill="none" stroke="#000" stroke-miterlimit="10" stroke-width=".39702" d="M210.82031 67.20703c-5.58984 5.40234-6.78125 13.92188-2.89453 20.65234"/><path fill="none" stroke="#000" stroke-miterlimit="10" stroke-width=".39702" d="M210.80078 67.21875c-5.58984 5.40625-6.78515 13.92188-2.89844 20.65625m1.71876-9.48828-7.86329-1.10156m8.08203-.47266-7.86328-1.10156"/><path fill="#FFB266" d="m174.03516 29.16406-.07422 16.9414c4.41797.01954 8.67578-1.6875 11.85156-4.76171Zm0 0"/><path fill="none" stroke="#000" stroke-miterlimit="10" stroke-width=".39702" d="M173.96094 46.10547c4.41797.01953 8.67578-1.6875 11.85156-4.76172"/><path fill="none" stroke="#000" stroke-miterlimit="10" stroke-width=".39702" d="M173.96094 46.14063c4.41797.01953 8.67578-1.6875 11.85156-4.76172m-6.9414-.14453 2.96093 7.37109m-4.0664-6.92578 2.96093 7.36719m-.75-8.25391 2.96094 7.36719"/><path fill="none" stroke="#000" stroke-miterlimit="10" stroke-width=".39702" d="m173.6836 107.6289 48.89452-28.22656-48.54296-50.20312Zm0 0"/><use xlink:href="#a" x="148.03054" y="129.93484"/><use xlink:href="#d" x="161.62777" y="121.99449"/><use xlink:href="#b" x="229.58901" y="101.70724"/><use xlink:href="#d" x="242.63032" y="93.76689"/><use xlink:href="#c" x="164.38747" y="21.9072"/><use xlink:href="#d" x="178.64025" y="13.96685"/></svg>