<svg xmlns="http://www.w3.org/2000/svg" xmlns:xlink="http://www.w3.org/1999/xlink" width="285.635pt" height="135.469pt" viewBox="0 0 285.635 135.469"><defs><path id="a" d="m2.70313-2.03125.76562.78125L6.70313-4.5l3.26562 3.25.75-.78125-3.23437-3.23437 3.23437-3.25-.75-.75-3.26562 3.23437-3.23438-3.23437-.76562.75 3.25 3.25Zm0 0"/><path id="b" d="M-.59375 0h4.64063l.125-.53125-1.07813-.125c-.3125-.03125-.35937-.14062-.35937-.28125 0-.25 2.32812-3.25 3.5625-4.75H6.375C7-4.20312 8.3125-1.3125 8.3125-.96875c0 .17188-.10937.3125-.39062.32813l-.96875.10937L6.84375 0h5.04688L12-.53125c-1.21875-.10937-1.54687-.15625-1.92187-.95312C9.625-2.4375 8.4375-5.15625 7.5625-7.14062c1.26563-1.53125 3.26563-3.73438 4.32813-4.6875.40625-.35938.79687-.45313 1.78125-.53125l.125-.54688H9.5l-.10937.54688.65625.0625c.375.03125.45312.07812.45312.3125 0 .23437-2.09375 2.73437-3.23437 4.0625h-.04688C6.70313-9.125 5.60938-11.6875 5.60938-11.96875c0-.20312.125-.29687.40625-.3125l.96875-.07812.09375-.54688H2.25l-.125.54688c1.10938.09375 1.45313.14062 1.75.79687C4.42188-10.35937 5.23438-8.21875 6-6.51562c-1.45312 1.75-3.32812 4-4.40625 5.14062C1-.73437.67188-.65625-.46875-.53125Zm0 0"/><path id="c" d="M0 0h4.40625L4.5-.53125l-.73437-.0625c-.54688-.04687-.84375-.1875-.84375-.57812 0-.98438.17187-1.54688.39062-2.53125l1.70313-7.60938h.04687L7.29688-.21875h.51562l7.26563-11.09375h.04687l-2.28125 9.76563c-.15625.64062-.34375.85937-.79687.89062l-1.01563.125L10.92188 0H16l.09375-.53125L15-.65625c-.32812-.01562-.46875-.17187-.46875-.46875q0-.1875.04688-.42187l2.25-9.79688c.15624-.64062.29687-.90625.76562-.9375l1.04688-.07812.125-.54688H15.125c-1 1.71875-2.10937 3.375-3.23437 5.10938L8.59375-2.76562h-.0625L7.48438-7.9375c-.375-1.6875-.75-3.29687-1.07813-4.96875H2.79688l-.125.54688 1.09375.09375c.32812.01562.48437.1875.48437.5 0 .125-.01562.25-.0625.42187L2.42188-3.70312c-.21875.98437-.4375 1.70312-.65625 2.3125-.21876.59375-.5625.73437-1.09375.79687l-.57813.0625Zm0 0"/><path id="d" d="M.39063 0H9.9375l.95313-3.28125h-.54688c-.95312 2.3125-1.8125 2.625-3.92187 2.625-1.89063 0-2.3125-.17187-2.3125-.76562 0-.20313.0625-.48438.14062-.85938l2.07813-9.0625c.15625-.625.3125-.90625.79687-.9375l1.10938-.07812.14062-.54688H3.17188l-.14063.54688 1.10938.07812c.32812.01563.46875.17188.46875.5 0 .10938-.03125.25-.0625.4375l-2.25 9.79688c-.15625.65625-.3125.85937-.76563.89062L.5-.53125Zm0 0"/></defs><path fill="none" stroke="#000" stroke-miterlimit="10" stroke-width=".39695" d="M27.20312 108.41016h225.88682L105.13284 26.5273Zm0 0"/><use xlink:href="#a" x="20.49298" y="113.04589"/><use xlink:href="#b" x="6.9909" y="128.325"/><use xlink:href="#a" x="246.37957" y="113.04589"/><use xlink:href="#c" x="260.09979" y="128.325"/><use xlink:href="#a" x="98.42451" y="31.16285"/><use xlink:href="#d" x="99.53516" y="19.5165"/></svg>