<svg xmlns="http://www.w3.org/2000/svg" width="566.462pt" height="305.822pt" viewBox="0 0 566.462 305.822"><defs><clipPath id="a"><path d="M347 47h218.92578v231H347Zm0 0"/></clipPath><clipPath id="b"><path d="M200 56h264v249.58984H200Zm0 0"/></clipPath></defs><path fill="none" stroke="#000" stroke-miterlimit="10" stroke-width=".39812" d="M56.10156 182.95313 86.42187 69.8008l92.4453-5.55078Zm0 0"/><path fill="none" stroke="red" stroke-miterlimit="10" stroke-width=".79625" d="M191.6953 61.62502C165.3906 16.06252 107.1328.45315 61.5703 26.75784 16.00781 53.06252.39845 111.32032 26.70313 156.88282 53.0078 202.4453 111.26562 218.05859 156.8281 191.75c45.5625-26.30468 61.17577-84.56249 34.86718-130.12498Zm0 0"/><path fill="none" stroke="#000" stroke-miterlimit="10" stroke-width=".39812" d="m387.43745 224.37109 124.25389-124.2539 41.41796 82.83594Zm0 0"/><g clip-path="url(#a)"><path fill="none" stroke="#000" stroke-miterlimit="10" stroke-width=".79625" d="M565.53118 162.2422c0-57.1836-46.35547-103.54296-103.54296-103.54296-57.18358 0-103.54295 46.35937-103.54295 103.54295 0 57.1875 46.35937 103.54295 103.54295 103.54295 57.1875 0 103.54296-46.35546 103.54296-103.54295Zm0 0"/></g><path fill="none" stroke="#000" stroke-miterlimit="10" stroke-width=".39812" d="M219.27341 210.20312 148.625 197.7461l24.53515 67.41015Zm0 0"/><path fill="none" stroke="#0F0" stroke-miterlimit="10" stroke-width=".79625" d="M230.05466 224.37109c0-27.44922-22.2539-49.70312-49.70312-49.70312s-49.6992 22.2539-49.6992 49.70312 22.24999 49.6992 49.6992 49.6992c27.44922 0 49.70312-22.24999 49.70312-49.6992Zm0 0"/><path fill="none" stroke="#000" stroke-miterlimit="10" stroke-width=".39812" d="m263.18747 224.37109 82.83202-143.47654 24.77343 205.60153Zm0 0"/><g clip-path="url(#b)"><path fill="none" stroke="#00F" stroke-miterlimit="10" stroke-width=".79625" d="M436.20698 247.74218c33.16796-57.44921 13.48437-130.90233-43.96484-164.07029-57.4453-33.16796-130.90233-13.48437-164.0703 43.96093-33.16795 57.44921-13.48436 130.90623 43.96094 164.0742 57.44921 33.16796 130.90623 13.48437 164.0742-43.96484Zm0 0"/></g></svg>