<svg xmlns="http://www.w3.org/2000/svg" xmlns:xlink="http://www.w3.org/1999/xlink" width="387.648pt" height="188.998pt" viewBox="0 0 387.648 188.998"><defs><path id="a" d="M.32813-.14062.45313 0H5l.40625-1.59375-.34375-.04687c-.25.54687-.45312.625-.875.625H1.51563c.17187-.46875.65625-1.14063 1.71875-1.8125 1.10937-.70313 1.85937-1.20313 1.85937-2.34375 0-1.46875-1.01562-1.98438-2.21875-1.98438-1.42187 0-2.3125.78125-2.3125 1.5 0 .40625.46875.59375.71875.59375.20313 0 .32813-.10937.375-.34375C1.82813-6.17187 2.20313-6.75 2.79688-6.75c.6875 0 .92187.60938.92187 1.35938 0 .9375-.375 1.65625-1.40625 2.51562C.9375-1.6875.45313-.90625.32813-.14062m0 0"/><path id="b" d="m.53125 1.32813.28125.21874c.51563-.5 1.42188-1.25 1.42188-2.07812 0-.5625-.3125-1.01562-.8125-1.01562-.42188 0-.625.3125-.625.57812 0 .39063.29687.59375.29687 1.03125S.875.95313.53125 1.32813m0 0"/><path id="c" d="M1.14063 0h3.59375v-.34375l-.8125-.07812c-.23438-.01563-.34375-.09375-.34375-.46875v-6.20313L3.5-7.15625l-2.32812.375v.3125L2-6.35937c.23438.04687.3125.125.3125.46875v5c0 .375-.10937.45312-.35937.46875l-.8125.07812Zm0 0"/><path id="f" d="m.21875-2.125.15625.26563h2.76563v1.0625c0 .29687-.10938.375-.3125.39062l-.6875.0625V0H5.125v-.34375l-.5-.04687C4.40625-.42187 4.34375-.5 4.34375-.79687v-1.0625h1.0625v-.59375h-1.0625v-4.57813h-1C2.28125-5.48437 1.17188-3.73437.21875-2.125m.92188-.32812c.57812-1.0625 1.26562-2.21875 2-3.42188v3.42188Zm0 0"/><path id="g" d="M.46875-1.15625c0 .42188.625 1.28125 2.21875 1.28125 1.84375 0 2.57813-1.07812 2.57813-2.39062 0-1.23438-.71875-2.25-2.25-2.25-.64063 0-1.25.28125-1.60938.57812l.20313-1.73437c.04687-.3125.09374-.34375.34375-.34375h2.70312l.3125-.90625-.0625-.10938h-3.75l-.09375.09375-.21875 3.5.34375.21875c.42188-.5.84375-.73437 1.375-.73437.70313 0 1.34375.51562 1.34375 1.82812 0 1.07813-.35937 1.82813-1.15625 1.82813-.625 0-.96875-.4375-1.21875-1.1875-.07812-.20313-.20312-.3125-.40625-.3125-.28125 0-.65625.25-.65625.64062m0 0"/><path id="k" d="M.42188-3.32812C.42188-1.125 1.20313.125 2.95313.125c1.70312 0 2.51562-1.0625 2.51562-2.40625 0-1.45312-.92187-2.20312-2.04687-2.20312-.76563 0-1.34375.48437-1.6875.89062C1.75-5.25 2.15625-6.75 3.14063-6.75c.46875 0 .79687.42188.95312 1.0625.04688.15625.15625.28125.35938.28125.25 0 .67187-.1875.67187-.54687 0-.48438-.57812-1.20313-1.90625-1.20313-1.73437 0-2.79687 1.28125-2.79687 3.82813m1.3125.85937c0-.64062.42187-1.32812 1.21875-1.32812.625 0 1.1875.53125 1.1875 1.71875 0 1.04687-.32813 1.78125-1.15625 1.78125-.84375 0-1.25-.96875-1.25-2.17188m0 0"/><path id="l" d="M.3125-1.15625C.3125-.73437.95313.125 2.625.125c1.60938 0 2.60938-.75 2.60938-2.09375 0-1.45312-1.28125-1.8125-1.78125-1.875v-.04687c.5625-.10938 1.46875-.5 1.46875-1.53125 0-1.29688-1.07813-1.73438-2.1875-1.73438-1.32813 0-2.17188.71875-2.17188 1.3125 0 .39063.45313.57813.65625.57813.1875 0 .28125-.09375.34375-.28125.23438-.75.57813-1.20313 1.125-1.20313.73438 0 .90625.76563.90625 1.29688 0 .51562-.14062 1.40625-.98437 1.40625-.45313 0-.78125-.125-.96875-.125-.17188 0-.23438.125-.23438.35937 0 .20313.0625.34375.23438.34375.1875 0 .5-.10937.96875-.10937.73437 0 1.25.54687 1.25 1.64062 0 1.17188-.51563 1.64063-1.20313 1.64063-.59375 0-1.01562-.4375-1.25-1.20313-.07812-.20312-.20312-.3125-.39062-.3125-.28126 0-.70313.23438-.70313.65625m0 0"/><path id="m" d="M.42188-5.42187.75-5.375l.09375-.21875c.14063-.26562.28125-.42187.73438-.42187h2.8125c-.09375.375-.32813 1.0625-1.1875 2.20312C2.3125-2.625 1.71875-1.51562 1.71875-.42187c0 .46875.32813.54687.71875.54687.3125 0 .625-.0625.625-.51562.01563-1.46875.26563-2.53125.76563-3.34375.82812-1.3125 1.29687-2 1.57812-3.1875l-.10937-.10938H.8125Zm0 0"/><path id="d" d="M.51563-2.53125C.51563-.76562 1.375.125 2.95313.125c.75 0 1.73437-.375 2.03125-1.51562l-.3125-.14063C4.34375-.79687 3.9375-.42187 3.15625-.42187c-1.25 0-1.54687-1.3125-1.54687-2.29688 0-1.57812.625-2.20312 1.34375-2.20312.48437 0 .78125.34375 1 .92187.0625.17188.14062.26563.34375.26563.20312 0 .60937-.125.60937-.53125 0-.48438-.6875-1.01563-1.84375-1.01563-1.90625 0-2.54687 1.34375-2.54687 2.75m0 0"/><path id="e" d="M.34375 0h2.5625v-.29687c-.75-.0625-.78125-.07813-.78125-.625v-2.46875c0-.26563 0-.40625.07813-.54688.1875-.4375.65625-.78125 1.23437-.78125.90625 0 1.01563.65625 1.01563 1.3125v2.48438c0 .54687-.03125.5625-.79688.625V0h2.57813v-.29687c-.75-.0625-.79688-.07813-.79688-.625v-2.46875c0-.26563.01563-.39063.07813-.5625.17187-.42188.60937-.76563 1.20312-.76563.65625 0 1.0625.375 1.0625 1.3125v2.48438c0 .54687-.03125.5625-.79687.625V0H9.5625v-.29687c-.75-.0625-.79687-.07813-.79687-.625v-2.6875c0-1.0625-.5625-1.67188-1.5625-1.67188-.85938 0-1.48438.5625-1.84375.79688-.26563-.48438-.67188-.79688-1.40625-.79688-.8125 0-1.46875.53125-1.82813.79688l-.10937-.79688-1.625.26563v.25l.39062.0625c.26563.04687.34375.09375.34375.46875v3.3125c0 .54687-.03125.5625-.78125.625Zm0 0"/><path id="h" d="M.45313 0h10.76562l1.07813-3.6875h-.625C10.59375-1.09375 9.625-.73437 7.25-.73437c-2.14062 0-2.60937-.20313-2.60937-.875 0-.23438.0625-.54688.15625-.96875L7.14063-12.8125c.1875-.6875.35937-1 .89062-1.04687l1.26563-.09375.15625-.59375h-5.875l-.15625.59375 1.25.09375c.35937.01562.51562.20312.51562.5625 0 .125-.01562.28125-.0625.48437L2.59375-1.75c-.17187.75-.35937.96875-.875 1.01563l-1.15625.125Zm0 0"/><path id="i" d="M1.09375-5.78125C1.09375-3 2.46875.3125 7.6875.3125c1.5 0 2.92188-.20312 4.26563-.875l1.03125-3.35937h-.625c-1.17188 2.10937-2.21875 3.5-4.8125 3.5-2.4375 0-4.1875-1.57813-4.1875-4.8125 0-1.90625.48437-4.23438 1.5-5.92188 1.04687-1.76562 2.70312-3 4.96875-3 2.67187 0 3.42187 1.23438 3.42187 3.54688h.65625l.76563-3.15625c-1.21875-.76563-3.1875-1.125-4.65625-1.125-3.96875 0-6.25 1.85937-7.48438 3.82812-1.17187 1.875-1.4375 3.82813-1.4375 5.28125m0 0"/><path id="j" d="M-.40625 0h4.75l.14063-.60937L3.3125-.71875c-.26562-.01562-.375-.15625-.375-.35937 0-.10938.04688-.26563.10938-.42188.6875-1.34375 1.35937-2.70312 2.14062-4.125h4.73438l.51562 4.34375s-.10937.51563-.5625.5625L8.75-.60937 8.64063 0h5.17187l.14063-.60937-.8125-.0625c-.64063-.0625-.73438-.35938-.84375-1.23438L10.75-14.54687h-1.5l-3.54687 6.1875c-1.0625 1.89062-2.8125 5.01562-3.59375 6.28125C1.4375-.98437 1.07813-.76562.42188-.6875l-.6875.07813ZM5.625-6.42187l3.42188-6.1875.76562 6.1875Zm0 0"/><path id="n" d="M0 0h6.375C11.46875 0 12.5-2.625 12.5-4.35937c0-2.21875-1.64062-3.1875-3.1875-3.48438l.03125-.03125c2.79688-.34375 3.98438-1.9375 3.98438-3.51562 0-1.70313-1.01563-3.15625-4.89063-3.15625H3.10938l-.125.59375 1.25.10937c.35937.03125.51562.1875.51562.51563 0 .14062-.04687.3125-.09375.51562L2.17188-1.75c-.15625.70313-.35938.9375-.875 1.01563l-1.1875.125Zm4.20313-1.60937c0-.15626.03125-.3125.07812-.46875l1.20313-5.40625h.82812c2.07813 0 3.92188.60937 3.92188 3 0 1.89062-1.14063 3.75-3.96875 3.75-1.65625 0-2.0625-.34375-2.0625-.875m1.4375-6.60938 1.09375-4.875c.15625-.625.28125-.75 1.6875-.75 1.76562 0 2.75.90625 2.75 2.375 0 2.20313-1.82813 3.25-4.15625 3.25Zm0 0"/><path id="o" d="M1.5625-11.0625h.625c.67188-2.14062 1.4375-2.78125 3.5-2.78125h1.45313L4.40625-1.70312c-.15625.65625-.375.96875-1 1.01562l-1.39062.07813L1.875 0h6.48438l.15625-.60937L6.96875-.6875c-.4375-.03125-.60937-.20312-.60937-.5625 0-.14062.01562-.26562.0625-.45312l2.73437-12.14063h1.32813c2.03125 0 2.45312.54688 2.45312 1.6875 0 .3125-.01562.67188-.0625 1.09375h.65625l.78125-3.48437H2.34375Zm0 0"/><path id="p" d="M1.71875-3.60937c0 2.84375 2.09375 3.92187 5.125 3.92187 2.875 0 5.5-.60937 6.65625-5.5l1.79688-7.625c.17187-.71875.35937-1 .89062-1.04687l1.17188-.09375.125-.59375h-5.75l-.15625.59375 1.23437.09375c.35938.01562.53125.20312.53125.57812 0 .14063-.01562.29688-.0625.46875l-1.70312 7.34375c-.65625 2.79688-1.6875 5.04688-4.60938 5.04688-1.85937 0-3.15625-.8125-3.15625-3.14063 0-.57812.07813-1.29687.26563-2.10937L5.75-12.8125c.1875-.71875.34375-1 .875-1.04687l1.17188-.09375.125-.59375h-5.75l-.15625.59375 1.25.09375c.35937.01562.51562.20312.51562.5625 0 .125-.01562.28125-.0625.48437L1.95313-5.39062c-.15626.67187-.23438 1.25-.23438 1.78125m0 0"/></defs><path fill="none" stroke="#000" stroke-miterlimit="10" stroke-width=".39814" d="M37.13672 158.32813h57.34767l-34.8672-42.66408Zm0 0"/><use xlink:href="#a" x="7.46422" y="139.80086"/><use xlink:href="#b" x="13.23109" y="139.80086"/><use xlink:href="#c" x="17.40787" y="139.80086"/><use xlink:href="#d" x="25.54006" y="139.80086"/><use xlink:href="#e" x="30.75823" y="139.80086"/><use xlink:href="#a" x="84.96285" y="139.80086"/><use xlink:href="#b" x="90.72972" y="139.80086"/><use xlink:href="#f" x="94.9065" y="139.80086"/><use xlink:href="#d" x="103.03869" y="139.80086"/><use xlink:href="#e" x="108.25686" y="139.80086"/><use xlink:href="#a" x="49.31022" y="173.39536"/><use xlink:href="#b" x="55.07709" y="173.39536"/><use xlink:href="#g" x="59.25387" y="173.39536"/><use xlink:href="#d" x="67.38606" y="173.39536"/><use xlink:href="#e" x="72.60424" y="173.39536"/><use xlink:href="#h" x="16.59493" y="180.79764"/><use xlink:href="#i" x="102.39602" y="181.13333"/><use xlink:href="#j" x="52.39542" y="107.74997"/><path fill="none" stroke="#000" stroke-miterlimit="10" stroke-width=".39814" d="M186.24613 158.32813h172.0391L253.68364 30.332Zm0 0"/><use xlink:href="#k" x="179.04842" y="97.13461"/><use xlink:href="#b" x="184.81528" y="97.13461"/><use xlink:href="#l" x="188.99206" y="97.13461"/><use xlink:href="#d" x="197.12425" y="97.13461"/><use xlink:href="#e" x="202.34243" y="97.13461"/><use xlink:href="#m" x="313.89297" y="97.13461"/><use xlink:href="#b" x="319.65984" y="97.13461"/><use xlink:href="#a" x="323.83662" y="97.13461"/><use xlink:href="#d" x="331.96656" y="97.13461"/><use xlink:href="#e" x="337.18474" y="97.13461"/><use xlink:href="#m" x="255.76076" y="173.27247"/><use xlink:href="#b" x="261.52763" y="173.27247"/><use xlink:href="#g" x="265.70441" y="173.27247"/><use xlink:href="#d" x="273.83659" y="173.27247"/><use xlink:href="#e" x="279.05477" y="173.27247"/><use xlink:href="#n" x="164.55758" y="180.79764"/><use xlink:href="#o" x="366.19248" y="180.79764"/><use xlink:href="#p" x="245.23831" y="22.10674"/></svg>