<svg xmlns="http://www.w3.org/2000/svg" width="503.614pt" height="271.933pt" viewBox="0 0 503.614 271.933"><defs><clipPath id="a"><path d="M307 40h196.22656v208H307Zm0 0"/></clipPath><clipPath id="b"><path d="M177 48h237v223.79688H177Zm0 0"/></clipPath></defs><path fill="none" stroke="#000" stroke-miterlimit="10" stroke-width=".39819" d="M49.92188 162.72266 76.8789 62.1211l82.1875-4.9336Zm0 0"/><path fill="none" stroke="red" stroke-miterlimit="10" stroke-width=".7964" d="M170.47655 54.85158C147.08593 14.34377 95.29296.46486 54.78515 23.85548 14.27736 47.2422.39846 99.03517 23.78517 139.54299c23.38672 40.5078 75.18358 54.3867 115.6914 30.99999 40.5078-23.38672 54.3867-75.18359 30.99999-115.6914Zm0 0"/><path fill="none" stroke="#000" stroke-miterlimit="10" stroke-width=".39819" d="M344.49996 199.54296 454.9687 89.07813l36.8203 73.64453Zm0 0"/><g clip-path="url(#a)"><path fill="none" stroke="#000" stroke-miterlimit="10" stroke-width=".7964" d="M502.83588 144.3086c0-50.83984-41.21484-92.05468-92.05468-92.05468-50.84374 0-92.05858 41.21484-92.05858 92.05468 0 50.84374 41.21484 92.05858 92.05858 92.05858 50.83984 0 92.05468-41.21484 92.05468-92.05858Zm0 0"/></g><path fill="none" stroke="#000" stroke-miterlimit="10" stroke-width=".39819" d="m194.99217 186.94922-62.8125-11.07422 21.81641 59.92968Zm0 0"/><path fill="none" stroke="#0F0" stroke-miterlimit="10" stroke-width=".7964" d="M204.5742 199.54296c0-24.40234-19.78125-44.18749-44.1875-44.18749-24.40234 0-44.18358 19.78515-44.18358 44.1875s19.78124 44.18749 44.18358 44.18749c24.40625 0 44.1875-19.78515 44.1875-44.1875Zm0 0"/><path fill="none" stroke="#000" stroke-miterlimit="10" stroke-width=".39819" d="M234.03123 199.54296 307.67575 71.9883l22.02343 182.78904Zm0 0"/><g clip-path="url(#b)"><path fill="none" stroke="#00F" stroke-miterlimit="10" stroke-width=".7964" d="M387.85933 220.32421c29.48828-51.07421 11.98828-116.3828-39.08593-145.87107s-116.3828-11.98828-145.87108 39.08593c-29.48827 51.07421-11.98828 116.3828 39.08594 145.87107 51.0742 29.48828 116.3828 11.98828 145.87107-39.08593Zm0 0"/></g></svg>