<svg xmlns="http://www.w3.org/2000/svg" xmlns:xlink="http://www.w3.org/1999/xlink" width="321.312pt" height="152.392pt" viewBox="0 0 321.312 152.392"><defs><path id="a" d="m3.03125-2.28125.875.875L7.54688-5.0625l3.65625 3.65625.85937-.875-3.64062-3.64062 3.64062-3.65625-.85937-.84375-3.65625 3.64062-3.64063-3.64062-.875.84375 3.67188 3.65625Zm0 0"/><path id="b" d="M-.67187 0H4.5625l.125-.60937-1.20312-.125c-.35938-.04688-.40625-.15626-.40625-.3125 0-.29688 2.60937-3.67188 4-5.35938h.09375c.70312 1.67188 2.1875 4.9375 2.1875 5.3125 0 .20313-.14063.35938-.45313.375L7.8125-.60937 7.70313 0H13.375l.14063-.60937c-1.39063-.10938-1.75-.17188-2.17188-1.0625C10.82813-2.75 9.48438-5.8125 8.5-8.03125c1.4375-1.71875 3.6875-4.20312 4.875-5.28125.46875-.39062.89063-.51562 2.01563-.59375l.125-.60937H10.6875l-.125.60937.73438.0625c.42187.04688.51562.09375.51562.35938s-2.34375 3.07812-3.64062 4.57812H8.125c-.57812-1.35937-1.8125-4.25-1.8125-4.5625 0-.21875.14063-.32812.45313-.35937l1.09375-.07813.10937-.60937H2.51563l-.125.60937c1.25.10938 1.625.15625 1.96875.89063.625 1.35937 1.53125 3.76562 2.39062 5.6875-1.64062 1.96875-3.73437 4.5-4.96875 5.78125-.67187.71875-1.01562.8125-2.3125.9375Zm0 0"/><path id="c" d="M0 0h4.95313l.10937-.60937-.8125-.0625c-.64062-.04688-.96875-.20313-.96875-.64063 0-1.125.20313-1.75.45313-2.85937l1.92187-8.5625h.03125L8.21875-.25h.57813l8.17187-12.48437h.04688l-2.5625 11c-.1875.70312-.39063.95312-.90625 1l-1.125.125L12.28125 0H18l.10938-.60937-1.23438-.125c-.375-.03126-.53125-.20313-.53125-.53125 0-.14063.01563-.29688.0625-.46875l2.53125-11.03125c.17188-.71875.32813-1.01563.875-1.0625l1.15625-.07813.15625-.60937h-4.10937c-1.125 1.92187-2.375 3.79687-3.64063 5.73437L9.67188-3.10937h-.07813L8.42188-8.9375C8-10.82812 7.5625-12.64062 7.21875-14.51562H3.14063l-.125.60937 1.23437.10938c.34375.01562.53125.20312.53125.5625 0 .125-.03125.28125-.0625.46875l-2 8.59375C2.48438-3.0625 2.23438-2.25 1.98438-1.5625c-.25.67188-.625.82813-1.21875.89063l-.65625.0625Zm0 0"/><path id="d" d="M.45313 0H11.1875l1.07813-3.6875h-.625C10.5625-1.09375 9.59375-.73437 7.23438-.73437c-2.14063 0-2.60938-.20313-2.60938-.875 0-.21876.0625-.53125.15625-.95313L7.125-12.76562c.17188-.70313.35938-1.01563.89063-1.0625l1.25-.07813.15625-.60937H3.57813l-.15625.60937 1.25.07813c.35937.03125.51562.20312.51562.5625 0 .14062-.03125.29687-.07812.5L2.59375-1.73437c-.1875.73437-.35937.95312-.875 1l-1.15625.125Zm0 0"/></defs><path fill="none" stroke="#000" stroke-miterlimit="10" stroke-width=".39692" d="M30.47266 121.94531h254.10543L118.1406 29.83204Zm0 0"/><use xlink:href="#a" x="22.9265" y="127.15768"/><use xlink:href="#b" x="7.7371" y="144.3451"/><use xlink:href="#a" x="277.00281" y="127.15768"/><use xlink:href="#c" x="292.43723" y="144.3451"/><use xlink:href="#a" x="110.58278" y="35.05514"/><use xlink:href="#d" x="111.83379" y="21.95341"/></svg>