<svg xmlns="http://www.w3.org/2000/svg" xmlns:xlink="http://www.w3.org/1999/xlink" width="220.231pt" height="85.667pt" viewBox="0 0 220.231 85.667"><defs><path id="a" d="m1.75-1.3125.51563.5 2.09375-2.125 2.125 2.125.48437-.5-2.10937-2.10937 2.10937-2.10938-.48437-.5-2.125 2.10938-2.09375-2.10938-.51563.5 2.125 2.10938Zm0 0"/><path id="b" d="M1-2.07812C1-.4375 2.1875.1875 3.95313.1875 5.59375.1875 7.10938-.17187 7.78125-3L8.8125-7.375c.10938-.42187.20313-.59375.51563-.60937L10-8.04687l.07813-.34375h-3.3125l-.09375.34375.70312.0625c.21875.01562.3125.10937.3125.32812 0 .07813-.01562.17188-.03125.28125l-.98437 4.21875C6.29688-1.53125 5.70313-.25 4.01563-.25 2.9375-.25 2.1875-.70312 2.1875-2.04687c0-.34375.0625-.75.15625-1.21875L3.3125-7.375c.10938-.42187.20313-.59375.5-.60937l.67188-.0625.07812-.34375H1.25l-.09375.34375.73438.0625c.20312.01562.29687.10937.29687.3125 0 .07812-.01562.17187-.04687.29687L1.125-3.10937C1.03125-2.71875 1-2.39062 1-2.07812m0 0"/><path id="c" d="M0 0h3.3125l.07813-.34375-.71875-.0625c-.20313-.01562-.3125-.10937-.3125-.29687 0-.07813.03125-.1875.04687-.29688l.67188-2.95312h.73437c1.17188 0 1.34375.28125 1.34375 1.70312 0 1.46875 0 2.25 1.26563 2.25H7.375l.10938-.34375C6.64063-.46875 6.34375-.5 6.34375-2.0625c0-1.23437-.10937-1.76562-1.10937-2.10937C6.71875-4.375 7.71875-5.23437 7.71875-6.4375c0-.875-.375-1.95312-2.64062-1.95312H1.8125l-.09375.34375.71875.0625c.20313.01562.29688.10937.29688.3125 0 .07812-.01563.17187-.03125.29687L1.23438-1c-.09376.42188-.20313.54688-.5.57813L.0625-.34375Zm3.17188-4.375.71875-3.14062c.07812-.34375.125-.45313 1.04687-.45313.78125 0 1.51563.34375 1.51563 1.40625 0 1.4375-.9375 2.1875-2.5 2.1875Zm0 0"/><path id="d" d="M.26563 0h6.20312l.60938-2.125h-.35938C6.10938-.625 5.54688-.42187 4.1875-.42187c-1.25 0-1.51562-.125-1.51562-.5 0-.14063.03125-.3125.09375-.5625L4.10938-7.375c.10937-.40625.21875-.59375.53125-.60937l.71875-.0625.09375-.34375H2.0625l-.09375.34375.73438.0625C2.90625-7.96875 3-7.875 3-7.67187c0 .07812-.01562.17187-.04687.29687L1.5-1c-.10937.42188-.20312.54688-.5.57813l-.67187.07812Zm0 0"/></defs><path fill="none" stroke="#000" stroke-miterlimit="10" stroke-width=".39696" d="M18.6289 67.91016h183.543L127.28516 17.2539Zm0 0"/><use xlink:href="#a" x="14.26807" y="70.92331"/><use xlink:href="#b" x="4.34365" y="80.85471"/><use xlink:href="#a" x="197.84249" y="70.92331"/><use xlink:href="#c" x="206.76182" y="80.85471"/><use xlink:href="#a" x="122.94463" y="20.25626"/><use xlink:href="#d" x="123.66682" y="12.68569"/></svg>