<svg xmlns="http://www.w3.org/2000/svg" width="301.179pt" height="92.543pt" viewBox="0 0 301.179 92.543"><defs><clipPath id="a"><path d="M.33203 0H120v92.08984H.33203Zm0 0"/></clipPath><clipPath id="b"><path d="M.33203 29H13v12H.33203Zm0 0"/></clipPath><clipPath id="c"><path d="M.33203 31H13v12H.33203Zm0 0"/></clipPath><clipPath id="d"><path d="M.33203 33H13v12H.33203Zm0 0"/></clipPath><clipPath id="e"><path d="M.33203 0H120v92.08984H.33203Zm0 0"/></clipPath><clipPath id="f"><path d="M181 0h119.03125v92.08984H181Zm0 0"/></clipPath><clipPath id="g"><path d="M217 67h49v25.08984h-49Zm0 0"/></clipPath><clipPath id="h"><path d="M288 33h12.03125v12H288Zm0 0"/></clipPath><clipPath id="i"><path d="M288 31h12.03125v12H288Zm0 0"/></clipPath><clipPath id="j"><path d="M288 29h12.03125v12H288Zm0 0"/></clipPath><clipPath id="k"><path d="M181 0h119.03125v92.08984H181Zm0 0"/></clipPath></defs><path fill="#cce5e5" d="M3.5039 73.55078h36.6758v18.33984l36.67969-18.33984h36.67578V.19922h-36.6758L40.1797 18.53516V.19922H3.5039Zm0 0"/><g clip-path="url(#a)"><path fill="none" stroke="#000" stroke-miterlimit="10" stroke-width=".39654" d="M3.5039 73.55078h36.6758v18.33984l36.67968-18.33984h36.67578V.19922H76.85937L40.1797 18.53516V.19922H3.5039Zm0 0"/></g><path fill="none" stroke="red" stroke-miterlimit="10" stroke-width=".39654" d="M3.5039 66.21875h7.33204v7.33203m95.36328 0v-7.33203h7.33593m0-58.6875h-7.33593V.19922m-95.36328 0v7.33203H3.5039m36.67579 0h-7.33203V.19922m7.33203 80.6875h-7.33203v-7.33594"/><g clip-path="url(#b)"><path fill="none" stroke="red" stroke-miterlimit="10" stroke-width=".39654" d="m.53125 34.65234 5.94531.4961"/></g><g clip-path="url(#c)"><path fill="none" stroke="red" stroke-miterlimit="10" stroke-width=".39654" d="m.53125 36.63281 5.94531.4961"/></g><g clip-path="url(#d)"><path fill="none" stroke="red" stroke-miterlimit="10" stroke-width=".39654" d="m.53125 38.61719 5.94531.4961"/></g><path fill="none" stroke="red" stroke-miterlimit="10" stroke-width=".39654" d="m116.48828 39.11328-5.94922-.4961m5.94922-1.48828-5.94922-.49609m5.94922-1.48437-5.94922-.4961M43.14844 83.95703l-5.94922-.4961m5.94922-1.48437-5.94922-.4961m5.94922-70.86327-5.94922-.49219m5.94922-1.48828-5.94922-.4961m22.41797 77.35157-2.21875-5.54297m.0039-73.33984 2.21485 5.53906"/><g clip-path="url(#e)"><path fill="none" stroke="#000" stroke-miterlimit="10" stroke-width=".39654" d="M3.5039 73.55078h36.6758v18.33984l36.67968-18.33984h36.67578V.19922H76.85937L40.1797 18.53516V.19922H3.5039Zm0 0"/></g><path fill="none" stroke="#000" stroke-miterlimit="10" stroke-width=".39654" d="M131.84765 36.88281h32.10938"/><path stroke="#000" stroke-miterlimit="10" stroke-width=".39654" d="M167.77734 36.88281c-.46875-.125-2.53125-.83984-3.8203-1.61719V38.5c1.28905-.77734 3.35155-1.49219 3.8203-1.61719Zm0 0"/><path fill="#cce5e5" d="M186.85156 73.55078h36.67969v18.33984l36.67578-18.33984h36.67578V.19922h-36.67578l-36.67578 18.33594V.19922h-36.67969Zm0 0"/><g clip-path="url(#f)"><path fill="none" stroke="#000" stroke-miterlimit="10" stroke-width=".39654" d="M186.85156 73.55078h36.67969v18.33984l36.67578-18.33984h36.67578V.19922h-36.67578l-36.67578 18.33594V.19922h-36.6797Zm0 0"/></g><path fill="#fbcce8" d="M223.53125 73.55078v18.33984l36.67578-18.33984Zm0 0"/><g clip-path="url(#g)"><path fill="none" stroke="#000" stroke-miterlimit="10" stroke-width=".39654" d="M223.53125 73.55078v18.33984l36.67578-18.33984Zm0 0"/></g><path fill="#cfc" stroke="#000" stroke-miterlimit="10" stroke-width=".39654" d="m260.20703.19922-36.67578 18.33594V.19922Zm0 0"/><path fill="none" stroke="red" stroke-miterlimit="10" stroke-width=".39654" d="M186.85156 66.21875h7.33594v7.33203m95.36327 0v-7.33203h7.33204m-.00001-58.6875h-7.33203V.19922m-95.36327 0v7.33203h-7.33594m36.67969 0h-7.33594V.19922m7.33594 80.6875h-7.33594v-7.33594M183.8789 34.65234l5.94922.4961m-5.94922 1.48437 5.94922.4961m-5.94922 1.48828 5.94922.4961"/><g clip-path="url(#h)"><path fill="none" stroke="red" stroke-miterlimit="10" stroke-width=".39654" d="m299.83593 39.11328-5.94922-.4961"/></g><g clip-path="url(#i)"><path fill="none" stroke="red" stroke-miterlimit="10" stroke-width=".39654" d="m299.83593 37.1289-5.94922-.49609"/></g><g clip-path="url(#j)"><path fill="none" stroke="red" stroke-miterlimit="10" stroke-width=".39654" d="m299.83593 35.14844-5.94922-.4961"/></g><path fill="none" stroke="red" stroke-miterlimit="10" stroke-width=".39654" d="m226.49609 83.95703-5.94922-.4961m5.94922-1.48437-5.94922-.4961m5.94922-70.86327-5.94922-.49219m5.94922-1.48828-5.94922-.4961m22.41797 77.35157L240.75 79.94922m0-73.33984 2.21874 5.53906"/><g clip-path="url(#k)"><path fill="none" stroke="#000" stroke-miterlimit="10" stroke-width=".39654" d="M186.85156 73.55078h36.67969v18.33984l36.67578-18.33984h36.67578V.19922h-36.67578l-36.67578 18.33594V.19922h-36.6797Zm0 0"/></g></svg>