<svg xmlns="http://www.w3.org/2000/svg" xmlns:xlink="http://www.w3.org/1999/xlink" width="176.022pt" height="121.243pt" viewBox="0 0 176.022 121.243"><defs><clipPath id="a"><path d="M28 18h146.98828v74H28Zm0 0"/></clipPath><clipPath id="b"><path d="M22 12h152.98828v86H22Zm0 0"/></clipPath><clipPath id="e"><path d="M158 12h16.98828v19H158Zm0 0"/></clipPath><clipPath id="f"><path d="M22 12h152.98828v86H22Zm0 0"/></clipPath><path id="c" d="M1.15625.14063 2.21875 0c.3125-1.23437.5-1.90625.8125-2.67187.35938-.9375 1.54688-2.78125 2.60938-2.78125.28125 0 .4375.20312.4375.51562 0 .09375-.01563.21875-.04688.34375l-1 3.4375c-.0625.21875-.09375.42188-.09375.59375 0 .45313.21875.70313.73438.70313.82812 0 1.51562-.82813 1.92187-1.73438l-.29687-.17187c-.21875.42187-.75 1.28125-1.09375 1.28125-.14063 0-.1875-.09375-.1875-.23438 0-.125.01562-.26562.07812-.42187l.95313-3.1875c.07812-.28125.125-.53125.125-.78125 0-.5625-.26563-.96875-.96875-.96875-1.14063 0-2.4375 1.25-3.21875 2.70312h-.01563L4.3125-8.92187 4.25-8.96875l-2.17187.28125L2-8.40625l.6875.07813c.20313.03125.29688.0625.29688.25 0 .07812-.01563.1875-.04688.34375Zm0 0"/><path id="d" d="M1.0625 0H1.5l.35938-.70312c.21874.5.82812.84375 1.53125.84375 1.40625 0 2.4375-.9375 3.03125-2C7.03125-2.9375 7.21875-4 7.21875-4.54687c0-.90625-.375-1.53125-1.28125-1.53125-.92187 0-2.125.84375-3.04687 2.5h-.03125l1.34375-5.34375-.0625-.04688-2.15625.28125-.07813.28125.6875.07813c.20313.03125.29688.0625.29688.25 0 .07812-.01563.1875-.0625.34375Zm1.48438-1.3125c0-.57812.26562-1.42187.64062-2.125.54688-.96875 1.45313-2.01562 2.20313-2.01562.45312 0 .64062.3125.64062 1.01562 0 .875-.71875 4.15625-2.48437 4.15625-.625 0-1-.42187-1-1.03125m0 0"/></defs><g clip-path="url(#a)"><path fill="#ffe5cc" d="M28.27734 91.55469h109.88672l36.6289-73.25781H64.90626Zm0 0"/></g><g clip-path="url(#b)"><path fill="none" stroke="#000" stroke-miterlimit="10" stroke-width=".39603" d="M28.27734 91.55468h109.88671l36.6289-73.2578H64.90626Zm0 0"/></g><path fill="none" stroke="#007f7f" stroke-miterlimit="10" stroke-width=".39603" d="M17.28906 90.75V19.11328"/><path fill="#007f7f" stroke="#007f7f" stroke-miterlimit="10" stroke-width=".39603" d="m19.60938 85.57813-2.32032 5.46875-2.32031-5.46875Zm-4.64063-61.29297 2.32031-5.46875 2.32032 5.46875Zm0 0"/><use xlink:href="#c" x="4.35035" y="59.34745" fill="#007f7f"/><path fill="none" stroke="#007f7f" stroke-miterlimit="10" stroke-width=".39603" d="M29.07812 102.54296h108.26171"/><path fill="#007f7f" stroke="#007f7f" stroke-miterlimit="10" stroke-width=".39603" d="m34.25 104.86328-5.46875-2.32031 5.46875-2.32422Zm97.91797-4.64453 5.46875 2.32422-5.46875 2.32031Zm0 0"/><use xlink:href="#d" x="79.19902" y="116.05936" fill="#007f7f"/><path fill="none" stroke="red" stroke-miterlimit="10" stroke-width=".39603" d="m130.83983 91.55468 3.27344-6.55078h7.32422"/><g clip-path="url(#e)"><path fill="none" stroke="red" stroke-miterlimit="10" stroke-width=".39603" d="M171.51952 24.84766h-7.32422l3.27344-6.55078"/></g><path fill="none" stroke="red" stroke-miterlimit="10" stroke-width=".39603" d="m72.23046 18.29688-3.27734 6.55078H61.6289M31.55078 85.0039H38.875l-3.27344 6.55078m46.37109 2.96875.49219-5.9375m1.48828 5.9375.49219-5.9375m74.55077-32.10156-5.08984-3.10156M121.0703 15.33985l-.49609 5.9414m-1.48437-5.9414-.4961 5.9414M44.04297 53.3789l5.08984 3.10157"/><g clip-path="url(#f)"><path fill="none" stroke="#000" stroke-miterlimit="10" stroke-width=".39603" d="M28.27734 91.55468h109.88671l36.6289-73.2578H64.90626Zm0 0"/></g></svg>