<svg xmlns="http://www.w3.org/2000/svg" width="52.439pt" height="52.439pt" viewBox="0 0 52.439 52.439"><defs><clipPath id="a"><path d="M19 40h12v11.88281H19Zm0 0"/></clipPath><clipPath id="b"><path d="M21 40h12v11.88281H21Zm0 0"/></clipPath><clipPath id="c"><path d="M40 21h11.88281v12H40Zm0 0"/></clipPath><clipPath id="d"><path d="M40 19h11.88281v12H40Zm0 0"/></clipPath></defs><path fill="#cce5e5" stroke="#000" stroke-miterlimit="10" stroke-width=".39428" d="M3.15234 48.73047h45.58594V3.14454H3.15234Zm0 0"/><path fill="none" stroke="red" stroke-miterlimit="10" stroke-width=".39428" d="M41.4453 48.73047V41.4375h7.29298m0-31H41.4453V3.14454m-30.99999 0v7.29296H3.15234m0 31h7.29297v7.29297"/><g clip-path="url(#a)"><path fill="none" stroke="red" stroke-miterlimit="10" stroke-width=".39428" d="m24.71094 51.6875.49218-5.91406"/></g><g clip-path="url(#b)"><path fill="none" stroke="red" stroke-miterlimit="10" stroke-width=".39428" d="m26.67969 51.6875.49609-5.91406"/></g><g clip-path="url(#c)"><path fill="none" stroke="red" stroke-miterlimit="10" stroke-width=".39428" d="m51.6875 27.17578-5.91407-.49609"/></g><g clip-path="url(#d)"><path fill="none" stroke="red" stroke-miterlimit="10" stroke-width=".39428" d="m51.6875 25.20313-5.91407-.49219"/></g><path fill="none" stroke="red" stroke-miterlimit="10" stroke-width=".39428" d="m27.17578.19532-.4961 5.91406M25.20312.19532l-.49218 5.91406M.19531 24.71094l5.91797.49219M.19531 26.67969l5.91797.4961"/><path fill="none" stroke="#000" stroke-miterlimit="10" stroke-width=".39428" d="M3.15234 48.73047h45.58594V3.14454H3.15234Zm0 0"/></svg>