<svg xmlns="http://www.w3.org/2000/svg" xmlns:xlink="http://www.w3.org/1999/xlink" width="276.774pt" height="138.586pt" viewBox="0 0 276.774 138.586"><defs><path id="a" d="M.21875 0H2v-.17187c-.625-.04688-.64062-.04688-.64062-.39063v-1.42187h.84375c.51562 0 .54687.14062.59375.53125h.1875V-2.75h-.1875c-.04688.39063-.07813.53125-.59375.53125h-.84375v-1.54687c0-.20313.01562-.21875.21874-.21875h.60938c.70313 0 .84375.14062.92188.76562h.1875v-.96875H.21875v.17188c.53125.03125.54688.04687.54688.375V-.5625c0 .34375-.01563.34375-.54688.39063Zm0 0"/><path id="b" d="M.5625-3.96875c0 .21875.14063.375.35938.375.23437 0 .375-.15625.375-.375s-.14063-.375-.375-.375c-.21876 0-.35938.15625-.35938.375M.1875 0h1.48438v-.17187c-.4375-.03126-.45313-.04688-.45313-.35938V-3l-.04687-.04687-.95313.15625V-2.75l.23438.04688c.15625.01562.20312.04687.20312.26562v1.90625c0 .3125-.03125.32813-.46875.35938Zm0 0"/><path id="c" d="M.25.57813c0 .60937.60938.89062 1.3125.89062.35938 0 .75-.07812 1.03125-.25.28125-.17187.48438-.45312.48438-.82812C3.07813-.26562 2.5625-.5 1.90625-.5h-.48437c-.4375 0-.5-.14062-.5-.26562 0-.17188.23437-.26563.3125-.29688.10937.01563.25.03125.3125.03125.5625 0 1.21875-.26562 1.21875-1 0-.25-.07813-.45312-.1875-.5625l.48437-.07812.125-.375-.04687-.0625-.78125.25c-.17188-.10938-.5-.1875-.78125-.1875-.9375 0-1.25.5625-1.25 1.01562 0 .57813.375.84375.64062.90625v.01563c-.32812.125-.54687.29687-.54687.54687 0 .20313.25.4375.53125.46875v.01563C.70313 0 .25.14063.25.57813M.82813.5625q0-.32812.1875-.46875c.14062-.09375.34375-.14062.625-.14062.54687 0 .9375.14062.9375.59375 0 .48437-.4375.71875-.875.71875-.51563 0-.875-.26563-.875-.70313M.9375-2.03125c0-.59375.3125-.79687.64063-.79687.29687 0 .60937.21875.60937.79687 0 .51563-.26562.78125-.625.78125-.34375 0-.625-.26562-.625-.78125m0 0"/><path id="d" d="m.15625-2.75.23438.04688c.15625.01562.1875.04687.1875.26562v1.59375c0 .70313.42187.92188.875.92188.51562 0 .92187-.35938 1.10937-.4375L2.60938 0h.98437v-.17187C3.17188-.20313 3.125-.21875 3.125-.53125V-3l-.04687-.04687-.9375.15625V-2.75l.23437.04688c.14063.01562.1875.04687.1875.26562v1.35938c0 .17187-.01562.3125-.04687.375-.14063.26562-.4375.45312-.75.45312-.35938 0-.60938-.23437-.60938-.70312V-3l-.04687-.04687-.95313.15625Zm0 0"/><path id="e" d="M.1875 0h1.60938v-.17187C1.25-.20313 1.21875-.21875 1.21875-.53125v-1.42187c0-.45313.20313-.625.34375-.625.10938 0 .20313.04687.375.14062.04688.03125.09375.03125.125.03125.15625 0 .28125-.15625.28125-.34375 0-.14062-.07812-.29687-.32812-.29687-.21875 0-.39063.125-.79688.48437l-.0625-.48437-.9375.15625V-2.75l.23438.04688c.15625.01562.20312.04687.20312.26562v1.90625c0 .3125-.03125.32813-.46875.35938Zm0 0"/><path id="f" d="M.29688-1.46875C.29688-.5.70313.07813 1.70313.07813c.67187 0 1.01562-.375 1.17187-.85938L2.70313-.875c-.17188.35938-.40625.64063-.89063.64063-.75 0-.89062-.73438-.89062-1.35938h1.75c.14062 0 .25-.03125.25-.23437 0-.35938-.125-1.21875-1.23438-1.21875-.95312 0-1.39062.67187-1.39062 1.57812m.64062-.35937c0-.25.09375-1 .71875-1 .5625 0 .625.5625.625.8125 0 .10937-.03125.1875-.20312.1875Zm0 0"/><path id="g" d="M.65625 0h2v-.17187l-.51562-.04688c-.125-.01562-.20313-.0625-.20313-.29687v-3.57813L1.90625-4.125l-1.25.21875v.14063l.5625.07812c.10938.01563.15625.04688.15625.23438v2.9375c0 .10937-.01562.1875-.0625.23437-.03125.04688-.07812.0625-.14062.0625l-.51563.04688Zm0 0"/><path id="h" d="M.15625-.0625.21875 0h2.51563l.20312-.79687-.15625-.03126c-.14062.32813-.26562.375-.5.375H.73438c.09374-.32812.45312-.75 1.01562-1.15624.57813-.4375 1.03125-.70313 1.03125-1.375 0-.84375-.5625-1.14063-1.20312-1.14063-.82813 0-1.25.5-1.25.82813C.32813-3.09375.5625-3 .65625-3c.10938 0 .15625-.0625.17188-.17187.09374-.40625.34375-.73438.71875-.73438.45312 0 .59375.39063.59375.82813 0 .65625-.32813 1.01562-.85938 1.48437-.75.65625-1 1.0625-1.125 1.53125m0 0"/><path id="i" d="M.1875 0h1.48438v-.17187c-.4375-.03126-.45313-.04688-.45313-.35938v-1.42187c0-.15626 0-.23438.0625-.32813.125-.23437.39063-.4375.71875-.4375.40625 0 .64063.23438.64063.75v1.4375c0 .3125-.01563.32813-.45313.35938V0h1.48438v-.17187c-.4375-.03126-.46875-.04688-.46875-.35938v-1.54687c0-.60938-.32813-.96875-.89063-.96875-.45312 0-.71875.21875-1.09375.46875L1.125-3.04687l-.90625.15625V-2.75l.23438.04688c.15625.01562.20312.04687.20312.26562v1.90625c0 .3125-.03125.32813-.46875.35938Zm0 0"/><path id="j" d="M.1875-2.73437H.625V-.625c0 .625.45313.70313.67188.70313.3125 0 .59375-.15625.78125-.26563l-.04688-.14062C1.875-.26562 1.75-.25 1.59375-.25c-.20312 0-.40625-.14062-.40625-.60937v-1.875h.78125v-.23438H1.1875v-.76562h-.17187l-.35938.76562H.1875Zm0 0"/><path id="k" d="m1.21875-3.40625.09375.125.90625-.51562C2.40625-3.89062 2.5625-4 2.5625-4.125s-.14062-.26562-.23437-.26562c-.10938 0-.20313.0625-.39063.25Zm-.92187 1.9375C.29688-.5.70313.07813 1.70313.07813c.67187 0 1.01562-.375 1.17187-.85938L2.70313-.875c-.17188.35938-.40625.64063-.89063.64063-.75 0-.89062-.73438-.89062-1.35938h1.75c.14062 0 .25-.03125.25-.23437 0-.35938-.125-1.21875-1.23438-1.21875-.95312 0-1.39062.67187-1.39062 1.57812m.64062-.35937c0-.25.09375-1 .71875-1 .5625 0 .625.5625.625.8125 0 .10937-.03125.1875-.20312.1875Zm0 0"/><path id="l" d="M.29688-1.42187c0 .89062.46875 1.5 1.26562 1.5.32813 0 .60938-.15625.9375-.42188v.29688L2.5625 0h.96875v-.17187c-.42187-.03126-.45312-.04688-.45312-.35938v-3.9375L3.04688-4.5l-.96875.15625v.15625l.23437.01563c.15625.01562.20313.04687.20313.28125v1c-.17188-.09375-.40625-.15625-.67188-.15625-.5 0-.875.15625-1.125.42187-.26562.26563-.42187.67188-.42187 1.20313M.92188-1.5c0-.78125.29687-1.32812.90625-1.32812.28124 0 .51562.125.625.375.0625.10937.0625.1875.0625.35937v1.0625c0 .14063 0 .23438-.04688.34375-.125.3125-.39062.4375-.70312.4375-.54688 0-.84375-.54687-.84375-1.25m0 0"/><path id="m" d="m.4375-2.96875.10938.10938c.29687-.28125.71875-.6875.71875-1.125C1.26563-4.3125 1.0625-4.5.85938-4.5c-.1875 0-.29688.125-.29688.29688 0 .21875.20313.34375.20313.5625 0 .23437-.14063.45312-.32813.67187m0 0"/><path id="n" d="M.29688-.78125c0 .45313.29687.85938.875.85938.34375 0 .70312-.23438.90625-.375.07812.23437.1875.375.39062.375.23438 0 .48438-.07813.71875-.1875L3.15625-.25c-.09375.01563-.23437.03125-.3125 0C2.73438-.28125 2.625-.39062 2.625-.76562v-1.46875c0-.35938-.07812-.8125-1-.8125-.67187 0-1.21875.35937-1.21875.6875 0 .20312.21875.28125.34375.28125s.15625-.0625.1875-.15625c.14063-.45313.39063-.59375.625-.59375.25 0 .51563.125.51563.60937v.25c-.15625.15625-.75.29688-1.21875.45313-.4375.14062-.5625.4375-.5625.73437M.90625-.875c0-.28125.125-.42187.46875-.5625.25-.07812.5625-.20312.70313-.28125v.85938c0 .48437-.375.60937-.60938.60937-.375 0-.5625-.26562-.5625-.625m0 0"/><clipPath id="o"><path d="M.30078 0H276.25v138.17188H.30078Zm0 0"/></clipPath></defs><path fill="#cce5e5" stroke="#000" stroke-miterlimit="10" stroke-width=".79463" d="M28.0547 110.41796h55.1094v-27.5547H55.6094v-27.5547h55.1094v-27.5547H28.0547Zm0 0"/><use xlink:href="#a" x="56.62425" y="104.39215"/><use xlink:href="#b" x="60.0849" y="104.39215"/><use xlink:href="#c" x="61.8475" y="104.39215"/><use xlink:href="#d" x="64.99824" y="104.39215"/><use xlink:href="#e" x="68.67195" y="104.39215"/><use xlink:href="#f" x="70.90587" y="104.39215"/><use xlink:href="#g" x="75.38018" y="104.39215"/><path fill="#cce5e5" stroke="#000" stroke-miterlimit="10" stroke-width=".79463" d="M165.8321 110.41796h27.5547v-27.5547h55.1094v-27.5547h-27.5547v-27.5547h-82.6641v27.5547h27.5547Zm0 0"/><use xlink:href="#a" x="221.95535" y="76.83647"/><use xlink:href="#b" x="225.416" y="76.83647"/><use xlink:href="#c" x="227.17861" y="76.83647"/><use xlink:href="#d" x="230.32934" y="76.83647"/><use xlink:href="#e" x="234.00305" y="76.83647"/><use xlink:href="#f" x="236.23698" y="76.83647"/><use xlink:href="#h" x="240.71774" y="76.83647"/><path fill="#cce5e5" stroke="#000" stroke-miterlimit="10" stroke-width=".79463" d="M110.7188 110.41796h27.5586v-27.5547h-27.5586Zm0 0"/><use xlink:href="#g" x="120.25417" y="98.03903"/><use xlink:href="#d" x="124.83178" y="98.03903"/><use xlink:href="#i" x="128.50548" y="98.03903"/><use xlink:href="#b" x="132.25667" y="98.03903"/><use xlink:href="#j" x="134.01927" y="98.03903"/><use xlink:href="#k" x="136.1047" y="98.03903"/><use xlink:href="#l" x="120.25417" y="105.78598"/><use xlink:href="#m" x="123.73418" y="105.78598"/><use xlink:href="#n" x="125.05775" y="105.78598"/><use xlink:href="#b" x="128.22786" y="105.78598"/><use xlink:href="#e" x="129.99046" y="105.78598"/><use xlink:href="#f" x="132.22439" y="105.78598"/><g clip-path="url(#o)"><path fill="none" stroke="#000" stroke-dasharray=".39731247000000003 .9933110856" stroke-miterlimit="10" stroke-width=".39731" d="M.4961 137.97656h275.5587M.4961 110.41796h275.5587M.4961 82.86326h275.5587M.4961 55.30856h275.5587M.4961 27.75386h275.5587M.4961.20697h275.5587M.4961 137.97657V.19525m27.5586 137.7813V.19526m27.5547 137.7813V.19526m27.5547 137.7813V.19526m27.5547 137.7813V.19526m27.5586 137.7813V.19526m27.5547 137.7813V.19526m27.5547 137.7813V.19526m27.5547 137.7813V.19526m27.5547 137.7813V.19526m27.54688 137.7813V.19526"/></g></svg>