<svg xmlns="http://www.w3.org/2000/svg" xmlns:xlink="http://www.w3.org/1999/xlink" width="137.608pt" height="125.69pt" viewBox="0 0 137.608 125.69"><defs><path id="a" d="m1.75-1.3125.51563.5L4.375-2.9375l2.10938 2.125.5-.5L4.875-3.42187l2.10938-2.125-.5-.48438L4.375-3.92187 2.26563-6.03125 1.75-5.54687l2.125 2.125Zm0 0"/><path id="b" d="M.39063-3.28125c0 2 1.14062 3.46875 3.5625 3.46875 2.14062 0 3.1875-1.10937 3.85937-2.3125.67188-1.1875.78125-2.42187.78125-2.90625 0-2.48437-1.51562-3.5625-3.51562-3.5625-1.9375 0-3.14063 1.07813-3.84375 2.23438C.5625-5.23437.39063-4.07812.39063-3.28125m1.28125.48438c0-1.01563.1875-2.15625.75-3.32813.54687-1.15625 1.42187-2.04687 2.70312-2.04687 1.32813 0 2.1875.79687 2.1875 2.51562 0 .6875-.0625 1.6875-.5625 2.98438C6.23438-1.375 5.42188-.25 3.84375-.25c-1.32812 0-2.17187-.84375-2.17187-2.54687m0 0"/><path id="d" d="M.40625-6.0625c0 1.0625 1.04688 1.90625 3.48438 1.90625-.40625.70313-.70313 1.4375-.70313 2.25 0 1.32813.84375 2.04688 2.375 2.04688 1.48438 0 3.03125-1.07813 3.03125-2.45313 0-.82812-.6875-1.28125-1.54687-1.28125-.95313 0-2.07813 1.07813-2.07813 1.92188 0 .26562.1875.75.54688.75.10937 0 .25-.07813.25-.1875 0-.15626-.28125-.17188-.28125-.54688 0-.59375.85937-1.54687 1.5625-1.54687.48437 0 .78125.1875.78125.67187C7.82813-1.45312 6.79688-.25 5.5625-.25c-.89062 0-1.34375-.46875-1.34375-1.28125 0-.89062.64063-1.95312 1.125-2.73437 2.6875-.40625 5.34375-1.75 5.34375-3.4375 0-.64063-.51562-1.07813-1.21875-1.07813-1.59375 0-4.01562 2.0625-5.34375 4.1875-1.09375 0-2.89062-.03125-2.89062-1.32812 0-1.1875 1.45312-2.10938 2.35937-2.10938.17188 0 .25-.09375.25-.20312 0-.09375-.07812-.17188-.1875-.17188-1.35937 0-3.25.90625-3.25 2.34375M5.57813-4.75c.89062-1.5625 2.78125-3.64062 3.89062-3.64062.42188 0 .71875.25.71875.65625 0 1.34375-2.125 2.59375-4.60937 2.98437m0 0"/><clipPath id="c"><path d="M0 .02344h131v125.33203H0Zm0 0"/></clipPath></defs><use xlink:href="#a" x="58.30092" y="65.70585"/><use xlink:href="#b" x="48.5856" y="57.94695"/><g clip-path="url(#c)"><path fill="none" stroke="#000" stroke-miterlimit="10" stroke-width=".39737" d="M125.1367 62.6914c0-34.49998-27.96875-62.46872-62.46873-62.46872C28.16407.22268.19925 28.19142.19925 62.69141s27.96483 62.46872 62.46872 62.46872c34.49998 0 62.46872-27.96874 62.46872-62.46872Zm0 0"/></g><use xlink:href="#d" x="121.32738" y="26.75182"/></svg>