<svg xmlns="http://www.w3.org/2000/svg" width="65.337pt" height="43.226pt" viewBox="0 0 65.337 43.226"><defs><clipPath id="a"><path d="M25 30h13v12.46484H25Zm0 0"/></clipPath><clipPath id="b"><path d="M27 30h13v12.46484H27Zm0 0"/></clipPath><clipPath id="c"><path d="M52 15h12.4375v13H52Zm0 0"/></clipPath><clipPath id="d"><path d="M.25 15H12v13H.25Zm0 0"/></clipPath></defs><path fill="#cce5e5" stroke="#000" stroke-miterlimit="10" stroke-width=".39149" d="M3.375 39.33203h57.9336V3.125H3.375Zm0 0"/><path fill="none" stroke="red" stroke-miterlimit="10" stroke-width=".39149" d="M54.07031 39.33203v-7.23828h7.23828m.00001-21.73047h-7.2383V3.125m-43.45702 0v7.23828H3.375m0 21.73047h7.23828v7.23828"/><g clip-path="url(#a)"><path fill="none" stroke="red" stroke-miterlimit="10" stroke-width=".39149" d="m31.11719 42.26953.49218-5.8711"/></g><g clip-path="url(#b)"><path fill="none" stroke="red" stroke-miterlimit="10" stroke-width=".39149" d="m33.07813 42.26953.48828-5.8711"/></g><g clip-path="url(#c)"><path fill="none" stroke="red" stroke-miterlimit="10" stroke-width=".39149" d="m64.24218 21.47656-5.875-.48828"/></g><path fill="none" stroke="red" stroke-miterlimit="10" stroke-width=".39149" d="m33.5664.19532-.48827 5.87109M31.60937.19532 31.1172 6.0664"/><g clip-path="url(#d)"><path fill="none" stroke="red" stroke-miterlimit="10" stroke-width=".39149" d="m.44532 20.98828 5.87109.48828"/></g><path fill="none" stroke="#000" stroke-miterlimit="10" stroke-width=".39149" d="M3.375 39.33203h57.9336V3.125H3.375Zm0 0"/></svg>