<svg xmlns="http://www.w3.org/2000/svg" xmlns:xlink="http://www.w3.org/1999/xlink" width="137.608pt" height="125.69pt" viewBox="0 0 137.608 125.69"><defs><path id="a" d="m1.75-1.3125.51563.5L4.375-2.9375l2.10938 2.125.5-.5L4.875-3.42187l2.10938-2.125-.5-.48438L4.375-3.92187 2.26563-6.03125 1.75-5.54687l2.125 2.125Zm0 0"/><path id="b" d="M.39063-3.28125c0 2 1.14062 3.46875 3.5625 3.46875 2.14062 0 3.1875-1.10937 3.85937-2.3125.67188-1.1875.78125-2.42187.78125-2.90625 0-2.48437-1.51562-3.5625-3.51562-3.5625-1.9375 0-3.14063 1.07813-3.84375 2.23438C.5625-5.23437.39063-4.07812.39063-3.28125m1.28125.48438c0-1.01563.1875-2.15625.75-3.32813.54687-1.15625 1.42187-2.04687 2.70312-2.04687 1.32813 0 2.1875.79687 2.1875 2.51562 0 .6875-.0625 1.6875-.5625 2.98438C6.23438-1.375 5.42188-.25 3.84375-.25c-1.32812 0-2.17187-.84375-2.17187-2.54687m0 0"/><path id="d" d="M.40625-6.0625c0 1.0625 1.04688 1.90625 3.48438 1.90625-.40625.70313-.70313 1.4375-.70313 2.25 0 1.32813.84375 2.04688 2.375 2.04688 1.48438 0 3.03125-1.07813 3.03125-2.45313 0-.82812-.6875-1.28125-1.54687-1.28125-.95313 0-2.07813 1.07813-2.07813 1.92188 0 .26562.1875.75.54688.75.10937 0 .25-.07813.25-.1875 0-.15626-.28125-.17188-.28125-.54688 0-.59375.85937-1.54687 1.5625-1.54687.48437 0 .78125.1875.78125.67187C7.82813-1.45312 6.79688-.25 5.5625-.25c-.89062 0-1.34375-.46875-1.34375-1.28125 0-.89062.64063-1.95312 1.125-2.73437 2.6875-.40625 5.34375-1.75 5.34375-3.4375 0-.64063-.51562-1.07813-1.21875-1.07813-1.59375 0-4.01562 2.0625-5.34375 4.1875-1.09375 0-2.89062-.03125-2.89062-1.32812 0-1.1875 1.45312-2.10938 2.35937-2.10938.17188 0 .25-.09375.25-.20312 0-.09375-.07812-.17188-.1875-.17188-1.35937 0-3.25.90625-3.25 2.34375M5.57813-4.75c.89062-1.5625 2.78125-3.64062 3.89062-3.64062.42188 0 .71875.25.71875.65625 0 1.34375-2.125 2.59375-4.60937 2.98437m0 0"/><path id="e" d="M1.1875 0h3.59375v-.3125l-.92187-.07812C3.625-.42187 3.5-.5 3.5-.9375V-7.375l-.0625-.04687-2.25.375v.26562l1.01563.125c.1875.03125.26562.10938.26562.42188V-.9375c0 .4375-.10937.51563-.35937.54688L1.1875-.3125Zm0 0"/><path id="f" d="m.5625 1.34375.20313.20313c.54687-.51563 1.34375-1.25 1.34375-2.10938 0-.57812-.3125-.98437-.73438-.98437-.34375 0-.54687.26562-.54687.54687 0 .39063.35937.60938.35937 1.0625 0 .45313-.28125.89063-.625 1.28125m0 0"/><path id="g" d="M.45313-5.76562H.75L.84375-6c.14063-.29687.29688-.46875.78125-.46875h2.95313c-.10938.40625-.3125 1.03125-1.1875 2.29688-.95313 1.34375-1.5625 2.5625-1.5625 3.85937 0 .35938.25.4375.59375.4375.29687 0 .51562-.0625.51562-.42187 0-1.67188.29688-2.67188.82813-3.60938C4.46875-5.125 5.04688-5.8125 5.42188-7.1875l-.09375-.10937H.79688Zm0 0"/><path id="h" d="M.53125-2.625c0 1.82813.90625 2.75 2.53125 2.75.78125 0 1.8125-.39062 2.10938-1.5625l-.32813-.15625C4.51563-.82812 4.07813-.4375 3.28125-.4375c-1.3125 0-1.60937-1.35937-1.60937-2.39062 0-1.625.64062-2.28125 1.39062-2.28125.5 0 .8125.35937 1.04688.95312.0625.1875.14062.28125.34375.28125.21875 0 .64062-.14062.64062-.54687 0-.5-.71875-1.0625-1.90625-1.0625-1.98437 0-2.65625 1.40625-2.65625 2.85937m0 0"/><path id="i" d="M.34375 0h2.67188v-.3125c-.78125-.0625-.8125-.07812-.8125-.64062v-2.5625c0-.28125 0-.42188.07812-.57813.20313-.4375.6875-.79687 1.28125-.79687.95313 0 1.0625.6875 1.0625 1.35937v2.57813c0 .5625-.03125.57812-.82812.64062V0h2.67187v-.3125c-.78125-.0625-.8125-.07812-.8125-.64062v-2.5625c0-.28125 0-.40625.07813-.59375.15625-.4375.625-.78125 1.23437-.78125.6875 0 1.10938.375 1.10938 1.35937v2.57813c0 .5625-.03125.57812-.82813.64062V0h2.67188v-.3125c-.76563-.0625-.8125-.07812-.8125-.64062V-3.75c0-1.09375-.59375-1.73437-1.64063-1.73437-.89062 0-1.53125.59375-1.90625.82812-.26562-.5-.6875-.82812-1.45312-.82812-.84375 0-1.53125.5625-1.90625.82812l-.10938-.82812-1.6875.28125v.26562l.40625.0625c.28125.03125.35938.07813.35938.48438v3.4375c0 .5625-.03126.57812-.82813.64062Zm0 0"/><clipPath id="c"><path d="M0 .02344h131v125.33203H0Zm0 0"/></clipPath></defs><use xlink:href="#a" x="58.30092" y="65.70585"/><use xlink:href="#b" x="48.5856" y="57.94695"/><g clip-path="url(#c)"><path fill="none" stroke="#000" stroke-miterlimit="10" stroke-width=".39737" d="M125.1367 62.6914c0-34.49998-27.96875-62.46872-62.46873-62.46872C28.16407.22268.19925 28.19142.19925 62.69141s27.96483 62.46872 62.46872 62.46872c34.49998 0 62.46872-27.96874 62.46872-62.46872Zm0 0"/></g><use xlink:href="#d" x="121.32738" y="26.75182"/><path fill="none" stroke="#000" stroke-dasharray="2.9803417228000004 2.9803417228000004" stroke-miterlimit="10" stroke-width=".39737" d="M62.66797 62.6914h62.48044"/><use xlink:href="#e" x="77.02857" y="74.68028"/><use xlink:href="#f" x="82.84016" y="74.68028"/><use xlink:href="#g" x="87.02451" y="74.68028"/><use xlink:href="#h" x="95.28965" y="74.68028"/><use xlink:href="#i" x="100.70606" y="74.68028"/></svg>