<svg xmlns="http://www.w3.org/2000/svg" width="297.992pt" height="92.543pt" viewBox="0 0 297.992 92.543"><defs><clipPath id="a"><path d="M.72656 0H120v92.08984H.72656Zm0 0"/></clipPath><clipPath id="b"><path d="M.72656 29H13v12H.72656Zm0 0"/></clipPath><clipPath id="c"><path d="M.72656 31H13v12H.72656Zm0 0"/></clipPath><clipPath id="d"><path d="M.72656 33H13v12H.72656Zm0 0"/></clipPath><clipPath id="e"><path d="M.72656 0H120v92.08984H.72656Zm0 0"/></clipPath></defs><path fill="#cce5e5" d="M3.90234 73.55078h36.67578v18.33984l36.67579-18.33984h36.67578V.19922H77.2539L40.57812 18.53516V.19922H3.90234Zm0 0"/><g clip-path="url(#a)"><path fill="none" stroke="#000" stroke-miterlimit="10" stroke-width=".39654" d="M3.90234 73.55078h36.67578v18.33984L77.2539 73.55078h36.67578V.19922H77.2539L40.57812 18.53516V.19922H3.90234Zm0 0"/></g><path fill="none" stroke="red" stroke-miterlimit="10" stroke-width=".39654" d="M3.90234 66.21875h7.33203v7.33203m95.36328 0v-7.33203h7.33203m0-58.6875h-7.33203V.19922m-95.36328 0v7.33203H3.90234m36.67578 0H33.2422V.19922m7.33592 80.6875H33.2422v-7.33594"/><g clip-path="url(#b)"><path fill="none" stroke="red" stroke-miterlimit="10" stroke-width=".39654" d="m.92578 34.65234 5.94922.4961"/></g><g clip-path="url(#c)"><path fill="none" stroke="red" stroke-miterlimit="10" stroke-width=".39654" d="m.92578 36.63281 5.94922.4961"/></g><g clip-path="url(#d)"><path fill="none" stroke="red" stroke-miterlimit="10" stroke-width=".39654" d="m.92578 38.61719 5.94922.4961"/></g><path fill="none" stroke="red" stroke-miterlimit="10" stroke-width=".39654" d="m116.88281 39.11328-5.94922-.4961m5.94922-1.48828-5.94922-.49609m5.94922-1.48437-5.94922-.4961M43.54297 83.95703l-5.94531-.4961m5.94531-1.48437-5.94531-.4961m5.94531-70.86327-5.94531-.49219m5.94531-1.48828-5.94531-.4961m22.41406 77.35157-2.21485-5.54297m0-73.33984 2.21875 5.53906"/><g clip-path="url(#e)"><path fill="none" stroke="#000" stroke-miterlimit="10" stroke-width=".39654" d="M3.90234 73.55078h36.67578v18.33984L77.2539 73.55078h36.67578V.19922H77.2539L40.57812 18.53516V.19922H3.90234Zm0 0"/></g><path fill="none" stroke="#000" stroke-miterlimit="10" stroke-width=".39654" d="M132.2461 36.88281h32.10937"/><path stroke="#000" stroke-miterlimit="10" stroke-width=".39654" d="M168.17578 36.88281c-.47266-.125-2.53125-.83984-3.82031-1.61719V38.5c1.28906-.77734 3.34765-1.49219 3.82031-1.61719Zm0 0"/></svg>