<svg xmlns="http://www.w3.org/2000/svg" xmlns:xlink="http://www.w3.org/1999/xlink" width="128.296pt" height="117.551pt" viewBox="0 0 128.296 117.551"><defs><path id="a" d="M.90625-6.35937h.35938c.375-1.23438.8125-1.59375 2-1.59375h.84375L2.53125-.98437c-.07812.375-.21875.5625-.57812.57812l-.79688.0625L1.07813 0h3.71875l.09375-.34375L4-.40625c-.23437 0-.34375-.10937-.34375-.3125 0-.07812.01563-.15625.03125-.26562l1.57813-6.96875h.76562c1.17188 0 1.40625.3125 1.40625.96875 0 .17187-.01562.375-.03125.625h.375L8.23438-8.375h-6.875Zm0 0"/><path id="b" d="M0 0h3.3125l.07813-.34375-.71875-.0625c-.21875-.01562-.3125-.10937-.3125-.29687 0-.07813.01562-.1875.04687-.29688l.65625-2.9375h.73438c1.17187 0 1.34375.28125 1.34375 1.70313C5.14063-.76562 5.14063 0 6.40625 0h.95313l.10937-.34375C6.625-.46875 6.32813-.5 6.32813-2.0625c0-1.23437-.10938-1.76562-1.10938-2.09375 1.46875-.20312 2.48438-1.07812 2.48438-2.26562 0-.85938-.375-1.95313-2.64063-1.95313H1.79688l-.07813.35938.71875.04687c.20313.01563.29688.10938.29688.32813q0 .09375-.04688.28125L1.23438-1c-.09376.42188-.20313.54688-.5.57813L.0625-.34375Zm3.17188-4.35937L3.875-7.5c.09375-.34375.125-.45312 1.04688-.45312.78125 0 1.51562.34375 1.51562 1.40625 0 1.4375-.9375 2.1875-2.5 2.1875Zm0 0"/><path id="c" d="M.25 0h3.3125l.07813-.34375-.71875-.0625c-.20313 0-.29688-.125-.29688-.3125 0-.07812.01563-.1875.04688-.28125l1.4375-6.35937c.09375-.375.20312-.57813.51562-.60938l.67188-.04687L5.375-8.375H2.0625l-.09375.35938.71875.04687c.20313.01563.29688.14063.29688.32813 0 .07812-.01563.17187-.03125.28125L1.5-1c-.09375.375-.21875.54688-.51562.57813l-.65625.07812Zm0 0"/></defs><use xlink:href="#a" x="60.4483" y="12.76299"/><use xlink:href="#b" x="4.29344" y="112.71353"/><use xlink:href="#c" x="117.13226" y="112.71353"/><path fill="none" stroke="#000" stroke-miterlimit="10" stroke-width=".39632" d="m64.96484 17.31248-47.6211 82.4766h95.2383Zm0 0"/><path fill="none" stroke="red" stroke-miterlimit="10" stroke-width=".39632" d="M38.71093 56.84765 43.61327 60.25m21.10157 42.50782.4961-5.94531m26.26173-39.52345-5.39844 2.54297"/></svg>