<svg xmlns="http://www.w3.org/2000/svg" xmlns:xlink="http://www.w3.org/1999/xlink" width="227.17pt" height="227.17pt" viewBox="0 0 227.17 227.17"><defs><path id="a" d="m2.70313-2.03125.76562.78125 3.25-3.26562 3.25 3.26562.75-.78125-3.23437-3.23437 3.23437-3.25-.75-.76563-3.25 3.25-3.25-3.25-.76562.76563 3.25 3.25Zm0 0"/><path id="b" d="M.59375-5.04687c0 3.07812 1.76563 5.32812 5.48438 5.32812 3.29687 0 4.90625-1.6875 5.9375-3.53125 1.01562-1.82812 1.1875-3.73437 1.1875-4.46875 0-3.84375-2.3125-5.48437-5.39063-5.48437-2.98437 0-4.82812 1.64062-5.92187 3.4375C.85938-8.04687.59375-6.28125.59375-5.04687m1.96875.75c0-1.5625.29688-3.3125 1.15625-5.10938.84375-1.78125 2.17188-3.14062 4.17188-3.14062 2.03125 0 3.34375 1.20312 3.34375 3.84375 0 1.07812-.09375 2.60937-.875 4.59375-.76563 2-2.03125 3.73437-4.46875 3.73437C3.875-.375 2.5625-1.6875 2.5625-4.29687m0 0"/></defs><use xlink:href="#a" x="106.46103" y="117.80658"/><use xlink:href="#b" x="92.35955" y="133.38765"/></svg>