<svg xmlns="http://www.w3.org/2000/svg" xmlns:xlink="http://www.w3.org/1999/xlink" width="69.323pt" height="135.995pt" viewBox="0 0 69.323 135.995"><defs><path id="a" d="m2.6875-2.01562.76563.76562 3.21875-3.23437L9.90625-1.25l.75-.76562L7.4375-5.23437l3.21875-3.23438-.75-.75L6.67188-6 3.45313-9.21875l-.76563.75 3.23438 3.23438Zm0 0"/><path id="b" d="M0 0h4.375l.10938-.53125L3.75-.59375c-.54687-.03125-.84375-.17187-.84375-.57812 0-.98438.17188-1.53125.39063-2.51563L5-11.25h.03125L7.26563-.21875h.51562L15-11.25h.03125l-2.26562 9.70313c-.15625.64062-.32813.85937-.78125.89062l-1.01563.125L10.85938 0h5.04687L16-.53125l-1.07812-.125c-.34375-.01562-.46875-.17187-.46875-.46875 0-.125.01562-.25.04687-.42187l2.23438-9.73438c.15624-.64062.29687-.89062.76562-.9375l1.03125-.07812.14063-.53125h-3.64063C14.04688-11.125 12.95313-9.46875 11.82813-7.75l-3.28125 5h-.0625L7.4375-7.89062c-.375-1.6875-.75-3.28125-1.0625-4.9375H2.78125l-.10937.53125 1.07812.09375c.3125.03125.46875.1875.46875.5 0 .125-.01562.25-.0625.42187l-1.75 7.59375C2.1875-2.70312 1.96875-2 1.75-1.375c-.20312.57813-.54687.71875-1.07812.78125l-.57813.0625Zm0 0"/><path id="d" d="M1.59375-5.23437c0 4.1875.95313 8.78125 4.875 8.9375v-.54688c-1.3125-.25-3.39062-1.89062-3.39062-8.39062 0-6.45313 1.96875-8.09375 3.39062-8.375v-.5625c-3.92187.15625-4.875 4.76562-4.875 8.9375m0 0"/><path id="e" d="M1.375-2.23437c0 1.20312.35938 2.45312 1.85938 2.45312 2.14062 0 3.79687-2.26562 4.875-4.26562h.04687l-.625 2.21875c-.09375.375-.15625.70312-.15625.98437 0 .6875.32813 1.0625.96875 1.0625 1.46875 0 2.4375-1.26562 3.0625-2.67187l-.4375-.25C10.64063-2.04687 9.8125-.75 9.29688-.75 9.07813-.75 9-.89062 9-1.10937c0-.17188.0625-.39063.125-.64063l2.90625-11.92187-.09375-.07813-3.29687.42188-.09375.4375 1.10937.10937c.29688.01563.40625.09375.40625.3125 0 .09375-.01562.25-.07812.45313l-.70313 2.98437L9.23438-9c-.35938-.17187-.92188-.3125-1.5625-.3125-4.3125 0-6.29688 4.82813-6.29688 7.07813m1.84375.15625c0-2 1.60938-6.57813 4.57813-6.57813.57812 0 1.0625.17188 1.28125.375C8.79688-6.875 8.1875-5.10937 7.25-3.57812 6.35938-2.125 5.125-.75 4.14063-.75c-.59375 0-.92188-.5-.92188-1.32812m0 0"/><path id="f" d="M1.10938 3.15625v.54688c3.92187-.15625 4.875-4.75 4.875-8.9375 0-4.17188-.95313-8.78125-4.875-8.9375v.5625C2.53125-13.32812 4.5-11.6875 4.5-5.23437c0 6.5-2.07812 8.14062-3.39062 8.39062m0 0"/><clipPath id="c"><path d="M16 26h52.65234v58H16Zm0 0"/></clipPath></defs><use xlink:href="#a" x="24.95331" y="128.75812"/><use xlink:href="#b" x="6.57677" y="117.1792"/><g clip-path="url(#c)"><path fill="none" stroke="#000" stroke-miterlimit="10" stroke-width=".39465" d="m68.45705 78.11719-46.03908-46.043"/></g><use xlink:href="#d" x="29.388" y="21.39957"/><use xlink:href="#e" x="36.96531" y="21.39957"/><use xlink:href="#f" x="49.19951" y="21.39957"/></svg>