<svg xmlns="http://www.w3.org/2000/svg" xmlns:xlink="http://www.w3.org/1999/xlink" width="125.746pt" height="82.903pt" viewBox="0 0 125.746 82.903"><defs><path id="a" d="M0 0h2.75l.0625-.32812L2.35938-.375c-.34375-.01562-.53125-.10937-.53125-.35937 0-.625.10937-.96875.25-1.59375l1.0625-4.75h.03125l1.40625 6.9375h.3125l4.54687-6.9375h.03125L8.03125-.96875c-.09375.39063-.20312.53125-.48437.5625l-.64063.07813L6.82813 0h3.1875l.0625-.32812-.6875-.07813c-.20313-.01562-.29688-.10937-.29688-.29687 0-.07813.01563-.17188.03125-.26563l1.40625-6.14062c.10938-.39063.1875-.5625.48438-.57813l.65625-.04687.07812-.34375H9.46875C8.84375-7 8.15625-5.96875 7.4375-4.875L5.375-1.73437h-.03125L4.6875-4.96875c-.23437-1.0625-.46875-2.0625-.67187-3.10937H1.75l-.07812.34375.6875.0625c.20312 0 .29687.10937.29687.3125 0 .0625-.01562.15625-.03125.25L1.51563-2.32812C1.375-1.70312 1.23437-1.25 1.10938-.875.96875-.5.75-.40625.42188-.375L.0625-.32812Zm0 0"/><path id="b" d="M.375-3.15625C.375-1.23437 1.48438.17188 3.79688.17188c2.0625 0 3.07812-1.04688 3.71875-2.20313s.75-2.34375.75-2.79687c0-2.40625-1.45313-3.4375-3.39063-3.4375-1.85937 0-3.01562 1.03125-3.6875 2.15625C.53125-5.03125.375-3.92187.375-3.15625m1.23438.46875c0-.98437.17187-2.0625.71875-3.20312C2.85938-7 3.6875-7.84375 4.9375-7.84375c1.26563 0 2.09375.75 2.09375 2.40625 0 .67188-.0625 1.625-.54687 2.85938C6-1.3125 5.20313-.23437 3.6875-.23437c-1.26562 0-2.07812-.82813-2.07812-2.45313m0 0"/><path id="c" d="M.25 0h3.1875l.07813-.32812-.70313-.0625c-.1875 0-.28125-.125-.28125-.3125 0-.0625.01563-.17188.04688-.26563l1.39062-6.14062c.07813-.35938.1875-.5625.48438-.57813l.65625-.04687.07812-.34375H1.98438l-.07813.34375.6875.04687c.20313.01563.28125.14063.28125.32813 0 .0625 0 .15625-.03125.25L1.4375-.96875c-.07812.375-.20312.53125-.48437.5625L.3125-.32812Zm0 0"/></defs><path fill="none" stroke="#000" stroke-miterlimit="10" stroke-width=".3977" d="M19.91797 65.80078h88.40624L83.21484 16.64454Zm0 0"/><use xlink:href="#a" x="4.14263" y="78.26813"/><use xlink:href="#b" x="112.71233" y="78.45476"/><use xlink:href="#c" x="80.80977" y="12.25547"/></svg>