<svg xmlns="http://www.w3.org/2000/svg" xmlns:xlink="http://www.w3.org/1999/xlink" width="755.985" height="379.099" viewBox="0 0 755.985 379.099"><defs><path id="a" d="M.45313 0h10.75l1.07812-3.6875h-.625C10.57813-1.09375 9.60938-.73437 7.25-.73437c-2.15625 0-2.625-.20313-2.625-.875 0-.21876.07813-.53125.15625-.96875L7.125-12.79687c.1875-.6875.35938-1 .90625-1.04688l1.25-.09375.15625-.59375H3.57813l-.15625.59375 1.25.09375c.35937.03125.51562.20313.51562.5625 0 .14063-.01562.29688-.0625.48438L2.59375-1.75c-.17187.75-.35937.96875-.875 1.01563l-1.15625.125Zm0 0"/><path id="b" d="M1.71875-3.59375c0 2.82813 2.07813 3.90625 5.125 3.90625 2.85938 0 5.46875-.60937 6.64063-5.5l1.78125-7.60937c.1875-.70313.35937-1 .90625-1.04688l1.15624-.09375.14063-.59375h-5.75l-.15625.59375 1.23438.09375c.34375.03125.53125.20313.53125.57813 0 .14062-.03125.29687-.0625.46875L11.5625-5.45312C10.90625-2.65625 9.89063-.42187 6.95313-.42187c-1.85938 0-3.15625-.8125-3.15625-3.14063 0-.57812.09375-1.29687.26562-2.09375L5.75-12.79687c.17188-.70313.32813-1 .875-1.04688l1.15625-.09375.14063-.59375h-5.75l-.15625.59375 1.25.09375c.35937.03125.51562.20313.51562.5625 0 .14063-.03125.29688-.0625.48438L1.9375-5.39062c-.15625.67187-.21875 1.25-.21875 1.79687m0 0"/><path id="c" d="M0 0h4.96875l.10938-.60937L4.25-.67187c-.625-.04688-.96875-.17188-.96875-.625 0-1.125.20313-1.76563.45313-2.89063l1.96875-8.60937h.0625C7.73438-8.51562 9.6875-4.26562 11.60938 0h1.35937l2.34375-10.35937c.25-1.10938.5-1.92188.73438-2.60938.25-.67187.64062-.82812 1.26562-.89062l.64063-.07813.10937-.59375h-4.95312l-.125.59375.82812.09375c.625.07813.98438.26563.98438.73438 0 .76562-.21875 1.64062-.46875 2.75L12.60938-2.75h-.09375c-1.8125-3.9375-3.59375-7.84375-5.35938-11.78125h-4l-.14062.59375 1.23437.125c.35938.01563.53125.20313.53125.54688 0 .14062-.01562.29687-.0625.46875L2.73438-4.1875c-.25 1.125-.5 1.92188-.75 2.625-.23438.67188-.59375.82813-1.21875.89063l-.65625.0625Zm0 0"/><path id="d" d="M.21875 0h10.95313L12.25-3.6875h-.625C10.54688-1.09375 9.60938-.73437 7.01563-.73437c-2.48438 0-2.60938-.3125-2.60938-.875 0-.21876.0625-.53125.15625-.96875l1.07813-4.59375h2.75c1.5625 0 1.84375.3125 1.84375 1.21875 0 .1875 0 .35937-.01563.59375h.625L11.82813-9.75h-.65625c-.53125 1.45313-.75 1.79688-2.60938 1.79688h-2.75L7-13.1875c.10938-.51562.25-.625.60938-.625H10.125c2.0625 0 2.48438.53125 2.48438 1.67188 0 .51562-.0625 1.09375-.0625 1.09375h.625l.78125-3.48438h-10.625l-.15625.59375 1.28125.09375c.35937.03125.51562.1875.51562.51563 0 .14062-.03125.29687-.07812.5L2.39063-1.75c-.17188.71875-.35938.96875-.875 1.01563l-1.1875.125Zm0 0"/></defs><path fill="none" stroke="#000" stroke-miterlimit="10" stroke-width=".39756" d="M727.15627 189.25781 380.3789 30.1836 33.59764 189.2578 380.3789 348.32813Zm0 0"/><use xlink:href="#a" x="735.01597" y="196.52392"/><use xlink:href="#b" x="371.94687" y="21.98874"/><use xlink:href="#c" x="8.34204" y="196.52392"/><use xlink:href="#d" x="373.28868" y="370.74685"/><path fill="none" stroke="red" stroke-miterlimit="10" stroke-width=".39756" d="m557.4922 108.35546-7.45313 2.76563m-341.63283-5.12891-2.76562 7.45313m-2.375 156.71485 7.45312-2.76953m341.62893 5.12891 2.76953-7.45313"/></svg>