<svg xmlns="http://www.w3.org/2000/svg" xmlns:xlink="http://www.w3.org/1999/xlink" width="170.097pt" height="167.228pt" viewBox="0 0 170.097 167.228"><defs><path id="a" d="M0 0h4.39063L4.5-.53125l-.73437-.0625c-.5625-.04687-.85938-.15625-.85938-.5625 0-.98437.1875-1.5625.40625-2.54687l1.73438-7.625h.0625C6.85938-7.54687 8.57813-3.78125 10.28125 0h1.20313l2.09375-9.17187c.21875-.98438.42187-1.70313.64062-2.3125.21875-.59375.5625-.73438 1.10938-.79688l.57812-.0625.10938-.53125h-4.40626l-.09375.53125.73438.07813c.54688.0625.85938.23437.85938.65625 0 .67187-.1875 1.45312-.40625 2.4375L11.17188-2.4375h-.07813c-1.60937-3.48437-3.1875-6.95312-4.75-10.4375H2.79688l-.125.53125 1.09375.09375c.3125.03125.46875.1875.46875.5q0 .1875-.04688.42188l-1.76562 7.625c-.21875.98437-.4375 1.70312-.65625 2.3125-.21876.59375-.53125.73437-1.09375.79687l-.57813.0625Zm0 0"/><path id="b" d="M.59375-5.03125c0 3.0625 1.76563 5.3125 5.46875 5.3125 3.28125 0 4.89063-1.6875 5.92188-3.53125C13-5.07812 13.17188-6.96875 13.17188-7.70312c0-3.82813-2.3125-5.46875-5.39063-5.46875-2.96875 0-4.8125 1.64062-5.90625 3.42187C.85938-8.03125.59375-6.26562.59375-5.03125m1.96875.75c0-1.5625.29688-3.3125 1.14063-5.10937.85937-1.76563 2.1875-3.125 4.15625-3.125 2.04687 0 3.35937 1.20312 3.35937 3.84375 0 1.0625-.10937 2.59375-.875 4.57812-.78125 2-2.04687 3.71875-4.45312 3.71875-2.03125 0-3.32813-1.3125-3.32813-3.90625m0 0"/><path id="c" d="M0 0h5.64063c4.5 0 5.42187-2.3125 5.42187-3.85937 0-1.96875-1.45312-2.8125-2.82812-3.07813l.03125-.03125c2.46875-.29687 3.51562-1.70312 3.51562-3.10937 0-1.51563-.89062-2.79688-4.3125-2.79688H2.75l-.10937.53125L3.75-12.25c.3125.03125.45313.17188.45313.46875 0 .10938-.04688.26563-.07813.45313L1.92188-1.54687c-.14063.60937-.3125.82812-.76563.89062l-1.0625.125Zm3.71875-1.42187c0-.14063.03125-.28126.0625-.42188L4.85938-6.625h.73437c1.84375 0 3.45313.54688 3.45313 2.65625 0 1.67188-1 3.3125-3.5 3.3125-1.46875 0-1.82813-.29687-1.82813-.76562M5-7.26562l.96875-4.32813c.14063-.54687.23438-.65625 1.48438-.65625 1.5625 0 2.4375.79688 2.4375 2.10938 0 1.9375-1.625 2.875-3.6875 2.875Zm0 0"/></defs><path fill="none" stroke="#000" stroke-miterlimit="10" stroke-width=".3964" d="M29.02734 139.33594h112.78903L29.02734 26.5469Zm0 0"/><path fill="none" stroke="red" stroke-miterlimit="10" stroke-width=".3964" d="m82.61717 142.14062 5.60938-5.60937M31.83203 85.74611l-5.60547-5.60547"/><use xlink:href="#a" x="6.60593" y="159.22162"/><use xlink:href="#b" x="148.81796" y="159.51904"/><use xlink:href="#c" x="9.83678" y="19.54711"/></svg>