<svg xmlns="http://www.w3.org/2000/svg" xmlns:xlink="http://www.w3.org/1999/xlink" width="201.193pt" height="132.645pt" viewBox="0 0 201.193 132.645"><defs><path id="a" d="M0 0h4.40625L4.5-.53125l-.73437-.0625c-.54688-.04687-.84375-.1875-.84375-.57812 0-.98438.17187-1.54688.39062-2.53125l1.70313-7.60938h.04687L7.29688-.21875h.51562l7.26563-11.09375h.04687l-2.28125 9.76563c-.15625.64062-.34375.85937-.79687.89062l-1.01563.125L10.92188 0H16l.09375-.53125L15-.65625c-.32812-.01562-.46875-.17187-.46875-.46875q0-.1875.04688-.42187l2.25-9.79688c.15624-.64062.29687-.90625.76562-.9375l1.04688-.07812.125-.54688H15.125c-1 1.71875-2.10937 3.375-3.23437 5.10938L8.59375-2.76562h-.0625L7.48438-7.9375c-.375-1.6875-.75-3.29687-1.07813-4.96875H2.79688l-.125.54688 1.09375.09375c.32812.01562.48437.1875.48437.5 0 .125-.01562.25-.0625.42187L2.42188-3.70312c-.21875.98437-.4375 1.70312-.65625 2.3125-.21876.59375-.5625.73437-1.09375.79687l-.57813.0625Zm0 0"/><path id="b" d="M.59375-5.04687c0 3.07812 1.76563 5.32812 5.48438 5.32812C9.35938.28125 10.96875-1.40625 12-3.25c1.01563-1.82812 1.20313-3.73437 1.20313-4.46875 0-3.82812-2.32813-5.48437-5.40625-5.48437-2.96875 0-4.8125 1.65625-5.90625 3.4375C.85938-8.03125.59375-6.26562.59375-5.04687m1.96875.76562c0-1.57812.29688-3.3125 1.14063-5.125.85937-1.76562 2.1875-3.14062 4.17187-3.14062 2.04688 0 3.35938 1.21875 3.35938 3.85937 0 1.0625-.10938 2.59375-.875 4.57813-.78125 2-2.04688 3.73437-4.46875 3.73437C3.875-.375 2.5625-1.6875 2.5625-4.28125m0 0"/><path id="c" d="M.39063 0H5.5l.10938-.53125L4.5-.60937c-.3125-.03126-.45312-.20313-.45312-.5 0-.125.01562-.28126.0625-.4375l2.21875-9.79688c.14062-.57812.3125-.90625.79687-.9375l1.03125-.07812.125-.54688H3.17188l-.14063.54688 1.10938.07812c.32812.01563.46875.21875.46875.51563 0 .125-.03125.25-.0625.42187l-2.25 9.79688c-.14063.59375-.3125.85937-.76563.89062L.5-.53125Zm0 0"/></defs><path fill="none" stroke="#000" stroke-miterlimit="10" stroke-width=".39691" d="M31.80469 105.10156h141.16797l-40.09375-78.48828Zm0 0"/><use xlink:href="#a" x="6.61447" y="125.01309"/><use xlink:href="#b" x="179.98208" y="125.31089"/><use xlink:href="#c" x="129.03842" y="19.6029"/></svg>