<svg xmlns="http://www.w3.org/2000/svg" xmlns:xlink="http://www.w3.org/1999/xlink" width="281.012pt" height="166.65pt" viewBox="0 0 281.012 166.65"><defs><path id="a" d="M0 0h4.40625l.10938-.53125-.75-.0625c-.54688-.04687-.84375-.1875-.84375-.57812 0-1 .17187-1.54688.39062-2.54688l1.71875-7.59375h.03125l2.25 11.09375h.51563l7.26562-11.09375h.03125l-2.28125 9.76563c-.15625.64062-.32812.85937-.79687.89062l-1 .125-.125.53125H16l.10938-.53125-1.09376-.125c-.34375-.01562-.48437-.17187-.48437-.46875 0-.125.03125-.26562.0625-.42187l2.25-9.8125c.15625-.64063.29688-.89063.76563-.9375l1.03124-.07813.14063-.53125H15.125c-.98437 1.70313-2.09375 3.375-3.23437 5.09375L8.59375-2.76562h-.04687L7.48438-7.9375c-.375-1.6875-.75-3.29687-1.0625-4.96875h-3.625l-.10938.53125 1.07813.10938c.32812.01562.48437.17187.48437.48437 0 .125-.01562.26563-.0625.42188L2.42188-3.71875c-.21875 1-.4375 1.71875-.65625 2.32813-.21876.59375-.54688.73437-1.09375.79687l-.57813.0625Zm0 0"/><path id="b" d="M-.35937 0h4.21875l.10937-.53125L2.9375-.64062c-.23437-.01563-.32812-.14063-.32812-.3125 0-.09376.03125-.23438.09375-.375.60937-1.1875 1.20312-2.40625 1.90625-3.65625h4.1875L9.25-1.125s-.09375.45313-.48437.48438l-1 .10937L7.67188 0H12.25l.125-.53125-.71875-.0625c-.57812-.0625-.65625-.3125-.75-1.09375l-1.375-11.21875H8.20313l-3.14063 5.5c-.95312 1.67188-2.5 4.45313-3.20312 5.5625C1.26563-.875.95313-.67187.375-.60937l-.60937.07812Zm5.34375-5.70312 3.03125-5.48438.6875 5.48438Zm0 0"/><path id="c" d="M0 0h5.10938l.10937-.53125-1.10937-.10937c-.3125-.01563-.46875-.15626-.46875-.45313 0-.125.03125-.28125.07812-.45312l1-4.53125h1.14063c1.8125 0 2.0625.4375 2.0625 2.625C7.92188-1.1875 7.92188 0 9.89063 0h1.45312l.17188-.53125C10.20313-.71875 9.75-.78125 9.75-3.17187c0-1.90625-.15625-2.71875-1.70312-3.25 2.28125-.3125 3.82812-1.64063 3.82812-3.48438 0-1.32812-.57812-3-4.0625-3H2.78125l-.14062.53125 1.10937.07813c.32813.03125.45313.1875.45313.5 0 .125-.01563.26562-.04688.4375l-2.25 9.8125c-.15625.65625-.3125.85937-.78125.89062l-1.03125.125Zm4.89063-6.73437 1.09375-4.82813c.125-.53125.1875-.70312 1.60937-.70312 1.20313 0 2.32813.53125 2.32813 2.15625 0 2.21875-1.4375 3.375-3.84375 3.375Zm0 0"/><path id="d" d="M0 0h5.10938l.10937-.53125-1.10937-.07812c-.3125-.03126-.45313-.20313-.45313-.5 0-.125.01563-.28126.0625-.4375l1.17188-5.1875h.03125c.85937 1.75 1.76562 3.60937 2.90625 5.17187C8.71875-.35937 9.53125.04688 10.96875.07813l.90625.01562.14063-.54687C10.9375-.5625 10.5-1.04687 9.82813-1.89062c-1.25-1.5625-2.51563-3.82813-3.29688-5.48438 1.6875-1.40625 3.23438-2.6875 4.95313-3.89062 1.0625-.75 1.5-1 3.01562-1.10938l.07813-.53125H9.92188l-.07813.53125.71875.0625c.20313.01563.26563.09375.26563.21875 0 .09375-.10938.23438-.28125.39063l-5.51563 4.75H4.9375l1-4.40625c.14063-.57813.3125-.89063.79688-.9375l1.03125-.07813.125-.53125H2.78125l-.14062.53125 1.10937.07813c.32813.03125.45313.21875.45313.51562q0 .1875-.04688.42188l-2.25 9.8125c-.14062.59375-.3125.85937-.78125.89062l-1.03125.125Zm0 0"/></defs><use xlink:href="#a" x="130.33376" y="19.6419"/><use xlink:href="#b" x="6.61773" y="89.60392"/><use xlink:href="#c" x="132.99441" y="159.56595"/><use xlink:href="#d" x="259.43088" y="89.5541"/><path fill="none" stroke="#000" stroke-miterlimit="10" stroke-width=".39711" d="M139.42969 26.65628 26.43755 83.15234m0 0 112.99214 56.49217m0-.00001 112.98823-56.49216m0 0L139.42969 26.65628"/><path fill="none" stroke="#007F7F" stroke-dasharray="2.978369095 2.978369095" stroke-miterlimit="10" stroke-width=".39711" d="M139.42969 26.65628V139.6445M26.43755 83.15234h225.98037"/><path fill="none" stroke="red" stroke-miterlimit="10" stroke-width=".39711" d="m84.19143 51.13283-2.50781 7.53515m-2.52344 53.98435 7.53516-2.51172m107.9687 5.02734 2.5078-7.53515m2.52345-53.98435-7.53516 2.51172"/></svg>