<svg xmlns="http://www.w3.org/2000/svg" xmlns:xlink="http://www.w3.org/1999/xlink" width="226.325" height="149.216" viewBox="0 0 226.325 149.216"><defs><path id="a" d="M0 0h4.95313l.10937-.60937-.82812-.0625c-.625-.04688-.95313-.20313-.95313-.64063 0-1.125.20313-1.73437.4375-2.85937l1.92188-8.53125h.04687L8.20313-.25h.57812l8.17188-12.45312h.03124l-2.5625 10.96875c-.17187.70312-.375.95312-.89062 1l-1.14062.125-.125.60937h5.70312l.10938-.60937-1.21876-.125c-.375-.03126-.53124-.20313-.53124-.53125 0-.14063.01562-.29688.0625-.46875L18.90624-12.75c.1875-.71875.34375-1 .875-1.04687l1.15625-.09375.15625-.60938h-4.10937c-1.10938 1.92188-2.35938 3.79688-3.625 5.73438L9.65625-3.09375h-.0625l-1.1875-5.82812C7.98438-10.8125 7.5625-12.625 7.20313-14.5h-4.0625l-.125.60938 1.21875.10937c.35937.03125.53125.20313.53125.5625 0 .125-.01563.28125-.0625.46875L2.71875-4.17187c-.25 1.125-.48437 1.92187-.73437 2.60937-.25.67188-.625.82813-1.21875.89063l-.65625.0625Zm0 0"/><path id="b" d="M.67188-5.65625C.67188-2.20312 2.65625.3125 6.82813.3125c3.70312 0 5.5-1.89062 6.65625-3.96875 1.14062-2.04687 1.34375-4.1875 1.34375-5.01562 0-4.3125-2.60938-6.15625-6.0625-6.15625-3.34375 0-5.42188 1.84375-6.64063 3.85937C.95313-9.03125.67188-7.04687.67188-5.65625M2.875-4.8125c0-1.76562.32813-3.73437 1.29688-5.75.95312-1.98437 2.45312-3.53125 4.6875-3.53125 2.29687 0 3.76562 1.35938 3.76562 4.32813 0 1.20312-.10937 2.92187-.98437 5.15625-.875 2.25-2.29688 4.1875-5.01563 4.1875-2.28125 0-3.75-1.46875-3.75-4.39063m0 0"/><path id="c" d="M.45313 0h5.71875l.14062-.60937-1.25-.07813c-.35937-.03125-.51562-.23437-.51562-.5625 0-.125.03125-.3125.0625-.48437l2.5-11.01563c.15625-.65625.35937-1 .89062-1.04687l1.15625-.09375.14063-.60938H3.5625l-.15625.60938 1.25.09375c.35938.01562.51563.23437.51563.57812 0 .125-.01563.28125-.0625.46875L2.59375-1.73437c-.15625.67187-.35937.95312-.875 1l-1.15625.125Zm0 0"/></defs><path fill="none" stroke="#000" stroke-miterlimit="10" stroke-width=".39642" d="M35.99219 117.98437h158.61713L149.56246 29.793Zm0 0"/><use xlink:href="#a" x="7.68768" y="140.35754"/><use xlink:href="#b" x="202.46828" y="140.69179"/><use xlink:href="#c" x="145.233" y="21.92679"/></svg>