<svg xmlns="http://www.w3.org/2000/svg" xmlns:xlink="http://www.w3.org/1999/xlink" width="420.035pt" height="210.63pt" viewBox="0 0 420.035 210.63"><defs><path id="a" d="M.25 0h5.96875l.59375-2.04687h-.34375C5.875-.60937 5.34375-.40625 4.03125-.40625c-1.20312 0-1.45312-.10937-1.45312-.48437 0-.125.03125-.29688.07812-.53125l1.3125-5.6875c.09375-.375.1875-.5625.48438-.57813l.70312-.04687.07813-.34375h-3.25l-.07813.34375.6875.04687c.20313.01563.28125.10938.28125.3125 0 .07813 0 .15625-.03125.26563L1.4375-.96875c-.09375.40625-.20312.53125-.48437.5625L.3125-.32812Zm0 0"/><path id="b" d="M.95313-2c0 1.57813 1.15625 2.17188 2.84375 2.17188 1.59375 0 3.04687-.32813 3.6875-3.04688l1-4.23437c.09375-.39063.20312-.5625.5-.57813l.64062-.04687.07813-.34375h-3.1875l-.09375.34375.6875.04687c.1875.01563.29687.10938.29687.32813 0 .0625-.01562.15625-.04687.25l-.9375 4.07812c-.35938 1.54688-.9375 2.79688-2.5625 2.79688-1.03125 0-1.75-.45313-1.75-1.73438 0-.32812.04687-.73437.15625-1.17187l.92187-3.96875c.10938-.39063.1875-.5625.48438-.57813l.65625-.04687.0625-.34375h-3.1875l-.07813.34375.6875.04687c.20313.01563.28125.10938.28125.3125 0 .07813 0 .15625-.03125.26563L1.07813-3c-.07813.375-.125.70313-.125 1m0 0"/><path id="c" d="M0 0h2.75l.0625-.32812L2.35938-.375c-.34375-.01562-.53125-.09375-.53125-.34375 0-.625.10937-.98437.25-1.60937l1.09375-4.78125h.03125C4.29688-4.73437 5.375-2.375 6.45313 0h.75l1.3125-5.75c.125-.625.26562-1.0625.40625-1.45312.14062-.375.34375-.46875.6875-.5l.35937-.03125.0625-.34375h-2.75l-.0625.34375.45313.04687c.35937.03125.54687.14063.54687.40625 0 .42188-.125.90625-.25 1.53125L7-1.53125h-.04687c-1-2.1875-2-4.35937-2.98438-6.54687H1.75l-.07812.34375.6875.0625c.20312 0 .29687.10937.29687.3125 0 .0625-.01562.15625-.03125.25L1.51563-2.32812C1.375-1.70312 1.23437-1.25 1.10938-.875c-.14063.375-.34375.46875-.6875.5L.0625-.32812Zm0 0"/><path id="d" d="M.125 0h6.07813l.60937-2.04687h-.35937C5.85938-.60937 5.34375-.40625 3.90625-.40625c-1.39062 0-1.45312-.17187-1.45312-.48437 0-.125.03125-.29688.07812-.53125l.59375-2.5625h1.53125c.875 0 1.03125.17187 1.03125.6875 0 .09375 0 .1875-.01562.3125h.35937l.54688-2.4375h-.375c-.29688.8125-.42188 1-1.45313 1H3.23438l.65625-2.90625c.0625-.28125.14062-.34375.32812-.34375H5.625C6.76563-7.67187 7-7.375 7-6.75c0 .29688-.03125.60938-.03125.60938h.34375l.4375-1.9375H1.84375l-.07812.34375.70312.04687c.20313.01563.28125.09375.28125.28125 0 .07813 0 .17188-.03125.28125L1.32813-.96875c-.09376.39063-.20313.53125-.48438.5625L.1875-.32812Zm0 0"/></defs><path fill="none" stroke="#000" stroke-miterlimit="10" stroke-width=".39759" d="m403.53519 105.21875-192.668-88.38283-192.6719 88.38283 192.6719 88.37892Zm0 0"/><use xlink:href="#a" x="407.92283" y="109.25495"/><use xlink:href="#b" x="206.18131" y="12.27376"/><use xlink:href="#c" x="4.14149" y="109.25495"/><use xlink:href="#d" x="206.9266" y="206.06254"/><path fill="none" stroke="red" stroke-miterlimit="10" stroke-width=".39759" d="m310.93752 59.64843-7.45313 2.76563m-187.56253-5.1211L113.15623 64.75m-2.36328 86.03516 7.45704-2.76562m187.55862 5.12109 2.76563-7.45703"/></svg>