<svg xmlns="http://www.w3.org/2000/svg" xmlns:xlink="http://www.w3.org/1999/xlink" width="79.669pt" height="85.002pt" viewBox="0 0 79.669 85.002"><defs><path id="a" d="m1.67188-1.25.48437.46875 2-2.01562L6.1875-.78125 6.65625-1.25 4.64063-3.26562l2.01562-2.01563L6.1875-5.75l-2.03125 2-2-2-.48437.46875L3.6875-3.26562Zm0 0"/><path id="b" d="M0 0h2.73438l.0625-.32812L2.34375-.375C2-.39062 1.8125-.48437 1.8125-.71875c0-.625.10938-.96875.25-1.57812l1.04688-4.71875h.03125l1.39062 6.875h.3125l4.51563-6.875H9.375L7.96875-.95312c-.09375.39062-.21875.51562-.5.54687l-.625.07813L6.76563 0h3.15625l.0625-.32812-.67188-.07813c-.21875-.01562-.29687-.10937-.29687-.29687 0-.07813.01562-.15626.03125-.25l1.39062-6.09375c.10938-.39063.1875-.54688.48438-.57813l.64062-.04687L11.64063-8H9.375c-.60937 1.0625-1.29687 2.09375-2 3.15625l-2.04687 3.125h-.03125l-.65625-3.20312C4.40625-5.96875 4.17188-6.96875 3.98438-8h-2.25l-.07813.32813.6875.0625c.1875.01562.29688.10937.29688.3125 0 .0625-.01563.15625-.04688.25L1.5-2.29687c-.14062.60937-.26562 1.04687-.40625 1.4375C.95313-.5.75-.40625.42188-.375L.0625-.32812Zm0 0"/><path id="c" d="M1-3.26562c0 2.60937.59375 5.48437 3.03125 5.57812v-.34375c-.8125-.15625-2.10937-1.1875-2.10937-5.23437 0-4.01563 1.23437-5.04688 2.10937-5.23438v-.34375C1.59375-8.73437 1-5.875 1-3.26562m0 0"/><path id="d" d="M.85938-1.39062c0 .75.21874 1.53125 1.15625 1.53125 1.32812 0 2.375-1.42188 3.04687-2.67188h.01563l-.375 1.39063q-.09375.35156-.09375.60937c0 .4375.1875.67188.59375.67188.92187 0 1.51562-.79688 1.90625-1.67188l-.26563-.15625C6.64063-1.28125 6.125-.46875 5.79688-.46875c-.14063 0-.1875-.07812-.1875-.21875 0-.10937.04687-.25.07812-.40625l1.82813-7.4375-.0625-.04687-2.0625.26562-.0625.26563.6875.0625c.1875.01562.26562.0625.26562.20312q0 .09375-.04687.28125l-.45313 1.85938-.01562.03125c-.21875-.10938-.57813-.20313-.96875-.20313-2.70313 0-3.9375 3.01563-3.9375 4.42188M2-1.29688c0-1.25 1.01563-4.10937 2.85938-4.10937.35937 0 .67187.10938.79687.23438-.17187.89062-.54687 1.98437-1.14062 2.9375-.54688.90625-1.3125 1.76562-1.9375 1.76562C2.21875-.46875 2-.78125 2-1.29687m0 0"/><path id="e" d="M.6875 1.96875v.34375c2.45313-.09375 3.04688-2.96875 3.04688-5.57812S3.14063-8.73437.6875-8.84375V-8.5c.89063.1875 2.125 1.21875 2.125 5.23438 0 4.04687-1.29687 5.07812-2.125 5.23437m0 0"/><path id="f" d="M1.125 0h3.42188v-.29687l-.875-.07813c-.21875-.03125-.34375-.09375-.34375-.51562v-6.14063l-.04688-.04687-2.15625.35937v.26563l.98438.10937c.17187.03125.23437.10938.23437.40625v5.04688C2.34375-.46875 2.25-.40625 2-.375l-.875.07813Zm0 0"/><path id="g" d="m.53125 1.28125.20313.1875C1.25.98438 2 .28125 2-.53125c0-.54687-.29687-.9375-.6875-.9375-.32812 0-.53125.25-.53125.51563 0 .375.34375.57812.34375 1.01562S.85938.90625.53125 1.28125m0 0"/><path id="h" d="M.4375-3.48437C.4375-1.39062 1.04688.125 2.76563.125c1.70312 0 2.32812-1.51562 2.32812-3.60937 0-2.07813-.625-3.59375-2.32812-3.59375C1.04688-7.07812.4375-5.5625.4375-3.48437m1.04688 0c0-1.6875.28124-3.23438 1.28125-3.23438.98437 0 1.26562 1.54688 1.26562 3.23438C4.03125-1.78125 3.75-.25 2.76563-.25c-1 0-1.28125-1.53125-1.28125-3.23437m0 0"/><path id="i" d="m.20313-2.07812.07812.21875H3.125v1.0625c0 .35937-.10937.40625-.35937.4375l-.67188.0625V0h2.75v-.29687L4.375-.35937c-.25-.03125-.3125-.07813-.3125-.4375v-1.0625H5.125v-.48438H4.0625v-4.60937h-.76562c-.96875 1.4375-2.14063 3.23437-3.09375 4.875m.75-.26563c.625-1.14062 1.375-2.34375 2.17187-3.60937v3.60937Zm0 0"/><path id="j" d="M.51563-2.5c0 1.73438.84375 2.625 2.40625 2.625.73437 0 1.71875-.375 2.01562-1.5l-.3125-.14062c-.32812.73437-.73437 1.09375-1.5 1.09375-1.23437 0-1.53125-1.29688-1.53125-2.26563 0-1.5625.60938-2.17187 1.32813-2.17187.48437 0 .78125.34375.98437.90625.07813.17187.14063.26562.34375.26562.20313 0 .60938-.14062.60938-.53125 0-.48437-.6875-1.01562-1.82813-1.01562C1.14063-5.23437.51563-3.89062.51563-2.5m0 0"/><path id="k" d="M.32813 0H2.875v-.29687c-.75-.0625-.78125-.07813-.78125-.60938v-2.4375c0-.26562 0-.40625.07813-.5625.20312-.42187.65625-.75 1.23437-.75.89063 0 1 .64063 1 1.28125v2.46875c0 .53125-.03125.54688-.78125.60938V0h2.53125v-.29687c-.73437-.0625-.76562-.07813-.76562-.60938v-2.4375c0-.26562 0-.40625.07812-.5625.14063-.42187.59375-.75 1.17188-.75.65625 0 1.0625.35938 1.0625 1.28125v2.46875c0 .53125-.03125.54688-.79688.60938V0h2.54688v-.29687c-.73438-.0625-.78125-.07813-.78125-.60938V-3.5625c0-1.0625-.5625-1.67187-1.54688-1.67187-.85937 0-1.46875.57812-1.82812.79687-.25-.48437-.65625-.79687-1.39063-.79687-.79687 0-1.45312.53125-1.8125.79687L2-5.23437l-1.60937.26562v.26563l.39062.04687c.26563.04688.34375.09375.34375.46875v3.28125c0 .53125-.04687.54688-.79687.60938Zm0 0"/></defs><path fill="none" stroke="red" stroke-miterlimit="10" stroke-width=".39388" d="m45.87108 51.1914-4.05859 4.0625-4.0625-4.0625 4.0625-4.05859 4.0586 4.0586"/><use xlink:href="#a" x="15.86394" y="79.91275"/><use xlink:href="#b" x="4.40151" y="72.69055"/><path fill="none" stroke="#000" stroke-miterlimit="10" stroke-width=".39388" d="M42.99999 48.32031 14.28125 19.60157"/><path fill="none" stroke="#000" stroke-dasharray="2.954159572 2.954159572" stroke-miterlimit="10" stroke-width=".39388" d="m42.99999 48.32031 28.71874 28.71874m-51.69529 0L45.87108 51.1914"/><use xlink:href="#c" x="18.62947" y="12.94007"/><use xlink:href="#d" x="23.35604" y="12.94007"/><use xlink:href="#e" x="30.98748" y="12.94007"/><use xlink:href="#f" x="37.2963" y="75.54306"/><use xlink:href="#g" x="42.8131" y="75.54306"/><use xlink:href="#h" x="46.80115" y="75.54306"/><use xlink:href="#i" x="52.31795" y="75.54306"/><use xlink:href="#j" x="60.17395" y="75.54306"/><use xlink:href="#k" x="65.33625" y="75.54306"/></svg>