<svg xmlns="http://www.w3.org/2000/svg" xmlns:xlink="http://www.w3.org/1999/xlink" width="43.401pt" height="85.002pt" viewBox="0 0 43.401 85.002"><defs><path id="a" d="m1.67188-1.25.48437.46875 2-2 2.01563 2L6.625-1.25l-2-2 2-2.01562-.45312-.46875-2.01563 2-2-2-.48437.46875L3.6875-3.25Zm0 0"/><path id="b" d="M0 0h2.71875l.0625-.32812L2.32813-.375c-.34375-.01562-.51563-.10937-.51563-.34375 0-.625.10938-.96875.23438-1.57812L3.10938-7H3.125L4.51563-.14062h.32812L9.32813-7h.03125L7.95313-.95312c-.10938.39062-.21875.51562-.5.54687l-.625.07813L6.75 0h3.15625l.04688-.32812-.67188-.07813c-.20312-.01562-.29687-.10937-.29687-.29687 0-.07813.01562-.15626.04687-.25l1.39063-6.07813c.09375-.39062.17187-.54687.46875-.57812l.64062-.04688.09375-.32812H9.35938c-.60938 1.0625-1.29688 2.09375-2 3.15625l-2.04688 3.125h-.03125L4.625-4.90625c-.23437-1.04687-.46875-2.04687-.65625-3.07812H1.73438l-.07813.32812.67188.0625c.20312.01563.29687.10938.29687.3125 0 .07813-.01562.15625-.03125.25L1.5-2.29687c-.14062.60937-.26562 1.0625-.40625 1.4375S.75-.40625.42188-.375L.0625-.32812Zm0 0"/><path id="d" d="M1-3.25c0 2.59375.57813 5.45313 3.03125 5.5625v-.34375C3.20313 1.8125 1.92188.78125 1.92188-3.25c0-4.01562 1.21875-5.04687 2.10937-5.21875v-.34375C1.57813-8.71875 1-5.85937 1-3.25m0 0"/><path id="e" d="M.85938-1.39062c0 .75.21874 1.53125 1.15625 1.53125 1.32812 0 2.35937-1.42188 3.03125-2.65625h.03125l-.39063 1.375q-.09375.35156-.09375.60937c0 .4375.20313.67188.59375.67188.92188 0 1.51563-.79688 1.90625-1.65625l-.26562-.17188C6.625-1.28125 6.10938-.46875 5.78125-.46875c-.125 0-.1875-.07812-.1875-.21875 0-.10937.04688-.25.07813-.40625l1.8125-7.42187-.04688-.04688-2.0625.26563-.0625.28125.6875.0625c.1875 0 .26563.0625.26563.1875q0 .09375-.04688.28125L5.76563-5.625 5.75-5.59375c-.21875-.10937-.57812-.20312-.96875-.20312-2.6875 0-3.92187 3.01562-3.92187 4.40625M2-1.29688c0-1.25 1.01563-4.09374 2.84375-4.09374.35938 0 .67188.10937.8125.23437-.17187.875-.5625 1.96875-1.15625 2.9375-.54687.89063-1.3125 1.75-1.92187 1.75-.375 0-.57813-.3125-.57813-.82812m0 0"/><path id="f" d="M.6875 1.96875v.34375C3.125 2.20313 3.71875-.65625 3.71875-3.25c0-2.60937-.59375-5.46875-3.03125-5.5625v.34375c.89063.17188 2.10938 1.20313 2.10938 5.21875 0 4.03125-1.28125 5.0625-2.10938 5.21875m0 0"/><clipPath id="c"><path d="M8 14h34.8086v40H8Zm0 0"/></clipPath></defs><use xlink:href="#a" x="15.53361" y="79.83671"/><use xlink:href="#b" x="4.09449" y="72.62919"/><g clip-path="url(#c)"><path fill="none" stroke="#000" stroke-miterlimit="10" stroke-width=".39308" d="M42.61327 48.3086 13.95313 19.64844"/></g><use xlink:href="#d" x="18.29352" y="13.00016"/><use xlink:href="#e" x="23.01049" y="13.00016"/><use xlink:href="#f" x="30.62642" y="13.00016"/></svg>