<svg xmlns="http://www.w3.org/2000/svg" xmlns:xlink="http://www.w3.org/1999/xlink" width="121.474pt" height="110.18pt" viewBox="0 0 121.474 110.18"><defs><path id="a" d="M0 0h3.17188L3.25-.32812l-.6875-.0625C2.35938-.40625 2.26563-.5 2.26563-.6875c0-.0625.01562-.17187.04687-.28125l.625-2.8125h.70313c1.125 0 1.29687.26563 1.29687 1.625C4.9375-.73437 4.9375 0 6.15625 0h.90625l.10938-.32812C6.35938-.4375 6.0625-.48437 6.0625-1.98437c0-1.17188-.09375-1.6875-1.0625-2 1.42188-.20313 2.39063-1.03125 2.39063-2.1875 0-.82813-.35938-1.85938-2.53125-1.85938h-3.125l-.09376.32813.6875.04687c.20313.01563.29688.10938.29688.3125 0 .07813-.01562.15625-.04687.28125L1.1875-.96875c-.09375.40625-.20312.53125-.48437.5625L.0625-.32812Zm3.04688-4.1875.67187-3c.09375-.34375.125-.45312 1-.45312.75 0 1.46875.34375 1.46875 1.34375 0 1.39062-.90625 2.10937-2.40625 2.10937Zm0 0"/><path id="b" d="M.25 0h3.17188L3.5-.32812l-.6875-.0625c-.20312 0-.29687-.10938-.29687-.29688q0-.11718.04687-.28125l1.375-6.09375c.09375-.35937.20313-.5625.5-.59375l.64063-.04687.07812-.32813H1.98438l-.09376.32813.6875.04687c.20313.01563.29688.14063.29688.32813 0 .07812-.01562.15625-.04687.26562L1.4375-.96875c-.09375.375-.20312.53125-.48437.5625L.3125-.32812Zm0 0"/><path id="c" d="M-.25-.14062-.20312 0H6.4375l.59375-2.04687h-.35937C6.0625-.60937 5.57813-.40625 3.73438-.40625H1.375c2.20313-2.45312 4.5-4.96875 6.78125-7.48437l-.0625-.14063H2.20313l-.4375 1.95313h.34375c.48437-1.34375.875-1.5625 2.15625-1.5625h2.26562C4.3125-5.1875 2.04688-2.65625-.25-.14062m0 0"/></defs><path fill="none" stroke="#000" stroke-miterlimit="10" stroke-width=".39556" d="M104.26956 92.84375 60.3047 16.5195 16.33984 92.84375Zm0 0"/><path fill="none" stroke="red" stroke-miterlimit="10" stroke-width=".39556" d="m86.13284 55.7578-7.64064-2.0547m-41.17188-2.8867 2.05469 7.63671m18.13282 37.18752 5.59375-5.59376"/><use xlink:href="#a" x="108.63453" y="105.24572"/><use xlink:href="#b" x="57.91103" y="12.15454"/><use xlink:href="#c" x="4.30797" y="105.24572"/></svg>