<svg xmlns="http://www.w3.org/2000/svg" xmlns:xlink="http://www.w3.org/1999/xlink" width="672.053pt" height="337.007pt" viewBox="0 0 672.053 337.007"><defs><path id="a" d="M.39063 0h9.5625l.95312-3.28125h-.5625c-.95312 2.3125-1.79687 2.625-3.90625 2.625-1.90625 0-2.32812-.17187-2.32812-.78125 0-.1875.0625-.46875.14062-.84375l2.07813-9.07812c.17187-.60938.32812-.89063.79687-.9375l1.10938-.07813.14062-.53125H3.17188l-.14063.53125 1.125.07813c.3125.03125.45313.1875.45313.5 0 .125-.01563.26562-.0625.4375l-2.25 9.8125c-.15625.65625-.3125.85937-.76563.89062L.5-.53125Zm0 0"/><path id="b" d="M1.53125-3.20312C1.53125-.67187 3.375.28125 6.07813.28125c2.54687 0 4.85937-.54687 5.89062-4.89062l1.59375-6.75c.15625-.64063.3125-.89063.79688-.9375l1.03125-.07813.125-.53125h-5.10938l-.14062.53125 1.09375.07813c.3125.03125.48437.1875.48437.51562 0 .125-.03125.26563-.0625.42188l-1.51562 6.51562C9.6875-2.35937 8.78125-.375 6.17188-.375 4.53125-.375 3.375-1.09375 3.375-3.15625c0-.51562.07813-1.15625.23438-1.875l1.5-6.32812c.15625-.64063.29687-.89063.76562-.9375l1.03125-.07813.125-.53125H1.92188l-.14063.53125 1.125.07813c.3125.03125.45313.1875.45313.5 0 .125-.01563.26562-.0625.4375l-1.5625 6.57812c-.14063.59375-.20313 1.10938-.20313 1.57813m0 0"/><path id="c" d="M0 0h4.40625l.10938-.53125-.75-.0625c-.54688-.04687-.84375-.15625-.84375-.5625 0-.98437.17187-1.5625.39062-2.5625l1.75-7.64062h.0625C6.875-7.5625 8.59375-3.79687 10.3125 0h1.20313l2.09375-9.1875c.21875-1 .4375-1.71875.65625-2.32812.21875-.59375.54687-.73438 1.10937-.79688l.57813-.0625.09375-.53125h-4.40626l-.10937.53125.73438.07813c.5625.0625.875.25.875.65625 0 .67187-.1875 1.45312-.40625 2.45312l-1.53125 6.75H11.125c-1.60937-3.5-3.20312-6.96875-4.76562-10.46875h-3.5625l-.10938.53125 1.07813.10938c.32812.01562.48437.17187.48437.48437 0 .125-.01562.26563-.0625.42188L2.42188-3.71875c-.21875 1-.4375 1.71875-.65625 2.32813-.21876.59375-.53125.73437-1.09375.79687l-.57813.0625Zm0 0"/><path id="d" d="M.20313 0h9.71875l.96875-3.28125h-.5625c-.95313 2.3125-1.78125 2.625-4.09375 2.625-2.20313 0-2.32813-.28125-2.32813-.78125 0-.1875.0625-.46875.14063-.84375L5-6.375h2.45313c1.39062 0 1.64062.28125 1.64062 1.09375 0 .15625 0 .3125-.01562.51563H9.625l.875-3.89063h-.57812C9.45313-7.375 9.25-7.0625 7.60938-7.0625H5.15625l1.0625-4.65625c.09375-.45312.21875-.54687.53125-.54687H9c1.82813 0 2.20313.46875 2.20313 1.48437 0 .45313-.0625.96875-.0625.96875h.5625l.6875-3.09375h-9.4375l-.14063.53125 1.14063.07813c.3125.03125.45312.15625.45312.45312 0 .125-.01562.26563-.0625.4375L2.125-1.54687c-.15625.64062-.3125.85937-.78125.89062l-1.04687.125Zm0 0"/></defs><path fill="none" stroke="#000" stroke-miterlimit="10" stroke-width=".39733" d="M645.74996 168.14844 337.67969 26.82814 29.6055 168.14844l308.07418 141.31639Zm0 0"/><use xlink:href="#a" x="652.76721" y="174.60353"/><use xlink:href="#b" x="330.1907" y="19.53444"/><use xlink:href="#c" x="7.13658" y="174.60353"/><use xlink:href="#d" x="331.38218" y="329.39543"/><path fill="none" stroke="red" stroke-miterlimit="10" stroke-width=".39733" d="m495.4531 96.1133-7.44921 2.76562m-302.96481-5.1211-2.76562 7.44922m-2.36719 138.97654 7.44922-2.76562m302.96481 5.12109 2.76562-7.44921"/></svg>