<svg xmlns="http://www.w3.org/2000/svg" xmlns:xlink="http://www.w3.org/1999/xlink" width="191.345pt" height="188.117pt" viewBox="0 0 191.345 188.117"><defs><path id="a" d="M0 0h4.95313l.10937-.60937-.82812-.0625c-.625-.04688-.95313-.17188-.95313-.625 0-1.10938.20313-1.76563.4375-2.875l1.96875-8.59375H5.75C7.71875-8.5 9.65625-4.26562 11.57813 0h1.35937l2.34375-10.32812c.25-1.125.5-1.92188.73438-2.60938.25-.67187.625-.82812 1.25-.89062l.65624-.07813.10938-.59375h-4.95312l-.10938.59375.82813.09375c.60937.0625.96875.26563.96875.73438 0 .76562-.21875 1.625-.46875 2.75L12.57813-2.75H12.5c-1.8125-3.92187-3.59375-7.82812-5.35937-11.75h-4l-.125.59375 1.21875.10938c.35937.03125.54687.20312.54687.5625 0 .14062-.03125.29687-.07812.46875L2.71875-4.17187C2.48438-3.0625 2.23438-2.25 1.98438-1.5625c-.25.67188-.59375.82813-1.21875.89063l-.65625.0625Zm0 0"/><path id="b" d="M.67188-5.67187C.67188-2.20312 2.65625.3125 6.82813.3125c3.70312 0 5.51562-1.89062 6.67187-3.96875 1.14063-2.0625 1.34375-4.20312 1.34375-5.01562 0-4.3125-2.60937-6.17188-6.07812-6.17188-3.34375 0-5.42188 1.85938-6.64063 3.85938C.95313-9.03125.67188-7.04687.67188-5.67187M2.875-4.8125c0-1.76562.34375-3.73437 1.29688-5.76562.95312-1.98438 2.45312-3.51563 4.6875-3.51563 2.29687 0 3.76562 1.35938 3.76562 4.32813 0 1.20312-.10937 2.92187-.98437 5.14062C10.78125-2.35937 9.34375-.42187 6.625-.42187c-2.28125 0-3.75-1.46875-3.75-4.39063m0 0"/><path id="c" d="M0 0h6.35938c5.0625 0 6.09375-2.60937 6.09375-4.34375 0-2.21875-1.625-3.17187-3.17188-3.46875l.01563-.04687c2.79687-.32813 3.98437-1.90625 3.98437-3.5 0-1.6875-1.01562-3.14063-4.875-3.14063h-5.3125l-.125.59375 1.25.10938c.35938.03125.51563.1875.51563.51562 0 .14063-.04688.3125-.09375.51563L2.17188-1.73437c-.15625.6875-.35938.9375-.875 1l-1.1875.125Zm4.1875-1.60937c0-.15626.03125-.3125.07813-.46875l1.20312-5.375h.82813c2.0625 0 3.90625.60937 3.90625 2.98437 0 1.875-1.14063 3.73438-3.95313 3.73438-1.65625 0-2.0625-.34375-2.0625-.875M5.625-8.1875l1.09375-4.85937c.15625-.625.26563-.75 1.67188-.75 1.76562 0 2.75.90625 2.75 2.375 0 2.1875-1.84375 3.23437-4.15625 3.23437Zm0 0"/></defs><path fill="none" stroke="#000" stroke-miterlimit="10" stroke-width=".39664" d="M32.79688 156.76953H159.7617L32.79688 29.8047Zm0 0"/><path fill="none" stroke="red" stroke-miterlimit="10" stroke-width=".39664" d="m93.46875 159.57422 5.60937-5.60938M35.60156 96.09766l-5.60937-5.60938"/><use xlink:href="#a" x="7.5571" y="179.15507"/><use xlink:href="#b" x="167.62974" y="179.4895"/><use xlink:href="#c" x="11.19403" y="21.93802"/></svg>