<svg xmlns="http://www.w3.org/2000/svg" xmlns:xlink="http://www.w3.org/1999/xlink" width="127.468pt" height="135.995pt" viewBox="0 0 127.468 135.995"><defs><path id="a" d="m2.70313-2.03125.76562.78125L6.70313-4.5l3.26562 3.25.75-.78125-3.23437-3.23437 3.23437-3.25-.75-.75-3.26562 3.23437-3.23438-3.23437-.76562.75 3.25 3.25Zm0 0"/><path id="b" d="M0 0h4.40625L4.5-.53125l-.73437-.0625c-.54688-.04687-.84375-.1875-.84375-.57812 0-.98438.17187-1.54688.39062-2.53125l1.70313-7.60938h.04687L7.29688-.21875h.51562l7.26563-11.09375h.04687l-2.28125 9.76563c-.15625.64062-.34375.85937-.79687.89062l-1.01563.125L10.92188 0H16l.09375-.53125L15-.65625c-.32812-.01562-.46875-.17187-.46875-.46875q0-.1875.04688-.42187l2.25-9.79688c.15624-.64062.29687-.90625.76562-.9375l1.04688-.07812.125-.54688H15.125c-1 1.71875-2.10937 3.375-3.23437 5.10938L8.59375-2.76562h-.0625L7.48438-7.9375c-.375-1.6875-.75-3.29687-1.07813-4.96875H2.79688l-.125.54688 1.09375.09375c.32812.01562.48437.1875.48437.5 0 .125-.01562.25-.0625.42187L2.42188-3.70312c-.21875.98437-.4375 1.70312-.65625 2.3125-.21876.59375-.5625.73437-1.09375.79687l-.57813.0625Zm0 0"/><path id="c" d="M1.60938-5.26562c0 4.21875.95312 8.84375 4.90625 9v-.5625c-1.34375-.25-3.42188-1.90625-3.42188-8.4375 0-6.48438 1.98438-8.125 3.42188-8.42188v-.5625c-3.95313.15625-4.90625 4.78125-4.90625 8.98438m0 0"/><path id="d" d="M1.39063-2.25C1.39063-1.03125 1.75.21875 3.25.21875c2.14063 0 3.8125-2.28125 4.90625-4.28125h.04688l-.625 2.21875c-.09375.375-.15625.71875-.15625.98438 0 .70312.3125 1.07812.96875 1.07812 1.46875 0 2.4375-1.26562 3.07812-2.67187l-.4375-.26563C10.70313-2.0625 9.85938-.75 9.34375-.75c-.21875 0-.29687-.14062-.29687-.35937 0-.1875.0625-.40625.125-.65625L12.10938-13.75 12-13.82812l-3.3125.4375-.09375.4375 1.10938.09375c.29687.01562.42187.09375.42187.3125 0 .10937-.03125.26562-.07812.46875l-.71875 2.98437-.04688.04688c-.34375-.1875-.92187-.3125-1.5625-.3125C3.375-9.35937 1.39063-4.5 1.39063-2.25m1.84375.17188c0-2.03125 1.625-6.64063 4.60937-6.64063.5625 0 1.0625.1875 1.28125.39063-.28125 1.42187-.89062 3.1875-1.84375 4.73437C6.39063-2.14062 5.15625-.75 4.17188-.75c-.59375 0-.9375-.5-.9375-1.32812m0 0"/><path id="e" d="M1.10938 3.17188v.5625c3.95312-.15625 4.90625-4.78125 4.90625-9 0-4.20313-.95313-8.82813-4.90625-8.98438v.5625c1.4375.29688 3.42187 1.9375 3.42187 8.42188 0 6.53125-2.09375 8.1875-3.42187 8.4375m0 0"/><path id="f" d="M1.82813 0h5.51562v-.48437l-1.42187-.125c-.34375-.03126-.54688-.15626-.54688-.8125v-9.90625l-.09375-.07813-3.45312.57813v.42187l1.5625.1875c.28125.03125.39062.15625.39062.64063v8.15625c0 .65625-.15625.78125-.54687.8125l-1.40625.125Zm0 0"/><path id="g" d="m.85938 2.04688.3125.32812c.84375-.78125 2.0625-1.90625 2.0625-3.23437 0-.89063-.48438-1.51563-1.125-1.51563-.51563 0-.84375.40625-.84375.84375 0 .60938.5625.92188.5625 1.64063 0 .6875-.4375 1.35937-.96875 1.9375m0 0"/><path id="h" d="M.70313-5.60937c0 3.35937.96875 5.8125 3.75 5.8125 2.76562 0 3.76562-2.45313 3.76562-5.8125s-1-5.79688-3.76562-5.79688c-2.78125 0-3.75 2.4375-3.75 5.79688m1.6875 0c0-2.73438.46875-5.21875 2.0625-5.21875C6.03125-10.82812 6.5-8.34375 6.5-5.60937S6.03125-.39062 4.45313-.39062c-1.59375 0-2.0625-2.48438-2.0625-5.21875m0 0"/><path id="i" d="M.32813-3.35937.46875-3h4.5625v1.71875c0 .5625-.17187.65625-.57812.6875L3.375-.48437V0h4.42188v-.48437l-.75-.09375c-.39063-.04688-.5-.14063-.5-.70313V-3h1.71875v-.78125H6.54688v-7.4375H5.32813c-1.57813 2.32813-3.46875 5.23438-5 7.85938m1.20312-.42188c1-1.82812 2.21875-3.76562 3.5-5.8125v5.8125Zm0 0"/><path id="j" d="M.82813-4.03125c0 2.79688 1.375 4.23438 3.89062 4.23438 1.17188 0 2.76563-.60938 3.23438-2.42188l-.5-.23437c-.53125 1.1875-1.1875 1.78125-2.42188 1.78125-2 0-2.45312-2.09375-2.45312-3.67188 0-2.5.96875-3.5 2.14062-3.5.76563 0 1.25.5625 1.57813 1.46875.10937.26563.21875.42188.54687.42188.32813 0 .98438-.20313.98438-.84375 0-.78125-1.10938-1.625-2.9375-1.625-3.04688 0-4.0625 2.15625-4.0625 4.39062m0 0"/><path id="k" d="M.53125 0H4.625v-.48437c-1.20312-.09375-1.25-.125-1.25-.98438v-3.92187c0-.4375 0-.65625.125-.89063.32813-.6875 1.04688-1.23437 1.98438-1.23437 1.4375 0 1.625 1.04687 1.625 2.09375v3.95312c0 .85938-.0625.89063-1.26563.98438V0H9.9375v-.48437c-1.20312-.09375-1.25-.125-1.25-.98438v-3.92187c0-.4375.01563-.64063.125-.90625.25-.6875.95313-1.21875 1.90625-1.21875 1.04688 0 1.6875.59375 1.6875 2.09375v3.95312c0 .85938-.04687.89063-1.26562.98438V0H15.25v-.48437c-1.1875-.09375-1.26562-.125-1.26562-.98438V-5.75c0-1.70312-.90625-2.67187-2.5-2.67187-1.375 0-2.35938.90625-2.95313 1.28125-.40625-.78125-1.04687-1.28125-2.23437-1.28125-1.28125 0-2.32813.84375-2.92188 1.28125l-.15625-1.28125L.625-8v.40625L1.25-7.5c.42188.07813.54688.14063.54688.75v5.28125c0 .85938-.04688.89063-1.26563.98438Zm0 0"/></defs><path fill="none" stroke="red" stroke-miterlimit="10" stroke-width=".39684" d="m73.46095 82.80078-6.54688 6.54688-6.54687-6.54688 6.54687-6.54687 6.54688 6.54687"/><use xlink:href="#a" x="25.09228" y="129.0965"/><use xlink:href="#b" x="6.6134" y="117.45309"/><path fill="none" stroke="#000" stroke-miterlimit="10" stroke-width=".39684" d="M68.83204 78.17188 22.53906 31.8789"/><path fill="none" stroke="#000" stroke-dasharray="2.9763964672 2.9763964672" stroke-miterlimit="10" stroke-width=".39684" d="m68.83204 78.17188 46.29298 46.29298m-83.32424 0 41.66017-41.66408"/><use xlink:href="#c" x="29.55166" y="21.14006"/><use xlink:href="#d" x="37.17117" y="21.14006"/><use xlink:href="#e" x="49.4735" y="21.14006"/><use xlink:href="#f" x="59.64108" y="122.05389"/><use xlink:href="#g" x="68.53448" y="122.05389"/><use xlink:href="#h" x="74.96344" y="122.05389"/><use xlink:href="#i" x="83.85684" y="122.05389"/><use xlink:href="#j" x="96.51917" y="122.05389"/><use xlink:href="#k" x="104.8411" y="122.05389"/></svg>