<svg xmlns="http://www.w3.org/2000/svg" xmlns:xlink="http://www.w3.org/1999/xlink" width="106.311pt" height="104.517pt" viewBox="0 0 106.311 104.517"><defs><path id="a" d="M0 0h2.75l.0625-.32812L2.34375-.375C2-.39062 1.8125-.46875 1.8125-.71875c0-.625.125-.98437.25-1.59375l1.09375-4.76562h.03125A710 710 0 0 1 6.42188 0h.75l1.3125-5.73437c.125-.60938.26562-1.0625.40625-1.4375.125-.375.34375-.46875.6875-.5l.35937-.03125L10-8.04687H7.25l-.0625.34375.45313.04687C8-7.625 8.1875-7.51562 8.1875-7.25c0 .42188-.125.90625-.25 1.51563l-.95312 4.21875H6.9375c-1.01562-2.1875-2-4.34375-2.98437-6.53125H1.75l-.07812.34375.67187.0625c.20313 0 .29688.10937.29688.29687 0 .07813 0 .17188-.03125.26563L1.51563-2.3125C1.375-1.70312 1.23437-1.25 1.09375-.85937.96875-.5.76563-.40625.42188-.375L.0625-.32812Zm0 0"/><path id="b" d="M.375-3.14062c0 1.92187 1.09375 3.3125 3.40625 3.3125 2.0625 0 3.0625-1.04688 3.70313-2.20313.64062-1.14062.75-2.32812.75-2.78125 0-2.39062-1.45313-3.42187-3.375-3.42187-1.85938 0-3 1.03125-3.6875 2.14062C.53125-5.01562.375-3.90625.375-3.14062m1.21875.46875c0-.98438.1875-2.0625.71875-3.1875.53125-1.10938 1.35938-1.96875 2.59375-1.96875C6.1875-7.82812 7-7.0625 7-5.42187c0 .67187-.0625 1.625-.54687 2.85937-.46875 1.25-1.26563 2.32813-2.78125 2.32813-1.26563 0-2.07813-.8125-2.07813-2.4375m0 0"/><path id="c" d="M0 0h3.53125c2.8125 0 3.375-1.45312 3.375-2.40625 0-1.23437-.90625-1.76562-1.76562-1.92187l.01562-.03125c1.54688-.1875 2.20313-1.0625 2.20313-1.9375 0-.9375-.54688-1.75-2.6875-1.75H1.71875l-.07812.34375.70312.0625q.28125 0 .28125.28125c0 .07812-.03125.17187-.04687.28125l-1.375 6.10937C1.10937-.57812 1-.45312.71875-.40625L.0625-.32812Zm2.32813-.89062c0-.09376.01562-.17188.03125-.26563l.67187-2.98437h.45313c1.15625 0 2.17187.34375 2.17187 1.67187 0 1.03125-.625 2.0625-2.1875 2.0625-.92187 0-1.14062-.1875-1.14062-.48437M3.125-4.54687l.59375-2.6875c.09375-.35938.15625-.40625.9375-.40625.96875 0 1.51563.48437 1.51563 1.29687 0 1.21875-1.01563 1.79688-2.29688 1.79688Zm0 0"/></defs><path fill="none" stroke="#000" stroke-miterlimit="10" stroke-width=".39593" d="M18.1211 87.04297h70.41017L18.12109 16.63279Zm0 0"/><path fill="none" stroke="red" stroke-miterlimit="10" stroke-width=".39593" d="m50.52735 89.84375 5.59766-5.59766M20.92187 54.63671l-5.60156-5.59766"/><use xlink:href="#a" x="4.12427" y="99.4576"/><use xlink:href="#b" x="92.9029" y="99.6434"/><use xlink:href="#c" x="6.1412" y="12.26271"/></svg>