<svg xmlns="http://www.w3.org/2000/svg" xmlns:xlink="http://www.w3.org/1999/xlink" width="165.853pt" height="94.619pt" viewBox="0 0 165.853 94.619"><defs><path id="a" d="m2.70313-2.03125.76562.78125L6.70313-4.5l3.26562 3.25.75-.78125-3.23437-3.23437 3.23437-3.25-.75-.75-3.26562 3.23437-3.23438-3.23437-.76562.75 3.25 3.25Zm0 0"/><path id="b" d="M-.35937 0h4.20312l.125-.53125L2.9375-.64062c-.23437-.01563-.34375-.14063-.34375-.3125 0-.09376.04688-.23438.10938-.375.60937-1.1875 1.20312-2.40625 1.90625-3.65625h4.1875L9.25-1.125s-.10937.45313-.5.48438l-.98437.10937L7.65625 0H12.25l.10938-.53125-.71875-.0625c-.5625-.0625-.64063-.3125-.75-1.09375L9.53125-12.90625H8.20313l-3.14063 5.5c-.95312 1.67188-2.5 4.45313-3.20312 5.5625C1.26563-.875.95313-.67187.375-.60937l-.60937.07812Zm5.34375-5.6875 3.03125-5.48437.67187 5.48437Zm0 0"/><path id="c" d="M0 0h5.65625c4.5 0 5.42188-2.32812 5.42188-3.875 0-1.95312-1.45313-2.8125-2.82813-3.07812l.03125-.03125C10.75-7.28125 11.8125-8.6875 11.8125-10.09375c0-1.51562-.89062-2.8125-4.32812-2.8125H2.76563l-.125.54688 1.10937.09375c.3125.01562.45313.15625.45313.45312 0 .125-.03125.28125-.07813.46875L1.92188-1.54687c-.14063.60937-.3125.82812-.76563.89062l-1.0625.125Zm3.73438-1.42187c0-.14063.01562-.28126.0625-.42188L4.85938-6.625h.73437c1.84375 0 3.46875.53125 3.46875 2.65625 0 1.67188-1 3.3125-3.5 3.3125-1.46875 0-1.82812-.29687-1.82812-.76562M5-7.28125l.96875-4.32812c.14063-.5625.25-.65625 1.5-.65625 1.5625 0 2.4375.79687 2.4375 2.10937 0 1.9375-1.625 2.875-3.6875 2.875Zm0 0"/></defs><path fill="none" stroke="#000" stroke-miterlimit="10" stroke-width=".3969" d="m26.6836 67.71484 112.93353-56.46481"/><use xlink:href="#a" x="19.97797" y="72.34768"/><use xlink:href="#b" x="6.87374" y="87.62516"/><use xlink:href="#a" x="132.90824" y="15.88304"/><use xlink:href="#c" x="146.62799" y="31.15953"/></svg>