<svg xmlns="http://www.w3.org/2000/svg" xmlns:xlink="http://www.w3.org/1999/xlink" width="93.376pt" height="104.849pt" viewBox="0 0 93.376 104.849"><defs><path id="a" d="m2.6875-2.01562.78125.76562L6.6875-4.5l3.25 3.25.75-.76562L7.46875-5.25 10.6875-8.5l-.75-.75-3.25 3.23438L3.46875-9.25l-.78125.75 3.25 3.25Zm0 0"/><path id="b" d="M0 0h4.39063L4.5-.53125l-.73437-.0625c-.5625-.04687-.85938-.17187-.85938-.57812 0-.98438.1875-1.54688.40625-2.53125l1.70313-7.57813h.03125L7.28125-.21875h.51563l7.25-11.0625h.03125L12.8125-1.54687c-.15625.64062-.34375.85937-.79687.89062L11-.53125 10.89063 0h5.0625l.10937-.53125-1.09375-.125c-.34375-.01562-.48437-.17187-.48437-.46875 0-.125.03125-.26562.0625-.42187l2.23437-9.78125c.17188-.625.29688-.89063.78125-.92188l1.03125-.07812.14063-.54688h-3.65626c-.98437 1.70313-2.09375 3.375-3.21874 5.09375L8.57813-2.75h-.0625L7.46875-7.92187c-.375-1.67188-.75-3.28125-1.07812-4.95313H2.79688l-.125.54688 1.09375.09375c.3125.01562.46875.17187.46875.5 0 .10937-.01563.25-.0625.40625l-1.75 7.625c-.21875.98437-.4375 1.70312-.65625 2.3125-.21876.59375-.5625.73437-1.09375.79687l-.57813.0625Zm0 0"/><path id="d" d="M1.60938-5.25c0 4.20313.9375 8.8125 4.89062 8.96875v-.54687C5.17188 2.90625 3.09375 1.26563 3.09375-5.25c0-6.46875 1.96875-8.10937 3.40625-8.40625v-.5625C2.54688-14.0625 1.60938-9.4375 1.60938-5.25m0 0"/><path id="e" d="M1.39063-2.23437c0 1.20312.34375 2.45312 1.85937 2.45312 2.14063 0 3.79688-2.28125 4.89063-4.28125h.03125L7.5625-1.84375c-.09375.375-.15625.71875-.15625 1 0 .6875.3125 1.0625.96875 1.0625 1.46875 0 2.4375-1.26562 3.0625-2.67187L11-2.71875C10.67188-2.0625 9.84375-.75 9.32813-.75c-.21875 0-.29688-.14062-.29688-.35937 0-.17188.0625-.39063.10938-.65625l2.9375-11.95313-.09375-.07812-3.3125.4375-.09375.4375 1.10937.09375c.29688.01562.40625.09375.40625.3125 0 .10937-.01562.26562-.07812.45312l-.71875 3-.03125.03125c-.35938-.17187-.9375-.3125-1.5625-.3125-4.34375 0-6.3125 4.84375-6.3125 7.10938m1.84375.15625c0-2.01563 1.60937-6.60938 4.57812-6.60938.57813 0 1.07813.17188 1.29688.375-.28125 1.42188-.89063 3.1875-1.84375 4.73438C6.375-2.14062 5.14063-.75 4.15625-.75c-.59375 0-.92187-.5-.92187-1.32812m0 0"/><path id="f" d="M1.10938 3.17188v.54687C5.04688 3.5625 6-1.04687 6-5.25c0-4.1875-.95312-8.8125-4.89062-8.96875v.5625c1.42187.29688 3.40625 1.9375 3.40625 8.40625 0 6.51563-2.07813 8.15625-3.40625 8.42188m0 0"/><clipPath id="c"><path d="M0 44h92.75781v35H0Zm0 0"/></clipPath></defs><use xlink:href="#a" x="39.68778" y="31.34934"/><use xlink:href="#b" x="21.25496" y="19.73495"/><g clip-path="url(#c)"><path fill="none" stroke="#000" stroke-miterlimit="10" stroke-width=".39585" d="M.1992 72.90234 92.5586 49.8125"/></g><use xlink:href="#d" x="7.19492" y="94.10794"/><use xlink:href="#e" x="14.79543" y="94.10794"/><use xlink:href="#f" x="27.0671" y="94.10794"/></svg>