<svg xmlns="http://www.w3.org/2000/svg" xmlns:xlink="http://www.w3.org/1999/xlink" width="142.131pt" height="142.131pt" viewBox="0 0 142.131 142.131"><defs><path id="a" d="m1.6875-1.26562.48438.48437L4.1875-2.8125 6.21875-.78125l.46875-.48437-2.01562-2.01563L6.6875-5.3125l-.46875-.46875L4.1875-3.76562 2.17188-5.78125l-.48438.46875 2.03125 2.03125Zm0 0"/><path id="b" d="M.375-3.14062c0 1.92187 1.09375 3.3125 3.40625 3.3125 2.0625 0 3.0625-1.04688 3.70313-2.20313.64062-1.14062.75-2.32812.75-2.78125 0-2.39062-1.45313-3.42187-3.375-3.42187-1.85938 0-3 1.03125-3.6875 2.14062C.53125-5.01562.375-3.90625.375-3.14062m1.21875.46875c0-.98438.1875-2.0625.71875-3.1875.53125-1.10938 1.35938-1.96875 2.59375-1.96875C6.1875-7.82812 7-7.0625 7-5.42187c0 .67187-.0625 1.625-.54687 2.85937-.46875 1.25-1.26563 2.32813-2.78125 2.32813-1.26563 0-2.07813-.8125-2.07813-2.4375m0 0"/></defs><use xlink:href="#a" x="66.44972" y="73.52347"/><use xlink:href="#b" x="57.65847" y="83.23808"/></svg>