<svg xmlns="http://www.w3.org/2000/svg" xmlns:xlink="http://www.w3.org/1999/xlink" width="218.636pt" height="198.309pt" viewBox="0 0 218.636 198.309"><defs><path id="a" d="M0 0h5.75l.125-.60937-1.25-.10938c-.35937-.01562-.53125-.17187-.53125-.51562 0-.125.04688-.3125.07813-.51563L5.3125-6.84375h1.28125c2.03125 0 2.32813.5 2.32813 2.95313C8.92188-1.34375 8.92188 0 11.125 0h1.64063l.1875-.60937c-1.46875-.1875-1.98438-.26563-1.98438-2.96875 0-2.14063-.17187-3.0625-1.92187-3.64063 2.57812-.35937 4.3125-1.85937 4.3125-3.9375 0-1.48437-.64063-3.35937-4.57813-3.35937H3.125l-.15625.59375 1.25.09375c.35938.01562.51563.20312.51563.5625 0 .125-.01563.28125-.0625.48437L2.14063-1.75c-.17188.75-.35938.96875-.85938 1.01563l-1.17187.125Zm5.5-7.57812L6.71875-13c.15625-.60937.23438-.8125 1.8125-.8125 1.35938 0 2.64063.60938 2.64063 2.4375 0 2.5-1.625 3.79688-4.32813 3.79688Zm0 0"/><path id="b" d="M.45313 0H6.1875l.14063-.60937-1.25-.07813C4.71875-.71875 4.5625-.92187 4.5625-1.25c0-.14062.01563-.3125.0625-.5l2.5-11.03125c.15625-.64062.35938-1 .89063-1.04687l1.17187-.09375.125-.59375H3.57813l-.15625.59375 1.25.09375c.35937.01562.51562.25.51562.57812 0 .14063-.03125.29688-.07812.46875L2.59375-1.75c-.15625.67188-.35937.96875-.875 1.01563l-1.15625.125Zm0 0"/><path id="c" d="M-.45312-.26562-.35937 0h12l1.07812-3.6875h-.65625C10.95313-1.09375 10.07813-.73437 6.75-.73437H2.48438c4-4.42188 8.125-8.98438 12.26562-13.51563l-.10937-.26562H3.98438L3.1875-11h.64063c.85937-2.42187 1.5625-2.8125 3.875-2.8125h4.09375c-4 4.42188-8.10938 9.01563-12.25 13.54688m0 0"/></defs><path fill="none" stroke="#000" stroke-miterlimit="10" stroke-width=".39712" d="M188.2813 167.76172 108.83207 29.83979 29.38281 167.76172Zm0 0"/><path fill="none" stroke="red" stroke-miterlimit="10" stroke-width=".39712" d="m152.38286 99.84763-7.66797-2.0664m-76.63675-2.81251 2.0625 7.67188m35.87501 67.92971 5.6172-5.61328"/><use xlink:href="#a" x="196.15542" y="190.17534"/><use xlink:href="#b" x="104.50178" y="21.96546"/><use xlink:href="#c" x="7.64328" y="190.17534"/></svg>