<svg xmlns="http://www.w3.org/2000/svg" xmlns:xlink="http://www.w3.org/1999/xlink" width="194.359pt" height="176.288pt" viewBox="0 0 194.359 176.288"><defs><path id="a" d="M0 0h5.09375l.125-.53125-1.10937-.10937c-.3125-.01563-.48438-.15626-.48438-.45313 0-.10937.04688-.28125.07813-.45312l1.01562-4.53125h1.14063c1.79687 0 2.0625.4375 2.0625 2.625C7.92188-1.1875 7.92188 0 9.875 0h1.45313l.1875-.53125C10.20313-.71875 9.75-.78125 9.75-3.17187c0-1.90625-.17187-2.71875-1.71875-3.23438 2.28125-.32812 3.82813-1.65625 3.82813-3.5 0-1.32812-.5625-3-4.0625-3H2.78125l-.14062.54688 1.10937.07812c.3125.01563.45313.17188.45313.5 0 .10938-.01563.25-.0625.4375L1.90625-1.54687c-.15625.65625-.3125.85937-.78125.89062l-1.03125.125Zm4.875-6.73437 1.09375-4.8125c.14063-.53125.20313-.71875 1.60938-.71875 1.21875 0 2.34375.53125 2.34375 2.17187 0 2.21875-1.45313 3.35938-3.84375 3.35938Zm0 0"/><path id="b" d="M.39063 0H5.5l.10938-.53125L4.5-.60937c-.3125-.03126-.45312-.20313-.45312-.5 0-.125.01562-.28126.0625-.4375l2.21875-9.79688c.14062-.57812.3125-.90625.79687-.9375l1.03125-.07812.125-.54688H3.17188l-.14063.54688 1.10938.07812c.32812.01563.46875.21875.46875.51563 0 .125-.03125.25-.0625.42187l-2.25 9.79688c-.14063.59375-.3125.85937-.76563.89062L.5-.53125Zm0 0"/><path id="c" d="M-.39062-.23437-.3125 0h10.65625l.95313-3.28125h-.57813c-1 2.3125-1.76562 2.625-4.71875 2.625H2.20313c3.54687-3.92187 7.21875-7.96875 10.89062-12l-.09375-.25H3.53125l-.6875 3.14063h.54688c.78125-2.15625 1.39062-2.5 3.45312-2.5h3.64063c-3.5625 3.9375-7.20313 8-10.875 12.03125m0 0"/></defs><path fill="none" stroke="#000" stroke-miterlimit="10" stroke-width=".3969" d="M167.164 149.05469 96.582 26.52349 26 149.05469Zm0 0"/><path fill="none" stroke="red" stroke-miterlimit="10" stroke-width=".3969" d="m135.70699 88.82034-7.66406-2.0625M60.2617 83.95315l2.0625 7.66797m31.45312 60.23825 5.61328-5.61328"/><use xlink:href="#a" x="174.17453" y="168.96458"/><use xlink:href="#b" x="92.74242" y="19.51419"/><use xlink:href="#c" x="6.68599" y="168.96458"/></svg>