<svg xmlns="http://www.w3.org/2000/svg" xmlns:xlink="http://www.w3.org/1999/xlink" width="103.658pt" height="59.137pt" viewBox="0 0 103.658 59.137"><defs><path id="a" d="m1.67188-1.25.48437.46875 2-2 2.01563 2L6.625-1.25l-2-2 2-2.01562-.45312-.46875-2.01563 2-2-2-.48437.46875L3.6875-3.25Zm0 0"/><path id="b" d="M-.21875 0H2.375l.07813-.32812-.64063-.0625c-.14062-.01563-.20312-.09375-.20312-.20313 0-.0625.03124-.14062.0625-.23437.375-.73438.75-1.48438 1.17187-2.25H5.4375l.28125 2.375s-.0625.28124-.29687.3125l-.625.0625L4.73438 0h2.84375l.07812-.32812L7.20313-.375c-.34375-.03125-.40625-.1875-.45313-.67187l-.85937-6.9375h-.8125L3.125-4.57812c-.57812 1.03125-1.54687 2.75-1.96875 3.4375-.375.59375-.5625.71875-.92187.76562l-.375.04688Zm3.29688-3.53125 1.89062-3.39062.40625 3.39062Zm0 0"/><path id="c" d="M0 0h3.5c2.78125 0 3.35938-1.4375 3.35938-2.39062 0-1.21875-.90625-1.75-1.75-1.90625l.01562-.03125C6.65625-4.5 7.3125-5.375 7.3125-6.25c0-.9375-.5625-1.73437-2.6875-1.73437H1.70313l-.0625.32812.6875.0625q.28125.02344.28125.28125c0 .07813-.03125.17188-.0625.28125L1.1875-.95312C1.10938-.57812 1-.4375.71875-.40625L.0625-.32812Zm2.3125-.89062c0-.07813.01563-.17188.03125-.25l.67188-2.96875h.45312c1.14063 0 2.14063.34375 2.14063 1.65625 0 1.03125-.625 2.04687-2.17188 2.04687-.90625 0-1.125-.1875-1.125-.48437M3.09375-4.5l.60938-2.6875c.07812-.34375.14062-.40625.92187-.40625.96875 0 1.5.5 1.5 1.3125 0 1.20313-1 1.78125-2.28125 1.78125Zm0 0"/><path id="d" d="M.60938-3.17187c0 1.53125.73437 3.34375 3.60937 3.34375.8125 0 1.60938-.10938 2.34375-.48438l.5625-1.84375h-.34375C6.14063-1 5.5625-.23437 4.14063-.23437c-1.34375 0-2.29688-.85938-2.29688-2.64063 0-1.04687.26563-2.3125.82813-3.23437.57812-.98438 1.48437-1.65625 2.71875-1.65625 1.46875 0 1.875.67187 1.875 1.9375H7.625l.42188-1.71875c-.67188-.42188-1.75-.625-2.5625-.625-2.17188 0-3.42188 1.03125-4.09375 2.10937C.75-5.03125.60938-3.96875.60938-3.17187m0 0"/></defs><path fill="none" stroke="#000" stroke-miterlimit="10" stroke-width=".39277" d="M16.92188 41.8789 86.76956 6.95703"/><use xlink:href="#a" x="12.77295" y="44.747"/><use xlink:href="#b" x="4.66823" y="54.19512"/><use xlink:href="#a" x="82.61966" y="9.82364"/><use xlink:href="#c" x="91.10484" y="19.27176"/><use xlink:href="#a" x="47.69631" y="27.28483"/><use xlink:href="#d" x="39.72661" y="19.91044"/><path fill="none" stroke="red" stroke-miterlimit="10" stroke-width=".39277" d="m33.14063 36.8789 2.48047-7.45312m32.44142-10.01173 2.48437-7.44922"/></svg>