<svg xmlns="http://www.w3.org/2000/svg" xmlns:xlink="http://www.w3.org/1999/xlink" width="104.998pt" height="117.95pt" viewBox="0 0 104.998 117.95"><defs><path id="a" d="m3.04688-2.28125.875.875 3.65625-3.6875L11.25-1.40625l.84375-.875L8.45313-5.9375l3.64062-3.67187-.84375-.85938L7.57813-6.8125l-3.65625-3.65625-.875.85938L6.71875-5.9375Zm0 0"/><path id="b" d="M0 0h4.96875l.125-.60937L4.25-.67187c-.625-.04688-.95312-.20313-.95312-.65625 0-1.10938.20312-1.73438.4375-2.85938l1.9375-8.57812h.04687L8.25-.25h.57813l8.20312-12.51562h.04688L14.5-1.75c-.1875.71875-.39062.96875-.90625 1.01563l-1.14062.125-.125.60937h5.73437l.10938-.60937-1.23438-.125c-.375-.03126-.53125-.20313-.53125-.54688 0-.125.01563-.28125.0625-.46875L19-12.8125c.1875-.71875.34375-1.01562.875-1.0625l1.17188-.07812.15624-.60938h-4.125c-1.125 1.92188-2.375 3.8125-3.65624 5.75L9.70313-3.10937h-.0625l-1.1875-5.85938c-.4375-1.89062-.85938-3.71875-1.21875-5.59375H3.15625l-.125.60938 1.21875.10937c.35938.01563.54688.20313.54688.5625 0 .125-.03125.28125-.0625.46875l-2 8.625c-.25 1.125-.5 1.92188-.73438 2.625-.25.67188-.64062.82813-1.23437.89063l-.65625.0625Zm0 0"/><path id="d" d="M1.8125-5.9375c0 4.75 1.07813 9.96875 5.53125 10.15625v-.64062C5.84375 3.29688 3.5 1.4375 3.5-5.9375c0-7.32812 2.23438-9.1875 3.84375-9.51562v-.64063C2.89063-15.90625 1.8125-10.6875 1.8125-5.9375m0 0"/><path id="e" d="M1.5625-2.53125C1.5625-1.17187 1.96875.25 3.67188.25c2.42187 0 4.3125-2.57812 5.53125-4.84375H9.25l-.6875 2.51563c-.10937.42187-.1875.79687-.1875 1.10937C8.375-.17187 8.73438.25 9.48438.25c1.65625 0 2.75-1.4375 3.46875-3.03125l-.5-.28125c-.375.73438-1.3125 2.21875-1.90625 2.21875-.23438 0-.32813-.17187-.32813-.40625 0-.20312.0625-.45312.14063-.75l3.3125-13.53125-.10938-.09375-3.75.5-.10937.5 1.25.10938c.34375.01562.46875.10937.46875.35937 0 .10938-.01563.28125-.07813.51563l-.8125 3.375-.04687.04687c-.40625-.20312-1.04688-.35937-1.76563-.35937-4.90625 0-7.15625 5.48437-7.15625 8.04687m2.09375.17188c0-2.28125 1.82813-7.48438 5.1875-7.48438.65625 0 1.21875.20313 1.46875.4375C10-7.79687 9.29688-5.79687 8.21875-4.0625c-1 1.64063-2.39062 3.21875-3.51562 3.21875-.67188 0-1.04688-.5625-1.04688-1.51562m0 0"/><path id="f" d="M1.25 3.57813v.64062C5.71875 4.03125 6.79688-1.1875 6.79688-5.9375S5.71875-15.90625 1.25-16.09375v.64063c1.625.32812 3.85938 2.1875 3.85938 9.51562 0 7.375-2.35938 9.23438-3.85938 9.51563m0 0"/><clipPath id="c"><path d="M.01953 50h104.95703v38H.01953Zm0 0"/></clipPath></defs><use xlink:href="#a" x="44.92421" y="35.18009"/><use xlink:href="#b" x="24.05706" y="22.03166"/><g clip-path="url(#c)"><path fill="none" stroke="#000" stroke-miterlimit="10" stroke-width=".39833" d="m.21876 82.21484 104.55857-26.14061"/></g><use xlink:href="#d" x="8.1458" y="106.21997"/><use xlink:href="#e" x="16.74987" y="106.21997"/><use xlink:href="#f" x="30.64187" y="106.21997"/></svg>