<svg xmlns="http://www.w3.org/2000/svg" xmlns:xlink="http://www.w3.org/1999/xlink" width="121.682pt" height="117.95pt" viewBox="0 0 121.682 117.95"><defs><path id="a" d="m3.04688-2.28125.85937.875L7.5625-5.07812l3.65625 3.67187.85938-.875-3.65625-3.64062 3.65625-3.67188-.85938-.84375L7.5625-6.79687 3.90625-10.4375l-.85937.84375 3.65625 3.67188Zm0 0"/><path id="b" d="M0 0h4.96875l.10938-.60937L4.25-.67187c-.625-.04688-.96875-.20313-.96875-.64063 0-1.125.20313-1.75.45313-2.875L5.65625-12.75h.04688L8.23438-.25h.57812L17-12.75h.03125l-2.5625 11c-.1875.71875-.375.96875-.89062 1.01563l-1.14063.125L12.29688 0h5.71875l.125-.60937-1.23438-.125c-.375-.03126-.54687-.20313-.54687-.54688 0-.125.03124-.28125.07812-.46875l2.51563-11.04687c.1875-.70313.34374-1 .875-1.04688L21-13.9375l.15625-.59375h-4.125c-1.10937 1.92188-2.35937 3.79688-3.64062 5.75L9.6875-3.10937h-.07812L8.42188-8.9375C8-10.84375 7.57813-12.65625 7.21875-14.53125h-4.0625l-.14062.59375 1.23437.125c.35938.01563.53125.20313.53125.54688 0 .14062-.01562.29687-.0625.46875L2.73438-4.1875c-.25 1.125-.5 1.92188-.75 2.625-.23438.67188-.625.82813-1.21875.89063l-.65625.0625Zm0 0"/><path id="d" d="M1.8125-5.92187c0 4.73437 1.07813 9.95312 5.51563 10.125v-.625c-1.5-.29688-3.84375-2.14063-3.84375-9.5 0-7.3125 2.23437-9.17188 3.84375-9.5v-.625c-4.4375.17187-5.51563 5.375-5.51563 10.125m0 0"/><path id="e" d="M1.5625-2.53125C1.5625-1.15625 1.96875.25 3.67188.25c2.40625 0 4.28125-2.57812 5.51562-4.82812h.04688l-.6875 2.5c-.125.42187-.1875.79687-.1875 1.10937C8.35938-.17187 8.71875.25 9.45313.25c1.65625 0 2.75-1.4375 3.46875-3.01562l-.48438-.29688c-.39062.73438-1.32812 2.21875-1.90625 2.21875-.25 0-.32812-.15625-.32812-.40625 0-.20312.0625-.45312.125-.73437L13.64063-15.5l-.10938-.07812-3.73437.48437-.10938.5 1.25.10938c.32813.01562.46875.10937.46875.35937q0 .16406-.09375.51563l-.79687 3.375-.04688.03125c-.40625-.1875-1.0625-.34375-1.76562-.34375-4.90625 0-7.14063 5.46875-7.14063 8.01562m2.07813.1875c0-2.28125 1.84375-7.46875 5.1875-7.46875.65625 0 1.21875.20313 1.45312.42188-.3125 1.60937-1 3.59375-2.07812 5.34375-1 1.625-2.39063 3.20312-3.5 3.20312-.67188 0-1.0625-.5625-1.0625-1.5m0 0"/><path id="f" d="M1.25 3.57813v.625c4.45313-.17188 5.53125-5.39063 5.53125-10.125 0-4.75-1.07812-9.95313-5.53125-10.125v.625c1.60938.32812 3.84375 2.1875 3.84375 9.5 0 7.35937-2.34375 9.20312-3.84375 9.5m0 0"/><path id="g" d="M.78125-6.3125c0 3.78125 1.10938 6.53125 4.23438 6.53125C8.125.21875 9.25-2.53125 9.25-6.3125c0-3.79687-1.125-6.54687-4.23437-6.54687-3.125 0-4.23438 2.75-4.23438 6.54687m1.92188 0c0-3.07812.51562-5.89062 2.3125-5.89062 1.78125 0 2.3125 2.8125 2.3125 5.89062s-.53125 5.875-2.3125 5.875c-1.79688 0-2.3125-2.79687-2.3125-5.875m0 0"/><path id="h" d="m.96875 2.3125.35938.35938c.95312-.875 2.3125-2.15625 2.3125-3.64063 0-1-.54688-1.70312-1.26563-1.70312-.57812 0-.95312.45312-.95312.9375 0 .6875.625 1.04687.625 1.85937 0 .78125-.48438 1.53125-1.07813 2.1875m0 0"/><path id="i" d="M.82813-5.84375C.82813-1.75 2.3125.21875 5.15625.21875c2.79688 0 4.28125-1.6875 4.28125-4.26562 0-2.54688-1.5625-3.9375-3.59375-3.9375-1.5 0-2.60937 1-3.10937 1.625.01562-4.17188 1.17187-5.84375 2.875-5.84375.875 0 1.5.73437 1.78125 1.8125.0625.23437.20312.40625.48437.40625.42188 0 1-.34375 1-.85938 0-.76562-.92187-2.01562-3.20312-2.01562-3 0-4.84375 2.3125-4.84375 7.01562m1.90625 1.375c0-1.14062.875-2.5625 2.45312-2.5625 1.1875 0 2.35938 1.09375 2.35938 3.26563 0 2-.76563 3.32812-2.35938 3.32812-1.64062 0-2.45312-1.75-2.45312-4.03125m0 0"/><path id="j" d="M.92188-4.54687c0 3.15625 1.54687 4.76562 4.39062 4.76562 1.32813 0 3.125-.6875 3.64063-2.71875l-.5625-.25C7.8125-1.42187 7.0625-.76562 5.67188-.76562c-2.25 0-2.78125-2.35938-2.78125-4.125 0-2.8125 1.10937-3.9375 2.42187-3.9375.85938 0 1.40625.60937 1.79688 1.64062.10937.3125.23437.48438.59375.48438.39062 0 1.10937-.23438 1.10937-.96875 0-.85938-1.25-1.82813-3.29687-1.82813C2.07813-9.5.92188-7.0625.92188-4.54687m0 0"/><path id="k" d="M.60938 0h4.60937v-.54687C3.85938-.64063 3.79688-.6875 3.79688-1.65625v-4.42187c0-.48438 0-.75.14062-1 .375-.76563 1.1875-1.39063 2.23438-1.39063 1.64062 0 1.84375 1.1875 1.84375 2.34375v4.46875c0 .96875-.0625 1.01563-1.4375 1.10938V0h4.60937v-.54687C9.84375-.64063 9.78125-.6875 9.78125-1.65625v-4.42187c0-.48438.01563-.71875.14063-1.03125.28125-.76563 1.09375-1.35938 2.15625-1.35938 1.1875 0 1.90625.65625 1.90625 2.34375v4.46875c0 .96875-.0625 1.01563-1.42188 1.10938V0h4.625v-.54687C15.84375-.64063 15.75-.6875 15.75-1.65625v-4.82812C15.75-8.39062 14.73438-9.5 12.9375-9.5c-1.54687 0-2.65625 1.03125-3.3125 1.45313C9.15625-8.9375 8.4375-9.5 7.10938-9.5c-1.45313 0-2.64063.96875-3.3125 1.45313L3.625-9.5l-2.92187.48438v.46875l.70312.09375c.48438.07812.625.15625.625.84375v5.95312c0 .96875-.0625 1.01563-1.42187 1.10938Zm0 0"/><clipPath id="c"><path d="M11 50h110.36328v38H11Zm0 0"/></clipPath></defs><path fill="none" stroke="red" stroke-miterlimit="10" stroke-width=".39746" d="m78.39843 67.03907-2.5625-10.11328 10.10547-2.58593 2.5664 10.11327-10.10937 2.58594"/><use xlink:href="#a" x="61.45539" y="35.23205"/><use xlink:href="#b" x="40.63381" y="22.11234"/><g clip-path="url(#c)"><path fill="none" stroke="#000" stroke-miterlimit="10" stroke-width=".39746" d="m16.8594 82.16406 104.30854-26.07811"/></g><use xlink:href="#d" x="24.7573" y="106.1168"/><use xlink:href="#e" x="33.34258" y="106.1168"/><use xlink:href="#f" x="47.20424" y="106.1168"/><path fill="none" stroke="#000" stroke-dasharray="2.9810291537 2.9810291537" stroke-miterlimit="10" stroke-width=".39746" d="m69.01172 30.01174 9.38671 37.02733"/><use xlink:href="#g" x="7.45153" y="53.617"/><use xlink:href="#h" x="17.47217" y="53.617"/><use xlink:href="#i" x="24.716" y="53.617"/><use xlink:href="#j" x="38.98387" y="53.617"/><use xlink:href="#k" x="48.36062" y="53.617"/></svg>