<svg xmlns="http://www.w3.org/2000/svg" xmlns:xlink="http://www.w3.org/1999/xlink" width="186.571pt" height="106.439pt" viewBox="0 0 186.571 106.439"><defs><path id="a" d="m3.03125-2.28125.875.875 3.625-3.65625 3.65625 3.65625.85938-.875-3.64063-3.625 3.64063-3.65625-.85938-.84375-3.65625 3.625-3.625-3.625-.875.84375L6.6875-5.90625Zm0 0"/><path id="b" d="M-.40625 0h4.73438l.125-.60937-1.15625-.10938c-.26563-.01562-.375-.15625-.375-.34375 0-.125.04687-.28125.10937-.4375.6875-1.32812 1.35938-2.6875 2.14063-4.09375H9.875l.51563 4.32813s-.10938.5-.5625.54687l-1.10938.10938L8.60938 0H13.75l.14063-.60937-.79688-.0625c-.65625-.0625-.73437-.35938-.85937-1.21875L10.70313-14.5h-1.5L5.6875-8.3125C4.60938-6.4375 2.875-3.32812 2.09375-2.07812 1.42188-.98437 1.0625-.76562.42188-.6875l-.6875.07813Zm6-6.40625 3.42188-6.14062.75 6.14062Zm0 0"/><path id="c" d="M0 0h6.35938c5.0625 0 6.07812-2.60937 6.07812-4.34375 0-2.21875-1.625-3.17187-3.15625-3.45312l.01563-.04688c2.78125-.34375 3.96875-1.92187 3.96875-3.5 0-1.70312-1-3.15625-4.85938-3.15625h-5.3125l-.125.60938 1.25.10937c.35938.03125.51563.1875.51563.51563 0 .125-.04688.3125-.09375.51562L2.15625-1.73437c-.15625.6875-.34375.9375-.85937 1l-1.1875.125Zm4.1875-1.60937c0-.15626.03125-.3125.07813-.46875l1.20312-5.375h.8125c2.07813 0 3.90625.60937 3.90625 3 0 1.85937-1.14062 3.71875-3.9375 3.71875-1.65625 0-2.0625-.32813-2.0625-.875M5.625-8.1875l1.09375-4.85937c.15625-.625.26563-.73438 1.67188-.73438 1.75 0 2.73437.89063 2.73437 2.35938 0 2.1875-1.82812 3.23437-4.14062 3.23437Zm0 0"/></defs><path fill="none" stroke="#000" stroke-miterlimit="10" stroke-width=".39641" d="M29.96875 76.07813 156.85937 12.6328"/><use xlink:href="#a" x="22.43095" y="81.28359"/><use xlink:href="#b" x="7.70755" y="98.44911"/><use xlink:href="#a" x="149.30822" y="17.84495"/><use xlink:href="#c" x="164.72298" y="35.01047"/></svg>