<svg xmlns="http://www.w3.org/2000/svg" xmlns:xlink="http://www.w3.org/1999/xlink" width="316.111" height="187.467" viewBox="0 0 316.111 187.467"><defs><path id="a" d="M0 0h4.96875l.10938-.60937L4.25-.67187c-.625-.04688-.96875-.20313-.96875-.64063 0-1.125.20313-1.75.45313-2.875L5.65625-12.75h.04688L8.23438-.25h.57812L17-12.75h.03125l-2.5625 11c-.1875.71875-.375.96875-.89062 1.01563l-1.14063.125L12.29688 0h5.71875l.125-.60937-1.23438-.125c-.375-.03126-.54687-.20313-.54687-.54688 0-.125.03124-.28125.07812-.46875l2.51563-11.04687c.1875-.70313.34374-1 .875-1.04688L21-13.9375l.15625-.59375h-4.125c-1.10937 1.92188-2.35937 3.79688-3.64062 5.75L9.6875-3.10937h-.07812L8.42188-8.9375C8-10.84375 7.57813-12.65625 7.21875-14.53125h-4.0625l-.14062.59375 1.23437.125c.35938.01563.53125.20313.53125.54688 0 .14062-.01562.29687-.0625.46875L2.73438-4.1875c-.25 1.125-.5 1.92188-.75 2.625-.23438.67188-.625.82813-1.21875.89063l-.65625.0625Zm0 0"/><path id="b" d="M-.40625 0h4.75l.125-.60937L3.3125-.71875c-.26562-.01562-.39062-.15625-.39062-.35937 0-.10938.04687-.26563.125-.42188.6875-1.34375 1.35937-2.70312 2.14062-4.10937h4.71875l.51563 4.32812s-.10938.51563-.5625.5625L8.75-.60937 8.625 0h5.17188l.14062-.60937-.8125-.0625c-.65625-.0625-.73437-.35938-.84375-1.23438l-1.54687-12.625h-1.5l-3.53125 6.1875c-1.07813 1.875-2.8125 5.01563-3.59375 6.26563C1.4375-.98437 1.07813-.76562.42188-.6875l-.6875.07813Zm6.01563-6.42187 3.42187-6.17188.76563 6.17188Zm0 0"/><path id="c" d="M0 0h5.75l.125-.60937-1.25-.10938c-.35937-.01562-.53125-.17187-.53125-.51562 0-.125.04688-.3125.09375-.51563l1.14063-5.09375h1.26562c2.03125 0 2.32813.5 2.32813 2.95313 0 2.54687 0 3.89062 2.21875 3.89062h1.625l.20312-.60937C11.5-.8125 10.98438-.875 10.98438-3.57812c0-2.14063-.1875-3.0625-1.92188-3.64063 2.5625-.35937 4.3125-1.85937 4.3125-3.9375 0-1.5-.65625-3.375-4.59375-3.375H3.125l-.15625.59375 1.25.09375c.35938.03125.51563.20313.51563.5625 0 .14063-.01563.29688-.0625.48438L2.14063-1.75c-.17188.75-.35938.96875-.85938 1.01563l-1.17187.125Zm5.5-7.57812 1.23438-5.4375c.15625-.59375.21875-.79688 1.8125-.79688 1.35937 0 2.625.59375 2.625 2.4375 0 2.5-1.625 3.79688-4.32813 3.79688Zm0 0"/><path id="d" d="M0 0h5.75l.125-.60937-1.25-.07813c-.35937-.03125-.51562-.23437-.51562-.5625 0-.14062.03125-.3125.07812-.5L5.5-7.57812h.04688C6.5-5.60937 7.53125-3.51562 8.8125-1.76562c1 1.35937 1.92188 1.8125 3.53125 1.85937L13.375.10938l.15625-.625C12.3125-.625 11.82813-1.1875 11.0625-2.125 9.65625-3.89062 8.23438-6.4375 7.35938-8.29687 9.25-9.89062 11-11.34375 12.92188-12.67187c1.20312-.85938 1.70312-1.14063 3.40625-1.26563l.07812-.59375h-5.23437l-.07813.59375.79688.07813c.23437.01562.29687.10937.29687.25 0 .10937-.10937.26562-.3125.4375L5.65625-7.82812H5.5625l1.125-4.96875c.15625-.64063.35938-1 .89063-1.04688L8.75-13.9375l.125-.59375h-5.75l-.15625.59375 1.25.09375c.35938.03125.51563.25.51563.57813 0 .14062-.01563.29687-.0625.46875L2.14063-1.75c-.15625.67188-.35938.96875-.85938 1.01563l-1.17187.125Zm0 0"/></defs><use xlink:href="#a" x="146.71574" y="21.97851"/><use xlink:href="#b" x="7.45468" y="100.7316"/><use xlink:href="#c" x="149.71023" y="179.48569"/><use xlink:href="#d" x="292.03358" y="100.67576"/><path fill="none" stroke="#000" stroke-miterlimit="10" stroke-width=".39737" d="M156.95313 29.875 29.7656 93.46874m.00001.00001 127.18752 63.58985m0 0 127.1836-63.58985m0 0-127.1836-63.59376"/><path fill="none" stroke="#007F7F" stroke-dasharray="2.9803417228000004 2.9803417228000004" stroke-miterlimit="10" stroke-width=".39737" d="M156.95313 29.875v127.1836M29.76561 93.46875h254.37112"/><path fill="none" stroke="red" stroke-miterlimit="10" stroke-width=".39737" d="m94.625 57.89843-2.51563 7.53907m-2.52735 61.07813 7.53907-2.51172m122.16017 5.03125 2.51562-7.53906m2.52344-61.07813-7.53906 2.51171"/></svg>