<svg xmlns="http://www.w3.org/2000/svg" xmlns:xlink="http://www.w3.org/1999/xlink" width="58.509pt" height="65.533pt" viewBox="0 0 58.509 65.533"><defs><path id="a" d="m1.67188-1.26562.48437.48437 2.01563-2.01562L6.20313-.78125l.46875-.48437-2.01563-2 2.01563-2.03125-.46875-.46875L4.17188-3.75 2.15625-5.76562l-.48437.46875 2.03125 2.03125Zm0 0"/><path id="b" d="M0 0h2.73438l.0625-.32812L2.34375-.375C2-.39062 1.8125-.48437 1.8125-.73437c0-.60938.10938-.95313.25-1.57813L3.125-7.03125h.01563L4.54688-.14062h.3125L9.375-7.03125h.03125L7.98438-.96875c-.09375.40625-.20313.53125-.48438.5625l-.64062.07813L6.78125 0h3.17188l.0625-.32812-.6875-.07813c-.20313-.01562-.29688-.10937-.29688-.29687 0-.07813.01563-.15626.04688-.26563l1.39062-6.09375c.09375-.39062.1875-.54687.48438-.57812l.64062-.04688.07813-.32812H9.40625c-.625 1.04687-1.3125 2.09375-2.01562 3.17187l-2.04688 3.125H5.3125L4.65625-4.9375c-.23437-1.04687-.46875-2.04687-.67187-3.07812h-2.25l-.0625.32812.67187.0625c.20313.01563.29688.10938.29688.3125 0 .0625-.01563.15625-.03125.25L1.5-2.3125c-.125.625-.26562 1.0625-.40625 1.45313C.96875-.5.75-.40625.42188-.375L.0625-.32812Zm0 0"/><path id="d" d="M1-3.26562c0 2.60937.59375 5.48437 3.04688 5.59375v-.35938c-.82813-.15625-2.125-1.17187-2.125-5.23437 0-4.04688 1.23437-5.0625 2.125-5.25v-.34375C1.59375-8.76562 1-5.89062 1-3.26562m0 0"/><path id="e" d="M.85938-1.39062c0 .75.23437 1.53125 1.17187 1.53125 1.32813 0 2.35938-1.42188 3.04688-2.67188h.01562l-.375 1.39063c-.0625.23437-.10937.4375-.10937.60937 0 .4375.20312.67188.60937.67188.92188 0 1.51563-.79688 1.92188-1.67188l-.28125-.15625c-.20313.40625-.71875 1.21875-1.04688 1.21875-.14062 0-.1875-.09375-.1875-.21875 0-.10937.04688-.25.07813-.40625l1.82812-7.45312-.0625-.0625-2.0625.28125-.0625.26562.6875.0625c.1875.01563.26563.0625.26563.20313q0 .09375-.04688.28125l-.45312 1.85937-.01563.03125c-.23437-.10937-.57812-.20312-.98437-.20312-2.70313 0-3.9375 3.03125-3.9375 4.4375m1.15625.09374c0-1.26562 1.01562-4.125 2.85937-4.125.35938 0 .67188.10938.79688.23438C5.5-4.29687 5.125-3.20312 4.53125-2.23437c-.5625.90625-1.32812 1.76562-1.9375 1.76562-.375 0-.57812-.3125-.57812-.82812m0 0"/><path id="f" d="M.6875 1.96875v.35938c2.45313-.10938 3.04688-2.98438 3.04688-5.59375 0-2.625-.59375-5.5-3.04688-5.59375v.34375c.89063.1875 2.125 1.20312 2.125 5.25 0 4.0625-1.29687 5.07812-2.125 5.23437m0 0"/><clipPath id="c"><path d="M0 25h58.02344v26H0Zm0 0"/></clipPath></defs><use xlink:href="#a" x="24.83657" y="19.43041"/><use xlink:href="#b" x="13.33609" y="12.18422"/><g clip-path="url(#c)"><path fill="none" stroke="#000" stroke-miterlimit="10" stroke-width=".39518" d="m.19922 45.35937 57.625-14.40625"/></g><use xlink:href="#d" x="4.56073" y="58.59079"/><use xlink:href="#e" x="9.303" y="58.59079"/><use xlink:href="#f" x="16.95979" y="58.59079"/></svg>