<svg xmlns="http://www.w3.org/2000/svg" xmlns:xlink="http://www.w3.org/1999/xlink" width="108.188pt" height="104.849pt" viewBox="0 0 108.188 104.849"><defs><path id="a" d="m2.6875-2.01562.78125.76562L6.6875-4.48437 9.9375-1.25l.75-.76562-3.23437-3.21875 3.23437-3.25-.75-.75-3.25 3.21875-3.21875-3.21875-.78125.75 3.25 3.25Zm0 0"/><path id="b" d="M0 0h4.39063l.09375-.53125-.71875-.0625c-.5625-.04687-.85938-.17187-.85938-.57812 0-.98438.17188-1.53125.39063-2.53125L5-11.28125h.04688L7.28125-.21875h.51563l7.23437-11.0625h.04688l-2.28125 9.73438c-.15625.64062-.32813.85937-.79688.89062l-1 .125L10.875 0h5.0625l.10938-.53125-1.09376-.125c-.32812-.01562-.46875-.17187-.46875-.46875 0-.125.01563-.26562.0625-.42187l2.23438-9.76563c.15625-.64062.29688-.89062.76563-.9375l1.03124-.07812.14063-.53125h-3.64062c-1 1.70312-2.09375 3.35937-3.23438 5.07812L8.5625-2.75H8.5L7.45313-7.90625c-.375-1.6875-.75-3.29687-1.0625-4.95312H2.79688l-.125.53125 1.09375.10937c.3125.01563.46875.17188.46875.48438 0 .125-.01563.26562-.0625.42187L2.40625-3.70312c-.20312 1-.42187 1.70312-.64062 2.3125-.21876.59375-.5625.73437-1.09375.79687l-.57813.0625Zm0 0"/><path id="d" d="M1.60938-5.23437c0 4.1875.9375 8.79687 4.875 8.95312v-.54687c-1.32813-.26563-3.40625-1.90625-3.40625-8.40625 0-6.46875 1.98437-8.125 3.40625-8.42188v-.54687c-3.9375.15625-4.875 4.76562-4.875 8.96875m0 0"/><path id="e" d="M1.39063-2.23437c0 1.20312.34375 2.45312 1.85937 2.45312 2.125 0 3.79688-2.28125 4.875-4.28125h.04688L7.5625-1.84375c-.10937.375-.17187.71875-.17187 1 0 .6875.32812 1.0625.98437 1.0625 1.45313 0 2.42188-1.26562 3.0625-2.67187l-.4375-.25C10.65625-2.0625 9.82813-.75 9.3125-.75c-.21875 0-.29687-.14062-.29687-.35937 0-.17188.0625-.39063.125-.65625l2.92187-11.9375-.09375-.07813-3.29687.42188-.10938.4375 1.10938.10937c.29687.01563.42187.09375.42187.3125 0 .09375-.03125.25-.07812.45313L9.29688-9.0625 9.25-9.01562c-.34375-.1875-.92187-.32813-1.5625-.32813-4.32812 0-6.29687 4.85938-6.29687 7.10938m1.82812.15625c0-2.01563 1.625-6.60938 4.59375-6.60938.57813 0 1.0625.1875 1.28125.375-.26562 1.42188-.89062 3.1875-1.82812 4.73438C6.375-2.14062 5.14063-.75 4.15625-.75c-.59375 0-.9375-.5-.9375-1.32812m0 0"/><path id="f" d="M1.10938 3.17188v.54687C5.04688 3.5625 6-1.04687 6-5.23437c0-4.20313-.95312-8.8125-4.89062-8.96875v.54687c1.42187.29688 3.40625 1.95313 3.40625 8.42188 0 6.5-2.07813 8.14062-3.40625 8.40625m0 0"/><path id="g" d="M.6875-5.59375c0 3.34375.98438 5.79688 3.75 5.79688 2.75 0 3.75-2.45313 3.75-5.79688s-1-5.78125-3.75-5.78125c-2.76562 0-3.75 2.4375-3.75 5.78125m1.70313 0c0-2.71875.45312-5.1875 2.04687-5.1875 1.57813 0 2.04688 2.46875 2.04688 5.1875 0 2.73438-.46875 5.20313-2.04688 5.20313-1.59375 0-2.04687-2.46875-2.04687-5.20313m0 0"/><path id="h" d="m.85938 2.04688.3125.3125C2.01563 1.57813 3.21875.46875 3.21875-.85937c0-.89063-.48437-1.5-1.125-1.5-.51562 0-.82812.40625-.82812.82812 0 .60938.54687.92188.54687 1.64063 0 .6875-.42187 1.34375-.95312 1.9375m0 0"/><path id="i" d="M.73438-5.15625c0 3.60938 1.3125 5.35938 3.82812 5.35938 2.46875 0 3.78125-1.5 3.78125-3.78125 0-2.26563-1.39062-3.48438-3.1875-3.48438-1.3125 0-2.29687.89063-2.73437 1.4375.01562-3.6875 1.03125-5.15625 2.54687-5.15625.76563 0 1.3125.64063 1.5625 1.59375.04688.20313.17188.35938.42188.35938.375 0 .89062-.29688.89062-.76563 0-.67187-.8125-1.78125-2.82812-1.78125-2.65625 0-4.28125 2.04688-4.28125 6.21875m1.6875 1.20313c0-1.01563.76562-2.26563 2.17187-2.26563 1.04688 0 2.07813.96875 2.07813 2.89063 0 1.76562-.67188 2.9375-2.07813 2.9375-1.46875 0-2.17187-1.54688-2.17187-3.5625m0 0"/><path id="j" d="M.8125-4.01562c0 2.78125 1.375 4.21875 3.89063 4.21875 1.17187 0 2.75-.60938 3.21875-2.40625l-.5-.23438C6.90625-1.26562 6.25-.67187 5.01563-.67187c-1.98438 0-2.45313-2.09375-2.45313-3.65625 0-2.48438.98438-3.48438 2.14063-3.48438.76562 0 1.23437.54688 1.57812 1.45313.10938.26562.21875.4375.53125.4375.34375 0 .98438-.21875.98438-.85938 0-.76562-1.10938-1.625-2.92188-1.625C1.82813-8.40625.8125-6.25.8125-4.01562m0 0"/><path id="k" d="M.53125 0h4.07813v-.48437c-1.1875-.07813-1.25-.125-1.25-.96875V-5.375c0-.42187 0-.65625.125-.89062C3.8125-6.9375 4.53125-7.5 5.46875-7.5c1.4375 0 1.60938 1.0625 1.60938 2.09375v3.95313c0 .84375-.04688.89062-1.26563.96875V0h4.07813v-.48437c-1.1875-.07813-1.23438-.125-1.23438-.96875V-5.375c0-.42187.01563-.64062.125-.90625C9.01563-6.95312 9.73438-7.5 10.67188-7.5c1.0625 0 1.70312.59375 1.70312 2.09375v3.95313c0 .84375-.0625.89062-1.26562.96875V0h4.09375v-.48437C14-.5625 13.9375-.60937 13.9375-1.45312v-4.28125c0-1.6875-.90625-2.67188-2.5-2.67188-1.35937 0-2.34375.90625-2.9375 1.28125-.40625-.78125-1.04687-1.28125-2.21875-1.28125-1.28125 0-2.32812.85938-2.92187 1.28125l-.15625-1.28125-2.57813.4375v.40625l.625.09375c.42188.0625.54688.14063.54688.73438v5.28125c0 .84375-.04688.89062-1.26563.96875Zm0 0"/><clipPath id="c"><path d="M9 44h98.38281v35H9Zm0 0"/></clipPath></defs><path fill="none" stroke="red" stroke-miterlimit="10" stroke-width=".39553" d="m69.35156 59.50782-2.26953-8.94531 8.9414-2.28906 2.26562 8.9453-8.9375 2.28907"/><use xlink:href="#a" x="54.361" y="31.36655"/><use xlink:href="#b" x="35.94323" y="19.76165"/><g clip-path="url(#c)"><path fill="none" stroke="#000" stroke-miterlimit="10" stroke-width=".39553" d="m14.90627 72.88672 92.2773-23.0703"/></g><use xlink:href="#d" x="21.89467" y="94.0739"/><use xlink:href="#e" x="29.48898" y="94.0739"/><use xlink:href="#f" x="41.75062" y="94.0739"/><path fill="none" stroke="#000" stroke-dasharray="2.9665632165000004 2.9665632165000004" stroke-miterlimit="10" stroke-width=".39553" d="m61.04687 26.75002 8.30469 32.7578"/><use xlink:href="#g" x="6.59153" y="47.63147"/><use xlink:href="#h" x="15.45551" y="47.63147"/><use xlink:href="#i" x="21.86322" y="47.63147"/><use xlink:href="#j" x="34.48418" y="47.63147"/><use xlink:href="#k" x="42.77859" y="47.63147"/></svg>