<svg xmlns="http://www.w3.org/2000/svg" xmlns:xlink="http://www.w3.org/1999/xlink" width="143.4" height="152.985" viewBox="0 0 143.4 152.985"><defs><path id="a" d="m3.03125-2.28125.875.875L7.54688-5.0625l3.65625 3.65625.85937-.875-3.64062-3.64062 3.64062-3.65625-.85937-.84375-3.65625 3.64062-3.64063-3.64062-.875.84375 3.67188 3.65625Zm0 0"/><path id="b" d="M0 0h4.95313l.10937-.60937-.8125-.0625c-.64062-.04688-.96875-.20313-.96875-.64063 0-1.125.20313-1.75.45313-2.85937l1.92187-8.5625h.03125L8.21875-.25h.57813l8.17187-12.48437h.04688l-2.5625 11c-.1875.70312-.39063.95312-.90625 1l-1.125.125L12.28125 0H18l.10938-.60937-1.23438-.125c-.375-.03126-.53125-.20313-.53125-.53125 0-.14063.01563-.29688.0625-.46875l2.53125-11.03125c.17188-.71875.32813-1.01563.875-1.0625l1.15625-.07813.15625-.60937h-4.10937c-1.125 1.92187-2.375 3.79687-3.64063 5.73437L9.67188-3.10937h-.07813L8.42188-8.9375C8-10.82812 7.5625-12.64062 7.21875-14.51562H3.14063l-.125.60937 1.23437.10938c.34375.01562.53125.20312.53125.5625 0 .125-.03125.28125-.0625.46875l-2 8.59375C2.48438-3.0625 2.23438-2.25 1.98438-1.5625c-.25.67188-.625.82813-1.21875.89063l-.65625.0625Zm0 0"/><path id="c" d="M1.8125-5.92187c0 4.73437 1.0625 9.9375 5.51563 10.125v-.625c-1.5-.29688-3.84375-2.15625-3.84375-9.5 0-7.29688 2.23437-9.15625 3.84375-9.48438v-.625c-4.45313.17188-5.51563 5.375-5.51563 10.10938m0 0"/><path id="d" d="M1.5625-2.51562C1.5625-1.15625 1.96875.25 3.65625.25c2.42188 0 4.29688-2.57812 5.51563-4.82812h.04687l-.6875 2.5c-.10937.42187-.1875.8125-.1875 1.125C8.34375-.17187 8.70313.25 9.4375.25c1.65625 0 2.75-1.4375 3.46875-3.01562l-.48437-.29688c-.39063.73438-1.32813 2.21875-1.90625 2.21875-.25 0-.32813-.15625-.32813-.40625 0-.20312.0625-.45312.125-.73437l3.3125-13.48438-.10937-.09375-3.73438.48438-.10937.5 1.25.10937c.32812.01563.46875.10938.46875.35938q0 .16406-.09375.51562l-.79688 3.375-.04687.03125c-.40625-.1875-1.04688-.34375-1.76563-.34375-4.89062 0-7.125 5.46875-7.125 8.01563m2.07813.17187c0-2.28125 1.82812-7.45312 5.17187-7.45312.65625 0 1.21875.20312 1.45313.42187-.3125 1.60938-1 3.59375-2.07813 5.32813-1 1.64062-2.375 3.20312-3.5 3.20312-.67187 0-1.04687-.5625-1.04687-1.5m0 0"/><path id="e" d="M1.25 3.57813v.625c4.4375-.1875 5.51563-5.39063 5.51563-10.125S5.6875-15.85937 1.25-16.03126v.625c1.60938.32813 3.84375 2.1875 3.84375 9.48438 0 7.34375-2.34375 9.20312-3.84375 9.5m0 0"/><path id="f" d="M2.04688 0h6.21875v-.54687L6.67188-.6875c-.40625-.03125-.625-.17187-.625-.92187v-11.125l-.09375-.10938-3.90625.67188v.45312L3.8125-11.5c.32813.04688.45313.1875.45313.73438v9.15625c0 .75-.1875.89062-.625.92187l-1.59375.14063Zm0 0"/><path id="g" d="m.96875 2.3125.35938.35938c.9375-.89063 2.3125-2.15625 2.3125-3.64063 0-1-.54688-1.70312-1.26563-1.70312-.59375 0-.95312.46875-.95312.9375 0 .6875.625 1.04687.625 1.85937 0 .78125-.48438 1.51563-1.07813 2.1875m0 0"/><path id="h" d="M.78125-6.3125C.78125-2.53125 1.89063.21875 5 .21875c3.125 0 4.25-2.75 4.25-6.53125S8.125-12.84375 5-12.84375c-3.10937 0-4.21875 2.75-4.21875 6.53125m1.90625 0c0-3.07812.53125-5.85937 2.3125-5.85937 1.79688 0 2.3125 2.78125 2.3125 5.85937S6.79688-.4375 5-.4375c-1.78125 0-2.3125-2.79687-2.3125-5.875m0 0"/><path id="i" d="m.35938-3.78125.15625.40625h5.15625v1.92188c0 .65625-.20313.75-.67188.79687l-1.20312.10938V0h4.98437v-.54687L7.9375-.64063c-.4375-.0625-.5625-.15624-.5625-.8125V-3.375h1.92188v-.89062H7.375V-12.625H5.98438C4.21875-10 2.09375-6.73437.35938-3.78125m1.375-.48437C2.85938-6.3125 4.21875-8.5 5.67188-10.79687v6.53125Zm0 0"/><path id="j" d="M.92188-4.54687c0 3.15625 1.54687 4.76562 4.39062 4.76562 1.3125 0 3.10938-.6875 3.625-2.70312L8.375-2.75C7.79688-1.42187 7.04688-.76562 5.67188-.76562c-2.25 0-2.78125-2.34375-2.78125-4.10938C2.89063-7.70312 4-8.82812 5.3125-8.82812c.85938 0 1.40625.625 1.78125 1.65625.125.29687.23438.48437.60938.48437s1.09375-.25 1.09375-.96875c0-.85937-1.23438-1.82812-3.29688-1.82812-3.4375 0-4.57812 2.4375-4.57812 4.9375m0 0"/><path id="k" d="M.60938 0h4.59375v-.54687C3.85938-.64063 3.79688-.6875 3.79688-1.64062V-6.0625c0-.48437 0-.75.14062-1.01562.35938-.76563 1.1875-1.375 2.23438-1.375C7.79688-8.45312 8-7.28125 8-6.10937v4.46875c0 .95312-.0625 1-1.42187 1.09375V0h4.59375v-.54687C9.82813-.64063 9.76563-.6875 9.76563-1.64062V-6.0625c0-.48437.01562-.73437.14062-1.03125.28125-.76562 1.07813-1.35937 2.15625-1.35937 1.17188 0 1.90625.65625 1.90625 2.34375v4.46875c0 .95312-.0625 1-1.4375 1.09375V0h4.625v-.54687c-1.34375-.09376-1.42187-.14063-1.42187-1.09375v-4.82813c0-1.90625-1.03125-3.01562-2.8125-3.01562-1.54688 0-2.65625 1.03125-3.3125 1.45312-.46875-.89062-1.1875-1.45312-2.51563-1.45312-1.45312 0-2.64062.96875-3.29687 1.45312l-.1875-1.45312L.70313-9v.45313l.70312.10937c.48438.07813.625.15625.625.84375v5.95313c0 .95312-.0625 1-1.42187 1.09375Zm0 0"/></defs><path fill="none" stroke="red" stroke-miterlimit="10" stroke-width=".39684" d="m82.6406 93.14062-7.36718 7.36719-7.36328-7.36719 7.36328-7.36328 7.36719 7.36328"/><use xlink:href="#a" x="28.22889" y="145.21894"/><use xlink:href="#b" x="7.43987" y="132.11975"/><path fill="none" stroke="#000" stroke-miterlimit="10" stroke-width=".39684" d="m77.43358 87.9336-52.0742-52.0703"/><path fill="none" stroke="#000" stroke-dasharray="2.9763665789 2.9763665789" stroke-miterlimit="10" stroke-width=".39684" d="m77.43358 87.9336 52.0703 52.0742m-93.73045 0 46.86718-46.86718"/><use xlink:href="#c" x="33.2459" y="23.77906"/><use xlink:href="#d" x="41.81775" y="23.77906"/><use xlink:href="#e" x="55.65773" y="23.77906"/><use xlink:href="#f" x="67.09328" y="137.29808"/><use xlink:href="#g" x="77.09824" y="137.29808"/><use xlink:href="#h" x="84.33075" y="137.29808"/><use xlink:href="#i" x="94.33571" y="137.29808"/><use xlink:href="#j" x="108.58069" y="137.29808"/><use xlink:href="#k" x="117.94276" y="137.29808"/></svg>