<svg xmlns="http://www.w3.org/2000/svg" xmlns:xlink="http://www.w3.org/1999/xlink" width="425.994pt" height="98.813pt" viewBox="0 0 425.994 98.813"><defs><path id="c" d="M1.26563 0h3.84375v-.32812L4.125-.42187C3.875-.45312 3.75-.53125 3.75-1v-6.89062l-.0625-.0625-2.42187.42187V-7.25l1.09375.14063c.20312.01562.28125.10937.28125.4375V-1c0 .46875-.10938.54688-.39063.57813l-.98437.09375Zm0 0"/><path id="d" d="M.51563-3.60937c0 2.53125.92187 3.75 2.67187 3.75C4.90625.14063 5.82813-.90625 5.82813-2.5c0-1.57812-.96875-2.4375-2.21875-2.4375-.92188 0-1.60938.625-1.92188 1 .01563-2.5625.71875-3.59375 1.78125-3.59375.53125 0 .92188.4375 1.09375 1.10938.04688.14062.125.25.29688.25.26562 0 .625-.20313.625-.53125 0-.46875-.57813-1.25-1.98438-1.25-1.84375 0-2.98437 1.4375-2.98437 4.34375m1.17187.84375c0-.70313.53125-1.57813 1.51563-1.57813.73437 0 1.46875.67188 1.46875 2.01563 0 1.23437-.48438 2.04687-1.46875 2.04687-1.01563 0-1.51563-1.07812-1.51563-2.48437m0 0"/><path id="f" d="M.3125-1.1875c0 .48438.8125 1.32813 2.46875 1.32813 1.6875 0 2.75-.85938 2.75-2.35938 0-1.5625-1.34375-2.01562-1.98437-2.07812v-.0625c.625-.09375 1.64062-.5625 1.64062-1.71875 0-1.29688-1.01562-1.875-2.26562-1.875C1.375-7.95312.625-7.04687.625-6.54687.625-6.1875 1.03125-6 1.1875-6s.25-.07812.29688-.23437c.25-.79688.6875-1.29688 1.34375-1.29688C3.75-7.53125 4-6.73437 4-6.0625c0 .6875-.25 1.57813-1.25 1.57813-.5625 0-.89062-.125-1.01562-.125-.15626 0-.21876.125-.21876.32812s.0625.32813.21876.32813c.125 0 .45312-.10938 1.01562-.10938 1 0 1.54688.89063 1.54688 1.90625 0 1.39063-.67188 1.875-1.51563 1.875-.76562 0-1.28125-.5625-1.5-1.21875-.07812-.23437-.1875-.34375-.34375-.34375-.21875 0-.625.23438-.625.65625m0 0"/><path id="g" d="M.48438-3.90625c0 2.34375.6875 4.04688 2.60937 4.04688 1.9375 0 2.625-1.70313 2.625-4.04688s-.6875-4.04687-2.625-4.04687C1.17188-7.95312.48438-6.25.48438-3.90625m1.1875 0c0-1.90625.3125-3.625 1.42187-3.625 1.10938 0 1.4375 1.71875 1.4375 3.625s-.32812 3.625-1.4375 3.625c-1.10937 0-1.42187-1.71875-1.42187-3.625m0 0"/><path id="e" d="M.25 0h2.82813v-.32812c-.79688-.0625-.85938-.125-.85938-.6875V-3.75c0-.29687 0-.45312.09375-.625.25-.46875.78125-.85937 1.40625-.85937.79688 0 1.23438.4375 1.23438 1.45312v2.76563c0 .5625-.0625.625-.89063.6875V0h2.85938v-.32812c-.8125-.0625-.875-.125-.875-.6875V-4c0-1.1875-.65625-1.875-1.73438-1.875-.85937 0-1.375.42188-2.10937.90625v-3.64062l-.09375-.0625-1.8125.28125v.3125l.4375.04687c.29687.04688.375.10938.375.53125v6.48438c0 .5625-.04688.625-.85938.6875Zm0 0"/><path id="h" d="M.375 0h2.84375v-.32812c-.82812-.0625-.875-.09375-.875-.6875V-3.75c0-.29687 0-.46875.09375-.625.21875-.46875.73438-.85937 1.375-.85937 1.01563 0 1.14063.73437 1.14063 1.45312v2.76563c0 .59375-.04688.625-.89063.6875V0h2.85938v-.32812c-.84375-.0625-.875-.09375-.875-.6875V-3.75c0-.29687.01562-.45312.07812-.64062.1875-.46875.67188-.84375 1.34375-.84375.73438 0 1.17188.40625 1.17188 1.45312v2.76563c0 .59375-.03125.625-.875.6875V0H10.625v-.32812c-.84375-.0625-.89062-.09375-.89062-.6875V-4c0-1.1875-.625-1.875-1.73438-1.875-.95312 0-1.64062.64063-2.0625.90625-.28125-.54687-.71875-.90625-1.54687-.90625-.89063 0-1.625.59375-2.04688.90625L2.23438-5.875.4375-5.57812v.29687l.4375.0625c.29688.04688.375.09375.375.51563v3.6875c0 .59375-.03125.625-.875.6875Zm0 0"/><path id="i" d="M1.0625-7.65625c0 .4375.3125.73438.73438.73438.42187 0 .70312-.29688.70312-.73438 0-.42187-.28125-.70312-.70312-.70312-.42188 0-.73438.28125-.73438.70312M.375 0h2.84375v-.32812c-.82812-.0625-.875-.09375-.875-.6875v-4.78125L2.26563-5.875.4375-5.57812v.29687l.4375.0625c.29688.04688.375.09375.375.51563v3.6875c0 .59375-.03125.625-.875.6875Zm0 0"/><path id="j" d="M.375 0h2.84375v-.32812c-.82812-.0625-.875-.09375-.875-.6875V-3.75c0-.29687.01563-.45312.125-.64062.25-.45313.76563-.84375 1.39063-.84375.79687 0 1.23437.4375 1.23437 1.45312v2.76563c0 .59375-.04687.625-.89062.6875V0H7.0625v-.32812c-.82812-.0625-.875-.09375-.875-.6875V-4c0-1.1875-.65625-1.875-1.71875-1.875-.875 0-1.40625.42188-2.125.90625L2.17188-5.875.4375-5.57812v.29687l.4375.0625c.29688.04688.375.09375.375.51563v3.6875c0 .59375-.03125.625-.875.6875Zm0 0"/><path id="k" d="M.82813-.59375c0 .42188.28124.73438.73437.73438s.71875-.3125.71875-.73438c0-.4375-.26562-.76562-.71875-.76562s-.73437.32812-.73437.76562m0 0"/><path id="l" d="M.5-2.59375h2.4375V0h.79688v-2.59375h2.42187v-.67187H3.73438v-2.46875H2.9375v2.46875H.5Zm0 0"/><path id="m" d="M.3125-.10937.4375 0h4.84375l.39063-1.54687-.32813-.0625c-.25.64062-.48437.71875-.95312.71875H1.40625c.1875-.60938.875-1.4375 1.96875-2.21875 1.10938-.82813 1.98438-1.34375 1.98438-2.65625 0-1.625-1.07813-2.1875-2.3125-2.1875C1.4375-7.95312.625-6.98437.625-6.375c0 .40625.4375.59375.64063.59375.21874 0 .29687-.125.34375-.32812.1875-.79688.64062-1.42188 1.35937-1.42188.90625 0 1.15625.73438 1.15625 1.59375 0 1.26563-.625 1.96875-1.65625 2.85938C1.03125-1.8125.53125-1.01562.3125-.10937m0 0"/><path id="n" d="M1.26563 0h3.84375v-.32812L4.125-.42187C3.875-.45312 3.75-.53125 3.75-1v-6.89062l-.0625-.0625-2.42187.42187V-7.25l1.09375.14063c.20312.01562.28125.10937.28125.4375V-1c0 .23438-.03125.35938-.10938.45313-.0625.09374-.15625.10937-.28125.125l-.98437.09375Zm0 0"/><path id="o" d="M.46875-1.1875c0 .53125.82813 1.32813 2.34375 1.32813 1.92188 0 2.79688-1.17188 2.79688-2.65625 0-1.64063-1.01563-2.46875-2.40625-2.46875-.65625 0-1.34375.26562-1.71875.60937l-.01563-.01562.26563-2.1875c.03124-.29688.10937-.34375.32812-.34375h2.90625l.29688-.79688-.0625-.09375H1.29688l-.10938.10938-.25 3.90625.29688.15625c.48437-.5625.95312-.84375 1.59375-.84375.73437 0 1.5625.54687 1.5625 2.09375 0 1.20312-.48438 2.10937-1.5 2.10937-.82813 0-1.23438-.57812-1.46875-1.25-.0625-.17187-.17188-.28125-.34375-.28125-.23438 0-.60938.23438-.60938.625m0 0"/><clipPath id="a"><path d="M.39844 26H420v1H.39844Zm0 0"/></clipPath><clipPath id="b"><path d="M407 13h18.58984v27H407Zm0 0"/></clipPath></defs><g clip-path="url(#a)"><path fill="none" stroke="#000" stroke-miterlimit="10" stroke-width=".7955" d="M.79688 26.42578H419.0312"/></g><path d="M423.1875 26.42578c-.51172-.10937-2.7539-.71094-4.15625-1.36328v2.72266c1.40234-.65235 3.64453-1.25391 4.15625-1.35938m0 0"/><g clip-path="url(#b)"><path fill="none" stroke="#000" stroke-miterlimit="10" stroke-width=".7955" d="M423.1875 26.42578c-.51172-.10937-2.7539-.71094-4.15625-1.36328v2.72266c1.40234-.65235 3.64453-1.25391 4.15625-1.35938Zm0 0"/></g><path fill="none" stroke="#000" stroke-miterlimit="10" stroke-width=".7955" d="M71.53124 35.26562V17.58203"/><use xlink:href="#c" x="40.97654" y="12.80577"/><use xlink:href="#d" x="47.16657" y="12.80577"/><use xlink:href="#e" x="55.9794" y="12.80577"/><use xlink:href="#f" x="65.68728" y="12.80577"/><use xlink:href="#g" x="71.87731" y="12.80577"/><use xlink:href="#h" x="80.69014" y="12.80577"/><use xlink:href="#i" x="91.46675" y="12.80577"/><use xlink:href="#j" x="94.86008" y="12.80577"/><path fill="none" stroke="#000" stroke-miterlimit="10" stroke-width=".7955" d="M212.99607 35.26562V17.58203"/><use xlink:href="#k" x="181.36586" y="12.80577"/><use xlink:href="#k" x="186.83496" y="12.80577"/><use xlink:href="#k" x="192.30407" y="12.80577"/><use xlink:href="#k" x="197.77317" y="12.80577"/><use xlink:href="#k" x="203.24227" y="12.80577"/><use xlink:href="#k" x="208.71137" y="12.80577"/><use xlink:href="#k" x="214.18047" y="12.80577"/><use xlink:href="#k" x="219.64957" y="12.80577"/><use xlink:href="#k" x="225.11868" y="12.80577"/><use xlink:href="#k" x="230.58778" y="12.80577"/><use xlink:href="#k" x="236.05688" y="12.80577"/><use xlink:href="#k" x="241.52598" y="12.80577"/><path fill="none" stroke="#000" stroke-miterlimit="10" stroke-width=".7955" d="M354.4609 35.26562V17.58203"/><use xlink:href="#k" x="322.83015" y="12.80577"/><use xlink:href="#k" x="328.29925" y="12.80577"/><use xlink:href="#k" x="333.76835" y="12.80577"/><use xlink:href="#k" x="339.23745" y="12.80577"/><use xlink:href="#k" x="344.70655" y="12.80577"/><use xlink:href="#k" x="350.17565" y="12.80577"/><use xlink:href="#k" x="355.64476" y="12.80577"/><use xlink:href="#k" x="361.11386" y="12.80577"/><use xlink:href="#k" x="366.58296" y="12.80577"/><use xlink:href="#k" x="372.05206" y="12.80577"/><use xlink:href="#k" x="377.52116" y="12.80577"/><use xlink:href="#k" x="382.99027" y="12.80577"/><use xlink:href="#l" x="129.67668" y="62.58556"/><use xlink:href="#m" x="138.94929" y="62.58556"/><use xlink:href="#e" x="147.76201" y="62.58556"/><use xlink:href="#l" x="260.89236" y="62.36198"/><use xlink:href="#n" x="270.16497" y="62.36198"/><use xlink:href="#o" x="276.355" y="62.36198"/><use xlink:href="#h" x="285.16771" y="62.36198"/><use xlink:href="#i" x="295.94433" y="62.36198"/><use xlink:href="#j" x="299.33766" y="62.36198"/><use xlink:href="#l" x="180.89974" y="94.34645"/><use xlink:href="#m" x="190.17236" y="94.34645"/><use xlink:href="#e" x="198.98507" y="94.34645"/><use xlink:href="#n" x="208.69272" y="94.34645"/><use xlink:href="#o" x="214.88275" y="94.34645"/><use xlink:href="#h" x="223.69547" y="94.34645"/><use xlink:href="#i" x="234.47208" y="94.34645"/><use xlink:href="#j" x="237.86541" y="94.34645"/><path fill="none" stroke="#000" stroke-miterlimit="10" stroke-width=".7955" d="M71.53124 38.80078c54.32812 9.58203 87.1328 9.58203 135.39452 1.07031"/><path stroke="#000" stroke-miterlimit="10" stroke-width=".7955" d="M211.01953 39.15234c-.52344-.01562-2.83594-.21875-4.33203-.6211l.47266 2.6836c1.26953-.89062 3.375-1.87109 3.85937-2.0625Zm0 0"/><path fill="none" stroke="#000" stroke-miterlimit="10" stroke-width=".7955" d="M212.99607 38.80078c54.33203 9.58203 87.13671 9.58203 135.39452 1.07031"/><path stroke="#000" stroke-miterlimit="10" stroke-width=".7955" d="M352.48438 39.15234c-.51954-.01562-2.83594-.21875-4.32813-.62109l.47266 2.6836c1.26562-.89063 3.37109-1.8711 3.85547-2.0625Zm0 0"/><path fill="none" stroke="#000" stroke-miterlimit="10" stroke-width=".7955" d="M71.53124 61.78906C180.1914 80.9492 245.80075 80.9492 348.3906 62.85937"/><path stroke="#000" stroke-miterlimit="10" stroke-width=".7955" d="M352.48438 62.14063c-.51954-.01563-2.83594-.21875-4.32813-.6211l.47266 2.6836c1.26562-.89063 3.3711-1.8711 3.85547-2.0625Zm0 0"/></svg>