<svg xmlns="http://www.w3.org/2000/svg" xmlns:xlink="http://www.w3.org/1999/xlink" width="88.675pt" height="87.38pt" viewBox="0 0 88.675 87.38"><defs><path id="a" d="M.3125-1.1875c0 .5.79688 1.32813 2.4375 1.32813 1.6875 0 2.75-.85938 2.75-2.34375C5.5-3.75 4.17188-4.21875 3.51563-4.28125v-.04687c.64062-.09375 1.64062-.5625 1.64062-1.71875 0-1.28125-1-1.84375-2.25-1.84375C1.375-7.89062.625-7 .625-6.51562c0 .35937.40625.5625.5625.5625.14063 0 .23438-.09375.28125-.23438.26563-.79687.6875-1.29687 1.34375-1.29687.92188 0 1.15625.79687 1.15625 1.45312 0 .6875-.25 1.5625-1.23437 1.5625-.5625 0-.875-.10937-1.01563-.10937-.15625 0-.20312.10937-.20312.32812 0 .20313.04687.3125.20312.3125.14063 0 .45313-.10937 1.01563-.10937.98437 0 1.54687.89062 1.54687 1.90625 0 1.39062-.6875 1.875-1.51562 1.875C2-.26562 1.5-.84375 1.26563-1.5c-.0625-.21875-.17188-.32812-.34375-.32812-.20313 0-.60938.21874-.60938.64062m0 0"/><path id="b" d="M.48438-3.875c0 2.3125.67187 4.01563 2.59375 4.01563C5 .14063 5.6875-1.5625 5.6875-3.875c0-2.32812-.6875-4.01562-2.60937-4.01562S.48438-6.20312.48438-3.875m1.17187 0c0-1.89062.32813-3.60937 1.42188-3.60937S4.5-5.76562 4.5-3.875 4.17188-.26562 3.07813-.26562 1.65625-1.98437 1.65625-3.875m0 0"/><path id="d" d="M1.26563 0h3.8125v-.32812l-.96875-.09375c-.25-.01563-.39063-.10938-.39063-.5625v-6.84375l-.0625-.0625-2.39062.40625v.28125l1.07812.14062c.20313.01563.28125.10938.28125.4375v5.64063c0 .21874-.03125.35937-.10937.4375-.0625.09374-.15625.10937-.28125.125l-.96875.09375Zm0 0"/><path id="e" d="M.48438-2.10937c0 1.17187.71875 2.25 2.59375 2.25s2.59375-1.07813 2.59375-2.25c0-1.1875-.73438-1.875-1.53125-2.0625v-.01563c.70312-.1875 1.26562-.78125 1.26562-1.73437 0-1.26563-1-1.96875-2.32812-1.96875S.73438-7.1875.73438-5.92187c0 .95312.59375 1.54687 1.29687 1.73437v.01563c-.78125.1875-1.54687.875-1.54687 2.0625m1.15625.03125c0-1.0625.51562-1.85938 1.4375-1.85938.92187 0 1.4375.79688 1.4375 1.85938 0 1.03125-.46875 1.8125-1.4375 1.8125-.98438 0-1.4375-.78125-1.4375-1.8125m.21874-3.85938c0-.89062.42188-1.54687 1.21876-1.54687.79687 0 1.20312.65625 1.20312 1.54687 0 .78125-.35937 1.59375-1.20312 1.59375s-1.21875-.8125-1.21875-1.59375m0 0"/><path id="f" d="M.3125-.10937.4375 0h4.79688l.40625-1.53125-.32813-.0625c-.25.625-.48437.71875-.95312.71875H1.39063c.1875-.60937.89062-1.4375 1.95312-2.21875 1.125-.8125 1.98438-1.32812 1.98438-2.625 0-1.625-1.07813-2.17187-2.29688-2.17187C1.4375-7.89062.625-6.9375.625-6.32812c0 .39062.4375.57812.64063.57812.20312 0 .28124-.125.32812-.3125.1875-.79687.64063-1.42187 1.35938-1.42187.89062 0 1.15625.73437 1.15625 1.59375 0 1.25-.64063 1.95312-1.65625 2.84375C1.03125-1.79687.53125-1.01562.3125-.10937m0 0"/><path id="g" d="M.5-3.57812c0 2.5.92188 3.71875 2.65625 3.71875 1.71875 0 2.64063-1.04688 2.64063-2.625 0-1.5625-.96875-2.42188-2.21875-2.42188-.90625 0-1.59375.625-1.89063 1h-.03125c.01563-2.5625.73438-3.57812 1.79688-3.57812.53125 0 .90625.4375 1.07812 1.10937.04688.14063.125.25.29688.25.26562 0 .625-.21875.625-.53125 0-.46875-.57813-1.23437-1.96875-1.23437C1.64063-7.89062.5-6.46875.5-3.57812M1.6875-2.75c0-.70312.53125-1.5625 1.5-1.5625.73438 0 1.45313.67188 1.45313 2 0 1.21875-.46875 2.04688-1.45313 2.04688-1.01562 0-1.5-1.07813-1.5-2.48438m0 0"/><path id="c" d="M.98438-2.9375H7.375v-.6875H.98438Zm0 0"/></defs><path fill="none" stroke="#000" stroke-miterlimit="10" stroke-width=".49399" d="M15.67187 10.0586V4.1211m0 0h22.80469m0 5.9375V4.1211"/><use xlink:href="#a" x="18.29454" y="18.96022"/><use xlink:href="#b" x="29.69558" y="18.96022"/><use xlink:href="#b" x="41.09663" y="18.96022"/><use xlink:href="#c" x="4.27278" y="33.79868"/><path fill="none" stroke="#000" stroke-miterlimit="10" stroke-width=".49399" d="M15.67187 37.50781h22.80469"/><use xlink:href="#d" x="18.29454" y="33.79868"/><use xlink:href="#e" x="29.69558" y="33.79868"/><use xlink:href="#d" x="18.29454" y="48.63715"/><use xlink:href="#f" x="29.69558" y="48.63715"/><use xlink:href="#b" x="41.09663" y="48.63715"/><use xlink:href="#c" x="4.27278" y="63.47561"/><path fill="none" stroke="#000" stroke-miterlimit="10" stroke-width=".49399" d="M15.67187 67.1836H49.875"/><use xlink:href="#d" x="18.29454" y="63.47561"/><use xlink:href="#b" x="29.69558" y="63.47561"/><use xlink:href="#e" x="41.09663" y="63.47561"/><use xlink:href="#d" x="29.69614" y="78.31532"/><use xlink:href="#f" x="41.09718" y="78.31532"/><path fill="none" stroke="#000" stroke-miterlimit="10" stroke-width=".49399" d="M55.57812 82.64453V4.12111m0 14.22264h28.5039"/><use xlink:href="#d" x="63.8997" y="14.63218"/><use xlink:href="#e" x="75.30075" y="14.63218"/><use xlink:href="#d" x="63.8997" y="29.47064"/><use xlink:href="#g" x="75.30075" y="29.47064"/></svg>