<svg xmlns="http://www.w3.org/2000/svg" xmlns:xlink="http://www.w3.org/1999/xlink" width="97.612" height="122.539" viewBox="0 0 97.612 122.539"><defs><path id="a" d="M1.78125-5.3125H6.9375v5.15625h1.23438V-5.3125h5.15625v-1.23437H8.17188v-5.15625H6.9375v5.15625H1.78125Zm0 0"/><path id="b" d="M1.59375 0h4.82813v-.42187L5.1875-.53125C4.875-.5625 4.70313-.67187 4.70313-1.25v-8.65625L4.625-9.98437l-3.03125.51562v.35938l1.375.17187c.25.03125.34375.14063.34375.5625v7.125c0 .28125-.03125.45313-.125.5625-.07812.10938-.20312.14063-.35937.15625l-1.23438.10938Zm0 0"/><path id="c" d="M.92188-6.46875C.92188-1.9375 2.5625.25 5.71875.25c3.09375 0 4.75-1.875 4.75-4.73437 0-2.84375-1.73437-4.375-4-4.375-1.64062 0-2.875 1.10937-3.4375 1.79687h-.04687c.03125-4.60937 1.34375-6.46875 3.25-6.46875.95312 0 1.64062.79688 1.95312 2.01563.07813.23437.23438.4375.54688.4375.46875 0 1.10937-.375 1.10937-.95313 0-.85937-1.03125-2.23437-3.54687-2.23437-3.32813 0-5.375 2.5625-5.375 7.79687m2.10937 1.51563c0-1.28125.96875-2.84375 2.73438-2.84375 1.3125 0 2.60937 1.20312 2.60937 3.625 0 2.20312-.84375 3.6875-2.60937 3.6875-1.82813 0-2.73438-1.95313-2.73438-4.46875m0 0"/><path id="d" d="M.875-11.07812h.54688l.20312-.4375c.26563-.59375.5625-.90625 1.5-.90625h5.67188c-.20313.76562-.60938 1.96875-2.29688 4.40625-1.8125 2.59375-3 4.9375-3 7.40625C3.5.09374 4 .25 4.64063.25 5.25.25 5.6875.0625 5.67188-.53125 5.5625-3.29687 6.125-5.5625 7.23438-7.5c1.34375-2.34375 2.45312-3.67187 3.1875-6.29687l-.17188-.21875H1.51563Zm0 0"/><path id="e" d="M.5625-2.14062C.5625-1.25 2.01563.25 4.98438.25 8.01563.25 9.9375-1.29687 9.9375-3.96875c0-2.8125-2.40625-3.64062-3.57812-3.75v-.09375C7.5-8 9.3125-8.84375 9.3125-10.92187c0-2.3125-1.8125-3.34375-4.0625-3.34375-2.76562 0-4.14062 1.60937-4.14062 2.5 0 .64062.75 1 1.03125 1 .26562 0 .42187-.15625.51562-.42188.46875-1.42187 1.25-2.34375 2.4375-2.34375 1.65625 0 2.07813 1.45313 2.07813 2.64063 0 1.25-.45313 2.82812-2.23438 2.82812-1 0-1.59375-.20312-1.82812-.20312-.28125 0-.39063.20312-.39063.57812 0 .35938.10938.59375.39063.59375.23437 0 .82812-.20312 1.82812-.20312 1.78125 0 2.78125 1.60937 2.78125 3.4375 0 2.5-1.21875 3.375-2.71875 3.375-1.39062 0-2.29687-1.03125-2.70312-2.21875-.125-.40625-.32813-.59375-.625-.59375-.375 0-1.10938.39062-1.10938 1.15625m0 0"/><path id="f" d="M.40625-4.20312.57813-3.75h5.71875v2.14063c0 .71875-.21875.82812-.73438.875l-1.34375.125V0H9.75v-.60937l-.9375-.10938c-.48437-.0625-.625-.17187-.625-.89062V-3.75h2.15625v-.98437H8.1875v-9.28125H6.65625C4.6875-11.125 2.32813-7.48437.40625-4.20312m1.51563-.53125c1.25-2.28125 2.71875-4.70313 4.32812-7.25h.04688v7.25Zm0 0"/><path id="g" d="M.84375-2.14062C.84375-1.1875 2.32813.25 5.04688.25 8.5.25 10.0625-1.85937 10.0625-4.51562c0-2.9375-1.82812-4.4375-4.32812-4.4375-1.15625 0-2.40625.48437-3.07813 1.09375L2.64063-7.875l.46875-3.9375c.0625-.53125.1875-.60937.59375-.60937H8.9375l.5-1.42188-.10937-.17187h-7l-.20313.1875-.42187 7.01562.5.26563c.875-1 1.73437-1.48438 2.85937-1.48438 1.34375 0 2.8125.96875 2.8125 3.75 0 2.15625-.85937 3.79688-2.6875 3.79688-1.48437 0-2.21875-1.0625-2.64062-2.26563-.10938-.3125-.3125-.51562-.60938-.51562-.42187 0-1.09375.4375-1.09375 1.125m0 0"/><path id="h" d="M2.28125 0h6.89063v-.60937L7.40625-.76563c-.4375-.03124-.6875-.1875-.6875-1.01562v-12.375l-.10937-.10937-4.32813.73437v.51563l1.96875.25c.34375.03125.48438.1875.48438.79687v10.1875c0 .39063-.04688.64063-.17188.79688-.125.15624-.29687.20312-.51562.21874l-1.76563.15626Zm0 0"/><path id="i" d="M.5625-.20312.78125 0h8.6875l.71875-2.76562-.59375-.10938c-.4375 1.14063-.85937 1.29688-1.71875 1.29688H2.51563c.34375-1.09375 1.59375-2.59375 3.53125-4C8.0625-7.0625 9.625-8 9.625-10.34375c0-2.92187-1.9375-3.92187-4.15625-3.92187-2.875 0-4.35937 1.73437-4.35937 2.82812 0 .71875.8125 1.0625 1.17187 1.0625.375 0 .51563-.23437.59375-.59375.34375-1.42187 1.17188-2.5625 2.46875-2.5625 1.59375 0 2.0625 1.34375 2.0625 2.875 0 2.26563-1.125 3.53125-2.96875 5.14063-2.57812 2.25-3.48437 3.6875-3.875 5.3125m0 0"/></defs><use xlink:href="#a" x="7.44142" y="80.01823"/><path fill="none" stroke="#000" stroke-miterlimit="10" stroke-width=".89195" d="M7.4414 86.71875h82.34376"/><use xlink:href="#b" x="34.42865" y="26.43372"/><use xlink:href="#b" x="55.01209" y="26.43372"/><use xlink:href="#c" x="53.34571" y="53.22597"/><use xlink:href="#d" x="73.93138" y="53.22597"/><use xlink:href="#e" x="32.76128" y="80.01823"/><use xlink:href="#f" x="53.34695" y="80.01823"/><use xlink:href="#g" x="73.93262" y="80.01823"/><use xlink:href="#f" x="32.76128" y="106.81048"/><use xlink:href="#h" x="53.34695" y="106.81048"/><use xlink:href="#i" x="73.93262" y="106.81048"/></svg>