<svg xmlns="http://www.w3.org/2000/svg" xmlns:xlink="http://www.w3.org/1999/xlink" width="681.112pt" height="158.101pt" viewBox="0 0 681.112 158.101"><defs><path id="c" d="M1.3125-.95312c0 .67187.45313 1.17187 1.17188 1.17187s1.14062-.5 1.15625-1.17187c0-.6875-.4375-1.20313-1.15625-1.20313S1.3125-1.64062 1.3125-.95312m0 0"/><path id="f" d="M.39063 0h4.51562v-.53125c-1.28125-.10937-1.375-.1875-1.375-1.09375v-4.35937c0-.46875 0-.71875.15625-.98438.39063-.76562 1.25-1.375 2.23438-1.375 1.26562 0 1.96875.70313 1.96875 2.32813V-1.625c0 .90625-.10938.98438-1.40625 1.09375V0h4.53125v-.53125C9.73438-.64062 9.625-.71875 9.625-1.625v-4.75c0-1.89062-1.03125-2.96875-2.75-2.96875-1.35937 0-2.20312.64063-3.375 1.42188v-5.78125l-.125-.10938-2.90625.45313v.48437l.70313.07813c.46875.07812.59375.17187.59375.84375V-1.625c0 .90625-.0625.98438-1.375 1.09375Zm0 0"/><path id="i" d="M.59375 0H5.125v-.53125C3.79688-.64062 3.75-.67187 3.75-1.625v-4.35937c0-.46875 0-.73438.14063-.98438.34375-.76562 1.15625-1.375 2.1875-1.375 1.60937 0 1.8125 1.17188 1.8125 2.32813V-1.625c0 .95313-.0625.98438-1.40625 1.09375V0h4.53125v-.53125C9.6875-.64062 9.625-.67187 9.625-1.625v-4.35937c0-.46875.03125-.71875.14063-1.01563.28125-.75 1.07812-1.34375 2.125-1.34375 1.17187 0 1.875.65625 1.875 2.32813V-1.625c0 .95313-.0625.98438-1.40625 1.09375V0h4.5625v-.53125c-1.32813-.10937-1.40626-.14062-1.40626-1.09375v-4.75c0-1.89062-1.01562-2.96875-2.78124-2.96875-1.51563 0-2.60938 1-3.26563 1.42188C9.01563-8.79687 8.29688-9.34375 7-9.34375c-1.4375 0-2.60937.9375-3.25 1.42188l-.1875-1.42188-2.875.46875v.45313l.70313.09375C1.85938-8.23437 2-8.15625 2-7.48437V-1.625C2-.67187 1.9375-.64062.59375-.53125Zm0 0"/><path id="j" d="M1.70313-12.1875c0 .67188.46875 1.15625 1.15625 1.15625.67187 0 1.125-.48437 1.125-1.15625 0-.67187-.45313-1.125-1.125-1.125-.6875 0-1.15625.45313-1.15625 1.125M.59375 0H5.125v-.53125C3.79688-.64062 3.75-.67187 3.75-1.625v-7.60937l-.14062-.10938L.6875-8.875v.45313l.70313.09375C1.85938-8.23437 2-8.15625 2-7.48437V-1.625C2-.67187 1.9375-.64062.59375-.53125Zm0 0"/><path id="k" d="M.59375 0H5.125v-.53125C3.79688-.64062 3.75-.67187 3.75-1.625v-4.35937c0-.46875.01563-.71875.17188-1.01563.39062-.73437 1.23437-1.34375 2.21875-1.34375 1.26562 0 1.96875.70313 1.96875 2.32813V-1.625c0 .95313-.0625.98438-1.40625 1.09375V0H11.25v-.53125C9.92188-.64062 9.84375-.67187 9.84375-1.625v-4.75c0-1.89062-1.03125-2.96875-2.73437-2.96875-1.39063 0-2.23438.67188-3.39063 1.42188l-.25-1.42188L.6875-8.875v.45313l.70313.09375C1.85938-8.23437 2-8.15625 2-7.48437V-1.625C2-.67187 1.9375-.64062.59375-.53125Zm0 0"/><path id="l" d="M1.39063-4.01562H5.9375v-1.3125H1.39063Zm0 0"/><path id="m" d="M.75-1.90625c0 .85938 1.3125 2.125 3.73438 2.125C7.54688.21875 8.9375-1.64062 8.9375-4c0-2.625-1.625-3.9375-3.84375-3.9375-1.03125 0-2.14062.42188-2.73437.96875L2.34375-7 2.75-10.48437c.0625-.46875.1875-.53125.53125-.53125h4.64063l.45312-1.26563-.09375-.15625H2.0625l-.1875.17188L1.5-6.04687l.46875.23437C2.73438-6.70312 3.48438-7.125 4.5-7.125c1.1875 0 2.5.85938 2.5 3.32813C7-1.875 6.21875-.4375 4.59375-.4375c-1.3125 0-1.95312-.92187-2.32812-2-.10938-.28125-.28125-.45312-.54688-.45312-.375 0-.96875.375-.96875.98437m0 0"/><path id="n" d="M.5-.17187.6875 0h7.71875l.625-2.45312-.51562-.10938C8.125-1.54687 7.75-1.40625 7-1.40625H2.23438C2.53125-2.375 3.64063-3.70312 5.375-4.95312c1.78125-1.3125 3.17188-2.14063 3.17188-4.21875 0-2.59375-1.73438-3.48438-3.6875-3.48438-2.5625 0-3.875 1.54688-3.875 2.51563 0 .625.71875.92187 1.03125.92187.34375 0 .46875-.1875.54687-.51562C2.85938-11 3.59375-12 4.73438-12c1.42187 0 1.84375 1.1875 1.84375 2.54688 0 2-1.01563 3.14062-2.64063 4.5625C1.64063-2.89062.85938-1.625.5-.17187m0 0"/><path id="o" d="M.76563-6.21875C.76563-2.5 1.85938.21875 4.9375.21875 8 .21875 9.10938-2.5 9.10938-6.21875c0-3.73437-1.10938-6.4375-4.17188-6.4375-3.07812 0-4.17187 2.70313-4.17187 6.4375m1.89062 0C2.65625-9.25 3.17188-12 4.9375-12c1.76563 0 2.28125 2.75 2.28125 5.78125S6.70313-.4375 4.9375-.4375c-1.76562 0-2.28125-2.75-2.28125-5.78125m0 0"/><path id="p" d="M.5-1.90625c0 .79688 1.28125 2.125 3.92188 2.125 2.6875 0 4.39062-1.375 4.39062-3.75 0-2.48437-2.14062-3.21875-3.17187-3.32812v-.07813c1.01562-.15625 2.625-.90625 2.625-2.75 0-2.0625-1.60938-2.96875-3.60938-2.96875-2.45312 0-3.67187 1.42188-3.67187 2.21875 0 .57813.65625.89063.92187.89063.23438 0 .375-.14063.45313-.375C2.78125-11.1875 3.46875-12 4.51563-12c1.46875 0 1.84375 1.28125 1.84375 2.32813 0 1.10937-.39063 2.51562-1.98438 2.51562-.89062 0-1.40625-.17187-1.625-.17187-.23437 0-.32812.17187-.32812.51562 0 .3125.09375.51563.32812.51563.21875 0 .73438-.1875 1.625-.1875 1.59375 0 2.48438 1.4375 2.48438 3.0625 0 2.21875-1.09375 2.98437-2.42188 2.98437-1.23437 0-2.04687-.90625-2.39062-1.95312-.125-.35938-.29688-.54688-.5625-.54688C1.15625-2.9375.5-2.57812.5-1.90625m0 0"/><path id="d" d="M2.01563 0h6.125v-.53125l-1.5625-.14062c-.39063-.04688-.60938-.1875-.60938-.90625V-12.5625l-.10937-.09375L2.01563-12v.45313l1.75.21875c.3125.03125.4375.17187.4375.70312v9.04688c0 .71875-.1875.85937-.60938.90625l-1.57812.14062Zm0 0"/><path id="e" d="M.76563-3.39062C.76563-1.5 1.92188.21875 4.9375.21875c3 0 4.15625-1.71875 4.15625-3.60937 0-1.90625-1.1875-3.01563-2.45312-3.3125C7.76563-7 8.67188-7.96875 8.67188-9.48437c0-2.03125-1.59375-3.17188-3.73438-3.17188s-3.75 1.14063-3.75 3.17188C1.1875-7.96875 2.14063-7 3.25-6.70312 2-6.40625.76563-5.29687.76563-3.39062m1.875.0625c0-1.70313.8125-2.96875 2.29687-2.96875s2.29688 1.26562 2.29688 2.96875C7.23438-1.6875 6.5-.4375 4.9375-.4375s-2.29687-1.25-2.29687-2.89062m.34375-6.20313C2.98438-10.95312 3.67188-12 4.9375-12c1.26563 0 1.9375 1.04688 1.9375 2.46875 0 1.26563-.59375 2.5625-1.9375 2.5625s-1.95312-1.29687-1.95312-2.5625m0 0"/><path id="g" d="M.5-.17187.6875 0h7.71875l.625-2.45312-.51562-.10938C8.125-1.54687 7.75-1.40625 7-1.40625H2.23438C2.53125-2.375 3.64063-3.70312 5.375-4.95312c1.78125-1.3125 3.17188-2.14063 3.17188-4.21875 0-2.59375-1.73438-3.48438-3.6875-3.48438-2.5625 0-3.875 1.54688-3.875 2.51563 0 .625.71875.92187 1.03125.92187.34375 0 .46875-.1875.54687-.51562C2.85938-11 3.59375-12 4.73438-12c1.42187 0 1.84375 1.1875 1.84375 2.54688 0 2-1.01563 3.14062-2.64063 4.5625C1.64063-2.89062.85938-1.625.5-.17187m0 0"/><path id="h" d="M.76563-6.21875C.76563-2.5 1.85938.21875 4.9375.21875 8 .21875 9.10938-2.5 9.10938-6.21875c0-3.73437-1.10938-6.4375-4.17188-6.4375-3.07812 0-4.17187 2.70313-4.17187 6.4375m1.89062 0C2.65625-9.25 3.17188-12 4.9375-12c1.76563 0 2.28125 2.75 2.28125 5.78125S6.70313-.4375 4.9375-.4375c-1.76562 0-2.28125-2.75-2.28125-5.78125m0 0"/><clipPath id="a"><path d="M1.48438 41H673v2H1.48438Zm0 0"/></clipPath><clipPath id="b"><path d="M661 29h17.7461v26H661Zm0 0"/></clipPath></defs><g clip-path="url(#a)"><path fill="none" stroke="#000" stroke-miterlimit="10" stroke-width=".79251" d="M1.8789 42.1211h670.336"/></g><path d="M676.35547 42.1211c-.50781-.10547-2.74219-.70704-4.14063-1.35938v2.71484c1.39844-.65234 3.63282-1.25 4.14063-1.35547m0 0"/><g clip-path="url(#b)"><path fill="none" stroke="#000" stroke-miterlimit="10" stroke-width=".79251" d="M676.35547 42.1211c-.50781-.10548-2.74219-.70704-4.14063-1.35938v2.71484c1.39844-.65234 3.63282-1.25 4.14063-1.35547Zm0 0"/></g><path fill="none" stroke="#000" stroke-miterlimit="10" stroke-width=".79251" d="M137.1758 56.21094v-28.1836"/><use xlink:href="#c" x="86.76114" y="20.41293"/><use xlink:href="#c" x="95.47869" y="20.41293"/><use xlink:href="#c" x="104.19624" y="20.41293"/><use xlink:href="#c" x="112.9138" y="20.41293"/><use xlink:href="#c" x="121.63135" y="20.41293"/><use xlink:href="#c" x="130.3489" y="20.41293"/><use xlink:href="#c" x="139.06646" y="20.41293"/><use xlink:href="#c" x="147.78401" y="20.41293"/><use xlink:href="#c" x="156.50156" y="20.41293"/><use xlink:href="#c" x="165.21912" y="20.41293"/><use xlink:href="#c" x="173.93667" y="20.41293"/><use xlink:href="#c" x="182.65422" y="20.41293"/><path fill="none" stroke="#000" stroke-miterlimit="10" stroke-width=".79251" d="M272.46877 56.21094v-28.1836"/><use xlink:href="#c" x="222.05383" y="20.41293"/><use xlink:href="#c" x="230.77139" y="20.41293"/><use xlink:href="#c" x="239.48894" y="20.41293"/><use xlink:href="#c" x="248.20649" y="20.41293"/><use xlink:href="#c" x="256.92404" y="20.41293"/><use xlink:href="#c" x="265.6416" y="20.41293"/><use xlink:href="#c" x="274.35915" y="20.41293"/><use xlink:href="#c" x="283.0767" y="20.41293"/><use xlink:href="#c" x="291.79426" y="20.41293"/><use xlink:href="#c" x="300.51181" y="20.41293"/><use xlink:href="#c" x="309.22936" y="20.41293"/><use xlink:href="#c" x="317.94692" y="20.41293"/><path fill="none" stroke="#000" stroke-miterlimit="10" stroke-width=".79251" d="M407.76566 56.21094v-28.1836"/><use xlink:href="#c" x="357.34851" y="20.41293"/><use xlink:href="#c" x="366.06607" y="20.41293"/><use xlink:href="#c" x="374.78362" y="20.41293"/><use xlink:href="#c" x="383.50117" y="20.41293"/><use xlink:href="#c" x="392.21873" y="20.41293"/><use xlink:href="#c" x="400.93628" y="20.41293"/><use xlink:href="#c" x="409.65383" y="20.41293"/><use xlink:href="#c" x="418.37139" y="20.41293"/><use xlink:href="#c" x="427.08894" y="20.41293"/><use xlink:href="#c" x="435.80649" y="20.41293"/><use xlink:href="#c" x="444.52405" y="20.41293"/><use xlink:href="#c" x="453.2416" y="20.41293"/><path fill="none" stroke="#000" stroke-miterlimit="10" stroke-width=".79251" d="M543.06255 56.21094v-28.1836"/><use xlink:href="#d" x="494.35546" y="20.41293"/><use xlink:href="#e" x="504.22215" y="20.41293"/><use xlink:href="#f" x="518.26948" y="20.41293"/><use xlink:href="#g" x="533.74349" y="20.41293"/><use xlink:href="#h" x="543.61018" y="20.41293"/><use xlink:href="#i" x="557.65751" y="20.41293"/><use xlink:href="#j" x="574.83505" y="20.41293"/><use xlink:href="#k" x="580.2439" y="20.41293"/><use xlink:href="#l" x="175.01332" y="99.40277"/><use xlink:href="#m" x="186.48482" y="99.40277"/><use xlink:href="#i" x="200.53197" y="99.40277"/><use xlink:href="#j" x="217.70951" y="99.40277"/><use xlink:href="#k" x="223.11836" y="99.40277"/><use xlink:href="#l" x="305.37306" y="99.40277"/><use xlink:href="#n" x="316.84457" y="99.40277"/><use xlink:href="#o" x="326.71125" y="99.40277"/><use xlink:href="#i" x="340.7584" y="99.40277"/><use xlink:href="#j" x="357.93594" y="99.40277"/><use xlink:href="#k" x="363.34479" y="99.40277"/><use xlink:href="#l" x="457.00186" y="99.65036"/><use xlink:href="#p" x="468.47337" y="99.65036"/><use xlink:href="#f" x="482.52052" y="99.65036"/><use xlink:href="#l" x="290.61299" y="150.38587"/><use xlink:href="#p" x="302.0845" y="150.38587"/><use xlink:href="#f" x="316.13164" y="150.38587"/><use xlink:href="#n" x="331.6053" y="150.38587"/><use xlink:href="#m" x="341.47199" y="150.38587"/><use xlink:href="#i" x="355.51913" y="150.38587"/><use xlink:href="#j" x="372.69668" y="150.38587"/><use xlink:href="#k" x="378.10552" y="150.38587"/><path fill="none" stroke="#000" stroke-miterlimit="10" stroke-width=".79251" d="M543.06255 61.85156c-51.96094 9.16016-83.33595 9.16016-129.25001 1.06641"/><path stroke="#000" stroke-miterlimit="10" stroke-width=".7925" d="M409.73828 62.19922c.48047.1914 2.57813 1.16797 3.83985 2.05469l.47265-2.67188c-1.48828.39844-3.79687.60157-4.3125.61719Zm0 0"/><path fill="none" stroke="#000" stroke-miterlimit="10" stroke-width=".79251" d="M407.76566 61.85156c-51.96094 9.16016-83.33594 9.16016-129.2461 1.06641"/><path stroke="#000" stroke-miterlimit="10" stroke-width=".7925" d="M274.4414 62.19922c.48047.1914 2.57813 1.16797 3.84376 2.05469l.46875-2.67188c-1.48829.39844-3.79297.60156-4.3125.61719Zm0 0"/><path fill="none" stroke="#000" stroke-miterlimit="10" stroke-width=".79251" d="M272.46877 61.85156c-51.95703 9.16016-83.33203 9.16016-129.2461 1.06641"/><path stroke="#000" stroke-miterlimit="10" stroke-width=".7925" d="M139.14453 62.19922c.48438.1914 2.58203 1.16797 3.84375 2.05469l.46875-2.67188c-1.48828.39844-3.79297.60156-4.3125.61719Zm0 0"/><path fill="none" stroke="#000" stroke-miterlimit="10" stroke-width=".79251" d="M543.06255 98.4922c-155.88283 27.48437-250.00784 27.48437-399.83988 1.0664"/><path stroke="#000" stroke-miterlimit="10" stroke-width=".7925" d="M139.14453 98.83985c.48438.1914 2.58203 1.17187 3.84375 2.05468l.46875-2.67187c-1.48828.39843-3.79297.60156-4.3125.61719Zm0 0"/></svg>