<svg xmlns="http://www.w3.org/2000/svg" xmlns:xlink="http://www.w3.org/1999/xlink" width="332.063" height="122.539" viewBox="0 0 332.063 122.539"><defs><path id="a" d="M1.78125-5.3125H6.9375v5.15625h1.23438V-5.3125h5.15625v-1.23437H8.17188v-5.15625H6.9375v5.15625H1.78125Zm0 0"/><path id="h" d="M1.78125-5.3125h11.54688v-1.23437H1.78125Zm0 0"/><path id="b" d="M1.59375 0h4.82813v-.42187L5.1875-.53125C4.875-.5625 4.70313-.67187 4.70313-1.25v-8.65625L4.625-9.98437l-3.03125.51562v.35938l1.375.17187c.25.03125.34375.14063.34375.5625v7.125c0 .28125-.03125.45313-.125.5625-.07812.10938-.20312.14063-.35937.15625l-1.23438.10938Zm0 0"/><path id="c" d="M.5625-2.14062C.5625-1.25 2.01563.25 4.98438.25 8.01563.25 9.9375-1.29687 9.9375-3.96875c0-2.8125-2.40625-3.64062-3.57812-3.75v-.09375C7.5-8 9.3125-8.84375 9.3125-10.92187c0-2.3125-1.8125-3.34375-4.0625-3.34375-2.76562 0-4.14062 1.60937-4.14062 2.5 0 .64062.75 1 1.03125 1 .26562 0 .42187-.15625.51562-.42188.46875-1.42187 1.25-2.34375 2.4375-2.34375 1.65625 0 2.07813 1.45313 2.07813 2.64063 0 1.25-.45313 2.82812-2.23438 2.82812-1 0-1.59375-.20312-1.82812-.20312-.28125 0-.39063.20312-.39063.57812 0 .35938.10938.59375.39063.59375.23437 0 .82812-.20312 1.82812-.20312 1.78125 0 2.78125 1.60937 2.78125 3.4375 0 2.5-1.21875 3.375-2.71875 3.375-1.39062 0-2.29687-1.03125-2.70312-2.21875-.125-.40625-.32813-.59375-.625-.59375-.375 0-1.10938.39062-1.10938 1.15625m0 0"/><path id="d" d="M.875-11.07812h.54688l.20312-.4375c.26563-.59375.5625-.90625 1.5-.90625h5.67188c-.20313.76562-.60938 1.96875-2.29688 4.40625-1.8125 2.59375-3 4.9375-3 7.40625C3.5.09374 4 .25 4.64063.25 5.25.25 5.6875.0625 5.67188-.53125 5.5625-3.29687 6.125-5.5625 7.23438-7.5c1.34375-2.34375 2.45312-3.67187 3.1875-6.29687l-.17188-.21875H1.51563Zm0 0"/><path id="e" d="M2.28125 0h6.89063v-.60937L7.40625-.76563c-.4375-.03124-.6875-.1875-.6875-1.01562v-12.375l-.10937-.10937-4.32813.73437v.51563l1.96875.25c.34375.03125.48438.1875.48438.79687v10.1875c0 .39063-.04688.64063-.17188.79688-.125.15624-.29687.20312-.51562.21874l-1.76563.15626Zm0 0"/><path id="f" d="M.84375-2.14062C.84375-1.1875 2.32813.25 5.04688.25 8.5.25 10.0625-1.85937 10.0625-4.51562c0-2.9375-1.82812-4.4375-4.32812-4.4375-1.15625 0-2.40625.48437-3.07813 1.09375L2.64063-7.875l.46875-3.9375c.0625-.53125.1875-.60937.59375-.60937H8.9375l.5-1.42188-.10937-.17187h-7l-.20313.1875-.42187 7.01562.5.26563c.875-1 1.73437-1.48438 2.85937-1.48438 1.34375 0 2.8125.96875 2.8125 3.75 0 2.15625-.85937 3.79688-2.6875 3.79688-1.48437 0-2.21875-1.0625-2.64062-2.26563-.10938-.3125-.3125-.51562-.60938-.51562-.42187 0-1.09375.4375-1.09375 1.125m0 0"/><path id="g" d="M.5625-.20312.78125 0h8.6875l.71875-2.76562-.59375-.10938c-.4375 1.14063-.85937 1.29688-1.71875 1.29688H2.51563c.34375-1.09375 1.59375-2.59375 3.53125-4C8.0625-7.0625 9.625-8 9.625-10.34375c0-2.92187-1.9375-3.92187-4.15625-3.92187-2.875 0-4.35937 1.73437-4.35937 2.82812 0 .71875.8125 1.0625 1.17187 1.0625.375 0 .51563-.23437.59375-.59375.34375-1.42187 1.17188-2.5625 2.46875-2.5625 1.59375 0 2.0625 1.34375 2.0625 2.875 0 2.26563-1.125 3.53125-2.96875 5.14063-2.57812 2.25-3.48437 3.6875-3.875 5.3125m0 0"/><path id="i" d="M.76563-9.59375c0 2.625 1.875 3.96875 4.03125 3.96875 1.29687 0 2.39062-.73437 3.10937-1.76562h.04688c0 1.3125-.09375 3.01562-.46875 4.46875-.39063 1.375-1.125 2.4375-2.45313 2.4375-1.4375 0-1.96875-1.125-2.28125-2.10938-.09375-.26562-.23437-.42187-.57812-.42187-.40625 0-.98438.42187-.98438 1.07812C1.1875-1.03125 2.28125.25 4.82813.25 6.51563.25 7.8125-.375 8.625-1.5 9.48438-2.70312 10-4.53125 10-7.5625c0-2.625-.51562-4.3125-1.34375-5.29687-.79687-.9375-1.9375-1.40625-3.28125-1.40625-2.67187 0-4.60937 1.76562-4.60937 4.67187m2.09375-.59375c0-1.92187.875-3.34375 2.5-3.34375 1.67187 0 2.5 1.98438 2.5 4.01563 0 .35937-.01563.78125-.15625 1.125C7.375-7.40625 6.54688-6.75 5.42188-6.75c-1.625 0-2.5625-1.42187-2.5625-3.4375m0 0"/></defs><use xlink:href="#a" x="7.59854" y="80.0222"/><path fill="none" stroke="#000" stroke-miterlimit="10" stroke-width=".89214" d="M7.59766 86.72266h61.77343"/><use xlink:href="#b" x="34.59149" y="26.42633"/><use xlink:href="#c" x="32.92376" y="53.22427"/><use xlink:href="#d" x="53.5138" y="53.22427"/><use xlink:href="#e" x="32.92376" y="80.0222"/><use xlink:href="#f" x="53.5138" y="80.0222"/><use xlink:href="#f" x="32.92376" y="106.82013"/><use xlink:href="#g" x="53.5138" y="106.82013"/><use xlink:href="#h" x="261.76036" y="66.62137"/><path fill="none" stroke="#000" stroke-miterlimit="10" stroke-width=".89214" d="M261.76172 73.32031h61.76953"/><use xlink:href="#b" x="302.13771" y="39.82343"/><use xlink:href="#b" x="281.54667" y="66.62137"/><use xlink:href="#f" x="287.08559" y="39.82343"/><use xlink:href="#g" x="307.67562" y="39.82343"/><use xlink:href="#g" x="287.08559" y="66.62137"/><use xlink:href="#i" x="307.67562" y="66.62137"/><use xlink:href="#g" x="287.08559" y="93.42154"/><use xlink:href="#c" x="307.67562" y="93.42154"/></svg>