<svg xmlns="http://www.w3.org/2000/svg" xmlns:xlink="http://www.w3.org/1999/xlink" width="141.88pt" height="139.808pt" viewBox="0 0 141.88 139.808"><defs><path id="a" d="M.5-1.90625c0 .79688 1.29688 2.125 3.9375 2.125 2.70313 0 4.40625-1.375 4.40625-3.76562 0-2.5-2.14062-3.23438-3.17187-3.32813v-.09375c1.01562-.15625 2.625-.90625 2.625-2.75 0-2.07812-1.60938-2.98437-3.625-2.98437C2.20313-12.70312 1-11.28125 1-10.48437c0 .57812.65625.89062.90625.89062.23438 0 .375-.125.45313-.375.42187-1.26562 1.125-2.07812 2.17187-2.07812 1.46875 0 1.85938 1.28125 1.85938 2.34375 0 1.10937-.40625 2.51562-2 2.51562-.89063 0-1.40625-.17187-1.625-.17187-.23438 0-.34375.17187-.34375.51562 0 .3125.10937.51563.34375.51563.21875 0 .73437-.17188 1.625-.17188C5.98438-6.5 6.875-5.07812 6.875-3.4375c0 2.21875-1.09375 3-2.42187 3-1.23438 0-2.04688-.92187-2.40625-1.96875-.125-.35937-.29688-.53125-.5625-.53125C1.15625-2.9375.5-2.57812.5-1.90625m0 0"/><path id="b" d="M.78125-6.25C.78125-2.5 1.875.21875 4.95313.21875S9.15625-2.5 9.15625-6.25c0-3.73437-1.125-6.45312-4.20312-6.45312S.78125-9.98437.78125-6.25m1.89063 0c0-3.03125.51562-5.79687 2.28125-5.79687 1.76562 0 2.28125 2.76562 2.28125 5.79687 0 3.04688-.51563 5.8125-2.28125 5.8125-1.76563 0-2.28125-2.76562-2.28125-5.8125m0 0"/><path id="d" d="M2.03125 0h6.14063v-.53125l-1.5625-.14062c-.40625-.04688-.625-.1875-.625-.92188v-11.01562l-.09375-.09375-3.85938.65625v.45312l1.75.21875c.3125.03125.4375.17188.4375.71875v9.0625c0 .35938-.04687.57813-.15625.71875-.10937.14063-.26562.17188-.46875.20313l-1.5625.14062Zm0 0"/><path id="e" d="M.78125-3.40625c0 1.89063 1.14063 3.625 4.17188 3.625 3.01562 0 4.17187-1.73437 4.17187-3.625 0-1.90625-1.1875-3-2.46875-3.29687V-6.75c1.14063-.29687 2.0625-1.25 2.0625-2.78125 0-2.03125-1.625-3.17187-3.76562-3.17187-2.15625 0-3.76563 1.14062-3.76563 3.17187C1.1875-8 2.14063-7.04687 3.26563-6.75v.04688C2.01563-6.40625.78125-5.3125.78125-3.40625m1.85938.0625c0-1.70312.82812-2.98437 2.3125-2.98437 1.48437 0 2.3125 1.28125 2.3125 2.98437 0 1.65625-.73438 2.90625-2.3125 2.90625-1.57813 0-2.3125-1.25-2.3125-2.90625M3-9.5625c0-1.4375.6875-2.48437 1.95313-2.48437 1.26562 0 1.95312 1.04687 1.95312 2.48437C6.90625-8.29687 6.3125-7 4.95313-7 3.59375-7 3-8.29687 3-9.5625m0 0"/><path id="f" d="M.5-.17187.70313 0H8.4375l.625-2.46875-.51562-.09375c-.39063 1.01563-.76563 1.15625-1.53125 1.15625H2.25c.29688-.98437 1.40625-2.3125 3.14063-3.5625 1.79687-1.3125 3.1875-2.15625 3.1875-4.23437 0-2.60938-1.73438-3.5-3.70313-3.5-2.5625 0-3.875 1.54687-3.875 2.51562 0 .64063.70313.9375 1.03125.9375.32813 0 .45313-.20312.53125-.51562.29688-1.28125 1.03125-2.28125 2.1875-2.28125 1.4375 0 1.85938 1.1875 1.85938 2.5625 0 2-1.01563 3.14062-2.65625 4.57812C1.65625-2.90625.85938-1.625.5-.17187m0 0"/><path id="g" d="M.8125-5.76562c0 4.03125 1.46875 5.98437 4.28125 5.98437C7.85938.21875 9.32813-1.45312 9.32813-4c0-2.53125-1.54688-3.89062-3.5625-3.89062-1.46875 0-2.5625.98437-3.0625 1.60937h-.03125c.01562-4.125 1.1875-5.76562 2.875-5.76562.85937 0 1.46875.70312 1.75 1.78125.0625.21875.20312.40625.48437.40625.40625 0 .98438-.34375.98438-.85938 0-.76562-.90625-1.98437-3.15625-1.98437-2.96875 0-4.79688 2.28125-4.79688 6.9375m1.89063 1.34375c0-1.125.85937-2.51563 2.42187-2.51563 1.1875 0 2.32813 1.0625 2.32813 3.21875 0 1.96875-.75 3.28125-2.32813 3.28125-1.625 0-2.42187-1.73437-2.42187-3.98437m0 0"/><path id="c" d="M1.59375-4.73437H11.875v-1.09375H1.59375Zm0 0"/></defs><path fill="none" stroke="#000" stroke-miterlimit="10" stroke-width=".79491" d="M25.01563 16.1836V6.6328m0 .00001h36.6914m0 9.55079V6.6328"/><use xlink:href="#a" x="29.23428" y="30.5091"/><use xlink:href="#b" x="47.58019" y="30.5091"/><use xlink:href="#b" x="65.9261" y="30.5091"/><use xlink:href="#c" x="6.66926" y="54.38631"/><path fill="none" stroke="#000" stroke-miterlimit="10" stroke-width=".79491" d="M25.01563 60.35547h36.6914"/><use xlink:href="#d" x="29.23428" y="54.38631"/><use xlink:href="#e" x="47.58019" y="54.38631"/><use xlink:href="#d" x="29.23428" y="78.26552"/><use xlink:href="#f" x="47.58019" y="78.26552"/><use xlink:href="#b" x="65.9261" y="78.26552"/><use xlink:href="#c" x="6.66926" y="102.14273"/><path fill="none" stroke="#000" stroke-miterlimit="10" stroke-width=".79491" d="M25.01563 108.11328h55.03905"/><use xlink:href="#d" x="29.23428" y="102.14273"/><use xlink:href="#b" x="47.58019" y="102.14273"/><use xlink:href="#e" x="65.9261" y="102.14273"/><use xlink:href="#d" x="47.57908" y="126.01994"/><use xlink:href="#f" x="65.92499" y="126.01994"/><path fill="none" stroke="#000" stroke-miterlimit="10" stroke-width=".79491" d="M89.22656 132.98438V6.63282m0 22.8828h45.86328"/><use xlink:href="#d" x="102.6175" y="23.54467"/><use xlink:href="#e" x="120.96341" y="23.54467"/><use xlink:href="#d" x="102.6175" y="47.42188"/><use xlink:href="#g" x="120.96341" y="47.42188"/></svg>