<svg xmlns="http://www.w3.org/2000/svg" xmlns:xlink="http://www.w3.org/1999/xlink" width="76.945pt" height="122.539pt" viewBox="0 0 76.945 122.539"><defs><path id="a" d="M.5625-2.14062C.5625-1.25 2.01563.25 4.98438.25 8.01563.25 9.9375-1.29687 9.9375-3.96875c0-2.8125-2.40625-3.64062-3.57812-3.75v-.09375C7.5-8 9.3125-8.84375 9.3125-10.92187c0-2.3125-1.8125-3.34375-4.0625-3.34375-2.76562 0-4.14062 1.60937-4.14062 2.5 0 .64062.75 1 1.03125 1 .26562 0 .42187-.15625.51562-.42188.46875-1.42187 1.25-2.34375 2.4375-2.34375 1.65625 0 2.07813 1.45313 2.07813 2.64063 0 1.25-.45313 2.82812-2.23438 2.82812-1 0-1.59375-.20312-1.82812-.20312-.28125 0-.39063.20312-.39063.57812 0 .35938.10938.59375.39063.59375.23437 0 .82812-.20312 1.82812-.20312 1.78125 0 2.78125 1.60937 2.78125 3.4375 0 2.5-1.21875 3.375-2.71875 3.375-1.39062 0-2.29687-1.03125-2.70312-2.21875-.125-.40625-.32813-.59375-.625-.59375-.375 0-1.10938.39062-1.10938 1.15625m0 0"/><path id="b" d="M.875-7.01562C.875-2.8125 2.09375.25 5.5625.25c3.45313 0 4.70313-3.0625 4.70313-7.26562 0-4.1875-1.25-7.25-4.70313-7.25-3.46875 0-4.6875 3.0625-4.6875 7.25m2.10938 0c0-3.40625.59375-6.51563 2.57812-6.51563S8.125-10.42187 8.125-7.01562c0 3.42187-.57812 6.53125-2.5625 6.53125-1.98437 0-2.57812-3.10938-2.57812-6.53125m0 0"/><path id="c" d="M.76563-9.59375c0 2.625 1.875 3.96875 4.03125 3.96875 1.29687 0 2.39062-.73437 3.10937-1.76562h.04688c0 1.3125-.09375 3.01562-.46875 4.46875-.39063 1.375-1.125 2.4375-2.45313 2.4375-1.4375 0-1.96875-1.125-2.28125-2.10938-.09375-.26562-.23437-.42187-.57812-.42187-.40625 0-.98438.42187-.98438 1.07812C1.1875-1.03125 2.28125.25 4.82813.25 6.51563.25 7.8125-.375 8.625-1.5 9.48438-2.70312 10-4.53125 10-7.5625c0-2.625-.51562-4.3125-1.34375-5.29687-.79687-.9375-1.9375-1.40625-3.28125-1.40625-2.67187 0-4.60937 1.76562-4.60937 4.67187m2.09375-.59375c0-1.92187.875-3.34375 2.5-3.34375 1.67187 0 2.5 1.98438 2.5 4.01563 0 .35937-.01563.78125-.15625 1.125C7.375-7.40625 6.54688-6.75 5.42188-6.75c-1.625 0-2.5625-1.42187-2.5625-3.4375m0 0"/><clipPath id="d"><path d="M.11719 59H70v2H.11719Zm0 0"/></clipPath></defs><use xlink:href="#a" x="12.29398" y="26.42633"/><use xlink:href="#b" x="32.88402" y="26.42633"/><use xlink:href="#b" x="53.47406" y="26.42633"/><use xlink:href="#a" x="53.47381" y="53.22427"/><use xlink:href="#c" x="12.29398" y="80.0222"/><use xlink:href="#b" x="32.88402" y="80.0222"/><use xlink:href="#b" x="53.47406" y="80.0222"/><use xlink:href="#c" x="12.29398" y="106.82013"/><use xlink:href="#b" x="32.88402" y="106.82013"/><use xlink:href="#b" x="53.47406" y="106.82013"/><path fill="none" stroke="#000" stroke-miterlimit="10" stroke-width=".89214" d="M7.5586 86.72266h61.77343"/><g clip-path="url(#d)"><path fill="none" stroke="#000" stroke-miterlimit="10" stroke-width=".89214" d="M-13.02734 59.92578h82.35937"/></g></svg>