<svg xmlns="http://www.w3.org/2000/svg" xmlns:xlink="http://www.w3.org/1999/xlink" width="766.151pt" height="177.864pt" viewBox="0 0 766.151 177.864"><defs><path id="b" d="M1.48438-1.07812C1.48438-.3125 2 .25 2.79688.25 3.625.25 4.09375-.3125 4.125-1.07812c0-.78125-.5-1.35938-1.32812-1.35938-.79688 0-1.3125.57813-1.3125 1.35938m0 0"/><path id="e" d="M.45313 0h5.09375v-.60937c-1.45313-.10938-1.5625-.20313-1.5625-1.23438v-4.92187c0-.53125 0-.79688.1875-1.10938.4375-.85937 1.40625-1.54687 2.51562-1.54687 1.4375 0 2.21875.78125 2.21875 2.60937v4.96875c0 1.03125-.10937 1.125-1.57812 1.23438V0h5.125v-.60937C11-.71875 10.875-.8125 10.875-1.84375v-5.35937c0-2.14063-1.15625-3.35938-3.10937-3.35938-1.54688 0-2.48438.73438-3.79688 1.60938V-15.5l-.15625-.10937-3.28125.51562v.54688l.79688.07812C1.85938-14.375 2-14.26562 2-13.5v11.65625C2-.8125 1.92188-.71875.45313-.60937Zm0 0"/><path id="h" d="M.67188 0h5.125v-.60937c-1.5-.10938-1.5625-.15626-1.5625-1.23438v-4.92187c0-.53125 0-.82813.15625-1.10938.40625-.85937 1.3125-1.54687 2.48437-1.54687 1.8125 0 2.03125 1.3125 2.03125 2.60937v4.96875c0 1.07813-.0625 1.125-1.57812 1.23438V0h5.125v-.60937c-1.5-.10938-1.57813-.15626-1.57813-1.23438v-4.92187c0-.53125.03125-.79688.15625-1.14063C11.35938-8.75 12.25-9.42187 13.4375-9.42187c1.3125 0 2.125.73437 2.125 2.60937v4.96875c0 1.07813-.0625 1.125-1.59375 1.23438V0H19.125v-.60937c-1.5-.10938-1.59375-.15626-1.59375-1.23438v-5.35937c0-2.14063-1.14062-3.35938-3.14062-3.35938-1.71875 0-2.95313 1.14063-3.6875 1.60938C10.1875-9.9375 9.375-10.5625 7.90625-10.5625c-1.60937 0-2.9375 1.0625-3.67187 1.60938l-.20313-1.60938-3.25.53125v.51563l.78125.10937c.54688.09375.70313.1875.70313.9375v6.625c0 1.07813-.07813 1.125-1.59375 1.23438Zm0 0"/><path id="i" d="M1.92188-13.76562c0 .75.54687 1.29687 1.29687 1.29687.76563 0 1.28125-.54687 1.28125-1.29687 0-.76563-.51562-1.28125-1.28125-1.28125-.75 0-1.29687.51562-1.29687 1.28125M.67188 0h5.125v-.60937c-1.5-.10938-1.5625-.15626-1.5625-1.23438v-8.59375l-.15625-.125-3.29688.53125v.51563l.78125.10937c.54688.09375.70313.1875.70313.9375v6.625c0 1.07813-.07813 1.125-1.59375 1.23438Zm0 0"/><path id="j" d="M.67188 0h5.125v-.60937c-1.5-.10938-1.5625-.15626-1.5625-1.23438v-4.92187c0-.53125.01562-.79688.20312-1.14063.4375-.82812 1.39063-1.51562 2.5-1.51562 1.4375 0 2.21875.78125 2.21875 2.60937v4.96875c0 1.07813-.0625 1.125-1.59375 1.23438V0h5.15625v-.60937c-1.5-.10938-1.59375-.15626-1.59375-1.23438v-5.35937c0-2.14063-1.15625-3.35938-3.09375-3.35938-1.5625 0-2.51562.75-3.82812 1.60938l-.28125-1.60938-3.14063.53125v.51563l.78125.10937c.54688.09375.70313.1875.70313.9375v6.625c0 1.07813-.07813 1.125-1.59375 1.23438Zm0 0"/><path id="k" d="M1.5625-4.54687h5.15625v-1.46875H1.5625Zm0 0"/><path id="l" d="M.84375-2.15625C.84375-1.1875 2.32813.25 5.0625.25c3.46875 0 5.03125-2.10937 5.03125-4.76562 0-2.96875-1.82812-4.46875-4.34375-4.46875-1.15625 0-2.40625.5-3.07812 1.10937l-.03125-.03125.46875-3.9375c.0625-.53125.20312-.60937.60937-.60937h5.23438l.51562-1.42188-.10937-.1875H2.32813l-.20313.20313-.42187 7.03125.51562.26562c.875-1 1.71875-1.5 2.85938-1.5 1.34375 0 2.82812.98438 2.82812 3.76563C7.90625-2.125 7.03125-.5 5.1875-.5c-1.46875 0-2.20312-1.04687-2.64062-2.25-.10938-.3125-.3125-.51562-.59375-.51562-.4375 0-1.10938.42187-1.10938 1.10937m0 0"/><path id="m" d="M.5625-.20312.78125 0H9.5l.70313-2.78125-.57813-.10937C9.1875-1.75 8.75-1.59375 7.90625-1.59375h-5.375c.32813-1.09375 1.59375-2.59375 3.53125-4 2.01563-1.48437 3.59375-2.42187 3.59375-4.76562 0-2.9375-1.95312-3.95313-4.17187-3.95313-2.89063 0-4.35938 1.75-4.35938 2.84375 0 .71875.79688 1.0625 1.15625 1.0625.39063 0 .51563-.23437.60938-.59375.32812-1.42187 1.15625-2.5625 2.45312-2.5625 1.625 0 2.09375 1.34375 2.09375 2.875 0 2.26563-1.14062 3.54688-2.98437 5.15625C1.85938-3.26562.96875-1.84375.5625-.20312m0 0"/><path id="n" d="M.875-7.03125C.875-2.82812 2.10938.25 5.57813.25s4.71875-3.07812 4.71875-7.28125-1.25-7.28125-4.71875-7.28125S.875-11.23437.875-7.03125m2.125 0c0-3.42187.57813-6.53125 2.57813-6.53125 1.98437 0 2.57812 3.10938 2.57812 6.53125S7.5625-.5 5.57813-.5C3.57813-.5 3-3.60937 3-7.03125m0 0"/><path id="o" d="M.5625-2.15625C.5625-1.25 2.01563.25 5 .25c3.03125 0 4.96875-1.54687 4.96875-4.23437 0-2.82813-2.42187-3.65625-3.59375-3.76563v-.09375c1.14063-.17187 2.96875-1.01562 2.96875-3.10937 0-2.32813-1.82812-3.35938-4.07812-3.35938-2.78125 0-4.14063 1.60938-4.14063 2.51563 0 .64062.73438 1 1.03125 1 .26563 0 .42188-.15625.51563-.42188.46875-1.4375 1.25-2.34375 2.4375-2.34375 1.65625 0 2.07812 1.45313 2.07812 2.64063 0 1.25-.45312 2.84375-2.23437 2.84375-1.01563 0-1.59375-.20313-1.84375-.20313-.26563 0-.375.20313-.375.57813 0 .35937.10937.57812.375.57812.25 0 .82812-.20312 1.84375-.20312 1.78125 0 2.79687 1.625 2.79687 3.45312C7.75-1.35937 6.51563-.5 5.01563-.5 3.625-.5 2.70313-1.51562 2.3125-2.70312c-.14062-.40625-.34375-.60938-.64062-.60938-.375 0-1.10938.40625-1.10938 1.15625m0 0"/><path id="c" d="M2.28125 0h6.92188v-.60937L7.4375-.76563c-.45312-.04687-.70312-.20312-.70312-1.03124v-12.40625L6.625-14.3125l-4.34375.75v.51563L4.25-12.8125c.35938.04688.5.20313.5.8125v10.20313c0 .82812-.20312.98437-.70312 1.03125l-1.76563.15624Zm0 0"/><path id="d" d="M.875-3.82812C.875-1.70312 2.17188.25 5.57813.25s4.70312-1.95312 4.70312-4.07812c0-2.15625-1.34375-3.40625-2.78125-3.73438C8.78125-7.90625 9.8125-9 9.8125-10.71875c0-2.29687-1.8125-3.59375-4.23437-3.59375s-4.23438 1.29688-4.23438 3.59375c0 1.71875 1.07813 2.8125 2.32813 3.15625C2.26563-7.23437.875-5.98437.875-3.82812m2.10938.0625c0-1.92188.90625-3.35938 2.59375-3.35938 1.67187 0 2.59375 1.4375 2.59375 3.35938C8.17188-1.90625 7.34375-.5 5.57813-.5 3.8125-.5 2.98438-1.90625 2.98438-3.76562m.39062-7c0-1.60938.76563-2.79688 2.20313-2.79688s2.1875 1.1875 2.1875 2.79688c0 1.42187-.67188 2.89062-2.1875 2.89062-1.53125 0-2.20313-1.46875-2.20313-2.89062m0 0"/><path id="f" d="M.5625-.20312.78125 0H9.5l.70313-2.78125-.57813-.10937C9.1875-1.75 8.75-1.59375 7.90625-1.59375h-5.375c.32813-1.09375 1.59375-2.59375 3.53125-4 2.01563-1.48437 3.59375-2.42187 3.59375-4.76562 0-2.9375-1.95312-3.95313-4.17187-3.95313-2.89063 0-4.35938 1.75-4.35938 2.84375 0 .71875.79688 1.0625 1.15625 1.0625.39063 0 .51563-.23437.60938-.59375.32812-1.42187 1.15625-2.5625 2.45312-2.5625 1.625 0 2.09375 1.34375 2.09375 2.875 0 2.26563-1.14062 3.54688-2.98437 5.15625C1.85938-3.26562.96875-1.84375.5625-.20312m0 0"/><path id="g" d="M.875-7.03125C.875-2.82812 2.10938.25 5.57813.25s4.71875-3.07812 4.71875-7.28125-1.25-7.28125-4.71875-7.28125S.875-11.23437.875-7.03125m2.125 0c0-3.42187.57813-6.53125 2.57813-6.53125 1.98437 0 2.57812 3.10938 2.57812 6.53125S7.5625-.5 5.57813-.5C3.57813-.5 3-3.60937 3-7.03125m0 0"/><clipPath id="a"><path d="M747 35h18.30469v26H747Zm0 0"/></clipPath></defs><path fill="none" stroke="#000" stroke-miterlimit="10" stroke-width=".79613" d="M.39844 47.63281h758.34758"/><path d="M762.90234 47.63281c-.5078-.10547-2.7539-.70703-4.15625-1.36328v2.72656c1.40235-.65625 3.64844-1.2578 4.15625-1.36328m0 0"/><g clip-path="url(#a)"><path fill="none" stroke="#000" stroke-miterlimit="10" stroke-width=".79613" d="M762.90234 47.63281c-.5078-.10547-2.7539-.70703-4.15625-1.36328v2.72656c1.40235-.65625 3.64844-1.2578 4.15625-1.36328Zm0 0"/></g><path fill="none" stroke="#000" stroke-miterlimit="10" stroke-width=".79613" d="M153.30077 63.5586V31.70312"/><use xlink:href="#b" x="96.32551" y="23.09995"/><use xlink:href="#b" x="106.1776" y="23.09995"/><use xlink:href="#b" x="116.0297" y="23.09995"/><use xlink:href="#b" x="125.8818" y="23.09995"/><use xlink:href="#b" x="135.73389" y="23.09995"/><use xlink:href="#b" x="145.58599" y="23.09995"/><use xlink:href="#b" x="155.43809" y="23.09995"/><use xlink:href="#b" x="165.29018" y="23.09995"/><use xlink:href="#b" x="175.14228" y="23.09995"/><use xlink:href="#b" x="184.99437" y="23.09995"/><use xlink:href="#b" x="194.84647" y="23.09995"/><use xlink:href="#b" x="204.69857" y="23.09995"/><path fill="none" stroke="#000" stroke-miterlimit="10" stroke-width=".79613" d="M306.2031 63.5586V31.70312"/><use xlink:href="#b" x="249.22582" y="23.09995"/><use xlink:href="#b" x="259.07792" y="23.09995"/><use xlink:href="#b" x="268.93002" y="23.09995"/><use xlink:href="#b" x="278.78211" y="23.09995"/><use xlink:href="#b" x="288.63421" y="23.09995"/><use xlink:href="#b" x="298.4863" y="23.09995"/><use xlink:href="#b" x="308.3384" y="23.09995"/><use xlink:href="#b" x="318.1905" y="23.09995"/><use xlink:href="#b" x="328.04259" y="23.09995"/><use xlink:href="#b" x="337.89469" y="23.09995"/><use xlink:href="#b" x="347.74678" y="23.09995"/><use xlink:href="#b" x="357.59888" y="23.09995"/><path fill="none" stroke="#000" stroke-miterlimit="10" stroke-width=".79613" d="M459.10543 63.5586V31.70312"/><use xlink:href="#b" x="402.12864" y="23.09995"/><use xlink:href="#b" x="411.98073" y="23.09995"/><use xlink:href="#b" x="421.83283" y="23.09995"/><use xlink:href="#b" x="431.68493" y="23.09995"/><use xlink:href="#b" x="441.53702" y="23.09995"/><use xlink:href="#b" x="451.38912" y="23.09995"/><use xlink:href="#b" x="461.24121" y="23.09995"/><use xlink:href="#b" x="471.09331" y="23.09995"/><use xlink:href="#b" x="480.94541" y="23.09995"/><use xlink:href="#b" x="490.7975" y="23.09995"/><use xlink:href="#b" x="500.6496" y="23.09995"/><use xlink:href="#b" x="510.50169" y="23.09995"/><path fill="none" stroke="#000" stroke-miterlimit="10" stroke-width=".79613" d="M612.01166 63.5586V31.70312"/><use xlink:href="#c" x="556.96681" y="23.09995"/><use xlink:href="#d" x="568.11759" y="23.09995"/><use xlink:href="#e" x="583.99311" y="23.09995"/><use xlink:href="#f" x="601.47873" y="23.09995"/><use xlink:href="#g" x="612.62951" y="23.09995"/><use xlink:href="#h" x="628.50503" y="23.09995"/><use xlink:href="#i" x="647.91814" y="23.09995"/><use xlink:href="#j" x="654.03092" y="23.09995"/><use xlink:href="#k" x="196.06274" y="112.37003"/><use xlink:href="#l" x="209.0272" y="112.37003"/><use xlink:href="#h" x="224.90251" y="112.37003"/><use xlink:href="#i" x="244.31562" y="112.37003"/><use xlink:href="#j" x="250.42839" y="112.37003"/><use xlink:href="#k" x="343.38848" y="112.37003"/><use xlink:href="#m" x="356.35294" y="112.37003"/><use xlink:href="#n" x="367.50372" y="112.37003"/><use xlink:href="#h" x="383.37903" y="112.37003"/><use xlink:href="#i" x="402.79214" y="112.37003"/><use xlink:href="#j" x="408.90492" y="112.37003"/><use xlink:href="#k" x="514.75059" y="112.64972"/><use xlink:href="#o" x="527.71505" y="112.64972"/><use xlink:href="#e" x="543.59036" y="112.64972"/><use xlink:href="#k" x="326.70696" y="169.98818"/><use xlink:href="#o" x="339.67143" y="169.98818"/><use xlink:href="#e" x="355.54674" y="169.98818"/><use xlink:href="#m" x="373.03421" y="169.98818"/><use xlink:href="#l" x="384.18499" y="169.98818"/><use xlink:href="#h" x="400.0603" y="169.98818"/><use xlink:href="#i" x="419.47341" y="169.98818"/><use xlink:href="#j" x="425.58618" y="169.98818"/><path fill="none" stroke="#000" stroke-miterlimit="10" stroke-width=".79613" d="M612.01166 69.92968C553.28901 80.28515 517.82808 80.28515 465.18356 71"/><path stroke="#000" stroke-miterlimit="10" stroke-width=".79612" d="M461.08594 70.28125c.48437.1914 2.59375 1.17578 3.85937 2.0625l.47657-2.6836c-1.4961.40235-3.8125.60547-4.33594.6211Zm0 0"/><path fill="none" stroke="#000" stroke-miterlimit="10" stroke-width=".79613" d="M459.10543 69.92968C400.38668 80.28515 364.92575 80.28515 312.28123 71"/><path stroke="#000" stroke-miterlimit="10" stroke-width=".79612" d="M308.1836 70.28125c.48437.1914 2.59374 1.17578 3.85937 2.0625l.47265-2.6836c-1.49218.40235-3.80859.60547-4.33203.6211Zm0 0"/><path fill="none" stroke="#000" stroke-miterlimit="10" stroke-width=".79613" d="M306.2031 69.92968C247.48045 80.28515 212.02342 80.28515 159.37498 71"/><path stroke="#000" stroke-miterlimit="10" stroke-width=".79612" d="M155.28125 70.28125c.48437.1914 2.58984 1.17578 3.85938 2.0625l.47265-2.6836c-1.4961.40235-3.8125.60547-4.33203.6211Zm0 0"/><path fill="none" stroke="#000" stroke-miterlimit="10" stroke-width=".79613" d="M612.01166 111.33984c-176.16795 31.0625-282.54294 31.0625-452.63668 1.07422"/><path stroke="#000" stroke-miterlimit="10" stroke-width=".79612" d="M155.28125 111.6914c.48437.19141 2.58984 1.17579 3.85938 2.0625l.47265-2.68359c-1.4961.40235-3.8125.60547-4.33203.6211Zm0 0"/></svg>