<svg xmlns="http://www.w3.org/2000/svg" xmlns:xlink="http://www.w3.org/1999/xlink" width="180.282" height="211.082" viewBox="0 0 180.282 211.082"><defs><path id="a" d="M.92188-6.46875C.92188-1.9375 2.5625.25 5.71875.25c3.09375 0 4.75-1.875 4.75-4.73437 0-2.82813-1.75-4.375-4-4.375-1.65625 0-2.875 1.10937-3.4375 1.8125h-.04687c.03125-4.625 1.34375-6.46875 3.23437-6.46875.96875 0 1.65625.79687 1.96875 2 .0625.25.21875.45312.53125.45312.46875 0 1.125-.39062 1.125-.96875 0-.84375-1.03125-2.21875-3.54687-2.21875-3.32813 0-5.375 2.5625-5.375 7.78125m2.10937 1.51563C3.03125-6.21875 4-7.78125 5.75-7.78125c1.32813 0 2.60938 1.20313 2.60938 3.60938 0 2.20312-.84375 3.6875-2.60938 3.6875-1.82812 0-2.71875-1.95313-2.71875-4.46875m0 0"/><path id="b" d="M.5625-.20312.78125 0h8.67188l.71875-2.76562-.57813-.10938c-.45312 1.14063-.875 1.29688-1.71875 1.29688H2.51563c.34375-1.09375 1.59375-2.59375 3.53125-4 2.01562-1.46875 3.5625-2.40625 3.5625-4.75 0-2.92188-1.9375-3.92188-4.14063-3.92188-2.875 0-4.35937 1.73438-4.35937 2.82813 0 .71875.8125 1.04687 1.17187 1.04687.375 0 .5-.21875.59375-.57812.34375-1.4375 1.15625-2.5625 2.45313-2.5625 1.60937 0 2.07812 1.32812 2.07812 2.875 0 2.25-1.14062 3.51562-2.96875 5.125C1.85938-3.25.95313-1.82812.5625-.20312m0 0"/><path id="c" d="M2.28125 0h6.89063v-.60937L7.40625-.76563c-.4375-.03124-.6875-.1875-.6875-1.01562v-12.35937L6.60938-14.25l-4.32813.73438v.5l1.95313.25c.35937.04687.5.20312.5.8125v10.17187c0 .39063-.04688.64063-.1875.79688-.10938.15624-.28125.20312-.51563.21874l-1.75.15626Zm0 0"/><path id="e" d="M.875-7C.875-2.8125 2.09375.25 5.5625.25c3.45313 0 4.70313-3.0625 4.70313-7.25 0-4.20312-1.25-7.25-4.70313-7.25C2.09375-14.25.875-11.20312.875-7m2.10938 0c0-3.42187.57812-6.51562 2.57812-6.51562 1.98438 0 2.5625 3.09375 2.5625 6.51562 0 3.40625-.57812 6.51563-2.5625 6.51563-2 0-2.57812-3.10938-2.57812-6.51563m0 0"/><path id="f" d="M.5625-2.14062C.5625-1.25 2.01563.25 4.96875.25c3.04688 0 4.95313-1.54687 4.95313-4.21875 0-2.8125-2.40625-3.64062-3.5625-3.75v-.09375c1.14062-.17187 2.9375-1.01562 2.9375-3.09375C9.29688-13.23437 7.5-14.25 5.25-14.25c-2.76562 0-4.14062 1.59375-4.14062 2.48438 0 .65625.75 1.01562 1.03125 1.01562.26562 0 .42187-.15625.51562-.42187.46875-1.4375 1.25-2.34375 2.4375-2.34375 1.64063 0 2.0625 1.4375 2.0625 2.625 0 1.25-.4375 2.82812-2.21875 2.82812-1.01562 0-1.59375-.1875-1.84375-.1875-.26562 0-.375.1875-.375.57813 0 .35937.10938.57812.375.57812.25 0 .82813-.20312 1.84375-.20312 1.78125 0 2.78125 1.60937 2.78125 3.4375 0 2.5-1.21875 3.375-2.71875 3.375-1.39062 0-2.29687-1.03125-2.70312-2.21875-.125-.39063-.32813-.59375-.625-.59375-.375 0-1.10938.39062-1.10938 1.15625m0 0"/><path id="g" d="M.875-11.0625h.54688l.20312-.45312c.26563-.57813.5625-.89063 1.5-.89063h5.67188C8.59375-11.64062 8.1875-10.4375 6.5-8.01562c-1.8125 2.59375-3 4.9375-3 7.40625C3.5.09374 4 .25 4.64063.25 5.25.25 5.6875.0625 5.67188-.53125 5.5625-3.29687 6.10938-5.5625 7.23438-7.5c1.32812-2.34375 2.45312-3.65625 3.1875-6.29687l-.1875-.21875H1.51563Zm0 0"/><path id="d" d="M1.78125-5.3125h11.54688v-1.21875H1.78125Zm0 0"/></defs><path fill="none" stroke="#000" stroke-miterlimit="10" stroke-width=".89162" d="M28.05078 18.15234V7.4375m0 0h20.57813m-.00001 10.71484V7.4375"/><use xlink:href="#a" x="32.78196" y="34.22142"/><use xlink:href="#b" x="53.35996" y="34.22142"/><use xlink:href="#c" x="73.93796" y="34.22142"/><use xlink:href="#d" x="7.47153" y="61.00369"/><path fill="none" stroke="#000" stroke-miterlimit="10" stroke-width=".89162" d="M28.05078 67.69922h20.57813"/><use xlink:href="#a" x="32.78196" y="61.00369"/><use xlink:href="#e" x="32.78196" y="87.78597"/><use xlink:href="#b" x="53.35996" y="87.78597"/><use xlink:href="#d" x="7.47153" y="114.57048"/><path fill="none" stroke="#000" stroke-miterlimit="10" stroke-width=".89162" d="M28.05078 121.26563h41.15625"/><use xlink:href="#e" x="53.35872" y="114.57048"/><use xlink:href="#b" x="53.35872" y="141.35275"/><use xlink:href="#c" x="73.93672" y="141.35275"/><use xlink:href="#d" x="28.05053" y="168.13503"/><path fill="none" stroke="#000" stroke-miterlimit="10" stroke-width=".89162" d="M48.6289 174.83203h41.15235"/><use xlink:href="#b" x="53.35872" y="168.13503"/><use xlink:href="#c" x="73.93672" y="168.13503"/><use xlink:href="#e" x="73.93772" y="194.9173"/><path fill="none" stroke="#000" stroke-miterlimit="10" stroke-width=".89162" d="M100.07422 202.73047V7.4375m0 25.66797h72.01953"/><use xlink:href="#f" x="115.09348" y="26.40964"/><use xlink:href="#b" x="115.09348" y="53.19192"/><use xlink:href="#e" x="135.67148" y="53.19192"/><use xlink:href="#g" x="156.24949" y="53.19192"/></svg>