<svg xmlns="http://www.w3.org/2000/svg" xmlns:xlink="http://www.w3.org/1999/xlink" width="191.859pt" height="70.8pt" viewBox="0 0 191.859 70.8"><defs><path id="a" d="M1.03125-3.07812h2.98438v2.98437h.71875v-2.98437h2.98437v-.70313H4.73438v-2.98437h-.71875v2.98437H1.03125Zm0 0"/><path id="h" d="M1.03125-3.07812h6.6875v-.70313h-6.6875Zm0 0"/><path id="b" d="M.92188 0h2.79687v-.25L3-.3125c-.17187-.01562-.28125-.07812-.28125-.40625v-5.01562l-.04687-.04688-1.75.29688v.20312l.79687.10938c.14063.01562.20313.07812.20313.32812v4.125c0 .15625-.01563.25-.07813.32813-.04687.0625-.10937.07812-.20312.07812L.92188-.25Zm0 0"/><path id="c" d="M.32813-1.23437c0 .51562.82812 1.375 2.54687 1.375 1.76563 0 2.875-.89063 2.875-2.4375 0-1.625-1.39062-2.10938-2.0625-2.17188v-.04687c.65625-.10938 1.70313-.59375 1.70313-1.79688 0-1.34375-1.04688-1.9375-2.35938-1.9375-1.59375 0-2.39062.92188-2.39062 1.4375 0 .375.4375.57813.59375.57813.15624 0 .25-.07813.29687-.23438.28125-.82812.73438-1.35937 1.42188-1.35937.95312 0 1.1875.84375 1.1875 1.51562 0 .73438-.25 1.64063-1.28125 1.64063-.57813 0-.92188-.10938-1.0625-.10938-.15626 0-.21876.10938-.21876.34375 0 .20313.0625.32813.21876.32813.14062 0 .48437-.10938 1.0625-.10938 1.03125 0 1.60937.92188 1.60937 1.98438 0 1.45312-.70312 1.95312-1.57812 1.95312-.79688 0-1.32813-.59375-1.5625-1.28125-.07813-.23437-.1875-.34375-.35938-.34375-.21875 0-.64062.21875-.64062.67188m0 0"/><path id="d" d="M.5-6.40625h.32813l.10937-.26562c.15625-.32813.32813-.51563.875-.51563h3.28125c-.125.4375-.34375 1.14063-1.32812 2.54688-1.04688 1.5-1.73438 2.85937-1.73438 4.29687 0 .39063.28125.48438.65625.48438.34375 0 .60938-.10938.59375-.45313-.0625-1.59375.26563-2.90625.90625-4.03125.78125-1.35937 1.42188-2.10937 1.84375-3.64062l-.09375-.125H.875Zm0 0"/><path id="e" d="M1.3125 0h4v-.34375L4.29688-.4375c-.26563-.03125-.40625-.125-.40625-.59375V-8.1875l-.0625-.0625-2.51563.42188v.29687l1.14063.14063c.20312.03125.28125.10937.28125.46875v5.89062c0 .23438-.01563.375-.09375.46875-.0625.07813-.17188.10938-.29688.125L1.3125-.34375Zm0 0"/><path id="f" d="M.48438-1.23437c0 .54687.85937 1.375 2.4375 1.375 2 0 2.90625-1.21875 2.90625-2.75 0-1.70313-1.0625-2.57813-2.5-2.57813-.67188 0-1.40625.29688-1.79688.64063v-.01563l.26563-2.26562c.03124-.3125.10937-.35938.34375-.35938h3.03125l.29687-.82812-.0625-.09375h-4.0625L1.23438-8l-.25 4.0625.29687.15625c.5-.59375 1-.875 1.65625-.875.76563 0 1.625.57813 1.625 2.17188 0 1.25-.5 2.20312-1.5625 2.20312-.85937 0-1.28125-.60937-1.53125-1.3125-.0625-.17187-.17187-.29687-.34375-.29687-.25 0-.64062.25-.64062.65625m0 0"/><path id="g" d="M.32813-.10937.45313 0h5.03125l.40625-1.60937-.32813-.0625c-.26562.65625-.51562.75-1 .75H1.45313c.20312-.625.92187-1.5 2.04687-2.3125 1.17188-.84375 2.0625-1.39063 2.0625-2.75 0-1.6875-1.125-2.26563-2.39062-2.26563C1.5-8.25.64063-7.25.64063-6.60937c0 .40625.46875.59375.67187.59375.21875 0 .29688-.125.35938-.32813.1875-.82812.67187-1.48437 1.42187-1.48437.92188 0 1.20313.76562 1.20313 1.67187 0 1.29688-.67188 2.03125-1.71875 2.96875-1.5 1.29688-2.01563 2.125-2.25 3.07813m0 0"/><path id="i" d="M.4375-5.5625c0 1.53125 1.09375 2.3125 2.34375 2.3125.75 0 1.375-.4375 1.79688-1.03125h.01562c0 .76563-.04687 1.75-.26562 2.59375-.21875.79688-.64063 1.40625-1.42188 1.40625-.82812 0-1.14062-.65625-1.3125-1.21875-.0625-.15625-.14062-.25-.34375-.25-.23437 0-.5625.25-.5625.625 0 .53125.625 1.26563 2.10938 1.26563.96875 0 1.71875-.35938 2.1875-1 .5-.70313.79687-1.76563.79687-3.51563 0-1.51562-.29687-2.5-.76562-3.0625-.46875-.54687-1.125-.8125-1.90625-.8125C1.5625-8.25.4375-7.23437.4375-5.5625m1.21875-.32812c0-1.10938.5-1.9375 1.4375-1.9375.98438 0 1.45313 1.14062 1.45313 2.32812 0 .20313-.01563.45313-.09375.64063-.1875.5625-.67188.95312-1.3125.95312-.9375 0-1.48438-.82812-1.48438-1.98437m0 0"/></defs><use xlink:href="#a" x="4.50476" y="46.27777"/><path fill="none" stroke="#000" stroke-miterlimit="10" stroke-width=".51594" d="M4.5039 50.15234h35.72266"/><use xlink:href="#b" x="20.11527" y="15.28233"/><use xlink:href="#c" x="19.14949" y="30.78005"/><use xlink:href="#d" x="31.05708" y="30.78005"/><use xlink:href="#e" x="19.14949" y="46.27777"/><use xlink:href="#f" x="31.05708" y="46.27777"/><use xlink:href="#f" x="19.14949" y="61.77549"/><use xlink:href="#g" x="31.05708" y="61.77549"/><use xlink:href="#h" x="151.49155" y="38.52866"/><path fill="none" stroke="#000" stroke-miterlimit="10" stroke-width=".51594" d="M151.49219 42.40234h35.72265"/><use xlink:href="#b" x="174.84119" y="23.03094"/><use xlink:href="#b" x="162.93302" y="38.52866"/><use xlink:href="#f" x="166.13628" y="23.03094"/><use xlink:href="#g" x="178.04386" y="23.03094"/><use xlink:href="#g" x="166.13628" y="38.52866"/><use xlink:href="#i" x="178.04386" y="38.52866"/><use xlink:href="#g" x="166.13628" y="54.02638"/><use xlink:href="#c" x="178.04386" y="54.02638"/></svg>