<svg id="Capa_1" enable-background="new 0 0 512 512" height="512" viewBox="0 0 512 512" width="512" xmlns="http://www.w3.org/2000/svg"><g><g fill="#596c76"><path d="m256 27.359c-4.142 0-7.5-3.358-7.5-7.5v-12.359c0-4.142 3.358-7.5 7.5-7.5s7.5 3.358 7.5 7.5v12.359c0 4.142-3.358 7.5-7.5 7.5z"/><path d="m256 81.208c-4.142 0-7.5-3.358-7.5-7.5v-12.359c0-4.142 3.358-7.5 7.5-7.5s7.5 3.358 7.5 7.5v12.359c0 4.143-3.358 7.5-7.5 7.5z"/><path d="m256 135.057c-4.142 0-7.5-3.358-7.5-7.5v-12.359c0-4.142 3.358-7.5 7.5-7.5s7.5 3.358 7.5 7.5v12.359c0 4.142-3.358 7.5-7.5 7.5z"/><path d="m256 188.906c-4.142 0-7.5-3.358-7.5-7.5v-12.359c0-4.142 3.358-7.5 7.5-7.5s7.5 3.358 7.5 7.5v12.359c0 4.142-3.358 7.5-7.5 7.5z"/><path d="m256 242.755c-4.142 0-7.5-3.358-7.5-7.5v-12.359c0-4.142 3.358-7.5 7.5-7.5s7.5 3.358 7.5 7.5v12.359c0 4.142-3.358 7.5-7.5 7.5z"/><path d="m256 296.604c-4.142 0-7.5-3.358-7.5-7.5v-12.359c0-4.142 3.358-7.5 7.5-7.5s7.5 3.358 7.5 7.5v12.359c0 4.142-3.358 7.5-7.5 7.5z"/><path d="m256 350.453c-4.142 0-7.5-3.358-7.5-7.5v-12.359c0-4.142 3.358-7.5 7.5-7.5s7.5 3.358 7.5 7.5v12.359c0 4.142-3.358 7.5-7.5 7.5z"/><path d="m256 404.302c-4.142 0-7.5-3.358-7.5-7.5v-12.359c0-4.142 3.358-7.5 7.5-7.5s7.5 3.358 7.5 7.5v12.359c0 4.142-3.358 7.5-7.5 7.5z"/><path d="m256 458.151c-4.142 0-7.5-3.358-7.5-7.5v-12.359c0-4.142 3.358-7.5 7.5-7.5s7.5 3.358 7.5 7.5v12.359c0 4.142-3.358 7.5-7.5 7.5z"/><path d="m256 512c-4.142 0-7.5-3.358-7.5-7.5v-12.359c0-4.142 3.358-7.5 7.5-7.5s7.5 3.358 7.5 7.5v12.359c0 4.142-3.358 7.5-7.5 7.5z"/></g><g><path d="m389.82 257.999-86.978 108.317 39.992 63.694c19.057 30.352 59.263 39.244 89.343 19.76 29.009-18.79 37.955-57.163 20.246-86.844z" fill="#8993da"/><path d="m452.423 362.926-62.603-104.927-17.212 21.434 49.815 83.493c17.709 29.682 8.763 68.054-20.246 86.844-6.283 4.069-13.009 6.884-19.89 8.541 16.492 3.948 34.512 1.42 49.89-8.541 29.009-18.79 37.955-57.162 20.246-86.844z" fill="#707dd3"/><path d="m358.717 86.331c-20.342 26.765-41.989 57.461-51.245 70.703-3.016 4.315-4.63 9.448-4.63 14.713v194.57c11.206-4.931 69.758-44.993 113.076-79.889l43.072-53.836-19.654-139.306-53.085-31.74z" fill="#f4d8a5"/><path d="m471.202 209.749c0-10.195-2.495-19.8-6.874-28.272-24.488-47.376-20.435-57.059-4.293-89.132 3.206-6.371 4.835-13.672 4.331-21.401-1.393-21.35-19.262-38.343-40.655-38.719-10.573-.186-20.256 3.595-27.68 9.939-8.098 6.923-22.352 24.482-37.314 44.167 4.682-1.725 9.761-2.631 15.064-2.537 21.393.376 39.263 17.368 40.655 38.719.504 7.729-1.125 15.03-4.331 21.401-16.142 32.072-20.195 41.756 4.293 89.132 4.379 8.472 6.874 18.078 6.874 28.272 0 8.947-1.921 17.44-5.354 25.109 16.979-13.678 31.617-26.562 40.147-36.226l-.005-.018c9.423-10.824 15.142-24.956 15.142-40.434z" fill="#e28086"/><path d="m471.202 209.749c0-10.195-2.495-19.8-6.874-28.272-24.488-47.376-20.435-57.059-4.293-89.132 3.206-6.371 4.835-13.672 4.331-21.401-1.393-21.35-19.262-38.343-40.655-38.719-5.752-.101-11.236.979-16.24 3 14.839 6.354 25.816 22.13 26.895 40.879.504 8.759-1.125 17.033-4.331 24.253-16.142 36.346-20.195 47.319 4.293 101.008 4.379 9.601 6.873 20.486 6.873 32.039 0 16.221-4.898 31.132-13.087 42.985 11.697-9.86 21.546-18.932 27.951-26.188l-.005-.018c9.423-10.823 15.142-24.956 15.142-40.434z" fill="#dd636e"/><circle cx="397.059" cy="395.658" fill="#dfe7f4" r="19.909"/><path d="m302.842 114.985c-4.142 0-7.5-3.358-7.5-7.5v-19.62c0-16.584 9.765-31.715 24.876-38.548l17.158-7.758c3.773-1.706 8.216-.031 9.924 3.744 1.707 3.774.03 8.217-3.744 9.924l-17.158 7.758c-9.753 4.41-16.056 14.176-16.056 24.88v19.62c0 4.142-3.358 7.5-7.5 7.5z" fill="#ecbe6b"/></g><path d="m122.18 257.999 86.978 108.317-39.992 63.694c-19.057 30.352-59.263 39.244-89.343 19.76-29.009-18.79-37.955-57.163-20.246-86.844z" fill="#8993da"/><path d="m179.158 328.956v34.277c0 2.015-.568 3.988-1.639 5.694l-38.353 61.083c-9.315 14.835-23.685 24.527-39.452 28.301 26.064 6.276 54.375-4.288 69.452-28.301l39.992-63.694z" fill="#707dd3"/><path d="m204.528 157.033c-9.256-13.242-30.903-43.938-51.245-70.703l-14.748-14.497-57.404 8.611-7.984 178.536 22.935 27.446c43.318 34.896 101.87 74.958 113.076 79.889v-194.57c0-5.263-1.614-10.397-4.63-14.712z" fill="#f4d8a5"/><path d="m204.528 157.033c-9.256-13.242-30.904-43.938-51.246-70.702l-36.439-8.393c22.029 28.42 47.443 64.443 57.685 79.095 3.016 4.315 4.63 9.449 4.63 14.713v175.839c14.567 9.859 25.728 16.851 30 18.731v-194.57c0-5.264-1.614-10.398-4.63-14.713z" fill="#f1cb86"/><path d="m40.798 209.749c0-10.195 2.495-19.8 6.874-28.272 24.488-47.376 20.435-57.059 4.293-89.132-3.206-6.371-4.835-13.672-4.331-21.401 1.393-21.35 19.262-38.343 40.655-38.719 10.573-.186 20.256 3.595 27.68 9.939 8.098 6.923 22.352 24.482 37.314 44.167-4.682-1.725-9.761-2.631-15.064-2.537-21.393.376-39.263 17.368-40.655 38.719-.504 7.729 1.125 15.03 4.331 21.401 16.142 32.072 20.195 41.756-4.293 89.132-4.379 8.472-6.874 18.078-6.874 28.272 0 8.947 1.921 17.44 5.354 25.109-16.979-13.678-31.617-26.562-40.147-36.226l.005-.018c-9.423-10.823-15.142-24.956-15.142-40.434z" fill="#e28086"/><path d="m153.282 86.332c-14.961-19.685-29.216-37.244-37.314-44.167-7.423-6.344-17.106-10.125-27.68-9.939-4.982.088-9.768 1.086-14.204 2.821 4.368 1.705 8.379 4.123 11.883 7.118 8.158 6.974 22.565 24.745 37.648 44.607 4.547-1.833 9.471-2.888 14.602-2.978 5.304-.093 10.383.812 15.065 2.538z" fill="#dd636e"/><circle cx="114.941" cy="395.658" fill="#dfe7f4" r="19.909"/><path d="m209.158 114.985c-4.142 0-7.5-3.358-7.5-7.5v-19.62c0-10.704-6.302-20.47-16.056-24.88l-17.158-7.758c-3.774-1.707-5.451-6.149-3.744-9.924 1.707-3.774 6.15-5.45 9.924-3.744l17.158 7.758c15.111 6.833 24.876 21.963 24.876 38.548v19.62c0 4.142-3.358 7.5-7.5 7.5z" fill="#ecbe6b"/></g></svg>
