<svg xmlns="http://www.w3.org/2000/svg" xmlns:xlink="http://www.w3.org/1999/xlink" width="109.741pt" height="71.855pt" viewBox="0 0 109.741 71.855"><defs><path id="a" d="M.21875 0H2v-.17187c-.625-.04688-.64062-.04688-.64062-.39063v-1.42187h.84375c.51562 0 .54687.14062.59375.53125h.1875V-2.75h-.1875c-.04688.39063-.07813.53125-.59375.53125h-.84375v-1.54687c0-.20313.01562-.21875.21874-.21875h.60938c.70313 0 .84375.14062.92188.76562h.1875v-.96875H.21875v.17188c.53125.03125.54688.04687.54688.375V-.5625c0 .34375-.01563.34375-.54688.39063Zm0 0"/><path id="b" d="M.5625-3.96875c0 .21875.14063.375.35938.375.23437 0 .375-.15625.375-.375s-.14063-.375-.375-.375c-.21876 0-.35938.15625-.35938.375M.1875 0h1.48438v-.17187c-.4375-.03126-.45313-.04688-.45313-.35938V-3l-.04687-.04687-.95313.15625V-2.75l.23438.04688c.15625.01562.20312.04687.20312.26562v1.90625c0 .3125-.03125.32813-.46875.35938Zm0 0"/><path id="c" d="M.25.57813c0 .60937.60938.89062 1.3125.89062.35938 0 .75-.07812 1.03125-.25.28125-.17187.48438-.45312.48438-.82812C3.07813-.26562 2.5625-.5 1.90625-.5h-.48437c-.4375 0-.5-.14062-.5-.26562 0-.17188.23437-.26563.3125-.29688.10937.01563.25.03125.3125.03125.5625 0 1.21875-.26562 1.21875-1 0-.25-.07813-.45312-.1875-.5625l.48437-.07812.125-.375-.04687-.0625-.78125.25c-.17188-.10938-.5-.1875-.78125-.1875-.9375 0-1.25.5625-1.25 1.01562 0 .57813.375.84375.64062.90625v.01563c-.32812.125-.54687.29687-.54687.54687 0 .20313.25.4375.53125.46875v.01563C.70313 0 .25.14063.25.57813M.82813.5625q0-.32812.1875-.46875c.14062-.09375.34375-.14062.625-.14062.54687 0 .9375.14062.9375.59375 0 .48437-.4375.71875-.875.71875-.51563 0-.875-.26563-.875-.70313M.9375-2.03125c0-.59375.3125-.79687.64063-.79687.29687 0 .60937.21875.60937.79687 0 .51563-.26562.78125-.625.78125-.34375 0-.625-.26562-.625-.78125m0 0"/><path id="d" d="m.15625-2.75.23438.04688c.15625.01562.1875.04687.1875.26562v1.59375c0 .70313.42187.92188.875.92188.51562 0 .92187-.35938 1.10937-.4375L2.60938 0h.98437v-.17187C3.17188-.20313 3.125-.21875 3.125-.53125V-3l-.04687-.04687-.9375.15625V-2.75l.23437.04688c.14063.01562.1875.04687.1875.26562v1.35938c0 .17187-.01562.3125-.04687.375-.14063.26562-.4375.45312-.75.45312-.35938 0-.60938-.23437-.60938-.70312V-3l-.04687-.04687-.95313.15625Zm0 0"/><path id="e" d="M.1875 0h1.60938v-.17187C1.25-.20313 1.21875-.21875 1.21875-.53125v-1.42187c0-.45313.20313-.625.34375-.625.10938 0 .20313.04687.375.14062.04688.03125.09375.03125.125.03125.15625 0 .28125-.15625.28125-.34375 0-.14062-.07812-.29687-.32812-.29687-.21875 0-.39063.125-.79688.48437l-.0625-.48437-.9375.15625V-2.75l.23438.04688c.15625.01562.20312.04687.20312.26562v1.90625c0 .3125-.03125.32813-.46875.35938Zm0 0"/><path id="f" d="M.29688-1.46875C.29688-.5.70313.07813 1.70313.07813c.67187 0 1.01562-.375 1.17187-.85938L2.70313-.875c-.17188.35938-.40625.64063-.89063.64063-.75 0-.89062-.73438-.89062-1.35938h1.75c.14062 0 .25-.03125.25-.23437 0-.35938-.125-1.21875-1.23438-1.21875-.95312 0-1.39062.67187-1.39062 1.57812m.64062-.35937c0-.25.09375-1 .71875-1 .5625 0 .625.5625.625.8125 0 .10937-.03125.1875-.20312.1875Zm0 0"/><path id="g" d="M.65625 0h2v-.17187l-.51562-.04688c-.125-.01562-.20313-.0625-.20313-.29687v-3.57813L1.90625-4.125l-1.25.21875v.14063l.5625.07812c.10938.01563.15625.04688.15625.23438v2.9375c0 .10937-.01562.1875-.0625.23437-.03125.04688-.07812.0625-.14062.0625l-.51563.04688Zm0 0"/><path id="h" d="M-.23437 0H2.5l.07813-.34375-.67188-.0625C1.75-.42187 1.6875-.5 1.6875-.625c0-.0625.03125-.15625.0625-.23437.40625-.78125.79688-1.5625 1.25-2.39063h2.71875l.29688 2.51563s-.0625.29687-.3125.32812l-.65625.0625L4.98438 0h2.98437l.07813-.34375-.46875-.04687c-.375-.03125-.42188-.20313-.48438-.70313l-.89062-7.3125h-.85938L3.29688-4.8125c-.625 1.07813-1.625 2.89063-2.07813 3.60938C.82813-.5625.625-.4375.25-.40625l-.40625.0625ZM3.25-3.70312l1.96875-3.57813.4375 3.57813Zm0 0"/><path id="i" d="M0 0h3.6875c2.92188 0 3.51563-1.51562 3.51563-2.51562 0-1.28125-.9375-1.84375-1.82813-2l.01563-.03125C7-4.75 7.6875-5.65625 7.6875-6.57812c0-.98438-.57812-1.82813-2.8125-1.82813H1.79688l-.07813.35938.71875.0625c.21875.01562.29688.10937.29688.29687 0 .07813-.01563.1875-.04688.29688L1.25-1.01562c-.09375.40625-.20312.54687-.5.59375l-.6875.07812Zm2.42188-.9375c0-.07812.01562-.17187.04687-.26562l.70313-3.10938h.46875c1.20312 0 2.26562.34375 2.26562 1.73438C5.90625-1.5 5.25-.42187 3.625-.42187c-.96875 0-1.20312-.20313-1.20312-.51563M3.25-4.75l.64063-2.8125c.09375-.35937.15625-.42187.96875-.42187 1.01562 0 1.59375.51562 1.59375 1.375 0 1.26562-1.0625 1.85937-2.40625 1.85937Zm0 0"/><path id="j" d="M.64063-3.32812c0 1.59375.78125 3.51562 3.79687 3.51562.85938 0 1.6875-.125 2.46875-.51562L7.5-2.26562h-.35937C6.45313-1.04687 5.85938-.25 4.35938-.25c-1.40625 0-2.42188-.90625-2.42188-2.78125 0-1.09375.28125-2.4375.85938-3.40625.60937-1.01562 1.57812-1.73437 2.875-1.73437 1.53125 0 1.98437.71875 1.98437 2.04687h.375l.4375-1.82812c-.70312-.4375-1.84375-.64063-2.6875-.64063-2.29687 0-3.60937 1.07813-4.32812 2.20313-.67188 1.09375-.8125 2.21875-.8125 3.0625m0 0"/></defs><path fill="none" stroke="red" stroke-miterlimit="10" stroke-width=".39756" d="M18.58203 25.00783h7.35156v-7.35156"/><path fill="none" stroke="#000" stroke-miterlimit="10" stroke-width=".39756" d="m18.58203 54.42969 73.53903-36.77342H18.58203m0 .00781-2.40234.15625-2.35547.46875-2.27734.77344-2.15625 1.0625-2 1.33984-1.8086 1.58203-1.58593 1.8086-1.33594 2-1.0625 2.15624-.77343 2.27734-.46875 2.35938-.15625 2.39843.15625 2.39844.46875 2.35937.77343 2.27344 1.0625 2.16016 1.33594 1.99609 1.58594 1.8086 1.8086 1.58593 1.99999 1.33594 2.15625 1.0625 2.27734.77343 2.35547.46875 2.40234.16016"/><path fill="none" stroke="#000" stroke-dasharray="2.9818062495000004 2.9818062495000004" stroke-miterlimit="10" stroke-width=".39756" d="M18.58203 17.65627v36.77342"/><use xlink:href="#a" x="14.93774" y="37.48383"/><use xlink:href="#b" x="18.40056" y="37.48383"/><use xlink:href="#c" x="20.16427" y="37.48383"/><use xlink:href="#d" x="23.31697" y="37.48383"/><use xlink:href="#e" x="26.99298" y="37.48383"/><use xlink:href="#f" x="29.2283" y="37.48383"/><use xlink:href="#g" x="33.70541" y="37.48383"/><use xlink:href="#h" x="14.15559" y="67.39124"/><use xlink:href="#i" x="96.68681" y="13.09239"/><use xlink:href="#j" x="13.9421" y="12.91182"/></svg>