<svg xmlns="http://www.w3.org/2000/svg" xmlns:xlink="http://www.w3.org/1999/xlink" width="160.68pt" height="135.044pt" viewBox="0 0 160.68 135.044"><defs><path id="b" d="M1-3.28125c0 2.625.59375 5.5 3.04688 5.60938v-.34375c-.82813-.17188-2.125-1.1875-2.125-5.26563 0-4.03125 1.23437-5.0625 2.125-5.25V-8.875C1.59375-8.78125 1-5.89062 1-3.28125m0 0"/><path id="c" d="M.85938-1.39062c0 .75.23437 1.53125 1.17187 1.53125 1.32813 0 2.375-1.42188 3.04688-2.67188h.03125l-.39063 1.375c-.0625.23438-.09375.45313-.09375.625 0 .4375.1875.67188.60938.67188.90625 0 1.51562-.79688 1.90625-1.67188L6.875-1.6875c-.21875.40625-.73437 1.21875-1.04687 1.21875-.14063 0-.1875-.09375-.1875-.21875 0-.10937.03125-.25.0625-.40625L7.54688-8.5625l-.0625-.04687-2.07813.26562-.04687.26563.6875.0625c.1875.01562.25.0625.25.20312 0 .0625 0 .15625-.04688.28125l-.4375 1.875-.03125.01563c-.21875-.10938-.57812-.1875-.96875-.1875-2.71875 0-3.95312 3.01562-3.95312 4.4375m1.15625.09374c0-1.26562 1.01562-4.125 2.85937-4.125.35938 0 .67188.10938.8125.23438-.17187.89063-.5625 1.98438-1.15625 2.95313-.54687.90625-1.3125 1.76562-1.9375 1.76562-.375 0-.57812-.3125-.57812-.82812m0 0"/><path id="d" d="M.6875 1.98438v.34375C3.15625 2.21875 3.75-.65625 3.75-3.28125c0-2.60937-.59375-5.5-3.0625-5.59375v.34375c.89063.1875 2.125 1.21875 2.125 5.25 0 4.07813-1.29687 5.09375-2.125 5.26563m0 0"/><path id="e" d="m1.6875-1.26562.46875.48437L4.17188-2.8125 6.20313-.78125l.46875-.48437-2.01563-2.01563 2.01563-2.01562-.46875-.46875L4.17188-3.75 2.15625-5.76562l-.46875.46875 2.01563 2.01562Zm0 0"/><clipPath id="a"><path d="M.40625 0H77v77H.40625Zm0 0"/></clipPath><clipPath id="f"><path d="M58 57h82v77.09375H58Zm0 0"/></clipPath></defs><g clip-path="url(#a)"><path fill="none" stroke="#000" stroke-miterlimit="10" stroke-width=".3957" d="M70.9767 35.3828c0-19.4336-15.75392-35.1836-35.18361-35.1836-19.4336 0-35.18752 15.75-35.18752 35.1836 0 19.4297 15.75391 35.18361 35.18752 35.18361 19.4297 0 35.1836-15.7539 35.1836-35.1836Zm0 0"/></g><path fill="none" stroke="#000" stroke-miterlimit="10" stroke-width=".3957" d="M28.75402 105.75002 134.30875.1992"/><use xlink:href="#b" x="138.67206" y="13.44482"/><use xlink:href="#c" x="143.42051" y="13.44482"/><use xlink:href="#d" x="151.08728" y="13.44482"/><use xlink:href="#e" x="31.60798" y="38.26909"/><g clip-path="url(#f)"><path fill="none" stroke="#000" stroke-miterlimit="10" stroke-width=".3957" d="M99.12514 63.53125c19.4297 0 35.18361 15.75001 35.18361 35.18361 0 19.4297-15.75391 35.18361-35.1836 35.18361-19.4336 0-35.18752-15.75391-35.18752-35.1836 0-19.4336 15.75391-35.18362 35.18751-35.18362Zm0 0"/></g><use xlink:href="#e" x="94.93965" y="101.60075"/></svg>