<svg xmlns="http://www.w3.org/2000/svg" xmlns:xlink="http://www.w3.org/1999/xlink" width="457.9pt" height="100.758pt" viewBox="0 0 457.9 100.758"><defs><path id="b" d="m1.75-1.3125.51563.5L4.375-2.9375l2.10938 2.125.5-.5L4.875-3.42187l2.10938-2.125-.5-.48438L4.375-3.92187 2.26563-6.03125 1.75-5.54687l2.125 2.125Zm0 0"/><path id="c" d="M-.23437 0H2.5l.07813-.34375-.67188-.0625C1.75-.42187 1.6875-.5 1.6875-.625c0-.0625.03125-.15625.0625-.23437.40625-.78125.79688-1.5625 1.25-2.39063h2.71875l.29688 2.51563s-.0625.29687-.3125.32812l-.65625.0625L4.98438 0h2.98437l.07813-.34375-.46875-.04687c-.375-.03125-.42188-.20313-.48438-.70313l-.89062-7.3125h-.85938L3.29688-4.8125c-.625 1.07813-1.625 2.89063-2.07813 3.60938C.82813-.5625.625-.4375.25-.40625l-.40625.0625ZM3.25-3.70312l1.96875-3.57813.4375 3.57813Zm0 0"/><path id="d" d="M0 0h3.6875c2.92188 0 3.51563-1.51562 3.51563-2.51562 0-1.28125-.9375-1.84375-1.82813-2l.01563-.03125C7-4.75 7.6875-5.65625 7.6875-6.57812c0-.98438-.57812-1.82813-2.8125-1.82813H1.79688l-.07813.35938.71875.0625c.21875.01562.29688.10937.29688.29687 0 .07813-.01563.1875-.04688.29688L1.25-1.01562c-.09375.40625-.20312.54687-.5.59375l-.6875.07812Zm2.42188-.9375c0-.07812.01562-.17187.04687-.26562l.70313-3.10938h.46875c1.20312 0 2.26562.34375 2.26562 1.73438C5.90625-1.5 5.25-.42187 3.625-.42187c-.96875 0-1.20312-.20313-1.20312-.51563M3.25-4.75l.64063-2.8125c.09375-.35937.15625-.42187.96875-.42187 1.01562 0 1.59375.51562 1.59375 1.375 0 1.26562-1.0625 1.85937-2.40625 1.85937Zm0 0"/><path id="f" d="M1.04688-3.42187c0 2.73437.625 5.75 3.1875 5.84375V2.0625C3.375 1.90625 2.01563.82813 2.01563-3.42187c0-4.23438 1.29687-5.29688 2.21875-5.5v-.35938c-2.5625.10938-3.1875 3.125-3.1875 5.85938m0 0"/><path id="g" d="M.90625-1.45312c0 .78125.23438 1.59375 1.21875 1.59375 1.39063 0 2.46875-1.48438 3.1875-2.79688h.03125L4.9375-1.20312c-.0625.25-.10937.46875-.10937.64062 0 .45313.21875.70313.64062.70313.95313 0 1.59375-.82813 2-1.75l-.28125-.15626c-.21875.42188-.76562 1.28126-1.09375 1.28126-.15625 0-.20312-.09375-.20312-.23438 0-.125.04687-.26562.07812-.4375L7.875-8.95312 7.8125-9l-2.15625.28125-.0625.28125.71875.0625c.20313.01563.28125.0625.28125.20313 0 .0625-.01562.17187-.0625.29687l-.45312 1.95313-.03125.03125c-.23438-.125-.60938-.20313-1.01563-.20313-2.82812 0-4.125 3.15625-4.125 4.64063m1.20313.09374c0-1.3125 1.0625-4.3125 3-4.3125.375 0 .6875.10938.82812.25C5.76563-4.5 5.35938-3.34374 4.75-2.34375c-.59375.95313-1.39062 1.85938-2.03125 1.85938-.39062 0-.60937-.32813-.60937-.875m0 0"/><path id="i" d="M.71875 2.0625v.35938C3.29688 2.32813 3.92188-.6875 3.92188-3.42187s-.625-5.75-3.20313-5.85938v.35938c.9375.20312 2.23438 1.26562 2.23438 5.5 0 4.25-1.35938 5.32812-2.23438 5.48437m0 0"/><path id="e" d="M.375-.125c0 .04688.10938.125.21875.125.07813 0 .21875-.01562.23438-.07812l1.51562-3.89063c.04688-.125.0625-.1875.0625-.23437 0-.17188-.28125-.25-.54687-.25-.25 0-.65625.10937-.6875.26562Zm0 0"/><path id="h" d="M.92188 0h2.84375v-.26562l-.67188-.0625c-.1875-.01563-.28125-.07813-.28125-.39063v-5.01562l-.04687-.04688-1.82813.3125V-5.25l.73438.10938c.15624.01562.20312.07812.20312.34375v4.07812c0 .3125-.07812.375-.28125.39063l-.67187.0625Zm0 0"/><path id="j" d="M.25-.09375.34375 0H3.9375L4.25-1.21875 4-1.25c-.20312.4375-.35937.51563-.70312.51563H1.125c.14063-.42188.59375-.98438 1.42188-1.53125.85937-.57813 1.46875-.98438 1.46875-1.90625 0-1.1875-.79688-1.60938-1.75-1.60938-1.15625 0-1.8125.67188-1.8125 1.1875 0 .3125.35937.45313.53125.45313s.25-.09375.28124-.25c.14063-.60938.45313-1.07813.95313-1.07813.59375 0 .78125.51563.78125 1.14063 0 .8125-.375 1.35937-1.15625 2.04687C.75-1.34375.375-.73437.25-.09375m0 0"/><path id="k" d="M.23438-.90625c0 .35938.5625 1 1.84375 1 1.26562 0 2.0625-.60937 2.0625-1.6875 0-1.17187-1.01563-1.46875-1.4375-1.51562v-.03125c.45312-.09375 1.1875-.42188 1.1875-1.25 0-1-.8125-1.39063-1.71875-1.39063-1.09375 0-1.71875.60938-1.71875 1.04688 0 .28125.32812.4375.48437.4375.125 0 .1875-.07813.23438-.20313.1875-.60937.48437-.96875.9375-.96875.64062 0 .79687.60938.79687 1.04688 0 .45312-.14062 1.15625-.84375 1.15625-.39062 0-.64062-.09375-.76562-.09375S1.125-3.25 1.125-3.09375s.04688.26563.17188.26563.375-.09375.76562-.09375c.65625 0 1.0625.54687 1.0625 1.35937 0 .96875-.45312 1.34375-1.03125 1.34375-.51562 0-.875-.39062-1.04687-.9375-.0625-.17187-.15626-.25-.28126-.25-.20312 0-.53124.17188-.53124.5m0 0"/><clipPath id="a"><path d="M.5 15H448v49H.5Zm0 0"/></clipPath></defs><path fill="none" stroke="red" stroke-miterlimit="10" stroke-width=".39754" d="m76.20313 44.17969 7.32812-.60938.6211 7.32422m174.62891-21.97266 7.32813-.61328.64062 7.32422"/><path fill="none" stroke="#000" stroke-miterlimit="10" stroke-width=".39754" d="M294.85548 20.98828H37.46875"/><g clip-path="url(#a)"><path fill="none" stroke="#000" stroke-miterlimit="10" stroke-width=".39754" d="m.69531 57.75781 441.2383-36.76953"/></g><path fill="none" stroke="#000" stroke-miterlimit="10" stroke-width=".39754" d="M296.91407 45.40625 43.12891 88.1328"/><use xlink:href="#b" x="69.86908" y="24.00734"/><use xlink:href="#b" x="253.71552" y="24.00734"/><use xlink:href="#c" x="70.0696" y="16.42555"/><use xlink:href="#d" x="245.57208" y="16.42555"/><use xlink:href="#b" x="75.01672" y="85.04474"/><use xlink:href="#b" x="256.28934" y="54.52604"/><use xlink:href="#c" x="73.3178" y="96.20992"/><use xlink:href="#e" x="82.16904" y="91.04184"/><use xlink:href="#d" x="244.32308" y="65.69122"/><use xlink:href="#e" x="252.81119" y="60.52314"/><use xlink:href="#f" x="262.64707" y="13.58338"/><use xlink:href="#g" x="267.6085" y="13.58338"/><use xlink:href="#h" x="274.4565" y="16.42615"/><use xlink:href="#i" x="279.81783" y="13.58338"/><use xlink:href="#f" x="430.86404" y="34.83234"/><use xlink:href="#g" x="435.82548" y="34.83234"/><use xlink:href="#j" x="442.67218" y="37.67381"/><use xlink:href="#i" x="448.03351" y="34.83234"/><use xlink:href="#f" x="265.22188" y="65.35104"/><use xlink:href="#g" x="270.18332" y="65.35104"/><use xlink:href="#k" x="277.03132" y="68.19252"/><use xlink:href="#i" x="282.39135" y="65.35104"/><path fill="none" stroke="#000" stroke-dasharray="2.9816568080000003 2.9816568080000003" stroke-miterlimit="10" stroke-width=".39754" d="m74.23828 20.98828 5.14454 61.03907m178.70313-61.03907 2.57422 30.51953"/><path fill="none" stroke="red" stroke-miterlimit="10" stroke-width=".39754" d="m72.4414 35.26562 5.98438-.0078m-5.8164 1.98828 5.98437-.00782m-3.57812 28.53906L81 65.77344m-5.82031 1.98437 5.98438-.0039m174.54688-39.11719 5.98437-.02735M256.9961 43.8711l5.98438.01562"/></svg>