<svg xmlns="http://www.w3.org/2000/svg" xmlns:xlink="http://www.w3.org/1999/xlink" width="278.331pt" height="152.956pt" viewBox="0 0 278.331 152.956"><defs><path id="a" d="m3.04688-2.28125.85937.875L7.5625-5.07812l3.65625 3.67187.85938-.875-3.65625-3.64062 3.65625-3.67188-.85938-.84375L7.5625-6.79687 3.90625-10.4375l-.85937.84375 3.65625 3.67188Zm0 0"/><path id="b" d="M1.09375-5.76562C1.09375-3 2.45313.3125 7.67188.3125c1.5 0 2.92187-.20312 4.26562-.875l1.03125-3.34375h-.625C11.17188-1.8125 10.125-.42187 7.53125-.42187c-2.4375 0-4.17187-1.5625-4.17187-4.8125 0-1.89063.48437-4.21875 1.5-5.90625C5.90625-12.90625 7.5625-14.125 9.8125-14.125c2.65625 0 3.42188 1.21875 3.42188 3.53125h.65625l.75-3.15625C13.4375-14.51562 11.46875-14.875 10-14.875c-3.96875 0-6.25 1.85938-7.46875 3.82813-1.17187 1.875-1.4375 3.82812-1.4375 5.28125m0 0"/><path id="c" d="M0 0h6.4375c4.20313 0 6.64063-1.51562 8.15625-3.79687C15.8125-5.60937 16.01563-7.375 16.01563-8.625c0-1.70312-.60938-3.40625-1.8125-4.40625-1.23438-1.03125-3.10938-1.5-5.4375-1.5H3.10938l-.14063.59375 1.25.09375c.35938.03125.5.20313.5.54688 0 .125-.01562.3125-.0625.5L2.14063-1.75c-.15625.70313-.32813.96875-.84375 1.01563l-1.1875.125Zm4.15625-1.54687c0-.07813 0-.17188.03125-.26563l2.51563-11.21875c.1875-.71875.46875-.78125 2.3125-.78125 4.375.07813 4.73437 3.03125 4.73437 4.71875 0 1.79688-.42187 3.5-1.35937 5.0625-1.21875 1.96875-3 3.29688-6.48438 3.29688-1.03125 0-1.75-.14063-1.75-.8125m0 0"/><path id="e" d="M1.8125-5.92187c0 4.73437 1.07813 9.95312 5.51563 10.125v-.625c-1.5-.29688-3.84375-2.14063-3.84375-9.5 0-7.3125 2.23437-9.17188 3.84375-9.5v-.625c-4.4375.17187-5.51563 5.375-5.51563 10.125m0 0"/><path id="f" d="M1.5625-2.53125C1.5625-1.15625 1.96875.25 3.67188.25c2.40625 0 4.28125-2.57812 5.51562-4.82812h.04688l-.6875 2.5c-.125.42187-.1875.79687-.1875 1.10937C8.35938-.17187 8.71875.25 9.45313.25c1.65625 0 2.75-1.4375 3.46875-3.01562l-.48438-.29688c-.39062.73438-1.32812 2.21875-1.90625 2.21875-.25 0-.32812-.15625-.32812-.40625 0-.20312.0625-.45312.125-.73437L13.64063-15.5l-.10938-.07812-3.73437.48437-.10938.5 1.25.10938c.32813.01562.46875.10937.46875.35937q0 .16406-.09375.51563l-.79687 3.375-.04688.03125c-.40625-.1875-1.0625-.34375-1.76562-.34375-4.90625 0-7.14063 5.46875-7.14063 8.01562m2.07813.1875c0-2.28125 1.84375-7.46875 5.1875-7.46875.65625 0 1.21875.20313 1.45312.42188-.3125 1.60937-1 3.59375-2.07812 5.34375-1 1.625-2.39063 3.20312-3.5 3.20312-.67188 0-1.0625-.5625-1.0625-1.5m0 0"/><path id="g" d="M1.25 3.57813v.625c4.45313-.17188 5.53125-5.39063 5.53125-10.125 0-4.75-1.07812-9.95313-5.53125-10.125v.625c1.60938.32812 3.84375 2.1875 3.84375 9.5 0 7.35937-2.34375 9.20312-3.84375 9.5m0 0"/><path id="d" d="M.65625-.79687c0 .07812.17188.21874.375.21874.125 0 .35938-.03124.39063-.125L4.0625-7.4375c.09375-.21875.10938-.34375.10938-.40625 0-.3125-.5-.4375-.95313-.4375-.4375 0-1.14062.17188-1.1875.45313Zm0 0"/></defs><use xlink:href="#a" x="56.25977" y="145.29758"/><use xlink:href="#b" x="41.74067" y="131.86188"/><use xlink:href="#a" x="183.49994" y="18.05842"/><use xlink:href="#c" x="198.95878" y="35.27204"/><use xlink:href="#a" x="56.25977" y="18.05842"/><use xlink:href="#b" x="34.18384" y="37.96258"/><use xlink:href="#d" x="50.24174" y="29.01783"/><use xlink:href="#a" x="183.49994" y="145.29758"/><use xlink:href="#c" x="198.95878" y="132.17513"/><use xlink:href="#d" x="216.35671" y="123.23037"/><path fill="none" stroke="#000" stroke-miterlimit="10" stroke-width=".39754" d="M.19924 76.45703h254.48043"/><path fill="none" stroke="red" stroke-miterlimit="10" stroke-width=".39754" d="M63.81642 76.45703V63.73047h12.72656v12.72656H63.81642m127.24216 0V63.73047h12.72657v12.72656h-12.72657"/><use xlink:href="#e" x="239.17212" y="64.35115"/><use xlink:href="#f" x="247.7592" y="64.35115"/><use xlink:href="#g" x="261.62376" y="64.35115"/><path fill="none" stroke="#000" stroke-miterlimit="10" stroke-width=".39754" d="M63.81642 140.07812 191.05858 12.83595m-127.24216 0 127.24216 127.24217"/><path fill="none" stroke="red" stroke-miterlimit="10" stroke-width=".39754" d="m66.62892 111.07812-5.6211-5.6211m5.6211-57.99998-5.6211-5.6211m127.24218 0 5.62108 5.6211M188.25 105.45703l5.62108 5.62109"/><path fill="none" stroke="#000" stroke-dasharray="2.9816568080000003 2.9816568080000003" stroke-miterlimit="10" stroke-width=".39754" d="M63.81642 140.07812V12.83595m127.24216 0v127.24217"/></svg>