<svg xmlns="http://www.w3.org/2000/svg" xmlns:xlink="http://www.w3.org/1999/xlink" width="247.44pt" height="135.973pt" viewBox="0 0 247.44 135.973"><defs><path id="a" d="m2.70313-2.03125.78125.78125 3.23437-3.26562L9.98438-1.25l.75-.78125L7.5-5.26562l3.23438-3.26563-.75-.75-3.26563 3.23438-3.23437-3.23438-.78125.75 3.26562 3.26563Zm0 0"/><path id="b" d="M.96875-5.125C.96875-2.65625 2.1875.28125 6.8125.28125c1.34375 0 2.60938-.1875 3.79688-.78125l.92187-2.98437h-.5625C9.9375-1.60937 9-.375 6.70313-.375c-2.17188 0-3.71875-1.39062-3.71875-4.28125 0-1.6875.4375-3.75 1.32812-5.23437.9375-1.57813 2.40625-2.67188 4.40625-2.67188 2.375 0 3.04688 1.09375 3.04688 3.14063h.57812l.67188-2.79688c-1.07813-.6875-2.8125-1-4.125-1-3.53125 0-5.54688 1.65625-6.64063 3.40625C1.21875-8.15625.96875-6.42187.96875-5.125m0 0"/><path id="c" d="M0 0h5.71875c3.73438 0 5.90625-1.34375 7.26563-3.375 1.0625-1.60937 1.25-3.1875 1.25-4.29687 0-1.51563-.54688-3.01563-1.60938-3.92188-1.09375-.90625-2.76562-1.32812-4.82812-1.32812H2.76563l-.125.54687 1.10937.07813c.32813.01562.4375.17187.4375.46875 0 .125-.01562.28125-.04687.45312L1.90625-1.54687c-.14062.60937-.29687.84375-.75.89062l-1.0625.125Zm3.70313-1.375c0-.07812 0-.15625.01562-.23437l2.25-9.98438c.15625-.625.40625-.6875 2.04688-.6875 3.89062.07813 4.20312 2.70313 4.20312 4.1875 0 1.60938-.375 3.125-1.20312 4.51563C9.9375-1.82812 8.34375-.65625 5.25-.65625c-.92187 0-1.54687-.125-1.54687-.71875m0 0"/><path id="e" d="M1.60938-5.26562c0 4.21875.95312 8.84375 4.90625 9V3.1875C5.1875 2.92188 3.09375 1.26563 3.09375-5.26562c0-6.5 2-8.15625 3.42188-8.45313v-.54687c-3.95313.15625-4.90625 4.78125-4.90625 9m0 0"/><path id="f" d="M1.39063-2.25c0 1.21875.35937 2.46875 1.875 2.46875 2.14062 0 3.8125-2.28125 4.90625-4.29687h.03125l-.60938 2.23437c-.09375.375-.15625.70313-.15625.98438 0 .70312.3125 1.07812.96875 1.07812 1.46875 0 2.45313-1.26562 3.07813-2.6875l-.4375-.25C10.71875-2.0625 9.875-.75 9.35938-.75c-.21875 0-.29688-.14062-.29688-.35937 0-.1875.0625-.40625.125-.65625l2.9375-12-.09375-.09375-3.32812.4375-.09375.4375 1.10937.10937c.29688.01563.42188.09375.42188.3125 0 .09375-.03125.26563-.07813.45313l-.71875 3-.04687.04687c-.35938-.17187-.92188-.3125-1.5625-.3125-4.35938 0-6.34375 4.85938-6.34375 7.125m1.84375.15625c0-2.01562 1.64062-6.625 4.60937-6.625.57813 0 1.07813.17188 1.29688.375-.28125 1.42188-.89063 3.20313-1.84375 4.75C6.40625-2.14062 5.17188-.75 4.17188-.75c-.59375 0-.9375-.5-.9375-1.34375m0 0"/><path id="g" d="M1.10938 3.1875v.54688c3.95312-.15625 4.90625-4.78125 4.90625-9s-.95313-8.84375-4.90625-9v.54687c1.4375.29688 3.42187 1.95313 3.42187 8.45313 0 6.53125-2.09375 8.1875-3.42187 8.45312m0 0"/><path id="d" d="M.57813-.70312c0 .0625.15624.1875.34375.1875.10937 0 .3125-.03126.34375-.10938l2.34375-5.98437c.07812-.20313.09375-.3125.09375-.35938 0-.28125-.4375-.39062-.82813-.39062-.39062 0-1.01562.14062-1.0625.39062Zm0 0"/></defs><use xlink:href="#a" x="50.04374" y="129.18001"/><use xlink:href="#b" x="37.13596" y="117.23604"/><use xlink:href="#a" x="163.17371" y="16.05004"/><use xlink:href="#c" x="176.91661" y="31.3544"/><use xlink:href="#a" x="50.04374" y="16.05004"/><use xlink:href="#b" x="30.41816" y="33.74599"/><use xlink:href="#d" x="44.69185" y="25.79399"/><use xlink:href="#a" x="163.17371" y="129.18001"/><use xlink:href="#c" x="176.91661" y="117.51441"/><use xlink:href="#d" x="192.3836" y="109.56241"/><path fill="none" stroke="#000" stroke-miterlimit="10" stroke-width=".3976" d="M.19921 67.97266h226.26173"/><path fill="none" stroke="red" stroke-miterlimit="10" stroke-width=".3976" d="M56.76171 67.97266v-11.3125h11.3125v11.3125h-11.3125m113.13282 0v-11.3125h11.3125v11.3125h-11.3125"/><use xlink:href="#e" x="212.66171" y="57.21189"/><use xlink:href="#f" x="220.29574" y="57.21189"/><use xlink:href="#g" x="232.62152" y="57.21189"/><path fill="none" stroke="#000" stroke-miterlimit="10" stroke-width=".3976" d="M56.76171 124.53907 169.89453 11.40625m-113.13282 0 113.13282 113.13282"/><path fill="none" stroke="red" stroke-miterlimit="10" stroke-width=".3976" d="m59.57422 99.0664-5.6211-5.62109m5.6211-50.94141-5.6211-5.625m113.12891 0 5.625 5.625m-5.625 50.94141 5.625 5.6211"/><path fill="none" stroke="#000" stroke-dasharray="2.9820752442 2.9820752442" stroke-miterlimit="10" stroke-width=".3976" d="M56.76171 124.53907V11.40625m113.13282 0v113.13282"/></svg>