<svg xmlns="http://www.w3.org/2000/svg" xmlns:xlink="http://www.w3.org/1999/xlink" width="382.009pt" height="72.789pt" viewBox="0 0 382.009 72.789"><defs><path id="b" d="M1.04688-3.42187c0 2.73437.625 5.75 3.1875 5.84375V2.0625C3.375 1.89063 2.01563.82813 2.01563-3.42187c0-4.21875 1.28125-5.29688 2.21875-5.48438v-.35937c-2.5625.10937-3.1875 3.10937-3.1875 5.84375m0 0"/><path id="c" d="M.90625-1.45312c0 .78125.23438 1.59375 1.20313 1.59375 1.40625 0 2.48437-1.48438 3.1875-2.78125h.03125l-.39063 1.4375c-.07812.25-.10937.46875-.10937.64062 0 .45313.20312.70313.625.70313.96875 0 1.59375-.82813 2-1.73438l-.28125-.17187c-.21875.42187-.75 1.28125-1.09375 1.28125-.14063 0-.1875-.09375-.1875-.23438 0-.125.03125-.26562.07812-.4375L7.875-8.9375 7.8125-9l-2.15625.28125-.0625.29688.71875.0625c.1875.01562.26563.0625.26563.20312 0 .0625-.01563.17188-.04688.29688L6.0625-5.90625l-.01562.01563C5.8125-6 5.4375-6.09375 5.01563-6.09375 2.1875-6.09375.90625-2.9375.90625-1.45312m1.20313.09374c0-1.3125 1.04687-4.3125 2.98437-4.3125.375 0 .70313.125.84375.25-.1875.9375-.57812 2.07813-1.20312 3.07813-.57813.95313-1.375 1.85938-2.03125 1.85938-.375 0-.59375-.32813-.59375-.875m0 0"/><path id="d" d="M.71875 2.0625v.35938c2.57813-.09375 3.1875-3.10938 3.1875-5.84375S3.29688-9.15625.71875-9.26562v.35937c.9375.1875 2.21875 1.26563 2.21875 5.48438 0 4.25-1.34375 5.3125-2.21875 5.48437m0 0"/><path id="e" d="m1.75-1.3125.51563.5 2.09375-2.125 2.125 2.125.48437-.5-2.10937-2.10937 2.10937-2.10938-.48437-.5-2.125 2.10938-2.09375-2.10938-.51563.5 2.125 2.10938Zm0 0"/><path id="f" d="M0 0h2.85938l.07812-.34375-.48437-.04687c-.35938-.01563-.5625-.10938-.5625-.375 0-.64063.125-1 .26562-1.64063l1.10938-4.95312h.03125L4.75-.14062h.32813L9.8125-7.35937h.01563L8.34375-1c-.09375.40625-.21875.54688-.51562.57813l-.65625.07812L7.09375 0h3.3125l.0625-.34375L9.75-.42187c-.21875-.01563-.29687-.125-.29687-.3125 0-.07813 0-.17188.03125-.26563l1.45312-6.375c.10938-.42187.20313-.59375.51563-.60937l.67187-.0625.07813-.34375h-2.375C9.1875-7.28125 8.46875-6.1875 7.73438-5.07812L5.59375-1.79687h-.04687l-.6875-3.35938C4.625-6.26562 4.375-7.3125 4.17188-8.39062H1.8125l-.0625.34375.70313.07812c.20312 0 .3125.10938.3125.3125q0 .1172-.04688.28125L1.57813-2.40625c-.14063.64063-.28126 1.10938-.42188 1.5C1-.51562.78125-.42187.4375-.39062l-.375.04687Zm0 0"/><path id="g" d="M0 0h2.85938l.07812-.34375-.48437-.04687c-.35938-.01563-.5625-.09375-.5625-.35938 0-.64062.125-1.01562.26562-1.65625L3.29688-7.375h.03125C4.46875-4.92187 5.59375-2.46875 6.70313 0h.78125l1.35937-5.96875c.14063-.65625.28125-1.10937.42188-1.51562C9.40625-7.875 9.625-7.96875 9.98438-8l.375-.04687.0625-.34375H7.5625L7.5-8.04687l.46875.0625c.375.03125.57813.15625.57813.42187 0 .4375-.125.9375-.28125 1.59375l-.98438 4.375h-.04687C6.1875-3.85937 5.15625-6.125 4.125-8.39062H1.8125l-.0625.34375.70313.07812c.20312 0 .3125.10938.3125.3125q0 .1172-.04688.28125L1.57813-2.40625c-.14063.64063-.28126 1.10938-.42188 1.5C1-.51562.79688-.42187.4375-.39062l-.375.04687Zm0 0"/><clipPath id="a"><path d="M.0586 0H374v43H.0586Zm0 0"/></clipPath></defs><g clip-path="url(#a)"><path fill="none" stroke="#000" stroke-miterlimit="10" stroke-width=".39735" d="M.25781 36.9414 367.69937.1992"/></g><use xlink:href="#b" x="358.73429" y="14.03332"/><use xlink:href="#c" x="363.69326" y="14.03332"/><use xlink:href="#d" x="371.69994" y="14.03332"/><use xlink:href="#e" x="179.64742" y="58.3329"/><use xlink:href="#f" x="188.57454" y="68.27409"/><use xlink:href="#e" x="32.64256" y="36.28282"/><use xlink:href="#g" x="22.39825" y="28.70479"/></svg>