<svg xmlns="http://www.w3.org/2000/svg" xmlns:xlink="http://www.w3.org/1999/xlink" width="229.746pt" height="110.95pt" viewBox="0 0 229.746 110.95"><defs><path id="a" d="m1.76563-1.3125.5.5L4.375-2.9375 6.5-.8125l.48438-.5L4.875-3.42187l2.10938-2.125-.48438-.5L4.375-3.9375 2.26563-6.04687l-.5.5 2.10937 2.125Zm0 0"/><path id="b" d="M0 0h3.32813l.07812-.34375-.73437-.0625C2.46875-.42187 2.375-.51562 2.375-.71875c0-.07812.01563-.17187.04688-.29687l.65625-2.9375h.73437c1.1875 0 1.34375.28125 1.34375 1.70312 0 1.46875 0 2.25 1.28125 2.25h.95313L7.5-.34375C6.65625-.46875 6.35938-.5 6.35938-2.0625c0-1.25-.10938-1.78125-1.125-2.10937 1.5-.21875 2.5-1.07813 2.5-2.28125 0-.875-.375-1.95313-2.65625-1.95313H1.8125l-.09375.34375.71875.04688c.21875.01562.3125.125.3125.32812q0 .1172-.04687.28125L1.23438-1.01562c-.09376.4375-.20313.5625-.5.59375L.0625-.34375Zm3.1875-4.39062.70313-3.14063C3.98438-7.875 4.03125-8 4.9375-8c.79688 0 1.53125.35938 1.53125 1.42188 0 1.4375-.9375 2.1875-2.51562 2.1875Zm0 0"/><path id="c" d="M.39063-.8125c.46875.625 1.64062 1 2.53125 1C5.28125.15625 6-1.20312 6-2.51562c0-1.09375-.59375-1.78125-1.82812-2.40625-.70313-.375-1.5625-.78125-1.5625-1.70313 0-.85937.64062-1.54687 1.70312-1.54687 1.21875 0 1.45313.5625 1.45313 1.89062H6.125l.4375-1.70312c-.51562-.40625-1.42187-.625-2.17187-.625-2.125 0-2.79688 1.40625-2.79688 2.42187 0 1.14063.78125 1.73438 1.75 2.21875.98438.48438 1.57813 1 1.57813 1.96875 0 1-.82813 1.75-1.84375 1.75-1.625 0-1.9375-1.25-2.01563-2.42187H.70313Zm0 0"/><path id="d" d="M.90625-6.39062h.35938C1.65625-7.64062 2.09375-8 3.28125-8H4.125L2.54688-.98437c-.09375.375-.21875.5625-.57813.57812l-.79687.0625L1.09375 0h3.73438l.09375-.34375-.89063-.0625c-.25 0-.35937-.10937-.35937-.3125 0-.07812.01562-.15625.04687-.26562L5.29688-8h.76562c1.17188 0 1.42188.3125 1.42188.96875 0 .1875-.01563.39063-.04688.64063h.375l.45313-2.01563H1.35938Zm0 0"/><path id="f" d="M1.04688-3.42187c0 2.73437.625 5.75 3.20312 5.85937v-.375C3.375 1.90625 2.01563.82813 2.01563-3.42187c0-4.23438 1.29687-5.3125 2.23437-5.5v-.375c-2.57812.10937-3.20312 3.125-3.20312 5.875m0 0"/><path id="g" d="M.90625-1.46875c0 .79688.23438 1.60938 1.21875 1.60938 1.39063 0 2.48438-1.48438 3.1875-2.79688h.03125L4.9375-1.20312c-.0625.25-.09375.46875-.09375.64062 0 .45313.20313.70313.625.70313.96875 0 1.59375-.82813 2.01563-1.75l-.29688-.15626c-.21875.42188-.75 1.28126-1.09375 1.28126-.14062 0-.1875-.09375-.1875-.23438 0-.125.03125-.26562.07813-.4375l1.90625-7.8125-.0625-.04687-2.15625.28125-.0625.28125.71875.0625c.1875.01562.26562.07812.26562.21875 0 .0625-.01562.15625-.04687.29687l-.46875 1.95313-.01563.01562c-.23437-.10937-.60937-.20312-1.03125-.20312-2.82812 0-4.125 3.17187-4.125 4.64062m1.20313.10938c0-1.3125 1.0625-4.3125 3-4.3125.375 0 .70312.10937.84375.23437C5.76563-4.5 5.375-3.34375 4.75-2.34375c-.57812.95313-1.39062 1.85938-2.03125 1.85938-.39062 0-.60937-.32813-.60937-.875m0 0"/><path id="h" d="M.71875 2.0625v.375c2.57813-.10937 3.20313-3.125 3.20313-5.85937 0-2.75-.625-5.76563-3.20313-5.875v.375c.9375.1875 2.23438 1.26562 2.23438 5.5 0 4.25-1.35938 5.32812-2.23438 5.48437m0 0"/><clipPath id="e"><path d="M0 .03516h209v110.82812H0Zm0 0"/></clipPath></defs><use xlink:href="#a" x="14.23127" y="95.28099"/><use xlink:href="#b" x="5.64975" y="87.68939"/><use xlink:href="#a" x="28.95799" y="87.91713"/><use xlink:href="#c" x="22.0716" y="80.14473"/><use xlink:href="#a" x="161.49845" y="21.6464"/><use xlink:href="#d" x="153.42238" y="14.05579"/><g clip-path="url(#e)"><path fill="none" stroke="#000" stroke-miterlimit="10" stroke-width=".39806" d="M202.65631 110.66407.19921.23434"/></g><use xlink:href="#f" x="207.2229" y="103.66173"/><use xlink:href="#g" x="212.19076" y="103.66173"/><use xlink:href="#h" x="220.21178" y="103.66173"/></svg>