<svg xmlns="http://www.w3.org/2000/svg" xmlns:xlink="http://www.w3.org/1999/xlink" width="773.553pt" height="159.139pt" viewBox="0 0 773.553 159.139"><defs><path id="b" d="M1.60938-5.25c0 4.20313.95312 8.8125 4.89062 8.96875v-.54687C5.17188 2.90625 3.09375 1.26563 3.09375-5.25c0-6.48437 1.98438-8.125 3.40625-8.42187v-.54688C2.5625-14.0625 1.60938-9.45312 1.60938-5.25m0 0"/><path id="c" d="M1.39063-2.23437C1.39063-1.03125 1.75.21875 3.25.21875c2.14063 0 3.79688-2.28125 4.89063-4.28125h.04687l-.625 2.21875c-.09375.375-.15625.71875-.15625.98438 0 .70312.32813 1.07812.96875 1.07812 1.46875 0 2.4375-1.26562 3.07813-2.67187l-.4375-.26563C10.67188-2.0625 9.84375-.75 9.32813-.75c-.21875 0-.29688-.14062-.29688-.35937 0-.17188.0625-.39063.125-.65625l2.92188-11.96875-.09375-.07813-3.3125.4375-.09375.4375 1.10937.09375c.29688.03125.42188.10938.42188.32813 0 .09375-.03125.25-.07813.45312L9.3125-9.07812l-.04687.04687c-.34375-.1875-.92188-.3125-1.5625-.3125-4.32813 0-6.3125 4.84375-6.3125 7.10938m1.84375.15625c0-2.01563 1.625-6.625 4.59375-6.625.57812 0 1.0625.1875 1.28125.375-.26563 1.4375-.89063 3.20312-1.84375 4.73437C6.375-2.14062 5.15625-.75 4.15625-.75c-.59375 0-.92187-.5-.92187-1.32812m0 0"/><path id="d" d="M1.10938 3.17188v.54687C5.04688 3.5625 6-1.04687 6-5.25s-.95312-8.8125-4.89062-8.96875v.54688c1.42187.29687 3.40625 1.9375 3.40625 8.42187 0 6.51563-2.07813 8.15625-3.40625 8.42188m0 0"/><path id="f" d="m2.6875-2.01562.78125.76562L6.70313-4.5l3.25 3.25.75-.76562L7.46875-5.25l3.23438-3.25-.75-.75-3.25 3.23438L3.46875-9.25l-.78125.75 3.25 3.25Zm0 0"/><clipPath id="a"><path d="M1.85938 39H234v58H1.85938Zm0 0"/></clipPath><clipPath id="e"><path d="M348 17h147v141.28125H348Zm0 0"/></clipPath></defs><path fill="none" stroke="#000" stroke-miterlimit="10" stroke-width=".39636" d="m47.16798 81.39844 90.22268-49.62502L92.27736.1953Zm0 0"/><g clip-path="url(#a)"><path fill="none" stroke="#000" stroke-miterlimit="10" stroke-width=".39636" d="m2.0586 90.41797 225.55474-45.10939"/></g><use xlink:href="#b" x="213.85606" y="66.539"/><use xlink:href="#c" x="221.4662" y="66.539"/><use xlink:href="#d" x="233.75339" y="66.539"/><path fill="none" stroke="#000" stroke-miterlimit="10" stroke-width=".39636" d="M408.05479 67.86327c0-24.91406-20.19532-45.10938-45.10939-45.10938s-45.10938 20.19532-45.10938 45.10938 20.19531 45.1094 45.10938 45.1094 45.10939-20.19533 45.10939-45.1094Zm0 0"/><g clip-path="url(#e)"><path fill="none" stroke="#000" stroke-miterlimit="10" stroke-width=".39636" d="M353.92196 158.08595 489.25794 22.7539"/></g><use xlink:href="#b" x="496.2512" y="43.98403"/><use xlink:href="#c" x="503.86134" y="43.98403"/><use xlink:href="#d" x="516.14853" y="43.98403"/><use xlink:href="#f" x="356.2417" y="72.4908"/><path fill="none" stroke="#000" stroke-miterlimit="10" stroke-width=".39636" d="M615.56656 112.97266h90.22268l-67.66799-67.66408Zm-45.10939-22.55469h180.44146"/><use xlink:href="#b" x="737.13692" y="79.69184"/><use xlink:href="#c" x="744.74706" y="79.69184"/><use xlink:href="#d" x="757.03425" y="79.69184"/></svg>