<svg xmlns="http://www.w3.org/2000/svg" xmlns:xlink="http://www.w3.org/1999/xlink" width="382.009pt" height="108.822pt" viewBox="0 0 382.009 108.822"><defs><path id="a" d="M1.04688-3.42187c0 2.73437.625 5.75 3.1875 5.84375V2.0625C3.375 1.90625 2.01563.82813 2.01563-3.42187c0-4.23438 1.29687-5.29688 2.21875-5.5v-.35938c-2.5625.10938-3.1875 3.125-3.1875 5.85938m0 0"/><path id="b" d="M.90625-1.45312c0 .78125.23438 1.59375 1.21875 1.59375 1.39063 0 2.46875-1.48438 3.1875-2.79688h.03125L4.9375-1.20312c-.0625.25-.10937.46875-.10937.64062 0 .45313.21875.70313.64062.70313.95313 0 1.59375-.82813 2-1.75l-.28125-.15626c-.21875.42188-.76562 1.28126-1.09375 1.28126-.15625 0-.20312-.09375-.20312-.23438 0-.125.04687-.26562.07812-.4375L7.875-8.95312 7.8125-9l-2.15625.28125-.0625.28125.71875.0625c.20313.01563.28125.0625.28125.20313 0 .0625-.01562.17187-.0625.29687l-.45312 1.95313-.03125.03125c-.23438-.125-.60938-.20313-1.01563-.20313-2.82812 0-4.125 3.15625-4.125 4.64063m1.20313.09374c0-1.3125 1.0625-4.3125 3-4.3125.375 0 .6875.10938.82812.25C5.76563-4.5 5.35938-3.34374 4.75-2.34375c-.59375.95313-1.39062 1.85938-2.03125 1.85938-.39062 0-.60937-.32813-.60937-.875m0 0"/><path id="c" d="M.71875 2.0625v.35938C3.29688 2.32813 3.92188-.6875 3.92188-3.42187s-.625-5.75-3.20313-5.85938v.35938c.9375.20312 2.23438 1.26562 2.23438 5.5 0 4.25-1.35938 5.32812-2.23438 5.48437m0 0"/><path id="d" d="m1.75-1.3125.51563.5L4.375-2.9375l2.10938 2.125.5-.5L4.875-3.42187l2.10938-2.125-.5-.48438L4.375-3.92187 2.26563-6.03125 1.75-5.54687l2.125 2.125Zm0 0"/><path id="e" d="M0 0h2.875l.0625-.34375-.48437-.04687c-.35938-.01563-.54688-.10938-.54688-.375 0-.64063.10938-1 .25-1.65625l1.10938-4.9375h.03125L4.75-.14062h.34375l4.73438-7.21875h.01562L8.35938-1.01562c-.10938.42187-.21875.5625-.51563.59375l-.65625.07812L7.10938 0h3.3125l.0625-.34375-.71875-.07812c-.21875-.01563-.3125-.125-.3125-.3125q0-.1172.04687-.28126l1.45313-6.375c.10937-.42187.20312-.57812.51562-.60937l.67188-.04687.07812-.35938h-2.375c-.64062 1.125-1.35937 2.20313-2.10937 3.32813L5.59375-1.79687H5.5625l-.6875-3.375c-.25-1.09375-.5-2.14063-.70312-3.23438H1.82813L1.75-8.04687l.70313.0625c.20312.01562.3125.10937.3125.32812 0 .07813-.01563.15625-.04688.26563L1.57813-2.42187c-.14063.65625-.28126 1.10937-.42188 1.51562-.14062.39063-.375.48438-.71875.51563l-.375.04687Zm0 0"/><path id="f" d="M0 0h2.875l.0625-.34375-.48437-.04687C2.09375-.40625 1.90625-.48437 1.90625-.75c0-.64062.10938-1.01562.25-1.67187l1.14063-4.96875h.03125C4.46875-4.92187 5.59375-2.46875 6.70313 0H7.5l1.34375-5.98437C9-6.625 9.14063-7.09375 9.28125-7.5c.14063-.375.35938-.46875.71875-.51562l.375-.03125.0625-.35938H7.57813L7.5-8.04687 7.98438-8c.35937.04688.5625.15625.5625.42188 0 .4375-.125.95312-.26563 1.59375l-1 4.39062h-.04687C6.1875-3.85937 5.15625-6.125 4.14063-8.40625h-2.3125L1.75-8.04687l.70313.0625c.20312.01562.3125.10937.3125.32812 0 .07813-.01563.15625-.04688.26563L1.57813-2.42187c-.14063.65625-.28126 1.10937-.42188 1.51562-.14062.39063-.35937.48438-.71875.51563l-.375.04687Zm0 0"/><path id="h" d="M.26563 0h3.3125l.07812-.34375-.71875-.0625c-.21875 0-.29687-.125-.29687-.3125 0-.07812.01562-.1875.03125-.29687l1.45312-6.375c.09375-.375.20313-.57813.51563-.60938l.67187-.04687.07813-.35938H2.0625l-.07812.35938L2.70313-8C2.90625-7.98437 3-7.85937 3-7.65625c0 .07813-.01562.15625-.04687.26563L1.5-1.01562c-.09375.39062-.20312.5625-.5.59375l-.67187.07812Zm0 0"/><path id="g" d="M.375-.125c0 .04688.10938.125.21875.125.07813 0 .21875-.01562.23438-.07812l1.51562-3.89063c.04688-.125.0625-.1875.0625-.23437 0-.17188-.28125-.25-.54687-.25-.25 0-.65625.10937-.6875.26562Zm0 0"/></defs><path fill="none" stroke="red" stroke-miterlimit="10" stroke-width=".39747" d="m173.02352 55.66405.73828 7.3125 7.3125-.73046"/><path fill="none" stroke="#000" stroke-miterlimit="10" stroke-width=".39747" d="m.19922 72.94531 367.55486-36.75783"/><use xlink:href="#a" x="358.78525" y="50.02937"/><use xlink:href="#b" x="363.74573" y="50.02937"/><use xlink:href="#c" x="371.75484" y="50.02937"/><use xlink:href="#d" x="179.64397" y="94.34241"/><use xlink:href="#e" x="188.57381" y="104.28661"/><use xlink:href="#d" x="32.59444" y="72.28563"/><use xlink:href="#f" x="22.34703" y="64.7053"/><use xlink:href="#f" x="41.52528" y="83.44867"/><use xlink:href="#g" x="52.76322" y="78.28158"/><use xlink:href="#d" x="172.29105" y="21.55324"/><use xlink:href="#e" x="181.22188" y="13.9739"/><use xlink:href="#g" x="194.2427" y="8.80551"/><use xlink:href="#d" x="175.96751" y="57.94783"/><use xlink:href="#h" x="184.89734" y="50.36749"/><path fill="none" stroke="#000" stroke-dasharray="2.9810889303000003 2.9810889303000003" stroke-miterlimit="10" stroke-width=".39747" d="m184.0118 91.32813-7.35156-72.793"/><path fill="none" stroke="red" stroke-miterlimit="10" stroke-width=".39747" d="m185.129 73.07813-5.98048.10546m2.30469-36.4922-5.98047.10156"/></svg>