<svg xmlns="http://www.w3.org/2000/svg" xmlns:xlink="http://www.w3.org/1999/xlink" width="188.811" height="124.345" viewBox="0 0 188.811 124.345"><defs><path id="b" d="M.375 0h3.07813v-.29687C2.375-.375 2.35938-.375 2.35938-.96875v-2.45312H3.8125c.89063 0 .9375.25 1.03125.90625h.3125V-4.75h-.3125c-.09375.67188-.14062.92188-1.03125.92188H2.35938v-2.6875c0-.34375.03125-.375.375-.375h1.03125c1.21875 0 1.46875.23437 1.60937 1.3125h.3125V-7.25H.375v.29688c.92188.0625.9375.07812.9375.67187v5.3125c0 .59375-.01562.59375-.9375.67188Zm0 0"/><path id="c" d="M.95313-6.85937c0 .375.28124.64062.65625.64062.375 0 .64062-.26562.64062-.64062S1.98438-7.5 1.60938-7.5s-.65625.26563-.65625.64063M.32813 0h2.5625v-.29687c-.75-.0625-.78125-.07813-.78125-.625v-4.28125l-.07813-.0625L.39063-5v.26563l.39062.04687c.26563.04688.34375.09375.34375.46875v3.29688c0 .54687-.03125.5625-.79687.625Zm0 0"/><path id="d" d="M.4375 1c0 1.0625 1.0625 1.53125 2.28125 1.53125.60938 0 1.28125-.125 1.78125-.42187.46875-.29688.82813-.79688.82813-1.4375 0-1.14063-.90625-1.53125-2.03125-1.53125h-.82813c-.76562 0-.875-.25-.875-.45313 0-.3125.40625-.46875.53125-.51562.20313.01562.4375.03124.54688.03124.98437 0 2.10937-.4375 2.10937-1.70312 0-.4375-.14062-.8125-.3125-.98437l.82813-.14063.21875-.65625-.09375-.07812-1.34375.42187c-.28125-.20312-.875-.32812-1.35938-.32812C1.10938-5.26562.5625-4.28125.5625-3.5c0 .98438.64063 1.4375 1.125 1.5625v.01563c-.57812.21874-.96875.53125-.96875.9375 0 .375.4375.76562.9375.8125v.03124C1.20313 0 .4375.25.4375 1m1-.04687c0-.34375.10938-.625.32813-.78125.23437-.1875.57812-.25 1.07812-.25.92188 0 1.60938.23437 1.60938 1.01562 0 .84375-.76563 1.23438-1.51563 1.23438-.89062 0-1.5-.45313-1.5-1.21875M1.625-3.5c0-1.04687.54688-1.39062 1.09375-1.39062.51563 0 1.04688.375 1.04688 1.39062 0 .875-.4375 1.32813-1.04688 1.32813C2.125-2.17187 1.625-2.625 1.625-3.5m0 0"/><path id="e" d="m.26563-4.73437.40625.04687C.9375-4.64062 1-4.59375 1-4.21875v2.76563C1-.25 1.71875.125 2.5.125c.89063 0 1.60938-.60937 1.92188-.75L4.51563 0h1.6875v-.29687c-.71875-.0625-.79688-.07813-.79688-.625v-4.28125l-.07812-.0625L3.6875-5v.26563l.40625.04687c.26563.04688.32813.09375.32813.46875v2.35938c0 .29687-.03125.53125-.07813.625-.25.48437-.73437.79687-1.28125.79687C2.4375-.4375 2-.82812 2-1.64062v-3.5625l-.07812-.0625L.26563-5Zm0 0"/><path id="f" d="M.32813 0h2.76562v-.29687c-.92187-.0625-.98437-.07813-.98437-.625V-3.375c0-.79687.35937-1.07812.60937-1.07812.15625 0 .34375.0625.64063.23437.07812.04688.15625.0625.20312.0625.26563 0 .48438-.26562.48438-.59375 0-.23437-.14063-.51562-.5625-.51562-.375 0-.6875.21875-1.375.84375l-.125-.84375L.39063-5v.26563l.39062.04687c.26563.04688.34375.09375.34375.46875v3.29688c0 .54687-.04687.5625-.79687.625Zm0 0"/><path id="g" d="M.51563-2.53125C.51563-.875 1.23438.125 2.9375.125c1.15625 0 1.76563-.65625 2.03125-1.46875l-.3125-.17187C4.375-.90625 3.96875-.40625 3.14063-.40625c-1.29688 0-1.5625-1.25-1.53125-2.34375H4.625c.23438 0 .42188-.0625.42188-.40625 0-.60937-.20313-2.10937-2.125-2.10937-1.64063 0-2.40625 1.15625-2.40625 2.73437m1.10937-.625c0-.4375.15625-1.73437 1.23438-1.73437.98437 0 1.09375.98437 1.09375 1.40625 0 .1875-.07813.32812-.35938.32812Zm0 0"/><path id="h" d="M1.14063 0h3.4375v-.29687l-.875-.07813c-.21875-.03125-.34375-.10937-.34375-.51562v-6.1875l-.0625-.04688-2.15625.35938V-6.5l.98437.125c.17188.01563.23438.09375.23438.39063v5.09375c0 .20312-.01563.32812-.07813.40625S2.125-.39062 2.01563-.375l-.875.07813Zm0 0"/><path id="i" d="M-.40625 0h4.73438l.125-.60937-1.15625-.10938c-.26563-.01562-.375-.15625-.375-.34375 0-.125.04687-.28125.10937-.4375.6875-1.32812 1.35938-2.6875 2.14063-4.09375H9.875l.51563 4.32813s-.10938.5-.5625.54687l-1.10938.10938L8.60938 0H13.75l.14063-.60937-.79688-.0625c-.65625-.0625-.73437-.35938-.85937-1.21875L10.70313-14.5h-1.5L5.6875-8.3125C4.60938-6.4375 2.875-3.32812 2.09375-2.07812 1.42188-.98437 1.0625-.76562.42188-.6875l-.6875.07813Zm6-6.40625 3.42188-6.14062.75 6.14062Zm0 0"/><path id="j" d="M0 0h6.35938c5.0625 0 6.07812-2.60937 6.07812-4.34375 0-2.21875-1.625-3.17187-3.15625-3.45312l.01563-.04688c2.78125-.34375 3.96875-1.92187 3.96875-3.5 0-1.70312-1-3.15625-4.85938-3.15625h-5.3125l-.125.60938 1.25.10937c.35938.03125.51563.1875.51563.51563 0 .125-.04688.3125-.09375.51562L2.15625-1.73437c-.15625.6875-.34375.9375-.85937 1l-1.1875.125Zm4.1875-1.60937c0-.15626.03125-.3125.07813-.46875l1.20312-5.375h.8125c2.07813 0 3.90625.60937 3.90625 3 0 1.85937-1.14062 3.71875-3.9375 3.71875-1.65625 0-2.0625-.32813-2.0625-.875M5.625-8.1875l1.09375-4.85937c.15625-.625.26563-.73438 1.67188-.73438 1.75 0 2.73437.89063 2.73437 2.35938 0 2.1875-1.82812 3.23437-4.14062 3.23437Zm0 0"/><path id="k" d="M1.09375-5.75c0 2.76563 1.35938 6.0625 6.54688 6.0625 1.5 0 2.92187-.20312 4.26562-.875l1.03125-3.34375h-.625C11.15625-1.8125 10.09375-.42187 7.51563-.42187c-2.4375 0-4.17188-1.5625-4.17188-4.79688 0-1.89062.48438-4.21875 1.5-5.89062 1.04688-1.75 2.6875-2.98438 4.9375-2.98438 2.65625 0 3.42188 1.23438 3.42188 3.53125h.64062l.76563-3.15625c-1.20313-.75-3.17188-1.10937-4.64063-1.10937-3.95312 0-6.21875 1.84375-7.45312 3.8125-1.15625 1.875-1.42188 3.8125-1.42188 5.26562m0 0"/><clipPath id="a"><path d="M.40234 24H38v76H.40234Zm0 0"/></clipPath></defs><path fill="none" stroke="red" stroke-miterlimit="10" stroke-width=".39641" d="M32.32031 30.44922v12.6914h12.6914v-12.6914h-12.6914"/><path fill="none" stroke="#000" stroke-miterlimit="10" stroke-width=".39641" d="m32.32031 93.89063 126.8789-63.44141H32.32032"/><g clip-path="url(#a)"><path fill="none" stroke="#000" stroke-miterlimit="10" stroke-width=".39641" d="m32.32031 30.4414-4.13672.27344-4.07421.8086-3.92579 1.33594-3.72265 1.83203L13.01172 37l-3.1211 2.73438-2.73437 3.12109-2.3086 3.44922-1.83203 3.72265-1.33593 3.9297-.8086 4.0703-.27343 4.14063.27343 4.13672.8086 4.07422 1.33593 3.92578 1.83204 3.72265 2.3086 3.44922 2.73437 3.1211 3.12109 2.73437 3.44922 2.3086 3.72265 1.83203 3.92579 1.33593 4.07421.8086 4.13672.27344"/></g><path fill="none" stroke="#000" stroke-dasharray="2.9731685308 2.9731685308" stroke-miterlimit="10" stroke-width=".39641" d="M32.32031 30.44922v63.4414"/><use xlink:href="#b" x="26.03465" y="64.64746"/><use xlink:href="#c" x="32.01064" y="64.64746"/><use xlink:href="#d" x="35.05439" y="64.64746"/><use xlink:href="#e" x="40.49522" y="64.64746"/><use xlink:href="#f" x="46.83913" y="64.64746"/><use xlink:href="#g" x="50.69677" y="64.64746"/><use xlink:href="#h" x="58.42319" y="64.64746"/><use xlink:href="#i" x="25.13041" y="116.26158"/><use xlink:href="#j" x="167.0767" y="22.57309"/><use xlink:href="#k" x="25.25277" y="22.26074"/></svg>