<svg xmlns="http://www.w3.org/2000/svg" xmlns:xlink="http://www.w3.org/1999/xlink" width="109.197pt" height="71.855pt" viewBox="0 0 109.197 71.855"><defs><path id="a" d="M.21875 0h1.76563v-.17187c-.60938-.04688-.625-.04688-.625-.39063v-1.40625h.84375c.5 0 .53125.14063.57812.53125h.1875v-1.29687h-.1875c-.04687.39062-.07812.53125-.57812.53125h-.84375V-3.75c0-.20312.01562-.21875.21874-.21875h.59376c.70312 0 .84375.14063.92187.76563h.1875v-.96875H.21875V-4C.75-3.96875.75-3.95312.75-3.60937V-.5625c0 .34375 0 .34375-.53125.39063Zm0 0"/><path id="b" d="M.54688-3.95312c0 .21875.15624.375.375.375.21874 0 .375-.15625.375-.375s-.15626-.35938-.375-.35938c-.21876 0-.375.14063-.375.35938M.1875 0h1.46875v-.17187c-.42187-.03126-.4375-.04688-.4375-.35938V-3l-.04687-.03125-.95313.15625v.14063l.23438.03125c.15625.03125.20312.0625.20312.28125v1.89062c0 .3125-.03125.32813-.46875.35938Zm0 0"/><path id="c" d="M.25.57813c0 .60937.60938.875 1.3125.875.35938 0 .73438-.0625 1.03125-.23438.26563-.17187.46875-.46875.46875-.82812C3.0625-.26562 2.54688-.5 1.90625-.5h-.48437c-.4375 0-.5-.14062-.5-.25 0-.1875.23437-.28125.3125-.29687.10937 0 .23437.01562.29687.01562.57813 0 1.21875-.25 1.21875-.98437 0-.25-.07812-.46875-.1875-.5625l.48438-.07813.125-.375-.04688-.0625-.78125.25c-.15625-.10937-.5-.1875-.78125-.1875-.92187 0-1.23437.5625-1.23437 1.01563 0 .5625.35937.82812.64062.89062v.01563c-.32812.14062-.54687.3125-.54687.54687 0 .20313.23437.4375.53125.46875v.01563C.6875 0 .25.14063.25.57813M.82813.54687c0-.20312.0625-.35937.1875-.45312.14062-.09375.32812-.14062.625-.14062.53125 0 .92187.14062.92187.59375 0 .46875-.4375.70312-.85937.70312-.51563 0-.875-.26562-.875-.70312m.10937-2.5625c0-.59375.3125-.79687.625-.79687.29688 0 .60938.21875.60938.79688 0 .5-.26563.76562-.60938.76562s-.625-.26562-.625-.76562m0 0"/><path id="d" d="m.15625-2.73437.23438.03125c.15625.03125.1875.0625.1875.28125v1.59375c0 .6875.40625.90625.85937.90625.51563 0 .9375-.35938 1.10938-.4375L2.59375 0h.98438v-.17187c-.42188-.03126-.46875-.04688-.46875-.35938V-3l-.04688-.03125-.9375.15625v.14063l.23438.03125c.15625.03125.1875.0625.1875.28125v1.35937c0 .15625-.01563.29688-.04688.35938C2.35938-.4375 2.07813-.25 1.76563-.25c-.35938 0-.60938-.21875-.60938-.6875V-3l-.04687-.03125-.95313.15625Zm0 0"/><path id="e" d="M.1875 0h1.59375v-.17187c-.53125-.03126-.5625-.04688-.5625-.35938V-1.9375c0-.46875.20313-.625.34375-.625.09375 0 .20313.03125.375.14063.04688.01562.07813.03125.125.03125.14063 0 .26563-.15625.26563-.34375 0-.14063-.07813-.29688-.3125-.29688-.21875 0-.40625.125-.79688.48438l-.07812-.48438-.92188.15625v.14063l.23438.03125c.15625.03125.20312.0625.20312.28125v1.89062c0 .3125-.04687.32813-.46875.35938Zm0 0"/><path id="f" d="M.29688-1.45312C.29688-.5.70313.07813 1.6875.07813c.67188 0 1.01563-.375 1.17188-.85938L2.6875-.875c-.17187.35938-.40625.64063-.875.64063-.75 0-.90625-.71875-.89062-1.35938h1.75c.125 0 .23437-.03125.23437-.21875 0-.35937-.125-1.21875-1.21875-1.21875-.95312 0-1.39062.67188-1.39062 1.57813M.9375-1.8125c0-.25.07813-1 .71875-1 .54688 0 .60938.5625.60938.79688 0 .125-.03125.20312-.20313.20312Zm0 0"/><path id="g" d="M.65625 0h1.98438v-.17187L2.125-.21875C2-.23437 1.9375-.28125 1.9375-.51562v-3.5625l-.03125-.03125-1.25.21875V-3.75l.5625.07813c.10938.01562.14063.0625.14063.23437v2.92188c0 .125-.01563.1875-.04688.23437-.03125.04688-.07812.0625-.15625.0625l-.5.04688Zm0 0"/><path id="h" d="M-.23437 0H2.5l.07813-.34375-.67188-.0625C1.75-.42187 1.6875-.5 1.6875-.625c0-.0625.01563-.14062.0625-.23437.39063-.78125.78125-1.5625 1.23438-2.375h2.71875L6-.73437s-.07812.29687-.32812.32812l-.64063.0625L4.96875 0H7.9375l.07813-.34375-.46875-.04687c-.375-.03125-.42188-.20313-.48438-.70313l-.89062-7.26562H5.3125l-2.03125 3.5625c-.625 1.07812-1.625 2.875-2.07812 3.59375C.82813-.5625.625-.4375.25-.40625l-.40625.0625Zm3.46875-3.6875L5.1875-7.23437 5.625-3.6875Zm0 0"/><path id="i" d="M0 0h3.67188c2.90625 0 3.5-1.5 3.5-2.5 0-1.28125-.9375-1.82812-1.82813-2l.01563-.03125c1.60937-.1875 2.29687-1.09375 2.29687-2.01562 0-.96875-.57812-1.8125-2.8125-1.8125h-3.0625l-.07812.34375.73437.0625c.20313.01562.28125.10937.28125.29687 0 .07813-.01562.1875-.04687.29688L1.25-1c-.09375.39063-.20312.53125-.5.57813l-.6875.07812Zm2.42188-.92187c0-.09376.01562-.1875.03125-.28126l.70312-3.09374H3.625c1.20313 0 2.25.34375 2.25 1.71875 0 1.09375-.65625 2.15625-2.28125 2.15625-.9375 0-1.17187-.20313-1.17187-.5m.8125-3.79688L3.875-7.51562c.07813-.35938.15625-.4375.95313-.4375 1.01562 0 1.59375.51562 1.59375 1.375 0 1.25-1.0625 1.85937-2.39063 1.85937Zm0 0"/><path id="j" d="M.625-3.3125c0 1.59375.79688 3.5 3.78125 3.5.85938 0 1.6875-.125 2.45313-.51562L7.45313-2.25h-.35938c-.67187 1.20313-1.26562 2-2.76562 2-1.39063 0-2.40625-.89062-2.40625-2.76562 0-1.09375.29687-2.42188.875-3.39063C3.39063-7.42187 4.34375-8.125 5.64063-8.125c1.53125 0 1.96875.70313 1.96875 2.03125h.375l.4375-1.8125c-.6875-.4375-1.82813-.64062-2.67188-.64062-2.28125 0-3.59375 1.0625-4.29687 2.1875C.78125-5.26562.625-4.15625.625-3.3125m0 0"/></defs><path fill="none" stroke="red" stroke-miterlimit="10" stroke-width=".39559" d="M18.48828 25.0625h7.3164v-7.3164"/><path fill="none" stroke="#000" stroke-miterlimit="10" stroke-width=".39559" d="m18.48828 54.33594 73.17969-36.58985H18.48828m0 .00781-2.38672.15626-2.34765.46875-2.26563.76953-2.14453 1.05469-1.98828 1.33203-1.80078 1.57812-1.57813 1.79688-1.32812 1.98828-1.0586 2.14844-.76953 2.26562-.46484 2.34766-.16016 2.38672.16016 2.38671.46484 2.34375.76953 2.26563 1.0586 2.14844 1.32812 1.98828 1.57813 1.80078 1.80078 1.57422 1.98828 1.33203 2.14453 1.05469 2.26563.76953 2.34765.46875 2.38672.15625"/><path fill="none" stroke="#000" stroke-dasharray="2.967011541 2.967011541" stroke-miterlimit="10" stroke-width=".39559" d="M18.48828 17.7461v36.58984"/><use xlink:href="#a" x="14.8637" y="37.47611"/><use xlink:href="#b" x="18.30934" y="37.47611"/><use xlink:href="#c" x="20.06431" y="37.47611"/><use xlink:href="#d" x="23.20139" y="37.47611"/><use xlink:href="#e" x="26.85917" y="37.47611"/><use xlink:href="#f" x="29.08341" y="37.47611"/><use xlink:href="#g" x="33.53833" y="37.47611"/><use xlink:href="#h" x="14.34253" y="67.23527"/><use xlink:href="#i" x="96.20752" y="13.20559"/><use xlink:href="#j" x="14.41301" y="13.02591"/></svg>