<svg xmlns="http://www.w3.org/2000/svg" xmlns:xlink="http://www.w3.org/1999/xlink" width="104.991pt" height="69.084pt" viewBox="0 0 104.991 69.084"><defs><path id="b" d="M.20313 0h1.70312v-.17187c-.59375-.03126-.60937-.03126-.60937-.35938v-1.35937h.79687c.5 0 .51563.14062.57813.51562h.17187v-1.23437h-.17187c-.0625.35937-.07813.5-.57813.5h-.79687v-1.48438c0-.1875.01562-.20312.20312-.20312h.57813c.67187 0 .79687.14062.875.71875H3.125v-.90625H.20313v.15625c.51562.04687.51562.04687.51562.375v2.92187c0 .32813 0 .32813-.51562.35938Zm0 0"/><path id="c" d="M.53125-3.78125c0 .21875.14063.35938.35938.35938.20312 0 .34375-.14063.34375-.35938 0-.20312-.14063-.34375-.34375-.34375-.21876 0-.35938.14063-.35938.34375M.1875 0h1.40625v-.17187c-.42187-.03126-.4375-.03126-.4375-.32813v-2.35937L1.125-2.89062.21875-2.75v.14063l.21875.03125c.14063.03125.1875.04687.1875.25V-.5c0 .29688-.01562.29688-.4375.32813Zm0 0"/><path id="d" d="M.23438.54688c0 .59375.59375.84375 1.26562.84375.34375 0 .70313-.0625.96875-.23438C2.73438 1 2.9375.71875 2.9375.375c0-.64062-.5-.84375-1.125-.84375h-.45312c-.42188 0-.48438-.14062-.48438-.25 0-.17187.21875-.26562.29688-.28125.10937 0 .23437.01563.29687.01563.54688 0 1.17188-.25 1.17188-.9375 0-.25-.09375-.45313-.1875-.54688l.46875-.07812.10937-.35938-.04687-.04687-.73438.23437c-.15625-.10937-.48437-.17187-.75-.17187-.89062 0-1.1875.53125-1.1875.96875 0 .53125.34375.78125.60938.85937-.3125.125-.51563.29688-.51563.51563 0 .20312.21875.42187.5.45312v.01563C.65625 0 .23438.14063.23438.54688m.5625-.01563c0-.20312.04687-.34375.17187-.4375s.32813-.14062.59375-.14062c.51563 0 .89063.14062.89063.5625 0 .45312-.42188.6875-.82813.6875-.5 0-.82812-.25-.82812-.67188m.09374-2.45312c0-.57813.29688-.78125.60938-.78125.28125 0 .57813.21875.57813.78125 0 .48437-.25.73437-.57813.73437-.32812 0-.60937-.25-.60937-.73437m0 0"/><path id="e" d="m.14063-2.60937.23437.03125c.14063.03125.17188.04687.17188.25v1.53125c0 .65625.40625.85937.82812.85937.48438 0 .89063-.32812 1.0625-.40625L2.48438 0h.9375v-.17187c-.40625-.03126-.4375-.03126-.4375-.32813v-2.35937l-.04688-.03125-.90625.14062v.14063l.21875.03125c.15625.03125.1875.04687.1875.25v1.3125c0 .15624-.01562.28124-.04687.34375-.14063.26562-.40625.4375-.70313.4375-.34375 0-.59375-.21875-.59375-.67188v-1.95312l-.03125-.03125L.14063-2.75Zm0 0"/><path id="f" d="M.1875 0h1.51563v-.17187C1.1875-.20313 1.15625-.20313 1.15625-.5v-1.35937c0-.4375.20313-.59375.34375-.59375.07813 0 .1875.04687.34375.125.04688.03125.09375.03125.125.03125.14063 0 .26563-.14063.26563-.3125 0-.14063-.07813-.28125-.3125-.28125-.20313 0-.375.10937-.76563.45312l-.0625-.45312-.875.14062v.14063l.21875.03125c.14063.03125.1875.04687.1875.25V-.5c0 .29688-.03125.29688-.4375.32813Zm0 0"/><path id="g" d="M.28125-1.39062C.28125-.48437.67188.0625 1.60938.0625c.64062 0 .96875-.34375 1.125-.8125L2.5625-.82812c-.15625.32812-.375.59375-.82812.59375-.71875 0-.85938-.6875-.84375-1.28125h1.65625c.125 0 .23437-.03126.23437-.21876 0-.34374-.10937-1.15624-1.17187-1.15624-.90625 0-1.32813.625-1.32813 1.5m.60938-.34375c0-.25.07812-.96875.6875-.96875.53125 0 .59375.54687.59375.78125 0 .10937-.03125.1875-.1875.1875Zm0 0"/><path id="h" d="M.625 0h1.90625v-.17187l-.5-.03126c-.10937-.01562-.1875-.0625-.1875-.28124v-3.40625l-.03125-.03125-1.1875.20312v.14063l.54688.0625c.09374.01562.125.0625.125.21875v2.8125c0 .10937 0 .17187-.04688.21875-.03125.03125-.07812.04687-.14062.0625L.625-.17188Zm0 0"/><path id="i" d="M-.21875 0h2.60938l.0625-.32812-.64063-.0625c-.14062-.01563-.20312-.09375-.20312-.20313 0-.0625.03124-.14062.0625-.23437.375-.73438.75-1.48438 1.1875-2.26563h2.59375l.28125 2.39063s-.0625.28124-.3125.3125l-.60938.0625L4.75 0h2.84375l.0625-.32812-.4375-.04688C6.85938-.40625 6.8125-.5625 6.75-1.04687L5.90625-8h-.82812l-1.9375 3.40625c-.59375 1.04688-1.54688 2.76563-1.98438 3.45313-.375.59375-.5625.71875-.92187.76562l-.375.04688Zm3.3125-3.53125 1.875-3.39062.42188 3.39062Zm0 0"/><path id="j" d="M0 0h3.5c2.79688 0 3.35938-1.4375 3.35938-2.39062 0-1.21875-.89063-1.75-1.75-1.90625l.01562-.03125c1.54688-.1875 2.1875-1.0625 2.1875-1.9375C7.3125-7.1875 6.76563-8 4.64063-8h-2.9375l-.0625.34375.6875.0625q.28125 0 .28125.28125c0 .0625-.03125.17188-.04688.28125L1.1875-.95312C1.10938-.57812 1-.4375.71875-.40625L.0625-.32812Zm2.3125-.89062c0-.07813.01563-.17188.03125-.25l.67188-2.96875h.45312c1.14063 0 2.15625.32812 2.15625 1.65625C5.625-1.42187 5-.40625 3.4375-.40625c-.90625 0-1.125-.1875-1.125-.48437m.78125-3.625.60938-2.67188c.07812-.34375.14062-.40625.92187-.40625.96875 0 1.51563.48438 1.51563 1.29688 0 1.20312-1.01563 1.78125-2.29688 1.78125Zm0 0"/><path id="k" d="M.60938-3.17187c0 1.53125.75 3.34375 3.60937 3.34375.82813 0 1.60938-.10938 2.34375-.48438l.5625-1.84375h-.34375C6.15625-1 5.57813-.23437 4.14063-.23437c-1.34375 0-2.29688-.85938-2.29688-2.64063 0-1.04687.26563-2.32812.82813-3.25.57812-.96875 1.48437-1.64062 2.71875-1.64062 1.46875 0 1.89062.67187 1.89062 1.9375h.35938l.40625-1.73438C7.39063-7.98437 6.3125-8.17187 5.5-8.17187c-2.1875 0-3.4375 1.01562-4.10937 2.09375C.75-5.04687.60938-3.96875.60938-3.17187m0 0"/><clipPath id="a"><path d="M.6836 11H24v47H.6836Zm0 0"/></clipPath></defs><path fill="none" stroke="red" stroke-miterlimit="10" stroke-width=".39328" d="M18.36328 16.78126v6.9961h6.9961v-6.9961h-6.9961"/><path fill="none" stroke="#000" stroke-miterlimit="10" stroke-width=".39328" d="m18.36328 51.7539 69.94139-34.97264H18.36328"/><g clip-path="url(#a)"><path fill="none" stroke="#000" stroke-miterlimit="10" stroke-width=".39328" d="m18.36328 16.78126-2.28125.15234-2.24219.44532-2.16796.73437-2.05078 1.01172-1.90235 1.27344L6 21.90625l-1.5078 1.71876-1.26954 1.90234-1.01172 2.05078-.73437 2.16406-.44532 2.2422-.15234 2.28515.15234 2.28125.44532 2.24218.73437 2.16406 1.01172 2.0547 1.26953 1.89843L6 46.6328l1.71875 1.50782 1.90235 1.26953 2.05078 1.01172 2.16796.73437 2.2422.44531 2.28124.15235"/></g><path fill="none" stroke="#000" stroke-dasharray="2.9497062153 2.9497062153" stroke-miterlimit="10" stroke-width=".39328" d="M18.36328 16.78126v34.97265"/><use xlink:href="#b" x="14.89801" y="35.6355"/><use xlink:href="#c" x="18.19797" y="35.6355"/><use xlink:href="#d" x="19.8756" y="35.6355"/><use xlink:href="#e" x="22.87444" y="35.6355"/><use xlink:href="#f" x="26.37104" y="35.6355"/><use xlink:href="#g" x="28.49727" y="35.6355"/><use xlink:href="#h" x="32.75588" y="35.6355"/><use xlink:href="#i" x="14.40061" y="64.0833"/><use xlink:href="#j" x="92.64515" y="12.44104"/><use xlink:href="#k" x="14.46772" y="12.26932"/></svg>