<svg xmlns="http://www.w3.org/2000/svg" xmlns:xlink="http://www.w3.org/1999/xlink" width="246.438pt" height="254.907pt" viewBox="0 0 246.438 254.907"><defs><path id="a" d="M1.8125-5.92187c0 4.73437 1.07813 9.95312 5.51563 10.125v-.625c-1.5-.29688-3.84375-2.14063-3.84375-9.5 0-7.3125 2.23437-9.17188 3.84375-9.5v-.625c-4.4375.17187-5.51563 5.375-5.51563 10.125m0 0"/><path id="b" d="M1.5625-2.53125C1.5625-1.15625 1.96875.25 3.67188.25c2.40625 0 4.28125-2.57812 5.51562-4.82812h.04688l-.6875 2.5c-.125.42187-.1875.79687-.1875 1.10937C8.35938-.17187 8.71875.25 9.45313.25c1.65625 0 2.75-1.4375 3.46875-3.01562l-.48438-.29688c-.39062.73438-1.32812 2.21875-1.90625 2.21875-.25 0-.32812-.15625-.32812-.40625 0-.20312.0625-.45312.125-.73437L13.64063-15.5l-.10938-.07812-3.73437.48437-.10938.5 1.25.10938c.32813.01562.46875.10937.46875.35937q0 .16406-.09375.51563l-.79687 3.375-.04688.03125c-.40625-.1875-1.0625-.34375-1.76562-.34375-4.90625 0-7.14063 5.46875-7.14063 8.01562m2.07813.1875c0-2.28125 1.84375-7.46875 5.1875-7.46875.65625 0 1.21875.20313 1.45312.42188-.3125 1.60937-1 3.59375-2.07812 5.34375-1 1.625-2.39063 3.20312-3.5 3.20312-.67188 0-1.0625-.5625-1.0625-1.5m0 0"/><path id="c" d="M1.25 3.57813v.625c4.45313-.17188 5.53125-5.39063 5.53125-10.125 0-4.75-1.07812-9.95313-5.53125-10.125v.625c1.60938.32812 3.84375 2.1875 3.84375 9.5 0 7.35937-2.34375 9.20312-3.84375 9.5m0 0"/><path id="k" d="M-.40625 0h4.75l.125-.60937L3.3125-.71875c-.26562-.01562-.39062-.15625-.39062-.35937 0-.10938.04687-.26563.125-.42188.6875-1.34375 1.35937-2.70312 2.14062-4.10937h4.71875l.51563 4.32812s-.10938.51563-.5625.5625L8.75-.60937 8.625 0h5.17188l.14062-.60937-.8125-.0625c-.65625-.0625-.73437-.35938-.84375-1.23438l-1.54687-12.625h-1.5l-3.53125 6.1875c-1.07813 1.875-2.8125 5.01563-3.59375 6.26563C1.4375-.98437 1.07813-.76562.42188-.6875l-.6875.07813Zm6.01563-6.42187 3.42187-6.17188.76563 6.17188Zm0 0"/><path id="l" d="M0 0h6.375c5.07813 0 6.09375-2.60937 6.09375-4.35937 0-2.21875-1.625-3.17188-3.17187-3.46875l.03125-.04688c2.79687-.32812 3.96875-1.92187 3.96875-3.5 0-1.70312-1-3.15625-4.875-3.15625h-5.3125l-.14063.59375 1.25.125c.35938.01563.51563.17188.51563.51563 0 .125-.03125.3125-.07813.5L2.17188-1.75c-.15625.70313-.35938.9375-.875 1.01563l-1.1875.125Zm4.20313-1.60937c0-.15626.01562-.3125.0625-.46875l1.21875-5.39063h.82812c2.07813 0 3.90625.60938 3.90625 3 0 1.875-1.14062 3.73438-3.95312 3.73438-1.65625 0-2.0625-.34375-2.0625-.875m1.4375-6.59375 1.09375-4.875c.15625-.625.26562-.73438 1.67187-.73438 1.76563 0 2.75.89063 2.75 2.35938 0 2.20312-1.82812 3.25-4.15625 3.25Zm0 0"/><path id="m" d="M1.09375-5.76562C1.09375-3 2.45313.3125 7.67188.3125c1.5 0 2.92187-.20312 4.26562-.875l1.03125-3.34375h-.625C11.17188-1.8125 10.125-.42187 7.53125-.42187c-2.4375 0-4.17187-1.5625-4.17187-4.8125 0-1.89063.48437-4.21875 1.5-5.90625C5.90625-12.90625 7.5625-14.125 9.8125-14.125c2.65625 0 3.42188 1.21875 3.42188 3.53125h.65625l.75-3.15625C13.4375-14.51562 11.46875-14.875 10-14.875c-3.96875 0-6.25 1.85938-7.46875 3.82813-1.17187 1.875-1.4375 3.82812-1.4375 5.28125m0 0"/><path id="d" d="M.375 0h3.09375v-.29687C2.39063-.375 2.35938-.375 2.35938-.96875V-3.4375h1.46875c.89062 0 .9375.25 1.03125.92188h.3125v-2.25h-.3125c-.09375.67187-.14063.92187-1.03125.92187H2.35938v-2.6875c0-.34375.03125-.375.375-.375h1.04687c1.21875 0 1.46875.23438 1.60938 1.3125h.3125v-1.67187H.375v.29687c.92188.0625.9375.07813.9375.67188v5.32812c0 .59375-.01562.59375-.9375.67188Zm0 0"/><path id="e" d="M.96875-6.875c0 .375.26563.64063.64063.64063S2.25-6.5 2.25-6.875c0-.39062-.26562-.64062-.64062-.64062s-.64063.25-.64063.64062M.32813 0h2.5625v-.29687c-.75-.0625-.78125-.07813-.78125-.625v-4.29688l-.07813-.0625-1.64062.26563V-4.75l.39062.04688c.26563.04687.34375.09375.34375.46875v3.3125c0 .54687-.03125.5625-.79687.625Zm0 0"/><path id="f" d="M.4375 1c0 1.0625 1.0625 1.54688 2.28125 1.54688.625 0 1.28125-.125 1.79688-.4375.46875-.28125.82812-.79688.82812-1.4375 0-1.14063-.90625-1.53125-2.03125-1.53125h-.84375c-.75 0-.875-.26563-.875-.45313 0-.3125.40625-.48437.54688-.51562.20312.01562.42187.03124.53125.03124 1 0 2.125-.4375 2.125-1.71874 0-.4375-.14063-.79688-.32813-.98438l.84375-.125.21875-.67187L5.4375-5.375l-1.34375.42188c-.29687-.20313-.89062-.32813-1.35937-.32813-1.60938 0-2.17188.98438-2.17188 1.76563 0 .98437.64063 1.45312 1.125 1.5625v.03124c-.5625.21876-.95312.51563-.95312.9375 0 .375.42187.76563.92187.8125v.03126C1.20313 0 .4375.25.4375 1m1-.03125c0-.35937.10938-.64062.32813-.79687.23437-.1875.57812-.25 1.09375-.25.92187 0 1.60937.23437 1.60937 1.01562 0 .84375-.76562 1.25-1.51562 1.25-.89063 0-1.51563-.46875-1.51563-1.21875m.20313-4.48437c0-1.03125.53125-1.39063 1.09375-1.39063.51562 0 1.04687.375 1.04687 1.39063 0 .89062-.45312 1.34375-1.0625 1.34375-.59375 0-1.07812-.45313-1.07812-1.34375m0 0"/><path id="g" d="m.26563-4.75.40625.04688C.9375-4.65625 1-4.60937 1-4.23437v2.78125C1-.25 1.71875.125 2.5.125c.90625 0 1.625-.60937 1.9375-.75L4.53125 0h1.6875v-.29687C5.5-.35937 5.42188-.375 5.42188-.92187v-4.29688l-.07813-.0625-1.64062.26563V-4.75l.40625.04688c.26562.04687.32812.09375.32812.46875v2.375c0 .29687-.03125.53125-.07812.625-.25.48437-.75.79687-1.29688.79687C2.45313-.4375 2-.82812 2-1.64062v-3.57813l-.07812-.0625-1.65625.26563Zm0 0"/><path id="h" d="M.32813 0h2.78125v-.29687c-.9375-.0625-1-.07813-1-.625V-3.375c0-.8125.35937-1.09375.60937-1.09375.17188 0 .34375.07813.65625.23438.07813.04687.15625.0625.20313.0625.26562 0 .48437-.26563.48437-.59375 0-.23438-.14062-.51563-.5625-.51563-.375 0-.6875.21875-1.39062.84375l-.125-.84375-1.59375.26563V-4.75l.39062.04688c.26563.04687.34375.09375.34375.46875v3.3125c0 .54687-.04687.5625-.79687.625Zm0 0"/><path id="i" d="M.51563-2.54687C.51563-.875 1.23438.125 2.9375.125c1.17188 0 1.76563-.65625 2.04688-1.48437l-.3125-.15626c-.28125.60938-.6875 1.10938-1.51563 1.10938-1.3125 0-1.5625-1.26562-1.54687-2.35937h3.03125c.21875 0 .42187-.04688.42187-.40625 0-.60938-.20312-2.10938-2.125-2.10938-1.65625 0-2.42187 1.17188-2.42187 2.73438m1.10937-.625c0-.4375.15625-1.73438 1.25-1.73438.96875 0 1.07813.98438 1.07813 1.40625 0 .20313-.0625.32813-.34375.32813Zm0 0"/><path id="j" d="M1.14063 0h3.45312v-.29687l-.875-.07813C3.48438-.40625 3.375-.48437 3.375-.89062v-6.20313l-.0625-.0625-2.17187.375v.26563l.98437.10937c.17188.03125.25.10938.25.40625v5.10938c0 .20312-.03125.3125-.09375.39062-.0625.09375-.14062.10938-.25.125l-.89062.07813Zm0 0"/><path id="n" d="M.28125-.09375.39063 0H4.75l.34375-1.39062-.28125-.04688c-.21875.5625-.4375.64063-.85937.64063h-2.6875c.17187-.54688.79687-1.29688 1.76562-2 1-.73438 1.79688-1.20313 1.79688-2.39063 0-1.45312-.98438-1.96875-2.09375-1.96875-1.4375 0-2.17188.875-2.17188 1.42188 0 .35937.40625.53125.57813.53125.1875 0 .26562-.10938.29687-.29688.17188-.70312.59375-1.28125 1.23438-1.28125.8125 0 1.04687.67188 1.04687 1.4375 0 1.14063-.57812 1.78125-1.5 2.57813C.92188-1.64062.48438-.92187.28125-.09375m0 0"/><path id="o" d="M.65625-.79687c0 .07812.17188.21874.375.21874.125 0 .35938-.03124.39063-.125L4.0625-7.4375c.09375-.21875.10938-.34375.10938-.40625 0-.3125-.5-.4375-.95313-.4375-.4375 0-1.14062.17188-1.1875.45313Zm0 0"/></defs><path fill="none" stroke="#000" stroke-miterlimit="10" stroke-width=".39759" d="m63.83203 94.41016 127.25785-63.62502H63.83203m0-.00782-4.15234.27344-4.08204.8086-3.9414 1.33984-3.73047 1.83984-3.46094 2.3125-3.1289 2.7461-2.7422 3.1289-2.3164 3.45704-1.83594 3.73438-1.33985 3.9414-.8125 4.08204-.27344 4.15234.27344 4.15235.8125 4.08203 1.33985 3.9414 1.83594 3.73438 2.3164 3.45703 2.7422 3.13282 3.1289 2.74219 3.46094 2.3125 3.73047 1.83984 3.9414 1.33984 4.08204.8086 4.15234.27344M.1992 126.23048h222.72272"/><use xlink:href="#a" x="207.38107" y="114.11991"/><use xlink:href="#b" x="215.9692" y="114.11991"/><use xlink:href="#c" x="229.83547" y="114.11991"/><use xlink:href="#d" x="57.52681" y="65.08274"/><use xlink:href="#e" x="63.5318" y="65.08274"/><use xlink:href="#f" x="66.58461" y="65.08274"/><use xlink:href="#g" x="72.04166" y="65.08274"/><use xlink:href="#h" x="78.40448" y="65.08274"/><use xlink:href="#i" x="82.27361" y="65.08274"/><use xlink:href="#j" x="90.02306" y="65.08274"/><use xlink:href="#k" x="56.62088" y="116.85068"/><use xlink:href="#l" x="198.9902" y="22.88297"/><use xlink:href="#m" x="56.7436" y="22.56969"/><path fill="none" stroke="#000" stroke-miterlimit="10" stroke-width=".39759" d="m63.83203 158.0469 127.25785 63.62892H63.83203"/><use xlink:href="#d" x="57.52681" y="192.3515"/><use xlink:href="#e" x="63.5318" y="192.3515"/><use xlink:href="#f" x="66.58461" y="192.3515"/><use xlink:href="#g" x="72.04166" y="192.3515"/><use xlink:href="#h" x="78.40448" y="192.3515"/><use xlink:href="#i" x="82.27361" y="192.3515"/><use xlink:href="#n" x="90.02306" y="192.3515"/><path fill="none" stroke="#000" stroke-miterlimit="10" stroke-width=".39759" d="m63.83203 158.0469-4.15234.27343-4.08204.8125-3.9414 1.33594-3.73047 1.83984-3.46094 2.31641-3.1289 2.74219-2.7422 3.1289-2.3164 3.46095-1.83594 3.73046-1.33985 3.94141-.8125 4.08203-.27344 4.15235.27344 4.15234.8125 4.08594 1.33985 3.9375 1.83594 3.73438 2.3164 3.46094 2.7422 3.1289 3.1289 2.7422 3.46094 2.3125 3.73047 1.83984 3.9414 1.33984 4.08204.8125 4.15234.27344"/><use xlink:href="#k" x="53.33437" y="150.14475"/><use xlink:href="#o" x="68.65344" y="141.1989"/><use xlink:href="#l" x="198.9902" y="246.80332"/><use xlink:href="#o" x="213.68295" y="237.85747"/><use xlink:href="#m" x="52.96521" y="246.80332"/><use xlink:href="#o" x="69.02284" y="237.85747"/></svg>