<svg xmlns="http://www.w3.org/2000/svg" xmlns:xlink="http://www.w3.org/1999/xlink" width="704.22pt" height="89.263pt" viewBox="0 0 704.22 89.263"><defs><path id="b" d="M1.59375-5.23437c0 4.1875.95313 8.79687 4.89063 8.95312v-.5625c-1.32813-.25-3.40625-1.89062-3.40625-8.39062 0-6.46875 1.98437-8.10938 3.40625-8.40625v-.54688c-3.9375.15625-4.89063 4.76563-4.89063 8.95313m0 0"/><path id="c" d="M1.39063-2.23437c0 1.20312.34375 2.45312 1.84375 2.45312C5.375.21875 7.03125-2.0625 8.125-4.04687h.03125l-.60937 2.20312c-.09375.375-.15625.71875-.15625 1 0 .6875.3125 1.0625.96875 1.0625 1.46875 0 2.4375-1.26562 3.0625-2.67187l-.4375-.25C10.65625-2.0625 9.82813-.75 9.3125-.75c-.21875 0-.29687-.14062-.29687-.35937 0-.17188.0625-.39063.10937-.65625l2.9375-11.9375-.10937-.07813-3.29688.4375-.09375.4375 1.10938.09375c.29687.03125.40625.10938.40625.32813 0 .09375-.01563.25-.07813.45312l-.70312 2.98438-.04688.03125c-.35937-.17188-.92187-.3125-1.5625-.3125-4.32812 0-6.29687 4.84375-6.29687 7.09375m1.82812.15625c0-2.01563 1.625-6.59375 4.59375-6.59375.5625 0 1.0625.17187 1.28125.375C8.8125-6.875 8.20313-5.125 7.25-3.57812 6.35938-2.14062 5.14063-.75 4.15625-.75c-.59375 0-.9375-.5-.9375-1.32812m0 0"/><path id="e" d="M1.10938 3.15625v.5625c3.9375-.15625 4.875-4.76562 4.875-8.95312s-.9375-8.79688-4.875-8.95313v.54688C2.53125-13.34375 4.5-11.70312 4.5-5.23437c0 6.5-2.0625 8.14062-3.39062 8.39062m0 0"/><path id="d" d="M1.40625 0h4.35938v-.40625L4.73438-.5c-.29688-.03125-.4375-.125-.4375-.60937v-7.65625l-.07813-.07813-2.79687.48438v.34375l1.125.14062c.25.04688.32812.14063.32812.54688v6.21875c0 .48437-.125.57812-.42187.60937l-1.04688.09375Zm0 0"/><path id="f" d="M.375-.15625.53125 0h5.5L6.5-1.85937l-.39062-.0625c-.29688.6875-.53125.78125-1.0625.78125h-3.3125C1.9375-1.75 2.625-2.625 3.89063-3.46875c1.3125-.89062 2.25-1.5 2.25-2.92187 0-1.8125-1.23438-2.45313-2.67188-2.45313-1.76562 0-2.78125 1.03125-2.78125 1.8125 0 .48438.54688.70313.8125.70313.25 0 .375-.14063.4375-.39063.20313-.92187.6875-1.64062 1.45313-1.64062.90625 0 1.20312.79687 1.20312 1.73437 0 1.26563-.5625 2.09375-1.78125 3.14063C1.14063-2.0625.5625-1.125.375-.15625m0 0"/><clipPath id="a"><path d="M2.4961 26H684v62.53125H2.4961Zm0 0"/></clipPath></defs><path fill="none" stroke="#000" stroke-miterlimit="10" stroke-width=".39524" d="M452.5273 32.10548H58.92577"/><g clip-path="url(#a)"><path fill="none" stroke="#000" stroke-miterlimit="10" stroke-width=".39524" d="m2.69531 88.33594 674.74993-56.23046"/></g><use xlink:href="#b" x="403.27654" y="20.77646"/><use xlink:href="#c" x="410.8652" y="20.77646"/><use xlink:href="#d" x="421.33941" y="25.12456"/><use xlink:href="#e" x="429.53772" y="20.77646"/><use xlink:href="#b" x="660.51267" y="53.27712"/><use xlink:href="#c" x="668.10132" y="53.27712"/><use xlink:href="#f" x="678.57554" y="57.62522"/><use xlink:href="#e" x="686.77385" y="53.27712"/></svg>