<svg xmlns="http://www.w3.org/2000/svg" xmlns:xlink="http://www.w3.org/1999/xlink" width="870.221pt" height="178.981pt" viewBox="0 0 870.221 178.981"><defs><path id="b" d="M1.8125-5.9375c0 4.75 1.07813 9.96875 5.53125 10.14063v-.625C5.84375 3.29688 3.5 1.4375 3.5-5.9375c0-7.3125 2.23438-9.17187 3.84375-9.51562v-.625C2.89063-15.89062 1.8125-10.6875 1.8125-5.9375m0 0"/><path id="c" d="M1.5625-2.53125C1.5625-1.17187 1.96875.25 3.67188.25c2.42187 0 4.29687-2.57812 5.53125-4.84375H9.25l-.70312 2.51563c-.10938.42187-.17188.79687-.17188 1.10937C8.375-.17187 8.73438.25 9.46875.25c1.65625 0 2.75-1.4375 3.46875-3.03125l-.48437-.28125c-.39063.73438-1.32813 2.21875-1.90625 2.21875-.25 0-.34375-.15625-.34375-.40625 0-.20312.07812-.45312.14062-.75l3.3125-13.51562-.10937-.09375-3.73438.5-.125.48437 1.26563.10938c.32812.03125.46875.125.46875.35937q0 .1875-.09375.51563L10.53125-10.25l-.04687.04688c-.40625-.20313-1.0625-.35938-1.78125-.35938-4.89063 0-7.14063 5.48438-7.14063 8.03125m2.09375.1875c0-2.29687 1.82813-7.48437 5.1875-7.48437.65625 0 1.20313.20312 1.45313.42187-.3125 1.60938-1 3.60938-2.07813 5.35938-1.01562 1.625-2.39062 3.20312-3.51562 3.20312-.67188 0-1.04688-.5625-1.04688-1.5m0 0"/><path id="d" d="M1.25 3.57813v.625C5.70313 4.03125 6.78125-1.1875 6.78125-5.9375S5.70313-15.89062 1.25-16.07812v.625c1.60938.34375 3.85938 2.20312 3.85938 9.51562 0 7.375-2.35938 9.23438-3.85938 9.51563m0 0"/><path id="f" d="m3.04688-2.28125.875.875L7.5625-5.07812l3.67188 3.67187.85937-.875L8.4375-5.9375l3.65625-3.67187-.85937-.84375L7.5625-6.8125l-3.64062-3.64062-.875.84375L6.71875-5.9375Zm0 0"/><clipPath id="a"><path d="M45 .07031h114V98H45Zm0 0"/></clipPath><clipPath id="e"><path d="M392 20h165v158.89063H392Zm0 0"/></clipPath></defs><g clip-path="url(#a)"><path fill="none" stroke="#000" stroke-miterlimit="10" stroke-width=".39815" d="M51.1758 92.03125 153.13678 35.9531 102.15628.2695Zm0 0"/></g><path fill="none" stroke="#000" stroke-miterlimit="10" stroke-width=".39815" d="m.19922 102.22656 254.89463-50.98049"/><use xlink:href="#b" x="239.54656" y="75.24026"/><use xlink:href="#c" x="248.14659" y="75.24026"/><use xlink:href="#d" x="262.03204" y="75.24026"/><path fill="none" stroke="#000" stroke-miterlimit="10" stroke-width=".39815" d="M459.00798 76.73437c0-28.15236-22.82422-50.97659-50.98048-50.97659-28.15236 0-50.97659 22.82423-50.97659 50.97659 0 28.15626 22.82423 50.98048 50.97659 50.98048 28.15626 0 50.98048-22.82422 50.98048-50.98048Zm0 0"/><g clip-path="url(#e)"><path fill="none" stroke="#000" stroke-miterlimit="10" stroke-width=".39815" d="M397.83218 178.69143 550.76974 25.75778"/></g><use xlink:href="#b" x="558.67489" y="49.75107"/><use xlink:href="#c" x="567.27491" y="49.75107"/><use xlink:href="#d" x="581.16036" y="49.75107"/><use xlink:href="#f" x="400.45352" y="81.96524"/><path fill="none" stroke="#000" stroke-miterlimit="10" stroke-width=".39815" d="M693.50807 127.71485h101.96098l-76.46878-76.46878Zm-50.97657-25.48829h203.91413"/><use xlink:href="#b" x="830.89221" y="90.10295"/><use xlink:href="#c" x="839.49223" y="90.10295"/><use xlink:href="#d" x="853.37768" y="90.10295"/></svg>