<svg xmlns="http://www.w3.org/2000/svg" xmlns:xlink="http://www.w3.org/1999/xlink" width="160.92pt" height="88.397pt" viewBox="0 0 160.92 88.397"><defs><path id="a" d="m1.75-1.3125.5.5 2.09375-2.10937L6.45313-.8125l.48437-.5-2.09375-2.09375L6.9375-5.51562 6.45313-6 4.34375-3.90625 2.25-6l-.5.48438 2.10938 2.10937Zm0 0"/><path id="b" d="M.625-3.3125c0 1.59375.79688 3.5 3.78125 3.5.85938 0 1.6875-.125 2.45313-.51562L7.45313-2.25h-.35938c-.67187 1.20313-1.26562 2-2.76562 2-1.39063 0-2.40625-.89062-2.40625-2.76562 0-1.09375.29687-2.42188.875-3.39063C3.39063-7.42187 4.34375-8.125 5.64063-8.125c1.53125 0 1.96875.70313 1.96875 2.03125h.375l.4375-1.8125c-.6875-.4375-1.82813-.64062-2.67188-.64062-2.28125 0-3.59375 1.0625-4.29687 2.1875C.78125-5.26562.625-4.15625.625-3.3125m0 0"/><path id="c" d="M0 0h3.70313c2.42187 0 3.8125-.875 4.6875-2.1875.70312-1.04687.8125-2.0625.8125-2.78125 0-.96875-.34375-1.95312-1.03125-2.53125-.71875-.59375-1.79688-.85937-3.125-.85937H1.78125l-.07812.34375.73437.0625c.20313 0 .28125.10937.28125.29687 0 .07813-.01562.1875-.04687.29688L1.23438-1c-.09376.39063-.1875.54688-.48438.57813l-.6875.07812Zm2.39063-.89062c0-.04688 0-.09376.01562-.15626L3.85938-7.5c.09375-.40625.26562-.45312 1.32812-.45312 2.51563.0625 2.71875 1.75 2.71875 2.71875 0 1.04687-.23437 2.01562-.78125 2.92187-.70312 1.125-1.71875 1.89063-3.73437 1.89063-.59375 0-1-.07813-1-.46875m0 0"/><path id="f" d="M1.04688-3.40625c0 2.71875.60937 5.71875 3.17187 5.82813V2.0625C3.35938 1.89063 2 .82813 2-3.40625 2-7.60937 3.29688-8.6875 4.21875-8.875v-.35937c-2.5625.10937-3.17187 3.09375-3.17187 5.82812m0 0"/><path id="g" d="M.90625-1.45312c0 .78125.21875 1.59375 1.20313 1.59375 1.39062 0 2.46875-1.48438 3.17187-2.78125h.03125l-.40625 1.4375q-.09375.375-.09375.65625c0 .4375.20313.6875.625.6875.95313 0 1.57813-.82813 2-1.73438l-.28125-.17187C6.9375-1.34375 6.39063-.48437 6.0625-.48437c-.14062 0-.20312-.09375-.20312-.23438 0-.10937.04687-.26562.07812-.42187l1.90625-7.76563-.0625-.0625L5.625-8.6875l-.0625.29688.71875.0625c.20313.01562.28125.0625.28125.20312 0 .0625-.01562.17188-.0625.29688l-.45312 1.9375-.03125.03125C5.78125-5.98437 5.40625-6.0625 5-6.0625c-2.8125 0-4.09375 3.14063-4.09375 4.60938m1.1875.10937c0-1.3125 1.0625-4.29687 2.98438-4.29687.375 0 .70312.10937.84375.23437-.1875.9375-.57813 2.07813-1.20313 3.07813-.57812.9375-1.375 1.84375-2.01562 1.84375-.39063 0-.60938-.32813-.60938-.85938m0 0"/><path id="h" d="M.71875 2.0625v.35938C3.28125 2.3125 3.89063-.6875 3.89063-3.40625c0-2.73437-.60938-5.71875-3.17188-5.82812v.35937c.92188.1875 2.21875 1.26563 2.21875 5.46875 0 4.23438-1.35937 5.29688-2.21875 5.46875m0 0"/><path id="d" d="M.375-.125c0 .04688.10938.125.21875.125.07813 0 .20313-.01562.21875-.07812L2.32813-3.9375c.0625-.125.0625-.20312.0625-.23437 0-.1875-.28125-.25-.53125-.25s-.65625.09375-.6875.25Zm0 0"/><clipPath id="e"><path d="M.5039 43H148v2H.5039Zm0 0"/></clipPath></defs><use xlink:href="#a" x="32.963" y="83.51033"/><use xlink:href="#b" x="24.61097" y="75.78205"/><use xlink:href="#a" x="106.17955" y="10.29477"/><use xlink:href="#c" x="115.07189" y="20.19722"/><use xlink:href="#a" x="32.963" y="10.29477"/><use xlink:href="#b" x="20.26462" y="21.41194"/><use xlink:href="#d" x="29.50052" y="16.26654"/><use xlink:href="#a" x="106.17955" y="83.51033"/><use xlink:href="#c" x="115.07189" y="75.96183"/><use xlink:href="#d" x="125.07993" y="70.81643"/><g clip-path="url(#e)"><path fill="none" stroke="#000" stroke-miterlimit="10" stroke-width=".3958" d="M.7031 43.89844h146.43364"/></g><path fill="none" stroke="red" stroke-miterlimit="10" stroke-width=".3958" d="M37.30858 36.57812h7.32032v7.32032m65.89845-7.32032h7.32032v7.32032"/><use xlink:href="#f" x="138.19317" y="36.93604"/><use xlink:href="#g" x="143.13283" y="36.93604"/><use xlink:href="#h" x="151.10831" y="36.93604"/><path fill="none" stroke="#000" stroke-miterlimit="10" stroke-width=".3958" d="m37.30858 80.50782 73.21877-73.21486m-73.21877 0 73.21877 73.21486"/><path fill="none" stroke="red" stroke-miterlimit="10" stroke-width=".3958" d="m40.28515 62.44922-5.9375-.49609m5.9375-36.10548-5.9375-.4961m73.20315.00001 5.9375.4961m-5.9375 36.10547 5.9375.4961"/><path fill="none" stroke="#000" stroke-dasharray="2.9685956209 2.9685956209" stroke-miterlimit="10" stroke-width=".3958" d="M37.30858 80.50782V7.29296m73.21877 0v73.21486"/></svg>