<svg xmlns="http://www.w3.org/2000/svg" xmlns:xlink="http://www.w3.org/1999/xlink" width="160.68pt" height="106.698pt" viewBox="0 0 160.68 106.698"><defs><path id="c" d="M1-3.29687c0 2.64062.60938 5.53125 3.07813 5.625v-.34375C3.23438 1.82812 1.9375.79688 1.9375-3.29687c0-4.0625 1.25-5.09375 2.14063-5.28125v-.34375C1.60938-8.8125 1-5.92187 1-3.29687m0 0"/><path id="d" d="M.875-1.40625c0 .76563.21875 1.54688 1.15625 1.54688 1.34375 0 2.39063-1.4375 3.07813-2.6875H5.125L4.75-1.15625c-.0625.23438-.10937.45313-.10937.625 0 .4375.20312.67188.60937.67188.92188 0 1.53125-.79688 1.9375-1.6875l-.28125-.15626c-.20312.40626-.73437 1.23438-1.0625 1.23438-.125 0-.17187-.09375-.17187-.23437 0-.10938.03125-.23438.0625-.40625l1.84375-7.5-.0625-.04688-2.07813.26563-.0625.28125.70313.0625c.1875.01562.25.0625.25.20312 0 .0625 0 .15625-.04688.28125l-.4375 1.875-.03125.01563c-.21875-.10938-.57812-.1875-.98437-.1875C2.10938-5.85937.875-2.8125.875-1.40625m1.15625.10938c0-1.28125 1.01563-4.15625 2.875-4.15625.35938 0 .67188.10937.8125.23437-.17187.89063-.5625 2-1.15625 2.96875C4-1.34375 3.23438-.46875 2.60938-.46875c-.375 0-.57813-.3125-.57813-.82812m0 0"/><path id="e" d="M.70313 1.98438v.34375c2.46875-.09375 3.0625-2.98438 3.0625-5.625 0-2.625-.59375-5.51563-3.0625-5.625v.34375c.89062.1875 2.125 1.21875 2.125 5.28125 0 4.09375-1.29688 5.125-2.125 5.28125m0 0"/><path id="f" d="m1.6875-1.26562.48438.48437L4.20313-2.8125 6.23438-.78125l.46875-.48437L4.6875-3.29687l2.01563-2.03125-.46875-.46875-2.03125 2.01562-2.03125-2.01562-.48438.46875 2.03125 2.03125Zm0 0"/><clipPath id="a"><path d="M.0664 0H77v77H.0664Zm0 0"/></clipPath><clipPath id="b"><path d="M22 0h119v106.39844H22Zm0 0"/></clipPath></defs><g clip-path="url(#a)"><path fill="none" stroke="#000" stroke-miterlimit="10" stroke-width=".39738" d="M70.92968 35.53124C70.92968 16.01561 55.11327.1992 35.59764.1992S.26559 16.0156.26559 35.53124 16.082 70.8633 35.59764 70.8633c19.51563 0 35.33204-15.81641 35.33204-35.33205Zm0 0"/></g><g clip-path="url(#b)"><path fill="none" stroke="#000" stroke-miterlimit="10" stroke-width=".39738" d="M28.53123 106.19924 134.53127.1992"/></g><use xlink:href="#c" x="138.9192" y="13.50278"/><use xlink:href="#d" x="143.68777" y="13.50278"/><use xlink:href="#e" x="151.38702" y="13.50278"/><use xlink:href="#f" x="31.40152" y="38.43122"/></svg>