<svg xmlns="http://www.w3.org/2000/svg" xmlns:xlink="http://www.w3.org/1999/xlink" width="704.22pt" height="155.51pt" viewBox="0 0 704.22 155.51"><defs><path id="b" d="m2.70313-2.03125.76562.78125 3.25-3.26562 3.25 3.26562.75-.78125-3.23437-3.23437 3.23437-3.25-.75-.76563-3.25 3.25-3.25-3.25-.76562.76563 3.25 3.25Zm0 0"/><path id="c" d="M-.35937 0h4.21875l.10937-.53125L2.9375-.64062c-.23437-.01563-.32812-.14063-.32812-.3125 0-.09376.03125-.23438.09375-.375.60937-1.1875 1.20312-2.40625 1.90625-3.65625h4.1875L9.25-1.125s-.09375.45313-.48437.48438l-1 .10937L7.67188 0H12.25l.125-.53125-.71875-.0625c-.57812-.0625-.65625-.3125-.75-1.09375l-1.375-11.21875H8.20313l-3.14063 5.5c-.95312 1.67188-2.5 4.45313-3.20312 5.5625C1.26563-.875.95313-.67187.375-.60937l-.60937.07812Zm5.34375-5.70312 3.03125-5.48438.6875 5.48438Zm0 0"/><path id="d" d="M0 0h5.65625c4.51563 0 5.42188-2.32812 5.42188-3.875 0-1.96875-1.45313-2.8125-2.8125-3.07812l.01562-.03125c2.48438-.29688 3.53125-1.71875 3.53125-3.125 0-1.51563-.89062-2.79688-4.32812-2.79688H2.76563l-.125.53125 1.10937.10938c.32813.01562.45313.15625.45313.45312 0 .10938-.03125.28125-.07813.45313l-2.20312 9.8125c-.14063.60937-.3125.82812-.76563.89062l-1.0625.125Zm3.73438-1.4375c0-.125.01562-.26562.0625-.40625l1.0625-4.79687h.73437c1.85938 0 3.48438.54687 3.48438 2.67187 0 1.67188-1.01563 3.3125-3.51563 3.3125-1.46875 0-1.82812-.29687-1.82812-.78125M5-7.28125l.98438-4.34375c.125-.54687.23437-.64062 1.48437-.64062 1.5625 0 2.4375.78125 2.4375 2.09375 0 1.95312-1.625 2.89062-3.6875 2.89062Zm0 0"/><path id="f" d="M1.60938-5.26562c0 4.21875.95312 8.84375 4.90625 9v-.5625c-1.32813-.25-3.42188-1.90625-3.42188-8.4375 0-6.48438 1.98438-8.14063 3.42188-8.4375v-.5625c-3.95313.17187-4.90625 4.79687-4.90625 9m0 0"/><path id="g" d="M1.39063-2.25C1.39063-1.03125 1.75.21875 3.25.21875c2.15625 0 3.8125-2.28125 4.90625-4.29687h.04688l-.60938 2.23437c-.10937.375-.17187.71875-.17187.98438 0 .70312.32812 1.07812.98437 1.07812 1.46875 0 2.4375-1.26562 3.07813-2.6875l-.4375-.25C10.70313-2.0625 9.875-.75 9.35938-.75c-.21875 0-.29688-.14062-.29688-.35937 0-.1875.04688-.40625.10938-.65625l2.9375-12-.09375-.07813-3.3125.4375-.10938.4375 1.125.09375c.29688.03125.40625.10938.40625.32813 0 .09375-.01562.25-.07812.45312l-.71875 3-.03125.03125c-.35938-.17187-.9375-.3125-1.57813-.3125-4.34375 0-6.32812 4.85938-6.32812 7.125m1.84375.17188c0-2.03125 1.625-6.64063 4.60937-6.64063.57813 0 1.07813.17188 1.29688.375-.28125 1.4375-.90625 3.20313-1.85938 4.75C6.39063-2.14062 5.15625-.75 4.17188-.75c-.59375 0-.9375-.5-.9375-1.32812m0 0"/><path id="i" d="M1.10938 3.17188v.5625c3.95312-.15625 4.90625-4.78125 4.90625-9 0-4.20313-.95313-8.82813-4.90625-9v.5625c1.4375.29687 3.42187 1.95312 3.42187 8.4375 0 6.53125-2.09375 8.1875-3.42187 8.4375m0 0"/><path id="e" d="M.57813-.70312c0 .0625.15624.1875.34375.1875.10937 0 .3125-.03126.34375-.10938l2.34375-5.98437c.07812-.1875.09375-.29688.09375-.35938 0-.28125-.4375-.39062-.84375-.39062-.39063 0-1.01563.15625-1.04688.40625Zm0 0"/><path id="h" d="M1.42188 0h4.375v-.40625L4.75-.5c-.28125-.03125-.42187-.125-.42187-.60937V-8.8125l-.09375-.07812-2.79688.48437v.34375l1.125.15625c.25.03125.32813.125.32813.53125v6.26563c0 .48437-.125.57812-.42188.60937l-1.04687.09375Zm0 0"/><path id="j" d="M.375-.15625.53125 0H6.0625l.46875-1.85937-.39062-.07813c-.29688.70313-.53125.79688-1.0625.79688H1.73438c.21874-.625.90625-1.5 2.17187-2.34375C5.23438-4.375 6.17188-5 6.17188-6.42187c0-1.82813-1.23438-2.46875-2.6875-2.46875C1.70313-8.89062.6875-7.85937.6875-7.0625c0 .46875.54688.6875.82813.6875.25 0 .375-.14062.4375-.39062.20312-.90625.6875-1.64063 1.45312-1.64063.92188 0 1.20313.79688 1.20313 1.75 0 1.26563-.5625 2.09375-1.78125 3.15625C1.15625-2.07812.5625-1.125.375-.15625m0 0"/><path id="k" d="M.35938-1.39062c0 .54687.85937 1.54687 2.84375 1.54687 1.9375 0 3.15625-.95312 3.15625-2.625 0-1.76562-1.54688-2.25-2.21875-2.3125v-.0625c.71875-.125 1.84375-.64062 1.84375-1.92187 0-1.51563-1.25-2.125-2.64063-2.125-1.67187 0-2.65625.9375-2.65625 1.60937 0 .4375.51563.67188.75.67188.1875 0 .29688-.125.375-.3125.28125-.92188.73438-1.48438 1.4375-1.48438.98438 0 1.21875.92188 1.21875 1.625 0 .6875-.23437 1.76563-1.29687 1.76563-.59375 0-.98438-.14063-1.1875-.14063-.1875 0-.26563.15625-.26563.40625s.07813.39063.26563.39063c.20312 0 .59375-.125 1.1875-.125 1 0 1.625.82812 1.625 2.07812 0 1.5-.6875 2.07813-1.57813 2.07813-.79687 0-1.34375-.60938-1.625-1.45313-.07812-.25-.21875-.39062-.42187-.39062-.29688 0-.8125.28125-.8125.78125m0 0"/><clipPath id="a"><path d="M.71875 26H685v69H.71875Zm0 0"/></clipPath></defs><path fill="none" stroke="red" stroke-miterlimit="10" stroke-width=".39725" d="m117.90235 79.17578-.94922-11.26172 11.26172-.9414.94922 11.26171-11.26172.94141m280.60157-23.45312-.94922-11.26172 11.26172-.94141.94921 11.26172-11.26171.9414"/><path fill="none" stroke="#000" stroke-miterlimit="10" stroke-width=".39725" d="M453.03907 32.26953H57.4336"/><g clip-path="url(#a)"><path fill="none" stroke="#000" stroke-miterlimit="10" stroke-width=".39725" d="m.91406 88.78516 678.18752-56.51563"/></g><path fill="none" stroke="#000" stroke-miterlimit="10" stroke-width=".39725" d="M456.20314 69.79297 66.13672 135.46485"/><use xlink:href="#b" x="107.23159" y="36.90671"/><use xlink:href="#b" x="389.80622" y="36.90671"/><use xlink:href="#c" x="107.53962" y="25.25144"/><use xlink:href="#d" x="377.28667" y="25.25144"/><use xlink:href="#b" x="115.14366" y="130.72111"/><use xlink:href="#b" x="393.76276" y="83.81391"/><use xlink:href="#c" x="112.53289" y="148.4014"/><use xlink:href="#e" x="126.13802" y="140.45643"/><use xlink:href="#d" x="375.36572" y="101.4942"/><use xlink:href="#e" x="388.41461" y="93.54923"/><use xlink:href="#f" x="403.53696" y="20.88121"/><use xlink:href="#g" x="411.16423" y="20.88121"/><use xlink:href="#h" x="421.69175" y="25.25144"/><use xlink:href="#i" x="429.93179" y="20.88121"/><use xlink:href="#f" x="662.0823" y="53.54728"/><use xlink:href="#g" x="669.70958" y="53.54728"/><use xlink:href="#j" x="680.2371" y="57.91751"/><use xlink:href="#i" x="688.47713" y="53.54728"/><use xlink:href="#f" x="407.49349" y="100.45547"/><use xlink:href="#g" x="415.12077" y="100.45547"/><use xlink:href="#k" x="425.64829" y="104.82371"/><use xlink:href="#i" x="433.88832" y="100.45547"/><path fill="none" stroke="#000" stroke-dasharray="2.9794450738 2.9794450738" stroke-miterlimit="10" stroke-width=".39725" d="m113.94531 32.26953 7.91407 93.8125m274.66407-93.8125 3.95703 46.90625"/><path fill="none" stroke="red" stroke-miterlimit="10" stroke-width=".39725" d="m111.71485 53.08594 8.25 3.28906m-8-.32031 8.25 3.28906m-4.54297 40.64844 8.25 3.29297m-8-.32422 8.25 3.29297m270.30469-64.82422 6.07031 5.1289m-4.08984 18.32813 6.07031 5.125"/></svg>