<svg xmlns="http://www.w3.org/2000/svg" xmlns:xlink="http://www.w3.org/1999/xlink" width="440.214pt" height="96.871pt" viewBox="0 0 440.214 96.871"><defs><path id="a" d="m1.6875-1.26562.48438.48437 2.03125-2.04687L6.25-.78125l.46875-.48437L4.6875-3.29687l2.03125-2.03125L6.25-5.8125 4.20313-3.78125 2.17188-5.8125l-.48438.48438 2.04688 2.03125Zm0 0"/><path id="b" d="M-.21875 0h2.625l.07813-.32812-.64063-.0625C1.6875-.40625 1.625-.48437 1.625-.59375c0-.0625.03125-.15625.0625-.23437.39063-.75.76563-1.51563 1.20313-2.29688h2.625l.28125 2.42188s-.0625.28124-.3125.3125l-.625.0625L4.79688 0h2.875L7.75-.32812 7.29688-.375c-.35938-.03125-.40625-.20312-.46875-.6875l-.85938-7.01562h-.82812l-1.96875 3.4375c-.59375 1.04687-1.5625 2.78125-2 3.48437-.375.60938-.57813.73438-.9375.76563l-.39063.0625ZM3.125-3.5625 5.03125-7l.42188 3.4375Zm0 0"/><path id="c" d="M0 0h3.54688C6.375 0 6.9375-1.45312 6.9375-2.42187c0-1.23438-.90625-1.76563-1.76562-1.9375L5.1875-4.375c1.54688-.1875 2.21875-1.07812 2.21875-1.95312 0-.95313-.5625-1.75-2.71875-1.75H1.73438L1.65625-7.75l.6875.0625c.20313.01563.29688.09375.29688.28125 0 .07813-.03125.1875-.04688.29688L1.20313-.96875C1.125-.57812 1-.45312.71875-.40625L.0625-.32812Zm2.34375-.89062c0-.09376 0-.17188.03125-.26563l.67188-3H3.5c1.17188 0 2.1875.34375 2.1875 1.67188 0 1.04687-.64062 2.07812-2.20312 2.07812-.92188 0-1.14063-.1875-1.14063-.48437m.79688-3.67188L3.75-7.28125c.07813-.34375.14063-.40625.92188-.40625.98437 0 1.53125.5 1.53125 1.3125 0 1.21875-1.01563 1.8125-2.3125 1.8125Zm0 0"/><path id="e" d="M1-3.29687c0 2.64062.60938 5.53125 3.07813 5.64062v-.35937C3.25 1.82812 1.9375.79688 1.9375-3.29687c0-4.0625 1.25-5.09375 2.14063-5.28125v-.35938C1.60938-8.82812 1-5.9375 1-3.29687m0 0"/><path id="f" d="M.875-1.40625c0 .76563.21875 1.54688 1.17188 1.54688 1.34375 0 2.375-1.4375 3.0625-2.6875h.03125L4.75-1.15625c-.0625.23438-.09375.45313-.09375.625 0 .4375.1875.67188.60938.67188.92187 0 1.53125-.79688 1.92187-1.6875l-.26562-.15626c-.21875.40626-.73438 1.23438-1.0625 1.23438-.14063 0-.1875-.09375-.1875-.23437 0-.10938.03125-.23438.07812-.40625L7.59375-8.625l-.0625-.04687-2.07812.28125-.0625.26562.6875.0625c.1875.01563.26562.0625.26562.20313q0 .09375-.04687.28125l-.45313 1.875-.01562.03125c-.23438-.10938-.59375-.20313-.98438-.20313C2.10938-5.875.875-2.82812.875-1.40625m1.15625.09375c0-1.26562 1.01563-4.14062 2.875-4.14062.375 0 .67188.10937.8125.23437-.17187.89063-.5625 2-1.15625 2.96875C4-1.34375 3.23438-.46875 2.60938-.46875c-.375 0-.57813-.3125-.57813-.84375m0 0"/><path id="h" d="M.70313 1.98438v.35937c2.46875-.10937 3.0625-3 3.0625-5.64062S3.17188-8.82812.70313-8.9375v.35938c.89062.1875 2.125 1.21875 2.125 5.28125 0 4.09375-1.29688 5.125-2.125 5.28125m0 0"/><path id="d" d="M.35938-.125c0 .04688.10937.125.21875.125.0625 0 .20312-.01562.21874-.0625L2.25-3.8125c.0625-.125.0625-.1875.0625-.21875 0-.1875-.26562-.25-.51562-.25s-.64063.09375-.67188.25Zm0 0"/><path id="g" d="M.89063 0H3.625v-.25l-.65625-.0625c-.17187-.01562-.26562-.07812-.26562-.39062v-4.8125l-.04688-.04688-1.76562.29688v.21875l.70312.09375c.17188.03125.21875.09375.21875.34375v3.90625c0 .3125-.07812.375-.26562.39062L.89063-.25Zm0 0"/><path id="i" d="M.23438-.09375.32813 0h3.46875l.29687-1.17187-.25-.03126c-.1875.42188-.34375.48438-.67187.48438H1.09375c.125-.39062.5625-.9375 1.35938-1.46875.8125-.54687 1.40625-.9375 1.40625-1.82812 0-1.14063-.76563-1.54688-1.67188-1.54688-1.10937 0-1.75.64063-1.75 1.14063 0 .29687.34375.4375.51563.4375.15624 0 .23437-.09375.26562-.25.125-.5625.4375-1.01563.90625-1.01563.57813 0 .76563.48438.76563 1.07813 0 .79687-.35938 1.3125-1.125 1.98437C.71875-1.29687.35938-.70312.23438-.09375m0 0"/><path id="j" d="M.21875-.875c0 .34375.54688.96875 1.78125.96875 1.21875 0 1.98438-.59375 1.98438-1.64062 0-1.10938-.96875-1.40625-1.39063-1.45313v-.03125C3.03125-3.10937 3.75-3.42187 3.75-4.23437c0-.95313-.79687-1.32813-1.65625-1.32813-1.04687 0-1.65625.57813-1.65625 1 0 .28125.3125.42188.45313.42188.125 0 .20312-.07813.23437-.1875.1875-.57813.46875-.92188.90625-.92188.60938 0 .76563.5625.76563 1s-.14063 1.10938-.8125 1.10938c-.375 0-.625-.09375-.73438-.09375-.125 0-.17187.09375-.17187.26562 0 .15625.04687.25.17187.25.10938 0 .35938-.09375.73438-.09375C2.60938-2.8125 3-2.28125 3-1.5c0 .9375-.4375 1.29688-.98437 1.29688-.5 0-.84375-.375-1.01563-.90625-.04687-.15626-.14062-.25-.26562-.25-.1875 0-.51563.17187-.51563.48437m0 0"/></defs><path fill="none" stroke="red" stroke-miterlimit="10" stroke-width=".39779" d="m73.41409 49.57422-.59375-7.05079 7.05078-.58593.59375 7.04687-7.05078.58985m175.61724-14.67969-.59375-7.04688 7.04687-.58985.59766 7.04688-7.05078.58985"/><path fill="none" stroke="#000" stroke-miterlimit="10" stroke-width=".39779" d="M283.16024 20.21483H35.57032M.19922 55.58594l424.44544-35.3711M285.14462 43.70312 41.01564 84.8008"/><use xlink:href="#a" x="66.73684" y="23.1197"/><use xlink:href="#a" x="243.58708" y="23.1197"/><use xlink:href="#b" x="66.9295" y="15.82573"/><use xlink:href="#c" x="235.75207" y="15.82573"/><use xlink:href="#a" x="71.689" y="81.83387"/><use xlink:href="#a" x="246.06366" y="52.47728"/><use xlink:href="#b" x="70.05492" y="92.57669"/><use xlink:href="#d" x="78.56971" y="87.60431"/><use xlink:href="#c" x="234.55021" y="63.2201"/><use xlink:href="#d" x="242.71688" y="58.24773"/><use xlink:href="#e" x="252.18073" y="13.09061"/><use xlink:href="#f" x="256.95428" y="13.09061"/><use xlink:href="#g" x="263.54294" y="15.82573"/><use xlink:href="#h" x="268.70123" y="13.09061"/><use xlink:href="#e" x="413.99282" y="33.53411"/><use xlink:href="#f" x="418.76636" y="33.53411"/><use xlink:href="#i" x="425.35503" y="36.26922"/><use xlink:href="#h" x="430.51207" y="33.53411"/><use xlink:href="#e" x="254.65731" y="62.89169"/><use xlink:href="#f" x="259.43086" y="62.89169"/><use xlink:href="#j" x="266.01952" y="65.62681"/><use xlink:href="#h" x="271.17657" y="62.89169"/><path fill="none" stroke="#000" stroke-dasharray="2.9835098826 2.9835098826" stroke-miterlimit="10" stroke-width=".39779" d="m70.94143 20.21483 4.94922 58.71487m171.9024-58.71487 2.47656 29.35939"/><path fill="none" stroke="red" stroke-miterlimit="10" stroke-width=".39779" d="m67.96487 32.2539 8.26172 3.29688m-8.01173-.32422 8.26173 3.29687m-6.03907 23.08985 8.26172 3.29688m-8.00781-.32422 8.26172 3.29688m166.41802-42.89455 6.07813 5.13282m-4.83985 9.54687 6.07813 5.13282"/></svg>