<svg xmlns="http://www.w3.org/2000/svg" xmlns:xlink="http://www.w3.org/1999/xlink" width="587.597pt" height="167.913pt" viewBox="0 0 587.597 167.913"><defs><path id="a" d="M1.60938-5.28125c0 4.21875.95312 8.85938 4.92187 9.03125v-.5625c-1.32812-.26562-3.42187-1.90625-3.42187-8.46875 0-6.5 1.98437-8.15625 3.42187-8.45312v-.5625C2.5625-14.14062 1.60938-9.5 1.60938-5.28125m0 0"/><path id="b" d="M1.39063-2.25c0 1.21875.35937 2.46875 1.875 2.46875 2.15625 0 3.82812-2.28125 4.92187-4.29687h.03125l-.60937 2.23437c-.10938.375-.17188.70313-.17188.98438 0 .70312.32813 1.07812.98438 1.07812 1.46875 0 2.45312-1.28125 3.07812-2.6875l-.4375-.26562C10.73438-2.0625 9.89063-.75 9.375-.75c-.21875 0-.29687-.14062-.29687-.35937 0-.1875.0625-.40625.125-.65625l2.9375-12.03125-.09375-.07813-3.32813.4375L8.625-13l1.10938.09375c.29687.03125.42187.10938.42187.32813 0 .09375-.03125.25-.07812.45312l-.71875 3.01563-.04688.03125c-.35937-.17188-.9375-.3125-1.5625-.3125-4.35937 0-6.35937 4.875-6.35937 7.14062M3.25-2.09375c0-2.03125 1.625-6.64062 4.60938-6.64062.57812 0 1.07812.17187 1.29687.375-.28125 1.4375-.89062 3.20312-1.84375 4.75C6.40625-2.15625 5.17188-.75 4.1875-.75c-.60937 0-.9375-.5-.9375-1.34375m0 0"/><path id="c" d="M1.10938 3.1875V3.75c3.96875-.17187 4.92187-4.8125 4.92187-9.03125s-.95312-8.85937-4.92187-9.01562v.5625c1.4375.29687 3.42187 1.95312 3.42187 8.45312 0 6.5625-2.07812 8.20313-3.42187 8.46875m0 0"/><path id="d" d="m2.70313-2.03125.78125.78125 3.25-3.26562L10-1.25l.75-.78125-3.25-3.25 3.25-3.26562-.75-.75-3.26562 3.25-3.25-3.25-.78125.75 3.26562 3.26562Zm0 0"/><path id="e" d="M0 0h4.42188l.09375-.53125-.73438-.0625c-.5625-.04687-.85937-.1875-.85937-.57812 0-1 .1875-1.5625.40625-2.54688l1.70312-7.625h.04688l2.25 11.125h.51562l7.28125-11.125h.04688L12.875-1.54687c-.15625.625-.32812.84375-.79687.89062l-1.01563.125L10.95313 0h5.09375l.09374-.53125-1.09374-.125c-.34375-.01562-.46875-.1875-.46875-.48437 0-.10938.01562-.25.04687-.40625l2.25-9.84375c.17188-.625.29688-.89063.78125-.9375l1.03125-.07813.14063-.53125h-3.65626c-1 1.70313-2.10937 3.375-3.25 5.10938L8.625-2.76562h-.0625L7.5-7.96875c-.375-1.6875-.75-3.29687-1.0625-4.96875h-3.625l-.125.53125 1.09375.10938c.3125.01562.48438.17187.48438.5 0 .10937-.03125.25-.0625.40625L2.42188-3.71875c-.21875.98438-.4375 1.70313-.65625 2.32813-.21876.59375-.54688.73437-1.09375.79687l-.57813.0625Zm0 0"/><path id="f" d="M0 0h4.42188l.09375-.53125-.73438-.0625c-.5625-.04687-.85937-.15625-.85937-.5625 0-1 .1875-1.57812.40625-2.5625l1.75-7.67187h.0625C6.89063-7.57812 8.625-3.79687 10.32813 0h1.21875l2.09375-9.21875c.21875-1 .4375-1.70312.65625-2.32812.21875-.59375.54687-.73438 1.10937-.79688l.57813-.0625.09375-.53125h-4.40626l-.10937.53125.73438.07813c.5625.0625.875.25.875.65625 0 .6875-.1875 1.45312-.40625 2.45312l-1.53125 6.76563h-.09375C9.53125-5.95312 7.9375-9.4375 6.375-12.9375H2.8125l-.125.53125 1.09375.10938c.3125.01562.48438.17187.48438.5 0 .10937-.03125.25-.0625.40625L2.42188-3.71875c-.21875.98438-.4375 1.70313-.65625 2.32813-.21876.59375-.53125.73437-1.09375.79687l-.57813.0625Zm0 0"/><path id="h" d="M.39063 0h5.125l.125-.53125-1.125-.07812c-.3125-.03126-.45313-.20313-.45313-.5 0-.125.01563-.28126.0625-.4375l2.21875-9.84375c.14063-.57813.32813-.89063.79688-.9375l1.04687-.07813.10938-.53125H3.1875l-.14062.53125 1.10937.07813c.32813.03125.46875.21875.46875.53125 0 .10937-.03125.25-.0625.40625l-2.25 9.84375c-.14062.59375-.32812.84375-.78125.89062L.5-.53125Zm0 0"/><path id="g" d="M.57813-.70312c0 .0625.15624.1875.34375.1875.10937 0 .3125-.03126.34375-.10938l2.34375-6c.07812-.1875.09375-.29687.09375-.35937 0-.28125-.42188-.39063-.82813-.39063-.39062 0-1.01562.15625-1.0625.40625Zm0 0"/></defs><path fill="none" stroke="red" stroke-miterlimit="10" stroke-width=".39823" d="m277.8087 85.10937-11.27735 1.1289 1.14063 11.27344 11.27344-1.1289-1.13672-11.27344"/><path fill="none" stroke="#000" stroke-miterlimit="10" stroke-width=".39823" d="M.19922 112.8711 566.7463 56.21872"/><use xlink:href="#a" x="552.92078" y="77.5489"/><use xlink:href="#b" x="560.56685" y="77.5489"/><use xlink:href="#c" x="572.91205" y="77.5489"/><use xlink:href="#d" x="276.7392" y="145.84705"/><use xlink:href="#e" x="290.50376" y="161.17554"/><use xlink:href="#d" x="50.12262" y="111.85437"/><use xlink:href="#f" x="34.32746" y="100.17038"/><use xlink:href="#f" x="63.88818" y="129.57821"/><use xlink:href="#g" x="81.2103" y="121.61367"/><use xlink:href="#d" x="265.40897" y="33.67299"/><use xlink:href="#e" x="279.17353" y="21.989"/><use xlink:href="#g" x="299.24376" y="14.02446"/><use xlink:href="#d" x="271.07309" y="89.75952"/><use xlink:href="#h" x="284.83864" y="78.07553"/><path fill="none" stroke="#000" stroke-dasharray="2.9867677073000003 2.9867677073000003" stroke-miterlimit="10" stroke-width=".39823" d="M283.47276 141.19923 272.14073 29.0234"/><path fill="none" stroke="red" stroke-miterlimit="10" stroke-width=".39823" d="m283.72667 115.67578-6.17188-5.03906m.50391-51.0508-6.16797-5.03516"/></svg>