<svg xmlns="http://www.w3.org/2000/svg" xmlns:xlink="http://www.w3.org/1999/xlink" width="203.898" height="190.164" viewBox="0 0 203.898 190.164"><defs><path id="a" d="m3.03125-2.28125.875.875L7.54688-5.0625l3.65625 3.65625.84375-.875-3.64063-3.625 3.64063-3.67187-.84375-.84375-3.65625 3.64062-3.64063-3.64062-.875.84375L6.6875-5.90625Zm0 0"/><path id="b" d="M-.40625 0h4.73438l.14062-.60937-1.17187-.10938c-.26563-.01562-.375-.15625-.375-.35937 0-.10938.04687-.26563.10937-.42188.6875-1.32812 1.35938-2.6875 2.14063-4.09375h4.71875l.5 4.32813s-.10938.5-.54688.54687l-1.125.10938L8.60938 0h5.15625l.14062-.60937-.8125-.0625c-.64062-.0625-.73437-.35938-.84375-1.21875L10.70313-14.5H9.21875L5.6875-8.32812c-1.0625 1.875-2.8125 5-3.59375 6.25C1.42188-.98437 1.07813-.76562.42188-.6875l-.6875.07813Zm6-6.40625 3.42188-6.15625.75 6.15625Zm0 0"/><path id="d" d="M0 0h6.35938c5.0625 0 6.09375-2.60937 6.09375-4.34375 0-2.21875-1.625-3.17187-3.17188-3.46875l.01563-.04687c2.79687-.32813 3.98437-1.90625 3.98437-3.5 0-1.6875-1.01562-3.14063-4.875-3.14063h-5.3125l-.125.59375 1.25.10938c.35938.03125.51563.1875.51563.51562 0 .14063-.04688.3125-.09375.51563L2.17188-1.73437c-.15625.6875-.35938.9375-.875 1l-1.1875.125Zm4.1875-1.60937c0-.15626.03125-.3125.07813-.46875l1.20312-5.375h.82813c2.0625 0 3.90625.60937 3.90625 2.98437 0 1.875-1.14063 3.73438-3.95313 3.73438-1.65625 0-2.0625-.34375-2.0625-.875M5.625-8.1875l1.09375-4.85937c.15625-.625.26563-.75 1.67188-.75 1.76562 0 2.75.90625 2.75 2.375 0 2.1875-1.84375 3.23437-4.15625 3.23437Zm0 0"/><path id="e" d="M1.8125-5.90625c0 4.71875 1.0625 9.92188 5.5 10.09375v-.625c-1.48437-.28125-3.82812-2.14062-3.82812-9.46875 0-7.29687 2.23437-9.15625 3.82812-9.48437v-.625c-4.4375.17187-5.5 5.375-5.5 10.10937m0 0"/><path id="f" d="M1.5625-2.51562C1.5625-1.15625 1.96875.25 3.65625.25 6.0625.25 7.9375-2.32812 9.17188-4.57812h.04687l-.70312 2.5c-.10938.42187-.17188.8125-.17188 1.125C8.34375-.17187 8.70313.25 9.4375.25c1.65625 0 2.75-1.4375 3.45313-3.01562l-.48438-.29688c-.375.73438-1.3125 2.21875-1.89062 2.21875-.25 0-.34375-.15625-.34375-.40625 0-.20312.0625-.45312.14062-.73437l3.29688-13.48438-.10938-.07812-3.73437.48437-.10938.5 1.25.10938c.34375.01562.46875.10937.46875.35937 0 .10938-.01562.28125-.07812.5l-.8125 3.375-.04688.04688c-.39062-.20313-1.04687-.35938-1.76562-.35938-4.875 0-7.10938 5.46875-7.10938 8.01563m2.07813.17187c0-2.28125 1.82812-7.45312 5.17187-7.45312.64063 0 1.20313.20312 1.45313.42187-.3125 1.60938-1 3.59375-2.07813 5.34375-1 1.625-2.39062 3.1875-3.5 3.1875-.67187 0-1.04687-.5625-1.04687-1.5m0 0"/><path id="g" d="M1.25 3.5625v.625c4.4375-.17187 5.51563-5.375 5.51563-10.09375 0-4.73437-1.07813-9.9375-5.51563-10.10937v.625c1.60938.32812 3.84375 2.1875 3.84375 9.48437 0 7.32813-2.34375 9.1875-3.84375 9.46875m0 0"/><path id="c" d="M.65625-.79687c0 .07812.17188.21874.375.21874.125 0 .35938-.03124.39063-.125l2.625-6.71874c.09375-.21875.10937-.34375.10937-.40625 0-.3125-.48437-.4375-.9375-.4375-.4375 0-1.14062.17187-1.1875.45312Zm0 0"/></defs><use xlink:href="#a" x="22.56997" y="35.04095"/><use xlink:href="#b" x="7.83375" y="21.94552"/><use xlink:href="#a" x="149.5577" y="162.02769"/><use xlink:href="#b" x="164.98588" y="181.89336"/><use xlink:href="#c" x="180.27267" y="172.96635"/><use xlink:href="#a" x="117.81027" y="66.78739"/><use xlink:href="#d" x="103.74411" y="53.69196"/><use xlink:href="#e" x="164.98588" y="53.73875"/><use xlink:href="#f" x="173.55592" y="53.73875"/><use xlink:href="#g" x="187.39297" y="53.73875"/><path fill="none" stroke="red" stroke-miterlimit="10" stroke-width=".39675" d="m93.60937 93.32422 8.98047-8.98047-8.98047-8.98047-8.98046 8.98047 8.98046 8.98047"/><path fill="none" stroke="#000" stroke-miterlimit="10" stroke-width=".39675" d="M30.11328 156.8164 157.10156 29.82813m-126.98828 0L157.10156 156.8164"/><path fill="none" stroke="red" stroke-miterlimit="10" stroke-width=".39675" d="M57.86328 61.54688h7.9375m55.55859 63.49609h7.9336"/></svg>