<svg xmlns="http://www.w3.org/2000/svg" xmlns:xlink="http://www.w3.org/1999/xlink" width="440.214pt" height="55.864pt" viewBox="0 0 440.214 55.864"><defs><path id="b" d="M1-3.29687c0 2.64062.60938 5.53125 3.07813 5.625v-.34375C3.23438 1.82812 1.9375.79688 1.9375-3.29687c0-4.0625 1.25-5.09375 2.14063-5.28125v-.34375C1.60938-8.8125 1-5.92187 1-3.29687m0 0"/><path id="c" d="M.875-1.40625c0 .76563.21875 1.54688 1.15625 1.54688 1.34375 0 2.39063-1.4375 3.07813-2.6875H5.125L4.75-1.15625c-.0625.23438-.10937.45313-.10937.625 0 .4375.20312.67188.60937.67188.92188 0 1.53125-.79688 1.9375-1.6875l-.28125-.15626c-.20312.40626-.73437 1.23438-1.0625 1.23438-.125 0-.17187-.09375-.17187-.23437 0-.10938.03125-.23438.0625-.40625l1.84375-7.5-.0625-.04688-2.07813.26563-.0625.28125.70313.0625c.1875.01562.25.0625.25.20312 0 .0625 0 .15625-.04688.28125l-.4375 1.875-.03125.01563c-.21875-.10938-.57812-.1875-.98437-.1875C2.10938-5.85937.875-2.8125.875-1.40625m1.15625.10938c0-1.28125 1.01563-4.15625 2.875-4.15625.35938 0 .67188.10937.8125.23437-.17187.89063-.5625 2-1.15625 2.96875C4-1.34375 3.23438-.46875 2.60938-.46875c-.375 0-.57813-.3125-.57813-.82812m0 0"/><path id="e" d="M.70313 1.98438v.34375c2.46875-.09375 3.0625-2.98438 3.0625-5.625 0-2.625-.59375-5.51563-3.0625-5.625v.34375c.89062.1875 2.125 1.21875 2.125 5.28125 0 4.09375-1.29688 5.125-2.125 5.28125m0 0"/><path id="d" d="M.89063 0H3.625v-.25l-.65625-.0625c-.17187-.01562-.26562-.07812-.26562-.39062v-4.8125l-.04688-.04688-1.76562.29688v.21875l.70312.09375c.17188.03125.21875.09375.21875.34375v3.90625c0 .3125-.07812.375-.26562.39062L.89063-.25Zm0 0"/><path id="f" d="M.23438-.09375.32813 0h3.46875l.29687-1.17187-.25-.03126c-.1875.42188-.34375.48438-.67187.48438H1.09375c.125-.39062.5625-.9375 1.35938-1.46875.8125-.54687 1.40625-.9375 1.40625-1.82812 0-1.14063-.76563-1.54688-1.67188-1.54688-1.10937 0-1.75.64063-1.75 1.14063 0 .29687.34375.4375.51563.4375.15624 0 .23437-.09375.26562-.25.125-.5625.4375-1.01563.90625-1.01563.57813 0 .76563.48438.76563 1.07813 0 .79687-.35938 1.3125-1.125 1.98437C.71875-1.29687.35938-.70312.23438-.09375m0 0"/><clipPath id="a"><path d="M.14063 14H431v41.72656H.14063Zm0 0"/></clipPath></defs><path fill="none" stroke="#000" stroke-miterlimit="10" stroke-width=".39753" d="M283.12097 20.1836H35.6875"/><g clip-path="url(#a)"><path fill="none" stroke="#000" stroke-miterlimit="10" stroke-width=".39753" d="m.33984 55.53125 424.1717-35.34764"/></g><use xlink:href="#b" x="252.15997" y="13.0602"/><use xlink:href="#c" x="256.93042" y="13.0602"/><use xlink:href="#d" x="263.51482" y="15.79355"/><use xlink:href="#e" x="268.66978" y="13.0602"/><use xlink:href="#b" x="413.86729" y="33.49147"/><use xlink:href="#c" x="418.63775" y="33.49147"/><use xlink:href="#f" x="425.22215" y="36.22481"/><use xlink:href="#e" x="430.37585" y="33.49147"/></svg>