<svg xmlns="http://www.w3.org/2000/svg" xmlns:xlink="http://www.w3.org/1999/xlink" width="113.285pt" height="105.332pt" viewBox="0 0 113.285 105.332"><defs><path id="a" d="m1.6875-1.26562.48438.48437L4.1875-2.8125 6.21875-.78125l.46875-.48437-2.01562-2.01563L6.6875-5.3125l-.46875-.46875L4.1875-3.76562 2.17188-5.78125l-.48438.46875 2.03125 2.03125Zm0 0"/><path id="b" d="M-.21875 0h2.625l.0625-.32812-.64062-.0625C1.6875-.40625 1.625-.48437 1.625-.59375c0-.0625.01563-.15625.0625-.23437.375-.75.75-1.5 1.1875-2.28125h2.60938l.28125 2.40625s-.0625.28124-.3125.3125l-.60938.0625L4.78125 0h2.85938l.0625-.32812-.4375-.04688c-.35938-.03125-.40625-.1875-.46875-.67187l-.85938-7h-.82812l-1.95313 3.4375c-.59375 1.03125-1.5625 2.76562-2 3.45312-.35937.60938-.5625.73438-.92187.76563l-.39063.0625Zm3.32813-3.54687L5-6.96875l.42188 3.42188Zm0 0"/><path id="d" d="M0 0h3.53125c2.8125 0 3.375-1.45312 3.375-2.40625 0-1.23437-.90625-1.76562-1.76562-1.92187l.01562-.03125c1.54688-.1875 2.20313-1.0625 2.20313-1.9375 0-.9375-.54688-1.75-2.6875-1.75H1.71875l-.07812.34375.70312.0625q.28125 0 .28125.28125c0 .07812-.03125.17187-.04687.28125l-1.375 6.10937C1.10937-.57812 1-.45312.71875-.40625L.0625-.32812Zm2.32813-.89062c0-.09376.01562-.17188.03125-.26563l.67187-2.98437h.45313c1.15625 0 2.17187.34375 2.17187 1.67187 0 1.03125-.625 2.0625-2.1875 2.0625-.92187 0-1.14062-.1875-1.14062-.48437M3.125-4.54687l.59375-2.6875c.09375-.35938.15625-.40625.9375-.40625.96875 0 1.51563.48437 1.51563 1.29687 0 1.21875-1.01563 1.79688-2.29688 1.79688Zm0 0"/><path id="e" d="M1-3.28125c0 2.625.59375 5.51563 3.0625 5.60938v-.34375c-.82812-.17188-2.125-1.1875-2.125-5.26563 0-4.04687 1.23438-5.07812 2.125-5.25v-.35937C1.59375-8.78125 1-5.90625 1-3.28125m0 0"/><path id="f" d="M.85938-1.39062c0 .75.23437 1.53125 1.17187 1.53125 1.32813 0 2.375-1.42188 3.0625-2.67188h.01563l-.375 1.375c-.0625.23438-.10938.45313-.10938.625 0 .4375.20313.67188.60938.67188.92187 0 1.51562-.79688 1.92187-1.67188L6.875-1.70312c-.20312.42187-.71875 1.23437-1.04687 1.23437-.14063 0-.1875-.09375-.1875-.21875 0-.10937.04687-.25.07812-.40625l1.82813-7.48437-.0625-.04688-2.0625.26563-.0625.28125.6875.0625c.1875.01562.26562.0625.26562.1875 0 .0625-.01562.17187-.04687.29687L5.8125-5.67187l-.01562.03125c-.23438-.10938-.59375-.20313-.98438-.20313-2.70312 0-3.95312 3.03125-3.95312 4.45313m1.15625.09374c0-1.26562 1.01562-4.14062 2.875-4.14062.35937 0 .67187.10938.79687.23438-.17187.89062-.54687 2-1.14062 2.96875-.5625.89062-1.32813 1.76562-1.95313 1.76562-.35937 0-.57812-.3125-.57812-.82812m0 0"/><path id="g" d="M.6875 1.98438v.34375C3.15625 2.23438 3.75-.65625 3.75-3.28125s-.59375-5.5-3.0625-5.60937v.35937c.89063.17188 2.14063 1.20313 2.14063 5.25 0 4.07813-1.3125 5.09375-2.14063 5.26563m0 0"/><path id="c" d="M.35938-.125c0 .04688.09375.125.21875.125.0625 0 .1875-.01562.20312-.0625l1.45313-3.73437c.0625-.10938.0625-.1875.0625-.21875 0-.17188-.26563-.25-.51563-.25-.23437 0-.625.10937-.65625.25Zm0 0"/></defs><use xlink:href="#a" x="12.29773" y="19.42978"/><use xlink:href="#b" x="4.12655" y="12.16783"/><use xlink:href="#a" x="82.71714" y="89.84919"/><use xlink:href="#b" x="91.27189" y="100.54337"/><use xlink:href="#c" x="99.74813" y="95.59351"/><use xlink:href="#a" x="65.11179" y="37.03513"/><use xlink:href="#d" x="57.31225" y="29.77318"/><use xlink:href="#e" x="91.27189" y="29.79703"/><use xlink:href="#f" x="96.02382" y="29.79703"/><use xlink:href="#g" x="103.69621" y="29.79703"/><path fill="none" stroke="red" stroke-miterlimit="10" stroke-width=".39599" d="m51.6914 51.75 4.97657-4.98047-4.97656-4.97656-4.98047 4.97656L51.6914 51.75"/><path fill="none" stroke="#000" stroke-miterlimit="10" stroke-width=".39599" d="m16.48047 86.96093 70.41796-70.42186m-70.41796 0 70.41796 70.42186"/><path fill="none" stroke="red" stroke-miterlimit="10" stroke-width=".39599" d="M30.1211 34.14063h7.92187m27.28906 35.21093H73.25"/></svg>