<svg xmlns="http://www.w3.org/2000/svg" xmlns:xlink="http://www.w3.org/1999/xlink" width="142.499pt" height="146.967pt" viewBox="0 0 142.499 146.967"><defs><path id="a" d="M1.04688-3.42187c0 2.73437.625 5.75 3.1875 5.84375V2.0625C3.375 1.89063 2.01563.82813 2.01563-3.42187c0-4.21875 1.28125-5.29688 2.21875-5.48438v-.35937c-2.5625.10937-3.1875 3.10937-3.1875 5.84375m0 0"/><path id="b" d="M.90625-1.45312c0 .78125.23438 1.59375 1.20313 1.59375 1.40625 0 2.48437-1.48438 3.1875-2.78125h.03125l-.39063 1.4375c-.07812.25-.10937.46875-.10937.64062 0 .45313.20312.70313.625.70313.96875 0 1.59375-.82813 2-1.73438l-.28125-.17187c-.21875.42187-.75 1.28125-1.09375 1.28125-.14063 0-.1875-.09375-.1875-.23438 0-.125.03125-.26562.07812-.4375L7.875-8.9375 7.8125-9l-2.15625.28125-.0625.29688.71875.0625c.1875.01562.26563.0625.26563.20312 0 .0625-.01563.17188-.04688.29688L6.0625-5.90625l-.01562.01563C5.8125-6 5.4375-6.09375 5.01563-6.09375 2.1875-6.09375.90625-2.9375.90625-1.45312m1.20313.09374c0-1.3125 1.04687-4.3125 2.98437-4.3125.375 0 .70313.125.84375.25-.1875.9375-.57812 2.07813-1.20312 3.07813-.57813.95313-1.375 1.85938-2.03125 1.85938-.375 0-.59375-.32813-.59375-.875m0 0"/><path id="c" d="M.71875 2.0625v.35938c2.57813-.09375 3.1875-3.10938 3.1875-5.84375S3.29688-9.15625.71875-9.26562v.35937c.9375.1875 2.21875 1.26563 2.21875 5.48438 0 4.25-1.34375 5.3125-2.21875 5.48437m0 0"/><path id="k" d="M-.23437 0H2.5l.07813-.34375-.67188-.0625C1.75-.42187 1.6875-.5 1.6875-.625c0-.0625.03125-.15625.0625-.23437.40625-.78125.79688-1.5625 1.25-2.375h2.71875l.29688 2.5s-.0625.29687-.32813.32812l-.64062.0625L4.98438 0h2.98437l.07813-.34375-.46875-.04687c-.375-.03125-.42188-.20313-.5-.70313L6.1875-8.39062h-.85937L3.29688-4.8125c-.625 1.07813-1.625 2.89063-2.07813 3.60938C.82813-.5625.625-.4375.25-.40625l-.40625.0625Zm3.46875-3.70312 1.98437-3.5625.4375 3.5625Zm0 0"/><path id="l" d="M0 0h3.67188c2.9375 0 3.53125-1.51562 3.53125-2.51562 0-1.28125-.9375-1.82813-1.82813-2v-.03125C7-4.73437 7.67188-5.65625 7.67188-6.5625c0-.98437-.57813-1.82812-2.8125-1.82812h-3.0625l-.07813.34375.71875.07812c.20313 0 .29688.09375.29688.29688 0 .0625-.03125.17187-.04688.29687L1.25-1c-.09375.39063-.20312.53125-.5.57813l-.6875.07812Zm2.42188-.92187q0-.14063.04687-.28126l.6875-3.10937h.48438c1.20312 0 2.25.34375 2.25 1.73438 0 1.07812-.65625 2.15625-2.28125 2.15625-.95313 0-1.1875-.20313-1.1875-.5M3.25-4.73437l.64063-2.8125c.07812-.35938.15625-.42188.96875-.42188 1.01562 0 1.57812.51563 1.57812 1.35938 0 1.26562-1.0625 1.875-2.39062 1.875Zm0 0"/><path id="m" d="M.625-3.32812C.625-1.73437 1.42188.1875 4.42188.1875c.875 0 1.70312-.125 2.46875-.51562l.59375-1.9375H7.125C6.45313-1.04687 5.84375-.25 4.34375-.25 2.9375-.25 1.9375-1.15625 1.9375-3.01562c0-1.09375.28125-2.4375.85938-3.40625.60937-1.03125 1.5625-1.73438 2.875-1.73438 1.53125 0 1.96875.70313 1.96875 2.03125h.375l.4375-1.8125C7.75-8.375 6.625-8.57812 5.76563-8.57812c-2.28125 0-3.59375 1.0625-4.3125 2.20312C.78125-5.29687.625-4.17187.625-3.32812m0 0"/><path id="d" d="M.21875 0H2v-.17187c-.625-.04688-.64062-.04688-.64062-.39063v-1.42187h.84375c.51562 0 .54687.14062.59375.53125h.1875V-2.75h-.1875c-.04688.39063-.07813.53125-.59375.53125h-.84375v-1.54687c0-.20313.01562-.21875.21874-.21875h.60938c.70313 0 .84375.14062.92188.76562h.1875v-.96875H.21875v.17188c.53125.03125.54688.04687.54688.375V-.5625c0 .34375-.01563.34375-.54688.39063Zm0 0"/><path id="e" d="M.5625-3.96875c0 .21875.14063.375.35938.375.23437 0 .375-.15625.375-.375s-.14063-.375-.375-.375c-.21876 0-.35938.15625-.35938.375M.1875 0h1.48438v-.17187c-.4375-.03126-.45313-.04688-.45313-.35938V-3l-.04687-.04687-.95313.15625V-2.75l.23438.04688c.15625.01562.20312.04687.20312.26562v1.90625c0 .3125-.03125.32813-.46875.35938Zm0 0"/><path id="f" d="M.25.57813c0 .60937.60938.89062 1.3125.89062.35938 0 .75-.07812 1.03125-.25.28125-.17187.48438-.45312.48438-.82812C3.07813-.26562 2.5625-.5 1.90625-.5h-.48437c-.4375 0-.5-.14062-.5-.26562 0-.17188.23437-.26563.3125-.29688.10937.01563.25.03125.3125.03125.5625 0 1.21875-.26562 1.21875-1 0-.25-.07813-.45312-.1875-.5625l.48437-.07812.125-.375-.04687-.0625-.78125.25c-.17188-.10938-.5-.1875-.78125-.1875-.9375 0-1.25.5625-1.25 1.01562 0 .57813.375.84375.64062.90625v.01563c-.32812.125-.54687.29687-.54687.54687 0 .20313.25.4375.53125.46875v.01563C.70313 0 .25.14063.25.57813M.82813.5625q0-.32812.1875-.46875c.14062-.09375.34375-.14062.625-.14062.54687 0 .9375.14062.9375.59375 0 .48437-.4375.71875-.875.71875-.51563 0-.875-.26563-.875-.70313M.9375-2.03125c0-.59375.3125-.79687.64063-.79687.29687 0 .60937.21875.60937.79687 0 .51563-.26562.78125-.625.78125-.34375 0-.625-.26562-.625-.78125m0 0"/><path id="g" d="m.15625-2.75.23438.04688c.15625.01562.1875.04687.1875.26562v1.59375c0 .70313.42187.92188.875.92188.51562 0 .92187-.35938 1.10937-.4375L2.60938 0h.98437v-.17187C3.17188-.20313 3.125-.21875 3.125-.53125V-3l-.04687-.04687-.9375.15625V-2.75l.23437.04688c.14063.01562.1875.04687.1875.26562v1.35938c0 .17187-.01562.3125-.04687.375-.14063.26562-.4375.45312-.75.45312-.35938 0-.60938-.23437-.60938-.70312V-3l-.04687-.04687-.95313.15625Zm0 0"/><path id="h" d="M.1875 0h1.60938v-.17187C1.25-.20313 1.21875-.21875 1.21875-.53125v-1.42187c0-.45313.20313-.625.34375-.625.10938 0 .20313.04687.375.14062.04688.03125.09375.03125.125.03125.15625 0 .28125-.15625.28125-.34375 0-.14062-.07812-.29687-.32812-.29687-.21875 0-.39063.125-.79688.48437l-.0625-.48437-.9375.15625V-2.75l.23438.04688c.15625.01562.20312.04687.20312.26562v1.90625c0 .3125-.03125.32813-.46875.35938Zm0 0"/><path id="i" d="M.29688-1.46875C.29688-.5.70313.07813 1.70313.07813c.67187 0 1.01562-.375 1.17187-.85938L2.70313-.875c-.17188.35938-.40625.64063-.89063.64063-.75 0-.89062-.73438-.89062-1.35938h1.75c.14062 0 .25-.03125.25-.23437 0-.35938-.125-1.21875-1.23438-1.21875-.95312 0-1.39062.67187-1.39062 1.57812m.64062-.35937c0-.25.09375-1 .71875-1 .5625 0 .625.5625.625.8125 0 .10937-.03125.1875-.20312.1875Zm0 0"/><path id="j" d="M.65625 0h2v-.17187l-.51562-.04688c-.125-.01562-.20313-.0625-.20313-.29687v-3.57813L1.90625-4.125l-1.25.21875v.14063l.5625.07812c.10938.01563.15625.04688.15625.23438v2.9375c0 .10937-.01562.1875-.0625.23437-.03125.04688-.07812.0625-.14062.0625l-.51563.04688Zm0 0"/><path id="n" d="M.15625-.0625.21875 0h2.51563l.20312-.79687-.15625-.03126c-.14062.32813-.26562.375-.5.375H.73438c.09374-.32812.45312-.75 1.01562-1.15624.57813-.4375 1.03125-.70313 1.03125-1.375 0-.84375-.5625-1.14063-1.20312-1.14063-.82813 0-1.25.5-1.25.82813C.32813-3.09375.5625-3 .65625-3c.10938 0 .15625-.0625.17188-.17187.09374-.40625.34375-.73438.71875-.73438.45312 0 .59375.39063.59375.82813 0 .65625-.32813 1.01562-.85938 1.48437-.75.65625-1 1.0625-1.125 1.53125m0 0"/><path id="o" d="M.375-.125c0 .04688.10938.125.21875.125.07813 0 .20313-.01562.23438-.07812l1.51562-3.875c.04688-.125.0625-.20313.0625-.23438 0-.1875-.28125-.25-.54687-.25-.25 0-.65625.09375-.6875.25Zm0 0"/></defs><path fill="none" stroke="#000" stroke-miterlimit="10" stroke-width=".39711" d="m36.92187 54.59375 73.45707-36.73049H36.92187m0 .00782-2.39843.16015-2.35547.46485-2.27344.77343-2.15625 1.0625-1.9961 1.33594-1.80469 1.58203-1.58203 1.8047-1.33594 1.99609-1.0625 2.15625-.77344 2.27344-.46484 2.35547-.16016 2.39844.16016 2.39453.46484 2.35547.77344 2.27344 1.0625 2.15625 1.33594 1.9961 1.58203 1.80468 1.8047 1.58203 1.99609 1.33594 2.15625 1.0625 2.27344.77344 2.35547.46875 2.39843.15625M.1992 72.95313h128.5274"/><use xlink:href="#a" x="119.78386" y="65.97191"/><use xlink:href="#b" x="124.73979" y="65.97191"/><use xlink:href="#c" x="132.74154" y="65.97191"/><use xlink:href="#d" x="33.28099" y="37.66942"/><use xlink:href="#e" x="36.73981" y="37.66942"/><use xlink:href="#f" x="38.50149" y="37.66942"/><use xlink:href="#g" x="41.65057" y="37.66942"/><use xlink:href="#h" x="45.32234" y="37.66942"/><use xlink:href="#i" x="47.55509" y="37.66942"/><use xlink:href="#j" x="52.03349" y="37.66942"/><use xlink:href="#k" x="32.75783" y="67.54239"/><use xlink:href="#l" x="114.9369" y="13.30607"/><use xlink:href="#m" x="32.82858" y="13.12571"/><path fill="none" stroke="#000" stroke-miterlimit="10" stroke-width=".39711" d="m36.92187 91.31642 73.45707 36.72659H36.92187"/><use xlink:href="#d" x="33.28099" y="111.1122"/><use xlink:href="#e" x="36.73981" y="111.1122"/><use xlink:href="#f" x="38.50149" y="111.1122"/><use xlink:href="#g" x="41.65057" y="111.1122"/><use xlink:href="#h" x="45.32234" y="111.1122"/><use xlink:href="#i" x="47.55509" y="111.1122"/><use xlink:href="#n" x="52.03349" y="111.1122"/><path fill="none" stroke="#000" stroke-miterlimit="10" stroke-width=".39711" d="m36.92187 91.31642-2.39843.15625-2.35547.46875-2.27344.77344-2.15625 1.0625-1.9961 1.33204-1.80469 1.58593-1.58203 1.8047-1.33594 1.99609-1.0625 2.15625-.77344 2.27344-.46484 2.35547-.16016 2.39453.16016 2.39844.46484 2.35547.77344 2.27344 1.0625 2.15234 1.33594 2 1.58203 1.80469 1.8047 1.58203 1.99609 1.33594 2.15625 1.0625 2.27344.76953 2.35547.46875 2.39843.16016"/><use xlink:href="#k" x="30.8615" y="86.75584"/><use xlink:href="#o" x="39.70162" y="81.59349"/><use xlink:href="#l" x="114.9369" y="142.21087"/><use xlink:href="#o" x="123.41559" y="137.04852"/><use xlink:href="#m" x="30.64825" y="142.21087"/><use xlink:href="#o" x="39.91457" y="137.04852"/></svg>