<svg xmlns="http://www.w3.org/2000/svg" xmlns:xlink="http://www.w3.org/1999/xlink" width="246.438pt" height="96.068pt" viewBox="0 0 246.438 96.068"><defs><path id="b" d="M1.79688-5.89062c0 4.71875 1.0625 9.89062 5.48437 10.0625v-.625c-1.48437-.28125-3.8125-2.125-3.8125-9.4375 0-7.25 2.21875-9.09375 3.8125-9.42188v-.625c-4.42187.17188-5.48437 5.34375-5.48437 10.04688m0 0"/><path id="c" d="M1.54688-2.51562C1.54688-1.15625 1.95313.25 3.64063.25 6.04688.25 7.90625-2.3125 9.125-4.54687h.04688l-.6875 2.48437c-.10938.42188-.1875.79688-.1875 1.10938C8.29688-.17187 8.65625.25 9.39063.25c1.64062 0 2.73437-1.42187 3.4375-3l-.48438-.29687c-.375.73437-1.3125 2.20312-1.89062 2.20312-.23438 0-.32813-.15625-.32813-.40625 0-.1875.0625-.4375.14063-.71875l3.28125-13.42187-.10938-.07813-3.71875.48438-.10937.48437 1.25.10938c.32812.03125.46875.10937.46875.35937q0 .16406-.09375.51563l-.79688 3.34375-.04687.04687c-.40625-.20312-1.04688-.35937-1.75-.35937-4.85938 0-7.09375 5.4375-7.09375 7.96875m2.07812.1875C3.625-4.59375 5.4375-9.75 8.76563-9.75c.65625 0 1.20312.20313 1.45312.42188-.3125 1.59375-1 3.57812-2.0625 5.3125-1 1.625-2.39062 3.17187-3.5 3.17187C4-.84375 3.625-1.40625 3.625-2.32812m0 0"/><path id="d" d="M1.25 3.54688v.625C5.65625 4 6.73438-1.17187 6.73438-5.89062c0-4.70313-1.07813-9.875-5.48438-10.04688v.625c1.59375.32813 3.8125 2.17188 3.8125 9.42188 0 7.3125-2.32812 9.15625-3.8125 9.4375m0 0"/><path id="e" d="M.35938 0H3.4375v-.29687C2.35938-.35937 2.34375-.375 2.34375-.96875v-2.4375h1.45313c.89062 0 .92187.25 1.01562.90625h.3125v-2.21875h-.3125c-.09375.65625-.125.90625-1.01562.90625H2.34375v-2.67187c0-.34375.03125-.375.375-.375H3.75c1.20313 0 1.45313.25 1.59375 1.3125h.3125v-1.67188H.35938v.3125c.92187.0625.95312.07813.95312.65625v5.28125c0 .59375-.03125.60938-.95312.67188Zm0 0"/><path id="f" d="M.95313-6.82812c0 .375.26562.65625.64062.65625s.64063-.28125.64063-.65625-.26563-.625-.64063-.625-.64062.25-.64062.625M.32813 0H2.875v-.29687c-.75-.0625-.78125-.07813-.78125-.60938v-4.26562l-.07812-.0625-1.625.26562v.25l.39062.0625c.26563.04688.34375.07813.34375.46875v3.28125c0 .53125-.03125.54688-.79687.60938Zm0 0"/><path id="g" d="M.4375 1c0 1.04688 1.04688 1.51563 2.26563 1.51563.60937 0 1.26562-.125 1.76562-.42188.48438-.28125.82813-.78125.82813-1.42187 0-1.14063-.89063-1.53125-2.01563-1.53125h-.82812c-.75 0-.85938-.25-.85938-.45313 0-.29687.39063-.46875.53125-.5.1875.01563.42188.03125.53125.03125.98438 0 2.10938-.4375 2.10938-1.70312 0-.4375-.15625-.79688-.32813-.96875l.82813-.14063.21875-.65625-.09375-.09375-1.32813.42188c-.29687-.1875-.875-.3125-1.35937-.3125-1.59375 0-2.14063.96875-2.14063 1.75 0 .98437.64063 1.4375 1.10938 1.54687v.03125c-.5625.21875-.95313.51563-.95313.9375 0 .35938.42188.75.92188.79688v.03124C1.20313 0 .4375.25.4375 1m1-.04687c0-.35938.09375-.625.3125-.78125.23438-.1875.57813-.25 1.07813-.25.92187 0 1.59375.23437 1.59375 1.01562 0 .82813-.75 1.21875-1.5 1.21875-.875 0-1.48438-.45312-1.48438-1.20312m.1875-4.4375c0-1.03125.53125-1.39063 1.07813-1.39063.51562 0 1.04687.375 1.04687 1.39063 0 .875-.4375 1.32812-1.04687 1.32812-.59375 0-1.07813-.45312-1.07813-1.32812m0 0"/><path id="h" d="m.26563-4.71875.40625.0625C.9375-4.60937 1-4.57812 1-4.1875v2.75C1-.25 1.70313.125 2.48438.125c.89062 0 1.60937-.60937 1.90625-.75L4.5 0h1.67188v-.29687C5.45313-.35937 5.375-.375 5.375-.90625v-4.26562l-.07812-.0625-1.625.26562v.25l.40625.0625c.26562.04688.32812.07813.32812.46875v2.34375c0 .29688-.03125.53125-.09375.625-.23437.46875-.73437.78125-1.26562.78125-.625 0-1.0625-.39062-1.0625-1.1875v-3.54687l-.07813-.0625-1.64062.26562Zm0 0"/><path id="i" d="M.32813 0h2.75v-.29687c-.92188-.0625-.98438-.07813-.98438-.60938v-2.4375c0-.8125.35938-1.07812.60938-1.07812.15625 0 .34375.0625.64062.23437.07813.03125.15625.04688.20313.04688.26562 0 .48437-.26563.48437-.57813 0-.23437-.14062-.51562-.5625-.51562-.375 0-.6875.21875-1.375.82812l-.125-.82812-1.57812.26562v.25l.39062.0625c.26563.04688.34375.07813.34375.46875v3.28125c0 .53125-.0625.54688-.79687.60938Zm0 0"/><path id="j" d="M.51563-2.51562C.51563-.85937 1.21875.125 2.92188.125c1.15625 0 1.75-.64062 2.03125-1.46875l-.3125-.17187C4.34375-.90625 3.95313-.40625 3.125-.40625c-1.29687 0-1.54687-1.25-1.53125-2.32812h3.01563c.21875 0 .40625-.0625.40625-.40625 0-.60938-.20313-2.09375-2.10938-2.09375-1.625 0-2.39062 1.15625-2.39062 2.71875m1.09375-.625c0-.4375.15624-1.73438 1.23437-1.73438.96875 0 1.07813.98438 1.07813 1.40625 0 .20313-.0625.32813-.34375.32813Zm0 0"/><path id="k" d="M1.125 0h3.4375v-.29687L3.6875-.375c-.21875-.03125-.34375-.10937-.34375-.51562v-6.14063l-.0625-.0625-2.15625.375v.25l.98438.125c.17187.01563.25.09375.25.39063v5.0625c0 .20312-.03125.32812-.09375.40625s-.14063.09375-.25.10937L1.125-.29687Zm0 0"/><clipPath id="a"><path d="M.90625 94H223v1.14453H.90625Zm0 0"/></clipPath></defs><path fill="none" stroke="#000" stroke-miterlimit="10" stroke-width=".39467" d="M64.26953 63.36328 190.6055.1953H64.26953"/><path fill="none" stroke="#000" stroke-miterlimit="10" stroke-width=".39467" d="m64.26953.1953-4.1211.27343-4.05468.8047-3.91016 1.32812-3.70703 1.82812-3.4336 2.29688L41.9375 9.4492l-2.72265 3.10546-2.29688 3.4336-1.82422 3.70703-1.33203 3.91016-.80469 4.05469-.26953 4.1211.26953 4.12109.80469 4.05078 1.33203 3.91406 1.82422 3.70703 2.29688 3.4336 2.72265 3.10547 3.10547 2.72266 3.4336 2.29687 3.70703 1.82422 3.91016 1.33203 4.05469.80469 4.1211.26953"/><g clip-path="url(#a)"><path fill="none" stroke="#000" stroke-miterlimit="10" stroke-width=".39467" d="M1.10155 94.94923h221.08599"/></g><use xlink:href="#b" x="206.76251" y="82.92748"/><use xlink:href="#c" x="215.28752" y="82.92748"/><use xlink:href="#d" x="229.05187" y="82.92748"/><use xlink:href="#e" x="58.00963" y="34.25072"/><use xlink:href="#f" x="63.97048" y="34.25072"/><use xlink:href="#g" x="67.00085" y="34.25072"/><use xlink:href="#h" x="72.41779" y="34.25072"/><use xlink:href="#i" x="78.73385" y="34.25072"/><use xlink:href="#j" x="82.57455" y="34.25072"/><use xlink:href="#k" x="90.26704" y="34.25072"/></svg>