<svg xmlns="http://www.w3.org/2000/svg" xmlns:xlink="http://www.w3.org/1999/xlink" width="773.553pt" height="195.423pt" viewBox="0 0 773.553 195.423"><defs><path id="b" d="M1.60938-5.26562c0 4.21875.95312 8.84375 4.90625 9v-.5625c-1.32813-.25-3.42188-1.90625-3.42188-8.4375 0-6.48438 1.98438-8.14063 3.42188-8.4375v-.5625c-3.95313.17187-4.90625 4.79687-4.90625 9m0 0"/><path id="c" d="M1.39063-2.25C1.39063-1.03125 1.75.21875 3.25.21875c2.15625 0 3.8125-2.28125 4.90625-4.29687h.04688l-.60938 2.23437c-.10937.375-.17187.71875-.17187.98438 0 .70312.32812 1.07812.98437 1.07812 1.46875 0 2.4375-1.26562 3.07813-2.6875l-.4375-.25C10.70313-2.0625 9.875-.75 9.35938-.75c-.21875 0-.29688-.14062-.29688-.35937 0-.1875.04688-.40625.10938-.65625l2.9375-12-.09375-.07813-3.3125.4375-.10938.4375 1.125.09375c.29688.03125.40625.10938.40625.32813 0 .09375-.01562.25-.07812.45312l-.71875 3-.03125.03125c-.35938-.17187-.9375-.3125-1.57813-.3125-4.34375 0-6.32812 4.85938-6.32812 7.125m1.84375.17188c0-2.03125 1.625-6.64063 4.60937-6.64063.57813 0 1.07813.17188 1.29688.375-.28125 1.4375-.90625 3.20313-1.85938 4.75C6.39063-2.14062 5.15625-.75 4.17188-.75c-.59375 0-.9375-.5-.9375-1.32812m0 0"/><path id="d" d="M1.10938 3.17188v.5625c3.95312-.15625 4.90625-4.78125 4.90625-9 0-4.20313-.95313-8.82813-4.90625-9v.5625c1.4375.29687 3.42187 1.95312 3.42187 8.4375 0 6.53125-2.09375 8.1875-3.42187 8.4375m0 0"/><path id="e" d="m2.70313-2.03125.76562.78125 3.25-3.26562 3.25 3.26562.75-.78125-3.23437-3.23437 3.23437-3.25-.75-.76563-3.25 3.25-3.25-3.25-.76562.76563 3.25 3.25Zm0 0"/><clipPath id="a"><path d="M.91406 39H233v58H.91406Zm0 0"/></clipPath><clipPath id="f"><path d="M393 98h103v96.84766H393Zm0 0"/></clipPath></defs><path fill="none" stroke="#000" stroke-miterlimit="10" stroke-width=".39733" d="m46.33593 81.59766 90.4414-49.7461L91.55858.19924Zm0 0"/><g clip-path="url(#a)"><path fill="none" stroke="#000" stroke-miterlimit="10" stroke-width=".39733" d="m1.11328 90.64063 226.10935-45.22266"/></g><use xlink:href="#b" x="213.43231" y="66.70306"/><use xlink:href="#c" x="221.06109" y="66.70306"/><use xlink:href="#d" x="233.3784" y="66.70306"/><path fill="none" stroke="#000" stroke-miterlimit="10" stroke-width=".39733" d="m46.33203 81.59766 102.60545 11.1328-29.5664 46.60547Zm361.7773-13.56641c0-24.97656-20.2461-45.22265-45.22265-45.22265s-45.22266 20.2461-45.22266 45.22265c0 24.97266 20.2461 45.21875 45.22266 45.21875s45.22265-20.2461 45.22265-45.21875Zm-54.26563 90.4414L489.50776 22.8086"/><use xlink:href="#b" x="496.51948" y="44.09281"/><use xlink:href="#c" x="504.14826" y="44.09281"/><use xlink:href="#d" x="516.46556" y="44.09281"/><use xlink:href="#e" x="356.16688" y="72.66944"/><g clip-path="url(#f)"><path fill="none" stroke="#000" stroke-miterlimit="10" stroke-width=".39733" d="M444.2851 104.20703c24.97656 0 45.22265 20.2461 45.22265 45.22265 0 24.97265-20.24609 45.21875-45.22265 45.21875s-45.22265-20.2461-45.22265-45.21875c0-24.97656 20.2461-45.22265 45.22265-45.22265Zm0 0"/></g><use xlink:href="#e" x="437.56554" y="154.06711"/><path fill="none" stroke="#000" stroke-miterlimit="10" stroke-width=".39733" d="M616.12883 113.25h90.4414L638.7382 45.41797Zm-45.22265-22.60937h180.8867"/><use xlink:href="#b" x="737.9955" y="79.88713"/><use xlink:href="#c" x="745.62428" y="79.88713"/><use xlink:href="#d" x="757.94159" y="79.88713"/><path fill="none" stroke="#000" stroke-miterlimit="10" stroke-width=".39733" d="M616.12883 68.03125h90.4414l-67.83203 67.83203Zm0 0"/></svg>