<svg xmlns="http://www.w3.org/2000/svg" xmlns:xlink="http://www.w3.org/1999/xlink" width="367.323pt" height="104.623pt" viewBox="0 0 367.323 104.623"><defs><path id="b" d="M1-3.28125c0 2.625.59375 5.51563 3.0625 5.60938v-.34375c-.82812-.15626-2.125-1.1875-2.125-5.26563 0-4.0625 1.23438-5.09375 2.125-5.28125v-.34375C1.59375-8.8125 1-5.92187 1-3.28125m0 0"/><path id="c" d="M.875-1.40625c0 .76563.21875 1.54688 1.15625 1.54688 1.34375 0 2.39063-1.4375 3.0625-2.6875H5.125l-.39062 1.39062c-.0625.23438-.09375.45313-.09375.625 0 .4375.20312.67188.60937.67188.92188 0 1.53125-.79688 1.92188-1.67188l-.28125-.17187c-.20313.40625-.71875 1.23437-1.04688 1.23437-.14062 0-.1875-.09375-.1875-.21875s.03125-.25.07813-.42187L7.5625-8.59375 7.5-8.64062 5.4375-8.375l-.0625.28125.6875.04688c.1875.01562.26563.0625.26563.20312 0 .0625-.01563.17188-.04688.28125l-.45312 1.875-.01563.03125c-.23437-.10937-.59375-.20312-.98437-.20312C2.10938-5.85937.875-2.8125.875-1.40625m1.14063.10938c0-1.26563 1.03125-4.15625 2.89062-4.15625.35938 0 .67188.125.79688.25-.17188.89062-.54688 1.98437-1.15625 2.95312C4-1.34375 3.21875-.46875 2.60938-.46875c-.375 0-.59375-.3125-.59375-.82812m0 0"/><path id="d" d="M.6875 1.98438v.34375c2.46875-.09375 3.07813-2.98438 3.07813-5.60938 0-2.64062-.60938-5.53125-3.07813-5.625v.34375c.90625.1875 2.14063 1.21875 2.14063 5.28125 0 4.07813-1.29688 5.10938-2.14063 5.26563m0 0"/><path id="e" d="m1.6875-1.26562.48438.48437L4.1875-2.8125 6.23438-.78125l.46875-.48437-2.03125-2.01563 2.03125-2.04687-.46875-.46875L4.1875-3.76562 2.17188-5.79687l-.48438.46875 2.03125 2.04687Zm0 0"/><path id="f" d="M0 0h2.75l.0625-.32812L2.35938-.375c-.34375-.01562-.53125-.10937-.53125-.35937 0-.625.10937-.96875.25-1.57813l1.0625-4.76562h.01562L4.5625-.14062h.32813l4.53125-6.9375h.03125L8.03125-.96875c-.10937.39063-.21875.53125-.5.5625l-.64062.07813L6.82813 0H10l.0625-.32812-.6875-.07813c-.20312-.01562-.29687-.10937-.29687-.29687 0-.07813.01562-.17188.04687-.26563l1.39063-6.125c.10937-.40625.1875-.5625.48437-.57812l.65625-.0625.07813-.32813H9.45313C8.82813-7 8.14063-5.95312 7.4375-4.875L5.375-1.71875h-.04687l-.65625-3.25C4.4375-6.01562 4.20313-7.01562 4-8.0625H1.75l-.07812.32813.6875.0625c.20312.01562.29687.10937.29687.3125 0 .07812-.01562.15625-.03125.26562L1.51563-2.3125C1.375-1.70312 1.23437-1.25 1.10938-.875.96875-.5.75-.40625.42188-.375L.0625-.32812Zm0 0"/><path id="g" d="M0 0h2.75l.0625-.32812L2.35938-.375c-.34375-.01562-.53125-.09375-.53125-.34375 0-.625.10937-.98437.25-1.59375l1.07812-4.78125h.04688C4.29688-4.73437 5.375-2.375 6.4375 0h.76563L8.5-5.75c.14063-.60937.26563-1.0625.40625-1.45312.14063-.35938.34375-.45313.70313-.48438l.35937-.04687.0625-.32813H7.26563l-.0625.32813.46875.0625c.34375.03125.54687.14062.54687.40625 0 .42187-.125.90625-.26562 1.51562L7-1.53125h-.04687c-1.01563-2.17187-2-4.34375-2.98438-6.53125H1.75l-.07812.32813.6875.0625c.20312.01562.29687.10937.29687.3125 0 .07812-.01562.15625-.03125.26562L1.51563-2.3125C1.375-1.70312 1.23437-1.25 1.10938-.875c-.14063.375-.34375.46875-.6875.5L.0625-.32812Zm0 0"/><path id="h" d="M.35938-.125c0 .04688.09375.125.21875.125.0625 0 .1875-.01562.21874-.0625L2.25-3.8125c.04688-.10937.0625-.1875.0625-.21875 0-.17187-.26562-.25-.51562-.25s-.64063.10938-.67188.26563Zm0 0"/><clipPath id="a"><path d="M.32031 29H360v47H.32031Zm0 0"/></clipPath></defs><path fill="none" stroke="red" stroke-miterlimit="10" stroke-width=".39707" d="m173.52352 52.70702-7.02735.70313.70703 7.02735 7.02735-.70313-.70703-7.02735"/><g clip-path="url(#a)"><path fill="none" stroke="#000" stroke-miterlimit="10" stroke-width=".39707" d="m.51953 70.00781 353.06267-35.3047"/></g><use xlink:href="#b" x="344.96725" y="47.99705"/><use xlink:href="#c" x="349.73215" y="47.99705"/><use xlink:href="#d" x="357.42547" y="47.99705"/><use xlink:href="#e" x="172.85644" y="90.55968"/><use xlink:href="#f" x="181.43453" y="100.11126"/><use xlink:href="#e" x="31.63232" y="69.37601"/><use xlink:href="#g" x="21.78879" y="62.09425"/><use xlink:href="#g" x="40.21041" y="80.09937"/><use xlink:href="#h" x="51.00651" y="75.136"/><use xlink:href="#e" x="165.79488" y="20.65358"/><use xlink:href="#f" x="174.37297" y="13.37281"/><use xlink:href="#h" x="186.88165" y="8.40945"/><path fill="none" stroke="#000" stroke-dasharray="2.9781001003000003 2.9781001003000003" stroke-miterlimit="10" stroke-width=".39707" d="m177.05087 87.66017-7.0586-69.90629"/><path fill="none" stroke="red" stroke-miterlimit="10" stroke-width=".39707" d="m178.36337 72.69922-6.15235-5.02344m2.62109-29.9297-6.15234-5.02344"/></svg>