<svg xmlns="http://www.w3.org/2000/svg" xmlns:xlink="http://www.w3.org/1999/xlink" width="137.008pt" height="141.3pt" viewBox="0 0 137.008 141.3"><defs><path id="a" d="M1-3.28125c0 2.625.59375 5.5 3.04688 5.60938v-.34375c-.82813-.17188-2.125-1.1875-2.125-5.26563 0-4.03125 1.23437-5.0625 2.125-5.25V-8.875C1.59375-8.78125 1-5.89062 1-3.28125m0 0"/><path id="b" d="M.85938-1.39062c0 .75.23437 1.53125 1.17187 1.53125 1.32813 0 2.375-1.42188 3.04688-2.67188h.03125l-.39063 1.375c-.0625.23438-.09375.45313-.09375.625 0 .4375.1875.67188.60938.67188.90625 0 1.51562-.79688 1.90625-1.67188L6.875-1.6875c-.21875.40625-.73437 1.21875-1.04687 1.21875-.14063 0-.1875-.09375-.1875-.21875 0-.10937.03125-.25.0625-.40625L7.54688-8.5625l-.0625-.04687-2.07813.26562-.04687.26563.6875.0625c.1875.01562.25.0625.25.20312 0 .0625 0 .15625-.04688.28125l-.4375 1.875-.03125.01563c-.21875-.10938-.57812-.1875-.96875-.1875-2.71875 0-3.95312 3.01562-3.95312 4.4375m1.15625.09374c0-1.26562 1.01562-4.125 2.85937-4.125.35938 0 .67188.10938.8125.23438-.17187.89063-.5625 1.98438-1.15625 2.95313-.54687.90625-1.3125 1.76562-1.9375 1.76562-.375 0-.57812-.3125-.57812-.82812m0 0"/><path id="c" d="M.6875 1.98438v.34375C3.15625 2.21875 3.75-.65625 3.75-3.28125c0-2.60937-.59375-5.5-3.0625-5.59375v.34375c.89063.1875 2.125 1.21875 2.125 5.25 0 4.07813-1.29687 5.09375-2.125 5.26563m0 0"/><path id="k" d="M-.21875 0h2.60938l.07812-.32812-.64062-.0625C1.6875-.40625 1.625-.48437 1.625-.59375c0-.0625.01563-.14062.0625-.23437.375-.73438.75-1.5 1.1875-2.28125h2.59375l.29688 2.40625s-.0625.28124-.3125.3125l-.625.0625L4.76563 0H7.625l.07813-.32812L7.25-.375c-.35937-.03125-.40625-.1875-.46875-.67187L5.9375-8.03125h-.82812L3.15625-4.60937c-.59375 1.03125-1.5625 2.76562-2 3.45312-.35937.60938-.5625.73438-.92187.76563l-.375.0625Zm3.32813-3.54687L5-6.95312l.40625 3.40625Zm0 0"/><path id="l" d="M0 0h3.51563c2.8125 0 3.375-1.45312 3.375-2.40625 0-1.23437-.89063-1.76562-1.75-1.92187l.01562-.01563c1.54688-.1875 2.20313-1.0625 2.20313-1.95312 0-.9375-.5625-1.73438-2.70313-1.73438h-2.9375l-.07812.32813.6875.0625c.20312.01562.29687.09375.29687.28125 0 .07812-.03125.17187-.04687.29687l-1.375 6.09375C1.10937-.57812 1-.4375.71875-.40625L.0625-.32812Zm2.32813-.89062c0-.07813 0-.17188.03125-.26563L3.03125-4.125h.45313c1.15625 0 2.15625.32813 2.15625 1.65625 0 1.03125-.625 2.0625-2.1875 2.0625-.90625 0-1.125-.1875-1.125-.48437m.78125-3.64063.60937-2.70312c.09375-.34375.15625-.40625.92188-.40625.98437 0 1.53125.5 1.53125 1.3125 0 1.21875-1.01563 1.79687-2.29688 1.79687Zm0 0"/><path id="m" d="M.60938-3.1875c0 1.53125.75 3.35938 3.625 3.35938.82812 0 1.625-.10938 2.35937-.48438l.57813-1.84375h-.34375C6.1875-1 5.59375-.23437 4.17188-.23437c-1.35938 0-2.3125-.85938-2.3125-2.65625 0-1.04688.26562-2.34375.82812-3.26563C3.26563-7.125 4.17188-7.8125 5.42188-7.8125c1.46875 0 1.89062.6875 1.89062 1.95313h.35938l.42187-1.73438c-.67187-.42187-1.75-.625-2.5625-.625-2.1875 0-3.45312 1.03125-4.14062 2.10938C.75-5.0625.60938-3.98437.60938-3.1875m0 0"/><path id="d" d="M.20313 0h1.71875v-.17187C1.3125-.20313 1.3125-.20313 1.3125-.53125v-1.375h.79688c.5 0 .53125.14063.57812.51563h.17188v-1.25H2.6875c-.04687.375-.07812.51562-.57812.51562H1.3125v-1.48437c0-.20313.01563-.21875.20313-.21875h.57812c.67188 0 .8125.14062.89063.73437h.17187v-.92187H.20313v.15625c.51562.04687.53125.04687.53125.375v2.95312c0 .32813-.01563.32813-.53125.35938Zm0 0"/><path id="e" d="M.53125-3.8125c0 .21875.15625.35938.35938.35938S1.25-3.59375 1.25-3.8125c0-.20312-.15625-.34375-.35937-.34375s-.35938.14063-.35938.34375M.1875 0h1.42188v-.17187C1.1875-.20313 1.17188-.20313 1.17188-.5v-2.39062L1.125-2.92187l-.90625.15625v.14062l.21875.03125c.14063.01563.1875.04688.1875.25V-.5c0 .29688-.01562.29688-.4375.32813Zm0 0"/><path id="f" d="M.23438.5625c0 .57813.59375.84375 1.26562.84375.34375 0 .71875-.0625 1-.23437.26563-.15626.45313-.4375.45313-.79688 0-.64062-.5-.84375-1.125-.84375H1.375c-.42187 0-.48437-.15625-.48437-.26562 0-.15626.21874-.25.29687-.28126C1.29688-1 1.42188-1 1.48438-1c.54687 0 1.17187-.23437 1.17187-.9375 0-.25-.07812-.45312-.1875-.54687l.46875-.07813.125-.35937L3-2.96875l-.73437.23438c-.15625-.125-.48438-.1875-.75-.1875C.625-2.92187.3125-2.375.3125-1.9375c0 .54688.35938.79688.625.85938v.01562c-.3125.125-.53125.29688-.53125.51563 0 .20312.23438.42187.51563.45312v.01563C.67188 0 .23438.14063.23438.5625m.5625-.03125c0-.20312.0625-.34375.1875-.4375s.3125-.14062.59375-.14062c.51562 0 .89062.14062.89062.5625 0 .46875-.42187.6875-.82812.6875-.5 0-.84375-.25-.84375-.67188M.90625-1.9375c0-.57812.29688-.78125.60938-.78125.28124 0 .57812.21875.57812.78125 0 .48438-.25.73438-.59375.73438-.32812 0-.59375-.25-.59375-.73438m0 0"/><path id="g" d="m.15625-2.625.21875.03125c.14063.01563.1875.04688.1875.25v1.54688c0 .65625.39063.85937.82813.85937.48437 0 .89062-.32812 1.0625-.40625L2.5 0h.9375v-.17187C3.03125-.20313 3-.20313 3-.5v-2.39062l-.04687-.03125-.90625.15625v.14062l.21875.03125c.15625.01563.1875.04688.1875.25v1.3125c0 .17188-.01563.29688-.04688.34375-.14062.26563-.40625.45313-.70312.45313-.34375 0-.59375-.21875-.59375-.67188v-1.98437l-.04688-.03125-.90625.15625Zm0 0"/><path id="h" d="M.1875 0h1.53125v-.17187C1.20313-.20313 1.17188-.20313 1.17188-.5v-1.375c0-.4375.20312-.59375.32812-.59375.09375 0 .20313.03125.35938.125.04687.03125.09374.03125.125.03125.14062 0 .26562-.14062.26562-.32812 0-.125-.07812-.28125-.3125-.28125-.21875 0-.39062.125-.76562.46875l-.07813-.46875-.875.15625v.14062l.21875.03125c.14063.01563.1875.04688.1875.25V-.5c0 .29688-.03125.29688-.4375.32813Zm0 0"/><path id="i" d="M.28125-1.40625C.28125-.48437.6875.0625 1.625.0625c.64063 0 .98438-.35937 1.14063-.8125l-.17188-.09375C2.42188-.5 2.20313-.23437 1.75-.23437c-.73437 0-.875-.6875-.85937-1.29688H2.5625c.125 0 .23438-.03125.23438-.21875 0-.34375-.10938-1.17187-1.17188-1.17187-.90625 0-1.34375.64062-1.34375 1.51562M.89063-1.75c0-.25.09374-.96875.70312-.96875.53125 0 .59375.54688.59375.78125 0 .10938-.03125.1875-.1875.1875Zm0 0"/><path id="j" d="M.625 0h1.92188v-.17187l-.5-.03126c-.10938-.01562-.1875-.0625-.1875-.29687v-3.42187l-.03126-.03125L.625-3.75v.14063l.54688.0625c.10937.01562.14062.0625.14062.23437V-.5q0 .16407-.04687.23438c-.03126.03125-.07813.04687-.14063.0625l-.5.03124Zm0 0"/><path id="n" d="M.15625-.0625.21875 0H2.625l.20313-.76562-.17188-.03126c-.125.3125-.23437.35938-.46875.35938H.70313c.09374-.3125.4375-.71875.96875-1.10937.5625-.40625 1-.67188 1-1.3125 0-.8125-.54688-1.09375-1.15625-1.09375-.79688 0-1.20313.48437-1.20313.78125 0 .20312.21875.29687.3125.29687.10938 0 .14063-.0625.17188-.15625.09374-.40625.32812-.71875.6875-.71875.4375 0 .5625.375.5625.79688 0 .625-.3125.98437-.8125 1.42187C.51563-.90625.26563-.5.15624-.0625m0 0"/><path id="o" d="M.35938-.125c0 .04688.09375.125.21875.125.0625 0 .1875-.01562.20312-.0625l1.45313-3.73437c.0625-.10938.0625-.1875.0625-.21875 0-.17188-.26563-.25-.51563-.25-.23437 0-.625.10937-.65625.25Zm0 0"/></defs><path fill="none" stroke="#000" stroke-miterlimit="10" stroke-width=".39563" d="m35.375 52.22266 70.3594-35.1797H35.375m0-.00001-2.29297.15235-2.25781.44922-2.1797.73828-2.0625 1.01562-1.91406 1.28125-1.73046 1.51563-1.51563 1.73047-1.27734 1.91406-1.01954 2.0625-.73828 2.1797-.44922 2.2539-.15234 2.29688.15234 2.29687.44922 2.25781.73828 2.17579 1.01954 2.0664 1.27734 1.91016 1.51563 1.73047 1.73046 1.51563 1.91407 1.28125 2.0625 1.01562 2.17969.73828 2.25781.44922 2.29297.15235M.1953 69.8125h123.12895"/><use xlink:href="#a" x="114.74221" y="63.11853"/><use xlink:href="#b" x="119.48991" y="63.11853"/><use xlink:href="#c" x="127.15545" y="63.11853"/><use xlink:href="#d" x="31.8901" y="36.00882"/><use xlink:href="#e" x="35.20359" y="36.00882"/><use xlink:href="#f" x="36.89125" y="36.00882"/><use xlink:href="#g" x="39.90801" y="36.00882"/><use xlink:href="#h" x="43.42551" y="36.00882"/><use xlink:href="#i" x="45.56444" y="36.00882"/><use xlink:href="#j" x="49.85467" y="36.00882"/><use xlink:href="#k" x="31.38873" y="64.62661"/><use xlink:href="#l" x="110.10082" y="12.67576"/><use xlink:href="#m" x="31.45724" y="12.50301"/><path fill="none" stroke="#000" stroke-miterlimit="10" stroke-width=".39563" d="m35.375 87.40236 70.3594 35.1797H35.375"/><use xlink:href="#d" x="31.8901" y="106.3654"/><use xlink:href="#e" x="35.20359" y="106.3654"/><use xlink:href="#f" x="36.89125" y="106.3654"/><use xlink:href="#g" x="39.90801" y="106.3654"/><use xlink:href="#h" x="43.42551" y="106.3654"/><use xlink:href="#i" x="45.56444" y="106.3654"/><use xlink:href="#n" x="49.85467" y="106.3654"/><path fill="none" stroke="#000" stroke-miterlimit="10" stroke-width=".39563" d="m35.375 87.40236-2.29297.14844L30.82422 88l-2.1797.7422-2.0625 1.01562-1.91406 1.27734-1.73046 1.51953-1.51563 1.73047-1.27734 1.91016-1.01954 2.0664-.73828 2.17579-.44922 2.25781-.15234 2.29688.15234 2.29297.44922 2.25781.73828 2.1797 1.01954 2.0625 1.27734 1.91406 1.51563 1.73046 1.73046 1.51563 1.91407 1.27734 2.0625 1.01563 2.17969.74219 2.25781.44922 2.29297.14843"/><use xlink:href="#k" x="29.57189" y="83.03235"/><use xlink:href="#o" x="38.04057" y="78.0869"/><use xlink:href="#l" x="110.10082" y="136.15075"/><use xlink:href="#o" x="118.2245" y="131.2053"/><use xlink:href="#m" x="29.36836" y="136.15075"/><use xlink:href="#o" x="38.24534" y="131.2053"/></svg>