<svg xmlns="http://www.w3.org/2000/svg" xmlns:xlink="http://www.w3.org/1999/xlink" width="117.83pt" height="109.56pt" viewBox="0 0 117.83 109.56"><defs><path id="a" d="m1.75-1.3125.51563.5 2.09375-2.125 2.125 2.125.48437-.5-2.10937-2.10937 2.10937-2.10938-.48437-.5-2.125 2.10938-2.09375-2.10938-.51563.5 2.125 2.10938Zm0 0"/><path id="b" d="M-.23437 0H2.5l.07813-.34375-.67188-.0625C1.75-.42187 1.6875-.5 1.6875-.625c0-.0625.03125-.15625.0625-.23437.40625-.78125.79688-1.5625 1.25-2.375h2.71875l.29688 2.5s-.0625.29687-.32813.32812l-.64062.0625L4.98438 0h2.98437l.07813-.34375-.46875-.04687c-.375-.03125-.42188-.20313-.5-.70313L6.1875-8.39062h-.85937L3.29688-4.8125c-.625 1.07813-1.625 2.89063-2.07813 3.60938C.82813-.5625.625-.4375.25-.40625l-.40625.0625Zm3.46875-3.70312 1.98437-3.5625.4375 3.5625Zm0 0"/><path id="d" d="M0 0h3.67188c2.9375 0 3.53125-1.51562 3.53125-2.51562 0-1.28125-.9375-1.82813-1.82813-2v-.03125C7-4.73437 7.67188-5.65625 7.67188-6.5625c0-.98437-.57813-1.82812-2.8125-1.82812h-3.0625l-.07813.34375.71875.07812c.20313 0 .29688.09375.29688.29688 0 .0625-.03125.17187-.04688.29687L1.25-1c-.09375.39063-.20312.53125-.5.57813l-.6875.07812Zm2.42188-.92187q0-.14063.04687-.28126l.6875-3.10937h.48438c1.20312 0 2.25.34375 2.25 1.73438 0 1.07812-.65625 2.15625-2.28125 2.15625-.95313 0-1.1875-.20313-1.1875-.5M3.25-4.73437l.64063-2.8125c.07812-.35938.15625-.42188.96875-.42188 1.01562 0 1.57812.51563 1.57812 1.35938 0 1.26562-1.0625 1.875-2.39062 1.875Zm0 0"/><path id="e" d="M1.04688-3.42187c0 2.73437.625 5.75 3.1875 5.84375V2.0625C3.375 1.89063 2.01563.82813 2.01563-3.42187c0-4.21875 1.28125-5.29688 2.21875-5.48438v-.35937c-2.5625.10937-3.1875 3.10937-3.1875 5.84375m0 0"/><path id="f" d="M.90625-1.45312c0 .78125.23438 1.59375 1.20313 1.59375 1.40625 0 2.48437-1.48438 3.1875-2.78125h.03125l-.39063 1.4375c-.07812.25-.10937.46875-.10937.64062 0 .45313.20312.70313.625.70313.96875 0 1.59375-.82813 2-1.73438l-.28125-.17187c-.21875.42187-.75 1.28125-1.09375 1.28125-.14063 0-.1875-.09375-.1875-.23438 0-.125.03125-.26562.07812-.4375L7.875-8.9375 7.8125-9l-2.15625.28125-.0625.29688.71875.0625c.1875.01562.26563.0625.26563.20312 0 .0625-.01563.17188-.04688.29688L6.0625-5.90625l-.01562.01563C5.8125-6 5.4375-6.09375 5.01563-6.09375 2.1875-6.09375.90625-2.9375.90625-1.45312m1.20313.09374c0-1.3125 1.04687-4.3125 2.98437-4.3125.375 0 .70313.125.84375.25-.1875.9375-.57812 2.07813-1.20312 3.07813-.57813.95313-1.375 1.85938-2.03125 1.85938-.375 0-.59375-.32813-.59375-.875m0 0"/><path id="g" d="M.71875 2.0625v.35938c2.57813-.09375 3.1875-3.10938 3.1875-5.84375S3.29688-9.15625.71875-9.26562v.35937c.9375.1875 2.21875 1.26563 2.21875 5.48438 0 4.25-1.34375 5.3125-2.21875 5.48437m0 0"/><path id="c" d="M.375-.125c0 .04688.10938.125.21875.125.07813 0 .20313-.01562.23438-.07812l1.51562-3.875c.04688-.125.0625-.20313.0625-.23438 0-.1875-.28125-.25-.54687-.25-.25 0-.65625.09375-.6875.25Zm0 0"/></defs><use xlink:href="#a" x="12.96753" y="20.25366"/><use xlink:href="#b" x="4.45073" y="12.68506"/><use xlink:href="#a" x="86.38866" y="93.6748"/><use xlink:href="#b" x="95.30585" y="104.82203"/><use xlink:href="#c" x="104.14157" y="99.66225"/><use xlink:href="#a" x="68.03338" y="38.60894"/><use xlink:href="#d" x="59.90303" y="31.03934"/><use xlink:href="#e" x="95.30585" y="31.06126"/><use xlink:href="#f" x="100.25931" y="31.06126"/><use xlink:href="#g" x="108.25708" y="31.06126"/><path fill="none" stroke="red" stroke-miterlimit="10" stroke-width=".39691" d="m59.23047 48.76172-5.1914-5.1914-5.19141 5.1914"/><path fill="none" stroke="#000" stroke-miterlimit="10" stroke-width=".39691" d="M17.32812 90.66406 90.75 17.2422m-73.42188-.00001L90.75 90.66406"/><path fill="none" stroke="red" stroke-miterlimit="10" stroke-width=".39691" d="m33.40625 37.53125 4.5625-3.85938m32.14062 40.5625 4.5625-3.85937"/></svg>