<svg xmlns="http://www.w3.org/2000/svg" xmlns:xlink="http://www.w3.org/1999/xlink" width="681.51pt" height="284.66pt" viewBox="0 0 681.51 284.66"><defs><clipPath id="a"><path d="M.16016 0H284v284H.16016Zm0 0"/></clipPath><clipPath id="b"><path d="M.16016 0H285v284H.16016Zm0 0"/></clipPath><clipPath id="c"><path d="M141 0h2v284.32031h-2Zm0 0"/></clipPath><clipPath id="d"><path d="M.16016 0H160v284.32031H.16016Zm0 0"/></clipPath><clipPath id="h"><path d="M397 0h283.85938v284H397Zm0 0"/></clipPath><clipPath id="i"><path d="M396 0h284.85938v284H396Zm0 0"/></clipPath><clipPath id="j"><path d="M380 0h300.85938v284.32031H380Zm0 0"/></clipPath><clipPath id="k"><path d="M125 0h176v284.32031H125Zm0 0"/></clipPath><clipPath id="l"><path d="M380 0h300.85938v284.32031H380Zm0 0"/></clipPath><path id="e" d="M1.60938-5.28125c0 4.21875.95312 8.85938 4.92187 9.03125v-.5625c-1.32812-.26562-3.42187-1.90625-3.42187-8.46875 0-6.5 1.98437-8.15625 3.42187-8.45312v-.5625C2.5625-14.14062 1.60938-9.5 1.60938-5.28125m0 0"/><path id="f" d="M1.39063-2.25c0 1.21875.35937 2.46875 1.875 2.46875 2.15625 0 3.82812-2.28125 4.92187-4.29687h.03125l-.60937 2.23437c-.10938.375-.17188.70313-.17188.98438 0 .70312.32813 1.07812.98438 1.07812 1.46875 0 2.45312-1.28125 3.07812-2.6875l-.4375-.26562C10.73438-2.0625 9.89063-.75 9.375-.75c-.21875 0-.29687-.14062-.29687-.35937 0-.1875.0625-.40625.125-.65625l2.9375-12.03125-.09375-.07813-3.32813.4375L8.625-13l1.10938.09375c.29687.03125.42187.10938.42187.32813 0 .09375-.03125.25-.07812.45312l-.71875 3.01563-.04688.03125c-.35937-.17188-.9375-.3125-1.5625-.3125-4.35937 0-6.35937 4.875-6.35937 7.14062M3.25-2.09375c0-2.03125 1.625-6.64062 4.60938-6.64062.57812 0 1.07812.17187 1.29687.375-.28125 1.4375-.89062 3.20312-1.84375 4.75C6.40625-2.15625 5.17188-.75 4.1875-.75c-.60937 0-.9375-.5-.9375-1.34375m0 0"/><path id="g" d="M1.10938 3.1875V3.75c3.96875-.17187 4.92187-4.8125 4.92187-9.03125s-.95312-8.85937-4.92187-9.01562v.5625c1.4375.29687 3.42187 1.95312 3.42187 8.45312 0 6.5625-2.07812 8.20313-3.42187 8.46875m0 0"/></defs><g clip-path="url(#a)"><path fill="#FFF" d="M.75781 283.72266V.59375h283.13282v283.1289Zm0 0"/></g><g fill="none" stroke="#000" stroke-miterlimit="10" stroke-width=".3985" clip-path="url(#b)"><path stroke-width=".39803" d="M.75781 283.72266V.59376h283.13281v283.1289Zm0 0h283.13281M.75782 255.41016h283.1328M.75782 227.09766h283.1328M.75782 198.78516h283.1328M.75782 170.47266h283.1328M.75782 142.16016h283.1328M.75782 113.84376h283.1328M.75782 85.53125h283.1328M.75782 57.21875h283.1328M.75782 28.90625h283.1328M.75782.59375h283.1328M.75782 283.72265V.59376m28.3125 283.1289V.59376m28.3164 283.1289V.59376m28.3125 283.1289V.59376m28.3125 283.1289V.59376m28.3125 283.1289V.59376m28.3125 283.1289V.59376m28.3125 283.1289V.59376m28.3125 283.1289V.59376m28.3125 283.1289V.59376m28.3164 283.1289V.59376"/></g><g clip-path="url(#c)"><path fill="none" stroke="#000" stroke-miterlimit="10" stroke-width="1.19411" d="M142.32422 283.72266V.59376"/></g><g clip-path="url(#d)"><path fill="none" stroke="#000" stroke-miterlimit="10" stroke-width="1.19411" d="m114.01172.59375 28.3125 56.625-84.9375-28.3125-56.6289 28.3125v84.9375l56.6289 56.6289 56.625 28.3125-56.625 28.3125 28.3125 28.3125h56.625l-56.625-28.3125 56.625-28.3125v-84.9414l-28.3125 56.6289h-28.3125l-56.6289-56.6289v-56.625l28.3164-28.3125 56.625 28.3125 28.3125 56.625"/></g><path fill="none" stroke="#000" stroke-miterlimit="10" stroke-width="1.19411" d="M114.01172 170.47266h-28.3125l-28.3125-28.3164v-56.625l56.625 28.3125Zm28.3125 84.9375h-28.3125"/><use xlink:href="#e" x="149.35261" y="21.91782"/><use xlink:href="#f" x="156.99479" y="21.91782"/><use xlink:href="#g" x="169.33373" y="21.91782"/><g clip-path="url(#h)"><path fill="#FFF" d="M397.14063 283.72266V.59375h283.1289v283.1289Zm0 0"/></g><g fill="none" stroke="#000" stroke-miterlimit="10" stroke-width=".3985" clip-path="url(#i)"><path stroke-width=".39803" d="M397.14062 283.72266V.59376h283.1289v283.1289Zm0 0h283.1289m-283.1289-28.3125h283.1289m-283.1289-28.3125h283.1289m-283.1289-28.3125h283.1289m-283.1289-28.3125h283.1289m-283.1289-28.3125h283.1289m-283.1289-28.3164h283.1289m-283.1289-28.3125h283.1289m-283.1289-28.3125h283.1289m-283.1289-28.3125h283.1289M397.14062.59375h283.1289m-283.1289 283.1289V.59376m28.3125 283.1289V.59376m28.3125 283.1289V.59376m28.3125 283.1289V.59376m28.3164 283.1289V.59376m28.3125 283.1289V.59376m28.3125 283.1289V.59376m28.3125 283.1289V.59376m28.3125 283.1289V.59376m28.3125 283.1289V.59376m28.3125 283.1289V.59376"/></g><g fill="none" stroke="#000" stroke-miterlimit="10" stroke-width="1.19553" clip-path="url(#j)"><path stroke-width="1.19411" d="M397.14062 283.72266 680.26952.59376m0-.00001v283.1289h-283.1289l28.3125-28.3125h226.5039V28.90626l-28.3125 28.3125v169.8789h-169.8789"/></g><path fill="none" stroke="#000" stroke-miterlimit="10" stroke-width="1.19411" d="m510.39452 227.09766-28.3164-28.3125m84.9414 28.3125-56.625-56.625m113.25 56.625-84.9375-84.9414m84.9375 28.3164-56.625-56.6289m56.625-.00001-28.3125-28.3125"/><use xlink:href="#e" x="617.2947" y="34.18317"/><use xlink:href="#f" x="624.93688" y="34.18317"/><use xlink:href="#g" x="637.27581" y="34.18317"/><g clip-path="url(#k)"><path fill="none" stroke="#000" stroke-miterlimit="10" stroke-width="1.19411" d="m170.63672.59375-28.3125 56.625 84.9375-28.3125 56.6289 28.3125v84.9375l-56.6289 56.6289-56.625 28.3125 56.625 28.3125-28.3125 28.3125h-56.625l56.625-28.3125-56.625-28.3125v-84.9414l28.3125 56.6289h28.3125l56.625-56.6289v-56.625l-28.3125-28.3125-56.625 28.3125-28.3125 56.625"/></g><path fill="none" stroke="#000" stroke-miterlimit="10" stroke-width="1.19411" d="M170.63672 170.47266h28.3125l28.3125-28.3164v-56.625l-56.625 28.3125Zm-28.3125 84.9375h28.3125"/><g clip-path="url(#l)"><path fill="none" stroke="#000" stroke-miterlimit="10" stroke-width="1.19411" d="M680.26952.59375h-283.1289v283.1289l28.3125-28.3125V28.90626h226.5039l-28.3125 28.3125h-169.8789v169.8789"/></g><path fill="none" stroke="#000" stroke-miterlimit="10" stroke-width="1.19411" d="m453.76562 170.47266 28.3125 28.3125m-28.3125-84.94141 56.6289 56.6289m-56.6289-113.2539 84.9414 84.9375m-28.3125-84.9375 56.625 56.625m0-56.625 28.3125 28.3125"/></svg>