<svg xmlns="http://www.w3.org/2000/svg" xmlns:xlink="http://www.w3.org/1999/xlink" width="181.255pt" height="169.047pt" viewBox="0 0 181.255 169.047"><defs><path id="a" d="m2.6875-2.01562.78125.76562L6.70313-4.5l3.25 3.25.75-.76562L7.46875-5.25l3.23438-3.25-.75-.75-3.25 3.23438L3.46875-9.25l-.78125.75 3.25 3.25Zm0 0"/><path id="b" d="M-.35937 0h4.20312l.125-.53125L2.9375-.64062c-.25-.01563-.34375-.125-.34375-.3125 0-.09376.04688-.23438.09375-.375.625-1.1875 1.21875-2.39063 1.90625-3.64063h4.1875L9.23438-1.125s-.09375.45313-.5.48438L7.75-.53125 7.64063 0h4.57812l.125-.53125-.71875-.0625c-.5625-.0625-.65625-.3125-.75-1.09375L9.51563-12.875H8.1875L5.04688-7.39062c-.95313 1.67187-2.48438 4.4375-3.1875 5.54687C1.26563-.875.95313-.67187.375-.60937l-.60937.07812Zm5.32812-5.6875L8-11.15625l.67188 5.46875Zm0 0"/><path id="d" d="M0 0h5.64063c4.5 0 5.42187-2.3125 5.42187-3.85937 0-1.96875-1.45312-2.8125-2.82812-3.07813l.03125-.03125c2.46875-.29687 3.51562-1.70312 3.51562-3.10937 0-1.51563-.89062-2.79688-4.3125-2.79688H2.75l-.10937.53125L3.75-12.25c.3125.03125.45313.17188.45313.46875 0 .10938-.04688.26563-.07813.45313L1.92188-1.54687c-.14063.60937-.3125.82812-.76563.89062l-1.0625.125Zm3.71875-1.42187c0-.14063.03125-.28126.0625-.42188L4.85938-6.625h.73437c1.84375 0 3.45313.54688 3.45313 2.65625 0 1.67188-1 3.3125-3.5 3.3125-1.46875 0-1.82813-.29687-1.82813-.76562M5-7.26562l.96875-4.32813c.14063-.54687.23438-.65625 1.48438-.65625 1.5625 0 2.4375.79688 2.4375 2.10938 0 1.9375-1.625 2.875-3.6875 2.875Zm0 0"/><path id="e" d="M1.60938-5.25c0 4.20313.95312 8.8125 4.89062 8.96875v-.54687C5.17188 2.90625 3.09375 1.26563 3.09375-5.25c0-6.48437 1.98438-8.125 3.40625-8.42187v-.54688C2.5625-14.0625 1.60938-9.45312 1.60938-5.25m0 0"/><path id="f" d="M1.39063-2.23437C1.39063-1.03125 1.75.21875 3.25.21875c2.14063 0 3.79688-2.28125 4.89063-4.28125h.04687l-.625 2.21875c-.09375.375-.15625.71875-.15625.98438 0 .70312.32813 1.07812.96875 1.07812 1.46875 0 2.4375-1.26562 3.07813-2.67187l-.4375-.26563C10.67188-2.0625 9.84375-.75 9.32813-.75c-.21875 0-.29688-.14062-.29688-.35937 0-.17188.0625-.39063.125-.65625l2.92188-11.96875-.09375-.07813-3.3125.4375-.09375.4375 1.10937.09375c.29688.03125.42188.10938.42188.32813 0 .09375-.03125.25-.07813.45312L9.3125-9.07812l-.04687.04687c-.34375-.1875-.92188-.3125-1.5625-.3125-4.32813 0-6.3125 4.84375-6.3125 7.10938m1.84375.15625c0-2.01563 1.625-6.625 4.59375-6.625.57812 0 1.0625.1875 1.28125.375-.26563 1.4375-.89063 3.20312-1.84375 4.73437C6.375-2.14062 5.15625-.75 4.15625-.75c-.59375 0-.92187-.5-.92187-1.32812m0 0"/><path id="g" d="M1.10938 3.17188v.54687C5.04688 3.5625 6-1.04687 6-5.25s-.95312-8.8125-4.89062-8.96875v.54688c1.42187.29687 3.40625 1.9375 3.40625 8.42187 0 6.51563-2.07813 8.15625-3.40625 8.42188m0 0"/><path id="c" d="M.57813-.70312c0 .0625.15624.1875.34375.1875.10937 0 .3125-.03126.34375-.10938l2.32812-5.96875c.07813-.1875.09375-.29687.09375-.35937 0-.28125-.42187-.39063-.82812-.39063-.39063 0-1.01563.15625-1.0625.40625Zm0 0"/></defs><use xlink:href="#a" x="19.82465" y="31.10962"/><use xlink:href="#b" x="6.74141" y="19.48316"/><use xlink:href="#a" x="132.57403" y="143.859"/><use xlink:href="#b" x="146.27181" y="161.49557"/><use xlink:href="#c" x="159.8433" y="153.57025"/><use xlink:href="#a" x="104.38693" y="59.29672"/><use xlink:href="#d" x="91.89834" y="47.67026"/><use xlink:href="#e" x="146.27181" y="47.70904"/><use xlink:href="#f" x="153.88022" y="47.70904"/><use xlink:href="#g" x="166.16464" y="47.70904"/><path fill="none" stroke="red" stroke-miterlimit="10" stroke-width=".39626" d="m82.89453 82.85938 7.97266-7.97266-7.97266-7.97266-7.97265 7.97266 7.97265 7.97266"/><path fill="none" stroke="#000" stroke-miterlimit="10" stroke-width=".39626" d="m26.51954 139.23437 112.7539-112.7539m-112.7539.00001 112.7539 112.75389"/><path fill="none" stroke="red" stroke-miterlimit="10" stroke-width=".39626" d="M50.6875 54.61328h7.92578m48.44922 56.375h7.92578"/></svg>