<svg xmlns="http://www.w3.org/2000/svg" xmlns:xlink="http://www.w3.org/1999/xlink" width="137.008pt" height="53.548pt" viewBox="0 0 137.008 53.548"><defs><path id="b" d="M1-3.26562c0 2.60937.59375 5.48437 3.04688 5.59375v-.35938c-.82813-.15625-2.125-1.17187-2.125-5.23437 0-4.04688 1.23437-5.0625 2.125-5.25v-.34375C1.59375-8.76562 1-5.89062 1-3.26562m0 0"/><path id="c" d="M.85938-1.39062c0 .75.23437 1.53125 1.17187 1.53125 1.32813 0 2.35938-1.42188 3.04688-2.67188h.01562l-.375 1.39063c-.0625.23437-.10937.4375-.10937.60937 0 .4375.20312.67188.60937.67188.92188 0 1.51563-.79688 1.92188-1.67188l-.28125-.15625c-.20313.40625-.71875 1.21875-1.04688 1.21875-.14062 0-.1875-.09375-.1875-.21875 0-.10937.04688-.25.07813-.40625l1.82812-7.45312-.0625-.0625-2.0625.28125-.0625.26562.6875.0625c.1875.01563.26563.0625.26563.20313q0 .09375-.04688.28125l-.45312 1.85937-.01563.03125c-.23437-.10937-.57812-.20312-.98437-.20312-2.70313 0-3.9375 3.03125-3.9375 4.4375m1.15625.09374c0-1.26562 1.01562-4.125 2.85937-4.125.35938 0 .67188.10938.79688.23438C5.5-4.29687 5.125-3.20312 4.53125-2.23437c-.5625.90625-1.32812 1.76562-1.9375 1.76562-.375 0-.57812-.3125-.57812-.82812m0 0"/><path id="d" d="M.6875 1.96875v.35938c2.45313-.10938 3.04688-2.98438 3.04688-5.59375 0-2.625-.59375-5.5-3.04688-5.59375v.34375c.89063.1875 2.125 1.20312 2.125 5.25 0 4.0625-1.29687 5.07812-2.125 5.23437m0 0"/><path id="e" d="M.20313 0h1.70312v-.17187c-.59375-.03126-.60937-.03126-.60937-.35938v-1.35937h.8125c.5 0 .51562.125.5625.5h.17187V-2.625h-.17187c-.04688.35938-.0625.51563-.5625.51563h-.8125v-1.5c0-.1875.03124-.20313.21874-.20313h.57813c.67188 0 .79688.14063.875.71875h.17188v-.92187H.20313v.17187c.51562.03125.53125.04688.53125.375v2.9375c0 .32813-.01563.32813-.53125.35938Zm0 0"/><path id="f" d="M.53125-3.79687c0 .21875.14063.35937.35938.35937.20312 0 .34375-.14062.34375-.35937 0-.20313-.14063-.34375-.34375-.34375-.21876 0-.35938.14062-.35938.34375M.1875 0h1.40625v-.17187C1.1875-.20313 1.17188-.20313 1.17188-.5v-2.375L1.125-2.90625l-.90625.14063v.14062l.21875.03125c.14063.03125.1875.04688.1875.26563V-.5c0 .29688-.01562.29688-.4375.32813Zm0 0"/><path id="g" d="M.23438.5625c0 .57813.59375.84375 1.26562.84375.34375 0 .70313-.07812.98438-.23437C2.75 1 2.95313.73438 2.95313.375c0-.64062-.5-.84375-1.125-.84375h-.46875C.9375-.46875.875-.625.875-.73437c0-.15626.23438-.25.29688-.28126C1.29688-1 1.40625-1 1.46875-1c.5625 0 1.17188-.23437 1.17188-.9375 0-.23437-.07813-.4375-.17188-.54687l.46875-.07813.10938-.35937L3-2.96875l-.73437.23438c-.17188-.10938-.5-.17188-.76563-.17188-.875 0-1.1875.53125-1.1875.96875 0 .54688.35938.79688.625.85938v.01562c-.3125.125-.53125.29688-.53125.51563 0 .20312.23438.42187.5.45312v.01563C.67188 0 .23438.14063.23438.5625m.5625-.03125c0-.20312.0625-.34375.17187-.4375.14063-.09375.32813-.14062.60938-.14062.51562 0 .89062.14062.89062.5625 0 .46875-.42187.6875-.84375.6875-.48437 0-.82812-.25-.82812-.67188M.90625-1.9375c0-.57812.29688-.76562.59375-.76562s.59375.20312.59375.76562c0 .48438-.25.73438-.59375.73438-.32812 0-.59375-.25-.59375-.73438m0 0"/><path id="h" d="m.14063-2.625.23437.03125c.14063.03125.1875.04688.1875.26563v1.53125c0 .65625.39063.85937.8125.85937.5 0 .90625-.32812 1.0625-.40625L2.5 0h.9375v-.17187C3.03125-.20313 3-.20313 3-.5v-2.375l-.04687-.03125-.90625.14063v.14062l.21875.03125c.14062.03125.1875.04688.1875.26563v1.29687c0 .17188-.01563.29688-.04688.35938-.14062.26562-.40625.4375-.71875.4375-.32812 0-.57812-.21875-.57812-.67188V-2.875l-.04688-.03125-.92187.14063Zm0 0"/><path id="i" d="M.1875 0h1.53125v-.17187C1.20313-.20313 1.17188-.20313 1.17188-.5v-1.35937c0-.45313.1875-.60938.32812-.60938.09375 0 .1875.04688.35938.14063.04687.01562.07812.03125.10937.03125.14063 0 .26563-.15625.26563-.32813 0-.14062-.07813-.28125-.29688-.28125s-.39062.10938-.76562.45313l-.07813-.45313-.875.14063v.14062l.21875.03125c.14063.03125.1875.04688.1875.26563V-.5c0 .29688-.03125.29688-.4375.32813Zm0 0"/><path id="j" d="M.28125-1.40625C.28125-.48437.67188.0625 1.625.0625c.64063 0 .96875-.35937 1.125-.8125l-.17187-.09375c-.15625.34375-.375.60938-.84375.60938-.71875 0-.85938-.6875-.84375-1.29688H2.5625c.125 0 .23438-.03125.23438-.21875 0-.34375-.125-1.15625-1.1875-1.15625-.90625 0-1.32813.64063-1.32813 1.5M.89063-1.75c0-.23437.09374-.95312.70312-.95312.53125 0 .59375.54687.59375.76562 0 .10938-.04687.1875-.20312.1875Zm0 0"/><path id="k" d="M.625 0h1.90625v-.17187l-.48437-.03126c-.125-.01562-.1875-.0625-.1875-.29687v-3.40625l-.03126-.03125L.625-3.73437v.14062l.54688.0625c.09374.01563.14062.0625.14062.21875V-.5c0 .125-.01562.1875-.04687.23438-.03126.03125-.09376.04687-.15626.0625L.625-.17188Zm0 0"/><clipPath id="a"><path d="M.08203 52H124v1.10156H.08203Zm0 0"/></clipPath></defs><path fill="none" stroke="#000" stroke-miterlimit="10" stroke-width=".39516" d="M35.41406 35.33203 105.68753.1953H35.41406"/><path fill="none" stroke="#000" stroke-miterlimit="10" stroke-width=".39516" d="M35.41406.1953 33.1211.34764l-2.2539.44922-2.17579.73828-2.05859 1.01563-1.91016 1.27734-1.73047 1.51563-1.51562 1.72656-1.27735 1.91016-1.01562 2.0625-.73828 2.17578L18 15.47264l-.15234 2.29298L18 20.05859l.44532 2.2539.73828 2.17579 1.01562 2.0625 1.27735 1.91015 1.51562 1.72657 1.73047 1.51562 1.91016 1.27735 2.0586 1.01562 2.17578.73829 2.2539.44921 2.29297.14844"/><g clip-path="url(#a)"><path fill="none" stroke="#000" stroke-miterlimit="10" stroke-width=".39516" d="M.27733 52.90235h122.98052"/></g><use xlink:href="#b" x="114.68717" y="46.21787"/><use xlink:href="#c" x="119.42921" y="46.21787"/><use xlink:href="#d" x="127.08562" y="46.21787"/><use xlink:href="#e" x="31.93369" y="19.13944"/><use xlink:href="#f" x="35.24324" y="19.13944"/><use xlink:href="#g" x="36.92889" y="19.13944"/><use xlink:href="#h" x="39.94206" y="19.13944"/><use xlink:href="#i" x="43.45537" y="19.13944"/><use xlink:href="#j" x="45.59175" y="19.13944"/><use xlink:href="#k" x="49.87688" y="19.13944"/></svg>