<svg xmlns="http://www.w3.org/2000/svg" xmlns:xlink="http://www.w3.org/1999/xlink" width="219.094pt" height="85.438pt" viewBox="0 0 219.094 85.438"><defs><path id="b" d="M1.60938-5.25c0 4.20313.9375 8.8125 4.89062 8.96875v-.54687C5.17188 2.90625 3.09375 1.26563 3.09375-5.25c0-6.46875 1.96875-8.10937 3.40625-8.40625v-.5625C2.54688-14.0625 1.60938-9.4375 1.60938-5.25m0 0"/><path id="c" d="M1.39063-2.23437c0 1.20312.34375 2.45312 1.85937 2.45312 2.14063 0 3.79688-2.28125 4.89063-4.28125h.03125L7.5625-1.84375c-.09375.375-.15625.71875-.15625 1 0 .6875.3125 1.0625.96875 1.0625 1.46875 0 2.4375-1.26562 3.0625-2.67187L11-2.71875C10.67188-2.0625 9.84375-.75 9.32813-.75c-.21875 0-.29688-.14062-.29688-.35937 0-.17188.0625-.39063.10938-.65625l2.9375-11.95313-.09375-.07812-3.3125.4375-.09375.4375 1.10937.09375c.29688.01562.40625.09375.40625.3125 0 .10937-.01562.26562-.07812.45312l-.71875 3-.03125.03125c-.35938-.17187-.9375-.3125-1.5625-.3125-4.34375 0-6.3125 4.84375-6.3125 7.10938m1.84375.15625c0-2.01563 1.60937-6.60938 4.57812-6.60938.57813 0 1.07813.17188 1.29688.375-.28125 1.42188-.89063 3.1875-1.84375 4.73438C6.375-2.14062 5.14063-.75 4.15625-.75c-.59375 0-.92187-.5-.92187-1.32812m0 0"/><path id="d" d="M1.10938 3.17188v.54687C5.04688 3.5625 6-1.04687 6-5.25c0-4.1875-.95312-8.8125-4.89062-8.96875v.5625c1.42187.29688 3.40625 1.9375 3.40625 8.40625 0 6.51563-2.07813 8.15625-3.40625 8.42188m0 0"/><path id="e" d="M.32813 0H3.0625v-.26562c-.95312-.0625-.96875-.07813-.96875-.59375v-2.17188H3.375c.79688 0 .84375.21875.92188.8125h.26562v-2h-.26562c-.07813.59375-.125.82813-.92188.82813H2.09375v-2.39063c0-.29687.01563-.32812.32813-.32812h.92187c1.07813 0 1.29688.21875 1.42188 1.17187h.28125v-1.48437H.32813v.26562c.8125.04688.84375.0625.84375.59375v4.70313c0 .51562-.03126.53125-.84375.59375Zm0 0"/><path id="f" d="M.84375-6.07812c0 .32812.25.5625.57813.5625.34375 0 .5625-.23438.5625-.5625 0-.34375-.21876-.5625-.5625-.5625-.32813 0-.57813.21875-.57813.5625M.29688 0H2.5625v-.26562C1.90625-.3125 1.875-.34375 1.875-.8125v-3.79687l-.07812-.0625-1.45313.23437v.23438l.34375.04687c.25.04688.3125.07813.3125.42188V-.8125c0 .46875-.03125.5-.70312.54688Zm0 0"/><path id="g" d="M.39063.89063c0 .9375.9375 1.35937 2.01562 1.35937.54688 0 1.14063-.10937 1.57813-.375.42187-.26562.75-.70312.75-1.28125 0-1.01562-.8125-1.35937-1.8125-1.35937H2.1875c-.67187 0-.76562-.21876-.76562-.40625 0-.26563.34375-.40625.46875-.45313.17187.01563.375.03125.46875.03125.89062 0 1.89062-.39062 1.89062-1.51562 0-.375-.14062-.70313-.29687-.85938l.75-.125.1875-.57812L4.8125-4.75l-1.1875.375c-.26562-.1875-.78125-.29687-1.21875-.29687C.98438-4.67187.5-3.79687.5-3.10937c0 .875.5625 1.28125 1 1.39062v.01563C.98438-1.5.64063-1.23437.64063-.875c0 .32813.375.67188.82812.73438V-.125C1.0625 0 .39063.21875.39063.89063m.89062-.04688c0-.3125.07813-.54687.28125-.70312.20313-.15625.51563-.20313.95313-.20313.82812 0 1.4375.20313 1.4375.89063 0 .75-.67188 1.09375-1.34375 1.09375-.79688 0-1.32813-.40625-1.32813-1.07813m.15625-3.95312c0-.92188.48438-1.23438.96875-1.23438.46875 0 .9375.34375.9375 1.23438 0 .78125-.39062 1.1875-.9375 1.1875-.53125 0-.96875-.40625-.96875-1.1875m0 0"/><path id="h" d="m.23438-4.20312.35937.04687c.23438.04688.29688.07813.29688.42188v2.45312c0 1.0625.625 1.39063 1.32812 1.39063.78125 0 1.4375-.53125 1.70313-.65625L4 0h1.5v-.26562c-.64062-.04688-.70312-.07813-.70312-.54688v-3.79687l-.0625-.0625-1.45313.23437v.23438l.34375.04687c.25.04688.29688.07813.29688.42188v2.09375c0 .25-.03125.46875-.07813.54687-.21875.4375-.65625.70313-1.14062.70313-.53125 0-.9375-.34375-.9375-1.0625v-3.15625l-.0625-.0625-1.46875.23437Zm0 0"/><path id="i" d="M.29688 0H2.75v-.26562c-.82812-.04688-.875-.07813-.875-.54688v-2.17187c0-.71875.3125-.96875.53125-.96875.14063 0 .29688.0625.57813.21875q.09375.04687.1875.04687c.21875 0 .42187-.23437.42187-.53125 0-.20312-.125-.45312-.5-.45312-.32812 0-.60937.20312-1.21875.75l-.10937-.75-1.42188.23437v.23438l.34375.04687c.25.04688.3125.07813.3125.42188V-.8125c0 .46875-.04687.5-.70312.54688Zm0 0"/><path id="j" d="M.45313-2.25c0 1.48438.64062 2.35938 2.14062 2.35938 1.03125 0 1.5625-.57813 1.8125-1.3125l-.26562-.14063c-.26563.54688-.625.98438-1.34375.98438-1.17188 0-1.39063-1.10938-1.375-2.07813h2.6875c.1875 0 .35937-.0625.35937-.35937 0-.54688-.17187-1.875-1.875-1.875C1.14063-4.67187.45313-3.64062.45313-2.25m.98437-.54687c0-.39063.14063-1.54688 1.10938-1.54688.85937 0 .95312.875.95312 1.25 0 .17188-.0625.29688-.3125.29688Zm0 0"/><path id="k" d="M1.01563 0H4.0625v-.26562l-.78125-.07813c-.20312-.01562-.29687-.07812-.29687-.45312v-5.46875l-.0625-.04688L1.01563-6v.23438l.85937.10937c.15625.01563.21875.09375.21875.35938v4.5c0 .1875-.01562.29687-.07812.35937-.04688.07813-.125.09375-.21875.09375l-.78125.07813Zm0 0"/><clipPath id="a"><path d="M.26563 84H198v.8789H.26563Zm0 0"/></clipPath></defs><path fill="none" stroke="#000" stroke-miterlimit="10" stroke-width=".3959" d="M56.78516 56.51953 169.43358.19532H56.78516"/><path fill="none" stroke="#000" stroke-miterlimit="10" stroke-width=".3959" d="m56.78516.19532-3.67578.2461-3.61328.71484-3.48438 1.1875-3.30469 1.625-3.0625 2.05078L36.875 8.44532l-2.42968 2.76953-2.04688 3.0625-1.6289 3.30469-1.1836 3.48828-.71875 3.61328-.24219 3.67578.2422 3.67578.71874 3.61328 1.1836 3.48828 1.6289 3.30469L34.44532 45.5l2.42968 2.77343 2.76953 2.42578 3.0625 2.04687 3.30469 1.62891 3.48438 1.1836 3.61328.71874 3.67578.2422"/><g clip-path="url(#a)"><path fill="none" stroke="#000" stroke-miterlimit="10" stroke-width=".3959" d="M.46485 84.68359h197.12888"/></g><use xlink:href="#b" x="183.85422" y="73.96646"/><use xlink:href="#c" x="191.45552" y="73.96646"/><use xlink:href="#d" x="203.72847" y="73.96646"/><use xlink:href="#e" x="51.20477" y="30.56197"/><use xlink:href="#f" x="56.50985" y="30.56197"/><use xlink:href="#g" x="59.21187" y="30.56197"/><use xlink:href="#h" x="64.04187" y="30.56197"/><use xlink:href="#i" x="69.67357" y="30.56197"/><use xlink:href="#j" x="73.09812" y="30.56197"/><use xlink:href="#k" x="79.96701" y="30.56197"/></svg>