<svg xmlns="http://www.w3.org/2000/svg" xmlns:xlink="http://www.w3.org/1999/xlink" width="167.866pt" height="110.535pt" viewBox="0 0 167.866 110.535"><defs><path id="b" d="M.32813 0h2.75v-.26562c-.96875-.0625-.98438-.07813-.98438-.59375v-2.1875h1.29688c.79687 0 .84375.21875.92187.8125h.26563v-2H4.3125c-.07812.60937-.125.82812-.92187.82812H2.09375v-2.39062c0-.3125.03125-.32813.34375-.32813h.92188c1.07812 0 1.29687.21875 1.42187 1.17188h.28125v-1.5H.32813v.26562c.82812.0625.84375.07813.84375.59375v4.73438c0 .51562-.01563.53125-.84375.59375Zm0 0"/><path id="c" d="M.85938-6.10937c0 .34375.23437.57812.5625.57812.34375 0 .57812-.23437.57812-.57812 0-.32813-.23437-.5625-.57812-.5625-.32813 0-.5625.23437-.5625.5625M.29688 0H2.5625v-.26562C1.90625-.3125 1.875-.34375 1.875-.8125V-4.625l-.0625-.0625-1.46875.25v.21875l.34375.04688C.9375-4.125 1-4.09375 1-3.75v2.9375c0 .46875-.03125.5-.70312.54688Zm0 0"/><path id="d" d="M.39063.89063c0 .9375.9375 1.35937 2.01562 1.35937.5625 0 1.14063-.10937 1.59375-.375.42188-.25.75-.70312.75-1.28125 0-1.01562-.8125-1.35937-1.8125-1.35937h-.75c-.67187 0-.76562-.21876-.76562-.40625 0-.26563.35937-.42188.46875-.45313.1875.01563.375.03125.48437.03125.875 0 1.875-.39062 1.875-1.51562 0-.39063-.125-.71875-.28125-.875l.75-.125.1875-.57813-.07812-.07812-1.20313.375c-.25-.1875-.78125-.29688-1.20312-.29688C.98438-4.6875.5-3.8125.5-3.10937c0 .85937.57813 1.28125 1 1.39062v.01563c-.51562.1875-.85937.46875-.85937.82812 0 .32813.375.67188.82812.71875V-.125C1.07813 0 .39063.21875.39063.89063m.89062-.03126q0-.49218.28125-.70312c.21875-.17187.51563-.21875.96875-.21875.82813 0 1.42188.20313 1.42188.89063 0 .75-.67188 1.10937-1.32813 1.10937-.79687 0-1.34375-.40625-1.34375-1.07812m.17188-3.96874c0-.92188.46875-1.25.96875-1.25.45312 0 .9375.34375.9375 1.25 0 .78125-.40625 1.1875-.95313 1.1875-.51562 0-.95312-.40625-.95312-1.1875m0 0"/><path id="e" d="m.23438-4.21875.35937.04688c.23438.04687.29688.07812.29688.42187v2.45313c0 1.07812.64062 1.40625 1.32812 1.40625.79688 0 1.4375-.53125 1.70313-.67188L4.01563 0h1.5v-.26562C4.875-.3125 4.8125-.34375 4.8125-.8125V-4.625L4.75-4.6875l-1.46875.25v.21875l.35938.04688c.23437.04687.29687.07812.29687.42187v2.10938c0 .25-.03125.45312-.07812.54687-.21875.42188-.65625.70313-1.14063.70313-.54687 0-.9375-.34375-.9375-1.0625V-4.625l-.07812-.0625-1.46875.25Zm0 0"/><path id="f" d="M.29688 0h2.46875v-.26562C1.92188-.3125 1.875-.34375 1.875-.8125V-3c0-.70312.3125-.95312.53125-.95312.15625 0 .3125.04687.57813.20312.07812.04688.14062.04688.1875.04688.23437 0 .4375-.23438.4375-.53125 0-.20313-.14063-.45313-.5-.45313-.34375 0-.625.20313-1.23438.75l-.10937-.75-1.42188.25v.21875l.34375.04688C.9375-4.125 1-4.09375 1-3.75v2.9375c0 .46875-.04687.5-.70312.54688Zm0 0"/><path id="g" d="M.45313-2.25c0 1.46875.64062 2.35938 2.15625 2.35938 1.03125 0 1.5625-.57813 1.8125-1.3125l-.28125-.14063c-.25.54688-.60938.98438-1.34375.98438-1.15625 0-1.39063-1.125-1.375-2.09375H4.125c.1875 0 .35938-.04688.35938-.35938 0-.54687-.17188-1.875-1.89063-1.875C1.14063-4.6875.45313-3.65625.45313-2.25m.98437-.5625c0-.375.14063-1.54687 1.10938-1.54687.85937 0 .96875.89062.96875 1.25 0 .1875-.0625.29687-.32813.29687Zm0 0"/><path id="h" d="M1.01563 0h3.0625v-.26562l-.78125-.07813c-.20313-.01562-.3125-.07812-.3125-.45312v-5.5l-.04688-.04688-1.92187.32813v.23437l.875.10938c.15624.01562.21874.07812.21874.35937v4.51563c0 .1875-.03125.29687-.07812.35937-.0625.07813-.14062.09375-.23437.09375l-.78125.07813Zm0 0"/><path id="i" d="M-.35937 0h4.20312l.125-.53125L2.9375-.64062c-.23437-.01563-.34375-.14063-.34375-.3125 0-.09376.04688-.23438.10938-.375.60937-1.1875 1.20312-2.40625 1.90625-3.65625h4.1875L9.25-1.125s-.10937.45313-.5.48438l-.98437.10937L7.65625 0H12.25l.10938-.53125-.71875-.0625c-.5625-.0625-.64063-.3125-.75-1.09375L9.53125-12.90625H8.20313l-3.14063 5.5c-.95312 1.67188-2.5 4.45313-3.20312 5.5625C1.26563-.875.95313-.67187.375-.60937l-.60937.07812Zm5.34375-5.6875 3.03125-5.48437.67187 5.48437Zm0 0"/><path id="j" d="M0 0h5.65625c4.5 0 5.42188-2.32812 5.42188-3.875 0-1.95312-1.45313-2.8125-2.82813-3.07812l.03125-.03125C10.75-7.28125 11.8125-8.6875 11.8125-10.09375c0-1.51562-.89062-2.8125-4.32812-2.8125H2.76563l-.125.54688 1.10937.09375c.3125.01562.45313.15625.45313.45312 0 .125-.03125.28125-.07813.46875L1.92188-1.54687c-.14063.60937-.3125.82812-.76563.89062l-1.0625.125Zm3.73438-1.42187c0-.14063.01562-.28126.0625-.42188L4.85938-6.625h.73437c1.84375 0 3.46875.53125 3.46875 2.65625 0 1.67188-1 3.3125-3.5 3.3125-1.46875 0-1.82812-.29687-1.82812-.76562M5-7.28125l.96875-4.32812c.14063-.5625.25-.65625 1.5-.65625 1.5625 0 2.4375.79687 2.4375 2.10937 0 1.9375-1.625 2.875-3.6875 2.875Zm0 0"/><path id="k" d="M.96875-5.125C.96875-2.65625 2.1875.28125 6.8125.28125c1.32813 0 2.59375-.1875 3.78125-.78125l.92188-2.96875h-.5625C9.92188-1.60937 8.98438-.375 6.6875-.375c-2.15625 0-3.70312-1.39062-3.70312-4.26562 0-1.6875.42187-3.75 1.32812-5.23438.92188-1.57812 2.39063-2.67187 4.40625-2.67187 2.35938 0 3.03125 1.09375 3.03125 3.14062h.57813L13-12.20312c-1.07812-.67188-2.8125-1-4.125-1-3.51562 0-5.54687 1.65625-6.625 3.40625C1.20313-8.14062.96875-6.40625.96875-5.125m0 0"/><clipPath id="a"><path d="M.28516 21H35v69H.28516Zm0 0"/></clipPath></defs><path fill="none" stroke="red" stroke-miterlimit="10" stroke-width=".39683" d="M28.71094 27.09374V38.3867H40.0039V27.09374H28.71094"/><path fill="none" stroke="#000" stroke-miterlimit="10" stroke-width=".39683" d="m28.71094 83.55078 112.91408-56.45704H28.71094"/><g clip-path="url(#a)"><path fill="none" stroke="#000" stroke-miterlimit="10" stroke-width=".39683" d="m28.71094 27.09374-3.6836.2461-3.6211.71874-3.49609 1.1875-3.3125 1.63282-3.07031 2.05078L8.75 35.36328l-2.4336 2.77734-2.05078 3.0703-1.63281 3.3125-1.1875 3.4922-.71875 3.625-.2422 3.6836.2422 3.68359.71875 3.6211L2.6328 66.125l1.63281 3.3125 2.05079 3.0703L8.75 75.28515l2.77734 2.4336 3.07031 2.05078 3.3125 1.63281 3.4961 1.1875 3.6211.71875 3.68359.2422"/></g><path fill="none" stroke="#000" stroke-dasharray="2.9763068023 2.9763068023" stroke-miterlimit="10" stroke-width=".39683" d="M28.71094 27.09374v56.45704"/><use xlink:href="#b" x="23.11684" y="57.53098"/><use xlink:href="#c" x="28.43445" y="57.53098"/><use xlink:href="#d" x="31.14285" y="57.53098"/><use xlink:href="#e" x="35.98425" y="57.53098"/><use xlink:href="#f" x="41.62925" y="57.53098"/><use xlink:href="#g" x="45.06188" y="57.53098"/><use xlink:href="#h" x="51.93707" y="57.53098"/><use xlink:href="#i" x="22.31223" y="103.45877"/><use xlink:href="#j" x="148.63182" y="20.0865"/><use xlink:href="#k" x="22.42077" y="19.80867"/></svg>