<svg xmlns="http://www.w3.org/2000/svg" xmlns:xlink="http://www.w3.org/1999/xlink" width="457.9pt" height="58.098pt" viewBox="0 0 457.9 58.098"><defs><path id="b" d="M1.03125-3.375c0 2.70313.60938 5.67188 3.15625 5.76563v-.34375C3.32813 1.875 1.98438.8125 1.98438-3.375c0-4.17187 1.28125-5.23437 2.20312-5.42187v-.35938C1.64063-9.04687 1.03125-6.07812 1.03125-3.375m0 0"/><path id="c" d="M.89063-1.4375c0 .78125.23437 1.57813 1.20312 1.57813 1.375 0 2.4375-1.46875 3.14063-2.75h.03125L4.875-1.1875c-.0625.25-.10937.45313-.10937.64063 0 .4375.20312.6875.625.6875.95312 0 1.57812-.8125 1.98437-1.71875L7.09375-1.75C6.875-1.32812 6.34375-.48437 6-.48437c-.14062 0-.1875-.09375-.1875-.23438 0-.10937.04688-.25.07813-.42187l1.89062-7.6875-.0625-.0625-2.14062.28125-.0625.28125.71875.0625c.1875.01562.26562.0625.26562.20312 0 .0625-.01562.17188-.04687.29688L6-5.84375l-.03125.03125c-.23437-.10937-.59375-.20312-1.01562-.20312-2.78125 0-4.0625 3.125-4.0625 4.57812m1.1875.09375c0-1.29687 1.04687-4.25 2.95312-4.25.375 0 .6875.10938.82813.23438-.17188.92187-.5625 2.0625-1.1875 3.04687-.5625.9375-1.35938 1.82813-2 1.82813-.375 0-.59375-.3125-.59375-.85938m0 0"/><path id="e" d="M.71875 2.04688v.34375C3.25 2.29688 3.85938-.67187 3.85938-3.375S3.25-9.04687.71875-9.15625v.35938c.90625.1875 2.1875 1.25 2.1875 5.42187 0 4.1875-1.34375 5.25-2.1875 5.42188m0 0"/><path id="d" d="M.90625 0h2.8125v-.26562l-.67187-.0625c-.1875-.01563-.26563-.07813-.26563-.39063v-4.9375l-.0625-.04687-1.79687.3125v.21875l.71875.09375c.15624.03125.21874.09375.21874.34375v4.01562c0 .3125-.07812.375-.28124.39063l-.67188.0625Zm0 0"/><path id="f" d="M.23438-.09375.34375 0h3.54688l.29687-1.20312-.25-.03126c-.1875.4375-.34375.5-.6875.5H1.10938c.14062-.40624.57812-.95312 1.39062-1.5.85938-.57812 1.46875-.96875 1.46875-1.89062 0-1.17187-.79687-1.57812-1.73437-1.57812-1.14063 0-1.78125.65625-1.78125 1.17187 0 .29688.34375.4375.51562.4375.17188 0 .25-.07812.28125-.25.14063-.57812.4375-1.04687.9375-1.04687.59375 0 .78125.51562.78125 1.10937 0 .8125-.375 1.35938-1.15625 2.03125C.73438-1.32812.35938-.71875.23438-.09375m0 0"/><clipPath id="a"><path d="M3.44922 15H445v42.21094H3.44922Zm0 0"/></clipPath></defs><path fill="none" stroke="#000" stroke-miterlimit="10" stroke-width=".39241" d="M294.00395 20.71874H39.9414"/><g clip-path="url(#a)"><path fill="none" stroke="#000" stroke-miterlimit="10" stroke-width=".39241" d="m3.64844 57.01562 435.53521-36.29688"/></g><use xlink:href="#b" x="262.2116" y="13.40784"/><use xlink:href="#c" x="267.10891" y="13.40784"/><use xlink:href="#d" x="273.86842" y="16.21387"/><use xlink:href="#e" x="279.16046" y="13.40784"/><use xlink:href="#b" x="428.2547" y="34.3822"/><use xlink:href="#c" x="433.15201" y="34.3822"/><use xlink:href="#f" x="439.91024" y="37.18823"/><use xlink:href="#e" x="445.20228" y="34.3822"/></svg>