<svg xmlns="http://www.w3.org/2000/svg" xmlns:xlink="http://www.w3.org/1999/xlink" width="92.09pt" height="141.654pt" viewBox="0 0 92.09 141.654"><defs><clipPath id="a"><path d="M0 .52344h91.1875v140.26562H0Zm0 0"/></clipPath><clipPath id="b"><path d="M16 .52344h61v140.26562H16Zm0 0"/></clipPath><clipPath id="c"><path d="M0 .52344h91.1875v140.26562H0Zm0 0"/></clipPath><clipPath id="d"><path d="M14 .52344h62v140.26562H14Zm0 0"/></clipPath><path id="e" d="m.54688-.84375 1.65625-2.54687-.21875-.14063-.48438.625c-.125.125-.25.1875-.54687 0L-3.625-5.89062l-.0625.01562-.76562 1.78125.17187.125.5625-.6875c.10938-.10937.20313-.10937.4375.03125L.48438-2.17187c.14062.09375.21875.15625.25.25.04687.0625.01562.15624-.04688.25l-.35937.6875Zm0 0"/><path id="f" d="M-1.20312-1.25C-.40625-.73437.60938-.73437 1.4375-2c.8125-1.25.40625-2.20312-.39062-2.71875-.78125-.5-1.5625-.3125-2.04688.14063v-.01563c.1875-.53125.01563-1.17187-.60937-1.57812-.85938-.5625-1.75-.20313-2.32813.6875-.59375.89062-.54687 1.85937.3125 2.42187.625.40625 1.28125.28125 1.70313-.10937v.01562c-.1875.57813-.0625 1.40625.71875 1.90625M-.67187-2c-.70313-.45312-1.03125-1.14062-.625-1.76562C-.90625-4.375-.14062-4.375.5625-3.92187c.6875.45312 1.01563 1.07812.59375 1.73437C.71875-1.53125.01563-1.54687-.67187-2m-2.5-1.84375c-.59375-.375-.82813-.9375-.48438-1.46875s.9375-.53125 1.53125-.15625c.53125.35938.92188.95313.5625 1.51563-.375.5625-1.07812.46875-1.60937.10937m0 0"/><path id="g" d="M-4.01562-3.01562c.57812.375 1.375.20312 1.75-.375.39062-.59375.21875-1.40625-.35938-1.78125-.57812-.375-1.39062-.1875-1.78125.40625-.375.57812-.1875 1.375.39063 1.75m.28125-.4375c-.39063-.25-.51563-.75-.29688-1.07813.21875-.34375.73438-.45312 1.125-.20312.39063.26562.48438.76562.26563 1.10937-.21875.32813-.70313.4375-1.09375.17188m0 0"/></defs><path fill="#D9668C" stroke="#000" stroke-miterlimit="10" stroke-width=".3946" d="m33.71484 55.76953 12.61329-6.15234.49218-14.02734c-7.7461-.26954-14.2461 5.78906-14.51562 13.53515-.08203 2.29688.40234 4.57813 1.41015 6.64453Zm0 0"/><g clip-path="url(#a)"><path fill="none" stroke="#000" stroke-miterlimit="10" stroke-width=".3946" d="m-584.38668 357.23827 1274.0468-621.3945"/></g><g clip-path="url(#b)"><path fill="none" stroke="#000" stroke-miterlimit="10" stroke-width=".3946" d="M21.83984 750.92574 71.3086-665.7187"/></g><path fill="#F66" stroke="#000" stroke-miterlimit="10" stroke-width=".3946" d="m44.3711 105.72265.48827-14.02734-12.61328 6.15235c2.27344 4.66406 6.9375 7.6914 12.125 7.875Zm0 0"/><g clip-path="url(#c)"><path fill="none" stroke="#000" stroke-miterlimit="10" stroke-width=".3946" d="m-585.85543 399.31639 1274.0468-621.3945"/></g><g clip-path="url(#d)"><path fill="none" stroke="#000" stroke-miterlimit="10" stroke-width=".3946" d="M20.3711 793.00387 69.83984-623.6406"/></g><use xlink:href="#e" x="26.37438" y="47.3797"/><use xlink:href="#e" x="29.05016" y="43.25944"/><use xlink:href="#f" x="31.72594" y="39.13918"/><use xlink:href="#g" x="34.40173" y="35.01892"/></svg>