<svg xmlns="http://www.w3.org/2000/svg" xmlns:xlink="http://www.w3.org/1999/xlink" width="206.565pt" height="115.189pt" viewBox="0 0 206.565 115.189"><defs><path id="a" d="m3.03125-2.26562.85938.85937 3.64062-3.64062 3.64063 3.64062.85937-.85937-3.64062-3.64063 3.64062-3.64062-.85937-.84375-3.64063 3.625-3.64062-3.625-.85938.84375L6.6875-5.90625Zm0 0"/><path id="b" d="M-.40625 0H4.3125l.14063-.59375-1.15625-.125c-.26563-.01562-.375-.15625-.375-.34375 0-.125.04687-.28125.10937-.42187.6875-1.34375 1.35938-2.70313 2.14063-4.10938h4.6875l.51562 4.32813s-.10937.51562-.5625.54687l-1.10937.125L8.59375 0h5.14063l.14062-.59375-.8125-.07812c-.64062-.0625-.73437-.35938-.84375-1.21875L10.6875-14.46875H9.20313L5.67188-8.3125c-1.0625 1.875-2.79688 5-3.57813 6.23438C1.42188-.98437 1.0625-.75.42188-.6875l-.6875.09375Zm6-6.39062L9-12.53125l.75 6.14063Zm0 0"/><path id="c" d="M0 0h6.34375c5.0625 0 6.07813-2.60937 6.07813-4.34375 0-2.20312-1.625-3.15625-3.15625-3.45312l.01562-.04688C12.0625-8.17187 13.25-9.75 13.25-11.32812c0-1.70313-1-3.14063-4.85937-3.14063H3.09375l-.125.59375 1.23438.10938c.35937.03125.51562.1875.51562.51562 0 .14063-.04687.3125-.09375.51563l-2.46875 11c-.15625.6875-.35937.9375-.85937 1l-1.1875.14062Zm4.1875-1.60937c0-.15626.01563-.3125.0625-.46875L5.45313-7.4375h.82812c2.0625 0 3.89063.60938 3.89063 2.98438 0 1.875-1.125 3.71875-3.9375 3.71875-1.64063 0-2.04688-.32813-2.04688-.875m1.42188-6.5625 1.09375-4.85938c.15625-.625.26562-.73437 1.67187-.73437 1.75 0 2.73438.89062 2.73438 2.35937 0 2.1875-1.82813 3.23438-4.14063 3.23438Zm0 0"/><path id="d" d="M1.09375-5.75c0 2.76563 1.35938 6.0625 6.54688 6.0625 1.48437 0 2.90625-.20312 4.25-.875l1.03125-3.32812h-.625C11.14063-1.79687 10.09375-.42187 7.5-.42187c-2.42187 0-4.15625-1.5625-4.15625-4.78125 0-1.90625.48438-4.21875 1.48438-5.89063 1.04687-1.75 2.70312-2.98437 4.95312-2.98437 2.64063 0 3.40625 1.23437 3.40625 3.53125h.64063l.75-3.14063c-1.20313-.76562-3.15625-1.125-4.625-1.125-3.9375 0-6.21875 1.85938-7.4375 3.8125-1.15625 1.875-1.42188 3.8125-1.42188 5.25m0 0"/><clipPath id="e"><path d="M9 3h196.625v75H9Zm0 0"/></clipPath><clipPath id="f"><path d="M9 66h196.625v48.38281H9Zm0 0"/></clipPath></defs><path fill="#66B2B2" d="m15.44922 71.96875 30.91016 6.86719c1.24609-5.60156.9453-11.4375-.8711-16.88281Zm0 0"/><path fill="none" stroke="#000" stroke-miterlimit="10" stroke-width=".39571" d="M46.35939 78.83594c1.2461-5.60156.9453-11.4375-.8711-16.88282"/><use xlink:href="#a" x="7.92488" y="77.16571"/><use xlink:href="#b" x="8.27044" y="64.10466"/><use xlink:href="#a" x="134.57915" y="34.94894"/><use xlink:href="#c" x="135.25738" y="21.8869"/><use xlink:href="#a" x="134.57915" y="105.31154"/><use xlink:href="#d" x="135.04587" y="91.9377"/><g clip-path="url(#e)"><path fill="none" stroke="#000" stroke-miterlimit="10" stroke-width=".39571" d="M15.44922 71.96875 205.43367 8.6406"/></g><g clip-path="url(#f)"><path fill="none" stroke="#000" stroke-miterlimit="10" stroke-width=".39571" d="m15.44922 71.96875 189.98445 42.21877"/></g></svg>