<svg xmlns="http://www.w3.org/2000/svg" xmlns:xlink="http://www.w3.org/1999/xlink" width="79.579pt" height="88.995pt" viewBox="0 0 79.579 88.995"><defs><path id="c" d="M.65625 0h1.98438v-.17187l-.5-.04688c-.125-.01562-.20313-.0625-.20313-.29687v-3.5625l-.03125-.03125-1.25.20312V-3.75l.5625.0625c.10938.01563.14063.0625.14063.23438v2.9375c0 .10937 0 .1875-.04688.23437-.03125.04688-.07812.0625-.14062.0625l-.51563.04688Zm0 0"/><path id="d" d="m.10938-1.20312.0625.125H1.8125v.60937c0 .21875-.0625.25-.20312.25l-.39063.04688V0H2.8125v-.17187l-.26562-.03126c-.14063-.01562-.1875-.04687-.1875-.26562v-.60937h.625v-.28126h-.625v-2.6875h-.4375c-.5625.84375-1.25 1.89063-1.8125 2.84376m.4375-.15626c.375-.65624.79687-1.35937 1.25-2.09375h.01562v2.09375Zm0 0"/><path id="e" d="M.25-2.01562C.25-.8125.60938.07813 1.60938.07813c.98437 0 1.35937-.89063 1.35937-2.09375 0-1.21875-.375-2.09375-1.35937-2.09375-1 0-1.35938.875-1.35938 2.09375m.60938 0c0-.98438.17187-1.89063.75-1.89063.5625 0 .73437.90625.73437 1.89063 0 .98437-.17187 1.875-.73437 1.875-.57813 0-.75-.89063-.75-1.875m0 0"/><path id="f" d="M.21875-3.28125c0 .45313.39063.82813.84375.82813.4375 0 .82813-.375.82813-.82813 0-.45312-.39063-.82812-.82813-.82812-.45312 0-.84375.375-.84375.82812m.34375 0c0-.29687.23438-.54687.5-.54687.25 0 .5.25.5.54687 0 .3125-.25.54688-.5.54688-.26562 0-.5-.23438-.5-.54688m0 0"/><clipPath id="a"><path d="M0 .23047h79.16016V88.7578H0Zm0 0"/></clipPath><clipPath id="b"><path d="M0 .23047h79.16016V88.7578H0Zm0 0"/></clipPath></defs><path fill="#ffb266" stroke="#000" stroke-miterlimit="10" stroke-width=".3964" d="m40.13281 31.75782 8.60937-3.13672 4.58203-7.9375c-4.3828-2.52734-9.98437-1.02734-12.51562 3.35547-1.35547 2.34766-1.60156 5.17188-.67578 7.71875Zm0 0"/><g fill="none" stroke="#000" stroke-miterlimit="10" stroke-width=".3985" clip-path="url(#a)"><path stroke-width=".3964" d="m-381.83182 185.33587 869.76128-316.56625m-668.28872 556.67159L282.42957-376.1326"/></g><path fill="#66cef5" stroke="#000" stroke-miterlimit="10" stroke-width=".3964" d="m25.83204 68.30468 4.58203-7.9375-8.60937 3.13281c.73437 2.02734 2.16406 3.72656 4.02734 4.80469Zm0 0"/><g fill="none" stroke="#000" stroke-miterlimit="10" stroke-width=".3985" clip-path="url(#b)"><path stroke-width=".3964" d="M-400.15994 217.08194 469.60135-99.4843m-668.28873 556.6716 462.78883-801.57382"/></g><use xlink:href="#c" x="33.98322" y="19.02526"/><use xlink:href="#d" x="37.19115" y="19.02526"/><use xlink:href="#e" x="40.39909" y="19.02526"/><use xlink:href="#f" x="43.60702" y="19.02526"/><use xlink:href="#d" x="14.23569" y="72.17707"/><use xlink:href="#e" x="17.44362" y="72.17707"/><use xlink:href="#f" x="20.65156" y="72.17707"/></svg>