<svg xmlns="http://www.w3.org/2000/svg" xmlns:xlink="http://www.w3.org/1999/xlink" width="73.456pt" height="57.752pt" viewBox="0 0 73.456 57.752"><defs><path id="c" d="M-1.59375-.85937c1.1875.4375 1.90625.20312 2.20313-.60938.3125-.79687-.01563-1.40625-.76563-1.6875-.73437-.28125-1.29687.03125-1.51562.60938-.15626.42187.01562.85937.14062 1.0625v.01562c-1.20312-.4375-1.5625-.96875-1.375-1.45312.09375-.26563.35938-.35938.71875-.3125.0625-.01563.125-.03125.15625-.10938.04688-.125.01563-.32812-.14062-.39062-.21875-.07813-.67188.0625-.92188.70312-.3125.85938.14063 1.65625 1.5 2.17188m.60938-.42188c-.32813-.125-.64063-.51562-.46875-.96875.125-.34375.54687-.5625 1.1875-.32812.5625.21875.875.57812.70312 1.03125-.17187.46875-.76562.51562-1.42187.26562m0 0"/><path id="d" d="m-2.79687-1.29687.0625-.14063-.09375-.09375c-.125-.14062-.17188-.25-.09375-.48437l.5625-1.46875c.15625.14062.45312.34375.90625 1.01562.5.71875.98437 1.26563 1.64062 1.5.1875.07813.26563-.0625.32813-.21875s.04687-.29687-.10938-.35937C-.3125-1.78125-.85937-2.14062-1.25-2.60937c-.48437-.5625-.70312-.98438-1.3125-1.4375l-.07812.03125L-3.5-1.75Zm0 0"/><path id="e" d="M-2.875-1.3125c.40625.15625.89063-.0625 1.04688-.46875.15624-.40625-.07813-.875-.48438-1.03125-.39062-.14062-.875.0625-1.03125.46875s.07813.89063.46875 1.03125m.10938-.29687c-.28125-.09376-.40625-.39063-.3125-.625.07812-.23438.375-.375.65625-.28125.28125.10937.40625.40625.32812.64062-.09375.23438-.39062.375-.67187.26563m0 0"/><path id="f" d="m.57813.21875 1.8125.67188.0625-.15626L2 .53126c-.10937-.0625-.17187-.125-.09375-.34375l1.20313-3.20312v-.04688l-1.21875-.23437-.04688.14062.48438.23438c.10937.0625.125.10937.0625.26562L1.40625-.01562c-.03125.10937-.07812.17187-.125.20312-.04687.03125-.09375.03125-.15625.01563L.64063.0625Zm0 0"/><path id="g" d="M.42188-.48437c-.09375.25.15625.76562.85937 1.03125C2.1875.89063 2.8125.5 3.0625-.1875c.28125-.76562-.04687-1.34375-.6875-1.57812-.3125-.125-.6875-.09376-.92187-.01563v-.01562l.5-.96875c.0625-.125.10937-.125.21874-.09375l1.34375.5.28125-.3125-.01562-.0625-1.82812-.6875-.04688.04687-.8125 1.78125.125.10938c.32813-.1875.59375-.21876.875-.10938.35938.125.64063.53125.375 1.25C2.25.20313 1.85938.54688 1.39063.375 1.01563.23438.92188-.09375.92188-.46875c0-.09375-.03126-.15625-.10938-.1875-.10937-.04687-.3125 0-.39062.17188m0 0"/><path id="h" d="M1.3125-2.875c-.15625.40625.0625.89063.46875 1.04688.40625.15624.875-.07813 1.03125-.48438.14063-.39062-.0625-.875-.46875-1.03125s-.89062.07813-1.03125.46875m.29688.10938c.09374-.28125.39062-.40625.625-.3125.23437.07812.375.375.28125.65625-.10938.28125-.40625.40625-.64063.32812-.23437-.09375-.375-.39062-.26562-.67187m0 0"/><clipPath id="a"><path d="M0 .08984h72.91406v57.32813H0Zm0 0"/></clipPath><clipPath id="b"><path d="M0 .08984h72.91406v57.32813H0Zm0 0"/></clipPath></defs><path fill="#FFB266" stroke="#000" stroke-miterlimit="10" stroke-width=".39557" d="m60.10938 23.72656-8.59765 1.82813 5.28906 7.02344c2.73047-2.0586 4.01953-5.51172 3.3086-8.85157Zm0 0"/><g fill="none" stroke="#000" stroke-miterlimit="10" stroke-width=".3985" clip-path="url(#a)"><path stroke-width=".39557" d="m-213.08602-325.57825 534.48456 709.2854m-699.94556-266.74227 868.71515-184.6485"/></g><path fill="#66CEF5" stroke="#000" stroke-miterlimit="10" stroke-width=".39557" d="m16.11328 24.92969 5.29297 7.02344L30.0078 30.125c-.65234-3.07422-2.89844-5.5625-5.88281-6.53516-2.73047-.88672-5.71876-.38672-8.01172 1.33985Zm0 0"/><g fill="none" stroke="#000" stroke-miterlimit="10" stroke-width=".3985" clip-path="url(#b)"><path stroke-width=".39557" d="m-243.1876-319.1759 534.48066 709.2815M-408.6486 123.36332l868.71125-184.6485"/></g><use xlink:href="#c" x="64.24819" y="34.68796"/><use xlink:href="#d" x="65.32608" y="31.80496"/><use xlink:href="#e" x="66.40398" y="28.92196"/><use xlink:href="#f" x="20.06937" y="19.44286"/><use xlink:href="#f" x="22.95237" y="20.52075"/><use xlink:href="#g" x="25.83537" y="21.59865"/><use xlink:href="#h" x="28.71837" y="22.67654"/></svg>