<svg xmlns="http://www.w3.org/2000/svg" width="138.72pt" height="140.027pt" viewBox="0 0 138.72 140.027"><defs><clipPath id="a"><path d="M.33984 0h137.76172v139.0625H.33984Zm0 0"/></clipPath><clipPath id="b"><path d="M.33984 0h137.76172v139.0625H.33984Zm0 0"/></clipPath></defs><path fill="#66B2B2" stroke="#000" stroke-miterlimit="10" stroke-width=".39575" d="m99.45702 43-15.36718 3.83204-9.08203 12.96875c7.16406 5.01562 17.03906 3.27734 22.05468-3.88672 2.6289-3.7539 3.5039-8.46875 2.39453-12.91406"/><g fill="none" stroke="#000" stroke-miterlimit="10" stroke-width=".3985" clip-path="url(#a)"><path stroke-width=".39575" d="M-684.14431 238.37104 867.69117-148.5429m-1237.7301 843.93725L547.30455-614.70683"/></g><path fill="#66B2B2" stroke="#000" stroke-miterlimit="10" stroke-width=".39575" d="m37.6211 98.16405 14.67969-5.93359 9.08202-12.97265c-7.16406-5.01562-17.03515-3.27344-22.05077 3.89062-3.07422 4.39063-3.71875 10.04297-1.71094 15.01562"/><g fill="none" stroke="#000" stroke-miterlimit="10" stroke-width=".3985" clip-path="url(#b)"><path stroke-width=".39575" d="M-681.79666 388.82413 801.08182-210.2968M-401.82799 740.79668 515.5155-569.3045"/></g></svg>