<svg xmlns="http://www.w3.org/2000/svg" width="123.307pt" height="124.469pt" viewBox="0 0 123.307 124.469"><defs><clipPath id="a"><path d="M0 .08203h122.61719v123.77344H0Zm0 0"/></clipPath><clipPath id="b"><path d="M0 .08203h122.61719v123.77344H0Zm0 0"/></clipPath></defs><path fill="#66B2B2" stroke="#000" stroke-miterlimit="10" stroke-width=".39627" d="m88.21874 38.35548-13.67578 3.41015-8.08203 11.54687c6.375 4.46485 15.16406 2.91407 19.6289-3.46093 2.33985-3.34375 3.1172-7.53516 2.12891-11.4961"/><g fill="none" stroke="#000" stroke-miterlimit="10" stroke-width=".3985" clip-path="url(#a)"><path stroke-width=".39627" d="m-609.23418 212.24996 1381.23007-344.3788M-329.66004 619.03109 486.8319-547.0428"/></g><path fill="#66B2B2" stroke="#000" stroke-miterlimit="10" stroke-width=".39627" d="M33.1836 87.45312 46.25 82.17578l8.08203-11.54687c-6.375-4.46485-15.16406-2.91407-19.6289 3.46093-2.73437 3.91016-3.3086 8.9414-1.51953 13.36328"/><g fill="none" stroke="#000" stroke-miterlimit="10" stroke-width=".3985" clip-path="url(#b)"><path stroke-width=".39627" d="m-607.14434 346.16398 1319.859-533.25766M-357.953 659.43733 458.53895-506.63655"/></g></svg>