<svg xmlns="http://www.w3.org/2000/svg" xmlns:xlink="http://www.w3.org/1999/xlink" width="72.675pt" height="35.709pt" viewBox="0 0 72.675 35.709"><defs><path id="a" d="m1.75-1.3125.5.5 2.09375-2.10937L6.45313-.8125l.48437-.5-2.09375-2.09375L6.9375-5.51562 6.45313-6 4.34375-3.90625 2.25-6l-.5.48438 2.10938 2.10937Zm0 0"/><path id="b" d="M-.23437 0h2.71875l.07812-.34375-.65625-.0625C1.75-.42187 1.6875-.5 1.6875-.60937c0-.07813.01563-.15626.0625-.25.39063-.76563.78125-1.5625 1.23438-2.35938H5.6875l.29688 2.48438s-.0625.29687-.3125.32812l-.65625.0625L4.95313 0h2.96875L8-.34375l-.45312-.04687c-.375-.03125-.4375-.20313-.5-.70313l-.875-7.25h-.875L3.28125-4.79687c-.625 1.07812-1.625 2.89062-2.07812 3.60937-.375.625-.59375.75-.95313.79688l-.40625.04687Zm3.45312-3.6875L5.1875-7.23437 5.625-3.6875Zm0 0"/><path id="c" d="M0 0h3.65625c2.92188 0 3.51563-1.5 3.51563-2.5 0-1.28125-.9375-1.82812-1.82813-2l.01563-.01562C6.96875-4.71875 7.64063-5.625 7.64063-6.53125c0-.98437-.57813-1.8125-2.79688-1.8125h-3.0625L1.70313-8l.71875.0625c.21875.01563.29687.10938.29687.29688 0 .07812-.01562.17187-.04687.29687L1.25-1c-.09375.39063-.20312.53125-.5.57813l-.6875.07812Zm2.42188-.92187c0-.09376 0-.1875.03125-.26563l.6875-3.10937H3.625c1.1875 0 2.25.35937 2.25 1.73437 0 1.07813-.65625 2.14063-2.28125 2.14063-.95312 0-1.17187-.1875-1.17187-.5m.8125-3.79688.625-2.79687c.09375-.35938.15625-.42188.96875-.42188 1.01562 0 1.57812.51563 1.57812 1.35938 0 1.26562-1.04687 1.85937-2.39062 1.85937Zm0 0"/><path id="d" d="M.625-3.3125c0 1.59375.78125 3.5 3.78125 3.5.85938 0 1.6875-.125 2.45313-.51562L7.45313-2.25h-.35938c-.67187 1.20313-1.28125 2-2.76562 2-1.40625 0-2.40625-.89062-2.40625-2.75 0-1.09375.28124-2.4375.85937-3.39062C3.39063-7.40625 4.34375-8.125 5.64063-8.125c1.53125 0 1.96875.71875 1.96875 2.03125h.35937l.4375-1.8125c-.6875-.42187-1.8125-.64062-2.67187-.64062-2.26563 0-3.57813 1.07812-4.28125 2.20312C.78125-5.26562.625-4.15625.625-3.3125m0 0"/></defs><use xlink:href="#a" x="4.41465" y="20.17063"/><use xlink:href="#b" x="4.61303" y="12.63206"/><use xlink:href="#a" x="22.69369" y="23.82683"/><use xlink:href="#c" x="23.08549" y="16.28826"/><use xlink:href="#a" x="59.25375" y="31.13825"/><use xlink:href="#d" x="59.52355" y="23.42014"/><path fill="none" stroke="#000" stroke-miterlimit="10" stroke-width=".39528" d="m8.75781 17.17187 18.27735 3.65626 36.56251 7.3125"/></svg>