<svg xmlns="http://www.w3.org/2000/svg" xmlns:xlink="http://www.w3.org/1999/xlink" width="186.228" height="100.225" viewBox="0 0 186.228 100.225"><defs><path id="b" d="M1.79688-5.89062c0 4.71875 1.07812 9.89062 5.5 10.07812v-.625C5.8125 3.26563 3.46875 1.42188 3.46875-5.89062c0-7.28125 2.23438-9.125 3.82813-9.46875v-.60938c-4.42188.17188-5.5 5.35938-5.5 10.07813m0 0"/><path id="c" d="M1.5625-2.51562C1.5625-1.15625 1.95313.25 3.65625.25c2.39063 0 4.26563-2.5625 5.48438-4.8125h.04687l-.6875 2.5c-.10937.42188-.17187.79688-.17187 1.10938C8.32813-.17187 8.67188.25 9.40625.25c1.65625 0 2.75-1.42187 3.45313-3.01562l-.48438-.28125C12-2.3125 11.0625-.84375 10.48438-.84375c-.25 0-.34375-.15625-.34375-.40625 0-.20312.07812-.4375.14062-.73437l3.29688-13.4375-.10938-.09375-3.71875.5-.10937.48437 1.23437.10938c.34375.03125.46875.10937.46875.35937 0 .10938-.01562.29688-.07812.51563l-.8125 3.35937-.04688.04688c-.39062-.20313-1.03125-.35938-1.75-.35938-4.875 0-7.09375 5.45313-7.09375 7.98438m2.0625.17187c0-2.26562 1.82813-7.42187 5.15625-7.42187.65625 0 1.20313.20312 1.45313.42187-.3125 1.59375-1 3.57813-2.0625 5.3125-1 1.625-2.39063 3.1875-3.5 3.1875-.67188 0-1.04688-.5625-1.04688-1.5m0 0"/><path id="e" d="M1.25 3.5625v.625C5.67188 4 6.73438-1.17187 6.73438-5.89062S5.67188-15.79687 1.25-15.96875v.60938c1.59375.34375 3.82813 2.1875 3.82813 9.46875 0 7.3125-2.34375 9.15625-3.82813 9.45312m0 0"/><path id="d" d="M1.59375 0H6.5v-.45312L5.32813-.5625C5-.59375 4.84375-.70312 4.84375-1.25v-8.625L4.75-9.95312l-3.14062.53125v.39062l1.25.17188c.28125.04687.375.15625.375.60937v7c0 .54688-.14063.65625-.48438.6875l-1.15625.10938Zm0 0"/><path id="f" d="M.42188-.17187.59375 0h6.20313l.53125-2.09375-.4375-.07812c-.34375.78125-.60938.89062-1.20313.89062H1.95313c.23437-.70312 1-1.67187 2.42187-2.625 1.48438-1 2.54688-1.6875 2.54688-3.29687 0-2.03125-1.39063-2.75-3.01563-2.75-1.98437 0-3.125 1.15625-3.125 2.04687 0 .51563.60938.76563.92188.76563.28124 0 .42187-.15625.48437-.4375.23438-1.01563.76563-1.82813 1.625-1.82813 1.03125 0 1.35938.89063 1.35938 1.9375 0 1.42188-.64063 2.35938-2.01563 3.54688C1.29688-2.32812.64063-1.26562.42188-.17187m0 0"/><clipPath id="a"><path d="M56 41h129.1289v47H56Zm0 0"/></clipPath></defs><path fill="#D9668C" d="M103.5586 22.96875 87.1289 3.71094c-6.8203 5.82031-10.05859 14.8164-8.5 23.64844Zm0 0"/><path fill="none" stroke="#000" stroke-miterlimit="10" stroke-width=".39544" d="M87.1289 3.71093c-6.82032 5.82031-10.0586 14.8164-8.5 23.64844"/><path fill="#D9668C" d="m135.95703 60.9414-16.42969-19.2578c-7.51171 6.41015-10.61328 16.60937-7.9375 26.11328Zm0 0"/><path fill="none" stroke="#000" stroke-miterlimit="10" stroke-width=".39544" d="M119.52734 41.6836c-7.51172 6.41015-10.61328 16.60937-7.9375 26.11328M53.7031 31.7578 178.33987 9.77734"/><g clip-path="url(#a)"><path fill="none" stroke="#000" stroke-miterlimit="10" stroke-width=".39544" d="M62.49608 81.60938 184.9336 47.16797"/></g><path fill="none" stroke="#000" stroke-miterlimit="10" stroke-width=".39544" d="M155.38673 83.71485 84.1289.1953"/><use xlink:href="#b" x="7.74512" y="37.29561"/><use xlink:href="#c" x="16.2868" y="37.29561"/><use xlink:href="#d" x="28.07641" y="42.18976"/><use xlink:href="#e" x="37.30654" y="37.29561"/><use xlink:href="#b" x="16.53714" y="87.14812"/><use xlink:href="#c" x="25.07881" y="87.14812"/><use xlink:href="#f" x="36.86619" y="92.04227"/><use xlink:href="#e" x="46.09632" y="87.14812"/></svg>