<svg xmlns="http://www.w3.org/2000/svg" xmlns:xlink="http://www.w3.org/1999/xlink" width="51.25pt" height="96.518pt" viewBox="0 0 51.25 96.518"><defs><path id="c" d="m.10938-1.20312.0625.125h1.625v.625c0 .20312-.0625.23437-.20313.25l-.39062.03124V0h1.57812v-.17187l-.26562-.03126c-.14063-.01562-.17188-.04687-.17188-.25v-.625h.60938v-.26562h-.60938V-4h-.4375c-.5625.82813-1.25 1.85938-1.79687 2.79688m.4375-.14063C.90625-2 1.32813-2.70312 1.78125-3.42187h.01563v2.07812Zm0 0"/><path id="d" d="M.15625-.0625.21875 0h2.48438l.20312-.79687-.17187-.03126c-.125.32813-.23438.375-.48438.375H.71875c.09375-.3125.45313-.73437 1.01563-1.14062.5625-.42187 1.01562-.6875 1.01562-1.35937 0-.82813-.5625-1.125-1.1875-1.125-.82812 0-1.25.5-1.25.8125 0 .20312.23438.29687.34375.29687.10938 0 .14063-.0625.17188-.15625.09374-.40625.32812-.73437.70312-.73437.45313 0 .57813.375.57813.8125 0 .65625-.3125 1.01562-.84375 1.46875C.53125-.9375.28124-.51562.15624-.0625m0 0"/><path id="e" d="M.21875-3.25c0 .45313.375.82813.82813.82813.4375 0 .82812-.375.82812-.82813 0-.4375-.39062-.82812-.82812-.82812-.45313 0-.82813.39062-.82813.82812m.32813 0c0-.29687.23437-.53125.5-.53125.26562 0 .5.23438.5.53125 0 .3125-.23438.54688-.5.54688-.26563 0-.5-.23438-.5-.54688m0 0"/><clipPath id="a"><path d="M0 .45703h50.51172v95.1289H0Zm0 0"/></clipPath><clipPath id="b"><path d="M0 .45703h50.51172v95.1289H0Zm0 0"/></clipPath></defs><path fill="#d9668c" stroke="#000" stroke-miterlimit="10" stroke-width=".39275" d="m26.9961 23.11328-.63282 9.0586 6.53125-6.3086c-1.5586-1.61328-3.66015-2.59375-5.89844-2.75Zm0 0"/><g fill="none" stroke="#000" stroke-miterlimit="10" stroke-width=".3985" clip-path="url(#a)"><path stroke-width=".39275" d="m-300.20706 347.53518 659.67193-637.03911M-5.30469 485.05081l63.96876-914.82038"/></g><path fill="#f66" stroke="#000" stroke-miterlimit="10" stroke-width=".39275" d="m17.61719 70.17969 6.53125-6.3086.63281-9.05859c-5.0039-.34766-9.34375 3.42188-9.6914 8.42578-.1797 2.5664.73827 5.08985 2.52343 6.9414Zm0 0"/><g fill="none" stroke="#000" stroke-miterlimit="10" stroke-width=".3985" clip-path="url(#b)"><path stroke-width=".39275" d="m-302.4258 379.2383 659.67583-637.0391M-7.52344 516.75394l63.97266-914.82038"/></g><use xlink:href="#c" x="29.04002" y="21.45426"/><use xlink:href="#d" x="32.21842" y="21.45426"/><use xlink:href="#e" x="35.39681" y="21.45426"/></svg>