<svg xmlns="http://www.w3.org/2000/svg" width="121.779pt" height="133.04pt" viewBox="0 0 121.779 133.04"><defs><clipPath id="a"><path d="M.32813 0h120.90625v132.08594H.32813Zm0 0"/></clipPath><clipPath id="b"><path d="M.32813 0h120.90625v132.08594H.32813Zm0 0"/></clipPath></defs><path fill="#66B2B2" stroke="#000" stroke-miterlimit="10" stroke-width=".39565" d="m67.96875 54.24219 7.66407-11.80079-12.85548 5.72266c1.10547 2.48437 2.91016 4.59766 5.19141 6.07813Zm0 0"/><g fill="none" stroke="#000" stroke-miterlimit="10" stroke-width=".3985" clip-path="url(#a)"><path stroke-width=".39565" d="M-567.13293 328.61724 731.25012-249.461M-307.57429 632.52354 466.50007-559.44543"/></g><path fill="#66B2B2" stroke="#000" stroke-miterlimit="10" stroke-width=".39565" d="m37.3125 101.44923 7.66406-11.80079-12.53906-6.39062c-3.26954 6.41797-1.16407 14.26953 4.875 18.1914Zm0 0"/><g fill="none" stroke="#000" stroke-miterlimit="10" stroke-width=".3985" clip-path="url(#b)"><path stroke-width=".39565" d="M-581.9298-229.7774 684.41808 415.461M-338.23054 679.73058 435.84382-512.23839"/></g></svg>