<svg xmlns="http://www.w3.org/2000/svg" width="80.148pt" height="80.904pt" viewBox="0 0 80.148 80.904"><defs><clipPath id="a"><path d="M0 .3789h79.30469v80.0508H0Zm0 0"/></clipPath><clipPath id="b"><path d="M0 .3789h79.30469v80.0508H0Zm0 0"/></clipPath></defs><path fill="#66b2b2" stroke="#000" stroke-miterlimit="10" stroke-width=".39431" d="m57.05858 25.13282-8.84765 2.20312-5.22656 7.46875c4.125 2.88672 9.8086 1.88672 12.6953-2.23828 1.51173-2.16015 2.01563-4.875 1.37891-7.43359"/><g fill="none" stroke="#000" stroke-miterlimit="10" stroke-width=".3985" clip-path="url(#a)"><path stroke-width=".39431" d="M-394.03495 137.60152 499.30446-85.13275m-712.51918 485.82789L314.87096-353.4881"/></g><path fill="#66b2b2" stroke="#000" stroke-miterlimit="10" stroke-width=".39431" d="m21.46095 56.88671 8.45312-3.41406 5.22656-7.46875c-4.125-2.88671-9.8086-1.8828-12.69531 2.23828-1.76953 2.53125-2.14062 5.78516-.98437 8.64453"/><g fill="none" stroke="#000" stroke-miterlimit="10" stroke-width=".3985" clip-path="url(#b)"><path stroke-width=".39431" d="M-392.68338 224.21475 460.96073-120.6835M-231.5155 426.83184l528.0857-754.18322"/></g></svg>