<svg xmlns="http://www.w3.org/2000/svg" xmlns:xlink="http://www.w3.org/1999/xlink" width="76.406pt" height="89.774pt" viewBox="0 0 76.406 89.774"><defs><path id="c" d="M.65625 0h1.98438v-.17187L2.125-.21875C2-.23437 1.9375-.28125 1.9375-.51562v-3.5625l-.03125-.03125-1.25.21875V-3.75l.5625.07813c.10938.01562.14063.0625.14063.23437v2.92188c0 .125-.01563.1875-.04688.23437-.03125.04688-.07812.0625-.15625.0625l-.5.04688Zm0 0"/><path id="d" d="M.15625-.0625.21875 0h2.5l.20313-.79687-.15625-.03126c-.125.32813-.25.375-.5.375H.71875c.10938-.3125.46875-.75 1.01563-1.15624.57812-.42188 1.03125-.6875 1.03125-1.35938 0-.84375-.5625-1.14062-1.1875-1.14062-.82813 0-1.25.5-1.25.82812 0 .20313.21875.29688.32812.29688s.14063-.0625.17188-.17188c.09374-.40625.32812-.73437.70312-.73437.46875 0 .59375.39062.59375.82812 0 .64063-.32812 1.01563-.84375 1.46875-.75.65625-1 1.0625-1.125 1.53125m0 0"/><path id="e" d="M.21875-3.26562c0 .45312.39063.82812.82813.82812.45312 0 .84375-.375.84375-.82812 0-.45313-.39063-.84375-.84375-.84375-.4375 0-.82813.39062-.82813.84375m.34375 0c0-.3125.23438-.54688.48438-.54688.26562 0 .5.23438.5.54688s-.23438.53125-.5.53125c-.25 0-.48438-.21875-.48438-.53125m0 0"/><path id="f" d="M.25-.60937c0 .26562.42188.6875 1.20313.6875 1 0 1.4375-.60938 1.4375-1.375 0-.84375-.51563-1.28125-1.23438-1.28125-.34375 0-.70312.14062-.89062.3125H.75l.14063-1.125c.01562-.15625.0625-.1875.17187-.1875h1.5l.15625-.40625-.03125-.04688H.67188l-.0625.0625-.125 2.01563.15625.07812c.25-.29687.48437-.4375.8125-.4375.39062 0 .8125.28125.8125 1.07813 0 .625-.25 1.09375-.78125 1.09375-.42188 0-.625-.29688-.75-.65625C.70312-.875.64062-.9375.5625-.9375c-.125 0-.3125.125-.3125.32813m0 0"/><path id="g" d="M.25-1.09375C.25-.48437.625.07813 1.59375.07813c.98438 0 1.35938-.5625 1.35938-1.17188 0-.625-.39063-.96875-.79688-1.07812.35938-.09375.65625-.40625.65625-.90625 0-.65625-.51562-1.03125-1.21875-1.03125-.6875 0-1.20312.375-1.20312 1.03125 0 .5.29687.8125.65625.90625C.65625-2.0625.25-1.71875.25-1.09375m.60938.01563c0-.54688.26562-.96875.73437-.96875.48438 0 .75.42187.75.96875 0 .53125-.23437.9375-.75.9375-.5 0-.73437-.40625-.73437-.9375m.10937-2.01563c0-.45312.21875-.79687.625-.79687.42188 0 .64063.34375.64063.79687 0 .42188-.20313.82813-.64063.82813s-.625-.40625-.625-.82813m0 0"/><clipPath id="a"><path d="M0 .23438h75.8164V89.3164H0Zm0 0"/></clipPath><clipPath id="b"><path d="M0 .23438h75.8164V89.3164H0Zm0 0"/></clipPath></defs><path fill="#ffb266" stroke="#000" stroke-miterlimit="10" stroke-width=".39543" d="m35.1289 31.48047 9.03126-1.4297 3.57031-8.41796c-4.64844-1.97266-10.01172.1953-11.98438 4.84375-.67187 1.57812-.88281 3.3125-.61719 5.0039Zm0 0"/><g fill="none" stroke="#000" stroke-miterlimit="10" stroke-width=".3985" clip-path="url(#a)"><path stroke-width=".39543" d="M-407.2931 101.5508 504.64076-42.88284m-639.0744 493.67593 360.75791-849.9026"/></g><path fill="#66cef5" stroke="#000" stroke-miterlimit="10" stroke-width=".39543" d="M35.23047 51.08594 31.65625 59.5l9.03125-1.42968c-.49219-3.11329-2.5586-5.75391-5.45703-6.98438Zm0 0"/><g fill="none" stroke="#000" stroke-miterlimit="10" stroke-width=".3985" clip-path="url(#b)"><path stroke-width=".39543" d="M-419.7931 131.00393 492.13685-13.4336m-639.0744 493.67591 360.76182-849.89868"/></g><use xlink:href="#c" x="29.28731" y="20.04215"/><use xlink:href="#d" x="32.48734" y="20.04215"/><use xlink:href="#d" x="35.68737" y="20.04215"/><use xlink:href="#e" x="38.8874" y="20.04215"/><use xlink:href="#f" x="40.02881" y="52.91658"/><use xlink:href="#g" x="43.22883" y="52.91658"/><use xlink:href="#e" x="46.42886" y="52.91658"/></svg>