<svg xmlns="http://www.w3.org/2000/svg" width="103.576pt" height="145.876pt" viewBox="0 0 103.576 145.876"><defs><clipPath id="a"><path d="M0 .23438h103.15234v145.28125H0Zm0 0"/></clipPath><clipPath id="b"><path d="M0 .23438h103.15234v145.28125H0Zm0 0"/></clipPath></defs><path fill="#66B2B2" stroke="#000" stroke-miterlimit="10" stroke-width=".39687" d="m41.82031 44.82422 13.57032 3.89063 2.93359-13.8086c-7.25-1.54297-14.46094 2.78906-16.5039 9.91797Zm0 0"/><g fill="none" stroke="#000" stroke-miterlimit="10" stroke-width=".3985" clip-path="url(#a)"><path stroke-width=".39687" d="M-623.05073-145.8242 747.39838 247.14452M-91.34764 739.07026 205.06639-655.45307"/></g><path fill="#66B2B2" stroke="#000" stroke-miterlimit="10" stroke-width=".39687" d="m32.42969 90.85156 12.6875 6.1875 2.9375-13.8086c-6.33985-1.34765-12.78125 1.79688-15.625 7.6211Zm0 0"/><g fill="none" stroke="#000" stroke-miterlimit="10" stroke-width=".3985" clip-path="url(#b)"><path stroke-width=".39687" d="M-589.23433-212.35545 692.1562 412.62107m-793.77728 374.77731L194.79296-607.12495"/></g></svg>