<svg xmlns="http://www.w3.org/2000/svg" width="137.557pt" height="108.62pt" viewBox="0 0 137.557 108.62"><defs><clipPath id="a"><path d="M.01953 0h137.07813v95H.01953Zm0 0"/></clipPath><clipPath id="b"><path d="M.01953 0h137.07813v108.24219H.01953Zm0 0"/></clipPath><clipPath id="c"><path d="M.01953 14h137.07813v94.24219H.01953Zm0 0"/></clipPath><clipPath id="d"><path d="M.01953 0h137.07813v108.24219H.01953Zm0 0"/></clipPath></defs><path fill="#66B2B2" stroke="#000" stroke-miterlimit="10" stroke-width=".39711" d="m76.78906 47.45312 10.97657-8.88672-14.08985-.98437c-.25 3.5625.86328 7.09375 3.11328 9.8711"/><g clip-path="url(#a)"><path fill="none" stroke="#000" stroke-miterlimit="10" stroke-width=".39711" d="M-616.715-10.69533 806.3361 88.81251"/></g><g clip-path="url(#b)"><path fill="none" stroke="#000" stroke-miterlimit="10" stroke-width=".39711" d="M-461.05481 482.9923 647.56264-414.75012"/></g><path fill="#66B2B2" stroke="#000" stroke-miterlimit="10" stroke-width=".39711" d="m35.2578 68.69141 14.08985.98438 10.97657-8.89063c-4.90625-6.0586-13.80079-6.9961-19.86329-2.08594-3.04297 2.46485-4.92969 6.08594-5.20313 9.9922"/><g clip-path="url(#c)"><path fill="none" stroke="#000" stroke-miterlimit="10" stroke-width=".39711" d="m-655.12908 20.41406 1423.04722 99.50783"/></g><g clip-path="url(#d)"><path fill="none" stroke="#000" stroke-miterlimit="10" stroke-width=".39711" d="m-499.4728 514.10167 1108.61746-897.7424"/></g></svg>