<svg xmlns="http://www.w3.org/2000/svg" xmlns:xlink="http://www.w3.org/1999/xlink" width="63.597pt" height="66.206pt" viewBox="0 0 63.597 66.206"><defs><clipPath id="a"><path d="M.17578 0h62.84375v61H.17578Zm0 0"/></clipPath><clipPath id="b"><path d="M.17578 0h62.84375v65.42188H.17578Zm0 0"/></clipPath><clipPath id="c"><path d="M.17578 5h62.84375v60.42188H.17578Zm0 0"/></clipPath><clipPath id="d"><path d="M.17578 0h62.84375v65.42188H.17578Zm0 0"/></clipPath><path id="e" d="m.59375-.20312 1.79688-.64063L2.32813-1l-.46875.125c-.125.03125-.20313 0-.28126-.21875L.45313-4.3125l-.04687-.01562-1.0625.60937.04688.125.54687-.10937c.07813-.03125.14063 0 .20313.15625L1.0625-.90625c.04688.10938.04688.17188.01563.23438 0 .04687-.04688.07812-.09376.10937l-.45312.20313Zm0 0"/><path id="f" d="M-.0625-.60937c.09375.23437.59375.48437 1.375.21874.78125-.28125 1.14063-.85937.90625-1.54687-.26562-.73437-.96875-.71875-1.26562-.64062L.9375-2.60937c.26563-.15625.67188-.54688.48438-1.09375-.21876-.60938-.79688-.70313-1.35938-.5-.73437.25-.92187.8125-.84375 1.03125C-.71875-3-.5-2.96875-.42187-3c.07812-.01562.07812-.07812.07812-.15625 0-.40625.10938-.71875.42188-.82812.42187-.15625.67187.1875.78125.5.10937.32812.15624.76562-.3125.9375-.26563.09375-.4375.07812-.5.10937-.07813.01563-.07813.09375-.04688.1875s.07813.14063.15625.125c.0625-.03125.1875-.14062.45313-.23437.46875-.17188.875.1875 1.03125.65625.23437.64062 0 .98437-.39063 1.125-.35937.125-.6875-.0625-.89062-.34375-.07813-.09376-.14063-.125-.21875-.09376-.09375.03126-.26563.21876-.20313.40626m0 0"/><path id="g" d="M-.84375-3.03125c.14063.40625.60938.64063 1.01563.48438.40625-.14063.625-.60938.48437-1.01563s-.60937-.64062-1.01562-.5c-.40625.15625-.625.625-.48438 1.03125m.29688-.09375c-.09376-.26562.03124-.57812.28124-.67187.23438-.07813.53126.07812.625.34375.09375.26562-.04687.57812-.28125.65625-.25.09375-.53124-.0625-.625-.32813m0 0"/></defs><path fill="#D9668C" stroke="#000" stroke-miterlimit="10" stroke-width=".39378" d="m32.46875 23.14453 8.73437.61329 6.40234-5.97266c-3.29687-3.53516-8.83593-3.72656-12.37109-.42969-1.62109 1.50781-2.60937 3.57813-2.76562 5.78906Zm0 0"/><g clip-path="url(#a)"><path fill="none" stroke="#000" stroke-miterlimit="10" stroke-width=".39378" d="m-395.40223-6.77343 881.94118 61.67186"/></g><g clip-path="url(#b)"><path fill="none" stroke="#000" stroke-miterlimit="10" stroke-width=".39378" d="m-278.89055 322.24602 646.58578-602.94906"/></g><path fill="#F66" stroke="#000" stroke-miterlimit="10" stroke-width=".39378" d="m28.39844 35.69531-6.40234 5.96875 8.73437.61328c.16797-2.42187-.67578-4.8086-2.33203-6.58203Zm0 0"/><g clip-path="url(#c)"><path fill="none" stroke="#000" stroke-miterlimit="10" stroke-width=".39378" d="m-414.60535 11.13672 881.93727 61.66796"/></g><g clip-path="url(#d)"><path fill="none" stroke="#000" stroke-miterlimit="10" stroke-width=".39378" d="m-298.09367 340.15617 646.58578-602.94906"/></g><use xlink:href="#e" x="32.17795" y="15.07224"/><use xlink:href="#f" x="35.06619" y="14.04951"/><use xlink:href="#f" x="37.95444" y="13.02678"/><use xlink:href="#g" x="40.84268" y="12.00405"/></svg>