<svg xmlns="http://www.w3.org/2000/svg" width="137.002pt" height="149.67pt" viewBox="0 0 137.002 149.67"><defs><clipPath id="a"><path d="M0 .3789h136.01172v148.58594H0Zm0 0"/></clipPath><clipPath id="b"><path d="M0 .3789h136.01172v148.58594H0Zm0 0"/></clipPath></defs><path fill="#66B2B2" stroke="#000" stroke-miterlimit="10" stroke-width=".39562" d="m76.09375 61.39453 8.6211-13.27343-14.46094 6.4375c1.24218 2.79296 3.27343 5.17187 5.83984 6.83593Zm0 0"/><g fill="none" stroke="#000" stroke-miterlimit="10" stroke-width=".3985" clip-path="url(#a)"><path stroke-width=".39562" d="m-638.34757 370.04684 1460.58186-650.2929M-346.36323 711.9179 524.4101-628.95305"/></g><path fill="#66B2B2" stroke="#000" stroke-miterlimit="10" stroke-width=".39562" d="m41.60547 114.5 8.6211-13.27735-14.10157-7.1875c-3.67968 7.21875-1.3125 16.05078 5.48047 20.46484Zm0 0"/><g fill="none" stroke="#000" stroke-miterlimit="10" stroke-width=".3985" clip-path="url(#b)"><path stroke-width=".39562" d="M-654.9921-258.10543 769.5546 467.73824M-380.8476 765.01945 489.92573-575.85149"/></g></svg>