<svg xmlns="http://www.w3.org/2000/svg" width="155.905pt" height="98.747pt" viewBox="0 0 155.905 98.747"><defs><clipPath id="a"><path d="M26 0h129.66016v98.4961H26Zm0 0"/></clipPath><clipPath id="b"><path d="M.15234 49h155.50782v1H.15234Zm0 0"/></clipPath><clipPath id="c"><path d="M.15234 0h155.50782v98.4961H.15234Zm0 0"/></clipPath><clipPath id="d"><path d="M.15234 49h155.50782v1H.15234Zm0 0"/></clipPath></defs><path fill="#66B2B2" stroke="#000" stroke-miterlimit="10" stroke-width=".39748" d="M92.04296 49.2461h14.13671l-1.47656-14.0586c-7.1953.75782-12.66015 6.82422-12.66015 14.0586Zm0 0"/><g clip-path="url(#a)"><path fill="none" stroke="#000" stroke-miterlimit="10" stroke-width=".39748" d="M32.29299-653.73797 181.54292 766.29265"/></g><g clip-path="url(#b)"><path fill="none" stroke="#000" stroke-miterlimit="10" stroke-width=".39748" d="M-600.67939 49.2461H827.17545"/></g><path fill="#66B2B2" stroke="#000" stroke-miterlimit="10" stroke-width=".39748" d="M63.76954 49.2461H49.63283l11.85546 7.70312c1.48828-2.29297 2.28125-4.96875 2.28125-7.70313Zm0 0"/><g clip-path="url(#c)"><path fill="none" stroke="#000" stroke-miterlimit="10" stroke-width=".39748" d="M-543.19113-335.7342 654.30834 441.9295"/></g><g clip-path="url(#d)"><path fill="none" stroke="#000" stroke-miterlimit="10" stroke-width=".39748" d="M-657.22623 49.2461H770.6286"/></g></svg>