<svg xmlns="http://www.w3.org/2000/svg" xmlns:xlink="http://www.w3.org/1999/xlink" width="76.394pt" height="60.061pt" viewBox="0 0 76.394 60.061"><defs><path id="c" d="M.26563-1.84375C.26563-.54687.73438.0625 1.625.0625c.89063 0 1.35938-.53125 1.35938-1.34375s-.48438-1.25-1.14063-1.25c-.46875 0-.8125.3125-.98437.51563 0-1.3125.375-1.84375.92187-1.84375.26563 0 .46875.21875.5625.5625.01563.07812.0625.14062.15625.14062.125 0 .3125-.10937.3125-.28125 0-.23437-.29687-.64062-1.01562-.64062-.95313 0-1.53125.73437-1.53125 2.23437m.59375.42188c0-.35938.28124-.79688.78125-.79688.375 0 .75.34375.75 1.03125 0 .625-.25 1.04688-.75 1.04688-.51563 0-.78125-.54688-.78125-1.28125m0 0"/><path id="d" d="M.25-3.15625h.15625l.0625-.14062c.07813-.15625.15625-.25.42188-.25h1.625c-.0625.21875-.17188.5625-.65625 1.26562C1.34375-1.54687 1-.875 1-.17187c0 .20312.14063.23437.32813.23437C1.5.0625 1.625.01563 1.625-.15625c-.03125-.78125.125-1.4375.4375-1.98437.39063-.67188.70313-1.04688.92188-1.79688L2.92188-4H.4375Zm0 0"/><path id="e" d="M.21875-3.25c0 .45313.375.82813.82813.82813.4375 0 .82812-.375.82812-.82813 0-.4375-.39062-.82812-.82812-.82812-.45313 0-.82813.39062-.82813.82812m.32813 0c0-.29687.23437-.53125.5-.53125.26562 0 .5.23438.5.53125 0 .3125-.23438.54688-.5.54688-.26563 0-.5-.23438-.5-.54688m0 0"/><path id="f" d="M.65625 0H2.625v-.17187l-.51562-.04688c-.125-.01562-.1875-.0625-.1875-.29687v-3.53125l-.03126-.03125-1.23437.21875v.14062l.5625.07813c.09375 0 .125.04687.125.21875v2.90625c0 .125 0 .1875-.04687.23437-.03126.04688-.07813.0625-.14063.0625l-.5.04688Zm0 0"/><path id="g" d="M.25-.60937c0 .26562.40625.67187 1.1875.67187.98438 0 1.4375-.59375 1.4375-1.34375 0-.84375-.51562-1.28125-1.23437-1.28125-.32813 0-.6875.14063-.875.3125H.75l.14063-1.125c.01562-.15625.04687-.17187.17187-.17187h1.48438l.15625-.40625L2.67188-4H.65625l-.04687.04688-.125 2.01562.14062.0625c.25-.28125.5-.42187.82813-.42187.375 0 .79687.28125.79687 1.07812 0 .60938-.25 1.07813-.76562 1.07813-.42188 0-.64063-.29688-.75-.64063C.6875-.875.64062-.9375.54688-.9375.4375-.9375.25-.8125.25-.60937m0 0"/><clipPath id="a"><path d="M.28906 0h75.21875v59.13672H.28906Zm0 0"/></clipPath><clipPath id="b"><path d="M.28906 0h75.21875v59.13672H.28906Zm0 0"/></clipPath></defs><path fill="#ffb266" stroke="#000" stroke-miterlimit="10" stroke-width=".39237" d="m62.29689 24.38281-8.8711 1.88672 5.45703 7.24219c2.81641-2.1211 4.14844-5.6836 3.41407-9.12891Zm0 0"/><g fill="none" stroke="#000" stroke-miterlimit="10" stroke-width=".3985" clip-path="url(#a)"><path stroke-width=".39237" d="m-219.52355-335.94548 551.35571 731.6722m-722.03548-275.16418L505.9299-69.91411"/></g><path fill="#66cef5" stroke="#000" stroke-miterlimit="10" stroke-width=".39237" d="m16.91405 25.625 5.45704 7.24219 8.8711-1.88672c-.67188-3.16797-2.98438-5.73828-6.06641-6.73829-2.81641-.91406-5.89844-.39843-8.26173 1.38282Zm0 0"/><g fill="none" stroke="#000" stroke-miterlimit="10" stroke-width=".3985" clip-path="url(#b)"><path stroke-width=".39237" d="m-250.57435-329.34391 551.35181 731.6722M-421.25802 127.1641 474.8752-63.31253"/></g><use xlink:href="#c" x="64.11086" y="32.94887"/><use xlink:href="#d" x="67.28612" y="32.94887"/><use xlink:href="#e" x="70.46139" y="32.94887"/><use xlink:href="#f" x="21.70484" y="21.15723"/><use xlink:href="#f" x="24.8801" y="21.15723"/><use xlink:href="#g" x="28.05537" y="21.15723"/><use xlink:href="#e" x="31.23063" y="21.15723"/></svg>