<svg xmlns="http://www.w3.org/2000/svg" width="85.973pt" height="67.888pt" viewBox="0 0 85.973 67.888"><defs><clipPath id="a"><path d="M.0586 0h85.83203v62H.05858Zm0 0"/></clipPath><clipPath id="b"><path d="M.0586 0h85.83203v67.77734H.05858Zm0 0"/></clipPath><clipPath id="c"><path d="M.0586 7h85.83203v60.77734H.05858Zm0 0"/></clipPath><clipPath id="d"><path d="M.0586 0h85.83203v67.77734H.05858Zm0 0"/></clipPath></defs><path fill="#66B2B2" stroke="#000" stroke-miterlimit="10" stroke-width=".39784" d="M48.1289 29.71484 55 24.14844l-8.82031-.6172c-.15625 2.23438.53906 4.44142 1.94922 6.1836"/><g clip-path="url(#a)"><path fill="none" stroke="#000" stroke-miterlimit="10" stroke-width=".39784" d="m-386.1133-6.69922 891.04692 62.3086"/></g><g clip-path="url(#b)"><path fill="none" stroke="#000" stroke-miterlimit="10" stroke-width=".39784" d="m-288.64455 302.4258 694.1641-562.12113"/></g><path fill="#66B2B2" stroke="#000" stroke-miterlimit="10" stroke-width=".39784" d="m22.1211 43.01172 8.82421.61719 6.8711-5.56641c-3.07422-3.79687-8.64063-4.38281-12.4375-1.3086-1.90626 1.54297-3.08594 3.8086-3.25782 6.25782"/><g clip-path="url(#c)"><path fill="none" stroke="#000" stroke-miterlimit="10" stroke-width=".39784" d="m-410.168 12.78125 891.04693 62.3086"/></g><g clip-path="url(#d)"><path fill="none" stroke="#000" stroke-miterlimit="10" stroke-width=".39784" d="m-312.69924 321.90627 694.1641-562.12504"/></g></svg>