<svg xmlns="http://www.w3.org/2000/svg" xmlns:xlink="http://www.w3.org/1999/xlink" width="76.519pt" height="85.573pt" viewBox="0 0 76.519 85.573"><defs><path id="c" d="m.48438-.40625 1.46875-1.23437-.10938-.125-.40625.29687c-.09375.04688-.1875.07813-.34375-.10937l-2.1875-2.60938-.04687-.01562-.78125.92187.09374.10938.4375-.29688c.10938-.0625.15626-.04687.26563.09375L.67188-1.23437c.07812.09374.125.17187.125.21874 0 .04688-.03126.07813-.0625.14063L.375-.53125Zm0 0"/><path id="d" d="m-.67187-.95312.125.0625L.67188-1.92187l.375.45312c.14062.15625.10937.21875.01562.3125L.78125-.875l.10938.125 1.1875-.98437-.10938-.125-.21875.14062c-.125.0625-.17187.07813-.3125-.07812L1.0625-2.25l.45313-.39062-.17188-.20313-.45312.39063L-.76562-4.4375l-.32813.26563c.10938.98437.25 2.17187.42188 3.21875m.23437-.39063c-.14062-.70312-.26562-1.5-.375-2.3125l.01563-.01562L.5-2.125Zm0 0"/><path id="e" d="M-1.07812-1.64062c.75.89062 1.5625 1.3125 2.3125.6875.73437-.60938.4375-1.46875-.3125-2.35938S-.625-4.64062-1.35937-4.03125c-.75.625-.46875 1.5.28124 2.39063m.46875-.375C-1.21875-2.75-1.65625-3.5-1.21875-3.875c.42188-.34375 1.07813.20313 1.6875.9375.60938.71875 1.04688 1.48438.625 1.82813-.4375.375-1.09375-.1875-1.70312-.90625m0 0"/><path id="f" d="M-1.85937-2.5625c.28124.34375.79687.39063 1.14062.10938.32813-.28125.35938-.79688.07813-1.14063-.26563-.3125-.79688-.375-1.125-.09375-.34375.28125-.35938.8125-.09376 1.125m.23437-.20312c-.1875-.21875-.14062-.53125.04688-.70313.1875-.15625.51562-.14062.70312.07813.1875.23437.15625.5625-.03125.71875-.1875.17187-.53125.14062-.71875-.09375m0 0"/><path id="g" d="m.95313-.67187-.0625.125L1.92188.67188l-.45313.375c-.15625.14062-.21875.10937-.3125.01562L.875.78125.75.89063l.98438 1.1875.125-.10938L1.71875 1.75c-.0625-.125-.07812-.17187.07813-.3125l.45312-.375.39063.45313.20312-.17188-.39062-.45312L4.4375-.76562l-.26562-.32813C3.1875-.98437 2-.84375.95313-.67187m.39062.23437c.70313-.14062 1.5-.26562 2.3125-.375l.01563.01563L2.125.5Zm0 0"/><path id="h" d="M1.64063-1.07812C.75-.32812.32813.48438.95313 1.23438c.60937.73437 1.46875.4375 2.35937-.3125S4.64063-.625 4.03125-1.35937c-.625-.75-1.5-.46875-2.39062.28124m.375.46875C2.75-1.21875 3.5-1.65625 3.875-1.21875c.34375.42188-.20312 1.07813-.9375 1.6875-.71875.60938-1.48437 1.04688-1.82812.625-.375-.4375.1875-1.09375.90625-1.70312m0 0"/><path id="i" d="M2.5625-1.85937c-.34375.28124-.39062.79687-.10937 1.14062.28125.32813.79687.35938 1.14062.07813.3125-.26563.375-.79688.09375-1.125-.28125-.34375-.8125-.35938-1.125-.09376m.20313.23437c.21875-.1875.53125-.14062.70312.04688.15625.1875.14063.51562-.07812.70312-.23438.1875-.5625.15625-.71875-.03125-.17188-.1875-.14063-.53125.09375-.71875m0 0"/><clipPath id="a"><path d="M0 .05469h76.03906v85.03906H0Zm0 0"/></clipPath><clipPath id="b"><path d="M0 .05469h76.03906v85.03906H0Zm0 0"/></clipPath></defs><path fill="#FFB266" stroke="#000" stroke-miterlimit="10" stroke-width=".39601" d="m38.55078 30.33594 8.27344-3.00781 4.39843-7.625c-4.20703-2.42969-9.59375-.98828-12.02343 3.22266-1.30078 2.2539-1.53906 4.96484-.64844 7.41015Zm0 0"/><g fill="none" stroke="#000" stroke-miterlimit="10" stroke-width=".3985" clip-path="url(#a)"><path stroke-width=".39601" d="m-366.78506 177.86715 835.48808-304.09367m-641.95687 534.73424 444.55457-769.98809"/></g><path fill="#66CEF5" stroke="#000" stroke-miterlimit="10" stroke-width=".39601" d="m24.8164 65.4453 4.40235-7.625-8.27343 3.01173c.70703 1.9453 2.07812 3.57812 3.87109 4.61328Zm0 0"/><g fill="none" stroke="#000" stroke-miterlimit="10" stroke-width=".3985" clip-path="url(#b)"><path stroke-width=".39601" d="M-384.39052 208.36324 451.09755-95.73043M-190.85932 439.0038l444.55458-769.98808"/></g><use xlink:href="#c" x="35.26433" y="22.32611"/><use xlink:href="#d" x="37.62483" y="20.34538"/><use xlink:href="#e" x="39.98534" y="18.36463"/><use xlink:href="#f" x="42.34584" y="16.38389"/><use xlink:href="#g" x="14.97884" y="64.41753"/><use xlink:href="#h" x="16.95958" y="66.77803"/><use xlink:href="#i" x="18.94032" y="69.13854"/></svg>