<svg xmlns="http://www.w3.org/2000/svg" xmlns:xlink="http://www.w3.org/1999/xlink" width="87.16pt" height="68.492pt" viewBox="0 0 87.16 68.492"><defs><path id="c" d="m.21875-2.09375.14063.25H3.125v1.0625c0 .29688-.125.35938-.32812.375l-.67188.0625V0h2.9375v-.34375l-.48437-.04687c-.20313-.03125-.28125-.09375-.28125-.39063v-1.0625h1.04687v-.57812H4.29688v-4.54688H3.3125C2.26563-5.4375 1.17188-3.70312.21875-2.09375m.90625-.32812c.57813-1.0625 1.26563-2.20313 2-3.39063v3.39063Zm0 0"/><path id="d" d="M.39063-1.9375C.39063-.65625 1.3125.125 2.85938.125c1.5625 0 2.46875-.76562 2.46875-2.0625 0-1-.60938-1.60937-1.375-1.82812.60937-.15625 1.125-.6875 1.125-1.5 0-1.1875-.89063-1.82813-2.21875-1.82813-1.3125 0-2.23438.67188-2.23438 1.82813 0 .8125.54688 1.34375 1.15625 1.5C1.01563-3.54687.39063-2.9375.39063-1.9375m1.3125.04688c0-.92188.40625-1.60938 1.15625-1.60938S4-2.8125 4-1.89062C4-.96875 3.64063-.28126 2.85938-.28126s-1.15625-.6875-1.15625-1.60937m.1875-3.42188c0-.79687.34375-1.35937.96875-1.35937.64062 0 .98437.5625.98437 1.35937 0 .73438-.32812 1.39063-.98437 1.39063-.64063 0-.96875-.65625-.96875-1.39063m0 0"/><path id="e" d="M.39063-5.64062c0 .76562.65625 1.42187 1.42187 1.42187.78125 0 1.45313-.65625 1.45313-1.42187 0-.78125-.67188-1.45313-1.45313-1.45313-.76562 0-1.42187.67188-1.42187 1.45313m.57812 0c0-.53125.39063-.95313.84375-.95313.46875 0 .875.42188.875.95313s-.40625.92187-.875.92187c-.45312 0-.84375-.39062-.84375-.92187m0 0"/><path id="f" d="M.26563-6.0625c0 .45313.54687.70313.89062.70313.32813 0 .48438-.125.54688-.39063.21874-.85937.4375-1.14062.70312-1.14062.26563 0 .42188.34375.42188.79687 0 .57813-.29688 1.10938-.96875 1.53125-.75.45313-.90625.82813-.90625 1.125 0 .75.6875 1.09375 1.4375 1.09375.60937 0 1.14062-.21875 1.5625-.5L3.84375-3.125c-.10937.03125-.26562.0625-.48437.0625-.40625 0-.64063-.25-.64063-.54687 0-.3125.25-.65625.76563-.92188.4375-.23437 1.09375-.5625 1.09375-1.29687 0-1.04688-.92188-1.54688-2.14063-1.54688-1.46875 0-2.17187.78125-2.17187 1.3125M1.4375-.84375c0 .57813.375.96875.95313.96875.57812 0 .96875-.39062.96875-.96875 0-.57812-.39063-.96875-.96875-.96875-.57813 0-.95313.39063-.95313.96875m0 0"/><clipPath id="a"><path d="M14 .07422h61v67.83984H14Zm0 0"/></clipPath><clipPath id="b"><path d="M0 24h86.32813v20H0Zm0 0"/></clipPath></defs><path fill="#FFB266" d="m44.77734 33.9961-14.76953-20.5c-5.86718 4.22656-9.64062 10.76562-10.36718 17.95703Zm0 0"/><path fill="none" stroke="#000" stroke-miterlimit="10" stroke-width=".39469" d="M30.0078 13.49608c-5.86718 4.22657-9.64062 10.76563-10.36719 17.95704"/><path fill="#FFB266" d="m44.77734 33.9961 14.76953 20.5c5.8672-4.22657 9.64454-10.76563 10.3711-17.96094Zm0 0"/><path fill="none" stroke="#000" stroke-miterlimit="10" stroke-width=".39469" d="M59.54688 54.4961c5.8672-4.22656 9.64454-10.76563 10.3711-17.96094"/><g clip-path="url(#a)"><path fill="none" stroke="#000" stroke-miterlimit="10" stroke-width=".39469" d="m20.48046.27342 48.59377 67.44144"/></g><g clip-path="url(#b)"><path fill="none" stroke="#000" stroke-miterlimit="10" stroke-width=".39469" d="m3.42576 29.8125 82.70707 8.36328"/></g><use xlink:href="#c" x="7.39969" y="20.89467"/><use xlink:href="#d" x="13.11669" y="20.89467"/><use xlink:href="#e" x="18.83424" y="20.89467"/><use xlink:href="#f" x="71.87729" y="53.77182"/></svg>