<svg xmlns="http://www.w3.org/2000/svg" xmlns:xlink="http://www.w3.org/1999/xlink" width="98.29pt" height="87.13pt" viewBox="0 0 98.29 87.13"><defs><path id="a" d="m2.6875-2.01562.76563.76562 3.21875-3.23437L9.90625-1.25l.75-.76562L7.4375-5.23437l3.21875-3.23438-.75-.75L6.67188-6 3.45313-9.21875l-.76563.75 3.23438 3.23438Zm0 0"/><path id="b" d="M-.35937 0h4.1875l.125-.53125L2.92188-.625c-.23438-.03125-.34375-.14062-.34375-.32812 0-.09376.04687-.23438.10937-.375.60938-1.17188 1.20313-2.375 1.89063-3.625H8.75L9.20313-1.125s-.10938.45313-.5.5l-.98438.09375L7.625 0h4.54688l.125-.53125-.71875-.0625c-.5625-.0625-.64063-.3125-.75-1.07812L9.46875-12.82812h-1.3125l-3.125 5.46875C4.07813-5.70312 2.54688-2.9375 1.85938-1.82812 1.26563-.875.95313-.67187.375-.60937l-.60937.07812Zm5.3125-5.65625 3.01562-5.45312.67188 5.45312Zm0 0"/><path id="c" d="M0 0h5.625c4.48438 0 5.39063-2.3125 5.39063-3.84375 0-1.95312-1.4375-2.8125-2.8125-3.0625l.03125-.04687c2.46875-.29688 3.5-1.6875 3.5-3.09375 0-1.5-.875-2.78125-4.29688-2.78125H2.75l-.125.53125 1.10938.09375c.3125.03125.45312.17187.45312.46875 0 .10937-.04687.26562-.07812.45312l-2.1875 9.73438c-.14063.625-.32813.84375-.78125.89062l-1.04688.125Zm3.70313-1.42187c0-.14063.03125-.28126.0625-.40625l1.0625-4.76563h.73437c1.84375 0 3.45313.53125 3.45313 2.64063 0 1.65625-1 3.29687-3.48438 3.29687-1.46875 0-1.82812-.29687-1.82812-.76562M4.96875-7.25l.96875-4.29687c.14063-.54688.23438-.65625 1.48438-.65625 1.5625 0 2.42187.79687 2.42187 2.09375 0 1.9375-1.60937 2.85937-3.67187 2.85937Zm0 0"/><path id="d" d="M.96875-5.09375c0 2.45313 1.20313 5.375 5.79688 5.375 1.32812 0 2.59375-.1875 3.76562-.78125l.92188-2.95312h-.5625C9.875-1.59375 8.9375-.375 6.65625-.375 4.5-.375 2.95313-1.75 2.95313-4.625c0-1.67187.4375-3.71875 1.32812-5.20312.92188-1.5625 2.39063-2.64063 4.375-2.64063 2.35938 0 3.03125 1.07813 3.03125 3.10938h.5625l.67188-2.78125c-1.0625-.67188-2.79688-.98438-4.09375-.98438-3.5 0-5.51563 1.64063-6.59375 3.375C1.20313-8.09375.96875-6.375.96875-5.09375m0 0"/><clipPath id="e"><path d="M7 48h90.45313v20H7Zm0 0"/></clipPath></defs><path fill="#FFB266" d="m13.3789 54.4336 27.95704 2.44921c.5039-5.73828-.77344-11.49218-3.65235-16.48047Zm0 0"/><path fill="none" stroke="#000" stroke-miterlimit="10" stroke-width=".39456" d="M41.33595 56.88281c.5039-5.73828-.77344-11.49219-3.65235-16.48047"/><use xlink:href="#a" x="6.70972" y="59.04147"/><use xlink:href="#b" x="7.01567" y="47.46506"/><use xlink:href="#a" x="55.32232" y="30.97571"/><use xlink:href="#c" x="55.92332" y="19.3993"/><use xlink:href="#a" x="62.62837" y="63.93461"/><use xlink:href="#d" x="63.04223" y="79.41702"/><path fill="none" stroke="#000" stroke-miterlimit="10" stroke-width=".39456" d="m13.3789 54.4336 72.918-42.09768"/><g clip-path="url(#e)"><path fill="none" stroke="#000" stroke-miterlimit="10" stroke-width=".39456" d="m13.3789 54.4336 83.87894 7.33984"/></g></svg>