<svg xmlns="http://www.w3.org/2000/svg" xmlns:xlink="http://www.w3.org/1999/xlink" width="49.279pt" height="92.807pt" viewBox="0 0 49.279 92.807"><defs><path id="c" d="M.57813-1v.125l1.4375.67188-.25.54687C1.6875.5 1.60937.5 1.46875.45313L1.125.32813l-.07812.15625 1.39062.65625.07813-.15626-.25-.14062c-.09375-.07812-.10938-.125-.03125-.28125l.25-.54687.53125.25L3.125.03124l-.53125-.25 1.07813-2.32812-.39063-.1875c-.8125.5-1.82812 1.125-2.70312 1.73437m.45312.04688q.86719-.60937 1.92188-1.3125l.01562.01562L2.125-.4375Zm0 0"/><path id="d" d="m.17188 0 .03124.09375 2.15625 1.01563.5-.60938-.125-.10937C2.48438.625 2.375.625 2.15625.53125L.8125-.09375c.20313-.25.6875-.46875 1.34375-.59375.67188-.125 1.17188-.20312 1.4375-.78125.32813-.71875-.03125-1.1875-.57812-1.4375-.70313-.34375-1.28125-.07812-1.40625.1875-.07813.17188.07812.34375.15624.39063.10938.04687.15626.01562.23438-.0625.25-.32813.57813-.51563.90625-.35938.40625.1875.35938.5625.17188.96875-.25.54688-.6875.73438-1.32813.92188C.84375-.59375.45313-.34375.17188 0m0 0"/><path id="e" d="M1.53125-2.73437c-.1875.375-.01562.875.35938 1.04687.39062.1875.89062 0 1.07812-.375.17188-.40625-.01562-.875-.40625-1.0625-.375-.17187-.85937-.01562-1.03125.39063m.28125.125c.125-.26563.40625-.375.625-.26563.23438.10938.35938.40625.23438.67188-.14063.26562-.42188.375-.65625.26562-.21875-.10937-.34375-.40625-.20313-.67187m0 0"/><clipPath id="a"><path d="M0 .57422h48.57031v91.46875H0Zm0 0"/></clipPath><clipPath id="b"><path d="M0 .57422h48.57031v91.46875H0Zm0 0"/></clipPath></defs><path fill="#D9668C" stroke="#000" stroke-miterlimit="10" stroke-width=".39275" d="m25.96094 22.35938-.60938 8.70703 6.27735-6.0625c-1.4961-1.5547-3.51953-2.4961-5.66797-2.64453Zm0 0"/><g fill="none" stroke="#000" stroke-miterlimit="10" stroke-width=".3985" clip-path="url(#a)"><path stroke-width=".39275" d="m-288.66406 334.3086 634.3086-612.54688M-5.10156 466.53516l61.51172-879.64453"/></g><path fill="#F66" stroke="#000" stroke-miterlimit="10" stroke-width=".39275" d="m16.9375 67.61328 6.28125-6.0625.60937-8.71094c-4.8125-.33593-8.98437 3.29297-9.3203 8.10157-.17188 2.46875.71093 4.89453 2.42968 6.67187Zm0 0"/><g fill="none" stroke="#000" stroke-miterlimit="10" stroke-width=".3985" clip-path="url(#b)"><path stroke-width=".39275" d="m-290.79688 364.78906 634.3086-612.54297M-7.23438 497.01953 54.27734-382.6289"/></g><use xlink:href="#c" x="26.37116" y="19.25767"/><use xlink:href="#d" x="29.141" y="20.54925"/><use xlink:href="#e" x="31.91083" y="21.84083"/></svg>