<svg xmlns="http://www.w3.org/2000/svg" width="79.156pt" height="86.475pt" viewBox="0 0 79.156 86.475"><defs><clipPath id="a"><path d="M0 .19531h78.32031v85.5625H0Zm0 0"/></clipPath><clipPath id="b"><path d="M0 .19531h78.32031v85.5625H0Zm0 0"/></clipPath></defs><path fill="#66b2b2" stroke="#000" stroke-miterlimit="10" stroke-width=".3943" d="m43.8164 35.33203 4.96485-7.64453-8.32812 3.70703a9.149 9.149 0 0 0 3.36328 3.9375Zm0 0"/><g fill="none" stroke="#000" stroke-miterlimit="10" stroke-width=".3985" clip-path="url(#a)"><path stroke-width=".3943" d="m-367.58594 213.0664 841.0625-374.46484m-672.92578 571.32813 501.42578-772.1289"/></g><path fill="#66b2b2" stroke="#000" stroke-miterlimit="10" stroke-width=".3943" d="m23.95703 65.91016 4.96485-7.64453-8.1211-4.13672c-2.11719 4.15625-.7539 9.24218 3.15625 11.78125Zm0 0"/><g fill="none" stroke="#000" stroke-miterlimit="10" stroke-width=".3985" clip-path="url(#b)"><path stroke-width=".3943" d="m-377.17187-148.64844 820.3125 417.96875m-662.44923 171.1875 501.42579-772.1289"/></g></svg>