<svg xmlns="http://www.w3.org/2000/svg" width="129.378pt" height="146.004pt" viewBox="0 0 129.378 146.004"><defs><clipPath id="a"><path d="M.1289 0h128.5v145.01563H.1289Zm0 0"/></clipPath><clipPath id="b"><path d="M.1289 0h128.5v145.01563H.1289Zm0 0"/></clipPath></defs><path fill="#66B2B2" stroke="#000" stroke-miterlimit="10" stroke-width=".3958" d="m58.98828 54.53907 15.42968-3.5625 6.69531-14.35155c-7.92578-3.69531-17.35155-.26563-21.04686 7.66015-1.49219 3.20312-1.8711 6.8125-1.07813 10.2539Zm0 0"/><g fill="none" stroke="#000" stroke-miterlimit="10" stroke-width=".3985" clip-path="url(#a)"><path stroke-width=".3958" d="m-697.13634 229.1054 1558.5422-359.82014M-260.2303 768.64028 415.76544-681.03869"/></g><path fill="#66B2B2" stroke="#000" stroke-miterlimit="10" stroke-width=".3958" d="m47.64845 108.3906 6.6914-14.35155-15.42968 3.5625c1.09765 4.7461 4.3203 8.73046 8.73828 10.78906Zm0 0"/><g fill="none" stroke="#000" stroke-miterlimit="10" stroke-width=".3985" clip-path="url(#b)"><path stroke-width=".3958" d="M-717.21446 272.16396 841.32774-87.65226M-280.31233 811.69885 395.68343-637.9762"/></g></svg>