<svg xmlns="http://www.w3.org/2000/svg" xmlns:xlink="http://www.w3.org/1999/xlink" width="522.4pt" height="376.83pt" viewBox="0 0 522.4 376.83"><defs><path id="a" d="m2.7-2.03.78.78 3.25-3.27L10-1.25l.75-.78L7.5-5.28l3.25-3.27L10-9.3 6.73-6.05 3.48-9.3l-.78.75 3.27 3.27Zm0 0"/><path id="b" d="M-.36 0h4.22l.12-.53-1.03-.11q-.36-.04-.34-.31 0-.17.1-.38c.61-1.2 1.2-2.42 1.91-3.67H8.8l.47 3.86s-.1.47-.5.5l-1 .1-.1.54h4.6l.13-.53-.72-.06c-.58-.07-.66-.33-.77-1.1L9.56-12.94H8.22L5.08-7.42c-.95 1.67-2.52 4.45-3.2 5.58C1.27-.87.95-.67.38-.61l-.61.08ZM5-5.72l3.05-5.48.67 5.48Zm0 0"/><path id="c" d="M0 0h5.67c4.52 0 5.44-2.33 5.44-3.87 0-1.99-1.45-2.83-2.83-3.1L8.3-7c2.5-.31 3.54-1.72 3.54-3.12 0-1.52-.89-2.82-4.34-2.82H2.77l-.13.53 1.13.11q.45.02.45.46 0 .19-.08.45l-2.2 9.84c-.14.61-.33.83-.78.9L.09-.54Zm3.75-1.44q0-.21.05-.4l1.08-4.82h.73c1.86 0 3.48.55 3.48 2.68 0 1.67-1.01 3.32-3.51 3.32-1.49 0-1.83-.3-1.83-.78M5.02-7.3l.96-4.33c.14-.56.25-.66 1.5-.66 1.58 0 2.46.8 2.46 2.11 0 1.96-1.64 2.88-3.7 2.88Zm0 0"/><path id="d" d="M.97-5.14C.97-2.67 2.19.28 6.83.28c1.33 0 2.6-.19 3.8-.78l.92-2.98h-.57C9.95-1.61 9.02-.38 6.7-.38c-2.17 0-3.72-1.39-3.72-4.28 0-1.68.44-3.76 1.33-5.25a5 5 0 0 1 4.42-2.67c2.38 0 3.05 1.1 3.05 3.14h.58l.67-2.81a8.6 8.6 0 0 0-4.14-.98c-3.52 0-5.55 1.65-6.64 3.4A9 9 0 0 0 .97-5.14m0 0"/><path id="g" d="m-.3 3.44-.92 10.42.9.08.5-2.66c.12-.67.38-1 1.62-.89l18.68 1.64.18-.15-.54-6.66-.78-.06-.64 2.92c-.1.54-.36.72-1.26.64L2.06 7.37Q1.18 7.34.88 7c-.22-.19-.25-.45-.25-.8L.6 3.52Zm0 0"/><path id="h" d="M5.66 1.81c-3.2-.28-6.32 1.42-6.77 6.55s2.31 7.33 5.52 7.6c3.23.29 5.26-1.55 5.97-3.68h.06c.33 1.99 1.81 3.66 4.4 3.88 3.44.3 5.64-2.24 5.96-5.88.3-3.64-1.4-6.53-4.83-6.84a4.7 4.7 0 0 0-5.03 3.1h-.06A5.5 5.5 0 0 0 5.66 1.8m-.38 3.17c2.9.25 4.9 1.83 4.69 4.35-.22 2.51-2.49 3.72-5.38 3.47-2.8-.25-4.8-1.7-4.57-4.35s2.45-3.72 5.26-3.47m10.49 1.54c2.42.2 4.1 1.5 3.92 3.65-.19 2.16-2.08 3.14-4.5 2.94-2.14-.19-4.27-1.4-4.06-3.69.2-2.28 2.5-3.1 4.64-2.9m0 0"/><path id="i" d="M10.47 2.23C4.14 1.7-.66 3.14-1.11 8.36c-.45 5.23 4 7.52 10.33 8.06 6.34.56 11.12-.9 11.58-6.14.45-5.22-3.99-7.48-10.33-8.05m-.28 3.2c5.15.46 9.76 1.74 9.5 4.74-.27 3-5.03 3.47-10.19 3.02-5.14-.46-9.75-1.74-9.48-4.74s5.03-3.47 10.17-3.01m0 0"/><path id="j" d="M-10.47-2.23C-4.14-1.7.66-3.14 1.11-8.36c.45-5.23-4-7.51-10.33-8.06s-11.12.9-11.58 6.14c-.45 5.22 3.99 7.48 10.33 8.05m.28-3.2c-5.15-.46-9.76-1.74-9.5-4.74.27-3 5.03-3.47 10.19-3.02 5.14.46 9.75 1.74 9.48 4.74s-5.03 3.47-10.17 3.01m0 0"/><path id="aK" d="m.3-3.44.92-10.42-.9-.08-.5 2.66c-.12.67-.38 1-1.62.89l-18.68-1.64-.18.15.54 6.66.78.06.64-2.92c.1-.54.36-.72 1.26-.64l15.38 1.35c.6.04.97.14 1.19.37.21.19.25.45.25.8l.01 2.68Zm0 0"/><path id="aL" d="M-5.66-1.81c3.2.28 6.32-1.42 6.77-6.55s-2.31-7.33-5.52-7.6c-3.23-.29-5.26 1.55-5.96 3.68h-.07c-.33-1.99-1.81-3.66-4.4-3.88-3.44-.3-5.64 2.24-5.96 5.88-.3 3.64 1.4 6.53 4.83 6.84a4.7 4.7 0 0 0 5.03-3.1h.06A5.5 5.5 0 0 0-5.65-1.8m.38-3.17c-2.9-.25-4.9-1.83-4.69-4.35.22-2.51 2.49-3.72 5.38-3.47 2.8.25 4.8 1.7 4.57 4.35s-2.45 3.72-5.26 3.47m-10.49-1.54c-2.42-.2-4.1-1.5-3.92-3.65.19-2.16 2.08-3.14 4.5-2.94 2.14.19 4.27 1.4 4.06 3.69-.2 2.28-2.5 3.1-4.64 2.9m0 0"/><path id="k" d="m.22 2.4.62 7.3.64-.06.02-1.89c0-.47.14-.75 1.02-.83l13.06-1.14.1-.1-1.16-4.52-.54.04-.09 2.1c-.02.39-.16.54-.8.6l-10.76.93q-.62.07-.86-.11c-.19-.1-.25-.28-.28-.53L.86 2.34Zm0 0"/><path id="l" d="M7.48.28C3.05.66-.08 2.23.25 5.9c.31 3.66 3.67 4.69 8.1 4.31 4.45-.39 7.56-1.98 7.24-5.64S11.92-.1 7.5.28m.2 2.24c3.62-.33 6.95.01 7.13 2.1.19 2.1-3.04 3-6.65 3.33-3.61.32-6.94-.03-7.13-2.12s3.05-3 6.66-3.31m0 0"/><path id="m" d="M.38.52.22.8l2.37 8.9 3.05-.04-.05-.61c-1.3-.14-1.57-.53-1.8-1.4L2.3 2.14c1.22.04 3.08.91 5.06 2.52 2.08 1.64 3.46 2.99 5.86 2.35 3-.8 3.5-3.07 2.9-5.35-.79-2.94-2.99-3.97-4.1-3.67-.73.2-.86 1.13-.76 1.5s.36.47.76.44c1.53-.05 2.95.48 3.31 1.81.44 1.64-.8 2.5-2.4 2.92-2.3.61-3.9-.2-6.08-1.62C3.84 1.02 2.14.48.38.52m0 0"/><path id="n" d="M7.42-1.03C3.11.13.32 2.22 1.28 5.75c.94 3.55 4.4 4 8.72 2.84 4.3-1.15 7.1-3.28 6.16-6.82-.96-3.54-4.44-3.96-8.74-2.8m.6 2.17c3.5-.94 6.84-1.19 7.39.83.54 2.05-2.49 3.5-5.99 4.44-3.5.93-6.84 1.18-7.39-.86-.55-2.02 2.49-3.47 5.99-4.4m0 0"/><path id="o" d="M2.31-.44C1.45-.04.66 2.03 2 4.9 3.36 7.81 5.7 9 8.28 7.8c2.7-1.27 2.42-3.96 2.02-5.13l.07-.04c.68 1 2.3 2.36 4.3 1.44 2.24-1.04 2.4-3.26 1.4-5.42-1.24-2.67-3.4-3.23-4.26-2.84-.62.3-.62 1.15-.48 1.43q.17.39.62.3c1.6-.19 2.82.16 3.35 1.31.75 1.58-.47 2.63-1.6 3.16-1.2.56-2.93.84-3.73-.86-.45-.97-.53-1.62-.64-1.86q-.17-.36-.72-.1-.54.24-.4.62c.12.23.59.7 1.04 1.67.8 1.7-.3 3.4-2.08 4.23-2.4 1.13-3.8.33-4.45-1.1-.63-1.33-.06-2.7.9-3.6q.5-.46.3-.87c-.17-.36-.87-.9-1.6-.57m0 0"/><path id="p" d="M7.13-2.31C3.09-.44.7 2.14 2.25 5.45c1.56 3.33 5.06 3.16 9.1 1.28s6.42-4.46 4.85-7.8c-1.54-3.3-5.03-3.13-9.07-1.24m.95 2.04c3.3-1.53 6.55-2.35 7.42-.45.9 1.9-1.83 3.86-5.12 5.4-3.29 1.52-6.54 2.35-7.43.45-.87-1.91 1.85-3.86 5.13-5.4m0 0"/><path id="q" d="m3.88-2.2-.27.42L7.09 3.2 5.22 4.5c-.61.44-.86.3-1.2-.12L3.1 3.3l-.53.37 3.36 4.8.53-.38L6 7.23c-.27-.46-.23-.67.38-1.1l1.87-1.3L9.56 6.7l.85-.6-1.32-1.87 8.08-5.65-.94-1.33c-3.73.05-8.3.22-12.35.55m1.4.98c2.74-.3 5.75-.5 8.94-.65l.03.06L7.94 2.6Zm0 0"/><path id="r" d="M6.63-3.52c-3.66 2.55-5.57 5.5-3.47 8.5s5.53 2.22 9.18-.32 5.55-5.52 3.44-8.52-5.51-2.2-9.15.34M7.9-1.67c2.97-2.08 6.03-3.45 7.23-1.74 1.22 1.72-1.12 4.13-4.1 6.2-2.94 2.1-6 3.47-7.23 1.75C2.6 2.81 4.94.41 7.9-1.67m0 0"/><path id="s" d="M2.25-.97c-.72.72-.69 2.9 1.36 4.95 2.6 2.6 5.34 2.2 7.33.2 2.22-2.21 1.95-4.73.1-6.59a5.4 5.4 0 0 0-3.15-1.51l3.3-2.61c.45-.36.6-.31.9 0L16-2.61l1.47-.7.05-.2-5.25-5.26h-.32L6.38-3.84l.18.59c1.4-.1 2.42.17 3.27 1.02 1.01 1.01 1.37 2.84-.7 4.92-1.63 1.62-3.5 2.22-4.88.84-1.1-1.1-.86-2.45-.28-3.69.15-.3.14-.6-.08-.82-.31-.32-1.12-.5-1.64.01m0 0"/><path id="t" d="M5.92-4.6C2.77-1.46 1.4 1.76 3.98 4.35s5.83 1.23 8.99-1.92c3.14-3.14 4.5-6.38 1.9-8.97-2.59-2.6-5.8-1.22-8.95 1.92m1.6 1.58c2.56-2.56 5.32-4.45 6.8-2.96 1.5 1.48-.4 4.25-2.96 6.8-2.56 2.57-5.34 4.48-6.83 3-1.48-1.5.42-4.27 2.99-6.84m0 0"/><path id="u" d="M4.73-5.06c-2.75 3.93-2.65 6.84.08 8.76 2.7 1.9 5.28 1.25 7.02-1.23 1.72-2.45 1.15-4.86-.81-6.24a5 5 0 0 0-4.08-.51l-.05-.03c2.84-4 5.11-4.82 6.75-3.66.84.58.95 1.7.48 2.94-.07.26-.06.53.2.72.41.28 1.21.36 1.57-.14.52-.75.47-2.58-1.72-4.13-2.9-2.01-6.26-1.01-9.44 3.52m.93 2.6c.78-1.1 2.54-1.88 4.07-.8 1.16.8 1.55 2.64.08 4.73-1.34 1.92-2.97 2.69-4.51 1.6-1.58-1.1-1.17-3.34.36-5.54m0 0"/><path id="v" d="M5.02-5.56C2.47-1.91 1.67 1.5 4.67 3.59c3 2.11 5.97.22 8.52-3.43 2.54-3.64 3.33-7.08.33-9.2-3-2.09-5.96-.16-8.5 3.48m1.84 1.28c2.08-2.97 4.48-5.31 6.2-4.11 1.72 1.22.35 4.28-1.73 7.25s-4.49 5.31-6.2 4.1C3.4 1.74 4.78-1.32 6.86-4.29m0 0"/><path id="w" d="m5.8-10.27.54.25.4-.32c.51-.44.93-.61 1.82-.2L14.02-8c-.54.66-1.46 1.63-4.18 3.2-2.9 1.67-5.09 3.43-6.2 5.8-.31.66.1 1.03.7 1.31.6.27 1.11.33 1.35-.28a13 13 0 0 1 4.62-5.98c2.35-1.67 4-2.44 5.9-4.64l-.07-.3-8.4-3.9Zm0 0"/><path id="x" d="M3.97-6.34C2.09-2.31 1.92 1.17 5.23 2.72c3.33 1.56 5.91-.81 7.79-4.85 1.89-4.04 2.06-7.54-1.27-9.1-3.31-1.55-5.9.84-7.78 4.89m2.05.95c1.53-3.3 3.48-6.02 5.39-5.14 1.9.89 1.07 4.14-.46 7.44C9.42.19 7.47 2.9 5.56 2c-1.9-.87-1.08-4.12.46-7.4m0 0"/><path id="y" d="M1.94-3.67C1.36-1.5 2.16.84 5.63 1.78c3.48.92 5.34-.7 5.92-2.87.6-2.2-.46-3.82-1.82-4.58l.02-.03c1.4 0 2.73-.8 3.2-2.57.63-2.34-.86-4.17-3.34-4.82-2.45-.68-4.67.17-5.3 2.51a3.3 3.3 0 0 0 1.53 3.83l-.01.03a3.9 3.9 0 0 0-3.9 3.05m2.14.64C4.6-5 5.94-6.22 7.64-5.75c1.72.45 2.27 2.17 1.74 4.14C8.86.3 7.64 1.52 5.83 1.03S3.56-1.14 4.08-3.03m2.33-7.05c.43-1.64 1.53-2.67 3-2.26 1.48.39 1.92 1.82 1.48 3.47-.39 1.46-1.47 2.74-3.05 2.34-1.54-.42-1.82-2.08-1.43-3.55m0 0"/><path id="z" d="M2.81-6.95C1.66-2.65 2.1.83 5.63 1.78c3.54.94 5.65-1.84 6.8-6.15 1.16-4.3.73-7.79-2.82-8.72-3.53-.96-5.64 1.84-6.8 6.14m2.17.6c.94-3.5 2.41-6.54 4.43-6 2.04.55 1.78 3.9.84 7.4S7.88 1.58 5.83 1.03C3.8.48 4.05-2.86 4.98-6.36m0 0"/><path id="A" d="m3 .81 9.1 2.42.21-.8-2.28-.82c-.58-.22-.83-.5-.55-1.6l4.38-16.3-.13-.18-5.95-.55-.19.7 2.5 1c.46.18.58.43.36 1.23L6.85-.7c-.13.53-.27.85-.5 1-.2.16-.46.16-.76.11L3.22.02Zm0 0"/><path id="B" d="M3.6-8.92c-1.45 5.51-.9 9.97 3.64 11.2C11.8 3.5 14.53-.09 16-5.6c1.48-5.53.9-10-3.66-11.22-4.54-1.23-7.25 2.38-8.73 7.9m2.8.75c1.22-4.5 3.08-8.4 5.7-7.69 2.63.7 2.3 4.98 1.07 9.49-1.2 4.5-3.04 8.39-5.69 7.68-2.6-.7-2.28-4.98-1.07-9.48m0 0"/><path id="C" d="m2.81 1.31 8.53 3.99.35-.75-2.1-1.22c-.51-.3-.73-.64-.25-1.66l7.13-15.3-.08-.18-5.78-1.6-.3.63 2.28 1.42c.43.27.5.56.16 1.3L6.88.54c-.24.48-.43.76-.68.87-.23.14-.48.07-.76-.02L3.16.56Zm0 0"/><path id="D" d="M5.13-8.17C2.7-2.98 2.44 1.5 6.73 3.5c4.27 2 7.6-1.06 10.02-6.25 2.4-5.17 2.6-9.67-1.66-11.67-4.28-2-7.56 1.08-9.96 6.25m2.62 1.22c1.97-4.22 4.47-7.7 6.92-6.57 2.46 1.14 1.4 5.32-.58 9.54C12.13.23 9.61 3.73 7.16 2.59c-2.46-1.14-1.38-5.32.59-9.54m0 0"/><path id="E" d="m2.55 1.78 7.7 5.4.47-.68-1.85-1.55c-.46-.39-.6-.76.04-1.68l9.68-13.82-.04-.22-5.43-2.56-.39.56 2 1.82c.35.32.38.6-.09 1.28L6.67 1.7c-.31.46-.54.7-.81.77-.25.1-.49-.02-.75-.16L3 1.11Zm0 0"/><path id="F" d="m.78.2.1.4 9.7 6.8 2.97-2.53-.58-.57c-1.4.9-1.99.76-2.92.1l-6-4.2c1.23-.97 3.8-1.64 7.08-1.7 3.4-.08 5.87.1 7.7-2.52 2.3-3.28.9-5.92-1.55-7.64-3.23-2.25-6.25-1.45-7.1-.23-.55.78.1 1.8.5 2.08.41.3.74.14 1.12-.19 1.5-1.33 3.3-1.95 4.75-.94 1.78 1.27 1.26 3.11.06 4.83-1.77 2.53-4.02 3.05-7.33 3.44C4.63-2.2 2.52-1.3.78.2m0 0"/><path id="G" d="M6.45-7.14C3.17-2.47 2.15 1.9 6.02 4.6s7.67.26 10.95-4.4c3.28-4.7 4.26-9.1.39-11.8s-7.63-.24-10.9 4.45m2.38 1.66c2.67-3.82 5.75-6.83 7.95-5.29 2.24 1.57.45 5.49-2.22 9.3S8.83 5.36 6.6 3.8c-2.2-1.55-.43-5.47 2.24-9.28m0 0"/><path id="H" d="m2.2 2.2 6.64 6.64.58-.57L7.88 6.4c-.4-.46-.47-.85.32-1.64L20.14-7.17l-.02-.2-4.87-3.47-.5.5 1.66 2.12c.3.38.28.66-.3 1.24L6.28 2.84q-.54.57-.94.6c-.26.04-.48-.08-.7-.27L2.78 1.63Zm0 0"/><path id="I" d="M2.6-1.52c-.85.86-.9 3.7 1.98 6.57 2.92 2.92 6.25 3.28 8.83.7 2.72-2.72 1.2-5.83.17-7.08l.08-.08c1.3.93 3.86 1.86 5.86-.14 2.23-2.23 1.46-4.97-.7-7.14-2.68-2.67-5.54-2.44-6.4-1.58-.6.61-.25 1.7.02 1.96.25.25.56.25.9.1 1.85-.95 3.47-1.07 4.61.07 1.6 1.6.61 3.42-.53 4.56-1.2 1.2-3.15 2.28-4.87.56-.97-.96-1.36-1.73-1.58-1.95q-.39-.38-.94.19c-.34.34-.45.67-.19.94.22.21.99.6 1.96 1.57 1.72 1.72 1.14 4.24-.63 6-2.4 2.41-4.44 2.07-5.87.63C3.95 3.02 4.08 1.14 4.83-.4q.4-.77-.03-1.19c-.36-.36-1.46-.67-2.2.06m0 0"/><path id="J" d="M7.6-5.92C3.57-1.87 1.79 2.25 5.14 5.59c3.32 3.33 7.5 1.6 11.54-2.45 4.05-4.05 5.77-8.2 2.44-11.53-3.34-3.34-7.45-1.58-11.5 2.47m2.06 2.05C12.94-7.16 16.5-9.6 18.4-7.7c1.92 1.92-.54 5.47-3.82 8.75-3.3 3.3-6.84 5.75-8.76 3.83-1.9-1.9.53-5.47 3.83-8.76m0 0"/><path id="K" d="m1.78 2.55 5.4 7.7.66-.47-1.2-2.1c-.3-.52-.3-.91.63-1.55l13.8-9.7.04-.2-4.22-4.26-.56.39 1.25 2.37c.23.44.17.72-.5 1.2L5.7 3.88c-.45.31-.76.45-1.04.44-.25 0-.46-.17-.66-.4L2.45 2.07Zm0 0"/><path id="L" d="m5-2.83-.36.55L9.11 4.1 6.7 5.8c-.79.54-1.08.37-1.55-.17l-1.2-1.4-.66.47 4.34 6.2.67-.46-.6-1.14c-.32-.6-.3-.85.5-1.4l2.38-1.68 1.68 2.39 1.09-.77-1.67-2.39 10.4-7.25-1.2-1.72c-4.79.06-10.7.26-15.88.7m1.78 1.28c3.53-.39 7.4-.65 11.52-.86l.03.07-8.13 5.68Zm0 0"/><path id="M" d="M8.52-4.52C3.84-1.23 1.38 2.53 4.08 6.4s7.1 2.9 11.78-.39c4.69-3.28 7.12-7.08 4.42-10.95S13.2-7.8 8.52-4.52m1.65 2.38c3.81-2.67 7.74-4.44 9.28-2.23C21.02-2.14 18 .92 14.2 3.59c-3.81 2.68-7.74 4.46-9.3 2.22-1.55-2.2 1.47-5.28 5.28-7.95m0 0"/><path id="N" d="m1.31 2.81 3.99 8.53.75-.34-.85-2.28c-.2-.58-.14-.95.88-1.44L21.38.16l.06-.2-3.4-4.94-.63.3.82 2.55c.14.46.04.72-.7 1.07L4.93 4.8q-.7.36-1.09.27c-.26-.05-.42-.27-.57-.52l-1.2-2.1Zm0 0"/><path id="O" d="M3.13-.19c-1.2.55-2.08 3.2-.52 6.57 2 4.28 5.48 5.01 8.77 3.46 3.64-1.68 4.45-4.8 3.01-7.9a7 7 0 0 0-3.14-3.19l.02-.05 5.12-1.67c.7-.23.86-.1 1.1.4L20.5 3.9l2.05-.2.15-.22-4.03-8.67-.37-.14-8.9 3.51-.04.8c1.75.5 2.84 1.25 3.5 2.66.77 1.65.4 4.06-3.02 5.65C7.17 8.53 4.66 8.4 3.6 6.12c-.84-1.8 0-3.34 1.29-4.56.3-.33.43-.67.28-1.03C4.9.02 4-.59 3.13-.19m0 0"/><path id="P" d="M9.17-2.97C3.98-.55.91 2.73 2.91 7.02c2 4.26 6.5 4.06 11.68 1.64s8.24-5.74 6.24-10c-2-4.28-6.49-4.03-11.66-1.63M10.4-.34c4.22-1.97 8.4-3.03 9.53-.58 1.14 2.45-2.34 4.95-6.56 6.92s-8.4 3.05-9.55.6C2.67 4.13 6.17 1.62 10.4-.35m0 0"/><path id="Q" d="m.81 3 2.42 9.1.8-.22-.42-2.38c-.1-.6.03-.98 1.12-1.27l16.3-4.37.1-.19-2.49-5.45-.69.19.38 2.65c.06.49-.1.74-.9.96L4.04 5.6c-.53.14-.87.16-1.12.05s-.38-.33-.49-.6l-.81-2.28Zm0 0"/><path id="R" d="M8.86-1.08C2.89.52.59 3.45 1.7 7.61c1.1 4.1 4.14 5.6 7.93 4.6 3.71-1 5.14-3.84 4.34-6.8-.58-2.18-2.5-3.41-3.6-3.9l-.01-.06c6.08-1.6 9-.53 9.67 1.97.34 1.28-.48 2.47-1.95 3.31-.31.16-.52.46-.4.86.16.63.9 1.35 1.66 1.14 1.13-.3 2.57-2.14 1.68-5.46-1.18-4.4-5.29-6.2-12.16-4.35M7.6 2.25c1.67-.45 4.06.27 4.69 2.6.47 1.73-.68 3.85-3.85 4.71-2.9.77-5.14.19-5.76-2.14C2.05 5 4.29 3.14 7.6 2.25m0 0"/><path id="S" d="M9.55-1.33C4.03.14.42 2.84 1.65 7.4s5.7 5.14 11.2 3.67c5.54-1.48 9.13-4.22 7.92-8.78-1.24-4.55-5.7-5.1-11.22-3.6m.75 2.8c4.5-1.22 8.8-1.55 9.5 1.06.7 2.64-3.2 4.49-7.7 5.7-4.5 1.2-8.77 1.55-9.47-1.09-.7-2.6 3.17-4.47 7.67-5.67m0 0"/><path id="T" d="m.27 3.1.82 9.37.83-.08-.01-2.4c.01-.62.2-.96 1.3-1.07l16.82-1.47.13-.15-1.52-5.82-.69.07-.1 2.7c0 .47-.2.67-1.02.75L2.98 6.2q-.78.08-1.09-.12c-.23-.13-.33-.38-.37-.67L1.09 3Zm0 0"/><path id="U" d="m15.16-.12.06.76.62.19c.82.31 1.3.67 1.41 1.95l.67 7.7c-1.08-.2-2.75-.59-6.26-2.6C7.94 5.72 4.6 4.4 1.25 4.68c-.95.1-1.1.79-1.03 1.65.08.83.36 1.42 1.19 1.31a17 17 0 0 1 9.65 1.3c3.35 1.53 5.27 2.9 8.9 3.6l.3-.27L19.24.39Zm0 0"/><path id="V" d="M9.64.36C3.94.86-.08 2.88.33 7.58s4.72 6.06 10.42 5.56 9.7-2.58 9.28-7.28c-.4-4.7-4.7-6-10.39-5.5m.25 2.87c4.64-.4 8.9.02 9.14 2.7.24 2.71-3.89 3.87-8.53 4.27s-8.94-.01-9.17-2.72C1.09 4.8 5.25 3.64 9.89 3.23m0 0"/><path id="W" d="M2.42-14.4c-.34 4 2.3 6.24 5.56 6.54 1.97.17 3.7-.8 4.91-2.25h.08a28 28 0 0 1-1.3 6.67c-.76 2.07-2 3.53-4.03 3.35-2.14-.2-2.8-1.93-3.16-3.46-.09-.42-.28-.67-.82-.72-.61-.04-1.52.52-1.61 1.5C1.94-1.4 3.4.67 7.25 1.02c2.56.21 4.6-.57 5.97-2.13 1.45-1.72 2.47-4.39 2.87-8.98.35-3.94-.21-6.6-1.3-8.18a6.3 6.3 0 0 0-4.77-2.56c-4.05-.34-7.2 2.06-7.6 6.44m3.24-.58c.25-2.91 1.76-4.94 4.22-4.74 2.51.22 3.51 3.33 3.23 6.4a5 5 0 0 1-.38 1.66 3.55 3.55 0 0 1-3.65 2.2c-2.45-.23-3.69-2.5-3.42-5.52m0 0"/><path id="X" d="M2.23-10.47C1.7-4.14 3.14.66 8.36 1.11c5.23.45 7.52-4 8.06-10.33.56-6.34-.9-11.12-6.14-11.58-5.22-.45-7.48 3.99-8.05 10.33m3.2.28c.46-5.15 1.74-9.76 4.74-9.5 3 .27 3.47 5.03 3.02 10.19-.46 5.14-1.74 9.75-4.74 9.48S4.98-5.05 5.44-10.19m0 0"/><path id="Y" d="m2.4-.22 7.3-.62-.06-.64-1.89-.02c-.47 0-.75-.14-.83-1.02L5.78-15.58l-.1-.1-4.52 1.16.04.54 2.1.09c.39.02.54.16.6.8l.93 10.76q.07.62-.11.86c-.1.19-.28.25-.53.28l-1.85.33Zm0 0"/><path id="Z" d="M.28-7.48C.66-3.05 2.23.08 5.9-.25c3.66-.31 4.69-3.67 4.31-8.1-.39-4.45-1.98-7.56-5.64-7.24S-.1-11.92.28-7.5m2.24-.2c-.33-3.62.01-6.94 2.1-7.13s3 3.04 3.33 6.65c.32 3.61-.03 6.94-2.12 7.13s-3-3.05-3.31-6.66m0 0"/><path id="aa" d="m2.34-.62 7.07-1.9-.18-.62-1.84.33c-.47.08-.78-.02-1-.86L3-16.34l-.13-.1-4.23 1.94.14.53 2.07-.28c.36-.06.55.06.72.69l2.8 10.44q.16.6.03.85c-.05.2-.23.3-.45.38l-1.77.64Zm0 0"/><path id="ab" d="M-1.03-7.42C.13-3.11 2.22-.32 5.75-1.28c3.55-.94 4-4.4 2.84-8.72-1.15-4.3-3.28-7.1-6.82-6.16-3.54.96-3.96 4.44-2.8 8.74m2.17-.6c-.94-3.5-1.19-6.84.83-7.39 2.05-.54 3.5 2.49 4.44 5.99.93 3.5 1.18 6.84-.86 7.39-2.02.55-3.47-2.49-4.4-5.99m0 0"/><path id="ac" d="m2.19-1.03 6.64-3.08-.27-.58-1.78.63c-.44.15-.75.12-1.12-.67L.1-16.63l-.16-.06-3.82 2.64.21.5 2.02-.64c.36-.1.55-.03.81.55l4.58 9.8q.25.57.19.84-.05.29-.4.45l-1.62.94Zm0 0"/><path id="ad" d="m.44-.45.31.1 8.36-3.9-.56-2.97-.61.13c.1 1.3-.27 1.64-1.08 2.03L1.7-2.66c-.15-1.2.38-3.18 1.61-5.42 1.28-2.31 2.36-3.92 1.3-6.17-1.31-2.83-3.63-2.92-5.77-1.92-2.75 1.3-3.37 3.64-2.89 4.69.32.67 1.24.64 1.58.46.36-.15.4-.43.35-.8-.33-1.52-.07-3 1.18-3.59 1.55-.71 2.6.36 3.28 1.85 1.02 2.15.49 3.89-.53 6.26C.33-3.95.11-2.17.44-.45m0 0"/><path id="ae" d="M-2.31-7.12C-.44-3.1 2.14-.7 5.45-2.25c3.33-1.56 3.16-5.06 1.28-9.1s-4.46-6.42-7.8-4.85c-3.3 1.54-3.13 5.03-1.24 9.07m2.04-.96c-1.53-3.3-2.35-6.54-.45-7.42 1.9-.9 3.86 1.83 5.4 5.13 1.52 3.28 2.35 6.53.45 7.42-1.91.87-3.86-1.85-5.4-5.13m0 0"/><path id="af" d="m1.98-1.4 5.99-4.18-.38-.53-1.62.92c-.42.25-.7.27-1.2-.45L-2.77-16.4l-.17-.05-3.31 3.28.31.46 1.86-.97c.33-.19.53-.14.9.39l6.21 8.86q.36.5.33.8 0 .29-.33.5l-1.42 1.2Zm0 0"/><path id="ag" d="M-.83-2.22c.55.78 2.72 1.22 5.31-.6C7.12-4.65 7.86-7.16 6.22-9.5c-1.7-2.45-4.31-1.69-5.4-1.1l-.05-.07c.89-.85 1.95-2.67.68-4.49-1.42-2.01-3.62-1.8-5.57-.43-2.41 1.68-2.61 3.9-2.07 4.68.4.57 1.25.43 1.52.24q.32-.24.15-.67c-.45-1.53-.32-2.8.7-3.52 1.44-1.02 2.71 0 3.43 1.03C.36-12.75.94-11.09-.62-10c-.86.6-1.5.78-1.7.92q-.34.25.02.74.34.5.7.28c.2-.14.58-.67 1.44-1.28 1.57-1.1 3.41-.32 4.54 1.28 1.51 2.19.96 3.69-.32 4.6-1.2.84-2.64.5-3.7-.27q-.56-.42-.9-.15c-.33.24-.74 1.02-.29 1.66m0 0"/><path id="ah" d="M-3.52-6.62c2.55 3.65 5.5 5.56 8.5 3.46s2.22-5.53-.32-9.18-5.52-5.55-8.52-3.44-2.2 5.51.34 9.15m1.85-1.29c-2.08-2.96-3.45-6.03-1.74-7.23 1.72-1.22 4.13 1.12 6.2 4.1 2.1 2.96 3.47 6.02 1.75 7.25C2.81-2.6.41-4.94-1.67-7.9m0 0"/><path id="ai" d="m1.72-1.72 5.17-5.17-.45-.45-1.46 1.2c-.37.31-.67.39-1.3-.24l-9.27-9.28h-.16l-2.69 3.79.4.39 1.65-1.29c.3-.23.5-.21.95.24L2.2-4.9c.32.31.47.53.47.75q.06.26-.22.53L1.27-2.17Zm0 0"/><path id="aj" d="m-2.86-3.45.48.2 4.3-4.3 1.61 1.61c.53.53.44.82.1 1.22l-.91 1.1.45.45 4.14-4.14-.45-.46-.78.6c-.4.34-.61.36-1.14-.17L3.33-8.95l1.6-1.61-.73-.74-1.6 1.61-6.97-6.97-1.15 1.14c.7 3.66 1.66 8.16 2.66 12.07m.75-1.53a153 153 0 0 1-2.2-8.7l.04-.05L1.2-8.28Zm0 0"/><path id="ak" d="M-4.6-5.92c3.15 3.15 6.37 4.53 8.96 1.94s1.23-5.83-1.92-8.99c-3.14-3.14-6.38-4.5-8.97-1.9-2.6 2.59-1.22 5.8 1.92 8.95m1.58-1.6c-2.56-2.56-4.45-5.32-2.96-6.8 1.48-1.5 4.25.4 6.8 2.96 2.57 2.56 4.48 5.34 3 6.83-1.5 1.48-4.27-.42-6.84-2.99m0 0"/><path id="al" d="m1.4-1.98 4.18-5.99-.53-.37-1.2 1.43c-.32.36-.58.49-1.3-.01L-8.2-14.45l-.18.01-2 4.22.46.31 1.4-1.54c.25-.3.46-.32.99.06l8.86 6.2q.5.35.58.64c.07.2.01.36-.13.58L.86-2.36Zm0 0"/><path id="am" d="M-1.36-2.06c.84.6 3 .2 4.66-2.17 2.1-3 1.22-5.64-1.1-7.27-2.54-1.78-4.97-1.1-6.48 1.06-.72 1-1.05 2.4-.94 3.36l-.01-.01-3.14-2.8c-.43-.38-.43-.53-.16-.9l3.17-4.52-.92-1.31-.22-.02-4.27 6.1.07.29 5.82 4.64.54-.3c-.33-1.36-.25-2.4.43-3.39.82-1.15 2.58-1.84 4.99-.15C2.95-8.15 3.84-6.4 2.73-4.8 1.84-3.52.47-3.52-.83-3.9c-.34-.07-.64-.04-.81.23-.27.37-.31 1.19.28 1.6m0 0"/><path id="an" d="M-5.56-5.02c3.65 2.55 7.06 3.35 9.15.35 2.11-3 .22-5.97-3.43-8.52-3.64-2.54-7.08-3.33-9.2-.33-2.09 3-.16 5.96 3.48 8.5m1.28-1.84c-2.97-2.08-5.31-4.48-4.11-6.2 1.22-1.72 4.28-.35 7.25 1.73s5.31 4.49 4.1 6.2c-1.21 1.72-4.27.35-7.24-1.73m0 0"/><path id="ao" d="m1.03-2.19 3.08-6.64-.58-.26-.94 1.62c-.25.4-.5.6-1.3.22l-11.88-5.55-.16.03-1.23 4.52.5.22 1.1-1.77c.2-.32.41-.39.99-.12L.4-5.34c.39.17.59.32.68.53.11.15.08.36-.01.6L.45-2.46Zm0 0"/><path id="ap" d="M-5.83-3.78C-1.47-1.75 1.4-2.36 2.8-5.4c1.39-2.99.3-5.4-2.42-6.69-2.72-1.26-4.99-.28-6 1.88a4.9 4.9 0 0 0 .2 4.12l-.02.05c-4.43-2.11-5.64-4.19-4.78-6.02.42-.92 1.52-1.23 2.81-.98.27.03.54-.03.68-.33.2-.45.14-1.25-.41-1.5-.83-.39-2.63-.03-3.75 2.4-1.5 3.2.05 6.34 5.06 8.68m2.42-1.36c-1.21-.58-2.28-2.2-1.5-3.9.6-1.27 2.33-1.98 4.66-.9 2.1 1 3.16 2.49 2.36 4.19C1.3-4-1-4.02-3.41-5.15m0 0"/><path id="aq" d="M-6.34-3.97c4.03 1.88 7.51 2.05 9.06-1.26 1.56-3.33-.81-5.91-4.85-7.79-4.04-1.89-7.54-2.06-9.1 1.27-1.55 3.31.84 5.9 4.89 7.78m.95-2.05c-3.3-1.53-6.02-3.48-5.14-5.39.89-1.9 4.14-1.07 7.44.46C.19-9.42 2.9-7.47 2-5.56c-.87 1.9-4.12 1.08-7.4-.46m0 0"/><path id="ar" d="m.63-2.34 1.89-7.07-.63-.17-.64 1.78c-.17.44-.4.66-1.23.44l-12.68-3.4-.15.06-.44 4.64.53.14.81-1.92c.13-.36.32-.46.94-.29l10.44 2.8q.6.15.76.4c.14.15.14.34.1.59L0-2.52Zm0 0"/><path id="as" d="m-11.1-3.94.15-.58-.4-.3c-.54-.46-.76-.84-.5-1.79l1.55-5.81c.72.4 1.85 1.17 3.88 3.56C-4.27-6.28-2.2-4.44.34-3.76c.72.2 1-.27 1.2-.93.15-.62.1-1.14-.52-1.26A13.4 13.4 0 0 1-5.7-9.47c-2.03-2.01-3.08-3.53-5.58-5l-.28.13-2.4 8.95Zm0 0"/><path id="at" d="M-6.95-2.81c4.3 1.15 7.78.72 8.73-2.81.94-3.55-1.84-5.66-6.15-6.82-4.3-1.15-7.79-.72-8.72 2.83-.96 3.53 1.84 5.64 6.14 6.8m.6-2.17c-3.5-.94-6.54-2.41-6-4.43.55-2.04 3.9-1.78 7.4-.84s6.53 2.38 5.98 4.42c-.55 2.02-3.89 1.78-7.39.85m0 0"/><path id="au" d="m.81-3 2.42-9.1-.8-.21-.82 2.28c-.22.58-.5.83-1.6.55l-16.3-4.38-.18.13-.55 5.95.7.19 1-2.5c.18-.46.43-.58 1.23-.36l13.4 3.6c.53.13.85.27 1 .5.16.2.16.46.11.76l-.4 2.37Zm0 0"/><path id="av" d="M-8.92-3.6c5.51 1.46 9.97.91 11.2-3.63C3.5-11.8-.09-14.53-5.6-16c-5.53-1.48-10-.9-11.22 3.66-1.23 4.54 2.38 7.25 7.9 8.73m.75-2.8c-4.5-1.22-8.4-3.08-7.69-5.7.7-2.63 4.98-2.3 9.49-1.07 4.5 1.2 8.39 3.05 7.68 5.69-.7 2.6-4.98 2.28-9.48 1.07m0 0"/><path id="aw" d="m.08-.81.37-.16 5-10.73-3-2.49-.47.67c1.15 1.2 1.1 1.82.61 2.86L-.5-4.02c-1.17-1.06-2.28-3.46-2.9-6.68-.66-3.33-.94-5.8-3.82-7.14-3.62-1.7-5.98.14-7.25 2.86-1.65 3.56-.37 6.39.99 7.01.87.4 1.76-.39 1.96-.83.22-.47.02-.76-.37-1.06-1.58-1.27-2.5-2.94-1.75-4.53.92-1.98 2.84-1.8 4.73-.9 2.8 1.29 3.72 3.41 4.66 6.62C-2.97-4.17-1.72-2.25.08-.81m0 0"/><path id="ax" d="M-8.17-5.12C-2.98-2.7 1.5-2.45 3.5-6.73c2-4.27-1.06-7.6-6.25-10.02-5.17-2.4-9.67-2.6-11.67 1.66-2 4.28 1.08 7.56 6.25 9.97m1.22-2.63c-4.22-1.97-7.7-4.47-6.57-6.92 1.14-2.45 5.32-1.4 9.54.58 4.21 1.97 7.71 4.48 6.57 6.93-1.14 2.46-5.32 1.38-9.54-.59m0 0"/><path id="ay" d="M-1.95-2.3c1 .7 3.78.25 6.1-3.07 2.38-3.4 2.16-6.74-.82-8.83-3.14-2.2-5.95-.16-6.99 1.04l-.1-.06c.7-1.42 1.17-4.1-1.16-5.73-2.6-1.82-5.14-.6-6.9 1.93-2.18 3.1-1.45 5.88-.45 6.58.72.5 1.7-.06 1.93-.37.2-.3.14-.6-.07-.9-1.23-1.65-1.64-3.23-.71-4.56 1.3-1.84 3.24-1.2 4.56-.26 1.39.97 2.81 2.7 1.4 4.7-.78 1.13-1.46 1.63-1.65 1.9q-.3.42.37.88c.4.27.72.32.92.02.2-.27.44-1.06 1.22-2.19 1.4-2 3.99-1.86 6.03-.42 2.8 1.95 2.8 4 1.65 5.66C2.28-4.44.4-4.2-1.22-4.68q-.82-.25-1.15.23c-.3.42-.43 1.56.42 2.15m0 0"/><path id="az" d="M-7.14-6.45c4.67 3.28 9.05 4.3 11.75.43s.26-7.67-4.4-10.95c-4.7-3.28-9.1-4.26-11.8-.39s-.24 7.63 4.45 10.9m1.66-2.38c-3.82-2.67-6.83-5.75-5.29-7.95 1.57-2.24 5.49-.45 9.3 2.22S5.36-8.83 3.8-6.6c-1.55 2.2-5.47.43-9.28-2.24m0 0"/><path id="aA" d="m-3.66-4.44.61.27L2.47-9.7l2.06 2.06c.69.7.58 1.02.13 1.57L3.48-4.64l.58.58 5.35-5.35-.58-.57-1.02.8c-.53.4-.76.41-1.45-.27L4.3-11.52l2.06-2.06-.95-.95-2.07 2.06-8.95-8.95-1.48 1.48a238 238 0 0 0 3.43 15.5m.96-1.98c-1-3.4-1.94-7.16-2.83-11.17l.05-.05 7 7Zm0 0"/><path id="aB" d="M-5.92-7.6c4.05 4.04 8.17 5.82 11.51 2.47 3.33-3.32 1.6-7.5-2.45-11.54-4.05-4.05-8.2-5.77-11.53-2.44-3.34 3.34-1.58 7.45 2.47 11.5m2.05-2.06C-7.16-12.94-9.6-16.5-7.7-18.4c1.92-1.92 5.47.54 8.75 3.82 3.3 3.3 5.75 6.84 3.83 8.76C3-3.93-.58-6.36-3.87-9.66m0 0"/><path id="aC" d="M-.72-3.05c.75 1.08 3.5 1.5 6.53-.62 3.9-2.72 3.99-6.28 1.9-9.25C5.43-16.2 2.2-16.45-.6-14.5a6.8 6.8 0 0 0-2.56 3.64l-.06-.02-2.54-4.74c-.34-.66-.26-.83.2-1.16l5.84-4.08-.55-2-.25-.1-7.84 5.48-.07.39 5 8.15.78-.1c.2-1.8.75-3.02 2.02-3.91 1.5-1.05 3.94-1.11 6.1 2 1.7 2.4 1.98 4.92-.07 6.36-1.64 1.14-3.28.54-4.7-.47q-.56-.42-1.06-.11c-.47.34-.9 1.34-.35 2.12m0 0"/><path id="aD" d="M-4.52-8.52C-1.23-3.84 2.53-1.37 6.4-4.08s2.9-7.1-.39-11.78c-3.28-4.69-7.08-7.12-10.95-4.42s-2.85 7.08.43 11.76m2.38-1.65c-2.67-3.81-4.44-7.74-2.23-9.28C-2.14-21.02.92-18 3.59-14.2c2.68 3.81 4.46 7.74 2.22 9.3-2.2 1.55-5.28-1.47-7.95-5.28m0 0"/><path id="aE" d="M-2.6-8.53C.03-2.93 3.32-1.2 7.2-3c3.85-1.78 4.8-5.05 3.14-8.58-1.62-3.5-4.65-4.4-7.45-3.1-2.03.95-2.9 3.02-3.2 4.21l-.05.03c-2.66-5.73-2.08-8.78.27-9.87 1.18-.55 2.5.03 3.57 1.34.22.27.54.42.93.25.57-.26 1.15-1.1.82-1.84-.48-1.05-2.54-2.14-5.67-.69-4.1 1.92-5.15 6.27-2.15 12.72m3.5.65c-.74-1.57-.45-4.04 1.74-5.07 1.63-.75 3.92-.02 5.31 2.97 1.27 2.71 1.07 5.03-1.1 6.04C4.59-2.87 2.36-4.75.9-7.87m0 0"/><path id="aF" d="M-2.97-9.17c2.42 5.19 5.7 8.26 9.99 6.26 4.26-2 4.06-6.5 1.64-11.68s-5.74-8.24-10-6.24c-4.28 2-4.03 6.49-1.63 11.66m2.63-1.22c-1.97-4.22-3.03-8.4-.58-9.53 2.45-1.14 4.95 2.34 6.92 6.56s3.05 8.4.6 9.55C4.13-2.67 1.62-6.17-.35-10.4m0 0"/><path id="aG" d="m-2.77-14.9.75-.2.1-.67c.15-.84.4-1.36 1.65-1.7l7.47-2c0 1.1-.1 2.81-1.47 6.61C4.25-8.8 3.53-5.3 4.41-2.03c.25.92.93.94 1.78.7.8-.22 1.34-.6 1.1-1.37a17 17 0 0 1-.43-9.74c.95-3.58 1.97-5.7 2-9.42l-.31-.23L-2.95-19Zm0 0"/><path id="aH" d="M-1.33-9.55C.14-4.03 2.84-.42 7.4-1.65s5.14-5.7 3.67-11.2c-1.48-5.54-4.22-9.13-8.78-7.92-4.55 1.24-5.1 5.7-3.6 11.22m2.8-.75c-1.22-4.5-1.55-8.8 1.06-9.5 2.64-.7 4.49 3.2 5.7 7.7 1.2 4.5 1.55 8.77-1.09 9.48-2.6.7-4.47-3.18-5.67-7.68m0 0"/><path id="aI" d="M.73-5.3C.98-2.4 2.97.08 7.58-.33c4.62-.4 6.15-3.19 5.9-6.08s-2.23-4.43-4.2-4.7l-.01-.06a4.2 4.2 0 0 0 2.76-4.52c-.28-3.1-2.89-4.64-6.17-4.34-3.27.28-5.58 2.25-5.3 5.34a4.2 4.2 0 0 0 3.52 3.97l.01.06A4.96 4.96 0 0 0 .73-5.3m2.86-.15c-.23-2.61.85-4.67 3.11-4.86 2.28-.2 3.7 1.64 3.93 4.25.21 2.51-.74 4.51-3.15 4.73-2.39.2-3.67-1.6-3.89-4.12m-.3-9.53c-.18-2.2.73-3.88 2.65-4.05 1.95-.17 3.1 1.33 3.3 3.53.17 1.92-.55 3.98-2.63 4.17-2.05.17-3.14-1.73-3.31-3.65m0 0"/><path id="aJ" d="M.36-9.64C.86-3.94 2.88.08 7.58-.33s6.06-4.72 5.56-10.42-2.58-9.7-7.28-9.28c-4.7.4-6 4.7-5.5 10.39m2.87-.25c-.4-4.64.02-8.9 2.7-9.14 2.71-.24 3.87 3.89 4.27 8.53s-.01 8.94-2.72 9.17c-2.68.24-3.84-3.92-4.25-8.56m0 0"/><clipPath id="e"><path d="M6 33h483v343.54H6Zm0 0"/></clipPath><clipPath id="f"><path d="M0 28h495v348.54H0Zm0 0"/></clipPath></defs><path fill="#66B2B2" d="m247.3 274.63 28.21 2.46a28.3 28.3 0 0 0-2.54-14.43Zm0 0"/><path fill="none" stroke="#000" stroke-miterlimit="10" stroke-width=".4" d="M275.51 277.1a28.3 28.3 0 0 0-2.54-14.44"/><use xlink:href="#a" x="240.58" y="279.27"/><use xlink:href="#b" x="240.89" y="267.59"/><use xlink:href="#a" x="306.01" y="248.76"/><use xlink:href="#c" x="306.62" y="237.08"/><use xlink:href="#a" x="336.48" y="287.66"/><use xlink:href="#d" x="336.89" y="275.7"/><path fill="none" stroke="red" stroke-dasharray="2.9853928455000003 2.9853928455000003" stroke-miterlimit="10" stroke-width=".4" d="m247.3 274.62 152.7-71.2"/><path fill="none" stroke="#000" stroke-miterlimit="10" stroke-width=".4" d="m247.3 274.62 87.26-40.68m-87.26 40.68 143.86 12.6"/><g clip-path="url(#e)"><path fill="#CCCCE5" fill-opacity=".5" fill-rule="evenodd" d="m17.81 337.18 444.64 38.9a4.6 4.6 0 0 0 4.24-2.45c54.91-117.76 2.8-260.95-117.67-317.13C228.55.33 85.36 52.45 29.19 172.91 5.28 224.2.19 282.27 14.07 334.03c.42 1.6.77 1.55.77-.1 0 1.65 1.33 3.1 2.97 3.25m61.67-77.24 260.75 22.81c1.65.15 1.95-.6.7-1.65-51.97-43.6-128.92-50.33-190.25-14.93m219.48 19.2 42 3.68a3 3 0 0 0 3.23-2.72c7.85-89.71-60.71-171.42-153.4-179.53S87.6 167.25 79.74 256.97a3 3 0 0 0 2.71 3.23l281.76 24.65zm0 0"/></g><g clip-path="url(#f)"><path fill="none" stroke="#000" stroke-miterlimit="10" stroke-opacity=".5" stroke-width=".4" d="m17.81 337.18 444.64 38.9a4.6 4.6 0 0 0 4.24-2.45c54.91-117.76 2.8-260.95-117.67-317.13C228.55.33 85.36 52.45 29.19 172.91 5.28 224.2.19 282.27 14.07 334.03c.42 1.6.77 1.55.77-.1 0 1.65 1.33 3.1 2.97 3.25Zm61.67-77.24 260.75 22.81c1.65.15 1.95-.6.7-1.65-51.97-43.6-128.92-50.33-190.25-14.93m219.48 19.2 42 3.68a3 3 0 0 0 3.23-2.72c7.85-89.71-60.71-171.42-153.4-179.53S87.6 167.25 79.74 256.97a3 3 0 0 0 2.71 3.23l281.76 24.65zm0 0"/></g><path fill="none" stroke="#7F7FA6" stroke-miterlimit="10" stroke-width=".4" d="m79.48 259.94 335.65 29.37m-169.5 4.49 3.35-38.35m-10.43 8.75 17.5 20.85m-19.17-1.67 20.86-17.5"/><path fill="none" stroke="#7F7FA6" stroke-miterlimit="10" stroke-width="1.2" d="m472.68 294.34 14.38 1.26m-57.54-5.03-14.39-1.26m57.55-34.4 14.38-1.26m-57.54 5.03-14.38 1.26m50.69-43.87 13.95-3.73m-55.8 14.95-13.94 3.73m42.3-52 13.09-6.1m-52.35 24.4-13.09 6.1m32.63-58.56 11.83-8.28m-47.31 33.13L385.3 178m21.98-63.34 10.2-10.21m-40.84 40.84-10.2 10.21m10.63-66.2 8.28-11.82m-33.13 47.31-8.28 11.83m-1.02-67.03 6.1-13.09m-24.41 52.35-6.1 13.1M305.86 56.1l3.74-13.94m-14.95 55.79-3.74 13.94m-23.89-62.63 1.26-14.39m-5.03 57.54-1.26 14.39m-34.4-57.55-1.26-14.38m5.04 57.54 1.25 14.39m-43.87-50.7-3.73-13.94m14.94 55.79 3.74 13.95m-52-42.3-6.1-13.1m24.4 52.35 6.1 13.1m-58.55-32.64-8.28-11.83m33.12 47.32 8.29 11.82m-63.34-21.96-10.2-10.21m40.83 40.84 10.21 10.21M62 144.87l-11.84-8.29m47.32 33.13L109.3 178m-67.03 1.02-13.08-6.1m52.35 24.4 13.08 6.1m-65.83 12.65-13.95-3.73m55.79 14.95 13.95 3.73M21.94 254.9l-14.39-1.25m57.54 5.03 14.39 1.26m396.46 14.68h12.03m-60.16 0h-12.04m56.7-39.7 11.85-2.09m-59.25 10.45-11.86 2.1m48.95-48.95 11.3-4.12m-56.53 20.58L405.62 217m39.69-56.7 10.42-6.01m-52.1 30.08-10.43 6.02m29.25-62.73 9.22-7.73m-46.1 38.67-9.2 7.74m17.9-66.86 7.74-9.22m-38.68 46.1-7.73 9.21m6.03-68.95 6.01-10.42m-30.08 52.1-6.02 10.43m-6.04-68.95 4.12-11.31M309.04 105l-4.11 11.3m-17.92-66.84 2.09-11.85m-10.45 59.26-2.09 11.85M247.3 46V33.95m0 60.16v12.04m-39.7-56.69-2.08-11.85m10.44 59.26 2.1 11.84M169.1 59.78 165 48.47M185.56 105l4.12 11.3m-56.69-39.68-6.02-10.42m30.08 52.1 6.02 10.43m-62.73-29.25-7.73-9.22m38.68 46.1 7.73 9.21m-66.86-17.91-9.21-7.73m46.09 38.67 9.21 7.74M49.3 160.3l-10.42-6.01m52.1 30.08 10.43 6.02m-68.95 6.04-11.3-4.12m56.53 20.58L89 217m-66.85 17.92-11.85-2.09m59.25 10.45 11.85 2.1"/><path fill="none" stroke="#7F7FA6" stroke-miterlimit="10" stroke-width=".4" d="m484.99 291.25 2.4.16m-69.62-4.87-2.4-.16m67.47.59 4.8.25m-67.29-3.52-4.8-.26m65.06-.67 7.22.25m-64.94-2.26-7.22-.26m62.64-1.84 9.63.16m-62.56-1.09-9.63-.17m62.56-6.96 9.63-.17m-62.56 1.09-9.63.17m64.86-5.21 7.22-.25m-64.94 2.26-7.21.26m67.16-6.47 4.8-.25m-67.29 3.52-4.8.26m69.44-7.81 2.4-.16m-69.62 4.87-2.4.16m68.9-13.15 2.39-.25m-69.41 7.3-2.4.25m66.55-11.14 4.78-.59m-66.88 8.22-4.78.58m63.96-11.95 7.15-1m-64.34 9.04-7.15 1m61.36-12.7 9.52-1.5m-61.8 9.79-9.52 1.5m60.4-17.73 9.45-1.84m-61.42 11.94-9.45 1.84m62.97-16.39 7.06-1.5m-63.55 13.5-7.07 1.5m65.03-18.02 4.69-1.09m-65.66 15.16-4.69 1.09m67.04-19.75 2.33-.58m-67.72 16.89-2.34.58m65.57-24.92 2.31-.66m-67.09 19.24-2.31.66m63.61-22.52 4.6-1.4m-64.44 19.7-4.6 1.4m60.91-22.89 6.87-2.23m-61.8 20.09-6.87 2.23m58.23-23.17 9.1-3.13m-59.16 20.37-9.1 3.14m56.4-27.95 8.99-3.45m-58.42 22.42-8.98 3.45m59.17-27.08 6.7-2.7M410.2 208.8l-6.7 2.7m60.91-29.03 4.43-1.88m-62.03 26.33-4.43 1.88m62.59-31.09 2.2-.98m-63.76 28.4-2.2.97m60.24-35.92 2.17-1.06m-62.73 30.6-2.16 1.05m58.73-33.22 4.29-2.19m-60.05 30.6-4.29 2.18m56.02-33.11 6.37-3.4m-57.37 30.51-6.38 3.4m53.33-32.93 8.42-4.66m-54.73 30.34-8.42 4.66m50.7-37.32 8.25-4.96m-53.64 32.23-8.25 4.96m53.58-36.95 6.12-3.82m-55.1 34.43-6.13 3.83m54.92-39.18 4.05-2.62m-56.52 36.7-4.03 2.62m56.24-41.47 2-1.35m-57.87 39.02-2 1.35m53.1-45.84 1.95-1.42m-56.47 41.03-1.95 1.41m52.07-42.92 3.84-2.9m-53.81 40.56-3.85 2.9m49.42-42.34 5.69-4.45m-51.21 40.01-5.69 4.44m46.8-41.67 7.48-6.06m-48.63 39.38-7.48 6.06m43.45-45.56 7.26-6.32m-47.22 41.06-7.27 6.3m46.35-45.67 5.36-4.83m-48.29 43.48-5.37 4.83m47.3-48.13 3.52-3.28m-49.28 45.96-3.52 3.28m48.18-50.62 1.73-1.67m-50.2 48.49-1.73 1.67m44.32-54.37 1.67-1.73M366 151.7l-1.67 1.74m43.83-51.31 3.28-3.52m-45.96 49.28-3.28 3.52m41.32-50.27 4.83-5.37m-43.48 48.3-4.83 5.36m38.84-49.18L405.2 93m-41.05 47.22-6.32 7.27m34.87-52.42 6.07-7.48m-39.38 48.63-6.06 7.48m37.71-53.03 4.44-5.7m-40 51.21-4.45 5.7m38.22-55.62 2.9-3.84m-40.56 53.81-2.9 3.85m38.67-58.21 1.41-1.95m-41.02 56.47-1.42 1.94m34.21-61.23 1.35-2m-39.03 57.86-1.34 2m34.24-58.14 2.62-4.04m-36.7 56.52-2.62 4.04m31.96-56.69 3.82-6.12m-34.43 55.1-3.83 6.13m29.72-55.17 4.96-8.26m-32.23 53.64-4.96 8.25m25.25-57.67 4.66-8.42m-30.33 54.73-4.67 8.42M356.9 68.5l3.4-6.37m-30.51 57.37-3.4 6.38m27.99-61.4 2.19-4.3m-30.6 60.05-2.18 4.29m27.96-64.04 1.06-2.17m-30.6 62.73-1.05 2.17m23.06-66.25.98-2.2m-28.4 63.76-.97 2.2m23.63-63.2 1.88-4.43m-26.32 62.03-1.89 4.43m21.63-61.37 2.7-6.7m-24.34 60.25-2.7 6.7m19.68-59.5 3.45-8.99m-22.42 58.42-3.45 8.99m14.84-61.18 3.14-9.1m-20.37 59.16-3.14 9.1m17.3-62.73 2.23-6.86m-20.08 61.8-2.23 6.86m16.9-65.33 1.4-4.6m-19.7 64.44-1.4 4.61m16.41-67.92.66-2.32m-19.23 67.1-.67 2.3m11.21-69.24.58-2.33m-16.89 67.72-.58 2.33m12.3-66.34 1.09-4.7m-15.16 65.67-1.09 4.69m10.64-64.2 1.5-7.07m-13.5 63.56-1.5 7.07m9.06-62.01 1.83-9.45M281.29 99.8l-1.84 9.45m4-62.82 1.5-9.5m-9.78 61.8-1.5 9.5m6.13-64.78 1-7.15m-9.04 64.35-1 7.15m5.29-67.27.59-4.78m-8.21 66.89-.59 4.77m4.37-69.74.25-2.4m-7.3 69.42-.24 2.39m-.99-70.13.16-2.4m-4.86 69.62-.17 2.4m.59-67.47.25-4.81m-3.52 67.3-.25 4.8m-.68-65.07.26-7.21m-2.27 64.93-.25 7.22m-1.85-62.64.17-9.62m-1.1 62.56-.16 9.62m-6.97-62.56L243.1 34m1.09 62.57.17 9.62m-5.2-64.87-.25-7.22m2.27 64.94.25 7.22m-6.47-67.16-.25-4.81m3.53 67.3.25 4.8m-7.8-69.44-.17-2.4m4.87 69.62.16 2.4m-13.15-68.9-.25-2.4m7.3 69.42.25 2.39m-11.14-66.55-.58-4.78m8.21 66.89.59 4.77m-11.96-63.96-1-7.15m9.04 64.35 1 7.15m-12.69-61.37-1.51-9.51m9.79 61.8 1.5 9.51m-17.73-60.4-1.83-9.45m11.93 61.42 1.84 9.45m-16.39-62.97-1.5-7.06m13.51 63.56 1.5 7.06m-18.03-65.03-1.08-4.69m15.16 65.67 1.08 4.68m-19.75-67.03-.58-2.34m16.89 67.72.58 2.34M181.63 45.6l-.66-2.32m19.24 67.1.66 2.3m-22.52-63.61-1.4-4.6m19.7 64.44 1.4 4.61M175.17 52.6l-2.23-6.86m20.08 61.8 2.23 6.86m-23.16-58.23-3.14-9.1m20.37 59.16 3.14 9.1m-27.95-56.4-3.45-8.99m22.42 58.42 3.45 8.99m-27.07-59.17-2.7-6.7m24.33 60.25 2.7 6.7m-29.04-60.91-1.88-4.43m26.33 62.03 1.88 4.43M150.4 56.96l-.98-2.2m28.38 63.76.99 2.2m-35.93-60.24-1.06-2.16m30.6 62.72 1.05 2.17m-33.22-58.73-2.18-4.3m30.6 60.05 2.17 4.29M137.7 68.5l-3.38-6.37m30.5 57.37 3.4 6.37M135.3 72.55l-4.67-8.42m30.33 54.73 4.67 8.42m-37.32-50.7-4.95-8.25m32.22 53.64 4.96 8.25M123.6 76.65l-3.83-6.13m34.44 55.11 3.82 6.12m-39.18-54.93-2.62-4.03m36.7 56.51 2.62 4.04M114.07 77.1l-1.34-2m39.03 57.86 1.34 2m-45.84-53.09-1.42-1.95m41.03 56.46 1.42 1.95m-42.92-52.06-2.9-3.85m40.55 53.82 2.9 3.84m-42.34-49.42-4.44-5.68m40 51.2 4.45 5.7m-41.68-46.81-6.06-7.48m39.38 48.63 6.06 7.48m-45.56-43.44-6.32-7.27m41.05 47.22 6.32 7.27M91.1 101.14l-4.83-5.37m43.48 48.3 4.83 5.36m-48.12-47.3-3.28-3.52m45.95 49.28 3.28 3.52M81.8 103.23l-1.68-1.73m48.49 50.2 1.67 1.74m-54.36-44.32-1.74-1.68m50.21 48.49 1.73 1.67m-51.3-43.83-3.53-3.28m49.29 45.96 3.52 3.28m-50.28-41.31-5.37-4.83m48.3 43.48 5.36 4.83m-49.17-38.85-7.27-6.32m47.23 41.06 7.26 6.31m-52.41-34.87-7.48-6.06m48.63 39.38 7.48 6.06M63.35 130.9l-5.69-4.45m51.2 40.01 5.7 4.45m-55.61-38.23-3.85-2.9m53.82 40.56 3.84 2.9m-58.21-38.66-1.94-1.42m56.46 41.03 1.95 1.41m-61.24-34.2-2-1.36m57.87 39.03 2 1.35M49.5 146.17l-4.04-2.62m56.52 36.7 4.04 2.62m-56.69-31.96-6.12-3.82m55.1 34.43 6.13 3.83m-55.17-29.72-8.25-4.96m53.63 32.23 8.25 4.96m-57.67-25.25-8.41-4.66m54.72 30.33 8.42 4.67m-58.77-27.92-6.38-3.4m57.37 30.51 6.38 3.4m-61.4-27.99-4.29-2.19m60.04 30.6 4.3 2.18m-64.05-27.96L31 169.12m62.73 30.6 2.16 1.05m-66.25-23.06-2.2-.98m63.76 28.4 2.2.97m-63.2-23.63-4.43-1.88m62.03 26.33 4.43 1.88m-61.37-21.62-6.7-2.71m60.25 24.34 6.7 2.7m-59.5-19.68-8.99-3.45m58.42 22.42 9 3.45M28.85 199.4l-9.1-3.13m59.16 20.37 9.1 3.14m-62.72-17.29-6.87-2.24m61.8 20.09 6.87 2.23m-65.33-16.9-4.6-1.41m64.44 19.7 4.6 1.4m-67.92-16.41-2.32-.66m67.1 19.24 2.3.66m-69.24-11.21-2.33-.58m67.71 16.9 2.33.58M17.5 221.57l-4.7-1.09m65.67 15.16 4.69 1.09m-64.2-10.64-7.06-1.5m63.56 13.5 7.06 1.5m-62.01-9.05-9.45-1.84m61.42 11.94 9.45 1.84m-62.82-4-9.5-1.5m61.8 9.79 9.5 1.5m-64.78-6.13-7.15-1.01m64.35 9.05 7.15 1m-67.27-5.3-4.78-.58m66.89 8.2 4.77.6m-69.74-4.38-2.4-.25m69.42 7.3 2.4.25"/><g fill="#7F7FA6"><use xlink:href="#g" x="454.7" y="267.4"/><use xlink:href="#h" x="453.23" y="284.18"/><use xlink:href="#i" x="451.76" y="300.97"/></g><use xlink:href="#j" x="448.96" y="300.72" fill="#7F7FA6"/><g fill="#7F7FA6"><use xlink:href="#k" x="430.67" y="246.74"/><use xlink:href="#l" x="431.7" y="258.49"/></g><g fill="#7F7FA6"><use xlink:href="#m" x="423.04" y="215.33"/><use xlink:href="#n" x="426.1" y="226.72"/></g><g fill="#7F7FA6"><use xlink:href="#o" x="410.08" y="185.71"/><use xlink:href="#p" x="415.06" y="196.4"/></g><g fill="#7F7FA6"><use xlink:href="#q" x="392.16" y="158.8"/><use xlink:href="#r" x="398.93" y="168.46"/></g><g fill="#7F7FA6"><use xlink:href="#s" x="369.85" y="135.4"/><use xlink:href="#t" x="378.19" y="143.74"/></g><g fill="#7F7FA6"><use xlink:href="#u" x="343.81" y="116.24"/><use xlink:href="#v" x="353.47" y="123"/></g><g fill="#7F7FA6"><use xlink:href="#w" x="314.84" y="101.89"/><use xlink:href="#x" x="325.53" y="106.87"/></g><g fill="#7F7FA6"><use xlink:href="#y" x="283.82" y="92.78"/><use xlink:href="#z" x="295.21" y="95.83"/></g><g fill="#7F7FA6"><use xlink:href="#A" x="278.92" y="68.75"/><use xlink:href="#B" x="293.57" y="72.68"/><use xlink:href="#B" x="308.22" y="76.6"/></g><g fill="#7F7FA6"><use xlink:href="#C" x="314.19" y="77.37"/><use xlink:href="#C" x="327.94" y="83.78"/><use xlink:href="#D" x="341.68" y="90.19"/></g><g fill="#7F7FA6"><use xlink:href="#E" x="347.43" y="91.98"/><use xlink:href="#F" x="359.85" y="100.68"/><use xlink:href="#G" x="372.27" y="109.38"/></g><g fill="#7F7FA6"><use xlink:href="#H" x="377.62" y="112.14"/><use xlink:href="#I" x="388.35" y="122.87"/><use xlink:href="#J" x="399.07" y="133.59"/></g><g fill="#7F7FA6"><use xlink:href="#K" x="403.85" y="137.24"/><use xlink:href="#L" x="412.55" y="149.66"/><use xlink:href="#M" x="421.25" y="162.08"/></g><g fill="#7F7FA6"><use xlink:href="#N" x="425.33" y="166.51"/><use xlink:href="#O" x="431.74" y="180.26"/><use xlink:href="#P" x="438.15" y="194"/></g><g fill="#7F7FA6"><use xlink:href="#Q" x="441.4" y="199.07"/><use xlink:href="#R" x="445.33" y="213.71"/><use xlink:href="#S" x="449.25" y="228.36"/></g><g fill="#7F7FA6"><use xlink:href="#T" x="451.58" y="233.92"/><use xlink:href="#U" x="452.9" y="249.03"/><use xlink:href="#V" x="454.22" y="264.13"/></g><g fill="#7F7FA6"><use xlink:href="#W" x="247.43" y="79.95"/><use xlink:href="#X" x="264.21" y="81.42"/></g><path fill="none" stroke="#7F7FA6" stroke-miterlimit="10" stroke-width="1.2" d="m266.6 54.05 1.68-19.18m-4.61 52.75-1.68 19.18"/><g fill="#7F7FA6"><use xlink:href="#Y" x="213.55" y="91.77"/><use xlink:href="#Z" x="225.3" y="90.75"/><use xlink:href="#Z" x="237.05" y="89.72"/></g><g fill="#7F7FA6"><use xlink:href="#aa" x="182.31" y="100.41"/><use xlink:href="#aa" x="193.7" y="97.36"/><use xlink:href="#ab" x="205.1" y="94.31"/></g><g fill="#7F7FA6"><use xlink:href="#ac" x="153.05" y="114.35"/><use xlink:href="#ad" x="163.74" y="109.36"/><use xlink:href="#ae" x="174.43" y="104.38"/></g><g fill="#7F7FA6"><use xlink:href="#af" x="126.65" y="133.15"/><use xlink:href="#ag" x="136.31" y="126.39"/><use xlink:href="#ah" x="145.97" y="119.62"/></g><g fill="#7F7FA6"><use xlink:href="#ai" x="103.92" y="156.25"/><use xlink:href="#aj" x="112.26" y="147.91"/><use xlink:href="#ak" x="120.6" y="139.57"/></g><g fill="#7F7FA6"><use xlink:href="#al" x="85.54" y="182.95"/><use xlink:href="#am" x="92.3" y="173.29"/><use xlink:href="#an" x="99.07" y="163.63"/></g><g fill="#7F7FA6"><use xlink:href="#ao" x="72.08" y="212.43"/><use xlink:href="#ap" x="77.06" y="201.74"/><use xlink:href="#aq" x="82.05" y="191.05"/></g><g fill="#7F7FA6"><use xlink:href="#ar" x="63.94" y="243.81"/><use xlink:href="#as" x="66.99" y="232.41"/><use xlink:href="#at" x="70.04" y="221.02"/></g><g fill="#7F7FA6"><use xlink:href="#au" x="43.4" y="235.69"/><use xlink:href="#av" x="47.32" y="221.04"/></g><g fill="#7F7FA6"><use xlink:href="#aw" x="53.26" y="200.87"/><use xlink:href="#ax" x="59.67" y="187.13"/></g><g fill="#7F7FA6"><use xlink:href="#ay" x="69.01" y="168.29"/><use xlink:href="#az" x="77.71" y="155.87"/></g><g fill="#7F7FA6"><use xlink:href="#aA" x="90.19" y="138.95"/><use xlink:href="#aB" x="100.91" y="128.23"/></g><g fill="#7F7FA6"><use xlink:href="#aC" x="116.13" y="113.73"/><use xlink:href="#aD" x="128.56" y="105.03"/></g><g fill="#7F7FA6"><use xlink:href="#aE" x="146.07" y="93.39"/><use xlink:href="#aF" x="159.81" y="86.98"/></g><g fill="#7F7FA6"><use xlink:href="#aG" x="179.07" y="78.57"/><use xlink:href="#aH" x="193.72" y="74.64"/></g><g fill="#7F7FA6"><use xlink:href="#aI" x="214.16" y="69.69"/><use xlink:href="#aJ" x="229.26" y="68.37"/></g><use xlink:href="#j" x="41.38" y="265.06" fill="#7F7FA6"/><g fill="#7F7FA6"><use xlink:href="#aK" x="63.89" y="283.95"/><use xlink:href="#aL" x="65.36" y="267.16"/><use xlink:href="#j" x="66.83" y="250.38"/></g></svg>