<svg xmlns="http://www.w3.org/2000/svg" width="115.003pt" height="129.781pt" viewBox="0 0 115.003 129.781"><defs><clipPath id="a"><path d="M0 .44922h114.01563v128.66406H0Zm0 0"/></clipPath><clipPath id="b"><path d="M0 .44922h114.01563v128.66406H0Zm0 0"/></clipPath></defs><path fill="#66B2B2" stroke="#000" stroke-miterlimit="10" stroke-width=".39507" d="m52.22266 48.83985 13.6914-3.16016 5.9375-12.73437c-7.03125-3.28125-15.39062-.23828-18.67187 6.79687-1.32422 2.83985-1.66016 6.04297-.95703 9.09766Zm0 0"/><g fill="none" stroke="#000" stroke-miterlimit="10" stroke-width=".3985" clip-path="url(#a)"><path stroke-width=".39507" d="m-618.65613 203.72654 1382.8357-319.25385m-995.18733 797.9608L368.77729-603.80848"/></g><path fill="#66B2B2" stroke="#000" stroke-miterlimit="10" stroke-width=".39507" d="m42.16016 96.62109 5.9375-12.73437-13.6914 3.16015c.97265 4.21094 3.83593 7.7461 7.7539 9.57422Zm0 0"/><g fill="none" stroke="#000" stroke-miterlimit="10" stroke-width=".3985" clip-path="url(#b)"><path stroke-width=".39507" d="M-636.47254 241.92966 746.36316-77.3203m-995.18733 797.9569L350.9609-565.60145"/></g></svg>