<svg xmlns="http://www.w3.org/2000/svg" xmlns:xlink="http://www.w3.org/1999/xlink" width="48.51pt" height="38.227pt" viewBox="0 0 48.51 38.227"><defs><path id="c" d="m.125-1.15625.07813.14063h1.51562v.57812c0 .17188-.0625.20313-.17187.21875l-.375.03125V0h1.625v-.1875l-.28125-.03125C2.40625-.23437 2.375-.26562 2.375-.4375v-.57812h.5625v-.32813H2.375v-2.5h-.54687C1.25-3 .64063-2.04687.125-1.15625m.5-.1875c.3125-.57812.6875-1.20312 1.09375-1.85937v1.85937Zm0 0"/><path id="d" d="M.21875-1.0625c0 .70313.51563 1.125 1.35938 1.125.85937 0 1.35937-.42187 1.35937-1.125 0-.5625-.34375-.89062-.76562-1.01562.34375-.07813.625-.375.625-.82813 0-.64062-.5-1-1.21875-1-.73438 0-1.23438.375-1.23438 1 0 .45313.29688.75.64063.82813-.42188.125-.76563.45312-.76563 1.01562m.71875.01563c0-.5.21875-.875.64063-.875.40625 0 .625.375.625.875 0 .51562-.20313.89062-.625.89062-.42188 0-.64063-.375-.64063-.89062m.09375-1.875c0-.4375.20313-.75.54688-.75.35937 0 .53125.3125.53125.75 0 .40625-.17188.76562-.53125.76562-.35938 0-.54688-.35937-.54688-.76562m0 0"/><path id="e" d="M.21875-3.10937c0 .42187.35938.78125.78125.78125s.79688-.35938.79688-.78125-.375-.79688-.79688-.79688c-.42187 0-.78125.375-.78125.79688m.3125 0C.53125-3.40625.75-3.625 1-3.625s.48438.21875.48438.51563c0 .29687-.23438.51562-.48438.51562S.53125-2.8125.53125-3.10937m0 0"/><path id="f" d="M.14063-3.34375c0 .25.3125.39063.5.39063.17187 0 .26562-.0625.29687-.21875.125-.46875.23438-.625.39063-.625.14062 0 .23437.1875.23437.4375 0 .32812-.17187.60937-.54687.84375-.40625.25-.48438.45312-.48438.625 0 .40625.375.59375.78125.59375.34375 0 .64063-.10938.875-.26563l-.0625-.15625c-.0625.01563-.15625.03125-.28125.03125-.21875 0-.34375-.14062-.34375-.29687 0-.17188.125-.375.42188-.51563.23437-.125.59375-.29687.59375-.71875 0-.5625-.5-.84375-1.17188-.84375-.8125 0-1.20312.4375-1.20312.71875m.64062 2.875c0 .32813.21875.53125.53125.53125.32813 0 .53125-.20312.53125-.53125C1.84375-.78125 1.64063-1 1.3125-1 1-1 .78125-.78125.78125-.46875m0 0"/><clipPath id="a"><path d="M5 0h39v37.46875H5Zm0 0"/></clipPath><clipPath id="b"><path d="M.24219 10h47.54687v17H.2422Zm0 0"/></clipPath></defs><path fill="#FFB266" d="m24.85938 18.73438-8.1211-11.26954c-3.22265 2.32422-5.30078 5.91797-5.69922 9.8711Zm0 0"/><path fill="none" stroke="#000" stroke-miterlimit="10" stroke-width=".3906" d="M16.73828 7.46485c-3.22265 2.32422-5.30077 5.91797-5.69921 9.87109"/><path fill="#FFB266" d="m24.85938 18.73438 8.12109 11.26953c3.22266-2.32032 5.30078-5.91797 5.69922-9.8711Zm0 0"/><path fill="none" stroke="#000" stroke-miterlimit="10" stroke-width=".3906" d="M32.98046 30.0039c3.22266-2.32031 5.30078-5.91796 5.69922-9.87109"/><g clip-path="url(#a)"><path fill="none" stroke="#000" stroke-miterlimit="10" stroke-width=".3906" d="m11.5.19532 26.71484 37.0781"/></g><g clip-path="url(#b)"><path fill="none" stroke="#000" stroke-miterlimit="10" stroke-width=".3906" d="m2.12501 16.4375 45.46873 4.59375"/></g><use xlink:href="#c" x="4.30933" y="11.53279"/><use xlink:href="#d" x="7.45249" y="11.53279"/><use xlink:href="#e" x="10.59473" y="11.53279"/><use xlink:href="#f" x="39.7585" y="29.60828"/></svg>