<svg xmlns="http://www.w3.org/2000/svg" xmlns:xlink="http://www.w3.org/1999/xlink" width="103.601pt" height="159.361pt" viewBox="0 0 103.601 159.361"><defs><clipPath id="a"><path d="M.00781 0h103.1875v158.72266H.00781Zm0 0"/></clipPath><clipPath id="b"><path d="M19 0h68v158.72266H19Zm0 0"/></clipPath><clipPath id="c"><path d="M.00781 0h103.1875v158.72266H.00781Zm0 0"/></clipPath><clipPath id="d"><path d="M17 0h68v158.72266H17Zm0 0"/></clipPath><path id="e" d="M.625-.95312 2.5-3.84375 2.25-4l-.54687.6875c-.15626.17188-.28126.23438-.625.01563l-5.1875-3.375-.0625.03125-.875 2 .21875.14062.64062-.75c.10938-.14062.20313-.15625.45313 0L.53125-2.46875c.17188.10938.28125.1875.3125.29688.01563.09375-.01562.17187-.0625.28125L.375-1.10937Zm0 0"/><path id="f" d="M-1.35937-1.39062c.89062.57812 2.0625.54687 2.98437-.875.92188-1.42188.46875-2.48438-.42187-3.0625-.90625-.59375-1.79688-.35938-2.32813.15625l-.01562-.01563c.20312-.64062.03124-1.34375-.6875-1.8125-.95313-.625-1.96875-.21875-2.625.79688-.65625 1-.625 2.10937.32812 2.73437.71875.46875 1.46875.29688 1.95313-.125l.01562.01563c-.25.6875-.10937 1.59375.79688 2.1875m.59375-.875c-.79688-.53125-1.14063-1.29688-.6875-2C-1-4.96875-.15626-4.96875.64063-4.4375c.78125.5 1.14062 1.23438.67187 1.96875-.48437.75-1.29687.70313-2.07812.20313m-2.8125-2.07813c-.67188-.4375-.96875-1.07812-.57813-1.67187.375-.59375 1.09375-.59375 1.76563-.15625.59375.39062 1.01562 1.0625.60937 1.70312-.42187.64063-1.20312.51563-1.79687.125m0 0"/><path id="g" d="M-4.53125-3.42187c.65625.4375 1.54688.23437 1.98438-.42188.42187-.65625.23437-1.5625-.42188-2-.65625-.42187-1.57812-.21875-2 .4375-.4375.65625-.21875 1.5625.4375 1.98438m.3125-.48438c-.46875-.29687-.59375-.85937-.34375-1.23437s.8125-.51563 1.28125-.21875c.4375.29687.5625.875.3125 1.25s-.8125.5-1.25.20312m0 0"/></defs><path fill="#D9668C" stroke="#000" stroke-miterlimit="10" stroke-width=".39691" d="m38.16016 62.51563 14.27343-6.96094.5547-15.87109C44.22265 39.37501 36.86718 46.23438 36.5625 55c-.08984 2.59766.45704 5.1797 1.59766 7.51563Zm0 0"/><g clip-path="url(#a)"><path fill="none" stroke="#000" stroke-miterlimit="10" stroke-width=".39691" d="M-661.27326 403.65226 780.41388-299.5038"/></g><g clip-path="url(#b)"><path fill="none" stroke="#000" stroke-miterlimit="10" stroke-width=".39691" d="M24.72266 849.14043 80.69921-753.90213"/></g><path fill="#F66" stroke="#000" stroke-miterlimit="10" stroke-width=".39691" d="m50.21484 119.04296.5547-15.875-14.27344 6.96484c2.57422 5.27735 7.85156 8.70313 13.71874 8.91016Zm0 0"/><g clip-path="url(#c)"><path fill="none" stroke="#000" stroke-miterlimit="10" stroke-width=".39691" d="M-662.93341 451.26553 778.74982-251.89054"/></g><g clip-path="url(#d)"><path fill="none" stroke="#000" stroke-miterlimit="10" stroke-width=".39691" d="M23.0586 896.7537 79.03906-706.28887"/></g><use xlink:href="#e" x="29.85251" y="53.02339"/><use xlink:href="#e" x="32.88034" y="48.36101"/><use xlink:href="#f" x="35.90817" y="43.69863"/><use xlink:href="#g" x="38.93599" y="39.03625"/></svg>