<svg xmlns="http://www.w3.org/2000/svg" xmlns:xlink="http://www.w3.org/1999/xlink" width="74.844pt" height="51.51pt" viewBox="0 0 74.844 51.51"><defs><path id="a" d="m1.67188-1.26562.48437.48437 2.01563-2.01562L6.20313-.78125l.46875-.48437-2.01563-2 2.01563-2.03125-.46875-.46875L4.17188-3.75 2.15625-5.76562l-.48437.46875 2.03125 2.03125Zm0 0"/><path id="b" d="M-.21875 0h2.60938l.07812-.32812-.64062-.0625c-.15626-.01563-.21876-.09375-.21876-.20313 0-.0625.03126-.14062.0625-.23437.39063-.73438.76563-1.5 1.1875-2.26563h2.60938L5.75-.70312s-.0625.28124-.3125.3125l-.60937.0625L4.76563 0h2.84375l.07812-.32812L7.25-.375c-.35937-.03125-.40625-.1875-.46875-.67187l-.85937-6.96875h-.82813L3.14063-4.60937C2.5625-3.5625 1.59375-1.84375 1.15625-1.14062.79688-.54687.59375-.42187.23438-.375l-.375.04688Zm3.3125-3.54687 1.89063-3.40625.42187 3.40625Zm0 0"/><path id="c" d="M0 0h3.51563c2.79687 0 3.375-1.4375 3.375-2.40625 0-1.21875-.90625-1.75-1.75-1.90625v-.03125c1.54687-.1875 2.20312-1.0625 2.20312-1.9375 0-.9375-.5625-1.73437-2.6875-1.73437h-2.9375l-.07812.32812.6875.0625c.20312.01563.28125.09375.28125.28125q0 .1172-.04688.28125L1.20313-.96875C1.10937-.57812 1-.4375.71875-.40625L.0625-.32812Zm2.32813-.89062c0-.07813 0-.17188.03125-.25L3.03125-4.125h.45313c1.14062 0 2.15625.32813 2.15625 1.65625 0 1.03125-.625 2.0625-2.1875 2.0625-.90625 0-1.125-.1875-1.125-.48437m.78125-3.64063.60937-2.6875c.07813-.34375.14063-.40625.92188-.40625.96875 0 1.51562.48438 1.51562 1.3125 0 1.20313-1.01562 1.78125-2.29687 1.78125Zm0 0"/><path id="d" d="M.60938-3.1875c0 1.53125.75 3.35938 3.625 3.35938.82812 0 1.60937-.10938 2.35937-.48438l.5625-1.84375H6.8125C6.17188-1 5.59375-.23437 4.15625-.23437c-1.34375 0-2.3125-.85938-2.3125-2.65625 0-1.04688.28125-2.32813.82813-3.25.59375-.98438 1.5-1.65625 2.75-1.65625 1.46875 0 1.89062.67187 1.89062 1.95312h.35938l.40625-1.75c-.65625-.42187-1.75-.60937-2.5625-.60937-2.1875 0-3.4375 1.01562-4.125 2.10937C.75-5.0625.60938-3.98437.60938-3.1875m0 0"/><clipPath id="e"><path d="M.27344 1H39v40H.27344Zm0 0"/></clipPath><clipPath id="f"><path d="M27 21h47.41406v20H27Zm0 0"/></clipPath></defs><path fill="#66CEF5" d="m32.73828 34.53516 17.28125-3.04688c-1.6836-9.54297-10.78516-15.91797-20.32812-14.23437-4.0625.71484-7.7461 2.83984-10.39844 6Zm0 0"/><path fill="none" stroke="#000" stroke-miterlimit="10" stroke-width=".39475" d="M50.01953 31.48828c-1.6836-9.54297-10.78515-15.91797-20.32812-14.23438-4.0625.71485-7.7461 2.83985-10.39844 6"/><use xlink:href="#a" x="28.56723" y="37.41706"/><use xlink:href="#b" x="28.75841" y="46.91273"/><use xlink:href="#a" x="7.05785" y="19.36776"/><use xlink:href="#c" x="15.58572" y="12.12961"/><use xlink:href="#a" x="56.22018" y="32.54144"/><use xlink:href="#d" x="56.47971" y="25.12995"/><g clip-path="url(#e)"><path fill="none" stroke="#000" stroke-miterlimit="10" stroke-width=".39475" d="M32.73828 34.53516.47265 7.46093"/></g><g clip-path="url(#f)"><path fill="none" stroke="#000" stroke-miterlimit="10" stroke-width=".39475" d="m32.73828 34.53516 41.48047-7.3125"/></g></svg>