<svg xmlns="http://www.w3.org/2000/svg" xmlns:xlink="http://www.w3.org/1999/xlink" width="100.947pt" height="55.416pt" viewBox="0 0 100.947 55.416"><defs><path id="d" d="M1-3.26562c0 2.60937.59375 5.48437 3.04688 5.57812v-.34375c-.82813-.15625-2.125-1.1875-2.125-5.23437 0-4.03125 1.23437-5.0625 2.125-5.23438v-.35937C1.59375-8.75 1-5.875 1-3.26562m0 0"/><path id="e" d="M.85938-1.39062c0 .75.21874 1.53125 1.15625 1.53125 1.34375 0 2.375-1.42188 3.04687-2.67188h.03125l-.39062 1.39063q-.09375.35156-.09375.60937c0 .4375.20312.67188.60937.67188.90625 0 1.51563-.79688 1.90625-1.67188l-.26562-.15625C6.64063-1.28125 6.125-.46875 5.8125-.46875c-.14062 0-.1875-.09375-.1875-.21875 0-.10937.03125-.25.07813-.40625l1.8125-7.45312-.0625-.04688-2.04688.26563-.0625.28125.6875.0625c.1875.01562.25.0625.25.1875 0 .0625 0 .17187-.04687.28125l-.4375 1.875-.03125.01562c-.21875-.10937-.57813-.1875-.96875-.1875-2.70313 0-3.9375 3.01563-3.9375 4.42188m1.15625.09374c0-1.25 1-4.10937 2.85937-4.10937.35938 0 .65625.10938.79688.23438-.17188.875-.5625 1.98437-1.14063 2.9375-.5625.90625-1.32812 1.76562-1.9375 1.76562-.375 0-.57812-.3125-.57812-.82812m0 0"/><path id="g" d="M.6875 1.96875v.34375c2.45313-.09375 3.04688-2.96875 3.04688-5.57812S3.14063-8.75.6875-8.85937V-8.5c.89063.17188 2.125 1.20313 2.125 5.23438 0 4.04687-1.29687 5.07812-2.125 5.23437m0 0"/><path id="f" d="M.875 0h2.71875v-.25l-.64062-.0625c-.1875-.01562-.26563-.07812-.26563-.375v-4.78125l-.0625-.04687-1.73437.29687V-5l.70312.09375c.15625.03125.20313.07813.20313.32813V-.6875c0 .29688-.07813.35938-.26563.375L.875-.25Zm0 0"/><path id="h" d="M.23438-.09375.32813 0h3.4375l.28125-1.15625-.23438-.04687c-.1875.4375-.34375.5-.67187.5h-2.0625c.125-.39063.5625-.9375 1.34375-1.46875.82812-.54688 1.40625-.92188 1.40625-1.8125 0-1.125-.76563-1.53125-1.65625-1.53125C1.0625-5.51562.4375-4.875.4375-4.375c0 .28125.32813.42188.5.42188.15625 0 .23438-.07813.26563-.23438.14062-.57812.4375-1.01562.90625-1.01562.57812 0 .75.48437.75 1.07812 0 .78125-.34375 1.29688-1.10938 1.95313C.71875-1.28125.35938-.70312.23438-.09375m0 0"/><clipPath id="a"><path d="M29 9h71.39453v2H29Zm0 0"/></clipPath><clipPath id="b"><path d="M24 30h76.39453v21H24Zm0 0"/></clipPath><clipPath id="c"><path d="M35 0h61v54.83984H35Zm0 0"/></clipPath></defs><path fill="#F66" d="M82.66797 9.88672H68.64063c0 3.5625 1.35546 6.99219 3.79296 9.59375Zm0 0"/><path fill="none" stroke="#000" stroke-miterlimit="10" stroke-width=".39434" d="M68.64062 9.88673c0 3.5625 1.35547 6.99218 3.79297 9.59374"/><path fill="#F66" d="m47.60156 42.75781 13.91797-1.73828c-.36719-2.9414-1.66016-5.6914-3.6875-7.85156Zm0 0"/><path fill="none" stroke="#000" stroke-miterlimit="10" stroke-width=".39434" d="M61.51953 41.01952c-.36718-2.9414-1.66015-5.6914-3.6875-7.85155"/><g clip-path="url(#a)"><path fill="none" stroke="#000" stroke-miterlimit="10" stroke-width=".39434" d="M30.07033 9.88673h70.12887"/></g><g clip-path="url(#b)"><path fill="none" stroke="#000" stroke-miterlimit="10" stroke-width=".39434" d="m30.07033 44.94921 70.12887-8.76562"/></g><g clip-path="url(#c)"><path fill="none" stroke="#000" stroke-miterlimit="10" stroke-width=".39434" d="m40.58985 49.33202 49.08983-46.0195"/></g><use xlink:href="#d" x="4.60785" y="12.95646"/><use xlink:href="#e" x="9.34005" y="12.95646"/><use xlink:href="#f" x="15.87041" y="15.66665"/><use xlink:href="#g" x="20.98402" y="12.95646"/><use xlink:href="#d" x="4.60785" y="48.01994"/><use xlink:href="#e" x="9.34005" y="48.01994"/><use xlink:href="#h" x="15.87041" y="50.73013"/><use xlink:href="#g" x="20.98402" y="48.01994"/></svg>