<svg xmlns="http://www.w3.org/2000/svg" xmlns:xlink="http://www.w3.org/1999/xlink" width="59.858pt" height="92.074pt" viewBox="0 0 59.858 92.074"><defs><clipPath id="a"><path d="M.22656 0h59.26172v91.15625H.22656Zm0 0"/></clipPath><clipPath id="b"><path d="M8 0h45v91.15625H8Zm0 0"/></clipPath><clipPath id="c"><path d="M.22656 0h59.26172v91.15625H.22656Zm0 0"/></clipPath><clipPath id="d"><path d="M7 0h45v91.15625H7Zm0 0"/></clipPath><path id="e" d="M.65625 0h1.98438v-.17187L2.125-.21875C2-.23437 1.92188-.28125 1.92188-.51562V-4.0625l-.03126-.03125L.65626-3.875v.14063l.5625.0625c.09375.01562.14063.0625.14063.23437v2.92188c0 .125-.01563.1875-.04688.23437-.03125.04688-.09375.0625-.15625.0625l-.5.04688Zm0 0"/><path id="f" d="M.25-1.09375C.25-.48437.625.07813 1.59375.07813S2.9375-.48437 2.9375-1.09375c0-.60937-.375-.96875-.79687-1.0625v-.01562c.375-.09375.67187-.40625.67187-.89063 0-.65625-.53125-1.03125-1.21875-1.03125S.39063-3.71875.39063-3.0625c0 .48438.29687.79688.65625.89063v.01562C.64063-2.0625.25-1.70312.25-1.09375m.60938.01563c0-.54688.25-.95313.73437-.95313.48438 0 .75.40625.75.95313 0 .53125-.25.9375-.75.9375s-.73437-.40625-.73437-.9375m.10937-2c0-.46875.21875-.79688.625-.79688s.625.32813.625.79688c0 .40625-.1875.82812-.625.82812s-.625-.42187-.625-.82812m0 0"/><path id="g" d="M.21875-3.26562c0 .45312.39063.82812.82813.82812.45312 0 .84375-.375.84375-.82812 0-.4375-.39063-.82813-.84375-.82813-.4375 0-.82813.39063-.82813.82813m.34375 0c0-.29688.21875-.54688.48438-.54688s.5.25.5.54688c0 .3125-.23438.54687-.5.54687-.26563 0-.48438-.23437-.48438-.54687m0 0"/></defs><path fill="#d9668c" stroke="#000" stroke-miterlimit="10" stroke-width=".39453" d="m22.13672 35.90234 8.19922-3.99609.32031-9.11719c-5.03516-.17578-9.25781 3.76563-9.4336 8.79688-.05468 1.49219.26172 2.97656.91407 4.3164Zm0 0"/><g clip-path="url(#a)"><path fill="none" stroke="#000" stroke-miterlimit="10" stroke-width=".39453" d="m-379.55468 231.82422 827.98046-403.83203"/></g><g clip-path="url(#b)"><path fill="none" stroke="#000" stroke-miterlimit="10" stroke-width=".39453" d="M14.42188 487.67187 46.5703-432.97656"/></g><path fill="#f66" stroke="#000" stroke-miterlimit="10" stroke-width=".39453" d="m29.0625 68.36719.32031-9.11719-8.19922 4c1.47657 3.03125 4.50782 5 7.87891 5.11719Zm0 0"/><g clip-path="url(#c)"><path fill="none" stroke="#000" stroke-miterlimit="10" stroke-width=".39453" d="m-380.5078 259.16797 827.97655-403.83203"/></g><g clip-path="url(#d)"><path fill="none" stroke="#000" stroke-miterlimit="10" stroke-width=".39453" d="M13.46484 515.01953 45.6172-405.6289"/></g><use xlink:href="#e" x="10.33407" y="26.61335"/><use xlink:href="#e" x="13.52687" y="26.61335"/><use xlink:href="#f" x="16.71966" y="26.61335"/><use xlink:href="#g" x="19.91246" y="26.61335"/></svg>