<svg xmlns="http://www.w3.org/2000/svg" xmlns:xlink="http://www.w3.org/1999/xlink" width="77.496pt" height="60.923pt" viewBox="0 0 77.496 60.923"><defs><path id="c" d="m.20313-1.875.125.23438h2.45312v.9375c0 .26562-.09375.32812-.28125.34375l-.60937.04687V0h2.625v-.3125l-.4375-.03125c-.1875-.03125-.23438-.09375-.23438-.35937v-.9375h.92188v-.53125h-.92188v-4.04688h-.89062c-.9375 1.375-1.92188 2.92188-2.75 4.34375m.8125-.29687c.5-.9375 1.10937-1.95313 1.76562-3.01563v3.01563Zm0 0"/><path id="d" d="M.34375-1.71875c0 1.14063.82813 1.82813 2.20313 1.82813C3.9375.10938 4.75-.57812 4.75-1.71875c0-.90625-.54687-1.45312-1.23437-1.64062C4.0625-3.5 4.53125-3.96875 4.53125-4.70312c0-1.04688-.79687-1.60938-1.98437-1.60938C1.375-6.3125.5625-5.73437.5625-4.70312c0 .73437.46875 1.20312 1.01563 1.34375C.90625-3.17187.34375-2.625.34375-1.71875m1.17188.03125c0-.8125.35937-1.42187 1.03125-1.42187.67187 0 1.03125.60937 1.03125 1.42187S3.25-.25 2.54688-.25c-.6875 0-1.03125-.625-1.03125-1.4375m.17187-3.04687c0-.70313.3125-1.21875.85938-1.21875.57812 0 .875.51562.875 1.21875 0 .65625-.28125 1.23437-.875 1.23437-.5625 0-.85938-.57812-.85938-1.23437m0 0"/><path id="e" d="M.34375-5.03125c0 .6875.59375 1.26563 1.28125 1.26563s1.28125-.57813 1.28125-1.26563c0-.70312-.59375-1.28125-1.28125-1.28125S.34375-5.73437.34375-5.03125m.51563 0c0-.48437.35937-.84375.76562-.84375s.76563.35938.76563.84375c0 .46875-.35938.82813-.76563.82813S.85938-4.5625.85938-5.03125m0 0"/><path id="f" d="M.23438-5.40625c0 .40625.48437.625.79687.625.29688 0 .4375-.10937.48438-.34375.20312-.76562.39062-1.01562.625-1.01562.25 0 .375.3125.375.70312 0 .51563-.26563 1-.85938 1.375-.67187.39063-.8125.73438-.8125 1 0 .67188.625.96875 1.29688.96875.53125 0 1.01562-.1875 1.39062-.45312l-.09375-.25c-.10937.03125-.25.0625-.4375.0625-.375 0-.57812-.21875-.57812-.48438 0-.28125.21875-.59375.6875-.82812.375-.20313.96875-.5.96875-1.15625 0-.92188-.8125-1.375-1.90625-1.375-1.3125 0-1.9375.70312-1.9375 1.17187M1.28125-.75c0 .51563.34375.85938.85938.85938C2.65625.10938 3-.23437 3-.75c0-.51562-.34375-.875-.85937-.875-.51563 0-.85938.35938-.85938.875m0 0"/><clipPath id="a"><path d="M12 .16016h56V60.6875H12Zm0 0"/></clipPath><clipPath id="b"><path d="M0 21h76.9961v19H0Zm0 0"/></clipPath></defs><path fill="#FFB266" d="M39.92578 30.42188 26.75781 12.14453c-5.23047 3.76563-8.59765 9.59766-9.2461 16.01172Zm0 0"/><path fill="none" stroke="#000" stroke-miterlimit="10" stroke-width=".39593" d="M26.75782 12.14454c-5.23047 3.76562-8.59765 9.59765-9.2461 16.01171"/><path fill="#FFB266" d="m39.92578 30.42188 13.17188 18.28124c5.23047-3.76953 8.59765-9.60156 9.24609-16.01562Zm0 0"/><path fill="none" stroke="#000" stroke-miterlimit="10" stroke-width=".39593" d="M53.09765 48.70312c5.23047-3.76953 8.59765-9.60156 9.24609-16.01562"/><g clip-path="url(#a)"><path fill="none" stroke="#000" stroke-miterlimit="10" stroke-width=".39593" d="m18.26563.35548 43.3242 60.1367"/></g><g clip-path="url(#b)"><path fill="none" stroke="#000" stroke-miterlimit="10" stroke-width=".39593" d="m3.05861 26.69532 73.73825 7.45312"/></g><use xlink:href="#c" x="6.59809" y="18.74271"/><use xlink:href="#d" x="11.6957" y="18.74271"/><use xlink:href="#e" x="16.79378" y="18.74271"/><use xlink:href="#f" x="64.09019" y="48.05806"/></svg>