<svg xmlns="http://www.w3.org/2000/svg" xmlns:xlink="http://www.w3.org/1999/xlink" width="144.237pt" height="78.215pt" viewBox="0 0 144.237 78.215"><defs><path id="a" d="m3.01563-2.26562.85937.875L7.5-5.03125l3.64063 3.64063.84375-.875-3.625-3.60938 3.625-3.64062-.84375-.84375L7.5-6.75l-3.625-3.60937-.85937.84375L6.65625-5.875Zm0 0"/><path id="b" d="M-.40625 0h4.70313l.14062-.59375-1.15625-.10937c-.26562-.03126-.375-.15626-.375-.35938 0-.10937.04688-.26562.10938-.42187.6875-1.32813 1.35937-2.6875 2.125-4.07813h4.6875l.51562 4.29688s-.10937.51562-.5625.5625l-1.10937.10937L8.5625 0h5.125l.14063-.59375-.79688-.07812c-.65625-.0625-.73437-.34375-.84375-1.21875l-1.53125-12.53125h-1.5l-3.5 6.14062c-1.0625 1.875-2.79687 4.96875-3.57812 6.21875C1.42188-.96875 1.0625-.75.42188-.6875l-.6875.09375ZM5.5625-6.375l3.40625-6.10937.75 6.10937Zm0 0"/><path id="c" d="M0 0h6.32813C11.35938 0 12.375-2.59375 12.375-4.32812c0-2.1875-1.60937-3.15625-3.14062-3.4375L9.25-7.8125c2.78125-.32812 3.95313-1.90625 3.95313-3.48437 0-1.6875-1-3.125-4.84375-3.125H3.07813l-.125.59375 1.23437.10937c.35938.03125.51563.1875.51563.51563 0 .14062-.04688.3125-.09375.51562L2.15625-1.73437c-.15625.6875-.35937.9375-.875 1L.10938-.59375Zm4.17188-1.59375c0-.15625.01562-.3125.0625-.46875L5.4375-7.40625H6.25c2.0625 0 3.89063.59375 3.89063 2.96875 0 1.85938-1.125 3.70313-3.92188 3.70313-1.64062 0-2.04687-.32813-2.04687-.85938m1.42187-6.54687 1.07813-4.84375c.15625-.60938.26562-.73438 1.67187-.73438 1.75 0 2.73438.89063 2.73438 2.35938 0 2.17187-1.82813 3.21875-4.14063 3.21875Zm0 0"/><path id="d" d="M1.09375-5.71875c0 2.75 1.34375 6.03125 6.51563 6.03125 1.48437 0 2.90625-.20312 4.23437-.85937L12.875-3.875h-.625C11.09375-1.79687 10.04688-.42187 7.48438-.42187c-2.42188 0-4.15625-1.54688-4.15625-4.76563 0-1.89062.48437-4.20312 1.48437-5.85937 1.04688-1.75 2.6875-2.96875 4.92188-2.96875 2.64062 0 3.40625 1.21875 3.40625 3.5h.64062l.75-3.125C13.32813-14.40625 11.375-14.75 9.92188-14.75c-3.9375 0-6.1875 1.84375-7.42188 3.79688-1.14062 1.85937-1.40625 3.78125-1.40625 5.23437m0 0"/><clipPath id="e"><path d="M.33984 42H78v35.4375H.33984Zm0 0"/></clipPath><clipPath id="f"><path d="M66 16h77.14453v38H66Zm0 0"/></clipPath></defs><path fill="#66B2B2" d="m71.74219 47.58203 29.66797-10.79687C95.4453 20.39844 77.32812 11.94922 60.9414 17.91406 44.55859 23.87891 36.10938 41.9961 42.0742 58.37891Zm0 0"/><path fill="none" stroke="#000" stroke-miterlimit="10" stroke-width=".39454" d="M101.41015 36.78516C95.4453 20.39845 77.32812 11.94923 60.9414 17.91407 44.5586 23.87891 36.10939 41.9961 42.07423 58.3789"/><use xlink:href="#a" x="64.23958" y="52.76443"/><use xlink:href="#b" x="64.58313" y="69.84897"/><use xlink:href="#a" x="16.77495" y="70.04104"/><use xlink:href="#c" x="17.45116" y="57.01774"/><use xlink:href="#a" x="111.7042" y="35.48882"/><use xlink:href="#d" x="112.17052" y="22.15564"/><g clip-path="url(#e)"><path fill="none" stroke="#000" stroke-miterlimit="10" stroke-width=".39454" d="M71.74219 47.58203.53518 73.5"/></g><g clip-path="url(#f)"><path fill="none" stroke="#000" stroke-miterlimit="10" stroke-width=".39454" d="m71.74219 47.58203 71.2031-25.91405"/></g></svg>