<svg xmlns="http://www.w3.org/2000/svg" xmlns:xlink="http://www.w3.org/1999/xlink" width="132.242" height="155.38" viewBox="0 0 132.242 155.38"><defs><path id="c" d="M.90625-.70312 3.60938-2.8125l-.1875-.23437-.73438.46875c-.20312.125-.34375.14062-.59375-.1875L-1.70312-7.625l-.09376-.01562-1.45312 1.625.15625.1875.82813-.5c.17187-.09375.26562-.0625.45312.17187l3.125 4c.125.15625.1875.28125.17188.39063.01562.09374-.04688.14062-.125.23437L.71875-.9375Zm0 0"/><path id="d" d="m.15625-.25.15625.01563 3.40625-2.67188-.5625-1.29687-.26562.125c.17187.57812.0625.76562-.26563 1.03125L.51563-1.40625c-.21876-.53125-.1875-1.5.14062-2.64062C1-5.23437 1.32813-6.09375.60938-7.01562c-.90625-1.15625-1.98438-.95313-2.84375-.28125-1.14063.89062-1.17188 2.03125-.84375 2.45312.21875.29688.64062.15625.79687.04688.14063-.10938.10938-.23438.04688-.40625-.3125-.65625-.32813-1.34375.17187-1.75.64063-.5 1.25-.125 1.71875.48437.6875.89063.625 1.75.40625 2.9375-.34375 1.6875-.25 2.51563.09375 3.28125m0 0"/><path id="e" d="M-3.17187-4.70312c.46875.60937 1.39062.71875 2 .23437.625-.48437.73437-1.40625.26562-2.01562-.48437-.60938-1.42187-.73438-2.04687-.25-.60938.48437-.70313 1.42187-.21875 2.03125m.45312-.35938c-.32812-.42187-.28125-1 .07813-1.28125.35937-.28125.95312-.21875 1.28125.20313.3125.42187.23437 1-.125 1.28125-.35938.28125-.92188.21875-1.23438-.20313m0 0"/><path id="f" d="M1.10938-.32812C.73438-.03125.625.98438 1.45313 2.0625c1.0625 1.35938 2.35937 1.34375 3.40625.51563C6.03125 1.67188 6.04688.48438 5.28125-.5c-.35937-.45312-.9375-.78125-1.375-.875l.01563-.01562 1.67187-1.01563c.21875-.14062.29688-.09375.42188.04688l1.59375 2.0625.73437-.23438.03125-.10937-2.14062-2.76563h-.14063L3.1875-1.42187l.07813.28124c.64062.03126 1.10937.20313 1.46875.67188.40625.53125.45312 1.40625-.625 2.26563-.84375.65625-1.75.8125-2.3125.07812-.45313-.57812-.28126-1.17187.0625-1.71875.09374-.14062.10937-.28125.01562-.39062-.125-.17188-.48437-.3125-.76562-.09375m0 0"/><path id="g" d="M1.76563-.82812C.9375-.17187.5625.92188 1.625 2.26563c1.03125 1.32812 2.1875 1.25 3.01563.59375C5.48438 2.20313 5.5625 1.28125 5.25.625l.03125-.01562c.51563.40625 1.25.46875 1.92188-.0625.89062-.6875.85937-1.79688.125-2.75-.75-.9375-1.82813-1.25-2.71875-.5625-.67188.53125-.76563 1.29687-.5 1.875L4.07813-.875c-.5625-.45312-1.46875-.60937-2.3125.04688m.625.84375c.75-.57813 1.59375-.67188 2.125-.01563.5.65625.21875 1.46875-.53125 2.04688-.73438.5625-1.53125.67187-2.0625-.01563-.5625-.70312-.26563-1.45312.46875-2.01562M5.25-1.96875c.625-.5 1.32813-.5625 1.78125 0 .42188.5625.1875 1.21875-.4375 1.71875-.5625.4375-1.32812.60938-1.78125.01563-.48437-.59375-.125-1.29688.4375-1.73438m0 0"/><path id="h" d="M4.70313-3.17187c-.60938.46875-.71875 1.39062-.23438 2 .48438.625 1.40625.73437 2.01563.26562.60937-.48437.73437-1.42187.25-2.04687C6.25-3.5625 5.3125-3.65625 4.70313-3.17187m.35937.45312c.42188-.32812 1-.28125 1.28125.07813.28125.35937.21875.95312-.20312 1.28125-.42188.3125-1 .23437-1.28125-.125-.28125-.35938-.21875-.92188.20312-1.23438m0 0"/><clipPath id="a"><path d="M0 .13281h131.48828v154.4961H0Zm0 0"/></clipPath><clipPath id="b"><path d="M0 .13281h131.48828v154.4961H0Zm0 0"/></clipPath></defs><path fill="#FFB266" stroke="#000" stroke-miterlimit="10" stroke-width=".39623" d="m60.92578 54.32421 15.66016-2.48047L82.77734 37.25c-8.05859-3.42188-17.36718.33984-20.78515 8.39844-1.16407 2.73438-1.53125 5.74219-1.06641 8.67578Zm0 0"/><g fill="none" stroke="#000" stroke-miterlimit="10" stroke-width=".3985" clip-path="url(#a)"><path stroke-width=".39623" d="M-706.36738 175.85159 875.19552-74.64457m-1108.34794 856.1799L392.51571-692.4455"/></g><path fill="#66CEF5" stroke="#000" stroke-miterlimit="10" stroke-width=".39623" d="m61.09765 88.32813-6.19531 14.59375 15.66016-2.48047c-.85547-5.39844-4.4336-9.97656-9.46485-12.11328Zm0 0"/><g fill="none" stroke="#000" stroke-miterlimit="10" stroke-width=".3985" clip-path="url(#b)"><path stroke-width=".39623" d="M-728.04707 226.92973 853.5119-23.56643m-1108.34401 856.1799L370.836-641.36737"/></g><use xlink:href="#c" x="56.13126" y="42.16264"/><use xlink:href="#d" x="60.50449" y="38.74586"/><use xlink:href="#d" x="64.87773" y="35.32909"/><use xlink:href="#e" x="69.25096" y="31.91231"/><use xlink:href="#f" x="66.34074" y="84.6163"/><use xlink:href="#g" x="69.75752" y="88.98953"/><use xlink:href="#h" x="73.17429" y="93.36277"/></svg>