<svg xmlns="http://www.w3.org/2000/svg" width="116.523" height="164.111" viewBox="0 0 116.523 164.111"><defs><clipPath id="a"><path d="M.07813 0h115.89453v163.22656H.07813Zm0 0"/></clipPath><clipPath id="b"><path d="M.07813 0h115.89453v163.22656H.07813Zm0 0"/></clipPath></defs><path fill="#66B2B2" stroke="#000" stroke-miterlimit="10" stroke-width=".39635" d="m47.0625 50.09375 15.2461 4.3711 3.29687-15.51172c-8.14844-1.73047-16.2461 3.13672-18.54297 11.14062Zm0 0"/><g fill="none" stroke="#000" stroke-miterlimit="10" stroke-width=".3985" clip-path="url(#a)"><path stroke-width=".39635" d="M-699.9335-164.10153 839.79287 277.40623m-942.35144 552.69133 333.0312-1566.77324"/></g><path fill="#66B2B2" stroke="#000" stroke-miterlimit="10" stroke-width=".39635" d="m36.51172 101.8086 14.25781 6.95311 3.29688-15.51562c-7.1211-1.51172-14.35938 2.01953-17.55469 8.5625Zm0 0"/><g fill="none" stroke="#000" stroke-miterlimit="10" stroke-width=".3985" clip-path="url(#b)"><path stroke-width=".39635" d="m-661.93741-238.85152 1439.66389 702.1757m-891.82411 421.06635 333.0273-1566.77325"/></g></svg>