<svg xmlns="http://www.w3.org/2000/svg" width="117.919pt" height="53.564pt" viewBox="0 0 117.919 53.564"><defs><clipPath id="a"><path d="M.4375 14h116.96484v25H.4375Zm0 0"/></clipPath><clipPath id="b"><path d="M.4375 0H117v53.13281H.4375Zm0 0"/></clipPath></defs><path fill="#FFB266" d="m58.91797 26.5664-22.33984-2.625c-.51172 4.3711.26953 8.79688 2.24609 12.73047Zm0 0"/><path fill="none" stroke="#000" stroke-miterlimit="10" stroke-width=".39528" d="M36.57812 23.9414c-.51172 4.3711.26953 8.79688 2.2461 12.73048"/><path fill="#FFB266" d="m58.91797 26.5664 22.33984 2.6211c.51172-4.3711-.26562-8.79687-2.2461-12.73047Zm0 0"/><path fill="none" stroke="#000" stroke-miterlimit="10" stroke-width=".39528" d="M81.25781 29.1875c.51172-4.3711-.26562-8.79688-2.24609-12.73047"/><g clip-path="url(#a)"><path fill="none" stroke="#000" stroke-miterlimit="10" stroke-width=".39528" d="m.6328 19.71875 116.57033 13.6914"/></g><g clip-path="url(#b)"><path fill="none" stroke="#000" stroke-miterlimit="10" stroke-width=".39528" d="M6.48828 52.9336 111.34766.1953"/></g></svg>