<svg xmlns="http://www.w3.org/2000/svg" width="67.324pt" height="94.819pt" viewBox="0 0 67.324 94.819"><defs><clipPath id="a"><path d="M0 .38281h66.65625v93.875H0Zm0 0"/></clipPath><clipPath id="b"><path d="M0 .38281h66.65625v93.875H0Zm0 0"/></clipPath></defs><path fill="#66b2b2" stroke="#000" stroke-miterlimit="10" stroke-width=".39454" d="m27.02344 29.1914 8.76953 2.51563 1.89453-8.92188c-4.6836-.9961-9.34375 1.80469-10.66406 6.40625Zm0 0"/><g fill="none" stroke="#000" stroke-miterlimit="10" stroke-width=".3985" clip-path="url(#a)"><path stroke-width=".39454" d="M-402.59383-93.99612 482.9454 159.9258M-59.02736 477.79305l191.5352-901.09391"/></g><path fill="#66b2b2" stroke="#000" stroke-miterlimit="10" stroke-width=".39454" d="m20.95703 58.9336 8.19922 4 1.89453-8.92188c-4.09766-.8711-8.25781 1.16016-10.09375 4.92188Zm0 0"/><g fill="none" stroke="#000" stroke-miterlimit="10" stroke-width=".3985" clip-path="url(#b)"><path stroke-width=".39454" d="M-380.74226-136.98831 447.25007 266.8516M-65.66408 509.01961l191.5352-901.0939"/></g></svg>