<svg xmlns="http://www.w3.org/2000/svg" width="74.751pt" height="84.357pt" viewBox="0 0 74.751 84.357"><defs><clipPath id="a"><path d="M.16016 0h74.18359v83.71875H.16015Zm0 0"/></clipPath><clipPath id="b"><path d="M.16016 0h74.18359v83.71875H.16015Zm0 0"/></clipPath></defs><path fill="#66b2b2" stroke="#000" stroke-miterlimit="10" stroke-width=".39548" d="m34.14063 31.48828 8.90624-2.05859 3.86328-8.28515c-4.57421-2.13281-10.01562-.15625-12.14843 4.42187-.86328 1.84766-1.08203 3.9336-.6211 5.92187Zm0 0"/><g fill="none" stroke="#000" stroke-miterlimit="10" stroke-width=".3985" clip-path="url(#a)"><path stroke-width=".39548" d="M-402.38268 132.2656 497.38658-75.4609m-647.53887 519.20687 390.2616-836.91772"/></g><path fill="#66b2b2" stroke="#000" stroke-miterlimit="10" stroke-width=".39548" d="m27.58985 62.57421 3.86718-8.28515-8.91015 2.0586c.63281 2.73827 2.4961 5.03905 5.04297 6.22655Zm0 0"/><g fill="none" stroke="#000" stroke-miterlimit="10" stroke-width=".3985" clip-path="url(#b)"><path stroke-width=".39548" d="m-413.97643 157.12497 899.76927-207.7265m-647.53497 519.20687 390.2616-836.91772"/></g></svg>