<svg xmlns="http://www.w3.org/2000/svg" width="76.112pt" height="83.15pt" viewBox="0 0 76.112 83.15"><defs><clipPath id="a"><path d="M0 .0586h75.23438V82.25H0Zm0 0"/></clipPath><clipPath id="b"><path d="M0 .0586h75.23438V82.25H0Zm0 0"/></clipPath></defs><path fill="#66B2B2" stroke="#000" stroke-miterlimit="10" stroke-width=".39391" d="m42.08985 33.8125 4.76953-7.34376-8 3.5586c.6875 1.54687 1.8125 2.86328 3.23047 3.78516Zm0 0"/><g fill="none" stroke="#000" stroke-miterlimit="10" stroke-width=".3985" clip-path="url(#a)"><path stroke-width=".39391" d="m-353.10175 204.54305 807.92226-359.71111M-191.58995 393.6486l481.6682-741.70347"/></g><path fill="#66B2B2" stroke="#000" stroke-miterlimit="10" stroke-width=".39391" d="m23.01562 63.18751 4.76953-7.34375-7.80469-3.97657c-2.03125 3.9922-.72266 8.87891 3.03516 11.32032Zm0 0"/><g fill="none" stroke="#000" stroke-miterlimit="10" stroke-width=".3985" clip-path="url(#b)"><path stroke-width=".39391" d="m-362.30878-142.92196 787.98865 401.50019m-636.34405 164.44148 481.6643-741.69957"/></g></svg>