<svg xmlns="http://www.w3.org/2000/svg" width="175.394" height="111.09" viewBox="0 0 175.394 111.09"><defs><clipPath id="a"><path d="M30 0h144.38281v110.1875H30Zm0 0"/></clipPath><clipPath id="b"><path d="M.41016 54H174.3828v2H.41016Zm0 0"/></clipPath><clipPath id="c"><path d="M.41016 0H174.3828v110.1875H.41016Zm0 0"/></clipPath><clipPath id="d"><path d="M.41016 54H174.3828v2H.41016Zm0 0"/></clipPath></defs><path fill="#66B2B2" stroke="#000" stroke-miterlimit="10" stroke-width=".39526" d="M103.21094 55.09375h15.8164L117.375 39.36328c-8.05078.84766-14.16406 7.63672-14.16406 15.73047Zm0 0"/><g clip-path="url(#a)"><path fill="none" stroke="#000" stroke-miterlimit="10" stroke-width=".39526" d="M36.36719-731.35156 203.33984 857.26563"/></g><g clip-path="url(#b)"><path fill="none" stroke="#000" stroke-miterlimit="10" stroke-width=".39526" d="M-671.75 55.09375H925.6211"/></g><path fill="#66B2B2" stroke="#000" stroke-miterlimit="10" stroke-width=".39526" d="M71.58203 55.09375h-15.8164l13.26562 8.61328c1.66406-2.5625 2.55078-5.5586 2.55078-8.61328Zm0 0"/><g clip-path="url(#c)"><path fill="none" stroke="#000" stroke-miterlimit="10" stroke-width=".39526" d="M-607.4336-375.59375 732.23048 494.39453"/></g><g clip-path="url(#d)"><path fill="none" stroke="#000" stroke-miterlimit="10" stroke-width=".39526" d="M-735.01172 55.09375H862.35547"/></g></svg>