<svg xmlns="http://www.w3.org/2000/svg" xmlns:xlink="http://www.w3.org/1999/xlink" width="339.69pt" height="245.08pt" viewBox="0 0 339.69 245.08"><defs><path id="a" d="m1.75-1.31.52.5 2.09-2.13L6.48-.8l.49-.5-2.11-2.11 2.1-2.11-.48-.5-2.12 2.1-2.1-2.1-.51.5 2.13 2.1Zm0 0"/><path id="b" d="M-.23 0H2.5l.08-.34-.67-.07q-.23-.02-.22-.22 0-.1.06-.23Q2.34-2.02 3-3.23h2.72l.3 2.5s-.07.3-.33.32l-.64.07-.07.34h2.99l.08-.34-.47-.05c-.38-.03-.42-.2-.5-.7l-.9-7.3h-.85L3.3-4.81c-.63 1.08-1.63 2.89-2.08 3.6-.4.65-.6.77-.97.8l-.4.07Zm3.46-3.7 1.99-3.57.44 3.57Zm0 0"/><path id="c" d="M0 0h3.67C6.61 0 7.2-1.52 7.2-2.52c0-1.28-.93-1.82-1.83-2v-.03c1.63-.18 2.3-1.1 2.3-2.01 0-.99-.58-1.83-2.81-1.83H1.8l-.08.34.72.08q.3 0 .3.3l-.05.3L1.25-1c-.1.4-.2.53-.5.58l-.69.08Zm2.42-.92q0-.15.05-.28l.69-3.11h.48c1.2 0 2.25.34 2.25 1.73 0 1.08-.66 2.16-2.28 2.16-.95 0-1.19-.2-1.19-.5m.83-3.81.64-2.82c.08-.36.16-.42.97-.42 1.01 0 1.58.52 1.58 1.36 0 1.27-1.07 1.88-2.4 1.88Zm0 0"/><path id="d" d="M.63-3.33c0 1.6.8 3.52 3.8 3.52.87 0 1.7-.13 2.46-.52l.6-1.94h-.37C6.46-1.05 5.85-.25 4.35-.25c-1.4 0-2.4-.9-2.4-2.77 0-1.09.28-2.43.86-3.4a3.3 3.3 0 0 1 2.87-1.74c1.53 0 1.97.7 1.97 2.04h.38l.43-1.82a5.6 5.6 0 0 0-2.68-.64 4.8 4.8 0 0 0-4.32 2.2 5.7 5.7 0 0 0-.82 3.05m0 0"/><path id="m" d="m-.12 1.45-.4 4.4.4.03.2-1.11c.05-.29.15-.44.69-.4l7.86.7L8.7 5l-.22-2.8-.32-.03-.27 1.22c-.05.23-.17.31-.55.28L.88 3.1q-.37 0-.5-.15-.13-.12-.11-.33V1.48Zm0 0"/><path id="n" d="M2.38.78C1.02.66-.29 1.36-.48 3.52S.5 6.6 1.84 6.73c1.38.11 2.24-.65 2.52-1.54h.03c.16.83.78 1.51 1.86 1.6 1.45.13 2.4-.91 2.52-2.46.14-1.52-.6-2.75-2.05-2.88a2 2 0 0 0-2.11 1.3h-.03A2.3 2.3 0 0 0 2.38.78M2.2 2.1c1.24.11 2.1.77 2 1.83S3.16 5.5 1.92 5.4C.77 5.3-.09 4.7 0 3.56.1 2.44 1.05 2 2.2 2.1m4.44.64c1.02.1 1.74.65 1.66 1.55s-.9 1.33-1.9 1.24c-.92-.08-1.8-.58-1.71-1.55s1.04-1.31 1.95-1.24m0 0"/><path id="o" d="M4.4.95C1.76.72-.26 1.33-.46 3.52c-.19 2.2 1.69 3.17 4.35 3.4 2.67.24 4.7-.39 4.89-2.6.2-2.18-1.7-3.13-4.36-3.37M4.29 2.3c2.17.18 4.13.72 4.02 1.98C8.19 5.55 6.17 5.75 4 5.56s-4.1-.73-4-2C.1 2.3 2.1 2.11 4.28 2.3m0 0"/><path id="p" d="M-4.4-.95C-1.76-.72.26-1.33.46-3.52c.19-2.2-1.69-3.17-4.34-3.4-2.68-.24-4.7.39-4.9 2.6-.2 2.18 1.7 3.13 4.36 3.37m.12-1.35c-2.17-.18-4.13-.72-4.02-1.98.11-1.27 2.13-1.47 4.3-1.28s4.1.73 4 2C-.1-2.3-2.1-2.11-4.28-2.3m0 0"/><path id="aQ" d="m.13-1.45.39-4.4-.4-.03-.2 1.11c-.04.29-.15.44-.69.4l-7.85-.7-.08.07.22 2.8.32.03.27-1.22c.05-.23.17-.31.55-.28l6.47.58q.36 0 .5.15.12.12.1.33v1.13Zm0 0"/><path id="aR" d="M-2.37-.78C-1.03-.66.27-1.36.46-3.52S-.5-6.6-1.84-6.73c-1.38-.11-2.24.65-2.52 1.54h-.03a1.95 1.95 0 0 0-1.86-1.6c-1.45-.13-2.4.92-2.52 2.46-.14 1.52.6 2.75 2.05 2.88 1.08.1 1.83-.52 2.11-1.3h.03c.13.9.83 1.86 2.2 1.97m.17-1.31c-1.24-.11-2.1-.77-2-1.83S-3.16-5.5-1.92-5.4C-.77-5.3.09-4.7 0-3.56-.1-2.44-1.05-2-2.2-2.1m-4.44-.64c-1.02-.1-1.74-.64-1.66-1.55.08-.9.9-1.33 1.9-1.24.92.08 1.8.58 1.71 1.55s-1.04 1.31-1.95 1.24m0 0"/><path id="q" d="m.1 1.02.26 3.07.27-.01v-.81c0-.2.06-.32.43-.35l5.5-.48.03-.06-.46-1.9L5.9.5l-.04.9c-.01.15-.07.2-.34.23l-4.55.4A1 1 0 0 1 .61 2Q.5 1.93.5 1.78L.36 1Zm0 0"/><path id="r" d="M3.16.1C1.3.29-.04.96.1 2.49.23 4.03 1.67 4.47 3.53 4.3c1.88-.16 3.16-.85 3.03-2.4C6.42.39 5.03-.04 3.16.1m.07.96c1.52-.12 2.94 0 3.02.88.08.89-1.3 1.28-2.81 1.4-1.52.14-2.92 0-3-.89-.08-.87 1.28-1.25 2.8-1.39m0 0"/><path id="s" d="M.16.2.09.33l1 3.76 1.27-.01-.02-.25c-.53-.08-.65-.25-.76-.61L.97.9c.51.01 1.31.39 2.16 1.06.85.7 1.43 1.26 2.45.98C6.84 2.62 7.05 1.67 6.8.72 6.45-.55 5.53-.97 5.06-.84c-.3.09-.36.47-.31.62s.17.19.31.19c.67-.02 1.25.22 1.4.78.2.69-.33 1.05-1 1.22-.98.26-1.65-.08-2.55-.69C1.63.42.89.2.16.2m0 0"/><path id="t" d="M3.13-.44C1.3.05.13.94.52 2.44c.4 1.48 1.88 1.67 3.69 1.19C6.03 3.14 7.2 2.23 6.8.75 6.4-.75 4.94-.92 3.13-.44m.25.92c1.46-.39 2.87-.5 3.1.36.24.86-1.04 1.47-2.51 1.86-1.49.4-2.88.5-3.11-.36S1.89.88 3.38.48m0 0"/><path id="u" d="M.97-.17C.63 0 .3.88.84 2.06c.58 1.24 1.57 1.7 2.64 1.2 1.15-.53 1.04-1.65.85-2.13l.04-.04c.3.44.96 1 1.8.61.94-.43 1.03-1.34.6-2.26-.52-1.13-1.43-1.38-1.79-1.2-.26.12-.28.48-.21.59.04.12.14.14.26.14.67-.1 1.19.06 1.42.53.32.67-.18 1.13-.67 1.34-.51.24-1.25.35-1.58-.37-.2-.4-.22-.67-.26-.77q-.09-.17-.31-.04-.24.08-.16.26c.05.1.22.3.42.7.33.72-.12 1.43-.86 1.77-1.03.48-1.6.16-1.89-.45C.9 1.38 1.13.8 1.54.42q.2-.2.12-.36a.6.6 0 0 0-.7-.23m0 0"/><path id="v" d="M3.02-.97C1.32-.17.3.9.95 2.3s2.13 1.33 3.83.53S7.48.97 6.83-.44c-.66-1.4-2.11-1.33-3.81-.53m.39.86c1.37-.64 2.75-1.01 3.12-.2s-.78 1.64-2.16 2.28-2.74 1-3.12.19S2.02.53 3.41-.11m0 0"/><path id="w" d="m1.64-.92-.1.19 1.44 2.07-.78.55c-.26.17-.36.14-.51-.05l-.4-.45-.21.16L2.5 3.58l.22-.16-.2-.37c-.1-.2-.08-.28.18-.46l.78-.54.55.78.36-.25-.55-.78 3.4-2.4-.41-.56c-1.56.03-3.5.08-5.19.24m.6.42Q3.95-.69 6-.78L3.34 1.09Zm0 0"/><path id="x" d="M2.8-1.48C1.25-.41.44.82 1.33 2.09s2.34.96 3.89-.12C6.75.89 7.53-.36 6.64-1.63c-.89-1.26-2.31-.93-3.84.15m.54.78c1.24-.88 2.54-1.46 3.04-.74.51.74-.47 1.75-1.7 2.63-1.27.87-2.57 1.45-3.09.72-.5-.72.49-1.74 1.75-2.61m0 0"/><path id="y" d="M.94-.4c-.3.3-.28 1.2.58 2.06 1.09 1.1 2.25.94 3.09.1.94-.94.83-1.99.03-2.79a2.3 2.3 0 0 0-1.31-.62v-.03l1.39-1.08c.19-.16.25-.12.37 0L6.75-1.1l.6-.3.04-.1-2.22-2.2h-.12L2.7-1.6l.07.24c.59-.06 1.01.05 1.39.42.4.4.57 1.2-.3 2.08-.69.69-1.48.92-2.06.34-.47-.46-.38-1.03-.11-1.54q.07-.22-.03-.35c-.16-.15-.5-.22-.72 0m0 0"/><path id="z" d="M2.5-1.94C1.17-.6.58.73 1.67 1.83c1.1 1.1 2.47.53 3.8-.8s1.87-2.69.78-3.78c-1.1-1.1-2.42-.52-3.75.81m.67.67c1.08-1.07 2.24-1.89 2.86-1.26.64.64-.16 1.81-1.23 2.89-1.08 1.08-2.25 1.87-2.9 1.23-.62-.62.2-1.78 1.27-2.86m0 0"/><path id="A" d="M1.98-2.14C.83-.48.88.75 2.03 1.56c1.13.8 2.24.52 2.95-.51.74-1.05.5-2.07-.32-2.64a2 2 0 0 0-1.74-.2l-.01-.02c1.18-1.7 2.15-2.03 2.84-1.55.36.25.4.73.22 1.25q-.1.14.08.28c.15.13.5.16.64-.04.23-.32.18-1.08-.74-1.74-1.2-.84-2.62-.44-3.97 1.47m.4 1.1c.32-.46 1.07-.8 1.73-.33.48.32.66 1.1.03 2.01-.56.8-1.26 1.11-1.9.67-.68-.48-.5-1.42.13-2.34m0 0"/><path id="B" d="M2.1-2.36C1.04-.8.7.63 1.98 1.52c1.26.89 2.51.09 3.6-1.46 1.07-1.53 1.38-2.97.12-3.86-1.27-.89-2.5-.1-3.58 1.44m.8.55c.87-1.24 1.88-2.22 2.6-1.72s.16 1.81-.72 3.05C3.91.78 2.9 1.77 2.16 1.25c-.72-.5-.14-1.8.73-3.06m0 0"/><path id="C" d="m2.45-4.31.22.1.17-.15c.2-.19.4-.25.77-.08l2.3 1.07c-.22.26-.61.68-1.75 1.35C2.92-1.3 2-.59 1.53.42c-.12.28.03.42.31.55.24.1.46.14.55-.13a6 6 0 0 1 1.97-2.53c.97-.68 1.67-1.01 2.47-1.93l-.03-.11L3.25-5.4Zm0 0"/><path id="D" d="M1.69-2.67C.89-.97.79.48 2.2 1.14 3.6 1.8 4.7.8 5.48-.9c.8-1.7.86-3.17-.54-3.82-1.4-.66-2.46.36-3.25 2.06m.86.39C3.19-3.66 4-4.81 4.8-4.44c.82.38.46 1.75-.18 3.13C3.98.08 3.16 1.22 2.34.84c-.8-.37-.43-1.73.2-3.12m0 0"/><path id="E" d="M.81-1.55c-.23.9.1 1.9 1.57 2.3 1.45.4 2.25-.3 2.48-1.2.25-.94-.19-1.63-.75-1.94v-.03c.56.03 1.16-.33 1.34-1.08.27-.97-.36-1.73-1.39-2.02-1.04-.28-1.98.08-2.25 1.05-.19.75.14 1.34.64 1.61v.03A1.64 1.64 0 0 0 .81-1.55m.9.28c.23-.82.79-1.34 1.52-1.15.72.2.94.92.72 1.75-.22.8-.72 1.3-1.48 1.1-.77-.21-.97-.9-.75-1.7m.98-2.98c.19-.69.65-1.1 1.28-.95.6.17.8.76.6 1.45-.15.63-.6 1.19-1.26 1-.65-.17-.78-.87-.62-1.5m0 0"/><path id="F" d="M1.19-2.94C.7-1.12.88.36 2.38.75c1.48.4 2.39-.78 2.87-2.6.48-1.8.3-3.26-1.19-3.67-1.5-.39-2.39.77-2.87 2.58m.92.25c.39-1.47 1-2.75 1.86-2.51.86.23.75 1.64.36 3.1-.4 1.5-1 2.76-1.86 2.52s-.75-1.62-.36-3.1m0 0"/><path id="G" d="m1.27.34 3.82 1.02.1-.33L4.23.7C3.98.58 3.87.47 4 0l1.84-6.86-.04-.08-2.52-.23-.08.28 1.07.42c.17.1.23.2.14.53L2.89-.3q-.08.34-.23.43-.1.09-.3.06l-1-.17Zm0 0"/><path id="H" d="M1.53-3.77C.91-1.42 1.13.45 3.05.97c1.93.51 3.08-.99 3.7-3.33s.4-4.22-1.55-4.73c-1.92-.52-3.04 1-3.67 3.32m1.17.32C3.2-5.35 4-6.98 5.1-6.7c1.1.3.96 2.11.46 4C5.05-.79 4.26.86 3.16.56s-.97-2.12-.46-4.01m0 0"/><path id="I" d="m1.19.55 3.58 1.67.14-.31-.86-.5c-.22-.14-.32-.28-.11-.72l3-6.44-.03-.08-2.44-.67-.13.27.97.6c.17.11.2.24.07.55L2.9.22q-.15.32-.32.37c-.07.07-.18.04-.3 0L1.34.23Zm0 0"/><path id="J" d="M2.16-3.44c-1.02 2.2-1.13 4.08.67 4.9 1.81.85 3.22-.41 4.23-2.62 1.02-2.17 1.11-4.09-.7-4.93-1.8-.83-3.19.48-4.2 2.65m1.1.5C4.1-4.7 5.15-6.19 6.18-5.7c1.03.48.6 2.25-.23 4.01C5.1.1 4.04 1.58 3.02 1.1c-1.04-.48-.58-2.25.25-4.03m0 0"/><path id="K" d="M1.08.75 4.3 3.02l.2-.29-.76-.64c-.2-.18-.28-.32 0-.71l4.08-5.83-.02-.1-2.26-1.08-.17.25.84.75c.12.16.16.29-.05.57L2.83.72q-.2.29-.36.33-.15.01-.31-.08l-.88-.5Zm0 0"/><path id="L" d="m.33.1.04.17 4.08 2.86L5.7 2.05l-.23-.25c-.58.4-.84.32-1.24.04L1.7.08c.53-.4 1.61-.69 2.99-.72C6.1-.66 7.17-.6 7.94-1.7c.97-1.39.37-2.5-.66-3.23-1.36-.94-2.62-.6-2.98-.07-.24.33.03.75.2.86q.24.17.47-.06c.64-.58 1.4-.85 2.01-.42.75.53.54 1.34.04 2.06C6.27-1.5 5.3-1.3 3.9-1.14 1.95-.92 1.05-.54.33.09m0 0"/><path id="M" d="M2.72-3.02C1.32-1.03.9.8 2.53 1.94s3.24.14 4.63-1.85c1.37-1.96 1.8-3.84.15-4.98C5.7-6.03 4.1-5 2.71-3.02m1 .7c1.12-1.6 2.42-2.88 3.36-2.23.94.66.19 2.32-.94 3.93C5.02.98 3.7 2.25 2.77 1.59c-.94-.65-.18-2.3.95-3.9m0 0"/><path id="N" d="m.92.92 2.8 2.8.25-.25-.64-.77c-.17-.2-.2-.36.14-.7l5.01-5.02v-.09L6.42-4.58l-.2.2.69.91c.14.16.12.28-.13.53L2.66 1.2c-.18.17-.29.25-.43.26q-.13.02-.28-.12L1.17.67Zm0 0"/><path id="O" d="M1.1-.64C.76-.28.73.9 1.93 2.1c1.25 1.25 2.64 1.39 3.72.31 1.16-1.15.52-2.45.08-2.98l.03-.03c.55.39 1.63.78 2.47-.07.94-.93.62-2.09-.3-3.01C6.8-4.8 5.61-4.7 5.23-4.33c-.26.27-.1.7.02.83q.14.14.38.03c.76-.39 1.46-.44 1.93.03.67.67.27 1.46-.2 1.92-.52.52-1.36.99-2.1.25-.4-.4-.54-.73-.63-.82q-.17-.16-.41.09-.22.21-.06.38c.09.09.4.25.8.65.74.74.5 1.8-.26 2.55-1.01 1.01-1.86.86-2.47.25-.56-.56-.51-1.36-.2-1.99q.18-.32 0-.5c-.15-.15-.6-.3-.92.02m0 0"/><path id="P" d="M3.2-2.48C1.5-.78.75.94 2.16 2.34c1.42 1.43 3.15.7 4.86-1.01 1.7-1.7 2.45-3.45 1.03-4.88-1.4-1.4-3.14-.64-4.85 1.07m.86.86c1.4-1.4 2.9-2.43 3.69-1.63.81.81-.22 2.31-1.6 3.7-1.4 1.4-2.88 2.4-3.7 1.6-.8-.8.22-2.28 1.61-3.67m0 0"/><path id="Q" d="M.75 1.08 3.02 4.3l.28-.2-.49-.86c-.12-.23-.14-.4.25-.69L8.9-1.52v-.07L7.12-3.4l-.25.17.54 1c.09.19.06.31-.22.52L2.4 1.64q-.28.2-.46.17c-.1.02-.17-.06-.26-.15L1.03.88Zm0 0"/><path id="R" d="m2.1-1.19-.15.22 1.9 2.7-1.02.7c-.33.24-.46.16-.66-.06l-.5-.59-.28.2L3.22 4.6l.28-.2-.27-.48c-.1-.25-.1-.35.22-.58l1.02-.7.7 1 .47-.33-.7-1L9.3-.77l-.5-.71c-2.03.01-4.53.1-6.7.3m.77.53a95 95 0 0 1 4.83-.36l.02.04-3.4 2.39Zm0 0"/><path id="S" d="M3.58-1.9C1.59-.53.58 1.05 1.72 2.68c1.14 1.64 2.98 1.23 4.97-.16 1.97-1.37 3-2.98 1.86-4.62-1.14-1.63-3-1.2-4.97.18m.7 1C5.9-2.04 7.55-2.8 8.2-1.87c.66.94-.6 2.25-2.22 3.38-1.6 1.12-3.26 1.87-3.92.93-.65-.93.61-2.23 2.22-3.36m0 0"/><path id="T" d="m.56 1.19 1.66 3.58.31-.14-.34-.96c-.08-.25-.06-.4.37-.6L9 .06l.05-.1L7.6-2.1l-.27.12L7.7-.9c.04.2.01.33-.3.47L2.1 2.03q-.31.15-.46.1-.18-.04-.25-.2l-.5-.88Zm0 0"/><path id="U" d="M1.33-.08C.83.14.43 1.27 1.1 2.7c.83 1.8 2.3 2.08 3.67 1.44C6.31 3.42 6.66 2.13 6.05.81A2.8 2.8 0 0 0 4.73-.52l.02-.03 2.14-.7c.3-.1.38-.03.45.16l1.29 2.72.87-.08.08-.1-1.7-3.65-.18-.05L3.95-.78l-.01.33c.73.22 1.2.54 1.48 1.14.33.7.17 1.72-1.26 2.37-1.13.53-2.2.47-2.66-.5-.36-.76.03-1.39.56-1.9q.21-.2.11-.46c-.1-.2-.5-.45-.84-.28m0 0"/><path id="V" d="M3.88-1.25C1.67-.23.38 1.15 1.21 2.95c.84 1.82 2.73 1.72 4.94.7 2.17-1 3.47-2.42 2.62-4.23-.83-1.8-2.73-1.69-4.9-.67m.5 1.1C6.14-.96 7.9-1.41 8.39-.38s-1 2.1-2.77 2.92c-1.78.83-3.54 1.27-4.03.24-.48-1.04 1-2.08 2.79-2.91m0 0"/><path id="W" d="m.34 1.27 1.02 3.82.33-.09-.16-.98c-.05-.29 0-.43.47-.55l6.86-1.85.05-.07-1.05-2.3-.28.08.14 1.12c.03.2-.05.3-.38.4L1.7 2.34c-.23.07-.36.07-.48.02-.11-.04-.14-.12-.19-.23l-.36-.97Zm0 0"/><path id="X" d="M3.73-.45Q-.02.57.7 3.2c.47 1.72 1.77 2.36 3.35 1.94s2.17-1.6 1.84-2.86A2.7 2.7 0 0 0 4.36.64L4.34.61c2.58-.67 3.82-.22 4.1.83.14.53-.2 1.04-.81 1.39-.13.1-.24.2-.2.37.07.25.4.57.73.47.46-.12 1.07-.9.7-2.3-.5-1.85-2.23-2.59-5.13-1.82M3.2.95c.7-.18 1.72.11 1.99 1.1.18.72-.28 1.62-1.61 1.98-1.24.33-2.19.08-2.45-.9C.84 2.09 1.8 1.33 3.2.94m0 0"/><path id="Y" d="M4.02-.56C1.67.06.17 1.19.69 3.1c.51 1.94 2.39 2.17 4.73 1.55 2.33-.63 3.85-1.77 3.33-3.7S6.35-1.2 4.02-.57M4.32.6c1.9-.5 3.73-.64 4.02.45.3 1.11-1.36 1.9-3.25 2.4-1.89.52-3.7.65-4-.46C.8 1.9 2.44 1.13 4.33.6m0 0"/><path id="Z" d="m.1 1.31.35 3.94.35-.03.01-1c0-.28.08-.42.56-.47l7.08-.6.05-.09L7.86.64l-.3.02-.03 1.12c-.01.2-.1.3-.45.33l-5.81.5q-.35.04-.47-.06c-.11-.07-.13-.16-.16-.27l-.19-1Zm0 0"/><path id="aa" d="m6.38-.05.03.33.26.08c.35.12.53.27.58.81l.28 3.24a7 7 0 0 1-2.6-1.1c-1.59-.9-3-1.45-4.41-1.33-.4.04-.46.32-.43.7.04.34.16.57.5.54a7 7 0 0 1 4.07.55c1.4.64 2.2 1.21 3.75 1.51l.14-.1-.44-5Zm0 0"/><path id="ab" d="M4.06.16C1.66.36-.04 1.22.14 3.19c.17 2 1.99 2.56 4.4 2.36 2.38-.22 4.09-1.1 3.91-3.1-.17-1.97-2-2.51-4.39-2.3m.11 1.22c1.96-.18 3.75 0 3.86 1.12.1 1.14-1.65 1.64-3.6 1.81C2.44 4.47.65 4.28.55 3.14c-.1-1.12 1.64-1.6 3.61-1.76m0 0"/><path id="ac" d="M1.02-6.06C.87-4.4 2-3.44 3.36-3.31a2.4 2.4 0 0 0 2.08-.96h.03c-.06.85-.22 1.93-.55 2.83-.33.85-.84 1.49-1.7 1.4-.9-.07-1.17-.82-1.33-1.46-.03-.19-.1-.28-.34-.3-.25-.03-.66.2-.7.63-.04.58.59 1.45 2.2 1.6a2.9 2.9 0 0 0 2.51-.9c.64-.72 1.05-1.84 1.22-3.78.14-1.66-.08-2.77-.55-3.44a2.7 2.7 0 0 0-2.01-1.1c-1.7-.13-3.03.88-3.2 2.73m1.37-.25c.11-1.22.72-2.1 1.77-2 1.06.1 1.48 1.4 1.37 2.69-.01.23-.06.5-.16.7-.28.6-.84 1-1.54.94-1.05-.08-1.55-1.07-1.44-2.33m0 0"/><path id="ad" d="M.95-4.4C.72-1.76 1.33.26 3.52.46c2.2.19 3.17-1.69 3.4-4.34.24-2.68-.39-4.7-2.6-4.9C2.15-8.97 1.2-7.07.96-4.4m1.35.12c.18-2.17.72-4.13 1.98-4.02 1.27.11 1.47 2.13 1.28 4.3s-.73 4.1-2 4S2.11-2.1 2.3-4.28m0 0"/><path id="ae" d="m1.02-.1 3.07-.26-.01-.26h-.81c-.2 0-.32-.07-.35-.44l-.48-5.5-.06-.03-1.9.46.02.22.9.04c.15.01.2.07.23.34l.4 4.55q.02.25-.03.37-.07.1-.22.11L1-.36Zm0 0"/><path id="af" d="M.1-3.16C.29-1.3.96.04 2.49-.1 4.03-.23 4.47-1.67 4.3-3.53c-.16-1.88-.85-3.16-2.4-3.03C.39-6.42-.04-5.03.1-3.16m.96-.07c-.12-1.52 0-2.94.88-3.02.89-.08 1.28 1.3 1.4 2.81.14 1.52 0 2.92-.89 3-.87.08-1.25-1.28-1.39-2.8m0 0"/><path id="ag" d="m.98-.27 2.99-.8-.06-.24-.8.12c-.2.03-.33 0-.42-.36L1.25-6.89l-.05-.03-1.78.81.05.22.87-.13c.2-.01.24.04.3.3l1.19 4.4q.05.23.03.37-.05.1-.2.15l-.74.28Zm0 0"/><path id="ah" d="M-.44-3.12C.05-1.32.94-.15 2.44-.54c1.48-.4 1.67-1.88 1.19-3.69C3.14-6.03 2.23-7.2.75-6.8c-1.5.4-1.67 1.86-1.19 3.68m.92-.25C.1-4.84-.02-6.25.84-6.48c.86-.24 1.47 1.04 1.86 2.51.4 1.49.5 2.88-.36 3.11C1.48-.62.88-1.89.48-3.37m0 0"/><path id="ai" d="m.92-.42 2.8-1.31-.11-.24-.75.25c-.2.08-.31.08-.48-.26L.04-7l-.07-.03-1.62 1.12.1.2.84-.27c.17-.05.23 0 .34.23l1.92 4.14c.08.16.11.25.1.36q-.03.1-.16.17L.8-.66Zm0 0"/><path id="aj" d="m.19-.19.12.05L3.84-1.8l-.23-1.25-.27.08c.04.53-.09.67-.43.83L.7-1.11c-.07-.53.18-1.36.68-2.3.55-.98.99-1.65.55-2.59-.56-1.19-1.52-1.23-2.4-.81-1.18.54-1.45 1.53-1.24 1.97.12.28.51.28.65.21q.24-.12.13-.37c-.13-.64 0-1.25.53-1.5.64-.3 1.1.16 1.37.78.44.9.22 1.64-.23 2.64C.15-1.66.03-.9.19-.18m0 0"/><path id="ak" d="M-.97-3.02C-.17-1.32.9-.3 2.3-.95s1.33-2.13.53-3.83S.97-7.48-.44-6.83c-1.4.66-1.33 2.11-.53 3.81m.86-.39c-.64-1.37-1.01-2.75-.2-3.12s1.64.78 2.28 2.16 1 2.75.19 3.12S.53-2.02-.11-3.41m0 0"/><path id="al" d="m.83-.58 2.53-1.78-.16-.22-.68.4c-.18.1-.3.12-.52-.2L-1.17-6.9h-.06l-1.41 1.38.12.17.79-.4c.15-.08.25-.05.39.17l2.62 3.73q.15.2.13.33 0 .13-.13.2l-.6.53Zm0 0"/><path id="am" d="M-.34-.92c.22.33 1.15.5 2.22-.25C3-1.95 3.3-3.02 2.63-4 1.9-5.03.8-4.72.34-4.45l-.01-.03c.37-.38.81-1.14.28-1.91-.6-.84-1.52-.75-2.34-.17-1.02.7-1.11 1.64-.88 1.97.17.25.52.18.63.1q.15-.1.07-.3c-.18-.63-.12-1.16.32-1.48.59-.42 1.12 0 1.42.43.33.46.55 1.17-.11 1.62-.36.27-.6.34-.69.4-.1.09-.1.16 0 .3s.19.2.3.13c.1-.06.23-.28.6-.55.65-.45 1.45-.14 1.9.53.65.93.42 1.57-.13 1.96-.5.34-1.1.22-1.54-.13q-.24-.18-.4-.08c-.13.11-.3.46-.1.74m0 0"/><path id="an" d="M-1.48-2.8C-.41-1.25.82-.44 2.09-1.33s.96-2.34-.12-3.89C.89-6.75-.36-7.53-1.63-6.64c-1.26.89-.93 2.31.15 3.84m.78-.54c-.88-1.24-1.46-2.53-.74-3.03.74-.52 1.75.46 2.63 1.7.87 1.26 1.45 2.56.72 3.08-.72.5-1.74-.49-2.61-1.75m0 0"/><path id="ao" d="M.72-.72 2.9-2.9l-.2-.18-.62.5c-.14.14-.26.17-.53-.1l-3.9-3.9h-.07L-3.56-5l.15.16.7-.55c.15-.08.21-.08.4.1L.92-2.04c.13.13.2.2.2.3q.02.13-.09.22l-.5.62Zm0 0"/><path id="ap" d="m-1.2-1.45.2.07 1.8-1.8.67.68c.23.23.2.33.05.52l-.36.45.18.19 1.74-1.74-.19-.19-.33.27c-.19.13-.25.13-.48-.1l-.67-.68.67-.67-.3-.3-.67.67-2.95-2.95-.5.5c.3 1.53.71 3.44 1.14 5.08m.32-.64a51 51 0 0 1-.93-3.7L.5-3.46Zm0 0"/><path id="aq" d="M-1.94-2.5C-.6-1.17.73-.58 1.83-1.67c1.1-1.1.53-2.47-.8-3.8s-2.69-1.87-3.78-.78c-1.1 1.1-.52 2.42.81 3.75m.67-.67c-1.07-1.08-1.89-2.24-1.26-2.86.64-.64 1.81.16 2.89 1.23 1.08 1.08 1.87 2.25 1.23 2.9-.62.62-1.78-.2-2.86-1.27m0 0"/><path id="ar" d="m.58-.83 1.78-2.53-.22-.16-.52.6c-.14.17-.25.23-.56.01l-4.53-3.17h-.06l-.85 1.78.18.13.6-.66c.13-.12.2-.12.41.02L.55-2.2q.21.13.26.28a.3.3 0 0 1-.04.22L.36-1Zm0 0"/><path id="as" d="M-.56-.86c.34.24 1.25.08 1.95-.92.88-1.27.52-2.38-.47-3.06-1.06-.75-2.1-.47-2.73.45-.3.42-.44 1-.38 1.4h-.03l-1.31-1.18c-.17-.16-.17-.24-.06-.38l1.34-1.92-.4-.53-.08-.02-1.8 2.58.01.11 2.46 1.96.23-.11c-.15-.58-.1-1.02.19-1.44.34-.49 1.1-.78 2.1-.08.79.56 1.17 1.3.7 1.98-.38.54-.96.54-1.52.38q-.21-.05-.33.1c-.1.17-.12.5.13.68m0 0"/><path id="at" d="M-2.36-2.1C-.8-1.04.63-.7 1.52-1.98c.89-1.26.09-2.51-1.46-3.6-1.53-1.07-2.97-1.38-3.86-.12-.89 1.27-.1 2.5 1.44 3.58m.55-.8c-1.24-.87-2.22-1.88-1.72-2.6s1.81-.16 3.05.72c1.26.87 2.25 1.89 1.73 2.62-.5.72-1.8.14-3.06-.73m0 0"/><path id="au" d="m.42-.92 1.31-2.8-.23-.1-.4.68c-.12.17-.2.25-.55.08L-4.47-5.4l-.06.03-.53 1.88.2.09.47-.75c.1-.14.19-.14.42-.03L.17-2.25q.23.11.3.22.05.11-.02.25l-.26.75Zm0 0"/><path id="av" d="M-2.45-1.6Q.29-.32 1.17-2.27c.58-1.24.14-2.28-1-2.81-1.15-.55-2.1-.13-2.54.8-.32.67-.08 1.37.09 1.73l-.02.01c-1.87-.88-2.37-1.76-2-2.54.18-.4.65-.53 1.18-.42.11.03.24 0 .3-.14.08-.17.05-.53-.19-.63-.34-.17-1.1.02-1.57 1.04-.63 1.34.01 2.64 2.14 3.64m1.01-.57c-.5-.24-.97-.9-.62-1.64.25-.53.97-.85 1.95-.38.9.4 1.33 1.05 1 1.75-.36.75-1.3.74-2.33.27m0 0"/><path id="aw" d="M-2.67-1.69c1.7.8 3.15.9 3.81-.51C1.8-3.6.8-4.7-.9-5.48c-1.7-.8-3.17-.86-3.82.54-.66 1.4.36 2.46 2.06 3.25m.39-.86C-3.66-3.19-4.81-4-4.44-4.8c.38-.82 1.75-.46 3.13.18C.08-3.97 1.22-3.15.84-2.33c-.37.8-1.73.43-3.12-.2m0 0"/><path id="ax" d="m.27-.98.8-2.99-.26-.06-.28.73c-.08.2-.16.3-.51.2l-5.35-1.43-.06.01-.19 1.97.22.05.31-.81c.08-.16.16-.17.42-.11l4.41 1.19q.24.04.33.15.07.09.03.24l-.12.8Zm0 0"/><path id="ay" d="m-4.69-1.66.08-.25-.19-.12c-.2-.19-.3-.36-.2-.75l.66-2.45c.3.17.78.48 1.64 1.5.9 1.09 1.78 1.86 2.86 2.15.3.08.42-.1.48-.39.08-.26.05-.47-.2-.53A5.6 5.6 0 0 1-2.41-4c-.86-.84-1.3-1.48-2.36-2.1l-.09.05-1.01 3.77Zm0 0"/><path id="az" d="M-2.94-1.19C-1.12-.7.36-.88.75-2.37s-.78-2.4-2.6-2.88c-1.8-.48-3.26-.3-3.67 1.19-.39 1.5.77 2.39 2.58 2.87m.25-.92c-1.47-.39-2.75-1-2.51-1.86.23-.86 1.64-.75 3.1-.36 1.5.4 2.76 1 2.52 1.86s-1.62.75-3.1.36m0 0"/><path id="aA" d="m.34-1.27 1.02-3.82-.33-.1-.34.96C.58-3.98.47-3.87 0-4l-6.86-1.84-.08.04-.23 2.52.28.08.42-1.07c.1-.17.2-.23.53-.14L-.3-2.89q.34.08.43.23.09.1.06.3l-.17 1Zm0 0"/><path id="aB" d="M-3.77-1.53c2.35.62 4.22.4 4.74-1.52.51-1.93-.99-3.07-3.33-3.7-2.33-.62-4.22-.4-4.73 1.55-.52 1.92 1 3.04 3.32 3.67m.32-1.17C-5.35-3.2-6.98-4-6.7-5.1c.3-1.1 2.11-.96 4-.46 1.9.51 3.55 1.3 3.25 2.4s-2.12.97-4.01.46m0 0"/><path id="aC" d="m.05-.34.14-.07 2.1-4.51-1.26-1.05-.2.27c.48.51.47.76.26 1.2L-.2-1.7c-.5-.44-.98-1.46-1.23-2.8-.28-1.4-.37-2.45-1.6-3.03-1.52-.7-2.54.06-3.07 1.22-.7 1.5-.16 2.68.42 2.97.38.15.75-.18.83-.36q.13-.28-.14-.46c-.67-.53-1.06-1.23-.75-1.9.4-.83 1.2-.75 2-.4C-2.58-5.9-2.17-5-1.8-3.65-1.25-1.76-.72-.94.05-.34m0 0"/><path id="aD" d="M-3.44-2.16c2.2 1.02 4.08 1.13 4.9-.67.85-1.81-.41-3.22-2.62-4.23-2.17-1.02-4.09-1.11-4.93.7-.83 1.8.48 3.19 2.65 4.2m.5-1.1C-4.7-4.1-6.19-5.15-5.7-6.18c.48-1.03 2.25-.6 4.01.23C.1-5.1 1.58-4.04 1.1-3.02c-.48 1.04-2.25.58-4.03-.25m0 0"/><path id="aE" d="M-.83-.97c.42.3 1.6.1 2.58-1.3 1-1.43.9-2.84-.36-3.71-1.33-.93-2.48-.08-2.94.43l-.03-.03c.28-.6.49-1.7-.48-2.39-1.11-.76-2.19-.26-2.92.8-.93 1.3-.61 2.47-.2 2.76.32.2.73-.01.82-.15q.14-.18-.03-.38c-.52-.68-.69-1.37-.31-1.92.54-.78 1.37-.5 1.93-.1.58.4 1.2 1.15.61 2-.32.46-.62.66-.71.79q-.11.17.15.36.26.2.4.01c.09-.12.18-.45.5-.92.6-.84 1.7-.8 2.55-.19 1.18.82 1.18 1.7.7 2.4-.48.65-1.26.74-1.93.53q-.36-.1-.5.09c-.12.19-.19.67.17.92m0 0"/><path id="aF" d="M-3.02-2.72C-1.03-1.32.8-.9 1.94-2.53S2.08-5.77.09-7.16c-1.96-1.37-3.84-1.8-4.98-.15C-6.03-5.7-5-4.1-3.02-2.71m.7-1c-1.6-1.12-2.88-2.42-2.23-3.36.66-.94 2.32-.19 3.93.94C.98-5.02 2.25-3.7 1.59-2.77c-.65.94-2.3.18-3.9-.95m0 0"/><path id="aG" d="m-1.53-1.87.23.1 2.33-2.32.88.87c.3.3.23.42.04.67l-.48.58.25.25 2.25-2.25-.25-.25-.42.36c-.25.16-.33.17-.63-.12l-.87-.88.87-.87-.39-.4-.87.88-3.78-3.78-.63.62c.4 1.99.9 4.44 1.47 6.54m.39-.83q-.6-2.16-1.19-4.72l.02-.02L.64-4.48Zm0 0"/><path id="aH" d="M-2.48-3.2C-.78-1.5.94-.75 2.34-2.16c1.43-1.42.7-3.15-1.01-4.86-1.7-1.7-3.45-2.45-4.88-1.03-1.4 1.4-.64 3.14 1.07 4.85m.86-.86c-1.4-1.4-2.43-2.9-1.63-3.69.81-.81 2.31.22 3.7 1.6 1.4 1.4 2.4 2.88 1.6 3.7-.8.8-2.28-.22-3.67-1.61m0 0"/><path id="aI" d="M-.31-1.3c.31.46 1.48.64 2.76-.26 1.63-1.14 1.67-2.63.8-3.88C2.28-6.8.92-6.92-.25-6.09a3 3 0 0 0-1.1 1.51v-.01l-1.09-1.99c-.12-.28-.1-.36.08-.48L.11-8.78l-.23-.85-.11-.06-3.3 2.31-.02.18 2.11 3.43.31-.03c.1-.76.32-1.28.85-1.65.64-.44 1.67-.46 2.58.84.72 1.02.84 2.06-.02 2.67-.7.49-1.4.22-1.98-.2q-.25-.17-.47-.03c-.19.14-.38.56-.14.87m0 0"/><path id="aJ" d="M-1.9-3.58c1.38 1.99 2.96 3 4.59 1.86 1.64-1.14 1.23-2.98-.16-4.97-1.37-1.97-2.98-3-4.62-1.86-1.63 1.14-1.2 3 .18 4.97m1-.7C-2.04-5.9-2.8-7.55-1.87-8.2c.94-.66 2.25.6 3.38 2.22 1.12 1.6 1.87 3.26.93 3.92-.93.65-2.23-.61-3.36-2.22m0 0"/><path id="aK" d="M-1.1-3.6C.03-1.21 1.4-.5 3.04-1.26c1.63-.75 2.03-2.12 1.33-3.62-.69-1.47-1.97-1.84-3.14-1.3A2.6 2.6 0 0 0-.11-4.4l-.03.02c-1.11-2.42-.9-3.7.1-4.17.5-.24 1.06.01 1.5.58.12.1.24.17.4.09.23-.11.48-.47.34-.77-.2-.45-1.08-.92-2.39-.3-1.73.8-2.17 2.65-.9 5.37m1.5.29c-.32-.67-.21-1.72.7-2.16.7-.31 1.67.02 2.24 1.25.55 1.17.46 2.14-.46 2.56C1.92-1.2 1-2 .38-3.3m0 0"/><path id="aL" d="M-1.25-3.87c1.02 2.2 2.4 3.48 4.2 2.65 1.82-.84 1.72-2.73.7-4.94-1-2.17-2.42-3.46-4.23-2.62-1.8.83-1.69 2.73-.67 4.9m1.1-.5C-.96-6.14-1.41-7.91-.38-8.4s2.1 1 2.92 2.77c.83 1.78 1.27 3.54.24 4.03-1.04.48-2.08-1-2.91-2.78m0 0"/><path id="aM" d="m-1.16-6.27.32-.09.03-.3c.08-.34.17-.54.7-.68l3.14-.85a8 8 0 0 1-.6 2.77c-.65 1.7-.93 3.2-.57 4.58.1.37.39.39.75.3.33-.1.56-.27.47-.6a7 7 0 0 1-.17-4.11c.37-1.5.8-2.37.82-3.95l-.14-.11L-1.25-8Zm0 0"/><path id="aN" d="M-.56-4.02C.06-1.67 1.19-.17 3.1-.69c1.94-.51 2.17-2.39 1.55-4.73-.63-2.33-1.77-3.85-3.7-3.33S-1.2-6.35-.57-4.02m1.17-.3c-.5-1.9-.64-3.73.45-4.02 1.11-.3 1.9 1.36 2.4 3.25.52 1.89.65 3.7-.46 4C1.9-.8 1.13-2.44.6-4.33m0 0"/><path id="aO" d="M.31-2.22C.42-1.02 1.27.03 3.2-.14c1.95-.17 2.6-1.34 2.5-2.55a2.1 2.1 0 0 0-1.78-2v-.01a1.8 1.8 0 0 0 1.17-1.9c-.13-1.3-1.24-1.98-2.63-1.85C1.1-8.33.11-7.48.23-6.2a1.8 1.8 0 0 0 1.49 1.67v.02a2.1 2.1 0 0 0-1.4 2.28m1.2-.08c-.09-1.1.35-1.95 1.3-2.04.97-.08 1.58.68 1.67 1.8.1 1.04-.32 1.9-1.34 1.98-1 .1-1.53-.69-1.62-1.74m-.1-4.01c-.1-.92.28-1.64 1.09-1.72.83-.06 1.31.58 1.4 1.5.07.81-.24 1.67-1.12 1.75-.86.08-1.31-.72-1.37-1.53m0 0"/><path id="aP" d="M.16-4.06c.2 2.4 1.06 4.1 3.03 3.92 2-.17 2.56-1.98 2.36-4.4-.22-2.38-1.1-4.08-3.1-3.91-1.97.17-2.51 2-2.3 4.39m1.22-.11c-.18-1.95 0-3.75 1.12-3.86 1.14-.1 1.64 1.65 1.81 3.6.16 1.98-.03 3.77-1.17 3.87-1.12.1-1.6-1.64-1.76-3.61m0 0"/><clipPath id="e"><path d="M.48 16H324v228.16H.48Zm0 0"/></clipPath><clipPath id="f"><path d="M.48 120H73v47H.48Zm0 0"/></clipPath><clipPath id="g"><path d="M.48 147H69v39H.48Zm0 0"/></clipPath><clipPath id="h"><path d="M.48 107H76v51H.48Zm0 0"/></clipPath><clipPath id="i"><path d="M.48 134H71v42H.48Zm0 0"/></clipPath><clipPath id="j"><path d="M.48 150H59v19H.48Zm0 0"/></clipPath><clipPath id="k"><path d="M.48 153H59v18H.48Zm0 0"/></clipPath><clipPath id="l"><path d="M.48 156H58v17H.48Zm0 0"/></clipPath></defs><path fill="#66b2b2" d="m160.88 178.02 10.98.96c.16-1.93-.18-3.86-1-5.61Zm0 0"/><path fill="none" stroke="#000" stroke-miterlimit="10" stroke-width=".4" d="M171.86 178.98c.16-1.93-.18-3.86-1-5.61"/><use xlink:href="#a" x="156.52" y="181.03"/><use xlink:href="#b" x="156.72" y="173.46"/><use xlink:href="#a" x="198.95" y="161.25"/><use xlink:href="#c" x="199.34" y="153.68"/><use xlink:href="#a" x="218.7" y="186.47"/><use xlink:href="#d" x="218.97" y="178.72"/><path fill="none" stroke="red" stroke-dasharray="2.9776218875 2.9776218875" stroke-miterlimit="10" stroke-width=".4" d="m160.88 178.02 99-46.16"/><path fill="none" stroke="#000" stroke-miterlimit="10" stroke-width=".4" d="m160.88 178.02 56.57-26.38m-56.57 26.38 93.26 8.16"/><path fill="#cccce5" fill-opacity=".5" fill-rule="evenodd" d="m13.14 218.66 286.18 25.04a4.6 4.6 0 0 0 4.23-2.44c35.16-75.4 1.37-168.23-76.73-204.65C148.72.2 55.9 33.98 19.48 112.08 3.98 145.32.68 182.98 9.4 215.53c.43 1.59.78 1.54.78-.1a3.3 3.3 0 0 0 2.96 3.23m38.94-50.16 168.01 14.7c1.64.14 1.95-.6.68-1.65-32.88-27.6-82.77-31.96-122.53-9.01m143.33 12.54 25.15 2.2a3 3 0 0 0 3.23-2.7c5-57.13-39.46-110.1-99.55-115.36S57.34 108.4 52.34 165.54a3 3 0 0 0 2.7 3.22l180.6 15.8zm0 0"/><g clip-path="url(#e)"><path fill="none" stroke="#000" stroke-miterlimit="10" stroke-opacity=".5" stroke-width=".4" d="m13.14 218.66 286.18 25.04a4.6 4.6 0 0 0 4.23-2.44c35.16-75.4 1.37-168.23-76.73-204.65C148.72.2 55.9 33.98 19.48 112.08 3.98 145.32.68 182.98 9.4 215.53c.43 1.59.78 1.54.78-.1a3.3 3.3 0 0 0 2.96 3.23Zm38.94-50.16 168.01 14.7c1.64.14 1.95-.6.68-1.65-32.88-27.6-82.77-31.96-122.53-9.01m143.33 12.54 25.15 2.2a3 3 0 0 0 3.23-2.7c5-57.13-39.46-110.1-99.55-115.36S57.34 108.4 52.34 165.54a3 3 0 0 0 2.7 3.22l180.6 15.8zm0 0"/></g><path fill="none" stroke="#7f7fa6" stroke-miterlimit="10" stroke-width=".4" d="m52.08 168.5 217.6 19.04m-109.88 2.91 2.17-24.86m-6.76 5.67 11.35 13.52m-12.44-1.08 13.52-11.35"/><path fill="none" stroke="#7f7fa6" stroke-miterlimit="10" stroke-width="1.2" d="m306.99 190.8 9.33.82m-37.3-3.26-9.34-.82m37.31-22.3 9.33-.82m-37.3 3.26-9.33.82m32.86-28.44 9.04-2.42m-36.17 9.69-9.04 2.42m27.42-33.71 8.49-3.96m-33.94 15.83-8.48 3.95m21.15-37.96 7.67-5.37M258.02 110l-7.67 5.37m14.24-41.05 6.62-6.62m-26.48 26.47-6.62 6.62M245 57.88l5.38-7.67M228.9 80.9l-5.37 7.66m-.66-43.46 3.95-8.49M211 70.55l-3.96 8.49m-8.2-42.69 2.43-9.04m-9.7 36.17-2.42 9.04m-15.49-40.61.82-9.32m-3.26 37.3-.82 9.33m-22.3-37.31-.81-9.32m3.26 37.3.81 9.33m-28.44-32.86-2.42-9.05m9.7 36.17 2.41 9.04M98.9 45.1l-3.95-8.49m15.82 33.94 3.96 8.49M76.76 57.88l-5.37-7.67M92.87 80.9l5.37 7.66M57.18 74.31l-6.62-6.61m26.48 26.47 6.62 6.62M40.74 93.9l-7.67-5.37M63.75 110l7.67 5.36m-43.46.68-8.48-3.96m33.93 15.83 8.49 3.95"/><g clip-path="url(#f)"><path fill="none" stroke="#7f7fa6" stroke-miterlimit="10" stroke-width="1.2" d="m19.21 140.06-9.04-2.42m36.17 9.7 9.05 2.41"/></g><g clip-path="url(#g)"><path fill="none" stroke="#7f7fa6" stroke-miterlimit="10" stroke-width="1.2" d="m14.78 165.24-9.33-.82m37.3 3.27 9.33.81"/></g><path fill="none" stroke="#7f7fa6" stroke-miterlimit="10" stroke-width="1.2" d="M309.1 178.02h7.8m-39 0h-7.8m36.76-25.74 7.68-1.35m-38.41 6.77-7.69 1.35m31.73-31.73 7.33-2.66M270.84 138l-7.32 2.66m25.73-36.76L296 100m-33.78 19.51-6.75 3.9m18.96-40.67 5.98-5.01m-29.89 25.07-5.97 5.02m11.61-43.35 5.02-5.97M236.1 88.38l-5.01 5.98m3.91-44.7 3.9-6.76m-19.5 33.78-3.9 6.75m-3.92-44.7 2.67-7.32M200.9 68.06l-2.67 7.33m-11.61-43.34 1.36-7.68m-6.78 38.41-1.35 7.68M160.88 29.8V22m0 39v7.8m-25.74-36.75-1.35-7.68m6.77 38.41 1.36 7.68m-31.73-31.73-2.67-7.32m13.34 36.65 2.67 7.33M86.77 49.66l-3.9-6.76m19.5 33.78 3.9 6.76M65.6 64.48l-5-5.98m25.06 29.88 5.02 5.98M47.34 82.75l-5.98-5.02m29.88 25.07 5.98 5.02m-44.7-3.91-6.76-3.9m33.78 19.5 6.76 3.9"/><g clip-path="url(#h)"><path fill="none" stroke="#7f7fa6" stroke-miterlimit="10" stroke-width="1.2" d="m21.6 127.32-7.33-2.66M50.92 138l7.33 2.67"/></g><g clip-path="url(#i)"><path fill="none" stroke="#7f7fa6" stroke-miterlimit="10" stroke-width="1.2" d="m14.91 152.28-7.68-1.35m38.41 6.77 7.69 1.35"/></g><path fill="none" stroke="#7f7fa6" stroke-miterlimit="10" stroke-width=".4" d="m314.97 188.8 1.56.1m-45.14-3.15-1.55-.11m43.74.38 3.12.17m-43.63-2.3-3.12-.16m42.18-.43 4.68.16m-42.1-1.46-4.67-.17m40.6-1.2 6.24.11m-40.56-.7-6.24-.11m40.56-4.53 6.24-.1m-40.56.7-6.23.11m42.05-3.37 4.68-.17m-42.1 1.48-4.68.16m43.54-4.19 3.12-.16m-43.63 2.28-3.12.16m45.02-5.05 1.56-.11m-45.14 3.15-1.55.11m44.66-8.52 1.55-.17m-45 4.73-1.55.16m43.15-7.21 3.1-.39m-43.37 5.33-3.1.38m41.47-7.75 4.64-.66m-41.72 5.87-4.63.65m39.78-8.23 6.17-.98m-40.07 6.35-6.16.98m39.15-11.5 6.13-1.19m-39.82 7.74-6.13 1.19m40.83-10.63 4.58-.97m-41.2 8.76-4.59.97m42.16-11.69 3.04-.7m-42.57 9.83-3.04.7m43.46-12.8 1.51-.38m-43.9 10.95-1.51.38m42.5-16.15 1.5-.44m-43.49 12.47-1.5.43m41.23-14.59 2.99-.92m-41.78 12.78-2.98.91m39.49-14.84 4.45-1.45m-40.06 13.02-4.46 1.45m37.75-15.02 5.9-2.03m-38.35 13.21-5.9 2.03m36.57-18.12 5.82-2.23m-37.87 14.53-5.82 2.24m38.35-17.56 4.35-1.75m-39.06 15.78-4.34 1.76m39.48-18.83 2.87-1.22m-40.2 17.06-2.88 1.23M302 115.2l1.42-.64m-41.34 18.4-1.42.64m39.05-23.3 1.4-.68m-40.66 19.84-1.4.68m38.07-21.54 2.78-1.42m-38.92 19.84-2.78 1.42m36.31-21.47 4.13-2.2m-37.2 19.78-4.12 2.2m34.57-21.35 5.46-3.02m-35.48 19.67-5.46 3.02m32.86-24.2 5.36-3.21m-34.78 20.9-5.35 3.21m34.73-23.95 3.97-2.48m-35.72 22.32-3.97 2.48m35.61-25.4 2.62-1.7m-36.64 23.8-2.62 1.7m36.46-26.9 1.3-.87m-37.52 25.3-1.29.88m34.42-29.72 1.26-.92m-36.6 26.6-1.27.91M283 86l2.49-1.88m-34.9 26.3-2.48 1.87m32.03-27.45 3.7-2.88m-33.2 25.94-3.7 2.88m30.35-27.02 4.85-3.93m-31.53 25.53-4.85 3.93m28.17-29.54 4.7-4.1m-30.61 26.62-4.71 4.1m30.05-29.62 3.47-3.13m-31.3 28.19-3.48 3.13m30.66-31.2 2.28-2.13m-31.95 29.8-2.28 2.13M272 70.72l1.12-1.08m-32.55 31.43-1.12 1.08m28.73-35.25 1.09-1.11m-31.43 32.54-1.09 1.13m28.41-33.26 2.13-2.29m-29.8 31.95-2.12 2.28m26.78-32.59 3.14-3.48m-28.2 31.3-3.13 3.49m25.19-31.88 4.1-4.71m-26.62 30.61-4.1 4.71m22.61-33.97 3.93-4.85m-25.53 31.52-3.92 4.85m24.44-34.38 2.88-3.69m-25.93 33.2-2.88 3.69M252.9 55.9l1.88-2.49m-26.3 34.9-1.87 2.48m25.07-37.74.91-1.26M226 88.4l-.9 1.27m22.16-39.71.87-1.29m-25.3 37.51-.87 1.3m22.2-37.69 1.7-2.62m-23.8 36.63-1.7 2.62m20.72-36.75 2.48-3.97m-22.32 35.73-2.48 3.97m19.27-35.77 3.21-5.35m-20.9 34.77-3.2 5.35m16.36-37.38 3.03-5.46m-19.67 35.48-3.03 5.46m18.1-38.1 2.2-4.14m-19.77 37.2-2.2 4.13m18.14-39.81 1.41-2.78m-19.83 38.93-1.42 2.78m18.14-41.52.68-1.4m-19.83 40.66-.69 1.4m14.95-42.94.63-1.43m-18.4 41.34-.63 1.43m15.32-40.98 1.22-2.87m-17.07 40.2-1.22 2.87m14.02-39.77 1.75-4.34m-15.78 39.06-1.75 4.34m12.76-38.57 2.24-5.83m-14.54 37.87-2.24 5.83m9.62-39.66 2.04-5.9m-13.2 38.35-2.04 5.9m11.21-40.66 1.45-4.46M196.08 69.7l-1.45 4.45m10.96-42.35.91-2.99M193.73 70.6l-.91 2.98m10.64-44.04.43-1.5m-12.47 43.5-.43 1.5m7.26-44.9.38-1.51m-10.95 43.9-.38 1.52m7.98-43.01.7-3.04m-9.83 42.56-.7 3.04m6.9-41.62.97-4.58m-8.76 41.2-.97 4.59m5.87-40.2 1.2-6.13m-7.75 39.82-1.19 6.13m2.6-40.73.97-6.16m-6.34 40.06-.98 6.17m3.98-42 .65-4.63m-5.87 41.71-.65 4.64m3.44-43.61.38-3.1m-5.33 43.36-.38 3.1m2.84-45.22.16-1.55m-4.73 45-.16 1.55m-.64-45.47.1-1.56m-3.15 45.14-.11 1.56m.39-43.74.16-3.12m-2.29 43.63-.16 3.11m-.44-42.18.17-4.68m-1.47 42.1-.16 4.68m-1.2-40.61.1-6.24m-.7 40.56-.11 6.24m-4.52-40.56-.11-6.24m.7 40.56.12 6.24m-3.38-42.05-.16-4.68m1.47 42.1.16 4.68m-4.19-43.54-.17-3.12m2.3 43.63.16 3.11m-5.07-45.02-.1-1.56m3.16 45.14.1 1.56m-8.52-44.67-.17-1.55m4.73 45 .16 1.55m-7.21-43.14-.38-3.1m5.32 43.36.38 3.1m-7.75-41.47-.65-4.63m5.86 41.71.65 4.64m-8.23-39.79-.97-6.17m6.34 40.07.98 6.17M132.3 31l-1.19-6.14m7.74 39.82 1.2 6.13m-10.63-40.83-.98-4.57m8.76 41.2.98 4.58m-11.69-42.15-.7-3.05m9.82 42.57.7 3.04m-12.8-43.46-.37-1.51m10.94 43.9.38 1.52M118.3 29.54l-.43-1.5m12.48 43.5.43 1.5m-14.6-41.24-.91-2.99m12.77 41.78.91 2.98m-14.83-39.48-1.45-4.46m13.02 40.07 1.44 4.45M112.12 36.4l-2.03-5.9m13.2 38.35 2.03 5.9M107.2 38.19l-2.23-5.83m14.54 37.87 2.23 5.83M104.19 37.7l-1.76-4.34m15.78 39.06 1.76 4.34m-18.83-39.49-1.22-2.87m17.07 40.21 1.22 2.87M98.05 36.91l-.63-1.43m18.4 41.34.64 1.43M93.17 39.2l-.69-1.41m19.84 40.67.68 1.4M91.46 41.78 90.05 39m19.83 38.93 1.42 2.78M89.83 44.4l-2.2-4.14m19.78 37.2 2.2 4.13M88.27 47.02l-3.03-5.46m19.67 35.48 3.02 5.46M83.74 49.63l-3.22-5.35m20.9 34.77 3.21 5.35M80.68 49.67 78.2 45.7m22.33 35.73L103 85.4M77.6 49.79l-1.7-2.62M99.7 83.8l1.7 2.62M74.5 49.96l-.86-1.29m25.3 37.51.87 1.3M70.09 53.05l-.92-1.26m26.6 36.6.92 1.27M68.86 55.91l-1.88-2.5m26.3 34.9 1.88 2.49M67.7 58.76l-2.88-3.69m25.94 33.2 2.88 3.69M66.62 61.62l-3.92-4.85m25.52 31.52 3.93 4.85M62.62 64.98l-4.1-4.71m26.62 30.61 4.09 4.71M59.61 65.55l-3.13-3.48m28.2 31.3 3.12 3.49M56.6 66.2l-2.12-2.29m29.79 31.95 2.13 2.28M53.58 66.9l-1.08-1.1m31.43 32.54 1.09 1.13M49.77 70.72l-1.12-1.08m32.55 31.43 1.12 1.08M49.05 73.74l-2.28-2.13m31.96 29.8 2.28 2.13m-32.6-26.79-3.48-3.13m31.3 28.19 3.49 3.13M47.84 79.75l-4.71-4.09m30.62 26.61 4.7 4.1M44.48 83.76l-4.85-3.93m31.53 25.53 4.84 3.93M41.62 84.84l-3.69-2.88m33.2 25.94 3.69 2.88M38.77 86l-2.5-1.88m34.9 26.3 2.49 1.87M35.92 87.23l-1.26-.92m36.6 26.6 1.26.91M32.83 91.64l-1.3-.87m37.52 25.3 1.29.88m-37.69-22.2-2.62-1.7m36.64 23.79 2.62 1.7M32.54 97.82l-3.97-2.48m35.72 22.32 3.97 2.48M32.5 100.88l-5.36-3.22m34.78 20.9 5.35 3.21M29.88 105.4l-5.46-3.02m35.48 19.67 5.46 3.02m-38.11-18.1-4.13-2.2m37.2 19.78 4.13 2.2M24.64 108.6l-2.78-1.41m38.93 19.83 2.78 1.42M22.05 110.3l-1.4-.68m40.67 19.84 1.4.68M19.77 115.2l-1.42-.64m41.33 18.4 1.43.64m-40.98-15.32-2.87-1.22m40.22 17.06 2.87 1.23m-39.79-14.02-4.34-1.76m39.06 15.79 4.34 1.75m-38.57-12.77-5.83-2.23m37.87 14.53 5.83 2.24m-39.66-9.62-5.9-2.03m38.35 13.2 5.9 2.03m-40.66-11.21-4.45-1.44m40.06 13.01 4.45 1.45m-42.35-10.95-2.98-.92m41.77 12.78 2.99.91M12.4 135.45l-1.5-.43m43.5 12.47 1.5.43M11 140.65l-1.5-.37m43.9 10.94 1.51.38m-43.01-7.98-3.04-.7m42.57 9.83 3.03.7m-41.61-6.9-4.58-.97m41.2 8.76 4.58.97m-40.2-5.87-6.12-1.19m39.82 7.74 6.12 1.2m-40.72-2.6-6.17-.98m40.07 6.35 6.16.97"/><g clip-path="url(#j)"><path fill="none" stroke="#7f7fa6" stroke-miterlimit="10" stroke-width=".4" d="m11.01 156.96-4.63-.65m41.71 5.86 4.64.65"/></g><g clip-path="url(#k)"><path fill="none" stroke="#7f7fa6" stroke-miterlimit="10" stroke-width=".4" d="m9.12 159.39-3.1-.38m43.36 5.32 3.1.38"/></g><g clip-path="url(#l)"><path fill="none" stroke="#7f7fa6" stroke-miterlimit="10" stroke-width=".4" d="m7.27 161.88-1.56-.17m45 4.73 1.56.17"/></g><g fill="#7f7fa6"><use xlink:href="#m" x="297.24" y="179.26"/><use xlink:href="#n" x="296.62" y="186.33"/><use xlink:href="#o" x="296" y="193.41"/></g><use xlink:href="#p" x="289.38" y="192.83" fill="#7f7fa6"/><g fill="#7f7fa6"><use xlink:href="#q" x="281.67" y="162.46"/><use xlink:href="#r" x="282.11" y="167.42"/></g><g fill="#7f7fa6"><use xlink:href="#s" x="277.14" y="141.72"/><use xlink:href="#t" x="278.42" y="146.52"/></g><g fill="#7f7fa6"><use xlink:href="#u" x="269.07" y="122.09"/><use xlink:href="#v" x="271.17" y="126.59"/></g><g fill="#7f7fa6"><use xlink:href="#w" x="257.71" y="104.15"/><use xlink:href="#x" x="260.56" y="108.22"/></g><g fill="#7f7fa6"><use xlink:href="#y" x="243.41" y="88.46"/><use xlink:href="#z" x="246.93" y="91.98"/></g><g fill="#7f7fa6"><use xlink:href="#A" x="226.61" y="75.49"/><use xlink:href="#B" x="230.68" y="78.34"/></g><g fill="#7f7fa6"><use xlink:href="#C" x="207.81" y="65.64"/><use xlink:href="#D" x="212.31" y="67.74"/></g><g fill="#7f7fa6"><use xlink:href="#E" x="187.58" y="59.2"/><use xlink:href="#F" x="192.38" y="60.48"/></g><g fill="#7f7fa6"><use xlink:href="#G" x="186.92" y="43.8"/><use xlink:href="#H" x="193.1" y="45.45"/><use xlink:href="#H" x="199.27" y="47.1"/></g><g fill="#7f7fa6"><use xlink:href="#I" x="209.84" y="50.36"/><use xlink:href="#I" x="215.63" y="53.06"/><use xlink:href="#J" x="221.42" y="55.76"/></g><g fill="#7f7fa6"><use xlink:href="#K" x="231.26" y="60.8"/><use xlink:href="#L" x="236.5" y="64.46"/><use xlink:href="#M" x="241.73" y="68.13"/></g><g fill="#7f7fa6"><use xlink:href="#N" x="250.55" y="74.8"/><use xlink:href="#O" x="255.07" y="79.32"/><use xlink:href="#P" x="259.59" y="83.84"/></g><g fill="#7f7fa6"><use xlink:href="#Q" x="267.11" y="91.94"/><use xlink:href="#R" x="270.77" y="97.17"/><use xlink:href="#S" x="274.44" y="102.41"/></g><g fill="#7f7fa6"><use xlink:href="#T" x="280.45" y="111.69"/><use xlink:href="#U" x="283.15" y="117.48"/><use xlink:href="#V" x="285.85" y="123.27"/></g><g fill="#7f7fa6"><use xlink:href="#W" x="290.15" y="133.46"/><use xlink:href="#X" x="291.8" y="139.63"/><use xlink:href="#Y" x="293.45" y="145.8"/></g><g fill="#7f7fa6"><use xlink:href="#Z" x="295.92" y="156.58"/><use xlink:href="#aa" x="296.48" y="162.95"/><use xlink:href="#ab" x="297.04" y="169.32"/></g><g fill="#7f7fa6"><use xlink:href="#ac" x="164.98" y="49.75"/><use xlink:href="#ad" x="172.05" y="50.37"/></g><path fill="none" stroke="#7f7fa6" stroke-miterlimit="10" stroke-width="1.2" d="m173.4 35.02 1.08-12.43m-3 34.2-1.08 12.43"/><g fill="#7f7fa6"><use xlink:href="#ae" x="142.85" y="57.45"/><use xlink:href="#af" x="147.8" y="57.01"/><use xlink:href="#af" x="152.75" y="56.58"/></g><g fill="#7f7fa6"><use xlink:href="#ag" x="122.19" y="62.41"/><use xlink:href="#ag" x="126.99" y="61.13"/><use xlink:href="#ah" x="131.79" y="59.84"/></g><g fill="#7f7fa6"><use xlink:href="#ai" x="102.7" y="70.89"/><use xlink:href="#aj" x="107.2" y="68.79"/><use xlink:href="#ak" x="111.71" y="66.69"/></g><g fill="#7f7fa6"><use xlink:href="#al" x="84.98" y="82.62"/><use xlink:href="#am" x="89.05" y="79.77"/><use xlink:href="#an" x="93.12" y="76.92"/></g><g fill="#7f7fa6"><use xlink:href="#ao" x="69.57" y="97.25"/><use xlink:href="#ap" x="73.08" y="93.73"/><use xlink:href="#aq" x="76.6" y="90.22"/></g><g fill="#7f7fa6"><use xlink:href="#ar" x="56.93" y="114.33"/><use xlink:href="#as" x="59.78" y="110.26"/><use xlink:href="#at" x="62.63" y="106.19"/></g><g fill="#7f7fa6"><use xlink:href="#au" x="47.45" y="133.35"/><use xlink:href="#av" x="49.55" y="128.85"/><use xlink:href="#aw" x="51.65" y="124.34"/></g><g fill="#7f7fa6"><use xlink:href="#ax" x="41.41" y="153.73"/><use xlink:href="#ay" x="42.7" y="148.93"/><use xlink:href="#az" x="43.99" y="144.13"/></g><g fill="#7f7fa6"><use xlink:href="#aA" x="27.48" y="148.89"/><use xlink:href="#aB" x="29.14" y="142.72"/></g><g fill="#7f7fa6"><use xlink:href="#aC" x="34.57" y="126.17"/><use xlink:href="#aD" x="37.27" y="120.38"/></g><g fill="#7f7fa6"><use xlink:href="#aE" x="45.49" y="105.03"/><use xlink:href="#aF" x="49.16" y="99.79"/></g><g fill="#7f7fa6"><use xlink:href="#aG" x="59.92" y="86.1"/><use xlink:href="#aH" x="64.44" y="81.58"/></g><g fill="#7f7fa6"><use xlink:href="#aI" x="77.42" y="69.96"/><use xlink:href="#aJ" x="82.65" y="66.3"/></g><g fill="#7f7fa6"><use xlink:href="#aK" x="97.45" y="57.11"/><use xlink:href="#aL" x="103.24" y="54.41"/></g><g fill="#7f7fa6"><use xlink:href="#aM" x="119.41" y="47.93"/><use xlink:href="#aN" x="125.58" y="46.28"/></g><g fill="#7f7fa6"><use xlink:href="#aO" x="142.63" y="42.7"/><use xlink:href="#aP" x="149" y="42.15"/></g><use xlink:href="#p" x="25.15" y="169.71" fill="#7f7fa6"/><g fill="#7f7fa6"><use xlink:href="#aQ" x="40.07" y="178.14"/><use xlink:href="#aR" x="40.69" y="171.07"/><use xlink:href="#p" x="41.31" y="164"/></g></svg>