<svg xmlns="http://www.w3.org/2000/svg" xmlns:xlink="http://www.w3.org/1999/xlink" width="114.475pt" height="119.171pt" viewBox="0 0 114.475 119.171"><defs><clipPath id="a"><path d="M.13281 0h113.6875v105H.13281Zm0 0"/></clipPath><clipPath id="b"><path d="M.13281 0h113.6875v118.34766H.13281Zm0 0"/></clipPath><clipPath id="c"><path d="M.13281 14h113.6875v104.34766H.13281Zm0 0"/></clipPath><clipPath id="d"><path d="M.13281 0h113.6875v118.34766H.13281Zm0 0"/></clipPath><path id="e" d="M1.07813-.375 4.3125-1.53125l-.09375-.28125-.875.21875C3.125-1.54687 3-1.5625 2.85938-1.95312L.79688-7.75l-.0625-.04687-1.90625 1.07812.07812.23438.95313-.21875c.1875-.04688.26562.01562.35937.29687L1.92188-1.625c.0625.20313.09374.3125.0625.42188-.03126.07812-.10938.125-.20313.17187l-.79687.375Zm0 0"/><path id="f" d="M-.09375-1.09375C.0625-.6875.98438-.20312 2.39063-.70312c1.42187-.5 2.0625-1.5625 1.625-2.82813-.46875-1.3125-1.75-1.29687-2.3125-1.15625l-.01563-.04687c.5-.26563 1.21875-.96875.875-1.9375-.39062-1.09375-1.42187-1.28125-2.48437-.90625-1.29688.46875-1.65625 1.4375-1.5 1.875.10937.28125.51562.34375.64062.29687.14063-.04687.17188-.14062.17188-.29687C-.625-6.4375-.40625-7 .14063-7.1875c.78125-.28125 1.21875.32813 1.42187.89063.20313.57812.25 1.40625-.59375 1.70312C.5-4.4375.20313-4.4375.07813-4.39062c-.125.04687-.14063.15625-.07813.32812.0625.15625.15625.26563.28125.21875s.34375-.25.8125-.40625c.84375-.29687 1.57813.28125 1.89063 1.15625.42187 1.17188-.01563 1.78125-.71875 2.03125-.65625.23438-1.25-.09375-1.64063-.57812C.5-1.8125.375-1.875.23438-1.82812c-.17188.0625-.45313.35937-.32813.73437m0 0"/><path id="g" d="M-1.51562-5.45312c.26562.71875 1.09375 1.125 1.82812.85937.73438-.26562 1.14063-1.10937.875-1.82812C.92188-7.15625.07813-7.57812-.65625-7.3125c-.73437.26563-1.125 1.125-.85937 1.85938m.53125-.20313c-.1875-.51562.07812-1.03125.5-1.1875.4375-.15625.9375.10938 1.125.625.1875.5-.0625.98438-.5 1.14063-.42188.15625-.9375-.07813-1.125-.57813m0 0"/></defs><path fill="#D9668C" stroke="#000" stroke-miterlimit="10" stroke-width=".39575" d="m58.55078 41.87109 15.79688 1.10547L85.9297 32.17577c-5.96485-6.39453-15.98438-6.7461-22.37892-.78125-2.9336 2.73438-4.71875 6.47657-5 10.47657Zm0 0"/><g clip-path="url(#a)"><path fill="none" stroke="#000" stroke-miterlimit="10" stroke-width=".39575" d="M-715.469-12.25393 879.9612 99.30861"/></g><g clip-path="url(#b)"><path fill="none" stroke="#000" stroke-miterlimit="10" stroke-width=".39575" d="M-504.6994 582.94549 664.97676-507.79316"/></g><path fill="#F66" stroke="#000" stroke-miterlimit="10" stroke-width=".39575" d="M51.1875 64.57422 39.60546 75.37501l15.79688 1.10156c.3047-4.3789-1.22265-8.69141-4.21484-11.90235Zm0 0"/><g clip-path="url(#c)"><path fill="none" stroke="#000" stroke-miterlimit="10" stroke-width=".39575" d="M-750.2112 20.14452 845.219 131.70706"/></g><g clip-path="url(#d)"><path fill="none" stroke="#000" stroke-miterlimit="10" stroke-width=".39575" d="M-539.4416 615.34394 630.23456-475.39471"/></g><use xlink:href="#e" x="58.02304" y="27.26632"/><use xlink:href="#f" x="63.2479" y="25.41619"/><use xlink:href="#f" x="68.47277" y="23.56606"/><use xlink:href="#g" x="73.69763" y="21.71592"/></svg>