<svg xmlns="http://www.w3.org/2000/svg" xmlns:xlink="http://www.w3.org/1999/xlink" width="104.991pt" height="57.639pt" viewBox="0 0 104.991 57.639"><defs><path id="d" d="M1.04688-3.40625c0 2.71875.60937 5.71875 3.17187 5.82813V2.0625C3.35938 1.89063 2.01563.82813 2.01563-3.40625c0-4.21875 1.28125-5.28125 2.20312-5.48437V-9.25c-2.5625.10938-3.17187 3.10938-3.17187 5.84375m0 0"/><path id="e" d="M.90625-1.45312c0 .78125.23438 1.59375 1.20313 1.59375 1.39062 0 2.46875-1.48438 3.1875-2.78125h.01562l-.39062 1.4375c-.0625.25-.10938.46875-.10938.65625 0 .4375.20313.6875.64063.6875.95312 0 1.57812-.82813 1.98437-1.73438l-.28125-.17187c-.21875.42187-.75 1.28125-1.09375 1.28125-.14062 0-.1875-.09375-.1875-.23438 0-.125.03125-.26562.07813-.42187l1.90625-7.78125-.0625-.04688-2.15625.28125-.0625.28125.71875.0625c.1875.01563.26562.0625.26562.20313 0 .0625-.01562.17187-.04687.29687l-.46875 1.95313-.01563.01562c-.23437-.10937-.60937-.20312-1.01562-.20312-2.82813 0-4.10938 3.15625-4.10938 4.625m1.1875.09374c0-1.3125 1.0625-4.29687 2.98438-4.29687.375 0 .70312.125.84375.25-.17188.92188-.57813 2.07813-1.20313 3.07813-.57812.9375-1.375 1.84375-2.01562 1.84375-.39063 0-.60938-.32813-.60938-.875m0 0"/><path id="g" d="M.71875 2.0625v.35938c2.5625-.10938 3.1875-3.10938 3.1875-5.82813 0-2.73437-.625-5.73437-3.1875-5.84375v.35938C1.64063-8.6875 2.9375-7.625 2.9375-3.40625c0 4.23438-1.35937 5.29688-2.21875 5.46875m0 0"/><path id="f" d="M.92188 0h2.84375v-.26562l-.6875-.0625c-.1875-.01563-.28125-.07813-.28125-.39063v-5L2.75-5.76562l-1.82812.3125v.21875l.73437.10937c.17188.01563.21875.07813.21875.34375v4.0625c0 .3125-.07812.375-.28125.39063l-.67187.0625Zm0 0"/><path id="h" d="M.25-.09375.34375 0H3.9375l.29688-1.20312-.25-.04688c-.20313.45313-.34375.51563-.6875.51563H1.125c.14063-.40625.59375-.98438 1.40625-1.53125C3.39063-2.84375 4-3.23437 4-4.17187c0-1.17188-.79687-1.59375-1.73437-1.59375-1.15625 0-1.8125.67187-1.8125 1.1875 0 .3125.34375.45312.53125.45312.15624 0 .23437-.09375.28124-.25.125-.60937.45313-1.07812.9375-1.07812C2.79688-5.45312 3-4.9375 3-4.3125 3-3.5 2.625-2.95312 1.82813-2.26562.75-1.34375.375-.73437.25-.09375m0 0"/><clipPath id="a"><path d="M31 10h73.66016v1H31Zm0 0"/></clipPath><clipPath id="b"><path d="M25 32h79.66016v21H25Zm0 0"/></clipPath><clipPath id="c"><path d="M36 0h64v57.28125H36Zm0 0"/></clipPath></defs><path fill="#f66" d="m86.15234 10.32031-10.98828.0039c0 2.78907 1.0664 5.47657 2.97266 7.51173Zm0 0"/><path fill="none" stroke="#000" stroke-miterlimit="10" stroke-width=".39602" d="M75.16406 10.32422c0 2.78906 1.06641 5.47656 2.97266 7.51172"/><path fill="#f66" d="m49.51563 44.66797 10.90234-1.36328C60.1289 41 59.11719 38.84766 57.53125 37.15234Zm0 0"/><path fill="none" stroke="#000" stroke-miterlimit="10" stroke-width=".39602" d="M60.41797 43.30469C60.1289 41 59.11719 38.84766 57.53125 37.15235"/><g clip-path="url(#a)"><path fill="none" stroke="#000" stroke-miterlimit="10" stroke-width=".39602" d="M31.20703 10.32422h73.25782"/></g><g clip-path="url(#b)"><path fill="none" stroke="#000" stroke-miterlimit="10" stroke-width=".39602" d="m31.20703 46.95313 73.25782-9.15625"/></g><g clip-path="url(#c)"><path fill="none" stroke="#000" stroke-miterlimit="10" stroke-width=".39602" d="M42.1914 51.53516 93.48047 3.45312"/></g><use xlink:href="#d" x="4.6124" y="13.53026"/><use xlink:href="#e" x="9.55479" y="13.53026"/><use xlink:href="#f" x="16.37652" y="16.36212"/><use xlink:href="#g" x="21.71598" y="13.53026"/><use xlink:href="#d" x="4.6124" y="50.15885"/><use xlink:href="#e" x="9.55479" y="50.15885"/><use xlink:href="#h" x="16.37652" y="52.99071"/><use xlink:href="#g" x="21.71598" y="50.15885"/></svg>