<svg xmlns="http://www.w3.org/2000/svg" xmlns:xlink="http://www.w3.org/1999/xlink" width="107.714pt" height="58.033pt" viewBox="0 0 107.714 58.033"><defs><path id="c" d="M1.03125-3.375c0 2.70313.60938 5.67188 3.14063 5.76563v-.35938C3.32813 1.875 1.98438.8125 1.98438-3.375c0-4.15625 1.28125-5.21875 2.1875-5.40625v-.35937c-2.53125.09375-3.14063 3.0625-3.14063 5.76562m0 0"/><path id="d" d="M.89063-1.4375c0 .78125.23437 1.57813 1.20312 1.57813 1.375 0 2.4375-1.46875 3.14063-2.75h.03125L4.85938-1.1875c-.0625.25-.09375.46875-.09375.64063 0 .4375.20312.6875.625.6875.9375 0 1.5625-.8125 1.96875-1.71875L7.07813-1.75C6.85938-1.32812 6.32813-.48437 6-.48437c-.14062 0-.1875-.09375-.1875-.23438 0-.10937.03125-.25.07813-.42187l1.875-7.6875-.0625-.04688-2.125.28125-.0625.28125.71875.0625c.1875.01563.26562.0625.26562.20313 0 .0625-.01562.17187-.0625.29687l-.45312 1.92188-.03125.01562c-.21875-.10937-.59375-.20312-1-.20312-2.78125 0-4.0625 3.125-4.0625 4.57812m1.1875.09375c0-1.29687 1.04687-4.25 2.95312-4.25.375 0 .6875.125.82813.25-.1875.90625-.57813 2.04688-1.1875 3.03125-.57813.9375-1.35938 1.82813-2 1.82813-.375 0-.59375-.3125-.59375-.85938m0 0"/><path id="f" d="M.71875 2.03125v.35938C3.25 2.29688 3.85938-.67187 3.85938-3.375S3.25-9.04687.71875-9.14062v.35937c.90625.1875 2.1875 1.25 2.1875 5.40625 0 4.1875-1.34375 5.25-2.1875 5.40625m0 0"/><path id="e" d="M.90625 0h2.8125v-.26562l-.67187-.0625c-.1875-.01563-.26563-.07813-.26563-.39063v-4.9375l-.0625-.04687-1.79687.3125v.21875l.71875.09375c.15624.03125.21874.09375.21874.34375v4.01562c0 .3125-.07812.375-.28124.39063l-.67188.0625Zm0 0"/><path id="g" d="M.23438-.09375.34375 0h3.54688l.29687-1.20312-.25-.03126c-.1875.4375-.34375.5-.6875.5H1.10938c.14062-.40624.57812-.95312 1.39062-1.5.85938-.57812 1.46875-.96875 1.46875-1.89062 0-1.17187-.79687-1.57812-1.73437-1.57812-1.14063 0-1.78125.65625-1.78125 1.17187 0 .29688.34375.4375.51562.4375.17188 0 .25-.07812.28125-.25.14063-.57812.4375-1.04687.9375-1.04687.59375 0 .78125.51562.78125 1.10937 0 .8125-.375 1.35938-1.15625 2.03125C.73438-1.32812.35938-.71875.23438-.09375m0 0"/><clipPath id="a"><path d="M25 0h81.6914v24H25Zm0 0"/></clipPath><clipPath id="b"><path d="M30 21h76.6914v32H30Zm0 0"/></clipPath></defs><path fill="#d9668c" d="m59.8711 13.25781-7.0586-8.26953c-2.92969 2.5-4.32031 6.36719-3.65234 10.16016Zm0 0"/><path fill="none" stroke="#000" stroke-miterlimit="10" stroke-width=".39197" d="M52.8125 4.98829c-2.92968 2.5-4.3203 6.36718-3.65234 10.16015"/><path fill="#d9668c" d="M78.4375 35.02344 71.3789 26.75c-3.22656 2.7539-4.55859 7.13281-3.41015 11.21875Zm0 0"/><path fill="none" stroke="#000" stroke-miterlimit="10" stroke-width=".39197" d="M71.3789 26.75c-3.22656 2.7539-4.55859 7.13281-3.41015 11.21875"/><g clip-path="url(#a)"><path fill="none" stroke="#000" stroke-miterlimit="10" stroke-width=".39197" d="m31.3086 18.29688 71.41014-12.58985"/></g><g clip-path="url(#b)"><path fill="none" stroke="#000" stroke-miterlimit="10" stroke-width=".39197" d="m36.34766 46.85937 70.14843-19.73046"/></g><path fill="none" stroke="#000" stroke-miterlimit="10" stroke-width=".39197" d="M89.58203 48.08593 48.72266.19532"/><use xlink:href="#c" x="4.9883" y="21.47123"/><use xlink:href="#d" x="9.88013" y="21.47123"/><use xlink:href="#e" x="16.63208" y="24.27284"/><use xlink:href="#f" x="21.91691" y="21.47123"/><use xlink:href="#c" x="10.02438" y="50.0333"/><use xlink:href="#d" x="14.91622" y="50.0333"/><use xlink:href="#g" x="21.66816" y="52.83619"/><use xlink:href="#f" x="26.95428" y="50.0333"/></svg>