<svg xmlns="http://www.w3.org/2000/svg" xmlns:xlink="http://www.w3.org/1999/xlink" width="181.531" height="99.741" viewBox="0 0 181.531 99.741"><defs><path id="c" d="M1.8125-5.92187c0 4.73437 1.07813 9.95312 5.51563 10.125v-.625c-1.5-.29688-3.84375-2.14063-3.84375-9.5 0-7.3125 2.23437-9.17188 3.84375-9.5v-.625c-4.4375.17187-5.51563 5.375-5.51563 10.125m0 0"/><path id="d" d="M1.5625-2.53125C1.5625-1.15625 1.96875.25 3.67188.25c2.40625 0 4.28125-2.57812 5.51562-4.82812h.04688l-.6875 2.5c-.125.42187-.1875.79687-.1875 1.10937C8.35938-.17187 8.71875.25 9.45313.25c1.65625 0 2.75-1.4375 3.46875-3.01562l-.48438-.29688c-.39062.73438-1.32812 2.21875-1.90625 2.21875-.25 0-.32812-.15625-.32812-.40625 0-.20312.0625-.45312.125-.73437L13.64063-15.5l-.10938-.07812-3.73437.48437-.10938.5 1.25.10938c.32813.01562.46875.10937.46875.35937q0 .16406-.09375.51563l-.79687 3.375-.04688.03125c-.40625-.1875-1.0625-.34375-1.76562-.34375-4.90625 0-7.14063 5.46875-7.14063 8.01562m2.07813.1875c0-2.28125 1.84375-7.46875 5.1875-7.46875.65625 0 1.21875.20313 1.45312.42188-.3125 1.60937-1 3.59375-2.07812 5.34375-1 1.625-2.39063 3.20312-3.5 3.20312-.67188 0-1.0625-.5625-1.0625-1.5m0 0"/><path id="f" d="M1.25 3.57813v.625c4.45313-.17188 5.53125-5.39063 5.53125-10.125 0-4.75-1.07812-9.95313-5.53125-10.125v.625c1.60938.32812 3.84375 2.1875 3.84375 9.5 0 7.35937-2.34375 9.20312-3.84375 9.5m0 0"/><path id="e" d="M1.59375 0h4.9375v-.45312L5.35938-.5625C5.03125-.59375 4.875-.70312 4.875-1.25v-8.67187L4.78125-10l-3.17187.53125v.39063l1.26562.17187c.28125.04688.375.15625.375.60938V-1.25c0 .54688-.14062.65625-.48437.6875l-1.17188.10938Zm0 0"/><path id="g" d="M.42188-.17187.59375 0h6.23438l.53125-2.09375-.4375-.07812c-.34375.78125-.60938.89062-1.20313.89062H1.95313c.23437-.70312 1.01562-1.6875 2.45312-2.65625 1.48438-1 2.54688-1.6875 2.54688-3.29687C6.95313-9.28125 5.5625-10 3.9375-10 1.92188-10 .78125-8.84375.78125-7.95312c0 .53125.60938.78125.92188.78125.28124 0 .42187-.15625.48437-.4375.23438-1.03125.78125-1.84375 1.64063-1.84375 1.04687 0 1.375.89062 1.375 1.95312 0 1.42188-.64063 2.35938-2.03125 3.54688-1.875 1.625-2.53125 2.6875-2.75 3.78125m0 0"/><clipPath id="a"><path d="M53 17h128.0625v2H53Zm0 0"/></clipPath><clipPath id="b"><path d="M48 60h133.0625v28H48Zm0 0"/></clipPath></defs><path fill="#F66" d="M149.0586 17.9414h-25.44532c0 6.46094 2.46094 12.6875 6.88281 17.40235Zm0 0"/><path fill="none" stroke="#000" stroke-miterlimit="10" stroke-width=".39747" d="M123.61328 17.9414c0 6.46094 2.46094 12.6875 6.88281 17.40235"/><path fill="#F66" d="m85.45703 77.5664 25.2461-3.15624c-.66407-5.33594-3.00782-10.32422-6.6836-14.2461Zm0 0"/><path fill="none" stroke="#000" stroke-miterlimit="10" stroke-width=".39747" d="M110.70313 74.41016c-.66407-5.33594-3.00782-10.32422-6.6836-14.2461"/><g clip-path="url(#a)"><path fill="none" stroke="#000" stroke-miterlimit="10" stroke-width=".39747" d="M53.64844 17.9375h127.21484"/></g><g clip-path="url(#b)"><path fill="none" stroke="#000" stroke-miterlimit="10" stroke-width=".39747" d="m53.64844 81.54688 127.21484-15.90235"/></g><path fill="none" stroke="#000" stroke-miterlimit="10" stroke-width=".39747" d="m72.73438 89.49219 89.04296-83.47656"/><use xlink:href="#c" x="7.45284" y="23.50496"/><use xlink:href="#d" x="16.03827" y="23.50496"/><use xlink:href="#e" x="27.88828" y="28.42419"/><use xlink:href="#f" x="37.16568" y="23.50496"/><use xlink:href="#c" x="7.45284" y="87.1118"/><use xlink:href="#d" x="16.03827" y="87.1118"/><use xlink:href="#g" x="27.88828" y="92.03102"/><use xlink:href="#f" x="37.16568" y="87.1118"/></svg>