<svg xmlns="http://www.w3.org/2000/svg" xmlns:xlink="http://www.w3.org/1999/xlink" width="117.53pt" height="92.403pt" viewBox="0 0 117.53 92.403"><defs><path id="c" d="M-2.54687-1.375C-.67187-.67187.51563-1.03125 1-2.34375c.48438-1.28125-.04687-2.25-1.23437-2.6875-1.1875-.45312-2.07813.03125-2.4375.96875-.25.6875.01562 1.35938.21875 1.70313v.01562c-1.92188-.71875-2.5-1.54687-2.20313-2.34375.14063-.39062.59375-.54687 1.14063-.5.10937.01563.23437-.03125.28125-.15625.0625-.1875.01562-.51562-.21875-.59375-.35938-.14062-1.07813.07813-1.46875 1.10938-.53125 1.39062.20312 2.64062 2.375 3.45312m.95312-.65625c-.53125-.20312-1.01562-.82812-.75-1.5625.20313-.54687.90625-.89062 1.90625-.51562.92188.32812 1.40625.90625 1.125 1.64062-.28125.76563-1.23437.82813-2.28125.4375m0 0"/><path id="d" d="m-4.45312-2.07812.07812-.23438-.15625-.15625c-.1875-.20312-.28125-.35937-.14062-.75l.875-2.34375c.29687.17188.73437.54688 1.46875 1.64063.8125 1.125 1.60937 2 2.625 2.375.29687.10937.4375-.07813.53125-.35938.09374-.25.07812-.4375-.17188-.53125C-.51562-2.82812-1.35937-3.39062-2-4.17187c-.75-.92188-1.125-1.59375-2.09375-2.29688l-.14062.03125-1.35938 3.64063Zm0 0"/><path id="e" d="M-4.59375-2.09375c.65625.25 1.39063-.09375 1.625-.73437.25-.65625-.07812-1.40625-.73437-1.65625s-1.39063.10937-1.64063.76562c-.23437.64063.09375 1.375.75 1.625m.17188-.48437c-.45313-.17188-.65625-.625-.51563-1 .15625-.39063.60938-.59375 1.0625-.42188.4375.17188.65625.625.5 1.01563-.14062.375-.60937.57812-1.04687.40625m0 0"/><path id="f" d="m.95313.35938 2.85937 1.0625.09375-.25-.70312-.34375c-.1875-.09376-.26563-.17188-.125-.53125l1.90625-5.125-.04688-.0625-1.89062-.375-.07813.21875.76563.40625c.14062.07812.1875.17187.09375.40625L2.25-.01562c-.0625.17187-.125.28125-.20312.3125-.07813.04687-.15625.03125-.23438 0l-.76562-.1875Zm0 0"/><path id="g" d="M.67188-.76562C.53125-.375.9375.46875 2.0625.89063 3.5 1.42188 4.46875.78125 4.875-.3125c.45313-1.21875-.0625-2.125-1.09375-2.51562C3.29688-3 2.6875-3 2.3125-2.85937l.79688-1.5625c.125-.20313.1875-.21875.34375-.15625l2.17187.8125.4375-.5-.01562-.10938-2.90625-1.09375-.125.0625-1.25 2.84375.17187.20313c.5-.29688.9375-.375 1.42188-.20313.54687.21875 1 .85938.57812 2C3.59375.34375 2.98438.89063 2.23438.59375 1.60938.375 1.46875-.1875 1.46875-.75c.01563-.14062-.04687-.25-.15625-.29687-.1875-.0625-.53125 0-.64062.28124m0 0"/><path id="h" d="M2.09375-4.59375c-.25.65625.09375 1.39063.73438 1.625.65625.25 1.40625-.07812 1.65625-.73437S4.375-5.09375 3.71875-5.34375c-.64062-.23437-1.375.09375-1.625.75m.48438.17188c.17187-.45313.625-.65625 1-.51563.39062.15625.59375.60938.42187 1.0625-.17187.4375-.625.65625-1.01562.5-.375-.14062-.57813-.60937-.40625-1.04687m0 0"/><clipPath id="a"><path d="M.14453 0h116.77344v91.8086H.14453Zm0 0"/></clipPath><clipPath id="b"><path d="M.14453 0h116.77344v91.8086H.14453Zm0 0"/></clipPath></defs><path fill="#FFB266" stroke="#000" stroke-miterlimit="10" stroke-width=".39594" d="m96.41017 37.85156-13.77344 2.92969 8.47656 11.2461c4.3672-3.29298 6.4375-8.82032 5.29688-14.1758Zm0 0"/><g fill="none" stroke="#000" stroke-miterlimit="10" stroke-width=".3985" clip-path="url(#a)"><path stroke-width=".39594" d="M-341.11342-521.55489 514.86345 614.36348M-606.0979 187.17583 785.1448-108.54302"/></g><path fill="#66CEF5" stroke="#000" stroke-miterlimit="10" stroke-width=".39594" d="m25.9492 39.78125 8.47657 11.2461 13.77345-2.92579c-1.04297-4.92187-4.63672-8.91016-9.42188-10.46484-4.3672-1.42188-9.15626-.6211-12.82813 2.14453Zm0 0"/><g fill="none" stroke="#000" stroke-miterlimit="10" stroke-width=".3985" clip-path="url(#b)"><path stroke-width=".39594" d="M-389.32438-511.3088 466.6525 624.6135M-654.30885 197.42193 736.93384-98.29302"/></g><use xlink:href="#c" x="103.03697" y="55.41"/><use xlink:href="#d" x="104.76324" y="50.79284"/><use xlink:href="#e" x="106.48952" y="46.17569"/><use xlink:href="#f" x="32.28409" y="30.99475"/><use xlink:href="#f" x="36.90125" y="32.72103"/><use xlink:href="#g" x="41.51841" y="34.4473"/><use xlink:href="#h" x="46.13557" y="36.17358"/></svg>