<svg xmlns="http://www.w3.org/2000/svg" width="73.88pt" height="33.642pt" viewBox="0 0 73.88 33.642"><defs><clipPath id="a"><path d="M.32813 6h73.10546v21H.32813Zm0 0"/></clipPath><clipPath id="b"><path d="M.32813 0h73.10546v33.28906H.32813Zm0 0"/></clipPath></defs><path fill="#FFB266" d="m36.8789 16.64453-13.92578-1.63672c-.3203 2.72657.16797 5.48438 1.39844 7.9375Zm0 0"/><path fill="none" stroke="#000" stroke-miterlimit="10" stroke-width=".3943" d="M22.95312 15.00781c-.32031 2.72656.16797 5.48438 1.39844 7.9375"/><path fill="#FFB266" d="m36.8789 16.64453 13.9297 1.63672c.3203-2.72656-.16797-5.48828-1.39844-7.9375Zm0 0"/><path fill="none" stroke="#000" stroke-miterlimit="10" stroke-width=".3943" d="M50.8086 18.28125c.32031-2.72656-.16797-5.48828-1.39844-7.9375"/><g clip-path="url(#a)"><path fill="none" stroke="#000" stroke-miterlimit="10" stroke-width=".3943" d="m.52733 12.375 72.70706 8.53906"/></g><g clip-path="url(#b)"><path fill="none" stroke="#000" stroke-miterlimit="10" stroke-width=".3943" d="M4.17967 33.08985 69.58204.1992"/></g></svg>