<svg xmlns="http://www.w3.org/2000/svg" xmlns:xlink="http://www.w3.org/1999/xlink" width="76.945" height="149.438" viewBox="0 0 76.945 149.438"><defs><path id="a" d="M2.28125 0h6.89063v-.60937L7.40625-.76563c-.4375-.03124-.6875-.1875-.6875-1.01562v-12.375l-.10937-.10937-4.32813.73437v.51563l1.96875.25c.34375.03125.48438.1875.48438.79687v10.1875c0 .39063-.04688.64063-.17188.79688-.125.15624-.29687.20312-.51562.21874l-1.76563.15626Zm0 0"/><path id="b" d="m1.07813 2.5625.39062.40625C2.51563 1.98438 4.04688.57813 4.04688-1.07812c0-1.10938-.60938-1.89063-1.40625-1.89063-.65625 0-1.0625.51563-1.0625 1.04688 0 .76562.70312 1.15625.70312 2.0625 0 .85937-.54687 1.6875-1.20312 2.42187m0 0"/><path id="c" d="M.5625-.20312.78125 0h8.6875l.71875-2.76562-.59375-.10938c-.4375 1.14063-.85937 1.29688-1.71875 1.29688H2.51563c.34375-1.09375 1.59375-2.59375 3.53125-4C8.0625-7.0625 9.625-8 9.625-10.34375c0-2.92187-1.9375-3.92187-4.15625-3.92187-2.875 0-4.35937 1.73437-4.35937 2.82812 0 .71875.8125 1.0625 1.17187 1.0625.375 0 .51563-.23437.59375-.59375.34375-1.42187 1.17188-2.5625 2.46875-2.5625 1.59375 0 2.0625 1.34375 2.0625 2.875 0 2.26563-1.125 3.53125-2.96875 5.14063-2.57812 2.25-3.48437 3.6875-3.875 5.3125m0 0"/><path id="d" d="M.40625-4.20312.57813-3.75h5.71875v2.14063c0 .71875-.21875.82812-.73438.875l-1.34375.125V0H9.75v-.60937l-.9375-.10938c-.48437-.0625-.625-.17187-.625-.89062V-3.75h2.15625v-.98437H8.1875v-9.28125H6.65625C4.6875-11.125 2.32813-7.48437.40625-4.20312m1.51563-.53125c1.25-2.28125 2.71875-4.70313 4.32812-7.25h.04688v7.25Zm0 0"/><path id="e" d="M1.67188-5.92187c0 .73437.57812 1.32812 1.3125 1.32812.75 0 1.34375-.59375 1.34375-1.32812 0-.73438-.59375-1.3125-1.34375-1.3125-.73438 0-1.3125.57812-1.3125 1.3125m0 0"/><path id="f" d="m3.03125-2.28125.875.875L7.54688-5.0625l3.65625 3.65625.85937-.875-3.64062-3.64062 3.64062-3.65625-.85937-.84375-3.65625 3.64062-3.64063-3.64062-.875.84375 3.67188 3.65625Zm0 0"/></defs><use xlink:href="#a" x="32.88501" y="26.42437"/><use xlink:href="#b" x="45.94921" y="26.42437"/><use xlink:href="#c" x="53.47508" y="26.42437"/><use xlink:href="#a" x="32.88501" y="53.22458"/><use xlink:href="#b" x="45.94921" y="53.22458"/><use xlink:href="#c" x="53.47508" y="53.22458"/><use xlink:href="#c" x="32.88501" y="80.02255"/><use xlink:href="#d" x="53.47508" y="80.02255"/><use xlink:href="#a" x="12.29395" y="106.82052"/><use xlink:href="#c" x="32.88401" y="106.82052"/><use xlink:href="#e" x="56.12113" y="106.82052"/><use xlink:href="#a" x="12.29395" y="133.61849"/><use xlink:href="#b" x="25.35815" y="133.61849"/><use xlink:href="#d" x="32.88401" y="133.61849"/><use xlink:href="#d" x="53.47408" y="133.61849"/><path fill="none" stroke="#000" stroke-miterlimit="10" stroke-width=".89214" d="M7.5586 113.51953h61.77343M7.5586 59.92187h61.77343"/><use xlink:href="#f" x="7.55976" y="53.22458"/></svg>