<svg xmlns="http://www.w3.org/2000/svg" xmlns:xlink="http://www.w3.org/1999/xlink" width="118.28pt" height="149.438pt" viewBox="0 0 118.28 149.438"><defs><path id="a" d="M.5625-2.14062C.5625-1.25 2 .25 4.96875.25 8 .25 9.92188-1.29687 9.92188-3.96875c0-2.8125-2.40625-3.625-3.57813-3.73437v-.09375c1.14063-.1875 2.95313-1.03125 2.95313-3.09375 0-2.32813-1.8125-3.34375-4.0625-3.34375-2.76563 0-4.125 1.59375-4.125 2.5 0 .64062.73437 1 1.03125 1 .26562 0 .42187-.15625.51562-.42188C3.125-12.59375 3.90625-13.5 5.07813-13.5c1.65625 0 2.07812 1.45313 2.07812 2.625 0 1.25-.45312 2.82813-2.23437 2.82813-1 0-1.57813-.20313-1.82813-.20313-.26562 0-.375.20313-.375.57813 0 .35937.10938.59375.375.59375.25 0 .82813-.20313 1.82813-.20313 1.78125 0 2.78125 1.59375 2.78125 3.42188 0 2.5-1.21875 3.375-2.71875 3.375-1.375 0-2.28125-1.03125-2.6875-2.21875-.14063-.39063-.34375-.59375-.625-.59375-.375 0-1.10938.40625-1.10938 1.15625m0 0"/><path id="b" d="m1.0625 2.5625.40625.40625c1.04688-.98437 2.5625-2.39062 2.5625-4.03125 0-1.125-.59375-1.90625-1.40625-1.90625-.64062 0-1.04687.51563-1.04687 1.04688 0 .76562.6875 1.17187.6875 2.0625 0 .85937-.53125 1.6875-1.20313 2.42187m0 0"/><path id="c" d="m.40625-4.1875.17188.4375h5.70312v2.14063c0 .71875-.21875.82812-.73437.875l-1.32813.125V0h5.51563v-.60937l-.9375-.10938c-.48438-.0625-.625-.17187-.625-.89062V-3.75h2.14062v-.96875H8.17188V-14H6.64063C4.67188-11.09375 2.3125-7.46875.40625-4.1875m1.51563-.53125C3.15625-7 4.64063-9.42187 6.23438-11.96875h.04687v7.25Zm0 0"/><path id="d" d="M.875-11.04687h.54688L1.625-11.5c.26563-.57812.5625-.89062 1.5-.89062h5.65625C8.57813-11.625 8.17188-10.42187 6.48438-8 4.67188-5.42187 3.5-3.07812 3.5-.60937 3.5.09374 3.98438.25 4.64063.25c.59375 0 1.04687-.1875 1.01562-.78125-.10937-2.76562.45313-5.01562 1.5625-6.95312 1.34375-2.34375 2.45313-3.65625 3.1875-6.28125L10.23438-14H1.51563Zm0 0"/><path id="e" d="M.5625-.20312.78125 0h8.67188l.70312-2.76562-.57812-.10938c-.4375 1.14063-.85938 1.29688-1.71875 1.29688H2.51563c.34375-1.09375 1.57812-2.59375 3.51562-3.98438 2.01563-1.48437 3.57813-2.42187 3.57813-4.75 0-2.92187-1.9375-3.92187-4.15625-3.92187-2.875 0-4.34375 1.73437-4.34375 2.82812 0 .71875.8125 1.04688 1.15625 1.04688.39062 0 .51562-.21875.60937-.57813C3.20313-12.35937 4.03125-13.5 5.32813-13.5c1.59375 0 2.0625 1.32813 2.0625 2.875 0 2.25-1.125 3.51563-2.95313 5.125C1.84375-3.25.95313-1.82812.5625-.20312m0 0"/><path id="f" d="M.90625-6.46875C.90625-1.9375 2.5625.25 5.70313.25c3.09375 0 4.75-1.875 4.75-4.73437 0-2.82813-1.73438-4.35938-3.98438-4.35938-1.65625 0-2.875 1.10938-3.4375 1.79688h-.04687C3.01563-11.65625 4.32813-13.5 6.21875-13.5c.95313 0 1.64063.79688 1.95313 2 .07812.25.23437.45313.54687.45313.46875 0 1.10938-.39063 1.10938-.96875 0-.84375-1.03125-2.21875-3.54688-2.21875-3.3125 0-5.375 2.5625-5.375 7.76562m2.125 1.51563c0-1.26563.95313-2.82813 2.71875-2.82813 1.3125 0 2.60938 1.20313 2.60938 3.60938 0 2.21875-.84375 3.6875-2.60938 3.6875-1.82812 0-2.71875-1.9375-2.71875-4.46875m0 0"/><path id="g" d="M.75-9.57812c0 2.625 1.875 3.96875 4.04688 3.96875 1.28125 0 2.375-.73438 3.09375-1.76563h.04687c0 1.3125-.09375 3.01563-.46875 4.45313-.39062 1.39062-1.125 2.4375-2.45312 2.4375-1.42188 0-1.96875-1.125-2.28125-2.09375-.07813-.28125-.21875-.4375-.57813-.4375-.39062 0-.96875.4375-.96875 1.07812C1.1875-1.03125 2.26563.25 4.8125.25 6.5.25 7.79688-.375 8.59375-1.5c.875-1.20312 1.39063-3.01562 1.39063-6.04687 0-2.60938-.51563-4.3125-1.34375-5.28125-.79688-.9375-1.9375-1.40625-3.26563-1.40625-2.67187 0-4.625 1.75-4.625 4.65625m2.10938-.57813c0-1.92187.85937-3.34375 2.48437-3.34375 1.67188 0 2.5 1.98438 2.5 4.01563 0 .34375-.01562.76562-.15625 1.10937-.32812.98438-1.15625 1.64063-2.26562 1.64063-1.64063 0-2.5625-1.42188-2.5625-3.42188m0 0"/><path id="h" d="M2.26563 0h6.89062v-.60937L7.39063-.75c-.4375-.04687-.6875-.20312-.6875-1.03125V-14.125l-.10938-.10937L2.26563-13.5v.51563l1.96875.23437c.35937.04688.48437.20313.48437.8125v10.15625c0 .40625-.04687.64063-.17187.79688C4.4375-.82813 4.25-.78125 4.03125-.75l-1.76562.14063Zm0 0"/><path id="i" d="M.875-7C.875-2.8125 2.09375.25 5.54688.25S10.25-2.8125 10.25-7 9-14.23437 5.54688-14.23437.875-11.1875.875-7m2.10938 0c0-3.40625.57812-6.5 2.5625-6.5 1.98437 0 2.5625 3.09375 2.5625 6.5S7.53125-.48437 5.54688-.48437C3.5625-.48437 2.98438-3.59375 2.98438-7m0 0"/><path id="j" d="M1.67188-5.90625c0 .73438.57812 1.3125 1.3125 1.3125.73437 0 1.34375-.57812 1.34375-1.3125 0-.73437-.60938-1.3125-1.34375-1.3125-.73438 0-1.3125.57813-1.3125 1.3125m0 0"/><path id="k" d="m3.03125-2.26562.875.85937 3.625-3.65625 3.65625 3.65625.84375-.85937-3.625-3.64063 3.625-3.65625-.84375-.84375-3.65625 3.625-3.625-3.625-.875.84375L6.6875-5.90625Zm0 0"/></defs><use xlink:href="#a" x="53.2337" y="26.53605"/><use xlink:href="#b" x="66.26769" y="26.53605"/><use xlink:href="#c" x="73.77615" y="26.53605"/><use xlink:href="#d" x="94.3186" y="26.53605"/><use xlink:href="#a" x="73.77715" y="53.27429"/><use xlink:href="#b" x="86.81113" y="53.27429"/><use xlink:href="#e" x="94.3196" y="53.27429"/><use xlink:href="#f" x="53.2337" y="80.01029"/><use xlink:href="#g" x="73.77615" y="80.01029"/><use xlink:href="#c" x="94.3186" y="80.01029"/><use xlink:href="#h" x="12.14905" y="106.74629"/><use xlink:href="#i" x="32.6915" y="106.74629"/><use xlink:href="#c" x="53.23394" y="106.74629"/><use xlink:href="#h" x="73.77639" y="106.74629"/><use xlink:href="#j" x="96.95953" y="106.74629"/><use xlink:href="#h" x="12.14905" y="133.48229"/><use xlink:href="#h" x="32.6915" y="133.48229"/><use xlink:href="#b" x="45.72548" y="133.48229"/><use xlink:href="#h" x="53.23394" y="133.48229"/><use xlink:href="#i" x="73.77639" y="133.48229"/><use xlink:href="#c" x="94.31884" y="133.48229"/><path fill="none" stroke="#000" stroke-miterlimit="10" stroke-width=".89008" d="M7.42578 113.42969h102.71096M27.96875 59.95703h82.16798"/><use xlink:href="#k" x="27.96924" y="53.27429"/></svg>