<svg xmlns="http://www.w3.org/2000/svg" xmlns:xlink="http://www.w3.org/1999/xlink" width="218.925pt" height="68.077pt" viewBox="0 0 218.925 68.077"><defs><path id="a" d="M.98438-2.92187H3.8125v2.82812H4.5v-2.82812h2.82813v-.67188H4.5V-6.4375h-.6875v2.84375H.98438Zm0 0"/><path id="b" d="M.875 0h2.65625v-.23437l-.67187-.0625C2.6875-.3125 2.59375-.375 2.59375-.6875v-4.76562l-.04687-.03125L.875-5.20312v.1875l.76563.09375c.125.01562.1875.07812.1875.3125V-.6875c0 .15625-.01563.25-.07813.3125-.04687.0625-.10937.07813-.1875.07813l-.6875.0625Zm0 0"/><path id="c" d="m.21875-2.3125.09375.25h3.15625v1.17188c0 .40625-.125.45312-.40625.48437l-.73437.07813V0h3.03125v-.32812l-.51563-.0625C4.57813-.4375 4.5-.48437 4.5-.89062V-2.0625h1.1875v-.54687H4.5v-5.10938h-.84375C2.57813-6.10937 1.28125-4.10937.21875-2.3125m.84375-.29687c.6875-1.25 1.48438-2.57813 2.375-3.98438h.03125v3.98438Zm0 0"/><path id="d" d="M.48438-6.09375h.29687l.10938-.25c.15624-.3125.3125-.48437.82812-.48437h3.125C4.73438-6.40625 4.5-5.75 3.57813-4.40625c-1 1.42188-1.65625 2.71875-1.65625 4.07813 0 .375.28124.46875.625.46875.34375 0 .57812-.10938.57812-.4375-.0625-1.51563.23438-2.76563.85938-3.82813.73437-1.29687 1.34375-2.01562 1.75-3.46875l-.09375-.125H.82813Zm0 0"/><path id="e" d="M.48438-2.09375C.48438-.9375 1.1875.14063 3.0625.14063c1.85938 0 2.57813-1.07813 2.57813-2.23438 0-1.1875-.73438-1.85937-1.53125-2.04687v-.01563C4.8125-4.34375 5.375-4.9375 5.375-5.875c0-1.26562-.98437-1.96875-2.3125-1.96875-1.32812 0-2.32812.70313-2.32812 1.96875 0 .9375.59375 1.53125 1.28125 1.71875v.01563c-.78125.1875-1.53125.85937-1.53125 2.04687m1.15625.03125c0-1.0625.5-1.84375 1.42187-1.84375.92188 0 1.42188.78125 1.42188 1.84375 0 1.01563-.45313 1.79688-1.42188 1.79688S1.64063-1.04687 1.64063-2.0625m.21874-3.84375c0-.89062.40626-1.53125 1.20313-1.53125.78125 0 1.20313.64063 1.20313 1.53125 0 .78125-.375 1.57813-1.20313 1.57813-.84375 0-1.20312-.79688-1.20312-1.57813m0 0"/><path id="f" d="m.59375 1.40625.21875.23438C1.39063 1.09375 2.21875.3125 2.21875-.59375c0-.60937-.32812-1.04687-.76562-1.04687-.35938 0-.57813.29687-.57813.57812 0 .42188.375.64063.375 1.14063C1.25.54688.95313 1 .59375 1.40625m0 0"/><path id="g" d="M.3125-1.17187c0 .48437.79688 1.3125 2.42188 1.3125 1.67187 0 2.73437-.85938 2.73437-2.32813 0-1.54687-1.32812-2-1.96875-2.0625v-.04687C4.125-4.39062 5.125-4.85937 5.125-6c0-1.28125-1-1.84375-2.23437-1.84375-1.53125 0-2.28125.875-2.28125 1.375 0 .35938.40625.54688.5625.54688.15624 0 .23437-.07813.29687-.23438.25-.78125.6875-1.28125 1.32813-1.28125.90625 0 1.14062.79688 1.14062 1.4375 0 .6875-.23437 1.5625-1.21875 1.5625-.5625 0-.875-.10937-1.01562-.10937-.14063 0-.20313.10937-.20313.32812 0 .1875.0625.3125.20313.3125.14062 0 .45312-.10937 1.01562-.10937.98438 0 1.53125.89062 1.53125 1.89062 0 1.375-.67187 1.85938-1.5 1.85938-.76562 0-1.26562-.5625-1.48437-1.21875-.07813-.21876-.1875-.32813-.34375-.32813-.20313 0-.60938.21875-.60938.64063m0 0"/><path id="h" d="M1.25 0h3.79688v-.32812l-.96875-.09375c-.25-.01563-.375-.10938-.375-.5625v-6.79688l-.0625-.0625L1.25-7.4375v.28125l1.07813.125c.20312.03125.28125.10938.28125.45313v5.59375c0 .21874-.03125.35937-.10938.4375-.0625.09374-.15625.10937-.28125.125L1.25-.32812Zm0 0"/><path id="i" d="M.3125-.10937.4375 0h4.76563l.39062-1.51562-.3125-.0625c-.25.625-.48437.70312-.95312.70312h-2.9375c.1875-.59375.875-1.42187 1.9375-2.1875 1.10937-.8125 1.96875-1.32812 1.96875-2.625 0-1.60937-1.07813-2.15625-2.28125-2.15625-1.59375 0-2.40625.95313-2.40625 1.5625 0 .39063.45312.57813.64062.57813.21875 0 .28125-.125.32813-.32813.1875-.78125.64062-1.40625 1.35937-1.40625.875 0 1.14063.73438 1.14063 1.57813 0 1.23437-.625 1.9375-1.64063 2.82812C1.01563-1.79687.53125-1 .3125-.10937m0 0"/><path id="j" d="M.48438-3.85937c0 2.3125.67187 4 2.57812 4s2.59375-1.6875 2.59375-4-.6875-3.98438-2.59375-3.98438S.48438-6.17187.48438-3.85937m1.15625 0c0-1.875.32812-3.57813 1.42187-3.57813s1.40625 1.70313 1.40625 3.57813S4.15625-.26562 3.0625-.26562 1.64063-1.98437 1.64063-3.85937m0 0"/><path id="k" d="M.5-3.5625c0 2.5.90625 3.70313 2.64063 3.70313 1.70312 0 2.625-1.03125 2.625-2.60938 0-1.5625-.96875-2.40625-2.20313-2.40625-.90625 0-1.57812.60938-1.89062 1h-.03126c.01563-2.54687.73438-3.5625 1.78126-3.5625.53125 0 .90625.4375 1.07812 1.09375.04688.14063.125.25.29688.25.26562 0 .625-.20312.625-.53125 0-.46875-.57813-1.21875-1.95313-1.21875C1.64063-7.84375.5-6.4375.5-3.5625m1.17188.84375c0-.70312.53125-1.5625 1.5-1.5625.71875 0 1.4375.65625 1.4375 1.98438 0 1.21875-.46875 2.03125-1.4375 2.03125-1.01563 0-1.5-1.07813-1.5-2.45313m0 0"/><path id="l" d="M.42188-5.28125c0 1.45313 1.03125 2.1875 2.21875 2.1875.71875 0 1.3125-.40625 1.70312-.96875H4.375c0 .71875-.04687 1.65625-.26562 2.45313C3.90625-.84375 3.5-.26562 2.76563-.26562c-.78125 0-1.07813-.625-1.25-1.15625-.04688-.15626-.125-.23438-.32813-.23438-.21875 0-.53125.23438-.53125.59375 0 .5.59375 1.20313 2 1.20313.9375 0 1.64063-.34375 2.07813-.96875C5.21875-1.48437 5.5-2.5 5.5-4.15625c0-1.4375-.28125-2.375-.73437-2.92187-.4375-.51563-1.0625-.76563-1.8125-.76563-1.46875 0-2.53125.96875-2.53125 2.5625m1.15625-.3125c0-1.0625.46875-1.84375 1.375-1.84375.92187 0 1.375 1.09375 1.375 2.20313 0 .20312-.01563.4375-.09375.60937-.1875.54688-.64063.92188-1.25.92188-.89063 0-1.40625-.79688-1.40625-1.89063m0 0"/><path id="m" d="M.46875-1.17187c0 .51562.8125 1.3125 2.3125 1.3125 1.89063 0 2.75-1.15625 2.75-2.625 0-1.625-1-2.4375-2.375-2.4375-.64062 0-1.32812.26562-1.6875.59375h-.01562l.25-2.17188c.04687-.29687.10937-.32812.32812-.32812h2.875l.28125-.78125-.04687-.10938H1.28125l-.10937.10938L.9375-3.75l.28125.15625c.46875-.5625.9375-.82812 1.5625-.82812.75 0 1.54688.54687 1.54688 2.0625 0 1.1875-.46875 2.09375-1.48438 2.09375-.8125 0-1.20312-.57813-1.4375-1.25-.0625-.17188-.17187-.28126-.34375-.28126-.23437 0-.59375.23438-.59375.625m0 0"/></defs><use xlink:href="#a" x="5.52273" y="44.02609"/><path fill="none" stroke="#000" stroke-miterlimit="10" stroke-width=".49085" d="M5.52344 47.71094h67.96875"/><use xlink:href="#b" x="20.37265" y="14.53839"/><use xlink:href="#b" x="31.69977" y="14.53839"/><use xlink:href="#c" x="19.45509" y="29.28224"/><use xlink:href="#d" x="30.78344" y="29.28224"/><use xlink:href="#e" x="42.11179" y="29.28224"/><use xlink:href="#f" x="49.29952" y="29.28224"/><use xlink:href="#g" x="53.44014" y="29.28224"/><use xlink:href="#h" x="19.45509" y="44.02609"/><use xlink:href="#i" x="30.78344" y="44.02609"/><use xlink:href="#c" x="42.11179" y="44.02609"/><use xlink:href="#f" x="49.29952" y="44.02609"/><use xlink:href="#j" x="53.44014" y="44.02609"/><use xlink:href="#d" x="64.76849" y="44.02609"/><use xlink:href="#k" x="19.45509" y="58.77117"/><use xlink:href="#j" x="30.78344" y="58.77117"/><use xlink:href="#i" x="42.11179" y="58.77117"/><use xlink:href="#f" x="49.29952" y="58.77117"/><use xlink:href="#g" x="53.44014" y="58.77117"/><use xlink:href="#d" x="64.76849" y="58.77117"/><use xlink:href="#a" x="145.35881" y="44.02609"/><path fill="none" stroke="#000" stroke-miterlimit="10" stroke-width=".49085" d="M145.35937 47.71094h67.96876"/><use xlink:href="#b" x="171.53762" y="14.53839"/><use xlink:href="#b" x="194.19188" y="14.53839"/><use xlink:href="#k" x="159.2924" y="29.28224"/><use xlink:href="#j" x="170.62075" y="29.28224"/><use xlink:href="#i" x="181.9491" y="29.28224"/><use xlink:href="#f" x="189.13683" y="29.28224"/><use xlink:href="#g" x="193.27745" y="29.28224"/><use xlink:href="#d" x="204.6058" y="29.28224"/><use xlink:href="#c" x="170.62007" y="44.02609"/><use xlink:href="#l" x="181.94842" y="44.02609"/><use xlink:href="#f" x="189.13614" y="44.02609"/><use xlink:href="#h" x="193.27677" y="44.02609"/><use xlink:href="#m" x="204.60512" y="44.02609"/><use xlink:href="#k" x="159.2924" y="58.77117"/><use xlink:href="#m" x="170.62075" y="58.77117"/><use xlink:href="#h" x="181.9491" y="58.77117"/><use xlink:href="#f" x="189.13683" y="58.77117"/><use xlink:href="#m" x="193.27745" y="58.77117"/><use xlink:href="#i" x="204.6058" y="58.77117"/></svg>