<svg xmlns="http://www.w3.org/2000/svg" xmlns:xlink="http://www.w3.org/1999/xlink" width="394.065" height="122.539" viewBox="0 0 394.065 122.539"><defs><path id="a" d="M1.78125-5.3125H6.9375v5.15625h1.23438V-5.3125h5.15625v-1.23437H8.17188v-5.15625H6.9375v5.15625H1.78125Zm0 0"/><path id="b" d="M1.59375 0h4.82813v-.42187L5.1875-.53125C4.875-.5625 4.70313-.67187 4.70313-1.25v-8.65625L4.625-9.98437l-3.03125.51562v.35938l1.375.17187c.25.03125.34375.14063.34375.5625v7.125c0 .28125-.03125.45313-.125.5625-.07812.10938-.20312.14063-.35937.15625l-1.23438.10938Zm0 0"/><path id="c" d="M.40625-4.20312.57813-3.75h5.71875v2.14063c0 .71875-.21875.82812-.73438.875l-1.34375.125V0H9.75v-.60937l-.9375-.10938c-.48437-.0625-.625-.17187-.625-.89062V-3.75h2.15625v-.98437H8.1875v-9.28125H6.65625C4.6875-11.125 2.32813-7.48437.40625-4.20312m1.51563-.53125c1.25-2.28125 2.71875-4.70313 4.32812-7.25h.04688v7.25Zm0 0"/><path id="d" d="M.875-11.07812h.54688l.20312-.4375c.26563-.59375.5625-.90625 1.5-.90625h5.67188c-.20313.76562-.60938 1.96875-2.29688 4.40625-1.8125 2.59375-3 4.9375-3 7.40625C3.5.09374 4 .25 4.64063.25 5.25.25 5.6875.0625 5.67188-.53125 5.5625-3.29687 6.125-5.5625 7.23438-7.5c1.34375-2.34375 2.45312-3.67187 3.1875-6.29687l-.17188-.21875H1.51563Zm0 0"/><path id="e" d="M.875-3.8125C.875-1.70312 2.17188.25 5.5625.25S10.25-1.70312 10.25-3.8125c0-2.15625-1.34375-3.375-2.76562-3.71875v-.03125c1.26562-.34375 2.29687-1.40625 2.29687-3.125 0-2.28125-1.8125-3.57812-4.21875-3.57812-2.42187 0-4.21875 1.29687-4.21875 3.57812 0 1.71875 1.0625 2.78125 2.3125 3.125v.03125C2.25-7.1875.875-5.96875.875-3.8125m2.09375.0625c0-1.92187.92188-3.34375 2.59375-3.34375 1.67188 0 2.59375 1.42188 2.59375 3.34375 0 1.85938-.82812 3.26563-2.59375 3.26563-1.76562 0-2.59375-1.40625-2.59375-3.26563m.40625-6.98437c0-1.60938.75-2.79688 2.1875-2.79688 1.42188 0 2.1875 1.1875 2.1875 2.79688 0 1.42187-.67187 2.875-2.1875 2.875-1.51562 0-2.1875-1.45313-2.1875-2.875m0 0"/><path id="f" d="m1.07813 2.5625.39062.40625C2.51563 1.98438 4.04688.57813 4.04688-1.07812c0-1.10938-.60938-1.89063-1.40625-1.89063-.65625 0-1.0625.51563-1.0625 1.04688 0 .76562.70312 1.15625.70312 2.0625 0 .85937-.54687 1.6875-1.20312 2.42187m0 0"/><path id="g" d="M.5625-2.14062C.5625-1.25 2.01563.25 4.98438.25 8.01563.25 9.9375-1.29687 9.9375-3.96875c0-2.8125-2.40625-3.64062-3.57812-3.75v-.09375C7.5-8 9.3125-8.84375 9.3125-10.92187c0-2.3125-1.8125-3.34375-4.0625-3.34375-2.76562 0-4.14062 1.60937-4.14062 2.5 0 .64062.75 1 1.03125 1 .26562 0 .42187-.15625.51562-.42188.46875-1.42187 1.25-2.34375 2.4375-2.34375 1.65625 0 2.07813 1.45313 2.07813 2.64063 0 1.25-.45313 2.82812-2.23438 2.82812-1 0-1.59375-.20312-1.82812-.20312-.28125 0-.39063.20312-.39063.57812 0 .35938.10938.59375.39063.59375.23437 0 .82812-.20312 1.82812-.20312 1.78125 0 2.78125 1.60937 2.78125 3.4375 0 2.5-1.21875 3.375-2.71875 3.375-1.39062 0-2.29687-1.03125-2.70312-2.21875-.125-.40625-.32813-.59375-.625-.59375-.375 0-1.10938.39062-1.10938 1.15625m0 0"/><path id="h" d="M2.28125 0h6.89063v-.60937L7.40625-.76563c-.4375-.03124-.6875-.1875-.6875-1.01562v-12.375l-.10937-.10937-4.32813.73437v.51563l1.96875.25c.34375.03125.48438.1875.48438.79687v10.1875c0 .39063-.04688.64063-.17188.79688-.125.15624-.29687.20312-.51562.21874l-1.76563.15626Zm0 0"/><path id="i" d="M.5625-.20312.78125 0h8.6875l.71875-2.76562-.59375-.10938c-.4375 1.14063-.85937 1.29688-1.71875 1.29688H2.51563c.34375-1.09375 1.59375-2.59375 3.53125-4C8.0625-7.0625 9.625-8 9.625-10.34375c0-2.92187-1.9375-3.92187-4.15625-3.92187-2.875 0-4.35937 1.73437-4.35937 2.82812 0 .71875.8125 1.0625 1.17187 1.0625.375 0 .51563-.23437.59375-.59375.34375-1.42187 1.17188-2.5625 2.46875-2.5625 1.59375 0 2.0625 1.34375 2.0625 2.875 0 2.26563-1.125 3.53125-2.96875 5.14063-2.57812 2.25-3.48437 3.6875-3.875 5.3125m0 0"/><path id="j" d="M.875-7.01562C.875-2.8125 2.09375.25 5.5625.25c3.45313 0 4.70313-3.0625 4.70313-7.26562 0-4.1875-1.25-7.25-4.70313-7.25-3.46875 0-4.6875 3.0625-4.6875 7.25m2.10938 0c0-3.40625.59375-6.51563 2.57812-6.51563S8.125-10.42187 8.125-7.01562c0 3.42187-.57812 6.53125-2.5625 6.53125-1.98437 0-2.57812-3.10938-2.57812-6.53125m0 0"/><path id="k" d="M.92188-6.46875C.92188-1.9375 2.5625.25 5.71875.25c3.09375 0 4.75-1.875 4.75-4.73437 0-2.84375-1.73437-4.375-4-4.375-1.64062 0-2.875 1.10937-3.4375 1.79687h-.04687c.03125-4.60937 1.34375-6.46875 3.25-6.46875.95312 0 1.64062.79688 1.95312 2.01563.07813.23437.23438.4375.54688.4375.46875 0 1.10937-.375 1.10937-.95313 0-.85937-1.03125-2.23437-3.54687-2.23437-3.32813 0-5.375 2.5625-5.375 7.79687m2.10937 1.51563c0-1.28125.96875-2.84375 2.73438-2.84375 1.3125 0 2.60937 1.20312 2.60937 3.625 0 2.20312-.84375 3.6875-2.60937 3.6875-1.82813 0-2.73438-1.95313-2.73438-4.46875m0 0"/><path id="l" d="M.76563-9.59375c0 2.625 1.875 3.96875 4.03125 3.96875 1.29687 0 2.39062-.73437 3.10937-1.76562h.04688c0 1.3125-.09375 3.01562-.46875 4.46875-.39063 1.375-1.125 2.4375-2.45313 2.4375-1.4375 0-1.96875-1.125-2.28125-2.10938-.09375-.26562-.23437-.42187-.57812-.42187-.40625 0-.98438.42187-.98438 1.07812C1.1875-1.03125 2.28125.25 4.82813.25 6.51563.25 7.8125-.375 8.625-1.5 9.48438-2.70312 10-4.53125 10-7.5625c0-2.625-.51562-4.3125-1.34375-5.29687-.79687-.9375-1.9375-1.40625-3.28125-1.40625-2.67187 0-4.60937 1.76562-4.60937 4.67187m2.09375-.59375c0-1.92187.875-3.34375 2.5-3.34375 1.67187 0 2.5 1.98438 2.5 4.01563 0 .35937-.01563.78125-.15625 1.125C7.375-7.40625 6.54688-6.75 5.42188-6.75c-1.625 0-2.5625-1.42187-2.5625-3.4375m0 0"/><path id="m" d="M.84375-2.14062C.84375-1.1875 2.32813.25 5.04688.25 8.5.25 10.0625-1.85937 10.0625-4.51562c0-2.9375-1.82812-4.4375-4.32812-4.4375-1.15625 0-2.40625.48437-3.07813 1.09375L2.64063-7.875l.46875-3.9375c.0625-.53125.1875-.60937.59375-.60937H8.9375l.5-1.42188-.10937-.17187h-7l-.20313.1875-.42187 7.01562.5.26563c.875-1 1.73437-1.48438 2.85937-1.48438 1.34375 0 2.8125.96875 2.8125 3.75 0 2.15625-.85937 3.79688-2.6875 3.79688-1.48437 0-2.21875-1.0625-2.64062-2.26563-.10938-.3125-.3125-.51562-.60938-.51562-.42187 0-1.09375.4375-1.09375 1.125m0 0"/></defs><use xlink:href="#a" x="7.71572" y="80.0222"/><path fill="none" stroke="#000" stroke-miterlimit="10" stroke-width=".89214" d="M7.71484 86.72266H131.2539"/><use xlink:href="#b" x="34.70867" y="26.42633"/><use xlink:href="#b" x="55.29648" y="26.42633"/><use xlink:href="#c" x="33.04095" y="53.22427"/><use xlink:href="#d" x="53.63098" y="53.22427"/><use xlink:href="#e" x="74.22102" y="53.22427"/><use xlink:href="#f" x="87.2852" y="53.22427"/><use xlink:href="#g" x="94.81105" y="53.22427"/><use xlink:href="#h" x="33.04095" y="80.0222"/><use xlink:href="#i" x="53.63098" y="80.0222"/><use xlink:href="#c" x="74.22102" y="80.0222"/><use xlink:href="#f" x="87.2852" y="80.0222"/><use xlink:href="#j" x="94.81105" y="80.0222"/><use xlink:href="#d" x="115.40109" y="80.0222"/><use xlink:href="#k" x="33.04095" y="106.82013"/><use xlink:href="#j" x="53.63098" y="106.82013"/><use xlink:href="#i" x="74.22102" y="106.82013"/><use xlink:href="#f" x="87.2852" y="106.82013"/><use xlink:href="#g" x="94.81105" y="106.82013"/><use xlink:href="#d" x="115.40109" y="106.82013"/><use xlink:href="#a" x="261.87755" y="80.0222"/><path fill="none" stroke="#000" stroke-miterlimit="10" stroke-width=".89214" d="M261.8789 86.72266h123.53907"/><use xlink:href="#b" x="309.46153" y="26.42633"/><use xlink:href="#b" x="350.63715" y="26.42633"/><use xlink:href="#k" x="287.20277" y="53.22427"/><use xlink:href="#j" x="307.79281" y="53.22427"/><use xlink:href="#i" x="328.38284" y="53.22427"/><use xlink:href="#f" x="341.44702" y="53.22427"/><use xlink:href="#g" x="348.97288" y="53.22427"/><use xlink:href="#d" x="369.56292" y="53.22427"/><use xlink:href="#c" x="307.79157" y="80.0222"/><use xlink:href="#l" x="328.3816" y="80.0222"/><use xlink:href="#f" x="341.44578" y="80.0222"/><use xlink:href="#h" x="348.97164" y="80.0222"/><use xlink:href="#m" x="369.56167" y="80.0222"/><use xlink:href="#k" x="287.20277" y="106.82013"/><use xlink:href="#m" x="307.79281" y="106.82013"/><use xlink:href="#h" x="328.38284" y="106.82013"/><use xlink:href="#f" x="341.44702" y="106.82013"/><use xlink:href="#m" x="348.97288" y="106.82013"/><use xlink:href="#i" x="369.56292" y="106.82013"/></svg>