<svg xmlns="http://www.w3.org/2000/svg" xmlns:xlink="http://www.w3.org/1999/xlink" width="42.747pt" height="83.021pt" viewBox="0 0 42.747 83.021"><defs><path id="a" d="M1.25 0h3.8125v-.32812l-.96875-.09375c-.25-.01563-.39062-.10938-.39062-.5625V-7.8125l-.0625-.0625L1.25-7.46875v.29688l1.09375.125c.1875.03125.26563.10937.26563.45312v5.60938c0 .21874-.03125.35937-.09375.4375-.0625.09374-.15625.10937-.28125.125L1.25-.32812Zm0 0"/><path id="b" d="m.59375 1.42188.21875.21874C1.39063 1.09376 2.23438.3125 2.23438-.59375c0-.60937-.34375-1.04687-.78125-1.04687-.35938 0-.57813.28124-.57813.57812 0 .42188.375.64063.375 1.14063 0 .46875-.29687.9375-.65625 1.34375m0 0"/><path id="c" d="M.3125-.10937.4375 0h4.78125l.39063-1.53125-.3125-.0625c-.25.64063-.48438.71875-.95313.71875H1.39063c.1875-.60937.875-1.42187 1.95312-2.20312 1.09375-.8125 1.96875-1.32813 1.96875-2.625 0-1.60938-1.07812-2.17188-2.29687-2.17188-1.59375 0-2.40625.96875-2.40625 1.57813 0 .39062.45312.57812.64062.57812.21875 0 .28125-.125.34375-.32812.17188-.78125.64063-1.42188 1.34375-1.42188.89063 0 1.15625.75 1.15625 1.59375 0 1.25-.64062 1.95313-1.64062 2.82813C1.01563-1.79687.53125-1.01562.3125-.10937m0 0"/><path id="d" d="m.21875-2.3125.09375.25h3.15625v1.17188c0 .39062-.125.45312-.40625.48437l-.73437.07813V0H5.375v-.32812l-.51562-.0625c-.26563-.04688-.34375-.10938-.34375-.5V-2.0625h1.1875v-.54687h-1.1875v-5.125h-.84375C2.57813-6.125 1.28125-4.125.21875-2.3125m.84375-.29687c.6875-1.25 1.5-2.59375 2.39063-4h.01562v4Zm0 0"/><path id="e" d="M.92188-3.26562c0 .40625.32812.73437.73437.73437s.73438-.32812.73438-.73437-.32813-.71875-.73438-.71875-.73437.3125-.73437.71875m0 0"/><path id="f" d="m1.67188-1.25.48437.46875 2-2.01562L6.1875-.78125 6.65625-1.25 4.64063-3.26562l2.01562-2.01563L6.1875-5.75l-2.03125 2-2-2-.48437.46875L3.6875-3.26562Zm0 0"/></defs><use xlink:href="#a" x="18.18337" y="14.56401"/><use xlink:href="#b" x="25.38364" y="14.56401"/><use xlink:href="#c" x="29.53149" y="14.56401"/><use xlink:href="#a" x="18.18337" y="29.33359"/><use xlink:href="#b" x="25.38364" y="29.33359"/><use xlink:href="#c" x="29.53149" y="29.33359"/><use xlink:href="#c" x="18.18337" y="44.10318"/><use xlink:href="#d" x="29.53149" y="44.10318"/><use xlink:href="#a" x="6.83593" y="58.87276"/><use xlink:href="#c" x="18.18405" y="58.87276"/><use xlink:href="#e" x="30.98985" y="58.87276"/><use xlink:href="#a" x="6.83593" y="73.64358"/><use xlink:href="#b" x="14.0362" y="73.64358"/><use xlink:href="#d" x="18.18405" y="73.64358"/><use xlink:href="#d" x="29.53218" y="73.64358"/><path fill="none" stroke="#000" stroke-miterlimit="10" stroke-width=".4917" d="M4.22656 62.5664h34.04689M4.22656 33.02734h34.04689"/><use xlink:href="#f" x="4.2267" y="29.33359"/></svg>