<svg xmlns="http://www.w3.org/2000/svg" xmlns:xlink="http://www.w3.org/1999/xlink" width="350.28pt" height="108.923pt" viewBox="0 0 350.28 108.923"><defs><path id="a" d="M1.59375-4.73437H6.1875v4.59375h1.09375v-4.59375H11.875v-1.09375H7.28125v-4.59375H6.1875v4.59375H1.59375Zm0 0"/><path id="b" d="M1.42188 0h4.29687v-.375L4.625-.46875c-.28125-.03125-.4375-.125-.4375-.64062v-7.71875l-.0625-.0625-2.70312.45312v.32813l1.21875.14062c.23437.03125.3125.125.3125.5v6.35938c0 .25-.03125.40625-.10938.5-.07812.09374-.1875.125-.32812.14062L1.42188-.375Zm0 0"/><path id="c" d="m.35938-3.73437.15625.39062h5.09375v1.90625c0 .64063-.20313.73438-.65625.78125l-1.1875.125V0H8.6875v-.53125l-.82812-.10937c-.4375-.0625-.5625-.15626-.5625-.79688v-1.90625h1.90625v-.875H7.29688v-8.26562h-1.375c-1.75 2.57812-3.85938 5.82812-5.5625 8.75m1.34375-.48438c1.125-2.03125 2.4375-4.1875 3.85937-6.46875h.04688v6.46875Zm0 0"/><path id="d" d="M.78125-9.85937h.48438l.1875-.40625c.23437-.51563.5-.79688 1.32812-.79688h5.0625c-.1875.67188-.54687 1.75-2.0625 3.92188C4.17188-4.82812 3.125-2.75 3.125-.53125c0 .60938.4375.75 1.01563.75.53125 0 .9375-.15625.90625-.70312-.09375-2.45313.40625-4.46875 1.39062-6.20313 1.20313-2.07812 2.1875-3.25 2.84375-5.60937l-.15625-.1875H1.35938Zm0 0"/><path id="e" d="M.78125-3.40625c0 1.89063 1.14063 3.625 4.17188 3.625 3.01562 0 4.17187-1.73437 4.17187-3.625 0-1.90625-1.1875-3-2.46875-3.29687V-6.75c1.14063-.29687 2.0625-1.25 2.0625-2.78125 0-2.03125-1.625-3.17187-3.76562-3.17187-2.15625 0-3.76563 1.14062-3.76563 3.17187C1.1875-8 2.14063-7.04687 3.26563-6.75v.04688C2.01563-6.40625.78125-5.3125.78125-3.40625m1.85938.0625c0-1.70312.82812-2.98437 2.3125-2.98437 1.48437 0 2.3125 1.28125 2.3125 2.98437 0 1.65625-.73438 2.90625-2.3125 2.90625-1.57813 0-2.3125-1.25-2.3125-2.90625M3-9.5625c0-1.4375.6875-2.48437 1.95313-2.48437 1.26562 0 1.95312 1.04687 1.95312 2.48437C6.90625-8.29687 6.3125-7 4.95313-7 3.59375-7 3-8.29687 3-9.5625m0 0"/><path id="f" d="m.95313 2.28125.35937.35938c.9375-.875 2.28125-2.125 2.28125-3.59375 0-1-.53125-1.6875-1.25-1.6875-.57812 0-.9375.45312-.9375.9375 0 .67187.625 1.03125.625 1.82812 0 .76563-.48437 1.5-1.07812 2.15625m0 0"/><path id="g" d="M.5-1.90625c0 .79688 1.29688 2.125 3.9375 2.125 2.70313 0 4.40625-1.375 4.40625-3.76562 0-2.5-2.14062-3.23438-3.17187-3.32813v-.09375c1.01562-.15625 2.625-.90625 2.625-2.75 0-2.07812-1.60938-2.98437-3.625-2.98437C2.20313-12.70312 1-11.28125 1-10.48437c0 .57812.65625.89062.90625.89062.23438 0 .375-.125.45313-.375.42187-1.26562 1.125-2.07812 2.17187-2.07812 1.46875 0 1.85938 1.28125 1.85938 2.34375 0 1.10937-.40625 2.51562-2 2.51562-.89063 0-1.40625-.17187-1.625-.17187-.23438 0-.34375.17187-.34375.51562 0 .3125.10937.51563.34375.51563.21875 0 .73437-.17188 1.625-.17188C5.98438-6.5 6.875-5.07812 6.875-3.4375c0 2.21875-1.09375 3-2.42187 3-1.23438 0-2.04688-.92187-2.40625-1.96875-.125-.35937-.29688-.53125-.5625-.53125C1.15625-2.9375.5-2.57812.5-1.90625m0 0"/><path id="h" d="M2.03125 0h6.14063v-.53125l-1.5625-.14062c-.40625-.04688-.625-.1875-.625-.92188v-11.01562l-.09375-.09375-3.85938.65625v.45312l1.75.21875c.3125.03125.4375.17188.4375.71875v9.0625c0 .35938-.04687.57813-.15625.71875-.10937.14063-.26562.17188-.46875.20313l-1.5625.14062Zm0 0"/><path id="i" d="M.5-.17187.70313 0H8.4375l.625-2.46875-.51562-.09375c-.39063 1.01563-.76563 1.15625-1.53125 1.15625H2.25c.29688-.98437 1.40625-2.3125 3.14063-3.5625 1.79687-1.3125 3.1875-2.15625 3.1875-4.23437 0-2.60938-1.73438-3.5-3.70313-3.5-2.5625 0-3.875 1.54687-3.875 2.51562 0 .64063.70313.9375 1.03125.9375.32813 0 .45313-.20312.53125-.51562.29688-1.28125 1.03125-2.28125 2.1875-2.28125 1.4375 0 1.85938 1.1875 1.85938 2.5625 0 2-1.01563 3.14062-2.65625 4.57812C1.65625-2.90625.85938-1.625.5-.17187m0 0"/><path id="j" d="M.78125-6.25C.78125-2.5 1.875.21875 4.95313.21875S9.15625-2.5 9.15625-6.25c0-3.73437-1.125-6.45312-4.20312-6.45312S.78125-9.98437.78125-6.25m1.89063 0c0-3.03125.51562-5.79687 2.28125-5.79687 1.76562 0 2.28125 2.76562 2.28125 5.79687 0 3.04688-.51563 5.8125-2.28125 5.8125-1.76563 0-2.28125-2.76562-2.28125-5.8125m0 0"/><path id="k" d="M.8125-5.76562c0 4.03125 1.46875 5.98437 4.28125 5.98437C7.85938.21875 9.32813-1.45312 9.32813-4c0-2.53125-1.54688-3.89062-3.5625-3.89062-1.46875 0-2.5625.98437-3.0625 1.60937h-.03125c.01562-4.125 1.1875-5.76562 2.875-5.76562.85937 0 1.46875.70312 1.75 1.78125.0625.21875.20312.40625.48437.40625.40625 0 .98438-.34375.98438-.85938 0-.76562-.90625-1.98437-3.15625-1.98437-2.96875 0-4.79688 2.28125-4.79688 6.9375m1.89063 1.34375c0-1.125.85937-2.51563 2.42187-2.51563 1.1875 0 2.32813 1.0625 2.32813 3.21875 0 1.96875-.75 3.28125-2.32813 3.28125-1.625 0-2.42187-1.73437-2.42187-3.98437m0 0"/><path id="l" d="M.67188-8.54687c0 2.34375 1.67187 3.53125 3.60937 3.53125 1.15625 0 2.125-.65625 2.76563-1.5625h.03125c0 1.17187-.07813 2.67187-.42188 3.96875C6.32813-1.375 5.67188-.4375 4.46875-.4375c-1.26562 0-1.75-1-2.01562-1.875-.09375-.23437-.20313-.375-.53125-.375-.34375 0-.875.375-.875.95313 0 .8125.98437 1.95312 3.25 1.95312 1.51562 0 2.67187-.5625 3.375-1.54687C8.45313-2.40625 8.90625-4.03125 8.90625-6.75c0-2.3125-.45312-3.82812-1.1875-4.70312-.71875-.84375-1.73437-1.25-2.92187-1.25-2.39063 0-4.125 1.5625-4.125 4.15625m1.875-.51563c0-1.71875.78125-2.98437 2.23437-2.98437C6.26563-12.04687 7-10.28125 7-8.46875c0 .3125-.01562.6875-.14062.98438C6.5625-6.60937 5.82813-6 4.82813-6 3.375-6 2.54688-7.28125 2.54688-9.0625m0 0"/><path id="m" d="M.75-1.90625c0 .85938 1.3125 2.125 3.75 2.125 3.07813 0 4.46875-1.875 4.46875-4.23437 0-2.625-1.625-3.95313-3.85937-3.95313-1.03125 0-2.14063.4375-2.75.96875l-.01563-.01562.42188-3.5c.0625-.48438.17187-.54688.53125-.54688h4.65625l.45312-1.26562-.09375-.15625h-6.25l-.17187.17187-.375 6.25.45312.23438C2.75-6.71875 3.5-7.15625 4.51563-7.15625c1.1875 0 2.5.875 2.5 3.34375 0 1.92188-.76563 3.375-2.40625 3.375-1.3125 0-1.96875-.9375-2.34375-2.01562-.09375-.26563-.28125-.45313-.53125-.45313-.375 0-.98438.375-.98438 1m0 0"/></defs><use xlink:href="#a" x="6.62738" y="71.32484"/><path fill="none" stroke="#000" stroke-miterlimit="10" stroke-width=".79437" d="M6.6289 77.28906h109.99998"/><use xlink:href="#b" x="30.66197" y="23.60093"/><use xlink:href="#b" x="48.99341" y="23.60093"/><use xlink:href="#c" x="29.17703" y="47.46388"/><use xlink:href="#d" x="47.51045" y="47.46388"/><use xlink:href="#e" x="65.84387" y="47.46388"/><use xlink:href="#f" x="77.47625" y="47.46388"/><use xlink:href="#g" x="84.1773" y="47.46388"/><use xlink:href="#h" x="29.17703" y="71.32484"/><use xlink:href="#i" x="47.51045" y="71.32484"/><use xlink:href="#c" x="65.84387" y="71.32484"/><use xlink:href="#f" x="77.47625" y="71.32484"/><use xlink:href="#j" x="84.1773" y="71.32484"/><use xlink:href="#d" x="102.51072" y="71.32484"/><use xlink:href="#k" x="29.17703" y="95.18579"/><use xlink:href="#j" x="47.51045" y="95.18579"/><use xlink:href="#i" x="65.84387" y="95.18579"/><use xlink:href="#f" x="77.47625" y="95.18579"/><use xlink:href="#g" x="84.1773" y="95.18579"/><use xlink:href="#d" x="102.51072" y="95.18579"/><use xlink:href="#a" x="232.9342" y="71.32484"/><path fill="none" stroke="#000" stroke-miterlimit="10" stroke-width=".79437" d="M232.9336 77.28906h109.99997"/><use xlink:href="#b" x="275.30112" y="23.60093"/><use xlink:href="#b" x="311.964" y="23.60093"/><use xlink:href="#k" x="255.48186" y="47.46388"/><use xlink:href="#j" x="273.81528" y="47.46388"/><use xlink:href="#i" x="292.14871" y="47.46388"/><use xlink:href="#f" x="303.78108" y="47.46388"/><use xlink:href="#g" x="310.48213" y="47.46388"/><use xlink:href="#d" x="328.81555" y="47.46388"/><use xlink:href="#c" x="273.81617" y="71.32484"/><use xlink:href="#l" x="292.14959" y="71.32484"/><use xlink:href="#f" x="303.78197" y="71.32484"/><use xlink:href="#h" x="310.48302" y="71.32484"/><use xlink:href="#m" x="328.81644" y="71.32484"/><use xlink:href="#k" x="255.48186" y="95.18579"/><use xlink:href="#m" x="273.81528" y="95.18579"/><use xlink:href="#h" x="292.14871" y="95.18579"/><use xlink:href="#f" x="303.78108" y="95.18579"/><use xlink:href="#m" x="310.48213" y="95.18579"/><use xlink:href="#i" x="328.81555" y="95.18579"/></svg>