<svg xmlns="http://www.w3.org/2000/svg" xmlns:xlink="http://www.w3.org/1999/xlink" width="123.509pt" height="85.013pt" viewBox="0 0 123.509 85.013"><defs><path id="a" d="M1.57813-4.6875h10.1875v-1.07812H1.57813Zm0 0"/><path id="b" d="M.8125-5.71875c0 4 1.45313 5.9375 4.23438 5.9375 2.73437 0 4.1875-1.65625 4.1875-4.17187s-1.53125-3.875-3.51563-3.875c-1.46875 0-2.54687.98437-3.04687 1.60937h-.03125C2.65625-10.3125 3.82813-11.9375 5.5-11.9375c.84375 0 1.45313.70313 1.73438 1.76563.0625.21875.1875.40625.46875.40625.42187 0 .98437-.34375.98437-.85938 0-.75-.90625-1.96875-3.125-1.96875-2.9375 0-4.75 2.26563-4.75 6.875M2.67188-4.375c0-1.125.85937-2.5 2.40625-2.5 1.17187 0 2.3125 1.0625 2.3125 3.1875 0 1.95313-.75 3.25-2.3125 3.25-1.60938 0-2.40625-1.70312-2.40625-3.9375m0 0"/><path id="c" d="M.76563-9.76562h.5l.17187-.40625c.23438-.5.5-.78125 1.32813-.78125h5c-.1875.67187-.53125 1.73437-2.03125 3.875C4.14063-4.78125 3.09375-2.71875 3.09375-.53125c0 .60938.4375.75 1 .75.53125 0 .9375-.15625.90625-.6875-.09375-2.45312.40625-4.4375 1.39063-6.15625 1.17187-2.0625 2.15625-3.23437 2.8125-5.54687l-.15625-.20313H1.34375Zm0 0"/><path id="d" d="m.35938-3.70312.15625.39062H5.5625v1.89063c0 .64062-.20312.73437-.65625.76562l-1.1875.125V0h4.89063v-.53125L7.78125-.625c-.4375-.0625-.54687-.15625-.54687-.79687V-3.3125H9.125v-.85937H7.23438V-12.375H5.875C4.14063-9.8125 2.04688-6.59375.35938-3.70312m1.32812-.46875c1.10938-2.01563 2.40625-4.15625 3.82813-6.40625h.04687v6.40625Zm0 0"/><path id="e" d="m.95313 2.26563.34375.35937C2.21875 1.75 3.5625.51563 3.5625-.95312c0-.98438-.53125-1.67188-1.23437-1.67188-.57813 0-.92188.45313-.92188.9375 0 .65625.60938 1.01563.60938 1.8125 0 .76563-.48438 1.48438-1.0625 2.14063m0 0"/><path id="f" d="M.75-1.89062C.75-1.04687 2.04688.21875 4.45313.21875c3.04687 0 4.4375-1.85937 4.4375-4.20312 0-2.59375-1.625-3.92188-3.82813-3.92188-1.01562 0-2.125.4375-2.71875.96875l-.01562-.01562.40625-3.46875c.0625-.46875.1875-.53125.53125-.53125H7.875l.45313-1.26563-.09375-.15625h-6.1875l-.17188.17188-.375 6.1875.45313.25c.76562-.89063 1.51562-1.32813 2.51562-1.32813 1.1875 0 2.48438.875 2.48438 3.3125 0 1.90625-.76563 3.34375-2.375 3.34375-1.3125 0-1.95313-.92187-2.32813-1.98437-.10937-.28125-.28125-.45313-.53125-.45313-.375 0-.96875.375-.96875.98438m0 0"/><path id="g" d="M2.01563 0h6.07812v-.53125L6.54688-.67187c-.40625-.03126-.60938-.17188-.60938-.90625v-10.90625l-.10937-.10938-3.8125.65625v.45313l1.73437.21875c.3125.03125.42188.17187.42188.70312v8.98438c0 .35937-.03125.57812-.15625.71875-.09375.125-.25.17187-.45313.1875l-1.54687.14062Zm0 0"/><path id="h" d="M.76563-3.375C.76563-1.5 1.90625.21875 4.90625.21875S9.04688-1.5 9.04688-3.375c0-1.89062-1.1875-2.96875-2.45313-3.26562v-.03125c1.125-.29688 2.03125-1.25 2.03125-2.76563 0-2.01562-1.59375-3.15625-3.71875-3.15625S1.1875-11.45312 1.1875-9.4375c0 1.51563.9375 2.46875 2.04688 2.76563v.03125c-1.25.29687-2.46875 1.375-2.46875 3.26562m1.85937.0625c0-1.6875.79688-2.95312 2.28125-2.95312C6.39063-6.26562 7.1875-5 7.1875-3.3125c0 1.64063-.71875 2.875-2.28125 2.875S2.625-1.67187 2.625-3.3125m.34375-6.17187c0-1.40625.67188-2.45313 1.9375-2.45313 1.26563 0 1.9375 1.04688 1.9375 2.45313 0 1.26562-.59375 2.54687-1.9375 2.54687s-1.9375-1.28125-1.9375-2.54687m0 0"/><path id="i" d="M.67188-8.46875c0 2.32813 1.65625 3.5 3.5625 3.5 1.14062 0 2.10937-.64062 2.73437-1.54687h.04688c0 1.15625-.07813 2.65625-.42188 3.9375C6.26563-1.35937 5.60938-.4375 4.4375-.4375c-1.26562 0-1.73437-.98437-2.01562-1.84375-.07813-.23437-.20313-.375-.51563-.375-.34375 0-.85937.375-.85937.9375 0 .8125.96875 1.9375 3.20312 1.9375 1.5 0 2.64063-.54687 3.35938-1.53125C8.375-2.39062 8.82813-4 8.82813-6.67187c0-2.3125-.45313-3.8125-1.1875-4.67188-.70313-.82812-1.70313-1.25-2.89063-1.25-2.35937 0-4.07812 1.5625-4.07812 4.125m1.84375-.51562c0-1.6875.78125-2.95313 2.21875-2.95313 1.46875 0 2.20312 1.75 2.20312 3.54688 0 .3125-.01562.6875-.14062.98437C6.5-6.54687 5.76563-5.95312 4.78125-5.95312c-1.4375 0-2.26562-1.26563-2.26562-3.03125m0 0"/></defs><use xlink:href="#a" x="7.03084" y="46.94299"/><path fill="none" stroke="#000" stroke-miterlimit="10" stroke-width=".78687" d="M7.03125 52.85156h108.96096"/><use xlink:href="#b" x="29.36751" y="23.3074"/><use xlink:href="#c" x="47.52778" y="23.3074"/><use xlink:href="#d" x="65.68805" y="23.3074"/><use xlink:href="#e" x="77.21056" y="23.3074"/><use xlink:href="#f" x="83.84832" y="23.3074"/><use xlink:href="#g" x="102.00858" y="23.3074"/><use xlink:href="#c" x="47.52669" y="46.94299"/><use xlink:href="#h" x="65.68695" y="46.94299"/><use xlink:href="#e" x="77.20946" y="46.94299"/><use xlink:href="#g" x="83.84722" y="46.94299"/><use xlink:href="#f" x="29.36751" y="70.57858"/><use xlink:href="#i" x="47.52778" y="70.57858"/><use xlink:href="#b" x="65.68805" y="70.57858"/><use xlink:href="#e" x="77.21056" y="70.57858"/><use xlink:href="#d" x="83.84832" y="70.57858"/><use xlink:href="#g" x="102.00858" y="70.57858"/></svg>