<svg xmlns="http://www.w3.org/2000/svg" xmlns:xlink="http://www.w3.org/1999/xlink" width="44.457pt" height="86.342pt" viewBox="0 0 44.457 86.342"><defs><path id="a" d="M1.3125 0h3.95313v-.34375L4.25-.4375c-.25-.01562-.39062-.10937-.39062-.59375v-7.07812l-.07813-.0625L1.3125-7.75v.29688l1.125.14062c.20313.01563.28125.10938.28125.45313v5.82812c0 .23438-.03125.375-.10937.46875-.0625.09375-.17188.10938-.29688.125l-1 .09375Zm0 0"/><path id="b" d="m.60938 1.46875.23437.23438c.60938-.5625 1.46875-1.375 1.46875-2.3125 0-.64063-.34375-1.09375-.79687-1.09375-.375 0-.60938.29687-.60938.60937 0 .42188.40625.65625.40625 1.17188 0 .5-.3125.96875-.70312 1.39062m0 0"/><path id="c" d="M.3125-.10937.45313 0h4.96875l.40625-1.59375L5.5-1.65625c-.25.65625-.5.75-.98437.75h-3.0625c.1875-.625.90625-1.48437 2.01562-2.29687 1.15625-.84375 2.04688-1.375 2.04688-2.71875 0-1.67188-1.10938-2.25-2.375-2.25-1.65625 0-2.5 1-2.5 1.625 0 .40625.45312.59375.67187.59375.20313 0 .28125-.125.34375-.32813C1.84375-7.10937 2.3125-7.75 3.0625-7.75c.92188 0 1.1875.76563 1.1875 1.64063 0 1.29687-.65625 2.03125-1.70312 2.95312C1.0625-1.875.54688-1.04687.3125-.10937m0 0"/><path id="d" d="m.23438-2.40625.09375.25h3.28125v1.23438c0 .40625-.125.46875-.42188.5l-.76562.07812V0h3.17187v-.34375l-.53125-.0625c-.29687-.04687-.35937-.10937-.35937-.51562v-1.23438h1.21875v-.5625H4.70313v-5.3125H3.8125c-1.125 1.65625-2.48437 3.75-3.57812 5.625m.85937-.3125c.71875-1.29687 1.5625-2.6875 2.48438-4.15625h.03125v4.15625Zm0 0"/><path id="e" d="M.95313-3.39062c0 .42187.34375.75.76562.75.42188 0 .76563-.32813.76563-.75s-.34375-.75-.76563-.75c-.42187 0-.76562.32812-.76562.75m0 0"/><path id="f" d="m1.73438-1.3125.5.5 2.09375-2.09375L6.42188-.8125l.48437-.5-2.07812-2.07812 2.07812-2.09375-.48437-.48438-2.09375 2.07813-2.09375-2.07813-.5.48438 2.10937 2.09375Zm0 0"/></defs><use xlink:href="#a" x="18.7738" y="15.33697"/><use xlink:href="#b" x="26.25896" y="15.33697"/><use xlink:href="#c" x="30.57093" y="15.33697"/><use xlink:href="#a" x="18.7738" y="30.69093"/><use xlink:href="#b" x="26.25896" y="30.69093"/><use xlink:href="#c" x="30.57093" y="30.69093"/><use xlink:href="#c" x="18.7738" y="46.0449"/><use xlink:href="#d" x="30.57093" y="46.0449"/><use xlink:href="#a" x="6.97738" y="61.39886"/><use xlink:href="#c" x="18.77451" y="61.39886"/><use xlink:href="#e" x="32.08699" y="61.39886"/><use xlink:href="#a" x="6.97738" y="76.75283"/><use xlink:href="#b" x="14.46254" y="76.75283"/><use xlink:href="#d" x="18.77451" y="76.75283"/><use xlink:href="#d" x="30.57164" y="76.75283"/><path fill="none" stroke="#000" stroke-miterlimit="10" stroke-width=".51116" d="M4.26562 65.23828h35.39062M4.26562 34.52734h35.39062"/><use xlink:href="#f" x="4.26491" y="30.69093"/></svg>