<svg xmlns="http://www.w3.org/2000/svg" xmlns:xlink="http://www.w3.org/1999/xlink" width="65.711pt" height="83.021pt" viewBox="0 0 65.711 83.021"><defs><path id="a" d="M.3125-1.1875c0 .5.79688 1.32813 2.4375 1.32813 1.67188 0 2.73438-.85938 2.73438-2.32813 0-1.5625-1.32813-2.01562-1.96875-2.07812v-.04688c.625-.09375 1.625-.5625 1.625-1.70312 0-1.28125-1-1.85938-2.25-1.85938-1.53125 0-2.28125.89063-2.28125 1.39063 0 .35937.40625.54687.57812.54687q.21095 0 .28125-.23437c.25-.78125.6875-1.29688 1.34375-1.29688.90625 0 1.14063.8125 1.14063 1.45313 0 .70312-.25 1.57812-1.23438 1.57812-.54687 0-.875-.125-1-.125-.15625 0-.21875.125-.21875.32813s.0625.3125.21875.3125c.125 0 .45313-.10938 1-.10938.98438 0 1.54688.89063 1.54688 1.90625 0 1.375-.6875 1.85938-1.5 1.85938-.76563 0-1.28125-.57813-1.5-1.21875-.07813-.23438-.1875-.34375-.34375-.34375-.20313 0-.60938.23437-.60938.64062m0 0"/><path id="b" d="m.59375 1.42188.21875.21874C1.39063 1.09376 2.23438.3125 2.23438-.59375c0-.60937-.34375-1.04687-.78125-1.04687-.35938 0-.57813.28124-.57813.57812 0 .42188.375.64063.375 1.14063 0 .46875-.29687.9375-.65625 1.34375m0 0"/><path id="c" d="m.21875-2.3125.09375.25h3.15625v1.17188c0 .39062-.125.45312-.40625.48437l-.73437.07813V0H5.375v-.32812l-.51562-.0625c-.26563-.04688-.34375-.10938-.34375-.5V-2.0625h1.1875v-.54687h-1.1875v-5.125h-.84375C2.57813-6.125 1.28125-4.125.21875-2.3125m.84375-.29687c.6875-1.25 1.5-2.59375 2.39063-4h.01562v4Zm0 0"/><path id="d" d="M.48438-6.10937h.29687l.125-.25c.14063-.3125.29688-.48438.8125-.48438h3.125c-.10937.42188-.32812 1.07813-1.26562 2.42188-1 1.4375-1.64063 2.71875-1.64063 4.09375 0 .375.26563.46875.625.46875.32813 0 .57813-.10938.5625-.4375-.0625-1.53125.25-2.76563.85938-3.84375.75-1.29688 1.35937-2.01563 1.76562-3.46875l-.09375-.125H.84375Zm0 0"/><path id="e" d="M.3125-.10937.4375 0h4.78125l.39063-1.53125-.3125-.0625c-.25.64063-.48438.71875-.95313.71875H1.39063c.1875-.60937.875-1.42187 1.95312-2.20312 1.09375-.8125 1.96875-1.32813 1.96875-2.625 0-1.60938-1.07812-2.17188-2.29687-2.17188-1.59375 0-2.40625.96875-2.40625 1.57813 0 .39062.45312.57812.64062.57812.21875 0 .28125-.125.34375-.32812.17188-.78125.64063-1.42188 1.34375-1.42188.89063 0 1.15625.75 1.15625 1.59375 0 1.25-.64062 1.95313-1.64062 2.82813C1.01563-1.79687.53125-1.01562.3125-.10937m0 0"/><path id="f" d="M.5-3.57812c0 2.5.92188 3.71875 2.65625 3.71875 1.70313 0 2.625-1.04688 2.625-2.60938S4.8125-4.89062 3.57813-4.89062c-.92188 0-1.59375.625-1.90625 1h-.01563c0-2.54688.73438-3.57813 1.78125-3.57813.53125 0 .90625.45313 1.07813 1.10938.04687.14062.125.25.29687.25.26563 0 .625-.20313.625-.53125 0-.46875-.57812-1.23438-1.96875-1.23438C1.64063-7.875.5-6.45312.5-3.57812m1.17188.84375c0-.70313.53125-1.5625 1.5-1.5625.73437 0 1.4375.67187 1.4375 2 0 1.21875-.45313 2.03125-1.4375 2.03125-1 0-1.5-1.07813-1.5-2.46875m0 0"/><path id="g" d="M.42188-5.29687c0 1.45312 1.03125 2.1875 2.21875 2.1875.71875 0 1.32812-.40625 1.71875-.96875h.03125c0 .73437-.0625 1.67187-.26563 2.46875-.20312.76562-.60937 1.34375-1.35937 1.34375-.78125 0-1.07813-.625-1.25-1.15625-.04688-.15626-.125-.23438-.32813-.23438-.21875 0-.53125.23438-.53125.57813 0 .51562.59375 1.21875 2 1.21875.9375 0 1.65625-.34375 2.09375-.96875.48438-.65625.76563-1.67188.76563-3.34375 0-1.4375-.28125-2.375-.73438-2.92188-.45312-.51562-1.07812-.78125-1.8125-.78125-1.48437 0-2.54687.98438-2.54687 2.57813m1.15625-.3125c0-1.0625.48437-1.85938 1.375-1.85938.92187 0 1.375 1.10938 1.375 2.21875 0 .20313 0 .4375-.07813.625-.1875.53125-.64062.90625-1.26562.90625-.89063 0-1.40625-.78125-1.40625-1.89062m0 0"/><path id="h" d="M1.25 0h3.8125v-.32812l-.96875-.09375c-.25-.01563-.39062-.10938-.39062-.5625V-7.8125l-.0625-.0625L1.25-7.46875v.29688l1.09375.125c.1875.03125.26563.10937.26563.45312v5.60938c0 .21874-.03125.35937-.09375.4375-.0625.09374-.15625.10937-.28125.125L1.25-.32812Zm0 0"/><path id="i" d="M.48438-3.85937c0 2.3125.67187 4 2.57812 4s2.59375-1.6875 2.59375-4c0-2.32813-.6875-4.01563-2.59375-4.01563S.48438-6.1875.48438-3.85937m1.17187 0c0-1.89063.3125-3.60938 1.40625-3.60938S4.48438-5.75 4.48438-3.85937c0 1.875-.32813 3.59375-1.42188 3.59375S1.65625-1.98437 1.65625-3.85937m0 0"/><path id="j" d="M.92188-3.26562c0 .40625.32812.73437.73437.73437s.73438-.32812.73438-.73437-.32813-.71875-.73438-.71875-.73437.3125-.73437.71875m0 0"/><path id="k" d="m1.67188-1.25.48437.46875 2-2.01562L6.1875-.78125 6.65625-1.25 4.64063-3.26562l2.01562-2.01563L6.1875-5.75l-2.03125 2-2-2-.48437.46875L3.6875-3.26562Zm0 0"/></defs><use xlink:href="#a" x="29.64807" y="14.56401"/><use xlink:href="#b" x="36.84835" y="14.56401"/><use xlink:href="#c" x="40.9962" y="14.56401"/><use xlink:href="#d" x="52.34432" y="14.56401"/><use xlink:href="#a" x="40.99551" y="29.33359"/><use xlink:href="#b" x="48.19579" y="29.33359"/><use xlink:href="#e" x="52.34363" y="29.33359"/><use xlink:href="#f" x="29.64807" y="44.10318"/><use xlink:href="#g" x="40.9962" y="44.10318"/><use xlink:href="#c" x="52.34432" y="44.10318"/><use xlink:href="#h" x="6.95196" y="58.87276"/><use xlink:href="#i" x="18.30008" y="58.87276"/><use xlink:href="#c" x="29.64821" y="58.87276"/><use xlink:href="#h" x="40.99633" y="58.87276"/><use xlink:href="#j" x="53.80323" y="58.87276"/><use xlink:href="#h" x="6.95196" y="73.64358"/><use xlink:href="#h" x="18.30008" y="73.64358"/><use xlink:href="#b" x="25.50036" y="73.64358"/><use xlink:href="#h" x="29.64821" y="73.64358"/><use xlink:href="#i" x="40.99633" y="73.64358"/><use xlink:href="#c" x="52.34445" y="73.64358"/><path fill="none" stroke="#000" stroke-miterlimit="10" stroke-width=".4917" d="M4.34375 62.5664h56.7383M15.6914 33.02734h45.39065"/><use xlink:href="#k" x="15.69017" y="29.33359"/></svg>