<svg id="Capa_1" enable-background="new 0 0 511.992 511.992" height="512" viewBox="0 0 511.992 511.992" width="512" xmlns="http://www.w3.org/2000/svg"><g><g><path d="m163.95 253.724v.002 173.344h170.221v-238.4l-.005-.001c-41.285 44.125-95.348 63.719-170.216 65.055z" fill="#e28086"/></g><path d="m334.166 188.668c-7.572 8.093-15.578 15.352-24.058 21.833v216.568h24.063v-238.4z" fill="#dd636e"/><path d="m38.938 69.433c.588-.346 2.485-.429 3.801-.159 4.016.885 8.004-1.626 8.928-5.643.928-4.036-1.592-8.062-5.629-8.99-1.635-.376-10.11-1.991-16.49 3.088-2.657 2.115-5.824 6.137-5.824 13.282v11.112h-1.701c-4.143 0-7.5 3.357-7.5 7.5s3.357 7.5 7.5 7.5h1.701v45.74c0 4.143 3.357 7.5 7.5 7.5s7.5-3.357 7.5-7.5v-45.74h4.65c4.143 0 7.5-3.357 7.5-7.5s-3.357-7.5-7.5-7.5h-4.65v-11.112c-.001-.983.155-1.442.214-1.578z" fill="#ecbe6b"/><path d="m180.452 459.599c-2.984 0-5.552 1.746-6.76 4.268-2.979-1.329-6.274-2.074-9.742-2.074-13.235 0-24.003 10.768-24.003 24.002 0 13.235 10.768 24.003 24.003 24.003 3.467 0 6.762-.745 9.742-2.074 1.208 2.522 3.777 4.268 6.76 4.268 4.143 0 7.5-3.357 7.5-7.5v-37.394c0-4.142-3.357-7.499-7.5-7.499zm-16.501 35.199c-4.964 0-9.003-4.039-9.003-9.003s4.039-9.002 9.003-9.002 9.002 4.038 9.002 9.002-4.039 9.003-9.002 9.003z" fill="#8993da"/><path d="m334.171 460.117c-3.907 0-7.612.873-10.938 2.427v-13.037c0-4.143-3.357-7.5-7.5-7.5s-7.5 3.357-7.5 7.5v54.985c0 4.143 3.357 7.5 7.5 7.5 2.511 0 4.728-1.238 6.089-3.133 3.674 1.997 7.881 3.133 12.348 3.133 14.302 0 25.938-11.636 25.938-25.938s-11.635-25.937-25.937-25.937zm0 36.875c-6.031 0-10.938-4.906-10.938-10.938s4.906-10.938 10.938-10.938 10.938 4.906 10.938 10.938-4.907 10.938-10.938 10.938z" fill="#e28086"/><g><path d="m156.072 261.339c-23.044 0-48.297-1.615-76.175-4.803-4.115-.47-7.07-4.188-6.6-8.303.471-4.116 4.199-7.068 8.303-6.6 90.339 10.327 151.666 3.842 198.851-21.029 47.535-25.056 82.525-71.118 110.118-144.963 1.448-3.88 5.768-5.853 9.65-4.4 3.88 1.449 5.851 5.771 4.4 9.65-28.957 77.499-66.19 126.109-117.174 152.983-35.108 18.505-77.112 27.465-131.373 27.465z" fill="#5766cb"/></g><path d="m511.139 430.555c1.341-2.5 1.075-5.723-.635-7.981l-20.618-27.525c-2.484-3.314-7.185-3.989-10.499-1.507-3.315 2.483-3.99 7.185-1.507 10.499l11.632 15.529h-401.264v-397.089l15.529 11.632c3.322 2.488 8.021 1.801 10.499-1.507 2.483-3.314 1.809-8.016-1.507-10.499l-27.525-20.618c-2.644-1.983-6.341-1.989-8.992 0l-27.525 20.618c-3.315 2.483-3.99 7.185-1.507 10.499 2.484 3.316 7.186 3.99 10.499 1.507l15.529-11.632v397.088h-65.747c-4.143 0-7.5 3.357-7.5 7.5s3.357 7.5 7.5 7.5h65.747v69.923c0 4.143 3.357 7.5 7.5 7.5s7.5-3.357 7.5-7.5v-69.923h401.264l-11.632 15.529c-2.483 3.314-1.809 8.016 1.507 10.499 1.349 1.01 2.926 1.497 4.49 1.497 2.281 0 4.535-1.037 6.009-3.004l20.618-27.525c.223-.328.453-.653.635-1.01z" fill="#596c76"/></g></svg>
