<svg xmlns="http://www.w3.org/2000/svg" xmlns:xlink="http://www.w3.org/1999/xlink" width="331.751pt" height="254.943pt" viewBox="0 0 331.751 254.943"><defs><path id="b" d="M1.60938-4.79687h10.42187v-1.10938H1.60938Zm0 0"/><path id="c" d="M.5-.1875.70313 0h7.84375l.64062-2.5-.51562-.09375C8.26563-1.57812 7.875-1.4375 7.10938-1.4375H2.28125c.29688-.98437 1.42188-2.32812 3.1875-3.59375C7.28125-6.375 8.6875-7.21875 8.6875-9.32812c0-2.64063-1.75-3.54688-3.75-3.54688C2.34375-12.875 1-11.3125 1-10.3125c0 .64063.73438.9375 1.0625.9375.34375 0 .45313-.20312.53125-.51562.3125-1.29688 1.04688-2.32813 2.21875-2.32813 1.45313 0 1.875 1.21875 1.875 2.60938 0 2.03125-1.03125 3.17187-2.67187 4.625C1.67188-2.9375.85938-1.65625.5-.1875m0 0"/><path id="d" d="M2.0625 0h6.21875v-.54687L6.6875-.6875c-.40625-.03125-.625-.17187-.625-.92187v-11.17188l-.09375-.09375-3.90625.65625v.46875l1.76563.21875c.32812.04688.4375.1875.4375.73438v9.1875c0 .75-.17188.89062-.625.92187L2.0625-.54687Zm0 0"/><path id="e" d="M.78125-6.32812c0 3.78125 1.10938 6.54687 4.23438 6.54687s4.25-2.76562 4.25-6.54687c0-3.79688-1.125-6.54688-4.25-6.54688S.78125-10.125.78125-6.32812m1.92188 0c0-3.07813.51562-5.89063 2.3125-5.89063 1.79687 0 2.32812 2.8125 2.32812 5.89063S6.8125-.4375 5.01563-.4375 2.70313-3.25 2.70313-6.32812m0 0"/><path id="g" d="m3.04688-2.28125.875.875 3.65625-3.6875L11.25-1.40625l.84375-.875L8.45313-5.9375l3.64062-3.67187-.84375-.85938L7.57813-6.8125l-3.65625-3.65625-.875.85938L6.71875-5.9375Zm0 0"/><path id="h" d="M.67188-5.6875c0 3.46875 2 6 6.1875 6 3.71875 0 5.53125-1.90625 6.70312-3.98437 1.14063-2.0625 1.34375-4.21875 1.34375-5.04688 0-4.32812-2.625-6.1875-6.09375-6.1875-3.375 0-5.45312 1.85938-6.6875 3.875C.96875-9.07812.67188-7.07812.67188-5.6875m2.21875.84375c0-1.76562.32812-3.73437 1.29687-5.78125.96875-1.98437 2.46875-3.53125 4.70313-3.53125 2.3125 0 3.79687 1.35938 3.79687 4.34375 0 1.20313-.125 2.9375-.98437 5.17188-.875 2.26562-2.3125 4.21875-5.04688 4.21875-2.28125 0-3.76562-1.48438-3.76562-4.42188m0 0"/><path id="i" d="M1.01563-7.28125c0 2.35938.64062 4.29688 1.78125 5.5625C3.98438-.40625 5.71875.3125 8.01563.3125c2.3125 0 4.03125-.71875 5.21875-2.03125 1.15625-1.26562 1.79687-3.20312 1.79687-5.5625s-.64062-4.29687-1.79687-5.5625c-1.1875-1.3125-2.90625-2.0625-5.21875-2.0625-2.29688 0-4.03125.75-5.21875 2.0625-1.14063 1.26563-1.78125 3.20313-1.78125 5.5625m2.34375 0c0-3.09375.92187-6.875 4.65625-6.875 3.75 0 4.67187 3.78125 4.67187 6.875S11.76563-.42187 8.01563-.42187c-3.73438 0-4.65625-3.76563-4.65625-6.85938m0 0"/><path id="j" d="M.67188 0h5.5625v-.60937c-1.89063-.10938-2-.15626-2-1.23438v-4.92187c0-1.60938.71875-2.17188 1.20312-2.17188.34375 0 .70313.125 1.3125.46875.15625.09375.3125.10938.42188.10938.51562 0 .96875-.53125.96875-1.1875 0-.46875-.29688-1.03125-1.125-1.03125-.76563 0-1.39063.45312-2.78125 1.6875l-.25-1.6875-3.20313.54687v.51563l.78125.10937c.54688.07813.70313.17188.70313.9375v6.625c0 1.07813-.10938 1.125-1.59375 1.23438Zm0 0"/><path id="k" d="M1.92188-13.78125c0 .76563.54687 1.29688 1.29687 1.29688.76563 0 1.28125-.53125 1.28125-1.29688 0-.76562-.51562-1.28125-1.28125-1.28125-.75 0-1.29687.51563-1.29687 1.28125M.67188 0h5.125v-.60937c-1.5-.10938-1.5625-.15626-1.5625-1.23438v-8.59375l-.15625-.14062-3.29688.54687v.51563l.78125.10937c.54688.07813.70313.17188.70313.9375v6.625c0 1.07813-.0625 1.125-1.59375 1.23438Zm0 0"/><path id="l" d="M.875 2.01563c0 2.125 2.125 3.07812 4.5625 3.07812 1.26563 0 2.57813-.25 3.59375-.85937.96875-.57813 1.67188-1.59375 1.67188-2.89063 0-2.28125-1.8125-3.0625-4.07813-3.0625H4.95313c-1.53125 0-1.75-.51562-1.75-.92187 0-.60938.8125-.9375 1.07812-1.03125.40625.04687.84375.0625 1.07813.0625 1.98437 0 4.25-.875 4.25-3.42188 0-.875-.28125-1.625-.64063-1.96875l1.67188-.28125.42187-1.3125-.17187-.1875-2.6875.85938c-.57813-.40625-1.76563-.65625-2.73438-.65625-3.23437 0-4.34375 1.96875-4.34375 3.54687 0 1.96875 1.29688 2.89063 2.26563 3.125v.04688c-1.15625.45312-1.9375 1.0625-1.9375 1.89062 0 .73438.85937 1.51563 1.85937 1.625v.04688C2.42188 0 .875.5.875 2.01563m2.01563-.09375c0-.71875.20312-1.25.65625-1.57813.46875-.35937 1.15625-.5 2.17187-.5 1.85938 0 3.21875.46875 3.21875 2.03125 0 1.6875-1.51562 2.5-3.01562 2.5-1.79688 0-3.03125-.92187-3.03125-2.45312m.375-8.95313c0-2.09375 1.07812-2.8125 2.20312-2.8125 1.03125 0 2.10938.76563 2.10938 2.8125 0 1.76563-.90625 2.6875-2.14063 2.6875-1.1875 0-2.17187-.92187-2.17187-2.6875m0 0"/><path id="m" d="M.67188 0h5.125v-.60937c-1.5-.10938-1.5625-.15626-1.5625-1.23438v-4.92187c0-.53125.01562-.8125.20312-1.14063.45313-.82812 1.39063-1.53125 2.51563-1.53125 1.42187 0 2.21875.78125 2.21875 2.625v4.96875c0 1.07813-.07813 1.125-1.59375 1.23438V0h5.15625v-.60937c-1.51563-.10938-1.59375-.15626-1.59375-1.23438v-5.375c0-2.125-1.17188-3.35937-3.09375-3.35937-1.57813 0-2.53125.76562-3.82813 1.60937l-.29687-1.60937-3.14063.54687v.51563l.78125.10937c.54688.07813.70313.17188.70313.9375v6.625c0 1.07813-.0625 1.125-1.59375 1.23438Zm0 0"/><path id="n" d="M1.03125-5.09375C1.03125-1.75 2.46875.25 5.89063.25 8.21875.25 9.4375-1.04687 10-2.71875l-.64062-.32812C8.78125-1.8125 7.98438-.82812 6.3125-.82812c-2.60937 0-3.125-2.51563-3.09375-4.70313h6.07813c.45312 0 .82812-.10937.82812-.8125 0-1.23437-.40625-4.23437-4.25-4.23437-3.29687 0-4.84375 2.32812-4.84375 5.48437m2.21875-1.25c0-.875.3125-3.5 2.51563-3.5 1.9375 0 2.17187 2 2.17187 2.82813 0 .40625-.14062.67187-.71875.67187Zm0 0"/><path id="o" d="M-.60937 0h4.64062v-.60937L2.9375-.71875c-.625-.0625-.71875-.29687-.54687-.84375C2.75-2.82812 3.1875-4.125 3.67188-5.625h4.73437L9.8125-1.59375c.20313.60938.10938.82813-.5625.90625l-.95312.07813V0h5.39062v-.60937c-1.23437-.10938-1.45312-.17188-1.82812-1.26563L7.39063-14.5625h-1.5625L3.625-8.32812C2.98438-6.5 2.07813-3.98437 1.34375-2.0625.89063-.92187.71875-.67187-.60937-.60937Zm4.57812-6.4375C4.64063-8.53125 5.375-10.59375 6-12.45312h.07813L8.15625-6.4375Zm0 0"/><path id="p" d="m.42188-14.5625.8125.0625c.53125.07813.67187.1875.67187.98438V.09375l.375.15625.82813-.8125C3.85938-.14062 4.75.25 6.3125.25c2.8125 0 5.25-1.34375 5.25-5.65625 0-1.29687-.26562-5.17187-4.0625-5.17187-1.57812 0-2.84375 1.03125-3.625 1.5V-15.5l-.15625-.125-3.29687.51563ZM3.875-3.42187v-3.34375c0-.53125.03125-.85938.20313-1.1875.51562-1.01563 1.39062-1.48438 2.57812-1.48438.875 0 2.70313.5 2.70313 4.17188C9.35938-2.17187 8.42188-.5 6.34375-.5c-1.125 0-1.9375-.54687-2.3125-1.60937-.125-.375-.15625-.79688-.15625-1.3125m0 0"/><path id="q" d="m.98438-3.51562.21874 2.75C1.96876-.09376 3.25.25 4.48438.25c2.5 0 3.9375-1.32812 3.9375-3.125 0-1.85937-1.14063-2.6875-3.3125-3.35937C4.23438-6.5 2.875-6.95312 2.875-8.14062c0-1.09375.82813-1.70313 1.875-1.70313 1.5 0 2.21875 1.17188 2.375 2.45313h.60938v-2.46875c-.70313-.51563-1.78125-.71875-2.71875-.71875C2.73438-10.57812 1.1875-9.5 1.1875-7.5c0 1.73438 1.4375 2.53125 3.1875 3.0625.9375.29688 2.25.76563 2.25 2.20313C6.625-1.17187 5.79688-.5 4.6875-.5c-1.70312 0-2.67187-1.21875-3.09375-3.01562Zm0 0"/><path id="r" d="M1.03125-5.0625C1.03125-1.54687 2.75.25 5.92188.25c1.46875 0 3.46875-.76562 4.04687-3.03125l-.625-.28125C8.6875-1.59375 7.85938-.84375 6.3125-.84375c-2.5 0-3.09375-2.625-3.09375-4.59375 0-3.14062 1.23438-4.40625 2.70313-4.40625.95312 0 1.5625.70313 1.98437 1.84375.14063.34375.26563.53125.67188.53125.42187 0 1.23437-.26562 1.23437-1.0625 0-.96875-1.39062-2.04687-3.67187-2.04687-3.82813 0-5.10938 2.71875-5.10938 5.51562m0 0"/><path id="s" d="M1.03125-4.95312C1.03125-1.84375 2.67188.25 5.4375.25c1.15625 0 2.10938-.51562 3.25-1.4375v1.03125L8.875 0h3.40625v-.60937c-1.5-.10938-1.57812-.15626-1.57812-1.23438V-15.5l-.15625-.125-3.3125.51563v.54687l.8125.0625c.53125.07813.67187.1875.67187.98438v3.45312c-.57812-.3125-1.375-.51562-2.32812-.51562-1.73438 0-3.03125.5625-3.90625 1.45312-.89063.95313-1.45313 2.32813-1.45313 4.17188m2.1875-.25c0-2.73438 1-4.64063 3.14063-4.64063.98437 0 1.79687.45313 2.17187 1.32813.1875.35937.1875.67187.1875 1.23437v3.70313c0 .46875 0 .82812-.14062 1.1875C8.15625-1.29687 7.23438-.875 6.14063-.875c-1.92188 0-2.92188-1.90625-2.92188-4.32812m0 0"/><path id="t" d="M1.03125-5.15625C1.03125-1.75 2.71875.25 6.09375.25c3.39063 0 5.04688-2 5.04688-5.40625s-1.65625-5.42187-5.04688-5.42187c-3.375 0-5.0625 2.01562-5.0625 5.42187m2.1875 0c0-2.90625.95313-4.6875 2.875-4.6875 1.92188 0 2.875 1.78125 2.875 4.6875C8.96875-2.23437 8.01563-.5 6.09375-.5c-1.92187 0-2.875-1.73437-2.875-4.65625m0 0"/><path id="u" d="m4.23438-11.82812.3125.42187 3.1875-1.76562c.625-.34375 1.1875-.70313 1.1875-1.14063s-.51563-.92187-.82813-.92187c-.35937 0-.71875.21875-1.34375.875ZM1.03125-5.09375C1.03125-1.75 2.46875.25 5.89063.25 8.21875.25 9.4375-1.04687 10-2.71875l-.64062-.32812C8.78125-1.8125 7.98438-.82812 6.3125-.82812c-2.60937 0-3.125-2.51563-3.09375-4.70313h6.07813c.45312 0 .82812-.10937.82812-.8125 0-1.23437-.40625-4.23437-4.25-4.23437-3.29687 0-4.84375 2.32812-4.84375 5.48437m2.21875-1.25c0-.875.3125-3.5 2.51563-3.5 1.9375 0 2.17187 2 2.17187 2.82813 0 .40625-.14062.67187-.71875.67187Zm0 0"/><clipPath id="a"><path d="M3 31h224v223.82031H3Zm0 0"/></clipPath><clipPath id="f"><path d="M114 37h2v217.82031h-2Zm0 0"/></clipPath></defs><g clip-path="url(#a)"><path fill="none" stroke="#000" stroke-miterlimit="10" stroke-opacity=".5" stroke-width=".3982" d="M3.36328 238.48828h223.0664M3.36329 190.6875h223.0664M3.36329 142.89062h223.0664M3.36329 95.08984h223.0664M3.36329 47.29297h223.0664m-207.1328 207.1289V31.35937m47.80078 223.0625V31.35937m47.80078 223.0625V31.35937m47.79687 223.0625V31.35937m47.80078 223.0625V31.35937"/></g><path fill="none" stroke="#000" stroke-miterlimit="10" stroke-opacity=".5" stroke-width=".3982" d="M19.29688 126.95703v31.86719"/><g fill-opacity=".5"><use xlink:href="#b" x="7.4654" y="171.63735"/><use xlink:href="#c" x="21.09303" y="171.63735"/></g><path fill="none" stroke="#000" stroke-miterlimit="10" stroke-opacity=".5" stroke-width=".3982" d="M67.09766 126.95703v31.86719"/><g fill-opacity=".5"><use xlink:href="#b" x="55.26452" y="171.63735"/><use xlink:href="#d" x="68.89216" y="171.63735"/></g><path fill="none" stroke="#000" stroke-miterlimit="10" stroke-opacity=".5" stroke-width=".3982" d="M162.69531 126.95703v31.86719"/><use xlink:href="#d" x="157.67566" y="171.63735" fill-opacity=".5"/><path fill="none" stroke="#000" stroke-miterlimit="10" stroke-opacity=".5" stroke-width=".3982" d="M210.4961 126.95703v31.86719"/><use xlink:href="#c" x="205.47478" y="171.63735" fill-opacity=".5"/><path fill="none" stroke="#000" stroke-miterlimit="10" stroke-opacity=".5" stroke-width=".3982" d="M130.82813 238.48828H98.96484"/><g fill-opacity=".5"><use xlink:href="#b" x="80.75639" y="244.92834"/><use xlink:href="#c" x="94.38402" y="244.92834"/></g><path fill="none" stroke="#000" stroke-miterlimit="10" stroke-opacity=".5" stroke-width=".3982" d="M130.82813 190.6875H98.96484"/><g fill-opacity=".5"><use xlink:href="#b" x="80.75639" y="197.13022"/><use xlink:href="#d" x="94.38402" y="197.13022"/></g><path fill="none" stroke="#000" stroke-miterlimit="10" stroke-opacity=".5" stroke-width=".3982" d="M130.82813 95.08984H98.96484"/><use xlink:href="#d" x="87.57027" y="101.53197" fill-opacity=".5"/><path fill="none" stroke="#000" stroke-miterlimit="10" stroke-opacity=".5" stroke-width=".3982" d="M130.82813 47.29297H98.96484"/><use xlink:href="#c" x="87.57027" y="53.73385" fill-opacity=".5"/><path fill="none" stroke="#000" stroke-miterlimit="10" stroke-opacity=".5" stroke-width=".3982" d="M114.89844 126.95703v31.86719"/><use xlink:href="#e" x="93.94349" y="171.52643" fill-opacity=".5"/><g clip-path="url(#f)"><path fill="none" stroke="#EC008C" stroke-miterlimit="10" stroke-width=".79641" d="M114.89844 254.42187V37.53125"/></g><path fill="#EC008C" stroke="#EC008C" stroke-miterlimit="10" stroke-width=".79641" d="M114.89844 33.36719c-.10938.51172-.71094 2.75781-1.36328 4.16406h2.72656c-.65625-1.40625-1.25781-3.65234-1.36328-4.16406Zm0 0"/><path fill="none" stroke="#FF7F00" stroke-miterlimit="10" stroke-width=".79641" d="M3.36328 142.89062h216.89453"/><path fill="#FF7F00" stroke="#FF7F00" stroke-miterlimit="10" stroke-width=".79641" d="M224.41797 142.89062c-.51172-.10546-2.75781-.70703-4.16016-1.36328v2.72657c1.40235-.65625 3.64844-1.25782 4.16016-1.36329Zm0 0"/><use xlink:href="#g" x="107.32545" y="148.12" fill="#007F7F"/><use xlink:href="#h" x="122.80982" y="134.6631" fill="#007F7F"/><path fill="none" stroke="#007F7F" stroke-miterlimit="10" stroke-width=".3982" d="M125.28906 151.45703 226.4297 206.6211"/><path fill="#007F7F" stroke="#007F7F" stroke-miterlimit="10" stroke-width=".39818" d="M121.92187 149.6211c.35547.33593 1.82813 1.95702 2.58985 3.26171l1.55469-2.85156c-1.50782.0664-3.66797-.29688-4.14454-.41016Zm0 0"/><g fill="#007F7F"><use xlink:href="#i" x="234.32812" y="229.58086"/><use xlink:href="#j" x="250.3659" y="229.58086"/></g><g fill="#007F7F"><use xlink:href="#k" x="258.72077" y="229.58086"/><use xlink:href="#l" x="264.83573" y="229.58086"/><use xlink:href="#k" x="275.76651" y="229.58086"/><use xlink:href="#m" x="281.88147" y="229.58086"/><use xlink:href="#n" x="294.89536" y="229.58086"/></g><use xlink:href="#o" x="234.32812" y="150.57316" fill="#FF7F00"/><g fill="#FF7F00"><use xlink:href="#p" x="247.43161" y="150.57316"/><use xlink:href="#q" x="260.01992" y="150.57316"/><use xlink:href="#r" x="269.18117" y="150.57316"/><use xlink:href="#k" x="279.61916" y="150.57316"/><use xlink:href="#q" x="285.73412" y="150.57316"/><use xlink:href="#q" x="294.89536" y="150.57316"/><use xlink:href="#n" x="304.05661" y="150.57316"/><use xlink:href="#q" x="314.87539" y="150.57316"/></g><g fill="#EC008C"><use xlink:href="#i" x="62.2253" y="23.1448"/><use xlink:href="#j" x="78.26307" y="23.1448"/></g><g fill="#EC008C"><use xlink:href="#s" x="86.01317" y="23.1448"/><use xlink:href="#t" x="98.60148" y="23.1448"/><use xlink:href="#m" x="110.74181" y="23.1448"/><use xlink:href="#m" x="123.7557" y="23.1448"/><use xlink:href="#u" x="136.76959" y="23.1448"/><use xlink:href="#n" x="147.58837" y="23.1448"/><use xlink:href="#q" x="158.40715" y="23.1448"/></g></svg>