<svg xmlns="http://www.w3.org/2000/svg" xmlns:xlink="http://www.w3.org/1999/xlink" width="447.253" height="387.537" viewBox="0 0 447.253 387.537"><defs><path id="b" d="M1.60938-4.79687h10.42187v-1.10938H1.60938Zm0 0"/><path id="c" d="M.5-1.9375C.5-1.125 1.8125.21875 4.48438.21875c2.75 0 4.48437-1.39062 4.48437-3.79687 0-2.54688-2.1875-3.29688-3.23437-3.39063v-.07812c1.03125-.15625 2.67187-.92188 2.67187-2.79688 0-2.09375-1.64062-3.03125-3.67187-3.03125C2.23438-12.875 1-11.42187 1-10.60937c0 .57812.67188.90625.9375.90625.23438 0 .375-.14063.45313-.39063.42187-1.28125 1.14062-2.10937 2.20312-2.10937 1.48438 0 1.875 1.3125 1.875 2.375 0 1.125-.40625 2.5625-2.01562 2.5625-.90625 0-1.4375-.1875-1.65625-.1875-.23438 0-.34375.1875-.34375.53125 0 .3125.10937.51562.34375.51562.21875 0 .75-.1875 1.65625-.1875 1.60937 0 2.51562 1.45313 2.51562 3.10938 0 2.25-1.10937 3.04687-2.45312 3.04687-1.25 0-2.07813-.9375-2.4375-2-.125-.35937-.3125-.54687-.5625-.54687C1.17188-2.98437.5-2.625.5-1.9375m0 0"/><path id="d" d="M.5-.1875.70313 0h7.84375l.64062-2.5-.53125-.09375C8.25-1.57812 7.875-1.4375 7.10938-1.4375H2.28125c.29688-.98437 1.42188-2.32812 3.17188-3.59375C7.26563-6.35937 8.6875-7.20312 8.6875-9.32812c0-2.64063-1.76562-3.54688-3.75-3.54688C2.34375-12.875 1-11.29687 1-10.3125c0 .64063.73438.95313 1.04688.95313.34375 0 .46875-.20313.54687-.53125.3125-1.28125 1.04688-2.3125 2.21875-2.3125 1.45313 0 1.875 1.20312 1.875 2.59375 0 2.03125-1.03125 3.1875-2.67187 4.64062C1.67188-2.9375.85938-1.65625.5-.1875m0 0"/><path id="e" d="M2.04688 0h6.23437v-.54687L6.6875-.6875c-.40625-.03125-.625-.17187-.625-.92187v-11.15625l-.09375-.10938-3.92187.67188v.46875l1.78125.21875c.32812.03125.4375.17187.4375.71875v9.1875c0 .75-.17188.89062-.625.92187l-1.59375.14063Zm0 0"/><path id="f" d="m.35938-3.78125.17187.39063h5.14063v1.9375c0 .64062-.1875.75-.65625.78125l-1.20313.125V0h4.98438v-.54687l-.84375-.09376c-.4375-.0625-.5625-.17187-.5625-.8125v-1.9375h1.9375v-.875h-1.9375v-8.375H6C4.23438-10.03124 2.09375-6.75.35938-3.78124m1.375-.48437c1.125-2.0625 2.5-4.25 3.9375-6.54688v6.54688Zm0 0"/><path id="g" d="M.76563-1.9375c0 .875 1.32812 2.15625 3.78125 2.15625 3.125 0 4.53125-1.89062 4.53125-4.28125 0-2.67187-1.64063-4.01562-3.90625-4.01562-1.04688 0-2.1875.46875-2.79688 1.01562l.42188-3.59375c.0625-.48437.1875-.54687.54687-.54687H8.0625l.45313-1.28125-.09375-.15625H2.09375l-.1875.17187-.375 6.32813L2-5.90625C2.78125-6.8125 3.54688-7.25 4.57813-7.25c1.20312 0 2.53125.89063 2.53125 3.39063 0 1.95312-.78125 3.42187-2.4375 3.42187-1.32813 0-2-.95312-2.375-2.04687-.09375-.28125-.28125-.45313-.54688-.45313-.375 0-.98437.375-.98437 1m0 0"/><path id="h" d="M.78125-6.32812c0 3.79687 1.10938 6.54687 4.23438 6.54687s4.25-2.75 4.25-6.54687c0-3.78125-1.125-6.54688-4.25-6.54688S.78125-10.10937.78125-6.32812m1.92188 0c0-3.07813.51562-5.875 2.3125-5.875 1.79687 0 2.3125 2.79687 2.3125 5.875S6.8125-.4375 5.01563-.4375c-1.79688 0-2.3125-2.8125-2.3125-5.89062m0 0"/><path id="m" d="M.6875-10.5c0 1.84375 1.84375 3.29688 6.04688 3.29688-.6875 1.23437-1.20313 2.5-1.20313 3.89062C5.53125-1 6.98438.25 9.625.25c2.5625 0 5.25-1.85937 5.25-4.25 0-1.4375-1.1875-2.21875-2.6875-2.21875-1.65625 0-3.59375 1.85938-3.59375 3.32813 0 .45312.32813 1.29687.95313 1.29687.1875 0 .4375-.125.4375-.32812 0-.26563-.5-.29688-.5-.9375 0-1.03125 1.5-2.6875 2.70312-2.6875.85938 0 1.375.32812 1.375 1.15625 0 1.85937-1.79687 3.96875-3.9375 3.96875-1.53125 0-2.3125-.82813-2.3125-2.21875 0-1.5625 1.09375-3.40625 1.92188-4.75 4.6875-.70313 9.26562-3.01563 9.26562-5.9375 0-1.125-.89062-1.85938-2.09375-1.85938-2.78125 0-6.96875 3.54688-9.26562 7.25-1.90625-.03125-5-.07812-5-2.3125 0-2.0625 2.51562-3.64062 4.07812-3.64062.29688 0 .45313-.1875.45313-.35938 0-.1875-.15625-.3125-.34375-.3125C3.98438-14.5625.6875-12.98437.6875-10.5m8.98438 2.28125c1.53125-2.70312 4.8125-6.29687 6.73437-6.29687.73438 0 1.25.42187 1.25 1.10937 0 2.35938-3.6875 4.5-7.98437 5.1875m0 0"/><path id="p" d="m3.04688-2.28125.875.875L7.5625-5.07812l3.67188 3.67187.84375-.875L8.4375-5.92187l3.64063-3.67188-.84375-.85937L7.5625-6.79687l-3.64062-3.65625-.875.85937 3.67187 3.67188Zm0 0"/><path id="o" d="M-.3125 2.65625c.01563.51563.64063.90625 1.4375.90625 1.54688 0 2.25-1.23437 2.85938-4l1.375-6.17187h1.84375l.15625-.60938H5.45313l.4375-1.79687c.25-.98438.5-1.35938.85937-1.35938.34375 0 .59375.28125.9375 1.03125.09375.15625.23438.29688.48438.29688.34375 0 .79687-.29688.79687-.70313 0-.64062-.8125-1.17187-1.79687-1.17187-1.84375 0-2.59375 1.32812-3.125 3.21875l-.14063.48437H2.64063l-.20313.60938h1.32813L2.03125 2.125C1.89063 2.89063 1.75 3 1.60938 3c-.15626 0-.39063-.14062-.76563-.76562C.73438 2.07813.625 1.875.40625 1.875c-.35937 0-.71875.375-.71875.78125m0 0"/><clipPath id="a"><path d="M0 .09375h446.50781V383H0Zm0 0"/></clipPath><clipPath id="i"><path d="M442 347h4.50781v8H442Zm0 0"/></clipPath><clipPath id="j"><path d="M222 .09375h2V383h-2Zm0 0"/></clipPath><clipPath id="k"><path d="M219 .09375h8V4h-8Zm0 0"/></clipPath><clipPath id="l"><path d="M.39453.48438h445.71875V362H.39453Zm0 0"/></clipPath><clipPath id="n"><path d="M248 368h10v14.53125h-10Zm0 0"/></clipPath></defs><g clip-path="url(#a)"><path fill="none" stroke="#000" stroke-miterlimit="10" stroke-opacity=".5" stroke-width=".39783" d="M.39444 350.6914h445.71893M.39444 287.0195h445.71893M.39444 223.3437h445.71893M.39444 159.6718h445.71893M.39444 95.99599h445.71893M.39444 32.32409h445.71893M32.2304 382.53126V.48423m63.6758 382.04703V.48423m63.6758 382.04703V.48423m63.6719 382.04703V.48423m63.67581 382.04703V.48423m63.6719 382.04703V.48423m63.67581 382.04703V.48423"/></g><path fill="none" stroke="#000" stroke-miterlimit="10" stroke-opacity=".5" stroke-width=".39783" d="M32.23039 334.77343v31.83595"/><g fill-opacity=".5"><use xlink:href="#b" x="20.41191" y="372.93526"/><use xlink:href="#c" x="34.02703" y="372.93526"/></g><path fill="none" stroke="#000" stroke-miterlimit="10" stroke-opacity=".5" stroke-width=".39783" d="M95.9062 334.77343v31.83595"/><g fill-opacity=".5"><use xlink:href="#b" x="84.08456" y="373.04607"/><use xlink:href="#d" x="97.69969" y="373.04607"/></g><path fill="none" stroke="#000" stroke-miterlimit="10" stroke-opacity=".5" stroke-width=".39783" d="M159.582 334.77343v31.83595"/><g fill-opacity=".5"><use xlink:href="#b" x="147.75822" y="373.04607"/><use xlink:href="#e" x="161.37334" y="373.04607"/></g><path fill="none" stroke="#000" stroke-miterlimit="10" stroke-opacity=".5" stroke-width=".39783" d="M286.92971 334.77343v31.83595"/><use xlink:href="#e" x="281.91215" y="373.04607" fill-opacity=".5"/><path fill="none" stroke="#000" stroke-miterlimit="10" stroke-opacity=".5" stroke-width=".39783" d="M350.60162 334.77343v31.83595"/><use xlink:href="#d" x="345.58481" y="373.04607" fill-opacity=".5"/><path fill="none" stroke="#000" stroke-miterlimit="10" stroke-opacity=".5" stroke-width=".39783" d="M414.27742 334.77343v31.83595"/><use xlink:href="#c" x="409.25846" y="372.93526" fill-opacity=".5"/><path fill="none" stroke="#000" stroke-miterlimit="10" stroke-opacity=".5" stroke-width=".39783" d="M239.17188 287.0195h-31.83595"/><use xlink:href="#e" x="195.95272" y="293.45401" fill-opacity=".5"/><path fill="none" stroke="#000" stroke-miterlimit="10" stroke-opacity=".5" stroke-width=".39783" d="M239.17188 223.3437h-31.83595"/><use xlink:href="#d" x="195.95272" y="229.78135" fill-opacity=".5"/><path fill="none" stroke="#000" stroke-miterlimit="10" stroke-opacity=".5" stroke-width=".39783" d="M239.17188 159.6718h-31.83595"/><use xlink:href="#c" x="195.95272" y="165.99688" fill-opacity=".5"/><path fill="none" stroke="#000" stroke-miterlimit="10" stroke-opacity=".5" stroke-width=".39783" d="M239.17188 95.99599h-31.83595"/><use xlink:href="#f" x="195.95272" y="102.32423" fill-opacity=".5"/><path fill="none" stroke="#000" stroke-miterlimit="10" stroke-opacity=".5" stroke-width=".39783" d="M239.17188 32.32409h-31.83595"/><use xlink:href="#g" x="195.95272" y="38.53976" fill-opacity=".5"/><path fill="none" stroke="#000" stroke-miterlimit="10" stroke-opacity=".5" stroke-width=".39783" d="M223.2539 334.77343v31.83595"/><use xlink:href="#h" x="195.95272" y="379.30262" fill-opacity=".5"/><path fill="none" stroke="#000" stroke-miterlimit="10" stroke-width=".79568" d="M.39444 350.6914H445.3165"/><g clip-path="url(#i)"><path fill="none" stroke="#000" stroke-linecap="round" stroke-linejoin="round" stroke-miterlimit="10" stroke-width=".79568" d="M443.16797 347.58594c.46484 1.86328 1.5039 2.74218 2.54687 3.10547-1.04297.36328-2.08203 1.24218-2.54687 3.10547"/></g><g clip-path="url(#j)"><path fill="none" stroke="#000" stroke-miterlimit="10" stroke-width=".79568" d="M223.2539 382.53126V1.28111"/></g><g clip-path="url(#k)"><path fill="none" stroke="#000" stroke-linecap="round" stroke-linejoin="round" stroke-miterlimit="10" stroke-width=".79568" d="M220.14844 3.42969c1.86328-.46485 2.74218-1.5 3.10547-2.54688.36328 1.04688 1.24218 2.08203 3.10547 2.54688"/></g><g clip-path="url(#l)"><path fill="none" stroke="#007F7F" stroke-miterlimit="10" stroke-width=".79568" d="M.39444-39.31266s13.41797 45.75783 18.57032 62.293c5.15625 16.53125 13.41797 41.84376 18.57032 56.87502 5.15625 15.02735 13.41797 37.9258 18.57423 51.45705 5.15234 13.52735 13.41797 34.01564 18.57032 46.03908 5.15234 12.02735 13.41797 30.10158 18.57032 40.62502s13.41797 26.19141 18.57032 35.20704c5.15234 9.01954 13.41797 22.27736 18.57032 29.79298 5.15625 7.51563 13.41797 18.3633 18.57032 24.37501 5.15625 6.01563 13.41797 14.45314 18.57422 18.96095 5.15235 4.50781 13.41407 10.53516 18.57032 13.54297 5.15235 3.00782 13.41798 6.625 18.57032 8.12891 5.15235 1.5 13.41798 2.70704 18.57032 2.70704 5.15235 0 13.41798-1.20313 18.57032-2.70313 5.15235-1.5039 13.41798-5.11719 18.57032-8.125 5.15626-3.00391 13.41798-9.02735 18.57423-13.53907 5.15235-4.50782 13.41407-12.94141 18.57032-18.95313 5.15235-6.01173 13.41798-16.85548 18.57032-24.3711 5.15235-7.51564 13.41797-20.76955 18.57032-29.78908 5.15235-9.01563 13.41798-24.6836 18.57032-35.20314 5.15235-10.51954 13.41797-28.59767 18.57032-40.62111 5.15625-12.02345 13.41798-32.50783 18.57032-46.03518 5.15625-13.52735 13.41798-36.42189 18.57423-51.45314 5.15234-15.02735 13.41797-40.33596 18.57032-56.86722 5.15234-16.53516 18.57032-62.28908 18.57032-62.28908"/></g><use xlink:href="#m" x="231.58121" y="374.24108" fill="#007F7F"/><g clip-path="url(#n)"><use xlink:href="#o" x="248.7448" y="379.16485" fill="#007F7F"/></g><use xlink:href="#p" x="24.67079" y="69.38824"/><use xlink:href="#p" x="88.34345" y="228.57137"/><use xlink:href="#p" x="152.0171" y="324.08085"/><use xlink:href="#p" x="215.68976" y="355.91768"/><use xlink:href="#p" x="279.36341" y="324.08085"/><use xlink:href="#p" x="343.03606" y="228.57137"/><use xlink:href="#p" x="406.70972" y="69.38824"/></svg>