<svg xmlns="http://www.w3.org/2000/svg" xmlns:xlink="http://www.w3.org/1999/xlink" width="248.828pt" height="215.475pt" viewBox="0 0 248.828 215.475"><defs><path id="b" d="M.4375-3.51562C.4375-1.40625 1.04688.125 2.78125.125c1.73438 0 2.35938-1.53125 2.35938-3.64062 0-2.09375-.625-3.64063-2.35938-3.64063S.4375-5.60937.4375-3.51562m1.0625 0c0-1.70313.29688-3.26563 1.28125-3.26563 1 0 1.29688 1.5625 1.29688 3.26563C4.07813-1.79687 3.78125-.25 2.78125-.25 1.79688-.25 1.5-1.79687 1.5-3.51562m0 0"/><path id="c" d="M.89063-2.65625h5.78125v-.625H.89063Zm0 0"/><path id="d" d="M.28125-1.07812C.28125-.625 1 .125 2.5.125c1.51563 0 2.48438-.78125 2.48438-2.10937 0-1.42188-1.21875-1.82813-1.79688-1.89063v-.04687C3.76563-4 4.67188-4.4375 4.67188-5.46875c0-1.17187-.90625-1.6875-2.04688-1.6875-1.39062 0-2.0625.8125-2.0625 1.26563 0 .3125.35938.5.51563.5.125 0 .20312-.07813.25-.21875.23437-.71875.625-1.17188 1.21875-1.17188.82812 0 1.04687.73438 1.04687 1.32813 0 .625-.21875 1.42187-1.125 1.42187-.5 0-.79687-.10937-.90625-.10937-.14062 0-.20312.10937-.20312.29687 0 .17188.0625.28125.20312.28125.10938 0 .40625-.09375.90625-.09375.90625 0 1.40625.79688 1.40625 1.71875C3.875-.6875 3.25-.25 2.5-.25c-.6875 0-1.14062-.51562-1.34375-1.10937-.07812-.20313-.17187-.29688-.3125-.29688-.1875 0-.5625.20313-.5625.57813m0 0"/><path id="e" d="M.28125-.09375.39063 0H4.75l.34375-1.39062-.28125-.04688c-.21875.5625-.4375.64063-.85937.64063h-2.6875c.17187-.54688.79687-1.29688 1.76562-2 1-.73438 1.79688-1.20313 1.79688-2.39063 0-1.45312-.98438-1.96875-2.09375-1.96875-1.4375 0-2.17188.875-2.17188 1.42188 0 .35937.40625.53125.57813.53125.1875 0 .26562-.10938.29687-.29688.17188-.70312.59375-1.28125 1.23438-1.28125.8125 0 1.04687.67188 1.04687 1.4375 0 1.14063-.57812 1.78125-1.5 2.57813C.92188-1.64062.48438-.92187.28125-.09375m0 0"/><path id="f" d="M1.14063 0h3.45312v-.29687l-.875-.07813C3.48438-.40625 3.375-.48437 3.375-.89062v-6.20313l-.0625-.0625-2.17187.375v.26563l.98437.10937c.17188.03125.25.10938.25.40625v5.10938c0 .40625-.10937.48437-.34375.51562l-.89062.07813Zm0 0"/><path id="i" d="m.20313-2.10937.09375.23437h2.85937v1.0625c0 .35938-.10937.42188-.375.4375l-.67187.07813V0h2.78125v-.29687l-.46875-.0625c-.25-.03125-.3125-.09375-.3125-.45313V-1.875H5.1875v-.5H4.10938v-4.65625h-.78125C2.34375-5.57812 1.15625-3.75.20313-2.10937M.96875-2.375c.625-1.14062 1.375-2.35937 2.1875-3.625v3.625Zm0 0"/><path id="j" d="M.42188-1.07812C.42188-.59375 1.15625.125 2.53125.125c1.73438 0 2.51563-1.04687 2.51563-2.39062 0-1.46875-.92188-2.21875-2.17188-2.21875-.57812 0-1.21875.25-1.5625.5625l.25-2c.03125-.26563.09375-.29688.29688-.29688h2.60937l.26563-.71875-.0625-.09375H1.15625l-.09375.10938-.21875 3.51562.26563.125c.4375-.5.85937-.75 1.4375-.75.65625 0 1.40625.5 1.40625 1.89063C3.95313-1.0625 3.51563-.25 2.59375-.25c-.73437 0-1.10937-.51562-1.3125-1.125-.0625-.15625-.15625-.26562-.3125-.26562-.20312 0-.54687.21874-.54687.5625m0 0"/><path id="k" d="m1.6875-1.26562.48438.48437L4.20313-2.8125 6.23438-.78125l.46875-.48437L4.6875-3.29687l2.01563-2.03125-.46875-.46875-2.03125 2.01562-2.03125-2.01562-.48438.46875 2.03125 2.03125Zm0 0"/><clipPath id="a"><path d="M.21484 0h248.22657v213H.21484Zm0 0"/></clipPath><clipPath id="g"><path d="M.21484 194H243v2H.21484Zm0 0"/></clipPath><clipPath id="h"><path d="M230 182h18.4414v26H230Zm0 0"/></clipPath></defs><g clip-path="url(#a)"><path fill="none" stroke="#000" stroke-miterlimit="10" stroke-opacity=".5" stroke-width=".39753" d="M.61334 194.80469H248.0429M.61334 159.45705H248.0429M.61334 124.1094H248.0429M.61334 88.76177H248.0429M.61334 53.41413H248.0429M.61334 18.07039H248.0429M18.28521 212.48046V.39462m35.34763 212.08584V.39462m35.34764 212.08584V.39462m35.34764 212.08584V.39462m35.34765 212.08584V.39462m35.34764 212.08584V.39462m35.34764 212.08584V.39462"/></g><path fill="none" stroke="#000" stroke-miterlimit="10" stroke-opacity=".5" stroke-width=".39753" d="M124.32812 185.96875v17.67187"/><use xlink:href="#b" x="109.17313" y="210.68766" fill-opacity=".5"/><path fill="none" stroke="#000" stroke-miterlimit="10" stroke-opacity=".5" stroke-width=".39753" d="M18.2852 185.96875v17.67187"/><g fill-opacity=".5"><use xlink:href="#c" x="11.72457" y="207.15328"/><use xlink:href="#d" x="19.28274" y="207.15328"/></g><path fill="none" stroke="#000" stroke-miterlimit="10" stroke-opacity=".5" stroke-width=".39753" d="M53.63284 185.96875v17.67187"/><g fill-opacity=".5"><use xlink:href="#c" x="47.07144" y="207.21413"/><use xlink:href="#e" x="54.62962" y="207.21413"/></g><path fill="none" stroke="#000" stroke-miterlimit="10" stroke-opacity=".5" stroke-width=".39753" d="M88.98048 185.96875v17.67187"/><g fill-opacity=".5"><use xlink:href="#c" x="82.41832" y="207.21413"/><use xlink:href="#f" x="89.9765" y="207.21413"/></g><path fill="none" stroke="#000" stroke-miterlimit="10" stroke-opacity=".5" stroke-width=".39753" d="M159.67577 185.96875v17.67187"/><use xlink:href="#f" x="156.89087" y="207.21413" fill-opacity=".5"/><path fill="none" stroke="#000" stroke-miterlimit="10" stroke-opacity=".5" stroke-width=".39753" d="M195.0234 185.96875v17.67187"/><use xlink:href="#e" x="192.23775" y="207.21413" fill-opacity=".5"/><path fill="none" stroke="#000" stroke-miterlimit="10" stroke-opacity=".5" stroke-width=".39753" d="M230.37105 185.96875v17.67187"/><use xlink:href="#d" x="227.58562" y="207.15328" fill-opacity=".5"/><g clip-path="url(#g)"><path fill="none" stroke="#000" stroke-miterlimit="10" stroke-width=".79507" d="M.61334 194.80469h241.26942"/></g><path d="M246.03516 194.80469c-.50782-.10547-2.75-.70703-4.15235-1.35938v2.72266c1.40235-.65625 3.64453-1.25781 4.15235-1.36328m0 0"/><g clip-path="url(#h)"><path fill="none" stroke="#000" stroke-miterlimit="10" stroke-width=".79507" d="M246.03515 194.80469c-.5078-.10547-2.75-.70703-4.15234-1.35938v2.72266c1.40235-.65625 3.64453-1.25781 4.15234-1.36328Zm0 0"/></g><path fill="none" stroke="#000" stroke-miterlimit="10" stroke-opacity=".5" stroke-width=".39753" d="M133.16406 159.45705h-17.67187"/><use xlink:href="#f" x="109.17313" y="163.03078" fill-opacity=".5"/><path fill="none" stroke="#000" stroke-miterlimit="10" stroke-opacity=".5" stroke-width=".39753" d="M133.16406 124.1094h-17.67187"/><use xlink:href="#e" x="109.17313" y="127.6839" fill-opacity=".5"/><path fill="none" stroke="#000" stroke-miterlimit="10" stroke-opacity=".5" stroke-width=".39753" d="M133.16406 88.76177h-17.67187"/><use xlink:href="#d" x="109.17313" y="92.27517" fill-opacity=".5"/><path fill="none" stroke="#000" stroke-miterlimit="10" stroke-opacity=".5" stroke-width=".39753" d="M133.16406 53.41413h-17.67187"/><use xlink:href="#i" x="109.17313" y="56.92829" fill-opacity=".5"/><path fill="none" stroke="#000" stroke-miterlimit="10" stroke-opacity=".5" stroke-width=".39753" d="M133.16406 18.0704h-17.67187"/><use xlink:href="#j" x="109.17313" y="21.51957" fill-opacity=".5"/><path fill="none" stroke="#000" stroke-miterlimit="10" stroke-width=".79507" d="M124.32812 212.48046V6.55868"/><path stroke="#000" stroke-miterlimit="10" stroke-width=".79507" d="M124.32812 2.40235c-.10546.51171-.70703 2.7539-1.35937 4.15624h2.71875c-.65234-1.40234-1.2539-3.64453-1.35938-4.15624Zm0 0"/><use xlink:href="#k" x="14.08881" y="38.64484"/><use xlink:href="#k" x="49.43568" y="127.01254"/><use xlink:href="#k" x="84.78256" y="180.03235"/><use xlink:href="#k" x="120.12944" y="197.70629"/><use xlink:href="#k" x="155.47632" y="180.03235"/><use xlink:href="#k" x="190.82319" y="127.01254"/><use xlink:href="#k" x="226.17007" y="38.64484"/></svg>