<svg xmlns="http://www.w3.org/2000/svg" xmlns:xlink="http://www.w3.org/1999/xlink" width="283.174pt" height="73.973pt" viewBox="0 0 283.174 73.973"><defs><path id="y" d="M-.34375 0h2.67188v-.34375l-.64063-.0625c-.35937-.04687-.40625-.17187-.3125-.5.21875-.71875.45313-1.46875.73438-2.32812h2.73437l.8125 2.3125c.10938.35937.0625.48437-.32812.51562l-.54688.0625V0h3.10938v-.34375c-.71875-.0625-.84375-.10937-1.0625-.73437l-2.5625-7.3125h-.90625L2.09375-4.79687c-.375 1.04687-.89062 2.5-1.3125 3.60937-.26562.65625-.375.79688-1.125.84375Zm2.625-3.70312c.39063-1.21875.8125-2.40625 1.17188-3.46875H3.5l1.20313 3.46875Zm0 0"/><path id="z" d="M.39063 0h2.95312v-.34375c-.85937-.0625-.90625-.09375-.90625-.71875v-2.82812c0-.3125.01563-.46875.125-.67188.25-.46875.79688-.875 1.4375-.875.82813 0 1.28125.45313 1.28125 1.51563v2.85937c0 .625-.04687.65625-.92187.71875V0h2.96875v-.34375c-.85938-.0625-.90625-.09375-.90625-.71875v-3.09375c0-1.21875-.67188-1.9375-1.78125-1.9375-.90625 0-1.46875.4375-2.21875.9375l-.15625-.9375-1.8125.3125v.29688l.45312.0625c.3125.04687.39063.10937.39063.54687v3.8125c0 .625-.03126.65625-.90625.71875Zm0 0"/><path id="A" d="M.375-5.45312h.875v4.21875C1.25 0 2.17188.14063 2.59375.14063c.625 0 1.20313-.3125 1.54688-.53125l-.09375-.25C3.75-.53125 3.5-.48438 3.1875-.48438c-.40625 0-.79687-.29687-.79687-1.21874v-3.75h1.5625v-.5h-1.5625v-1.51563h-.34375l-.75 1.51563H.375Zm0 0"/><path id="B" d="m2.4375-6.8125.1875.25 1.82813-1.03125c.35937-.1875.6875-.39062.6875-.65625 0-.25-.29688-.53125-.48438-.53125-.20312 0-.40625.14063-.76562.51563ZM.59375-2.9375C.59375-1 1.42188.14063 3.39063.14063c1.34375 0 2.04687-.75 2.35937-1.70313L5.39063-1.75c-.32813.70313-.79688 1.26563-1.75 1.26563-1.51563 0-1.8125-1.4375-1.78125-2.70313h3.5c.25 0 .46875-.0625.46875-.46875 0-.70312-.23438-2.4375-2.45313-2.4375C1.48438-6.09375.59375-4.75.59375-2.9375M1.875-3.65625c0-.5.17188-2.01562 1.4375-2.01562 1.125 0 1.25 1.15625 1.25 1.625 0 .23437-.07812.39062-.40625.39062Zm0 0"/><path id="C" d="M.59375-2.92187c0 2.03125 1 3.0625 2.8125 3.0625.85938 0 2-.4375 2.34375-1.73438l-.375-.17187C5-.92187 4.53125-.48437 3.64063-.48437 2.1875-.48437 1.85938-2 1.85938-3.14062c0-1.79688.70312-2.53125 1.54687-2.53125.5625 0 .90625.40625 1.15625 1.0625.07813.20312.14063.3125.375.3125.25 0 .71875-.15625.71875-.625 0-.54688-.79687-1.17188-2.125-1.17188-2.20312 0-2.9375 1.5625-2.9375 3.17188m0 0"/><path id="D" d="M.59375-2.85937c0 1.79687.9375 3 2.54688 3C3.79688.14063 4.34375-.15625 5-.6875v.59375L5.10938 0h1.96875v-.34375c-.875-.0625-.90625-.09375-.90625-.71875v-7.875L6.07813-9l-1.90625.29688v.3125l.46875.04687c.29687.03125.375.09375.375.5625v1.98438c-.32813-.17188-.78125-.29688-1.34375-.29688-.98438 0-1.73438.32813-2.23438.84375-.51562.54688-.84375 1.34375-.84375 2.39063M1.85938-3c0-1.5625.5625-2.67187 1.8125-2.67187.5625 0 1.03125.26562 1.25.76562.09375.20313.09375.39063.09375.71875v2.125c0 .26563 0 .46875-.07813.6875-.23437.625-.76562.875-1.40625.875C2.42188-.5 1.85938-1.59375 1.85938-3m0 0"/><path id="E" d="M.59375-2.9375C.59375-1 1.42188.14063 3.39063.14063c1.34375 0 2.04687-.75 2.35937-1.70313L5.39063-1.75c-.32813.70313-.79688 1.26563-1.75 1.26563-1.51563 0-1.8125-1.4375-1.78125-2.70313h3.5c.25 0 .46875-.0625.46875-.46875 0-.70312-.23438-2.4375-2.45313-2.4375C1.48438-6.09375.59375-4.75.59375-2.9375M1.875-3.65625c0-.5.17188-2.01562 1.4375-2.01562 1.125 0 1.25 1.15625 1.25 1.625 0 .23437-.07812.39062-.40625.39062Zm0 0"/><path id="G" d="M.42188 0H3.8125v-.34375C2.75-.42187 2.71875-.4375 2.71875-1.125v-6.14062c0-.6875.03125-.70313 1.09375-.78125v-.34375H.42188v.34375c1.07812.07812 1.09375.09375 1.09375.78125V-1.125c0 .6875-.01563.70313-1.09375.78125Zm0 0"/><path id="H" d="M.39063 0h2.95312v-.34375c-.85937-.0625-.90625-.09375-.90625-.71875v-2.82812c0-.3125 0-.48438.09375-.65625.23438-.48438.76563-.89063 1.4375-.89063 1.03125 0 1.17188.76563 1.17188 1.51563v2.85937c0 .625-.04688.65625-.92188.71875V0h2.95313v-.34375c-.85938-.0625-.90625-.09375-.90625-.71875v-2.82812c0-.3125.01562-.46875.09375-.67188.1875-.48437.70312-.875 1.39062-.875.75 0 1.21875.4375 1.21875 1.51563v2.85937c0 .625-.03125.65625-.92187.71875V0h2.96875v-.34375c-.85938-.0625-.90625-.09375-.90625-.71875v-3.09375c0-1.21875-.65625-1.9375-1.8125-1.9375-.98438 0-1.70313.65625-2.125.9375-.29688-.57812-.76563-.9375-1.60938-.9375-.9375 0-1.70312.625-2.125.9375l-.10937-.9375-1.875.3125v.29688l.45312.0625c.3125.04687.39063.10937.39063.54687v3.8125c0 .625-.03126.65625-.90625.71875Zm0 0"/><path id="I" d="M.59375-1.57812c0 .90625.60938 1.71875 1.75 1.71875.70313 0 1.40625-.46875 1.79688-.71875.17187.45312.375.71875.79687.71875.45313 0 .96875-.125 1.4375-.35938L6.29688-.5c-.17188.03125-.4375.04688-.625 0C5.45313-.5625 5.25-.78125 5.25-1.53125v-2.95312c0-.70313-.15625-1.60938-1.98437-1.60938-1.375 0-2.45313.71875-2.45313 1.39063 0 .375.45313.5625.6875.5625.25 0 .3125-.125.39063-.34375.26562-.89063.75-1.1875 1.25-1.1875.46875 0 1.01562.25 1.01562 1.21875v.5c-.3125.3125-1.48437.625-2.4375.9375-.875.26562-1.125.875-1.125 1.4375M1.8125-1.75c0-.5625.26563-.85937.95313-1.10937.48437-.1875 1.125-.42188 1.39062-.59375v1.71875C4.15625-.75 3.40625-.5 2.9375-.5c-.75 0-1.125-.53125-1.125-1.25m0 0"/><path id="J" d="M.5 1.15625C.5 2.39063 1.73438 2.9375 3.14063 2.9375c.71875 0 1.48437-.15625 2.0625-.5.54687-.32812.96875-.92187.96875-1.65625C6.17188-.54687 5.125-1 3.8125-1h-.95312c-.89063 0-1.01563-.29687-1.01563-.51562 0-.35938.46875-.54688.625-.59375.23438.01562.48438.03125.60938.03125 1.15625 0 2.45312-.5 2.45312-1.96875 0-.51563-.15625-.9375-.375-1.14063l.96875-.15625.25-.76562-.10937-.09375-1.54688.48437c-.32812-.23437-1.01562-.375-1.5625-.375-1.85937 0-2.51562 1.14063-2.51562 2.04688 0 1.125.75 1.65625 1.3125 1.79687v.03125c-.65625.25-1.10938.60938-1.10938 1.07813 0 .4375.48438.875 1.0625.95312v.01563C1.39063 0 .5.28125.5 1.15625m1.17188-.04687c0-.40625.10937-.71875.375-.92188.26562-.20312.65625-.28125 1.25-.28125 1.0625 0 1.85937.28125 1.85937 1.17188 0 .96875-.89062 1.4375-1.75 1.4375-1.03125 0-1.73437-.53125-1.73437-1.40625m.21874-5.15625c0-1.20313.60938-1.625 1.26563-1.625.59375 0 1.20313.4375 1.20313 1.625C4.35938-3.03125 3.84375-2.5 3.14063-2.5c-.6875 0-1.25-.53125-1.25-1.54687m0 0"/><path id="L" d="M.42188 0H4v-.34375C2.75-.42187 2.71875-.4375 2.71875-1.125v-2.84375h1.6875c1.04688 0 1.09375.29688 1.1875 1.0625h.375V-5.5h-.375c-.09375.78125-.14062 1.07813-1.1875 1.07813h-1.6875v-3.10938c0-.40625.04688-.4375.4375-.4375h1.20313c1.40625 0 1.6875.28125 1.85937 1.51563h.35938v-1.9375H.42188v.34375c1.07812.07812 1.09375.09375 1.09375.78125V-1.125c0 .6875-.01563.70313-1.09375.78125Zm0 0"/><path id="M" d="M.59375-2.96875C.59375-1 1.5625.14063 3.51563.14063 5.45313.14063 6.42188-1 6.42188-2.96875s-.96875-3.125-2.90625-3.125c-1.95313 0-2.92188 1.15625-2.92188 3.125m1.26563 0c0-1.67187.54687-2.70312 1.65625-2.70312 1.10937 0 1.64062 1.03125 1.64062 2.70312S4.625-.28125 3.51563-.28125c-1.10938 0-1.65625-1.01562-1.65625-2.6875m0 0"/><path id="N" d="M1.10938-7.9375c0 .4375.3125.75.75.75s.73437-.3125.73437-.75-.29687-.73437-.73437-.73437-.75.29687-.75.73437M.39063 0h2.95312v-.34375c-.85937-.0625-.90625-.09375-.90625-.71875v-4.95312l-.09375-.07813-1.89062.3125v.29688l.45312.0625c.3125.04687.39063.10937.39063.54687v3.8125c0 .625-.03126.65625-.90625.71875Zm0 0"/><path id="F" d="M.85938-1.29687c0 .71875.32812 1.4375 1.15625 1.4375 1.29687 0 2.42187-1.5 3.14062-2.73438h.01563l-.40625 1.375c-.07813.28125-.125.51563-.125.70313 0 .42187.20312.65625.65625.65625.90625 0 1.59375-.82813 2.01562-1.73438l-.29687-.17187c-.21875.42187-.75 1.28125-1.09375 1.28125-.14063 0-.1875-.09375-.1875-.23438 0-.125.03125-.26562.07812-.4375l1.26563-4.82812H6.0625l-.04687.15625c-.20313-.14063-.5625-.26563-.89063-.26563-2.89062 0-4.26562 3.1875-4.26562 4.79688m1.1875-.03126c0-1.32812 1.1875-4.34374 3.10937-4.34374.29688 0 .54688.10937.73438.28125-.21875.90625-.65625 2.09375-1.29688 3.0625-.6875 1.03125-1.4375 1.84375-2.01562 1.84375-.39063 0-.53125-.375-.53125-.84375m0 0"/><path id="K" d="M1.0625 0H1.5l.375-.70312c.21875.5.82813.84375 1.51563.84375 1.42187 0 2.45312-.9375 3.04687-2.01563.60938-1.0625.79688-2.14062.79688-2.6875 0-.89062-.375-1.53125-1.28125-1.53125-.92188 0-2.14063.84375-3.0625 2.5h-.03125L4.20313-8.9375 4.15625-9l-2.17187.28125-.07813.29688.6875.07812c.20313.01563.29688.0625.29688.23438 0 .09375-.01563.20312-.04688.35937Zm1.5-1.3125c0-.57812.25-1.42187.64063-2.14062.54687-.95313 1.45312-2 2.20312-2 .45313 0 .64063.29687.64063 1 0 .875-.71875 4.17187-2.5 4.17187-.60938 0-.98438-.42187-.98438-1.03125m0 0"/><path id="O" d="M-.26562 2.23438c.01562.40625.54687.70312 1.125.70312 1.20312 0 1.71875-.98437 2.21875-3.3125l1.125-5.10937H5.75l.10938-.46875H4.28125L4.625-7.3125c.23438-.92187.45313-1.26562.79688-1.26562.32812 0 .54687.26562.8125.84375.0625.125.15625.20312.32812.20312.25 0 .59375-.21875.59375-.51562C7.15625-8.5625 6.5-9 5.78125-9 4.34375-9 3.75-7.98437 3.29688-6.39062l-.14063.4375H2.10938l-.14063.46875H3.0625L1.65625 1.67188c-.14062.73437-.28125.8125-.39062.8125-.125 0-.32813-.07813-.64063-.59375C.53125 1.78125.45313 1.625.29688 1.625c-.26563 0-.5625.29688-.5625.60938m0 0"/><clipPath id="i"><path d="M13 11h14v26.54688H13Zm0 0"/></clipPath><clipPath id="j"><path d="M.3086 11H27v26.54688H.3086Zm0 0"/></clipPath><clipPath id="b"><path d="M.35156.73828H6.1211v9.74219H.35156Zm0 0"/></clipPath><clipPath id="a"><path d="M0 0h7v11H0z"/></clipPath><clipPath id="m"><path d="M29 .8125h8.04297V17H29Zm0 0"/></clipPath><clipPath id="n"><path d="M21 .8125h16.04297V17H21Zm0 0"/></clipPath><clipPath id="e"><path d="M.32422.02344H4.8164v7.58594H.3242Zm0 0"/></clipPath><clipPath id="d"><path d="M0 0h5v8H0z"/></clipPath><clipPath id="q"><path d="M32 17h5.04297v11H32Zm0 0"/></clipPath><clipPath id="r"><path d="M27 17h10.04297v11H27Zm0 0"/></clipPath><clipPath id="g"><path d="M.70703.69531H3.0625v3.5664H.70703Zm0 0"/></clipPath><clipPath id="f"><path d="M0 0h4v5H0z"/></clipPath><clipPath id="u"><path d="M13 11h14v26.54688H13Zm0 0"/></clipPath><clipPath id="v"><path d="M29 .8125h8.04297V17H29Zm0 0"/></clipPath><clipPath id="w"><path d="M32 17h5.04297v11H32Zm0 0"/></clipPath><clipPath id="h"><path d="M0 0h38v38H0z"/></clipPath><g id="l" clip-path="url(#a)"><g clip-path="url(#b)"><path fill="#75ccf4" d="M6.1211 5.60938c0 2.6914-2.1797 4.87109-4.8711 4.87109-.30469 0-.60547-.02735-.89844-.08203 2.26563-.42188 3.97657-2.40625 3.97657-4.78907 0-2.3828-1.71094-4.36718-3.97657-4.78906C.64453.76563.94531.73828 1.25.73828c2.6914 0 4.8711 2.17969 4.8711 4.8711"/></g></g><g id="p" clip-path="url(#d)"><g clip-path="url(#e)"><path fill="#75ccf4" d="M4.8164 3.8164c0 2.09376-1.69921 3.79298-3.79296 3.79298-.23828 0-.47266-.02344-.69922-.0625 1.76172-.32813 3.09765-1.875 3.09765-3.73047S2.08594.41406.32423.08594c.22656-.04297.46094-.0625.69922-.0625 2.09375 0 3.79297 1.69922 3.79297 3.79297"/></g></g><g id="t" clip-path="url(#f)"><g clip-path="url(#g)"><path fill="#75ccf4" d="M3.0625 2.48047c0 .98437-.79687 1.78125-1.78125 1.78125q-.30468 0-.57422-.09375c.70313-.23828 1.21094-.90625 1.21094-1.6875 0-.78516-.50781-1.45313-1.21094-1.6914Q.97657.69531 1.28125.6953c.98438 0 1.78125.79688 1.78125 1.78516"/></g></g><g id="P" clip-path="url(#h)"><g clip-path="url(#i)"><path fill="#99bac6" d="M26.1914 23.11328v2.99219c0 .29687-.24218.53906-.53906.53906h-1.39453c-.10547.57813-.25781 1.15235-.45703 1.70703l1.20703.69532c.125.0703.21485.1875.2539.32812.03516.13672.01563.28125-.05468.40625l-1.5 2.59375c-.14844.25781-.47656.34375-.73437.19531l-1.20704-.69531c-.3828.44531-.80078.86328-1.25 1.2461l.69922 1.21093c.07032.1211.08985.26953.0547.40625-.03907.13672-.12891.25781-.25391.32813l-2.59376 1.49609c-.2539.14844-.58593.0625-.73437-.19531l-.69531-1.20703c-.55469.1953-1.125.34765-1.70703.45703v1.39062c0 .30078-.2422.53907-.53907.53907H13.25v-1.75391c5.51172-.97266 9.6875-5.60938 9.6875-11.1836 0-5.57421-4.17578-10.21093-9.6875-11.18359v-1.7539h1.4961c.29687 0 .53906.23828.53906.53515v1.39453c.58203.10938 1.15234.26172 1.70703.45703l.69531-1.20703c.14844-.25781.48047-.34375.73438-.19531l2.59374 1.4961c.125.0703.21485.1875.25391.32812.03516.13672.01563.28515-.05469.40625l-.69921 1.21094c.44921.3828.86718.80078 1.25 1.24609l1.20703-.69922c.2578-.14844.58593-.0586.73437.19922l1.5 2.59375c.07031.1211.08985.26953.05469.40625-.03906.14063-.1289.25781-.2539.32813l-1.20704.6953c.19922.5547.35156 1.125.45703 1.70704h1.39453c.29688 0 .53907.24219.53907.53906"/></g><path fill="#4c7889" d="M20.88672 24.60938c0 4.21874-3.41797 7.63671-7.63672 7.63671-.27734 0-.55469-.01562-.82422-.04687 3.82813-.41016 6.8125-3.65234 6.8125-7.58984s-2.98437-7.1797-6.8125-7.59376c.26953-.02734.54688-.04296.82422-.04296 4.21875 0 7.63672 3.41796 7.63672 7.63671"/><g clip-path="url(#j)"><path fill="#b7d4e2" d="M13.25 29.48047c-.30469 0-.60547-.02735-.89844-.08203-2.26172-.42188-3.97265-2.40625-3.97265-4.78907 0-2.3828 1.71093-4.36718 3.97265-4.78906.29297-.05468.59375-.08203.89844-.08203 2.6914 0 4.8711 2.17969 4.8711 4.8711 0 2.6914-2.1797 4.87109-4.8711 4.87109m12.40234-6.90625h-1.39453c-.10547-.57813-.25781-1.15235-.45703-1.70703l1.20703-.69532c.125-.0703.21485-.1875.2539-.32812.03516-.13672.01563-.28516-.05468-.40625l-1.5-2.59375c-.14844-.25781-.47656-.34766-.73437-.19922l-1.20704.69922c-.3828-.44531-.80078-.86328-1.25-1.2461l.69922-1.21093c.07032-.1211.08985-.26953.0547-.40625-.03907-.14063-.12891-.25781-.25391-.32813l-2.59376-1.49609c-.2539-.14844-.58593-.0625-.73437.19531l-.69531 1.20703c-.55469-.1953-1.125-.34765-1.70703-.45703v-1.39453c0-.29687-.2422-.53515-.53907-.53515h-2.99218c-.29688 0-.53907.23828-.53907.53515v1.39453c-.58203.10938-1.15234.26172-1.70703.45703l-.69531-1.20703c-.14844-.25781-.47656-.34375-.73437-.19531l-2.59375 1.4961c-.125.0703-.21485.1875-.25.32812-.03907.13672-.01954.28515.05078.40625l.69921 1.21094c-.44921.3828-.86718.80078-1.25 1.24609l-1.20703-.69922c-.2578-.14844-.58593-.0586-.73437.19922l-1.5 2.59375c-.07031.1211-.08984.26953-.05078.40625.03515.14063.125.25781.25.32813l1.20703.6953c-.19922.5547-.35156 1.12891-.45703 1.70704H.84766c-.29688 0-.53907.24219-.53907.53906v2.99219c0 .29687.2422.53906.53907.53906h1.39453c.10547.57813.25781 1.15235.45703 1.70703l-1.20703.69532c-.125.0703-.21485.1875-.25.32812-.03906.13672-.01953.28125.05078.40625l1.5 2.59375c.14844.25781.47656.34375.73437.19531l1.20703-.69531c.38282.44531.80079.86328 1.25 1.2461l-.69921 1.21093c-.07032.1211-.08985.26953-.05079.40625.03516.13672.125.25781.25.32813l2.59375 1.49609c.25782.14844.58594.0625.73438-.19531l.69531-1.20703c.55469.1953 1.125.34765 1.70703.45703v1.39062c0 .30078.2422.53907.53907.53907h2.99218c.29688 0 .53907-.23829.53907-.53907V35.6172c.58203-.10938 1.15234-.26172 1.70703-.45703l.69531 1.20703c.14844.25781.48047.34375.73438.19531l2.59374-1.4961c.125-.0703.21485-.1914.25391-.32812.03516-.13672.01563-.28516-.05469-.40625l-.69921-1.21094c.44921-.3828.86718-.80078 1.25-1.24609l1.20703.69531c.2578.14844.58593.0625.73437-.19531l1.5-2.59375c.07031-.125.08985-.26953.05469-.40625-.03906-.14062-.1289-.25781-.2539-.32812l-1.20704-.69532c.19922-.55468.35156-1.1289.45703-1.70703h1.39453c.29688 0 .53907-.24219.53907-.53906v-2.99219c0-.29687-.2422-.53906-.53907-.53906"/></g><g mask="url(#k)"><use xlink:href="#l" transform="translate(12 19)"/></g><g clip-path="url(#m)"><path fill="#4c7889" d="M37.04297 7.0586v3.51562c0 .29687-.24219.53906-.53906.53906h-.9922c-.07812.22266-.17187.4414-.27343.65625l.70313.69922c.10156.10156.15625.23828.15625.38281 0 .14063-.0547.28125-.15625.3789l-2.4922 2.48829c-.21093.21094-.55077.21094-.76171 0l-.70312-.70312c-.21485.10546-.4375.1953-.66016.27343v.99219c0 .29688-.24219.53906-.53906.53906h-1.76172v-1.23047c3.21093-.3789 5.70312-3.26562 5.70312-6.77343 0-3.50782-2.49218-6.39453-5.70312-6.77344V.8125h1.76172c.29687 0 .53906.24219.53906.53906v.99219c.22265.07813.44531.16797.66015.26953l.70313-.69922c.21094-.21094.55078-.21094.76172 0l2.49219 2.48438c.10156.10156.15625.23828.15625.38281s-.0547.28125-.15625.38281l-.70313.69922c.10156.21485.19531.4336.27344.65625h.99219c.29687 0 .53906.24219.53906.53906"/></g><g clip-path="url(#n)"><path fill="#668fa3" d="M29.02344 12.60938c-.23828 0-.47266-.02344-.69922-.0625-1.76172-.32813-3.09375-1.875-3.09375-3.73047s1.33203-3.40235 3.09375-3.73047c.22656-.04297.46094-.0625.69922-.0625 2.09375 0 3.79297 1.69922 3.79297 3.79297s-1.69922 3.79297-3.79297 3.79297m7.48047-6.08985h-.9922c-.07812-.22265-.17187-.4414-.27343-.65625l.70313-.69922c.10156-.10156.15625-.23828.15625-.38281s-.0547-.28125-.15625-.38281l-2.4922-2.48438c-.21093-.21094-.55077-.21094-.76171 0l-.70312.69922c-.21485-.10156-.4375-.1914-.66016-.26953v-.99219c0-.29687-.24219-.53906-.53906-.53906h-3.52344c-.29688 0-.53906.24219-.53906.53906v.99219c-.22266.07813-.44532.16797-.66016.26953l-.70312-.69922c-.21094-.21094-.55079-.21094-.76172 0l-2.4922 2.48438c-.09765.10156-.15624.23828-.15624.38281s.0586.28125.15625.38281l.70312.69922c-.10156.21485-.1914.4336-.27343.65625h-.9922c-.29687 0-.53905.24219-.53905.53906v3.51563c0 .29687.24218.53906.53906.53906h.99219c.08203.22266.17187.4414.27343.65625l-.70312.69922c-.09766.10156-.15625.23828-.15625.38281 0 .14063.0586.28125.15625.3789l2.49219 2.48829c.21093.21094.55078.21094.76171 0l.70313-.70312c.21484.10546.4375.1953.66016.27343v.99219c0 .29688.24218.53906.53906.53906h3.52344c.29687 0 .53906-.24218.53906-.53906v-.99219c.22265-.07812.44531-.16797.66015-.27343l.70313.70312c.21094.21094.55078.21094.76172 0l2.49219-2.48828c.10156-.09766.15625-.23828.15625-.3789 0-.14454-.0547-.28126-.15625-.38282l-.70313-.69922c.10156-.21484.19531-.4336.27344-.65625h.99219c.29687 0 .53906-.24219.53906-.53906V7.05859c0-.29687-.24219-.53906-.53906-.53906"/></g><g mask="url(#o)"><use xlink:href="#p" transform="translate(28 5)"/></g><g clip-path="url(#q)"><path fill="#4c7889" d="M37.04297 22.48047c0 .29687-.24219.53515-.53906.53515h-.4375c-.08985.64063-.33985 1.2422-.73047 1.75782l.3125.3125c.21093.21093.21093.55078 0 .76172-.10547.10546-.24219.15625-.3789.15625-.14063 0-.27735-.05079-.38282-.15625l-.3125-.3125c-.51563.39062-1.11719.64062-1.7539.73046v.4375c0 .29688-.2422.53907-.53907.53907v-1.07032c1.59766-.46484 2.76563-1.9414 2.76563-3.6875 0-1.75-1.16797-3.22656-2.76563-3.6914v-1.07813c.29688 0 .53516.2422.53516.53907v.4414c.64062.08985 1.24218.33594 1.7578.72657l.3125-.3086c.21095-.21094.55079-.21094.76173 0 .20703.20703.20703.55078 0 .75781l-.3125.3125c.39062.51563.64062 1.1172.73047 1.75782h.4375c.29687 0 .53906.24218.53906.53906"/></g><g clip-path="url(#r)"><path fill="#668fa3" d="M32.28125 24.26172q-.30468 0-.57422-.09375c-.70312-.23828-1.21094-.90625-1.21094-1.6875 0-.78516.50782-1.45313 1.21094-1.6914q.26954-.09375.57422-.09376c.98438 0 1.78125.79688 1.78125 1.78516 0 .98437-.79687 1.78125-1.78125 1.78125m4.22266-2.32031h-.4375c-.08985-.64063-.33985-1.2422-.73047-1.75782l.3125-.3125c.20703-.20703.20703-.55078 0-.7578-.21094-.21095-.55078-.21095-.76172 0l-.3125.30859c-.51563-.39063-1.11719-.63672-1.75781-.72657v-.4414c0-.29688-.23828-.53907-.53516-.53907s-.53906.2422-.53906.53907v.4414c-.64063.08985-1.24219.33594-1.75782.72657l-.3125-.3125c-.20703-.20704-.55078-.20704-.76171 0-.20704.21093-.20704.55078.0039.76171l.3086.3125c-.39063.51563-.63672 1.1172-.72657 1.75782h-.4414a.5335.5335 0 0 0-.53516.53515c0 .29688.23828.53907.53516.53907h.4414c.08985.64062.33985 1.24218.72657 1.7578l-.3086.3125c-.21093.21094-.21093.55079 0 .76173.10547.10546.24219.15625.3789.15625.13673 0 .27735-.05079.37891-.15625l.3125-.3125c.51563.39062 1.1172.64062 1.75782.72656v.4414c0 .29688.24218.53907.53906.53907s.53906-.24219.53906-.53907v-.4375c.63672-.08984 1.23828-.33984 1.7539-.73046l.3125.3125c.10548.10546.2422.15625.38282.15625.13672 0 .27344-.05079.3789-.15625.21095-.21094.21095-.55079 0-.76172l-.3125-.3125c.39063-.51563.64063-1.11719.73048-1.75782h.4375c.29687 0 .53906-.23828.53906-.53515s-.24219-.53906-.53906-.53906"/></g><g mask="url(#s)"><use xlink:href="#t" transform="translate(31 20)"/></g><path fill="#668fa3" d="M13.25 29.48047c-.30469 0-.60547-.02735-.89844-.08203-2.26172-.42188-3.97265-2.40625-3.97265-4.78907 0-2.3828 1.71093-4.36718 3.97265-4.78906.29297-.05468.59375-.08203.89844-.08203 2.6914 0 4.8711 2.17969 4.8711 4.8711 0 2.6914-2.1797 4.87109-4.8711 4.87109m0-12.50781c-.27734 0-.55469.01562-.82422.04296-3.82812.41407-6.8125 3.65626-6.8125 7.59376s2.98438 7.17968 6.8125 7.58984c.26953.03125.54688.04687.82422.04687 4.21875 0 7.63672-3.41797 7.63672-7.63672s-3.41797-7.63671-7.63672-7.63671"/><g clip-path="url(#u)"><path fill="#99bac6" d="M26.1914 23.11328v2.99219c0 .29687-.24218.53906-.53906.53906h-1.39453c-.10547.57813-.25781 1.15235-.45703 1.70703l1.20703.69532c.125.0703.21485.1875.2539.32812.03516.13672.01563.28125-.05468.40625l-1.5 2.59375c-.14844.25781-.47656.34375-.73437.19531l-1.20704-.69531c-.3828.44531-.80078.86328-1.25 1.2461l.69922 1.21093c.07032.1211.08985.26953.0547.40625-.03907.13672-.12891.25781-.25391.32813l-2.59376 1.49609c-.2539.14844-.58593.0625-.73437-.19531l-.69531-1.20703c-.55469.1953-1.125.34765-1.70703.45703v1.39062c0 .30078-.2422.53907-.53907.53907H13.25v-1.75391c5.51172-.97266 9.6875-5.60938 9.6875-11.1836 0-5.57421-4.17578-10.21093-9.6875-11.18359v-1.7539h1.4961c.29687 0 .53906.23828.53906.53515v1.39453c.58203.10938 1.15234.26172 1.70703.45703l.69531-1.20703c.14844-.25781.48047-.34375.73438-.19531l2.59374 1.4961c.125.0703.21485.1875.25391.32812.03516.13672.01563.28515-.05469.40625l-.69921 1.21094c.44921.3828.86718.80078 1.25 1.24609l1.20703-.69922c.2578-.14844.58593-.0586.73437.19922l1.5 2.59375c.07031.1211.08985.26953.05469.40625-.03906.14063-.1289.25781-.2539.32813l-1.20704.6953c.19922.5547.35156 1.125.45703 1.70704h1.39453c.29688 0 .53907.24219.53907.53906"/></g><g clip-path="url(#v)"><path fill="#4c7889" d="M37.04297 7.0586v3.51562c0 .29687-.24219.53906-.53906.53906h-.9922c-.07812.22266-.17187.4414-.27343.65625l.70313.69922c.10156.10156.15625.23828.15625.38281 0 .14063-.0547.28125-.15625.3789l-2.4922 2.48829c-.21093.21094-.55077.21094-.76171 0l-.70312-.70312c-.21485.10546-.4375.1953-.66016.27343v.99219c0 .29688-.24219.53906-.53906.53906h-1.76172v-1.23047c3.21093-.3789 5.70312-3.26562 5.70312-6.77343 0-3.50782-2.49218-6.39453-5.70312-6.77344V.8125h1.76172c.29687 0 .53906.24219.53906.53906v.99219c.22265.07813.44531.16797.66015.27344l.70313-.70313c.21094-.21094.55078-.21094.76172 0l2.49219 2.48438c.10156.10156.15625.23828.15625.38281s-.0547.28125-.15625.38281l-.70313.69922c.10156.21485.19531.4336.27344.65625h.99219c.29687 0 .53906.24219.53906.53906"/></g><g clip-path="url(#w)"><path fill="#4c7889" d="M37.04297 22.48047c0 .29687-.24219.53906-.53906.53906h-.4375c-.08985.63672-.33985 1.23828-.73047 1.75781l.3125.3086c.21093.21093.21093.55078 0 .76172-.10547.10546-.24219.15625-.3789.15625-.14063 0-.27735-.05079-.38282-.15625l-.3125-.3125c-.51563.39062-1.11719.64062-1.7539.73046v.4375c0 .29688-.2422.53907-.53907.53907v-1.07032c1.59766-.46484 2.76563-1.9414 2.76563-3.6875 0-1.75-1.16797-3.22656-2.76563-3.6914v-1.07813c.29688 0 .53516.2422.53516.53907v.4414c.64062.08985 1.24218.33594 1.7578.72657l.3125-.3086c.21095-.21094.55079-.21094.76173 0 .20703.21094.20703.55078 0 .76172l-.3125.3086c.39062.51562.64062 1.11718.73047 1.7578h.4375c.29687 0 .53906.2422.53906.53907"/></g></g><mask id="k"><g filter="url(#x)"><path fill-opacity=".5" d="M-199.29828-48.27406h407.77056V58.24706h-407.77056z"/></g></mask><mask id="o"><g filter="url(#x)"><path fill-opacity=".5" d="M-199.29828-48.27406h407.77056V58.24706h-407.77056z"/></g></mask><mask id="s"><g filter="url(#x)"><path fill-opacity=".5" d="M-199.29828-48.27406h407.77056V58.24706h-407.77056z"/></g></mask><filter id="x" width="100%" height="100%" x="0%" y="0%"><feColorMatrix color-interpolation-filters="sRGB" values="0 0 0 0 1 0 0 0 0 1 0 0 0 0 1 0 0 0 1 0"/></filter></defs><g fill="#ff7f00"><use xlink:href="#y" x="4.30444" y="28.9968"/><use xlink:href="#z" x="12.00105" y="28.9968"/><use xlink:href="#A" x="19.50394" y="28.9968"/><use xlink:href="#B" x="23.67509" y="28.9968"/><use xlink:href="#C" x="29.91244" y="28.9968"/><use xlink:href="#B" x="35.93025" y="28.9968"/><use xlink:href="#D" x="42.1676" y="28.9968"/><use xlink:href="#E" x="49.42513" y="28.9968"/><use xlink:href="#z" x="55.66248" y="28.9968"/><use xlink:href="#A" x="63.16538" y="28.9968"/></g><use xlink:href="#F" x="70.06034" y="28.9968" fill="#ff7f00"/><use xlink:href="#G" x="233.72624" y="27.60187" fill="#007f7f"/><g fill="#007f7f"><use xlink:href="#H" x="237.74242" y="27.60187"/><use xlink:href="#I" x="248.93865" y="27.60187"/><use xlink:href="#J" x="255.27931" y="27.60187"/><use xlink:href="#E" x="261.58122" y="27.60187"/></g><use xlink:href="#K" x="270.54404" y="27.60187" fill="#007f7f"/><path fill="none" stroke="#000" stroke-miterlimit="10" stroke-width=".39734" d="M91.37891 24.5664h124.0313"/><path stroke="#000" stroke-miterlimit="10" stroke-width=".39734" d="M219.23828 24.5664c-.46875-.125-2.53515-.83984-3.82812-1.62109v3.2422c1.29297-.77735 3.35937-1.4922 3.82812-1.6211Zm0 0"/><use xlink:href="#L" x="126.07225" y="13.3993"/><use xlink:href="#M" x="132.67119" y="13.3993"/><use xlink:href="#z" x="139.67045" y="13.3993"/><use xlink:href="#C" x="147.17335" y="13.3993"/><use xlink:href="#A" x="153.19116" y="13.3993"/><use xlink:href="#N" x="157.3623" y="13.3993"/><use xlink:href="#M" x="160.88776" y="13.3993"/><use xlink:href="#z" x="167.88702" y="13.3993"/><use xlink:href="#O" x="178.11545" y="13.3993"/><use xlink:href="#P" transform="translate(137 32)"/></svg>