<svg xmlns="http://www.w3.org/2000/svg" xmlns:xlink="http://www.w3.org/1999/xlink" width="258.75pt" height="228.758pt" viewBox="0 0 258.75 228.758"><defs><path id="b" d="M.5-4.0625C.5-1.625 1.23438.14063 3.23438.14063S5.95313-1.625 5.95313-4.0625s-.71875-4.20312-2.71875-4.20312S.5-6.5.5-4.0625m1.23438 0c0-1.98437.34375-3.78125 1.5-3.78125S4.70313-6.04687 4.70313-4.0625c0 1.98438-.3125 3.78125-1.46875 3.78125s-1.5-1.79687-1.5-3.78125m0 0"/><path id="l" d="M.40625-6.0625c0 1.0625 1.0625 1.89063 3.48438 1.89063-.39063.71875-.6875 1.45312-.6875 2.25 0 1.34375.82812 2.0625 2.35937 2.0625 1.48438 0 3.04688-1.07813 3.04688-2.45313 0-.82812-.6875-1.28125-1.5625-1.28125-.95313 0-2.07813 1.07813-2.07813 1.92188 0 .26562.1875.75.5625.75.09375 0 .23438-.07813.23438-.1875 0-.15626-.28125-.17188-.28125-.54688 0-.59375.875-1.54687 1.5625-1.54687.5 0 .79687.1875.79687.67187C7.84375-1.46875 6.8125-.25 5.5625-.25c-.875 0-1.32812-.46875-1.32812-1.28125 0-.90625.625-1.96875 1.10937-2.73437 2.70313-.42188 5.35938-1.75 5.35938-3.4375 0-.65625-.51563-1.07813-1.21875-1.07813-1.60938 0-4.03125 2.04688-5.35938 4.1875-1.09375-.01562-2.89062-.03125-2.89062-1.32812 0-1.1875 1.45312-2.10938 2.35937-2.10938.17188 0 .26563-.10937.26563-.20312 0-.10938-.09375-.1875-.20313-.1875-1.35937 0-3.25.92187-3.25 2.35937M5.59375-4.75C6.48438-6.3125 8.375-8.39062 9.48438-8.39062c.42187 0 .71875.23437.71875.64062 0 1.35938-2.125 2.59375-4.60938 3m0 0"/><path id="n" d="m1.76563-1.3125.5.5L4.375-2.9375 6.5-.8125l.48438-.5L4.875-3.42187l2.10938-2.125-.48438-.5L4.375-3.9375 2.26563-6.04687l-.5.5 2.10937 2.125Zm0 0"/><path id="c" d="M.9375-2.76562h6.01563v-.64063H.9375Zm0 0"/><path id="d" d="M.29688-1.125c0 .46875.76562 1.25 2.3125 1.25C4.1875.125 5.1875-.67187 5.1875-2.07812c0-1.45313-1.25-1.89063-1.85937-1.95313v-.04687c.59375-.09375 1.53125-.53125 1.53125-1.60938 0-1.21875-.9375-1.75-2.10938-1.75-1.45312 0-2.15625.84375-2.15625 1.29688 0 .34375.39063.53125.53125.53125s.21875-.07813.26563-.21875c.25-.75.65625-1.21875 1.28125-1.21875.85937 0 1.07812.75 1.07812 1.35937 0 .65625-.23437 1.48438-1.17187 1.48438-.51563 0-.82813-.10938-.95313-.10938-.14062 0-.1875.10938-.1875.3125 0 .1875.04688.29688.1875.29688.125 0 .4375-.10938.95313-.10938.9375 0 1.46875.84375 1.46875 1.79688C4.04688-.70312 3.40625-.25 2.625-.25c-.73437 0-1.20312-.54687-1.42187-1.15625-.0625-.21875-.17188-.3125-.3125-.3125-.20313 0-.59375.20313-.59375.59375m0 0"/><path id="e" d="M.29688-.10937.42188 0h4.53125l.35937-1.4375L5.01563-1.5c-.23438.59375-.45313.67188-.89063.67188H1.32813c.17187-.5625.82812-1.34375 1.84375-2.07813 1.04687-.76562 1.85937-1.26562 1.85937-2.48437 0-1.53125-1.01562-2.04688-2.17187-2.04688-1.5 0-2.26563.90625-2.26563 1.48438 0 .35937.42188.54687.60938.54687s.26562-.125.3125-.3125c.17187-.73437.60937-1.32812 1.28125-1.32812.82812 0 1.07812.6875 1.07812 1.5 0 1.17187-.59375 1.82812-1.54687 2.67187C.98438-1.70312.51563-.95312.29688-.10937m0 0"/><path id="f" d="M1.1875 0h3.59375v-.3125l-.92187-.07812C3.625-.42187 3.5-.5 3.5-.9375V-7.375l-.04687-.0625-2.26563.39063v.26562l1.03125.125c.17188.01563.25.10938.25.42188V-.9375c0 .4375-.10937.51563-.35937.54688L1.1875-.3125Zm0 0"/><path id="i" d="m.21875-2.1875.09375.23438h2.98438v1.10937c0 .375-.125.4375-.39063.45313l-.6875.07812V0h2.875v-.3125L4.60938-.375c-.25-.03125-.32813-.09375-.32813-.46875v-1.10937h1.125v-.51563h-1.125V-7.3125h-.79687C2.45313-5.79687 1.21875-3.90625.21875-2.1875m.79688-.28125c.65625-1.1875 1.4375-2.45312 2.28125-3.78125v3.78125Zm0 0"/><path id="j" d="M.45313-1.125c0 .51563.76562 1.25 2.1875 1.25 1.8125 0 2.625-1.09375 2.625-2.46875 0-1.54687-.95313-2.32812-2.26563-2.32812-.60937 0-1.26562.26562-1.60937.59375L1.625-6.15625c.04688-.28125.10938-.3125.3125-.3125h2.73438l.26562-.75-.0625-.09375H1.21875l-.09375.10938-.23437 3.65625.26562.14062c.46875-.53125.90625-.78125 1.5-.78125.70313 0 1.46875.51563 1.46875 1.95313C4.125-1.10937 3.67188-.25 2.71875-.25c-.78125 0-1.15625-.54687-1.375-1.1875-.0625-.15625-.17187-.26562-.3125-.26562-.23437 0-.57812.21874-.57812.57812m0 0"/><path id="m" d="M-.1875 1.53125c.01563.29688.375.53125.84375.53125.89063 0 1.29688-.71875 1.64063-2.3125l.79687-3.57812h1.07813l.09375-.34375H3.15625l.25-1.04688c.14063-.5625.29688-.78125.5-.78125s.34375.15625.54688.59375c.04687.09375.125.17188.26562.17188.20313 0 .46875-.17188.46875-.40625 0-.375-.46875-.67188-1.03125-.67188-1.07812 0-1.51562.76563-1.8125 1.85938L2.25-4.17187h-.73437l-.10938.34375h.76563l-1 5.0625c-.07813.4375-.15626.5-.23438.5-.09375 0-.23437-.07813-.45312-.4375-.0625-.09376-.125-.20313-.25-.20313-.20313 0-.42188.21875-.42188.4375m0 0"/><clipPath id="a"><path d="M.01172 0h258.47656v204H.01172Zm0 0"/></clipPath><clipPath id="g"><path d="M.01172 202H253v2H.01172Zm0 0"/></clipPath><clipPath id="h"><path d="M240 190h18.48828v26H240Zm0 0"/></clipPath><clipPath id="k"><path d="M.40625.39453h257.6875V215H.40625Zm0 0"/></clipPath></defs><g clip-path="url(#a)"><path fill="none" stroke="#7f7f7f" stroke-dasharray=".39807759000000004 .9952239432000001" stroke-miterlimit="10" stroke-width=".39808" d="M.40628 202.86328h257.68744M.40628 166.0508h257.68744M.40628 129.23829h257.68744M.40628 92.42582h257.68744M.40628 55.6133h257.68744M.40628 18.80083h257.68744M18.81252 202.86328V.39458m36.8125 202.4687V.39458m36.81249 202.4687V.39458M129.25 202.86328V.39458m36.8125 202.4687V.39458m36.81248 202.4687V.39458m36.8125 202.4687V.39458"/></g><use xlink:href="#b" x="113.13118" y="219.80847" fill="#7f7f7f"/><path fill="none" stroke="#7f7f7f" stroke-miterlimit="10" stroke-width=".39808" d="M18.81253 193.66016v18.40234"/><g fill="#7f7f7f"><use xlink:href="#c" x="11.9692" y="224.07595"/><use xlink:href="#d" x="19.84053" y="224.07595"/></g><path fill="none" stroke="#7f7f7f" stroke-miterlimit="10" stroke-width=".39808" d="M55.62502 193.66016v18.40234"/><g fill="#7f7f7f"><use xlink:href="#c" x="48.78026" y="224.07595"/><use xlink:href="#e" x="56.65159" y="224.07595"/></g><path fill="none" stroke="#7f7f7f" stroke-miterlimit="10" stroke-width=".39808" d="M92.4375 193.66016v18.40234"/><g fill="#7f7f7f"><use xlink:href="#c" x="85.59232" y="224.07595"/><use xlink:href="#f" x="93.46364" y="224.07595"/></g><path fill="none" stroke="#7f7f7f" stroke-miterlimit="10" stroke-width=".39808" d="M166.0625 193.66016v18.40234"/><use xlink:href="#f" x="163.15027" y="224.07595" fill="#7f7f7f"/><path fill="none" stroke="#7f7f7f" stroke-miterlimit="10" stroke-width=".39808" d="M202.87498 193.66016v18.40234"/><use xlink:href="#e" x="199.96233" y="224.07595" fill="#7f7f7f"/><path fill="none" stroke="#7f7f7f" stroke-miterlimit="10" stroke-width=".39808" d="M239.68747 193.66016v18.40234"/><use xlink:href="#d" x="236.77338" y="224.07595" fill="#7f7f7f"/><g clip-path="url(#g)"><path fill="none" stroke="#000" stroke-miterlimit="10" stroke-width=".79617" d="M.40628 202.86328h251.51557"/></g><path d="M256.08203 202.86328c-.51172-.10937-2.75781-.71094-4.16015-1.36328v2.72266c1.40234-.65235 3.64843-1.25391 4.16015-1.35938m0 0"/><g clip-path="url(#h)"><path fill="none" stroke="#000" stroke-miterlimit="10" stroke-width=".79617" d="M256.08203 202.86328c-.51172-.10937-2.75781-.71094-4.16015-1.36328v2.72266c1.40234-.65235 3.64843-1.25391 4.16015-1.35938Zm0 0"/></g><path fill="none" stroke="#7f7f7f" stroke-miterlimit="10" stroke-width=".39808" d="M138.45312 166.05079h-18.40624"/><use xlink:href="#f" x="109.65486" y="169.7704" fill="#7f7f7f"/><path fill="none" stroke="#7f7f7f" stroke-miterlimit="10" stroke-width=".39808" d="M138.45312 129.2383h-18.40624"/><use xlink:href="#e" x="109.65486" y="132.95934" fill="#7f7f7f"/><path fill="none" stroke="#7f7f7f" stroke-miterlimit="10" stroke-width=".39808" d="M138.45312 92.4258h-18.40624"/><use xlink:href="#d" x="109.65486" y="96.08335" fill="#7f7f7f"/><path fill="none" stroke="#7f7f7f" stroke-miterlimit="10" stroke-width=".39808" d="M138.45312 55.61332h-18.40624"/><use xlink:href="#i" x="109.65486" y="59.2723" fill="#7f7f7f"/><path fill="none" stroke="#7f7f7f" stroke-miterlimit="10" stroke-width=".39808" d="M138.45312 18.80082h-18.40624"/><use xlink:href="#j" x="109.65486" y="22.39631" fill="#7f7f7f"/><path fill="none" stroke="#000" stroke-miterlimit="10" stroke-width=".79617" d="M129.25 221.26562V6.56645"/><path stroke="#000" stroke-miterlimit="10" stroke-width=".79617" d="M129.25 2.40625c-.10547.51172-.70703 2.75781-1.36328 4.16016h2.72656c-.65625-1.40235-1.25781-3.64844-1.36328-4.16016Zm0 0"/><g clip-path="url(#k)"><path fill="none" stroke="#007f7f" stroke-miterlimit="10" stroke-width=".79617" d="M.40628-22.61323S8.16409 3.8399 11.14456 13.39848s7.7578 24.1914 10.73828 32.8828c2.97656 8.6875 7.7539 21.92578 10.73437 29.75 2.98047 7.82031 7.75781 19.66406 10.73828 26.61718 2.97656 6.95312 7.7539 17.40234 10.73437 23.48437 2.98047 6.08594 7.75781 15.14062 10.73828 20.35546 2.97656 5.21485 7.75781 12.8789 10.73437 17.22656 2.98047 4.34375 7.75781 10.61328 10.73828 14.08984 2.97656 3.47657 7.75781 8.35547 10.73437 10.96094 2.98047 2.60937 7.75781 6.09375 10.73828 7.83203s7.75781 3.82812 10.73437 4.69531c2.98047.8711 7.75782 1.5664 10.73828 1.57031 2.98047 0 7.75781-.69922 10.73438-1.5664 2.98046-.8672 7.7578-2.95703 10.73827-4.69532s7.75782-5.21874 10.73438-7.82812c2.98047-2.60547 7.7578-7.48047 10.73828-10.95703 2.98046-3.47656 7.7578-9.74609 10.73827-14.08984 2.97657-4.34375 7.7539-12.0078 10.73438-17.22265 2.98047-5.21094 7.7578-14.26953 10.73828-20.35156 2.97656-6.08203 7.7539-16.53124 10.73437-23.48437 2.98047-6.94921 7.7578-18.79296 10.73828-26.61327 2.97656-7.82031 7.7539-21.0586 10.73437-29.74609 2.98047-8.6914 7.75781-23.3203 10.73828-32.8789 2.97656-9.55859 10.73437-36.0117 10.73437-36.0117"/></g><use xlink:href="#l" x="82.28581" y="180.14343" fill="#007f7f"/><use xlink:href="#m" x="92.20862" y="182.99002" fill="#007f7f"/><use xlink:href="#n" x="14.44258" y="40.23044"/><use xlink:href="#n" x="51.25464" y="132.26008"/><use xlink:href="#n" x="88.0657" y="187.47667"/><use xlink:href="#n" x="124.87776" y="205.8832"/><use xlink:href="#n" x="161.68882" y="187.47667"/><use xlink:href="#n" x="198.49987" y="132.26008"/><use xlink:href="#n" x="235.31193" y="40.23044"/></svg>