<svg xmlns="http://www.w3.org/2000/svg" xmlns:xlink="http://www.w3.org/1999/xlink" width="284.262pt" height="73.973pt" viewBox="0 0 284.262 73.973"><defs><path id="y" d="M-.34375 0h2.67188v-.34375l-.64063-.0625c-.35937-.04687-.40625-.17187-.3125-.5.21875-.71875.45313-1.46875.75-2.34375h2.71875l.8125 2.32813c.125.35937.0625.48437-.3125.51562l-.5625.0625V0h3.10938v-.34375c-.70313-.0625-.82813-.10937-1.0625-.73437l-2.5625-7.32813h-.90625L2.09375-4.8125c-.375 1.0625-.89062 2.51563-1.3125 3.625-.26562.65625-.375.79688-1.125.84375Zm2.625-3.70312c.39063-1.21875.8125-2.40625 1.1875-3.48438H3.5l1.20313 3.48438Zm0 0"/><path id="z" d="M.39063 0h2.95312v-.34375c-.85937-.0625-.90625-.09375-.90625-.71875v-2.84375c0-.3125.01563-.46875.125-.65625.25-.48437.79688-.875 1.4375-.875.82813 0 1.28125.45313 1.28125 1.51563v2.85937c0 .625-.03125.65625-.90625.71875V0h2.96875v-.34375c-.875-.0625-.92187-.09375-.92187-.71875v-3.09375c0-1.23437-.67188-1.9375-1.78125-1.9375-.90625 0-1.46875.4375-2.21875.92188l-.15625-.92188-1.8125.3125v.29688l.45312.0625c.3125.04687.40625.09375.40625.53125v3.82812c0 .625-.04687.65625-.92187.71875Zm0 0"/><path id="A" d="M.375-5.46875h.875v4.23438C1.25 0 2.17188.14063 2.59375.14063c.625 0 1.20313-.3125 1.54688-.53125l-.07813-.25c-.29687.10937-.5625.15624-.875.15624-.40625 0-.79687-.29687-.79687-1.21874v-3.76563h1.5625v-.48437h-1.5625v-1.53125h-.34375L1.3125-5.95312H.375Zm0 0"/><path id="B" d="m2.4375-6.82812.1875.25 1.82813-1.01563c.35937-.20312.6875-.40625.6875-.65625s-.29688-.53125-.46875-.53125c-.21875 0-.42188.125-.78125.5ZM.59375-2.9375c0 1.92188.82813 3.07813 2.79688 3.07813 1.35937 0 2.04687-.75 2.375-1.70313L5.40625-1.75c-.34375.70313-.8125 1.26563-1.76562 1.26563-1.51563 0-1.8125-1.4375-1.78125-2.70313h3.5c.26562 0 .48437-.0625.48437-.46875 0-.71875-.23437-2.4375-2.45312-2.4375C1.48438-6.09375.59375-4.75.59375-2.9375M1.875-3.65625c0-.5.17188-2.01562 1.45313-2.01562 1.10937 0 1.25 1.15625 1.25 1.625 0 .23437-.07813.39062-.42188.39062Zm0 0"/><path id="C" d="M.59375-2.92187c0 2.03125 1 3.0625 2.8125 3.0625.85938 0 2.01563-.4375 2.34375-1.75l-.35937-.15626c-.375.84376-.85938 1.28126-1.75 1.28126-1.4375 0-1.78125-1.51563-1.78125-2.65625 0-1.8125.71875-2.53125 1.54687-2.53125.5625 0 .90625.40625 1.15625 1.0625.07813.1875.15625.3125.39063.3125s.70312-.15625.70312-.625c0-.5625-.79687-1.17188-2.10937-1.17188-2.21875 0-2.95313 1.5625-2.95313 3.17188m0 0"/><path id="D" d="M.59375-2.85937c0 1.79687.9375 3 2.54688 3 .65625 0 1.21875-.29688 1.875-.82813v.59375L5.10938 0h1.96875v-.34375c-.85938-.0625-.90625-.09375-.90625-.71875v-7.875L6.09375-9l-1.92187.29688v.29687l.46875.04688c.3125.03125.39062.10937.39062.5625v2c-.34375-.1875-.79687-.29688-1.34375-.29688-1 0-1.75.3125-2.25.82813-.51562.54687-.84375 1.34375-.84375 2.40625M1.85938-3c0-1.57812.5625-2.67187 1.8125-2.67187.5625 0 1.03125.25 1.25.76562.10937.20313.10937.39063.10937.70313v2.14062c0 .26563 0 .46875-.07812.6875-.25.625-.78125.875-1.40625.875-1.125 0-1.6875-1.10937-1.6875-2.5m0 0"/><path id="E" d="M.59375-2.9375c0 1.92188.82813 3.07813 2.79688 3.07813 1.35937 0 2.04687-.75 2.375-1.70313L5.40625-1.75c-.34375.70313-.8125 1.26563-1.76562 1.26563-1.51563 0-1.8125-1.4375-1.78125-2.70313h3.5c.26562 0 .48437-.0625.48437-.46875 0-.71875-.23437-2.4375-2.45312-2.4375C1.48438-6.09375.59375-4.75.59375-2.9375M1.875-3.65625c0-.5.17188-2.01562 1.45313-2.01562 1.10937 0 1.25 1.15625 1.25 1.625 0 .23437-.07813.39062-.42188.39062Zm0 0"/><path id="G" d="M.42188 0H3.8125v-.34375C2.75-.42187 2.71875-.4375 2.71875-1.125v-6.15625c0-.67187.03125-.6875 1.09375-.76562v-.35938H.42188v.35938c1.07812.07812 1.10937.09375 1.10937.76562V-1.125c0 .6875-.03125.70313-1.10937.78125Zm0 0"/><path id="H" d="M.39063 0h2.95312v-.34375c-.85937-.0625-.90625-.09375-.90625-.71875v-2.84375c0-.3125 0-.46875.09375-.64062.23438-.5.76563-.89063 1.4375-.89063 1.04688 0 1.17188.76563 1.17188 1.51563v2.85937c0 .625-.03125.65625-.92188.71875V0H7.1875v-.34375c-.875-.0625-.90625-.09375-.90625-.71875v-2.84375c0-.3125.01563-.46875.09375-.65625.17188-.48437.6875-.875 1.375-.875.76563 0 1.23438.42188 1.23438 1.51563v2.85937c0 .625-.04688.65625-.92188.71875V0h2.96875v-.34375c-.85937-.0625-.90625-.09375-.90625-.71875v-3.09375c0-1.23437-.67187-1.9375-1.8125-1.9375-1 0-1.70312.65625-2.14062.92188-.29688-.5625-.75-.92188-1.60938-.92188-.9375 0-1.6875.60938-2.125.92188l-.10937-.92188-1.875.3125v.29688l.45312.0625c.3125.04687.40625.09375.40625.53125v3.82812c0 .625-.04687.65625-.92187.71875Zm0 0"/><path id="I" d="M.59375-1.57812c0 .90625.60938 1.71875 1.75 1.71875.70313 0 1.42188-.46875 1.79688-.71875.17187.45312.375.71875.8125.71875.45312 0 .96875-.125 1.4375-.35938L6.3125-.5c-.17187.03125-.45312.04688-.625 0-.21875-.0625-.42187-.28125-.42187-1.03125v-2.95312c0-.70313-.15625-1.60938-2-1.60938-1.35938 0-2.45313.70313-2.45313 1.375 0 .39063.45313.57813.6875.57813.25 0 .32813-.14063.39063-.34375.26562-.90625.76562-1.1875 1.25-1.1875.48437 0 1.01562.25 1.01562 1.21875v.5c-.3125.3125-1.48437.625-2.4375.92187-.875.28125-1.125.89063-1.125 1.45313M1.82813-1.75c0-.5625.25-.85937.9375-1.125.48437-.17187 1.125-.40625 1.39062-.57812v1.71875C4.15625-.75 3.40625-.5 2.9375-.5c-.75 0-1.10937-.53125-1.10937-1.25m0 0"/><path id="J" d="M.5 1.15625C.5 2.39063 1.73438 2.9375 3.14063 2.9375c.71875 0 1.48437-.14062 2.0625-.5.5625-.32812.96875-.90625.96875-1.65625C6.17188-.54687 5.125-1 3.82813-1h-.96875c-.875 0-1.01563-.29687-1.01563-.53125 0-.34375.46875-.53125.625-.59375.23438.03125.48438.04688.625.04688 1.14063 0 2.45313-.5 2.45313-1.98438 0-.5-.17188-.92187-.375-1.125l.96875-.15625.25-.76562-.10938-.10938-1.54687.5c-.34375-.23437-1.03125-.375-1.57813-.375-1.85937 0-2.51562 1.125-2.51562 2.03125 0 1.14063.75 1.67188 1.3125 1.8125v.03125c-.65625.25-1.10938.60938-1.10938 1.07813 0 .4375.48438.875 1.0625.95312v.01563C1.39063 0 .5.28125.5 1.15625m1.17188-.04687c0-.40625.10937-.71875.375-.92188.26562-.20312.67187-.28125 1.25-.28125 1.07812 0 1.85937.28125 1.85937 1.17188 0 .96875-.875 1.4375-1.75 1.4375-1.03125 0-1.73437-.53125-1.73437-1.40625m.21874-5.17188c0-1.20312.60938-1.60937 1.26563-1.60937.59375 0 1.21875.4375 1.21875 1.60937C4.375-3.03125 3.84375-2.5 3.14063-2.5c-.6875 0-1.25-.53125-1.25-1.5625m0 0"/><path id="L" d="M.42188 0H4v-.34375C2.75-.42187 2.71875-.4375 2.71875-1.125v-2.84375h1.70313c1.03125 0 1.07812.28125 1.1875 1.0625h.35937V-5.5h-.35937c-.10938.76563-.15625 1.0625-1.1875 1.0625H2.71875v-3.10937c0-.40625.04688-.4375.45313-.4375H4.375c1.40625 0 1.6875.28125 1.85938 1.53125h.35937v-1.95313H.42188v.35938c1.07812.07812 1.10937.09375 1.10937.76562V-1.125c0 .6875-.03125.70313-1.10937.78125Zm0 0"/><path id="M" d="M.59375-2.96875c0 1.95313.96875 3.10938 2.92188 3.10938s2.90625-1.15625 2.90625-3.10938c0-1.96875-.95313-3.125-2.90625-3.125-1.95313 0-2.92188 1.15625-2.92188 3.125m1.26563 0c0-1.6875.54687-2.70312 1.65625-2.70312 1.10937 0 1.65625 1.01562 1.65625 2.70312 0 1.67188-.54688 2.6875-1.65625 2.6875-1.10938 0-1.65625-1.01562-1.65625-2.6875m0 0"/><path id="N" d="M1.10938-7.95312c0 .45312.3125.75.75.75s.73437-.29688.73437-.75c0-.4375-.29687-.73438-.73437-.73438s-.75.29688-.75.73438M.39063 0h2.95312v-.34375c-.85937-.0625-.90625-.09375-.90625-.71875v-4.95312l-.07812-.07813-1.90625.3125v.29688l.45312.0625c.3125.04687.40625.09375.40625.53125v3.82812c0 .625-.04687.65625-.92187.71875Zm0 0"/><path id="F" d="M.85938-1.3125c0 .73438.32812 1.45313 1.15625 1.45313 1.3125 0 2.42187-1.5 3.14062-2.73438h.03125l-.42187 1.375c-.07813.28125-.125.51563-.125.70313 0 .42187.20312.65625.65625.65625.92187 0 1.60937-.82813 2.01562-1.75l-.28125-.15626C6.8125-1.34374 6.26563-.48436 5.9375-.48436c-.15625 0-.20312-.09375-.20312-.23438 0-.125.04687-.26562.07812-.4375L7.09375-6H6.07813l-.0625.15625c-.20313-.14062-.5625-.25-.89063-.25-2.89062 0-4.26562 3.1875-4.26562 4.78125m1.1875-.01562c0-1.32813 1.20312-4.34375 3.10937-4.34375.29688 0 .5625.10937.73438.26562C5.67188-4.5 5.25-3.29687 4.59375-2.32812 3.92188-1.29687 3.17188-.48437 2.57813-.48437c-.39063 0-.53125-.375-.53125-.84375m0 0"/><path id="K" d="M1.0625 0H1.5l.375-.70312c.21875.5.82813.84375 1.51563.84375 1.42187 0 2.46875-.9375 3.0625-2.01563C7.0625-2.95312 7.25-4.01562 7.25-4.5625c0-.90625-.39062-1.53125-1.29687-1.53125s-2.125.82813-3.0625 2.5H2.875l1.34375-5.35937L4.15625-9l-2.17187.28125-.07813.28125.6875.07813c.20313.03125.29688.0625.29688.25 0 .07812-.01563.1875-.04688.34375Zm1.5-1.3125c0-.59375.25-1.42187.64063-2.14062.54687-.96875 1.46875-2.01563 2.21875-2.01563.4375 0 .64062.3125.64062 1.01563 0 .875-.71875 4.17187-2.51562 4.17187-.60938 0-.98438-.42187-.98438-1.03125m0 0"/><path id="O" d="M-.26562 2.23438c.01562.40625.54687.70312 1.125.70312 1.20312 0 1.71875-.98437 2.23437-3.3125l1.125-5.10937H5.75l.10938-.46875h-1.5625l.32812-1.375c.23438-.92188.46875-1.26563.79688-1.26563.32812 0 .54687.26563.8125.85938.07812.10937.15625.20312.34375.20312.25 0 .59375-.21875.59375-.53125 0-.51562-.65625-.9375-1.39063-.9375-1.42187 0-2.01562 1-2.48437 2.60938l-.125.4375H2.125l-.14062.46875H3.0625L1.65625 1.67188c-.14062.75-.28125.82812-.39062.82812-.125 0-.32813-.09375-.64063-.59375C.53125 1.78125.45313 1.625.29688 1.625c-.26563 0-.5625.29688-.5625.60938m0 0"/><clipPath id="i"><path d="M13 11h14v26.5586H13Zm0 0"/></clipPath><clipPath id="j"><path d="M.89453 11H27v26.5586H.89453Zm0 0"/></clipPath><clipPath id="b"><path d="M.9414.74219h5.77344v9.7461H.94141Zm0 0"/></clipPath><clipPath id="a"><path d="M0 0h7v11H0z"/></clipPath><clipPath id="m"><path d="M29 .8125h8.64063V17H29Zm0 0"/></clipPath><clipPath id="n"><path d="M21 .8125h16.64063V17H21Zm0 0"/></clipPath><clipPath id="e"><path d="M.91797.02344h4.4961v7.58984H.91796Zm0 0"/></clipPath><clipPath id="d"><path d="M0 0h6v8H0z"/></clipPath><clipPath id="q"><path d="M32 17h5.64063v11H32Zm0 0"/></clipPath><clipPath id="r"><path d="M28 17h9.64063v11H28Zm0 0"/></clipPath><clipPath id="g"><path d="M.30078.69922h2.35938v3.57031H.30078Zm0 0"/></clipPath><clipPath id="f"><path d="M0 0h3v5H0z"/></clipPath><clipPath id="u"><path d="M13 11h14v26.5586H13Zm0 0"/></clipPath><clipPath id="v"><path d="M29 .8125h8.64063V17H29Zm0 0"/></clipPath><clipPath id="w"><path d="M32 17h5.64063v11H32Zm0 0"/></clipPath><clipPath id="h"><path d="M0 0h38v38H0z"/></clipPath><g id="l" clip-path="url(#a)"><g clip-path="url(#b)"><path fill="#75ccf4" d="M6.71484 5.61719c0 2.6914-2.18359 4.8711-4.875 4.8711-.30468 0-.60546-.02735-.89843-.08204C3.20703 9.98438 4.91797 8 4.91797 5.61719c0-2.38672-1.71094-4.3711-3.97656-4.79297.29297-.05469.59375-.08203.89843-.08203 2.69141 0 4.875 2.1836 4.875 4.875"/></g></g><g id="p" clip-path="url(#d)"><g clip-path="url(#e)"><path fill="#75ccf4" d="M5.41406 3.8164c0 2.09766-1.69922 3.79688-3.79687 3.79688-.23828 0-.47266-.02344-.69922-.0664 1.76172-.32813 3.09765-1.8711 3.09765-3.73047C4.01563 1.96094 2.6797.41406.91798.08594c.22656-.04297.46094-.0625.69922-.0625 2.09765 0 3.79687 1.69922 3.79687 3.79297"/></g></g><g id="t" clip-path="url(#f)"><g clip-path="url(#g)"><path fill="#75ccf4" d="M2.66016 2.48438c0 .98437-.80078 1.78515-1.78516 1.78515-.19922 0-.39453-.03125-.57422-.09375.70313-.23828 1.21094-.90625 1.21094-1.6914S1.0039 1.03125.30078.79688C.48047.73438.67578.69922.875.69922c.98438 0 1.78516.80078 1.78516 1.78516"/></g></g><g id="P" clip-path="url(#h)"><g clip-path="url(#i)"><path fill="#99bac6" d="M26.78516 23.11719v2.9961c0 .29687-.2422.53905-.53907.53905h-1.39453a10.905 10.905 0 0 1-.45703 1.70704l1.20703.6953c.125.07032.21485.1875.25.32813.03907.13672.01953.28125-.05078.40625l-1.5 2.59375c-.14844.25782-.47656.34766-.73437.19922l-1.21094-.69922c-.38281.44532-.80078.86328-1.2461 1.25l.69532 1.20703c.07422.125.09375.26953.05468.41016-.03515.13672-.125.2539-.25.32422l-2.59374 1.5c-.25782.14844-.58594.0586-.73438-.19922l-.69922-1.20703c-.55469.19922-1.125.35156-1.70703.45703v1.39453c0 .29688-.23828.53906-.53906.53906h-1.4961v-1.7539c5.51172-.97266 9.6875-5.61328 9.6875-11.1875 0-5.57813-4.17578-10.21875-9.6875-11.1875v-1.75782h1.4961c.30078 0 .53906.2422.53906.53907v1.39453c.58203.10547 1.15234.25781 1.70703.45703l.69922-1.20703c.14844-.25781.47656-.34766.73438-.19531l2.59374 1.49609c.125.07031.21485.1875.25.32422.03907.14062.01954.28515-.05468.41015l-.69532 1.21094a11.73 11.73 0 0 1 1.2461 1.2461l1.21094-.69922c.2578-.14844.58593-.0586.73437.19922l1.5 2.59375c.07031.125.08985.26953.05078.40625-.03515.14062-.125.2578-.25.32812l-1.20703.69531a10.905 10.905 0 0 1 .45703 1.70704h1.39453c.29688 0 .53907.24218.53907.53906"/></g><path fill="#4c7889" d="M21.48047 24.61719c0 4.21875-3.42188 7.63672-7.64063 7.63672-.27734 0-.55468-.01563-.82422-.04297 3.82813-.41407 6.8125-3.65625 6.8125-7.59375 0-3.9414-2.98437-7.1836-6.8125-7.59766.26954-.02734.54688-.04297.82422-.04297 4.21875 0 7.64063 3.42188 7.64063 7.64063"/><g clip-path="url(#j)"><path fill="#b7d4e2" d="M13.83984 29.48828c-.30468 0-.60547-.02734-.89843-.08203C10.67969 28.98438 8.96484 27 8.96484 24.61719c0-2.38672 1.71485-4.3711 3.97657-4.79297.29297-.05469.59375-.08203.89843-.08203 2.69141 0 4.875 2.1836 4.875 4.875s-2.18359 4.8711-4.875 4.8711m12.40625-6.91016h-1.39453a10.905 10.905 0 0 0-.45703-1.70704l1.20703-.6953c.125-.07032.21485-.1875.25-.32423.03907-.14062.01953-.28515-.05078-.41015l-1.5-2.59375c-.14844-.25782-.47656-.34766-.73437-.19922l-1.21094.69922a11.73 11.73 0 0 0-1.2461-1.2461l.69532-1.21093c.07422-.125.09375-.26954.05468-.41016-.03515-.13672-.125-.2539-.25-.32422l-2.59374-1.4961c-.25782-.15234-.58594-.0625-.73438.19532l-.69922 1.20703c-.55469-.19922-1.125-.35156-1.70703-.45703v-1.39453c0-.29688-.23828-.53907-.53906-.53907h-2.99219c-.29687 0-.53906.2422-.53906.53907v1.39453c-.58203.10547-1.15235.25781-1.70703.45703l-.69922-1.20703c-.14844-.25781-.47657-.34375-.73438-.19531l-2.59375 1.49609c-.125.07031-.21484.1875-.25.32422-.03906.14062-.01953.28515.05469.41015l.69531 1.21094a11.73 11.73 0 0 0-1.2461 1.2461l-1.21093-.69922c-.25781-.14844-.58594-.0586-.73437.19922l-1.5 2.59375c-.07032.125-.08985.26953-.05079.41015.03516.13672.125.2539.25.32422l1.20704.69531a10.905 10.905 0 0 0-.45703 1.70704H1.43359c-.29687 0-.53906.24218-.53906.53906v2.9961c0 .29687.24219.53905.53906.53905h1.39454a10.905 10.905 0 0 0 .45703 1.70704l-1.20703.6953c-.125.07032-.21485.1875-.25.32813-.03907.13672-.01954.28125.05078.40625l1.5 2.59375c.14843.25782.47656.34766.73437.19922l1.21094-.69922c.38281.44532.80078.86328 1.2461 1.25L5.875 34.33984c-.07422.125-.09375.26953-.05469.41016.03516.13672.125.2539.25.32422l2.59375 1.5c.25782.14844.58594.0586.73438-.19922l.69922-1.20703c.55468.19922 1.125.35156 1.70703.45703v1.39453c0 .29688.24218.53906.53906.53906h2.99219c.30078 0 .53906-.24218.53906-.53906V35.625c.58203-.10547 1.15234-.25781 1.70703-.45703l.69922 1.20703c.14844.25781.47656.34766.73438.19922l2.59374-1.5c.125-.07031.21485-.1875.25-.32422.03907-.14062.01954-.28516-.05468-.41016l-.69532-1.20703c.44532-.38672.86329-.80468 1.2461-1.25l1.21094.69922c.2578.14844.58593.0586.73437-.19922l1.5-2.59375c.07031-.125.08985-.26953.05078-.40625-.03515-.14062-.125-.25781-.25-.32812l-1.20703-.69532a10.905 10.905 0 0 0 .45703-1.70703h1.39453c.29688 0 .53907-.24218.53907-.53906v-2.9961c0-.29687-.2422-.53906-.53907-.53906"/></g><g mask="url(#k)"><use xlink:href="#l" transform="translate(12 19)"/></g><g clip-path="url(#m)"><path fill="#4c7889" d="M37.64063 7.0586v3.51953c0 .29687-.2422.53515-.53907.53515h-.99218c-.08204.22656-.17188.44531-.27344.66016l.69922.69922c.10156.10156.16015.23828.16015.3828 0 .14063-.0586.27735-.16015.37891l-2.4922 2.48829c-.21093.21093-.55077.21093-.7578 0l-.70313-.70313a6.09 6.09 0 0 1-.66406.27344v.99219c0 .29687-.23828.53906-.53516.53906H29.6172v-1.23047c3.21093-.3789 5.70703-3.26953 5.70703-6.77734 0-3.50782-2.4961-6.39453-5.70703-6.77344V.8125h1.76562c.29688 0 .53516.24219.53516.53906v.98828c.22656.08203.44531.17188.66406.27344l.70313-.69922c.20703-.21094.54687-.21094.7578 0l2.4922 2.48438c.10156.10156.16015.23828.16015.38281s-.0586.28125-.16015.38281l-.69922.69922c.10156.21485.1914.4336.27343.65625h.9922c.29687 0 .53905.24219.53905.53906"/></g><g clip-path="url(#n)"><path fill="#668fa3" d="M29.61719 12.61328c-.23828 0-.47266-.02344-.69922-.0664-1.76172-.32813-3.09375-1.8711-3.09375-3.73047 0-1.85547 1.33203-3.40235 3.09375-3.73047.22656-.04297.46094-.0625.69922-.0625 2.09765 0 3.79687 1.69922 3.79687 3.79297 0 2.09765-1.69922 3.79687-3.79687 3.79687m7.48437-6.09375h-.99218c-.08204-.22265-.17188-.4414-.27344-.65625l.69922-.69922c.10156-.10156.16015-.23828.16015-.38281s-.0586-.28125-.16015-.38281l-2.4922-2.48438c-.21093-.21094-.55077-.21094-.7578 0l-.70313.69922c-.21875-.10156-.4375-.1914-.66406-.27344v-.98828c0-.29687-.23828-.53906-.53516-.53906h-3.52734c-.29688 0-.53906.24219-.53906.53906v.98828c-.22266.08203-.44532.17188-.66016.27344l-.70312-.69922c-.21094-.21094-.55079-.21094-.76172 0l-2.4922 2.48438c-.10155.10156-.15624.23828-.15624.38281s.05469.28125.15625.38281l.70312.69922c-.10156.21485-.1953.4336-.27343.65625h-.9961c-.29687 0-.53515.24219-.53515.53906v3.51954a.5335.5335 0 0 0 .53515.53515h.9961c.07812.22656.17187.44531.27343.66016l-.70312.69922c-.10156.10156-.15625.23828-.15625.3828 0 .14063.05469.27735.15625.37891l2.49219 2.48829c.21093.21093.55078.21093.76171 0l.70313-.70313c.21484.10547.4375.19531.66016.27344v.99219c0 .29687.24218.53906.53906.53906h3.52734c.29688 0 .53516-.24219.53516-.53906v-.9922a6.09 6.09 0 0 0 .66406-.27343l.70313.70313c.20703.21093.54687.21093.7578 0l2.4922-2.48828c.10156-.10157.16015-.23829.16015-.37891 0-.14453-.0586-.28125-.16015-.38281l-.69922-.69922c.10156-.21485.1914-.4336.27343-.66016h.9922c.29687 0 .53905-.23828.53905-.53515V7.05859c0-.29687-.24218-.53906-.53906-.53906"/></g><g mask="url(#o)"><use xlink:href="#p" transform="translate(28 5)"/></g><g clip-path="url(#q)"><path fill="#4c7889" d="M37.64063 22.48438c0 .29687-.2422.53906-.53907.53906h-.4414c-.08594.64062-.33594 1.24218-.72657 1.75781l.3125.3125c.20703.20703.20703.55078 0 .75781-.10547.10547-.24218.16016-.3828.16016-.13673 0-.27345-.05469-.37891-.16016l-.3125-.3086c-.51563.39063-1.1172.63673-1.75782.72657v.4414c0 .29688-.24218.53907-.53906.53907v-1.07031c1.59766-.46485 2.76953-1.9414 2.76953-3.6914s-1.17187-3.22657-2.76953-3.69141v-1.07813c.29688 0 .53906.24219.53906.53906v.4414c.64063.08985 1.24219.33985 1.75782.72657l.30859-.3086c.21094-.21093.55469-.21093.76172 0 .21093.21094.21093.55079 0 .76173l-.3086.30859c.39063.51563.63672 1.11719.72657 1.75781h.4414c.29688 0 .53907.24219.53907.53907"/></g><g clip-path="url(#r)"><path fill="#668fa3" d="M32.875 24.26953c-.19922 0-.39453-.03125-.57422-.09375-.70312-.23828-1.21094-.90625-1.21094-1.6914s.50782-1.45313 1.21094-1.6875c.17969-.0625.375-.09766.57422-.09766.98438 0 1.78516.80078 1.78516 1.78515 0 .98438-.80078 1.78516-1.78516 1.78516m4.22656-2.32422h-.4414c-.08985-.64062-.33594-1.24218-.72657-1.75781l.3086-.3086c.21093-.21093.21093-.55078 0-.76171-.20703-.21094-.55078-.21094-.76172 0l-.3086.3086c-.51562-.38673-1.11718-.63673-1.7578-.72657v-.4414c0-.29688-.2422-.53907-.53907-.53907s-.53906.24219-.53906.53906v.4414c-.64063.08985-1.24219.33595-1.75782.72657l-.30859-.3086c-.21094-.21093-.55078-.21093-.76172 0-.21093.20704-.21093.55079 0 .76173l.3086.30859c-.38672.51563-.63672 1.11719-.72657 1.75781h-.4375c-.30078 0-.53906.24219-.53906.53907 0 .29687.23828.53906.53906.53906h.4375c.08985.64062.33985 1.24218.73047 1.75781l-.3125.3086c-.21093.21093-.21093.55078 0 .76171.10547.10547.24219.16016.3789.16016.14063 0 .27735-.05469.38282-.16016l.3086-.3086c.51562.38673 1.12109.63673 1.76171.72657v.4414c0 .29688.23828.53907.53516.53907s.53906-.24219.53906-.53906v-.4414c.64063-.08985 1.24219-.33595 1.75782-.72657l.3125.3086c.10546.10546.24218.16015.3789.16015.14063 0 .27734-.05469.38281-.16016.20703-.20703.20703-.55078 0-.75781l-.3125-.3125c.39063-.51562.63672-1.11719.72657-1.75781h.4414c.29688 0 .53907-.24219.53907-.53907 0-.29687-.2422-.53906-.53907-.53906"/></g><g mask="url(#s)"><use xlink:href="#t" transform="translate(32 20)"/></g><path fill="#668fa3" d="M13.83984 29.48828c-.30468 0-.60547-.02734-.89843-.08203C10.67969 28.98438 8.96484 27 8.96484 24.61719c0-2.38672 1.71485-4.3711 3.97657-4.79297.29297-.05469.59375-.08203.89843-.08203 2.69141 0 4.875 2.1836 4.875 4.875s-2.18359 4.8711-4.875 4.8711m0-12.51173c-.27734 0-.55468.01563-.82422.04297-3.83203.41406-6.8164 3.65625-6.8164 7.59766 0 3.9375 2.98437 7.17968 6.8164 7.59375.26954.02734.54688.04297.82422.04297 4.21875 0 7.64063-3.41797 7.64063-7.63672s-3.42188-7.64063-7.64063-7.64063"/><g clip-path="url(#u)"><path fill="#99bac6" d="M26.78516 23.11719v2.9961c0 .29687-.2422.53905-.53907.53905h-1.39453a10.905 10.905 0 0 1-.45703 1.70704l1.20703.6953c.125.07032.21485.1875.25.32813.03907.13672.01953.28125-.05078.40625l-1.5 2.59375c-.14844.25782-.47656.34766-.73437.19922l-1.21094-.69922c-.38281.44532-.80078.86328-1.2461 1.25l.69532 1.20703c.07422.125.09375.26953.05468.41016-.03515.13672-.125.2539-.25.32422l-2.59374 1.5c-.25782.14844-.58594.0586-.73438-.19922l-.69922-1.20703c-.55469.19922-1.125.35156-1.70703.45703v1.39453c0 .29688-.23828.53906-.53906.53906h-1.4961v-1.7539c5.51172-.97266 9.6875-5.61328 9.6875-11.1875 0-5.57813-4.17578-10.21875-9.6875-11.1875v-1.75782h1.4961c.30078 0 .53906.2422.53906.53907v1.39453c.58203.10547 1.15234.25781 1.70703.45703l.69922-1.20703c.14844-.25781.47656-.34766.73438-.19531l2.59374 1.49609c.125.07031.21485.1875.25.32422.03907.14062.01954.28515-.05468.41015l-.69532 1.21094a11.73 11.73 0 0 1 1.2461 1.2461l1.21094-.69922c.2578-.14844.58593-.0586.73437.19922l1.5 2.59375c.07031.125.08985.26953.05078.40625-.03515.14062-.125.2578-.25.32812l-1.20703.69531a10.905 10.905 0 0 1 .45703 1.70704h1.39453c.29688 0 .53907.24218.53907.53906"/></g><g clip-path="url(#v)"><path fill="#4c7889" d="M37.64063 7.0586v3.51953c0 .29687-.2422.53515-.53907.53515h-.99218c-.08204.22656-.17188.44531-.27344.66016l.69922.69922c.10156.10156.16015.23828.16015.3828 0 .14063-.0586.27735-.16015.37891l-2.4922 2.48829c-.21093.21093-.55077.21093-.7578 0l-.70313-.70313a6.09 6.09 0 0 1-.66406.27344v.99219c0 .29687-.23828.53906-.53516.53906H29.6172v-1.23047c3.21093-.3789 5.70703-3.26953 5.70703-6.77734 0-3.50782-2.4961-6.39453-5.70703-6.77344V.8125h1.76562c.29688 0 .53516.24219.53516.53906v.98828c.22656.08203.44531.17188.66406.27344l.70313-.69922c.20703-.21094.54687-.21094.7578 0l2.4922 2.48438c.10156.10156.16015.23828.16015.38281s-.0586.28125-.16015.38281l-.69922.69922c.10156.21485.1914.4336.27343.65625h.9922c.29687 0 .53905.24219.53905.53906"/></g><g clip-path="url(#w)"><path fill="#4c7889" d="M37.64063 22.48438c0 .29687-.2422.53906-.53907.53906h-.4414c-.08594.64062-.33594 1.24218-.72657 1.75781l.3125.3125c.20703.21094.20703.55078 0 .76172-.10547.10547-.24218.15625-.3828.15625-.13673 0-.27345-.05078-.37891-.15625l-.3125-.3125c-.51563.39062-1.1172.63672-1.75782.72656v.4414c0 .29688-.24218.53907-.53906.53907v-1.07031c1.59766-.46485 2.76953-1.9414 2.76953-3.6914s-1.17187-3.22657-2.76953-3.69141v-1.07813c.29688 0 .53906.24219.53906.53906v.4414c.64063.08985 1.24219.33985 1.75782.72657l.30859-.3086c.21094-.21093.55469-.21093.76172 0 .21093.21094.21093.55079 0 .76173l-.3086.30859c.39063.51563.63672 1.11719.72657 1.75781h.4414c.29688 0 .53907.24219.53907.53907"/></g></g><mask id="k"><g filter="url(#x)"><path fill-opacity=".5" d="M-199.53764-48.27406h409.33728V58.24706h-409.33728z"/></g></mask><mask id="o"><g filter="url(#x)"><path fill-opacity=".5" d="M-199.53764-48.27406h409.33728V58.24706h-409.33728z"/></g></mask><mask id="s"><g filter="url(#x)"><path fill-opacity=".5" d="M-199.53764-48.27406h409.33728V58.24706h-409.33728z"/></g></mask><filter id="x" width="100%" height="100%" x="0%" y="0%"><feColorMatrix color-interpolation-filters="sRGB" values="0 0 0 0 1 0 0 0 0 1 0 0 0 0 1 0 0 0 1 0"/></filter></defs><g fill="#ff7f00"><use xlink:href="#y" x="4.30582" y="28.99425"/><use xlink:href="#z" x="12.00489" y="28.99425"/><use xlink:href="#A" x="19.51018" y="28.99425"/><use xlink:href="#B" x="23.68266" y="28.99425"/><use xlink:href="#C" x="29.92201" y="28.99425"/><use xlink:href="#B" x="35.94174" y="28.99425"/><use xlink:href="#D" x="42.18109" y="28.99425"/><use xlink:href="#E" x="49.44094" y="28.99425"/><use xlink:href="#z" x="55.68029" y="28.99425"/><use xlink:href="#A" x="63.18559" y="28.99425"/></g><use xlink:href="#F" x="70.08275" y="28.99425" fill="#ff7f00"/><use xlink:href="#G" x="234.3436" y="27.59887" fill="#007f7f"/><g fill="#007f7f"><use xlink:href="#H" x="238.36106" y="27.59887"/><use xlink:href="#I" x="249.56088" y="27.59887"/><use xlink:href="#J" x="255.90356" y="27.59887"/><use xlink:href="#E" x="262.2075" y="27.59887"/></g><use xlink:href="#K" x="271.17318" y="27.59887" fill="#007f7f"/><path fill="none" stroke="#000" stroke-miterlimit="10" stroke-width=".39747" d="M91.94922 24.5625H216.0235"/><path stroke="#000" stroke-miterlimit="10" stroke-width=".39747" d="M219.85156 24.5625c-.47265-.125-2.53906-.83984-3.82812-1.6211v3.2422c1.28906-.77735 3.35547-1.4922 3.82812-1.6211Zm0 0"/><use xlink:href="#L" x="126.44871" y="13.39176"/><use xlink:href="#M" x="133.04976" y="13.39176"/><use xlink:href="#z" x="140.05126" y="13.39176"/><use xlink:href="#C" x="147.55655" y="13.39176"/><use xlink:href="#A" x="153.57629" y="13.39176"/><use xlink:href="#N" x="157.74877" y="13.39176"/><use xlink:href="#M" x="161.27536" y="13.39176"/><use xlink:href="#z" x="168.27686" y="13.39176"/><use xlink:href="#O" x="178.50856" y="13.39176"/><use xlink:href="#P" transform="translate(137 32)"/></svg>