<svg xmlns="http://www.w3.org/2000/svg" xmlns:xlink="http://www.w3.org/1999/xlink" width="490.109pt" height="128.03pt" viewBox="0 0 490.109 128.03"><defs><path id="y" d="M-.59375 0H4v-.59375l-1.07812-.125C2.29688-.78125 2.20313-1 2.375-1.5625c.35938-1.23437.78125-2.53125 1.28125-4.01562h4.6875l1.40625 4c.20313.59375.10938.82812-.5625.89062l-.95312.09375V0h5.35937v-.59375c-1.21875-.125-1.4375-.1875-1.82812-1.28125L7.34375-14.46875h-1.5625l-2.17187 6.1875C2.95313-6.45312 2.0625-3.95312 1.32813-2.04687.89063-.90625.71875-.67187-.59375-.59375ZM3.9375-6.39062c.67188-2.09375 1.40625-4.14063 2.03125-5.98438h.0625l2.0625 5.98438Zm0 0"/><path id="z" d="M.67188 0h5.09375v-.59375c-1.5-.125-1.5625-.15625-1.5625-1.23437v-4.89063c0-.53125.03125-.79687.20312-1.14062.4375-.8125 1.375-1.51563 2.48438-1.51563 1.4375 0 2.20312.78125 2.20312 2.60938v4.9375c0 1.07812-.0625 1.10937-1.57812 1.23437V0h5.125v-.59375c-1.5-.125-1.57813-.15625-1.57813-1.23437v-5.34375c0-2.10938-1.15625-3.32813-3.07812-3.32813-1.54688 0-2.51563.75-3.79688 1.59375L3.89063-10.5l-3.10938.53125v.51563l.78125.10937c.53125.09375.6875.17188.6875.9375v6.57813C2.25-.75 2.1875-.71875.67188-.59375Zm0 0"/><path id="A" d="M.64063-9.40625h1.51562v7.26563C2.15625 0 3.73438.25 4.46875.25c1.07813 0 2.07813-.54687 2.67188-.92187l-.15625-.4375c-.51563.20312-.95313.26562-1.48438.26562-.71875 0-1.39062-.51562-1.39062-2.09375v-6.46875H6.8125V-10.25H4.10938v-2.625h-.59375L2.25-10.25H.64063Zm0 0"/><path id="B" d="m4.20313-11.75.3125.42188 3.15625-1.75c.625-.34375 1.1875-.6875 1.1875-1.14063 0-.42187-.51563-.90625-.82813-.90625-.35937 0-.71875.21875-1.32812.85938ZM1.03125-5.04687C1.03125-1.73437 2.45313.25 5.85938.25c2.3125 0 3.51562-1.29687 4.0625-2.9375l-.625-.34375c-.57813 1.23438-1.375 2.20313-3.01563 2.20313-2.60937 0-3.125-2.48438-3.07812-4.67188h6.03125c.4375 0 .82812-.10937.82812-.79687 0-1.21875-.40625-4.20313-4.23437-4.20313-3.26563 0-4.79688 2.3125-4.79688 5.45313m2.1875-1.25c0-.875.3125-3.46875 2.5-3.46875 1.9375 0 2.15625 1.98437 2.15625 2.79687 0 .40625-.125.67188-.70312.67188Zm0 0"/><path id="C" d="M1.03125-5.03125C1.03125-1.53125 2.73438.25 5.875.25c1.46875 0 3.45313-.76562 4.03125-3.01562l-.625-.28125c-.64062 1.46875-1.46875 2.20312-3 2.20312-2.5 0-3.07812-2.60937-3.07812-4.5625 0-3.10937 1.21875-4.35937 2.67187-4.35937.95313 0 1.5625.6875 1.98438 1.82812.125.32813.26562.53125.65625.53125.42187 0 1.23437-.26562 1.23437-1.07812C9.75-9.4375 8.35938-10.5 6.09375-10.5c-3.79687 0-5.0625 2.6875-5.0625 5.46875m0 0"/><path id="D" d="M1.03125-4.92187C1.03125-1.82812 2.64063.25 5.40625.25 6.54688.25 7.5-.26562 8.64063-1.17187v1.01562L8.8125 0h3.375v-.59375c-1.48437-.125-1.54687-.15625-1.54687-1.23437v-13.5625l-.15625-.125L7.1875-15v.53125l.79688.07813c.53125.0625.67187.17187.67187.96875v3.4375c-.57812-.3125-1.35937-.51563-2.3125-.51563-1.71875 0-3 .54688-3.875 1.4375-.89062.9375-1.4375 2.32813-1.4375 4.14063m2.17188-.23438c0-2.71875.98437-4.60937 3.10937-4.60937.98438 0 1.78125.4375 2.17188 1.3125.17187.35937.17187.67187.17187 1.21875v3.67187c0 .46875 0 .82813-.14062 1.1875-.42188 1.07813-1.32813 1.5-2.42188 1.5-1.90625 0-2.89062-1.89062-2.89062-4.28125m0 0"/><path id="E" d="M1.03125-5.04687C1.03125-1.73437 2.45313.25 5.85938.25c2.3125 0 3.51562-1.29687 4.0625-2.9375l-.625-.34375c-.57813 1.23438-1.375 2.20313-3.01563 2.20313-2.60937 0-3.125-2.48438-3.07812-4.67188h6.03125c.4375 0 .82812-.10937.82812-.79687 0-1.21875-.40625-4.20313-4.23437-4.20313-3.26563 0-4.79688 2.3125-4.79688 5.45313m2.1875-1.25c0-.875.3125-3.46875 2.5-3.46875 1.9375 0 2.15625 1.98437 2.15625 2.79687 0 .40625-.125.67188-.70312.67188Zm0 0"/><path id="G" d="M.73438 0H6.5625v-.59375C4.73438-.73437 4.6875-.75 4.6875-1.9375v-10.59375c0-1.17187.04688-1.20312 1.875-1.32812v-.60938H.73438v.60938c1.84375.125 1.89062.15625 1.89062 1.32812V-1.9375C2.625-.75 2.57813-.73437.73438-.59375Zm0 0"/><path id="H" d="M.67188 0h5.09375v-.59375c-1.5-.125-1.5625-.15625-1.5625-1.23437v-4.89063c0-.53125 0-.82812.15625-1.10937.40625-.84375 1.3125-1.54688 2.46875-1.54688 1.8125 0 2.03125 1.32813 2.03125 2.60938v4.9375c0 1.07812-.07813 1.10937-1.57813 1.23437V0H12.375v-.59375c-1.5-.125-1.5625-.15625-1.5625-1.23437v-4.89063c0-.53125.01563-.79687.15625-1.14062.3125-.84375 1.20313-1.51563 2.375-1.51563 1.3125 0 2.125.73438 2.125 2.60938v4.9375c0 1.07812-.07812 1.10937-1.57812 1.23437V0H19v-.59375c-1.48437-.125-1.57812-.15625-1.57812-1.23437v-5.34375c0-2.10938-1.14063-3.32813-3.10938-3.32813-1.71875 0-2.9375 1.125-3.67187 1.59375C10.125-9.875 9.32813-10.5 7.85938-10.5 6.25-10.5 4.9375-9.4375 4.20313-8.90625L4-10.5l-3.21875.53125v.51563l.78125.10937c.53125.09375.6875.17188.6875.9375v6.57813C2.25-.75 2.1875-.71875.67188-.59375Zm0 0"/><path id="I" d="M1.03125-2.71875c0 1.5625 1.03125 2.96875 3 2.96875C5.25.25 6.46875-.5625 7.14063-1c.29687.78125.64062 1.25 1.375 1.25.78125 0 1.67187-.23437 2.46875-.625l-.125-.5c-.29688.07813-.76563.09375-1.0625 0-.39063-.07812-.73438-.45312-.73438-1.76562v-5.07813C9.0625-8.9375 8.78125-10.5 5.625-10.5c-2.35937 0-4.21875 1.21875-4.21875 2.375 0 .67188.78125.98438 1.17188.98438.45312 0 .5625-.21875.67187-.57813.46875-1.5625 1.3125-2.04687 2.15625-2.04687.82813 0 1.76563.42187 1.76563 2.09375v.85937c-.54688.53125-2.5625 1.07813-4.21875 1.60938-1.5.46875-1.92188 1.51562-1.92188 2.48437M3.14063-3c0-.98437.4375-1.5 1.625-1.9375.84375-.3125 1.9375-.71875 2.40625-1v2.95313c0 1.6875-1.29688 2.10937-2.125 2.10937-1.28125 0-1.90625-.90625-1.90625-2.125m0 0"/><path id="J" d="M.875 2c0 2.10938 2.10938 3.04688 4.53125 3.04688 1.25 0 2.5625-.23438 3.5625-.84375.95313-.57813 1.67188-1.57813 1.67188-2.875 0-2.26563-1.8125-3.04688-4.04688-3.04688H4.92188c-1.51563 0-1.73438-.5-1.73438-.90625 0-.59375.79688-.9375 1.0625-1.03125.40625.04688.84375.07813 1.0625.07813 1.98438 0 4.23438-.875 4.23438-3.40625 0-.875-.29688-1.60938-.64063-1.95313l1.65625-.28125.42188-1.3125-.17188-.17187-2.67187.84375C7.5625-10.25 6.39063-10.5 5.42188-10.5c-3.20313 0-4.3125 1.95313-4.3125 3.51563 0 1.95312 1.29687 2.875 2.25 3.10937v.04688c-1.14063.45312-1.90625 1.04687-1.90625 1.875 0 .73437.84375 1.51562 1.84375 1.625v.03125C2.40625 0 .875.48438.875 2m2-.09375c0-.70312.20313-1.23437.64063-1.57812.46875-.34375 1.15625-.48438 2.15625-.48438C7.51563-.15625 8.875.3125 8.875 1.875c0 1.65625-1.51562 2.46875-3 2.46875-1.78125 0-3-.92187-3-2.4375m.375-8.89062c0-2.07813 1.0625-2.78125 2.17188-2.78125 1.03125 0 2.09375.75 2.09375 2.78125 0 1.75-.89063 2.67187-2.10938 2.67187-1.17187 0-2.15625-.92187-2.15625-2.67187m0 0"/><path id="L" d="M.73438 0h6.15625v-.59375C4.73438-.73437 4.6875-.75 4.6875-1.9375v-4.89062h2.92188c1.78125 0 1.875.48437 2.04687 1.82812h.625v-4.48437h-.625C9.48438-8.14062 9.39063-7.625 7.60938-7.625H4.6875V-13c0-.6875.07813-.75.76563-.75h2.0625c2.4375 0 2.92187.48438 3.20312 2.625h.625v-3.34375H.73438v.60938c1.84375.125 1.89062.15625 1.89062 1.32812V-1.9375C2.625-.75 2.57813-.73437.73438-.59375Zm0 0"/><path id="M" d="M1.03125-5.125C1.03125-1.73437 2.6875.25 6.04688.25s5.01562-1.98437 5.01562-5.375c0-3.375-1.65625-5.375-5.01562-5.375s-5.01563 2-5.01563 5.375m2.17188 0c0-2.89062.9375-4.64062 2.84375-4.64062 1.92187 0 2.85937 1.75 2.85937 4.64062 0 2.90625-.9375 4.64063-2.85937 4.64063-1.90625 0-2.84375-1.73438-2.84375-4.64063m0 0"/><path id="N" d="M1.90625-13.6875c0 .76563.54688 1.29688 1.29688 1.29688s1.26562-.53125 1.26562-1.29688c0-.75-.51562-1.26562-1.26562-1.26562s-1.29688.51562-1.29688 1.26562M.67188 0h5.09375v-.59375c-1.5-.125-1.5625-.15625-1.5625-1.23437V-10.375l-.15625-.125-3.26563.53125v.51563l.78125.10937c.53125.09375.6875.17188.6875.9375v6.57813C2.25-.75 2.1875-.71875.67188-.59375Zm0 0"/><path id="F" d="M1.46875-2.25c0 1.25.57813 2.5 2 2.5 2.25 0 4.1875-2.59375 5.40625-4.71875h.04688l-.71875 2.375c-.125.46875-.21875.875-.21875 1.20313C7.98438-.15626 8.34375.25 9.125.25c1.57813 0 2.75-1.42187 3.46875-3.01562l-.48437-.28125c-.39063.73437-1.3125 2.20312-1.89063 2.20312-.25 0-.34375-.15625-.34375-.40625 0-.20312.07813-.4375.14063-.73437l2.20312-8.34375h-1.76562l-.07813.26562c-.35937-.23437-.98437-.4375-1.54687-.4375-4.98438 0-7.35938 5.5-7.35938 8.25m2.0625-.04687c0-2.28125 2.04688-7.46875 5.34375-7.46875.51563 0 .95313.17187 1.26563.46875C9.76563-7.75 9.03125-5.67187 7.92188-4 6.73438-2.21875 5.45313-.84375 4.45313-.84375c-.6875 0-.92188-.625-.92188-1.45312m0 0"/><path id="K" d="M1.82813 0h.75l.64062-1.21875C3.60938-.35937 4.65625.25 5.85938.25c2.4375 0 4.21875-1.625 5.25-3.46875 1.04687-1.85937 1.375-3.70312 1.375-4.64062 0-1.54688-.67188-2.64063-2.23438-2.64063-1.57812 0-3.65625 1.4375-5.26562 4.3125H4.9375L7.25-15.42187l-.07812-.09375-3.75.5-.125.48437 1.17187.14063c.35938.04687.51563.10937.51563.42187 0 .15625-.01563.32813-.09375.59375Zm2.57812-2.26562c0-1 .4375-2.45313 1.10938-3.67188.9375-1.67187 2.51562-3.46875 3.8125-3.46875.76562 0 1.10937.53125 1.10937 1.73438 0 1.51562-1.25 7.1875-4.3125 7.1875-1.07812 0-1.71875-.73438-1.71875-1.78125m0 0"/><path id="O" d="M-.4375 3.84375c.01563.6875.92188 1.20313 1.90625 1.20313 2.09375 0 2.98438-1.6875 3.84375-5.6875L7.25-9.45312h2.65625l.1875-.79688H7.39063l.57812-2.35937c.39063-1.59375.79688-2.1875 1.375-2.1875.5625 0 .9375.46875 1.40625 1.46875.10938.20312.26563.35937.57813.35937.42187 0 1.01562-.375 1.01562-.92187 0-.89063-1.125-1.625-2.375-1.625-2.46875 0-3.5 1.75-4.29687 4.5l-.21875.76562H3.65625l-.25.79688h1.85938L2.84375 2.875C2.60938 4.15625 2.375 4.29688 2.1875 4.29688c-.23437 0-.5625-.15625-1.125-1.03125-.15625-.1875-.28125-.46875-.54687-.46875-.46875 0-.95313.51562-.95313 1.04687m0 0"/><clipPath id="i"><path d="M23 19h23v44.65234H23Zm0 0"/></clipPath><clipPath id="j"><path d="M.95313 19H46v44.65234H.95313Zm0 0"/></clipPath><clipPath id="a"><path d="M.69922.96875h9.9375v16.78516H.69922Zm0 0"/></clipPath><clipPath id="m"><path d="M50 .36719h14.23438V28H50Zm0 0"/></clipPath><clipPath id="n"><path d="M36 .36719h28.23438V28H36Zm0 0"/></clipPath><clipPath id="b"><path d="M.21484.6211h7.73828v13.0703H.21485Zm0 0"/></clipPath><clipPath id="q"><path d="M56 29h8.23438v17H56Zm0 0"/></clipPath><clipPath id="r"><path d="M47 29h17.23438v17H47Zm0 0"/></clipPath><clipPath id="d"><path d="M.03906.61719h4.0625v6.14844H.03906Zm0 0"/></clipPath><clipPath id="u"><path d="M23 19h23v44.65234H23Zm0 0"/></clipPath><clipPath id="v"><path d="M50 .36719h14.23438V28H50Zm0 0"/></clipPath><clipPath id="w"><path d="M56 29h8.23438v17H56Zm0 0"/></clipPath><clipPath id="f"><path d="M0 0h65v64H0z"/></clipPath><g id="l" clip-path="url(#a)"><path fill="#75CCF4" d="M10.63672 9.36328c0 4.63672-3.75781 8.39063-8.39063 8.39063-.52734 0-1.04687-.04688-1.54687-.14063 3.89844-.72656 6.84766-4.14453 6.84766-8.25s-2.94922-7.52344-6.84766-8.25c.5-.09375 1.01953-.14453 1.54687-.14453 4.63282 0 8.39063 3.75781 8.39063 8.39453"/></g><g id="p" clip-path="url(#b)"><path fill="#75CCF4" d="M7.95313 7.15625c0 3.60938-2.92579 6.53516-6.53516 6.53516a6.44 6.44 0 0 1-1.20313-.11328c3.03516-.5625 5.33203-3.22266 5.33203-6.42188S3.25 1.29688.21485.73047C.60547.65625 1.00781.62109 1.41797.62109c3.60937 0 6.53516 2.92579 6.53516 6.53516"/></g><g id="t" clip-path="url(#d)"><path fill="#75CCF4" d="M4.10156 3.6914c0 1.69923-1.375 3.07423-3.07422 3.07423-.34375 0-.67578-.0547-.98828-.16407C1.25391 6.19141 2.125 5.04296 2.125 3.69141c0-1.35157-.8711-2.5-2.08594-2.90625a2.984 2.984 0 0 1 .98828-.16797c1.69922 0 3.07422 1.3789 3.07422 3.07422"/></g><g id="P" clip-path="url(#f)"><g clip-path="url(#i)"><path fill="#99BAC6" d="M45.53906 38.78516v5.15625c0 .51172-.41406.92578-.92578.92578h-2.40234c-.1836 1-.44922 1.98437-.78907 2.9414l2.08204 1.19922c.21093.1211.36718.32422.42968.5625s.03125.49219-.08984.70313l-2.58203 4.46875c-.2539.4414-.82422.59375-1.26563.33984l-2.08203-1.20312c-.66015.76953-1.3789 1.48828-2.15234 2.14843l1.20312 2.08203c.125.21485.15625.46876.09375.70704-.0625.23437-.21875.4375-.43359.55859l-4.46875 2.58203c-.4414.2539-1.00781.10156-1.26562-.33984l-1.19922-2.07813c-.95704.33985-1.94141.60157-2.94141.78516v2.40234c0 .51172-.41406.92578-.92578.92578h-2.57813v-3.02343c9.4922-1.67188 16.6836-9.66407 16.6836-19.26563 0-9.60547-7.1914-17.59375-16.6836-19.26562v-3.02344h2.57813c.51172 0 .92578.41406.92578.92578v2.40234c1 .1836 1.98438.44532 2.9414.78516l1.19922-2.07812c.25782-.44532.82422-.59766 1.26563-.33985l4.46875 2.57813c.21484.12109.3711.32421.4336.5625.0625.23828.03124.49218-.09376.70312l-1.20312 2.08594c.77344.65625 1.49219 1.375 2.15234 2.14844l2.08203-1.20313c.44141-.25781 1.01172-.10156 1.26563.33985l2.58203 4.46874c.1211.21094.15234.46485.08984.70313-.0625.23438-.21875.4375-.42968.5625l-2.08203 1.19922c.33984.95703.60546 1.9375.78906 2.9375h2.40234c.51172 0 .92578.41797.92578.92969"/></g><path fill="#4C7889" d="M36.40234 41.36328c0 7.26563-5.89062 13.15625-13.15625 13.15625-.48046 0-.95312-.02734-1.42187-.07812 6.59766-.70703 11.73437-6.29297 11.73437-13.07813s-5.13672-12.3711-11.73437-13.07812c.46875-.05079.9414-.07813 1.42187-.07813 7.26563 0 13.15625 5.89063 13.15625 13.15625"/><g clip-path="url(#j)"><path fill="#B7D4E2" d="M23.2461 49.7539c-.52735 0-1.04688-.04687-1.54688-.14062-3.89453-.72656-6.84766-4.14453-6.84766-8.25s2.95313-7.52344 6.84766-8.25c.5-.09375 1.01953-.14453 1.54687-.14453 4.63282 0 8.39063 3.75781 8.39063 8.39453s-3.75781 8.39063-8.39063 8.39063m21.3672-11.89844h-2.40235c-.1836-.9961-.44922-1.98047-.78907-2.9375l2.08204-1.19922c.21093-.125.36718-.32812.42968-.5625.0625-.23828.03125-.49219-.08984-.70312l-2.58203-4.46876c-.2539-.4414-.82422-.59374-1.26563-.33984l-2.08203 1.20313c-.66015-.77344-1.3789-1.4922-2.15234-2.14844l1.20312-2.08594c.125-.21094.15625-.46484.09375-.70312-.0625-.23829-.21875-.44141-.43359-.5625l-4.46875-2.57813c-.4414-.25781-1.00781-.10547-1.26562.33985L29.6914 23.1875c-.95704-.33984-1.94141-.60156-2.94141-.78516V20c0-.51172-.41406-.92578-.92578-.92578h-5.16016c-.51172 0-.92578.41406-.92578.92578v2.40234c-1 .1836-1.98437.44532-2.9414.78516l-1.19922-2.07812c-.25391-.44532-.82032-.59376-1.26563-.33985l-4.46875 2.57813c-.21094.12109-.36719.32421-.42969.5625-.0664.23828-.03125.49218.09375.70312l1.19922 2.08594c-.76953.65625-1.48828 1.375-2.14843 2.14844l-2.08594-1.20313c-.4414-.2539-1.00781-.10156-1.26563.33985l-2.57812 4.46874c-.1211.21094-.15625.46485-.09375.70313.0664.23438.21875.4375.4336.5625l2.07812 1.19922c-.33985.95703-.60157 1.9414-.78516 2.9375H1.87891c-.51172 0-.92579.41797-.92579.92969v5.15625c0 .51172.41407.92578.92579.92578h2.40234c.1836 1 .44531 1.98437.78516 2.9414l-2.07813 1.19922c-.21484.1211-.36719.32422-.4336.5625-.0625.23828-.02734.49219.09376.70313l2.57812 4.46875c.25781.4414.82422.59375 1.26563.33984l2.08594-1.20312a19.92 19.92 0 0 0 2.14843 2.14843l-1.19922 2.08203c-.125.21485-.16015.46876-.09375.70704.0625.23437.21875.4375.4297.55859l4.46874 2.58203c.44531.2539 1.01172.10156 1.26563-.33984l1.19922-2.07813c.95703.33985 1.9414.60157 2.9414.78516v2.40234c0 .51172.41406.92578.92578.92578h5.16016c.51172 0 .92578-.41406.92578-.92578v-2.40234c1-.1836 1.98438-.44531 2.9414-.78516l1.19922 2.07813c.25782.4414.82422.59375 1.26563.33984L36.625 59.375c.21484-.1211.3711-.32422.4336-.5586.0625-.23828.03124-.49218-.09376-.70703l-1.20312-2.08203c.77344-.66015 1.49219-1.3789 2.15234-2.14843l2.08203 1.20312c.44141.2539 1.01172.10156 1.26563-.33984l2.58203-4.46875c.1211-.21094.15234-.46485.08984-.70313s-.21875-.4414-.42968-.5625l-2.08203-1.19922c.33984-.95703.60546-1.9414.78906-2.9414h2.40234c.51172 0 .92578-.41407.92578-.92578v-5.15625c0-.51172-.41406-.9297-.92578-.9297"/></g><g mask="url(#k)"><use xlink:href="#l" transform="translate(21 32)"/></g><g clip-path="url(#m)"><path fill="#4C7889" d="M64.23438 11.1289v6.0547c0 .51171-.41407.92968-.92579.92968h-1.71093c-.13672.38281-.29688.76172-.47266 1.13281l1.21094 1.20313c.17187.17578.26953.41015.26953.65625s-.09766.48437-.26953.65625l-4.29297 4.28515c-.36328.35938-.94922.35938-1.3125 0l-1.21094-1.20703q-.55665.26368-1.13672.46875v1.70704c0 .51171-.41797.92578-.92968.92578h-3.03516v-2.1172c5.53125-.65234 9.82812-5.6289 9.82812-11.66796 0-6.04297-4.29687-11.01953-9.82812-11.67187V.36718h3.03516c.51171 0 .92968.41798.92968.9297V3c.38672.14063.76563.29688 1.13672.47266l1.21094-1.20703c.36328-.36329.94922-.36329 1.3125 0l4.29297 4.28125c.17187.17578.26953.41015.26953.65625s-.09766.48437-.26953.65625L61.125 9.0664c.17578.37109.33594.75.47266 1.1328h1.71093c.51172 0 .92578.41407.92578.9297"/></g><g clip-path="url(#n)"><path fill="#668FA3" d="M50.41797 20.6914a6.44 6.44 0 0 1-1.20313-.11328c-3.03515-.5625-5.33203-3.22265-5.33203-6.42187s2.29688-5.85937 5.33203-6.42578c.39063-.07422.79297-.10938 1.20313-.10938 3.60937 0 6.53516 2.92579 6.53516 6.53516s-2.92579 6.53516-6.53516 6.53516m12.89062-10.4922h-1.71093c-.13672-.3828-.29688-.76171-.47266-1.1328l1.21094-1.20703c.17187-.17188.26953-.41016.26953-.65625 0-.2461-.09766-.48047-.26953-.65625l-4.29297-4.28125c-.36328-.36329-.94922-.36329-1.3125 0l-1.21094 1.20703c-.3711-.17578-.75-.33203-1.13672-.47266V1.29688c0-.51172-.41797-.9297-.92968-.9297H47.3828c-.51172 0-.92578.41798-.92578.9297V3c-.38672.14063-.76953.29688-1.14062.47266l-1.21094-1.20703c-.35938-.36329-.94531-.36329-1.3086 0L38.5039 6.54688c-.17578.17578-.27344.41015-.27344.65625s.09766.48437.27344.65625l1.20703 1.20703c-.17578.37109-.33203.75-.46875 1.1328h-1.71094c-.51172 0-.92969.41407-.92969.9297v6.05468c0 .51172.41797.9297.92969.9297h1.71094c.13672.3828.29297.76171.46875 1.1328l-1.20703 1.20313c-.17578.17578-.27344.41015-.27344.65625s.09766.48437.27344.65625l4.29297 4.28515c.36328.35938.94921.35938 1.30859 0l1.21094-1.20703c.37109.17579.7539.33204 1.14062.46875v1.70704c0 .51171.41406.92578.92578.92578h6.07032c.51171 0 .92968-.41407.92968-.92579V25.3086a11.99 11.99 0 0 0 1.13672-.46875l1.21094 1.20704c.36328.35937.94922.35937 1.3125 0l4.29297-4.28516c.17187-.17188.26953-.41016.26953-.65625 0-.2461-.09766-.48047-.26953-.65625L61.125 19.24609c.17578-.37109.33594-.75.47266-1.1328h1.71093c.51172 0 .92578-.41798.92578-.9297v-6.05468c0-.51563-.41406-.9297-.92578-.9297"/></g><g mask="url(#o)"><use xlink:href="#p" transform="translate(49 7)"/></g><g clip-path="url(#q)"><path fill="#4C7889" d="M64.23438 37.69531c0 .51172-.41407.92578-.92579.92578h-.7578c-.15626 1.10157-.58595 2.14063-1.25391 3.02735l.53515.53515c.35938.36328.35938.94922 0 1.3125-.1836.1797-.41797.26953-.65625.26953s-.47266-.08984-.65625-.26953l-.53516-.53515c-.89062.66797-1.92578 1.09765-3.02734 1.2539v.75391c0 .51172-.41406.92969-.92578.92969v-1.84375c2.75-.80078 4.76172-3.34375 4.76172-6.35547s-2.01172-5.55469-4.76563-6.35547v-1.85547c.51172 0 .9297.41406.9297.92578v.75782c1.10155.15624 2.13671.58203 3.02734 1.2539l.53515-.53516c.35938-.35937.94922-.35937 1.3086 0 .36328.36329.36328.94922 0 1.3125l-.53126.53516c.66797.89063 1.09766 1.92578 1.25391 3.02734h.7539c.51173 0 .9297.41797.9297.9297"/></g><g clip-path="url(#r)"><path fill="#668FA3" d="M56.02734 40.76563c-.34375 0-.67578-.0547-.98828-.16407-1.21093-.41015-2.08203-1.5586-2.08203-2.91015 0-1.35157.8711-2.5 2.08203-2.90625a2.984 2.984 0 0 1 .98828-.16797c1.69922 0 3.07422 1.3789 3.07422 3.07422 0 1.69922-1.375 3.07422-3.07422 3.07422m7.27735-4h-.7539c-.15626-1.10157-.58595-2.13672-1.25391-3.02735l.53124-.53516c.36329-.36328.36329-.94921 0-1.3125-.35937-.35937-.94921-.35937-1.30859 0l-.53516.53516c-.89062-.67187-1.92578-1.09766-3.02734-1.2539v-.75782c0-.51172-.41797-.92578-.92969-.92578s-.92578.41406-.92578.92578v.75782c-1.10156.15624-2.14062.58203-3.02734 1.2539l-.53516-.53516c-.36328-.36328-.94922-.36328-1.3125 0-.36328.36329-.36328.94922 0 1.3125l.53516.53516c-.66797.88672-1.09766 1.92188-1.2539 3.02734h-.75391c-.51563 0-.9297.41407-.9297.92579s.41798.92578.9297.92578h.7539c.15625 1.10547.58594 2.14062 1.25782 3.03125l-.53907.53515c-.35937.36328-.35937.94922.0039 1.3086.1797.1836.41798.27343.65235.27343.23828 0 .47657-.08984.65625-.27343l.53516-.53516c.89062.67188 1.92578 1.10156 3.02734 1.25781v.75391c0 .51172.41797.92969.92969.92969s.92578-.41797.92578-.92969v-.7539c1.10156-.15626 2.13672-.58594 3.02734-1.25391l.53516.53515c.1836.1797.41797.26953.65625.26953s.47266-.08984.65625-.26953c.35938-.36328.35938-.94922 0-1.3125l-.53516-.53515c.66797-.88672 1.09766-1.92578 1.25391-3.02735h.75781c.51172 0 .92578-.41406.92578-.92578s-.41796-.92968-.92968-.92968"/></g><g mask="url(#s)"><use xlink:href="#t" transform="translate(55 34)"/></g><path fill="#668FA3" d="M23.2461 49.7539c-.52735 0-1.04688-.04687-1.54688-.14062-3.89453-.72656-6.84766-4.14453-6.84766-8.25s2.95313-7.52344 6.84766-8.25c.5-.09375 1.01953-.14453 1.54687-.14453 4.63282 0 8.39063 3.75781 8.39063 8.39453s-3.75781 8.39063-8.39063 8.39063m0-21.54688c-.48046 0-.95312.02735-1.42187.07813-6.59766.70703-11.73438 6.29296-11.73438 13.07812s5.13672 12.3711 11.73438 13.07813c.46875.05078.9414.07812 1.42187.07812 7.26563 0 13.15625-5.89062 13.15625-13.15625S30.51172 28.20703 23.2461 28.20703"/><g clip-path="url(#u)"><path fill="#99BAC6" d="M45.53906 38.78516v5.15625c0 .51172-.41406.92578-.92578.92578h-2.40234c-.1836 1-.44922 1.98437-.78907 2.9414l2.08204 1.19922c.21093.1211.36718.32422.42968.5625s.03125.49219-.08984.70313l-2.58203 4.46875c-.2539.4414-.82422.59375-1.26563.33984l-2.08203-1.20312c-.66015.76953-1.3789 1.48828-2.15234 2.14843l1.20312 2.08203c.125.21485.15625.46876.09375.70704-.0625.23437-.21875.4375-.43359.55859l-4.46875 2.58203c-.4414.2539-1.00781.10156-1.26562-.33984l-1.19922-2.07813c-.95704.33985-1.94141.60157-2.94141.78516v2.40234c0 .51172-.41406.92578-.92578.92578h-2.57813v-3.02343c9.4922-1.67188 16.6836-9.66407 16.6836-19.26563 0-9.60547-7.1914-17.59375-16.6836-19.26562v-3.02344h2.57813c.51172 0 .92578.41406.92578.92578v2.40234c1 .1836 1.98438.44532 2.9414.78516l1.19922-2.07812c.25782-.44532.82422-.59766 1.26563-.33985l4.46875 2.57813c.21484.12109.3711.32421.4336.5625.0625.23828.03124.49218-.09376.70312l-1.20312 2.08594c.77344.65625 1.49219 1.375 2.15234 2.14844l2.08203-1.20313c.44141-.25781 1.01172-.10156 1.26563.33985l2.58203 4.46874c.1211.21094.15234.46485.08984.70313-.0625.23438-.21875.4375-.42968.5625l-2.08203 1.19922c.33984.95703.60546 1.9375.78906 2.9375h2.40234c.51172 0 .92578.41797.92578.92969"/></g><g clip-path="url(#v)"><path fill="#4C7889" d="M64.23438 11.1289v6.0547c0 .51171-.41407.92968-.92579.92968h-1.71093c-.13672.38281-.29688.76172-.47266 1.13281l1.21094 1.20313c.17187.17578.26953.41015.26953.65625s-.09766.48437-.26953.65625l-4.29297 4.28515c-.36328.35938-.94922.35938-1.3125 0l-1.21094-1.20703q-.55665.26368-1.13672.46875v1.70704c0 .51171-.41797.92578-.92968.92578h-3.03516v-2.1172c5.53125-.65234 9.82812-5.6289 9.82812-11.66796 0-6.04297-4.29687-11.01953-9.82812-11.67187V.36718h3.03516c.51171 0 .92968.41798.92968.9297V3c.38672.14063.76563.29688 1.13672.47266l1.21094-1.20703c.36328-.36329.94922-.36329 1.3125 0l4.29297 4.28125c.17187.17578.26953.41015.26953.65625s-.09766.48437-.26953.65625L61.125 9.0664c.17578.37109.33594.75.47266 1.1328h1.71093c.51172 0 .92578.41407.92578.9297"/></g><g clip-path="url(#w)"><path fill="#4C7889" d="M64.23438 37.69531c0 .51172-.41407.92578-.92579.92578h-.7578c-.15626 1.10157-.58595 2.14063-1.25391 3.02735l.53515.53515c.35938.36328.35938.94922 0 1.3125-.1836.1797-.41797.26953-.65625.26953s-.47266-.08984-.65625-.26953l-.53516-.53515c-.89062.67187-1.92578 1.09765-3.02734 1.2539v.75782c0 .51172-.41406.92578-.92578.92578v-1.84375c2.75-.80078 4.76172-3.34375 4.76172-6.35547s-2.01172-5.55469-4.76563-6.35547v-1.85547c.51172 0 .9297.41406.9297.92578v.75782c1.10155.15624 2.13671.58593 3.02734 1.2539l.53515-.53516c.35938-.35937.94922-.35937 1.3086 0 .36328.36329.36328.94922 0 1.3125l-.53126.53516c.66797.89063 1.09766 1.92578 1.25391 3.02734h.7539c.51173 0 .9297.41797.9297.9297"/></g></g><mask id="k"><g filter="url(#x)"><path fill-opacity=".5" d="M-344.82398-84.1666h705.75696v184.3632h-705.75696z"/></g></mask><mask id="o"><g filter="url(#x)"><path fill-opacity=".5" d="M-344.82398-84.1666h705.75696v184.3632h-705.75696z"/></g></mask><mask id="s"><g filter="url(#x)"><path fill-opacity=".5" d="M-344.82398-84.1666h705.75696v184.3632h-705.75696z"/></g></mask><filter id="x" width="100%" height="100%" x="0%" y="0%"><feColorMatrix color-interpolation-filters="sRGB" values="0 0 0 0 1 0 0 0 0 1 0 0 0 0 1 0 0 0 1 0"/></filter></defs><g fill="#FF7F00"><use xlink:href="#y" x="8.81533" y="49.79275"/><use xlink:href="#z" x="22.07477" y="49.79275"/><use xlink:href="#A" x="35.0005" y="49.79275"/><use xlink:href="#B" x="42.18641" y="49.79275"/><use xlink:href="#C" x="52.9319" y="49.79275"/><use xlink:href="#B" x="63.29918" y="49.79275"/><use xlink:href="#D" x="74.04467" y="49.79275"/><use xlink:href="#E" x="86.5477" y="49.79275"/><use xlink:href="#z" x="97.29318" y="49.79275"/><use xlink:href="#A" x="110.21892" y="49.79275"/></g><use xlink:href="#F" x="122.09955" y="49.79275" fill="#FF7F00"/><use xlink:href="#G" x="404.05585" y="47.38996" fill="#007F7F"/><g fill="#007F7F"><use xlink:href="#H" x="410.97479" y="47.38996"/><use xlink:href="#I" x="430.26327" y="47.38996"/><use xlink:href="#J" x="441.18674" y="47.38996"/><use xlink:href="#E" x="452.04346" y="47.38996"/></g><use xlink:href="#K" x="467.48206" y="47.38996" fill="#007F7F"/><path fill="none" stroke="#000" stroke-miterlimit="10" stroke-width=".3955" d="M158.82032 42.16406H375.8243"/><path stroke="#000" stroke-miterlimit="10" stroke-width=".3955" d="M379.63281 42.16406c-.46484-.1289-2.52343-.83984-3.8086-1.61328v3.22656c1.28517-.77734 3.34376-1.48828 3.8086-1.61328Zm0 0"/><use xlink:href="#L" x="218.59397" y="22.92134"/><use xlink:href="#M" x="229.96239" y="22.92134"/><use xlink:href="#z" x="242.02047" y="22.92134"/><use xlink:href="#C" x="254.9462" y="22.92134"/><use xlink:href="#A" x="265.31349" y="22.92134"/><use xlink:href="#N" x="272.49939" y="22.92134"/><use xlink:href="#M" x="278.57293" y="22.92134"/><use xlink:href="#z" x="290.63101" y="22.92134"/><use xlink:href="#O" x="308.24996" y="22.92134"/><use xlink:href="#P" transform="translate(237 56)"/></svg>