<svg xmlns="http://www.w3.org/2000/svg" xmlns:xlink="http://www.w3.org/1999/xlink" width="177.962pt" height="177.962pt" viewBox="0 0 177.962 177.962"><defs><path id="b" d="M.4375-3.51562C.4375-1.40625 1.04688.125 2.79688.125c1.73437 0 2.35937-1.53125 2.35937-3.64062s-.625-3.64063-2.35937-3.64063c-1.75 0-2.35938 1.53125-2.35938 3.64063m1.0625 0c0-1.71875.29688-3.26563 1.29688-3.26563.98437 0 1.28125 1.54688 1.28125 3.26563S3.78125-.25 2.79688-.25C1.79688-.25 1.5-1.79687 1.5-3.51562m0 0"/><path id="c" d="M.89063-2.67187H6.6875v-.60938H.89063Zm0 0"/><path id="d" d="M.28125-.09375.39063 0H4.75l.35938-1.39062-.29688-.04688c-.21875.5625-.4375.64063-.85937.64063h-2.6875c.17187-.54688.79687-1.29688 1.76562-2 1.01563-.75 1.79688-1.21875 1.79688-2.39063 0-1.46875-.96875-1.96875-2.07813-1.96875-1.45312 0-2.1875.875-2.1875 1.42188 0 .35937.40625.53125.57813.53125.1875 0 .26562-.125.29687-.29688.17188-.71875.59375-1.28125 1.23438-1.28125.8125 0 1.04687.67188 1.04687 1.4375 0 1.125-.57812 1.76563-1.48437 2.57813C.9375-1.64062.48438-.92187.28124-.09375m0 0"/><path id="e" d="M1.14063 0h3.46875v-.29687L3.71875-.375C3.5-.40625 3.375-.48437 3.375-.89062v-6.21875l-.0625-.04688-2.17187.375v.25l.98437.125c.1875.01563.25.09375.25.40625v5.10938c0 .40625-.09375.48437-.34375.51562l-.89062.07813Zm0 0"/><path id="h" d="m1.6875-1.26562.48438.48437 2.03125-2.04687L6.25-.78125l.46875-.48437L4.6875-3.29687l2.03125-2.04688L6.25-5.8125 4.20313-3.78125 2.17188-5.8125l-.48438.46875 2.04688 2.04688Zm0 0"/><path id="i" d="M.375-3.15625C.375-1.23437 1.48438.17188 3.8125.17188c2.0625 0 3.07813-1.0625 3.71875-2.21875.64063-1.14063.75-2.34375.75-2.79688 0-2.40625-1.45312-3.4375-3.39062-3.4375C3.03125-8.28125 1.875-7.25 1.1875-6.125.53125-5.04687.375-3.9375.375-3.15625m1.23438.46875c0-.98437.1875-2.07812.71875-3.21875C2.85938-7.01562 3.70313-7.875 4.9375-7.875c1.28125 0 2.10938.76563 2.10938 2.42188 0 .67187-.0625 1.625-.54688 2.875C6.01563-1.3125 5.21875-.23437 3.70313-.23437c-1.28125 0-2.09375-.82813-2.09375-2.45313m0 0"/><path id="j" d="M-.21875 0h2.64063l.0625-.34375-.64063-.0625c-.15625 0-.21875-.07812-.21875-.1875 0-.0625.03125-.15625.0625-.23437.39063-.75.76563-1.51563 1.20313-2.29688h2.625l.28125 2.42188s-.0625.28124-.3125.29687l-.60938.0625L4.8125 0h2.875l.07813-.34375L7.3125-.375c-.35937-.03125-.40625-.20312-.46875-.6875l-.85937-7.03125h-.84375L3.17188-4.64062c-.59375 1.04687-1.5625 2.78125-2 3.48437-.375.60938-.57813.73438-.9375.76563l-.39063.04687ZM3.125-3.57812l1.90625-3.4375.42188 3.4375Zm0 0"/><path id="k" d="M0 0h3.54688C6.375 0 6.95313-1.45312 6.95313-2.42187c0-1.23438-.90625-1.78125-1.76563-1.9375v-.03125C6.75-4.5625 7.40625-5.45312 7.40625-6.34375c0-.9375-.5625-1.75-2.71875-1.75H1.73438l-.07813.32813.70313.0625c.1875.01562.28125.10937.28125.29687 0 .07813-.03125.17188-.04688.28125L1.20313-.96875c-.07813.39063-.1875.51563-.48438.5625l-.65625.0625Zm2.34375-.89062c0-.09376.01563-.1875.03125-.26563l.67188-3h.46875c1.15625 0 2.17187.32813 2.17187 1.67188 0 1.04687-.625 2.07812-2.20312 2.07812-.92188 0-1.14063-.1875-1.14063-.48437m.79688-3.67188L3.75-7.28125c.07813-.35937.14063-.42187.9375-.42187.98438 0 1.53125.5 1.53125 1.32812 0 1.21875-1.03125 1.8125-2.32812 1.8125Zm0 0"/><path id="l" d="M.60938-3.21875c0 1.54688.76562 3.39063 3.65625 3.39063.84375 0 1.64062-.10938 2.39062-.48438l.5625-1.85937H6.875c-.65625 1.15625-1.23437 1.9375-2.67187 1.9375-1.35938 0-2.32813-.875-2.32813-2.67188 0-1.0625.26563-2.35937.82813-3.29687.57812-.98438 1.5-1.67188 2.76562-1.67188 1.48438 0 1.90625.6875 1.90625 1.96875h.35938l.42187-1.75c-.67187-.42187-1.76562-.625-2.59375-.625-2.20312 0-3.46875 1.03125-4.15625 2.125C.76563-5.10937.60938-4.01562.60938-3.21875m0 0"/><path id="m" d="M0 0h3.59375C5.92188 0 7.28125-.84375 8.125-2.10937c.67188-1.01563.79688-2 .79688-2.70313 0-.9375-.34375-1.89062-1.01563-2.45312-.6875-.5625-1.73437-.82813-3.03125-.82813H1.73438l-.07813.32813.70313.0625c.1875 0 .26562.10937.26562.29687 0 .07813-.01562.17188-.03125.28125L1.20313-.96875c-.09376.39063-.1875.53125-.48438.5625l-.65625.0625Zm2.3125-.85937c0-.04688 0-.09376.01563-.15626l1.40625-6.25c.09375-.39062.26562-.4375 1.28125-.4375C7.45313-7.64062 7.65625-6 7.65625-5.0625c0 1-.23437 1.95313-.75 2.82813-.6875 1.09375-1.67187 1.82812-3.625 1.82812-.5625 0-.96875-.07812-.96875-.45312m0 0"/><path id="n" d="M.125 0h6.09375l.60938-2.0625h-.35938C5.875-.60937 5.35938-.40625 3.90625-.40625c-1.375 0-1.45312-.17187-1.45312-.48437 0-.125.03125-.3125.09375-.54688L3.14063-4h1.53125c.875 0 1.03125.17188 1.03125.6875 0 .09375 0 .20313-.01563.32813h.35938l.54687-2.4375h-.375c-.29687.79687-.42187.98437-1.45312.98437H3.23438l.65625-2.90625c.0625-.29687.14062-.35937.34375-.35937h1.40625c1.14062 0 1.39062.3125 1.39062.9375 0 .29687-.04687.60937-.04687.60937h.34375l.4375-1.9375H1.85938l-.09376.32813.71876.0625q.28125 0 .28125.28125c0 .07812-.01563.15625-.03125.28125L1.32813-.96875c-.09376.39063-.1875.53125-.48438.5625l-.65625.0625Zm0 0"/><path id="o" d="M.125 0h3.40625l.0625-.34375-.875-.0625c-.21875 0-.29687-.10937-.29687-.28125 0-.07812 0-.14062.03125-.25l.64062-2.89062h1.5625c.85938 0 1.01563.17187 1.01563.67187v.32813h.34375l.54687-2.45313h-.34375c-.29687.82813-.4375 1.01563-1.46875 1.01563H3.20313l.6875-3.0625c.07812-.3125.14062-.375.35937-.375h1.42188c1.15625 0 1.375.3125 1.375.92187 0 .3125-.03125.60938-.03125.60938H7.375l.4375-1.92188H1.85938l-.07813.32813.70313.0625c.1875.01562.28125.125.28125.3125 0 .0625-.01563.14062-.03125.23437L1.32813-.9375c-.07813.35938-.1875.51563-.48438.53125l-.65625.0625Zm0 0"/><clipPath id="a"><path d="M0 0h177.92578v177.92578H0Zm0 0"/></clipPath><clipPath id="f"><path d="M160 76h17.92578v26H160Zm0 0"/></clipPath><clipPath id="g"><path d="M88 6h2v171.92578h-2Zm0 0"/></clipPath></defs><g clip-path="url(#a)"><path fill="none" stroke="#000" stroke-miterlimit="10" stroke-opacity=".5" stroke-width=".39842" d="M.3984 159.81253h177.12899m-177.129-35.4258h177.129M.39839 88.96094h177.129M.39839 53.53515h177.129M.39839 18.10934h177.129M18.10934 177.5274V.39839m35.4258 177.129V.39839m35.4258 177.129V.39839m35.4258 177.129V.39839m35.4258 177.129V.39839"/></g><path fill="none" stroke="#000" stroke-miterlimit="10" stroke-opacity=".5" stroke-width=".39842" d="M88.96094 80.10546v17.71486"/><use xlink:href="#b" x="73.77325" y="104.8796" fill-opacity=".5"/><path fill="none" stroke="#000" stroke-miterlimit="10" stroke-opacity=".5" stroke-width=".39842" d="M18.10934 80.10546v17.71486"/><g fill-opacity=".5"><use xlink:href="#c" x="11.53354" y="101.39835"/><use xlink:href="#d" x="19.10851" y="101.39835"/></g><path fill="none" stroke="#000" stroke-miterlimit="10" stroke-opacity=".5" stroke-width=".39842" d="M53.53514 80.10546v17.71486"/><g fill-opacity=".5"><use xlink:href="#c" x="46.95897" y="101.39835"/><use xlink:href="#e" x="54.53395" y="101.39835"/></g><path fill="none" stroke="#000" stroke-miterlimit="10" stroke-opacity=".5" stroke-width=".39842" d="M124.38674 80.10546v17.71486"/><use xlink:href="#e" x="121.59704" y="101.39835" fill-opacity=".5"/><path fill="none" stroke="#000" stroke-miterlimit="10" stroke-opacity=".5" stroke-width=".39842" d="M159.81253 80.10546v17.71486"/><use xlink:href="#d" x="157.02247" y="101.39835" fill-opacity=".5"/><path fill="none" stroke="#000" stroke-miterlimit="10" stroke-width=".79684" d="M.3984 88.96094h170.9532"/><path d="M175.51563 88.96094c-.51172-.10547-2.75782-.70703-4.16407-1.36328v2.72656c1.40625-.65234 3.65235-1.25781 4.16406-1.36328m0 0"/><g clip-path="url(#f)"><path fill="none" stroke="#000" stroke-miterlimit="10" stroke-width=".79684" d="M175.51563 88.96094c-.51172-.10547-2.75782-.70703-4.16407-1.36328v2.72656c1.40625-.65234 3.65235-1.25781 4.16407-1.36328Zm0 0"/></g><path fill="none" stroke="#000" stroke-miterlimit="10" stroke-opacity=".5" stroke-width=".39842" d="M97.82032 159.81253H80.10546"/><g fill-opacity=".5"><use xlink:href="#c" x="69.98506" y="163.39311"/><use xlink:href="#d" x="77.56003" y="163.39311"/></g><path fill="none" stroke="#000" stroke-miterlimit="10" stroke-opacity=".5" stroke-width=".39842" d="M97.82032 124.38674H80.10546"/><g fill-opacity=".5"><use xlink:href="#c" x="69.98506" y="127.96767"/><use xlink:href="#e" x="77.56003" y="127.96767"/></g><path fill="none" stroke="#000" stroke-miterlimit="10" stroke-opacity=".5" stroke-width=".39842" d="M97.82032 53.53514H80.10546"/><use xlink:href="#e" x="73.77325" y="57.1168" fill-opacity=".5"/><path fill="none" stroke="#000" stroke-miterlimit="10" stroke-opacity=".5" stroke-width=".39842" d="M97.82032 18.10934H80.10546"/><use xlink:href="#d" x="73.77325" y="21.69137" fill-opacity=".5"/><g clip-path="url(#g)"><path fill="none" stroke="#000" stroke-miterlimit="10" stroke-width=".79684" d="M88.96094 177.52739V6.57418"/></g><path stroke="#000" stroke-miterlimit="10" stroke-width=".79684" d="M88.96094 2.41015c-.10547.51172-.70703 2.75782-1.36328 4.16407h2.72656c-.65234-1.40625-1.25781-3.65235-1.36328-4.16407Zm0 0"/><use xlink:href="#h" x="84.7539" y="91.86938"/><use xlink:href="#i" x="93.36106" y="84.38898"/><use xlink:href="#h" x="120.17934" y="56.44395"/><use xlink:href="#j" x="128.7865" y="49.13751"/><use xlink:href="#h" x="120.17934" y="162.72026"/><use xlink:href="#k" x="128.7865" y="172.30521"/><use xlink:href="#h" x="31.61525" y="56.44395"/><use xlink:href="#l" x="23.53098" y="48.96355"/><use xlink:href="#h" x="49.32847" y="162.72026"/><use xlink:href="#m" x="39.97446" y="172.30521"/><use xlink:href="#h" x="155.60477" y="162.72026"/><use xlink:href="#n" x="164.21194" y="172.30521"/><use xlink:href="#h" x="49.32847" y="91.86938"/><use xlink:href="#o" x="41.2312" y="84.56294"/></svg>