<svg xmlns="http://www.w3.org/2000/svg" xmlns:xlink="http://www.w3.org/1999/xlink" width="447.253" height="387.537" viewBox="0 0 447.253 387.537"><defs><path id="b" d="M1.60938-4.79687h10.42187v-1.10938H1.60938Zm0 0"/><path id="c" d="M.5-1.9375C.5-1.125 1.8125.21875 4.48438.21875c2.75 0 4.48437-1.39062 4.48437-3.79687 0-2.54688-2.1875-3.29688-3.23437-3.39063v-.07812c1.03125-.15625 2.67187-.92188 2.67187-2.79688 0-2.09375-1.64062-3.03125-3.67187-3.03125C2.23438-12.875 1-11.42187 1-10.60937c0 .57812.67188.90625.9375.90625.23438 0 .375-.14063.45313-.39063.42187-1.28125 1.14062-2.10937 2.20312-2.10937 1.48438 0 1.875 1.3125 1.875 2.375 0 1.125-.40625 2.5625-2.01562 2.5625-.90625 0-1.4375-.1875-1.65625-.1875-.23438 0-.34375.1875-.34375.53125 0 .3125.10937.51562.34375.51562.21875 0 .75-.1875 1.65625-.1875 1.60937 0 2.51562 1.45313 2.51562 3.10938 0 2.25-1.10937 3.04687-2.45312 3.04687-1.25 0-2.07813-.9375-2.4375-2-.125-.35937-.3125-.54687-.5625-.54687C1.17188-2.98437.5-2.625.5-1.9375m0 0"/><path id="d" d="M.5-.1875.70313 0h7.84375l.64062-2.5-.53125-.09375C8.25-1.57812 7.875-1.4375 7.10938-1.4375H2.28125c.29688-.98437 1.42188-2.32812 3.17188-3.59375C7.26563-6.35937 8.6875-7.20312 8.6875-9.32812c0-2.64063-1.76562-3.54688-3.75-3.54688C2.34375-12.875 1-11.29687 1-10.3125c0 .64063.73438.95313 1.04688.95313.34375 0 .46875-.20313.54687-.53125.3125-1.28125 1.04688-2.3125 2.21875-2.3125 1.45313 0 1.875 1.20312 1.875 2.59375 0 2.03125-1.03125 3.1875-2.67187 4.64062C1.67188-2.9375.85938-1.65625.5-.1875m0 0"/><path id="e" d="M2.04688 0h6.23437v-.54687L6.6875-.6875c-.40625-.03125-.625-.17187-.625-.92187v-11.15625l-.09375-.10938-3.92187.67188v.46875l1.78125.21875c.32812.03125.4375.17187.4375.71875v9.1875c0 .75-.17188.89062-.625.92187l-1.59375.14063Zm0 0"/><path id="f" d="m.35938-3.78125.17187.39063h5.14063v1.9375c0 .64062-.1875.75-.65625.78125l-1.20313.125V0h4.98438v-.54687l-.84375-.09376c-.4375-.0625-.5625-.17187-.5625-.8125v-1.9375h1.9375v-.875h-1.9375v-8.375H6C4.23438-10.03124 2.09375-6.75.35938-3.78124m1.375-.48437c1.125-2.0625 2.5-4.25 3.9375-6.54688v6.54688Zm0 0"/><path id="g" d="M.76563-1.9375c0 .875 1.32812 2.15625 3.78125 2.15625 3.125 0 4.53125-1.89062 4.53125-4.28125 0-2.67187-1.64063-4.01562-3.90625-4.01562-1.04688 0-2.1875.46875-2.79688 1.01562l.42188-3.59375c.0625-.48437.1875-.54687.54687-.54687H8.0625l.45313-1.28125-.09375-.15625H2.09375l-.1875.17187-.375 6.32813L2-5.90625C2.78125-6.8125 3.54688-7.25 4.57813-7.25c1.20312 0 2.53125.89063 2.53125 3.39063 0 1.95312-.78125 3.42187-2.4375 3.42187-1.32813 0-2-.95312-2.375-2.04687-.09375-.28125-.28125-.45313-.54688-.45313-.375 0-.98437.375-.98437 1m0 0"/><path id="h" d="M.78125-6.32812c0 3.79687 1.10938 6.54687 4.23438 6.54687s4.25-2.75 4.25-6.54687c0-3.78125-1.125-6.54688-4.25-6.54688S.78125-10.10937.78125-6.32812m1.92188 0c0-3.07813.51562-5.875 2.3125-5.875 1.79687 0 2.3125 2.79687 2.3125 5.875S6.8125-.4375 5.01563-.4375c-1.79688 0-2.3125-2.8125-2.3125-5.89062m0 0"/><clipPath id="a"><path d="M0 .09375h446.50781V383H0Zm0 0"/></clipPath><clipPath id="i"><path d="M442 347h4.50781v8H442Zm0 0"/></clipPath><clipPath id="j"><path d="M222 .09375h2V383h-2Zm0 0"/></clipPath><clipPath id="k"><path d="M219 .09375h8V4h-8Zm0 0"/></clipPath></defs><g clip-path="url(#a)"><path fill="none" stroke="#000" stroke-miterlimit="10" stroke-opacity=".5" stroke-width=".39783" d="M.39444 350.6914h445.71893M.39444 287.0195h445.71893M.39444 223.3437h445.71893M.39444 159.6718h445.71893M.39444 95.99599h445.71893M.39444 32.32409h445.71893M32.2304 382.53126V.48423m63.6758 382.04703V.48423m63.6758 382.04703V.48423m63.6719 382.04703V.48423m63.67581 382.04703V.48423m63.6719 382.04703V.48423m63.67581 382.04703V.48423"/></g><path fill="none" stroke="#000" stroke-miterlimit="10" stroke-opacity=".5" stroke-width=".39783" d="M32.23039 334.77343v31.83595"/><g fill-opacity=".5"><use xlink:href="#b" x="20.41191" y="372.93526"/><use xlink:href="#c" x="34.02703" y="372.93526"/></g><path fill="none" stroke="#000" stroke-miterlimit="10" stroke-opacity=".5" stroke-width=".39783" d="M95.9062 334.77343v31.83595"/><g fill-opacity=".5"><use xlink:href="#b" x="84.08456" y="373.04607"/><use xlink:href="#d" x="97.69969" y="373.04607"/></g><path fill="none" stroke="#000" stroke-miterlimit="10" stroke-opacity=".5" stroke-width=".39783" d="M159.582 334.77343v31.83595"/><g fill-opacity=".5"><use xlink:href="#b" x="147.75822" y="373.04607"/><use xlink:href="#e" x="161.37334" y="373.04607"/></g><path fill="none" stroke="#000" stroke-miterlimit="10" stroke-opacity=".5" stroke-width=".39783" d="M286.92971 334.77343v31.83595"/><use xlink:href="#e" x="281.91215" y="373.04607" fill-opacity=".5"/><path fill="none" stroke="#000" stroke-miterlimit="10" stroke-opacity=".5" stroke-width=".39783" d="M350.60162 334.77343v31.83595"/><use xlink:href="#d" x="345.58481" y="373.04607" fill-opacity=".5"/><path fill="none" stroke="#000" stroke-miterlimit="10" stroke-opacity=".5" stroke-width=".39783" d="M414.27742 334.77343v31.83595"/><use xlink:href="#c" x="409.25846" y="372.93526" fill-opacity=".5"/><path fill="none" stroke="#000" stroke-miterlimit="10" stroke-opacity=".5" stroke-width=".39783" d="M239.17188 287.0195h-31.83595"/><use xlink:href="#e" x="195.95272" y="293.45401" fill-opacity=".5"/><path fill="none" stroke="#000" stroke-miterlimit="10" stroke-opacity=".5" stroke-width=".39783" d="M239.17188 223.3437h-31.83595"/><use xlink:href="#d" x="195.95272" y="229.78135" fill-opacity=".5"/><path fill="none" stroke="#000" stroke-miterlimit="10" stroke-opacity=".5" stroke-width=".39783" d="M239.17188 159.6718h-31.83595"/><use xlink:href="#c" x="195.95272" y="165.99688" fill-opacity=".5"/><path fill="none" stroke="#000" stroke-miterlimit="10" stroke-opacity=".5" stroke-width=".39783" d="M239.17188 95.99599h-31.83595"/><use xlink:href="#f" x="195.95272" y="102.32423" fill-opacity=".5"/><path fill="none" stroke="#000" stroke-miterlimit="10" stroke-opacity=".5" stroke-width=".39783" d="M239.17188 32.32409h-31.83595"/><use xlink:href="#g" x="195.95272" y="38.53976" fill-opacity=".5"/><path fill="none" stroke="#000" stroke-miterlimit="10" stroke-opacity=".5" stroke-width=".39783" d="M223.2539 334.77343v31.83595"/><use xlink:href="#h" x="195.95272" y="379.30262" fill-opacity=".5"/><path fill="none" stroke="#000" stroke-miterlimit="10" stroke-width=".79568" d="M.39444 350.6914H445.3165"/><g clip-path="url(#i)"><path fill="none" stroke="#000" stroke-linecap="round" stroke-linejoin="round" stroke-miterlimit="10" stroke-width=".79568" d="M443.16797 347.58594c.46484 1.86328 1.5039 2.74218 2.54687 3.10547-1.04297.36328-2.08203 1.24218-2.54687 3.10547"/></g><g clip-path="url(#j)"><path fill="none" stroke="#000" stroke-miterlimit="10" stroke-width=".79568" d="M223.2539 382.53126V1.28111"/></g><g clip-path="url(#k)"><path fill="none" stroke="#000" stroke-linecap="round" stroke-linejoin="round" stroke-miterlimit="10" stroke-width=".79568" d="M220.14844 3.42969c1.86328-.46485 2.74218-1.5 3.10547-2.54688.36328 1.04688 1.24218 2.08203 3.10547 2.54688"/></g></svg>