<svg xmlns="http://www.w3.org/2000/svg" xmlns:xlink="http://www.w3.org/1999/xlink" width="435.652pt" height="113.804pt" viewBox="0 0 435.652 113.804"><defs><path id="y" d="M-.53125 0h4.10938v-.53125l-.96875-.10937c-.5625-.0625-.64063-.25-.48438-.75C2.45313-2.5 2.82813-3.65625 3.26563-5h4.1875l1.26562 3.59375c.17188.53125.09375.73438-.5.79688l-.85937.07812V0h4.79687v-.53125c-1.09375-.10937-1.29687-.17187-1.64062-1.14062l-3.95313-11.25H5.17188L3.21875-7.40625c-.57812 1.64063-1.375 3.85938-2.03125 5.57813C.79688-.8125.64063-.59375-.53125-.53125Zm4.04688-5.70312c.60937-1.875 1.26562-3.70313 1.8125-5.35938h.0625l1.84375 5.35938Zm0 0"/><path id="z" d="M.59375 0h4.5625v-.53125C3.8125-.64062 3.76563-.67187 3.76563-1.625V-6c0-.48437.01562-.71875.17187-1.01562C4.34375-7.75 5.17188-8.375 6.17188-8.375c1.26562 0 1.96875.70313 1.96875 2.32813V-1.625c0 .95313-.0625.98438-1.42188 1.09375V0h4.57813v-.53125C9.96875-.64062 9.89063-.67187 9.89063-1.625v-4.78125c0-1.89062-1.04688-2.98437-2.75-2.98437-1.39063 0-2.25.67187-3.40625 1.4375l-.25-1.4375-2.78125.48437v.45313l.6875.09375c.48437.07812.625.17187.625.84375V-1.625c0 .95313-.0625.98438-1.42188 1.09375Zm0 0"/><path id="A" d="M.57813-8.40625h1.34375v6.5C1.92188 0 3.34375.21875 4 .21875c.95313 0 1.84375-.48437 2.39063-.8125L6.25-1c-.46875.1875-.85937.25-1.34375.25-.625 0-1.21875-.46875-1.21875-1.875v-5.78125h2.40625v-.76562H3.6875v-2.34375h-.54687l-1.125 2.34375H.57813Zm0 0"/><path id="B" d="m3.76563-10.5.26562.375 2.82813-1.57812c.5625-.29688 1.0625-.60938 1.0625-1 0-.39063-.46875-.82813-.73438-.82813-.32812 0-.64062.20313-1.20312.78125ZM.92188-4.51562c0 2.96875 1.26562 4.73437 4.3125 4.73437 2.0625 0 3.14062-1.15625 3.64062-2.625l-.5625-.29687C7.79688-1.60937 7.07813-.73437 5.60938-.73437c-2.32813 0-2.78125-2.23438-2.75-4.17188H8.25c.40625 0 .73438-.10937.73438-.71875 0-1.09375-.35938-3.76562-3.76563-3.76562-2.9375 0-4.29687 2.07812-4.29687 4.875M2.89063-5.625c0-.78125.26562-3.10937 2.21875-3.10937 1.73437 0 1.9375 1.76562 1.9375 2.51562 0 .34375-.125.59375-.64063.59375Zm0 0"/><path id="C" d="M.92188-4.5C.92188-1.375 2.45313.21875 5.25.21875c1.3125 0 3.07813-.67187 3.59375-2.6875l-.54687-.25C7.71875-1.40625 6.98438-.75 5.60938-.75c-2.23438 0-2.75-2.32812-2.75-4.07812 0-2.79688 1.09375-3.90625 2.39062-3.90625.85938 0 1.39063.625 1.76563 1.64062.125.29688.25.46875.60937.46875.375 0 1.09375-.23437 1.09375-.95312 0-.85938-1.23437-1.8125-3.26562-1.8125C2.04688-9.39062.92188-6.98437.92188-4.5m0 0"/><path id="D" d="M.92188-4.39062c0 2.76562 1.4375 4.60937 3.90625 4.60937 1.01562 0 1.875-.45312 2.89062-1.26562v.90625L7.875 0h3.03125v-.53125C9.5625-.64062 9.5-.67187 9.5-1.625v-12.14062l-.125-.09375-2.95312.45312v.48438l.71875.04687c.48437.0625.59375.17188.59375.875v3.0625c-.51563-.26562-1.20313-.45312-2.0625-.45312-1.53125 0-2.6875.5-3.46875 1.29687-.79688.82813-1.28125 2.0625-1.28125 3.70313m1.9375-.21875c0-2.4375.875-4.125 2.79687-4.125.875 0 1.57813.40625 1.92188 1.17187.15625.32813.15625.59375.15625 1.09375v3.28125c0 .42188 0 .73438-.10938 1.0625-.39062.96875-1.20312 1.34375-2.17187 1.34375-1.71875 0-2.59375-1.6875-2.59375-3.82812m0 0"/><path id="E" d="M.92188-4.51562c0 2.96875 1.26562 4.73437 4.3125 4.73437 2.0625 0 3.14062-1.15625 3.64062-2.625l-.5625-.29687C7.79688-1.60937 7.07813-.73437 5.60938-.73437c-2.32813 0-2.78125-2.23438-2.75-4.17188H8.25c.40625 0 .73438-.10937.73438-.71875 0-1.09375-.35938-3.76562-3.76563-3.76562-2.9375 0-4.29687 2.07812-4.29687 4.875M2.89063-5.625c0-.78125.26562-3.10937 2.21875-3.10937 1.73437 0 1.9375 1.76562 1.9375 2.51562 0 .34375-.125.59375-.64063.59375Zm0 0"/><path id="G" d="M.65625 0H5.875v-.53125c-1.64062-.125-1.67187-.14062-1.67187-1.20312v-9.46875c0-1.04688.03125-1.0625 1.67187-1.1875v-.53125H.65625v.53125c1.65625.125 1.6875.14062 1.6875 1.1875v9.46875c0 1.0625-.03125 1.07812-1.6875 1.20312Zm0 0"/><path id="H" d="M.59375 0h4.5625v-.53125C3.8125-.64062 3.76563-.67187 3.76563-1.625V-6c0-.48437 0-.75.14062-1C4.25-7.75 5.07813-8.375 6.10938-8.375c1.60937 0 1.8125 1.17188 1.8125 2.32813V-1.625c0 .95313-.0625.98438-1.42188 1.09375V0h4.5625v-.53125C9.71875-.64062 9.67188-.67187 9.67188-1.625V-6c0-.48437.01562-.71875.14062-1.01562.26563-.76563 1.0625-1.35938 2.125-1.35938 1.17188 0 1.89063.65625 1.89063 2.32813V-1.625c0 .95313-.0625.98438-1.42188 1.09375V0h4.57813v-.53125c-1.32813-.10937-1.40626-.14062-1.40626-1.09375v-4.78125c0-1.89062-1.01562-2.98437-2.78124-2.98437-1.53125 0-2.625 1.01562-3.29688 1.4375-.45312-.875-1.17187-1.4375-2.48437-1.4375-1.42188 0-2.59375.95312-3.25 1.4375l-.1875-1.4375-2.875.48437v.45313l.6875.09375c.48437.07812.625.17187.625.84375V-1.625c0 .95313-.0625.98438-1.42188 1.09375Zm0 0"/><path id="I" d="M.92188-2.42187c0 1.39062.92187 2.64062 2.67187 2.64062C4.6875.21875 5.78125-.5 6.39063-.89062c.25.6875.57812 1.10937 1.23437 1.10937.6875 0 1.48438-.20312 2.20313-.5625l-.125-.4375c-.25.0625-.67188.07813-.95313 0-.34375-.07812-.65625-.40625-.65625-1.57812v-4.54688c0-1.09375-.23437-2.48437-3.0625-2.48437-2.10937 0-3.78125 1.09375-3.78125 2.125 0 .60937.70313.875 1.0625.875.39063 0 .48438-.1875.59375-.51563.42188-1.39062 1.17188-1.82812 1.92188-1.82812.73437 0 1.57812.375 1.57812 1.875v.76562c-.48437.48438-2.28125.96875-3.76562 1.4375C1.29688-4.23437.92188-3.29687.92188-2.42187m1.875-.26563c0-.875.40625-1.32812 1.45312-1.73437.76563-.26563 1.73438-.625 2.15625-.89063v2.64063c0 1.51562-1.15625 1.89062-1.89062 1.89062-1.15625 0-1.71875-.8125-1.71875-1.90625m0 0"/><path id="J" d="M.78125 1.79688c0 1.89062 1.89063 2.71875 4.04688 2.71875 1.125 0 2.29687-.21875 3.1875-.75C8.875 3.23438 9.5 2.34375 9.5 1.1875c0-2.01562-1.60937-2.71875-3.60937-2.71875h-1.5c-1.34375 0-1.54688-.45312-1.54688-.8125 0-.54687.71875-.84375.95313-.92187.35937.04687.76562.0625.95312.0625 1.78125 0 3.78125-.78125 3.78125-3.04688 0-.76562-.25-1.42187-.57812-1.75l1.5-.23437.375-1.17188-.15625-.15625-2.39063.75c-.51562-.35937-1.57812-.57812-2.42187-.57812C1.98438-9.39062 1-7.64062 1-6.25 1-4.5 2.14063-3.6875 3-3.46875v.04688c-1.01562.40625-1.70312.9375-1.70312 1.67187 0 .65625.75 1.35938 1.64062 1.45313v.03125C2.14063 0 .78125.4375.78125 1.79688m1.78125-.09376c0-.625.1875-1.10937.57813-1.40624.42187-.3125 1.03125-.4375 1.9375-.4375 1.64062 0 2.85937.42187 2.85937 1.8125C7.9375 3.15625 6.57813 3.875 5.25 3.875c-1.59375 0-2.6875-.8125-2.6875-2.17187M2.90625-6.25c0-1.84375.95313-2.48437 1.95313-2.48437.90625 0 1.85937.67187 1.85937 2.48437 0 1.57813-.79687 2.39063-1.89062 2.39063-1.04688 0-1.92188-.8125-1.92188-2.39063m0 0"/><path id="L" d="M.65625 0h5.51563v-.53125c-1.9375-.125-1.96875-.14062-1.96875-1.20312v-4.375h2.59375c1.59375 0 1.67187.4375 1.82812 1.64062h.5625v-4H8.625c-.15625 1.1875-.23437 1.64063-1.82812 1.64063H4.20313v-4.78125c0-.625.04687-.6875.67187-.6875h1.84375c2.17188 0 2.60938.4375 2.875 2.35937h.54688v-2.98437H.65625v.53125c1.65625.125 1.6875.14062 1.6875 1.1875v9.46875c0 1.0625-.03125 1.07812-1.6875 1.20312Zm0 0"/><path id="M" d="M.92188-4.57812c0 3.03125 1.48437 4.79687 4.48437 4.79687s4.48438-1.76562 4.48438-4.79687c0-3.01563-1.48438-4.8125-4.48438-4.8125S.92188-7.59375.92188-4.57812m1.9375 0c0-2.57813.84375-4.15625 2.54687-4.15625 1.71875 0 2.54688 1.57812 2.54688 4.15625 0 2.59375-.82813 4.14062-2.54688 4.14062-1.70312 0-2.54687-1.54687-2.54687-4.14062m0 0"/><path id="N" d="M1.70313-12.23437c0 .67187.48437 1.15625 1.15625 1.15625.6875 0 1.14062-.48438 1.14062-1.15625 0-.67188-.45312-1.125-1.14062-1.125-.67188 0-1.15625.45312-1.15625 1.125M.59375 0h4.5625v-.53125C3.8125-.64062 3.76563-.67187 3.76563-1.625v-7.64062l-.14063-.125-2.92187.48437v.45313l.6875.09375c.48437.07812.625.17187.625.84375V-1.625c0 .95313-.0625.98438-1.42188 1.09375Zm0 0"/><path id="F" d="M1.3125-2.01562c0 1.125.51563 2.23437 1.79688 2.23437 2 0 3.73437-2.3125 4.82812-4.21875h.03125l-.625 2.125c-.125.42188-.20312.78125-.20312 1.07813 0 .65625.3125 1.01562 1.01562 1.01562 1.40625 0 2.46875-1.26562 3.10938-2.6875l-.4375-.25C10.48438-2.0625 9.64063-.75 9.125-.75c-.21875 0-.29687-.14062-.29687-.35937 0-.1875.0625-.40625.125-.65625l1.96875-7.46875H9.34375l-.07812.25c-.3125-.21875-.875-.40625-1.375-.40625-4.45313 0-6.57813 4.92187-6.57813 7.375m1.84375-.03125c0-2.04688 1.84375-6.6875 4.78125-6.6875.45313 0 .85938.15625 1.125.42187-.32812 1.39063-.98437 3.23438-1.98437 4.73438C6.03125-1.98437 4.875-.75 3.98438-.75c-.625 0-.82813-.5625-.82813-1.29687m0 0"/><path id="K" d="M1.625 0h.6875l.57813-1.09375C3.21875-.3125 4.15625.21875 5.23438.21875c2.1875 0 3.78125-1.45312 4.6875-3.10937.9375-1.64063 1.23437-3.29688 1.23437-4.125 0-1.39063-.59375-2.375-1.98437-2.375-1.42188 0-3.28125 1.29687-4.71875 3.85937h-.03125l2.0625-8.25-.07813-.07812-3.34375.4375-.125.4375L4-12.875c.3125.04688.45313.10938.45313.39063 0 .125-.01563.29687-.07813.53125Zm2.3125-2.03125c0-.89062.40625-2.1875 1-3.28125.82813-1.48437 2.25-3.09375 3.39063-3.09375.70312 0 1 .46875 1 1.54688 0 1.34375-1.10938 6.42187-3.85938 6.42187-.95312 0-1.53125-.65625-1.53125-1.59375m0 0"/><path id="O" d="M-.39062 3.4375c.01562.625.82812 1.07813 1.70312 1.07813C3.1875 4.51563 3.98438 3 4.75-.57812l1.73438-7.875h2.35937l.1875-.71875H6.60938l.51562-2.10938c.35938-1.40625.71875-1.95312 1.23438-1.95312.48437 0 .82812.42187 1.25 1.3125.09375.1875.23437.32812.51562.32812.375 0 .92188-.34375.92188-.8125 0-.79687-1.01563-1.45312-2.14063-1.45312-2.20312 0-3.125 1.54687-3.82812 4.01562l-.20313.67188H3.26563l-.21875.71875h1.67187L2.54688 2.5625c-.21875 1.15625-.42188 1.28125-.59375 1.28125-.20313 0-.5-.14062-1-.92187C.8125 2.75.70313 2.5.45313 2.5c-.40625 0-.84375.46875-.84375.9375m0 0"/><clipPath id="i"><path d="M20 17h21v39.98047H20Zm0 0"/></clipPath><clipPath id="j"><path d="M.69531 17H41v39.98047H.69531Zm0 0"/></clipPath><clipPath id="a"><path d="M.2461.54688h8.8867v15.0078H.2461Zm0 0"/></clipPath><clipPath id="m"><path d="M44 .39844h13.27734V26H44Zm0 0"/></clipPath><clipPath id="n"><path d="M32 .39844h25.27734V26H32Zm0 0"/></clipPath><clipPath id="b"><path d="M.84766.88281h6.92187v11.6836H.84766Zm0 0"/></clipPath><clipPath id="q"><path d="M49 26h8.27734v16H49Zm0 0"/></clipPath><clipPath id="r"><path d="M42 26h15.27734v16H42Zm0 0"/></clipPath><clipPath id="d"><path d="M.05469.01953H3.6875v5.4961H.05469Zm0 0"/></clipPath><clipPath id="u"><path d="M20 17h21v39.98047H20Zm0 0"/></clipPath><clipPath id="v"><path d="M44 .39844h13.27734V26H44Zm0 0"/></clipPath><clipPath id="w"><path d="M49 26h8.27734v16H49Zm0 0"/></clipPath><clipPath id="f"><path d="M0 0h58v57H0z"/></clipPath><g id="l" clip-path="url(#a)"><path fill="#75CCF4" d="M9.13281 8.05078c0 4.14453-3.35937 7.5039-7.5039 7.5039-.47266 0-.9336-.04687-1.38282-.1289 3.48438-.64844 6.125-3.70312 6.125-7.375S3.73047 1.32422.2461.67188c.44922-.08204.91016-.125 1.38282-.125 4.14453 0 7.5039 3.35937 7.5039 7.5039"/></g><g id="p" clip-path="url(#b)"><path fill="#75CCF4" d="M7.76953 6.72656c0 3.22657-2.61719 5.83985-5.84375 5.83985-.36719 0-.72656-.03125-1.07812-.09766 2.71484-.5039 4.76953-2.88281 4.76953-5.74219 0-2.86328-2.05469-5.24218-4.76953-5.7461.35156-.0664.71093-.09765 1.07812-.09765 3.22656 0 5.84375 2.61328 5.84375 5.84375"/></g><g id="t" clip-path="url(#d)"><path fill="#75CCF4" d="M3.6875 2.76953c0 1.51563-1.23047 2.7461-2.7461 2.7461-.30859 0-.60546-.05079-.88671-.14454 1.08594-.36718 1.86719-1.39453 1.86719-2.60156 0-1.21094-.78125-2.23437-1.8672-2.60156C.33595.0703.63282.01953.94142.01953c1.51562 0 2.74609 1.23047 2.74609 2.75"/></g><g id="P" clip-path="url(#f)"><g clip-path="url(#i)"><path fill="#99BAC6" d="M40.5625 34.74219v4.61328c0 .45703-.3711.82812-.82812.82812h-2.14844c-.16407.89453-.40235 1.77344-.70313 2.62891l1.85938 1.07422c.1914.10937.32812.28906.38672.5.05468.21484.02343.4414-.08594.6289l-2.30469 3.9961c-.23047.39453-.73437.53125-1.13281.30078l-1.86328-1.07422c-.58985.6914-1.23047 1.33203-1.92188 1.92578l1.07422 1.85938c.11328.1914.14063.41797.08594.6289-.0586.21094-.19922.39453-.38672.50391l-3.9961 2.30469c-.39453.23047-.90234.09375-1.1328-.30078l-1.07032-1.85938c-.85547.30469-1.73828.53906-2.6289.70313v2.14453c0 .46093-.3711.83203-.83204.83203h-2.30468v-2.70313c8.48828-1.49609 14.91796-8.64062 14.91796-17.22656S29.1172 21.32031 20.62892 19.82422v-2.70313h2.30468c.46094 0 .83204.3711.83204.82813v2.14844c.89062.16406 1.77343.39843 2.6289.70312l1.07031-1.85937c.23047-.39844.73829-.53516 1.13282-.3047l3.99609 2.3086c.1875.10938.32813.28907.38672.5.05469.21485.02734.4414-.08594.6289l-1.07422 1.86329c.6914.58984 1.33203 1.23438 1.92188 1.92188l1.86328-1.07422c.39844-.23047.90234-.09375 1.13281.30468l2.30469 3.9922c.10937.1914.14062.41796.08594.6289-.0586.21093-.19532.39453-.38672.5039l-1.85938 1.07032c.30078.85546.53907 1.73828.70313 2.6289h2.14843c.45704 0 .82813.3711.82813.82813"/></g><path fill="#4C7889" d="M32.39063 37.05078c0 6.4961-5.26563 11.76172-11.76172 11.76172-.4297 0-.85157-.02344-1.26954-.07031 5.89844-.63282 10.4922-5.625 10.4922-11.6914 0-6.06641-4.59376-11.0625-10.4922-11.69532.41797-.04297.83985-.0664 1.26954-.0664 6.49609 0 11.76171 5.26562 11.76171 11.76171"/><g clip-path="url(#j)"><path fill="#B7D4E2" d="M20.6289 44.55469c-.47265 0-.93359-.04688-1.3828-.1289-3.48438-.64845-6.1211-3.70313-6.1211-7.375s2.63672-6.72657 6.1211-7.37891c.44921-.08204.91015-.125 1.3828-.125 4.14454 0 7.50391 3.35937 7.50391 7.5039s-3.35937 7.5039-7.5039 7.5039m19.10546-10.64062h-2.14843c-.16407-.89062-.40235-1.76953-.70313-2.6289l1.85938-1.07032c.1914-.10937.32812-.29296.38672-.5039.05468-.21094.02343-.4375-.08594-.6289l-2.30469-3.9922c-.23047-.39843-.73437-.53515-1.13281-.30468l-1.86328 1.07421c-.58985-.6875-1.23047-1.33203-1.92188-1.92187l1.07422-1.86328c.11328-.1875.14063-.41406.08594-.6289-.0586-.21094-.19922-.39063-.38672-.5l-3.9961-2.3086c-.39453-.22656-.90234-.09375-1.1328.30469l-1.07032 1.85937c-.85547-.30469-1.73828-.53906-2.6289-.70312v-2.14844c0-.45703-.3711-.82813-.83204-.82813h-4.60937c-.45703 0-.83203.3711-.83203.82813v2.14844c-.89063.16406-1.77344.39843-2.6289.70312l-1.07032-1.85937c-.23047-.39844-.73438-.53125-1.13281-.3047l-3.9961 2.3086c-.1875.10938-.32812.28907-.38281.5-.0586.21485-.02734.4414.08203.6289L9.4375 23.9375c-.6914.58984-1.33203 1.23438-1.92187 1.92188l-1.86329-1.07422c-.39453-.23047-.90234-.09375-1.1328.30468l-2.3047 3.9922c-.10937.1914-.14062.41796-.08593.6289.05859.21093.19922.39453.39062.5039L4.375 31.28516c-.30078.85937-.53906 1.73828-.70312 2.6289H1.52344c-.45703 0-.82813.3711-.82813.82813v4.61328c0 .45703.3711.82812.82813.82812h2.14844c.16406.89453.40234 1.77344.70312 2.62891l-1.85547 1.07422c-.1914.10937-.33203.28906-.39062.5-.0547.21484-.02344.4414.08593.6289l2.3047 3.9961c.23046.39453.73827.53125 1.1328.30078l1.86329-1.07422c.58984.6914 1.23046 1.33203 1.92187 1.92578l-1.07422 1.85938c-.10937.1914-.14062.41797-.08203.6289.05469.21094.19531.39453.38281.50391l3.9961 2.30469c.39843.23047.90234.09375 1.1328-.30078l1.07032-1.85938c.85547.30469 1.73828.53906 2.6289.70313v2.14453c0 .46093.375.83203.83204.83203h4.60937c.46094 0 .83204-.3711.83204-.83203V54.0039c.89062-.16407 1.77343-.39844 2.6289-.70313l1.07031 1.85938c.23047.39453.73829.53125 1.13282.30078l3.99609-2.30469c.1875-.10937.32813-.29297.38672-.5039.05469-.21094.02734-.4375-.08594-.62891l-1.07422-1.85938c.6914-.59375 1.33203-1.23437 1.92188-1.92578l1.86328 1.07422c.39844.23047.90234.09375 1.13281-.30078l2.30469-3.9961c.10937-.1875.14062-.41406.08594-.6289-.0586-.21094-.19532-.39063-.38672-.5L36.8828 42.8125c.30078-.85547.53907-1.73437.70313-2.6289h2.14843c.45704 0 .82813-.3711.82813-.82813v-4.61328c0-.45703-.3711-.82813-.82812-.82813"/></g><g mask="url(#k)"><use xlink:href="#l" transform="translate(19 29)"/></g><g clip-path="url(#m)"><path fill="#4C7889" d="M57.27734 10.01563v5.41796c0 .45703-.37109.82813-.82812.82813h-1.53125c-.1211.34375-.26172.67969-.42188 1.01172l1.08203 1.07812c.15626.15625.2422.36719.2422.58594 0 .22266-.08595.4336-.2422.58984l-3.83984 3.82813c-.32422.32422-.84766.32422-1.16797 0l-1.08593-1.08203c-.33204.16015-.67188.30078-1.01563.42187v1.52735c0 .45703-.3711.82812-.82812.82812h-2.71485v-1.89453c4.9414-.58203 8.78516-5.03125 8.78516-10.4336 0-5.39843-3.84375-9.84765-8.78516-10.43359V.39844h2.71484c.45704 0 .82813.3711.82813.82812V2.75c.34375.125.6836.26563 1.01563.42188l1.08593-1.07813c.32032-.32422.84375-.32422 1.16797 0l3.83984 3.82813c.15626.15625.2422.36718.2422.58593 0 .22266-.08595.4336-.2422.58985L54.4961 8.17578c.16016.32813.30078.66797.42188 1.01172h1.53125c.45703 0 .82812.3711.82812.82813"/></g><g clip-path="url(#n)"><path fill="#668FA3" d="M44.92578 18.5664c-.36719 0-.72656-.03124-1.07812-.09765-2.71094-.5039-4.76563-2.88281-4.76563-5.74219 0-2.86328 2.05469-5.24218 4.76563-5.7461.35156-.0664.71093-.09765 1.07812-.09765 3.22656 0 5.84375 2.61328 5.84375 5.84375 0 3.22657-2.61719 5.83985-5.84375 5.83985M56.44922 9.1875h-1.53125c-.1211-.34375-.26172-.6836-.42188-1.01172l1.08203-1.07812c.15626-.15625.2422-.3672.2422-.58985 0-.21875-.08595-.42969-.2422-.58594l-3.83984-3.82812c-.32422-.32422-.84766-.32422-1.16797 0l-1.08593 1.07813c-.33204-.15625-.67188-.29688-1.01563-.42188V1.22656c0-.45703-.3711-.82812-.82812-.82812h-5.4297c-.45702 0-.82812.3711-.82812.82812V2.75q-.52148.1875-1.01953.42188l-1.08203-1.07813c-.32422-.32422-.84766-.32422-1.17187 0l-3.83985 3.82813c-.15234.15625-.24219.36718-.24219.58593 0 .22266.08985.4336.2422.58985l1.08202 1.07812c-.15625.32813-.29687.66797-.42187 1.01172h-1.52735c-.45703 0-.83203.3711-.83203.82813v5.41796c0 .45703.375.82813.83203.82813h1.52735c.125.34375.26562.67969.42187 1.01172l-1.08203 1.07812c-.15234.15625-.24219.36719-.24219.58594 0 .22266.08985.4336.2422.58984l3.83984 3.82813c.32421.32422.84765.32422 1.17187 0l1.08203-1.08203a9.65 9.65 0 0 0 1.01953.42187v1.52735c0 .45703.3711.82812.82813.82812h5.42968c.45704 0 .82813-.3711.82813-.82812V22.6953c.34375-.1211.6836-.26172 1.01563-.42187l1.08593 1.08203c.32032.32422.84375.32422 1.16797 0l3.83984-3.82813c.15626-.15625.2422-.36718.2422-.58984 0-.21875-.08595-.42969-.2422-.58594l-1.08203-1.07812c.16016-.33203.30078-.66797.42188-1.01172h1.53125c.45703 0 .82812-.3711.82812-.82813v-5.41797c0-.45703-.37109-.82812-.82812-.82812"/></g><g mask="url(#o)"><use xlink:href="#p" transform="translate(43 6)"/></g><g clip-path="url(#q)"><path fill="#4C7889" d="M57.27734 33.76953c0 .45703-.37109.82813-.82812.82813h-.67969c-.13672.98437-.51953 1.91406-1.1211 2.70703l.48048.48047c.32422.32422.32422.84765 0 1.17187-.16407.16016-.375.24219-.58594.24219s-.42578-.08203-.58594-.24219l-.48047-.48047c-.79297.60157-1.71875.98438-2.70703 1.1211v.67578c0 .46093-.3711.83203-.82812.83203v-1.64844c2.46093-.71875 4.26172-2.99219 4.2578-5.6836 0-2.6914-1.79687-4.96484-4.2578-5.68359V26.4336c.45703 0 .82812.3711.82812.82813v.67578c.98438.14063 1.91016.52344 2.70703 1.125l.47657-.48047c.32421-.32422.85156-.32422 1.17578 0 .3203.32422.3203.84766 0 1.17188l-.48047.48046c.60156.79297.98437 1.71876 1.1211 2.70704h.67577c.46094 0 .83203.37109.83203.82812"/></g><g clip-path="url(#r)"><path fill="#668FA3" d="M49.9414 36.51563c-.30859 0-.60546-.05079-.88671-.14454-1.08203-.36718-1.86328-1.39453-1.86328-2.60156 0-1.21094.78125-2.23437 1.86328-2.60156.28125-.09766.57812-.14844.88672-.14844 1.51562 0 2.74609 1.23047 2.74609 2.75 0 1.51563-1.23047 2.7461-2.7461 2.7461m6.50391-3.57422h-.67578c-.13672-.98828-.51953-1.91407-1.1211-2.70703l.48048-.48047c.3203-.32422.3203-.84766 0-1.17188-.32422-.32422-.85157-.32422-1.17578 0l-.47657.48047c-.79687-.60156-1.72265-.98437-2.70703-1.125v-.67578c0-.45703-.3711-.82813-.82812-.82813-.45703 0-.83203.3711-.83203.82813v.67578c-.98438.14063-1.91016.52344-2.70704 1.1211l-.47656-.47657c-.32422-.32422-.84766-.32422-1.17187 0-.32422.32422-.32422.84766 0 1.17188l.47656.47656c-.59766.79687-.98047 1.72265-1.1211 2.70703h-.67578c-.45703 0-.82812.3711-.82812.83203 0 .45703.3711.82813.82812.82813h.67578c.14063.98437.52344 1.91015 1.125 2.70703l-.48046.47656c-.32422.32422-.32422.84766 0 1.17188.16015.16406.375.24609.58593.24609.21094 0 .42578-.08203.58594-.2461l.48047-.47656c.79297.60157 1.71875.98438 2.70703 1.1211v.67578c0 .45703.3711.83203.82813.83203s.82812-.3711.82812-.83203v-.67578c.98828-.13672 1.91406-.51953 2.70703-1.1211l.48047.48047c.16016.16016.3711.24219.58594.24219.21094 0 .42187-.08203.58594-.24219.32422-.32422.32422-.84766 0-1.17187l-.48047-.48047c.60156-.79297.98437-1.72266 1.1211-2.70703h.67968c.45703 0 .82812-.3711.82812-.82813s-.37109-.82812-.83203-.82812"/></g><g mask="url(#s)"><use xlink:href="#t" transform="translate(49 31)"/></g><path fill="#668FA3" d="M20.6289 44.55469c-.47265 0-.93359-.04688-1.3828-.1289-3.48438-.64845-6.1211-3.70313-6.1211-7.375s2.63672-6.72657 6.1211-7.37891c.44921-.08204.91015-.125 1.3828-.125 4.14454 0 7.50391 3.35937 7.50391 7.5039s-3.35937 7.5039-7.5039 7.5039m0-19.26562c-.4297 0-.85157.02344-1.26954.0664-5.89843.63282-10.49218 5.62891-10.49218 11.69532 0 6.0664 4.59375 11.0586 10.49219 11.6914.41796.04688.83984.07032 1.26953.07032 6.49609 0 11.76171-5.26562 11.76171-11.76172S27.125 25.28906 20.62892 25.28906"/><g clip-path="url(#u)"><path fill="#99BAC6" d="M40.5625 34.74219v4.61328c0 .45703-.3711.82812-.82812.82812h-2.14844c-.16407.89453-.40235 1.77344-.70313 2.62891l1.85938 1.07422c.1914.10937.32812.28906.38672.5.05468.21484.02343.4414-.08594.6289l-2.30469 3.9961c-.23047.39453-.73437.53125-1.13281.30078l-1.86328-1.07422c-.58985.6914-1.23047 1.33203-1.92188 1.92578l1.07422 1.85938c.11328.1914.14063.41797.08594.6289-.0586.21094-.19922.39453-.38672.50391l-3.9961 2.30469c-.39453.23047-.90234.09375-1.1328-.30078l-1.07032-1.85938c-.85547.30469-1.73828.53906-2.6289.70313v2.14453c0 .46093-.3711.83203-.83204.83203h-2.30468v-2.70313c8.48828-1.49609 14.91796-8.64062 14.91796-17.22656S29.1172 21.32031 20.62892 19.82422v-2.70313h2.30468c.46094 0 .83204.3711.83204.82813v2.14844c.89062.16406 1.77343.39843 2.6289.70312l1.07031-1.85937c.23047-.39844.73829-.53516 1.13282-.3047l3.99609 2.3086c.1875.10938.32813.28907.38672.5.05469.21485.02734.4414-.08594.6289l-1.07422 1.86329c.6914.58984 1.33203 1.23438 1.92188 1.92188l1.86328-1.07422c.39844-.23047.90234-.09375 1.13281.30468l2.30469 3.9922c.10937.1914.14062.41796.08594.6289-.0586.21093-.19532.39453-.38672.5039l-1.85938 1.07032c.30078.85546.53907 1.73828.70313 2.6289h2.14843c.45704 0 .82813.3711.82813.82813"/></g><g clip-path="url(#v)"><path fill="#4C7889" d="M57.27734 10.01563v5.41796c0 .45703-.37109.82813-.82812.82813h-1.53125c-.1211.34375-.26172.67969-.42188 1.01172l1.08203 1.07812c.15626.15625.2422.36719.2422.58594 0 .22266-.08595.4336-.2422.58984l-3.83984 3.82813c-.32422.32422-.84766.32422-1.16797 0l-1.08593-1.07813c-.33204.15625-.67188.29688-1.01563.41797v1.52735c0 .45703-.3711.82812-.82812.82812h-2.71485v-1.89453c4.9414-.58203 8.78516-5.03125 8.78516-10.4336 0-5.39843-3.84375-9.84765-8.78516-10.43359V.39844h2.71484c.45704 0 .82813.3711.82813.82812v1.52735c.34375.12109.6836.26172 1.01563.41797l1.08593-1.07813c.32032-.32422.84375-.32422 1.16797 0l3.83984 3.82813c.15626.15625.2422.36718.2422.58593 0 .22266-.08595.4336-.2422.58985L54.4961 8.17578c.16016.32813.30078.66797.42188 1.01172h1.53125c.45703 0 .82812.3711.82812.82813"/></g><g clip-path="url(#w)"><path fill="#4C7889" d="M57.27734 33.76953c0 .45703-.37109.82813-.82812.82813h-.67969c-.13672.98828-.51953 1.91406-1.1211 2.70703l.48048.48047c.32422.32422.32422.84765 0 1.17187-.16407.16016-.375.24219-.58594.24219s-.42578-.08203-.58594-.24219l-.48047-.48047c-.79297.60157-1.71875.98438-2.70703 1.1211v.67968c0 .45703-.3711.82813-.82812.82813v-1.64844c2.46093-.71484 4.26172-2.98828 4.2578-5.6836 0-2.6914-1.79687-4.96484-4.2578-5.68359V26.4336c.45703 0 .82812.3711.82812.82813v.67578c.98438.14063 1.91016.52344 2.70703 1.125l.47657-.48047c.32421-.32422.85156-.32422 1.17578 0 .3203.32422.3203.84766 0 1.17188l-.48047.48046c.60156.79297.98437 1.71876 1.1211 2.70704h.67577c.46094 0 .83203.37109.83203.82812"/></g></g><mask id="k"><g filter="url(#x)"><path fill-opacity=".5" d="M-306.84344-75.03688h627.33888V88.84088h-627.33888z"/></g></mask><mask id="o"><g filter="url(#x)"><path fill-opacity=".5" d="M-306.84344-75.03688h627.33888V88.84088h-627.33888z"/></g></mask><mask id="s"><g filter="url(#x)"><path fill-opacity=".5" d="M-306.84344-75.03688h627.33888V88.84088h-627.33888z"/></g></mask><filter id="x" width="100%" height="100%" x="0%" y="0%"><feColorMatrix color-interpolation-filters="sRGB" values="0 0 0 0 1 0 0 0 0 1 0 0 0 0 1 0 0 0 1 0"/></filter></defs><g fill="#FF7F00"><use xlink:href="#y" x="6.83039" y="44.51833"/><use xlink:href="#z" x="18.68544" y="44.51833"/><use xlink:href="#A" x="30.24212" y="44.51833"/><use xlink:href="#B" x="36.66692" y="44.51833"/><use xlink:href="#C" x="46.27429" y="44.51833"/><use xlink:href="#B" x="55.5435" y="44.51833"/><use xlink:href="#D" x="65.15087" y="44.51833"/><use xlink:href="#E" x="76.32962" y="44.51833"/><use xlink:href="#z" x="85.93699" y="44.51833"/><use xlink:href="#A" x="97.49367" y="44.51833"/></g><use xlink:href="#F" x="108.11595" y="44.51833" fill="#FF7F00"/><use xlink:href="#G" x="360.20778" y="42.37003" fill="#007F7F"/><g fill="#007F7F"><use xlink:href="#H" x="366.39389" y="42.37003"/><use xlink:href="#I" x="383.63941" y="42.37003"/><use xlink:href="#J" x="393.4059" y="42.37003"/><use xlink:href="#E" x="403.11272" y="42.37003"/></g><use xlink:href="#K" x="416.91811" y="42.37003" fill="#007F7F"/><path fill="none" stroke="#000" stroke-miterlimit="10" stroke-width=".39781" d="M140.94922 37.69531H334.461"/><path stroke="#000" stroke-miterlimit="10" stroke-width=".39781" d="M338.29297 37.69531c-.47266-.125-2.53906-.84375-3.83203-1.6211v3.2461c1.29297-.78125 3.35937-1.4961 3.83203-1.625Zm0 0"/><use xlink:href="#L" x="194.38936" y="20.4937"/><use xlink:href="#M" x="204.55368" y="20.4937"/><use xlink:href="#z" x="215.33461" y="20.4937"/><use xlink:href="#C" x="226.8913" y="20.4937"/><use xlink:href="#A" x="236.16051" y="20.4937"/><use xlink:href="#N" x="242.58531" y="20.4937"/><use xlink:href="#M" x="248.01556" y="20.4937"/><use xlink:href="#z" x="258.79649" y="20.4937"/><use xlink:href="#O" x="274.5513" y="20.4937"/><use xlink:href="#P" transform="translate(211 50)"/></svg>