<svg xmlns="http://www.w3.org/2000/svg" xmlns:xlink="http://www.w3.org/1999/xlink" width="258.75pt" height="228.758pt" viewBox="0 0 258.75 228.758"><defs><path id="b" d="M.5-4.0625C.5-1.625 1.21875.14063 3.21875.14063c2.01563 0 2.73438-1.76563 2.73438-4.20313s-.71875-4.20312-2.73438-4.20312C1.21875-8.26562.5-6.5.5-4.0625m1.23438 0c0-1.98437.32812-3.78125 1.48437-3.78125S4.70313-6.04687 4.70313-4.0625c0 1.98438-.32813 3.78125-1.48438 3.78125S1.73438-2.07812 1.73438-4.0625m0 0"/><path id="k" d="m1.76563-1.3125.5.5L4.375-2.9375 6.5-.8125l.48438-.5L4.875-3.42187l2.10938-2.125-.48438-.5L4.375-3.9375 2.26563-6.04687l-.5.5 2.10937 2.125Zm0 0"/><path id="c" d="M.9375-2.76562h6.01563v-.64063H.9375Zm0 0"/><path id="d" d="M.29688-1.125c0 .46875.75 1.25 2.29687 1.25 1.57813 0 2.59375-.79687 2.59375-2.20312 0-1.45313-1.26562-1.89063-1.875-1.95313v-.04687c.59375-.09375 1.54688-.53125 1.54688-1.60938 0-1.21875-.95313-1.75-2.125-1.75-1.4375 0-2.15625.84375-2.15625 1.29688 0 .34375.39062.53125.54687.53125.125 0 .21875-.07813.26563-.21875.23437-.75.64062-1.21875 1.26562-1.21875.85938 0 1.07813.75 1.07813 1.35937 0 .65625-.23438 1.48438-1.15625 1.48438-.53125 0-.82813-.10938-.95313-.10938-.14062 0-.20312.10938-.20312.3125 0 .1875.0625.29688.20312.29688.125 0 .42188-.10938.95313-.10938.92187 0 1.45312.84375 1.45312 1.79688C4.03125-.70312 3.39063-.25 2.60938-.25c-.71875 0-1.20313-.54687-1.40625-1.15625-.07813-.21875-.17188-.3125-.32813-.3125-.20312 0-.57812.20313-.57812.59375m0 0"/><path id="e" d="M.29688-.10937.40625 0H4.9375l.375-1.4375L5-1.5c-.23437.59375-.45312.67188-.89062.67188H1.3125c.17188-.5625.82813-1.34375 1.84375-2.07813 1.04688-.76562 1.85938-1.26562 1.85938-2.48437C5.01563-6.92187 4-7.4375 2.85938-7.4375c-1.51563 0-2.28125.90625-2.28125 1.48438 0 .35937.42187.54687.60937.54687.20313 0 .26563-.125.3125-.3125.17188-.73437.60938-1.32812 1.28125-1.32812.84375 0 1.07813.6875 1.07813 1.5 0 1.17187-.59375 1.82812-1.54688 2.67187C.96875-1.70312.5-.95312.29688-.10937m0 0"/><path id="f" d="M1.1875 0h3.59375v-.3125l-.92187-.07812C3.625-.42187 3.5-.5 3.5-.9375V-7.375l-.04687-.0625-2.26563.39063v.26562l1.03125.125c.17188.01563.25.10938.25.42188V-.9375c0 .4375-.10937.51563-.35937.54688L1.1875-.3125Zm0 0"/><path id="i" d="m.20313-2.1875.09375.23438h2.98437v1.10937c0 .375-.10937.4375-.375.45313l-.70312.07812V0h2.89062v-.3125l-.5-.0625c-.25-.03125-.32812-.09375-.32812-.46875v-1.10937h1.125v-.51563h-1.125V-7.3125h-.79688C2.4375-5.79687 1.20313-3.90625.20313-2.1875M1-2.46875C1.65625-3.65625 2.4375-4.92187 3.28125-6.25v3.78125Zm0 0"/><path id="j" d="M.4375-1.125c0 .51563.76563 1.25 2.1875 1.25C4.4375.125 5.25-.96875 5.25-2.34375c0-1.54687-.95312-2.32812-2.26562-2.32812-.59375 0-1.26563.26562-1.60938.59375l.25-2.07813c.03125-.28125.09375-.3125.3125-.3125h2.71875l.26563-.75-.0625-.09375H1.20313l-.09376.10938-.21874 3.65625.26562.14062c.45313-.53125.89063-.78125 1.48438-.78125.70312 0 1.46875.51563 1.46875 1.95313 0 1.125-.45313 1.98437-1.40625 1.98437-.76563 0-1.15625-.54687-1.375-1.1875-.0625-.15625-.17188-.26562-.3125-.26562-.21876 0-.57813.21874-.57813.57812m0 0"/><clipPath id="a"><path d="M.01172 0h258.47656v204H.01172Zm0 0"/></clipPath><clipPath id="g"><path d="M.01172 202H253v2H.01172Zm0 0"/></clipPath><clipPath id="h"><path d="M240 190h18.48828v26H240Zm0 0"/></clipPath></defs><g clip-path="url(#a)"><path fill="none" stroke="#7f7f7f" stroke-dasharray=".39807759000000004 .9952239432000001" stroke-miterlimit="10" stroke-width=".39808" d="M.40628 202.86328h257.68744M.40628 166.0508h257.68744M.40628 129.23829h257.68744M.40628 92.42582h257.68744M.40628 55.6133h257.68744M.40628 18.80083h257.68744M18.81252 202.86328V.39458m36.8125 202.4687V.39458m36.81249 202.4687V.39458M129.25 202.86328V.39458m36.8125 202.4687V.39458m36.81248 202.4687V.39458m36.8125 202.4687V.39458"/></g><use xlink:href="#b" x="113.14417" y="219.80847" fill="#7f7f7f"/><path fill="none" stroke="#7f7f7f" stroke-miterlimit="10" stroke-width=".39808" d="M18.81253 193.66016v18.40234"/><g fill="#7f7f7f"><use xlink:href="#c" x="11.98019" y="224.07595"/><use xlink:href="#d" x="19.85152" y="224.07595"/></g><path fill="none" stroke="#7f7f7f" stroke-miterlimit="10" stroke-width=".39808" d="M55.62502 193.66016v18.40234"/><g fill="#7f7f7f"><use xlink:href="#c" x="48.79225" y="224.07595"/><use xlink:href="#e" x="56.66358" y="224.07595"/></g><path fill="none" stroke="#7f7f7f" stroke-miterlimit="10" stroke-width=".39808" d="M92.4375 193.66016v18.40234"/><g fill="#7f7f7f"><use xlink:href="#c" x="85.60331" y="224.07595"/><use xlink:href="#f" x="93.47463" y="224.07595"/></g><path fill="none" stroke="#7f7f7f" stroke-miterlimit="10" stroke-width=".39808" d="M166.0625 193.66016v18.40234"/><use xlink:href="#f" x="163.16226" y="224.07595" fill="#7f7f7f"/><path fill="none" stroke="#7f7f7f" stroke-miterlimit="10" stroke-width=".39808" d="M202.87498 193.66016v18.40234"/><use xlink:href="#e" x="199.97431" y="224.07595" fill="#7f7f7f"/><path fill="none" stroke="#7f7f7f" stroke-miterlimit="10" stroke-width=".39808" d="M239.68747 193.66016v18.40234"/><use xlink:href="#d" x="236.78537" y="224.07595" fill="#7f7f7f"/><g clip-path="url(#g)"><path fill="none" stroke="#000" stroke-miterlimit="10" stroke-width=".79617" d="M.40628 202.86328h251.51557"/></g><path d="M256.08203 202.86328c-.51172-.10937-2.75781-.71094-4.16015-1.36328v2.72266c1.40234-.65235 3.64843-1.25391 4.16015-1.35938m0 0"/><g clip-path="url(#h)"><path fill="none" stroke="#000" stroke-miterlimit="10" stroke-width=".79617" d="M256.08203 202.86328c-.51172-.10937-2.75781-.71094-4.16015-1.36328v2.72266c1.40234-.65235 3.64843-1.25391 4.16015-1.35938Zm0 0"/></g><path fill="none" stroke="#7f7f7f" stroke-miterlimit="10" stroke-width=".39808" d="M138.45312 166.05079h-18.40624"/><use xlink:href="#f" x="109.67784" y="169.7704" fill="#7f7f7f"/><path fill="none" stroke="#7f7f7f" stroke-miterlimit="10" stroke-width=".39808" d="M138.45312 129.2383h-18.40624"/><use xlink:href="#e" x="109.67784" y="132.95934" fill="#7f7f7f"/><path fill="none" stroke="#7f7f7f" stroke-miterlimit="10" stroke-width=".39808" d="M138.45312 92.4258h-18.40624"/><use xlink:href="#d" x="109.67784" y="96.08335" fill="#7f7f7f"/><path fill="none" stroke="#7f7f7f" stroke-miterlimit="10" stroke-width=".39808" d="M138.45312 55.61332h-18.40624"/><use xlink:href="#i" x="109.67784" y="59.2723" fill="#7f7f7f"/><path fill="none" stroke="#7f7f7f" stroke-miterlimit="10" stroke-width=".39808" d="M138.45312 18.80082h-18.40624"/><use xlink:href="#j" x="109.67784" y="22.39631" fill="#7f7f7f"/><path fill="none" stroke="#000" stroke-miterlimit="10" stroke-width=".79617" d="M129.25 221.26562V6.56645"/><path stroke="#000" stroke-miterlimit="10" stroke-width=".79617" d="M129.25 2.40625c-.10547.51172-.70703 2.75781-1.36328 4.16016h2.72656c-.65625-1.40235-1.25781-3.64844-1.36328-4.16016Zm0 0"/><use xlink:href="#k" x="14.44258" y="40.23044"/><use xlink:href="#k" x="51.25464" y="132.26008"/><use xlink:href="#k" x="88.0657" y="187.47667"/><use xlink:href="#k" x="124.87776" y="205.8832"/><use xlink:href="#k" x="161.68882" y="187.47667"/><use xlink:href="#k" x="198.49987" y="132.26008"/><use xlink:href="#k" x="235.31193" y="40.23044"/></svg>