<svg xmlns="http://www.w3.org/2000/svg" xmlns:xlink="http://www.w3.org/1999/xlink" width="319.694" height="319.694" viewBox="0 0 319.694 319.694"><defs><path id="b" d="M1.60938-4.79687h10.42187v-1.10938H1.60938Zm0 0"/><path id="c" d="M.5-.1875.70313 0h7.84375l.64062-2.5-.51562-.09375C8.26563-1.57812 7.875-1.4375 7.10938-1.4375H2.28125c.29688-.98437 1.42188-2.32812 3.1875-3.59375C7.28125-6.375 8.6875-7.21875 8.6875-9.32812c0-2.64063-1.75-3.54688-3.75-3.54688C2.34375-12.875 1-11.3125 1-10.3125c0 .64063.73438.9375 1.0625.9375.34375 0 .45313-.20312.53125-.51562.3125-1.29688 1.04688-2.32813 2.21875-2.32813 1.45313 0 1.875 1.21875 1.875 2.60938 0 2.03125-1.03125 3.17187-2.67187 4.625C1.67188-2.9375.85938-1.65625.5-.1875m0 0"/><path id="d" d="M2.0625 0h6.21875v-.54687L6.6875-.6875c-.40625-.03125-.625-.17187-.625-.92187v-11.17188l-.09375-.09375-3.90625.65625v.46875l1.76563.21875c.32812.04688.4375.1875.4375.73438v9.1875c0 .75-.17188.89062-.625.92187L2.0625-.54687Zm0 0"/><path id="e" d="M.78125-6.32812c0 3.78125 1.10938 6.54687 4.23438 6.54687s4.25-2.76562 4.25-6.54687c0-3.79688-1.125-6.54688-4.25-6.54688S.78125-10.125.78125-6.32812m1.92188 0c0-3.07813.51562-5.89063 2.3125-5.89063 1.79687 0 2.32812 2.8125 2.32812 5.89063S6.8125-.4375 5.01563-.4375 2.70313-3.25 2.70313-6.32812m0 0"/><path id="g" d="m3.04688-2.28125.875.875L7.5625-5.07812l3.67188 3.67187.85937-.875L8.4375-5.9375l3.65625-3.67187-.85937-.84375L7.5625-6.8125l-3.64062-3.64062-.875.84375L6.71875-5.9375Zm0 0"/><path id="h" d="M.67188-5.6875c0 3.46875 2 6 6.17187 6 3.71875 0 5.53125-1.90625 6.70313-3.98437 1.14062-2.0625 1.34375-4.20313 1.34375-5.03125 0-4.32813-2.625-6.1875-6.09375-6.1875-3.35938 0-5.4375 1.85937-6.67188 3.875C.96875-9.0625.67188-7.07812.67188-5.6875m2.21875.84375c0-1.76562.32812-3.73437 1.29687-5.76562.96875-2 2.46875-3.54688 4.70313-3.54688 2.29687 0 3.78125 1.375 3.78125 4.34375 0 1.21875-.10938 2.9375-.98438 5.17188C10.8125-2.375 9.375-.42187 6.65625-.42187c-2.29687 0-3.76562-1.48438-3.76562-4.42188m0 0"/><path id="i" d="M-.40625 0h4.75l.14063-.60937L3.3125-.71875c-.26562-.01562-.375-.15625-.375-.35937 0-.10938.04688-.26563.10938-.42188.6875-1.34375 1.35937-2.70312 2.14062-4.125h4.73438l.51562 4.34375s-.10937.51563-.5625.5625L8.75-.60937 8.64063 0h5.17187l.14063-.60937-.8125-.0625c-.64063-.0625-.73438-.35938-.84375-1.23438L10.75-14.54687h-1.5l-3.54687 6.1875c-1.0625 1.89062-2.8125 5.01562-3.59375 6.28125C1.4375-.98437 1.07813-.76562.42188-.6875l-.6875.07813ZM5.625-6.42187l3.42188-6.1875.76562 6.1875Zm0 0"/><path id="j" d="M0 0h6.375C11.46875 0 12.5-2.625 12.5-4.35937c0-2.21875-1.64062-3.1875-3.1875-3.48438l.03125-.03125c2.79688-.34375 3.98438-1.9375 3.98438-3.51562 0-1.70313-1.01563-3.15625-4.89063-3.15625H3.10938l-.125.59375 1.25.10937c.35937.03125.51562.1875.51562.51563 0 .14062-.04687.3125-.09375.51562L2.17188-1.75c-.15625.70313-.35938.9375-.875 1.01563l-1.1875.125Zm4.20313-1.60937c0-.15626.03125-.3125.07812-.46875l1.20313-5.40625h.82812c2.07813 0 3.92188.60937 3.92188 3 0 1.89062-1.14063 3.75-3.96875 3.75-1.65625 0-2.0625-.34375-2.0625-.875m1.4375-6.60938 1.09375-4.875c.15625-.625.28125-.75 1.6875-.75 1.76562 0 2.75.90625 2.75 2.375 0 2.20313-1.82813 3.25-4.15625 3.25Zm0 0"/><path id="k" d="M1.09375-5.78125C1.09375-3 2.46875.3125 7.6875.3125c1.5 0 2.92188-.20312 4.26563-.875l1.03125-3.35937h-.625c-1.17188 2.10937-2.21875 3.5-4.8125 3.5-2.4375 0-4.1875-1.57813-4.1875-4.8125 0-1.90625.48437-4.23438 1.5-5.92188 1.04687-1.76562 2.70312-3 4.96875-3 2.67187 0 3.42187 1.23438 3.42187 3.54688h.65625l.76563-3.15625c-1.21875-.76563-3.1875-1.125-4.65625-1.125-3.96875 0-6.25 1.85937-7.48438 3.82812-1.17187 1.875-1.4375 3.82813-1.4375 5.28125m0 0"/><path id="l" d="M0 0h6.45313c4.20312 0 6.64062-1.51562 8.17187-3.8125 1.20313-1.8125 1.40625-3.57812 1.40625-4.82812 0-1.70313-.60937-3.40625-1.8125-4.40625-1.23437-1.03125-3.10937-1.5-5.4375-1.5H3.10938l-.125.59375 1.25.09375c.35937.01562.48437.20312.48437.53125 0 .14062-.01562.3125-.0625.51562l-2.5 11.0625C2-1.04687 1.8125-.78125 1.29688-.73437l-1.1875.125Zm4.17188-1.54687c0-.09376 0-.17188.01562-.26563l2.53125-11.23437c.17188-.71875.46875-.79688 2.29688-.79688 4.39062.09375 4.75 3.04688 4.75 4.73438 0 1.8125-.42188 3.51562-1.35938 5.07812-1.21875 1.96875-3 3.29688-6.5 3.29688-1.03125 0-1.73437-.14063-1.73437-.8125m0 0"/><path id="m" d="M.21875 0H11.1875l1.07813-3.6875h-.625C10.5625-1.09375 9.625-.73437 7.03125-.73437c-2.48437 0-2.625-.3125-2.625-.875 0-.23438.07813-.54688.15625-.96875L5.64063-7.1875h2.75c1.57812 0 1.85937.3125 1.85937 1.23438 0 .17187 0 .35937-.01562.57812h.625l.98437-4.39062h-.65625c-.53125 1.45312-.75 1.79687-2.60937 1.79687h-2.75l1.1875-5.23437c.10937-.51563.23437-.64063.59375-.64063h2.53125c2.0625 0 2.48437.54688 2.48437 1.6875 0 .51563-.0625 1.09375-.0625 1.09375h.625l.78125-3.48437h-10.625l-.17187.59375 1.28125.09375c.35937.01562.51562.17187.51562.51562 0 .14063-.01562.29688-.0625.48438L2.39063-1.75c-.17188.71875-.35938.96875-.875 1.01563l-1.1875.125Zm0 0"/><path id="n" d="M.21875 0h6.125l.125-.60937L4.875-.71875c-.375-.01562-.53125-.20312-.53125-.51562 0-.125.01563-.26563.0625-.4375L5.57813-6.875H8.375c1.54688 0 1.82813.29688 1.82813 1.1875 0 .17188 0 .375-.01563.60938h.625L11.79688-9.5h-.625c-.53125 1.48438-.78125 1.8125-2.64063 1.8125H5.75l1.26563-5.5c.125-.53125.23437-.65625.625-.65625h2.5625c2.0625 0 2.46875.54688 2.46875 1.65625 0 .54688-.0625 1.10938-.0625 1.10938H13.25l.78125-3.46875H3.34375l-.14062.59375 1.25.10937c.35937.03125.51562.20313.51562.54688 0 .10937-.01562.26562-.0625.42187L2.39063-1.67187c-.15625.625-.35938.90625-.875.95312l-1.1875.10938Zm0 0"/><clipPath id="a"><path d="M0 0h319.38672v319.38672H0Zm0 0"/></clipPath><clipPath id="f"><path d="M159 0h2v319.38672h-2Zm0 0"/></clipPath></defs><g clip-path="url(#a)"><path fill="none" stroke="#000" stroke-miterlimit="10" stroke-opacity=".5" stroke-width=".39812" d="M.3945 287.13284h318.59773M.39449 223.41408h318.59774M.39449 159.6953h318.59774M.39449 95.97655h318.59774M.39449 32.25387h318.59774M32.25387 318.99223V.39449m63.72268 318.59774V.39449m63.71876 318.59774V.39449m63.71877 318.59774V.39449m63.71876 318.59774V.39449"/></g><path fill="none" stroke="#000" stroke-miterlimit="10" stroke-opacity=".5" stroke-width=".39812" d="M32.25387 143.76562V175.625"/><g fill-opacity=".5"><use xlink:href="#b" x="20.42645" y="182.06274"/><use xlink:href="#c" x="34.05127" y="182.06274"/></g><path fill="none" stroke="#000" stroke-miterlimit="10" stroke-opacity=".5" stroke-width=".39812" d="M95.97655 143.76562V175.625"/><g fill-opacity=".5"><use xlink:href="#b" x="84.14446" y="182.06274"/><use xlink:href="#d" x="97.76928" y="182.06274"/></g><path fill="none" stroke="#000" stroke-miterlimit="10" stroke-opacity=".5" stroke-width=".39812" d="M223.41408 143.76562V175.625"/><use xlink:href="#d" x="218.39396" y="182.06274" fill-opacity=".5"/><path fill="none" stroke="#000" stroke-miterlimit="10" stroke-opacity=".5" stroke-width=".39812" d="M287.13284 143.76562V175.625"/><use xlink:href="#c" x="282.11297" y="182.06274" fill-opacity=".5"/><path fill="none" stroke="#000" stroke-miterlimit="10" stroke-opacity=".5" stroke-width=".39812" d="M175.625 287.13284h-31.85938"/><g fill-opacity=".5"><use xlink:href="#b" x="125.56182" y="293.57"/><use xlink:href="#c" x="139.18664" y="293.57"/></g><path fill="none" stroke="#000" stroke-miterlimit="10" stroke-opacity=".5" stroke-width=".39812" d="M175.625 223.41408h-31.85938"/><g fill-opacity=".5"><use xlink:href="#b" x="125.56182" y="229.85199"/><use xlink:href="#d" x="139.18664" y="229.85199"/></g><path fill="none" stroke="#000" stroke-miterlimit="10" stroke-opacity=".5" stroke-width=".39812" d="M175.625 95.97655h-31.85938"/><use xlink:href="#d" x="132.3743" y="102.41497" fill-opacity=".5"/><path fill="none" stroke="#000" stroke-miterlimit="10" stroke-opacity=".5" stroke-width=".39812" d="M175.625 32.25387h-31.85938"/><use xlink:href="#c" x="132.3743" y="38.69596" fill-opacity=".5"/><path fill="none" stroke="#000" stroke-miterlimit="10" stroke-opacity=".5" stroke-width=".39812" d="M159.69531 143.76562V175.625"/><use xlink:href="#e" x="132.3743" y="188.32474" fill-opacity=".5"/><path fill="none" stroke="#000" stroke-miterlimit="10" stroke-width=".79624" d="M.3945 159.69531h317.80085"/><path fill="none" stroke="#000" stroke-linecap="round" stroke-linejoin="round" stroke-miterlimit="10" stroke-width=".79624" d="M316.04687 156.58594c.46485 1.86328 1.50391 2.7461 2.54688 3.10937-1.04297.36328-2.08203 1.24219-2.54688 3.10547"/><g clip-path="url(#f)"><path fill="none" stroke="#000" stroke-miterlimit="10" stroke-width=".79624" d="M159.69531 318.99223V1.19137"/></g><path fill="none" stroke="#000" stroke-linecap="round" stroke-linejoin="round" stroke-miterlimit="10" stroke-width=".79624" d="M156.58594 3.34375c1.86328-.46875 2.7461-1.5039 3.10937-2.55078.36328 1.04687 1.24219 2.08203 3.10547 2.55078"/><use xlink:href="#g" x="152.12539" y="164.92314"/><use xlink:href="#h" x="167.60657" y="151.46802"/><use xlink:href="#g" x="215.83641" y="101.21112"/><use xlink:href="#i" x="231.31759" y="88.0707"/><use xlink:href="#g" x="215.83641" y="292.34618"/><use xlink:href="#j" x="231.31759" y="309.58567"/><use xlink:href="#g" x="56.55786" y="101.21112"/><use xlink:href="#k" x="42.01678" y="87.757"/><use xlink:href="#g" x="88.41337" y="292.34618"/><use xlink:href="#l" x="71.58848" y="309.58567"/><use xlink:href="#g" x="279.54843" y="292.34618"/><use xlink:href="#m" x="295.02961" y="309.58567"/><use xlink:href="#g" x="88.41337" y="164.92314"/><use xlink:href="#n" x="73.85031" y="151.78172"/></svg>