<svg xmlns="http://www.w3.org/2000/svg" xmlns:xlink="http://www.w3.org/1999/xlink" width="245.432pt" height="202.77pt" viewBox="0 0 245.432 202.77"><defs><path id="b" d="M.5-4.0625C.5-1.625 1.21875.14063 3.21875.14063S5.9375-1.625 5.9375-4.0625c0-2.42187-.71875-4.1875-2.71875-4.1875S.5-6.48437.5-4.0625m1.23438 0c0-1.96875.32812-3.76562 1.48437-3.76562S4.70313-6.03125 4.70313-4.0625c0 1.98438-.32813 3.78125-1.48438 3.78125S1.73438-2.07812 1.73438-4.0625m0 0"/><path id="h" d="m1.75-1.3125.51563.5L4.375-2.9375l2.10938 2.125.5-.5L4.875-3.42187l2.10938-2.125-.5-.48438L4.375-3.92187 2.26563-6.03125 1.75-5.54687l2.125 2.125Zm0 0"/><path id="i" d="M.39063-3.28125c0 2 1.14062 3.46875 3.5625 3.46875 2.14062 0 3.1875-1.10937 3.85937-2.3125.67188-1.1875.78125-2.42187.78125-2.90625 0-2.48437-1.51562-3.5625-3.51562-3.5625-1.9375 0-3.14063 1.07813-3.84375 2.23438C.5625-5.23437.39063-4.07812.39063-3.28125m1.28125.48438c0-1.01563.1875-2.15625.75-3.32813.54687-1.15625 1.42187-2.04687 2.70312-2.04687 1.32813 0 2.1875.79687 2.1875 2.51562 0 .6875-.0625 1.6875-.5625 2.98438C6.23438-1.375 5.42188-.25 3.84375-.25c-1.32812 0-2.17187-.84375-2.17187-2.54687m0 0"/><path id="c" d="M.9375-2.76562h6v-.64063h-6Zm0 0"/><path id="d" d="M.29688-.10937.40625 0h4.51563l.375-1.4375L5-1.5c-.23437.59375-.45312.67188-.89062.67188H1.3125c.17188-.5625.82813-1.34375 1.84375-2.07813 1.04688-.76562 1.85938-1.25 1.85938-2.46875 0-1.53125-1.01563-2.04687-2.17188-2.04687-1.5 0-2.26562.90625-2.26562 1.46875 0 .375.42187.54687.60937.54687.20313 0 .26563-.10937.3125-.29687.17188-.75.60938-1.34375 1.28125-1.34375.82813 0 1.07813.70312 1.07813 1.5 0 1.17187-.59375 1.84375-1.54688 2.67187C.96875-1.70312.5-.95312.29688-.10937m0 0"/><path id="e" d="M1.1875 0h3.59375v-.3125l-.92187-.07812C3.625-.42187 3.5-.5 3.5-.9375V-7.375l-.0625-.04687-2.25.375v.26562l1.01563.125c.1875.03125.26562.10938.26562.42188V-.9375c0 .4375-.10937.51563-.35937.54688L1.1875-.3125Zm0 0"/><path id="j" d="M.57813-4.20312c0 1.35937.375 2.48437 1.03125 3.20312C2.29688-.23437 3.29688.1875 4.625.1875S6.95313-.23437 7.64063-1c.65625-.71875 1.03125-1.84375 1.03125-3.20312s-.375-2.48438-1.03125-3.20313c-.6875-.76562-1.6875-1.1875-3.01563-1.1875s-2.32812.42188-3.01562 1.1875C.95313-6.6875.57813-5.5625.57813-4.20312m1.35937 0c0-1.78125.53125-3.96875 2.6875-3.96875s2.6875 2.1875 2.6875 3.96875S6.78125-.25 4.625-.25 1.9375-2.42187 1.9375-4.20312m0 0"/><path id="k" d="M.39063 0h3.20312v-.34375C2.5-.40625 2.4375-.4375 2.4375-1.0625v-2.84375c0-.92187.42188-1.25.70313-1.25.1875 0 .40625.07813.75.26563.09375.0625.1875.07812.25.07812.29687 0 .54687-.3125.54687-.6875 0-.28125-.17187-.59375-.64062-.59375-.4375 0-.79688.25-1.60938.96875l-.14062-.96875-1.84375.3125v.29688l.45312.0625c.3125.04687.40625.09375.40625.53125v3.82812c0 .625-.07812.65625-.92187.71875Zm0 0"/><path id="l" d="M1.10938-7.95312c0 .45312.3125.75.75.75s.73437-.29688.73437-.75c0-.4375-.29687-.73438-.73437-.73438s-.75.29688-.75.73438M.39063 0h2.95312v-.34375c-.85937-.0625-.90625-.09375-.90625-.71875v-4.95312l-.07812-.07813-1.90625.3125v.29688l.45312.0625c.3125.04687.40625.09375.40625.53125v3.82812c0 .625-.04687.65625-.92187.71875Zm0 0"/><path id="m" d="M.5 1.15625C.5 2.39063 1.73438 2.9375 3.14063 2.9375c.71875 0 1.48437-.14062 2.0625-.5.5625-.32812.96875-.90625.96875-1.65625C6.17188-.54687 5.125-1 3.82813-1h-.96875c-.875 0-1.01563-.29687-1.01563-.53125 0-.34375.46875-.53125.625-.59375.23438.03125.48438.04688.625.04688 1.14063 0 2.45313-.5 2.45313-1.98438 0-.5-.17188-.92187-.375-1.125l.96875-.15625.25-.76562-.10938-.10938-1.54687.5c-.34375-.23437-1.03125-.375-1.57813-.375-1.85937 0-2.51562 1.125-2.51562 2.03125 0 1.14063.75 1.67188 1.3125 1.8125v.03125c-.65625.25-1.10938.60938-1.10938 1.07813 0 .4375.48438.875 1.0625.95312v.01563C1.39063 0 .5.28125.5 1.15625m1.17188-.04687c0-.40625.10937-.71875.375-.92188.26562-.20312.67187-.28125 1.25-.28125 1.07812 0 1.85937.28125 1.85937 1.17188 0 .96875-.875 1.4375-1.75 1.4375-1.03125 0-1.73437-.53125-1.73437-1.40625m.21874-5.17188c0-1.20312.60938-1.60937 1.26563-1.60937.59375 0 1.21875.4375 1.21875 1.60937C4.375-3.03125 3.84375-2.5 3.14063-2.5c-.6875 0-1.25-.53125-1.25-1.5625m0 0"/><path id="n" d="M.39063 0h2.95312v-.34375c-.85937-.0625-.90625-.09375-.90625-.71875v-2.84375c0-.3125.01563-.46875.125-.65625.25-.48437.79688-.875 1.4375-.875.82813 0 1.28125.45313 1.28125 1.51563v2.85937c0 .625-.03125.65625-.90625.71875V0h2.96875v-.34375c-.875-.0625-.92187-.09375-.92187-.71875v-3.09375c0-1.23437-.67188-1.9375-1.78125-1.9375-.90625 0-1.46875.4375-2.21875.92188l-.15625-.92188-1.8125.3125v.29688l.45312.0625c.3125.04687.40625.09375.40625.53125v3.82812c0 .625-.04687.65625-.92187.71875Zm0 0"/><path id="o" d="M.59375-2.9375c0 1.92188.82813 3.07813 2.79688 3.07813 1.35937 0 2.04687-.75 2.375-1.70313L5.40625-1.75c-.34375.70313-.8125 1.26563-1.76562 1.26563-1.51563 0-1.8125-1.4375-1.78125-2.70313h3.5c.26562 0 .48437-.0625.48437-.46875 0-.71875-.23437-2.4375-2.45312-2.4375C1.48438-6.09375.59375-4.75.59375-2.9375M1.875-3.65625c0-.5.17188-2.01562 1.45313-2.01562 1.10937 0 1.25 1.15625 1.25 1.625 0 .23437-.07813.39062-.42188.39062Zm0 0"/><path id="p" d="M-.34375 0h2.67188v-.34375l-.64063-.0625c-.35937-.04687-.40625-.17187-.3125-.5.21875-.71875.45313-1.46875.75-2.34375h2.71875l.8125 2.32813c.125.35937.0625.48437-.3125.51562l-.5625.0625V0h3.10938v-.34375c-.70313-.0625-.82813-.10937-1.0625-.73437l-2.5625-7.32813h-.90625L2.09375-4.8125c-.375 1.0625-.89062 2.51563-1.3125 3.625-.26562.65625-.375.79688-1.125.84375Zm2.625-3.70312c.39063-1.21875.8125-2.40625 1.1875-3.48438H3.5l1.20313 3.48438Zm0 0"/><path id="q" d="m.25-8.40625.45313.04688c.3125.03125.39062.10937.39062.5625V.04688l.21875.09375.48438-.46875c.42187.25.9375.46875 1.84375.46875 1.625 0 3.03125-.78125 3.03125-3.25 0-.75-.15625-2.98438-2.34375-2.98438-.92188 0-1.64063.59375-2.09375.85938V-8.9375L2.14063-9 .25-8.70312Zm1.98438 6.42188v-1.92188c0-.3125.01562-.48437.125-.6875.29687-.57812.79687-.84375 1.48437-.84375.5 0 1.5625.28125 1.5625 2.40625 0 1.78125-.54687 2.75-1.75 2.75-.64062 0-1.10937-.32812-1.32812-.9375-.07813-.21875-.09375-.46875-.09375-.76562m0 0"/><path id="r" d="M.5625-2.03125.70313-.4375c.4375.39063 1.17187.57813 1.875.57813 1.45312 0 2.28125-.76563 2.28125-1.79688 0-1.0625-.65625-1.54687-1.90625-1.9375C2.4375-3.75 1.65625-4 1.65625-4.6875c0-.64062.46875-.98437 1.07813-.98437.875 0 1.28125.67187 1.375 1.40625h.34375V-5.6875c-.39063-.29687-1.01563-.40625-1.5625-.40625-1.3125 0-2.20313.60938-2.20313 1.76563 0 1 .82813 1.45312 1.82813 1.76562.54687.17188 1.3125.4375 1.3125 1.26563 0 .625-.48438 1.01562-1.125 1.01562-.98438 0-1.54688-.71875-1.78125-1.75Zm0 0"/><path id="s" d="M.59375-2.92187c0 2.03125 1 3.0625 2.8125 3.0625.85938 0 2.01563-.4375 2.34375-1.75l-.35937-.15626c-.375.84376-.85938 1.28126-1.75 1.28126-1.4375 0-1.78125-1.51563-1.78125-2.65625 0-1.8125.71875-2.53125 1.54687-2.53125.5625 0 .90625.40625 1.15625 1.0625.07813.1875.15625.3125.39063.3125s.70312-.15625.70312-.625c0-.5625-.79687-1.17188-2.10937-1.17188-2.21875 0-2.95313 1.5625-2.95313 3.17188m0 0"/><path id="t" d="M.59375-2.85937c0 1.79687.9375 3 2.54688 3 .65625 0 1.21875-.29688 1.875-.82813v.59375L5.10938 0h1.96875v-.34375c-.85938-.0625-.90625-.09375-.90625-.71875v-7.875L6.09375-9l-1.92187.29688v.29687l.46875.04688c.3125.03125.39062.10937.39062.5625v2c-.34375-.1875-.79687-.29688-1.34375-.29688-1 0-1.75.3125-2.25.82813-.51562.54687-.84375 1.34375-.84375 2.40625M1.85938-3c0-1.57812.5625-2.67187 1.8125-2.67187.5625 0 1.03125.25 1.25.76562.10937.20313.10937.39063.10937.70313v2.14062c0 .26563 0 .46875-.07812.6875-.25.625-.78125.875-1.40625.875-1.125 0-1.6875-1.10937-1.6875-2.5m0 0"/><path id="u" d="M.59375-2.96875c0 1.95313.96875 3.10938 2.92188 3.10938s2.90625-1.15625 2.90625-3.10938c0-1.96875-.95313-3.125-2.90625-3.125-1.95313 0-2.92188 1.15625-2.92188 3.125m1.26563 0c0-1.6875.54687-2.70312 1.65625-2.70312 1.10937 0 1.65625 1.01562 1.65625 2.70312 0 1.67188-.54688 2.6875-1.65625 2.6875-1.10938 0-1.65625-1.01562-1.65625-2.6875m0 0"/><path id="v" d="m2.4375-6.82812.1875.25 1.82813-1.01563c.35937-.20312.6875-.40625.6875-.65625s-.29688-.53125-.46875-.53125c-.21875 0-.42188.125-.78125.5ZM.59375-2.9375c0 1.92188.82813 3.07813 2.79688 3.07813 1.35937 0 2.04687-.75 2.375-1.70313L5.40625-1.75c-.34375.70313-.8125 1.26563-1.76562 1.26563-1.51563 0-1.8125-1.4375-1.78125-2.70313h3.5c.26562 0 .48437-.0625.48437-.46875 0-.71875-.23437-2.4375-2.45312-2.4375C1.48438-6.09375.59375-4.75.59375-2.9375M1.875-3.65625c0-.5.17188-2.01562 1.45313-2.01562 1.10937 0 1.25 1.15625 1.25 1.625 0 .23437-.07813.39062-.42188.39062Zm0 0"/><clipPath id="a"><path d="M0 17h185v185.42188H0Zm0 0"/></clipPath><clipPath id="f"><path d="M91 23h2v179.42188h-2Zm0 0"/></clipPath><clipPath id="g"><path d="M91 23h2v179.42188h-2Zm0 0"/></clipPath></defs><g clip-path="url(#a)"><path fill="none" stroke="#7f7f7f" stroke-dasharray=".397579465 .9939785932" stroke-miterlimit="10" stroke-width=".39758" d="M.39844 183.64062h183.82812M.39844 146.875h183.82812M.39844 110.10937h183.82812M.39844 73.34375h183.82812M.39844 36.57813h183.82812m-165.4453 165.4453V18.19532m36.76562 183.82811V18.19532M92.3125 202.02343V18.19532m36.76562 183.82811V18.19532m36.76563 183.82811V18.19532"/></g><use xlink:href="#b" x="76.22559" y="127.03564" fill="#7f7f7f"/><path fill="none" stroke="#7f7f7f" stroke-miterlimit="10" stroke-width=".39758" d="M18.78125 100.91797v18.38281"/><g fill="#7f7f7f"><use xlink:href="#c" x="11.95334" y="131.29777"/><use xlink:href="#d" x="19.8148" y="131.29777"/></g><path fill="none" stroke="#7f7f7f" stroke-miterlimit="10" stroke-width=".39758" d="M55.54688 100.91797v18.38281"/><g fill="#7f7f7f"><use xlink:href="#c" x="48.71925" y="131.29777"/><use xlink:href="#e" x="56.58071" y="131.29777"/></g><path fill="none" stroke="#7f7f7f" stroke-miterlimit="10" stroke-width=".39758" d="M129.07812 100.91797v18.38281"/><use xlink:href="#e" x="126.18098" y="131.29777" fill="#7f7f7f"/><path fill="none" stroke="#7f7f7f" stroke-miterlimit="10" stroke-width=".39758" d="M165.84375 100.91797v18.38281"/><use xlink:href="#d" x="162.9459" y="131.29777" fill="#7f7f7f"/><path fill="none" stroke="#000" stroke-miterlimit="10" stroke-width=".79517" d="M.39844 110.10937H178.0625"/><path stroke="#000" stroke-miterlimit="10" stroke-width=".79517" d="M182.21875 110.10937c-.51172-.10546-2.7539-.70703-4.15625-1.35937v2.72266c1.40234-.65625 3.64453-1.25782 4.15625-1.36329Zm0 0"/><path fill="none" stroke="#7f7f7f" stroke-miterlimit="10" stroke-width=".39758" d="M101.5039 183.64062H83.1211"/><g fill="#7f7f7f"><use xlink:href="#c" x="64.9018" y="187.35604"/><use xlink:href="#d" x="72.76326" y="187.35604"/></g><path fill="none" stroke="#7f7f7f" stroke-miterlimit="10" stroke-width=".39758" d="M101.5039 146.875H83.1211"/><g fill="#7f7f7f"><use xlink:href="#c" x="64.9018" y="150.59112"/><use xlink:href="#e" x="72.76326" y="150.59112"/></g><path fill="none" stroke="#7f7f7f" stroke-miterlimit="10" stroke-width=".39758" d="M101.5039 73.34375H83.1211"/><use xlink:href="#e" x="72.76261" y="77.06029" fill="#7f7f7f"/><path fill="none" stroke="#7f7f7f" stroke-miterlimit="10" stroke-width=".39758" d="M101.5039 36.57813H83.1211"/><use xlink:href="#d" x="72.76261" y="40.29538" fill="#7f7f7f"/><g clip-path="url(#f)"><path fill="none" stroke="#000" stroke-miterlimit="10" stroke-width=".79517" d="M92.3125 202.02343V24.35938"/></g><path stroke="#000" stroke-miterlimit="10" stroke-width=".79517" d="M92.3125 20.20313c-.10547.51171-.70703 2.7539-1.36328 4.15625h2.72266c-.65235-1.40235-1.25391-3.64454-1.35938-4.15625Zm0 0"/><g clip-path="url(#g)"><path fill="none" stroke="#ec008c" stroke-miterlimit="10" stroke-width=".79517" d="M92.3125 202.02343V24.35938"/></g><path fill="#ec008c" stroke="#ec008c" stroke-miterlimit="10" stroke-width=".79517" d="M92.3125 20.20313c-.10547.51171-.70703 2.7539-1.36328 4.15625h2.72266c-.65235-1.40235-1.25391-3.64454-1.35938-4.15625Zm0 0"/><path fill="none" stroke="#ff7f00" stroke-miterlimit="10" stroke-width=".79517" d="M.39844 110.10937H178.0625"/><path fill="#ff7f00" stroke="#ff7f00" stroke-miterlimit="10" stroke-width=".79517" d="M182.21875 110.10937c-.51172-.10546-2.7539-.70703-4.15625-1.35937v2.72266c1.40234-.65625 3.64453-1.25782 4.15625-1.36329Zm0 0"/><use xlink:href="#h" x="87.94347" y="113.12683" fill="#007f7f"/><use xlink:href="#i" x="96.8758" y="105.36379" fill="#007f7f"/><path fill="none" stroke="#007f7f" stroke-miterlimit="10" stroke-width=".39758" d="M100.49219 107.22656c33.19921 5.85547 64.59374-9.91797 83.73437-43.07421"/><path fill="#007f7f" stroke="#007f7f" stroke-miterlimit="10" stroke-width=".39758" d="M96.71875 106.5625c.4414.20703 2.35156 1.26953 3.49219 2.26172l.5625-3.19531c-1.41016.54296-3.57031.89062-4.05469.93359Zm0 0"/><g fill="#007f7f"><use xlink:href="#j" x="188.80705" y="67.01953"/><use xlink:href="#k" x="198.05886" y="67.01953"/></g><g fill="#007f7f"><use xlink:href="#l" x="202.87859" y="67.01953"/><use xlink:href="#m" x="206.40617" y="67.01953"/><use xlink:href="#l" x="212.71187" y="67.01953"/><use xlink:href="#n" x="216.23945" y="67.01953"/><use xlink:href="#o" x="223.74686" y="67.01953"/></g><use xlink:href="#p" x="188.80705" y="114.54255" fill="#ff7f00"/><g fill="#ff7f00"><use xlink:href="#q" x="196.36614" y="114.54255"/><use xlink:href="#r" x="203.62804" y="114.54255"/><use xlink:href="#s" x="208.91294" y="114.54255"/><use xlink:href="#l" x="214.93438" y="114.54255"/><use xlink:href="#r" x="218.46195" y="114.54255"/><use xlink:href="#r" x="223.74686" y="114.54255"/><use xlink:href="#o" x="229.03176" y="114.54255"/><use xlink:href="#r" x="235.27286" y="114.54255"/></g><g fill="#ec008c"><use xlink:href="#j" x="61.92569" y="13.43255"/><use xlink:href="#k" x="71.1775" y="13.43255"/></g><g fill="#ec008c"><use xlink:href="#t" x="75.64835" y="13.43255"/><use xlink:href="#u" x="82.91025" y="13.43255"/><use xlink:href="#n" x="89.91372" y="13.43255"/><use xlink:href="#n" x="97.42112" y="13.43255"/><use xlink:href="#v" x="104.92853" y="13.43255"/><use xlink:href="#o" x="111.16963" y="13.43255"/><use xlink:href="#r" x="117.41073" y="13.43255"/></g></svg>