<?xml version="1.0" encoding="iso-8859-1"?>
<!-- Generator: Adobe Illustrator 19.0.0, SVG Export Plug-In . SVG Version: 6.00 Build 0)  -->
<svg version="1.1" id="Capa_1" xmlns="http://www.w3.org/2000/svg" xmlns:xlink="http://www.w3.org/1999/xlink" x="0px" y="0px"
	 viewBox="0 0 512 512" style="enable-background:new 0 0 512 512;" xml:space="preserve">
<path style="fill:#f1cb86;" d="M268.613,489.274h-33.42c-5.168,0-9.358-4.19-9.358-9.358V320.836h52.135v159.081
	C277.971,485.084,273.781,489.274,268.613,489.274z"/>
<rect x="225.836" y="320.84" style="fill:#ecbe6b;" width="52.135" height="75.265"/>
<g>
	<path style="fill:#f1cb86;" d="M196.271,9.108l-73.605,490.611c-0.97,6.465,4.037,12.281,10.576,12.281h27.036
		c5.294,0,9.791-3.872,10.576-9.108l73.605-490.611C245.428,5.815,240.421,0,233.882,0h-27.036
		C201.553,0,197.056,3.872,196.271,9.108z"/>
	<path style="fill:#f1cb86;" d="M305.153,0h-27.035c-6.539,0-11.546,5.815-10.576,12.281l73.605,490.611
		c0.785,5.235,5.283,9.108,10.576,9.108h27.035c6.539,0,11.546-5.815,10.576-12.281L315.729,9.108
		C314.944,3.872,310.447,0,305.153,0z"/>
</g>
<g>
	<polygon style="fill:#ecbe6b;" points="325.125,396.105 373.79,396.105 359.287,299.442 310.623,299.442 	"/>
	<polygon style="fill:#ecbe6b;" points="138.21,396.105 186.874,396.105 201.377,299.442 152.712,299.442 	"/>
</g>
<path style="fill:#f4d8a5;" d="M438.465,345.137H73.535c-17.719,0-32.084-14.364-32.084-32.084V78.091
	c0-17.719,14.364-32.084,32.084-32.084h364.929c17.719,0,32.084,14.364,32.084,32.084v234.964
	C470.548,330.773,456.184,345.137,438.465,345.137z"/>
<path style="fill:#f1cb86;" d="M172.433,112.448c21.024-27.576,46.335-49.822,74.107-66.442H73.535
	c-17.719,0-32.084,14.364-32.084,32.084v234.963c0,17.719,14.365,32.084,32.084,32.084h56.934
	C106.128,270.091,119.033,182.491,172.433,112.448z"/>
<path style="fill:#596c76;" d="M73.535,318.401c-2.949,0-5.348-2.399-5.348-5.348V78.091c0-2.948,2.398-5.348,5.348-5.348h364.929
	c2.949,0,5.348,2.399,5.348,5.348v234.963c0,2.948-2.398,5.348-5.348,5.348H73.535z"/>
<path style="fill:#3b4a51;" d="M172.433,112.448c11.274-14.788,23.791-28.028,37.249-39.705H73.535
	c-2.949,0-5.348,2.399-5.348,5.348v234.963c0,2.948,2.398,5.348,5.348,5.348h49.932
	C109.687,249.886,125.265,174.317,172.433,112.448z"/>
<path style="fill:#f1cb86;" d="M338.436,357.386H173.563c-5.906,0-10.694-4.788-10.694-10.694v-39.67
	c0-5.906,4.788-10.694,10.694-10.694h164.874c5.906,0,10.694,4.788,10.694,10.694v39.67
	C349.131,352.598,344.343,357.386,338.436,357.386z"/>
<path style="fill:#ecbe6b;" d="M209.683,346.692v-39.67c0-5.906,4.788-10.694,10.694-10.694h-46.815
	c-5.906,0-10.694,4.788-10.694,10.694v39.67c0,5.906,4.788,10.694,10.694,10.694h46.815
	C214.471,357.386,209.683,352.598,209.683,346.692z"/>
<path style="fill:#FFFFFF;" d="M165.255,189.395h-26.056c-3.105,0-5.907-1.858-7.117-4.718c-1.209-2.86-0.588-6.165,1.574-8.392
	l11.131-11.459c0.026-0.027,0.053-0.054,0.079-0.079c5.184-5.229,9.209-12.732,7.963-14.855c-0.396-0.675-0.646-0.739-0.847-0.791
	c-1.672-0.43-5.089,0.822-6.814,1.852c-3.633,2.239-8.373,1.09-10.609-2.544c-2.237-3.634-1.082-8.406,2.553-10.643
	c1.603-0.987,10.036-5.799,18.6-3.662c4.426,1.104,8.04,3.861,10.45,7.972c7.147,12.194-4.14,26.731-8.74,31.866h7.833
	c4.268,0,7.726,3.459,7.726,7.726C172.984,185.934,169.523,189.395,165.255,189.395z"/>
<g>
	<path style="fill:#FFFFFF;" d="M265.183,189.395h-26.056c-3.105,0-5.907-1.858-7.117-4.718c-1.209-2.86-0.588-6.165,1.574-8.392
		l11.131-11.459c0.026-0.027,0.053-0.054,0.079-0.079c5.184-5.229,9.209-12.732,7.963-14.855c-0.396-0.675-0.646-0.739-0.847-0.791
		c-1.672-0.43-5.089,0.822-6.814,1.852c-3.633,2.239-8.373,1.09-10.609-2.544c-2.237-3.634-1.082-8.406,2.553-10.643
		c1.603-0.987,10.036-5.799,18.6-3.662c4.426,1.104,8.04,3.861,10.45,7.972c7.147,12.194-4.14,26.731-8.74,31.866h7.833
		c4.268,0,7.726,3.459,7.726,7.726C272.911,185.934,269.451,189.395,265.183,189.395z"/>
	<path style="fill:#FFFFFF;" d="M215.069,161.065h-5.151v-5.151c0-4.267-3.458-7.726-7.726-7.726c-4.268,0-7.726,3.459-7.726,7.726
		v5.151h-5.151c-4.267,0-7.726,3.458-7.726,7.726c0,4.268,3.459,7.726,7.726,7.726h5.151v5.151c0,4.267,3.458,7.726,7.726,7.726
		c4.268,0,7.726-3.459,7.726-7.726v-5.151h5.151c4.267,0,7.726-3.458,7.726-7.726C222.795,164.523,219.336,161.065,215.069,161.065z
		"/>
	<path style="fill:#FFFFFF;" d="M315.507,160.193h-19.76c-4.268,0-7.726-3.459-7.726-7.726s3.458-7.726,7.726-7.726h19.76
		c4.268,0,7.726,3.459,7.726,7.726S319.775,160.193,315.507,160.193z"/>
	<path style="fill:#FFFFFF;" d="M315.507,184.917h-19.76c-4.268,0-7.726-3.459-7.726-7.726c0-4.267,3.458-7.726,7.726-7.726h19.76
		c4.268,0,7.726,3.459,7.726,7.726C323.234,181.458,319.775,184.917,315.507,184.917z"/>
	<path style="fill:#FFFFFF;" d="M372.8,156.429h-1.334v-8.915c0-4.267-3.458-7.726-7.726-7.726s-7.726,3.459-7.726,7.726v8.915
		h-4.847v-14.938c0-4.267-3.458-7.726-7.726-7.726c-4.268,0-7.726,3.459-7.726,7.726v22.664c0,4.267,3.458,7.726,7.726,7.726h12.573
		v9.787c0,4.267,3.458,7.726,7.726,7.726s7.726-3.459,7.726-7.726v-9.787h1.334c4.268,0,7.726-3.459,7.726-7.726
		C380.526,159.888,377.068,156.429,372.8,156.429z"/>
</g>
</svg>
