<svg xmlns="http://www.w3.org/2000/svg" xmlns:xlink="http://www.w3.org/1999/xlink" width="295.167pt" height="85.013pt" viewBox="0 0 295.167 85.013"><defs><path id="a" d="M1.57813-4.6875h10.1875v-1.07812H1.57813Zm0 0"/><path id="b" d="M.5-1.89062C.5-1.10937 1.76563.21875 4.39063.21875c2.6875 0 4.375-1.35937 4.375-3.71875 0-2.48437-2.125-3.21875-3.15625-3.3125v-.07812c1.01562-.15625 2.60937-.90625 2.60937-2.75 0-2.04688-1.59375-2.95313-3.59375-2.95313-2.4375 0-3.64062 1.42188-3.64062 2.20313 0 .57812.65625.89062.90625.89062.23437 0 .375-.14062.45312-.375.42188-1.25 1.10938-2.0625 2.15625-2.0625 1.45313 0 1.82813 1.28125 1.82813 2.32813 0 1.09375-.39063 2.5-1.96875 2.5-.89063 0-1.40625-.1875-1.625-.1875-.23438 0-.32813.1875-.32813.51562 0 .3125.09375.51563.32813.51563.21875 0 .73437-.17188 1.625-.17188 1.57812 0 2.45312 1.40625 2.45312 3.03125 0 2.20313-1.07812 2.96875-2.40625 2.96875-1.21875 0-2.01562-.90625-2.375-1.95312-.125-.34375-.29687-.53125-.54687-.53125C1.14063-2.92187.5-2.5625.5-1.89062m0 0"/><path id="c" d="M.76563-9.76562h.5l.17187-.40625c.23438-.5.5-.78125 1.32813-.78125h5c-.1875.67187-.53125 1.73437-2.03125 3.875C4.14063-4.78125 3.09375-2.71875 3.09375-.53125c0 .60938.4375.75 1 .75.53125 0 .9375-.15625.90625-.6875-.09375-2.45312.40625-4.4375 1.39063-6.15625 1.17187-2.0625 2.15625-3.23437 2.8125-5.54687l-.15625-.20313H1.34375Zm0 0"/><path id="d" d="M2.01563 0h6.07812v-.53125L6.54688-.67187c-.40625-.03126-.60938-.17188-.60938-.90625v-10.90625l-.10937-.10938-3.8125.65625v.45313l1.73437.21875c.3125.03125.42188.17187.42188.70312v8.98438c0 .35937-.03125.57812-.15625.71875-.09375.125-.25.17187-.45313.1875l-1.54687.14062Zm0 0"/><path id="e" d="M.75-1.89062C.75-1.04687 2.04688.21875 4.45313.21875c3.04687 0 4.4375-1.85937 4.4375-4.20312 0-2.59375-1.625-3.92188-3.82813-3.92188-1.01562 0-2.125.4375-2.71875.96875l-.01562-.01562.40625-3.46875c.0625-.46875.1875-.53125.53125-.53125H7.875l.45313-1.26563-.09375-.15625h-6.1875l-.17188.17188-.375 6.1875.45313.25c.76562-.89063 1.51562-1.32813 2.51562-1.32813 1.1875 0 2.48438.875 2.48438 3.3125 0 1.90625-.76563 3.34375-2.375 3.34375-1.3125 0-1.95313-.92187-2.32813-1.98437-.10937-.28125-.28125-.45313-.53125-.45313-.375 0-.96875.375-.96875.98438m0 0"/><path id="f" d="M.5-.17187.6875 0h7.67188l.625-2.4375-.51563-.10937c-.39062 1.01562-.76562 1.14062-1.51562 1.14062H2.21875c.29688-.95312 1.40625-2.28125 3.125-3.51562 1.76563-1.29688 3.14063-2.125 3.14063-4.20313 0-2.57812-1.70313-3.46875-3.65625-3.46875-2.54688 0-3.84375 1.54688-3.84375 2.5 0 .64063.70312.9375 1.03125.9375.32812 0 .45312-.20312.53125-.51562.29687-1.26563 1.01562-2.26563 2.15625-2.26563 1.42187 0 1.84375 1.17188 1.84375 2.54688 0 1.98437-1.01563 3.10937-2.625 4.53125C1.64063-2.875.84375-1.60937.5-.17187m0 0"/><path id="h" d="M.67188-8.46875c0 2.32813 1.65625 3.5 3.5625 3.5 1.14062 0 2.10937-.64062 2.73437-1.54687h.04688c0 1.15625-.07813 2.65625-.42188 3.9375C6.26563-1.35937 5.60938-.4375 4.4375-.4375c-1.26562 0-1.73437-.98437-2.01562-1.84375-.07813-.23437-.20313-.375-.51563-.375-.34375 0-.85937.375-.85937.9375 0 .8125.96875 1.9375 3.20312 1.9375 1.5 0 2.64063-.54687 3.35938-1.53125C8.375-2.39062 8.82813-4 8.82813-6.67187c0-2.3125-.45313-3.8125-1.1875-4.67188-.70313-.82812-1.70313-1.25-2.89063-1.25-2.35937 0-4.07812 1.5625-4.07812 4.125m1.84375-.51562c0-1.6875.78125-2.95313 2.21875-2.95313 1.46875 0 2.20312 1.75 2.20312 3.54688 0 .3125-.01562.6875-.14062.98437C6.5-6.54687 5.76563-5.95312 4.78125-5.95312c-1.4375 0-2.26562-1.26563-2.26562-3.03125m0 0"/><path id="g" d="M1.40625 0h4.26563v-.375L4.57813-.46875c-.28125-.03125-.4375-.125-.4375-.64062v-7.625l-.0625-.07813-2.67188.46875v.3125l1.21875.14063c.21875.03125.29688.125.29688.5v6.28125c0 .25-.03125.40625-.10938.5-.0625.09374-.1875.125-.3125.14062L1.40625-.375Zm0 0"/></defs><use xlink:href="#a" x="7.84684" y="46.94299"/><path fill="none" stroke="#000" stroke-miterlimit="10" stroke-width=".78687" d="M7.84766 52.85156h54.48048"/><use xlink:href="#b" x="30.18351" y="23.3074"/><use xlink:href="#c" x="48.34378" y="23.3074"/><use xlink:href="#d" x="30.18351" y="46.94299"/><use xlink:href="#e" x="48.34378" y="46.94299"/><use xlink:href="#f" x="30.18351" y="70.57858"/><use xlink:href="#f" x="48.34378" y="70.57858"/><use xlink:href="#a" x="232.01624" y="46.94299"/><path fill="none" stroke="#000" stroke-miterlimit="10" stroke-width=".78687" d="M232.01563 52.85156h54.48048"/><use xlink:href="#g" x="267.6268" y="23.3074"/><use xlink:href="#g" x="249.46565" y="46.94299"/><use xlink:href="#e" x="254.35093" y="23.3074"/><use xlink:href="#f" x="272.5112" y="23.3074"/><use xlink:href="#f" x="254.35093" y="46.94299"/><use xlink:href="#h" x="272.5112" y="46.94299"/><use xlink:href="#f" x="254.35093" y="70.57858"/><use xlink:href="#b" x="272.5112" y="70.57858"/></svg>