<svg xmlns="http://www.w3.org/2000/svg" xmlns:xlink="http://www.w3.org/1999/xlink" width="42.747pt" height="68.077pt" viewBox="0 0 42.747 68.077"><defs><path id="a" d="M.3125-1.17187c0 .48437.79688 1.3125 2.42188 1.3125 1.67187 0 2.73437-.85938 2.73437-2.32813 0-1.54687-1.32812-2-1.96875-2.0625v-.04687C4.125-4.39062 5.125-4.85937 5.125-6c0-1.28125-1-1.84375-2.23437-1.84375-1.53125 0-2.28125.875-2.28125 1.375 0 .35938.40625.54688.5625.54688.15624 0 .23437-.07813.29687-.23438.25-.78125.6875-1.28125 1.32813-1.28125.90625 0 1.14062.79688 1.14062 1.4375 0 .6875-.23437 1.5625-1.21875 1.5625-.5625 0-.875-.10937-1.01562-.10937-.14063 0-.20313.10937-.20313.32812 0 .1875.0625.3125.20313.3125.14062 0 .45312-.10937 1.01562-.10937.98438 0 1.53125.89062 1.53125 1.89062 0 1.375-.67187 1.85938-1.5 1.85938-.76562 0-1.26562-.5625-1.48437-1.21875-.07813-.21876-.1875-.32813-.34375-.32813-.20313 0-.60938.21875-.60938.64063m0 0"/><path id="b" d="M.48438-3.85937c0 2.3125.67187 4 2.57812 4s2.59375-1.6875 2.59375-4-.6875-3.98438-2.59375-3.98438S.48438-6.17187.48438-3.85937m1.15625 0c0-1.875.32812-3.57813 1.42187-3.57813s1.40625 1.70313 1.40625 3.57813S4.15625-.26562 3.0625-.26562 1.64063-1.98437 1.64063-3.85937m0 0"/><path id="c" d="M.42188-5.28125c0 1.45313 1.03125 2.1875 2.21875 2.1875.71875 0 1.3125-.40625 1.70312-.96875H4.375c0 .71875-.04687 1.65625-.26562 2.45313C3.90625-.84375 3.5-.26562 2.76563-.26562c-.78125 0-1.07813-.625-1.25-1.15625-.04688-.15626-.125-.23438-.32813-.23438-.21875 0-.53125.23438-.53125.59375 0 .5.59375 1.20313 2 1.20313.9375 0 1.64063-.34375 2.07813-.96875C5.21875-1.48437 5.5-2.5 5.5-4.15625c0-1.4375-.28125-2.375-.73437-2.92187-.4375-.51563-1.0625-.76563-1.8125-.76563-1.46875 0-2.53125.96875-2.53125 2.5625m1.15625-.3125c0-1.0625.46875-1.84375 1.375-1.84375.92187 0 1.375 1.09375 1.375 2.20313 0 .20312-.01563.4375-.09375.60937-.1875.54688-.64063.92188-1.25.92188-.89063 0-1.40625-.79688-1.40625-1.89063m0 0"/><clipPath id="d"><path d="M.16016 32H39v2H.16016Zm0 0"/></clipPath></defs><use xlink:href="#a" x="6.86126" y="14.53839"/><use xlink:href="#b" x="18.18961" y="14.53839"/><use xlink:href="#b" x="29.51796" y="14.53839"/><use xlink:href="#a" x="29.51783" y="29.28224"/><use xlink:href="#c" x="6.86126" y="44.02609"/><use xlink:href="#b" x="18.18961" y="44.02609"/><use xlink:href="#b" x="29.51796" y="44.02609"/><use xlink:href="#c" x="6.86126" y="58.77117"/><use xlink:href="#b" x="18.18961" y="58.77117"/><use xlink:href="#b" x="29.51796" y="58.77117"/><path fill="none" stroke="#000" stroke-miterlimit="10" stroke-width=".49085" d="M4.25781 47.71094H38.2422"/><g clip-path="url(#d)"><path fill="none" stroke="#000" stroke-miterlimit="10" stroke-width=".49085" d="M-7.07422 32.96875h45.3164"/></g></svg>