<svg xmlns="http://www.w3.org/2000/svg" xmlns:xlink="http://www.w3.org/1999/xlink" width="184.479pt" height="53.133pt" viewBox="0 0 184.479 53.133"><defs><path id="a" d="M.98438-2.92187H7.3125v-.67188H.98438Zm0 0"/><path id="b" d="M.3125-1.17187c0 .48437.79688 1.3125 2.42188 1.3125 1.65625 0 2.71875-.84375 2.71875-2.32813 0-1.53125-1.32813-1.98437-1.96875-2.04687v-.04688c.625-.10937 1.625-.5625 1.625-1.70312 0-1.28125-1-1.84375-2.23438-1.84375-1.51562 0-2.26562.875-2.26562 1.375 0 .35937.40625.54687.5625.54687.15624 0 .23437-.07812.28124-.23437.26563-.78125.6875-1.28125 1.34376-1.28125.90625 0 1.14062.79687 1.14062 1.4375 0 .6875-.25 1.5625-1.23437 1.5625-.54688 0-.85938-.10938-1-.10938-.14063 0-.20313.10938-.20313.3125 0 .20313.0625.32813.20313.32813.14062 0 .45312-.10938 1-.10938.98437 0 1.53125.875 1.53125 1.875C4.23438-.75 3.5625-.26562 2.75-.26562c-.76562 0-1.26562-.5625-1.48437-1.21875-.07813-.21876-.1875-.32813-.34375-.32813-.21876 0-.60938.21875-.60938.64063m0 0"/><path id="c" d="M.48438-6.07812h.29687l.10938-.25c.15624-.3125.3125-.48438.82812-.48438h3.10938C4.71875-6.39062 4.5-5.73437 3.5625-4.39062 2.57813-2.98437 1.92188-1.6875 1.92188-.32812c0 .375.26562.46875.625.46875.32812 0 .57812-.10938.5625-.4375-.0625-1.51563.25-2.75.85937-3.8125.73438-1.29688 1.34375-2.01563 1.75-3.46875L5.625-7.6875H.82813Zm0 0"/><path id="d" d="M1.25 0h3.78125v-.32812L4.0625-.42187c-.23437-.01563-.375-.10938-.375-.5625v-6.78125l-.0625-.0625-2.375.40625v.28125L2.32813-7c.20312.01563.26562.10938.26562.4375v5.57813c0 .21874-.01562.35937-.09375.45312-.0625.07813-.15625.10938-.28125.10938L1.25-.32812Zm0 0"/><path id="e" d="M.46875-1.17187c0 .51562.8125 1.3125 2.29688 1.3125 1.90625 0 2.76562-1.15625 2.76562-2.60938 0-1.625-1.01562-2.4375-2.39062-2.4375-.625 0-1.3125.26563-1.6875.59375v-.01562l.25-2.15625c.03124-.29688.10937-.32813.32812-.32813h2.875l.28125-.78125-.0625-.09375H1.28125l-.125.10938L.9375-3.73437l.28125.14062c.46875-.54687.9375-.8125 1.5625-.8125.73438 0 1.54688.53125 1.54688 2.04688 0 1.20312-.48438 2.09375-1.48438 2.09375-.8125 0-1.21875-.57813-1.45312-1.23438-.0625-.17187-.17188-.28125-.32813-.28125-.23437 0-.59375.21875-.59375.60938m0 0"/><path id="f" d="M.3125-.10937.42188 0H5.1875l.40625-1.51562-.32812-.0625c-.25.625-.46875.70312-.9375.70312h-2.9375C1.5625-1.46875 2.25-2.29687 3.3125-3.0625c1.10938-.8125 1.96875-1.32812 1.96875-2.60937 0-1.60938-1.0625-2.15625-2.28125-2.15625-1.57812 0-2.39062.95312-2.39062 1.5625 0 .39062.4375.5625.64062.5625.20313 0 .28125-.10938.32813-.3125.1875-.78125.64062-1.40625 1.34375-1.40625.89062 0 1.14062.73437 1.14062 1.57812 0 1.23438-.625 1.9375-1.625 2.8125C1.01563-1.78125.53125-1 .3125-.10937m0 0"/><path id="h" d="M.42188-5.26562c0 1.4375 1.03125 2.17187 2.21875 2.17187.70312 0 1.29687-.39062 1.70312-.96875h.01563c0 .73438-.04688 1.65625-.25 2.45313-.21875.76562-.625 1.34375-1.35938 1.34375-.78125 0-1.07812-.60938-1.25-1.15625-.04687-.14063-.10937-.23438-.3125-.23438-.21875 0-.53125.23438-.53125.59375 0 .5.59375 1.20313 1.98438 1.20313.9375 0 1.64062-.34375 2.09375-.96875.46875-.65625.75-1.65625.75-3.32813 0-1.4375-.28125-2.35937-.73438-2.90625-.4375-.51562-1.0625-.76562-1.79687-.76562-1.46875 0-2.53125.96875-2.53125 2.5625m1.14062-.32813c0-1.04687.48438-1.82812 1.375-1.82812.92188 0 1.375 1.09375 1.375 2.20312 0 .20313-.01562.42188-.09375.60938-.17187.54687-.625.90625-1.23437.90625-.90625 0-1.42188-.78125-1.42188-1.89063m0 0"/><path id="g" d="M.875 0h2.65625v-.23437l-.6875-.0625C2.67188-.3125 2.57813-.375 2.57813-.6875v-4.75l-.03125-.04687L.875-5.20312V-5l.75.09375c.14063.01563.1875.07813.1875.3125V-.6875c0 .15625-.01562.25-.0625.3125s-.10937.07813-.20312.07813L.875-.23437Zm0 0"/></defs><use xlink:href="#a" x="5.30899" y="29.20249"/><path fill="none" stroke="#000" stroke-miterlimit="10" stroke-width=".48951" d="M5.3086 32.8789h33.89454"/><use xlink:href="#b" x="19.20352" y="14.49867"/><use xlink:href="#c" x="30.50111" y="14.49867"/><use xlink:href="#d" x="19.20352" y="29.20249"/><use xlink:href="#e" x="30.50111" y="29.20249"/><use xlink:href="#f" x="19.20352" y="43.90754"/><use xlink:href="#f" x="30.50111" y="43.90754"/><use xlink:href="#a" x="144.76541" y="29.20249"/><path fill="none" stroke="#000" stroke-miterlimit="10" stroke-width=".48951" d="M144.76562 32.8789h33.89455"/><use xlink:href="#g" x="166.91891" y="14.49867"/><use xlink:href="#g" x="155.622" y="29.20249"/><use xlink:href="#e" x="158.66116" y="14.49867"/><use xlink:href="#f" x="169.95875" y="14.49867"/><use xlink:href="#f" x="158.66116" y="29.20249"/><use xlink:href="#h" x="169.95875" y="29.20249"/><use xlink:href="#f" x="158.66116" y="43.90754"/><use xlink:href="#b" x="169.95875" y="43.90754"/></svg>