<svg xmlns="http://www.w3.org/2000/svg" xmlns:xlink="http://www.w3.org/1999/xlink" width="191.859pt" height="55.259pt" viewBox="0 0 191.859 55.259"><defs><path id="a" d="M1.01563-3.04687H7.625V-3.75H1.01563Zm0 0"/><path id="b" d="M.3125-1.23437c0 .51562.84375 1.375 2.53125 1.375 1.75 0 2.84375-.875 2.84375-2.42188 0-1.60937-1.375-2.07812-2.04687-2.14062v-.04688c.65625-.10937 1.6875-.59375 1.6875-1.78125 0-1.32812-1.03125-1.92187-2.32813-1.92187-1.57812 0-2.35937.92187-2.35937 1.4375 0 .375.42187.57812.59375.57812.14062 0 .23437-.09375.28124-.25.28126-.8125.71876-1.34375 1.40626-1.34375.9375 0 1.1875.82813 1.1875 1.51563 0 .71875-.26563 1.625-1.28125 1.625-.57813 0-.90625-.125-1.04688-.125-.15625 0-.21875.125-.21875.34375 0 .20312.0625.32812.21875.32812.14063 0 .46875-.10937 1.04688-.10937 1.01562 0 1.59375.90625 1.59375 1.95312 0 1.4375-.70313 1.9375-1.5625 1.9375-.78125 0-1.3125-.59375-1.54688-1.26562-.07812-.23438-.1875-.34375-.35937-.34375-.21876 0-.64063.23437-.64063.65625m0 0"/><path id="c" d="M.5-6.34375h.3125l.125-.25c.15625-.32812.3125-.51562.85938-.51562h3.23437c-.10937.4375-.34375 1.125-1.3125 2.51562C2.6875-3.10937 2-1.76562 2-.34375c0 .39063.28125.48438.65625.48438C3 .14063 3.26563.03124 3.25-.3125c-.0625-1.57812.25-2.875.89063-3.98437.76562-1.34375 1.40625-2.09375 1.82812-3.60938l-.10937-.125H.875Zm0 0"/><path id="d" d="M1.29688 0H5.25v-.34375l-1-.09375c-.26562-.01562-.40625-.10937-.40625-.57812v-7.09375l-.0625-.0625L1.29688-7.75v.29688l1.125.14062c.21875.03125.28125.10938.28125.46875v5.82813c0 .21874-.01563.35937-.09375.45312-.0625.09375-.17188.10938-.29688.125l-1.01562.09375Zm0 0"/><path id="e" d="M.48438-1.23437c0 .5625.84375 1.375 2.40625 1.375 1.98437 0 2.875-1.20313 2.875-2.71875 0-1.6875-1.04688-2.54688-2.48438-2.54688-.65625 0-1.375.28125-1.76562.625v-.01562l.26562-2.25c.03125-.29688.10938-.34375.34375-.34375h2.98438l.29687-.8125-.0625-.10938H1.32813l-.10938.125-.25 4.01563.29688.14062c.5-.5625.98437-.84375 1.64062-.84375.76563 0 1.60938.5625 1.60938 2.14063 0 1.23437-.5 2.17187-1.54688 2.17187-.84375 0-1.26562-.59375-1.51562-1.29687-.0625-.17188-.17188-.28126-.34375-.28126-.23438 0-.625.23438-.625.625m0 0"/><path id="f" d="M.3125-.10937.45313 0h4.96875l.40625-1.57812L5.5-1.65625c-.26562.65625-.5.75-.98437.75H1.4375c.20313-.625.92188-1.48437 2.03125-2.28125 1.14063-.84375 2.04688-1.39062 2.04688-2.73437 0-1.67188-1.125-2.25-2.39063-2.25-1.64062 0-2.48437 1-2.48437 1.625 0 .40625.45312.60937.65625.60937.21874 0 .29687-.14062.35937-.34375C1.84375-7.09375 2.3125-7.75 3.0625-7.75c.90625 0 1.1875.76563 1.1875 1.65625 0 1.28125-.65625 2.01563-1.70312 2.9375C1.0625-1.85937.54688-1.04687.3125-.10937m0 0"/><path id="h" d="M.4375-5.5c0 1.51563 1.07813 2.28125 2.3125 2.28125.73438 0 1.35938-.42187 1.78125-1.01562h.01563c0 .76562-.04688 1.73437-.26563 2.5625C4.0625-.875 3.64063-.28126 2.875-.28126c-.8125 0-1.125-.64062-1.29687-1.20312-.0625-.15626-.14063-.23438-.34375-.23438-.21876 0-.5625.23438-.5625.60938 0 .51562.625 1.25 2.09375 1.25.96875 0 1.70312-.35938 2.17187-1 .5-.6875.78125-1.73438.78125-3.46875 0-1.5-.28125-2.46875-.76562-3.03125-.45313-.54688-1.10938-.8125-1.875-.8125C1.54688-8.17187.4375-7.15625.4375-5.5m1.20313-.32812c0-1.09375.5-1.92188 1.42187-1.92188C4.03125-7.75 4.5-6.60937 4.5-5.4375c0 .20313-.01562.4375-.09375.625-.1875.5625-.65625.95313-1.29687.95313-.9375 0-1.46875-.8125-1.46875-1.96875m0 0"/><path id="g" d="M.90625 0H3.6875v-.23437l-.71875-.0625c-.17187-.03125-.28125-.09375-.28125-.42188v-4.95312l-.03125-.04688-1.75.29688v.20312l.79688.09375c.14062.01563.1875.07813.1875.32813v4.07812c0 .15625-.01563.26563-.0625.32813-.04688.0625-.125.07812-.20313.09375l-.71875.0625Zm0 0"/></defs><use xlink:href="#a" x="5.45966" y="30.45906"/><path fill="none" stroke="#000" stroke-miterlimit="10" stroke-width=".51055" d="M5.46094 34.29297h35.34765"/><use xlink:href="#b" x="19.95143" y="15.1232"/><use xlink:href="#c" x="31.73465" y="15.1232"/><use xlink:href="#d" x="19.95143" y="30.45906"/><use xlink:href="#e" x="31.73465" y="30.45906"/><use xlink:href="#f" x="19.95143" y="45.79491"/><use xlink:href="#f" x="31.73465" y="45.79491"/><use xlink:href="#a" x="150.91122" y="30.45906"/><path fill="none" stroke="#000" stroke-miterlimit="10" stroke-width=".51055" d="M150.91016 34.29297h35.35155"/><use xlink:href="#g" x="174.01698" y="15.1232"/><use xlink:href="#g" x="162.23319" y="30.45906"/><use xlink:href="#e" x="165.40299" y="15.1232"/><use xlink:href="#f" x="177.1862" y="15.1232"/><use xlink:href="#f" x="165.40299" y="30.45906"/><use xlink:href="#h" x="177.1862" y="30.45906"/><use xlink:href="#f" x="165.40299" y="45.79491"/><use xlink:href="#b" x="177.1862" y="45.79491"/></svg>