<svg xmlns="http://www.w3.org/2000/svg" xmlns:xlink="http://www.w3.org/1999/xlink" width="159.615pt" height="157.284pt" viewBox="0 0 159.615 157.284"><defs><path id="a" d="M.5625-2.14062C.5625-1.25 2.01563.25 4.96875.25c3.04688 0 4.95313-1.54687 4.95313-4.21875 0-2.8125-2.40625-3.64062-3.5625-3.75v-.09375c1.14062-.17187 2.9375-1.01562 2.9375-3.09375C9.29688-13.23437 7.5-14.25 5.25-14.25c-2.76562 0-4.14062 1.59375-4.14062 2.48438 0 .65625.75 1.01562 1.03125 1.01562.26562 0 .42187-.15625.51562-.42187.46875-1.4375 1.25-2.34375 2.4375-2.34375 1.64063 0 2.0625 1.4375 2.0625 2.625 0 1.25-.4375 2.82812-2.21875 2.82812-1.01562 0-1.59375-.1875-1.84375-.1875-.26562 0-.375.1875-.375.57813 0 .35937.10938.57812.375.57812.25 0 .82813-.20312 1.84375-.20312 1.78125 0 2.78125 1.60937 2.78125 3.4375 0 2.5-1.21875 3.375-2.71875 3.375-1.39062 0-2.29687-1.03125-2.70312-2.21875-.125-.39063-.32813-.59375-.625-.59375-.375 0-1.10938.39062-1.10938 1.15625m0 0"/><path id="b" d="M.875-7C.875-2.8125 2.09375.25 5.5625.25c3.45313 0 4.70313-3.0625 4.70313-7.25 0-4.20312-1.25-7.25-4.70313-7.25C2.09375-14.25.875-11.20312.875-7m2.10938 0c0-3.42187.57812-6.51562 2.57812-6.51562 1.98438 0 2.5625 3.09375 2.5625 6.51562 0 3.40625-.57812 6.51563-2.5625 6.51563-2 0-2.57812-3.10938-2.57812-6.51563m0 0"/><path id="d" d="M2.28125 0h6.89063v-.60937L7.40625-.76563c-.4375-.03124-.6875-.1875-.6875-1.01562v-12.35937L6.60938-14.25l-4.32813.73438v.5l1.95313.25c.35937.04687.5.20312.5.8125v10.17187c0 .39063-.04688.64063-.1875.79688-.10938.15624-.28125.20312-.51563.21874l-1.75.15626Zm0 0"/><path id="e" d="M.875-3.8125C.875-1.70312 2.17188.25 5.5625.25s4.67188-1.95312 4.67188-4.0625c0-2.14062-1.32813-3.375-2.76563-3.70312v-.04688c1.28125-.34375 2.29688-1.40625 2.29688-3.125 0-2.28125-1.79688-3.5625-4.20313-3.5625-2.42187 0-4.21875 1.28125-4.21875 3.5625 0 1.71875 1.0625 2.78125 2.3125 3.125v.04688C2.25-7.1875.875-5.95312.875-3.8125m2.09375.0625c0-1.92187.90625-3.34375 2.59375-3.34375 1.67188 0 2.57813 1.42188 2.57813 3.34375 0 1.85938-.82813 3.26563-2.57813 3.26563-1.76562 0-2.59375-1.40625-2.59375-3.26563m.40625-6.98437c0-1.60938.75-2.78125 2.1875-2.78125 1.42188 0 2.1875 1.17187 2.1875 2.78125 0 1.4375-.67187 2.875-2.1875 2.875-1.53125 0-2.1875-1.4375-2.1875-2.875m0 0"/><path id="f" d="M.5625-.20312.78125 0h8.67188l.71875-2.76562-.57813-.10938c-.45312 1.14063-.875 1.29688-1.71875 1.29688H2.51563c.34375-1.09375 1.59375-2.59375 3.53125-4 2.01562-1.46875 3.5625-2.40625 3.5625-4.75 0-2.92188-1.9375-3.92188-4.14063-3.92188-2.875 0-4.35937 1.73438-4.35937 2.82813 0 .71875.8125 1.04687 1.17187 1.04687.375 0 .5-.21875.59375-.57812.34375-1.4375 1.15625-2.5625 2.45313-2.5625 1.60937 0 2.07812 1.32812 2.07812 2.875 0 2.25-1.14062 3.51562-2.96875 5.125C1.85938-3.25.95313-1.82812.5625-.20312m0 0"/><path id="g" d="M.92188-6.46875C.92188-1.9375 2.5625.25 5.71875.25c3.09375 0 4.75-1.875 4.75-4.73437 0-2.82813-1.75-4.375-4-4.375-1.65625 0-2.875 1.10937-3.4375 1.8125h-.04687c.03125-4.625 1.34375-6.46875 3.23437-6.46875.96875 0 1.65625.79687 1.96875 2 .0625.25.21875.45312.53125.45312.46875 0 1.125-.39062 1.125-.96875 0-.84375-1.03125-2.21875-3.54687-2.21875-3.32813 0-5.375 2.5625-5.375 7.78125m2.10937 1.51563C3.03125-6.21875 4-7.78125 5.75-7.78125c1.32813 0 2.60938 1.20313 2.60938 3.60938 0 2.20312-.84375 3.6875-2.60938 3.6875-1.82812 0-2.71875-1.95313-2.71875-4.46875m0 0"/><path id="c" d="M1.78125-5.3125h11.54688v-1.21875H1.78125Zm0 0"/></defs><path fill="none" stroke="#000" stroke-miterlimit="10" stroke-width=".89144" d="M28.1836 18.14844V7.4375m0 0h41.14453m0 10.71094V7.4375"/><use xlink:href="#a" x="32.91248" y="34.214"/><use xlink:href="#b" x="53.48632" y="34.214"/><use xlink:href="#b" x="74.06016" y="34.214"/><use xlink:href="#c" x="7.60718" y="60.99309"/><path fill="none" stroke="#000" stroke-miterlimit="10" stroke-width=".89144" d="M28.1836 67.6875h41.14453"/><use xlink:href="#d" x="32.91248" y="60.99309"/><use xlink:href="#e" x="53.48632" y="60.99309"/><use xlink:href="#d" x="32.91248" y="87.76995"/><use xlink:href="#f" x="53.48632" y="87.76995"/><use xlink:href="#b" x="74.06016" y="87.76995"/><use xlink:href="#c" x="7.60718" y="114.5468"/><path fill="none" stroke="#000" stroke-miterlimit="10" stroke-width=".89144" d="M28.1836 121.24219h61.71875"/><use xlink:href="#d" x="32.91248" y="114.5468"/><use xlink:href="#b" x="53.48632" y="114.5468"/><use xlink:href="#e" x="74.06016" y="114.5468"/><use xlink:href="#d" x="53.48508" y="141.32366"/><use xlink:href="#f" x="74.05892" y="141.32366"/><path fill="none" stroke="#000" stroke-miterlimit="10" stroke-width=".89144" d="M100.1914 149.13281V7.4375m0 25.66016h51.4336"/><use xlink:href="#d" x="115.20735" y="26.4038"/><use xlink:href="#e" x="135.78119" y="26.4038"/><use xlink:href="#d" x="115.20735" y="53.1829"/><use xlink:href="#g" x="135.78119" y="53.1829"/></svg>