<svg xmlns="http://www.w3.org/2000/svg" xmlns:xlink="http://www.w3.org/1999/xlink" width="44.457pt" height="70.8pt" viewBox="0 0 44.457 70.8"><defs><path id="a" d="M.3125-1.23437c0 .51562.84375 1.375 2.54688 1.375C4.59375.14063 5.6875-.75 5.6875-2.28125c0-1.60937-1.375-2.07812-2.04687-2.14062v-.0625C4.29688-4.57812 5.34375-5.0625 5.34375-6.25c0-1.34375-1.04687-1.92187-2.34375-1.92187C1.42188-8.17187.64063-7.25.64063-6.75c0 .375.42187.57813.59375.57813q.21093 0 .28124-.23438C1.79689-7.23437 2.23439-7.75 2.92189-7.75c.9375 0 1.1875.82813 1.1875 1.5 0 .71875-.25 1.625-1.28125 1.625-.57813 0-.90625-.10937-1.04688-.10937-.15625 0-.21875.10937-.21875.32812 0 .20313.0625.34375.21875.34375.14063 0 .46875-.125 1.04688-.125 1.03125 0 1.59375.92188 1.59375 1.96875 0 1.4375-.70313 1.9375-1.5625 1.9375-.78125 0-1.3125-.59375-1.54688-1.26562-.07812-.23438-.1875-.34375-.35937-.34375-.20313 0-.64063.23437-.64063.65625m0 0"/><path id="b" d="M.5-4.01562C.5-1.60937 1.20313.14063 3.1875.14063c1.98438 0 2.70313-1.75 2.70313-4.15625S5.17188-8.17187 3.1875-8.17187.5-6.42187.5-4.01562m1.21875 0c0-1.95313.32813-3.73438 1.46875-3.73438 1.14063 0 1.46875 1.78125 1.46875 3.73438S4.32813-.28125 3.1875-.28125c-1.14062 0-1.46875-1.78125-1.46875-3.73437m0 0"/><path id="c" d="M.4375-5.5c0 1.5 1.07813 2.28125 2.3125 2.28125.75 0 1.375-.42187 1.78125-1.01562h.03125c0 .75-.0625 1.71875-.28125 2.5625C4.0625-.89062 3.64063-.28126 2.875-.28126c-.8125 0-1.125-.64062-1.29687-1.20312-.0625-.15626-.125-.25-.34375-.25-.21876 0-.5625.25-.5625.625 0 .51562.64062 1.25 2.09375 1.25.96875 0 1.71875-.35938 2.17187-1 .5-.6875.79688-1.73438.79688-3.48438 0-1.48437-.29688-2.46875-.76563-3.03125-.46875-.53125-1.10937-.79687-1.89062-.79687-1.53125 0-2.64063 1-2.64063 2.67187m1.20313-.32812c0-1.10938.5-1.92188 1.4375-1.92188C4.03125-7.75 4.5-6.60937 4.5-5.45312 4.5-5.25 4.48438-5 4.42188-4.8125c-.20313.5625-.67188.95313-1.3125.95313-.9375 0-1.46875-.82813-1.46875-1.96875m0 0"/></defs><use xlink:href="#a" x="6.97738" y="15.46894"/><use xlink:href="#b" x="18.77451" y="15.46894"/><use xlink:href="#b" x="30.57164" y="15.46894"/><use xlink:href="#a" x="30.5715" y="30.8229"/><use xlink:href="#c" x="6.97738" y="46.17687"/><use xlink:href="#b" x="18.77451" y="46.17687"/><use xlink:href="#b" x="30.57164" y="46.17687"/><use xlink:href="#c" x="6.97738" y="61.53084"/><use xlink:href="#b" x="18.77451" y="61.53084"/><use xlink:href="#b" x="30.57164" y="61.53084"/><path fill="none" stroke="#000" stroke-miterlimit="10" stroke-width=".51116" d="M4.26562 50.01562h35.39062M-7.53125 34.66016h47.18749"/></svg>