<?xml version="1.0" encoding="UTF-8"?>
<svg xmlns="http://www.w3.org/2000/svg" xmlns:xlink="http://www.w3.org/1999/xlink" width="512pt" height="512pt" viewBox="0 0 512 512" version="1.2">
<g id="surface1">
<path style="fill-rule:nonzero;fill:rgb(82.398987%,33.299255%,35.299683%);fill-opacity:1;stroke-width:0.09375;stroke-linecap:butt;stroke-linejoin:miter;stroke:rgb(82.398987%,33.299255%,35.299683%);stroke-opacity:1;stroke-miterlimit:10;" d="M 228.71875 512 L 282.648438 512 C 287.308594 511.699219 291.128906 507.890625 291.320312 503.199219 C 291.378906 497.308594 291.269531 491.421875 291.308594 485.539062 C 291.308594 481.671875 291.308594 477.800781 291.308594 473.929688 C 283.160156 474.550781 275.121094 476.230469 266.929688 476.351562 C 254.601562 476.570312 242.191406 476.839844 229.96875 474.949219 C 226.890625 474.5 223.789062 474.25 220.691406 473.929688 C 220.691406 477.800781 220.691406 481.671875 220.691406 485.539062 C 220.730469 491.421875 220.609375 497.308594 220.679688 503.199219 C 220.871094 507.679688 224.328125 511.320312 228.71875 512 Z M 228.71875 512 " transform="matrix(1,0,0,-1,0,512)"/>
<path style="fill-rule:nonzero;fill:rgb(77.999878%,81.199646%,88.598633%);fill-opacity:1;stroke-width:0.09375;stroke-linecap:butt;stroke-linejoin:miter;stroke:rgb(77.999878%,81.199646%,88.598633%);stroke-opacity:1;stroke-miterlimit:10;" d="M 164.050781 500.511719 C 182.730469 503.859375 201.789062 503.070312 220.679688 503.199219 C 220.609375 497.308594 220.730469 491.421875 220.691406 485.539062 C 203.058594 485.359375 185.269531 486.289062 167.820312 483.238281 C 126.339844 476.980469 87.839844 453.929688 62.148438 420.839844 C 45.109375 399.179688 33.539062 373.191406 29.039062 345.988281 C 25.71875 327.960938 26.609375 309.550781 26.460938 291.308594 C 20.578125 291.269531 14.691406 291.390625 8.800781 291.320312 C 8.851562 304.910156 8.550781 318.519531 9.53125 332.101562 C 12.070312 365.769531 24.101562 398.710938 43.988281 426.019531 C 72.121094 465.339844 116.238281 492.960938 164.050781 500.511719 Z M 164.050781 500.511719 " transform="matrix(1,0,0,-1,0,512)"/>
<path style="fill-rule:nonzero;fill:rgb(77.999878%,81.199646%,88.598633%);fill-opacity:1;stroke-width:0.09375;stroke-linecap:butt;stroke-linejoin:miter;stroke:rgb(77.999878%,81.199646%,88.598633%);stroke-opacity:1;stroke-miterlimit:10;" d="M 291.320312 503.199219 C 310.179688 503.070312 329.21875 503.859375 347.871094 500.519531 C 399.519531 492.429688 446.761719 460.800781 474.429688 416.519531 C 487.480469 396.011719 496.390625 372.851562 500.371094 348.871094 C 503.839844 329.890625 503.089844 310.519531 503.199219 291.320312 C 497.308594 291.390625 491.421875 291.269531 485.539062 291.308594 C 485.371094 309.210938 486.289062 327.28125 483.121094 344.988281 C 475.820312 391.929688 446.941406 434.769531 406.660156 459.800781 C 391.359375 469.5 374.410156 476.621094 356.78125 480.769531 C 335.421875 486.300781 313.191406 485.539062 291.308594 485.539062 C 291.269531 491.421875 291.378906 497.308594 291.320312 503.199219 Z M 291.320312 503.199219 " transform="matrix(1,0,0,-1,0,512)"/>
<path style="fill-rule:nonzero;fill:rgb(100%,39.199829%,39.199829%);fill-opacity:1;stroke-width:0.09375;stroke-linecap:butt;stroke-linejoin:miter;stroke:rgb(100%,39.199829%,39.199829%);stroke-opacity:1;stroke-miterlimit:10;" d="M 229.96875 474.949219 C 242.191406 476.839844 254.601562 476.570312 266.929688 476.351562 C 275.121094 476.230469 283.160156 474.550781 291.308594 473.929688 C 301.871094 472.328125 312.308594 469.828125 322.480469 466.558594 C 322.621094 466.511719 322.890625 466.421875 323.03125 466.371094 C 323.539062 466.199219 324.558594 465.871094 325.058594 465.699219 C 325.289062 465.621094 325.730469 465.460938 325.960938 465.378906 C 326.488281 465.199219 327.558594 464.851562 328.089844 464.671875 C 328.308594 464.589844 328.738281 464.441406 328.949219 464.371094 C 329.460938 464.199219 330.46875 463.859375 330.980469 463.691406 C 331.121094 463.640625 331.398438 463.539062 331.539062 463.488281 C 333.160156 462.910156 334.808594 462.289062 336.410156 461.609375 C 328.011719 439.53125 318.949219 417.691406 310.808594 395.511719 L 310.640625 395.570312 C 275.921875 409.378906 236.078125 409.351562 201.371094 395.558594 L 201.210938 395.5 C 193.039062 417.679688 184 439.519531 175.589844 461.609375 C 177.199219 462.28125 178.808594 462.898438 180.449219 463.488281 C 180.589844 463.539062 180.871094 463.640625 181.011719 463.691406 C 181.519531 463.859375 182.539062 464.199219 183.039062 464.371094 C 183.261719 464.441406 183.691406 464.589844 183.910156 464.671875 C 184.441406 464.851562 185.511719 465.199219 186.039062 465.378906 C 186.269531 465.460938 186.710938 465.621094 186.941406 465.699219 C 187.449219 465.871094 188.460938 466.199219 188.96875 466.371094 C 189.109375 466.421875 189.390625 466.511719 189.53125 466.558594 C 199.691406 469.828125 210.140625 472.328125 220.691406 473.929688 C 223.789062 474.25 226.890625 474.5 229.96875 474.949219 Z M 229.96875 474.949219 " transform="matrix(1,0,0,-1,0,512)"/>
<path style="fill-rule:nonzero;fill:rgb(57.598877%,44.299316%,45.498657%);fill-opacity:0.604;stroke-width:0.09375;stroke-linecap:butt;stroke-linejoin:miter;stroke:rgb(57.598877%,44.299316%,45.498657%);stroke-opacity:0.604;stroke-miterlimit:10;" d="M 188.96875 466.371094 C 189.109375 466.421875 189.390625 466.511719 189.53125 466.558594 C 189.390625 466.511719 189.109375 466.421875 188.96875 466.371094 Z M 188.96875 466.371094 " transform="matrix(1,0,0,-1,0,512)"/>
<path style="fill-rule:nonzero;fill:rgb(57.598877%,44.299316%,45.498657%);fill-opacity:0.604;stroke-width:0.09375;stroke-linecap:butt;stroke-linejoin:miter;stroke:rgb(57.598877%,44.299316%,45.498657%);stroke-opacity:0.604;stroke-miterlimit:10;" d="M 322.480469 466.558594 C 322.621094 466.511719 322.890625 466.421875 323.03125 466.371094 C 322.890625 466.421875 322.621094 466.511719 322.480469 466.558594 Z M 322.480469 466.558594 " transform="matrix(1,0,0,-1,0,512)"/>
<path style="fill-rule:nonzero;fill:rgb(56.098938%,43.499756%,44.299316%);fill-opacity:0.584;stroke-width:0.09375;stroke-linecap:butt;stroke-linejoin:miter;stroke:rgb(56.098938%,43.499756%,44.299316%);stroke-opacity:0.584;stroke-miterlimit:10;" d="M 186.449219 465.578125 L 186.941406 465.699219 C 186.710938 465.621094 186.269531 465.460938 186.039062 465.378906 Z M 186.449219 465.578125 " transform="matrix(1,0,0,-1,0,512)"/>
<path style="fill-rule:nonzero;fill:rgb(56.098938%,43.499756%,44.299316%);fill-opacity:0.584;stroke-width:0.09375;stroke-linecap:butt;stroke-linejoin:miter;stroke:rgb(56.098938%,43.499756%,44.299316%);stroke-opacity:0.584;stroke-miterlimit:10;" d="M 325.058594 465.699219 L 325.550781 465.578125 L 325.960938 465.378906 C 325.730469 465.460938 325.289062 465.621094 325.058594 465.699219 Z M 325.058594 465.699219 " transform="matrix(1,0,0,-1,0,512)"/>
<path style="fill-rule:nonzero;fill:rgb(53.29895%,42.399597%,43.499756%);fill-opacity:0.561;stroke-width:0.09375;stroke-linecap:butt;stroke-linejoin:miter;stroke:rgb(53.29895%,42.399597%,43.499756%);stroke-opacity:0.561;stroke-miterlimit:10;" d="M 183.039062 464.371094 C 183.261719 464.441406 183.691406 464.589844 183.910156 464.671875 C 183.691406 464.589844 183.261719 464.441406 183.039062 464.371094 Z M 183.039062 464.371094 " transform="matrix(1,0,0,-1,0,512)"/>
<path style="fill-rule:nonzero;fill:rgb(53.29895%,42.399597%,43.499756%);fill-opacity:0.561;stroke-width:0.09375;stroke-linecap:butt;stroke-linejoin:miter;stroke:rgb(53.29895%,42.399597%,43.499756%);stroke-opacity:0.561;stroke-miterlimit:10;" d="M 328.089844 464.671875 C 328.308594 464.589844 328.738281 464.441406 328.949219 464.371094 C 328.738281 464.441406 328.308594 464.589844 328.089844 464.671875 Z M 328.089844 464.671875 " transform="matrix(1,0,0,-1,0,512)"/>
<path style="fill-rule:nonzero;fill:rgb(50.999451%,41.19873%,42.399597%);fill-opacity:0.533;stroke-width:0.09375;stroke-linecap:butt;stroke-linejoin:miter;stroke:rgb(50.999451%,41.19873%,42.399597%);stroke-opacity:0.533;stroke-miterlimit:10;" d="M 180.449219 463.488281 C 180.589844 463.539062 180.871094 463.640625 181.011719 463.691406 C 180.871094 463.640625 180.589844 463.539062 180.449219 463.488281 Z M 180.449219 463.488281 " transform="matrix(1,0,0,-1,0,512)"/>
<path style="fill-rule:nonzero;fill:rgb(50.999451%,41.19873%,42.399597%);fill-opacity:0.533;stroke-width:0.09375;stroke-linecap:butt;stroke-linejoin:miter;stroke:rgb(50.999451%,41.19873%,42.399597%);stroke-opacity:0.533;stroke-miterlimit:10;" d="M 330.980469 463.691406 C 331.121094 463.640625 331.398438 463.539062 331.539062 463.488281 C 331.398438 463.539062 331.121094 463.640625 330.980469 463.691406 Z M 330.980469 463.691406 " transform="matrix(1,0,0,-1,0,512)"/>
<path style="fill-rule:nonzero;fill:rgb(93.699646%,94.898987%,97.999573%);fill-opacity:1;stroke-width:0.09375;stroke-linecap:butt;stroke-linejoin:miter;stroke:rgb(93.699646%,94.898987%,97.999573%);stroke-opacity:1;stroke-miterlimit:10;" d="M 82.578125 392.398438 C 106.710938 423.191406 139.210938 447.261719 175.589844 461.609375 C 184 439.519531 193.039062 417.679688 201.210938 395.5 C 162.808594 380.738281 131.230469 349.199219 116.480469 310.78125 C 94.328125 318.980469 72.46875 327.988281 50.390625 336.410156 C 58.390625 356.480469 69.140625 375.46875 82.578125 392.398438 Z M 82.578125 392.398438 " transform="matrix(1,0,0,-1,0,512)"/>
<path style="fill-rule:nonzero;fill:rgb(93.699646%,94.898987%,97.999573%);fill-opacity:1;stroke-width:0.09375;stroke-linecap:butt;stroke-linejoin:miter;stroke:rgb(93.699646%,94.898987%,97.999573%);stroke-opacity:1;stroke-miterlimit:10;" d="M 336.410156 461.609375 C 362.449219 451.300781 386.539062 436.121094 406.941406 416.921875 C 430.839844 394.570312 449.578125 366.828125 461.609375 336.410156 C 439.53125 328 417.671875 318.96875 395.5 310.789062 C 380.761719 349.191406 349.199219 380.738281 310.808594 395.511719 C 318.949219 417.691406 328.011719 439.53125 336.410156 461.609375 Z M 336.410156 461.609375 " transform="matrix(1,0,0,-1,0,512)"/>
<path style="fill-rule:nonzero;fill:rgb(82.398987%,33.299255%,35.299683%);fill-opacity:1;stroke-width:0.09375;stroke-linecap:butt;stroke-linejoin:miter;stroke:rgb(82.398987%,33.299255%,35.299683%);stroke-opacity:1;stroke-miterlimit:10;" d="M 201.371094 395.558594 C 236.078125 409.351562 275.921875 409.378906 310.640625 395.570312 C 307.671875 387.210938 304.25 379.019531 301.050781 370.75 C 289.441406 375 277.328125 377.878906 265 378.960938 C 259.019531 379.039062 253.039062 379.03125 247.058594 378.96875 C 234.710938 377.878906 222.578125 375 210.949219 370.75 C 207.75 379.019531 204.339844 387.210938 201.371094 395.558594 Z M 201.371094 395.558594 " transform="matrix(1,0,0,-1,0,512)"/>
<path style="fill-rule:nonzero;fill:rgb(84.298706%,87.098694%,92.89856%);fill-opacity:1;stroke-width:0.09375;stroke-linecap:butt;stroke-linejoin:miter;stroke:rgb(84.298706%,87.098694%,92.89856%);stroke-opacity:1;stroke-miterlimit:10;" d="M 116.480469 310.78125 C 131.230469 349.199219 162.808594 380.738281 201.210938 395.5 L 201.371094 395.558594 C 204.339844 387.210938 207.75 379.019531 210.949219 370.75 C 179.359375 358.609375 153.390625 332.640625 141.25 301.050781 C 132.980469 304.261719 124.78125 307.648438 116.441406 310.648438 Z M 116.480469 310.78125 " transform="matrix(1,0,0,-1,0,512)"/>
<path style="fill-rule:nonzero;fill:rgb(84.298706%,87.098694%,92.89856%);fill-opacity:1;stroke-width:0.09375;stroke-linecap:butt;stroke-linejoin:miter;stroke:rgb(84.298706%,87.098694%,92.89856%);stroke-opacity:1;stroke-miterlimit:10;" d="M 310.640625 395.570312 L 310.808594 395.511719 C 349.199219 380.738281 380.761719 349.191406 395.5 310.789062 L 395.558594 310.648438 C 387.210938 307.648438 379.019531 304.261719 370.75 301.050781 C 358.609375 332.640625 332.640625 358.609375 301.050781 370.75 C 304.25 379.019531 307.671875 387.210938 310.640625 395.570312 Z M 310.640625 395.570312 " transform="matrix(1,0,0,-1,0,512)"/>
<path style="fill-rule:nonzero;fill:rgb(100%,39.199829%,39.199829%);fill-opacity:1;stroke-width:0.09375;stroke-linecap:butt;stroke-linejoin:miter;stroke:rgb(100%,39.199829%,39.199829%);stroke-opacity:1;stroke-miterlimit:10;" d="M 48.519531 331.550781 C 49.101562 333.191406 49.71875 334.808594 50.390625 336.410156 C 72.46875 327.988281 94.328125 318.980469 116.480469 310.78125 L 116.441406 310.648438 C 102.75 275.941406 102.390625 235.949219 116.628906 201.359375 L 116.300781 201.238281 C 94.261719 192.871094 72.398438 184.039062 50.390625 175.589844 C 49.71875 177.191406 49.101562 178.828125 48.519531 180.449219 C 48.46875 180.589844 48.371094 180.871094 48.320312 181.011719 C 48.148438 181.511719 47.800781 182.53125 47.628906 183.03125 C 47.550781 183.25 47.398438 183.699219 47.320312 183.921875 C 47.140625 184.460938 46.789062 185.519531 46.621094 186.058594 C 46.539062 186.28125 46.378906 186.71875 46.300781 186.949219 C 46.128906 187.449219 45.800781 188.46875 45.628906 188.96875 C 45.578125 189.109375 45.488281 189.390625 45.441406 189.53125 C 42.171875 199.691406 39.660156 210.128906 38.070312 220.691406 C 37.449219 228.820312 35.808594 236.851562 35.671875 245.019531 C 35.410156 257.371094 35.148438 269.820312 37.050781 282.070312 C 37.5 285.140625 37.75 288.230469 38.070312 291.308594 C 39.671875 301.871094 42.171875 312.308594 45.441406 322.46875 C 45.488281 322.609375 45.578125 322.890625 45.628906 323.03125 C 45.800781 323.539062 46.140625 324.550781 46.300781 325.058594 C 46.378906 325.28125 46.539062 325.71875 46.621094 325.949219 C 46.789062 326.480469 47.140625 327.550781 47.320312 328.078125 C 47.398438 328.300781 47.550781 328.75 47.628906 328.96875 C 47.800781 329.480469 48.148438 330.488281 48.320312 330.988281 C 48.371094 331.128906 48.46875 331.410156 48.519531 331.550781 Z M 48.519531 331.550781 " transform="matrix(1,0,0,-1,0,512)"/>
<path style="fill-rule:nonzero;fill:rgb(100%,39.199829%,39.199829%);fill-opacity:1;stroke-width:0.09375;stroke-linecap:butt;stroke-linejoin:miter;stroke:rgb(100%,39.199829%,39.199829%);stroke-opacity:1;stroke-miterlimit:10;" d="M 395.5 310.789062 C 417.671875 318.96875 439.53125 328 461.609375 336.410156 C 462.289062 334.808594 462.878906 333.191406 463.480469 331.550781 C 463.53125 331.410156 463.628906 331.128906 463.679688 330.988281 C 463.851562 330.480469 464.199219 329.46875 464.371094 328.96875 C 464.449219 328.75 464.601562 328.300781 464.679688 328.078125 C 464.859375 327.550781 465.210938 326.480469 465.378906 325.949219 C 465.460938 325.71875 465.621094 325.28125 465.699219 325.050781 C 465.871094 324.550781 466.199219 323.53125 466.371094 323.03125 C 466.421875 322.890625 466.511719 322.609375 466.558594 322.46875 C 469.828125 312.308594 472.328125 301.871094 473.929688 291.308594 C 475.289062 279.570312 476.898438 267.828125 476.46875 255.980469 C 476.929688 244.140625 475.21875 232.421875 473.929688 220.691406 C 472.328125 210.128906 469.828125 199.691406 466.558594 189.53125 C 466.511719 189.390625 466.421875 189.109375 466.371094 188.96875 C 466.199219 188.460938 465.859375 187.449219 465.699219 186.941406 C 465.621094 186.71875 465.460938 186.269531 465.378906 186.050781 C 465.199219 185.519531 464.851562 184.449219 464.679688 183.910156 C 464.601562 183.691406 464.441406 183.25 464.371094 183.03125 C 464.199219 182.519531 463.851562 181.519531 463.679688 181.019531 C 463.628906 180.878906 463.539062 180.609375 463.488281 180.46875 C 462.890625 178.839844 462.289062 177.199219 461.609375 175.601562 C 439.53125 184.011719 417.671875 193.019531 395.511719 201.21875 L 395.550781 201.339844 C 409.378906 236.058594 409.378906 275.929688 395.558594 310.648438 Z M 395.5 310.789062 " transform="matrix(1,0,0,-1,0,512)"/>
<path style="fill-rule:nonzero;fill:rgb(50.999451%,41.19873%,42.399597%);fill-opacity:0.533;stroke-width:0.09375;stroke-linecap:butt;stroke-linejoin:miter;stroke:rgb(50.999451%,41.19873%,42.399597%);stroke-opacity:0.533;stroke-miterlimit:10;" d="M 48.320312 330.988281 C 48.371094 331.128906 48.46875 331.410156 48.519531 331.550781 C 48.46875 331.410156 48.371094 331.128906 48.320312 330.988281 Z M 48.320312 330.988281 " transform="matrix(1,0,0,-1,0,512)"/>
<path style="fill-rule:nonzero;fill:rgb(50.999451%,41.19873%,42.399597%);fill-opacity:0.533;stroke-width:0.09375;stroke-linecap:butt;stroke-linejoin:miter;stroke:rgb(50.999451%,41.19873%,42.399597%);stroke-opacity:0.533;stroke-miterlimit:10;" d="M 463.480469 331.550781 C 463.53125 331.410156 463.628906 331.128906 463.679688 330.988281 C 463.628906 331.128906 463.53125 331.410156 463.480469 331.550781 Z M 463.480469 331.550781 " transform="matrix(1,0,0,-1,0,512)"/>
<path style="fill-rule:nonzero;fill:rgb(53.29895%,42.399597%,43.499756%);fill-opacity:0.561;stroke-width:0.09375;stroke-linecap:butt;stroke-linejoin:miter;stroke:rgb(53.29895%,42.399597%,43.499756%);stroke-opacity:0.561;stroke-miterlimit:10;" d="M 47.429688 328.558594 L 47.628906 328.96875 C 47.550781 328.75 47.398438 328.300781 47.320312 328.078125 Z M 47.429688 328.558594 " transform="matrix(1,0,0,-1,0,512)"/>
<path style="fill-rule:nonzero;fill:rgb(53.29895%,42.399597%,43.499756%);fill-opacity:0.561;stroke-width:0.09375;stroke-linecap:butt;stroke-linejoin:miter;stroke:rgb(53.29895%,42.399597%,43.499756%);stroke-opacity:0.561;stroke-miterlimit:10;" d="M 464.371094 328.96875 L 464.570312 328.558594 L 464.679688 328.078125 C 464.601562 328.300781 464.449219 328.75 464.371094 328.96875 Z M 464.371094 328.96875 " transform="matrix(1,0,0,-1,0,512)"/>
<path style="fill-rule:nonzero;fill:rgb(56.098938%,43.499756%,44.299316%);fill-opacity:0.584;stroke-width:0.09375;stroke-linecap:butt;stroke-linejoin:miter;stroke:rgb(56.098938%,43.499756%,44.299316%);stroke-opacity:0.584;stroke-miterlimit:10;" d="M 46.421875 325.539062 L 46.621094 325.949219 C 46.539062 325.71875 46.378906 325.28125 46.300781 325.058594 Z M 46.421875 325.539062 " transform="matrix(1,0,0,-1,0,512)"/>
<path style="fill-rule:nonzero;fill:rgb(56.098938%,43.499756%,44.299316%);fill-opacity:0.584;stroke-width:0.09375;stroke-linecap:butt;stroke-linejoin:miter;stroke:rgb(56.098938%,43.499756%,44.299316%);stroke-opacity:0.584;stroke-miterlimit:10;" d="M 465.378906 325.949219 L 465.578125 325.539062 L 465.699219 325.050781 C 465.621094 325.28125 465.460938 325.71875 465.378906 325.949219 Z M 465.378906 325.949219 " transform="matrix(1,0,0,-1,0,512)"/>
<path style="fill-rule:nonzero;fill:rgb(57.598877%,44.299316%,45.498657%);fill-opacity:0.604;stroke-width:0.09375;stroke-linecap:butt;stroke-linejoin:miter;stroke:rgb(57.598877%,44.299316%,45.498657%);stroke-opacity:0.604;stroke-miterlimit:10;" d="M 45.441406 322.46875 C 45.488281 322.609375 45.578125 322.890625 45.628906 323.03125 C 45.578125 322.890625 45.488281 322.609375 45.441406 322.46875 Z M 45.441406 322.46875 " transform="matrix(1,0,0,-1,0,512)"/>
<path style="fill-rule:nonzero;fill:rgb(57.598877%,44.299316%,45.498657%);fill-opacity:0.604;stroke-width:0.09375;stroke-linecap:butt;stroke-linejoin:miter;stroke:rgb(57.598877%,44.299316%,45.498657%);stroke-opacity:0.604;stroke-miterlimit:10;" d="M 466.371094 323.03125 C 466.421875 322.890625 466.511719 322.609375 466.558594 322.46875 C 466.511719 322.609375 466.421875 322.890625 466.371094 323.03125 Z M 466.371094 323.03125 " transform="matrix(1,0,0,-1,0,512)"/>
<path style="fill-rule:nonzero;fill:rgb(82.398987%,33.299255%,35.299683%);fill-opacity:1;stroke-width:0.09375;stroke-linecap:butt;stroke-linejoin:miter;stroke:rgb(82.398987%,33.299255%,35.299683%);stroke-opacity:1;stroke-miterlimit:10;" d="M 116.628906 201.359375 C 102.390625 235.949219 102.75 275.941406 116.441406 310.648438 C 124.78125 307.648438 132.980469 304.261719 141.25 301.050781 C 136.121094 286.621094 132.441406 271.398438 132.988281 255.988281 C 132.441406 240.601562 136.109375 225.371094 141.25 210.949219 C 133.039062 207.738281 124.871094 204.449219 116.628906 201.359375 Z M 116.628906 201.359375 " transform="matrix(1,0,0,-1,0,512)"/>
<path style="fill-rule:nonzero;fill:rgb(82.398987%,33.299255%,35.299683%);fill-opacity:1;stroke-width:0.09375;stroke-linecap:butt;stroke-linejoin:miter;stroke:rgb(82.398987%,33.299255%,35.299683%);stroke-opacity:1;stroke-miterlimit:10;" d="M 370.75 301.050781 C 379.019531 304.261719 387.210938 307.648438 395.558594 310.648438 C 409.378906 275.929688 409.378906 236.058594 395.550781 201.339844 C 387.21875 204.359375 379.019531 207.738281 370.75 210.949219 C 374.101562 220.421875 376.910156 230.109375 378.109375 240.109375 C 379.621094 247.96875 378.808594 256.019531 379 263.96875 C 378.109375 276.660156 375.078125 289.109375 370.75 301.050781 Z M 370.75 301.050781 " transform="matrix(1,0,0,-1,0,512)"/>
<path style="fill-rule:nonzero;fill:rgb(82.398987%,33.299255%,35.299683%);fill-opacity:1;stroke-width:0.09375;stroke-linecap:butt;stroke-linejoin:miter;stroke:rgb(82.398987%,33.299255%,35.299683%);stroke-opacity:1;stroke-miterlimit:10;" d="M 0 282.988281 C 0.488281 287.511719 4.238281 291.128906 8.800781 291.320312 C 14.691406 291.390625 20.578125 291.269531 26.460938 291.308594 C 30.328125 291.308594 34.199219 291.308594 38.070312 291.308594 C 37.75 288.230469 37.5 285.140625 37.050781 282.070312 C 35.148438 269.820312 35.410156 257.371094 35.671875 245.019531 C 35.808594 236.851562 37.449219 228.820312 38.070312 220.691406 C 34.199219 220.691406 30.328125 220.691406 26.460938 220.691406 C 20.578125 220.730469 14.691406 220.621094 8.800781 220.679688 C 4.121094 220.871094 0.320312 224.671875 0 229.320312 Z M 0 282.988281 " transform="matrix(1,0,0,-1,0,512)"/>
<path style="fill-rule:nonzero;fill:rgb(82.398987%,33.299255%,35.299683%);fill-opacity:1;stroke-width:0.09375;stroke-linecap:butt;stroke-linejoin:miter;stroke:rgb(82.398987%,33.299255%,35.299683%);stroke-opacity:1;stroke-miterlimit:10;" d="M 473.929688 291.308594 C 477.800781 291.308594 481.671875 291.308594 485.539062 291.308594 C 491.421875 291.269531 497.308594 291.390625 503.199219 291.320312 C 507.679688 291.128906 511.328125 287.660156 512 283.261719 L 512 229.300781 C 511.671875 224.660156 507.871094 220.871094 503.199219 220.679688 C 497.308594 220.609375 491.421875 220.730469 485.539062 220.691406 C 481.671875 220.691406 477.800781 220.691406 473.929688 220.691406 C 475.21875 232.421875 476.929688 244.140625 476.46875 255.980469 C 476.898438 267.828125 475.289062 279.570312 473.929688 291.308594 Z M 473.929688 291.308594 " transform="matrix(1,0,0,-1,0,512)"/>
<path style="fill-rule:nonzero;fill:rgb(77.999878%,81.199646%,88.598633%);fill-opacity:1;stroke-width:0.09375;stroke-linecap:butt;stroke-linejoin:miter;stroke:rgb(77.999878%,81.199646%,88.598633%);stroke-opacity:1;stroke-miterlimit:10;" d="M 8.800781 220.679688 C 14.691406 220.621094 20.578125 220.730469 26.460938 220.691406 C 26.621094 202.761719 25.710938 184.671875 28.890625 166.929688 C 36.21875 120.039062 65.058594 77.238281 105.300781 52.21875 C 123.710938 40.550781 144.5 32.609375 165.988281 29.039062 C 184.03125 25.71875 202.441406 26.609375 220.691406 26.460938 C 220.730469 20.578125 220.609375 14.691406 220.679688 8.800781 C 201.820312 8.929688 182.78125 8.140625 164.128906 11.480469 C 112.449219 19.570312 65.191406 51.230469 37.53125 95.550781 C 21.410156 120.839844 11.761719 150.191406 9.519531 180.078125 C 8.550781 193.601562 8.851562 207.148438 8.800781 220.679688 Z M 8.800781 220.679688 " transform="matrix(1,0,0,-1,0,512)"/>
<path style="fill-rule:nonzero;fill:rgb(77.999878%,81.199646%,88.598633%);fill-opacity:1;stroke-width:0.09375;stroke-linecap:butt;stroke-linejoin:miter;stroke:rgb(77.999878%,81.199646%,88.598633%);stroke-opacity:1;stroke-miterlimit:10;" d="M 485.539062 220.691406 C 491.421875 220.730469 497.308594 220.609375 503.199219 220.679688 C 503.078125 203.609375 503.738281 186.429688 501.339844 169.480469 C 496.371094 131.210938 478.78125 94.761719 452.160156 66.851562 C 423.601562 36.53125 384.511719 16.238281 343.179688 10.761719 C 326.019531 8.230469 308.609375 8.941406 291.320312 8.800781 C 291.390625 14.691406 291.269531 20.578125 291.308594 26.460938 C 313.191406 26.460938 335.421875 25.699219 356.78125 31.230469 C 377.730469 36.148438 397.671875 45.300781 415.128906 57.859375 C 447.539062 80.949219 471.449219 115.871094 480.621094 154.640625 C 486.308594 176.179688 485.539062 198.621094 485.539062 220.691406 Z M 485.539062 220.691406 " transform="matrix(1,0,0,-1,0,512)"/>
<path style="fill-rule:nonzero;fill:rgb(84.298706%,87.098694%,92.89856%);fill-opacity:1;stroke-width:0.09375;stroke-linecap:butt;stroke-linejoin:miter;stroke:rgb(84.298706%,87.098694%,92.89856%);stroke-opacity:1;stroke-miterlimit:10;" d="M 116.628906 201.359375 C 124.871094 204.449219 133.039062 207.738281 141.25 210.949219 C 153.390625 179.359375 179.359375 153.390625 210.949219 141.25 C 207.761719 132.988281 204.328125 124.808594 201.378906 116.460938 L 201.199219 116.519531 C 162.679688 131.21875 131.359375 162.929688 116.300781 201.238281 Z M 116.628906 201.359375 " transform="matrix(1,0,0,-1,0,512)"/>
<path style="fill-rule:nonzero;fill:rgb(84.298706%,87.098694%,92.89856%);fill-opacity:1;stroke-width:0.09375;stroke-linecap:butt;stroke-linejoin:miter;stroke:rgb(84.298706%,87.098694%,92.89856%);stroke-opacity:1;stroke-miterlimit:10;" d="M 301.058594 141.25 C 332.640625 153.390625 358.609375 179.359375 370.75 210.949219 C 379.019531 207.738281 387.21875 204.359375 395.550781 201.339844 L 395.511719 201.21875 C 380.75 162.839844 349.210938 131.191406 310.78125 116.511719 L 310.648438 116.460938 C 307.628906 124.789062 304.261719 132.988281 301.058594 141.25 Z M 301.058594 141.25 " transform="matrix(1,0,0,-1,0,512)"/>
<path style="fill-rule:nonzero;fill:rgb(93.699646%,94.898987%,97.999573%);fill-opacity:1;stroke-width:0.09375;stroke-linecap:butt;stroke-linejoin:miter;stroke:rgb(93.699646%,94.898987%,97.999573%);stroke-opacity:1;stroke-miterlimit:10;" d="M 50.390625 175.589844 C 72.398438 184.039062 94.261719 192.871094 116.300781 201.238281 C 131.359375 162.929688 162.679688 131.21875 201.199219 116.519531 C 193.058594 94.328125 183.988281 72.488281 175.589844 50.390625 C 152.449219 59.589844 130.78125 72.550781 111.960938 88.890625 C 84.78125 112.210938 63.539062 142.300781 50.390625 175.589844 Z M 50.390625 175.589844 " transform="matrix(1,0,0,-1,0,512)"/>
<path style="fill-rule:nonzero;fill:rgb(93.699646%,94.898987%,97.999573%);fill-opacity:1;stroke-width:0.09375;stroke-linecap:butt;stroke-linejoin:miter;stroke:rgb(93.699646%,94.898987%,97.999573%);stroke-opacity:1;stroke-miterlimit:10;" d="M 395.511719 201.21875 C 417.671875 193.019531 439.53125 184.011719 461.609375 175.601562 C 453.601562 155.5 442.828125 136.488281 429.371094 119.539062 C 405.25 88.78125 372.761719 64.730469 336.410156 50.390625 C 327.988281 72.480469 318.96875 94.339844 310.78125 116.511719 C 349.210938 131.191406 380.75 162.839844 395.511719 201.21875 Z M 395.511719 201.21875 " transform="matrix(1,0,0,-1,0,512)"/>
<path style="fill-rule:nonzero;fill:rgb(57.598877%,44.299316%,45.498657%);fill-opacity:0.604;stroke-width:0.09375;stroke-linecap:butt;stroke-linejoin:miter;stroke:rgb(57.598877%,44.299316%,45.498657%);stroke-opacity:0.604;stroke-miterlimit:10;" d="M 45.441406 189.53125 C 45.488281 189.390625 45.578125 189.109375 45.628906 188.96875 C 45.578125 189.109375 45.488281 189.390625 45.441406 189.53125 Z M 45.441406 189.53125 " transform="matrix(1,0,0,-1,0,512)"/>
<path style="fill-rule:nonzero;fill:rgb(57.598877%,44.299316%,45.498657%);fill-opacity:0.604;stroke-width:0.09375;stroke-linecap:butt;stroke-linejoin:miter;stroke:rgb(57.598877%,44.299316%,45.498657%);stroke-opacity:0.604;stroke-miterlimit:10;" d="M 466.371094 188.96875 C 466.421875 189.109375 466.511719 189.390625 466.558594 189.53125 C 466.511719 189.390625 466.421875 189.109375 466.371094 188.96875 Z M 466.371094 188.96875 " transform="matrix(1,0,0,-1,0,512)"/>
<path style="fill-rule:nonzero;fill:rgb(56.098938%,43.499756%,44.299316%);fill-opacity:0.584;stroke-width:0.09375;stroke-linecap:butt;stroke-linejoin:miter;stroke:rgb(56.098938%,43.499756%,44.299316%);stroke-opacity:0.584;stroke-miterlimit:10;" d="M 46.300781 186.949219 C 46.378906 186.71875 46.539062 186.28125 46.621094 186.058594 L 46.421875 186.460938 Z M 46.300781 186.949219 " transform="matrix(1,0,0,-1,0,512)"/>
<path style="fill-rule:nonzero;fill:rgb(56.098938%,43.499756%,44.299316%);fill-opacity:0.584;stroke-width:0.09375;stroke-linecap:butt;stroke-linejoin:miter;stroke:rgb(56.098938%,43.499756%,44.299316%);stroke-opacity:0.584;stroke-miterlimit:10;" d="M 465.378906 186.050781 C 465.460938 186.269531 465.621094 186.71875 465.699219 186.941406 L 465.578125 186.460938 Z M 465.378906 186.050781 " transform="matrix(1,0,0,-1,0,512)"/>
<path style="fill-rule:nonzero;fill:rgb(53.29895%,42.399597%,43.499756%);fill-opacity:0.561;stroke-width:0.09375;stroke-linecap:butt;stroke-linejoin:miter;stroke:rgb(53.29895%,42.399597%,43.499756%);stroke-opacity:0.561;stroke-miterlimit:10;" d="M 47.320312 183.921875 C 47.398438 183.699219 47.550781 183.25 47.628906 183.03125 L 47.429688 183.441406 Z M 47.320312 183.921875 " transform="matrix(1,0,0,-1,0,512)"/>
<path style="fill-rule:nonzero;fill:rgb(53.29895%,42.399597%,43.499756%);fill-opacity:0.561;stroke-width:0.09375;stroke-linecap:butt;stroke-linejoin:miter;stroke:rgb(53.29895%,42.399597%,43.499756%);stroke-opacity:0.561;stroke-miterlimit:10;" d="M 464.371094 183.03125 C 464.441406 183.25 464.601562 183.691406 464.679688 183.910156 L 464.570312 183.429688 Z M 464.371094 183.03125 " transform="matrix(1,0,0,-1,0,512)"/>
<path style="fill-rule:nonzero;fill:rgb(50.999451%,41.19873%,42.399597%);fill-opacity:0.533;stroke-width:0.09375;stroke-linecap:butt;stroke-linejoin:miter;stroke:rgb(50.999451%,41.19873%,42.399597%);stroke-opacity:0.533;stroke-miterlimit:10;" d="M 48.320312 181.011719 C 48.371094 180.871094 48.46875 180.589844 48.519531 180.449219 C 48.46875 180.589844 48.371094 180.871094 48.320312 181.011719 Z M 48.320312 181.011719 " transform="matrix(1,0,0,-1,0,512)"/>
<path style="fill-rule:nonzero;fill:rgb(50.999451%,41.19873%,42.399597%);fill-opacity:0.533;stroke-width:0.09375;stroke-linecap:butt;stroke-linejoin:miter;stroke:rgb(50.999451%,41.19873%,42.399597%);stroke-opacity:0.533;stroke-miterlimit:10;" d="M 463.488281 180.46875 C 463.539062 180.609375 463.628906 180.878906 463.679688 181.019531 C 463.628906 180.878906 463.539062 180.609375 463.488281 180.46875 Z M 463.488281 180.46875 " transform="matrix(1,0,0,-1,0,512)"/>
<path style="fill-rule:nonzero;fill:rgb(82.398987%,33.299255%,35.299683%);fill-opacity:1;stroke-width:0.09375;stroke-linecap:butt;stroke-linejoin:miter;stroke:rgb(82.398987%,33.299255%,35.299683%);stroke-opacity:1;stroke-miterlimit:10;" d="M 210.949219 141.25 C 222.578125 137 234.710938 134.109375 247.058594 133.03125 C 253.039062 132.96875 259.03125 132.960938 265.011719 133.03125 C 277.328125 134.128906 289.441406 137.011719 301.058594 141.25 C 304.261719 132.988281 307.628906 124.789062 310.648438 116.460938 C 275.949219 102.628906 236.078125 102.609375 201.378906 116.460938 C 204.328125 124.808594 207.761719 132.988281 210.949219 141.25 Z M 210.949219 141.25 " transform="matrix(1,0,0,-1,0,512)"/>
<path style="fill-rule:nonzero;fill:rgb(100%,39.199829%,39.199829%);fill-opacity:1;stroke-width:0.09375;stroke-linecap:butt;stroke-linejoin:miter;stroke:rgb(100%,39.199829%,39.199829%);stroke-opacity:1;stroke-miterlimit:10;" d="M 201.199219 116.519531 L 201.378906 116.460938 C 236.078125 102.609375 275.949219 102.628906 310.648438 116.460938 L 310.78125 116.511719 C 318.96875 94.339844 327.988281 72.480469 336.410156 50.390625 C 334.808594 49.710938 333.171875 49.121094 331.550781 48.519531 C 331.410156 48.46875 331.140625 48.371094 331 48.320312 C 330.488281 48.148438 329.480469 47.800781 328.96875 47.628906 C 328.75 47.550781 328.300781 47.398438 328.078125 47.320312 C 327.550781 47.148438 326.480469 46.789062 325.941406 46.621094 C 325.71875 46.539062 325.28125 46.378906 325.058594 46.300781 C 324.550781 46.140625 323.539062 45.800781 323.03125 45.628906 C 322.890625 45.578125 322.609375 45.488281 322.46875 45.441406 C 312.308594 42.160156 301.859375 39.679688 291.308594 38.058594 C 278.941406 36.589844 266.539062 35.089844 254.050781 35.53125 C 242.851562 35.140625 231.789062 36.929688 220.691406 38.070312 C 210.128906 39.660156 199.691406 42.171875 189.53125 45.441406 C 189.390625 45.488281 189.121094 45.578125 188.980469 45.628906 C 188.46875 45.800781 187.449219 46.140625 186.941406 46.300781 C 186.71875 46.378906 186.28125 46.539062 186.058594 46.621094 C 185.519531 46.789062 184.449219 47.148438 183.910156 47.320312 C 183.691406 47.398438 183.25 47.550781 183.03125 47.628906 C 182.53125 47.800781 181.511719 48.148438 181.011719 48.320312 C 180.871094 48.371094 180.589844 48.46875 180.460938 48.511719 C 178.808594 49.121094 177.199219 49.710938 175.589844 50.390625 C 183.988281 72.488281 193.058594 94.328125 201.199219 116.519531 Z M 201.199219 116.519531 " transform="matrix(1,0,0,-1,0,512)"/>
<path style="fill-rule:nonzero;fill:rgb(50.999451%,41.19873%,42.399597%);fill-opacity:0.533;stroke-width:0.09375;stroke-linecap:butt;stroke-linejoin:miter;stroke:rgb(50.999451%,41.19873%,42.399597%);stroke-opacity:0.533;stroke-miterlimit:10;" d="M 180.460938 48.511719 C 180.589844 48.46875 180.871094 48.371094 181.011719 48.320312 C 180.871094 48.371094 180.589844 48.46875 180.460938 48.511719 Z M 180.460938 48.511719 " transform="matrix(1,0,0,-1,0,512)"/>
<path style="fill-rule:nonzero;fill:rgb(50.999451%,41.19873%,42.399597%);fill-opacity:0.533;stroke-width:0.09375;stroke-linecap:butt;stroke-linejoin:miter;stroke:rgb(50.999451%,41.19873%,42.399597%);stroke-opacity:0.533;stroke-miterlimit:10;" d="M 331 48.320312 C 331.140625 48.371094 331.410156 48.46875 331.550781 48.519531 C 331.410156 48.46875 331.140625 48.371094 331 48.320312 Z M 331 48.320312 " transform="matrix(1,0,0,-1,0,512)"/>
<path style="fill-rule:nonzero;fill:rgb(53.29895%,42.399597%,43.499756%);fill-opacity:0.561;stroke-width:0.09375;stroke-linecap:butt;stroke-linejoin:miter;stroke:rgb(53.29895%,42.399597%,43.499756%);stroke-opacity:0.561;stroke-miterlimit:10;" d="M 183.03125 47.628906 C 183.25 47.550781 183.691406 47.398438 183.910156 47.320312 L 183.441406 47.429688 Z M 183.03125 47.628906 " transform="matrix(1,0,0,-1,0,512)"/>
<path style="fill-rule:nonzero;fill:rgb(53.29895%,42.399597%,43.499756%);fill-opacity:0.561;stroke-width:0.09375;stroke-linecap:butt;stroke-linejoin:miter;stroke:rgb(53.29895%,42.399597%,43.499756%);stroke-opacity:0.561;stroke-miterlimit:10;" d="M 328.078125 47.320312 C 328.300781 47.398438 328.75 47.550781 328.96875 47.628906 L 328.558594 47.441406 Z M 328.078125 47.320312 " transform="matrix(1,0,0,-1,0,512)"/>
<path style="fill-rule:nonzero;fill:rgb(56.098938%,43.499756%,44.299316%);fill-opacity:0.584;stroke-width:0.09375;stroke-linecap:butt;stroke-linejoin:miter;stroke:rgb(56.098938%,43.499756%,44.299316%);stroke-opacity:0.584;stroke-miterlimit:10;" d="M 186.058594 46.621094 C 186.28125 46.539062 186.71875 46.378906 186.941406 46.300781 L 186.460938 46.429688 Z M 186.058594 46.621094 " transform="matrix(1,0,0,-1,0,512)"/>
<path style="fill-rule:nonzero;fill:rgb(56.098938%,43.499756%,44.299316%);fill-opacity:0.584;stroke-width:0.09375;stroke-linecap:butt;stroke-linejoin:miter;stroke:rgb(56.098938%,43.499756%,44.299316%);stroke-opacity:0.584;stroke-miterlimit:10;" d="M 325.058594 46.300781 C 325.28125 46.378906 325.71875 46.539062 325.941406 46.621094 L 325.539062 46.421875 Z M 325.058594 46.300781 " transform="matrix(1,0,0,-1,0,512)"/>
<path style="fill-rule:nonzero;fill:rgb(57.598877%,44.299316%,45.498657%);fill-opacity:0.604;stroke-width:0.09375;stroke-linecap:butt;stroke-linejoin:miter;stroke:rgb(57.598877%,44.299316%,45.498657%);stroke-opacity:0.604;stroke-miterlimit:10;" d="M 188.980469 45.628906 C 189.121094 45.578125 189.390625 45.488281 189.53125 45.441406 C 189.390625 45.488281 189.121094 45.578125 188.980469 45.628906 Z M 188.980469 45.628906 " transform="matrix(1,0,0,-1,0,512)"/>
<path style="fill-rule:nonzero;fill:rgb(57.598877%,44.299316%,45.498657%);fill-opacity:0.604;stroke-width:0.09375;stroke-linecap:butt;stroke-linejoin:miter;stroke:rgb(57.598877%,44.299316%,45.498657%);stroke-opacity:0.604;stroke-miterlimit:10;" d="M 322.46875 45.441406 C 322.609375 45.488281 322.890625 45.578125 323.03125 45.628906 C 322.890625 45.578125 322.609375 45.488281 322.46875 45.441406 Z M 322.46875 45.441406 " transform="matrix(1,0,0,-1,0,512)"/>
<path style="fill-rule:nonzero;fill:rgb(82.398987%,33.299255%,35.299683%);fill-opacity:1;stroke-width:0.09375;stroke-linecap:butt;stroke-linejoin:miter;stroke:rgb(82.398987%,33.299255%,35.299683%);stroke-opacity:1;stroke-miterlimit:10;" d="M 220.691406 38.070312 C 231.789062 36.929688 242.851562 35.140625 254.050781 35.53125 C 266.539062 35.089844 278.941406 36.589844 291.308594 38.058594 C 291.308594 34.199219 291.308594 30.328125 291.308594 26.460938 C 291.269531 20.578125 291.390625 14.691406 291.320312 8.800781 C 291.128906 4.128906 287.339844 0.328125 282.699219 0 L 228.96875 0 C 224.46875 0.519531 220.871094 4.25 220.679688 8.800781 C 220.609375 14.691406 220.730469 20.578125 220.691406 26.460938 C 220.691406 30.328125 220.691406 34.199219 220.691406 38.070312 Z M 220.691406 38.070312 " transform="matrix(1,0,0,-1,0,512)"/>
</g>
</svg>
