<?xml version="1.0" encoding="UTF-8"?>
<svg xmlns="http://www.w3.org/2000/svg" xmlns:xlink="http://www.w3.org/1999/xlink" width="512pt" height="512pt" viewBox="0 0 512 512" version="1.2">
<g id="surface1">
<path style="fill-rule:nonzero;fill:rgb(47.799683%,80.799866%,97.999573%);fill-opacity:1;stroke-width:0.09375;stroke-linecap:butt;stroke-linejoin:miter;stroke:rgb(47.799683%,80.799866%,97.999573%);stroke-opacity:1;stroke-miterlimit:10;" d="M 68.570312 458.289062 C 79.621094 461.660156 92.320312 458.648438 100.648438 450.640625 C 111.261719 440.289062 119.398438 426.839844 121.351562 411.960938 C 123.851562 394.328125 117.800781 376.488281 108.03125 361.960938 C 104.878906 357.578125 97.421875 358.03125 94.679688 362.621094 C 93.058594 366.039062 92 369.75 89.851562 372.910156 C 80.78125 387.070312 65.261719 394.980469 53.941406 407.03125 C 44.808594 417.289062 43.609375 433.578125 51.171875 445.050781 C 55.148438 451.339844 61.410156 456.179688 68.570312 458.289062 Z M 68.570312 458.289062 " transform="matrix(1,0,0,-1,0,512)"/>
<path style="fill-rule:nonzero;fill:rgb(55.699158%,68.598938%,88.598633%);fill-opacity:1;stroke-width:0.09375;stroke-linecap:butt;stroke-linejoin:miter;stroke:rgb(55.699158%,68.598938%,88.598633%);stroke-opacity:1;stroke-miterlimit:10;" d="M 330.011719 396.808594 C 343.078125 398.890625 356.53125 398.929688 369.53125 396.339844 C 394.851562 391.441406 418.148438 377.429688 434.839844 357.839844 C 451.351562 338.769531 461.421875 314.128906 462.449219 288.890625 C 463.128906 270.859375 459.390625 252.390625 450.480469 236.601562 C 437.570312 257.511719 422.5 276.988281 406.820312 295.878906 C 397.679688 306.660156 388.511719 317.46875 378.019531 326.980469 C 361.328125 342.128906 343.769531 356.320312 325.578125 369.640625 C 322.789062 371.699219 319.980469 373.730469 316.980469 375.460938 L 317.128906 375.738281 C 320.769531 383.160156 326.300781 389.449219 330.011719 396.808594 Z M 330.011719 396.808594 " transform="matrix(1,0,0,-1,0,512)"/>
<path style="fill-rule:nonzero;fill:rgb(41.598511%,58.799744%,84.298706%);fill-opacity:1;stroke-width:0.09375;stroke-linecap:butt;stroke-linejoin:miter;stroke:rgb(41.598511%,58.799744%,84.298706%);stroke-opacity:1;stroke-miterlimit:10;" d="M 300.46875 386.359375 C 309.589844 391.539062 319.699219 394.960938 330.011719 396.808594 C 326.300781 389.449219 320.769531 383.160156 317.128906 375.738281 C 311.480469 379.121094 306.089844 382.929688 300.46875 386.359375 Z M 300.46875 386.359375 " transform="matrix(1,0,0,-1,0,512)"/>
<path style="fill-rule:nonzero;fill:rgb(100%,74.899292%,61.999512%);fill-opacity:1;stroke-width:0.09375;stroke-linecap:butt;stroke-linejoin:miter;stroke:rgb(100%,74.899292%,61.999512%);stroke-opacity:1;stroke-miterlimit:10;" d="M 259.519531 342.609375 C 268.03125 361.089844 282.660156 376.550781 300.46875 386.359375 C 306.089844 382.929688 311.480469 379.121094 317.128906 375.738281 L 316.980469 375.460938 C 310.691406 364.21875 305.199219 352.441406 301.628906 340.039062 C 299.789062 338.820312 298.109375 337.359375 296.609375 335.738281 C 292.121094 337.640625 287.820312 340.320312 282.851562 340.730469 C 276.410156 341.5 269.171875 339.050781 265.71875 333.289062 C 262.058594 327.691406 262.21875 320.421875 264.488281 314.328125 C 268.800781 303.269531 279.941406 295.109375 291.929688 295.101562 C 289.539062 270.878906 293.359375 245.648438 304.878906 224.039062 C 306.851562 219.949219 309.789062 216.410156 311.601562 212.21875 C 306.691406 211.679688 301.859375 210.511719 297.179688 208.941406 C 277.738281 223.628906 262.539062 244.25 255.46875 267.660156 C 254.648438 270.511719 254.199219 273.578125 252.339844 275.988281 L 253.058594 276.03125 C 247.761719 298.121094 249.96875 321.980469 259.519531 342.609375 Z M 259.519531 342.609375 " transform="matrix(1,0,0,-1,0,512)"/>
<path style="fill-rule:nonzero;fill:rgb(100%,83.099365%,74.499512%);fill-opacity:1;stroke-width:0.09375;stroke-linecap:butt;stroke-linejoin:miter;stroke:rgb(100%,83.099365%,74.499512%);stroke-opacity:1;stroke-miterlimit:10;" d="M 301.628906 340.039062 C 305.199219 352.441406 310.691406 364.21875 316.980469 375.460938 C 319.980469 373.730469 322.789062 371.699219 325.578125 369.640625 C 343.769531 356.320312 361.328125 342.128906 378.019531 326.980469 C 388.511719 317.46875 397.679688 306.660156 406.820312 295.878906 C 422.5 276.988281 437.570312 257.511719 450.480469 236.601562 C 444.75 226.699219 437.808594 217.269531 428.839844 210.078125 C 420.371094 207.921875 413.03125 202.878906 404.648438 200.511719 C 389.109375 195.660156 371.890625 196.511719 356.890625 202.839844 C 353.410156 204.289062 350.089844 206.101562 346.609375 207.519531 C 335.589844 212.03125 323.421875 213.640625 311.601562 212.21875 C 309.789062 216.410156 306.851562 219.949219 304.878906 224.039062 C 293.359375 245.648438 289.539062 270.878906 291.929688 295.101562 C 297.378906 295.808594 303 298.308594 305.789062 303.289062 C 309.691406 309.75 308.648438 317.898438 305.550781 324.460938 C 307.050781 325.429688 308.480469 326.519531 310.078125 327.339844 C 313.21875 328.660156 316.78125 325.28125 315.828125 322.058594 C 314.601562 319.421875 311.960938 317.179688 312.480469 313.980469 C 312.71875 308.699219 319.289062 305.289062 323.71875 308.191406 C 332.378906 314.441406 333.25 328.308594 326.050781 336.019531 C 320.191406 342.960938 309.441406 344.539062 301.628906 340.039062 M 328.390625 291.480469 C 323.828125 290.339844 322.21875 285.128906 323.039062 280.929688 C 323.859375 267.761719 336.980469 256.949219 350.078125 258.980469 C 355.410156 259.921875 357.859375 267.171875 354.160156 271.128906 C 350.78125 275.53125 344.011719 272.179688 340.578125 276.609375 C 336.460938 280.011719 339.550781 286.300781 335.601562 289.71875 C 333.730469 291.53125 330.878906 292.199219 328.390625 291.480469 M 372.75 260.121094 C 369.558594 256.140625 372.039062 249.511719 377.03125 248.5 C 380.019531 247.550781 382.75 249.300781 385.011719 251.050781 C 387.511719 252.941406 391.429688 250.960938 391.738281 247.941406 C 392.210938 245.339844 389.761719 243.648438 388.75 241.539062 C 383.371094 243.628906 377.429688 245.140625 371.710938 243.53125 C 364.980469 241.769531 360.070312 235.449219 359.46875 228.601562 C 358.640625 218.621094 364.449219 208.960938 372.589844 203.5 C 379.28125 198.761719 388.660156 196.910156 396.171875 200.800781 C 401.421875 203.480469 404.550781 209.199219 404.890625 214.980469 C 405.371094 221.148438 402.890625 227.179688 399.390625 232.140625 C 405.730469 236.75 408.261719 245.648438 405.890625 253.039062 C 404.089844 259.109375 399.070312 264.109375 393 265.910156 C 385.921875 268.140625 377.488281 265.929688 372.75 260.121094 Z M 372.75 260.121094 " transform="matrix(1,0,0,-1,0,512)"/>
<path style="fill-rule:nonzero;fill:rgb(100%,74.899292%,61.999512%);fill-opacity:1;stroke-width:0.09375;stroke-linecap:butt;stroke-linejoin:miter;stroke:rgb(100%,74.899292%,61.999512%);stroke-opacity:1;stroke-miterlimit:10;" d="M 176.121094 371.769531 C 182.328125 374.488281 189.828125 374.070312 195.679688 370.628906 C 202.558594 366.761719 206.929688 358.921875 206.601562 351.039062 C 206.140625 341.019531 206.488281 330.960938 208.058594 321.050781 C 210.871094 303.429688 216.800781 285.308594 229.761719 272.480469 C 215.371094 268.191406 202.191406 260.058594 191.820312 249.230469 C 172.910156 272.390625 164.761719 302.550781 162.988281 331.960938 C 162.601562 339.308594 162.550781 346.699219 163.070312 354.039062 C 163.75 361.75 169.011719 368.789062 176.121094 371.769531 Z M 176.121094 371.769531 " transform="matrix(1,0,0,-1,0,512)"/>
<path style="fill-rule:nonzero;fill:rgb(30.599976%,33.699036%,37.599182%);fill-opacity:1;stroke-width:0.09375;stroke-linecap:butt;stroke-linejoin:miter;stroke:rgb(30.599976%,33.699036%,37.599182%);stroke-opacity:1;stroke-miterlimit:10;" d="M 301.628906 340.039062 C 309.441406 344.539062 320.191406 342.960938 326.050781 336.019531 C 333.25 328.308594 332.378906 314.441406 323.71875 308.191406 C 319.289062 305.289062 312.71875 308.699219 312.480469 313.980469 C 311.960938 317.179688 314.601562 319.421875 315.828125 322.058594 C 316.78125 325.28125 313.21875 328.660156 310.078125 327.339844 C 308.480469 326.519531 307.050781 325.429688 305.550781 324.460938 C 302.28125 323.550781 298.460938 324.589844 296.640625 327.589844 C 294.949219 330.050781 295.351562 333.199219 296.609375 335.738281 C 298.109375 337.359375 299.789062 338.820312 301.628906 340.039062 Z M 301.628906 340.039062 " transform="matrix(1,0,0,-1,0,512)"/>
<path style="fill-rule:nonzero;fill:rgb(92.89856%,63.09967%,67.098999%);fill-opacity:1;stroke-width:0.09375;stroke-linecap:butt;stroke-linejoin:miter;stroke:rgb(92.89856%,63.09967%,67.098999%);stroke-opacity:1;stroke-miterlimit:10;" d="M 265.71875 333.289062 C 269.171875 339.050781 276.410156 341.5 282.851562 340.730469 C 287.820312 340.320312 292.121094 337.640625 296.609375 335.738281 C 295.351562 333.199219 294.949219 330.050781 296.640625 327.589844 C 298.460938 324.589844 302.28125 323.550781 305.550781 324.460938 C 308.648438 317.898438 309.691406 309.75 305.789062 303.289062 C 303 298.308594 297.378906 295.808594 291.929688 295.101562 C 279.941406 295.109375 268.800781 303.269531 264.488281 314.328125 C 262.21875 320.421875 262.058594 327.691406 265.71875 333.289062 Z M 265.71875 333.289062 " transform="matrix(1,0,0,-1,0,512)"/>
<path style="fill-rule:nonzero;fill:rgb(63.899231%,87.098694%,99.598694%);fill-opacity:1;stroke-width:0.09375;stroke-linecap:butt;stroke-linejoin:miter;stroke:rgb(63.899231%,87.098694%,99.598694%);stroke-opacity:1;stroke-miterlimit:10;" d="M 52.050781 318.808594 C 68.808594 319.871094 86.449219 315.441406 99.378906 304.371094 C 112.019531 293.730469 119.46875 278.078125 122.78125 262.121094 C 124.121094 256.640625 118.511719 251.21875 113.078125 252.53125 C 109.371094 253.808594 105.890625 255.78125 101.988281 256.480469 C 85.359375 260.039062 68.621094 254.371094 51.921875 255.21875 C 36.058594 256.449219 22.789062 271.089844 23.140625 287 C 22.828125 302.96875 36.351562 317.238281 52.050781 318.808594 Z M 52.050781 318.808594 " transform="matrix(1,0,0,-1,0,512)"/>
<path style="fill-rule:nonzero;fill:rgb(30.599976%,33.699036%,37.599182%);fill-opacity:1;stroke-width:0.09375;stroke-linecap:butt;stroke-linejoin:miter;stroke:rgb(30.599976%,33.699036%,37.599182%);stroke-opacity:1;stroke-miterlimit:10;" d="M 328.390625 291.480469 C 330.878906 292.199219 333.730469 291.53125 335.601562 289.71875 C 339.550781 286.300781 336.460938 280.011719 340.578125 276.609375 C 344.011719 272.179688 350.78125 275.53125 354.160156 271.128906 C 357.859375 267.171875 355.410156 259.921875 350.078125 258.980469 C 336.980469 256.949219 323.859375 267.761719 323.039062 280.929688 C 322.21875 285.128906 323.828125 290.339844 328.390625 291.480469 Z M 328.390625 291.480469 " transform="matrix(1,0,0,-1,0,512)"/>
<path style="fill-rule:nonzero;fill:rgb(100%,83.099365%,74.499512%);fill-opacity:1;stroke-width:0.09375;stroke-linecap:butt;stroke-linejoin:miter;stroke:rgb(100%,83.099365%,74.499512%);stroke-opacity:1;stroke-miterlimit:10;" d="M 229.761719 272.480469 C 237.101562 274.601562 244.710938 275.710938 252.339844 275.988281 C 254.199219 273.578125 254.648438 270.511719 255.46875 267.660156 C 262.539062 244.25 277.738281 223.628906 297.179688 208.941406 C 293.308594 207.621094 289.628906 205.851562 285.960938 204.089844 C 269.871094 196.480469 250.859375 195.269531 233.96875 200.941406 C 227.101562 203.070312 220.988281 207.039062 214.128906 209.171875 C 204.339844 212.449219 193.851562 213.371094 183.601562 212.289062 C 179.078125 211.898438 174.691406 210.730469 170.351562 209.460938 C 173.859375 224.308594 181.328125 238.148438 191.820312 249.230469 C 202.191406 260.058594 215.371094 268.191406 229.761719 272.480469 Z M 229.761719 272.480469 " transform="matrix(1,0,0,-1,0,512)"/>
<path style="fill-rule:nonzero;fill:rgb(30.599976%,33.699036%,37.599182%);fill-opacity:1;stroke-width:0.09375;stroke-linecap:butt;stroke-linejoin:miter;stroke:rgb(30.599976%,33.699036%,37.599182%);stroke-opacity:1;stroke-miterlimit:10;" d="M 372.75 260.121094 C 377.488281 265.929688 385.921875 268.140625 393 265.910156 C 399.070312 264.109375 404.089844 259.109375 405.890625 253.039062 C 408.261719 245.648438 405.730469 236.75 399.390625 232.140625 C 396.878906 231.101562 393.878906 230.960938 391.589844 232.601562 C 388.640625 234.460938 387.679688 238.339844 388.75 241.539062 C 389.761719 243.648438 392.210938 245.339844 391.738281 247.941406 C 391.429688 250.960938 387.511719 252.941406 385.011719 251.050781 C 382.75 249.300781 380.019531 247.550781 377.03125 248.5 C 372.039062 249.511719 369.558594 256.140625 372.75 260.121094 Z M 372.75 260.121094 " transform="matrix(1,0,0,-1,0,512)"/>
<path style="fill-rule:nonzero;fill:rgb(92.89856%,63.09967%,67.098999%);fill-opacity:1;stroke-width:0.09375;stroke-linecap:butt;stroke-linejoin:miter;stroke:rgb(92.89856%,63.09967%,67.098999%);stroke-opacity:1;stroke-miterlimit:10;" d="M 371.710938 243.53125 C 377.429688 245.140625 383.371094 243.628906 388.75 241.539062 C 387.679688 238.339844 388.640625 234.460938 391.589844 232.601562 C 393.878906 230.960938 396.878906 231.101562 399.390625 232.140625 C 402.890625 227.179688 405.371094 221.148438 404.890625 214.980469 C 404.550781 209.199219 401.421875 203.480469 396.171875 200.800781 C 388.660156 196.910156 379.28125 198.761719 372.589844 203.5 C 364.449219 208.960938 358.640625 218.621094 359.46875 228.601562 C 360.070312 235.449219 364.980469 241.769531 371.710938 243.53125 Z M 371.710938 243.53125 " transform="matrix(1,0,0,-1,0,512)"/>
<path style="fill-rule:nonzero;fill:rgb(47.799683%,80.799866%,97.999573%);fill-opacity:1;stroke-width:0.09375;stroke-linecap:butt;stroke-linejoin:miter;stroke:rgb(47.799683%,80.799866%,97.999573%);stroke-opacity:1;stroke-miterlimit:10;" d="M 31.210938 204.851562 C 47.269531 213.269531 66.589844 215.308594 83.980469 210.011719 C 90.21875 208.359375 95.851562 205.148438 101.769531 202.671875 C 119.578125 195.429688 140.378906 196.011719 157.78125 204.191406 C 161.871094 206.148438 165.980469 208.160156 170.351562 209.460938 C 174.691406 210.730469 179.078125 211.898438 183.601562 212.289062 C 183.910156 208.421875 182.300781 204.769531 181.789062 200.988281 C 179.019531 184.140625 179.179688 166.96875 180.121094 149.96875 C 182.660156 120.75 188.75 91.089844 203.371094 65.351562 C 205.898438 60.679688 209.421875 56.660156 212.328125 52.230469 C 166.898438 51.941406 121.460938 52.179688 76.03125 52.101562 C 69.050781 52.21875 62.011719 51.671875 55.101562 52.859375 C 35.539062 55.441406 17.800781 67.898438 8.121094 85 C 3.71875 92.558594 1.371094 101.070312 0 109.648438 L 0 169.808594 C 1.289062 179.121094 5.789062 188.019531 12.910156 194.199219 C 18.238281 198.941406 25 201.511719 31.210938 204.851562 M 110.359375 136.511719 C 98.511719 136.238281 86.628906 133.441406 76.191406 127.789062 C 72.960938 125.921875 71.628906 121.601562 73.28125 118.230469 C 74.75 113.988281 80.378906 112.929688 83.980469 115.011719 C 94.480469 120.140625 106.359375 122.441406 118 121.25 C 126.191406 120.730469 133.96875 117.828125 141.378906 114.5 C 145.878906 112.550781 151.570312 116.089844 151.378906 121.109375 C 151.839844 126.320312 146.460938 128.910156 142.371094 130.429688 C 132.289062 134.691406 121.300781 136.769531 110.359375 136.511719 Z M 110.359375 136.511719 " transform="matrix(1,0,0,-1,0,512)"/>
<path style="fill-rule:nonzero;fill:rgb(63.899231%,87.098694%,99.598694%);fill-opacity:1;stroke-width:0.09375;stroke-linecap:butt;stroke-linejoin:miter;stroke:rgb(63.899231%,87.098694%,99.598694%);stroke-opacity:1;stroke-miterlimit:10;" d="M 183.601562 212.289062 C 193.851562 213.371094 204.339844 212.449219 214.128906 209.171875 C 220.988281 207.039062 227.101562 203.070312 233.96875 200.941406 C 250.859375 195.269531 269.871094 196.480469 285.960938 204.089844 C 289.628906 205.851562 293.308594 207.621094 297.179688 208.941406 C 301.859375 210.511719 306.691406 211.679688 311.601562 212.21875 C 323.421875 213.640625 335.589844 212.03125 346.609375 207.519531 C 350.089844 206.101562 353.410156 204.289062 356.890625 202.839844 C 371.890625 196.511719 389.109375 195.660156 404.648438 200.511719 C 413.03125 202.878906 420.371094 207.921875 428.839844 210.078125 C 441.589844 213.699219 455.371094 213.609375 468.070312 209.808594 C 476.488281 207.410156 484.078125 202.921875 491.839844 198.988281 C 503.421875 192.941406 511.109375 180.578125 512 167.601562 L 512 113.488281 C 511.109375 98.820312 505.371094 84.398438 495.371094 73.570312 C 483.710938 60.511719 466.519531 52.621094 449 52.371094 C 370.109375 52.210938 291.21875 52.5 212.328125 52.230469 C 209.421875 56.660156 205.898438 60.679688 203.371094 65.351562 C 188.75 91.089844 182.660156 120.75 180.121094 149.96875 C 179.179688 166.96875 179.019531 184.140625 181.789062 200.988281 C 182.300781 204.769531 183.910156 208.421875 183.601562 212.289062 M 222.398438 147.589844 C 216.238281 146.398438 214.390625 137.148438 219.941406 134.019531 C 241.78125 122.230469 269.398438 122.160156 291.378906 133.601562 C 295.21875 135.410156 296.628906 140.808594 294.238281 144.300781 C 292.660156 146.53125 289.921875 148.25 287.101562 147.648438 C 284.929688 147.179688 282.960938 146.078125 280.921875 145.230469 C 265.25 138.359375 246.789062 138.410156 231.109375 145.230469 C 228.320312 146.320312 225.53125 148.261719 222.398438 147.589844 M 395.339844 128.539062 C 387.328125 127.859375 379.480469 125.839844 372.058594 122.78125 C 368.980469 121.480469 365.550781 120.179688 363.71875 117.179688 C 361.511719 113.179688 363.949219 107.359375 368.570312 106.550781 C 371.671875 105.570312 374.539062 107.460938 377.28125 108.609375 C 393.980469 116.101562 414.050781 115.550781 430.378906 107.308594 C 434.53125 104.75 440.929688 107.28125 441.679688 112.230469 C 442.511719 115.539062 440.570312 119.03125 437.621094 120.539062 C 424.628906 127.019531 409.820312 129.921875 395.339844 128.539062 Z M 395.339844 128.539062 " transform="matrix(1,0,0,-1,0,512)"/>
<path style="fill-rule:nonzero;fill:rgb(47.799683%,80.799866%,97.999573%);fill-opacity:1;stroke-width:0.09375;stroke-linecap:butt;stroke-linejoin:miter;stroke:rgb(47.799683%,80.799866%,97.999573%);stroke-opacity:1;stroke-miterlimit:10;" d="M 222.398438 147.589844 C 225.53125 148.261719 228.320312 146.320312 231.109375 145.230469 C 246.789062 138.410156 265.25 138.359375 280.921875 145.230469 C 282.960938 146.078125 284.929688 147.179688 287.101562 147.648438 C 289.921875 148.25 292.660156 146.53125 294.238281 144.300781 C 296.628906 140.808594 295.21875 135.410156 291.378906 133.601562 C 269.398438 122.160156 241.78125 122.230469 219.941406 134.019531 C 214.390625 137.148438 216.238281 146.398438 222.398438 147.589844 Z M 222.398438 147.589844 " transform="matrix(1,0,0,-1,0,512)"/>
<path style="fill-rule:nonzero;fill:rgb(63.899231%,87.098694%,99.598694%);fill-opacity:1;stroke-width:0.09375;stroke-linecap:butt;stroke-linejoin:miter;stroke:rgb(63.899231%,87.098694%,99.598694%);stroke-opacity:1;stroke-miterlimit:10;" d="M 110.359375 136.511719 C 121.300781 136.769531 132.289062 134.691406 142.371094 130.429688 C 146.460938 128.910156 151.839844 126.320312 151.378906 121.109375 C 151.570312 116.089844 145.878906 112.550781 141.378906 114.5 C 133.96875 117.828125 126.191406 120.730469 118 121.25 C 106.359375 122.441406 94.480469 120.140625 83.980469 115.011719 C 80.378906 112.929688 74.75 113.988281 73.28125 118.230469 C 71.628906 121.601562 72.960938 125.921875 76.191406 127.789062 C 86.628906 133.441406 98.511719 136.238281 110.359375 136.511719 Z M 110.359375 136.511719 " transform="matrix(1,0,0,-1,0,512)"/>
<path style="fill-rule:nonzero;fill:rgb(47.799683%,80.799866%,97.999573%);fill-opacity:1;stroke-width:0.09375;stroke-linecap:butt;stroke-linejoin:miter;stroke:rgb(47.799683%,80.799866%,97.999573%);stroke-opacity:1;stroke-miterlimit:10;" d="M 395.339844 128.539062 C 409.820312 129.921875 424.628906 127.019531 437.621094 120.539062 C 440.570312 119.03125 442.511719 115.539062 441.679688 112.230469 C 440.929688 107.28125 434.53125 104.75 430.378906 107.308594 C 414.050781 115.550781 393.980469 116.101562 377.28125 108.609375 C 374.539062 107.460938 371.671875 105.570312 368.570312 106.550781 C 363.949219 107.359375 361.511719 113.179688 363.71875 117.179688 C 365.550781 120.179688 368.980469 121.480469 372.058594 122.78125 C 379.480469 125.839844 387.328125 127.859375 395.339844 128.539062 Z M 395.339844 128.539062 " transform="matrix(1,0,0,-1,0,512)"/>
</g>
</svg>
