<?xml version="1.0" encoding="UTF-8"?>
<svg xmlns="http://www.w3.org/2000/svg" xmlns:xlink="http://www.w3.org/1999/xlink" width="512pt" height="512pt" viewBox="0 0 512 512" version="1.2">
<g id="surface1">
<path style="fill-rule:nonzero;fill:rgb(30.599976%,66.699219%,9.408569%);fill-opacity:1;stroke-width:0.09375;stroke-linecap:butt;stroke-linejoin:miter;stroke:rgb(30.599976%,66.699219%,9.408569%);stroke-opacity:1;stroke-miterlimit:10;" d="M 242.28125 503.789062 C 245.519531 504.289062 248.78125 503.671875 251.988281 503.199219 C 251.480469 503.078125 250.46875 502.851562 249.960938 502.738281 C 265.980469 489.980469 281.398438 476.320312 294.820312 460.808594 C 313.980469 440.449219 329.960938 417.019531 341.648438 391.609375 C 343.46875 387.78125 344.898438 383.78125 346.070312 379.691406 L 344.980469 380.648438 C 343.890625 381.359375 342.78125 382.011719 341.671875 382.671875 C 334.539062 392.488281 327.28125 402.199219 319.351562 411.398438 C 316.671875 415.011719 313.109375 418.050781 311.21875 422.191406 C 311.179688 424.121094 312.449219 425.769531 313.21875 427.460938 C 311.558594 426.710938 309.921875 425.75 308.058594 425.71875 C 305.980469 426.609375 304.679688 428.570312 303.160156 430.128906 C 300.449219 433.300781 297.039062 435.929688 295.199219 439.761719 C 296.320312 442.289062 297.53125 444.78125 298.851562 447.210938 C 295.960938 446.058594 292.148438 441.980469 289.171875 445.03125 C 284.710938 449.628906 280.199219 454.199219 275.789062 458.859375 C 273.300781 461.390625 276.238281 464.679688 277.308594 467.179688 C 275.550781 466.160156 273.789062 465.078125 271.851562 464.429688 C 270.238281 464.640625 269.191406 465.980469 268.140625 467.070312 C 258.988281 477.339844 249.691406 487.589844 242.140625 499.140625 C 241.058594 500.488281 240.261719 502.828125 242.28125 503.789062 Z M 242.28125 503.789062 " transform="matrix(1,0,0,-1,0,512)"/>
<path style="fill-rule:nonzero;fill:rgb(36.898804%,77.598572%,17.999268%);fill-opacity:1;stroke-width:0.09375;stroke-linecap:butt;stroke-linejoin:miter;stroke:rgb(36.898804%,77.598572%,17.999268%);stroke-opacity:1;stroke-miterlimit:10;" d="M 249.960938 502.738281 C 250.46875 502.851562 251.480469 503.078125 251.988281 503.199219 C 262.46875 502.128906 272.628906 499.121094 282.371094 495.191406 C 284.5 494.71875 283.429688 492.121094 283.699219 490.660156 C 284.550781 491.519531 285.410156 492.378906 286.261719 493.261719 C 292.960938 490.328125 299.078125 486.25 304.941406 481.890625 C 305.910156 481.03125 307.371094 480.421875 307.609375 478.988281 C 307.089844 476.601562 306.289062 474.28125 305.75 471.890625 C 308.160156 473.039062 310.898438 477.800781 313.480469 474.621094 C 318.050781 469.578125 323.441406 465.050781 326.738281 459.03125 C 325.878906 456.519531 324.148438 454.421875 322.949219 452.078125 C 325.289062 452.679688 327.5 454.628906 329.980469 454.308594 C 343.421875 433.070312 346.46875 407.378906 347.941406 382.808594 C 347.660156 381.339844 347.371094 379.878906 347.089844 378.410156 C 346.839844 378.730469 346.328125 379.371094 346.070312 379.691406 C 344.898438 383.78125 343.46875 387.78125 341.648438 391.609375 C 329.960938 417.019531 313.980469 440.449219 294.820312 460.808594 C 281.398438 476.320312 265.980469 489.980469 249.960938 502.738281 Z M 249.960938 502.738281 " transform="matrix(1,0,0,-1,0,512)"/>
<path style="fill-rule:nonzero;fill:rgb(30.599976%,66.699219%,9.399414%);fill-opacity:1;stroke-width:0.09375;stroke-linecap:butt;stroke-linejoin:miter;stroke:rgb(30.599976%,66.699219%,9.399414%);stroke-opacity:1;stroke-miterlimit:10;" d="M 426.171875 486.679688 C 438.851562 490.410156 452.160156 491.828125 465.339844 490.75 C 459.800781 489.199219 454.191406 487.921875 448.679688 486.320312 C 424.238281 478.578125 401.480469 464.800781 384.378906 445.578125 C 367.71875 427.160156 356.738281 404.121094 350.828125 380.121094 C 349.929688 379.101562 349.039062 378.089844 348.21875 377.019531 C 347.929688 377.371094 347.371094 378.070312 347.089844 378.410156 C 347.371094 379.878906 347.660156 381.339844 347.941406 382.808594 C 352.460938 407.070312 358.46875 432.289062 374.378906 451.859375 C 376.980469 452.199219 379.058594 449.511719 381.339844 448.578125 C 380.519531 451.171875 377.710938 453.730469 378.328125 456.550781 C 383.03125 461.929688 388.519531 466.660156 394.328125 470.820312 C 397.089844 471.578125 398.460938 467.859375 400.480469 466.621094 C 400.671875 469.21875 398.371094 472.460938 400.210938 474.75 C 406.710938 478.949219 413.71875 482.398438 421.03125 484.96875 C 422.898438 485.820312 423.800781 483.449219 424.949219 482.480469 C 425.320312 483.78125 424.261719 486.25 426.171875 486.679688 Z M 426.171875 486.679688 " transform="matrix(1,0,0,-1,0,512)"/>
<path style="fill-rule:nonzero;fill:rgb(36.898804%,77.598572%,17.999268%);fill-opacity:1;stroke-width:0.09375;stroke-linecap:butt;stroke-linejoin:miter;stroke:rgb(36.898804%,77.598572%,17.999268%);stroke-opacity:1;stroke-miterlimit:10;" d="M 465.339844 490.75 C 466.519531 490.660156 467.859375 490.28125 468.351562 489.050781 C 468.53125 487.589844 467.261719 486.578125 466.550781 485.46875 C 457.671875 474.988281 447.230469 466.011719 437 456.890625 C 435.910156 456.011719 434.699219 454.71875 433.140625 455.210938 C 431.371094 456.101562 429.789062 457.289062 428.121094 458.339844 C 428.691406 455.761719 431.488281 452.359375 428.898438 450.140625 C 424.640625 446.378906 420.070312 442.980469 415.761719 439.28125 C 414.351562 438.269531 412.980469 436.671875 411.089844 436.820312 C 408.691406 438.03125 406.628906 439.75 404.390625 441.199219 C 405.121094 438.289062 407.210938 435.449219 406.628906 432.378906 C 404.691406 429.679688 401.78125 427.898438 399.371094 425.660156 C 397.289062 424.011719 395.5 421.828125 392.949219 420.898438 C 390.898438 420.921875 389.371094 422.558594 387.71875 423.550781 C 388.359375 421.148438 390.289062 418.109375 388.078125 415.960938 C 380.339844 408.011719 371.808594 400.828125 364.238281 392.710938 C 360.808594 389.230469 357.808594 385.308594 354.011719 382.21875 C 352.941406 381.53125 351.871094 380.851562 350.828125 380.121094 C 356.738281 404.121094 367.71875 427.160156 384.378906 445.578125 C 401.480469 464.800781 424.238281 478.578125 448.679688 486.320312 C 454.191406 487.921875 459.800781 489.199219 465.339844 490.75 Z M 465.339844 490.75 " transform="matrix(1,0,0,-1,0,512)"/>
<path style="fill-rule:nonzero;fill:rgb(36.898804%,77.598572%,17.999268%);fill-opacity:1;stroke-width:0.09375;stroke-linecap:butt;stroke-linejoin:miter;stroke:rgb(36.898804%,77.598572%,17.999268%);stroke-opacity:1;stroke-miterlimit:10;" d="M 223.570312 426.21875 C 231.789062 428.238281 240.390625 429.648438 248.820312 429.070312 C 250.269531 426.96875 250.878906 424.398438 252.339844 422.289062 C 253.480469 424.410156 252.449219 429.449219 255.949219 429.089844 C 262.878906 428.558594 269.890625 427.691406 276.53125 425.558594 C 277.558594 423.109375 277.46875 420.320312 278.230469 417.769531 C 279.578125 419.71875 280.070312 422.558594 282.101562 423.878906 C 304.269531 416.78125 321.761719 400.449219 337.671875 384.109375 C 333.78125 384.230469 329.75 384.011719 326.269531 382.089844 C 301.25 393.609375 274.769531 401.589844 247.941406 407.648438 C 234.289062 410.550781 220.550781 413.058594 206.671875 414.578125 C 203.710938 414.851562 200.75 415.328125 197.960938 416.390625 C 205.269531 420.238281 212.960938 423.308594 220.910156 425.550781 C 221.738281 424.519531 222.578125 423.480469 223.421875 422.449219 C 223.460938 423.390625 223.53125 425.28125 223.570312 426.21875 Z M 223.570312 426.21875 " transform="matrix(1,0,0,-1,0,512)"/>
<path style="fill-rule:nonzero;fill:rgb(30.599976%,66.699219%,9.399414%);fill-opacity:1;stroke-width:0.09375;stroke-linecap:butt;stroke-linejoin:miter;stroke:rgb(30.599976%,66.699219%,9.399414%);stroke-opacity:1;stroke-miterlimit:10;" d="M 418.371094 420.46875 C 425.691406 422.671875 433.378906 423.738281 441.011719 424.019531 C 441.578125 422 441.949219 419.941406 442.378906 417.878906 C 435.519531 418.019531 428.710938 416.929688 421.960938 415.890625 C 420 415.710938 418.320312 414.648438 416.949219 413.308594 C 417.351562 415.691406 416.988281 418.359375 418.371094 420.46875 Z M 418.371094 420.46875 " transform="matrix(1,0,0,-1,0,512)"/>
<path style="fill-rule:nonzero;fill:rgb(30.599976%,66.699219%,9.399414%);fill-opacity:1;stroke-width:0.09375;stroke-linecap:butt;stroke-linejoin:miter;stroke:rgb(30.599976%,66.699219%,9.399414%);stroke-opacity:1;stroke-miterlimit:10;" d="M 446.011719 424 C 454.089844 424.429688 462.140625 423.230469 470.03125 421.519531 C 472.121094 421.320312 471.339844 418.851562 471.660156 417.398438 C 462.238281 418.121094 452.800781 418.449219 443.351562 418.308594 C 444.148438 420.238281 444.730469 422.308594 446.011719 424 Z M 446.011719 424 " transform="matrix(1,0,0,-1,0,512)"/>
<path style="fill-rule:nonzero;fill:rgb(30.599976%,66.699219%,9.399414%);fill-opacity:1;stroke-width:0.09375;stroke-linecap:butt;stroke-linejoin:miter;stroke:rgb(30.599976%,66.699219%,9.399414%);stroke-opacity:1;stroke-miterlimit:10;" d="M 471.679688 417.398438 C 472.460938 418.371094 473.109375 419.46875 474.070312 420.289062 C 479.738281 419.011719 485.261719 416.921875 490.488281 414.371094 C 484.128906 414.71875 477.96875 416.539062 471.679688 417.398438 Z M 471.679688 417.398438 " transform="matrix(1,0,0,-1,0,512)"/>
<path style="fill-rule:nonzero;fill:rgb(30.599976%,66.699219%,9.399414%);fill-opacity:1;stroke-width:0.09375;stroke-linecap:butt;stroke-linejoin:miter;stroke:rgb(30.599976%,66.699219%,9.399414%);stroke-opacity:1;stroke-miterlimit:10;" d="M 362.328125 384.269531 C 376.839844 398.871094 393.269531 412.28125 412.980469 419.089844 C 414.101562 417.570312 415.128906 415.96875 415.839844 414.210938 C 399.339844 406.230469 384.089844 394.160156 375.621094 377.578125 C 374.671875 378.570312 373.691406 379.550781 372.699219 380.488281 C 369.699219 382.761719 366.019531 383.851562 362.328125 384.269531 Z M 362.328125 384.269531 " transform="matrix(1,0,0,-1,0,512)"/>
<path style="fill-rule:nonzero;fill:rgb(36.898804%,77.598572%,17.999268%);fill-opacity:1;stroke-width:0.09375;stroke-linecap:butt;stroke-linejoin:miter;stroke:rgb(36.898804%,77.598572%,17.999268%);stroke-opacity:1;stroke-miterlimit:10;" d="M 421.960938 415.890625 C 428.710938 416.929688 435.519531 418.019531 442.378906 417.878906 L 442.871094 417.089844 C 442.988281 417.390625 443.230469 418.011719 443.351562 418.308594 C 452.800781 418.449219 462.238281 418.121094 471.660156 417.398438 L 471.679688 417.398438 C 477.96875 416.539062 484.128906 414.71875 490.488281 414.371094 C 498.070312 410.628906 505.539062 406.441406 512 400.921875 L 512 399.191406 C 510.480469 398.058594 508.710938 397.378906 506.921875 396.878906 C 494.558594 393.339844 481.839844 391.378906 469.171875 389.398438 C 467.601562 389.25 465.921875 388.699219 464.429688 389.460938 C 463.128906 391.230469 462.429688 393.328125 461.511719 395.300781 C 460.539062 392.910156 461.21875 388.570312 457.960938 387.96875 C 452.320312 387.03125 446.589844 386.660156 440.921875 385.871094 C 439.128906 385.859375 436.890625 384.949219 435.488281 386.5 C 434.109375 388.640625 433.46875 391.160156 432.421875 393.460938 C 431.300781 390.789062 431.460938 387.601562 429.761719 385.210938 C 426.808594 383.660156 423.300781 383.921875 420.109375 383.28125 C 417.199219 383.039062 414.191406 381.960938 411.308594 382.839844 C 410.121094 384.179688 409.539062 385.898438 408.789062 387.488281 C 408.191406 385.691406 407.878906 383.738281 406.820312 382.140625 C 405.210938 380.871094 403.070312 380.699219 401.140625 380.261719 C 393.699219 378.921875 386.308594 377.328125 378.871094 375.988281 C 377.761719 375.679688 376.871094 376.019531 376.191406 376.980469 L 375.621094 377.578125 C 384.089844 394.160156 399.339844 406.230469 415.839844 414.210938 L 416.46875 412.699219 L 416.949219 413.308594 C 418.320312 414.648438 420 415.710938 421.960938 415.890625 Z M 421.960938 415.890625 " transform="matrix(1,0,0,-1,0,512)"/>
<path style="fill-rule:nonzero;fill:rgb(30.599976%,66.699219%,9.399414%);fill-opacity:1;stroke-width:0.09375;stroke-linecap:butt;stroke-linejoin:miter;stroke:rgb(30.599976%,66.699219%,9.399414%);stroke-opacity:1;stroke-miterlimit:10;" d="M 183.261719 406.648438 C 187.648438 410.558594 192.738281 413.710938 197.960938 416.390625 C 200.75 415.328125 203.710938 414.851562 206.671875 414.578125 C 220.550781 413.058594 234.289062 410.550781 247.941406 407.648438 C 274.769531 401.589844 301.25 393.609375 326.269531 382.089844 C 325.140625 381.351562 324.050781 380.550781 323.011719 379.710938 C 316.628906 380.679688 310.429688 382.5 304.078125 383.558594 C 299.199219 384.589844 294.210938 385.089844 289.429688 386.449219 C 287.058594 387.261719 286.890625 390.050781 286.148438 392.050781 C 285.058594 390.320312 284.410156 387.558594 281.910156 387.601562 C 276.929688 387.929688 271.988281 388.820312 267.058594 389.53125 C 262.988281 390.300781 263.589844 395.511719 262.699219 398.550781 C 261.410156 396.078125 260.871094 393.128906 258.921875 391.070312 C 255.898438 390.589844 252.851562 391.128906 249.851562 391.488281 C 245.28125 392.179688 240.621094 392.261719 236.109375 393.308594 C 233.671875 394.628906 234.089844 397.898438 233.46875 400.171875 C 232.53125 398.300781 231.871094 396.230469 230.5 394.609375 C 229.210938 393.621094 227.488281 394.398438 226.039062 394.480469 C 211.511719 397.011719 196.550781 398.53125 182.761719 404.011719 C 182.878906 404.671875 183.128906 405.988281 183.261719 406.648438 Z M 183.261719 406.648438 " transform="matrix(1,0,0,-1,0,512)"/>
<path style="fill-rule:nonzero;fill:rgb(64.299011%,45.098877%,36.499023%);fill-opacity:1;stroke-width:0.09375;stroke-linecap:butt;stroke-linejoin:miter;stroke:rgb(64.299011%,45.098877%,36.499023%);stroke-opacity:1;stroke-miterlimit:10;" d="M 326.269531 382.089844 C 329.75 384.011719 333.78125 384.230469 337.671875 384.109375 C 339.011719 383.640625 340.328125 383.171875 341.671875 382.671875 C 342.78125 382.011719 343.890625 381.359375 344.980469 380.648438 C 339.628906 378.449219 337.429688 372.351562 336.910156 367.019531 C 337.230469 361.820312 339.691406 356.710938 343.839844 353.5 C 345.160156 354.75 346.480469 356.011719 347.808594 357.261719 C 346.640625 360.410156 345.070312 363.550781 345.210938 366.988281 C 345.148438 370.558594 346.53125 373.949219 348.21875 377.019531 C 349.039062 378.089844 349.929688 379.101562 350.828125 380.121094 C 351.871094 380.851562 352.941406 381.53125 354.011719 382.21875 C 356.578125 383.570312 359.441406 384.199219 362.328125 384.269531 C 366.019531 383.851562 369.699219 382.761719 372.699219 380.488281 C 363.300781 374.601562 363.660156 359.308594 372.808594 353.339844 C 367.859375 349.351562 360.921875 349.019531 355.121094 351.171875 C 347.878906 300.148438 337.070312 249.660156 323.070312 200.078125 C 317.898438 183.261719 313.230469 166.269531 307.148438 149.75 C 300.050781 128.46875 292.070312 107.5 283.199219 86.898438 C 269.058594 89.539062 254.710938 90.660156 240.378906 91.609375 C 257.128906 121.289062 272.578125 151.71875 286.019531 183.050781 C 309.351562 236.671875 327.71875 292.621094 338.441406 350.160156 C 330.101562 348.53125 321.070312 353.320312 318.339844 361.480469 C 317.261719 364.839844 317.160156 368.460938 318.058594 371.871094 C 318.589844 373.25 319.179688 374.601562 319.839844 375.910156 C 320.800781 377.25 321.859375 378.519531 323.011719 379.710938 C 324.050781 380.550781 325.140625 381.351562 326.269531 382.089844 Z M 326.269531 382.089844 " transform="matrix(1,0,0,-1,0,512)"/>
<path style="fill-rule:nonzero;fill:rgb(73.699951%,54.899597%,47.499084%);fill-opacity:1;stroke-width:0.09375;stroke-linecap:butt;stroke-linejoin:miter;stroke:rgb(73.699951%,54.899597%,47.499084%);stroke-opacity:1;stroke-miterlimit:10;" d="M 336.910156 367.019531 C 337.429688 372.351562 339.628906 378.449219 344.980469 380.648438 L 346.070312 379.691406 C 346.328125 379.371094 346.839844 378.730469 347.089844 378.410156 C 347.371094 378.070312 347.929688 377.371094 348.21875 377.019531 C 346.53125 373.949219 345.148438 370.558594 345.210938 366.988281 C 345.070312 363.550781 346.640625 360.410156 347.808594 357.261719 C 346.480469 356.011719 345.160156 354.75 343.839844 353.5 C 339.691406 356.710938 337.230469 361.820312 336.910156 367.019531 Z M 336.910156 367.019531 " transform="matrix(1,0,0,-1,0,512)"/>
<path style="fill-rule:nonzero;fill:rgb(73.699951%,54.899597%,47.499084%);fill-opacity:1;stroke-width:0.09375;stroke-linecap:butt;stroke-linejoin:miter;stroke:rgb(73.699951%,54.899597%,47.499084%);stroke-opacity:1;stroke-miterlimit:10;" d="M 372.808594 353.339844 C 363.660156 359.308594 363.300781 374.601562 372.699219 380.488281 C 373.691406 379.550781 374.671875 378.570312 375.621094 377.578125 L 376.191406 376.980469 C 377.25 375.53125 378.011719 373.890625 378.578125 372.191406 C 378.738281 371.691406 379.058594 370.691406 379.21875 370.191406 C 379.78125 365.820312 378.929688 361.308594 376.609375 357.550781 C 375.441406 356.050781 374.148438 354.671875 372.808594 353.339844 Z M 372.808594 353.339844 " transform="matrix(1,0,0,-1,0,512)"/>
<path style="fill-rule:nonzero;fill:rgb(30.599976%,66.699219%,9.399414%);fill-opacity:1;stroke-width:0.09375;stroke-linecap:butt;stroke-linejoin:miter;stroke:rgb(30.599976%,66.699219%,9.399414%);stroke-opacity:1;stroke-miterlimit:10;" d="M 279.320312 370.328125 C 291.921875 376.171875 306.199219 376.339844 319.839844 375.910156 C 319.179688 374.601562 318.589844 373.25 318.058594 371.871094 C 295.011719 368.730469 273.210938 358.519531 255.359375 343.71875 C 251.128906 339.898438 246.648438 336.359375 242.710938 332.238281 C 239.898438 329.539062 237.691406 326.191406 234.339844 324.089844 C 236.539062 330.558594 239.878906 336.609375 243.839844 342.160156 C 244.359375 341.960938 245.398438 341.570312 245.921875 341.371094 C 245.570312 342.25 245.210938 343.121094 244.859375 344 C 248.800781 349.011719 253.089844 353.730469 257.980469 357.839844 C 259.710938 357.050781 261.429688 356.25 263.171875 355.46875 C 262.410156 357.011719 261.640625 358.53125 260.871094 360.058594 C 265.550781 363.589844 270.480469 366.960938 275.960938 369.121094 C 277.589844 368.109375 278.96875 366.769531 280.421875 365.519531 C 280.050781 367.121094 279.691406 368.730469 279.320312 370.328125 Z M 279.320312 370.328125 " transform="matrix(1,0,0,-1,0,512)"/>
<path style="fill-rule:nonzero;fill:rgb(36.898804%,77.598572%,17.999268%);fill-opacity:1;stroke-width:0.09375;stroke-linecap:butt;stroke-linejoin:miter;stroke:rgb(36.898804%,77.598572%,17.999268%);stroke-opacity:1;stroke-miterlimit:10;" d="M 255.359375 343.71875 C 273.210938 358.519531 295.011719 368.730469 318.058594 371.871094 C 317.160156 368.460938 317.261719 364.839844 318.339844 361.480469 C 313.160156 358.660156 308.128906 355.570312 302.878906 352.910156 C 300.808594 351.53125 298.960938 353.808594 297.351562 354.769531 C 297.441406 353.140625 299.171875 350.929688 297.351562 349.671875 C 294 347.25 290.519531 344.941406 286.808594 343.101562 C 284.410156 343.328125 282.75 345.46875 280.820312 346.691406 C 281.191406 344.511719 282.890625 342.21875 282.128906 340.019531 C 278.230469 336.78125 273.730469 334.289062 269.539062 331.429688 C 267.21875 329.308594 264.960938 332.210938 263.03125 333.378906 C 263.371094 331.410156 265.46875 328.371094 262.808594 327.160156 C 253.851562 321.570312 244.75 316.109375 235.019531 311.941406 C 233.921875 311.550781 232.078125 310.480469 231.359375 312.011719 C 231.410156 316.191406 233.171875 320.128906 234.339844 324.089844 C 237.691406 326.191406 239.898438 329.539062 242.710938 332.238281 C 246.648438 336.359375 251.128906 339.898438 255.359375 343.71875 Z M 255.359375 343.71875 " transform="matrix(1,0,0,-1,0,512)"/>
<path style="fill-rule:nonzero;fill:rgb(36.898804%,77.598572%,17.999268%);fill-opacity:1;stroke-width:0.09375;stroke-linecap:butt;stroke-linejoin:miter;stroke:rgb(36.898804%,77.598572%,17.999268%);stroke-opacity:1;stroke-miterlimit:10;" d="M 378.578125 372.191406 C 390.949219 372.738281 403.46875 371.308594 415.109375 366.96875 C 414.761719 365.109375 414.371094 363.261719 414 361.410156 C 415.621094 362.71875 417.070312 364.320312 418.980469 365.21875 C 424.25 362.960938 429.058594 359.699219 433.601562 356.230469 C 432.78125 354.609375 431.96875 353 431.191406 351.371094 C 433.128906 352.011719 434.890625 353.769531 437.03125 353.578125 C 441.71875 349.589844 446.089844 345.128906 449.570312 340.03125 C 449.210938 339.410156 448.488281 338.171875 448.140625 337.550781 C 448.871094 337.640625 450.351562 337.820312 451.078125 337.910156 C 457.089844 329.261719 461.550781 319.351562 463.46875 308.96875 C 463.128906 308.511719 462.460938 307.578125 462.121094 307.109375 L 461.199219 307.5 C 457.640625 312.429688 453.648438 317.070312 448.949219 320.949219 C 437.5 331.828125 424.550781 341.011719 410.960938 349.019531 C 403.789062 353.800781 395.980469 357.449219 388.339844 361.378906 C 384.480469 363.300781 381.230469 366.371094 379.21875 370.191406 C 379.058594 370.691406 378.738281 371.691406 378.578125 372.191406 Z M 378.578125 372.191406 " transform="matrix(1,0,0,-1,0,512)"/>
<path style="fill-rule:nonzero;fill:rgb(30.599976%,66.699219%,9.399414%);fill-opacity:1;stroke-width:0.09375;stroke-linecap:butt;stroke-linejoin:miter;stroke:rgb(30.599976%,66.699219%,9.399414%);stroke-opacity:1;stroke-miterlimit:10;" d="M 379.21875 370.191406 C 381.230469 366.371094 384.480469 363.300781 388.339844 361.378906 C 395.980469 357.449219 403.789062 353.800781 410.960938 349.019531 C 424.550781 341.011719 437.5 331.828125 448.949219 320.949219 C 453.648438 317.070312 457.640625 312.429688 461.199219 307.5 C 450.679688 311.671875 440.96875 317.589844 431.429688 323.601562 C 429.238281 324.890625 430.980469 327.441406 431.269531 329.269531 C 429.601562 328.050781 427.621094 325.789062 425.421875 327.390625 C 421.03125 330.339844 416.359375 332.960938 412.289062 336.339844 C 411.738281 338.449219 413.089844 340.53125 413.539062 342.550781 C 411.839844 341.230469 410.089844 339.980469 408.25 338.859375 C 404.628906 341.03125 400.941406 343.121094 397.511719 345.589844 C 395.46875 346.660156 396.550781 349.039062 397.148438 350.609375 C 395.601562 349.820312 394 347.941406 392.101562 348.949219 C 386.761719 351.480469 381.738281 354.640625 376.609375 357.550781 C 378.929688 361.308594 379.78125 365.820312 379.21875 370.191406 Z M 379.21875 370.191406 " transform="matrix(1,0,0,-1,0,512)"/>
<path style="fill-rule:nonzero;fill:rgb(30.599976%,66.699219%,9.399414%);fill-opacity:1;stroke-width:0.09375;stroke-linecap:butt;stroke-linejoin:miter;stroke:rgb(30.599976%,66.699219%,9.399414%);stroke-opacity:1;stroke-miterlimit:10;" d="M 170.28125 316.671875 C 172.308594 316.941406 174.421875 317.101562 176.328125 316.199219 C 171.558594 308.339844 165.359375 301.46875 159.058594 294.820312 C 157.871094 295.378906 156.691406 295.949219 155.5 296.511719 C 156.121094 295.320312 156.738281 294.140625 157.359375 292.949219 C 154.421875 289.558594 151.210938 286.410156 148.058594 283.21875 C 146.539062 283.929688 145.019531 284.640625 143.5 285.371094 C 144.269531 283.898438 145.03125 282.429688 145.769531 280.941406 C 143.519531 278.429688 141.398438 275.78125 138.859375 273.550781 C 138.070312 273.679688 136.488281 273.949219 135.699219 274.078125 C 136.769531 272.589844 137.140625 270.75 135.519531 269.480469 C 130.019531 262.929688 124.71875 256.21875 119.578125 249.390625 C 119.199219 249.179688 118.449219 248.75 118.070312 248.53125 C 118.519531 250.480469 118.878906 252.460938 119.710938 254.289062 C 128.921875 274.390625 143.171875 291.78125 159.378906 306.648438 C 163 310.011719 167.171875 312.789062 170.28125 316.671875 Z M 170.28125 316.671875 " transform="matrix(1,0,0,-1,0,512)"/>
<path style="fill-rule:nonzero;fill:rgb(36.898804%,77.598572%,17.999268%);fill-opacity:1;stroke-width:0.09375;stroke-linecap:butt;stroke-linejoin:miter;stroke:rgb(36.898804%,77.598572%,17.999268%);stroke-opacity:1;stroke-miterlimit:10;" d="M 152.449219 311.828125 C 158.050781 314.460938 164.148438 315.929688 170.28125 316.671875 C 167.171875 312.789062 163 310.011719 159.378906 306.648438 C 143.171875 291.78125 128.921875 274.390625 119.710938 254.289062 C 118.878906 252.460938 118.519531 250.480469 118.070312 248.53125 L 117.898438 248.378906 L 116.75 247.320312 C 116.621094 247.898438 116.351562 249.070312 116.21875 249.648438 C 117.429688 263.378906 118.609375 278.019531 126.699219 289.699219 C 127.851562 289.121094 129 288.539062 130.160156 287.96875 C 129.449219 289.351562 128.699219 290.699219 127.941406 292.039062 C 130.460938 295.511719 133.390625 298.671875 136.558594 301.539062 C 137.699219 300.710938 138.839844 299.871094 139.980469 299.050781 C 139.5 300.449219 139.011719 301.839844 138.511719 303.230469 C 142.050781 306.339844 146.121094 308.738281 150.21875 311.03125 C 150.648438 310.730469 151.5 310.148438 151.921875 309.851562 C 152.058594 310.351562 152.320312 311.328125 152.449219 311.828125 Z M 152.449219 311.828125 " transform="matrix(1,0,0,-1,0,512)"/>
<path style="fill-rule:nonzero;fill:rgb(30.599976%,66.699219%,9.399414%);fill-opacity:1;stroke-width:0.09375;stroke-linecap:butt;stroke-linejoin:miter;stroke:rgb(30.599976%,66.699219%,9.399414%);stroke-opacity:1;stroke-miterlimit:10;" d="M 49.78125 309.5 C 57.691406 310.351562 65.730469 309.5 73.328125 307.160156 C 73.371094 306.671875 73.441406 305.691406 73.46875 305.199219 C 73.898438 305.511719 74.769531 306.128906 75.199219 306.441406 C 79.738281 305.199219 83.871094 302.769531 87.839844 300.28125 C 87.539062 298.921875 87.25 297.558594 86.96875 296.191406 C 87.988281 297.089844 89 298.011719 90.011719 298.921875 C 93.558594 296.359375 96.839844 293.441406 99.789062 290.191406 C 99.058594 288.851562 98.351562 287.488281 97.640625 286.140625 C 98.839844 286.851562 100.039062 287.570312 101.238281 288.289062 C 110.410156 277.480469 113.710938 263.238281 116.21875 249.648438 C 116.351562 249.070312 116.621094 247.898438 116.75 247.320312 L 116.558594 246.371094 C 115.710938 247.078125 114.859375 247.78125 114 248.460938 C 113.78125 254.820312 110.628906 260.519531 108.171875 266.230469 C 97.449219 289.140625 74.71875 305.738281 49.78125 309.5 Z M 49.78125 309.5 " transform="matrix(1,0,0,-1,0,512)"/>
<path style="fill-rule:nonzero;fill:rgb(36.898804%,77.598572%,17.999268%);fill-opacity:1;stroke-width:0.09375;stroke-linecap:butt;stroke-linejoin:miter;stroke:rgb(36.898804%,77.598572%,17.999268%);stroke-opacity:1;stroke-miterlimit:10;" d="M 49.261719 308.089844 C 49.390625 308.441406 49.648438 309.148438 49.78125 309.5 C 74.71875 305.738281 97.449219 289.140625 108.171875 266.230469 C 110.628906 260.519531 113.78125 254.820312 114 248.460938 C 113.648438 248.71875 112.96875 249.230469 112.628906 249.488281 C 106.289062 256.160156 99.519531 262.410156 93.078125 268.988281 C 93.390625 269.761719 94.011719 271.308594 94.328125 272.078125 C 93.25 271.570312 92.179688 271.050781 91.109375 270.539062 C 88.789062 272.449219 86.390625 274.28125 84.269531 276.410156 C 82.46875 277.980469 84.691406 280.351562 84.828125 282.148438 C 83.519531 281.199219 82.21875 280.238281 80.921875 279.269531 C 77.210938 281.949219 73.699219 284.871094 70.289062 287.910156 C 70.710938 288.828125 71.539062 290.691406 71.949219 291.609375 C 70.351562 290.949219 68.320312 288.621094 66.808594 290.738281 C 60.671875 296.199219 54.289062 301.558594 49.261719 308.089844 Z M 49.261719 308.089844 " transform="matrix(1,0,0,-1,0,512)"/>
<path style="fill-rule:nonzero;fill:rgb(36.898804%,77.598572%,17.999268%);fill-opacity:1;stroke-width:0.09375;stroke-linecap:butt;stroke-linejoin:miter;stroke:rgb(36.898804%,77.598572%,17.999268%);stroke-opacity:1;stroke-miterlimit:10;" d="M 155.730469 273.179688 C 159.789062 274.539062 164.070312 274.960938 168.300781 275.460938 C 168.761719 274.121094 169.210938 272.78125 169.660156 271.429688 C 170.230469 272.71875 170.78125 274.03125 171.328125 275.320312 C 175.921875 275.410156 180.578125 275.070312 184.980469 273.738281 C 185.191406 273.300781 185.601562 272.429688 185.808594 271.988281 C 186.398438 272.429688 187 272.859375 187.589844 273.289062 C 191.371094 271.910156 195.191406 270.601562 198.75 268.710938 C 195.238281 266.53125 190.960938 266.921875 187.039062 266.191406 C 166.960938 262.898438 147.058594 257.71875 128.570312 249.121094 C 126.480469 250.011719 124.199219 250.308594 121.949219 250.210938 C 130.878906 259.378906 140.671875 268.300781 152.988281 272.578125 C 153.761719 271.359375 154.53125 270.121094 155.328125 268.898438 C 155.480469 270.328125 155.609375 271.761719 155.730469 273.179688 Z M 155.730469 273.179688 " transform="matrix(1,0,0,-1,0,512)"/>
<path style="fill-rule:nonzero;fill:rgb(30.599976%,66.699219%,9.399414%);fill-opacity:1;stroke-width:0.09375;stroke-linecap:butt;stroke-linejoin:miter;stroke:rgb(30.599976%,66.699219%,9.399414%);stroke-opacity:1;stroke-miterlimit:10;" d="M 47.121094 269.371094 C 47.660156 270.539062 48.570312 271.410156 49.910156 271.441406 C 53.871094 272.289062 57.921875 272.609375 61.960938 272.429688 C 62.328125 271.351562 62.71875 270.28125 63.121094 269.210938 C 54.949219 269.820312 46.871094 268.289062 38.738281 267.851562 C 40.929688 268.761719 43.160156 269.589844 45.378906 270.410156 C 45.820312 270.148438 46.691406 269.628906 47.121094 269.371094 Z M 47.121094 269.371094 " transform="matrix(1,0,0,-1,0,512)"/>
<path style="fill-rule:nonzero;fill:rgb(30.599976%,66.699219%,9.399414%);fill-opacity:1;stroke-width:0.09375;stroke-linecap:butt;stroke-linejoin:miter;stroke:rgb(30.599976%,66.699219%,9.399414%);stroke-opacity:1;stroke-miterlimit:10;" d="M 63.710938 269.171875 C 64.191406 270.328125 63.871094 272.929688 65.871094 272.449219 C 68.941406 272.308594 71.96875 271.769531 74.960938 271.089844 C 76.980469 271.121094 77.960938 269.539062 77.699219 267.648438 C 73.058594 268.328125 68.390625 268.851562 63.710938 269.171875 Z M 63.710938 269.171875 " transform="matrix(1,0,0,-1,0,512)"/>
<path style="fill-rule:nonzero;fill:rgb(30.599976%,66.699219%,9.399414%);fill-opacity:1;stroke-width:0.09375;stroke-linecap:butt;stroke-linejoin:miter;stroke:rgb(30.599976%,66.699219%,9.399414%);stroke-opacity:1;stroke-miterlimit:10;" d="M 80.121094 269.601562 C 91.140625 266.089844 100.109375 258.359375 108.25 250.421875 C 106.460938 250.011719 104.679688 249.5 103.058594 248.628906 C 102.488281 248.140625 101.339844 247.179688 100.761719 246.699219 C 96.230469 256.050781 87.589844 262.550781 78.46875 267.058594 C 78.980469 267.929688 79.53125 268.78125 80.121094 269.601562 Z M 80.121094 269.601562 " transform="matrix(1,0,0,-1,0,512)"/>
<path style="fill-rule:nonzero;fill:rgb(36.898804%,77.598572%,17.999268%);fill-opacity:1;stroke-width:0.09375;stroke-linecap:butt;stroke-linejoin:miter;stroke:rgb(36.898804%,77.598572%,17.999268%);stroke-opacity:1;stroke-miterlimit:10;" d="M 38.738281 267.851562 C 46.871094 268.289062 54.949219 269.820312 63.121094 269.210938 L 63.710938 269.171875 C 68.390625 268.851562 73.058594 268.328125 77.699219 267.648438 C 77.730469 267.230469 77.769531 266.378906 77.800781 265.960938 C 77.96875 266.238281 78.300781 266.78125 78.46875 267.058594 C 87.589844 262.550781 96.230469 256.050781 100.761719 246.699219 C 100.609375 246.390625 100.308594 245.78125 100.160156 245.46875 C 95.121094 246.578125 90.011719 247.328125 84.988281 248.511719 C 83.230469 248.660156 83.050781 250.671875 82.429688 251.929688 C 81.929688 251.058594 81.441406 250.191406 80.941406 249.308594 C 77.929688 249.53125 74.898438 249.710938 71.96875 250.410156 C 69.691406 250.738281 70.089844 253.699219 69.328125 255.28125 C 68.558594 253.929688 68.210938 252.171875 66.949219 251.191406 C 62.941406 251.25 58.941406 251.789062 54.988281 252.480469 C 53.308594 252.730469 53.800781 255.121094 53.148438 256.21875 C 52.550781 255.179688 52 254.109375 51.378906 253.070312 C 42.550781 253.949219 33.621094 255.320312 25.238281 258.320312 C 25.191406 258.648438 25.089844 259.300781 25.039062 259.621094 C 29.121094 263.070312 33.851562 265.730469 38.738281 267.851562 Z M 38.738281 267.851562 " transform="matrix(1,0,0,-1,0,512)"/>
<path style="fill-rule:nonzero;fill:rgb(30.599976%,66.699219%,9.399414%);fill-opacity:1;stroke-width:0.09375;stroke-linecap:butt;stroke-linejoin:miter;stroke:rgb(30.599976%,66.699219%,9.399414%);stroke-opacity:1;stroke-miterlimit:10;" d="M 198.75 268.710938 C 202.390625 266.941406 205.898438 264.820312 208.769531 261.921875 C 205.441406 259.640625 201.328125 259.199219 197.5 258.300781 C 192.378906 257.351562 187.25 256.351562 182.070312 255.800781 C 181.300781 256.820312 180.570312 257.871094 179.898438 258.949219 C 179.609375 257.75 179.320312 256.558594 179.019531 255.371094 C 174.519531 254.738281 170.019531 254 165.46875 254.148438 C 164.960938 255.550781 164.449219 256.949219 163.949219 258.351562 C 163.429688 256.78125 163.210938 255.050781 162.308594 253.628906 C 159.078125 252.589844 155.640625 252.480469 152.289062 252.171875 C 151.929688 252.75 151.210938 253.898438 150.859375 254.46875 C 150.050781 253.269531 149.621094 251.398438 147.878906 251.308594 C 142.019531 250 136.050781 249.230469 130.261719 247.601562 C 129.71875 248.128906 129.148438 248.640625 128.570312 249.121094 C 147.058594 257.71875 166.960938 262.898438 187.039062 266.191406 C 190.960938 266.921875 195.238281 266.53125 198.75 268.710938 Z M 198.75 268.710938 " transform="matrix(1,0,0,-1,0,512)"/>
<path style="fill-rule:nonzero;fill:rgb(64.299011%,45.098877%,36.499023%);fill-opacity:1;stroke-width:0.09375;stroke-linecap:butt;stroke-linejoin:miter;stroke:rgb(64.299011%,45.098877%,36.499023%);stroke-opacity:1;stroke-miterlimit:10;" d="M 103.058594 248.628906 C 104.679688 249.5 106.460938 250.011719 108.25 250.421875 C 109.71875 250.160156 111.179688 249.839844 112.628906 249.488281 C 112.96875 249.230469 113.648438 248.71875 114 248.460938 C 114.859375 247.78125 115.710938 247.078125 116.558594 246.371094 C 117.558594 242.679688 118.109375 238.828125 116.390625 235.230469 C 117.25 234.5 118.109375 233.761719 118.96875 233.019531 C 123.539062 237.078125 123.789062 245.398438 117.898438 248.378906 L 118.070312 248.53125 C 118.449219 248.75 119.199219 249.179688 119.578125 249.390625 C 120.171875 249.601562 121.351562 250 121.949219 250.210938 C 124.199219 250.308594 126.480469 250.011719 128.570312 249.121094 C 129.148438 248.640625 129.71875 248.128906 130.261719 247.601562 C 130.699219 247.128906 131.558594 246.191406 131.988281 245.71875 C 132.390625 244.921875 132.78125 244.109375 133.140625 243.28125 C 133.371094 241.371094 133.25 239.421875 132.761719 237.539062 C 131.140625 232.96875 126.171875 230.578125 121.519531 231.199219 C 131.101562 181.308594 150.300781 133.628906 174.980469 89.359375 C 166.429688 87.351562 157.699219 86.148438 148.980469 85.171875 C 149.679688 85.320312 151.070312 85.609375 151.769531 85.761719 C 132.410156 132.5 119.410156 181.800781 112.339844 231.871094 C 108.941406 230.75 105.039062 230.871094 102.21875 233.289062 C 105.78125 235.019531 107.109375 239.390625 106.238281 243.058594 C 105.621094 245.140625 104.230469 246.839844 103.058594 248.628906 Z M 103.058594 248.628906 " transform="matrix(1,0,0,-1,0,512)"/>
<path style="fill-rule:nonzero;fill:rgb(73.699951%,54.899597%,47.499084%);fill-opacity:1;stroke-width:0.09375;stroke-linecap:butt;stroke-linejoin:miter;stroke:rgb(73.699951%,54.899597%,47.499084%);stroke-opacity:1;stroke-miterlimit:10;" d="M 100.761719 246.699219 C 101.339844 247.179688 102.488281 248.140625 103.058594 248.628906 C 104.230469 246.839844 105.621094 245.140625 106.238281 243.058594 C 107.109375 239.390625 105.78125 235.019531 102.21875 233.289062 C 101.730469 233.828125 100.75 234.898438 100.261719 235.441406 C 99.351562 237.28125 98.890625 239.300781 98.621094 241.320312 C 98.78125 241.890625 99.121094 243.011719 99.289062 243.570312 C 99.511719 244.050781 99.941406 245 100.160156 245.46875 C 100.308594 245.78125 100.609375 246.390625 100.761719 246.699219 Z M 100.761719 246.699219 " transform="matrix(1,0,0,-1,0,512)"/>
<path style="fill-rule:nonzero;fill:rgb(73.699951%,54.899597%,47.499084%);fill-opacity:1;stroke-width:0.09375;stroke-linecap:butt;stroke-linejoin:miter;stroke:rgb(73.699951%,54.899597%,47.499084%);stroke-opacity:1;stroke-miterlimit:10;" d="M 116.75 247.320312 L 117.898438 248.378906 C 123.789062 245.398438 123.539062 237.078125 118.96875 233.019531 C 118.109375 233.761719 117.25 234.5 116.390625 235.230469 C 118.109375 238.828125 117.558594 242.679688 116.558594 246.371094 Z M 116.75 247.320312 " transform="matrix(1,0,0,-1,0,512)"/>
<path style="fill-rule:nonzero;fill:rgb(30.599976%,66.699219%,9.399414%);fill-opacity:1;stroke-width:0.09375;stroke-linecap:butt;stroke-linejoin:miter;stroke:rgb(30.599976%,66.699219%,9.399414%);stroke-opacity:1;stroke-miterlimit:10;" d="M 131.988281 245.71875 C 139.550781 246.011719 147.179688 245.480469 154.371094 242.929688 C 154.230469 242.171875 153.949219 240.648438 153.808594 239.890625 C 154.648438 240.601562 155.488281 241.289062 156.328125 241.988281 C 159.289062 240.578125 162.070312 238.859375 164.75 236.980469 C 164.289062 235.980469 163.839844 234.980469 163.378906 233.980469 C 164.339844 234.550781 165.289062 235.121094 166.25 235.691406 C 172.140625 230.691406 176.789062 224.160156 179.480469 216.898438 C 167.109375 229.949219 151.488281 241.238281 133.140625 243.28125 C 132.78125 244.109375 132.390625 244.921875 131.988281 245.71875 Z M 131.988281 245.71875 " transform="matrix(1,0,0,-1,0,512)"/>
<path style="fill-rule:nonzero;fill:rgb(36.898804%,77.598572%,17.999268%);fill-opacity:1;stroke-width:0.09375;stroke-linecap:butt;stroke-linejoin:miter;stroke:rgb(36.898804%,77.598572%,17.999268%);stroke-opacity:1;stroke-miterlimit:10;" d="M 79 240.78125 C 85.5 243.101562 92.421875 243.929688 99.289062 243.570312 C 99.121094 243.011719 98.78125 241.890625 98.621094 241.320312 C 96.648438 239.621094 94.628906 237.949219 92.320312 236.738281 C 81.109375 231.121094 70.261719 224.488281 61.070312 215.898438 C 58.578125 213.78125 56.039062 211.519531 55.011719 208.300781 C 53.941406 208.011719 52.859375 207.761719 51.78125 207.53125 C 53.640625 217.570312 59.261719 226.800781 66.941406 233.421875 C 67.691406 233.039062 69.191406 232.261719 69.941406 231.871094 C 69.671875 232.628906 69.121094 234.148438 68.839844 234.898438 C 71.300781 236.898438 74.109375 238.390625 76.878906 239.878906 C 77.789062 239.078125 78.691406 238.269531 79.601562 237.460938 C 79.398438 238.570312 79.199219 239.679688 79 240.78125 Z M 79 240.78125 " transform="matrix(1,0,0,-1,0,512)"/>
<path style="fill-rule:nonzero;fill:rgb(36.898804%,77.598572%,17.999268%);fill-opacity:1;stroke-width:0.09375;stroke-linecap:butt;stroke-linejoin:miter;stroke:rgb(36.898804%,77.598572%,17.999268%);stroke-opacity:1;stroke-miterlimit:10;" d="M 133.140625 243.28125 C 151.488281 241.238281 167.109375 229.949219 179.480469 216.898438 C 180.398438 214.488281 180.949219 211.96875 181.390625 209.429688 C 174.71875 211.449219 168.738281 215.28125 162.980469 219.109375 C 163.121094 219.859375 163.390625 221.359375 163.53125 222.121094 C 162.898438 221.671875 161.640625 220.769531 161.019531 220.328125 C 158.039062 221.929688 155.320312 223.960938 152.550781 225.890625 C 152.960938 227.101562 153.359375 228.308594 153.769531 229.511719 C 152.761719 228.75 151.761719 227.96875 150.769531 227.191406 C 148.398438 229.019531 143.171875 229.800781 144.300781 233.730469 C 143.730469 233.449219 142.609375 232.890625 142.039062 232.601562 C 138.789062 233.949219 135.921875 236.03125 132.761719 237.539062 C 133.25 239.421875 133.371094 241.371094 133.140625 243.28125 Z M 133.140625 243.28125 " transform="matrix(1,0,0,-1,0,512)"/>
<path style="fill-rule:nonzero;fill:rgb(30.599976%,66.699219%,9.399414%);fill-opacity:1;stroke-width:0.09375;stroke-linecap:butt;stroke-linejoin:miter;stroke:rgb(30.599976%,66.699219%,9.399414%);stroke-opacity:1;stroke-miterlimit:10;" d="M 92.320312 236.738281 C 94.628906 237.949219 96.648438 239.621094 98.621094 241.320312 C 98.890625 239.300781 99.351562 237.28125 100.261719 235.441406 C 97.46875 233.769531 94.621094 232.179688 91.808594 230.539062 C 91.25 230.621094 90.121094 230.761719 89.558594 230.839844 C 88.871094 227.628906 85.101562 226.839844 82.820312 225.019531 C 81.738281 225.730469 80.660156 226.429688 79.589844 227.121094 C 79.910156 226.308594 80.550781 224.699219 80.871094 223.890625 C 78.058594 221.769531 75.140625 219.78125 72.03125 218.121094 C 71.519531 218.519531 70.488281 219.328125 69.980469 219.730469 C 70.121094 219.050781 70.410156 217.691406 70.558594 217.011719 C 65.558594 213.800781 60.46875 210.660156 55.011719 208.300781 C 56.039062 211.519531 58.578125 213.78125 61.070312 215.898438 C 70.261719 224.488281 81.109375 231.121094 92.320312 236.738281 Z M 92.320312 236.738281 " transform="matrix(1,0,0,-1,0,512)"/>
<path style="fill-rule:nonzero;fill:rgb(96.899414%,80.799866%,57.299805%);fill-opacity:1;stroke-width:0.09375;stroke-linecap:butt;stroke-linejoin:miter;stroke:rgb(96.899414%,80.799866%,57.299805%);stroke-opacity:1;stroke-miterlimit:10;" d="M 174.980469 89.359375 C 191.710938 91.609375 208.628906 92.429688 225.488281 92.070312 C 220.421875 90.949219 215.191406 91.058594 210.050781 90.351562 C 176.460938 86.640625 143.050781 77.929688 113.289062 61.609375 C 107.128906 58.121094 100.96875 54.578125 95.351562 50.25 C 93.578125 49.128906 91.96875 47.78125 90.570312 46.21875 C 87.898438 44.691406 85.378906 42.910156 83.199219 40.738281 C 78.371094 36.109375 73.308594 31.589844 69.5 26.039062 C 59.851562 22.609375 48.429688 22.980469 39.511719 28.230469 C 53.070312 46.679688 73.289062 58.921875 93.871094 68.148438 C 111.53125 75.871094 130.109375 81.339844 148.980469 85.171875 C 157.699219 86.148438 166.429688 87.351562 174.980469 89.359375 Z M 174.980469 89.359375 " transform="matrix(1,0,0,-1,0,512)"/>
<path style="fill-rule:nonzero;fill:rgb(98.799133%,90.99884%,77.2995%);fill-opacity:1;stroke-width:0.09375;stroke-linecap:butt;stroke-linejoin:miter;stroke:rgb(98.799133%,90.99884%,77.2995%);stroke-opacity:1;stroke-miterlimit:10;" d="M 225.488281 92.070312 C 230.460938 91.988281 235.421875 91.941406 240.378906 91.609375 C 254.710938 90.660156 269.058594 89.539062 283.199219 86.898438 C 309.039062 82.300781 334.550781 74.890625 358.019531 62.96875 C 374.640625 54.339844 390.53125 43.339844 401.949219 28.28125 C 387.519531 19.761719 367.289062 23.871094 356.761719 36.800781 C 354.171875 39.730469 352.558594 43.328125 350.578125 46.671875 C 348.03125 51.480469 339.988281 51.480469 337.421875 46.691406 C 335.160156 42.679688 333.101562 38.46875 329.78125 35.199219 C 319.96875 24.539062 303.539062 21.039062 290.089844 26.179688 C 282.191406 29.121094 275.238281 34.820312 271.269531 42.300781 C 269.769531 44.96875 268.53125 48.140625 265.628906 49.578125 C 262.089844 51.089844 257.339844 50.078125 255.488281 46.46875 C 253.179688 42.28125 250.949219 37.941406 247.398438 34.621094 C 236.820312 23.578125 219.070312 20.78125 205.390625 27.378906 C 198.441406 30.628906 192.578125 36.160156 189.070312 42.988281 C 187.710938 45.480469 186.449219 48.390625 183.710938 49.640625 C 180.148438 50.890625 175.351562 50.511719 173.160156 47.03125 C 170.640625 42.890625 168.609375 38.371094 165.058594 34.941406 C 154.601562 23.800781 136.910156 20.75 123.140625 27.171875 C 115.851562 30.410156 109.78125 36.230469 106.160156 43.328125 C 104.988281 45.371094 104.03125 47.710938 102.011719 49.070312 C 100.078125 50.449219 97.570312 50.121094 95.351562 50.25 C 100.96875 54.578125 107.128906 58.121094 113.289062 61.609375 C 143.050781 77.929688 176.460938 86.640625 210.050781 90.351562 C 215.191406 91.058594 220.421875 90.949219 225.488281 92.070312 Z M 225.488281 92.070312 " transform="matrix(1,0,0,-1,0,512)"/>
<path style="fill-rule:nonzero;fill:rgb(98.799133%,90.99884%,77.2995%);fill-opacity:1;stroke-width:0.09375;stroke-linecap:butt;stroke-linejoin:miter;stroke:rgb(98.799133%,90.99884%,77.2995%);stroke-opacity:1;stroke-miterlimit:10;" d="M 83.199219 40.738281 C 85.378906 42.910156 87.898438 44.691406 90.570312 46.21875 C 86.808594 36.890625 78.96875 29.398438 69.5 26.039062 C 73.308594 31.589844 78.371094 36.109375 83.199219 40.738281 Z M 83.199219 40.738281 " transform="matrix(1,0,0,-1,0,512)"/>
</g>
</svg>
