<svg xmlns="http://www.w3.org/2000/svg" xmlns:xlink="http://www.w3.org/1999/xlink" width="213.395pt" height="213.395pt" viewBox="0 0 213.395 213.395"><defs><path id="b" d="M.4375-3.51562C.4375-1.40625 1.04688.125 2.78125.125c1.73438 0 2.35938-1.53125 2.35938-3.64062 0-2.09375-.625-3.625-2.35938-3.625S.4375-5.60937.4375-3.51562m1.0625 0c0-1.70313.28125-3.25 1.28125-3.25s1.28125 1.54687 1.28125 3.25C4.0625-1.79687 3.78125-.25 2.78125-.25S1.5-1.79687 1.5-3.51562m0 0"/><path id="c" d="M.89063-2.65625h5.78125v-.60937H.89063Zm0 0"/><path id="d" d="M.28125-.09375.39063 0h4.34375l.35937-1.39062-.29687-.04688c-.21875.5625-.42188.64063-.85938.64063H1.26563c.17187-.54688.79687-1.29688 1.76562-2 1-.73438 1.78125-1.20313 1.78125-2.375 0-1.46875-.96875-1.96875-2.07812-1.96875-1.4375 0-2.17188.875-2.17188 1.42187 0 .35938.39063.53125.57813.53125s.25-.125.29687-.29687c.17188-.71875.57813-1.28125 1.23438-1.28125.79687 0 1.03125.67187 1.03125 1.4375 0 1.125-.5625 1.76562-1.48438 2.5625C.92188-1.625.48438-.92187.28125-.09375m0 0"/><path id="e" d="M1.14063 0h3.45312v-.29687L3.70313-.375c-.21875-.03125-.34375-.10937-.34375-.51562v-6.1875l-.04688-.0625-2.17187.375v.25l.98437.125c.17188.01562.25.09375.25.40625v5.09375c0 .40625-.10937.48437-.35937.51562l-.875.07813Zm0 0"/><path id="f" d="M.28125-1.07812C.28125-.625 1 .125 2.48438.125c1.53125 0 2.48437-.76562 2.48437-2.10937 0-1.40625-1.20312-1.82813-1.78125-1.875v-.04688C3.75-4 4.65625-4.42187 4.65625-5.46875c0-1.15625-.90625-1.67187-2.03125-1.67187-1.39062 0-2.0625.8125-2.0625 1.25 0 .32812.35938.5.51563.5.125 0 .20312-.07813.25-.20313.23437-.71875.625-1.17187 1.21875-1.17187.82812 0 1.04687.71875 1.04687 1.3125 0 .625-.23437 1.42187-1.125 1.42187-.5 0-.79687-.10937-.92187-.10937s-.1875.10937-.1875.29687c0 .17188.0625.29688.1875.29688s.42187-.10938.92187-.10938c.89063 0 1.39063.8125 1.39063 1.71875C3.85938-.6875 3.25-.25 2.5-.25c-.6875 0-1.14062-.51562-1.34375-1.10937-.07812-.1875-.17187-.29688-.3125-.29688-.20312 0-.5625.20313-.5625.57813m0 0"/><clipPath id="a"><path d="M0 0h212.79297v212.79297H0Zm0 0"/></clipPath><clipPath id="g"><path d="M195 111h17.79297v26H195Zm0 0"/></clipPath><clipPath id="h"><path d="M88 6h2v206.79297h-2Zm0 0"/></clipPath></defs><g clip-path="url(#a)"><path fill="none" stroke="#000" stroke-miterlimit="10" stroke-opacity=".5" stroke-width=".39737" d="M.39452 194.73048h212.00002M.39452 159.39454h212.00002M.39452 124.0625h212.00002M.39452 88.73047h212.00002M.39452 53.39452h212.00002M.39452 18.0625h212.00002M18.0625 212.39454V.39452m35.33204 212.00002V.39452m35.33594 212.00002V.39452m35.33203 212.00002V.39452m35.33204 212.00002V.39452m35.33594 212.00002V.39452"/></g><path fill="none" stroke="#000" stroke-miterlimit="10" stroke-opacity=".5" stroke-width=".39737" d="M88.73047 115.23047v17.66406"/><use xlink:href="#b" x="73.58039" y="139.93826" fill-opacity=".5"/><path fill="none" stroke="#000" stroke-miterlimit="10" stroke-opacity=".5" stroke-width=".39737" d="M18.0625 115.23047v17.66406"/><g fill-opacity=".5"><use xlink:href="#c" x="11.50339" y="136.4661"/><use xlink:href="#d" x="19.05856" y="136.4661"/></g><path fill="none" stroke="#000" stroke-miterlimit="10" stroke-opacity=".5" stroke-width=".39737" d="M53.39453 115.23047v17.66406"/><g fill-opacity=".5"><use xlink:href="#c" x="46.83621" y="136.4661"/><use xlink:href="#e" x="54.39138" y="136.4661"/></g><path fill="none" stroke="#000" stroke-miterlimit="10" stroke-opacity=".5" stroke-width=".39737" d="M124.0625 115.23047v17.66406"/><use xlink:href="#e" x="121.27916" y="136.4661" fill-opacity=".5"/><path fill="none" stroke="#000" stroke-miterlimit="10" stroke-opacity=".5" stroke-width=".39737" d="M159.39454 115.23047v17.66406"/><use xlink:href="#d" x="156.61199" y="136.4661" fill-opacity=".5"/><path fill="none" stroke="#000" stroke-miterlimit="10" stroke-opacity=".5" stroke-width=".39737" d="M194.73048 115.23047v17.66406"/><use xlink:href="#f" x="191.94481" y="136.40428" fill-opacity=".5"/><path fill="none" stroke="#000" stroke-miterlimit="10" stroke-width=".79475" d="M.39452 124.0625H206.2383"/><path d="M210.39063 124.0625c-.51172-.10547-2.75391-.70703-4.15235-1.35937v2.71874c1.39844-.65234 3.64063-1.2539 4.15234-1.35937m0 0"/><g clip-path="url(#g)"><path fill="none" stroke="#000" stroke-miterlimit="10" stroke-width=".79475" d="M210.39063 124.0625c-.51172-.10547-2.75391-.70703-4.15235-1.35937v2.71875c1.39844-.65235 3.64063-1.25391 4.15235-1.35938Zm0 0"/></g><path fill="none" stroke="#000" stroke-miterlimit="10" stroke-opacity=".5" stroke-width=".39737" d="M97.5625 194.73048H79.89453"/><g fill-opacity=".5"><use xlink:href="#c" x="69.8021" y="198.2988"/><use xlink:href="#d" x="77.35727" y="198.2988"/></g><path fill="none" stroke="#000" stroke-miterlimit="10" stroke-opacity=".5" stroke-width=".39737" d="M97.5625 159.39454H79.89453"/><g fill-opacity=".5"><use xlink:href="#c" x="69.8021" y="162.96597"/><use xlink:href="#e" x="77.35727" y="162.96597"/></g><path fill="none" stroke="#000" stroke-miterlimit="10" stroke-opacity=".5" stroke-width=".39737" d="M97.5625 88.73047H79.89453"/><use xlink:href="#e" x="73.58039" y="92.30032" fill-opacity=".5"/><path fill="none" stroke="#000" stroke-miterlimit="10" stroke-opacity=".5" stroke-width=".39737" d="M97.5625 53.39452H79.89453"/><use xlink:href="#d" x="73.58039" y="56.96749" fill-opacity=".5"/><path fill="none" stroke="#000" stroke-miterlimit="10" stroke-opacity=".5" stroke-width=".39737" d="M97.5625 18.06249H79.89453"/><use xlink:href="#f" x="73.58039" y="21.57284" fill-opacity=".5"/><g clip-path="url(#h)"><path fill="none" stroke="#000" stroke-miterlimit="10" stroke-width=".79475" d="M88.73047 212.39454V6.55468"/></g><path stroke="#000" stroke-miterlimit="10" stroke-width=".79475" d="M88.73047 2.40234c-.10547.51172-.70703 2.75-1.36328 4.15235h2.72265c-.65234-1.40235-1.2539-3.64063-1.35937-4.15235Zm0 0"/></svg>