<svg xmlns="http://www.w3.org/2000/svg" xmlns:xlink="http://www.w3.org/1999/xlink" width="192.135" height="319.694" viewBox="0 0 192.135 319.694"><defs><path id="b" d="M1.60938-4.78125h10.375v-1.10937h-10.375Zm0 0"/><path id="c" d="M2.04688 0H8.25v-.54687L6.67188-.6875c-.40625-.03125-.625-.17187-.625-.92187v-11.125l-.10938-.09375-3.89062.65625v.46875l1.76562.21875c.32813.04687.4375.1875.4375.71875v9.15625c0 .75-.17187.89062-.60937.92187l-1.59375.14063Zm0 0"/><path id="d" d="M.5-.1875.70313 0h7.8125l.64062-2.48437-.51562-.10938c-.40625 1.03125-.79688 1.17188-1.54688 1.17188H2.26563C2.5625-2.40625 3.6875-3.75 5.4375-5.01562 7.25-6.34375 8.65625-7.1875 8.65625-9.29687c0-2.625-1.75-3.53125-3.73437-3.53125C2.32813-12.82812 1-11.26562 1-10.28125c0 .64063.73438.9375 1.04688.9375.34375 0 .46875-.1875.54687-.51562.29688-1.28125 1.04688-2.3125 2.20313-2.3125 1.45312 0 1.875 1.20312 1.875 2.59375 0 2.03125-1.03125 3.17187-2.67188 4.625C1.67188-2.9375.85938-1.64062.5-.1875m0 0"/><path id="e" d="M.78125-6.29687C.78125-2.53125 1.89063.21875 5 .21875s4.23438-2.75 4.23438-6.51562c0-3.78125-1.125-6.53125-4.23438-6.53125s-4.21875 2.75-4.21875 6.53125m1.90625 0c0-3.07813.53125-5.875 2.3125-5.875s2.3125 2.79687 2.3125 5.875C7.3125-3.23437 6.78125-.4375 5-.4375S2.6875-3.23437 2.6875-6.29687m0 0"/><clipPath id="a"><path d="M0 .5625h191.27344v318.26172H0Zm0 0"/></clipPath><clipPath id="f"><path d="M95 1h2v317.82422h-2Zm0 0"/></clipPath><clipPath id="g"><path d="M92 .5625h8V5h-8Zm0 0"/></clipPath></defs><g clip-path="url(#a)"><path fill="none" stroke="#000" stroke-miterlimit="10" stroke-opacity=".5" stroke-width=".39671" d="M.39454 286.68358H190.8789M.39454 223.18749H190.8789M.39454 159.69531H190.8789M.39454 96.19923H190.8789M.39454 32.70705H190.8789M32.14454 318.42967V.95705m63.49218 317.47262V.95705m63.49608 317.47262V.95705"/></g><path fill="none" stroke="#000" stroke-miterlimit="10" stroke-opacity=".5" stroke-width=".39671" d="M32.14454 143.82032v31.74608"/><g fill-opacity=".5"><use xlink:href="#b" x="20.35436" y="181.98434"/><use xlink:href="#c" x="33.93111" y="181.98434"/></g><path fill="none" stroke="#000" stroke-miterlimit="10" stroke-opacity=".5" stroke-width=".39671" d="M159.1328 143.82032v31.74608"/><use xlink:href="#c" x="154.1301" y="181.98434" fill-opacity=".5"/><path fill="none" stroke="#000" stroke-miterlimit="10" stroke-opacity=".5" stroke-width=".39671" d="M111.51172 286.68358h-31.7461"/><g fill-opacity=".5"><use xlink:href="#b" x="61.62456" y="293.0981"/><use xlink:href="#d" x="75.2013" y="293.0981"/></g><path fill="none" stroke="#000" stroke-miterlimit="10" stroke-opacity=".5" stroke-width=".39671" d="M111.51172 223.1875h-31.7461"/><g fill-opacity=".5"><use xlink:href="#b" x="61.62456" y="229.60495"/><use xlink:href="#c" x="75.2013" y="229.60495"/></g><path fill="none" stroke="#000" stroke-miterlimit="10" stroke-opacity=".5" stroke-width=".39671" d="M111.51172 96.19923h-31.7461"/><use xlink:href="#c" x="68.413" y="102.61765" fill-opacity=".5"/><path fill="none" stroke="#000" stroke-miterlimit="10" stroke-opacity=".5" stroke-width=".39671" d="M111.51172 32.70705h-31.7461"/><use xlink:href="#d" x="68.413" y="39.1235" fill-opacity=".5"/><path fill="none" stroke="#000" stroke-miterlimit="10" stroke-opacity=".5" stroke-width=".39671" d="M95.63672 143.82032v31.74608"/><use xlink:href="#e" x="68.413" y="188.22424" fill-opacity=".5"/><path fill="none" stroke="#000" stroke-miterlimit="10" stroke-width=".79344" d="M.39454 159.69531h189.69139"/><path fill="none" stroke="#000" stroke-linecap="round" stroke-linejoin="round" stroke-miterlimit="10" stroke-width=".79344" d="M187.9414 156.59766c.46485 1.85937 1.5 2.73437 2.53907 3.09765-1.03906.35938-2.07422 1.23828-2.53906 3.09766"/><g clip-path="url(#f)"><path fill="none" stroke="#000" stroke-miterlimit="10" stroke-width=".79344" d="M95.63672 318.42967V1.75393"/></g><g clip-path="url(#g)"><path fill="none" stroke="#000" stroke-linecap="round" stroke-linejoin="round" stroke-miterlimit="10" stroke-width=".79344" d="M92.53906 3.89453c1.85938-.46484 2.73828-1.4961 3.09766-2.53906C96 2.39844 96.875 3.42969 98.73437 3.89453"/></g></svg>