<svg xmlns="http://www.w3.org/2000/svg" xmlns:xlink="http://www.w3.org/1999/xlink" width="177.962pt" height="177.962pt" viewBox="0 0 177.962 177.962"><defs><path id="b" d="M.4375-3.51562C.4375-1.40625 1.04688.125 2.79688.125c1.73437 0 2.35937-1.53125 2.35937-3.64062s-.625-3.64063-2.35937-3.64063c-1.75 0-2.35938 1.53125-2.35938 3.64063m1.0625 0c0-1.71875.29688-3.26563 1.29688-3.26563.98437 0 1.28125 1.54688 1.28125 3.26563S3.78125-.25 2.79688-.25C1.79688-.25 1.5-1.79687 1.5-3.51562m0 0"/><path id="c" d="M.89063-2.67187H6.6875v-.60938H.89063Zm0 0"/><path id="d" d="M.28125-1.07812C.28125-.625 1.01563.125 2.5.125 4.01563.125 4.98438-.65625 4.98438-2c0-1.40625-1.20313-1.8125-1.79688-1.875v-.04687c.57813-.09375 1.48438-.51563 1.48438-1.5625 0-1.15625-.90625-1.67188-2.04688-1.67188-1.375 0-2.0625.79688-2.0625 1.25 0 .32813.375.5.51563.5.125 0 .20312-.07812.25-.20312.23437-.71875.625-1.17188 1.21875-1.17188.84375 0 1.04687.71875 1.04687 1.3125 0 .625-.21875 1.42188-1.125 1.42188-.5 0-.78125-.09375-.90625-.09375-.14062 0-.20312.09375-.20312.28125s.0625.29687.20312.29687c.125 0 .40625-.09375.90625-.09375.90625 0 1.40625.79688 1.40625 1.71875 0 1.25-.60937 1.6875-1.35937 1.6875-.70313 0-1.15625-.51562-1.35938-1.10937-.0625-.20313-.17187-.29688-.3125-.29688-.1875 0-.5625.20313-.5625.57813m0 0"/><path id="e" d="M.28125-.09375.39063 0H4.75l.35938-1.39062-.29688-.04688c-.21875.5625-.4375.64063-.85937.64063h-2.6875c.17187-.54688.79687-1.29688 1.76562-2 1.01563-.75 1.79688-1.21875 1.79688-2.39063 0-1.46875-.96875-1.96875-2.07813-1.96875-1.45312 0-2.1875.875-2.1875 1.42188 0 .35937.40625.53125.57813.53125.1875 0 .26562-.125.29687-.29688.17188-.71875.59375-1.28125 1.23438-1.28125.8125 0 1.04687.67188 1.04687 1.4375 0 1.125-.57812 1.76563-1.48437 2.57813C.9375-1.64062.48438-.92187.28124-.09375m0 0"/><path id="f" d="M1.14063 0h3.46875v-.29687L3.71875-.375C3.5-.40625 3.375-.48437 3.375-.89062v-6.21875l-.0625-.04688-2.17187.375v.25l.98437.125c.1875.01563.25.09375.25.40625v5.10938c0 .40625-.09375.48437-.34375.51562l-.89062.07813Zm0 0"/><path id="j" d="M.39063-5.84375c0 1.03125 1.01562 1.82813 3.35937 1.82813-.39062.6875-.67187 1.40625-.67187 2.17187 0 1.28125.8125 1.98438 2.28125 1.98438 1.42187 0 2.92187-1.03125 2.92187-2.375 0-.79688-.65625-1.23438-1.5-1.23438-.92187 0-2 1.04688-2 1.85938 0 .25.1875.71875.53125.71875.10938 0 .23438-.0625.23438-.1875 0-.14063-.26563-.15626-.26563-.51563 0-.57812.82813-1.5 1.5-1.5.48438 0 .76563.1875.76563.65625 0 1.03125-1 2.20313-2.1875 2.20313-.84375 0-1.28125-.46875-1.28125-1.23438 0-.875.60937-1.89062 1.0625-2.64062 2.60937-.40625 5.15625-1.6875 5.15625-3.3125 0-.625-.5-1.03125-1.17188-1.03125-1.54687 0-3.875 1.98437-5.15625 4.03125-1.0625-.01563-2.76562-.03125-2.76562-1.28125 0-1.14063 1.39062-2.03125 2.26562-2.03125.15625 0 .25-.09375.25-.20313 0-.09375-.09375-.17187-.1875-.17187-1.3125 0-3.14062.89062-3.14062 2.26562M5.375-4.5625c.85938-1.51562 2.6875-3.51562 3.75-3.51562.40625 0 .70313.23437.70313.625 0 1.29687-2.0625 2.5-4.45313 2.89062m0 0"/><path id="k" d="M.26563.79688c0 .71875.76562 1.1875 1.82812 1.1875 1.17188 0 2.0625-.46875 2.0625-1.375 0-.65625-.51562-1.09375-1.45312-1.3125-.70313-.17188-1-.26563-1-.48438 0-.15625.15624-.25.34375-.29687.17187.01562.3125.01562.45312.01562 1.14063 0 1.8125-.60937 1.8125-1.45312 0-.21875-.0625-.42188-.15625-.5625l.67188-.09375.26562-.54688-.04687-.0625-1.1875.3125c-.23438-.14062-.65625-.23437-1.04688-.23437-1.40625 0-1.8125.875-1.8125 1.5 0 .57812.4375.9375.70313 1.03125-.29688.10937-.79688.3125-.79688.64062 0 .29688.34375.53125.625.64063C.96875-.20312.26563.125.26563.79688m.84375-.07813c0-.57812.5-.82812.79687-.875.51563.0625 1.45313.28125 1.45313.95313 0 .60937-.5.875-1.0625.875-.67188 0-1.1875-.35938-1.1875-.95313m.78125-3.17187c0-.53125.25-1.34375.96875-1.34375.23437 0 .60937.10937.60937.625 0 .75-.375 1.39062-.95312 1.39062-.42188 0-.625-.28125-.625-.67187m0 0"/><clipPath id="a"><path d="M0 0h177.92578v177.92578H0Zm0 0"/></clipPath><clipPath id="g"><path d="M160 40h17.92578v27H160Zm0 0"/></clipPath><clipPath id="h"><path d="M123 6h2v171.92578h-2Zm0 0"/></clipPath><clipPath id="i"><path d="M.39844.39844h177.1289v177.1289H.39844Zm0 0"/></clipPath></defs><g clip-path="url(#a)"><path fill="none" stroke="#000" stroke-miterlimit="10" stroke-opacity=".5" stroke-width=".39842" d="M.39838 159.81255h177.12899m-177.129-35.4258h177.129M.39837 88.96095h177.129M.39837 53.53515h177.129M.39837 18.10936h177.129M18.10932 177.5274V.39841m35.4258 177.129V.3984m35.4258 177.129V.3984m35.4258 177.129V.3984m35.4258 177.129V.3984"/></g><path fill="none" stroke="#000" stroke-miterlimit="10" stroke-opacity=".5" stroke-width=".39842" d="M124.38672 44.67968v17.71485"/><use xlink:href="#b" x="109.19868" y="69.45417" fill-opacity=".5"/><path fill="none" stroke="#000" stroke-miterlimit="10" stroke-opacity=".5" stroke-width=".39842" d="M18.10932 44.67968v17.71485"/><g fill-opacity=".5"><use xlink:href="#c" x="11.53354" y="65.91093"/><use xlink:href="#d" x="19.10851" y="65.91093"/></g><path fill="none" stroke="#000" stroke-miterlimit="10" stroke-opacity=".5" stroke-width=".39842" d="M53.53512 44.67968v17.71485"/><g fill-opacity=".5"><use xlink:href="#c" x="46.95897" y="65.97291"/><use xlink:href="#e" x="54.53395" y="65.97291"/></g><path fill="none" stroke="#000" stroke-miterlimit="10" stroke-opacity=".5" stroke-width=".39842" d="M88.96092 44.67968v17.71485"/><g fill-opacity=".5"><use xlink:href="#c" x="82.38441" y="65.97291"/><use xlink:href="#f" x="89.95938" y="65.97291"/></g><path fill="none" stroke="#000" stroke-miterlimit="10" stroke-opacity=".5" stroke-width=".39842" d="M159.81252 44.67968v17.71485"/><use xlink:href="#f" x="157.02247" y="65.97291" fill-opacity=".5"/><path fill="none" stroke="#000" stroke-miterlimit="10" stroke-width=".79684" d="M.39838 53.53516h170.9532"/><path d="M175.51563 53.53516c-.51172-.10547-2.76172-.70703-4.16407-1.36328v2.73046c1.40235-.65625 3.65235-1.2578 4.16406-1.36718m0 0"/><g clip-path="url(#g)"><path fill="none" stroke="#000" stroke-miterlimit="10" stroke-width=".79684" d="M175.51563 53.53516c-.51172-.10547-2.76172-.70704-4.16407-1.36329v2.73047c1.40235-.65625 3.65235-1.2578 4.16407-1.36718Zm0 0"/></g><path fill="none" stroke="#000" stroke-miterlimit="10" stroke-opacity=".5" stroke-width=".39842" d="M133.2422 159.81255h-17.71095"/><g fill-opacity=".5"><use xlink:href="#c" x="105.41049" y="163.33112"/><use xlink:href="#d" x="112.98547" y="163.33112"/></g><path fill="none" stroke="#000" stroke-miterlimit="10" stroke-opacity=".5" stroke-width=".39842" d="M133.2422 124.38675h-17.71095"/><g fill-opacity=".5"><use xlink:href="#c" x="105.41049" y="127.96767"/><use xlink:href="#e" x="112.98547" y="127.96767"/></g><path fill="none" stroke="#000" stroke-miterlimit="10" stroke-opacity=".5" stroke-width=".39842" d="M133.2422 88.96095h-17.71095"/><g fill-opacity=".5"><use xlink:href="#c" x="105.41049" y="92.54224"/><use xlink:href="#f" x="112.98547" y="92.54224"/></g><path fill="none" stroke="#000" stroke-miterlimit="10" stroke-opacity=".5" stroke-width=".39842" d="M133.2422 18.10936h-17.71095"/><use xlink:href="#f" x="109.19868" y="21.69137" fill-opacity=".5"/><g clip-path="url(#h)"><path fill="none" stroke="#000" stroke-miterlimit="10" stroke-width=".79684" d="M124.38672 177.5274V6.5742"/></g><path stroke="#000" stroke-miterlimit="10" stroke-width=".79684" d="M124.38672 2.41015c-.10547.51172-.70703 2.75782-1.36328 4.16407H125.75c-.65234-1.40625-1.25781-3.65235-1.36328-4.16407Zm0 0"/><g clip-path="url(#i)"><path fill="none" stroke="#FF7F00" stroke-miterlimit="10" stroke-width=".79684" d="m.39838.39841 7.3789 7.37891 7.37892 7.37891c2.04687 2.05078 5.33203 5.33594 7.38281 7.38282l7.37891 7.3789 7.37891 7.37892c2.05079 2.05078 5.33204 5.33594 7.38282 7.38281l7.3789 7.37891 7.37892 7.37891c2.05078 2.05078 5.33203 5.33594 7.38282 7.38282l7.3789 7.3789c2.04688 2.04688 5.33204 5.33204 7.37891 7.38282 2.05079 2.04688 5.33204 5.33204 7.38282 7.37891l7.37891 7.37891c2.04688 2.04688 5.33203 5.33204 7.37891 7.38282 2.05078 2.04688 5.33203 5.33203 7.38282 7.37891l7.3789 7.37891c2.04688 2.04688 5.33204 5.33203 7.37892 7.38282 2.05078 2.04687 5.33203 5.33203 7.38281 7.3789l7.37891 7.37892c2.04688 2.04687 5.33204 5.33203 7.37891 7.38281 2.05078 2.04688 5.33204 5.33204 7.38282 7.37891l7.3789 7.37891c2.04688 2.05078 5.33204 5.33204 7.37892 7.38282 2.05078 2.04687 7.38281 7.3789 7.38281 7.3789"/></g><use xlink:href="#j" x="45.75723" y="44.42052" fill="#FF7F00"/><use xlink:href="#k" x="55.30644" y="47.15993" fill="#FF7F00"/></svg>