<svg xmlns="http://www.w3.org/2000/svg" xmlns:xlink="http://www.w3.org/1999/xlink" width="450.053" height="323.757" viewBox="0 0 450.053 323.757"><defs><path id="b" d="M1.60938-4.79687h10.40625v-1.09375H1.60938Zm0 0"/><path id="c" d="M.5-1.9375C.5-1.125 1.8125.21875 4.48438.21875c2.73437 0 4.46875-1.39062 4.46875-3.79687 0-2.54688-2.17188-3.28125-3.21875-3.39063v-.07812c1.03125-.15625 2.65625-.92188 2.65625-2.79688 0-2.09375-1.625-3.01562-3.65625-3.01562-2.5 0-3.73438 1.45312-3.73438 2.25 0 .59375.67188.90625.9375.90625.23438 0 .375-.14063.45313-.375.42187-1.29688 1.125-2.125 2.20312-2.125 1.48438 0 1.85938 1.3125 1.85938 2.375 0 1.14062-.39063 2.5625-2 2.5625-.90625 0-1.4375-.1875-1.65625-.1875-.23438 0-.34375.1875-.34375.53125 0 .32812.10937.51562.34375.51562.21875 0 .75-.17187 1.65625-.17187 1.60937 0 2.51562 1.45312 2.51562 3.09375 0 2.25-1.10937 3.04687-2.45312 3.04687-1.25 0-2.07813-.9375-2.4375-2-.125-.35937-.3125-.54687-.5625-.54687C1.17188-2.98437.5-2.60937.5-1.9375m0 0"/><path id="d" d="M.5-.1875.70313 0h7.82812l.64063-2.5-.51563-.09375C8.25-1.5625 7.875-1.42187 7.10938-1.42187H2.28125c.29688-1 1.42188-2.34375 3.17188-3.60938 1.8125-1.32812 3.21875-2.17187 3.21875-4.28125 0-2.64062-1.75-3.54687-3.73438-3.54687-2.60937 0-3.9375 1.5625-3.9375 2.5625 0 .64062.73438.9375 1.04688.9375.34375 0 .46875-.20313.54687-.51563.29688-1.29687 1.04688-2.32812 2.21875-2.32812 1.45313 0 1.875 1.21875 1.875 2.60937 0 2.03125-1.03125 3.17188-2.6875 4.625C1.67188-2.9375.85938-1.65625.5-.1875m0 0"/><path id="e" d="M2.04688 0h6.21875v-.54687L6.6875-.6875c-.40625-.03125-.625-.17187-.625-.92187v-11.15625l-.10937-.09375-3.90625.65625v.46875l1.78125.21875c.3125.04687.4375.1875.4375.73437v9.17188c0 .75-.1875.89062-.625.92187l-1.59375.14063Zm0 0"/><path id="f" d="m.35938-3.78125.15625.40625h5.15625v1.92188c0 .64062-.20313.75-.65625.78125l-1.21875.125V0h5v-.54687l-.84375-.09376c-.45313-.0625-.5625-.17187-.5625-.8125V-3.375H9.3125v-.89062H7.39063v-8.375H6c-1.78125 2.625-3.90625 5.90625-5.64062 8.85937m1.375-.48437c1.125-2.04688 2.48437-4.25 3.9375-6.54688v6.54688Zm0 0"/><path id="g" d="M.78125-6.3125c0 3.78125 1.10938 6.53125 4.23438 6.53125C8.125.21875 9.25-2.53125 9.25-6.3125c0-3.79687-1.125-6.54687-4.23437-6.54687-3.125 0-4.23438 2.75-4.23438 6.54687m1.92188 0c0-3.07812.51562-5.89062 2.3125-5.89062 1.78125 0 2.3125 2.8125 2.3125 5.89062s-.53125 5.875-2.3125 5.875c-1.79688 0-2.3125-2.79687-2.3125-5.875m0 0"/><path id="j" d="M.6875-10.5c0 1.84375 1.84375 3.29688 6.04688 3.29688-.6875 1.23437-1.20313 2.5-1.20313 3.89062C5.53125-1 6.98438.25 9.625.25c2.5625 0 5.25-1.85937 5.25-4.25 0-1.4375-1.1875-2.21875-2.6875-2.21875-1.65625 0-3.59375 1.85938-3.59375 3.32813 0 .45312.32813 1.29687.95313 1.29687.1875 0 .4375-.125.4375-.32812 0-.26563-.5-.29688-.5-.9375 0-1.03125 1.5-2.6875 2.70312-2.6875.85938 0 1.375.32812 1.375 1.15625 0 1.85937-1.79687 3.96875-3.9375 3.96875-1.53125 0-2.3125-.82813-2.3125-2.21875 0-1.5625 1.09375-3.40625 1.92188-4.75 4.6875-.70313 9.26562-3.01563 9.26562-5.9375 0-1.125-.89062-1.85938-2.09375-1.85938-2.78125 0-6.96875 3.54688-9.26562 7.25-1.90625-.03125-5-.07812-5-2.3125 0-2.0625 2.51562-3.64062 4.07812-3.64062.29688 0 .45313-.1875.45313-.35938 0-.1875-.15625-.3125-.34375-.3125C3.98438-14.5625.6875-12.98437.6875-10.5m8.98438 2.28125c1.53125-2.70312 4.8125-6.29687 6.73437-6.29687.73438 0 1.25.42187 1.25 1.10937 0 2.35938-3.6875 4.5-7.98437 5.1875m0 0"/><path id="k" d="M-.3125 2.64063c.01563.51562.64063.90625 1.4375.90625 1.53125 0 2.23438-1.21875 2.85938-3.98438l1.375-6.17187h1.84375l.15625-.60938H5.45313L5.89063-9c.25-.98437.5-1.35937.85937-1.35937.34375 0 .59375.28125.9375 1.03125.09375.15625.21875.29687.46875.29687.34375 0 .79688-.29687.79688-.70312 0-.64063-.8125-1.17188-1.78125-1.17188-1.84375 0-2.59375 1.32813-3.125 3.20313l-.15625.48437H2.625l-.1875.60938H3.75L2.03125 2.125c-.14062.75-.28125.85938-.42187.85938-.15626 0-.39063-.14063-.76563-.75C.73438 2.07813.625 1.875.40625 1.875c-.35937 0-.71875.375-.71875.76563m0 0"/><path id="l" d="M.8125-5.8125c0 1.875.51563 3.4375 1.42188 4.4375C3.1875-.32812 4.5625.25 6.40625.25S9.625-.32812 10.57813-1.375C11.48438-2.375 12-3.9375 12-5.8125S11.48438-9.25 10.57813-10.25C9.625-11.3125 8.25-11.89062 6.40625-11.89062S3.1875-11.3125 2.23438-10.25C1.32813-9.25.8125-7.6875.8125-5.8125m1.875 0c0-2.46875.73438-5.5 3.71875-5.5s3.71875 3.03125 3.71875 5.5S9.39063-.34375 6.40625-.34375s-3.71875-3-3.71875-5.46875m0 0"/><path id="m" d="M.53125 0h4.4375v-.48437c-1.5-.09375-1.59375-.125-1.59375-.98438v-3.9375c0-1.28125.57813-1.73437.96875-1.73437.26563 0 .5625.10937 1.04688.375.125.07812.25.09375.32812.09375.42188 0 .78125-.4375.78125-.95313 0-.375-.23437-.8125-.90625-.8125-.60937 0-1.10937.34375-2.21875 1.32813L3.1875-8.4375.625-8.01562v.40625l.625.09375c.4375.07812.5625.14062.5625.75v5.29687c0 .85938-.09375.89063-1.28125.98438Zm0 0"/><path id="n" d="M.82813-3.95312C.82813-1.46875 2.125.20313 4.34375.20313c.92188 0 1.6875-.42188 2.59375-1.15625V-.125L7.07813 0h2.71875v-.48437c-1.1875-.09375-1.25-.125-1.25-.98438V-12.375l-.125-.09375-2.64063.40625v.4375l.64063.04688c.4375.0625.53125.14062.53125.79687v2.75C6.5-8.28125 5.875-8.4375 5.09375-8.4375c-1.375 0-2.40625.4375-3.10937 1.15625-.71875.75-1.15625 1.85938-1.15625 3.32813m1.75-.20313c0-2.17187.78125-3.70312 2.5-3.70312.79687 0 1.4375.35937 1.73437 1.0625.14063.28125.14063.53125.14063.98437v2.95313c0 .375 0 .65625-.09375.9375-.34375.89062-1.07813 1.21875-1.95313 1.21875-1.54687 0-2.32812-1.51563-2.32812-3.45313m0 0"/><path id="o" d="M.82813-4.10937c0 2.71875 1.34375 4.3125 4.03125 4.3125 2.70312 0 4.03125-1.59375 4.03125-4.3125S7.5625-8.4375 4.85938-8.4375c-2.6875 0-4.03125 1.60938-4.03125 4.32813m1.75 0c0-2.32813.75-3.75 2.28125-3.75 1.54687 0 2.29687 1.42187 2.29687 3.75 0 2.3125-.75 3.71875-2.29687 3.71875-1.53125 0-2.28125-1.40625-2.28125-3.71875m0 0"/><path id="p" d="M.53125 0h4.10938v-.48437C3.4375-.57812 3.375-.60937 3.375-1.46875v-3.9375c0-.42187.03125-.64062.17188-.90625.35937-.67187 1.10937-1.21875 2-1.21875 1.14062 0 1.76562.625 1.76562 2.09375v3.96875c0 .85938-.04687.89063-1.26562.98438V0h4.10937v-.48437c-1.1875-.09375-1.26562-.125-1.26562-.98438v-4.29687c0-1.6875-.92188-2.67188-2.46875-2.67188-1.25 0-2.01563.59375-3.0625 1.28125L3.125-8.4375l-2.5.42188v.40625l.625.09375c.4375.07812.5625.14062.5625.75v5.29687c0 .85938-.0625.89063-1.28125.98438Zm0 0"/><path id="q" d="m3.375-9.45312.25.34375 2.54688-1.40625c.5-.26563.95312-.5625.95312-.92188 0-.32812-.42187-.73437-.67187-.73437-.28125 0-.5625.1875-1.0625.70312ZM.82813-4.0625c0 2.67188 1.14062 4.26563 3.875 4.26563 1.85937 0 2.82812-1.04688 3.28125-2.375l-.5-.26563C7.01563-1.45312 6.375-.65625 5.04688-.65625c-2.09375 0-2.5-2.01562-2.46875-3.76562h4.84375c.35937 0 .67187-.09375.67187-.64063 0-.98437-.32812-3.375-3.40625-3.375-2.625 0-3.85937 1.85938-3.85937 4.375m1.76562-1c0-.70312.25-2.79687 2-2.79687 1.5625 0 1.73438 1.59375 1.73438 2.26562 0 .3125-.10938.53125-.5625.53125Zm0 0"/><path id="r" d="M.82813-4.0625c0 2.67188 1.14062 4.26563 3.875 4.26563 1.85937 0 2.82812-1.04688 3.28125-2.375l-.5-.26563C7.01563-1.45312 6.375-.65625 5.04688-.65625c-2.09375 0-2.5-2.01562-2.46875-3.76562h4.84375c.35937 0 .67187-.09375.67187-.64063 0-.98437-.32812-3.375-3.40625-3.375-2.625 0-3.85937 1.85938-3.85937 4.375m1.76562-1c0-.70312.25-2.79687 2-2.79687 1.5625 0 1.73438 1.59375 1.73438 2.26562 0 .3125-.10938.53125-.5625.53125Zm0 0"/><path id="s" d="M1.85938-11.4375c0 .35938.45312.65625.95312.92188l2.53125 1.40625.25-.34375-2-2.01563c-.5-.51562-.78125-.70312-1.07812-.70312-.25 0-.65625.40625-.65625.73437m-1.03125 9.25c0 1.25.82812 2.39063 2.40625 2.39063.98437 0 1.96875-.65625 2.51562-1.01563.21875.64063.51563 1.01563 1.10938 1.01563.625 0 1.32812-.1875 1.98437-.5l-.10937-.40625c-.23438.0625-.60938.07812-.85938 0-.3125-.0625-.59375-.375-.59375-1.42188v-4.07812c0-.98438-.21875-2.23438-2.75-2.23438-1.90625 0-3.40625.98438-3.40625 1.90625 0 .53125.625.78125.95313.78125.35937 0 .4375-.17187.53125-.45312.375-1.25 1.0625-1.65625 1.73437-1.65625.67188 0 1.42188.34375 1.42188 1.6875v.70312c-.4375.42188-2.0625.85938-3.39063 1.28125-1.21875.375-1.54687 1.21875-1.54687 2m1.6875-.23437c0-.78125.35937-1.1875 1.3125-1.54688.6875-.25 1.5625-.57812 1.9375-.8125v2.39063c0 1.35937-1.04688 1.6875-1.70313 1.6875-1.03125 0-1.54687-.73438-1.54687-1.71875m0 0"/><path id="t" d="M.34375 0H4.4375v-.48437c-1.20312-.09375-1.25-.125-1.25-.98438V-12.375l-.125-.09375-2.64062.40625v.4375l.64062.04688c.42188.0625.53125.14062.53125.79687v9.3125c0 .85938-.03125.89063-1.25.98438Zm0 0"/><path id="u" d="M1.21875-8.21875 1.5-7.9375c.84375-.78125 1.98438-1.90625 1.98438-3.09375 0-.92187-.54688-1.4375-1.10938-1.4375-.5 0-.79687.35938-.79687.79688 0 .60937.54687.95312.54687 1.57812 0 .64063-.39062 1.28125-.90625 1.875m0 0"/><path id="v" d="M1.53125-11c0 .60938.4375 1.03125 1.04688 1.03125.60937 0 1.01562-.42187 1.01562-1.03125 0-.60937-.40625-1.01562-1.01562-1.01562-.60938 0-1.04688.40625-1.04688 1.01562m-1 11h4.10938v-.48437C3.4375-.57812 3.375-.60937 3.375-1.46875v-6.875L3.25-8.4375l-2.625.42188v.40625l.625.09375c.4375.07812.5625.14062.5625.75v5.29687c0 .85938-.0625.89063-1.28125.98438Zm0 0"/><path id="w" d="M.70313 1.60938c0 1.70312 1.6875 2.45312 3.64062 2.45312 1 0 2.0625-.20312 2.85938-.6875.78125-.45312 1.34375-1.26562 1.34375-2.29687 0-1.82813-1.4375-2.45313-3.25-2.45313H3.95313c-1.21875 0-1.39063-.42187-1.39063-.73437 0-.48438.64063-.75.85938-.82813.3125.04688.67187.0625.85937.0625 1.59375 0 3.39063-.70312 3.39063-2.75 0-.6875-.23438-1.28125-.51563-1.5625L8.5-7.40625l.34375-1.0625-.15625-.14062-2.14062.6875C6.07813-8.25 5.14063-8.4375 4.35938-8.4375 1.79688-8.4375.89063-6.875.89063-5.625c0 1.57813 1.04687 2.3125 1.8125 2.51563v.03125c-.90625.35937-1.54688.84375-1.54688 1.5 0 .59375.6875 1.21875 1.48438 1.3125v.03125C1.9375 0 .70313.39063.70313 1.60938m1.60937-.07813c0-.5625.15625-1 .51563-1.26562C3.20313-.01562 3.75-.125 4.5625-.125c1.48438 0 2.57813.375 2.57813 1.625 0 1.34375-1.21875 1.98438-2.42188 1.98438-1.42187 0-2.40625-.73438-2.40625-1.95313M2.60938-5.625c0-1.65625.85937-2.23437 1.75-2.23437.82812 0 1.6875.60937 1.6875 2.23437 0 1.42188-.71875 2.15625-1.70313 2.15625-.9375 0-1.73437-.73437-1.73437-2.15625m0 0"/><path id="x" d="M.8125-5.75c0 1.96875.57813 3.5625 1.57813 4.5625C3.4375-.14062 5.09375.25 6.98438.25 8.3125.25 9.875-.125 10.6875-.54687l.21875-2.8125h-.5C9.95313-1.60937 9.07813-.34375 6.875-.34375c-3.46875 0-4.1875-3.39062-4.1875-5.4375 0-2.75 1.09375-5.53125 4.21875-5.53125 1.71875 0 2.92188.71875 3.23438 2.70313h.5v-2.625c-.75-.35938-2.01563-.65625-3.5625-.65625-2.0625 0-3.73438.60937-4.73438 1.73437C1.375-9.09375.8125-7.64062.8125-5.75m0 0"/><path id="y" d="M3.375-8.25v-.82812c0-1.89063.98438-2.53125 1.76563-2.53125.85937 0 1.20312.29687 1.84375 1.10937.09375.14063.1875.26563.4375.26563h.01562c-.17187.5-.28125 1.0625-.28125 1.6875V-8.25Zm4.6875-3.07812c-.4375-.46875-1.67187-.89063-2.71875-.89063-.90625 0-2.15625.40625-2.59375 1.0625-.39062.57813-.9375 1.35938-.9375 2.46875v.4375H.5v.6875h1.3125v6.09375c0 .85938-.0625.89063-1.28125.98438V0H4.8125v-.48437C3.45313-.54687 3.375-.59375 3.375-1.45312V-7.5625h3.78125v6.09375c0 .85938-.03125.89063-1.25.98438V0h4.28125v-.48437C8.8125-.54687 8.75-.59375 8.75-1.45312V-7.5625h3.23438c.4375 0 .54687.17188.54687.76563v5.32812c0 .85938-.04687.89063-1.26562.98438V0H15.375v-.48437c-1.20312-.09375-1.26562-.125-1.26562-.98438V-8.4375c-.54688.04688-1.5625.1875-2.90625.1875H8.75v-.76562c0-2.46875 1.10938-2.875 2.03125-2.875.82813 0 1.4375.51562 1.76563 1.42187.0625.15625.1875.3125.48437.3125.375 0 .90625-.23437.90625-.78125 0-.73437-1.03125-1.53125-2.95312-1.53125-1.28125 0-2.26563.40625-2.92188 1.14063m0 0"/><path id="z" d="M.82813-4.04687c0 2.8125 1.375 4.25 3.89062 4.25 1.1875 0 2.78125-.60938 3.25-2.42188l-.51562-.23437C6.9375-1.26562 6.28125-.6875 5.04688-.6875c-2 0-2.46875-2.07812-2.46875-3.65625 0-2.51562.98437-3.51562 2.14062-3.51562.78125 0 1.25.5625 1.59375 1.46875.10938.26562.21875.4375.54688.4375.32812 0 .98437-.21875.98437-.85938 0-.76562-1.10937-1.625-2.9375-1.625-3.0625 0-4.07812 2.15625-4.07812 4.39063m0 0"/><path id="A" d="M.51563-7.5625h1.21875v5.84375C1.73438 0 3 .20313 3.59375.20313c.85938 0 1.67188-.4375 2.15625-.73438l-.125-.35937c-.42187.15624-.78125.20312-1.20312.20312-.57813 0-1.10938-.40625-1.10938-1.67187V-7.5625h2.15625V-8.25H3.3125v-2.10937h-.48437L1.8125-8.25H.51563Zm0 0"/><path id="B" d="m.42188-7.60937.65625.09375c.42187.07812.53125.14062.53125.75v4.4375C1.60938-.39062 2.75.20313 4 .20313 5.4375.20313 6.60938-.76562 7.07813-1L7.25 0h2.70313v-.48437c-1.17188-.09375-1.28125-.125-1.28125-.98438v-6.875l-.125-.09375-2.625.42188v.40625l.64062.09375c.4375.07812.54688.14062.54688.75v3.79687c0 .46875-.0625.84375-.15625 1-.39063.76563-1.17188 1.26563-2.04688 1.26563-.98437 0-1.70312-.625-1.70312-1.92188v-5.71875l-.125-.09375-2.65625.42188Zm0 0"/><clipPath id="a"><path d="M0 .21875h447V320H0Zm0 0"/></clipPath><clipPath id="h"><path d="M219 .21875h8V4h-8Zm0 0"/></clipPath><clipPath id="i"><path d="M.39453 37h445.52344v246H.39453Zm0 0"/></clipPath></defs><g clip-path="url(#a)"><path fill="none" stroke="#000" stroke-miterlimit="10" stroke-opacity=".5" stroke-width=".39766" d="M.39458 287.01953h445.52334M.39458 223.37501h445.52334M.39458 159.7266h445.52334M.39458 96.08207h445.52334M.39458 32.43756h445.52334M32.21879 318.84374V.61334m63.64452 318.2304V.61334m63.64842 318.2304V.61334m63.64452 318.2304V.61334m63.64842 318.2304V.61334m63.64452 318.2304V.61334m63.64842 318.2304V.61334"/></g><path fill="none" stroke="#000" stroke-miterlimit="10" stroke-opacity=".5" stroke-width=".39766" d="M32.2188 271.10938v31.82421"/><g fill-opacity=".5"><use xlink:href="#b" x="20.40307" y="309.25439"/><use xlink:href="#c" x="34.0123" y="309.25439"/></g><path fill="none" stroke="#000" stroke-miterlimit="10" stroke-opacity=".5" stroke-width=".39766" d="M95.8633 271.10938v31.82421"/><g fill-opacity=".5"><use xlink:href="#b" x="84.04815" y="309.36516"/><use xlink:href="#d" x="97.65737" y="309.36516"/></g><path fill="none" stroke="#000" stroke-miterlimit="10" stroke-opacity=".5" stroke-width=".39766" d="M159.51173 271.10938v31.82421"/><g fill-opacity=".5"><use xlink:href="#b" x="147.69422" y="309.36516"/><use xlink:href="#e" x="161.30345" y="309.36516"/></g><path fill="none" stroke="#000" stroke-miterlimit="10" stroke-opacity=".5" stroke-width=".39766" d="M286.80467 271.10938v31.82421"/><use xlink:href="#e" x="281.79006" y="309.36516" fill-opacity=".5"/><path fill="none" stroke="#000" stroke-miterlimit="10" stroke-opacity=".5" stroke-width=".39766" d="M350.4492 271.10938v31.82421"/><use xlink:href="#d" x="345.43514" y="309.36516" fill-opacity=".5"/><path fill="none" stroke="#000" stroke-miterlimit="10" stroke-opacity=".5" stroke-width=".39766" d="M414.09761 271.10938v31.82421"/><use xlink:href="#c" x="409.08121" y="309.25439" fill-opacity=".5"/><path fill="none" stroke="#000" stroke-miterlimit="10" stroke-opacity=".5" stroke-width=".39766" d="M239.0703 223.37501h-31.8242"/><use xlink:href="#e" x="195.86786" y="229.80756" fill-opacity=".5"/><path fill="none" stroke="#000" stroke-miterlimit="10" stroke-opacity=".5" stroke-width=".39766" d="M239.0703 159.72659h-31.8242"/><use xlink:href="#d" x="195.86786" y="166.16249" fill-opacity=".5"/><path fill="none" stroke="#000" stroke-miterlimit="10" stroke-opacity=".5" stroke-width=".39766" d="M239.0703 96.08207h-31.8242"/><use xlink:href="#c" x="195.86786" y="102.40564" fill-opacity=".5"/><path fill="none" stroke="#000" stroke-miterlimit="10" stroke-opacity=".5" stroke-width=".39766" d="M239.0703 32.43756h-31.8242"/><use xlink:href="#f" x="195.86786" y="38.76056" fill-opacity=".5"/><path fill="none" stroke="#000" stroke-miterlimit="10" stroke-opacity=".5" stroke-width=".39766" d="M223.15625 271.10938v31.82421"/><use xlink:href="#g" x="195.86786" y="315.619" fill-opacity=".5"/><path fill="none" stroke="#000" stroke-miterlimit="10" stroke-width=".79534" d="M.39458 287.01953h444.73037"/><path fill="none" stroke="#000" stroke-linecap="round" stroke-linejoin="round" stroke-miterlimit="10" stroke-width=".79534" d="M442.97656 283.91797c.46485 1.86328 1.5 2.74219 2.54688 3.10156-1.04688.36328-2.08203 1.24219-2.54688 3.10547"/><path fill="none" stroke="#000" stroke-miterlimit="10" stroke-width=".79534" d="M223.15625 318.84374V1.40631"/><g clip-path="url(#h)"><path fill="none" stroke="#000" stroke-linecap="round" stroke-linejoin="round" stroke-miterlimit="10" stroke-width=".79534" d="M220.05469 3.55469c1.85937-.46485 2.74218-1.5 3.10156-2.54297.36328 1.04297 1.24219 2.07812 3.10547 2.54297"/></g><g clip-path="url(#i)"><path fill="none" stroke="#007F7F" stroke-miterlimit="10" stroke-width=".79534" d="m.39458 271.10938 18.5625-9.28125c5.15234-2.57422 13.41406-6.70703 18.5625-9.28125 5.15234-2.57422 13.41405-6.70703 18.56249-9.28124 5.15234-2.57422 13.41406-6.70704 18.5664-9.28125 5.14844-2.57422 13.41015-6.70703 18.5625-9.28125 5.14843-2.57813 13.41015-6.70703 18.5625-9.28125 5.14843-2.57812 13.41015-6.70703 18.56249-9.28125 5.15234-2.57812 13.41015-6.70703 18.5625-9.28124 5.15234-2.57813 13.41015-6.70704 18.56249-9.28125 5.15234-2.57813 13.41015-6.70703 18.5625-9.28125 5.15234-2.57813 13.41406-6.70703 18.5625-9.28125 5.15233-2.57812 13.41405-6.70703 18.56249-9.28515 5.15234-2.57422 13.41406-6.70313 18.5625-9.28125 5.15234-2.57422 13.41405-6.70312 18.56249-9.28125 5.15234-2.57422 13.41406-6.70312 18.5664-9.28125 5.14844-2.57421 13.41015-6.70312 18.5625-9.28124 5.14843-2.57422 13.41015-6.70313 18.5625-9.28125 5.14843-2.57422 13.41015-6.70313 18.56249-9.28125 5.15234-2.57422 13.41015-6.70703 18.5625-9.28125 5.15234-2.57422 13.41015-6.70703 18.5625-9.28125 5.15233-2.57421 13.41405-6.70703 18.56249-9.28124 5.15234-2.57422 13.41406-6.70703 18.5625-9.28125 5.15234-2.57422 13.41405-6.70703 18.56249-9.28125 5.15234-2.57422 18.5625-9.28125 18.5625-9.28125"/></g><use xlink:href="#j" x="98.26024" y="187.45768" fill="#007F7F"/><use xlink:href="#k" x="115.41639" y="192.37932" fill="#007F7F"/><path fill="none" stroke="#FF7F00" stroke-dasharray="2.9825534570000003 2.9825534570000003" stroke-miterlimit="10" stroke-width=".39766" d="M229.52344 286.625V160.12503"/><path fill="none" stroke="#FF7F00" stroke-linecap="round" stroke-linejoin="round" stroke-miterlimit="10" stroke-width=".39766" d="M231.91016 284.7539c-1.4336.37891-2.10938 1.21876-2.38672 2.07032-.28125-.85156-.95703-1.6914-2.38672-2.07031m0-122.75781c1.42969-.37891 2.10547-1.21876 2.38672-2.07032.27734.85156.95312 1.6914 2.38672 2.07031"/><g fill="#FF7F00"><use xlink:href="#l" x="237.42541" y="214.15974"/><use xlink:href="#m" x="250.2383" y="214.15974"/></g><g fill="#FF7F00"><use xlink:href="#n" x="256.43" y="214.15974"/><use xlink:href="#o" x="266.48704" y="214.15974"/><use xlink:href="#p" x="276.18618" y="214.15974"/><use xlink:href="#p" x="286.58323" y="214.15974"/><use xlink:href="#q" x="296.98028" y="214.15974"/><use xlink:href="#r" x="305.62361" y="214.15974"/></g><use xlink:href="#s" x="237.42541" y="241.00201" fill="#FF7F00"/><use xlink:href="#t" x="249.96987" y="241.00201" fill="#FF7F00"/><use xlink:href="#u" x="254.51522" y="241.00201" fill="#FF7F00"/><g fill="#FF7F00"><use xlink:href="#o" x="258.00477" y="241.00201"/><use xlink:href="#m" x="267.70391" y="241.00201"/></g><g fill="#FF7F00"><use xlink:href="#v" x="274.36088" y="241.00201"/><use xlink:href="#w" x="279.24624" y="241.00201"/><use xlink:href="#v" x="287.97905" y="241.00201"/><use xlink:href="#p" x="292.86441" y="241.00201"/><use xlink:href="#r" x="303.26146" y="241.00201"/></g><path fill="none" stroke="#EC008C" stroke-dasharray="2.9825534570000003 2.9825534570000003" stroke-miterlimit="10" stroke-width=".39766" d="M287.20311 127.90629h63.24608V96.4805"/><path fill="none" stroke="#EC008C" stroke-linecap="round" stroke-linejoin="round" stroke-miterlimit="10" stroke-width=".39766" d="M289.07031 130.29297c-.3789-1.4336-1.21875-2.10938-2.0664-2.38672.84765-.28125 1.6875-.95703 2.0664-2.38672m58.99219-27.17187c1.4336-.375 2.10937-1.21875 2.38672-2.06641.28125.84766.95703 1.6914 2.38672 2.0664"/><use xlink:href="#x" x="358.35096" y="104.71304" fill="#EC008C"/><g fill="#EC008C"><use xlink:href="#o" x="369.64276" y="104.71304"/><use xlink:href="#r" x="379.3419" y="104.71304"/><use xlink:href="#y" x="387.98523" y="104.71304"/><use xlink:href="#z" x="403.60765" y="104.71304"/><use xlink:href="#v" x="411.94676" y="104.71304"/><use xlink:href="#r" x="416.83212" y="104.71304"/><use xlink:href="#p" x="425.47545" y="104.71304"/><use xlink:href="#A" x="435.8725" y="104.71304"/></g><g fill="#EC008C"><use xlink:href="#n" x="358.35096" y="131.55531"/><use xlink:href="#v" x="368.408" y="131.55531"/><use xlink:href="#m" x="373.29336" y="131.55531"/></g><g fill="#EC008C"><use xlink:href="#r" x="379.48506" y="131.55531"/><use xlink:href="#z" x="388.12839" y="131.55531"/><use xlink:href="#A" x="396.46751" y="131.55531"/><use xlink:href="#r" x="402.24762" y="131.55531"/><use xlink:href="#B" x="410.89095" y="131.55531"/><use xlink:href="#m" x="421.07326" y="131.55531"/></g></svg>