<svg xmlns="http://www.w3.org/2000/svg" xmlns:xlink="http://www.w3.org/1999/xlink" width="447.253" height="447.253" viewBox="0 0 447.253 447.253"><defs><path id="b" d="M1.60938-4.79687h10.42187v-1.10938H1.60938Zm0 0"/><path id="c" d="M.5-1.9375C.5-1.125 1.8125.21875 4.48438.21875c2.75 0 4.48437-1.39062 4.48437-3.79687 0-2.54688-2.1875-3.29688-3.23437-3.39063v-.07812c1.03125-.15625 2.67187-.92188 2.67187-2.79688 0-2.09375-1.64062-3.03125-3.67187-3.03125C2.23438-12.875 1-11.42187 1-10.60937c0 .57812.67188.90625.9375.90625.23438 0 .375-.14063.45313-.39063.42187-1.28125 1.14062-2.10937 2.20312-2.10937 1.48438 0 1.875 1.3125 1.875 2.375 0 1.125-.40625 2.5625-2.01562 2.5625-.90625 0-1.4375-.1875-1.65625-.1875-.23438 0-.34375.1875-.34375.53125 0 .3125.10937.51562.34375.51562.21875 0 .75-.1875 1.65625-.1875 1.60937 0 2.51562 1.45313 2.51562 3.10938 0 2.25-1.10937 3.04687-2.45312 3.04687-1.25 0-2.07813-.9375-2.4375-2-.125-.35937-.3125-.54687-.5625-.54687C1.17188-2.98437.5-2.625.5-1.9375m0 0"/><path id="d" d="M.5-.1875.70313 0h7.84375l.64062-2.5-.53125-.09375C8.25-1.57812 7.875-1.4375 7.10938-1.4375H2.28125c.29688-.98437 1.42188-2.32812 3.17188-3.59375C7.26563-6.35937 8.6875-7.20312 8.6875-9.32812c0-2.64063-1.76562-3.54688-3.75-3.54688C2.34375-12.875 1-11.29687 1-10.3125c0 .64063.73438.95313 1.04688.95313.34375 0 .46875-.20313.54687-.53125.3125-1.28125 1.04688-2.3125 2.21875-2.3125 1.45313 0 1.875 1.20312 1.875 2.59375 0 2.03125-1.03125 3.1875-2.67187 4.64062C1.67188-2.9375.85938-1.65625.5-.1875m0 0"/><path id="e" d="M2.04688 0h6.23437v-.54687L6.6875-.6875c-.40625-.03125-.625-.17187-.625-.92187v-11.15625l-.09375-.10938-3.92187.67188v.46875l1.78125.21875c.32812.03125.4375.17187.4375.71875v9.1875c0 .75-.17188.89062-.625.92187l-1.59375.14063Zm0 0"/><path id="f" d="m.35938-3.78125.17187.39063h5.14063v1.9375c0 .64062-.1875.75-.65625.78125l-1.20313.125V0h4.98438v-.54687l-.84375-.09376c-.4375-.0625-.5625-.17187-.5625-.8125v-1.9375h1.9375v-.875h-1.9375v-8.375H6C4.23438-10.03124 2.09375-6.75.35938-3.78124m1.375-.48437c1.125-2.0625 2.5-4.25 3.9375-6.54688v6.54688Zm0 0"/><path id="g" d="M.78125-6.32812c0 3.79687 1.10938 6.54687 4.23438 6.54687s4.25-2.75 4.25-6.54687c0-3.78125-1.125-6.54688-4.25-6.54688S.78125-10.10937.78125-6.32812m1.92188 0c0-3.07813.51562-5.875 2.3125-5.875 1.79687 0 2.3125 2.79687 2.3125 5.875S6.8125-.4375 5.01563-.4375c-1.79688 0-2.3125-2.8125-2.3125-5.89062m0 0"/><path id="k" d="M.6875-10.5c0 1.84375 1.84375 3.29688 6.04688 3.29688-.6875 1.23437-1.20313 2.5-1.20313 3.89062C5.53125-1 6.98438.25 9.625.25c2.5625 0 5.25-1.85937 5.25-4.25 0-1.4375-1.1875-2.21875-2.6875-2.21875-1.65625 0-3.59375 1.85938-3.59375 3.32813 0 .45312.32813 1.29687.95313 1.29687.1875 0 .4375-.125.4375-.32812 0-.26563-.5-.29688-.5-.9375 0-1.03125 1.5-2.6875 2.70312-2.6875.85938 0 1.375.32812 1.375 1.15625 0 1.85937-1.79687 3.96875-3.9375 3.96875-1.53125 0-2.3125-.82813-2.3125-2.21875 0-1.5625 1.09375-3.40625 1.92188-4.75 4.6875-.70313 9.26562-3.01563 9.26562-5.9375 0-1.125-.89062-1.85938-2.09375-1.85938-2.78125 0-6.96875 3.54688-9.26562 7.25-1.90625-.03125-5-.07812-5-2.3125 0-2.0625 2.51562-3.64062 4.07812-3.64062.29688 0 .45313-.1875.45313-.35938 0-.1875-.15625-.3125-.34375-.3125C3.98438-14.5625.6875-12.98437.6875-10.5m8.98438 2.28125c1.53125-2.70312 4.8125-6.29687 6.73437-6.29687.73438 0 1.25.42187 1.25 1.10937 0 2.35938-3.6875 4.5-7.98437 5.1875m0 0"/><path id="l" d="M-.3125 2.65625c.01563.51563.64063.90625 1.4375.90625 1.54688 0 2.25-1.23437 2.85938-4l1.375-6.17187h1.84375l.15625-.60938H5.45313l.4375-1.79687c.25-.98438.5-1.35938.85937-1.35938.34375 0 .59375.28125.9375 1.03125.09375.15625.23438.29688.48438.29688.34375 0 .79687-.29688.79687-.70313 0-.64062-.8125-1.17187-1.79687-1.17187-1.84375 0-2.59375 1.32812-3.125 3.21875l-.14063.48437H2.64063l-.20313.60938h1.32813L2.03125 2.125C1.89063 2.89063 1.75 3 1.60938 3c-.15626 0-.39063-.14062-.76563-.76562C.73438 2.07813.625 1.875.40625 1.875c-.35937 0-.71875.375-.71875.78125m0 0"/><clipPath id="a"><path d="M0 0h446.50781v446.50781H0Zm0 0"/></clipPath><clipPath id="h"><path d="M442 283h4.50781v8H442Zm0 0"/></clipPath><clipPath id="i"><path d="M222 0h2v446.50781h-2Zm0 0"/></clipPath><clipPath id="j"><path d="M.39453.39453h445.71875v445.71875H.39453Zm0 0"/></clipPath></defs><g clip-path="url(#a)"><path fill="none" stroke="#000" stroke-miterlimit="10" stroke-opacity=".5" stroke-width=".39783" d="M.39444 414.27349h445.71893M.39444 350.60159h445.71893M.39444 286.92579h445.71893M.39444 223.25387h445.71893M.39444 159.57808h445.71893M.39444 95.90617h445.71893M.39444 32.23035h445.71893M32.2304 446.11335V.3944m63.6758 445.71894V.3944m63.6758 445.71895V.3944m63.6719 445.71894V.3944m63.67581 445.71894V.3944m63.6719 445.71894V.3944m63.67581 445.71894V.3944"/></g><path fill="none" stroke="#000" stroke-miterlimit="10" stroke-opacity=".5" stroke-width=".39783" d="M32.23039 271.0078v31.83596"/><g fill-opacity=".5"><use xlink:href="#b" x="20.41191" y="309.16863"/><use xlink:href="#c" x="34.02703" y="309.16863"/></g><path fill="none" stroke="#000" stroke-miterlimit="10" stroke-opacity=".5" stroke-width=".39783" d="M95.9062 271.0078v31.83596"/><g fill-opacity=".5"><use xlink:href="#b" x="84.08456" y="309.27944"/><use xlink:href="#d" x="97.69969" y="309.27944"/></g><path fill="none" stroke="#000" stroke-miterlimit="10" stroke-opacity=".5" stroke-width=".39783" d="M159.582 271.0078v31.83596"/><g fill-opacity=".5"><use xlink:href="#b" x="147.75822" y="309.27944"/><use xlink:href="#e" x="161.37334" y="309.27944"/></g><path fill="none" stroke="#000" stroke-miterlimit="10" stroke-opacity=".5" stroke-width=".39783" d="M286.92971 271.0078v31.83596"/><use xlink:href="#e" x="281.91215" y="309.27944" fill-opacity=".5"/><path fill="none" stroke="#000" stroke-miterlimit="10" stroke-opacity=".5" stroke-width=".39783" d="M350.60162 271.0078v31.83596"/><use xlink:href="#d" x="345.58481" y="309.27944" fill-opacity=".5"/><path fill="none" stroke="#000" stroke-miterlimit="10" stroke-opacity=".5" stroke-width=".39783" d="M414.27742 271.0078v31.83596"/><use xlink:href="#c" x="409.25846" y="309.16863" fill-opacity=".5"/><path fill="none" stroke="#000" stroke-miterlimit="10" stroke-opacity=".5" stroke-width=".39783" d="M239.17188 414.27349h-31.83595"/><g fill-opacity=".5"><use xlink:href="#b" x="189.14509" y="420.70734"/><use xlink:href="#d" x="202.76021" y="420.70734"/></g><path fill="none" stroke="#000" stroke-miterlimit="10" stroke-opacity=".5" stroke-width=".39783" d="M239.17188 350.60159h-31.83595"/><g fill-opacity=".5"><use xlink:href="#b" x="189.14509" y="357.03468"/><use xlink:href="#e" x="202.76021" y="357.03468"/></g><path fill="none" stroke="#000" stroke-miterlimit="10" stroke-opacity=".5" stroke-width=".39783" d="M239.17188 223.25388h-31.83595"/><use xlink:href="#e" x="195.95272" y="229.68838" fill-opacity=".5"/><path fill="none" stroke="#000" stroke-miterlimit="10" stroke-opacity=".5" stroke-width=".39783" d="M239.17188 159.57807h-31.83595"/><use xlink:href="#d" x="195.95272" y="166.01472" fill-opacity=".5"/><path fill="none" stroke="#000" stroke-miterlimit="10" stroke-opacity=".5" stroke-width=".39783" d="M239.17188 95.90617h-31.83595"/><use xlink:href="#c" x="195.95272" y="102.23125" fill-opacity=".5"/><path fill="none" stroke="#000" stroke-miterlimit="10" stroke-opacity=".5" stroke-width=".39783" d="M239.17188 32.23036h-31.83595"/><use xlink:href="#f" x="195.95272" y="38.5576" fill-opacity=".5"/><path fill="none" stroke="#000" stroke-miterlimit="10" stroke-opacity=".5" stroke-width=".39783" d="M223.2539 271.0078v31.83596"/><use xlink:href="#g" x="195.95272" y="315.53699" fill-opacity=".5"/><path fill="none" stroke="#000" stroke-miterlimit="10" stroke-width=".79568" d="M.39444 286.92578H445.3165"/><g clip-path="url(#h)"><path fill="none" stroke="#000" stroke-linecap="round" stroke-linejoin="round" stroke-miterlimit="10" stroke-width=".79568" d="M443.16797 283.82031c.46484 1.86328 1.5039 2.74219 2.54687 3.10547-1.04297.36328-2.08203 1.24219-2.54687 3.10547"/></g><g clip-path="url(#i)"><path fill="none" stroke="#000" stroke-miterlimit="10" stroke-width=".79568" d="M223.2539 446.11335V1.19129"/></g><path fill="none" stroke="#000" stroke-linecap="round" stroke-linejoin="round" stroke-miterlimit="10" stroke-width=".79568" d="M220.14844 3.33985c1.86328-.46876 2.74218-1.50391 3.10547-2.54688.36328 1.04297 1.24218 2.07812 3.10547 2.54688"/><g clip-path="url(#j)"><path fill="none" stroke="#007F7F" stroke-miterlimit="10" stroke-width=".79568" d="m.39444.39441 18.57032 18.57032c5.15625 5.15235 13.41797 13.41798 18.57032 18.57032 5.15625 5.15235 13.41797 13.41798 18.57423 18.57032 5.15234 5.15626 13.41797 13.41798 18.57032 18.57032 5.15234 5.15626 13.41797 13.41798 18.57032 18.57423l18.57032 18.57032 18.57032 18.57032c5.15625 5.15235 13.41797 13.41797 18.57032 18.57032 5.15625 5.15235 13.41797 13.41798 18.57422 18.57032 5.15235 5.15625 13.41407 13.41797 18.57032 18.57032 5.15235 5.15625 13.41798 13.41798 18.57032 18.57423 5.15235 5.15234 13.41798 13.41406 18.57032 18.57032l37.14064 37.14064c5.15626 5.15234 13.41798 13.41797 18.57423 18.57032 5.15235 5.15234 13.41407 13.41797 18.57032 18.57032 5.15235 5.15625 13.41798 13.41797 18.57032 18.57422 5.15235 5.15235 13.41797 13.41407 18.57032 18.57032l18.57032 18.57032 18.57032 18.57033c5.15625 5.15234 13.41798 13.41797 18.57032 18.57031 5.15625 5.15235 13.41798 13.41798 18.57423 18.57033 5.15234 5.15625 13.41797 13.41797 18.57032 18.57031 5.15234 5.15626 18.57032 18.57423 18.57032 18.57423"/></g><use xlink:href="#k" x="231.60018" y="246.7948" fill="#007F7F"/><use xlink:href="#l" x="248.76377" y="251.71633" fill="#007F7F"/></svg>