<svg xmlns="http://www.w3.org/2000/svg" xmlns:xlink="http://www.w3.org/1999/xlink" width="185.049pt" height="185.049pt" viewBox="0 0 185.049 185.049"><defs><path id="a" d="M.5-4.04687C.5-1.625 1.21875.14063 3.20313.14063c2 0 2.71875-1.76563 2.71875-4.1875s-.71875-4.1875-2.71875-4.1875C1.21875-8.23437.5-6.46875.5-4.04687m1.23438 0c0-1.96875.32812-3.76563 1.46875-3.76563 1.15625 0 1.48437 1.79688 1.48437 3.76563S4.35938-.28125 3.20313-.28125c-1.14063 0-1.46875-1.79687-1.46875-3.76562m0 0"/><path id="i" d="M.40625-6.04687c0 1.0625 1.04688 1.89062 3.46875 1.89062-.39062.71875-.6875 1.45313-.6875 2.25 0 1.32813.82813 2.04688 2.35938 2.04688 1.48437 0 3.03125-1.0625 3.03125-2.45313 0-.8125-.6875-1.26562-1.54688-1.26562-.95312 0-2.07812 1.0625-2.07812 1.92187 0 .25.1875.73438.54687.73438.10938 0 .25-.07813.25-.1875 0-.15626-.28125-.17188-.28125-.54688 0-.59375.85938-1.54687 1.5625-1.54687.48438 0 .78125.20312.78125.67187C7.8125-1.45312 6.78125-.25 5.54688-.25c-.875 0-1.32813-.46875-1.32813-1.26562 0-.90625.625-1.96875 1.10938-2.73438 2.6875-.42187 5.32812-1.75 5.32812-3.4375 0-.64062-.51562-1.0625-1.20312-1.0625-1.60938 0-4.01563 2.04688-5.34375 4.17188-1.09375-.01563-2.875-.03125-2.875-1.32813C1.23438-7.09375 2.6875-8 3.57813-8c.17187 0 .26562-.10937.26562-.21875 0-.09375-.09375-.17187-.20312-.17187-1.34375 0-3.23438.92187-3.23438 2.34375m5.15625 1.3125c.89063-1.5625 2.78125-3.625 3.89063-3.625.42187 0 .71875.23437.71875.64062 0 1.34375-2.125 2.59375-4.60938 2.98438m0 0"/><path id="b" d="M.92188-2.76562h6v-.625h-6Zm0 0"/><path id="c" d="M.29688-1.10937c0 .45312.75 1.23437 2.28125 1.23437 1.57812 0 2.57812-.79687 2.57812-2.1875 0-1.46875-1.25-1.89062-1.85937-1.95312v-.04688c.59375-.09375 1.53125-.53125 1.53125-1.60937 0-1.20313-.9375-1.73438-2.10938-1.73438-1.4375 0-2.14062.82813-2.14062 1.29688 0 .32812.39062.51562.53125.51562s.21874-.07812.26562-.21875c.25-.73437.65625-1.21875 1.26563-1.21875.85937 0 1.07812.76563 1.07812 1.375 0 .64063-.23437 1.46875-1.15625 1.46875-.51562 0-.82812-.10937-.95312-.10937-.14063 0-.1875.10937-.1875.3125 0 .1875.04687.29687.1875.29687.125 0 .4375-.10937.95312-.10937.92188 0 1.45313.84375 1.45313 1.79687 0 1.29688-.64063 1.75-1.42188 1.75-.71875 0-1.1875-.53125-1.40625-1.15625-.0625-.20312-.17187-.3125-.3125-.3125-.20312 0-.57812.21875-.57812.60938m0 0"/><path id="d" d="M.29688-.10937.40625 0h4.51563l.35937-1.4375L4.98438-1.5c-.23438.59375-.45313.67188-.89063.67188H1.3125c.17188-.5625.82813-1.34375 1.82813-2.07813C4.1875-3.65625 5-4.15625 5-5.375c0-1.51562-1.01562-2.03125-2.15625-2.03125-1.5 0-2.26562.90625-2.26562 1.46875 0 .375.42187.54688.60937.54688S1.45313-5.5 1.5-5.6875c.17188-.75.59375-1.34375 1.26563-1.34375.84375 0 1.07812.70313 1.07812 1.5 0 1.17188-.57812 1.82813-1.53125 2.67188C.96875-1.6875.5-.95312.29688-.10937m0 0"/><path id="e" d="M1.1875 0h3.57813v-.3125l-.92188-.07812C3.625-.42187 3.48438-.5 3.48438-.92187v-6.42188l-.04688-.0625-2.25.375v.26563l1.01563.14062c.1875.01563.25.09375.25.40625v5.29688c0 .42187-.09375.5-.35938.53125L1.1875-.3125Zm0 0"/><path id="j" d="M.26563.82813c0 .73437.79687 1.21875 1.90625 1.21875 1.20312 0 2.125-.48438 2.125-1.42188 0-.67187-.53125-1.125-1.5-1.34375-.73438-.1875-1.03125-.28125-1.03125-.5 0-.17187.15624-.26562.34375-.32812.1875.03124.32812.03124.46875.03124 1.1875 0 1.89062-.625 1.89062-1.51562 0-.21875-.0625-.42187-.17187-.5625l.6875-.10937.28125-.5625-.04688-.07813L3.98438-4c-.23438-.14062-.67188-.25-1.07813-.25-1.45312 0-1.875.90625-1.875 1.54688 0 .60937.45313.98437.73438 1.07812-.3125.09375-.82813.3125-.82813.65625 0 .29688.35938.54688.65625.65625C1.01563-.21875.26563.125.26563.82813M1.15625.75c0-.59375.5-.85937.8125-.90625C2.5-.09375 3.48438.125 3.48438.82813c0 .625-.53125.90625-1.10938.90625-.6875 0-1.21875-.375-1.21875-.98438m.79688-3.28125c0-.54687.26562-1.40625 1-1.40625.25 0 .64062.125.64062.67188 0 .76562-.40625 1.42187-1 1.42187-.42187 0-.64062-.29687-.64062-.6875m0 0"/><clipPath id="f"><path d="M166 42h18.10156v26H166Zm0 0"/></clipPath><clipPath id="g"><path d="M128 6h2v178.10156h-2Zm0 0"/></clipPath><clipPath id="h"><path d="M.39453.39453h183.3125v183.3125H.39453Zm0 0"/></clipPath></defs><path fill="none" stroke="#7f7f7f" stroke-dasharray=".396463665 .9911890092000001" stroke-miterlimit="10" stroke-width=".39646" d="M.39454 165.37499h183.31249M.39454 128.71484h183.31249M.39454 92.05078h183.31249M.39454 55.39062h183.31249M.39454 18.72657h183.31249M18.72657 183.70702V.39454m36.66016 183.31248V.39454m36.66405 183.31248V.39454m36.66406 183.31248V.39454M165.375 183.70702V.39454"/><use xlink:href="#a" x="112.67295" y="72.2676" fill="#7f7f7f"/><path fill="none" stroke="#7f7f7f" stroke-miterlimit="10" stroke-width=".39646" d="M18.72657 46.22266v18.33203"/><g fill="#7f7f7f"><use xlink:href="#b" x="11.91974" y="76.51776"/><use xlink:href="#c" x="19.75911" y="76.51776"/></g><path fill="none" stroke="#7f7f7f" stroke-miterlimit="10" stroke-width=".39646" d="M55.38673 46.22266v18.33203"/><g fill="#7f7f7f"><use xlink:href="#b" x="48.58233" y="76.51776"/><use xlink:href="#d" x="56.42169" y="76.51776"/></g><path fill="none" stroke="#7f7f7f" stroke-miterlimit="10" stroke-width=".39646" d="M92.05078 46.22266v18.33203"/><g fill="#7f7f7f"><use xlink:href="#b" x="85.24392" y="76.51776"/><use xlink:href="#e" x="93.08328" y="76.51776"/></g><path fill="none" stroke="#7f7f7f" stroke-miterlimit="10" stroke-width=".39646" d="M165.375 46.22266v18.33203"/><use xlink:href="#e" x="162.48794" y="76.51776" fill="#7f7f7f"/><path fill="none" stroke="#000" stroke-miterlimit="10" stroke-width=".79294" d="M.39454 55.39062H177.5625"/><path d="M181.70703 55.39063c-.51172-.10547-2.7461-.70704-4.14453-1.35938v2.71484c1.39844-.65234 3.63281-1.25 4.14453-1.35547m0 0"/><g clip-path="url(#f)"><path fill="none" stroke="#000" stroke-miterlimit="10" stroke-width=".79294" d="M181.70703 55.39062c-.51172-.10546-2.7461-.70703-4.14453-1.35937v2.71484c1.39844-.65234 3.63281-1.25 4.14453-1.35547Zm0 0"/></g><path fill="none" stroke="#7f7f7f" stroke-miterlimit="10" stroke-width=".39646" d="M137.8789 165.37499h-18.33202"/><g fill="#7f7f7f"><use xlink:href="#b" x="101.38098" y="169.01639"/><use xlink:href="#c" x="109.22035" y="169.01639"/></g><path fill="none" stroke="#7f7f7f" stroke-miterlimit="10" stroke-width=".39646" d="M137.8789 128.71484h-18.33202"/><g fill="#7f7f7f"><use xlink:href="#b" x="101.38098" y="132.41848"/><use xlink:href="#d" x="109.22035" y="132.41848"/></g><path fill="none" stroke="#7f7f7f" stroke-miterlimit="10" stroke-width=".39646" d="M137.8789 92.05078h-18.33202"/><g fill="#7f7f7f"><use xlink:href="#b" x="101.38098" y="95.75689"/><use xlink:href="#e" x="109.22035" y="95.75689"/></g><path fill="none" stroke="#7f7f7f" stroke-miterlimit="10" stroke-width=".39646" d="M137.8789 18.72657h-18.33202"/><use xlink:href="#e" x="109.2207" y="22.43271" fill="#7f7f7f"/><g clip-path="url(#g)"><path fill="none" stroke="#000" stroke-miterlimit="10" stroke-width=".79294" d="M128.71484 183.70702V6.53907"/></g><path stroke="#000" stroke-miterlimit="10" stroke-width=".79294" d="M128.71484 2.39844c-.10546.50781-.70703 2.7461-1.35937 4.14062h2.71484c-.65234-1.39453-1.25-3.6328-1.35547-4.14062Zm0 0"/><g clip-path="url(#h)"><path fill="none" stroke="#007f7f" stroke-miterlimit="10" stroke-width=".79294" d="M.39454.39454s5.51953 5.51953 7.63672 7.64062c2.1211 2.11719 5.51953 5.51562 7.64063 7.63672 2.11718 2.11719 5.51562 5.51953 7.63671 7.63672 2.1172 2.12109 5.51953 5.51953 7.63672 7.63671 2.1211 2.1211 5.51953 5.51954 7.63672 7.64063 2.1211 2.11719 5.51953 5.51562 7.64062 7.63672 2.1172 2.12109 5.51563 5.51953 7.63672 7.63671 2.1211 2.1211 5.51953 5.51954 7.63672 7.64063 2.1211 2.11719 5.51953 5.51562 7.64062 7.63672 2.1172 2.11718 5.51563 5.51953 7.63672 7.63672 2.11719 2.12109 5.51953 5.51953 7.63672 7.63671 2.1211 2.1211 5.51953 5.51953 7.63672 7.64063 2.1211 2.11718 5.51953 5.51562 7.64062 7.63672 2.11719 2.12109 5.51563 5.51953 7.63672 7.63671 2.1211 2.1211 5.51953 5.51953 7.63672 7.64063 2.1211 2.11719 5.51953 5.51562 7.64062 7.63672 2.11719 2.11718 5.51563 5.51953 7.63672 7.63671 2.11719 2.1211 5.51953 5.51953 7.63672 7.63672 2.1211 2.1211 5.51953 5.51953 7.63672 7.64063 2.1211 2.11718 5.51953 5.51562 7.64062 7.63671 2.11719 2.1211 5.51563 5.51953 7.63672 7.63672 2.1211 2.1211 5.51953 5.51953 7.63672 7.64063 2.1211 2.11718 5.51953 5.51562 7.64062 7.63671l7.63672 7.63672"/></g><use xlink:href="#i" x="47.33772" y="45.95483" fill="#007f7f"/><use xlink:href="#j" x="57.22153" y="48.78986" fill="#007f7f"/></svg>