<svg version="1.2" xmlns="http://www.w3.org/2000/svg" viewBox="0 0 128 128" width="128" height="128"><style>.a{fill:#dd636e}</style><path class="a" d="m34.7 28.3c-2.9-5.4-10-6.8-14.7-2.8l-4.2 3.5c-4 3.5-10 3-13.5-1-3.4-4-3-10.1 1.1-13.5l4.1-3.6c14-12 35.6-7.9 44.2 8.5l12.5 23.8 34.6-34.6c3.8-3.8 9.8-3.8 13.6 0 3.7 3.7 3.7 9.8 0 13.5l-38.8 38.9 19.7 37.4c2.9 5.4 10 6.8 14.7 2.8l4.2-3.5c4-3.5 10-3 13.5 1 3.4 4 3 10.1-1.1 13.6l-4.1 3.5c-14 12-35.6 7.9-44.2-8.5l-16.9-32.1-43 43c-3.8 3.7-9.8 3.7-13.6 0-3.7-3.8-3.7-9.9 0-13.6l47.2-47.2z"/></svg>