<svg xmlns="http://www.w3.org/2000/svg" xmlns:xlink="http://www.w3.org/1999/xlink" width="143.757pt" height="109.176pt" viewBox="0 0 143.757 109.176"><defs><path id="a" d="M.4375-3.5c0 2.09375.60938 3.625 2.32813 3.625C4.5.125 5.125-1.40625 5.125-3.5c0-2.07812-.625-3.60937-2.35937-3.60937C1.04688-7.10937.4375-5.57812.4375-3.5m1.04688 0c0-1.70312.29687-3.23437 1.28125-3.23437 1 0 1.28125 1.53125 1.28125 3.23437S3.76563-.25 2.76563-.25c-.98438 0-1.28125-1.54687-1.28125-3.25m0 0"/><path id="b" d="M1.14063 0h3.4375v-.29687L3.6875-.375c-.21875-.03125-.34375-.10937-.34375-.51562v-6.15625l-.04687-.0625-2.15625.375v.25l.96875.125c.1875.01562.25.09375.25.39062v5.07813c0 .40625-.09375.48437-.34375.51562l-.875.07813Zm0 0"/><path id="c" d="M.28125-.09375.39063 0h4.32812l.35938-1.375-.29688-.0625c-.21875.5625-.4375.64063-.85937.64063H1.25c.17188-.53125.79688-1.28125 1.76563-1.98438 1-.73437 1.78125-1.20312 1.78125-2.375 0-1.45312-.96875-1.95312-2.07813-1.95312-1.42187 0-2.15625.875-2.15625 1.40625 0 .35937.39063.53125.57813.53125s.25-.10938.29687-.29688c.17188-.70312.57813-1.26562 1.21875-1.26562.79688 0 1.03125.65625 1.03125 1.42187 0 1.125-.5625 1.76563-1.46875 2.5625C.92188-1.625.48438-.90625.28125-.09375m0 0"/><path id="d" d="M.28125-1.0625C.28125-.625 1 .125 2.48438.125 4 .125 4.95313-.64062 4.95313-1.98437c0-1.39063-1.20313-1.8125-1.78125-1.85938v-.04687c.5625-.09375 1.46875-.51563 1.46875-1.54688 0-1.15625-.90625-1.67187-2.03125-1.67187-1.375 0-2.04688.79687-2.04688 1.25 0 .3125.35938.5.5.5s.21875-.07813.26563-.21875c.23437-.70313.625-1.15625 1.20312-1.15625.82813 0 1.04688.71875 1.04688 1.3125 0 .60937-.23438 1.40625-1.125 1.40625-.5 0-.78125-.09375-.90625-.09375-.14063 0-.1875.09375-.1875.28125 0 .17187.04687.29687.1875.29687.125 0 .40625-.10937.90625-.10937.89062 0 1.39062.79687 1.39062 1.71875 0 1.25-.60937 1.67187-1.35937 1.67187-.6875 0-1.14063-.5-1.34375-1.09375-.0625-.20312-.15626-.29687-.3125-.29687-.1875 0-.54688.1875-.54688.57812m0 0"/><path id="g" d="M.39063-5.79687c0 1.01562 1 1.8125 3.32812 1.8125-.375.6875-.67187 1.39062-.67187 2.15625 0 1.26562.8125 1.96875 2.26562 1.96875 1.42188 0 2.90625-1.03125 2.90625-2.35938C8.21875-3 7.5625-3.4375 6.73438-3.4375 5.82813-3.4375 4.75-2.40625 4.75-1.59375c0 .25.1875.71875.53125.71875.09375 0 .23438-.07812.23438-.1875 0-.15625-.28125-.15625-.28125-.51562 0-.57813.82812-1.48438 1.5-1.48438.46875 0 .75.1875.75.64063 0 1.03125-.98438 2.1875-2.17188 2.1875-.84375 0-1.26562-.45313-1.26562-1.21875 0-.875.59375-1.89063 1.0625-2.625C7.6875-4.46875 10.21875-5.75 10.21875-7.35937c0-.625-.48437-1.03125-1.15625-1.03125-1.53125 0-3.84375 1.96875-5.125 4-1.04687-.01563-2.75-.03125-2.75-1.26563 0-1.14062 1.39063-2.01562 2.25-2.01562.15625 0 .25-.10938.25-.20313s-.09375-.17187-.1875-.17187c-1.29687 0-3.10937.875-3.10937 2.25m4.95312 1.26562C6.1875-6.03125 8-8.01562 9.0625-8.01562c.40625 0 .6875.23437.6875.60937 0 1.29688-2.03125 2.48438-4.40625 2.875m0 0"/><path id="h" d="M-.17187 1.46875c0 .28125.35937.5.79687.5.84375 0 1.23438-.67187 1.57813-2.21875l.75-3.40625h1.03125l.07812-.32812H3.01563l.23437-1c.14063-.53125.28125-.75.48438-.75.1875 0 .32812.15625.51562.57812.04688.07813.125.15625.26563.15625.1875 0 .4375-.15625.4375-.39062 0-.34375-.45313-.64063-.98438-.64063-1.03125 0-1.4375.73438-1.73437 1.76563l-.07813.28125h-.70312l-.10938.32812h.73438L1.125 1.17188c-.07812.42187-.15625.48437-.23437.48437-.07813 0-.21876-.07812-.42188-.42187-.0625-.07813-.125-.20313-.25-.20313-.1875 0-.39062.21875-.39062.4375m0 0"/><clipPath id="e"><path d="M125 75h18.09766v26H125Zm0 0"/></clipPath><clipPath id="f"><path d="M11 .39453h131.70313V90H11Zm0 0"/></clipPath><clipPath id="i"><path d="M2.03125.39453h140.67188v105.5039H2.03125Zm0 0"/></clipPath></defs><path fill="none" stroke="#000" stroke-miterlimit="10" stroke-opacity=".5" stroke-width=".39552" d="M2.03125 88.3125h140.67186M2.03125 53.14453h140.67186M2.03125 17.97657h140.67186M19.6172 105.89844V.39454m35.16796 105.5039V.39454m35.16797 105.5039V.39454m35.16796 105.5039V.39454m-105.5039 79.1289v17.58203"/><use xlink:href="#a" x="4.53775" y="104.11619" fill-opacity=".5"/><path fill="none" stroke="#000" stroke-miterlimit="10" stroke-opacity=".5" stroke-width=".39552" d="M54.78515 79.52344v17.58203"/><use xlink:href="#b" x="52.01343" y="100.66027" fill-opacity=".5"/><path fill="none" stroke="#000" stroke-miterlimit="10" stroke-opacity=".5" stroke-width=".39552" d="M89.95312 79.52344v17.58203"/><use xlink:href="#c" x="87.182" y="100.66027" fill-opacity=".5"/><path fill="none" stroke="#000" stroke-miterlimit="10" stroke-opacity=".5" stroke-width=".39552" d="M125.12108 79.52344v17.58203"/><use xlink:href="#d" x="122.34957" y="100.59973" fill-opacity=".5"/><path fill="none" stroke="#000" stroke-miterlimit="10" stroke-width=".79104" d="M2.03125 88.3125h134.54296"/><path d="M140.70703 88.3125c-.50781-.10547-2.73828-.70312-4.13281-1.35156v2.70703c1.39453-.64844 3.625-1.2461 4.13281-1.35547m0 0"/><g clip-path="url(#e)"><path fill="none" stroke="#000" stroke-miterlimit="10" stroke-width=".79104" d="M140.70703 88.3125c-.50781-.10547-2.73828-.70313-4.13281-1.35156v2.70703c1.39453-.64844 3.625-1.2461 4.13281-1.35547Zm0 0"/></g><path fill="none" stroke="#000" stroke-miterlimit="10" stroke-opacity=".5" stroke-width=".39552" d="M28.40625 53.14453H10.82422"/><use xlink:href="#b" x="4.53775" y="56.70105" fill-opacity=".5"/><path fill="none" stroke="#000" stroke-miterlimit="10" stroke-opacity=".5" stroke-width=".39552" d="M28.40625 17.97657H10.82422"/><use xlink:href="#c" x="4.53775" y="21.53348" fill-opacity=".5"/><path fill="none" stroke="#000" stroke-miterlimit="10" stroke-width=".79104" d="M19.61719 105.89844v-99.375"/><path stroke="#000" stroke-miterlimit="10" stroke-width=".79104" d="M19.61719 2.39062c-.10547.50782-.70313 2.73829-1.35547 4.13282h2.70703c-.64844-1.39453-1.2461-3.625-1.35156-4.13282Zm0 0"/><g clip-path="url(#f)"><path fill="none" stroke="#007F7F" stroke-miterlimit="10" stroke-width=".79104" d="M23.13281-263.36716S26.73437-93.26952 28.11328-57.2031c1.38281 36.0664 3.60156 42.8789 4.98438 53.77343 1.3828 10.89844 3.59765 19.35156 4.98046 24.75781C39.46094 26.7383 41.6797 32.3047 43.0625 35.5625s3.59765 7.0625 4.98047 9.2461c1.3828 2.1836 3.59765 4.92187 4.98046 6.48828s3.60157 3.625 4.98438 4.80469 3.59766 2.77734 4.98047 3.69921c1.38281.92188 3.60156 2.19922 4.98437 2.9375 1.3789.74219 3.59766 1.78516 4.98047 2.39063s3.59766 1.47265 4.98047 1.98047c1.38281.5039 3.60156 1.23828 4.98437 1.66797s3.59766 1.05859 4.98047 1.42578c1.38281.36718 3.60156.91015 4.98438 1.23046 1.3789.32032 3.59765.79688 4.98046 1.07813 1.38282.27734 3.59766.69531 4.98047.94531 1.38282.2461 3.60157.61719 4.98438.83985 1.3828.21875 3.59765.55078 4.98046.75 1.38282.1953 3.60157.49218 4.98047.67187 1.38282.17578 3.60157.44531 4.98438.60547 1.38281.16406 3.59765.40625 4.98047.55469 1.3828.14453 3.60156.37109 4.98437.5039 1.38281.13672 3.59766.33985 4.98047.46094 1.38281.125 4.98047.42188 4.98047.42188"/></g><use xlink:href="#g" x="44.38104" y="29.54005" fill="#007F7F"/><use xlink:href="#h" x="53.86074" y="32.25952" fill="#007F7F"/><g clip-path="url(#i)"><path fill="none" stroke="#FF7F00" stroke-miterlimit="10" stroke-width=".79104" d="M2.03125.39454S6.26563 4.6289 7.89453 6.2539c1.625 1.62891 4.23438 4.23438 5.85938 5.86328l5.85937 5.85938 11.72266 11.72265c1.6289 1.625 4.23437 4.23438 5.86328 5.85938 1.625 1.6289 4.23437 4.23437 5.85937 5.86328l5.85938 5.85937c1.6289 1.6289 4.23828 4.23438 5.86328 5.86328l5.85937 5.85938c1.6289 1.625 4.23438 4.23437 5.86328 5.85937 1.625 1.6289 4.23438 4.23828 5.85938 5.86328s4.23437 4.23438 5.86328 5.85938c1.625 1.6289 4.23437 4.23437 5.85937 5.86328l5.85938 5.85937c1.6289 1.625 4.23437 4.23438 5.86328 5.86328l5.85937 5.85938c1.6289 1.625 4.23438 4.23437 5.86328 5.85937 1.625 1.6289 4.23438 4.23438 5.85938 5.86328l5.85937 5.85938 5.86328 5.86328 5.85938 5.85937c1.6289 1.625 4.23437 4.23438 5.86328 5.85938 1.625 1.6289 5.85937 5.86328 5.85937 5.86328"/></g></svg>