<svg xmlns="http://www.w3.org/2000/svg" xmlns:xlink="http://www.w3.org/1999/xlink" width="148.199pt" height="221.9pt" viewBox="0 0 148.199 221.9"><defs><path id="b" d="M.5-4.04687C.5-1.625 1.20313.14063 3.20313.14063S5.92188-1.625 5.92188-4.04687s-.71875-4.1875-2.71875-4.1875S.5-6.46875.5-4.04687m1.21875 0c0-1.96875.34375-3.75 1.48438-3.75 1.15625 0 1.48437 1.78125 1.48437 3.75S4.35938-.28125 3.20313-.28125c-1.14063 0-1.48438-1.79687-1.48438-3.76562m0 0"/><path id="l" d="M.40625-6.03125c0 1.04688 1.04688 1.89063 3.46875 1.89063-.40625.70312-.6875 1.4375-.6875 2.23437 0 1.32813.82813 2.04688 2.34375 2.04688 1.48438 0 3.03125-1.0625 3.03125-2.4375 0-.82813-.6875-1.28125-1.54687-1.28125-.95313 0-2.07813 1.0625-2.07813 1.92187 0 .25.20313.73438.5625.73438.09375 0 .25-.0625.25-.1875 0-.15626-.29687-.17188-.29687-.53125 0-.59375.875-1.54688 1.5625-1.54688.48437 0 .78125.1875.78125.65625C7.79688-1.45312 6.76563-.25 5.53125-.25c-.875 0-1.32812-.46875-1.32812-1.26562 0-.90625.64062-1.95313 1.10937-2.73438 2.70313-.40625 5.32813-1.73437 5.32813-3.42187 0-.64063-.51563-1.0625-1.20313-1.0625-1.59375 0-4 2.04687-5.32812 4.15625-1.09375 0-2.875-.03125-2.875-1.3125C1.23438-7.07812 2.67188-8 3.57813-8c.17187 0 .26562-.09375.26562-.20312 0-.09375-.09375-.17188-.20312-.17188-1.34375 0-3.23438.90625-3.23438 2.34375m5.15625 1.3125c.89063-1.5625 2.76563-3.64062 3.875-3.64062.42188 0 .71875.25.71875.64062 0 1.35938-2.125 2.59375-4.59375 3m0 0"/><path id="o" d="M.25-1.04687C.25 0 1.89063.14063 2.78125.14063c2.4375 0 3.625-.98438 4.21875-2.375.40625-.95313.35938-2.3125.71875-3.42188.21875-.59375.89063-1.1875.89063-1.45312 0-.10938-.01563-.15625-.17188-.15625C6.07813-7.26562 6.76563-.25 2.8125-.25 1.28125-.25.64063-.53125.625-1.23437c.10938.09374.29688.15624.4375.15624.29688 0 .71875-.20312.71875-.5 0-.29687-.28125-.51562-.57812-.51562-.625 0-.95313.54688-.95313 1.04688M1.875-5.375c0 .76563.625 1.20313 1.4375 1.20313 1.39063 0 3.21875-.6875 3.21875-2.1875 0-.34375-.29687-1.03125-.79687-1.03125-.125 0-.26563.10937-.26563.21875 0 .07812.21875.40625.21875.64062 0 1.23438-1.23437 1.96875-2.375 1.96875-.53125 0-.9375-.23437-.9375-.75 0-1.85937 2.35938-2.625 3.95313-2.625 1.17187 0 2.59375.4375 4.03125.4375.5 0 1.23437-.0625 1.75-.15625.10937 0 .4375-.57812.4375-.6875 0-.10937-.07813-.1875-.20313-.1875-.15625 0-1.40625.21875-1.96875.21875-1.26562 0-2.96875-.42187-3.82812-.42187C4.78125-8.73437 1.875-7.5 1.875-5.375m0 0"/><path id="c" d="M.92188-2.76562h6v-.625h-6Zm0 0"/><path id="d" d="M1.1875 0h3.57813v-.3125l-.92188-.07812C3.625-.42187 3.48438-.5 3.48438-.92187v-6.42188l-.04688-.0625-2.25.375v.26563l1.01563.14062c.1875.01563.25.09375.25.40625v5.29688c0 .42187-.09375.5-.35938.53125L1.1875-.3125Zm0 0"/><path id="e" d="M.29688-.10937.40625 0h4.51563l.35937-1.4375L4.98438-1.5c-.23438.59375-.45313.67188-.89063.67188H1.3125c.17188-.5625.82813-1.34375 1.82813-2.07813C4.1875-3.65625 5-4.15625 5-5.375c0-1.51562-1.01562-2.03125-2.15625-2.03125-1.5 0-2.26562.90625-2.26562 1.46875 0 .375.42187.54688.60937.54688S1.45313-5.5 1.5-5.6875c.17188-.75.59375-1.34375 1.26563-1.34375.84375 0 1.07812.70313 1.07812 1.5 0 1.17188-.57812 1.82813-1.53125 2.67188C.96875-1.6875.5-.95312.29688-.10937m0 0"/><path id="g" d="M.29688-1.10937c0 .45312.75 1.23437 2.28125 1.23437 1.57812 0 2.57812-.79687 2.57812-2.1875 0-1.46875-1.25-1.89062-1.85937-1.95312v-.04688c.59375-.09375 1.53125-.53125 1.53125-1.60937 0-1.20313-.9375-1.73438-2.10938-1.73438-1.4375 0-2.14062.82813-2.14062 1.29688 0 .32812.39062.51562.53125.51562s.21874-.07812.26562-.21875c.25-.73437.65625-1.21875 1.26563-1.21875.85937 0 1.07812.76563 1.07812 1.375 0 .64063-.23437 1.46875-1.15625 1.46875-.51562 0-.82812-.10937-.95312-.10937-.14063 0-.1875.10937-.1875.3125 0 .1875.04687.29687.1875.29687.125 0 .4375-.10937.95312-.10937.92188 0 1.45313.84375 1.45313 1.79687 0 1.29688-.64063 1.75-1.42188 1.75-.71875 0-1.1875-.53125-1.40625-1.15625-.0625-.20312-.17187-.3125-.3125-.3125-.20312 0-.57812.21875-.57812.60938m0 0"/><path id="h" d="m.20313-2.17187.09375.21875h2.96875v1.125c0 .35937-.10938.42187-.375.45312l-.70313.0625V0h2.875v-.3125L4.57813-.375C4.32813-.40625 4.25-.46875 4.25-.82812v-1.125h1.125v-.5H4.25v-4.82813h-.79687c-1.01563 1.5-2.25 3.39063-3.25 5.10938M1-2.45312c.64063-1.1875 1.4375-2.45313 2.26563-3.76563v3.76563Zm0 0"/><path id="m" d="M-.1875 1.53125c.01563.29688.375.51563.84375.51563.875 0 1.28125-.70313 1.64063-2.29688l.78125-3.54687h1.0625l.09375-.35938H3.14063l.25-1.03125c.14062-.5625.28125-.78125.5-.78125.1875 0 .34375.15625.53125.59375.0625.09375.125.17188.28125.17188.1875 0 .45312-.17188.45312-.40625 0-.375-.46875-.67188-1.03125-.67188-1.0625 0-1.5.76563-1.79687 1.84375L2.25-4.15625h-.73437l-.10938.35938h.75l-.98437 5.01562c-.07813.4375-.15626.5-.25.5-.07813 0-.21876-.07812-.4375-.42187-.0625-.09376-.125-.21876-.25-.21876-.20313 0-.42188.21876-.42188.45313m0 0"/><clipPath id="a"><path d="M0 .54688h147.40234V221.2539H0Zm0 0"/></clipPath><clipPath id="f"><path d="M129 153h18.40234v26H129Zm0 0"/></clipPath><clipPath id="i"><path d="M54 6h2v215.2539h-2Zm0 0"/></clipPath><clipPath id="j"><path d="M42 .54688h26V19H42Zm0 0"/></clipPath><clipPath id="k"><path d="M.39453.9414h146.61328V195H.39453Zm0 0"/></clipPath><clipPath id="n"><path d="M.39453 12h146.61328v207H.39453Zm0 0"/></clipPath></defs><g clip-path="url(#a)"><path fill="none" stroke="#7f7f7f" stroke-dasharray=".39635607 .9909200136" stroke-miterlimit="10" stroke-width=".39636" d="M.39454 202.53124H147.0078M.39454 165.87891H147.0078M.39454 129.22657H147.0078M.39454 92.57423H147.0078M.39454 55.9219H147.0078M.39454 19.26956H147.0078M18.72266 220.85936V.94144M55.375 220.85937V.94143m36.65234 219.91794V.94143m36.65234 219.91794V.94143"/></g><use xlink:href="#b" x="39.33838" y="182.75192" fill="#7f7f7f"/><path fill="none" stroke="#7f7f7f" stroke-miterlimit="10" stroke-width=".39636" d="M18.72266 156.71485v18.32812"/><g fill="#7f7f7f"><use xlink:href="#c" x="11.91659" y="187.00195"/><use xlink:href="#d" x="19.75389" y="187.00195"/></g><path fill="none" stroke="#7f7f7f" stroke-miterlimit="10" stroke-width=".39636" d="M92.02734 156.71485v18.32812"/><use xlink:href="#d" x="89.14021" y="187.00195" fill="#7f7f7f"/><path fill="none" stroke="#7f7f7f" stroke-miterlimit="10" stroke-width=".39636" d="M128.67968 156.71485v18.32812"/><use xlink:href="#e" x="125.7931" y="187.00195" fill="#7f7f7f"/><path fill="none" stroke="#000" stroke-miterlimit="10" stroke-width=".79272" d="M.39454 165.8789h140.46873"/><path d="M145.0039 165.8789c-.5078-.10546-2.74218-.70312-4.14062-1.35546v2.71094c1.39844-.65235 3.63281-1.25 4.14063-1.35547m0 0"/><g clip-path="url(#f)"><path fill="none" stroke="#000" stroke-miterlimit="10" stroke-width=".79272" d="M145.0039 165.8789c-.5078-.10546-2.74218-.70312-4.14062-1.35546v2.71093c1.39844-.65234 3.63281-1.25 4.14063-1.35546Zm0 0"/></g><path fill="none" stroke="#7f7f7f" stroke-miterlimit="10" stroke-width=".39636" d="M64.53906 202.53124H46.21094"/><g fill="#7f7f7f"><use xlink:href="#c" x="28.0494" y="206.23499"/><use xlink:href="#d" x="35.88669" y="206.23499"/></g><path fill="none" stroke="#7f7f7f" stroke-miterlimit="10" stroke-width=".39636" d="M64.53906 129.22657H46.21094"/><use xlink:href="#d" x="35.88703" y="132.93119" fill="#7f7f7f"/><path fill="none" stroke="#7f7f7f" stroke-miterlimit="10" stroke-width=".39636" d="M64.53906 92.57423H46.21094"/><use xlink:href="#e" x="35.88703" y="96.2783" fill="#7f7f7f"/><path fill="none" stroke="#7f7f7f" stroke-miterlimit="10" stroke-width=".39636" d="M64.53906 55.9219H46.21094"/><use xlink:href="#g" x="35.88703" y="59.56274" fill="#7f7f7f"/><path fill="none" stroke="#7f7f7f" stroke-miterlimit="10" stroke-width=".39636" d="M64.53906 19.26956H46.21094"/><use xlink:href="#h" x="35.88703" y="22.90985" fill="#7f7f7f"/><g clip-path="url(#i)"><path fill="none" stroke="#000" stroke-miterlimit="10" stroke-width=".79272" d="M55.375 220.85937V7.08597"/></g><path d="M55.375 2.9414c-.10547.51173-.70703 2.7461-1.35547 4.14454h2.71094c-.65234-1.39844-1.25-3.63281-1.35547-4.14453m0 0"/><g clip-path="url(#j)"><path fill="none" stroke="#000" stroke-miterlimit="10" stroke-width=".79272" d="M55.375 2.9414c-.10547.51173-.70703 2.7461-1.35547 4.14454h2.71094c-.65235-1.39844-1.25-3.63281-1.35547-4.14453Zm0 0"/></g><g clip-path="url(#k)"><path fill="none" stroke="#007f7f" stroke-miterlimit="10" stroke-width=".79272" d="M.39454 183.6328s4.41406-26.74217 6.10937-35.40233c1.69532-8.65625 4.41407-20.55078 6.10938-27 1.69531-6.44921 4.41406-15 6.10937-19.49218 1.6914-4.48828 4.41016-10.09765 6.10547-12.875 1.69531-2.77734 4.41406-5.83593 6.10937-7.14843s4.41407-2.21875 6.10938-2.3125c1.69531-.09766 4.41406.7539 6.10937 1.6289 1.6914.87891 4.41016 3.08594 6.10547 4.6875s4.41406 4.77344 6.10937 6.85156 4.41407 5.81641 6.10938 8.1211c1.69531 2.30859 4.41406 6.21484 6.10937 8.5039 1.69531 2.29297 4.41016 5.97266 6.10547 8 1.69531 2.02344 4.41406 5.08203 6.10937 6.59766 1.69532 1.51171 4.41407 3.55468 6.10938 4.30859s4.41406 1.3789 6.10937 1.125c1.69531-.25 4.41016-1.4375 6.10547-2.9414 1.69531-1.50782 4.41406-4.90235 6.10937-7.90626 1.69532-3.0078 4.41407-9.0078 6.10938-13.76171 1.69531-4.7539 4.41406-13.75 6.10937-20.5s4.41016-19.14453 6.10547-28.13671c1.69531-8.98828 4.41406-25.17969 6.10937-36.66015s4.41407-31.85937 6.10938-46.07421 4.41406-39.1836 6.10937-56.3828c1.69531-17.19922 6.10547-67.57812 6.10547-67.57812"/></g><use xlink:href="#l" x="97.33094" y="69.66613" fill="#007f7f"/><use xlink:href="#m" x="107.21084" y="72.50042" fill="#007f7f"/><g clip-path="url(#n)"><path fill="none" stroke="#ff7f00" stroke-miterlimit="10" stroke-width=".79272" d="M.39454 23.84768S4.8086 29.3672 6.50391 31.4844c1.69532 2.1211 4.41407 5.51562 6.10938 7.63671 1.69531 2.1172 4.41406 5.51563 6.10937 7.63672 1.6914 2.11719 4.41016 5.51563 6.10547 7.63281 1.69531 2.1211 4.41406 5.51953 6.10937 7.63672s4.41407 5.51562 6.10938 7.63672c1.69531 2.11719 4.41406 5.51562 6.10937 7.6328 1.6914 2.1211 4.41016 5.51954 6.10547 7.63673 1.69531 2.11718 4.41406 5.51562 6.10937 7.63671 1.69532 2.1172 4.41407 5.51563 6.10938 7.63282 1.69531 2.12109 4.41406 5.51953 6.10937 7.63671s4.41016 5.51563 6.10547 7.63672c1.69531 2.11719 4.41406 5.51562 6.10937 7.63281 1.69532 2.1211 4.41407 5.51953 6.10938 7.63672 1.69531 2.1211 4.41406 5.51562 6.10937 7.63672 1.69531 2.11718 4.41016 5.51562 6.10547 7.63671 1.69531 2.1172 4.41406 5.51563 6.10937 7.63282 1.69532 2.12109 4.41407 5.51953 6.10938 7.63671 1.69531 2.1172 4.41406 5.51563 6.10937 7.63672 1.69531 2.11719 4.41016 5.51563 6.10547 7.63281 1.69531 2.1211 4.41406 5.51953 6.10937 7.63672s4.41407 5.51562 6.10938 7.63672c1.69531 2.11718 4.41406 5.51562 6.10937 7.6328 1.69531 2.1211 6.10547 7.63673 6.10547 7.63673"/></g><use xlink:href="#o" x="100.45704" y="183.75848" fill="#ff7f00"/></svg>