<svg xmlns="http://www.w3.org/2000/svg" xmlns:xlink="http://www.w3.org/1999/xlink" width="229.773pt" height="174.443pt" viewBox="0 0 229.773 174.443"><defs><path id="b" d="M1.82813 0h5.51562v-.48437l-1.40625-.125c-.35937-.03126-.5625-.15626-.5625-.82813v-9.89062l-.07812-.09375-3.46875.59375v.40625l1.5625.20312c.29687.03125.40625.15625.40625.64063v8.14062c0 .67188-.17188.79688-.5625.82813l-1.40625.125Zm0 0"/><path id="c" d="M.45313-.15625.625 0h6.95313l.57812-2.21875-.46875-.09375c-.35937.92188-.70312 1.04688-1.375 1.04688H2.01563c.26562-.875 1.26562-2.07813 2.82812-3.20313 1.60938-1.1875 2.85938-1.9375 2.85938-3.8125 0-2.34375-1.54688-3.14062-3.32813-3.14062-2.29687 0-3.48437 1.39062-3.48437 2.26562 0 .57813.64062.84375.9375.84375.29687 0 .40625-.17187.48437-.46875.26563-1.14062.92188-2.04687 1.95313-2.04687 1.29687 0 1.67187 1.0625 1.67187 2.29687 0 1.8125-.92187 2.82813-2.375 4.10938C1.48438-2.60937.76563-1.46875.45313-.15625m0 0"/><path id="d" d="M.45313-1.71875C.45313-1 1.60938.20313 3.98438.20313c2.4375 0 3.96875-1.23438 3.96875-3.39063 0-2.25-1.92188-2.90625-2.85938-3V-6.25C6-6.40625 7.45313-7.07812 7.45313-8.73437c0-1.85938-1.45313-2.6875-3.25-2.6875-2.21875 0-3.3125 1.28125-3.3125 2 0 .51562.59375.8125.82812.8125.21875 0 .34375-.125.40625-.34375.375-1.14063 1-1.875 1.95313-1.875 1.3125 0 1.65625 1.15625 1.65625 2.10937 0 1-.35938 2.26563-1.78125 2.26563-.8125 0-1.26563-.15625-1.46875-.15625-.21875 0-.29688.15625-.29688.45312s.07813.46875.29688.46875c.20312 0 .65625-.15625 1.46875-.15625 1.42187 0 2.23437 1.28125 2.23437 2.75 0 2-.98437 2.70313-2.1875 2.70313-1.10937 0-1.84375-.82813-2.15625-1.76563-.10937-.32812-.26562-.48437-.5-.48437-.3125 0-.89062.3125-.89062.92187m0 0"/><path id="e" d="M.70313-5.60937c0 3.35937.98437 5.8125 3.75 5.8125S8.21875-2.25 8.21875-5.60937s-1-5.8125-3.76562-5.8125-3.75 2.45312-3.75 5.8125m1.6875 0c0-2.73438.46875-5.21875 2.0625-5.21875S6.5-8.34375 6.5-5.60937 6.04688-.39062 4.45313-.39062 2.39063-2.875 2.39063-5.60937m0 0"/><path id="h" d="M.60938-9.3125c0 1.625 1.64062 2.92188 5.375 2.92188-.625 1.09375-1.07813 2.21875-1.07813 3.45312 0 2.04688 1.29688 3.15625 3.64063 3.15625 2.28125 0 4.65625-1.65625 4.65625-3.78125 0-1.26562-1.04688-1.95312-2.375-1.95312C9.35938-5.51562 7.625-3.875 7.625-2.5625c0 .39063.29688 1.15625.85938 1.15625.15625 0 .375-.125.375-.29687 0-.25-.4375-.26563-.4375-.84375 0-.90625 1.32812-2.375 2.40625-2.375.75 0 1.20312.29687 1.20312 1.03125C12.03125-2.25 10.45313-.375 8.54688-.375 7.1875-.375 6.5-1.10937 6.5-2.34375c0-1.39062.96875-3.01562 1.70313-4.20312 4.15625-.64063 8.21875-2.6875 8.21875-5.29688 0-.98437-.79688-1.64062-1.85938-1.64062-2.46875 0-6.1875 3.15625-8.23437 6.4375-1.6875-.01563-4.42188-.0625-4.42188-2.04688 0-1.82812 2.21875-3.23437 3.60938-3.23437.26562 0 .40625-.15625.40625-.32813 0-.15625-.14063-.26562-.29688-.26562-2.09375 0-5.01562 1.40625-5.01562 3.60937m7.96875 2.03125c1.375-2.40625 4.26562-5.60937 5.98437-5.60937.65625 0 1.10938.375 1.10938 1 0 2.07812-3.28125 3.98437-7.09375 4.60937m0 0"/><path id="i" d="M-.28125 2.34375c.01563.46875.57813.8125 1.28125.8125 1.35938 0 1.98438-1.07812 2.53125-3.54687L4.75-5.875h1.64063l.14062-.53125h-1.6875L5.23438-8c.21875-.875.4375-1.20312.76562-1.20312.29688 0 .51563.25.82813.92187.07812.125.1875.25.42187.25.29688 0 .70313-.25.70313-.625 0-.5625-.71875-1.03125-1.57813-1.03125-1.64062 0-2.3125 1.17188-2.78125 2.84375l-.125.4375h-1.125l-.17187.53125h1.17187L1.8125 1.89063c-.125.67187-.25.76562-.375.76562-.14062 0-.35937-.125-.6875-.67187-.09375-.14063-.1875-.3125-.39062-.3125-.3125 0-.64063.32812-.64063.67187m0 0"/><clipPath id="a"><path d="M2 0h227.29297v171H2Zm0 0"/></clipPath><clipPath id="f"><path d="M211 129h18.29297v26H211Zm0 0"/></clipPath><clipPath id="g"><path d="M25 .39453h203.89844V137H25Zm0 0"/></clipPath><clipPath id="j"><path d="M2.84766.39453h226.05078V169.9336H2.84766Zm0 0"/></clipPath></defs><g clip-path="url(#a)"><path fill="none" stroke="#000" stroke-miterlimit="10" stroke-opacity=".5" stroke-width=".39723" d="M2.84766 141.67969h226.05075M2.84766 85.16407h226.05075M2.84766 28.65236h226.05075M31.10156 169.93359V.39455M87.61718 169.9336V.39455m56.51171 169.53904V.39455M200.6406 169.9336V.39455"/></g><path fill="none" stroke="#000" stroke-miterlimit="10" stroke-opacity=".5" stroke-width=".39723" d="M87.61718 127.55078v28.25781"/><use xlink:href="#b" x="83.16479" y="161.51827" fill-opacity=".5"/><path fill="none" stroke="#000" stroke-miterlimit="10" stroke-opacity=".5" stroke-width=".39723" d="M144.12889 127.55078v28.25781"/><use xlink:href="#c" x="139.67734" y="161.51827" fill-opacity=".5"/><path fill="none" stroke="#000" stroke-miterlimit="10" stroke-opacity=".5" stroke-width=".39723" d="M200.6406 127.55078v28.25781"/><use xlink:href="#d" x="196.1899" y="161.41958" fill-opacity=".5"/><path fill="none" stroke="#000" stroke-miterlimit="10" stroke-opacity=".5" stroke-width=".39723" d="M45.23047 85.16407h-28.2539"/><use xlink:href="#b" x="6.87239" y="90.87783" fill-opacity=".5"/><path fill="none" stroke="#000" stroke-miterlimit="10" stroke-opacity=".5" stroke-width=".39723" d="M45.23047 28.65236h-28.2539"/><use xlink:href="#c" x="6.87239" y="34.36527" fill-opacity=".5"/><path fill="none" stroke="#000" stroke-miterlimit="10" stroke-opacity=".5" stroke-width=".39723" d="M31.10156 127.55078v28.25781"/><use xlink:href="#e" x="6.87239" y="167.07154" fill-opacity=".5"/><path fill="none" stroke="#000" stroke-miterlimit="10" stroke-width=".79448" d="M2.84766 141.67969h219.8945"/><path d="M226.89453 141.67969c-.51172-.10547-2.7539-.70703-4.15234-1.35938v2.71875c1.39844-.65234 3.64062-1.2539 4.15234-1.35937m0 0"/><g clip-path="url(#f)"><path fill="none" stroke="#000" stroke-miterlimit="10" stroke-width=".79448" d="M226.89453 141.67969c-.51172-.10547-2.7539-.70703-4.15234-1.35938v2.71875c1.39844-.65234 3.64062-1.2539 4.15234-1.35937Zm0 0"/></g><path fill="none" stroke="#000" stroke-miterlimit="10" stroke-width=".79448" d="M31.10156 169.93359V6.5547"/><path stroke="#000" stroke-miterlimit="10" stroke-width=".79448" d="M31.10156 2.40234c-.10547.50782-.70312 2.75-1.35937 4.15235h2.71875c-.65235-1.40235-1.2539-3.64453-1.35938-4.15235Zm0 0"/><g clip-path="url(#g)"><path fill="none" stroke="#007F7F" stroke-miterlimit="10" stroke-width=".79448" d="M36.7539-423.45304s5.78516 273.3359 8.00782 331.29292c2.21875 57.95311 5.78125 68.90233 8.0039 86.41405 2.22266 17.5078 5.78516 31.08984 8.00781 39.78515 2.21875 8.6914 5.78125 17.63671 8.0039 22.87109C71 62.14454 74.5625 68.25782 76.78516 71.76563c2.21875 3.50782 5.78125 7.91016 8.0039 10.42578 2.22266 2.51954 5.78516 5.82032 8.00782 7.71485 2.21875 1.89453 5.78124 4.46875 8.0039 5.94921 2.22266 1.48047 5.78516 3.53516 8.00781 4.72266 2.21875 1.1875 5.78125 2.86328 8.0039 3.83594 2.22266.97656 5.78516 2.3711 8.00782 3.1875 2.21875.8164 5.78125 1.9961 8.0039 2.68359 2.22266.6914 5.78516 1.69531 8.00782 2.28906 2.21874.59375 5.78124 1.46485 8.0039 1.97656 2.22266.51563 5.78516 1.27735 8.0039 1.73047 2.22266.44922 5.78516 1.1211 8.00782 1.51953 2.22265.39844 5.78515.9922 8.0039 1.34375 2.22266.35547 5.78516.89063 8.00781 1.21094 2.22266.3164 5.78516.79297 8.0039 1.08203 2.22266.28516 5.78516.71485 8.00782.97266s5.78516.65625 8.0039.89062c2.22266.23438 5.78516.59375 8.00782.8086 2.22265.21484 5.78515.54297 8.0039.74218 2.22266.19532 8.00781.6797 8.00781.6797"/></g><use xlink:href="#h" x="65.29584" y="25.37199" fill="#007F7F"/><use xlink:href="#i" x="80.5312" y="29.74203" fill="#007F7F"/><g clip-path="url(#j)"><path fill="none" stroke="#FF7F00" stroke-miterlimit="10" stroke-width=".39723" d="M2.84766.39455 21.68359 19.2305l9.41797 9.42187 56.5078 56.5078 9.42188 9.41797L134.70311 132.25l9.41797 9.42187 65.92577 65.92578 9.42187 9.41796 9.41797 9.41797"/></g></svg>