<svg xmlns="http://www.w3.org/2000/svg" xmlns:xlink="http://www.w3.org/1999/xlink" width="229.773pt" height="174.443pt" viewBox="0 0 229.773 174.443"><defs><path id="b" d="M1.82813 0h5.51562v-.48437l-1.40625-.125c-.35937-.03126-.5625-.15626-.5625-.82813v-9.89062l-.07812-.09375-3.46875.59375v.40625l1.5625.20312c.29687.03125.40625.15625.40625.64063v8.14062c0 .67188-.17188.79688-.5625.82813l-1.40625.125Zm0 0"/><path id="c" d="M.45313-.15625.625 0h6.95313l.57812-2.21875-.46875-.09375c-.35937.92188-.70312 1.04688-1.375 1.04688H2.01563c.26562-.875 1.26562-2.07813 2.82812-3.20313 1.60938-1.1875 2.85938-1.9375 2.85938-3.8125 0-2.34375-1.54688-3.14062-3.32813-3.14062-2.29687 0-3.48437 1.39062-3.48437 2.26562 0 .57813.64062.84375.9375.84375.29687 0 .40625-.17187.48437-.46875.26563-1.14062.92188-2.04687 1.95313-2.04687 1.29687 0 1.67187 1.0625 1.67187 2.29687 0 1.8125-.92187 2.82813-2.375 4.10938C1.48438-2.60937.76563-1.46875.45313-.15625m0 0"/><path id="d" d="M.45313-1.71875C.45313-1 1.60938.20313 3.98438.20313c2.4375 0 3.96875-1.23438 3.96875-3.39063 0-2.25-1.92188-2.90625-2.85938-3V-6.25C6-6.40625 7.45313-7.07812 7.45313-8.73437c0-1.85938-1.45313-2.6875-3.25-2.6875-2.21875 0-3.3125 1.28125-3.3125 2 0 .51562.59375.8125.82812.8125.21875 0 .34375-.125.40625-.34375.375-1.14063 1-1.875 1.95313-1.875 1.3125 0 1.65625 1.15625 1.65625 2.10937 0 1-.35938 2.26563-1.78125 2.26563-.8125 0-1.26563-.15625-1.46875-.15625-.21875 0-.29688.15625-.29688.45312s.07813.46875.29688.46875c.20312 0 .65625-.15625 1.46875-.15625 1.42187 0 2.23437 1.28125 2.23437 2.75 0 2-.98437 2.70313-2.1875 2.70313-1.10937 0-1.84375-.82813-2.15625-1.76563-.10937-.32812-.26562-.48437-.5-.48437-.3125 0-.89062.3125-.89062.92187m0 0"/><path id="e" d="M.70313-5.60937c0 3.35937.98437 5.8125 3.75 5.8125S8.21875-2.25 8.21875-5.60937s-1-5.8125-3.76562-5.8125-3.75 2.45312-3.75 5.8125m1.6875 0c0-2.73438.46875-5.21875 2.0625-5.21875S6.5-8.34375 6.5-5.60937 6.04688-.39062 4.45313-.39062 2.39063-2.875 2.39063-5.60937m0 0"/><path id="h" d="M.60938-9.3125c0 1.625 1.64062 2.92188 5.375 2.92188-.625 1.09375-1.07813 2.21875-1.07813 3.45312 0 2.04688 1.29688 3.15625 3.64063 3.15625 2.28125 0 4.65625-1.65625 4.65625-3.78125 0-1.26562-1.04688-1.95312-2.375-1.95312C9.35938-5.51562 7.625-3.875 7.625-2.5625c0 .39063.29688 1.15625.85938 1.15625.15625 0 .375-.125.375-.29687 0-.25-.4375-.26563-.4375-.84375 0-.90625 1.32812-2.375 2.40625-2.375.75 0 1.20312.29687 1.20312 1.03125C12.03125-2.25 10.45313-.375 8.54688-.375 7.1875-.375 6.5-1.10937 6.5-2.34375c0-1.39062.96875-3.01562 1.70313-4.20312 4.15625-.64063 8.21875-2.6875 8.21875-5.29688 0-.98437-.79688-1.64062-1.85938-1.64062-2.46875 0-6.1875 3.15625-8.23437 6.4375-1.6875-.01563-4.42188-.0625-4.42188-2.04688 0-1.82812 2.21875-3.23437 3.60938-3.23437.26562 0 .40625-.15625.40625-.32813 0-.15625-.14063-.26562-.29688-.26562-2.09375 0-5.01562 1.40625-5.01562 3.60937m7.96875 2.03125c1.375-2.40625 4.26562-5.60937 5.98437-5.60937.65625 0 1.10938.375 1.10938 1 0 2.07812-3.28125 3.98437-7.09375 4.60937m0 0"/><path id="j" d="m2.70313-2.03125.76562.78125 3.25-3.26562 3.25 3.26562.75-.78125-3.23437-3.23437 3.23437-3.25-.75-.76563-3.25 3.25-3.25-3.25-.76562.76563 3.25 3.25Zm0 0"/><path id="k" d="M-.35937 0h4.21875l.10937-.53125L2.9375-.64062c-.23437-.01563-.32812-.14063-.32812-.3125 0-.09376.03125-.23438.09375-.375.60937-1.1875 1.20312-2.40625 1.90625-3.65625h4.1875L9.25-1.125s-.09375.45313-.48437.48438l-1 .10937L7.67188 0H12.25l.125-.53125-.71875-.0625c-.57812-.0625-.65625-.3125-.75-1.09375l-1.375-11.21875H8.20313l-3.14063 5.5c-.95312 1.67188-2.5 4.45313-3.20312 5.5625C1.26563-.875.95313-.67187.375-.60937l-.60937.07812Zm5.34375-5.70312 3.03125-5.48438.6875 5.48438Zm0 0"/><path id="i" d="M-.28125 2.34375c.01563.46875.57813.8125 1.28125.8125 1.35938 0 1.98438-1.07812 2.53125-3.54687L4.75-5.875h1.64063l.14062-.53125h-1.6875L5.23438-8c.21875-.875.4375-1.20312.76562-1.20312.29688 0 .51563.25.82813.92187.07812.125.1875.25.42187.25.29688 0 .70313-.25.70313-.625 0-.5625-.71875-1.03125-1.57813-1.03125-1.64062 0-2.3125 1.17188-2.78125 2.84375l-.125.4375h-1.125l-.17187.53125h1.17187L1.8125 1.89063c-.125.67187-.25.76562-.375.76562-.14062 0-.35937-.125-.6875-.67187-.09375-.14063-.1875-.3125-.39062-.3125-.3125 0-.64063.32812-.64063.67187m0 0"/><path id="m" d="M.20313-4.90625h.28124c.10938-1.01562.3125-1.23437 1.40626-1.23437h.54687v5.28125c0 .51562-.01562.53125-1.03125.59375V0h2.98438v-.26562c-1-.0625-1.03125-.07813-1.03125-.59375v-5.28125h.5625c1.09375 0 1.28125.21875 1.39062 1.23437h.28125v-1.54687H.20313Zm0 0"/><path id="n" d="M.45313-1.21875c0 .70313.46875 1.32813 1.34375 1.32813.54687 0 1.09375-.35938 1.39062-.5625.125.35937.29688.5625.625.5625.34375 0 .73438-.09375 1.09375-.28126l-.0625-.21874c-.125.03125-.32812.04687-.46875 0-.17187-.03125-.32812-.20313-.32812-.79688v-2.26562c0-.54688-.125-1.23438-1.53125-1.23438C1.45313-4.6875.625-4.14062.625-3.625c0 .29688.34375.4375.53125.4375s.25-.10937.29688-.26562c.20312-.6875.57812-.90625.96875-.90625.35937 0 .78125.1875.78125.9375v.375c-.23438.25-1.14063.48437-1.875.71875-.6875.21875-.875.67187-.875 1.10937m.95312-.125c0-.4375.1875-.65625.71875-.85937.375-.14063.85938-.32813 1.07813-.45313v1.32813c0 .75-.57813.9375-.95313.9375-.57812 0-.84375-.40625-.84375-.95313m0 0"/><path id="o" d="M.29688 0h2.28125v-.26562C1.90625-.3125 1.875-.34375 1.875-.8125V-3c0-.23437.01563-.35937.09375-.51562.20313-.35938.60938-.67188 1.10938-.67188.64062 0 .98437.35938.98437 1.17188V-.8125c0 .46875-.03125.5-.70312.54688V0h2.28125v-.26562C4.98438-.3125 4.9375-.34375 4.9375-.8125v-2.39062c0-.9375-.51562-1.48438-1.375-1.48438-.6875 0-1.125.32813-1.6875.71875l-.14062-.71875-1.39063.23438v.23437l.35938.04688C.9375-4.14062 1-4.09375 1-3.75v2.9375c0 .46875-.03125.5-.70312.54688Zm0 0"/><path id="p" d="M.39063.89063c0 .95312.9375 1.35937 2.03125 1.35937.54687 0 1.14062-.10937 1.57812-.375.4375-.25.75-.70312.75-1.28125 0-1.01562-.8125-1.35937-1.8125-1.35937h-.73437c-.6875 0-.78125-.23438-.78125-.40625 0-.26563.35937-.42188.46875-.45313.1875.01563.39062.03125.48437.03125.89063 0 1.89063-.39062 1.89063-1.53125 0-.39062-.125-.70312-.29688-.875l.75-.10937.1875-.59375-.07812-.07813-1.1875.375c-.26563-.17187-.78125-.28125-1.21875-.28125C1-4.6875.5-3.8125.5-3.125c0 .875.57813 1.28125 1 1.39063v.03124C1-1.51562.64063-1.25.64063-.875c0 .32813.39062.67188.82812.71875V-.125C1.07813 0 .39063.21875.39063.89063m.89062-.03126q0-.49218.28125-.70312c.21875-.17187.53125-.21875.96875-.21875.82813 0 1.4375.20313 1.4375.89063 0 .75-.67187 1.10937-1.34375 1.10937-.79687 0-1.34375-.40625-1.34375-1.07812M1.45313-3.125c0-.92187.46875-1.23437.96875-1.23437.45312 0 .9375.32812.9375 1.23437 0 .79688-.39063 1.20313-.9375 1.20313-.53125 0-.96875-.40625-.96875-1.20313m0 0"/><path id="q" d="M.45313-2.25c0 1.46875.64062 2.35938 2.15625 2.35938 1.03125 0 1.57812-.57813 1.82812-1.3125l-.28125-.14063c-.26562.53125-.625.96875-1.35937.96875-1.15625 0-1.39063-1.10937-1.35938-2.07812H4.125c.20313 0 .35938-.04688.35938-.35938 0-.54687-.17188-1.875-1.875-1.875C1.14063-4.6875.45313-3.65625.45313-2.25m.98437-.5625c0-.39062.14063-1.54687 1.10938-1.54687.875 0 .96875.875.96875 1.25 0 .17187-.0625.29687-.3125.29687Zm0 0"/><path id="r" d="M.28125-4.20312h.6875v3.25C.96875 0 1.67188.10938 2 .10938c.46875 0 .92188-.23438 1.1875-.40625L3.125-.5c-.23437.09375-.4375.125-.67187.125-.3125 0-.60938-.23437-.60938-.9375v-2.89062h1.20313v-.375H1.84375V-5.75H1.5625L1-4.57812H.28125Zm0 0"/><path id="s" d="M-.1875 0h2.14063l.0625-.3125L1.5-.34375C1.375-.35937 1.32813-.42187 1.32813-.5c0-.0625.01562-.125.04687-.20312.29688-.54688.5625-1.10938.89063-1.70313h2l.1875 1.79688s-.03125.23437-.23438.26562l-.48437.03125L3.65625 0H6.1875L6.25-.3125l-.35937-.03125c-.29688-.03125-.3125-.25-.35938-.57812l-.625-5.53125h-.875L2.4375-3.65625C1.92188-2.75 1.15625-1.375.84375-.875c-.25.40625-.39062.5-.6875.53125L-.125-.3125Zm2.65625-2.79687 1.45313-2.625.29687 2.625Zm0 0"/><clipPath id="a"><path d="M2 0h227.29297v171H2Zm0 0"/></clipPath><clipPath id="f"><path d="M211 129h18.29297v26H211Zm0 0"/></clipPath><clipPath id="g"><path d="M2.84766.39453h226.05078V153H2.84766Zm0 0"/></clipPath><clipPath id="l"><path d="M2.84766 19h226.05078v150.9336H2.84766Zm0 0"/></clipPath></defs><g clip-path="url(#a)"><path fill="none" stroke="#000" stroke-miterlimit="10" stroke-opacity=".5" stroke-width=".39723" d="M2.84766 141.67969h226.05075M2.84766 85.16407h226.05075M2.84766 28.65236h226.05075M31.10156 169.93359V.39455M87.61718 169.9336V.39455m56.51171 169.53904V.39455M200.6406 169.9336V.39455"/></g><path fill="none" stroke="#000" stroke-miterlimit="10" stroke-opacity=".5" stroke-width=".39723" d="M87.61718 127.55078v28.25781"/><use xlink:href="#b" x="83.16479" y="161.51827" fill-opacity=".5"/><path fill="none" stroke="#000" stroke-miterlimit="10" stroke-opacity=".5" stroke-width=".39723" d="M144.12889 127.55078v28.25781"/><use xlink:href="#c" x="139.67734" y="161.51827" fill-opacity=".5"/><path fill="none" stroke="#000" stroke-miterlimit="10" stroke-opacity=".5" stroke-width=".39723" d="M200.6406 127.55078v28.25781"/><use xlink:href="#d" x="196.1899" y="161.41958" fill-opacity=".5"/><path fill="none" stroke="#000" stroke-miterlimit="10" stroke-opacity=".5" stroke-width=".39723" d="M45.23047 85.16407h-28.2539"/><use xlink:href="#b" x="6.87239" y="90.87783" fill-opacity=".5"/><path fill="none" stroke="#000" stroke-miterlimit="10" stroke-opacity=".5" stroke-width=".39723" d="M45.23047 28.65236h-28.2539"/><use xlink:href="#c" x="6.87239" y="34.36527" fill-opacity=".5"/><path fill="none" stroke="#000" stroke-miterlimit="10" stroke-opacity=".5" stroke-width=".39723" d="M31.10156 127.55078v28.25781"/><use xlink:href="#e" x="6.87239" y="167.07154" fill-opacity=".5"/><path fill="none" stroke="#000" stroke-miterlimit="10" stroke-width=".79448" d="M2.84766 141.67969h219.8945"/><path d="M226.89453 141.67969c-.51172-.10547-2.7539-.70703-4.15234-1.35938v2.71875c1.39844-.65234 3.64062-1.2539 4.15234-1.35937m0 0"/><g clip-path="url(#f)"><path fill="none" stroke="#000" stroke-miterlimit="10" stroke-width=".79448" d="M226.89453 141.67969c-.51172-.10547-2.7539-.70703-4.15234-1.35938v2.71875c1.39844-.65234 3.64062-1.2539 4.15234-1.35937Zm0 0"/></g><path fill="none" stroke="#000" stroke-miterlimit="10" stroke-width=".79448" d="M31.10156 169.93359V6.5547"/><path stroke="#000" stroke-miterlimit="10" stroke-width=".79448" d="M31.10156 2.40234c-.10547.50782-.70312 2.75-1.35937 4.15235h2.71875c-.65235-1.40235-1.2539-3.64453-1.35938-4.15235Zm0 0"/><g clip-path="url(#g)"><path fill="none" stroke="#007F7F" stroke-miterlimit="10" stroke-width=".79448" d="M2.84766 138.14844s6.80469 1.52343 9.41797 1.96093c2.61328.4336 6.80468.96094 9.41796 1.17579 2.61329.21875 6.8047.39453 9.41797.39453 2.61328 0 6.80469-.17578 9.41797-.39063 2.61328-.21875 6.80469-.74219 9.41797-1.17969 2.61328-.43359 6.80468-1.30859 9.41796-1.96093 2.61329-.65625 6.8047-1.875 9.41797-2.7461 2.61328-.87109 6.80469-2.4453 9.41797-3.53124 2.61328-1.08985 6.80469-3.01172 9.41797-4.31641 2.61328-1.3086 6.80468-3.57813 9.42187-5.10156 2.61328-1.52344 6.80469-4.14453 9.41797-5.88672s6.80468-4.71094 9.41797-6.67187c2.61328-1.96094 6.80468-5.27735 9.41796-7.45313 2.61328-2.17969 6.80469-5.84765 9.41797-8.24218 2.61328-2.39454 6.80469-6.41016 9.41797-9.02344s6.80468-6.98047 9.41796-9.8125c2.61329-2.82812 6.8047-7.54297 9.41797-10.59375 2.61328-3.04687 6.80469-8.11328 9.41797-11.3789s6.80469-8.67969 9.41797-12.16406c2.61328-3.48438 6.80468-9.2461 9.41796-12.94922s6.8047-9.8164 9.41797-13.73437c2.61328-3.92188 6.80469-10.38281 9.41797-14.51953 2.61719-4.13672 6.80469-10.94922 9.42187-15.30469 2.61328-4.35547 9.41797-16.08593 9.41797-16.08593"/></g><use xlink:href="#h" x="158.21814" y="32.96574" fill="#007F7F"/><use xlink:href="#i" x="173.45349" y="37.33579" fill="#007F7F"/><use xlink:href="#j" x="109.15879" y="114.52831" fill="#FF7F00"/><use xlink:href="#k" x="96.04367" y="102.87352" fill="#FF7F00"/><g clip-path="url(#l)"><path fill="none" stroke="#FF7F00" stroke-miterlimit="10" stroke-width=".39723" d="m2.84766 194.66015 9.41797-7.0664 28.2539-21.1875 9.41797-7.0664 18.83593-14.125 9.41797-7.06641 9.41797-7.0625 9.42187-7.0625 9.41797-7.0664 28.2539-21.1875 9.41797-7.0664 18.83593-14.125 9.41797-7.06641 18.83593-14.125 9.41797-7.0664 9.41797-7.0625 9.42187-7.0625 9.41797-7.0664"/></g><use xlink:href="#m" x="55.0685" y="162.856" fill="#FF7F00"/><g fill="#FF7F00"><use xlink:href="#n" x="59.92473" y="162.856"/><use xlink:href="#o" x="64.80081" y="162.856"/><use xlink:href="#p" x="70.57068" y="162.856"/><use xlink:href="#q" x="75.41698" y="162.856"/><use xlink:href="#o" x="80.21362" y="162.856"/><use xlink:href="#r" x="85.98349" y="162.856"/><use xlink:href="#q" x="89.19118" y="162.856"/></g><g fill="#FF7F00"><use xlink:href="#q" x="96.08324" y="162.856"/><use xlink:href="#o" x="100.87988" y="162.856"/></g><use xlink:href="#s" x="108.74511" y="162.856" fill="#FF7F00"/></svg>