<svg xmlns="http://www.w3.org/2000/svg" xmlns:xlink="http://www.w3.org/1999/xlink" width="142.529pt" height="213.395pt" viewBox="0 0 142.529 213.395"><defs><path id="b" d="M.4375-3.51562C.4375-1.40625 1.04688.125 2.78125.125c1.73438 0 2.35938-1.53125 2.35938-3.64062 0-2.09375-.625-3.625-2.35938-3.625S.4375-5.60937.4375-3.51562m1.0625 0c0-1.70313.28125-3.25 1.28125-3.25s1.28125 1.54687 1.28125 3.25C4.0625-1.79687 3.78125-.25 2.78125-.25S1.5-1.79687 1.5-3.51562m0 0"/><path id="c" d="M.89063-2.65625h5.78125v-.60937H.89063Zm0 0"/><path id="d" d="M1.14063 0h3.45312v-.29687L3.70313-.375c-.21875-.03125-.34375-.10937-.34375-.51562v-6.1875l-.04688-.0625-2.17187.375v.25l.98437.125c.17188.01562.25.09375.25.40625v5.09375c0 .40625-.10937.48437-.35937.51562l-.875.07813Zm0 0"/><path id="e" d="M.28125-.09375.39063 0h4.34375l.35937-1.39062-.29687-.04688c-.21875.5625-.42188.64063-.85938.64063H1.26563c.17187-.54688.79687-1.29688 1.76562-2 1-.73438 1.78125-1.20313 1.78125-2.375 0-1.46875-.96875-1.96875-2.07812-1.96875-1.4375 0-2.17188.875-2.17188 1.42187 0 .35938.39063.53125.57813.53125s.25-.125.29687-.29687c.17188-.71875.57813-1.28125 1.23438-1.28125.79687 0 1.03125.67187 1.03125 1.4375 0 1.125-.5625 1.76562-1.48438 2.5625C.92188-1.625.48438-.92187.28125-.09375m0 0"/><path id="g" d="M.28125-1.07812C.28125-.625 1 .125 2.48438.125c1.53125 0 2.48437-.76562 2.48437-2.10937 0-1.40625-1.20312-1.82813-1.78125-1.875v-.04688C3.75-4 4.65625-4.42187 4.65625-5.46875c0-1.15625-.90625-1.67187-2.03125-1.67187-1.39062 0-2.0625.8125-2.0625 1.25 0 .32812.35938.5.51563.5.125 0 .20312-.07813.25-.20313.23437-.71875.625-1.17187 1.21875-1.17187.82812 0 1.04687.71875 1.04687 1.3125 0 .625-.23437 1.42187-1.125 1.42187-.5 0-.79687-.10937-.92187-.10937s-.1875.10937-.1875.29687c0 .17188.0625.29688.1875.29688s.42187-.10938.92187-.10938c.89063 0 1.39063.8125 1.39063 1.71875C3.85938-.6875 3.25-.25 2.5-.25c-.6875 0-1.14062-.51562-1.34375-1.10937-.07812-.1875-.17187-.29688-.3125-.29688-.20312 0-.5625.20313-.5625.57813m0 0"/><path id="h" d="m.20313-2.09375.09375.21875h2.85937v1.07813c0 .34375-.125.40625-.375.42187l-.67187.07813V0H4.875v-.29687l-.46875-.0625c-.23437-.03125-.3125-.09375-.3125-.4375V-1.875h1.07813v-.5H4.09375v-4.64062h-.76562C2.34375-5.5625 1.15625-3.75.20313-2.09375m.75-.28125C1.59375-3.51562 2.34375-4.71875 3.15625-6v3.625Zm0 0"/><path id="l" d="M.39063-5.8125C.39063-4.79687 1.40625-4 3.73438-4c-.39063.6875-.67188 1.39063-.67188 2.15625 0 1.28125.8125 1.98438 2.26563 1.98438C6.76563.14063 8.25-.89062 8.25-2.21875c0-.79687-.65625-1.23437-1.48437-1.23437-.92188 0-2 1.03125-2 1.85937 0 .23438.1875.71875.53125.71875.09375 0 .23437-.07812.23437-.1875 0-.15625-.26562-.17187-.26562-.53125 0-.5625.82812-1.48437 1.5-1.48437.46875 0 .75.1875.75.64062 0 1.03125-.98438 2.20313-2.1875 2.20313-.84375 0-1.26563-.45313-1.26563-1.23438 0-.85937.60938-1.875 1.0625-2.625 2.59375-.39062 5.14063-1.67187 5.14063-3.29687 0-.625-.5-1.03125-1.17188-1.03125-1.53125 0-3.85937 1.96875-5.14062 4.01562C2.90625-4.42187 1.1875-4.4375 1.1875-5.6875c0-1.14062 1.39063-2.01562 2.26563-2.01562.15625 0 .25-.09375.25-.20313 0-.09375-.09375-.17187-.1875-.17187-1.3125 0-3.125.875-3.125 2.26562m4.96875 1.26563c.85937-1.5 2.67187-3.5 3.73437-3.5.40625 0 .6875.23437.6875.60937 0 1.3125-2.04687 2.5-4.42187 2.89063m0 0"/><path id="o" d="M.23438-1c0 1 1.59375 1.14063 2.45312 1.14063 2.34375 0 3.48438-.95313 4.0625-2.29688.39063-.90625.32813-2.21875.6875-3.29687.20313-.5625.85938-1.14063.85938-1.39063C8.29688-6.95312 8.28125-7 8.125-7 5.85938-7 6.53125-.23437 2.71875-.23437 1.23438-.23437.625-.51564.60938-1.1875c.09374.07813.28124.14063.42187.14063.26563 0 .6875-.1875.6875-.46875 0-.29688-.26562-.5-.5625-.5C.5625-2.01562.23438-1.48437.23438-1M1.8125-5.1875c0 .75.59375 1.17188 1.375 1.17188 1.34375 0 3.10938-.67188 3.10938-2.10938 0-.34375-.29688-1-.78125-1-.10938 0-.25.10938-.25.21875 0 .07813.21875.375.21875.60938 0 1.20312-1.1875 1.90625-2.29688 1.90625-.5 0-.90625-.23438-.90625-.73438 0-1.78125 2.28125-2.53125 3.82813-2.53125 1.10937 0 2.48437.42188 3.875.42188.48437 0 1.1875-.04688 1.6875-.14063.10937 0 .40625-.5625.40625-.67187 0-.09375-.0625-.17188-.1875-.17188-.14063 0-1.35938.20313-1.89063.20313-1.21875 0-2.85937-.40625-3.6875-.40625-1.70312 0-4.5 1.20312-4.5 3.23437m0 0"/><path id="m" d="M-.17187 1.46875c0 .28125.35937.5.79687.5.85938 0 1.25-.67187 1.57813-2.21875l.76562-3.42187H4L4.07813-4h-1.0625l.25-1c.14062-.54687.28125-.75.48437-.75.1875 0 .32813.15625.51563.57813.04687.07812.125.15625.26562.15625.1875 0 .4375-.15625.4375-.39063 0-.35937-.45312-.65625-.98437-.65625-1.03125 0-1.45313.75-1.75 1.78125L2.15625-4h-.70312l-.09376.32813h.71876L1.125 1.1875c-.07812.40625-.15625.46875-.23437.46875-.07813 0-.21876-.07812-.42188-.40625-.0625-.09375-.125-.20312-.25-.20312-.1875 0-.39062.20312-.39062.42187m0 0"/><clipPath id="a"><path d="M0 .05078h142v212.6914H0Zm0 0"/></clipPath><clipPath id="f"><path d="M124 146h18.0586v26H124Zm0 0"/></clipPath><clipPath id="i"><path d="M52 6h2v206.74219h-2Zm0 0"/></clipPath><clipPath id="j"><path d="M40 .05078h26V18H40Zm0 0"/></clipPath><clipPath id="k"><path d="M.39453.44531h141.26953V188H.39453Zm0 0"/></clipPath><clipPath id="n"><path d="M.39453 11h141.26953v200H.39453Zm0 0"/></clipPath></defs><g clip-path="url(#a)"><path fill="none" stroke="#000" stroke-miterlimit="10" stroke-opacity=".5" stroke-width=".39719" d="M.39455 194.68749h141.26949M.39454 159.37109h141.2695M.39454 124.0547h141.2695M.39454 88.7383h141.2695M.39454 53.4219h141.2695M.39454 18.1016h141.2695M18.0547 212.34374V.44536m35.3164 211.89838V.44536m35.31639 211.89838V.44536m35.3164 211.89838V.44536"/></g><path fill="none" stroke="#000" stroke-miterlimit="10" stroke-opacity=".5" stroke-width=".39719" d="M53.3711 150.54297v17.65625"/><use xlink:href="#b" x="38.22867" y="175.239" fill-opacity=".5"/><path fill="none" stroke="#000" stroke-miterlimit="10" stroke-opacity=".5" stroke-width=".39719" d="M18.0547 150.54297v17.65625"/><g fill-opacity=".5"><use xlink:href="#c" x="11.498" y="171.76847"/><use xlink:href="#d" x="19.04964" y="171.76847"/></g><path fill="none" stroke="#000" stroke-miterlimit="10" stroke-opacity=".5" stroke-width=".39719" d="M88.68749 150.54297v17.65625"/><use xlink:href="#d" x="85.90611" y="171.76847" fill-opacity=".5"/><path fill="none" stroke="#000" stroke-miterlimit="10" stroke-opacity=".5" stroke-width=".39719" d="M124.00389 150.54297v17.65625"/><use xlink:href="#e" x="121.22241" y="171.76847" fill-opacity=".5"/><path fill="none" stroke="#000" stroke-miterlimit="10" stroke-width=".79439" d="M.39455 159.3711h135.11324"/><path d="M139.65625 159.3711c-.50781-.10548-2.75-.70704-4.14844-1.35938v2.71875c1.39844-.65234 3.64063-1.2539 4.14844-1.35938m0 0"/><g clip-path="url(#f)"><path fill="none" stroke="#000" stroke-miterlimit="10" stroke-width=".79439" d="M139.65625 159.3711c-.50781-.10547-2.75-.70704-4.14844-1.35938v2.71875c1.39844-.65234 3.64063-1.2539 4.14844-1.35938Zm0 0"/></g><path fill="none" stroke="#000" stroke-miterlimit="10" stroke-opacity=".5" stroke-width=".39719" d="M62.19922 194.68749H44.54297"/><g fill-opacity=".5"><use xlink:href="#c" x="34.45315" y="198.25594"/><use xlink:href="#d" x="42.00478" y="198.25594"/></g><path fill="none" stroke="#000" stroke-miterlimit="10" stroke-opacity=".5" stroke-width=".39719" d="M62.19922 124.0547H44.54297"/><use xlink:href="#d" x="38.22967" y="127.62335" fill-opacity=".5"/><path fill="none" stroke="#000" stroke-miterlimit="10" stroke-opacity=".5" stroke-width=".39719" d="M62.19922 88.7383H44.54297"/><use xlink:href="#e" x="38.22967" y="92.30706" fill-opacity=".5"/><path fill="none" stroke="#000" stroke-miterlimit="10" stroke-opacity=".5" stroke-width=".39719" d="M62.19922 53.4219H44.54297"/><use xlink:href="#g" x="38.22967" y="56.92896" fill-opacity=".5"/><path fill="none" stroke="#000" stroke-miterlimit="10" stroke-opacity=".5" stroke-width=".39719" d="M62.19922 18.1016H44.54297"/><use xlink:href="#h" x="38.22967" y="21.61267" fill-opacity=".5"/><g clip-path="url(#i)"><path fill="none" stroke="#000" stroke-miterlimit="10" stroke-width=".79439" d="M53.3711 212.34374V6.6016"/></g><path d="M53.3711 2.44922c-.10547.51172-.70704 2.75-1.35938 4.15234h2.71875c-.65234-1.40234-1.2539-3.64062-1.35938-4.15234m0 0"/><g clip-path="url(#j)"><path fill="none" stroke="#000" stroke-miterlimit="10" stroke-width=".79439" d="M53.3711 2.44922c-.10547.51172-.70704 2.75-1.35938 4.15234h2.71875c-.65234-1.40234-1.2539-3.64062-1.35938-4.15234Zm0 0"/></g><g clip-path="url(#k)"><path fill="none" stroke="#007F7F" stroke-miterlimit="10" stroke-width=".79439" d="M.39455 176.47656s4.2539-25.76562 5.88671-34.10937 4.25391-19.80077 5.88672-26.01561c1.63281-6.21875 4.2539-14.45703 5.88672-18.78125 1.63281-4.32812 4.25-9.73046 5.88672-12.41015 1.6328-2.67578 4.25-5.6211 5.8828-6.88672 1.63282-1.26562 4.25391-2.13672 5.88672-2.23047 1.63282-.08984 4.2539.73047 5.88672 1.57422 1.63281.84375 4.25 2.97266 5.88672 4.51563 1.6328 1.54296 4.25 4.59765 5.8828 6.60156 1.63282 2 4.25391 5.60156 5.88672 7.82421 1.63282 2.22266 4.25391 5.98828 5.88672 8.19531s4.25 5.7539 5.88672 7.70703c1.63281 1.94922 4.25 4.89844 5.88281 6.35547s4.2539 3.42578 5.88672 4.15234c1.6328.72656 4.2539 1.32813 5.88671 1.08594s4.25-1.38672 5.88672-2.83594c1.63281-1.45312 4.25-4.72265 5.88281-7.61718 1.63281-2.89844 4.2539-8.67969 5.88672-13.25781 1.63281-4.58203 4.2539-13.2539 5.88672-19.7539 1.6328-6.5039 4.2539-18.44922 5.88671-27.10937 1.63282-8.66406 4.25-24.26562 5.88281-35.32811 1.63672-11.0586 4.2539-30.6953 5.88672-44.39452 1.63281-13.69531 4.2539-37.7539 5.88672-54.32811 1.6328-16.5703 5.88671-65.11326 5.88671-65.11326"/></g><use xlink:href="#l" x="93.79903" y="66.66479" fill="#007F7F"/><use xlink:href="#m" x="103.31882" y="69.39452" fill="#007F7F"/><g clip-path="url(#n)"><path fill="none" stroke="#FF7F00" stroke-miterlimit="10" stroke-width=".79439" d="M.39455 22.51957s4.2539 5.3125 5.88671 7.35547 4.25391 5.3164 5.88672 7.35547c1.63281 2.04296 4.2539 5.3164 5.88672 7.35937 1.63281 2.04297 4.25 5.3164 5.88672 7.35546 1.6328 2.04297 4.25 5.31641 5.8828 7.35938 1.63282 2.04297 4.25391 5.3164 5.88672 7.35546 1.63282 2.04297 4.2539 5.3164 5.88672 7.35938 1.63281 2.03906 4.25 5.3164 5.88672 7.35546 1.6328 2.04297 4.25 5.3164 5.8828 7.35938C55 90.77346 57.6211 94.0469 59.2539 96.08986c1.63282 2.04297 4.25391 5.3164 5.88672 7.35547 1.63281 2.04297 4.25 5.3164 5.88672 7.35937 1.63281 2.04297 4.25 5.3164 5.88281 7.35547 1.63281 2.04297 4.2539 5.3164 5.88672 7.35937 1.6328 2.03906 4.2539 5.3164 5.88671 7.35547 1.63282 2.04297 4.25 5.3164 5.88672 7.35937 1.63281 2.03906 4.25 5.3125 5.88281 7.35547s4.2539 5.3164 5.88672 7.35937c1.63281 2.03906 4.2539 5.3125 5.88672 7.35547 1.6328 2.04296 4.2539 5.3164 5.88671 7.35937 1.63282 2.03906 4.25 5.3125 5.88281 7.35547 1.63672 2.04296 4.2539 5.3164 5.88672 7.35546 1.63281 2.04297 4.2539 5.3164 5.88672 7.35938 1.6328 2.03906 5.88671 7.35546 5.88671 7.35546"/></g><use xlink:href="#o" x="96.81108" y="176.59851" fill="#FF7F00"/></svg>