<svg xmlns="http://www.w3.org/2000/svg" xmlns:xlink="http://www.w3.org/1999/xlink" width="484.528pt" height="234.409pt" viewBox="0 0 484.528 234.409"><defs><path id="a" d="M.4375-3.51562C.4375-1.40625 1.04688.125 2.78125.125c1.73438 0 2.35938-1.53125 2.35938-3.64062 0-2.09375-.625-3.64063-2.35938-3.64063S.4375-5.60937.4375-3.51562m1.0625 0c0-1.70313.29688-3.26563 1.28125-3.26563 1 0 1.29688 1.5625 1.29688 3.26563C4.07813-1.79687 3.78125-.25 2.78125-.25 1.79688-.25 1.5-1.79687 1.5-3.51562m0 0"/><path id="b" d="M1.14063 0h3.45312v-.29687l-.875-.07813C3.48438-.40625 3.375-.48437 3.375-.89062v-6.20313l-.0625-.0625-2.17187.375v.26563l.98437.10937c.17188.03125.25.10938.25.40625v5.10938c0 .40625-.10937.48437-.34375.51562l-.89062.07813Zm0 0"/><path id="c" d="M.28125-.09375.39063 0H4.75l.34375-1.39062-.28125-.04688c-.21875.5625-.4375.64063-.85937.64063h-2.6875c.17187-.54688.79687-1.29688 1.76562-2 1-.73438 1.79688-1.20313 1.79688-2.39063 0-1.45312-.98438-1.96875-2.09375-1.96875-1.4375 0-2.17188.875-2.17188 1.42188 0 .35937.40625.53125.57813.53125.1875 0 .26562-.10938.29687-.29688.17188-.70312.59375-1.28125 1.23438-1.28125.8125 0 1.04687.67188 1.04687 1.4375 0 1.14063-.57812 1.78125-1.5 2.57813C.92188-1.64062.48438-.92187.28125-.09375m0 0"/><path id="d" d="M.28125-1.07812C.28125-.625 1 .125 2.5.125c1.51563 0 2.48438-.78125 2.48438-2.10937 0-1.42188-1.21875-1.82813-1.79688-1.89063v-.04687C3.76563-4 4.67188-4.4375 4.67188-5.46875c0-1.17187-.90625-1.6875-2.04688-1.6875-1.39062 0-2.0625.8125-2.0625 1.26563 0 .3125.35938.5.51563.5.125 0 .20312-.07813.25-.21875.23437-.71875.625-1.17188 1.21875-1.17188.82812 0 1.04687.73438 1.04687 1.32813 0 .625-.21875 1.42187-1.125 1.42187-.5 0-.79687-.10937-.90625-.10937-.14062 0-.20312.10937-.20312.29687 0 .17188.0625.28125.20312.28125.10938 0 .40625-.09375.90625-.09375.90625 0 1.40625.79688 1.40625 1.71875C3.875-.6875 3.25-.25 2.5-.25c-.6875 0-1.14062-.51562-1.34375-1.10937-.07812-.20313-.17187-.29688-.3125-.29688-.1875 0-.5625.20313-.5625.57813m0 0"/><path id="e" d="m.20313-2.10937.09375.23437h2.85937v1.0625c0 .35938-.10937.42188-.375.4375l-.67187.07813V0h2.78125v-.29687l-.46875-.0625c-.25-.03125-.3125-.09375-.3125-.45313V-1.875H5.1875v-.5H4.10938v-4.65625h-.78125C2.34375-5.57812 1.15625-3.75.20313-2.10937M.96875-2.375c.625-1.14062 1.375-2.35937 2.1875-3.625v3.625Zm0 0"/><path id="f" d="M.42188-1.07812C.42188-.59375 1.15625.125 2.53125.125c1.73438 0 2.51563-1.04687 2.51563-2.39062 0-1.46875-.92188-2.21875-2.17188-2.21875-.57812 0-1.21875.25-1.5625.5625l.25-2c.03125-.26563.09375-.29688.29688-.29688h2.60937l.26563-.71875-.0625-.09375H1.15625l-.09375.10938-.21875 3.51562.26563.125c.4375-.5.85937-.75 1.4375-.75.65625 0 1.40625.5 1.40625 1.89063C3.95313-1.0625 3.51563-.25 2.59375-.25c-.73437 0-1.10937-.51562-1.3125-1.125-.0625-.15625-.15625-.26562-.3125-.26562-.20312 0-.54687.21874-.54687.5625m0 0"/><path id="g" d="M.45313-3.25c0 2.28125.82812 3.375 2.40625 3.375C4.42188.125 5.25-.8125 5.25-2.25c0-1.42187-.875-2.1875-2-2.1875-.82812 0-1.45312.5625-1.73437.90625.01562-2.3125.65625-3.25 1.60937-3.25.48438 0 .82813.40625.98438 1.01563.03125.10937.10937.21875.26562.21875.23438 0 .5625-.1875.5625-.48438 0-.42187-.51562-1.125-1.78125-1.125C1.48438-7.15625.45313-5.85937.45313-3.25m1.0625.76563c0-.64063.48437-1.42188 1.375-1.42188.65625 0 1.3125.60938 1.3125 1.8125 0 1.10938-.4375 1.84375-1.3125 1.84375-.92188 0-1.375-.96875-1.375-2.23437m0 0"/><path id="h" d="M.4375-5.54687h.28125l.09375-.21875c.14063-.29688.28125-.45313.75-.45313h2.84375c-.09375.375-.29687.98438-1.15625 2.20313-.90625 1.29687-1.5 2.46875-1.5 3.71875 0 .34375.25.42187.57813.42187.29687 0 .5-.0625.5-.40625 0-1.60937.28125-2.57812.79687-3.48437.67188-1.17188 1.23438-1.82813 1.59375-3.14063l-.07812-.125h-4.375Zm0 0"/><path id="i" d="M.4375-1.90625C.4375-.84375 1.07813.125 2.78125.125c1.70313 0 2.35938-.96875 2.35938-2.03125 0-1.07812-.67188-1.70312-1.39063-1.875.64063-.17187 1.15625-.71875 1.15625-1.57812C4.90625-6.5 4-7.15625 2.78125-7.15625 1.57813-7.15625.67188-6.5.67188-5.35937c0 .85937.53125 1.40625 1.15625 1.57812C1.125-3.60937.4375-2.98437.4375-1.90625m1.04688.03125c0-.96875.46875-1.6875 1.29687-1.6875.84375 0 1.29688.71875 1.29688 1.6875 0 .92188-.40625 1.625-1.29688 1.625-.875 0-1.29687-.70312-1.29687-1.625m.20312-3.5c0-.8125.375-1.40625 1.09375-1.40625S3.875-6.1875 3.875-5.375c0 .70313-.32812 1.4375-1.09375 1.4375-.75 0-1.09375-.73437-1.09375-1.4375m0 0"/><path id="j" d="M.375-4.78125c0 1.42188.875 2.20313 2.01563 2.20313.8125 0 1.4375-.5625 1.71875-.90625C4.09375-1.17187 3.45313-.25 2.5-.25c-.46875 0-.82812-.40625-.98437-1-.03126-.125-.10938-.23437-.26563-.23437-.23437 0-.5625.20312-.5625.48437 0 .42188.51563 1.125 1.78125 1.125 1.67188 0 2.70313-1.28125 2.70313-3.90625 0-2.26562-.82813-3.375-2.40625-3.375-1.5625 0-2.39063.95313-2.39063 2.375m1.0625-.15625c0-1.10937.42188-1.84375 1.29688-1.84375.92187 0 1.375.96875 1.375 2.23438 0 .64062-.48438 1.42187-1.375 1.42187-.65625 0-1.29688-.59375-1.29688-1.8125m0 0"/><path id="l" d="M.39063-5.82812C.39063-4.8125 1.40625-4 3.73438-4c-.375.6875-.67188 1.39063-.67188 2.15625 0 1.28125.8125 1.98438 2.28125 1.98438 1.42188 0 2.92188-1.03125 2.92188-2.35938 0-.79687-.65625-1.23437-1.5-1.23437-.92188 0-2 1.03125-2 1.84375 0 .25.1875.73437.53125.73437.10937 0 .25-.07812.25-.1875 0-.15625-.28125-.17187-.28125-.53125 0-.5625.82812-1.48437 1.5-1.48437.46875 0 .76562.1875.76562.64062 0 1.03125-1 2.20313-2.1875 2.20313-.84375 0-1.28125-.46875-1.28125-1.23438 0-.85937.60938-1.89062 1.0625-2.625 2.59375-.40625 5.14063-1.6875 5.14063-3.3125 0-.625-.48438-1.03125-1.15625-1.03125-1.54688 0-3.875 1.98438-5.14063 4.03125-1.0625-.01562-2.78125-.04687-2.78125-1.28125 0-1.14062 1.39063-2.03125 2.26563-2.03125.15625 0 .25-.09375.25-.1875 0-.10937-.09375-.1875-.1875-.1875-1.29688 0-3.125.89063-3.125 2.26563M5.35938-4.5625c.85937-1.5 2.67187-3.5 3.75-3.5.40625 0 .6875.23438.6875.625 0 1.29688-2.04688 2.5-4.4375 2.875m0 0"/><path id="m" d="M-.17187 1.46875c0 .29688.35937.5.79687.5.85938 0 1.25-.67187 1.57813-2.21875l.76562-3.42187H4l.09375-.34375h-1.0625L3.26563-5c.14062-.54687.28125-.76562.48437-.76562.1875 0 .32813.15625.51563.57812.0625.09375.125.17188.26562.17188.1875 0 .45313-.17188.45313-.39063 0-.35937-.45313-.65625-1-.65625-1.03125 0-1.4375.73438-1.73438 1.78125l-.07812.26563h-.70313l-.10937.34375h.73437L1.125 1.1875c-.07812.40625-.15625.46875-.23437.46875-.07813 0-.21876-.07812-.42188-.40625-.0625-.09375-.125-.20312-.25-.20312-.1875 0-.39062.20312-.39062.42187m0 0"/><path id="n" d="M.375 0h3.26563C6.875 0 7.6875-1.89062 7.6875-3.76562c0-1.73438-.76562-3.5-3.82812-3.5H.375v.29687c.92188.0625.9375.07813.9375.67188v5.32812c0 .59375-.01562.59375-.9375.67188Zm1.98438-1.3125v-5c0-.54687.09375-.59375 1.21875-.59375 2.23437 0 2.9375 1.40625 2.9375 3.1875 0 2.64063-1.29688 3.34375-3.0625 3.34375-.92188 0-1.09375-.125-1.09375-.9375m0 0"/><path id="o" d="M.96875-6.875c0 .375.26563.64063.64063.64063S2.25-6.5 2.25-6.875c0-.39062-.26562-.64062-.64062-.64062s-.64063.25-.64063.64062M.32813 0h2.5625v-.29687c-.75-.0625-.78125-.07813-.78125-.625v-4.29688l-.07813-.0625-1.64062.26563V-4.75l.39062.04688c.26563.04687.34375.09375.34375.46875v3.3125c0 .54687-.03125.5625-.79687.625Zm0 0"/><path id="p" d="M.5-1.75.60938-.375c.375.32813 1.01562.5 1.625.5 1.25 0 1.96875-.65625 1.96875-1.5625 0-.92187-.5625-1.34375-1.65625-1.67187C2.10938-3.25 1.4375-3.46875 1.4375-4.0625c0-.54687.40625-.84375.9375-.84375.75 0 1.10938.57813 1.1875 1.21875h.29688v-1.23437C3.51563-5.1875 2.96875-5.28125 2.5-5.28125 1.35938-5.28125.59375-4.75.59375-3.75c0 .875.71875 1.26563 1.59375 1.53125.46875.15625 1.125.39063 1.125 1.09375 0 .54688-.42187.875-.96875.875C1.48438-.25 1-.85937.79688-1.75Zm0 0"/><path id="q" d="M.32813-4.73437h.75v3.65625C1.07813 0 1.875.125 2.25.125c.53125 0 1.04688-.26562 1.34375-.45312L3.51563-.5625c-.26563.10938-.48438.14063-.75.14063-.35938 0-.70313-.26563-.70313-1.0625v-3.25h1.35938v-.42188H2.0625v-1.32812h-.29687L1.125-5.15625H.32813Zm0 0"/><path id="r" d="M.51563-1.35937C.51563-.57812 1.04688.125 2.03125.125 2.64063.125 3.25-.28125 3.59375-.5c.14063.39063.32813.625.6875.625.39063 0 .84375-.10937 1.25-.3125l-.07812-.25c-.14063.03125-.375.04688-.53125 0-.1875-.04687-.375-.23437-.375-.89062V-3.875c0-.625-.125-1.40625-1.71875-1.40625-1.1875 0-2.125.60938-2.125 1.20313 0 .32812.39062.48437.59375.48437.21874 0 .28124-.10937.34375-.28125.23437-.79687.65625-1.03125 1.07812-1.03125.40625 0 .89063.20313.89063 1.04688v.4375c-.28125.26562-1.29688.53125-2.125.79687-.75.23438-.96875.76563-.96875 1.26563m1.0625-.15626c0-.48437.21874-.75.8125-.96874.42187-.15625.98437-.35938 1.21875-.5V-1.5c0 .84375-.65625 1.0625-1.0625 1.0625-.65625 0-.96875-.45312-.96875-1.07812m0 0"/><path id="s" d="M.32813 0h2.5625v-.29687c-.75-.0625-.78125-.07813-.78125-.625V-3.375c0-.26562.01562-.40625.10937-.57812.21875-.40625.6875-.75 1.25-.75.71875 0 1.10938.39062 1.10938 1.29687v2.48438c0 .54687-.03125.5625-.79688.625V0h2.57813v-.29687c-.75-.0625-.79688-.07813-.79688-.625v-2.6875c0-1.0625-.57812-1.67188-1.54687-1.67188-.78125 0-1.26563.375-1.90625.8125l-.15625-.8125-1.5625.26563V-4.75l.39062.04688c.26563.04687.34375.09375.34375.46875v3.3125c0 .54687-.03125.5625-.79687.625Zm0 0"/><path id="t" d="M.51563-2.53125C.51563-.76562 1.375.125 2.95313.125c.73437 0 1.73437-.375 2.03125-1.51562l-.3125-.14063c-.32813.73438-.75 1.10938-1.51563 1.10938-1.25 0-1.54687-1.3125-1.54687-2.29688 0-1.5625.60937-2.1875 1.34375-2.1875.48437 0 .78125.34375 1 .90625.0625.17188.125.28125.32812.28125.21875 0 .625-.14062.625-.54687 0-.48438-.70312-1.01563-1.84375-1.01563-1.90625 0-2.54687 1.35938-2.54687 2.75m0 0"/><path id="u" d="M.51563-2.54687C.51563-.875 1.23438.125 2.9375.125c1.17188 0 1.76563-.65625 2.04688-1.48437l-.3125-.15626c-.28125.60938-.6875 1.10938-1.51563 1.10938-1.3125 0-1.5625-1.26562-1.54687-2.35937h3.03125c.21875 0 .42187-.04688.42187-.40625 0-.60938-.20312-2.10938-2.125-2.10938-1.65625 0-2.42187 1.17188-2.42187 2.73438m1.10937-.625c0-.4375.15625-1.73438 1.25-1.73438.96875 0 1.07813.98438 1.07813 1.40625 0 .20313-.0625.32813-.34375.32813Zm0 0"/><path id="v" d="M.26563 2.10938v.3125h2.71875v-.3125c-.875-.04688-.95313-.07813-.95313-.60938V-.10937C2.26563.01563 2.76563.125 3.25.125c1.42188 0 2.625-.65625 2.625-2.82812 0-.75-.14062-2.57813-2.04687-2.57813-.78125 0-1.375.51563-1.79688.78125l-.125-.78125-1.59375.26563V-4.75l.40625.04688c.26563.04687.32813.09375.32813.46875V1.5c0 .53125-.04688.5625-.78125.60938m1.76562-3.76563V-3.375c0-.26562.0625-.40625.15625-.59375.23438-.48437.67188-.73437 1.23438-.73437.42187 0 1.35937.26562 1.35937 2.07812 0 1.54688-.48437 2.375-1.53125 2.375-.54687 0-.96875-.28125-1.14062-.75-.0625-.20312-.07813-.40625-.07813-.65625m0 0"/><path id="w" d="M.32813 0h2.78125v-.29687c-.9375-.0625-1-.07813-1-.625V-3.375c0-.8125.35937-1.09375.60937-1.09375.17188 0 .34375.07813.65625.23438.07813.04687.15625.0625.20313.0625.26562 0 .48437-.26563.48437-.59375 0-.23438-.14062-.51563-.5625-.51563-.375 0-.6875.21875-1.39062.84375l-.125-.84375-1.59375.26563V-4.75l.39062.04688c.26563.04687.34375.09375.34375.46875v3.3125c0 .54687-.04687.5625-.79687.625Zm0 0"/><path id="x" d="M.51563-2.57812C.51563-.875 1.35938.125 3.04688.125s2.51562-1 2.51562-2.70312-.82812-2.70313-2.51562-2.70313-2.53125 1-2.53125 2.70313m1.09375 0c0-1.45313.46875-2.32813 1.4375-2.32813.95312 0 1.42187.875 1.42187 2.32813S4-.25 3.04688-.25c-.96875 0-1.4375-.875-1.4375-2.32812m0 0"/><path id="y" d="m.26563-4.75.40625.04688C.9375-4.65625 1-4.60937 1-4.23437v2.78125C1-.25 1.71875.125 2.5.125c.90625 0 1.625-.60937 1.9375-.75L4.53125 0h1.6875v-.29687C5.5-.35937 5.42188-.375 5.42188-.92187v-4.29688l-.07813-.0625-1.64062.26563V-4.75l.40625.04688c.26562.04687.32812.09375.32812.46875v2.375c0 .29687-.03125.53125-.07812.625-.25.48437-.75.79687-1.29688.79687C2.45313-.4375 2-.82812 2-1.64062v-3.57813l-.07812-.0625-1.65625.26563Zm0 0"/><path id="z" d="M.64063-3.125c0 2.375.57812 5.14063 2.8125 5.23438v-.3125c-.75-.15626-1.9375-1.23438-1.9375-4.92188 0-3.65625 1.125-4.73437 1.9375-4.90625v-.3125C1.21875-8.25.64063-5.5.64063-3.125m0 0"/><path id="A" d="M.32813 0h2.5625v-.29687c-.75-.0625-.78125-.07813-.78125-.625V-3.375c0-.26562 0-.42187.07812-.5625.20313-.42187.67188-.76562 1.25-.76562.90625 0 1.01563.65625 1.01563 1.29687v2.48438c0 .54687-.03125.5625-.79688.625V0h2.5625v-.29687c-.75-.0625-.78125-.07813-.78125-.625V-3.375c0-.26562.01563-.40625.07813-.57812.15625-.42188.60937-.75 1.20312-.75.65625 0 1.0625.35937 1.0625 1.29687v2.48438c0 .54687-.04687.5625-.79687.625V0h2.5625v-.29687c-.75-.0625-.78125-.07813-.78125-.625v-2.6875c0-1.0625-.57813-1.67188-1.57813-1.67188-.85937 0-1.46875.57813-1.84375.8125-.25-.5-.65625-.8125-1.39062-.8125-.8125 0-1.46875.53125-1.84375.8125l-.09375-.8125-1.625.26563V-4.75l.39062.04688c.26563.04687.34375.09375.34375.46875v3.3125c0 .54687-.03125.5625-.79687.625Zm0 0"/><path id="B" d="M3.23438-3.125c0-2.375-.57813-5.125-2.8125-5.21875v.3125c.8125.17188 1.92187 1.25 1.92187 4.90625 0 3.6875-1.17187 4.76563-1.92187 4.92188v.3125C2.65625 2.01563 3.23438-.75 3.23438-3.125m0 0"/><path id="C" d="M.23438-5.53125h.3125c.125-1.14062.34375-1.375 1.57812-1.375h.60938v5.9375c0 .59375-.01563.59375-1.14063.67188V0H4.9375v-.29687C3.8125-.375 3.78125-.375 3.78125-.96875v-5.9375h.625c1.23438 0 1.45313.23438 1.57813 1.375h.3125v-1.73437H.23438Zm0 0"/><clipPath id="k"><path d="M57 25h347.10938v200H57Zm0 0"/></clipPath></defs><path fill="none" stroke="#000" stroke-miterlimit="10" stroke-opacity=".5" stroke-width=".3975" d="M50.66797 213.67578h353.44137M50.66797 178.33204h353.44137M50.66797 142.98829h353.44137M50.66797 107.64064h353.44137M50.66797 72.29689h353.44137M50.66797 36.95314h353.44137M68.33984 231.34765V19.28127m35.34375 212.06638V19.28127m35.34375 212.06638V19.28127m35.34374 212.06638V19.28127m35.34765 212.06638V19.28127m35.34375 212.06638V19.28127m35.34375 212.06638V19.28127m35.34374 212.06638V19.28127m35.34375 212.06638V19.28127m35.34375 212.06638V19.28127M68.33984 204.83985v17.67187"/><use xlink:href="#a" x="53.18471" y="229.55623" fill-opacity=".5"/><path fill="none" stroke="#000" stroke-miterlimit="10" stroke-opacity=".5" stroke-width=".3975" d="M103.68359 204.83985v17.67187"/><use xlink:href="#b" x="100.89941" y="226.08299" fill-opacity=".5"/><path fill="none" stroke="#000" stroke-miterlimit="10" stroke-opacity=".5" stroke-width=".3975" d="M139.02734 204.83985v17.67187"/><use xlink:href="#c" x="136.2433" y="226.08299" fill-opacity=".5"/><path fill="none" stroke="#000" stroke-miterlimit="10" stroke-opacity=".5" stroke-width=".3975" d="M174.37108 204.83985v17.67187"/><use xlink:href="#d" x="171.58719" y="226.02214" fill-opacity=".5"/><path fill="none" stroke="#000" stroke-miterlimit="10" stroke-opacity=".5" stroke-width=".3975" d="M209.71873 204.83985v17.67187"/><use xlink:href="#e" x="206.93108" y="226.02214" fill-opacity=".5"/><path fill="none" stroke="#000" stroke-miterlimit="10" stroke-opacity=".5" stroke-width=".3975" d="M245.06248 204.83985v17.67187"/><use xlink:href="#f" x="242.27497" y="225.9603" fill-opacity=".5"/><path fill="none" stroke="#000" stroke-miterlimit="10" stroke-opacity=".5" stroke-width=".3975" d="M280.40623 204.83985v17.67187"/><use xlink:href="#g" x="277.61886" y="226.02214" fill-opacity=".5"/><path fill="none" stroke="#000" stroke-miterlimit="10" stroke-opacity=".5" stroke-width=".3975" d="M315.74997 204.83985v17.67187"/><use xlink:href="#h" x="312.96375" y="225.9603" fill-opacity=".5"/><path fill="none" stroke="#000" stroke-miterlimit="10" stroke-opacity=".5" stroke-width=".3975" d="M351.09372 204.83985v17.67187"/><use xlink:href="#i" x="348.30764" y="226.02214" fill-opacity=".5"/><path fill="none" stroke="#000" stroke-miterlimit="10" stroke-opacity=".5" stroke-width=".3975" d="M386.43747 204.83985v17.67187"/><use xlink:href="#j" x="383.65153" y="226.02214" fill-opacity=".5"/><path fill="none" stroke="#000" stroke-miterlimit="10" stroke-width=".795" d="M50.66797 213.67578h347.28121"/><path stroke="#000" stroke-miterlimit="10" stroke-width=".795" d="M402.10547 213.67578c-.51172-.10547-2.7539-.70703-4.15625-1.35937v2.71875c1.40234-.65235 3.64453-1.2539 4.15625-1.35938Zm0 0"/><path fill="none" stroke="#000" stroke-miterlimit="10" stroke-opacity=".5" stroke-width=".3975" d="M77.17578 178.33204H59.50391"/><g fill-opacity=".5"><use xlink:href="#c" x="50.40173" y="181.84153"/><use xlink:href="#a" x="55.96926" y="181.84153"/></g><path fill="none" stroke="#000" stroke-miterlimit="10" stroke-opacity=".5" stroke-width=".3975" d="M77.17578 142.98829H59.50391"/><g fill-opacity=".5"><use xlink:href="#e" x="50.40173" y="146.49765"/><use xlink:href="#a" x="55.96926" y="146.49765"/></g><path fill="none" stroke="#000" stroke-miterlimit="10" stroke-opacity=".5" stroke-width=".3975" d="M77.17578 107.64064H59.50391"/><g fill-opacity=".5"><use xlink:href="#g" x="50.40173" y="111.15376"/><use xlink:href="#a" x="55.96926" y="111.15376"/></g><path fill="none" stroke="#000" stroke-miterlimit="10" stroke-opacity=".5" stroke-width=".3975" d="M77.17578 72.29689H59.50391"/><g fill-opacity=".5"><use xlink:href="#i" x="50.40173" y="75.80987"/><use xlink:href="#a" x="55.96926" y="75.80987"/></g><path fill="none" stroke="#000" stroke-miterlimit="10" stroke-opacity=".5" stroke-width=".3975" d="M77.17578 36.95314H59.50391"/><g fill-opacity=".5"><use xlink:href="#b" x="47.61775" y="40.46598"/><use xlink:href="#a" x="53.18528" y="40.46598"/><use xlink:href="#a" x="58.75282" y="40.46598"/></g><path fill="none" stroke="#000" stroke-miterlimit="10" stroke-width=".795" d="M68.33984 231.34765V25.44143"/><path stroke="#000" stroke-miterlimit="10" stroke-width=".795" d="M68.33984 21.28906c-.10546.50782-.70703 2.75-1.35937 4.15235h2.71875c-.65235-1.40235-1.2539-3.64453-1.35938-4.15235Zm0 0"/><g clip-path="url(#k)"><path fill="none" stroke="#007F7F" stroke-miterlimit="10" stroke-width=".795" d="M68.33984 213.67578s55.97656-12.76562 70.6875-17.66797c14.71093-4.90234-1.4336 4.39454 35.34374-17.66796C211.15233 156.27735 404.10934 36.9961 404.10934 36.9961"/></g><use xlink:href="#l" x="296.12022" y="80.87609" fill="#007F7F"/><use xlink:href="#m" x="305.64869" y="83.6092" fill="#007F7F"/><use xlink:href="#n" x="4.51442" y="12.48053"/><use xlink:href="#o" x="12.63095" y="12.48053"/><use xlink:href="#p" x="15.68303" y="12.48053"/><use xlink:href="#q" x="20.25556" y="12.48053"/><use xlink:href="#r" x="23.86664" y="12.48053"/><use xlink:href="#s" x="29.35591" y="12.48053"/><use xlink:href="#t" x="35.85137" y="12.48053"/><use xlink:href="#u" x="41.06115" y="12.48053"/><use xlink:href="#v" x="48.81992" y="12.48053"/><use xlink:href="#r" x="55.20358" y="12.48053"/><use xlink:href="#w" x="60.69286" y="12.48053"/><use xlink:href="#t" x="64.56106" y="12.48053"/><use xlink:href="#x" x="69.77085" y="12.48053"/><use xlink:href="#y" x="75.83029" y="12.48053"/><use xlink:href="#w" x="82.19159" y="12.48053"/><use xlink:href="#y" x="86.36165" y="12.48053"/><use xlink:href="#u" x="92.72295" y="12.48053"/><use xlink:href="#z" x="100.48172" y="12.48053"/><use xlink:href="#u" x="104.34993" y="12.48053"/><use xlink:href="#s" x="109.74977" y="12.48053"/><use xlink:href="#A" x="118.60416" y="12.48053"/><use xlink:href="#B" x="128.29704" y="12.48053"/><use xlink:href="#C" x="408.49589" y="216.6378"/><use xlink:href="#u" x="413.96281" y="216.6378"/><use xlink:href="#A" x="419.36264" y="216.6378"/><use xlink:href="#v" x="429.05552" y="216.6378"/><use xlink:href="#p" x="435.43918" y="216.6378"/><use xlink:href="#z" x="442.37065" y="216.6378"/><use xlink:href="#u" x="446.23886" y="216.6378"/><use xlink:href="#s" x="451.63869" y="216.6378"/><use xlink:href="#p" x="460.49309" y="216.6378"/><use xlink:href="#u" x="465.06562" y="216.6378"/><use xlink:href="#t" x="470.46546" y="216.6378"/><use xlink:href="#B" x="475.67524" y="216.6378"/></svg>