<svg xmlns="http://www.w3.org/2000/svg" xmlns:xlink="http://www.w3.org/1999/xlink" width="503.91pt" height="248.465pt" viewBox="0 0 503.91 248.465"><defs><path id="a" d="M.5-4.0625C.5-1.625 1.21875.14063 3.21875.14063S5.9375-1.625 5.9375-4.0625c0-2.42187-.71875-4.1875-2.71875-4.1875S.5-6.48437.5-4.0625m1.23438 0c0-1.96875.32812-3.76562 1.48437-3.76562S4.70313-6.03125 4.70313-4.0625c0 1.98438-.32813 3.78125-1.48438 3.78125S1.73438-2.07812 1.73438-4.0625m0 0"/><path id="m" d="M.40625-6.0625c0 1.0625 1.04688 1.90625 3.48438 1.90625-.40625.70313-.70313 1.4375-.70313 2.25 0 1.32813.84375 2.04688 2.375 2.04688 1.48438 0 3.03125-1.07813 3.03125-2.45313 0-.82812-.6875-1.28125-1.54687-1.28125-.95313 0-2.07813 1.07813-2.07813 1.92188 0 .26562.1875.75.54688.75.10937 0 .25-.07813.25-.1875 0-.15626-.28125-.17188-.28125-.54688 0-.59375.85937-1.54687 1.5625-1.54687.48437 0 .78125.1875.78125.67187C7.82813-1.45312 6.79688-.25 5.5625-.25c-.89062 0-1.34375-.46875-1.34375-1.28125 0-.89062.64063-1.95312 1.125-2.73437 2.6875-.40625 5.34375-1.75 5.34375-3.4375 0-.64063-.51562-1.07813-1.21875-1.07813-1.59375 0-4.01562 2.0625-5.34375 4.1875-1.09375 0-2.89062-.03125-2.89062-1.32812 0-1.1875 1.45312-2.10938 2.35937-2.10938.17188 0 .25-.09375.25-.20312 0-.09375-.07812-.17188-.1875-.17188-1.35937 0-3.25.90625-3.25 2.34375M5.57813-4.75c.89062-1.5625 2.78125-3.64062 3.89062-3.64062.42188 0 .71875.25.71875.65625 0 1.34375-2.125 2.59375-4.60937 2.98437m0 0"/><path id="b" d="M1.1875 0h3.59375v-.3125l-.92187-.07812C3.625-.42187 3.5-.5 3.5-.9375V-7.375l-.0625-.04687-2.25.375v.26562l1.01563.125c.1875.03125.26562.10938.26562.42188V-.9375c0 .4375-.10937.51563-.35937.54688L1.1875-.3125Zm0 0"/><path id="c" d="M.29688-.10937.40625 0h4.51563l.375-1.4375L5-1.5c-.23437.59375-.45312.67188-.89062.67188H1.3125c.17188-.5625.82813-1.34375 1.84375-2.07813 1.04688-.76562 1.85938-1.25 1.85938-2.46875 0-1.53125-1.01563-2.04687-2.17188-2.04687-1.5 0-2.26562.90625-2.26562 1.46875 0 .375.42187.54687.60937.54687.20313 0 .26563-.10937.3125-.29687.17188-.75.60938-1.34375 1.28125-1.34375.82813 0 1.07813.70312 1.07813 1.5 0 1.17187-.59375 1.84375-1.54688 2.67187C.96875-1.70312.5-.95312.29688-.10937m0 0"/><path id="d" d="M.29688-1.10937c0 .45312.75 1.23437 2.29687 1.23437 1.57813 0 2.57813-.79687 2.57813-2.1875 0-1.46875-1.25-1.90625-1.85938-1.95312v-.04688c.59375-.09375 1.53125-.54687 1.53125-1.625 0-1.20312-.9375-1.73437-2.10937-1.73437-1.4375 0-2.15625.82812-2.15625 1.29687 0 .32813.39062.51563.53125.51563s.23437-.07813.28124-.21875c.23438-.73438.64063-1.21875 1.26563-1.21875.85938 0 1.07813.75 1.07813 1.375 0 .65625-.23438 1.46875-1.17188 1.46875-.51562 0-.8125-.09375-.95312-.09375-.14063 0-.1875.09375-.1875.29687 0 .1875.04687.29688.1875.29688.14062 0 .4375-.09375.95312-.09375.9375 0 1.45313.82812 1.45313 1.78125 0 1.3125-.625 1.76562-1.40625 1.76562-.71875 0-1.20313-.54687-1.40625-1.15625-.07813-.20312-.1875-.3125-.32813-.3125-.20312 0-.57812.20313-.57812.60938m0 0"/><path id="e" d="m.20313-2.1875.09375.23438h2.98437v1.10937c0 .375-.125.4375-.39062.45313l-.6875.07812V0h2.875v-.3125L4.59375-.375c-.25-.03125-.32812-.09375-.32812-.46875v-1.10937H5.375v-.51563H4.26563v-4.82812h-.79688C2.4375-5.79687 1.20313-3.89062.20313-2.1875M1-2.46875C1.65625-3.65625 2.4375-4.92187 3.28125-6.25v3.78125Zm0 0"/><path id="f" d="M.4375-1.10937c0 .5.76563 1.23437 2.1875 1.23437C4.42188.125 5.25-.96875 5.25-2.34375c0-1.53125-.95312-2.3125-2.26562-2.3125-.59375 0-1.26563.26563-1.60938.57813l.23438-2.07813c.04687-.26562.10937-.3125.32812-.3125h2.71875l.26563-.73437-.0625-.09375H1.20313l-.09376.09375-.21874 3.65625.26562.14062c.45313-.51562.89063-.78125 1.48438-.78125.70312 0 1.46875.51563 1.46875 1.95313 0 1.125-.45313 1.98437-1.40625 1.98437-.76563 0-1.15625-.54687-1.375-1.1875-.0625-.15625-.17188-.26562-.3125-.26562-.21876 0-.57813.23437-.57813.59375m0 0"/><path id="g" d="M.48438-3.375c0 2.35938.85937 3.5 2.48437 3.5s2.48438-.96875 2.48438-2.46875c0-1.46875-.90625-2.26562-2.07813-2.26562-.85937 0-1.5.57812-1.79687.9375.01562-2.40625.67187-3.375 1.67187-3.375.5 0 .85938.42187 1.01563 1.04687.03125.125.10937.23438.28125.23438.25 0 .57812-.20313.57812-.5 0-.4375-.53125-1.15625-1.84375-1.15625-1.73437 0-2.79687 1.32812-2.79687 4.04687m1.09375.79688c0-.67188.5-1.48438 1.42187-1.48438.6875 0 1.35938.64063 1.35938 1.89063C4.35938-1.01562 3.92188-.25 3-.25c-.95312 0-1.42187-1.01562-1.42187-2.32812m0 0"/><path id="h" d="M.45313-5.76562H.75L.84375-6c.14063-.29687.29688-.46875.78125-.46875h2.95313c-.10938.40625-.3125 1.03125-1.1875 2.29688-.95313 1.34375-1.5625 2.5625-1.5625 3.85937 0 .35938.25.4375.59375.4375.29687 0 .51562-.0625.51562-.42187 0-1.67188.29688-2.67188.82813-3.60938C4.46875-5.125 5.04688-5.8125 5.42188-7.1875l-.09375-.10937H.79688Zm0 0"/><path id="i" d="M.45313-1.98437C.45313-.89062 1.125.125 2.89063.125c1.76562 0 2.4375-1.01562 2.4375-2.10937 0-1.125-.6875-1.76563-1.4375-1.9375.67187-.1875 1.20312-.75 1.20312-1.64063 0-1.1875-.9375-1.85937-2.20312-1.85937-1.25 0-2.1875.67187-2.1875 1.85937 0 .89063.54687 1.45313 1.20312 1.64063-.73437.17187-1.45312.8125-1.45312 1.9375m1.09375.03124c0-1 .46875-1.75 1.34375-1.75s1.35937.75 1.35937 1.75C4.25-.98436 3.8125-.25 2.89063-.25c-.92188 0-1.34375-.73437-1.34375-1.70312M1.75-5.59374c0-.82812.40625-1.45312 1.14063-1.45312.75 0 1.14062.625 1.14062 1.45312 0 .75-.34375 1.5-1.14062 1.5-.78125 0-1.14063-.75-1.14063-1.5m0 0"/><path id="j" d="M.39063-4.96875c0 1.48438.90625 2.28125 2.07812 2.28125.875 0 1.5-.57812 1.79688-.9375C4.25-1.21875 3.59375-.25 2.60938-.25c-.5 0-.85938-.42187-1.03125-1.04687-.03126-.14063-.10938-.23438-.28126-.23438-.23437 0-.57812.1875-.57812.5C.71875-.59375 1.25.125 2.5625.125c1.73438 0 2.8125-1.32812 2.8125-4.04687 0-2.375-.85937-3.5-2.5-3.5-1.625 0-2.48437.96875-2.48437 2.45312M1.48438-5.125c0-1.15625.45312-1.92187 1.35937-1.92187.95313 0 1.42188 1.01562 1.42188 2.32812 0 .65625-.5 1.46875-1.42188 1.46875-.6875 0-1.35937-.625-1.35937-1.875m0 0"/><path id="k" d="M.45313-3.65625c0 2.1875.64062 3.78125 2.4375 3.78125 1.8125 0 2.45312-1.59375 2.45312-3.78125 0-2.17187-.64062-3.76562-2.45312-3.76562-1.79688 0-2.4375 1.59375-2.4375 3.76562m1.10937 0c0-1.76562.29688-3.39062 1.32813-3.39062s1.34375 1.625 1.34375 3.39062C4.23438-1.875 3.92188-.25 2.89063-.25S1.5625-1.875 1.5625-3.65625m0 0"/><path id="n" d="M-.1875 1.53125c.01563.29688.375.51563.84375.51563.875 0 1.28125-.70313 1.64063-2.29688l.79687-3.5625h1.0625L4.25-4.17187H3.14063l.26562-1.03125c.14063-.5625.28125-.78125.5-.78125.1875 0 .34375.15625.53125.59375.0625.09375.125.17187.28125.17187.1875 0 .45313-.17187.45313-.40625 0-.375-.46875-.6875-1.03125-.6875-1.0625 0-1.5.78125-1.8125 1.85938L2.25-4.17187h-.73437l-.10938.35937h.76563l-1 5.04688c-.07813.4375-.15626.5-.23438.5-.09375 0-.23437-.09376-.45312-.4375-.0625-.09376-.125-.21876-.25-.21876-.20313 0-.42188.21876-.42188.45313m0 0"/><path id="o" d="M.39063 0h3.40625c3.35937 0 4.1875-1.96875 4.1875-3.92187 0-1.78125-.78125-3.64063-3.96875-3.64063h-3.625v.3125c.95312.07813.98437.09375.98437.70313v5.53125c0 .625-.03125.625-.98437.70312Zm2.0625-1.375v-5.1875c0-.5625.09375-.625 1.26562-.625 2.3125 0 3.04688 1.46875 3.04688 3.3125 0 2.76563-1.34375 3.48438-3.1875 3.48438-.95313 0-1.125-.125-1.125-.98438m0 0"/><path id="p" d="M1-7.15625c0 .40625.28125.6875.67188.6875.39062 0 .67187-.28125.67187-.6875 0-.39062-.28125-.65625-.67187-.65625-.39063 0-.67188.26563-.67188.65625M.34375 0h2.67188v-.3125c-.78125-.0625-.8125-.07812-.8125-.64062v-4.46875l-.09375-.0625-1.70313.28125v.26562l.40625.0625c.28125.03125.35938.07813.35938.48438v3.4375c0 .5625-.03126.57812-.82813.64062Zm0 0"/><path id="q" d="M.51563-1.82812.625-.39062C1.01563-.04687 1.6875.125 2.32813.125 3.625.125 4.375-.5625 4.375-1.48437c0-.96875-.59375-1.40625-1.71875-1.75-.45312-.14063-1.17187-.375-1.17187-.98438 0-.57812.4375-.89062.98437-.89062.78125 0 1.14063.60937 1.23438 1.26562h.3125v-1.26562c-.35938-.26563-.92188-.375-1.40625-.375-1.1875 0-2 .5625-2 1.59375 0 .90625.75 1.3125 1.65625 1.59375.48437.14062 1.17187.39062 1.17187 1.14062 0 .54688-.42187.90625-1.01562.90625-.875 0-1.375-.64062-1.59375-1.57812Zm0 0"/><path id="r" d="M.34375-4.92187H1.125v3.8125C1.125 0 1.95313.125 2.34375.125c.54688 0 1.07813-.28125 1.39063-.46875l-.07813-.23437c-.26562.09374-.5.14062-.78125.14062-.375 0-.71875-.26562-.71875-1.09375v-3.39062H3.5625v-.4375H2.15625v-1.375h-.3125l-.67187 1.375H.34375Zm0 0"/><path id="s" d="M.53125-1.42187c0 .8125.54688 1.54687 1.57813 1.54687.64062 0 1.28125-.42187 1.625-.64062.14062.40625.32812.64062.71875.64062.40625 0 .875-.10937 1.29687-.32812l-.07812-.25c-.15625.03125-.39063.04687-.5625 0-.1875-.04688-.375-.25-.375-.9375v-2.64063c0-.64062-.14063-1.45312-1.79688-1.45312-1.23437 0-2.20312.64062-2.20312 1.23437 0 .35938.40625.51563.60937.51563.23438 0 .29688-.10938.35938-.29688.23437-.8125.6875-1.07812 1.125-1.07812.42187 0 .92187.23437.92187 1.09375v.45312c-.28125.28125-1.34375.5625-2.20312.84375C.75-2.46875.53125-1.9375.53125-1.42187m1.10938-.14063c0-.51562.23437-.78125.84375-1.01562C2.92188-2.75 3.5-2.95312 3.75-3.10937v1.54687c0 .89063-.6875 1.10938-1.10937 1.10938-.67188 0-1-.48438-1-1.10938m0 0"/><path id="t" d="M.34375 0h2.67188v-.3125c-.78125-.0625-.8125-.07812-.8125-.64062v-2.5625c0-.28125 0-.40625.09375-.59375.23437-.42188.71875-.78125 1.3125-.78125.73437 0 1.14062.40625 1.14062 1.35937v2.57813c0 .5625-.03125.57812-.82812.64062V0h2.6875v-.3125c-.78125-.0625-.82813-.07812-.82813-.64062V-3.75c0-1.09375-.60937-1.73437-1.60937-1.73437-.8125 0-1.3125.39062-1.98438.82812l-.15625-.82812-1.625.28125v.26562l.40625.0625c.28125.03125.35938.07813.35938.48438v3.4375c0 .5625-.03126.57812-.82813.64062Zm0 0"/><path id="u" d="M.53125-2.625c0 1.82813.90625 2.75 2.53125 2.75.78125 0 1.8125-.39062 2.10938-1.5625l-.32813-.15625C4.51563-.82812 4.07813-.4375 3.28125-.4375c-1.3125 0-1.60937-1.35937-1.60937-2.39062 0-1.625.64062-2.28125 1.39062-2.28125.5 0 .8125.35937 1.04688.95312.0625.1875.14062.28125.34375.28125.21875 0 .64062-.14062.64062-.54687 0-.5-.71875-1.0625-1.90625-1.0625-1.98437 0-2.65625 1.40625-2.65625 2.85937m0 0"/><path id="v" d="M.53125-2.64062c0 1.73437.75 2.76562 2.53125 2.76562 1.20313 0 1.82813-.67187 2.125-1.53125l-.32812-.17187C4.5625-.9375 4.14063-.4375 3.28125-.4375c-1.35937 0-1.625-1.29687-1.60937-2.4375h3.15625c.23437 0 .42187-.04687.42187-.42187 0-.625-.20312-2.1875-2.20312-2.1875-1.70313 0-2.51563 1.20312-2.51563 2.84375m1.15625-.65625c0-.45313.15625-1.8125 1.29688-1.8125 1.01562 0 1.125 1.04687 1.125 1.46875 0 .21875-.0625.34375-.35938.34375Zm0 0"/><path id="w" d="M.28125 2.20313v.3125h2.82813v-.3125c-.92188-.0625-1-.09375-1-.64063V-.10937C2.34375.01563 2.875.125 3.375.125c1.46875 0 2.73438-.67187 2.73438-2.92187 0-.78125-.14063-2.6875-2.14063-2.6875-.79687 0-1.42187.53125-1.85937.8125l-.14063-.8125-1.64062.28125v.26562L.75-4.875c.26563.03125.34375.07813.34375.48438V1.5625c0 .54688-.04687.57813-.8125.64063m1.82813-3.92188v-1.79687c0-.28125.0625-.40625.15625-.60938.25-.5.70312-.76562 1.29687-.76562.4375 0 1.40625.28125 1.40625 2.15625C4.96875-1.125 4.46875-.25 3.375-.25c-.57812 0-1-.29687-1.17187-.79687-.07813-.20313-.09375-.42188-.09375-.67188m0 0"/><path id="x" d="M.34375 0h2.89063v-.3125C2.25-.375 2.20313-.39062 2.20313-.95312v-2.5625c0-.82813.35937-1.125.625-1.125.17187 0 .35937.07812.67187.25.07813.04687.15625.04687.21875.04687.26563 0 .5-.26562.5-.60937 0-.25-.15625-.53125-.57812-.53125-.39063 0-.71875.23437-1.4375.875l-.14063-.875-1.65625.28125v.26562l.40625.0625c.28125.03125.35938.07813.35938.48438v3.4375c0 .5625-.0625.57812-.82813.64062Zm0 0"/><path id="y" d="M.53125-2.67187c0 1.76562.875 2.79687 2.625 2.79687 1.76563 0 2.625-1.03125 2.625-2.79687s-.85937-2.8125-2.625-2.8125c-1.75 0-2.625 1.04687-2.625 2.8125m1.14063 0c0-1.51563.48437-2.4375 1.48437-2.4375s1.5.92187 1.5 2.4375c0 1.51562-.5 2.42187-1.5 2.42187s-1.48437-.90625-1.48437-2.42187m0 0"/><path id="z" d="m.28125-4.9375.42188.0625c.26562.03125.34375.07813.34375.48438v2.875c0 1.26562.75 1.64062 1.5625 1.64062.92187 0 1.6875-.625 2-.78125L4.70313 0h1.76562v-.3125c-.76562-.0625-.82812-.07812-.82812-.64062v-4.46875l-.07813-.0625-1.71875.28125v.26562l.42188.0625c.28125.03125.34375.07813.34375.48438v2.45312c0 .3125-.03125.54688-.09375.65625-.25.5-.76563.82813-1.32813.82813-.64062 0-1.10937-.40625-1.10937-1.25v-3.71875L2-5.48437l-1.71875.28125Zm0 0"/><path id="A" d="M.65625-3.25c0 2.46875.60938 5.34375 2.92188 5.4375v-.32812c-.78125-.15626-2-1.28125-2-5.10938 0-3.79687 1.17187-4.92187 2-5.09375v-.32812C1.26563-8.57812.65625-5.70312.65625-3.25m0 0"/><path id="B" d="M.34375 0h2.67188v-.3125c-.78125-.0625-.8125-.07812-.8125-.64062v-2.5625c0-.28125 0-.42188.07812-.57813.20313-.4375.6875-.79687 1.28125-.79687.95313 0 1.0625.6875 1.0625 1.35937v2.57813c0 .5625-.03125.57812-.82812.64062V0h2.67187v-.3125c-.78125-.0625-.8125-.07812-.8125-.64062v-2.5625c0-.28125 0-.40625.07813-.59375.15625-.4375.625-.78125 1.23437-.78125.6875 0 1.10938.375 1.10938 1.35937v2.57813c0 .5625-.03125.57812-.82813.64062V0h2.67188v-.3125c-.76563-.0625-.8125-.07812-.8125-.64062V-3.75c0-1.09375-.59375-1.73437-1.64063-1.73437-.89062 0-1.53125.59375-1.90625.82812-.26562-.5-.6875-.82812-1.45312-.82812-.84375 0-1.53125.5625-1.90625.82812l-.10938-.82812-1.6875.28125v.26562l.40625.0625c.28125.03125.35938.07813.35938.48438v3.4375c0 .5625-.03126.57812-.82813.64062Zm0 0"/><path id="C" d="M3.35938-3.25c0-2.45312-.60938-5.32812-2.92188-5.42187v.32812c.84375.17188 2 1.29688 2 5.09375 0 3.82813-1.21875 4.95313-2 5.10938v.32812C2.75 2.09375 3.35938-.78125 3.35938-3.25m0 0"/><path id="D" d="M.25-5.75h.3125c.14063-1.17187.375-1.4375 1.64063-1.4375h.64062v6.17188c0 .625-.01562.625-1.1875.70312V0h3.48438v-.3125c-1.17188-.07812-1.21875-.07812-1.21875-.70312V-7.1875h.65625c1.28125 0 1.51562.26563 1.64062 1.4375h.32813v-1.8125H.25Zm0 0"/><clipPath id="l"><path d="M59 27h361.53906v207H59Zm0 0"/></clipPath></defs><path fill="none" stroke="#7f7f7f" stroke-dasharray=".39764322500000004 .994137998" stroke-miterlimit="10" stroke-width=".39764" d="M71.20703 222.30469h349.33189M71.20703 185.53127h349.33189M71.20703 148.76175h349.33189M71.20703 111.98833h349.33189M71.20703 75.2188h349.33189M71.20703 38.4454h349.33189M71.20703 222.30469V20.05868m36.77342 202.246v-202.246m36.76952 202.246v-202.246m36.77342 202.246v-202.246m36.76952 202.246v-202.246m36.77342 202.246v-202.246m36.76952 202.246v-202.246m36.77342 202.246v-202.246m36.77342 202.246v-202.246m36.76952 202.246v-202.246"/><use xlink:href="#a" x="55.11883" y="239.23288" fill="#7f7f7f"/><path fill="none" stroke="#7f7f7f" stroke-miterlimit="10" stroke-width=".39764" d="M107.98045 213.11329v18.3828"/><use xlink:href="#b" x="105.08225" y="243.4957" fill="#7f7f7f"/><path fill="none" stroke="#7f7f7f" stroke-miterlimit="10" stroke-width=".39764" d="M144.74997 213.11329v18.3828"/><use xlink:href="#c" x="141.85307" y="243.4957" fill="#7f7f7f"/><path fill="none" stroke="#7f7f7f" stroke-miterlimit="10" stroke-width=".39764" d="M181.5234 213.11329v18.3828"/><use xlink:href="#d" x="178.6249" y="243.4957" fill="#7f7f7f"/><path fill="none" stroke="#7f7f7f" stroke-miterlimit="10" stroke-width=".39764" d="M218.2929 213.11329v18.3828"/><use xlink:href="#e" x="215.39572" y="243.36798" fill="#7f7f7f"/><path fill="none" stroke="#7f7f7f" stroke-miterlimit="10" stroke-width=".39764" d="M255.06633 213.11329v18.3828"/><use xlink:href="#f" x="252.16654" y="243.36798" fill="#7f7f7f"/><path fill="none" stroke="#7f7f7f" stroke-miterlimit="10" stroke-width=".39764" d="M291.83585 213.11329v18.3828"/><use xlink:href="#g" x="288.93837" y="243.4957" fill="#7f7f7f"/><path fill="none" stroke="#7f7f7f" stroke-miterlimit="10" stroke-width=".39764" d="M328.60927 213.11329v18.3828"/><use xlink:href="#h" x="325.70919" y="243.36798" fill="#7f7f7f"/><path fill="none" stroke="#7f7f7f" stroke-miterlimit="10" stroke-width=".39764" d="M365.3827 213.11329v18.3828"/><use xlink:href="#i" x="362.48101" y="243.4957" fill="#7f7f7f"/><path fill="none" stroke="#7f7f7f" stroke-miterlimit="10" stroke-width=".39764" d="M402.1522 213.11329v18.3828"/><use xlink:href="#j" x="399.25184" y="243.4957" fill="#7f7f7f"/><path fill="none" stroke="#000" stroke-miterlimit="10" stroke-width=".7953" d="M52.82032 222.30469h361.55454"/><path stroke="#000" stroke-miterlimit="10" stroke-width=".7953" d="M418.53125 222.30469c-.51172-.10547-2.7539-.70703-4.15625-1.36328v2.72265c1.40234-.65234 3.64453-1.2539 4.15625-1.35937Zm0 0"/><path fill="none" stroke="#7f7f7f" stroke-miterlimit="10" stroke-width=".39764" d="M80.39843 185.53127h-18.3828"/><g fill="#7f7f7f"><use xlink:href="#c" x="45.86376" y="189.18564"/><use xlink:href="#k" x="51.65612" y="189.18564"/></g><path fill="none" stroke="#7f7f7f" stroke-miterlimit="10" stroke-width=".39764" d="M80.39843 148.76175h-18.3828"/><g fill="#7f7f7f"><use xlink:href="#e" x="45.86376" y="152.41482"/><use xlink:href="#k" x="51.65612" y="152.41482"/></g><path fill="none" stroke="#7f7f7f" stroke-miterlimit="10" stroke-width=".39764" d="M80.39843 111.98833h-18.3828"/><g fill="#7f7f7f"><use xlink:href="#g" x="45.86376" y="115.64299"/><use xlink:href="#k" x="51.65612" y="115.64299"/></g><path fill="none" stroke="#7f7f7f" stroke-miterlimit="10" stroke-width=".39764" d="M80.39843 75.21881h-18.3828"/><g fill="#7f7f7f"><use xlink:href="#i" x="45.86376" y="78.87217"/><use xlink:href="#k" x="51.65612" y="78.87217"/></g><path fill="none" stroke="#7f7f7f" stroke-miterlimit="10" stroke-width=".39764" d="M80.39843 38.44539h-18.3828"/><g fill="#7f7f7f"><use xlink:href="#b" x="40.07123" y="42.10035"/><use xlink:href="#k" x="45.86359" y="42.10035"/><use xlink:href="#k" x="51.65596" y="42.10035"/></g><path fill="none" stroke="#000" stroke-miterlimit="10" stroke-width=".7953" d="M71.20703 240.6914V26.22274"/><path stroke="#000" stroke-miterlimit="10" stroke-width=".7953" d="M71.20703 22.0664c-.10547.51173-.70703 2.75391-1.35937 4.15626h2.72265c-.65625-1.40235-1.25781-3.64453-1.36328-4.15625Zm0 0"/><g clip-path="url(#l)"><path fill="none" stroke="#007f7f" stroke-miterlimit="10" stroke-width=".7953" d="M71.20703 222.30469s58.23826-13.27734 73.54294-18.3789c15.30859-5.09766-1.49219 4.57031 36.77342-18.3789S420.53892 38.52351 420.53892 38.52351"/></g><use xlink:href="#m" x="308.18692" y="84.14282" fill="#007f7f"/><use xlink:href="#n" x="318.09888" y="86.9863" fill="#007f7f"/><use xlink:href="#o" x="4.80417" y="12.98404"/><use xlink:href="#p" x="13.24846" y="12.98404"/><use xlink:href="#q" x="16.42379" y="12.98404"/><use xlink:href="#r" x="21.18097" y="12.98404"/><use xlink:href="#s" x="24.93786" y="12.98404"/><use xlink:href="#t" x="30.64881" y="12.98404"/><use xlink:href="#u" x="37.40656" y="12.98404"/><use xlink:href="#v" x="42.82672" y="12.98404"/><use xlink:href="#w" x="50.89881" y="12.98404"/><use xlink:href="#s" x="57.54026" y="12.98404"/><use xlink:href="#x" x="63.2512" y="12.98404"/><use xlink:href="#u" x="67.27561" y="12.98404"/><use xlink:href="#y" x="72.69577" y="12.98404"/><use xlink:href="#z" x="78.99991" y="12.98404"/><use xlink:href="#x" x="85.61809" y="12.98404"/><use xlink:href="#z" x="89.95655" y="12.98404"/><use xlink:href="#v" x="96.57473" y="12.98404"/><use xlink:href="#A" x="104.64682" y="12.98404"/><use xlink:href="#v" x="108.67123" y="12.98404"/><use xlink:href="#t" x="114.28912" y="12.98404"/><use xlink:href="#B" x="123.50107" y="12.98404"/><use xlink:href="#C" x="133.58536" y="12.98404"/><use xlink:href="#D" x="425.10018" y="225.38669"/><use xlink:href="#v" x="430.78786" y="225.38669"/><use xlink:href="#B" x="436.40575" y="225.38669"/><use xlink:href="#w" x="446.49005" y="225.38669"/><use xlink:href="#q" x="453.13149" y="225.38669"/><use xlink:href="#A" x="460.34287" y="225.38669"/><use xlink:href="#v" x="464.36728" y="225.38669"/><use xlink:href="#t" x="469.98517" y="225.38669"/><use xlink:href="#q" x="479.19712" y="225.38669"/><use xlink:href="#v" x="483.9543" y="225.38669"/><use xlink:href="#u" x="489.5722" y="225.38669"/><use xlink:href="#C" x="494.99236" y="225.38669"/></svg>