<svg xmlns="http://www.w3.org/2000/svg" xmlns:xlink="http://www.w3.org/1999/xlink" width="775.245pt" height="375.055pt" viewBox="0 0 775.245 375.055"><defs><path id="a" d="M1.82813 0h5.53125v-.48437l-1.42188-.125c-.35937-.03126-.54687-.15626-.54687-.82813v-9.90625l-.09375-.09375-3.46875.59375v.40625l1.57812.20313c.28125.03125.39063.15625.39063.64062v8.15625c0 .67188-.17188.79688-.5625.82813l-1.40625.125Zm0 0"/><path id="b" d="M.45313-.15625.625 0h6.95313l.57812-2.21875-.46875-.09375C7.32813-1.39062 7-1.26562 6.3125-1.26562H2.01563c.28125-.875 1.28125-2.07813 2.82812-3.20313 1.60938-1.1875 2.85938-1.9375 2.85938-3.8125 0-2.34375-1.54688-3.15625-3.3125-3.15625-2.3125 0-3.5 1.40625-3.5 2.28125 0 .5625.64062.84375.9375.84375.29687 0 .40625-.1875.48437-.46875.26563-1.14062.92188-2.0625 1.96875-2.0625 1.28125 0 1.65625 1.07813 1.65625 2.3125 0 1.79688-.90625 2.82813-2.375 4.10938C1.48438-2.60937.76563-1.46875.45313-.15625m0 0"/><path id="c" d="M.45313-1.71875C.45313-1 1.60938.20313 3.98438.20313c2.4375 0 3.98437-1.23438 3.98437-3.39063 0-2.25-1.9375-2.90625-2.875-3v-.07812c.92188-.14063 2.35938-.8125 2.35938-2.48438 0-1.85937-1.4375-2.6875-3.25-2.6875-2.21875 0-3.3125 1.29688-3.3125 2.01563 0 .51562.59375.79687.82812.79687.21875 0 .34375-.125.40625-.34375.375-1.14062 1-1.875 1.95313-1.875 1.32812 0 1.67187 1.17188 1.67187 2.10938 0 1-.35937 2.28125-1.79687 2.28125-.79688 0-1.26563-.17188-1.46875-.17188-.21875 0-.29688.17188-.29688.46875 0 .28125.07813.46875.29688.46875.20312 0 .67187-.15625 1.46875-.15625 1.4375 0 2.23437 1.28125 2.23437 2.75 0 2-.98437 2.70313-2.1875 2.70313-1.10937 0-1.82812-.82813-2.15625-1.78125-.10937-.3125-.26562-.46875-.5-.46875-.3125 0-.89062.3125-.89062.92187m0 0"/><path id="d" d="M.32813-3.35937.46875-3h4.57813v1.71875c0 .5625-.1875.65625-.59375.6875L3.375-.48437V0h4.4375v-.48437l-.75-.09375c-.39062-.04688-.5-.14063-.5-.70313V-3h1.71875v-.79687H6.5625v-7.4375H5.32813C3.75-8.90625 1.85938-6 .32813-3.35937m1.20312-.4375C2.54688-5.625 3.75-7.5625 5.04688-9.60937v5.8125Zm0 0"/><path id="e" d="M.6875-1.71875c0 .76563 1.17188 1.92188 3.35938 1.92188 2.76562 0 4.01562-1.6875 4.01562-3.8125 0-2.35938-1.45312-3.5625-3.46875-3.5625-.92187 0-1.95312.40625-2.48437.89062l.375-3.1875c.0625-.42187.15625-.48437.48437-.48437h4.1875l.40625-1.14063-.07812-.14062h-5.625l-.15626.15625-.34374 5.625.40625.21875c.70312-.8125 1.39062-1.20313 2.29687-1.20313 1.07813 0 2.25.78125 2.25 3 0 1.73438-.6875 3.04688-2.15625 3.04688-1.1875 0-1.78125-.84375-2.10937-1.8125-.09375-.25-.25-.40625-.48438-.40625-.34375 0-.875.34375-.875.89062m0 0"/><path id="f" d="M.73438-5.1875c0 3.625 1.32812 5.39063 3.84375 5.39063 2.48437 0 3.8125-1.51563 3.8125-3.79688S7-7.10937 5.1875-7.10937c-1.32812 0-2.3125.90625-2.75 1.45312.01563-3.70312 1.03125-5.1875 2.54688-5.1875.78125 0 1.32812.64063 1.57812 1.60938.0625.20312.1875.35937.4375.35937.375 0 .89063-.29687.89063-.76562 0-.6875-.82813-1.79688-2.84375-1.79688-2.67188 0-4.3125 2.0625-4.3125 6.25M2.4375-3.96875c0-1.01562.76563-2.28125 2.17188-2.28125 1.0625 0 2.09375.96875 2.09375 2.90625 0 1.76563-.67188 2.95313-2.09375 2.95313-1.45313 0-2.17188-1.5625-2.17188-3.57813m0 0"/><path id="g" d="M.70313-8.875h.4375l.17187-.35937c.20313-.46875.4375-.71875 1.1875-.71875h4.54688c-.15625.60937-.48438 1.57812-1.84375 3.53125C3.75-4.34375 2.8125-2.46875 2.8125-.48437c0 .5625.39063.6875.90625.6875.46875 0 .8125-.10938.8125-.65625 0-2.57813.4375-4.125 1.26563-5.5625 1.07812-1.875 1.96875-2.9375 2.5625-5.04688l-.14063-.17187h-7Zm0 0"/><path id="h" d="M.70313-3.0625c0 1.70313 1.03125 3.26563 3.75 3.26563s3.76562-1.5625 3.76562-3.26563c0-1.71875-1.07812-2.71875-2.21875-2.98437C7.01563-6.3125 7.84375-7.1875 7.84375-8.5625c0-1.82812-1.45312-2.875-3.39062-2.875s-3.375 1.04688-3.375 2.875c0 1.375.85937 2.25 1.85937 2.51563C1.8125-5.78125.70313-4.78125.70313-3.0625M2.375-3c0-1.54687.73438-2.6875 2.07813-2.6875S6.53125-4.54687 6.53125-3c0 1.48438-.65625 2.60938-2.07812 2.60938C3.04688-.39062 2.375-1.51562 2.375-3m.32813-5.60937c0-1.28125.60937-2.23438 1.75-2.23438 1.14062 0 1.75.95313 1.75 2.23438 0 1.15625-.53125 2.3125-1.75 2.3125s-1.75-1.15625-1.75-2.3125m0 0"/><path id="i" d="M.60938-7.64062C.60938-5.375 2-4.125 3.8125-4.125c1.32813 0 2.3125-.90625 2.75-1.45312C6.54688-1.875 5.53125-.39062 4-.39062c-.76562 0-1.3125-.64063-1.5625-1.60938C2.375-2.20312 2.25-2.35937 2-2.35937c-.375 0-.89062.29687-.89062.76562 0 .6875.82812 1.79688 2.84375 1.79688 2.67187 0 4.3125-2.0625 4.3125-6.25 0-3.625-1.32813-5.39063-3.84375-5.39063-2.48438 0-3.8125 1.51563-3.8125 3.79688m1.6875-.25c0-1.76563.67187-2.95313 2.09375-2.95313 1.45312 0 2.17187 1.5625 2.17187 3.57813 0 1.01562-.76562 2.28125-2.17187 2.28125-1.0625 0-2.09375-.96875-2.09375-2.90625m0 0"/><path id="j" d="M.70313-5.625c0 3.375.98437 5.82813 3.75 5.82813C7.23438.20313 8.23438-2.25 8.23438-5.625c0-3.35937-1-5.8125-3.78125-5.8125-2.76563 0-3.75 2.45313-3.75 5.8125m1.6875 0c0-2.73437.46875-5.21875 2.0625-5.21875s2.0625 2.48438 2.0625 5.21875c0 2.75-.46875 5.23438-2.0625 5.23438S2.39063-2.875 2.39063-5.625m0 0"/><path id="k" d="M.60938-9.32812c0 1.64062 1.64062 2.92187 5.375 2.92187-.625 1.09375-1.07813 2.23438-1.07813 3.46875 0 2.04688 1.29688 3.15625 3.64063 3.15625 2.28125 0 4.67187-1.65625 4.67187-3.78125 0-1.26562-1.0625-1.96875-2.39062-1.96875C9.35938-5.53125 7.625-3.875 7.625-2.5625c0 .39063.3125 1.15625.85938 1.15625.15625 0 .375-.125.375-.29687 0-.25-.4375-.26563-.4375-.84375 0-.90625 1.34375-2.375 2.40625-2.375.76562 0 1.21875.29687 1.21875 1.03125 0 1.64062-1.59375 3.51562-3.5 3.51562C7.1875-.375 6.5-1.10937 6.5-2.34375c0-1.39062.96875-3.01562 1.70313-4.21875 4.15625-.625 8.23437-2.67187 8.23437-5.28125 0-1-.79687-1.65625-1.875-1.65625-2.45312 0-6.17187 3.17188-8.21875 6.4375-1.6875-.01562-4.4375-.04687-4.4375-2.04687 0-1.82813 2.23438-3.23438 3.625-3.23438.25 0 .39063-.15625.39063-.3125s-.14063-.28125-.29688-.28125c-2.09375 0-5.01562 1.40625-5.01562 3.60938m7.98437 2.03125c1.35938-2.40625 4.26563-5.60938 5.96875-5.60938.65625 0 1.125.39063 1.125 1 0 2.09375-3.28125 4-7.09375 4.60938m0 0"/><path id="l" d="M-.28125 2.34375c.01563.46875.57813.8125 1.28125.8125 1.35938 0 1.98438-1.07812 2.53125-3.54687L4.75-5.875h1.64063l.14062-.53125h-1.6875L5.23438-8c.21875-.875.4375-1.20312.76562-1.20312.29688 0 .51563.25.82813.92187.07812.125.1875.25.42187.25.29688 0 .70313-.25.70313-.625 0-.5625-.71875-1.03125-1.57813-1.03125-1.64062 0-2.3125 1.17188-2.78125 2.84375l-.125.4375h-1.125l-.17187.53125h1.17187L1.8125 1.89063c-.125.67187-.25.76562-.375.76562-.14062 0-.35937-.125-.6875-.67187-.09375-.14063-.1875-.3125-.39062-.3125-.3125 0-.64063.32812-.64063.67187m0 0"/><path id="m" d="M.59375 0h5.23438C11 0 12.29688-3.03125 12.29688-6.03125c0-2.75-1.21875-5.59375-6.125-5.59375H.59375v.48438c1.48438.10937 1.51563.125 1.51563 1.0625v8.51562c0 .95313-.03125.96875-1.51563 1.07813Zm3.1875-2.10937v-7.98438c0-.875.14063-.96875 1.9375-.96875 3.5625 0 4.6875 2.26563 4.6875 5.10938 0 4.23437-2.0625 5.35937-4.89062 5.35937-1.46875 0-1.73438-.1875-1.73438-1.51562m0 0"/><path id="n" d="M1.53125-11c0 .60938.4375 1.03125 1.04688 1.03125.60937 0 1.01562-.42187 1.01562-1.03125 0-.60937-.40625-1.01562-1.01562-1.01562-.60938 0-1.04688.40625-1.04688 1.01562m-1 11h4.10938v-.48437C3.4375-.57812 3.375-.60937 3.375-1.46875v-6.875L3.25-8.4375l-2.625.42188v.40625l.625.09375c.4375.07812.5625.14062.5625.75v5.29687c0 .85938-.0625.89063-1.28125.98438Zm0 0"/><path id="o" d="m.78125-2.8125.1875 2.20313c.60938.53125 1.625.8125 2.60938.8125 2 0 3.15625-1.0625 3.15625-2.5 0-1.48438-.92188-2.14063-2.65625-2.67188C3.375-5.1875 2.29688-5.54687 2.29688-6.5c0-.875.65625-1.35937 1.5-1.35937 1.1875 0 1.76562.9375 1.89062 1.95312h.48438V-7.875C5.625-8.28125 4.76563-8.4375 4-8.4375 2.1875-8.4375.95313-7.57812.95313-6c0 1.40625 1.14062 2.03125 2.53125 2.45313.75.23437 1.8125.60937 1.8125 1.75 0 .85937-.65625 1.40625-1.5625 1.40625-1.35938 0-2.125-.98438-2.46875-2.42188Zm0 0"/><path id="p" d="M.51563-7.5625h1.21875v5.84375C1.73438 0 3 .20313 3.59375.20313c.85938 0 1.67188-.4375 2.15625-.73438l-.125-.35937c-.42187.15624-.78125.20312-1.20312.20312-.57813 0-1.10938-.40625-1.10938-1.67187V-7.5625h2.15625V-8.25H3.3125v-2.10937h-.48437L1.8125-8.25H.51563Zm0 0"/><path id="q" d="M.82813-2.1875c0 1.25.82812 2.39063 2.40625 2.39063.98437 0 1.96875-.65625 2.51562-1.01563.21875.64063.51563 1.01563 1.10938 1.01563.625 0 1.32812-.1875 1.98437-.5l-.10937-.40625c-.23438.0625-.60938.07812-.85938 0-.3125-.0625-.59375-.375-.59375-1.42188v-4.07812c0-.98438-.21875-2.23438-2.75-2.23438-1.90625 0-3.40625.98438-3.40625 1.90625 0 .53125.625.78125.95313.78125.35937 0 .4375-.17187.53125-.45312.375-1.25 1.0625-1.65625 1.73437-1.65625.67188 0 1.42188.34375 1.42188 1.6875v.70312c-.4375.42188-2.0625.85938-3.39063 1.28125-1.21875.375-1.54687 1.21875-1.54687 2m1.6875-.23437c0-.78125.35937-1.1875 1.3125-1.54688.6875-.25 1.5625-.57812 1.9375-.8125v2.39063c0 1.35937-1.04688 1.6875-1.70313 1.6875-1.03125 0-1.54687-.73438-1.54687-1.71875m0 0"/><path id="r" d="M.53125 0h4.10938v-.48437C3.4375-.57812 3.375-.60937 3.375-1.46875v-3.9375c0-.42187.03125-.64062.17188-.90625.35937-.67187 1.10937-1.21875 2-1.21875 1.14062 0 1.76562.625 1.76562 2.09375v3.96875c0 .85938-.04687.89063-1.26562.98438V0h4.10937v-.48437c-1.1875-.09375-1.26562-.125-1.26562-.98438v-4.29687c0-1.6875-.92188-2.67188-2.46875-2.67188-1.25 0-2.01563.59375-3.0625 1.28125L3.125-8.4375l-2.5.42188v.40625l.625.09375c.4375.07812.5625.14062.5625.75v5.29687c0 .85938-.0625.89063-1.28125.98438Zm0 0"/><path id="s" d="M.82813-4.04687c0 2.8125 1.375 4.25 3.89062 4.25 1.1875 0 2.78125-.60938 3.25-2.42188l-.51562-.23437C6.9375-1.26562 6.28125-.6875 5.04688-.6875c-2 0-2.46875-2.07812-2.46875-3.65625 0-2.51562.98437-3.51562 2.14062-3.51562.78125 0 1.25.5625 1.59375 1.46875.10938.26562.21875.4375.54688.4375.32812 0 .98437-.21875.98437-.85938 0-.76562-1.10937-1.625-2.9375-1.625-3.0625 0-4.07812 2.15625-4.07812 4.39063m0 0"/><path id="t" d="M.82813-4.0625c0 2.67188 1.14062 4.26563 3.875 4.26563 1.85937 0 2.82812-1.04688 3.28125-2.375l-.5-.26563C7.01563-1.45312 6.375-.65625 5.04688-.65625c-2.09375 0-2.5-2.01562-2.46875-3.76562h4.84375c.35937 0 .67187-.09375.67187-.64063 0-.98437-.32812-3.375-3.40625-3.375-2.625 0-3.85937 1.85938-3.85937 4.375m1.76562-1c0-.70312.25-2.79687 2-2.79687 1.5625 0 1.73438 1.59375 1.73438 2.26562 0 .3125-.10938.53125-.5625.53125Zm0 0"/><path id="u" d="M.42188 3.375v.48438h4.35937V3.375C3.35938 3.29688 3.25 3.25 3.25 2.39063v-2.5625c.35938.1875 1.17188.375 1.9375.375 2.26563 0 4.20313-1.04688 4.20313-4.51563 0-1.20312-.21875-4.125-3.26563-4.125-1.23437 0-2.20312.8125-2.875 1.25l-.20312-1.25L.5-8.01562v.40625l.64063.09375c.4375.07812.54687.14062.54687.75v9.15625c0 .85937-.07812.90625-1.26562.98437M3.25-2.64062v-2.76563c0-.42187.09375-.64062.23438-.9375.39062-.78125 1.09375-1.1875 1.98437-1.1875.6875 0 2.1875.42188 2.1875 3.32813 0 2.46875-.78125 3.8125-2.46875 3.8125-.875 0-1.53125-.45313-1.8125-1.21875-.09375-.3125-.125-.64063-.125-1.03125m0 0"/><path id="v" d="M.53125 0h4.4375v-.48437c-1.5-.09375-1.59375-.125-1.59375-.98438v-3.9375c0-1.28125.57813-1.73437.96875-1.73437.26563 0 .5625.10937 1.04688.375.125.07812.25.09375.32812.09375.42188 0 .78125-.4375.78125-.95313 0-.375-.23437-.8125-.90625-.8125-.60937 0-1.10937.34375-2.21875 1.32813L3.1875-8.4375.625-8.01562v.40625l.625.09375c.4375.07812.5625.14062.5625.75v5.29687c0 .85938-.09375.89063-1.28125.98438Zm0 0"/><path id="w" d="M.82813-4.10937c0 2.71875 1.34375 4.3125 4.03125 4.3125 2.70312 0 4.03125-1.59375 4.03125-4.3125S7.5625-8.4375 4.85938-8.4375c-2.6875 0-4.03125 1.60938-4.03125 4.32813m1.75 0c0-2.32813.75-3.75 2.28125-3.75 1.54687 0 2.29687 1.42187 2.29687 3.75 0 2.3125-.75 3.71875-2.29687 3.71875-1.53125 0-2.28125-1.40625-2.28125-3.71875m0 0"/><path id="x" d="m.42188-7.60937.65625.09375c.42187.07812.53125.14062.53125.75v4.4375C1.60938-.39062 2.75.20313 4 .20313 5.4375.20313 6.60938-.76562 7.07813-1L7.25 0h2.70313v-.48437c-1.17188-.09375-1.28125-.125-1.28125-.98438v-6.875l-.125-.09375-2.625.42188v.40625l.64062.09375c.4375.07812.54688.14062.54688.75v3.79687c0 .46875-.0625.84375-.15625 1-.39063.76563-1.17188 1.26563-2.04688 1.26563-.98437 0-1.70312-.625-1.70312-1.92188v-5.71875l-.125-.09375-2.65625.42188Zm0 0"/><path id="y" d="M1.01563-4.98437c0 3.78125.9375 8.20312 4.5 8.34375v-.5C4.3125 2.625 2.4375.89063 2.4375-4.98437c0-5.85938 1.78125-7.59375 3.07813-7.85938v-.5c-3.5625.14063-4.5 4.5625-4.5 8.35938m0 0"/><path id="z" d="M.53125 0h4.10938v-.48437C3.4375-.57812 3.375-.60937 3.375-1.46875v-3.9375c0-.42187 0-.65625.125-.89062.32813-.6875 1.0625-1.23438 2-1.23438 1.4375 0 1.625 1.0625 1.625 2.09375v3.96875c0 .85938-.0625.89063-1.28125.98438V0h4.10938v-.48437C8.75-.57812 8.6875-.60937 8.6875-1.46875v-3.9375c0-.42187.03125-.64062.125-.90625.26563-.6875.96875-1.21875 1.92188-1.21875 1.0625 0 1.70312.59375 1.70312 2.09375v3.96875c0 .85938-.0625.89063-1.28125.98438V0h4.125v-.48437c-1.20312-.09375-1.26562-.125-1.26562-.98438v-4.29687c0-1.6875-.92188-2.67188-2.51563-2.67188-1.375 0-2.35937.90625-2.95312 1.28125C8.14063-7.9375 7.5-8.4375 6.3125-8.4375c-1.28125 0-2.34375.85938-2.9375 1.28125L3.21875-8.4375.625-8.01562v.40625l.625.09375c.4375.07812.5625.14062.5625.75v5.29687c0 .85938-.0625.89063-1.28125.98438Zm0 0"/><path id="A" d="M5.17188-4.98437c0-3.79688-.9375-8.21875-4.48438-8.35938v.5c1.28125.26563 3.0625 2 3.0625 7.85938C3.75.89063 1.875 2.625.6875 2.85938v.5c3.54688-.14063 4.48438-4.5625 4.48438-8.34375m0 0"/><path id="B" d="M.375-8.84375h.5c.20313-1.8125.5625-2.21875 2.53125-2.21875h.98438v9.5c0 .95313-.04688.96875-1.84375 1.07813V0h5.35937v-.48437c-1.8125-.10938-1.85937-.125-1.85937-1.07813v-9.5h1c1.96875 0 2.32812.40625 2.53125 2.21875h.5V-11.625H.375Zm0 0"/></defs><path fill="none" stroke="#000" stroke-miterlimit="10" stroke-opacity=".5" stroke-width=".3975" d="M81.0664 341.88281h565.51188M81.0664 285.33201h565.51188M81.0664 228.78122h565.51188M81.0664 172.22652h565.51188M81.0664 115.67571h565.51188M81.0664 59.12491h565.51188M109.34375 370.15627V30.85147m56.5508 339.30479V30.85147m56.5508 339.30479V30.85147m56.5508 339.30479V30.85147m56.5508 339.30479V30.85147m56.55079 339.30479V30.85147m56.5508 339.30479V30.85147m56.5508 339.30479V30.85147m56.5508 339.30479V30.85147m56.5547 339.30479V30.85147M165.89455 327.74218v28.27736"/><use xlink:href="#a" x="161.4394" y="361.73456" fill-opacity=".5"/><path fill="none" stroke="#000" stroke-miterlimit="10" stroke-opacity=".5" stroke-width=".3975" d="M222.44535 327.74218v28.27736"/><use xlink:href="#b" x="217.98991" y="361.73456" fill-opacity=".5"/><path fill="none" stroke="#000" stroke-miterlimit="10" stroke-opacity=".5" stroke-width=".3975" d="M278.99614 327.74218v28.27736"/><use xlink:href="#c" x="274.54043" y="361.63581" fill-opacity=".5"/><path fill="none" stroke="#000" stroke-miterlimit="10" stroke-opacity=".5" stroke-width=".3975" d="M335.54694 327.74218v28.27736"/><use xlink:href="#d" x="331.08994" y="361.63581" fill-opacity=".5"/><path fill="none" stroke="#000" stroke-miterlimit="10" stroke-opacity=".5" stroke-width=".3975" d="M392.09774 327.74218v28.27736"/><use xlink:href="#e" x="387.64045" y="361.53706" fill-opacity=".5"/><path fill="none" stroke="#000" stroke-miterlimit="10" stroke-opacity=".5" stroke-width=".3975" d="M448.64854 327.74218v28.27736"/><use xlink:href="#f" x="444.19097" y="361.63581" fill-opacity=".5"/><path fill="none" stroke="#000" stroke-miterlimit="10" stroke-opacity=".5" stroke-width=".3975" d="M505.19934 327.74218v28.27736"/><use xlink:href="#g" x="500.74148" y="361.53706" fill-opacity=".5"/><path fill="none" stroke="#000" stroke-miterlimit="10" stroke-opacity=".5" stroke-width=".3975" d="M561.75013 327.74218v28.27736"/><use xlink:href="#h" x="557.292" y="361.63581" fill-opacity=".5"/><path fill="none" stroke="#000" stroke-miterlimit="10" stroke-opacity=".5" stroke-width=".3975" d="M618.30484 327.74218v28.27736"/><use xlink:href="#i" x="613.84251" y="361.63581" fill-opacity=".5"/><path fill="none" stroke="#000" stroke-miterlimit="10" stroke-opacity=".5" stroke-width=".3975" d="M123.48047 285.33202H95.20312"/><g fill-opacity=".5"><use xlink:href="#b" x="80.64198" y="290.94792"/><use xlink:href="#j" x="89.55005" y="290.94792"/></g><path fill="none" stroke="#000" stroke-miterlimit="10" stroke-opacity=".5" stroke-width=".3975" d="M123.48047 228.78122H95.20312"/><g fill-opacity=".5"><use xlink:href="#d" x="80.64198" y="234.3974"/><use xlink:href="#j" x="89.55005" y="234.3974"/></g><path fill="none" stroke="#000" stroke-miterlimit="10" stroke-opacity=".5" stroke-width=".3975" d="M123.48047 172.22651H95.20312"/><g fill-opacity=".5"><use xlink:href="#f" x="80.64198" y="177.84689"/><use xlink:href="#j" x="89.55005" y="177.84689"/></g><path fill="none" stroke="#000" stroke-miterlimit="10" stroke-opacity=".5" stroke-width=".3975" d="M123.48047 115.67571H95.20312"/><g fill-opacity=".5"><use xlink:href="#h" x="80.64198" y="121.29638"/><use xlink:href="#j" x="89.55005" y="121.29638"/></g><path fill="none" stroke="#000" stroke-miterlimit="10" stroke-opacity=".5" stroke-width=".3975" d="M123.48047 59.12492H95.20312"/><g fill-opacity=".5"><use xlink:href="#a" x="76.1882" y="64.74586"/><use xlink:href="#j" x="85.09627" y="64.74586"/><use xlink:href="#j" x="94.00434" y="64.74586"/></g><path fill="none" stroke="#000" stroke-miterlimit="10" stroke-opacity=".5" stroke-width=".3975" d="M109.34375 327.74218v28.27736"/><use xlink:href="#j" x="85.09576" y="367.29156" fill-opacity=".5"/><path fill="none" stroke="#000" stroke-miterlimit="10" stroke-width=".79501" d="M81.0664 341.88281h559.35173"/><path stroke="#000" stroke-miterlimit="10" stroke-width=".79501" d="M644.57031 341.88281c-.5078-.10547-2.75-.70703-4.15234-1.36328v2.72266c1.40234-.65235 3.64453-1.2539 4.15234-1.35938Zm0 0"/><path fill="none" stroke="#000" stroke-miterlimit="10" stroke-width=".79501" d="M109.34375 370.15626V37.01163"/><path stroke="#000" stroke-miterlimit="10" stroke-width=".79501" d="M109.34375 32.85937c-.10547.50782-.70703 2.75-1.36328 4.15235h2.72266c-.65235-1.40235-1.25391-3.64453-1.35938-4.15235Zm0 0"/><path fill="none" stroke="#007F7F" stroke-miterlimit="10" stroke-width=".79501" d="M109.34375 341.88281s89.56253-20.4297 113.1016-28.27735c23.53907-7.84766-2.29688 7.03516 56.5508-28.27344 58.84767-35.30861 367.58213-226.2071 367.58213-226.2071"/><use xlink:href="#k" x="510.6555" y="108.49563" fill="#007F7F"/><use xlink:href="#l" x="525.90109" y="112.86861" fill="#007F7F"/><use xlink:href="#m" x="7.22197" y="19.96869"/><use xlink:href="#n" x="20.20843" y="19.96869"/><use xlink:href="#o" x="25.09177" y="19.96869"/><use xlink:href="#p" x="32.40784" y="19.96869"/><use xlink:href="#q" x="38.18556" y="19.96869"/><use xlink:href="#r" x="46.96842" y="19.96869"/><use xlink:href="#s" x="57.36116" y="19.96869"/><use xlink:href="#t" x="65.69683" y="19.96869"/><use xlink:href="#u" x="78.11088" y="19.96869"/><use xlink:href="#q" x="88.32475" y="19.96869"/><use xlink:href="#v" x="97.10761" y="19.96869"/><use xlink:href="#s" x="103.29675" y="19.96869"/><use xlink:href="#w" x="111.63241" y="19.96869"/><use xlink:href="#x" x="121.32754" y="19.96869"/><use xlink:href="#v" x="131.50564" y="19.96869"/><use xlink:href="#x" x="138.17774" y="19.96869"/><use xlink:href="#t" x="148.35584" y="19.96869"/><use xlink:href="#y" x="160.7699" y="19.96869"/><use xlink:href="#t" x="166.95904" y="19.96869"/><use xlink:href="#r" x="175.59879" y="19.96869"/><use xlink:href="#z" x="189.76584" y="19.96869"/><use xlink:href="#A" x="205.27447" y="19.96869"/><use xlink:href="#B" x="653.59335" y="346.62164"/><use xlink:href="#t" x="662.34043" y="346.62164"/><use xlink:href="#z" x="670.98019" y="346.62164"/><use xlink:href="#u" x="686.48881" y="346.62164"/><use xlink:href="#o" x="696.70268" y="346.62164"/><use xlink:href="#y" x="707.79305" y="346.62164"/><use xlink:href="#t" x="713.98219" y="346.62164"/><use xlink:href="#r" x="722.62195" y="346.62164"/><use xlink:href="#o" x="736.789" y="346.62164"/><use xlink:href="#t" x="744.10506" y="346.62164"/><use xlink:href="#s" x="752.74482" y="346.62164"/><use xlink:href="#A" x="761.08048" y="346.62164"/></svg>