<svg xmlns="http://www.w3.org/2000/svg" xmlns:xlink="http://www.w3.org/1999/xlink" width="227.569pt" height="340.954pt" viewBox="0 0 227.569 340.954"><defs><path id="b" d="M1.4375-4.26562h9.25V-5.25h-9.25Zm0 0"/><path id="c" d="M1.82813 0h5.53125v-.48437l-1.42188-.125c-.34375-.03126-.54687-.15626-.54687-.82813v-9.92187l-.09375-.07813-3.46875.59375v.40625l1.57812.1875c.28125.04688.39063.17188.39063.65625v8.15625c0 .67188-.15625.79688-.5625.82813l-1.40625.125Zm0 0"/><path id="d" d="M.45313-.15625.625 0h6.96875l.57813-2.21875-.46875-.09375C7.34375-1.39062 7-1.26562 6.32813-1.26562h-4.3125c.28125-.89063 1.28125-2.07813 2.84375-3.20313 1.60937-1.1875 2.85937-1.9375 2.85937-3.82812 0-2.34375-1.5625-3.14063-3.32812-3.14063-2.3125 0-3.5 1.39063-3.5 2.26563 0 .57812.65625.84375.9375.84375.29687 0 .40625-.17188.48437-.46875.26563-1.14063.92188-2.04688 1.96875-2.04688 1.28125 0 1.65625 1.0625 1.65625 2.29688 0 1.8125-.90625 2.82812-2.375 4.125C1.48438-2.60937.76563-1.46875.45313-.15625m0 0"/><path id="e" d="M.45313-1.71875C.45313-1 1.60938.20313 4 .20313c2.42188 0 3.96875-1.23438 3.96875-3.39063 0-2.25-1.9375-2.92187-2.85937-3.01562v-.0625c.90625-.14063 2.35937-.82813 2.35937-2.48438 0-1.875-1.45312-2.6875-3.26562-2.6875-2.21875 0-3.3125 1.28125-3.3125 2 0 .51563.59375.8125.82812.8125.21875 0 .34375-.125.40625-.34375.375-1.14062 1.01563-1.875 1.95313-1.875 1.32812 0 1.67187 1.15625 1.67187 2.10938 0 1-.35937 2.26562-1.79687 2.26562-.79688 0-1.26563-.15625-1.46875-.15625-.20313 0-.29688.15625-.29688.46875 0 .28125.09375.46875.29688.46875s.67187-.17187 1.46875-.17187c1.4375 0 2.25 1.29687 2.25 2.76562 0 2-1 2.70313-2.1875 2.70313-1.10938 0-1.84375-.82813-2.17188-1.78125-.10937-.3125-.26562-.48438-.5-.48438-.3125 0-.89062.32813-.89062.9375m0 0"/><path id="f" d="m.32813-3.35937.14062.34375h4.57813v1.71875c0 .57812-.17188.67187-.59375.70312l-1.0625.10938V0h4.4375v-.48437l-.75-.09375c-.40625-.04688-.5-.14063-.5-.71875v-1.71875h1.71875v-.78125H6.57813V-11.25H5.34375C3.76563-8.92187 1.85938-6 .32813-3.35937m1.21875-.4375c1-1.82813 2.21875-3.78125 3.5-5.8125v5.8125Zm0 0"/><path id="g" d="M.70313-5.625c0 3.375.98437 5.82813 3.75 5.82813C7.23438.20313 8.23438-2.25 8.23438-5.625c0-3.35937-1-5.8125-3.78125-5.8125-2.76563 0-3.75 2.45313-3.75 5.8125m1.70312 0c0-2.73437.45313-5.21875 2.04688-5.21875s2.0625 2.48438 2.0625 5.21875-.46875 5.23438-2.0625 5.23438-2.04688-2.5-2.04688-5.23438m0 0"/><path id="l" d="M.60938-9.32812c0 1.625 1.64062 2.92187 5.375 2.92187C5.375-5.3125 4.90625-4.17187 4.90625-2.9375c0 2.04688 1.29688 3.15625 3.64063 3.15625 2.29687 0 4.6875-1.65625 4.6875-3.78125 0-1.26562-1.0625-1.96875-2.39063-1.96875-1.46875 0-3.20312 1.65625-3.20312 2.96875 0 .39063.29687 1.15625.85937 1.15625.15625 0 .375-.125.375-.29687 0-.25-.4375-.26563-.4375-.84375 0-.92188 1.32813-2.39063 2.40625-2.39063.75 0 1.20313.29688 1.20313 1.03125 0 1.65625-1.57813 3.53125-3.5 3.53125C7.20313-.375 6.5-1.10937 6.5-2.34375c0-1.39062.98438-3.03125 1.71875-4.21875 4.15625-.64062 8.23438-2.6875 8.23438-5.29687 0-.98438-.79688-1.64063-1.875-1.64063-2.46875 0-6.1875 3.15625-8.23438 6.4375-1.6875-.01562-4.4375-.0625-4.4375-2.04687 0-1.82813 2.23438-3.25 3.625-3.25.25 0 .39063-.15625.39063-.3125s-.14063-.28125-.29688-.28125c-2.07812 0-5.01562 1.42187-5.01562 3.625m7.98437 2.03125c1.375-2.40625 4.28125-5.60938 5.98438-5.60938.65625 0 1.10937.375 1.10937.98438 0 2.09375-3.28125 4-7.09375 4.625m0 0"/><path id="o" d="M.375-1.60937C.375 0 2.92188.21874 4.29688.21874c3.76562 0 5.60937-1.51562 6.53125-3.6875.60937-1.4375.53125-3.54687 1.10937-5.26562.3125-.90625 1.375-1.82813 1.375-2.25 0-.17188-.03125-.23438-.28125-.23438-3.64062 0-2.5625 10.84375-8.67187 10.84375C1.98438-.375 1-.8125.96875-1.90625c.17188.14063.46875.23438.6875.23438.4375 0 1.09375-.29688 1.09375-.75 0-.48438-.42187-.8125-.90625-.8125-.95312 0-1.46875.84375-1.46875 1.625M2.90625-8.3125c0 1.1875.95313 1.875 2.20313 1.875 2.15625 0 4.96875-1.07812 4.96875-3.39062 0-.53125-.45313-1.59375-1.23438-1.59375-.17187 0-.39062.1875-.39062.34375 0 .125.34375.60937.34375 1 0 1.90625-1.92188 3.03125-3.6875 3.03125-.8125 0-1.45313-.375-1.45313-1.17188 0-2.85937 3.65625-4.04687 6.125-4.04687 1.79688 0 4 .67187 6.23438.67187.76562 0 1.89062-.07812 2.70312-.23437.15625 0 .65625-.90625.65625-1.0625s-.125-.29688-.29687-.29688c-.23438 0-2.1875.34375-3.04688.34375-1.95312 0-4.59375-.65625-5.90625-.65625-2.75 0-7.21875 1.92188-7.21875 5.1875m0 0"/><path id="m" d="M-.28125 2.35938c.01563.45312.57813.79687 1.28125.79687 1.35938 0 2-1.07812 2.53125-3.54687L4.76563-5.875h1.64062l.14063-.54687H4.84375L5.23438-8C5.45313-8.875 5.6875-9.21875 6-9.21875s.53125.25.82813.92188c.09375.14062.20312.26562.42187.26562.3125 0 .71875-.26562.71875-.625 0-.57812-.73437-1.04687-1.59375-1.04687-1.64062 0-2.3125 1.1875-2.78125 2.85937l-.125.42188h-1.125l-.17187.54687h1.17187L1.8125 1.89063c-.125.67187-.25.76562-.375.76562-.14062 0-.35937-.125-.6875-.67187-.09375-.125-.1875-.3125-.39062-.3125-.3125 0-.64063.32812-.64063.6875m0 0"/><clipPath id="a"><path d="M0 .30078h227v340.3086H0Zm0 0"/></clipPath><clipPath id="h"><path d="M209 242h18.14063v26H209Zm0 0"/></clipPath><clipPath id="i"><path d="M84 6h2v334.60938h-2Zm0 0"/></clipPath><clipPath id="j"><path d="M72 .30078h26V19H72Zm0 0"/></clipPath><clipPath id="k"><path d="M.39844.6914h226.34375V294H.39844Zm0 0"/></clipPath><clipPath id="n"><path d="M.39844 30h226.34375v295H.39844Zm0 0"/></clipPath></defs><g clip-path="url(#a)"><path fill="none" stroke="#000" stroke-miterlimit="10" stroke-opacity=".5" stroke-width=".39775" d="M.3984 311.91799h226.34384M.3984 255.33203h226.34383M.3984 198.74607h226.34383M.3984 142.16012h226.34383M.3984 85.57416h226.34383M.3984 28.9882h226.34383M28.69139 340.21097V.69132m56.58595 339.51965V.69132m56.58596 339.51965V.69132m56.58596 339.51965V.69132"/></g><path fill="none" stroke="#000" stroke-miterlimit="10" stroke-opacity=".5" stroke-width=".39775" d="M28.69139 241.1875v28.29297"/><g fill-opacity=".5"><use xlink:href="#b" x="18.18356" y="275.19767"/><use xlink:href="#c" x="30.28319" y="275.19767"/></g><path fill="none" stroke="#000" stroke-miterlimit="10" stroke-opacity=".5" stroke-width=".39775" d="M141.8633 241.1875v28.29297"/><use xlink:href="#c" x="137.40476" y="275.19767" fill-opacity=".5"/><path fill="none" stroke="#000" stroke-miterlimit="10" stroke-opacity=".5" stroke-width=".39775" d="M198.44926 241.1875v28.29297"/><use xlink:href="#d" x="193.9906" y="275.19767" fill-opacity=".5"/><path fill="none" stroke="#000" stroke-miterlimit="10" stroke-opacity=".5" stroke-width=".39775" d="M99.42188 311.91799H71.1289"/><g fill-opacity=".5"><use xlink:href="#b" x="54.9639" y="317.63729"/><use xlink:href="#c" x="67.06353" y="317.63729"/></g><path fill="none" stroke="#000" stroke-miterlimit="10" stroke-opacity=".5" stroke-width=".39775" d="M99.42188 198.74607H71.1289"/><use xlink:href="#c" x="61.01444" y="204.46563" fill-opacity=".5"/><path fill="none" stroke="#000" stroke-miterlimit="10" stroke-opacity=".5" stroke-width=".39775" d="M99.42188 142.16012H71.1289"/><use xlink:href="#d" x="61.01444" y="147.8798" fill-opacity=".5"/><path fill="none" stroke="#000" stroke-miterlimit="10" stroke-opacity=".5" stroke-width=".39775" d="M99.42188 85.57416H71.1289"/><use xlink:href="#e" x="61.01444" y="91.19515" fill-opacity=".5"/><path fill="none" stroke="#000" stroke-miterlimit="10" stroke-opacity=".5" stroke-width=".39775" d="M99.42188 28.9882H71.1289"/><use xlink:href="#f" x="61.01444" y="34.60932" fill-opacity=".5"/><path fill="none" stroke="#000" stroke-miterlimit="10" stroke-opacity=".5" stroke-width=".39775" d="M85.27734 241.1875v28.29297"/><use xlink:href="#g" x="61.01444" y="280.75813" fill-opacity=".5"/><path fill="none" stroke="#000" stroke-miterlimit="10" stroke-width=".7955" d="M.3984 255.33203h220.17977"/><path d="M224.73438 255.33203c-.51172-.10547-2.75391-.70703-4.15625-1.36328v2.72656c1.40234-.65625 3.64453-1.25781 4.15625-1.36328m0 0"/><g clip-path="url(#h)"><path fill="none" stroke="#000" stroke-miterlimit="10" stroke-width=".7955" d="M224.73438 255.33203c-.51172-.10547-2.75391-.70703-4.15625-1.36328v2.72656c1.40234-.65625 3.64453-1.25781 4.15625-1.36328Zm0 0"/></g><g clip-path="url(#i)"><path fill="none" stroke="#000" stroke-miterlimit="10" stroke-width=".7955" d="M85.27734 340.21097V6.85929"/></g><path d="M85.27734 2.70313c-.10546.5078-.70703 2.7539-1.36328 4.15625h2.72266c-.65234-1.40235-1.2539-3.64844-1.35938-4.15625m0 0"/><g clip-path="url(#j)"><path fill="none" stroke="#000" stroke-miterlimit="10" stroke-width=".7955" d="M85.27734 2.70312c-.10546.50782-.70703 2.75391-1.36328 4.15625h2.72266c-.65235-1.40234-1.2539-3.64843-1.35938-4.15625Zm0 0"/></g><g clip-path="url(#k)"><path fill="none" stroke="#007F7F" stroke-miterlimit="10" stroke-width=".7955" d="M.3984 282.7422s6.81251-41.28908 9.4297-54.65237c2.61719-13.36719 6.8125-31.73048 9.42969-41.68751 2.61719-9.96094 6.8125-23.16017 9.42969-30.09376 2.61719-6.9336 6.8125-15.58985 9.4297-19.87891 2.61718-4.28907 6.8164-9.00782 9.43359-11.03516 2.61719-2.02735 6.8125-3.42579 9.42969-3.57032 2.61719-.14844 6.8125 1.16406 9.42969 2.51563 2.61719 1.35547 6.8125 4.76562 9.42969 7.23828 2.61719 2.46875 6.8164 7.3672 9.4297 10.57422 2.61718 3.20704 6.8164 8.98048 9.43359 12.54298 2.61719 3.5586 6.8125 9.59375 9.42969 13.1289 2.61719 3.53517 6.8125 9.21876 9.42969 12.34767 2.61719 3.125 6.8125 7.84766 9.42969 10.1836 2.61719 2.33593 6.8164 5.48828 9.4297 6.65234 2.61718 1.16406 6.8164 2.1289 9.43359 1.73828 2.61719-.38672 6.8125-2.21875 9.42969-4.54297s6.8125-7.5664 9.42969-12.20703 6.8125-13.90235 9.4297-21.2422c2.61718-7.33594 6.8164-21.23047 9.43359-31.64845 2.61328-10.41797 6.8125-29.5586 9.42969-43.43751s6.8125-38.87892 9.42969-56.60158c2.61719-17.72267 6.8125-49.18361 9.4297-71.13284 2.61718-21.94532 6.8125-60.4922 9.42968-87.043 2.61719-26.5547 9.4336-104.33207 9.4336-104.33207"/></g><use xlink:href="#l" x="185.54459" y="155.59119" fill="#007F7F"/><use xlink:href="#m" x="200.7977" y="159.9669" fill="#007F7F"/><g clip-path="url(#n)"><path fill="none" stroke="#FF7F00" stroke-miterlimit="10" stroke-width=".39775" d="m.3984 36.05852 28.28908 35.3672 9.4297 11.78516 9.43359 11.78906 18.85938 23.57814 9.42969 11.78516 9.4297 11.78906 9.43359 11.78907 9.42969 11.78907 9.42969 11.78516 18.85938 23.57813 9.4336 11.78907 9.42969 11.78516 18.85938 23.57813 9.4336 11.78907 9.42969 11.78516 28.28907 35.3672 9.4336 11.78906"/></g><use xlink:href="#o" x="166.18226" y="297.06725" fill="#FF7F00"/></svg>