<svg xmlns="http://www.w3.org/2000/svg" xmlns:xlink="http://www.w3.org/1999/xlink" width="159.847pt" height="140.578pt" viewBox="0 0 159.847 140.578"><defs><path id="b" d="M-4.46875-7.76562h2.375l-.48437.75.34375.29687C-1.76562-7.23437-1.21875-7.60937-.5-7.92187V-8.25c-.73437-.3125-1.26562-.6875-1.73437-1.20312l-.34375.32812.48437.73438h-2.375Zm0 0"/><path id="c" d="M1.35938-.53125c0 .40625.20312.67188.67187.67188.84375 0 1.5-.79688 1.89063-1.6875l-.28125-.15626c-.21875.40626-.71875 1.23438-1.04688 1.23438-.14062 0-.1875-.09375-.1875-.23437 0-.10938.03125-.25.0625-.40625L3.75-5.79687l-.0625-.0625-2.125.3125-.07812.29687.67187.0625c.21875 0 .29688.0625.29688.23438 0 .07812 0 .17187-.04688.29687L1.42188-1c-.04688.17188-.0625.3125-.0625.46875M2.875-7.57812c0 .4375.29688.65625.64063.65625.45312 0 .75-.3125.75-.78125 0-.45313-.3125-.64063-.64063-.64063-.5 0-.75.39063-.75.76563m0 0"/><path id="d" d="M-.875 2.07813c0 .625.82813.73437 1.25.73437.375 0 .75-.10937 1.04688-.375.53125-.48437.84375-1.23437 1.15625-2.64062l1.21875-5.59375-.0625-.0625-2.21875.34375-.07813.29687c.78125.03125 1.03125.0625 1.03125.25 0 .09375-.01562.15625-.03125.26563l-1.375 6.54687C1 2.21875.89063 2.39063.75 2.39063c-.48437 0-.71875-.90625-1.0625-.90625-.29687 0-.5625.35937-.5625.59375m3.57813-9.65625c0 .4375.29687.65625.64062.65625.45313 0 .75-.3125.75-.78125 0-.45313-.3125-.64063-.64062-.64063-.5 0-.75.39063-.75.76563m0 0"/><path id="f" d="M0-7.70312h3.60938l-.46875.76562.34375.28125C3.95313-7.1875 4.5-7.54687 5.21875-7.84375v-.45312c-.73437-.3125-1.26562-.67188-1.73437-1.1875l-.34375.28125.46875.75H0Zm0 0"/><path id="g" d="M.8125-1.25c0 .6875.32813 1.39063 1.125 1.39063 1.25 0 2.32813-1.4375 3.01563-2.64063h.03125l-.40625 1.32813c-.0625.26562-.125.48437-.125.67187 0 .40625.20312.64063.64062.64063.875 0 1.54688-.79688 1.9375-1.6875L6.75-1.70313c-.20312.40626-.71875 1.23438-1.04687 1.23438-.14063 0-.1875-.09375-.1875-.23437 0-.10938.03125-.23438.07812-.40625L6.8125-5.76562h-.96875l-.0625.15625c-.1875-.14063-.54687-.25-.84375-.25-2.78125 0-4.125 3.0625-4.125 4.60937m1.15625-.03125c0-1.28125 1.15625-4.17187 2.98438-4.17187.28125 0 .53125.09375.71875.26562-.21875.85938-.625 2.01563-1.25 2.95313-.65625 1-1.375 1.76562-1.9375 1.76562-.39063 0-.51563-.34375-.51563-.8125m0 0"/><path id="h" d="M1.01563 0h.42187l.35938-.6875c.21874.48438.79687.82813 1.46875.82813 1.375 0 2.35937-.90625 2.9375-1.9375s.76562-2.0625.76562-2.59375c0-.85938-.375-1.46875-1.25-1.46875s-2.04687.79687-2.9375 2.40625H2.75l1.29688-5.15625L4-8.65625l-2.09375.26563-.0625.28125.65625.07812c.20313.01563.28125.0625.28125.23438q0 .11719-.04687.32812Zm1.4375-1.26562c0-.5625.25-1.375.625-2.04688C3.60938-4.25 4.48438-5.25 5.20313-5.25c.4375 0 .625.29688.625.96875 0 .84375-.70313 4.01563-2.40625 4.01563-.60938 0-.96875-.42188-.96875-1m0 0"/><clipPath id="a"><path d="M.16406 0h159.36719v133H.16406Zm0 0"/></clipPath><clipPath id="e"><path d="M.16406 119h159.36719v1H.16406Zm0 0"/></clipPath></defs><g clip-path="url(#a)"><path fill="none" stroke="#000" stroke-miterlimit="10" stroke-opacity=".5" stroke-width=".39731" d="M.36328 119.42578h158.97264M.36328 92.9336h158.97264M.36328 66.4375h158.97264M.36328 39.94142h158.97264M.36328 13.44532h158.97264M13.60937 132.67578V.19923m26.4961 132.47655V.19923m26.49609 132.47655V.19923m26.49609 132.47655V.19923m26.49609 132.47655V.19923m26.49218 132.47655V.19923"/></g><use xlink:href="#b" x="29.56891" y="133.26246"/><use xlink:href="#c" x="24.47794" y="135.8821"/><use xlink:href="#b" x="9.85609" y="108.18574"/><use xlink:href="#d" x="4.88974" y="110.80537"/><g clip-path="url(#e)"><path fill="none" stroke="#000" stroke-miterlimit="10" stroke-width=".39731" d="M.36328 119.42578h158.97264"/></g><path fill="none" stroke="#000" stroke-miterlimit="10" stroke-width=".39731" d="M13.60937 132.67578V.19923"/><path fill="none" stroke="#000" stroke-miterlimit="10" stroke-width=".79463" d="M13.60937 119.42578h20.33594"/><path stroke="#000" stroke-miterlimit="10" stroke-width=".79463" d="M38.09766 119.42578c-.51172-.10547-2.75-.70312-4.15235-1.35937v2.72265c1.40235-.65625 3.64063-1.2539 4.15235-1.36328Zm0 0"/><path fill="none" stroke="#000" stroke-miterlimit="10" stroke-width=".79463" d="M13.60937 119.42578V99.09375"/><path stroke="#000" stroke-miterlimit="10" stroke-width=".79463" d="M13.60937 94.9414c-.10546.50782-.70703 2.75-1.35937 4.15235h2.71875c-.65234-1.40234-1.2539-3.64453-1.35938-4.15234Zm0 0"/><path fill="none" stroke="#007F7F" stroke-miterlimit="10" stroke-width=".39731" d="m40.10547 92.9336 23.26562-23.26563"/><path fill="#007F7F" stroke="#007F7F" stroke-miterlimit="10" stroke-width=".3973" d="M66.07422 66.96094c-.42188.24218-2.38672 1.19922-3.85156 1.5586l2.29297 2.29296c.36328-1.46094 1.3164-3.42969 1.55859-3.85156Zm0 0"/><use xlink:href="#f" x="59.05215" y="93.55989" fill="#007F7F"/><use xlink:href="#g" x="57.7361" y="93.69574" fill="#007F7F"/><path fill="none" stroke="#007F7F" stroke-miterlimit="10" stroke-width=".39731" d="M146.08592 92.9336 97.1836 68.48047"/><path fill="#007F7F" stroke="#007F7F" stroke-miterlimit="10" stroke-width=".39728" d="M93.76172 66.76953c.36328.32031 1.89062 1.88672 2.69531 3.16016l1.44922-2.89844c-1.5.11719-3.66797-.16406-4.14453-.26172Zm0 0"/><use xlink:href="#f" x="125.58418" y="72.23316" fill="#007F7F"/><use xlink:href="#h" x="123.97028" y="75.16437" fill="#007F7F"/></svg>