<svg xmlns="http://www.w3.org/2000/svg" xmlns:xlink="http://www.w3.org/1999/xlink" width="66.445pt" height="56.624pt" viewBox="0 0 66.445 56.624"><defs><path id="a" d="M-4.4375-7.71875h2.34375l-.46875.75.34375.29688C-1.75-7.20312-1.20312-7.5625-.5-7.875v-.32812C-1.21875-8.5-1.75-8.875-2.21875-9.39062l-.34375.3125.46875.75H-4.4375Zm0 0"/><path id="b" d="M1.35938-.53125c0 .40625.20312.67188.67187.67188.82813 0 1.46875-.79688 1.875-1.67188l-.29687-.15625c-.20313.40625-.70313 1.21875-1.03125 1.21875-.14063 0-.1875-.09375-.1875-.23437 0-.10938.03125-.25.0625-.39063l1.28125-4.67187-.0625-.0625L1.5625-5.5l-.07812.28125.65625.0625c.21875.01563.29687.07813.29687.23438 0 .07812 0 .17187-.04687.29687L1.42188-1c-.04688.17188-.0625.32813-.0625.46875m1.48437-7c0 .4375.29688.65625.65625.65625.45313 0 .73438-.3125.73438-.78125 0-.45312-.3125-.64062-.625-.64062-.5 0-.76563.39062-.76563.76562m0 0"/><path id="c" d="M-.85937 2.0625c0 .60938.8125.73438 1.23437.73438.375 0 .75-.125 1.03125-.375.53125-.48438.85938-1.21875 1.15625-2.625l1.21875-5.5625-.0625-.0625L1.5-5.48437l-.0625.29687c.76563.04688 1.01563.0625 1.01563.25 0 .09375-.01563.15625-.03125.26563L1.0625 1.84375C.98438 2.20313.89063 2.375.73438 2.375c-.46875 0-.70313-.90625-1.04688-.90625-.29687 0-.54687.375-.54687.59375m3.53125-9.59375c0 .4375.29687.65625.65625.65625.45312 0 .73437-.3125.73437-.78125 0-.45312-.3125-.64062-.625-.64062-.5 0-.76562.39062-.76562.76562m0 0"/><clipPath id="d"><path d="M40 38h25.89453v18.20313H40Zm0 0"/></clipPath></defs><use xlink:href="#a" x="29.44803" y="13.56369"/><use xlink:href="#b" x="24.38531" y="16.16942"/><use xlink:href="#a" x="62.40797" y="40.23293"/><use xlink:href="#c" x="57.46798" y="42.83866"/><path fill="none" stroke="red" stroke-miterlimit="10" stroke-width=".3952" d="M53.10547 20.66797h-7.02734v7.02734h7.02734v-7.02734"/><path fill="none" stroke="#000" stroke-miterlimit="10" stroke-width=".79041" d="M53.10547 20.66797H6.51955"/><path stroke="#000" stroke-miterlimit="10" stroke-width=".79041" d="M2.39063 20.66797c.5078.10547 2.73437.70312 4.1289 1.35156v-2.70312c-1.39453.64843-3.6211 1.24609-4.1289 1.35156Zm0 0"/><path fill="none" stroke="#000" stroke-miterlimit="10" stroke-width=".79041" d="M53.10547 20.66797v29.01561"/><path d="M53.10547 53.8125c.10547-.50781.70312-2.73828 1.35156-4.1289H51.75c.65234 1.39062 1.25 3.62109 1.35547 4.1289m0 0"/><g clip-path="url(#d)"><path fill="none" stroke="#000" stroke-miterlimit="10" stroke-width=".79041" d="M53.10547 53.8125c.10547-.50781.70312-2.73828 1.35156-4.1289H51.75c.65234 1.39062 1.25 3.62109 1.35547 4.1289Zm0 0"/></g></svg>