<svg xmlns="http://www.w3.org/2000/svg" xmlns:xlink="http://www.w3.org/1999/xlink" width="66.164pt" height="101.597pt" viewBox="0 0 66.164 101.597"><defs><path id="a" d="M-7.96875-13.84375h4.23438l-.84375 1.32813.59375.53125c.84375-.92188 1.8125-1.59375 3.09375-2.14063v-.57812c-1.29688-.54688-2.25-1.21875-3.09375-2.14063l-.59375.5625.84375 1.34375h-4.23438Zm0 0"/><path id="b" d="M2.4375-.95312C2.4375-.21876 2.79688.25 3.625.25c1.51563 0 2.65625-1.42187 3.375-3l-.51562-.28125c-.375.73438-1.28125 2.1875-1.85938 2.1875-.23437 0-.32812-.15625-.32812-.42187 0-.20313.04687-.4375.10937-.70313l2.28125-8.375-.10937-.10937-3.78125.57812-.14063.51563L3.85938-9.25c.375.01563.53125.125.53125.42188 0 .125-.03125.29687-.09375.53125l-1.75 6.5c-.09375.3125-.10938.57812-.10938.84375M5.10938-13.5c0 .76563.53125 1.17188 1.15625 1.17188.8125 0 1.32812-.5625 1.32812-1.40625 0-.8125-.54687-1.14063-1.125-1.14063-.89062 0-1.35937.70313-1.35937 1.375m0 0"/><path id="c" d="M-1.54687 3.70313c0 1.09375 1.45312 1.32812 2.21875 1.32812.67187 0 1.34375-.23437 1.85937-.6875.9375-.875 1.51563-2.20312 2.07813-4.70312l2.17187-9.98438-.10937-.10937-3.96875.625-.14063.53125c1.375.0625 1.84375.10937 1.84375.4375 0 .15625-.01562.29687-.0625.46875l-2.4375 11.6875c-.14062.64062-.3125.95312-.57812.95312-.84375 0-1.26563-1.60937-1.875-1.60937-.53125 0-1 .65625-1 1.0625M4.79688-13.5c0 .76563.53125 1.17188 1.15625 1.17188.82812 0 1.32812-.5625 1.32812-1.40625 0-.8125-.54687-1.14063-1.125-1.14063-.89062 0-1.35937.70313-1.35937 1.375m0 0"/><clipPath id="d"><path d="M50 .4336h15.33984V19H50Zm0 0"/></clipPath></defs><use xlink:href="#a" x="36.71929" y="88.47199"/><use xlink:href="#b" x="27.64273" y="93.14247"/><use xlink:href="#a" x="56.67909" y="35.89234"/><use xlink:href="#c" x="47.82472" y="40.56283"/><path fill="none" stroke="red" stroke-miterlimit="10" stroke-width=".39353" d="M63.3711 63.80469H50.77343V51.20704H63.3711v12.59765"/><path fill="none" stroke="#000" stroke-miterlimit="10" stroke-width=".78706" d="M63.3711 63.80469H6.4922"/><path stroke="#000" stroke-miterlimit="10" stroke-width=".78706" d="M2.3789 63.80469c.50782.10547 2.72657.69922 4.11329 1.34765v-2.6953c-1.38672.64843-3.60547 1.24218-4.11328 1.34765Zm0 0"/><path fill="none" stroke="#000" stroke-miterlimit="10" stroke-width=".78706" d="M63.3711 63.80469V6.9258"/><path d="M63.3711 2.8164c-.10547.50391-.69922 2.72266-1.34766 4.10938h2.69531c-.64844-1.38672-1.24219-3.60547-1.34766-4.10937m0 0"/><g clip-path="url(#d)"><path fill="none" stroke="#000" stroke-miterlimit="10" stroke-width=".78706" d="M63.3711 2.8164c-.10548.50391-.69922 2.72266-1.34766 4.10938h2.6953c-.64843-1.38672-1.24218-3.60547-1.34765-4.10937Zm0 0"/></g></svg>