<svg xmlns="http://www.w3.org/2000/svg" xmlns:xlink="http://www.w3.org/1999/xlink" width="59.084pt" height="90.359pt" viewBox="0 0 59.084 90.359"><defs><path id="a" d="M-7.0625-12.26562h3.75l-.75 1.17187.53125.48438c.75-.82813 1.60938-1.42188 2.75-1.90625v-.51563c-1.15625-.48437-2-1.07812-2.75-1.90625l-.53125.51563.75 1.17187h-3.75Zm0 0"/><path id="b" d="M2.15625-.84375c0 .64063.3125 1.0625 1.0625 1.0625 1.32813 0 2.35938-1.26562 2.98438-2.65625l-.45313-.25C5.42188-2.04687 4.60938-.75 4.10938-.75c-.21875 0-.29688-.14062-.29688-.375 0-.17187.03125-.39062.09375-.625l2.01563-7.42187-.09375-.09375L2.46875-8.75l-.10937.45313 1.0625.09375c.32812.01562.46875.125.46875.375 0 .10937-.03125.26562-.07813.46875L2.25-1.59375c-.07812.28125-.09375.51563-.09375.75m2.375-11.125c0 .6875.46875 1.03125 1.01563 1.03125.73437 0 1.1875-.48437 1.1875-1.23437 0-.71875-.5-1.01563-1-1.01563-.78125 0-1.20313.625-1.20313 1.21875m0 0"/><path id="c" d="M-1.375 3.28125c0 .98438 1.29688 1.17188 1.96875 1.17188.60938 0 1.1875-.1875 1.64063-.60938.84375-.76562 1.35937-1.9375 1.84375-4.15625L6-9.17187l-.09375-.09375-3.51562.54687-.10938.46875c1.21875.0625 1.625.10938 1.625.40625 0 .125-.01562.25-.0625.40625L1.6875 2.92188c-.125.57812-.28125.84375-.51562.84375-.73438 0-1.10938-1.4375-1.65625-1.4375-.48438 0-.89063.59375-.89063.95312m5.64063-15.25c0 .6875.46875 1.03125 1.01562 1.03125.71875 0 1.17188-.48437 1.17188-1.23437 0-.71875-.48438-1.01563-1-1.01563-.78125 0-1.1875.625-1.1875 1.21875m0 0"/><clipPath id="d"><path d="M43 .375h15.1836V18H43Zm0 0"/></clipPath></defs><use xlink:href="#a" x="32.59369" y="78.45856"/><use xlink:href="#b" x="24.54842" y="82.59838"/><use xlink:href="#a" x="50.28836" y="31.84818"/><use xlink:href="#c" x="42.44004" y="35.98997"/><path fill="none" stroke="red" stroke-miterlimit="10" stroke-width=".39241" d="M56.21875 56.59375H45.05469V45.42969h11.16406v11.16406"/><path fill="none" stroke="#000" stroke-miterlimit="10" stroke-width=".78484" d="M56.21875 56.59375H6.47267"/><path stroke="#000" stroke-miterlimit="10" stroke-width=".78484" d="M2.375 56.59375c.5.10547 2.71484.69922 4.09766 1.34375V55.25c-1.38282.64844-3.59766 1.23828-4.09766 1.34375Zm0 0"/><path fill="none" stroke="#000" stroke-miterlimit="10" stroke-width=".78484" d="M56.21875 56.59375V6.84767"/><path d="M56.21875 2.75c-.10547.5-.69531 2.71484-1.34375 4.09766h2.6875C56.91797 5.46484 56.32422 3.25 56.21875 2.75m0 0"/><g clip-path="url(#d)"><path fill="none" stroke="#000" stroke-miterlimit="10" stroke-width=".78484" d="M56.21875 2.75c-.10547.5-.69531 2.71484-1.34375 4.09766h2.6875C56.91797 5.46484 56.32422 3.25 56.21875 2.75Zm0 0"/></g></svg>