<svg xmlns="http://www.w3.org/2000/svg" xmlns:xlink="http://www.w3.org/1999/xlink" width="468.115pt" height="468.115pt" viewBox="0 0 468.115 468.115"><defs><path id="b" d="M-7.15625-12.4375h3.79688l-.76563 1.20313.54688.46875c.75-.82813 1.625-1.42188 2.78125-1.92188v-.51562c-1.17188-.5-2.03125-1.09375-2.78125-1.9375l-.54688.51562.76563 1.20313h-3.79688Zm0 0"/><path id="c" d="M2.1875-.85937c0 .65625.3125 1.07812 1.07813 1.07812 1.34375 0 2.39062-1.26562 3.01562-2.6875l-.45312-.25C5.48438-2.0625 4.67188-.75 4.15625-.75c-.21875 0-.29687-.14062-.29687-.39062 0-.17188.04687-.39063.09375-.625L6-9.28125l-.09375-.10937L2.5-8.875l-.10937.46875 1.07812.09375c.32813.01563.46875.125.46875.375 0 .125-.01562.28125-.07812.48438L2.28125-1.60937c-.07812.28124-.09375.51562-.09375.75m2.40625-11.28125c0 .70312.48438 1.0625 1.03125 1.0625.73438 0 1.20313-.5 1.20313-1.25 0-.73438-.5-1.03125-1.01563-1.03125-.79687 0-1.21875.625-1.21875 1.21875m0 0"/><path id="d" d="M-1.39062 3.32813c0 .98437 1.3125 1.1875 1.98437 1.1875.625 0 1.21875-.20313 1.67188-.60938.85937-.78125 1.375-1.98437 1.875-4.21875l1.95312-8.96875-.10937-.10937-3.5625.5625-.10938.46875c1.23438.0625 1.64063.10937 1.64063.40625 0 .14062-.01563.25-.04688.42187l-2.20312 10.5c-.10938.57813-.26563.84375-.51563.84375-.75 0-1.125-1.45312-1.6875-1.45312-.46875 0-.89062.60937-.89062.96875M4.3125-12.14062c0 .70312.48438 1.0625 1.03125 1.0625.75 0 1.20313-.5 1.20313-1.25 0-.73438-.5-1.03125-1.01563-1.03125-.79687 0-1.21875.625-1.21875 1.21875m0 0"/><path id="e" d="M.59375-5.04687c0 3.07812 1.76563 5.32812 5.5 5.32812 3.29688 0 4.90625-1.6875 5.9375-3.54687C13.04688-5.09375 13.23438-7 13.23438-7.73437c0-3.84375-2.32813-5.5-5.42188-5.5-2.98437 0-4.82812 1.65625-5.92187 3.45312C.85938-8.0625.59375-6.28125.59375-5.04687m1.96875.75c0-1.57813.29688-3.32813 1.15625-5.125.85938-1.78125 2.1875-3.15625 4.17188-3.15625 2.04687 0 3.375 1.21875 3.375 3.85937 0 1.07813-.10938 2.60938-.875 4.59375-.78125 2.01563-2.0625 3.75-4.48438 3.75C3.875-.375 2.5625-1.6875 2.5625-4.29687m0 0"/><clipPath id="a"><path d="M0 0h467.23047v467.23047H0Zm0 0"/></clipPath><clipPath id="f"><path d="M0 233h467.23047v1H0Zm0 0"/></clipPath><clipPath id="g"><path d="M233 0h1v467.23047h-1Zm0 0"/></clipPath></defs><g clip-path="url(#a)"><path fill="none" stroke="#000" stroke-miterlimit="10" stroke-opacity=".5" stroke-width=".39775" d="M.19531 445.8164h466.83985M.1953 403.375h466.83985M.1953 360.9375h466.83985M.1953 318.4961h466.83985M.1953 276.05468h466.83985M.1953 233.61719h466.83985M.1953 191.17579h466.83985M.1953 148.73828h466.83985M.1953 106.29687h466.83985M.1953 63.85547h466.83985M.1953 21.41797h466.83985M21.41406 467.03515V.19531m42.4414 466.83984V.19531m42.44142 466.83984V.19531m42.4375 466.83984V.19531m42.4414 466.83984V.19531m42.4414 466.83984V.19531m42.4375 466.83984V.19531m42.44141 466.83984V.19531m42.4375 466.83984V.19531m42.4414 466.83984V.19531m42.44141 466.83984V.19531"/></g><use xlink:href="#b" x="259.17901" y="255.77544"/><use xlink:href="#c" x="251.02442" y="259.9735"/><use xlink:href="#b" x="227.6037" y="215.61038"/><use xlink:href="#d" x="219.64874" y="219.80644"/><use xlink:href="#e" x="212.76775" y="253.86705"/><g clip-path="url(#f)"><path fill="none" stroke="#000" stroke-miterlimit="10" stroke-width=".39775" d="M.19531 233.61719h466.83985"/></g><g clip-path="url(#g)"><path fill="none" stroke="#000" stroke-miterlimit="10" stroke-width=".39775" d="M233.61719 467.03515V.19531"/></g><path fill="none" stroke="#000" stroke-miterlimit="10" stroke-width=".7955" d="M233.61719 233.61719h36.26953"/><path stroke="#000" stroke-miterlimit="10" stroke-width=".7955" d="M274.04297 233.61719c-.51172-.10547-2.7539-.70703-4.15625-1.36328v2.72265c1.40234-.65234 3.64453-1.2539 4.15625-1.35937Zm0 0"/><path fill="none" stroke="#000" stroke-miterlimit="10" stroke-width=".7955" d="M233.61719 233.61719v-36.26953"/><path stroke="#000" stroke-miterlimit="10" stroke-width=".7955" d="M233.61719 193.1914c-.10938.50782-.71094 2.75391-1.36328 4.15626h2.72265c-.65234-1.40235-1.2539-3.64844-1.35937-4.15625Zm0 0"/></svg>