<svg xmlns="http://www.w3.org/2000/svg" xmlns:xlink="http://www.w3.org/1999/xlink" width="37.824pt" height="56.624pt" viewBox="0 0 37.824 56.624"><defs><path id="a" d="M-4.45312-7.73437h2.35937l-.46875.75.32813.29687C-1.75-7.21875-1.21875-7.59375-.5-7.89062v-.32813c-.71875-.3125-1.25-.67187-1.73437-1.20312l-.32813.32812.46875.73438h-2.35937Zm0 0"/><path id="b" d="M1.35938-.53125c0 .40625.20312.67188.67187.67188.84375 0 1.48438-.79688 1.875-1.67188L3.625-1.70312c-.20312.42187-.71875 1.23437-1.03125 1.23437-.14062 0-.1875-.09375-.1875-.23437 0-.10938.01563-.25.0625-.39063l1.26563-4.6875-.0625-.0625-2.10938.32813-.07812.28125.67187.0625c.20313.01562.29688.07812.29688.23437 0 .07813-.01563.17188-.04688.29688L1.42188-1c-.04688.17188-.0625.3125-.0625.46875m1.5-7.01562c0 .4375.29687.65625.64062.65625.45313 0 .75-.3125.75-.78125 0-.45313-.3125-.64063-.64062-.64063-.48438 0-.75.39063-.75.76563m0 0"/><path id="c" d="M-.85937 2.0625c0 .625.8125.75 1.23437.75.375 0 .75-.125 1.03125-.39062.53125-.48438.85938-1.21875 1.17188-2.625l1.20312-5.57813-.0625-.0625L1.51563-5.5l-.07813.29688c.76563.04687 1.03125.0625 1.03125.25 0 .09375-.01562.15625-.04687.26562L1.0625 1.84375C.98438 2.20313.89063 2.375.75 2.375c-.48437 0-.71875-.90625-1.0625-.90625-.29687 0-.54687.375-.54687.59375M2.6875-7.54687c0 .4375.29688.65625.64063.65625.45312 0 .75-.3125.75-.78125 0-.45313-.3125-.64063-.64063-.64063-.5 0-.75.39063-.75.76563m0 0"/><clipPath id="d"><path d="M.03906 23H18v26H.03906Zm0 0"/></clipPath><clipPath id="e"><path d="M23 0h14.61328v18H23Zm0 0"/></clipPath></defs><use xlink:href="#a" x="20.73614" y="49.3806"/><use xlink:href="#b" x="15.66357" y="51.99077"/><use xlink:href="#a" x="31.89305" y="19.99374"/><use xlink:href="#c" x="26.94466" y="22.6039"/><path fill="none" stroke="red" stroke-miterlimit="10" stroke-width=".39587" d="M35.63281 35.59375h-7.03906v-7.03907h7.03906v7.03907"/><path fill="none" stroke="#000" stroke-miterlimit="10" stroke-width=".79175" d="M35.63281 35.59375H6.5703"/><path d="M2.4336 35.59375c.5078.10938 2.73828.70703 4.13671 1.35547v-2.70703c-1.39843.64843-3.6289 1.2461-4.13672 1.35156m0 0"/><g clip-path="url(#d)"><path fill="none" stroke="#000" stroke-miterlimit="10" stroke-width=".79175" d="M2.4336 35.59375c.5078.10938 2.73827.70703 4.13671 1.35547v-2.70703c-1.39844.64844-3.6289 1.2461-4.13672 1.35156Zm0 0"/></g><path fill="none" stroke="#000" stroke-miterlimit="10" stroke-width=".79175" d="M35.63281 35.59375V6.53124"/><path d="M35.63281 2.39453c-.10547.50781-.70312 2.74219-1.35547 4.13672h2.71094c-.65234-1.39453-1.25-3.6289-1.35547-4.13672m0 0"/><g clip-path="url(#e)"><path fill="none" stroke="#000" stroke-miterlimit="10" stroke-width=".79175" d="M35.63281 2.39453c-.10547.50781-.70312 2.74219-1.35547 4.13672h2.71094c-.65234-1.39453-1.25-3.6289-1.35547-4.13672Zm0 0"/></g></svg>