<svg xmlns="http://www.w3.org/2000/svg" xmlns:xlink="http://www.w3.org/1999/xlink" width="69.097pt" height="58.88pt" viewBox="0 0 69.097 58.88"><defs><path id="a" d="M-4.59375-7.98437h2.4375l-.48437.76562.34375.29688C-1.8125-7.45312-1.25-7.82812-.51562-8.15625v-.32812c-.75-.32813-1.29688-.70313-1.78125-1.23438l-.34375.32813.48437.76562h-2.4375Zm0 0"/><path id="b" d="M1.40625-.54687c0 .42187.20313.6875.6875.6875.875 0 1.53125-.8125 1.9375-1.71875L3.75-1.75C3.53125-1.32812 3-.48437 2.67188-.48437c-.14063 0-.1875-.09375-.1875-.25 0-.10938.01562-.25.0625-.40625l1.3125-4.82813-.0625-.0625-2.1875.32813-.07813.29687.6875.0625c.21875.01563.3125.07813.3125.25 0 .07813-.01562.17188-.04687.29688L1.46875-1.03125c-.04687.17188-.0625.32813-.0625.48438m1.54688-7.25c0 .45312.3125.67187.65625.67187.48437 0 .78125-.3125.78125-.79687 0-.46875-.32813-.67188-.65625-.67188-.51563 0-.78125.40625-.78125.79688m0 0"/><path id="c" d="M-.89062 2.14063c0 .64062.84375.76562 1.28125.76562.39062 0 .76562-.125 1.0625-.40625C2 2 2.34375 1.23438 2.65625-.20312l1.25-5.76563-.0625-.0625-2.28125.35938-.07812.29687c.79687.04688 1.0625.07813 1.0625.26563 0 .09375-.01563.15625-.04688.26562l-1.40625 6.75c-.07812.375-.17187.54688-.32812.54688-.48438 0-.73438-.9375-1.07813-.9375-.3125 0-.57812.39062-.57812.625m3.67187-9.9375c0 .45312.29688.67187.65625.67187.46875 0 .76563-.3125.76563-.79687 0-.46875-.3125-.67188-.65625-.67188-.5 0-.76563.40625-.76563.79688m0 0"/><clipPath id="d"><path d="M50 24h18.20703v26H50Zm0 0"/></clipPath><clipPath id="e"><path d="M0 .32031h26V18H0Zm0 0"/></clipPath></defs><use xlink:href="#a" x="43.31938" y="51.34217"/><use xlink:href="#b" x="38.07738" y="54.03952"/><use xlink:href="#a" x="9.37498" y="20.97009"/><use xlink:href="#c" x="4.26131" y="23.66744"/><path fill="none" stroke="red" stroke-miterlimit="10" stroke-width=".39336" d="M20.51562 37.09766V29.8203h-7.27734"/><path fill="none" stroke="#000" stroke-miterlimit="10" stroke-width=".78673" d="M13.23828 37.09766h48.47656"/><path d="M65.82813 37.09766c-.50782-.10547-2.72657-.70313-4.11329-1.34766v2.6914c1.38672-.64453 3.60547-1.24218 4.11328-1.34374m0 0"/><g clip-path="url(#d)"><path fill="none" stroke="#000" stroke-miterlimit="10" stroke-width=".78673" d="M65.82812 37.09766c-.5078-.10547-2.72656-.70313-4.11328-1.34766v2.6914c1.38672-.64452 3.60547-1.24218 4.11328-1.34374Zm0 0"/></g><path fill="none" stroke="#000" stroke-miterlimit="10" stroke-width=".78673" d="M13.23828 37.09766V6.8125"/><path d="M13.23828 2.69922c-.10547.5039-.69922 2.72266-1.34765 4.11328h2.6953c-.64843-1.39062-1.24218-3.60937-1.34765-4.11328m0 0"/><g clip-path="url(#e)"><path fill="none" stroke="#000" stroke-miterlimit="10" stroke-width=".78673" d="M13.23828 2.69922c-.10547.5039-.69922 2.72265-1.34765 4.11328h2.6953c-.64843-1.39063-1.24218-3.60938-1.34765-4.11328Zm0 0"/></g></svg>