<svg xmlns="http://www.w3.org/2000/svg" xmlns:xlink="http://www.w3.org/1999/xlink" width="321.169pt" height="147.486pt" viewBox="0 0 321.169 147.486"><defs><path id="a" d="M1.03125-4.9375c0 3.10938 1.625 5.1875 4.39063 5.1875 1.14062 0 2.10937-.51562 3.25-1.4375v1.03125L8.84375 0H12.25v-.60937c-1.5-.10938-1.5625-.15626-1.5625-1.21875v-13.64063l-.15625-.10937-3.3125.51562v.54688l.79688.0625c.54687.0625.67187.17187.67187.98437v3.4375c-.57812-.3125-1.35937-.51562-2.3125-.51562-1.73437 0-3.03125.5625-3.89062 1.45312-.89063.9375-1.45313 2.32813-1.45313 4.15625m2.1875-.25c0-2.71875.98438-4.625 3.125-4.625.98438 0 1.79688.45313 2.17188 1.32813.17187.34375.17187.67187.17187 1.21875v3.6875c0 .46875 0 .82812-.125 1.1875C8.14063-1.29687 7.21875-.875 6.125-.875c-1.92187 0-2.90625-1.89062-2.90625-4.3125m0 0"/><path id="b" d="M1.03125-5.07812C1.03125-1.75 2.45313.25 5.875.25c2.32813 0 3.53125-1.29687 4.09375-2.95312l-.625-.32813C8.76563-1.8125 7.95313-.82812 6.29688-.82812c-2.60938 0-3.125-2.5-3.07813-4.6875h6.04688c.45312 0 .82812-.10938.82812-.8125 0-1.21875-.39062-4.21875-4.23437-4.21875-3.29688 0-4.82813 2.32812-4.82813 5.46875m2.20313-1.25c0-.85938.3125-3.48438 2.51562-3.48438 1.9375 0 2.15625 2 2.15625 2.8125 0 .40625-.125.67188-.71875.67188Zm0 0"/><path id="c" d="M.64063-9.45312h1.53125v7.3125C2.17188 0 3.75.25 4.48438.25c1.07812 0 2.07812-.54687 2.6875-.92187l-.15625-.4375c-.51563.1875-.95313.26562-1.5.26562-.71875 0-1.375-.51562-1.375-2.10937v-6.5h2.70312v-.84375H4.14063v-2.64063h-.60938L2.25-10.29687H.64063Zm0 0"/><path id="d" d="M1.8125-5.92187c0 4.73437 1.0625 9.9375 5.51563 10.125v-.625c-1.5-.29688-3.84375-2.14063-3.84375-9.5 0-7.3125 2.23437-9.15625 3.84375-9.5v-.625c-4.45313.1875-5.51563 5.39062-5.51563 10.125m0 0"/><path id="e" d="M0-13.85937h6.5l-.84375 1.375.59375.51562c.85938-.95312 1.84375-1.59375 3.14063-2.15625v-.79687C8.0625-15.48437 7.10938-16.125 6.25-17.07812l-.59375.51562.84375 1.375-6.5-.03125Zm0 0"/><path id="f" d="M2.45313-1.40625C2.45313-.42187 2.875.25 4.0625.25c2.01563 0 4.23438-2.21875 5.48438-4.65625h.03125l-.6875 2.39063c-.10938.42187-.17188.78125-.17188 1.09375 0 .75.35938 1.17187 1.14063 1.17187 1.51562 0 2.76562-1.4375 3.5-3l-.48438-.3125c-.42187.71875-1.375 2.21875-1.95312 2.21875-.26563 0-.375-.1875-.375-.46875 0-.1875.04687-.40625.10937-.65625l2.26563-8.57812-1.89063.25c-.59375 2.14062-.95312 3.26562-1.48437 4.53125-.92188 2.125-2.75 4.92187-4.5 4.92187-.4375 0-.67188-.26562-.67188-.82812 0-.26563.04688-.60938.15625-1.01563l2.01563-7.75-.10938-.10937-3.82812.57812-.125.51563 1.3125.10937c.3125.03125.42187.15625.42187.40625 0 .15625-.04687.35938-.10937.60938L2.65625-2.79687c-.125.5-.20312.96875-.20312 1.39062m0 0"/><path id="g" d="m1.07813 2.5625.39062.40625c1.0625-.98437 2.57813-2.39062 2.57813-4.04687 0-1.10938-.60938-1.89063-1.40625-1.89063-.65625 0-1.04688.51563-1.04688 1.04688 0 .76562.6875 1.15625.6875 2.0625C2.28125 1 1.75 1.82813 1.07813 2.5625m.39062-11.5c0 .76563.51563 1.34375 1.32813 1.34375.82812 0 1.29687-.57812 1.3125-1.34375 0-.78125-.48438-1.35937-1.3125-1.35937-.8125 0-1.32813.57812-1.32813 1.35937m0 0"/><path id="h" d="M2.45313-9.45312 3.75-9.34375c.3125.03125.40625.14063.40625.39063 0 .15625-.01562.34375-.09375.625L2.79688-2.5c-.09375.40625-.14063.73438-.14063 1.04688C2.65625-.26562 3.28125.25 4.25.25c1.8125 0 3.60938-1.6875 5.0625-3.625 1.4375-1.92187 2.4375-4.25 2.46875-5.54687 0-.8125-.46875-1.625-.65625-1.625-.51562 0-1.09375.17187-1.54687.45312.20312.73438.28125 1.51563.28125 2.60938C9.67188-4.625 6.96875-.84375 5.26563-.84375c-.46875 0-.75-.29687-.75-.90625 0-.15625.01562-.34375.0625-.54687l1.82812-8.14063-.10937-.10937-3.70313.57812Zm0 0"/><path id="i" d="M1.25 3.57813v.625c4.45313-.1875 5.51563-5.39063 5.51563-10.125s-1.0625-9.9375-5.51563-10.125v.625c1.60938.34375 3.84375 2.1875 3.84375 9.5 0 7.35937-2.34375 9.20312-3.84375 9.5m0 0"/><path id="j" d="M1.78125-3h11.5625v-1.21875H1.78125Zm0-4.625h11.5625v-1.21875H1.78125Zm0 0"/><path id="k" d="M2.5625-5.92187c0 16.45312 1.48438 27.6875 6.17188 29.5v-.65626c-3.15625-2.96874-4.25-14.90624-4.25-28.84374 0-13.60938 1.03125-25.89063 4.25-28.85938v-.64062c-4.51563 1.95312-6.17188 12.75-6.17188 29.5m0 0"/><path id="l" d="M1.78125-5.3125h11.5625v-1.23437H1.78125Zm0 0"/><path id="m" d="M2.28125 0H9.1875v-.60937L7.42188-.76563c-.45313-.03124-.70313-.1875-.70313-1.01562v-12.39062l-.10937-.10938-4.32813.73438v.51562l1.96875.25c.35938.04688.48438.20313.48438.8125v10.1875c0 .82813-.20313.98438-.6875 1.01563l-1.76563.15624Zm0 0"/><path id="n" d="M.5625-2.14062C.5625-1.25 2.01563.25 4.98438.25 8.01563.25 9.9375-1.29687 9.9375-3.98437c0-2.8125-2.40625-3.64063-3.5625-3.75v-.07813C7.5-8 9.3125-8.84375 9.3125-10.92187c0-2.32813-1.8125-3.35938-4.0625-3.35938-2.76562 0-4.14062 1.60938-4.14062 2.5 0 .65625.75 1.01563 1.03125 1.01563.26562 0 .42187-.15625.51562-.42188.46875-1.4375 1.25-2.35937 2.4375-2.35937 1.65625 0 2.07813 1.45312 2.07813 2.64062 0 1.25-.45313 2.84375-2.23438 2.84375-1 0-1.59375-.20312-1.82812-.20312-.26563 0-.39063.20312-.39063.57812 0 .35938.125.57813.39063.57813.23437 0 .82812-.20313 1.82812-.20313 1.78125 0 2.79688 1.60938 2.79688 3.45313 0 2.5-1.23438 3.375-2.73438 3.375-1.375 0-2.29687-1.03125-2.70312-2.21875-.125-.40625-.32813-.60938-.625-.60938-.375 0-1.10938.40625-1.10938 1.17188m0 0"/><path id="o" d="M.98438 22.92188v.65624c4.6875-1.8125 6.17187-13.04687 6.17187-29.5 0-16.75-1.65625-27.54687-6.17187-29.5v.64063c3.21875 2.96875 4.25 15.25 4.25 28.85938 0 13.9375-1.09375 25.875-4.25 28.84375m0 0"/><path id="p" d="M.5625-.20312.78125 0h8.6875l.71875-2.76562-.57812-.10938c-.45313 1.125-.875 1.28125-1.71875 1.28125H2.53125C2.85938-2.6875 4.10938-4.17187 6.0625-5.57812 8.0625-7.0625 9.625-8 9.625-10.34375c0-2.92187-1.9375-3.9375-4.15625-3.9375-2.875 0-4.35937 1.75-4.35937 2.84375 0 .71875.8125 1.04688 1.17187 1.04688.375 0 .51563-.21875.59375-.57813.34375-1.4375 1.17188-2.57812 2.46875-2.57812 1.60938 0 2.07813 1.34375 2.07813 2.89062 0 2.25-1.14063 3.53125-2.96875 5.14063-2.59375 2.25-3.5 3.6875-3.89063 5.3125m0 0"/><path id="q" d="M.92188-6.48437C.92188-1.9375 2.5625.25 5.71875.25c3.10938 0 4.76563-1.875 4.76563-4.73437 0-2.84375-1.75-4.39063-4-4.39063-1.65625 0-2.89063 1.125-3.45313 1.8125.03125-4.625 1.29688-6.48437 3.20313-6.48437.95312 0 1.65625.8125 1.96875 2.01562.0625.25.21875.45313.53125.45313.46875 0 1.125-.39063 1.125-.96875 0-.84375-1.03125-2.23438-3.5625-2.23438-3.32813 0-5.375 2.57813-5.375 7.79688m2.10937 1.53125c0-1.28125.96875-2.84375 2.73438-2.84375 1.3125 0 2.60937 1.20312 2.60937 3.625 0 2.20312-.84375 3.6875-2.60937 3.6875-1.82813 0-2.73438-1.95313-2.73438-4.46875m0 0"/><path id="r" d="m3.03125-2.28125.875.875 3.64063-3.67187 3.67187 3.67187.84375-.875-3.64062-3.64062 3.64062-3.65625-.84375-.85938-3.67187 3.64063-3.64063-3.64063-.875.85938 3.67188 3.65625Zm0 0"/><path id="s" d="M.875-7.01562C.875-2.8125 2.09375.25 5.5625.25s4.71875-3.0625 4.71875-7.26562-1.25-7.26563-4.71875-7.26563S.875-11.21875.875-7.01562m2.125 0c0-3.42188.57813-6.53125 2.5625-6.53125 1.98438 0 2.57813 3.10937 2.57813 6.53125S7.54688-.48437 5.5625-.48437 3-3.59375 3-7.01562m0 0"/></defs><use xlink:href="#a" x="7.5887" y="43.48744"/><use xlink:href="#b" x="20.14271" y="43.48744"/><use xlink:href="#c" x="30.93201" y="43.48744"/><use xlink:href="#d" x="38.14745" y="43.48744"/><use xlink:href="#e" x="50.3001" y="43.24305"/><use xlink:href="#f" x="46.72606" y="43.48744"/><use xlink:href="#g" x="61.46919" y="43.48744"/><use xlink:href="#e" x="72.1928" y="43.24305"/><use xlink:href="#h" x="69.51339" y="43.48744"/><use xlink:href="#i" x="82.67052" y="43.48744"/><use xlink:href="#j" x="107.03114" y="42.85166"/><use xlink:href="#a" x="126.49779" y="42.85166"/><use xlink:href="#b" x="139.0518" y="42.85166"/><use xlink:href="#c" x="149.8411" y="42.85166"/><use xlink:href="#k" x="159.53865" y="42.85166"/><use xlink:href="#k" x="169.25571" y="42.85166"/><use xlink:href="#l" x="178.97167" y="28.88957"/><use xlink:href="#m" x="194.07222" y="28.88957"/><use xlink:href="#n" x="186.52335" y="55.6949"/><use xlink:href="#o" x="205.19852" y="42.85166"/><use xlink:href="#g" x="233.36486" y="40.59552"/><use xlink:href="#k" x="257.37717" y="42.85166"/><use xlink:href="#p" x="274.64424" y="28.88957"/><use xlink:href="#l" x="267.09256" y="55.6949"/><use xlink:href="#q" x="282.19311" y="55.6949"/><use xlink:href="#o" x="293.31941" y="42.85166"/><use xlink:href="#o" x="303.03648" y="42.85166"/><use xlink:href="#j" x="107.03114" y="106.40916"/><use xlink:href="#l" x="126.48761" y="106.40916"/><use xlink:href="#m" x="141.58816" y="106.40916"/><use xlink:href="#r" x="155.81753" y="106.40916"/><use xlink:href="#d" x="174.02307" y="106.40916"/><use xlink:href="#l" x="182.6009" y="106.40916"/><use xlink:href="#q" x="197.70145" y="106.40916"/><use xlink:href="#i" x="208.82581" y="106.40916"/><use xlink:href="#l" x="220.50863" y="106.40916"/><use xlink:href="#p" x="238.71418" y="106.40916"/><use xlink:href="#r" x="252.9212" y="106.40916"/><use xlink:href="#n" x="271.12675" y="106.40916"/><use xlink:href="#j" x="107.03114" y="139.28259"/><use xlink:href="#s" x="126.48761" y="139.28259"/><path fill="none" stroke="#007F7F" stroke-miterlimit="10" stroke-width=".39712" d="m212.76562 24.22266 42.72266 23.23828"/><path fill="#007F7F" stroke="#007F7F" stroke-miterlimit="10" stroke-width=".39709" d="M258.84765 49.28516c-.35156-.33203-1.82421-1.94922-2.58593-3.25l-1.54688 2.84765c1.5039-.0664 3.66016.28907 4.13281.40235Zm0 0"/><path fill="none" stroke="#007F7F" stroke-miterlimit="10" stroke-width=".39712" d="M216.77734 47.46094 259.5 24.22266"/><path fill="#007F7F" stroke="#007F7F" stroke-miterlimit="10" stroke-width=".39709" d="M213.41797 49.28516c.47266-.11328 2.6289-.46875 4.13281-.40235l-1.54687-2.84765c-.76172 1.30078-2.23438 2.91797-2.58594 3.25Zm0 0"/></svg>