<svg xmlns="http://www.w3.org/2000/svg" xmlns:xlink="http://www.w3.org/1999/xlink" width="287.406pt" height="276.798pt" viewBox="0 0 287.406 276.798"><defs><path id="b" d="M-8.0625-13.98437h4.28125l-.84375 1.34375.59375.53125c.85938-.9375 1.84375-1.60938 3.14063-2.17188v-.57812c-1.32813-.5625-2.28125-1.23438-3.14063-2.17188l-.59375.57813.84375 1.34374H-8.0625Zm0 0"/><path id="c" d="M2.46875-.96875c0 .75.34375 1.21875 1.20313 1.21875 1.51562 0 2.6875-1.4375 3.40625-3.03125L6.5625-3.0625c-.39062.73438-1.29687 2.21875-1.89062 2.21875-.23438 0-.32813-.15625-.32813-.4375 0-.20312.04688-.4375.10938-.70312L6.75-10.45312l-.10937-.10938-3.82813.57813-.125.51562 1.20313.10938c.39062.03125.54687.14062.54687.4375 0 .125-.03125.3125-.09375.53125L2.57813-1.8125c-.09375.3125-.10938.57813-.10938.84375m2.70313-12.6875c0 .79688.53125 1.1875 1.15625 1.1875.82812 0 1.34375-.54687 1.34375-1.40625 0-.82812-.5625-1.15625-1.14063-1.15625-.89062 0-1.35937.71875-1.35937 1.375m0 0"/><path id="d" d="M-1.5625 3.73438c0 1.125 1.46875 1.34375 2.23438 1.34375.6875 0 1.35937-.21875 1.875-.6875.96875-.875 1.54687-2.21875 2.10937-4.75l2.1875-10.09375-.10937-.10938-4 .625-.14063.54688c1.39063.0625 1.85938.10937 1.85938.4375 0 .15625-.01563.29687-.0625.46875L1.92188 3.32813c-.125.65625-.3125.96875-.57813.96875C.5 4.29688.0625 2.65625-.5625 2.65625c-.53125 0-1 .67188-1 1.07813m6.42188-17.39063c0 .79688.53125 1.1875 1.15625 1.1875.82812 0 1.34375-.54687 1.34375-1.40625 0-.82812-.5625-1.15625-1.14063-1.15625-.89062 0-1.35937.71875-1.35937 1.375m0 0"/><path id="f" d="M0-13.875h6.51563L5.65625-12.5l.60938.5c.84375-.9375 1.82812-1.57812 3.125-2.14062v-.8125c-1.3125-.54688-2.28125-1.20313-3.125-2.14063l-.60938.51563.85938 1.35937L0-15.23437Zm0 0"/><path id="g" d="M1.48438-2.26562C1.48438-1 2.0625.25 3.48438.25 5.75.25 7.70313-2.34375 8.92188-4.5h.04687L8.25-2.10937c-.125.46875-.21875.875-.21875 1.21875C8.03125-.15626 8.39063.25 9.17188.25c1.59375 0 2.78125-1.4375 3.5-3.03125l-.5-.28125c-.375.73438-1.3125 2.21875-1.90625 2.21875-.23438 0-.32813-.15625-.32813-.40625 0-.20312.0625-.45312.125-.73437l2.21875-8.39063h-1.76562l-.09375.26563c-.35938-.25-.98438-.45313-1.53125-.45313-5.01563 0-7.40625 5.53125-7.40625 8.29688m2.07812-.03125c0-2.3125 2.04688-7.53125 5.35938-7.53125.51562 0 .96875.1875 1.28125.46875-.375 1.57812-1.125 3.65625-2.23438 5.32812-1.1875 1.79688-2.48437 3.1875-3.5 3.1875-.6875 0-.90625-.64062-.90625-1.45312m0 0"/><path id="h" d="M1.82813 0h.76562L3.25-1.23437C3.625-.35937 4.67188.25 5.89063.25c2.45312 0 4.25-1.64062 5.28125-3.5 1.04687-1.84375 1.375-3.70312 1.375-4.64062 0-1.57813-.67188-2.67188-2.23438-2.67188-1.59375 0-3.6875 1.45313-5.29687 4.34375h-.04688L7.29688-15.5l-.09375-.09375-3.75.48438-.14063.5 1.1875.125c.35938.04687.51563.125.51563.4375 0 .15625-.03125.32812-.09375.59375ZM4.4375-2.28125c0-1.01562.4375-2.46875 1.10938-3.6875.9375-1.6875 2.53125-3.5 3.82812-3.5.78125 0 1.125.54688 1.125 1.75C10.5-6.20312 9.23438-.5 6.15625-.5 5.07813-.5 4.4375-1.23437 4.4375-2.28125m0 0"/><path id="j" d="M1.79688-3.10937C1.79688-.53125 3.32813.25 4.8125.25c1.5625 0 3.32813-.67187 4.78125-3.09375L9.07813-3.25C8.375-2.28125 7.14063-.78125 5.73438-.78125c-1.54688 0-1.85938-1.25-1.85938-2.75 0-2.73437 1.57813-6.29687 3.51563-6.29687.67187 0 1.14062.4375 1.26562 1.6875.04688.375.23438.625.60938.625.51562 0 1.34375-.46875 1.34375-1.17188 0-1.0625-1.14063-1.875-2.71875-1.875-3.73438 0-6.09375 4-6.09375 7.45313m0 0"/><clipPath id="a"><path d="M0 24h286.8125v240H0Zm0 0"/></clipPath><clipPath id="e"><path d="M0 238h286.8125v2H0Zm0 0"/></clipPath><clipPath id="i"><path d="M113 .1836h58V98h-58Zm0 0"/></clipPath></defs><g clip-path="url(#a)"><path fill="none" stroke="#000" stroke-miterlimit="10" stroke-opacity=".5" stroke-width=".39768" d="M.19923 239.0625h286.41783M.19923 191.32815h286.41783M.19923 143.58989h286.41783M.19923 95.85163h286.41783M.19923 48.11728h286.41783M24.0664 262.92968V24.2501m47.73825 238.67957V24.2501M119.539 262.92967V24.2501m47.73826 238.67957V24.2501m47.73435 238.67957V24.2501m47.73826 238.67957V24.2501"/></g><use xlink:href="#b" x="52.81909" y="263.98993"/><use xlink:href="#c" x="43.64679" y="268.70968"/><use xlink:href="#b" x="17.30449" y="218.81231"/><use xlink:href="#d" x="8.35673" y="223.53205"/><g clip-path="url(#e)"><path fill="none" stroke="#000" stroke-miterlimit="10" stroke-width=".39768" d="M.19923 239.0625h286.41783"/></g><path fill="none" stroke="#000" stroke-miterlimit="10" stroke-width=".39768" d="M24.0664 262.92968V24.2501"/><path fill="none" stroke="#000" stroke-miterlimit="10" stroke-width=".79537" d="M24.0664 239.0625h41.5664"/><path stroke="#000" stroke-miterlimit="10" stroke-width=".79537" d="M69.78906 239.0625c-.51172-.10547-2.7539-.70703-4.15625-1.35937v2.72265c1.40235-.65625 3.64453-1.25781 4.15625-1.36328Zm0 0"/><path fill="none" stroke="#000" stroke-miterlimit="10" stroke-width=".79537" d="M24.0664 239.0625v-41.56248"/><path stroke="#000" stroke-miterlimit="10" stroke-width=".79537" d="M24.0664 193.34375c-.10546.50781-.70702 2.7539-1.35937 4.15625h2.72266c-.65625-1.40234-1.25781-3.64844-1.36328-4.15625Zm0 0"/><path fill="none" stroke="#007F7F" stroke-miterlimit="10" stroke-width=".39768" d="m71.80466 191.32815 44.49998-44.50389"/><path fill="#007F7F" stroke="#007F7F" stroke-miterlimit="10" stroke-width=".39768" d="M119.01563 144.11328c-.42188.2461-2.39063 1.19922-3.85547 1.5625l2.29297 2.29688c.36328-1.46485 1.3203-3.4336 1.5625-3.85938Zm0 0"/><use xlink:href="#f" x="105.93406" y="192.46376" fill="#007F7F"/><use xlink:href="#g" x="103.56296" y="192.71075" fill="#007F7F"/><path fill="none" stroke="#007F7F" stroke-miterlimit="10" stroke-width=".39768" d="m262.74988 191.32815-91.38277-45.69139"/><path fill="#007F7F" stroke="#007F7F" stroke-miterlimit="10" stroke-width=".39765" d="M167.9414 143.92187c.36329.32422 1.89454 1.89063 2.69922 3.16407l1.45313-2.90235c-1.5039.1211-3.67578-.16406-4.15234-.26172Zm0 0"/><use xlink:href="#f" x="225.79109" y="154.04292" fill="#007F7F"/><use xlink:href="#h" x="222.88335" y="159.32176" fill="#007F7F"/><g clip-path="url(#i)"><path fill="none" stroke="#007F7F" stroke-miterlimit="10" stroke-width=".39768" d="M119.53901.37902 165.2304 91.7618"/></g><path fill="#007F7F" stroke="#007F7F" stroke-miterlimit="10" stroke-width=".39765" d="M166.94531 95.1875c-.09765-.47656-.38281-2.64453-.26172-4.14844l-2.90234 1.44922c1.27344.8086 2.83984 2.33594 3.16406 2.69922Zm0 0"/><use xlink:href="#f" x="152.85633" y="39.75562" fill="#007F7F"/><use xlink:href="#j" x="151.29132" y="40.00037" fill="#007F7F"/></svg>