<svg xmlns="http://www.w3.org/2000/svg" xmlns:xlink="http://www.w3.org/1999/xlink" width="87.385pt" height="101.597pt" viewBox="0 0 87.385 101.597"><defs><path id="a" d="M-8.01562-13.92187h4.25l-.84375 1.34375.59375.53125c.85937-.9375 1.82812-1.60938 3.125-2.15625v-.57813c-1.3125-.5625-2.26563-1.23437-3.125-2.15625l-.59375.57813.84375 1.32812h-4.25Zm0 0"/><path id="b" d="M2.45313-.95312C2.45313-.21876 2.8125.25 3.65625.25c1.51563 0 2.67188-1.4375 3.375-3.01562l-.5-.28125c-.39062.73437-1.29687 2.20312-1.875 2.20312-.25 0-.34375-.15625-.34375-.42187 0-.20313.04688-.45313.125-.71875l2.28125-8.40625-.10937-.125-3.79688.57812-.14062.51563L3.875-9.3125c.375.03125.53125.14063.53125.42188 0 .14062-.01562.3125-.09375.54687l-1.75 6.54688c-.09375.3125-.10937.57812-.10937.84375m2.6875-12.625c0 .78125.53125 1.17187 1.15625 1.17187.82812 0 1.34375-.54687 1.34375-1.40625 0-.8125-.5625-1.15625-1.14063-1.15625-.89062 0-1.35937.71875-1.35937 1.39063m0 0"/><path id="c" d="M-1.5625 3.71875c0 1.10938 1.46875 1.32813 2.23438 1.32813.6875 0 1.35937-.21875 1.85937-.6875C3.5 3.5 4.07813 2.15625 4.625-.35937l2.1875-10.03125-.10937-.125-3.98438.625-.14062.53125c1.39062.07812 1.85937.125 1.85937.45312 0 .15625-.03125.29688-.07812.46875l-2.4375 11.75c-.14063.65625-.3125.96875-.57813.96875-.85937 0-1.28125-1.625-1.90625-1.625-.53125 0-1 .65625-1 1.0625m6.39063-17.29687c0 .78125.53125 1.17187 1.15625 1.17187.82812 0 1.34375-.54687 1.34375-1.40625 0-.8125-.5625-1.15625-1.14063-1.15625-.89062 0-1.35937.71875-1.35937 1.39063m0 0"/><clipPath id="d"><path d="M69 51h17.77344v26H69Zm0 0"/></clipPath><clipPath id="e"><path d="M10 .15625h26V18H10Zm0 0"/></clipPath></defs><use xlink:href="#a" x="59.57894" y="88.68139"/><use xlink:href="#b" x="50.45193" y="93.37783"/><use xlink:href="#a" x="16.32238" y="35.80949"/><use xlink:href="#c" x="7.41879" y="40.50594"/><path fill="none" stroke="red" stroke-miterlimit="10" stroke-width=".39571" d="M23.05078 63.8789h12.66797V51.21095H23.05078v12.66797"/><path fill="none" stroke="#000" stroke-miterlimit="10" stroke-width=".79144" d="M23.05078 63.8789h57.1953"/><path d="M84.38281 63.8789c-.50781-.10546-2.74219-.70703-4.13672-1.35546v2.70703c1.39454-.64844 3.62891-1.2461 4.13672-1.35156m0 0"/><g clip-path="url(#d)"><path fill="none" stroke="#000" stroke-miterlimit="10" stroke-width=".79144" d="M84.38281 63.8789c-.50781-.10546-2.74219-.70702-4.13672-1.35546v2.70703c1.39453-.64844 3.6289-1.2461 4.13672-1.35156Zm0 0"/></g><path fill="none" stroke="#000" stroke-miterlimit="10" stroke-width=".79144" d="M23.05078 63.8789V6.68363"/><path d="M23.05078 2.54688c-.10547.5078-.70312 2.74218-1.35547 4.13671h2.71094c-.65234-1.39453-1.25-3.6289-1.35547-4.13671m0 0"/><g clip-path="url(#e)"><path fill="none" stroke="#000" stroke-miterlimit="10" stroke-width=".79144" d="M23.05078 2.54688c-.10547.5078-.70312 2.74218-1.35547 4.13671h2.71094c-.65234-1.39453-1.25-3.6289-1.35547-4.13671Zm0 0"/></g></svg>