<svg xmlns="http://www.w3.org/2000/svg" xmlns:xlink="http://www.w3.org/1999/xlink" width="526.579pt" height="526.579pt" viewBox="0 0 526.579 526.579"><defs><path id="b" d="M-8.0625-14h4.28125l-.85937 1.34375.60937.54688c.85938-.9375 1.84375-1.60938 3.14063-2.17188v-.59375c-1.32813-.54687-2.28125-1.21875-3.14063-2.17187l-.60937.59374.85937 1.34376H-8.0625Zm0 0"/><path id="c" d="M2.46875-.96875c0 .75.35938 1.21875 1.20313 1.21875 1.51562 0 2.6875-1.4375 3.40625-3.03125L6.5625-3.0625c-.375.73438-1.29687 2.21875-1.89062 2.21875-.23438 0-.32813-.15625-.32813-.4375 0-.20312.04688-.4375.10938-.71875l2.3125-8.45312-.10938-.10938-3.82812.57813-.14063.51562 1.20313.10938c.39062.01562.54687.14062.54687.42187 0 .14063-.03125.3125-.09375.54688L2.57813-1.8125c-.09375.3125-.10938.57813-.10938.84375m2.70313-12.6875c0 .78125.53125 1.1875 1.17187 1.1875.82813 0 1.34375-.5625 1.34375-1.40625 0-.82812-.5625-1.17187-1.15625-1.17187-.89062 0-1.35937.71875-1.35937 1.39062m0 0"/><path id="d" d="M-1.5625 3.73438c0 1.125 1.46875 1.34375 2.23438 1.34375.6875 0 1.35937-.21875 1.875-.6875.96875-.875 1.54687-2.21875 2.10937-4.75l2.1875-10.09375-.10937-.10938-4 .625-.14063.53125c1.39063.0625 1.85938.10938 1.85938.45313 0 .15625-.01563.28125-.0625.46875L1.92188 3.34375c-.125.64063-.3125.95313-.57813.95313-.84375 0-1.28125-1.625-1.90625-1.625-.53125 0-1 .67187-1 1.0625m6.42188-17.39063c0 .78125.53125 1.1875 1.15625 1.1875.82812 0 1.34375-.5625 1.34375-1.40625 0-.82812-.54688-1.17187-1.14063-1.17187-.89062 0-1.35937.71875-1.35937 1.39062m0 0"/><path id="e" d="M.67188-5.6875c0 3.46875 2 6 6.17187 6 3.71875 0 5.53125-1.90625 6.70313-3.98437 1.14062-2.0625 1.34375-4.20313 1.34375-5.03125 0-4.32813-2.625-6.1875-6.09375-6.1875-3.35938 0-5.4375 1.85937-6.67188 3.875C.96875-9.0625.67188-7.07812.67188-5.6875m2.21875.84375c0-1.76562.32812-3.73437 1.29687-5.76562.96875-2 2.46875-3.54688 4.70313-3.54688 2.29687 0 3.78125 1.375 3.78125 4.34375 0 1.21875-.10938 2.9375-.98438 5.17188C10.8125-2.375 9.375-.42187 6.65625-.42187c-2.29687 0-3.76562-1.48438-3.76562-4.42188m0 0"/><clipPath id="a"><path d="M0 0h526.16016v526.16016H0Zm0 0"/></clipPath><clipPath id="f"><path d="M0 262h526.16016v2H0Zm0 0"/></clipPath><clipPath id="g"><path d="M262 0h2v526.16016h-2Zm0 0"/></clipPath></defs><g clip-path="url(#a)"><path fill="none" stroke="#000" stroke-miterlimit="10" stroke-opacity=".5" stroke-width=".39818" d="M.19535 502.06247h525.76946M.19535 454.2656h525.76946M.19535 406.46873h525.76946M.19535 358.67186h525.76946M.19535 310.875h525.76946M.19535 263.07813h525.76946M.19535 215.28126h525.76946M.19535 167.48439h525.76946M.19535 119.68752h525.76946M.19535 71.89065h525.76946M.19535 24.09378h525.76946M24.09378 525.9609V.19535M71.89065 525.9609V.19535m47.79687 525.76555V.19535m47.79687 525.76555V.19535m47.79687 525.76555V.19535m47.79687 525.76555V.19535m47.79686 525.76555V.19535m47.79687 525.76555V.19535m47.80078 525.76555V.19535M454.2695 525.9609V.19535m47.79686 525.76555V.19535"/></g><use xlink:href="#b" x="291.86665" y="288.03721"/><use xlink:href="#c" x="282.68499" y="292.76294"/><use xlink:href="#b" x="256.30833" y="242.80238"/><use xlink:href="#d" x="247.34924" y="247.5281"/><use xlink:href="#e" x="239.59944" y="285.88643"/><g clip-path="url(#f)"><path fill="none" stroke="#000" stroke-miterlimit="10" stroke-width=".39818" d="M.19535 263.07813h525.76946"/></g><g clip-path="url(#g)"><path fill="none" stroke="#000" stroke-miterlimit="10" stroke-width=".39818" d="M263.07813 525.9609V.19535"/></g><path fill="none" stroke="#000" stroke-miterlimit="10" stroke-width=".79637" d="M263.07813 263.07813h41.61718"/><path stroke="#000" stroke-miterlimit="10" stroke-width=".79637" d="M308.85937 263.07813c-.51171-.10547-2.7578-.70704-4.16406-1.36329v2.72657c1.40625-.65625 3.65235-1.25782 4.16406-1.36328Zm0 0"/><path fill="none" stroke="#000" stroke-miterlimit="10" stroke-width=".79637" d="M263.07813 263.07813v-41.61719"/><path stroke="#000" stroke-miterlimit="10" stroke-width=".79637" d="M263.07813 217.30078c-.10547.51172-.70704 2.75781-1.36329 4.16016h2.72657c-.65235-1.40235-1.25391-3.64844-1.36328-4.16016Zm0 0"/></svg>