<svg xmlns="http://www.w3.org/2000/svg" xmlns:xlink="http://www.w3.org/1999/xlink" width="185.613pt" height="85.214pt" viewBox="0 0 185.613 85.214"><defs><path id="a" d="M.59375-2.82812c0 1.78125.9375 2.96875 2.53125 2.96875.64063 0 1.20313-.29688 1.85938-.82813v.59375L5.07813 0h1.95312v-.34375C6.17188-.40625 6.125-.4375 6.125-1.04687V-8.875l-.07812-.0625-1.90625.29688v.29687l.46875.04688c.29687.03125.375.09375.375.5625v1.96875c-.32813-.17188-.78125-.29688-1.32813-.29688-.98437 0-1.73437.32813-2.23437.84375C.90625-4.6875.59375-3.89062.59375-2.82812m1.25-.14063c0-1.57812.5625-2.65625 1.79688-2.65625.5625 0 1.03125.25 1.25.75.09375.20313.09375.39063.09375.70313v2.125c0 .26562 0 .46875-.07813.67187-.23437.625-.76562.875-1.39062.875-1.10938 0-1.67188-1.09375-1.67188-2.46875m0 0"/><path id="b" d="M.59375-2.90625C.59375-1 1.40625.14063 3.375.14063c1.32813 0 2.03125-.75 2.34375-1.6875L5.35938-1.75C5.03125-1.04687 4.5625-.46875 3.625-.46875c-1.51562 0-1.79687-1.4375-1.78125-2.70312h3.48438c.25 0 .46875-.0625.46875-.45313 0-.70312-.23438-2.4375-2.4375-2.4375-1.89063 0-2.76563 1.34375-2.76563 3.15625M1.85938-3.625c0-.5.1875-2 1.4375-2 1.10937 0 1.25 1.14063 1.25 1.60938 0 .23437-.07813.39062-.42188.39062Zm0 0"/><path id="c" d="M.375-5.42187h.875v4.1875C1.25 0 2.15625.14063 2.57813.14063c.60937 0 1.1875-.3125 1.54687-.53125l-.09375-.25c-.29687.10937-.5625.15624-.85937.15624-.40625 0-.79688-.29687-.79688-1.20312v-3.73437h1.54688v-.48438H2.375v-1.51562h-.34375l-.73437 1.51562H.375Zm0 0"/><path id="d" d="M1.04688-3.40625c0 2.71875.60937 5.71875 3.15625 5.8125v-.35937C3.34375 1.89063 2 .82813 2-3.40625c0-4.1875 1.28125-5.25 2.20313-5.4375v-.35937C1.65625-9.10937 1.04688-6.125 1.04688-3.40625m0 0"/><path id="e" d="M0-7.95312h3.73438L3.25-7.17187l.34375.29687c.48438-.54687 1.04688-.90625 1.79688-1.23437v-.45313c-.76563-.32812-1.3125-.70312-1.79688-1.23437L3.25-9.5l.48438.78125L0-8.73437Zm0 0"/><path id="f" d="M1.40625-.8125c0 .5625.25.95313.92188.95313 1.15625 0 2.4375-1.26563 3.15625-2.67188H5.5l-.39062 1.375C5.04688-.90625 5-.70312 5-.53125c0 .42188.20313.67188.65625.67188.875 0 1.59375-.82813 2.01563-1.71875L7.39063-1.75c-.25.40625-.78125 1.26563-1.125 1.26563-.14063 0-.20313-.10938-.20313-.26563 0-.10937.01563-.23437.0625-.375l1.29688-4.9375-1.07813.15625c-.35937 1.21875-.5625 1.85938-.85937 2.59375C4.95313-2.09375 3.90625-.48437 2.90625-.48437c-.26562 0-.39062-.15625-.39062-.48438 0-.14062.03125-.34375.09375-.57812l1.15625-4.4375-.07813-.07813L1.5-5.71875l-.07812.29688.76562.0625c.17188.01562.23438.09375.23438.23437 0 .07813-.01563.20313-.0625.34375l-.82813 3.17188c-.07812.28124-.125.5625-.125.79687m0 0"/><path id="g" d="m.60938 1.46875.23437.23438c.60938-.5625 1.48438-1.375 1.48438-2.3125 0-.64063-.35938-1.09375-.8125-1.09375-.375 0-.60938.29687-.60938.59375 0 .4375.40625.67187.40625 1.1875 0 .5-.3125.96875-.70312 1.39062M.84375-5.125c0 .4375.29688.76563.76563.76563s.73437-.32813.75-.76563c0-.45312-.28125-.78125-.75-.78125s-.76563.32813-.76563.78125m0 0"/><path id="h" d="m1.40625-5.42187.75.0625c.17188.01562.23438.07812.23438.21875 0 .09375-.01563.20312-.0625.35937L1.60938-1.4375c-.0625.23438-.07813.42188-.07813.60938 0 .67187.35938.96875.90625.96875 1.03125 0 2.07813-.96875 2.90625-2.07813S6.75-4.375 6.76563-5.125c0-.46875-.28125-.9375-.375-.9375-.29688 0-.625.10938-.89063.26563.125.42187.15625.875.15625 1.5C5.54688-2.65625 4-.48437 3.03125-.48437c-.26562 0-.4375-.17188-.4375-.51563 0-.09375.01563-.20312.03125-.32812l1.0625-4.65625-.0625-.07813-2.14062.34375Zm0 0"/><path id="i" d="M.71875 2.04688v.35937C3.26563 2.3125 3.89063-.6875 3.89063-3.40625s-.625-5.70312-3.17188-5.79687v.35937c.92188.1875 2.20313 1.25 2.20313 5.4375 0 4.23438-1.34375 5.29688-2.20313 5.45313m0 0"/><path id="j" d="M1.03125-1.71875h6.625v-.70312h-6.625Zm0-2.65625h6.625v-.70312h-6.625Zm0 0"/><path id="k" d="M1.46875-3.40625c0 9.45313.85938 15.90625 3.54688 16.9375v-.375c-1.8125-1.70312-2.4375-8.54687-2.4375-16.5625 0-7.8125.59375-14.85937 2.4375-16.5625v-.35937c-2.59375 1.10937-3.54688 7.3125-3.54688 16.92187m0 0"/><path id="l" d="M1.03125-3.04687h6.625v-.71875h-6.625Zm0 0"/><path id="m" d="M1.3125 0h3.95313v-.34375l-1-.09375C4-.46875 3.85938-.54687 3.85938-1.03125v-7.10937l-.0625-.0625-2.48438.42187v.29688l1.125.14062c.20313.03125.28125.125.28125.46875v5.84375c0 .48438-.10937.5625-.39062.59375L1.3125-.34375Zm0 0"/><path id="n" d="M.32813-1.23437c0 .51562.82812 1.375 2.53125 1.375 1.75 0 2.84375-.89063 2.84375-2.42188 0-1.625-1.375-2.09375-2.04688-2.15625v-.04687c.65625-.10938 1.6875-.59375 1.6875-1.78125 0-1.34375-1.03125-1.9375-2.32812-1.9375-1.59375 0-2.375.92187-2.375 1.4375 0 .375.42187.57812.59375.57812.15624 0 .23437-.07812.29687-.23437C1.79688-7.25 2.25-7.78125 2.92188-7.78125c.95312 0 1.20312.84375 1.20312 1.51563 0 .71875-.26562 1.64062-1.29687 1.64062-.57813 0-.90625-.125-1.04688-.125-.15625 0-.21875.125-.21875.34375 0 .20313.0625.32813.21875.32813.14063 0 .46875-.10938 1.04688-.10938 1.03125 0 1.60937.92188 1.60937 1.96875 0 1.4375-.70312 1.9375-1.5625 1.9375-.79687 0-1.32812-.59375-1.54687-1.26562C1.25-1.78125 1.125-1.90625.96875-1.90625c-.21875 0-.64062.23438-.64062.67188m0 0"/><path id="o" d="M.5625 13.15625v.375C3.26563 12.5 4.10938 6.04688 4.10938-3.40625c0-9.60937-.95313-15.8125-3.54688-16.92187v.35937C2.40625-18.26562 3-11.21875 3-3.40625c0 8.01563-.625 14.85938-2.4375 16.5625m0 0"/><path id="p" d="M.32813-.10937.45313 0H5.4375l.40625-1.59375-.32812-.0625c-.25.65625-.5.75-.98438.75H1.45313c.1875-.64062.90625-1.5 2.01562-2.29687 1.15625-.84375 2.0625-1.39063 2.0625-2.73438 0-1.6875-1.125-2.26562-2.39062-2.26562-1.65625 0-2.5 1-2.5 1.64062 0 .40625.46875.59375.67187.59375.21875 0 .29688-.125.34375-.32812.1875-.82813.67188-1.48438 1.40625-1.48438.92188 0 1.20313.78125 1.20313 1.65625 0 1.29688-.65625 2.03125-1.71875 2.95313-1.48438 1.29687-2 2.125-2.21875 3.0625m0 0"/><path id="q" d="M.53125-3.71875c0 2.60938.9375 3.85938 2.75 3.85938 1.78125 0 2.73438-1.07813 2.73438-2.71875 0-1.625-1-2.51563-2.29688-2.51563-.95312 0-1.65625.64063-1.96875 1.04688 0-2.65625.73438-3.73438 1.82813-3.73438.54687 0 .95312.46875 1.125 1.15625.04687.14063.14062.26563.3125.26563.26562 0 .64062-.21875.64062-.5625 0-.48438-.59375-1.28125-2.03125-1.28125-1.92187 0-3.09375 1.48437-3.09375 4.48437m1.21875.875c0-.73437.54688-1.64062 1.5625-1.64062.75 0 1.5.70312 1.5 2.07812 0 1.28125-.48437 2.125-1.5 2.125-1.0625 0-1.5625-1.10937-1.5625-2.5625m0 0"/><path id="r" d="m1.75-1.3125.5.5 2.07813-2.09375L6.4375-.8125l.48438-.5-2.07813-2.09375L6.92188-5.5l-.48438-.48437-2.10937 2.07812L2.25-5.98437 1.75-5.5l2.09375 2.09375Zm0 0"/><path id="s" d="M.5-4.03125C.5-1.60937 1.20313.14063 3.1875.14063c2 0 2.71875-1.75 2.71875-4.17188 0-2.40625-.71875-4.17187-2.71875-4.17187C1.20313-8.20312.5-6.4375.5-4.03125m1.21875 0c0-1.95312.32813-3.75 1.46875-3.75 1.14063 0 1.48438 1.79688 1.48438 3.75 0 1.96875-.34375 3.75-1.48438 3.75-1.14062 0-1.46875-1.78125-1.46875-3.75m0 0"/></defs><use xlink:href="#a" x="4.93402" y="24.98356"/><use xlink:href="#b" x="12.1462" y="24.98356"/><use xlink:href="#c" x="18.34457" y="24.98356"/><use xlink:href="#d" x="22.48979" y="24.98356"/><use xlink:href="#e" x="29.47011" y="24.84186"/><use xlink:href="#f" x="27.41684" y="24.98356"/><use xlink:href="#g" x="35.88666" y="24.98356"/><use xlink:href="#e" x="42.04858" y="24.84186"/><use xlink:href="#h" x="40.50799" y="24.98356"/><use xlink:href="#i" x="48.06667" y="24.98356"/><use xlink:href="#j" x="62.06307" y="24.61793"/><use xlink:href="#a" x="73.24652" y="24.61793"/><use xlink:href="#b" x="80.4587" y="24.61793"/><use xlink:href="#c" x="86.65707" y="24.61793"/><use xlink:href="#k" x="92.22695" y="24.61793"/><use xlink:href="#k" x="97.80933" y="24.61793"/><use xlink:href="#l" x="103.39236" y="16.59681"/><use xlink:href="#m" x="112.06751" y="16.59681"/><use xlink:href="#n" x="107.72945" y="31.99627"/><use xlink:href="#o" x="118.45819" y="24.61793"/><use xlink:href="#g" x="134.66243" y="23.32089"/><use xlink:href="#k" x="148.48275" y="24.61793"/><use xlink:href="#p" x="158.40255" y="16.59681"/><use xlink:href="#l" x="154.06546" y="31.99627"/><use xlink:href="#q" x="162.74061" y="31.99627"/><use xlink:href="#o" x="169.13129" y="24.61793"/><use xlink:href="#o" x="174.71367" y="24.61793"/><use xlink:href="#j" x="62.06307" y="61.13114"/><use xlink:href="#l" x="73.24067" y="61.13114"/><use xlink:href="#m" x="81.91582" y="61.13114"/><use xlink:href="#r" x="90.09048" y="61.13114"/><use xlink:href="#d" x="100.54942" y="61.13114"/><use xlink:href="#l" x="105.47732" y="61.13114"/><use xlink:href="#q" x="114.15247" y="61.13114"/><use xlink:href="#i" x="120.54334" y="61.13114"/><use xlink:href="#l" x="127.25503" y="61.13114"/><use xlink:href="#p" x="137.70114" y="61.13114"/><use xlink:href="#r" x="145.8758" y="61.13114"/><use xlink:href="#n" x="156.33474" y="61.13114"/><use xlink:href="#j" x="62.06307" y="80.01694"/><use xlink:href="#s" x="73.24067" y="80.01694"/><path fill="none" stroke="#007f7f" stroke-miterlimit="10" stroke-width=".39486" d="m122.82419 13.91407 22.91405 12.4414"/><path fill="#007f7f" stroke="#007f7f" stroke-miterlimit="10" stroke-width=".39483" d="M149.08203 28.16797c-.35156-.33203-1.8164-1.9375-2.57422-3.23047l-1.53515 2.83203c1.49609-.0664 3.64062.28516 4.10937.39844Zm0 0"/><path fill="none" stroke="#007f7f" stroke-miterlimit="10" stroke-width=".39486" d="m126.81637 26.35547 22.91406-12.4414"/><path fill="#007f7f" stroke="#007f7f" stroke-miterlimit="10" stroke-width=".39483" d="M123.47266 28.16797c.47265-.11328 2.61328-.46485 4.11328-.39844l-1.53906-2.83203c-.75782 1.29297-2.22266 2.89844-2.57422 3.23047Zm0 0"/></svg>