<svg xmlns="http://www.w3.org/2000/svg" xmlns:xlink="http://www.w3.org/1999/xlink" width="50.669pt" height="58.88pt" viewBox="0 0 50.669 58.88"><defs><path id="a" d="M-4.64062-8.04687h2.46875l-.5.76562.35937.3125c.48438-.53125 1.04688-.92187 1.79688-1.25v-.32812c-.76563-.32813-1.3125-.70313-1.79688-1.25l-.35937.32812.5.78125h-2.46875Zm0 0"/><path id="b" d="M1.42188-.54687c0 .42187.20312.6875.6875.6875.875 0 1.54687-.82813 1.95312-1.73438l-.29687-.17187c-.21875.42187-.73438 1.28125-1.07813 1.28125-.14062 0-.1875-.09375-.1875-.25 0-.10938.03125-.25.0625-.40625l1.32813-4.875-.0625-.0625L1.625-5.75l-.07812.29688.6875.07812c.21875 0 .3125.07813.3125.23438 0 .07812-.01563.1875-.04688.3125L1.48438-1.04687c-.0625.1875-.0625.34375-.0625.5m1.54687-7.3125c0 .45312.3125.6875.67188.6875.48437 0 .78125-.32813.78125-.8125 0-.46875-.32813-.67188-.65625-.67188-.51563 0-.79688.42188-.79688.79688m0 0"/><path id="c" d="M-.90625 2.15625c0 .64063.85938.76563 1.29688.76563.39062 0 .78125-.125 1.07812-.39063.54688-.51562.89063-1.28125 1.20313-2.73437l1.26562-5.8125-.0625-.0625-2.29687.35937-.07813.3125c.79688.03125 1.0625.0625 1.0625.25 0 .09375-.01562.17188-.03125.28125L1.10938 1.92188c-.07813.375-.1875.54687-.34375.54687-.48438 0-.73438-.9375-1.09375-.9375-.29688 0-.57813.39063-.57813.625M2.79688-7.85937c0 .45312.3125.6875.67187.6875.46875 0 .76563-.32813.76563-.8125 0-.46875-.32813-.67188-.65625-.67188-.51563 0-.78125.42188-.78125.79688m0 0"/><clipPath id="d"><path d="M32 24h18.33984v26H32Zm0 0"/></clipPath><clipPath id="e"><path d="M0 .13281h26V18H0Zm0 0"/></clipPath></defs><use xlink:href="#a" x="34.44647" y="51.48439"/><use xlink:href="#b" x="29.17044" y="54.19926"/><use xlink:href="#a" x="9.43586" y="20.91509"/><use xlink:href="#c" x="4.28898" y="23.62995"/><path fill="none" stroke="red" stroke-miterlimit="10" stroke-width=".39591" d="M20.64844 37.14453v-7.32031h-7.32422"/><path fill="none" stroke="#000" stroke-miterlimit="10" stroke-width=".79184" d="M13.32422 37.14453H43.8086"/><path d="M47.94531 37.14453c-.50781-.10547-2.74218-.70312-4.13672-1.35547V38.5c1.39453-.64844 3.62891-1.25 4.13672-1.35547m0 0"/><g clip-path="url(#d)"><path fill="none" stroke="#000" stroke-miterlimit="10" stroke-width=".79184" d="M47.94531 37.14453c-.5078-.10547-2.74218-.70312-4.13672-1.35547V38.5c1.39454-.64844 3.62891-1.25 4.13672-1.35547Zm0 0"/></g><path fill="none" stroke="#000" stroke-miterlimit="10" stroke-width=".79184" d="M13.32422 37.14453V6.66406"/><path d="M13.32422 2.52734c-.10547.50782-.70313 2.7422-1.35547 4.13672h2.71094c-.65235-1.39453-1.25-3.6289-1.35547-4.13672m0 0"/><g clip-path="url(#e)"><path fill="none" stroke="#000" stroke-miterlimit="10" stroke-width=".79184" d="M13.32422 2.52734c-.10547.50782-.70313 2.7422-1.35547 4.13672h2.71094c-.65235-1.39453-1.25-3.6289-1.35547-4.13672Zm0 0"/></g></svg>