<svg xmlns="http://www.w3.org/2000/svg" xmlns:xlink="http://www.w3.org/1999/xlink" width="304.411pt" height="304.411pt" viewBox="0 0 304.411 304.411"><defs><path id="b" d="M-4.65625-8.07812h2.46875l-.48437.78125.34375.3125c.5-.54688 1.0625-.9375 1.8125-1.26563v-.32812c-.76563-.32813-1.3125-.71875-1.8125-1.25L-2.67187-9.5l.48437.78125h-2.46875Zm0 0"/><path id="c" d="M1.42188-.5625c0 .4375.20312.70313.70312.70313.875 0 1.54688-.82813 1.95313-1.75l-.29688-.15626c-.21875.42188-.75 1.28126-1.07812 1.28126-.14063 0-.20313-.09375-.20313-.25 0-.125.03125-.26563.07813-.42188l1.32812-4.875-.0625-.0625-2.21875.32813-.07812.29687.70312.0625c.21875.01563.3125.07813.3125.25 0 .07813-.01562.1875-.0625.3125L1.48438-1.04687c-.04688.1875-.0625.34375-.0625.48437m1.5625-7.3125c0 .4375.3125.67188.67187.67188.48438 0 .78125-.3125.78125-.8125 0-.46875-.32812-.67188-.67187-.67188-.51563 0-.78125.42188-.78125.8125m0 0"/><path id="d" d="M-.90625 2.15625c0 .64063.85938.78125 1.29688.78125.39062 0 .78125-.14062 1.07812-.40625.5625-.5.89063-1.28125 1.21875-2.73437l1.26563-5.82813-.0625-.0625-2.3125.35938-.07813.3125c.79688.03125 1.07813.0625 1.07813.25 0 .09375-.01563.17187-.04688.28125l-1.42187 6.8125c-.07813.375-.17188.5625-.32813.5625-.5 0-.75-.95313-1.10937-.95313-.3125 0-.57813.39063-.57813.625M2.79688-7.875c0 .4375.3125.67188.67187.67188.48438 0 .78125-.3125.78125-.8125 0-.46875-.32812-.67188-.65625-.67188-.51562 0-.79687.42188-.79687.8125m0 0"/><path id="e" d="M.39063-3.28125c0 2 1.14062 3.46875 3.5625 3.46875 2.14062 0 3.1875-1.10937 3.85937-2.3125.67188-1.1875.78125-2.42187.78125-2.90625 0-2.48437-1.51562-3.5625-3.51562-3.5625-1.9375 0-3.14063 1.07813-3.84375 2.23438C.5625-5.23437.39063-4.07812.39063-3.28125m1.28125.48438c0-1.01563.1875-2.15625.75-3.32813.54687-1.15625 1.42187-2.04687 2.70312-2.04687 1.32813 0 2.1875.79687 2.1875 2.51562 0 .6875-.0625 1.6875-.5625 2.98438C6.23438-1.375 5.42188-.25 3.84375-.25c-1.32812 0-2.17187-.84375-2.17187-2.54687m0 0"/><path id="h" d="m1.75-1.3125.51563.5L4.375-2.9375l2.10938 2.125.5-.5L4.875-3.42187l2.10938-2.125-.5-.48438L4.375-3.92187 2.26563-6.03125 1.75-5.54687l2.125 2.125Zm0 0"/><path id="i" d="M-.23437 0H2.5l.07813-.34375-.67188-.0625C1.75-.42187 1.6875-.5 1.6875-.625c0-.0625.03125-.15625.0625-.23437.40625-.78125.79688-1.5625 1.25-2.39063h2.71875l.29688 2.51563s-.0625.29687-.3125.32812l-.65625.0625L4.98438 0h2.98437l.07813-.34375-.46875-.04687c-.375-.03125-.42188-.20313-.48438-.70313l-.89062-7.3125h-.85938L3.29688-4.8125c-.625 1.07813-1.625 2.89063-2.07813 3.60938C.82813-.5625.625-.4375.25-.40625l-.40625.0625ZM3.25-3.70312l1.96875-3.57813.4375 3.57813Zm0 0"/><path id="j" d="M0 0h3.6875c2.92188 0 3.51563-1.51562 3.51563-2.51562 0-1.28125-.9375-1.84375-1.82813-2l.01563-.03125C7-4.75 7.6875-5.65625 7.6875-6.57812c0-.98438-.57812-1.82813-2.8125-1.82813H1.79688l-.07813.35938.71875.0625c.21875.01562.29688.10937.29688.29687 0 .07813-.01563.1875-.04688.29688L1.25-1.01562c-.09375.40625-.20312.54687-.5.59375l-.6875.07812Zm2.42188-.9375c0-.07812.01562-.17187.04687-.26562l.70313-3.10938h.46875c1.20312 0 2.26562.34375 2.26562 1.73438C5.90625-1.5 5.25-.42187 3.625-.42187c-.96875 0-1.20312-.20313-1.20312-.51563M3.25-4.75l.64063-2.8125c.09375-.35937.15625-.42187.96875-.42187 1.01562 0 1.59375.51562 1.59375 1.375 0 1.26562-1.0625 1.85937-2.40625 1.85937Zm0 0"/><path id="k" d="M.64063-3.32812c0 1.59375.78125 3.51562 3.79687 3.51562.85938 0 1.6875-.125 2.46875-.51562L7.5-2.26562h-.35937C6.45313-1.04687 5.85938-.25 4.35938-.25c-1.40625 0-2.42188-.90625-2.42188-2.78125 0-1.09375.28125-2.4375.85938-3.40625.60937-1.01562 1.57812-1.73437 2.875-1.73437 1.53125 0 1.98437.71875 1.98437 2.04687h.375l.4375-1.82812c-.70312-.4375-1.84375-.64063-2.6875-.64063-2.29687 0-3.60937 1.07813-4.32812 2.20313-.67188 1.09375-.8125 2.21875-.8125 3.0625m0 0"/><path id="l" d="M0 0h3.71875C6.15625 0 7.5625-.875 8.4375-2.20312 9.14063-3.25 9.25-4.26562 9.25-4.98437c0-.98438-.34375-1.96875-1.04687-2.54688-.70313-.59375-1.79688-.875-3.14063-.875H1.79688l-.07813.35938L2.4375-8c.21875.01563.28125.125.28125.3125 0 .07813 0 .1875-.03125.29688l-1.45312 6.375c-.07813.40625-.1875.5625-.48438.59375l-.6875.07812Zm2.40625-.89062c0-.04688 0-.10938.01563-.15626L3.875-7.53124c.10938-.42187.26563-.45312 1.32813-.45312 2.53125.04687 2.75 1.75 2.75 2.71875 0 1.04687-.25 2.03125-.79688 2.9375-.70312 1.14062-1.73437 1.90625-3.75 1.90625-.59375 0-1-.07813-1-.46875m0 0"/><clipPath id="a"><path d="M0 0h303.82422v303.82422H0Zm0 0"/></clipPath><clipPath id="f"><path d="M0 151h303.82422v2H0Zm0 0"/></clipPath><clipPath id="g"><path d="M151 0h2v303.82422h-2Zm0 0"/></clipPath></defs><g clip-path="url(#a)"><path fill="none" stroke="#7f7f7f" stroke-dasharray=".39773089500000003 .9943571796" stroke-miterlimit="10" stroke-width=".39773" d="M.1992 289.83205h303.42582M.1992 262.25002h303.42582M.1992 234.66407h303.42582M.1992 207.07813h303.42582M.1992 179.4961h303.42582M.1992 151.91016h303.42582M.1992 124.32812h303.42582M.1992 96.74218h303.42582M.1992 69.15624h303.42582M.1992 41.5742h303.42582M.1992 13.98826h303.42582M13.98826 303.62502V.1953M41.5742 303.62502V.1953m27.58594 303.42973V.1953m27.58204 303.42973V.1953m27.58594 303.42973V.1953m27.58204 303.42973V.1953m27.58594 303.42973V.1953m27.58594 303.42973V.1953m27.58203 303.42973V.1953m27.58595 303.42973V.1953m27.58594 303.42973V.1953"/></g><use xlink:href="#b" x="168.52712" y="166.3156"/><use xlink:href="#c" x="163.22817" y="169.04292"/><use xlink:href="#b" x="148.00413" y="140.20811"/><use xlink:href="#d" x="142.83363" y="142.93544"/><use xlink:href="#e" x="138.36129" y="165.0746"/><g clip-path="url(#f)"><path fill="none" stroke="#000" stroke-miterlimit="10" stroke-width=".39773" d="M.1992 151.91016h303.42582"/></g><g clip-path="url(#g)"><path fill="none" stroke="#000" stroke-miterlimit="10" stroke-width=".39773" d="M151.91016 303.62502V.1953"/></g><path fill="none" stroke="#000" stroke-miterlimit="10" stroke-width=".79547" d="M151.91016 151.91016h21.42188"/><path stroke="#000" stroke-miterlimit="10" stroke-width=".79547" d="M177.48828 151.91016c-.51172-.10547-2.7539-.70703-4.15625-1.35938v2.72266c1.40235-.65625 3.64453-1.25781 4.15625-1.36328Zm0 0"/><path fill="none" stroke="#000" stroke-miterlimit="10" stroke-width=".79547" d="M151.91016 151.91016v-21.41798"/><path stroke="#000" stroke-miterlimit="10" stroke-width=".79547" d="M151.91016 126.33594c-.10547.51172-.70703 2.7539-1.35938 4.15625h2.72266c-.65235-1.40235-1.2539-3.64453-1.36328-4.15625Zm0 0"/><use xlink:href="#h" x="92.37726" y="182.51286"/><use xlink:href="#i" x="101.31297" y="174.92754"/><use xlink:href="#h" x="202.70878" y="237.67812"/><use xlink:href="#j" x="211.64449" y="230.0928"/><use xlink:href="#h" x="37.211" y="44.59771"/><use xlink:href="#k" x="46.14671" y="36.83174"/><use xlink:href="#h" x="257.87404" y="154.93023"/><use xlink:href="#l" x="266.80975" y="147.34491"/></svg>