<svg xmlns="http://www.w3.org/2000/svg" xmlns:xlink="http://www.w3.org/1999/xlink" width="159.847pt" height="153.865pt" viewBox="0 0 159.847 153.865"><defs><path id="b" d="M-4.48437-7.78125h2.375l-.46875.75.34375.29688C-1.76562-7.25-1.21875-7.625-.5-7.9375v-.32812c-.73437-.29688-1.26562-.67188-1.73437-1.20313l-.34375.32813.46875.75h-2.375Zm0 0"/><path id="c" d="M1.375-.53125c0 .40625.1875.67188.67188.67188.84375 0 1.48437-.79688 1.89062-1.6875l-.29687-.15626c-.20313.40626-.71875 1.23438-1.04688 1.23438-.125 0-.1875-.09375-.1875-.23437 0-.125.03125-.25.0625-.40625L3.75-5.8125l-.0625-.0625-2.125.32813-.0625.28125.67188.0625c.20312.01562.29687.07812.29687.23437 0 .07813-.01562.1875-.0625.29688L1.4375-1c-.0625.17188-.0625.3125-.0625.46875m1.5-7.0625c0 .4375.29688.67188.64063.67188.46875 0 .75-.3125.75-.79688 0-.45312-.3125-.64062-.64063-.64062-.48437 0-.75.40625-.75.76562m0 0"/><path id="d" d="M-.875 2.07813c0 .625.82813.75 1.25.75.39063 0 .75-.125 1.04688-.39063.53125-.48437.85937-1.23437 1.17187-2.64062L3.8125-5.8125 3.75-5.875l-2.23437.35938-.07813.29687c.78125.03125 1.03125.0625 1.03125.25 0 .07813 0 .15625-.03125.25l-1.375 6.57813C1 2.21875.89063 2.39063.75 2.39063c-.46875 0-.71875-.90625-1.0625-.90625-.29687 0-.5625.375-.5625.59375m3.57813-9.67188c0 .4375.29687.67188.64062.67188.46875 0 .75-.3125.75-.79688 0-.45312-.3125-.64062-.64062-.64062-.5 0-.75.40625-.75.76562m0 0"/><path id="f" d="M0-7.71875h3.625l-.48437.76563.34375.28125c.46875-.51563 1.01562-.875 1.73437-1.1875v-.45313C4.48438-8.625 3.95313-8.98437 3.48438-9.5l-.34375.28125.48437.76563L0-8.46875Zm0 0"/><path id="g" d="M.82813-1.25c0 .6875.3125 1.39063 1.10937 1.39063C3.20313.14063 4.28125-1.3125 4.96875-2.5h.01563l-.39063 1.32813c-.07812.26562-.125.48437-.125.67187 0 .40625.20313.64063.625.64063.89063 0 1.54688-.79688 1.95313-1.6875l-.28125-.15626c-.21875.40626-.73438 1.23438-1.0625 1.23438-.125 0-.1875-.09375-.1875-.23437 0-.10938.04687-.23438.07812-.40625l1.23438-4.65625h-.98438l-.04687.14062c-.20313-.14062-.54688-.25-.85938-.25C2.15625-5.875.82813-2.79687.82813-1.25m1.15625-.03125c0-1.28125 1.14062-4.17187 2.98437-4.17187.28125 0 .53125.09375.70313.25-.21875.875-.625 2.03125-1.25 2.96875-.65625.98437-1.375 1.76562-1.9375 1.76562-.375 0-.5-.35937-.5-.8125m0 0"/><path id="h" d="M1.01563 0h.42187l.35938-.6875c.21874.48438.79687.82813 1.46875.82813 1.375 0 2.375-.90625 2.9375-1.9375.59375-1.03125.78125-2.07813.78125-2.59375 0-.875-.375-1.48438-1.25-1.48438-.89063 0-2.04688.8125-2.95313 2.42188h-.01562L4.04688-8.625 4-8.67187l-2.07812.28125-.07813.26562.65625.07813c.20313.03125.28125.0625.28125.23437 0 .09375 0 .1875-.04687.34375Zm1.45312-1.26562c0-.5625.25-1.375.60938-2.0625.53125-.92188 1.40625-1.9375 2.14062-1.9375.42188 0 .60938.29687.60938.96875 0 .85937-.6875 4.01562-2.40625 4.01562-.59375 0-.95313-.40625-.95313-.98437m0 0"/><path id="j" d="M1-1.73437c0 1.4375.85938 1.875 1.67188 1.875.875 0 1.85937-.375 2.65625-1.71875l-.28125-.21876C4.65625-1.26561 3.96875-.4375 3.1875-.4375c-.85937 0-1.03125-.6875-1.03125-1.53125 0-1.51562.875-3.48437 1.95313-3.48437.375 0 .625.23437.70312.92187.03125.21875.125.35938.34375.35938.28125 0 .73438-.26563.73438-.65625 0-.59375-.625-1.04688-1.5-1.04688C2.3125-5.875 1-3.64062 1-1.73437m0 0"/><clipPath id="a"><path d="M0 13h159.69531v134H0Zm0 0"/></clipPath><clipPath id="e"><path d="M0 132h159.69531v2H0Zm0 0"/></clipPath><clipPath id="i"><path d="M60 .00781h37V55H60Zm0 0"/></clipPath></defs><g clip-path="url(#a)"><path fill="none" stroke="#000" stroke-miterlimit="10" stroke-opacity=".5" stroke-width=".39812" d="M.19921 132.95312h159.29692M.19921 106.40234h159.29692M.19921 79.85154h159.29692M.19921 53.30077h159.29692M.19921 26.75388h159.29692M13.47266 146.22657V13.47653m26.55078 132.75004V13.47653m26.5508 132.75004V13.47653m26.55078 132.75004V13.47653m26.54688 132.75004V13.47653m26.55079 132.75004V13.47653"/></g><use xlink:href="#b" x="29.46605" y="146.81511"/><use xlink:href="#c" x="24.36468" y="149.4401"/><use xlink:href="#b" x="9.71295" y="121.68716"/><use xlink:href="#d" x="4.73647" y="124.31215"/><g clip-path="url(#e)"><path fill="none" stroke="#000" stroke-miterlimit="10" stroke-width=".39812" d="M.19921 132.95312h159.29692"/></g><path fill="none" stroke="#000" stroke-miterlimit="10" stroke-width=".39812" d="M13.47266 146.22657V13.47653"/><path fill="none" stroke="#000" stroke-miterlimit="10" stroke-width=".79624" d="M13.47266 132.95312h20.3789"/><path stroke="#000" stroke-miterlimit="10" stroke-width=".79624" d="M38.01172 132.95312c-.51172-.10937-2.75781-.71093-4.16016-1.36328v2.72657c1.40235-.65625 3.64844-1.25782 4.16016-1.36329Zm0 0"/><path fill="none" stroke="#000" stroke-miterlimit="10" stroke-width=".79624" d="M13.47266 132.95312v-20.3789"/><path stroke="#000" stroke-miterlimit="10" stroke-width=".79624" d="M13.47266 108.41406c-.10547.51172-.70704 2.75781-1.36329 4.16016h2.72657c-.65235-1.40235-1.2539-3.64844-1.36328-4.16016Zm0 0"/><path fill="none" stroke="#007F7F" stroke-miterlimit="10" stroke-width=".39812" d="m40.02344 106.40234 23.3125-23.3125"/><path fill="#007F7F" stroke="#007F7F" stroke-miterlimit="10" stroke-width=".39811" d="M66.04688 80.3789c-.42188.2422-2.39454 1.19922-3.85938 1.5625l2.29688 2.29688c.36328-1.46484 1.3203-3.4375 1.5625-3.85937Zm0 0"/><use xlink:href="#f" x="59.00952" y="107.03144" fill="#007F7F"/><use xlink:href="#g" x="57.69078" y="107.16756" fill="#007F7F"/><path fill="none" stroke="#007F7F" stroke-miterlimit="10" stroke-width=".39812" d="M146.22269 106.40234 97.21877 81.89842"/><path fill="#007F7F" stroke="#007F7F" stroke-miterlimit="10" stroke-width=".39809" d="M93.78906 80.1836c.36328.32421 1.89453 1.89062 2.70313 3.16796l1.45312-2.90625c-1.50781.1211-3.67969-.16406-4.15625-.26172Zm0 0"/><use xlink:href="#f" x="125.67746" y="85.66115" fill="#007F7F"/><use xlink:href="#h" x="124.06025" y="88.59833" fill="#007F7F"/><g clip-path="url(#i)"><path fill="none" stroke="#007F7F" stroke-miterlimit="10" stroke-width=".39812" d="m66.57423.2031 24.5 49.00391"/></g><path fill="#007F7F" stroke="#007F7F" stroke-miterlimit="10" stroke-width=".39809" d="M92.78906 52.63672c-.09766-.47656-.3789-2.64844-.26172-4.15625L89.625 49.93359c1.27344.8086 2.84375 2.33985 3.16406 2.70313Zm0 0"/><use xlink:href="#f" x="85.11004" y="22.09174" fill="#007F7F"/><use xlink:href="#j" x="84.23837" y="22.22786" fill="#007F7F"/></svg>