<svg xmlns="http://www.w3.org/2000/svg" xmlns:xlink="http://www.w3.org/1999/xlink" width="106.072pt" height="90.359pt" viewBox="0 0 106.072 90.359"><defs><path id="a" d="M-7.10937-12.34375h3.76562l-.75 1.1875.53125.46875c.76563-.82812 1.625-1.42187 2.76563-1.90625v-.51562c-1.15625-.5-2-1.09375-2.76563-1.92188l-.53125.51563.75 1.1875h-3.76562Zm0 0"/><path id="b" d="M2.17188-.84375c0 .64063.3125 1.0625 1.0625 1.0625 1.34375 0 2.375-1.26562 3-2.67187l-.45313-.25C5.45313-2.04687 4.64063-.75 4.125-.75c-.21875 0-.29687-.14062-.29687-.375 0-.17187.04687-.39062.10937-.625l2.03125-7.46875-.10937-.10937-3.375.51562-.10938.45313L3.4375-8.25c.32813.01563.46875.10938.46875.375 0 .10938-.01562.26563-.07812.46875l-1.5625 5.8125c-.07813.26563-.09375.5-.09375.75M4.5625-12.04687c0 .6875.46875 1.04687 1.03125 1.04687.71875 0 1.1875-.5 1.1875-1.25 0-.71875-.5-1.01562-1.01562-1.01562-.78125 0-1.20313.625-1.20313 1.21875m0 0"/><path id="c" d="M-1.375 3.29688c0 .98437 1.29688 1.1875 1.96875 1.1875.60938 0 1.20313-.20313 1.65625-.60938.84375-.78125 1.35938-1.95312 1.85938-4.1875l1.9375-8.90625-.10938-.10937-3.53125.5625-.10937.46875c1.21875.0625 1.64062.09375 1.64062.39062 0 .14063-.03125.26563-.0625.42188L1.70313 2.9375c-.125.57813-.28126.85938-.51563.85938-.75 0-1.125-1.45313-1.6875-1.45313-.46875 0-.875.59375-.875.95313m5.65625-15.34375c0 .6875.48438 1.04687 1.03125 1.04687.73438 0 1.1875-.5 1.1875-1.25 0-.71875-.5-1.01562-1.01562-1.01562-.78125 0-1.20313.625-1.20313 1.21875m0 0"/><clipPath id="d"><path d="M72 71h26v18.64844H72Zm0 0"/></clipPath></defs><use xlink:href="#a" x="46.86201" y="21.69"/><use xlink:href="#b" x="38.76287" y="25.85754"/><use xlink:href="#a" x="99.57583" y="64.34384"/><use xlink:href="#c" x="91.67496" y="68.51138"/><path fill="none" stroke="red" stroke-miterlimit="10" stroke-width=".39505" d="M84.69531 33.05469H73.45703v11.23828h11.23828V33.05469"/><path fill="none" stroke="#000" stroke-miterlimit="10" stroke-width=".7901" d="M84.69531 33.05469H6.51563"/><path stroke="#000" stroke-miterlimit="10" stroke-width=".7901" d="M2.39063 33.05469c.5039.10547 2.73437.70312 4.125 1.35156v-2.70312c-1.39063.64843-3.6211 1.24609-4.125 1.35156Zm0 0"/><path fill="none" stroke="#000" stroke-miterlimit="10" stroke-width=".7901" d="M84.69531 33.05469V83.1328"/><path d="M84.69531 87.26172c.10547-.50781.70313-2.73828 1.35547-4.1289h-2.70703c.65234 1.39062 1.2461 3.62109 1.35156 4.1289m0 0"/><g clip-path="url(#d)"><path fill="none" stroke="#000" stroke-miterlimit="10" stroke-width=".7901" d="M84.69531 87.26172c.10547-.50781.70313-2.73828 1.35547-4.1289h-2.70703c.65234 1.39062 1.2461 3.62109 1.35156 4.1289Zm0 0"/></g></svg>