<svg xmlns="http://www.w3.org/2000/svg" xmlns:xlink="http://www.w3.org/1999/xlink" width="304.411pt" height="304.411pt" viewBox="0 0 304.411 304.411"><defs><path id="b" d="M-4.65625-8.07812h2.46875l-.48437.78125.34375.3125c.5-.54688 1.0625-.9375 1.8125-1.26563v-.32812c-.76563-.32813-1.3125-.71875-1.8125-1.25L-2.67187-9.5l.48437.78125h-2.46875Zm0 0"/><path id="c" d="M1.42188-.5625c0 .4375.20312.70313.70312.70313.875 0 1.54688-.82813 1.95313-1.75l-.29688-.15626c-.21875.42188-.75 1.28126-1.07812 1.28126-.14063 0-.20313-.09375-.20313-.25 0-.125.03125-.26563.07813-.42188l1.32812-4.875-.0625-.0625-2.21875.32813-.07812.29687.70312.0625c.21875.01563.3125.07813.3125.25 0 .07813-.01562.1875-.0625.3125L1.48438-1.04687c-.04688.1875-.0625.34375-.0625.48437m1.5625-7.3125c0 .4375.3125.67188.67187.67188.48438 0 .78125-.3125.78125-.8125 0-.46875-.32812-.67188-.67187-.67188-.51563 0-.78125.42188-.78125.8125m0 0"/><path id="d" d="M-.90625 2.15625c0 .64063.85938.78125 1.29688.78125.39062 0 .78125-.14062 1.07812-.40625.5625-.5.89063-1.28125 1.21875-2.73437l1.26563-5.82813-.0625-.0625-2.3125.35938-.07813.3125c.79688.03125 1.07813.0625 1.07813.25 0 .09375-.01563.17187-.04688.28125l-1.42187 6.8125c-.07813.375-.17188.5625-.32813.5625-.5 0-.75-.95313-1.10937-.95313-.3125 0-.57813.39063-.57813.625M2.79688-7.875c0 .4375.3125.67188.67187.67188.48438 0 .78125-.3125.78125-.8125 0-.46875-.32812-.67188-.65625-.67188-.51562 0-.79687.42188-.79687.8125m0 0"/><path id="e" d="M.39063-3.28125c0 2 1.14062 3.46875 3.5625 3.46875 2.14062 0 3.1875-1.10937 3.85937-2.3125.67188-1.1875.78125-2.42187.78125-2.90625 0-2.48437-1.51562-3.5625-3.51562-3.5625-1.9375 0-3.14063 1.07813-3.84375 2.23438C.5625-5.23437.39063-4.07812.39063-3.28125m1.28125.48438c0-1.01563.1875-2.15625.75-3.32813.54687-1.15625 1.42187-2.04687 2.70312-2.04687 1.32813 0 2.1875.79687 2.1875 2.51562 0 .6875-.0625 1.6875-.5625 2.98438C6.23438-1.375 5.42188-.25 3.84375-.25c-1.32812 0-2.17187-.84375-2.17187-2.54687m0 0"/><clipPath id="a"><path d="M0 0h303.82422v303.82422H0Zm0 0"/></clipPath><clipPath id="f"><path d="M0 151h303.82422v2H0Zm0 0"/></clipPath><clipPath id="g"><path d="M151 0h2v303.82422h-2Zm0 0"/></clipPath></defs><g clip-path="url(#a)"><path fill="none" stroke="#7f7f7f" stroke-dasharray=".39773089500000003 .9943571796" stroke-miterlimit="10" stroke-width=".39773" d="M.1992 289.83205h303.42582M.1992 262.25002h303.42582M.1992 234.66407h303.42582M.1992 207.07813h303.42582M.1992 179.4961h303.42582M.1992 151.91016h303.42582M.1992 124.32812h303.42582M.1992 96.74218h303.42582M.1992 69.15624h303.42582M.1992 41.5742h303.42582M.1992 13.98826h303.42582M13.98826 303.62502V.1953M41.5742 303.62502V.1953m27.58594 303.42973V.1953m27.58204 303.42973V.1953m27.58594 303.42973V.1953m27.58204 303.42973V.1953m27.58594 303.42973V.1953m27.58594 303.42973V.1953m27.58203 303.42973V.1953m27.58595 303.42973V.1953m27.58594 303.42973V.1953"/></g><use xlink:href="#b" x="168.52712" y="166.3156"/><use xlink:href="#c" x="163.22817" y="169.04292"/><use xlink:href="#b" x="148.00413" y="140.20811"/><use xlink:href="#d" x="142.83363" y="142.93544"/><use xlink:href="#e" x="138.36129" y="165.0746"/><g clip-path="url(#f)"><path fill="none" stroke="#000" stroke-miterlimit="10" stroke-width=".39773" d="M.1992 151.91016h303.42582"/></g><g clip-path="url(#g)"><path fill="none" stroke="#000" stroke-miterlimit="10" stroke-width=".39773" d="M151.91016 303.62502V.1953"/></g><path fill="none" stroke="#000" stroke-miterlimit="10" stroke-width=".79547" d="M151.91016 151.91016h21.42188"/><path stroke="#000" stroke-miterlimit="10" stroke-width=".79547" d="M177.48828 151.91016c-.51172-.10547-2.7539-.70703-4.15625-1.35938v2.72266c1.40235-.65625 3.64453-1.25781 4.15625-1.36328Zm0 0"/><path fill="none" stroke="#000" stroke-miterlimit="10" stroke-width=".79547" d="M151.91016 151.91016v-21.41798"/><path stroke="#000" stroke-miterlimit="10" stroke-width=".79547" d="M151.91016 126.33594c-.10547.51172-.70703 2.7539-1.35938 4.15625h2.72266c-.65235-1.40235-1.2539-3.64453-1.36328-4.15625Zm0 0"/></svg>