<svg xmlns="http://www.w3.org/2000/svg" xmlns:xlink="http://www.w3.org/1999/xlink" width="292.721pt" height="292.721pt" viewBox="0 0 292.721 292.721"><defs><path id="b" d="M-4.48437-7.78125h2.375l-.46875.75.34375.29688C-1.76562-7.25-1.21875-7.625-.5-7.9375v-.32812c-.73437-.29688-1.26562-.67188-1.73437-1.20313l-.34375.32813.46875.75h-2.375Zm0 0"/><path id="c" d="M1.375-.53125c0 .40625.1875.67188.67188.67188.84375 0 1.48437-.79688 1.89062-1.6875l-.29687-.15626c-.20313.40626-.71875 1.23438-1.04688 1.23438-.125 0-.1875-.09375-.1875-.23437 0-.125.03125-.25.0625-.40625L3.75-5.8125l-.0625-.0625-2.125.32813-.0625.28125.67188.0625c.20312.01562.29687.07812.29687.23437 0 .07813-.01562.1875-.0625.29688L1.4375-1c-.0625.17188-.0625.3125-.0625.46875m1.5-7.0625c0 .4375.29688.67188.64063.67188.46875 0 .75-.3125.75-.79688 0-.45312-.3125-.64062-.64063-.64062-.48437 0-.75.40625-.75.76562m0 0"/><path id="d" d="M-.875 2.07813c0 .625.82813.75 1.25.75.39063 0 .75-.125 1.04688-.39063.53125-.48437.85937-1.23437 1.17187-2.64062L3.8125-5.8125 3.75-5.875l-2.23437.35938-.07813.29687c.78125.03125 1.03125.0625 1.03125.25 0 .07813 0 .15625-.03125.25l-1.375 6.57813C1 2.21875.89063 2.39063.75 2.39063c-.46875 0-.71875-.90625-1.0625-.90625-.29687 0-.5625.375-.5625.59375m3.57813-9.67188c0 .4375.29687.67188.64062.67188.46875 0 .75-.3125.75-.79688 0-.45312-.3125-.64062-.64062-.64062-.5 0-.75.40625-.75.76562m0 0"/><path id="e" d="M.375-3.15625C.375-1.23437 1.48438.17188 3.8125.17188c2.0625 0 3.0625-1.0625 3.71875-2.21875.625-1.14063.73438-2.32813.73438-2.79688 0-2.39062-1.45313-3.42187-3.375-3.42187-1.875 0-3.03125 1.03125-3.70313 2.14062C.53125-5.03125.375-3.9375.375-3.15625m1.23438.46875c0-.98437.1875-2.07812.71875-3.20312C2.85938-7 3.6875-7.85937 4.9375-7.85937c1.28125 0 2.10938.75 2.10938 2.40625 0 .67187-.0625 1.64062-.54688 2.875C6-1.3125 5.21875-.23437 3.6875-.23437c-1.26562 0-2.07812-.82813-2.07812-2.45313m0 0"/><clipPath id="a"><path d="M0 0h292.4414v292.4414H0Zm0 0"/></clipPath><clipPath id="f"><path d="M0 146h292.4414v1H0Zm0 0"/></clipPath><clipPath id="g"><path d="M146 0h1v292.4414h-1Zm0 0"/></clipPath></defs><g clip-path="url(#a)"><path fill="none" stroke="#000" stroke-miterlimit="10" stroke-opacity=".5" stroke-width=".39812" d="M.19919 278.96878h292.04694M.19919 252.4219h292.04694M.19919 225.8711h292.04694M.19919 199.32032h292.04694M.19919 172.76954h292.04694M.19919 146.21875h292.04694M.19919 119.67187h292.04694M.19919 93.12108h292.04694M.19919 66.5703h292.04694M.19919 40.01951h292.04694M.19919 13.47263h292.04694m-278.7735 278.7735V.19528M40.0234 292.24613V.19528m26.5469 292.05085V.19528m26.5508 292.05085V.19528m26.55078 292.05085V.19528m26.55079 292.05085V.19528m26.54688 292.05085V.19528m26.55078 292.05085V.19528m26.55079 292.05085V.19528m26.55079 292.05085V.19528m26.55078 292.05085V.19528"/></g><use xlink:href="#b" x="162.21364" y="160.08492"/><use xlink:href="#c" x="157.11225" y="162.70992"/><use xlink:href="#b" x="142.46047" y="134.95687"/><use xlink:href="#d" x="137.48396" y="137.58187"/><use xlink:href="#e" x="133.17906" y="158.89056"/><g clip-path="url(#f)"><path fill="none" stroke="#000" stroke-miterlimit="10" stroke-width=".39812" d="M.19919 146.21875h292.04694"/></g><g clip-path="url(#g)"><path fill="none" stroke="#000" stroke-miterlimit="10" stroke-width=".39812" d="M146.22266 292.24613V.19528"/></g><path fill="none" stroke="#000" stroke-miterlimit="10" stroke-width=".79625" d="M146.22266 146.21875h20.375"/><path stroke="#000" stroke-miterlimit="10" stroke-width=".79625" d="M170.75781 146.21875c-.5078-.10547-2.7539-.70703-4.16015-1.35938v2.72266c1.40625-.65234 3.65234-1.2539 4.16015-1.36328Zm0 0"/><path fill="none" stroke="#000" stroke-miterlimit="10" stroke-width=".79625" d="M146.22266 146.21875v-20.375"/><path stroke="#000" stroke-miterlimit="10" stroke-width=".79625" d="M146.22266 121.6836c-.10547.51171-.71094 2.7578-1.36329 4.16015h2.72657c-.65625-1.40234-1.25782-3.64844-1.36328-4.16016Zm0 0"/></svg>