<svg xmlns="http://www.w3.org/2000/svg" xmlns:xlink="http://www.w3.org/1999/xlink" width="106.072pt" height="90.359pt" viewBox="0 0 106.072 90.359"><defs><path id="a" d="M-7.10937-12.34375h3.76562l-.75 1.1875.53125.46875c.76563-.82812 1.625-1.42187 2.76563-1.90625v-.51562c-1.15625-.5-2-1.09375-2.76563-1.92188l-.53125.51563.75 1.1875h-3.76562Zm0 0"/><path id="b" d="M2.17188-.84375c0 .64063.3125 1.0625 1.0625 1.0625 1.34375 0 2.375-1.26562 3-2.67187l-.45313-.25C5.45313-2.04687 4.64063-.75 4.125-.75c-.21875 0-.29687-.14062-.29687-.375 0-.17187.04687-.39062.10937-.625l2.03125-7.46875-.10937-.10937-3.375.51562-.10938.45313L3.4375-8.25c.32813.01563.46875.10938.46875.375 0 .10938-.01562.26563-.07812.46875l-1.5625 5.8125c-.07813.26563-.09375.5-.09375.75M4.5625-12.04687c0 .6875.46875 1.04687 1.03125 1.04687.71875 0 1.1875-.5 1.1875-1.25 0-.71875-.5-1.01562-1.01562-1.01562-.78125 0-1.20313.625-1.20313 1.21875m0 0"/><path id="c" d="M-1.375 3.29688c0 .98437 1.29688 1.1875 1.96875 1.1875.60938 0 1.20313-.20313 1.65625-.60938.84375-.78125 1.35938-1.95312 1.85938-4.1875l1.9375-8.90625-.10938-.10937-3.53125.5625-.10937.46875c1.21875.0625 1.64062.09375 1.64062.39062 0 .14063-.03125.26563-.0625.42188L1.70313 2.9375c-.125.57813-.28126.85938-.51563.85938-.75 0-1.125-1.45313-1.6875-1.45313-.46875 0-.875.59375-.875.95313m5.65625-15.34375c0 .6875.48438 1.04687 1.03125 1.04687.73438 0 1.1875-.5 1.1875-1.25 0-.71875-.5-1.01562-1.01562-1.01562-.78125 0-1.20313.625-1.20313 1.21875m0 0"/><clipPath id="d"><path d="M87 44h18.15234v26H87Zm0 0"/></clipPath><clipPath id="e"><path d="M7 .07422h26V18H7Zm0 0"/></clipPath></defs><use xlink:href="#a" x="66.92251" y="78.6814"/><use xlink:href="#b" x="58.82337" y="82.84894"/><use xlink:href="#a" x="14.48428" y="31.75891"/><use xlink:href="#c" x="6.5834" y="35.92844"/><path fill="none" stroke="red" stroke-miterlimit="10" stroke-width=".39505" d="M20.45312 56.67188h11.2422v-11.2422h-11.2422v11.2422"/><path fill="none" stroke="#000" stroke-miterlimit="10" stroke-width=".7901" d="M20.45312 56.67188H98.6328"/><path d="M102.76172 56.67188c-.5039-.10547-2.73438-.70313-4.1289-1.35157v2.70313c1.39452-.64844 3.625-1.2461 4.1289-1.35157m0 0"/><g clip-path="url(#d)"><path fill="none" stroke="#000" stroke-miterlimit="10" stroke-width=".7901" d="M102.76172 56.67188c-.5039-.10547-2.73438-.70313-4.1289-1.35157v2.70313c1.39452-.64844 3.625-1.2461 4.1289-1.35156Zm0 0"/></g><path fill="none" stroke="#000" stroke-miterlimit="10" stroke-width=".7901" d="M20.45312 56.67188V6.59376"/><path d="M20.45313 2.46484c-.10157.50782-.69922 2.73438-1.35157 4.12891h2.70703c-.65234-1.39453-1.25-3.6211-1.35546-4.1289m0 0"/><g clip-path="url(#e)"><path fill="none" stroke="#000" stroke-miterlimit="10" stroke-width=".7901" d="M20.45312 2.46484c-.10156.50782-.69921 2.73438-1.35156 4.12891h2.70703c-.65234-1.39453-1.25-3.6211-1.35547-4.1289Zm0 0"/></g></svg>