<svg xmlns="http://www.w3.org/2000/svg" xmlns:xlink="http://www.w3.org/1999/xlink" width="56.083pt" height="58.88pt" viewBox="0 0 56.083 58.88"><defs><clipPath id="d"><path d="M37 24h18.17969v26H37Zm0 0"/></clipPath><clipPath id="e"><path d="M0 .41406h18V49H0Zm0 0"/></clipPath><clipPath id="f"><path d="M0 .41406h19V19H0Zm0 0"/></clipPath><path id="a" d="M-4.59375-7.96875h2.4375l-.48437.76563.34375.3125c.48437-.54688 1.04687-.92188 1.78125-1.25v-.32813c-.75-.3125-1.29688-.70312-1.78125-1.23437l-.34375.32812.48437.76563h-2.4375Zm0 0"/><path id="b" d="M1.40625-.54687c0 .42187.20313.6875.6875.6875.85938 0 1.53125-.8125 1.9375-1.71875L3.73438-1.75C3.51563-1.32812 3-.48437 2.67188-.48437c-.14063 0-.20313-.09375-.20313-.25 0-.10938.03125-.25.0625-.40625l1.3125-4.8125-.0625-.0625-2.17187.32812-.07813.29688.6875.0625c.21875.01562.3125.07812.3125.23437 0 .07813-.01562.1875-.0625.3125l-1 3.75c-.04687.17188-.0625.32813-.0625.48438M2.9375-7.78125c0 .45313.3125.67188.67188.67188.46875 0 .76562-.3125.76562-.79688 0-.46875-.32812-.65625-.65625-.65625-.5 0-.78125.40625-.78125.78125m0 0"/><path id="c" d="M-.89062 2.125c0 .64063.84375.76563 1.26562.76563.40625 0 .78125-.125 1.07813-.39063C2 2 2.32813 1.23438 2.65625-.20312l1.25-5.75-.0625-.0625-2.28125.35937-.07812.29688c.78125.04687 1.04687.0625 1.04687.26562 0 .07813 0 .15625-.03125.26563L1.09375 1.90625c-.07812.35938-.17187.54688-.32812.54688-.48438 0-.73438-.9375-1.07813-.9375-.3125 0-.57812.39062-.57812.60937m3.65625-9.90625c0 .45313.3125.67188.67187.67188.46875 0 .75-.3125.75-.79688 0-.46875-.3125-.65625-.64062-.65625-.51563 0-.78125.40625-.78125.78125m0 0"/></defs><use xlink:href="#a" x="30.37485" y="51.27144"/><use xlink:href="#b" x="25.14978" y="53.96008"/><use xlink:href="#a" x="13.61784" y="20.99744"/><use xlink:href="#c" x="8.52068" y="23.68608"/><path fill="none" stroke="#000" stroke-miterlimit="10" stroke-width=".78419" d="M.39062 37.07031h48.3203"/><path d="M52.8086 37.07031c-.50391-.10547-2.71485-.69531-4.09766-1.33984v2.6836c1.38281-.64454 3.59375-1.23829 4.09765-1.34376m0 0"/><g clip-path="url(#d)"><path fill="none" stroke="#000" stroke-miterlimit="10" stroke-width=".78419" d="M52.8086 37.07031c-.50391-.10547-2.71485-.6953-4.09766-1.33984v2.6836c1.3828-.64454 3.59375-1.23829 4.09765-1.34376Zm0 0"/></g><g clip-path="url(#e)"><path fill="none" stroke="#000" stroke-miterlimit="10" stroke-width=".78419" d="m.39062 37.07031 6.0625-30.30468"/></g><path d="M7.25781 2.7461c-.20312.47265-1.21875 2.52734-2.1211 3.7578l2.63282.52344c-.36328-1.48046-.50781-3.76562-.51172-4.28125m0 0"/><g clip-path="url(#f)"><path fill="none" stroke="#000" stroke-miterlimit="10" stroke-width=".78416" d="M7.25781 2.7461c-.20312.47265-1.21875 2.52734-2.1211 3.7578l2.63282.52344c-.36328-1.48046-.50781-3.76562-.51172-4.28125Zm0 0"/></g></svg>