<svg xmlns="http://www.w3.org/2000/svg" xmlns:xlink="http://www.w3.org/1999/xlink" width="285.51pt" height="131.098pt" viewBox="0 0 285.51 131.098"><defs><path id="a" d="M.90625-4.375c0 2.75 1.45313 4.59375 3.90625 4.59375 1 0 1.85938-.45312 2.875-1.26562v.90625L7.84375 0h3v-.53125c-1.32812-.10937-1.375-.14062-1.375-1.09375v-12.07812l-.14062-.09375-2.9375.45312v.46875l.71875.0625c.46875.0625.59375.15625.59375.875v3.04688C7.1875-9.17187 6.5-9.34375 5.64063-9.34375c-1.51563 0-2.67188.5-3.4375 1.28125C1.40625-7.21875.90625-6 .90625-4.375m1.9375-.21875c0-2.42187.875-4.09375 2.78125-4.09375.875 0 1.57813.39063 1.92188 1.17188.15625.3125.15625.59375.15625 1.07812v3.26563c0 .42187 0 .73437-.125 1.04687-.375.98438-1.1875 1.35938-2.15625 1.35938-1.70313 0-2.57813-1.6875-2.57813-3.82813m0 0"/><path id="b" d="M.90625-4.5c0 2.95313 1.26563 4.71875 4.29688 4.71875 2.0625 0 3.125-1.15625 3.625-2.60937l-.54688-.29688C7.76563-1.60937 7.04688-.73437 5.57813-.73437c-2.3125 0-2.76563-2.21875-2.73438-4.15625h5.375c.39063 0 .73438-.09375.73438-.71875 0-1.07813-.35938-3.73438-3.76563-3.73438C2.28125-9.34375.90625-7.28125.90625-4.5M2.875-5.60937c0-.76563.26563-3.07813 2.21875-3.07813 1.71875 0 1.92188 1.76563 1.92188 2.48438 0 .35937-.125.59375-.64063.59375Zm0 0"/><path id="c" d="M.57813-8.375h1.34375v6.46875c0 1.90625 1.40625 2.125 2.0625 2.125.9375 0 1.82812-.46875 2.375-.8125l-.14063-.39062C5.76563-.8125 5.35938-.75 4.89063-.75c-.64063 0-1.23438-.45312-1.23438-1.85937V-8.375H6.0625v-.75H3.65625v-2.34375H3.125L2-9.125H.57813Zm0 0"/><path id="d" d="M1.60938-5.25c0 4.20313.9375 8.8125 4.89062 8.96875v-.54687C5.17188 2.90625 3.09375 1.26563 3.09375-5.25c0-6.46875 1.96875-8.10937 3.40625-8.40625v-.5625C2.54688-14.0625 1.60938-9.4375 1.60938-5.25m0 0"/><path id="e" d="M0-12.28125h5.76563l-.75 1.21875.53125.45313c.75-.82813 1.625-1.40625 2.76562-1.90625v-.70313c-1.17187-.5-2.01562-1.07812-2.76562-1.90625l-.53125.45313.75 1.20312L0-13.48437Zm0 0"/><path id="f" d="M2.17188-1.25c0 .875.375 1.46875 1.4375 1.46875 1.78125 0 3.73437-1.95312 4.84375-4.125H8.5l-.625 2.125c-.09375.375-.15625.6875-.15625.96875 0 .65625.3125 1.03125 1.01563 1.03125 1.34375 0 2.45312-1.26562 3.10937-2.65625l-.4375-.28125C11.03125-2.07812 10.20313-.75 9.6875-.75c-.25 0-.34375-.15625-.34375-.42187 0-.15626.04688-.35938.09375-.5625l2-7.60938-1.65625.21875C9.25-7.21875 8.92188-6.23437 8.45313-5.10937 7.64063-3.23437 6.01563-.75 4.46875-.75c-.39062 0-.59375-.23437-.59375-.73437q0-.35157.14063-.89063L5.79688-9.25l-.09375-.09375-3.39063.51563-.10937.45312 1.15625.09375c.28125.03125.375.14063.375.35938 0 .14062-.03125.3125-.09375.53125L2.35938-2.46875c-.125.42188-.1875.84375-.1875 1.21875m0 0"/><path id="g" d="m.95313 2.28125.35937.35938c.92188-.875 2.26563-2.125 2.26563-3.59375 0-.98438-.53125-1.6875-1.23438-1.6875-.57812 0-.9375.46875-.9375.9375 0 .67187.60938 1.03125.60938 1.82812 0 .76563-.46875 1.5-1.0625 2.15625M1.3125-7.92187c0 .67187.45313 1.1875 1.15625 1.1875.73438 0 1.15625-.51563 1.17188-1.1875 0-.6875-.4375-1.20313-1.17188-1.20313-.70312 0-1.15625.51563-1.15625 1.20313m0 0"/><path id="h" d="m2.17188-8.375 1.15625.09375c.28125.03125.35937.125.35937.34375 0 .14063-.03125.3125-.07812.54688L2.46875-2.21875c-.07812.35938-.10937.65625-.10937.9375 0 1.04688.54687 1.5 1.40625 1.5 1.59375 0 3.20312-1.48437 4.48437-3.20312C9.51563-4.6875 10.40625-6.75 10.4375-7.90625c0-.71875-.42187-1.4375-.57812-1.4375-.45313 0-.96875.15625-1.35938.39063.17188.65625.23438 1.34375.23438 2.32812C8.57813-4.09375 6.17188-.75 4.67188-.75 4.25-.75 4-1.01562 4-1.54687c0-.14063.01563-.3125.0625-.5L5.6875-9.25l-.10937-.09375-3.28125.51563Zm0 0"/><path id="i" d="M1.10938 3.17188v.54687C5.04688 3.5625 6-1.04687 6-5.25c0-4.1875-.95312-8.8125-4.89062-8.96875v.5625c1.42187.29688 3.40625 1.9375 3.40625 8.40625 0 6.51563-2.07813 8.15625-3.40625 8.42188m0 0"/><path id="j" d="M1.57813-2.65625H11.8125v-1.07812H1.57813Zm0-4.09375H11.8125v-1.09375H1.57813Zm0 0"/><path id="k" d="M2.28125-5.25c0 14.57813 1.29688 24.53125 5.45313 26.14063v-.57813c-2.78125-2.64062-3.75-13.20312-3.75-25.5625 0-12.04687.90625-22.9375 3.75-25.57812v-.54688c-4 1.71875-5.45313 11.28125-5.45313 26.125m0 0"/><path id="l" d="M1.57813-4.71875H11.8125v-1.07812H1.57813Zm0 0"/><path id="m" d="M2.01563 0h6.125v-.53125l-1.5625-.14062c-.40625-.04688-.625-.17188-.625-.90625v-10.96875l-.09375-.10938L2.01563-12v.45313l1.75.21875c.3125.04687.4375.1875.4375.71875v9.03125c0 .73437-.1875.85937-.625.90625l-1.5625.14062Zm0 0"/><path id="n" d="M.5-1.90625c0 .79688 1.28125 2.125 3.92188 2.125 2.6875 0 4.39062-1.35937 4.39062-3.75 0-2.48437-2.14062-3.21875-3.17187-3.3125v-.07812C6.65625-7.09375 8.25-7.84375 8.25-9.6875c0-2.04687-1.59375-2.96875-3.59375-2.96875-2.45312 0-3.67187 1.4375-3.67187 2.21875 0 .57813.65625.89063.92187.89063.23438 0 .375-.14063.45313-.375C2.76563-11.1875 3.46875-12 4.51563-12c1.46875 0 1.84375 1.29688 1.84375 2.34375 0 1.10938-.40625 2.51563-1.98438 2.51563-.89062 0-1.40625-.1875-1.625-.1875-.23437 0-.32812.1875-.32812.51562 0 .3125.09375.51563.32812.51563.21875 0 .73438-.17188 1.625-.17188 1.57813 0 2.46875 1.42188 2.46875 3.04688 0 2.21875-1.07812 2.98437-2.40625 2.98437-1.23437 0-2.04687-.90625-2.39062-1.95312-.125-.35938-.3125-.54688-.5625-.54688C1.14063-2.9375.5-2.57812.5-1.90625m0 0"/><path id="o" d="M.875 20.3125v.57813C5.03125 19.28124 6.32813 9.32813 6.32813-5.25c0-14.84375-1.45313-24.40625-5.45313-26.125v.54688C3.71875-28.1875 4.625-17.29688 4.625-5.25c0 12.35938-.96875 22.92188-3.75 25.5625m0 0"/><path id="p" d="M.5-.17187.6875 0h7.70313l.64062-2.45312-.51562-.09375c-.40625 1-.78125 1.14062-1.53125 1.14062h-4.75c.29687-.96875 1.40625-2.29687 3.125-3.54687C7.14063-6.25 8.53125-7.09375 8.53125-9.17187c0-2.59375-1.71875-3.48438-3.6875-3.48438-2.54687 0-3.85937 1.54688-3.85937 2.51563 0 .64062.71875.9375 1.03125.9375.34375 0 .45312-.20313.53125-.51563C2.84375-10.98437 3.57813-12 4.73438-12c1.42187 0 1.84375 1.1875 1.84375 2.5625 0 2-1.01563 3.125-2.64063 4.54688C1.64063-2.89062.84375-1.625.5-.17187m0 0"/><path id="q" d="M.8125-5.73437c0 4.01562 1.46875 5.95312 4.25 5.95312 2.75 0 4.21875-1.65625 4.21875-4.20312 0-2.51563-1.54687-3.875-3.54687-3.875-1.45313 0-2.54688.98437-3.04688 1.60937C2.71875-10.35937 3.84375-12 5.51563-12c.85937 0 1.46875.71875 1.75 1.78125.0625.21875.20312.40625.46875.40625.42187 0 1-.34375 1-.85937 0-.75-.92188-1.98438-3.15625-1.98438-2.9375 0-4.76563 2.28125-4.76563 6.92188m1.875 1.34375c0-1.125.85938-2.51563 2.42188-2.51563 1.17187 0 2.3125 1.0625 2.3125 3.20313 0 1.96875-.75 3.26562-2.3125 3.26562-1.625 0-2.42188-1.71875-2.42188-3.95312m0 0"/><path id="r" d="m2.6875-2.01562.78125.76562L6.6875-4.5l3.25 3.25.75-.76562L7.46875-5.25 10.6875-8.5l-.75-.75-3.25 3.23438L3.46875-9.25l-.78125.75 3.25 3.25Zm0 0"/><path id="s" d="M.76563-6.21875C.76563-2.5 1.85938.21875 4.92188.21875 8 .21875 9.10938-2.5 9.10938-6.21875S8-12.65625 4.92188-12.65625c-3.0625 0-4.15625 2.71875-4.15625 6.4375m1.89062 0C2.65625-9.25 3.17188-12 4.92188-12c1.76562 0 2.28125 2.75 2.28125 5.78125S6.6875-.4375 4.92188-.4375c-1.75 0-2.26563-2.75-2.26563-5.78125m0 0"/></defs><use xlink:href="#a" x="7.32779" y="38.52493"/><use xlink:href="#b" x="18.44927" y="38.52493"/><use xlink:href="#c" x="28.00742" y="38.52493"/><use xlink:href="#d" x="34.39952" y="38.52493"/><use xlink:href="#e" x="45.16545" y="38.30644"/><use xlink:href="#f" x="41.99923" y="38.52493"/><use xlink:href="#g" x="55.06006" y="38.52493"/><use xlink:href="#e" x="64.56001" y="38.30644"/><use xlink:href="#h" x="62.18634" y="38.52493"/><use xlink:href="#i" x="73.84213" y="38.52493"/><use xlink:href="#j" x="95.42266" y="37.96082"/><use xlink:href="#a" x="112.66801" y="37.96082"/><use xlink:href="#b" x="123.7895" y="37.96082"/><use xlink:href="#c" x="133.34764" y="37.96082"/><use xlink:href="#k" x="141.93862" y="37.96082"/><use xlink:href="#k" x="150.54689" y="37.96082"/><use xlink:href="#l" x="159.15615" y="25.59192"/><use xlink:href="#m" x="172.5336" y="25.59192"/><use xlink:href="#n" x="165.84414" y="49.34052"/><use xlink:href="#o" x="182.38831" y="37.96082"/><use xlink:href="#g" x="207.35354" y="35.96256"/><use xlink:href="#k" x="228.63909" y="37.96082"/><use xlink:href="#p" x="243.93584" y="25.59192"/><use xlink:href="#l" x="237.24587" y="49.34052"/><use xlink:href="#q" x="250.62332" y="49.34052"/><use xlink:href="#o" x="260.48001" y="37.96082"/><use xlink:href="#o" x="269.08828" y="37.96082"/><use xlink:href="#j" x="95.42266" y="94.26641"/><use xlink:href="#l" x="112.65899" y="94.26641"/><use xlink:href="#m" x="126.03644" y="94.26641"/><use xlink:href="#r" x="138.64211" y="94.26641"/><use xlink:href="#d" x="154.77025" y="94.26641"/><use xlink:href="#l" x="162.36927" y="94.26641"/><use xlink:href="#q" x="175.74672" y="94.26641"/><use xlink:href="#i" x="185.6017" y="94.26641"/><use xlink:href="#l" x="195.95141" y="94.26641"/><use xlink:href="#p" x="212.07955" y="94.26641"/><use xlink:href="#r" x="224.66543" y="94.26641"/><use xlink:href="#n" x="240.79357" y="94.26641"/><use xlink:href="#j" x="95.42266" y="123.38904"/><use xlink:href="#s" x="112.65899" y="123.38904"/><path fill="none" stroke="#007F7F" stroke-miterlimit="10" stroke-width=".39578" d="m189.1016 21.45703 37.4336 20.34766"/><path fill="#007F7F" stroke="#007F7F" stroke-miterlimit="10" stroke-width=".39575" d="M229.88672 43.625c-.35156-.33594-1.82031-1.94531-2.57813-3.23828l-1.54297 2.83594c1.5-.0664 3.64844.28906 4.1211.40234Zm0 0"/><path fill="none" stroke="#007F7F" stroke-miterlimit="10" stroke-width=".39578" d="m193.1016 41.80469 37.4336-20.34766"/><path fill="#007F7F" stroke="#007F7F" stroke-miterlimit="10" stroke-width=".39575" d="M189.75 43.625c.47266-.11328 2.6211-.46875 4.1211-.40234l-1.54298-2.83594c-.7578 1.29297-2.22656 2.90234-2.57812 3.23828Zm0 0"/></svg>