<svg xmlns="http://www.w3.org/2000/svg" xmlns:xlink="http://www.w3.org/1999/xlink" width="119.271pt" height="101.597pt" viewBox="0 0 119.271 101.597"><defs><path id="a" d="M-8.01562-13.92187h4.25l-.84375 1.32812.59375.54688c.85937-.9375 1.82812-1.60938 3.125-2.17188v-.57812c-1.3125-.5625-2.26563-1.21875-3.125-2.15625l-.59375.57812.84375 1.32813h-4.25Zm0 0"/><path id="b" d="M2.45313-.95312C2.45313-.21876 2.8125.25 3.65625.25c1.51563 0 2.67188-1.4375 3.39063-3.01562l-.51563-.28125c-.375.73437-1.29687 2.20312-1.875 2.20312-.25 0-.32812-.15625-.32812-.42187 0-.20313.03125-.45313.10937-.71875l2.29688-8.42188-.10938-.10937-3.8125.57812-.14062.51563L3.875-9.3125c.375.01563.53125.125.53125.42188 0 .14062-.01562.3125-.07812.53125L2.5625-1.8125c-.09375.3125-.10937.59375-.10937.85938m2.6875-12.64063c0 .78125.54687 1.1875 1.17187 1.1875.8125 0 1.32813-.5625 1.32813-1.40625 0-.82812-.5625-1.15625-1.14063-1.15625-.89062 0-1.35937.70313-1.35937 1.375m0 0"/><path id="c" d="M-1.5625 3.71875c0 1.10938 1.46875 1.34375 2.23438 1.34375.6875 0 1.35937-.23437 1.875-.70312C3.5 3.5 4.07813 2.15625 4.64063-.35937L6.8125-10.40625l-.10937-.10937-3.98438.625-.14062.53125c1.39062.0625 1.85937.10937 1.85937.45312 0 .15625-.03125.28125-.07812.46875l-2.4375 11.75c-.14063.65625-.3125.96875-.57813.96875-.85937 0-1.28125-1.625-1.90625-1.625-.53125 0-1 .65625-1 1.0625m6.39063-17.3125c0 .78125.54687 1.1875 1.17187 1.1875.8125 0 1.32813-.5625 1.32813-1.40625 0-.82812-.54688-1.15625-1.14063-1.15625-.89062 0-1.35937.70313-1.35937 1.375m0 0"/><clipPath id="d"><path d="M82 83h27v18.08984H82Zm0 0"/></clipPath></defs><use xlink:href="#a" x="52.80351" y="24.4898"/><use xlink:href="#b" x="43.6681" y="29.19057"/><use xlink:href="#a" x="112.25712" y="72.59776"/><use xlink:href="#c" x="103.34534" y="77.29853"/><path fill="none" stroke="red" stroke-miterlimit="10" stroke-width=".39608" d="M95.47266 37.3086H82.79687v12.67577h12.67579V37.3086"/><path fill="none" stroke="#000" stroke-miterlimit="10" stroke-width=".79216" d="M95.47266 37.3086H6.53516"/><path stroke="#000" stroke-miterlimit="10" stroke-width=".79216" d="M2.39453 37.3086c.50781.10546 2.74219.70312 4.14063 1.35546v-2.71484c-1.39844.65234-3.63282 1.2539-4.14063 1.35937Zm0 0"/><path fill="none" stroke="#000" stroke-miterlimit="10" stroke-width=".79216" d="M95.47266 37.3086v57.24609"/><path d="M95.47266 98.6914c.10546-.5078.70703-2.74218 1.35546-4.13671H94.1172c.65234 1.39453 1.25 3.6289 1.35547 4.13672m0 0"/><g clip-path="url(#d)"><path fill="none" stroke="#000" stroke-miterlimit="10" stroke-width=".79216" d="M95.47266 98.6914c.10547-.5078.70703-2.74218 1.35547-4.13671h-2.71094c.65234 1.39453 1.25 3.6289 1.35547 4.13672Zm0 0"/></g></svg>