<svg xmlns="http://www.w3.org/2000/svg" xmlns:xlink="http://www.w3.org/1999/xlink" width="85.836pt" height="90.359pt" viewBox="0 0 85.836 90.359"><defs><clipPath id="d"><path d="M.22266 56H80v2H.22266Zm0 0"/></clipPath><clipPath id="e"><path d="M67 44h18.45313v26H67Zm0 0"/></clipPath><clipPath id="f"><path d="M.22266 0H22v68H.22266Zm0 0"/></clipPath><clipPath id="g"><path d="M.22266 0H24v18H.22266Zm0 0"/></clipPath><path id="a" d="M-7.125-12.35937h3.78125l-.75 1.1875.53125.46875c.75-.82813 1.625-1.42188 2.76563-1.92188v-.51562c-1.15625-.48438-2.01563-1.07813-2.76563-1.90625l-.53125.5.75 1.1875H-7.125Zm0 0"/><path id="b" d="M2.17188-.84375C2.17188-.20312 2.5.21875 3.25.21875c1.34375 0 2.375-1.26562 3-2.67187l-.45312-.25C5.45313-2.0625 4.65625-.75 4.14063-.75c-.21875 0-.29688-.14062-.29688-.375 0-.1875.03125-.39062.09375-.64062l2.03125-7.46875-.09375-.10938-3.375.51563-.125.45312 1.0625.10938c.34375.01562.48438.10937.48438.375 0 .10937-.03125.28125-.07813.46875l-1.5625 5.8125c-.07812.28124-.10937.51562-.10937.76562M4.5625-12.0625c0 .6875.48438 1.04688 1.03125 1.04688.73438 0 1.1875-.5 1.1875-1.25 0-.73438-.48437-1.03125-1-1.03125-.79687 0-1.21875.64062-1.21875 1.23437m0 0"/><path id="c" d="M-1.39062 3.29688c0 1 1.3125 1.1875 1.98437 1.1875.60938 0 1.20313-.1875 1.65625-.60938.85938-.76562 1.375-1.95312 1.85938-4.1875l1.9375-8.92187-.09375-.10938-3.54688.5625-.10937.46875c1.21875.0625 1.64062.10938 1.64062.40625 0 .125-.01562.25-.0625.40625L1.70313 2.95313c-.125.5625-.28126.84375-.51563.84375-.75 0-1.125-1.4375-1.6875-1.4375-.46875 0-.89062.59375-.89062.9375m5.6875-15.35938c0 .6875.46875 1.04688 1.03125 1.04688.71875 0 1.1875-.5 1.1875-1.25 0-.73438-.5-1.03125-1.01563-1.03125-.79687 0-1.20312.64062-1.20312 1.23437m0 0"/></defs><use xlink:href="#a" x="47.15991" y="78.73645"/><use xlink:href="#b" x="39.04746" y="82.91084"/><use xlink:href="#a" x="21.14943" y="31.73686"/><use xlink:href="#c" x="13.23556" y="35.91323"/><g clip-path="url(#d)"><path fill="none" stroke="#000" stroke-miterlimit="10" stroke-width=".7914" d="M.61719 56.6914h78.30859"/></g><path d="M83.0586 56.6914c-.50782-.10546-2.73829-.70703-4.13282-1.35546v2.70703c1.39453-.64844 3.625-1.2461 4.13281-1.35156m0 0"/><g clip-path="url(#e)"><path fill="none" stroke="#000" stroke-miterlimit="10" stroke-width=".7914" d="M83.0586 56.6914c-.50782-.10546-2.73829-.70703-4.13282-1.35546v2.70703c1.39453-.64844 3.625-1.2461 4.13281-1.35156Zm0 0"/></g><g clip-path="url(#f)"><path fill="none" stroke="#000" stroke-miterlimit="10" stroke-width=".7914" d="M.61719 56.6914 10.67187 6.41017"/></g><path d="M11.48438 2.35547c-.20313.47656-1.23047 2.54687-2.14063 3.78906L12 6.67578c-.36328-1.4961-.51172-3.80078-.51562-4.32031m0 0"/><g clip-path="url(#g)"><path fill="none" stroke="#000" stroke-miterlimit="10" stroke-width=".79137" d="M11.48438 2.35547c-.20313.47656-1.23047 2.54687-2.14063 3.78906L12 6.67578c-.36328-1.4961-.51172-3.80078-.51562-4.32031Zm0 0"/></g></svg>