<svg xmlns="http://www.w3.org/2000/svg" xmlns:xlink="http://www.w3.org/1999/xlink" width="468.115pt" height="468.115pt" viewBox="0 0 468.115 468.115"><defs><path id="b" d="M-7.15625-12.4375h3.79688l-.76563 1.20313.54688.46875c.75-.82813 1.625-1.42188 2.78125-1.92188v-.51562c-1.17188-.5-2.03125-1.09375-2.78125-1.9375l-.54688.51562.76563 1.20313h-3.79688Zm0 0"/><path id="c" d="M2.1875-.85937c0 .65625.3125 1.07812 1.07813 1.07812 1.34375 0 2.39062-1.26562 3.01562-2.6875l-.45312-.25C5.48438-2.0625 4.67188-.75 4.15625-.75c-.21875 0-.29687-.14062-.29687-.39062 0-.17188.04687-.39063.09375-.625L6-9.28125l-.09375-.10937L2.5-8.875l-.10937.46875 1.07812.09375c.32813.01563.46875.125.46875.375 0 .125-.01562.28125-.07812.48438L2.28125-1.60937c-.07812.28124-.09375.51562-.09375.75m2.40625-11.28125c0 .70312.48438 1.0625 1.03125 1.0625.73438 0 1.20313-.5 1.20313-1.25 0-.73438-.5-1.03125-1.01563-1.03125-.79687 0-1.21875.625-1.21875 1.21875m0 0"/><path id="d" d="M-1.39062 3.32813c0 .98437 1.3125 1.1875 1.98437 1.1875.625 0 1.21875-.20313 1.67188-.60938.85937-.78125 1.375-1.98437 1.875-4.21875l1.95312-8.96875-.10937-.10937-3.5625.5625-.10938.46875c1.23438.0625 1.64063.10937 1.64063.40625 0 .14062-.01563.25-.04688.42187l-2.20312 10.5c-.10938.57813-.26563.84375-.51563.84375-.75 0-1.125-1.45312-1.6875-1.45312-.46875 0-.89062.60937-.89062.96875M4.3125-12.14062c0 .70312.48438 1.0625 1.03125 1.0625.75 0 1.20313-.5 1.20313-1.25 0-.73438-.5-1.03125-1.01563-1.03125-.79687 0-1.21875.625-1.21875 1.21875m0 0"/><path id="e" d="M.59375-5.04687c0 3.07812 1.76563 5.32812 5.5 5.32812 3.29688 0 4.90625-1.6875 5.9375-3.54687C13.04688-5.09375 13.23438-7 13.23438-7.73437c0-3.84375-2.32813-5.5-5.42188-5.5-2.98437 0-4.82812 1.65625-5.92187 3.45312C.85938-8.0625.59375-6.28125.59375-5.04687m1.96875.75c0-1.57813.29688-3.32813 1.15625-5.125.85938-1.78125 2.1875-3.15625 4.17188-3.15625 2.04687 0 3.375 1.21875 3.375 3.85937 0 1.07813-.10938 2.60938-.875 4.59375-.78125 2.01563-2.0625 3.75-4.48438 3.75C3.875-.375 2.5625-1.6875 2.5625-4.29687m0 0"/><path id="h" d="m2.70313-2.03125.78125.78125 3.23437-3.26562L9.98438-1.25l.75-.78125L7.5-5.26562l3.23438-3.26563-.75-.75-3.26563 3.23438-3.23437-3.23438-.78125.75 3.26562 3.26563Zm0 0"/><path id="i" d="M-.35937 0h4.21875l.125-.53125L2.9375-.64062c-.23437-.01563-.32812-.14063-.32812-.3125 0-.09376.03125-.23438.09375-.375C3.32813-2.53125 3.92188-3.73437 4.60938-5H8.8125l.45313 3.85938s-.09375.46875-.5.5l-.98438.10937L7.67188 0h4.59375l.125-.53125-.71875-.0625c-.57813-.0625-.65625-.32812-.75-1.09375l-1.375-11.23437H8.21875l-3.14062 5.5C4.125-5.75 2.5625-2.96875 1.875-1.84375 1.26563-.875.95313-.67187.375-.60937l-.60937.07812ZM5-5.70312l3.03125-5.5.6875 5.5Zm0 0"/><path id="j" d="M0 0h5.67188c4.51562 0 5.42187-2.32812 5.42187-3.875 0-1.96875-1.45312-2.82812-2.8125-3.09375L8.29688-7c2.48437-.29687 3.53125-1.71875 3.53125-3.125 0-1.51562-.89063-2.79687-4.32813-2.79687H2.76563l-.125.53125 1.125.09375c.3125.03125.45312.15625.45312.46875 0 .10937-.04687.26562-.07812.45312L1.92188-1.54687c-.125.60937-.3125.82812-.76563.89062l-1.0625.125Zm3.73438-1.4375c0-.14062.03125-.26562.0625-.40625L4.875-6.64062h.73438c1.84375 0 3.48437.53125 3.48437 2.65625 0 1.67187-1.01562 3.32812-3.53125 3.32812-1.46875 0-1.82812-.29687-1.82812-.78125m1.28125-5.85937.96875-4.34375c.14062-.54688.23437-.65625 1.5-.65625 1.5625 0 2.4375.79687 2.4375 2.10937 0 1.95313-1.625 2.89063-3.70313 2.89063Zm0 0"/><path id="k" d="M.96875-5.125c0 2.45313 1.21875 5.40625 5.85938 5.40625C8.15625.28125 9.42188.09375 10.625-.5l.90625-2.98437h-.54687C9.9375-1.60937 9.01563-.375 6.70313-.375c-2.17188 0-3.71875-1.39062-3.71875-4.28125 0-1.6875.4375-3.75 1.32812-5.25.9375-1.57812 2.40625-2.67187 4.42188-2.67187 2.35937 0 3.04687 1.09375 3.04687 3.15625h.57813l.67187-2.8125c-1.07812-.67188-2.82812-1-4.14062-1-3.51563 0-5.54688 1.65625-6.64063 3.40625C1.21875-8.15625.96875-6.42187.96875-5.125m0 0"/><path id="l" d="M0 0h5.73438c3.73437 0 5.90625-1.35937 7.25-3.375 1.07812-1.625 1.25-3.1875 1.25-4.29687 0-1.51563-.53125-3.03125-1.60938-3.92188-1.09375-.92187-2.76562-1.32812-4.82812-1.32812H2.76563l-.125.53125 1.125.07812c.3125.01563.4375.17188.4375.48438 0 .10937-.03125.26562-.0625.45312L1.90625-1.54687c-.14062.60937-.29687.84375-.75.89062l-1.0625.125Zm3.70313-1.375c0-.07812 0-.15625.01562-.23437l2.25-9.98438c.15625-.64062.42188-.70312 2.04688-.70312 3.90625.07812 4.21875 2.70312 4.21875 4.20312 0 1.60938-.375 3.125-1.21875 4.51563C9.9375-1.82812 8.35938-.65625 5.25-.65625c-.90625 0-1.54687-.125-1.54687-.71875m0 0"/><clipPath id="a"><path d="M0 0h467.23047v467.23047H0Zm0 0"/></clipPath><clipPath id="f"><path d="M0 233h467.23047v1H0Zm0 0"/></clipPath><clipPath id="g"><path d="M233 0h1v467.23047h-1Zm0 0"/></clipPath></defs><g clip-path="url(#a)"><path fill="none" stroke="#000" stroke-miterlimit="10" stroke-opacity=".5" stroke-width=".39775" d="M.19531 445.8164h466.83985M.1953 403.375h466.83985M.1953 360.9375h466.83985M.1953 318.4961h466.83985M.1953 276.05468h466.83985M.1953 233.61719h466.83985M.1953 191.17579h466.83985M.1953 148.73828h466.83985M.1953 106.29687h466.83985M.1953 63.85547h466.83985M.1953 21.41797h466.83985M21.41406 467.03515V.19531m42.4414 466.83984V.19531m42.44142 466.83984V.19531m42.4375 466.83984V.19531m42.4414 466.83984V.19531m42.4414 466.83984V.19531m42.4375 466.83984V.19531m42.44141 466.83984V.19531m42.4375 466.83984V.19531m42.4414 466.83984V.19531m42.44141 466.83984V.19531"/></g><use xlink:href="#b" x="259.17901" y="255.77544"/><use xlink:href="#c" x="251.02442" y="259.9735"/><use xlink:href="#b" x="227.6037" y="215.61038"/><use xlink:href="#d" x="219.64874" y="219.80644"/><use xlink:href="#e" x="212.76775" y="253.86705"/><g clip-path="url(#f)"><path fill="none" stroke="#000" stroke-miterlimit="10" stroke-width=".39775" d="M.19531 233.61719h466.83985"/></g><g clip-path="url(#g)"><path fill="none" stroke="#000" stroke-miterlimit="10" stroke-width=".39775" d="M233.61719 467.03515V.19531"/></g><path fill="none" stroke="#000" stroke-miterlimit="10" stroke-width=".7955" d="M233.61719 233.61719h36.26953"/><path stroke="#000" stroke-miterlimit="10" stroke-width=".7955" d="M274.04297 233.61719c-.51172-.10547-2.7539-.70703-4.15625-1.36328v2.72265c1.40234-.65234 3.64453-1.2539 4.15625-1.35937Zm0 0"/><path fill="none" stroke="#000" stroke-miterlimit="10" stroke-width=".7955" d="M233.61719 233.61719v-36.26953"/><path stroke="#000" stroke-miterlimit="10" stroke-width=".7955" d="M233.61719 193.1914c-.10938.50782-.71094 2.75391-1.36328 4.15626h2.72265c-.65234-1.40235-1.2539-3.64844-1.35937-4.15625Zm0 0"/><use xlink:href="#h" x="142.0235" y="280.69433"/><use xlink:href="#i" x="155.7725" y="269.02439"/><use xlink:href="#h" x="311.76359" y="365.56388"/><use xlink:href="#j" x="325.5116" y="353.89394"/><use xlink:href="#h" x="57.15395" y="68.52046"/><use xlink:href="#k" x="70.90196" y="56.57205"/><use xlink:href="#h" x="396.63314" y="238.25956"/><use xlink:href="#l" x="410.38115" y="226.58962"/></svg>