<svg xmlns="http://www.w3.org/2000/svg" xmlns:xlink="http://www.w3.org/1999/xlink" width="69.641pt" height="58.88pt" viewBox="0 0 69.641 58.88"><defs><path id="a" d="M-4.64062-8.0625h2.46875l-.5.78125.35937.3125c.48438-.54687 1.04688-.9375 1.79688-1.25v-.34375c-.76563-.3125-1.3125-.70312-1.79688-1.25l-.35937.34375.5.76563h-2.46875Zm0 0"/><path id="b" d="M1.42188-.54687c0 .42187.20312.6875.6875.6875.875 0 1.54687-.82813 1.96875-1.73438l-.29688-.17187c-.21875.42187-.75 1.28125-1.09375 1.28125-.14062 0-.1875-.09375-.1875-.25 0-.10938.03125-.26563.0625-.40625l1.32813-4.875-.0625-.0625L1.625-5.75l-.07812.29688.70312.0625c.21875.01562.29688.07812.29688.25 0 .07812 0 .17187-.04688.3125L1.48438-1.04687c-.04688.1875-.0625.34375-.0625.5m1.5625-7.3125c0 .45312.29687.67187.65625.67187.48437 0 .78125-.3125.78125-.79687 0-.48438-.32813-.67188-.65625-.67188-.51563 0-.78125.40625-.78125.79688m0 0"/><path id="c" d="M-.90625 2.15625c0 .64063.85938.76563 1.29688.76563.39062 0 .78125-.125 1.07812-.39063.5625-.5.89063-1.28125 1.21875-2.73437l1.25-5.8125-.0625-.0625-2.29687.35937-.07813.3125c.79688.03125 1.0625.0625 1.0625.25 0 .09375-.01562.17188-.03125.26563l-1.42187 6.8125c-.07813.375-.1875.54687-.34375.54687-.48438 0-.73438-.9375-1.09375-.9375-.29688 0-.57813.39063-.57813.625M2.79688-7.85937c0 .45312.3125.67187.67187.67187.46875 0 .76563-.3125.76563-.79687 0-.48438-.3125-.67188-.65625-.67188-.51563 0-.78125.40625-.78125.79688m0 0"/><clipPath id="d"><path d="M42 40h26v18.66797H42Zm0 0"/></clipPath></defs><use xlink:href="#a" x="30.5719" y="14.192"/><use xlink:href="#b" x="25.28864" y="16.91059"/><use xlink:href="#a" x="65.10588" y="42.01955"/><use xlink:href="#c" x="59.95195" y="44.73814"/><path fill="none" stroke="red" stroke-miterlimit="10" stroke-width=".39646" d="M48.06641 21.60547v7.33203h7.33203"/><path fill="none" stroke="#000" stroke-miterlimit="10" stroke-width=".79292" d="M55.39844 21.60547H6.54299"/><path stroke="#000" stroke-miterlimit="10" stroke-width=".79292" d="M2.39844 21.60547c.50781.10547 2.7461.70312 4.14453 1.35547v-2.71485c-1.39844.65235-3.63672 1.25391-4.14453 1.35938Zm0 0"/><path fill="none" stroke="#000" stroke-miterlimit="10" stroke-width=".79292" d="M55.39844 21.60547v30.52342"/><path d="M55.39844 56.26953c.10547-.50781.70703-2.74219 1.35937-4.14062h-2.71484c.65234 1.39843 1.25 3.6328 1.35547 4.14062m0 0"/><g clip-path="url(#d)"><path fill="none" stroke="#000" stroke-miterlimit="10" stroke-width=".79292" d="M55.39844 56.26953c.10547-.50781.70703-2.74219 1.35937-4.14062h-2.71484c.65234 1.39843 1.25 3.6328 1.35547 4.14062Zm0 0"/></g></svg>