<svg xmlns="http://www.w3.org/2000/svg" xmlns:xlink="http://www.w3.org/1999/xlink" width="96.456pt" height="101.597pt" viewBox="0 0 96.456 101.597"><defs><clipPath id="d"><path d="M78 51h17.91406v26H78Zm0 0"/></clipPath><clipPath id="e"><path d="M0 .08594h24V76H0Zm0 0"/></clipPath><clipPath id="f"><path d="M0 .08594h25V18H0Zm0 0"/></clipPath><path id="a" d="M-8.03125-13.9375h4.26563l-.84375 1.34375.59375.53125c.84375-.9375 1.82812-1.60937 3.125-2.15625v-.59375c-1.3125-.54687-2.28125-1.21875-3.125-2.15625l-.59375.57813.84375 1.34374h-4.26563Zm0 0"/><path id="b" d="M2.45313-.95312C2.45313-.21876 2.8125.25 3.65625.25c1.51563 0 2.67188-1.4375 3.39063-3.01562l-.51563-.28125c-.375.73437-1.29687 2.20312-1.875 2.20312-.23437 0-.32812-.15625-.32812-.42187 0-.20313.04687-.45313.10937-.71875l2.29688-8.42188-.10938-.125-3.8125.59375-.14062.5 1.20312.125c.39063.01563.54688.125.54688.42188 0 .125-.03125.3125-.09375.53125L2.5625-1.8125c-.09375.3125-.10937.59375-.10937.85938m2.70312-12.64063c0 .76563.53125 1.17188 1.15625 1.17188.82813 0 1.32813-.5625 1.32813-1.40625 0-.82813-.54688-1.15625-1.125-1.15625-.89063 0-1.35938.71875-1.35938 1.39062m0 0"/><path id="c" d="M-1.5625 3.71875c0 1.125 1.46875 1.34375 2.23438 1.34375.6875 0 1.35937-.21875 1.875-.6875C3.5 3.5 4.07813 2.15625 4.64063-.35937l2.1875-10.04688-.10938-.125-4 .625-.125.54688c1.375.0625 1.84375.10937 1.84375.4375 0 .15625-.01562.29687-.0625.46875L1.92188 3.32813c-.14063.64062-.3125.95312-.57813.95312-.85937 0-1.28125-1.625-1.90625-1.625-.53125 0-1 .67188-1 1.0625m6.40625-17.3125c0 .76563.53125 1.17188 1.15625 1.17188.82813 0 1.32813-.5625 1.32813-1.40625 0-.82813-.54688-1.15625-1.125-1.15625-.89063 0-1.35938.71875-1.35938 1.39062m0 0"/></defs><use xlink:href="#a" x="52.82831" y="88.73405"/><use xlink:href="#b" x="43.6886" y="93.43702"/><use xlink:href="#a" x="23.52855" y="35.78865"/><use xlink:href="#c" x="14.61259" y="40.49163"/><path fill="none" stroke="#000" stroke-miterlimit="10" stroke-width=".79254" d="M.39453 63.89453h88.9844"/><path d="M93.51953 63.89453c-.50781-.10547-2.7461-.70312-4.14062-1.35547v2.71485c1.39453-.65235 3.6328-1.25391 4.14062-1.35938m0 0"/><g clip-path="url(#d)"><path fill="none" stroke="#000" stroke-miterlimit="10" stroke-width=".79254" d="M93.51953 63.89453c-.50781-.10547-2.7461-.70312-4.14062-1.35547v2.71485c1.39453-.65235 3.6328-1.25391 4.14062-1.35938Zm0 0"/></g><g clip-path="url(#e)"><path fill="none" stroke="#000" stroke-miterlimit="10" stroke-width=".79254" d="M.39453 63.89453 11.875 6.5039"/></g><path d="M12.6875 2.4414c-.20312.48048-1.23047 2.5547-2.14453 3.79688l2.66015.53125c-.36328-1.5-.51171-3.8086-.51562-4.32812m0 0"/><g clip-path="url(#f)"><path fill="none" stroke="#000" stroke-miterlimit="10" stroke-width=".79251" d="M12.6875 2.4414c-.20313.48047-1.23047 2.5547-2.14453 3.79688l2.66016.53125c-.36329-1.5-.51172-3.8086-.51563-4.32812Zm0 0"/></g></svg>