<svg xmlns="http://www.w3.org/2000/svg" xmlns:xlink="http://www.w3.org/1999/xlink" width="166.224pt" height="160.011pt" viewBox="0 0 166.224 160.011"><defs><path id="b" d="M-4.64062-8.04687h2.46875l-.5.76562.35937.3125c.48438-.53125 1.04688-.92187 1.79688-1.25v-.32812c-.76563-.32813-1.3125-.70313-1.79688-1.25l-.35937.32812.5.78125h-2.46875Zm0 0"/><path id="c" d="M1.42188-.54687c0 .42187.20312.6875.6875.6875.875 0 1.54687-.82813 1.95312-1.73438l-.29687-.17187c-.21875.42187-.73438 1.28125-1.07813 1.28125-.14062 0-.1875-.09375-.1875-.25 0-.10938.03125-.25.0625-.40625l1.32813-4.875-.0625-.0625L1.625-5.75l-.07812.29688.6875.07812c.21875 0 .3125.07813.3125.23438 0 .07812-.01563.1875-.04688.3125L1.48438-1.04687c-.0625.1875-.0625.34375-.0625.5m1.54687-7.3125c0 .45312.3125.6875.67188.6875.48437 0 .78125-.32813.78125-.8125 0-.46875-.32813-.67188-.65625-.67188-.51563 0-.79688.42188-.79688.79688m0 0"/><path id="d" d="M-.90625 2.15625c0 .64063.85938.76563 1.29688.76563.39062 0 .78125-.125 1.07812-.39063.54688-.51562.89063-1.28125 1.20313-2.73437l1.26562-5.8125-.0625-.0625-2.29687.35937-.07813.3125c.79688.03125 1.0625.0625 1.0625.25 0 .09375-.01562.17188-.03125.28125L1.10938 1.92188c-.07813.375-.1875.54687-.34375.54687-.48438 0-.73438-.9375-1.09375-.9375-.29688 0-.57813.39063-.57813.625M2.79688-7.85937c0 .45312.3125.6875.67187.6875.46875 0 .76563-.32813.76563-.8125 0-.46875-.32813-.67188-.65625-.67188-.51563 0-.78125.42188-.78125.79688m0 0"/><path id="f" d="M0-7.98437h3.75l-.5.78125.35938.29687c.48437-.53125 1.04687-.90625 1.79687-1.23437v-.45313c-.76562-.32812-1.3125-.70312-1.79687-1.25L3.25-9.54687l.5.79687L0-8.76562Zm0 0"/><path id="g" d="M.84375-1.29687c0 .71875.34375 1.4375 1.17188 1.4375 1.29687 0 2.40625-1.5 3.125-2.73438h.01562L4.75-1.20312c-.07812.26562-.125.5-.125.6875 0 .42187.20313.65625.65625.65625.90625 0 1.59375-.82813 2-1.73438L7-1.76562c-.21875.42187-.75 1.28125-1.09375 1.28125-.14062 0-.1875-.09375-.1875-.23438 0-.125.03125-.26562.07813-.42187L7.0625-5.96875H6.04688L6-5.8125c-.20312-.15625-.5625-.26562-.89062-.26562-2.875 0-4.26563 3.1875-4.26563 4.78125m1.20313-.03126c0-1.32812 1.1875-4.32812 3.09375-4.32812.29687 0 .54687.10938.73437.28125-.21875.89063-.64062 2.09375-1.29687 3.0625-.67188 1.03125-1.42188 1.82813-2 1.82813-.40625 0-.53125-.35938-.53125-.84375m0 0"/><path id="h" d="M1.0625 0H1.5l.35938-.70312c.21874.5.82812.84375 1.53125.84375 1.40625 0 2.4375-.9375 3.03125-2C7.03125-2.9375 7.21875-4 7.21875-4.54687c0-.90625-.375-1.53125-1.28125-1.53125-.92187 0-2.125.84375-3.04687 2.5h-.03125l1.34375-5.34375-.0625-.04688-2.15625.28125-.07813.28125.6875.07813c.20313.03125.29688.0625.29688.25 0 .07812-.01563.1875-.0625.34375Zm1.48438-1.3125c0-.57812.26562-1.42187.64062-2.125.54688-.96875 1.45313-2.01562 2.20313-2.01562.45312 0 .64062.3125.64062 1.01562 0 .875-.71875 4.15625-2.48437 4.15625-.625 0-1-.42187-1-1.03125m0 0"/><path id="i" d="M1.03125-1.79687c0 1.48437.89063 1.9375 1.73438 1.9375.90625 0 1.92187-.39063 2.75-1.78125l-.28125-.21876c-.42188.54688-1.125 1.40626-1.9375 1.40626-.89063 0-1.0625-.71875-1.0625-1.57813 0-1.57812.90625-3.625 2.01562-3.625.39063 0 .65625.25.73438.96875.03125.21875.125.35938.34375.35938.29687 0 .78125-.26563.78125-.67188 0-.60937-.65625-1.07812-1.5625-1.07812-2.15625 0-3.51563 2.3125-3.51563 4.28125m0 0"/><clipPath id="a"><path d="M.125 13h165.20313v139H.125Zm0 0"/></clipPath><clipPath id="e"><path d="M.125 137h165.20313v1H.125Zm0 0"/></clipPath></defs><g clip-path="url(#a)"><path fill="none" stroke="#7f7f7f" stroke-dasharray=".39605321 .9901628408" stroke-miterlimit="10" stroke-width=".39605" d="M.32422 137.53516H165.1328M.32422 110.07032H165.1328M.32422 82.60157H165.1328M.32422 55.13282H165.1328M.32422 27.66408H165.1328M14.0586 151.26953V13.9297m27.46484 137.33983V13.9297m27.46875 137.33983V13.9297m27.46875 137.33983V13.9297m27.46874 137.33983V13.9297m27.46875 137.33983V13.9297"/></g><use xlink:href="#b" x="30.60305" y="151.88065"/><use xlink:href="#c" x="25.32517" y="154.59647"/><use xlink:href="#b" x="10.16537" y="125.88334"/><use xlink:href="#d" x="5.01669" y="128.59915"/><g clip-path="url(#e)"><path fill="none" stroke="#000" stroke-miterlimit="10" stroke-width=".39605" d="M.32422 137.53516H165.1328"/></g><path fill="none" stroke="#000" stroke-miterlimit="10" stroke-width=".39605" d="M14.0586 151.26953V13.9297"/><path fill="none" stroke="#000" stroke-miterlimit="10" stroke-width=".79212" d="M14.0586 137.53516h21.3242"/><path stroke="#000" stroke-miterlimit="10" stroke-width=".79212" d="M39.52344 137.53516c-.50782-.10547-2.74219-.70313-4.14063-1.35547v2.71484c1.39844-.65234 3.63281-1.2539 4.14063-1.35937Zm0 0"/><path fill="none" stroke="#000" stroke-miterlimit="10" stroke-width=".79212" d="M14.0586 137.53516v-21.32422"/><path stroke="#000" stroke-miterlimit="10" stroke-width=".79212" d="M14.0586 112.07031c-.10548.50782-.70704 2.74219-1.35938 4.14063h2.71484c-.65234-1.39844-1.25-3.63281-1.35547-4.14063Zm0 0"/><path fill="none" stroke="#007f7f" stroke-miterlimit="10" stroke-width=".39605" d="m41.52343 110.07032 24.25-24.25"/><path fill="#007f7f" stroke="#007f7f" stroke-miterlimit="10" stroke-width=".39605" d="M68.46875 83.125c-.41797.24219-2.3789 1.1914-3.83984 1.55469l2.28515 2.28515c.36328-1.46093 1.3125-3.42187 1.55469-3.83984Zm0 0"/><use xlink:href="#f" x="61.16843" y="110.71867" fill="#007f7f"/><use xlink:href="#g" x="59.80406" y="110.86079" fill="#007f7f"/><path fill="none" stroke="#007f7f" stroke-miterlimit="10" stroke-width=".39605" d="m151.39842 110.07032-50.86328-25.4336"/><path fill="#007f7f" stroke="#007f7f" stroke-miterlimit="10" stroke-width=".39602" d="M97.1211 82.92969c.36328.32422 1.88671 1.88281 2.6914 3.15234l1.44531-2.89062c-1.5.1211-3.66015-.16407-4.13672-.26172Zm0 0"/><use xlink:href="#f" x="130.1438" y="88.61101" fill="#007f7f"/><use xlink:href="#h" x="128.47065" y="91.64854" fill="#007f7f"/><path fill="none" stroke="#007f7f" stroke-miterlimit="10" stroke-width=".39605" d="m68.99218.19533 25.43359 50.86328"/><path fill="#007f7f" stroke="#007f7f" stroke-miterlimit="10" stroke-width=".39602" d="M96.1289 54.47266c-.09374-.47657-.3789-2.63672-.2578-4.13672l-2.89063 1.44531c1.26953.80469 2.82812 2.32812 3.14844 2.6914Zm0 0"/><use xlink:href="#f" x="88.17212" y="22.83983" fill="#007f7f"/><use xlink:href="#i" x="87.2703" y="22.98195" fill="#007f7f"/></svg>