<svg xmlns="http://www.w3.org/2000/svg" xmlns:xlink="http://www.w3.org/1999/xlink" width="255.516pt" height="246.065pt" viewBox="0 0 255.516 246.065"><defs><path id="b" d="M-7.14062-12.40625h3.78125l-.75 1.1875.53125.48438c.76562-.82813 1.64062-1.4375 2.78125-1.92188v-.51562c-1.17188-.5-2.01563-1.09375-2.78125-1.92188l-.53125.51563.75 1.1875h-3.78125Zm0 0"/><path id="c" d="M2.1875-.85937C2.1875-.20312 2.5.21874 3.25.21874c1.35938 0 2.39063-1.26562 3.01563-2.67187l-.45313-.26563C5.48438-2.0625 4.65625-.75 4.14063-.75c-.21875 0-.29688-.14062-.29688-.375 0-.1875.04688-.40625.10938-.64062L6-9.26562l-.10937-.09375L2.5-8.84375l-.125.45313 1.07813.09375c.34375.01562.46875.125.46875.375 0 .125-.01563.28125-.07813.48437l-1.5625 5.82813c-.07812.28124-.09375.51562-.09375.75m2.39063-11.25c0 .70312.48437 1.0625 1.03125 1.0625.73437 0 1.20312-.5 1.20312-1.25 0-.73438-.5-1.03125-1.01562-1.03125-.79688 0-1.21875.625-1.21875 1.21875m0 0"/><path id="d" d="M-1.39062 3.3125c0 1 1.3125 1.1875 1.98437 1.1875.60938 0 1.21875-.1875 1.67188-.60937C3.10938 3.10938 3.625 1.92188 4.125-.3125l1.95313-8.95312-.10938-.09375-3.54687.54687-.125.48438c1.23437.04687 1.65625.09375 1.65625.39062 0 .14063-.03125.26563-.0625.42188L1.70313 2.95313c-.10938.57812-.28126.85937-.51563.85937-.75 0-1.125-1.45312-1.6875-1.45312-.46875 0-.89062.59375-.89062.95312M4.3125-12.10937c0 .70312.46875 1.0625 1.03125 1.0625.73438 0 1.1875-.5 1.1875-1.25 0-.73438-.5-1.03125-1.01562-1.03125-.79688 0-1.20313.625-1.20313 1.21875m0 0"/><path id="f" d="M0-12.29687h5.78125l-.76562 1.20312.54687.45313c.75-.82813 1.625-1.40625 2.76563-1.90625V-13.25c-1.17188-.5-2.01563-1.07812-2.76563-1.90625l-.54687.45313L5.78125-13.5 0-13.51562Zm0 0"/><path id="g" d="M1.3125-2c0 1.10938.51563 2.21875 1.78125 2.21875 2 0 3.73438-2.29687 4.82813-4.20312h.03125l-.625 2.125c-.125.40625-.20313.76562-.20313 1.0625 0 .65625.3125 1.01562 1.01563 1.01562 1.40625 0 2.45312-1.26562 3.09375-2.67187l-.4375-.26563C10.45313-2.0625 9.625-.75 9.10938-.75c-.21875 0-.29688-.14062-.29688-.35937 0-.1875.0625-.40625.125-.65625l1.95313-7.4375h-1.5625L9.25-8.96875c-.3125-.21875-.875-.39062-1.375-.39062-4.4375 0-6.5625 4.89062-6.5625 7.35937m1.84375-.04687c0-2.04688 1.82813-6.67188 4.76563-6.67188.45312 0 .84375.17188 1.125.42188C8.71875-6.90625 8.0625-5.0625 7.0625-3.57812 6.01563-1.98437 4.85938-.75 3.96875-.75c-.60937 0-.8125-.5625-.8125-1.29687m0 0"/><path id="h" d="M1.625 0h.67188L2.875-1.09375C3.21875-.3125 4.14063.21875 5.21875.21875c2.1875 0 3.76563-1.45312 4.6875-3.09375C10.82813-4.53125 11.125-6.17187 11.125-7c0-1.39062-.59375-2.35937-1.98437-2.35937-1.40625 0-3.26563 1.28125-4.70313 3.84375h-.03125L6.46875-13.75l-.07812-.07812-3.32813.4375-.125.4375 1.04688.10937c.32812.04688.45312.10938.45312.375 0 .14063-.01562.29688-.07812.54688Zm2.29688-2.03125c0-.89062.40625-2.17187 1-3.26562C5.75-6.78125 7.15625-8.39062 8.3125-8.39062c.70313 0 1 .46875 1 1.54687C9.3125-5.5 8.20313-.4375 5.45313-.4375c-.95313 0-1.53125-.65625-1.53125-1.59375m0 0"/><path id="i" d="M1.59375-2.76562c0 2.29687 1.35938 2.98437 2.67188 2.98437 1.39062 0 2.95312-.59375 4.25-2.73437L8.0625-2.875c-.64062.84375-1.73437 2.1875-2.98437 2.1875-1.375 0-1.64063-1.125-1.64063-2.45312 0-2.42188 1.40625-5.57813 3.10938-5.57813.59375 0 1.01562.39063 1.125 1.5.04687.32813.20312.54688.54687.54688.45313 0 1.1875-.40625 1.1875-1.03125 0-.95313-1.01562-1.65625-2.40625-1.65625-3.3125 0-5.40625 3.54687-5.40625 6.59375m0 0"/><clipPath id="a"><path d="M.24219 21h254.55078v213H.24219Zm0 0"/></clipPath><clipPath id="e"><path d="M.24219 211h254.55078v2H.24219Zm0 0"/></clipPath></defs><g clip-path="url(#a)"><path fill="none" stroke="#000" stroke-miterlimit="10" stroke-opacity=".5" stroke-width=".39699" d="M.4414 211.99219h254.15636M.4414 169.63279h254.15636M.4414 127.2734h254.15636M.4414 84.914h254.15636M.4414 42.55462h254.15636M21.62109 233.17188V21.37492m42.3594 211.79696V21.37492m42.35939 211.79696V21.37492m42.3594 211.79696V21.37492m42.35939 211.79696V21.37492m42.35939 211.79696V21.37492"/></g><use xlink:href="#b" x="47.13535" y="234.11142"/><use xlink:href="#c" x="38.99628" y="238.29951"/><use xlink:href="#b" x="15.6201" y="194.01976"/><use xlink:href="#d" x="7.68027" y="198.20984"/><g clip-path="url(#e)"><path fill="none" stroke="#000" stroke-miterlimit="10" stroke-width=".39699" d="M.4414 211.99219h254.15636"/></g><path fill="none" stroke="#000" stroke-miterlimit="10" stroke-width=".39699" d="M21.6211 233.17188V21.37492"/><path fill="none" stroke="#000" stroke-miterlimit="10" stroke-width=".79399" d="M21.6211 211.99219h36.19923"/><path stroke="#000" stroke-miterlimit="10" stroke-width=".79399" d="M61.96875 211.99219c-.50781-.10547-2.7461-.70703-4.14844-1.35938v2.71875c1.40235-.65234 3.64063-1.2539 4.14844-1.35937Zm0 0"/><path fill="none" stroke="#000" stroke-miterlimit="10" stroke-width=".79399" d="M21.6211 211.99219v-36.19924"/><path stroke="#000" stroke-miterlimit="10" stroke-width=".79399" d="M21.6211 171.64453c-.10548.50781-.70704 2.7461-1.35938 4.14844h2.71875c-.65234-1.40235-1.2539-3.64063-1.35938-4.14844Zm0 0"/><path fill="none" stroke="#007F7F" stroke-miterlimit="10" stroke-width=".39699" d="m63.98049 169.6328 39.12892-39.12893"/><path fill="#007F7F" stroke="#007F7F" stroke-miterlimit="10" stroke-width=".39699" d="M105.8125 127.79688c-.41797.24609-2.38281 1.19921-3.84766 1.55859l2.29297 2.29297c.35938-1.46485 1.3125-3.42969 1.55469-3.85156Zm0 0"/><use xlink:href="#f" x="94.26825" y="170.63861" fill="#007F7F"/><use xlink:href="#g" x="92.16425" y="170.85777" fill="#007F7F"/><path fill="none" stroke="#007F7F" stroke-miterlimit="10" stroke-width=".39699" d="m233.41806 169.6328-80.63675-40.31643"/><path fill="#007F7F" stroke="#007F7F" stroke-miterlimit="10" stroke-width=".39696" d="M149.36328 127.60547c.36328.32422 1.88672 1.88672 2.69531 3.16015l1.44532-2.89843c-1.5.11719-3.66797-.16406-4.14063-.26172Zm0 0"/><use xlink:href="#f" x="200.6301" y="136.54416" fill="#007F7F"/><use xlink:href="#h" x="198.0499" y="141.23035" fill="#007F7F"/><path fill="none" stroke="#007F7F" stroke-miterlimit="10" stroke-width=".39699" d="m106.33988.19522 40.31642 80.63676"/><path fill="#007F7F" stroke="#007F7F" stroke-miterlimit="10" stroke-width=".39696" d="M148.36719 84.25c-.09766-.47656-.38282-2.64062-.26172-4.14453l-2.89844 1.44922c1.27344.80859 2.83594 2.33203 3.16016 2.6953Zm0 0"/><use xlink:href="#f" x="135.90903" y="35.12553" fill="#007F7F"/><use xlink:href="#i" x="134.51831" y="35.3447" fill="#007F7F"/></svg>