<svg xmlns="http://www.w3.org/2000/svg" xmlns:xlink="http://www.w3.org/1999/xlink" width="255.516pt" height="224.805pt" viewBox="0 0 255.516 224.805"><defs><path id="b" d="M-7.15625-12.4375h3.79688l-.76563 1.20313.54688.46875c.75-.82813 1.625-1.42188 2.78125-1.92188v-.51562c-1.17188-.5-2.03125-1.09375-2.78125-1.9375l-.54688.51562.76563 1.20313h-3.79688Zm0 0"/><path id="c" d="M2.1875-.85937c0 .65625.3125 1.07812 1.07813 1.07812 1.34375 0 2.39062-1.26562 3.01562-2.6875l-.45312-.25C5.48438-2.0625 4.67188-.75 4.15625-.75c-.21875 0-.29687-.14062-.29687-.39062 0-.17188.04687-.39063.09375-.625L6-9.28125l-.09375-.10937L2.5-8.875l-.10937.46875 1.07812.09375c.32813.01563.46875.125.46875.375 0 .125-.01562.28125-.07812.48438L2.28125-1.60937c-.07812.28124-.09375.51562-.09375.75m2.40625-11.28125c0 .70312.48438 1.0625 1.03125 1.0625.73438 0 1.20313-.5 1.20313-1.25 0-.73438-.5-1.03125-1.01563-1.03125-.79687 0-1.21875.625-1.21875 1.21875m0 0"/><path id="d" d="M-1.39062 3.32813c0 .98437 1.3125 1.1875 1.98437 1.1875.625 0 1.21875-.20313 1.67188-.60938.85937-.78125 1.375-1.98437 1.875-4.21875l1.95312-8.96875-.10937-.10937-3.5625.5625-.10938.46875c1.23438.0625 1.64063.10937 1.64063.40625 0 .14062-.01563.25-.04688.42187l-2.20312 10.5c-.10938.57813-.26563.84375-.51563.84375-.75 0-1.125-1.45312-1.6875-1.45312-.46875 0-.89062.60937-.89062.96875M4.3125-12.14062c0 .70312.48438 1.0625 1.03125 1.0625.75 0 1.20313-.5 1.20313-1.25 0-.73438-.5-1.03125-1.01563-1.03125-.79687 0-1.21875.625-1.21875 1.21875m0 0"/><path id="g" d="M0-12.32812h5.78125l-.75 1.20312.53125.46875c.76563-.84375 1.64063-1.42187 2.79688-1.92187v-.70313c-1.17188-.5-2.03125-1.07812-2.79688-1.92187l-.53125.46875.75 1.20312L0-13.54687Zm0 0"/><path id="h" d="M1.3125-2.01562c0 1.125.51563 2.23437 1.79688 2.23437 2 0 3.73437-2.3125 4.82812-4.21875h.03125l-.625 2.125c-.125.42188-.20312.78125-.20312 1.07813 0 .65625.3125 1.01562 1.01562 1.01562 1.40625 0 2.46875-1.26562 3.10938-2.6875l-.4375-.25C10.48438-2.0625 9.64063-.75 9.125-.75c-.21875 0-.29687-.14062-.29687-.35937 0-.1875.0625-.40625.125-.65625l1.96875-7.46875H9.34375l-.07812.25c-.3125-.21875-.875-.40625-1.375-.40625-4.45313 0-6.57813 4.92187-6.57813 7.375m1.84375-.03125c0-2.04688 1.84375-6.6875 4.78125-6.6875.45313 0 .85938.15625 1.125.42187-.32812 1.39063-.98437 3.23438-1.98437 4.73438C6.03125-1.98437 4.875-.75 3.98438-.75c-.625 0-.82813-.5625-.82813-1.29687m0 0"/><path id="i" d="M1.625 0h.6875l.57813-1.09375C3.21875-.3125 4.15625.21875 5.23438.21875c2.1875 0 3.78125-1.45312 4.6875-3.10937.9375-1.64063 1.23437-3.29688 1.23437-4.125 0-1.39063-.59375-2.375-1.98437-2.375-1.42188 0-3.28125 1.29687-4.71875 3.85937h-.03125l2.0625-8.25-.07813-.07812-3.34375.4375-.125.4375L4-12.875c.3125.04688.45313.10938.45313.39063 0 .125-.01563.29687-.07813.53125Zm2.3125-2.03125c0-.89062.40625-2.1875 1-3.28125.82813-1.48437 2.25-3.09375 3.39063-3.09375.70312 0 1 .46875 1 1.54688 0 1.34375-1.10938 6.42187-3.85938 6.42187-.95312 0-1.53125-.65625-1.53125-1.59375m0 0"/><clipPath id="a"><path d="M0 .11328h255.03125V213H0Zm0 0"/></clipPath><clipPath id="e"><path d="M0 191h255.03125v1H0Zm0 0"/></clipPath><clipPath id="f"><path d="M21 .11328h1V213h-1Zm0 0"/></clipPath></defs><g clip-path="url(#a)"><path fill="none" stroke="#000" stroke-miterlimit="10" stroke-opacity=".5" stroke-width=".39775" d="M.19923 191.29297h254.63662M.19923 148.85157h254.63662M.19923 106.4102h254.63662M.19923 63.9727h254.63662M.19923 21.53131h254.63662M21.41797 212.51171V.31257m42.44139 212.19914V.31257m42.43748 212.19914V.31257m42.4414 212.19914V.31257m42.43748 212.19914V.31257m42.44139 212.19914V.31257"/></g><use xlink:href="#b" x="46.98201" y="213.45209"/><use xlink:href="#c" x="38.82745" y="217.64814"/><use xlink:href="#b" x="15.40682" y="173.28418"/><use xlink:href="#d" x="7.45188" y="177.48223"/><g clip-path="url(#e)"><path fill="none" stroke="#000" stroke-miterlimit="10" stroke-width=".39775" d="M.19923 191.29297h254.63662"/></g><g clip-path="url(#f)"><path fill="none" stroke="#000" stroke-miterlimit="10" stroke-width=".39775" d="M21.41797 212.51171V.31257"/></g><path fill="none" stroke="#000" stroke-miterlimit="10" stroke-width=".7955" d="M21.41797 191.29297h36.26952"/><path stroke="#000" stroke-miterlimit="10" stroke-width=".7955" d="M61.84375 191.29297c-.50781-.10938-2.7539-.71094-4.15625-1.36328v2.72265c1.40234-.65234 3.64844-1.2539 4.15625-1.35937Zm0 0"/><path fill="none" stroke="#000" stroke-miterlimit="10" stroke-width=".7955" d="M21.41797 191.29297v-36.27342"/><path stroke="#000" stroke-miterlimit="10" stroke-width=".7955" d="M21.41797 150.86328c-.10547.51172-.70703 2.7539-1.35938 4.15625h2.72266c-.65625-1.40234-1.25781-3.64453-1.36328-4.15625Zm0 0"/><path fill="none" stroke="#007F7F" stroke-miterlimit="10" stroke-width=".39775" d="m63.85936 148.85158 39.20311-39.20702"/><path fill="#007F7F" stroke="#007F7F" stroke-miterlimit="10" stroke-width=".39774" d="M105.77344 106.9375c-.42188.24219-2.39063 1.19922-3.85547 1.5625l2.29297 2.29297c.36328-1.46484 1.3203-3.4336 1.5625-3.85547Zm0 0"/><use xlink:href="#g" x="94.20456" y="149.85855" fill="#007F7F"/><use xlink:href="#h" x="92.09655" y="150.07814" fill="#007F7F"/><path fill="none" stroke="#007F7F" stroke-miterlimit="10" stroke-width=".39775" d="m233.6171 148.85158-80.78902-40.39452"/><path fill="#007F7F" stroke="#007F7F" stroke-miterlimit="10" stroke-width=".39771" d="M149.40234 106.74219c.36329.32421 1.89454 1.89062 2.69922 3.16797l1.45313-2.90625c-1.5039.12109-3.67578-.16407-4.15235-.26172Zm0 0"/><use xlink:href="#g" x="200.7687" y="115.69925" fill="#007F7F"/><use xlink:href="#i" x="198.1836" y="120.39436" fill="#007F7F"/></svg>