<svg xmlns="http://www.w3.org/2000/svg" xmlns:xlink="http://www.w3.org/1999/xlink" width="199.147pt" height="156.485pt" viewBox="0 0 199.147 156.485"><defs><path id="b" d="M-4.64062-8.0625h2.46875l-.5.78125.35937.3125c.48438-.54687 1.04688-.9375 1.79688-1.25v-.34375c-.76563-.3125-1.3125-.70312-1.79688-1.25l-.35937.34375.5.76563h-2.46875Zm0 0"/><path id="c" d="M1.42188-.54687c0 .42187.20312.6875.6875.6875.875 0 1.54687-.82813 1.96875-1.73438l-.29688-.17187c-.21875.42187-.75 1.28125-1.09375 1.28125-.14062 0-.1875-.09375-.1875-.25 0-.10938.03125-.26563.0625-.40625l1.32813-4.875-.0625-.0625L1.625-5.75l-.07812.29688.70312.0625c.21875.01562.29688.07812.29688.25 0 .07812 0 .17187-.04688.3125L1.48438-1.04687c-.04688.1875-.0625.34375-.0625.5m1.5625-7.3125c0 .45312.29687.67187.65625.67187.48437 0 .78125-.3125.78125-.79687 0-.48438-.32813-.67188-.65625-.67188-.51563 0-.78125.40625-.78125.79688m0 0"/><path id="d" d="M-.90625 2.15625c0 .64063.85938.76563 1.29688.76563.39062 0 .78125-.125 1.07812-.39063.5625-.5.89063-1.28125 1.21875-2.73437l1.25-5.8125-.0625-.0625-2.29687.35937-.07813.3125c.79688.03125 1.0625.0625 1.0625.25 0 .09375-.01562.17188-.03125.26563l-1.42187 6.8125c-.07813.375-.1875.54687-.34375.54687-.48438 0-.73438-.9375-1.09375-.9375-.29688 0-.57813.39063-.57813.625M2.79688-7.85937c0 .45312.3125.67187.67187.67187.46875 0 .76563-.3125.76563-.79687 0-.48438-.3125-.67188-.65625-.67188-.51563 0-.78125.40625-.78125.79688m0 0"/><path id="f" d="m1.75-1.3125.5.5 2.10938-2.10937L6.46875-.8125l.48438-.5-2.09375-2.10937 2.09375-2.10938-.48438-.48437-2.10937 2.09375L2.25-6.01562l-.5.48437 2.10938 2.10938Zm0 0"/><path id="g" d="M.39063-3.28125c0 2 1.14062 3.46875 3.54687 3.46875 2.14063 0 3.1875-1.10937 3.85938-2.29687.65625-1.1875.78125-2.42188.78125-2.90625 0-2.48438-1.51563-3.5625-3.51563-3.5625-1.9375 0-3.125 1.07812-3.84375 2.23437-.67187 1.125-.82812 2.26563-.82812 3.0625m1.26562.5c0-1.01562.20313-2.15625.75-3.32812C2.96875-7.25 3.82813-8.14062 5.125-8.14062c1.3125 0 2.17188.78125 2.17188 2.5 0 .6875-.0625 1.6875-.5625 2.96875C6.21875-1.35937 5.40625-.25 3.82813-.25c-1.3125 0-2.17188-.84375-2.17188-2.53125m0 0"/><path id="u" d="M0 0h2.85938l.0625-.34375-.46875-.04687c-.35938-.01563-.5625-.10938-.5625-.375 0-.64063.125-1 .26562-1.64063l1.10938-4.9375h.01562L4.75-.14062h.32813l4.71875-7.20313h.03125L8.34375-1c-.10937.40625-.21875.54688-.51562.57813l-.65625.07812L7.09375 0h3.29688l.0625-.34375L9.75-.42187c-.21875-.01563-.3125-.125-.3125-.3125 0-.07813.01563-.17188.03125-.26563l1.46875-6.375c.09375-.40625.1875-.57812.5-.60937l.67188-.04688.07812-.34375H9.82813c-.65625 1.10938-1.375 2.1875-2.10938 3.3125L5.57813-1.79687h-.03125l-.6875-3.35938C4.60938-6.25 4.375-7.29687 4.15625-8.375H1.8125l-.07812.34375.71875.0625c.20312.01563.3125.125.3125.32813 0 .07812-.01563.17187-.04688.26562L1.57813-2.40625c-.14063.64063-.29688 1.10938-.4375 1.5C1-.51562.78125-.42187.4375-.39062l-.375.04687Zm0 0"/><path id="h" d="M.57813-4.1875c0 1.35938.375 2.46875 1.03125 3.1875.6875.76563 1.67187 1.1875 3 1.1875C5.9375.1875 6.9375-.23437 7.625-1c.65625-.71875 1.03125-1.82812 1.03125-3.1875 0-1.35937-.375-2.48437-1.03125-3.20312-.6875-.75-1.6875-1.1875-3.01562-1.1875s-2.3125.4375-3 1.1875C.95313-6.67187.57813-5.54687.57813-4.1875m1.35937 0c0-1.78125.53125-3.95312 2.67188-3.95312 2.15625 0 2.6875 2.17187 2.6875 3.95312S6.76563-.25 4.60938-.25C2.46875-.25 1.9375-2.40625 1.9375-4.1875m0 0"/><path id="i" d="M.39063 0h3.1875v-.34375C2.5-.40625 2.4375-.4375 2.4375-1.0625v-2.82812c0-.9375.40625-1.25.6875-1.25.20313 0 .40625.07812.75.26562.09375.04688.1875.0625.25.0625.29688 0 .54688-.3125.54688-.67187 0-.28125-.15625-.59375-.64063-.59375-.4375 0-.79687.25-1.59375.95312l-.14062-.95312-1.84375.29687v.29688l.45312.07812c.3125.04688.39063.09375.39063.53125v3.8125c0 .625-.0625.65625-.90625.71875Zm0 0"/><path id="j" d="M1.10938-7.92187c0 .4375.3125.73437.75.73437s.73437-.29687.73437-.73437-.29687-.73438-.73437-.73438-.75.29688-.75.73438M.39063 0h2.95312v-.34375c-.875-.0625-.90625-.09375-.90625-.71875V-6l-.09375-.07812-1.89062.29687v.29688l.45312.07812c.3125.04688.39063.09375.39063.53125v3.8125c0 .625-.03126.65625-.90625.71875Zm0 0"/><path id="k" d="M.5 1.15625c0 1.23438 1.23438 1.76563 2.625 1.76563.73438 0 1.48438-.14063 2.0625-.48438.5625-.34375.96875-.92187.96875-1.67187C6.15625-.54687 5.125-1 3.8125-1h-.96875c-.875 0-1-.28125-1-.51562 0-.35938.46875-.54688.625-.59375.21875.01562.48438.03125.60938.03125 1.15625 0 2.45312-.5 2.45312-1.96875 0-.5-.17187-.92188-.375-1.14063l.96875-.15625.25-.75-.10937-.10937-1.54688.5c-.34375-.23438-1.01562-.375-1.57812-.375-1.85938 0-2.5 1.125-2.5 2.03125 0 1.14062.75 1.65625 1.3125 1.79687v.03125c-.67188.26563-1.10938.60938-1.10938 1.07813 0 .4375.48438.89062 1.0625.95312v.01563C1.39063 0 .5.28125.5 1.15625m1.15625-.04687c0-.40625.125-.71875.375-.92188.28125-.20312.67188-.28125 1.25-.28125 1.07813 0 1.85938.28125 1.85938 1.17188 0 .96875-.875 1.4375-1.73438 1.4375-1.03125 0-1.75-.53125-1.75-1.40625M1.875-4.04687c0-1.20313.625-1.60938 1.26563-1.60938.59375 0 1.21875.4375 1.21875 1.60938C4.35938-3.03125 3.84375-2.5 3.125-2.5c-.67187 0-1.25-.53125-1.25-1.54687m0 0"/><path id="l" d="M.39063 0h2.95312v-.34375c-.875-.0625-.90625-.09375-.90625-.71875v-2.82812c0-.3125.01563-.46875.10938-.65625.26562-.48438.79687-.875 1.45312-.875.82813 0 1.26563.45312 1.26563 1.5v2.85937c0 .625-.03125.65625-.90625.71875V0h2.96875v-.34375c-.875-.0625-.92188-.09375-.92188-.71875v-3.09375c0-1.21875-.67187-1.92187-1.78125-1.92187-.90625 0-1.45312.4375-2.20312.92187L2.25-6.07812l-1.79687.29687v.29688l.45312.07812c.3125.04688.39063.09375.39063.53125v3.8125c0 .625-.03126.65625-.90625.71875Zm0 0"/><path id="m" d="M.59375-2.92187C.59375-1 1.42188.14063 3.39063.14063c1.34375 0 2.03125-.75 2.35937-1.70313L5.39063-1.75c-.34375.70313-.79688 1.26563-1.75 1.26563-1.51563 0-1.8125-1.4375-1.78125-2.70313h3.48437c.26563 0 .48438-.0625.48438-.45312 0-.71875-.23438-2.4375-2.45313-2.4375C1.48438-6.07812.59375-4.75.59375-2.92187M1.875-3.64062c0-.51563.17188-2.01563 1.4375-2.01563 1.125 0 1.25 1.14063 1.25 1.625 0 .23438-.07812.39063-.40625.39063Zm0 0"/><path id="n" d="M-.34375 0H2.3125v-.34375l-.625-.0625c-.35937-.04687-.40625-.17187-.3125-.5.20313-.71875.45313-1.46875.73438-2.32812h2.71875l.8125 2.3125c.125.35937.0625.48437-.3125.51562l-.5625.0625V0H7.875v-.34375c-.70312-.0625-.84375-.10937-1.0625-.73437L4.25-8.375h-.90625l-1.25 3.57813c-.375 1.0625-.89062 2.5-1.32812 3.60937-.25.65625-.35938.79688-1.10938.84375Zm2.625-3.70312c.39063-1.20313.8125-2.39063 1.17188-3.46875H3.5l1.1875 3.46875Zm0 0"/><path id="o" d="m.25-8.375.45313.03125c.3125.04688.39062.10938.39062.57813v7.8125l.21875.09375.48438-.46875c.42187.25.9375.46875 1.84375.46875 1.60937 0 3.01562-.76563 3.01562-3.25 0-.75-.15625-2.96875-2.34375-2.96875-.90625 0-1.625.59375-2.07812.85937v-3.70312l-.09375-.0625L.25-8.6875Zm1.98438 6.40625v-1.92187c0-.3125.01562-.48438.10937-.6875.29688-.57813.79688-.84375 1.48438-.84375.5 0 1.5625.28125 1.5625 2.39062 0 1.78125-.54688 2.75-1.75 2.75-.64063 0-1.09375-.32812-1.32813-.9375-.0625-.21875-.07812-.45312-.07812-.75m0 0"/><path id="p" d="M.5625-2.03125.70313-.4375c.4375.39063 1.17187.57813 1.875.57813 1.4375 0 2.26562-.76563 2.26562-1.79688 0-1.0625-.65625-1.54687-1.90625-1.92187-.5-.15625-1.28125-.42188-1.28125-1.09375 0-.64063.46875-.98438 1.07813-.98438.85937 0 1.28125.67188 1.35937 1.40625h.35938v-1.42187c-.40625-.29688-1.03125-.40625-1.5625-.40625-1.3125 0-2.20313.60937-2.20313 1.76562 0 1 .82813 1.45313 1.82813 1.76563.54687.15625 1.29687.4375 1.29687 1.26562 0 .60938-.46875 1-1.125 1-.96875 0-1.53125-.71875-1.76562-1.75Zm0 0"/><path id="q" d="M.59375-2.90625c0 2.01563.98438 3.04688 2.8125 3.04688.84375 0 2-.4375 2.32813-1.73438L5.375-1.76562C5-.92187 4.53125-.48437 3.64063-.48437 2.1875-.48437 1.85938-2 1.85938-3.125c0-1.8125.70312-2.53125 1.54687-2.53125.54688 0 .90625.39063 1.14063 1.04688.07812.20312.15625.3125.39062.3125.25 0 .70313-.15625.70313-.60938 0-.5625-.79688-1.17187-2.10938-1.17187-2.20312 0-2.9375 1.54687-2.9375 3.17187m0 0"/><path id="r" d="M.59375-2.84375c0 1.78125.9375 2.98438 2.53125 2.98438.67188 0 1.21875-.29688 1.875-.82813v.59375L5.10938 0H7.0625v-.34375c-.85937-.0625-.90625-.09375-.90625-.71875v-7.85937l-.07812-.0625-1.92188.29687v.3125l.46875.03125c.3125.04688.39063.10938.39063.57813v1.98437c-.34375-.1875-.78125-.29687-1.34375-.29687-.98438 0-1.73438.3125-2.23438.82812-.51562.54688-.84375 1.34375-.84375 2.40625m1.26563-.14062c0-1.57813.5625-2.67188 1.79687-2.67188.57813 0 1.03125.25 1.25.76563.10938.20312.10938.375.10938.70312v2.125c0 .26563 0 .48438-.07813.6875-.25.625-.78125.875-1.40625.875-1.10937 0-1.67187-1.09375-1.67187-2.48437m0 0"/><path id="s" d="M.59375-2.96875C.59375-1 1.5625.14063 3.5.14063 5.45313.14063 6.40625-1 6.40625-2.96875c0-1.95312-.95312-3.10937-2.90625-3.10937-1.9375 0-2.90625 1.15625-2.90625 3.10937m1.26563 0c0-1.67187.53125-2.6875 1.64062-2.6875 1.10938 0 1.65625 1.01563 1.65625 2.6875 0 1.6875-.54687 2.6875-1.65625 2.6875-1.10937 0-1.64062-1-1.64062-2.6875m0 0"/><path id="t" d="m2.4375-6.8125.17188.25 1.84375-1.01562c.35937-.1875.67187-.40625.67187-.65625s-.29687-.53125-.46875-.53125c-.20312 0-.42187.125-.78125.5ZM.59375-2.92187C.59375-1 1.42188.14063 3.39063.14063c1.34375 0 2.03125-.75 2.35937-1.70313L5.39063-1.75c-.34375.70313-.79688 1.26563-1.75 1.26563-1.51563 0-1.8125-1.4375-1.78125-2.70313h3.48437c.26563 0 .48438-.0625.48438-.45312 0-.71875-.23438-2.4375-2.45313-2.4375C1.48438-6.07812.59375-4.75.59375-2.92187M1.875-3.64062c0-.51563.17188-2.01563 1.4375-2.01563 1.125 0 1.25 1.14063 1.25 1.625 0 .23438-.07812.39063-.40625.39063Zm0 0"/><clipPath id="a"><path d="M0 17h138v138.89453H0Zm0 0"/></clipPath><clipPath id="e"><path d="M68 17h2v138.89453h-2Zm0 0"/></clipPath></defs><g clip-path="url(#a)"><path fill="none" stroke="#7f7f7f" stroke-dasharray=".39680239 .9920358472" stroke-miterlimit="10" stroke-width=".3968" d="M.19922 141.9375h137.59765M.19922 114.41797h137.59765M.19922 86.89844h137.59765M.19922 59.3789h137.59765M.19922 31.85938h137.59765M13.95703 155.69922V18.09766m27.51953 137.60156V18.09766M68.9961 155.69922V18.09766m27.51953 137.60156V18.09766m27.52344 137.60156V18.09766"/></g><use xlink:href="#b" x="85.57496" y="101.26728" fill="#ff7f00"/><use xlink:href="#c" x="80.28711" y="103.98822" fill="#ff7f00"/><use xlink:href="#b" x="65.09866" y="75.22084" fill="#ec008c"/><use xlink:href="#d" x="59.94026" y="77.94179" fill="#ec008c"/><path fill="none" stroke="#000" stroke-miterlimit="10" stroke-width=".3968" d="M.19922 86.89844h137.59765"/><g clip-path="url(#e)"><path fill="none" stroke="#000" stroke-miterlimit="10" stroke-width=".3968" d="M68.9961 155.69922V18.09766"/></g><path fill="none" stroke="#ff7f00" stroke-miterlimit="10" stroke-width=".79361" d="M68.9961 86.89844h21.37109"/><path fill="#ff7f00" stroke="#ff7f00" stroke-miterlimit="10" stroke-width=".79361" d="M94.51172 86.89844c-.50781-.10547-2.7461-.70703-4.14453-1.35938v2.71485c1.39844-.65235 3.63672-1.25 4.14453-1.35547Zm0 0"/><path fill="none" stroke="#ec008c" stroke-miterlimit="10" stroke-width=".79361" d="M68.9961 86.89844v-21.3711"/><path fill="#ec008c" stroke="#ec008c" stroke-miterlimit="10" stroke-width=".79361" d="M68.9961 61.38281c-.10548.50782-.70313 2.7461-1.35548 4.14453h2.71485c-.65235-1.39843-1.2539-3.63671-1.35938-4.14453Zm0 0"/><use xlink:href="#f" x="64.63814" y="89.90853" fill="#007f7f"/><use xlink:href="#g" x="55.47837" y="100.02918" fill="#007f7f"/><path fill="none" stroke="#007f7f" stroke-miterlimit="10" stroke-width=".3968" d="M76.24219 84.9375c23.72656 4.1836 47.22656-7.625 61.55468-32.4414"/><path fill="#007f7f" stroke="#007f7f" stroke-miterlimit="10" stroke-width=".39679" d="M72.48047 84.27344c.4414.20703 2.34765 1.26953 3.48047 2.25781l.5625-3.1875c-1.40235.54297-3.5586.88672-4.04297.92969Zm0 0"/><g fill="#007f7f"><use xlink:href="#h" x="142.34928" y="55.36848"/><use xlink:href="#i" x="151.58295" y="55.36848"/></g><g fill="#007f7f"><use xlink:href="#j" x="156.39324" y="55.36848"/><use xlink:href="#k" x="159.9139" y="55.36848"/><use xlink:href="#j" x="166.20724" y="55.36848"/><use xlink:href="#l" x="169.7279" y="55.36848"/><use xlink:href="#m" x="177.22059" y="55.36848"/></g><use xlink:href="#n" x="142.34928" y="91.32048" fill="#ff7f00"/><g fill="#ff7f00"><use xlink:href="#o" x="149.89355" y="91.32048"/><use xlink:href="#p" x="157.14121" y="91.32048"/><use xlink:href="#q" x="162.41576" y="91.32048"/><use xlink:href="#j" x="168.42538" y="91.32048"/><use xlink:href="#p" x="171.94604" y="91.32048"/><use xlink:href="#p" x="177.22059" y="91.32048"/><use xlink:href="#m" x="182.49513" y="91.32048"/><use xlink:href="#p" x="188.72399" y="91.32048"/></g><g fill="#ec008c"><use xlink:href="#h" x="38.67236" y="13.36439"/><use xlink:href="#i" x="47.90603" y="13.36439"/></g><g fill="#ec008c"><use xlink:href="#r" x="52.36811" y="13.36439"/><use xlink:href="#s" x="59.61577" y="13.36439"/><use xlink:href="#l" x="66.60551" y="13.36439"/><use xlink:href="#l" x="74.0982" y="13.36439"/><use xlink:href="#t" x="81.59089" y="13.36439"/><use xlink:href="#m" x="87.81975" y="13.36439"/><use xlink:href="#p" x="94.04861" y="13.36439"/></g><use xlink:href="#f" x="9.60187" y="62.3904"/><use xlink:href="#u" x="18.51669" y="54.82281"/></svg>