<?xml version="1.0" encoding="UTF-8"?>
<svg xmlns="http://www.w3.org/2000/svg" xmlns:xlink="http://www.w3.org/1999/xlink" width="824pt" height="827pt" viewBox="0 0 824 827" version="1.2">
<g id="surface1">
<path style="fill-rule:nonzero;fill:rgb(8.628845%,8.628845%,8.628845%);fill-opacity:1;stroke-width:0.09375;stroke-linecap:butt;stroke-linejoin:miter;stroke:rgb(8.628845%,8.628845%,8.628845%);stroke-opacity:1;stroke-miterlimit:10;" d="M 13.910156 832.21875 C 22.648438 831.980469 31.488281 832.71875 40.148438 831.140625 C 40.929688 822.730469 38.929688 814.210938 40.828125 805.878906 C 49.671875 805.210938 58.539062 806.578125 67.390625 806.03125 C 67.578125 814.550781 67.480469 823.078125 67.558594 831.609375 C 94.601562 829.78125 121.730469 831.308594 148.820312 830.769531 C 148.949219 822.558594 148.609375 814.328125 149.140625 806.121094 C 158.511719 806.121094 167.878906 805.890625 177.238281 806.191406 C 176.539062 814.789062 176.058594 823.601562 177.710938 832.121094 C 199.140625 832.109375 220.570312 832.078125 242 832.121094 C 247.261719 831.769531 252.53125 831.46875 257.800781 831.480469 C 257.96875 811.988281 257.910156 792.488281 257.828125 773 C 258.160156 766.039062 258.570312 759.058594 257.800781 752.109375 C 248.75 751.878906 239.589844 752.839844 230.601562 751.488281 C 228.710938 742.191406 230.851562 732.609375 230.359375 723.199219 C 239.539062 723.03125 248.730469 723.371094 257.910156 722.738281 C 257.988281 696.179688 257.898438 669.621094 257.941406 643.058594 C 248.78125 643.289062 239.640625 642.570312 230.480469 642.679688 C 230.539062 632.929688 230.558594 623.179688 230.488281 613.421875 C 239.710938 613.53125 248.988281 614.058594 258.171875 612.960938 C 258.089844 604.410156 258.660156 595.839844 257.78125 587.300781 C 238.199219 586.421875 218.589844 587.089844 199 586.890625 C 192.089844 586.699219 185.199219 587.550781 178.289062 587.421875 C 177.960938 596.171875 177.46875 604.941406 178.300781 613.679688 C 186.96875 613.5 195.640625 613.949219 204.308594 613.609375 C 204.328125 623.019531 204.699219 632.441406 204.308594 641.839844 C 195.171875 642 186.03125 641.929688 176.890625 641.898438 C 176.070312 651.421875 177.640625 660.949219 176.820312 670.449219 C 167.640625 670.640625 158.449219 670.601562 149.261719 670.558594 C 148.601562 661.410156 148.929688 652.230469 148.890625 643.070312 C 140.28125 643.269531 131.691406 642.480469 123.078125 642.730469 C 123.039062 633.191406 123.140625 623.660156 123.03125 614.121094 C 131.640625 614.199219 140.230469 613.179688 148.839844 613.601562 C 148.78125 604.851562 148.71875 596.070312 149.859375 587.378906 C 129.578125 586.601562 109.28125 587.039062 88.988281 586.941406 C 82.199219 587.488281 75.390625 587.808594 68.570312 587.570312 C 68.601562 591.390625 68.5 595.21875 68.058594 599.03125 C 67.390625 604.160156 68.351562 609.300781 68.71875 614.421875 C 77.609375 614.140625 86.519531 614.421875 95.421875 614.21875 C 96.089844 623.609375 96.488281 633 96.210938 642.410156 C 86.75 643.050781 77.269531 643.210938 67.78125 643.210938 C 66.988281 652.621094 69.039062 662.03125 67.511719 671.390625 C 58.609375 671.121094 49.640625 673.171875 40.808594 671.160156 C 39.789062 668.238281 39.710938 665.078125 39.929688 662.019531 C 40.519531 655.738281 40.449219 649.421875 40.910156 643.128906 C 31.878906 643.050781 22.851562 643.121094 13.820312 643.140625 C 13.320312 651.769531 14.769531 660.378906 13.699219 668.988281 C 13.601562 687.28125 13.488281 705.570312 13.699219 723.851562 C 22.378906 723.859375 31.058594 723.820312 39.738281 723.78125 C 40.628906 714.839844 39.378906 705.738281 40.78125 696.871094 C 49.671875 695.78125 58.621094 696.929688 67.519531 696.390625 C 67.550781 702.320312 68.738281 708.238281 68.019531 714.171875 C 67.671875 717.320312 67.539062 720.488281 67.480469 723.660156 C 76.75 723.378906 86 722.601562 95.289062 722.890625 C 95.058594 732.621094 95.691406 742.390625 95.03125 752.101562 C 85.859375 753.050781 76.648438 752.410156 67.46875 752.308594 C 68.101562 761.410156 67.398438 770.5 67.640625 779.601562 C 58.550781 779.679688 49.441406 779.828125 40.351562 779.488281 C 40.058594 770.410156 40.070312 761.320312 39.761719 752.230469 C 31.179688 751.539062 22.621094 752.441406 14.03125 752.328125 C 13.210938 760.808594 13.570312 769.359375 14 777.859375 C 13.300781 789.230469 13.679688 800.621094 13.589844 812 C 13.648438 818.738281 13.371094 825.488281 13.910156 832.21875 M 95.191406 806.75 C 95.25 803.878906 95 801.011719 94.769531 798.148438 C 94.839844 800.460938 94.039062 802.628906 93.71875 804.878906 C 92.851562 802.390625 94.398438 799.898438 93.621094 797.371094 C 94.511719 791.21875 94.441406 784.980469 94.789062 778.808594 C 104.03125 778.109375 113.351562 778.671875 122.621094 778.390625 C 122.71875 787.828125 122.710938 797.28125 122.628906 806.71875 C 113.5 807.890625 104.339844 806.691406 95.191406 806.75 M 203.289062 806.488281 C 202.859375 797.078125 203.269531 787.660156 203.121094 778.238281 C 212.289062 778.378906 221.460938 778.320312 230.628906 778.289062 C 230.011719 787.570312 231.980469 796.890625 230.160156 806.109375 C 226.109375 806.550781 222.011719 806.300781 217.960938 806.839844 C 213.078125 807.589844 208.191406 806.390625 203.289062 806.488281 M 149.320312 779.609375 C 148.589844 770.480469 148.921875 761.328125 148.828125 752.191406 C 140.03125 751.640625 131.21875 751.921875 122.421875 751.851562 C 122.21875 742.648438 121.261719 733.46875 121.75 724.269531 C 130.761719 724.050781 139.789062 724.628906 148.789062 723.761719 C 149.160156 714.878906 148.511719 705.980469 149.148438 697.109375 C 158.238281 696.320312 167.378906 696.800781 176.488281 696.53125 C 176.859375 705.378906 176.25 714.261719 176.871094 723.078125 C 180.898438 723.539062 184.96875 723.648438 189.011719 724.101562 C 194.078125 723.699219 199.148438 722.910156 204.25 723.351562 C 204.238281 732.839844 204.828125 742.378906 203.699219 751.820312 C 194.820312 752.609375 185.910156 751.25 177.03125 752.140625 C 177.058594 761.308594 177.628906 770.488281 176.691406 779.628906 C 167.558594 779.609375 158.441406 779.679688 149.320312 779.609375 M 95.269531 697.890625 C 94.539062 688.660156 95.609375 679.429688 95.171875 670.191406 C 104.328125 670.320312 113.488281 670.140625 122.640625 670.179688 C 122.769531 679.421875 122.761719 688.648438 122.691406 697.878906 C 113.550781 697.910156 104.410156 697.929688 95.269531 697.890625 M 203.289062 697.421875 C 203.648438 688.441406 203.550781 679.460938 203.550781 670.488281 C 203.820312 670.269531 204.351562 669.839844 204.621094 669.621094 C 213.449219 668.328125 222.449219 669.179688 231.351562 668.78125 C 231.238281 678.320312 230.441406 687.839844 230.460938 697.390625 C 221.378906 697.339844 212.339844 698.808594 203.289062 697.421875 Z M 203.289062 697.421875 " transform="matrix(1,0,0,-1,-13,833)"/>
<path style="fill-rule:nonzero;fill:rgb(8.599854%,8.599854%,8.599854%);fill-opacity:1;stroke-width:0.09375;stroke-linecap:butt;stroke-linejoin:miter;stroke:rgb(8.599854%,8.599854%,8.599854%);stroke-opacity:1;stroke-miterlimit:10;" d="M 287.421875 831.578125 C 302.671875 830.75 317.941406 831.671875 333.199219 831.128906 C 387.800781 831.28125 442.398438 831.011719 497 831.058594 C 517.871094 830.101562 538.761719 830.789062 559.640625 830.578125 C 560.46875 809.058594 559.988281 787.53125 560.128906 766 C 560.25 743 560.011719 720 560.210938 697 C 559.300781 677.351562 559.96875 657.660156 559.878906 637.988281 C 559.519531 621.648438 561.699219 605.351562 560.820312 589 C 560.871094 515.691406 560.839844 442.378906 560.839844 369.070312 C 542.96875 368.960938 525.109375 369.148438 507.25 369.128906 C 506.460938 391.738281 507.050781 414.378906 506.871094 437 C 506.859375 467.660156 506.878906 498.328125 506.859375 528.988281 C 506.851562 539 506.589844 549.011719 507.160156 559 C 507.089844 566.351562 506.261719 573.671875 505.808594 581 C 505.550781 586.671875 506.628906 592.320312 505.980469 597.988281 C 505.480469 609.980469 505.570312 622.011719 506.230469 634 C 506.011719 655 506.488281 676.011719 505.558594 697 C 505.71875 705.921875 505.789062 714.839844 505.550781 723.761719 C 499.71875 724.480469 493.839844 724.230469 488 723.828125 C 448 723.828125 408 724 368 723.929688 C 359.109375 724.320312 350.160156 724.78125 341.289062 723.878906 C 340.109375 698.269531 341.289062 672.621094 340.890625 647 C 341 626.820312 340.859375 606.648438 340.820312 586.46875 C 335.199219 586.71875 329.609375 586.089844 324 585.859375 C 318.671875 585.988281 313.328125 585.921875 308 585.921875 C 301.160156 586.589844 294.289062 587.03125 287.410156 586.589844 C 287.199219 599.390625 287.640625 612.199219 287 625 C 286.898438 674.710938 287.148438 724.429688 286.828125 774.140625 C 287.25 785.089844 286.460938 796.058594 287.210938 806.988281 C 287.511719 815.191406 287.25 823.390625 287.421875 831.578125 Z M 287.421875 831.578125 " transform="matrix(1,0,0,-1,-13,833)"/>
<path style="fill-rule:nonzero;fill:rgb(8.599854%,8.599854%,8.599854%);fill-opacity:1;stroke-width:0.09375;stroke-linecap:butt;stroke-linejoin:miter;stroke:rgb(8.599854%,8.599854%,8.599854%);stroke-opacity:1;stroke-miterlimit:10;" d="M 588.628906 830.441406 C 598.75 830.671875 608.890625 830.570312 618.988281 829.789062 C 636 830.421875 652.941406 828.441406 669.941406 828.941406 C 669.710938 820.371094 670.398438 811.820312 670.320312 803.261719 C 679.421875 802.738281 688.53125 802.929688 697.640625 802.671875 C 698.570312 811.660156 697.039062 820.71875 698.171875 829.710938 C 705.410156 830.621094 712.71875 830.199219 720 830.21875 C 732.960938 828.871094 746.011719 829.898438 759.011719 829.191406 C 766.238281 828.691406 773.488281 829.070312 780.730469 828.859375 C 781.25 820.160156 781.160156 811.441406 781.101562 802.730469 C 790.179688 803.339844 799.28125 803.050781 808.371094 803.058594 C 808.550781 811.648438 808.488281 820.230469 808.441406 828.820312 C 817.160156 829.101562 825.898438 829.480469 834.628906 828.839844 C 835.578125 808.578125 834.929688 788.28125 835.140625 768 C 835.308594 761.761719 834.710938 755.53125 834.609375 749.289062 C 825.898438 748.738281 817.148438 748.550781 808.449219 749.261719 C 808.519531 758.351562 808.148438 767.449219 808.460938 776.539062 C 799.320312 776.871094 790.171875 776.859375 781.03125 776.539062 C 781.628906 767.449219 780.160156 758.398438 780.628906 749.320312 C 771.351562 748.949219 762.070312 748.820312 752.78125 748.761719 C 752.019531 739.878906 753.828125 730.980469 752.21875 722.160156 C 761.578125 722.039062 770.949219 722 780.289062 721.171875 C 781.730469 712.199219 780.859375 703.078125 781.148438 694.039062 C 790.210938 694.570312 799.300781 694.269531 808.359375 694.019531 C 808.550781 702.960938 808.5 711.898438 808.421875 720.839844 C 817.128906 721.789062 825.960938 721.558594 834.691406 720.828125 C 835.558594 700.570312 834.941406 680.28125 835.140625 660 C 835.308594 653.78125 834.75 647.570312 834.671875 641.351562 C 825.941406 640.53125 817.210938 641.03125 808.46875 641.359375 C 808.488281 650.109375 808.519531 658.851562 808.398438 667.589844 C 799.28125 667.828125 790.140625 667.820312 781.019531 667.578125 C 781.519531 658.820312 780.71875 650.089844 780.601562 641.339844 C 771.328125 641.011719 762.050781 640.820312 752.769531 640.78125 C 753.03125 631.28125 752.710938 621.769531 753.210938 612.269531 C 762.339844 611.519531 771.5 612.089844 780.648438 611.71875 C 781.308594 602.839844 781.261719 593.941406 780.648438 585.050781 C 753.589844 586.921875 726.441406 585.78125 699.339844 586.148438 C 699.398438 594.710938 699.378906 603.261719 699.359375 611.808594 C 708.070312 612.828125 716.828125 611.859375 725.558594 612.261719 C 725.570312 621.789062 725.691406 631.320312 725.539062 640.851562 C 716.539062 640.78125 707.558594 640.980469 698.578125 641.5 C 699.070312 650.410156 700.5 659.609375 698.421875 668.378906 C 689.171875 669.980469 679.660156 669.03125 670.328125 668.730469 C 670.511719 659.601562 669.761719 650.480469 669.921875 641.351562 C 661.121094 641.261719 652.339844 640.738281 643.539062 640.789062 C 642.589844 631.410156 643.121094 621.980469 642.519531 612.589844 C 651.621094 612.070312 660.738281 611.679688 669.851562 612.308594 C 670.410156 603.601562 670.480469 594.851562 669.851562 586.140625 C 651.570312 586.078125 633.28125 586.179688 615 586.171875 C 606.75 585.878906 598.46875 585.378906 590.230469 586.140625 C 590.289062 594.921875 589.75 603.679688 589.5 612.449219 C 598.25 611.949219 607.019531 612.601562 615.769531 612.328125 C 616.789062 621.820312 616.308594 631.390625 616.25 640.910156 C 607.550781 640.628906 598.878906 641.261719 590.191406 641.359375 C 590.050781 656.898438 590.179688 672.449219 590.070312 688 C 590.359375 699.570312 589.078125 711.101562 589.128906 722.679688 C 598.171875 723.019531 607.210938 723.210938 616.25 723.078125 C 616.328125 731.988281 616.71875 740.949219 615.808594 749.839844 C 607 750.96875 598.089844 750.351562 589.238281 750.378906 C 588.101562 762.21875 588.71875 774.140625 588.621094 786.011719 C 589.78125 800.789062 589.101562 815.640625 588.628906 830.441406 M 615.089844 804.421875 C 615.21875 795.351562 615.050781 786.28125 615.210938 777.210938 C 624.699219 776.621094 634.25 776.308594 643.730469 777.101562 C 644.28125 785.980469 644.320312 794.878906 643.71875 803.75 C 634.25 805.121094 624.621094 804.550781 615.089844 804.421875 M 724.289062 803.859375 C 723.769531 794.46875 723.449219 785.03125 724.570312 775.671875 C 733.988281 775.78125 743.390625 776.378906 752.808594 776.449219 C 752.898438 785.730469 752.808594 795.011719 752.890625 804.28125 C 743.351562 804.269531 733.78125 804.789062 724.289062 803.859375 M 670.320312 777.691406 C 670.230469 768.46875 669.808594 759.269531 669.890625 750.050781 C 661 749.339844 652.078125 750.308594 643.191406 749.71875 C 642.988281 740.671875 643.21875 731.628906 643.078125 722.578125 C 651.941406 723.671875 660.769531 722.058594 669.660156 722.351562 C 671.128906 713.171875 669.390625 703.828125 670.640625 694.640625 C 676.761719 693.980469 682.871094 695.21875 688.988281 695.230469 C 692.28125 695.238281 695.578125 695.210938 698.878906 695.328125 C 697.929688 704 697.289062 712.71875 697.980469 721.429688 C 707.148438 721.839844 716.328125 721.78125 725.5 721.449219 C 725.210938 730.960938 726.050781 740.53125 725.101562 750 C 716.101562 750.789062 707.03125 749.941406 698.011719 750.5 C 698.351562 759.371094 698.96875 768.339844 698.128906 777.179688 C 689.019531 779.070312 679.550781 778.210938 670.320312 777.691406 M 724.300781 695.53125 C 723.828125 686.308594 723.859375 677.058594 724.839844 667.878906 C 734.121094 666.699219 743.511719 667.820312 752.839844 667.398438 C 752.820312 676.75 752.960938 686.101562 752.738281 695.441406 C 743.261719 696.121094 733.78125 695.28125 724.300781 695.53125 M 614.761719 694.980469 C 615.148438 691.851562 615.519531 688.699219 615.441406 685.539062 C 615.289062 679.769531 616.46875 674.070312 616.171875 668.300781 C 625.328125 668.078125 634.511719 668.410156 643.671875 668.121094 C 644.28125 677.078125 644.328125 686.070312 643.808594 695.03125 C 637.25 696.160156 630.601562 695.480469 623.988281 695.679688 C 620.898438 695.78125 617.800781 695.589844 614.761719 694.980469 Z M 614.761719 694.980469 " transform="matrix(1,0,0,-1,-13,833)"/>
<path style="fill-rule:nonzero;fill:rgb(8.599854%,8.599854%,8.599854%);fill-opacity:1;stroke-width:0.09375;stroke-linecap:butt;stroke-linejoin:miter;stroke:rgb(8.599854%,8.599854%,8.599854%);stroke-opacity:1;stroke-miterlimit:10;" d="M 369.53125 694.738281 C 374.988281 695.460938 380.511719 695.398438 386.011719 695.378906 C 413.671875 695.261719 441.328125 695.421875 469 695.339844 C 472.101562 695.351562 475.210938 695.171875 478.289062 694.808594 C 478.179688 658.601562 478.210938 622.390625 478.289062 586.179688 C 460.878906 585.351562 443.421875 585.960938 426 585.828125 C 413 585.78125 400 585.898438 387 585.820312 C 381.449219 585.949219 375.929688 586.738281 370.371094 586.480469 C 370.179688 614.980469 370.820312 643.5 369.910156 672 C 369.890625 679.578125 370.128906 687.171875 369.53125 694.738281 Z M 369.53125 694.738281 " transform="matrix(1,0,0,-1,-13,833)"/>
<path style="fill-rule:nonzero;fill:rgb(8.599854%,8.599854%,8.599854%);fill-opacity:1;stroke-width:0.09375;stroke-linecap:butt;stroke-linejoin:miter;stroke:rgb(8.599854%,8.599854%,8.599854%);stroke-opacity:1;stroke-miterlimit:10;" d="M 14.03125 613.851562 C 23 613.730469 31.980469 613.761719 40.949219 613.761719 C 40.828125 605.050781 40.890625 596.339844 40.980469 587.628906 C 32.058594 588.921875 22.960938 587.640625 14.078125 589.351562 C 14.859375 597.488281 14.328125 605.691406 14.03125 613.851562 Z M 14.03125 613.851562 " transform="matrix(1,0,0,-1,-13,833)"/>
<path style="fill-rule:nonzero;fill:rgb(8.599854%,8.599854%,8.599854%);fill-opacity:1;stroke-width:0.09375;stroke-linecap:butt;stroke-linejoin:miter;stroke:rgb(8.599854%,8.599854%,8.599854%);stroke-opacity:1;stroke-miterlimit:10;" d="M 808.46875 611.808594 C 817.441406 611.71875 826.421875 612.101562 835.390625 611.75 C 835.300781 602.648438 836.621094 593.621094 836.441406 584.5 C 827.109375 584.441406 817.789062 584.339844 808.46875 584.441406 C 808.480469 593.558594 808.488281 602.691406 808.46875 611.808594 Z M 808.46875 611.808594 " transform="matrix(1,0,0,-1,-13,833)"/>
<path style="fill-rule:nonzero;fill:rgb(8.599854%,8.599854%,8.599854%);fill-opacity:1;stroke-width:0.09375;stroke-linecap:butt;stroke-linejoin:miter;stroke:rgb(8.599854%,8.599854%,8.599854%);stroke-opacity:1;stroke-miterlimit:10;" d="M 213 558.28125 C 301.769531 558.210938 390.539062 558.210938 479.308594 558.121094 C 477.480469 547.5 478.320312 536.671875 479.109375 526 C 479.128906 518.859375 478.890625 511.71875 479.238281 504.578125 C 468.511719 503.859375 457.738281 503.460938 447 504.238281 C 438.671875 504.640625 430.308594 504.300781 422 505.148438 C 405.320312 505.238281 388.640625 505.101562 371.96875 505.21875 C 366.289062 505.011719 360.640625 505.539062 355 506.070312 C 284.671875 505.980469 214.328125 506.089844 144 506.128906 C 137.039062 506.199219 130.089844 506.21875 123.140625 505.738281 C 123.058594 450.859375 123.121094 395.96875 123.109375 341.089844 C 130.070312 340.128906 137.050781 341.609375 144.011719 340.960938 C 149.351562 340.488281 154.660156 341.320312 160 341.28125 C 186.660156 341.171875 213.339844 341.261719 240 341.101562 C 246.320312 340.160156 252.738281 340.730469 259.050781 339.921875 C 259.820312 336.339844 259.429688 332.648438 259.460938 329.011719 C 259.019531 314.890625 259.328125 300.75 259.230469 286.621094 C 182.5 287.089844 105.738281 286.800781 29 286.921875 C 24.261719 287.351562 19.480469 287.320312 14.75 287.910156 C 14.128906 293.609375 15.578125 299.300781 15.191406 305.011719 C 14.371094 315.328125 15.601562 325.660156 15.140625 335.988281 C 15.210938 348.671875 15.109375 361.339844 14.859375 374 C 14.601562 397.339844 15.800781 420.679688 14.890625 444.011719 C 14.839844 477.011719 14.96875 510 14.871094 543 C 14.96875 548.089844 15.308594 553.160156 15.28125 558.25 C 63.179688 558.171875 111.089844 558.28125 158.988281 558.269531 C 164.671875 558.421875 170.328125 557.488281 176 558.019531 C 183.320312 558.5 190.691406 558.371094 198.011719 557.898438 C 203.011719 557.621094 208 558.390625 213 558.28125 Z M 213 558.28125 " transform="matrix(1,0,0,-1,-13,833)"/>
<path style="fill-rule:nonzero;fill:rgb(8.599854%,8.599854%,8.599854%);fill-opacity:1;stroke-width:0.09375;stroke-linecap:butt;stroke-linejoin:miter;stroke:rgb(8.599854%,8.599854%,8.599854%);stroke-opacity:1;stroke-miterlimit:10;" d="M 590.28125 556.800781 C 609.851562 557 629.441406 556.320312 649 557.230469 C 674 557.269531 699 557.078125 724 557.160156 C 761.269531 556.859375 798.550781 557.589844 835.808594 556.609375 C 835.859375 530.078125 835.578125 503.539062 835.921875 477.011719 C 836.78125 465.019531 835.089844 453.011719 836.03125 441.011719 C 836.71875 433.941406 835.121094 426.898438 835.679688 419.820312 C 836.628906 408.578125 836.398438 397.261719 835.851562 386 C 836.019531 380 836.441406 374.011719 836.25 368.011719 C 835.898438 357.351562 836.71875 346.648438 835.511719 336.03125 C 835.519531 318.859375 835.980469 301.699219 835.738281 284.53125 C 823.820312 284.691406 811.859375 285.238281 799.96875 284.21875 C 794.328125 283.230469 788.699219 284.699219 783.050781 284.710938 C 755.71875 285.03125 728.378906 285.058594 701.039062 284.769531 C 696.691406 284.828125 692.398438 285.699219 688.050781 285.671875 C 582.171875 285.660156 476.289062 285.671875 370.410156 285.660156 C 370.421875 303.691406 370.339844 321.71875 370.390625 339.75 C 373.921875 340.058594 377.460938 340.261719 381.011719 340.230469 C 465.671875 340.160156 550.328125 340.179688 634.988281 340.160156 C 647.011719 339.699219 658.980469 338.398438 671 337.921875 C 683.328125 338.058594 695.671875 337.960938 708 337.921875 C 714.160156 338.359375 720.328125 338.511719 726.511719 338.488281 C 727.140625 354.988281 727.28125 371.480469 727.070312 387.988281 C 727.101562 415.988281 727.03125 444 727.148438 472 C 727.050781 482.53125 727.429688 493.078125 726.621094 503.589844 C 717.109375 504.75 707.53125 504.210938 698 503.738281 C 667.671875 503.808594 637.328125 503.921875 607 503.839844 C 601.429688 503.730469 595.890625 504.328125 590.320312 504.378906 C 589.660156 521.839844 589.640625 539.339844 590.28125 556.800781 Z M 590.28125 556.800781 " transform="matrix(1,0,0,-1,-13,833)"/>
<path style="fill-rule:nonzero;fill:rgb(8.599854%,8.599854%,8.599854%);fill-opacity:1;stroke-width:0.09375;stroke-linecap:butt;stroke-linejoin:miter;stroke:rgb(8.599854%,8.599854%,8.599854%);stroke-opacity:1;stroke-miterlimit:10;" d="M 150.601562 475.960938 C 158.398438 475.519531 166.210938 475.601562 173.988281 476.25 C 193.660156 476.351562 213.328125 476.179688 232.988281 476.21875 C 241.628906 475.210938 250.339844 475.761719 258.980469 474.890625 C 259.828125 466.289062 259.25 457.609375 258.699219 449 C 258.53125 444.671875 259.25 440.339844 258.878906 436.011719 C 258.261719 427.480469 258.980469 418.929688 258.578125 410.390625 C 258.230469 403.910156 259.628906 397.480469 259.191406 391 C 258.601562 383.738281 258.558594 376.441406 258.851562 369.160156 C 244.230469 369.21875 229.621094 369.171875 215 369.230469 C 207.660156 369.339844 200.339844 368.539062 193 368.738281 C 185.660156 368.480469 178.339844 369.621094 171.011719 368.921875 C 164.378906 368.398438 157.769531 369.101562 151.160156 369.429688 C 150.660156 372.589844 150.46875 375.789062 150.511719 378.980469 C 150.539062 411.308594 150.371094 443.640625 150.601562 475.960938 Z M 150.601562 475.960938 " transform="matrix(1,0,0,-1,-13,833)"/>
<path style="fill-rule:nonzero;fill:rgb(8.599854%,8.599854%,8.599854%);fill-opacity:1;stroke-width:0.09375;stroke-linecap:butt;stroke-linejoin:miter;stroke:rgb(8.599854%,8.599854%,8.599854%);stroke-opacity:1;stroke-miterlimit:10;" d="M 370.441406 475.449219 C 398.609375 476.5 426.808594 475.878906 455 476.160156 C 463.089844 476.429688 471.128906 475.300781 479.230469 475.421875 C 479.199219 463.671875 479.601562 451.878906 478.539062 440.171875 C 477.179688 416.519531 478.140625 392.808594 477.871094 369.128906 C 442.039062 369.199219 406.210938 369.148438 370.378906 369.210938 C 370.441406 404.621094 370.371094 440.039062 370.441406 475.449219 Z M 370.441406 475.449219 " transform="matrix(1,0,0,-1,-13,833)"/>
<path style="fill-rule:nonzero;fill:rgb(8.599854%,8.599854%,8.599854%);fill-opacity:1;stroke-width:0.09375;stroke-linecap:butt;stroke-linejoin:miter;stroke:rgb(8.599854%,8.599854%,8.599854%);stroke-opacity:1;stroke-miterlimit:10;" d="M 288.101562 474.890625 C 305.691406 474.890625 323.269531 474.878906 340.851562 474.898438 C 341.570312 466.28125 341.308594 457.628906 340.960938 449 C 340.988281 347 340.960938 245 340.96875 143 C 340.800781 134.820312 341.398438 126.648438 341.398438 118.460938 C 347.28125 118.609375 353.148438 118.300781 359.011719 117.921875 C 377.671875 117.941406 396.339844 118.03125 415 117.910156 C 432.628906 119.070312 450.359375 119.171875 468 117.929688 C 480.929688 117.890625 493.859375 117.851562 506.789062 118.339844 C 506.96875 147.230469 506.820312 176.121094 506.871094 205 C 507.039062 222.210938 506.460938 239.429688 507.308594 256.621094 C 519.871094 257.25 532.429688 257.171875 545 257.121094 C 550.230469 256.769531 555.46875 256.320312 560.730469 256.410156 C 561.421875 250.621094 561.039062 244.800781 560.851562 239 C 560.839844 162.359375 560.859375 85.730469 560.828125 9.089844 C 488.480469 8.941406 416.121094 9.171875 343.769531 9.199219 C 338.160156 9.300781 332.539062 9.050781 326.960938 9.640625 C 320.339844 10.519531 313.660156 9.839844 307 10.050781 C 300.480469 10.359375 294.019531 9.199219 287.5 9.261719 C 287.238281 23.511719 287.441406 37.761719 287.390625 52 C 287.53125 59.679688 287.058594 67.371094 287.828125 75.019531 C 288.53125 81 287.890625 87.011719 288.011719 93 C 288.460938 157.660156 288.03125 222.328125 288.179688 286.988281 C 288.109375 349.621094 288.140625 412.261719 288.101562 474.890625 Z M 288.101562 474.890625 " transform="matrix(1,0,0,-1,-13,833)"/>
<path style="fill-rule:nonzero;fill:rgb(8.599854%,8.599854%,8.599854%);fill-opacity:1;stroke-width:0.09375;stroke-linecap:butt;stroke-linejoin:miter;stroke:rgb(8.599854%,8.599854%,8.599854%);stroke-opacity:1;stroke-miterlimit:10;" d="M 590.28125 474.828125 C 626.148438 475.019531 662.03125 474.828125 697.898438 474.890625 C 697.949219 445.261719 697.800781 415.628906 697.800781 386.011719 C 697.648438 380.050781 698.199219 374.101562 698.75 368.171875 C 692.519531 367.019531 686.160156 367.570312 679.898438 368.109375 C 666.601562 368.390625 653.261719 367.730469 640 369.078125 C 623.429688 369.039062 606.851562 369.019531 590.28125 369.179688 C 589.441406 393.109375 590.078125 417.058594 589.878906 441 C 589.921875 452.28125 589.671875 463.558594 590.28125 474.828125 Z M 590.28125 474.828125 " transform="matrix(1,0,0,-1,-13,833)"/>
<path style="fill-rule:nonzero;fill:rgb(8.599854%,8.599854%,8.599854%);fill-opacity:1;stroke-width:0.09375;stroke-linecap:butt;stroke-linejoin:miter;stroke:rgb(8.599854%,8.599854%,8.599854%);stroke-opacity:1;stroke-miterlimit:10;" d="M 14.988281 257.789062 C 23.769531 257.71875 32.550781 257.800781 41.320312 257.871094 C 41.5 249.609375 41.488281 241.328125 41.300781 233.058594 C 32.359375 232 23.421875 233.449219 14.46875 233.519531 C 15.328125 241.589844 14.449219 249.710938 14.988281 257.789062 Z M 14.988281 257.789062 " transform="matrix(1,0,0,-1,-13,833)"/>
<path style="fill-rule:nonzero;fill:rgb(8.599854%,8.599854%,8.599854%);fill-opacity:1;stroke-width:0.09375;stroke-linecap:butt;stroke-linejoin:miter;stroke:rgb(8.599854%,8.599854%,8.599854%);stroke-opacity:1;stroke-miterlimit:10;" d="M 69.199219 257.921875 C 89.449219 258.628906 109.738281 257.96875 130 258.171875 C 136.609375 258.429688 143.179688 257.28125 149.789062 257.460938 C 150.238281 249.078125 149.511719 240.699219 149.878906 232.308594 C 145.230469 232.121094 140.621094 232.78125 136 233.050781 C 131.738281 232.789062 127.480469 232.320312 123.210938 232.429688 C 123.511719 222.488281 121.859375 212.460938 123.640625 202.589844 C 132.421875 202.820312 141.199219 202.78125 149.980469 202.601562 C 150.019531 193.671875 149.058594 184.691406 149.648438 175.789062 C 151.949219 174.769531 154.53125 174.789062 157 174.679688 C 163.910156 174.449219 170.820312 174.621094 177.730469 174.511719 C 177.988281 183.910156 177.75 193.308594 178.308594 202.699219 C 187.140625 203.488281 196.011719 203.128906 204.859375 203.191406 C 204.53125 212.839844 204.859375 222.488281 204.621094 232.140625 C 195.828125 232.558594 187.039062 231.070312 178.269531 232.210938 C 177.789062 240.628906 177.820312 249.058594 178.328125 257.46875 C 183.871094 257.46875 189.410156 257.859375 194.941406 257.441406 C 216.230469 256.738281 237.550781 257.71875 258.828125 256.578125 C 258.839844 248.429688 258.191406 240.269531 259.421875 232.160156 C 249.929688 231.710938 240.238281 233.238281 230.890625 231.160156 C 230.199219 226.820312 230.660156 222.390625 230.589844 218 C 230.738281 212.980469 230.289062 207.921875 230.96875 202.921875 C 240.460938 201.679688 250.070312 202.050781 259.621094 201.730469 C 258.949219 190.140625 260.410156 178.589844 260.070312 167 C 259.339844 151.480469 258.789062 135.898438 259.511719 120.371094 C 250.441406 119.238281 241.289062 119.941406 232.179688 119.769531 C 232.460938 110.261719 231.789062 100.769531 231.398438 91.28125 C 240.5 90.921875 249.609375 91.570312 258.710938 91.128906 C 258.839844 77.089844 258.300781 63.039062 258.359375 48.988281 C 257.5 36.019531 259.089844 23.019531 257.871094 10.050781 C 230.800781 10.128906 203.730469 10.378906 176.660156 10.121094 C 176.480469 19.21875 176.671875 28.328125 176.53125 37.429688 C 167.589844 37.050781 158.601562 39.320312 149.761719 37.140625 C 147.800781 28.308594 149.339844 19.128906 148.800781 10.148438 C 132.21875 9.371094 115.601562 10.21875 99 9.960938 C 88.699219 9.671875 78.421875 10.679688 68.121094 10.390625 C 68.210938 19.558594 68.328125 28.71875 67.578125 37.859375 C 58.558594 37.550781 49.519531 38.28125 40.511719 37.578125 C 39.269531 28.570312 40.148438 19.460938 40.519531 10.410156 C 31.679688 10.441406 22.839844 10.46875 14 10.359375 C 13.121094 23.21875 13.828125 36.128906 13.578125 49.011719 C 14.269531 63.179688 14.269531 77.378906 14.050781 91.558594 C 23.011719 90.78125 31.980469 90.871094 40.96875 90.691406 C 40.761719 81.910156 40.148438 73.128906 40.109375 64.351562 C 49.609375 64.390625 59.121094 64.078125 68.621094 64.441406 C 69.269531 73.519531 69.140625 82.609375 69.171875 91.699219 C 77.988281 92.101562 86.800781 91.589844 95.621094 91.371094 C 94.46875 101.261719 96.730469 111.238281 95.121094 121.078125 C 86.460938 121.488281 77.800781 122.269531 69.128906 122.011719 C 68.738281 130.679688 70.109375 139.539062 68.210938 148.058594 C 59.140625 149.640625 49.988281 148.449219 40.859375 148.410156 C 40.539062 139.429688 40.488281 130.429688 41.5 121.480469 C 32.449219 121.230469 23.371094 121.210938 14.371094 122.199219 C 15.75 135.429688 14.839844 148.738281 15.179688 162 C 14.351562 175.699219 14.699219 189.441406 14.910156 203.140625 C 23.46875 205.160156 32.171875 203.289062 40.820312 203.460938 C 41.910156 194.121094 41.269531 184.691406 41.378906 175.300781 C 50.480469 174.710938 59.628906 174.53125 68.738281 175.21875 C 69.699219 184.699219 68.410156 194.199219 69.160156 203.671875 C 77.980469 203.320312 86.828125 202.050781 95.640625 203.339844 C 96.289062 209.210938 96.339844 215.109375 96.339844 220.988281 C 96.308594 224.988281 96.769531 229.210938 95.019531 232.929688 C 86.449219 233.960938 77.738281 232.898438 69.128906 233.480469 C 69.171875 241.628906 69.078125 249.769531 69.199219 257.921875 M 95.289062 177.398438 C 95.390625 167.160156 95.480469 156.921875 94.589844 146.710938 C 99.070312 146.480469 103.550781 146.480469 108.011719 146.070312 C 113.238281 145.441406 118.46875 146.511719 123.710938 146.390625 C 124.351562 150.558594 124.441406 154.789062 124.398438 159 C 124.339844 165.121094 124.808594 171.320312 123.429688 177.328125 C 114.050781 177.128906 104.671875 177.421875 95.289062 177.398438 M 204.320312 176.539062 C 204.460938 166.449219 204.519531 156.359375 204.230469 146.269531 C 213.421875 146.148438 222.601562 146.21875 231.789062 146.179688 C 232.28125 156.300781 232.371094 166.441406 231.699219 176.550781 C 222.570312 176.710938 213.449219 176.761719 204.320312 176.539062 M 149.28125 146.761719 C 148.929688 138.261719 148.738281 129.761719 148.828125 121.261719 C 140.28125 120.570312 131.710938 120.898438 123.140625 120.820312 C 123.171875 110.820312 122.890625 100.820312 123.300781 90.820312 C 131.828125 90.660156 140.359375 90.660156 148.878906 90.789062 C 148.871094 81.980469 148.648438 73.148438 149.269531 64.339844 C 158.761719 63.980469 168.261719 63.558594 177.761719 63.871094 C 177.738281 72.808594 177.921875 81.738281 178.28125 90.679688 C 186.960938 91.328125 195.671875 91.28125 204.371094 91.109375 C 204.53125 100.679688 204.851562 110.269531 204.339844 119.828125 C 195.78125 119.828125 187.199219 120.109375 178.640625 119.660156 C 177.609375 128.679688 177.878906 137.75 177.898438 146.800781 C 168.378906 147.371094 158.761719 148.230469 149.28125 146.761719 M 94.871094 65.21875 C 93.679688 55.699219 93.460938 46.03125 94.160156 36.449219 C 103.800781 36.398438 113.441406 35.410156 123.039062 36.851562 C 124.699219 46.289062 124.621094 56.011719 123.460938 65.488281 C 113.929688 65.378906 104.328125 66.96875 94.871094 65.21875 M 203.839844 65.390625 C 203.390625 59.898438 204.46875 54.460938 204.398438 48.96875 C 204.359375 44.820312 203.699219 40.710938 202.921875 36.640625 C 212.488281 35.921875 222.109375 35.109375 231.691406 36.230469 C 232.199219 45.871094 232.429688 55.550781 231.460938 65.160156 C 222.25 65.46875 213.039062 65.289062 203.839844 65.390625 Z M 203.839844 65.390625 " transform="matrix(1,0,0,-1,-13,833)"/>
<path style="fill-rule:nonzero;fill:rgb(8.599854%,8.599854%,8.599854%);fill-opacity:1;stroke-width:0.09375;stroke-linecap:butt;stroke-linejoin:miter;stroke:rgb(8.599854%,8.599854%,8.599854%);stroke-opacity:1;stroke-miterlimit:10;" d="M 370.398438 256.621094 C 387.921875 257.601562 405.46875 256.96875 423 257.140625 C 441.460938 257.050781 459.921875 257.5 478.359375 256.589844 C 479.640625 250.128906 479.191406 243.539062 479.191406 237 C 478.929688 218.671875 479.480469 200.339844 479.128906 182 C 479.429688 170.539062 478.648438 159.058594 479.441406 147.609375 C 462.320312 146.351562 445.148438 147.089844 428 146.898438 C 414.671875 146.878906 401.339844 146.929688 388.011719 146.898438 C 382.148438 147.199219 376.28125 147.628906 370.410156 147.421875 C 370.640625 183.820312 370.5 220.21875 370.398438 256.621094 Z M 370.398438 256.621094 " transform="matrix(1,0,0,-1,-13,833)"/>
<path style="fill-rule:nonzero;fill:rgb(8.599854%,8.599854%,8.599854%);fill-opacity:1;stroke-width:0.09375;stroke-linecap:butt;stroke-linejoin:miter;stroke:rgb(8.599854%,8.599854%,8.599854%);stroke-opacity:1;stroke-miterlimit:10;" d="M 590.398438 255.839844 C 598.941406 255.839844 607.5 255.828125 616.011719 254.941406 C 634.300781 254.898438 652.601562 255.039062 670.898438 254.839844 C 670.871094 246.898438 670.378906 238.941406 671.320312 231.03125 C 662.320312 230.949219 653.300781 231.441406 644.320312 230.660156 C 643.648438 221.21875 643.648438 211.730469 644.269531 202.289062 C 653.410156 202.609375 662.5 201.421875 671.640625 201.46875 C 671.398438 192.378906 671.351562 183.289062 671.25 174.210938 C 680.589844 174.011719 689.929688 174.199219 699.28125 174.121094 C 699.429688 183.03125 699.441406 191.949219 699.351562 200.859375 C 708.46875 201 717.609375 200.589844 726.71875 201.339844 C 727.390625 210.71875 727.320312 220.128906 726.621094 229.511719 C 716.710938 231.519531 706.589844 228.390625 696.75 230.78125 C 696.011719 234.179688 697.179688 237.570312 697.449219 240.949219 C 697.921875 245.480469 697.46875 250.050781 696.640625 254.511719 C 714.078125 255.53125 731.550781 255.199219 749 255.191406 C 758.941406 254.25 768.929688 256.140625 778.851562 254.671875 C 778.789062 246.179688 778.800781 237.699219 779.351562 229.230469 C 770.699219 229.269531 762.070312 230.910156 753.449219 229.46875 C 753.148438 220.140625 753.128906 210.800781 753.480469 201.46875 C 762.960938 201.058594 772.441406 200.691406 781.941406 200.761719 C 781.730469 194.808594 781.839844 188.851562 781.359375 182.910156 C 781.230469 179.570312 780.828125 176.109375 781.941406 172.871094 C 790.949219 170.78125 800.128906 173.441406 809.25 172.519531 C 810.300781 181.839844 808.898438 191.230469 809.488281 200.578125 C 818.289062 200.871094 827.191406 201.148438 835.929688 199.828125 C 835.890625 178.21875 835.488281 156.601562 836.070312 135.011719 C 835.671875 129.738281 835.488281 124.460938 835.820312 119.191406 C 826.921875 119.160156 818.019531 119.390625 809.121094 119.21875 C 809.570312 128.269531 808.300781 137.28125 808.839844 146.328125 C 799.828125 146.019531 790.789062 147.371094 781.808594 146.058594 C 781.019531 136.871094 781.328125 127.589844 781.78125 118.371094 C 776.851562 118.699219 771.941406 119.539062 767 119.210938 C 762.71875 118.921875 758.441406 118.628906 754.160156 118.609375 C 754.160156 113.089844 754.359375 107.550781 753.851562 102.03125 C 753.640625 98.269531 753.050781 94.46875 753.621094 90.710938 C 756.058594 89.050781 759.179688 89.570312 761.96875 89.230469 C 768.710938 88.578125 775.46875 89.089844 782.21875 88.800781 C 781.410156 82.871094 781.601562 76.871094 781.03125 70.921875 C 780.671875 67.78125 781.269531 64.640625 781.808594 61.539062 C 790.839844 61.621094 799.871094 61.039062 808.910156 61.441406 C 809.710938 70.539062 808.261719 79.648438 808.738281 88.769531 C 817.769531 88.890625 826.800781 88.820312 835.839844 88.851562 C 835.351562 70.578125 835.878906 52.308594 835.5 34.039062 C 835.921875 25.160156 834.949219 16.28125 835.628906 7.410156 C 826.78125 7.101562 817.921875 7.21875 809.070312 7.378906 C 809.328125 16.519531 808.480469 25.640625 808.660156 34.789062 C 799.488281 34.871094 790.328125 34.878906 781.171875 34.839844 C 781.128906 25.679688 781.351562 16.5 780.71875 7.351562 C 754.011719 6.941406 727.238281 6.421875 700.558594 7.789062 C 698.308594 8.050781 698.789062 10.628906 698.851562 12.21875 C 699.511719 19.949219 699.628906 27.738281 698.980469 35.46875 C 689.699219 35.941406 680.371094 35.800781 671.078125 35.578125 C 671.589844 26.339844 670 17.148438 670.359375 7.910156 C 653.25 7.71875 636.121094 7.890625 619 7.980469 C 609.441406 7.71875 599.910156 9.101562 590.351562 8.578125 C 589.488281 23.371094 590.050781 38.191406 589.878906 52.988281 C 589.921875 65.511719 589.679688 78.03125 590.328125 90.53125 C 598.980469 90.480469 607.601562 91.480469 616.261719 91.070312 C 616.390625 100.53125 616.519531 110 616.269531 119.460938 C 607.640625 119.640625 599.011719 119.609375 590.378906 119.640625 C 589.46875 140.75 590.050781 161.878906 589.878906 183 C 589.71875 189.46875 590.160156 195.941406 590.578125 202.390625 C 599.191406 202.210938 607.78125 201.738281 616.390625 201.429688 C 616.21875 211.03125 616.839844 220.660156 615.820312 230.21875 C 607.378906 231.050781 598.878906 230.640625 590.421875 230.601562 C 589.648438 239.011719 590.058594 247.421875 590.398438 255.839844 M 615.96875 174.671875 C 615.738281 165.191406 616.011719 155.710938 616.339844 146.230469 C 625.808594 145.769531 635.28125 145.011719 644.78125 145.210938 C 644.871094 154.988281 644.699219 164.78125 644.488281 174.558594 C 634.988281 174.878906 625.46875 174.808594 615.96875 174.671875 M 726.339844 174.679688 C 726.019531 164.839844 726.339844 155 726.238281 145.160156 C 735.660156 145.171875 745.050781 145.039062 754.449219 144.441406 C 754.390625 154.488281 755.28125 164.648438 753.859375 174.628906 C 744.691406 175.148438 735.5 175.53125 726.339844 174.679688 M 670.890625 145.839844 C 669.910156 137.300781 670.851562 128.609375 670.28125 120.019531 C 661.609375 120.351562 652.960938 119.320312 644.289062 119.589844 C 643.699219 109.871094 643.671875 100.121094 644.308594 90.390625 C 653.191406 89.679688 662.078125 91.058594 670.941406 90.148438 C 671 81.03125 670.398438 71.878906 670.839844 62.78125 C 674.148438 61.960938 677.601562 61.859375 681 61.859375 C 687.121094 61.949219 693.261719 61.589844 699.351562 62.398438 C 699.5 71.730469 699.261719 81.070312 699.539062 90.390625 C 708.480469 89.550781 717.480469 90.128906 726.441406 89.46875 C 727.519531 99.421875 727.371094 109.46875 726.621094 119.441406 C 717.578125 119.148438 708.589844 120.339844 699.570312 120.011719 C 699.300781 128.558594 699.429688 137.109375 699.429688 145.660156 C 689.921875 145.339844 680.339844 147.761719 670.890625 145.839844 M 615.761719 63.800781 C 615.648438 54.371094 615.589844 44.921875 615.480469 35.480469 C 625.148438 34.648438 634.890625 34.5 644.570312 35.320312 C 645.371094 44.671875 645.699219 54.121094 644.429688 63.441406 C 634.898438 64.210938 625.300781 64.648438 615.761719 63.800781 M 726.128906 62.738281 C 726.070312 53.558594 726.089844 44.371094 726.109375 35.179688 C 735.609375 35.210938 745.109375 35.160156 754.621094 35.128906 C 754.578125 44.328125 754.640625 53.519531 754.578125 62.710938 C 745.089844 62.789062 735.609375 62.699219 726.128906 62.738281 Z M 726.128906 62.738281 " transform="matrix(1,0,0,-1,-13,833)"/>
<path style="fill-rule:nonzero;fill:rgb(8.599854%,8.599854%,8.599854%);fill-opacity:1;stroke-width:0.09375;stroke-linecap:butt;stroke-linejoin:miter;stroke:rgb(8.599854%,8.599854%,8.599854%);stroke-opacity:1;stroke-miterlimit:10;" d="M 809.160156 254.910156 C 818.058594 254.828125 826.96875 254.851562 835.878906 254.859375 C 835.789062 246.578125 836 238.28125 835.179688 230.03125 C 826.570312 230.46875 817.960938 230.03125 809.359375 230.371094 C 809.328125 238.550781 809.121094 246.730469 809.160156 254.910156 Z M 809.160156 254.910156 " transform="matrix(1,0,0,-1,-13,833)"/>
</g>
</svg>
