<svg xmlns="http://www.w3.org/2000/svg" xmlns:xlink="http://www.w3.org/1999/xlink" width="656.396pt" height="69.077pt" viewBox="0 0 656.396 69.077"><defs><path id="a" d="M.5-4.01562C.5-1.60937 1.20313.14063 3.1875.14063c1.96875 0 2.6875-1.75 2.6875-4.15625s-.71875-4.15625-2.6875-4.15625C1.20313-8.17187.5-6.42187.5-4.01562m1.21875 0c0-1.95313.32813-3.73438 1.46875-3.73438 1.125 0 1.46875 1.78125 1.46875 3.73438S4.3125-.28125 3.1875-.28125c-1.14062 0-1.46875-1.78125-1.46875-3.73437m0 0"/><path id="v" d="m.60938 1.46875.23437.23438c.59375-.5625 1.46875-1.375 1.46875-2.3125 0-.64063-.34375-1.09375-.79687-1.09375-.375 0-.60938.29687-.60938.60937 0 .42188.39063.65625.39063 1.17188 0 .5-.29688.96875-.6875 1.39062m0 0"/><path id="w" d="M.48438-1.23437c0 .5625.84375 1.375 2.40625 1.375 1.98437 0 2.875-1.20313 2.875-2.71875 0-1.6875-1.04688-2.54688-2.48438-2.54688-.65625 0-1.39062.29688-1.76562.64063l.26562-2.28125c.03125-.29688.10938-.34375.34375-.34375h2.98438l.29687-.8125-.0625-.10938H1.32813l-.10938.125-.25 4.01563.29688.14062c.5-.5625.98437-.84375 1.64062-.84375.76563 0 1.60938.5625 1.60938 2.14063 0 1.23437-.5 2.17187-1.54688 2.17187-.84375 0-1.26562-.59375-1.51562-1.29687-.0625-.17188-.17188-.28126-.34375-.28126-.23438 0-.625.23438-.625.625m0 0"/><path id="J" d="M1.29688 0H5.25v-.34375l-1-.09375c-.26562-.01562-.40625-.10937-.40625-.57812v-7.09375l-.0625-.0625L1.29688-7.75v.29688l1.125.14062c.21875.03125.28125.10938.28125.46875v5.82813c0 .46875-.10938.5625-.39063.57812l-1.01562.09375Zm0 0"/><path id="b" d="M.42188 0h3.34375v-.34375c-1.04688-.07812-1.0625-.09375-1.0625-.76562v-6.09375c0-.67188.01562-.6875 1.0625-.76563v-.34375H.42188v.34375c1.0625.07813 1.09375.09375 1.09375.76563v6.09375c0 .67187-.03126.6875-1.09375.76562Zm0 0"/><path id="c" d="M.39063 0H3.3125v-.34375c-.85937-.0625-.89062-.09375-.89062-.70312v-2.8125c0-.3125 0-.46875.07812-.64063.23438-.48437.76563-.875 1.42188-.875 1.03125 0 1.17187.75 1.17187 1.48438v2.84375c0 .60937-.04687.64062-.92187.70312V0h2.9375v-.34375c-.85938-.0625-.89063-.09375-.89063-.70312v-2.8125c0-.3125 0-.45313.07813-.65625.1875-.48438.6875-.85938 1.375-.85938.75 0 1.21875.42188 1.21875 1.48438v2.84375c0 .60937-.04688.64062-.92188.70312V0h2.95313v-.34375C10.0625-.40625 10-.4375 10-1.04687v-3.0625c0-1.21875-.64062-1.92188-1.78125-1.92188-.98437 0-1.6875.65625-2.10937.92188-.29688-.5625-.75-.92188-1.59375-.92188-.92188 0-1.67188.60938-2.09375.92188l-.125-.92188-1.84375.3125v.28125l.4375.0625c.3125.0625.40625.10938.40625.54688v3.78125c0 .60937-.04688.64062-.90625.70312Zm0 0"/><path id="d" d="M.3125 2.42188v.34375h3.09375v-.34375c-1-.0625-1.07812-.09375-1.07812-.70313V-.125c.25.14063.82812.26563 1.375.26563 1.625 0 3-.73438 3-3.21875 0-.85938-.14063-2.95313-2.32813-2.95313-.89062 0-1.57812.59375-2.04687.89063l-.15625-.89063-1.8125.3125v.28125l.45312.0625c.3125.0625.39063.10938.39063.54688v6.54687c0 .60938-.04688.64063-.89063.70313m2.01563-4.3125v-1.96875c0-.3125.0625-.45313.17187-.67188.28125-.5625.76563-.84375 1.40625-.84375.48438 0 1.5625.29688 1.5625 2.375 0 1.76563-.5625 2.71875-1.76562 2.71875-.625 0-1.09375-.3125-1.28125-.875-.07813-.21875-.09375-.45312-.09375-.73437m0 0"/><path id="e" d="M.59375-2.9375c0 1.9375.95313 3.07813 2.875 3.07813C5.40625.14063 6.35938-1 6.35938-2.9375s-.95313-3.09375-2.89063-3.09375c-1.92187 0-2.875 1.15625-2.875 3.09375m1.25 0c0-1.65625.53125-2.67187 1.625-2.67187 1.10938 0 1.64063 1.01562 1.64063 2.67187S4.57813-.28125 3.46875-.28125c-1.09375 0-1.625-1-1.625-2.65625m0 0"/><path id="f" d="m.5625-2 .125 1.5625c.4375.39063 1.17188.57813 1.875.57813 1.42188 0 2.25-.75 2.25-1.78125 0-1.0625-.65625-1.53125-1.89062-1.90625-.5-.15625-1.28125-.42188-1.28125-1.09375 0-.625.46875-.96875 1.0625-.96875.85937 0 1.26562.65625 1.35937 1.39062h.34375V-5.625c-.39062-.29687-1-.40625-1.54687-.40625-1.29688 0-2.1875.60938-2.1875 1.75 0 1 .82812 1.4375 1.82812 1.75.53125.17188 1.28125.4375 1.28125 1.25 0 .60938-.46875 1-1.10937 1C1.70313-.28125 1.15625-.98437.90625-2Zm0 0"/><path id="g" d="M1.09375-7.85937c0 .4375.3125.73437.75.73437s.71875-.29687.71875-.73437-.28125-.73438-.71875-.73438-.75.29688-.75.73438M.39063 0H3.3125v-.34375c-.85937-.0625-.89062-.09375-.89062-.70312v-4.90625l-.09375-.07813-1.875.3125v.28125l.4375.0625c.3125.0625.40625.10938.40625.54688v3.78125c0 .60937-.04688.64062-.90625.70312Zm0 0"/><path id="h" d="m.25-8.3125.45313.04688c.3125.03125.39062.09375.39062.5625v7.75l.20313.09375.48437-.45313c.42188.23438.92188.45313 1.82813.45313 1.59375 0 2.98437-.76563 2.98437-3.21875 0-.75-.15625-2.95313-2.3125-2.95313-.90625 0-1.625.59375-2.0625.85938v-3.67188l-.09375-.0625-1.875.29688Zm1.96875 6.35938v-1.90625c0-.3125 0-.48438.10938-.67188C2.625-5.10937 3.125-5.375 3.79688-5.375c.5 0 1.54687.28125 1.54687 2.375 0 1.76563-.53125 2.71875-1.73437 2.71875-.625 0-1.09375-.3125-1.3125-.92187-.07813-.21876-.07813-.45313-.07813-.75m0 0"/><path id="i" d="M.25 0h2.92188v-.34375c-.85938-.0625-.89063-.09375-.89063-.70312v-7.79688l-.09375-.0625-1.875.29688v.29687l.4375.04688c.3125.03125.39063.09375.39063.5625v6.65625c0 .60937-.03126.64062-.89063.70312Zm0 0"/><path id="j" d="M.59375-2.90625C.59375-1 1.40625.14063 3.35938.14063c1.32812 0 2.01562-.73438 2.34375-1.6875l-.35938-.1875c-.32812.70312-.79687 1.26562-1.73437 1.26562-1.5 0-1.79688-1.4375-1.76563-2.6875h3.45313c.26562 0 .48437-.0625.48437-.45312 0-.70313-.23437-2.42188-2.4375-2.42188-1.875 0-2.75 1.32813-2.75 3.125m1.26563-.70312c0-.5.17187-2 1.42187-2 1.10938 0 1.25 1.14062 1.25 1.60937 0 .23438-.07812.39063-.42187.39063Zm0 0"/><path id="x" d="M.34375-7.96875c1.0625.07813 1.09375.09375 1.09375.76563v4.15625c0 .70312.10938 1.34375.3125 1.75C2.29688-.10937 3.5625.17188 4.73438.17188c1.20312 0 2.46875-.28126 3.01562-1.46875.20313-.42188.32813-1.0625.32813-1.76563v-4.14062c0-.67188.03125-.6875 1.07812-.76563v-.34375H5.79688v.34375c1.0625.07813 1.09375.09375 1.09375.76563v3.90625c0 1.14062-.1875 1.85937-.54688 2.34375-.375.48437-.90625.70312-1.60937.70312-.6875 0-1.20313-.21875-1.57813-.70312C2.79688-1.4375 2.625-2.15625 2.625-3.29687v-3.90625c0-.67188.03125-.6875 1.07813-.76563v-.34375H.34375Zm0 0"/><path id="y" d="M.39063 0H3.3125v-.34375c-.85937-.0625-.89062-.09375-.89062-.70312v-2.8125c0-.3125 0-.45313.10937-.65625.25-.46875.79688-.85938 1.4375-.85938.8125 0 1.26563.4375 1.26563 1.48438v2.84375c0 .60937-.04688.64062-.92188.70312V0h2.95313v-.34375c-.85938-.0625-.90625-.09375-.90625-.70312v-3.0625c0-1.21875-.67188-1.92188-1.76563-1.92188-.90625 0-1.45312.4375-2.1875.92188l-.17187-.92188-1.78125.3125v.28125l.4375.0625c.3125.0625.40625.10938.40625.54688v3.78125c0 .60937-.04688.64062-.90625.70312Zm0 0"/><path id="z" d="M.59375-2.89062C.59375-.875 1.57813.14063 3.375.14063c.84375 0 1.98438-.4375 2.3125-1.71875L5.32813-1.75c-.375.84375-.84375 1.26563-1.71875 1.26563-1.4375 0-1.76563-1.5-1.76563-2.625 0-1.78125.70313-2.5 1.53125-2.5.54688 0 .89063.39062 1.14063 1.04687.07812.1875.15625.3125.375.3125.25 0 .70312-.15625.70312-.625 0-.54687-.78125-1.15625-2.09375-1.15625-2.1875 0-2.90625 1.54688-2.90625 3.14063m0 0"/><path id="A" d="M.25 0h2.92188v-.34375c-.82813-.0625-.89063-.10937-.89063-.70312v-2.8125c0-.3125 0-.45313.09375-.64063.26563-.48437.8125-.875 1.45313-.875.8125 0 1.26562.4375 1.26562 1.48438v2.84375c0 .59375-.07812.64062-.92187.70312V0h2.9375v-.34375c-.82813-.0625-.89063-.10937-.89063-.70312v-3.0625c0-1.21875-.67187-1.92188-1.78125-1.92188-.89062 0-1.42187.42188-2.17187.92188v-3.73438l-.09375-.0625-1.85938.29688v.29687L.75-8.25c.3125.04688.39063.10938.39063.54688v6.65625c0 .59375-.04688.64062-.89063.70312Zm0 0"/><path id="B" d="M.59375-1.5625c0 .89063.59375 1.70313 1.71875 1.70313.70313 0 1.40625-.45313 1.79688-.71875.15625.45312.35937.71875.78125.71875.45312 0 .96875-.125 1.42187-.35938L6.23438-.5c-.15625.04688-.4375.04688-.60938 0-.21875-.04687-.42187-.26562-.42187-1.01562V-4.4375c0-.70312-.15625-1.59375-1.96875-1.59375-1.35938 0-2.42188.70313-2.42188 1.35938 0 .39062.4375.5625.67188.5625.25 0 .3125-.125.375-.32813.28124-.89062.76562-1.17187 1.25-1.17187.46875 0 1 .23437 1 1.20312v.5c-.29688.29688-1.46875.60938-2.40625.92188C.82813-2.71875.59375-2.125.59375-1.5625m1.20313-.15625c0-.5625.26562-.85937.9375-1.125.48437-.17187 1.10937-.40625 1.375-.5625v1.6875C4.10938-.73437 3.375-.5 2.90625-.5c-.75 0-1.10937-.51562-1.10937-1.21875m0 0"/><path id="C" d="m.3125-5.4375.45313.0625c.3125.0625.39062.10938.39062.54688v3.17187c0 1.375.8125 1.79688 1.70313 1.79688 1.03125 0 1.85937-.6875 2.20312-.85938L5.17188 0h1.9375v-.34375c-.82813-.0625-.90625-.09375-.90625-.70312v-4.90625l-.09375-.07813-1.875.3125v.28125l.45312.0625c.3125.0625.39063.10938.39063.54688V-2.125c0 .32813-.04688.60938-.10938.71875C4.6875-.85937 4.125-.5 3.5-.5c-.70312 0-1.21875-.45312-1.21875-1.375v-4.07812l-.07812-.07813-1.89063.3125Zm0 0"/><path id="D" d="M.39063 0h3.15625v-.34375c-1.0625-.0625-1.125-.09375-1.125-.70312v-2.8125c0-.92188.40625-1.23438.6875-1.23438.1875 0 .39062.07813.73437.26563.09375.04687.1875.0625.25.0625.29688 0 .54688-.3125.54688-.67188 0-.28125-.17188-.59375-.64063-.59375-.4375 0-.79687.25-1.57812.95313l-.14063-.95313-1.82812.3125v.28125l.4375.0625c.3125.0625.40625.10938.40625.54688v3.78125c0 .60937-.0625.64062-.90625.70312Zm0 0"/><path id="E" d="M.59375-2.82812c0 1.78125.92188 2.96875 2.51563 2.96875.64062 0 1.20312-.29688 1.84375-.8125v.57812L5.0625 0H7v-.34375c-.85937-.0625-.89062-.09375-.89062-.70312v-7.79688l-.09375-.0625-1.89063.29688v.29687l.46875.04688c.29688.03125.375.09375.375.5625v1.96875c-.32812-.1875-.78125-.29688-1.32812-.29688-.98438 0-1.71875.3125-2.21875.82813-.51563.53125-.82813 1.32812-.82813 2.375m1.25-.14063c0-1.5625.5625-2.64062 1.78125-2.64062.5625 0 1.03125.25 1.25.75.09375.20312.09375.39062.09375.70312v2.10938c0 .26562 0 .46875-.07812.67187C4.65625-.73437 4.125-.5 3.5-.5c-1.09375 0-1.65625-1.07812-1.65625-2.46875m0 0"/><path id="F" d="M.01563 0H2.3125v-.34375l-.5-.0625c-.15625-.03125-.15625-.17187-.09375-.29687C2-1.21875 2.375-1.79687 2.78125-2.42187h.03125l1.07813 1.6875c.125.20312.07812.29687-.09375.32812l-.5.0625V0h2.8125v-.34375c-.53125-.03125-.73438-.0625-1.03125-.5-.54688-.79687-1.125-1.625-1.65625-2.46875.40625-.59375.85937-1.21875 1.32812-1.78125.3125-.375.48438-.42187 1.04688-.4375v-.35937H3.5625v.35937L4.03125-5.5c.20313.03125.17188.15625.07813.28125-.28125.46875-.59375.96875-.95313 1.51563h-.01562l-1-1.5c-.10938-.14063-.0625-.28125.10937-.3125l.35938-.01563v-.35937h-2.5v.35937c.48437.01563.57812.03125.875.4375.5.70313 1.01562 1.48438 1.53125 2.25-.4375.64063-.90625 1.32813-1.40625 1.96875C.8125-.45312.53125-.39062.01563-.34375Zm0 0"/><path id="K" d="M.57813-4.10937C.57813-2.70312 1-1.5625 1.71875-.84375 2.45313-.10937 3.64063.17188 4.98438.17188c.95312 0 2.07812-.26563 2.64062-.5625l.17188-2.01563H7.4375C7.10938-1.15625 6.48438-.25 4.90625-.25c-2.48437 0-2.98437-2.42187-2.98437-3.875 0-1.96875.78125-3.95312 3.01562-3.95312 1.21875 0 2.07813.51562 2.3125 1.9375h.35938v-1.89063C7.0625-8.28125 6.15625-8.5 5.0625-8.5c-1.48437 0-2.67187.4375-3.39062 1.23438C.98438-6.5.57813-5.45312.57813-4.10937m0 0"/><path id="L" d="M.375-5.40625h.85938v4.17188c0 1.23437.90625 1.375 1.32812 1.375.625 0 1.1875-.3125 1.54688-.53125l-.09375-.25c-.29688.10937-.54688.15624-.85938.15624-.40625 0-.79687-.29687-.79687-1.20312v-3.71875h1.54687v-.48437H2.35938v-1.51563h-.34375l-.71875 1.51563H.375Zm0 0"/><path id="k" d="M.20313 0h1.6875v-.17187c-.53125-.03126-.54688-.04688-.54688-.39063v-3.03125c0-.34375.01563-.34375.54688-.39062v-.17188H.20313v.17188C.73438-3.9375.75-3.9375.75-3.59375V-.5625c0 .34375-.01562.35938-.54687.39063Zm0 0"/><path id="l" d="M.1875 0h1.46875v-.17187c-.42187-.03126-.45312-.04688-.45312-.35938V-1.9375c0-.14062 0-.23437.04687-.3125.125-.25.375-.4375.71875-.4375.51563 0 .57813.375.57813.75v1.40625c0 .3125-.01563.32813-.45313.35938V0h1.45313v-.17187c-.42188-.03126-.4375-.04688-.4375-.35938V-1.9375c0-.14062 0-.21875.04687-.3125.07813-.25.34375-.4375.67188-.4375.39062 0 .60937.20313.60937.75v1.40625c0 .3125-.01562.32813-.45312.35938V0h1.46875v-.17187C5.03125-.20313 5-.21875 5-.53125V-2.0625c0-.60937-.32812-.95312-.89062-.95312-.5 0-.84375.32812-1.04688.45312-.15625-.28125-.39062-.45312-.8125-.45312-.45312 0-.82812.3125-1.04687.45312l-.04688-.45312-.9375.15625v.14062l.23438.03125c.14062.03125.1875.04688.1875.26563v1.89062c0 .3125-.01563.32813-.45313.35938Zm0 0"/><path id="m" d="M.15625 1.20313V1.375h1.54688v-.17187c-.5-.03126-.54688-.04688-.54688-.34375V-.0625c.14063.0625.42188.125.70313.125.8125 0 1.5-.35937 1.5-1.60937 0-.42188-.07813-1.46875-1.17188-1.46875-.4375 0-.78125.29687-1.03125.45312l-.0625-.45312-.92187.15625v.14062l.23437.03125c.15625.03125.1875.04688.1875.26563V.85938c0 .29687-.01562.3125-.4375.34375m1-2.15625v-.98438c0-.14062.03125-.21875.09375-.32812.14063-.28125.39063-.42188.70313-.42188.25 0 .78125.15625.78125 1.1875 0 .875-.28125 1.35938-.875 1.35938-.3125 0-.5625-.15625-.65625-.4375q-.04689-.16407-.04688-.375m0 0"/><path id="n" d="M.1875 0h1.59375v-.17187c-.54687-.03126-.57812-.04688-.57812-.35938V-1.9375c0-.45312.20312-.60937.34375-.60937.10937 0 .20312.03125.375.125.04687.03125.09374.03125.125.03125.14062 0 .26562-.14063.26562-.32813 0-.14062-.07812-.29687-.3125-.29687-.21875 0-.39062.125-.79687.48437l-.0625-.48437-.92188.15625v.14062l.23438.03125c.14062.03125.1875.04688.1875.26563v1.89062c0 .3125-.03126.32813-.45313.35938Zm0 0"/><path id="o" d="M.29688-1.46875C.29688-.5.76563.0625 1.73438.0625S3.17188-.5 3.17188-1.46875s-.46875-1.54687-1.4375-1.54687-1.4375.57812-1.4375 1.54687m.625 0c0-.82812.26562-1.34375.8125-1.34375.54687 0 .82812.51563.82812 1.34375 0 .82813-.28125 1.32813-.82812 1.32813-.54688 0-.8125-.5-.8125-1.32813m0 0"/><path id="p" d="m.125-4.15625.21875.01563c.15625.03125.20313.0625.20313.28125V.03125L.65625.0625l.23438-.21875c.20312.125.46875.21875.90625.21875.79687 0 1.5-.375 1.5-1.60937 0-.35938-.07813-1.46875-1.15625-1.46875-.45313 0-.8125.29687-1.03125.42187v-1.82812l-.04688-.03125-.9375.14062Zm.98438 3.17188v-.95313c0-.14062 0-.23437.04687-.32812.15625-.29688.40625-.42188.73438-.42188.25 0 .78125.14063.78125 1.1875 0 .875-.26563 1.35938-.85938 1.35938-.32812 0-.54687-.15625-.65625-.45313-.04687-.10937-.04687-.23437-.04687-.39062m0 0"/><path id="q" d="M.29688-.78125c0 .45313.29687.84375.85937.84375.35938 0 .70313-.21875.89063-.34375.09375.21875.1875.34375.40625.34375S2.92188 0 3.15625-.10937L3.125-.25c-.09375.01563-.21875.03125-.3125 0-.10937-.03125-.21875-.14062-.21875-.51562v-1.45313c0-.34375-.0625-.79687-.98437-.79687-.67188 0-1.20313.34375-1.20313.6875 0 .1875.21875.28125.32813.28125.14062 0 .17187-.0625.20312-.17188.125-.45312.375-.59375.60938-.59375.25 0 .51562.125.51562.60938v.25c-.15625.15624-.73437.29687-1.21875.45312-.42187.14063-.54687.4375-.54687.71875m.60937-.07812c0-.28126.125-.4375.46875-.5625.23438-.09376.54688-.20313.6875-.28126v.84376c0 .48437-.375.60937-.60937.60937-.375 0-.54688-.26562-.54688-.60937m0 0"/><path id="r" d="M.125 0h1.45313v-.17187c-.42188-.03126-.4375-.04688-.4375-.35938v-3.89062l-.04688-.03125-.9375.14062v.15625l.21875.01563c.15625.03125.1875.0625.1875.28125v3.32812c0 .3125 0 .32813-.4375.35938Zm0 0"/><path id="s" d="M.29688-1.45312C.29688-.5.70313.0625 1.6875.0625c.65625 0 1-.35937 1.15625-.82812L2.67188-.875c-.17188.35938-.39063.64063-.875.64063-.75 0-.89063-.71875-.875-1.34375h1.73437c.125 0 .23438-.03126.23438-.23438 0-.34375-.10938-1.20312-1.21875-1.20312-.9375 0-1.375.65625-1.375 1.5625m.625-.35938c0-.25.09374-1 .71875-1 .5625 0 .625.57813.625.8125 0 .10938-.04688.1875-.20313.1875Zm0 0"/><path id="t" d="M.20313 0h1.78125v-.17187c-.625-.03126-.64063-.04688-.64063-.39063v-1.14062h.34375c.28125 0 .54688-.03126.76563-.07813.46875-.125 1-.4375 1-1.20312 0-.45313-.20313-.76563-.46875-.9375-.29688-.17188-.67188-.23438-1.09375-.23438H.20313v.17188C.73438-3.9375.75-3.9375.75-3.59375V-.5625c0 .34375-.01562.35938-.54687.39063Zm1.14062-2.15625v-1.5625c0-.17187.0625-.23437.45313-.23437.625 0 1 .35937 1 1.01562 0 .75-.48438 1.01563-1 1.01563-.35938 0-.45313-.01563-.45313-.23438m0 0"/><path id="u" d="m.15625-2.71875.23438.03125c.14062.03125.1875.04688.1875.26563v1.59375c0 .6875.40625.89062.85937.89062.5 0 .92188-.34375 1.09375-.42187L2.59375 0h.95313v-.17187c-.40625-.03126-.45313-.04688-.45313-.35938v-2.45312l-.03125-.03125-.95312.15625v.14062l.23437.03125c.15625.03125.1875.04688.1875.26563v1.35937c0 .17188-.01562.29688-.04687.35938C2.34375-.42188 2.0625-.25 1.75-.25c-.34375 0-.60937-.21875-.60937-.6875v-2.04687l-.04688-.03125-.9375.15625Zm0 0"/><path id="G" d="M.14063-3.15625H.3125c.07813-.65625.20313-.79687.90625-.79687h.34375V-.5625c0 .34375-.01562.35938-.65625.39063V0h1.92188v-.17187c-.65625-.03126-.67188-.04688-.67188-.39063v-3.39062h.35938c.70312 0 .82812.14062.90625.79687h.17187v-1H.14063Zm0 0"/><path id="H" d="M.73438-4.07812c0 .125.14062.21875.32812.32812l.90625.5.09375-.125-.71875-.71875c-.17187-.1875-.28125-.25-.39062-.25-.07813 0-.21876.14063-.21876.26563m-.4375 2.625C.29688-.5.70313.0625 1.6875.0625c.65625 0 1-.35937 1.15625-.82812L2.67188-.875c-.17188.35938-.39063.64063-.875.64063-.75 0-.89063-.71875-.875-1.34375h1.73437c.125 0 .23438-.03126.23438-.23438 0-.34375-.10938-1.20312-1.21875-1.20312-.9375 0-1.375.65625-1.375 1.5625m.625-.35938c0-.25.09374-1 .71875-1 .5625 0 .625.57813.625.8125 0 .10938-.04688.1875-.20313.1875Zm0 0"/><path id="I" d="m.28125-1 .0625.78125c.21875.1875.57813.28125.9375.28125.71875 0 1.125-.375 1.125-.875 0-.53125-.32812-.76562-.95312-.96875-.25-.07812-.64063-.20312-.64063-.53125 0-.32812.23438-.5.54688-.5.42187 0 .625.34375.67187.70313h.17188v-.70313c-.20313-.14062-.5-.20312-.76563-.20312-.65625 0-1.09375.3125-1.09375.875 0 .5.40625.71875.90625.875.26563.07812.64063.21874.64063.625 0 .3125-.23438.5-.5625.5-.48438 0-.75-.34375-.875-.85938Zm0 0"/></defs><path fill="none" stroke="#000" stroke-miterlimit="10" stroke-width=".39324" d="M38.2539 41.34375h589.1014M38.2539 49.52343V33.16016"/><use xlink:href="#a" x="35.07074" y="62.2068"/><use xlink:href="#b" x="8.28958" y="25.88414" fill="red"/><g fill="red"><use xlink:href="#c" x="12.26437" y="25.88414"/><use xlink:href="#d" x="23.3452" y="25.88414"/><use xlink:href="#e" x="30.64296" y="25.88414"/><use xlink:href="#f" x="37.57007" y="25.88414"/><use xlink:href="#f" x="42.79736" y="25.88414"/><use xlink:href="#g" x="48.02465" y="25.88414"/><use xlink:href="#h" x="51.51377" y="25.88414"/><use xlink:href="#i" x="58.6965" y="25.88414"/><use xlink:href="#j" x="62.04503" y="25.88414"/></g><use xlink:href="#k" x="120.4282" y="27.26469" fill="#f30"/><g fill="#f30"><use xlink:href="#l" x="122.41559" y="27.26469"/><use xlink:href="#m" x="127.95601" y="27.26469"/><use xlink:href="#n" x="131.60488" y="27.26469"/></g><g fill="#f30"><use xlink:href="#o" x="133.89901" y="27.26469"/><use xlink:href="#p" x="137.36257" y="27.26469"/><use xlink:href="#q" x="140.95394" y="27.26469"/><use xlink:href="#p" x="144.09159" y="27.26469"/><use xlink:href="#r" x="147.68295" y="27.26469"/><use xlink:href="#s" x="149.35722" y="27.26469"/></g><use xlink:href="#t" x="216.6268" y="27.26469" fill="#ff5900"/><g fill="#ff5900"><use xlink:href="#s" x="220.05202" y="27.26469"/><use xlink:href="#u" x="223.13855" y="27.26469"/></g><g fill="#ff5900"><use xlink:href="#m" x="228.12301" y="27.26469"/><use xlink:href="#n" x="231.77188" y="27.26469"/></g><g fill="#ff5900"><use xlink:href="#o" x="234.06601" y="27.26469"/><use xlink:href="#p" x="237.52957" y="27.26469"/><use xlink:href="#q" x="241.12094" y="27.26469"/><use xlink:href="#p" x="244.25859" y="27.26469"/><use xlink:href="#r" x="247.84995" y="27.26469"/><use xlink:href="#s" x="249.52422" y="27.26469"/></g><path fill="none" stroke="#000" stroke-miterlimit="10" stroke-width=".39324" d="M332.8046 49.52343V33.16016"/><use xlink:href="#a" x="324.13529" y="62.2068"/><use xlink:href="#v" x="330.50005" y="62.2068"/><use xlink:href="#w" x="335.10109" y="62.2068"/><use xlink:href="#x" x="300.61358" y="13.16726" fill="#ff7f00"/><g fill="#ff7f00"><use xlink:href="#y" x="309.62394" y="13.16726"/><use xlink:href="#j" x="317.04951" y="13.16726"/></g><g fill="#ff7f00"><use xlink:href="#z" x="325.91928" y="13.16726"/><use xlink:href="#A" x="331.87507" y="13.16726"/><use xlink:href="#B" x="339.16005" y="13.16726"/><use xlink:href="#y" x="345.43535" y="13.16726"/><use xlink:href="#z" x="352.86091" y="13.16726"/><use xlink:href="#j" x="358.8167" y="13.16726"/></g><g fill="#ff7f00"><use xlink:href="#f" x="309.64234" y="28.50512"/><use xlink:href="#C" x="314.86963" y="28.50512"/><use xlink:href="#D" x="322.14182" y="28.50512"/></g><g fill="#ff7f00"><use xlink:href="#E" x="329.50348" y="28.50512"/><use xlink:href="#j" x="336.68621" y="28.50512"/><use xlink:href="#C" x="342.85927" y="28.50512"/><use xlink:href="#F" x="350.13146" y="28.50512"/></g><use xlink:href="#t" x="418.79742" y="28.57518" fill="#997f33"/><use xlink:href="#n" x="422.33766" y="28.57518" fill="#997f33"/><g fill="#997f33"><use xlink:href="#o" x="424.63179" y="28.57518"/><use xlink:href="#p" x="428.09535" y="28.57518"/><use xlink:href="#q" x="431.68671" y="28.57518"/><use xlink:href="#p" x="434.82437" y="28.57518"/><use xlink:href="#r" x="438.41573" y="28.57518"/><use xlink:href="#s" x="440.09" y="28.57518"/></g><use xlink:href="#G" x="510.61555" y="28.90182" fill="#4c7f59"/><g fill="#4c7f59"><use xlink:href="#n" x="513.84906" y="28.90182"/><use xlink:href="#H" x="516.18153" y="28.90182"/><use xlink:href="#I" x="519.26806" y="28.90182"/></g><g fill="#4c7f59"><use xlink:href="#m" x="523.23006" y="28.90182"/><use xlink:href="#n" x="526.87894" y="28.90182"/></g><g fill="#4c7f59"><use xlink:href="#o" x="529.17307" y="28.90182"/><use xlink:href="#p" x="532.63663" y="28.90182"/><use xlink:href="#q" x="536.22799" y="28.90182"/><use xlink:href="#p" x="539.36564" y="28.90182"/><use xlink:href="#r" x="542.95701" y="28.90182"/><use xlink:href="#s" x="544.63128" y="28.90182"/></g><path fill="none" stroke="#000" stroke-miterlimit="10" stroke-width=".39324" d="M627.3553 49.52343V33.16016"/><use xlink:href="#J" x="624.16729" y="62.2068"/><use xlink:href="#K" x="607.18816" y="28.46663" fill="#007f7f"/><g fill="#007f7f"><use xlink:href="#j" x="615.25276" y="28.46663"/><use xlink:href="#D" x="621.42581" y="28.46663"/></g><g fill="#007f7f"><use xlink:href="#L" x="626.193" y="28.46663"/><use xlink:href="#B" x="630.32115" y="28.46663"/><use xlink:href="#g" x="636.59646" y="28.46663"/><use xlink:href="#y" x="640.08557" y="28.46663"/></g></svg>