<svg xmlns="http://www.w3.org/2000/svg" xmlns:xlink="http://www.w3.org/1999/xlink" width="631.151pt" height="66.42pt" viewBox="0 0 631.151 66.42"><defs><path id="a" d="M.48438-3.875c0 2.3125.67187 4.01563 2.59375 4.01563 1.90625 0 2.59375-1.70313 2.59375-4.01563 0-2.32812-.6875-4.01562-2.59375-4.01562-1.92188 0-2.59375 1.6875-2.59375 4.01562m1.17187 0c0-1.89062.3125-3.60937 1.42188-3.60937C4.17188-7.48437 4.5-5.76562 4.5-3.875S4.17188-.26562 3.07813-.26562c-1.10938 0-1.42188-1.71875-1.42188-3.60938m0 0"/><path id="v" d="m.59375 1.42188.21875.21874c.57813-.54687 1.42188-1.3125 1.42188-2.23437 0-.60937-.32813-1.04687-.78125-1.04687-.35938 0-.57813.28124-.57813.57812 0 .42188.39063.64063.39063 1.14063 0 .48437-.29688.9375-.67188 1.34375m0 0"/><path id="w" d="M.46875-1.1875c0 .53125.8125 1.32813 2.32813 1.32813C4.70313.14063 5.5625-1.03125 5.5625-2.5c0-1.625-1-2.45312-2.39062-2.45312-.64063 0-1.34375.28125-1.71875.625l.26562-2.20313c.03125-.29687.10938-.32812.32813-.32812H4.9375l.28125-.79688-.0625-.09375h-3.875l-.10937.10938-.23438 3.875.28125.15625c.48438-.5625.95313-.82813 1.57813-.82813.75 0 1.5625.53125 1.5625 2.0625 0 1.20313-.48438 2.10938-1.5 2.10938-.8125 0-1.21875-.59375-1.45313-1.25-.0625-.17188-.17187-.28126-.32812-.28126-.23438 0-.60938.23438-.60938.60938m0 0"/><path id="J" d="M1.26563 0h3.8125v-.32812l-.98438-.09375c-.25-.01563-.375-.10938-.375-.5625v-6.84375l-.0625-.0625-2.39062.40625v.28125l1.07812.14062c.20313.03125.26563.10938.26563.45313v5.625c0 .45312-.10938.54687-.375.5625l-.96875.09375Zm0 0"/><path id="b" d="M.40625 0h3.23438v-.32812c-1.01563-.07813-1.03125-.09375-1.03125-.75v-5.875c0-.65625.01562-.65625 1.03125-.73438v-.32812H.40625v.32812c1.03125.07813 1.04688.07813 1.04688.73438v5.875c0 .65625-.01563.67187-1.04688.75Zm0 0"/><path id="c" d="M.375 0h2.82813v-.32812c-.82813-.0625-.875-.09375-.875-.6875v-2.71875c0-.29688 0-.45313.09375-.60938.21875-.46875.71875-.85937 1.375-.85937 1 0 1.10937.73437 1.10937 1.45312v2.73438c0 .59375-.03125.625-.875.6875V0h2.82813v-.32812C6.03125-.39062 6-.42187 6-1.01562v-2.71875c0-.29688.01563-.4375.07813-.625.1875-.46875.67187-.84375 1.32812-.84375.73438 0 1.17188.40625 1.17188 1.45312v2.73438c0 .59375-.03125.625-.875.6875V0h2.84375v-.32812c-.82813-.0625-.875-.09375-.875-.6875v-2.95313c0-1.17187-.64063-1.85937-1.73438-1.85937-.95312 0-1.625.625-2.03125.89062-.29687-.54687-.73437-.89062-1.54687-.89062-.89063 0-1.625.59375-2.03125.89062l-.10938-.89062-1.78125.29687V-5.25l.42188.0625c.29687.04688.39062.10938.39062.51563v3.65625c0 .59375-.04687.625-.875.6875Zm0 0"/><path id="d" d="M.29688 2.32813v.34375h3v-.34375C2.32813 2.26563 2.25 2.25 2.25 1.65625V-.125c.25.14063.79688.26563 1.32813.26563 1.5625 0 2.90625-.71875 2.90625-3.10938 0-.82812-.15625-2.85937-2.26563-2.85937-.84375 0-1.51562.5625-1.96875.85937l-.15625-.85937-1.75.29687V-5.25l.45313.0625c.29687.04688.35937.10938.35937.51563v6.32812c0 .59375-.04687.60938-.85937.67188M2.25-1.82812v-1.90625c0-.29688.0625-.4375.15625-.64063.26563-.53125.75-.82812 1.375-.82812.46875 0 1.5.29687 1.5 2.29687 0 1.70313-.54687 2.64063-1.70312 2.64063-.60938 0-1.0625-.3125-1.25-.84375-.0625-.21876-.07813-.45313-.07813-.71875m0 0"/><path id="e" d="M.5625-2.84375c0 1.875.9375 2.98438 2.79688 2.98438S6.14063-.96875 6.14063-2.84375s-.92188-2.98437-2.78125-2.98437C1.5-5.82812.5625-4.71875.5625-2.84375m1.21875 0c0-1.59375.51563-2.57812 1.57813-2.57812S4.9375-4.4375 4.9375-2.84375c0 1.60938-.51562 2.57813-1.57812 2.57813s-1.57813-.96875-1.57813-2.57813m0 0"/><path id="f" d="m.54688-1.9375.125 1.51563c.42187.375 1.125.5625 1.79687.5625 1.375 0 2.17188-.73438 2.17188-1.71875 0-1.03125-.625-1.48438-1.82813-1.85938-.48437-.14062-1.23437-.39062-1.23437-1.04687 0-.59375.45312-.9375 1.03125-.9375.82812 0 1.23437.64062 1.3125 1.34375h.34375V-5.4375c-.39063-.28125-.98438-.39062-1.5-.39062-1.26563 0-2.10938.59375-2.10938 1.6875 0 .96875.78125 1.40625 1.75 1.70312.51563.15625 1.25.40625 1.25 1.20313 0 .59375-.45312.96875-1.07812.96875-.9375 0-1.46875-.6875-1.70313-1.67188Zm0 0"/><path id="g" d="M1.0625-7.59375c0 .42188.29688.71875.71875.71875s.70313-.29687.70313-.71875-.28125-.70312-.70313-.70312c-.42187 0-.71875.28125-.71875.70312M.375 0h2.82813v-.32812c-.82813-.0625-.875-.09375-.875-.6875V-5.75L2.25-5.82812l-1.8125.29687V-5.25l.42188.0625c.29687.04688.39062.10938.39062.51563v3.65625c0 .59375-.04687.625-.875.6875Zm0 0"/><path id="h" d="m.23438-8.01562.4375.03125c.29687.03125.375.09375.375.54687V.04688l.21874.09375.45313-.45313c.40625.23438.89063.45313 1.76563.45313 1.54687 0 2.89062-.75 2.89062-3.10938 0-.71875-.15625-2.85937-2.23437-2.85937-.875 0-1.57813.5625-2 .82812v-3.54687l-.09375-.0625-1.8125.29687Zm1.90625 6.125v-1.84375c0-.29688 0-.46875.10937-.64063.28125-.5625.76563-.82812 1.42188-.82812.46875 0 1.48437.28125 1.48437 2.29687 0 1.70313-.51562 2.64063-1.65625 2.64063-.625 0-1.0625-.3125-1.28125-.89063-.07812-.21875-.07812-.45312-.07812-.73437m0 0"/><path id="i" d="M.23438 0H3.0625v-.32812c-.82812-.0625-.85937-.09375-.85937-.6875v-7.53125l-.09375-.0625-1.8125.29687v.29688l.4375.03125c.29687.03125.35937.09375.35937.54687v6.42188c0 .59375-.01562.625-.85937.6875Zm0 0"/><path id="j" d="M.5625-2.79687c0 1.82812.79688 2.9375 2.6875 2.9375C4.53125.14063 5.20313-.57812 5.5-1.5l-.34375-.17187C4.84375-1 4.39063-.45312 3.48438-.45312c-1.45313 0-1.73438-1.39063-1.70313-2.59375H5.125c.25 0 .45313-.0625.45313-.45313 0-.67187-.21875-2.32812-2.34375-2.32812-1.8125 0-2.67188 1.28125-2.67188 3.03125M1.79688-3.5c0-.46875.17187-1.92187 1.375-1.92187C4.25-5.42187 4.375-4.3125 4.375-3.85937c0 .21875-.07812.35937-.40625.35937Zm0 0"/><path id="x" d="M.32813-7.6875c1.03125.07813 1.04687.07813 1.04687.73438v4.01562c0 .67188.125 1.29688.3125 1.6875C2.21875-.10937 3.4375.17188 4.57813.17188c1.15625 0 2.375-.26563 2.90625-1.42188.1875-.40625.3125-1.01562.3125-1.71875v-3.98437c0-.65625.03125-.65625 1.04687-.73438v-.32812H5.60938v.32812c1.01562.07813 1.04687.07813 1.04687.73438v3.76562c0 1.09375-.1875 1.79688-.53125 2.26563-.35937.46875-.85937.6875-1.54687.6875-.67188 0-1.17188-.21875-1.53125-.6875-.34375-.46875-.51563-1.17188-.51563-2.26563v-3.76562c0-.65625.03125-.65625 1.04688-.73438v-.32812h-3.25Zm0 0"/><path id="y" d="M.375 0h2.82813v-.32812c-.82813-.0625-.875-.09375-.875-.6875v-2.71875c0-.29688.01562-.4375.10937-.625.25-.45313.76563-.84375 1.39063-.84375.78125 0 1.21875.4375 1.21875 1.45312v2.73438c0 .59375-.03125.625-.875.6875V0h2.84375v-.32812c-.82813-.0625-.875-.09375-.875-.6875v-2.95313c0-1.17187-.64063-1.85937-1.70313-1.85937-.875 0-1.40625.42187-2.10937.89062l-.17188-.89062-1.71875.29687V-5.25l.42188.0625c.29687.04688.39062.10938.39062.51563v3.65625c0 .59375-.04687.625-.875.6875Zm0 0"/><path id="z" d="M.5625-2.79687c0 1.9375.95313 2.9375 2.70313 2.9375.8125 0 1.90625-.42188 2.23437-1.67188l-.35937-.15625c-.34375.8125-.8125 1.21875-1.65625 1.21875-1.39063 0-1.70313-1.4375-1.70313-2.53125 0-1.73437.67188-2.42187 1.48438-2.42187.53125 0 .85937.39062 1.09375 1.01562.07812.1875.14062.29688.375.29688.23437 0 .67187-.15625.67187-.59375 0-.53125-.76562-1.125-2.03125-1.125-2.10937 0-2.8125 1.5-2.8125 3.03125m0 0"/><path id="A" d="M.25 0h2.8125v-.32812c-.79687-.0625-.85937-.10938-.85937-.6875v-2.71875c0-.29688 0-.4375.09375-.60938.25-.46875.78125-.85937 1.39062-.85937.79688 0 1.21875.4375 1.21875 1.45312v2.73438c0 .57812-.0625.625-.875.6875V0h2.82813v-.32812C6.0625-.39062 6-.4375 6-1.01562v-2.95313c0-1.17187-.64062-1.85937-1.71875-1.85937-.84375 0-1.375.40625-2.09375.89062v-3.60937l-.09375-.0625-1.79687.29687v.29688l.4375.04687c.29687.04688.35937.10938.35937.53125v6.42188c0 .57812-.03125.625-.84375.6875Zm0 0"/><path id="B" d="M.5625-1.5c0 .85938.57813 1.64063 1.67188 1.64063.67187 0 1.35937-.45313 1.73437-.70313.15625.4375.34375.70313.76563.70313.42187 0 .92187-.125 1.35937-.34375l-.0625-.28126c-.17187.04688-.42187.04688-.59375 0-.21875-.04687-.40625-.25-.40625-.98437v-2.8125c0-.6875-.15625-1.54687-1.90625-1.54687-1.3125 0-2.34375.6875-2.34375 1.32812 0 .35938.42188.53125.65625.53125s.29688-.10937.35938-.3125C2.0625-5.14062 2.53125-5.42187 3-5.42187c.45313 0 .96875.23437.96875 1.15625v.48437c-.29687.29688-1.40625.59375-2.32812.89063C.79688-2.625.5625-2.04687.5625-1.5m1.17188-.17187c0-.53125.25-.82813.90625-1.0625.46875-.17188 1.07812-.40625 1.32812-.5625v1.64062c0 .9375-.70312 1.17188-1.17187 1.17188-.70313 0-1.0625-.5-1.0625-1.1875m0 0"/><path id="C" d="m.29688-5.25.4375.0625c.29687.04688.375.10938.375.51563v3.0625c0 1.34375.79687 1.75 1.65625 1.75.98437 0 1.79687-.67188 2.125-.82813L5 0h1.85938v-.32812c-.79688-.0625-.875-.09375-.875-.6875V-5.75l-.07813-.07812-1.82812.29687V-5.25l.45312.0625c.29688.04688.375.10938.375.51563v2.625c0 .3125-.04687.57812-.10937.6875-.26563.53125-.8125.875-1.42188.875-.67187 0-1.17187-.42188-1.17187-1.32813V-5.75L2.125-5.82812l-1.82812.29687Zm0 0"/><path id="D" d="M.375 0h3.0625v-.32812c-1.04687-.0625-1.10937-.09375-1.10937-.6875v-2.71875c0-.875.40625-1.1875.67187-1.1875.1875 0 .375.07812.71875.25.07813.0625.17188.0625.23438.0625.28125 0 .53125-.29688.53125-.65625 0-.25-.17188-.5625-.625-.5625-.42188 0-.76563.25-1.53125.92187l-.125-.92187-1.76563.29687V-5.25l.42188.0625c.29687.04688.39062.10938.39062.51563v3.65625c0 .59375-.0625.625-.875.6875Zm0 0"/><path id="E" d="M.5625-2.73437c0 1.71875.90625 2.875 2.4375 2.875.625 0 1.15625-.28126 1.79688-.79688v.5625L4.89063 0h1.875v-.32812c-.82813-.0625-.85938-.09375-.85938-.6875v-7.53125l-.09375-.0625-1.82812.29687v.29688l.45312.03125c.29688.03125.35938.09375.35938.54687v1.89063c-.3125-.17188-.75-.28125-1.28125-.28125-.95313 0-1.67188.3125-2.14063.79687C.875-4.5.5625-3.73437.5625-2.73437m1.21875-.125c0-1.51563.54688-2.5625 1.71875-2.5625.54688 0 1 .25 1.20313.73437.09375.1875.09375.375.09375.67188v2.04687c0 .25 0 .45313-.0625.64063-.23438.60937-.75.84375-1.35938.84375-1.04687 0-1.59375-1.04688-1.59375-2.375m0 0"/><path id="F" d="M.01563 0h2.21875v-.32812L1.75-.39062c-.15625-.03125-.15625-.17188-.07812-.28125.25-.5.625-1.0625 1.01562-1.65625h.03125L3.75-.71875c.125.20313.09375.29688-.07812.32813l-.48438.0625V0h2.71875v-.32812c-.53125-.03125-.70312-.0625-1-.48438C4.375-1.57812 3.8125-2.375 3.3125-3.20312c.375-.57813.82813-1.17188 1.28125-1.70313.29688-.375.45313-.40625 1.01563-.4375v-.34375H3.4375v.34375l.46875.03125c.17188.03125.15625.15625.0625.28125-.26562.4375-.57812.92188-.92187 1.45313h-.01563L2.0625-5.03125c-.09375-.125-.0625-.26562.10938-.28125l.34375-.03125v-.34375H.09375v.34375c.46875.03125.57813.03125.85938.42188C1.4375-4.25 1.9375-3.5 2.4375-2.75 2-2.125 1.5625-1.46875 1.07813-.84375.78125-.4375.51563-.375.01563-.32812Zm0 0"/><path id="K" d="M.5625-3.96875C.5625-2.60937.96875-1.5 1.65625-.8125 2.375-.09375 3.51563.17188 4.8125.17188c.92188 0 2-.26563 2.5625-.54688l.15625-1.95312H7.1875C6.85938-1.10937 6.26563-.23437 4.73438-.23437c-2.39063 0-2.89063-2.34375-2.89063-3.75 0-1.90625.76563-3.8125 2.92188-3.8125 1.1875 0 2.01562.48437 2.23437 1.85937h.34375V-7.75c-.51562-.25-1.39062-.45312-2.45312-.45312-1.4375 0-2.57813.42187-3.28125 1.1875-.65625.75-1.04688 1.75-1.04688 3.04687m0 0"/><path id="L" d="M.35938-5.21875h.84375v4.03125c0 1.1875.875 1.32813 1.28125 1.32813.59375 0 1.14062-.29688 1.48437-.51563L3.875-.60937c-.28125.10937-.53125.14062-.82812.14062-.39063 0-.76563-.28125-.76563-1.15625v-3.59375h1.5v-.46875h-1.5v-1.45312h-.32812L1.25-5.6875H.35938Zm0 0"/><path id="k" d="M.20313 0h1.625v-.17187c-.51563-.03126-.53125-.03126-.53125-.35938v-2.9375c0-.32812.01562-.34375.53125-.375v-.17187h-1.625v.17187c.51562.03125.53125.04688.53125.375v2.9375c0 .32813-.01563.32813-.53125.35938Zm0 0"/><path id="l" d="M.1875 0h1.40625v-.17187C1.1875-.20313 1.17188-.20313 1.17188-.5v-1.35937c0-.15626 0-.23438.03124-.3125.125-.23438.375-.42188.6875-.42188.5 0 .5625.35938.5625.71875V-.5c0 .29688-.01562.29688-.4375.32813V0H3.4375v-.17187C3.01563-.20313 3-.20313 3-.5v-1.35937c0-.15626 0-.23438.04688-.3125.07812-.23438.32812-.42188.65625-.42188.35937 0 .59375.20313.59375.71875V-.5c0 .29688-.03125.29688-.45313.32813V0h1.42188v-.17187c-.40625-.03126-.4375-.03126-.4375-.32813v-1.48437c0-.59375-.3125-.92188-.85938-.92188-.46875 0-.8125.3125-1.01562.4375-.14063-.26562-.35938-.4375-.78125-.4375-.4375 0-.79688.29688-1 .4375l-.0625-.4375-.89063.14063v.14062l.21875.03125c.14063.03125.1875.04688.1875.26563V-.5c0 .29688-.01562.29688-.4375.32813Zm0 0"/><path id="m" d="M.14063 1.17188v.15624h1.5v-.15624C1.15625 1.14062 1.125 1.125 1.125.82813V-.0625c.125.0625.40625.125.67188.125.78125 0 1.4375-.35937 1.4375-1.54687 0-.42188-.0625-1.42188-1.125-1.42188-.42188 0-.75.28125-.98438.42188l-.07812-.42188-.875.14063v.14062l.21875.03125c.15625.03125.1875.04688.1875.26563V.82813c0 .29687-.01563.3125-.4375.34375M1.125-.90625v-.95312c0-.15626.03125-.23438.07813-.32813.14062-.26562.375-.40625.6875-.40625.23437 0 .75.14063.75 1.14063 0 .85937-.26563 1.3125-.84375 1.3125-.3125 0-.53125-.15625-.625-.42188C1.125-.65625 1.125-.78125 1.125-.90625m0 0"/><path id="n" d="M.1875 0h1.53125v-.17187C1.20313-.20313 1.17188-.20313 1.17188-.5v-1.35937c0-.45313.1875-.60938.32812-.60938.09375 0 .1875.04688.35938.14063.04687.01562.07812.03125.10937.03125.14063 0 .26563-.15625.26563-.32813 0-.14062-.07813-.28125-.29688-.28125s-.39062.10938-.76562.45313l-.07813-.45313-.875.14063v.14062l.21875.03125c.14063.03125.1875.04688.1875.26563V-.5c0 .29688-.03125.29688-.4375.32813Zm0 0"/><path id="o" d="M.28125-1.42187C.28125-.48437.75.0625 1.67188.0625c.9375 0 1.39062-.54687 1.39062-1.48437s-.45312-1.48438-1.39062-1.48438c-.92188 0-1.39063.54688-1.39063 1.48438m.60938 0c0-.79688.25-1.28125.78125-1.28125s.79687.48437.79687 1.28125c0 .79687-.26562 1.28125-.79687 1.28125S.89063-.625.89063-1.42187m0 0"/><path id="p" d="M.125-4.01562.34375-4c.14063.03125.1875.0625.1875.28125v3.75L.625.0625l.23438-.21875c.20312.125.45312.21875.875.21875.78125 0 1.45312-.35937 1.45312-1.54687 0-.35938-.07812-1.42188-1.125-1.42188-.4375 0-.78125.28125-1 .40625v-1.76562l-.03125-.03125-.90625.14062ZM1.0625-.9375v-.92187c0-.15626.01563-.23438.0625-.32813.14063-.28125.375-.40625.70313-.40625.25 0 .75.125.75 1.14063 0 .85937-.25 1.3125-.82813 1.3125-.3125 0-.53125-.15625-.64062-.4375C1.07812-.6875 1.0625-.79688 1.0625-.9375m0 0"/><path id="q" d="M.28125-.75c0 .42188.29688.8125.82813.8125.34375 0 .6875-.21875.875-.34375.07812.21875.17187.34375.375.34375.21875 0 .46875-.0625.6875-.17187l-.03125-.125c-.07813.01562-.21875.01562-.29688 0-.10937-.03126-.20312-.14063-.20312-.5v-1.40625c0-.34375-.07813-.76563-.95313-.76563-.65625 0-1.17187.32813-1.17187.65625 0 .1875.21875.26563.32812.26563.125 0 .15625-.0625.1875-.15626.125-.4375.35938-.5625.59375-.5625s.48438.10938.48438.57813v.23438c-.14063.15624-.70313.29687-1.15625.45312-.42188.125-.54688.40625-.54688.6875M.875-.82812c0-.28126.125-.42188.45313-.54688.23437-.07812.53125-.1875.65625-.26562v.8125c0 .46875-.35938.59375-.57813.59375C1.04688-.23437.875-.5.875-.82812m0 0"/><path id="r" d="M.125 0h1.40625v-.17187c-.42187-.03126-.4375-.03126-.4375-.32813v-3.76562l-.03125-.03125-.92187.14062v.14063L.35938-4c.15625.03125.1875.0625.1875.28125V-.5c0 .29688-.01563.29688-.42188.32813Zm0 0"/><path id="s" d="M.28125-1.40625C.28125-.48437.67188.0625 1.625.0625c.64063 0 .96875-.35937 1.125-.8125l-.17187-.09375c-.15625.34375-.375.60938-.84375.60938-.71875 0-.85938-.6875-.84375-1.29688H2.5625c.125 0 .23438-.03125.23438-.21875 0-.34375-.125-1.15625-1.1875-1.15625-.90625 0-1.32813.64063-1.32813 1.5M.89063-1.75c0-.23437.09374-.95312.70312-.95312.53125 0 .59375.54687.59375.76562 0 .10938-.04687.1875-.20312.1875Zm0 0"/><path id="t" d="M.20313 0h1.70312v-.17187c-.59375-.03126-.60937-.03126-.60937-.35938v-1.10937H1.625c.26563 0 .53125-.03126.75-.07813.4375-.125.95313-.42187.95313-1.15625 0-.4375-.1875-.75-.45313-.90625-.28125-.17187-.64062-.23437-1.04687-.23437h-1.625v.17187c.51562.03125.53125.04688.53125.375v2.9375c0 .32813-.01563.32813-.53125.35938Zm1.09375-2.07812v-1.51563c0-.17187.0625-.21875.4375-.21875.60937 0 .96875.34375.96875.96875 0 .73438-.46875.98438-.96875.98438-.34375 0-.4375 0-.4375-.21876m0 0"/><path id="u" d="m.14063-2.625.23437.03125c.14063.03125.1875.04688.1875.26563v1.53125c0 .65625.39063.85937.8125.85937.5 0 .90625-.32812 1.0625-.40625L2.5 0h.9375v-.17187C3.03125-.20313 3-.20313 3-.5v-2.375l-.04687-.03125-.90625.14063v.14062l.21875.03125c.14062.03125.1875.04688.1875.26563v1.29687c0 .17188-.01563.29688-.04688.35938-.14062.26562-.40625.4375-.71875.4375-.32812 0-.57812-.21875-.57812-.67188V-2.875l-.04688-.03125-.92187.14063Zm0 0"/><path id="G" d="M.125-3.04687h.17188c.07812-.625.20312-.76563.875-.76563h.34375v3.28125c0 .32813-.01563.32813-.64063.35938V0h1.85938v-.17187c-.625-.03126-.64063-.03126-.64063-.35938V-3.8125h.34375c.67188 0 .79688.14063.85938.76563h.17187v-.96875H.125Zm0 0"/><path id="H" d="M.70313-3.9375c0 .10938.15624.21875.32812.3125l.875.48438.07813-.125-.6875-.6875c-.17188-.1875-.26563-.25-.375-.25-.07813 0-.21876.14062-.21876.26562M.28125-1.40625C.28125-.48437.67188.0625 1.625.0625c.64063 0 .96875-.35937 1.125-.8125l-.17187-.09375c-.15625.34375-.375.60938-.84375.60938-.71875 0-.85938-.6875-.84375-1.29688H2.5625c.125 0 .23438-.03125.23438-.21875 0-.34375-.125-1.15625-1.1875-1.15625-.90625 0-1.32813.64063-1.32813 1.5M.89063-1.75c0-.23437.09374-.95312.70312-.95312.53125 0 .59375.54687.59375.76562 0 .10938-.04687.1875-.20312.1875Zm0 0"/><path id="I" d="m.26563-.96875.0625.76563c.21875.17187.5625.26562.90625.26562.6875 0 1.09375-.35937 1.09375-.85937S2-1.53125 1.40625-1.71875c-.23437-.07812-.60937-.1875-.60937-.51562 0-.3125.21874-.46875.51562-.46875.40625 0 .60938.3125.65625.67187H2.125v-.6875c-.1875-.14062-.48437-.1875-.75-.1875-.625 0-1.04687.29688-1.04687.84375 0 .46875.39062.6875.875.84375.26562.07813.625.20313.625.59375 0 .29688-.23438.48438-.53125.48438-.46875 0-.73438-.32813-.85938-.82813Zm0 0"/></defs><path fill="none" stroke="#000" stroke-miterlimit="10" stroke-width=".39505" d="M35.3711 39.9336h569.0428M35.3711 47.83594V32.03125"/><use xlink:href="#a" x="32.29618" y="60.08829"/><use xlink:href="#b" x="6.42609" y="25.00267" fill="red"/><g fill="red"><use xlink:href="#c" x="10.26554" y="25.00267"/><use xlink:href="#d" x="20.96908" y="25.00267"/><use xlink:href="#e" x="28.01836" y="25.00267"/><use xlink:href="#f" x="34.70962" y="25.00267"/><use xlink:href="#f" x="39.75893" y="25.00267"/><use xlink:href="#g" x="44.80823" y="25.00267"/><use xlink:href="#h" x="48.17855" y="25.00267"/><use xlink:href="#i" x="55.11672" y="25.00267"/><use xlink:href="#j" x="58.35124" y="25.00267"/></g><use xlink:href="#k" x="114.7472" y="26.33603" fill="#F30"/><g fill="#F30"><use xlink:href="#l" x="116.66692" y="26.33603"/><use xlink:href="#m" x="122.01869" y="26.33603"/><use xlink:href="#n" x="125.54333" y="26.33603"/></g><g fill="#F30"><use xlink:href="#o" x="127.75935" y="26.33603"/><use xlink:href="#p" x="131.10498" y="26.33603"/><use xlink:href="#q" x="134.57406" y="26.33603"/><use xlink:href="#p" x="137.60488" y="26.33603"/><use xlink:href="#r" x="141.07396" y="26.33603"/><use xlink:href="#s" x="142.69122" y="26.33603"/></g><use xlink:href="#t" x="207.66977" y="26.33603" fill="#FF5900"/><g fill="#FF5900"><use xlink:href="#s" x="210.97836" y="26.33603"/><use xlink:href="#u" x="213.9598" y="26.33603"/></g><g fill="#FF5900"><use xlink:href="#m" x="218.77454" y="26.33603"/><use xlink:href="#n" x="222.29918" y="26.33603"/></g><g fill="#FF5900"><use xlink:href="#o" x="224.5152" y="26.33603"/><use xlink:href="#p" x="227.86082" y="26.33603"/><use xlink:href="#q" x="231.32991" y="26.33603"/><use xlink:href="#p" x="234.36073" y="26.33603"/><use xlink:href="#r" x="237.82981" y="26.33603"/><use xlink:href="#s" x="239.44707" y="26.33603"/></g><path fill="none" stroke="#000" stroke-miterlimit="10" stroke-width=".39505" d="M319.89054 47.83594V32.03125"/><use xlink:href="#a" x="311.51793" y="60.08829"/><use xlink:href="#v" x="317.66599" y="60.08829"/><use xlink:href="#w" x="322.11037" y="60.08829"/><use xlink:href="#x" x="288.79733" y="12.71918" fill="#FF7F00"/><g fill="#FF7F00"><use xlink:href="#y" x="297.50091" y="12.71918"/><use xlink:href="#j" x="304.67364" y="12.71918"/></g><g fill="#FF7F00"><use xlink:href="#z" x="313.24142" y="12.71918"/><use xlink:href="#A" x="318.99442" y="12.71918"/><use xlink:href="#B" x="326.03135" y="12.71918"/><use xlink:href="#y" x="332.09299" y="12.71918"/><use xlink:href="#z" x="339.26572" y="12.71918"/><use xlink:href="#j" x="345.01872" y="12.71918"/></g><g fill="#FF7F00"><use xlink:href="#f" x="297.51868" y="27.53357"/><use xlink:href="#C" x="302.56799" y="27.53357"/><use xlink:href="#D" x="309.59257" y="27.53357"/></g><g fill="#FF7F00"><use xlink:href="#E" x="316.70358" y="27.53357"/><use xlink:href="#j" x="323.64175" y="27.53357"/><use xlink:href="#C" x="329.60462" y="27.53357"/><use xlink:href="#F" x="336.62921" y="27.53357"/></g><use xlink:href="#t" x="402.95745" y="27.60197" fill="#997F33"/><use xlink:href="#n" x="406.37098" y="27.60197" fill="#997F33"/><g fill="#997F33"><use xlink:href="#o" x="408.587" y="27.60197"/><use xlink:href="#p" x="411.93263" y="27.60197"/><use xlink:href="#q" x="415.40171" y="27.60197"/><use xlink:href="#p" x="418.43253" y="27.60197"/><use xlink:href="#r" x="421.90162" y="27.60197"/><use xlink:href="#s" x="423.51888" y="27.60197"/></g><use xlink:href="#G" x="491.64897" y="27.91722" fill="#4C7F59"/><g fill="#4C7F59"><use xlink:href="#n" x="494.77238" y="27.91722"/><use xlink:href="#H" x="497.02544" y="27.91722"/><use xlink:href="#I" x="500.00687" y="27.91722"/></g><g fill="#4C7F59"><use xlink:href="#m" x="503.83398" y="27.91722"/><use xlink:href="#n" x="507.35861" y="27.91722"/></g><g fill="#4C7F59"><use xlink:href="#o" x="509.57463" y="27.91722"/><use xlink:href="#p" x="512.92026" y="27.91722"/><use xlink:href="#q" x="516.38935" y="27.91722"/><use xlink:href="#p" x="519.42016" y="27.91722"/><use xlink:href="#r" x="522.88925" y="27.91722"/><use xlink:href="#s" x="524.50651" y="27.91722"/></g><path fill="none" stroke="#000" stroke-miterlimit="10" stroke-width=".39505" d="M604.4139 47.83594V32.03125"/><use xlink:href="#J" x="601.33417" y="60.08829"/><use xlink:href="#K" x="584.93338" y="27.49689" fill="#007F7F"/><g fill="#007F7F"><use xlink:href="#j" x="592.72339" y="27.49689"/><use xlink:href="#D" x="598.68627" y="27.49689"/></g><g fill="#007F7F"><use xlink:href="#L" x="603.29114" y="27.49689"/><use xlink:href="#B" x="607.27873" y="27.49689"/><use xlink:href="#g" x="613.34037" y="27.49689"/><use xlink:href="#y" x="616.71069" y="27.49689"/></g></svg>