<svg xmlns="http://www.w3.org/2000/svg" xmlns:xlink="http://www.w3.org/1999/xlink" width="518.843pt" height="50.937pt" viewBox="0 0 518.843 50.937"><defs><path id="a" d="M-.09375-5.57812c.4375.01562.53125.07812.65625.4375L2.28125 0h1.07813L4.375-2.96875c.3125-.9375.60938-1.76562.73438-2.09375.17187-.40625.25-.46875.73437-.51562v-.3125H3.85938v.3125l.48437.04687c.17188.01563.1875.10938.14063.28125-.07813.28125-.26563.98438-.53125 1.78125-.17188.51563-.53125 1.76563-.6875 2.20313h-.04688L1.9375-5.21875c-.04687-.1875-.04687-.29687.15625-.3125L2.5-5.57812v-.3125H-.09375Zm0 0"/><path id="b" d="M.40625-1.14062C.40625-.5.8125.09374 1.67188.09374c.54687 0 .92187-.28125 1.23437-.48437.10938.26562.25.48437.67188.48437.4375 0 .96875-.14062 1.25-.25L4.8125-.4375c-.10937.01563-.29687 0-.42187-.04687-.10938-.03125-.28125-.125-.28125-.625v-1.96875c0-.53125-.0625-1.20313-1.57813-1.20313-1.25 0-2.03125.5-2.03125 1.0625 0 .35938.54688.53125.76563.53125.1875 0 .28124-.14062.35937-.34375.23438-.73437.51563-.85937.76563-.85937.23437 0 .46875.14062.46875.64062v.45313c-.29688.20312-1 .40625-1.54688.59375-.67187.23437-.90625.57812-.90625 1.0625m1.29688-.14063c0-.39062.14062-.59375.40625-.73437.25-.15625.54687-.26563.75-.35938v1.23438c-.01563.45312-.28125.57812-.51563.57812-.32812 0-.64062-.26562-.64062-.71875m0 0"/><path id="c" d="M.20313 0h2.39062v-.32812C2.10938-.35937 2.0625-.39062 2.0625-.75v-5.51562l-.07812-.04688-1.71875.21875v.3125l.29687.04688c.14063.03125.20313.09375.20313.4375V-.75c0 .35938-.0625.39063-.5625.42188Zm0 0"/><path id="d" d="M.32813-2.07812c0 1.15625.51562 2.17187 2.09375 2.17187 1.01562 0 1.5625-.48437 1.85937-1.23437l-.3125-.17188c-.25.48438-.60937.76563-1.125.76563-.85937 0-1.15625-.70313-1.15625-1.59375h2.20313c.3125 0 .45312-.09375.45312-.35938 0-.70312-.26562-1.78125-1.90625-1.78125-1.53125 0-2.10937 1-2.10937 2.20313M1.6875-2.5625c0-.60937.15625-1.32812.71875-1.32812.51563 0 .60938.65625.60938 1.04687 0 .25-.0625.28125-.26563.28125Zm0 0"/><path id="e" d="m.25-3.71875.29688.04688C.6875-3.65625.75-3.59375.75-3.25v2.07813C.75-.1875 1.35938.09374 1.96875.09374c.73438 0 1.17188-.39062 1.51563-.57812L3.5625 0h1.76563v-.32812c-.48438-.03125-.54688-.0625-.54688-.42188v-3.46875l-.0625-.0625-1.73437.25v.3125l.3125.04688c.125.01562.1875.07812.1875.42187v1.79688c0 .14062 0 .35937-.0625.48437-.07813.20313-.29688.39063-.67188.39063-.45312 0-.71875-.25-.71875-.92188v-2.71875l-.0625-.0625-1.71875.25Zm0 0"/><path id="f" d="M.26563 0h2.57812v-.32812C2.1875-.35937 2.10938-.39062 2.10938-.75v-1.89062c0-.4375.07812-.65625.28125-.65625.14062 0 .26562.07812.45312.1875.10938.07812.23438.14062.39063.14062.17187 0 .34375-.09375.4375-.21875s.14062-.29687.14062-.48437c0-.375-.23437-.60938-.59375-.60938-.35937 0-.625.23438-1.125.75l-.125-.75-1.65625.25v.3125l.29688.04688c.14062.01562.21874.07812.21874.42187v2.5c0 .35938-.0625.39063-.5625.42188Zm0 0"/><path id="g" d="M.26563 0H2.5625v-.32812l-.17187-.01563c-.17188-.01562-.28125-.04687-.28125-.32812v-1.96875c0-.73438.42187-.98438.79687-.98438.40625 0 .60938.35938.60938.82813v2.125c0 .28124-.09375.3125-.28125.32812l-.17188.01563V0H5.25v-.32812l-.17187-.01563c-.17188-.01562-.26563-.04687-.26563-.32812v-1.96875c0-.73438.375-.98438.75-.98438.42188 0 .64063.35938.64063.82813v2.125c0 .28124-.07813.3125-.26563.32812L5.75-.32812V0h2.29688v-.32812C7.5625-.35937 7.5-.39062 7.5-.75v-2.20312c0-.79688-.4375-1.32813-1.34375-1.32813-.57812 0-1.125.40625-1.48437.64063-.17188-.29688-.51563-.64063-1.14063-.64063-.5625 0-.95312.29688-1.42187.59375L2-4.28125l-1.6875.25v.3125l.29688.04688c.14062.01562.21874.07812.21874.42187v2.5c0 .35938-.0625.39063-.5625.42188Zm0 0"/><path id="h" d="M.64063-5.39062c0 .40625.29687.75.76562.75.48438 0 .8125-.34375.8125-.75s-.3125-.75-.8125-.75c-.46875 0-.76562.34375-.76562.75M.26563 0h2.40625v-.32812c-.48438-.03125-.5625-.0625-.5625-.42188v-3.46875l-.04688-.0625-1.75.25v.3125l.29688.04688c.14062.01562.21874.07812.21874.42187v2.5c0 .35938-.0625.39063-.5625.42188Zm0 0"/><path id="i" d="M.26563 0H2.5625v-.32812l-.17187-.01563c-.17188-.01562-.28125-.04687-.28125-.32812v-2.03125c0-.1875.03125-.375.09375-.5.10937-.21875.32812-.42188.6875-.42188.4375 0 .65625.26563.6875.78125v2.17188c0 .28124-.09375.3125-.28125.32812L3.125-.32812V0h2.28125v-.32812c-.48437-.03125-.5625-.0625-.5625-.42188v-2.21875c0-.79687-.39062-1.3125-1.26562-1.3125-.5 0-.90625.25-1.46875.59375L2-4.28125l-1.6875.25v.3125l.29688.04688c.14062.01562.21874.07812.21874.42187v2.5c0 .35938-.0625.39063-.5625.42188Zm0 0"/><path id="n" d="M.32813 0H3.1875v-.3125c-.76562-.04687-.8125-.07812-.8125-.51562v-1.51563h.5c.79688 0 1.4375-.15625 1.8125-.42187.4375-.3125.67188-.76563.67188-1.40625 0-.67188-.29688-1.14063-.71875-1.40625-.42188-.25-.98438-.3125-1.67188-.3125H.32813v.3125C.9375-5.54687 1-5.5 1-5.0625v4.23438c0 .4375-.0625.46875-.67187.5ZM2.375-3.09375V-5.1875c0-.23437.04688-.3125.48438-.3125.57812 0 1.0625.375 1.0625 1.35938 0 .64062-.21875 1.40625-1.07813 1.40625-.32812 0-.46875-.03125-.46875-.35938m0 0"/><path id="o" d="M.32813-2c0 1.23438.67187 2.09375 1.75 2.09375.39062 0 .76562-.10937 1.21875-.5v1.625c0 .34375-.07813.39063-.64063.40625v.32813H5.125V1.625c-.5-.01562-.5625-.0625-.5625-.40625v-5.5h-.39062l-.35938.26563c-.29687-.15625-.71875-.26563-1.20312-.26563-.67188 0-1.26563.1875-1.64063.5625C.59375-3.35937.32813-2.8125.32813-2m1.35937-.1875c0-1.14062.4375-1.70312.96875-1.70312.34375 0 .51563.1875.59375.45312.04688.10938.04688.26563.04688.42188v1.71875c0 .34375-.125.75-.6875.75-.54688 0-.92188-.54688-.92188-1.64063m0 0"/><path id="p" d="M.3125-3.75h.5V-1c0 .78125.57813 1.09375 1.04688 1.09375.35937 0 .89062-.14062 1.35937-.45312L3.14063-.625c-.125.04688-.29688.09375-.48438.09375-.32812 0-.54687-.25-.54687-.79687V-3.75h.875v-.42187h-.875V-5.25h-.5l-.75 1.07813H.3125Zm0 0"/><path id="s" d="M.26563 0h2.03125v-.32812l-.45313-.03125C1.60938-.375 1.51563-.51562 1.48438-.8125c-.03126-.3125-.03126-.64062-.03126-1.32812v-2.90625h.03126l1.8125 4.89062h.51562l1.78125-4.89062H5.625v4.21875c0 .4375-.0625.46875-.67187.5V0h2.625v-.32812c-.59375-.03125-.65625-.0625-.65625-.5V-5.0625c0-.4375.0625-.48437.65625-.51562v-.3125h-2.1875c-.15625.40625-.45313 1.23437-.6875 1.85937l-.71875 2h-.03125l-1-2.60937c-.14063-.375-.34375-.89063-.45313-1.25H.25v.3125c.60938.03125.67188.07812.67188.51562v2.92188c0 .6875 0 1.03125-.04688 1.32812-.01562.29688-.10937.42188-.29687.45313l-.3125.03125Zm0 0"/><path id="t" d="m1.65625-4.60937.17188.26562 1.5625-.89062c.3125-.17188.57812-.34375.57812-.5625s-.23437-.51563-.4375-.51563c-.17187 0-.32812.10938-.64062.4375ZM.32813-2.07812c0 1.15625.51562 2.17187 2.09375 2.17187 1.01562 0 1.5625-.48437 1.85937-1.23437l-.3125-.17188c-.25.48438-.60937.76563-1.125.76563-.85937 0-1.15625-.70313-1.15625-1.59375h2.20313c.3125 0 .45312-.09375.45312-.35938 0-.70312-.26562-1.78125-1.90625-1.78125-1.53125 0-2.10937 1-2.10937 2.20313M1.6875-2.5625c0-.60937.15625-1.32812.71875-1.32812.51563 0 .60938.65625.60938 1.04687 0 .25-.0625.28125-.26563.28125Zm0 0"/><path id="u" d="M.32813-2.01562c0 1.25.65625 2.10937 1.73437 2.10937.3125 0 .76563-.15625 1.23438-.51562V0H5.125v-.32812c-.5-.03125-.5625-.0625-.5625-.42188v-5.51562l-.04687-.04688-1.73438.21875v.3125l.29688.04688c.14062.03125.21875.09375.21875.4375v1.125c-.20313-.07813-.4375-.10938-.73438-.10938-.625 0-1.20312.1875-1.59375.5625-.39062.35938-.64062.9375-.64062 1.70313M1.6875-2.1875c0-1.25.46875-1.70312.95313-1.70312.32812 0 .5.17187.57812.34375.07813.125.07813.3125.07813.5v1.75c0 .34375-.14063.75-.67188.75-.5625 0-.9375-.54688-.9375-1.64063m0 0"/><path id="w" d="M.17188-4.29687H.5C.78125-5.14062.89063-5.5 1.67188-5.5h.34375v4.6875c0 .3125-.0625.4375-.32813.45313l-.48437.03125V0h3v-.32812l-.48438-.03125C3.45313-.375 3.375-.5 3.375-.8125V-5.5h.35938c.78125 0 .89062.35938 1.1875 1.20313h.3125v-1.59375H.17188Zm0 0"/><path id="x" d="M.32813-2.07812c0 1.35937.65625 2.17187 2.20312 2.17187 1.5625 0 2.21875-.8125 2.21875-2.17187s-.65625-2.20313-2.21875-2.20313c-1.54687 0-2.20312.84375-2.20312 2.20313m1.35937 0c0-1.14063.25-1.8125.84375-1.8125.60938 0 .85938.67187.85938 1.8125 0 1.14062-.25 1.78125-.85938 1.78125-.59375 0-.84375-.64063-.84375-1.78125m0 0"/><path id="y" d="M.375-1.57812.46875-.3125c.32813.29688.96875.40625 1.45313.40625 1.04687 0 1.75-.45312 1.75-1.375 0-.73437-.46875-1.07812-1.25-1.39062-.5-.17188-.85938-.375-.85938-.71875 0-.26563.1875-.5.54688-.5.42187 0 .79687.40625.95312 1.04687h.3125v-1.14062c-.34375-.21875-.82812-.29688-1.26562-.29688-1.04688 0-1.6875.5-1.6875 1.35938 0 .625.5 1.01562 1.25 1.29687.4375.15625.85937.40625.85937.8125 0 .32813-.21875.51563-.59375.51563C1.375-.29687.92188-.875.70313-1.57812Zm0 0"/><path id="z" d="M.32813-2.07812c0 1.15625.51562 2.17187 2.09375 2.17187 1.01562 0 1.5625-.48437 1.85937-1.23437l-.3125-.17188c-.25.48438-.60937.76563-1.125.76563-.85937 0-1.15625-.70313-1.15625-1.59375h2.20313c.3125 0 .45312-.09375.45312-.35938 0-.70312-.26562-1.78125-1.90625-1.78125-1.53125 0-2.10937 1-2.10937 2.20313M1.6875-2.5625c0-.60937.15625-1.32812.71875-1.32812.51563 0 .60938.65625.60938 1.04687 0 .25-.0625.28125-.26563.28125Zm-.75-3.23437c0 .21875.28125.39062.57813.5625l1.5625.89062.1875-.26562-1.25-1.26563c-.3125-.32812-.45313-.4375-.625-.4375-.20313 0-.45313.29688-.45313.51563m0 0"/><path id="B" d="M-.07812 0h1.875v-.32812L1.5-.35937C1.375-.375 1.34375-.46875 1.4375-.625l.57813-.92187h.03125l.625.95312c.09375.15625.01562.21875-.125.23438L2.375-.32812V0h2.35938v-.32812c-.35938-.03125-.51563-.09375-.75-.42188-.40625-.54687-.8125-1.125-1.21875-1.71875.32812-.4375.65625-.76562.95312-1.07812.20313-.20313.375-.3125.71875-.3125v-.3125H2.75v.3125l.23438.03125c.10937.01562.14062.09375.03125.23437l-.5.76563H2.5l-.53125-.8125c-.0625-.07813-.0625-.15625.04688-.17188l.20312-.04687v-.3125H-.01562v.3125c.375.04687.46875.09375.64062.32812C.98438-3.0625 1.34375-2.5 1.76563-1.9375 1.4375-1.51562 1.125-1.10937.78125-.75c-.26562.3125-.42187.375-.85937.42188Zm0 0"/><path id="j" d="M.29688-.35937c0 .25.20312.45312.57812.45312.5625 0 .89063-.53125 1.23438-1.10937l.3125-.5625h.03125l.14062.65625C2.75-.26562 2.92188.09374 3.375.09374c.67188 0 1.03125-.67187 1.29688-1.23437l-.23438-.125c-.20312.40625-.45312.85937-.6875.85937-.15625 0-.21875-.17187-.39062-.82812L3.0625-2.45312c.29688-.5.6875-1.125.92188-1.125.25 0 .29687.15625.5625.15625.1875 0 .39062-.20313.39062-.45313 0-.28125-.21875-.40625-.45312-.40625-.4375 0-.8125.35938-1.10938.84375l-.39062.57813h-.01563l-.32812-1.375-.04688-.04688-1.48437.42188.01562.23437.625-.04687c.15625 0 .21875.0625.29688.39062l.3125 1.26563-.23438.42187c-.32812.5625-.625.98438-.8125.98438-.26562 0-.34375-.21876-.60937-.21876-.23438 0-.40625.23438-.40625.46876m0 0"/><path id="q" d="M.59375-2.28125c0 1.25.65625 2.1875 2 2.375.35938.71875 1.1875 1.60938 2.3125 1.60938.23438 0 .51563-.04688.67188-.14063l-.01563-.15625C4.78125 1.39063 4.14063.75 3.70313.07813 5.5-.20313 6.375-2.01562 6.375-3.53125c0-1.75-1.0625-2.5-2.48437-2.5-2.21875 0-3.29688 2-3.29688 3.75m1.01563.40625c0-1.5.73437-3.82812 2.34375-3.82812.89062 0 1.39062.5625 1.39062 1.64062 0 1.89063-.89062 3.85938-2.3125 3.85938-.875 0-1.42187-.5625-1.42187-1.67188m0 0"/><path id="k" d="M.1875 0h1.48438v-.17187c-.4375-.03126-.45313-.04688-.45313-.35938v-1.42187c0-.15626 0-.23438.04688-.32813.125-.23437.39062-.4375.71875-.4375.53125 0 .59375.375.59375.75v1.4375c0 .3125-.01563.32813-.46875.35938V0h1.48437v-.17187c-.4375-.03126-.45312-.04688-.45312-.35938v-1.42187c0-.15626.01562-.23438.04687-.32813.09375-.25.34375-.4375.6875-.4375.39063 0 .625.20313.625.75v1.4375c0 .3125-.03125.32813-.46875.35938V0h1.5v-.17187c-.4375-.03126-.46875-.04688-.46875-.35938v-1.54687c0-.625-.32812-.96875-.90625-.96875-.5 0-.84375.32812-1.0625.45312-.15625-.28125-.39062-.45312-.8125-.45312-.46875 0-.84375.29687-1.0625.45312l-.04687-.45312-.95313.15625V-2.75l.23438.03125c.15625.03125.20312.04688.20312.28125v1.90625c0 .3125-.01562.32813-.46875.35938Zm0 0"/><path id="l" d="M.5625-3.98437c0 .21875.15625.375.375.375s.35938-.15625.35938-.375-.14063-.35938-.35938-.35938-.375.14063-.375.35938M.1875 0h1.48438v-.17187c-.4375-.03126-.45313-.04688-.45313-.35938v-2.48437l-.04687-.03125-.95313.15625V-2.75l.23438.03125c.15625.03125.20312.04688.20312.28125v1.90625c0 .3125-.01562.32813-.46875.35938Zm0 0"/><path id="m" d="M.1875 0h1.48438v-.17187c-.4375-.03126-.45313-.04688-.45313-.35938v-1.42187c0-.15626.01563-.23438.0625-.32813.125-.23437.40625-.4375.71875-.4375.42188 0 .64063.21875.64063.75v1.4375c0 .3125-.01563.32813-.45313.35938V0h1.48438v-.17187c-.4375-.03126-.45313-.04688-.45313-.35938v-1.54687c0-.625-.34375-.96875-.89062-.96875-.45313 0-.73438.21875-1.10938.45312L1.125-3.04687l-.90625.15625V-2.75l.23438.03125c.15625.03125.20312.04688.20312.28125v1.90625c0 .3125-.01562.32813-.46875.35938Zm0 0"/><path id="C" d="M.29688-.79687c0 .45312.3125.875.875.875.35937 0 .70312-.23438.90625-.375.07812.23437.1875.375.40625.375S2.96875 0 3.20313-.10937L3.15625-.25c-.07812.01563-.21875.03125-.3125 0C2.73438-.28125 2.625-.39062 2.625-.76562V-2.25c0-.34375-.0625-.79687-.98437-.79687-.6875 0-1.23438.34375-1.23438.6875 0 .1875.23438.28125.34375.28125.125 0 .15625-.0625.1875-.17188.14063-.45312.39063-.59375.64063-.59375.23437 0 .5.125.5.60938v.25c-.15625.15624-.73438.3125-1.21875.46875-.4375.14062-.5625.4375-.5625.71875M.90625-.875c0-.28125.14063-.4375.48438-.5625.23437-.09375.5625-.20312.6875-.29687v.875c0 .48437-.375.60937-.60938.60937-.375 0-.5625-.26562-.5625-.625m0 0"/><path id="D" d="M0 0h1.17188v-.17187l-.25-.03126C.82812-.21874.82812-.29686.875-.35936c.14063-.25.32813-.54688.53125-.85938h.01563l.54687.84375c.0625.10938.04688.15625-.04687.17188l-.25.03124V0h1.42187v-.17187c-.26562-.01563-.375-.03126-.53125-.25C2.29688-.82812 2-1.25 1.73438-1.67187c.20312-.3125.4375-.625.67187-.90625.15625-.1875.23438-.20313.53125-.21875v-.1875h-1.125v.1875l.23438.01562c.09375.01563.07812.07813.03125.14063a18.75 18.75 0 0 1-.48438.76562l-.51562-.75c-.04688-.07812-.03126-.15625.0625-.15625l.17187-.01562v-.1875H.04688v.1875c.25.01562.29687.01562.45312.21875.25.35937.51563.75.78125 1.14062-.23437.32813-.46875.67188-.71875 1-.15625.21875-.29687.25-.5625.26563Zm0 0"/><path id="r" d="M.65625 0h2.07813v-.20312l-.46875-.03126C2.125-.25 2.0625-.29687 2.0625-.51561v-3.57813l-.04687-.04687-1.34375.23437v.17188l.48437.0625c.125.03125.17188.07812.17188.26562v2.89063c0 .21874-.0625.26562-.20313.28124l-.46875.03126Zm0 0"/><path id="v" d="M.1875-.07812.26563 0h2.625L3.125-.92187l-.20312-.03126c-.14063.32813-.25.375-.5.375H.875c.09375-.28124.375-.67187 1-1.04687.64063-.40625 1.0625-.70312 1.0625-1.35937 0-.85938-.57812-1.15625-1.28125-1.15625-.8125 0-1.32812.45312-1.32812.875 0 .23437.26562.34375.42187.34375.10938 0 .17188-.0625.20313-.20313.09374-.4375.32812-.76562.67187-.76562.39063 0 .51563.34375.51563.78125 0 .53125-.21875.95312-.8125 1.45312C.53125-.98437.26563-.53125.1875-.07812m0 0"/><path id="A" d="M.1875-.67187c0 .25.35938.75 1.32813.75.92187 0 1.5-.4375 1.5-1.21875 0-.84375-.73438-1.04688-1.01563-1.07813V-2.25c.32813-.0625.84375-.28125.84375-.875 0-.75-.625-1.01562-1.26562-1.01562-.76563 0-1.25.42187-1.25.76562 0 .21875.26562.32813.375.32813s.15624-.04688.20312-.15625c.125-.4375.32813-.6875.64063-.6875.4375 0 .53125.4375.53125.73437 0 .29688-.07813.82813-.57813.82813-.26562 0-.45312-.07813-.54687-.07813-.10938 0-.14063.07813-.14063.20313S.84375-2 .95313-2c.09374 0 .28124-.0625.54687-.0625.42188 0 .71875.3125.71875.9375 0 .67188-.28125.95313-.6875.95313-.34375 0-.57812-.25-.71875-.6875-.04687-.125-.10937-.1875-.21875-.1875-.17187 0-.40625.14062-.40625.375m0 0"/><path id="E" d="m.125-1.21875.09375.14063H1.8125v.625c0 .17187-.0625.20312-.1875.21875l-.39062.03124V0h1.71875v-.20312l-.28125-.01563c-.125-.03125-.15625-.0625-.15625-.23437v-.625H3.125v-.34375h-.60937V-4.0625h-.59375C1.3125-3.17187.67188-2.15625.125-1.21875m.53125-.20312c.32813-.60938.73438-1.28125 1.15625-1.96875v1.96875Zm0 0"/><path id="F" d="M.29688-1.42187c0 .89062.46875 1.5 1.28125 1.5.32812 0 .60937-.15625.9375-.42188v.29688L2.5625 0h.98438v-.17187c-.4375-.03126-.45313-.04688-.45313-.35938v-3.9375l-.04687-.04687-.95313.15625v.15625l.23438.01562c.15625.01563.1875.04688.1875.28125v1C2.34375-3 2.125-3.04687 1.84375-3.04687c-.5 0-.875.15625-1.125.42187-.26562.26563-.42187.67188-.42187 1.20313M.9375-1.5c0-.79687.28125-1.34375.90625-1.34375.28125 0 .51563.14063.625.39063.04688.09375.04688.1875.04688.34375v1.07812c0 .125 0 .23438-.03125.34375-.125.3125-.39063.4375-.71875.4375C1.21875-.25.9375-.79687.9375-1.5m0 0"/><path id="G" d="M.29688-1.46875C.29688-.5.71875.07813 1.70313.07813c.67187 0 1.01562-.375 1.1875-.85938L2.70313-.875c-.17188.34375-.40625.64063-.875.64063-.76563 0-.90625-.73438-.89063-1.35938h1.75c.125 0 .23438-.03125.23438-.23437 0-.35938-.10938-1.21875-1.23438-1.21875-.9375 0-1.39062.67187-1.39062 1.57812m.64062-.35937c0-.25.09375-1.01563.71875-1.01563.5625 0 .64063.57813.64063.8125 0 .125-.04688.20313-.21875.20313Zm0 0"/><path id="H" d="M.125 0h1.48438v-.17187c-.4375-.03126-.45313-.04688-.45313-.35938v-3.9375l-.04687-.04687-.95313.15625v.15625L.375-4.1875c.15625.01563.20313.04688.20313.28125v3.375c0 .3125-.01563.32813-.45313.35938Zm0 0"/><path id="I" d="m.4375-2.96875.10938.09375c.29687-.28125.71875-.6875.71875-1.10937 0-.34375-.20313-.53125-.40625-.53125-.1875 0-.29688.14062-.29688.29687 0 .21875.20313.34375.20313.57813 0 .21875-.14063.45312-.32813.67187m0 0"/><path id="J" d="M.1875-2.73437h.46875v2.20312c0 .3125-.01562.32813-.46875.35938V0h1.54688v-.17187C1.25-.20313 1.21875-.21875 1.21875-.53125v-2.20312h1.375v2.20312c0 .3125-.01562.32813-.45312.35938V0h1.59375v-.17187c-.54688-.03126-.57813-.04688-.57813-.35938v-2.20312h.75v-.25h-.75l-.01562-.67188c-.01563-.57812.1875-.64062.28125-.64062.14062 0 .26562.04687.42187.40625.03125.0625.0625.10937.15625.10937.125 0 .3125-.10937.3125-.28125 0-.20312-.26562-.45312-.75-.45312-.3125 0-.59375.14062-.73437.34375-.21875-.14063-.57813-.25-.89063-.25-.32812 0-.78125.15625-.9375.39062-.14062.20313-.34375.48438-.34375.89063v.15625H.1875Zm2.48438-.96875c-.03125.14062-.04688.3125-.04688.5v.21875H1.26563v-.29688c0-.6875.3125-.92187.59375-.92187.3125 0 .48437.10937.70312.40625.03125.03125.0625.07812.10938.09375m0 0"/><path id="K" d="M.29688-1.46875c0 1.01563.5 1.54688 1.40625 1.54688.4375 0 1-.23438 1.17187-.875l-.17187-.09376c-.1875.4375-.4375.64063-.875.64063C1.09375-.25.9375-1 .9375-1.57812c0-.90625.34375-1.26563.76563-1.26563.28124 0 .45312.20313.57812.53125.04688.09375.07813.15625.20313.15625.10937 0 .34375-.07812.34375-.3125 0-.28125-.39063-.57812-1.0625-.57812-1.09375 0-1.46875.78125-1.46875 1.57812m0 0"/><path id="L" d="M.1875-2.73437H.625V-.625c0 .625.46875.70313.67188.70313.3125 0 .60937-.15625.78125-.26563l-.04688-.14062C1.875-.26562 1.75-.25 1.59375-.25c-.20312 0-.39062-.14062-.39062-.60937v-1.875h.78125v-.25h-.78125V-3.75h-.1875l-.35938.76563H.1875Zm0 0"/><path id="M" d="M.5625-3.98437c0 .21875.15625.375.375.375s.35938-.15625.35938-.375-.14063-.35938-.35938-.35938-.375.14063-.375.35938M.1875 0h1.48438v-.17187c-.4375-.03126-.45313-.04688-.45313-.35938v-2.48437l-.04687-.03125-.95313.15625V-2.75l.23438.03125c.15625.03125.20312.04688.20312.28125v1.90625c0 .3125-.01562.32813-.46875.35938Zm0 0"/><path id="N" d="M.1875-2.73437h.46875v2.20312c0 .3125-.01562.32813-.46875.35938V0h1.60938v-.17187c-.5625-.03126-.57813-.04688-.57813-.35938v-2.20312h.75v-.25h-.75l-.01562-.67188c-.03126-.57812.1875-.64062.28124-.64062.14063 0 .26563.04687.42188.40625.03125.0625.07813.10937.15625.10937.125 0 .3125-.10937.3125-.28125 0-.20312-.26562-.45312-.75-.45312-.34375 0-.60937.15625-.76562.39062-.14063.21875-.20313.53125-.20313.92188v.21875H.1875Zm0 0"/></defs><path fill="none" stroke="#000" stroke-miterlimit="10" stroke-width=".79603" d="M38.23438 32.3789H479.9845"/><path fill="none" stroke="#000" stroke-miterlimit="10" stroke-width=".39801" d="M38.23438 39.73828V25.01562"/><use xlink:href="#a" x="4.55373" y="10.69467"/><use xlink:href="#b" x="9.52481" y="10.69467"/><use xlink:href="#c" x="14.24237" y="10.69467"/><use xlink:href="#d" x="16.95881" y="10.69467"/><use xlink:href="#e" x="21.44999" y="10.69467"/><use xlink:href="#f" x="26.89193" y="10.69467"/><use xlink:href="#g" x="32.59646" y="10.69467"/><use xlink:href="#h" x="40.75484" y="10.69467"/><use xlink:href="#i" x="43.53466" y="10.69467"/><use xlink:href="#h" x="49.04904" y="10.69467"/><use xlink:href="#g" x="51.82887" y="10.69467"/><use xlink:href="#b" x="59.98725" y="10.69467"/><use xlink:href="#c" x="64.7048" y="10.69467"/><use xlink:href="#d" x="67.42124" y="10.69467"/><use xlink:href="#j" x="29.75166" y="18.45517"/><use xlink:href="#k" x="35.04002" y="20.44691"/><use xlink:href="#l" x="40.64753" y="20.44691"/><use xlink:href="#m" x="42.41322" y="20.44691"/><path fill="none" stroke="#000" stroke-miterlimit="10" stroke-width=".39801" d="M148.6719 39.73828V25.01562"/><use xlink:href="#n" x="115.03508" y="10.69467"/><use xlink:href="#f" x="120.55851" y="10.69467"/><use xlink:href="#d" x="124.21665" y="10.69467"/><use xlink:href="#g" x="128.70784" y="10.69467"/><use xlink:href="#h" x="136.86622" y="10.69467"/><use xlink:href="#d" x="139.64604" y="10.69467"/><use xlink:href="#f" x="144.13723" y="10.69467"/><use xlink:href="#o" x="149.84175" y="10.69467"/><use xlink:href="#e" x="155.01205" y="10.69467"/><use xlink:href="#b" x="160.45399" y="10.69467"/><use xlink:href="#f" x="165.17154" y="10.69467"/><use xlink:href="#p" x="169.08322" y="10.69467"/><use xlink:href="#h" x="172.31578" y="10.69467"/><use xlink:href="#c" x="175.09561" y="10.69467"/><use xlink:href="#d" x="177.81205" y="10.69467"/><use xlink:href="#q" x="143.4816" y="18.45517"/><use xlink:href="#r" x="149.98266" y="20.44691"/><path fill="none" stroke="#000" stroke-miterlimit="10" stroke-width=".39801" d="M259.10944 39.73828V25.01562"/><use xlink:href="#s" x="241.54861" y="10.69467"/><use xlink:href="#t" x="249.4444" y="10.69467"/><use xlink:href="#u" x="253.93558" y="10.69467"/><use xlink:href="#h" x="259.1602" y="10.69467"/><use xlink:href="#b" x="261.94003" y="10.69467"/><use xlink:href="#i" x="266.65758" y="10.69467"/><use xlink:href="#d" x="272.17196" y="10.69467"/><use xlink:href="#q" x="253.91711" y="18.45517"/><use xlink:href="#v" x="260.41947" y="20.44691"/><path fill="none" stroke="#000" stroke-miterlimit="10" stroke-width=".39801" d="M369.54697 39.73828V25.01562"/><use xlink:href="#w" x="332.29037" y="10.62246"/><use xlink:href="#f" x="337.04415" y="10.62246"/><use xlink:href="#x" x="340.82" y="10.62246"/><use xlink:href="#h" x="345.88164" y="10.62246"/><use xlink:href="#y" x="348.66146" y="10.62246"/><use xlink:href="#h" x="352.53692" y="10.62246"/><use xlink:href="#z" x="355.31675" y="10.62246"/><use xlink:href="#g" x="359.80793" y="10.62246"/><use xlink:href="#d" x="367.96631" y="10.62246"/><use xlink:href="#o" x="374.33184" y="10.62246"/><use xlink:href="#e" x="379.50213" y="10.62246"/><use xlink:href="#b" x="384.94407" y="10.62246"/><use xlink:href="#f" x="389.66162" y="10.62246"/><use xlink:href="#p" x="393.5733" y="10.62246"/><use xlink:href="#h" x="396.80587" y="10.62246"/><use xlink:href="#c" x="399.58569" y="10.62246"/><use xlink:href="#d" x="402.30213" y="10.62246"/><use xlink:href="#q" x="364.35422" y="18.38426"/><use xlink:href="#A" x="370.85528" y="20.376"/><path fill="none" stroke="#000" stroke-miterlimit="10" stroke-width=".39801" d="M479.9845 39.73828V25.01562"/><use xlink:href="#a" x="445.82295" y="10.62246"/><use xlink:href="#b" x="450.79404" y="10.62246"/><use xlink:href="#c" x="455.5116" y="10.62246"/><use xlink:href="#d" x="458.22804" y="10.62246"/><use xlink:href="#e" x="462.71922" y="10.62246"/><use xlink:href="#f" x="468.16116" y="10.62246"/><use xlink:href="#g" x="473.86569" y="10.62246"/><use xlink:href="#b" x="482.02407" y="10.62246"/><use xlink:href="#B" x="486.74162" y="10.62246"/><use xlink:href="#h" x="491.26902" y="10.62246"/><use xlink:href="#g" x="494.04885" y="10.62246"/><use xlink:href="#b" x="502.20723" y="10.62246"/><use xlink:href="#c" x="506.92478" y="10.62246"/><use xlink:href="#d" x="509.64123" y="10.62246"/><use xlink:href="#j" x="471.19617" y="18.38426"/><use xlink:href="#k" x="476.48453" y="20.376"/><use xlink:href="#C" x="482.09204" y="20.376"/><use xlink:href="#D" x="485.26769" y="20.376"/><use xlink:href="#r" x="76.13399" y="41.08159"/><path fill="none" stroke="#000" stroke-miterlimit="10" stroke-width=".35576" d="M76.13281 41.96875h3.33203"/><use xlink:href="#E" x="76.13399" y="46.56341"/><use xlink:href="#F" x="82.38187" y="43.68097"/><use xlink:href="#G" x="86.01672" y="43.68097"/><use xlink:href="#H" x="90.49885" y="43.68097"/><use xlink:href="#I" x="92.14165" y="43.68097"/><use xlink:href="#G" x="93.40286" y="43.68097"/><use xlink:href="#J" x="96.52676" y="43.68097"/><use xlink:href="#G" x="100.39446" y="43.68097"/><use xlink:href="#K" x="103.51836" y="43.68097"/><use xlink:href="#L" x="106.53232" y="43.68097"/><use xlink:href="#M" x="108.62139" y="43.68097"/><use xlink:href="#N" x="110.38708" y="43.68097"/><use xlink:href="#r" x="186.5704" y="41.08159"/><path fill="none" stroke="#000" stroke-miterlimit="10" stroke-width=".35576" d="M186.57031 41.96875h3.33203"/><use xlink:href="#E" x="186.5704" y="46.56341"/><use xlink:href="#F" x="192.81828" y="43.68097"/><use xlink:href="#G" x="196.45313" y="43.68097"/><use xlink:href="#H" x="200.93526" y="43.68097"/><use xlink:href="#I" x="202.57806" y="43.68097"/><use xlink:href="#G" x="203.83927" y="43.68097"/><use xlink:href="#J" x="206.96317" y="43.68097"/><use xlink:href="#G" x="210.83087" y="43.68097"/><use xlink:href="#K" x="213.95477" y="43.68097"/><use xlink:href="#L" x="216.96873" y="43.68097"/><use xlink:href="#M" x="219.0578" y="43.68097"/><use xlink:href="#N" x="220.82349" y="43.68097"/><use xlink:href="#r" x="297.00681" y="41.08159"/><path fill="none" stroke="#000" stroke-miterlimit="10" stroke-width=".35576" d="M297.00781 41.96875h3.32813"/><use xlink:href="#E" x="297.00681" y="46.56341"/><use xlink:href="#F" x="303.25469" y="43.68097"/><use xlink:href="#G" x="306.88954" y="43.68097"/><use xlink:href="#H" x="311.37167" y="43.68097"/><use xlink:href="#I" x="313.01447" y="43.68097"/><use xlink:href="#G" x="314.27567" y="43.68097"/><use xlink:href="#J" x="317.39958" y="43.68097"/><use xlink:href="#G" x="321.26728" y="43.68097"/><use xlink:href="#K" x="324.39118" y="43.68097"/><use xlink:href="#L" x="327.40514" y="43.68097"/><use xlink:href="#M" x="329.49421" y="43.68097"/><use xlink:href="#N" x="331.2599" y="43.68097"/><use xlink:href="#r" x="407.44322" y="41.08159"/><path fill="none" stroke="#000" stroke-miterlimit="10" stroke-width=".35576" d="M407.4414 41.96875h3.33204"/><use xlink:href="#E" x="407.44322" y="46.56341"/><use xlink:href="#F" x="413.6898" y="43.68097"/><use xlink:href="#G" x="417.32465" y="43.68097"/><use xlink:href="#H" x="421.81325" y="43.68097"/><use xlink:href="#I" x="423.45605" y="43.68097"/><use xlink:href="#G" x="424.71725" y="43.68097"/><use xlink:href="#J" x="427.84116" y="43.68097"/><use xlink:href="#G" x="431.70886" y="43.68097"/><use xlink:href="#K" x="434.83276" y="43.68097"/><use xlink:href="#L" x="437.84672" y="43.68097"/><use xlink:href="#M" x="439.93579" y="43.68097"/><use xlink:href="#N" x="441.70148" y="43.68097"/></svg>