<svg xmlns="http://www.w3.org/2000/svg" xmlns:xlink="http://www.w3.org/1999/xlink" width="498.805pt" height="48.977pt" viewBox="0 0 498.805 48.977"><defs><path id="a" d="M-.09375-5.35937c.42188.01562.51563.0625.64063.42187L2.1875 0h1.03125l.98438-2.85937C4.5-3.75 4.79688-4.54687 4.92188-4.875c.15625-.39062.23437-.45312.6875-.48437v-.3125H3.71875v.3125l.45313.04687c.17187.01563.1875.09375.14062.26563-.07812.26562-.26562.95312-.5 1.70312-.17187.5-.53125 1.70313-.67187 2.125h-.04688L1.85938-5.01562c-.04688-.1875-.03126-.28125.15624-.29688l.39063-.04687v-.3125h-2.5Zm0 0"/><path id="b" d="M.39063-1.09375c0 .60938.39062 1.1875 1.21875 1.1875.53125 0 .89062-.28125 1.1875-.46875.09375.25.25.46875.64062.46875.42188 0 .9375-.14062 1.20313-.23437L4.625-.42188c-.09375.01563-.28125 0-.40625-.04687-.10937-.03125-.26562-.125-.26562-.60937v-1.89063c0-.51562-.0625-1.14062-1.51563-1.14062-1.20312 0-1.95312.46875-1.95312 1 0 .35937.53125.51562.73437.51562.1875 0 .26563-.125.34375-.32812.23438-.70313.5-.8125.73438-.8125.23437 0 .45312.14062.45312.60937v.4375c-.28125.1875-.96875.39063-1.5.5625-.64062.23438-.85937.5625-.85937 1.03125m1.25-.14062c0-.375.14062-.57813.375-.70313.26562-.14062.53125-.26562.73437-.34375v1.1875c-.01562.4375-.26562.54688-.48437.54688-.32813 0-.625-.25-.625-.6875m0 0"/><path id="c" d="M.20313 0H2.5v-.3125c-.46875-.03125-.51562-.0625-.51562-.40625v-5.3125l-.07813-.04687-1.64062.21875v.29687l.28125.04688c.125.01562.1875.09375.1875.42187v4.375c0 .34375-.0625.375-.53125.40625Zm0 0"/><path id="d" d="M.32813-2c0 1.10938.48437 2.09375 2 2.09375.96875 0 1.51562-.46875 1.78125-1.1875l-.29688-.17187c-.23437.46875-.59375.73437-1.07812.73437-.82813 0-1.10938-.67187-1.10938-1.53125H3.75c.29688 0 .4375-.07812.4375-.34375 0-.67187-.26562-1.70312-1.84375-1.70312C.875-4.10937.32813-3.15625.32813-2M1.625-2.45312c0-.59375.15625-1.28125.6875-1.28125.5 0 .57813.625.57813 1 0 .23437-.0625.28125-.25.28125Zm0 0"/><path id="e" d="m.25-3.57812.28125.03125c.125.03125.1875.07812.1875.42187v1.98438c0 .96875.59375 1.23437 1.1875 1.23437.6875 0 1.125-.375 1.45313-.5625L3.42188 0H5.125v-.3125c-.46875-.03125-.51562-.0625-.51562-.40625V-4.0625l-.07813-.04687L2.875-3.875v.29688l.29688.03125c.125.03125.1875.07812.1875.42187v1.73438c0 .14062-.01563.32812-.0625.45312-.07813.20313-.29688.39063-.65625.39063-.4375 0-.6875-.25-.6875-.89063v-2.625l-.0625-.04687L.25-3.875Zm0 0"/><path id="f" d="M.26563 0h2.46875v-.3125c-.625-.03125-.71875-.0625-.71875-.40625v-1.8125c0-.4375.07812-.64062.28125-.64062.14062 0 .25.07812.4375.1875.10937.07812.21875.125.375.125.17187 0 .32812-.09375.42187-.20313.09375-.125.125-.29687.125-.48437 0-.34375-.21875-.5625-.5625-.5625s-.59375.21875-1.07812.71875l-.10938-.71875L.3125-3.875v.29688l.28125.03125c.125.03125.20313.07812.20313.42187v2.40625c0 .34375-.0625.375-.53125.40625Zm0 0"/><path id="g" d="M.26563 0h2.1875v-.3125l-.15625-.01562C2.125-.34375 2.01563-.375 2.01563-.64062v-1.89063c0-.71875.42187-.95312.78125-.95312.39062 0 .59375.34375.59375.79687v2.04688c0 .26562-.10938.29687-.28125.3125l-.15625.01562V0H5.0625v-.3125l-.17187-.01562C4.71875-.34375 4.625-.375 4.625-.64062v-1.89063c0-.71875.375-.95312.73438-.95312.39062 0 .60937.34375.60937.79687v2.04688c0 .26562-.07812.29687-.26562.3125l-.17188.01562V0H7.75v-.3125c-.48437-.03125-.53125-.0625-.53125-.40625v-2.125c0-.75-.42187-1.26562-1.29687-1.26562-.5625 0-1.07813.39062-1.42188.60937-.17187-.29687-.5-.60937-1.10937-.60937-.53125 0-.92188.26562-1.375.5625l-.09375-.5625L.3125-3.875v.29688l.28125.03125c.125.03125.20313.07812.20313.42187v2.40625c0 .34375-.0625.375-.53125.40625Zm0 0"/><path id="h" d="M.625-5.1875c0 .39063.26563.71875.73438.71875.45312 0 .76562-.32812.76562-.71875s-.29687-.71875-.76562-.71875S.625-5.57812.625-5.1875M.26563 0h2.3125v-.3125c-.48438-.03125-.5625-.0625-.5625-.40625V-4.0625l-.03125-.04687L.3125-3.875v.29688l.28125.03125c.125.03125.20313.07812.20313.42187v2.40625c0 .34375-.0625.375-.53125.40625Zm0 0"/><path id="i" d="M.26563 0h2.1875v-.3125l-.15625-.01562C2.125-.34375 2.01563-.375 2.01563-.64062v-1.95313c0-.1875.04687-.375.10937-.48437.09375-.20313.3125-.40625.65625-.40625.42188 0 .64063.26562.65625.75v2.09375c0 .26562-.09375.29687-.26562.3125L3-.3125V0h2.20313v-.3125c-.46875-.03125-.53125-.0625-.53125-.40625v-2.125C4.65625-3.625 4.28125-4.10937 3.4375-4.10937c-.48437 0-.875.23437-1.42187.5625l-.09375-.5625L.3125-3.875v.29688l.28125.03125c.125.03125.20313.07812.20313.42187v2.40625c0 .34375-.0625.375-.53125.40625Zm0 0"/><path id="n" d="M.3125 0h2.75v-.29687c-.71875-.04688-.78125-.07813-.78125-.5v-1.46875h.48438c.76562 0 1.375-.125 1.75-.40625.40625-.29688.64062-.73438.64062-1.34375 0-.64063-.29687-1.10938-.6875-1.34375-.40625-.25-.95312-.3125-1.60937-.3125H.3125v.3125c.57813.03125.65625.0625.65625.48437v4.07813c0 .42187-.07812.45312-.65625.48437Zm1.96875-2.96875v-2.01562c0-.23438.0625-.3125.46875-.3125.54688 0 1.03125.35937 1.03125 1.3125 0 .625-.21875 1.34375-1.04687 1.34375-.3125 0-.45313-.01563-.45313-.32813m0 0"/><path id="o" d="M.32813-1.92187C.32813-.73437.96875.09375 2 .09375c.375 0 .73438-.10937 1.17188-.48437v1.5625c0 .34375-.0625.375-.625.39062v.32813h2.375V1.5625c-.46875-.01562-.53125-.04687-.53125-.39062v-5.28125h-.375l-.35938.25c-.26562-.15625-.67187-.25-1.14062-.25-.65625 0-1.21875.17187-1.57813.53125-.35937.35937-.60937.875-.60937 1.65625M1.625-2.09375c0-1.10937.42188-1.64062.92188-1.64062.34375 0 .5.17187.57812.4375.04688.09375.04688.25.04688.40625V-1.25c0 .32813-.125.71875-.65625.71875S1.625-1.0625 1.625-2.09375m0 0"/><path id="p" d="M.3125-3.60937h.46875v2.65625c0 .75.54688 1.04687 1.01563 1.04687.34375 0 .84375-.14062 1.3125-.4375l-.09375-.26562c-.10938.0625-.28125.09374-.46875.09374-.3125 0-.53125-.23437-.53125-.75v-2.34375H2.875v-.40625h-.85937v-1.03125h-.46875L.82813-4.01562H.3125Zm0 0"/><path id="s" d="M.26563 0h1.95312v-.3125l-.45312-.03125C1.54687-.35937 1.45313-.5 1.4375-.78125c-.04687-.29687-.04687-.625-.04687-1.28125v-2.79687h.03124l1.75 4.71875h.48438L5.375-4.85937h.03125v4.0625c0 .42187-.0625.45312-.64062.48437V0h2.53125v-.3125c-.57813-.03125-.64063-.0625-.64063-.48437V-4.875c0-.42187.0625-.45312.64063-.48437v-.3125h-2.125c-.125.39062-.42188 1.1875-.64063 1.79687l-.70312 1.92188h-.03125l-.95313-2.51563c-.14062-.35937-.32812-.84375-.4375-1.20312H.25v.3125c.57813.03125.625.0625.625.48437v2.8125c0 .67188 0 .98438-.03125 1.28125C.8125-.5.73438-.375.54688-.34375L.26562-.3125Zm0 0"/><path id="t" d="m1.59375-4.4375.17188.25 1.5-.84375c.29687-.17187.54687-.32812.54687-.54687 0-.20313-.21875-.48438-.42187-.48438-.17188 0-.29688.09375-.60938.40625ZM.32813-2c0 1.10938.48437 2.09375 2 2.09375.96875 0 1.51562-.46875 1.78125-1.1875l-.29688-.17187c-.23437.46875-.59375.73437-1.07812.73437-.82813 0-1.10938-.67187-1.10938-1.53125H3.75c.29688 0 .4375-.07812.4375-.34375 0-.67187-.26562-1.70312-1.84375-1.70312C.875-4.10937.32813-3.15625.32813-2M1.625-2.45312c0-.59375.15625-1.28125.6875-1.28125.5 0 .57813.625.57813 1 0 .23437-.0625.28125-.25.28125Zm0 0"/><path id="u" d="M.32813-1.9375C.32813-.73437.9375.09375 1.98438.09375c.29687 0 .73437-.15625 1.1875-.5V0h1.75v-.3125c-.46875-.03125-.53125-.0625-.53125-.40625v-5.3125l-.04688-.04687-1.67187.21875v.29687l.29687.04688c.125.01562.20313.09375.20313.42187v1.07813c-.1875-.07813-.42188-.09375-.70313-.09375-.60937 0-1.15625.17187-1.53125.53125-.39062.35937-.60937.90625-.60937 1.64062M1.625-2.09375c0-1.20312.45313-1.64062.90625-1.64062.3125 0 .48438.15625.5625.32812.07813.125.07813.29688.07813.46875V-1.25c0 .32813-.125.71875-.65625.71875S1.625-1.0625 1.625-2.09375m0 0"/><path id="w" d="M.17188-4.125h.3125c.28125-.82812.375-1.17187 1.125-1.17187h.32812v4.51562c0 .29688-.04687.42188-.3125.4375l-.46875.03125V0h2.89063v-.3125l-.46875-.03125c-.25-.01562-.32813-.14062-.32813-.4375v-4.51562h.34375c.75 0 .85938.34375 1.14063 1.17187h.3125v-1.54687h-4.875Zm0 0"/><path id="x" d="M.32813-2c0 1.29688.625 2.09375 2.10937 2.09375 1.5 0 2.125-.79687 2.125-2.09375 0-1.3125-.625-2.10937-2.125-2.10937C.95313-4.10937.32813-3.3125.32813-2M1.625-2c0-1.10937.23438-1.73437.8125-1.73437.59375 0 .82813.625.82813 1.73437 0 1.09375-.23438 1.71875-.82813 1.71875-.57812 0-.8125-.625-.8125-1.71875m0 0"/><path id="y" d="M.35938-1.51562.45313-.29687c.3125.28125.9375.39062 1.39062.39062 1 0 1.6875-.4375 1.6875-1.32812 0-.70313-.45312-1.04688-1.20312-1.32813C1.84375-2.73437 1.5-2.92187 1.5-3.26562c0-.25.1875-.46875.51563-.46875.42187 0 .78125.375.9375 1H3.25v-1.09375c-.34375-.20313-.79687-.28125-1.23437-.28125-1 0-1.60938.46875-1.60938 1.29687 0 .59375.46875.98438 1.20313 1.25.40625.15625.82812.39063.82812.78125 0 .3125-.21875.5-.57812.5-.53125 0-.98438-.5625-1.1875-1.23437Zm0 0"/><path id="z" d="M.32813-2c0 1.10938.48437 2.09375 2 2.09375.96875 0 1.51562-.46875 1.78125-1.1875l-.29688-.17187c-.23437.46875-.59375.73437-1.07812.73437-.82813 0-1.10938-.67187-1.10938-1.53125H3.75c.29688 0 .4375-.07812.4375-.34375 0-.67187-.26562-1.70312-1.84375-1.70312C.875-4.10937.32813-3.15625.32813-2M1.625-2.45312c0-.59375.15625-1.28125.6875-1.28125.5 0 .57813.625.57813 1 0 .23437-.0625.28125-.25.28125Zm-.71875-3.125c0 .21875.26563.375.5625.54687l1.5.84375.17188-.25L1.9375-5.65625c-.29687-.3125-.42187-.40625-.59375-.40625-.20312 0-.4375.28125-.4375.48438m0 0"/><path id="B" d="M-.07812 0h1.8125v-.3125l-.28126-.03125c-.14062-.01562-.15624-.10937-.0625-.26562l.54688-.875h.03125l.60938.92187c.07812.14063.01562.20313-.125.21875l-.17188.03125V0h2.26563v-.3125c-.34375-.03125-.48438-.09375-.71875-.40625C3.4375-1.25 3.04688-1.8125 2.67188-2.375c.3125-.42187.60937-.73437.90625-1.03125.20312-.20312.35937-.29687.6875-.3125v-.29687H2.65625v.29687l.21875.04688c.10938.01562.125.07812.03125.21875l-.48437.73437h-.01563L1.89063-3.5c-.0625-.07812-.04688-.15625.04687-.17187l.20313-.04688v-.29687H-.01562v.29687c.35937.04688.45312.09375.625.3125.32812.45313.6875 1 1.09375 1.54688-.32813.40625-.625.78125-.9375 1.14062C.5-.42187.34375-.35937-.07812-.3125Zm0 0"/><path id="j" d="M.28125-.34375c0 .23438.20313.4375.5625.4375.54688 0 .84375-.51562 1.17188-1.0625l.32812-.54687h.01563l.14062.625c.15625.625.3125.98437.75.98437.64063 0 1-.64062 1.23438-1.1875l-.21875-.125c-.1875.39063-.42188.82813-.65625.82813-.15625 0-.21875-.17188-.375-.79688l-.28125-1.17187c.26562-.48438.65625-1.07813.89062-1.07813.23438 0 .28125.14063.53125.14063.1875 0 .375-.1875.375-.4375 0-.26563-.20312-.375-.4375-.375-.42187 0-.78125.34375-1.0625.79687l-.375.5625h-.01562l-.3125-1.32812L2.5-4.10937l-1.4375.40625.01563.21875.60937-.04688c.14063 0 .21875.0625.28125.375l.29688 1.21875-.21875.40625c-.32813.54688-.59375.95313-.79688.95313-.23437 0-.3125-.21876-.57812-.21876-.21876 0-.39063.21876-.39063.45313m0 0"/><path id="q" d="M.5625-2.20312C.5625-.98437 1.20313-.09375 2.5.09375c.34375.6875 1.14063 1.54688 2.21875 1.54688.23438 0 .5-.04688.65625-.125l-.03125-.17188c-.73437 0-1.35937-.625-1.78125-1.28125 1.73438-.26562 2.57813-2 2.57813-3.46875 0-1.67187-1.03125-2.39062-2.39063-2.39062-2.14062 0-3.1875 1.92187-3.1875 3.59375m.98438.39062c0-1.4375.70312-3.67187 2.25-3.67187.85937 0 1.34375.53125 1.34375 1.57812 0 1.82813-.84375 3.71875-2.23438 3.71875-.82812 0-1.35937-.54687-1.35937-1.625m0 0"/><path id="k" d="M.1875 0h1.42188v-.17187c-.42188-.03126-.4375-.04688-.4375-.34375V-1.875c0-.15625 0-.23437.04687-.3125.10938-.23437.35938-.4375.6875-.4375.5 0 .5625.375.5625.73438v1.375c0 .29687-.01562.3125-.4375.34375V0h1.42188v-.17187c-.40625-.03126-.4375-.04688-.4375-.34375V-1.875c0-.15625.01562-.23437.04687-.3125.09375-.25.34375-.4375.67188-.4375.35937 0 .59375.21875.59375.73438v1.375c0 .29687-.03125.3125-.45313.34375V0h1.4375v-.17187c-.42187-.03126-.4375-.04688-.4375-.34375V-2c0-.59375-.32812-.9375-.875-.9375-.48437 0-.82812.3125-1.03125.45313-.14062-.28125-.35937-.45313-.78125-.45313-.4375 0-.8125.29688-1.01562.45313L1.125-2.9375l-.90625.15625v.14063l.21875.03125c.14063.01562.1875.04687.1875.26562v1.82813c0 .29687-.01562.3125-.4375.34375Zm0 0"/><path id="l" d="M.53125-3.82812c0 .21875.15625.35937.35938.35937.21874 0 .35937-.14062.35937-.35937 0-.20313-.14062-.34375-.35937-.34375-.20313 0-.35938.14062-.35938.34375M.1875 0h1.42188v-.17187c-.42188-.03126-.4375-.04688-.4375-.34375v-2.375L1.125-2.9375l-.90625.15625v.14063l.21875.03125c.14063.01562.1875.04687.1875.26562v1.82813c0 .29687-.01562.3125-.4375.34375Zm0 0"/><path id="m" d="M.1875 0h1.42188v-.17187c-.42188-.03126-.4375-.04688-.4375-.34375V-1.875c0-.15625.01562-.23437.0625-.3125.125-.23437.375-.4375.6875-.4375.40625 0 .625.21875.625.73438v1.375c0 .29687-.01563.3125-.4375.34375V0h1.42187v-.17187c-.42187-.03126-.4375-.04688-.4375-.34375V-2c0-.59375-.32812-.9375-.85937-.9375-.4375 0-.70313.21875-1.0625.45313l-.07813-.45313-.875.15625v.14063l.21875.03125c.14063.01562.1875.04687.1875.26562v1.82813c0 .29687-.01562.3125-.4375.34375Zm0 0"/><path id="C" d="M.28125-.76562c0 .4375.29688.82812.84375.82812.34375 0 .6875-.21875.875-.34375.07813.21875.17188.34375.375.34375.21875 0 .46875-.0625.70313-.17187L3.03125-.25c-.07812.03125-.20312.03125-.29687 0-.10938-.01562-.20313-.125-.20313-.48437v-1.42188c0-.34375-.07812-.78125-.95312-.78125-.65625 0-1.1875.34375-1.1875.67188 0 .1875.21875.26562.32812.26562.125 0 .15625-.0625.1875-.15625.125-.4375.375-.57812.60938-.57812.21874 0 .48437.125.48437.59375v.23437c-.14062.15625-.71875.29688-1.17187.45313-.42188.125-.54688.42187-.54688.6875M.875-.84375c0-.26562.125-.40625.45313-.53125.23437-.09375.54687-.20312.67187-.28125v.82813C2-.35937 1.64063-.25 1.40625-.25 1.04688-.25.875-.5.875-.84375m0 0"/><path id="D" d="M0 0h1.125v-.17187L.89063-.20313C.79687-.21874.79687-.28124.84375-.34374c.125-.25.3125-.53125.51563-.82812H1.375l.51563.8125c.0625.09375.04687.14062-.04688.15625l-.23437.03124V0h1.35937v-.17187c-.25-.01563-.34375-.03126-.5-.23438-.26562-.39062-.54687-.79687-.79687-1.20312.1875-.29688.40625-.59375.64062-.85938.15625-.1875.23438-.21875.51563-.21875v-.17187H1.73438v.17187l.23437.01563c.09375.01562.07813.07812.03125.14062-.14062.21875-.29687.45313-.46875.73438l-.5-.73438c-.04687-.0625-.03125-.14062.0625-.15625h.17188v-.17187H.04688v.17187c.23437 0 .28125.01563.4375.20313.23437.34375.48437.71875.73437 1.09375C1-1.0625.78125-.73437.54688-.42187.39062-.21875.26562-.1875 0-.17187Zm0 0"/><path id="r" d="M.64063 0H2.625v-.1875l-.45312-.04687C2.04688-.25 1.98438-.28125 1.98438-.5v-3.4375l-.04688-.03125-1.29687.20313v.17187l.46875.0625c.125.03125.17187.07813.17187.26563V-.5c0 .21875-.0625.25-.20312.26563l-.4375.04687Zm0 0"/><path id="v" d="M.1875-.07812.25 0h2.53125L3-.89062l-.1875-.03126c-.14062.3125-.25.35938-.48437.35938H.84375c.09375-.26562.35938-.64062.95313-1 .60937-.39062 1.03125-.67187 1.03125-1.3125 0-.8125-.5625-1.09375-1.23438-1.09375-.78125 0-1.28125.4375-1.28125.82813 0 .21875.26563.32812.40625.32812.10938 0 .17188-.0625.20313-.1875.09374-.42187.29687-.75.625-.75.39062 0 .51562.34375.51562.76563 0 .51562-.20312.90625-.78125 1.39062C.51563-.9375.25-.5.1875-.07812m0 0"/><path id="A" d="M.17188-.64062c0 .23437.35937.70312 1.29687.70312.875 0 1.4375-.40625 1.4375-1.15625 0-.8125-.71875-1.01562-.98437-1.04687v-.01563c.3125-.0625.8125-.28125.8125-.85937 0-.71875-.59375-.95313-1.21875-.95313-.73438 0-1.20313.39063-1.20313.73438 0 .20312.25.3125.35938.3125s.15624-.0625.1875-.15625C1-3.5 1.1875-3.75 1.5-3.75c.40625 0 .5.42188.5.71875C2-2.75 1.92188-2.25 1.45313-2.25c-.26563 0-.4375-.0625-.53125-.0625-.10938 0-.14063.0625-.14063.1875s.03125.20313.14063.20313c.09374 0 .26562-.0625.53125-.0625.40625 0 .6875.3125.6875.90625 0 .65625-.28125.92187-.67188.92187-.32812 0-.54687-.25-.6875-.67187C.73438-.9375.67188-1 .5625-1c-.15625 0-.39062.125-.39062.35938m0 0"/><path id="E" d="m.125-1.17187.07813.14062H1.75v.59375c0 .15625-.0625.20313-.1875.21875l-.375.03125V0h1.65625v-.1875L2.5625-.21875c-.10937-.01562-.15625-.0625-.15625-.21875v-.59375H3v-.32812h-.59375v-2.54688h-.54687C1.26563-3.04687.65625-2.07812.125-1.17187m.51563-.1875c.3125-.59375.70312-1.23438 1.10937-1.90625v1.90625Zm0 0"/><path id="F" d="M.28125-1.375c0 .85938.45313 1.4375 1.23438 1.4375.3125 0 .57812-.14062.89062-.39062v.28125L2.46875 0h.9375v-.17187c-.42187-.03126-.4375-.04688-.4375-.34375v-3.78125l-.04687-.03125-.90625.14062v.14063l.21875.01562c.14062.03125.1875.0625.1875.28125v.95313c-.17188-.07813-.375-.14063-.65625-.14063-.46875 0-.82813.15625-1.07813.40625-.25.26563-.40625.64063-.40625 1.15625m.60938-.0625c0-.76562.28124-1.29687.875-1.29687.28124 0 .5.125.60937.375.04688.09375.04688.1875.04688.34375V-1c0 .14063 0 .23438-.04688.32813-.10937.3125-.35937.42187-.67187.42187-.53125 0-.8125-.51562-.8125-1.1875m0 0"/><path id="G" d="M.28125-1.40625C.28125-.48437.6875.0625 1.64063.0625c.64062 0 .98437-.35937 1.14062-.8125l-.1875-.09375C2.4375-.5 2.21875-.23437 1.75-.23437c-.71875 0-.85937-.6875-.85937-1.29688h1.6875c.125 0 .23437-.03125.23437-.23437 0-.34375-.10937-1.17188-1.1875-1.17188-.90625 0-1.34375.65625-1.34375 1.53125m.625-.35937c0-.23438.07813-.96875.6875-.96875.54688 0 .60938.5625.60938.78125 0 .125-.03125.1875-.20313.1875Zm0 0"/><path id="H" d="M.125 0h1.42188v-.17187c-.42188-.03126-.4375-.04688-.4375-.34375v-3.78125l-.04688-.03125-.90625.14062v.14063l.20313.01562c.15625.03125.1875.0625.1875.28125v3.23438c0 .29687 0 .3125-.42188.34375Zm0 0"/><path id="I" d="m.42188-2.85937.09375.09375c.29687-.26563.70312-.65625.70312-1.07813 0-.3125-.20312-.48437-.39062-.48437-.17188 0-.28126.125-.28126.28125 0 .20312.1875.32812.1875.54687s-.125.4375-.3125.64063m0 0"/><path id="J" d="M.17188-2.625H.625v2.10938c0 .29687-.01562.3125-.4375.34375V0h1.48438v-.17187c-.46875-.01563-.5-.03126-.5-.32813v-2.125h1.3125v2.10938c0 .29687-.01563.3125-.4375.34375V0h1.54687v-.17187C3.0625-.1875 3.04688-.20313 3.04688-.5v-2.125H3.75v-.23437h-.70312l-.03125-.65625c-.01563-.5625.1875-.625.28125-.625.125 0 .25.0625.39062.40625.03125.04687.07813.09375.15625.09375.125 0 .29688-.09375.29688-.26563 0-.20312-.25-.42187-.71875-.42187-.29688 0-.5625.125-.70313.3125-.20312-.125-.54687-.23438-.85937-.23438s-.75.14063-.90625.375c-.125.20313-.32813.46875-.32813.85938v.15625H.17188Zm2.40625-.9375c-.03125.14063-.04688.29688-.04688.48438v.21875h-1.3125v-.29688c0-.65625.29688-.875.5625-.875.29688 0 .46875.09375.6875.375.03125.04688.0625.07813.10938.09375m0 0"/><path id="K" d="M.28125-1.40625C.28125-.42187.76563.0625 1.64063.0625c.40625 0 .96875-.20312 1.125-.82812l-.17188-.09376c-.1875.42188-.40625.625-.84375.625-.6875 0-.85937-.73437-.85937-1.28124 0-.85938.34375-1.21875.75-1.21875.26562 0 .4375.20312.54687.51562.04688.09375.07813.14063.1875.14063.125 0 .34375-.0625.34375-.29688 0-.26562-.375-.5625-1.01562-.5625-1.0625 0-1.42188.75-1.42188 1.53125m0 0"/><path id="L" d="M.1875-2.625h.42188v2.03125c0 .59375.4375.65625.64062.65625.29688 0 .57813-.14062.75-.25l-.04687-.125c-.14063.0625-.26563.07813-.42188.07813-.1875 0-.375-.14063-.375-.59375V-2.625h.75v-.23437h-.75v-.73438H.98438L.625-2.85937H.1875Zm0 0"/><path id="M" d="M.53125-3.82812c0 .21875.15625.35937.35938.35937.21874 0 .35937-.14062.35937-.35937 0-.20313-.14062-.34375-.35937-.34375-.20313 0-.35938.14062-.35938.34375M.1875 0h1.42188v-.17187c-.42188-.03126-.4375-.04688-.4375-.34375v-2.375L1.125-2.9375l-.90625.15625v.14063l.21875.03125c.14063.01562.1875.04687.1875.26562v1.82813c0 .29687-.01562.3125-.4375.34375Zm0 0"/><path id="N" d="M.17188-2.625H.625v2.10938c0 .29687-.01562.3125-.4375.34375V0h1.54688v-.17187C1.1875-.1875 1.17188-.20313 1.17188-.5v-2.125h.71875v-.23437h-.71875l-.01563-.65625c-.03125-.5625.1875-.625.28125-.625.10938 0 .23438.0625.39063.40625.03124.04687.07812.09375.15624.09375.125 0 .29688-.09375.29688-.26563 0-.20312-.25-.42187-.71875-.42187-.32812 0-.59375.14062-.73437.35937C.6875-3.76562.625-3.45312.625-3.07812v.21875H.17188Zm0 0"/></defs><path fill="none" stroke="#000" stroke-miterlimit="10" stroke-width=".79664" d="M36.57812 31.15625H461.5822"/><path fill="none" stroke="#000" stroke-miterlimit="10" stroke-width=".39831" d="M36.57812 38.23828V24.07422"/><use xlink:href="#a" x="4.16866" y="10.28967"/><use xlink:href="#b" x="8.95222" y="10.28967"/><use xlink:href="#c" x="13.49181" y="10.28967"/><use xlink:href="#d" x="16.10578" y="10.28967"/><use xlink:href="#e" x="20.42753" y="10.28967"/><use xlink:href="#f" x="25.66418" y="10.28967"/><use xlink:href="#g" x="31.14479" y="10.28967"/><use xlink:href="#h" x="38.99541" y="10.28967"/><use xlink:href="#i" x="41.67037" y="10.28967"/><use xlink:href="#h" x="46.97672" y="10.28967"/><use xlink:href="#g" x="49.65168" y="10.28967"/><use xlink:href="#b" x="57.50229" y="10.28967"/><use xlink:href="#c" x="62.04188" y="10.28967"/><use xlink:href="#d" x="64.65584" y="10.28967"/><use xlink:href="#j" x="28.41603" y="17.75866"/><use xlink:href="#k" x="33.50489" y="19.67526"/><use xlink:href="#l" x="38.90086" y="19.67526"/><use xlink:href="#m" x="40.59994" y="19.67526"/><path fill="none" stroke="#000" stroke-miterlimit="10" stroke-width=".39831" d="M142.82817 38.23828V24.07422"/><use xlink:href="#n" x="110.46175" y="10.28967"/><use xlink:href="#f" x="115.77681" y="10.28967"/><use xlink:href="#d" x="119.29695" y="10.28967"/><use xlink:href="#g" x="123.61871" y="10.28967"/><use xlink:href="#h" x="131.46932" y="10.28967"/><use xlink:href="#d" x="134.14428" y="10.28967"/><use xlink:href="#f" x="138.46604" y="10.28967"/><use xlink:href="#o" x="143.95537" y="10.28967"/><use xlink:href="#e" x="148.93062" y="10.28967"/><use xlink:href="#b" x="154.16726" y="10.28967"/><use xlink:href="#f" x="158.70685" y="10.28967"/><use xlink:href="#p" x="162.47096" y="10.28967"/><use xlink:href="#h" x="165.58158" y="10.28967"/><use xlink:href="#c" x="168.25654" y="10.28967"/><use xlink:href="#d" x="170.87051" y="10.28967"/><use xlink:href="#q" x="137.83514" y="17.75866"/><use xlink:href="#r" x="144.09096" y="19.67526"/><path fill="none" stroke="#000" stroke-miterlimit="10" stroke-width=".39831" d="M249.0782 38.23828V24.07422"/><use xlink:href="#s" x="232.18159" y="10.28967"/><use xlink:href="#t" x="239.77952" y="10.28967"/><use xlink:href="#u" x="244.10127" y="10.28967"/><use xlink:href="#h" x="249.1288" y="10.28967"/><use xlink:href="#b" x="251.80376" y="10.28967"/><use xlink:href="#i" x="256.34335" y="10.28967"/><use xlink:href="#d" x="261.6497" y="10.28967"/><use xlink:href="#q" x="244.08475" y="17.75866"/><use xlink:href="#v" x="250.34056" y="19.67526"/><path fill="none" stroke="#000" stroke-miterlimit="10" stroke-width=".39831" d="M355.33215 38.23828V24.07422"/><use xlink:href="#w" x="319.47959" y="10.22195"/><use xlink:href="#f" x="324.06275" y="10.22195"/><use xlink:href="#x" x="327.69616" y="10.22195"/><use xlink:href="#h" x="332.55813" y="10.22195"/><use xlink:href="#y" x="335.23309" y="10.22195"/><use xlink:href="#h" x="338.96235" y="10.22195"/><use xlink:href="#z" x="341.63731" y="10.22195"/><use xlink:href="#g" x="345.95907" y="10.22195"/><use xlink:href="#d" x="353.80968" y="10.22195"/><use xlink:href="#o" x="359.93507" y="10.22195"/><use xlink:href="#e" x="364.91032" y="10.22195"/><use xlink:href="#b" x="370.14697" y="10.22195"/><use xlink:href="#f" x="374.68656" y="10.22195"/><use xlink:href="#p" x="378.45067" y="10.22195"/><use xlink:href="#h" x="381.56129" y="10.22195"/><use xlink:href="#c" x="384.23625" y="10.22195"/><use xlink:href="#d" x="386.85021" y="10.22195"/><use xlink:href="#q" x="350.33385" y="17.68969"/><use xlink:href="#A" x="356.58966" y="19.60629"/><path fill="none" stroke="#000" stroke-miterlimit="10" stroke-width=".39831" d="M461.5822 38.23828V24.07422"/><use xlink:href="#a" x="428.7093" y="10.22195"/><use xlink:href="#b" x="433.49285" y="10.22195"/><use xlink:href="#c" x="438.03244" y="10.22195"/><use xlink:href="#d" x="440.64641" y="10.22195"/><use xlink:href="#e" x="444.96817" y="10.22195"/><use xlink:href="#f" x="450.20481" y="10.22195"/><use xlink:href="#g" x="455.69414" y="10.22195"/><use xlink:href="#b" x="463.54475" y="10.22195"/><use xlink:href="#B" x="468.08434" y="10.22195"/><use xlink:href="#h" x="472.44095" y="10.22195"/><use xlink:href="#g" x="475.11591" y="10.22195"/><use xlink:href="#b" x="482.96652" y="10.22195"/><use xlink:href="#c" x="487.50611" y="10.22195"/><use xlink:href="#d" x="490.12008" y="10.22195"/><use xlink:href="#j" x="453.12533" y="17.68969"/><use xlink:href="#k" x="458.21419" y="19.60629"/><use xlink:href="#C" x="463.61016" y="19.60629"/><use xlink:href="#D" x="466.66601" y="19.60629"/><use xlink:href="#r" x="73.03832" y="39.53094"/><path fill="none" stroke="#000" stroke-miterlimit="10" stroke-width=".34234" d="M73.03906 40.38281h3.20313"/><use xlink:href="#E" x="73.03832" y="44.80596"/><use xlink:href="#F" x="79.0505" y="42.03226"/><use xlink:href="#G" x="82.54823" y="42.03226"/><use xlink:href="#H" x="86.86128" y="42.03226"/><use xlink:href="#I" x="88.4421" y="42.03226"/><use xlink:href="#G" x="89.65573" y="42.03226"/><use xlink:href="#J" x="92.66179" y="42.03226"/><use xlink:href="#G" x="96.38358" y="42.03226"/><use xlink:href="#K" x="99.38964" y="42.03226"/><use xlink:href="#L" x="102.2899" y="42.03226"/><use xlink:href="#M" x="104.30016" y="42.03226"/><use xlink:href="#N" x="105.99924" y="42.03226"/><use xlink:href="#r" x="179.28718" y="39.53094"/><path fill="none" stroke="#000" stroke-miterlimit="10" stroke-width=".34234" d="M179.28906 40.38281h3.20313"/><use xlink:href="#E" x="179.28718" y="44.80596"/><use xlink:href="#F" x="185.29935" y="42.03226"/><use xlink:href="#G" x="188.79709" y="42.03226"/><use xlink:href="#H" x="193.11635" y="42.03226"/><use xlink:href="#I" x="194.69096" y="42.03226"/><use xlink:href="#G" x="195.90458" y="42.03226"/><use xlink:href="#J" x="198.91064" y="42.03226"/><use xlink:href="#G" x="202.63243" y="42.03226"/><use xlink:href="#K" x="205.63849" y="42.03226"/><use xlink:href="#L" x="208.53875" y="42.03226"/><use xlink:href="#M" x="210.54901" y="42.03226"/><use xlink:href="#N" x="212.24809" y="42.03226"/><use xlink:href="#r" x="285.53753" y="39.53094"/><path fill="none" stroke="#000" stroke-miterlimit="10" stroke-width=".34234" d="M285.53906 40.38281h3.20313"/><use xlink:href="#E" x="285.53753" y="44.80596"/><use xlink:href="#F" x="291.54971" y="42.03226"/><use xlink:href="#G" x="295.04744" y="42.03226"/><use xlink:href="#H" x="299.36671" y="42.03226"/><use xlink:href="#I" x="300.94131" y="42.03226"/><use xlink:href="#G" x="302.15494" y="42.03226"/><use xlink:href="#J" x="305.161" y="42.03226"/><use xlink:href="#G" x="308.88279" y="42.03226"/><use xlink:href="#K" x="311.88885" y="42.03226"/><use xlink:href="#L" x="314.78911" y="42.03226"/><use xlink:href="#M" x="316.79937" y="42.03226"/><use xlink:href="#N" x="318.49845" y="42.03226"/><use xlink:href="#r" x="391.78638" y="39.53094"/><path fill="none" stroke="#000" stroke-miterlimit="10" stroke-width=".34234" d="M391.78516 40.38281h3.20703"/><use xlink:href="#E" x="391.78638" y="44.80596"/><use xlink:href="#F" x="397.79856" y="42.03226"/><use xlink:href="#G" x="401.2963" y="42.03226"/><use xlink:href="#H" x="405.61556" y="42.03226"/><use xlink:href="#I" x="407.19639" y="42.03226"/><use xlink:href="#G" x="408.41002" y="42.03226"/><use xlink:href="#J" x="411.41608" y="42.03226"/><use xlink:href="#G" x="415.13787" y="42.03226"/><use xlink:href="#K" x="418.14393" y="42.03226"/><use xlink:href="#L" x="421.04418" y="42.03226"/><use xlink:href="#M" x="423.05445" y="42.03226"/><use xlink:href="#N" x="424.75353" y="42.03226"/></svg>