<svg xmlns="http://www.w3.org/2000/svg" xmlns:xlink="http://www.w3.org/1999/xlink" width="798.086pt" height="78.364pt" viewBox="0 0 798.086 78.364"><defs><path id="a" d="M-.14062-8.5c.67187.01563.8125.10938 1 .65625L3.46875 0h1.64063l1.5625-4.53125c.48437-1.42187.9375-2.6875 1.125-3.20312.26562-.625.375-.71875 1.10937-.76563v-.48437H5.89063V-8.5l.73437.0625c.26563.03125.28125.15625.21875.4375-.125.42188-.40625 1.5-.79687 2.70313-.26563.78125-.82813 2.70312-1.0625 3.35937h-.07813L2.95313-7.96875c-.07813-.26562-.0625-.4375.23437-.46875l.625-.0625v-.48437H-.14062Zm0 0"/><path id="b" d="M.625-1.75c0 .96875.625 1.90625 1.9375 1.90625.82813 0 1.40625-.45312 1.85938-.75.17187.40625.40625.75 1.03125.75.67187 0 1.46875-.21875 1.90625-.39062l-.01563-.42188c-.17187 0-.45312 0-.65625-.07812-.15625-.04688-.40625-.20313-.40625-.96875v-3c0-.8125-.10937-1.82813-2.40625-1.82813-1.90625 0-3.09375.76563-3.09375 1.60938 0 .5625.82813.8125 1.15625.8125.28125 0 .42188-.20313.54688-.51563.35937-1.10937.79687-1.3125 1.15625-1.3125.375 0 .73437.21875.73437.96875v.70313c-.46875.3125-1.54687.60937-2.39062.90625C.96875-3 .625-2.48437.625-1.75m1.96875-.20312c0-.60938.23438-.90625.60938-1.125.40625-.23438.84375-.40625 1.17187-.54688v1.875c-.03125.71875-.4375.89063-.79687.89063-.51563 0-.98438-.40625-.98438-1.09375m0 0"/><path id="c" d="M.3125 0h3.65625v-.5c-.75-.04687-.82812-.09375-.82812-.64062V-9.5625l-.10938-.07812-2.60937.34375v.46875l.4375.07812c.20312.03125.29687.15625.29687.67188v6.9375c0 .54687-.09375.59375-.84375.64062Zm0 0"/><path id="d" d="M.51563-3.1875c0 1.78125.76562 3.34375 3.17187 3.34375 1.54688 0 2.39063-.75 2.84375-1.90625L6.0625-2c-.39062.73438-.95312 1.15625-1.73437 1.15625-1.29688 0-1.75-1.0625-1.75-2.4375h3.375c.46875 0 .6875-.125.6875-.53125 0-1.0625-.42188-2.71875-2.92188-2.71875C1.375-6.53125.51563-5 .51563-3.1875m2.0625-.71875c0-.9375.25-2.03125 1.09375-2.03125.78125 0 .92187 1 .92187 1.60938 0 .35937-.09375.42187-.40625.42187Zm0 0"/><path id="e" d="m.39063-5.6875.45312.07813c.20313.01562.29688.125.29688.64062v3.17188c0 1.51562.9375 1.95312 1.875 1.95312 1.10937 0 1.78125-.59375 2.3125-.89062L5.4375 0H8.125v-.5c-.73437-.04687-.82812-.09375-.82812-.64062V-6.4375l-.10938-.09375-2.625.375v.46875l.45313.07813c.21875.01562.3125.125.3125.64062v2.75c0 .23438-.01563.54688-.09375.73438-.125.3125-.48438.60937-1.04688.60937-.6875 0-1.09375-.39062-1.09375-1.40625V-6.4375L3-6.53125l-2.60937.375Zm0 0"/><path id="f" d="M.42188 0h3.92187v-.5c-1-.04687-1.14062-.09375-1.14062-.64062v-2.89063c0-.67187.125-.98437.45312-.98437.20313 0 .39063.10937.6875.26562.17188.125.34375.21875.59375.21875.26563 0 .53125-.14062.65625-.34375.14063-.1875.21875-.45312.21875-.73437 0-.5625-.35937-.92188-.90625-.92188-.53125 0-.95312.35938-1.71875 1.15625l-.17187-1.15625-2.53125.375v.46875l.45312.07813c.20313.01562.32813.125.32813.64062v3.82813c0 .54687-.10938.59375-.84375.64062Zm0 0"/><path id="g" d="M.42188 0h3.48437v-.5l-.25-.03125c-.28125-.01562-.45312-.0625-.45312-.48437v-3.01563c0-1.125.65625-1.5 1.21875-1.5.64062 0 .9375.54688.9375 1.26563v3.25c0 .42187-.14063.46875-.42188.48437L4.67188-.5V0h3.34375v-.5L7.75-.53125c-.26562-.01562-.40625-.0625-.40625-.48437v-3.01563c0-1.125.57813-1.5 1.14063-1.5.64062 0 .98437.54688.98437 1.26563v3.25c0 .42187-.14062.46875-.40625.48437L8.78125-.5V0h3.5v-.5c-.75-.04687-.82812-.09375-.82812-.64062v-3.375c0-1.20313-.67188-2.01563-2.04688-2.01563-.90625 0-1.71875.625-2.26562.98438-.26563-.46875-.79688-.98438-1.76563-.98438-.84375 0-1.45312.45313-2.17187.90625l-.15625-.90625-2.5625.375v.46875l.45312.07813c.20313.01562.32813.125.32813.64062v3.82813c0 .54687-.10938.59375-.84375.64062Zm0 0"/><path id="h" d="M.98438-8.23437c0 .625.4375 1.15625 1.17187 1.15625.71875 0 1.21875-.53125 1.21875-1.15625 0-.60938-.46875-1.125-1.21875-1.125-.73437 0-1.17187.51562-1.17187 1.125M.42188 0h3.65625v-.5c-.75-.04687-.875-.09375-.875-.64062V-6.4375l-.0625-.09375-2.65625.375v.46875l.45312.07813c.20313.01562.32813.125.32813.64062v3.82813c0 .54687-.10938.59375-.84375.64062Zm0 0"/><path id="i" d="M.42188 0h3.48437v-.5l-.25-.03125c-.28125-.01562-.45312-.0625-.45312-.48437V-4.125c0-.28125.0625-.57812.15625-.75.17187-.34375.51562-.65625 1.04687-.65625.67188 0 1.01563.42188 1.04688 1.1875v3.32813c0 .42187-.14063.46875-.42188.48437L4.75-.5V0h3.5v-.5c-.73437-.04687-.85937-.09375-.85937-.64062v-3.375c0-1.21875-.59375-2.01563-1.9375-2.01563-.76563 0-1.39063.39063-2.25.90625l-.15625-.90625-2.5625.375v.46875l.45312.07813c.20313.01562.32813.125.32813.64062v3.82813c0 .54687-.10938.59375-.84375.64062Zm0 0"/><path id="n" d="M.5 0h4.35938v-.46875C3.70313-.54687 3.625-.59375 3.625-1.26562v-2.3125h.76563c1.20312 0 2.17187-.21875 2.76562-.65625.65625-.46875 1.01563-1.15625 1.01563-2.125 0-1.03125-.45313-1.75-1.09375-2.14063-.64063-.39062-1.48438-.48437-2.54688-.48437H.5V-8.5c.92188.03125 1.03125.10938 1.03125.76563v6.46875C1.53125-.59375 1.42188-.54687.5-.5Zm3.125-4.71875v-3.1875c0-.35937.07813-.48437.75-.48437.85938 0 1.60938.5625 1.60938 2.07812 0 .96875-.32813 2.14063-1.64063 2.14063-.51562 0-.71875-.04688-.71875-.54688m0 0"/><path id="o" d="M.51563-3.0625c0 1.90625 1.01562 3.21875 2.65625 3.21875.60937 0 1.17187-.17187 1.84375-.76562v2.46875c0 .53125-.09375.59375-.96875.625v.5H7.8125v-.5c-.75-.03125-.84375-.09375-.84375-.625v-8.39063H6.375l-.5625.40625c-.45312-.23437-1.07812-.40625-1.82812-.40625-1.03125 0-1.9375.29688-2.5.84375-.57813.57813-.96875 1.40625-.96875 2.625m2.0625-.26562c0-1.76563.65625-2.60938 1.46875-2.60938.53125 0 .79687.28125.92187.70313.04688.15625.04688.39062.04688.64062v2.60938c0 .53125-.17188 1.14062-1.03125 1.14062-.84375 0-1.40625-.82812-1.40625-2.48437m0 0"/><path id="p" d="M.48438-5.71875H1.25v4.20313c0 1.1875.85938 1.67187 1.59375 1.67187.54688 0 1.34375-.23437 2.07813-.70312l-.14063-.40625c-.17187.07812-.4375.14062-.73437.14062-.5 0-.84375-.375-.84375-1.20312v-3.70313H4.5625V-6.375H3.20313V-8h-.73438L1.3125-6.375H.48438Zm0 0"/><path id="s" d="M.42188 0h3.09375v-.5L2.8125-.54687c-.35937-.03126-.5-.23438-.54687-.70313-.04688-.46875-.04688-.96875-.04688-2.03125v-4.42187H2.25L5.03125-.23437h.78125l2.71875-7.46875h.04688v6.4375c0 .67187-.09375.71875-1.03125.76562V0h4.03125v-.5c-.9375-.04687-1.01563-.09375-1.01563-.76562v-6.46875c0-.65625.07813-.73438 1.01563-.76563v-.48437H8.21875c-.21875.625-.6875 1.875-1.04687 2.84375L6.07813-3.09375h-.04688L4.51563-7.07812c-.23438-.5625-.53125-1.35938-.70313-1.90625H.39063V-8.5c.92187.03125 1 .10938 1 .76563v4.45312c0 1.0625 0 1.57813-.04688 2.03125-.04687.46875-.17187.65625-.46875.70313L.42188-.5Zm0 0"/><path id="t" d="m2.53125-7.03125.26563.39063 2.375-1.34375c.46875-.25.89062-.51563.89062-.85938 0-.32812-.35937-.78125-.6875-.78125-.26562 0-.48437.15625-.96875.65625ZM.51563-3.1875c0 1.78125.76562 3.34375 3.17187 3.34375 1.54688 0 2.39063-.75 2.84375-1.90625L6.0625-2c-.39062.73438-.95312 1.15625-1.73437 1.15625-1.29688 0-1.75-1.0625-1.75-2.4375h3.375c.46875 0 .6875-.125.6875-.53125 0-1.0625-.42188-2.71875-2.92188-2.71875C1.375-6.53125.51563-5 .51563-3.1875m2.0625-.71875c0-.9375.25-2.03125 1.09375-2.03125.78125 0 .92187 1 .92187 1.60938 0 .35937-.09375.42187-.40625.42187Zm0 0"/><path id="u" d="M.51563-3.0625c0 1.89063.98437 3.21875 2.625 3.21875.48437 0 1.17187-.25 1.875-.8125V0H7.8125v-.5c-.75-.04687-.84375-.09375-.84375-.64062V-9.5625l-.07812-.07812L4.25-9.29687v.46875l.45313.07812c.20312.03125.3125.15625.3125.67188v1.71875c-.28125-.125-.65625-.17188-1.10938-.17188-.95312 0-1.82812.29688-2.42187.84375C.875-5.10937.51563-4.25.51563-3.0625m2.0625-.26562c0-1.90625.71875-2.60938 1.45312-2.60938.48438 0 .75.26563.875.53125.125.1875.10938.46875.10938.75v2.67188c0 .53125-.1875 1.14062-1.01563 1.14062-.84375 0-1.42187-.82812-1.42187-2.48437m0 0"/><path id="w" d="M.26563-6.54687h.5c.4375-1.3125.60937-1.84375 1.79687-1.84375h.51563v7.15625c0 .46875-.09375.67187-.5.6875L1.84375-.5V0h4.57813v-.5L5.6875-.54687c-.42187-.01563-.53125-.21876-.53125-.6875v-7.15625h.54688c1.1875 0 1.35937.53125 1.8125 1.84375H8v-2.4375H.26563Zm0 0"/><path id="x" d="M.51563-3.1875C.51563-1.10937 1.5.15625 3.875.15625c2.35938 0 3.375-1.26562 3.375-3.34375 0-2.0625-1.01562-3.34375-3.375-3.34375C1.5-6.53125.51563-5.25.51563-3.1875m2.0625 0c0-1.73437.375-2.75 1.29687-2.75.92188 0 1.29688 1.01563 1.29688 2.75 0 1.75-.375 2.75-1.29688 2.75-.92187 0-1.29687-1-1.29687-2.75m0 0"/><path id="y" d="m.5625-2.40625.15625 1.9375c.5.45313 1.48438.625 2.21875.625 1.57813 0 2.65625-.70312 2.65625-2.10937 0-1.10938-.71875-1.65625-1.90625-2.10938-.75-.28125-1.3125-.57812-1.3125-1.10937 0-.40625.29688-.76563.82813-.76563.67187 0 1.21875.60938 1.46875 1.59375h.48437v-1.73437c-.53125-.32813-1.26562-.45313-1.95312-.45313-1.57813 0-2.5625.75-2.5625 2.0625 0 .95313.75 1.5625 1.90625 2 .65625.23438 1.3125.60938 1.3125 1.23438 0 .5-.32813.79687-.90625.79687-.84375 0-1.5625-.90625-1.89063-1.96875Zm0 0"/><path id="z" d="M.51563-3.1875c0 1.78125.76562 3.34375 3.17187 3.34375 1.54688 0 2.39063-.75 2.84375-1.90625L6.0625-2c-.39062.73438-.95312 1.15625-1.73437 1.15625-1.29688 0-1.75-1.0625-1.75-2.4375h3.375c.46875 0 .6875-.125.6875-.53125 0-1.0625-.42188-2.71875-2.92188-2.71875C1.375-6.53125.51563-5 .51563-3.1875m2.0625-.71875c0-.9375.25-2.03125 1.09375-2.03125.78125 0 .92187 1 .92187 1.60938 0 .35937-.09375.42187-.40625.42187ZM1.4375-8.84375c0 .34375.42188.60938.89063.85938l2.375 1.34375.28125-.39063-1.90625-1.9375c-.48438-.5-.6875-.65625-.95313-.65625-.3125 0-.6875.45313-.6875.78125m0 0"/><path id="B" d="M-.125 0H2.75v-.5l-.45312-.04687c-.20313-.03126-.25-.17188-.09375-.40625l.875-1.39063H3.125l.95313 1.4375c.14062.23438.03125.34375-.1875.35938L3.625-.5V0h3.59375v-.5c-.54687-.04687-.78125-.15625-1.14062-.64062-.625-.84375-1.23438-1.71875-1.84375-2.625.5-.65625.98437-1.17188 1.4375-1.64063.3125-.3125.5625-.46875 1.10937-.48437V-6.375H4.20313v.48438l.34375.0625c.1875.01562.20312.125.0625.35937L3.84375-4.3125H3.8125L3-5.54687c-.09375-.125-.07812-.25.0625-.28125l.32813-.0625V-6.375H-.01562v.48438c.5625.0625.70312.14062.96875.5.54687.71875 1.09375 1.57812 1.75 2.4375-.51563.64062-.98438 1.25-1.5 1.8125C.78125-.65625.54688-.57812-.125-.5Zm0 0"/><path id="j" d="M.4375-.54687c0 .375.34375.70312.89063.70312.875 0 1.35937-.82812 1.875-1.70312l.5-.85938h.03125l.23437 1c.23438.98438.48438 1.5625 1.17188 1.5625C6.17188.15625 6.73438-.875 7.125-1.75l-.34375-.1875c-.32812.625-.70312 1.32813-1.0625 1.32813-.25 0-.34375-.28126-.59375-1.28125l-.45312-1.84375c.4375-.78125 1.04687-1.71875 1.40625-1.71875.39062 0 .46875.21875.84375.21875.3125 0 .59375-.29688.59375-.6875 0-.42188-.3125-.60938-.6875-.60938-.65625 0-1.23438.5625-1.6875 1.28125l-.57813.89063h-.03125l-.5-2.10938-.0625-.0625L1.6875-5.875l.03125.34375.95313-.0625c.23437 0 .34375.09375.45312.59375l.46875 1.9375-.35937.625c-.5.875-.9375 1.51563-1.25 1.51563-.375 0-.5-.34375-.92188-.34375-.34375 0-.625.35937-.625.71875m0 0"/><path id="q" d="M.90625-3.48437c0 1.92187 1 3.34375 3.04688 3.625C4.51563 1.25 5.78125 2.59375 7.5 2.59375c.35938 0 .78125-.0625 1.01563-.20312l-.03125-.25c-1.1875-.01563-2.17188-1-2.82813-2.03125 2.73438-.42188 4.07813-3.1875 4.07813-5.5 0-2.65625-1.625-3.8125-3.78125-3.8125-3.40625 0-5.04688 3.0625-5.04688 5.71875m1.5625.625c0-2.28125 1.09375-5.84375 3.5625-5.84375 1.35938 0 2.125.84375 2.125 2.51562 0 2.875-1.35937 5.89063-3.53125 5.89063-1.32812 0-2.15625-.875-2.15625-2.5625m0 0"/><path id="k" d="M.29688 0H2.5625v-.26562c-.67187-.04688-.70312-.0625-.70312-.54688v-2.17187c0-.23438 0-.35938.07812-.48438.17188-.375.57813-.6875 1.09375-.6875.79688 0 .90625.57813.90625 1.15625v2.1875c0 .48438-.03125.5-.70312.54688V0h2.25v-.26562c-.65625-.04688-.6875-.0625-.6875-.54688v-2.17187c0-.23438.01562-.35938.07812-.5.125-.375.53125-.67188 1.04688-.67188.57812 0 .9375.32813.9375 1.15625v2.1875c0 .48438-.03125.5-.70313.54688V0H8.4375v-.26562c-.67187-.04688-.70312-.0625-.70312-.54688v-2.375c0-.9375-.5-1.46875-1.39063-1.46875-.75 0-1.29687.5-1.625.70313-.21875-.4375-.57812-.70313-1.23437-.70313-.70313 0-1.29688.46875-1.625.70313l-.07813-.70313-1.4375.23438v.21875l.34375.0625C.92188-4.10937 1-4.0625 1-3.73437V-.8125c0 .48438-.03125.5-.70312.54688Zm0 0"/><path id="l" d="M.84375-6.07812c0 .34375.25.57812.57813.57812.32812 0 .5625-.23437.5625-.57812 0-.32813-.23438-.5625-.5625-.5625-.32813 0-.57813.23437-.57813.5625M.29688 0H2.5625v-.26562c-.67187-.04688-.70312-.0625-.70312-.54688v-3.79687l-.0625-.04688-1.45313.23438v.21875l.34375.0625C.92188-4.10937 1-4.0625 1-3.73437V-.8125c0 .48438-.03125.5-.70312.54688Zm0 0"/><path id="m" d="M.29688 0H2.5625v-.26562c-.67187-.04688-.70312-.0625-.70312-.54688v-2.17187c0-.23438.01562-.35938.09374-.5.20313-.35938.60938-.67188 1.10938-.67188.625 0 .96875.34375.96875 1.15625v2.1875c0 .48438-.01562.5-.6875.54688V0h2.26563v-.26562c-.65625-.04688-.70313-.0625-.70313-.54688v-2.375c0-.9375-.51562-1.46875-1.35937-1.46875-.6875 0-1.125.32813-1.6875.70313l-.125-.70313-1.39063.23438v.21875l.34375.0625C.92188-4.10937 1-4.0625 1-3.73437V-.8125c0 .48438-.03125.5-.70312.54688Zm0 0"/><path id="C" d="M.45313-1.20312c0 .6875.46875 1.3125 1.32812 1.3125.54688 0 1.09375-.35938 1.39063-.54688.125.34375.28125.54688.60937.54688.34375 0 .73438-.09375 1.09375-.28126l-.0625-.21874c-.125.03125-.32812.04687-.46875 0-.17187-.03125-.32812-.20313-.32812-.78125v-2.25c0-.54688-.10938-1.23438-1.51563-1.23438-1.04687 0-1.875.53125-1.875 1.04688 0 .29687.34375.4375.51563.4375.20312 0 .25-.09375.29687-.25.21875-.70313.59375-.90625.96875-.90625.35938 0 .78125.1875.78125.92187v.39063c-.25.23437-1.14062.46875-1.875.70312-.67187.20313-.85937.67188-.85937 1.10938m.9375-.125c0-.4375.20312-.67188.71875-.85938.375-.14062.85937-.32812 1.07812-.45312v1.3125c0 .75-.57812.9375-.95312.9375-.5625 0-.84375-.40625-.84375-.9375m0 0"/><path id="D" d="M.01563 0h1.76562v-.26562l-.375-.04688c-.125-.01562-.125-.125-.07812-.23437.21874-.39063.51562-.82813.82812-1.3125h.01563L3-.57812c.09375.15624.07813.25-.0625.26562l-.39062.04688V0h2.17187v-.26562c-.40625-.01563-.5625-.04688-.79687-.39063-.42188-.60937-.875-1.25-1.28125-1.90625.3125-.45312.67187-.9375 1.03125-1.375.23437-.28125.35937-.3125.8125-.34375v-.26562H2.75v.26562l.375.03125c.14063.03125.125.125.0625.21875q-.32812.53906-.75 1.17188h-.01562l-.76563-1.15625c-.09375-.10938-.0625-.21875.07813-.23438l.28124-.03125v-.26562H.07813v.26562c.375.03125.45313.03125.6875.34375.375.54688.78126 1.14063 1.1875 1.73438-.35937.5-.70312 1.03125-1.09374 1.53125-.23438.32812-.4375.375-.84375.40625Zm0 0"/><path id="r" d="M1 0h3.17188v-.3125l-.71875-.04687c-.20313-.03125-.29688-.09375-.29688-.4375V-6.25l-.07812-.0625-2.04688.34375v.26563l.73438.10937c.20312.03125.26562.10938.26562.40625v4.39063c0 .34375-.09375.40625-.3125.4375L1-.3125Zm0 0"/><path id="v" d="M.28125-.125.39063 0h4.01562l.35938-1.40625-.29688-.04687c-.23437.5-.40625.5625-.78125.5625H1.32813c.15624-.40625.59375-1.01563 1.53125-1.59375.96875-.625 1.625-1.07813 1.625-2.07813 0-1.29687-.89063-1.75-1.95313-1.75C1.28125-6.3125.5-5.625.5-4.98437c0 .35937.40625.51562.64063.51562.17187 0 .26562-.09375.32812-.29687.14063-.67188.48438-1.17188 1-1.17188.60938 0 .8125.53125.8125 1.1875 0 .8125-.34375 1.45313-1.25 2.21875C.8125-1.48437.39063-.79687.28125-.125m0 0"/><path id="A" d="M.28125-1.01562c0 .375.5625 1.125 2.04688 1.125 1.40625 0 2.28125-.65625 2.28125-1.84375 0-1.28125-1.125-1.60938-1.5625-1.65625v-.03125c.5-.10938 1.29687-.45313 1.29687-1.35938 0-1.14062-.95312-1.53125-1.9375-1.53125C1.25-6.3125.5-5.67187.5-5.14062c0 .32812.40625.5.57813.5.15624 0 .25-.09375.29687-.25.20313-.65625.51563-1.04688 1-1.04688.64063 0 .79688.67188.79688 1.125 0 .45313-.125 1.25-.875 1.25-.40625 0-.6875-.10937-.84375-.10937-.15626 0-.20313.10937-.20313.29687s.04688.32813.20313.32813c.15624 0 .4375-.10938.84375-.10938.64062 0 1.09375.48438 1.09375 1.45313C3.39063-.6875 2.95313-.25 2.34375-.25c-.53125 0-.89062-.40625-1.10937-1.07812-.0625-.17188-.17188-.26563-.32813-.26563-.25 0-.625.20313-.625.57813m0 0"/><path id="E" d="m.20313-1.85937.125.21874h2.45312v.9375c0 .26563-.10937.32813-.29687.34376l-.59375.04687V0h2.625v-.3125l-.4375-.03125c-.1875-.03125-.25-.09375-.25-.35937v-.9375h.9375v-.51563h-.9375v-4.04687H2.9375C2.01563-4.84375 1.03125-3.29687.20313-1.85937M1-2.15625c.51563-.9375 1.125-1.96875 1.78125-3.01562v3.01562Zm0 0"/><path id="F" d="M.45313-2.1875c0 1.375.71875 2.29688 1.95312 2.29688.5 0 .92188-.23438 1.42188-.625v.45312L3.90625 0h1.5v-.26562c-.65625-.04688-.6875-.0625-.6875-.54688v-6.01562l-.0625-.0625-1.46875.23437v.23438l.35938.03125c.23437.03125.29687.07812.29687.4375v1.51562c-.26562-.14062-.60937-.21875-1.03125-.21875-.76562 0-1.32812.23438-1.71875.64063C.70313-3.60937.45313-2.98437.45313-2.1875m.96875-.10937c0-1.20313.4375-2.03125 1.375-2.03125.4375 0 .79687.1875.96875.57812.07812.15625.07812.29688.07812.54688v1.625c0 .20312 0 .35937-.0625.51562-.1875.48438-.59375.67188-1.07812.67188-.84375 0-1.28125-.82813-1.28125-1.90625m0 0"/><path id="G" d="M.45313-2.23437c0 1.46875.64062 2.34375 2.14062 2.34375 1.03125 0 1.5625-.57813 1.8125-1.29688L4.125-1.34375c-.25.54688-.60937.98438-1.34375.98438-1.15625 0-1.375-1.10938-1.35937-2.07813h2.67187c.20313 0 .375-.04687.375-.35937 0-.54688-.1875-1.85938-1.875-1.85938-1.45312 0-2.14062 1.01563-2.14062 2.42188m.98437-.5625c0-.39063.125-1.53125 1.09375-1.53125.85938 0 .96875.875.96875 1.23437 0 .1875-.0625.29688-.3125.29688Zm0 0"/><path id="H" d="M.1875 0h2.26563v-.26562C1.78125-.3125 1.75-.32812 1.75-.8125v-6.01562l-.0625-.0625-1.45312.23437v.23438l.34375.03125c.23437.03125.29687.07812.29687.4375V-.8125c0 .48438-.01562.5-.6875.54688Zm0 0"/><path id="I" d="m.67188-4.53125.15624.14063c.46876-.42188 1.09376-1.04688 1.09376-1.70313 0-.5-.29688-.79687-.60938-.79687-.28125 0-.4375.20312-.4375.45312 0 .32813.29688.51563.29688.875 0 .34375-.21876.6875-.5 1.03125m0 0"/><path id="J" d="M.28125-4.17187H1V-.8125c0 .48438-.03125.5-.70312.54688V0h2.35937v-.26562c-.75-.04688-.79687-.0625-.79687-.53125v-3.375h2.09375V-.8125c0 .48438-.01563.5-.6875.54688V0h2.4375v-.26562c-.84375-.04688-.875-.0625-.875-.53125v-3.375h1.125v-.375h-1.125l-.03125-1.04688c-.03125-.875.28125-.96875.4375-.96875.20312 0 .39062.07813.625.625.0625.09375.10937.15625.25.15625.1875 0 .46875-.15625.46875-.4375 0-.29687-.39063-.67187-1.14063-.67187-.46875 0-.89062.20312-1.125.51562-.32812-.20312-.875-.375-1.35937-.375-.5 0-1.20313.23438-1.4375.59375C1.29687-5.84375 1-5.40625 1-4.79687v.25H.28125Zm3.8125-1.48438c-.0625.21875-.07812.48438-.07812.78125v.32813H1.9375V-5c0-1.04687.46875-1.40625.89063-1.40625.48437 0 .75.17188 1.09375.60938.04687.0625.09375.125.17187.14062m0 0"/><path id="K" d="M.45313-2.23437c0 1.54687.76562 2.34375 2.15625 2.34375.65625 0 1.53125-.34375 1.78125-1.32813L4.125-1.35937c-.29687.65625-.65625.98437-1.34375.98437-1.10937 0-1.35937-1.15625-1.35937-2.03125 0-1.375.54687-1.92187 1.1875-1.92187.42187 0 .6875.29687.875.79687.0625.15625.125.25.29687.25.1875 0 .54688-.125.54688-.48437 0-.42188-.60938-.89063-1.625-.89063-1.6875 0-2.25 1.1875-2.25 2.42188m0 0"/><path id="L" d="M.28125-4.17187h.67188v3.21875c0 .95312.70312 1.0625 1.03125 1.0625.46875 0 .92187-.23438 1.1875-.40625L3.09375-.5c-.21875.09375-.42187.125-.65625.125-.3125 0-.60937-.23437-.60937-.92187v-2.875h1.1875v-.375h-1.1875v-1.17188H1.5625L1-4.54687H.28125Zm0 0"/><path id="M" d="M.84375-6.07812c0 .34375.25.57812.57813.57812.32812 0 .5625-.23437.5625-.57812 0-.32813-.23438-.5625-.5625-.5625-.32813 0-.57813.23437-.57813.5625M.29688 0H2.5625v-.26562c-.67187-.04688-.70312-.0625-.70312-.54688v-3.79687l-.0625-.04688-1.45313.23438v.21875l.34375.0625C.92188-4.10937 1-4.0625 1-3.73437V-.8125c0 .48438-.03125.5-.70312.54688Zm0 0"/><path id="N" d="M.28125-4.17187H1V-.8125c0 .48438-.03125.5-.70312.54688V0H2.75v-.26562c-.85937-.04688-.89062-.0625-.89062-.53125v-3.375H3v-.375H1.85938l-.03126-1.04688c-.03124-.875.29688-.96875.4375-.96875.20313 0 .40625.07813.64063.625.04688.09375.10938.15625.25.15625.1875 0 .45313-.15625.45313-.4375 0-.29687-.39063-.67187-1.125-.67187-.51563 0-.9375.23437-1.1875.59375C1.09375-5.96875 1-5.48437 1-4.875v.32813H.28125Zm0 0"/></defs><path fill="none" stroke="#000" stroke-miterlimit="10" stroke-width=".79059" d="M60.8086 49.47266H735.656"/><path fill="none" stroke="#000" stroke-miterlimit="10" stroke-width=".39529" d="M60.8086 60.71875V38.22657"/><use xlink:href="#a" x="9.34676" y="16.33939"/><use xlink:href="#b" x="16.94241" y="16.33939"/><use xlink:href="#c" x="24.15066" y="16.33939"/><use xlink:href="#d" x="28.30128" y="16.33939"/><use xlink:href="#e" x="35.16364" y="16.33939"/><use xlink:href="#f" x="43.47872" y="16.33939"/><use xlink:href="#g" x="52.19503" y="16.33939"/><use xlink:href="#h" x="64.66074" y="16.33939"/><use xlink:href="#i" x="68.90821" y="16.33939"/><use xlink:href="#h" x="77.33398" y="16.33939"/><use xlink:href="#g" x="81.58145" y="16.33939"/><use xlink:href="#b" x="94.04716" y="16.33939"/><use xlink:href="#c" x="101.25541" y="16.33939"/><use xlink:href="#d" x="105.40603" y="16.33939"/><use xlink:href="#j" x="47.84829" y="28.19914"/><use xlink:href="#k" x="55.92871" y="31.24244"/><use xlink:href="#l" x="64.49678" y="31.24244"/><use xlink:href="#m" x="67.19468" y="31.24244"/><path fill="none" stroke="#000" stroke-miterlimit="10" stroke-width=".39529" d="M229.51947 60.71875V38.22657"/><use xlink:href="#n" x="178.12497" y="16.33939"/><use xlink:href="#f" x="186.5784" y="16.33939"/><use xlink:href="#d" x="192.16791" y="16.33939"/><use xlink:href="#g" x="199.03027" y="16.33939"/><use xlink:href="#h" x="211.49598" y="16.33939"/><use xlink:href="#d" x="215.74345" y="16.33939"/><use xlink:href="#f" x="222.60582" y="16.33939"/><use xlink:href="#o" x="231.30829" y="16.33939"/><use xlink:href="#e" x="239.20831" y="16.33939"/><use xlink:href="#b" x="247.52339" y="16.33939"/><use xlink:href="#f" x="254.73164" y="16.33939"/><use xlink:href="#p" x="260.70854" y="16.33939"/><use xlink:href="#h" x="265.64778" y="16.33939"/><use xlink:href="#c" x="269.89525" y="16.33939"/><use xlink:href="#d" x="274.04588" y="16.33939"/><use xlink:href="#q" x="221.5902" y="28.19914"/><use xlink:href="#r" x="231.52557" y="31.24244"/><path fill="none" stroke="#000" stroke-miterlimit="10" stroke-width=".39529" d="M398.23034 60.71875V38.22657"/><use xlink:href="#s" x="371.39936" y="16.33939"/><use xlink:href="#t" x="383.46383" y="16.33939"/><use xlink:href="#u" x="390.3262" y="16.33939"/><use xlink:href="#h" x="398.30923" y="16.33939"/><use xlink:href="#b" x="402.5567" y="16.33939"/><use xlink:href="#i" x="409.76495" y="16.33939"/><use xlink:href="#d" x="418.19072" y="16.33939"/><use xlink:href="#q" x="390.29996" y="28.19914"/><use xlink:href="#v" x="400.23334" y="31.24244"/><path fill="none" stroke="#000" stroke-miterlimit="10" stroke-width=".39529" d="M566.94122 60.71875V38.22657"/><use xlink:href="#w" x="510.01734" y="16.23028"/><use xlink:href="#f" x="517.28093" y="16.23028"/><use xlink:href="#x" x="523.05029" y="16.23028"/><use xlink:href="#h" x="530.78429" y="16.23028"/><use xlink:href="#y" x="535.03176" y="16.23028"/><use xlink:href="#h" x="540.95332" y="16.23028"/><use xlink:href="#z" x="545.20079" y="16.23028"/><use xlink:href="#g" x="552.06315" y="16.23028"/><use xlink:href="#d" x="564.52886" y="16.23028"/><use xlink:href="#o" x="574.25515" y="16.23028"/><use xlink:href="#e" x="582.15517" y="16.23028"/><use xlink:href="#b" x="590.47026" y="16.23028"/><use xlink:href="#f" x="597.67851" y="16.23028"/><use xlink:href="#p" x="603.6554" y="16.23028"/><use xlink:href="#h" x="608.59465" y="16.23028"/><use xlink:href="#c" x="612.84212" y="16.23028"/><use xlink:href="#d" x="616.99274" y="16.23028"/><use xlink:href="#q" x="559.00972" y="28.09002"/><use xlink:href="#A" x="568.9431" y="31.13332"/><path fill="none" stroke="#000" stroke-miterlimit="10" stroke-width=".39529" d="M735.656 60.71875V38.22657"/><use xlink:href="#a" x="683.4577" y="16.23028"/><use xlink:href="#b" x="691.06718" y="16.23028"/><use xlink:href="#c" x="698.27543" y="16.23028"/><use xlink:href="#d" x="702.42605" y="16.23028"/><use xlink:href="#e" x="709.28841" y="16.23028"/><use xlink:href="#f" x="717.6035" y="16.23028"/><use xlink:href="#g" x="726.30597" y="16.23028"/><use xlink:href="#b" x="738.77168" y="16.23028"/><use xlink:href="#B" x="745.97993" y="16.23028"/><use xlink:href="#h" x="752.89763" y="16.23028"/><use xlink:href="#g" x="757.1451" y="16.23028"/><use xlink:href="#b" x="769.61081" y="16.23028"/><use xlink:href="#c" x="776.81906" y="16.23028"/><use xlink:href="#d" x="780.96968" y="16.23028"/><use xlink:href="#j" x="722.22705" y="28.09002"/><use xlink:href="#k" x="730.30747" y="31.13332"/><use xlink:href="#C" x="738.87554" y="31.13332"/><use xlink:href="#D" x="743.72781" y="31.13332"/><use xlink:href="#r" x="118.70125" y="62.76956"/><path fill="none" stroke="#000" stroke-miterlimit="10" stroke-width=".54359" d="M118.70313 64.125h5.08593"/><use xlink:href="#E" x="118.70125" y="71.14558"/><use xlink:href="#F" x="128.24777" y="66.74331"/><use xlink:href="#G" x="133.80169" y="66.74331"/><use xlink:href="#H" x="140.6601" y="66.74331"/><use xlink:href="#I" x="143.17024" y="66.74331"/><use xlink:href="#G" x="145.09732" y="66.74331"/><use xlink:href="#J" x="149.87053" y="66.74331"/><use xlink:href="#G" x="155.78023" y="66.74331"/><use xlink:href="#K" x="160.55345" y="66.74331"/><use xlink:href="#L" x="165.15866" y="66.74331"/><use xlink:href="#M" x="168.35068" y="66.74331"/><use xlink:href="#N" x="171.04859" y="66.74331"/><use xlink:href="#r" x="287.411" y="62.76956"/><path fill="none" stroke="#000" stroke-miterlimit="10" stroke-width=".54359" d="M287.41016 64.125H292.5"/><use xlink:href="#E" x="287.411" y="71.14558"/><use xlink:href="#F" x="296.95752" y="66.74331"/><use xlink:href="#G" x="302.51145" y="66.74331"/><use xlink:href="#H" x="309.36986" y="66.74331"/><use xlink:href="#I" x="311.87012" y="66.74331"/><use xlink:href="#G" x="313.79719" y="66.74331"/><use xlink:href="#J" x="318.57041" y="66.74331"/><use xlink:href="#G" x="324.4801" y="66.74331"/><use xlink:href="#K" x="329.25332" y="66.74331"/><use xlink:href="#L" x="333.85853" y="66.74331"/><use xlink:href="#M" x="337.05056" y="66.74331"/><use xlink:href="#N" x="339.74846" y="66.74331"/><use xlink:href="#r" x="456.12175" y="62.76956"/><path fill="none" stroke="#000" stroke-miterlimit="10" stroke-width=".54359" d="M456.1211 64.125h5.08984"/><use xlink:href="#E" x="456.12175" y="71.14558"/><use xlink:href="#F" x="465.66827" y="66.74331"/><use xlink:href="#G" x="471.2222" y="66.74331"/><use xlink:href="#H" x="478.07073" y="66.74331"/><use xlink:href="#I" x="480.58087" y="66.74331"/><use xlink:href="#G" x="482.50794" y="66.74331"/><use xlink:href="#J" x="487.28116" y="66.74331"/><use xlink:href="#G" x="493.19085" y="66.74331"/><use xlink:href="#K" x="497.96407" y="66.74331"/><use xlink:href="#L" x="502.56928" y="66.74331"/><use xlink:href="#M" x="505.76131" y="66.74331"/><use xlink:href="#N" x="508.45921" y="66.74331"/><use xlink:href="#r" x="624.82952" y="62.76956"/><path fill="none" stroke="#000" stroke-miterlimit="10" stroke-width=".54359" d="M624.82813 64.125h5.08984"/><use xlink:href="#E" x="624.82952" y="71.14558"/><use xlink:href="#F" x="634.37604" y="66.74331"/><use xlink:href="#G" x="639.92997" y="66.74331"/><use xlink:href="#H" x="646.78838" y="66.74331"/><use xlink:href="#I" x="649.29852" y="66.74331"/><use xlink:href="#G" x="651.22559" y="66.74331"/><use xlink:href="#J" x="655.99881" y="66.74331"/><use xlink:href="#G" x="661.90851" y="66.74331"/><use xlink:href="#K" x="666.68172" y="66.74331"/><use xlink:href="#L" x="671.28694" y="66.74331"/><use xlink:href="#M" x="674.47896" y="66.74331"/><use xlink:href="#N" x="677.17687" y="66.74331"/></svg>