<svg xmlns="http://www.w3.org/2000/svg" xmlns:xlink="http://www.w3.org/1999/xlink" width="488.916pt" height="237.18pt" viewBox="0 0 488.916 237.18"><defs><path id="a" d="M.39063-.48437c0 .35937.28125.625.76562.625.82813 0 1.29688-.82813 1.79688-1.64063l.5-.79687h.01562l.21875.95312C3.92188-.375 4.14063.14063 4.76563.14063c.89062 0 1.35937-.92188 1.71875-1.65625l-.3125-.15626c-.29688.53126-.64063 1.1875-.96875 1.1875-.23438 0-.32813-.28125-.59375-1.35937L4.21875-3.4375c.4375-.76562 1.0625-1.73437 1.40625-1.73437.35938 0 .375.1875.73438.1875.28125 0 .51562-.25.51562-.57813 0-.375-.28125-.53125-.60937-.53125-.65625 0-1.1875.57813-1.625 1.26563L4.10938-4h-.01563l-.5-2.04687-.0625-.04688-2 .60938.03125.29687.95313-.0625c.1875 0 .28125.09375.40625.60938l.42187 1.75L3-2.3125c-.51562.89063-.95312 1.53125-1.25 1.53125-.35937 0-.45312-.29687-.82812-.29687-.3125 0-.53125.29687-.53125.59375m0 0"/><path id="b" d="M1.03125-3.07812h2.98438v2.98437h.70312v-2.98437h2.98438v-.70313H4.71875v-2.98437h-.70312v2.98437H1.03125Zm0 0"/><path id="c" d="M.32813-.10937.46875 0h5.01563l.40625-1.59375-.32813-.07812c-.26562.67187-.5.75-1 .75H1.46875c.20313-.625.92188-1.48438 2.04688-2.3125 1.15625-.84375 2.0625-1.39063 2.0625-2.73438 0-1.70312-1.125-2.28125-2.40625-2.28125C1.51563-8.25.65625-7.23437.65625-6.60937.65625-6.1875 1.125-6 1.32813-6c.21874 0 .29687-.125.34375-.34375.20312-.8125.67187-1.48437 1.42187-1.48437.9375 0 1.20313.78125 1.20313 1.67187 0 1.29688-.65625 2.04688-1.71875 2.96875-1.5 1.29688-2.01563 2.125-2.25 3.07813m0 0"/><path id="e" d="m.25-2.42187.09375.25h3.3125v1.25c0 .40625-.14062.46875-.42187.5l-.78125.07812V0h3.20312v-.34375l-.54687-.0625C4.82813-.45312 4.75-.51562 4.75-.92187v-1.25h1.23438v-.5625H4.75v-5.375h-.89062c-1.14063 1.6875-2.5 3.78125-3.60938 5.6875m.875-.3125c.71875-1.3125 1.59375-2.71875 2.53125-4.20313v4.20313Zm0 0"/><clipPath id="d"><path d="M477 211h11.03125v16H477Zm0 0"/></clipPath><clipPath id="f"><path d="M335 0h153.03125v214H335Zm0 0"/></clipPath></defs><path fill="none" stroke="#007f7f" stroke-miterlimit="10" stroke-width=".39713" d="M36.10547 188.83984V51.07807"/><path fill="#007f7f" stroke="#007f7f" stroke-miterlimit="10" stroke-width=".39713" d="M36.10547 192.66406c.125-.46875.83984-2.53515 1.6211-3.82422h-3.2422c.77735 1.28907 1.4961 3.35547 1.6211 3.82422Zm0-145.41406c-.125.47265-.84375 2.53516-1.6211 3.82812h3.2422c-.78126-1.29296-1.4961-3.35547-1.6211-3.82812Zm0 0"/><use xlink:href="#a" x="5.10252" y="124.01126" fill="#007f7f"/><use xlink:href="#b" x="14.56321" y="124.01126" fill="#007f7f"/><use xlink:href="#c" x="25.08226" y="124.01126" fill="#007f7f"/><path fill="none" stroke="red" stroke-miterlimit="10" stroke-width=".39713" d="M186.70318 193.40624v-7.34765h7.34375m0-132.23443h-7.34375v-7.34375M54.46875 46.4804v7.34376H47.1211m0 132.23443h7.34765v7.34765m64.8594 2.97656.4961-5.95703m1.49218 5.95703.4961-5.95703m75.18362-69.22658-5.95703-.4961m5.95703-1.48828-5.95703-.5m-69.22659-75.18362-.4961 5.95703m-1.49218-5.95703-.4961 5.95703m-75.18362 69.22659 5.95703.4961m-5.95703 1.49219 5.95703.49609"/><path fill="none" stroke="#000" stroke-miterlimit="10" stroke-width=".39713" d="M47.1211 193.40624h146.92583V46.48041H47.1211Zm0 0"/><path fill="none" stroke="#007f7f" stroke-miterlimit="10" stroke-width=".39713" d="M345.48058 219.11329h137.76177"/><path fill="#007f7f" stroke="#007f7f" stroke-miterlimit="10" stroke-width=".39713" d="M341.65625 219.11328c.46875.125 2.53516.83985 3.82422 1.61719v-3.23828c-1.28906.77734-3.35547 1.49218-3.82422 1.6211Zm0 0"/><path fill="#007f7f" d="M487.0664 219.11328c-.46874-.1289-2.53124-.84375-3.82421-1.6211v3.23829c1.29297-.77734 3.35547-1.49219 3.82422-1.61719m0 0"/><g clip-path="url(#d)"><path fill="none" stroke="#007f7f" stroke-miterlimit="10" stroke-width=".39713" d="M487.0664 219.11328c-.46874-.1289-2.53124-.84375-3.82421-1.6211v3.23829c1.29297-.77734 3.35547-1.49219 3.82422-1.61719Zm0 0"/></g><g fill="#007f7f"><use xlink:href="#c" x="407.29104" y="231.91919"/><use xlink:href="#a" x="413.74444" y="231.91919"/></g><path fill="none" stroke="#007f7f" stroke-miterlimit="10" stroke-width=".39713" d="M331.41808 203.78906 401.82435 4.5429"/><path fill="#007f7f" stroke="#007f7f" stroke-miterlimit="10" stroke-width=".39711" d="M330.14453 207.39453c.27344-.39843 1.63672-2.10937 2.80078-3.0664l-3.05469-1.07813c.3047 1.47656.28907 3.66016.25391 4.14453ZM403.09766.9375c-.27735.39844-1.63672 2.10937-2.80079 3.0664l3.0547 1.07813c-.3047-1.47656-.29298-3.66016-.25391-4.14453Zm0 0"/><use xlink:href="#a" x="335.61385" y="108.1491" fill="#007f7f"/><use xlink:href="#b" x="345.07454" y="108.1491" fill="#007f7f"/><use xlink:href="#e" x="355.59359" y="108.1491" fill="#007f7f"/><path fill="none" stroke="red" stroke-miterlimit="10" stroke-width=".39713" d="m453.97672 103.41402-5.78126 1.51563m-73.28127-1.9961 5.44922 2.45313"/><g clip-path="url(#f)"><path fill="none" stroke="#000" stroke-miterlimit="10" stroke-width=".39713" d="M340.91417 208.09375h146.92584L414.37514.19523Zm0 0"/></g></svg>