<svg xmlns="http://www.w3.org/2000/svg" xmlns:xlink="http://www.w3.org/1999/xlink" width="845.958pt" height="410.286pt" viewBox="0 0 845.958 410.286"><defs><path id="a" d="M.67188-.82812C.67188-.21876 1.15625.25 2.01563.25 3.45313.25 4.25-1.1875 5.125-2.59375l.84375-1.39062h.04688l.39062 1.65625C6.79688-.65625 7.1875.25 8.25.25c1.54688 0 2.35938-1.59375 2.98438-2.875l-.54688-.28125c-.5.9375-1.09375 2.0625-1.67187 2.0625-.40625 0-.5625-.46875-1.03125-2.35937l-.67188-2.75C8.07813-7.29687 9.15625-8.96875 9.75-8.96875c.625 0 .65625.32813 1.28125.32813.46875 0 .89063-.4375.89063-1 0-.65625-.48438-.92188-1.0625-.92188-1.125 0-2.0625 1.01563-2.79688 2.1875l-.92187 1.4375h-.04688L6.25-10.46875l-.125-.09375-3.46875 1.04688L2.70313-9l1.65625-.10937c.34375 0 .5.15625.70312 1.04687l.73438 3.04688L5.21875-4c-.90625 1.53125-1.6875 2.64063-2.20312 2.64063-.59375 0-.75-.51563-1.42188-.51563-.54687 0-.92187.53125-.92187 1.04688m0 0"/><path id="b" d="M1.79688-5.32812h5.15625v5.17187H8.1875v-5.17187h5.17188V-6.5625H8.1875v-5.15625H6.95313v5.15625H1.79688Zm0 0"/><path id="c" d="M.5625-.20312.78125 0h8.70313l.71875-2.78125-.57813-.10937C9.17188-1.75 8.75-1.59375 7.89063-1.59375H2.53125c.32813-1.09375 1.57813-2.59375 3.53125-4 2.01563-1.48437 3.57813-2.42187 3.57813-4.76562 0-2.9375-1.9375-3.9375-4.15625-3.9375-2.89063 0-4.35938 1.75-4.35938 2.84375 0 .71875.79688 1.04687 1.15625 1.04687.375 0 .51563-.21875.60938-.57812.32812-1.4375 1.15625-2.57813 2.45312-2.57813 1.60938 0 2.07813 1.34375 2.07813 2.89063 0 2.26562-1.14063 3.53125-2.96875 5.14062C1.85938-3.26562.96875-1.82812.5625-.20312m0 0"/><path id="e" d="m.40625-4.20312.17188.4375H6.3125v2.15625c0 .71875-.21875.82812-.73437.875l-1.34375.125V0h5.54687v-.60937l-.9375-.10938c-.5-.0625-.625-.17187-.625-.89062v-2.15625h2.14063V-4.75H8.21875v-9.29687H6.67188C4.70313-11.14062 2.32813-7.5.40625-4.20312M1.92188-4.75c1.25-2.28125 2.78125-4.71875 4.39062-7.26562V-4.75Zm0 0"/><clipPath id="d"><path d="M834 372h11.20313v15H834Zm0 0"/></clipPath><clipPath id="f"><path d="M584 0h261.20313v367H584Zm0 0"/></clipPath></defs><path fill="none" stroke="#007F7F" stroke-miterlimit="10" stroke-width=".39781" d="M61.8789 330.51953V84.99213"/><path fill="#007F7F" stroke="#007F7F" stroke-miterlimit="10" stroke-width=".39781" d="M61.8789 334.35156c.125-.46875.84376-2.53906 1.6211-3.83203h-3.2461c.78126 1.29297 1.4961 3.36328 1.625 3.83203Zm0-253.1914c-.1289.47265-.84374 2.53906-1.625 3.83203H63.5c-.77734-1.29297-1.4961-3.35938-1.6211-3.83203Zm0 0"/><use xlink:href="#a" x="8.17187" y="214.78522" fill="#007F7F"/><use xlink:href="#b" x="24.57421" y="214.78522" fill="#007F7F"/><use xlink:href="#c" x="42.81146" y="214.78522" fill="#007F7F"/><path fill="none" stroke="red" stroke-miterlimit="10" stroke-width=".39781" d="M335.62896 335.09765H322.8946v-12.73438h12.73437v12.73438m-.00001-254.6524v12.73438H322.8946V80.44525h12.73437m-254.6485 0h12.73047v12.73438H80.98047V80.44525m0 254.6524v-12.73438h12.73047v12.73438H80.98047m124.33987 3.97656 3.98047-7.95703m-.9961 7.95703 3.97657-7.95703m127.32815-120.36331-7.95703-3.97656m7.95703.99219-7.95703-3.97657M211.2891 76.46869l-3.98048 7.95312m.9961-7.95312-3.97657 7.95312M77 204.78512l7.95703 3.98047M77 207.7695l7.95703 3.98048"/><path fill="none" stroke="#000" stroke-miterlimit="10" stroke-width=".39781" d="M80.98047 335.09765h254.6485V80.44525H80.98046Zm0 0"/><path fill="none" stroke="#007F7F" stroke-miterlimit="10" stroke-width=".39781" d="M594.91027 379.66407h245.5274"/><path fill="#007F7F" stroke="#007F7F" stroke-miterlimit="10" stroke-width=".39781" d="M591.07812 379.66406c.47266.125 2.53907.84375 3.83204 1.625v-3.2461c-1.29297.77735-3.35938 1.4961-3.83204 1.6211Zm0 0"/><path fill="#007F7F" d="M844.26953 379.66406c-.46875-.125-2.53906-.84375-3.83203-1.6211v3.2461c1.29297-.78125 3.36328-1.5 3.83203-1.625m0 0"/><g clip-path="url(#d)"><path fill="none" stroke="#007F7F" stroke-miterlimit="10" stroke-width=".39781" d="M844.26953 379.66406c-.46875-.125-2.53906-.84375-3.83203-1.6211v3.2461c1.29297-.78125 3.36328-1.5 3.83203-1.625Zm0 0"/></g><g fill="#007F7F"><use xlink:href="#c" x="705.68302" y="401.86865"/><use xlink:href="#a" x="716.82677" y="401.86865"/></g><path fill="none" stroke="#007F7F" stroke-miterlimit="10" stroke-width=".39781" d="m572.75792 356.25 124.293-351.74227"/><path fill="#007F7F" stroke="#007F7F" stroke-miterlimit="10" stroke-width=".39779" d="M571.48047 359.86328c.27734-.40234 1.64062-2.11328 2.8086-3.07422l-3.0625-1.07812c.30468 1.47656.29296 3.66797.2539 4.15234ZM698.32422.89453c-.27344.40234-1.64063 2.11328-2.80469 3.07031l3.0586 1.08203c-.3047-1.47656-.28907-3.66796-.25391-4.15234Zm0 0"/><use xlink:href="#a" x="581.19067" y="187.28408" fill="#007F7F"/><use xlink:href="#b" x="597.59301" y="187.28408" fill="#007F7F"/><use xlink:href="#e" x="615.83027" y="187.28408" fill="#007F7F"/><path fill="none" stroke="red" stroke-miterlimit="10" stroke-width=".39781" d="m784.91813 182.12496-7.1797-3.42969m-125.45314-1.90234 3.42968 7.17969"/><g clip-path="url(#f)"><path fill="none" stroke="#000" stroke-miterlimit="10" stroke-width=".39781" d="M590.33605 360.5625h254.6485L717.6603.23039Zm0 0"/></g></svg>