<svg xmlns="http://www.w3.org/2000/svg" xmlns:xlink="http://www.w3.org/1999/xlink" width="112.516pt" height="51.272pt" viewBox="0 0 112.516 51.272"><defs><path id="b" d="M.5-3.54687c0 1.21875.35938 2.20312.98438 2.8125.64062.64062 1.65625.89062 2.82812.89062.82813 0 1.78125-.23437 2.28125-.5l.14063-1.73437h-.3125C6.14063-1 5.59375-.20312 4.23438-.20312c-2.14063 0-2.57813-2.10938-2.57813-3.35938 0-1.70312.67188-3.42187 2.60938-3.42187 1.0625 0 1.79687.4375 2 1.67187h.3125v-1.625c-.46875-.21875-1.25-.40625-2.20313-.40625-1.28125 0-2.3125.375-2.92187 1.0625C.84375-5.60937.5-4.71875.5-3.54687m0 0"/><path id="c" d="M.21875 0h2.51563v-.29687c-.71875-.0625-.76563-.09375-.76563-.60938v-2.4375c0-.25 0-.39062.09375-.54687.21875-.42188.6875-.76563 1.23438-.76563.71875 0 1.09375.39063 1.09375 1.29688v2.45312c0 .51563-.04688.54688-.78125.60938V0h2.53125v-.29687C5.42188-.35937 5.375-.39062 5.375-.90625V-3.5625c0-1.04687-.57812-1.65625-1.54687-1.65625-.75 0-1.21875.375-1.875.79688v-3.21875l-.07813-.0625-1.60937.25v.26562l.39062.04688c.26563.04687.32813.10937.32813.48437v5.75c0 .51563-.03126.54688-.76563.60938Zm0 0"/><path id="d" d="M.51563-2.54687C.51563-.85937 1.34375.125 3 .125c1.67188 0 2.48438-.98437 2.48438-2.67187 0-1.67188-.8125-2.67188-2.48438-2.67188-1.65625 0-2.48437 1-2.48437 2.67188m1.07812 0c0-1.4375.46875-2.29688 1.40625-2.29688.95313 0 1.42188.85938 1.42188 2.29688S3.95313-.25 3-.25c-.9375 0-1.40625-.85937-1.40625-2.29687m0 0"/><path id="e" d="M.95313-6.79687c0 .375.26562.64062.64062.64062s.625-.26562.625-.64062-.25-.625-.625-.625-.64062.25-.64062.625M.32813 0h2.53125v-.29687C2.125-.35937 2.09375-.375 2.09375-.90625v-4.23437l-.07812-.07813-1.625.26563v.26562l.375.04688c.26562.04687.34375.09375.34375.46875v3.26562c0 .53125-.03126.54688-.78125.60938Zm0 0"/><path id="f" d="M.48438-1.73437.59375-.375c.375.32813 1.01563.5 1.60938.5 1.25 0 1.95312-.65625 1.95312-1.53125 0-.92187-.5625-1.32812-1.64062-1.67187-.42188-.125-1.10938-.34375-1.10938-.9375 0-.53125.42188-.82813.9375-.82813.73438 0 1.09375.5625 1.17188 1.20313h.29687v-1.21875c-.34375-.25-.875-.35938-1.34375-.35938-1.125 0-1.89062.53125-1.89062 1.51563 0 .85937.71875 1.25 1.57812 1.51562.46875.14063 1.10938.375 1.10938 1.07813 0 .53125-.40625.85937-.95313.85937C1.46875-.25 1-.84375.78125-1.73437Zm0 0"/><path id="g" d="M.32813 0h2.75v-.29687c-.9375-.0625-.98438-.07813-.98438-.60938v-2.4375c0-.78125.34375-1.0625.59375-1.0625.15625 0 .34375.0625.64063.23438.07812.04687.15625.04687.20312.04687.26563 0 .48438-.26562.48438-.57812 0-.23438-.15625-.51563-.5625-.51563-.375 0-.6875.21875-1.35938.82813l-.125-.82813-1.57812.26563v.26562l.375.04688c.26562.04687.34375.09375.34375.46875v3.26562c0 .53125-.04688.54688-.78125.60938Zm0 0"/><path id="h" d="m.26563-4.6875.39062.04688C.92188-4.59375 1-4.54687 1-4.17187v2.73437C1-.25 1.70313.125 2.46875.125c.89063 0 1.60938-.59375 1.90625-.75L4.46875 0h1.67188v-.29687c-.71875-.0625-.78125-.07813-.78125-.60938v-4.23437l-.07813-.07813-1.625.26563v.26562l.39063.04688c.26562.04687.34375.09375.34375.46875v2.34375c0 .28124-.03125.51562-.09375.60937-.25.48438-.73438.78125-1.26563.78125-.60937 0-1.04687-.375-1.04687-1.1875v-3.51562l-.07813-.07813-1.64062.26563Zm0 0"/><path id="i" d="M.32813 0h2.53125v-.29687C2.125-.35937 2.09375-.375 2.09375-.90625v-2.4375c0-.25 0-.39062.09375-.5625.21875-.40625.6875-.75 1.23438-.75.70312 0 1.09375.39063 1.09375 1.29688v2.45312c0 .53125-.03125.54688-.78125.60938V0h2.54687v-.29687c-.75-.0625-.79687-.07813-.79687-.60938V-3.5625c0-1.04687-.5625-1.65625-1.51563-1.65625-.78125 0-1.25.375-1.89062.79688l-.14063-.79688-1.54687.26563v.26562l.375.04688c.26562.04687.34375.09375.34375.46875v3.26562c0 .53125-.03126.54688-.78125.60938Zm0 0"/><path id="j" d="M.32813 0h2.53125v-.29687C2.125-.35937 2.09375-.375 2.09375-.90625v-2.4375c0-.25 0-.40625.07813-.54687.1875-.42188.64062-.76563 1.21875-.76563.89062 0 1 .65625 1 1.29688v2.45312c0 .53125-.03125.54688-.78125.60938V0h2.53125v-.29687C5.40625-.35937 5.375-.375 5.375-.90625v-2.4375c0-.25 0-.39062.07813-.5625.14062-.40625.59375-.75 1.17187-.75.65625 0 1.04688.375 1.04688 1.29688v2.45312c0 .53125-.03125.54688-.78125.60938V0H9.4375v-.29687c-.75-.0625-.78125-.07813-.78125-.60938V-3.5625c0-1.04687-.5625-1.65625-1.54687-1.65625-.85938 0-1.46875.5625-1.82813.79688-.25-.48438-.65625-.79688-1.375-.79688-.79687 0-1.45312.53125-1.8125.79688l-.10937-.79688-1.59375.26563v.26562l.375.04688c.26562.04687.34375.09375.34375.46875v3.26562c0 .53125-.03126.54688-.78125.60938Zm0 0"/><path id="k" d="m.20313-7.1875.40625.04688c.26562.03125.32812.07812.32812.48437V.04688L1.125.125l.40625-.40625c.375.21875.8125.40625 1.57813.40625C4.5.125 5.70313-.54687 5.70313-2.65625c0-.64062-.14063-2.5625-2-2.5625-.78125 0-1.40625.51563-1.79688.75v-3.17187l-.07812-.0625-1.625.25Zm1.70312 5.5v-1.65625c0-.25.01563-.40625.10938-.57812.25-.5.6875-.73438 1.26562-.73438.4375 0 1.34375.25 1.34375 2.0625C4.625-1.07812 4.15625-.25 3.125-.25c-.54687 0-.95312-.26562-1.14062-.78125-.0625-.1875-.07813-.40625-.07813-.65625m0 0"/><path id="l" d="M.51563-2.5c0 1.64063.70312 2.625 2.39062 2.625 1.14063 0 1.75-.64062 2.01563-1.46875L4.625-1.5c-.29687.60938-.6875 1.09375-1.51562 1.09375-1.28125 0-1.54688-1.23437-1.51563-2.32812h2.98438C4.8125-2.73437 5-2.78125 5-3.125c0-.60937-.20312-2.09375-2.10937-2.09375-1.625 0-2.375 1.15625-2.375 2.71875m1.09375-.625c0-.4375.14062-1.71875 1.23437-1.71875.95313 0 1.0625.98438 1.0625 1.39063 0 .1875-.0625.32812-.34375.32812Zm0 0"/><path id="m" d="M.35938 0H5.75l.125-1.85937h-.3125c-.20312 1.35937-.76562 1.5-1.85937 1.5-.51563 0-.89063-.01563-1.125-.10938-.21875-.07812-.25-.26562-.25-.78125v-4.96875c0-.59375.03125-.59375 1-.65625v-.3125H.35938v.3125c.92187.0625.9375.0625.9375.65625v5.25c0 .59375-.01563.60938-.9375.67188Zm0 0"/><path id="n" d="M.20313 0h2.53125v-.29687C2-.35937 1.96875-.375 1.96875-.90625v-6.73437l-.07812-.0625-1.625.25v.26562l.39062.04688c.26563.03125.32813.07812.32813.48437v5.75c0 .53125-.01563.54688-.78125.60938Zm0 0"/><path id="o" d="M.32813-4.67187h.75v3.60937C1.07813 0 1.85938.125 2.21875.125 2.75.125 3.25-.14062 3.54688-.32812l-.07813-.21875c-.25.09374-.46875.125-.73437.125-.35938 0-.6875-.25-.6875-1.03125v-3.21875H3.375v-.42188H2.04688v-1.29687H1.75l-.64062 1.29687H.32813Zm0 0"/><path id="p" d="M.26563 2.09375v.29688h2.6875v-.29688c-.875-.0625-.9375-.07812-.9375-.60937V-.10937c.21875.125.71875.23437 1.1875.23437 1.40625 0 2.59375-.64062 2.59375-2.78125 0-.75-.125-2.5625-2.01563-2.5625-.76562 0-1.35937.51563-1.76562.78125L1.875-5.21875l-1.5625.26563v.26562l.39063.04688c.26562.04687.32812.09375.32812.46875v5.65625c0 .53125-.03125.54687-.76562.60937m1.75-3.73437v-1.70313c0-.25.04687-.39062.14062-.57812.23438-.46875.67188-.73438 1.21875-.73438.42188 0 1.35938.26563 1.35938 2.0625 0 1.51563-.5 2.34375-1.53125 2.34375C2.65625-.25 2.25-.51562 2.09375-1c-.07812-.1875-.07812-.39062-.07812-.64062m0 0"/><path id="q" d="M.51563-1.34375C.51563-.57812 1.03125.125 2 .125c.60938 0 1.21875-.40625 1.54688-.625.14062.39063.3125.625.6875.625.39062 0 .82812-.10937 1.21875-.3125l-.0625-.25c-.14063.04688-.375.04688-.53125 0C4.67188-.46875 4.5-.65625 4.5-1.3125v-2.51562c0-.60938-.14062-1.39063-1.70312-1.39063-1.17188 0-2.09375.60938-2.09375 1.1875 0 .32813.375.48438.57812.48438.21875 0 .28125-.10938.32813-.28125.23437-.78125.65625-1.01563 1.07812-1.01563.40625 0 .875.20313.875 1.03125v.4375c-.26562.26563-1.28125.53125-2.09375.79688-.75.21875-.95312.75-.95312 1.23437m1.04687-.14062c0-.5.21875-.75.79688-.96875.42187-.15625.96875-.35938 1.20312-.5v1.46875C3.5625-.64062 2.92188-.4375 2.5-.4375c-.64062 0-.9375-.45312-.9375-1.04687m0 0"/><path id="s" d="M-.29687 0h2.28125v-.29687l-.53125-.0625C1.14063-.39062 1.09375-.5 1.1875-.76562c.17188-.625.375-1.26563.625-2h2.32813l.70312 1.98437c.09375.29688.04688.40625-.28125.4375l-.46875.04688V0H6.75v-.29687c-.60937-.0625-.71875-.09375-.90625-.625L3.64063-7.1875H2.875L1.79688-4.10937c-.32813.90625-.76563 2.14062-1.14063 3.09375-.21875.5625-.29687.6875-.95312.71875Zm2.25-3.17187c.32812-1.03125.70312-2.04688 1-2.96875H3l1.01563 2.96875Zm0 0"/><path id="t" d="M.95313-6.79687c0 .375.26562.64062.64062.64062s.625-.26562.625-.64062-.25-.625-.625-.625-.64062.25-.64062.625m-1.29688 9.0625L-.32812 2.5c.20312 0 .48437-.01562.76562-.07812 1.3125-.29688 1.64063-1.20313 1.64063-2.5v-5.0625L2-5.21875l-1.625.26563v.26562l.39063.04688c.26562.04687.34375.10937.34375.46875V-.375c0 .75-.0625 1.46875-.28126 1.90625-.1875.35938-.54687.57813-1.17187.73438m0 0"/><path id="w" d="M2.09375-5.82812 2.25-5.625 3.8125-6.5c.3125-.15625.57813-.34375.57813-.5625 0-.20312-.25-.45312-.40625-.45312-.17188 0-.34375.10937-.65625.4375ZM.51563-2.5c0 1.64063.70312 2.625 2.39062 2.625 1.14063 0 1.75-.64062 2.01563-1.46875L4.625-1.5c-.29687.60938-.6875 1.09375-1.51562 1.09375-1.28125 0-1.54688-1.23437-1.51563-2.32812h2.98438C4.8125-2.73437 5-2.78125 5-3.125c0-.60937-.20312-2.09375-2.10937-2.09375-1.625 0-2.375 1.15625-2.375 2.71875m1.09375-.625c0-.4375.14062-1.71875 1.23437-1.71875.95313 0 1.0625.98438 1.0625 1.39063 0 .1875-.0625.32812-.34375.32812Zm0 0"/><path id="r" d="M.28125-.09375.39063 0H4.6875l.34375-1.375L4.75-1.42187c-.21875.5625-.4375.64062-.84375.64062H1.25c.15625-.54687.78125-1.28125 1.75-1.98437.98438-.71875 1.76563-1.1875 1.76563-2.34375 0-1.45313-.96875-1.95313-2.0625-1.95313-1.42188 0-2.15625.85938-2.15625 1.40625 0 .35938.40625.51563.57812.51563.1875 0 .25-.10938.29688-.28125C1.59375-6.125 2-6.6875 2.64063-6.6875c.79687 0 1.03125.65625 1.03125 1.42188 0 1.10937-.5625 1.73437-1.46875 2.53125C.92188-1.60937.46875-.90625.28124-.09375m0 0"/><path id="u" d="M1.125 0h3.42188v-.29687l-.875-.07813c-.21875-.01562-.34375-.09375-.34375-.51562V-7l-.0625-.0625-2.14063.375v.25l.96875.125c.1875.01563.25.09375.25.39063v5.03125c0 .42187-.09375.5-.34375.51562l-.875.07813Zm0 0"/><path id="v" d="M.4375-3.46875C.4375-1.39062 1.03125.125 2.75.125s2.32813-1.51562 2.32813-3.59375S4.46875-7.0625 2.75-7.0625.4375-5.54687.4375-3.46875m1.04688 0c0-1.6875.28124-3.21875 1.26562-3.21875s1.26563 1.53125 1.26563 3.21875S3.73438-.25 2.75-.25c-.98437 0-1.26562-1.53125-1.26562-3.21875m0 0"/><clipPath id="a"><path d="M.55078 0h110.9375v50.55469H.55078Zm0 0"/></clipPath></defs><g clip-path="url(#a)"><path fill="#FFF" stroke="#000" stroke-miterlimit="10" stroke-width=".39292" d="M111.29297.19531H.74609v50.16407h110.54688Zm0 0"/></g><use xlink:href="#b" x="11.6664" y="13.1387"/><use xlink:href="#c" x="18.76118" y="13.1387"/><use xlink:href="#d" x="25.06029" y="13.1387"/><use xlink:href="#e" x="31.04996" y="13.1387"/><use xlink:href="#f" x="34.0669" y="13.1387"/><use xlink:href="#e" x="38.58679" y="13.1387"/><use xlink:href="#g" x="41.60373" y="13.1387"/><use xlink:href="#h" x="47.96914" y="13.1387"/><use xlink:href="#i" x="54.2572" y="13.1387"/><use xlink:href="#i" x="63.00964" y="13.1387"/><use xlink:href="#d" x="69.43031" y="13.1387"/><use xlink:href="#j" x="75.41998" y="13.1387"/><use xlink:href="#k" x="85.00125" y="13.1387"/><use xlink:href="#g" x="91.21195" y="13.1387"/><use xlink:href="#l" x="95.03562" y="13.1387"/><use xlink:href="#m" x="12.79906" y="27.87447"/><use xlink:href="#l" x="18.68928" y="27.87447"/><use xlink:href="#j" x="26.35872" y="27.87447"/><use xlink:href="#h" x="35.93999" y="27.87447"/><use xlink:href="#n" x="42.22805" y="27.87447"/><use xlink:href="#o" x="45.12342" y="27.87447"/><use xlink:href="#e" x="48.69292" y="27.87447"/><use xlink:href="#p" x="51.70986" y="27.87447"/><use xlink:href="#n" x="58.02002" y="27.87447"/><use xlink:href="#e" x="60.91539" y="27.87447"/><use xlink:href="#l" x="63.93233" y="27.87447"/><use xlink:href="#g" x="69.27" y="27.87447"/><use xlink:href="#p" x="75.63541" y="27.87447"/><use xlink:href="#q" x="81.94557" y="27.87447"/><use xlink:href="#g" x="87.37164" y="27.87447"/><use xlink:href="#r" x="93.73734" y="27.87447"/><use xlink:href="#s" x="5.9858" y="42.609"/><use xlink:href="#t" x="12.57224" y="42.609"/><use xlink:href="#d" x="15.47867" y="42.609"/><use xlink:href="#h" x="21.46834" y="42.609"/><use xlink:href="#o" x="27.7564" y="42.609"/><use xlink:href="#l" x="31.32589" y="42.609"/><use xlink:href="#g" x="36.66356" y="42.609"/><use xlink:href="#u" x="43.02859" y="42.609"/><use xlink:href="#v" x="48.53202" y="42.609"/><use xlink:href="#q" x="56.36794" y="42.609"/><use xlink:href="#h" x="61.79401" y="42.609"/><use xlink:href="#g" x="70.41384" y="42.609"/><use xlink:href="#w" x="74.44748" y="42.609"/><use xlink:href="#f" x="79.78514" y="42.609"/><use xlink:href="#h" x="84.30503" y="42.609"/><use xlink:href="#n" x="90.59308" y="42.609"/><use xlink:href="#o" x="93.48846" y="42.609"/><use xlink:href="#q" x="97.05795" y="42.609"/><use xlink:href="#o" x="102.48403" y="42.609"/></svg>