<svg xmlns="http://www.w3.org/2000/svg" xmlns:xlink="http://www.w3.org/1999/xlink" width="470.066pt" height="228.026pt" viewBox="0 0 470.066 228.026"><defs><path id="a" d="M.375-.45312c0 .32812.26563.59375.73438.59375.79687 0 1.25-.79688 1.73437-1.57813l.46875-.76562h.03125l.20313.90625c.21875.9375.4375 1.4375 1.03125 1.4375.85937 0 1.29687-.89063 1.65625-1.59375l-.29688-.15626C5.64063-1.09374 5.32813-.46874 5-.46874c-.21875 0-.3125-.26562-.57812-1.3125L4.0625-3.29687c.42188-.75 1.01563-1.67188 1.34375-1.67188.34375 0 .35938.1875.70313.1875.26562 0 .5-.25.5-.5625 0-.35937-.26563-.51562-.59375-.51562-.625 0-1.14063.5625-1.54688 1.21875l-.51562.79687H3.9375L3.46875-5.8125l-.0625-.04687-1.9375.59375.03125.28125.92188-.0625c.1875 0 .26562.07812.375.57812l.42187 1.6875-.32812.5625c-.5.85938-.9375 1.46875-1.21875 1.46875-.32813 0-.42188-.29687-.79688-.29687-.29687 0-.5.29687-.5.59375m0 0"/><path id="b" d="M1-2.95312h2.85938v2.85937h.6875v-2.85937h2.85937v-.6875H4.54688V-6.5h-.6875v2.85938H1Zm0 0"/><path id="c" d="M.3125-.10937.4375 0h4.82813l.39062-1.53125-.32812-.0625c-.23438.625-.48438.71875-.95313.71875H1.40625c.1875-.60937.875-1.4375 1.95313-2.23437 1.125-.8125 1.98437-1.32813 1.98437-2.64063 0-1.625-1.07812-2.17187-2.29687-2.17187-1.60938 0-2.42188.96875-2.42188 1.5625 0 .40625.4375.59375.64063.59375.20312 0 .28124-.125.32812-.32813.1875-.79687.65625-1.42187 1.375-1.42187.89063 0 1.15625.73437 1.15625 1.59375 0 1.25-.64062 1.96875-1.65625 2.85937C1.03125-1.8125.53125-1.01562.3125-.10937m0 0"/><path id="e" d="m.21875-2.32812.10938.25H3.5v1.1875c0 .39062-.125.45312-.40625.48437l-.75.07813V0h3.07813v-.32812l-.51563-.0625C4.625-.4375 4.54688-.5 4.54688-.89062v-1.1875H5.75V-2.625H4.54688v-5.17187h-.84375C2.60938-6.17187 1.29688-4.15625.21875-2.32812M1.0625-2.625C1.76563-3.89062 2.60938-5.25 3.5-6.65625V-2.625Zm0 0"/><clipPath id="d"><path d="M458 203h10.60156v15H458Zm0 0"/></clipPath><clipPath id="f"><path d="M321 0h147.60156v206H321Zm0 0"/></clipPath></defs><path fill="none" stroke="#007F7F" stroke-miterlimit="10" stroke-width=".39681" d="M34.42968 181.22265V49.2148"/><path fill="#007F7F" stroke="#007F7F" stroke-miterlimit="10" stroke-width=".39681" d="M34.42969 185.04297c.125-.46875.83984-2.53125 1.61719-3.82031h-3.23829c.77735 1.28906 1.4922 3.35156 1.6211 3.8203Zm0-139.64844c-.1289.46875-.84375 2.53125-1.6211 3.82031h3.23829c-.77735-1.28906-1.4922-3.35156-1.6172-3.82031Zm0 0"/><use xlink:href="#a" x="4.66799" y="119.11321" fill="#007F7F"/><use xlink:href="#b" x="13.75743" y="119.11321" fill="#007F7F"/><use xlink:href="#c" x="23.86371" y="119.11321" fill="#007F7F"/><path fill="none" stroke="red" stroke-miterlimit="10" stroke-width=".39681" d="M186.14457 185.78515h-7.05469v-7.0586h7.0547v7.0586m-.00001-141.13285v7.0547h-7.05469v-7.0547h7.0547m-141.13286 0h7.0586v7.0547h-7.0586v-7.0547m0 141.13285v-7.0586h7.0586v7.0586h-7.0586m67.58986 3.96875 3.96875-7.9375m-.99219 7.9375 3.96876-7.9375m70.56642-63.62111-7.9375-3.96875m7.9375.99219-7.9375-3.96875M118.5547 40.68355l-3.96874 7.9375m.99218-7.9375-3.96484 7.9375m-70.56643 63.62111 7.9336 3.96875m-7.9336-.99218 7.9336 3.96875"/><path fill="none" stroke="#000" stroke-miterlimit="10" stroke-width=".39681" d="M45.01172 185.78515h141.13285V44.6523H45.01172Zm0 0"/><path fill="none" stroke="#007F7F" stroke-miterlimit="10" stroke-width=".39681" d="M331.83992 210.48047h132.00395"/><path fill="#007F7F" stroke="#007F7F" stroke-miterlimit="10" stroke-width=".39681" d="M328.01562 210.48047c.47266.1289 2.53516.84375 3.82422 1.6211v-3.23829c-1.28906.77734-3.35156 1.49219-3.82422 1.61719Zm0 0"/><path fill="#007F7F" d="M467.66797 210.48047c-.47266-.125-2.53516-.83984-3.82422-1.61719v3.23828c1.28906-.77734 3.35156-1.49219 3.82422-1.6211m0 0"/><g clip-path="url(#d)"><path fill="none" stroke="#007F7F" stroke-miterlimit="10" stroke-width=".39681" d="M467.66797 210.48047c-.47266-.125-2.53516-.83985-3.82422-1.61719v3.23828c1.28906-.77734 3.35156-1.49218 3.82422-1.6211Zm0 0"/></g><g fill="#007F7F"><use xlink:href="#c" x="391.19696" y="222.78638"/><use xlink:href="#a" x="397.37232" y="222.78638"/></g><path fill="none" stroke="#007F7F" stroke-miterlimit="10" stroke-width=".39681" d="m318.21101 195.59375 67.52737-191.0938"/><path fill="#007F7F" stroke="#007F7F" stroke-miterlimit="10" stroke-width=".39679" d="M316.9375 199.19922c.27734-.40234 1.63672-2.10938 2.80078-3.0664l-3.05469-1.07813c.3047 1.47656.29297 3.66015.25391 4.14453ZM387.00781.89453c-.27344.40234-1.63672 2.10938-2.79687 3.0664l3.05078 1.07813c-.30469-1.47656-.28906-3.66015-.2539-4.14453Zm0 0"/><use xlink:href="#a" x="322.20863" y="103.87331" fill="#007F7F"/><use xlink:href="#b" x="331.29808" y="103.87331" fill="#007F7F"/><use xlink:href="#e" x="341.40435" y="103.87331" fill="#007F7F"/><path fill="none" stroke="red" stroke-miterlimit="10" stroke-width=".39681" d="m436.70714 101.7695-7.16016-3.42187M360.85165 96.457l3.42188 7.16016"/><g clip-path="url(#f)"><path fill="none" stroke="#000" stroke-miterlimit="10" stroke-width=".39681" d="M327.27742 199.89844h141.12895L397.84385.19526Zm0 0"/></g></svg>