<svg xmlns="http://www.w3.org/2000/svg" xmlns:xlink="http://www.w3.org/1999/xlink" width="202.21pt" height="91.971pt" viewBox="0 0 202.21 91.971"><defs><path id="b" d="M.90625-6.45312c0 2.21875.65625 4 1.78125 5.125C3.85938-.15626 5.73438.28124 7.84375.28124c1.5 0 3.25-.42187 4.15625-.90625l.25-3.15625h-.5625C11.17188-1.8125 10.1875-.375 7.71875-.375c-3.90625 0-4.70312-3.82812-4.70312-6.10937 0-3.09375 1.21875-6.21875 4.73437-6.21875 1.9375 0 3.28125.8125 3.64063 3.03125h.5625V-12.625c-.84375-.39062-2.26563-.73437-4-.73437-2.32813 0-4.20313.6875-5.32813 1.95312C1.54688-10.20312.90625-8.57812.90625-6.45312m0 0"/><path id="c" d="M.40625 0h4.57813v-.54687c-1.3125-.09376-1.40625-.17188-1.40625-1.09375V-6.0625c0-.48437 0-.73437.15625-1.01562.40625-.76563 1.26562-1.375 2.28125-1.375C7.29688-8.45312 8-7.75 8-6.10937v4.46875c0 .92187-.10937 1-1.42187 1.09375V0h4.59375v-.54687c-1.3125-.09376-1.40625-.17188-1.40625-1.09375v-4.82813c0-1.90625-1.04688-3.01562-2.79688-3.01562-1.375 0-2.23437.65625-3.40625 1.45312v-5.875L3.42188-14l-2.9375.45313v.48437l.70312.07813c.48438.07812.59375.1875.59375.875v10.46875c0 .92187-.04687 1-1.375 1.09375Zm0 0"/><path id="d" d="M.92188-4.625c0 3.0625 1.51562 4.84375 4.54687 4.84375S9.98438-1.5625 9.98438-4.625c0-3.04687-1.48438-4.85937-4.51563-4.85937S.92188-7.67187.92188-4.625m1.96875 0c0-2.60937.84375-4.20312 2.57812-4.20312 1.71875 0 2.5625 1.59375 2.5625 4.20312S7.1875-.4375 5.46875-.4375c-1.73437 0-2.57812-1.57812-2.57812-4.1875m0 0"/><path id="e" d="M1.73438-12.35937c0 .6875.46875 1.17187 1.15625 1.17187s1.14062-.48437 1.14062-1.17187S3.57813-13.5 2.89063-13.5s-1.15625.45313-1.15625 1.14063M.60938 0h4.59375v-.54687C3.85938-.64063 3.79688-.6875 3.79688-1.64062v-7.71875l-.14063-.125L.70313-9v.45313l.70312.10937c.48438.07813.625.15625.625.84375v5.95313c0 .95312-.0625 1-1.42187 1.09375Zm0 0"/><path id="f" d="m.89063-3.15625.1875 2.46875c.6875.60938 1.82812.90625 2.9375.90625 2.25 0 3.54687-1.1875 3.54687-2.79687 0-1.65625-1.03125-2.40625-2.98437-3.01563-.78125-.23437-2-.64062-2-1.70312 0-.98438.73437-1.53125 1.6875-1.53125 1.34375 0 1.98437 1.04687 2.125 2.20312h.54687v-2.21875c-.625-.45312-1.59375-.64062-2.4375-.64062-2.04687 0-3.4375.96875-3.4375 2.75 0 1.5625 1.28125 2.28125 2.85938 2.75.84375.26562 2.03125.6875 2.03125 1.96875 0 .96875-.75 1.57812-1.75 1.57812-1.53125 0-2.39063-1.10937-2.78125-2.71875Zm0 0"/><path id="g" d="M.60938 0h4.98437v-.54687C3.89063-.64063 3.79688-.6875 3.79688-1.64062V-6.0625c0-1.45312.64062-1.95312 1.07812-1.95312.3125 0 .625.125 1.17188.42187.14062.07813.28125.09375.39062.09375.45313 0 .85938-.48437.85938-1.0625 0-.42187-.26563-.92187-1-.92187-.6875 0-1.25.40625-2.5 1.5l-.21875-1.5L.70313-9v.45313l.70312.10937c.48438.07813.625.15625.625.84375v5.95313c0 .95312-.10937 1-1.42187 1.09375Zm0 0"/><path id="h" d="m.48438-8.54687.71875.10937c.48437.07813.60937.15625.60937.84375v4.98438C1.8125-.4375 3.09375.21875 4.5.21875c1.60938 0 2.92188-1.07812 3.45313-1.34375L8.14063 0h3.03125v-.54687C9.85938-.64063 9.75-.6875 9.75-1.64062v-7.71875l-.14062-.125L6.65625-9v.45313l.71875.10937c.48438.07813.60938.15625.60938.84375v4.26563c0 .51562-.0625.9375-.17188 1.125C7.375-1.34375 6.48438-.78125 5.5-.78125c-1.09375 0-1.90625-.70312-1.90625-2.17187v-6.40625l-.14062-.125L.48438-9Zm0 0"/><path id="i" d="M.60938 0h4.59375v-.54687C3.85938-.64063 3.79688-.6875 3.79688-1.64062V-6.0625c0-.48437.01562-.73437.1875-1.03125.39062-.75 1.23437-1.35937 2.25-1.35937 1.28125 0 1.98437.70312 1.98437 2.34375v4.46875c0 .95312-.0625 1-1.42187 1.09375V0h4.60937v-.54687C10.0625-.64063 9.98438-.6875 9.98438-1.64062v-4.82813c0-1.90625-1.04688-3.01562-2.76563-3.01562-1.40625 0-2.28125.6875-3.4375 1.45312l-.26562-1.45312L.70313-9v.45313l.70312.10937c.48438.07813.625.15625.625.84375v5.95313c0 .95312-.0625 1-1.42187 1.09375Zm0 0"/><path id="j" d="M.60938 0h4.59375v-.54687C3.85938-.64063 3.79688-.6875 3.79688-1.64062V-6.0625c0-.48437 0-.75.14062-1.01562.35938-.76563 1.1875-1.375 2.23438-1.375C7.79688-8.45312 8-7.28125 8-6.10937v4.46875c0 .95312-.0625 1-1.42187 1.09375V0h4.59375v-.54687C9.82813-.64063 9.76563-.6875 9.76563-1.64062V-6.0625c0-.48437.01562-.73437.14062-1.03125.28125-.76562 1.07813-1.35937 2.15625-1.35937 1.17188 0 1.90625.65625 1.90625 2.34375v4.46875c0 .95312-.0625 1-1.4375 1.09375V0h4.625v-.54687c-1.34375-.09376-1.42187-.14063-1.42187-1.09375v-4.82813c0-1.90625-1.03125-3.01562-2.8125-3.01562-1.54688 0-2.65625 1.03125-3.3125 1.45312-.46875-.89062-1.1875-1.45312-2.51563-1.45312-1.45312 0-2.64062.96875-3.29687 1.45312l-.1875-1.45312L.70313-9v.45313l.70312.10937c.48438.07813.625.15625.625.84375v5.95313c0 .95312-.0625 1-1.42187 1.09375Zm0 0"/><path id="k" d="M.375-13.0625 1.10938-13c.48437.0625.59375.15625.59375.89063V.07813l.34375.14062.75-.71875c.65625.375 1.46875.71875 2.875.71875 2.5 0 4.70312-1.20312 4.70312-5.0625 0-1.17187-.25-4.64062-3.64062-4.64062-1.42188 0-2.5625.92187-3.26563 1.34375v-5.76563L3.32813-14 .375-13.54687Zm3.09375 9.98438V-6.0625c0-.48437.03125-.76562.1875-1.07812.46875-.89063 1.25-1.3125 2.3125-1.3125.78125 0 2.4375.4375 2.4375 3.73437 0 2.76563-.84375 4.28125-2.71875 4.28125-1 0-1.73437-.5-2.07812-1.45312-.10938-.34375-.14063-.71875-.14063-1.1875m0 0"/><path id="l" d="M.92188-4.5625c0 3 1.28125 4.78125 4.35937 4.78125 2.09375 0 3.17188-1.15625 3.6875-2.65625l-.5625-.29687C7.875-1.625 7.15625-.75 5.67188-.75 3.3125-.75 2.85938-3 2.89063-4.96875h5.45312c.39063 0 .73438-.09375.73438-.71875 0-1.10937-.35938-3.79687-3.8125-3.79687-2.95313 0-4.34375 2.09375-4.34375 4.92187m1.98437-1.125c0-.78125.28125-3.14062 2.26563-3.14062 1.73437 0 1.9375 1.79687 1.9375 2.53125 0 .375-.10938.60937-.64063.60937Zm0 0"/><path id="m" d="M.65625 0h9.8125l.21875-3.375h-.5625C9.75-.90625 8.71875-.65625 6.73438-.65625c-.95313 0-1.625-.03125-2.03125-.1875s-.46875-.5-.46875-1.42187v-9.04688c0-1.0625.0625-1.07812 1.8125-1.20312v-.54688H.65625v.54688c1.67188.125 1.71875.14062 1.71875 1.20312V-1.75c0 1.0625-.04687 1.09375-1.71875 1.20313Zm0 0"/><path id="n" d="M.375 0h4.60938v-.54687C3.64063-.64063 3.57813-.6875 3.57813-1.64062v-12.26563L3.4375-14l-2.95312.45313v.48437L1.1875-13c.48438.0625.59375.15625.59375.89063v10.46875c0 .95312-.03125 1-1.40625 1.09375Zm0 0"/><path id="o" d="M.57813-8.5h1.375v6.57813C1.95313 0 3.375.21875 4.03125.21875c.96875 0 1.875-.48437 2.42188-.82812L6.3125-1c-.46875.17188-.85937.23438-1.34375.23438-.65625 0-1.25-.45313-1.25-1.89063V-8.5h2.4375v-.76562h-2.4375v-2.375h-.54687l-1.14063 2.375H.57813Zm0 0"/><path id="p" d="M.48438 3.79688v.54687h4.875v-.54687c-1.57813-.09375-1.70313-.14063-1.70313-1.10938V-.20312c.40625.21875 1.3125.42187 2.17188.42187 2.54687 0 4.71875-1.15625 4.71875-5.0625 0-1.34375-.23438-4.64062-3.67188-4.64062-1.39062 0-2.46875.92187-3.21875 1.40625l-.23437-1.40625L.5625-9v.45313l.71875.10937c.48438.07813.60938.15625.60938.84375V2.6875c0 .96875-.07813 1.01563-1.40625 1.10938m3.17187-6.76563V-6.0625c0-.48437.09375-.73437.26563-1.07812.4375-.85938 1.21875-1.3125 2.23437-1.3125.75 0 2.4375.46875 2.4375 3.73437 0 2.76563-.875 4.28125-2.76562 4.28125-.98438 0-1.73438-.5-2.03125-1.375-.125-.34375-.14063-.71875-.14063-1.15625m0 0"/><path id="q" d="M.92188-2.45312c0 1.40625.95312 2.67187 2.71875 2.67187 1.09375 0 2.20312-.71875 2.8125-1.125.26562.70313.57812 1.125 1.25 1.125.70312 0 1.5-.20312 2.21875-.5625l-.10938-.4375c-.26562.0625-.6875.07813-.96875 0-.34375-.07812-.67187-.42187-.67187-1.60937v-4.57813c0-1.10937-.23438-2.51562-3.09375-2.51562-2.125 0-3.8125 1.10937-3.8125 2.15625 0 .59375.70312.875 1.0625.875.40625 0 .5-.20313.60937-.51563C3.35938-8.375 4.125-8.82812 4.875-8.82812s1.59375.39062 1.59375 1.89062v.78125c-.48437.48438-2.3125.96875-3.79687 1.45313-1.35938.42187-1.75 1.375-1.75 2.25m1.90625-.26563c0-.875.40625-1.34375 1.46875-1.73437.76562-.28125 1.75-.65625 2.17187-.90625v2.67187c0 1.51563-1.15625 1.90625-1.90625 1.90625-1.17187 0-1.73437-.82812-1.73437-1.9375m0 0"/><path id="s" d="M-.54687 0h4.15625v-.54687L2.625-.64063c-.5625-.0625-.64062-.26562-.46875-.76562.3125-1.125.70313-2.29687 1.14063-3.64062h4.23437l1.26563 3.625c.1875.53125.10937.73437-.5.79687l-.85938.07813V0h4.84375v-.54687c-1.10937-.09376-1.3125-.15626-1.65625-1.14063l-4-11.375H5.21875L3.25-7.46875c-.57812 1.64063-1.375 3.89063-2.04687 5.625C.79688-.82812.64063-.60937-.54687-.54687ZM3.5625-5.76562C4.15625-7.65625 4.82813-9.5 5.39063-11.17187h.0625L7.3125-5.76562Zm0 0"/><path id="t" d="M1.73438-12.35937c0 .6875.46875 1.17187 1.15625 1.17187s1.14062-.48437 1.14062-1.17187S3.57813-13.5 2.89063-13.5s-1.15625.45313-1.15625 1.14063M-.625 4.125l.04688.4375c.34375 0 .85937-.04687 1.375-.15625C3.1875 3.875 3.78125 2.23438 3.78125-.14062v-9.21875l-.14062-.125L.6875-9v.45313l.71875.10937c.48438.07813.60938.20313.60938.84375V-.6875c0 1.375-.10938 2.67188-.51563 3.45313C1.17188 3.4375.51563 3.84375-.625 4.125m0 0"/><path id="w" d="m3.79688-10.60937.28125.375L6.9375-11.8125C7.5-12.10937 8-12.4375 8-12.84375c0-.375-.46875-.8125-.75-.8125-.3125 0-.64062.1875-1.20312.78125ZM.92188-4.5625c0 3 1.28125 4.78125 4.35937 4.78125 2.09375 0 3.17188-1.15625 3.6875-2.65625l-.5625-.29687C7.875-1.625 7.15625-.75 5.67188-.75 3.3125-.75 2.85938-3 2.89063-4.96875h5.45312c.39063 0 .73438-.09375.73438-.71875 0-1.10937-.35938-3.79687-3.8125-3.79687-2.95313 0-4.34375 2.09375-4.34375 4.92187m1.98437-1.125c0-.78125.28125-3.14062 2.26563-3.14062 1.73437 0 1.9375 1.79687 1.9375 2.53125 0 .375-.10938.60937-.64063.60937Zm0 0"/><path id="r" d="M.5-.1875.70313 0h7.8125l.64062-2.48437-.51562-.10938c-.40625 1.03125-.78125 1.17188-1.54688 1.17188H2.26563c.3125-.98438 1.4375-2.32813 3.1875-3.59375C7.25-6.34375 8.65625-7.1875 8.65625-9.29687c0-2.64063-1.75-3.54688-3.73437-3.54688C2.32813-12.84375 1-11.26562 1-10.28125c0 .64063.73438.9375 1.04688.9375.34375 0 .46875-.20312.54687-.51562.29688-1.29688 1.04688-2.3125 2.20313-2.3125 1.45312 0 1.875 1.20312 1.875 2.59375C6.67188-7.5625 5.64063-6.40625 4-4.96875 1.67188-2.9375.85938-1.64062.5-.1875m0 0"/><path id="u" d="M2.04688 0h6.21875v-.54687L6.67188-.6875c-.40625-.03125-.625-.17187-.625-.92187v-11.125l-.09375-.10938-3.90625.67188v.45312L3.8125-11.5c.32813.04688.45313.1875.45313.73438v9.15625c0 .75-.1875.89062-.625.92187l-1.59375.14063Zm0 0"/><path id="v" d="M.78125-6.3125C.78125-2.53125 1.89063.21875 5 .21875c3.125 0 4.25-2.75 4.25-6.53125S8.125-12.84375 5-12.84375c-3.10937 0-4.21875 2.75-4.21875 6.53125m1.90625 0c0-3.07812.53125-5.85937 2.3125-5.85937 1.79688 0 2.3125 2.78125 2.3125 5.85937S6.79688-.4375 5-.4375c-1.78125 0-2.3125-2.79687-2.3125-5.875m0 0"/><clipPath id="a"><path d="M0 .16406h201.42188v91.61328H0Zm0 0"/></clipPath></defs><g clip-path="url(#a)"><path fill="#FFF" stroke="#000" stroke-miterlimit="10" stroke-width=".39695" d="M201.22652.3633H.19535V91.582h201.03117Zm0 0"/></g><use xlink:href="#b" x="20.05565" y="23.89804"/><use xlink:href="#c" x="32.95718" y="23.89804"/><use xlink:href="#d" x="44.41181" y="23.89804"/><use xlink:href="#e" x="55.30376" y="23.89804"/><use xlink:href="#f" x="60.78992" y="23.89804"/><use xlink:href="#e" x="69.00912" y="23.89804"/><use xlink:href="#g" x="74.49529" y="23.89804"/><use xlink:href="#h" x="86.07049" y="23.89804"/><use xlink:href="#i" x="97.50503" y="23.89804"/><use xlink:href="#i" x="113.42094" y="23.89804"/><use xlink:href="#d" x="125.09662" y="23.89804"/><use xlink:href="#j" x="135.98857" y="23.89804"/><use xlink:href="#k" x="153.41167" y="23.89804"/><use xlink:href="#g" x="164.70553" y="23.89804"/><use xlink:href="#l" x="171.67879" y="23.89804"/><use xlink:href="#m" x="22.11759" y="50.69211"/><use xlink:href="#l" x="32.82867" y="50.69211"/><use xlink:href="#j" x="46.75509" y="50.69211"/><use xlink:href="#h" x="64.17819" y="50.69211"/><use xlink:href="#n" x="75.61273" y="50.69211"/><use xlink:href="#o" x="80.87784" y="50.69211"/><use xlink:href="#e" x="87.3688" y="50.69211"/><use xlink:href="#p" x="92.85496" y="50.69211"/><use xlink:href="#n" x="104.32969" y="50.69211"/><use xlink:href="#e" x="109.5948" y="50.69211"/><use xlink:href="#l" x="115.08097" y="50.69211"/><use xlink:href="#g" x="124.78726" y="50.69211"/><use xlink:href="#p" x="136.36246" y="50.69211"/><use xlink:href="#q" x="147.83719" y="50.69211"/><use xlink:href="#g" x="157.70425" y="50.69211"/><use xlink:href="#r" x="169.29783" y="50.69211"/><use xlink:href="#s" x="9.72799" y="77.48842"/><use xlink:href="#t" x="21.70512" y="77.48842"/><use xlink:href="#d" x="26.99032" y="77.48842"/><use xlink:href="#h" x="37.88227" y="77.48842"/><use xlink:href="#o" x="49.31681" y="77.48842"/><use xlink:href="#l" x="55.80777" y="77.48842"/><use xlink:href="#g" x="65.51406" y="77.48842"/><use xlink:href="#u" x="77.08858" y="77.48842"/><use xlink:href="#v" x="87.09631" y="77.48842"/><use xlink:href="#q" x="101.34332" y="77.48842"/><use xlink:href="#h" x="111.21038" y="77.48842"/><use xlink:href="#g" x="126.88514" y="77.48842"/><use xlink:href="#w" x="134.22012" y="77.48842"/><use xlink:href="#f" x="143.92641" y="77.48842"/><use xlink:href="#h" x="152.14561" y="77.48842"/><use xlink:href="#n" x="163.58015" y="77.48842"/><use xlink:href="#o" x="168.84526" y="77.48842"/><use xlink:href="#q" x="175.33622" y="77.48842"/><use xlink:href="#o" x="185.20328" y="77.48842"/></svg>