<svg xmlns="http://www.w3.org/2000/svg" xmlns:xlink="http://www.w3.org/1999/xlink" width="751.985pt" height="364.721pt" viewBox="0 0 751.985 364.721"><defs><path id="a" d="M.59375-.73437c0 .53125.4375.95312 1.20313.95312 1.26562 0 1.98437-1.28125 2.76562-2.53125l.75-1.23437h.04688L5.6875-2.0625C6.04688-.57812 6.39063.21875 7.34375.21875 8.71875.21875 9.4375-1.1875 10-2.32812l-.48437-.26563C9.0625-1.75 8.54688-.75 8.01563-.75c-.35938 0-.48438-.42187-.90625-2.09375l-.59375-2.45312c.67187-1.1875 1.625-2.6875 2.15625-2.6875.5625 0 .57812.29687 1.14062.29687.42188 0 .79688-.39062.79688-.89062 0-.57813-.4375-.8125-.95313-.8125-1 0-1.82812.89062-2.48437 1.95312l-.82813 1.26563H6.3125L5.54688-9.3125l-.09375-.07812-3.07813.9375L2.40625-8 3.875-8.10937c.3125 0 .4375.14062.625.9375l.65625 2.71875-.51562.89062c-.79688 1.375-1.5 2.34375-1.95313 2.34375-.53125 0-.67187-.45312-1.28125-.45312-.46875 0-.8125.48437-.8125.9375m0 0"/><path id="b" d="M1.59375-4.73437H6.1875v4.59375h1.09375v-4.59375h4.60938v-1.09375H7.28125v-4.60938H6.1875v4.60938H1.59375Zm0 0"/><path id="c" d="M.5-.17187.70313 0H8.4375l.64063-2.46875-.51563-.09375c-.40625 1.01563-.78125 1.15625-1.53125 1.15625H2.25c.29688-.98437 1.40625-2.3125 3.14063-3.57812 1.79687-1.3125 3.1875-2.14063 3.1875-4.23438 0-2.60937-1.73438-3.5-3.70313-3.5-2.5625 0-3.875 1.54688-3.875 2.53125 0 .625.71875.9375 1.03125.9375.34375 0 .45313-.20312.53125-.53125.29688-1.26562 1.04688-2.28125 2.1875-2.28125 1.4375 0 1.85938 1.1875 1.85938 2.5625 0 2.01563-1.01563 3.15625-2.64063 4.57813C1.65625-2.90625.85938-1.625.5-.17187m0 0"/><path id="e" d="m.35938-3.75.15625.40625h5.09375v1.90625c0 .64063-.1875.73438-.65625.78125l-1.1875.125V0h4.9375v-.53125l-.84375-.10937c-.4375-.0625-.54688-.15626-.54688-.79688v-1.90625h1.90625v-.875H7.3125V-12.5h-1.375c-1.75 2.59375-3.875 5.82813-5.57812 8.75m1.35937-.46875C2.82813-6.25 4.1875-8.42187 5.60938-10.6875v6.46875Zm0 0"/><clipPath id="d"><path d="M741 330h10.6914v16H741Zm0 0"/></clipPath><clipPath id="f"><path d="M519 0h232.6914v327H519Zm0 0"/></clipPath></defs><path fill="none" stroke="#007F7F" stroke-miterlimit="10" stroke-width=".3982" d="M54.69921 293.59765V76.15225"/><path fill="#007F7F" stroke="#007F7F" stroke-miterlimit="10" stroke-width=".3982" d="M54.69922 297.4336c.1289-.47266.84766-2.54297 1.625-3.83594h-3.2461c.77735 1.29297 1.4961 3.36328 1.6211 3.83594Zm0-225.11329c-.125.46875-.84375 2.53906-1.6211 3.83203h3.2461c-.77734-1.29297-1.4961-3.36328-1.625-3.83203Zm0 0"/><use xlink:href="#a" x="6.91583" y="191.12879" fill="#007F7F"/><use xlink:href="#b" x="21.5099" y="191.12879" fill="#007F7F"/><use xlink:href="#c" x="37.73659" y="191.12879" fill="#007F7F"/><path fill="none" stroke="red" stroke-miterlimit="10" stroke-width=".3982" d="M298.29696 298.17577h-11.32813v-11.32813h11.32813v11.32813m0-226.60165v11.33204h-11.32813V71.57412h11.32813m-226.60165 0h11.33204v11.33204H71.6953V71.57412m.00001 226.60165v-11.32813h11.33204v11.32813H71.6953m110.31646 3.98047 3.98047-7.96094m-.9961 7.96094 3.98438-7.96094m113.30083-106.33207-7.96485-3.98438m7.96485.9961-7.96485-3.98047M187.98442 67.59365l-3.98438 7.96485m.9961-7.96485-3.98047 7.96485M67.71484 181.89057l7.96485 3.98047m-7.96485-.9961 7.96485 3.98048"/><path fill="none" stroke="#000" stroke-miterlimit="10" stroke-width=".3982" d="M71.69531 298.17577h226.60165V71.57412H71.69531Zm0 0"/><path fill="none" stroke="#007F7F" stroke-miterlimit="10" stroke-width=".3982" d="M529.47674 337.83204h217.4454"/><path fill="#007F7F" stroke="#007F7F" stroke-miterlimit="10" stroke-width=".3982" d="M525.64062 337.83203c.47266.125 2.54297.84375 3.83594 1.625v-3.25c-1.29297.78125-3.36328 1.4961-3.83594 1.625Zm0 0"/><path fill="#007F7F" d="M750.7539 337.83203c-.46874-.1289-2.53906-.84375-3.83203-1.625v3.25c1.29297-.78125 3.36329-1.5 3.83204-1.625m0 0"/><g clip-path="url(#d)"><path fill="none" stroke="#007F7F" stroke-miterlimit="10" stroke-width=".3982" d="M750.7539 337.83203c-.46874-.1289-2.53906-.84375-3.83202-1.625v3.25c1.29296-.78125 3.36328-1.5 3.83203-1.625Zm0 0"/></g><g fill="#007F7F"><use xlink:href="#c" x="627.53008" y="357.58746"/><use xlink:href="#a" x="637.44529" y="357.58746"/></g><path fill="none" stroke="#007F7F" stroke-miterlimit="10" stroke-width=".3982" d="M509.42986 316.51953 619.6799 4.5116"/><path fill="#007F7F" stroke="#007F7F" stroke-miterlimit="10" stroke-width=".39818" d="M508.15234 320.13281c.27344-.40234 1.64063-2.11328 2.8086-3.07422l-3.0625-1.08203c.30469 1.48047.28906 3.67188.2539 4.15625ZM620.95703.89453c-.27734.40235-1.64453 2.11719-2.8125 3.07813l3.0664 1.08203c-.30468-1.48047-.29296-3.67188-.2539-4.16016Zm0 0"/><use xlink:href="#a" x="516.76182" y="166.65951" fill="#007F7F"/><use xlink:href="#b" x="531.35588" y="166.65951" fill="#007F7F"/><use xlink:href="#e" x="547.58257" y="166.65951" fill="#007F7F"/><path fill="none" stroke="red" stroke-miterlimit="10" stroke-width=".3982" d="m698.44555 162.24603-7.1836-3.4336m-111.42582-1.90624 3.4336 7.1875"/><g clip-path="url(#f)"><path fill="none" stroke="#000" stroke-miterlimit="10" stroke-width=".3982" d="M524.89861 320.83594h226.60165L638.19944.19519Zm0 0"/></g></svg>