<svg xmlns="http://www.w3.org/2000/svg" xmlns:xlink="http://www.w3.org/1999/xlink" width="179.787pt" height="81.796pt" viewBox="0 0 179.787 81.796"><defs><path id="b" d="M.8125-5.75c0 1.96875.57813 3.5625 1.57813 4.5625C3.4375-.14062 5.09375.25 6.98438.25 8.3125.25 9.875-.125 10.6875-.54687l.21875-2.8125h-.5C9.95313-1.60937 9.07813-.34375 6.875-.34375c-3.46875 0-4.1875-3.39062-4.1875-5.4375 0-2.75 1.09375-5.53125 4.21875-5.53125 1.71875 0 2.92188.71875 3.23438 2.70313h.5v-2.625c-.75-.35938-2.01563-.65625-3.5625-.65625-2.0625 0-3.73438.60937-4.73438 1.73437C1.375-9.09375.8125-7.64062.8125-5.75m0 0"/><path id="c" d="M.35938 0H4.4375v-.48437c-1.15625-.09375-1.25-.15625-1.25-.98438v-3.9375c0-.42187 0-.64062.14063-.89062.35937-.6875 1.125-1.23438 2.01562-1.23438 1.15625 0 1.78125.625 1.78125 2.09375v3.96875c0 .82813-.09375.89063-1.28125.98438V0h4.10938v-.48437C8.78125-.57812 8.6875-.64062 8.6875-1.46875v-4.29687c0-1.6875-.92187-2.67188-2.48437-2.67188-1.23438 0-1.98438.57813-3.03125 1.28125V-12.375l-.125-.09375-2.625.40625v.4375l.64062.0625c.42188.07813.53125.17188.53125.78125v9.3125c0 .82813-.0625.89063-1.23437.98438Zm0 0"/><path id="d" d="M.82813-4.10937c0 2.71875 1.34375 4.3125 4.03125 4.3125 2.70312 0 4.03125-1.59375 4.03125-4.3125S7.5625-8.4375 4.85938-8.4375c-2.6875 0-4.03125 1.60938-4.03125 4.32813m1.75 0c0-2.32813.75-3.75 2.28125-3.75 1.54687 0 2.29687 1.42187 2.29687 3.75 0 2.3125-.75 3.71875-2.29687 3.71875-1.53125 0-2.28125-1.40625-2.28125-3.71875m0 0"/><path id="e" d="M1.53125-11c0 .60938.4375 1.03125 1.04688 1.03125.60937 0 1.01562-.42187 1.01562-1.03125 0-.60937-.40625-1.01562-1.01562-1.01562-.60938 0-1.04688.40625-1.04688 1.01562m-1 11h4.10938v-.48437C3.4375-.57812 3.375-.60937 3.375-1.46875v-6.875L3.25-8.4375l-2.625.42188v.40625l.625.09375c.4375.07812.5625.14062.5625.75v5.29687c0 .85938-.0625.89063-1.28125.98438Zm0 0"/><path id="f" d="m.78125-2.8125.1875 2.20313c.60938.53125 1.625.8125 2.60938.8125 2 0 3.15625-1.0625 3.15625-2.5 0-1.48438-.92188-2.14063-2.65625-2.67188C3.375-5.1875 2.29688-5.54687 2.29688-6.5c0-.875.65625-1.35937 1.5-1.35937 1.1875 0 1.76562.9375 1.89062 1.95312h.48438V-7.875C5.625-8.28125 4.76563-8.4375 4-8.4375 2.1875-8.4375.95313-7.57812.95313-6c0 1.40625 1.14062 2.03125 2.53125 2.45313.75.23437 1.8125.60937 1.8125 1.75 0 .85937-.65625 1.40625-1.5625 1.40625-1.35938 0-2.125-.98438-2.46875-2.42188Zm0 0"/><path id="g" d="M.53125 0h4.4375v-.48437c-1.5-.09375-1.59375-.125-1.59375-.98438v-3.9375c0-1.28125.57813-1.73437.96875-1.73437.26563 0 .5625.10937 1.04688.375.125.07812.25.09375.32812.09375.42188 0 .78125-.4375.78125-.95313 0-.375-.23437-.8125-.90625-.8125-.60937 0-1.10937.34375-2.21875 1.32813L3.1875-8.4375.625-8.01562v.40625l.625.09375c.4375.07812.5625.14062.5625.75v5.29687c0 .85938-.09375.89063-1.28125.98438Zm0 0"/><path id="h" d="m.42188-7.60937.65625.09375c.42187.07812.53125.14062.53125.75v4.4375C1.60938-.39062 2.75.20313 4 .20313 5.4375.20313 6.60938-.76562 7.07813-1L7.25 0h2.70313v-.48437c-1.17188-.09375-1.28125-.125-1.28125-.98438v-6.875l-.125-.09375-2.625.42188v.40625l.64062.09375c.4375.07812.54688.14062.54688.75v3.79687c0 .46875-.0625.84375-.15625 1-.39063.76563-1.17188 1.26563-2.04688 1.26563-.98437 0-1.70312-.625-1.70312-1.92188v-5.71875l-.125-.09375-2.65625.42188Zm0 0"/><path id="i" d="M.53125 0h4.10938v-.48437C3.4375-.57812 3.375-.60937 3.375-1.46875v-3.9375c0-.42187.03125-.64062.17188-.90625.35937-.67187 1.10937-1.21875 2-1.21875 1.14062 0 1.76562.625 1.76562 2.09375v3.96875c0 .85938-.04687.89063-1.26562.98438V0h4.10937v-.48437c-1.1875-.09375-1.26562-.125-1.26562-.98438v-4.29687c0-1.6875-.92188-2.67188-2.46875-2.67188-1.25 0-2.01563.59375-3.0625 1.28125L3.125-8.4375l-2.5.42188v.40625l.625.09375c.4375.07812.5625.14062.5625.75v5.29687c0 .85938-.0625.89063-1.28125.98438Zm0 0"/><path id="j" d="M.53125 0h4.10938v-.48437C3.4375-.57812 3.375-.60937 3.375-1.46875v-3.9375c0-.42187 0-.65625.125-.89062.32813-.6875 1.0625-1.23438 2-1.23438 1.4375 0 1.625 1.0625 1.625 2.09375v3.96875c0 .85938-.0625.89063-1.28125.98438V0h4.10938v-.48437C8.75-.57812 8.6875-.60937 8.6875-1.46875v-3.9375c0-.42187.03125-.64062.125-.90625.26563-.6875.96875-1.21875 1.92188-1.21875 1.0625 0 1.70312.59375 1.70312 2.09375v3.96875c0 .85938-.0625.89063-1.28125.98438V0h4.125v-.48437c-1.20312-.09375-1.26562-.125-1.26562-.98438v-4.29687c0-1.6875-.92188-2.67188-2.51563-2.67188-1.375 0-2.35937.90625-2.95312 1.28125C8.14063-7.9375 7.5-8.4375 6.3125-8.4375c-1.28125 0-2.34375.85938-2.9375 1.28125L3.21875-8.4375.625-8.01562v.40625l.625.09375c.4375.07812.5625.14062.5625.75v5.29687c0 .85938-.0625.89063-1.28125.98438Zm0 0"/><path id="k" d="m.34375-11.625.64063.04688c.42187.0625.53125.14062.53125.79687V.07813l.3125.125.65625-.65625c.59375.34375 1.3125.65625 2.5625.65625 2.23437 0 4.1875-1.07813 4.1875-4.51563 0-1.03125-.21875-4.125-3.23438-4.125-1.28125 0-2.28125.8125-2.90625 1.1875v-5.125l-.125-.09375-2.625.40625Zm2.75 8.89063v-2.67188c0-.42187.01563-.67187.15625-.9375.42188-.8125 1.10938-1.1875 2.0625-1.1875.70313 0 2.17188.39063 2.17188 3.32813 0 2.46875-.75 3.8125-2.42188 3.8125-.89062 0-1.53125-.45313-1.84375-1.29688-.10937-.29687-.125-.64062-.125-1.04687m0 0"/><path id="l" d="M.82813-4.0625c0 2.67188 1.14062 4.26563 3.875 4.26563 1.85937 0 2.82812-1.04688 3.28125-2.375l-.5-.26563C7.01563-1.45312 6.375-.65625 5.04688-.65625c-2.09375 0-2.5-2.01562-2.46875-3.76562h4.84375c.35937 0 .67187-.09375.67187-.64063 0-.98437-.32812-3.375-3.40625-3.375-2.625 0-3.85937 1.85938-3.85937 4.375m1.76562-1c0-.70312.25-2.79687 2-2.79687 1.5625 0 1.73438 1.59375 1.73438 2.26562 0 .3125-.10938.53125-.5625.53125Zm0 0"/><path id="m" d="M.59375 0h8.73438l.1875-3h-.5C8.67188-.8125 7.76563-.59375 6-.59375c-.84375 0-1.45312-.01562-1.8125-.15625-.35937-.14062-.40625-.45312-.40625-1.26562v-8.0625c0-.9375.04688-.95313 1.60938-1.0625v-.48438H.59375v.48438c1.48438.10937 1.51563.125 1.51563 1.0625v8.51562c0 .95313-.03125.96875-1.51563 1.07813Zm0 0"/><path id="n" d="M.34375 0H4.4375v-.48437c-1.20312-.09375-1.25-.125-1.25-.98438V-12.375l-.125-.09375-2.64062.40625v.4375l.64062.04688c.42188.0625.53125.14062.53125.79687v9.3125c0 .85938-.03125.89063-1.25.98438Zm0 0"/><path id="o" d="M.51563-7.5625h1.21875v5.84375C1.73438 0 3 .20313 3.59375.20313c.85938 0 1.67188-.4375 2.15625-.73438l-.125-.35937c-.42187.15624-.78125.20312-1.20312.20312-.57813 0-1.10938-.40625-1.10938-1.67187V-7.5625h2.15625V-8.25H3.3125v-2.10937h-.48437L1.8125-8.25H.51563Zm0 0"/><path id="p" d="M.42188 3.375v.48438h4.35937V3.375C3.35938 3.29688 3.25 3.25 3.25 2.39063v-2.5625c.35938.1875 1.17188.375 1.9375.375 2.26563 0 4.20313-1.04688 4.20313-4.51563 0-1.20312-.21875-4.125-3.26563-4.125-1.23437 0-2.20312.8125-2.875 1.25l-.20312-1.25L.5-8.01562v.40625l.64063.09375c.4375.07812.54687.14062.54687.75v9.15625c0 .85937-.07812.90625-1.26562.98437M3.25-2.64062v-2.76563c0-.42187.09375-.64062.23438-.9375.39062-.78125 1.09375-1.1875 1.98437-1.1875.6875 0 2.1875.42188 2.1875 3.32813 0 2.46875-.78125 3.8125-2.46875 3.8125-.875 0-1.53125-.45313-1.8125-1.21875-.09375-.3125-.125-.64063-.125-1.03125m0 0"/><path id="q" d="M.82813-2.1875c0 1.25.82812 2.39063 2.40625 2.39063.98437 0 1.96875-.65625 2.51562-1.01563.21875.64063.51563 1.01563 1.10938 1.01563.625 0 1.32812-.1875 1.98437-.5l-.10937-.40625c-.23438.0625-.60938.07812-.85938 0-.3125-.0625-.59375-.375-.59375-1.42188v-4.07812c0-.98438-.21875-2.23438-2.75-2.23438-1.90625 0-3.40625.98438-3.40625 1.90625 0 .53125.625.78125.95313.78125.35937 0 .4375-.17187.53125-.45312.375-1.25 1.0625-1.65625 1.73437-1.65625.67188 0 1.42188.34375 1.42188 1.6875v.70312c-.4375.42188-2.0625.85938-3.39063 1.28125-1.21875.375-1.54687 1.21875-1.54687 2m1.6875-.23437c0-.78125.35937-1.1875 1.3125-1.54688.6875-.25 1.5625-.57812 1.9375-.8125v2.39063c0 1.35937-1.04688 1.6875-1.70313 1.6875-1.03125 0-1.54687-.73438-1.54687-1.71875m0 0"/><path id="s" d="M-.48437 0h3.70312v-.48437l-.875-.09375c-.5-.04688-.57812-.23438-.42187-.67188.28124-1 .625-2.04687 1.01562-3.23437h3.76563l1.14062 3.21875c.15625.48437.07813.65625-.45312.71875l-.76563.0625V0h4.3125v-.48437C9.95313-.57812 9.76563-.625 9.46875-1.5l-3.5625-10.125h-1.25L2.89063-6.65625C2.375-5.1875 1.65625-3.1875 1.07813-1.64062c-.35938.90625-.5 1.10937-1.5625 1.15625Zm3.65625-5.14062c.53125-1.67188 1.125-3.32813 1.625-4.8125h.04687l1.67188 4.8125Zm0 0"/><path id="t" d="M1.53125-11c0 .60938.4375 1.03125 1.04688 1.03125.60937 0 1.01562-.42187 1.01562-1.03125 0-.60937-.40625-1.01562-1.01562-1.01562-.60938 0-1.04688.40625-1.04688 1.01562M-.54687 3.67188l.03124.39062c.29688 0 .76563-.03125 1.23438-.14062 2.125-.46875 2.64063-1.9375 2.64063-4.04688v-8.21875l-.125-.09375-2.625.42188v.40625l.64062.09375c.4375.07812.54688.1875.54688.75v6.15625c0 1.21875-.09376 2.375-.45313 3.07812-.3125.59375-.875.95313-1.89062 1.20313m0 0"/><path id="w" d="m3.375-9.45312.25.34375 2.54688-1.40625c.5-.26563.95312-.5625.95312-.92188 0-.32812-.42187-.73437-.67187-.73437-.28125 0-.5625.1875-1.0625.70312ZM.82813-4.0625c0 2.67188 1.14062 4.26563 3.875 4.26563 1.85937 0 2.82812-1.04688 3.28125-2.375l-.5-.26563C7.01563-1.45312 6.375-.65625 5.04688-.65625c-2.09375 0-2.5-2.01562-2.46875-3.76562h4.84375c.35937 0 .67187-.09375.67187-.64063 0-.98437-.32812-3.375-3.40625-3.375-2.625 0-3.85937 1.85938-3.85937 4.375m1.76562-1c0-.70312.25-2.79687 2-2.79687 1.5625 0 1.73438 1.59375 1.73438 2.26562 0 .3125-.10938.53125-.5625.53125Zm0 0"/><path id="r" d="M.45313-.15625.625 0h6.95313l.57812-2.21875-.46875-.09375C7.32813-1.39062 7-1.26562 6.3125-1.26562H2.01563c.28125-.875 1.28125-2.07813 2.82812-3.20313 1.60938-1.1875 2.85938-1.9375 2.85938-3.8125 0-2.34375-1.54688-3.15625-3.3125-3.15625-2.3125 0-3.5 1.40625-3.5 2.28125 0 .5625.64062.84375.9375.84375.29687 0 .40625-.1875.48437-.46875.26563-1.14062.92188-2.0625 1.96875-2.0625 1.28125 0 1.65625 1.07813 1.65625 2.3125 0 1.79688-.90625 2.82813-2.375 4.10938C1.48438-2.60937.76563-1.46875.45313-.15625m0 0"/><path id="u" d="M1.82813 0h5.53125v-.48437l-1.42188-.125c-.35937-.03126-.54687-.15626-.54687-.82813v-9.90625l-.09375-.09375-3.46875.59375v.40625l1.57812.20313c.28125.03125.39063.15625.39063.64062v8.15625c0 .67188-.17188.79688-.5625.82813l-1.40625.125Zm0 0"/><path id="v" d="M.70313-5.625c0 3.375.98437 5.82813 3.75 5.82813C7.23438.20313 8.23438-2.25 8.23438-5.625c0-3.35937-1-5.8125-3.78125-5.8125-2.76563 0-3.75 2.45313-3.75 5.8125m1.6875 0c0-2.73437.46875-5.21875 2.0625-5.21875s2.0625 2.48438 2.0625 5.21875c0 2.75-.46875 5.23438-2.0625 5.23438S2.39063-2.875 2.39063-5.625m0 0"/><clipPath id="a"><path d="M.11719 0h179.33984v81.59375H.1172Zm0 0"/></clipPath></defs><g clip-path="url(#a)"><path fill="#FFF" stroke="#000" stroke-miterlimit="10" stroke-width=".39751" d="M179.2578.19923H.31641v81.1953H179.2578Zm0 0"/></g><use xlink:href="#b" x="17.99382" y="21.14925"/><use xlink:href="#c" x="29.47801" y="21.14925"/><use xlink:href="#d" x="39.67425" y="21.14925"/><use xlink:href="#e" x="49.36963" y="21.14925"/><use xlink:href="#f" x="54.25309" y="21.14925"/><use xlink:href="#e" x="61.56934" y="21.14925"/><use xlink:href="#g" x="66.45281" y="21.14925"/><use xlink:href="#h" x="76.73849" y="21.14925"/><use xlink:href="#i" x="86.91685" y="21.14925"/><use xlink:href="#i" x="101.08426" y="21.14925"/><use xlink:href="#d" x="111.47727" y="21.14925"/><use xlink:href="#j" x="121.17265" y="21.14925"/><use xlink:href="#k" x="136.68167" y="21.14925"/><use xlink:href="#g" x="146.73481" y="21.14925"/><use xlink:href="#l" x="152.942" y="21.14925"/><use xlink:href="#m" x="19.82725" y="44.99977"/><use xlink:href="#l" x="29.36163" y="44.99977"/><use xlink:href="#j" x="41.776" y="44.99977"/><use xlink:href="#h" x="57.28502" y="44.99977"/><use xlink:href="#n" x="67.46338" y="44.99977"/><use xlink:href="#o" x="72.15008" y="44.99977"/><use xlink:href="#e" x="77.92795" y="44.99977"/><use xlink:href="#p" x="82.81141" y="44.99977"/><use xlink:href="#n" x="93.02554" y="44.99977"/><use xlink:href="#e" x="97.71224" y="44.99977"/><use xlink:href="#l" x="102.5957" y="44.99977"/><use xlink:href="#g" x="111.23568" y="44.99977"/><use xlink:href="#p" x="121.53925" y="44.99977"/><use xlink:href="#q" x="131.75338" y="44.99977"/><use xlink:href="#g" x="140.53646" y="44.99977"/><use xlink:href="#r" x="150.8385" y="44.99977"/><use xlink:href="#s" x="8.79875" y="68.85029"/><use xlink:href="#t" x="19.46009" y="68.85029"/><use xlink:href="#d" x="24.16467" y="68.85029"/><use xlink:href="#h" x="33.86004" y="68.85029"/><use xlink:href="#o" x="44.0384" y="68.85029"/><use xlink:href="#l" x="49.81627" y="68.85029"/><use xlink:href="#g" x="58.45625" y="68.85029"/><use xlink:href="#u" x="68.75921" y="68.85029"/><use xlink:href="#v" x="77.66751" y="68.85029"/><use xlink:href="#q" x="90.35136" y="68.85029"/><use xlink:href="#h" x="99.13444" y="68.85029"/><use xlink:href="#g" x="113.0693" y="68.85029"/><use xlink:href="#w" x="119.59848" y="68.85029"/><use xlink:href="#f" x="128.23845" y="68.85029"/><use xlink:href="#h" x="135.55471" y="68.85029"/><use xlink:href="#n" x="145.73306" y="68.85029"/><use xlink:href="#o" x="150.41976" y="68.85029"/><use xlink:href="#q" x="156.19763" y="68.85029"/><use xlink:href="#o" x="164.98071" y="68.85029"/></svg>