<?xml version="1.0" encoding="UTF-8"?>
<svg xmlns="http://www.w3.org/2000/svg" xmlns:xlink="http://www.w3.org/1999/xlink" width="851pt" height="333pt" viewBox="0 0 851 333" version="1.2">
<g id="surface1">
<path style="fill-rule:nonzero;fill:rgb(0%,0%,0%);fill-opacity:1;stroke-width:0.09375;stroke-linecap:butt;stroke-linejoin:miter;stroke:rgb(0%,0%,0%);stroke-opacity:1;stroke-miterlimit:10;" d="M 426.011719 333 L 433.710938 333 C 433.53125 332.488281 433.171875 331.460938 432.988281 330.941406 C 446.390625 329.609375 459.238281 324.710938 470.421875 317.28125 C 480.910156 316.710938 491.480469 317.171875 502 316.980469 C 613.699219 316.699219 725.398438 316.390625 837.089844 316.128906 C 841.75 311.898438 846.351562 307.609375 851 303.371094 L 851 298.488281 C 850.199219 277.929688 849.71875 257.351562 849.089844 236.789062 C 844.488281 232.46875 839.859375 228.191406 835.160156 223.988281 C 790.261719 224.300781 745.359375 224.519531 700.460938 224.78125 C 703.96875 200.351562 710.089844 176.441406 715.648438 152.429688 C 716.351562 149.679688 716.929688 146.878906 716.851562 144.03125 C 716.488281 109.121094 716.210938 74.21875 715.839844 39.308594 C 687.230469 39.03125 658.621094 38.71875 630.011719 38.398438 C 627.410156 38.421875 624.78125 38.121094 622.210938 38.578125 C 617.929688 40.789062 613.929688 43.519531 609.761719 45.921875 C 612.789062 99.550781 615.421875 153.199219 618.679688 206.808594 C 581.070312 224.101562 540.679688 234.671875 499.921875 241.339844 C 480.511719 244.699219 460.890625 246.558594 441.261719 248.058594 C 437.121094 243.96875 433 239.871094 428.859375 235.78125 C 419.859375 237.171875 410.949219 239.230469 401.910156 240.230469 C 390.699219 237.808594 379.769531 234.050781 368.648438 231.179688 C 362.621094 229.898438 358.070312 225.300781 352.210938 223.558594 C 341.878906 219.511719 330.019531 220.941406 320.539062 226.550781 C 308.171875 216.988281 296.261719 206.808594 284.578125 196.410156 C 249.71875 166.011719 216.660156 133.308594 187.980469 96.960938 C 183.089844 90.789062 178.730469 84.238281 174.070312 77.898438 C 162.238281 59.960938 150.929688 41.101562 145.949219 19.96875 C 144.289062 13.441406 143.890625 6.691406 143.320312 0 L 138 0 C 99.101562 29.121094 60.308594 58.390625 21.421875 87.53125 C 45.859375 110.089844 70.5 132.46875 96.050781 153.789062 C 124.980469 178.269531 154.550781 202.019531 185.53125 223.871094 C 129.351562 224.429688 73.171875 225.078125 16.988281 225.648438 C 14.628906 225.679688 12.261719 225.550781 9.910156 225.878906 C 6.398438 227.371094 3.328125 229.730469 0 231.578125 L 0 239.558594 C 0.628906 267.480469 0.878906 295.410156 1.390625 323.339844 C 109.960938 319.960938 218.539062 316.511719 327.109375 313.109375 C 332.078125 312.988281 337.171875 312.359375 342 313.859375 C 360.828125 318.941406 379.609375 324.199219 398.410156 329.378906 C 407.320312 332.328125 416.839844 331.539062 426.011719 333 M 408.25 321.070312 C 406.050781 297.121094 403.820312 273.191406 401.640625 249.238281 C 409.730469 247.839844 417.828125 246.421875 425.921875 245 C 443.660156 262.53125 461.371094 280.078125 479.089844 297.628906 C 472.710938 305.21875 464.671875 311.398438 455.761719 315.738281 C 441.121094 322.820312 424.089844 324.269531 408.25 321.070312 M 355.539062 308.601562 C 352.511719 307.738281 349.398438 307.128906 346.570312 305.71875 C 347.640625 302.671875 349.628906 300.101562 351.328125 297.390625 C 361.929688 280.890625 372.558594 264.410156 383.148438 247.898438 C 381.601562 246.171875 380.039062 244.441406 378.441406 242.761719 C 383.148438 244.351562 388 245.480469 392.738281 246.960938 C 393.929688 260 395.128906 273.039062 396.359375 286.070312 C 396.75 289.410156 395.589844 292.710938 396.019531 296.039062 C 396.230469 298.75 397.730469 301.160156 397.988281 303.859375 C 398.53125 309.488281 398.988281 315.121094 399.570312 320.75 C 384.898438 316.671875 370.210938 312.660156 355.539062 308.601562 M 9.878906 314.460938 C 9.449219 288.441406 9.039062 262.421875 8.628906 236.398438 C 10.28125 235.53125 11.839844 234.089844 13.839844 234.308594 C 75.101562 233.769531 136.378906 232.820312 197.628906 232.46875 C 215.949219 244.410156 234.421875 256.328125 254.121094 265.941406 C 263.558594 270.121094 272.820312 274.890625 282.851562 277.539062 C 282.761719 278.03125 282.558594 279.011719 282.460938 279.5 C 296.890625 287.761719 310.96875 296.640625 325.53125 304.640625 C 220.308594 307.71875 115.101562 311.230469 9.878906 314.460938 M 504.871094 308.738281 C 543.460938 302.769531 581.808594 294.191406 618.441406 280.46875 C 646.738281 269.410156 675.160156 255.800781 696.460938 233.570312 C 741.601562 232.980469 786.78125 233.011719 831.929688 232.660156 C 834.820312 235.289062 837.671875 237.960938 840.570312 240.578125 C 841.21875 260.238281 841.71875 279.910156 842.359375 299.570312 C 839.511719 302.25 836.628906 304.890625 833.730469 307.511719 C 729.5 307.75 625.269531 308.039062 521.039062 308.300781 C 515.648438 308.359375 510.238281 308.109375 504.871094 308.738281 M 485.949219 302.769531 C 487.660156 300.960938 489.308594 299.101562 490.941406 297.21875 C 477.078125 283.5 463.21875 269.78125 449.351562 256.070312 C 475.730469 254.070312 501.960938 250.308594 527.871094 244.921875 C 561.058594 237.839844 593.851562 228.050781 624.601562 213.519531 C 655.410156 198.75 684.429688 178.328125 704.160156 150 C 700.148438 174.371094 696.019531 198.710938 692.019531 223.078125 C 691.738281 224.328125 691.761719 225.761719 690.789062 226.710938 C 681.039062 237.96875 668.511719 246.328125 655.730469 253.761719 C 634.949219 265.460938 612.578125 274.078125 589.839844 281.101562 C 555.941406 291.398438 521.039062 298.101562 485.949219 302.769531 M 293.089844 275.679688 C 299.421875 262.050781 306.859375 248.378906 318.460938 238.488281 C 325.570312 232.550781 335.050781 228.289062 344.460938 230.308594 C 355.71875 232.648438 364.820312 240.511719 372.351562 248.800781 C 360.890625 266.609375 349.441406 284.410156 337.96875 302.210938 C 323 293.378906 308.039062 284.53125 293.089844 275.679688 M 271.671875 264.449219 C 235.621094 248.988281 203.328125 226.308594 171.769531 203.328125 C 124.089844 167.46875 78.671875 128.679688 34.878906 88.191406 C 68.46875 62.921875 102.121094 37.738281 135.691406 12.441406 C 138.730469 32.148438 146.929688 50.761719 157.421875 67.589844 C 173.058594 94.050781 192.988281 117.660156 213.730469 140.230469 C 244.511719 173.179688 278.160156 203.339844 313.078125 231.820312 C 301.019531 241.820312 293.058594 255.71875 286.390625 269.648438 C 281.371094 268.261719 276.460938 266.480469 271.671875 264.449219 M 626.789062 199.878906 C 624.058594 150.140625 621.371094 100.390625 618.660156 50.640625 C 621.351562 49.308594 623.699219 46.601562 626.941406 46.980469 C 653.730469 47.308594 680.519531 47.570312 707.308594 47.878906 C 707.550781 72.25 707.738281 96.621094 708 120.988281 C 707.921875 122.628906 708.25 124.359375 707.75 125.941406 C 700.410156 142.390625 689.210938 156.898438 676.101562 169.160156 C 662.441406 181.949219 646.710938 192.371094 630.171875 201.039062 C 629.039062 200.660156 627.910156 200.269531 626.789062 199.878906 Z M 626.789062 199.878906 " transform="matrix(1,0,0,-1,0,333)"/>
<path style="fill-rule:nonzero;fill:rgb(100%,100%,100%);fill-opacity:1;stroke-width:0.09375;stroke-linecap:butt;stroke-linejoin:miter;stroke:rgb(100%,100%,100%);stroke-opacity:1;stroke-miterlimit:10;" d="M 408.25 321.070312 C 424.089844 324.269531 441.121094 322.820312 455.761719 315.738281 C 464.671875 311.398438 472.710938 305.21875 479.089844 297.628906 C 461.371094 280.078125 443.660156 262.53125 425.921875 245 C 417.828125 246.421875 409.730469 247.839844 401.640625 249.238281 C 403.820312 273.191406 406.050781 297.121094 408.25 321.070312 Z M 408.25 321.070312 " transform="matrix(1,0,0,-1,0,333)"/>
<path style="fill-rule:nonzero;fill:rgb(100%,100%,100%);fill-opacity:1;stroke-width:0.09375;stroke-linecap:butt;stroke-linejoin:miter;stroke:rgb(100%,100%,100%);stroke-opacity:1;stroke-miterlimit:10;" d="M 355.539062 308.601562 C 370.210938 312.660156 384.898438 316.671875 399.570312 320.75 C 398.988281 315.121094 398.53125 309.488281 397.988281 303.859375 C 397.730469 301.160156 396.230469 298.75 396.019531 296.039062 C 395.589844 292.710938 396.75 289.410156 396.359375 286.070312 C 395.128906 273.039062 393.929688 260 392.738281 246.960938 C 388 245.480469 383.148438 244.351562 378.441406 242.761719 C 380.039062 244.441406 381.601562 246.171875 383.148438 247.898438 C 372.558594 264.410156 361.929688 280.890625 351.328125 297.390625 C 349.628906 300.101562 347.640625 302.671875 346.570312 305.71875 C 349.398438 307.128906 352.511719 307.738281 355.539062 308.601562 Z M 355.539062 308.601562 " transform="matrix(1,0,0,-1,0,333)"/>
<path style="fill-rule:nonzero;fill:rgb(100%,100%,100%);fill-opacity:1;stroke-width:0.09375;stroke-linecap:butt;stroke-linejoin:miter;stroke:rgb(100%,100%,100%);stroke-opacity:1;stroke-miterlimit:10;" d="M 9.878906 314.460938 C 115.101562 311.230469 220.308594 307.71875 325.53125 304.640625 C 310.96875 296.640625 296.890625 287.761719 282.460938 279.5 C 282.558594 279.011719 282.761719 278.03125 282.851562 277.539062 C 272.820312 274.890625 263.558594 270.121094 254.121094 265.941406 C 234.421875 256.328125 215.949219 244.410156 197.628906 232.46875 C 136.378906 232.820312 75.101562 233.769531 13.839844 234.308594 C 11.839844 234.089844 10.28125 235.53125 8.628906 236.398438 C 9.039062 262.421875 9.449219 288.441406 9.878906 314.460938 Z M 9.878906 314.460938 " transform="matrix(1,0,0,-1,0,333)"/>
<path style="fill-rule:nonzero;fill:rgb(100%,100%,100%);fill-opacity:1;stroke-width:0.09375;stroke-linecap:butt;stroke-linejoin:miter;stroke:rgb(100%,100%,100%);stroke-opacity:1;stroke-miterlimit:10;" d="M 504.871094 308.738281 C 510.238281 308.109375 515.648438 308.359375 521.039062 308.300781 C 625.269531 308.039062 729.5 307.75 833.730469 307.511719 C 836.628906 304.890625 839.511719 302.25 842.359375 299.570312 C 841.71875 279.910156 841.21875 260.238281 840.570312 240.578125 C 837.671875 237.960938 834.820312 235.289062 831.929688 232.660156 C 786.78125 233.011719 741.601562 232.980469 696.460938 233.570312 C 675.160156 255.800781 646.738281 269.410156 618.441406 280.46875 C 581.808594 294.191406 543.460938 302.769531 504.871094 308.738281 Z M 504.871094 308.738281 " transform="matrix(1,0,0,-1,0,333)"/>
<path style="fill-rule:nonzero;fill:rgb(100%,100%,100%);fill-opacity:1;stroke-width:0.09375;stroke-linecap:butt;stroke-linejoin:miter;stroke:rgb(100%,100%,100%);stroke-opacity:1;stroke-miterlimit:10;" d="M 485.949219 302.769531 C 521.039062 298.101562 555.941406 291.398438 589.839844 281.101562 C 612.578125 274.078125 634.949219 265.460938 655.730469 253.761719 C 668.511719 246.328125 681.039062 237.96875 690.789062 226.710938 C 691.761719 225.761719 691.738281 224.328125 692.019531 223.078125 C 696.019531 198.710938 700.148438 174.371094 704.160156 150 C 684.429688 178.328125 655.410156 198.75 624.601562 213.519531 C 593.851562 228.050781 561.058594 237.839844 527.871094 244.921875 C 501.960938 250.308594 475.730469 254.070312 449.351562 256.070312 C 463.21875 269.78125 477.078125 283.5 490.941406 297.21875 C 489.308594 299.101562 487.660156 300.960938 485.949219 302.769531 Z M 485.949219 302.769531 " transform="matrix(1,0,0,-1,0,333)"/>
<path style="fill-rule:nonzero;fill:rgb(100%,100%,100%);fill-opacity:1;stroke-width:0.09375;stroke-linecap:butt;stroke-linejoin:miter;stroke:rgb(100%,100%,100%);stroke-opacity:1;stroke-miterlimit:10;" d="M 293.089844 275.679688 C 308.039062 284.53125 323 293.378906 337.96875 302.210938 C 349.441406 284.410156 360.890625 266.609375 372.351562 248.800781 C 364.820312 240.511719 355.71875 232.648438 344.460938 230.308594 C 335.050781 228.289062 325.570312 232.550781 318.460938 238.488281 C 306.859375 248.378906 299.421875 262.050781 293.089844 275.679688 Z M 293.089844 275.679688 " transform="matrix(1,0,0,-1,0,333)"/>
<path style="fill-rule:nonzero;fill:rgb(100%,100%,100%);fill-opacity:1;stroke-width:0.09375;stroke-linecap:butt;stroke-linejoin:miter;stroke:rgb(100%,100%,100%);stroke-opacity:1;stroke-miterlimit:10;" d="M 271.671875 264.449219 C 276.460938 266.480469 281.371094 268.261719 286.390625 269.648438 C 293.058594 255.71875 301.019531 241.820312 313.078125 231.820312 C 278.160156 203.339844 244.511719 173.179688 213.730469 140.230469 C 192.988281 117.660156 173.058594 94.050781 157.421875 67.589844 C 146.929688 50.761719 138.730469 32.148438 135.691406 12.441406 C 102.121094 37.738281 68.46875 62.921875 34.878906 88.191406 C 78.671875 128.679688 124.089844 167.46875 171.769531 203.328125 C 203.328125 226.308594 235.621094 248.988281 271.671875 264.449219 Z M 271.671875 264.449219 " transform="matrix(1,0,0,-1,0,333)"/>
<path style="fill-rule:nonzero;fill:rgb(100%,100%,100%);fill-opacity:1;stroke-width:0.09375;stroke-linecap:butt;stroke-linejoin:miter;stroke:rgb(100%,100%,100%);stroke-opacity:1;stroke-miterlimit:10;" d="M 626.789062 199.878906 C 627.910156 200.269531 629.039062 200.660156 630.171875 201.039062 C 646.710938 192.371094 662.441406 181.949219 676.101562 169.160156 C 689.210938 156.898438 700.410156 142.390625 707.75 125.941406 C 708.25 124.359375 707.921875 122.628906 708 120.988281 C 707.738281 96.621094 707.550781 72.25 707.308594 47.878906 C 680.519531 47.570312 653.730469 47.308594 626.941406 46.980469 C 623.699219 46.601562 621.351562 49.308594 618.660156 50.640625 C 621.371094 100.390625 624.058594 150.140625 626.789062 199.878906 Z M 626.789062 199.878906 " transform="matrix(1,0,0,-1,0,333)"/>
</g>
</svg>
