<svg xmlns="http://www.w3.org/2000/svg" xmlns:xlink="http://www.w3.org/1999/xlink" width="81.568pt" height="160.297pt" viewBox="0 0 81.568 160.297"><defs><path id="a" d="M.39063-3.28125c0 2 1.14062 3.46875 3.54687 3.46875 2.14063 0 3.1875-1.10937 3.85938-2.29687.65625-1.1875.78125-2.42188.78125-2.90625 0-2.48438-1.51563-3.5625-3.51563-3.5625-1.9375 0-3.125 1.07812-3.84375 2.23437-.67187 1.125-.82812 2.26563-.82812 3.0625m1.26562.5c0-1.01562.20313-2.15625.75-3.32812C2.96875-7.25 3.82813-8.14062 5.125-8.14062c1.3125 0 2.17188.78125 2.17188 2.5 0 .6875-.0625 1.6875-.5625 2.96875C6.21875-1.35937 5.40625-.25 3.82813-.25c-1.3125 0-2.17188-.84375-2.17188-2.53125m0 0"/><path id="b" d="M.25 0h3.32813l.0625-.34375-.71875-.0625c-.20313 0-.29688-.125-.29688-.3125 0-.07812.01563-.1875.04688-.28125l1.4375-6.375c.09375-.375.20312-.57812.51562-.60937l.67188-.04688L5.375-8.375H2.0625l-.09375.34375.71875.04688c.21875.01562.29688.14062.29688.34375 0 .07812 0 .17187-.03125.26562L1.5-1c-.09375.375-.21875.54688-.5.57813l-.67187.07812Zm0 0"/><path id="c" d="M.25 0h6.20313l.625-2.125h-.35938c-.625 1.5-1.17187 1.70313-2.54687 1.70313-1.23438 0-1.5-.125-1.5-.5 0-.14063.03125-.3125.09375-.5625L4.10938-7.375c.10937-.39062.20312-.57812.51562-.60937l.71875-.04688.09375-.34375h-3.375l-.09375.34375.71875.04688c.21875.01562.29688.125.29688.32812 0 .07813 0 .17188-.03125.28125L1.5-1c-.10937.42188-.21875.54688-.5.57813l-.67187.07812Zm0 0"/><path id="d" d="M-.23437 0H2.5l.07813-.34375-.67188-.0625C1.75-.42187 1.6875-.5 1.6875-.625c0-.0625.03125-.14062.0625-.23437.40625-.78125.79688-1.5625 1.23438-2.375h2.71875L6-.73437s-.0625.29687-.3125.32812l-.64062.0625L4.96875 0h2.98438l.07812-.34375-.46875-.04687c-.375-.03125-.42187-.20313-.48437-.70313L6.1875-8.375h-.85937L3.28125-4.8125c-.60937 1.09375-1.625 2.89063-2.0625 3.60938C.82813-.5625.625-.4375.25-.40625l-.40625.0625Zm3.46875-3.70312L5.20313-7.25l.4375 3.54688Zm0 0"/><path id="e" d="M0 0h3.67188C6.59375 0 7.1875-1.51562 7.1875-2.51562c0-1.28125-.9375-1.82813-1.82812-2l.01562-.01563c1.60938-.20312 2.29688-1.10937 2.29688-2.03125 0-.98437-.57813-1.8125-2.8125-1.8125h-3.0625l-.07813.34375.71875.0625c.20313.01563.29688.10938.29688.29688 0 .07812-.03125.1875-.04688.29687L1.25-1c-.09375.39063-.20312.53125-.5.57813l-.6875.07812Zm2.42188-.92187q0-.14063.04687-.28126l.6875-3.10937h.48438c1.1875 0 2.25.35938 2.25 1.73438 0 1.07812-.65625 2.15625-2.28125 2.15625-.95313 0-1.1875-.20313-1.1875-.5M3.25-4.73437l.625-2.8125c.09375-.35938.15625-.42188.96875-.42188 1.01563 0 1.59375.51563 1.59375 1.375 0 1.25-1.0625 1.85938-2.40625 1.85938Zm0 0"/><path id="f" d="M.1875 0h4.35938L5-1.54687h-.28125c-.35937.875-.76562 1.21875-1.75 1.21875-.78125 0-1-.0625-1-.34375 0-.0625.03125-.17188.0625-.3125l.9375-4.14063c.07813-.28125.14063-.42187.35938-.4375l.46875-.03125.07812-.26562H1.4375l-.0625.26562.48438.03125c.14062.01563.20312.07813.20312.21875 0 .0625 0 .125-.03125.21875l-1 4.39063C.96875-.4375.89063-.32812.67188-.3125l-.4375.04688Zm0 0"/><path id="g" d="M-.15625 0h1.92188l.0625-.26562-.46875-.04688c-.10938 0-.17188-.0625-.17188-.14062 0-.14063.875-1.75.89063-1.76563h1.84375l.1875 1.6875s-.03125.20313-.21875.21875l-.45313.04688L3.39063 0h2.20312l.04688-.26562-.32813-.01563c-.25-.03125-.29687-.20312-.32812-.53125l-.59375-5.04687H3.6875L2.25-3.32812C1.79688-2.54687 1.09375-1.29687.79688-.8125c-.23438.39063-.375.48438-.64063.51563l-.26562.03125ZM2.25-2.5625 3.59375-5 3.875-2.5625Zm0 0"/><path id="h" d="M.71875-1.15625H5.375v-.57812H.71875Zm0-1.89062H5.375v-.5625H.71875Zm0 0"/><path id="i" d="M.34375-2.82812c0 1.65625.5 2.92187 1.95313 2.92187 1.4375 0 1.9375-1.26562 1.9375-2.92187s-.5-2.9375-1.9375-2.9375c-1.45313 0-1.95313 1.28125-1.95313 2.9375m.96875 0c0-1.28125.20313-2.625.98438-2.625.76562 0 .96875 1.34375.96875 2.625S3.0625-.21875 2.29688-.21875c-.78125 0-.98438-1.32812-.98438-2.60937m0 0"/><path id="j" d="m.4375 1.0625.1875.15625C1.04688.82813 1.71875.23438 1.71875-.4375c0-.45312-.23437-.78125-.60937-.78125-.3125 0-.46875.23438-.46875.4375 0 .3125.26562.46875.26562.82813C.90625.40625.70313.75.4375 1.0625m0 0"/><path id="k" d="M.17188-1.70312.26563-1.5h2.28125v.84375c0 .28125-.10938.32813-.29688.34375l-.53125.04688V0h2.3125v-.26562l-.375-.04688c-.1875-.01562-.25-.0625-.25-.34375V-1.5h.85938v-.45312h-.85938v-3.70313H2.6875C1.85938-4.45312.95313-3.01562.17188-1.70312m.6875-.25c.46875-.875 1.0625-1.82813 1.6875-2.82813v2.82813Zm0 0"/><path id="l" d="M.32813-1.5625c0 .95313.65625 1.65625 1.96875 1.65625S4.25-.60937 4.25-1.5625c0-.82812-.51562-1.32812-1.125-1.48437.51563-.14063.92188-.57813.92188-1.25 0-.9375-.73438-1.46875-1.75-1.46875-1.03125 0-1.78125.53125-1.78125 1.46875 0 .67187.45312 1.10937.9375 1.25-.59375.15625-1.125.65625-1.125 1.48437m.98437.03125c0-.76562.34375-1.3125.98438-1.3125.64062 0 .96875.54688.96875 1.3125 0 .75-.3125 1.3125-.96875 1.3125-.67188 0-.98438-.5625-.98438-1.3125m.14063-2.79687c0-.64063.29687-1.125.84375-1.125.53125 0 .82812.48437.82812 1.125 0 .59375-.26562 1.14062-.82812 1.14062s-.84375-.54687-.84375-1.14062m0 0"/><path id="o" d="M.1875 0h2.39063L2.625-.26562l-.46875-.03125c-.14062-.01563-.20312-.09375-.20312-.21875 0-.0625 0-.14063.01562-.21876l1-4.39062c.0625-.26562.14063-.42187.35938-.4375l.45312-.03125.0625-.26562H1.4375l-.0625.26562.48438.03125c.14062.01563.20312.09375.20312.21875 0 .0625 0 .14063-.03125.21875l-1 4.39063c-.0625.28124-.14062.40625-.35937.42187l-.4375.04688Zm0 0"/><path id="p" d="M.92188 0h2.84375v-.26562l-.6875-.0625c-.1875-.01563-.28125-.07813-.28125-.39063v-5L2.75-5.76562l-1.82812.3125v.21875l.73437.10937c.17188.01563.21875.07813.21875.34375v4.0625c0 .3125-.07812.375-.28125.39063l-.67187.0625Zm0 0"/><path id="q" d="M.25-.09375.34375 0H3.9375l.29688-1.20312-.25-.04688c-.20313.45313-.34375.51563-.6875.51563H1.125c.14063-.40625.59375-.98438 1.40625-1.53125C3.39063-2.84375 4-3.23437 4-4.17187c0-1.17188-.79687-1.59375-1.73437-1.59375-1.15625 0-1.8125.67187-1.8125 1.1875 0 .3125.34375.45312.53125.45312.15624 0 .23437-.09375.28124-.25.125-.60937.45313-1.07812.9375-1.07812C2.79688-5.45312 3-4.9375 3-4.3125 3-3.5 2.625-2.95312 1.82813-2.26562.75-1.34375.375-.73437.25-.09375m0 0"/><path id="r" d="M.04688 0h2.625C4.64063 0 5.1875-.90625 5.1875-1.73437c0-.89063-.67187-1.29688-1.28125-1.40625v-.01563c1.125-.125 1.60938-.75 1.60938-1.42187 0-.70313-.40625-1.28125-2.01563-1.28125H1.29688l-.0625.26562.48437.04688c.14063 0 .20313.0625.20313.20312 0 .04688-.01563.125-.03126.21875L.90626-.73437c-.0625.28124-.14062.40625-.35937.42187l-.45313.04688Zm1.79687-.67187c0-.0625.01563-.125.03125-.1875l.48438-2.125h.32812c.8125 0 1.45313.26562 1.45313 1.15625 0 .76562-.4375 1.5-1.54688 1.5-.59375 0-.75-.125-.75-.34375m.57813-2.64063.4375-1.9375c.0625-.25.09375-.29687.625-.29687.65625 0 1.0625.32812 1.0625.9375 0 .84375-.6875 1.29687-1.625 1.29687Zm0 0"/><path id="s" d="M.35938-.90625c0 .35938.54687 1 1.75 1 1.4375 0 2.0625-.84375 2.0625-1.92187 0-1.07813-.65625-1.79688-1.79688-1.79688-.48437 0-.98437.21875-1.28125.45313l.1875-1.48438c.03125-.23437.07813-.26562.25-.26562h2.14063l.25-.65625-.04688-.07813H.92188l-.0625.07813-.17188 2.8125.23438.15625c.34375-.40625.6875-.59375 1.14062-.59375.54688 0 1.10938.40625 1.10938 1.48437 0 .85938-.32813 1.5-1.01563 1.5-.54687 0-.82812-.39062-1.01562-.9375-.0625-.14062-.15626-.23437-.29688-.23437-.1875 0-.48437.1875-.48437.48437m0 0"/><path id="t" d="M.375-2.26562C.375-.85937 1.20313.125 2.90625.125c1.5 0 2.23438-.75 2.70313-1.60937.45312-.82813.53125-1.67188.53125-2.03125C6.14063-5.25 5.07813-6 3.67188-6 1.42188-6 .375-3.95312.375-2.26562m1.03125.40625c0-1.46875.71875-3.8125 2.32813-3.8125.875 0 1.39062.54687 1.39062 1.64062 0 .54688-.07812 1.3125-.42187 2.17188-.34375.90625-.90625 1.65625-1.90625 1.65625-.85938 0-1.39063-.5625-1.39063-1.65625m0 0"/><path id="u" d="m.34375-4.40625.25.01563.07813-.17188c.10937-.21875.21874-.35937.59375-.35937h2.28125c-.07813.29687-.26563.84375-.95313 1.78125-.71875.98437-1.20312 1.92187-1.20312 2.84375 0 .32812.23437.39062.53125.39062.25 0 .45312-.04687.45312-.375.01563-1.23437.21875-2.04687.64063-2.73437.59375-1.01563 1.01562-1.5625 1.28125-2.5625l-.09375-.07813H.625Zm0 0"/><path id="m" d="M.42188-2.03125c0 1.40625.6875 2.125 1.95312 2.125.59375 0 1.40625-.29687 1.64063-1.21875l-.25-.10937c-.26563.59375-.59375.89062-1.21875.89062-1.01563 0-1.25-1.04687-1.25-1.84375 0-1.26562.5-1.76562 1.07812-1.76562.39063 0 .64063.28125.8125.73437.04688.14063.10938.21875.26563.21875.17187 0 .5-.10937.5-.4375 0-.39062-.5625-.8125-1.48438-.8125C.92188-4.25.42188-3.17187.42188-2.03125m0 0"/><path id="n" d="M.26563 0h2.0625v-.25c-.59375-.03125-.625-.0625-.625-.48437v-1.98438c0-.21875 0-.34375.0625-.45312.15624-.34375.53125-.625 1-.625.73437 0 .82812.53125.82812 1.0625v2c0 .42187-.03125.45312-.64062.48437V0h2.0625v-.25C4.40625-.28125 4.375-.3125 4.375-.73437v-1.98438c0-.21875.01563-.32812.0625-.46875.14063-.34375.5-.60937.96875-.60937.53125 0 .85938.29687.85938 1.0625v2c0 .42187-.03125.45312-.64063.48437V0h2.07813v-.25c-.60938-.03125-.64063-.0625-.64063-.48437v-2.17188c0-.85937-.46875-1.34375-1.26562-1.34375-.6875 0-1.1875.45313-1.48438.64063C4.10938-4 3.78125-4.25 3.1875-4.25c-.65625 0-1.1875.42188-1.48437.64063L1.625-4.25l-1.3125.21875v.20313l.3125.04687c.21875.03125.28125.0625.28125.375v2.67188c0 .42187-.01562.45312-.64062.48437Zm0 0"/></defs><path fill="none" stroke="#000" stroke-miterlimit="10" stroke-width=".3964" d="M21.73438 60.55469h36.66016l8.4297-43.25392Zm0 0"/><use xlink:href="#a" x="7.69027" y="73.67379"/><use xlink:href="#b" x="62.9516" y="73.48081"/><use xlink:href="#c" x="62.88992" y="12.7415"/><path fill="none" stroke="#000" stroke-miterlimit="10" stroke-width=".3964" d="M63.46095 34.59765H48.79298"/><use xlink:href="#d" x="68.01876" y="38.7796"/><use xlink:href="#e" x="35.78348" y="38.7796"/><path fill="none" stroke="#000" stroke-miterlimit="10" stroke-width=".3964" d="m66.83205 17.29296-3.36329 17.30078m3.36329-17.30078L48.80079 34.59374"/><use xlink:href="#f" x="4.29426" y="107.62548"/><use xlink:href="#g" x="9.84949" y="107.62548"/><use xlink:href="#h" x="17.8126" y="107.62548"/><use xlink:href="#i" x="25.66749" y="107.62548"/><use xlink:href="#j" x="30.23974" y="107.62548"/><use xlink:href="#k" x="33.54944" y="107.62548"/><use xlink:href="#l" x="38.12168" y="107.62548"/><use xlink:href="#m" x="44.60566" y="107.62548"/><use xlink:href="#n" x="48.80816" y="107.62548"/><use xlink:href="#f" x="4.29426" y="123.0851"/><use xlink:href="#o" x="9.84949" y="123.0851"/><use xlink:href="#h" x="16.00895" y="123.0851"/><use xlink:href="#p" x="23.86384" y="123.0851"/><use xlink:href="#j" x="28.43609" y="123.0851"/><use xlink:href="#q" x="31.74579" y="123.0851"/><use xlink:href="#m" x="38.22913" y="123.0851"/><use xlink:href="#n" x="42.43163" y="123.0851"/><use xlink:href="#f" x="4.29426" y="138.54472"/><use xlink:href="#r" x="9.84949" y="138.54472"/><use xlink:href="#h" x="17.68635" y="138.54472"/><use xlink:href="#i" x="25.54124" y="138.54472"/><use xlink:href="#j" x="30.11349" y="138.54472"/><use xlink:href="#l" x="33.42318" y="138.54472"/><use xlink:href="#s" x="37.99543" y="138.54472"/><use xlink:href="#m" x="44.47893" y="138.54472"/><use xlink:href="#n" x="48.68143" y="138.54472"/><use xlink:href="#f" x="4.29426" y="154.00435"/><use xlink:href="#t" x="9.84949" y="154.00435"/><use xlink:href="#h" x="18.29959" y="154.00435"/><use xlink:href="#p" x="26.15448" y="154.00435"/><use xlink:href="#j" x="30.72673" y="154.00435"/><use xlink:href="#u" x="34.03642" y="154.00435"/><use xlink:href="#m" x="40.5206" y="154.00435"/><use xlink:href="#n" x="44.7231" y="154.00435"/></svg>