<svg xmlns="http://www.w3.org/2000/svg" xmlns:xlink="http://www.w3.org/1999/xlink" width="150.245pt" height="146.71pt" viewBox="0 0 150.245 146.71"><defs><path id="a" d="M0 0h3.67188C6.59375 0 7.1875-1.51562 7.1875-2.51562c0-1.28125-.9375-1.82813-1.82812-2l.01562-.01563c1.60938-.20312 2.29688-1.10937 2.29688-2.03125 0-.98437-.57813-1.8125-2.8125-1.8125h-3.0625l-.07813.34375.71875.0625c.20313.01563.29688.10938.29688.29688 0 .07812-.03125.1875-.04688.29687L1.25-1c-.09375.39063-.20312.53125-.5.57813l-.6875.07812Zm2.42188-.92187q0-.14063.04687-.28126l.6875-3.10937h.48438c1.1875 0 2.25.35938 2.25 1.73438 0 1.07812-.65625 2.15625-2.28125 2.15625-.95313 0-1.1875-.20313-1.1875-.5M3.25-4.73437l.625-2.8125c.09375-.35938.15625-.42188.96875-.42188 1.01563 0 1.59375.51563 1.59375 1.375 0 1.25-1.0625 1.85938-2.40625 1.85938Zm0 0"/><path id="b" d="M.625-3.32812C.625-1.73437 1.42188.1875 4.42188.1875c.85937 0 1.6875-.125 2.46875-.51562L7.46875-2.25h-.35937c-.67188 1.20313-1.26563 2-2.76563 2-1.40625 0-2.40625-.89062-2.40625-2.76562 0-1.09375.28125-2.4375.85938-3.40625.60937-1.01563 1.5625-1.71875 2.85937-1.71875 1.53125 0 1.96875.70312 1.96875 2.03125H8l.4375-1.8125c-.6875-.4375-1.82812-.65625-2.67187-.65625-2.28125 0-3.59375 1.07812-4.3125 2.20312C.78125-5.28125.625-4.15625.625-3.32812m0 0"/><path id="c" d="M-.23437 0H2.5l.07813-.34375-.67188-.0625C1.75-.42187 1.6875-.5 1.6875-.625c0-.0625.03125-.14062.0625-.23437.40625-.78125.79688-1.5625 1.23438-2.375h2.71875L6-.73437s-.0625.29687-.3125.32812l-.64062.0625L4.96875 0h2.98438l.07812-.34375-.46875-.04687c-.375-.03125-.42187-.20313-.48437-.70313L6.1875-8.375h-.85937L3.28125-4.8125c-.60937 1.09375-1.625 2.89063-2.0625 3.60938C.82813-.5625.625-.4375.25-.40625l-.40625.0625Zm3.46875-3.70312L5.20313-7.25l.4375 3.54688Zm0 0"/><path id="d" d="M0 0h2.85938l.0625-.34375-.46875-.04687c-.35938-.01563-.5625-.10938-.5625-.375 0-.64063.125-1 .26562-1.64063l1.10938-4.9375h.01562L4.75-.14062h.32813l4.71875-7.20313h.03125L8.34375-1c-.10937.40625-.21875.54688-.51562.57813l-.65625.07812L7.09375 0h3.29688l.0625-.34375L9.75-.42187c-.21875-.01563-.3125-.125-.3125-.3125 0-.07813.01563-.17188.03125-.26563l1.46875-6.375c.09375-.40625.1875-.57812.5-.60937l.67188-.04688.07812-.34375H9.82813c-.65625 1.10938-1.375 2.1875-2.10938 3.3125L5.57813-1.79687h-.03125l-.6875-3.35938C4.60938-6.25 4.375-7.29687 4.15625-8.375H1.8125l-.07812.34375.71875.0625c.20312.01563.3125.125.3125.32813 0 .07812-.01563.17187-.04688.26562L1.57813-2.40625c-.14063.64063-.29688 1.10938-.4375 1.5C1-.51562.78125-.42187.4375-.39062l-.375.04687Zm0 0"/><path id="e" d="M0 0h3.4375L3.5-.34375l-.82812-.07812C2.46875-.4375 2.375-.53125 2.375-.71875c0-.07812.01563-.17187.03125-.28125l.54688-2.39062h.90625c1.03125 0 1.98437-.14063 2.67187-.5625.78125-.48438 1.23438-1.3125 1.23438-2.20313 0-.82812-.39063-1.46875-.98438-1.79687-.5625-.32813-1.34375-.42188-2.14062-.42188H1.79688l-.07813.34375.71875.04688c.20313.01562.29688.125.29688.32812q0 .1172-.04688.28125L1.23438-1c-.09376.40625-.20313.54688-.5.57813L.0625-.34375Zm3.125-4.07812c0-.07813 0-.15625.03125-.25l.73438-3.21875c.07812-.29688.15625-.42188.78125-.42188 1.1875 0 1.8125.5625 1.8125 1.59375 0 1.73438-.96875 2.5625-2.60938 2.5625-.60937 0-.75-.0625-.75-.26562m0 0"/><path id="f" d="M.04688 0h2.625C4.64063 0 5.1875-.90625 5.1875-1.73437c0-.89063-.67187-1.29688-1.28125-1.40625v-.01563c1.125-.125 1.60938-.75 1.60938-1.42187 0-.70313-.40625-1.28125-2.01563-1.28125H1.29688l-.0625.26562.48437.04688c.14063 0 .20313.0625.20313.20312 0 .04688-.01563.125-.03126.21875L.90626-.73437c-.0625.28124-.14062.40625-.35937.42187l-.45313.04688Zm1.79687-.67187c0-.0625.01563-.125.03125-.1875l.48438-2.125h.32812c.8125 0 1.45313.26562 1.45313 1.15625 0 .76562-.4375 1.5-1.54688 1.5-.59375 0-.75-.125-.75-.34375m.57813-2.64063.4375-1.9375c.0625-.25.09375-.29687.625-.29687.65625 0 1.0625.32812 1.0625.9375 0 .84375-.6875 1.29687-1.625 1.29687Zm0 0"/><path id="g" d="M.25-2.32812C.25-1.29687.71875.125 2.90625.125 3.5.125 4.125.04688 4.65625-.21875l.42188-1.4375H4.8125C4.32813-.79687 3.89063-.20312 2.875-.20312c-.92187 0-1.59375-.59375-1.59375-1.875 0-1.40625.64063-3.59375 2.54688-3.59375 1.04687 0 1.32812.5625 1.32812 1.45312h.28125L5.75-5.54687C5.26563-5.85937 4.4375-6 3.875-6 1.28125-6 .25-4.07812.25-2.32812m0 0"/><path id="h" d="M.71875-1.15625H5.375v-.57812H.71875Zm0-1.89062H5.375v-.5625H.71875Zm0 0"/><path id="i" d="M.92188 0h2.84375v-.26562l-.6875-.0625c-.1875-.01563-.28125-.07813-.28125-.39063v-5L2.75-5.76562l-1.82812.3125v.21875l.73437.10937c.17188.01563.21875.07813.21875.34375v4.0625c0 .3125-.07812.375-.28125.39063l-.67187.0625Zm0 0"/><path id="j" d="M.35938-.90625c0 .35938.54687 1 1.75 1 1.4375 0 2.0625-.84375 2.0625-1.92187 0-1.07813-.65625-1.79688-1.79688-1.79688-.48437 0-.98437.21875-1.28125.45313l.1875-1.48438c.03125-.23437.07813-.26562.25-.26562h2.14063l.25-.65625-.04688-.07813H.92188l-.0625.07813-.17188 2.8125.23438.15625c.34375-.40625.6875-.59375 1.14062-.59375.54688 0 1.10938.40625 1.10938 1.48437 0 .85938-.32813 1.5-1.01563 1.5-.54687 0-.82812-.39062-1.01562-.9375-.0625-.14062-.15626-.23437-.29688-.23437-.1875 0-.48437.1875-.48437.48437m0 0"/><path id="m" d="M-.15625 0h1.92188l.0625-.26562-.46875-.04688c-.10938 0-.17188-.0625-.17188-.14062 0-.14063.875-1.75.89063-1.76563h1.84375l.1875 1.6875s-.03125.20313-.21875.21875l-.45313.04688L3.39063 0h2.20312l.04688-.26562-.32813-.01563c-.25-.03125-.29687-.20312-.32812-.53125l-.59375-5.04687H3.6875L2.25-3.32812C1.79688-2.54687 1.09375-1.29687.79688-.8125c-.23438.39063-.375.48438-.64063.51563l-.26562.03125ZM2.25-2.5625 3.59375-5 3.875-2.5625Zm0 0"/><path id="n" d="m.34375-4.40625.25.01563.07813-.17188c.10937-.21875.21874-.35937.59375-.35937h2.28125c-.07813.29687-.26563.84375-.95313 1.78125-.71875.98437-1.20312 1.92187-1.20312 2.84375 0 .32812.23437.39062.53125.39062.25 0 .45312-.04687.45312-.375.01563-1.23437.21875-2.04687.64063-2.73437.59375-1.01563 1.01562-1.5625 1.28125-2.5625l-.09375-.07813H.625Zm0 0"/><path id="o" d="M.32813-1.5625c0 .95313.65625 1.65625 1.96875 1.65625S4.25-.60937 4.25-1.5625c0-.82812-.51562-1.32812-1.125-1.48437.51563-.14063.92188-.57813.92188-1.25 0-.9375-.73438-1.46875-1.75-1.46875-1.03125 0-1.78125.53125-1.78125 1.46875 0 .67187.45312 1.10937.9375 1.25-.59375.15625-1.125.65625-1.125 1.48437m.98437.03125c0-.76562.34375-1.3125.98438-1.3125.64062 0 .96875.54688.96875 1.3125 0 .75-.3125 1.3125-.96875 1.3125-.67188 0-.98438-.5625-.98438-1.3125m.14063-2.79687c0-.64063.29687-1.125.84375-1.125.53125 0 .82812.48437.82812 1.125 0 .59375-.26562 1.14062-.82812 1.14062s-.84375-.54687-.84375-1.14062m0 0"/><path id="p" d="M.04688 0H2.0625l.04688-.26562L1.75-.28125C1.5-.3125 1.375-.375 1.375-.5625c0-.375.09375-.70312.20313-1.20312l.73437-3.32813h.01563l.96875 5h.3125l3.17187-5h.01563L5.78125-.73437c-.0625.28124-.14062.40625-.35937.42187l-.4375.04688L4.92188 0h2.375l.04687-.26562L6.875-.3125c-.15625 0-.21875-.07812-.21875-.20312 0-.0625.01563-.14063.03125-.21876l1-4.39062c.0625-.28125.125-.42187.35938-.4375L8.5-5.59375l.0625-.26562H6.78125c-.42187.73437-.89062 1.48437-1.375 2.21875L3.96875-1.375h-.01562L3.5-3.67187c-.17187-.75-.3125-1.45313-.45312-2.1875h-1.75L1.25-5.59375l.46875.04688c.14063 0 .21875.0625.21875.20312 0 .0625-.01562.14063-.03125.21875l-.76562 3.35938c-.10938.5-.20313.8125-.29688 1.09375C.75-.39063.60938-.3125.375-.28125l-.28125.01563Zm0 0"/><path id="q" d="M.17188-1.70312.26563-1.5h2.28125v.84375c0 .28125-.10938.32813-.29688.34375l-.53125.04688V0h2.3125v-.26562l-.375-.04688c-.1875-.01562-.25-.0625-.25-.34375V-1.5h.85938v-.45312h-.85938v-3.70313H2.6875C1.85938-4.45312.95313-3.01562.17188-1.70312m.6875-.25c.46875-.875 1.0625-1.82813 1.6875-2.82813v2.82813Zm0 0"/><path id="r" d="M.04688 0h2.5l.04687-.26562-.57812-.04688C1.875-.32812 1.8125-.39062 1.8125-.51562c0-.0625.01563-.14063.03125-.21876l.35938-1.59374h.60937c2.46875 0 2.76563-1.32813 2.76563-1.96875 0-1.5625-1.73438-1.5625-2.25-1.5625H1.3125l-.0625.26562.48438.03125c.14062.01563.1875.07813.1875.21875 0 .0625 0 .125-.01563.21875l-1 4.39063C.82813-.45313.75-.32812.54688-.3125l-.45313.04688Zm2.28125-2.82812c0-.0625 0-.10938.03125-.17188l.5-2.25c.0625-.21875.10937-.29687.53125-.29687.78125 0 1.1875.375 1.1875 1.07812 0 1.125-.64063 1.8125-1.75 1.8125-.40625 0-.5-.04687-.5-.17187m0 0"/><path id="s" d="M.35938-2.65625c0 1.8125.625 2.75 1.98437 2.75 1.3125 0 1.98438-.79687 1.98438-1.92187 0-1.14063-.73438-1.76563-1.625-1.76563-.64063 0-1.125.40625-1.375.71875 0-1.5625.42187-2.57812 1.20312-2.57812.375 0 .64063.34375.76563.84375.03125.10937.125.20312.26562.20312.20313 0 .5-.15625.5-.42187 0-.35938-.4375-.9375-1.48437-.9375-1.375 0-2.21875 1.04687-2.21875 3.10937M1.32813-2c0-.5.35937-1.09375 1.03125-1.09375.51562 0 1 .45313 1 1.42188 0 .85937-.29688 1.45312-.98438 1.45312-.70312 0-1.04687-.79687-1.04687-1.78125m0 0"/><path id="k" d="M.42188-2.03125c0 1.40625.6875 2.125 1.95312 2.125.59375 0 1.40625-.29687 1.64063-1.21875l-.25-.10937c-.26563.59375-.59375.89062-1.21875.89062-1.01563 0-1.25-1.04687-1.25-1.84375 0-1.26562.5-1.76562 1.07812-1.76562.39063 0 .64063.28125.8125.73437.04688.14063.10938.21875.26563.21875.17187 0 .5-.10937.5-.4375 0-.39062-.5625-.8125-1.48438-.8125C.92188-4.25.42188-3.17187.42188-2.03125m0 0"/><path id="l" d="M.26563 0h2.0625v-.25c-.59375-.03125-.625-.0625-.625-.48437v-1.98438c0-.21875 0-.34375.0625-.45312.15624-.34375.53125-.625 1-.625.73437 0 .82812.53125.82812 1.0625v2c0 .42187-.03125.45312-.64062.48437V0h2.0625v-.25C4.40625-.28125 4.375-.3125 4.375-.73437v-1.98438c0-.21875.01563-.32812.0625-.46875.14063-.34375.5-.60937.96875-.60937.53125 0 .85938.29687.85938 1.0625v2c0 .42187-.03125.45312-.64063.48437V0h2.07813v-.25c-.60938-.03125-.64063-.0625-.64063-.48437v-2.17188c0-.85937-.46875-1.34375-1.26562-1.34375-.6875 0-1.1875.45313-1.48438.64063C4.10938-4 3.78125-4.25 3.1875-4.25c-.65625 0-1.1875.42188-1.48437.64063L1.625-4.25l-1.3125.21875v.20313l.3125.04687c.21875.03125.28125.0625.28125.375v2.67188c0 .42187-.01562.45312-.64062.48437Zm0 0"/></defs><path fill="none" stroke="#000" stroke-miterlimit="10" stroke-width=".39651" d="M132.17969 53.29297 18.10156 22.90234l16.8789-1.41406 77.20704 16.4961Zm0 0"/><path fill="none" stroke="#000" stroke-miterlimit="10" stroke-width=".39651" d="M132.17969 53.29297 85.38672 17.4453l-67.28516 5.45703"/><use xlink:href="#a" x="136.73191" y="66.22284"/><use xlink:href="#b" x="4.29542" y="36.02459"/><use xlink:href="#c" x="80.9741" y="12.89382"/><use xlink:href="#d" x="116.73937" y="33.43062"/><use xlink:href="#e" x="21.8701" y="16.93452"/><use xlink:href="#f" x="30.54252" y="79.94857"/><use xlink:href="#g" x="36.63148" y="79.94857"/><use xlink:href="#h" x="44.70498" y="79.94857"/><use xlink:href="#i" x="52.57101" y="79.94857"/><use xlink:href="#j" x="57.14449" y="79.94857"/><use xlink:href="#k" x="63.6212" y="79.94857"/><use xlink:href="#l" x="67.82483" y="79.94857"/><use xlink:href="#m" x="30.54252" y="95.41236"/><use xlink:href="#f" x="36.75776" y="95.41236"/><use xlink:href="#h" x="44.59673" y="95.41236"/><use xlink:href="#n" x="52.46276" y="95.41236"/><use xlink:href="#k" x="58.93872" y="95.41236"/><use xlink:href="#l" x="63.14236" y="95.41236"/><use xlink:href="#m" x="30.54252" y="110.87615"/><use xlink:href="#g" x="36.75776" y="110.87615"/><use xlink:href="#h" x="44.83127" y="110.87615"/><use xlink:href="#o" x="52.6973" y="110.87615"/><use xlink:href="#k" x="59.17414" y="110.87615"/><use xlink:href="#l" x="63.37778" y="110.87615"/><use xlink:href="#m" x="30.54252" y="126.33994"/><use xlink:href="#p" x="36.75776" y="126.33994"/><use xlink:href="#h" x="47.6367" y="126.33994"/><use xlink:href="#q" x="55.50273" y="126.33994"/><use xlink:href="#k" x="61.97974" y="126.33994"/><use xlink:href="#l" x="66.18338" y="126.33994"/><use xlink:href="#m" x="30.54252" y="141.80503"/><use xlink:href="#r" x="36.75776" y="141.80503"/><use xlink:href="#h" x="44.64184" y="141.80503"/><use xlink:href="#s" x="52.50786" y="141.80503"/><use xlink:href="#k" x="58.984" y="141.80503"/><use xlink:href="#l" x="63.18763" y="141.80503"/></svg>