<svg xmlns="http://www.w3.org/2000/svg" xmlns:xlink="http://www.w3.org/1999/xlink" width="103.467pt" height="126.1pt" viewBox="0 0 103.467 126.1"><defs><path id="a" d="M-.23437 0H2.5l.07813-.34375-.67188-.0625C1.75-.42187 1.6875-.5 1.6875-.625c0-.0625.01563-.14062.0625-.23437.39063-.78125.78125-1.5625 1.23438-2.375h2.71875L6-.73437s-.07812.29687-.32812.32812l-.64063.0625L4.96875 0H7.9375l.07813-.34375-.46875-.04687c-.375-.03125-.42188-.20313-.48438-.70313l-.89062-7.26562H5.3125l-2.03125 3.5625c-.625 1.07812-1.625 2.875-2.07812 3.59375C.82813-.5625.625-.4375.25-.40625l-.40625.0625Zm3.46875-3.6875L5.1875-7.23437 5.625-3.6875Zm0 0"/><path id="b" d="M0 0h3.67188c2.90625 0 3.5-1.5 3.5-2.5 0-1.28125-.9375-1.82812-1.82813-2l.01563-.03125c1.60937-.1875 2.29687-1.09375 2.29687-2.01562 0-.96875-.57812-1.8125-2.8125-1.8125h-3.0625l-.07812.34375.73437.0625c.20313.01562.28125.10937.28125.29687 0 .07813-.01562.1875-.04687.29688L1.25-1c-.09375.39063-.20312.53125-.5.57813l-.6875.07812Zm2.42188-.92187c0-.09376.01562-.1875.03125-.28126l.70312-3.09374H3.625c1.20313 0 2.25.34375 2.25 1.71875 0 1.09375-.65625 2.15625-2.28125 2.15625-.9375 0-1.17187-.20313-1.17187-.5m.8125-3.79688L3.875-7.51562c.07813-.35938.15625-.4375.95313-.4375 1.01562 0 1.59375.51562 1.59375 1.375 0 1.25-1.0625 1.85937-2.39063 1.85937Zm0 0"/><path id="c" d="M.625-3.3125c0 1.59375.79688 3.5 3.78125 3.5.85938 0 1.6875-.125 2.45313-.51562L7.45313-2.25h-.35938c-.67187 1.20313-1.26562 2-2.76562 2-1.39063 0-2.40625-.89062-2.40625-2.76562 0-1.09375.29687-2.42188.875-3.39063C3.39063-7.42187 4.34375-8.125 5.64063-8.125c1.53125 0 1.96875.70313 1.96875 2.03125h.375l.4375-1.8125c-.6875-.4375-1.82813-.64062-2.67188-.64062-2.28125 0-3.59375 1.0625-4.29687 2.1875C.78125-5.26562.625-4.15625.625-3.3125m0 0"/><path id="d" d="M0 0h3.70313c2.42187 0 3.8125-.875 4.6875-2.1875.70312-1.04687.8125-2.0625.8125-2.78125 0-.96875-.34375-1.95312-1.03125-2.53125-.71875-.59375-1.79688-.85937-3.125-.85937H1.78125l-.07812.34375.73437.0625c.20313 0 .28125.10937.28125.29687 0 .07813-.01562.1875-.04687.29688L1.23438-1c-.09376.39063-.1875.54688-.48438.57813l-.6875.07812Zm2.39063-.89062c0-.04688 0-.09376.01562-.15626L3.85938-7.5c.09375-.40625.26562-.45312 1.32812-.45312 2.51563.0625 2.71875 1.75 2.71875 2.71875 0 1.04687-.23437 2.01562-.78125 2.92187-.70312 1.125-1.71875 1.89063-3.73437 1.89063-.59375 0-1-.07813-1-.46875m0 0"/><path id="e" d="M.125 0h6.29688l.625-2.125H6.6875c-.625 1.5-1.15625 1.70313-2.65625 1.70313-1.42187 0-1.5-.1875-1.5-.5 0-.125.04688-.3125.09375-.5625L3.23438-4.125h1.59375c.89062 0 1.0625.17188 1.0625.70313 0 .10937 0 .20312-.01563.32812h.35938l.5625-2.51562h-.375C6.125-4.76562 6-4.57812 4.92188-4.57812H3.34375l.6875-3.01563c.0625-.28125.14063-.35937.34375-.35937h1.45313c1.1875 0 1.42187.3125 1.42187.96875 0 .29687-.03125.625-.03125.625h.35938l.45312-2H1.92188l-.09376.34375.73438.0625c.20313 0 .29688.09375.29688.28125 0 .07812-.01563.17187-.04688.29687L1.375-1c-.10937.40625-.20312.54688-.5.57813l-.6875.07812Zm0 0"/><path id="f" d="M.25-2.32812C.25-1.29687.71875.125 2.90625.125c.59375 0 1.20313-.07812 1.75-.34375l.42188-1.42187H4.8125c-.5.84375-.92187 1.4375-1.9375 1.4375-.9375 0-1.59375-.59375-1.59375-1.875 0-1.39063.64063-3.57813 2.53125-3.57813 1.0625 0 1.32813.54688 1.32813 1.4375h.28125l.3125-1.32812C5.25-5.84375 4.4375-5.98437 3.875-5.98437 1.28125-5.98437.25-4.07812.25-2.32812m0 0"/><path id="g" d="M.10938 0h4.46875l.45312-1.5625h-.26562C4.3125-.51562 3.89063-.32812 2.92188-.32812c-.90625 0-1.01563-.0625-1.01563-.32813q0-.11718.04688-.32812l.4375-1.89063h1.03125c.59375 0 .70312.14063.70312.51563v.21875h.26563l.40625-1.8125h-.28125c-.23438.59375-.32813.73437-1.01563.73437H2.46875l.46875-2.0625c.04688-.20312.10938-.25.28125-.25H4.125c.8125 0 .98438.23438 1 .6875 0 .07813 0 .35938-.01562.4375H5.375l.32813-1.4375H1.375l-.07812.25.5.04688c.14062 0 .20312.0625.20312.20312 0 .04688-.01562.125-.03125.21875l-1 4.39063c-.0625.28124-.14062.40625-.35937.42187l-.45313.04688Zm0 0"/><path id="h" d="M.71875-1.15625H5.375v-.57812H.71875Zm0-1.89062H5.375v-.5625H.71875Zm0 0"/><path id="i" d="M.34375-2.64062c0 1.79687.64063 2.73437 2 2.73437 1.3125 0 1.96875-.79687 1.96875-1.90625 0-1.15625-.71875-1.78125-1.625-1.78125-.64062 0-1.10937.42188-1.35937.71875 0-1.5625.42187-2.5625 1.1875-2.5625.375 0 .64062.32813.78125.84375.03125.10938.10937.1875.26562.1875.1875 0 .48438-.14062.48438-.40625 0-.35937-.42188-.9375-1.46875-.9375-1.375 0-2.23438 1.03125-2.23438 3.10938M1.32813-2c0-.5.35937-1.09375 1.01562-1.09375.53125 0 1 .45313 1 1.42188 0 .85937-.29687 1.45312-.98437 1.45312S1.32813-1.01562 1.32813-2m0 0"/><path id="l" d="M.04688 0h2.60937c1.73438 0 2.70313-.60937 3.29688-1.53125.48437-.71875.57812-1.45312.57812-1.92187 0-.73438-.26562-1.40625-.75-1.79688-.5-.40625-1.25-.59375-2.20312-.59375H1.29688l-.0625.25.48437.04688c.14063 0 .20313.07812.20313.20312 0 .0625-.01563.14063-.03126.23438l-.98437 4.375c-.0625.28124-.14062.40625-.35937.42187l-.45313.04688Zm1.78125-.64062c0-.03126 0-.07813.01562-.10938l1-4.46875c.07813-.29687.1875-.3125.875-.3125C5.34375-5.51562 5.5-4.40625 5.5-3.70312c-.01562.57812-.15625 1.42187-.5625 2.07812C4.48438-.85937 3.78125-.32812 2.5-.32812c-.39062 0-.67187-.04688-.67187-.3125m0 0"/><path id="m" d="M.23438-.90625c0 .35938.5625 1 1.82812 1 1.26563 0 2.04688-.60937 2.04688-1.6875 0-1.15625-1-1.45312-1.42188-1.5V-3.125c.45313-.09375 1.1875-.42187 1.1875-1.25 0-.98437-.8125-1.375-1.71875-1.375-1.07812 0-1.70312.60938-1.70312 1.03125 0 .29688.32812.4375.46875.4375.125 0 .20312-.07812.25-.20312.1875-.59375.46875-.95313.9375-.95313.625 0 .78125.59375.78125 1.04688C2.89063-3.9375 2.75-3.25 2.04688-3.25c-.375 0-.64063-.09375-.76563-.09375s-.17187.10938-.17187.26563.04687.26562.17187.26562.39063-.09375.76563-.09375c.65625 0 1.0625.54688 1.0625 1.34375 0 .98438-.45313 1.34375-1.03125 1.34375-.51563 0-.85938-.39062-1.04688-.9375-.04687-.15625-.14062-.25-.28125-.25-.1875 0-.51562.1875-.51562.5m0 0"/><path id="n" d="M.04688 0h2.60937C4.625 0 5.17188-.90625 5.17188-1.73437c0-.89063-.65625-1.29688-1.28125-1.39063l.01562-.03125c1.10938-.125 1.60938-.75 1.60938-1.40625 0-.70312-.42188-1.28125-2.03125-1.28125h-2.1875l-.0625.25.48437.04688c.14063.01562.20313.07812.20313.20312 0 .0625-.01563.14063-.03126.23438l-.98437 4.375c-.0625.28124-.14062.40625-.35937.42187l-.45313.04688Zm1.79687-.67187c0-.0625.01563-.125.03125-.1875l.46875-2.125h.34375c.79688 0 1.45313.28125 1.45313 1.17187 0 .76563-.45313 1.48438-1.54688 1.48438-.59375 0-.75-.125-.75-.34375m.5625-2.625.45313-1.9375c.0625-.25.09375-.29688.60937-.29688.67188 0 1.0625.3125 1.0625.92188 0 .84375-.67187 1.3125-1.60937 1.3125Zm0 0"/><path id="o" d="M.35938-.90625c0 .35938.54687 1 1.75 1 1.4375 0 2.04687-.84375 2.04687-1.90625 0-1.07812-.64062-1.8125-1.78125-1.8125-.5 0-.98437.21875-1.28125.46875l.1875-1.48437c.03125-.23438.0625-.26563.25-.26563h2.14063l.25-.67187-.0625-.07813H.92188l-.0625.07813L.6875-2.75l.23438.14063c.34375-.40625.6875-.59375 1.125-.59375.54687 0 1.10937.40625 1.10937 1.48437 0 .85938-.32812 1.5-1 1.5-.54687 0-.82812-.39062-1.01562-.9375-.0625-.14062-.15626-.23437-.29688-.23437-.20312 0-.48437.1875-.48437.48437m0 0"/><path id="j" d="M.40625-2.03125c0 1.40625.70313 2.125 1.96875 2.125.59375 0 1.39063-.29687 1.625-1.20312l-.25-.125c-.26562.59375-.59375.89062-1.21875.89062-1 0-1.23437-1.04687-1.23437-1.84375 0-1.26562.5-1.76562 1.07812-1.76562.39063 0 .625.28125.79688.73437.0625.14063.10937.21875.28125.21875.17187 0 .48437-.10937.48437-.42187 0-.39063-.54687-.82813-1.46875-.82813-1.54687 0-2.0625 1.09375-2.0625 2.21875m0 0"/><path id="k" d="M.26563 0h2.0625v-.25c-.59375-.03125-.625-.0625-.625-.48437v-1.98438c0-.21875 0-.32812.0625-.45312.15624-.34375.53125-.60938 1-.60938.71875 0 .8125.51563.8125 1.04688v2c0 .42187-.01563.45312-.64063.48437V0H5v-.25c-.59375-.03125-.625-.0625-.625-.48437v-1.98438c0-.21875.01563-.32812.0625-.45312.125-.34375.48438-.60938.96875-.60938.53125 0 .84375.29688.84375 1.04688v2c0 .42187-.01562.45312-.64062.48437V0H7.6875v-.25c-.60937-.03125-.64062-.0625-.64062-.48437v-2.15625C7.04688-3.75 6.59375-4.25 5.78125-4.25c-.6875 0-1.1875.46875-1.48437.65625C4.09375-4 3.76563-4.25 3.17188-4.25c-.64063 0-1.17188.4375-1.46875.65625L1.625-4.25l-1.3125.21875v.20313l.3125.04687c.21875.03125.28125.07813.28125.375v2.67188C.90625-.3125.875-.28125.26563-.25Zm0 0"/></defs><path fill="none" stroke="#000" stroke-miterlimit="10" stroke-width=".39567" d="M85.1992 46.8789 58.39843 35.14453l-29.2578 1.42969 7.3164 12.67187Zm0 0"/><path fill="none" stroke="#000" stroke-miterlimit="10" stroke-width=".39567" d="M85.1992 46.8789 18.16407 17.5625l18.29296 31.6836"/><use xlink:href="#a" x="89.74024" y="59.78332"/><use xlink:href="#b" x="23.46625" y="62.15042"/><use xlink:href="#c" x="4.38841" y="12.83837"/><use xlink:href="#d" x="14.59258" y="40.75314"/><use xlink:href="#e" x="62.94051" y="30.60258"/><use xlink:href="#f" x="19.04878" y="89.93114"/><use xlink:href="#g" x="25.35901" y="89.93114"/><use xlink:href="#h" x="33.36157" y="89.93114"/><use xlink:href="#i" x="41.2021" y="89.93114"/><use xlink:href="#j" x="47.67328" y="89.93114"/><use xlink:href="#k" x="51.8681" y="89.93114"/><use xlink:href="#f" x="19.04878" y="105.36251"/><use xlink:href="#l" x="25.35901" y="105.36251"/><use xlink:href="#h" x="34.19873" y="105.36251"/><use xlink:href="#m" x="42.03927" y="105.36251"/><use xlink:href="#j" x="48.50971" y="105.36251"/><use xlink:href="#k" x="52.70453" y="105.36251"/><use xlink:href="#f" x="19.04878" y="120.79387"/><use xlink:href="#n" x="25.35901" y="120.79387"/><use xlink:href="#h" x="33.18154" y="120.79387"/><use xlink:href="#o" x="41.02207" y="120.79387"/><use xlink:href="#j" x="47.49257" y="120.79387"/><use xlink:href="#k" x="51.68739" y="120.79387"/></svg>