<svg xmlns="http://www.w3.org/2000/svg" xmlns:xlink="http://www.w3.org/1999/xlink" width="77.678pt" height="153.43pt" viewBox="0 0 77.678 153.43"><defs><path id="a" d="M.125 0h3.51563l.07812-.34375-.90625-.0625C2.59375-.42187 2.5-.53125 2.5-.70312c0-.07813.01563-.15626.04688-.26563l.65625-2.98437h1.625c.875 0 1.04687.15625 1.04687.67187 0 .10938 0 .21875-.01562.35938h.35937l.57813-2.54688H6.4375c-.3125.85938-.45312 1.04688-1.53125 1.04688H3.3125l.71875-3.17188c.07813-.3125.14063-.375.35938-.375H5.875c1.1875 0 1.42188.3125 1.42188.95313 0 .3125-.04688.64062-.04688.64062h.375l.45313-2H1.92188l-.07813.34375.71875.0625c.20313.01563.29688.125.29688.3125 0 .0625-.01563.15625-.03125.25L1.375-.96875c-.09375.35938-.20312.53125-.5.5625l-.6875.0625Zm0 0"/><path id="b" d="M0 0h3.71875c2.42188 0 3.82813-.875 4.70313-2.1875.6875-1.04687.8125-2.0625.8125-2.78125 0-.98437-.35938-1.96875-1.04688-2.54687-.71875-.59375-1.79687-.85938-3.14062-.85938h-3.25l-.07813.34375.71875.04688c.20313.01562.28125.125.28125.3125 0 .07812-.01562.1875-.03125.29687L1.23438-1c-.09376.39063-.1875.54688-.48438.57813l-.6875.07812Zm2.39063-.89062c0-.04688 0-.10938.01562-.15626l1.45313-6.46874c.10937-.40625.28125-.45313 1.32812-.45313 2.53125.04688 2.73438 1.75 2.73438 2.71875 0 1.04688-.23438 2.03125-.78125 2.9375C6.4375-1.1875 5.40625-.42187 3.40625-.42187c-.59375 0-1.01562-.07813-1.01562-.46875m0 0"/><path id="c" d="M.125 0h6.3125l.625-2.125h-.35937c-.625 1.5-1.15625 1.70313-2.65625 1.70313-1.4375 0-1.5-.1875-1.5-.5 0-.14063.03125-.3125.07812-.5625l.625-2.65625h1.57813c.90625 0 1.07812.1875 1.07812.71875 0 .09375 0 .20312-.01562.32812H6.25L6.8125-5.625h-.375c-.29687.84375-.4375 1.03125-1.5 1.03125H3.34375l.6875-3.01562c.0625-.29688.14063-.35938.34375-.35938h1.46875c1.1875 0 1.42188.3125 1.42188.96875 0 .29688-.03125.625-.03125.625h.35937l.45313-2h-6.125l-.09376.34375.73438.04688c.20313.01562.29688.10937.29688.29687 0 .07813-.01563.17188-.03125.28125L1.375-1c-.09375.40625-.20312.54688-.5.57813l-.6875.07812Zm0 0"/><path id="d" d="M.51563-3.45312c0 1.20312.40625 2.20312 1.03125 2.75C2.25-.09376 3.25.1875 4.375.1875c.89063 0 1.85938-.21875 2.5625-.46875l.57813-2.45312c.10937-.40625.17187-.57813.375-.60938l.53125-.04687L8.5-3.73437H5.29688l-.0625.34375.90625.07812c.15625.01563.23437.09375.23437.28125 0 .07813 0 .17188-.03125.29688l-.4375 1.82812c-.09375.35938-.25.65625-1.51562.65625-1.46875 0-2.53125-.96875-2.53125-3.10937 0-1.9375.9375-4.78125 3.84375-4.78125 1.57812 0 1.84375.92187 1.92187 2.0625h.35938l.45312-1.89063c-.73437-.39062-1.70312-.60937-2.73437-.60937-1.84375 0-3.1875.67187-4.04688 1.76562C.85938-5.79687.51563-4.53125.51563-3.45312m0 0"/><path id="e" d="M0 0h3.3125l.07813-.34375-.71875-.0625c-.20313 0-.29688-.10937-.29688-.29687 0-.09376.01563-.1875.03125-.29688l.70313-3.14062h4.04687L6.4375-1c-.09375.40625-.21875.54688-.51562.57813l-.65625.07812L5.1875 0H8.5l.07813-.34375-.70313-.0625c-.21875 0-.3125-.10937-.3125-.3125q0-.11718.04688-.28125L9.0625-7.375c.10938-.39062.1875-.57812.5-.60937l.67188-.04688.07812-.34375H7l-.09375.34375.71875.04688c.21875.01562.29688.14062.29688.34375 0 .07812 0 .17187-.03125.26562l-.625 2.78125H3.21875L3.85938-7.375c.09375-.39062.20312-.57812.51562-.60937l.67188-.04688L5.125-8.375H1.79688l-.07813.34375.71875.04688c.20313.01562.29688.14062.29688.34375 0 .07812-.01563.17187-.04688.26562L1.23438-1c-.09376.40625-.20313.54688-.5.57813L.0625-.34375Zm0 0"/><path id="f" d="M.10938 0h4.48437l.45313-1.5625h-.26563C4.32813-.51562 3.90625-.32812 2.9375-.32812c-.92187 0-1.03125-.0625-1.03125-.32813 0-.07812.01563-.1875.04688-.34375l.45312-1.89062H3.4375c.59375 0 .70313.14062.70313.53125v.20312h.26562l.40625-1.8125h-.28125c-.23437.59375-.32812.73438-1.01562.73438H2.46875l.46875-2.0625c.0625-.21875.10938-.25.29688-.25h.90625c.8125 0 .98437.23437 1 .67187 0 .09375 0 .375-.01563.45313h.28125l.3125-1.45313H1.375l-.07812.26563.5.03125C1.9375-5.5625 2-5.5 2-5.35937c0 .04687-.01562.125-.03125.21875l-1 4.40625c-.0625.28124-.14062.40625-.35937.42187l-.45313.04688Zm0 0"/><path id="g" d="M.45313-2.42187C.45313-.23437 2.0625.125 3.14063.125 3.76563.125 4.46875-.01562 5-.23437l.39063-1.65625c.07812-.29688.10937-.42188.26562-.4375l.375-.03125.0625-.26563H3.75l-.0625.26563.625.04687c.10938.01563.17188.0625.17188.20313 0 .04687-.01563.125-.04688.21875L4.14063-.65625c-.0625.28125-.17188.45313-.96875.45313-1 0-1.65625-.65625-1.65625-2.07813 0-1.39062.65625-3.40625 2.57812-3.40625 1.0625 0 1.29688.65625 1.35938 1.48438h.26562l.29688-1.375C5.5-5.875 4.79688-6 4.125-6 1.1875-6 .45313-3.71875.45313-2.42187m0 0"/><path id="h" d="M.71875-1.17187h4.67188v-.5625H.71875Zm0-1.875h4.67188V-3.625H.71875Zm0 0"/><path id="i" d="M.34375-2.82812c0 1.65625.5 2.92187 1.95313 2.92187C3.73438.09375 4.25-1.17187 4.25-2.82812c0-1.67188-.51562-2.9375-1.95312-2.9375C.84375-5.76562.34375-4.5.34375-2.82812m.96875 0c0-1.29688.20313-2.625.98438-2.625s.96875 1.32812.96875 2.625c0 1.28125-.1875 2.60937-.96875 2.60937S1.3125-1.54687 1.3125-2.82812m0 0"/><path id="j" d="m.4375 1.0625.1875.17188c.42188-.40625 1.09375-1 1.09375-1.67188 0-.45312-.23437-.79687-.60937-.79687-.3125 0-.46875.23437-.46875.45312 0 .3125.26562.46875.26562.82813 0 .35937-.20312.71875-.46875 1.01562m0 0"/><path id="k" d="M.35938-2.65625c0 1.8125.64062 2.75 1.98437 2.75 1.32813 0 1.98438-.79687 1.98438-1.92187 0-1.15625-.71875-1.78125-1.625-1.78125-.64063 0-1.125.42187-1.375.73437.01562-1.57812.42187-2.57812 1.20312-2.57812.375 0 .64063.32812.78125.84375.03125.10937.10938.1875.25.1875.20313 0 .5-.14063.5-.40625 0-.35938-.4375-.9375-1.48437-.9375-1.375 0-2.21875 1.03125-2.21875 3.10937M1.32813-2c0-.51562.35937-1.10937 1.03125-1.10937.51562 0 1 .46875 1 1.42187 0 .875-.29688 1.46875-.98438 1.46875-.70312 0-1.04687-.79687-1.04687-1.78125m0 0"/><path id="n" d="M.10938 0h2.54687l.04688-.26562-.59375-.04688c-.15625 0-.23438-.07812-.23438-.21875 0-.04687.01563-.09375.04688-.17187l.4375-2.0625h1.09375c.59375 0 .71875.14062.71875.53125 0 .04687 0 .14062-.01563.21875h.28125l.40625-1.82813H4.5625c-.23437.59375-.32812.73438-1.03125.73438H2.45313l.48437-2.1875c.0625-.21875.10938-.25.28125-.25h.9375c.8125 0 .96875.23437.98438.67187 0 .1875 0 .34375-.01563.4375h.28125l.3125-1.4375H1.375l-.0625.26563.48438.04687C1.9375-5.54687 2-5.48437 2-5.34375c0 .04688-.01562.10938-.03125.1875l-1 4.4375C.90625-.4375.82813-.32812.60938-.3125l-.45313.04688Zm0 0"/><path id="o" d="M.92188 0h2.84375v-.26562l-.67188-.0625c-.1875-.01563-.28125-.07813-.28125-.39063v-5L2.75-5.76562l-1.8125.29687v.23438l.71875.09375c.17188.03125.21875.09375.21875.35937v4.0625c0 .3125-.07812.375-.28125.39063l-.67187.0625Zm0 0"/><path id="p" d="M.04688 0h2.40625l.0625-.26562-.5-.03125C1.875-.3125 1.8125-.375 1.8125-.51562c0-.0625.01563-.14063.03125-.21876l.48438-2.15625H5L4.51563-.73437c-.07813.28126-.14063.40626-.35938.42188l-.45312.04688L3.65625 0h2.39063l.0625-.26562-.46875-.03125C5.48438-.3125 5.42188-.375 5.42188-.53125c0-.04687.01562-.125.03125-.20312l1-4.39063c.07812-.29687.125-.42187.35937-.45312l.45313-.03125.04687-.26563H4.90625l-.0625.26563.5.03125c.14063.01562.20313.09375.20313.23437 0 .04688-.01563.125-.03125.21875l-.42188 1.89063h-2.6875L2.82813-5.125c.07812-.29687.15625-.42187.375-.45312l.45312-.03125.0625-.26563H1.3125l-.07812.26563.48437.03125c.15625.01562.21875.09375.21875.23437 0 .04688-.01562.125-.03125.21875l-1 4.39063C.82813-.45313.76563-.32812.54688-.3125l-.45313.04688Zm0 0"/><path id="q" d="M.3125-3.84375c0 1.15625.71875 1.78125 1.625 1.78125.64063 0 1.10938-.42187 1.375-.73437C3.29688-1.21875 2.875-.21875 2.10938-.21875c-.39063 0-.64063-.32812-.78125-.84375-.03126-.10937-.125-.1875-.26563-.1875-.20312 0-.5.14063-.5.40625 0 .35938.45313.9375 1.5.9375 1.40625 0 2.21875-1.0625 2.21875-3.10937 0-1.8125-.64062-2.75-2-2.75-1.3125 0-1.96875.79687-1.96875 1.92187m.95313-.14062c0-.875.3125-1.46875 1-1.46875.70312 0 1.04687.79687 1.04687 1.78125 0 .51562-.375 1.10937-1.03125 1.10937-.53125 0-1.01562-.46875-1.01562-1.42187m0 0"/><path id="r" d="M.04688 0h2.625C4.40625 0 5.375-.60937 5.98438-1.53125c.46875-.73437.5625-1.46875.5625-1.9375 0-.73437-.26563-1.40625-.75-1.8125-.5-.40625-1.25-.59375-2.20313-.59375H1.29688l-.0625.26563.48437.03125c.15625.01562.21875.09375.21875.21875q0 .09375-.04687.23437L.90625-.73437c-.0625.28124-.14062.40625-.35937.42187l-.45313.04688Zm1.78125-.64062c0-.03126 0-.07813.01562-.125l1.01563-4.46875c.0625-.29688.1875-.3125.875-.3125 1.625.01562 1.78125 1.125 1.78125 1.82812 0 .57813-.15625 1.42188-.5625 2.09375C4.5-.85937 3.79688-.32812 2.51563-.32812c-.40625 0-.6875-.04688-.6875-.3125m0 0"/><path id="s" d="M.35938-.90625c0 .35938.54687 1 1.75 1 1.45312 0 2.0625-.85937 2.0625-1.92187 0-1.07813-.65625-1.79688-1.78125-1.79688-.5 0-1 .21875-1.28125.45313l.17187-1.48438c.03125-.23437.07813-.28125.25-.28125H3.6875l.23438-.65625-.04688-.07812H.9375l-.07812.07812L.6875-2.76562l.25.14062c.32813-.40625.67188-.59375 1.125-.59375.54688 0 1.10938.40625 1.10938 1.5 0 .85938-.32813 1.5-1.01563 1.5-.54687 0-.82812-.39062-1.01562-.9375C1.07813-1.29687 1-1.39062.84375-1.39062c-.1875 0-.48437.1875-.48437.48437m0 0"/><path id="l" d="M.42188-2.04687c0 1.42187.6875 2.14062 1.96875 2.14062.59375 0 1.39062-.29687 1.625-1.21875l-.25-.10937c-.26563.59375-.59375.89062-1.21875.89062-1.01563 0-1.25-1.0625-1.25-1.84375 0-1.26562.5-1.78125 1.09375-1.78125.375 0 .625.28125.79687.75.0625.125.10938.21875.26563.21875.17187 0 .5-.10937.5-.4375 0-.39062-.5625-.82812-1.48438-.82812-1.53125 0-2.04687 1.09375-2.04687 2.21875m0 0"/><path id="m" d="M.26563 0h2.07812v-.25c-.60937-.03125-.64062-.0625-.64062-.48437v-2c0-.20313 0-.32813.0625-.4375.17187-.34375.53125-.625 1-.625.73437 0 .82812.53125.82812 1.04687v2.01563c0 .42187-.03125.45312-.64062.48437V0h2.0625v-.25c-.59375-.03125-.625-.0625-.625-.48437v-2c0-.20313 0-.3125.0625-.45313.125-.34375.48437-.60937.96875-.60937.53125 0 .85937.29687.85937 1.04687v2.01563c0 .42187-.03125.45312-.64062.48437V0h2.07812v-.25c-.60937-.03125-.64062-.0625-.64062-.48437v-2.17188c0-.85937-.46875-1.35937-1.26563-1.35937-.70312 0-1.20312.46875-1.5.65625-.20312-.40625-.53125-.65625-1.125-.65625-.65625 0-1.1875.4375-1.48437.65625L1.625-4.26562l-1.3125.21875v.20312l.3125.04688c.21875.04687.28125.07812.28125.39062v2.67188c0 .42187-.01562.45312-.64062.48437Zm0 0"/></defs><path fill="none" stroke="#000" stroke-miterlimit="10" stroke-width=".39685" d="M21.76172 53.60937h36.69923L16.98828 17.27734Zm0 0"/><use xlink:href="#a" x="8.31752" y="66.55113"/><use xlink:href="#b" x="63.02375" y="66.55113"/><use xlink:href="#c" x="12.55296" y="12.7153"/><path fill="none" stroke="#000" stroke-miterlimit="10" stroke-width=".39685" d="M19.85156 39.07422H41.875"/><use xlink:href="#d" x="5.99614" y="43.27064"/><use xlink:href="#e" x="46.43651" y="43.26466"/><use xlink:href="#f" x="4.29918" y="100.87037"/><use xlink:href="#g" x="10.57404" y="100.87037"/><use xlink:href="#h" x="18.97965" y="100.87037"/><use xlink:href="#i" x="26.84354" y="100.87037"/><use xlink:href="#j" x="31.42103" y="100.87037"/><use xlink:href="#k" x="34.73452" y="100.87037"/><use xlink:href="#l" x="41.22601" y="100.87037"/><use xlink:href="#m" x="45.43332" y="100.87037"/><use xlink:href="#f" x="4.29918" y="116.34771"/><use xlink:href="#n" x="10.57404" y="116.34771"/><use xlink:href="#h" x="18.6185" y="116.34771"/><use xlink:href="#o" x="26.4824" y="116.34771"/><use xlink:href="#l" x="32.97272" y="116.34771"/><use xlink:href="#m" x="37.18003" y="116.34771"/><use xlink:href="#f" x="4.29918" y="131.82505"/><use xlink:href="#p" x="10.57404" y="131.82505"/><use xlink:href="#h" x="20.19851" y="131.82505"/><use xlink:href="#i" x="28.0624" y="131.82505"/><use xlink:href="#j" x="32.63989" y="131.82505"/><use xlink:href="#q" x="35.95338" y="131.82505"/><use xlink:href="#l" x="42.44425" y="131.82505"/><use xlink:href="#m" x="46.65157" y="131.82505"/><use xlink:href="#f" x="4.29918" y="147.30239"/><use xlink:href="#r" x="10.57404" y="147.30239"/><use xlink:href="#h" x="19.4401" y="147.30239"/><use xlink:href="#o" x="27.304" y="147.30239"/><use xlink:href="#j" x="31.88149" y="147.30239"/><use xlink:href="#s" x="35.19497" y="147.30239"/><use xlink:href="#l" x="41.6856" y="147.30239"/><use xlink:href="#m" x="45.89292" y="147.30239"/></svg>