<svg xmlns="http://www.w3.org/2000/svg" xmlns:xlink="http://www.w3.org/1999/xlink" width="148.741pt" height="89.675pt" viewBox="0 0 148.741 89.675"><defs><path id="a" d="M0 0h2.85938l.07812-.34375-.48437-.04687c-.35938-.01563-.5625-.10938-.5625-.375 0-.64063.125-1 .26562-1.64063l1.10938-4.95312h.03125L4.75-.14062h.32813L9.8125-7.35937h.01563L8.34375-1c-.09375.40625-.21875.54688-.51562.57813l-.65625.07812L7.09375 0h3.3125l.0625-.34375L9.75-.42187c-.21875-.01563-.29687-.125-.29687-.3125 0-.07813 0-.17188.03125-.26563l1.45312-6.375c.10938-.42187.20313-.59375.51563-.60937l.67187-.0625.07813-.34375h-2.375C9.1875-7.28125 8.46875-6.1875 7.73438-5.07812L5.59375-1.79687h-.04687l-.6875-3.35938C4.625-6.26562 4.375-7.3125 4.17188-8.39062H1.8125l-.0625.34375.70313.07812c.20312 0 .3125.10938.3125.3125q0 .1172-.04688.28125L1.57813-2.40625c-.14063.64063-.28126 1.10938-.42188 1.5C1-.51562.78125-.42187.4375-.39062l-.375.04687Zm0 0"/><path id="b" d="M0 0h2.85938l.07812-.34375-.48437-.04687c-.35938-.01563-.5625-.09375-.5625-.35938 0-.64062.125-1.01562.26562-1.65625L3.29688-7.375h.03125C4.46875-4.92187 5.59375-2.46875 6.70313 0h.78125l1.35937-5.96875c.14063-.65625.28125-1.10937.42188-1.51562C9.40625-7.875 9.625-7.96875 9.98438-8l.375-.04687.0625-.34375H7.5625L7.5-8.04687l.46875.0625c.375.03125.57813.15625.57813.42187 0 .4375-.125.9375-.28125 1.59375l-.98438 4.375h-.04687C6.1875-3.85937 5.15625-6.125 4.125-8.39062H1.8125l-.0625.34375.70313.07812c.20312 0 .3125.10938.3125.3125q0 .1172-.04688.28125L1.57813-2.40625c-.14063.64063-.28126 1.10938-.42188 1.5C1-.51562.79688-.42187.4375-.39062l-.375.04687Zm0 0"/><path id="c" d="M.39063-3.28125c0 2 1.14062 3.46875 3.5625 3.46875 2.14062 0 3.1875-1.10937 3.85937-2.29687.65625-1.1875.76563-2.4375.76563-2.90625 0-2.5-1.5-3.5625-3.5-3.5625-1.9375 0-3.14063 1.0625-3.85938 2.23437C.5625-5.23437.39063-4.07812.39063-3.28125m1.28125.5c0-1.03125.1875-2.15625.73437-3.34375.5625-1.14062 1.42188-2.03125 2.71875-2.03125 1.32813 0 2.1875.78125 2.1875 2.5 0 .70313-.07812 1.6875-.57812 2.98438S5.40625-.25 3.82813-.25c-1.3125 0-2.15625-.84375-2.15625-2.53125m0 0"/><path id="d" d="M-.23437 0H2.5l.07813-.34375-.67188-.0625C1.75-.42187 1.6875-.5 1.6875-.625c0-.0625.03125-.15625.0625-.23437.40625-.78125.79688-1.5625 1.25-2.375h2.71875l.29688 2.5s-.0625.29687-.32813.32812l-.64062.0625L4.98438 0h2.98437l.07813-.34375-.46875-.04687c-.375-.03125-.42188-.20313-.5-.70313L6.1875-8.39062h-.85937L3.29688-4.8125c-.625 1.07813-1.625 2.89063-2.07813 3.60938C.82813-.5625.625-.4375.25-.40625l-.40625.0625Zm3.46875-3.70312 1.98437-3.5625.4375 3.5625Zm0 0"/><path id="e" d="M0 0h3.67188c2.9375 0 3.53125-1.51562 3.53125-2.51562 0-1.28125-.9375-1.82813-1.82813-2v-.03125C7-4.73437 7.67188-5.65625 7.67188-6.5625c0-.98437-.57813-1.82812-2.8125-1.82812h-3.0625l-.07813.34375.71875.07812c.20313 0 .29688.09375.29688.29688 0 .0625-.03125.17187-.04688.29687L1.25-1c-.09375.39063-.20312.53125-.5.57813l-.6875.07812Zm2.42188-.92187q0-.14063.04687-.28126l.6875-3.10937h.48438c1.20312 0 2.25.34375 2.25 1.73438 0 1.07812-.65625 2.15625-2.28125 2.15625-.95313 0-1.1875-.20313-1.1875-.5M3.25-4.73437l.64063-2.8125c.07812-.35938.15625-.42188.96875-.42188 1.01562 0 1.57812.51563 1.57812 1.35938 0 1.26562-1.0625 1.875-2.39062 1.875Zm0 0"/></defs><path fill="none" stroke="#000" stroke-miterlimit="10" stroke-width=".39706" d="M126.47656 80.85547 89.75781 17.2578l-71.22657 41.125Zm0 0"/><use xlink:href="#a" x="131.03414" y="85.04976"/><use xlink:href="#b" x="94.31023" y="12.68901"/><use xlink:href="#c" x="4.44094" y="62.5802"/><path fill="none" stroke="#000" stroke-miterlimit="10" stroke-width=".39706" d="m45.5 64-9.1797-15.90235"/><use xlink:href="#d" x="41.0662" y="76.94314"/><use xlink:href="#e" x="32.06482" y="43.53123"/><path fill="none" stroke="#000" stroke-miterlimit="10" stroke-width=".39706" d="m18.5078 58.3789 26.97657 5.6172M18.5078 58.3789l17.79688-10.28906"/></svg>