<svg xmlns="http://www.w3.org/2000/svg" xmlns:xlink="http://www.w3.org/1999/xlink" width="488.89pt" height="237.18pt" viewBox="0 0 488.89 237.18"><defs><path id="a" d="M.39063-.48437c0 .35937.28125.625.76562.625.82813 0 1.29688-.82813 1.79688-1.64063l.5-.79687h.01562l.21875.95312C3.92188-.375 4.14063.14063 4.76563.14063c.89062 0 1.35937-.92188 1.71875-1.65625l-.3125-.15626c-.29688.53126-.64063 1.1875-.96875 1.1875-.23438 0-.32813-.28125-.59375-1.35937L4.21875-3.4375c.4375-.76562 1.0625-1.73437 1.40625-1.73437.35938 0 .375.1875.73438.1875.28125 0 .51562-.25.51562-.57813 0-.375-.28125-.53125-.60937-.53125-.65625 0-1.1875.57813-1.625 1.26563L4.10938-4h-.01563l-.5-2.04687-.0625-.04688-2 .60938.03125.29687.95313-.0625c.1875 0 .28125.09375.40625.60938l.42187 1.75L3-2.3125c-.51562.89063-.95312 1.53125-1.25 1.53125-.35937 0-.45312-.29687-.82812-.29687-.3125 0-.53125.29687-.53125.59375m0 0"/><path id="b" d="M1.03125-3.07812h2.98438v2.98437h.70312v-2.98437h2.98438v-.70313H4.71875v-2.98437h-.70312v2.98437H1.03125Zm0 0"/><path id="c" d="M.32813-.10937.45313 0h5.01562l.42188-1.59375-.34375-.07812c-.25.67187-.5.75-.98438.75H1.45313c.20312-.625.92187-1.48438 2.04687-2.3125C4.65625-4.07812 5.5625-4.625 5.5625-5.96875c0-1.70312-1.125-2.28125-2.40625-2.28125C1.5-8.25.64063-7.23437.64063-6.60937c0 .42187.46875.60937.67187.60937.21875 0 .29688-.125.35938-.34375.1875-.8125.67187-1.48437 1.40625-1.48437.9375 0 1.20312.78125 1.20312 1.67187 0 1.29688-.65625 2.04688-1.71875 2.96875-1.48437 1.29688-2 2.125-2.23437 3.07813m0 0"/><path id="f" d="m.23438-2.42187.09375.25h3.3125v1.25c0 .40625-.125.46875-.42188.5l-.78125.07812V0h3.20313v-.34375l-.54688-.0625c-.28125-.04687-.35937-.10937-.35937-.51562v-1.25h1.23437v-.5625H4.73438v-5.375h-.89063c-1.14062 1.6875-2.5 3.78125-3.60937 5.6875m.875-.3125c.71875-1.3125 1.59375-2.71875 2.53125-4.20313v4.20313Zm0 0"/><clipPath id="d"><path d="M483 217h4.99219v4H483Zm0 0"/></clipPath><clipPath id="e"><path d="M477 211h10.99219v16H477Zm0 0"/></clipPath><clipPath id="g"><path d="M335 0h152.99219v214H335Zm0 0"/></clipPath></defs><path fill="none" stroke="#007f7f" stroke-miterlimit="10" stroke-width=".39713" d="M36.0664 188.83984V51.07807"/><path fill="#007f7f" stroke="#007f7f" stroke-miterlimit="10" stroke-width=".39713" d="M36.0664 192.66406c.125-.46875.83985-2.53515 1.6211-3.82422h-3.24219c.77735 1.28907 1.4961 3.35547 1.6211 3.82422Zm0-145.41406c-.125.47265-.84374 2.53516-1.62109 3.82812h3.24219c-.78125-1.29296-1.4961-3.35547-1.6211-3.82812Zm0 0"/><use xlink:href="#a" x="5.08952" y="124.01126" fill="#007f7f"/><use xlink:href="#b" x="14.55021" y="124.01126" fill="#007f7f"/><use xlink:href="#c" x="25.06926" y="124.01126" fill="#007f7f"/><path fill="none" stroke="red" stroke-miterlimit="10" stroke-width=".39713" d="M186.66411 193.40624v-7.34765h7.34376m0-132.23443h-7.34376v-7.34375M54.42969 46.4804v7.34376h-7.34766m0 132.23443h7.34766v7.34765m64.8594 2.97656.4961-5.95703m1.49218 5.95703.4961-5.95703m75.18362-69.22658-5.95704-.4961m5.95704-1.48828-5.95704-.5m-69.22658-75.18362-.4961 5.95703m-1.49219-5.95703-.4961 5.95703m-75.18361 69.22659 5.95703.4961m-5.95703 1.49219 5.95703.49609"/><path fill="none" stroke="#000" stroke-miterlimit="10" stroke-width=".39713" d="M47.08203 193.40624h146.92584V46.48041H47.08203Zm0 0"/><path fill="none" stroke="#007f7f" stroke-miterlimit="10" stroke-width=".39713" d="M345.44152 219.11329h137.76177"/><path fill="#007f7f" stroke="#007f7f" stroke-miterlimit="10" stroke-width=".39713" d="M341.61719 219.11328c.46875.125 2.53515.83985 3.82422 1.61719v-3.23828c-1.28907.77734-3.35547 1.49218-3.82422 1.6211Zm0 0"/><g clip-path="url(#d)"><path fill="#007f7f" d="M487.02734 219.11328c-.46875-.1289-2.53125-.84375-3.82421-1.6211v3.23829c1.29296-.77734 3.35546-1.49219 3.82421-1.61719m0 0"/></g><g clip-path="url(#e)"><path fill="none" stroke="#007f7f" stroke-miterlimit="10" stroke-width=".39713" d="M487.02734 219.11328c-.46874-.1289-2.53125-.84375-3.82422-1.6211v3.23829c1.29297-.77734 3.35548-1.49219 3.82422-1.61719Zm0 0"/></g><g fill="#007f7f"><use xlink:href="#c" x="407.40659" y="231.91919"/><use xlink:href="#a" x="413.83419" y="231.91919"/></g><path fill="none" stroke="#007f7f" stroke-miterlimit="10" stroke-width=".39713" d="M331.37901 203.78906 401.7853 4.5429"/><path fill="#007f7f" stroke="#007f7f" stroke-miterlimit="10" stroke-width=".39711" d="M330.10547 207.39453c.27344-.39843 1.63672-2.10937 2.80078-3.0664l-3.05469-1.07813c.30469 1.47656.28907 3.66016.25391 4.14453ZM403.0586.9375c-.27735.39844-1.63673 2.10937-2.80079 3.0664l3.0547 1.07813c-.3047-1.47656-.29298-3.66016-.25392-4.14453Zm0 0"/><use xlink:href="#a" x="335.60085" y="108.1491" fill="#007f7f"/><use xlink:href="#b" x="345.06154" y="108.1491" fill="#007f7f"/><use xlink:href="#f" x="355.58059" y="108.1491" fill="#007f7f"/><path fill="none" stroke="red" stroke-miterlimit="10" stroke-width=".39713" d="m453.93765 103.41402-5.78125 1.51563m-73.28128-1.9961 5.45313 2.45313"/><g clip-path="url(#g)"><path fill="none" stroke="#000" stroke-miterlimit="10" stroke-width=".39713" d="M340.87511 208.09375h146.92584L414.33608.19523Zm0 0"/></g></svg>