<svg id="Capa_1" enable-background="new 0 0 512 512" height="512" viewBox="0 0 512 512" width="512" xmlns="http://www.w3.org/2000/svg"><g><path d="m328.599 442.599-25.198 16.802h-94.802l-25.198-16.802 60-90h25.198z" fill="#f1cb86"/><path d="m328.599 442.599-25.198 16.802h-47.401v-106.802h12.599z" fill="#ecbe6b"/><path d="m406 46c-57.9 0-105 47.1-105 105s47.1 105 105 105 106-47.1 106-105-48.1-105-106-105z" fill="#e28086"/><path d="m512 151c0 57.9-48.1 105-106 105v-210c57.9 0 106 47.1 106 105z" fill="#dd636e"/><path d="m106 46c-57.9 0-106 47.1-106 105s48.1 105 106 105 105-47.1 105-105-47.1-105-105-105z" fill="#8993da"/><path d="m211 151c0 57.9-47.1 105-105 105v-210c57.9 0 105 47.1 105 105z" fill="#707dd3"/><path d="m151 136v30h-30v30h-30v-30h-30v-30h30v-30h30v30z" fill="#f0f7ff"/><path d="m361 136h90v30h-90z" fill="#f0f7ff"/><path d="m421 301v75h-330v-75h30v45h270v-45z" fill="#f4d8a5"/><path d="m121 436h270v30h-270z" fill="#f4d8a5"/><path d="m151 136v30h-30v30h-15v-90h15v30z" fill="#dfe7f4"/><path d="m406 136h45v30h-45z" fill="#dfe7f4"/><path d="m256 436h135v30h-135z" fill="#f1cb86"/><path d="m421 301v75h-165v-30h135v-45z" fill="#f1cb86"/><path d="m211 316h-211v-60h30v30h151v-30h30z" fill="#f4d8a5"/><path d="m512 316h-211v-60h30v30h151v-30h30z" fill="#f1cb86"/></g></svg>
