<svg xmlns="http://www.w3.org/2000/svg" xmlns:xlink="http://www.w3.org/1999/xlink" width="702.371" height="62.698" viewBox="0 0 702.371 62.698"><defs><path id="b" d="M1.78125-5.3125h11.54688v-1.21875H1.78125Zm0 0"/><path id="c" d="M.84375-2.14062C.84375-1.1875 2.32813.25 5.04688.25 8.5.25 10.0625-1.85937 10.0625-4.5c0-2.95312-1.82812-4.45312-4.32812-4.45312-1.15625 0-2.4375.51562-3.09375 1.125l.45312-3.96875c.07813-.54688.20313-.60938.60938-.60938h5.21875l.51562-1.42187-.10937-.1875h-7l-.20313.20312-.42187 7 .5.28125c.875-1.01562 1.71875-1.5 2.85937-1.5 1.34375 0 2.8125.98438 2.8125 3.75C7.875-2.125 7-.48437 5.17188-.48437c-1.46875 0-2.20313-1.0625-2.625-2.26563-.10938-.3125-.3125-.5-.60938-.5-.42187 0-1.09375.42188-1.09375 1.10938m0 0"/><path id="d" d="m.40625-4.1875.17188.4375h5.71875v2.14063c0 .71875-.23438.82812-.73438.875l-1.34375.125V0H9.75v-.60937l-.9375-.10938c-.48437-.0625-.625-.17187-.625-.89062V-3.75h2.14063v-.98437H8.1875v-9.28125H6.65625C4.6875-11.10937 2.32813-7.46875.40625-4.1875m1.51563-.54687c1.25-2.26563 2.76562-4.70313 4.375-7.25v7.25Zm0 0"/><path id="e" d="M.5625-2.14062C.5625-1.25 2.01563.25 4.96875.25c3.04688 0 4.95313-1.54687 4.95313-4.21875 0-2.8125-2.40625-3.64062-3.5625-3.75v-.09375c1.14062-.17187 2.9375-1.01562 2.9375-3.09375C9.29688-13.23437 7.5-14.25 5.25-14.25c-2.76562 0-4.14062 1.59375-4.14062 2.48438 0 .65625.75 1.01562 1.03125 1.01562.26562 0 .42187-.15625.51562-.42187.46875-1.4375 1.25-2.34375 2.4375-2.34375 1.64063 0 2.0625 1.4375 2.0625 2.625 0 1.25-.4375 2.82812-2.21875 2.82812-1.01562 0-1.59375-.1875-1.84375-.1875-.26562 0-.375.1875-.375.57813 0 .35937.10938.57812.375.57812.25 0 .82813-.20312 1.84375-.20312 1.78125 0 2.78125 1.60937 2.78125 3.4375 0 2.5-1.21875 3.375-2.71875 3.375-1.39062 0-2.29687-1.03125-2.70312-2.21875-.125-.39063-.32813-.59375-.625-.59375-.375 0-1.10938.39062-1.10938 1.15625m0 0"/><path id="f" d="M.5625-.20312.78125 0h8.67188l.71875-2.76562-.57813-.10938c-.45312 1.14063-.875 1.29688-1.71875 1.29688H2.51563c.34375-1.09375 1.59375-2.59375 3.53125-4 2.01562-1.46875 3.5625-2.40625 3.5625-4.75 0-2.92188-1.9375-3.92188-4.14063-3.92188-2.875 0-4.35937 1.73438-4.35937 2.82813 0 .71875.8125 1.04687 1.17187 1.04687.375 0 .5-.21875.59375-.57812.34375-1.4375 1.15625-2.5625 2.45313-2.5625 1.60937 0 2.07812 1.32812 2.07812 2.875 0 2.25-1.14062 3.51562-2.96875 5.125C1.85938-3.25.95313-1.82812.5625-.20312m0 0"/><path id="g" d="M2.28125 0h6.89063v-.60937L7.40625-.76563c-.4375-.03124-.6875-.1875-.6875-1.01562v-12.35937L6.60938-14.25l-4.32813.73438v.5l1.95313.25c.35937.04687.5.20312.5.8125v10.17187c0 .82813-.20313.98438-.70313 1.01563l-1.75.15624Zm0 0"/><path id="h" d="M.875-7C.875-2.8125 2.09375.25 5.5625.25c3.45313 0 4.70313-3.0625 4.70313-7.25 0-4.20312-1.25-7.25-4.70313-7.25C2.09375-14.25.875-11.20312.875-7m2.10938 0c0-3.42187.57812-6.51562 2.57812-6.51562 1.98438 0 2.5625 3.09375 2.5625 6.51562 0 3.40625-.57812 6.51563-2.5625 6.51563-2 0-2.57812-3.10938-2.57812-6.51563m0 0"/><clipPath id="a"><path d="M1.3711 15H700v2H1.3711Zm0 0"/></clipPath></defs><g clip-path="url(#a)"><path fill="none" stroke="#000" stroke-miterlimit="10" stroke-width=".79319" d="M1.76184 16.26563h697.42944"/></g><path fill="none" stroke="#000" stroke-linecap="round" stroke-linejoin="round" stroke-miterlimit="10" stroke-width=".79319" d="M697.04688 13.16797c.46484 1.85938 1.5 2.73828 2.53906 3.09766-1.03906.35937-2.07422 1.23828-2.53906 3.09765"/><path fill="none" stroke="#000" stroke-miterlimit="10" stroke-width=".79319" d="M33.50011.39844v31.73437"/><use xlink:href="#b" x="20.40877" y="54.47162"/><use xlink:href="#c" x="35.4893" y="54.47162"/><path fill="none" stroke="#000" stroke-miterlimit="10" stroke-width=".79319" d="M96.97665.39844v31.73437"/><use xlink:href="#b" x="83.88303" y="54.47162"/><use xlink:href="#d" x="98.96356" y="54.47162"/><path fill="none" stroke="#000" stroke-miterlimit="10" stroke-width=".79319" d="M160.44929.39844v31.73437"/><use xlink:href="#b" x="147.35629" y="54.71645"/><use xlink:href="#e" x="162.43683" y="54.71645"/><path fill="none" stroke="#000" stroke-miterlimit="10" stroke-width=".79319" d="M223.92583.39844v31.73437"/><use xlink:href="#b" x="210.83055" y="54.71645"/><use xlink:href="#f" x="225.91109" y="54.71645"/><path fill="none" stroke="#000" stroke-miterlimit="10" stroke-width=".79319" d="M287.39846.39844v31.73437"/><use xlink:href="#b" x="274.30382" y="54.71645"/><use xlink:href="#g" x="289.38436" y="54.71645"/><path fill="none" stroke="#000" stroke-miterlimit="10" stroke-width=".79319" d="M350.8711.39844v31.73437"/><use xlink:href="#h" x="345.31776" y="54.71645"/><path fill="none" stroke="#000" stroke-miterlimit="10" stroke-width=".79319" d="M414.34763.39844v31.73437"/><use xlink:href="#g" x="408.79202" y="54.71645"/><path fill="none" stroke="#000" stroke-miterlimit="10" stroke-width=".79319" d="M477.82027.39844v31.73437"/><use xlink:href="#f" x="472.26529" y="54.71645"/><path fill="none" stroke="#000" stroke-miterlimit="10" stroke-width=".79319" d="M541.2968.39844v31.73437"/><use xlink:href="#e" x="535.73955" y="54.71645"/><path fill="none" stroke="#000" stroke-miterlimit="10" stroke-width=".79319" d="M604.76944.39844v31.73437"/><use xlink:href="#d" x="599.21282" y="54.47162"/><path fill="none" stroke="#000" stroke-miterlimit="10" stroke-width=".79319" d="M668.24598.39844v31.73437"/><use xlink:href="#c" x="662.68708" y="54.47162"/></svg>