<svg xmlns="http://www.w3.org/2000/svg" xmlns:xlink="http://www.w3.org/1999/xlink" width="702.371pt" height="86.947pt" viewBox="0 0 702.371 86.947"><defs><path id="b" d="M1.79688-5.32812H13.375V-6.5625H1.79688Zm0 0"/><path id="c" d="M.84375-2.15625C.84375-1.1875 2.32813.25 5.0625.25c3.46875 0 5.03125-2.10937 5.03125-4.76562 0-2.96875-1.82812-4.46875-4.34375-4.46875-1.15625 0-2.4375.51562-3.10937 1.125l.46875-3.98438c.0625-.53125.20312-.60937.60937-.60937h5.23438l.51562-1.42188-.10937-.1875H2.32813l-.20313.20313-.42187 7.03125.51562.26562c.875-1 1.71875-1.5 2.85938-1.5 1.34375 0 2.82812.98438 2.82812 3.76563C7.90625-2.125 7.03125-.5 5.1875-.5c-1.46875 0-2.20312-1.04687-2.64062-2.25-.10938-.3125-.3125-.51562-.59375-.51562-.4375 0-1.10938.42187-1.10938 1.10937m0 0"/><path id="d" d="m.40625-4.20312.17188.4375H6.3125v2.15625c0 .71875-.21875.82812-.73437.875l-1.34375.125V0h5.54687v-.60937l-.9375-.10938c-.48437-.0625-.625-.17187-.625-.89062v-2.15625h2.14063V-4.75H8.21875v-9.3125H6.67188C4.70313-11.15625 2.32813-7.5.40625-4.20312M1.92188-4.75c1.25-2.28125 2.78125-4.71875 4.39062-7.28125V-4.75Zm0 0"/><path id="e" d="M.5625-2.15625C.5625-1.25 2.01563.25 5 .25c3.03125 0 4.96875-1.54687 4.96875-4.23437 0-2.82813-2.42187-3.65625-3.59375-3.76563v-.09375c1.14063-.17187 2.96875-1.01562 2.96875-3.10937 0-2.32813-1.82812-3.35938-4.07812-3.35938-2.78125 0-4.14063 1.60938-4.14063 2.51563 0 .64062.73438 1 1.03125 1 .26563 0 .42188-.15625.51563-.42188.46875-1.4375 1.25-2.34375 2.4375-2.34375 1.65625 0 2.07812 1.45313 2.07812 2.64063 0 1.25-.45312 2.84375-2.23437 2.84375-1.01563 0-1.59375-.20313-1.84375-.20313-.26563 0-.375.20313-.375.57813 0 .35937.10937.57812.375.57812.25 0 .82812-.20312 1.84375-.20312 1.78125 0 2.79687 1.625 2.79687 3.45312C7.75-1.35937 6.51563-.5 5.01563-.5 3.625-.5 2.70313-1.51562 2.3125-2.70312c-.14062-.40625-.34375-.60938-.64062-.60938-.375 0-1.10938.40625-1.10938 1.15625m0 0"/><path id="f" d="M.5625-.20312.78125 0H9.5l.70313-2.78125-.57813-.10937C9.1875-1.75 8.75-1.59375 7.90625-1.59375h-5.375c.32813-1.09375 1.59375-2.59375 3.53125-4 2.01563-1.48437 3.59375-2.42187 3.59375-4.76562 0-2.9375-1.95312-3.95313-4.17187-3.95313-2.89063 0-4.35938 1.75-4.35938 2.84375 0 .71875.79688 1.0625 1.15625 1.0625.39063 0 .51563-.23437.60938-.59375.32812-1.42187 1.15625-2.5625 2.45312-2.5625 1.625 0 2.09375 1.34375 2.09375 2.875 0 2.26563-1.14062 3.54688-2.98437 5.15625C1.85938-3.26562.96875-1.84375.5625-.20312m0 0"/><path id="g" d="M2.28125 0h6.92188v-.60937L7.4375-.76563c-.45312-.04687-.70312-.20312-.70312-1.03124v-12.40625L6.625-14.3125l-4.34375.75v.51563L4.25-12.8125c.35938.04688.5.20313.5.8125v10.20313c0 .82812-.20312.98437-.70312 1.03125l-1.76563.15624Zm0 0"/><path id="h" d="M.875-7.03125C.875-2.82812 2.10938.25 5.57813.25s4.71875-3.07812 4.71875-7.28125-1.25-7.28125-4.71875-7.28125S.875-11.23437.875-7.03125m2.125 0c0-3.42187.57813-6.53125 2.57813-6.53125 1.98437 0 2.57812 3.10938 2.57812 6.53125S7.5625-.5 5.57813-.5C3.57813-.5 3-3.60937 3-7.03125m0 0"/><path id="i" d="m3.04688-2.28125.875.875L7.5625-5.07812l3.67188 3.67187.85937-.875L8.4375-5.9375l3.65625-3.67187-.85937-.84375L7.5625-6.8125l-3.64062-3.64062-.875.84375L6.71875-5.9375Zm0 0"/><path id="j" d="M0 0h5.75l.14063-.60937-1.25-.10938c-.35938-.01562-.54688-.17187-.54688-.51562 0-.125.04688-.3125.09375-.51563l1.14063-5.09375h1.28125c2.03125 0 2.32812.48438 2.32812 2.95313C8.9375-1.34375 8.9375 0 11.15625 0h1.625l.20313-.60937C11.51563-.8125 11-.875 11-3.57812c0-2.15625-.1875-3.07813-1.9375-3.65625 2.57813-.35938 4.32813-1.85938 4.32813-3.9375 0-1.5-.65625-3.375-4.59375-3.375H3.14063l-.15625.59375 1.25.09375c.35937.01562.51562.20312.51562.5625 0 .125-.03125.28125-.07812.48437L2.15625-1.75c-.1875.75-.35937.96875-.875 1.01563l-1.17187.125Zm5.51563-7.59375 1.21875-5.4375c.15625-.60937.23437-.8125 1.8125-.8125 1.375 0 2.64062.60938 2.64062 2.45313 0 2.5-1.625 3.79687-4.34375 3.79687Zm0 0"/><path id="k" d="M.67188-5.6875c0 3.46875 2 6 6.17187 6 3.71875 0 5.53125-1.90625 6.70313-3.98437 1.14062-2.0625 1.34375-4.20313 1.34375-5.03125 0-4.32813-2.625-6.1875-6.09375-6.1875-3.35938 0-5.4375 1.85937-6.67188 3.875C.96875-9.0625.67188-7.07812.67188-5.6875m2.21875.84375c0-1.76562.32812-3.73437 1.29687-5.76562.96875-2 2.46875-3.54688 4.70313-3.54688 2.29687 0 3.78125 1.375 3.78125 4.34375 0 1.21875-.10938 2.9375-.98438 5.17188C10.8125-2.375 9.375-.42187 6.65625-.42187c-2.29687 0-3.76562-1.48438-3.76562-4.42188m0 0"/><path id="l" d="M1.71875-3.60937c0 2.84375 2.09375 3.92187 5.125 3.92187 2.875 0 5.5-.60937 6.65625-5.5l1.79688-7.625c.17187-.71875.35937-1 .89062-1.04687l1.17188-.09375.125-.59375h-5.75l-.15625.59375 1.23437.09375c.35938.01562.53125.20312.53125.57812 0 .14063-.01562.29688-.0625.46875l-1.70312 7.34375c-.65625 2.79688-1.6875 5.04688-4.60938 5.04688-1.85937 0-3.15625-.8125-3.15625-3.14063 0-.57812.07813-1.29687.26563-2.10937L5.75-12.8125c.1875-.71875.34375-1 .875-1.04687l1.17188-.09375.125-.59375h-5.75l-.15625.59375 1.25.09375c.35937.01562.51562.20312.51562.5625 0 .125-.01562.28125-.0625.48437L1.95313-5.39062c-.15626.67187-.23438 1.25-.23438 1.78125m0 0"/><path id="m" d="M.89063-6c0 2.10938.70312 3.82813 1.79687 4.76563C3.92188-.15626 5.64063.3125 7.59375.3125c1.54688 0 3.25-.35937 4.45313-.8125l1-4.25c.1875-.71875.29687-1 .65625-1.04687l.92187-.09375L14.75-6.5H9.20313l-.10938.60938 1.5625.14062c.29688.01563.42188.15625.42188.48438 0 .14062-.01563.29687-.0625.51562L10.25-1.5625c-.15625.59375-.42187 1.14063-2.60937 1.14063-2.5625 0-4.42188-1.70313-4.42188-5.42188 0-3.35937 1.64063-8.3125 6.67188-8.3125 2.76562 0 3.23437 1.625 3.35937 3.60938h.625l.76563-3.29688c-1.26563-.6875-2.95313-1.04687-4.71875-1.04687-3.23438 0-5.5625 1.17187-7.03125 3.04687C1.5-10.07812.89063-7.85937.89063-6m0 0"/><path id="n" d="M.21875 0H11.1875l1.07813-3.6875h-.625C10.5625-1.09375 9.625-.73437 7.03125-.73437c-2.48437 0-2.625-.3125-2.625-.875 0-.23438.07813-.54688.15625-.96875L5.64063-7.1875h2.75c1.57812 0 1.85937.3125 1.85937 1.23438 0 .17187 0 .35937-.01562.57812h.625l.98437-4.39062h-.65625c-.53125 1.45312-.75 1.79687-2.60937 1.79687h-2.75l1.1875-5.23437c.10937-.51563.23437-.64063.59375-.64063h2.53125c2.0625 0 2.48437.54688 2.48437 1.6875 0 .51563-.0625 1.09375-.0625 1.09375h.625l.78125-3.48437h-10.625l-.17187.59375 1.28125.09375c.35937.01562.51562.17187.51562.51562 0 .14063-.01562.29688-.0625.48438L2.39063-1.75c-.17188.71875-.35938.96875-.875 1.01563l-1.1875.125Zm0 0"/><clipPath id="a"><path d="M683 27h18.74219v27H683Zm0 0"/></clipPath></defs><path fill="none" stroke="#000" stroke-miterlimit="10" stroke-width=".7963" d="M.39462 40.57031H695.1796"/><path d="M699.33984 40.57031c-.51171-.10547-2.7578-.71093-4.16015-1.36328v2.72656c1.40234-.65625 3.64843-1.2578 4.16015-1.36328m0 0"/><g clip-path="url(#a)"><path fill="none" stroke="#000" stroke-miterlimit="10" stroke-width=".7963" d="M699.33984 40.57031c-.51172-.10547-2.75781-.71094-4.16015-1.36328v2.72656c1.40234-.65625 3.64843-1.2578 4.16015-1.36328Zm0 0"/></g><path fill="none" stroke="#000" stroke-miterlimit="10" stroke-width=".7963" d="M32.25399 24.63672V56.5"/><use xlink:href="#b" x="19.11288" y="78.92475"/><use xlink:href="#c" x="34.2525" y="78.92475"/><path fill="none" stroke="#000" stroke-miterlimit="10" stroke-width=".7963" d="M95.98054 24.63672V56.5"/><use xlink:href="#b" x="82.83582" y="78.92475"/><use xlink:href="#d" x="97.97544" y="78.92475"/><path fill="none" stroke="#000" stroke-miterlimit="10" stroke-width=".7963" d="M159.70318 24.63672V56.5"/><use xlink:href="#b" x="146.55775" y="79.17053"/><use xlink:href="#e" x="161.69737" y="79.17053"/><path fill="none" stroke="#000" stroke-miterlimit="10" stroke-width=".7963" d="M223.42582 24.63672V56.5"/><use xlink:href="#b" x="210.28069" y="79.17053"/><use xlink:href="#f" x="225.4203" y="79.17053"/><path fill="none" stroke="#000" stroke-miterlimit="10" stroke-width=".7963" d="M287.14845 24.63672V56.5"/><use xlink:href="#b" x="274.00262" y="79.17053"/><use xlink:href="#g" x="289.14224" y="79.17053"/><path fill="none" stroke="#000" stroke-miterlimit="10" stroke-width=".7963" d="M350.8711 24.63672V56.5"/><use xlink:href="#h" x="345.29478" y="79.17053"/><path fill="none" stroke="#000" stroke-miterlimit="10" stroke-width=".7963" d="M414.59373 24.63672V56.5"/><use xlink:href="#g" x="409.01771" y="79.17053"/><path fill="none" stroke="#000" stroke-miterlimit="10" stroke-width=".7963" d="M478.31637 24.63672V56.5"/><use xlink:href="#f" x="472.73964" y="79.17053"/><path fill="none" stroke="#000" stroke-miterlimit="10" stroke-width=".7963" d="M542.04292 24.63672V56.5"/><use xlink:href="#e" x="536.46258" y="79.17053"/><path fill="none" stroke="#000" stroke-miterlimit="10" stroke-width=".7963" d="M605.76556 24.63672V56.5"/><use xlink:href="#d" x="600.18451" y="78.92475"/><path fill="none" stroke="#000" stroke-miterlimit="10" stroke-width=".7963" d="M669.4882 24.63672V56.5"/><use xlink:href="#c" x="663.90745" y="78.92475"/><use xlink:href="#i" x="88.41182" y="45.79842"/><use xlink:href="#j" x="88.72554" y="22.35941"/><use xlink:href="#i" x="343.30156" y="45.79842"/><use xlink:href="#k" x="343.08875" y="22.3704"/><use xlink:href="#i" x="375.16303" y="45.79842"/><use xlink:href="#l" x="374.28981" y="22.20255"/><use xlink:href="#i" x="438.88496" y="45.79842"/><use xlink:href="#m" x="438.85199" y="22.3704"/><use xlink:href="#i" x="598.1913" y="45.79842"/><use xlink:href="#n" x="598.66188" y="22.35941"/></svg>