<svg xmlns="http://www.w3.org/2000/svg" xmlns:xlink="http://www.w3.org/1999/xlink" width="390.561pt" height="48.304pt" viewBox="0 0 390.561 48.304"><defs><path id="c" d="M.98438-2.92187h6.34375v-.67188H.98438Zm0 0"/><path id="d" d="M.46875-1.17187c0 .51562.8125 1.3125 2.3125 1.3125 1.89063 0 2.75-1.15625 2.75-2.625 0-1.625-1-2.4375-2.375-2.4375-.64062 0-1.34375.28125-1.70312.60937l.25-2.1875c.04687-.29687.10937-.32812.32812-.32812h2.875l.28125-.78125-.04687-.10938H1.28125l-.10937.10938L.9375-3.75l.28125.15625c.46875-.5625.9375-.82812 1.5625-.82812.75 0 1.54688.54687 1.54688 2.0625 0 1.1875-.46875 2.09375-1.48438 2.09375-.8125 0-1.20312-.57813-1.4375-1.25-.0625-.17188-.17187-.28126-.34375-.28126-.23437 0-.59375.23438-.59375.625m0 0"/><path id="e" d="m.21875-2.3125.09375.25h3.15625v1.17188c0 .40625-.125.45312-.40625.48437l-.73437.07813V0h3.03125v-.32812l-.51563-.0625C4.57813-.4375 4.5-.48437 4.5-.89062V-2.0625h1.1875v-.54687H4.5v-5.10938h-.84375C2.57813-6.10937 1.28125-4.10937.21875-2.3125m.84375-.29687c.6875-1.25 1.51563-2.57813 2.40625-3.98438v3.98438Zm0 0"/><path id="f" d="M.3125-1.17187c0 .48437.79688 1.3125 2.42188 1.3125 1.67187 0 2.73437-.85938 2.73437-2.32813 0-1.54687-1.32812-2-1.96875-2.0625v-.04687C4.125-4.39062 5.125-4.85937 5.125-6c0-1.28125-1-1.84375-2.23437-1.84375-1.53125 0-2.28125.875-2.28125 1.375 0 .35938.40625.54688.5625.54688.15624 0 .23437-.07813.29687-.23438.25-.78125.6875-1.28125 1.32813-1.28125.90625 0 1.14062.79688 1.14062 1.4375 0 .6875-.23437 1.5625-1.21875 1.5625-.5625 0-.875-.10937-1.01562-.10937-.14063 0-.20313.10937-.20313.32812 0 .1875.0625.3125.20313.3125.14062 0 .45312-.10937 1.01562-.10937.98438 0 1.53125.89062 1.53125 1.89062 0 1.375-.67187 1.85938-1.5 1.85938-.76562 0-1.26562-.5625-1.48437-1.21875-.07813-.21876-.1875-.32813-.34375-.32813-.20313 0-.60938.21875-.60938.64063m0 0"/><path id="g" d="M.3125-.10937.4375 0h4.76563l.39062-1.51562-.3125-.0625c-.25.625-.48437.70312-.95312.70312h-2.9375c.1875-.59375.875-1.42187 1.9375-2.1875 1.10937-.8125 1.96875-1.32812 1.96875-2.625 0-1.60937-1.07813-2.15625-2.28125-2.15625-1.59375 0-2.40625.95313-2.40625 1.5625 0 .39063.45312.57813.64062.57813.21875 0 .28125-.125.32813-.32813.1875-.78125.64062-1.40625 1.35937-1.40625.875 0 1.14063.73438 1.14063 1.57813 0 1.23437-.625 1.9375-1.64063 2.82812C1.01563-1.79687.53125-1 .3125-.10937m0 0"/><path id="h" d="M1.25 0h3.79688v-.32812l-.96875-.09375c-.25-.01563-.375-.10938-.375-.5625v-6.79688l-.0625-.0625L1.25-7.4375v.28125l1.07813.125c.20312.03125.28125.10938.28125.45313v5.59375c0 .45312-.10938.54687-.39063.5625L1.25-.32812Zm0 0"/><path id="i" d="M.48438-3.85937c0 2.3125.67187 4 2.57812 4s2.59375-1.6875 2.59375-4-.6875-3.98438-2.59375-3.98438S.48438-6.17187.48438-3.85937m1.15625 0c0-1.875.32812-3.57813 1.42187-3.57813s1.40625 1.70313 1.40625 3.57813S4.15625-.26562 3.0625-.26562 1.64063-1.98437 1.64063-3.85937m0 0"/><path id="j" d="m1.67188-1.25.48437.46875 2-2 2.01563 2L6.625-1.25l-2-2 2-2.01562-.45312-.46875-2.01563 2-2-2-.48437.46875L3.6875-3.25Zm0 0"/><path id="k" d="M0 0h3.15625l.07813-.32812-.6875-.0625C2.34375-.40625 2.25-.48437 2.25-.67187q0-.1172.04688-.28126l.625-2.8125H3.625c1.10938 0 1.28125.28125 1.28125 1.625C4.90625-.73437 4.90625 0 6.10938 0h.90625L7.125-.32812C6.3125-.4375 6.03125-.48437 6.03125-1.96875c0-1.17187-.09375-1.67187-1.0625-2 1.42188-.1875 2.375-1.01562 2.375-2.15625 0-.82812-.35937-1.85937-2.51562-1.85937H1.71875l-.07812.32812.6875.04688c.1875.01562.28125.125.28125.3125 0 .07812-.01563.15625-.04688.26562L1.17188-.95312c-.09376.40625-.1875.51562-.46875.54687L.0625-.32812Zm3.01563-4.15625.6875-2.98437c.07812-.34375.10937-.45313.98437-.45313.75 0 1.45313.32813 1.45313 1.34375 0 1.375-.89063 2.09375-2.375 2.09375Zm0 0"/><path id="l" d="M.375-3.125C.375-1.21875 1.46875.17188 3.76563.17188c2.03125 0 3.03125-1.04688 3.67187-2.1875.625-1.125.73438-2.3125.73438-2.76563 0-2.35937-1.4375-3.39062-3.34375-3.39062-1.84375 0-2.98438 1.03125-3.65625 2.125C.53125-4.96875.375-3.875.375-3.125m1.20313.46875c0-.96875.1875-2.04687.71875-3.17187.53125-1.09375 1.34375-1.9375 2.57812-1.9375 1.26563 0 2.07813.75 2.07813 2.39062 0 .65625-.0625 1.60938-.54688 2.82813-.46875 1.25-1.26562 2.3125-2.76562 2.3125-1.25 0-2.0625-.8125-2.0625-2.42188m0 0"/><path id="m" d="M.95313-1.98437c0 1.5625 1.14062 2.15625 2.8125 2.15625 1.5625 0 3-.32813 3.64062-3.01563l.98438-4.1875c.09375-.39062.1875-.54687.48437-.57812l.64063-.04688.07812-.32812H6.4375l-.09375.32812.6875.04688q.28125.02344.28125.32812c0 .07813 0 .15625-.03125.25L6.34375-3C6-1.46875 5.42188-.23437 3.8125-.23437c-1.01562 0-1.71875-.4375-1.71875-1.71875 0-.3125.04688-.71875.14063-1.15625l.92187-3.92188c.09375-.39062.1875-.54687.48438-.57812l.64062-.04688.0625-.32812H1.1875l-.07812.32812.6875.04688c.1875.01562.28124.125.28124.3125 0 .07812-.01562.15625-.04687.26562L1.0625-2.95312c-.07812.35937-.10937.6875-.10937.96875m0 0"/><path id="n" d="M.48438-3.29687c0 1.15625.39062 2.10937.98437 2.625.6875.57812 1.625.84375 2.6875.84375.85938 0 1.78125-.20313 2.45313-.4375l.54687-2.34375c.10938-.39063.15625-.54688.35938-.57813l.5-.04687.07812-.32813H5.04688l-.0625.32813.85937.07812c.15625.01563.23438.09375.23438.26563 0 .07812-.01563.17187-.03125.28125l-.42188 1.75c-.09375.32812-.23437.625-1.4375.625-1.40625 0-2.42187-.9375-2.42187-2.96875 0-1.84375.90625-4.5625 3.65625-4.5625 1.51562 0 1.78125.89062 1.84375 1.98437h.34375l.42187-1.8125c-.70312-.375-1.625-.57812-2.59375-.57812-1.76562 0-3.04687.64062-3.85937 1.67187-.75.96875-1.09375 2.1875-1.09375 3.20313m0 0"/><path id="o" d="M.125 0h6.01563l.59375-2.03125h-.34375c-.59375 1.42188-1.10938 1.625-2.53125 1.625-1.35938 0-1.4375-.17187-1.4375-.48437 0-.10938.03125-.28126.07812-.51563l.59375-2.53125h1.51563c.85937 0 1.01562.17188 1.01562.67188 0 .09375 0 .20312-.01562.3125h.34375L6.5-5.35937h-.35937c-.29688.79687-.42188.98437-1.4375.98437H3.1875l.65625-2.875c.0625-.28125.14063-.34375.32813-.34375H5.5625c1.125 0 1.35938.29688 1.35938.92188 0 .28125-.03125.60937-.03125.60937h.34375l.42187-1.92187H1.82813L1.75-7.65625l.6875.04688c.20313.01562.28125.10937.28125.29687 0 .0625 0 .15625-.03125.26563L1.3125-.95312c-.09375.39062-.1875.51562-.48437.54687L.1875-.32812Zm0 0"/><clipPath id="a"><path d="M2.5586 21H382v2H2.5586Zm0 0"/></clipPath><clipPath id="b"><path d="M369 9h18.57031v26H369Zm0 0"/></clipPath></defs><g clip-path="url(#a)"><path fill="none" stroke="#000" stroke-miterlimit="10" stroke-width=".78569" d="M2.9492 22.23047h378.14066"/></g><path d="M385.19531 22.23047c-.5039-.10547-2.71875-.69922-4.10547-1.34375v2.6914c1.38672-.64843 3.60157-1.24218 4.10547-1.34765m0 0"/><g clip-path="url(#b)"><path fill="none" stroke="#000" stroke-miterlimit="10" stroke-width=".78569" d="M385.19531 22.23047c-.5039-.10547-2.71875-.69922-4.10547-1.34375v2.6914c1.38672-.64843 3.60157-1.24218 4.10547-1.34765Zm0 0"/></g><path fill="none" stroke="#000" stroke-miterlimit="10" stroke-width=".78569" d="M20.41405 13.5v17.46484"/><use xlink:href="#c" x="13.20892" y="43.25574"/><use xlink:href="#d" x="21.50778" y="43.25574"/><path fill="none" stroke="#000" stroke-miterlimit="10" stroke-width=".78569" d="M55.34374 13.5v17.46484"/><use xlink:href="#c" x="48.13863" y="43.25574"/><use xlink:href="#e" x="56.43748" y="43.25574"/><path fill="none" stroke="#000" stroke-miterlimit="10" stroke-width=".78569" d="M90.27343 13.5v17.46484"/><use xlink:href="#c" x="83.06834" y="43.39079"/><use xlink:href="#f" x="91.36719" y="43.39079"/><path fill="none" stroke="#000" stroke-miterlimit="10" stroke-width=".78569" d="M125.20312 13.5v17.46484"/><use xlink:href="#c" x="117.99804" y="43.39079"/><use xlink:href="#g" x="126.2969" y="43.39079"/><path fill="none" stroke="#000" stroke-miterlimit="10" stroke-width=".78569" d="M160.1328 13.5v17.46484"/><use xlink:href="#c" x="152.92775" y="43.39079"/><use xlink:href="#h" x="161.22661" y="43.39079"/><path fill="none" stroke="#000" stroke-miterlimit="10" stroke-width=".78569" d="M195.0625 13.5v17.46484"/><use xlink:href="#i" x="192.00667" y="43.39079"/><path fill="none" stroke="#000" stroke-miterlimit="10" stroke-width=".78569" d="M229.99219 13.5v17.46484"/><use xlink:href="#h" x="226.93638" y="43.39079"/><path fill="none" stroke="#000" stroke-miterlimit="10" stroke-width=".78569" d="M264.92579 13.5v17.46484"/><use xlink:href="#g" x="261.86707" y="43.39079"/><path fill="none" stroke="#000" stroke-miterlimit="10" stroke-width=".78569" d="M299.85548 13.5v17.46484"/><use xlink:href="#f" x="296.79678" y="43.39079"/><path fill="none" stroke="#000" stroke-miterlimit="10" stroke-width=".78569" d="M334.78517 13.5v17.46484"/><use xlink:href="#e" x="331.72649" y="43.25574"/><path fill="none" stroke="#000" stroke-miterlimit="10" stroke-width=".78569" d="M369.71486 13.5v17.46484"/><use xlink:href="#d" x="366.65619" y="43.25574"/><use xlink:href="#j" x="51.19558" y="25.09836"/><use xlink:href="#k" x="51.36711" y="12.2495"/><use xlink:href="#j" x="190.91441" y="25.09836"/><use xlink:href="#l" x="190.79809" y="12.25541"/><use xlink:href="#j" x="208.37976" y="25.09836"/><use xlink:href="#m" x="207.90066" y="12.16374"/><use xlink:href="#j" x="243.30946" y="25.09836"/><use xlink:href="#n" x="243.29073" y="12.25541"/><use xlink:href="#j" x="330.63324" y="25.09836"/><use xlink:href="#o" x="330.89152" y="12.2495"/></svg>