<svg xmlns="http://www.w3.org/2000/svg" xmlns:xlink="http://www.w3.org/1999/xlink" width="406.152pt" height="49.135pt" viewBox="0 0 406.152 49.135"><defs><path id="a" d="M.92188-2.71875h5.92187v-.64062H.92188Zm0 0"/><path id="b" d="M.4375-1.09375c0 .48438.75 1.21875 2.15625 1.21875 1.76563 0 2.57813-1.07812 2.57813-2.4375 0-1.51562-.95313-2.28125-2.23438-2.28125-.59375 0-1.25.26563-1.59375.57813l.25-2.04688c.03125-.26562.09375-.3125.3125-.3125h2.67188l.26562-.71875-.0625-.09375H1.1875l-.09375.09375L.875-3.5l.26563.14063c.4375-.51563.875-.76563 1.45312-.76563.6875 0 1.45313.5 1.45313 1.92188C4.04688-1.09375 3.59375-.25 2.65625-.25c-.75 0-1.14062-.54687-1.34375-1.15625C1.25-1.5625 1.14063-1.67187 1-1.67187c-.21875 0-.5625.21874-.5625.57812m0 0"/><path id="c" d="m.20313-2.15625.09375.23438h2.9375v1.09375c0 .375-.125.42187-.375.45312l-.6875.0625V0H5v-.3125l-.46875-.04687c-.26562-.04688-.32812-.09375-.32812-.46875v-1.09375h1.09375v-.5H4.20313V-7.1875h-.79688c-1 1.48438-2.21875 3.34375-3.20312 5.03125m.78125-.26562c.64062-1.17188 1.42187-2.42188 2.25-3.73438v3.73438Zm0 0"/><path id="d" d="M.28125-1.09375c0 .45313.75 1.21875 2.26563 1.21875 1.5625 0 2.54687-.79687 2.54687-2.15625 0-1.45312-1.23437-1.875-1.82812-1.9375v-.04687c.57812-.07813 1.51562-.51563 1.51562-1.57813 0-1.20312-.9375-1.71875-2.09375-1.71875-1.42187 0-2.10937.8125-2.10937 1.28125 0 .32813.375.51563.51562.51563.14063 0 .21875-.07813.26563-.21875.25-.73438.64062-1.20313 1.25-1.20313.84375 0 1.0625.73438 1.0625 1.34375 0 .64063-.21875 1.45313-1.14063 1.45313-.51562 0-.8125-.09375-.9375-.09375-.14062 0-.20312.09375-.20312.29687 0 .1875.0625.29688.20312.29688.125 0 .42188-.10938.9375-.10938.92188 0 1.4375.82813 1.4375 1.76563C3.96875-.70312 3.32813-.25 2.5625-.25c-.70312 0-1.17187-.53125-1.39062-1.14062-.0625-.20313-.15626-.29688-.3125-.29688-.1875 0-.57813.20313-.57813.59375m0 0"/><path id="e" d="M.28125-.10937.40625 0h4.45313l.35937-1.42187-.29687-.0625c-.21875.59375-.4375.67187-.875.67187h-2.75c.17187-.5625.8125-1.32812 1.8125-2.04687C4.14063-3.625 4.9375-4.09375 4.9375-5.29687c0-1.5-1-2.01563-2.125-2.01563-1.48437 0-2.23437.89063-2.23437 1.45313 0 .35937.40625.53125.59375.53125s.26562-.10938.3125-.29688c.17187-.73437.59375-1.3125 1.25-1.3125.82812 0 1.0625.6875 1.0625 1.46875 0 1.15625-.57813 1.8125-1.51563 2.64063C.95313-1.67187.5-.9375.28125-.10937m0 0"/><path id="f" d="M1.17188 0h3.53125v-.3125l-.90625-.07812C3.57813-.40625 3.45313-.5 3.45313-.92187v-6.34375l-.0625-.04688-2.21875.375v.26563l1 .125c.1875.01562.25.09375.25.40625v5.21875c0 .42187-.09375.51562-.34375.53125l-.90625.07812Zm0 0"/><path id="g" d="M.45313-3.59375c0 2.15625.625 3.71875 2.40625 3.71875 1.76562 0 2.40625-1.5625 2.40625-3.71875S4.625-7.3125 2.85938-7.3125C1.07813-7.3125.45313-5.75.45313-3.59375m1.07812 0c0-1.75.29688-3.34375 1.32813-3.34375 1.01562 0 1.3125 1.59375 1.3125 3.34375S3.875-.25 2.85938-.25c-1.03125 0-1.32813-1.59375-1.32813-3.34375m0 0"/><path id="j" d="m1.73438-1.29687.5.5 2.0625-2.09375L6.39063-.79687l.48437-.5L4.79688-3.375 6.875-5.46875l-.48437-.48437L4.29688-3.875l-2.0625-2.07812-.5.48437L3.82813-3.375Zm0 0"/><path id="k" d="M0 0h3.26563l.07812-.34375-.70312-.0625c-.20313-.01562-.3125-.10937-.3125-.29687 0-.07813.03125-.17188.04687-.29688l.65625-2.89062H3.75c1.17188 0 1.32813.28125 1.32813 1.67187C5.07813-.76562 5.07813 0 6.34375 0h.92188l.125-.34375C6.54688-.45312 6.25-.5 6.25-2.03125c0-1.23437-.09375-1.75-1.09375-2.07812 1.46875-.20313 2.45313-1.0625 2.45313-2.25C7.60938-7.20312 7.25-8.28125 5-8.28125H1.78125l-.09375.34375.71875.0625c.20313 0 .29688.10938.29688.3125 0 .07813-.01563.15625-.04688.28125L1.21875-1c-.09375.42188-.20312.54688-.5.57813L.0625-.34375Zm3.125-4.3125.70313-3.09375c.09375-.34375.125-.46875 1.03125-.46875.78125 0 1.51562.34375 1.51562 1.39063 0 1.42187-.9375 2.17187-2.48437 2.17187Zm0 0"/><path id="l" d="M.375-3.23437C.375-1.26562 1.51563.17188 3.89063.17188c2.125 0 3.15625-1.07813 3.8125-2.26563.65625-1.17187.76562-2.39062.76562-2.85937 0-2.45313-1.48437-3.51563-3.46875-3.51563-1.90625 0-3.09375 1.0625-3.79687 2.20313C.54688-5.15625.375-4.03125.375-3.23437M1.64063-2.75c0-1 .1875-2.125.73437-3.28125.54688-1.14062 1.40625-2.01562 2.6875-2.01562 1.3125 0 2.14063.78125 2.14063 2.46875 0 .6875-.0625 1.67187-.5625 2.9375-.48438 1.29687-1.3125 2.40625-2.85938 2.40625-1.29687 0-2.14062-.84375-2.14062-2.51563m0 0"/><path id="m" d="M.98438-2.04687c0 1.60937 1.1875 2.21875 2.90625 2.21875 1.64062 0 3.125-.34375 3.78125-3.125l1.03125-4.32813c.09375-.40625.20312-.57812.5-.59375l.67187-.0625.07813-.34375H6.67188l-.09375.34375.70312.0625c.20313 0 .3125.10938.3125.32813 0 .07812-.01562.15625-.04687.26562l-.96875 4.17188c-.35938 1.59375-.95313 2.875-2.625 2.875-1.04688 0-1.78125-.46875-1.78125-1.79688 0-.32812.04687-.73437.14062-1.1875l.95313-4.0625c.10937-.40625.20312-.57812.5-.59375l.67187-.0625.07813-.34375H1.23438l-.09376.34375.71876.0625c.20312 0 .29687.10938.29687.3125 0 .07813-.01562.15625-.04687.28125l-1 4.21875c-.09376.375-.125.70313-.125 1.01563m0 0"/><path id="n" d="M.51563-3.40625c0 1.1875.39062 2.17188 1.01562 2.70313.70313.60937 1.67188.875 2.78125.875.89063 0 1.84375-.20313 2.53125-.45313l.57813-2.42187c.10937-.40625.17187-.5625.375-.59375l.51562-.04688.07813-.34375H5.23438l-.0625.34375.89062.07813c.17188 0 .23438.07812.23438.26562 0 .07813 0 .17188-.03125.29688l-.4375 1.8125c-.07813.34375-.23438.65625-1.48438.65625-1.45312 0-2.51562-.96875-2.51562-3.09375 0-1.90625.9375-4.71875 3.79687-4.71875 1.5625 0 1.84375.92187 1.90625 2.04687h.35938l.4375-1.875c-.71875-.39062-1.6875-.59375-2.6875-.59375-1.82813 0-3.15625.65625-4 1.73438-.78125 1-1.125 2.26562-1.125 3.32812m0 0"/><path id="o" d="M.125 0h6.25l.60938-2.09375H6.625C6.01563-.625 5.46875-.42187 4-.42187c-1.42187 0-1.48437-.17188-1.48437-.5 0-.125.03125-.29688.07812-.54688l.60938-2.625h1.57812c.89063 0 1.04688.1875 1.04688.70313 0 .10937 0 .20312-.01563.32812h.35938l.5625-2.48437H6.375c-.3125.82812-.4375 1.01562-1.5 1.01562H3.3125l.67188-2.98437c.0625-.29688.14062-.35938.34375-.35938h1.4375c1.17187 0 1.42187.3125 1.42187.95313 0 .29687-.04687.625-.04687.625H7.5l.45313-1.98438h-6.0625l-.07813.34375.71875.0625c.20313 0 .29688.09375.29688.28125q0 .1172-.04688.28125L1.35938-1c-.09376.42188-.20313.54688-.5.57813L.1875-.34375Zm0 0"/><clipPath id="h"><path d="M3.09766 22H397v2H3.09766Zm0 0"/></clipPath><clipPath id="i"><path d="M384 10h18.22266v26H384Zm0 0"/></clipPath></defs><path fill="none" stroke="#000" stroke-miterlimit="10" stroke-width=".39161" d="M21.59375 13.99219v18.10937"/><use xlink:href="#a" x="14.87028" y="43.79108"/><use xlink:href="#b" x="22.61361" y="43.79108"/><path fill="none" stroke="#000" stroke-miterlimit="10" stroke-width=".39161" d="M57.80469 13.99219v18.10937"/><use xlink:href="#a" x="51.08376" y="43.79108"/><use xlink:href="#c" x="58.82709" y="43.79108"/><path fill="none" stroke="#000" stroke-miterlimit="10" stroke-width=".39161" d="M94.01953 13.99219v18.10937"/><use xlink:href="#a" x="87.29625" y="43.91686"/><use xlink:href="#d" x="95.03959" y="43.91686"/><path fill="none" stroke="#000" stroke-miterlimit="10" stroke-width=".39161" d="M130.23437 13.99219v18.10937"/><use xlink:href="#a" x="123.50973" y="43.91686"/><use xlink:href="#e" x="131.25307" y="43.91686"/><path fill="none" stroke="#000" stroke-miterlimit="10" stroke-width=".39161" d="M166.44531 13.99219v18.10937"/><use xlink:href="#a" x="159.72222" y="43.91686"/><use xlink:href="#f" x="167.46556" y="43.91686"/><path fill="none" stroke="#000" stroke-miterlimit="10" stroke-width=".39161" d="M202.66016 13.99219v18.10937"/><use xlink:href="#g" x="199.80754" y="43.91686"/><path fill="none" stroke="#000" stroke-miterlimit="10" stroke-width=".39161" d="M238.8711 13.99219v18.10937"/><use xlink:href="#f" x="236.02004" y="43.91686"/><path fill="none" stroke="#000" stroke-miterlimit="10" stroke-width=".39161" d="M275.08594 13.99219v18.10937"/><use xlink:href="#e" x="272.23351" y="43.91686"/><path fill="none" stroke="#000" stroke-miterlimit="10" stroke-width=".39161" d="M311.30078 13.99219v18.10937"/><use xlink:href="#d" x="308.44601" y="43.91686"/><path fill="none" stroke="#000" stroke-miterlimit="10" stroke-width=".39161" d="M347.51172 13.99219v18.10937"/><use xlink:href="#c" x="344.6585" y="43.79108"/><path fill="none" stroke="#000" stroke-miterlimit="10" stroke-width=".39161" d="M383.72656 13.99219v18.10937"/><use xlink:href="#b" x="380.87198" y="43.79108"/><g clip-path="url(#h)"><path fill="none" stroke="#000" stroke-miterlimit="10" stroke-width=".78322" d="M3.48437 23.04687h392.27735"/></g><path d="M399.85547 23.04688c-.5039-.10547-2.71094-.69532-4.09375-1.33985v2.67969c1.38281-.64453 3.58984-1.23438 4.09375-1.33985m0 0"/><g clip-path="url(#i)"><path fill="none" stroke="#000" stroke-miterlimit="10" stroke-width=".78322" d="M399.85547 23.04687c-.5039-.10546-2.71094-.6953-4.09375-1.33984v2.67969c1.38281-.64453 3.58984-1.23438 4.09375-1.33985Zm0 0"/></g><use xlink:href="#j" x="53.50611" y="26.01993"/><use xlink:href="#k" x="53.68398" y="12.69943"/><use xlink:href="#j" x="198.35708" y="26.01993"/><use xlink:href="#l" x="198.2362" y="12.70533"/><use xlink:href="#j" x="216.4643" y="26.01993"/><use xlink:href="#m" x="215.96804" y="12.61001"/><use xlink:href="#j" x="252.6768" y="26.01993"/><use xlink:href="#n" x="252.65813" y="12.70533"/><use xlink:href="#j" x="343.20902" y="26.01993"/><use xlink:href="#o" x="343.47631" y="12.69943"/></svg>