<?xml version="1.0" encoding="UTF-8"?><svg id="a" xmlns="http://www.w3.org/2000/svg" viewBox="0 0 508.99 458.37"><g id="b"><path d="M0,12.34h.17c-.04.06-.13.18-.17.25v-.25Z" fill="#0775b6" stroke-width="0"/><path d="M215.22,89.66c7.63-5.48,16.29-10.31,25.86-10.98,8.34-.21,16.71.31,24.94,1.67,10.49,1.89,21.97,5.36,28.35,14.55,7.87,11.56,2.78,29.08-9.66,35.15-4.62,2.35-10.41,1.13-14.24-2.18-5.22-4.38-7.98-10.79-11.63-16.39-3.16-5.31-7.63-10.92-14.19-11.7-4.67-.81-8.69,2.34-11.93,5.28-6.94,6.64-12.16,14.8-17.09,22.98-12.25,20.99-21.73,43.48-30.01,66.3,12.8,0,25.59-.02,38.38,0,0,6.99.02,13.99,0,20.99-15.21.11-30.43-.21-45.62.15-3.44,12.04-7.1,24.02-9.94,36.23-10.84,43.93-22.92,87.75-40.53,129.51-8.4,19.27-17.9,38.39-31.37,54.69-9.46,11.22-22.15,21.84-37.55,22.13-13.18-.05-26.74-.72-39.14-5.58-7.39-2.89-14.36-8.57-16.15-16.64-1.54-7.56-.24-15.45,2.09-22.72,2.28-6.36,5.54-12.88,11.26-16.8,4.49-3.12,10.58-.73,13.74,3.19,7.82,9.37,9.92,22.08,17.28,31.75,2.56,3.46,6.64,6.19,11.11,5.7,3.59-1.19,5.91-4.42,8.02-7.36,5.7-8.51,9.62-18.03,13.58-27.42,16.51-41.88,28.68-85.32,40.33-128.75,5.35-19.27,9.63-38.83,15.09-58.07-12.73-.03-25.47.02-38.21-.02.02-7,.01-14,0-21,15.22-.02,30.44.07,45.65-.05,10.06-25.7,23.33-50.22,39.94-72.28,9.26-11.92,19.39-23.39,31.64-32.34Z" fill="#3b4a51" stroke-width="0"/><path d="M283,196.31c.85-.85,1.64-2.25,3.07-1.97,7.52,0,15.05-.04,22.57.03-18.82,21.01-35.46,44.13-48.04,69.43-16.04,31.68-25.4,66.93-25.66,102.52-.65,31.88,8.56,63,21.06,92.02-6.89-.01-13.78.03-20.67-.03-7.97-15.36-14.04-31.76-17.46-48.74-6.84-34.42-4.76-70.37,4.27-104.19,11-40.6,32.36-78.21,60.86-109.07Z" fill="#3b4a51" stroke-width="0"/><path d="M467.06,194.32c6.92.05,13.84-.02,20.76.03,8.95,17.57,15.42,36.45,18.51,55.95,6.15,39.25,1.46,79.97-12.22,117.21-12.46,33.62-31.84,64.59-56.21,90.86-7.84-.07-15.67.01-23.5-.05,5.89-7.27,12.26-14.2,17.83-21.76,22.82-29.86,40.65-63.95,49.46-100.62,4.86-20.37,7.01-41.43,5.92-62.36-1.38-25.39-8.44-50.17-18.34-73.48-.76-1.92-1.8-3.75-2.21-5.78Z" fill="#3b4a51" stroke-width="0"/><path d="M308.97,257.33c10.31,0,20.61,0,30.92,0,9.08,19.9,18.06,39.86,27.15,59.76,15.74-19.9,31.28-39.96,47.07-59.81,10.53.13,21.05,0,31.57.07-22.38,25.97-45.11,51.65-67.43,77.69,11.99,27.06,24.06,54.1,35.72,81.3-9.24-.03-18.48,0-27.73-.01-9.33-21.21-18.47-42.51-27.85-63.7-16.49,21.26-33.05,42.47-49.58,63.7-10.57-.01-21.14.04-31.72-.03,23.38-27.27,46.82-54.48,70.09-81.84-12.19-24.32-24.27-48.69-36.42-73.02-.7-1.33-1.42-2.66-1.79-4.12Z" fill="#ecbe6b" stroke-width="0"/></g><path d="M327.87,119.06c10.51-23.92,28.01-54.08,38.04-66.55l16.88.68c-8.82,16.59-21.35,45.97-27.78,66.86l-27.15-.98Z" fill="#dd636e" stroke-width="0"/></svg>