<svg xmlns="http://www.w3.org/2000/svg" xmlns:xlink="http://www.w3.org/1999/xlink" width="492.92pt" height="177.564pt" viewBox="0 0 492.92 177.564"><defs><path id="g" d="M-.125-7.64062c.59375.03125.73438.09375.89063.59375L3.125 0h1.46875l1.39063-4.07812C6.42188-5.35937 6.82813-6.48437 7-6.9375c.23438-.5625.34375-.65625 1-.70312v-.4375H5.29688v.4375l.65625.0625c.23437.03125.25.14062.20312.39062-.125.375-.375 1.34375-.73437 2.4375-.23438.70313-.73438 2.42188-.95313 3.01563h-.0625l-1.75-5.42188c-.07812-.25-.0625-.39062.21875-.42187l.54688-.0625v-.4375H-.125Zm0 0"/><path id="h" d="M.5625-1.5625c0 .85938.5625 1.70313 1.73438 1.70313.75 0 1.26562-.40625 1.67187-.67188.15625.35938.35938.67188.92188.67188.60937 0 1.32812-.20313 1.71875-.35938l-.01563-.375c-.14062.01563-.40625 0-.57812-.0625-.15625-.04687-.375-.1875-.375-.875v-2.6875c0-.73437-.09375-1.64062-2.15625-1.64062-1.71875 0-2.78125.67187-2.78125 1.4375 0 .51562.73437.73437 1.03125.73437.26562 0 .39062-.1875.5-.46875.32812-1 .70312-1.17187 1.03125-1.17187.34375 0 .65625.20312.65625.875v.60937c-.40625.29688-1.375.5625-2.14063.82813C.875-2.70312.5625-2.23437.5625-1.5625M2.32813-1.75c0-.54687.20312-.82812.54687-1.01562.35938-.20313.76563-.35938 1.04688-.48438v1.6875c-.01563.625-.375.79688-.70313.79688-.46875 0-.89062-.35938-.89062-.98438m0 0"/><path id="i" d="M.28125 0H3.5625v-.45312c-.67187-.03125-.75-.07813-.75-.5625v-7.5625l-.09375-.07813-2.34375.3125v.42188l.39063.0625c.1875.03125.28124.14062.28124.60937v6.23438c0 .48437-.09374.53125-.76562.5625Zm0 0"/><path id="j" d="M.45313-2.85937c0 1.59375.70312 3 2.85937 3 1.39063 0 2.15625-.67188 2.54688-1.70313l-.42188-.23437C5.09375-1.125 4.59375-.75 3.89063-.75c-1.17188 0-1.57813-.96875-1.57813-2.1875h3.03125c.42188 0 .625-.125.625-.48437 0-.96875-.375-2.4375-2.625-2.4375-2.10937 0-2.89062 1.35937-2.89062 3M2.3125-3.5c0-.84375.21875-1.82812.98438-1.82812.70312 0 .82812.89062.82812 1.4375 0 .32812-.09375.39062-.35937.39062Zm0 0"/><path id="k" d="m.34375-5.10937.40625.0625c.1875.03125.26563.10937.26563.59375v2.84375c0 1.35937.84375 1.75 1.6875 1.75 1 0 1.60937-.53125 2.07812-.79688L4.875 0h2.42188v-.45312c-.65625-.03125-.73438-.07813-.73438-.5625v-4.76563l-.10937-.07812-2.35938.32812v.42188l.42188.0625c.1875.03125.26562.10937.26562.59375v2.46875c0 .20312-.01562.48437-.07812.65625-.125.26562-.4375.54687-.9375.54687-.625 0-.98438-.35937-.98438-1.26562v-3.73438l-.07812-.07812-2.35938.32812Zm0 0"/><path id="l" d="M.375 0h3.53125v-.45312C3-.5 2.875-.53125 2.875-1.01562v-2.59375c0-.60938.125-.90625.40625-.90625.1875 0 .35938.10937.625.25.14063.10937.3125.1875.53125.1875.23438 0 .46875-.125.59375-.29688s.1875-.40625.1875-.67187c0-.5-.32812-.8125-.8125-.8125s-.85937.3125-1.53125 1.03125l-.17187-1.03125-2.26563.32812v.42188l.40625.0625c.1875.03125.28125.10937.28125.59375v3.4375c0 .48437-.07812.53125-.75.5625Zm0 0"/><path id="m" d="M.45313-2.75c0 1.6875.89062 2.89063 2.35937 2.89063.4375 0 1.0625-.23438 1.70313-.71875V0h2.5v-.45312c-.67188-.03125-.75-.07813-.75-.5625v-7.5625l-.07813-.07813-2.375.3125v.42188l.40625.0625c.1875.03125.29688.14062.29688.60937v1.53125c-.26563-.10937-.60938-.14062-1-.14062-.875 0-1.65625.25-2.1875.75-.54688.51562-.875 1.29687-.875 2.35937M2.3125-3c0-1.70312.64063-2.32812 1.29688-2.32812.45312 0 .6875.23437.79687.46875.10938.17187.10938.42187.10938.67187v2.40625c0 .48438-.1875 1.03125-.92188 1.03125C2.82813-.75 2.3125-1.5 2.3125-3m0 0"/><path id="o" d="M.5625-2.64062.75-.54687C1.34375 0 2.5.17188 3.26563.17188c2.34375-.01563 3.01562-1.28125 3.01562-2.5 0-1.53125-1.125-2.125-2.1875-2.57813-.78125-.32812-1.76562-.75-1.76562-1.625 0-.73437.53125-1.1875 1.21875-1.1875.75 0 1.46875.53125 1.79687 1.89063h.42188v-1.90625c-.60938-.375-1.5-.53125-2.20313-.53125-1.96875 0-2.90625 1.03125-2.90625 2.40625 0 1.45312 1.29688 2.07812 2.32813 2.5 1.0625.45312 1.54687.96875 1.54687 1.71875-.01562.875-.5625 1.28125-1.3125 1.28125-.89062 0-1.78125-.8125-2.21875-2.28125Zm0 0"/><path id="p" d="M.875-7.39062c0 .5625.40625 1.03125 1.0625 1.03125.64063 0 1.09375-.46875 1.09375-1.03125 0-.54688-.42187-1.01563-1.09375-1.01563-.65625 0-1.0625.46875-1.0625 1.01563M.375 0h3.29688v-.45312C3-.48437 2.875-.53125 2.875-1.01562v-4.76563l-.0625-.07812-2.375.32812v.42188l.40625.0625c.1875.03125.28125.10937.28125.59375v3.4375c0 .48437-.07812.53125-.75.5625Zm0 0"/><path id="q" d="M.375 1.125c0 1.125 1.21875 1.6875 2.875 1.6875.51563 0 1.35938-.09375 1.9375-.42187.65625-.32813 1.07813-.9375 1.07813-1.78125 0-1.40625-1.07813-1.84375-2.29688-1.84375H2.875c-.5625 0-.78125-.1875-.78125-.39063 0-.26562.29688-.39062.46875-.42187.21875.01562.39063.01562.53125.01562 1.375 0 2.625-.5 2.625-1.89062 0-.34375-.14062-.71875-.29687-.90625l.78125-.14063.23437-.875-.10937-.125-1.48438.48438c-.39062-.21875-1.03125-.375-1.65625-.375-2.10937 0-2.73437 1.07812-2.73437 1.98437 0 .96875.73437 1.54688 1.4375 1.65625v.03125c-.76563.1875-1.25.60938-1.25 1.07813 0 .51562.5625.98437 1.07812 1.09375v.03125C1.23438.125.375.32813.375 1.125M1.92188 1c0-.3125.15624-.53125.3125-.64062C2.39063.25 2.75.1875 3.26563.1875c1 0 1.59375.21875 1.59375.9375 0 .82813-.64063 1.15625-1.4375 1.15625-.78125 0-1.5-.4375-1.5-1.28125m.35937-4.90625c0-1 .42188-1.42187.89063-1.42187.45312 0 .875.42187.875 1.40625 0 .82812-.35938 1.34375-.89063 1.34375-.5 0-.875-.53125-.875-1.32813m0 0"/><path id="r" d="M.375 0H3.5v-.45312l-.21875-.01563C3.03125-.5 2.875-.53125 2.875-.92187v-2.78125c0-.26563.0625-.51563.14063-.6875.15625-.29688.46875-.57813.95312-.57813.59375 0 .90625.375.92188 1.0625v2.98438c0 .39062-.125.42187-.375.45312l-.25.01563V0h3.15625v-.45312c-.67188-.03125-.78125-.07813-.78125-.5625V-4.0625c0-1.09375-.54688-1.79687-1.75-1.79687-.67188 0-1.23438.34375-2.01563.79687l-.14062-.79687-2.29688.32812v.42188l.40625.0625c.1875.03125.28125.10937.28125.59375v3.4375c0 .48437-.07812.53125-.75.5625Zm0 0"/><path id="n" d="M.375-.45312c0 .32812.26563.59375.75.59375.78125 0 1.23438-.79688 1.71875-1.57813l.46875-.78125h.03125l.20313.92188c.23437.9375.4375 1.4375 1.03125 1.4375.85937 0 1.3125-.89063 1.65625-1.59375l-.29688-.15626C5.65625-1.09374 5.32813-.46874 5-.46874c-.21875 0-.29687-.26562-.5625-1.3125l-.375-1.51562c.42188-.75 1.01563-1.6875 1.35938-1.6875s.35937.1875.70312.1875c.26563 0 .5-.25.5-.5625 0-.35938-.28125-.5-.59375-.5-.625 0-1.15625.5625-1.5625 1.21875l-.5.79687H3.9375L3.46875-5.8125l-.0625-.04687-1.92187.57812L1.5-5l.92188-.0625c.1875 0 .28125.09375.39062.59375l.40625 1.6875-.32812.5625C2.39063-1.35937 1.96875-.75 1.67188-.75 1.34375-.75 1.25-1.04687.875-1.04687c-.29687 0-.5.29687-.5.59375m0 0"/><path id="s" d="M.3125-1.1875c0 .48438.8125 1.32813 2.45313 1.32813 1.6875 0 2.76562-.85938 2.76562-2.35938 0-1.5625-1.34375-2.01562-1.98437-2.07812v-.04688c.625-.10937 1.64062-.57812 1.64062-1.73437 0-1.28125-1.01562-1.85938-2.26562-1.85938C1.375-7.9375.625-7.04687.625-6.54687c0 .35937.40625.5625.5625.5625s.23438-.09375.29688-.23438c.25-.79687.6875-1.3125 1.34375-1.3125.92187 0 1.15625.8125 1.15625 1.46875 0 .70313-.25 1.57813-1.23438 1.57813-.5625 0-.89062-.10938-1.01562-.10938-.15626 0-.21876.10938-.21876.32813 0 .1875.0625.3125.21876.3125.125 0 .45312-.10938 1.01562-.10938.98438 0 1.54688.89063 1.54688 1.90625 0 1.40625-.6875 1.89063-1.51563 1.89063-.76562 0-1.28125-.57813-1.5-1.23438-.07812-.23437-.1875-.34375-.34375-.34375-.21875 0-.625.23438-.625.65625m0 0"/><path id="t" d="M1-2.95312h6.42188v-.6875H1Zm0 0"/><path id="u" d="M1.26563 0h3.84375v-.32812L4.125-.42187C3.875-.45312 3.73438-.53125 3.73438-1v-6.875l-.0625-.0625-2.40625.40625v.29688l1.09375.125c.20312.03125.28125.10937.28125.45312V-1c0 .46875-.125.54688-.39063.57813l-.98437.09375Zm0 0"/><path id="v" d="M1-2.95312h2.85938v2.85937h.6875v-2.85937h2.875v-.6875h-2.875v-2.875h-.6875v2.875H1Zm0 0"/><path id="w" d="m.21875-2.32812.10938.23437H3.5v1.20313c0 .39062-.125.45312-.40625.48437l-.75.07813V0h3.07813v-.32812l-.51563-.0625C4.64063-.4375 4.5625-.5 4.5625-.89062v-1.20313H5.75v-.54687H4.5625v-5.15625h-.85937C2.60938-6.1875 1.29688-4.15625.21875-2.32812m.84375-.3125C1.76563-3.90625 2.60938-5.25 3.5-6.67187v4.03125Zm0 0"/><path id="x" d="M-.25 2.15625c.01563.375.51563.65625 1.0625.65625 1.17188 0 1.67188-.9375 2.15625-3.17187l1.07813-4.92188h1.48437l.10938-.4375H4.125l.32813-1.32812c.21875-.875.4375-1.21875.76562-1.21875.3125 0 .51563.26562.78125.82812.0625.10938.15625.20313.32813.20313.23437 0 .5625-.21875.5625-.51563 0-.5-.625-.90625-1.32813-.90625-1.375 0-1.95312.96875-2.39062 2.5l-.125.4375H2.03125l-.125.4375H2.9375L1.59375 1.60938c-.14062.71875-.26562.78125-.375.78125-.125 0-.3125-.07813-.625-.5625C.51563 1.71875.4375 1.5625.28125 1.5625c-.25 0-.53125.28125-.53125.59375m0 0"/><path id="z" d="M1-3.29687c0 2.64062.60938 5.53125 3.07813 5.625v-.34375C3.23438 1.82812 1.9375.79688 1.9375-3.29687c0-4.0625 1.25-5.09375 2.14063-5.28125v-.34375C1.60938-8.8125 1-5.92187 1-3.29687m0 0"/><path id="A" d="M.70313 1.98438v.34375c2.46875-.09375 3.0625-2.98438 3.0625-5.625 0-2.625-.59375-5.51563-3.0625-5.625v.34375c.89062.1875 2.125 1.21875 2.125 5.28125 0 4.09375-1.29688 5.125-2.125 5.28125m0 0"/><path id="I" d="M.46875-1.1875c0 .53125.82813 1.32813 2.34375 1.32813 1.92188 0 2.79688-1.17188 2.79688-2.65625 0-1.64063-1.03125-2.46875-2.42188-2.46875-.64062 0-1.34375.28125-1.71875.625l.26563-2.21875c.03124-.29688.10937-.32813.32812-.32813h2.90625L5.25-7.70312l-.0625-.09375H1.29688l-.10938.10937-.25 3.90625.29688.14063c.48437-.5625.95312-.82813 1.57812-.82813.75 0 1.57813.54688 1.57813 2.07813 0 1.20312-.48438 2.125-1.51563 2.125-.8125 0-1.21875-.59375-1.45312-1.26563-.0625-.17187-.1875-.28125-.34375-.28125-.23438 0-.60938.23438-.60938.625m0 0"/><path id="L" d="M.48438-3.90625c0 2.34375.6875 4.04688 2.60937 4.04688s2.625-1.70313 2.625-4.04688c0-2.32812-.70312-4.03125-2.625-4.03125-1.92187 0-2.60937 1.70313-2.60937 4.03125m1.1875 0c0-1.89062.3125-3.625 1.42187-3.625 1.10938 0 1.42188 1.73438 1.42188 3.625 0 1.90625-.3125 3.64063-1.42188 3.64063C1.98438-.26562 1.67188-2 1.67188-3.90625m0 0"/><path id="y" d="M.35938-.125c0 .04688.10937.125.21875.125.0625 0 .20312-.01562.21874-.0625L2.25-3.8125c.0625-.125.0625-.1875.0625-.21875 0-.1875-.26562-.25-.51562-.25s-.64063.09375-.67188.25Zm0 0"/><clipPath id="a"><path d="M.5625 35H139v142H.5625Zm0 0"/></clipPath><clipPath id="b"><path d="M.5625 35H139v142.1289H.5625Zm0 0"/></clipPath><clipPath id="c"><path d="M138 0h354.27734v36H138Zm0 0"/></clipPath><clipPath id="d"><path d="M138 35h354.27734v142H138Zm0 0"/></clipPath><clipPath id="e"><path d="M138 35h354.27734v142.1289H138Zm0 0"/></clipPath><clipPath id="f"><path d="M.5625 0H139v36H.5625Zm0 0"/></clipPath><clipPath id="B"><path d="M.5625 35h491.71484v1H.5625Zm0 0"/></clipPath><clipPath id="C"><path d="M.5625 70h491.71484v2H.5625Zm0 0"/></clipPath><clipPath id="D"><path d="M.5625 106h491.71484v1H.5625Zm0 0"/></clipPath><clipPath id="E"><path d="M.5625 141h491.71484v1H.5625Zm0 0"/></clipPath><clipPath id="F"><path d="M.5625 176h491.71484v1.1289H.5625Zm0 0"/></clipPath><clipPath id="G"><path d="M.5625 0h491.71484v177.1289H.5625Zm0 0"/></clipPath><clipPath id="H"><path d="M138 0h1v177.1289h-1Zm0 0"/></clipPath><clipPath id="J"><path d="M138 35h354.27734v37H138Zm0 0"/></clipPath><clipPath id="K"><path d="M138 70h354.27734v37H138Zm0 0"/></clipPath><clipPath id="M"><path d="M138 106h354.27734v36H138Zm0 0"/></clipPath><clipPath id="N"><path d="M138 141h354.27734v36.1289H138Zm0 0"/></clipPath><clipPath id="O"><path d="M262 141h1v36.1289h-1Zm0 0"/></clipPath><clipPath id="P"><path d="M368 141h1v36.1289h-1Zm0 0"/></clipPath></defs><g clip-path="url(#a)"><path fill="#FFF" d="M.76172 35.54688v141.38671h137.85156V35.54687Zm0 0"/></g><g clip-path="url(#b)"><path fill="none" stroke="#000" stroke-miterlimit="10" stroke-width=".39752" d="M.76172 35.5469v141.38677h137.85162V35.5469Zm0 0"/></g><g clip-path="url(#c)"><path fill="#FFF" stroke="#000" stroke-miterlimit="10" stroke-width=".39752" d="M138.61334 35.5469V.19921h353.4689v35.34767Zm0 0"/></g><g clip-path="url(#d)"><path fill="#FFF" d="M138.61328 35.54688v141.38671h353.46875V35.54687Zm0 0"/></g><g clip-path="url(#e)"><path fill="none" stroke="#000" stroke-miterlimit="10" stroke-width=".39752" d="M138.61334 35.5469v141.38677h353.4689V35.5469Zm0 0"/></g><g clip-path="url(#f)"><path fill="#FFF" stroke="#000" stroke-miterlimit="10" stroke-width=".39752" d="M.76172.19922v35.34767h137.85162V.19922Zm0 0"/></g><use xlink:href="#g" x="37.37191" y="22.13265"/><use xlink:href="#h" x="44.19202" y="22.13265"/><use xlink:href="#i" x="50.6643" y="22.13265"/><use xlink:href="#j" x="54.39114" y="22.13265"/><use xlink:href="#k" x="60.55284" y="22.13265"/><use xlink:href="#l" x="68.01895" y="22.13265"/><use xlink:href="#m" x="77.41058" y="22.13265"/><use xlink:href="#j" x="84.57853" y="22.13265"/><use xlink:href="#n" x="94.88444" y="22.13265"/><use xlink:href="#o" x="40.58402" y="56.13716"/><use xlink:href="#p" x="47.11841" y="56.13716"/><use xlink:href="#q" x="50.93221" y="56.13716"/><use xlink:href="#r" x="57.26783" y="56.13716"/><use xlink:href="#j" x="64.83332" y="56.13716"/><use xlink:href="#m" x="75.13182" y="56.13716"/><use xlink:href="#j" x="82.29977" y="56.13716"/><use xlink:href="#s" x="92.60503" y="56.13716"/><use xlink:href="#o" x="30.33917" y="91.48337"/><use xlink:href="#p" x="36.87356" y="91.48337"/><use xlink:href="#q" x="40.68736" y="91.48337"/><use xlink:href="#r" x="47.02299" y="91.48337"/><use xlink:href="#j" x="54.58847" y="91.48337"/><use xlink:href="#m" x="64.88697" y="91.48337"/><use xlink:href="#j" x="72.05492" y="91.48337"/><use xlink:href="#n" x="82.36019" y="91.48337"/><use xlink:href="#t" x="92.09966" y="91.48337"/><use xlink:href="#u" x="102.84538" y="91.48337"/><use xlink:href="#o" x="30.33917" y="126.82958"/><use xlink:href="#p" x="36.87356" y="126.82958"/><use xlink:href="#q" x="40.68736" y="126.82958"/><use xlink:href="#r" x="47.02299" y="126.82958"/><use xlink:href="#j" x="54.58847" y="126.82958"/><use xlink:href="#m" x="64.88697" y="126.82958"/><use xlink:href="#j" x="72.05492" y="126.82958"/><use xlink:href="#n" x="82.36019" y="126.82958"/><use xlink:href="#v" x="92.09966" y="126.82958"/><use xlink:href="#w" x="102.84538" y="126.82958"/><use xlink:href="#o" x="29.98754" y="162.47106"/><use xlink:href="#p" x="36.52193" y="162.47106"/><use xlink:href="#q" x="40.33573" y="162.47106"/><use xlink:href="#r" x="46.67135" y="162.47106"/><use xlink:href="#j" x="54.23684" y="162.47106"/><use xlink:href="#m" x="64.53534" y="162.47106"/><use xlink:href="#j" x="71.70329" y="162.47106"/><use xlink:href="#x" x="82.0098" y="162.47106"/><use xlink:href="#y" x="89.30189" y="157.50201"/><use xlink:href="#z" x="92.4554" y="162.47106"/><use xlink:href="#n" x="97.22576" y="162.47106"/><use xlink:href="#A" x="104.61732" y="162.47106"/><g clip-path="url(#B)"><path fill="none" stroke="#000" stroke-miterlimit="10" stroke-width=".39752" d="M.76172 35.5469h491.32053"/></g><g clip-path="url(#C)"><path fill="none" stroke="#000" stroke-miterlimit="10" stroke-width=".39752" d="M.76172 70.89066h491.32053"/></g><g clip-path="url(#D)"><path fill="none" stroke="#000" stroke-miterlimit="10" stroke-width=".39752" d="M.76172 106.23833h491.32053"/></g><g clip-path="url(#E)"><path fill="none" stroke="#000" stroke-miterlimit="10" stroke-width=".39752" d="M.76172 141.586h491.32053"/></g><g clip-path="url(#F)"><path fill="none" stroke="#000" stroke-miterlimit="10" stroke-width=".39752" d="M.76172 176.93367h491.32053"/></g><g clip-path="url(#G)"><path fill="none" stroke="#000" stroke-miterlimit="10" stroke-width=".39752" d="M.76172.19922v176.73445h491.32053V.19922Zm0 0"/></g><g clip-path="url(#H)"><path fill="none" stroke="#000" stroke-miterlimit="10" stroke-width=".39752" d="M138.61334.19922v176.73445"/></g><use xlink:href="#t" x="148.99432" y="21.70371"/><use xlink:href="#I" x="157.39213" y="21.70371"/><use xlink:href="#t" x="255.03295" y="21.77254"/><use xlink:href="#w" x="263.43076" y="21.77254"/><use xlink:href="#u" x="365.27027" y="21.84037"/><use xlink:href="#w" x="471.30989" y="21.77254"/><g clip-path="url(#J)"><path fill="none" stroke="#000" stroke-miterlimit="10" stroke-width=".39752" d="M138.61334 35.5469v35.34376h353.4689V35.54689Zm0 0"/></g><use xlink:href="#v" x="205.10854" y="56.47333"/><use xlink:href="#v" x="311.14916" y="56.47333"/><use xlink:href="#v" x="417.18878" y="56.47333"/><g clip-path="url(#K)"><path fill="none" stroke="#000" stroke-miterlimit="10" stroke-width=".39752" d="M138.61334 70.89066v35.34767h353.4689V70.89066Zm0 0"/></g><use xlink:href="#t" x="205.10854" y="90.38506"/><use xlink:href="#t" x="311.14916" y="90.38506"/><path fill="none" stroke="#000" stroke-dasharray="2.9815073665000003 2.9815073665000003" stroke-miterlimit="10" stroke-width=".39752" d="M368.37126 70.89066v35.34767"/><use xlink:href="#L" x="365.27326" y="92.46496"/><use xlink:href="#v" x="417.18878" y="91.81954"/><g clip-path="url(#M)"><path fill="none" stroke="#000" stroke-miterlimit="10" stroke-width=".39752" d="M138.61334 106.23833V141.586h353.4689v-35.34767Zm0 0"/></g><use xlink:href="#t" x="205.10854" y="125.73127"/><path fill="none" stroke="#000" stroke-dasharray="2.9815073665000003 2.9815073665000003" stroke-miterlimit="10" stroke-width=".39752" d="M262.32824 106.23833V141.586"/><use xlink:href="#L" x="259.23363" y="127.81216"/><use xlink:href="#v" x="311.14916" y="127.16675"/><use xlink:href="#v" x="417.18878" y="127.16675"/><g clip-path="url(#N)"><path fill="none" stroke="#000" stroke-miterlimit="10" stroke-width=".39752" d="M138.61334 141.586v35.34767h353.4689V141.586Zm0 0"/></g><use xlink:href="#v" x="205.10854" y="162.51296"/><g clip-path="url(#O)"><path fill="none" stroke="#000" stroke-dasharray="2.9815073665000003 2.9815073665000003" stroke-miterlimit="10" stroke-width=".39752" d="M262.32824 141.586v35.34767"/></g><use xlink:href="#L" x="259.23363" y="163.15837"/><use xlink:href="#t" x="311.14916" y="161.07848"/><g clip-path="url(#P)"><path fill="none" stroke="#000" stroke-dasharray="2.9815073665000003 2.9815073665000003" stroke-miterlimit="10" stroke-width=".39752" d="M368.37126 141.586v35.34767"/></g><use xlink:href="#L" x="365.27326" y="163.15837"/><use xlink:href="#v" x="417.18878" y="162.51296"/></svg>