<svg xmlns="http://www.w3.org/2000/svg" xmlns:xlink="http://www.w3.org/1999/xlink" width="788.429pt" height="283.863pt" viewBox="0 0 788.429 283.863"><defs><path id="h" d="M-.20312-12.25c.95312.04688 1.17187.17188 1.4375.96875L5 0h2.35938l2.23437-6.53125c.70313-2.04687 1.35938-3.85937 1.64063-4.59375.375-.89062.53125-1.03125 1.57812-1.125v-.6875H8.48438v.6875l1.04687.10938c.375.03125.42188.21875.32813.60937-.1875.625-.60938 2.17188-1.15625 3.90625C8.32813-6.48437 7.5-3.75 7.17188-2.78125H7.0625l-2.79687-8.6875c-.125-.39062-.10938-.64062.32812-.67187L5.5-12.25v-.6875H-.20312Zm0 0"/><path id="i" d="M.89063-2.51562c0 1.40625.90625 2.73437 2.79687 2.73437 1.1875 0 2.03125-.64062 2.6875-1.07812.23438.57812.57813 1.07812 1.46875 1.07812.96875 0 2.125-.3125 2.75-.5625l-.03125-.60937c-.23437.01562-.65625 0-.92187-.10938-.25-.07812-.60938-.29687-.60938-1.39062v-4.3125c0-1.17188-.15625-2.625-3.45312-2.625-2.75 0-4.46875 1.09375-4.46875 2.29687 0 .82813 1.20312 1.1875 1.67187 1.1875.42188 0 .625-.29687.79688-.76562.51562-1.59375 1.14062-1.875 1.65625-1.875.53125 0 1.0625.32812 1.0625 1.40625v.98437c-.65625.46875-2.21875.90625-3.4375 1.3125C1.39063-4.3125.89063-3.57812.89063-2.51562M3.75-2.8125c0-.875.3125-1.3125.875-1.625.57813-.3125 1.20313-.57812 1.67188-.78125v2.70313C6.25-1.5 5.67188-1.23437 5.15625-1.23437 4.42188-1.23437 3.75-1.8125 3.75-2.8125m0 0"/><path id="j" d="M.45313 0h5.26562v-.71875C4.64063-.78125 4.51563-.85937 4.51563-1.625V-13.75l-.15625-.125-3.76563.5v.67188l.64063.10937c.29687.04688.4375.21875.4375.96875v10c0 .76563-.14063.84375-1.21875.90625Zm0 0"/><path id="k" d="M.73438-4.57812c0 2.54687 1.10937 4.79687 4.57812 4.79687 2.23438 0 3.45313-1.07812 4.07813-2.73437l-.67188-.375c-.5625 1.07812-1.35937 1.67187-2.48437 1.67187-1.875 0-2.53125-1.53125-2.53125-3.5H8.5625c.67188 0 1-.17187 1-.78125 0-1.53125-.60937-3.89062-4.20312-3.89062-3.375 0-4.625 2.1875-4.625 4.8125m2.96875-1.03125c0-1.35938.35937-2.9375 1.57812-2.9375 1.125 0 1.32813 1.4375 1.32813 2.3125 0 .51562-.14063.625-.57813.625Zm0 0"/><path id="l" d="m.5625-8.1875.65625.10938c.29688.03125.40625.17187.40625.9375v4.54687c0 2.20313 1.35938 2.8125 2.71875 2.8125 1.59375 0 2.5625-.85937 3.3125-1.28125L7.82813 0h3.875v-.71875c-1.07813-.0625-1.1875-.14062-1.1875-.90625v-7.65625l-.17188-.10937-3.78125.53125v.67187l.65625.10938c.3125.03125.4375.17187.4375.9375v3.95312c0 .32813-.01562.78125-.125 1.0625-.1875.4375-.6875.875-1.5.875-1 0-1.57812-.57812-1.57812-2.03125v-6l-.14063-.10937-3.75.53125Zm0 0"/><path id="m" d="M.59375 0H6.25v-.71875C4.8125-.79687 4.625-.85937 4.625-1.625v-4.17187c0-.96875.17188-1.42188.625-1.42188.29688 0 .57813.15625 1 .39063.23438.17187.5.29687.85938.29687.375 0 .75-.20312.95312-.46875.20313-.28125.29688-.65625.29688-1.07812 0-.79688-.51563-1.3125-1.29688-1.3125-.76562 0-1.375.51562-2.46875 1.64062l-.25-1.64062-3.64062.53125v.67187l.65625.10938c.29687.03125.45312.17187.45312.9375V-1.625c0 .76563-.14062.84375-1.21875.90625Zm0 0"/><path id="n" d="M.73438-4.42187c0 2.73437 1.42187 4.64062 3.78125 4.64062.70312 0 1.6875-.35937 2.70312-1.15625V0H11.25v-.71875c-1.07812-.0625-1.21875-.14062-1.21875-.90625V-13.75l-.125-.125-3.79687.5v.67188l.65625.10937c.29687.04688.45312.21875.45312.96875v2.46875c-.40625-.1875-.95312-.23437-1.57812-.23437-1.40625 0-2.65625.40625-3.51563 1.20312C1.25-7.35937.73438-6.10937.73438-4.42187m2.96875-.375c0-2.75 1.03125-3.75 2.09375-3.75.71875 0 1.09375.39062 1.26562.76562.1875.28125.15625.67188.15625 1.07813v3.85937c0 .75-.26562 1.625-1.46875 1.625-1.21875 0-2.04687-1.1875-2.04687-3.57812m0 0"/><path id="p" d="M.89063-4.21875 1.1875-.875C2.15625 0 4 .28125 5.23438.28125c3.75-.04687 4.84375-2.04687 4.84375-4 0-2.46875-1.8125-3.42187-3.53125-4.14062C5.3125-8.375 3.75-9.0625 3.75-10.46875c0-1.17187.82813-1.89062 1.9375-1.89062 1.20313 0 2.35938.82812 2.875 3.01562h.67188v-3.0625c-.96875-.59375-2.39063-.82812-3.51563-.82812-3.17187 0-4.65625 1.625-4.65625 3.84375 0 2.32812 2.0625 3.3125 3.71875 4.01562 1.70313.71875 2.48438 1.54688 2.48438 2.75C7.25-1.23437 6.375-.57812 5.15625-.57812 3.75-.57812 2.3125-1.875 1.59375-4.21875Zm0 0"/><path id="q" d="M1.40625-11.84375c0 .89063.64063 1.65625 1.70313 1.65625 1.03125 0 1.75-.76562 1.75-1.65625 0-.875-.67188-1.625-1.75-1.625-1.0625 0-1.70313.75-1.70313 1.625M.59375 0H5.875v-.71875c-1.07812-.0625-1.25-.14062-1.25-.90625v-7.65625l-.10937-.10937-3.8125.53125v.67187l.65625.10938c.29687.03125.45312.17187.45312.9375V-1.625c0 .76563-.14062.84375-1.21875.90625Zm0 0"/><path id="r" d="M.59375 1.79688c0 1.8125 1.95313 2.71875 4.625 2.71875.8125 0 2.17188-.15625 3.10938-.67188 1.03125-.54687 1.71875-1.51562 1.71875-2.875 0-2.25-1.71875-2.9375-3.70313-2.9375H4.625c-.92187 0-1.26562-.29687-1.26562-.64062 0-.42188.48437-.60938.73437-.67188.35938.03125.64063.01563.85938.01563 2.21875 0 4.20312-.79688 4.20312-3.03125 0-.54688-.21875-1.125-.45312-1.45313l1.23437-.21875.375-1.40625-.1875-.20312-2.35937.79687c-.625-.35937-1.65625-.60937-2.67188-.60937-3.35937 0-4.35937 1.73437-4.35937 3.1875 0 1.54687 1.15625 2.48437 2.29687 2.65625V-3.5c-1.21875.29688-2.01562.96875-2.01562 1.73438 0 .8125.92187 1.5625 1.73437 1.75v.03125C1.96875.20313.59375.53125.59375 1.79688m2.48438-.1875c0-.51563.25-.85938.5-1.03125.26562-.1875.84375-.28126 1.65625-.28126 1.59375 0 2.54687.35938 2.54687 1.5C7.78125 3.125 6.75 3.65626 5.5 3.65626c-1.26562 0-2.42187-.70312-2.42187-2.04687m.57812-7.875c0-1.59375.65625-2.28125 1.42188-2.28125.73437 0 1.40625.6875 1.40625 2.25 0 1.34375-.57813 2.17187-1.42188 2.17187-.79687 0-1.40625-.85937-1.40625-2.14062m0 0"/><path id="s" d="M.59375 0h5.01563v-.71875L5.25-.75c-.39062-.04687-.625-.10937-.625-.71875V-5.9375c0-.40625.07813-.82812.21875-1.09375.23438-.46875.73438-.9375 1.5-.9375.96875 0 1.45313.60938 1.5 1.71875v4.78125c0 .60938-.20312.67188-.59375.71875l-.40625.03125V0h5.04688v-.71875c-1.07813-.0625-1.23438-.14062-1.23438-.90625v-4.89062c-.03125-1.75-.875-2.875-2.8125-2.875-1.09375 0-1.98437.54687-3.21875 1.28125l-.25-1.28125-3.67187.53125v.67187l.65625.10938c.29687.03125.45312.17187.45312.9375V-1.625c0 .76563-.14062.84375-1.21875.90625Zm0 0"/><path id="o" d="M.59375-.73437c0 .53125.4375.95312 1.20313.95312 1.26562 0 1.98437-1.28125 2.76562-2.53125l.75-1.23437h.04688L5.6875-2.0625C6.04688-.57812 6.39063.21875 7.34375.21875 8.71875.21875 9.4375-1.1875 10-2.32812l-.48437-.26563C9.0625-1.75 8.54688-.75 8.01563-.75c-.35938 0-.48438-.42187-.90625-2.09375l-.59375-2.45312c.67187-1.1875 1.625-2.6875 2.15625-2.6875.5625 0 .57812.29687 1.14062.29687.42188 0 .79688-.39062.79688-.89062 0-.57813-.4375-.8125-.95313-.8125-1 0-1.82812.89062-2.48437 1.95312l-.82813 1.26563H6.3125L5.54688-9.3125l-.09375-.07812-3.07813.9375L2.40625-8 3.875-8.10937c.3125 0 .4375.14062.625.9375l.65625 2.71875-.51562.89062c-.79688 1.375-1.5 2.34375-1.95313 2.34375-.53125 0-.67187-.45312-1.28125-.45312-.46875 0-.8125.48437-.8125.9375m0 0"/><path id="t" d="M.5-1.90625c0 .79688 1.29688 2.125 3.9375 2.125 2.70313 0 4.42188-1.375 4.42188-3.76562 0-2.5-2.15625-3.23438-3.1875-3.34375v-.07813c1.01562-.15625 2.625-.92187 2.625-2.76562 0-2.0625-1.60938-2.98438-3.625-2.98438C2.20313-12.71875 1-11.28125 1-10.48437c0 .57812.65625.89062.90625.89062s.39063-.14062.46875-.375C2.78125-11.25 3.48438-12.0625 4.53125-12.0625c1.48438 0 1.85938 1.29688 1.85938 2.34375 0 1.125-.40625 2.53125-1.98438 2.53125-.90625 0-1.42187-.17187-1.64062-.17187-.23438 0-.34375.17187-.34375.51562 0 .3125.10937.51563.34375.51563.21875 0 .73437-.1875 1.64062-.1875 1.57813 0 2.48438 1.4375 2.48438 3.07812 0 2.21875-1.09375 3-2.4375 3-1.23438 0-2.04688-.92187-2.40625-1.96875C1.9375-2.76562 1.75-2.95312 1.5-2.95312c-.34375 0-1 .35937-1 1.04687m0 0"/><path id="u" d="M1.59375-4.73437h10.29688v-1.09375H1.59375Zm0 0"/><path id="v" d="M2.03125 0H8.1875v-.53125L6.60938-.67187c-.40625-.04688-.625-.1875-.625-.92188V-12.625l-.09375-.09375-3.85938.65625v.45313l1.75.21875c.3125.04687.4375.1875.4375.71875v9.07812c0 .73438-.17187.875-.60937.92188l-1.57813.14062Zm0 0"/><path id="w" d="M1.59375-4.73437H6.1875v4.59375h1.09375v-4.59375h4.60938v-1.09375H7.28125v-4.60938H6.1875v4.60938H1.59375Zm0 0"/><path id="x" d="m.35938-3.75.15625.40625h5.09375v1.90625c0 .64063-.1875.73438-.65625.78125l-1.1875.125V0h4.9375v-.53125l-.84375-.10937c-.4375-.0625-.54688-.15626-.54688-.79688v-1.90625h1.90625v-.875H7.3125V-12.5h-1.375c-1.75 2.59375-3.875 5.82813-5.57812 8.75m1.35937-.46875C2.82813-6.25 4.1875-8.42187 5.60938-10.6875v6.46875Zm0 0"/><path id="y" d="M-.39062 3.4375c.01562.625.82812 1.07813 1.70312 1.07813C3.1875 4.51563 3.98438 3 4.75-.57812l1.73438-7.875h2.375l.17187-.71875H6.60938l.51562-2.10938c.35938-1.42187.71875-1.95312 1.23438-1.95312.5 0 .84375.42187 1.25 1.3125.10937.17187.25.3125.51562.3125.39063 0 .92188-.32813.92188-.8125 0-.79688-1.01563-1.45313-2.125-1.45313-2.21875 0-3.125 1.54688-3.84375 4.01563l-.20313.6875H3.26563l-.21875.71875h1.67187L2.54688 2.5625c-.21875 1.15625-.42188 1.28125-.59375 1.28125-.20313 0-.5-.14062-1-.92187-.14063-.17188-.25-.40625-.5-.40625-.40625 0-.84375.45312-.84375.92187m0 0"/><path id="A" d="M1.60938-5.28125c0 4.21875.95312 8.85938 4.92187 9.03125v-.5625c-1.32812-.26562-3.42187-1.90625-3.42187-8.46875 0-6.5 1.98437-8.15625 3.42187-8.45312v-.5625C2.5625-14.14062 1.60938-9.5 1.60938-5.28125m0 0"/><path id="B" d="M1.10938 3.1875V3.75c3.96875-.17187 4.92187-4.8125 4.92187-9.03125s-.95312-8.85937-4.92187-9.01562v.5625c1.4375.29687 3.42187 1.95312 3.42187 8.45312 0 6.5625-2.07812 8.20313-3.42187 8.46875m0 0"/><path id="J" d="M.75-1.90625c0 .84375 1.3125 2.125 3.75 2.125 3.07813 0 4.48438-1.875 4.48438-4.23437 0-2.64063-1.64063-3.96875-3.875-3.96875-1.03125 0-2.15625.45312-2.76563 1l.42188-3.54688c.0625-.48437.1875-.53125.53125-.53125h4.67187l.45313-1.28125L8.32813-12.5H2.0625l-.17187.17188-.375 6.25.45312.25C2.75-6.73437 3.5-7.17187 4.51563-7.17187c1.20312 0 2.51562.875 2.51562 3.34375C7.03125-1.89062 6.25-.4375 4.625-.4375c-1.32812 0-1.98437-.9375-2.35937-2.01562-.09375-.28125-.28125-.45313-.53125-.45313-.375 0-.98438.375-.98438 1m0 0"/><path id="M" d="M.78125-6.25C.78125-2.51562 1.875.21875 4.95313.21875c3.09375 0 4.20312-2.73437 4.20312-6.46875 0-3.75-1.10937-6.46875-4.20312-6.46875C1.875-12.71875.78125-10 .78125-6.25m1.89063 0c0-3.04687.51562-5.8125 2.28125-5.8125C6.73438-12.0625 7.25-9.29687 7.25-6.25S6.73438-.4375 4.95313-.4375c-1.76563 0-2.28125-2.76562-2.28125-5.8125m0 0"/><path id="z" d="M.57813-.70312c0 .0625.15624.1875.34375.1875.10937 0 .3125-.03126.34375-.10938l2.34375-6c.07812-.1875.09375-.29687.09375-.35937 0-.28125-.42188-.39063-.82813-.39063-.39062 0-1.01562.15625-1.0625.40625Zm0 0"/><clipPath id="a"><path d="M0 56h222v227.6914H0Zm0 0"/></clipPath><clipPath id="b"><path d="M221 .03516h566.85938V57H221Zm0 0"/></clipPath><clipPath id="c"><path d="M220 .03516h567.85938V58H220Zm0 0"/></clipPath><clipPath id="d"><path d="M221 56h566.85938v227.6914H221Zm0 0"/></clipPath><clipPath id="e"><path d="M220 56h567.85938v227.6914H220Zm0 0"/></clipPath><clipPath id="f"><path d="M0 .03516h222V57H0Zm0 0"/></clipPath><clipPath id="g"><path d="M0 .03516h222V58H0Zm0 0"/></clipPath><clipPath id="C"><path d="M0 56h787.85938v2H0Zm0 0"/></clipPath><clipPath id="D"><path d="M0 113h787.85938v1H0Zm0 0"/></clipPath><clipPath id="E"><path d="M0 169h787.85938v2H0Zm0 0"/></clipPath><clipPath id="F"><path d="M0 226h787.85938v2H0Zm0 0"/></clipPath><clipPath id="G"><path d="M0 283h787.85938v.6914H0Zm0 0"/></clipPath><clipPath id="H"><path d="M0 .03516h787.85938V283.6914H0Zm0 0"/></clipPath><clipPath id="I"><path d="M220 .03516h2V283.6914h-2Zm0 0"/></clipPath><clipPath id="K"><path d="M220 56h567.85938v58H220Zm0 0"/></clipPath><clipPath id="L"><path d="M220 113h567.85938v58H220Zm0 0"/></clipPath><clipPath id="N"><path d="M220 169h567.85938v59H220Zm0 0"/></clipPath><clipPath id="O"><path d="M220 226h567.85938v57.6914H220Zm0 0"/></clipPath><clipPath id="P"><path d="M419 226h1v57.6914h-1Zm0 0"/></clipPath><clipPath id="Q"><path d="M589 226h1v57.6914h-1Zm0 0"/></clipPath></defs><g clip-path="url(#a)"><path fill="#FFF" stroke="#000" stroke-miterlimit="10" stroke-width=".39821" d="M.19922 56.8867V283.496h220.94525V56.8867Zm0 0"/></g><g clip-path="url(#b)"><path fill="#FFF" d="M221.14453 56.88672V.23438h566.52344v56.65234Zm0 0"/></g><g clip-path="url(#c)"><path fill="none" stroke="#000" stroke-miterlimit="10" stroke-width=".39821" d="M221.14447 56.8867V.23438h566.52326V56.8867Zm0 0"/></g><g clip-path="url(#d)"><path fill="#FFF" d="M221.14453 56.88672v226.60937h566.52344V56.88672Zm0 0"/></g><g clip-path="url(#e)"><path fill="none" stroke="#000" stroke-miterlimit="10" stroke-width=".39821" d="M221.14447 56.8867V283.496h566.52326V56.8867Zm0 0"/></g><g clip-path="url(#f)"><path fill="#FFF" d="M.19922.23438v56.65234h220.94531V.23438Zm0 0"/></g><g clip-path="url(#g)"><path fill="none" stroke="#000" stroke-miterlimit="10" stroke-width=".39821" d="M.19922.23438V56.8867h220.94525V.23438Zm0 0"/></g><use xlink:href="#h" x="58.87536" y="35.38866"/><use xlink:href="#i" x="69.80642" y="35.38866"/><use xlink:href="#j" x="80.17998" y="35.38866"/><use xlink:href="#k" x="86.15324" y="35.38866"/><use xlink:href="#l" x="96.02903" y="35.38866"/><use xlink:href="#m" x="107.99545" y="35.38866"/><use xlink:href="#n" x="123.04806" y="35.38866"/><use xlink:href="#k" x="134.53663" y="35.38866"/><use xlink:href="#o" x="151.0546" y="35.38866"/><use xlink:href="#p" x="64.02163" y="89.89019"/><use xlink:href="#q" x="74.49475" y="89.89019"/><use xlink:href="#r" x="80.60738" y="89.89019"/><use xlink:href="#s" x="90.76192" y="89.89019"/><use xlink:href="#k" x="102.88763" y="89.89019"/><use xlink:href="#n" x="119.39374" y="89.89019"/><use xlink:href="#k" x="130.8823" y="89.89019"/><use xlink:href="#t" x="147.40125" y="89.89019"/><use xlink:href="#p" x="47.60153" y="146.54216"/><use xlink:href="#q" x="58.07464" y="146.54216"/><use xlink:href="#r" x="64.18727" y="146.54216"/><use xlink:href="#s" x="74.34181" y="146.54216"/><use xlink:href="#k" x="86.46752" y="146.54216"/><use xlink:href="#n" x="102.97363" y="146.54216"/><use xlink:href="#k" x="114.46219" y="146.54216"/><use xlink:href="#o" x="130.98114" y="146.54216"/><use xlink:href="#u" x="146.59125" y="146.54216"/><use xlink:href="#v" x="163.81415" y="146.54216"/><use xlink:href="#p" x="47.60153" y="203.19413"/><use xlink:href="#q" x="58.07464" y="203.19413"/><use xlink:href="#r" x="64.18727" y="203.19413"/><use xlink:href="#s" x="74.34181" y="203.19413"/><use xlink:href="#k" x="86.46752" y="203.19413"/><use xlink:href="#n" x="102.97363" y="203.19413"/><use xlink:href="#k" x="114.46219" y="203.19413"/><use xlink:href="#o" x="130.98114" y="203.19413"/><use xlink:href="#w" x="146.59125" y="203.19413"/><use xlink:href="#x" x="163.81415" y="203.19413"/><use xlink:href="#p" x="47.03993" y="260.57558"/><use xlink:href="#q" x="57.51304" y="260.57558"/><use xlink:href="#r" x="63.62568" y="260.57558"/><use xlink:href="#s" x="73.78022" y="260.57558"/><use xlink:href="#k" x="85.90593" y="260.57558"/><use xlink:href="#n" x="102.41203" y="260.57558"/><use xlink:href="#k" x="113.9006" y="260.57558"/><use xlink:href="#y" x="130.41755" y="260.57558"/><use xlink:href="#z" x="142.10508" y="252.61134"/><use xlink:href="#A" x="147.16142" y="260.57558"/><use xlink:href="#o" x="154.80719" y="260.57558"/><use xlink:href="#B" x="166.65415" y="260.57558"/><g clip-path="url(#C)"><path fill="none" stroke="#000" stroke-miterlimit="10" stroke-width=".39821" d="M.19922 56.8867h787.46851"/></g><g clip-path="url(#D)"><path fill="none" stroke="#000" stroke-miterlimit="10" stroke-width=".39821" d="M.19922 113.53903h787.46851"/></g><g clip-path="url(#E)"><path fill="none" stroke="#000" stroke-miterlimit="10" stroke-width=".39821" d="M.19922 170.19136h787.46851"/></g><g clip-path="url(#F)"><path fill="none" stroke="#000" stroke-miterlimit="10" stroke-width=".39821" d="M.19922 226.84368h787.46851"/></g><g clip-path="url(#G)"><path fill="none" stroke="#000" stroke-miterlimit="10" stroke-width=".39821" d="M.19922 283.496h787.46851"/></g><g clip-path="url(#H)"><path fill="none" stroke="#000" stroke-miterlimit="10" stroke-width=".39821" d="M.19922.23438V283.496h787.46851V.23438Zm0 0"/></g><g clip-path="url(#I)"><path fill="none" stroke="#000" stroke-miterlimit="10" stroke-width=".39821" d="M221.14447.23438V283.496"/></g><use xlink:href="#u" x="237.7788" y="34.70216"/><use xlink:href="#J" x="251.23854" y="34.70216"/><use xlink:href="#u" x="407.73471" y="34.81108"/><use xlink:href="#x" x="421.19445" y="34.81108"/><use xlink:href="#v" x="584.42075" y="34.921"/><use xlink:href="#x" x="754.37566" y="34.81108"/><g clip-path="url(#K)"><path fill="none" stroke="#000" stroke-miterlimit="10" stroke-width=".39821" d="M221.14447 56.8867v56.65233h566.52326V56.8867Zm0 0"/></g><use xlink:href="#w" x="327.71466" y="90.4278"/><use xlink:href="#w" x="497.67057" y="90.4278"/><use xlink:href="#w" x="667.62649" y="90.4278"/><g clip-path="url(#L)"><path fill="none" stroke="#000" stroke-miterlimit="10" stroke-width=".39821" d="M221.14447 113.53903v56.65233h566.52326v-56.65233Zm0 0"/></g><use xlink:href="#u" x="327.71466" y="144.78044"/><use xlink:href="#u" x="497.67057" y="144.78044"/><path fill="none" stroke="#000" stroke-dasharray="2.9866780424 2.9866780424" stroke-miterlimit="10" stroke-width=".39821" d="M589.38654 113.53903v56.65233"/><use xlink:href="#M" x="584.42075" y="148.11502"/><use xlink:href="#w" x="667.62649" y="147.07977"/><g clip-path="url(#N)"><path fill="none" stroke="#000" stroke-miterlimit="10" stroke-width=".39821" d="M221.14447 170.19136v56.65232h566.52326v-56.65232Zm0 0"/></g><use xlink:href="#u" x="327.71466" y="201.43141"/><path fill="none" stroke="#000" stroke-dasharray="2.9866780424 2.9866780424" stroke-miterlimit="10" stroke-width=".39821" d="M419.42566 170.19136v56.65232"/><use xlink:href="#M" x="414.46483" y="204.76699"/><use xlink:href="#w" x="497.67057" y="203.73174"/><use xlink:href="#w" x="667.62649" y="203.73174"/><g clip-path="url(#O)"><path fill="none" stroke="#000" stroke-miterlimit="10" stroke-width=".39821" d="M221.14447 226.84368v56.65233h566.52326v-56.65233Zm0 0"/></g><use xlink:href="#w" x="327.71466" y="260.38371"/><g clip-path="url(#P)"><path fill="none" stroke="#000" stroke-dasharray="2.9866780424 2.9866780424" stroke-miterlimit="10" stroke-width=".39821" d="M419.42566 226.84368v56.65233"/></g><use xlink:href="#M" x="414.46483" y="261.41896"/><use xlink:href="#u" x="497.67057" y="258.08338"/><g clip-path="url(#Q)"><path fill="none" stroke="#000" stroke-dasharray="2.9866780424 2.9866780424" stroke-miterlimit="10" stroke-width=".39821" d="M589.38654 226.84368v56.65233"/></g><use xlink:href="#M" x="584.42075" y="261.41896"/><use xlink:href="#w" x="667.62649" y="260.38371"/></svg>