<svg xmlns="http://www.w3.org/2000/svg" xmlns:xlink="http://www.w3.org/1999/xlink" width="512.719pt" height="110.971pt" viewBox="0 0 512.719 110.971"><defs><path id="h" d="M-.125-7.95312c.625.01562.76563.09375.9375.625L3.3125 0h1.57813l1.46875-4.25c.46875-1.32812.90625-2.5 1.09375-2.98437.25-.57813.34375-.67188 1.04687-.71875v-.45313H5.625v.45313l.70313.0625c.25.03125.28125.14062.20312.40625-.10937.39062-.39062 1.40625-.76562 2.53125-.25.73437-.78125 2.51562-1.01563 3.14062h-.0625L2.82813-7.45312c-.07813-.25-.0625-.40625.21875-.4375l.59375-.0625v-.45313H-.125Zm0 0"/><path id="i" d="M.59375-1.625c0 .90625.59375 1.76563 1.84375 1.76563.79688 0 1.35938-.40625 1.78125-.70313.17188.375.39063.70313.98438.70313.64062 0 1.40625-.20313 1.82812-.35938L7.01563-.625c-.15625.01563-.4375 0-.625-.0625C6.23438-.73437 6-.875 6-1.59375v-2.8125c0-.75-.10937-1.70312-2.29687-1.70312-1.82813 0-2.96875.71875-2.96875 1.5 0 .53125.79687.76562 1.10937.76562.28125 0 .40625-.1875.53125-.48437.34375-1.04688.75-1.21875 1.09375-1.21875.35938 0 .70313.20312.70313.90625V-4c-.4375.29688-1.46875.57813-2.26563.85938-.98437.32812-1.3125.8125-1.3125 1.51562m1.89063-.20312c0-.5625.20312-.84375.57812-1.0625.39063-.20313.8125-.375 1.10938-.5V-1.625c-.03125.65625-.40625.82813-.75.82813-.48438 0-.9375-.375-.9375-1.03125m0 0"/><path id="j" d="M.29688 0h3.5v-.46875C3.07813-.5 3-.5625 3-1.0625v-7.875l-.10937-.07812-2.5.32812v.4375l.42187.0625c.20313.03125.29688.14063.29688.625v6.5c0 .5-.09376.5625-.8125.59375Zm0 0"/><path id="k" d="M.48438-2.96875c0 1.65625.75 3.10938 3.04687 3.10938C5 .14063 5.8125-.5625 6.23438-1.625l-.45313-.25c-.375.70313-.89062 1.07813-1.65625 1.07813-1.23437 0-1.67187-.98438-1.67187-2.26563h3.21875c.45312 0 .67187-.125.67187-.51562 0-.98438-.40625-2.53125-2.79687-2.53125-2.21875 0-3.0625 1.42187-3.0625 3.14062m1.96875-.67187c0-.89063.23437-1.90625 1.04687-1.90625.75 0 .89063.92187.89063 1.5 0 .32812-.09375.40625-.39063.40625Zm0 0"/><path id="l" d="m.375-5.3125.4375.0625c.1875.01563.26563.10938.26563.60938v2.95312c0 1.42188.90625 1.82813 1.79687 1.82813 1.0625 0 1.70313-.54688 2.20313-.82813L5.1875 0h2.57813v-.46875C7.04688-.5 6.96875-.5625 6.96875-1.0625v-4.96875l-.10937-.07812-2.5.35937v.4375l.4375.0625c.1875.01563.28125.10938.28125.60938v2.57812c0 .20313-.01563.5-.09375.67188C4.875-1.09375 4.54688-.8125 4-.8125c-.65625 0-1.04687-.375-1.04687-1.32812v-3.89063l-.09375-.07812L.375-5.75Zm0 0"/><path id="m" d="M.39063 0h3.75v-.46875C3.1875-.51562 3.0625-.5625 3.0625-1.0625v-2.70312c0-.64063.125-.9375.42188-.9375.20312 0 .39062.10937.65625.26562.15625.10938.32812.1875.57812.1875s.5-.125.625-.29687c.14063-.1875.20313-.4375.20313-.70313 0-.51562-.34375-.85937-.85938-.85937-.51562 0-.90625.34375-1.64062 1.07812L2.875-6.10937.46875-5.75v.4375l.42188.0625c.20312.01563.3125.10938.3125.60938v3.57812c0 .5-.09376.5625-.8125.59375Zm0 0"/><path id="n" d="M.48438-2.875C.48438-1.09375 1.42188.14063 3 .14063c.45313 0 1.125-.23438 1.79688-.75V0h2.65625v-.46875C6.75-.5 6.65625-.5625 6.65625-1.0625v-7.875l-.07812-.07812-2.53125.32812v.4375l.4375.0625c.20312.03125.3125.14063.3125.625v1.60938c-.28125-.10938-.64063-.15625-1.0625-.15625-.92188 0-1.75.28125-2.32813.79687C.82813-4.78125.48438-3.96875.48438-2.875m1.96875-.25c0-1.78125.6875-2.42187 1.39062-2.42187.46875 0 .71875.25.84375.48437.125.1875.10938.4375.10938.70313v2.51562c0 .48438-.1875 1.04688-.98438 1.04688-.79687 0-1.35937-.76563-1.35937-2.32813m0 0"/><path id="p" d="M.59375-2.75.79688-.5625c.625.5625 1.85937.75 2.67187.75C5.95313.15625 6.6875-1.15625 6.6875-2.42187c0-1.60938-1.20312-2.21875-2.34375-2.6875-.8125-.34375-1.85937-.78125-1.85937-1.70313 0-.75.54687-1.21875 1.29687-1.21875.78125 0 1.54688.54688 1.89063 1.96875H6.125v-2c-.64062-.39062-1.57812-.54687-2.32812-.54687-2.10938 0-3.09375 1.0625-3.09375 2.5 0 1.51562 1.375 2.15625 2.46875 2.60937 1.125.46875 1.64062 1.01563 1.64062 1.79688 0 .90625-.59375 1.32812-1.39062 1.32812-.9375 0-1.89063-.84375-2.35938-2.375Zm0 0"/><path id="q" d="M.9375-7.70312c0 .59375.42188 1.07812 1.125 1.07812.6875 0 1.15625-.48437 1.15625-1.07812 0-.5625-.45312-1.0625-1.15625-1.0625-.70312 0-1.125.5-1.125 1.0625M.39063 0h3.5v-.46875C3.1875-.5 3.0625-.5625 3.0625-1.0625v-4.96875L3-6.10937.46875-5.75v.4375l.42188.0625c.20312.01563.3125.10938.3125.60938v3.57812c0 .5-.09376.5625-.8125.59375Zm0 0"/><path id="r" d="M.39063 1.17188c0 1.17187 1.29687 1.76562 3.0625 1.76562.54687 0 1.4375-.10937 2.0625-.4375.6875-.35937 1.15625-.98437 1.15625-1.85937 0-1.46875-1.15625-1.92188-2.45313-1.92188H3.0625c-.60937 0-.82812-.1875-.82812-.40625 0-.28125.3125-.40625.48437-.45312.23438.03125.42188.01562.5625.01562 1.46875 0 2.79688-.51562 2.79688-1.96875 0-.35937-.15625-.73437-.3125-.9375l.82812-.14062.25-.92188-.125-.125-1.5625.51563c-.42187-.23438-1.10937-.40625-1.78125-.40625-2.21875 0-2.89062 1.125-2.89062 2.07812 0 1 .76562 1.60938 1.51562 1.73438v.01562c-.79687.20313-1.32812.64063-1.32812 1.125 0 .53125.60937 1.03125 1.15625 1.14063v.03125C1.3125.125.39063.34375.39063 1.17188m1.65625-.125c0-.32813.15625-.5625.32812-.67188.17188-.10937.5625-.1875 1.09375-.1875 1.0625 0 1.6875.23438 1.6875.98438 0 .85937-.6875 1.20312-1.51562 1.20312-.82813 0-1.59375-.45312-1.59375-1.32812m.375-5.125c0-1.03125.4375-1.46875.9375-1.46875s.9375.4375.9375 1.45312c0 .875-.375 1.42188-.9375 1.42188-.53125 0-.9375-.5625-.9375-1.40625m0 0"/><path id="s" d="M.39063 0h3.32812v-.46875l-.23437-.01562C3.21875-.51562 3.0625-.5625 3.0625-.95312v-2.90625c0-.26563.04688-.54688.14063-.70313.15625-.3125.5-.60937 1.01562-.60937.625 0 .95313.39062.98438 1.10937v3.10938c0 .39062-.14063.4375-.39063.46875l-.26562.01562V0H7.875v-.46875C7.17188-.5 7.0625-.5625 7.0625-1.0625v-3.17187c-.01562-1.14063-.57812-1.875-1.85937-1.875-.73438 0-1.32813.35937-2.14063.84375l-.15625-.84375L.46875-5.75v.4375l.42188.0625c.20312.01563.3125.10938.3125.60938v3.57812c0 .5-.09376.5625-.8125.59375Zm0 0"/><path id="x" d="M.46875-5.35937h.71875v3.9375c0 1.10937.82813 1.5625 1.53125 1.5625C3.23438.14063 4-.07812 4.70313-.5L4.5625-.89062c-.17187.07812-.42187.125-.6875.125-.48437 0-.8125-.34375-.8125-1.125v-3.46875h1.29688v-.60938H3.0625v-1.51562h-.71875L1.25-5.96875H.46875Zm0 0"/><path id="y" d="M.48438-2.96875c0 1.9375.95312 3.10938 3.21875 3.10938 2.25 0 3.21875-1.17188 3.21875-3.10938 0-1.95312-.96875-3.14062-3.21875-3.14062-2.26563 0-3.21875 1.1875-3.21875 3.14062m1.96875 0c0-1.64062.35937-2.57812 1.25-2.57812.875 0 1.23437.9375 1.23437 2.57812 0 1.625-.35937 2.5625-1.23437 2.5625-.89063 0-1.25-.9375-1.25-2.5625m0 0"/><path id="z" d="M.54688-2.25.6875-.4375c.46875.42188 1.40625.57813 2.10938.57813C4.3125.14063 5.34375-.5 5.34375-1.82812c0-1.04688-.6875-1.54688-1.8125-1.96875-.73437-.26563-1.26562-.54688-1.26562-1.04688 0-.375.28125-.70312.79687-.70312.64063 0 1.15625.5625 1.40625 1.48437h.45313v-1.60937c-.51563-.3125-1.21875-.4375-1.85938-.4375-1.51562 0-2.45312.70312-2.45312 1.9375 0 .89062.71875 1.45312 1.8125 1.85937.64062.21875 1.26562.57813 1.26562 1.15625 0 .46875-.32812.75-.85937.75-.82813 0-1.5-.84375-1.8125-1.84375Zm0 0"/><path id="o" d="M.39063-.48437c0 .35937.28125.625.78125.625C2 .14063 2.45313-.6875 2.96875-1.5l.48438-.79687h.03125l.21875.95312C3.9375-.375 4.15625.14063 4.78125.14063 5.67188.14063 6.125-.78125 6.5-1.51562l-.3125-.17188c-.29687.54688-.64062 1.20313-.96875 1.20313-.23437 0-.32812-.28125-.59375-1.35938L4.23438-3.4375c.4375-.78125 1.0625-1.75 1.40625-1.75C6-5.1875 6.01563-5 6.375-5c.28125 0 .51563-.25.51563-.57812 0-.375-.28125-.53125-.60938-.53125-.65625 0-1.20312.57812-1.625 1.26562l-.53125.82813h-.03125L3.60938-6.0625l-.0625-.04687-2 .60937.01562.29688.95313-.0625c.20312 0 .29687.09375.40625.60937l.42187 1.76563-.32812.57812C2.5-1.42187 2.04688-.79687 1.75-.79687c-.35937 0-.4375-.29688-.82812-.29688-.3125 0-.53125.3125-.53125.60938m0 0"/><path id="t" d="M-.26562 2.23438c.01562.40625.54687.70312 1.125.70312 1.20312 0 1.73437-.98437 2.23437-3.3125l1.125-5.125H5.75l.125-.46875H4.29688L4.625-7.32812c.23438-.92188.46875-1.28125.8125-1.28125.3125 0 .54688.28125.8125.85937.0625.10938.15625.20313.32813.20313.25 0 .60937-.21875.60937-.53125 0-.51563-.67187-.9375-1.39062-.9375-1.4375 0-2.03125 1-2.5 2.60937l-.125.4375H2.125L1.98438-5.5H3.0625L1.65625 1.67188c-.14062.75-.26562.82812-.39062.82812S.9375 2.40625.625 1.90625C.53125 1.78125.45313 1.625.29688 1.625c-.26563 0-.5625.29688-.5625.60938m0 0"/><path id="v" d="M1.04688-3.42187c0 2.73437.625 5.75 3.20312 5.85937v-.375C3.375 1.90625 2.01563.82813 2.01563-3.42187c0-4.23438 1.29687-5.3125 2.23437-5.5v-.375c-2.57812.10937-3.20312 3.125-3.20312 5.875m0 0"/><path id="w" d="M.71875 2.0625v.375c2.57813-.10937 3.20313-3.125 3.20313-5.85937 0-2.75-.625-5.76563-3.20313-5.875v.375c.9375.1875 2.23438 1.26562 2.23438 5.5 0 4.25-1.35938 5.32812-2.23438 5.48437m0 0"/><path id="F" d="M1.03125-3.07812h6.6875v-.71875h-6.6875Zm0 0"/><path id="G" d="M.53125-3.75c0 2.625.95313 3.89063 2.78125 3.89063 1.79688 0 2.75-1.07813 2.75-2.73438s-1-2.54687-2.3125-2.54687c-.95312 0-1.67187.65625-1.98437 1.04687 0-2.67187.75-3.75 1.84375-3.75.5625 0 .95312.46875 1.14062 1.17188.03125.14062.125.25.3125.25.26563 0 .64063-.21875.64063-.54688 0-.5-.59375-1.29687-2.0625-1.29687C1.71875-8.26562.53125-6.78125.53125-3.75m1.23438.875c0-.73437.54687-1.64062 1.57812-1.64062.75 0 1.51563.70312 1.51563 2.09375 0 1.28125-.5 2.14062-1.51563 2.14062-1.0625 0-1.57812-1.125-1.57812-2.59375m0 0"/><path id="H" d="m.23438-2.4375.10937.26563h3.29688V-.9375c0 .42188-.125.48438-.42188.51563l-.78125.07812V0h3.21875v-.34375l-.54687-.0625C4.82813-.45312 4.75-.51562 4.75-.9375v-1.23437h1.23438V-2.75H4.75v-5.375h-.89062C2.71875-6.4375 1.34375-4.32812.23438-2.4375m.875-.3125c.73437-1.3125 1.60937-2.71875 2.53125-4.20312V-2.75Zm0 0"/><path id="J" d="M1.03125-3.07812h3v2.98437h.70313v-2.98437h2.98437v-.71875H4.73438v-2.98438h-.70313v2.98438h-3Zm0 0"/><path id="K" d="M.5-4.0625C.5-1.625 1.21875.14063 3.21875.14063c2.01563 0 2.73438-1.76563 2.73438-4.20313s-.71875-4.20312-2.73438-4.20312C1.21875-8.26562.5-6.5.5-4.0625m1.23438 0c0-1.98437.32812-3.78125 1.48437-3.78125S4.70313-6.04687 4.70313-4.0625c0 1.98438-.32813 3.78125-1.48438 3.78125S1.73438-2.07812 1.73438-4.0625m0 0"/><path id="u" d="M.375-.125c0 .04688.10938.125.21875.125.07813 0 .21875-.01562.23438-.07812l1.51562-3.89063c.0625-.125.0625-.20312.0625-.23437 0-.1875-.28125-.25-.54687-.25-.25 0-.65625.09375-.6875.25Zm0 0"/><path id="M" d="M-.20312 1.71875c.01562.3125.42187.54688.85937.54688.9375 0 1.32813-.76563 1.71875-2.54688l.875-3.95312h1.17188l.09375-.35938H3.29688l.26562-1.04687c.1875-.70313.35938-.98438.625-.98438.23438 0 .40625.21875.625.65625.04688.09375.10938.17188.25.17188.1875 0 .46875-.17188.46875-.40625 0-.40625-.51562-.73438-1.07812-.73438-1.09375 0-1.5625.78125-1.92188 2.01563l-.09375.32812H1.625l-.10937.35938h.84375L1.28125 1.28125c-.10937.57813-.21875.64063-.3125.64063s-.23437-.07813-.48437-.45313C.40625 1.375.34375 1.25.23438 1.25c-.21875 0-.4375.23438-.4375.46875m0 0"/><path id="N" d="M.8125-2.64062c0 2.10937.46875 4.4375 2.45313 4.51562v-.28125c-.67188-.125-1.71875-.95312-1.71875-4.23437 0-3.25 1-4.07813 1.71875-4.23438v-.26562C1.28125-7.0625.8125-4.75.8125-2.64062m0 0"/><path id="O" d="M.79688-2.375H5.9375v-.54687H.79688Zm0 0"/><path id="P" d="M.40625-2.89062c0 2.03125.73438 3 2.14063 3 1.39062 0 2.125-.84375 2.125-2.10938s-.78125-1.95312-1.78125-1.95312c-.73438 0-1.28125.5-1.53125.8125 0-2.0625.57812-2.89063 1.42187-2.89063.42188 0 .73438.35938.875.89063.03125.10937.09375.20312.23438.20312.20312 0 .5-.17187.5-.42187 0-.39063-.45313-1-1.57813-1-1.48437 0-2.40625 1.14062-2.40625 3.46875m.95313.6875c0-.57813.42187-1.26563 1.20312-1.26563.59375 0 1.17188.53125 1.17188 1.60938 0 .98437-.375 1.64062-1.17188 1.64062-.8125 0-1.20312-.85937-1.20312-1.98437m0 0"/><path id="Q" d="M.5625 1.59375V1.875c1.96875-.07812 2.45313-2.40625 2.45313-4.51562s-.48438-4.42188-2.45313-4.5v.26562c.71875.15625 1.70313.98438 1.70313 4.23438 0 3.28125-1.04688 4.10937-1.70313 4.23437m0 0"/><path id="R" d="m.17188-1.875.09375.20313H2.8125v.95312c0 .32813-.10937.375-.32812.39063l-.60938.0625V0h2.46875v-.26562L3.9375-.3125c-.21875-.03125-.28125-.07812-.28125-.40625v-.95312h.95313v-.4375h-.95313V-6.25h-.6875c-.875 1.29688-1.9375 2.92188-2.79687 4.375m.6875-.23437C1.40625-3.125 2.09375-4.20312 2.8125-5.34375v3.23438Zm0 0"/><clipPath id="a"><path d="M0 37h144v73.92578H0Zm0 0"/></clipPath><clipPath id="b"><path d="M0 36h145v74.92578H0Zm0 0"/></clipPath><clipPath id="c"><path d="M143 .01563h369.4375V38H143Zm0 0"/></clipPath><clipPath id="d"><path d="M143 37h369.4375v73.92578H143Zm0 0"/></clipPath><clipPath id="e"><path d="M143 36h369.4375v74.92578H143Zm0 0"/></clipPath><clipPath id="f"><path d="M0 .01563h144V38H0Zm0 0"/></clipPath><clipPath id="g"><path d="M0 .01563h145V38H0Zm0 0"/></clipPath><clipPath id="A"><path d="M0 36h512.4375v2H0Zm0 0"/></clipPath><clipPath id="B"><path d="M0 73h512.4375v2H0Zm0 0"/></clipPath><clipPath id="C"><path d="M0 110h512.4375v.92578H0Zm0 0"/></clipPath><clipPath id="D"><path d="M0 .01563h512.4375v110.91015H0Zm0 0"/></clipPath><clipPath id="E"><path d="M143 .01563h2v110.91015h-2Zm0 0"/></clipPath><clipPath id="I"><path d="M143 36h369.4375v39H143Zm0 0"/></clipPath><clipPath id="L"><path d="M143 73h369.4375v37.92578H143Zm0 0"/></clipPath></defs><g clip-path="url(#a)"><path fill="#fff" d="M.19922 37.05078v73.67969h143.66797V37.05078Zm0 0"/></g><g clip-path="url(#b)"><path fill="none" stroke="#000" stroke-miterlimit="10" stroke-width=".39828" d="M.19922 37.05077v73.67967h143.66793V37.05077Zm0 0"/></g><g clip-path="url(#c)"><path fill="#fff" stroke="#000" stroke-miterlimit="10" stroke-width=".39828" d="M143.86715 37.05077V.21484h368.37882v36.83593Zm0 0"/></g><g clip-path="url(#d)"><path fill="#fff" d="M143.86719 37.05078v73.67969h368.3789V37.05078Zm0 0"/></g><g clip-path="url(#e)"><path fill="none" stroke="#000" stroke-miterlimit="10" stroke-width=".39828" d="M143.86715 37.05077v73.67967h368.37882V37.05077Zm0 0"/></g><g clip-path="url(#f)"><path fill="#fff" d="M.19922.21484v36.83594h143.66797V.21484Zm0 0"/></g><g clip-path="url(#g)"><path fill="none" stroke="#000" stroke-miterlimit="10" stroke-width=".39828" d="M.19922.21484v36.83593h143.66793V.21484Zm0 0"/></g><use xlink:href="#h" x="37.64567" y="23.07326"/><use xlink:href="#i" x="44.89424" y="23.07326"/><use xlink:href="#j" x="51.77312" y="23.07326"/><use xlink:href="#k" x="55.73409" y="23.07326"/><use xlink:href="#l" x="62.28289" y="23.07326"/><use xlink:href="#m" x="70.21802" y="23.07326"/><use xlink:href="#n" x="80.10724" y="23.07326"/><use xlink:href="#k" x="87.7255" y="23.07326"/><use xlink:href="#o" x="98.59916" y="23.07326"/><use xlink:href="#p" x="30.70747" y="58.81967"/><use xlink:href="#q" x="37.65237" y="58.81967"/><use xlink:href="#r" x="41.70576" y="58.81967"/><use xlink:href="#s" x="48.4394" y="58.81967"/><use xlink:href="#k" x="56.48016" y="58.81967"/><use xlink:href="#n" x="67.33321" y="58.81967"/><use xlink:href="#k" x="74.95148" y="58.81967"/><use xlink:href="#t" x="85.82456" y="58.81967"/><use xlink:href="#u" x="93.4228" y="53.64201"/><use xlink:href="#v" x="96.71" y="58.81967"/><use xlink:href="#o" x="101.68062" y="58.81967"/><use xlink:href="#w" x="109.3825" y="58.81967"/><use xlink:href="#h" x="26.53936" y="95.34965"/><use xlink:href="#i" x="33.78793" y="95.34965"/><use xlink:href="#m" x="40.6668" y="95.34965"/><use xlink:href="#q" x="46.3706" y="95.34965"/><use xlink:href="#i" x="50.42399" y="95.34965"/><use xlink:href="#x" x="57.30287" y="95.34965"/><use xlink:href="#q" x="62.01642" y="95.34965"/><use xlink:href="#y" x="66.06981" y="95.34965"/><use xlink:href="#s" x="73.45041" y="95.34965"/><use xlink:href="#z" x="81.49117" y="95.34965"/><use xlink:href="#n" x="91.44641" y="95.34965"/><use xlink:href="#k" x="99.06467" y="95.34965"/><use xlink:href="#t" x="109.93805" y="95.34965"/><g clip-path="url(#A)"><path fill="none" stroke="#000" stroke-miterlimit="10" stroke-width=".39828" d="M.19922 37.05077h512.04675"/></g><g clip-path="url(#B)"><path fill="none" stroke="#000" stroke-miterlimit="10" stroke-width=".39828" d="M.19922 73.8906h512.04675"/></g><g clip-path="url(#C)"><path fill="none" stroke="#000" stroke-miterlimit="10" stroke-width=".39828" d="M.19922 110.73044h512.04675"/></g><g clip-path="url(#D)"><path fill="none" stroke="#000" stroke-miterlimit="10" stroke-width=".39828" d="M.19922.21484v110.5156h512.04675V.21484Zm0 0"/></g><g clip-path="url(#E)"><path fill="none" stroke="#000" stroke-miterlimit="10" stroke-width=".39828" d="M143.86715.21484v110.5156"/></g><use xlink:href="#F" x="154.66823" y="22.69747"/><use xlink:href="#G" x="163.41861" y="22.69747"/><use xlink:href="#F" x="265.15868" y="22.69747"/><use xlink:href="#H" x="273.90905" y="22.69747"/><use xlink:href="#H" x="380.02472" y="22.69747"/><use xlink:href="#G" x="490.51517" y="22.69747"/><g clip-path="url(#I)"><path fill="none" stroke="#000" stroke-miterlimit="10" stroke-width=".39828" d="M143.86715 37.05077v36.83984h368.37882V37.05077Zm0 0"/></g><use xlink:href="#J" x="213.24913" y="58.88364"/><path fill="none" stroke="#000" stroke-dasharray="2.9871861435 2.9871861435" stroke-miterlimit="10" stroke-width=".39828" d="M272.80072 37.05077v36.83984"/><use xlink:href="#K" x="269.62623" y="59.54627"/><use xlink:href="#F" x="323.80454" y="57.38846"/><path fill="none" stroke="#000" stroke-dasharray="2.9871861435 2.9871861435" stroke-miterlimit="10" stroke-width=".39828" d="M383.3124 37.05077v36.83984"/><use xlink:href="#K" x="380.15965" y="59.54627"/><use xlink:href="#J" x="434.35994" y="58.88364"/><g clip-path="url(#L)"><path fill="none" stroke="#000" stroke-miterlimit="10" stroke-width=".39828" d="M143.86715 73.8906v36.83984h368.37882V73.89061Zm0 0"/></g><path fill="#fff" d="M147.70313 106.7461h29.16406V93.35155h-29.16406Zm0 0"/><use xlink:href="#M" x="149.69296" y="102.49274"/><use xlink:href="#N" x="155.53783" y="102.49274"/><use xlink:href="#O" x="159.36138" y="102.49274"/><use xlink:href="#P" x="166.09244" y="102.49274"/><use xlink:href="#Q" x="171.05112" y="102.49274"/><path fill="#fff" d="M147.70313 106.7461h29.16406V93.35155h-29.16406Zm0 0"/><use xlink:href="#M" x="149.69296" y="102.49274"/><use xlink:href="#N" x="155.53783" y="102.49274"/><use xlink:href="#O" x="159.36138" y="102.49274"/><use xlink:href="#P" x="166.09244" y="102.49274"/><use xlink:href="#Q" x="171.05112" y="102.49274"/><path fill="#fff" d="M258.21484 91.26563h29.16797V77.875h-29.16797Zm0 0"/><use xlink:href="#M" x="260.20539" y="87.01322"/><use xlink:href="#N" x="266.05026" y="87.01322"/><use xlink:href="#O" x="269.87382" y="87.01322"/><use xlink:href="#R" x="276.60487" y="87.01322"/><use xlink:href="#Q" x="281.56355" y="87.01322"/><path fill="#fff" d="M258.21484 91.26563h29.16797V77.875h-29.16797Zm0 0"/><use xlink:href="#M" x="260.20539" y="87.01322"/><use xlink:href="#N" x="266.05026" y="87.01322"/><use xlink:href="#O" x="269.87382" y="87.01322"/><use xlink:href="#R" x="276.60487" y="87.01322"/><use xlink:href="#Q" x="281.56355" y="87.01322"/><path fill="none" stroke="#000" stroke-miterlimit="10" stroke-width=".39828" d="m180.86714 97.47654 71.0703-9.96094"/><path d="M254.30469 87.1836c-1.01563-.0586-2.84375-.20313-4.15235-.92579 1.13672.94922 1.2461 1.73828.41407 2.96094 1.05859-1.05469 2.77734-1.69922 3.73828-2.03516m0 0"/><path fill="#fff" d="M372.09766 106.7461h22.43359V93.35155h-22.4336Zm0 0"/><use xlink:href="#M" x="374.08298" y="102.49274"/><use xlink:href="#N" x="379.92785" y="102.49274"/><use xlink:href="#R" x="383.7514" y="102.49274"/><use xlink:href="#Q" x="388.71008" y="102.49274"/><path fill="#fff" d="M372.09766 106.7461h22.43359V93.35155h-22.4336Zm0 0"/><use xlink:href="#M" x="374.08298" y="102.49274"/><use xlink:href="#N" x="379.92785" y="102.49274"/><use xlink:href="#R" x="383.7514" y="102.49274"/><use xlink:href="#Q" x="388.71008" y="102.49274"/><path fill="none" stroke="#000" stroke-miterlimit="10" stroke-width=".39828" d="m291.40227 87.18748 74.43358 10.42578"/><path d="M368.20313 97.94531c-.95704-.33594-2.67579-.97656-3.73438-2.03125.83203 1.22266.72266 2.01172-.41406 2.95703 1.30469-.71875 3.13672-.86718 4.14844-.92578m0 0"/><path fill="#fff" d="M482.60938 91.26563h22.43359V77.875h-22.4336Zm0 0"/><use xlink:href="#M" x="484.59541" y="87.01322"/><use xlink:href="#N" x="490.44028" y="87.01322"/><use xlink:href="#P" x="494.26384" y="87.01322"/><use xlink:href="#Q" x="499.22251" y="87.01322"/><path fill="#fff" d="M482.60938 91.26563h22.43359V77.875h-22.4336Zm0 0"/><use xlink:href="#M" x="484.59541" y="87.01322"/><use xlink:href="#N" x="490.44028" y="87.01322"/><use xlink:href="#P" x="494.26384" y="87.01322"/><use xlink:href="#Q" x="499.22251" y="87.01322"/><path fill="none" stroke="#000" stroke-miterlimit="10" stroke-width=".39828" d="m398.57022 97.9492 77.80466-10.90235"/><path d="M478.73828 86.71484c-1.01172-.05859-2.84375-.20703-4.14844-.92578 1.13672.94531 1.2461 1.73438.41407 2.95703 1.05859-1.05468 2.77734-1.6953 3.73437-2.03125m0 0"/></svg>