<svg xmlns="http://www.w3.org/2000/svg" xmlns:xlink="http://www.w3.org/1999/xlink" width="492.92pt" height="106.698pt" viewBox="0 0 492.92 106.698"><defs><path id="f" d="M-.125-7.64062c.59375.03125.73438.09375.89063.59375L3.125 0h1.46875l1.39063-4.07812C6.42188-5.35937 6.82813-6.48437 7-6.9375c.23438-.5625.34375-.65625 1-.70312v-.4375H5.29688v.4375l.65625.0625c.23437.03125.25.14062.20312.39062-.125.375-.375 1.34375-.73437 2.4375-.23438.70313-.73438 2.42188-.95313 3.01563h-.0625l-1.75-5.42188c-.07812-.25-.0625-.39062.21875-.42187l.54688-.0625v-.4375H-.125Zm0 0"/><path id="g" d="M.5625-1.5625c0 .85938.5625 1.70313 1.73438 1.70313.75 0 1.26562-.40625 1.67187-.67188.15625.35938.35938.67188.92188.67188.60937 0 1.32812-.20313 1.71875-.35938l-.01563-.375c-.14062.01563-.40625 0-.57812-.0625-.15625-.04687-.375-.1875-.375-.875v-2.6875c0-.73437-.09375-1.64062-2.15625-1.64062-1.71875 0-2.78125.67187-2.78125 1.4375 0 .51562.73437.73437 1.03125.73437.26562 0 .39062-.1875.5-.46875.32812-1 .70312-1.17187 1.03125-1.17187.34375 0 .65625.20312.65625.875v.60937c-.40625.29688-1.375.5625-2.14063.82813C.875-2.70312.5625-2.23437.5625-1.5625M2.32813-1.75c0-.54687.20312-.82812.54687-1.01562.35938-.20313.76563-.35938 1.04688-.48438v1.6875c-.01563.625-.375.79688-.70313.79688-.46875 0-.89062-.35938-.89062-.98438m0 0"/><path id="h" d="M.28125 0H3.5625v-.45312c-.67187-.03125-.75-.07813-.75-.5625v-7.5625l-.09375-.07813-2.34375.3125v.42188l.39063.0625c.1875.03125.28124.14062.28124.60937v6.23438c0 .48437-.09374.53125-.76562.5625Zm0 0"/><path id="i" d="M.45313-2.85937c0 1.59375.70312 3 2.85937 3 1.39063 0 2.15625-.67188 2.54688-1.70313l-.42188-.23437C5.09375-1.125 4.59375-.75 3.89063-.75c-1.17188 0-1.57813-.96875-1.57813-2.1875h3.03125c.42188 0 .625-.125.625-.48437 0-.96875-.375-2.4375-2.625-2.4375-2.10937 0-2.89062 1.35937-2.89062 3M2.3125-3.5c0-.84375.21875-1.82812.98438-1.82812.70312 0 .82812.89062.82812 1.4375 0 .32812-.09375.39062-.35937.39062Zm0 0"/><path id="j" d="m.34375-5.10937.40625.0625c.1875.03125.26563.10937.26563.59375v2.84375c0 1.35937.84375 1.75 1.6875 1.75 1 0 1.60937-.53125 2.07812-.79688L4.875 0h2.42188v-.45312c-.65625-.03125-.73438-.07813-.73438-.5625v-4.76563l-.10937-.07812-2.35938.32812v.42188l.42188.0625c.1875.03125.26562.10937.26562.59375v2.46875c0 .20312-.01562.48437-.07812.65625-.125.26562-.4375.54687-.9375.54687-.625 0-.98438-.35937-.98438-1.26562v-3.73438l-.07812-.07812-2.35938.32812Zm0 0"/><path id="k" d="M.375 0h3.53125v-.45312C3-.5 2.875-.53125 2.875-1.01562v-2.59375c0-.60938.125-.90625.40625-.90625.1875 0 .35938.10937.625.25.14063.10937.3125.1875.53125.1875.23438 0 .46875-.125.59375-.29688s.1875-.40625.1875-.67187c0-.5-.32812-.8125-.8125-.8125s-.85937.3125-1.53125 1.03125l-.17187-1.03125-2.26563.32812v.42188l.40625.0625c.1875.03125.28125.10937.28125.59375v3.4375c0 .48437-.07812.53125-.75.5625Zm0 0"/><path id="l" d="M.45313-2.75c0 1.6875.89062 2.89063 2.35937 2.89063.4375 0 1.0625-.23438 1.70313-.71875V0h2.5v-.45312c-.67188-.03125-.75-.07813-.75-.5625v-7.5625l-.07813-.07813-2.375.3125v.42188l.40625.0625c.1875.03125.29688.14062.29688.60937v1.53125c-.26563-.10937-.60938-.14062-1-.14062-.875 0-1.65625.25-2.1875.75-.54688.51562-.875 1.29687-.875 2.35937M2.3125-3c0-1.70312.64063-2.32812 1.29688-2.32812.45312 0 .6875.23437.79687.46875.10938.17187.10938.42187.10938.67187v2.40625c0 .48438-.1875 1.03125-.92188 1.03125C2.82813-.75 2.3125-1.5 2.3125-3m0 0"/><path id="n" d="M.5625-2.64062.75-.54687C1.34375 0 2.5.17188 3.26563.17188c2.34375-.01563 3.01562-1.28125 3.01562-2.5 0-1.53125-1.125-2.125-2.1875-2.57813-.78125-.32812-1.76562-.75-1.76562-1.625 0-.73437.53125-1.1875 1.21875-1.1875.75 0 1.46875.53125 1.79687 1.89063h.42188v-1.90625c-.60938-.375-1.5-.53125-2.20313-.53125-1.96875 0-2.90625 1.03125-2.90625 2.40625 0 1.45312 1.29688 2.07812 2.32813 2.5 1.0625.45312 1.54687.96875 1.54687 1.71875-.01562.875-.5625 1.28125-1.3125 1.28125-.89062 0-1.78125-.8125-2.21875-2.28125Zm0 0"/><path id="o" d="M.875-7.39062c0 .5625.40625 1.03125 1.0625 1.03125.64063 0 1.09375-.46875 1.09375-1.03125 0-.54688-.42187-1.01563-1.09375-1.01563-.65625 0-1.0625.46875-1.0625 1.01563M.375 0h3.29688v-.45312C3-.48437 2.875-.53125 2.875-1.01562v-4.76563l-.0625-.07812-2.375.32812v.42188l.40625.0625c.1875.03125.28125.10937.28125.59375v3.4375c0 .48437-.07812.53125-.75.5625Zm0 0"/><path id="p" d="M.375 1.125c0 1.125 1.21875 1.6875 2.875 1.6875.51563 0 1.35938-.09375 1.9375-.42187.65625-.32813 1.07813-.9375 1.07813-1.78125 0-1.40625-1.07813-1.84375-2.29688-1.84375H2.875c-.5625 0-.78125-.1875-.78125-.39063 0-.26562.29688-.39062.46875-.42187.21875.01562.39063.01562.53125.01562 1.375 0 2.625-.5 2.625-1.89062 0-.34375-.14062-.71875-.29687-.90625l.78125-.14063.23437-.875-.10937-.125-1.48438.48438c-.39062-.21875-1.03125-.375-1.65625-.375-2.10937 0-2.73437 1.07812-2.73437 1.98437 0 .96875.73437 1.54688 1.4375 1.65625v.03125c-.76563.1875-1.25.60938-1.25 1.07813 0 .51562.5625.98437 1.07812 1.09375v.03125C1.23438.125.375.32813.375 1.125M1.92188 1c0-.3125.15624-.53125.3125-.64062C2.39063.25 2.75.1875 3.26563.1875c1 0 1.59375.21875 1.59375.9375 0 .82813-.64063 1.15625-1.4375 1.15625-.78125 0-1.5-.4375-1.5-1.28125m.35937-4.90625c0-1 .42188-1.42187.89063-1.42187.45312 0 .875.42187.875 1.40625 0 .82812-.35938 1.34375-.89063 1.34375-.5 0-.875-.53125-.875-1.32813m0 0"/><path id="q" d="M.375 0H3.5v-.45312l-.21875-.01563C3.03125-.5 2.875-.53125 2.875-.92187v-2.78125c0-.26563.0625-.51563.14063-.6875.15625-.29688.46875-.57813.95312-.57813.59375 0 .90625.375.92188 1.0625v2.98438c0 .39062-.125.42187-.375.45312l-.25.01563V0h3.15625v-.45312c-.67188-.03125-.78125-.07813-.78125-.5625V-4.0625c0-1.09375-.54688-1.79687-1.75-1.79687-.67188 0-1.23438.34375-2.01563.79687l-.14062-.79687-2.29688.32812v.42188l.40625.0625c.1875.03125.28125.10937.28125.59375v3.4375c0 .48437-.07812.53125-.75.5625Zm0 0"/><path id="v" d="M.4375-5.14062h.6875v3.78125c0 1.0625.78125 1.5 1.4375 1.5.48438 0 1.20313-.21875 1.85938-.625l-.125-.375c-.15625.07812-.39063.125-.65625.125-.45313 0-.76563-.32813-.76563-1.07813v-3.32812h1.21875v-.57813H2.875V-7.1875h-.65625L1.1875-5.71875h-.75Zm0 0"/><path id="w" d="M.45313-2.85937c0 1.85937.90625 3 3.03125 3s3.03125-1.14063 3.03125-3c0-1.85938-.90625-3-3.03125-3s-3.03125 1.14062-3.03125 3m1.85937 0c0-1.5625.32813-2.46875 1.17188-2.46875.82812 0 1.15625.90625 1.15625 2.46875S4.3125-.39062 3.48438-.39062c-.84375 0-1.17188-.90625-1.17188-2.46875m0 0"/><path id="x" d="m.51563-2.15625.125 1.73438c.45312.40625 1.32812.5625 2 .5625 1.42187 0 2.39062-.625 2.39062-1.89063 0-1-.64062-1.48437-1.71875-1.90625-.67187-.25-1.17187-.51562-1.17187-.98437 0-.35938.25-.6875.73437-.6875.60938 0 1.09375.54687 1.32813 1.42187h.4375v-1.54687C4.15625-5.75 3.48438-5.85937 2.875-5.85937c-1.42187 0-2.29687.67187-2.29687 1.84375 0 .85937.67187 1.40625 1.70312 1.79687.59375.20313 1.1875.54688 1.1875 1.10938 0 .45312-.29687.71875-.8125.71875-.76562 0-1.40625-.8125-1.70312-1.76563Zm0 0"/><path id="m" d="M.375-.45312c0 .32812.26563.59375.75.59375.78125 0 1.23438-.79688 1.71875-1.57813l.46875-.78125h.03125l.20313.92188c.23437.9375.4375 1.4375 1.03125 1.4375.85937 0 1.3125-.89063 1.65625-1.59375l-.29688-.15626C5.65625-1.09374 5.32813-.46874 5-.46874c-.21875 0-.29687-.26562-.5625-1.3125l-.375-1.51562c.42188-.75 1.01563-1.6875 1.35938-1.6875s.35937.1875.70312.1875c.26563 0 .5-.25.5-.5625 0-.35938-.28125-.5-.59375-.5-.625 0-1.15625.5625-1.5625 1.21875l-.5.79687H3.9375L3.46875-5.8125l-.0625-.04687-1.92187.57812L1.5-5l.92188-.0625c.1875 0 .28125.09375.39062.59375l.40625 1.6875-.32812.5625C2.39063-1.35937 1.96875-.75 1.67188-.75 1.34375-.75 1.25-1.04687.875-1.04687c-.29687 0-.5.29687-.5.59375m0 0"/><path id="r" d="M-.25 2.15625c.01563.375.51563.65625 1.0625.65625 1.17188 0 1.67188-.9375 2.15625-3.17187l1.07813-4.92188h1.48437l.10938-.4375H4.125l.32813-1.32812c.21875-.875.4375-1.21875.76562-1.21875.3125 0 .51563.26562.78125.82812.0625.10938.15625.20313.32813.20313.23437 0 .5625-.21875.5625-.51563 0-.5-.625-.90625-1.32813-.90625-1.375 0-1.95312.96875-2.39062 2.5l-.125.4375H2.03125l-.125.4375H2.9375L1.59375 1.60938c-.14062.71875-.26562.78125-.375.78125-.125 0-.3125-.07813-.625-.5625C.51563 1.71875.4375 1.5625.28125 1.5625c-.25 0-.53125.28125-.53125.59375m0 0"/><path id="t" d="M1-3.29687c0 2.64062.60938 5.53125 3.07813 5.625v-.34375C3.23438 1.82812 1.9375.79688 1.9375-3.29687c0-4.0625 1.25-5.09375 2.14063-5.28125v-.34375C1.60938-8.8125 1-5.92187 1-3.29687m0 0"/><path id="u" d="M.70313 1.98438v.34375c2.46875-.09375 3.0625-2.98438 3.0625-5.625 0-2.625-.59375-5.51563-3.0625-5.625v.34375c.89062.1875 2.125 1.21875 2.125 5.28125 0 4.09375-1.29688 5.125-2.125 5.28125m0 0"/><path id="D" d="M1-2.95312h6.42188v-.6875H1Zm0 0"/><path id="E" d="M.46875-1.1875c0 .53125.82813 1.32813 2.34375 1.32813 1.92188 0 2.79688-1.17188 2.79688-2.65625 0-1.64063-1.03125-2.46875-2.42188-2.46875-.64062 0-1.34375.28125-1.71875.625l.26563-2.21875c.03124-.29688.10937-.32813.32812-.32813h2.90625L5.25-7.70312l-.0625-.09375H1.29688l-.10938.10937-.25 3.90625.29688.14063c.48437-.5625.95312-.82813 1.57812-.82813.75 0 1.57813.54688 1.57813 2.07813 0 1.20312-.48438 2.125-1.51563 2.125-.8125 0-1.21875-.59375-1.45312-1.26563-.0625-.17187-.1875-.28125-.34375-.28125-.23438 0-.60938.23438-.60938.625m0 0"/><path id="F" d="m.21875-2.32812.10938.23437H3.5v1.20313c0 .39062-.125.45312-.40625.48437l-.75.07813V0h3.07813v-.32812l-.51563-.0625C4.64063-.4375 4.5625-.5 4.5625-.89062v-1.20313H5.75v-.54687H4.5625v-5.15625h-.85937C2.60938-6.1875 1.29688-4.15625.21875-2.32812m.84375-.3125C1.76563-3.90625 2.60938-5.25 3.5-6.67187v4.03125Zm0 0"/><path id="G" d="M1.26563 0h3.84375v-.32812L4.125-.42187C3.875-.45312 3.73438-.53125 3.73438-1v-6.875l-.0625-.0625-2.40625.40625v.29688l1.09375.125c.20312.03125.28125.10937.28125.45312V-1c0 .46875-.125.54688-.39063.57813l-.98437.09375Zm0 0"/><path id="I" d="M1-2.95312h2.85938v2.85937h.6875v-2.85937h2.875v-.6875h-2.875v-2.875h-.6875v2.875H1Zm0 0"/><path id="J" d="M.48438-3.90625c0 2.34375.6875 4.04688 2.60937 4.04688s2.625-1.70313 2.625-4.04688c0-2.32812-.70312-4.03125-2.625-4.03125-1.92187 0-2.60937 1.70313-2.60937 4.03125m1.1875 0c0-1.89062.3125-3.625 1.42187-3.625 1.10938 0 1.42188 1.73438 1.42188 3.625 0 1.90625-.3125 3.64063-1.42188 3.64063C1.98438-.26562 1.67188-2 1.67188-3.90625m0 0"/><path id="s" d="M.35938-.125c0 .04688.09375.125.21875.125.0625 0 .1875-.01562.21874-.0625L2.25-3.8125c.04688-.10937.0625-.1875.0625-.21875 0-.17187-.26562-.25-.51562-.25s-.64063.10938-.67188.26563Zm0 0"/><path id="L" d="M-.20312 1.71875c.01562.3125.42187.53125.85937.53125.9375 0 1.32813-.75 1.71875-2.53125l.85938-3.9375h1.1875l.09375-.35937H3.29688l.26562-1.0625c.17188-.70313.35938-.96875.60938-.96875s.42187.20312.625.65625c.04687.09375.125.15625.26562.15625.1875 0 .45313-.17188.45313-.40625 0-.39063-.5-.71875-1.0625-.71875-1.10938 0-1.5625.76562-1.92188 2l-.09375.34375H1.625l-.10937.35937h.84375l-1.09375 5.5c-.10938.57813-.20313.64063-.29688.64063s-.25-.07813-.48437-.46875C.40625 1.375.34375 1.25.23438 1.25c-.21875 0-.4375.23438-.4375.46875m0 0"/><path id="M" d="M.8125-2.64062c0 2.10937.46875 4.42187 2.45313 4.51562v-.28125c-.67188-.14062-1.71875-.95312-1.71875-4.23437 0-3.25 1-4.0625 1.71875-4.21875v-.28125C1.28125-7.0625.8125-4.73437.8125-2.64062m0 0"/><path id="N" d="M.79688-2.35937H5.9375v-.54688H.79688Zm0 0"/><path id="O" d="M.375-.95312c0 .42187.65625 1.0625 1.875 1.0625C3.78125.10938 4.48438-.82812 4.48438-2c0-1.3125-.8125-1.98437-1.9375-1.98437-.51563 0-1.07813.23437-1.375.5L1.375-5.25c.03125-.25.09375-.28125.28125-.28125h2.3125l.23438-.625-.04688-.07812h-3.125l-.09375.07812-.1875 3.125.23438.125C1.375-3.35937 1.75-3.57812 2.25-3.57812c.60938 0 1.26563.4375 1.26563 1.67187 0 .96875-.39063 1.6875-1.20313 1.6875-.65625 0-.98437-.46875-1.17187-1C1.07813-1.35937 1-1.45312.85937-1.45312c-.1875 0-.48437.1875-.48437.5m0 0"/><path id="P" d="M.5625 1.59375V1.875c1.96875-.09375 2.45313-2.40625 2.45313-4.51562 0-2.09375-.48438-4.42188-2.45313-4.5v.28125c.70313.15625 1.70313.96875 1.70313 4.21875 0 3.28125-1.04688 4.09375-1.70313 4.23437m0 0"/><path id="Q" d="m.17188-1.875.09375.20313h2.53125v.95312c0 .32813-.09375.375-.32813.39063l-.59375.0625V0h2.46875v-.26562L3.92188-.3125c-.21875-.03125-.28125-.07812-.28125-.40625v-.95312h.95312v-.4375h-.95312v-4.125h-.67188C2.09375-4.95312 1.03125-3.32812.17188-1.875m.6875-.23437c.54687-1.01563 1.23437-2.09375 1.9375-3.23438v3.23438Zm0 0"/><path id="R" d="M1.01563 0h3.0625v-.26562l-.78125-.07813c-.20313-.01562-.3125-.07812-.3125-.45312v-5.5l-.04688-.04688-1.92187.32813v.21875l.875.10937c.15624.01563.21874.09375.21874.35938v4.53125c0 .375-.09375.4375-.3125.45312l-.78124.07813Zm0 0"/><clipPath id="a"><path d="M.65625 35H139v71.39844H.65625Zm0 0"/></clipPath><clipPath id="b"><path d="M138 0h354.1836v36H138Zm0 0"/></clipPath><clipPath id="c"><path d="M138 35h354v71.39844H138Zm0 0"/></clipPath><clipPath id="d"><path d="M138 35h354.1836v71.39844H138Zm0 0"/></clipPath><clipPath id="e"><path d="M.65625 0H139v36H.65625Zm0 0"/></clipPath><clipPath id="y"><path d="M.65625 35h491.52734v1H.65625Zm0 0"/></clipPath><clipPath id="z"><path d="M.65625 70h491.52734v2H.65625Zm0 0"/></clipPath><clipPath id="A"><path d="M.65625 106h491.52734v.39844H.65625Zm0 0"/></clipPath><clipPath id="B"><path d="M.65625 0h491.52734v106.39844H.65625Zm0 0"/></clipPath><clipPath id="C"><path d="M138 0h1v106.39844h-1Zm0 0"/></clipPath><clipPath id="H"><path d="M138 35h354.1836v37H138Zm0 0"/></clipPath><clipPath id="K"><path d="M138 70h354.1836v36.39844H138Zm0 0"/></clipPath></defs><g clip-path="url(#a)"><path fill="#FFF" stroke="#000" stroke-miterlimit="10" stroke-width=".39738" d="M.85547 35.53126v70.668H138.6563v-70.668Zm0 0"/></g><path fill="#FFF" d="M138.65625 35.53125V.19922h353.33594v35.33203Zm0 0"/><g clip-path="url(#b)"><path fill="none" stroke="#000" stroke-miterlimit="10" stroke-width=".39738" d="M138.6563 35.53126V.19922h353.3361v35.33204Zm0 0"/></g><g clip-path="url(#c)"><path fill="#FFF" d="M138.65625 35.53125v70.66797h353.33594V35.53125Zm0 0"/></g><g clip-path="url(#d)"><path fill="none" stroke="#000" stroke-miterlimit="10" stroke-width=".39738" d="M138.6563 35.53126v70.668h353.3361v-70.668Zm0 0"/></g><g clip-path="url(#e)"><path fill="#FFF" stroke="#000" stroke-miterlimit="10" stroke-width=".39738" d="M.85547.19922v35.33204H138.6563V.19922Zm0 0"/></g><use xlink:href="#f" x="37.45009" y="22.12438"/><use xlink:href="#g" x="44.26765" y="22.12438"/><use xlink:href="#h" x="50.73751" y="22.12438"/><use xlink:href="#i" x="54.46295" y="22.12438"/><use xlink:href="#j" x="60.62236" y="22.12438"/><use xlink:href="#k" x="68.08567" y="22.12438"/><use xlink:href="#l" x="77.47379" y="22.12438"/><use xlink:href="#i" x="84.63906" y="22.12438"/><use xlink:href="#m" x="94.94111" y="22.12438"/><use xlink:href="#n" x="30.06848" y="56.41133"/><use xlink:href="#o" x="36.60043" y="56.41133"/><use xlink:href="#p" x="40.4128" y="56.41133"/><use xlink:href="#q" x="46.74606" y="56.41133"/><use xlink:href="#i" x="54.30871" y="56.41133"/><use xlink:href="#l" x="64.60336" y="56.41133"/><use xlink:href="#i" x="71.76863" y="56.41133"/><use xlink:href="#r" x="82.07129" y="56.41133"/><use xlink:href="#s" x="89.36066" y="51.44414"/><use xlink:href="#t" x="92.51298" y="56.41133"/><use xlink:href="#m" x="97.28155" y="56.41133"/><use xlink:href="#u" x="104.67036" y="56.41133"/><use xlink:href="#f" x="27.00714" y="91.45016"/><use xlink:href="#g" x="33.82471" y="91.45016"/><use xlink:href="#k" x="40.29456" y="91.45016"/><use xlink:href="#o" x="45.65921" y="91.45016"/><use xlink:href="#g" x="49.47158" y="91.45016"/><use xlink:href="#v" x="55.94144" y="91.45016"/><use xlink:href="#o" x="60.37472" y="91.45016"/><use xlink:href="#w" x="64.18709" y="91.45016"/><use xlink:href="#q" x="71.12883" y="91.45016"/><use xlink:href="#x" x="78.69149" y="91.45016"/><use xlink:href="#l" x="88.1417" y="91.45016"/><use xlink:href="#i" x="95.30698" y="91.45016"/><use xlink:href="#r" x="105.60842" y="91.45016"/><g clip-path="url(#y)"><path fill="none" stroke="#000" stroke-miterlimit="10" stroke-width=".39738" d="M.85547 35.53126H491.9924"/></g><g clip-path="url(#z)"><path fill="none" stroke="#000" stroke-miterlimit="10" stroke-width=".39738" d="M.85547 70.86722H491.9924"/></g><g clip-path="url(#A)"><path fill="none" stroke="#000" stroke-miterlimit="10" stroke-width=".39738" d="M.85547 106.19926H491.9924"/></g><g clip-path="url(#B)"><path fill="none" stroke="#000" stroke-miterlimit="10" stroke-width=".39738" d="M.85547.19922v106.00004H491.9924V.19922Zm0 0"/></g><g clip-path="url(#C)"><path fill="none" stroke="#000" stroke-miterlimit="10" stroke-width=".39738" d="M138.6563.19922v106.00004"/></g><use xlink:href="#D" x="149.03077" y="21.69659"/><use xlink:href="#E" x="157.42544" y="21.69659"/><use xlink:href="#D" x="255.02974" y="21.7644"/><use xlink:href="#F" x="263.42441" y="21.7644"/><use xlink:href="#G" x="365.22584" y="21.8332"/><use xlink:href="#F" x="471.22582" y="21.7644"/><g clip-path="url(#H)"><path fill="none" stroke="#000" stroke-miterlimit="10" stroke-width=".39738" d="M138.6563 35.53126v35.33596h353.3361V35.53126Zm0 0"/></g><use xlink:href="#I" x="205.124" y="56.45222"/><path fill="none" stroke="#000" stroke-dasharray="2.9804014994 2.9804014994" stroke-miterlimit="10" stroke-width=".39738" d="M262.32433 35.53126v35.33596"/><use xlink:href="#J" x="259.22886" y="57.09739"/><use xlink:href="#D" x="311.12497" y="55.01828"/><path fill="none" stroke="#000" stroke-dasharray="2.9804014994 2.9804014994" stroke-miterlimit="10" stroke-width=".39738" d="M368.32438 35.53126v35.33596"/><use xlink:href="#J" x="365.22883" y="57.09739"/><use xlink:href="#I" x="417.12495" y="56.45222"/><g clip-path="url(#K)"><path fill="none" stroke="#000" stroke-miterlimit="10" stroke-width=".39738" d="M138.6563 70.86722v35.33204h353.3361V70.86722Zm0 0"/></g><path fill="#FFF" d="M141.77344 102.22656h29.09765V88.86328h-29.09765Zm0 0"/><use xlink:href="#L" x="143.75769" y="97.98267"/><use xlink:href="#M" x="149.58925" y="97.98267"/><use xlink:href="#N" x="153.40411" y="97.98267"/><use xlink:href="#O" x="160.11985" y="97.98267"/><use xlink:href="#P" x="165.06724" y="97.98267"/><path fill="#FFF" d="M141.77344 102.22656h29.09765V88.86328h-29.09765Zm0 0"/><use xlink:href="#L" x="143.75769" y="97.98267"/><use xlink:href="#M" x="149.58925" y="97.98267"/><use xlink:href="#N" x="153.40411" y="97.98267"/><use xlink:href="#O" x="160.11985" y="97.98267"/><use xlink:href="#P" x="165.06724" y="97.98267"/><path fill="#FFF" d="M247.77344 88.20313h29.09765v-13.3633h-29.09765Zm0 0"/><use xlink:href="#L" x="249.75767" y="83.95836"/><use xlink:href="#M" x="255.58923" y="83.95836"/><use xlink:href="#N" x="259.40409" y="83.95836"/><use xlink:href="#Q" x="266.11982" y="83.95836"/><use xlink:href="#P" x="271.06721" y="83.95836"/><path fill="#FFF" d="M247.77344 88.20313h29.09765v-13.3633h-29.09765Zm0 0"/><use xlink:href="#L" x="249.75767" y="83.95836"/><use xlink:href="#M" x="255.58923" y="83.95836"/><use xlink:href="#N" x="259.40409" y="83.95836"/><use xlink:href="#Q" x="266.11982" y="83.95836"/><use xlink:href="#P" x="271.06721" y="83.95836"/><path fill="none" stroke="#000" stroke-miterlimit="10" stroke-width=".39738" d="m174.8282 93.0977 66.62503-8.81641"/><path d="M243.8164 83.96875c-1.0078-.0664-2.83593-.22656-4.1328-.95703 1.1289.95312 1.23046 1.74219.39062 2.95703 1.0625-1.04297 2.78516-1.67187 3.74219-2m0 0"/><path fill="#FFF" d="M357.13281 102.22656h22.38281V88.86328h-22.3828Zm0 0"/><use xlink:href="#L" x="359.11514" y="97.98267"/><use xlink:href="#M" x="364.9467" y="97.98267"/><use xlink:href="#R" x="368.76156" y="97.98267"/><use xlink:href="#P" x="373.70895" y="97.98267"/><path fill="#FFF" d="M357.13281 102.22656h22.38281V88.86328h-22.3828Zm0 0"/><use xlink:href="#L" x="359.11514" y="97.98267"/><use xlink:href="#M" x="364.9467" y="97.98267"/><use xlink:href="#R" x="368.76156" y="97.98267"/><use xlink:href="#P" x="373.70895" y="97.98267"/><path fill="none" stroke="#000" stroke-miterlimit="10" stroke-width=".39738" d="m280.82825 83.96879 69.9844 9.26172"/><path d="M353.17578 93.54297c-.95703-.32813-2.67969-.95703-3.74219-2 .83985 1.21484.73829 2-.39062 2.95312 1.29687-.73046 3.125-.88671 4.13281-.95312m0 0"/><path fill="#FFF" d="M463.13281 88.20313h22.38281v-13.3633h-22.3828Zm0 0"/><use xlink:href="#L" x="465.11412" y="83.95836"/><use xlink:href="#M" x="470.94568" y="83.95836"/><use xlink:href="#Q" x="474.76054" y="83.95836"/><use xlink:href="#P" x="479.70793" y="83.95836"/><path fill="#FFF" d="M463.13281 88.20313h22.38281v-13.3633h-22.3828Zm0 0"/><use xlink:href="#L" x="465.11412" y="83.95836"/><use xlink:href="#M" x="470.94568" y="83.95836"/><use xlink:href="#Q" x="474.76054" y="83.95836"/><use xlink:href="#P" x="479.70793" y="83.95836"/><path fill="none" stroke="#000" stroke-miterlimit="10" stroke-width=".39738" d="m383.47282 93.543 73.34378-9.70703"/><path d="M459.17969 83.52344c-1.01172-.0664-2.83594-.22656-4.13672-.95703 1.1289.95312 1.23437 1.74218.39062 2.95703 1.06641-1.04297 2.78516-1.67188 3.7461-2m0 0"/></svg>