<svg xmlns="http://www.w3.org/2000/svg" xmlns:xlink="http://www.w3.org/1999/xlink" width="788.429pt" height="170.477pt" viewBox="0 0 788.429 170.477"><defs><path id="f" d="M-.20312-12.21875c.95312.04688 1.17187.17188 1.4375.95313L4.98438 0h2.35937l2.23438-6.51562c.6875-2.04688 1.34375-3.84375 1.625-4.57813.375-.90625.53125-1.04687 1.59375-1.125v-.6875H8.45313v.6875l1.0625.10938c.375.03125.40625.21875.3125.60937-.17188.60938-.59375 2.17188-1.15625 3.89063-.375 1.14062-1.1875 3.875-1.51563 4.82812h-.10937L4.25-11.4375c-.125-.40625-.09375-.64062.34375-.67187l.89063-.10938v-.6875h-5.6875Zm0 0"/><path id="g" d="M.89063-2.5c0 1.39063.89062 2.71875 2.78125 2.71875 1.1875 0 2.03125-.64062 2.6875-1.07812.23437.57812.57812 1.07812 1.46875 1.07812.96875 0 2.125-.3125 2.73437-.5625l-.01562-.60937c-.23438.01562-.65625 0-.9375-.09376-.23438-.07812-.59375-.29687-.59375-1.39062V-6.75c0-1.17187-.15625-2.625-3.45313-2.625-2.75 0-4.45312 1.09375-4.45312 2.3125 0 .8125 1.1875 1.17188 1.67187 1.17188.42188 0 .60938-.3125.79688-.76563.51562-1.57812 1.125-1.85937 1.64062-1.85937.54688 0 1.0625.3125 1.0625 1.39062v.98438C5.625-5.6875 4.07813-5.25 2.85938-4.82812 1.39063-4.3125.89063-3.57812.89063-2.5m2.84375-.29687c0-.875.3125-1.3125.875-1.625C5.1875-4.75 5.8125-5 6.28125-5.20312V-2.5c-.04687 1.01563-.625 1.26563-1.14062 1.26563-.73438 0-1.40625-.57813-1.40625-1.5625m0 0"/><path id="h" d="M.45313 0h5.25v-.71875C4.625-.78125 4.51563-.85937 4.51563-1.625v-12.09375l-.17188-.125-3.75.5v.67188l.64063.09375c.29687.0625.4375.21875.4375.98437V-1.625c0 .76563-.14063.84375-1.21875.90625Zm0 0"/><path id="i" d="M.73438-4.5625c0 2.53125 1.10937 4.78125 4.5625 4.78125C7.53125.21875 8.73438-.85937 9.375-2.5l-.67187-.375c-.5625 1.0625-1.35938 1.65625-2.48438 1.65625-1.875 0-2.53125-1.51562-2.53125-3.48437h4.85938c.67187 0 .98437-.1875.98437-.78125 0-1.53125-.59375-3.89063-4.1875-3.89063-3.35937 0-4.60937 2.1875-4.60937 4.8125M3.6875-5.59375c0-1.35937.35938-2.92187 1.57813-2.92187 1.125 0 1.32812 1.42187 1.32812 2.29687 0 .51563-.14062.625-.57812.625Zm0 0"/><path id="j" d="m.5625-8.15625.65625.09375c.29688.04688.40625.17188.40625.9375v4.54688c0 2.1875 1.35938 2.79687 2.70313 2.79687 1.59375 0 2.5625-.85937 3.3125-1.26562L7.8125 0h3.85938v-.71875c-1.0625-.0625-1.1875-.14062-1.1875-.90625V-9.25l-.15625-.125-3.78125.53125v.6875l.65625.09375c.29687.04688.4375.17188.4375.9375v3.95313c0 .3125-.01563.76562-.14063 1.04687-.17187.4375-.67187.875-1.48437.875-.98438 0-1.5625-.57812-1.5625-2.03125V-9.25l-.14063-.125-3.75.53125Zm0 0"/><path id="k" d="M.59375 0h5.64063v-.71875c-1.42188-.07812-1.625-.14062-1.625-.90625v-4.15625c0-.96875.17187-1.42187.64062-1.42187.29688 0 .5625.15625.98438.39062.23437.17188.5.29688.85937.29688.375 0 .75-.20313.95313-.46875.1875-.28125.29687-.65625.29687-1.07813 0-.79687-.51562-1.3125-1.29687-1.3125-.76563 0-1.35938.51563-2.45313 1.65625L4.32813-9.375.6875-8.84375v.6875l.65625.09375c.29688.04688.46875.17188.46875.9375v5.5c0 .76563-.14062.84375-1.21875.90625Zm0 0"/><path id="l" d="M.73438-4.40625c0 2.71875 1.40625 4.625 3.78125 4.625.6875 0 1.6875-.35937 2.6875-1.15625V0h4.01562v-.71875c-1.07812-.0625-1.20312-.14062-1.20312-.90625v-12.09375l-.125-.125-3.79688.5v.67188l.65625.09375c.29688.0625.45313.21875.45313.98437v2.45313C6.79688-9.3125 6.25-9.375 5.625-9.375c-1.39062 0-2.64062.42188-3.5 1.21875-.875.8125-1.39062 2.0625-1.39062 3.75m2.95312-.375c0-2.75 1.03125-3.73437 2.09375-3.73437.71875 0 1.09375.375 1.26563.75.1875.28125.15625.67187.15625 1.07812v3.84375c0 .76563-.26563 1.625-1.46875 1.625-1.20313 0-2.04688-1.1875-2.04688-3.5625m0 0"/><path id="n" d="M.89063-4.20312 1.1875-.875C2.14063 0 3.98438.28125 5.21875.28125c3.73438-.04687 4.82813-2.04687 4.82813-4 0-2.45312-1.8125-3.40625-3.51563-4.125-1.23437-.51562-2.79687-1.1875-2.79687-2.60937 0-1.17188.82812-1.875 1.95312-1.875 1.1875 0 2.32813.82812 2.85938 3.01562h.67187v-3.0625c-.98437-.59375-2.39062-.82812-3.51562-.82812-3.15625 0-4.65625 1.625-4.65625 3.82812 0 2.32813 2.07812 3.3125 3.71875 4.01563C6.46875-4.64062 7.25-3.8125 7.25-2.625 7.23438-1.23437 6.35938-.57812 5.14063-.57812c-1.40625 0-2.84375-1.28125-3.54688-3.625Zm0 0"/><path id="o" d="M1.40625-11.8125c0 .89063.64063 1.64063 1.6875 1.64063 1.03125 0 1.75-.75 1.75-1.64063 0-.875-.67187-1.625-1.75-1.625-1.04687 0-1.6875.75-1.6875 1.625M.59375 0h5.26563v-.71875c-1.07813-.0625-1.25-.14062-1.25-.90625V-9.25l-.09375-.125-3.82813.53125v.6875l.65625.09375c.29688.04688.46875.17188.46875.9375v5.5c0 .76563-.14062.84375-1.21875.90625Zm0 0"/><path id="p" d="M.59375 1.78125c0 1.8125 1.95313 2.73438 4.60938 2.73438.8125 0 2.17187-.17188 3.09375-.6875 1.03125-.53125 1.73437-1.5 1.73437-2.85938 0-2.23437-1.73437-2.9375-3.70312-2.9375H4.60938c-.92188 0-1.25-.29687-1.25-.64062 0-.40625.46875-.60938.73437-.67188.35938.04688.625.03125.84375.03125 2.21875 0 4.20313-.79687 4.20313-3.03125 0-.54687-.21875-1.125-.46875-1.4375l1.23437-.21875.375-1.42187-.17187-.1875L7.75-8.76562C7.125-9.10937 6.09375-9.375 5.07813-9.375 1.73438-9.375.73438-7.64062.73438-6.20312c0 1.5625 1.15625 2.48437 2.28125 2.67187V-3.5c-1.20313.29688-2 .98438-2 1.73438 0 .8125.90625 1.5625 1.71875 1.75v.03125C1.96875.20313.59375.53125.59375 1.78125m2.48438-.17187c0-.51563.23437-.85938.5-1.03125.25-.1875.82812-.28126 1.64062-.28126 1.59375 0 2.54688.35938 2.54688 1.48438 0 1.34375-1.03125 1.875-2.28125 1.875S3.07813 2.9375 3.07813 1.60938M3.65625-6.25c0-1.59375.65625-2.26562 1.40625-2.26562.73438 0 1.40625.67187 1.40625 2.23437 0 1.34375-.57812 2.17188-1.42187 2.17188-.79688 0-1.39063-.85938-1.39063-2.14063m0 0"/><path id="q" d="M.59375 0h5v-.71875L5.25-.75c-.40625-.04687-.64062-.10937-.64062-.71875v-4.45312c0-.40625.07812-.82813.21875-1.09375.23437-.46875.73437-.92188 1.5-.92188.95312 0 1.45312.59375 1.5 1.70313v4.76562c0 .60938-.20313.67188-.59375.71875l-.40625.03125V0h5.03125v-.71875C10.78125-.78125 10.625-.85937 10.625-1.625V-6.5c-.01562-1.73437-.875-2.875-2.79687-2.875-1.09375 0-1.98438.5625-3.21875 1.29688L4.375-9.375l-3.6875.53125v.6875l.65625.09375c.29688.04688.46875.17188.46875.9375v5.5c0 .76563-.14062.84375-1.21875.90625Zm0 0"/><path id="v" d="M.6875-8.21875h1.09375v6.03125c0 1.70313 1.25 2.40625 2.3125 2.40625.76563 0 1.92188-.34375 2.96875-1L6.875-1.375c-.26562.125-.64062.20313-1.0625.20313-.70312 0-1.20312-.53125-1.20312-1.73438v-5.3125h1.9375v-.9375h-1.9375V-11.5H3.53125L1.89063-9.15625H.6875Zm0 0"/><path id="w" d="M.73438-4.5625c0 2.96875 1.4375 4.78125 4.82812 4.78125s4.84375-1.8125 4.84375-4.78125c0-2.98437-1.45312-4.8125-4.84375-4.8125S.73438-7.54687.73438-4.5625m2.95312 0c0-2.5.54688-3.95312 1.875-3.95312 1.32813 0 1.85938 1.45312 1.85938 3.95312S6.89063-.64062 5.5625-.64062c-1.32812 0-1.875-1.42188-1.875-3.92188m0 0"/><path id="x" d="m.8125-3.45312.21875 2.78125c.71875.65625 2.125.89062 3.17188.89062 2.29687 0 3.84375-1 3.84375-3.01562 0-1.60938-1.03125-2.39063-2.75-3.04688-1.09375-.39062-1.875-.82812-1.875-1.57812 0-.57813.40625-1.09375 1.1875-1.09375.95312 0 1.75.875 2.10937 2.28125h.6875v-2.48438C6.64063-9.1875 5.57813-9.375 4.60938-9.375 2.32813-9.375.90625-8.29687.90625-6.42187c0 1.375 1.09375 2.25 2.75 2.85937.95313.34375 1.89063.90625 1.89063 1.79688 0 .71875-.48438 1.125-1.29688 1.125-1.23437 0-2.25-1.28125-2.71875-2.8125Zm0 0"/><path id="m" d="M.59375-.73437c0 .53125.4375.95312 1.1875.95312 1.28125 0 1.98438-1.26562 2.76563-2.51562l.75-1.23438h.04687L5.6875-2.0625C6.03125-.57812 6.375.21875 7.32813.21875c1.375 0 2.07812-1.40625 2.64062-2.54687l-.46875-.25C9.03125-1.75 8.51563-.75 8-.75c-.35937 0-.5-.42187-.90625-2.09375L6.5-5.28125c.67188-1.1875 1.625-2.6875 2.15625-2.6875.5625 0 .57813.29688 1.14063.29688.40625 0 .78125-.39063.78125-.89063 0-.57812-.4375-.8125-.95313-.8125-.98437 0-1.8125.89063-2.46875 1.95313l-.82812 1.26562h-.03125l-.75-3.14062L5.4375-9.375l-3.07812.9375.04687.45313L3.875-8.07812c.29688 0 .4375.14062.60938.92187l.65625 2.70313-.51563.89062c-.79687 1.375-1.48437 2.34375-1.9375 2.34375-.54687 0-.6875-.45312-1.28125-.45312-.46875 0-.8125.48437-.8125.9375m0 0"/><path id="r" d="M-.39062 3.4375C-.375 4.04688.4375 4.51563 1.3125 4.51563 3.17188 4.51563 3.96875 3 4.75-.57812L6.46875-8.4375h2.375l.17188-.71875H6.59375l.51563-2.10937c.35937-1.40625.71875-1.9375 1.23437-1.9375.5 0 .82813.40625 1.25 1.3125.09375.17187.23438.3125.51563.3125.375 0 .90625-.34375.90625-.8125 0-.79688-1-1.45313-2.125-1.45313-2.20313 0-3.10938 1.54688-3.82813 4.01563l-.20312.67187H3.25l-.21875.71875h1.67188l-2.15625 11c-.21875 1.15625-.42188 1.26563-.59375 1.26563-.20313 0-.5-.14063-1-.90625C.8125 2.73438.6875 2.5.45313 2.5c-.40625 0-.84375.45313-.84375.9375m0 0"/><path id="t" d="M1.60938-5.26562c0 4.21875.95312 8.84375 4.90625 9v-.5625c-1.32813-.25-3.42188-1.90625-3.42188-8.4375 0-6.48438 1.98438-8.14063 3.42188-8.4375v-.5625c-3.95313.17187-4.90625 4.79687-4.90625 9m0 0"/><path id="u" d="M1.10938 3.17188v.5625c3.95312-.15625 4.90625-4.78125 4.90625-9 0-4.20313-.95313-8.82813-4.90625-9v.5625c1.4375.29687 3.42187 1.95312 3.42187 8.4375 0 6.53125-2.09375 8.1875-3.42187 8.4375m0 0"/><path id="D" d="M1.59375-4.71875h10.26563V-5.8125H1.59375Zm0 0"/><path id="E" d="M.75-1.90625c0 .85938 1.3125 2.125 3.73438 2.125 3.07812 0 4.46875-1.85937 4.46875-4.23437 0-2.625-1.625-3.95313-3.84375-3.95313-1.03125 0-2.17188.46875-2.76563 1L2.76563-10.5c.04687-.48437.17187-.54687.53125-.54687H7.9375l.46875-1.26563-.10937-.15625H2.0625l-.17187.17188-.375 6.23437.45312.25C2.73438-6.71875 3.5-7.15625 4.51563-7.15625c1.1875 0 2.5.875 2.5 3.34375 0 1.92188-.78125 3.375-2.40625 3.375-1.3125 0-1.96875-.9375-2.34375-2-.09375-.28125-.28125-.46875-.53125-.46875-.39063 0-.98438.39063-.98438 1m0 0"/><path id="F" d="m.35938-3.73437.15625.39062h5.07812v1.90625c0 .64063-.1875.75-.65625.78125l-1.1875.125V0h4.92188v-.53125l-.82813-.10937c-.4375-.04688-.5625-.15626-.5625-.79688v-1.90625H9.1875v-.85937H7.28125v-8.26563H5.92188c-1.75 2.57813-3.85938 5.8125-5.5625 8.73438m1.34375-.46875c1.10937-2.03125 2.46875-4.20313 3.89062-6.46875v6.46875Zm0 0"/><path id="G" d="M2.03125 0h6.125v-.53125l-1.5625-.14062c-.39062-.04688-.60937-.1875-.60937-.92188v-11L5.875-12.6875l-3.84375.65625v.45313l1.73438.21875c.32812.04687.4375.17187.4375.71875v9.04687c0 .73438-.17188.875-.60938.92188l-1.5625.14062Zm0 0"/><path id="I" d="M1.59375-4.71875h4.57813v4.57813h1.09375v-4.57813h4.59375V-5.8125H7.26563v-4.59375H6.17188v4.59375H1.59375Zm0 0"/><path id="J" d="M.78125-6.23437C.78125-2.5 1.85938.21875 4.9375.21875S9.14063-2.5 9.14063-6.23437s-1.125-6.45313-4.20313-6.45313S.78125-9.96875.78125-6.23437m1.875 0c0-3.04688.51563-5.79688 2.28125-5.79688 1.78125 0 2.29688 2.75 2.29688 5.79688 0 3.03125-.51563 5.79687-2.29688 5.79687-1.76562 0-2.28125-2.76562-2.28125-5.79687m0 0"/><path id="s" d="M.57813-.70312c0 .0625.15624.1875.34375.1875.10937 0 .3125-.03126.34375-.10938l2.34375-5.98437c.07812-.1875.09375-.29688.09375-.35938 0-.28125-.4375-.39062-.84375-.39062-.39063 0-1.01563.15625-1.04688.40625Zm0 0"/><path id="L" d="M-.20312 1.71875c.01562.3125.42187.53125.85937.53125.9375 0 1.32813-.75 1.71875-2.53125l.85938-3.9375h1.1875l.09375-.35937H3.29688l.26562-1.0625c.17188-.70313.35938-.96875.60938-.96875s.42187.20312.625.65625c.04687.09375.125.15625.26562.15625.1875 0 .45313-.17188.45313-.40625 0-.39063-.5-.71875-1.0625-.71875-1.10938 0-1.5625.76562-1.92188 2l-.09375.34375H1.625l-.10937.35937h.84375l-1.09375 5.5c-.10938.57813-.20313.64063-.29688.64063s-.25-.07813-.48437-.46875C.40625 1.375.34375 1.25.23438 1.25c-.21875 0-.4375.23438-.4375.46875m0 0"/><path id="M" d="M.8125-2.64062c0 2.10937.46875 4.42187 2.45313 4.51562v-.28125c-.67188-.14062-1.71875-.95312-1.71875-4.23437 0-3.25 1-4.0625 1.71875-4.21875v-.28125C1.28125-7.0625.8125-4.73437.8125-2.64062m0 0"/><path id="N" d="M.79688-2.35937H5.9375v-.54688H.79688Zm0 0"/><path id="O" d="M.375-.95312c0 .42187.65625 1.0625 1.875 1.0625C3.78125.10938 4.48438-.82812 4.48438-2c0-1.3125-.8125-1.98437-1.9375-1.98437-.51563 0-1.07813.23437-1.375.5L1.375-5.25c.03125-.25.09375-.28125.28125-.28125h2.3125l.23438-.625-.04688-.07812h-3.125l-.09375.07812-.1875 3.125.23438.125C1.375-3.35937 1.75-3.57812 2.25-3.57812c.60938 0 1.26563.4375 1.26563 1.67187 0 .96875-.39063 1.6875-1.20313 1.6875-.65625 0-.98437-.46875-1.17187-1C1.07813-1.35937 1-1.45312.85937-1.45312c-.1875 0-.48437.1875-.48437.5m0 0"/><path id="P" d="M.5625 1.59375V1.875c1.96875-.09375 2.45313-2.40625 2.45313-4.51562 0-2.09375-.48438-4.42188-2.45313-4.5v.28125c.70313.15625 1.70313.96875 1.70313 4.21875 0 3.28125-1.04688 4.09375-1.70313 4.23437m0 0"/><path id="Q" d="m.17188-1.875.09375.20313h2.53125v.95312c0 .32813-.09375.375-.32813.39063l-.59375.0625V0h2.46875v-.26562L3.92188-.3125c-.21875-.03125-.28125-.07812-.28125-.40625v-.95312h.95312v-.4375h-.95312v-4.125h-.67188C2.09375-4.95312 1.03125-3.32812.17188-1.875m.6875-.23437c.54687-1.01563 1.23437-2.09375 1.9375-3.23438v3.23438Zm0 0"/><path id="R" d="M1.01563 0h3.0625v-.26562l-.78125-.07813c-.20313-.01562-.3125-.07812-.3125-.45312v-5.5l-.04688-.04688-1.92187.32813v.21875l.875.10937c.15624.01563.21874.09375.21874.35938v4.53125c0 .375-.09375.4375-.3125.45312l-.78124.07813Zm0 0"/><clipPath id="a"><path d="M1 56h221v113.95703H1Zm0 0"/></clipPath><clipPath id="b"><path d="M.92188 56H222v113.95703H.92188Zm0 0"/></clipPath><clipPath id="c"><path d="M221 0h565.9375v57H221Zm0 0"/></clipPath><clipPath id="d"><path d="M221 56h565.9375v113.95703H221Zm0 0"/></clipPath><clipPath id="e"><path d="M.92188 0H222v57H.92188Zm0 0"/></clipPath><clipPath id="y"><path d="M.92188 56H786.9375v1H.92188Zm0 0"/></clipPath><clipPath id="z"><path d="M.92188 113H786.9375v1H.92188Zm0 0"/></clipPath><clipPath id="A"><path d="M.92188 169H786.9375v.95703H.92188Zm0 0"/></clipPath><clipPath id="B"><path d="M.92188 0H786.9375v169.95703H.92188Zm0 0"/></clipPath><clipPath id="C"><path d="M221 0h1v169.95703h-1Zm0 0"/></clipPath><clipPath id="H"><path d="M221 56h565.9375v58H221Zm0 0"/></clipPath><clipPath id="K"><path d="M221 113h565.9375v56.95703H221Zm0 0"/></clipPath></defs><g clip-path="url(#a)"><path fill="#FFF" d="M1.1211 56.71875v113.03906h220.42578V56.71875Zm0 0"/></g><g clip-path="url(#b)"><path fill="none" stroke="#000" stroke-miterlimit="10" stroke-width=".39728" d="M1.1211 56.71878v113.03911h220.42588V56.71878Zm0 0"/></g><g clip-path="url(#c)"><path fill="#FFF" stroke="#000" stroke-miterlimit="10" stroke-width=".39728" d="M221.54698 56.71878V.19922h565.2034v56.51956Zm0 0"/></g><g clip-path="url(#d)"><path fill="#FFF" stroke="#000" stroke-miterlimit="10" stroke-width=".39728" d="M221.54698 56.71878v113.03911h565.2034V56.71878Zm0 0"/></g><path fill="#FFF" d="M1.1211.19922v56.51953h220.42578V.19922Zm0 0"/><g clip-path="url(#e)"><path fill="none" stroke="#000" stroke-miterlimit="10" stroke-width=".39728" d="M1.1211.19922v56.51956h220.42588V.19922Zm0 0"/></g><use xlink:href="#f" x="59.65887" y="35.27179"/><use xlink:href="#g" x="70.56439" y="35.27179"/><use xlink:href="#h" x="80.91371" y="35.27179"/><use xlink:href="#i" x="86.87301" y="35.27179"/><use xlink:href="#j" x="96.72573" y="35.27179"/><use xlink:href="#k" x="108.6642" y="35.27179"/><use xlink:href="#l" x="123.68163" y="35.27179"/><use xlink:href="#i" x="135.14336" y="35.27179"/><use xlink:href="#m" x="151.62274" y="35.27179"/><use xlink:href="#n" x="47.8511" y="90.37375"/><use xlink:href="#o" x="58.29974" y="90.37375"/><use xlink:href="#p" x="64.39809" y="90.37375"/><use xlink:href="#q" x="74.5289" y="90.37375"/><use xlink:href="#i" x="86.62628" y="90.37375"/><use xlink:href="#l" x="103.09382" y="90.37375"/><use xlink:href="#i" x="114.55554" y="90.37375"/><use xlink:href="#r" x="131.0339" y="90.37375"/><use xlink:href="#s" x="142.69413" y="82.42812"/><use xlink:href="#t" x="147.73865" y="90.37375"/><use xlink:href="#m" x="155.36656" y="90.37375"/><use xlink:href="#u" x="167.18584" y="90.37375"/><use xlink:href="#f" x="42.95412" y="146.16558"/><use xlink:href="#g" x="53.85964" y="146.16558"/><use xlink:href="#k" x="64.20896" y="146.16558"/><use xlink:href="#o" x="72.79036" y="146.16558"/><use xlink:href="#g" x="78.88871" y="146.16558"/><use xlink:href="#v" x="89.23803" y="146.16558"/><use xlink:href="#o" x="96.3296" y="146.16558"/><use xlink:href="#w" x="102.42795" y="146.16558"/><use xlink:href="#q" x="113.53212" y="146.16558"/><use xlink:href="#x" x="125.6295" y="146.16558"/><use xlink:href="#l" x="140.74626" y="146.16558"/><use xlink:href="#i" x="152.20798" y="146.16558"/><use xlink:href="#r" x="168.68639" y="146.16558"/><g clip-path="url(#y)"><path fill="none" stroke="#000" stroke-miterlimit="10" stroke-width=".39728" d="M1.1211 56.71878h785.62928"/></g><g clip-path="url(#z)"><path fill="none" stroke="#000" stroke-miterlimit="10" stroke-width=".39728" d="M1.1211 113.23834h785.62928"/></g><g clip-path="url(#A)"><path fill="none" stroke="#000" stroke-miterlimit="10" stroke-width=".39728" d="M1.1211 169.7579h785.62928"/></g><g clip-path="url(#B)"><path fill="none" stroke="#000" stroke-miterlimit="10" stroke-width=".39728" d="M1.1211.19922v169.55867h785.62928V.19922Zm0 0"/></g><g clip-path="url(#C)"><path fill="none" stroke="#000" stroke-miterlimit="10" stroke-width=".39728" d="M221.54698.19922v169.55867"/></g><use xlink:href="#D" x="238.1443" y="34.5859"/><use xlink:href="#E" x="251.5726" y="34.5859"/><use xlink:href="#D" x="407.70312" y="34.69556"/><use xlink:href="#F" x="421.13141" y="34.69556"/><use xlink:href="#G" x="583.97634" y="34.80522"/><use xlink:href="#F" x="753.53416" y="34.69556"/><g clip-path="url(#H)"><path fill="none" stroke="#000" stroke-miterlimit="10" stroke-width=".39728" d="M221.54698 56.71878v56.51956h565.2034V56.71878Zm0 0"/></g><use xlink:href="#I" x="327.87004" y="90.18233"/><path fill="none" stroke="#000" stroke-dasharray="2.9796841802 2.9796841802" stroke-miterlimit="10" stroke-width=".39728" d="M419.36739 56.71878v56.51956"/><use xlink:href="#J" x="414.41752" y="91.21516"/><use xlink:href="#D" x="497.42885" y="87.88737"/><path fill="none" stroke="#000" stroke-dasharray="2.9796841802 2.9796841802" stroke-miterlimit="10" stroke-width=".39728" d="M588.92997 56.71878v56.51956"/><use xlink:href="#J" x="583.97634" y="91.21516"/><use xlink:href="#I" x="666.98767" y="90.18233"/><g clip-path="url(#K)"><path fill="none" stroke="#000" stroke-miterlimit="10" stroke-width=".39728" d="M221.54698 113.23834v56.51955h565.2034v-56.51955Zm0 0"/></g><path fill="#FFF" d="M235.26172 165.78516h29.09375v-13.35938h-29.09375Zm0 0"/><use xlink:href="#L" x="237.24606" y="161.54341"/><use xlink:href="#M" x="243.07624" y="161.54341"/><use xlink:href="#N" x="246.89019" y="161.54341"/><use xlink:href="#O" x="253.60434" y="161.54341"/><use xlink:href="#P" x="258.55056" y="161.54341"/><path fill="#FFF" d="M235.26172 165.78516h29.09375v-13.35938h-29.09375Zm0 0"/><use xlink:href="#L" x="237.24606" y="161.54341"/><use xlink:href="#M" x="243.07624" y="161.54341"/><use xlink:href="#N" x="246.89019" y="161.54341"/><use xlink:href="#O" x="253.60434" y="161.54341"/><use xlink:href="#P" x="258.55056" y="161.54341"/><path fill="#FFF" d="M404.82422 130.57031h29.08984v-13.35937h-29.08984Zm0 0"/><use xlink:href="#L" x="406.80487" y="126.32844"/><use xlink:href="#M" x="412.63506" y="126.32844"/><use xlink:href="#N" x="416.44901" y="126.32844"/><use xlink:href="#Q" x="423.16316" y="126.32844"/><use xlink:href="#P" x="428.10938" y="126.32844"/><path fill="#FFF" d="M404.82422 130.57031h29.08984v-13.35937h-29.08984Zm0 0"/><use xlink:href="#L" x="406.80487" y="126.32844"/><use xlink:href="#M" x="412.63506" y="126.32844"/><use xlink:href="#N" x="416.44901" y="126.32844"/><use xlink:href="#Q" x="423.16316" y="126.32844"/><use xlink:href="#P" x="428.10938" y="126.32844"/><path fill="none" stroke="#000" stroke-miterlimit="10" stroke-width=".39728" d="m268.28528 155.2696 130.2735-27.0625"/><path d="M400.89063 127.72266c-1.01172.0039-2.84375-.01954-4.19141-.65235 1.19531.86719 1.35547 1.64453.60547 2.91797.98437-1.11719 2.65625-1.8711 3.58594-2.26562m0 0"/><path fill="#FFF" d="M577.74219 165.78516h22.375v-13.35938h-22.375Zm0 0"/><use xlink:href="#L" x="579.72039" y="161.54341"/><use xlink:href="#M" x="585.55058" y="161.54341"/><use xlink:href="#R" x="589.36453" y="161.54341"/><use xlink:href="#P" x="594.31075" y="161.54341"/><path fill="#FFF" d="M577.74219 165.78516h22.375v-13.35938h-22.375Zm0 0"/><use xlink:href="#L" x="579.72039" y="161.54341"/><use xlink:href="#M" x="585.55058" y="161.54341"/><use xlink:href="#R" x="589.36453" y="161.54341"/><use xlink:href="#P" x="594.31075" y="161.54341"/><path fill="none" stroke="#000" stroke-miterlimit="10" stroke-width=".39728" d="m437.84787 127.72662 133.62897 27.76174"/><path d="M573.8086 155.97266c-.9297-.39453-2.60157-1.14844-3.58594-2.26563.75 1.26953.58984 2.04688-.60547 2.91797 1.34765-.63281 3.17968-.66016 4.1914-.65234m0 0"/><path fill="#FFF" d="M747.30078 130.57031h22.3789v-13.35937h-22.3789Zm0 0"/><use xlink:href="#L" x="749.27821" y="126.32844"/><use xlink:href="#M" x="755.1084" y="126.32844"/><use xlink:href="#Q" x="758.92235" y="126.32844"/><use xlink:href="#P" x="763.86857" y="126.32844"/><path fill="#FFF" d="M747.30078 130.57031h22.3789v-13.35937h-22.3789Zm0 0"/><use xlink:href="#L" x="749.27821" y="126.32844"/><use xlink:href="#M" x="755.1084" y="126.32844"/><use xlink:href="#Q" x="758.92235" y="126.32844"/><use xlink:href="#P" x="763.86857" y="126.32844"/><path fill="none" stroke="#000" stroke-miterlimit="10" stroke-width=".39728" d="m604.05107 155.96882 136.98444-28.45704"/><path d="M743.3711 127.02344c-1.01563.00781-2.84376-.01563-4.19532-.64844 1.19531.86719 1.35938 1.64453.60938 2.91797.98437-1.11719 2.65234-1.8711 3.58593-2.26953m0 0"/></svg>