<svg xmlns="http://www.w3.org/2000/svg" xmlns:xlink="http://www.w3.org/1999/xlink" width="492.92pt" height="142.131pt" viewBox="0 0 492.92 142.131"><defs><path id="g" d="M-.125-7.60937c.59375.01562.73438.09375.89063.59375L3.10938 0h1.46875l1.39062-4.0625c.42188-1.26562.84375-2.39062 1.01563-2.85937.23437-.54688.32812-.64063.98437-.6875v-.4375H5.26563v.4375l.65625.0625c.23437.01562.26562.14062.20312.375-.10937.39062-.375 1.35937-.71875 2.4375-.23437.70312-.73437 2.40625-.95312 3h-.0625l-1.75-5.39063c-.0625-.25-.04688-.40625.21875-.42187l.5625-.0625v-.4375H-.125Zm0 0"/><path id="h" d="M.5625-1.5625c0 .875.54688 1.70313 1.73438 1.70313.73437 0 1.25-.40625 1.65625-.67188.15625.35938.35937.67188.92187.67188.60938 0 1.32813-.20313 1.70313-.34375v-.39063c-.15625.01563-.42188 0-.59375-.0625-.14063-.04687-.35938-.1875-.35938-.85937v-2.6875c0-.73438-.10937-1.64063-2.15625-1.64063-1.71875 0-2.78125.6875-2.78125 1.4375 0 .51563.75.73438 1.04688.73438.26562 0 .375-.1875.5-.46875.3125-1 .70312-1.17188 1.01562-1.17188.34375 0 .65625.20313.65625.875v.60938c-.40625.28125-1.375.5625-2.125.82812C.85938-2.6875.5625-2.23437.5625-1.5625M2.32813-1.75c0-.54687.20312-.8125.54687-1.01562.35938-.1875.75-.35938 1.03125-.48438v1.6875c-.01562.64063-.375.79688-.70312.79688-.45313 0-.875-.35938-.875-.98438m0 0"/><path id="i" d="M.28125 0h3.26563v-.45312c-.65625-.03125-.73438-.07813-.73438-.5625v-7.53125L2.70313-8.625.375-8.3125v.42188l.39063.0625c.1875.03125.28124.125.28124.59375v6.21875c0 .48437-.09374.53125-.76562.5625Zm0 0"/><path id="j" d="M.45313-2.84375c0 1.57813.70312 2.98438 2.84375 2.98438 1.39062 0 2.14062-.67188 2.54687-1.70313l-.42187-.23437C5.07813-1.125 4.57813-.75 3.875-.75c-1.17187 0-1.57812-.95312-1.57812-2.1875h3.03125c.40625 0 .60937-.10937.60937-.48437 0-.95313-.375-2.42188-2.60937-2.42188-2.09375 0-2.875 1.35938-2.875 3m1.84375-.64062c0-.84375.23437-1.82813.98437-1.82813.70313 0 .82813.89063.82813 1.4375 0 .32813-.09375.39063-.35938.39063Zm0 0"/><path id="k" d="m.34375-5.09375.40625.0625c.1875.03125.26563.125.26563.59375v2.82813c0 1.35937.84375 1.75 1.6875 1.75.98437 0 1.59375-.53125 2.0625-.79688L4.85938 0h2.42187v-.45312c-.67187-.03125-.75-.07813-.75-.5625v-4.75l-.09375-.07813L4.07813-5.5v.40625l.40625.0625c.1875.03125.28125.125.28125.59375v2.45313c0 .20312-.01563.48437-.09375.65625-.10938.28124-.42188.54687-.92188.54687-.625 0-.98437-.35937-.98437-1.26562v-3.71875l-.07813-.07813L.34375-5.5Zm0 0"/><path id="l" d="M.375 0h3.51563v-.45312C3-.5 2.875-.53125 2.875-1.01562v-2.57813c0-.60937.10938-.89062.39063-.89062.1875 0 .35937.09375.625.23437.14062.10938.29687.1875.53125.1875s.46875-.125.59375-.29687.1875-.40625.1875-.67188c0-.48437-.32813-.8125-.8125-.8125s-.84375.32813-1.53125 1.03125l-.15625-1.03125L.4375-5.5v.40625l.40625.0625c.1875.03125.28125.125.28125.59375v3.42188c0 .48437-.07812.53125-.75.5625Zm0 0"/><path id="m" d="M.45313-2.75c0 1.70313.89062 2.89063 2.35937 2.89063.4375 0 1.04688-.23438 1.67188-.71875V0h2.5v-.45312c-.65625-.03125-.75-.07813-.75-.5625v-7.53125L6.15625-8.625l-2.35937.3125v.42188l.40625.0625c.1875.03125.28125.125.28125.59375v1.54687c-.25-.10937-.59375-.15625-.98438-.15625-.85937 0-1.64062.26563-2.17187.75-.54688.51563-.875 1.29688-.875 2.34375m1.84375-.23437c0-1.70313.64062-2.32813 1.29687-2.32813.45313 0 .6875.23438.79688.46875.10937.17188.09375.42188.09375.67188v2.40625c0 .46875-.17188 1.01562-.90625 1.01562-.75 0-1.28125-.75-1.28125-2.23437m0 0"/><path id="o" d="M.5625-2.625.75-.54687C1.34375 0 2.48438.17188 3.25.17188 5.57813.15625 6.26563-1.09375 6.26563-2.3125c0-1.53125-1.125-2.125-2.1875-2.57812-.78125-.3125-1.75-.73438-1.75-1.625 0-.71875.51562-1.17188 1.21875-1.17188.73437 0 1.45312.51563 1.78125 1.89063h.40625v-1.90625c-.59375-.375-1.48438-.53125-2.1875-.53125-1.96875 0-2.89063 1.01562-2.89063 2.39062 0 1.45313 1.28125 2.0625 2.3125 2.5 1.0625.45313 1.54688.96875 1.54688 1.70313-.01563.875-.5625 1.28125-1.3125 1.28125-.875 0-1.76563-.79688-2.21875-2.26563Zm0 0"/><path id="p" d="M.875-7.35937c0 .54687.40625 1.01562 1.0625 1.01562.64063 0 1.07813-.46875 1.07813-1.01562 0-.54688-.42188-1.01563-1.07813-1.01563S.875-7.90625.875-7.35937M.375 0h3.28125v-.45312c-.67187-.03125-.78125-.07813-.78125-.5625v-4.75l-.0625-.07813L.4375-5.5v.40625l.40625.0625c.1875.03125.28125.125.28125.59375v3.42188c0 .48437-.07812.53125-.75.5625Zm0 0"/><path id="q" d="M.375 1.10938c0 1.125 1.20313 1.70312 2.875 1.70312.5 0 1.34375-.10937 1.92188-.42187C5.8125 2.04688 6.25 1.45313 6.25.60938c0-1.40625-1.07812-1.82813-2.29687-1.82813H2.875c-.57812 0-.78125-.1875-.78125-.40625 0-.25.29688-.375.45313-.42187.21875.03125.39062.01562.53125.01562 1.375 0 2.60937-.5 2.60937-1.875 0-.34375-.125-.70312-.28125-.90625l.76563-.14062.23437-.875-.10937-.125-1.46875.5c-.39063-.23438-1.03125-.39063-1.65625-.39063-2.09375 0-2.71875 1.07813-2.71875 1.98438 0 .96875.71875 1.54687 1.42187 1.65625v.03125C1.125-2 .625-1.57812.625-1.09375c0 .5.57813.96875 1.07813 1.07813v.03125C1.21875.125.375.32813.375 1.10938M1.92188 1c0-.3125.14062-.53125.3125-.64062C2.39063.25 2.75.1875 3.25.1875c1 0 1.59375.21875 1.59375.92188 0 .82812-.65625 1.17187-1.42187 1.17187-.78125 0-1.5-.45312-1.5-1.28125m.35937-4.89062c0-1 .40625-1.42188.875-1.42188.45313 0 .875.42188.875 1.40625 0 .82813-.35937 1.34375-.89062 1.34375-.5 0-.85938-.53125-.85938-1.32812m0 0"/><path id="r" d="M.375 0h3.10938v-.45312l-.21875-.01563C3.01563-.5 2.875-.53125 2.875-.92187V-3.6875c0-.26562.04688-.51562.125-.6875.15625-.29687.46875-.57812.95313-.57812.59375 0 .89062.375.92187 1.0625v2.96875c0 .39062-.125.42187-.375.45312l-.25.01563V0h3.14063v-.45312c-.67188-.03125-.76563-.07813-.76563-.5625v-3.03125c-.01562-1.09375-.54687-1.79688-1.75-1.79688-.6875 0-1.23437.34375-2 .8125l-.15625-.8125L.4375-5.5v.40625l.40625.0625c.1875.03125.28125.125.28125.59375v3.42188c0 .48437-.07812.53125-.75.5625Zm0 0"/><path id="n" d="M.375-.45312c0 .32812.26563.59375.73438.59375.79687 0 1.23437-.79688 1.71875-1.57813l.46875-.76562h.03125l.21875.92187C3.76563-.35937 3.96875.14063 4.5625.14063c.85938 0 1.29688-.89063 1.65625-1.59375l-.29687-.15626c-.29688.51563-.60938 1.14063-.9375 1.14063-.21875 0-.3125-.26562-.5625-1.29687l-.375-1.53125c.42187-.73438 1.01562-1.67188 1.34375-1.67188.34375 0 .35937.1875.70312.1875.26563 0 .5-.25.5-.54687 0-.35938-.26562-.51563-.59375-.51563-.60937 0-1.14062.5625-1.54687 1.21875l-.5.78125h-.03125l-.46875-1.95312-.0625-.04688-1.92188.57813.03125.29687.90625-.0625c.1875 0 .28125.07813.39063.57813l.40625 1.6875-.3125.54687c-.5.85938-.9375 1.46875-1.21875 1.46875-.32813 0-.42188-.29687-.79688-.29687-.29687 0-.5.29687-.5.59375m0 0"/><path id="s" d="M.98438-2.9375h6.40625v-.6875H.98438Zm0 0"/><path id="t" d="m.21875-2.32812.10938.25h3.15625v1.1875c0 .39062-.125.45312-.40625.48437l-.73438.07813V0h3.0625v-.32812l-.51562-.0625c-.28125-.04688-.34375-.10938-.34375-.5v-1.1875h1.1875V-2.625h-1.1875v-5.14062H3.6875c-1.09375 1.60937-2.40625 3.625-3.46875 5.4375M1.0625-2.625C1.75-3.89062 2.59375-5.23437 3.48438-6.64062V-2.625Zm0 0"/><path id="u" d="M.98438-2.9375h2.85937v2.84375h.6875V-2.9375h2.85938v-.6875H4.53125v-2.85937h-.6875V-3.625H.98438Zm0 0"/><path id="v" d="M-.25 2.14063c.01563.39062.51563.67187 1.0625.67187 1.17188 0 1.65625-.9375 2.14063-3.17187l1.07812-4.90625H5.5l.125-.4375H4.10938l.32812-1.3125c.21875-.875.4375-1.21875.76563-1.21875.29687 0 .51562.26562.78125.82812.04687.10938.14062.1875.3125.1875.23437 0 .57812-.20312.57812-.5 0-.5-.64062-.90625-1.32812-.90625-1.375 0-1.95313.96875-2.39063 2.5l-.125.42188h-1l-.14062.4375H2.9375L1.57813 1.59375c-.125.71875-.25.79688-.35938.79688-.125 0-.3125-.09375-.625-.57813-.09375-.10937-.15625-.25-.3125-.25-.25 0-.53125.28125-.53125.57813m0 0"/><path id="x" d="M1-3.28125c0 2.625.59375 5.51563 3.0625 5.60938v-.34375c-.82812-.17188-2.125-1.1875-2.125-5.26563 0-4.04687 1.23438-5.07812 2.125-5.25v-.35937C1.59375-8.78125 1-5.90625 1-3.28125m0 0"/><path id="y" d="M.6875 1.98438v.34375C3.15625 2.23438 3.75-.65625 3.75-3.28125s-.59375-5.5-3.0625-5.60937v.35937c.89063.17188 2.14063 1.20313 2.14063 5.25 0 4.07813-1.3125 5.09375-2.14063 5.26563m0 0"/><path id="F" d="M.5-3.59375C.5-1.07812 1.42188.14063 3.17188.14063c1.71875 0 2.625-1.04688 2.625-2.625 0-1.57813-.95313-2.42188-2.20313-2.42188-.92187 0-1.59375.60938-1.90625 1C1.70313-6.46875 2.40625-7.5 3.45313-7.5c.53125 0 .92187.45313 1.09375 1.10938.03125.14062.125.25.29687.25.25 0 .60938-.20313.60938-.53125 0-.46875-.5625-1.23438-1.96875-1.23438C1.64063-7.90625.5-6.48437.5-3.59375M1.6875-2.75c0-.70312.53125-1.5625 1.5-1.5625.73438 0 1.45313.65625 1.45313 2 0 1.21875-.46875 2.04688-1.45313 2.04688-1.01562 0-1.5-1.07813-1.5-2.48438m0 0"/><path id="H" d="M.48438-3.89062c0 2.32812.67187 4.03125 2.59375 4.03125C5 .14063 5.6875-1.5625 5.6875-3.89062S5-7.90625 3.07813-7.90625.48438-6.21875.48438-3.89062m1.17187 0c0-1.89063.32813-3.60938 1.42188-3.60938C4.1875-7.5 4.5-5.78125 4.5-3.89062s-.3125 3.625-1.42187 3.625c-1.09375 0-1.42188-1.73438-1.42188-3.625m0 0"/><path id="w" d="M.35938-.125c0 .04688.09375.125.21875.125.0625 0 .1875-.01562.21874-.0625L2.25-3.79687c.04688-.125.0625-.1875.0625-.23438 0-.17187-.28125-.23437-.53125-.23437-.23437 0-.625.09375-.65625.25Zm0 0"/><clipPath id="a"><path d="M1.45703 35H140v106.26563H1.45703Zm0 0"/></clipPath><clipPath id="b"><path d="M139 0h352.38281v36H139Zm0 0"/></clipPath><clipPath id="c"><path d="M138 0h353.38281v36H138Zm0 0"/></clipPath><clipPath id="d"><path d="M139 35h352.38281v106.26563H139Zm0 0"/></clipPath><clipPath id="e"><path d="M138 35h353.38281v106.26563H138Zm0 0"/></clipPath><clipPath id="f"><path d="M1.45703 0H140v36H1.45703Zm0 0"/></clipPath><clipPath id="z"><path d="M1.45703 35h489.92578v1H1.45703Zm0 0"/></clipPath><clipPath id="A"><path d="M1.45703 70h489.92578v1H1.45703Zm0 0"/></clipPath><clipPath id="B"><path d="M1.45703 105h489.92578v2H1.45703Zm0 0"/></clipPath><clipPath id="C"><path d="M1.45703 140h489.92578v1.26563H1.45703Zm0 0"/></clipPath><clipPath id="D"><path d="M1.45703 0h489.92578v141.26563H1.45703Zm0 0"/></clipPath><clipPath id="E"><path d="M138 0h2v141.26563h-2Zm0 0"/></clipPath><clipPath id="G"><path d="M138 35h353.38281v36H138Zm0 0"/></clipPath><clipPath id="I"><path d="M138 70h353.38281v37H138Zm0 0"/></clipPath><clipPath id="J"><path d="M138 105h353.38281v36.26563H138Zm0 0"/></clipPath><clipPath id="K"><path d="M262 105h1v36.26563h-1Zm0 0"/></clipPath><clipPath id="L"><path d="M367 105h2v36.26563h-2Zm0 0"/></clipPath></defs><g clip-path="url(#a)"><path fill="#FFF" stroke="#000" stroke-miterlimit="10" stroke-width=".39608" d="M1.65625 35.41797V141.0703H139.0078V35.41797Zm0 0"/></g><g clip-path="url(#b)"><path fill="#FFF" d="M139.00781 35.41797V.19922h352.1836v35.21875Zm0 0"/></g><g clip-path="url(#c)"><path fill="none" stroke="#000" stroke-miterlimit="10" stroke-width=".39608" d="M139.0078 35.41797V.19922h352.18357v35.21875Zm0 0"/></g><g clip-path="url(#d)"><path fill="#FFF" d="M139.00781 35.41797V141.0703h352.1836V35.41797Zm0 0"/></g><g clip-path="url(#e)"><path fill="none" stroke="#000" stroke-miterlimit="10" stroke-width=".39608" d="M139.0078 35.41797V141.0703h352.18357V35.41797Zm0 0"/></g><g clip-path="url(#f)"><path fill="#FFF" stroke="#000" stroke-miterlimit="10" stroke-width=".39608" d="M1.65625.19922v35.21875H139.0078V.19922Zm0 0"/></g><use xlink:href="#g" x="38.13223" y="22.05217"/><use xlink:href="#h" x="44.92755" y="22.05217"/><use xlink:href="#i" x="51.37629" y="22.05217"/><use xlink:href="#j" x="55.08958" y="22.05217"/><use xlink:href="#k" x="61.22888" y="22.05217"/><use xlink:href="#l" x="68.66783" y="22.05217"/><use xlink:href="#m" x="78.02531" y="22.05217"/><use xlink:href="#j" x="85.1672" y="22.05217"/><use xlink:href="#n" x="95.43563" y="22.05217"/><use xlink:href="#o" x="31.12507" y="55.93302"/><use xlink:href="#p" x="37.6357" y="55.93302"/><use xlink:href="#q" x="41.43563" y="55.93302"/><use xlink:href="#r" x="47.74822" y="55.93302"/><use xlink:href="#j" x="55.28619" y="55.93302"/><use xlink:href="#m" x="65.54724" y="55.93302"/><use xlink:href="#j" x="72.68913" y="55.93302"/><use xlink:href="#n" x="82.95692" y="55.93302"/><use xlink:href="#s" x="92.66098" y="55.93302"/><use xlink:href="#t" x="103.36762" y="55.93302"/><use xlink:href="#o" x="31.12507" y="91.1507"/><use xlink:href="#p" x="37.6357" y="91.1507"/><use xlink:href="#q" x="41.43563" y="91.1507"/><use xlink:href="#r" x="47.74822" y="91.1507"/><use xlink:href="#j" x="55.28619" y="91.1507"/><use xlink:href="#m" x="65.54724" y="91.1507"/><use xlink:href="#j" x="72.68913" y="91.1507"/><use xlink:href="#n" x="82.95692" y="91.1507"/><use xlink:href="#u" x="92.66098" y="91.1507"/><use xlink:href="#t" x="103.36762" y="91.1507"/><use xlink:href="#o" x="30.77472" y="126.66258"/><use xlink:href="#p" x="37.28535" y="126.66258"/><use xlink:href="#q" x="41.08528" y="126.66258"/><use xlink:href="#r" x="47.39786" y="126.66258"/><use xlink:href="#j" x="54.93583" y="126.66258"/><use xlink:href="#m" x="65.19688" y="126.66258"/><use xlink:href="#j" x="72.33877" y="126.66258"/><use xlink:href="#v" x="82.6078" y="126.66258"/><use xlink:href="#w" x="89.87338" y="121.7116"/><use xlink:href="#x" x="93.01542" y="126.66258"/><use xlink:href="#n" x="97.76843" y="126.66258"/><use xlink:href="#y" x="105.13311" y="126.66258"/><g clip-path="url(#z)"><path fill="none" stroke="#000" stroke-miterlimit="10" stroke-width=".39608" d="M1.65625 35.41797h489.53512"/></g><g clip-path="url(#A)"><path fill="none" stroke="#000" stroke-miterlimit="10" stroke-width=".39608" d="M1.65625 70.6328h489.53512"/></g><g clip-path="url(#B)"><path fill="none" stroke="#000" stroke-miterlimit="10" stroke-width=".39608" d="M1.65625 105.85155h489.53512"/></g><g clip-path="url(#C)"><path fill="none" stroke="#000" stroke-miterlimit="10" stroke-width=".39608" d="M1.65625 141.0703h489.53512"/></g><g clip-path="url(#D)"><path fill="none" stroke="#000" stroke-miterlimit="10" stroke-width=".39608" d="M1.65625.19922V141.0703h489.53512V.19922Zm0 0"/></g><g clip-path="url(#E)"><path fill="none" stroke="#000" stroke-miterlimit="10" stroke-width=".39608" d="M139.0078.19922V141.0703"/></g><use xlink:href="#s" x="149.34875" y="21.69337"/><use xlink:href="#F" x="157.71602" y="21.69337"/><use xlink:href="#s" x="255.00178" y="21.69337"/><use xlink:href="#t" x="263.36905" y="21.69337"/><use xlink:href="#t" x="364.83823" y="21.69337"/><use xlink:href="#F" x="470.49225" y="21.69337"/><g clip-path="url(#G)"><path fill="none" stroke="#000" stroke-miterlimit="10" stroke-width=".39608" d="M139.0078 35.41797V70.6328h352.18357V35.41797Zm0 0"/></g><use xlink:href="#s" x="205.25891" y="54.83772"/><use xlink:href="#s" x="310.91392" y="54.83772"/><path fill="none" stroke="#000" stroke-dasharray="2.9706579136 2.9706579136" stroke-miterlimit="10" stroke-width=".39608" d="M367.92575 35.41797V70.6328"/><use xlink:href="#H" x="364.84121" y="56.91104"/><use xlink:href="#u" x="416.56795" y="56.26797"/><g clip-path="url(#I)"><path fill="none" stroke="#000" stroke-miterlimit="10" stroke-width=".39608" d="M139.0078 70.6328v35.21875h352.18357V70.63281Zm0 0"/></g><use xlink:href="#s" x="205.25891" y="90.05639"/><path fill="none" stroke="#000" stroke-dasharray="2.9706579136 2.9706579136" stroke-miterlimit="10" stroke-width=".39608" d="M262.26951 70.6328v35.21875"/><use xlink:href="#H" x="259.18718" y="92.12971"/><use xlink:href="#u" x="310.91392" y="91.48565"/><use xlink:href="#u" x="416.56795" y="91.48565"/><g clip-path="url(#J)"><path fill="none" stroke="#000" stroke-miterlimit="10" stroke-width=".39608" d="M139.0078 105.85155v35.21875h352.18357v-35.21875Zm0 0"/></g><use xlink:href="#u" x="205.25891" y="126.70432"/><g clip-path="url(#K)"><path fill="none" stroke="#000" stroke-dasharray="2.9706579136 2.9706579136" stroke-miterlimit="10" stroke-width=".39608" d="M262.26951 105.85155v35.21875"/></g><use xlink:href="#H" x="259.18718" y="127.34739"/><use xlink:href="#s" x="310.91392" y="125.27406"/><g clip-path="url(#L)"><path fill="none" stroke="#000" stroke-dasharray="2.9706579136 2.9706579136" stroke-miterlimit="10" stroke-width=".39608" d="M367.92575 105.85155v35.21875"/></g><use xlink:href="#H" x="364.84121" y="127.34739"/><use xlink:href="#u" x="416.56795" y="126.70432"/></svg>