<svg xmlns="http://www.w3.org/2000/svg" xmlns:xlink="http://www.w3.org/1999/xlink" width="512.719pt" height="184.687pt" viewBox="0 0 512.719 184.687"><defs><path id="h" d="M-.125-7.95312c.625.03125.76563.10937.9375.625L3.3125 0H4.875l1.48438-4.23437C6.8125-5.5625 7.25-6.75 7.4375-7.21875c.25-.59375.35938-.67187 1.0625-.73437v-.45313H5.625v.45313l.6875.07812c.25.01563.28125.14063.21875.39063-.125.40625-.40625 1.40625-.76562 2.53125-.25.73437-.79688 2.53125-1.01563 3.14062h-.0625l-1.85937-5.625C2.75-7.70312 2.75-7.85937 3.04688-7.875l.59375-.07812v-.45313H-.125Zm0 0"/><path id="i" d="M.59375-1.625c0 .90625.59375 1.76563 1.84375 1.76563.79688 0 1.34375-.40625 1.78125-.70313.15625.375.39063.70313.98438.70313.64062 0 1.40625-.20313 1.8125-.35938L7-.625c-.15625.01563-.4375 0-.625-.0625-.15625-.04687-.39062-.1875-.39062-.90625v-2.79687c0-.76563-.10938-1.70313-2.29688-1.70313-1.8125 0-2.95312.70313-2.95312 1.5 0 .51563.79687.75 1.10937.75.28125 0 .40625-.1875.53125-.48437.34375-1.03125.75-1.21875 1.09375-1.21875.35938 0 .70313.20312.70313.90625V-4c-.4375.29688-1.46875.59375-2.26563.85938-.98437.34375-1.3125.8125-1.3125 1.51562m1.89063-.20312c0-.5625.20312-.84375.57812-1.04688.375-.21875.79688-.375 1.10938-.51562V-1.625c-.03125.65625-.40625.82813-.75.82813-.5 0-.9375-.375-.9375-1.03125m0 0"/><path id="j" d="M.29688 0h3.48437v-.46875C3.07813-.5 3-.5625 3-1.0625v-7.85937L2.89063-9l-2.5.3125v.4375l.42187.07813c.20313.03125.29688.14062.29688.625v6.48437c0 .5-.09376.5625-.8125.59375Zm0 0"/><path id="k" d="M.48438-2.96875c0 1.65625.73437 3.10938 3.03125 3.10938C5 .14063 5.79688-.5625 6.21875-1.625l-.4375-.25C5.40625-1.17187 4.875-.78125 4.125-.78125c-1.23437 0-1.67187-1-1.67187-2.28125h3.21875c.45312 0 .65625-.10937.65625-.5 0-1-.39063-2.53125-2.78125-2.53125-2.23438 0-3.0625 1.42188-3.0625 3.125m1.96875-.67187c0-.875.23437-1.90625 1.04687-1.90625.75 0 .875.9375.875 1.5 0 .34375-.09375.40625-.375.40625Zm0 0"/><path id="l" d="m.375-5.3125.42188.0625c.20312.03125.28124.125.28124.60938v2.95312c0 1.42188.90626 1.82813 1.79688 1.82813 1.0625 0 1.70313-.54688 2.20313-.82813L5.1875 0H7.75v-.46875C7.04688-.5 6.96875-.5625 6.96875-1.0625v-4.95312l-.10937-.07813-2.5.34375v.4375l.42187.0625c.20313.03125.29688.125.29688.60938v2.57812c0 .20313-.01563.5-.09375.6875-.125.28125-.45313.5625-.98438.5625-.65625 0-1.04687-.375-1.04687-1.3125v-3.89062l-.09375-.07813L.375-5.75Zm0 0"/><path id="m" d="M.39063 0h3.75v-.46875C3.1875-.51562 3.0625-.5625 3.0625-1.0625v-2.70312c0-.625.10938-.92188.42188-.92188.1875 0 .375.09375.65625.25.15625.125.32812.20313.5625.20313.25 0 .5-.14063.64062-.3125q.1875-.28125.1875-.70313c0-.51562-.32812-.84375-.84375-.84375-.51562 0-.92187.32813-1.64062 1.0625L2.875-6.09375.46875-5.75v.4375l.42188.0625c.20312.03125.3125.125.3125.60938v3.57812c0 .5-.09376.5625-.8125.59375Zm0 0"/><path id="n" d="M.48438-2.875C.48438-1.09375 1.42188.14063 3 .14063c.45313 0 1.10938-.23438 1.78125-.75V0h2.67188v-.46875C6.73438-.5 6.64063-.5625 6.64063-1.0625v-7.85937L6.5625-9l-2.51562.3125v.4375l.4375.07813c.20312.03125.29687.14062.29687.625v1.60937c-.26562-.125-.625-.15625-1.04687-.15625-.92188 0-1.75.26563-2.32813.78125C.82813-4.78125.48438-3.96875.48438-2.875m1.96875-.23437c0-1.78125.6875-2.4375 1.39062-2.4375.46875 0 .71875.25.84375.5.10938.17187.09375.4375.09375.6875v2.51562c0 .48438-.17187 1.0625-.96875 1.0625-.8125 0-1.35937-.78125-1.35937-2.32812m0 0"/><path id="p" d="M.59375-2.73437.79688-.5625c.625.5625 1.85937.75 2.67187.75C5.95313.15625 6.67188-1.15625 6.67188-2.42187c0-1.59375-1.20313-2.21875-2.32813-2.6875-.82812-.32813-1.85937-.76563-1.85937-1.6875 0-.76563.54687-1.23438 1.28125-1.23438.79687 0 1.5625.54688 1.90625 1.96875H6.125v-1.98437c-.65625-.39063-1.59375-.54688-2.34375-.54688-2.09375 0-3.07812 1.0625-3.07812 2.5 0 1.5 1.375 2.15625 2.46875 2.60938 1.125.45312 1.64062 1 1.64062 1.78125C4.79688-.79687 4.21875-.375 3.42188-.375c-.9375 0-1.89063-.84375-2.35938-2.35937Zm0 0"/><path id="q" d="M.9375-7.6875c0 .57813.42188 1.07813 1.125 1.07813.6875 0 1.15625-.5 1.15625-1.07813 0-.5625-.45312-1.0625-1.15625-1.0625-.70312 0-1.125.5-1.125 1.0625M.39063 0h3.5v-.46875C3.17188-.5 3.0625-.5625 3.0625-1.0625v-4.95312L3-6.09375.46875-5.75v.4375l.42188.0625c.20312.03125.3125.125.3125.60938v3.57812c0 .5-.09376.5625-.8125.59375Zm0 0"/><path id="r" d="M.39063 1.15625c0 1.1875 1.29687 1.78125 3.0625 1.78125.54687 0 1.4375-.10937 2.0625-.4375.6875-.35937 1.14062-.98437 1.14062-1.85937 0-1.46875-1.14062-1.92188-2.45312-1.92188H3.0625c-.60937 0-.82812-.1875-.82812-.40625 0-.28125.3125-.40625.48437-.4375.23438.01563.42188 0 .5625 0 1.46875 0 2.78125-.51562 2.78125-1.95312 0-.35938-.14062-.73438-.29687-.95313l.8125-.14062.25-.92188-.10938-.125-1.57812.51563c-.40625-.23438-1.09375-.39063-1.76563-.39063-2.23437 0-2.89062 1.125-2.89062 2.0625 0 1 .76562 1.60938 1.51562 1.73438v.01562c-.79687.20313-1.32812.64063-1.32812 1.125 0 .53125.60937 1.03125 1.14062 1.14063v.03125C1.3125.125.39063.34375.39063 1.15625m1.65625-.10937c0-.34375.15625-.5625.32812-.67188.17188-.10937.54688-.1875 1.09375-.1875 1.04688 0 1.6875.23438 1.6875.96875 0 .875-.6875 1.21875-1.51562 1.21875-.82813 0-1.59375-.46875-1.59375-1.32812m.375-5.125c0-1.03125.4375-1.46875.9375-1.46875.48437 0 .9375.4375.9375 1.46875 0 .85937-.375 1.40625-.95313 1.40625-.51562 0-.92187-.5625-.92187-1.40625m0 0"/><path id="s" d="M.39063 0h3.32812v-.46875l-.23437-.01562C3.21875-.51562 3.0625-.5625 3.0625-.95312v-2.89063c0-.28125.04688-.54687.14063-.71875.15625-.3125.48437-.60937 1-.60937.64062 0 .96875.39062 1 1.10937v3.10938c0 .39062-.14063.4375-.40625.46875l-.26563.01562V0H7.875v-.46875C7.15625-.5 7.0625-.5625 7.0625-1.0625v-3.15625c-.01562-1.14062-.59375-1.875-1.85937-1.875-.73438 0-1.32813.35938-2.14063.82813l-.15625-.82813L.46875-5.75v.4375l.42188.0625c.20312.03125.3125.125.3125.60938v3.57812c0 .5-.09376.5625-.8125.59375Zm0 0"/><path id="o" d="M.39063-.48437c0 .35937.28125.625.76562.625.82813 0 1.29688-.82813 1.79688-1.64063l.5-.79687h.01562l.23438.95312c.21875.96875.4375 1.48438 1.0625 1.48438.89062 0 1.35937-.92188 1.71875-1.65625l-.3125-.17188c-.29688.54688-.625 1.20313-.96875 1.20313-.23438 0-.3125-.28125-.59375-1.35938L4.21875-3.4375c.45313-.78125 1.0625-1.75 1.42188-1.75.35937 0 .375.20313.73437.20313.26563 0 .51563-.26563.51563-.57813 0-.375-.28125-.53125-.625-.53125-.64063 0-1.1875.57813-1.60938 1.26563L4.125-4h-.03125l-.48437-2.04687-.0625-.04688-2.01563.60938.03125.29687.95313-.07812c.20312 0 .28125.09375.40625.60937l.42187 1.76563-.32812.57812C2.5-1.42187 2.04688-.78125 1.75-.78125c-.35937 0-.4375-.29687-.82812-.29687-.3125 0-.53125.29687-.53125.59375m0 0"/><path id="t" d="M.32813-1.23437c0 .51562.82812 1.375 2.54687 1.375 1.76563 0 2.875-.89063 2.875-2.4375 0-1.625-1.39062-2.10938-2.0625-2.17188v-.04687c.65625-.10938 1.70313-.59375 1.70313-1.79688 0-1.34375-1.04688-1.9375-2.35938-1.9375-1.59375 0-2.39062.92188-2.39062 1.4375 0 .375.4375.57813.59375.57813.15624 0 .25-.07813.29687-.23438.28125-.82812.73438-1.35937 1.42188-1.35937.95312 0 1.1875.84375 1.1875 1.51562 0 .73438-.25 1.64063-1.28125 1.64063-.57813 0-.92188-.10938-1.0625-.10938-.15626 0-.21876.10938-.21876.34375 0 .20313.0625.32813.21876.32813.14062 0 .48437-.10938 1.0625-.10938 1.03125 0 1.60937.92188 1.60937 1.98438 0 1.45312-.70312 1.95312-1.57812 1.95312-.79688 0-1.32813-.59375-1.5625-1.28125-.07813-.23437-.1875-.34375-.35938-.34375-.21875 0-.64062.21875-.64062.67188m0 0"/><path id="u" d="M1.03125-3.07812h6.6875v-.70313h-6.6875Zm0 0"/><path id="v" d="M1.3125 0h4v-.34375L4.29688-.4375c-.26563-.03125-.40625-.125-.40625-.59375V-8.1875l-.0625-.0625-2.51563.42188v.29687l1.14063.14063c.20312.03125.28125.10937.28125.46875v5.89062c0 .46875-.10938.5625-.39063.59375L1.3125-.34375Zm0 0"/><path id="w" d="M1.03125-3.07812h2.98438v2.98437h.71875v-2.98437h2.98437v-.70313H4.73438v-2.98437h-.71875v2.98437H1.03125Zm0 0"/><path id="x" d="m.23438-2.42187.10937.25h3.29688V-.9375c0 .42188-.125.48438-.42188.51563l-.78125.07812V0h3.20313v-.34375l-.53125-.0625C4.8125-.45312 4.75-.51562 4.75-.9375v-1.23437h1.23438v-.5625H4.75v-5.375h-.90625c-1.125 1.67187-2.5 3.78125-3.60937 5.6875m.875-.3125C1.82813-4.0625 2.71875-5.46875 3.64063-6.9375v4.20313Zm0 0"/><path id="y" d="M-.26562 2.23438c.01562.40625.54687.70312 1.125.70312 1.20312 0 1.71875-.98437 2.23437-3.3125l1.125-5.10937H5.75l.10938-.46875h-1.5625l.32812-1.375c.23438-.92188.46875-1.26563.79688-1.26563.32812 0 .54687.26563.8125.85938.07812.10937.15625.20312.34375.20312.25 0 .59375-.21875.59375-.53125 0-.51562-.65625-.9375-1.39063-.9375-1.42187 0-2.01562 1-2.48437 2.60938l-.125.4375H2.125l-.14062.46875H3.0625L1.65625 1.67188c-.14062.75-.28125.82812-.39062.82812-.125 0-.32813-.09375-.64063-.59375C.53125 1.78125.45313 1.625.29688 1.625c-.26563 0-.5625.29688-.5625.60938m0 0"/><path id="A" d="M1.04688-3.42187c0 2.73437.625 5.75 3.1875 5.84375V2.0625C3.375 1.90625 2.01563.82813 2.01563-3.42187c0-4.23438 1.29687-5.29688 2.21875-5.5v-.35938c-2.5625.10938-3.1875 3.125-3.1875 5.85938m0 0"/><path id="B" d="M.71875 2.0625v.35938C3.29688 2.32813 3.92188-.6875 3.92188-3.42187s-.625-5.75-3.20313-5.85938v.35938c.9375.20312 2.23438 1.26562 2.23438 5.5 0 4.25-1.35938 5.32812-2.23438 5.48437m0 0"/><path id="J" d="M.48438-1.23437c0 .54687.85937 1.375 2.4375 1.375 2 0 2.90625-1.21875 2.90625-2.75 0-1.70313-1.0625-2.57813-2.5-2.57813-.67188 0-1.42188.29688-1.79688.65625l.26563-2.29687c.03124-.3125.10937-.35938.34375-.35938h3.03125l.29687-.82812-.0625-.09375h-4.0625L1.23438-8l-.25 4.0625.29687.15625c.5-.59375 1-.875 1.65625-.875.76563 0 1.625.57813 1.625 2.17188 0 1.25-.5 2.20312-1.5625 2.20312-.85937 0-1.28125-.60937-1.53125-1.3125-.0625-.17187-.17187-.29687-.34375-.29687-.25 0-.64062.25-.64062.65625m0 0"/><path id="M" d="M.5-4.0625C.5-1.625 1.21875.14063 3.21875.14063S5.9375-1.625 5.9375-4.0625c0-2.42187-.71875-4.1875-2.71875-4.1875S.5-6.48437.5-4.0625m1.23438 0c0-1.96875.32812-3.76562 1.48437-3.76562S4.70313-6.03125 4.70313-4.0625c0 1.98438-.32813 3.78125-1.48438 3.78125S1.73438-2.07812 1.73438-4.0625m0 0"/><path id="z" d="M.375-.125c0 .04688.10938.125.21875.125.07813 0 .21875-.01562.23438-.07812l1.51562-3.89063c.04688-.125.0625-.1875.0625-.23437 0-.17188-.28125-.25-.54687-.25-.25 0-.65625.10937-.6875.26562Zm0 0"/><clipPath id="a"><path d="M.29297 36H144v148.375H.29297Zm0 0"/></clipPath><clipPath id="b"><path d="M.29297 36H145v148.375H.29297Zm0 0"/></clipPath><clipPath id="c"><path d="M143 0h369.14453v38H143Zm0 0"/></clipPath><clipPath id="d"><path d="M143 36h369v148.375H143Zm0 0"/></clipPath><clipPath id="e"><path d="M143 36h369.14453v148.375H143Zm0 0"/></clipPath><clipPath id="f"><path d="M.29297 0H144v37H.29297Zm0 0"/></clipPath><clipPath id="g"><path d="M.29297 0H145v38H.29297Zm0 0"/></clipPath><clipPath id="C"><path d="M.29297 36h511.85156v2H.29297Zm0 0"/></clipPath><clipPath id="D"><path d="M.29297 73h511.85156v1H.29297Zm0 0"/></clipPath><clipPath id="E"><path d="M.29297 110h511.85156v1H.29297Zm0 0"/></clipPath><clipPath id="F"><path d="M.29297 147h511.85156v1H.29297Zm0 0"/></clipPath><clipPath id="G"><path d="M.29297 183h511.85156v1.375H.29297Zm0 0"/></clipPath><clipPath id="H"><path d="M.29297 0h511.85156v184.375H.29297Zm0 0"/></clipPath><clipPath id="I"><path d="M143 0h2v184.375h-2Zm0 0"/></clipPath><clipPath id="K"><path d="M143 36h369.14453v38H143Zm0 0"/></clipPath><clipPath id="L"><path d="M143 73h369.14453v38H143Zm0 0"/></clipPath><clipPath id="N"><path d="M143 110h369.14453v38H143Zm0 0"/></clipPath><clipPath id="O"><path d="M143 147h369.14453v37.375H143Zm0 0"/></clipPath><clipPath id="P"><path d="M272 147h1v37.375h-1Zm0 0"/></clipPath><clipPath id="Q"><path d="M382 147h2v37.375h-2Zm0 0"/></clipPath></defs><g clip-path="url(#a)"><path fill="#fff" d="M.49219 36.9961v147.18359h143.5039V36.99609Zm0 0"/></g><g clip-path="url(#b)"><path fill="none" stroke="#000" stroke-miterlimit="10" stroke-width=".39783" d="M.49219 36.99609v147.18358h143.50389V36.99609Zm0 0"/></g><path fill="#fff" d="M143.9961 36.9961V.19921h367.95703v36.79687Zm0 0"/><g clip-path="url(#c)"><path fill="none" stroke="#000" stroke-miterlimit="10" stroke-width=".39783" d="M143.99608 36.99609V.19922h367.95699v36.79687Zm0 0"/></g><g clip-path="url(#d)"><path fill="#fff" d="M143.9961 36.9961v147.18359h367.95703V36.99609Zm0 0"/></g><g clip-path="url(#e)"><path fill="none" stroke="#000" stroke-miterlimit="10" stroke-width=".39783" d="M143.99608 36.99609v147.18358h367.95699V36.99609Zm0 0"/></g><g clip-path="url(#f)"><path fill="#fff" d="M.49219.19922v36.79687h143.5039V.19922Zm0 0"/></g><g clip-path="url(#g)"><path fill="none" stroke="#000" stroke-miterlimit="10" stroke-width=".39783" d="M.49219.19922v36.79687h143.50389V.19922Zm0 0"/></g><use xlink:href="#h" x="37.89604" y="23.03197"/><use xlink:href="#i" x="45.13632" y="23.03197"/><use xlink:href="#j" x="52.00732" y="23.03197"/><use xlink:href="#k" x="55.96375" y="23.03197"/><use xlink:href="#l" x="62.50506" y="23.03197"/><use xlink:href="#m" x="70.43111" y="23.03197"/><use xlink:href="#n" x="80.309" y="23.03197"/><use xlink:href="#k" x="87.91854" y="23.03197"/><use xlink:href="#o" x="98.77976" y="23.03197"/><use xlink:href="#p" x="41.49614" y="58.43097"/><use xlink:href="#q" x="48.43309" y="58.43097"/><use xlink:href="#r" x="52.48184" y="58.43097"/><use xlink:href="#s" x="59.20777" y="58.43097"/><use xlink:href="#k" x="67.23933" y="58.43097"/><use xlink:href="#n" x="78.07996" y="58.43097"/><use xlink:href="#k" x="85.6895" y="58.43097"/><use xlink:href="#t" x="96.55014" y="58.43097"/><use xlink:href="#p" x="31.00342" y="95.22562"/><use xlink:href="#q" x="37.94037" y="95.22562"/><use xlink:href="#r" x="41.98912" y="95.22562"/><use xlink:href="#s" x="48.71506" y="95.22562"/><use xlink:href="#k" x="56.74661" y="95.22562"/><use xlink:href="#n" x="67.58724" y="95.22562"/><use xlink:href="#k" x="75.19678" y="95.22562"/><use xlink:href="#o" x="86.05742" y="95.22562"/><use xlink:href="#u" x="96.18124" y="95.22562"/><use xlink:href="#v" x="107.36527" y="95.22562"/><use xlink:href="#p" x="31.00342" y="132.02126"/><use xlink:href="#q" x="37.94037" y="132.02126"/><use xlink:href="#r" x="41.98912" y="132.02126"/><use xlink:href="#s" x="48.71506" y="132.02126"/><use xlink:href="#k" x="56.74661" y="132.02126"/><use xlink:href="#n" x="67.58724" y="132.02126"/><use xlink:href="#k" x="75.19678" y="132.02126"/><use xlink:href="#o" x="86.05742" y="132.02126"/><use xlink:href="#w" x="96.18124" y="132.02126"/><use xlink:href="#x" x="107.36527" y="132.02126"/><use xlink:href="#p" x="30.96579" y="169.12238"/><use xlink:href="#q" x="37.90273" y="169.12238"/><use xlink:href="#r" x="41.95148" y="169.12238"/><use xlink:href="#s" x="48.67742" y="169.12238"/><use xlink:href="#k" x="56.70898" y="169.12238"/><use xlink:href="#n" x="67.5496" y="169.12238"/><use xlink:href="#k" x="75.15914" y="169.12238"/><use xlink:href="#y" x="86.01978" y="169.12238"/><use xlink:href="#z" x="93.60932" y="163.95064"/><use xlink:href="#A" x="96.89276" y="169.12238"/><use xlink:href="#o" x="101.85769" y="169.12238"/><use xlink:href="#B" x="109.55076" y="169.12238"/><g clip-path="url(#C)"><path fill="none" stroke="#000" stroke-miterlimit="10" stroke-width=".39783" d="M.49219 36.99609h511.46088"/></g><g clip-path="url(#D)"><path fill="none" stroke="#000" stroke-miterlimit="10" stroke-width=".39783" d="M.49219 73.79296h511.46088"/></g><g clip-path="url(#E)"><path fill="none" stroke="#000" stroke-miterlimit="10" stroke-width=".39783" d="M.49219 110.58593h511.46088"/></g><g clip-path="url(#F)"><path fill="none" stroke="#000" stroke-miterlimit="10" stroke-width=".39783" d="M.49219 147.3828h511.46088"/></g><g clip-path="url(#G)"><path fill="none" stroke="#000" stroke-miterlimit="10" stroke-width=".39783" d="M.49219 184.17967h511.46088"/></g><g clip-path="url(#H)"><path fill="none" stroke="#000" stroke-miterlimit="10" stroke-width=".39783" d="M.49219.19922v183.98045h511.46088V.19922Zm0 0"/></g><g clip-path="url(#I)"><path fill="none" stroke="#000" stroke-miterlimit="10" stroke-width=".39783" d="M143.99608.19922v183.98045"/></g><use xlink:href="#u" x="154.78465" y="22.58572"/><use xlink:href="#J" x="163.525" y="22.58572"/><use xlink:href="#u" x="265.1486" y="22.6566"/><use xlink:href="#x" x="273.88896" y="22.6566"/><use xlink:href="#v" x="379.88316" y="22.72748"/><use xlink:href="#x" x="490.24712" y="22.6566"/><g clip-path="url(#K)"><path fill="none" stroke="#000" stroke-miterlimit="10" stroke-width=".39783" d="M143.99608 36.99609v36.79687h367.95699V36.9961Zm0 0"/></g><use xlink:href="#w" x="213.29848" y="58.80135"/><use xlink:href="#w" x="323.72733" y="58.80135"/><use xlink:href="#w" x="434.15618" y="58.80135"/><g clip-path="url(#L)"><path fill="none" stroke="#000" stroke-miterlimit="10" stroke-width=".39783" d="M143.99608 73.79296v36.79297h367.95699V73.79296Zm0 0"/></g><use xlink:href="#u" x="213.29848" y="94.11749"/><use xlink:href="#u" x="323.72733" y="94.11749"/><path fill="none" stroke="#000" stroke-dasharray="2.9837788773000002 2.9837788773000002" stroke-miterlimit="10" stroke-width=".39783" d="M383.16793 73.79296v36.79297"/><use xlink:href="#M" x="380.01793" y="96.26485"/><use xlink:href="#w" x="434.15618" y="95.61096"/><g clip-path="url(#N)"><path fill="none" stroke="#000" stroke-miterlimit="10" stroke-width=".39783" d="M143.99608 110.58593v36.79687h367.95699v-36.79687Zm0 0"/></g><use xlink:href="#u" x="213.29848" y="130.92711"/><path fill="none" stroke="#000" stroke-dasharray="2.9837788773000002 2.9837788773000002" stroke-miterlimit="10" stroke-width=".39783" d="M272.78122 110.58593v36.79687"/><use xlink:href="#M" x="269.61104" y="133.06748"/><use xlink:href="#w" x="323.72733" y="132.42058"/><use xlink:href="#w" x="434.15618" y="132.42058"/><g clip-path="url(#O)"><path fill="none" stroke="#000" stroke-miterlimit="10" stroke-width=".39783" d="M143.99608 147.3828v36.79687h367.95699V147.3828Zm0 0"/></g><use xlink:href="#w" x="213.29848" y="169.2302"/><g clip-path="url(#P)"><path fill="none" stroke="#000" stroke-dasharray="2.9837788773000002 2.9837788773000002" stroke-miterlimit="10" stroke-width=".39783" d="M272.78122 147.3828v36.79687"/></g><use xlink:href="#M" x="269.61104" y="169.87011"/><use xlink:href="#u" x="323.72733" y="167.73673"/><g clip-path="url(#Q)"><path fill="none" stroke="#000" stroke-dasharray="2.9837788773000002 2.9837788773000002" stroke-miterlimit="10" stroke-width=".39783" d="M383.16793 147.3828v36.79687"/></g><use xlink:href="#M" x="380.01793" y="169.87011"/><use xlink:href="#w" x="434.15618" y="169.2302"/></svg>